<svg id="レイヤー_1" data-name="レイヤー 1" xmlns="http://www.w3.org/2000/svg" viewBox="0 0 144.068 28.253"><defs><style>.cls-1{fill:#fff;}</style></defs><path class="cls-1" d="M15.756,11.685h-9.9V9.154h9.9ZM.431,2.778V5.031H15.756V7.082H3.038v11.2H13.552C10.114,21.354,5.206,23.611,0,25.213L1.732,27.56C7.082,25.7,12.5,22.771,15.756,19.33v8.8h2.919V19.306a39.574,39.574,0,0,0,14.1,8.223l1.7-2.346c-4.042-1.12-9.907-3.552-13.587-6.9H31.545V7.082H18.675V5.031H34.04V2.778H18.675V.186H15.756V2.778ZM15.756,16.23h-9.9V13.645h9.9Zm13.009-4.545H18.675V9.154h10.09Zm0,4.545H18.675V13.645h10.09Z"/><path class="cls-1" d="M80.719,28.19H77.788V12.5a18.238,18.238,0,0,1-3.03,3.164l-1.519-2.837A25.738,25.738,0,0,0,80.646.119l2.967.428a27.983,27.983,0,0,1-2.894,7.467ZM97.346,5.808a38.426,38.426,0,0,0-7.12-3.82L92.033,0a29.272,29.272,0,0,1,7.161,3.674ZM106.6,8.589H96.77v6.5h8.493v2.321H96.77v7.446H107.4V27.2H82.93v-2.35h10.8V17.408H85.025V15.087h8.708v-6.5H83.76V6.237H106.6Z"/><path class="cls-1" d="M138.683,10.835h-6.154V8.522h6.154ZM132.529.209h-2.807V2.174H122.27V4.218h7.452V6.505h-9.83V8.522h9.83v2.313H122.27v2h7.452v2.113h-8.6V16.96h8.6v2.316h-9.83v2.047h9.83V24.1h2.807V21.323h11.033V19.276H132.529V16.96h9.7V14.944h-9.7V12.831h8.865V8.522h2.349V6.505h-2.349V2.174h-8.865ZM128.384,25.12a31.51,31.51,0,0,1-3.363-.18,15.627,15.627,0,0,1-7.882-3.141,30.7,30.7,0,0,0,2.281-10.964h-5.889a33.4,33.4,0,0,0,5.854-7.215v-2.2h-9.109V3.674h5.853a35.292,35.292,0,0,1-5.745,6.869v2.5h6.288a22.8,22.8,0,0,1-1.337,6.444,16.448,16.448,0,0,1-1.77-4.857l-2.529.519a16.765,16.765,0,0,0,3.109,6.683,15.4,15.4,0,0,1-4.157,4.162l1.772,2.2a15.4,15.4,0,0,0,4.258-4.4c3.079,2.562,7.556,3.612,11.932,3.612h15.5l.616-2.317Zm10.3-18.615h-6.154V4.218h6.154Z"/><path class="cls-1" d="M52.9,21.208a20.653,20.653,0,0,1-4.921-3.945h5.895v-2.2H47.628V11.906h6.9v-2.2H50.875a45.657,45.657,0,0,0,1.162-4.643h1.989V2.869h-6.4V.18H44.843V2.869H37.721V5.063h2.64A28.734,28.734,0,0,1,41.44,9.706H37.108v2.2h7.735v3.159H37.434v2.2H44.3a26.355,26.355,0,0,1-7.885,6.326l1.556,2.19a32.223,32.223,0,0,0,6.874-5.9v8.378h2.785V19.767a25.662,25.662,0,0,0,3.678,3.549ZM44.08,9.706a35.694,35.694,0,0,0-1.047-4.643h6.29a26.133,26.133,0,0,1-1.09,4.643Z"/><path class="cls-1" d="M58.789,5.929,71.584,2.4,63.86.18l1.353,1.7-9.3,2.573v.01H55.9v9.124A23.69,23.69,0,0,1,54.778,21,14.122,14.122,0,0,1,51.1,26.573l2.673,1.6c1.588-1.691,5.021-5.4,5.021-14.55V12.083h4.694v16.17h3V12.083h3.871V9.793H58.789Z"/></svg>