<svg id="レイヤー_1" data-name="レイヤー 1" xmlns="http://www.w3.org/2000/svg" viewBox="0 0 35.345 28.737"><defs><style>.cls-1{fill:#fff;}</style></defs><path class="cls-1" d="M0,21.414H35.345V0H0ZM12.378,20.7H8V5.489a4.784,4.784,0,0,1,4.892-4.9h5.16v4h-4a1.569,1.569,0,0,0-1.673,1.414V8.653H23.922v3.99H12.378Zm14.855.02H25.086a4.785,4.785,0,0,1-4.892-4.905V13.592l3.737-.012v2.079a1.056,1.056,0,0,0,1.149,1.057h2.153Zm0-16.128H25.08a1.055,1.055,0,0,0-1.149,1.061V7.72H20.194V5.489a4.784,4.784,0,0,1,4.892-4.9h2.147Z"/><path class="cls-1" d="M5.324,23.732a5.251,5.251,0,0,1-.96,3.191A4.854,4.854,0,0,1,1.341,28.6l-.423-.906c2.653-.466,3.082-1.8,3.289-3.018H.5v-.943Z"/><path class="cls-1" d="M7.328,26.828h-1V23.552h1Zm2.879-.9c0,2.283-1.788,2.543-3.212,2.708l-.366-.918a4.933,4.933,0,0,0,2.035-.476,1.358,1.358,0,0,0,.53-1.177V23.446h1.013Z"/><rect class="cls-1" x="11.225" y="25.468" width="5.264" height="0.997"/><polygon class="cls-1" points="21.837 23.825 21.837 28.225 17.319 28.225 17.319 27.286 20.835 27.286 20.835 24.757 17.383 24.757 17.383 23.825 21.837 23.825"/><rect class="cls-1" x="22.927" y="25.468" width="5.268" height="0.997"/><path class="cls-1" d="M30.588,25.034a10.186,10.186,0,0,1-.18,1.975,3.154,3.154,0,0,1-.9,1.728l-.751-.779a2.277,2.277,0,0,0,.729-1.346,8.11,8.11,0,0,0,.143-1.468V23.651h.957Zm1.634,2.325a1.459,1.459,0,0,0,.9-.779,3.6,3.6,0,0,0,.41-1.288l.9.434a3.734,3.734,0,0,1-1.017,2.009,3.216,3.216,0,0,1-2.141.82v-5.1h.949Z"/></svg>