<svg id="レイヤー_1" data-name="レイヤー 1" xmlns="http://www.w3.org/2000/svg" viewBox="0 0 46 34"><defs><style>.cls-1{fill:#231815;}</style></defs><path class="cls-1" d="M0,0A26.19,26.19,0,0,0,4.81.28h5.1a40,40,0,0,0,5-.16,63.81,63.81,0,0,0-.28,6.53V27.88A47.58,47.58,0,0,0,14.93,34H6.18a47.08,47.08,0,0,0,.32-6.12V7.21H4.9A40.59,40.59,0,0,0,0,7.5Z"/><path class="cls-1" d="M36,29.12a27.38,27.38,0,0,0,.2,4.41H30.85a25.58,25.58,0,0,0,.23-4.33V16.08a25.85,25.85,0,0,0-.2-3.7c1,0,1.73.08,3.66.08h7.25A29.64,29.64,0,0,0,46,12.28v4.81a35.3,35.3,0,0,0-4.19-.17H36v4.15h4.72a31.21,31.21,0,0,0,4-.18v4.69a31.72,31.72,0,0,0-4-.18H36Z"/></svg>