<svg id="レイヤー_1" data-name="レイヤー 1" xmlns="http://www.w3.org/2000/svg" viewBox="0 0 50 34"><defs><style>.cls-1{fill:#231815;}</style></defs><path class="cls-1" d="M6,33.72c-3.63,0-4.55,0-6,.16A19.15,19.15,0,0,1,.85,29.2a20.31,20.31,0,0,1,5.79-8.89A55.94,55.94,0,0,1,13.8,15c3.47-2.31,4.31-3.34,4.31-5.16S16.38,6.7,13.8,6.7a4.58,4.58,0,0,0-4.18,2,7,7,0,0,0-1,3.33L.16,11.15C.76,7.7,1.49,6,3.1,4.09,5.39,1.43,9.06,0,13.76,0c5.44,0,9.58,1.79,11.6,5a8.48,8.48,0,0,1,1.32,4.64A9.13,9.13,0,0,1,23,17a53.21,53.21,0,0,1-5.84,4.24c-3.5,2.39-5,3.77-5.91,5.52h9.38a51.38,51.38,0,0,0,6.44-.28V34c-2.34-.2-4-.28-6.89-.28Z"/><path class="cls-1" d="M40,29a24.72,24.72,0,0,0,.21,4.31H34.81A25.79,25.79,0,0,0,35,29V16.18a24.66,24.66,0,0,0-.2-3.62c1,0,1.74.07,3.68.07h7.26A30.17,30.17,0,0,0,50,12.46v4.71A35.61,35.61,0,0,0,45.8,17H40v4.06h4.73a34,34,0,0,0,4-.17v4.59a32.08,32.08,0,0,0-4-.18H40Z"/></svg>