<svg id="レイヤー_1" data-name="レイヤー 1" xmlns="http://www.w3.org/2000/svg" viewBox="0 0 252.96 353.96"><defs><style>.cls-1,.cls-7{fill:#fff;}.cls-1,.cls-2,.cls-3,.cls-4,.cls-6{stroke:#231815;stroke-linecap:round;stroke-linejoin:round;}.cls-1,.cls-2,.cls-3,.cls-4{stroke-width:0.96px;}.cls-2{fill:#738da0;}.cls-3,.cls-6{fill:none;}.cls-4,.cls-5{fill:#231815;}.cls-6{stroke-width:1.33px;}</style></defs><path class="cls-1" d="M68.43,300.44s2.6,25.74,2.5,27.64-1.5,5.62-1.5,7.32.23,3.14,2.63,4.64,6.56,4.22,11.1,7.53c2.18,1.59,7.62,2.88,10.43,2s3.7-1.61,4-2.21.91-1.6-1.5-3.71-14.33-13.24-15.84-16.75-1.4-27.49-1.4-27.49Z"/><path class="cls-1" d="M34.42,300.44s-2.61,25.74-2.51,27.64,1.5,5.62,1.5,7.32-.22,3.14-2.63,4.64-6.56,4.22-11.09,7.53c-2.18,1.59-7.62,2.88-10.43,2s-3.71-1.61-4-2.21-.9-1.6,1.5-3.71,14.34-13.24,15.84-16.75S24,299.39,24,299.39Z"/><path class="cls-2" d="M80.82,165.67s1.61,14.87,1.72,22.94-.06,56.07-.71,68.65S83,314.05,83,314.05a40.3,40.3,0,0,1-8.89,1.71c-5.25.46-8.08-1.56-8.08-1.56s-6-50-6.24-55.06-5-50.4-5.75-55.43H48.84c-.72,5-5.54,50.37-5.75,55.43s-6.15,55.18-6.15,55.18-2.36,2.05-7.55,2.16a20.14,20.14,0,0,1-9.51-2.43s1.79-44.21,1.14-56.79-.82-60.59-.71-68.65S22,165.67,22,165.67s13.51-8.53,29.44-8.53S80.82,165.67,80.82,165.67Z"/><path class="cls-2" d="M84.8,317.68l-.25-6.51s-3.49.52-9.46.86a98.48,98.48,0,0,1-11,0l.25,6.52a50,50,0,0,0,10.87.42A80.54,80.54,0,0,0,84.8,317.68Z"/><path class="cls-2" d="M18.1,317.69l.26-6.52s3.43.52,9.39.86a98.7,98.7,0,0,0,11,0l-.25,6.52A50.1,50.1,0,0,1,27.6,319,80,80,0,0,1,18.1,317.69Z"/><path class="cls-1" d="M217.51,297.28s.26,26.79.16,28.59S215.24,335.38,215,337s0,2.51,2.29,4a75.39,75.39,0,0,1,7.33,5.42,14.69,14.69,0,0,0,4.83,3.44c2.83,1,3.8,0,3.8,0s5.44.31,6.48-1.63c.92-1.7-.49-3-1.47-4-5.88-5.89-12.56-15-12.91-17.94-.23-1.82,1.74-29.48,1.74-29.48Z"/><path class="cls-1" d="M233.29,349.82a3.58,3.58,0,0,0,.47-1.78l-3.38-2.78"/><path class="cls-1" d="M235,349.82s1.2-1.5.75-2.28a9.52,9.52,0,0,0-1.43-1.68"/><path class="cls-1" d="M237,349.52s1.2-1.5.75-2.28a9.52,9.52,0,0,0-1.43-1.68"/><path class="cls-1" d="M238.53,348.89s1.2-1.5.74-2.28a9.21,9.21,0,0,0-1.42-1.68"/><path class="cls-1" d="M205.53,297.78S204,324.53,204,326.34s2,9.61,2.09,11.22-.14,2.5-2.47,3.9a74.82,74.82,0,0,0-7.59,5.06,14.66,14.66,0,0,1-5,3.21c-2.87.88-3.79-.21-3.79-.21s-5.45.05-6.4-1.94c-.84-1.75.63-3,1.66-3.91,6.15-5.6,13.26-14.43,13.75-17.31.31-1.81-.35-29.54-.35-29.54Z"/><path class="cls-1" d="M187.28,349.52a3.68,3.68,0,0,1-.39-1.8l3.51-2.62"/><path class="cls-1" d="M185.6,349.44s-1.12-1.56-.64-2.32a9.53,9.53,0,0,1,1.51-1.61"/><path class="cls-1" d="M183.59,349s-1.13-1.56-.64-2.31a9.12,9.12,0,0,1,1.51-1.61"/><path class="cls-1" d="M182.09,348.34s-1.12-1.56-.64-2.31a9.12,9.12,0,0,1,1.51-1.61"/><path class="cls-1" d="M197.9,163a97.69,97.69,0,0,0-4.41,29.05c.19,16.67,2.54,68.1,1.72,84s.13,22-3.48,34.52c0,0,8.62,5.26,17.37,1.3,0,0,1.65-45.84,2.2-58.56S215,208,215,208s1.43,33,1.13,40.48-2.47,63.45-2.47,63.45c6.33,2.66,17.81,0,17.81,0-2-21,.64-43.09,2.79-58.9,2.35-17.31,5.94-34.24,8-50.78,2-15.46-1.42-32.49-1.42-32.49s-13.08-9.31-19.84-9.6S197.9,163,197.9,163Z"/><path class="cls-1" d="M163.24,203.9s-4.36,25.21-5.56,30.84S152.87,253,152.87,253s.9,6.26.6,7.69-1.58,6.34-1.8,8.07-1.25,1.78-1.77-.57a14.93,14.93,0,0,1,0-5.67s-6.21,7.27-7.72,8.45-1.62-.07-.62-2.45a37.74,37.74,0,0,1,.21-4c.24-2,1.21-3.52,2.22-5.75.86-1.91,3.92-6.67,3.92-6.67s1.76-15.76,2.06-19.6,3.35-32.67,3.57-34.15Z"/><line class="cls-3" x1="141.52" y1="268.55" x2="145.39" y2="262.25"/><line class="cls-3" x1="141.6" y1="266.04" x2="144.38" y2="260.48"/><path class="cls-1" d="M130.92,225.31l-5.54-2.75c-1.6-.8-2.23-3.66-2.23-3.66a9.34,9.34,0,0,0-6-2.65,8.73,8.73,0,0,0-5.84,2.65s-.46,2.41-1.37,3.17c-1.69,1.43-6.4,1.43-6.4,1.43s-.76,2.73,2,5.54,11.75,4.67,11.75,4.67,9.44-1.71,11.2-3.36S130.92,225.31,130.92,225.31Z"/><path class="cls-4" d="M132.2,209s-29,.61-31.83,0-4.46-4-4.46-4-1.78-2.82-1.6-8.18a17.84,17.84,0,0,1,5.41-11.75s7.84-7.85,17.52-7.79a23.64,23.64,0,0,1,17.52,7.79c2.55,2.85,5.25,7.29,5.4,11.75.18,5.36-1.59,8.18-1.59,8.18S135.72,208.56,132.2,209Z"/><path class="cls-1" d="M127.12,218.92a26.24,26.24,0,0,0,6.06-5.93,7.56,7.56,0,0,0,4.31-2c2.21-2,2.29-5.13,1.08-6a1.48,1.48,0,0,0-1.88-.16,37.87,37.87,0,0,0-5.24-13.38c-4.06-6-14.29-6.85-14.29-6.85a18,18,0,0,0-12.46,4.81c-5.65,5.28-6.92,15.42-6.92,15.42a1.47,1.47,0,0,0-1.87.16c-1.21.87-1.13,4,1.08,6a7.54,7.54,0,0,0,4.31,2,26.24,26.24,0,0,0,6.06,5.93,19.83,19.83,0,0,0,9.89,2.69A21.48,21.48,0,0,0,127.12,218.92Z"/><path class="cls-4" d="M137,203s-1.15,4.94-2.84,7c0,0,.48-4.83-.73-6.9-1.47-2.5-6.3-7.16-8.73-10.62,0,0,1.43,4.21,1.85,5.12s1.31,3.39,1.31,3.39c-5.7-4.06-9.58-11.57-9.58-11.57-1.73,4.13-1.44,10.59-1.44,10.59-3.45-4-5.52-10.59-5.52-10.59-2.44,3.45-8.41,10.24-10.16,12.54s-.82,8-.82,8c-1.7-2.1-2.85-7-2.85-7s-1.07-7.81,2.38-13.54,12.14-7.6,17.3-7.28,15.65,2.31,17.88,8.16A36.59,36.59,0,0,1,137,203Z"/><path class="cls-4" d="M217.37,73.1c2,2.62,5.7,2.67,5.7,2.67-.76-3.33,1.13-4.35,1.13-4.35A6.93,6.93,0,0,0,226.57,75c.41-3,2.33-4.6,5.57-7.68s6.26-7.33,6.47-12.7C239,45.07,236,37.77,231.71,33c-4.6-5.2-8.94-7.25-14.23-8a16.68,16.68,0,0,0-10,2.13s-5.8-1.37-10.11,4.86c-3.66,5.27-8.77,15.45-8.77,23,0,5.37,4.51,9.52,7.75,12.59s5.11,3.68,4.43,7.43a6.88,6.88,0,0,0,2.36-3.58s1.9,1,1.13,4.35c0,0,3.66,0,5.71-2.67a24.07,24.07,0,0,0,4.29,1.36C215.43,74.55,217.37,73.1,217.37,73.1Z"/><path class="cls-1" d="M235.41,85.82s-11.18-3.4-13.71-7.93S221.05,66,221.05,66a9.75,9.75,0,0,0-7.52-4,8.81,8.81,0,0,0-7.2,4s1.88,7.33-.66,11.85-10,7.23-10,7.23,4.21,13.81,17.91,13.81,21.88-13.11,21.88-13.11"/><path class="cls-2" d="M191.88,118.64s.61,7.89,2.22,12.42,2.33,10.81,2.62,15.34-3.12,30.88-3.12,30.88a89.74,89.74,0,0,0,21,4.41c11,.82,29.5-6.25,29.5-6.25s-5.45-28-6.17-34.74-1-23.22-1-23.22a109.14,109.14,0,0,0,15.62-5.18s-6.32-16.68-7.15-19.52c-1.41-4.85-11.09-8.32-11.09-8.32s-10.07,10.08-21.39,10.37S196,83.57,196,83.57s-8.91,2.85-10.69,6.85c-1.66,3.74-5.14,16.69-8.71,24.14C176.64,114.56,187.25,118.36,191.88,118.64Z"/><path class="cls-4" d="M198.06,171.49s-3.2,6.91-3.25,11.94c0,2.57.85,7.27,4.84,8.9,3.24,1.34,7-.81,8.25-2.09,1-1-1.4-.75-1.4-.75a3.73,3.73,0,0,0,2.39-1.07c-2.72-.17-4.75-1-5-3.94-.14-1.72,1.17-5,1.68-10.9s-3.32-8.47-3.32-8.47a5.36,5.36,0,0,0-2.79-.85Z"/><path class="cls-1" d="M221.43,36.6C215.31,33.51,207.76,35,207.76,35S204,35.67,201,40.1s-5.5,13.45-5.5,13.45a1.44,1.44,0,0,0-2.36,0c-1.34,1.52-1.24,5.74.79,8.24a9,9,0,0,0,4.7,2.64,24.7,24.7,0,0,0,5.73,5.6,34,34,0,0,0,6.94,3.07,6.12,6.12,0,0,0,4.77,0A34.24,34.24,0,0,0,223,70a24.79,24.79,0,0,0,5.72-5.6,7.18,7.18,0,0,0,4.07-1.9c2.09-1.91,2.59-8.15,1.42-9a1.44,1.44,0,0,0-1.8-.15S229.19,40.53,221.43,36.6Z"/><path class="cls-1" d="M101.8,321.11s-1,12-1.31,13.58c-.39,2.32-5.59,9.05-7.17,10a18.34,18.34,0,0,0-3.64,2.92,1.8,1.8,0,0,0,.38,2.77,8.53,8.53,0,0,0,6.28.75,27.77,27.77,0,0,0,6.37-3.25c1.88-1.28,3.21-2,3.94-2.87s.65-2,.42-3.47a49.07,49.07,0,0,1-.61-6.22c0-1,2.43-13.66,2.43-13.66Z"/><path class="cls-1" d="M132.67,321.11s1.05,12,1.31,13.58c.4,2.32,5.6,9.05,7.18,10a18.64,18.64,0,0,1,3.64,2.92,1.79,1.79,0,0,1-.39,2.77,8.51,8.51,0,0,1-6.27.75,28,28,0,0,1-6.38-3.25c-1.88-1.28-3.2-2-3.93-2.87s-.65-2-.42-3.47a47,47,0,0,0,.6-6.22c0-1-2.43-13.66-2.43-13.66Z"/><path class="cls-1" d="M177.52,281.7s-3.38,19.28-4.88,26.2-5.5,24.79-5.95,27c0,0,0,4.73,3.24,12.33,0,0,1.14,1.78,1.75,2.68s.56,3.13-1.17,3.36a22.14,22.14,0,0,1-5.83-.11,7.14,7.14,0,0,1-4.44-3c-1.16-1.53-2-2.49-2.59-3.4s-1.41-1.68-.21-4.39,2.56-7,3-8.35,1.74-13.77,2.26-17.76a76.06,76.06,0,0,1,2.19-9.5L166,281.4Z"/><path class="cls-1" d="M187.62,281.6s5.86,18.39,7.72,25.22,6.81,21.61,7.38,23.84a57.7,57.7,0,0,1-3,16.71s-1.05,1.84-1.6,2.77-.4,3.15,1.34,3.29a22,22,0,0,0,5.81-.4c2.09-.41,2.51-2.31,3.3-3.48,1.09-1.59,3.3-6.6,3.81-7.52s1.33-1.76,0-4.4-2.91-6.86-3.43-8.19a129.89,129.89,0,0,1-3.61-13.37c-.73-4-2.28-10.76-2.28-10.76l-3.93-24.6Z"/><path class="cls-1" d="M117.84,295.5A75,75,0,0,1,121,306.64c.82,4.89,2.25,17.45,2.25,17.45a79.21,79.21,0,0,0,11.5-.82c-1.05-8.73-1.89-21.2-1.35-26.79.82-8.56,1.35-19.71,1.35-19.71h-35s.54,11.15,1.36,19.71c.53,5.59-.3,18.06-1.36,26.79a79.21,79.21,0,0,0,11.5.82s1.43-12.56,2.26-17.45a75,75,0,0,1,3.16-11.14Z"/><path class="cls-2" d="M132.44,238.1s.07,5.77.78,17.61c.45,7.55,3,23.72,3,23.72s-6,2-19,2-19-2-19-2,2.59-16.17,3-23.72c.71-11.84.77-17.61.77-17.61l-14.18,3.23c-3.39-7.75-1.3-17.68-1.3-17.68a39.89,39.89,0,0,0,12.08,0,40.79,40.79,0,0,1,4.66-.56s4.4,6.17,13.95,6.17,13.68-4.67,13.68-4.67a29.88,29.88,0,0,1,8.94,8.73C142.08,236.78,146,245,146,245a57.11,57.11,0,0,1-13.11,5.56"/><path class="cls-2" d="M163.84,256.83s-2.48,6.62-3.75,9.18c0,0,.07.45,1.42,1.05,0,0-3.08,4.74-3.68,5.65s1.73,2.18,1.73,2.18-3.69,5.8-4.21,6.81,2.71,1.62,3.83,1.69a3.94,3.94,0,0,1,3.08,1.51,5.13,5.13,0,0,0,5.49,1.35c2.63-.75,4.29-1.35,5.34-1.28a42.13,42.13,0,0,1,5.11,1.13c1.73.45,2.56.3,3-1s1.43-5.7,1.43-5.7,2.25,5.48,2.63,6.15.52,1.13,2.55.53,4.74-1.68,5.56-1.59,4.74,1,6.24,1.29,3.46-.86,4.44-1.29,2.18-2.51,2.18-2.51,2.56-.18,3.91-.3,2.93.4,2-1.29-4.06-6.57-4.06-6.57,1.95-1.33,1.5-2.17-5.56-6.33-5.56-6.33,2-.16,2.1-1.66-4.51-6.55-6.23-8.88l-20.4-5.24Z"/><path class="cls-1" d="M178.58,207.21s-14.35-4-15.19-8.87a13.84,13.84,0,0,1,2-9.09,12.36,12.36,0,0,0,6.77-5.37c2.3-4.11.85-7.17.85-7.17s.31-3.14,6.51-3.14,6.35,3.14,6.35,3.14-1.45,3.06.85,7.17a12.39,12.39,0,0,0,6.77,5.37s3,7.07.71,11S178.58,207.21,178.58,207.21Z"/><path class="cls-1" d="M63.55,64.33S61.19,62,60.72,59.59c-.62-3.18.26-9.14.26-9.14s0-6.75-9.5-6.75S42,50.45,42,50.45s.88,6,.26,9.14c-.47,2.37-2.83,4.74-2.83,4.74l12,22Z"/><path class="cls-1" d="M53,72.68c.84-2.71,1.29-4.33,1.6-5.36.76-2.55,2-2.76,2-2.76S63,60.33,64.53,59L66.6,65.7S85.4,77,88.61,79.35s4.92,7.16,6.09,10.39c1,2.9,5.69,15.55,7.58,20.52,0,0-13.76,6.45-22,8.6a112.52,112.52,0,0,0-1.15,21.77c.25,5.41,4.69,29.68,4.69,29.68s-19.64,8.33-23.9,10.48l-8.5-14-8.5,14c-4.26-2.15-23.84-10.48-23.84-10.48s4.44-24.27,4.69-29.68a112.52,112.52,0,0,0-1.15-21.77c-8.26-2.15-21.08-7.06-21.08-7.06,1.89-5,5.58-19.16,6.63-22.06,1.18-3.23,2.89-8,6.09-10.39s22-13.65,22-13.65L38.31,59c1.51,1.37,7.52,5.37,7.52,5.37a3.86,3.86,0,0,1,2.29,2.94,40.82,40.82,0,0,0,1.33,5.59s1.21,3.2,2,5.49C51.42,78.35,52.25,75.18,53,72.68Z"/><path class="cls-1" d="M51.48,8.13S37.73,9.48,36.19,14.36s-1,15-1,15a1.73,1.73,0,0,0-2.77.48c-1.29,1.92-1.35,6.32,1.5,10.29,1.41,2,3.05,1.32,3.05,1.32l2.45,6.6c1.08,2.91,5.18,6.69,6.8,7.9a8.87,8.87,0,0,0,5.21,1.29c1.22,0,3.65-.07,5.27-1.29s5.72-5,6.8-7.9S66,41.48,66,41.48s1.64.65,3.06-1.32c2.84-4,2.78-8.37,1.49-10.29a1.73,1.73,0,0,0-2.77-.48s1.16-8.78-.46-13.59S55.36,8.17,51.48,8.13Z"/><path class="cls-5" d="M108.28,205.2a1.23,1.23,0,1,0,1.2-1.51A1.38,1.38,0,0,0,108.28,205.2Z"/><path class="cls-4" d="M50.73,16.73s1.09-1.68,1.94-1.74c1.72-.12,2.85,1.83,4.7,3.86a14.21,14.21,0,0,0-.06-2.91,22.65,22.65,0,0,1,4.84,3.77,3,3,0,0,1,1-2.46,31.94,31.94,0,0,1,4,7.43s.36,6.65.27,9.33a29.71,29.71,0,0,0,2.43-6.25l.36,2.62s2.73-5.84,2.73-7.47-1.53-6.59-1.53-6.59a4.46,4.46,0,0,0,2,.87s-3.17-4.34-3.81-6.33-3.87-4.51-3.87-4.51h2.79s-3.7-3-6.49-3.07c0,0,.63-.72,1.62-1.9a6.81,6.81,0,0,1-3.81.37A29.3,29.3,0,0,1,55.06.48a14.19,14.19,0,0,0-6.22,2.8s-4.15-1.8-5.15-1.63-6.85,4.16-7.93,6.42S32.87,16,31.43,17.25l2.43-.7s-1.8,2.8-3.25,3.43l1.74,1.5a43.7,43.7,0,0,1-1.53,5.33l1.53-.65s2.14,5,3.23,7.85c0,0,0-8,.27-9.33s1.53-5.3,4-7.43a7.4,7.4,0,0,0,2,2.82s.45-3.32,1.89-4.1,5.15.43,5.15.43L49,14.75Z"/><path class="cls-3" d="M118.27,206.71s-1.81-.61-2.17-.19a5.27,5.27,0,0,0-.59,1.72"/><path class="cls-6" d="M110.68,210.39s1.87,2.55,6.56,2.55,6.58-2.55,6.58-2.55"/><path class="cls-3" d="M66.6,65.41s-1.79,10.29-3,13.23c0,0-5.41-7.9-6.61-12.21"/><path class="cls-5" d="M126.2,205.2a1.24,1.24,0,1,1-1.2-1.51A1.38,1.38,0,0,1,126.2,205.2Z"/><path class="cls-1" d="M134.4,250.12s2.73,8.69,3.13,10l-2.78,13.69s-2.39,3.51-2.39,5a24.07,24.07,0,0,0,.94,5.66c.4,1.85,1.45.82,1.45.82s.38.44,1.29,1.28,3.35-.47,4.05-.87,1.79-3.66,2-5.27l-2.24-5.74S146,261,146,258.89c.09-3.16-3.15-12.34-3.15-12.34A59.81,59.81,0,0,1,134.4,250.12Z"/><path class="cls-3" d="M134.75,285.3s.54-.3.58-2.06a10.22,10.22,0,0,1,.33-3l2.24-.91"/><path class="cls-3" d="M135.33,283.76a5.55,5.55,0,0,1,2,.6"/><line class="cls-3" x1="136.26" y1="283.76" x2="137.8" y2="281.77"/><path class="cls-1" d="M81.21,202.84c-.14,1.75-2.22,6.39-2.22,6.39.7,3.61,4.41,15.4,4.41,15.4l4.27.38.6,11.63a42.47,42.47,0,0,1-9.64-1.09s-2.15-.65-2.57-2.38a90.46,90.46,0,0,1-2.28-13.76c-.5-6.66-.66-9.22-.66-9.22-3.23-3-4.13-9.31-4.13-9.31l7.24-7.28,1.39,7.49,1-1.51s-.78-3.51-.48-4.71.94-1.22,1.19-.59S81.47,199.3,81.21,202.84Z"/><path class="cls-1" d="M185.88,196.87a5.57,5.57,0,0,0,3.17-1c.86-.56,3.88-7.33,3.88-7.33s5.36,2,8,3c0,0,6.62.15,8,0s2.18,4.44,1.13,6-2.1,4-2,5.5-.23,2.77-2.18,3.9a8.35,8.35,0,0,0-3.46,3.61c-1,1.58-4.45,2.64-6.86,3.24a98.14,98.14,0,0,0-.16,15.85c.7,7,6.65,26.41,6.65,26.41a51.34,51.34,0,0,1-19.87,4.41A78.39,78.39,0,0,1,161.51,258c3.39-9.43,3.54-26.08,3.34-29.39s-3-15-3-15c-2.41-.6-4.51-1.43-5.49-3a8.35,8.35,0,0,0-3.46-3.61c-1.95-1.13-2.33-2.41-2.18-3.9s-.9-3.92-1.95-5.5-.3-6.17,1.13-6,8,0,8,0c2.63-1,8-3,8-3s3,6.77,3.88,7.33a5,5,0,0,0,3.17,1S181.49,197.09,185.88,196.87Z"/><path class="cls-5" d="M205.21,53.55a1.17,1.17,0,1,0,1.14-1.43A1.31,1.31,0,0,0,205.21,53.55Z"/><path class="cls-5" d="M43.23,29.83c0,1,.54,1.81,1.2,1.81s1.21-.81,1.21-1.81S45.1,28,44.43,28,43.23,28.82,43.23,29.83Z"/><path class="cls-3" d="M214.28,59.7s-2.62-.48-2.62-1.79a4.51,4.51,0,0,0,1.57-1,2.38,2.38,0,0,0,0-2.84"/><path class="cls-6" d="M207.18,62.34s1.85,2.53,6.5,2.53,6.53-2.53,6.53-2.53"/><path class="cls-5" d="M222.14,53.55A1.17,1.17,0,1,1,221,52.12,1.31,1.31,0,0,1,222.14,53.55Z"/><path class="cls-3" d="M161.89,213.57s-.71-4.4-.9-6.22"/><path class="cls-3" d="M195.64,213.8s.3-3.07.4-4.29"/><path class="cls-3" d="M161.51,275.34a8.05,8.05,0,0,0,2.93,1.43c1.13.08,2.33-3.61,2.33-3.61"/><path class="cls-3" d="M177.52,279s4.21.48,5.12.39,0-6.64,0-6.64"/><path class="cls-3" d="M185.12,279s.6,1.88,2.78.9c0,0,3.46-.22,4.51-1.27s-1.51-5.8-1.51-5.8"/><path class="cls-3" d="M169.56,277.75s2.78.75,4,0,1-4.59,1-4.59"/><path class="cls-3" d="M161.51,267.06s4.49,1.81,5.67,2.19,1.7.15,2.38-1.43a55.32,55.32,0,0,0,1.65-5.57"/><path class="cls-3" d="M170.83,268.64s4.14,2.22,5.94,2,1.81-.65,1.81-2"/><path class="cls-3" d="M187.15,263.3s.9,5,1.65,5.34a9,9,0,0,0,2.93,0"/><path class="cls-3" d="M195.34,267.82s3.16-1.19,3-2.48-2.56-4.86-2.56-4.86"/><path class="cls-3" d="M204.06,265.34a15.42,15.42,0,0,0-3.61.7"/><line class="cls-3" x1="161.22" y1="283.96" x2="163.39" y2="279.43"/><path class="cls-3" d="M167.75,286.25s1.36-4.23,1.81-5.84"/><line class="cls-3" x1="173.94" y1="285.09" x2="173.94" y2="279.85"/><line class="cls-3" x1="193.38" y1="284.51" x2="192.66" y2="281.4"/><path class="cls-3" d="M194.21,278.08a8.63,8.63,0,0,1,4.14-.86l-1.5-4.88"/><path class="cls-3" d="M200.9,276.77a39.22,39.22,0,0,0,4.59-.66c1.43-.39.6-1.15,0-2.2s-3.69-4.81-3.69-4.81"/><path class="cls-3" d="M191.88,118.64s.33-10.55.53-14.66a20,20,0,0,0-.53-6.42"/><path class="cls-3" d="M236.86,117.48s-.54-16.21,0-19.92"/><path class="cls-4" d="M206.35,31.3c9.87-3.89,21,2.75,24.9,7.8s5.94,13.75,4.67,19.44a13,13,0,0,1-6.07,8.18,25.9,25.9,0,0,0,1.66-5.24c.63-3.39-.52-5.08-.52-5.08a8.66,8.66,0,0,1-1.58,4c.72-2.62,0-6.84,0-6.84l-4.94-4.47L226,52.87c-6.9-4.44-11.11-7.72-11.11-7.72.52,1.62,1.22,6.31,1.22,6.31a25.39,25.39,0,0,1-11.27-13.72s-5.28,6.56-7.32,11.85a18.45,18.45,0,0,0-.86,10.11,25.06,25.06,0,0,1-2-9.09S196.27,35.26,206.35,31.3Z"/><line class="cls-3" x1="121" y1="306.52" x2="133.02" y2="306.52"/><line class="cls-3" x1="121.52" y1="310.8" x2="133.55" y2="310.8"/><line class="cls-3" x1="122.36" y1="315.08" x2="133.97" y2="315.08"/><line class="cls-3" x1="120.13" y1="302.24" x2="133.02" y2="302.24"/><line class="cls-3" x1="101.25" y1="302.24" x2="114.15" y2="302.24"/><line class="cls-3" x1="118.69" y1="297.96" x2="133.02" y2="297.96"/><line class="cls-3" x1="100.87" y1="293.68" x2="133.43" y2="293.68"/><line class="cls-3" x1="100.54" y1="289.4" x2="133.88" y2="289.4"/><line class="cls-3" x1="100.29" y1="285.11" x2="134.23" y2="285.11"/><line class="cls-3" x1="122.7" y1="319.36" x2="134.12" y2="319.36"/><line class="cls-3" x1="113.39" y1="306.52" x2="101.36" y2="306.52"/><line class="cls-3" x1="112.87" y1="310.8" x2="100.84" y2="310.8"/><line class="cls-3" x1="112.03" y1="315.08" x2="100.42" y2="315.08"/><line class="cls-3" x1="111.69" y1="319.36" x2="100.27" y2="319.36"/><line class="cls-3" x1="80.25" y1="118.86" x2="81.38" y2="104.74"/><path class="cls-3" d="M51.18,28.26a10.78,10.78,0,0,1,.19,4.9,13.67,13.67,0,0,1-2.08,4.67,2.69,2.69,0,0,0,3.38.94"/><path class="cls-6" d="M46.26,43.7a6.05,6.05,0,0,0,10.44,0"/><path class="cls-1" d="M21.41,210.19c.05,1.3-1.53,2.9-2.95.92A2.18,2.18,0,0,1,16.07,210s-.68.2-1.88-1.81c-.88-1.47-2.66-8-2.76-11.14-.15-4.73,2.28-15.43,2.36-17.8,0,0-12-31.32-12.68-34.41a16.26,16.26,0,0,1-.45-6.67c.89-5.19,5-25.48,5-25.48l14.82,5.47-5.88,22.34c.6,2.61,6.26,36.94,6.26,36.94a74.21,74.21,0,0,1,3.86,8.63c1.06,3.25.43,8.92.15,11.83-.2,2.11-2.67,1.3-2.91-.45,0,0-.62,3.91-.85,7C21,205.27,21.35,208.89,21.41,210.19Z"/><path class="cls-3" d="M36.25,65.41s1.78,10.29,3,13.23c0,0,5.41-7.9,6.6-12.21"/><path class="cls-5" d="M59.71,29.83c0,1-.54,1.81-1.2,1.81s-1.2-.81-1.2-1.81S57.84,28,58.51,28,59.71,28.82,59.71,29.83Z"/><line class="cls-3" x1="22.51" y1="118.86" x2="21.38" y2="104.74"/><path class="cls-3" d="M51.42,78.35S49.13,90,49,98.24s0,48.47,0,51.78a58.17,58.17,0,0,0,2.41,16.73"/><path class="cls-1" d="M53.87,99.81a1.61,1.61,0,1,1-1.6-1.61A1.61,1.61,0,0,1,53.87,99.81Z"/><path class="cls-1" d="M49,73.26a1.61,1.61,0,1,1-1.61-1.6A1.61,1.61,0,0,1,49,73.26Z"/><path class="cls-1" d="M53.87,126.36a1.61,1.61,0,1,1-1.6-1.61A1.6,1.6,0,0,1,53.87,126.36Z"/><path class="cls-1" d="M53.87,152.9a1.61,1.61,0,1,1-1.6-1.6A1.61,1.61,0,0,1,53.87,152.9Z"/><path class="cls-3" d="M22,197.44s-.49-4.41-.57-6.82l-1.73-.44"/><path class="cls-3" d="M18.46,211.11s-1.57-10.58-1.66-12.77"/><path class="cls-3" d="M16.07,210a90.09,90.09,0,0,1-2.28-12.55"/><path class="cls-7" d="M69.16,199.52a16.66,16.66,0,0,0-2.55,2.88c-1,1.58-.09,2.49,1.23,1.95,0,0-.85.92-.32,1.62s2.08.19,2.08.19-.6,1.05,1.21,1.39a6.19,6.19,0,0,0,1.67-.34s.58.56,2.27.34,8.71-3.09,10.62-5.62,1.76-17.47,2.26-21.59c0,0,12.55-28.93,13.63-31.91a21.37,21.37,0,0,0,.82-9.62c-.58-5.05-5.55-25.72-5.55-25.72l-14.91,5.55,6,24.63c-.61,2.61-7.94,35.4-7.94,35.4s-7.11,7.36-8.55,9-2.78,5.75-3.33,7.07S69.21,196,69.21,196a2.63,2.63,0,0,0-.5,1.52A10.82,10.82,0,0,0,69.16,199.52Z"/><path class="cls-3" d="M70.94,197.83c0-.59-.82-3.08-1.73-1.88s-.22,3.37-.22,3.37"/><path class="cls-3" d="M69.83,195.63s0-2,1.11-2,1.49,2.53,1.49,2.53"/><path class="cls-3" d="M71.17,193.58s0-1.75,1.16-1.76,1.37,2.72,1.37,2.72"/><path class="cls-3" d="M72.57,191.82s.93-1.78,2.42.37"/><path class="cls-3" d="M75.44,192a20,20,0,0,1-3.84,5.26c-1.82,1.74-4.17,3.82-5,5.19-1,1.58-.09,2.49,1.23,1.95,0,0-.85.92-.32,1.62s2.08.19,2.08.19-.6,1.05,1.21,1.39a6.19,6.19,0,0,0,1.67-.34s.58.56,2.27.34,8.71-3.09,10.62-5.62,1.76-17.47,2.26-21.59c0,0,12.55-28.93,13.63-31.91a21.37,21.37,0,0,0,.82-9.62c-.58-5.05-5.55-25.72-5.55-25.72l-14.91,5.55,6,24.63c-.61,2.61-7.94,35.4-7.94,35.4s-7.11,7.36-8.55,9-2.78,5.75-3.33,7.07S69.21,196,69.21,196"/><path class="cls-3" d="M67.84,204.35A56.32,56.32,0,0,0,77,196.66"/><path class="cls-3" d="M69.6,206.16s3.26-1.81,9.72-7.58"/><path class="cls-3" d="M72.48,207.21s7.44-4.64,9.09-6.48"/><line class="cls-3" x1="101.25" y1="297.96" x2="115.58" y2="297.96"/><path class="cls-1" d="M220.07,173.57s-8.42,4.54-11,6.45-4.26,5.61-5.57,7.42,1.71,1.08,1.71,1.08a74.53,74.53,0,0,0-2.81,7.85c-.4,2,1.92.8,1.92.8s-.34,1.1.39,1.41c1.22.53,2.22-1.2,2.22-1.2s0,1.32.61,1.53c.87.31,2.1-1.36,2.1-1.36s1.07,1.07,2.37-.38a65.13,65.13,0,0,0,4.51-6.52s5.62-3.31,7.43-6.62a19.29,19.29,0,0,0,2.1-6.72s20.38-27.94,21.85-29.92a11.88,11.88,0,0,0,1.92-6.9c-.1-2.43-.43-22.22-1.06-26.68a119,119,0,0,1-11.93,3.67s.62,15.24.58,23.81C237.44,141.29,222.28,170.86,220.07,173.57Z"/><path class="cls-3" d="M204.35,197.17s3-7.32,3.85-9"/><path class="cls-3" d="M207,197.38s2.59-6.21,3.5-8.21"/><path class="cls-3" d="M209.67,197.55s2.41-5.61,3.38-7.54"/><path class="cls-3" d="M205.24,188.52s1.7-4,2.8-5.06"/><path class="cls-1" d="M167.57,167.62s-6.47,5.71-8.27,8.34c-1.4,2.06-2.55,8.68-2.55,8.68s-.26,3.23-.31,5.28a1.43,1.43,0,0,0,1.46,1.4v1.3s-.15,1.14.63,1.33c1.29.31,1.87-1.33,1.87-1.33s.38.95,1,1.16a1.34,1.34,0,0,0,1.55-.6,1.76,1.76,0,0,0,2.59-.56,28,28,0,0,0,2.32-5.7,1.7,1.7,0,0,0,2.44-.63c1.12-1.48,3.4-8.72,3.68-10.33a38.92,38.92,0,0,0,.53-6.37s8.94-20.83,10-23a69.34,69.34,0,0,0,4.32-12.49c.56-2.36,2.39-10,3-15.43a60.8,60.8,0,0,1-13-3.31s-.56,5.4-1.81,15.86C177.08,131.19,169.29,164.58,167.57,167.62Z"/><path class="cls-3" d="M157.9,191.83s1.32-7.37,1.84-9.13"/><path class="cls-3" d="M160.51,192.38a75.36,75.36,0,0,1,1.81-9"/><path class="cls-3" d="M162.92,193.18s1-6,2.07-9.72"/><path class="cls-3" d="M167.83,186.92s-.56-.35-.28-1.63c.44-2,1.44-5.08,1.92-6.62"/><path class="cls-1" d="M203.17,209.51a5.28,5.28,0,0,1-2.43,2.48,21.86,21.86,0,0,1-4.79,1.62s9.5,12.25,10.92,13.83c1.86,2.05,4.28,4.16,7.24,3.47,1.77-.41,3.22-4,3.22-7.64s-1.17-18.3-1.17-18.3c.53-3,4.38-16,1.17-18.68-1.89-1.55-5.73-4-7.25-4.5s-1.88.73-1.51,1.25a26.07,26.07,0,0,0,3,2.38s-3.29-1.19-4-.66,0,1.53,0,1.53-.88.11-1,.79c-.16.86,1,1.69,1,1.69s-1.58.56-.39,2.16,4,5.44,4,5.44a10.26,10.26,0,0,0,.16,8.6l-1.86,8.83-4.17-6.45A10.18,10.18,0,0,0,203.17,209.51Z"/><path class="cls-3" d="M207.57,188.77a25.25,25.25,0,0,1,2.55,1.93,33,33,0,0,1,3.19,3.56"/><path class="cls-3" d="M207.57,186.29a30.77,30.77,0,0,1,4,2.07,22.33,22.33,0,0,1,3.71,3.72"/><path class="cls-3" d="M211.17,185.29s3.58,1.65,5.18,3.88"/><line class="cls-3" x1="209.48" y1="213.8" x2="208.04" y2="220.89"/><path class="cls-4" d="M159,164.52a4.27,4.27,0,0,0-2.52.36s-3.83,2.55-3.32,8.47,1.82,9.18,1.68,10.89c-.24,3-2.27,3.77-5,3.94a3.71,3.71,0,0,0,2.39,1.08s-2.39-.29-1.4.75c1.22,1.27,5,3.42,8.26,2.09,4-1.64,4.86-6.33,4.83-8.91-.05-5-3.24-11.94-3.24-11.94Z"/><path class="cls-1" d="M189.32,178.88c3.3-1.82,6.06-5.93,6.06-5.93a7.59,7.59,0,0,0,4.31-2c2.21-2,2.74-6.64,1.51-7.52a1.53,1.53,0,0,0-1.91-.15s-3-22.19-20.15-22.19-19.54,22.19-19.54,22.19a1.37,1.37,0,0,0-1.91.15c-1.56,1.48-.71,5.5,1.5,7.52a7.62,7.62,0,0,0,4.31,2s2.8,4.05,6.07,5.93a20.85,20.85,0,0,0,9.8,2.63A19.33,19.33,0,0,0,189.32,178.88Z"/><path class="cls-5" d="M170.48,164.52a1.24,1.24,0,1,0,1.21-1.51A1.38,1.38,0,0,0,170.48,164.52Z"/><path class="cls-4" d="M190.63,158.3l.64,2.57a67.47,67.47,0,0,1-11.83-6.28,9.5,9.5,0,0,1,.65,4.74c-6.87-1.28-11.39-9.32-11.39-9.32-4.26,4.11-4.92,5.89-6.13,10-.82,2.78-.71,9-.71,9-1.62-2.1-3.06-7.87-3.06-7.87s-1.21-10.57,5.78-17.47c5.08-5,10.58-5.69,14.86-5.69a21,21,0,0,1,14.88,5.69c7.16,6.73,5.78,17.47,5.78,17.47s-1.43,5.77-3.06,7.87c0,0,.33-6.27-.71-9C196.33,160,192.79,160.11,190.63,158.3Z"/><path class="cls-3" d="M181,166.4s-2.42-.81-2.75-.37c-.64.84.45,2.47.45,2.47"/><path class="cls-6" d="M172.56,170.73s2,2.68,6.88,2.68,6.92-2.68,6.92-2.68"/><path class="cls-5" d="M188.4,164.52a1.23,1.23,0,1,1-1.2-1.51A1.38,1.38,0,0,1,188.4,164.52Z"/></svg>