<svg id="レイヤー_1" data-name="レイヤー 1" xmlns="http://www.w3.org/2000/svg" viewBox="0 0 658 266"><defs><style>.cls-1{fill:#f63402;}.cls-2{fill:#fff;}</style></defs><path class="cls-1" d="M265.86,133A132.93,132.93,0,1,0,132.92,266,133,133,0,0,0,265.86,133Z"/><path class="cls-2" d="M97,63a27.91,27.91,0,0,0,.24,4.5H91.82A27.31,27.31,0,0,0,92.09,63V47.09A27.56,27.56,0,0,0,91.85,43c1.2.06,2,.09,4.08.09h8.73a33.27,33.27,0,0,0,4.32-.21v4.83a31.86,31.86,0,0,0-4.29-.21H97v5.71h6.15a32.46,32.46,0,0,0,4.29-.21v4.71a32.46,32.46,0,0,0-4.29-.21H97Z"/><path class="cls-2" d="M126.92,67.47a23.8,23.8,0,0,0-1.5-4.77c-.84-2.19-1.35-3.24-2-3.93a3.4,3.4,0,0,0-2.67-1.08h-3.78v5.55a27.49,27.49,0,0,0,.24,4.23h-5.4a26.58,26.58,0,0,0,.24-4.2V47.12a29.32,29.32,0,0,0-.24-4.14c1.26.06,2.31.09,4.14.09h7.47c4.71,0,7.41,2.4,7.41,6.51A5.78,5.78,0,0,1,126,55.89c1.92.6,2.46,1.38,5,7.35.63,1.53,1,2.22,1.92,4.23Zm-4.62-14a3.11,3.11,0,0,0,3.36-3.28c0-2-1.11-2.94-3.27-2.94h-5.46v6.22Z"/><path class="cls-2" d="M153.57,67.69a29.32,29.32,0,0,0-4.17-.22h-9.6c-2,0-2.89,0-4.12.1a26.14,26.14,0,0,0,.24-4.18V47.09a28.61,28.61,0,0,0-.24-4.11c1.23.06,2,.09,4.09.09h9.3a37.67,37.67,0,0,0,4.17-.21V47.6a31.65,31.65,0,0,0-4.17-.21h-8.19v5.38h6.84a36.05,36.05,0,0,0,4.2-.21v4.68a31.55,31.55,0,0,0-4.2-.21h-6.87v6.09h8.58a32.07,32.07,0,0,0,4.14-.21Z"/><path class="cls-2" d="M174.75,67.69a29.32,29.32,0,0,0-4.17-.22H161c-2,0-2.88,0-4.11.1a26.14,26.14,0,0,0,.24-4.18V47.09a28.61,28.61,0,0,0-.24-4.11c1.23.06,2,.09,4.08.09h9.3a37.67,37.67,0,0,0,4.17-.21V47.6a31.65,31.65,0,0,0-4.17-.21h-8.19v5.38h6.84a36.05,36.05,0,0,0,4.2-.21v4.68a31.55,31.55,0,0,0-4.2-.21H162v6.09h8.58a32.07,32.07,0,0,0,4.14-.21Z"/><path class="cls-2" d="M68.26,138.39a44.38,44.38,0,0,0,.27,5.89H62.18a42.92,42.92,0,0,0,.28-5.94V108.05c0-2.48-.05-3.73-.18-5.2A41.06,41.06,0,0,0,67,103H75.8a37.36,37.36,0,0,0,4.7-.19c-.1,1.34-.14,2.39-.14,4.24v7.73c0,2.26,0,3,.09,4.1-1.06,0-2.58-.09-4-.09H68.26Zm0-29.23H75v-1.89H68.26Zm0,5.61H75v-1.88H68.26Zm23.33,20.81c0,1,0,1.71,0,2.63,1.2.09,1.8.13,2.39.13,1.61,0,1.94-.18,1.94-1.15V118.83H87.12c-1.42,0-2.94,0-4,.09.09-1.38.09-1.84.09-4.1v-7.73c0-1.61,0-2.77-.14-4.24a40.58,40.58,0,0,0,4.74.19H97.2a40.61,40.61,0,0,0,4.69-.19c-.14,1.66-.18,2.85-.18,5.16v30.06c0,3.08-.6,4.46-2.26,5.2-1,.46-2.71.64-5.56.64-.69,0-.83,0-3.32-.09a20.39,20.39,0,0,0-1-4.37c-.88,0-1.29,0-2.12,0H77.78v2.3H72.26c.14-1.33.18-3,.18-4.78V125.18c0-1.61,0-2.86-.13-4,1.38.09,2.3.14,4.14.14H87.58c1.89,0,2.72,0,4.14-.14-.09,1.11-.13,2.26-.13,4Zm-13.81-7.36h8.51v-2.35H77.78Zm0,6.63h8.51v-2.31H77.78Zm10.91-25.69H96v-1.89H88.69Zm0,5.61H96v-1.88H88.69Z"/><path class="cls-2" d="M133.86,139.4a35.43,35.43,0,0,0,.23,5.11h-6.25a42.23,42.23,0,0,0,.27-5.06v-3.78c-3.59,1.11-7.91,2.31-9.61,2.63-1.43.32-2.53.64-3.22.87L113.8,133c1.06-.09,1.52-.13,3.27-.41V108.33c-1.33,0-1.7.09-2.76.18v-5.84a33.51,33.51,0,0,0,4.37.27h13.8a29.62,29.62,0,0,0,4.42-.23v2.67c1.15.05,1.84.1,3.08.1h11.78a36.53,36.53,0,0,0,3.87-.24c-.09.74-.19,1.71-.28,3a54.94,54.94,0,0,1-6.21,22.19,26.8,26.8,0,0,0,8.37,7.51,28.84,28.84,0,0,0-3.35,6.16A36.77,36.77,0,0,1,145.6,136a36.56,36.56,0,0,1-8.93,8.37,35.87,35.87,0,0,0-2.81-5.93Zm-11-26.79h5.24v-4.28h-5.24Zm0,8.93h5.24v-4.1h-5.24Zm0,9.94c2.25-.46,2.94-.59,5.24-1.19v-3.82h-5.24Zm11,6.73a26.9,26.9,0,0,0,3.55-2.54,29.8,29.8,0,0,0,4.6-4.78c-2.72-4.65-4.33-9.21-6.12-17.68l5.15-2.16h-1.19a26.19,26.19,0,0,0-4.47.23v-2.9c-1,0-1,0-1.52,0Zm7.27-27.16.69,3.13a43.15,43.15,0,0,0,3.64,10.58,46.91,46.91,0,0,0,3.68-13.71Z"/><path class="cls-2" d="M178.77,102.94c-.69,2.07-1.11,4.38-2,11.37a18.56,18.56,0,0,1,4.1-6.07,11.08,11.08,0,0,1,7.59-3.18c3.82,0,7.13,2,9.29,5.76,1.75,3,2.49,6.3,2.49,11.18,0,9.25-4.24,15.84-12.43,19.29a43.1,43.1,0,0,1-9.47,2.53,22.89,22.89,0,0,0-3.18-6.67c12.88-1,18.22-5.67,18.22-15.89,0-6.16-2-9.62-5.66-9.62a6.41,6.41,0,0,0-4.6,2.17,20.72,20.72,0,0,0-5.93,14.87v.69l-6.58.09a5.47,5.47,0,0,0,0-.74c0-.18,0-.18,0-2.62-.05-1.66-.1-3-.1-4,0-3.91.28-9,.65-12.29.32-2.9.5-4.74.6-5.57a10.21,10.21,0,0,0,.09-1.61Z"/><path class="cls-2" d="M100,162a23.22,23.22,0,0,0,2-5.89l7,.55c-1.2,3-1.61,4-2.26,5.34h10.54c2.67,0,4.09,0,5.7-.19a43.27,43.27,0,0,0-.23,5.57v26.34a33.31,33.31,0,0,0,.28,5.38h-6.4V197H94.83v2.16H88.52a39,39,0,0,0,.28-5.34V167.42a44.65,44.65,0,0,0-.23-5.57c1.56.14,3,.19,5.71.19Zm-5.11,9.85h21.72v-4.28H94.87Zm0,9.62h21.72v-4.19H94.87Zm0,9.85h21.72V187H94.87Z"/><path class="cls-2" d="M171.48,164a45.88,45.88,0,0,0,5.43-.23,39.45,39.45,0,0,0-.23,4.92v24.54c0,2,.09,4.14.27,6.26h-6.12v-2.12H144.05v2.08h-6.16c.18-2,.27-3.92.27-6.27V168.39a45.24,45.24,0,0,0-.23-4.56,51.61,51.61,0,0,0,5.25.19h11v-2.81a39.73,39.73,0,0,0-.28-4.79h6.67a37.79,37.79,0,0,0-.27,4.88V164Zm-27.43,5.52v8.15h10.13v-8.15Zm0,13.49v8.89h10.13V183Zm26.78-5.34v-8.15H160.3v8.15Zm0,14.23V183H160.3v8.89Z"/><path class="cls-1" d="M658,133A132.93,132.93,0,1,0,525.07,266,133,133,0,0,0,658,133Z"/><path class="cls-2" d="M466,59.7a4,4,0,0,0,.81,2.43,4.85,4.85,0,0,0,4,1.62c2.61,0,4.26-1.2,4.26-3.12a2.4,2.4,0,0,0-1.17-2.16c-.93-.6-1.86-.9-5.13-1.65a11.67,11.67,0,0,1-4.68-1.8,6.38,6.38,0,0,1-2.58-5.32c0-4.41,3.51-7.2,9.06-7.2,3.57,0,6.27,1.08,7.83,3.12a8.47,8.47,0,0,1,1.53,3.66l-5.28.57a3.65,3.65,0,0,0-.78-1.92,4.29,4.29,0,0,0-3.33-1.26c-2.34,0-3.9,1.14-3.9,2.85a2.34,2.34,0,0,0,1,2,8.1,8.1,0,0,0,2.82,1,29.25,29.25,0,0,1,5.91,1.62,6.76,6.76,0,0,1,3,2.61,6.86,6.86,0,0,1,.9,3.63c0,4.89-3.42,7.69-9.42,7.69-3.87,0-6.78-1.09-8.37-3.1a8.44,8.44,0,0,1-1.74-4.71Z"/><path class="cls-2" d="M501.56,67.69a29.32,29.32,0,0,0-4.17-.22h-9.6c-2,0-2.88,0-4.11.1a26.14,26.14,0,0,0,.24-4.18V47.09a28.61,28.61,0,0,0-.24-4.11c1.23.06,2,.09,4.08.09h9.3a37.67,37.67,0,0,0,4.17-.21V47.6a31.65,31.65,0,0,0-4.17-.21h-8.19v5.38h6.84a36.05,36.05,0,0,0,4.2-.21v4.68a31.55,31.55,0,0,0-4.2-.21h-6.87v6.09h8.58a32.07,32.07,0,0,0,4.14-.21Z"/><path class="cls-2" d="M509,67.47c-1.87,0-3,0-4.09.1a25.47,25.47,0,0,0,.25-4.18V47.69a32.52,32.52,0,0,0-.25-4.62h5.47a29.23,29.23,0,0,0-.24,4.56V63h8a35,35,0,0,0,4.44-.21v4.87a37.58,37.58,0,0,0-4.44-.22Z"/><path class="cls-2" d="M542.64,67.69a29.32,29.32,0,0,0-4.17-.22h-9.6c-2,0-2.88,0-4.11.1a26.14,26.14,0,0,0,.24-4.18V47.09a28.61,28.61,0,0,0-.24-4.11c1.23.06,2,.09,4.08.09h9.3a37.67,37.67,0,0,0,4.17-.21V47.6a31.65,31.65,0,0,0-4.17-.21H530v5.38h6.84a36.05,36.05,0,0,0,4.2-.21v4.68a31.55,31.55,0,0,0-4.2-.21h-6.87v6.09h8.58a32.07,32.07,0,0,0,4.14-.21Z"/><path class="cls-2" d="M561.9,51.15a6.46,6.46,0,0,0-1-2.29,4.77,4.77,0,0,0-4.2-2,5.65,5.65,0,0,0-4.23,1.68c-1.38,1.44-2.13,3.76-2.13,6.64,0,5.25,2.43,8.43,6.45,8.43a5.15,5.15,0,0,0,4.38-2,5.88,5.88,0,0,0,.93-2.67l5.22.84a11,11,0,0,1-2.25,4.95c-1.77,2.13-4.68,3.28-8.25,3.28a11.28,11.28,0,0,1-8.28-3.1c-2.19-2.25-3.39-5.7-3.39-9.66s1.29-7.51,3.72-9.85a11,11,0,0,1,7.86-2.82c3.75,0,6.66,1.29,8.55,3.78A9.3,9.3,0,0,1,567,50.06Z"/><path class="cls-2" d="M582,63.27a28.85,28.85,0,0,0,.24,4.2h-5.52a28.59,28.59,0,0,0,.24-4.2V47.48h-3.81a34,34,0,0,0-4.29.21V42.86a34.11,34.11,0,0,0,4.26.21h12.48a35.36,35.36,0,0,0,4.53-.21v4.83a34.65,34.65,0,0,0-4.53-.21H582Z"/><path class="cls-2" d="M443.45,127.89a30.59,30.59,0,0,0-3.13,5.25,34.79,34.79,0,0,1-10.44-10.86c-2.21,5.2-5,8.38-10.22,12a18.14,18.14,0,0,0-3.12-5.16v9.58a41.82,41.82,0,0,0,.22,5.66h-6.62a42.23,42.23,0,0,0,.32-5.8V112.06a42.61,42.61,0,0,0-.18-4.61c1.79.14,3.08.19,5.7.19H426.8a20.91,20.91,0,0,0,.09-2.26,18.78,18.78,0,0,0-.32-4h6.71a22.56,22.56,0,0,0-.32,3.87c0,1.11-.09,1.38-.14,2.35h11.37c2.8,0,3.91,0,5.57-.19a30.89,30.89,0,0,0-.23,4.65v26.57c0,4.23-1.62,5.24-8.38,5.24-1.15,0-2.48,0-4.32-.09a17.44,17.44,0,0,0-1.75-6.12,54.13,54.13,0,0,0,5.7.46c2.44,0,2.67-.18,2.67-1.8Zm-26.91.69a18.76,18.76,0,0,0,6.16-5.47,22,22,0,0,0,3.59-10h-9.75Zm15.73-15.42a21,21,0,0,1-.37,2.17,28.21,28.21,0,0,0,11.55,11.92V113.16Z"/><path class="cls-2" d="M488,141.43,482,142.67c-3,.6-3,.6-9.89,1.52-2.49.37-2.49.37-3.46.46l-1-5.75c.69,0,1,0,1.24,0a39.07,39.07,0,0,0,5.43-.5v-3.73A74,74,0,0,1,464,139.26a21,21,0,0,0-3-5.34,46.22,46.22,0,0,0,13.76-5.11h-7.73a37.91,37.91,0,0,0-5,.24v-5.81a39,39,0,0,0,5.25.23h12.93A13.76,13.76,0,0,0,480,121h6.25a18.37,18.37,0,0,0-.14,2.48h12.57a34,34,0,0,0,5-.23v5.81a38.1,38.1,0,0,0-5.06-.24h-1.93l4.51,2.26a54.86,54.86,0,0,1-5.43,4.28,29.47,29.47,0,0,0,9.25,3.36,24.31,24.31,0,0,0-3,5.85c-6.44-2.21-10.22-4.33-14-7.69Zm-16.66-19.66a25.45,25.45,0,0,0,.24-4.28c-1.62.74-2.95,1.34-4.79,2l-2.07.78c-.51.23-.69.27-1.56.6l-1.75-5.57a60.15,60.15,0,0,0,10.17-3.13v-6.63a31.55,31.55,0,0,0-.24-3.92h6.22a20,20,0,0,0-.23,3.92v11.92a30,30,0,0,0,.13,4.28ZM466,102.39a48.48,48.48,0,0,1,5.56,5.85l-4.05,3.91a33.92,33.92,0,0,0-5.65-6.21Zm17.3,8.66a40.49,40.49,0,0,0-4.56.18v-5.66a31.17,31.17,0,0,0,4.56.23h4.14v-.56a19,19,0,0,0-.23-3.59h6.39a17.76,17.76,0,0,0-.23,3.46v.69h5.94a31.53,31.53,0,0,0,4.55-.23v5.71a28.68,28.68,0,0,0-4.55-.23h-5.94v3.72h4.6a34.31,34.31,0,0,0,4.28-.18v5.57a28.09,28.09,0,0,0-4.09-.18H484.17a41,41,0,0,0-4.51.18v-5.57a32.72,32.72,0,0,0,4.14.18h3.59v-3.72ZM480,137.79c2.48-.37,5.52-1,7.5-1.47a18.51,18.51,0,0,1-4.79-7.51h-.23a24.3,24.3,0,0,1-2.48,2.08Zm8.56-9a12.73,12.73,0,0,0,2.9,3.55,25.14,25.14,0,0,0,4.28-3.55Z"/><path class="cls-2" d="M530.49,123a6.21,6.21,0,1,1-6.21-6.22A6.18,6.18,0,0,1,530.49,123Z"/><path class="cls-2" d="M544.62,108.93a20.77,20.77,0,0,0,3.72.23h9.85a23.78,23.78,0,0,0,3.73-.19v5.39a22.4,22.4,0,0,0-3.55-.14h-10a26.78,26.78,0,0,0-3.72.19Zm17.8,11.55a15.94,15.94,0,0,0,2.81.19,26.91,26.91,0,0,0-4.37-3.46v3.73a16.31,16.31,0,0,0-2.81-.14h-9a23.68,23.68,0,0,0-2.9.14v-4.78a24.17,24.17,0,0,0,2.9.13h9a15.5,15.5,0,0,0,2.81-.13v.92c3.4-2.63,4.46-5.44,4.46-11.6a13.73,13.73,0,0,0-.23-2.81,28.26,28.26,0,0,0,3.64.18h7.77a30.37,30.37,0,0,0,3.82-.18c-.09,1-.14,2.07-.14,3.63V113c0,.55.28.69,1.2.69,1.56,0,1.56,0,1.75-5.39a21.39,21.39,0,0,0,4.64,1.89c-.27,4.33-.59,6-1.42,7.14s-2,1.42-5.71,1.42c-4.92,0-5.84-.5-5.84-3.17v-7.37h-4.1c-.18,4.33-.82,6.86-2.57,9.62a13.91,13.91,0,0,1-2.35,2.86h13.35a22.17,22.17,0,0,0,3.12-.14l2.86,2.76c-.28.55-.28.55-.92,2a34.68,34.68,0,0,1-6,9.85,35,35,0,0,0,9.76,3.32,28.17,28.17,0,0,0-2.72,5.89c-5.38-1.7-8.51-3.13-11.45-5.16a36,36,0,0,1-10.54,5.3,22.31,22.31,0,0,0-2.25-4.1,29.86,29.86,0,0,0,.13,3.36h-5.38V142.3h-4.37v2.07h-5.57c.14-1.51.23-3,.23-4.55v-7a27.61,27.61,0,0,0-.18-3.54c1.1.09,2,.14,3.5.14h8.78a14.75,14.75,0,0,0,3-.14,30.36,30.36,0,0,0-.09,3.22v6.31a30.25,30.25,0,0,0,8.14-3.41,25.46,25.46,0,0,1-2.3-2.48c-3-3.82-3-3.82-3.54-4.38L568,126H566.1a29.59,29.59,0,0,0-3.68.18Zm-16.38-18a32.88,32.88,0,0,0,4,.18H557a32.7,32.7,0,0,0,4-.18v4.83c-1.29-.09-2.16-.14-4-.14h-6.9c-1.75,0-2.9.05-4,.14Zm.09,20.25a23.8,23.8,0,0,0,2.9.14h9a20.56,20.56,0,0,0,2.81-.14v4.79a16.59,16.59,0,0,0-2.9-.14h-9a16.33,16.33,0,0,0-2.86.14Zm5.2,14.92h4.42v-3.78h-4.42ZM568.59,126a20,20,0,0,0,4.92,5.94,21.39,21.39,0,0,0,4.14-5.94Z"/><path class="cls-2" d="M614,125.64a49,49,0,0,1-1.38,11.65,26.54,26.54,0,0,1-2.43,6.58,22.92,22.92,0,0,0-3.73-4.79,45.48,45.48,0,0,0,.23,5.43h-6.21a41.22,41.22,0,0,0,.27-5.43v-12.2c0-1.38,0-2.9.09-5.57a19.58,19.58,0,0,1-2.66,4,30,30,0,0,0-2.17-7,31.14,31.14,0,0,0,5.94-9.67,33.91,33.91,0,0,0,2.21-7.55l5.89,1.38c-.46,1.48-.51,1.71-.74,2.44a42.19,42.19,0,0,1-2.85,7.28v25.55c1.84-3.68,2.35-8.15,2.35-20.58,0-1.66,0-3.13-.19-4.56a49.1,49.1,0,0,0,5,.19h2v-3h-1.38a36.56,36.56,0,0,0-4.69.19v-5.39a45.36,45.36,0,0,0,4.69.19h1.38v-.83a12.36,12.36,0,0,0-.18-2.53h6.07a12.43,12.43,0,0,0-.19,2.48v.88h5.48v-.83a11.5,11.5,0,0,0-.18-2.53h6.07a12.58,12.58,0,0,0-.18,2.48v.88h2.16a30,30,0,0,0,4.78-.28v5.48a39.82,39.82,0,0,0-4.78-.19h-2.16v3h2.2a35.78,35.78,0,0,0,5.11-.23v5.43c-1.29-.09-2.62-.14-4.37-.14l-21.21,0c0,3.73,0,4-.09,6.22Zm6.08,11.23v2.39a26.83,26.83,0,0,0,.23,5.07h-5.62a43.5,43.5,0,0,0,.24-5.07V124.72c0-2.49,0-3.64-.19-5.25a45.57,45.57,0,0,0,5,.18h14.31a36.56,36.56,0,0,0,4.37-.18,39.7,39.7,0,0,0-.19,4.88v15.7c0,3.5-1,4-7.4,4a18.1,18.1,0,0,0-1.06-4.51,13.14,13.14,0,0,0,2.25.18c.78,0,.92-.14.92-1v-1.93h-4.09v1.8a32.08,32.08,0,0,0,.23,5.15h-5.34a38.51,38.51,0,0,0,.23-5.15v-1.8Zm3.91-12.8h-3.91v2.26H624Zm0,6.4h-3.91v2.26H624Zm2.76-17.58v-3h-5.48v3ZM633,126.33v-2.26h-4.09v2.26Zm0,6.4v-2.26h-4.09v2.26Z"/><path class="cls-2" d="M442.34,163.74a27.89,27.89,0,0,0-.32-5.34h7.55a29.47,29.47,0,0,0-.32,5.2v4.47l16.42-1.89a8.37,8.37,0,0,0,3.41-.78L473,169a8.24,8.24,0,0,0-1.38,2.34,39.16,39.16,0,0,1-4.92,8,35.83,35.83,0,0,1-6.49,6,19,19,0,0,0-5.52-4.51A24.84,24.84,0,0,0,460,177a17,17,0,0,0,3.59-4.65l-14.36,1.84v10.08a19.53,19.53,0,0,0,.18,3.73,2.15,2.15,0,0,0,2.07,1.89,25.5,25.5,0,0,0,4.05.28,71.6,71.6,0,0,0,8.15-.56,34.74,34.74,0,0,0,6.16-1.33l.28,7.32A43,43,0,0,0,465,196c-3.77.37-7,.56-9.57.56a31.16,31.16,0,0,1-8.47-.83,6.46,6.46,0,0,1-4.14-4.29c-.41-1.47-.46-2.2-.46-6.21V174.93l-3.12.41a39.31,39.31,0,0,0-6,1l-.69-6.77c.6.05,1.1.05,1.38.05.92,0,2.48-.14,4.64-.37l3.82-.41Z"/><path class="cls-2" d="M495.3,158.82a39.39,39.39,0,0,0-.32,5.7l-.28,24.77a30.56,30.56,0,0,0,12.29-5.2,27.92,27.92,0,0,0,8.92-10.4,22.8,22.8,0,0,0,5.25,5.61c-6.54,10.08-14.45,15.06-27.84,17.5a10.4,10.4,0,0,0-2.76.78l-3.5-4.15a10.94,10.94,0,0,0,.46-4.23l.19-24.63a3.44,3.44,0,0,0,0-.64,38.85,38.85,0,0,0-.27-5.21Z"/><path class="cls-2" d="M553.18,158.31a20.51,20.51,0,0,0-1.34,2.72c-.41.92-.6,1.33-1.1,2.34l12-.13a10.11,10.11,0,0,0,3.31-.51l3.36,3.31a10.08,10.08,0,0,0-1.19,3c-2.21,7.18-5.43,13.39-9.44,18-4.14,4.74-9.38,8.47-16.7,11.83a17.81,17.81,0,0,0-4.74-5.94c12.43-4.83,19.6-12.06,23.38-23.66l-13.07.14A46.33,46.33,0,0,1,537,181.1a16.93,16.93,0,0,0-5.48-4.7,36,36,0,0,0,12.06-13.67,17.91,17.91,0,0,0,2.21-5.85Z"/><path class="cls-2" d="M586.39,197.85a47.47,47.47,0,0,0,.28-6.49V164.11a40.08,40.08,0,0,0-.28-6.17h7.5a40.82,40.82,0,0,0-.27,6.17v7a110.48,110.48,0,0,1,20.93,9.67l-3.77,6.62A101.47,101.47,0,0,0,595.36,179a15.94,15.94,0,0,1-1.74-.83v13.25a58.25,58.25,0,0,0,.27,6.4Z"/><path class="cls-1" d="M355.16,156.85l-5.35,5.35-53-53,5.35-5.35Z"/><path class="cls-1" d="M302.14,162.2l-5.35-5.35,53-53,5.35,5.35Z"/></svg>