<svg id="レイヤー_1" data-name="レイヤー 1" xmlns="http://www.w3.org/2000/svg" viewBox="0 0 1190.55 595.27"><defs><style>.cls-1{fill:#f63402;}.cls-2{fill:#fff;}</style></defs><path d="M98,464.5h48.67v4.22H98Z" transform="translate(0)"/><path d="M213,446.05a41.27,41.27,0,0,0,7.45-.47v4.76a50.85,50.85,0,0,0-7.4-.41H197.11v11.91H217a42.43,42.43,0,0,0,7.47-.48v4.76a58.24,58.24,0,0,0-7.47-.4H198.92A65.34,65.34,0,0,0,226,488.53a18.2,18.2,0,0,0-3,4.36,71,71,0,0,1-15.46-11.07,55.73,55.73,0,0,1-10.73-13.53c.19,3.86.26,5.53.26,7.14V490a37.38,37.38,0,0,0,.47,6.6h-5.21a36.46,36.46,0,0,0,.47-6.6v-14.4c0-2.07,0-3.19.27-7.15a57.15,57.15,0,0,1-9.77,12.29,73,73,0,0,1-15.4,11.74,16.08,16.08,0,0,0-3-3.81,69.7,69.7,0,0,0,26-22.74H174.27a66.41,66.41,0,0,0-7.33.4v-4.76a47.34,47.34,0,0,0,7.33.48h18.6V450.12H178.11a60.09,60.09,0,0,0-7.34.41v-4.76a48.65,48.65,0,0,0,7.34.47h14.76v-4.76a33.54,33.54,0,0,0-.41-5.48h5.17a23.43,23.43,0,0,0-.4,5.48v4.76Z" transform="translate(0)"/><path d="M276.52,465a65.49,65.49,0,0,0,7.93-15.26l4.14,1.66a98.86,98.86,0,0,1-7.41,13.6H291a34.59,34.59,0,0,0,7.33-.48v4.77a56.19,56.19,0,0,0-7.45-.41H272.37a67.12,67.12,0,0,0,8.81,9.26,61.94,61.94,0,0,0,18,11.29,18.82,18.82,0,0,0-2.85,4.12,72.45,72.45,0,0,1-16.81-11.33A60,60,0,0,1,270,471c.22,3.67.26,5.46.26,7.15v11.9a37,37,0,0,0,.48,6.48h-5.07a36,36,0,0,0,.47-6.48v-11.9c0-2,0-3.12.27-7.15a53.86,53.86,0,0,1-12.53,14.29,77.15,77.15,0,0,1-11.9,8.12,15.84,15.84,0,0,0-3-3.86,69.28,69.28,0,0,0,18.55-13,59.12,59.12,0,0,0,6.78-7.71H246.92a69,69,0,0,0-7.33.4v-4.76a44.86,44.86,0,0,0,7.14.48h19.33V447.48H250.13a63.15,63.15,0,0,0-7.14.4v-4.76a46.45,46.45,0,0,0,7.26.48h15.81v-2.22a34.1,34.1,0,0,0-.4-5.52h4.93a24.92,24.92,0,0,0-.41,5.52v2.22h17a36.79,36.79,0,0,0,7.41-.48v4.76a53.32,53.32,0,0,0-7.14-.4H270.3V465Zm-24.27-15.33a81.11,81.11,0,0,1,6.6,12.33l-3.74,1.93a62.65,62.65,0,0,0-6.45-12.53Z" transform="translate(0)"/><path d="M337.26,473.84c-3.88,8.81-7.81,12.81-12.6,12.81-6.33,0-11.07-6.93-11.07-16.26a27.1,27.1,0,0,1,26.87-27.33c.57,0,1.13,0,1.7,0a25.69,25.69,0,0,1,18.34,6.62A22.2,22.2,0,0,1,367,466a24.27,24.27,0,0,1-15.26,23,51.54,51.54,0,0,1-10.14,3.07,10.59,10.59,0,0,0-2.38-4.47,40.41,40.41,0,0,0,11.14-3.15,20.09,20.09,0,0,0,11.91-18.66,17.56,17.56,0,0,0-10.6-16.67,19.1,19.1,0,0,0-7.74-1.67A99.9,99.9,0,0,1,337.26,473.84ZM329,450.58a23.08,23.08,0,0,0-10.85,19.85c0,6.41,2.81,11.34,6.4,11.34,2.79,0,5.45-3.12,8.33-9.67A91.63,91.63,0,0,0,339,447.43,21.35,21.35,0,0,0,329,450.58Z" transform="translate(0)"/><path d="M395.67,464.84a44.65,44.65,0,0,0-5.34.21,35.17,35.17,0,0,0,.27-4.47v-8.17a39.29,39.29,0,0,0-.27-4.6,45.39,45.39,0,0,0,5.34.19h31.71a43.33,43.33,0,0,0,5.34-.19c0,1.41-.19,2.88-.19,4.6v8.07a33.35,33.35,0,0,0,.19,4.48c-1.72-.15-3.53-.22-5.38-.22h-18a28.52,28.52,0,0,1-2.38,3.48h27.53a49.25,49.25,0,0,0,6.86-.41V472a52.5,52.5,0,0,0-6.86-.39H423.83a25.21,25.21,0,0,0,5.79,3.86A52.17,52.17,0,0,0,442.57,480a22.57,22.57,0,0,0-2.38,3.59,52.82,52.82,0,0,1-9.52-3.88v10.88a39.37,39.37,0,0,0,.4,5.74h-4.28v-3H396.86v3h-4.19a45.85,45.85,0,0,0,.38-5.74V479.89a56.59,56.59,0,0,1-9.53,4.45A9,9,0,0,0,381,481a46.29,46.29,0,0,0,18.07-9.26H388.31a49.69,49.69,0,0,0-6.79.38v-4.19a48.16,48.16,0,0,0,6.79.4H402.6a23.28,23.28,0,0,0,2.52-3.47Zm3.93-25.41a22.71,22.71,0,0,0-.27-3.86h4.53a21.72,21.72,0,0,0-.26,3.86v.74h15.47v-.74a20.84,20.84,0,0,0-.28-3.86h4.54a21.58,21.58,0,0,0-.26,3.93v.67h11.12a45.53,45.53,0,0,0,6.81-.4v4.28a37.09,37.09,0,0,0-6.74-.55H423.07a32.73,32.73,0,0,0,.26,3.27h-4.47a18.85,18.85,0,0,0,.21-3.27H403.6a21.1,21.1,0,0,0,.19,3.27h-4.46a16.28,16.28,0,0,0,.19-3.27H388.86a47.42,47.42,0,0,0-6.74.48v-4.26a38.78,38.78,0,0,0,6.81.45H399.6ZM394.33,455h34.46v-3.74H394.33Zm0,6.81h34.46v-3.88H394.33Zm2.53,21.12h29.86V478.6H396.86Zm0,7.26h29.86V486H396.86ZM404,471.72a42.88,42.88,0,0,1-4.26,3.71h24a42,42,0,0,1-4.41-3.71Z" transform="translate(0)"/><path d="M467.67,450.79a59.32,59.32,0,0,0-1.55,7.33c-1.59,9.53-1.71,10.12-1.92,11.65a8,8,0,0,1-.27,1.54h.15a17.52,17.52,0,0,1,2-2,33,33,0,0,1,19.27-5.73c10.88,0,17.88,5.07,17.88,12.85a14.28,14.28,0,0,1-6,11.48,27.7,27.7,0,0,1-16.67,4.41,55.2,55.2,0,0,1-11.67-1.22l-5.33-1.33a8.83,8.83,0,0,0,0-1.26,15.3,15.3,0,0,0-.48-4.15,47.23,47.23,0,0,0,17,3.36c11,0,18-4.4,18-11.21,0-5.46-4.77-8.67-12.93-8.67a32.22,32.22,0,0,0-18.5,6,10.91,10.91,0,0,0-2.67,2.71l-5.22-.12c.22-1.21.29-1.81.55-3.92.67-5.08,1.86-12.81,2.79-18.41a22.26,22.26,0,0,0,.47-3.55Zm2.93-11.62a80.8,80.8,0,0,0,22.6,7.41l-1.86,4.76a97.77,97.77,0,0,1-13-3.81,73.84,73.84,0,0,1-10.22-4.19Z" transform="translate(0)"/><path d="M531.79,439.58a104.93,104.93,0,0,0-.85,14.07c-.27,8-.48,17.07-.48,20.07,0,.79,0,2.38.14,4a10.4,10.4,0,0,0,3.15,8,12.55,12.55,0,0,0,8.33,2.6,19.07,19.07,0,0,0,17.86-11.6,40.11,40.11,0,0,0,3.26-10.48,18.13,18.13,0,0,0,4.76,3.19c-2.55,7.81-4.47,11.74-7.4,15.15a23.37,23.37,0,0,1-18.81,8.33c-5.67,0-9.86-1.59-12.53-4.76s-3.66-6.67-3.66-13.67c0-4.45,0-6.14.59-27.14V443a21.87,21.87,0,0,0-.26-3.52Z" transform="translate(0)"/><path d="M607.68,473.84c-3.88,8.81-7.81,12.81-12.6,12.81-6.33,0-11.07-6.93-11.07-16.26a27.1,27.1,0,0,1,26.87-27.33c.57,0,1.14,0,1.7,0a25.69,25.69,0,0,1,18.34,6.62A22.34,22.34,0,0,1,637.4,466a24.29,24.29,0,0,1-15.27,23A51.13,51.13,0,0,1,612,492.05a10.59,10.59,0,0,0-2.38-4.47,40.31,40.31,0,0,0,11.14-3.15,20.09,20.09,0,0,0,11.79-18.66,17.54,17.54,0,0,0-10.6-16.67,19.1,19.1,0,0,0-7.74-1.67A99.88,99.88,0,0,1,607.68,473.84Zm-8.22-23.26a23.08,23.08,0,0,0-10.85,19.85c0,6.41,2.81,11.34,6.4,11.34,2.79,0,5.45-3.12,8.34-9.67a92,92,0,0,0,6.07-24.67,21.35,21.35,0,0,0-10,3.15Z" transform="translate(0)"/><path d="M678.8,438.12a23.17,23.17,0,0,0-2.38,4.41,36.41,36.41,0,0,1-2,3.66c.93-.14.93-.14,20.6-.35a11.55,11.55,0,0,0,3.86-.65l3,3a15.54,15.54,0,0,0-1.79,4.24A75.88,75.88,0,0,1,682.64,481a74.13,74.13,0,0,1-21.08,13.74,11.66,11.66,0,0,0-3.26-4.14,59.92,59.92,0,0,0,13.81-7.26,47,47,0,0,0,11.53-10.53A83.88,83.88,0,0,0,668.71,462l3.07-3.4a97.78,97.78,0,0,1,14.74,10.33,80,80,0,0,0,9.26-19.31l-23.33.31a66,66,0,0,1-15.89,17.74,11.86,11.86,0,0,0-3.85-3.19,58.38,58.38,0,0,0,17-19,35.83,35.83,0,0,0,3.93-9.15Z" transform="translate(0)"/><path d="M768.09,441.91a14.55,14.55,0,0,0-3,2.81,118.4,118.4,0,0,1-15.59,13.4v28.39a44.88,44.88,0,0,0,.33,7.14h-5.79a34.18,34.18,0,0,0,.38-6.93V461.31A104.29,104.29,0,0,1,718.76,473a16,16,0,0,0-2.62-4.48,93.73,93.73,0,0,0,34.62-17.26,56.28,56.28,0,0,0,12.72-12.59Z" transform="translate(0)"/><path d="M805,440a26.82,26.82,0,0,0-1.81,4.76,356.33,356.33,0,0,1-13.85,39c8.85-.59,24.52-2.66,32.4-4.19a129.93,129.93,0,0,0-10.26-17.26l4.12-2.26a173.13,173.13,0,0,1,16.67,30.12l-4.76,2.55a81.68,81.68,0,0,0-3.93-9,412.93,412.93,0,0,1-41,5.52,45,45,0,0,0-5.66.74l-.67-5.55h1.88c.45,0,4.12-.19,5.67-.33a258.9,258.9,0,0,0,10-26.41,126.18,126.18,0,0,0,5.28-19.19Z" transform="translate(0)"/><path d="M843.29,456.58a48.56,48.56,0,0,0,7.81.4h34.19a11,11,0,0,0,4.34-.48l2.38,2.89a18.34,18.34,0,0,0-1.88,4.19c-5.67,15.52-14.86,24.07-32.13,29.86a14.51,14.51,0,0,0-2.88-4.6,45.72,45.72,0,0,0,19.81-10.12c4.77-4.33,7.74-9.29,10.79-17.48H851a60.59,60.59,0,0,0-7.74.34ZM849,441.1a30.37,30.37,0,0,0,7,.48h22.26a30.37,30.37,0,0,0,7-.48v5.14a44.57,44.57,0,0,0-6.93-.33H856a44.57,44.57,0,0,0-6.93.33Z" transform="translate(0)"/><path d="M957.63,441.91a14.73,14.73,0,0,0-2.93,2.81,119.92,119.92,0,0,1-15.59,13.4v28.39a44.88,44.88,0,0,0,.33,7.14h-5.81a34.19,34.19,0,0,0,.4-6.93V461.31A104.49,104.49,0,0,1,908.29,473a15.32,15.32,0,0,0-2.59-4.48,93.79,93.79,0,0,0,34.6-17.26A57.21,57.21,0,0,0,953,438.65Z" transform="translate(0)"/><path d="M974.23,485.74a57.65,57.65,0,0,0,19.4-5.12A50.27,50.27,0,0,0,1020.82,451a13.65,13.65,0,0,0,4.08,3.93c-5.34,11.59-11.53,19.4-20.34,25.47-6.86,4.76-13.71,7.41-24.86,9.93a32.77,32.77,0,0,0-4,1.07Zm4.28-41.33a87,87,0,0,1,16,12.55l-3.45,4.12A73.44,73.44,0,0,0,975.23,448Z" transform="translate(0)"/><path d="M1043.9,464.5h48.67v4.22H1043.9Z" transform="translate(0)"/><path class="cls-1" d="M1166.74,23.81V571.46H23.81V23.81H1166.74M1190.55,0H0V595.27H1190.55Z" transform="translate(0)"/><rect class="cls-1" x="288.14" y="242.23" width="606.42" height="161.91"/><path class="cls-2" d="M310.71,338.47c0-1.71,0-1.71.14-5.57,0-2.38,0-2.38.15-9.28a87,87,0,0,1-7.72,9.71,127.09,127.09,0,0,0-7.14-26.19A101.22,101.22,0,0,0,316.42,273a84.53,84.53,0,0,0,5-18l22.72,5.14a200.45,200.45,0,0,1-11.91,31v83.34a163.91,163.91,0,0,0,.86,16.43H309.8a123.55,123.55,0,0,0,.86-16.43Zm68.86-56.14a178,178,0,0,0-22.43-12.58L373,254.9a182.4,182.4,0,0,1,31.14,17.28L394,282.33h17.26a162.58,162.58,0,0,0,18.72-.86v22.14a171.62,171.62,0,0,0-18-.71H394.29v19.86h14.28a145.85,145.85,0,0,0,17-.72v21.58c-4.76-.43-10-.72-16.67-.72H394.31v23h20c6.43,0,12.43-.28,18.29-.85v22.14a164.42,164.42,0,0,0-18.43-.86H354.43a169.43,169.43,0,0,0-18.58.86V365.05c6,.57,11.43.85,17.72.85h18.29v-23H359.28c-6.85,0-11.9.28-16.66.71V322a142.57,142.57,0,0,0,16.66.71h12.43V302.88H356a163.54,163.54,0,0,0-17.57.71v-22a137.38,137.38,0,0,0,17.57.71Z" transform="translate(0)"/><path class="cls-2" d="M472.58,263.47a82.19,82.19,0,0,0,14.71.71,286.46,286.46,0,0,0,29.58-1.43,12.84,12.84,0,0,0,5.85-1.71l15.43,13.14a24.92,24.92,0,0,0-3.43,6.86c-1.28,3.14-7.14,21.29-9.52,29a119.25,119.25,0,0,1,24.43,7,139,139,0,0,0,1.14-23.43,47.23,47.23,0,0,0-.59-8.14l24.86.86a45,45,0,0,0-1,10.43,252.49,252.49,0,0,1-2.6,29.57c9.86,5,9.86,5,14.86,7.71a23.06,23.06,0,0,0,4.76,2.39l-8.28,26.71a100,100,0,0,0-17.72-11.9c-7.14,17-19.05,29.43-37,39.28A88.8,88.8,0,0,0,510.25,372c10.57-5,15.42-8.14,21-13.43a53.93,53.93,0,0,0,12.43-18.14,105.49,105.49,0,0,0-25.15-8.14c-5.86,17.42-10.57,28.57-14.71,35.28-5.57,9-13.15,13.72-21.86,13.72a26.42,26.42,0,0,1-18.57-8.15,32.73,32.73,0,0,1-8.72-23.43A39.33,39.33,0,0,1,473.1,316c7.57-4.76,15.57-7,28.29-7.72,2.57-8.43,4.76-15.71,6.71-23.81-6.28.57-14.14,1-23.81,1.43a79.42,79.42,0,0,0-11,.86ZM481,337.76a16.22,16.22,0,0,0-4,10.86c0,4.43,2.15,7.71,4.77,7.71,3.28,0,7-7.43,13.43-26.43A20.44,20.44,0,0,0,481,337.76Z" transform="translate(0)"/><path class="cls-2" d="M656.87,337c-.28-2.57-.42-3.42-.71-5.14-3.72.43-3.72.43-7.14.72v42.71a87.89,87.89,0,0,0,.85,15.72H630.3a91.83,91.83,0,0,0,.86-15.72V333.76c-14.86.57-14.86.57-18.15,1.28l-1.71-20.28a64.85,64.85,0,0,0,11.14.57,34.83,34.83,0,0,0,3.72-4.76,129.17,129.17,0,0,0-15.58-21.86L620.11,271l3.29,4.15a77.35,77.35,0,0,0,8.14-20.72l18.57,7.29a54.74,54.74,0,0,0-2.86,5,177,177,0,0,1-12.71,23c1.43,2,1.71,2.38,3,4.28,11.29-18.57,11.29-18.57,12.86-23.14l15.85,8v-6.14a79.46,79.46,0,0,0-.71-12.43h22a79,79,0,0,0-.57,8.57l10-5.71a151.63,151.63,0,0,1,7.57,20V267.85a74.66,74.66,0,0,0-.57-10.57H724.4a82.49,82.49,0,0,0-.59,11v19.29A97,97,0,0,0,731,262.9l15.28,7.28A117,117,0,0,1,735.85,298L724,291.61v7h8.88a65,65,0,0,0,11.91-.71v20.57a87.73,87.73,0,0,0-11.91-.57h-3.57a60.79,60.79,0,0,0,19,18.72,90.73,90.73,0,0,0-9,20.28,76.33,76.33,0,0,1-15.69-21.43c.41,5.72.41,6.57.41,10.57v10.15a37.66,37.66,0,0,0,.45,6.71H704.59a37.3,37.3,0,0,0,.43-6.43V347c0-4.76,0-6.86.28-11.29a61.15,61.15,0,0,1-12.14,19.86,41.7,41.7,0,0,0-6-9.14v19.28H732a83.22,83.22,0,0,0,13.29-.71v21.29a149.07,149.07,0,0,0-17.29-.86H687.3v5.29H665.59a108.74,108.74,0,0,0,.86-16.43V333.47Zm-28,2.39a243.83,243.83,0,0,1-4.28,44.86l-14-7.29c3-12.29,4.15-21.43,4.58-39.43Zm17.57-29.89c-1,1.43-1.57,2.15-4.28,5.43,5.28-.28,6.28-.28,9.86-.57a85.25,85.25,0,0,0-2.86-8.57A31.81,31.81,0,0,1,646.44,309.54Zm19.86-28.28c-.71,1.14-.71,1.14-7,10.71-1.71,2.57-3.71,5.43-8.86,12.29l9.53-3.57A116.41,116.41,0,0,1,666.25,320ZM662,338.47c1.14,13.15,1.57,23.29,1.85,36.29l-10.86,1.86c-.57-24.29-.71-26.72-1.71-36Zm42.57-39.86v-7.14L694,297.76a102.16,102.16,0,0,0-7-21.43v22.28ZM687,334.47a63.21,63.21,0,0,0,12.28-16.66H687Z" transform="translate(0)"/><path class="cls-2" d="M862.6,272.9c-3.43,2.14-4.76,3.43-18.14,15.28-8.29,7.29-19.86,16.67-35,27.72-3.85,2.86-4.76,3.72-4.76,5,0,1.72,0,1.72,13.43,11.57a542.55,542.55,0,0,1,43.58,35.15c.85.57,2.14,1.71,4.42,3.57l-20.43,20.86a107.09,107.09,0,0,0-14.14-15.57c-12.29-11.58-17.29-15.72-42.14-35-7.15-5.57-9.72-8.14-11.58-11.71a23.58,23.58,0,0,1-2.14-9.53A20.23,20.23,0,0,1,781,306.66c2-2.38,4.14-4.14,13-10.86,19-14.28,27.71-21.71,37.57-31.57a51.31,51.31,0,0,0,7.14-8.29ZM853.46,313a107.84,107.84,0,0,0-10.86-20.71L857,287a91.33,91.33,0,0,1,11,20.43Zm18.71-7.14a117.75,117.75,0,0,0-10.86-20.29l14.15-5.14a89.93,89.93,0,0,1,10.86,19.86Z" transform="translate(0)"/><path d="M353.42,134.18v17.39l17.85-5.79v-17Zm14.33,9-9.64,3.13v-9.91l9.64-2.91Z" transform="translate(0)"/><path d="M335.58,115.39a5,5,0,0,0,3.62-4.8V101l-42.05,11.24,24.45,7.1Z" transform="translate(0)"/><path d="M286.81,150.73a7.62,7.62,0,0,0,4.86,6.76L314,165V150.28l-27.2-8.57Z" transform="translate(0)"/><path d="M344.74,102.38v3.91l38.94,10.35v31.82c0,2.07-1.32,3.31-3.27,4L335,166.94l-.09-31.53a8.56,8.56,0,0,0-6.17-8.18L286.81,115V128.7l32.74,10.65v27.38l15.48,5.2,46.56-15.35c4.92-1.57,5.86-4.43,5.86-8.12V113.74Z" transform="translate(0)"/><path d="M786.21,143.47h-33.5l2.94-7h41.13a11.45,11.45,0,0,1-10.57,7" transform="translate(0)"/><path d="M884,143.47h-33.5l2.93-7h41.13a11.44,11.44,0,0,1-10.56,7" transform="translate(0)"/><path d="M681.74,132.86,674,152.45H640.49l-3.25,8.09H672a19.25,19.25,0,0,0,17.91-12.2L696,132.86Z" transform="translate(0)"/><polygon points="675.37 118.97 653.78 118.97 649.38 130.48 670.82 130.48 675.37 118.97"/><path d="M506.54,122.45l-1.26,3.19h7.17l-13.76,34.9h1.17a19.27,19.27,0,0,0,17.92-12.2l9-22.7h9.54l1.35-3.19Z" transform="translate(0)"/><polygon points="487.4 116.38 476.68 143.6 490.95 143.6 501.68 116.38 487.4 116.38"/><polygon points="823.21 120.19 808.94 120.19 799.71 143.6 813.99 143.6 823.21 120.19"/><polygon points="856.24 120.19 853.51 127.12 858.61 127.12 861.34 120.19 856.24 120.19"/><polygon points="849.12 120.19 846.38 127.12 851.48 127.12 854.21 120.19 849.12 120.19"/><polygon points="822.12 160.54 836.39 160.54 848.85 128.93 845.55 128.93 845.55 128.94 841.89 128.94 845.33 120.19 838.02 120.19 830.55 120.22 827.77 127.25 835.24 127.25 832.1 135.22 824.63 135.22 823.37 138.41 830.84 138.41 822.12 160.54"/><path d="M429.47,116.38l0,.08a1.93,1.93,0,0,0,1.77,2.68H443.6l3.11-2.76Z" transform="translate(0)"/><polygon points="426.93 160.54 447.89 141.92 451.49 160.54 465.76 160.54 460.08 131.1 476.65 116.38 456.91 116.38 407.19 160.54 426.93 160.54"/><path d="M552.56,148.34l10.18-25.83H548.47l-15,38h1.17a19.26,19.26,0,0,0,17.92-12.2" transform="translate(0)"/><path d="M570.53,160.54l0-.08h14.19a4.83,4.83,0,0,0,4.44-2.94l.1-.25H571.82l16.12-40.89H573.66l-17.41,44.16Z" transform="translate(0)"/><path d="M637.41,132.82H626.2l-3.09,7.83h19.56a5.68,5.68,0,0,0-5.26-7.83" transform="translate(0)"/><polygon points="607.96 160.54 625.37 116.38 611.1 116.38 593.68 160.54 607.96 160.54"/><path d="M712.36,129H730l1.26-3.19H710.8l-.21.51a1.93,1.93,0,0,0,1.77,2.68" transform="translate(0)"/><path d="M722,149.33,727.65,135l-31.71,25.46h4.91a19,19,0,0,0,12.82-4.23Z" transform="translate(0)"/><polygon points="724.92 160.54 739.2 160.54 751.64 128.98 757.31 128.98 758.66 125.79 752.9 125.79 755.1 120.19 740.83 120.19 738.62 125.79 738.59 125.79 737.33 128.98 737.36 128.98 724.92 160.54"/></svg>