<svg data-name="3" xmlns="http://www.w3.org/2000/svg" viewBox="0 0 33.5 28"><path d="M7.435,28c-3.955,0-7.435-2.571-7.435-8.384v-11.232C0,2.571,3.48,0,7.435,0s7.435,2.571,7.435,8.384v11.232c0,5.813-3.48,8.384-7.435,8.384ZM4.548,19.378c0,3.084.87,4.666,2.887,4.666s2.887-1.582,2.887-4.666v-10.757c0-3.085-.87-4.667-2.887-4.667s-2.887,1.582-2.887,4.667v10.757Z"/><path d="M23.019,11.587h1.622c1.938,0,3.045-1.503,3.045-4.073,0-2.017-1.028-3.599-2.689-3.599-1.582,0-2.413,1.463-2.61,3.362h-4.152c.158-4.39,3.164-7.276,6.96-7.276,4.074,0,7.04,3.282,7.04,7.395,0,2.966-1.503,5.023-3.045,6.091,1.938,1.107,3.401,3.243,3.401,6.604,0,4.311-2.531,7.91-7.119,7.91-4.706,0-7.356-3.165-7.554-7.475h4.152c.237,1.978,1.107,3.48,3.124,3.48,1.819,0,2.848-1.701,2.848-4.034,0-2.769-1.068-4.43-3.401-4.43h-1.622v-3.954Z"/></svg>