<svg data-name="6" xmlns="http://www.w3.org/2000/svg" viewBox="0 0 33.5 28"><path d="M7.435,28c-3.954,0-7.435-2.571-7.435-8.384v-11.232C0,2.571,3.48,0,7.435,0s7.435,2.571,7.435,8.384v11.232c0,5.813-3.479,8.384-7.435,8.384ZM4.548,19.378c0,3.084.87,4.666,2.886,4.666s2.887-1.582,2.887-4.666v-10.757c0-3.085-.87-4.667-2.887-4.667s-2.886,1.582-2.886,4.667v10.757Z"/><path d="M24.681,11.904c.672-.356,1.345-.475,2.096-.475,3.48,0,6.129,3.441,6.129,8.068,0,5.497-3.322,8.503-7.435,8.503-4.152,0-7.514-2.887-7.514-8.424,0-2.017.83-4.469,1.938-7.198L24.523.355h4.786l-4.628,11.549ZM25.472,24.005c1.938,0,2.887-1.74,2.887-4.389,0-2.61-.949-4.39-2.887-4.39-2.016,0-2.966,1.78-2.966,4.39,0,2.649.949,4.389,2.966,4.389Z"/></svg>