<?xml version="1.0" encoding="UTF-8"?><svg xmlns="http://www.w3.org/2000/svg" viewBox="0 0 870.32 143.49"><defs><style>.d{fill:#fff;}</style></defs><g id="a"/><g id="b"><g id="c"><g><g><path class="d" d="M149.79,85.47v4.91c-3.87,2.93-6.97,4.88-9.32,5.86-2.34,.98-5.71,1.37-10.11,1.17-7.62,7.52-14.33,11.28-20.13,11.28-3.28,0-6.27-.9-8.96-2.71-2.7-1.81-4.85-4.27-6.46-7.4-1.61-3.12-2.42-6.62-2.42-10.47,0-3.12,1.24-6.59,3.74-10.4,2.49-3.81,5.71-7.36,9.67-10.66,3.95-3.3,8.19-5.96,12.7-7.98,4.51-2.03,8.7-3.04,12.57-3.04,2.75,0,4.92,.35,6.5,1.06,1.58,.71,2.37,1.7,2.37,2.97,0,.98-.67,2.1-2.02,3.37,2.23,.39,3.75,1.04,4.57,1.94,.82,.9,1.23,2.55,1.23,4.94s-.66,5.3-1.98,8.86c-1.32,3.56-3.12,6.91-5.41,10.03l1.58,1.32h1.32c1,0,1.98-.21,2.94-.62,.97-.41,1.83-.85,2.59-1.32,.76-.46,2.43-1.5,5.01-3.11Zm-18.11-19.26c-4.86,2.44-9.02,4.65-12.48,6.63-3.46,1.98-6.39,3.98-8.79,6.01-2.4,2.03-4.01,4.06-4.83,6.12-1.46,5.47-2.2,8.42-2.2,8.86,0,3.22,2.69,4.83,8.09,4.83,2.52,0,6.74-1.81,12.66-5.42-1-2.29-1.49-4.49-1.49-6.59,0-3.08,.76-6.21,2.29-9.41,1.52-3.2,3.78-6.87,6.77-11.02Z"/><path class="d" d="M207.8,85.76v4.76c-6.09,3.22-10.9,4.83-14.41,4.83-1.93,0-3.99-.27-6.15-.81-5.27,5.57-9.8,9.64-13.58,12.23s-7.57,3.88-11.38,3.88c-4.39,0-7.78-1.93-10.15-5.79-2.37-3.86-3.56-8.64-3.56-14.36,0-7.76,2.81-16.22,8.44-25.38s12.41-17.72,20.35-25.71c7.94-7.98,15.63-14.59,23.07-19.81,7.44-5.22,12.48-7.84,15.12-7.84s3.78,1.44,3.78,4.32c0,12.79-19.69,35.11-59.06,66.94-.12,.88-.18,2.61-.18,5.2,0,6.74,2.17,10.11,6.5,10.11,1.7,0,3.41-.57,5.14-1.72,1.73-1.15,4.38-3.33,7.95-6.56-1.41-2.64-2.11-4.59-2.11-5.86,0-2.68,1.32-5.59,3.95-8.72,2.64-3.12,5.64-5.82,9.01-8.09,3.37-2.27,5.81-3.41,7.34-3.41,2.4,0,3.6,1.44,3.6,4.32,0,2.2-.69,4.83-2.07,7.91-1.38,3.08-3.38,6.59-6.02,10.55,1,.68,1.79,1.18,2.37,1.5,.59,.32,1.46,.48,2.64,.48,2.69,0,5.83-1,9.4-3Zm-44.65-10.99c3.05-2.2,6.11-4.8,9.18-7.8,3.08-3,7.57-7.6,13.49-13.81,5.68-5.96,10.15-10.92,13.4-14.9,3.25-3.98,5.7-7.29,7.34-9.92,1.64-2.64,2.46-4.44,2.46-5.42,0-.73-.23-1.1-.7-1.1-1.29,0-3.97,1.77-8.04,5.31-4.07,3.54-8.72,8.39-13.93,14.54-7.21,8.5-12.42,14.89-15.64,19.19-3.22,4.3-5.74,8.94-7.56,13.92Z"/><path class="d" d="M298.5,85.76c-5.16,4.88-9.77,9.03-13.84,12.45-4.07,3.42-7.38,5.97-9.93,7.65-2.55,1.68-4.29,2.53-5.23,2.53-1.52,0-3.24-1.03-5.14-3.08-1.9-2.05-3.53-4.66-4.88-7.84-1.35-3.17-2.02-6.4-2.02-9.67,0-4.74,2.75-9.51,8.26-14.32,5.51-4.81,11.78-8.8,18.81-11.98,7.03-3.17,12.3-4.76,15.82-4.76,2.87,0,5.68,1.51,8.44,4.54,4.51-7.86,8.8-14.84,12.88-20.95,4.07-6.1,7.48-10.64,10.24-13.62,2.75-2.98,4.72-4.47,5.89-4.47,1.29,0,2.47,.53,3.56,1.57,1.08,1.05,1.63,2.23,1.63,3.55,0,2.54-2.23,6.9-6.68,13.07-4.45,6.18-8.85,12.19-13.18,18.05-4.34,5.86-8.06,11.63-11.16,17.32-3.11,5.69-4.66,10.95-4.66,15.78,0,4.39,1.7,6.59,5.1,6.59,2.05,0,4.63-.96,7.73-2.89,3.11-1.93,7.53-5.16,13.27-9.7v5.35c-12.66,13.62-22.41,20.43-29.27,20.43-2.75,0-4.73-.88-5.93-2.64-1.2-1.76-1.8-4.37-1.8-7.84,0-4.69,.7-9.74,2.11-15.16Zm6.5-17.87c-5.22,1.46-11.34,3.82-18.37,7.07-7.03,3.25-11.28,5.48-12.74,6.7-1.29,.98-2.43,2.81-3.43,5.49-1,2.69-1.49,4.71-1.49,6.08,0,.83,.29,1.51,.88,2.05,.59,.54,1.32,.81,2.2,.81,.82,0,1.76-.29,2.81-.88,1.05-.59,2.74-1.73,5.05-3.44,2.31-1.71,3.82-2.81,4.53-3.3,1-.73,3.21-2.31,6.64-4.72s5.93-4.31,7.51-5.68c1.58-1.37,2.93-2.89,4.04-4.58,1.11-1.68,1.9-3.55,2.37-5.6Z"/><path class="d" d="M347.46,88.25v1.83c0,2.88,.85,5.13,2.55,6.74,1.7,1.61,3.92,2.42,6.68,2.42s5.84-.56,8.92-1.68c3.08-1.12,6.14-2.61,9.18-4.47,3.05-1.86,6.77-4.35,11.16-7.47v4.47c-6.62,6.64-12.83,11.73-18.63,15.27-5.8,3.54-11.69,5.31-17.67,5.31-5.22,0-9.35-1.68-12.39-5.05-3.05-3.37-4.57-7.98-4.57-13.84,0-5.13,1.44-9.78,4.31-13.95,2.87-4.17,7.56-8.58,14.06-13.22,4.45-3.17,8.88-5.57,13.27-7.18,4.39-1.61,8.32-2.42,11.78-2.42,2.75,0,4.94,.53,6.55,1.57,1.61,1.05,2.42,2.63,2.42,4.72,0,3.08-1.38,6.14-4.13,9.19-2.75,3.05-6.96,6.08-12.61,9.08-5.66,3-12.61,5.9-20.87,8.68Zm.88-4.76c5.27-1.71,9.79-3.83,13.54-6.37,3.75-2.54,6.52-4.97,8.31-7.29,1.79-2.32,2.68-4.02,2.68-5.09s-.62-1.68-1.85-1.68c-1.05,0-2.77,.56-5.14,1.68-2.37,1.12-4.78,2.59-7.21,4.39-2.43,1.81-4.61,3.93-6.55,6.37-1.93,2.44-3.19,5.1-3.78,7.98Z"/><path class="d" d="M385.6,87.66v-1.76c15.12-13.28,25.52-22.58,31.2-27.91,1.29-6.01,4.39-9.01,9.32-9.01,1.23,0,2.55,.29,3.95,.88l.53,1.39c-.23,.59-.35,1.42-.35,2.49,0,.93,.42,2.65,1.27,5.16,.85,2.52,1.51,4.63,1.98,6.34,.47,1.71,.7,3.64,.7,5.79,0,3.22-.88,6.31-2.64,9.27-1.76,2.95-4.31,5.79-7.65,8.5-3.34,2.71-7.65,5.48-12.92,8.31,2.11,.29,3.78,.44,5.01,.44,2.4,0,5-.5,7.78-1.5,2.78-1,5.62-2.34,8.53-4.03,2.9-1.68,6.28-3.87,10.15-6.56v4.91c-7.5,6.1-14.21,10.73-20.13,13.88-5.92,3.15-11.02,4.72-15.29,4.72-5.51,0-10.61-1.95-15.29-5.86-2.75-2.34-4.47-4.59-5.14-6.74-.67-2.15-1.01-5.05-1.01-8.72Zm32.78-11.21l-1.58-10.69c-3.63,3.42-11.4,9.99-23.29,19.7,3.52,.64,5.92,1.49,7.21,2.56,1.29,1.07,3.11,3.15,5.45,6.23,3.98-1.37,7.04-3.23,9.18-5.6,2.14-2.37,3.21-5.6,3.21-9.7,0-.49-.01-.93-.04-1.32-.03-.39-.07-.78-.13-1.17Z"/><path class="d" d="M495.03,85.76v4.91c-6.27,5.13-11.38,9.11-15.34,11.94-3.96,2.83-7.65,5.03-11.07,6.59-3.43,1.56-6.78,2.34-10.06,2.34s-6.18-1.06-8.88-3.19c-2.7-2.12-4.8-4.91-6.33-8.35-1.52-3.44-2.29-7.09-2.29-10.95,0-3.32,.88-6.27,2.64-8.86,1.76-2.59,5.16-5.93,10.2-10.03,5.98-4.88,11.53-8.65,16.66-11.32,5.13-2.66,9.15-3.99,12.08-3.99,2.11,0,3.9,.61,5.36,1.83,1.46,1.22,2.2,2.76,2.2,4.61,0,1.56-.97,3.78-2.9,6.66-1.93,2.88-4.1,5.38-6.5,7.51-2.4,2.12-4.31,3.19-5.71,3.19-1.52,0-2.29-.68-2.29-2.05,.06-.39,.1-.76,.13-1.1,.03-.34,.04-.68,.04-1.03,0-.59-.25-.92-.75-.99-.5-.07-1.1,.11-1.8,.55-5.86,3.42-9.87,5.82-12.04,7.21-2.17,1.39-3.88,2.8-5.14,4.21-1.26,1.42-1.89,2.91-1.89,4.47,0,2.88,1.11,5.23,3.34,7.03,2.23,1.81,5.13,2.71,8.7,2.71s8.13-1.18,13.32-3.55c5.19-2.37,11.29-5.82,18.33-10.36Z"/><path class="d" d="M493.8,91.25v-4.76c3.16-3.12,5.57-5.79,7.21-7.98-1.88-.54-3.24-1.2-4.09-1.98-.85-.78-1.27-1.95-1.27-3.52,0-1.76,.88-3.98,2.64-6.66,1.76-2.68,3.92-5.2,6.5-7.54,2.58-2.34,4.92-3.86,7.03-4.54,.82-.34,1.61-.51,2.37-.51,1.17,0,1.76,.46,1.76,1.39,0,.83-.91,2.52-2.72,5.05,12.07-1.56,19.69-2.34,22.85-2.34,1.23,0,2.08,.1,2.55,.29,1,.44,1.82,1.46,2.46,3.08,.64,1.61,.97,3.22,.97,4.83,0,1.03-.54,2.14-1.63,3.33-1.08,1.2-2.94,2.94-5.58,5.24-3.11,2.78-5.71,5.81-7.82,9.08-2.11,3.27-3.16,5.74-3.16,7.4,0,2.3,1.7,3.44,5.1,3.44,3.57,0,9.79-3.03,18.63-9.08v4.91c-4.86,4.25-8.88,7.59-12.04,10.03-3.16,2.44-6.09,4.38-8.79,5.82-2.7,1.44-5.1,2.16-7.21,2.16-2.46,0-4.51-.94-6.15-2.82-1.64-1.88-2.46-4.6-2.46-8.17,0-2.1,.64-4.49,1.93-7.18,1.29-2.68,3.18-5.6,5.67-8.75,2.49-3.15,5.29-6.29,8.39-9.41-1.64,.29-3.49,.6-5.54,.92-2.05,.32-4.22,.65-6.5,.99-2.29,.34-4.04,.61-5.27,.81-3.63,6.06-8.91,11.55-15.82,16.48Z"/><path class="d" d="M589.25,85.61v5.35c-5.68,6.1-10.99,10.71-15.91,13.81-4.92,3.1-9.11,4.65-12.57,4.65-4.8,0-8.38-2.1-10.72-6.3-2.34-4.2-3.52-8.79-3.52-13.77,0-1.9,.23-3.72,.7-5.46,.47-1.73,1.02-3.16,1.67-4.28,.64-1.12,1.85-2.88,3.6-5.27,8.32-10.79,15.94-16.19,22.85-16.19,3.57,0,5.36,1.15,5.36,3.44,0,1.56-1.16,4-3.47,7.32-2.32,3.32-4.38,5.69-6.2,7.1-5.1,4.1-8.42,6.96-9.98,8.57-1.55,1.61-2.33,3.44-2.33,5.49,0,1.76,.79,3.22,2.37,4.39,1.58,1.17,3.63,1.76,6.15,1.76,2.75,0,5.79-.84,9.1-2.53,3.31-1.68,7.6-4.38,12.88-8.09Zm-5.98-32.74c-1.46,0-2.86-.46-4.17-1.39-1.32-.93-1.98-2.1-1.98-3.52,0-2.15,1.23-4.54,3.69-7.18,2.46-2.64,5.01-3.96,7.65-3.96,1.76,0,3.22,.45,4.39,1.35,1.17,.9,1.76,2.21,1.76,3.92,0,2.1-1.2,4.42-3.6,6.96-2.4,2.54-4.98,3.81-7.73,3.81Z"/><path class="d" d="M587.4,91.77v-5.13c8.2-7.42,15.28-14.4,21.23-20.95,5.95-6.54,10.65-11.74,14.11-15.6,3.46-3.86,6.5-6.58,9.14-8.17,2.64-1.59,5.95-2.38,9.93-2.38,1.99,0,2.99,.64,2.99,1.9,0,1.03-.81,2.54-2.42,4.54-1.61,2-3.68,4.05-6.2,6.15-3.34,2.74-6.61,6.16-9.8,10.29-3.19,4.13-6.81,9.39-10.85,15.78,3.16-2.05,6.81-4.48,10.94-7.29,4.13-2.81,7.5-5,10.11-6.59,2.61-1.59,5.19-2.84,7.73-3.77,2.55-.93,5.11-1.39,7.69-1.39,1.64,0,2.71,.24,3.21,.73,.5,.49,.75,1.44,.75,2.86,0,3.71-1.08,7.34-3.25,10.88-2.17,3.54-5.27,7.21-9.32,11.02-4.04,3.81-9.02,7.96-14.94,12.45,2.05,.64,4.16,.95,6.33,.95,6.8,0,15.91-4.32,27.33-12.96v5.27c-4.45,3.32-8.8,6.45-13.05,9.38-4.25,2.93-8.25,5.27-12,7.03-3.75,1.76-7.21,2.64-10.37,2.64-1.17,0-2.42-.11-3.74-.33s-2.54-.49-3.65-.81c-1.11-.32-2.55-.77-4.31-1.35-1.76-.59-3.11-1-4.04-1.25-1.88,.39-2.93,.59-3.16,.59-2.05,0-4.45-.68-7.21-2.05-1.93,3.13-4.06,7.17-6.37,12.12-2.32,4.96-4.26,8.9-5.84,11.83-1.58,2.93-3.69,5.74-6.33,8.42-1.46,1.22-2.49,1.83-3.08,1.83-2.52,0-3.78-1.86-3.78-5.57,0-3.22,.78-6.58,2.33-10.07,1.55-3.49,3.46-6.8,5.71-9.92,2.26-3.13,4.73-6.29,7.43-9.48,2.69-3.2,4.6-5.58,5.71-7.14,9.26-13.28,16.46-24.58,21.62-33.91-13.48,13.67-23.67,23.49-30.59,29.44Zm35.68,3.59c5.8-5.08,10.12-9.4,12.96-12.96,2.84-3.56,4.26-6.3,4.26-8.2,0-1.81-1.09-2.71-3.25-2.71-2.93,0-7.05,2.01-12.35,6.04-5.3,4.03-10.77,9.46-16.39,16.3,4.34-.39,7.24-.52,8.7-.4,1.46,.12,3.49,.77,6.06,1.94Z"/><path class="d" d="M692.34,47.6h3.78c3.11-4.64,5.92-7.92,8.44-9.85,2.52-1.93,5.39-2.89,8.61-2.89s4.83,.61,4.83,1.83c0,.59-1.26,2.17-3.78,4.76-2.52,2.59-4.42,4.76-5.71,6.52,1.99,.2,3.76,.37,5.32,.51,1.55,.15,2.77,.27,3.65,.37-3.34,5.18-7.53,10.47-12.57,15.89-1.64-.1-3.02-.18-4.13-.26-1.11-.07-2.24-.15-3.38-.22-1.14-.07-2.54-.16-4.17-.26-3.16,4.25-5.82,8.05-7.95,11.39-2.14,3.35-3.78,6.41-4.92,9.19s-1.71,5.42-1.71,7.91c0,3.37,1.61,5.05,4.83,5.05,2.23,0,5.14-.99,8.75-2.97,3.6-1.98,8.42-5.02,14.46-9.12v4.91c-15.82,14.31-27.51,21.46-35.07,21.46-2.64,0-4.76-.85-6.37-2.56-1.61-1.71-2.42-3.91-2.42-6.59,0-1.81,.45-3.96,1.36-6.45,.91-2.49,2.53-6.25,4.88-11.28-.82,.59-1.6,1.16-2.33,1.72-.73,.56-1.41,1.07-2.02,1.54-.62,.46-1.27,.95-1.98,1.46s-1.41,1.04-2.11,1.57v-5.05c6.15-4.3,13.59-11.84,22.32-22.63-.88-.05-1.7-.08-2.46-.11-.76-.02-1.67-.04-2.72-.04-3.46,0-6.04,.2-7.73,.59-.7,.15-1.36,.31-1.98,.48-.62,.17-1.04,.26-1.27,.26s-.35-.15-.35-.44c0-1.61,1.2-4.03,3.6-7.25,1.93-2.73,3.76-4.76,5.49-6.08,1.73-1.32,3.84-2.21,6.33-2.67,2.49-.46,5.99-.7,10.5-.7Z"/><path class="d" d="M748.5,85.61v5.35c-5.68,6.1-10.99,10.71-15.91,13.81-4.92,3.1-9.11,4.65-12.57,4.65-4.8,0-8.38-2.1-10.72-6.3-2.34-4.2-3.52-8.79-3.52-13.77,0-1.9,.23-3.72,.7-5.46,.47-1.73,1.02-3.16,1.67-4.28,.64-1.12,1.85-2.88,3.6-5.27,8.32-10.79,15.94-16.19,22.85-16.19,3.57,0,5.36,1.15,5.36,3.44,0,1.56-1.16,4-3.47,7.32-2.32,3.32-4.38,5.69-6.2,7.1-5.1,4.1-8.42,6.96-9.98,8.57-1.55,1.61-2.33,3.44-2.33,5.49,0,1.76,.79,3.22,2.37,4.39,1.58,1.17,3.63,1.76,6.15,1.76,2.75,0,5.79-.84,9.1-2.53,3.31-1.68,7.6-4.38,12.88-8.09Zm-5.98-32.74c-1.46,0-2.86-.46-4.17-1.39-1.32-.93-1.98-2.1-1.98-3.52,0-2.15,1.23-4.54,3.69-7.18,2.46-2.64,5.01-3.96,7.65-3.96,1.76,0,3.22,.45,4.39,1.35,1.17,.9,1.76,2.21,1.76,3.92,0,2.1-1.2,4.42-3.6,6.96-2.4,2.54-4.98,3.81-7.73,3.81Z"/><path class="d" d="M804.23,85.47v4.91c-3.87,2.93-6.97,4.88-9.32,5.86-2.34,.98-5.71,1.37-10.11,1.17-7.62,7.52-14.33,11.28-20.13,11.28-3.28,0-6.27-.9-8.96-2.71-2.7-1.81-4.85-4.27-6.46-7.4-1.61-3.12-2.42-6.62-2.42-10.47,0-3.12,1.24-6.59,3.74-10.4,2.49-3.81,5.71-7.36,9.67-10.66,3.95-3.3,8.19-5.96,12.7-7.98,4.51-2.03,8.7-3.04,12.57-3.04,2.75,0,4.92,.35,6.5,1.06,1.58,.71,2.37,1.7,2.37,2.97,0,.98-.67,2.1-2.02,3.37,2.23,.39,3.75,1.04,4.57,1.94,.82,.9,1.23,2.55,1.23,4.94s-.66,5.3-1.98,8.86c-1.32,3.56-3.12,6.91-5.41,10.03l1.58,1.32h1.32c1,0,1.98-.21,2.94-.62,.97-.41,1.83-.85,2.59-1.32,.76-.46,2.43-1.5,5.01-3.11Zm-18.11-19.26c-4.86,2.44-9.02,4.65-12.48,6.63-3.46,1.98-6.39,3.98-8.79,6.01-2.4,2.03-4.01,4.06-4.83,6.12-1.46,5.47-2.2,8.42-2.2,8.86,0,3.22,2.69,4.83,8.09,4.83,2.52,0,6.74-1.81,12.66-5.42-1-2.29-1.49-4.49-1.49-6.59,0-3.08,.76-6.21,2.29-9.41,1.52-3.2,3.78-6.87,6.77-11.02Z"/><path class="d" d="M863.29,72.36c-10.31,9.57-15.47,16.24-15.47,20,0,2.1,1.02,3.15,3.08,3.15,1.7,0,3.91-.74,6.64-2.23,2.72-1.49,6.99-4.14,12.79-7.95v5.05c-8.32,6.84-14.71,11.77-19.16,14.8-4.45,3.03-8.09,4.54-10.9,4.54-4.8,0-7.21-2.64-7.21-7.91,0-1.56,.29-3.1,.88-4.61,.58-1.51,1.39-3.09,2.42-4.72,1.02-1.64,2.59-3.98,4.7-7.03,2.11-3.05,4.54-6.51,7.29-10.36-3.34,1.42-7.53,4.22-12.57,8.42-3.28,2.64-6.06,5.14-8.35,7.51-2.29,2.37-4.73,5.01-7.34,7.91-2.61,2.91-4.51,4.86-5.71,5.86-1.2,1-2.42,1.5-3.65,1.5-1.88,0-3.6-1.64-5.19-4.91-1.58-3.27-2.37-7.08-2.37-11.43,0-2.68,.37-4.78,1.1-6.3,.73-1.51,2.18-3.66,4.35-6.45,4.04-5.18,7.53-8.97,10.46-11.39,2.93-2.42,5.74-3.63,8.44-3.63,1.88,0,3.38,.27,4.53,.81,1.14,.54,1.71,1.37,1.71,2.49,0,.49-.18,1-.53,1.54-.35,.54-.75,1.03-1.19,1.46-.44,.44-1.36,1.29-2.77,2.56-9.26,8.55-13.89,14.09-13.89,16.63,0,1.42,.56,2.12,1.67,2.12,.7,0,2.07-.94,4.09-2.82,2.02-1.88,4.63-4.35,7.82-7.4,3.19-3.05,6.97-6.24,11.34-9.56,4.36-3.32,9.33-6.52,14.9-9.59,3.11-1.81,5.68-2.71,7.73-2.71,.94,0,1.86,1.07,2.77,3.22,.91,2.15,1.36,4.32,1.36,6.52,0,1.07-1.26,2.71-3.78,4.91Z"/></g><path class="d" d="M88.97,52.85c4.27-5.76,6.57-9.52,6.88-11.3,.2-1.12-.35-1.68-1.65-1.68-.68,0-1.2,2.01-10.32,5.28-9.12,3.26-14.73,4.89-16.84,4.89-1.3,0-1.85-.58-1.64-1.75,.13-.76,1.04-2.54,2.71-5.33l3.67-6.01,18.31-6.37c10.91-3.95,18.66-5.92,23.24-5.91,3.59,0,5.15,1.35,4.67,4.04-.17,.97-.93,2.53-2.27,4.68-1.34,2.16-3.5,5.24-6.47,9.25-2.97,4.01-6.39,8.56-10.27,13.66-3.88,5.1-7.9,10.34-12.08,15.71,0,0-55.96,76.3-73.88,71.25C-4.89,138.2,.19,119.96,2.35,116.98c2.16-2.98,6.47-5.13,7.41-5.05s-3.74,10.12-1.92,14.71c1.81,4.59-3.87,26.26,68.12-58.31l13.01-15.48ZM134.62,3.59c-.27,1.52-1.36,3.65-3.27,6.39-2.21,3.7-4.02,6.16-5.44,7.38-1.42,1.22-3.37,1.82-5.85,1.82-5.32,0-7.73-1.46-7.21-4.35,.41-2.28,2.63-5.56,6.66-9.82,2.14-2.28,3.78-3.69,4.93-4.22C125.59,.26,127.34,0,129.69,0c3.71,0,5.36,1.2,4.93,3.59Z"/></g></g></g></svg>