<?xml version="1.0" encoding="UTF-8"?><svg xmlns="http://www.w3.org/2000/svg" xmlns:xlink="http://www.w3.org/1999/xlink" viewBox="0 0 739.41 78.07"><defs><style>.e{fill:url(#d);}.f{opacity:.5;}</style><linearGradient id="d" x1="0" y1="39.04" x2="739.41" y2="39.04" gradientTransform="matrix(1, 0, 0, 1, 0, 0)" gradientUnits="userSpaceOnUse"><stop offset="0" stop-color="blue"/><stop offset=".15" stop-color="#1a2aff"/><stop offset=".46" stop-color="#4b79ff"/><stop offset=".71" stop-color="#6fb3ff"/><stop offset=".9" stop-color="#85d7ff"/><stop offset="1" stop-color="#8ee5ff"/></linearGradient></defs><g id="a"/><g id="b"><g id="c"><g class="f"><path class="e" d="M64.7,18.52c-6.09,6.43-9.41,11.19-9.95,14.28-.22,1.24,.09,1.86,.94,1.86,1.02,0,2.73-.68,5.13-2.03,2.4-1.36,5.3-3.52,8.71-6.49l-1.4-1.34c9.34-10.88,14.31-18.05,14.92-21.51,.18-1.04-.03-1.85-.63-2.42-.6-.58-1.54-.87-2.8-.87-1.79,0-4.39,.99-7.8,2.96-3.41,1.98-7.48,4.88-12.22,8.72-4.74,3.84-10.08,8.55-16.02,14.13-5.94,5.58-12.41,11.98-19.42,19.19-3.8,.03-6.9,.26-9.3,.69-2.4,.43-4.28,1.04-5.65,1.82-1.37,.78-2.72,1.86-4.05,3.25-1.33,1.39-2.72,2.84-4.15,4.37-.57,.66-.91,1.26-1,1.77-.16,.92,.44,1.38,1.81,1.38,.95,0,2.66-.4,5.14-1.19,2.48-.79,4.41-1.36,5.79-1.71s2.98-.52,4.81-.52c3.23,0,6.76,.32,10.56,.95,3.81,.64,7.88,1.43,12.21,2.38,4.33,.95,7.51,1.59,9.52,1.93,2.02,.33,3.58,.31,4.71-.07,.71-.23,1.78-.9,3.23-2.01,1.44-1.11,4.09-3.21,7.94-6.3-2.67-.23-6.74-1.01-12.22-2.34-5.48-1.33-9.67-2.29-12.57-2.88-2.9-.59-6.66-1.07-11.27-1.45,3.02-3.17,8.49-8.45,16.4-15.84,7.01-6.64,12.82-11.77,17.43-15.41,4.61-3.63,7.41-5.45,8.4-5.45,.56,0,.8,.27,.7,.82-.11,.63-2.75,3.74-7.92,9.3Z"/><path class="e" d="M140.91,13.98c-1.93,0-3.76,.57-5.47,1.71-1.71,1.14-3.74,3.08-6.09,5.82h-2.27c-2.71,0-4.83,.14-6.37,.41-1.54,.27-2.9,.8-4.08,1.58-1.17,.78-2.48,1.98-3.93,3.59-1.78,1.9-2.75,3.33-2.92,4.28-.03,.17,.02,.26,.17,.26s.4-.05,.79-.15c.39-.1,.8-.19,1.24-.28,1.06-.23,2.63-.35,4.7-.35,.63,0,1.18,0,1.63,.02,.45,.01,.94,.04,1.47,.06-6.36,6.38-11.61,10.83-15.75,13.37v.02c-2.7,1.67-5.01,3.03-6.89,4.05-2.02,1.1-4.01,1.98-5.98,2.64-1.96,.66-3.81,1-5.53,1s-2.9-.48-3.76-1.43c-.85-.95-1.13-2.28-.83-3.98l.19-1.08c5.25-1.64,9.72-3.35,13.43-5.13,3.71-1.77,6.54-3.56,8.51-5.37,1.97-1.8,3.12-3.61,3.44-5.43,.22-1.24-.1-2.17-.96-2.79-.86-.62-2.11-.93-3.76-.93-2.07,0-4.51,.48-7.32,1.43-2.8,.95-5.71,2.37-8.71,4.24-4.39,2.74-7.66,5.34-9.81,7.81-2.16,2.47-3.5,5.21-4.04,8.24-.61,3.46-.18,6.19,1.3,8.18,1.48,1.99,3.78,2.99,6.91,2.99,3.59,0,7.3-1.05,11.15-3.14,3.68-2,7.73-4.84,12.15-8.51l-.03,.18c.48-.32,.95-.63,1.43-.93,.48-.3,.92-.59,1.34-.87,.42-.27,.87-.58,1.37-.91,.5-.33,1.02-.67,1.58-1.02-1.93,2.97-3.3,5.19-4.1,6.66-.81,1.47-1.3,2.74-1.49,3.81-.28,1.59-.03,2.89,.76,3.9,.79,1.01,1.97,1.51,3.56,1.51,4.54,0,12.29-4.23,23.28-12.68l.51-2.9c-4.05,2.42-7.26,4.22-9.62,5.39s-4.22,1.75-5.56,1.75c-1.93,0-2.72-1-2.37-2.99,.26-1.47,.88-3.03,1.85-4.67,.98-1.64,2.28-3.45,3.91-5.43,1.63-1.98,3.62-4.22,5.96-6.73,.97,.06,1.8,.11,2.48,.15,.68,.04,1.35,.09,2.01,.13,.66,.04,1.48,.09,2.45,.15,3.59-3.2,6.65-6.33,9.2-9.39-.52-.06-1.23-.13-2.15-.22-.92-.09-1.96-.19-3.14-.3,.96-1.04,2.33-2.32,4.11-3.85,1.78-1.53,2.7-2.47,2.76-2.81,.13-.72-.78-1.08-2.71-1.08Zm-55.55,24.02c1.41-1.44,2.95-2.7,4.59-3.77,1.65-1.07,3.24-1.93,4.78-2.6,1.54-.66,2.63-1,3.26-1,.74,0,1.05,.33,.93,1-.11,.63-.83,1.64-2.14,3.01-1.31,1.37-3.23,2.81-5.74,4.31-2.52,1.5-5.44,2.76-8.79,3.77,.65-1.7,1.68-3.27,3.1-4.72Z"/><polygon class="e" points="158.12 13.89 159.92 3.64 152.12 3.64 150.31 13.89 149.89 25.53 154.74 25.53 158.12 13.89"/><path class="e" d="M166.11,50.14c-1.77,.59-3.38,.89-4.82,.89-.74,0-1.72-.09-2.96-.26,3.46-1.67,6.33-3.31,8.62-4.91,2.29-1.6,4.11-3.27,5.47-5.02,1.36-1.75,2.21-3.57,2.55-5.47,.22-1.27,.28-2.41,.18-3.42-.1-1.01-.28-2.26-.53-3.74-.25-1.49-.32-2.5-.23-3.05,.11-.63,.27-1.13,.47-1.47l-.17-.82c-.78-.35-1.54-.52-2.28-.52-2.95,0-5.13,1.77-6.53,5.32-3.96,3.15-11.17,8.64-21.63,16.49l-.18,1.04c-.38,2.16-.48,3.88-.3,5.15,.18,1.27,.97,2.6,2.38,3.98,2.41,2.31,5.26,3.46,8.57,3.46,2.57,0,5.79-.93,9.67-2.79,3.88-1.86,8.39-4.59,13.52-8.2l.51-2.9c-2.6,1.59-4.86,2.88-6.77,3.87-1.92,1-3.76,1.79-5.53,2.38Zm-13.01-4.74c-.66-.63-2.01-1.14-4.06-1.51,8.15-5.74,13.49-9.62,16.03-11.64l-.17,6.32c0,.23-.02,.46-.04,.69-.02,.23-.06,.49-.11,.78-.43,2.42-1.41,4.33-2.94,5.73-1.53,1.4-3.56,2.5-6.09,3.31-1.09-1.82-1.96-3.04-2.62-3.68Z"/><path class="e" d="M383.95,26.81c-.86-.62-2.11-.93-3.76-.93-2.08,0-4.51,.48-7.32,1.43-2.8,.95-5.71,2.37-8.71,4.24-4.39,2.74-7.66,5.34-9.81,7.81-1.33,1.52-2.35,3.14-3.06,4.88-2.9,1.94-5.07,3.35-6.48,4.23-1.48,.92-2.91,1.69-4.28,2.29-1.37,.61-2.6,.91-3.69,.91-1.23,0-2.2-.3-2.9-.89-.71-.59-1.47-1.54-2.29-2.83,6.67-3.12,11.69-5.88,15.07-8.29,3.38-2.41,5.32-5.03,5.81-7.85,.24-1.38,.16-2.6-.25-3.66-.41-1.05-1.16-1.58-2.25-1.58-2.67,0-6.74,1.7-12.21,5.11-5.47,3.4-12.81,8.61-22.03,15.62l.66-3.72c13.94-11.45,24.6-20.49,31.99-27.11,7.39-6.62,11.18-10.47,11.37-11.53,.22-1.24-.52-1.86-2.2-1.86-1.37,0-3.2,.64-5.48,1.93-2.28,1.28-5.04,3.19-8.26,5.71-3.22,2.52-7.1,5.78-11.63,9.76-3.29,2.89-6.28,5.65-8.98,8.29-2.7,2.64-4.96,5.1-6.79,7.38-1.83,2.28-3.33,4.62-4.51,7.03-.26,.53-.5,1.08-.73,1.62-5.28,3.28-9.08,4.94-11.37,4.94s-3.4-1.07-3.02-3.2c.23-1.3,.76-2.39,1.61-3.29,.84-.89,2.28-2.29,4.32-4.18,2.04-1.89,3.12-3.18,3.24-3.87,.06-.35,.03-.74-.11-1.19-.13-.45-.33-1.03-.59-1.75-.26-.72-.47-1.31-.64-1.77,1.29-.35,2.2-.64,2.74-.89,.54-.24,.85-.63,.94-1.15,.06-.32-.04-.81-.29-1.47-.25-.66-.65-1.25-1.19-1.75-.54-.5-1.19-.76-1.92-.76-2.74,0-6.8,.97-12.17,2.9-5.37,1.93-11.08,4.89-17.12,8.87-2.28,1.56-3.96,2.81-5.04,3.77-1.08,.95-1.86,1.88-2.34,2.79-.25,.47-.46,1-.64,1.58-2.99,1.92-5.22,3.28-6.66,4.06-1.58,.87-2.87,1.3-3.89,1.3-.88,0-1.59-.24-2.14-.71s-.75-1.1-.62-1.88c.23-1.33,1.01-2.6,2.33-3.81,1.32-1.21,3.28-2.83,5.87-4.87,2.59-2.03,3.94-3.32,4.03-3.87,.15-.84-.02-1.95-.52-3.35-.49-1.4-1.14-2.08-1.96-2.06-.42,0-1.48,.52-3.18,1.56-1.69,1.04-3.67,2.31-5.92,3.81-2.25,1.5-5.35,3.56-9.29,6.17-3.94,2.61-8.65,5.68-14.12,9.2,3.81-3.46,6.94-6.41,9.39-8.85,2.45-2.44,4.35-4.49,5.7-6.15,1.35-1.66,2.08-2.81,2.19-3.44,.17-.95-.03-1.75-.6-2.4-.57-.65-1.38-.97-2.44-.97-1.72,0-3.96,.79-6.72,2.36-2.76,1.57-5.79,3.55-9.11,5.93-3.32,2.38-6.37,4.58-9.15,6.6-2.78,2.02-4.47,3.03-5.07,3.03-.74,0-1.04-.39-.9-1.17,.1-.55,.73-1.44,1.89-2.66,1.17-1.23,2.35-2.26,3.55-3.09,2.23-1.47,4.1-2.9,5.63-4.28,1.53-1.38,2.34-2.38,2.45-2.99,.1-.58-.17-1.03-.81-1.36-.65-.33-1.48-.5-2.5-.5-1.65,0-3.33,.6-5.04,1.8-1.71,1.2-3.98,3.2-6.83,5.99-1.85,1.93-3.25,3.55-4.2,4.85-.95,1.3-1.58,2.84-1.9,4.63-.43,2.45-.27,4.6,.5,6.45,.76,1.85,1.78,2.77,3.04,2.77,.63,0,1.32-.29,2.05-.87,.73-.58,1.98-1.72,3.74-3.44,1.76-1.72,3.32-3.11,4.67-4.18,4.85-3.81,8.12-6.31,9.79-7.51,1.67-1.2,2.89-1.8,3.67-1.8,.7,0,1,.29,.9,.87-.09,.49-.26,.85-.51,1.08-3.14,3.46-5.6,6.31-7.36,8.55s-2.72,3.79-2.88,4.65c-.38,2.14,.35,3.2,2.18,3.2,1.69,0,3.67-.89,5.96-2.68,1.19-.95,2.81-2.26,4.86-3.92,2.05-1.66,4.66-3.6,7.83-5.82,3.17-2.22,6.76-4.53,10.77-6.92-1.48,1.62-3.11,3.4-4.9,5.34-1.79,1.95-3.24,3.61-4.36,5-1.12,1.38-1.98,2.58-2.58,3.59-.6,1.01-.99,2.01-1.16,2.99-.18,1.01,.04,1.85,.66,2.53,.62,.68,1.47,1.02,2.56,1.02,1.23,0,2.84-.43,4.84-1.28,2-.85,4.39-2.14,7.19-3.85,2.54-1.56,5.38-3.4,8.48-5.5-.09,1.41,.09,2.78,.54,4.11,.59,1.75,1.37,3.17,2.33,4.26,.97,1.1,1.84,1.64,2.61,1.64,1.62,0,3.85-.99,6.69-2.96,2.84-1.98,7.24-5.3,13.2-9.98-2.77,4.33-4.35,7.63-4.75,9.91-.25,1.44-.16,2.53,.29,3.27s1.36,1.1,2.73,1.1c3.6,0,10.06-3.57,19.38-10.72-.23,.84-.44,1.68-.59,2.54-.34,1.9-.38,3.35-.13,4.35,.25,1,.84,1.49,1.79,1.49,.46,0,1.01-.26,1.67-.78,.65-.52,1.84-1.56,3.56-3.14,1.72-1.57,3.63-3.27,5.75-5.08,1.05,2.63,2,4.67,2.85,6.15,.85,1.47,1.89,2.63,3.13,3.46,1.24,.84,2.72,1.25,4.45,1.25s4.2-.97,7.21-2.92c2.82-1.82,6.35-4.46,10.57-7.89v.04c-.62,3.46-.18,6.19,1.29,8.18,1.48,1.99,3.78,2.99,6.91,2.99,3.59,0,7.3-1.05,11.15-3.14,3.85-2.09,8.1-5.1,12.77-9.02l.47-2.64c-2.96,1.85-5.46,3.32-7.48,4.41-2.02,1.1-4.01,1.98-5.98,2.64-1.96,.66-3.81,1-5.53,1s-2.9-.48-3.76-1.43c-.85-.95-1.13-2.28-.83-3.98l.19-1.08c5.25-1.64,9.72-3.35,13.43-5.13,3.71-1.77,6.54-3.56,8.51-5.37,1.97-1.8,3.12-3.61,3.44-5.43,.22-1.24-.1-2.17-.96-2.79Zm-95.3,16.36c-3.56,2.87-7.35,5.2-11.36,6.99-1.06,.4-1.78,.61-2.16,.61-.67,0-1.14-.3-1.43-.89-.28-.59-.34-1.35-.18-2.27,.45-2.54,2.82-5.01,7.13-7.4,4.31-2.39,11.33-5.31,21.08-8.74-5.16,4.93-9.52,8.84-13.09,11.71Zm37.14,1.41c3.67-3.29,7.32-5.99,10.95-8.09,3.62-2.11,6.1-3.16,7.44-3.16,.49,0,.7,.23,.62,.69-.19,1.1-1.14,2.46-2.83,4.09-1.69,1.63-3.67,3.2-5.92,4.72-2.25,1.51-4.11,2.63-5.57,3.35-1.78-1.07-3.34-1.6-4.67-1.6Zm51.43-12.94c-.11,.63-.83,1.64-2.14,3.01-1.31,1.37-3.23,2.81-5.74,4.31-2.51,1.5-5.44,2.76-8.79,3.77,.65-1.7,1.68-3.27,3.1-4.72,1.41-1.44,2.95-2.7,4.59-3.77,1.65-1.07,3.24-1.93,4.78-2.6,1.54-.66,2.63-1,3.26-1,.74,0,1.05,.33,.93,1Z"/><path class="e" d="M431.14,46.52c.23-1.3,.76-2.39,1.61-3.29,.84-.89,2.28-2.29,4.32-4.18,2.04-1.89,3.12-3.18,3.24-3.87,.06-.35,.03-.74-.11-1.19-.13-.45-.33-1.03-.59-1.75-.26-.72-.47-1.31-.64-1.77,1.29-.35,2.2-.64,2.74-.89,.54-.24,.85-.63,.94-1.15,.06-.32-.04-.81-.29-1.47-.25-.66-.65-1.25-1.19-1.75-.54-.5-1.18-.76-1.92-.76-2.74,0-6.8,.97-12.17,2.9-5.37,1.93-11.08,4.89-17.12,8.87-2.28,1.56-3.96,2.81-5.04,3.77-1.08,.95-1.86,1.88-2.34,2.79-.48,.91-.83,2.04-1.07,3.4-.33,1.88-.2,3.69,.39,5.43,.59,1.75,1.37,3.17,2.33,4.26,.97,1.1,1.84,1.64,2.61,1.64,1.62,0,3.85-.99,6.69-2.96,2.84-1.98,7.25-5.3,13.2-9.98-2.77,4.33-4.35,7.63-4.75,9.91-.25,1.44-.16,2.53,.29,3.27s1.36,1.1,2.73,1.1c3.83,0,10.91-4.05,21.23-12.16l.46-2.64c-5.91,3.78-10.09,5.67-12.55,5.67s-3.4-1.07-3.02-3.2Zm-8.16-3.35c-3.56,2.87-7.35,5.2-11.36,6.99-1.06,.4-1.78,.61-2.16,.61-.67,0-1.14-.3-1.43-.89-.28-.59-.34-1.35-.18-2.27,.45-2.54,2.83-5.01,7.13-7.4,4.31-2.39,11.33-5.31,21.08-8.74-5.16,4.93-9.52,8.84-13.09,11.71Z"/><path class="e" d="M510.59,22.68c1.41,0,2.51-.35,3.32-1.04,.81-.69,1.84-2.09,3.09-4.2,1.08-1.56,1.7-2.77,1.85-3.64,.24-1.36-.7-2.03-2.8-2.03-1.34,0-2.33,.15-2.98,.45-.65,.3-1.58,1.1-2.8,2.4-2.29,2.42-3.55,4.28-3.78,5.58-.29,1.64,1.08,2.47,4.1,2.47Z"/><path class="e" d="M724.56,27.91c-.46,.03-1.02,.27-1.69,.74-.66,.46-1.51,1.15-2.55,2.06-1.04,.91-2.2,1.88-3.47,2.92s-2.85,2.24-4.75,3.59c-4.86,3.46-9.3,6.22-13.3,8.27-4,2.05-6.49,3.07-7.48,3.07s-1.36-.39-1.22-1.17c.06-.35,.27-.75,.63-1.21l1.42-2.38c4.18-2.6,7.49-4.83,9.91-6.69,2.42-1.86,4.22-3.4,5.4-4.61,1.18-1.21,1.82-2.09,1.92-2.64,.15-.87-.15-1.7-.9-2.51-.75-.81-1.61-1.21-2.56-1.21-.6,0-1.74,.47-3.41,1.41-1.68,.94-3.65,2.26-5.92,3.96-2.27,1.7-4.69,3.78-7.27,6.23-1.83,1.82-3.16,3.3-3.97,4.44-.45,.62-.8,1.32-1.09,2.1-2.74,1.7-5.08,3.08-6.99,4.11-2.02,1.1-4.01,1.98-5.98,2.64-1.96,.66-3.81,1-5.53,1s-2.9-.48-3.76-1.43c-.85-.95-1.13-2.28-.83-3.98l.19-1.08c5.25-1.64,9.72-3.35,13.43-5.13,3.71-1.77,6.54-3.56,8.51-5.37,1.97-1.8,3.12-3.61,3.44-5.43,.22-1.24-.1-2.17-.96-2.79-.86-.62-2.11-.93-3.76-.93-2.08,0-4.51,.48-7.32,1.43-2.8,.95-5.71,2.37-8.71,4.24-4.39,2.74-7.66,5.34-9.82,7.81-1.26,1.44-2.24,2.98-2.94,4.62-3.71,2.15-6.45,3.66-8.18,4.51-1.79,.88-3.19,1.32-4.21,1.32-1.23,0-1.74-.62-1.52-1.86,.39-2.22,4.18-6.16,11.36-11.81,1.74-1.3,2.67-2.26,2.78-2.9,.23-1.3,.18-2.58-.14-3.85-.32-1.27-.76-1.9-1.33-1.9-1.23,0-2.87,.53-4.92,1.6-3.66,1.82-6.97,3.71-9.94,5.67-2.96,1.96-5.56,3.85-7.8,5.65-2.24,1.8-4.06,3.26-5.46,4.37-1.41,1.11-2.32,1.67-2.75,1.67-.67,0-.93-.42-.78-1.25,.26-1.5,3.62-4.77,10.06-9.82,.98-.75,1.62-1.25,1.93-1.51,.31-.26,.6-.55,.87-.87,.27-.32,.43-.62,.48-.91,.12-.66-.14-1.15-.77-1.47-.63-.32-1.51-.48-2.63-.48-1.62,0-3.43,.71-5.44,2.14-2.01,1.43-4.5,3.67-7.46,6.73-1.59,1.64-2.68,2.91-3.28,3.81-.27,.4-.5,.89-.71,1.43-5.61,3.33-9.46,5.02-11.53,5.02s-2.94-.68-2.7-2.03c.17-.98,1.06-2.44,2.67-4.37,1.61-1.93,3.49-3.72,5.64-5.37,1.82-1.36,3.12-2.39,3.89-3.09,.77-.71,1.22-1.36,1.32-1.97,.17-.95,.14-1.9-.08-2.86-.22-.95-.6-1.56-1.16-1.82-.26-.12-.76-.17-1.5-.17-1.9,0-6.55,.46-13.96,1.39,1.35-1.5,2.08-2.5,2.16-2.99,.1-.55-.21-.82-.91-.82-.46,0-.95,.1-1.48,.3-1.34,.4-2.9,1.3-4.69,2.68-1.79,1.38-3.35,2.87-4.69,4.46-1.33,1.59-2.09,2.9-2.28,3.94-.16,.92-.03,1.62,.4,2.08,.43,.46,1.18,.85,2.25,1.17-1.21,1.3-2.93,2.87-5.16,4.72v.04c-3.08,1.76-5.4,3.01-6.94,3.73-1.72,.81-3.19,1.21-4.38,1.21-1.44,0-2.03-.75-1.76-2.25,.12-.69,.67-1.72,1.65-3.09,.98-1.37,2.06-2.63,3.25-3.79,2.21-2.16,4.12-4.04,5.74-5.63,1.62-1.59,2.69-2.68,3.24-3.27,.54-.59,.92-1.07,1.13-1.45,.21-.37,.36-.87,.47-1.47,.23-1.33,.24-2.21,.02-2.64-.22-.43-.76-.65-1.6-.65s-1.85,.34-2.92,1.02c-1.07,.68-3.1,2.14-6.1,4.39-1.3,.98-3.02,2.45-5.18,4.39-2.15,1.95-4,3.41-5.55,4.39-2.09,1.3-4.46,2.79-7.09,4.48-2.64,1.69-4.5,2.83-5.59,3.42-1.09,.59-1.84,.89-2.27,.89-1.16,0-1.63-.62-1.41-1.86,.16-.89,.72-2.19,1.69-3.9,3.35-1.88,6.35-3.79,9-5.73,2.64-1.95,4.61-3.6,5.88-4.96,1.28-1.36,1.96-2.29,2.05-2.81,.05-.26-.42-.51-1.4-.76-.98-.24-2.03-.37-3.15-.37-1.55,0-2.69,.12-3.41,.37-.73,.25-1.52,.71-2.36,1.41-.84,.69-1.88,1.54-3.11,2.55-2.05,1.64-3.79,3.12-5.23,4.41-1.44,1.3-2.63,2.5-3.56,3.61-.93,1.11-1.62,2.13-2.04,3.05-.13,.28-.23,.6-.34,.91-1.44,.8-2.41,1.33-2.86,1.58-.5,.27-1.07,.53-1.69,.78-.62,.25-1.23,.37-1.83,.37h-.79l-.81-.78c1.7-1.85,3.13-3.82,4.29-5.93,1.16-2.11,1.87-3.85,2.11-5.24,.25-1.41,.17-2.39-.22-2.92-.4-.53-1.24-.92-2.54-1.15,.94-.75,1.46-1.41,1.56-1.99,.13-.75-.24-1.33-1.11-1.75-.88-.42-2.14-.63-3.79-.63-2.32,0-4.94,.6-7.86,1.8-2.92,1.2-5.74,2.77-8.45,4.72-2.72,1.95-5.02,4.05-6.91,6.3-1.56,1.86-2.58,3.58-3.08,5.17-2.61,1.64-4.93,3.04-6.9,4.16-2.21,1.26-4.76,2.62-7.66,4.09,2.37-3.06,4.65-6.04,6.85-8.94,2.2-2.9,4.14-5.49,5.83-7.77,1.68-2.28,2.91-4.03,3.67-5.26,.76-1.23,1.19-2.11,1.29-2.66,.27-1.53-.62-2.29-2.65-2.29-2.6,0-7,1.13-13.2,3.38l-10.4,3.64-2.08,3.42c-.95,1.59-1.46,2.6-1.54,3.03-.12,.66,.19,1,.93,1,1.19,0,4.38-.93,9.56-2.79s7.96-2.79,8.35-2.79c.74,0,1.05,.32,.94,.95-.18,1.01-1.48,3.15-3.9,6.43-2.42,3.27-6.5,8.52-12.24,15.73-3.26,2.16-6.14,4.29-8.61,6.38-2.48,2.09-4.39,4.08-5.75,5.97-1.35,1.89-2.19,3.77-2.53,5.65-.27,1.53,.07,2.29,1.02,2.29,1.34,0,3.59-1.41,6.76-4.24,3.17-2.83,6.99-7.03,11.45-12.59,6.32-4.53,13.12-9.09,20.35-13.68-.05,1.45,.13,2.82,.57,4.07,.64,1.85,1.68,3.3,3.11,4.37,1.43,1.07,3.13,1.6,5.1,1.6,3.48,0,7.9-2.22,13.25-6.66,2.62,.12,4.68-.11,6.19-.69,1.37-.52,3.23-1.55,5.53-3.03-.17,1.44-.12,2.81,.16,4.09,.34,1.54,1,2.77,1.96,3.68,.96,.91,2.11,1.36,3.45,1.36,1.69,0,4.06-1.17,7.13-3.51,3.07-2.34,7.64-6.28,13.71-11.81-2.59,3.52-4.49,6.21-5.69,8.07-1.21,1.86-1.91,3.34-2.1,4.44-.51,2.89,.71,4.33,3.67,4.33,1.3,0,2.74-.36,4.3-1.08,1.57-.72,3.46-1.79,5.68-3.2,2.22-1.41,5.66-3.68,10.32-6.79l.04-.22c4.13-2.72,7.5-5.72,10.08-9,.76-.12,1.84-.27,3.25-.48,1.41-.2,2.74-.4,4.01-.58,1.26-.19,2.4-.37,3.42-.54-2.19,1.85-4.2,3.7-6.02,5.56-1.82,1.86-3.26,3.59-4.31,5.17-1.05,1.59-1.69,3-1.91,4.24-.37,2.11-.16,3.72,.62,4.83,.79,1.11,1.92,1.67,3.4,1.67,1.27,0,2.78-.43,4.55-1.28,1.77-.85,3.73-2,5.88-3.44,1.97-1.32,4.48-3.12,7.47-5.33-.29,2.21-.2,4.19,.34,5.9,.61,1.93,1.47,2.9,2.6,2.9,.74,0,1.52-.3,2.34-.89,.82-.59,2.17-1.75,4.04-3.46,1.87-1.72,3.61-3.27,5.23-4.67,1.62-1.4,3.55-2.88,5.79-4.44,3.46-2.48,6.27-4.14,8.42-4.98-2.05,2.28-3.87,4.32-5.46,6.12-1.58,1.8-2.77,3.19-3.55,4.15-.79,.97-1.43,1.9-1.94,2.79-.51,.89-.84,1.8-1.01,2.73-.55,3.12,.62,4.67,3.5,4.67,1.69,0,4.02-.89,7.01-2.68,2.84-1.7,6.92-4.42,12.2-8.15-.02,.08-.04,.16-.05,.23-.61,3.46-.18,6.19,1.3,8.18,1.48,1.99,3.78,2.99,6.91,2.99,3.59,0,7.3-1.05,11.15-3.14,3.66-1.99,7.69-4.81,12.09-8.46-.13,1.74,.26,3.72,1.17,5.95,1.06,2.58,2.27,3.87,3.64,3.87,1.51,0,4.78-1.6,9.81-4.8l10.54-6.53c-10.87,11.57-17.97,19.69-21.33,24.37-.5,.63-.82,1.37-.97,2.21-.16,.92-.06,1.98,.31,3.18,.37,1.2,.92,1.8,1.66,1.8,.32,0,.77-.24,1.36-.71,.59-.48,1.35-1.15,2.26-2.03,.91-.88,1.93-1.83,3.06-2.83,.42-.38,1.87-1.69,4.36-3.94,2.49-2.25,5.99-5.25,10.5-9,4.51-3.75,9.51-7.72,14.99-11.9l.51-2.9c-2.47,1.44-4.54,2.71-6.2,3.79-1.67,1.08-3.8,2.52-6.4,4.31-2.6,1.79-5.07,3.51-7.42,5.15s-3.58,2.51-3.7,2.6c3.06-3.78,6-7.18,8.84-10.19,2.83-3.01,5.66-5.93,8.48-8.74,2.82-2.81,4.75-4.8,5.8-5.97s1.64-2.14,1.78-2.92c.24-1.36,.17-2.38-.2-3.07-.37-.69-1-1-1.9-.91Zm-59.05,10.08c1.42-1.44,2.95-2.7,4.59-3.77,1.65-1.07,3.24-1.93,4.78-2.6,1.54-.66,2.63-1,3.26-1,.74,0,1.05,.33,.93,1-.11,.63-.83,1.64-2.14,3.01-1.32,1.37-3.23,2.81-5.74,4.31-2.51,1.5-5.44,2.76-8.79,3.77,.65-1.7,1.69-3.27,3.1-4.72Zm-138.76,1.02c-1.25,1.89-2.03,3.74-2.35,5.56-.22,1.24-.15,2.54,.21,3.9-3.93,2.14-6.65,3.2-8.16,3.2-3.24,0-4.68-.95-4.35-2.86,.05-.26,.79-2,2.24-5.24,.71-1.21,1.88-2.42,3.54-3.61,1.65-1.2,3.62-2.38,5.9-3.55,2.28-1.17,5.01-2.47,8.18-3.92-2.23,2.45-3.96,4.62-5.21,6.51Z"/><path class="e" d="M737.48,47.69c-1.23,0-2.51,.53-3.84,1.58-1.33,1.05-2.49,2.25-3.48,3.59-.99,1.34-1.53,2.27-1.63,2.79-.12,.66,0,1.18,.36,1.56,.36,.38,.83,.56,1.43,.56,1.09,0,2.32-.47,3.68-1.41,1.36-.94,2.56-2.05,3.59-3.33,1.04-1.28,1.62-2.33,1.77-3.14,.26-1.47-.37-2.21-1.88-2.21Z"/></g></g></g></svg>