<?xml version="1.0" encoding="UTF-8"?>
<svg id="_レイヤー_2" data-name="レイヤー 2" xmlns="http://www.w3.org/2000/svg" viewBox="0 0 274.13 101.4">
  <defs>
    <style>
      .cls-1 {
        fill: #f5b32d;
      }

      .cls-2 {
        fill: #231815;
      }
    </style>
  </defs>
  <g id="_文字" data-name="文字">
    <g>
      <g>
        <g>
          <path class="cls-2" d="M46.32,1.55c-.36.48-.52.8-1.12,2.03-3.07,6.18-6.94,10.8-12.55,14.95-.52-.8-1.04-1.39-1.95-2.15,4.82-3.23,8.25-6.9,10.92-11.68,1-1.75,1.51-2.99,1.71-4.18l2.99,1.04ZM42.45,17.06c-1.51,0-2.87.08-4.11.24v-2.83c1.16.16,2.51.24,4.15.24h13.11c1.83,0,3.03-.04,4.19-.2-.12.72-.12,1.04-.16,2.83,0,7.73-.76,14.47-1.79,16.34-.68,1.2-1.63,1.59-3.95,1.59-1.32,0-2.71-.08-5.22-.32-.12-1.08-.24-1.67-.64-2.83,2.19.44,4.19.68,5.62.68,1.28,0,1.71-.24,1.99-1,.84-2.43,1.32-7.85,1.32-14.75h-9.29c-.36,4.38-1.28,7.37-3.11,10.48-2.07,3.47-5.18,6.18-10.04,8.69-.52-.92-.92-1.43-1.75-2.23,5.1-2.47,8.13-5.1,10.04-8.73,1.32-2.51,1.87-4.7,2.15-8.21h-2.51ZM54.85.6c.32,1.04.68,1.83,1.51,3.35,2.91,5.22,6.3,8.81,11.76,12.4-.76.72-1.28,1.39-1.87,2.43-6.3-4.66-9.69-8.69-13.43-16.02-.2-.36-.44-.8-.64-1.12l2.67-1.04Z"/>
          <path class="cls-2" d="M76.85,7.05c.92.16,1.63.2,3.07.2h6.22c1.55,0,2.23-.04,3.03-.2v2.55c-.84-.08-1.71-.12-3.03-.12h-6.22c-1.36,0-2.15.04-3.07.16v-2.59ZM78.04,36.39c.16-1.04.24-2.23.24-3.95v-5.22c0-1.55-.04-2.55-.2-3.59,1,.12,1.59.16,2.75.16h4.78c1.28,0,1.87-.04,2.59-.16-.12,1.04-.12,1.51-.12,3.35v5.34c0,1.39.04,2.39.16,3.23h-2.31v-1.47h-5.38v2.31h-2.51ZM78.12,1.55c.92.16,1.59.2,2.91.2h4.22c1.32,0,1.95-.04,2.91-.2v2.55c-.96-.12-1.67-.16-2.91-.16h-4.22c-1.2,0-2.07.04-2.91.16V1.55ZM78.32,12.63c.8.12,1.4.16,2.75.16h4.34c1.32,0,1.87-.04,2.67-.16v2.47c-.96-.12-1.44-.16-2.67-.16h-4.34c-1.24,0-1.83.04-2.75.16v-2.47ZM78.32,18.13c.8.12,1.4.16,2.75.16h4.34c1.32,0,1.79-.04,2.67-.16v2.47c-1-.12-1.47-.16-2.71-.16h-4.34c-1.28,0-1.83.04-2.71.16v-2.47ZM80.51,32h5.42v-6.18h-5.42v6.18ZM99.45,23.4c-.96,1.32-1.35,1.75-2.43,2.71v6.58c2.11-.44,3.87-.96,6.78-1.91l.08,2.15c-3.43,1.16-7.73,2.27-11.08,2.87q-1.35.24-1.91.4l-.44-2.47c1.24-.04,2.23-.16,4.34-.56v-5.42c-1.63,1.04-2.75,1.63-5.1,2.63-.4-.84-.72-1.32-1.28-1.95,2.83-.88,4.5-1.67,6.38-3.03.92-.68,1.4-1.08,2.11-1.99h-3.79c-1.99,0-2.75.04-3.59.16v-2.23c.8.12,1.63.16,3.67.16h2.47v-2.91h-.72c-1.83,0-2.63.04-3.47.16v-2.19c.84.12,1.55.16,3.51.16h.68v-2.75h-1.79c-1.91,0-2.59.04-3.43.16v-2.23c.72.12,1.55.16,3.47.16h1.75c0-1.59-.04-2.43-.2-3.23h2.55c-.16.84-.2,1.59-.2,3.23h5.62c0-1.95-.04-2.35-.16-3.19h2.47c-.12.76-.16,1.24-.16,3.19h2.03c1.95,0,2.83-.04,3.79-.2v2.31c-1.04-.16-1.91-.2-3.71-.2h-2.11v2.75h1.79c1.83,0,2.67-.04,3.55-.2v2.27c-.96-.16-1.79-.2-3.59-.2h-1.75v2.91h2.87c1.99,0,2.87-.04,3.83-.2v2.31c-.96-.16-1.99-.2-3.91-.2h-5.54c.64,1.87,1.2,3.03,2.19,4.38,2.03-1.28,3.19-2.27,4.38-3.75l1.83,1.47c-2.15,1.87-2.99,2.55-4.9,3.79,1.83,1.87,3.99,3.15,7.21,4.38-.64.72-1,1.28-1.55,2.27-6.26-3.03-9.69-6.82-11.36-12.55h-1.2ZM98.09,6.58c-2.23,1.91-4.11,3.03-7.17,4.34-.44-.64-.96-1.2-1.59-1.67,3.23-1.04,5.18-2.15,6.98-3.95l1.79,1.28ZM108.37,3.07c1.71,0,2.83-.08,3.91-.24v2.47c-1.31-.16-2.39-.2-3.87-.2h-14.87c-1.47,0-2.43.04-3.43.16v-2.39c1.28.16,2.15.2,3.75.2h5.5v-.56c0-.88-.04-1.71-.16-2.51h2.79c-.16.68-.2,1.36-.2,2.51v.56h6.58ZM97.81,16.7h5.62v-2.75h-5.62v2.75ZM97.81,21.48h5.62v-2.91h-5.62v2.91ZM104.47,5.3c2.35,1.67,4.38,2.59,8.21,3.67-.52.64-.64.8-1.24,1.83-3.75-1.32-5.86-2.35-8.49-4.15l1.51-1.36Z"/>
          <path class="cls-2" d="M126.71,18.49c0-1.79.08-3.39.2-5.22-1.55,2.67-2.39,3.91-4.26,6.06-.16-.72-.52-1.28-1.43-2.27,3.27-3.39,5.62-7.05,7.49-11.52.84-2.07,1.47-4.07,1.67-5.34l2.63.84c-1.44,3.87-1.75,4.62-3.75,8.77v21.64c0,1.79.08,3.19.28,4.66h-3.11c.2-1.39.28-2.55.28-4.78v-12.83ZM136.91,11.16c-1.51,0-2.99.08-4.19.2v-2.79c1.04.16,2.35.24,4.19.24h15.74c1.75,0,3.15-.08,4.22-.24v2.79c-1.16-.12-2.67-.2-4.19-.2h-7.09v8.41h5.9c1.63,0,3.07-.08,4.15-.24v2.71c-1.2-.12-2.67-.2-4.11-.2h-5.94v10.32h8.25c1.75,0,3.31-.08,4.34-.24v2.75c-1.2-.12-2.71-.2-4.34-.2h-18.57c-1.67,0-3.19.08-4.38.2v-2.75c1.08.16,2.55.24,4.3.24h7.81v-10.32h-4.94c-1.47,0-2.91.08-4.15.2v-2.71c1.08.16,2.47.24,4.1.24h4.98v-8.41h-6.1ZM140.54.48c3.27,1.71,5.06,2.83,8.01,5.06l-1.87,2.03c-2.43-2.19-4.1-3.31-7.89-5.3l1.75-1.79Z"/>
          <path class="cls-2" d="M181.75,15.19c-4.78.92-6.18,1.16-10.84,1.83-.4-1.08-.72-1.75-1.24-2.43,8.13-.8,14.31-2.03,20.73-4.11,2.47-.8,3.39-1.16,4.46-1.83l2.23,2.19q-.92.24-3.87,1.24c-2.43.84-6.26,1.91-8.81,2.55v5.78l14.47-1.75c1.51-.2,2.91-.48,3.95-.76l.28,2.87h-.6c-.88,0-2.19.08-3.43.24l-14.67,1.83v8.21c0,1.04.16,1.36,1,1.63.76.24,2.79.36,5.86.36,4.54,0,6.7-.2,7.57-.76.92-.52,1.16-1.59,1.31-5.58,1.16.72,1.36.8,2.55,1.12-.28,4.07-.84,5.66-2.23,6.54-1.28.84-3.51,1.08-9.33,1.08-4.62,0-6.85-.2-8.05-.76-1.08-.52-1.35-1.2-1.35-3.19v-8.33l-9.29,1.12c-1.59.2-2.79.44-3.99.76l-.32-2.87h.64c.84,0,2.19-.08,3.39-.24l9.57-1.2v-5.54ZM183.82,2.79c0-.88-.08-1.51-.28-2.43h3.11c-.16.88-.24,1.55-.24,2.43v1.87h11.76c1.71,0,2.75-.04,4.03-.16-.12.84-.16,1.51-.16,2.71v2.63c0,1.16.04,2.07.16,2.79h-2.63v-5.62h-27.86v5.62h-2.63c.12-.88.16-1.55.16-2.79v-2.63c0-1.16-.04-1.87-.16-2.71,1.28.12,2.27.16,3.99.16h10.76v-1.87Z"/>
          <path class="cls-2" d="M221.96,2.87c-.6,1.71-1.08,3.67-1.67,6.38-.84,4.18-1.2,7.69-1.2,12.47,0,3.11.08,5.46.24,7.57.56-2.67,1.32-4.86,2.59-7.77l1.91.92c-1.79,3.95-3.23,8.73-3.23,10.96v.6l-2.87.24c-.08-.64-.12-.84-.24-1.59-.76-4.22-1.04-7.09-1.04-11.28,0-5.66.48-9.88,1.79-15.78.4-1.87.48-2.27.56-3.19l3.15.48ZM232.13,18.89c-1.99,2.19-2.99,4.11-2.99,5.86,0,2.95,2.51,4.38,7.65,4.38,3.63,0,7.01-.52,9.17-1.39l.4,3.07c-.52.04-.6.08-1.4.2-2.79.56-5.46.8-8.17.8-4.54,0-7.41-.96-9.13-3.03-.8-1-1.2-2.19-1.2-3.67,0-2.43,1-4.58,3.47-7.41l2.19,1.2ZM227.06,7.09c1.71.44,3.67.6,6.78.6,4.42,0,8.01-.36,10.68-1.08l.2,2.83c-.08,0-1,.12-2.75.36-2.31.32-5.5.52-8.57.52-2.23,0-3.79-.12-6.38-.4l.04-2.83Z"/>
        </g>
        <g>
          <path class="cls-2" d="M229.02,62.45c1.31-2.79,1.79-4.18,1.91-5.46l3.19.56q-.36.52-1.04,2.15c-.52,1.28-1.04,2.35-1.24,2.71q.48-.04.84-.04c6.38-.32,10.36-.8,12.55-1.51l.24,2.71c-.64.04-.88.08-1.59.2-4.15.56-8.33.88-13.15,1.04-1.2,2.35-2.19,3.95-3.59,5.66-.4.48-1.2,1.39-1.35,1.51-.28.2-.48.36-.52.4,0,.04-.04.04-.04.04v.04q.04.08.08.12,1.43-1.12,1.83-1.39c1.83-1.28,3.95-1.95,6.02-1.95,2.95,0,4.74,1.47,5.26,4.42,2.91-1.16,5.18-1.99,6.94-2.63,1.95-.68,2.07-.72,2.71-1.16l1.28,2.79c-2.07.36-5.66,1.55-10.64,3.51.08,1.04.08,1.43.08,2.43,0,.52,0,1.39-.04,2.19-.04.88-.04,1.43-.04,1.79,0,.56,0,.88.08,1.43l-2.71.04c.12-.88.24-3.31.24-5.74,0-.64,0-.72-.04-1.2-5.42,2.55-7.49,4.42-7.49,6.82,0,2.63,2.47,3.79,8.09,3.79,3.95,0,8.37-.64,10.64-1.55l.36,3.07c-.6.04-.8.08-1.59.2-3.15.52-6.62.8-9.68.8-7.13,0-10.6-2.03-10.6-6.14,0-2.19,1.36-4.26,4.07-6.3,1.35-1,3.27-2.03,5.94-3.19-.32-2.19-1.28-3.15-3.15-3.15-2.51,0-5.66,1.47-8.89,4.22-1.55,1.32-2.43,2.23-3.07,3.31l-2.23-2.23c2.75-2.11,6.06-6.3,8.93-11.4l.36-.6c-.16.04-.56.08-.76.08-.64,0-4.38-.08-5.86-.12h-.64c-.36,0-.44,0-.88.04l.04-2.75c1.44.28,4.46.44,8.53.44h.64Z"/>
          <path class="cls-2" d="M274.13,85.89c0,3.31-2.67,5.98-5.98,5.98s-5.98-2.67-5.98-5.98,2.67-5.98,5.98-5.98,5.98,2.67,5.98,5.98ZM264.45,85.89c0,2.03,1.67,3.71,3.71,3.71s3.71-1.67,3.71-3.71-1.67-3.71-3.71-3.71-3.71,1.67-3.71,3.71Z"/>
        </g>
        <g>
          <path class="cls-2" d="M24.82,90.31c-4.38,0-8.39-.98-11.28-4.66-1.4,2.52-3.35,4.47-5.64,6.06l-2.98-4.29c2.24-1.21,4.47-3.08,5.96-5.5v-11.98h-5.36v-4.8h10.11v16.03c2.14,3.4,4.94,4.38,8.95,4.38h.28l24.23-.19-1.68,4.94h-22.6ZM12.05,59.74c-1.35-2.14-4.38-6.06-6.38-8.11l3.82-3.17c2.05,2.28,4.71,5.73,6.2,8.2l-3.63,3.08ZM44.81,85.09c-2.98-.98-6.71-2.56-9.41-4.15l2.38-2.8h-9.65l2.42,2.47c-3.08,2.28-6.1,3.49-9.65,4.33l-2.33-4.29c3.17-.42,6.29-1.26,8.57-2.52h-9.55v-3.91h6.94v-3.03l-5.87-.05v-3.73h5.87v-2.38h-2.19c-2.66,0-3.82-.61-3.82-3.12v-6.48h8.11v-2.61h-8.29v-3.82h12.77v9.74h-8.15v1.91c0,.75.23.98.84.98h2.89c1.02,0,1.44-.14,1.68-2.7l4.19,1.86c-.7,3.68-1.44,4.24-3.31,4.24v2.38h7.04v-2.38h-.37c-1.58,0-2.75-1.3-2.75-2.98v-6.62h8.62v-2.61h-8.81v-3.82h13.28v9.74h-8.67v1.91c0,.79.19.98.79.98h3.22c1.17,0,1.63-.42,1.86-2.7l4.15,1.86c-.89,3.73-1.68,4.24-4.19,4.24h-2.42v2.38h5.87v3.73l-5.87.05v3.03h7.13v3.91h-9.6c2.66,1.17,5.78,2.19,8.85,2.89l-2.56,4.05ZM36.28,71.2h-7.04v3.03h7.04v-3.03Z"/>
          <path class="cls-2" d="M57.91,85.98c3.45-6.76,5.5-14.82,6.29-18.03l5.17,1.54c-1.44,5.45-3.82,13.37-6.48,18.59l-4.99-2.1ZM69.42,81.46c3.54,2.19,6.43,3.03,8.53,3.03,4.15,0,5.73-2.8,5.73-6.57,0-4.05-4.24-8.57-10.95-11.42l2.84-3.87c6.99,3.17,13.61,8.16,13.61,16.22,0,7.32-4.8,10.9-11.14,10.9-3.45,0-6.99-1.26-9.55-2.84l.93-5.45ZM88.1,59.18c-6.01-2.8-14.12-3.91-19.15-4.33l1.26-4.61c5.17.56,13.89,1.49,18.97,3.59l-1.07,5.36ZM93.6,60.53c-1.07-2.8-3.26-6.76-4.75-8.81l3.31-1.3c1.44,1.91,3.87,5.87,4.94,8.57l-3.5,1.54ZM97.1,86.44c-.98-6.38-3.54-13.33-6.66-17.57l4.94-1.63c3.03,4.33,6.01,11.51,7.08,16.92l-5.36,2.28ZM100.13,58.25c-1.12-2.66-3.26-6.38-4.94-8.67l3.22-1.35c1.58,1.96,3.87,5.64,5.03,8.34l-3.31,1.68Z"/>
          <path class="cls-2" d="M146.22,91.71v-2.84h-25.82v2.84h-5.08v-38.31h11.18c1.26-1.86,2.47-4.05,3.17-6.01l5.73.79c-.7,1.86-1.82,3.68-2.98,5.22h18.87v38.31h-5.08ZM146.22,58.2h-25.82v5.55h25.82v-5.55ZM146.22,68.13h-25.82v5.64h25.82v-5.64ZM146.22,78.15h-25.82v6.01h25.82v-6.01Z"/>
          <path class="cls-2" d="M200.65,91.38v-3.08h-28.52v3.08h-4.94v-34.72h16.36v-8.99h5.22v8.99h16.82v34.72h-4.94ZM183.54,61.14h-11.42v8.71h11.42v-8.71ZM183.54,74.33h-11.42v9.51h11.42v-9.51ZM200.65,61.14h-11.88v8.71h11.88v-8.71ZM200.65,74.33h-11.88v9.51h11.88v-9.51Z"/>
        </g>
      </g>
      <rect class="cls-1" y="96" width="213.2" height="5.4"/>
    </g>
  </g>
</svg>