<svg id="レイヤー_1" data-name="レイヤー 1" xmlns="http://www.w3.org/2000/svg" width="674" viewBox="0 0 673.594 41.462"><defs><style>.cls-1{fill:#4b4345;stroke-miterlimit:10;}.cls-1,.cls-2,.cls-3{stroke:#4b4345;}.cls-2,.cls-3{fill:none;stroke-linecap:round;stroke-linejoin:round;stroke-width:3.594px;}.cls-3{stroke-dasharray:5.695 9.492;}</style></defs><path class="cls-1" d="M51.919,38.5,49.177,37.1c5.121-9.333,6.612-11.949,6.773-22.168H49.9v-2.7H55.95v-6.8H59.1v6.8H66.15v2.7h-7.1C58.894,25.991,57.039,29.169,51.919,38.5Zm11.369-6.92V30.1h3.023v1.489c0,3.057,3.669,3.259,7.176,3.259h3.992V37.7h-3.91C68.166,37.7,63.288,36.814,63.288,31.584Zm13.546-12.03v2.7H64.417v-2.7Z"/><path class="cls-1" d="M96.311,26.152a4.948,4.948,0,0,1-.242-5.914c2.258-3.018,6.531-9.093,10.442-14.766l2.58,1.73c-3.829,5.633-8.224,11.668-10.6,14.766a2,2,0,0,0,.081,2.253c2.782,3.1,7.7,9.052,11.006,13.719l-2.621,1.69C103.689,35.043,98.892,29.169,96.311,26.152Z"/><path class="cls-1" d="M151.951,26.112h-.04l-1.29,2.575-.081-.041a54.831,54.831,0,0,0-8.95-1.69c-2.338-.08-6.168.2-7.217,2.375a2.745,2.745,0,0,0-.161,2.373c.927,2.454,3.588,3.661,8.023,3.7a62.941,62.941,0,0,0,7.055-.362v2.7a51.369,51.369,0,0,1-6.41.443,20.435,20.435,0,0,1-6.692-.966,8.266,8.266,0,0,1-4.838-4.265,5.853,5.853,0,0,1,.242-4.989c1.935-3.822,7.5-3.661,10.159-3.62a20.388,20.388,0,0,1,5.322,1.166c-2.379-3.58-2.621-7.684-2.661-10.7h-14.07V12.111h14.07V5.875h3.064v6.236h7.7v2.695h-7.7C147.517,19.272,147.839,22.853,151.951,26.112Z"/><path class="cls-1" d="M191.183,38.785a10.462,10.462,0,0,1-3.95-.764c-2.258-.966-3.549-3.34-3.549-6.88V27.56c0-1.81-.484-2.494-2.176-2.494h-4.516l-5.6,13.6-2.741-1.127,12.618-30.9,2.742,1.086L178.121,22.41h3.387c3.467,0,5.4,1.851,5.4,5.391v3.742c0,2.736.846,3.5,1.613,3.822a6.585,6.585,0,0,0,2.781.523,27.9,27.9,0,0,0,4.717-.643v2.816A23.108,23.108,0,0,1,191.183,38.785Z"/><path class="cls-1" d="M232.39,27.6a10.463,10.463,0,0,0-.483-10.581,10.868,10.868,0,0,0-7.983-4.868,48.448,48.448,0,0,1-1.411,10.1,31.142,31.142,0,0,1-3.911,9.816c-2.661,4.024-6.692,4.144-9.152,1.851-2.66-2.535-2.943-6.759-2.822-9.012a16.086,16.086,0,0,1,16.086-15.53,13.844,13.844,0,0,1,11.813,6.075,13.592,13.592,0,0,1,.685,13.518c-2.822,5.593-7.66,8.288-13.949,8.53l-.121-2.937C226.383,34.118,230.052,32.428,232.39,27.6ZM220.779,12.231a13.394,13.394,0,0,0-11.086,12.835c-.081,1.086-.081,4.948,1.894,6.84,1.452,1.407,3.266.482,4.435-1.369a29.872,29.872,0,0,0,3.508-9.052A52.917,52.917,0,0,0,220.779,12.231Z"/><path class="cls-1" d="M259.528,20.2h13.183c-.121,3.58-.565,7.081-.565,10.7v.241a.6.6,0,0,0-.04.241,29.048,29.048,0,0,1-.766,5.311,4.075,4.075,0,0,1-1.774,2.535,5.671,5.671,0,0,1-2.822.483,38.587,38.587,0,0,1-5.322-.4l-.645-3.379a25.43,25.43,0,0,0,5.685.764c1.33,0,1.854-.724,2.177-1.931.847-3.1.967-8.61,1.048-11.869H259.245c0,.081-.04.242-.04.4-1.169,7.4-4.072,13.237-10.724,17.5l-2.016-2.535c8.87-4.587,10.2-15.208,10.442-24.18H245.578V11.387h14.03V5.11h3.024v6.277h14.191v2.7H259.85l-.121,2.213C259.648,17.623,259.648,18.87,259.528,20.2Z"/><path class="cls-1" d="M293.437,36.291l-2.459,1.81c-2.661-3.54-3.064-4.626-3.064-9.615V8.288h2.9v20.2C290.817,33.233,291.18,33.475,293.437,36.291Zm12.377-2.656h8.829v2.938h-9.031c-6.168,0-7.982-3.863-7.377-10.18H301.3C300.855,31.5,301.662,33.635,305.814,33.635Zm-6.329-21.6h14.191v3.018H299.485Z"/><path class="cls-1" d="M346.5,26.8h10.644v2.333H323.357V26.8h10.078c-.4-1.087-.847-2.173-1.33-3.179h-3.427V16.576h23.141v7.041H348.11A29.241,29.241,0,0,1,346.5,26.8Zm9.918-19.111V9.938H341.539v2.414h12.175v2.213h-26.89V12.352h11.852V9.938H324.042V7.685h14.634V4.265h2.863v3.42ZM330.976,38.946v1.529h-2.862V31.181h24.229v9.294h-2.862V38.946Zm0-5.633v3.38h18.5v-3.38Zm.484-14.685v2.937h17.5V18.628Zm4.878,8.168h7.3a32.4,32.4,0,0,0,1.452-3.179h-10C335.531,24.663,335.975,25.709,336.338,26.8Z"/><path class="cls-1" d="M371.659,35.405l-2.338,1.811c-3.387-4.224-3.185-5.512-3.185-9.092V9.053h2.9V27.922C369.038,31.423,368.837,31.825,371.659,35.405Zm17.094-3.258c-.2,3.943-2.3,5.552-5.766,5.552a9.145,9.145,0,0,1-3.628-.724c-2.217-.966-3.991-3.179-3.1-5.794,1.008-2.736,3.951-3.339,6.249-3.339a19.452,19.452,0,0,1,3.306.322V16.214H375.247V13.479H385.81V6h2.983v7.484h5.846v2.735h-5.846V29.25a40.476,40.476,0,0,1,7.176,4.385l-1.653,2.253C391.131,33.635,389.962,32.911,388.753,32.147Zm-6.048-1.529c-1.249,0-2.741.08-3.507,1.247-.726,1.247.564,2.454,1.774,2.857a7.251,7.251,0,0,0,2.015.321c2.581,0,2.823-1.126,2.823-3.5V30.98A14.319,14.319,0,0,0,382.705,30.618ZM393.51,10.984h-2.3V4.909h2.3Zm5.12.041h-2.3V4.949h2.3Z"/><path class="cls-1" d="M423.389,16.094a123.676,123.676,0,0,0-9.6,8.328V38.745l-2.9.08V27.077L405.61,32.79,403.553,30.7l7.338-7.483V14.967h-6.33V12.111h6.33V5.875l2.9-.081V20.519c4.112-3.661,6.692-5.833,7.942-6.719,3.426-2.454,8.506-1.206,8.506,3.461v8.086c0,7.4.363,7.645,4.919,10.5L433.629,38.1c-5.886-3.822-6.37-5.029-6.37-12.754V17.22C427.259,15.088,425,15.007,423.389,16.094Z"/><path class="cls-1" d="M456.573,26.514c-.847,5.794,2.379,8.851,8.023,8.851.443,0,1.653-.04,3.064-.16V37.98q-2.177.122-3.145.121c-8.022,0-12.094-4.506-11.046-12.07.686-4.828,3.83-8.368,8.023-13.639l-16.449.04V9.656h26.044v2.776h-6.128C462.943,15.49,457.42,20.8,456.573,26.514Z"/><path class="cls-1" d="M485.323,24.7V11.064h3.225V24.7c0,6.839.806,7.121,5.523,10.339l-1.814,2.535C486.209,33.434,485.323,32.026,485.323,24.7Zm19.714-9.576,2.54-1.81c4.8,5.471,5.08,7.242,5.08,13.276v4.668h-3.226V26.594C509.431,20.56,509.19,19.836,505.037,15.128Z"/><path class="cls-1" d="M540.439,32.026c-.121,4.426-1.895,6.558-6.168,6.558-4.395,0-8.708-2.615-7.217-7.041.645-1.85,2.661-3.1,5.564-3.46a14.5,14.5,0,0,1,4.878.161V21.2h-9.958V18.468H537.5V12.392H527.014V9.616H537.5V4.828h2.943V9.616h9.394v2.776h-9.394v6.076h8.789V21.2h-8.789v7.886A36.256,36.256,0,0,1,550.4,34.6l-1.774,2.293A35.367,35.367,0,0,0,540.439,32.026Zm-7.418-.885c-1.25.161-2.782.765-3.024,1.891-.4,1.69,2.178,2.7,4.274,2.7,2.943,0,3.265-1.449,3.225-4.346A13.571,13.571,0,0,0,533.021,31.141Z"/><path class="cls-1" d="M582.614,13.639V25.79c.161,7.242-.041,8.288-6.169,14.444L574.228,38.3c4.435-4.3,5.2-5.31,5.564-8.207a3.888,3.888,0,0,1-3.225,1.006c-3.629-.2-5.927-3.179-5.605-7.121.323-3.742,2.782-6.236,6.129-6.2a3.637,3.637,0,0,1,2.5.725V13.639h-17.3V10.944h17.3V5.834h3.024v5.11h9.353v2.695Zm-8.749,10.582c-.161,1.73.484,4.023,2.782,4.1,2.338.08,3.145-1.811,3.265-3.621.162-2.173-.846-4.144-2.983-4.144C574.873,20.56,573.986,22.491,573.865,24.221Z"/><path class="cls-1" d="M610.557,5.713h4.515l-.685,24.221h-3.145Zm0,27.882h4.515v4.667h-4.515Z"/><line class="cls-2" x1="643.829" y1="38.08" x2="645.659" y2="35.707"/><line class="cls-3" x1="651.446" y1="28.198" x2="667.074" y2="7.924"/><line class="cls-2" x1="669.968" y1="4.17" x2="671.797" y2="1.797"/><line class="cls-2" x1="29.765" y1="38.08" x2="27.935" y2="35.707"/><line class="cls-3" x1="22.147" y1="28.198" x2="6.52" y2="7.924"/><line class="cls-2" x1="3.626" y1="4.17" x2="1.797" y2="1.797"/></svg>