<svg id="レイヤー_1" data-name="レイヤー 1" xmlns="http://www.w3.org/2000/svg" viewBox="0 0 380 54"><defs><style>.cls-1{fill:none;}.cls-2{fill:#ebebeb;}.cls-3{fill:#9c9d9d;}.cls-4{fill:#fff;}</style></defs><rect class="cls-1" width="380" height="54"/><rect class="cls-2" x="257.41" width="122.59" height="54"/><path class="cls-3" d="M280.79,39a6.41,6.41,0,0,0,1.17.07h1.1a8.06,8.06,0,0,0,1.12-.06,13.11,13.11,0,0,0-.06,1.59v3.07a2.23,2.23,0,0,0,.84.94c.67.44,1.45.56,3.65.56a41.48,41.48,0,0,0,5.89-.33,6.54,6.54,0,0,0-.44,1.74l-1.63.05c-.44,0-2.6,0-3.35,0a16.31,16.31,0,0,1-3.67-.27,3.51,3.51,0,0,1-2.05-1.4,14.21,14.21,0,0,1-1.71,1.4c-.1.08-.35.27-.48.39l-.71-1.68a8,8,0,0,0,2.12-1.45V40.51h-.81a5.26,5.26,0,0,0-1,.08Zm1.27-5.35a19.29,19.29,0,0,1,2.54,2.65l-1.21,1.19a16,16,0,0,0-2.5-2.75Zm4.47,3.62a13.17,13.17,0,0,0-1.32.07V35.78a10.93,10.93,0,0,0,1.33.08h.57a7.11,7.11,0,0,0-1-1.9l1.41-.66a10.61,10.61,0,0,1,1.09,1.93l-1.28.63h2.36a11.87,11.87,0,0,0,1.19-2.54l1.59.53c-.18.3-.18.3-.52,1-.2.39-.36.68-.58,1h.85a8.25,8.25,0,0,0,1.29-.08v1.56c-.48,0-.92-.07-1.41-.07H290a13,13,0,0,1-.07,1.67h2.79a8.61,8.61,0,0,0,1.32-.07v1.58c-.49,0-.94-.07-1.45-.07h-2.38a4.73,4.73,0,0,0,1.23,1.45,7.07,7.07,0,0,0,2.7,1.31,4.35,4.35,0,0,0-.73,1.56,7.42,7.42,0,0,1-2.78-1.53,6,6,0,0,1-1.38-1.65,4.79,4.79,0,0,1-1.35,1.78,7.57,7.57,0,0,1-2.13,1.35,3.89,3.89,0,0,0-1-1.39,6.68,6.68,0,0,0,2.14-1.16A4.13,4.13,0,0,0,288,40.38h-2c-.48,0-1,0-1.36.07V38.87c.41,0,.86.07,1.36.07h2.31a12.6,12.6,0,0,0,.07-1.67Z"/><path class="cls-3" d="M298.32,45.28a15.75,15.75,0,0,0,.07,1.71H296.7a14.67,14.67,0,0,0,.09-1.72V40.89c0-.51,0-.55,0-1.63a9.28,9.28,0,0,1-1.09,1.59,9.36,9.36,0,0,0-.68-1.75,11,11,0,0,0,2.24-3.77,9.51,9.51,0,0,0,.54-2l1.61.56c0,.15-.14.44-.29.88a15.41,15.41,0,0,1-.85,2.16ZM299.1,36a7,7,0,0,0,1.21.08h7.15a8.58,8.58,0,0,0,1.38-.09V37.5a13,13,0,0,0-1.38-.07h-7.15a7.51,7.51,0,0,0-1.21.07Zm2.27,11h-1.58a12.74,12.74,0,0,0,.07-1.36V43.57a9.74,9.74,0,0,0-.06-1.27c.31,0,.71.05,1.2.05h5.57c.57,0,.92,0,1.25-.05a9,9,0,0,0-.06,1.25v2.06a9.7,9.7,0,0,0,.07,1.38h-1.61v-.68h-4.85Zm6.39-7.46a9.07,9.07,0,0,0-1.15-.06H301a7.27,7.27,0,0,0-1,.06V38.15a6.9,6.9,0,0,0,1,.06h5.61a9.7,9.7,0,0,0,1.16-.06Zm0,2.07a9.29,9.29,0,0,0-1.13-.06H301a6.72,6.72,0,0,0-1,.06V40.22a7,7,0,0,0,1,.06h5.62a9.18,9.18,0,0,0,1.15-.06Zm0-6.27a13.92,13.92,0,0,0-1.44-.06h-4.95a11.25,11.25,0,0,0-1.32.06V33.93a9.84,9.84,0,0,0,1.45.09h4.7a10.26,10.26,0,0,0,1.56-.09Zm-1.54,9.59V43.7h-4.85v1.23Z"/><path class="cls-3" d="M312,41.44a12.28,12.28,0,0,0-1.57.08v-1.6A8.11,8.11,0,0,0,312,40h9.62a8,8,0,0,0,1.55-.09v1.6a12.61,12.61,0,0,0-1.55-.08h-2.7v3.34c0,.36.19.42,1.41.42s1.42-.09,1.52-.4a4.5,4.5,0,0,0,.14-1.25V43.3a5.23,5.23,0,0,0,1.51.46c-.06,1.46-.24,2.11-.68,2.48s-1,.44-2.9.44c-2.21,0-2.63-.21-2.63-1.26v-4h-1.62a5.76,5.76,0,0,1-.75,2.79c-.71,1.26-1.65,1.91-4,2.82a7.28,7.28,0,0,0-.89-1.52,9.53,9.53,0,0,0,2.23-.85A3.36,3.36,0,0,0,314,42.23c0-.24.06-.38.1-.79Zm3.83-6.93a5.67,5.67,0,0,0-.08-1.08h1.8a5.51,5.51,0,0,0-.07,1.08v.35h4.07c.74,0,1.13,0,1.62-.06a8.43,8.43,0,0,0-.05,1.12v1.2a9.07,9.07,0,0,0,.05,1.13h-1.58v-2H312v2h-1.6a7.25,7.25,0,0,0,.08-1.14V35.92a8.67,8.67,0,0,0-.06-1.12c.47,0,.88.06,1.6.06h3.78Zm-3.3,2.84a8.62,8.62,0,0,0,1.4.08h5.75a8.84,8.84,0,0,0,1.41-.08v1.58a8.92,8.92,0,0,0-1.41-.08h-5.75a8.7,8.7,0,0,0-1.4.08Z"/><path class="cls-3" d="M327.55,35.68a17.41,17.41,0,0,0-2,.1V34c.56.05,1.15.08,2,.08H335a13.85,13.85,0,0,0,1.6-.07l1,1.13c-.28.28-.33.32-.59.56a22,22,0,0,1-4.67,3.61v6c0,1.08-.54,1.44-2.17,1.44-.56,0-.75,0-2.07-.09a7.07,7.07,0,0,0-.43-1.73,13.69,13.69,0,0,0,2.31.22c.51,0,.66-.07.66-.35V39.31a14.61,14.61,0,0,0-.07-1.47h1.3a12.77,12.77,0,0,0,3-2.16Z"/><path class="cls-4" d="M334.13,17a9.43,9.43,0,0,1-9.55,9.25H287.45A9.43,9.43,0,0,1,277.91,17a9.43,9.43,0,0,1,9.54-9.24h37.13A9.43,9.43,0,0,1,334.13,17Z"/><path class="cls-3" d="M286.82,19.18a1.57,1.57,0,0,0,.31,1,2,2,0,0,0,1.61.65c1.1,0,1.76-.5,1.76-1.32a1.13,1.13,0,0,0-.55-1,6.73,6.73,0,0,0-1.92-.54,3.84,3.84,0,0,1-1.66-.67,2.18,2.18,0,0,1-.85-1.79c0-1.53,1.23-2.52,3.13-2.52a3.27,3.27,0,0,1,2.74,1.11,3,3,0,0,1,.54,1.28l-1.58.19a1.34,1.34,0,0,0-.33-.78,1.73,1.73,0,0,0-1.37-.53c-1,0-1.61.48-1.61,1.2a1,1,0,0,0,.75,1,9.5,9.5,0,0,0,1.55.4,5.06,5.06,0,0,1,1.8.67,2.17,2.17,0,0,1,.91,1.9,2.56,2.56,0,0,1-.69,1.87,3.69,3.69,0,0,1-2.64.84,4.36,4.36,0,0,1-2.31-.58,2.55,2.55,0,0,1-1-1.25,4,4,0,0,1-.21-.92Z"/><path class="cls-3" d="M297.26,20.48a8.67,8.67,0,0,0,.09,1.43h-1.67a8.75,8.75,0,0,0,.09-1.43v-6h-1.49a10,10,0,0,0-1.5.08V13.06a10.15,10.15,0,0,0,1.49.08h4.37a10.91,10.91,0,0,0,1.62-.08v1.48a10.82,10.82,0,0,0-1.62-.08h-1.38Z"/><path class="cls-3" d="M307.46,22a8.82,8.82,0,0,0-1.42-.08H302.6c-.66,0-1,0-1.4,0a8.41,8.41,0,0,0,.09-1.45v-6a9.09,9.09,0,0,0-.09-1.42c.44,0,.73,0,1.4,0h3.33a10.86,10.86,0,0,0,1.42-.08v1.46a9.14,9.14,0,0,0-1.42-.08h-3.18v2.27h2.68a10.52,10.52,0,0,0,1.43-.08v1.45a8.16,8.16,0,0,0-1.43-.08h-2.69v2.6h3.31a9.76,9.76,0,0,0,1.41-.08Z"/><path class="cls-3" d="M308.74,21.91a8.47,8.47,0,0,0,.09-1.42v-6a9.33,9.33,0,0,0-.09-1.42c.48,0,.82,0,1.4,0h2.31a3.12,3.12,0,0,1,2.34.78,2.59,2.59,0,0,1,.69,1.9,2.83,2.83,0,0,1-.74,2,3.13,3.13,0,0,1-2.35.8h-2.1v1.84a9.79,9.79,0,0,0,.08,1.43Zm3.65-4.54A1.39,1.39,0,0,0,314,15.86a1.34,1.34,0,0,0-1.57-1.45h-2.1v3Z"/><path class="cls-3" d="M321.49,19.52a1.42,1.42,0,0,0,.51.9,2.09,2.09,0,0,0,1.34.43c1.09,0,1.78-.56,1.78-1.43a1.28,1.28,0,0,0-.62-1.16,2.89,2.89,0,0,0-1.26-.26,10.27,10.27,0,0,0-1.18.05V16.69a8.25,8.25,0,0,0,1.07,0c1.1,0,1.75-.5,1.75-1.35s-.52-1.19-1.45-1.19a1.88,1.88,0,0,0-1.21.34,1.62,1.62,0,0,0-.46.85l-1.57-.27a2.68,2.68,0,0,1,1-1.57,3.56,3.56,0,0,1,2.16-.61c1.84,0,3,.93,3,2.36a2,2,0,0,1-.76,1.62,2.72,2.72,0,0,1-1.07.43,2.32,2.32,0,0,1,1.58.74,2.12,2.12,0,0,1,.53,1.52,2.38,2.38,0,0,1-.66,1.61,3.84,3.84,0,0,1-2.71.89,3.44,3.44,0,0,1-2.8-1.05,2.86,2.86,0,0,1-.62-1.23Z"/></svg>