<svg id="レイヤー_1" data-name="レイヤー 1" xmlns="http://www.w3.org/2000/svg" viewBox="0 0 800 50"><defs><style>.cls-1{fill:none;}.cls-2{fill:#FF64A5;}.cls-3{fill:#FFF;}.cls-4{fill:#F63402;}</style></defs><rect class="cls-1" width="800" height="50"/><polygon class="cls-2" points="533.33 50 266.67 50 266.67 0 533.33 0 544.67 25 533.33 50"/><rect class="cls-2" x="266.67" width="266.67" height="50"/><path class="cls-3" d="M380.48,20c-.46,0-1,0-1.64.08V18a10.08,10.08,0,0,0,1.6.09h2.71a8.91,8.91,0,0,0,1.54-.09,8.26,8.26,0,0,0-.05,1.07,13.16,13.16,0,0,0,1.82,6.74,13.64,13.64,0,0,0,2.72,3.26,12.52,12.52,0,0,0,2.52,1.84,7.08,7.08,0,0,0-1.45,1.92,17.29,17.29,0,0,1-4.13-4,13.34,13.34,0,0,1-1.5-2.51,11,11,0,0,1-.86-2.42A14.3,14.3,0,0,1,381.33,29a16.92,16.92,0,0,1-4.22,3.85,4.87,4.87,0,0,0-1.39-1.79,13.44,13.44,0,0,0,3.41-2.67,12.42,12.42,0,0,0,2.91-5A13.52,13.52,0,0,0,382.6,20Z"/><path class="cls-3" d="M405.09,20.68a17.71,17.71,0,0,0,2.19-.09c-.06.67-.06.67-.1,2.57-.05,2.33-.22,5.2-.39,6.32-.22,1.57-.46,2.16-1,2.54a3.42,3.42,0,0,1-2,.46,20.74,20.74,0,0,1-2.6-.19,8.1,8.1,0,0,0-.47-2.06,15,15,0,0,0,2.92.34c.8,0,1.05-.3,1.24-1.44a50.45,50.45,0,0,0,.39-6.63h-4.6a14.72,14.72,0,0,1-1.55,5.66,11.9,11.9,0,0,1-4.9,4.54,5.55,5.55,0,0,0-1.41-1.77,9,9,0,0,0,4.8-4.23,12.66,12.66,0,0,0,1.07-4.2h-3a17.61,17.61,0,0,0-2.11.1v-2a14,14,0,0,0,2.16.12h3c0-.68,0-.85,0-1.74a8.75,8.75,0,0,0-.1-1.64H401a20.39,20.39,0,0,0-.19,3.38Z"/><path class="cls-3" d="M422.81,27.14a6.22,6.22,0,0,0-1.13,1.6,12.68,12.68,0,0,1-4.09-4.32,7.6,7.6,0,0,1-.82,1.61,9.74,9.74,0,0,1-3.23,3,6.46,6.46,0,0,0-1.09-1.43v3.3a13.35,13.35,0,0,0,.09,2h-2.09a14.88,14.88,0,0,0,.12-2.05V21.19a15.2,15.2,0,0,0-.07-1.65,15.61,15.61,0,0,0,2,.09h4.16c0-.4,0-.63,0-.92a8.68,8.68,0,0,0-.1-1.5h2.12a5,5,0,0,0-.1.85c0,.24,0,.24-.05.94,0,.35,0,.35,0,.63h4.33a14.26,14.26,0,0,0,1.94-.09,14.84,14.84,0,0,0-.07,1.65v9.74c0,.71-.05,1-.25,1.22-.38.48-1,.61-2.59.61-.46,0-1,0-1.64,0a6.26,6.26,0,0,0-.53-1.93,15.57,15.57,0,0,0,2.21.18c.83,0,.92-.05.92-.54Zm-10.36.27a7.83,7.83,0,0,0,2.83-2.55,8.69,8.69,0,0,0,1.2-3.54h-4Zm5.88-6.09c-.05.43-.06.52-.11.82A9.77,9.77,0,0,0,420.14,25a11.24,11.24,0,0,0,2.67,2V21.32Z"/><path class="cls-3" d="M429.5,28.18c-.61.34-.93.51-1.81.95a5.58,5.58,0,0,0-.89-1.67,22.82,22.82,0,0,0,3.84-1.95,16.9,16.9,0,0,0,2.26-1.84,6.44,6.44,0,0,0,.87-1h1.73a10.56,10.56,0,0,0,3.37,3,20.77,20.77,0,0,0,3.71,1.66,5.61,5.61,0,0,0-.87,1.82,18.37,18.37,0,0,1-1.94-1v3.2a10.38,10.38,0,0,0,.1,1.68H438v-.73h-6.66V33H429.4a12.35,12.35,0,0,0,.1-1.7Zm4-9.88a5.15,5.15,0,0,0-.09-1.07h2.09a4.43,4.43,0,0,0-.1,1.07v.22h4.73c.68,0,1.26,0,1.89-.07a8,8,0,0,0-.07,1.24V21a8.52,8.52,0,0,0,.07,1.28h-1.84v-2H429.11v2h-1.85a7.42,7.42,0,0,0,.09-1.28V19.69c0-.44,0-.83-.07-1.24.61.05,1.19.07,1.87.07h4.35Zm-.09,3a13.06,13.06,0,0,1-2.36,2.24A13.92,13.92,0,0,1,428.64,25a6.58,6.58,0,0,0-1.23-1.43,11.79,11.79,0,0,0,2.23-1.14,9.52,9.52,0,0,0,2.26-2Zm-2.1,9.26H438V28.38h-6.66Zm6.2-3.82a11.78,11.78,0,0,1-2.84-2.62,14.32,14.32,0,0,1-2.92,2.62Zm-.37-6.39a11.23,11.23,0,0,0,4.81,3A8.08,8.08,0,0,0,441,25a13.34,13.34,0,0,1-5.3-3.67Z"/><path class="cls-3" d="M451.18,27.63c-1,2.19-2.06,3.2-3.45,3.2-1.94,0-3.33-2-3.33-4.71a7.3,7.3,0,0,1,1.87-4.95,7.62,7.62,0,0,1,5.84-2.38c4.08,0,6.74,2.48,6.74,6.31a6.55,6.55,0,0,1-4.14,6.34,10.79,10.79,0,0,1-2.66.71,5.57,5.57,0,0,0-1-2,9,9,0,0,0,3.38-.93A4.76,4.76,0,0,0,456.75,25a4.2,4.2,0,0,0-2.09-3.77A3.55,3.55,0,0,0,453,20.7,24.86,24.86,0,0,1,451.18,27.63Zm-2.5-6.08a5.68,5.68,0,0,0-2.31,4.59c0,1.39.59,2.49,1.34,2.49.56,0,1.14-.71,1.75-2.17a22.12,22.12,0,0,0,1.41-5.75A4.36,4.36,0,0,0,448.68,21.55Z"/><path class="cls-3" d="M466.24,30.5a12.56,12.56,0,0,0,.05,1.31h-1.56v-.74h-1.21v1.59h-1.7a12.62,12.62,0,0,0,.1-1.75v-3.5c0-.34,0-.85.05-1.31a5.33,5.33,0,0,1-.91,1.55,7.2,7.2,0,0,0-.65-2.11A10.33,10.33,0,0,0,462.3,22a11.91,11.91,0,0,0,.54-2.43h-.37a8.93,8.93,0,0,0-1.45.09V17.79a11.12,11.12,0,0,0,1.63.1h2a11.08,11.08,0,0,0,1.64-.1v1.82a7,7,0,0,0-1-.07h-.66a19.93,19.93,0,0,1-1,3.74h1.66a10.2,10.2,0,0,0,1-.05c0,.36-.05.75-.05,1.26v.37a11.56,11.56,0,0,0,3-4.47h-1v1.73h-1.68a7.73,7.73,0,0,0,.07-1.1V19.57a5.78,5.78,0,0,0,0-.85,7.6,7.6,0,0,0,1.24.05h2a15.87,15.87,0,0,0,.36-1.66l1.92.24c0,.12-.18.59-.44,1.42h3.09a9.26,9.26,0,0,0,1.5-.08,12.41,12.41,0,0,0,0,1.26v1c0,.48,0,.75,0,1.11h-1.78V20.39h-3.37a16,16,0,0,1-1.19,2.38h1.63a8.91,8.91,0,0,0,.7-1.85l1.66.35a9.5,9.5,0,0,1-.64,1.5h1.22a9.82,9.82,0,0,0,1.41-.07v1.63a12,12,0,0,0-1.36-.06H473v1.22h1.26a9.6,9.6,0,0,0,1.43-.07V27a12.08,12.08,0,0,0-1.41-.07H473v1.24h1.26a10.14,10.14,0,0,0,1.43-.06v1.53a11.74,11.74,0,0,0-1.41-.07H473v1.24h1.67a9.47,9.47,0,0,0,1.6-.09v1.72a12.67,12.67,0,0,0-1.64-.1h-5.3v.76h-1.8a13.62,13.62,0,0,0,.1-1.9V26.9q0-1,0-1.17a5.55,5.55,0,0,1-.76.93,6.94,6.94,0,0,0-.63-1.1Zm-2.72-1.08h1.21V24.91h-1.21Zm7.82-3.93V24.27h-2.06v1.22Zm-2.06,2.63h2.06V26.88h-2.06Zm0,2.64h2.06V29.52h-2.06Z"/><path class="cls-3" d="M477.85,20.19a8.16,8.16,0,0,0,1.36.08h3.27a8.78,8.78,0,0,0,1.36-.07v1.74a11.05,11.05,0,0,0-1.3-.05h-3.33a11,11,0,0,0-1.36.06Zm.56-2.4a7.56,7.56,0,0,0,1.38.08h2.26a7.62,7.62,0,0,0,1.38-.08v1.7a11.11,11.11,0,0,0-1.38-.07h-2.26a10.9,10.9,0,0,0-1.38.07Zm4.93,13.67a8,8,0,0,0,.07,1.3H481.8v-.59h-1.69V33h-1.7c0-.56.09-1.12.09-1.66V28.82a11.54,11.54,0,0,0-.07-1.34,9.39,9.39,0,0,0,1.33.07h2.48a9.17,9.17,0,0,0,1.15-.05,10.33,10.33,0,0,0-.05,1.22v2.12a9.12,9.12,0,0,0,1.06-3.92l1.46.32a15.61,15.61,0,0,1-1.14,4.66l-1.38-.82Zm-4.88-8.74a9.75,9.75,0,0,0,1.08.05h2.8a8,8,0,0,0,1-.05V24.3a10.35,10.35,0,0,0-1-.05h-2.8a9.49,9.49,0,0,0-1.08.05Zm0,2.38a9.75,9.75,0,0,0,1.08,0h2.78a8.14,8.14,0,0,0,1.06,0v1.58a9.55,9.55,0,0,0-1.07-.05h-2.79a10.32,10.32,0,0,0-1.06.05Zm1.6,5.57h1.74V29h-1.74Zm4.8-10.35c.95.31,1.29.44,1.93.7a5.9,5.9,0,0,0,.28-1.38h-1.13a12.12,12.12,0,0,0-1.82.09v-1.8A16.28,16.28,0,0,0,486,18h5.4A13.42,13.42,0,0,0,493,18c0,.27,0,.29-.1,1.48a27.55,27.55,0,0,1-.46,4.25c-.31,1.34-.78,1.7-2.18,1.7a11.9,11.9,0,0,1-1.34-.07,6.51,6.51,0,0,0-.42-1.7l.1,0a8.81,8.81,0,0,0-.95-.57,8.35,8.35,0,0,1-3.13,3,5.91,5.91,0,0,0-1.19-1.36,6.14,6.14,0,0,0,2.86-2.34c-.72-.31-1-.44-2-.78Zm2.95,10.34c0,.39.09.44.73.44,1,0,1.19-.05,1.31-.31a6.47,6.47,0,0,0,.19-1.85,6.13,6.13,0,0,0,1.58.53c-.19,2.92-.49,3.24-2.94,3.24-2.09,0-2.51-.2-2.51-1.25V28a10.82,10.82,0,0,0-.09-1.25h1.82a4.62,4.62,0,0,0-.09,1.08Zm.16-6A14.46,14.46,0,0,1,490.6,27l-1.27,1.1a10.45,10.45,0,0,0-2.57-2.52Zm.8-5a9.48,9.48,0,0,1-.48,2.06c.49.25.71.37,1.43.76L489,23.72a6.19,6.19,0,0,0,.93.07c.53,0,.7-.14.85-.73a16.7,16.7,0,0,0,.34-3.42Zm3.33,7.12a20.63,20.63,0,0,1,1.87,4l-1.45.88a12.87,12.87,0,0,0-1.8-4.11Z"/><path class="cls-3" d="M364.57,25a10.91,10.91,0,0,1-11.05,10.7h-43A10.91,10.91,0,0,1,299.49,25a10.91,10.91,0,0,1,11.05-10.7h43A10.91,10.91,0,0,1,364.57,25Z"/><path class="cls-4" d="M309.8,27.48a1.88,1.88,0,0,0,.36,1.12,2.24,2.24,0,0,0,1.86.75c1.28,0,2-.57,2-1.53a1.3,1.3,0,0,0-.63-1.17,8.11,8.11,0,0,0-2.22-.62,4.65,4.65,0,0,1-1.93-.78,2.51,2.51,0,0,1-1-2.07c0-1.77,1.43-2.92,3.62-2.92a3.77,3.77,0,0,1,3.18,1.29,3.36,3.36,0,0,1,.62,1.48l-1.82.21a1.7,1.7,0,0,0-.38-.9,2,2,0,0,0-1.6-.61c-1.11,0-1.86.56-1.86,1.39a1.22,1.22,0,0,0,.87,1.16,11.44,11.44,0,0,0,1.8.46,5.41,5.41,0,0,1,2.07.78,2.49,2.49,0,0,1,1.06,2.19,3,3,0,0,1-.8,2.17,4.23,4.23,0,0,1-3.05,1,5.1,5.1,0,0,1-2.68-.67,3,3,0,0,1-1.12-1.45,3.89,3.89,0,0,1-.24-1.06Z"/><path class="cls-4" d="M321.89,29a10.09,10.09,0,0,0,.11,1.66h-1.93a10.27,10.27,0,0,0,.1-1.66V22h-1.72a13.38,13.38,0,0,0-1.75.09V20.4a13.53,13.53,0,0,0,1.74.09h5.05a14,14,0,0,0,1.87-.09v1.71a13.88,13.88,0,0,0-1.87-.09h-1.6Z"/><path class="cls-4" d="M333.7,30.73a11.54,11.54,0,0,0-1.65-.09h-4c-.77,0-1.11,0-1.62,0a11.11,11.11,0,0,0,.1-1.68V22.1a12.29,12.29,0,0,0-.1-1.65c.51,0,.84,0,1.62,0h3.85a14.23,14.23,0,0,0,1.64-.09v1.68a11.87,11.87,0,0,0-1.64-.09h-3.68v2.63h3.1a12.13,12.13,0,0,0,1.66-.09V26.2a10.76,10.76,0,0,0-1.66-.09h-3.11v3h3.83A12.87,12.87,0,0,0,333.7,29Z"/><path class="cls-4" d="M335.19,30.64a9.86,9.86,0,0,0,.1-1.64V22.1a11,11,0,0,0-.1-1.65c.55,0,.94,0,1.62,0h2.66a3.63,3.63,0,0,1,2.72.9,3,3,0,0,1,.79,2.2,3.29,3.29,0,0,1-.85,2.35,3.64,3.64,0,0,1-2.72.91H337V29a9.78,9.78,0,0,0,.11,1.66Zm4.22-5.25a1.61,1.61,0,0,0,1.81-1.75,1.71,1.71,0,0,0-.42-1.22,1.73,1.73,0,0,0-1.39-.46H337v3.43Z"/><path class="cls-4" d="M349.93,30.64a11.66,11.66,0,0,0-1.65.07,7,7,0,0,1,.33-1.64,6.41,6.41,0,0,1,1.75-2.5A17.93,17.93,0,0,1,352.47,25c1.17-.8,1.53-1.22,1.53-1.87,0-.87-.68-1.41-1.76-1.41a1.82,1.82,0,0,0-1.62.75,2.43,2.43,0,0,0-.4,1.18l-1.82-.22a3.85,3.85,0,0,1,.88-2,3.71,3.71,0,0,1,2.92-1.14c2.23,0,3.61,1.08,3.61,2.82a2.59,2.59,0,0,1-.91,2,15.2,15.2,0,0,1-2.14,1.56A12,12,0,0,0,351.24,28a3.21,3.21,0,0,0-.73,1.15h3.58A14.09,14.09,0,0,0,356,29v1.68c-.6,0-1.11-.08-1.93-.08Z"/><polygon class="cls-3" points="533 0 544 25 533 50 535 50 546 25 535 0 533 0"/></svg>