<svg id="レイヤー_1" data-name="レイヤー 1" xmlns="http://www.w3.org/2000/svg" viewBox="0 0 380 54"><defs><style>.cls-1{fill:none;}.cls-2{fill:#FF64A5;}.cls-3{fill:#FFF;}.cls-4{fill:#F63402;}</style></defs><rect class="cls-1" width="380" height="54"/><polygon class="cls-2" points="122.59 54 0 54 0 0 122.59 0 134.83 27 122.59 54"/><path class="cls-3" d="M13.77,38.25a21,21,0,0,1-1.44,5.57l-1.52-.77A16.74,16.74,0,0,0,12.22,38ZM14.59,45a18.42,18.42,0,0,1-2.65,1.62,5.16,5.16,0,0,0-1.1-1.4,18.64,18.64,0,0,0,3.75-2.18V38.13a11.22,11.22,0,0,0-.08-1.49h1.77a10.85,10.85,0,0,0-.09,1.45v3.63a21.19,21.19,0,0,0,3.15-3.85A13.64,13.64,0,0,0,21,34.3l1.69.68a9.26,9.26,0,0,0-.57,1.13,25.38,25.38,0,0,1-3.69,5.58,16.18,16.18,0,0,1-2.22,2.11v1c0,.37.39.47,1.78.47s1.81-.1,2-.41a7.37,7.37,0,0,0,.35-2.78,5.89,5.89,0,0,0,1.56.56c-.32,3.86-.56,4.1-4,4.1-2.68,0-3.29-.3-3.29-1.57Zm.84-11.68a21.69,21.69,0,0,1,4.29,2.1l-1,1.41a17.12,17.12,0,0,0-4.3-2.25Zm7,4.77a29.65,29.65,0,0,1,2.26,5.52l-1.56.84A21.9,21.9,0,0,0,21,38.82Z"/><path class="cls-3" d="M30.25,41.07a9.09,9.09,0,0,0,.54-.93H28.56c-.76,0-1.25,0-1.7.06a13.24,13.24,0,0,0,.06-1.42v-1a15,15,0,0,0-.06-1.5,12.67,12.67,0,0,0,1.63.07h1.6v-.92H27.65c-.69,0-1.23,0-1.69.07V33.93a13.47,13.47,0,0,0,1.81.09H37.1a12.94,12.94,0,0,0,1.82-.09v1.56c-.47,0-1-.07-1.7-.07H34.59v.92H36.3a12,12,0,0,0,1.64-.07,11.78,11.78,0,0,0-.06,1.5v1c0,.74,0,1.08,0,1.44a15.22,15.22,0,0,0-1.65-.06H32.55c-.31.55-.35.64-.53.93h5.19a9,9,0,0,0,1.7-.09v1.53a15.88,15.88,0,0,0-1.7-.08H35.88a6.94,6.94,0,0,1-1.33,1.91,39.79,39.79,0,0,1,4,1.43l-1,1.35-.85-.38a28.3,28.3,0,0,0-3.49-1.38A14.37,14.37,0,0,1,26.58,47a5.51,5.51,0,0,0-.66-1.5h.32a14.23,14.23,0,0,0,4.93-.72c-1.7-.45-2-.51-3.43-.87a10.4,10.4,0,0,0,1.45-1.44H27.62a15.54,15.54,0,0,0-1.69.08V41a11.41,11.41,0,0,0,1.69.09Zm-1.78-3.54v1.4h1.62v-1.4ZM31,42.43a8.13,8.13,0,0,1-.7.77c.51.15.51.15,1.66.41.16,0,.37.09.88.23a4.34,4.34,0,0,0,1.28-1.41Zm.52-6.09h1.6v-.92h-1.6Zm0,2.59h1.6v-1.4h-1.6Zm3.05,0h1.72v-1.4H34.59Z"/><path class="cls-3" d="M46.19,40.83H42.71a13.39,13.39,0,0,0-1.35.06V39.62a12.4,12.4,0,0,0,1.38.05h3.45v-.55H43.08c-.53,0-.89,0-1.23,0,0-.31,0-.62,0-1v-1c0-.41,0-.68,0-1,.38,0,.69,0,1.25,0h3.09v-.55h-4a16.57,16.57,0,0,0-1.72.08V34.3a13.47,13.47,0,0,0,1.81.09h3.93a5.89,5.89,0,0,0-.08-1h1.77a4.1,4.1,0,0,0-.1,1H51.9a13.57,13.57,0,0,0,1.81-.09v1.45A16.43,16.43,0,0,0,52,35.67H47.78v.55H51.1c.55,0,.88,0,1.23,0a9.55,9.55,0,0,0,0,1v1a8.83,8.83,0,0,0,0,1c-.32,0-.71,0-1.18,0H47.78v.55h3.29c.86,0,1.16,0,1.57,0a8.79,8.79,0,0,0,0,1.34v.51a9,9,0,0,0,1.28-.07V42.8a9.44,9.44,0,0,0-1.28-.07v.85a10.8,10.8,0,0,0,.08,1.59H51v-.58H47.78v.83c0,1.32-.37,1.6-2.16,1.6-.35,0-.94,0-1.41-.06a4.25,4.25,0,0,0-.45-1.46,16.34,16.34,0,0,0,1.86.14c.46,0,.57-.08.57-.34v-.71H42.74a9.65,9.65,0,0,0-1.45.08V43.3a9.67,9.67,0,0,0,1.39.06h3.51v-.63H42a10.36,10.36,0,0,0-1.61.07V41.41a9.91,9.91,0,0,0,1.58.07h4.24Zm-2.74-3.46V38h2.74v-.6Zm4.33.6h2.95v-.6H47.78ZM51,41.48v-.65H47.78v.65Zm-3.24,1.88H51v-.63H47.78Z"/><path class="cls-3" d="M56.25,36.17a8,8,0,0,0-1,0V34.64a7.46,7.46,0,0,0,1.26.07h1.88a11.48,11.48,0,0,0,1.16-.06v1.57a7.29,7.29,0,0,0-1,0h-.29v5.91c.51-.22.8-.35,1.54-.73v1.58a28.24,28.24,0,0,1-4.07,1.8l-.29.13L55,43.18a8.68,8.68,0,0,0,1.7-.49V36.17Zm5.16-.69c-.53,0-1.06,0-1.56.05V34a12.12,12.12,0,0,0,1.63.09h5.25A9.64,9.64,0,0,0,68.32,34v1.6a13.08,13.08,0,0,0-1.54-.07h-2c-.16.36-.3.64-.46,1h2.6l.79,0c0,.34,0,.76,0,1.29v5a12.5,12.5,0,0,0,.06,1.47,1.32,1.32,0,0,1-.16,0l-1.15,0h-.81a8.11,8.11,0,0,0,3.31,1.44,7.53,7.53,0,0,0-1,1.44,11.36,11.36,0,0,1-3.56-1.94l1-.94H61.89l1.16.94a9.88,9.88,0,0,1-3.79,2,6.58,6.58,0,0,0-1-1.41,7.33,7.33,0,0,0,3.48-1.5h-.38a11.76,11.76,0,0,0-1.18.05,12.72,12.72,0,0,0,.06-1.46v-5c0-.47,0-1.05-.06-1.34a11.83,11.83,0,0,0,1.22,0h1.19a9.71,9.71,0,0,0,.44-1Zm.36,3.11h4.32v-.85H61.77Zm0,2.07h4.32v-.85H61.77Zm0,2.16h4.32v-.9H61.77Z"/><path class="cls-3" d="M76.09,42.38c-.84,1.89-1.78,2.76-3,2.76-1.67,0-2.88-1.71-2.88-4.07a6.25,6.25,0,0,1,1.62-4.27,6.58,6.58,0,0,1,5.05-2.06c3.52,0,5.81,2.14,5.81,5.45a5.67,5.67,0,0,1-3.57,5.48,9.5,9.5,0,0,1-2.3.61,4.72,4.72,0,0,0-.9-1.72,7.82,7.82,0,0,0,2.92-.8,4.11,4.11,0,0,0,2-3.67,3.64,3.64,0,0,0-1.8-3.26,3.07,3.07,0,0,0-1.48-.44A21.46,21.46,0,0,1,76.09,42.38Zm-2.16-5.26a4.92,4.92,0,0,0-2,4c0,1.21.52,2.16,1.16,2.16.49,0,1-.61,1.52-1.88a19.38,19.38,0,0,0,1.21-5A3.71,3.71,0,0,0,73.93,37.12Z"/><path class="cls-3" d="M88.44,35.74c-.4,0-.84,0-1.41.07V34.05a8.77,8.77,0,0,0,1.38.07h2.33a8,8,0,0,0,1.34-.07A6.18,6.18,0,0,0,92,35a11.3,11.3,0,0,0,1.58,5.81A11.7,11.7,0,0,0,96,43.61a10.66,10.66,0,0,0,2.18,1.59,6,6,0,0,0-1.25,1.66,14.89,14.89,0,0,1-3.57-3.46A11.11,11.11,0,0,1,92,41.23a9.87,9.87,0,0,1-.75-2.08,12.24,12.24,0,0,1-2.1,4.43,14.62,14.62,0,0,1-3.64,3.32,4,4,0,0,0-1.2-1.54,11.48,11.48,0,0,0,3-2.31,11,11,0,0,0,2.51-4.34,11.91,11.91,0,0,0,.48-3Z"/><path class="cls-3" d="M109.7,36.37a15.76,15.76,0,0,0,1.89-.07,19.29,19.29,0,0,0-.09,2.21c0,2-.19,4.5-.33,5.47-.19,1.35-.4,1.86-.86,2.18a2.87,2.87,0,0,1-1.74.4,16.53,16.53,0,0,1-2.25-.16,7,7,0,0,0-.41-1.78,13.08,13.08,0,0,0,2.53.3c.69,0,.91-.27,1.07-1.25a42.56,42.56,0,0,0,.33-5.73h-4a12.64,12.64,0,0,1-1.34,4.89,10.21,10.21,0,0,1-4.23,3.92,5.16,5.16,0,0,0-1.21-1.53,7.74,7.74,0,0,0,4.13-3.65,10.68,10.68,0,0,0,.93-3.63H101.6a15.35,15.35,0,0,0-1.83.09V36.27a13.34,13.34,0,0,0,1.87.1h2.61c0-.59,0-.73,0-1.5a7.52,7.52,0,0,0-.09-1.42h2a17.17,17.17,0,0,0-.17,2.92Z"/><path class="cls-3" d="M64.44,17a9.42,9.42,0,0,1-9.54,9.25H17.77A9.42,9.42,0,0,1,8.23,17a9.42,9.42,0,0,1,9.54-9.24H54.9A9.42,9.42,0,0,1,64.44,17Z"/><path class="cls-4" d="M17.13,19.18a1.64,1.64,0,0,0,.31,1,2,2,0,0,0,1.61.65c1.1,0,1.76-.5,1.76-1.32a1.13,1.13,0,0,0-.55-1,6.73,6.73,0,0,0-1.92-.54,4,4,0,0,1-1.66-.67,2.18,2.18,0,0,1-.85-1.79c0-1.53,1.24-2.52,3.13-2.52a3.25,3.25,0,0,1,2.74,1.11,3,3,0,0,1,.54,1.28l-1.57.19a1.41,1.41,0,0,0-.33-.78A1.75,1.75,0,0,0,19,14.21c-1,0-1.61.48-1.61,1.2a1,1,0,0,0,.75,1,9.5,9.5,0,0,0,1.55.4,5,5,0,0,1,1.8.67,2.17,2.17,0,0,1,.91,1.9,2.56,2.56,0,0,1-.69,1.87,3.64,3.64,0,0,1-2.63.84,4.37,4.37,0,0,1-2.32-.58,2.55,2.55,0,0,1-1-1.25,4,4,0,0,1-.2-.92Z"/><path class="cls-4" d="M27.57,20.48a9.93,9.93,0,0,0,.09,1.43H26a10,10,0,0,0,.09-1.43v-6H24.6a10.11,10.11,0,0,0-1.51.08V13.06a10.3,10.3,0,0,0,1.5.08H29a10.91,10.91,0,0,0,1.62-.08v1.48A10.82,10.82,0,0,0,29,14.46H27.57Z"/><path class="cls-4" d="M37.77,22a8.74,8.74,0,0,0-1.42-.08H32.91c-.66,0-1,0-1.4,0a8.41,8.41,0,0,0,.09-1.45v-6a9.09,9.09,0,0,0-.09-1.42c.44,0,.73,0,1.4,0h3.33a10.86,10.86,0,0,0,1.42-.08v1.46a9.14,9.14,0,0,0-1.42-.08H33.07v2.27h2.67a10.67,10.67,0,0,0,1.44-.08v1.45A8.22,8.22,0,0,0,35.74,18H33.06v2.6h3.3a9.67,9.67,0,0,0,1.41-.08Z"/><path class="cls-4" d="M39.06,21.91a9.68,9.68,0,0,0,.09-1.42v-6a10.82,10.82,0,0,0-.09-1.42c.47,0,.81,0,1.4,0h2.3a3.13,3.13,0,0,1,2.35.78,2.58,2.58,0,0,1,.68,1.9,2.79,2.79,0,0,1-.74,2,3.13,3.13,0,0,1-2.35.8H40.6v1.84a8.45,8.45,0,0,0,.09,1.43Zm3.64-4.54a1.39,1.39,0,0,0,1.57-1.51,1.47,1.47,0,0,0-.37-1.06,1.51,1.51,0,0,0-1.2-.39H40.6v3Z"/><path class="cls-4" d="M53,21.91a8.67,8.67,0,0,0,.09-1.43V14.41H52.6a10.84,10.84,0,0,0-1.13.06v-1.4a5.61,5.61,0,0,0,1.1.07h1a7.16,7.16,0,0,0,1.13-.06,15.73,15.73,0,0,0-.09,1.82v5.58a8.75,8.75,0,0,0,.09,1.43Z"/><polygon class="cls-3" points="122 0 133.85 27 122 54 124.15 54 136 27 124.15 0 122 0"/></svg>