<svg id="レイヤー_1" data-name="レイヤー 1" xmlns="http://www.w3.org/2000/svg" viewBox="0 0 800 50"><defs><style>.cls-1{fill:none;}.cls-2{fill:#FF64A5;}.cls-3{fill:#FFF;}.cls-4{fill:#F63402;}</style></defs><rect class="cls-1" width="800" height="50"/><polygon class="cls-2" points="266.66 50 0 50 0 0 266.66 0 278 25 266.66 50"/><path class="cls-3" d="M101.33,22.85a25.07,25.07,0,0,1-1.66,6.45l-1.77-.89a18.92,18.92,0,0,0,1.63-5.9Zm1,7.86a21.88,21.88,0,0,1-3.07,1.87A5.77,5.77,0,0,0,97.93,31a21.59,21.59,0,0,0,4.35-2.53V22.72a12,12,0,0,0-.1-1.74h2.06a12.81,12.81,0,0,0-.1,1.69v4.2a24.5,24.5,0,0,0,3.63-4.46,15.17,15.17,0,0,0,1.91-4.13l1.95.78c-.2.36-.2.36-.66,1.31a28.63,28.63,0,0,1-4.27,6.46,18.3,18.3,0,0,1-2.56,2.45v1.19c0,.43.44.54,2,.54s2.09-.11,2.3-.47a9,9,0,0,0,.41-3.21,6.84,6.84,0,0,0,1.8.64c-.38,4.47-.65,4.74-4.61,4.74-3.11,0-3.81-.34-3.81-1.81Zm1-13.53a25.56,25.56,0,0,1,5,2.43l-1.13,1.63a19.59,19.59,0,0,0-5-2.6Zm8.09,5.52A34.29,34.29,0,0,1,114,29.09l-1.8,1a25.49,25.49,0,0,0-2.48-6.54Z"/><path class="cls-3" d="M120.41,26.12a10,10,0,0,0,.63-1.07h-2.59a17.59,17.59,0,0,0-2,.07,14.72,14.72,0,0,0,.07-1.65V22.29a16.21,16.21,0,0,0-.07-1.73,14.37,14.37,0,0,0,1.89.09h1.85V19.57H117.4c-.8,0-1.43,0-2,.09v-1.8a15.67,15.67,0,0,0,2.09.1h10.81a15.13,15.13,0,0,0,2.11-.1v1.8c-.54-.05-1.15-.09-2-.09h-3v1.08h2a13.44,13.44,0,0,0,1.9-.09,15.73,15.73,0,0,0-.06,1.73v1.16c0,.85,0,1.24.05,1.67a14.88,14.88,0,0,0-1.92-.07h-4.3c-.36.63-.41.73-.62,1.07h6a12,12,0,0,0,2-.1v1.76c-.57-.05-1.14-.08-2-.08h-1.53a8.4,8.4,0,0,1-1.54,2.21A41.12,41.12,0,0,1,130,31.56l-1.19,1.56-1-.44a37.43,37.43,0,0,0-4.05-1.6,16.61,16.61,0,0,1-7.66,1.85,6.45,6.45,0,0,0-.77-1.73h.38a16.49,16.49,0,0,0,5.71-.83c-2-.53-2.26-.6-4-1a12.59,12.59,0,0,0,1.68-1.66h-1.82c-.83,0-1.39,0-2,.08V26a14.77,14.77,0,0,0,2,.1ZM118.35,22v1.62h1.87V22Zm3,5.68a9.63,9.63,0,0,1-.82.88c.6.17.6.17,1.92.48a10.24,10.24,0,0,1,1,.27,5,5,0,0,0,1.48-1.63Zm.59-7h1.85V19.57H121.9Zm0,3h1.85V22H121.9Zm3.54,0h2V22h-2Z"/><path class="cls-3" d="M138.87,25.85h-4a14.41,14.41,0,0,0-1.56.06V24.44a13.11,13.11,0,0,0,1.59.06h4v-.64h-3.61a13.92,13.92,0,0,0-1.42.05c0-.36,0-.72,0-1.14V21.65c0-.48,0-.78,0-1.19.44,0,.8.05,1.44.05h3.59v-.65h-4.66a18.4,18.4,0,0,0-2,.1V18.28a15.57,15.57,0,0,0,2.09.1h4.56a7.4,7.4,0,0,0-.1-1.15h2a5.17,5.17,0,0,0-.12,1.15h4.78a15.57,15.57,0,0,0,2.09-.1V20a18.26,18.26,0,0,0-2-.1H140.7v.65h3.85c.64,0,1,0,1.42-.05,0,.37-.05.66-.05,1.19v1.12c0,.51,0,.76.05,1.14a13.13,13.13,0,0,0-1.36-.05H140.7v.64h3.81c1,0,1.34,0,1.82-.05a11.86,11.86,0,0,0-.05,1.55v.59a9.94,9.94,0,0,0,1.48-.08v1.61a10.43,10.43,0,0,0-1.48-.08v1a14.26,14.26,0,0,0,.08,1.84h-1.9V30.2H140.7v.95c0,1.53-.42,1.85-2.49,1.85-.41,0-1.09,0-1.64-.07a4.81,4.81,0,0,0-.52-1.68,19.42,19.42,0,0,0,2.16.15c.52,0,.66-.08.66-.39V30.2h-4a11.4,11.4,0,0,0-1.68.08V28.7a12.51,12.51,0,0,0,1.62.07h4.06V28H134a13.52,13.52,0,0,0-1.87.08V26.51a11.62,11.62,0,0,0,1.84.08h4.91Zm-3.18-4v.69h3.18v-.69Zm5,.69h3.42v-.69H140.7Zm3.76,4.06v-.74H140.7v.74Zm-3.76,2.18h3.76V28H140.7Z"/><path class="cls-3" d="M150.51,20.44a8.34,8.34,0,0,0-1.2.07V18.67a8.39,8.39,0,0,0,1.46.09h2.17c.53,0,1,0,1.35-.07v1.82a7.86,7.86,0,0,0-1.18-.07h-.34v6.85c.6-.25.94-.41,1.79-.85v1.84a34.23,34.23,0,0,1-4.71,2.07l-.34.15L149,28.57a10.58,10.58,0,0,0,2-.58V20.44Zm6-.8c-.61,0-1.22,0-1.8.07V17.87a13.93,13.93,0,0,0,1.89.11h6.08a10.12,10.12,0,0,0,1.84-.11v1.86a17,17,0,0,0-1.79-.09h-2.36c-.19.43-.34.75-.53,1.14h2.26l.75,0c.19,0,.71,0,.92-.05,0,.39-.05.88-.05,1.49V28a14,14,0,0,0,.07,1.7l-.19,0-1.33,0h-.93a9.37,9.37,0,0,0,3.82,1.66A8.24,8.24,0,0,0,164,33a13.62,13.62,0,0,1-4.13-2.24L161,29.69H157l1.34,1.09A11.52,11.52,0,0,1,154,33.05a8.13,8.13,0,0,0-1.17-1.63,8.42,8.42,0,0,0,4-1.73h-.44c-.59,0-1,0-1.36,0a16.71,16.71,0,0,0,.07-1.68V22.29c0-.54,0-1.2-.07-1.54.36,0,.6,0,1.41,0h1.38a9.85,9.85,0,0,0,.51-1.14Zm.42,3.61h5v-1h-5Zm0,2.39h5v-1h-5Zm0,2.5h5v-1h-5Z"/><path class="cls-3" d="M173.48,27.63c-1,2.19-2.06,3.2-3.45,3.2-1.94,0-3.33-2-3.33-4.71a7.3,7.3,0,0,1,1.87-4.95,7.64,7.64,0,0,1,5.85-2.38c4.07,0,6.73,2.48,6.73,6.31A6.55,6.55,0,0,1,177,31.44a11,11,0,0,1-2.67.71,5.57,5.57,0,0,0-1-2,9,9,0,0,0,3.38-.93A4.77,4.77,0,0,0,179.06,25a4.21,4.21,0,0,0-2.1-3.77,3.52,3.52,0,0,0-1.71-.51A24.86,24.86,0,0,1,173.48,27.63ZM171,21.55a5.68,5.68,0,0,0-2.31,4.59c0,1.39.59,2.49,1.34,2.49.56,0,1.14-.71,1.75-2.17a22.12,22.12,0,0,0,1.41-5.75A4.36,4.36,0,0,0,171,21.55Z"/><path class="cls-3" d="M187.78,20c-.46,0-1,0-1.63.08V18a9.94,9.94,0,0,0,1.59.09h2.71A8.91,8.91,0,0,0,192,18a8.26,8.26,0,0,0-.05,1.07,13.16,13.16,0,0,0,1.82,6.74,13.64,13.64,0,0,0,2.72,3.26A12.52,12.52,0,0,0,199,30.9a7.08,7.08,0,0,0-1.45,1.92,17.29,17.29,0,0,1-4.13-4,13.34,13.34,0,0,1-1.5-2.51,11,11,0,0,1-.86-2.42A14.13,14.13,0,0,1,188.63,29a16.92,16.92,0,0,1-4.22,3.85A4.87,4.87,0,0,0,183,31.08a13.26,13.26,0,0,0,3.41-2.67,12.42,12.42,0,0,0,2.91-5A13.52,13.52,0,0,0,189.9,20Z"/><path class="cls-3" d="M212.39,20.68a18,18,0,0,0,2.2-.09,23.31,23.31,0,0,0-.11,2.57c0,2.33-.22,5.2-.39,6.32-.22,1.57-.46,2.16-1,2.54a3.4,3.4,0,0,1-2,.46,20.74,20.74,0,0,1-2.6-.19,8.1,8.1,0,0,0-.47-2.06,15,15,0,0,0,2.92.34c.8,0,1-.3,1.24-1.44a48.74,48.74,0,0,0,.39-6.63H208a14.72,14.72,0,0,1-1.55,5.66,11.9,11.9,0,0,1-4.9,4.54,5.55,5.55,0,0,0-1.41-1.77,9,9,0,0,0,4.8-4.23A12.66,12.66,0,0,0,206,22.5h-3a17.61,17.61,0,0,0-2.11.1v-2a14,14,0,0,0,2.16.12h3c0-.68,0-.85,0-1.74a8.75,8.75,0,0,0-.1-1.64h2.26a20.39,20.39,0,0,0-.19,3.38Z"/><path class="cls-3" d="M86.88,25A10.92,10.92,0,0,1,75.82,35.7h-43A10.91,10.91,0,0,1,21.79,25,10.91,10.91,0,0,1,32.84,14.3h43A10.92,10.92,0,0,1,86.88,25Z"/><path class="cls-4" d="M32.1,27.48a1.88,1.88,0,0,0,.36,1.12,2.25,2.25,0,0,0,1.86.75c1.28,0,2-.57,2-1.53a1.31,1.31,0,0,0-.64-1.17A8.11,8.11,0,0,0,33.51,26a4.65,4.65,0,0,1-1.93-.78,2.51,2.51,0,0,1-1-2.07c0-1.77,1.43-2.92,3.62-2.92a3.77,3.77,0,0,1,3.18,1.29A3.36,3.36,0,0,1,38,23l-1.82.21a1.7,1.7,0,0,0-.38-.9,2,2,0,0,0-1.6-.61c-1.11,0-1.86.56-1.86,1.39a1.22,1.22,0,0,0,.87,1.16,11.44,11.44,0,0,0,1.8.46,5.54,5.54,0,0,1,2.08.78,2.51,2.51,0,0,1,1,2.19,3,3,0,0,1-.8,2.17,4.23,4.23,0,0,1-3,1,5.15,5.15,0,0,1-2.68-.67,3,3,0,0,1-1.12-1.45,4.31,4.31,0,0,1-.24-1.06Z"/><path class="cls-4" d="M44.19,29a10.09,10.09,0,0,0,.11,1.66H42.37a10.27,10.27,0,0,0,.1-1.66V22H40.75a13.38,13.38,0,0,0-1.75.09V20.4a13.53,13.53,0,0,0,1.74.09h5a14,14,0,0,0,1.87-.09v1.71A13.88,13.88,0,0,0,45.79,22h-1.6Z"/><path class="cls-4" d="M56,30.73a11.48,11.48,0,0,0-1.64-.09h-4c-.77,0-1.11,0-1.62,0a11.11,11.11,0,0,0,.1-1.68V22.1a12.29,12.29,0,0,0-.1-1.65c.51,0,.84,0,1.62,0h3.85a14.23,14.23,0,0,0,1.64-.09v1.68A11.87,11.87,0,0,0,54.23,22H50.55v2.63h3.1a12.13,12.13,0,0,0,1.66-.09V26.2a10.76,10.76,0,0,0-1.66-.09H50.54v3h3.83A12.87,12.87,0,0,0,56,29Z"/><path class="cls-4" d="M57.49,30.64a9.86,9.86,0,0,0,.1-1.64V22.1a11,11,0,0,0-.1-1.65c.55,0,.94,0,1.62,0h2.67a3.62,3.62,0,0,1,2.71.9,3,3,0,0,1,.79,2.2,3.29,3.29,0,0,1-.85,2.35,3.64,3.64,0,0,1-2.72.91H59.28V29a9.9,9.9,0,0,0,.1,1.66Zm4.22-5.25a1.6,1.6,0,0,0,1.81-1.75,1.71,1.71,0,0,0-.42-1.22A1.73,1.73,0,0,0,61.71,22H59.28v3.43Z"/><path class="cls-4" d="M73.68,30.64A10,10,0,0,0,73.79,29V22h-.62a11.5,11.5,0,0,0-1.31.07V20.41a6.48,6.48,0,0,0,1.27.08h1.18a9.52,9.52,0,0,0,1.3-.06,18.24,18.24,0,0,0-.1,2.1V29a10.27,10.27,0,0,0,.1,1.66Z"/><polygon class="cls-3" points="266 0 277 25 266 50 268 50 279 25 268 0 266 0"/></svg>