<svg id="レイヤー_1" data-name="レイヤー 1" xmlns="http://www.w3.org/2000/svg" viewBox="0 0 300 200"><defs><style>.cls-1{fill:#231815;}.cls-2{fill:none;}</style></defs><path class="cls-1" d="M74,106a2,2,0,0,0,.6,1.3,2.63,2.63,0,0,0,2.1.6c1.6,0,2.6-.7,2.6-1.7a1.25,1.25,0,0,0-.6-1.1,5.79,5.79,0,0,0-2.1-.7,6.64,6.64,0,0,1-2.7-.9,2.28,2.28,0,0,1-1-1.9,2.14,2.14,0,0,1,.8-1.7,4.1,4.1,0,0,1,2.8-.9,3.66,3.66,0,0,1,2.8.9,2.75,2.75,0,0,1,1,1.6l-1.4.2a1.39,1.39,0,0,0-.5-1,2.64,2.64,0,0,0-1.9-.7c-1.3,0-2.3.7-2.3,1.6a1.1,1.1,0,0,0,.6,1,6.64,6.64,0,0,0,2,.6,7.71,7.71,0,0,1,2.9,1,2.32,2.32,0,0,1,.9,1.9c0,1.8-1.5,2.9-4,2.9a4.35,4.35,0,0,1-3.6-1.4,3.51,3.51,0,0,1-.6-1.4Z"/><path class="cls-1" d="M86.05,95.2a13.4,13.4,0,0,0-.1,2v6.5l3.3-3.2a8.64,8.64,0,0,0,1.3-1.4h2.1c-.3.2-.3.2-.7.7l-.7.6-.3.3-2.5,2.3,3,3.9a14.62,14.62,0,0,0,1.6,1.9H91a9.91,9.91,0,0,0-1.1-1.7l-2.4-3.3L86,105.3v1.5a13.4,13.4,0,0,0,.1,2h-1.6a13.4,13.4,0,0,0,.1-2V97.2a13.4,13.4,0,0,0-.1-2Z"/><path class="cls-1" d="M97.55,104.2a4.3,4.3,0,0,0,.7,2.5,2.79,2.79,0,0,0,2.5,1.2,2.92,2.92,0,0,0,3-2.1l1.3.5a4,4,0,0,1-1,1.5,4.87,4.87,0,0,1-3.3,1.3c-2.8,0-4.6-2-4.6-5.1s1.8-5.1,4.4-5.1a4.28,4.28,0,0,1,4.4,3.9c0,.2.1.9.1,1.4Zm6.1-1.1a3.07,3.07,0,0,0-3.1-3,2.74,2.74,0,0,0-2.5,1.6,2.41,2.41,0,0,0-.4,1.5h6Z"/><path class="cls-1" d="M110.65,95.2a13.4,13.4,0,0,0-.1,2v9.6a13.4,13.4,0,0,0,.1,2h-1.6a13.4,13.4,0,0,0,.1-2V97.2a13.4,13.4,0,0,0-.1-2Z"/><path class="cls-1" d="M115.85,104.2a4.3,4.3,0,0,0,.7,2.5,2.79,2.79,0,0,0,2.5,1.2,2.92,2.92,0,0,0,3-2.1l1.3.5a4,4,0,0,1-1,1.5,4.87,4.87,0,0,1-3.3,1.3c-2.8,0-4.6-2-4.6-5.1s1.8-5.1,4.5-5.1a4.28,4.28,0,0,1,4.4,3.9c0,.2.1.9.1,1.4Zm6.2-1.1a3.07,3.07,0,0,0-3.1-3,2.88,2.88,0,0,0-2.6,1.6,2.41,2.41,0,0,0-.4,1.5h6.1Z"/><path class="cls-1" d="M130.15,96.5a13.4,13.4,0,0,0-.1,2v.7h.9a10.87,10.87,0,0,0,1.8-.1v1.4a10.87,10.87,0,0,0-1.8-.1h-.9v6.3a2.15,2.15,0,0,0,.2,1,1.4,1.4,0,0,0,.9.3,2.39,2.39,0,0,0,1.4-.5l.4,1.3a4.48,4.48,0,0,1-2,.4,2.47,2.47,0,0,1-1.8-.6,2.16,2.16,0,0,1-.5-1.7v-6.4H128a8.6,8.6,0,0,0-1.6.1V99.2a8.6,8.6,0,0,0,1.6.1h.7v-.7a13.4,13.4,0,0,0-.1-2h1.6Z"/><path class="cls-1" d="M135.75,104.1c0-3.1,1.9-5.1,4.8-5.1s4.8,2,4.8,5.1-1.9,5.1-4.8,5.1S135.75,107.2,135.75,104.1Zm1.4,0c0,2.4,1.3,3.9,3.4,3.9s3.4-1.5,3.4-3.9-1.3-3.9-3.4-3.9-3.4,1.4-3.4,3.9Z"/><path class="cls-1" d="M149.25,108.9a13.55,13.55,0,0,0,.2-2v-5.6a6.8,6.8,0,0,0-.2-2h1.5v1.2a2.2,2.2,0,0,1-.1.8,4.08,4.08,0,0,1,3.6-2.3,3.18,3.18,0,0,1,2.9,1.4,3.64,3.64,0,0,1,.5,2.1v4.4a13.4,13.4,0,0,0,.1,2h-1.6a13.4,13.4,0,0,0,.1-2v-4.2c0-1.6-.8-2.5-2.2-2.5a3.14,3.14,0,0,0-2.6,1.4,3.7,3.7,0,0,0-.8,1.8v3.5a13.4,13.4,0,0,0,.1,2Z"/><path class="cls-1" d="M170,110.6v.7h-9v-.7Z"/><path class="cls-1" d="M172.55,104.1c0-3.1,1.9-5.1,4.8-5.1s4.8,2,4.8,5.1-1.9,5.1-4.8,5.1S172.55,107.2,172.55,104.1Zm1.4,0c0,2.4,1.3,3.9,3.4,3.9s3.4-1.5,3.4-3.9-1.3-3.9-3.4-3.9-3.4,1.4-3.4,3.9Z"/><path class="cls-1" d="M191.85,100.6a4,4,0,0,0-1.5-.3,2.66,2.66,0,0,0-2.2,1.1,2.87,2.87,0,0,0-.7,1.8v3.7a13.4,13.4,0,0,0,.1,2h-1.5a13.4,13.4,0,0,0,.1-2v-5.6a13.4,13.4,0,0,0-.1-2h1.5v1.5a3.46,3.46,0,0,1,1-1.1,3.34,3.34,0,0,1,2.2-.6,8.75,8.75,0,0,1,1.6.2Z"/><path class="cls-1" d="M203.15,108v-.9a3.92,3.92,0,0,1-3.6,1.9c-2.8,0-4.5-1.9-4.5-5s1.7-5,4.4-5a4.18,4.18,0,0,1,3.7,1.9v-.3a3.4,3.4,0,0,1-.1-1V97.2a14.77,14.77,0,0,0-.1-2.1h1.6a13.4,13.4,0,0,0-.1,2v9.6a14.77,14.77,0,0,0,.1,2.1h-1.4Zm-6.6-4a4.52,4.52,0,0,0,.7,2.8,3.19,3.19,0,0,0,2.4,1.1c2.1,0,3.4-1.5,3.4-3.9a4,4,0,0,0-1-2.9,3.69,3.69,0,0,0-2.4-1C197.75,100.2,196.55,101.6,196.55,104Z"/><path class="cls-1" d="M210,104.2a4.3,4.3,0,0,0,.7,2.5,2.79,2.79,0,0,0,2.5,1.2,2.92,2.92,0,0,0,3-2.1l1.3.5a4,4,0,0,1-1,1.5,4.87,4.87,0,0,1-3.3,1.3c-2.8,0-4.6-2-4.6-5.1s1.8-5.1,4.5-5.1a4.28,4.28,0,0,1,4.4,3.9c0,.2.1.9.1,1.4Zm6.1-1.1a3.07,3.07,0,0,0-3.1-3,2.88,2.88,0,0,0-2.6,1.6,3.71,3.71,0,0,0-.4,1.5h6.1Z"/><path class="cls-1" d="M227.25,100.6a4,4,0,0,0-1.5-.3,2.66,2.66,0,0,0-2.2,1.1,3.59,3.59,0,0,0-.7,1.8v3.7a13.4,13.4,0,0,0,.1,2h-1.6a13.4,13.4,0,0,0,.1-2v-5.6a13.4,13.4,0,0,0-.1-2h1.5v1.5a3.46,3.46,0,0,1,1-1.1,4.1,4.1,0,0,1,2.2-.7,8.75,8.75,0,0,1,1.6.2Z"/><path class="cls-1" d="M92.9,162.4a29.59,29.59,0,0,0-5.1-4.9,17.18,17.18,0,0,1-3.1,2.9,19.82,19.82,0,0,1-3.1,1.9,4.44,4.44,0,0,0-.8-1.1,17.4,17.4,0,0,0,3.3-1.8,16.83,16.83,0,0,0,5.7-7.2l.1-.2a.1.1,0,0,1,.1-.1h-.4l-5.3.1a9.7,9.7,0,0,0-1.7.1v-1.3a5.28,5.28,0,0,0,1.3.1h.4l5.7-.1a3.4,3.4,0,0,0,1-.1l.7.7a2,2,0,0,0-.4.8,25.09,25.09,0,0,1-2.6,4.5,34.33,34.33,0,0,1,5.3,4.8Z"/><path class="cls-1" d="M105.4,153.4a11.66,11.66,0,0,1-.9,4.5,8.88,8.88,0,0,1-2.7,3.4,20.13,20.13,0,0,1-2.5,1.4,2,2,0,0,0-.8-1,9.24,9.24,0,0,0,3.4-2.1c1.5-1.4,2.2-3.2,2.3-6.2H99.8a15.39,15.39,0,0,1-2.8,3.4,3.45,3.45,0,0,0-.9-.8,11.15,11.15,0,0,0,3.4-4.4,9.75,9.75,0,0,0,.8-2.2l1.2.4c-.1.3-.2.4-.4.9a14.17,14.17,0,0,1-.8,1.8h7.4a13.4,13.4,0,0,0,2-.1v1.2h-2Z"/><path class="cls-1" d="M116.4,150.1a6.6,6.6,0,0,0-.1,1.4c-.1,4.3-.3,5.5-.9,7.1a10,10,0,0,1-2.8,4,2.84,2.84,0,0,0-1-.9,8,8,0,0,0,2.8-3.7,22.83,22.83,0,0,0,.7-6.9,3.75,3.75,0,0,0-.1-1.1Zm4-.2a6.6,6.6,0,0,0-.1,1.4l-.1,9.7a7.32,7.32,0,0,0,3-1.9,8,8,0,0,0,1.9-3.2,3.82,3.82,0,0,0,.9.9,8.89,8.89,0,0,1-3.3,4.1,10.08,10.08,0,0,1-2.3,1.2l-.5.2c-.1.1-.3.1-.4.2l-.6-.7a2.08,2.08,0,0,0,.1-1.1l.1-9.4a6.15,6.15,0,0,0-.1-1.4Z"/><path class="cls-1" d="M131,162.7a9.7,9.7,0,0,0,.1-1.7v-9.9a8.6,8.6,0,0,0-.1-1.6h1.4a9.7,9.7,0,0,0-.1,1.7v3a35.69,35.69,0,0,1,7.1,3.4l-.7,1.2a34.56,34.56,0,0,0-6-3.2c-.2-.1-.3-.2-.5-.3h0c0,.3.1.6.1.9V161a9.7,9.7,0,0,0,.1,1.7Z"/><path class="cls-1" d="M143.1,160.8a15.5,15.5,0,0,0,4.7-1.2,12,12,0,0,0,6.5-7.1,2.84,2.84,0,0,0,1,.9,13.36,13.36,0,0,1-4.9,6.1,16.46,16.46,0,0,1-6,2.4l-1,.3Zm1-9.9a22.5,22.5,0,0,1,3.9,3l-.8,1a16.14,16.14,0,0,0-3.8-3.1Z"/><path class="cls-1" d="M166.7,155.1a5.81,5.81,0,0,1,.1-1,9.39,9.39,0,0,1-1.2,1.8,21.07,21.07,0,0,1-3.8,3.5,22.61,22.61,0,0,1-2.6,1.6,3.92,3.92,0,0,0-.8-1,17.06,17.06,0,0,0,5.4-3.8,15.41,15.41,0,0,0,2.3-2.9h-5.3a10.87,10.87,0,0,0-1.8.1v-1.2a10.87,10.87,0,0,0,1.8.1h5.8v-1.6a5.7,5.7,0,0,0-.1-1.3h1.3c0,.3-.1.6-.1.9v2h2.2a8.6,8.6,0,0,0,1.6-.1v1.2h-3.7l.1,7.8a8.6,8.6,0,0,0,.1,1.6h-1.3a5.28,5.28,0,0,0,.1-1.3v-.4l-.1-5.9v-.1Z"/><path class="cls-1" d="M175.4,155.4a13.4,13.4,0,0,0,2,.1h9.3a12.1,12.1,0,0,0,1.9-.1v1.3c-.5,0-.9-.1-2-.1h-9.3a9.27,9.27,0,0,0-2,.1Z"/><path class="cls-1" d="M198.5,149.4a10.91,10.91,0,0,0-.6,1.1,4.05,4.05,0,0,1-.5.9h4.8a2.92,2.92,0,0,0,.9-.2l.9.9a4.34,4.34,0,0,0-.5,1,34.18,34.18,0,0,1-2.1,4.3,15.54,15.54,0,0,1-7.1,5.8,3.92,3.92,0,0,0-.8-1,12.89,12.89,0,0,0,3.3-1.7,11.17,11.17,0,0,0,2.8-2.5,18.31,18.31,0,0,0-3.6-2.6l.7-.8a17.18,17.18,0,0,1,3.5,2.5,19.47,19.47,0,0,0,2.2-4.6l-5.6.1a17.28,17.28,0,0,1-3.8,4.3,3.45,3.45,0,0,0-.9-.8,13.9,13.9,0,0,0,4.1-4.6,8.49,8.49,0,0,0,.9-2.2Zm5.4-.2a18.82,18.82,0,0,1,1.6,2.3l-.8.4a11.87,11.87,0,0,0-1.6-2.3Zm1.5-.7a11.22,11.22,0,0,1,1.6,2.2l-.8.4a11.87,11.87,0,0,0-1.6-2.3Z"/><path class="cls-1" d="M208.6,155.4a13.4,13.4,0,0,0,2,.1h9.3a12.1,12.1,0,0,0,1.9-.1v1.3c-.5,0-.9-.1-1.9-.1h-9.3a9.27,9.27,0,0,0-2,.1Z"/><path class="cls-1" d="M21.9,178.4a12.1,12.1,0,0,0-1.9.1v-1.1a12.1,12.1,0,0,0,1.9.1h4.5v-.1a9.15,9.15,0,0,0-.1-1.6h1.2a8.08,8.08,0,0,0-.1,1.6v.1h4.8a13.4,13.4,0,0,0,2-.1v1.1a13.4,13.4,0,0,0-2-.1H27.4v1.3h3.5a10.87,10.87,0,0,0,1.8-.1,9.7,9.7,0,0,0-.1,1.7v2.4a9.7,9.7,0,0,0,.1,1.7,10.87,10.87,0,0,0-1.8-.1H28.1a13,13,0,0,0,6.6,3.6,3.33,3.33,0,0,0-.6,1,14.62,14.62,0,0,1-3.6-1.6,13.51,13.51,0,0,1-3.2-2.6v2.9a10.87,10.87,0,0,0,.1,1.8H26.3a10.87,10.87,0,0,0,.1-1.8v-2.8a8.13,8.13,0,0,1-1.9,1.8,14.74,14.74,0,0,1-4.5,2.3,2.07,2.07,0,0,0-.6-1,13.59,13.59,0,0,0,3.9-1.7,7.94,7.94,0,0,0,2.2-1.9H23.2a12.75,12.75,0,0,0-1.9.1v-4a9.15,9.15,0,0,0-.1-1.7,10.87,10.87,0,0,0,1.8.1h3.2v-1.3Zm.7,2.2v1.5h3.9v-1.5Zm0,2.3v1.6h3.9v-1.6Zm4.8-.8h4.3v-1.5H27.4Zm0,2.4h4.3v-1.6H27.4Z"/><path class="cls-1" d="M38.8,184.6a5.7,5.7,0,0,0-1.3.1v-1.1a5.7,5.7,0,0,0,1.3.1h2v-.9a1.27,1.27,0,0,0-.1-.6h1.1c0,.2-.1.4-.1.6v.9h1.8a5.7,5.7,0,0,0,1.3-.1v1a5.7,5.7,0,0,0-1.3-.1H42a7.4,7.4,0,0,0,2.3,2,7,7,0,0,0-.6.9,7,7,0,0,1-2-2.2,7.6,7.6,0,0,0,.1,1.4V189a6.6,6.6,0,0,0,.1,1.4H40.8a6.6,6.6,0,0,0,.1-1.4v-3.6a10.34,10.34,0,0,1-3,3.6l-.6-.9a9.09,9.09,0,0,0,2.1-1.8,6.57,6.57,0,0,0,1.2-1.7Zm2.9-3.5a8.49,8.49,0,0,0,1.1-2.6l1,.3a16.27,16.27,0,0,1-1.1,2.3h1A5.7,5.7,0,0,0,45,181v1.1a5.7,5.7,0,0,0-1.3-.1H38.9a5.7,5.7,0,0,0-1.3.1V181a5.7,5.7,0,0,0,1.3.1Zm1.6-3.7a5.28,5.28,0,0,0,1.3-.1v1.1a6.6,6.6,0,0,0-1.4-.1H39.1a6.6,6.6,0,0,0-1.4.1v-1.1a6.6,6.6,0,0,0,1.4.1h1.6V177a3.75,3.75,0,0,0-.1-1.1h1.2a4.1,4.1,0,0,0-.1,1.1v.4Zm-3.7,3.5a6.67,6.67,0,0,0-.9-2.1l.8-.3a8.49,8.49,0,0,1,.9,2.2Zm11,0a7.57,7.57,0,0,0,1.5-.1V182a6.6,6.6,0,0,0-1.4-.1h-.6v7a8.6,8.6,0,0,0,.1,1.6H48.9a8.6,8.6,0,0,0,.1-1.6v-7H46.5v.6a17.91,17.91,0,0,1-.9,5.7,9.41,9.41,0,0,1-1.2,2.2,5.5,5.5,0,0,0-.9-.7c1.5-1.9,2-4.1,2-9.5a18.8,18.8,0,0,0-.1-3h.2a16,16,0,0,0,3.8-.7,5.07,5.07,0,0,0,1.5-.7l.8.9c-.1,0-.2,0-.6.2a18.35,18.35,0,0,1-4.6,1.2v2.8Z"/><path class="cls-1" d="M56.9,183.2a14.77,14.77,0,0,1,.1-2.1,14.65,14.65,0,0,1-1.7,2.4,1.46,1.46,0,0,0-.6-.9,14.08,14.08,0,0,0,3-4.6,17.23,17.23,0,0,0,.7-2.1l1.1.3a21.69,21.69,0,0,1-1.5,3.5v8.7a12.1,12.1,0,0,0,.1,1.9H56.9a12.1,12.1,0,0,0,.1-1.9v-5.2Zm4.1-3a9.7,9.7,0,0,0-1.7.1v-1.1a9.7,9.7,0,0,0,1.7.1h6.3a9.7,9.7,0,0,0,1.7-.1v1.1a9.7,9.7,0,0,0-1.7-.1H64.5v3.4h2.4a9.7,9.7,0,0,0,1.7-.1v1.1a9.15,9.15,0,0,0-1.7-.1H64.5v4.1h3.3a9.15,9.15,0,0,0,1.7-.1v1.1c-.5,0-1.1-.1-1.7-.1H60.3a9.72,9.72,0,0,0-1.8.1v-1.1a10.28,10.28,0,0,0,1.7.1h3.1v-4.1h-2a9.15,9.15,0,0,0-1.7.1v-1.1a8.6,8.6,0,0,0,1.6.1h2v-3.4Zm1.4-4.2a21.37,21.37,0,0,1,3.2,2l-.8.8a9.88,9.88,0,0,0-3.2-2.1Z"/><path class="cls-1" d="M74.2,183.3a6.43,6.43,0,0,0,1,2.4,11.21,11.21,0,0,0,.9-3.6H73.2a25.09,25.09,0,0,0,2.6-4.5H73.9a4.1,4.1,0,0,0-1.1.1v-1a4.1,4.1,0,0,0,1.1.1h1.5a4.87,4.87,0,0,0,1.2-.1l.5.6a4.88,4.88,0,0,0-.3.7c-.6,1.1-1.2,2.2-1.9,3.3h1a6.15,6.15,0,0,0,1.3-.1,3.75,3.75,0,0,1-.1.8,15.08,15.08,0,0,1-1.3,4.6c1.4,1.7,3.1,2.4,6.4,2.4,1.6,0,3.5-.1,5-.2a2,2,0,0,0-.3,1.1c-1.2,0-3.2.1-4.4.1-3.8,0-5.4-.6-7.1-2.5a11.83,11.83,0,0,1-2.2,2.8,2,2,0,0,0-.8-.8,12.27,12.27,0,0,0,2.3-2.8,21.16,21.16,0,0,1-1.1-2.1,7.93,7.93,0,0,1-.4-.9Zm7-5.5h-2a4.87,4.87,0,0,0-1.2.1V177a4.87,4.87,0,0,0,1.2.1h2a4.87,4.87,0,0,0-.1-1.2h1.1a4.87,4.87,0,0,0-.1,1.2h3.7v2.1h.1a4.87,4.87,0,0,0,1.2-.1v1a4.87,4.87,0,0,0-1.2-.1h-.1v2.2H82.2v1.4h2.6a6.6,6.6,0,0,0,1.4-.1v1a7.08,7.08,0,0,0-1.4-.1H82.3v1.4h3.3a7.57,7.57,0,0,0,1.5-.1v1c-.5,0-1-.1-1.5-.1H82.3v.4a7.57,7.57,0,0,0,.1,1.5H81.3a7.57,7.57,0,0,0,.1-1.5v-.4H78.8a6.15,6.15,0,0,0-1.4.1v-1a7.08,7.08,0,0,0,1.4.1h2.6v-1.4H79.2a5.7,5.7,0,0,0-1.3.1v-1a5.7,5.7,0,0,0,1.3.1h2.2v-1.5H79.3a4.1,4.1,0,0,0-1.1.1v-.9a4.87,4.87,0,0,0,1.2.1h2V180H78.8a7.57,7.57,0,0,0-1.5.1v-1a7.57,7.57,0,0,0,1.5.1h2.7Zm3.6,1.3v-1.3H82.1v1.3Zm-2.7,2.2h2.7v-1.4H82.1Z"/><path class="cls-1" d="M92.5,184.1v-8.3h4.2v1H93.5v7.3Z"/><path class="cls-1" d="M105.9,176.9a3,3,0,0,0-.4.8,17,17,0,0,1-2.7,3.9,12.06,12.06,0,0,1-2.4,2.1,3.45,3.45,0,0,0-.8-.9,14.35,14.35,0,0,0,4.2-4.3,7.22,7.22,0,0,0,.9-2Zm6.4,13.3c-.4-.8-.6-1.1-.9-1.7-2.8.4-5.7.7-8.8.9a11,11,0,0,0-1.8.2l-.3-1.3h2.1a30.15,30.15,0,0,0,2.5-5.1,13.09,13.09,0,0,0,.9-2.8l1.2.4v.1c-.1.1-.1.3-.3.6a57.87,57.87,0,0,1-3.1,6.7c2.4-.1,4.7-.3,7.1-.6a19.92,19.92,0,0,0-2.4-3.3l.9-.5a36.79,36.79,0,0,1,3.9,5.8Zm-3-13.8a10.14,10.14,0,0,0,1.8,3.2,17.77,17.77,0,0,0,3.5,3.2,3.92,3.92,0,0,0-.8,1,16,16,0,0,1-5.4-6.4c-.1-.2-.1-.3-.2-.4Z"/><path class="cls-1" d="M130.2,179a9.15,9.15,0,0,0,1.6-.1v1.2a8.6,8.6,0,0,0-1.6-.1h-2.9a20.41,20.41,0,0,0,.3,3.4,16.66,16.66,0,0,0,.8,3,7.55,7.55,0,0,0,1.3,2.3.85.85,0,0,0,.5.3c.4,0,.6-.9.9-2.6a2.36,2.36,0,0,0,.9.6,7.32,7.32,0,0,1-.8,2.5,1.45,1.45,0,0,1-1,.7,2.63,2.63,0,0,1-1.9-1.4,13.9,13.9,0,0,1-1.8-5.3,19.53,19.53,0,0,1-.3-3.4h-6.7a9.7,9.7,0,0,0-1.7.1V179a9.15,9.15,0,0,0,1.7.1h6.7v-1.6a6.15,6.15,0,0,0-.1-1.3h1.2a7.57,7.57,0,0,0-.1,1.5v1.4Zm-10.3,4.3a6.15,6.15,0,0,0-1.4.1v-1.1a7.57,7.57,0,0,0,1.5.1h4.1a6.15,6.15,0,0,0,1.4-.1v1.1a6.6,6.6,0,0,0-1.4-.1h-1.6v4.3a26.72,26.72,0,0,0,3.6-.9v1c-2.4.6-4.5,1.1-7.2,1.6l-.7.2-.2-1.1a13.45,13.45,0,0,0,3.5-.5v-4.5Zm10-4.7a11.23,11.23,0,0,0-2-1.8l.7-.5a16.32,16.32,0,0,1,2,1.7Z"/><path class="cls-1" d="M139.3,182.2v8.3H135v-1h3.1v-7.4Z"/><path class="cls-1" d="M151.2,180.2a4.1,4.1,0,0,0-.1,1.1c0,2.7-.5,4.3-1.6,5.6a8.89,8.89,0,0,1-4.1,2.8,4.13,4.13,0,0,0-.7-1.1,7.3,7.3,0,0,0,2.9-1.5c1.7-1.4,2.3-3,2.3-6.1a2.77,2.77,0,0,0-.1-.9h1.4Zm6.4-2a2.09,2.09,0,0,0-.4.6,10,10,0,0,1-4.7,4.6,3.45,3.45,0,0,0-.8-.9,6.44,6.44,0,0,0,2.5-1.5,10.77,10.77,0,0,0,1.8-2.4h-9a12.1,12.1,0,0,0-1.9.1v-1.2a12.1,12.1,0,0,0,1.9.1h8.6c1.1,0,1.1,0,1.4-.1Z"/><path class="cls-1" d="M166,179.5a20.08,20.08,0,0,0,.1-2.4,2,2,0,0,0-.1-.8h1.3a14.77,14.77,0,0,0-.1,2.1,3.75,3.75,0,0,1-.1,1.1h4a4.1,4.1,0,0,0,1.1-.1l.6.5a3.4,3.4,0,0,0-.1,1,52.7,52.7,0,0,1-.4,5.6c-.4,2.2-.9,2.8-2.3,2.8a6.93,6.93,0,0,1-2-.3v-.2a3.55,3.55,0,0,0-.2-1,7.79,7.79,0,0,0,2.1.4c.8,0,1-.4,1.4-2a36.42,36.42,0,0,0,.4-5.7H167a11,11,0,0,1-1.3,4.7,11.54,11.54,0,0,1-4.2,4.3,2.36,2.36,0,0,0-.8-.9,9.48,9.48,0,0,0,4.2-4.2,10.21,10.21,0,0,0,1-3.8H163a9.7,9.7,0,0,0-1.7.1v-1.2a10.28,10.28,0,0,0,1.7.1Z"/><path class="cls-1" d="M187,179a3.33,3.33,0,0,0,1.4-.1l.6.6a14.69,14.69,0,0,0-.4,1.6,9.77,9.77,0,0,1-2.9,5.8,14.75,14.75,0,0,1-4.7,2.7,4.13,4.13,0,0,0-.7-1.1,8.63,8.63,0,0,0,3.5-1.6,9,9,0,0,0,3.7-7h-8.7v2.4a4.12,4.12,0,0,0,.1,1.2h-1.3c0-.3.1-.8.1-1.2v-2.2a5.7,5.7,0,0,0-.1-1.3c.5,0,.9.1,1.4.1h3.4v-1.6a3.4,3.4,0,0,0-.1-1h1.4a3.4,3.4,0,0,0-.1,1v1.6H187Z"/><path class="cls-1" d="M192.9,187.8a15.5,15.5,0,0,0,4.7-1.2,12,12,0,0,0,6.5-7.1,2.84,2.84,0,0,0,1,.9,13.36,13.36,0,0,1-4.9,6.1,16.46,16.46,0,0,1-6,2.4l-1,.3Zm1-9.9a22.5,22.5,0,0,1,3.9,3l-.8,1a16.14,16.14,0,0,0-3.8-3.1Z"/><path class="cls-1" d="M210.4,189.7a9.7,9.7,0,0,0,.1-1.7v-9.9a8.6,8.6,0,0,0-.1-1.6h1.4a9.15,9.15,0,0,0-.1,1.7v3a35.69,35.69,0,0,1,7.1,3.4l-.7,1.2a34.56,34.56,0,0,0-6-3.2c-.2-.1-.3-.2-.5-.3h0a2.77,2.77,0,0,1,.1.9V188a9.7,9.7,0,0,0,.1,1.7Z"/><path class="cls-1" d="M222.4,184.4a1,1,0,0,0,.5-.4,21.58,21.58,0,0,0,2.7-3.3c.9-1.2,1.3-1.5,2-1.5s.9.2,2.1,1.5a45.11,45.11,0,0,0,5.5,5.2,11.32,11.32,0,0,0,1.3,1l-.6,1.3a15.37,15.37,0,0,1-1.4-1.2,67.53,67.53,0,0,1-5.4-5.3c-1-1.1-1.1-1.2-1.4-1.2s-.4.1-1.1,1-2,2.5-2.9,3.5c-.2.3-.3.3-.5.6Zm13.1-4.8a1.65,1.65,0,1,1-1.7-1.6h0a1.55,1.55,0,0,1,1.7,1.6Zm-2.6,0a1,1,0,1,0,1-1,.94.94,0,0,0-1,1Z"/><path class="cls-1" d="M239.7,182.4a13.4,13.4,0,0,0,2,.1H251a12.1,12.1,0,0,0,1.9-.1v1.3c-.5,0-.9-.1-2-.1h-9.3a9.27,9.27,0,0,0-2,.1Z"/><path class="cls-1" d="M257.9,180.8a31.68,31.68,0,0,1,4.1,2.1l-.6,1.1a20.17,20.17,0,0,0-4.1-2.2Zm-.4,7.3a12.84,12.84,0,0,0,4.3-1,10.06,10.06,0,0,0,4.8-3.6,12.44,12.44,0,0,0,1.9-3.6,9,9,0,0,0,1,.9,12.36,12.36,0,0,1-6.2,6.9,21.19,21.19,0,0,1-4,1.4,3.71,3.71,0,0,0-.9.2,1.42,1.42,0,0,0-.6.2Zm1.6-11.1a21.35,21.35,0,0,1,4,2l-.6,1.1a14.71,14.71,0,0,0-3.9-2.1Zm8.7-.6a9.45,9.45,0,0,1,1.6,2.3l-.8.4a11.87,11.87,0,0,0-1.6-2.3Zm1.5-.8a11.22,11.22,0,0,1,1.6,2.2l-.8.4a11.87,11.87,0,0,0-1.6-2.3Z"/><path class="cls-1" d="M273.3,184a21.72,21.72,0,0,0,3.2-3.6,3.92,3.92,0,0,1,.8-1,1.72,1.72,0,0,1,2.4-.2l.3.3c.2.1.4.4,1.2,1.3a33.88,33.88,0,0,0,5.1,4.9,5.67,5.67,0,0,0,1.3.8L287,188a1.38,1.38,0,0,0-.4-.3c-1-.8-2.8-2.4-3.9-3.5a39.46,39.46,0,0,1-3.1-3.4c-.4-.5-.7-.7-1-.7s-.5.1-1.3,1.1c-1,1.3-1.8,2.3-2.8,3.4-.3.3-.3.4-.5.5Z"/><path class="cls-1" d="M151.7,18.8c8.1,0,9,0,12.2.2a15.4,15.4,0,0,1,5.6,1,10.34,10.34,0,0,1,5.8,5.8,15.4,15.4,0,0,1,1,5.6c.1,3.2.2,4.1.2,12.2s0,9-.2,12.2a15.4,15.4,0,0,1-1,5.6,8.9,8.9,0,0,1-2.3,3.5,10.14,10.14,0,0,1-3.5,2.3,15.4,15.4,0,0,1-5.6,1c-3.2.2-4.1.2-12.2.2s-9,0-12.2-.2a15.4,15.4,0,0,1-5.6-1,10,10,0,0,1-5.7-5.7,17.85,17.85,0,0,1-1-5.6c-.1-3.2-.2-4.1-.2-12.2s0-9,.2-12.2a17.85,17.85,0,0,1,1-5.6,10,10,0,0,1,5.7-5.7,15.4,15.4,0,0,1,5.6-1c3.2-.3,4.2-.3,12.2-.4m0-5.4c-8.2,0-9.2,0-12.4.2A20.57,20.57,0,0,0,132,15a15.26,15.26,0,0,0-8.8,8.8,22.52,22.52,0,0,0-1.4,7.3c-.2,3.2-.2,4.2-.2,12.4s0,9.2.2,12.5a22.52,22.52,0,0,0,1.4,7.3,15.26,15.26,0,0,0,8.8,8.8,20.16,20.16,0,0,0,7.3,1.4c3.2.2,4.3.2,12.4.2s9.2,0,12.4-.2a20.16,20.16,0,0,0,7.3-1.4,15.26,15.26,0,0,0,8.8-8.8,23.65,23.65,0,0,0,1.4-7.4c.1-3.2.2-4.3.2-12.4s0-9.2-.2-12.5a22.52,22.52,0,0,0-1.4-7.3,15.85,15.85,0,0,0-8.8-8.8,20.16,20.16,0,0,0-7.3-1.4c-3.1,0-4.2-.1-12.4-.1Z"/><path class="cls-1" d="M151.7,28.1a15.5,15.5,0,1,0,15.5,15.5h0A15.45,15.45,0,0,0,151.7,28.1Zm0,25.6a10.1,10.1,0,1,1,10.1-10.1h0A10.14,10.14,0,0,1,151.7,53.7Z"/><path class="cls-1" d="M171.5,27.5a3.6,3.6,0,1,1-3.6-3.6h0a3.65,3.65,0,0,1,3.6,3.6Z"/><rect class="cls-2" width="300" height="200"/></svg>