<svg xmlns="http://www.w3.org/2000/svg" xmlns:xlink="http://www.w3.org/1999/xlink" width="160.506" height="26.359" viewBox="0 0 160.506 26.359">
  <defs>
    <clipPath id="clip-path">
      <rect id="長方形_9651" data-name="長方形 9651" width="160.506" height="26.359" fill="none"/>
    </clipPath>
  </defs>
  <g id="グループ_20653" data-name="グループ 20653" transform="translate(0 0)">
    <g id="グループ_20652" data-name="グループ 20652" transform="translate(0 0)" clip-path="url(#clip-path)">
      <path id="パス_84381" data-name="パス 84381" d="M0,25.059V.337H9.187c4.385,0,7.339,1.708,7.339,6.432,0,2.232-.721,4.03-2.721,5.043v.08c3.544.449,5.048,2.845,5.048,6.275,0,5.177-4.426,6.892-8.949,6.892Zm6.428-4.912h.819c1.9,0,5.118.1,5.118-2.633,0-2.976-3.177-2.677-5.279-2.677H6.428Zm0-10.093h.721c1.708,0,3.483-.294,3.483-2.4,0-2.257-2-2.4-3.736-2.4H6.428Z" transform="translate(0 0.481)" fill="#0b57a6"/>
      <path id="パス_84382" data-name="パス 84382" d="M15.023,19.63h7.705v5.427H8.6V.338h6.425Z" transform="translate(12.288 0.482)" fill="#0b57a6"/>
      <path id="パス_84383" data-name="パス 84383" d="M36.253.337V14.244c0,3.17-.138,6.323-2.59,8.718-2.065,2.033-5.313,2.75-8.2,2.75s-6.126-.717-8.2-2.75c-2.451-2.4-2.582-5.548-2.582-8.718V.337h6.423v13.03c0,3.2.233,6.707,4.358,6.707s4.36-3.51,4.36-6.707V.337Z" transform="translate(20.986 0.481)" fill="#0b57a6"/>
      <path id="パス_84384" data-name="パス 84384" d="M31.123,5.784V9.925h7.249v5.427H31.123V19.63H38.76v5.429H24.695V.337H38.76V5.784Z" transform="translate(35.294 0.481)" fill="#0b57a6"/>
      <path id="パス_84385" data-name="パス 84385" d="M36.171,25.059V.337h9.165c4.4,0,7.339,1.708,7.339,6.432,0,2.232-.719,4.03-2.716,5.043v.08C53.506,12.342,55,14.737,55,18.167c0,5.177-4.424,6.892-8.944,6.892Zm6.418-4.912h.816c1.9,0,5.113.1,5.113-2.633,0-2.976-3.182-2.677-5.271-2.677h-.658Zm0-10.093h.724c1.7,0,3.471-.294,3.471-2.4,0-2.257-2-2.4-3.739-2.4h-.457Z" transform="translate(51.695 0.481)" fill="#0b57a6"/>
      <path id="パス_84386" data-name="パス 84386" d="M71.856,12.722c0,8-5.728,13.637-13.667,13.637S44.518,20.723,44.518,12.722C44.518,5.247,51.077,0,58.189,0S71.856,5.247,71.856,12.722M51.2,12.763a6.993,6.993,0,1,0,13.965,0,7,7,0,0,0-13.965,0" transform="translate(63.624 -0.001)" fill="#0b57a6"/>
      <path id="パス_84387" data-name="パス 84387" d="M57,.337h7.892l3.77,6.4,3.78-6.4h7.895L72.441,11.844l9.143,13.215H73.846L68.662,17l-5.667,8.055H55.221l9.671-13.215Z" transform="translate(78.921 0.481)" fill="#0b57a6"/>
    </g>
  </g>
</svg>
