<svg id="グループ_20651" data-name="グループ 20651" xmlns="http://www.w3.org/2000/svg" xmlns:xlink="http://www.w3.org/1999/xlink" width="116.126" height="31.345" viewBox="0 0 116.126 31.345">
  <defs>
    <clipPath id="clip-path">
      <rect id="長方形_9650" data-name="長方形 9650" width="116.126" height="31.345" fill="none"/>
    </clipPath>
  </defs>
  <g id="グループ_20650" data-name="グループ 20650" transform="translate(0 0)" clip-path="url(#clip-path)">
    <path id="パス_84377" data-name="パス 84377" d="M15.254,17.68v7.437H8.86a39.529,39.529,0,0,1,6.394-7.437" transform="translate(2.963 5.912)" fill="#8dc33e"/>
    <path id="パス_84378" data-name="パス 84378" d="M46.3,8.147v4.335A31.518,31.518,0,0,0,36.881,10.5,8.293,8.293,0,0,0,33.7,11q-1.181.5-1.181,1.326a1.55,1.55,0,0,0,.851,1.206,17.687,17.687,0,0,0,4.145,1.477,54.026,54.026,0,0,1,5.271,1.685A10.048,10.048,0,0,1,46.2,18.885a4.815,4.815,0,0,1,1.434,3.575A5.514,5.514,0,0,1,44.5,27.368a16.318,16.318,0,0,1-8.257,1.827A27.8,27.8,0,0,1,25.529,27.05V22.267A32.943,32.943,0,0,0,30.8,24.444a16.935,16.935,0,0,0,4.867.685q4.357,0,4.358-2.047a1.7,1.7,0,0,0-.873-1.32,16.084,16.084,0,0,0-4.2-1.507A51.322,51.322,0,0,1,29.685,18.6a9.7,9.7,0,0,1-3.357-2.176A4.908,4.908,0,0,1,24.913,12.8q0-2.86,3.084-4.616a16.639,16.639,0,0,1,8.248-1.756A32.62,32.62,0,0,1,46.3,8.147" transform="translate(8.331 2.15)" fill="#27a639"/>
    <path id="パス_84379" data-name="パス 84379" d="M71.006,17.786c0,6.245-5.63,11.306-12.574,11.306S45.86,24.031,45.86,17.786,51.488,6.478,58.433,6.478s12.574,5.063,12.574,11.308M58.433,10.833c-3.472,0-6.288,3.112-6.288,6.952s2.816,6.951,6.288,6.951,6.288-3.113,6.288-6.951-2.816-6.952-6.288-6.952" transform="translate(15.335 2.166)" fill="#27a639"/>
    <path id="パス_84380" data-name="パス 84380" d="M109.69,8.459V20.212C92.921-.475,61.222.687,61.222.687c-22.33.6-35.649,10.241-43.006,18.5V5.781H28.593V0H0V5.781H10.431V31.04l.013-.024-.008.019C28.4,1.369,62.173,3.654,62.173,3.654c13.421.4,23.3,3.98,30.455,8.433V31.081h6.436v-14.2c7.92,7.019,10.578,14.2,10.578,14.2h6.484V8.459Z" transform="translate(0 0)" fill="#27a639"/>
  </g>
</svg>
