<svg xmlns="http://www.w3.org/2000/svg" xmlns:xlink="http://www.w3.org/1999/xlink" width="135.23" height="53.095" viewBox="0 0 135.23 53.095">
  <defs>
    <clipPath id="clip-path">
      <rect id="長方形_9655" data-name="長方形 9655" width="135.23" height="53.095" fill="none"/>
    </clipPath>
  </defs>
  <g id="グループ_20656" data-name="グループ 20656" transform="translate(0)">
    <path id="パス_84388" data-name="パス 84388" d="M62.787,40.777l-14.53,14.53L41.61,48.659,32.76,57.508l15.5,15.5L71.637,49.627Z" transform="translate(-18.542 -23.079)" fill="#c1ae8a"/>
    <rect id="長方形_9652" data-name="長方形 9652" width="4.481" height="21.917" transform="translate(11.05 37.598) rotate(-45)" fill="#685744"/>
    <rect id="長方形_9653" data-name="長方形 9653" width="4.824" height="10.16" transform="translate(23.136 21.109) rotate(-45)" fill="#680000"/>
    <path id="パス_84389" data-name="パス 84389" d="M26.547,0,0,26.548,8.849,35.4l17.7-17.7,7.185,7.184,8.849-8.849Z" transform="translate(0 0)" fill="#dc000c"/>
    <path id="パス_84390" data-name="パス 84390" d="M146.144,23.1V20.611H134.667V23.1h4.259V35.9h2.959V23.1Z" transform="translate(-76.218 -11.666)" fill="#1a1311"/>
    <g id="グループ_20655" data-name="グループ 20655" transform="translate(0)">
      <g id="グループ_20654" data-name="グループ 20654" clip-path="url(#clip-path)">
        <path id="パス_84391" data-name="パス 84391" d="M170.043,20.146c-4.622,0-7.168,2.4-7.168,6.747v2.2c0,4.351,2.546,6.747,7.168,6.747,4.64,0,7.2-2.4,7.2-6.747v-2.2c0-4.351-2.556-6.747-7.2-6.747m4.237,8.944c0,2.881-1.387,4.281-4.24,4.281-2.83,0-4.207-1.4-4.207-4.281v-2.2c0-2.881,1.376-4.281,4.207-4.281,2.853,0,4.24,1.4,4.24,4.281Z" transform="translate(-92.183 -11.402)" fill="#1a1311"/>
        <path id="パス_84392" data-name="パス 84392" d="M205.391,35.838c3.284,0,5.245-1.651,5.245-4.416,0-2.559-1.251-3.824-4.617-4.665-1.974-.493-3.116-1.036-3.116-2.351,0-1.139.825-1.793,2.263-1.793a3.227,3.227,0,0,1,3.073,1.531l2.207-1.576c-1.072-1.606-2.855-2.421-5.3-2.421-3.305,0-5.2,1.552-5.2,4.259,0,2.448,1.39,3.908,4.506,4.733,2.413.625,3.227,1.235,3.227,2.418,0,.678-.323,1.816-2.488,1.816a3.938,3.938,0,0,1-3.379-1.516l-2.253,1.558c1.312,1.675,3.117,2.424,5.834,2.424" transform="translate(-112.944 -11.403)" fill="#1a1311"/>
        <path id="パス_84393" data-name="パス 84393" d="M240.233,35.9h2.959V20.611h-2.959v6.142h-7V20.611H230.27V35.9h2.959v-6.68h7Z" transform="translate(-130.327 -11.665)" fill="#1a1311"/>
        <rect id="長方形_9654" data-name="長方形 9654" width="2.959" height="15.288" transform="translate(116.535 8.946)" fill="#1a1311"/>
        <path id="パス_84394" data-name="パス 84394" d="M293.351,35.9h2.487V20.611h-2.8v9.9l-6.8-9.9h-2.464V35.9h2.8V26.131Z" transform="translate(-160.607 -11.665)" fill="#1a1311"/>
        <path id="パス_84395" data-name="パス 84395" d="M164.769,66.5l-2.836,5.878L159.12,66.5h-3.426l4.76,9.034v6.254h2.959V75.532l4.76-9.034Z" transform="translate(-88.119 -37.636)" fill="#1a1311"/>
        <path id="パス_84396" data-name="パス 84396" d="M194.942,81.987c3.773,0,5.85-2.269,5.85-6.388V66.5h-2.959v9.123c0,2.7-.892,3.9-2.891,3.9s-2.891-1.2-2.891-3.9V66.5h-2.959v9.123c0,5.539,3.665,6.366,5.85,6.366" transform="translate(-107.021 -37.636)" fill="#1a1311"/>
        <path id="パス_84397" data-name="パス 84397" d="M228.382,75.192l3.987,6.593H235.9l-5.6-9.128,4.658-6.159h-3.5l-5.022,6.865V66.5h-2.959V81.785h2.959V77.743Z" transform="translate(-126.488 -37.636)" fill="#1a1311"/>
        <path id="パス_84398" data-name="パス 84398" d="M259.512,68.986h6.5V66.5h-9.46V81.786h9.46V79.32h-6.5V75.106h5.828V72.64h-5.828Z" transform="translate(-145.202 -37.636)" fill="#1a1311"/>
        <path id="パス_84399" data-name="パス 84399" d="M141.885,79.006V66.5h-2.959V79.006c0,2.547-.7,3.586-2.4,3.586h-1.861v2.466h2.062c3.469,0,5.156-1.98,5.156-6.052" transform="translate(-76.218 -37.636)" fill="#1a1311"/>
        <path id="パス_84400" data-name="パス 84400" d="M293.351,81.785h2.487V66.5h-2.8v9.9l-6.8-9.9h-2.464V81.785h2.8V72.017Z" transform="translate(-160.607 -37.636)" fill="#1a1311"/>
      </g>
    </g>
  </g>
</svg>
