<?xml version="1.0" encoding="UTF-8"?><svg id="_レイヤー_1" xmlns="http://www.w3.org/2000/svg" viewBox="0 0 317 317"><defs><style>.cls-1{fill:#beb143;}.cls-2{fill:#fff;}.cls-3{fill:#8dc33e;}.cls-4{fill:#27a639;}</style></defs><rect id="_長方形_10023" class="cls-2" x="0" y=".03" width="317" height="317"/><path id="_パス_88377" class="cls-3" d="M54.46,111.43l5.39,5.39-4.64,4.64c-.67-3.3-.92-6.67-.76-10.03"/><path id="_パス_88378" class="cls-4" d="M71.23,75.38l3.14,3.14c-3.02,1.36-5.8,3.18-8.27,5.39-.81.75-1.47,1.66-1.94,2.67-.33.81-.29,1.42.11,1.82.42.33.98.43,1.49.26,1.43-.47,2.8-1.12,4.08-1.93,1.64-.95,3.32-1.82,5.05-2.6,1.28-.57,2.66-.87,4.06-.89,1.37-.01,2.69.55,3.63,1.55,1.5,1.54,2,3.8,1.28,5.83-.88,2.81-2.49,5.33-4.66,7.31-2.67,2.67-5.84,4.78-9.32,6.21l-3.46-3.46c1.86-.59,3.67-1.34,5.4-2.25,1.48-.81,2.84-1.83,4.02-3.03,2.11-2.11,2.66-3.65,1.67-4.64-.44-.36-1.04-.49-1.59-.33-1.46.46-2.86,1.11-4.14,1.95-1.62.97-3.3,1.84-5.02,2.63-1.26.56-2.63.85-4.01.85-1.39,0-2.71-.59-3.65-1.6-1.38-1.38-1.75-3.24-1.11-5.58.92-2.78,2.54-5.28,4.71-7.25,2.51-2.45,5.39-4.49,8.53-6.05"/><path id="_パス_88379" class="cls-4" d="M101.22,59.39c4.53,4.53,4.12,12.28-.92,17.31s-12.78,5.44-17.31.92-4.12-12.28.91-17.32c5.03-5.03,12.79-5.44,17.32-.92M87.06,63.46c-2.52,2.52-2.3,6.82.48,9.6,2.79,2.79,7.08,3,9.6.48s2.3-6.82-.48-9.6c-2.78-2.78-7.08-3-9.6-.48"/><path id="_パス_88380" class="cls-4" d="M109.82,34.12l8.52,8.52c-27.16-2.84-49.31,20.99-49.31,20.99-15.76,16.63-18.43,33.28-17.77,44.6l-9.72-9.72,7.52-7.52-4.19-4.19-20.74,20.74,4.19,4.19,7.57-7.57,18.32,18.32v-.03s0,.02,0,.02c-8.48-34.54,17.66-57.37,17.66-57.37,10.02-9.44,19.78-14,28.2-15.97l13.77,13.77,4.67-4.67-10.3-10.3c10.83-.65,17.97,2.63,17.97,2.63l4.7-4.7-16.4-16.4-4.67,4.67Z"/><path id="_パス_88409" d="M63.16,196.89c.57,3.34.64,3.71.72,4.43.64-.54.72-.62.94-.4s.2.5.12.91c-.08.32.01.66.24.89l14.11,14.11-2.74,2.74-12.28-12.28c.08,4.65-.69,9.27-2.27,13.64l-4-.54c3.83-10.16,2.52-16.51,1.73-20.07l-10.18,10.18-2.47-2.47,20.81-20.81,2.47,2.47-7.19,7.19ZM66.15,199.69c4.57-.89,9.25-1.13,13.89-.69l-.02,4.18c-4.43-.55-8.91-.51-13.32.12l-.54-3.61Z"/><path id="_パス_88410" d="M81.67,179.51l4.75-4.75,1.78,1.78-4.75,4.75,1.01,1.01,4.1-4.1,6.58,6.58-4.1,4.1,1.09,1.09,4.3-4.3,1.73,1.73-4.3,4.3,1.26,1.26c.62-.76,3.34-4.08,3.91-4.74l1.23,1.23c-.76-2.49-2.1-6.94-7.54-13.03l-1.9,1.9-2.3-2.3,2.03-2.03c-1.73-1.84-3.56-3.57-5.49-5.19l2.62-2.37c.54-.5.92-.82,1.16-.57.12.12.12.32,0,1.04-.07.37.07.57.39.89.59.59,3.26,3.21,3.78,3.73l4.08-4.08c7.76,7.81,10.66,11.79,11.69,13.37,2.54,3.83.79,5.69-.82,7.34l-3.61-1.33c1.95-1.95,2.18-2.18,2.1-2.74-.39-2.47-7.42-9.69-9.54-11.87l-1.75,1.75c5.98,7.07,8.48,11.69,9.05,18.74l-3.88.72c.17-.99.2-2,.07-2.99-1.31,1.76-8.16,10.48-8.43,11-.07.17.12,1.06,0,1.19-.2.2-.54-.05-.82-.27l-2.42-1.83c2.42-2.82,3.02-3.51,4.4-5.19l-1.46-1.46-4.18,4.18-1.73-1.73,4.18-4.18-1.09-1.09-3.98,3.98-6.58-6.58,3.98-3.98-1.01-1.01-4.87,4.87-1.78-1.78,4.87-4.87-.94-.94c-1.09,1.24-1.78,1.98-3.06,3.26l-3.02-.79c.54-.49,1.11-1.01,1.9-1.8,4.3-4.3,5.51-7,6.11-8.28l2.77.55c.32.03.62.13.89.3.12.12.12.32-.05.49-.34.19-.7.36-1.06.52-.13.17-.4.59-.54.84-.6.89-1.24,1.75-1.93,2.57l1.11,1.11ZM83.72,185.91l-1.78,1.78,1.19,1.19,1.78-1.78-1.19-1.19ZM85.72,191.48l1.78-1.78-1.24-1.24-1.78,1.78,1.24,1.24ZM87.87,181.76l-1.98,1.98,1.19,1.19,1.98-1.98-1.19-1.19ZM89.68,187.52l1.98-1.98-1.24-1.24-1.98,1.98,1.24,1.24Z"/><path id="_パス_88411" d="M107.78,162.55l1.88,1.88c3.26,3.26,7.88,7.93,9.05,13.45l-3.34,1.76c-.59-2.67-1.43-6.03-6.87-11.47-.87-.87-.97-.92-5.41-4.97l5.27-5.27c-1.28-.45-2.58-.81-3.91-1.09l-4.16,4.16-2-2,8.13-8.13-2.2-2.2,2.72-2.42c.3-.25.77-.72,1.01-.47.12.12.07.96.15,1.14l1.14,1.14,8.21-8.21,2,2-4.1,4.1c.55,1.22.95,2.49,1.19,3.81l5.76-5.76,2.03,2.03-16.53,16.53ZM117.02,158.15l-1.9-1.9,2.32-1.88c.69-.55.89-.64,1.09-.44.12.12.1.3.07.47-.05.3-.02.47.13.62l.72.72,6.1-6.1,2.03,2.03-6.1,6.1,1.8,1.8,4.5-4.5,2,2-4.5,4.5,2.22,2.22,7.42-7.42,2.03,2.03-16.98,16.98-2.03-2.03,7.14-7.14-2.22-2.22-4.23,4.23-2-2,4.23-4.23-1.8-1.8-3.26,3.26c.34,1.06.59,2.14.77,3.24l-3.11.99c-.25-2.6-1.05-5.12-2.35-7.39l2.97-1.38c.34-.15.47-.12.57-.02s0,.35-.07.62c.07.29.16.58.27.86l2.2-2.2ZM107.19,154.1c1.17.32,2.72.79,3.83,1.16l2.94-2.94c-.23-1.3-.66-2.55-1.28-3.71l-5.48,5.48Z"/><path id="_パス_88412" class="cls-1" d="M182.53,124.39l-12.04,12.04-6.65-4.35-6.36,6.36,4.3,6.7-11.52,11.52-28.2-42.99,17.48-17.48,42.99,28.2ZM155.59,125.54l-14.1-9.74-.23.23,9.69,14.16,4.64-4.64Z"/><rect id="_長方形_10024" class="cls-1" x="164.87" y="72.74" width="17.1" height="50.34" transform="translate(-18.44 151.3) rotate(-45)"/><path id="_パス_88413" class="cls-1" d="M68.81,279.66c2.92-.45,5.86-.75,8.81-.88.3-4.75.1-9.52-.6-14.22l-21.17,21.17-5.23-5.23,24.79-24.79c.81-.87,1.48-1.85,2-2.92l7.55.74c-.13,1.14-.13,2.3,0,3.44.68,7.37.88,14.77.6,22.16,2.46.09,4.91.42,7.3.98-.14,2.39-.35,6.25-.46,8.67-3.62-1.09-9.83-2.88-23.39-1.26l-.21-7.87Z"/><rect id="_長方形_10025" class="cls-1" x="88.84" y="238.94" width="43.15" height="8.44" transform="translate(-139.6 149.3) rotate(-45)"/><path id="_パス_88414" class="cls-1" d="M135.36,211.98c.94,4.37,1.53,8.81,1.75,13.27-2.83.11-5.64.58-8.35,1.4.09-9.86-2.27-19.59-6.88-28.3l7.97-3.48c.35-.14.81-.32,1.09-.04.35.35-.17,1.16-.45,1.59.98,2.53,1.16,2.98,2.49,6.98l17.45-17.45,5.48,5.48-8.53,8.53c10.25,11.1,10.43,21.53,8.46,30.45-2.82-.07-5.63.18-8.39.74,1.83-6.67,3.41-15.07-6.01-25.25l-6.07,6.08Z"/><path id="_パス_88415" class="cls-1" d="M162.14,190.39l-5.02-5.02,30.06-30.06,5.02,5.02-11.48,11.48c3.68,3.97,6.85,8.6,7.2,15.13.28,4.38-.65,8.75-2.67,12.64-2.83-.56-5.73-.6-8.57-.14,5.8-10.15,3.44-16.78-1.62-21.98l-12.92,12.92ZM178.33,156.16l-20.19,20.19-5.09-5.09,20.19-20.19,5.09,5.09Z"/><path id="_パス_88416" class="cls-1" d="M229.16,154.34l-5.2,5.2-12.22-12.22c-.85,3.65-2.04,7.21-3.55,10.64-2.5-.63-5.09-.84-7.66-.63,5.19-9.65,7.32-20.65,6.11-31.53l7.37-.84c.28,0,.53-.04.71.14.28.28-.03.6-.21.77-.14.15-.29.28-.46.39.14,4.14-.06,8.29-.6,12.4l15.69,15.69Z"/><path id="_パス_88417" class="cls-1" d="M219.6,103.79c8.92-2.88,12.5-2.95,14.54-3.02.18,1.86.32,2.49,1.37,8.18-4.95.37-9.83,1.46-14.47,3.23l-1.44-8.39ZM240.99,130.93c7.94-12.08,11.03-28.72,7.23-45.02,2.73.76,5.56,1.15,8.39,1.16,1.56,7.44,1.83,15.09.77,22.61-1.15,7.71-3.38,15.21-6.64,22.3.39.39.6.95.28,1.27-.21.21-.46.25-1.05.07l-8.99-2.39Z"/><path id="_パス_88418" class="cls-1" d="M277.07,54.95c.87-.85,1.54-1.88,1.97-3.02l5.41-.42c.42,1.69,3.09,8.64,4.07,11.24,6.74,17.56,2.85,29.25,1.3,33.89-1.37-.18-3.51-.35-8.53.53,2.48-6.27,3.53-13.01,3.09-19.73-.6-6.28-3.23-12.15-4.6-15.07l-8.78,8.78c1.06,5.56,1.43,11.24,1.09,16.89-3.9-.11-5.34-.14-8.08.49,1.3-15.77-2.67-24.16-4-27.04l7.52-2.6c.21-.07.7-.21.98.07.35.35-.03.95-.35,1.34.52,1.65.7,2.04.88,2.7l8.04-8.04ZM269.59,49.72c2.26-.21,4.54-.24,6.81-.07-.39,1.6-.7,3.21-.91,4.85-2.23-.19-4.47-.2-6.71-.04l.81-4.74ZM274.79,43.75c2.35-.12,4.71-.06,7.06.18-.14.77-.88,4.18-1.02,4.88-2.25-.47-4.55-.65-6.85-.53l.81-4.53Z"/><path id="_パス_88473" d="M143.45,289.92l-1.34-1.34-6.3,6.3,1.41,1.41-.71.71-2.05-2.05,3.54-3.54-1.03-1.03.73-.65c.07-.07.21-.2.29-.12.1.1.03.33,0,.42l.69.69,3.51-3.51,1.97,1.97-.71.72ZM147.86,296.07l-.49-.49-4.02,4.02.57.57-.68.68-5.76-5.76,4.77-4.77,2.1,2.1-4.09,4.09.88.88,4.7-4.7,2.69,2.69-.68.68ZM142.17,291.59l-3.41,3.41.94.94,3.41-3.41-.94-.94ZM145.76,293.97l-4.02,4.02,1.03,1.03,4.02-4.02-1.03-1.03Z"/><path id="_パス_88474" d="M146.19,283.05c.86,1.85,1.39,3.83,1.58,5.86l-1.03.15c-.17-2.17-.8-4.28-1.85-6.19l1.18-.38c.07-.03.15-.02.21.03.12.12.03.31-.1.52M158.06,285.63c-.58-.19-1.17-.33-1.77-.44-.49.69-1.57,2.26-2.36,3.39-.56.78-1.36,1.89-2.49,3.38.04.11.12.4,0,.51-.07.07-.17.04-.27-.03l-1.03-.62c.15-.19.21-.25.29-.35.15-.19.77-.98.91-1.15-.73-2.33-1.6-4.61-2.61-6.83l1.07-.37c.16-.05.22-.04.27.01.1.1.02.24-.15.5,1.06,2.8,1.47,3.86,2.1,5.83,1.06-1.32,2.24-2.94,3.35-4.43-.88-.09-1.76-.14-2.65-.14l.05-.93c1.9-.09,3.8.13,5.63.65l-.34.98ZM154.64,281.46c-2.05.49-4.21.12-5.97-1.04l-1.26,1.26-.64-.64,1.85-1.85c1.64,1.34,3.84,1.77,5.87,1.16l.15,1.1Z"/><path id="_パス_88475" d="M155.04,275.73c.35.33,1.07,1.03,1.37,1.33,2.53,2.53,3.52,3.9,4.11,6.06l-.96.42c-.43-2.19-1.63-3.61-3.37-5.35-.82-.82-1.63-1.6-2.49-2.39l3.22-3.22-1.08-1.08.75-.69c.13-.11.22-.15.27-.1.07.07.04.21-.03.42l.77.77,3.55-3.55.64.64-6.75,6.75ZM161.11,273.55l3.82,3.82c.79.79.79,1-.85,2.64l-1-.51c.36-.28.71-.57,1.04-.89.33-.33.16-.5-.08-.74l-3.63-3.63-2.58,2.58-.66-.66,5.82-5.82.66.66-2.53,2.53Z"/><path id="_パス_88476" d="M167.77,272.04c1.18-.24,2.4-.31,3.6-.2l.05,1.02c-1.2-.25-2.44-.28-3.65-.09v-.73Z"/><path id="_パス_88477" d="M182.37,253.09c-2.1.76-4.36.95-6.56.56.35,2.29.14,4.62-.62,6.81l-1.17-.05c1.14-2.38,1.31-5.12.46-7.62l.98-.44c.09-.05.2-.03.28.04.09.09.05.21-.04.43,2.26.4,4.59.05,6.64-.99l.02,1.25ZM179.23,264.31l-.64-.64,2.08-2.08c-.57-.22-1.17-.36-1.78-.41l.07-.9c.69,0,1.37.12,2.01.36l-.09.73.97-.97-1.85-1.85-2.58,2.58-.61-.61,2.58-2.58-1.14-1.14-1.58,1.58-.61-.61,3.9-3.9.61.61-1.66,1.66,1.14,1.14,2.71-2.71.61.61-2.71,2.71,1.85,1.85.98-.98-.68.1c-.02-.68-.16-1.35-.42-1.97l.87-.21c.13-.04.24-.06.31,0,.08.08,0,.2-.14.36.17.48.26.99.28,1.5l2.26-2.26.64.64-7.38,7.38Z"/><path id="_パス_88478" d="M180.41,247.69l4.26-4.26.62.62-4.26,4.26-.62-.62ZM192.21,251.91l-.76.76-.79-.46c.24-.16.46-.33.66-.53.17-.17.12-.29.02-.39l-2.15-2.15-.9.9c-.41.41-.68.17-.85,0l-.62-.62-.64.64.41-.15s.2-.07.27.01,0,.17-.08.27c.34.52.42,1.17.19,1.75l-.82.02c.28-.54.2-1.2-.22-1.65l-.76.76,3.97,3.97-.61.61-4.51-4.51,4.17-4.17,3.87,3.87c.35.35.5.71.12,1.09M182.15,248.4l3.33-3.33,1.78,1.78-3.33,3.33-1.78-1.78ZM189.03,251.21l1.56,1.56-.61.61-1.56-1.56-.98.98-.53-.53,2.44-2.44.53.53-.85.85ZM185.43,246.18l-2.17,2.17.71.71,2.17-2.17-.71-.71ZM188.15,248.08l-.8.8.3.3c.2.2.26.22.51-.03l.53-.53-.54-.54ZM196.23,247.79c-.48-.23-.78-.38-1.34-.61-.19.39-.44.92-.84,1.72-.3.53-.56,1.08-.79,1.65.05.31.05.35,0,.39-.07.07-.14.03-.26-.04l-.84-.41c.42-.6.8-1.24,1.13-1.9l-2.12-2.12-.66.66.59.59-.58.58-4.09-4.09,1.24-1.24-1.63-1.63.69-.54c.09-.07.2-.14.26-.07.09.09,0,.29-.03.36l1.29,1.29,1.25-1.25,3.51,3.51-1.25,1.25,1.94,1.94c.15-.32.33-.72.43-.95-.47-.2-.95-.38-1.44-.52l.3-.82c1.23.36,2.43.84,3.57,1.44l-.34.82ZM188.31,243.6l-.66.66,2.26,2.26.66-.66-2.26-2.26ZM189.59,242.32l-.69.69,2.26,2.26.69-.69-2.26-2.26Z"/><path id="_パス_88479" d="M196.35,240.8c-.52-.07-1.03-.22-1.51-.44l4.54,4.54-.61.61-4.21-4.21c.52.92.85,1.92,1,2.96l-.87.23c-.2-1.63-.8-3.19-1.76-4.52l-.9.9-.63-.63,1.05-1.05-2.22-2.22.75-.62s.21-.13.27-.07c.04.04.07.13-.07.42l1.87,1.87.91-.91.63.63-.91.91c.88.46,1.84.73,2.83.79l-.17.8ZM205.24,239.05c-.35.27-.78.41-1.23.4-.49.01-.99-.04-1.47-.16-.35,1.06-.79,2.09-1.32,3.08l-.86-.22c.59-.95,1.05-1.99,1.37-3.07-.54-.2-1.06-.47-1.53-.8l-1.93,1.93c1.08.9,1.88,2.09,2.32,3.42l-.93.31c-.37-1.2-1.07-2.28-2.01-3.12l-.45.45-.58-.58,2.9-2.9c-1.12-.83-2.18-1.73-3.19-2.7-.06.09-.08.14-.16.25.19.94.33,1.88.42,2.83.19-.21.24-.26.56-.65-.11-.04-.22-.07-.33-.09l.21-.7c.6.1,1.17.29,1.7.58l-.27.7c-.22-.11-.45-.21-.68-.29-.22.36-.33.5-1.22,1.73.04.13.1.35.01.44-.07.07-.22-.02-.25-.03l-.79-.41c.25-.29.27-.31.41-.47-.04-.37-.06-.52-.24-1.94-.8.01-1.6.09-2.39.24l-.09-.79c.17-.05.33-.08.5-.11-.07-.72-.2-1.43-.4-2.12l.82-.15c.05,0,.18-.03.23.03.09.09-.03.24-.17.38.08.5.19,1.3.28,1.79.32-.02.73-.04,1.07-.06-.06-.4-.15-.8-.27-1.19l.8-.17c-1.06-.99-1.16-1.09-1.92-1.82l.87-.62c.18-.12.23-.07.25-.05.07.07.02.26,0,.42.24.25.6.64,1.01,1.05,1.19,1.2,2.48,2.31,3.84,3.32l2.51-2.51.58.58-2.41,2.41c.35.26.74.46,1.15.61.12-.46.18-.94.2-1.41l.92.04s.09.02.12.05c.04.03.04.08.01.12,0,0,0,0-.01.01-.03.03-.05.03-.17.12-.03.14-.16.76-.18.89-.03.16-.05.25-.08.46.31.07.62.09.94.07.28,0,.56-.07.8-.21.31-.31-.33-1.11-.62-1.48l1.04-.07c.8,1.13.65,1.85.32,2.19M200.97,240.05c-.54.06-1.06.21-1.54.46l-.21-.79c.47-.23.98-.38,1.5-.44l.25.78ZM201.31,234.16c-.22-.1-.44-.19-.66-.27-.42.68-.67,1.07-1.17,1.8.04.26.06.39,0,.45s-.18,0-.24-.04l-.8-.49c.12-.12.24-.25.34-.38-.03-.58-.1-1.17-.22-1.74-.68,0-1.35.05-2.02.13l-.09-.79c.41-.06.46-.07.56-.07-.05-.6-.18-1.19-.4-1.75l.86-.17c.12-.03.19-.02.24.04s0,.14-.16.34c.09.36.17.99.23,1.49.22-.02.44-.03.65-.02-.03-.35-.1-.69-.18-1.03l.9-.09s.09,0,.13.04c.07.07,0,.15-.14.31.17,1.34.21,2.03.24,2.6.25-.29.39-.49.65-.83-.13-.04-.26-.07-.39-.09l.26-.71c.59.09,1.17.27,1.71.53l-.29.74ZM201.52,235.59c-.43-.03-.87.01-1.29.13l-.07-.86c.45-.11.91-.14,1.37-.09v.82Z"/><path id="_パス_88480" d="M208.04,236.26l-.65.65-8.17-8.17,3.34-3.34,2.88,2.88-2.68,2.68,5.29,5.29ZM202.48,226.6l-2.02,2.02.64.64,2.02-2.02-.64-.64ZM203.63,227.74l-2.02,2.02.65.65,2.02-2.02-.65-.65ZM209.5,230.29c1.1.1,2.2-.14,3.16-.69l.15.92c-1.05.48-2.21.67-3.37.56.32,1.15.2,2.37-.34,3.44l-1.02.05c.62-1.01.8-2.22.51-3.37l-1.96,1.96-.53-.53,2.11-2.11c-.18-.22-.36-.42-.56-.62l-.19-.19-1.74,1.74-.51-.51.86-.86c-.34-.13-.71-.2-1.08-.2l.15-.79c.46-.03.92.02,1.36.15l-.09.49,1.6-1.6-.47.02c-.02-.44-.08-.88-.19-1.31l.75-.17c.1-.03.2-.03.24.02.08.08-.07.28-.11.34.05.26.08.52.09.78l.85-.85.51.51-1.6,1.6.21.21c.19.19.36.39.52.6l2.03-2.03.53.53-1.88,1.89ZM212.84,230c.21-.17.61-.46.74-.59.26-.26.11-.41-.16-.69l-4.22-4.22-2.72,2.72-2.88-2.88,3.36-3.36,7.1,7.1c.69.69,1.11,1.11-.17,2.26l-1.05-.36ZM206.88,222.19l-2.07,2.07.64.64,2.07-2.07-.64-.64ZM208.03,223.34l-2.07,2.07.65.65,2.07-2.07-.65-.65Z"/><path id="_パス_88481" d="M214.54,225.27c1.18-.24,2.4-.31,3.6-.2l.05,1.02c-1.2-.25-2.44-.28-3.65-.09v-.73Z"/><path id="_パス_88482" d="M233.33,210.65c-1.36.47-2.82.63-4.25.46-1.24-.16-2.43-.57-3.51-1.21,1.44,2.31,1.75,5.15.85,7.71l-1.22.06c1.2-2.66.83-5.75-.95-8.06l-3.55,3.55-.65-.65,3.63-3.63c-.31-.35-.53-.61-1.23-1.3-.46-.46-.81-.81-1.28-1.26l.78-.68c.07-.07.26-.22.36-.12.04.04.05.12,0,.42.86.88.98,1.02,2.09,2.21l3.78-3.78.65.65-3.63,3.63c1.13.75,2.41,1.25,3.75,1.47,1.48.16,2.97-.07,4.33-.66l.05,1.19Z"/><path id="_パス_88483" d="M233.8,198.79l3.2-3.2.65.65-3.2,3.2,1.52,1.52,3.83-3.83.65.65-3.83,3.83,2.17,2.17c.57.57.63.98-.2,1.81-.3.3-.54.5-.65.6l-1.03-.58c.32-.22.62-.45.91-.7.12-.12.31-.38.07-.62l-1.97-1.97-3.78,3.78-.65-.65,3.78-3.78-1.52-1.52-3.07,3.07-.65-.65,3.07-3.07-1.38-1.38c-.83,1.08-1.72,2.1-2.66,3.08l-.94-.46c2.09-1.92,3.82-4.19,5.11-6.71h1.19c.05-.02.11,0,.15.03.06.06.03.14-.03.2-.1.09-.2.16-.32.23-.57.98-1.2,1.94-1.88,2.85l1.47,1.47Z"/><path id="_パス_88484" d="M239.68,195.64c-.1-2.19-.71-4.32-1.8-6.23l1.03-.43c.07-.03.18-.05.23,0s0,.18-.12.35c.5,1.23.57,1.42.85,2.25.13-.06.23-.1.3-.04s.07.23,0,.5l5.98,5.98-.65.65-5.11-5.11c.13.63.2,1.28.23,1.92l-.94.15ZM246.93,185.9l-2.55,2.55,1.82,1.82,1.99-1.99.64.64-1.99,1.99,2.24,2.24,2.7-2.7.63.63-6.04,6.04-.63-.63,2.66-2.66-2.24-2.24-1.93,1.93-.64-.64,1.93-1.93-1.82-1.82-2.44,2.44-.65-.65,5.68-5.68.65.65ZM240.85,186.43c.97-.06,1.95-.01,2.92.15l-.18,1.03c-.92-.17-1.85-.23-2.78-.19l.04-.99Z"/><path id="_パス_88485" d="M255.15,183.24l1.68,1.68c.4.4.58.39,1.02-.05l1.76-1.76c.51-.51.43-.92-.46-2.22l.99-.26c1.2,1.85.97,2.28,0,3.25l-1.71,1.71c-.25.33-.61.57-1.02.66-.43.03-.85-.16-1.1-.51l-1.79-1.79-3.24,3.73-.67-.58,3.29-3.78-1.32-1.32c-.6.78-.93,1.22-1.49,1.82l-1.03-.24c1.54-1.53,2.74-3.37,3.52-5.41l.92-.07c.07-.02.15,0,.21.05.09.09-.07.25-.27.46-.36.89-.8,1.75-1.33,2.56l1.41,1.41,3.67-4.25.69.58-3.74,4.31ZM255.55,177.3l-1.17-1.17-6.51,6.51,1.41,1.41-.68.68-2.05-2.05,3.55-3.55-1-1,.81-.68c.07-.05.2-.16.28-.07.05.05.04.07-.02.37l.65.65,3.59-3.59,1.81,1.81-.69.69Z"/><path id="_パス_88486" d="M260.16,172.27c.91-.29,1.84-.48,2.79-.58-.39-1.33-.95-2.61-1.66-3.8l1.07-.43c.1-.05.28-.09.36-.01s-.02.23-.18.4c.63,1.19,1.12,2.44,1.48,3.74.97-.07,1.94-.03,2.9.11v1.22c-.87-.23-1.78-.32-2.68-.29.35,1.94.26,3.93-.27,5.83l-1.17.05c.64-1.86.78-3.87.39-5.8-.95.11-1.89.31-2.8.61l-.22-1.05Z"/><rect id="_長方形_10028" x="267.92" y="163.05" width="9.57" height=".97" transform="translate(-35.76 240.73) rotate(-45)"/><path id="_パス_88487" d="M279.75,152.54c-.6-.76-1.25-1.47-1.94-2.13l1.01-.79c.07-.06.17-.13.24-.06.04.04.08.08-.06.48.54.54,1.04,1.12,1.49,1.74l2.82-2.82c1.06,1.15,2.02,2.4,2.86,3.72.51.72.81,1.57.88,2.45-.05.55-.36.93-1.1,1.77l-1.05-.56c.23-.16.44-.33.63-.53.45-.45.86-.86-.12-2.52-.61-1.05-1.36-2.03-2.21-2.9l-2.14,2.14c.79,1.18,1.38,2.48,1.75,3.84.37,1.29.34,2.67-.09,3.94h-1.17c.42-1.04.52-2.19.29-3.29-.27-1.33-.8-2.59-1.56-3.71l-2.65,2.65-.66-.66,2.78-2.77Z"/><rect id="_長方形_10029" x="286.63" y="144.34" width="9.57" height=".97" transform="translate(-17.05 248.48) rotate(-45)"/><path id="_パス_88488" d="M301.24,133.54c-.53-.25-1.09-.44-1.66-.57-.18.46-.38.96-.88,2.52,2.06.78,4.09,1.66,6.06,2.66l-.31.95c-1.93-1.07-3.95-1.99-6.02-2.75-.5,1.78-.56,1.98-.73,2.48l-1.17-.1c.28-.58.47-1.1,1.06-2.7-.96-.32-1.93-.58-2.92-.78l.53-.98c.9.26,1.68.54,2.7.91.07-.22.39-1.2.47-1.38.24-.66.26-.73.38-1.02-.8-.2-1.63-.24-2.45-.13l.28-.97c.85-.01,1.7.06,2.53.2.22-.46.51-.89.86-1.25.87-.99,2.36-1.11,3.39-.29.73.84.9,2.03.45,3.05-.31.76-.79,1.44-1.41,1.98l-.93-.48c.11-.09.46-.39.67-.6.67-.67,1.71-2.14.66-3.19-.57-.59-1.51-.6-2.1-.03-.03.03-.05.05-.08.08-.27.29-.49.61-.66.96.46.12.57.16,1.57.51l-.31.94Z"/><path id="_パス_88489" d="M194.9,268.77c.92-.4,1.89-.69,2.88-.88l.34,1.03c-1,.13-1.97.4-2.9.8l-.32-.95ZM202.16,263.37c.35,1.72.44,3.47.26,5.21-.13,1.76-.63,3.47-1.46,5.03l-1.16-.24c.82-1.37,1.33-2.89,1.51-4.48.28-1.88.19-3.79-.26-5.63l1.11.1ZM193.76,265.63c.92-.39,1.87-.68,2.85-.85l.31,1c-.99.11-1.96.37-2.87.77l-.29-.93Z"/><path id="_パス_88490" d="M211.9,254.2c0,2.09,0,4.38-2.53,9.74,0,.03.13.35.08.41-.07.07-.23,0-.41-.06l-1.08-.45c2.02-2.94,3.05-6.45,2.94-10.01l1,.37ZM206.21,258.34c-1.04-.1-2.09-.12-3.13-.05v-1.07c1.09-.1,2.19-.09,3.27,0l-.14,1.11Z"/><path id="_パス_88491" d="M217.95,243.88c.12-.11.21-.24.29-.38l.97.09c-.07.66-.02.8.07,1.05,1.25,2.79,1.64,4.16,1.61,6.32-.02,1.11-.2,2.21-.55,3.27l-1.24.12c.63-1.58.86-3.3.67-4.99-.16-1.59-.72-3.11-1.62-4.42l-2.82,2.82c.21,1.27.26,2.56.14,3.84l-1.07.15c.19-1.14.2-2.31.02-3.46-.11-.87-.36-1.71-.75-2.49l.91-.44c.24-.11.35-.03.36,0,.08.08-.02.22-.18.42.11.3.21.59.32.95l2.85-2.85Z"/><path id="_パス_88492" d="M228.61,234.86c-.03.16-.03.33,0,.49.52,1.16.91,2.37,1.17,3.62.55-.11,1.11-.17,1.67-.18l.07,1.05c-.53,0-1.07.03-1.6.1.12.97.1,1.96-.07,2.93-.18,1.05-.54,2.06-1.07,2.98l-1.15-.18c.51-.8.88-1.69,1.08-2.62.22-.96.29-1.95.18-2.93-.85.18-1.69.44-2.49.76l-.12-1c.81-.29,1.63-.53,2.47-.73-.22-1.11-.59-2.18-1.09-3.19l-2.75,2.75c.24,1.29.27,2.6.1,3.9l-1.12.15c.28-1.26.29-2.56.05-3.82-.13-.92-.39-1.83-.76-2.68l1.04-.42c.16-.07.27-.03.31,0,.1.1-.09.38-.17.47.14.4.16.5.38,1.35l2.29-2.29c.2-.21.37-.45.51-.7l1.06.19Z"/><path id="_パス_88493" d="M239.97,226.14c0,2.09,0,4.37-2.53,9.74,0,.03.13.35.08.41-.07.07-.23,0-.41-.06l-1.08-.45c2.02-2.94,3.05-6.45,2.94-10.01l1,.37ZM234.27,230.28c-1.04-.1-2.09-.12-3.13-.05v-1.07c1.09-.1,2.19-.09,3.27,0l-.14,1.11Z"/><path id="_パス_88494" d="M246.01,215.81c.12-.11.21-.24.29-.38l.97.09c-.07.66-.02.8.07,1.05,1.25,2.79,1.64,4.16,1.61,6.32-.02,1.11-.2,2.21-.55,3.27l-1.24.12c.63-1.58.86-3.3.67-4.99-.16-1.59-.72-3.11-1.62-4.42l-2.82,2.82c.21,1.27.26,2.56.14,3.84l-1.07.15c.19-1.14.2-2.31.02-3.46-.11-.87-.36-1.71-.75-2.49l.91-.44c.24-.11.35-.03.36,0,.08.08-.02.22-.18.42.11.3.21.59.32.95l2.85-2.85Z"/><path id="_パス_88495" d="M250.71,214.18c.53-.78,1.02-1.6,1.47-2.44-.52-.76-1.13-1.46-1.8-2.09l1.16-.54c.31.49.55.83,1.15,1.67.2-.31.43-.6.68-.87.54-.54,1.67-1,3.08.4.98.98,1.74,2.15,2.23,3.45.24.7.03,1.47-.52,1.96-.1.1-.22.2-.54.47l-1.06-.46c.3-.22.58-.46.85-.71.23-.23.59-.59.19-1.47-.43-.89-1-1.71-1.69-2.42-.52-.52-1.34-1.22-2.07-.49-.24.27-.45.56-.63.87,1.3,2.01,2.23,4.22,2.76,6.55l-1.08.33c-.1-1.11-.38-2.2-.83-3.23-.36-.97-.85-1.88-1.44-2.73-.09.2-.46,1.06-.54,1.24-.11.29-.25.56-.41.82l-.97-.33ZM254.05,207.29c.97-.04,3.32-.14,4.31.85.67.67.23,1.34-.18,1.97l-1.08-.41c.27-.25.7-.66.39-.97-.24-.19-.53-.32-.83-.36-.86-.18-1.74-.24-2.61-.16v-.92ZM256.14,206.11c-.56-.02-1.13,0-1.68.08l.06-.82c.58-.09,1.16-.14,1.75-.14l-.12.89ZM254.85,203.81c.55-.08,1.1-.12,1.66-.1l-.05.83c-.55-.01-1.14,0-1.61.04v-.77Z"/><path id="_パス_88496" d="M263.13,205.22l2.66,2.66c.84.84.61,1.08-.47,2.15l-.9-.56c.18-.12.34-.25.5-.4.37-.37.2-.54.08-.66l-2.13-2.13c-.16.58-.3,1.03-.42,1.41.1.16.16.25.09.32-.05.05-.16.08-.35,0l-.9-.33c.32-.7.58-1.43.8-2.17l-1.78-1.78-1.24,1.24-.61-.61,1.25-1.25-2.09-2.09.65-.6c.06-.05.22-.19.3-.11.05.05.04.13-.02.34l1.82,1.82.91-.91.61.61-.91.91,1.39,1.39c.12-.52.21-1.05.26-1.59l.76.76c-.05.53-.14,1.06-.27,1.58M271.83,201.53c-1.36.35-2.79.36-4.16.03l3.05,3.05-.68.68-3-3c.25,1.37.29,2.77.12,4.16l-1,.12c.33-1.43.32-2.92-.02-4.36l-1.83,1.83-.59-.59,2.24-2.24-1.29-1.29.68-.63c.07-.07.21-.19.28-.11.05.05.05.08.04.38l.96.96,2.29-2.29.59.59-1.95,1.95c1.44.28,2.92.21,4.32-.22l-.06.97ZM264.68,195.16s-.26.17-.33.22c-.94,1.72-2.13,3.27-3.55,4.62l-.87-.44c.26-.22.67-.58,1.08-.99,1.05-1.05,1.93-2.27,2.59-3.6h.91c.07,0,.13.03.18.07.04.04.03.08,0,.12M263.79,201.24c-.83-.25-1.69-.38-2.56-.41l.2-.83c.84,0,1.67.12,2.48.35l-.12.89ZM264.86,199.2c-.61-.24-1.27-.37-1.93-.37l.15-.79c.68,0,1.36.11,1.99.35l-.21.81ZM265.9,195.88c.3.86.51,1.75.64,2.65l-.87.25c-.05-1.01-.31-2-.77-2.9l.81-.29c.07-.03.21-.05.27.01s0,.14-.09.28"/><path id="_パス_88497" d="M281.05,194.25l-1.16,1.16-1.08-.53c.47-.31.91-.66,1.33-1.05.3-.3.16-.48-.04-.67l-1.54-1.54-2.41,2.41,2.34,2.34-.68.68-2.34-2.34-2.47,2.47c.83,1.13,1.35,2.45,1.51,3.84l-1.02.1c-.19-1.54-.85-2.99-1.9-4.14-.81-.96-1.67-1.82-4.67-4.82l6.79-6.79,7.42,7.42c.49.49.55.81-.07,1.44M273,192.23l-2.33,2.33c.63.6,1.21,1.24,1.74,1.93l2.42-2.42-1.83-1.83ZM270.57,189.8l-2.33,2.33,1.79,1.79,2.33-2.33-1.79-1.79ZM273.66,186.71l-2.41,2.41,1.79,1.79,2.41-2.41-1.79-1.79ZM276.09,189.14l-2.41,2.41,1.83,1.83,2.41-2.41-1.83-1.83Z"/></svg>