<?xml version="1.0" encoding="UTF-8"?><svg id="_レイヤー_1" xmlns="http://www.w3.org/2000/svg" viewBox="0 0 317 317"><defs><style>.cls-1{fill:#beb143;}.cls-2{fill:#231815;}.cls-3{fill:#fff;}.cls-4{fill:#c8bb9b;}.cls-5{fill:#7d0000;}.cls-6{fill:#796a56;}.cls-7{fill:#e50012;}</style></defs><rect id="_長方形_10021" class="cls-3" x="0" y="0" width="317" height="317"/><path id="_パス_88388" d="M70.59,215.83c-.17-3.24-1.06-7.64-5.73-13l2.59-2.2c.07-.07.69-.59.99-.3.1.1,0,.79.03.91.02.17,1.56,2.25,1.73,2.52,3.56,2.07,5.49,1.63,7.76.69l-9.22-9.22-5.59,5.59-2.13-2.13,13.57-13.57,2.13,2.13-5.36,5.36,2.94,2.94,7.32-7.32,2.35,2.35-7.32,7.32,4.67,4.67c.72-.62,1.36-1.21,2.79-2.65,3.04-3.04,4.99-5.44,6.25-6.95l1.8,3.68c-7.02,7.02-9.62,9.62-11.86,10.68-2.46,1.13-5.27,1.28-7.84.42,1.05,2.21,1.66,4.6,1.81,7.04l-3.68,1.02ZM58.21,197.47l2.69,2.69-2.55,2.55-4.89-4.89,8.82-8.82-2.22-2.22,2.82-2.62c.27-.27.69-.64.87-.47.12.12.02,1.01.12,1.11l1.31,1.31,8.68-8.68,4.97,4.97-2.55,2.55-2.77-2.77-15.3,15.3Z"/><path id="_パス_88389" d="M82.9,164.17l2.37-2.03c.25-.2.67-.57.84-.39.1.1.07.32.02.57s-.05.4.07.52l1.01,1.01,1.88-1.88,2.12,2.12-1.88,1.88,8.23,8.23,1.61-1.61,2.12,2.12-11.22,11.22-2.12-2.12,2.15-2.15-8.23-8.23-1.95,1.95-2.13-2.13,1.95-1.95-2.07-2.07,2.1-1.81c.44-.4.91-.82,1.09-.64.1.1.07.37,0,.6-.03.17-.07.32.05.44l1.16,1.16,2.82-2.82-2-2ZM96.32,182.83c.91-.32.96-.27,1.06-.17.2.2.05.44-.12.67.02.24.07.47.15.69.64,2.11,1.02,4.28,1.14,6.48l-3.19.52c-.07-2.5-.61-4.96-1.61-7.24l2.57-.94ZM87.03,168.3l-2.89,2.89,1.71,1.71,2.89-2.89-1.71-1.71ZM90.22,171.49l-2.89,2.89,1.71,1.71,2.89-2.89-1.71-1.71ZM92.37,179.42l2.89-2.89-1.83-1.83-2.89,2.89,1.83,1.83ZM98.47,178.75c1.66.49,3.35.83,5.07,1.01l-.67,3.24c-1.74-.19-3.45-.63-5.07-1.31l.67-2.94ZM103.32,169.51c3.37,4.5,4.03,7.14,4.18,12.04l-3.51.99c.52-7.29-2.05-9.86-9.12-16.93-1.95-2.01-4.01-3.91-6.16-5.71l8.26-8.26,17.45,17.45c1.98,1.98,2.15,3.14-1.28,6.72l-3.41-1.68c.22-.22,1.38-1.23,1.61-1.46.82-.82.47-1.41-.3-2.17l-4.35-4.35-3.36,3.36ZM104.63,164.1l-2.94-2.94-3.21,3.21,1.61,1.61c.3.3.94.99,1.29,1.38l3.26-3.26ZM96.82,156.29l-3.21,3.21,2.82,2.82,3.21-3.21-2.82-2.82Z"/><path id="_パス_88390" d="M106.81,141.16c.59-.3.91-.42,1.06-.27s-.15,1.09-.13,1.26c.2.49,1.16,2.7,1.33,3.11.15.4.35.89.54,1.53.64-.3.97-.42,1.16-.22.12.12.07.42,0,.79-.05.16-.01.33.1.44l15.3,15.3-2.55,2.55-12.18-12.18c.17.77.28,1.54.34,2.32l-3.66.69c-.34-4.88-1.82-9.61-4.32-13.82l3-1.51ZM117.58,129.14c.37-.32.69-.64.92-.42.12.12.05,1.04.17,1.16l1.85,1.85,3.19-3.19,2.27,2.27-3.19,3.19,2.79,2.79,3.76-3.76,2.27,2.27-15.25,15.25-2.27-2.27,3.61-3.61-2.8-2.8-2.92,2.92-2.27-2.27,2.92-2.92-2.92-2.92c.42-.37,2.74-2.49,3.02-2.57.07-.03.16-.02.22.02.08.1.11.22.1.35-.07.47-.07.67.12.87l1.85,1.85,3.02-3.02-2.92-2.92,2.44-2.15ZM138.37,150.92l-.77-.77-6.62,6.62.77.77-2.32,2.32-9.77-9.77,11.35-11.35,9.76,9.76-2.39,2.4ZM130.51,143.06l-6.62,6.62,1.71,1.71,6.62-6.62-1.71-1.71ZM129.21,155l6.62-6.62-1.83-1.83-6.62,6.62,1.83,1.83ZM120.33,136.48l-3.02,3.02,2.8,2.8,3.02-3.02-2.8-2.8Z"/><path id="_パス_88391" d="M130.69,128.1l2.92-2.92-6.05-6.05,2.55-2.15c.45-.4.69-.4.87-.22.12.12.1.19.05.54-.03.18.03.36.15.49l4.92,4.92,2.5-2.5,2.47,2.47-2.5,2.5,7.05,7.05c.63-1.22,1.19-2.47,1.68-3.76l2.6,2.6c-1.71,3.58-1.96,4.03-4.06,7.91-.39.57-.61,1.24-.64,1.93.03.72.05.79-.09.94-.2.2-.45.15-.94-.3l-2.89-2.5c.94-1.16,1.79-2.39,2.55-3.68l-7.72-7.72-2.92,2.92-2.47-2.47ZM135.98,113.91l2.55-2.3s.61-.52.89-.24c.12.12.12.17.1.64-.05.45-.05.5.1.64l5.12,5.12.99-2.32-7.29-7.29,2.64-2.3c.17-.17.72-.62.99-.35.15.15.1.24-.07.72-.12.37-.07.52.07.67l5.12,5.12,2.28-5.34,1.61-.52,8.03,8.03c2.22,2.22,1.85,3.48-.42,6.4l-3.7-1.33c2.32-1.93,1.8-2.45.99-3.26l-4.7-4.7-1.48,3.31,7.66,7.66-2.45,2.45-6.67-6.67-.97,2.35,6.65,6.65c1.24,1.24,1.78,1.23,3.17-.15l4.23-4.23c.77-.77.94-1.33-.99-3.26l3.36-1.63c3.02,3.16,2.89,4.57.74,6.72l-6.8,6.8c-1.58,1.58-2.47,1.88-4.62-.27l-7.21-7.21-1.44,3.51-3.14-1.46,1.98-4.65-7.29-7.29Z"/><path id="_パス_88392" d="M158.72,87.56l2.45-2.15c.37-.32.74-.64.99-.39.12.12-.02.57-.1.84-.03.12.02.25.12.32l.42.42,9.54-9.54,1.9,1.9-9.54,9.54,1.01,1.01,6.25-6.25,4.62,4.62-6.25,6.25,1.01,1.01,7.91-7.91,2.87,2.87,1.53-1.53,1.85,1.85-1.53,1.53,3.86,3.86-2.47,2.47-.91-.91-5.44,5.44,1.8,1.8c1.78,1.78,1.38,3.02-1.68,6.08l-3.63-1.51c.42-.37.92-.77,1.63-1.48.3-.3.96-.96.35-1.58l-.89-.89-7.76,7.76-1.9-1.9,7.76-7.76-1.04-1.04-9.07,9.07-1.85-1.85,9.07-9.07-1.04-1.04-7.76,7.76-1.83-1.83,7.76-7.76-1.01-1.01-6.28,6.28-4.62-4.62,6.28-6.28-1.01-1.01-9.29,9.29-1.9-1.9,9.29-9.29-1.46-1.46ZM164.88,93.72l-3.81,3.81,1.14,1.14,3.81-3.81-1.14-1.14ZM171.13,87.46l-3.83,3.83,1.14,1.14,3.83-3.83-1.14-1.14ZM178.42,91.54l-5.44,5.44,1.04,1.04,5.44-5.44-1.04-1.04ZM181.31,94.43l-5.44,5.44,1.04,1.04,5.44-5.44-1.04-1.04Z"/><path id="_パス_88393" d="M191.87,60c-.31-1.43-.78-2.82-1.38-4.15l3.07-1.14c.39-.15.67-.27.87-.07.12.12.1.2-.2.74-.15.3-.1.64,0,1.29.2,1.23.25,1.43.29,1.93l4.2-4.2,2.08,2.08-4.99,4.99c.44,1.48.47,1.65.72,2.59l4.74-4.74,1.93,1.93-8.06,8.06,1.14,1.14,6.53-6.53,1.85,1.85-6.53,6.53,1.21,1.21,9.17-9.17,2.08,2.08-7.24,7.24c3.81-.5,7.54-1.46,11.12-2.87l.2,3.81c-3.88,1.3-7.92,2.05-12.01,2.23l4.84,4.84-2.47,2.47-4.57-4.57c-.41,4.04-1.24,8.03-2.5,11.89l-3.93.07c1.65-3.72,2.72-7.67,3.16-11.72l-7.46,7.46-2.08-2.08,9.22-9.22-1.21-1.21-6.58,6.58-1.85-1.85,6.58-6.58-1.14-1.14-8.26,8.26-1.93-1.93,5.04-5.04c-1.73-.45-1.93-.49-2.65-.67l-5.02,5.02-2.08-2.08,4.15-4.15c-1.36-.17-3.19-.42-4.11-.44l.72-2.99c1.68.09,3.35.32,4.99.69l-.65,1.78,2.1-2.1-3.33-3.33,2.42-2.07c.2-.15.79-.65,1.04-.4.1.1.07.27.07.32-.15.64-.15.74,0,.89l2.2,2.2,1.83-1.83-3.26-3.26,2.4-2.15c.2-.2.59-.49.82-.27.08.1.11.22.1.35-.2.69-.2.79-.05.94l2.2,2.2,2.2-2.2-1.75.52ZM193.92,66.65c-.18-.87-.44-1.72-.77-2.55l-5.69,5.69c1.53.34,2.25.47,2.72.6l3.73-3.73Z"/><path id="_パス_88394" class="cls-1" d="M175.71,219.88l-14.95,14.95-27.19-8.72-.51.51,17.95,17.95-13.92,13.92-45.51-45.51,15.46-15.46,27.18,9.9.44-.44-18.54-18.54,14.07-14.07,45.51,45.51Z"/><path id="_パス_88395" class="cls-1" d="M162.04,198.15c-6.42-6.42-9.65-12.51-9.67-18.25s3-11.65,9.09-17.73c6.08-6.08,11.93-9.1,17.55-9.05,5.62.05,11.66,3.31,18.14,9.78,6.48,6.48,9.82,12.53,10.04,18.17s-2.76,11.55-8.94,17.73c-6.18,6.18-12.15,9.22-17.92,9.12-5.76-.1-11.86-3.36-18.29-9.78M175.41,172.32c-1.53-.61-3.27.13-3.88,1.66-.29.71-.29,1.51,0,2.22.59,1.13,2.27,3.08,5.05,5.86l1.76,1.76c3.13,3.13,5.28,5.01,6.45,5.64,1.47.68,3.21.04,3.88-1.43.36-.78.36-1.68,0-2.45-1.52-2.22-3.29-4.26-5.27-6.08l-2.05-2.05c-2.83-2.83-4.81-4.54-5.94-5.13"/><path id="_パス_88396" class="cls-1" d="M227.44,169.61c-2.64,2.64-4.97,4.02-7,4.14s-4.04-.82-6.05-2.82c-2-2-2.96-4.01-2.86-6.01s1.49-4.35,4.18-7.04c2.69-2.69,5.02-4.07,7-4.14s3.97.89,5.97,2.9c2,2,2.96,4.01,2.86,6.01-.1,2-1.47,4.32-4.1,6.96"/><path id="_パス_88397" class="cls-1" d="M257.92,137.66l-15.17,15.17-33.12-33.12-5.13,5.13-8.28-8.28,4.03-12.23,12.16-12.16,45.51,45.5Z"/><path id="_パス_88419" d="M164.13,290.39l-2.73,2.73c-2.03,2.03-2.94,2.28-4.94,1.72.38,1.03.48,2.14.28,3.22l-1.04.03c.32-1.37.39-3.16-2.02-6.02l.93-.46c.12-.07.24-.09.31-.03.09.09,0,.25-.07.4.48.66.91,1.34,1.3,2.05.97.49,2.13.41,3.02-.21l-4.06-4.06-2.43,2.43-.61-.61,5.48-5.48.61.61-2.37,2.37,1.61,1.61,2.22-2.22.64.64-2.22,2.22,1.93,1.93c.15-.13.35-.31.78-.74,1.02-1.01,1.98-2.08,2.87-3.21l.51,1.09ZM158.41,285.88l-1.26-1.26-6.54,6.54,1.41,1.41-.68.68-2.02-2.02,3.63-3.63-1.23-1.23.81-.75c.09-.09.21-.18.29-.1.12.12,0,.39-.07.53l.88.88,3.61-3.61,1.87,1.87-.68.68Z"/><path id="_パス_88420" d="M161.1,277.17c.1-.08.27-.21.35-.14s0,.22-.04.3l.93.93.84-.84.56.56-.84.84,3.73,3.73.8-.8.58.58-4.6,4.6-.58-.58,1.02-1.02-3.73-3.73-.92.92-.56-.56.92-.92-1.24-1.24.65-.52s.23-.19.31-.11c.04.04.05.1,0,.33l.92.92,1.51-1.51-1.21-1.21.6-.51ZM165.65,288.77c-.03-1.01-.26-2-.69-2.92l.84-.36c.16-.07.25-.08.32-.02.08.08.04.19-.1.42.31.86.5,1.76.56,2.67l-.92.2ZM162.27,279.46l-1.5,1.5.85.85,1.5-1.5-.85-.85ZM163.65,280.85l-1.5,1.5.88.88,1.5-1.5-.88-.88ZM165.08,282.27l-1.5,1.5.93.93,1.5-1.5-.92-.93ZM166.86,284c.73.16,1.47.24,2.22.22l-.03.91c-.78,0-1.55-.09-2.31-.27l.12-.85ZM168.47,280.63c.98,1.14,1.68,2.48,2.05,3.94l-.94.3c-.51-2.15-1.33-3.29-3.67-5.63-1.06-1.06-2.16-2.12-3.26-3.15l2.95-2.95,7.16,7.16c.36.36.97.97.06,1.88-.07.07-.28.26-.64.55l-.88-.58c.28-.17.55-.35.8-.56.28-.28.12-.51-.09-.73l-1.89-1.89-1.65,1.65ZM169.56,278.42l-1.77-1.77-1.58,1.58c1.07,1.07,1.19,1.19,1.74,1.8l1.61-1.61ZM165.53,274.39l-1.58,1.58,1.7,1.7,1.58-1.58-1.7-1.7Z"/><path id="_パス_88421" d="M176.99,278.08l-.68.68-5.47-5.47c.14.76.23,1.52.29,2.29h-.97c-.1-2.12-.63-4.2-1.56-6.1l.92-.42c.08-.04.17-.03.23.03.07.07,0,.24-.09.38.29.65.53,1.32.73,2,.22-.07.28-.04.33,0s.08.12.1.44l6.17,6.17ZM172.78,265.4l.84-.67c.14-.1.2-.04.22-.02.07.07.03.27,0,.39l.96.96,1.29-1.29.58.58-1.29,1.29,1.27,1.27,1.53-1.53.58.58-5.94,5.94-.58-.58,1.67-1.67-1.27-1.27-1.36,1.36-.58-.58,1.36-1.36-1.34-1.34.71-.58c.08-.06.26-.2.36-.11.05.05.05.08-.02.37l.98.98,1.37-1.37-1.34-1.35ZM174.56,272.59l3.96-3.96,3.92,3.92-.65.65-.49-.49-2.66,2.66.46.46-.65.65-3.89-3.89ZM178.43,269.84l-2.66,2.66.86.86,2.66-2.66-.86-.86ZM179.83,271.24l-2.66,2.66.92.92,2.66-2.66-.92-.92ZM174.7,267.33l-1.36,1.36,1.27,1.27,1.36-1.36-1.27-1.27Z"/><path id="_パス_88422" d="M184.04,269.34c.07.22.1.35.03.42s-.12.05-.31-.05l-.86-.41c.34-.56.64-1.13.91-1.73l-3.43-3.43-1.22,1.22-.64-.64,1.22-1.22-2.37-2.37.8-.59c.08-.07.24-.17.32-.09s.02.19-.05.37l1.99,1.99,1.03-1.03.64.64-1.03,1.03,3.15,3.15c.22-.57.36-1.06.55-1.69l.76.66c-.42,1.28-.91,2.53-1.48,3.76M191.21,263.2l-2.28,2.28c-.7.7-1.09.92-1.83.17l-2.92-2.92-.52,1.58-.88-.24.67-2.09-2.95-2.95.69-.51s.23-.18.33-.08c.06.06.04.13-.02.32l2.22,2.22.47-1.38-2.85-2.85.77-.6c.09-.07.21-.18.3-.09s.06.15-.04.41l2.11,2.11.61-1.97.81-.27c1.18,1.13,2.25,2.38,3.17,3.73.38.76-.05,1.19-.63,1.75l-.87-.44c.62-.62.76-.76.46-1.28-.66-.93-1.43-1.78-2.28-2.54l-.54,1.76,3.19,3.19-.65.65-2.85-2.85-.43,1.42,2.94,2.94c.48.48.69.39,1.15-.07l1.66-1.66c.72-.72.73-.97-.2-2.32l1.04-.18c.95,1.42,1,1.93.15,2.78"/><path id="_パス_88423" d="M192.65,255.03c-.55,0-1.09-.14-1.57-.41l4.62,4.62-.66.66-4.57-4.57c.63,1.08,1.07,2.26,1.27,3.5l-1.03.21c-.23-1.64-.78-3.23-1.63-4.66l-1.12,1.12-.61-.61,1.34-1.34-1.95-1.95.83-.66c.1-.08.19-.13.26-.06.11.11.02.3-.05.44l1.57,1.57.82-.82.61.61-.73.73c.8.4,1.66.64,2.55.7l.05.93ZM197.55,256.8l.27.27-.68.68-3.24-3.24c.04.55,0,1.1-.12,1.64l-.99-.07c.31-1.51.24-3.08-.21-4.55l-1.22,1.22-.56-.56,1.48-1.48c-.16-.48-.36-.95-.61-1.39l-.59.59c.18.53.28,1.08.32,1.64l-.95.25c-.06-1.21-.35-2.39-.85-3.49l.87-.38c.16-.07.2-.05.22-.02.11.11-.05.35-.1.42,0,0,.16.46.24.69l3.26-3.26.56.56-2.81,2.81.7-.25c.07-.02.17-.06.22,0,.09.09.03.18-.08.39.05.12.23.64.27.76l3.1-3.1.56.56-2.21,2.21.91-.31c.07-.03.19-.06.23,0,.11.11-.05.33-.12.42.08.25.15.51.2.77l1.79-1.79.55.55-1.82,1.82.65.65,1.73-1.73.5.5-1.73,1.73.65.65,1.78-1.78.5.5-1.78,1.78.65.65,2.09-2.09.56.56-4.23,4.23ZM195.5,251.78l-1.48,1.48.65.65,1.48-1.48-.65-.65ZM196.66,252.94l-1.48,1.48.65.65,1.48-1.48-.65-.65ZM197.82,254.1l-1.48,1.48.65.65,1.48-1.48-.65-.65ZM193.26,250.82c.21.53.36,1.09.44,1.66l1.17-1.17c-.07-.56-.24-1.09-.51-1.58l-1.09,1.09Z"/><path id="_パス_88424" d="M198.2,247.28c0-1.09-.11-2.19-.35-3.25-.2-1.04-.51-2.05-.92-3.03l.95-.32c.07-.02.23-.06.29,0,.09.09-.03.25-.11.37.17.49.57,2.01.65,2.45.16-.06.36-.13.45-.04.06.06.07.19.07.4l5.97,5.97-.68.68-5.56-5.56c.13.71.2,1.44.21,2.16l-.98.15ZM209.1,244.15c.78.78.29,1.37-.05,1.71l-.75.75-.88-.49c.31-.25.6-.51.88-.78.21-.21.24-.34-.03-.61l-4.44-4.44-3.41,3.41-.65-.65,3.41-3.41-2.29-2.29.79-.61c.1-.08.21-.09.24-.06.07.07.05.25.03.33l1.93,1.93,1.41-1.41.65.65-1.41,1.41,4.56,4.56ZM202.44,243.68c1.03.17,2.06.4,3.07.67l-.24,1.03c-.98-.33-1.99-.57-3.01-.73l.19-.97Z"/><path id="_パス_88425" d="M208.44,230.37c.56.33,1.14.64,1.73.91.35-.82.61-1.68.79-2.55l.83.48c-.19.82-.48,1.61-.85,2.36.49.21.97.39,1.49.57.4-.94.7-1.93.88-2.94l.82.45c-.2.93-.5,1.83-.9,2.69.67.21,1.36.35,2.05.43.2.03,1.04.08,1.2.11l.13,1.2c-.43,0-.85.06-1.25.21-.67.24-1.27.62-1.78,1.12-.57.57-1.43,1.86-.58,2.71.94.94,2.23-.13,2.76-.66.69-.7,1.2-1.55,1.5-2.48l.7.85c-.33.83-.85,1.57-1.52,2.16-.66.72-1.52,1.23-2.48,1.45-.6.04-1.19-.17-1.61-.6-1.14-1.14-.62-2.71.52-3.85.6-.57,1.28-1.04,2.03-1.39-.7-.09-1.39-.23-2.08-.41-.71,1.4-1.62,2.68-2.7,3.82l-.97-.39c.39-.34.53-.48.67-.62.87-.9,1.61-1.93,2.19-3.04-.23-.08-1.32-.44-1.52-.51-.58,1.06-1.29,2.04-2.1,2.93l-1-.36c.29-.25.42-.36.56-.5.69-.7,1.27-1.49,1.75-2.35-.67-.26-1.33-.56-1.96-.9l.68-.88Z"/><path id="_パス_88426" d="M217.04,229.08c-.1-2.19-.71-4.32-1.8-6.23l1.03-.43c.07-.03.18-.05.23,0s0,.18-.12.35c.5,1.23.57,1.42.85,2.25.13-.06.23-.1.3-.04s.07.23,0,.5l5.97,5.97-.65.65-5.11-5.11c.13.63.2,1.28.23,1.92l-.94.15ZM224.3,219.34l-2.55,2.55,1.82,1.82,1.99-1.99.64.64-1.99,1.99,2.24,2.24,2.7-2.7.63.63-6.04,6.04-.63-.63,2.66-2.66-2.24-2.24-1.93,1.93-.64-.64,1.93-1.93-1.82-1.82-2.44,2.44-.65-.65,5.68-5.68.65.65ZM218.21,219.88c.97-.06,1.95-.01,2.92.15l-.18,1.03c-.92-.17-1.85-.23-2.78-.19l.04-.99Z"/><path id="_パス_88427" d="M232.51,216.68l1.68,1.68c.4.4.58.39,1.02-.05l1.76-1.76c.51-.51.43-.92-.46-2.22l.99-.26c1.2,1.85.97,2.28,0,3.25l-1.71,1.71c-.25.33-.61.57-1.02.66-.43.03-.85-.16-1.1-.51l-1.8-1.8-3.24,3.73-.67-.58,3.29-3.78-1.32-1.32c-.6.78-.93,1.22-1.49,1.82l-1.03-.24c1.54-1.53,2.74-3.37,3.52-5.41l.92-.07c.07-.02.15,0,.21.05.09.09-.07.25-.27.46-.36.89-.8,1.75-1.33,2.56l1.41,1.41,3.67-4.25.69.58-3.74,4.31ZM232.91,210.75l-1.17-1.17-6.51,6.51,1.41,1.41-.68.68-2.05-2.05,3.55-3.55-1-1,.81-.68c.07-.05.2-.16.28-.07.05.05.04.07-.02.37l.65.65,3.59-3.59,1.81,1.81-.68.68Z"/><path id="_パス_88428" d="M240.28,211.47c.27.78.43,1.59.49,2.41l-.94.34c-.02-.94-.18-1.88-.48-2.78l.8-.34c.12-.05.19-.06.23,0,.08.08.03.16-.11.37M232.78,206.19l3.1-3.1,5.72,5.72-3.1,3.1-5.72-5.72ZM235.83,204.32l-1.82,1.82,1.12,1.12,1.82-1.82-1.12-1.12ZM237.53,206.02l-1.82,1.82,1.12,1.12,1.82-1.82-1.12-1.12ZM239.23,207.72l-1.82,1.82,1.15,1.15,1.82-1.82-1.15-1.15ZM242.4,211.23c-.56,0-1.11-.09-1.64-.27l.22-.8c.51.14,1.04.2,1.56.2l-.15.88ZM248.54,206.45c-.95.25-1.94.29-2.91.12.07,1.07-.06,2.15-.39,3.17l-1.09.03c.47-1.08.64-2.27.5-3.44-1.41-.44-2.74-1.12-3.92-2.01l-.38.38c1.79,1.72,3.03,3.93,3.57,6.36l-1.02.29c-.2-1.94-.72-3.52-3.91-6.71-.43-.43-.77-.77-2.45-2.22l4.23-4.23.61.61-3.51,3.51c.68.64.94.89,1.83,1.78l2.94-2.94.46.04c1.07,1.31,1.87,2.82,2.37,4.44,1.02.18,2.07.12,3.07-.15l-.02.99ZM241.36,203.7c.94.72,1.99,1.28,3.11,1.65-.42-1.1-.99-2.13-1.68-3.08l-1.43,1.43Z"/><path id="_パス_88429" d="M250.34,198.96c1.46,1.87,1.86,3.06.18,5.41l-1.2-.22c1.52-1.61,2.06-2.81-.15-4.96l.72-.55c.09-.07.28-.21.37-.11.07.07.07.3.07.43M254.41,194.93l-1.03-1.03-6.45,6.45,1,1-.68.68-1.63-1.63,7.82-7.82,1.66,1.66-.68.68ZM247.6,193.8l.95.95,2.95-2.95.64.64-6.6,6.6-.64-.64,2.97-2.97-.95-.95-3.56,3.56-.63-.63,3.56-3.56-.93-.93.66-.63c.06-.06.26-.24.36-.14.05.05.07.12.01.44l.57.57,3.52-3.52.63.63-3.52,3.53ZM256.8,197.75l-1.64,1.64c-.65.65-1.01.77-1.67.1l-2.3-2.3.67-.62c.08-.08.26-.21.36-.1.08.08.04.26.02.36l1.71,1.71c.26.26.39.36.77-.02l1.09-1.09c.35-.35.49-.49-.24-1.4l.98-.31c.96,1.32.64,1.63.25,2.03"/><path id="_パス_88430" d="M262.99,183.36c-.6.25-1.22.44-1.85.56l.58.58-2.37,2.37,1.32,1.32,2.29-2.29.63.63-2.29,2.29,1.59,1.59,3.49-3.49.63.63-7.62,7.62-.63-.63,3.43-3.43-1.59-1.59-2.37,2.37-.63-.63,2.37-2.37-1.29-1.29-2.41,2.41-.42-.42c-.11.61-.26,1.2-.46,1.79h-1.12c1.02-2.57,1.14-5.42.32-8.06l1.13-.42s.22-.09.31,0c.1.1.04.28,0,.39,2.35.29,4.73-.07,6.89-1.03l.09,1.12ZM255.87,184.16c.26,1.61.28,3.25.05,4.87l5.06-5.06c-1.68.35-3.41.42-5.11.2"/><path id="_パス_88431" d="M275.65,179l-.32-.32-6.13,6.13.32.32-.68.68-7.84-7.84,7.5-7.5,7.84,7.84-.68.68ZM268.44,171.8l-6.13,6.13,6.24,6.24,6.13-6.13-6.24-6.24ZM268.11,182.76l-.61-.61,2.29-2.29-1.41-1.41-1.64,1.64-.59-.59,1.64-1.64-1.26-1.26-1.97,1.97-.59-.59,4.6-4.6.59.59-1.97,1.97,1.26,1.26,1.56-1.56.59.59-1.56,1.56,1.41,1.41,2.19-2.19.61.61-5.14,5.14ZM271.3,178.05c-.45-.14-.92-.22-1.39-.22l.09-.85c.48,0,.95.05,1.41.18l-.1.89Z"/><path id="_パス_88432" d="M284.61,169.11l-9.42-1.73,5.57,5.57-.84.84-6.82-6.82.84-.84,9.43,1.74-5.58-5.58.85-.85,6.82,6.82-.85.85Z"/><path id="_パス_88433" d="M289.02,165.07c-1.2,1.2-3.2,1.55-5.05-.3s-1.51-3.84-.3-5.05,3.2-1.55,5.05.3,1.5,3.85.3,5.05M284.27,160.32c-.94.94-.62,2.49.52,3.63s2.68,1.45,3.62.51.64-2.47-.51-3.62-2.68-1.47-3.63-.52"/><rect id="_長方形_10026" x="291.44" y="159.86" width="1.42" height="1.42" transform="translate(-27.97 253.61) rotate(-45)"/><path id="_パス_88434" d="M296.48,157.24l-4.99-4.99-1.44,1.44-.61-.61c.89-.69,1.07-1.96.43-2.88l.65-.65,6.82,6.82-.86.86Z"/><path id="_パス_88498" class="cls-4" d="M52.11,95.18v21.01s-9.62,0-9.62,0v12.8h22.42s0-33.81,0-33.81h-12.8Z"/><rect id="_長方形_10030" class="cls-6" x="42.49" y="129" width="22.42" height="4.58"/><rect id="_長方形_10031" class="cls-5" x="39.31" y="107.98" width="10.39" height="4.93"/><path id="_パス_88499" class="cls-7" d="M49.7,95.18h-23.19s0,38.4,0,38.4h12.8s0-25.6,0-25.6h10.39s0-12.8,0-12.8Z"/><path id="_パス_88500" class="cls-2" d="M66.15,72.08l-1.8-1.8-8.3,8.3,1.8,1.8,3.08-3.08,9.26,9.26,2.14-2.14-9.26-9.26,3.08-3.08Z"/><path id="_パス_88501" class="cls-2" d="M69.94,64.4c-3.34,3.34-3.45,6.92-.3,10.06l1.59,1.59c3.15,3.15,6.72,3.04,10.06-.3,3.36-3.36,3.47-6.94.32-10.08l-1.59-1.59c-3.15-3.15-6.73-3.03-10.08.32M79.47,67.8c2.08,2.08,2.09,4.1.03,6.16s-4.05,2.03-6.14-.06l-1.59-1.59c-2.08-2.08-2.1-4.09-.06-6.14s4.08-2.05,6.16.03l1.59,1.59Z"/><path id="_パス_88502" class="cls-2" d="M91.84,65.2c2.37-2.37,2.6-4.99.6-6.99-1.85-1.85-3.67-1.86-6.71-.04-1.78,1.07-3,1.5-3.96.55-.82-.82-.7-1.89.34-2.93.8-.98,2.1-1.41,3.33-1.12l.46-2.74c-1.94-.38-3.81.31-5.58,2.08-2.39,2.39-2.64,4.88-.68,6.84,1.77,1.77,3.83,1.82,6.68.17,2.19-1.29,3.23-1.44,4.08-.59.49.49,1.08,1.55-.49,3.11-.88,1.01-2.21,1.52-3.54,1.35l-.5,2.75c2.16.26,4.01-.5,5.97-2.47"/><path id="_パス_88503" class="cls-2" d="M104.32,52.42l2.14-2.14-11.06-11.06-2.14,2.14,4.44,4.44-5.07,5.07-4.44-4.44-2.14,2.14,11.06,11.06,2.14-2.14-4.83-4.83,5.07-5.07,4.83,4.83Z"/><rect id="_長方形_10032" class="cls-2" x="103.14" y="33.21" width="3.03" height="15.64" transform="translate(1.64 86.02) rotate(-45)"/><path id="_パス_88504" class="cls-2" d="M120.83,35.91l1.8-1.8-11.06-11.06-2.03,2.03,7.16,7.16-12.08-2.24-1.78,1.78,11.06,11.06,2.03-2.03-7.06-7.06,11.96,2.16Z"/><path id="_パス_88505" class="cls-2" d="M83.62,79.82l2.2,6.3-6.28-2.22-2.48,2.48,9.98,3.09,4.53,4.53,2.14-2.14-4.53-4.53-3.09-9.98-2.46,2.46Z"/><path id="_パス_88506" class="cls-2" d="M102.97,82.87c2.73-2.73,2.59-5.87-.39-8.85l-6.58-6.58-2.14,2.14,6.6,6.6c1.95,1.95,2.18,3.46.73,4.91s-2.96,1.22-4.91-.73l-6.6-6.6-2.14,2.14,6.6,6.6c4.01,4.01,7.26,1.95,8.84.37"/><path id="_パス_88507" class="cls-2" d="M108.16,67.86l7.65,1.89,2.56-2.56-10.65-2.55-1.09-7.82-2.53,2.53,1.33,8.59-4.96-4.96-2.14,2.14,11.06,11.06,2.14-2.14-2.92-2.92-.45-3.24Z"/><path id="_パス_88508" class="cls-2" d="M112.65,54.39l4.7-4.7-1.8-1.8-6.84,6.84,11.06,11.06,6.84-6.84-1.79-1.79-4.7,4.7-3.05-3.05,4.21-4.21-1.78-1.78-4.21,4.21-2.64-2.64Z"/><path id="_パス_88509" class="cls-2" d="M84.72,96.81l-9.05-9.05-2.14,2.14,9.05,9.05c1.84,1.84,2.09,3.1.86,4.33l-1.34,1.34,1.78,1.78,1.49-1.49c2.51-2.51,2.3-5.16-.65-8.1"/><path id="_パス_88510" class="cls-2" d="M135.24,50.31l1.8-1.8-11.06-11.06-2.03,2.03,7.16,7.16-12.08-2.24-1.78,1.78,11.06,11.06,2.03-2.03-7.06-7.06,11.96,2.16Z"/></svg>