<?xml version="1.0" encoding="UTF-8"?><svg id="_レイヤー_1" xmlns="http://www.w3.org/2000/svg" viewBox="0 0 317 317"><defs><style>.cls-1{fill:#beb143;}.cls-2{fill:#fff;}.cls-3{fill:#0b57a6;}</style></defs><rect id="_長方形_10022" class="cls-2" x="0" y="0" width="317" height="317"/><g id="_グループ_21338"><g id="_グループ_21337"><path id="_パス_88381" class="cls-3" d="M39.55,146.99l-15.87-15.87,5.9-5.9c2.81-2.81,5.81-3.61,8.84-.58,1.43,1.43,2.12,3.05,1.49,4.98l.05.05c2.56-1.99,5.07-1.41,7.27.79,3.32,3.32,1.58,7.26-1.32,10.17l-6.36,6.35ZM40.53,139.72l.53-.53c1.22-1.22,3.35-3.22,1.6-4.98-1.91-1.91-3.76.32-5.11,1.67l-.42.42,3.41,3.41ZM34.05,133.24l.46-.46c1.1-1.1,2.05-2.42.7-3.77-1.45-1.45-2.82-.25-3.94.86l-.3.3,3.08,3.08Z"/><path id="_パス_88382" class="cls-3" d="M53.6,125.98l4.95-4.95,3.48,3.48-9.07,9.07-15.87-15.87,4.12-4.12,12.38,12.38Z"/><path id="_パス_88383" class="cls-3" d="M60.42,94.39l8.93,8.93c2.03,2.03,3.97,4.15,3.93,7.26-.02,2.63-1.64,5.18-3.49,7.03s-4.39,3.47-7.03,3.5c-3.11.04-5.22-1.9-7.25-3.94l-8.93-8.93,4.12-4.12,8.36,8.36c2.05,2.05,4.45,4.16,7.1,1.51s.55-5.05-1.51-7.1l-8.36-8.36,4.12-4.12Z"/><path id="_パス_88384" class="cls-3" d="M69.81,91.99l2.66,2.66,4.65-4.65,3.48,3.48-4.65,4.65,2.75,2.75,4.9-4.9,3.48,3.48-9.03,9.03-15.87-15.87,9.03-9.03,3.5,3.5-4.9,4.9Z"/><path id="_パス_88385" class="cls-3" d="M95.95,90.6l-15.87-15.87,5.88-5.88c2.82-2.82,5.81-3.61,8.84-.58,1.43,1.43,2.12,3.05,1.49,4.98l.05.05c2.56-1.99,5.06-1.41,7.27.79,3.32,3.32,1.58,7.26-1.32,10.16l-6.35,6.34ZM96.91,83.33l.52-.52c1.22-1.22,3.34-3.22,1.59-4.97-1.91-1.91-3.76.32-5.1,1.67l-.42.42,3.41,3.41ZM90.44,76.85l.46-.46c1.09-1.09,2.04-2.42.69-3.77-1.45-1.45-2.82-.25-3.94.86l-.29.29,3.08,3.08Z"/><path id="_パス_88386" class="cls-3" d="M118.28,51.81c5.14,5.14,5.08,12.43-.02,17.52-5.09,5.09-12.4,5.16-17.53.03-4.8-4.8-3.96-12.37.61-16.94,4.57-4.57,12.14-5.4,16.93-.6M105.05,65.1c2.34,2.61,6.36,2.82,8.96.48s2.82-6.36.48-8.96c-.15-.17-.31-.33-.48-.48-2.65-2.3-6.66-2.03-8.96.62-2.08,2.39-2.08,5.95,0,8.35"/><path id="_パス_88387" class="cls-3" d="M110.92,43.89l5.07-5.07,6.53,1.69-1.68-6.53,5.07-5.07,2.32,12.45,14.35,2.61-4.97,4.97-8.5-1.84,1.53,8.81-4.99,4.99-2.27-14.69-12.45-2.32Z"/><path id="_パス_88398" d="M57.37,192.39c.91-.27,1.29-.4,1.53-.15.12.12.1.3-.1.64-.37.67-.37.72-.25,1.04,1.47,2.98,2.52,6.15,3.14,9.42,2.26.15,4.51.42,6.75.82l-.05,4.3c-2-.59-4.07-.95-6.15-1.06.36,4.91-.25,9.85-1.78,14.53l-4.72-.02c2.07-4.57,2.88-9.62,2.35-14.61-2.35.04-4.7.27-7.02.69l-.45-3.95c2.26-.47,4.56-.73,6.87-.79-.75-3.4-2.02-6.67-3.76-9.69l3.64-1.16Z"/><path id="_パス_88399" d="M74.89,187.96c-2.53-1.11-5.25-1.72-8.01-1.78l.79-3.66c2.9-.05,5.78.53,8.43,1.71l-1.22,3.73ZM82.43,197.32c5.29-10.04,4.13-17.42-2.57-27.88l3.56-1.53c.82-.37,1.09-.49,1.29-.3.17.17.2.4,0,.79-.2.45-.25.6.3,1.58,4.47,8.38,6.87,14.83,1.95,27.46l-4.53-.13ZM79.81,167.96c-1.43-.36-2.9-.53-4.37-.52l.52-2.2c1.51-.15,3.03-.05,4.5.29l-.64,2.42ZM83.67,164.1c-1.57-.34-3.17-.53-4.77-.57l.49-2.23c1.67-.15,3.36.03,4.97.52l-.69,2.27Z"/><path id="_パス_88400" d="M107.85,163.9c-.72,3.23-1.84,6.35-3.36,9.3l-3.98-1.01c3.51-5.65,5.06-12.29,4.43-18.91l-9.39,9.39-2.57-2.57,11.15-11.15c.37-.37.49-.79.52-1.85l4.35.44c-.53,1.02-.72,2.18-.54,3.31.2,2.72.23,5.44.1,8.16l9.44,9.44-2.79,2.79-7.34-7.34ZM101.17,150.6c-2.83.62-5.57,1.59-8.16,2.87l-1.26-3.49c2.67-1.34,5.48-2.37,8.38-3.09l1.04,3.71ZM120.23,158.24c-3.2-.17-6.41.2-9.49,1.09l-.12-3.58c2.91-1.14,6.03-1.64,9.15-1.48l.47,3.98Z"/><path id="_パス_88401" d="M125.1,141.66c-1.8-.88-3.71-1.49-5.69-1.83l1.16-2.8c2.02.3,3.99.93,5.81,1.85l-1.29,2.77ZM133.19,147.72c3.48-8.23,1.93-14.14-3.29-21.93l2.44-1.31c.74-.39.99-.49,1.14-.34s.1.39.05.64c-.09.24-.04.51.12.72,2.69,4.67,6.85,11.64,3.14,22.07l-3.61.15ZM128.59,136.05c-1.73-1.04-3.63-1.79-5.61-2.2l1.09-2.67c2.06.43,4.04,1.16,5.88,2.18l-1.36,2.69Z"/><path id="_パス_88402" d="M149.72,108.33c4.28-1.77,8.87-2.66,13.5-2.62l.69,4.3c-4.22-.4-8.46.27-12.36,1.93l10.73,10.73-2.72,2.72-20-20,2.6-1.85c.87-.62,1.24-.79,1.44-.59.11.16.14.36.1.54-.05.54-.02.57.13.72l6.62,6.62-.73-2.5Z"/><path id="_パス_88403" d="M169.53,91.15l-2.55,2.55-2.77-2.77c-.02.77-.05,1.18-.15,2.18l-3.34.12c.39-5.19-.22-8.13-.67-9.42l3.14-1.26c.3-.1.47-.17.59-.05s.1.3,0,.59c.04.95.13,1.9.27,2.84.54-.15.77-.17.92-.02s.37,1.06.49,1.19l4.05,4.05ZM188.24,90.63c2.57-.78,4.96-2.04,7.07-3.71l.27,3.98c-.72.52-3.31,2.32-9.37,3.78l.3-2.32-4.57,4.57,1.71.07c.26-.02.51.06.72.22.12.12.1.3-.05.45-.07.07-.32.22-.44.34-.14.17-.24.38-.3.59-.79,2.74-2,5.35-3.58,7.73l-3.9-.2c1.72-2.21,3.06-4.69,3.98-7.34l-3.21,3.21-8.53-8.53,14.26-14.26,8.53,8.53-2.86,2.87ZM181.76,83.46l-9.22,9.22.89.89,9.22-9.22-.89-.89ZM183.84,85.54l-9.22,9.22.87.87,9.22-9.22-.86-.87ZM185.89,87.59l-9.22,9.22.96.96,9.22-9.22-.96-.97ZM180.45,71.08l1.71,1.71-6.18,6.18,1.01,1.01,5.34-5.34,1.71,1.71-12.46,12.46-1.71-1.71,4.5-4.5-1.01-1.01-5.68,5.68-1.71-1.71,5.68-5.68-.97-.97c-1.39,1.58-2.67,3.02-4.15,4.5l-2.55-1.26c5.73-5.54,8.21-9.15,10.04-12.26l2.94.62c.27.07.42.07.49.15.1.1.07.22-.03.32-.17.17-.57.42-.69.55-.2.2-3.36,4.15-3.66,4.55l1.19,1.19,6.18-6.18Z"/><path id="_パス_88404" d="M187.17,57.98c.37-.07.84-.15.99,0,.17.17.1.3-.18.67-.2.25-.15.49-.05,1.24.07.57.1.99.12,1.36.32-.07.59-.1.79.1.22.22.2.54.15.94-.03.2.04.41.2.54l2.99,2.99-2.4,2.4-1.85-1.85c-.13,1.26-.15,1.43-.27,2.45h-3.46c.65-3.38.57-6.86-.22-10.21l3.19-.62ZM196.69,50.94c-.75.15-1.48.38-2.18.69l-.15-2.92c1.21-.42,2.45-.75,3.71-.99l.05,1.28,3.26-4.2,2.42,1.78-5.31,6.9c2.47-.2,4.43-.91,4.94-1.43s.69-1.19-.82-2.94l3.41-.59c1.38,2.08,1.83,3.91.64,5.09-.27.28-.58.52-.92.72l8.82,8.82-3.31,3.31c2.79-.75,5.45-1.89,7.91-3.41l.45,4.05c-3.29,1.54-6.73,2.74-10.26,3.58l.07-2.4-4.62,4.62h2.27c.2,0,.32-.02.42.07s.1.24-.05.4c-.38.31-.65.72-.79,1.19-.65,2.76-1.62,5.44-2.89,7.98l-3.86-.4c1.6-2.36,2.75-4.99,3.41-7.76l-3.58,3.58-9.34-9.34,13.05-13.05c-2.34.99-4.89,1.37-7.42,1.09l-4.8,6.23-2.37-1.83,3.88-5.02c-1.27-.44-2.49-1.01-3.64-1.71l2.94-2.84c.35-.35.62-.57.79-.4.15.15-.05,1.08.08,1.21.64.36,1.33.64,2.05.82l1.71-2.2ZM204.5,58.1l-9.79,9.79,1.09,1.09,9.79-9.79-1.09-1.09ZM206.8,60.4l-9.79,9.79,1.09,1.09,9.79-9.79-1.09-1.09ZM209.12,62.73l-9.79,9.79,1.16,1.16,9.79-9.79-1.16-1.16Z"/><path id="_パス_88405" class="cls-1" d="M171.43,221.1l-14.95,14.95-27.19-8.72-.51.51,17.95,17.95-13.92,13.92-45.51-45.51,15.46-15.46,27.19,9.89.44-.44-18.54-18.54,14.07-14.07,45.5,45.51Z"/><path id="_パス_88406" class="cls-1" d="M157.77,199.37c-6.42-6.42-9.65-12.51-9.67-18.25-.02-5.74,3-11.65,9.08-17.73,6.08-6.08,11.93-9.1,17.55-9.05s11.66,3.31,18.14,9.78c6.48,6.48,9.82,12.53,10.04,18.17.22,5.64-2.76,11.55-8.94,17.73-6.18,6.18-12.15,9.22-17.92,9.12-5.76-.1-11.86-3.36-18.28-9.78M171.14,173.54c-1.53-.61-3.27.13-3.88,1.66-.29.71-.29,1.51,0,2.22.59,1.13,2.27,3.08,5.05,5.86l1.76,1.76c3.13,3.13,5.28,5.01,6.45,5.64,1.47.68,3.2.04,3.88-1.42.36-.78.36-1.68,0-2.46-1.52-2.22-3.29-4.26-5.27-6.08l-2.05-2.05c-2.83-2.83-4.81-4.54-5.94-5.13"/><path id="_パス_88407" class="cls-1" d="M223.16,170.83c-2.64,2.64-4.97,4.02-7,4.14-2.03.12-4.04-.82-6.05-2.82-2-2-2.96-4.01-2.86-6.01s1.49-4.35,4.18-7.04c2.69-2.69,5.02-4.07,7-4.14,1.98-.07,3.97.89,5.97,2.9,2,2,2.96,4.01,2.86,6.01s-1.47,4.32-4.1,6.96"/><path id="_パス_88408" class="cls-1" d="M253.65,138.88l-15.17,15.17-33.12-33.12-5.13,5.13-8.28-8.28,4.03-12.23,12.16-12.16,45.51,45.5Z"/><path id="_パス_88435" d="M141.66,287.95l.56.56-1.42,1.42c.37.04.74.11,1.09.21l-.26.9c-.52-.19-1.06-.3-1.61-.34l-.4.4c.07.71.09,1.1.1,1.54l-.94.03c.02-1.14-.17-2.27-.56-3.35l.92-.32c.15-.06.24-.07.31,0,.09.09-.07.31-.15.41.07.3.1.44.17.73l2.2-2.2ZM142.98,285.43c.08-.03.21-.06.24-.02.06.06-.03.2-.15.37.03.16.08.4.09.5l2.75-2.75.56.56-1.85,1.85c.38.03.76.11,1.12.24l-.18.85c-.56-.18-1.14-.28-1.72-.32l-.55.55c.05.44.06.73.07,1.1.27-.23.3-.26.4-.17s.06.19.03.36l.36.36,3.54-3.54,1.9,1.9-.66.66-1.31-1.31-6.58,6.58,1.38,1.38-.65.65-1.97-1.97,3.58-3.58-.73-.73.69-.58-.8.17c0-.97-.16-1.94-.48-2.85l.92-.3ZM147.38,296.64l.29.29-.66.66-4.66-4.66,4.73-4.73,1.8,1.8-4.07,4.07.53.53,4.57-4.57,2.27,2.27-.66.66-.24-.24-3.91,3.91ZM146.96,289.41l-3.4,3.4.73.73,3.4-3.4-.73-.73ZM149.83,291.26l-3.92,3.92.91.91,3.92-3.92-.91-.91Z"/><path id="_パス_88436" d="M155.68,284.3c-.79,2.06-1.35,3.29-1.76,4.18.05.12.11.28.05.35s-.24,0-.31-.03l-.9-.39c.21-.36.66-1.13,1.04-1.89l-2.4-2.4-1.17,1.17-.64-.64,1.17-1.17-2.02-2.02-1.24,1.24-.61-.61,3.11-3.11.61.61-1.22,1.22,2.02,2.02,1.22-1.22.64.64-1.22,1.22,2.18,2.18c.45-.94.65-1.47.84-1.98l.61.65ZM157.41,286.67l-.61-.61,2.46-2.46-1.34-1.34-1.66,1.66-.61-.61,1.66-1.66-1.07-1.07-1.81,1.81-4.18-4.18,4.28-4.28,4.18,4.18-1.82,1.82,1.07,1.07,1.78-1.78.61.61-1.78,1.78,1.34,1.34,2.34-2.34.61.61-5.45,5.45ZM152.68,277.02l-1.15,1.15,1.15,1.15,1.15-1.15-1.15-1.15ZM154.41,278.75l-1.15,1.15,1.23,1.23,1.15-1.15-1.23-1.23ZM154.5,275.19l-1.17,1.17,1.15,1.15,1.17-1.17-1.15-1.15ZM156.23,276.92l-1.17,1.17,1.23,1.23,1.17-1.17-1.23-1.23Z"/><path id="_パス_88437" d="M163.18,274.98l3.24,3.24-.68.68-2.93-2.93c-.26.68-.36.92-.67,1.66.03.14.1.46.04.52s-.21-.03-.32-.09l-.89-.57c.41-.73.78-1.49,1.1-2.26l-2.03-2.03-.8.8c.36.69.48.96.81,1.73l-.88.39c-.53-1.36-1.24-2.64-2.11-3.8l.92-.47c.11-.06.23-.06.27-.01.07.07-.03.23-.08.34.3.47.38.61.62.99l.62-.62-2.04-2.04.76-.65c.09-.07.19-.16.26-.09.05.05.05.08,0,.39l1.71,1.71.85-.85.64.64-.85.85,1.72,1.72c.19-.5.33-.98.47-1.48l.73.73c-.17.58-.3.97-.47,1.48M170.82,271.98c.53,1.08.05,1.56-.95,2.56l-.93-.48c.18-.16.37-.34.55-.51.75-.75.64-1.12-.22-2.25-1.18-1.47-2.46-2.86-3.82-4.16l-.39.39c2.08,2.37,3.24,5.41,3.25,8.56l-1.02.1c.13-2.95-.9-5.83-2.87-8.03l-.63.63c1.37,1.96,2.13,4.28,2.19,6.68l-.98.05c.02-1.11-.15-2.21-.5-3.26-.33-.99-.79-1.93-1.37-2.8l-.68.68c.22.66.38,1.35.48,2.04l-.94.36c-.19-1.8-.76-3.53-1.68-5.09l.87-.46c.08-.05.21-.12.29-.05.1.1-.07.33-.12.38.43.9.58,1.27.81,1.88l3.34-3.34c1.49,1.47,4.53,4.49,5.33,6.1"/><path id="_パス_88438" d="M168.08,260.59c.37.82.68,1.68.91,2.55.2-.1.25-.14.34-.06s.06.17.03.36l5.97,5.97-.66.66-5.34-5.34c.1.61.17,1.23.21,1.85l-1.01.16c-.07-2.15-.57-4.26-1.48-6.21l.95-.36c.07-.03.17-.06.23,0,.08.08.02.19-.15.37M176.54,262.32l2.95,2.95-.68.68-2.95-2.95-2.73,2.73-.66-.66,2.73-2.73-2.28-2.28-1.71,1.71c.17.65.25.95.35,1.54l-.95.37c-.18-1.47-.6-2.9-1.26-4.23l.95-.37c.05-.02.18-.07.22-.02.09.09.02.22-.09.39.29.76.41,1.08.48,1.3l1.35-1.35-1.97-1.97.78-.63s.2-.16.29-.07c.07.07.06.15,0,.39l1.59,1.59,2.09-2.09.66.66-2.09,2.09,2.28,2.28,2.43-2.43.66.66-2.43,2.43Z"/><path id="_パス_88439" d="M186.29,255.89c.37-.67.61-1.4.71-2.15.11-1.27-.33-2.52-1.23-3.43-1.02-1.02-2.52-1.38-3.9-.94-.57.24-1.1.59-1.54,1.03,1.31,1.53,2.33,3.29,3.01,5.18.44,1.22.75,2.54.2,3.09-.79.79-2.81.39-4.16-.96-2.11-2.15-2.08-5.59.07-7.7.02-.02.05-.05.07-.07,1.96-1.96,4.87-2.4,6.95-.33,2.55,2.55,1.19,5.71.85,6.5l-1.04-.21ZM178.82,254.57c.12.93.53,1.8,1.19,2.48,1,1,2.33,1.19,2.7.81.2-.2.42-.42-.47-2.53-.64-1.53-1.52-2.95-2.6-4.21-.75.98-1.05,2.23-.82,3.44"/><path id="_パス_88440" d="M189.11,243.75c.91-.29,1.84-.48,2.79-.58-.39-1.33-.95-2.61-1.66-3.8l1.07-.43c.1-.05.28-.09.36-.01s-.02.23-.18.4c.63,1.19,1.12,2.44,1.48,3.74.97-.07,1.94-.03,2.9.11v1.22c-.87-.23-1.78-.32-2.68-.29.35,1.94.26,3.93-.27,5.83l-1.17.05c.64-1.86.78-3.86.39-5.8-.95.11-1.89.31-2.8.61l-.23-1.05Z"/><path id="_パス_88441" d="M196.42,234.99c1.02.08,2.03.26,3.02.53l-.23,1.08c-.94-.29-1.92-.48-2.9-.56l.11-1.05ZM202.21,240.3c.98-1.57,1.37-3.45,1.09-5.28-.25-1.93-.95-3.78-2.04-5.4l1.12-.43c.15-.06.28-.04.34.02.09.09-.04.26-.15.39,1.27,2.71,1.93,4.26,1.87,6.88-.03,1.32-.34,2.62-.92,3.81h-1.32ZM200.91,229.19c-.55-.09-1.1-.12-1.66-.1l.17-.8c.55,0,1.11.04,1.66.1l-.17.8ZM201.8,227.66c-.54-.11-1.1-.15-1.66-.1l.17-.81c.55-.03,1.11,0,1.66.1l-.17.8Z"/><path id="_パス_88442" d="M211.33,226.7c-.28,1.37-.75,2.69-1.38,3.93l-1.21-.15c.88-1.33,1.48-2.83,1.75-4.4.24-1.12.27-2.28.07-3.41l-3.99,3.99-.63-.63,4.1-4.1c.16-.28.29-.57.39-.88l1.31.24c-.19.41-.21.46-.2.68.13,1.14.14,2.29.03,3.43l3.7,3.7-.76.76-3.17-3.17ZM205.56,222.35c1-.55,2.07-.97,3.19-1.24l.24.97c-1.07.27-2.11.64-3.11,1.11l-.32-.84ZM212.52,224.44c1.1-.27,2.23-.43,3.36-.49l.05,1.02c-1.12.02-2.23.17-3.32.44l-.09-.97Z"/><path id="_パス_88443" d="M217.27,217.54c.69.16,1.36.39,2.01.68l-.27.76c-.64-.3-1.31-.53-2-.69l.26-.75ZM222.32,221.32c.74-1.31.99-2.84.7-4.31-.29-1.5-.98-2.9-1.99-4.05l.67-.3c.28-.15.38-.16.43-.11.07.07.05.1-.07.35.79,1.23,1.36,2.59,1.71,4.01.28,1.46.12,2.96-.46,4.33l-1,.08ZM218.61,215.34c.69.14,1.36.36,2,.67l-.3.73c-.64-.29-1.31-.51-1.99-.68l.29-.72Z"/><path id="_パス_88444" d="M228.56,205.39c1.55-.67,3.2-1.09,4.89-1.24l.2,1.11c-.76.04-1.52.14-2.26.3-.84.16-1.66.41-2.44.76l4.16,4.16-.75.75-7.3-7.3.75-.67s.27-.25.39-.13c.06.06.03.18-.02.43l2.65,2.65-.26-.8Z"/><path id="_パス_88445" d="M233.42,195.23c.08.61.08,1.04.1,1.34.14-.03.24-.04.29,0,.07.07.02.21-.03.31l1.93,1.93-.63.63-1.53-1.53c-.05.58-.14,1.16-.27,1.73l-.98.05c.46-1.49.52-3.08.17-4.6l.89-.2c.06-.02.17-.04.22.02.1.1-.11.28-.16.33M246.6,198.16c-1.04.68-2.17,1.21-3.35,1.6l-.15-.43-2.36,2.36.47.05c.06,0,.12.02.17.06.07.07.02.17-.06.24-.07.06-.15.12-.22.17-.31,1.01-.75,1.98-1.32,2.87l-1-.18c.62-.77,1.08-1.65,1.35-2.6l-1.07,1.07-3.7-3.7,5.82-5.82,3.7,3.7-1.02,1.02c.88-.38,1.74-.83,2.55-1.34l.2.92ZM241.04,195.04l-4.51,4.51.53.53,4.51-4.51-.53-.53ZM242.08,196.08l-4.51,4.51.53.53,4.51-4.51-.53-.53ZM243.12,197.11l-4.51,4.51.55.55,4.51-4.51-.55-.55ZM238.25,193.61l.49.49,2.08-2.08.53.53-4.63,4.63-.53-.53,1.87-1.87-.49-.49-2.52,2.52-.56-.56,2.52-2.52-.49-.49c-.64.71-1.3,1.39-1.97,2.06l-.8-.41c.23-.19.68-.57,1.3-1.19,1.09-1.07,2-2.32,2.69-3.68l.86.15c.05,0,.1.03.14.07.05.05.02.09,0,.12-.11.08-.22.15-.35.2-.38.66-.81,1.3-1.28,1.9l.59.59,2.49-2.49.56.56-2.49,2.49Z"/><path id="_パス_88446" d="M243.21,185.86c.05.39.08.79.08,1.19.07-.04.21-.09.27-.03s.03.2.02.32l1.41,1.41-.64.64-1.12-1.12c-.03.67-.13,1.34-.29,1.99l-1,.03c.44-1.52.56-3.11.35-4.68l.8-.2s.22-.07.28,0c.12.12-.09.37-.18.46M251.71,184.28c-.3.29-.66.5-1.05.63l3.16,3.16-1.23,1.23c1.19-.36,2.32-.9,3.35-1.59l.17,1.05c-1.16.66-2.39,1.19-3.67,1.59l-.1-.8-2.68,2.68.68.03c.08,0,.15.02.22.07.05.05.03.11-.03.17-.06.06-.14.1-.22.13-.07.23-.38,1.28-.46,1.48-.23.61-.49,1.21-.8,1.79l-1.02-.1c.61-1.01,1.05-2.11,1.31-3.25l-1.14,1.14-3.84-3.84,4.75-4.75c-.65,0-1.31-.09-1.93-.27l-2.21,2.51-.66-.61,1.97-2.22c-.67-.23-1.32-.53-1.93-.9l.76-.74c.09-.09.21-.19.28-.11s.05.2.03.31c.46.31.96.55,1.49.71l2.56-2.9.65.62-2.32,2.6c.4.1.81.15,1.21.17.61.08,1.24-.07,1.74-.43.3-.3.2-.53-.51-1.3l.92-.29c.82,1.05,1.01,1.57.53,2.06M249.85,185.43l-4.29,4.29.54.54,4.29-4.29-.54-.54ZM250.93,186.5l-4.29,4.29.55.55,4.29-4.29-.55-.55ZM252,187.58l-4.29,4.29.56.56,4.29-4.29-.56-.56ZM247.71,182.17c-.5.02-1,.1-1.49.23l-.07-.86c.51-.11,1.02-.18,1.54-.22l.02.84Z"/><path id="_パス_88447" d="M255.87,172.69l8.23,8.23-.61.61-8.79-8.79,2.79-2.79.56.56-2.18,2.18Z"/><path id="_パス_88448" d="M269.03,164.17l.66.66-1.88,1.88c1.02.95,1.82,2.11,2.37,3.39.48,1.24.43,2.63-.15,3.83l-1.22.09c.7-1.08.84-2.42.4-3.62-.47-1.14-1.18-2.17-2.07-3.03l-2.08,2.08,2.29,2.29-.7.7-2.29-2.29-2.05,2.05-.66-.66,2.05-2.05-1.96-1.96.85-.66s.19-.15.26-.07.05.1-.03.42l1.58,1.58,2.05-2.05c-.79-.79-1.6-1.54-2.16-2.07l.77-.67c.1-.08.24-.21.34-.11.07.07.07.1.02.39l1.75,1.75,1.86-1.87ZM268.12,164.17c-.59-.01-1.18.04-1.76.15v-.82c.56-.14,1.15-.2,1.73-.18l.03.85ZM267.8,162.49c-.58-.04-1.17.02-1.73.18l-.03-.85c.58-.12,1.17-.17,1.76-.15v.82Z"/><path id="_パス_88449" d="M278.24,166.44l-.68.68-5.47-5.47c.14.76.23,1.52.29,2.29h-.97c-.1-2.12-.63-4.2-1.56-6.11l.93-.42c.08-.04.17-.03.23.03.07.07,0,.23-.09.38.28.65.53,1.32.73,2,.22-.07.28-.04.33,0s.09.12.1.44l6.17,6.17ZM274.03,153.76l.84-.67c.14-.1.21-.04.22-.02.07.07.03.27,0,.39l.96.96,1.29-1.29.58.58-1.29,1.29,1.27,1.27,1.53-1.53.58.58-5.94,5.94-.58-.58,1.67-1.67-1.27-1.27-1.36,1.36-.58-.58,1.36-1.36-1.35-1.35.71-.58c.07-.06.26-.21.36-.11.05.05.05.08-.02.37l.98.98,1.37-1.37-1.35-1.35ZM275.82,160.95l3.96-3.96,3.92,3.92-.65.65-.49-.49-2.66,2.66.46.46-.65.65-3.88-3.89ZM279.69,158.21l-2.66,2.66.86.86,2.66-2.66-.86-.86ZM281.08,159.6l-2.66,2.66.92.92,2.66-2.66-.92-.92ZM275.96,155.69l-1.36,1.36,1.27,1.27,1.36-1.36-1.27-1.27Z"/><path id="_パス_88450" d="M293.21,150.99c-3,.58-6.09-.39-8.21-2.58l-.8.8c0,.15,0,.33,0,.77,1.91-.07,3.76.7,5.06,2.1,1.13,1.13,1.27,2.26.35,3.19-.17.17-.36.32-.57.44l-.88-.53c.29-.15.56-.35.79-.59.56-.56.29-1.21-.44-1.94-.31-.31-.64-.59-1-.83-.06,2.19-.65,4.34-1.72,6.25l-1.06-.16c.52-.6.92-1.29,1.18-2.04.56-1.43.84-2.96.8-4.5-.27-.13-.56-.24-.85-.33,0,1.81-.45,3.59-1.32,5.17l-.96-.17c.97-1.55,1.43-3.36,1.31-5.18-.34-.04-.54-.04-.74-.05-.12,1.19-.42,2.36-.9,3.46l-.94-.07c.38-.75.64-1.55.79-2.38.09-.53.12-1.06.09-1.6l-1.65,1.65-.58-.58,5.34-5.34.58.58-1.25,1.25c.55.56,1.17,1.05,1.85,1.44.16-.74.23-1.5.2-2.26l.96-.05c.07,0,.14,0,.2.05.04.04.07.07-.22.36-.1.98-.33,2.07-.36,2.29,1.58.68,3.36.77,5,.25l-.05,1.12ZM287.3,145.77l-1.23-1.23-6.54,6.54,1.23,1.23-.65.65-1.81-1.81,3.52-3.52-1.03-1.03.86-.71c.08-.07.18-.14.24-.07.04.04.03.14,0,.34l.69.69,3.55-3.55,1.81,1.81-.65.66Z"/><path id="_パス_88451" d="M296.68,147.22l-8.23-8.23.61-.61,8.79,8.79-2.79,2.79-.56-.56,2.18-2.18Z"/><path id="_パス_88452" d="M201.19,273.7c-1,1.16-2.72,1.39-3.99.53l.88-.88c.77.51,1.8.34,2.37-.37,1.8-1.8-.15-3.95-.81-4.66.2,1.07-.18,2.17-.99,2.9-1.11,1.29-3.06,1.44-4.36.33-.08-.07-.16-.15-.23-.22-1.35-1.26-1.42-3.38-.16-4.73.07-.07.13-.14.2-.2.79-.86,1.97-1.25,3.11-1.04,1.17.33,2.23.97,3.07,1.85,2.14,2.14,2.78,4.63.91,6.5M194.83,267.07c-.9.79-.99,2.16-.2,3.06.07.08.14.15.23.22.73.9,2.05,1.03,2.94.3.09-.07.17-.15.24-.23.94-.75,1.1-2.11.35-3.05-.06-.07-.12-.14-.18-.2-.81-.96-2.25-1.07-3.21-.26-.06.05-.12.11-.18.17"/><path id="_パス_88453" d="M206.7,267.82l-.89.89c-.98-1.31-1.75-2.76-2.27-4.31-.56-1.51-.89-3.09-.96-4.7l-4.08,4.08-.7-.7,4.99-4.99.7.7c.12,3.27,1.24,6.43,3.21,9.04"/><rect id="_長方形_10027" x="210.07" y="262.04" width="1.42" height="1.42" transform="translate(-124.05 226) rotate(-45)"/><path id="_パス_88454" d="M215.01,259.51l-.89.89c-.98-1.31-1.75-2.76-2.27-4.31-.56-1.51-.89-3.09-.97-4.7l-4.07,4.07-.7-.7,4.99-4.99.7.7c.12,3.27,1.24,6.42,3.21,9.04"/><path id="_パス_88455" d="M216.84,250.74c-.86.86-2.16.79-3.25-.29s-1.15-2.4-.3-3.26,2.15-.8,3.25.3,1.14,2.39.29,3.24M213.82,247.72c-.64.64-.35,1.41.37,2.13.21.21,1.24,1.24,2.12.36.76-.76.12-1.63-.36-2.12-.26-.26-1.27-1.24-2.13-.38M220.92,253.59l-.61.61-3.17-10.48.61-.61,3.17,10.48ZM224.78,250.12c-.85.85-2.15.8-3.25-.29s-1.16-2.38-.29-3.25,2.2-.77,3.25.28,1.16,2.37.28,3.25M221.77,247.1c-.65.65-.33,1.43.36,2.12.24.24,1.25,1.24,2.12.36.68-.68.29-1.49-.36-2.13-.26-.26-1.26-1.22-2.13-.35"/><path id="_パス_88456" d="M233.54,239.82c.37-.67.61-1.4.71-2.15.12-1.27-.33-2.52-1.22-3.43-1.02-1.02-2.52-1.38-3.9-.94-.57.24-1.1.59-1.54,1.03,1.31,1.53,2.33,3.29,3.01,5.18.44,1.22.75,2.54.2,3.09-.79.79-2.81.39-4.16-.96-2.11-2.15-2.08-5.59.07-7.7.02-.02.05-.05.07-.07,1.96-1.96,4.87-2.4,6.95-.33,2.55,2.55,1.19,5.71.85,6.5l-1.04-.21ZM226.07,238.5c.12.93.53,1.8,1.19,2.48,1,1,2.33,1.19,2.7.81.2-.2.42-.42-.47-2.53-.64-1.53-1.52-2.95-2.6-4.21-.75.98-1.05,2.23-.82,3.44"/><path id="_パス_88457" d="M232.51,229.44l-.61-.61,3.73-3.73-.94-.94.84-.67c.07-.05.22-.17.32-.07s.06.19,0,.5l.49.49,3.81-3.81.61.61-8.24,8.24ZM246.93,228.56c-.25.47-.58.88-.99,1.22l-.91-.55c.22-.2.51-.45.61-.55.3-.3.23-.36-.07-.66l-2.07-2.07-6.29,6.29,3.2,3.2-.68.68-3.8-3.8,7.66-7.66,2.86,2.86c.35.35.64.64.48,1.05M234.7,228.54l5.1-5.1,1.84,1.84-5.1,5.1-1.84-1.84ZM239.71,224.65l-3.81,3.81.72.72,3.81-3.81-.72-.72ZM241.62,232.89l.3.3-.64.64-2.15-2.15,3.8-3.8,1.85,1.85-3.16,3.16ZM242.85,229.05l-2.53,2.53.73.73,2.53-2.53-.73-.73Z"/><path id="_パス_88458" d="M256.24,219.31c-1.27.33-2.6.4-3.9.2-1.37-.18-2.69-.64-3.88-1.35,1.52,2.49,1.83,5.54.84,8.28l-1.14-.11c.75-1.71.9-3.63.41-5.44-.62-2.03-1.75-3.87-3.29-5.33l-1.94,1.94-.67-.67,2.7-2.7c.18.18.28.3.6.64.15.17.8.88.94,1.02,1.05,1.04,2.31,1.84,3.7,2.34,1.79.6,3.73.61,5.53.02l.09,1.17Z"/><path id="_パス_88459" d="M258.9,208.53l1.25,1.25,2.22-2.22,2.92,2.92-.7.7-.51-.51-3.61,3.61.53.53-.7.7-2.94-2.94,2.11-2.11-1.25-1.25-2.86,2.86c1.28,1.4,2.23,3.07,2.78,4.89l-.99.22c-.72-2.76-2.75-4.84-4.49-6.58-.62-.62-1.04-1.02-1.92-1.86l6.69-6.69,2.21,2.21-2.51,2.51,1.16,1.16,3.14-3.14.61.61-3.14,3.14ZM256.45,207.44l-2.8,2.8c.54.56.73.77,1.13,1.19l2.82-2.82-1.16-1.16ZM257.36,203.34l-5.3,5.3.99.99,5.3-5.3-.99-.99ZM262.23,208.83l-3.61,3.61,1.26,1.26,3.61-3.61-1.26-1.26Z"/><path id="_パス_88460" d="M265.47,202.13c-.03.55-.11,1.67-.23,2.6.12.12.26.28.16.38-.04.04-.11.06-.29.03l-.99-.14c.26-1.15.45-2.31.56-3.48l.79.61ZM268.16,201.5l.79-.65c.09-.07.23-.19.31-.1.09.09,0,.31-.03.42l.52.52,3.75-3.75.61.61-3.75,3.75,1.62,1.62-.7.7-1.62-1.62-3.76,3.76-.61-.61,3.76-3.76-.89-.9ZM261.78,201.54c.83-.28,1.69-.48,2.55-.61l.12.91c-.84.13-1.67.33-2.49.58l-.19-.88ZM268.03,198.41c.82.02,1.64.18,2.41.47l-.2.81c-.29-.11-.58-.2-.88-.28-1.05,1.38-1.99,2.57-2.67,3.37.04.11.11.3.03.38-.07.07-.2.03-.26-.02l-.87-.46c.32-.32.55-.57.82-.88.1-.44.14-.89.12-1.34-.77-.01-1.54.05-2.29.2l-.09-.82c.23-.06.47-.11.71-.13,0-.69-.09-1.37-.24-2.04l-3.65,3.65-.62-.62,3.5-3.5-1.11-1.11.83-.66c.19-.15.24-.15.28-.11.1.1,0,.31-.07.41l.78.78,3.5-3.5.62.62-3.9,3.9.73-.12c.16-.03.22-.02.26.02.12.12-.1.31-.21.39.06.6.08,1.21.05,1.81.33-.03.66-.05.99-.04-.02-.49-.05-1.24-.13-2.32l.99-.09c.07-.02.16-.02.21.03.09.09-.03.21-.07.25-.06.06-.13.11-.19.16,0,1.06-.05,2.14-.12,3.21.49-.56,1.2-1.4,1.34-1.58-.41-.04-.57-.05-.73-.06l.11-.79ZM268.13,197.17c.13-.84.19-1.68.21-2.53l.93.06c.15,0,.22.01.25.05.07.07-.01.15-.05.19s-.14.12-.18.16c-.05.72-.14,1.43-.27,2.14l-.9-.07ZM269.26,197.29c.95-.17,1.91-.26,2.88-.28l.11.93c-.95.01-1.91.1-2.85.26l-.14-.91Z"/><path id="_パス_88461" d="M209.99,295.71l-4.99-4.99-1.44,1.44-.61-.61c.89-.69,1.07-1.96.43-2.88l.65-.65,6.82,6.82-.86.86Z"/><path id="_パス_88462" d="M216.38,289.69c-.76.89-1.91,1.35-3.08,1.22-.68-.13-1.3-.45-1.79-.93l.85-.85c.83.88,2.22.93,3.1.1.09-.08.16-.17.24-.26,1.15-1.15,1.07-2.39.23-3.22-.99-.99-2.13-.49-2.86.24l-.72.72-.62-.62.61-.61c.52-.52,1.17-1.75.26-2.66-.52-.52-1.48-.88-2.62.26-.49.42-.76,1.04-.75,1.68.06.48.26.93.59,1.28l-.84.84c-1.17-1.24-1.11-3.19.13-4.36.06-.05.11-.1.18-.15,1.37-1.37,3-1.54,4.06-.49.76.71.91,1.85.36,2.73.95-.71,2.28-.59,3.08.29,1.21,1.21,1.24,3.13-.4,4.78"/><path id="_パス_88463" d="M221.03,287l-.49-.49c.25-.48.28-.69-.16-1.19l-.51.51-1-1,1-1,.99.99c.9.9.5,1.57.17,2.17"/><path id="_パス_88464" d="M224.71,281.37c-2.09,2.09-4.47.71-6.19-1.01s-3.1-4.09-1.01-6.19c2.09-2.09,4.48-.68,6.18,1.02s3.11,4.09,1.02,6.18M218.21,274.87c-1.34,1.34-.34,3.07,1.2,4.6s3.29,2.51,4.6,1.2.39-3.01-1.2-4.6-3.28-2.52-4.6-1.2"/><path id="_パス_88465" d="M230.6,275.47c-2.09,2.09-4.47.71-6.19-1.01s-3.1-4.09-1.01-6.19c2.09-2.09,4.48-.68,6.18,1.02s3.11,4.09,1.02,6.18M224.1,268.97c-1.34,1.34-.34,3.07,1.2,4.6s3.29,2.51,4.6,1.2.39-3.01-1.2-4.6-3.28-2.52-4.6-1.2"/><path id="_パス_88466" d="M236.5,269.58c-2.09,2.09-4.47.71-6.19-1.01s-3.1-4.09-1.01-6.19,4.48-.68,6.18,1.02,3.11,4.09,1.02,6.18M230,263.08c-1.34,1.34-.34,3.07,1.2,4.6s3.29,2.51,4.6,1.2.39-3.01-1.2-4.6-3.28-2.52-4.6-1.2"/><path id="_パス_88467" d="M246.64,254.68l-.56-.56-4.65,4.65c.59.64,1.08,1.38,1.43,2.18.36.91.5,1.9.39,2.88l-1.03.09c.2-2.44-.5-3.44-2.42-5.36l-1.91-1.91,6.03-6.03,3.39,3.39-.67.67ZM235.1,255.76l7.89-7.89.65.65-7.89,7.89-.65-.65ZM243.92,251.95l-4.63,4.63,1.53,1.53,4.63-4.63-1.53-1.53Z"/><path id="_パス_88468" d="M255.64,248.91c.37-.67.61-1.4.71-2.15.12-1.27-.33-2.52-1.22-3.43-1.02-1.02-2.52-1.38-3.9-.94-.57.24-1.1.59-1.54,1.03,1.31,1.53,2.33,3.29,3.01,5.18.44,1.22.75,2.54.2,3.09-.79.79-2.81.39-4.16-.96-2.11-2.15-2.08-5.59.07-7.7.02-.02.05-.05.07-.07,1.96-1.96,4.87-2.4,6.95-.33,2.55,2.55,1.19,5.71.85,6.5l-1.04-.21ZM248.17,247.59c.12.93.53,1.8,1.19,2.48,1,1,2.33,1.19,2.7.81.2-.2.42-.42-.47-2.53-.64-1.53-1.52-2.95-2.6-4.21-.75.98-1.05,2.23-.82,3.44"/><path id="_パス_88469" d="M257.78,234.2l.56.56-1.42,1.42c.37.04.74.11,1.09.22l-.26.9c-.52-.19-1.06-.3-1.61-.34l-.4.4c.07.71.09,1.1.1,1.54l-.94.03c.02-1.14-.17-2.28-.56-3.35l.92-.32c.15-.06.24-.07.31,0,.09.09-.07.31-.15.41.07.3.1.44.17.73l2.2-2.2ZM259.1,231.68c.08-.03.21-.06.24-.02.06.06-.03.2-.15.37.03.16.09.4.09.5l2.75-2.75.56.56-1.85,1.85c.38.03.76.11,1.12.24l-.18.85c-.56-.18-1.14-.28-1.72-.32l-.55.55c.05.44.06.73.07,1.1.27-.23.3-.26.4-.17s.06.19.03.36l.36.36,3.54-3.54,1.9,1.9-.65.65-1.31-1.31-6.58,6.58,1.38,1.38-.65.65-1.97-1.97,3.57-3.57-.73-.73.69-.58-.8.17c0-.97-.16-1.94-.48-2.85l.92-.3ZM263.5,242.89l.29.29-.67.67-4.66-4.66,4.73-4.73,1.8,1.8-4.07,4.07.53.53,4.57-4.57,2.27,2.27-.65.65-.24-.24-3.91,3.91ZM263.08,235.66l-3.4,3.4.73.73,3.4-3.4-.73-.73ZM265.95,237.5l-3.92,3.92.91.91,3.92-3.92-.91-.91Z"/><path id="_パス_88470" d="M271.79,230.54c-.78,2.06-1.35,3.29-1.76,4.18.05.12.11.28.05.35s-.24,0-.31-.03l-.9-.39c.21-.36.66-1.13,1.04-1.89l-2.4-2.4-1.17,1.17-.64-.64,1.17-1.17-2.02-2.02-1.24,1.24-.61-.61,3.11-3.11.61.61-1.21,1.21,2.02,2.02,1.21-1.21.64.64-1.21,1.21,2.18,2.18c.45-.94.64-1.47.84-1.98l.61.65ZM273.52,232.91l-.61-.61,2.46-2.46-1.34-1.34-1.66,1.66-.61-.61,1.66-1.66-1.07-1.07-1.81,1.81-4.18-4.18,4.28-4.28,4.18,4.18-1.82,1.82,1.07,1.07,1.78-1.78.61.61-1.78,1.78,1.34,1.34,2.34-2.34.61.61-5.45,5.45ZM268.79,223.26l-1.15,1.15,1.15,1.15,1.15-1.15-1.15-1.15ZM270.52,224.99l-1.15,1.15,1.23,1.23,1.15-1.15-1.23-1.23ZM270.62,221.44l-1.17,1.17,1.15,1.15,1.17-1.17-1.15-1.15ZM272.35,223.17l-1.17,1.17,1.23,1.23,1.17-1.17-1.23-1.23Z"/><path id="_パス_88471" d="M277.46,216.46l.79-.7c.14-.12.22-.13.28-.07.07.07.06.17-.05.4l.38.38,2.49-2.49.61.61-2.49,2.49.8.8,2.22-2.22.58.58-2.22,2.22c.28.28.54.58.76.91l3.54-3.54.63.63-3.17,3.17c2.06.38,3.83-.88,4.9-1.66l.25,1.17c-1.82,1.15-3.37,1.81-5.56,1.3.48,1.6.5,3.2-1.39,5.63l-1.05-.28c2.15-2.58,1.81-3.99,1.55-4.86l-3.14,3.14-.63-.63,3.34-3.34c-.21-.34-.45-.65-.73-.94l-2.29,2.29-.58-.58,2.29-2.29-.8-.8-2.46,2.46-.61-.61,2.46-2.46-.71-.71ZM275.55,214.58l.86-.75s.17-.13.26-.04.05.27-.01.44l.51.51,3.46-3.46,1.71,1.71-.68.68-1.08-1.08-6.27,6.27,1.12,1.12-.68.68-1.76-1.76,3.45-3.45-.9-.9Z"/><path id="_パス_88472" d="M282.73,210.01c.3-.04.41-.04.91-.12-.14-1.02-.38-2.02-.71-2.99l.99-.24c.14-.03.18,0,.2.02.08.08-.04.26-.13.41.12.7.29,1.49.57,2.76.34-.02.68-.02,1.02,0-.11-.71-.27-1.41-.49-2.09l1.09-.12s.13-.02.18.03c.08.08-.05.26-.21.45.07.58.48,3.11.54,3.63.33-.43.63-.88.9-1.34-.15-.04-.78-.22-.9-.27l.32-.8c.83.22,1.63.52,2.4.9l-.34.79c-.4-.18-.44-.2-.75-.33-.15.28-.37.63-.55.9l3.79,3.79-.64.64-3.66-3.66c-.22.35-.85,1.34-.89,1.39.04.13.08.29,0,.37s-.21,0-.26-.04l-.8-.56c.2-.2.45-.51.63-.73-.03-.33-.2-1.76-.24-2.06-.95-.03-1.89.04-2.82.21l-.16-.93ZM288.95,216.96c-.48-1.14-1.18-2.19-2.05-3.08l.77-.58c.07-.06.17-.13.25-.05s.02.24-.03.35c.73.9,1.36,1.87,1.88,2.91l-.82.45ZM289.28,211.35c.87.41,1.68.92,2.43,1.51l-.49.73c-.74-.56-1.53-1.06-2.36-1.48l.41-.77ZM295.03,209.51c.93-.2,1.8-.61,2.55-1.19l.1,1.01c-.85.58-1.8,1.01-2.8,1.24l.05-.96-1.55,1.55.77.07s.17.02.22.07.1.1-.27.4c-.07.16-.36.84-.4.98-.23.52-.47,1.03-.74,1.52l-.94-.21c.52-.83.93-1.73,1.22-2.67l-1.07,1.07-3.41-3.41,4.07-4.07,3.41,3.41-1.2,1.2ZM286.67,203.48l.65-.58c.1-.08.24-.21.32-.13s.04.22,0,.4l.48.48,2.02-2.02.51.51-2.02,2.02.49.49,1.78-1.78.51.51-1.78,1.78.51.51,2.16-2.16.53.53-4.94,4.94-.53-.53,2.14-2.14-.51-.51-1.65,1.65-.51-.51,1.65-1.65-.49-.49-1.9,1.9-.51-.51,1.9-1.9-.81-.8ZM290.34,209.29l2.78-2.78-.48-.48-2.78,2.78.48.48ZM291.31,210.27l2.78-2.78-.48-.48-2.78,2.78.48.48ZM294.57,207.98l-2.78,2.78.5.5,2.78-2.78-.5-.5Z"/></g></g></svg>