<?xml version="1.0" encoding="UTF-8"?><svg id="_レイヤー_1" xmlns="http://www.w3.org/2000/svg" viewBox="0 0 450 449.97"><defs><style>.cls-1{fill:#beb143;}.cls-2{fill:#231815;}.cls-3{fill:#fff;}.cls-4{fill:#c8bb9b;}.cls-5{fill:#7d0000;}.cls-6{fill:#796a56;}.cls-7{fill:#e50012;}</style></defs><rect id="_長方形_10021" class="cls-3" x="65.91" y="65.89" width="318.19" height="318.19" transform="translate(-93.19 224.99) rotate(-45)"/><path id="_パス_88388" d="M121.91,203.29c2.18-2.42,4.67-6.17,5.16-13.3l3.4.28c.11,0,.91.07.91.49,0,.14-.56.56-.63.67-.11.14-.49,2.7-.56,3.02,1.05,4,2.74,5.05,5.02,6v-13.09h-7.93v-3.02s19.26,0,19.26,0v3.02s-7.61,0-7.61,0v4.17s10.39,0,10.39,0v3.33h-10.38v6.63c.95.07,1.82.1,3.86.1,4.32,0,7.4-.31,9.37-.49l-1.34,3.9c-9.96,0-13.65,0-16-.84-2.55-.95-4.65-2.83-5.86-5.26-.83,2.31-2.09,4.44-3.71,6.28l-3.34-1.89ZM126.16,181.46v3.82h-3.61v-6.95h12.53v-3.16s3.86.14,3.86.14c.39,0,.95.04.95.28,0,.17-.7.74-.7.88v1.86h12.32v7.05h-3.61v-3.93h-21.72Z"/><path id="_パス_88389" d="M167.32,175.36l3.12.25c.31.04.88.07.88.32,0,.14-.17.28-.39.42s-.32.25-.32.42v1.44s2.67,0,2.67,0v3.02h-2.67v11.68s2.28,0,2.28,0v3.02s-15.93,0-15.93,0v-3.01h3.05v-11.68s-2.77,0-2.77,0v-3.02h2.77v-2.94s2.77.21,2.77.21c.6.03,1.23.07,1.23.31s-.21.32-.42.42c-.14.1-.28.17-.28.35v1.65s4,0,4,0v-2.84ZM163.6,198.13c.88.42.88.49.88.63s-.28.35-.56.39c-.16.18-.29.38-.39.6-1.04,1.95-2.32,3.76-3.79,5.4l-2.63-1.89c1.72-1.82,3.08-3.95,4-6.28l2.49,1.16ZM167.32,181.22h-4.11v2.42h4.11v-2.42ZM167.32,185.74h-4.11v2.42h4.11v-2.42ZM163.21,192.9h4.11v-2.6h-4.11v2.6ZM168.02,196.76c.83,1.52,1.79,2.97,2.88,4.32l-2.77,1.83c-1.11-1.37-2-2.9-2.67-4.53l2.56-1.61ZM178.02,193.64c-.8,5.58-2.21,7.93-5.58,11.51l-3.19-1.79c5.54-4.81,5.54-8.46,5.54-18.49.04-2.81-.07-5.62-.32-8.42h11.72v24.77c0,2.81-.7,3.76-5.68,3.86l-1.23-3.61c.32,0,1.86.11,2.18.11,1.16,0,1.33-.67,1.33-1.75v-6.18s-4.77,0-4.77,0ZM182.79,190.73v-4.18h-4.56s0,2.28,0,2.28c0,.42-.03,1.37-.07,1.89h4.63ZM182.79,179.64h-4.56s0,4,0,4h4.56v-4Z"/><path id="_パス_88390" d="M200.62,175.99c.63.21.95.35.95.56s-.88.67-.98.8c-.21.49-1.09,2.74-1.26,3.16-.17.39-.39.88-.7,1.47.67.25.98.39.98.67,0,.17-.25.35-.56.56-.15.07-.24.22-.25.39v21.72h-3.61v-17.29c-.42.66-.89,1.29-1.41,1.89l-3.09-2.11c3.23-3.7,5.53-8.11,6.74-12.88l3.2,1.06ZM216.8,175.11c.49.04.95.04.95.35,0,.17-.7.77-.7.95v2.63h4.53v3.23h-4.53v3.97h5.33v3.23h-21.65v-3.23s5.12,0,5.12,0v-3.97h-4.14s0-3.23,0-3.23h4.14v-4.14c.56.04,3.71.17,3.96.32.07.03.13.1.14.17-.02.12-.08.24-.17.32-.39.28-.53.42-.53.7v2.63h4.29v-4.14s3.26.21,3.26.21ZM216.09,205.32v-1.09h-9.4v1.09s-3.3,0-3.3,0v-13.86h16.11v13.86h-3.4ZM216.09,194.17h-9.4v2.42h9.4v-2.42ZM206.69,201.71h9.4v-2.6s-9.4,0-9.4,0v2.6ZM213.54,182.27h-4.28v3.97s4.28,0,4.28,0v-3.97Z"/><path id="_パス_88391" d="M226.84,183.67h4.14v-8.59s3.33.28,3.33.28c.6.03.77.21.77.46,0,.17-.07.21-.35.42-.15.11-.24.27-.25.46v6.98s3.54,0,3.54,0v3.51h-3.54v10c1.31-.41,2.6-.91,3.86-1.47v3.68c-3.76,1.33-4.25,1.47-8.49,2.74-.68.13-1.31.45-1.83.91-.49.53-.52.6-.73.6-.28,0-.42-.21-.46-.88l-.28-3.83c1.49-.15,2.97-.42,4.42-.8v-10.96h-4.14v-3.51ZM240.66,177.36l3.44.18c.07,0,.8.07.8.46s-.04.21-.39.52c-.35.28-.39.32-.39.53v7.26l2.35-.95v-10.35l3.51.25c.25,0,.95.07.95.46,0,.21-.1.25-.56.46-.35.18-.42.32-.42.53v7.26l5.4-2.17,1.51.77v11.4c0,3.16-1.16,3.79-4.84,4.24l-1.68-3.57c3.02.28,3.02-.46,3.02-1.61v-6.67l-3.4,1.3v10.88s-3.47,0-3.47,0v-9.47l-2.35.98v9.43c0,1.76.39,2.14,2.35,2.14h6c1.09,0,1.61-.28,1.61-3.02l3.54,1.23c-.1,4.39-1.19,5.3-4.24,5.3h-9.65c-2.25,0-3.09-.42-3.09-3.47v-10.24l-3.51,1.47-1.2-3.26,4.7-1.89v-10.35Z"/><path id="_パス_88392" d="M275.51,174.8l3.26.21c.49.03.98.07.98.42,0,.17-.42.39-.67.53-.11.07-.16.19-.14.31v.6h13.54v2.7h-13.54v1.44h8.88v6.56s-8.88,0-8.88,0v1.44h11.23v4.07h2.18v2.63h-2.18v5.48h-3.51v-1.3s-7.72,0-7.72,0v2.56c0,2.53-1.16,3.12-5.51,3.12l-1.51-3.65c.56.04,1.19.11,2.21.11.42,0,1.37,0,1.37-.88v-1.26h-11.02v-2.7s11.02,0,11.02,0v-1.48s-12.88,0-12.88,0v-2.63s12.88,0,12.88,0v-1.47h-11.02v-2.6s11.02,0,11.02,0v-1.44h-8.91v-6.56h8.91v-1.44h-13.19v-2.7h13.19v-2.07ZM275.51,183.53h-5.4v1.61h5.4v-1.61ZM284.38,183.53h-5.44v1.61h5.44v-1.61ZM286.67,191.6h-7.72v1.47h7.72s0-1.47,0-1.47ZM286.67,195.71h-7.72v1.47h7.72s0-1.47,0-1.47Z"/><path id="_パス_88393" d="M318.6,178.76c.79-1.24,1.45-2.55,1.97-3.93l2.98,1.37c.39.17.67.28.67.56,0,.17-.07.21-.67.39-.32.11-.53.39-.91.91-.74,1.02-.84,1.19-1.16,1.58h5.96v2.95h-7.09c-.74,1.37-.84,1.51-1.33,2.35h6.74v2.74h-11.44v1.62h9.26v2.63h-9.26v1.72h13.02v2.95h-10.28c3.06,2.35,6.39,4.32,9.93,5.86l-2.56,2.84c-3.68-1.83-7.08-4.17-10.11-6.95v6.88h-3.51v-6.49c-3.16,2.58-6.58,4.82-10.21,6.67l-2.84-2.74c3.81-1.47,7.37-3.52,10.56-6.07h-10.59v-2.95h13.09v-1.72s-9.34,0-9.34,0v-2.63s9.34,0,9.34,0v-1.62h-11.72v-2.74h7.16c-.91-1.54-1.02-1.72-1.41-2.35h-7.13v-2.95h5.9c-.84-1.09-1.97-2.56-2.6-3.23l2.63-1.61c1.13,1.26,2.15,2.61,3.05,4.03l-1.72.8h2.98v-4.73s3.19.25,3.19.25c.25.03,1.02.1,1.02.46,0,.14-.14.25-.17.28-.56.35-.63.42-.63.63v3.12h2.6v-4.63s3.23.17,3.23.17c.28,0,.77.07.77.39-.02.12-.08.24-.17.32-.63.35-.7.42-.7.63v3.12h3.12l-1.61-.88ZM315.34,184.94c.49-.75.91-1.53,1.26-2.35h-8.07c.84,1.33,1.26,1.93,1.51,2.35h5.3Z"/><path id="_パス_88394" class="cls-1" d="M193.65,280.76h-21.22l-13.11-25.48h-.72v25.48h-19.76v-64.59s21.95,0,21.95,0l12.27,26.32h.62v-26.32h19.98v64.59Z"/><path id="_パス_88395" class="cls-1" d="M199.37,255.64c0-9.12,2.03-15.72,6.09-19.81,4.06-4.09,10.4-6.14,19.04-6.14,8.63,0,14.93,2.01,18.88,6.03,3.95,4.02,5.93,10.63,5.93,19.81,0,9.19-1.92,15.87-5.77,20.02-3.85,4.16-10.16,6.24-18.93,6.24-8.77,0-15.17-2.08-19.19-6.24s-6.03-10.8-6.04-19.92M227.19,246.8c-.65-1.52-2.41-2.23-3.94-1.58-.71.3-1.27.87-1.58,1.58-.38,1.22-.57,3.8-.57,7.75v2.5c0,4.44.19,7.3.57,8.58.56,1.52,2.25,2.3,3.77,1.74.81-.3,1.44-.93,1.74-1.74.5-2.66.69-5.36.57-8.06v-2.91c0-4.02-.19-6.64-.57-7.85"/><path id="_パス_88396" class="cls-1" d="M266.05,281.8c-3.75,0-6.38-.68-7.91-2.03s-2.29-3.45-2.29-6.29c0-2.84.75-4.94,2.24-6.29s4.14-2.03,7.96-2.03c3.81,0,6.45.68,7.91,2.03s2.18,3.45,2.18,6.29c0,2.84-.75,4.94-2.24,6.29-1.49,1.35-4.11,2.03-7.85,2.03"/><path id="_パス_88397" class="cls-1" d="M310.36,280.76h-21.54v-47.02s-7.28,0-7.28,0v-11.75l11.54-5.82h17.27v64.59Z"/><path id="_パス_88419" d="M135.39,322.59h-3.88c-2.88,0-3.7-.46-4.73-2.28-.46,1-1.18,1.85-2.08,2.48l-.76-.72c1.2-.74,2.52-1.96,2.84-5.71l.98.33c.13.04.24.11.24.2s-.17.19-.33.24c-.13.8-.31,1.6-.53,2.38.34,1.04,1.22,1.8,2.3,1.99v-5.76s-3.45,0-3.45,0v-.86s7.78,0,7.78,0v.86h-3.36v2.28h3.14v.9s-3.14,0-3.14,0v2.73c.2.02.46.03,1.08.03,1.44,0,2.88-.07,4.32-.24l-.41,1.14ZM134.52,315.33v-1.79s-9.29,0-9.29,0v2.01h-.97v-2.87h5.15v-1.75l1.1.04c.13,0,.28.03.28.13s-.28.28-.42.33v1.25h5.12v2.65s-.97,0-.97,0Z"/><path id="_パス_88420" d="M142.61,311.06c.13.01.35.04.35.15,0,.11-.16.16-.24.19v1.33h1.2v.8h-1.19v5.3s1.14,0,1.14,0v.82h-6.52v-.82h1.45s0-5.3,0-5.3h-1.31v-.8h1.31v-1.77s.84.09.84.09c.07,0,.3.03.3.15s-.04.11-.24.23v1.3s2.14,0,2.14,0v-1.72l.79.06ZM137.61,322.51c.7-.74,1.23-1.61,1.58-2.56l.85.35c.16.07.24.12.24.21,0,.12-.11.16-.37.23-.39.83-.9,1.6-1.5,2.29l-.8-.52ZM141.82,313.51h-2.14v1.2s2.13,0,2.13,0v-1.2ZM141.82,315.48h-2.14v1.25s2.13,0,2.13,0v-1.25ZM141.82,317.5h-2.14v1.31h2.13v-1.31ZM141.86,319.99c.4.63.88,1.21,1.42,1.73l-.66.62c-.55-.55-1.04-1.17-1.45-1.83l.69-.52ZM145.39,318.74c-.11,1.5-.57,2.95-1.34,4.25l-.88-.45c1.17-1.89,1.39-3.28,1.39-6.6,0-1.51-.03-3.04-.08-4.55h4.18s0,10.16,0,10.16c0,.52,0,1.38-1.29,1.38-.09,0-.39-.01-.85-.06l-.21-1.04c.32.08.64.14.97.17.4,0,.45-.28.45-.58v-2.68s-2.35,0-2.35,0ZM147.74,317.95v-2.51h-2.24c0,1.51,0,1.69-.04,2.51h2.28ZM147.74,312.23h-2.24v2.42h2.24v-2.42Z"/><path id="_パス_88421" d="M153.24,322.98h-.97v-7.76c-.44.63-.91,1.24-1.42,1.83l-.69-.69c1.43-1.58,2.53-3.43,3.23-5.44l.96.36c.08.03.14.1.15.19,0,.09-.17.16-.33.2-.26.66-.56,1.31-.9,1.94.2.11.23.17.23.24s-.03.15-.24.39v8.76ZM159.26,310.99l1.07.12c.17.02.17.12.17.15s-.17.21-.28.28v1.37h1.83v.82h-1.83v1.81s2.18,0,2.18,0v.82h-8.43v-.82h2.37s0-1.81,0-1.81h-1.94v-.82h1.94v-1.91l.92.09c.09.02.33.04.33.17,0,.06-.03.09-.28.25v1.39s1.94,0,1.94,0v-1.91ZM155.42,317.36h5.62v5.56h-.93v-.69s-3.77,0-3.77,0v.65h-.93v-5.52ZM160.12,318.16h-3.77v1.22h3.77v-1.22ZM160.12,320.14h-3.77v1.3s3.77,0,3.77,0v-1.3ZM159.26,313.73h-1.94s0,1.81,0,1.81h1.94v-1.81Z"/><path id="_パス_88422" d="M164.46,321.78c-.11.21-.17.32-.28.32s-.12-.05-.19-.25l-.32-.9c.64-.15,1.26-.35,1.87-.58v-4.87s-1.73,0-1.73,0v-.9h1.73v-3.36l.98.15c.11.01.29.05.29.16s-.12.15-.3.23v2.83h1.46v.9h-1.46v4.47c.56-.25,1.01-.49,1.59-.81l.07,1.01c-1.21.61-2.45,1.15-3.71,1.62M173.9,322.51h-3.23c-1,0-1.42-.12-1.42-1.18v-4.14l-1.49.75-.45-.79,1.96-1.01v-4.18s.85.13.85.13c.05.01.29.04.29.17,0,.08-.07.12-.24.21v3.14l1.31-.65v-4.05s.97.12.97.12c.12.01.28.03.28.15,0,.12-.07.15-.32.27v3l1.83-.97.77.39c.04,1.64-.1,3.28-.4,4.9-.27.81-.88.81-1.69.8l-.3-.93c.88,0,1.08,0,1.23-.58.19-1.13.25-2.28.19-3.42l-1.63.86v4.53s-.93,0-.93,0v-4.04s-1.31.7-1.31.7v4.17c0,.68.21.77.86.77h2.36c1.02,0,1.2-.17,1.5-1.79l.86.61c-.33,1.68-.66,2.08-1.87,2.08"/><path id="_パス_88423" d="M180.73,317.73c-.39-.39-.67-.88-.82-1.41v6.56s-.94,0-.94,0v-6.49c-.31,1.21-.85,2.36-1.58,3.38l-.88-.58c1.01-1.33,1.74-2.84,2.15-4.46h-1.59v-.86h1.9v-2.77l1.06.12c.13.01.23.04.23.15,0,.16-.2.23-.35.28v2.23h1.17v.86h-1.04c.28.85.73,1.63,1.31,2.31l-.63.69ZM182.94,322.47v.39s-.97,0-.97,0v-4.61c-.36.42-.78.78-1.25,1.08l-.65-.76c1.3-.85,2.35-2.01,3.08-3.38h-1.74v-.8h2.11c.23-.46.41-.93.56-1.42h-.84c-.25.5-.57.97-.94,1.39l-.85-.49c.82-.9,1.45-1.94,1.87-3.08l.89.35c.16.07.17.11.17.15,0,.16-.28.21-.37.23,0,.01-.21.44-.32.66h4.63v.8s-4,0-4,0l.68.32c.07.04.16.08.16.16,0,.12-.11.15-.33.21-.05.12-.29.62-.35.73h4.41v.8h-3.13l.86.42c.07.03.17.09.17.16,0,.16-.27.2-.38.21-.12.24-.26.47-.4.69h2.55v.78h-2.59s0,.93,0,.93h2.45s0,.72,0,.72h-2.45v.93s2.52,0,2.52,0v.72h-2.52v.93h2.97s0,.79,0,.79h-6.01ZM185.05,317.45h-2.11s0,.93,0,.93h2.11v-.93ZM185.05,319.1h-2.11v.93h2.11s0-.93,0-.93ZM185.05,320.75h-2.11v.93h2.11v-.93ZM184.15,315.18c-.23.53-.52,1.03-.86,1.49h1.66c.35-.44.61-.95.76-1.49h-1.55Z"/><path id="_パス_88424" d="M190.16,316.18c.78-.77,1.47-1.63,2.06-2.56.59-.88,1.09-1.82,1.5-2.8l.9.45c.07.04.2.12.2.21,0,.13-.2.16-.35.19-.23.46-1.02,1.83-1.27,2.2.16.07.35.16.35.29,0,.09-.08.18-.24.33v8.48h-.97v-7.9c-.42.6-.88,1.16-1.38,1.69l-.8-.59ZM200.12,321.69c0,1.1-.77,1.18-1.25,1.18h-1.06l-.28-.97c.39.04.79.07,1.18.07.3,0,.41-.07.41-.45v-6.3h-4.84v-.93h4.85s0-3.25,0-3.25l1,.13c.13.01.21.08.21.13,0,.09-.15.21-.21.25v2.73h2.01v.93h-2.01v6.48ZM195.73,316.63c.61.85,1.18,1.74,1.7,2.65l-.9.56c-.47-.93-1.01-1.82-1.62-2.65l.82-.56Z"/><path id="_パス_88425" d="M209.44,311.44c.16.63.35,1.26.58,1.87.83-.34,1.63-.76,2.37-1.25l.25.93c-.72.44-1.48.8-2.28,1.07.2.49.41.97.65,1.46.96-.38,1.86-.87,2.71-1.46l.27.9c-.8.52-1.65.95-2.55,1.27.33.62.71,1.21,1.15,1.76.12.16.68.8.77.93l-.76.94c-.3-.31-.65-.56-1.04-.74-.64-.3-1.34-.46-2.06-.46-.81,0-2.33.3-2.33,1.51,0,1.34,1.67,1.49,2.43,1.49.98,0,1.95-.25,2.83-.69l-.11,1.1c-.82.35-1.72.51-2.61.45-.98.04-1.95-.21-2.79-.73-.46-.39-.72-.97-.72-1.57,0-1.62,1.49-2.36,3.11-2.36.83.02,1.65.17,2.43.45-.43-.56-.83-1.15-1.18-1.77-1.5.48-3.06.75-4.63.8l-.41-.97c.52.04.72.04.92.04,1.26-.02,2.51-.22,3.71-.6-.11-.23-.62-1.25-.72-1.45-1.16.34-2.36.54-3.57.58l-.45-.97c.39.03.56.04.76.04.98-.01,1.96-.15,2.91-.42-.29-.66-.54-1.34-.76-2.03l1.1-.14Z"/><path id="_パス_88426" d="M216.45,316.63c1.48-1.62,2.56-3.57,3.14-5.69l1.04.42c.07.03.16.09.16.17,0,.08-.12.13-.33.16-.52,1.23-.6,1.42-1,2.2.13.05.24.09.24.19s-.12.21-.35.36v8.48h-.93v-7.26c-.36.54-.76,1.05-1.2,1.53l-.77-.56ZM228.52,314.87h-3.62v2.59h2.83s0,.9,0,.9h-2.83v3.18h3.84v.89h-8.57v-.89h3.77v-3.18h-2.73v-.9h2.73v-2.59s-3.46,0-3.46,0v-.93h8.06v.93ZM223.82,310.93c.74.65,1.4,1.38,1.96,2.18l-.86.6c-.53-.77-1.15-1.47-1.83-2.11l.73-.67Z"/><path id="_パス_88427" d="M236.23,318.81v2.39c0,.57.13.69.76.69h2.49c.73,0,.96-.35,1.25-1.9l.89.52c-.46,2.16-.93,2.31-2.31,2.31h-2.43c-.42.05-.84-.03-1.2-.25-.33-.28-.49-.71-.42-1.14v-2.55s-4.95.35-4.95.35l-.07-.89,5.02-.35v-1.87c-.98.13-1.52.2-2.35.24l-.56-.9c2.18,0,4.34-.45,6.33-1.34l.7.6c.07.04.11.11.12.19,0,.13-.23.13-.52.13-.89.38-1.81.67-2.76.87v2.01l5.63-.41.08.9-5.71.41ZM240.73,314.88v-1.66h-9.23v2.01h-.97v-2.91h5.04v-1.42s1.06.09,1.06.09c.08.01.25.03.25.15,0,.07-.03.08-.28.25v.93h5.1v2.56h-.97Z"/><path id="_パス_88428" d="M245.45,320.62c-.37.74-.82,1.43-1.37,2.06l-.9-.42c.66-.68,1.21-1.46,1.63-2.31l.81.33c.12.05.17.09.17.16s-.09.13-.35.18M243.87,311.55h4.39v8.12h-4.39v-8.12ZM247.36,312.39h-2.59v1.59h2.59s0-1.59,0-1.59ZM247.36,314.8h-2.59v1.59h2.59s0-1.59,0-1.59ZM247.36,317.22h-2.59v1.63h2.59v-1.63ZM247.13,321.96c-.39-.4-.72-.85-.97-1.35l.73-.41c.26.46.59.88.97,1.25l-.73.52ZM254.88,322.92c-.85-.5-1.58-1.17-2.15-1.98-.71.81-1.57,1.48-2.52,1.98l-.8-.76c1.1-.44,2.06-1.16,2.8-2.08-.69-1.31-1.15-2.74-1.35-4.21h-.54c.04,2.49-.64,4.94-1.98,7.05l-.93-.52c1.23-1.52,1.99-3.01,1.99-7.54,0-.61,0-1.09-.16-3.32h6.01v.86h-4.98c.03.94.04,1.3.04,2.56h4.17l.3.36c-.17,1.69-.67,3.33-1.47,4.83.6.85,1.38,1.56,2.28,2.07l-.71.69ZM251.73,315.88c.16,1.18.51,2.32,1.04,3.38.48-1.08.81-2.22.99-3.38h-2.03Z"/><path id="_パス_88429" d="M261.47,318.89c-.29,2.36-.85,3.49-3.71,3.97l-.69-1.01c2.22-.07,3.45-.53,3.41-3.62l.9.12c.12.01.35.05.35.19s-.16.27-.25.36M267.22,318.92v-1.46h-9.16v1.42h-.97v-2.31h11.09v2.35h-.97ZM263.18,313.28v1.35h4.18v.9s-9.37,0-9.37,0v-.9h4.22s0-1.35,0-1.35h-5.06v-.89h5.06v-1.31s.92.03.92.03c.08,0,.36.01.36.16,0,.07-.04.13-.3.32v.81h5v.89h-5ZM266.91,322.61h-2.33c-.93,0-1.26-.17-1.26-1.11v-3.27l.92.04c.12,0,.33.04.33.19s-.16.21-.24.27v2.43c0,.37.03.53.56.53h1.55c.49,0,.69,0,.82-1.17l.92.48c-.25,1.62-.7,1.62-1.26,1.62"/><path id="_パス_88430" d="M281.52,316.79c-.6-.25-1.17-.55-1.71-.92v.82h-3.36v1.87h3.25v.89h-3.25s0,2.26,0,2.26h4.95v.89h-10.82v-.89h4.87v-2.26h-3.36s0-.89,0-.89h3.36v-1.83h-3.42v-.6c-.51.35-1.04.67-1.59.94l-.8-.8c2.55-1.1,4.65-3.04,5.94-5.5l1.1.5s.23.09.23.21c0,.15-.17.23-.28.28,1.46,1.87,3.4,3.31,5.62,4.15l-.74.86ZM275.9,312.31c-.96,1.33-2.11,2.51-3.42,3.49h7.19c-1.44-.94-2.72-2.12-3.77-3.49"/><path id="_パス_88431" d="M293.6,322.68v-.45h-8.7v.45h-.97v-11.13s10.64,0,10.64,0v11.13s-.97,0-.97,0ZM293.6,312.45h-8.7v8.85h8.7v-8.85ZM285.58,320v-.86h3.25v-2.01h-2.32v-.83h2.32v-1.79s-2.8,0-2.8,0v-.84h6.53v.84h-2.8v1.79h2.22v.83h-2.22v2.01h3.11v.86s-7.29,0-7.29,0ZM291.19,318.93c-.22-.42-.5-.81-.84-1.14l.66-.54c.34.33.64.71.88,1.13l-.7.56Z"/><path id="_パス_88432" d="M306.98,322.02l-5.46-7.91v7.91h-1.19v-9.69s1.19,0,1.19,0l5.46,7.92v-7.92s1.2,0,1.2,0v9.69s-1.2,0-1.2,0Z"/><path id="_パス_88433" d="M312.98,322.29c-1.7,0-3.37-1.17-3.37-3.8s1.66-3.8,3.37-3.8,3.37,1.17,3.37,3.8-1.67,3.8-3.37,3.8M312.98,315.55c-1.34,0-2.2,1.33-2.2,2.95,0,1.63.87,2.93,2.2,2.93s2.2-1.3,2.2-2.93c0-1.62-.86-2.95-2.2-2.95"/><rect id="_長方形_10026" x="317.68" y="320.6" width="1.42" height="1.42"/><path id="_パス_88434" d="M323.83,322.02v-7.08s-2.04,0-2.04,0v-.86c1.12.14,2.15-.63,2.35-1.74h.92v9.69h-1.22Z"/><path id="_パス_88498" class="cls-4" d="M194.43,104.54l-14.92,14.91-6.83-6.83-9.09,9.09,15.91,15.91,24-24-9.08-9.09Z"/><rect id="_長方形_10030" class="cls-6" x="167.63" y="120.04" width="4.6" height="22.5" transform="translate(-43.07 158.61) rotate(-45)"/><rect id="_長方形_10031" class="cls-5" x="175.72" y="104.76" width="4.95" height="10.43" transform="translate(-25.57 158.21) rotate(-45)"/><path id="_パス_88499" class="cls-7" d="M192.72,102.83l-16.46-16.46-27.25,27.26,9.09,9.08,18.17-18.17,7.37,7.38,9.09-9.09Z"/><path id="_パス_88500" class="cls-2" d="M220.79,98.11v-2.56h-11.78v2.56h4.37s0,13.14,0,13.14h3.04v-13.14h4.37Z"/><path id="_パス_88501" class="cls-2" d="M228.93,95.35c-4.74,0-7.36,2.46-7.36,6.93v2.26c0,4.47,2.61,6.93,7.36,6.93,4.76,0,7.39-2.46,7.39-6.93v-2.26c0-4.47-2.62-6.93-7.39-6.93M233.28,104.53c0,2.96-1.42,4.4-4.35,4.4s-4.32-1.44-4.32-4.4v-2.25c0-2.96,1.41-4.4,4.32-4.4s4.35,1.44,4.35,4.4v2.25Z"/><path id="_パス_88502" class="cls-2" d="M243.91,111.45c3.37,0,5.39-1.7,5.39-4.53,0-2.63-1.28-3.93-4.74-4.79-2.03-.5-3.2-1.06-3.2-2.41,0-1.17.85-1.84,2.32-1.84,1.27-.13,2.49.49,3.15,1.57l2.27-1.62c-1.1-1.65-2.93-2.49-5.44-2.49-3.39,0-5.34,1.59-5.34,4.37,0,2.51,1.43,4.01,4.63,4.86,2.48.64,3.31,1.27,3.31,2.48,0,.69-.33,1.86-2.56,1.86-1.34.09-2.64-.49-3.47-1.56l-2.31,1.6c1.35,1.72,3.2,2.49,5.99,2.49"/><path id="_パス_88503" class="cls-2" d="M261.83,111.25h3.04v-15.69s-3.04,0-3.04,0v6.31h-7.19v-6.31s-3.04,0-3.04,0v15.69h3.04v-6.86s7.19,0,7.19,0v6.86Z"/><rect id="_長方形_10032" class="cls-2" x="268.64" y="95.55" width="3.04" height="15.69"/><path id="_パス_88504" class="cls-2" d="M285.28,111.25h2.55v-15.69h-2.87v10.17s-6.98-10.17-6.98-10.17h-2.53v15.69h2.88v-10.03s6.96,10.03,6.96,10.03Z"/><path id="_パス_88505" class="cls-2" d="M227.69,116l-2.91,6.03-2.89-6.03h-3.52l4.89,9.27v6.42h3.04v-6.42s4.89-9.27,4.89-9.27h-3.49Z"/><path id="_パス_88506" class="cls-2" d="M239.26,131.9c3.87,0,6.01-2.33,6.01-6.56v-9.34h-3.04s0,9.36,0,9.36c0,2.77-.91,4-2.97,4s-2.97-1.23-2.97-4v-9.36h-3.04v9.36c0,5.69,3.77,6.54,6.01,6.54"/><path id="_パス_88507" class="cls-2" d="M253.6,124.92l4.09,6.77h3.64l-5.75-9.37,4.78-6.32h-3.59l-5.15,7.05v-7.05h-3.04v15.69h3.04v-4.15l1.98-2.62Z"/><path id="_パス_88508" class="cls-2" d="M266.35,118.55h6.67v-2.55s-9.71,0-9.71,0v15.69s9.71,0,9.71,0v-2.54h-6.67v-4.32h5.98v-2.53s-5.98,0-5.98,0v-3.75Z"/><path id="_パス_88509" class="cls-2" d="M216.42,128.84v-12.84h-3.04v12.84c0,2.61-.71,3.68-2.46,3.68h-1.91s0,2.53,0,2.53h2.12c3.56,0,5.29-2.03,5.29-6.21"/><path id="_パス_88510" class="cls-2" d="M285.28,131.69h2.55s0-15.69,0-15.69h-2.87s0,10.17,0,10.17l-6.98-10.17h-2.53v15.69h2.88v-10.03l6.96,10.03Z"/></svg>