<?xml version="1.0" encoding="UTF-8"?><svg id="_レイヤー_1" xmlns="http://www.w3.org/2000/svg" viewBox="0 0 450 449.97"><defs><style>.cls-1{fill:#beb143;}.cls-2{fill:#fff;}.cls-3{fill:#0b57a6;}</style></defs><rect id="_長方形_10022" class="cls-2" x="65.91" y="65.89" width="318.19" height="318.19" transform="translate(-93.19 224.99) rotate(-45)"/><g id="_グループ_21338"><g id="_グループ_21337"><path id="_パス_88381" class="cls-3" d="M148.74,132.4v-22.52h8.37c4,0,6.69,1.56,6.69,5.86s-.66,3.67-2.48,4.59v.07c3.23.41,4.6,2.59,4.6,5.72,0,4.72-4.03,6.28-8.15,6.28h-9.02ZM154.6,127.92h.75c1.73,0,4.66.09,4.66-2.4,0-2.71-2.89-2.44-4.81-2.44h-.6v4.84ZM154.6,118.73h.66c1.56,0,3.17-.27,3.17-2.18,0-2.06-1.83-2.18-3.4-2.18h-.43v4.37Z"/><path id="_パス_88382" class="cls-3" d="M173.63,127.45h7.02v4.94h-12.87v-22.52h5.85v17.58Z"/><path id="_パス_88383" class="cls-3" d="M200.89,109.88v12.67c0,2.89-.13,5.76-2.36,7.94-1.88,1.85-4.84,2.51-7.47,2.51s-5.58-.65-7.47-2.51c-2.23-2.18-2.35-5.05-2.35-7.94v-12.67s5.85,0,5.85,0v11.87c0,2.91.21,6.11,3.97,6.11,3.76,0,3.97-3.2,3.97-6.11v-11.87h5.85Z"/><path id="_パス_88384" class="cls-3" d="M209.25,114.84v3.77h6.6v4.94h-6.6v3.9s6.96,0,6.96,0v4.95h-12.81v-22.52h12.81v4.96h-6.96Z"/><path id="_パス_88385" class="cls-3" d="M228.8,132.4v-22.52s8.35,0,8.35,0c4.01,0,6.69,1.56,6.69,5.86s-.66,3.67-2.47,4.59v.07c3.23.41,4.59,2.59,4.59,5.72,0,4.72-4.03,6.28-8.15,6.28h-9.01ZM234.64,127.92h.74c1.74,0,4.66.09,4.66-2.4,0-2.71-2.9-2.44-4.8-2.44h-.6s0,4.84,0,4.84ZM234.64,118.73h.66c1.55,0,3.16-.27,3.16-2.18,0-2.06-1.82-2.18-3.41-2.18h-.42v4.37Z"/><path id="_パス_88386" class="cls-3" d="M272.18,120.72c0,7.29-5.22,12.42-12.45,12.42-7.23,0-12.46-5.14-12.46-12.42,0-6.81,5.97-11.59,12.46-11.59s12.45,4.78,12.45,11.59M253.35,120.76c-.19,3.51,2.51,6.51,6.02,6.7,3.51.19,6.51-2.51,6.7-6.02.01-.23.01-.45,0-.68-.24-3.51-3.29-6.17-6.8-5.92-3.18.22-5.71,2.75-5.92,5.92"/><path id="_パス_88387" class="cls-3" d="M272.58,109.88h7.19s3.43,5.83,3.43,5.83l3.44-5.83h7.19s-7.19,10.48-7.19,10.48l8.33,12.04h-7.05s-4.72-7.34-4.72-7.34l-5.16,7.34h-7.09s8.81-12.04,8.81-12.04l-7.19-10.48Z"/><path id="_パス_88398" d="M129.17,177.26c.84.46,1.2.63,1.2.98s-.14.28-.53.39c-.74.21-.77.25-.91.56-1.08,3.16-2.58,6.16-4.46,8.91,1.5,1.71,2.91,3.5,4.21,5.37l-3.09,3.02c-1-1.84-2.21-3.56-3.61-5.12-3.23,3.74-7.17,6.82-11.58,9.05l-3.33-3.37c4.72-1.77,8.87-4.78,12.04-8.7-1.7-1.65-3.53-3.15-5.47-4.49l2.49-3.12c1.94,1.27,3.76,2.72,5.44,4.32,1.89-2.95,3.3-6.17,4.21-9.55l3.4,1.76Z"/><path id="_パス_88399" d="M144.75,186.55c-1-2.58-2.5-4.94-4.42-6.95l3.16-2.03c2.09,2.02,3.72,4.48,4.77,7.19l-3.51,1.79ZM143.45,198.55c10.88-3.37,15.3-9.43,17.97-21.61l3.61,1.44c.84.31,1.12.42,1.12.7s-.14.42-.56.56c-.46.18-.6.25-.91,1.33-2.77,9.12-5.65,15.4-18.11,20.88l-3.13-3.3ZM162.44,175.85c-.76-1.27-1.68-2.44-2.74-3.47l1.93-1.19c1.17.96,2.18,2.11,2.98,3.4l-2.18,1.26ZM167.91,175.85c-.87-1.35-1.87-2.62-2.98-3.79l1.93-1.23c1.29,1.08,2.37,2.41,3.16,3.9l-2.1,1.12Z"/><path id="_パス_88400" d="M185.21,192.87c-2.8,1.78-5.82,3.2-8.98,4.22l-2.11-3.55c6.5-1.52,12.32-5.13,16.56-10.28h-13.33v-3.65s15.82,0,15.82,0c.53,0,.91-.21,1.68-.95l2.77,3.4c-1.1.34-2.06,1.03-2.74,1.97-1.79,2.07-3.7,4.02-5.72,5.86v13.4h-3.96s0-10.43,0-10.43ZM189.91,178.69c-2.45-1.56-5.08-2.82-7.83-3.75l1.58-3.37c2.84.95,5.57,2.21,8.14,3.75l-1.89,3.37ZM198.02,197.64c-2.15-2.39-4.69-4.41-7.51-5.96l2.46-2.63c2.87,1.26,5.44,3.11,7.55,5.44l-2.49,3.16Z"/><path id="_パス_88401" d="M213.25,189.33c-.65-1.9-1.58-3.69-2.74-5.33l2.81-1.16c1.22,1.65,2.17,3.49,2.81,5.44l-2.88,1.05ZM214.69,199.37c8.32-3.37,11.4-8.67,13.23-17.9l2.67.8c.8.25,1.05.35,1.05.56s-.21.35-.42.49c-.23.11-.39.34-.42.6-1.41,5.23-3.4,13.12-13.44,17.9l-2.67-2.45ZM219.71,187.82c-.49-1.97-1.31-3.84-2.42-5.54l2.67-1.12c1.16,1.77,2.05,3.69,2.63,5.72l-2.88.94Z"/><path id="_パス_88402" d="M254.37,183.15c4.29,1.78,8.18,4.41,11.44,7.72l-2.56,3.54c-2.71-3.27-6.19-5.82-10.14-7.4v15.23s-3.86,0-3.86,0v-28.39l3.16.53c1.05.18,1.44.32,1.44.6-.04.19-.15.35-.31.46-.42.35-.42.39-.42.6v9.4l1.26-2.29Z"/><path id="_パス_88403" d="M280.63,185.01h-3.61s0-3.93,0-3.93c-.56.53-.88.8-1.65,1.44l-2.46-2.28c3.96-3.4,5.61-5.93,6.21-7.16l3.12,1.33c.28.14.46.21.46.39s-.14.28-.42.42c-.65.7-1.26,1.44-1.83,2.21.49.28.67.42.67.63s-.49,1.02-.49,1.19v5.75ZM294.28,197.93c2.38,1.26,4.97,2.07,7.65,2.39l-2.63,3.02c-.88-.14-4-.7-9.34-3.96l1.86-1.44h-6.49l1.16,1.26c.2.17.32.41.35.67,0,.17-.14.28-.35.28-.1,0-.39-.07-.56-.07-.22.02-.44.09-.63.21-2.51,1.38-5.22,2.38-8.03,2.95l-2.63-2.91c2.79-.35,5.5-1.16,8.03-2.39h-4.56v-12.11s20.25,0,20.25,0v12.11h-4.07ZM294.77,188.24h-13.09s0,1.26,0,1.26h13.09v-1.26ZM294.77,191.19h-13.09v1.23h13.09s0-1.23,0-1.23ZM294.77,194.1h-13.09s0,1.37,0,1.37h13.09v-1.37ZM302.63,178.52v2.42s-8.77,0-8.77,0v1.44h7.58s0,2.42,0,2.42h-17.69v-2.42s6.39,0,6.39,0v-1.44h-8.07v-2.42h8.07s0-1.37,0-1.37c-2.11.14-4.04.25-6.14.25l-.91-2.7c8,.14,12.32-.67,15.83-1.58l1.65,2.53c.14.25.25.35.25.46,0,.14-.11.21-.25.21-.25,0-.7-.1-.88-.1-.28,0-5.33.56-5.82.63v1.68h8.77Z"/><path id="_パス_88404" d="M316.7,174c.32.21.7.49.7.7,0,.24-.14.28-.6.35-.31.04-.46.25-.91.84-.35.46-.63.77-.88,1.05.28.17.49.35.49.63,0,.32-.25.53-.56.77-.17.12-.26.32-.25.53v4.24h-3.4v-2.63c-.98.8-1.12.91-1.93,1.54l-2.45-2.46c2.86-1.94,5.27-4.46,7.09-7.4l2.71,1.82ZM328.45,175.75c-.64-.43-1.32-.78-2.04-1.05l1.97-2.18c1.16.56,2.27,1.2,3.33,1.93l-.88.95,5.3-.67.46,2.98-8.67,1.12c1.89,1.62,3.79,2.49,4.53,2.49s1.34-.35,1.51-2.67l2.84,2c-.49,2.46-1.47,4.07-3.16,4.07-.39,0-.78-.04-1.16-.14v12.53h-4.7c2.51,1.45,5.21,2.52,8.03,3.19l-2.55,3.19c-3.43-1.24-6.72-2.83-9.82-4.74l1.75-1.65h-6.56l1.61,1.61c.14.14.25.21.25.35s-.1.25-.32.25c-.49-.05-.98.05-1.41.28-2.42,1.5-5.02,2.71-7.72,3.61l-2.45-3.02c2.81-.54,5.49-1.59,7.93-3.09h-5.09v-13.26h18.53c-2.36-.95-4.44-2.5-6.04-4.49l-7.83,1.02-.39-2.98,6.32-.8c-.59-1.21-1.05-2.48-1.37-3.79l4.11.07c.49,0,.84.04.84.28s-.8.74-.8.91c.2.71.49,1.4.88,2.03l2.77-.35ZM328.91,186.38h-13.89s0,1.54,0,1.54h13.9v-1.54ZM328.91,189.64h-13.89v1.54s13.9,0,13.9,0v-1.54ZM328.91,192.94h-13.89v1.65h13.9v-1.65Z"/><path id="_パス_88405" class="cls-1" d="M189.75,278.59h-21.22l-13.11-25.48h-.73v25.48h-19.76s0-64.59,0-64.59h21.95l12.27,26.32h.62v-26.32h19.98v64.59Z"/><path id="_パス_88406" class="cls-1" d="M195.47,253.47c0-9.12,2.03-15.72,6.09-19.81,4.06-4.09,10.4-6.14,19.03-6.14,8.63,0,14.93,2.01,18.88,6.03s5.93,10.63,5.93,19.81c0,9.19-1.92,15.87-5.77,20.02-3.85,4.16-10.16,6.24-18.93,6.24-8.77,0-15.17-2.08-19.19-6.24-4.02-4.16-6.03-10.8-6.03-19.92M223.3,244.63c-.65-1.52-2.41-2.23-3.93-1.58-.71.3-1.28.87-1.58,1.58-.38,1.22-.58,3.8-.58,7.75v2.5c0,4.44.19,7.3.58,8.58.56,1.52,2.24,2.3,3.77,1.74.81-.3,1.45-.93,1.74-1.74.5-2.66.69-5.36.58-8.06v-2.91c0-4.02-.19-6.64-.58-7.85"/><path id="_パス_88407" class="cls-1" d="M262.15,279.63c-3.75,0-6.38-.68-7.91-2.03-1.52-1.35-2.29-3.45-2.29-6.29,0-2.84.75-4.94,2.24-6.29,1.49-1.35,4.14-2.03,7.96-2.03,3.81,0,6.45.68,7.91,2.03,1.46,1.35,2.18,3.45,2.18,6.29,0,2.84-.75,4.94-2.24,6.29s-4.11,2.03-7.85,2.03"/><path id="_パス_88408" class="cls-1" d="M306.46,278.59h-21.53s0-47.02,0-47.02h-7.28v-11.75s11.54-5.82,11.54-5.82h17.27v64.59Z"/><path id="_パス_88435" d="M121.17,304.91v.79h-2.02c.23.29.44.6.62.93l-.82.45c-.24-.5-.54-.96-.9-1.38h-.57c-.45.56-.72.85-1.02,1.17l-.69-.65c.82-.8,1.49-1.74,1.98-2.77l.88.42c.15.07.23.12.23.21,0,.13-.27.17-.4.19-.16.26-.24.39-.4.64h3.12ZM123.89,304.06c.08.04.19.11.19.16,0,.08-.16.12-.37.16-.09.13-.23.35-.29.42h3.9v.79h-2.63c.25.29.46.62.62.97l-.73.48c-.27-.52-.61-1.01-1-1.45h-.78c-.28.35-.48.56-.73.84.36.03.4.03.4.16,0,.13-.09.17-.24.28v.52h5.02v2.69h-.93v-1.86s-9.35,0-9.35,0v1.97h-.93s0-2.8,0-2.8h5.08v-1.04l.9.08-.69-.45c.69-.69,1.26-1.48,1.69-2.36l.86.44ZM119.06,315.14v.41h-.94v-6.61h6.72v2.56h-5.77s0,.76,0,.76h6.49s0,3.22,0,3.22h-.93s0-.35,0-.35h-5.56ZM123.89,309.71h-4.83v1.04s4.83,0,4.83,0v-1.04ZM124.62,313.06h-5.56v1.29h5.56v-1.29Z"/><path id="_パス_88436" d="M133.71,312.26c-2.02.9-3.29,1.38-4.22,1.71-.05.12-.12.28-.21.28s-.17-.16-.2-.24l-.36-.91c.4-.11,1.27-.33,2.08-.6v-3.41h-1.66v-.9h1.66v-2.87h-1.76s0-.86,0-.86h4.42s0,.86,0,.86h-1.73v2.87s1.73,0,1.73,0v.9h-1.73s0,3.09,0,3.09c.98-.35,1.5-.58,2.01-.81l-.03.9ZM133.26,315.18v-.86h3.49v-1.9h-2.35v-.86h2.35v-1.52h-2.56v-5.93h6.08v5.93h-2.59v1.52h2.52s0,.86,0,.86h-2.52v1.9h3.32s0,.86,0,.86h-7.74ZM136.75,304.97h-1.63v1.63h1.63v-1.63ZM136.75,307.42h-1.63v1.74h1.63v-1.74ZM139.33,304.97h-1.66v1.63s1.66,0,1.66,0v-1.63ZM139.33,307.42h-1.66v1.74s1.66,0,1.66,0v-1.74Z"/><path id="_パス_88437" d="M145.65,310.98v4.6s-.97,0-.97,0v-4.15c-.66.3-.9.4-1.66.7-.08.12-.25.4-.35.4s-.13-.17-.16-.29l-.23-1.04c.81-.23,1.61-.5,2.39-.82v-2.88h-1.14c-.24.74-.35,1.02-.65,1.81l-.9-.35c.59-1.34.99-2.75,1.2-4.19l.98.32c.12.04.2.12.2.19,0,.11-.19.15-.3.19-.12.54-.16.7-.27,1.14h.88v-2.89l1,.08c.12.01.25.02.25.12,0,.07-.03.09-.28.27v2.43h1.2s0,.9,0,.9h-1.2s0,2.44,0,2.44c.49-.23.93-.46,1.38-.72v1.04c-.53.29-.9.48-1.38.72M153.2,314.27c-.39,1.14-1.08,1.14-2.49,1.14l-.32-1c.24.01.5.03.75.03,1.06,0,1.25-.35,1.43-1.75.2-1.88.28-3.77.24-5.67h-.56c-.21,3.16-1.54,6.14-3.77,8.39l-.8-.65c2.19-2,3.5-4.78,3.66-7.74h-.89c-.42,2.37-1.53,4.55-3.19,6.29l-.73-.66c.8-.78,1.46-1.68,1.96-2.67.47-.94.81-1.93,1.01-2.96h-.97c-.32.63-.69,1.23-1.1,1.79l-.93-.41c1.14-1.41,1.97-3.05,2.42-4.8l.94.29c.09.02.24.06.24.17,0,.15-.28.19-.36.19-.33.94-.49,1.31-.76,1.91h4.74c.01,2.1.03,6.4-.54,8.11"/><path id="_パス_88438" d="M159.34,304.25c-.32.85-.71,1.67-1.17,2.45.21.07.28.08.28.2s-.08.16-.24.28v8.48s-.94,0-.94,0v-7.58c-.36.51-.75,1-1.17,1.46l-.84-.6c1.47-1.57,2.62-3.43,3.36-5.45l.93.42c.07.03.16.08.16.17,0,.12-.12.15-.37.16M164.12,311.48v4.18h-.97v-4.18s-3.88,0-3.88,0v-.94h3.88v-3.24h-2.43c-.35.58-.5.85-.85,1.34l-.94-.41c.92-1.17,1.63-2.49,2.11-3.9l.94.41c.05.02.17.08.17.15,0,.13-.15.17-.35.21-.33.74-.48,1.06-.58,1.26h1.92s0-2.8,0-2.8l1,.11s.25.03.25.16c0,.11-.07.15-.28.28v2.26h2.97v.94h-2.97s0,3.24,0,3.24h3.45v.94h-3.45Z"/><path id="_パス_88439" d="M175.6,313.83c.73-.21,1.42-.56,2.03-1.02.98-.82,1.55-2.03,1.56-3.3,0-1.45-.81-2.77-2.1-3.44-.58-.24-1.19-.36-1.82-.36-.16,2.01-.68,3.98-1.54,5.81-.56,1.18-1.27,2.34-2.06,2.34-1.12,0-2.27-1.71-2.27-3.64.03-3.02,2.5-5.44,5.52-5.41.03,0,.07,0,.1,0,2.79,0,5.16,1.75,5.16,4.7,0,3.61-3.21,4.9-4.01,5.21l-.59-.89ZM171.24,307.59c-.58.75-.9,1.66-.92,2.6,0,1.42.81,2.49,1.34,2.49.28,0,.6,0,1.46-2.12.63-1.54,1.02-3.17,1.14-4.83-1.23.16-2.33.83-3.03,1.86"/><path id="_パス_88440" d="M186.21,307.22c.85.44,1.65.96,2.39,1.57.67-1.22,1.18-2.52,1.51-3.88l1.06.45c.11.04.27.13.27.25,0,.12-.17.15-.41.16-.4,1.29-.94,2.53-1.61,3.7.74.64,1.4,1.35,1.98,2.14l-.86.86c-.46-.78-1.03-1.49-1.7-2.11-1.13,1.62-2.61,2.97-4.33,3.94l-.86-.8c1.78-.86,3.3-2.19,4.39-3.84-.75-.6-1.56-1.12-2.42-1.55l.58-.91Z"/><path id="_パス_88441" d="M197.62,306.19c.67.78,1.26,1.63,1.77,2.52l-.93.6c-.46-.88-1.02-1.7-1.66-2.46l.82-.66ZM197.97,314.07c1.82-.42,3.42-1.47,4.53-2.97,1.19-1.55,2.01-3.36,2.39-5.28l1.1.49c.15.07.23.17.23.25,0,.13-.21.16-.39.17-1.02,2.83-1.66,4.39-3.56,6.21-.96.92-2.1,1.62-3.36,2.06l-.94-.93ZM204.92,305.26c-.33-.45-.7-.87-1.1-1.25l.69-.45c.39.39.76.81,1.1,1.25l-.69.45ZM206.65,304.81c-.31-.47-.68-.89-1.1-1.25l.69-.45c.41.37.78.79,1.1,1.25l-.69.45Z"/><path id="_パス_88442" d="M214.09,310.88c-1.17.77-2.44,1.38-3.77,1.81l-.75-.97c1.57-.32,3.06-.96,4.37-1.89.97-.62,1.81-1.43,2.47-2.37h-5.67v-.89h5.81c.31-.08.62-.2.9-.35l.76,1.1c-.42.16-.48.17-.62.35-.72.9-1.53,1.72-2.42,2.45v5.26h-1.07v-4.5ZM213.08,303.7c1.1.32,2.16.78,3.14,1.38l-.52.86c-.95-.57-1.96-1.04-3-1.42l.37-.82ZM216.54,310.13c.97.59,1.89,1.28,2.73,2.04l-.69.76c-.81-.78-1.71-1.46-2.67-2.04l.62-.76Z"/><path id="_パス_88443" d="M224.8,308.6c.37.61.69,1.24.94,1.91l-.73.35c-.24-.67-.55-1.31-.93-1.91l.72-.35ZM225.71,314.87c1.45-.41,2.71-1.31,3.56-2.56.86-1.27,1.36-2.75,1.46-4.29l.69.27c.3.09.39.16.39.23s-.04.11-.3.2c-.32,1.43-.87,2.81-1.63,4.06-.84,1.23-2.02,2.19-3.4,2.75l-.76-.65ZM227.33,307.99c.39.59.71,1.23.94,1.9l-.73.31c-.25-.66-.56-1.29-.93-1.9l.72-.31Z"/><path id="_パス_88444" d="M241.44,307.99c1.58.62,3.05,1.5,4.35,2.59l-.65.93c-.57-.51-1.18-.98-1.82-1.39-.71-.48-1.47-.89-2.27-1.2v5.91s-1.06,0-1.06,0v-10.36l1.01.05c.07,0,.37.01.37.19,0,.08-.11.15-.32.29v3.76l.38-.76Z"/><path id="_パス_88445" d="M252.11,304.24c-.37.49-.68.79-.88,1.02.12.08.2.14.2.21,0,.09-.13.16-.24.2v2.73h-.89v-2.18c-.45.38-.92.73-1.42,1.04l-.73-.66c1.39-.73,2.55-1.82,3.38-3.14l.77.49c.05.03.15.09.15.17,0,.15-.28.12-.35.12M259.38,315.66c-1.22-.26-2.4-.68-3.51-1.25l.2-.41h-3.34l.3.37s.08.1.08.16c0,.11-.11.13-.21.13-.09,0-.19-.02-.28-.04-.94.5-1.94.87-2.97,1.1l-.58-.84c.98-.1,1.94-.4,2.8-.89h-1.52v-5.25h8.26v5.25h-1.45c.9.35,1.82.64,2.76.86l-.52.79ZM257.66,309.5h-6.4s0,.76,0,.76h6.4v-.76ZM257.66,310.98h-6.4s0,.76,0,.76h6.4v-.76ZM257.66,312.45h-6.4v.78s6.4,0,6.4,0v-.78ZM256.69,306.5v.69h2.95v.76h-6.57s0-.76,0-.76h2.65v-.69h-3.58v-.8h3.58v-.69c-.96.05-1.91.06-2.87.06l-.28-.86c.3.03.89.08,1.77.08,1.54.01,3.06-.22,4.52-.7l.5.72s.05.09.05.15c0,.06-.05.08-.09.08-.13-.02-.26-.05-.39-.11-.74.2-1.49.35-2.26.44v.83h3.53s0,.8,0,.8h-3.53Z"/><path id="_パス_88446" d="M265.71,304.53c-.24.32-.5.62-.78.9.08.03.21.08.21.17s-.12.16-.21.24v2.01s-.9,0-.9,0v-1.6c-.5.45-1.04.86-1.62,1.2l-.73-.69c1.39-.76,2.61-1.81,3.57-3.07l.71.42s.2.11.2.2c0,.17-.33.2-.45.2M272.86,309.44c-.42,0-.83-.11-1.2-.3v4.49s-1.74,0-1.74,0c1.1.59,2.28,1.01,3.51,1.25l-.62.86c-1.29-.35-2.54-.85-3.73-1.48l.5-.64h-3.8l.46.5c.05.06.09.13.11.2,0,.06-.05.1-.15.1-.09,0-.17-.03-.25-.06-.21.12-1.18.64-1.38.73-.59.27-1.21.51-1.83.7l-.65-.8c1.15-.28,2.24-.75,3.24-1.38h-1.62v-5.46s6.74,0,6.74,0c-.46-.46-.86-.99-1.18-1.57l-3.35.21-.04-.9,2.97-.17c-.31-.64-.56-1.31-.73-2.01h1.06c.13.01.28.03.28.13,0,.11-.11.17-.2.24.11.55.3,1.07.56,1.57l3.88-.24.02.9-3.49.2c.22.35.46.68.74.98.38.49.93.83,1.54.93.42,0,.52-.24.56-1.29l.86.45c-.16,1.33-.4,1.83-1.09,1.83M270.73,308.94h-6.09v.77h6.09v-.77ZM270.73,310.46h-6.09v.78h6.09v-.78ZM270.73,311.99h-6.09s0,.8,0,.8h6.09s0-.8,0-.8ZM271.52,305.1c-.37-.34-.78-.64-1.22-.89l.56-.66c.44.28.86.6,1.25.94l-.59.61Z"/><path id="_パス_88447" d="M284.04,304.17v11.68h-.86s0-12.48,0-12.48h3.95v.8s-3.09,0-3.09,0Z"/><path id="_パス_88448" d="M299.43,307.46v.94s-2.67,0-2.67,0c.05,1.4-.2,2.79-.73,4.09-.54,1.22-1.56,2.17-2.83,2.62l-.93-.8c1.26-.27,2.31-1.12,2.85-2.28.47-1.15.7-2.38.68-3.62h-2.95v3.25h-1s0-3.25,0-3.25h-2.91v-.94h2.91s0-2.79,0-2.79l1.08.13s.24.03.24.13-.04.11-.32.28v2.24h2.91c0-1.12-.04-2.23-.07-3l1.02.07c.13.01.32.03.32.16,0,.11-.03.12-.27.29v2.48h2.65ZM298.78,306.81c-.41-.43-.86-.81-1.35-1.14l.58-.58c.5.3.96.67,1.35,1.1l-.58.62ZM299.75,305.39c-.39-.44-.85-.81-1.35-1.1l.58-.62c.49.33.95.71,1.35,1.14l-.58.59Z"/><path id="_パス_88449" d="M304.35,315.61h-.97s0-7.76,0-7.76c-.44.64-.91,1.25-1.42,1.83l-.69-.69c1.43-1.58,2.53-3.43,3.23-5.44l.96.36c.08.03.14.1.15.19,0,.09-.17.16-.33.2-.26.66-.56,1.31-.9,1.94.2.11.23.17.23.24s-.03.15-.24.39v8.76ZM310.36,303.62l1.07.12c.17.03.17.12.17.15,0,.11-.17.21-.28.28v1.37h1.83v.82h-1.83v1.81h2.18v.82h-8.43v-.82h2.37v-1.81s-1.94,0-1.94,0v-.82h1.94v-1.91l.92.09c.09.01.33.04.33.17,0,.07-.03.09-.28.25v1.39s1.94,0,1.94,0v-1.91ZM306.53,309.99h5.62s0,5.56,0,5.56h-.93v-.69s-3.77,0-3.77,0v.65h-.93v-5.52ZM311.22,310.79h-3.77v1.22h3.77v-1.22ZM311.22,312.77h-3.77v1.3h3.77v-1.3ZM310.36,306.36h-1.94v1.81h1.94v-1.81Z"/><path id="_パス_88450" d="M325.95,315.26c-2.54-1.71-4.04-4.59-4-7.66h-1.14c-.11.11-.23.24-.54.54,1.4,1.31,2.17,3.16,2.1,5.08,0,1.61-.7,2.51-2.02,2.51-.24,0-.48-.03-.72-.09l-.25-1c.32.1.65.15.98.15.8,0,1.06-.65,1.06-1.69,0-.44-.04-.87-.12-1.3-1.6,1.51-3.54,2.62-5.66,3.21l-.64-.86c.79-.05,1.57-.26,2.28-.61,1.42-.61,2.69-1.51,3.76-2.63-.1-.29-.22-.57-.37-.84-1.28,1.29-2.86,2.23-4.61,2.73l-.56-.8c1.79-.41,3.4-1.37,4.61-2.75-.21-.27-.36-.41-.49-.56-.93.76-1.97,1.38-3.09,1.82l-.61-.72c.8-.26,1.56-.64,2.24-1.13.44-.31.84-.67,1.2-1.07h-2.34v-.82h7.58v.82s-1.77,0-1.77,0c0,.79.09,1.57.29,2.33.64-.41,1.23-.9,1.75-1.46l.72.65c.06.04.09.1.11.17,0,.05,0,.11-.41.09-.77.62-1.7,1.23-1.88,1.37.64,1.61,1.84,2.93,3.37,3.73l-.83.76ZM325.46,307.37v-1.75h-9.29s0,1.75,0,1.75h-.93v-2.56s5,0,5,0v-1.46s1.12.11,1.12.11c.11.01.23.03.23.12,0,.05-.08.12-.24.25v.98h5.04v2.56h-.93Z"/><path id="_パス_88451" d="M331.08,315.06v-11.68h.86v12.48s-3.95,0-3.95,0v-.79h3.09Z"/><path id="_パス_88452" d="M173.54,337.05c-1.54.11-2.92-.94-3.21-2.45h1.25c.19.91,1.03,1.52,1.95,1.42,2.56,0,2.69-2.91,2.73-3.89-.62.9-1.67,1.41-2.76,1.35-1.71.13-3.2-1.15-3.32-2.86,0-.11-.01-.22,0-.33-.06-1.85,1.39-3.4,3.24-3.47.1,0,.19,0,.29,0,1.17-.05,2.28.51,2.95,1.47.6,1.06.9,2.27.86,3.49,0,3.04-1.31,5.26-3.97,5.26M173.73,327.82c-1.2-.08-2.23.83-2.31,2.03,0,.11,0,.21,0,.32-.12,1.15.72,2.18,1.88,2.3.11.01.23.01.34,0,1.2.14,2.28-.72,2.41-1.92.01-.09.02-.18.01-.28.1-1.26-.84-2.36-2.09-2.46-.08,0-.16,0-.24,0"/><path id="_パス_88453" d="M181.61,336.78h-1.26c.23-1.63.72-3.2,1.45-4.67.67-1.47,1.57-2.82,2.65-4.02h-5.79v-.99s7.09,0,7.09,0v.99c-2.24,2.41-3.68,5.44-4.14,8.69"/><rect id="_長方形_10027" x="187.41" y="335.37" width="1.42" height="1.42"/><path id="_パス_88454" d="M193.42,336.78h-1.26c.23-1.63.72-3.2,1.45-4.67.67-1.47,1.57-2.82,2.65-4.02h-5.78v-.99s7.09,0,7.09,0v.99c-2.23,2.41-3.68,5.44-4.14,8.69"/><path id="_パス_88455" d="M200.94,331.86c-1.22,0-2.1-.97-2.1-2.51,0-1.57.89-2.52,2.1-2.52s2.09.96,2.09,2.52-.89,2.51-2.09,2.51M200.94,327.57c-.9,0-1.25.76-1.25,1.78,0,.3,0,1.76,1.25,1.76,1.07,0,1.25-1.07,1.25-1.76,0-.37-.03-1.78-1.25-1.78M201.81,336.78h-.86s5.19-9.69,5.19-9.69h.87l-5.19,9.69ZM207.02,337.05c-1.2,0-2.1-.96-2.1-2.51,0-1.52.86-2.51,2.1-2.51s2.11,1.01,2.11,2.51c0,1.53-.86,2.51-2.11,2.51M207.02,332.78c-.93,0-1.25.78-1.25,1.76,0,.33.01,1.77,1.25,1.77.97,0,1.26-.85,1.26-1.77,0-.37-.03-1.76-1.26-1.76"/><path id="_パス_88456" d="M220.55,335.96c.73-.21,1.42-.56,2.03-1.02.98-.82,1.55-2.03,1.57-3.3,0-1.45-.81-2.77-2.1-3.44-.58-.24-1.19-.36-1.82-.36-.16,2.01-.68,3.98-1.54,5.81-.56,1.18-1.27,2.34-2.06,2.34-1.12,0-2.27-1.71-2.27-3.64.03-3.02,2.5-5.44,5.52-5.41.03,0,.07,0,.1,0,2.79,0,5.16,1.75,5.16,4.7,0,3.61-3.21,4.9-4.01,5.21l-.59-.89ZM216.18,329.72c-.58.75-.9,1.66-.92,2.6,0,1.42.81,2.49,1.34,2.49.28,0,.6,0,1.46-2.12.63-1.54,1.02-3.17,1.14-4.83-1.23.16-2.33.83-3.03,1.86"/><path id="_パス_88457" d="M227.18,327.87v-.86h5.3v-1.34l1.08.12c.08.01.28.04.28.17s-.09.17-.36.35v.7h5.4s0,.86,0,.86h-11.7ZM238.03,337.47c-.51.16-1.04.21-1.57.16l-.25-1.04c.3.01.68.04.82.04.42,0,.42-.09.42-.52v-2.93s-8.93,0-8.93,0v4.54s-.97,0-.97,0v-5.4h10.87v4.06c0,.5,0,.9-.4,1.09M229.38,328.78h7.23v2.62h-7.23v-2.62ZM235.69,329.58h-5.4s0,1.02,0,1.02h5.4s0-1.02,0-1.02ZM231.2,336.78v.42s-.9,0-.9,0v-3.05h5.39s0,2.63,0,2.63h-4.49ZM234.79,334.93h-3.6v1.04h3.6v-1.04Z"/><path id="_パス_88458" d="M251.21,337.51c-1.14-.67-2.13-1.56-2.91-2.63-.84-1.1-1.45-2.37-1.79-3.71-.69,2.85-2.63,5.23-5.28,6.48l-.73-.89c1.75-.68,3.22-1.94,4.15-3.57,1-1.88,1.5-3.99,1.45-6.12h-2.76v-.96h3.84c0,.25-.01.41-.03.88-.01.23-.05,1.2-.05,1.39,0,1.48.33,2.95.97,4.29.85,1.7,2.22,3.08,3.91,3.94l-.77.9Z"/><path id="_パス_88459" d="M260.76,331.75v1.78s3.14,0,3.14,0v4.14h-1v-.73h-5.12v.76h-.99s0-4.17,0-4.17h3v-1.78h-4.06c-.08,1.9-.6,3.76-1.5,5.44l-.86-.54c1.45-2.47,1.48-5.39,1.48-7.86s-.01-1.46-.04-2.68h9.5v3.13h-3.56s0,1.65,0,1.65h4.46v.86h-4.46ZM259.79,329.24h-3.97c-.01.78-.03,1.06-.04,1.65h4.01v-1.65ZM263.34,326.98h-7.52v1.41s7.53,0,7.53,0v-1.41ZM262.9,334.33h-5.12s0,1.79,0,1.79h5.12v-1.79Z"/><path id="_パス_88460" d="M269.96,331.87c-.41.37-1.26,1.1-2.01,1.69,0,.17-.01.38-.16.38-.05,0-.12-.04-.23-.19l-.6-.8c1-.63,1.96-1.32,2.87-2.07l.13.99ZM272.31,333.34l1.02.1c.12.01.29.03.29.15s-.21.23-.32.28v.74h5.32s0,.86,0,.86h-5.32v2.3s-1,0-1,0v-2.3h-5.34v-.86h5.34s0-1.27,0-1.27ZM267.76,328.84c.79.4,1.54.86,2.24,1.38l-.56.73c-.69-.5-1.42-.96-2.18-1.35l.49-.76ZM274.42,331.05c.57.6,1.04,1.29,1.38,2.04l-.72.44c-.12-.28-.27-.56-.42-.82-1.72.24-3.24.41-4.29.5-.05.11-.13.29-.25.29-.1,0-.16-.12-.17-.2l-.29-.94c.45,0,.79-.01,1.2-.04.38-.24.73-.53,1.04-.86-.54-.56-1.13-1.05-1.77-1.49l.52-.65c.21.12.41.26.6.41.48-.49.91-1.04,1.27-1.62h-5.18v-.88s4.96,0,4.96,0v-1.58l1.06.12c.24.03.28.07.28.12,0,.15-.23.21-.35.24v1.1h4.96v.88h-5.54s.6.44.6.44c.13.09.17.15.17.2,0,.17-.29.15-.42.13-.39.47-.8.91-1.25,1.33.26.21.5.44.73.68.33-.36.85-.91,1.55-1.74l.77.64c.07.04.13.1.13.17,0,.13-.17.13-.23.13-.08,0-.17,0-.25-.02-.75.75-1.55,1.49-2.36,2.19.74-.05,1.85-.15,2.07-.17-.27-.32-.37-.44-.48-.56l.64-.48ZM275.36,330.24c.68-.5,1.33-1.05,1.94-1.65l.62.7c.1.11.15.16.15.21,0,.09-.12.1-.17.1s-.19-.01-.24-.01c-.55.47-1.12.92-1.71,1.33l-.59-.69ZM276.08,331.13c.8.55,1.54,1.17,2.24,1.84l-.58.73c-.69-.67-1.43-1.28-2.21-1.83l.55-.74Z"/><path id="_パス_88461" d="M164.15,358.91v-7.09s-2.04,0-2.04,0v-.86c1.12.14,2.15-.63,2.35-1.74h.92v9.69s-1.22,0-1.22,0Z"/><path id="_パス_88462" d="M172.97,359.18c-1.17.1-2.32-.4-3.05-1.31-.39-.57-.6-1.24-.61-1.94h1.2c-.04,1.22.91,2.23,2.13,2.27.12,0,.23,0,.35-.02,1.63,0,2.45-.94,2.45-2.12,0-1.41-1.17-1.86-2.2-1.86h-1.02s0-.88,0-.88h.86c.74,0,2.07-.41,2.07-1.7s-.42-1.67-2.04-1.67c-.65-.04-1.28.2-1.73.66-.3.38-.47.84-.49,1.33h-1.2c.05-1.71,1.48-3.05,3.19-3,.08,0,.16,0,.23.02,1.94,0,3.23,1.04,3.23,2.54.04,1.04-.67,1.96-1.68,2.19,1.18.16,2.04,1.2,1.98,2.39,0,1.72-1.34,3.1-3.68,3.1"/><path id="_パス_88463" d="M178.18,360.56v-.69c.52-.16.69-.29.73-.96h-.73v-1.42s1.42,0,1.42,0v1.41c0,1.27-.76,1.47-1.42,1.66"/><path id="_パス_88464" d="M184.79,359.18c-2.97,0-3.68-2.67-3.68-5.11s.7-5.11,3.68-5.11c2.97,0,3.66,2.7,3.66,5.11s-.69,5.11-3.66,5.11M184.79,349.96c-1.9,0-2.42,1.94-2.42,4.12s.56,4.12,2.42,4.12,2.42-1.86,2.42-4.12c0-2.26-.54-4.12-2.42-4.12"/><path id="_パス_88465" d="M193.15,359.18c-2.97,0-3.68-2.67-3.68-5.11s.7-5.11,3.68-5.11c2.97,0,3.66,2.7,3.66,5.11,0,2.43-.69,5.11-3.66,5.11M193.15,349.96c-1.9,0-2.42,1.94-2.42,4.12,0,2.27.56,4.12,2.42,4.12s2.42-1.86,2.42-4.12-.54-4.12-2.42-4.12"/><path id="_パス_88466" d="M201.52,359.18c-2.97,0-3.68-2.67-3.68-5.11s.7-5.11,3.68-5.11,3.66,2.7,3.66,5.11c0,2.43-.69,5.11-3.66,5.11M201.52,349.96c-1.9,0-2.42,1.94-2.42,4.12s.56,4.12,2.42,4.12,2.42-1.86,2.42-4.12c0-2.26-.54-4.12-2.42-4.12"/><path id="_パス_88467" d="M219.3,355.81v-.8s-6.6,0-6.6,0c-.04.88-.22,1.74-.53,2.56-.39.91-1,1.7-1.77,2.32l-.8-.66c1.87-1.59,2.08-2.8,2.08-5.52v-2.71s8.56,0,8.56,0v4.81h-.96ZM210.34,348.38h11.2v.93h-11.2s0-.93,0-.93ZM219.3,351.94h-6.57v2.18h6.57v-2.18Z"/><path id="_パス_88468" d="M229.78,358.09c.73-.21,1.42-.56,2.03-1.02.98-.82,1.55-2.03,1.57-3.3,0-1.45-.81-2.77-2.1-3.44-.58-.24-1.19-.36-1.82-.36-.16,2.01-.68,3.98-1.54,5.81-.56,1.18-1.27,2.34-2.06,2.34-1.12,0-2.27-1.71-2.27-3.64.03-3.02,2.5-5.44,5.52-5.41.03,0,.07,0,.1,0,2.79,0,5.16,1.75,5.16,4.7,0,3.61-3.21,4.9-4.01,5.21l-.59-.89ZM225.41,351.86c-.58.75-.9,1.66-.92,2.6,0,1.42.81,2.49,1.34,2.49.28,0,.6,0,1.46-2.12.63-1.54,1.02-3.17,1.14-4.83-1.23.16-2.33.83-3.03,1.86"/><path id="_パス_88469" d="M241.74,349.17v.79h-2.02c.23.29.44.6.62.93l-.82.45c-.24-.5-.54-.96-.9-1.38h-.57c-.45.56-.72.85-1.02,1.17l-.69-.65c.82-.8,1.49-1.74,1.98-2.77l.88.42c.15.07.23.12.23.21s-.27.17-.4.19c-.16.27-.24.39-.4.64h3.13ZM244.46,348.32c.08.04.19.11.19.16s-.16.12-.37.16c-.09.13-.22.35-.29.42h3.9v.79h-2.63c.25.29.46.62.62.97l-.73.48c-.27-.52-.61-1.01-1-1.45h-.78c-.28.35-.48.56-.73.84.36.03.4.03.4.16s-.09.17-.24.28v.52s5.02,0,5.02,0v2.69s-.93,0-.93,0v-1.86s-9.34,0-9.34,0v1.97h-.93s0-2.8,0-2.8h5.07v-1.04l.9.08-.69-.45c.69-.69,1.26-1.48,1.69-2.36l.87.44ZM239.63,359.41v.41s-.95,0-.95,0v-6.61h6.72s0,2.56,0,2.56h-5.77v.76s6.49,0,6.49,0v3.22h-.93s0-.35,0-.35h-5.56ZM244.46,353.98h-4.83s0,1.04,0,1.04h4.83s0-1.04,0-1.04ZM245.19,357.32h-5.56v1.29h5.56v-1.29Z"/><path id="_パス_88470" d="M254.28,356.53c-2.02.9-3.29,1.38-4.22,1.71-.05.12-.12.28-.21.28s-.17-.16-.2-.24l-.36-.91c.4-.11,1.27-.33,2.08-.6v-3.41s-1.66,0-1.66,0v-.9s1.66,0,1.66,0v-2.87h-1.77v-.86s4.42,0,4.42,0v.86s-1.72,0-1.72,0v2.87h1.72v.9h-1.72v3.09c.98-.35,1.5-.58,2.01-.81l-.03.9ZM253.82,359.44v-.86h3.49v-1.9s-2.35,0-2.35,0v-.86h2.35v-1.52h-2.56v-5.93h6.08v5.93s-2.59,0-2.59,0v1.52s2.52,0,2.52,0v.86s-2.52,0-2.52,0v1.9h3.32v.86h-7.74ZM257.32,349.23h-1.63s0,1.63,0,1.63h1.63v-1.63ZM257.32,351.69h-1.63v1.74h1.63v-1.74ZM259.9,349.23h-1.66s0,1.63,0,1.63h1.66s0-1.63,0-1.63ZM259.9,351.69h-1.66v1.74s1.66,0,1.66,0v-1.74Z"/><path id="_パス_88471" d="M268.3,350.55l1.06.07c.19.01.25.07.25.15s-.08.16-.32.25v.54s3.53,0,3.53,0v.86h-3.53v1.14s3.14,0,3.14,0v.82h-3.14c0,.4-.03.79-.11,1.18h5.02v.89h-4.5c1.19,1.74,3.34,2.1,4.66,2.3l-.65,1.01c-2.11-.48-3.68-1.1-4.87-3.03-.8,1.47-1.91,2.63-4.98,3.01l-.54-.94c3.36-.3,4.12-1.55,4.55-2.35h-4.46s0-.89,0-.89h4.74c.09-.39.14-.78.15-1.18h-3.25v-.82s3.25,0,3.25,0v-1.14s-3.49,0-3.49,0v-.86h3.49v-1.01ZM268.27,347.86l1.14.08c.05.01.21.03.21.16s-.16.23-.32.3v.73s4.91,0,4.91,0v2.43s-.97,0-.97,0v-1.53s-8.91,0-8.91,0v1.59s-.97,0-.97,0v-2.49h4.9v-1.27Z"/><path id="_パス_88472" d="M276.61,349.72c.24.19.32.27.73.56.62-.82,1.16-1.7,1.62-2.63l.88.53c.12.08.13.12.13.16s-.21.16-.38.2c-.41.58-.85,1.26-1.55,2.36.26.23.49.47.72.73.43-.58.81-1.19,1.14-1.83l.86.69s.11.08.11.15c0,.12-.23.15-.46.17-.36.46-1.87,2.55-2.19,2.96.54-.07,1.07-.18,1.59-.31-.08-.13-.4-.71-.45-.83l.8-.35c.43.75.79,1.53,1.07,2.34l-.8.32c-.16-.41-.17-.45-.3-.77-.3.09-.71.19-1.03.25v5.38s-.9,0-.9,0v-5.2c-.4.09-1.55.34-1.62.36-.07.12-.15.27-.27.27s-.15-.15-.16-.21l-.17-.97c.28,0,.68-.04.97-.07.21-.25,1.1-1.39,1.29-1.63-.65-.69-1.37-1.31-2.15-1.86l.55-.77ZM276.1,359.06c.47-1.16.72-2.39.73-3.64l.96.13c.09.01.21.03.21.15,0,.12-.16.19-.27.23-.12,1.16-.36,2.3-.73,3.4l-.9-.27ZM280.31,355.32c.32.9.54,1.84.65,2.8l-.86.17c-.13-.92-.34-1.83-.62-2.72l.84-.25ZM285.7,358.09c.8.51,1.71.84,2.65.97l-.65.78c-1.02-.19-1.99-.56-2.87-1.1l.72-.65h-2.2s.5.6.5.6c.03.04.11.13.11.2,0,.07,0,.15-.48.09-.16.07-.85.35-.98.41-.53.2-1.06.4-1.61.56l-.52-.82c.96-.22,1.89-.57,2.76-1.03h-1.51v-4.84h5.77v4.84s-1.71,0-1.71,0ZM284.05,347.88l.88.05c.13.01.32.03.32.13s-.13.19-.29.28v.68s2.87,0,2.87,0v.73h-2.87v.69s2.52,0,2.52,0v.73h-2.52s0,.73,0,.73h3.07v.76h-7.01v-.76s3.04,0,3.04,0v-.73h-2.35s0-.73,0-.73h2.35v-.69s-2.69,0-2.69,0v-.73h2.69s0-1.14,0-1.14ZM282.52,354.61h3.94v-.68h-3.94v.68ZM282.52,355.99h3.94v-.68h-3.94v.68ZM286.46,356.68h-3.94s0,.72,0,.72h3.94v-.72Z"/></g></g></svg>