<svg id="グループ_21339" data-name="グループ 21339" xmlns="http://www.w3.org/2000/svg" xmlns:xlink="http://www.w3.org/1999/xlink" width="1012.424" height="737.875" viewBox="0 0 1012.424 737.875">
  <defs>
    <clipPath id="clip-path">
      <rect id="長方形_10033" data-name="長方形 10033" width="1012.422" height="737.875" fill="none"/>
    </clipPath>
  </defs>
  <rect id="長方形_10018" data-name="長方形 10018" width="317.245" height="317.245" transform="translate(288.901 237.383) rotate(-45)" fill="#a2a2a2"/>
  <rect id="長方形_10019" data-name="長方形 10019" width="317.245" height="317.245" transform="translate(13.06 513.228) rotate(-45.001)" fill="#a2a2a2"/>
  <rect id="長方形_10020" data-name="長方形 10020" width="317.245" height="317.245" transform="matrix(0.707, -0.707, 0.707, 0.707, 563.772, 513.551)" fill="#a2a2a2"/>
  <rect id="長方形_10021" data-name="長方形 10021" width="317.245" height="317.245" transform="translate(275.843 224.325) rotate(-45)" fill="#fff"/>
  <rect id="長方形_10022" data-name="長方形 10022" width="317.245" height="317.245" transform="translate(0.001 500.169) rotate(-45)" fill="#fff"/>
  <rect id="長方形_10023" data-name="長方形 10023" width="317.245" height="317.245" transform="matrix(0.707, -0.707, 0.707, 0.707, 550.713, 500.49)" fill="#fff"/>
  <g id="グループ_21338" data-name="グループ 21338">
    <g id="グループ_21337" data-name="グループ 21337" clip-path="url(#clip-path)">
      <path id="パス_88377" data-name="パス 88377" d="M336.812,178.518v7.627h-6.557a40.456,40.456,0,0,1,6.557-7.627" transform="translate(397.932 215.101)" fill="#8dc33e"/>
      <path id="パス_88378" data-name="パス 88378" d="M362.148,173.3v4.447a32.292,32.292,0,0,0-9.658-2.035,8.524,8.524,0,0,0-3.259.512c-.807.342-1.208.8-1.208,1.36a1.583,1.583,0,0,0,.871,1.237,18.056,18.056,0,0,0,4.251,1.515,55.587,55.587,0,0,1,5.406,1.729,10.3,10.3,0,0,1,3.5,2.247,4.941,4.941,0,0,1,1.471,3.667,5.652,5.652,0,0,1-3.215,5.032,16.715,16.715,0,0,1-8.469,1.874,28.485,28.485,0,0,1-10.987-2.2v-4.9a33.966,33.966,0,0,0,5.406,2.231,17.4,17.4,0,0,0,4.992.7q4.468,0,4.467-2.1a1.74,1.74,0,0,0-.893-1.354,16.541,16.541,0,0,0-4.306-1.546,52.006,52.006,0,0,1-5.406-1.693,9.922,9.922,0,0,1-3.442-2.234,5.024,5.024,0,0,1-1.451-3.715q0-2.934,3.162-4.732a17.044,17.044,0,0,1,8.458-1.8,33.451,33.451,0,0,1,10.31,1.76" transform="translate(409.937 206.689)" fill="#27a639"/>
      <path id="パス_88379" data-name="パス 88379" d="M379,183.164c0,6.4-5.77,11.593-12.894,11.593s-12.89-5.19-12.89-11.593,5.77-11.6,12.89-11.6S379,176.759,379,183.164m-12.894-7.131c-3.559,0-6.447,3.191-6.447,7.131s2.888,7.129,6.447,7.129,6.449-3.193,6.449-7.129-2.888-7.131-6.449-7.131" transform="translate(425.602 206.724)" fill="#27a639"/>
      <path id="パス_88380" data-name="パス 88380" d="M437.247,176.219v12.052c-17.2-21.214-49.706-20.023-49.706-20.023-22.9.617-36.56,10.5-44.1,18.971V173.472h10.641v-5.927H324.756v5.927h10.7v25.906l.013-.024-.007.018c18.424-30.421,53.057-28.08,53.057-28.08,13.763.408,23.89,4.084,31.23,8.65v19.478h6.6V184.854c8.123,7.2,10.848,14.566,10.848,14.566h6.65v-23.2Z" transform="translate(391.306 201.879)" fill="#27a639"/>
      <path id="パス_88381" data-name="パス 88381" d="M67.284,197.268V174.829h8.339c3.98,0,6.661,1.55,6.661,5.839,0,2.026-.655,3.658-2.47,4.577v.073c3.217.408,4.582,2.582,4.582,5.7,0,4.7-4.017,6.255-8.123,6.255Zm5.834-4.458h.743c1.724,0,4.646.088,4.646-2.39,0-2.7-2.884-2.43-4.791-2.43h-.6Zm0-9.161h.655c1.55,0,3.162-.267,3.162-2.176,0-2.048-1.819-2.174-3.391-2.174h-.426Z" transform="translate(81.072 210.656)" fill="#0b57a6"/>
      <path id="パス_88382" data-name="パス 88382" d="M81.714,192.341h6.994v4.926H75.882V174.83h5.832Z" transform="translate(91.432 210.657)" fill="#0b57a6"/>
      <path id="パス_88383" data-name="パス 88383" d="M101.545,174.829v12.623c0,2.877-.126,5.739-2.35,7.913-1.872,1.846-4.82,2.5-7.439,2.5s-5.563-.65-7.444-2.5c-2.225-2.174-2.344-5.036-2.344-7.913V174.829H87.8v11.827c0,2.9.209,6.088,3.956,6.088s3.958-3.186,3.958-6.088V174.829Z" transform="translate(98.764 210.656)" fill="#0b57a6"/>
      <path id="パス_88384" data-name="パス 88384" d="M97.813,179.773v3.759h6.579v4.926H97.813v3.883h6.932v4.928H91.979V174.83h12.766v4.943Z" transform="translate(110.828 210.657)" fill="#0b57a6"/>
      <path id="パス_88385" data-name="パス 88385" d="M103.455,197.268V174.829h8.319c3.993,0,6.661,1.55,6.661,5.839,0,2.026-.653,3.658-2.465,4.577v.073c3.219.408,4.577,2.582,4.577,5.7,0,4.7-4.015,6.255-8.119,6.255Zm5.825-4.458h.741c1.729,0,4.641.088,4.641-2.39,0-2.7-2.888-2.43-4.785-2.43h-.6Zm0-9.161h.657c1.543,0,3.151-.267,3.151-2.176,0-2.048-1.815-2.174-3.393-2.174h-.415Z" transform="translate(124.655 210.656)" fill="#0b57a6"/>
      <path id="パス_88386" data-name="パス 88386" d="M136.616,186.039c0,7.263-5.2,12.378-12.4,12.378S111.8,193.3,111.8,186.039c0-6.785,5.951-11.547,12.409-11.547s12.4,4.763,12.4,11.547m-18.748.037a6.347,6.347,0,1,0,12.676,0,6.353,6.353,0,0,0-12.676,0" transform="translate(134.713 210.25)" fill="#0b57a6"/>
      <path id="パス_88387" data-name="パス 88387" d="M124.119,174.829h7.164l3.422,5.808,3.431-5.808H145.3l-7.166,10.445,8.3,11.995H139.41l-4.705-7.312-5.144,7.312H122.5l8.778-11.995Z" transform="translate(147.609 210.656)" fill="#0b57a6"/>
      <path id="パス_88388" data-name="パス 88388" d="M180.264,107.234c2.167-2.412,4.648-6.152,5.137-13.247l3.391.278c.106,0,.908.071.908.489,0,.141-.558.56-.628.664-.106.141-.49,2.692-.56,3.008,1.05,3.984,2.728,5.034,5,5.978V91.365h-7.9V88.358H204.8v3.008h-7.585v4.158h10.348v3.321H197.218v6.608c.944.068,1.817.1,3.845.1,4.3,0,7.375-.313,9.333-.49l-1.33,3.881c-9.927,0-13.6,0-15.939-.84a10.692,10.692,0,0,1-5.839-5.243,19.128,19.128,0,0,1-3.7,6.258Zm4.229-21.743V89.3h-3.6V82.38h12.48V79.234l3.845.141c.384,0,.944.035.944.28,0,.174-.7.734-.7.873V82.38h12.27v7.027h-3.6V85.492Z" transform="translate(217.204 95.471)"/>
      <path id="パス_88389" data-name="パス 88389" d="M206.415,79.37l3.111.245c.313.035.873.071.873.315,0,.139-.174.28-.384.419s-.315.245-.315.419V82.2h2.657v3.005H209.7v11.64h2.273v3.005H196.1V96.848h3.041V85.208h-2.761V82.2h2.761V79.266l2.763.209c.593.033,1.224.068,1.224.313,0,.141-.212.315-.421.421-.139.1-.28.174-.28.348V82.2h3.986Zm-3.706,22.686c.875.419.875.489.875.631,0,.28-.28.348-.56.384a2.435,2.435,0,0,0-.384.593,27.473,27.473,0,0,1-3.777,5.384l-2.622-1.887a19.441,19.441,0,0,0,3.987-6.258Zm3.706-16.848h-4.09V87.62h4.09Zm0,4.509h-4.09V92.13h4.09Zm-4.09,7.131h4.09V94.262h-4.09Zm4.789,3.845a28.755,28.755,0,0,0,2.866,4.3l-2.763,1.819a17.81,17.81,0,0,1-2.655-4.511Zm9.962-3.111c-.8,5.559-2.2,7.9-5.559,11.466l-3.18-1.782c5.523-4.791,5.523-8.425,5.523-18.422a82.426,82.426,0,0,0-.315-8.39h11.675v24.678c0,2.8-.7,3.742-5.662,3.848l-1.224-3.6c.315,0,1.852.106,2.167.106,1.153,0,1.327-.664,1.327-1.748V97.582Zm4.754-2.9V90.52h-4.544v2.273c0,.419-.033,1.363-.068,1.887Zm0-11.047h-4.544v3.984h4.544Z" transform="translate(236.289 95.509)"/>
      <path id="パス_88390" data-name="パス 88390" d="M221.233,80.192c.628.209.944.348.944.558s-.875.664-.979.8c-.209.489-1.085,2.727-1.259,3.144-.174.386-.384.875-.7,1.468.664.245.979.386.979.666,0,.174-.245.348-.56.56a.441.441,0,0,0-.245.384v21.637h-3.6V92.182a16.926,16.926,0,0,1-1.4,1.885l-3.076-2.1a31.167,31.167,0,0,0,6.712-12.828Zm16.114-.875c.49.035.944.035.944.351,0,.174-.7.767-.7.944v2.622H242.1v3.215h-4.509V90.4h5.314v3.215H221.337V90.4h5.1V86.447h-4.125V83.232h4.125V79.107c.56.035,3.7.174,3.949.315a.231.231,0,0,1,.141.174.482.482,0,0,1-.174.315c-.386.28-.525.419-.525.7v2.622H234.1V79.107Zm-.7,30.1v-1.083h-9.366v1.083h-3.288V95.606h16.045v13.807Zm0-11.115h-9.369v2.412h9.369Zm-9.366,7.517h9.369v-2.586h-9.369ZM234.1,86.447h-4.264V90.4H234.1Z" transform="translate(254.649 95.318)"/>
      <path id="パス_88391" data-name="パス 88391" d="M227.825,87.789h4.123V79.226l3.321.28c.6.033.77.207.77.454,0,.174-.068.207-.348.419a.592.592,0,0,0-.245.454v6.957h3.53v3.495h-3.53v9.964a34.909,34.909,0,0,0,3.845-1.468v3.671c-3.742,1.327-4.231,1.466-8.46,2.725a3.775,3.775,0,0,0-1.819.908c-.487.525-.523.6-.732.6-.28,0-.421-.209-.454-.873l-.28-3.812a29.149,29.149,0,0,0,4.4-.8V91.284h-4.123ZM241.6,81.5l3.426.176c.068,0,.8.068.8.454,0,.174-.035.209-.384.523-.351.28-.386.315-.386.525v7.237l2.344-.944V79.155l3.495.245c.245,0,.944.071.944.454,0,.209-.1.245-.56.454-.348.176-.419.315-.419.525v7.234l5.384-2.165,1.5.77v11.36c0,3.146-1.153,3.775-4.822,4.229L251.246,98.7c3.005.28,3.005-.454,3.005-1.607V90.446l-3.391,1.294v10.835H247.4V93.136l-2.344.979v9.4c0,1.749.386,2.132,2.344,2.132h5.978c1.083,0,1.607-.28,1.607-3.005l3.53,1.222c-.1,4.37-1.189,5.281-4.229,5.281h-9.613c-2.238,0-3.076-.421-3.076-3.462V95.48L238.1,96.947l-1.191-3.25,4.685-1.887Z" transform="translate(274.174 95.376)"/>
      <path id="パス_88392" data-name="パス 88392" d="M256.845,79.059l3.252.212c.487.033.977.068.977.419,0,.174-.419.384-.664.525a.3.3,0,0,0-.139.313v.6h13.492v2.692H260.271v1.433h8.844v6.535h-8.844v1.433h11.186v4.055h2.167v2.622h-2.167v5.455h-3.495v-1.294h-7.691v2.551c0,2.518-1.153,3.111-5.488,3.111l-1.5-3.636c.56.035,1.188.106,2.2.106.419,0,1.363,0,1.363-.873v-1.259H245.868v-2.692h10.976V99.893H244.016V97.272h12.828V95.805H245.868V93.217h10.976V91.784h-8.879V85.248h8.879V83.815H243.7V81.123h13.144Zm0,8.705h-5.382v1.607h5.382Zm8.844,0h-5.417v1.607h5.417Zm2.273,8.041h-7.691v1.468h7.691Zm0,4.088h-7.691v1.468h7.691Z" transform="translate(293.641 95.26)"/>
      <path id="パス_88393" data-name="パス 88393" d="M280.5,83.008a20.891,20.891,0,0,0,1.958-3.914l2.972,1.363c.384.174.664.28.664.56,0,.174-.071.209-.664.384-.315.106-.525.386-.908.911-.734,1.012-.84,1.188-1.155,1.572h5.942V86.82h-7.06c-.734,1.363-.838,1.5-1.327,2.342h6.71v2.725h-11.4V93.5h9.23v2.622h-9.23v1.713H289.2v2.935H278.961a47.6,47.6,0,0,0,9.891,5.839l-2.551,2.831a43.96,43.96,0,0,1-10.068-6.921v6.851h-3.495V102.9a56.957,56.957,0,0,1-10.174,6.643l-2.831-2.727a39.749,39.749,0,0,0,10.522-6.048H259.7V97.832h13.04V96.118h-9.3V93.5h9.3v-1.61H261.064V89.162h7.131c-.908-1.539-1.014-1.713-1.4-2.342h-7.1V83.883h5.874c-.84-1.085-1.958-2.553-2.589-3.217l2.624-1.607a29.444,29.444,0,0,1,3.041,4.02l-1.713.8h2.972V79.163l3.179.247c.245.033,1.014.1,1.014.454,0,.139-.139.245-.174.28-.56.348-.631.419-.631.628v3.111h2.589V79.268l3.215.174c.28,0,.77.071.77.386a.481.481,0,0,1-.174.315c-.631.348-.7.419-.7.628v3.111h3.111Zm-3.25,6.154a15.9,15.9,0,0,0,1.259-2.342h-8.041c.84,1.327,1.259,1.923,1.5,2.342Z" transform="translate(312.918 95.26)"/>
      <path id="パス_88394" data-name="パス 88394" d="M242.521,162.107H221.38l-13.058-25.39H207.6v25.39h-19.69V97.752h21.866L222,123.971h.622V97.752h19.9Z" transform="translate(226.414 117.784)" fill="#beb143"/>
      <path id="パス_88395" data-name="パス 88395" d="M215.26,129.717q0-13.626,6.064-19.741t18.965-6.114q12.9,0,18.808,6.011t5.909,19.741q0,13.736-5.753,19.95t-18.861,6.218q-13.111,0-19.119-6.218t-6.013-19.846m27.723-8.809a2.987,2.987,0,0,0-5.492,0q-.572,1.816-.571,7.719v2.489q0,6.631.571,8.548a2.926,2.926,0,0,0,5.492,0,35.081,35.081,0,0,0,.571-8.03v-2.9q0-6.01-.571-7.825" transform="translate(259.372 125.146)" fill="#beb143"/>
      <path id="パス_88396" data-name="パス 88396" d="M250.937,136.47q-5.6,0-7.876-2.022t-2.28-6.269q0-4.247,2.227-6.271t7.929-2.02q5.7,0,7.876,2.02t2.176,6.271q0,4.25-2.229,6.269t-7.823,2.022" transform="translate(290.123 144.457)" fill="#beb143"/>
      <path id="パス_88397" data-name="パス 88397" d="M281.1,162.107H259.644V115.266H252.39v-11.71l11.5-5.8h17.2Z" transform="translate(304.11 117.784)" fill="#beb143"/>
      <path id="パス_88398" data-name="パス 88398" d="M70.474,206.231c.838.454,1.191.628,1.191.979,0,.174-.139.28-.527.384-.734.209-.767.245-.908.56a36.924,36.924,0,0,1-4.439,8.879,62.4,62.4,0,0,1,4.194,5.347l-3.076,3.007a26.587,26.587,0,0,0-3.6-5.1A37.7,37.7,0,0,1,51.772,229.3l-3.321-3.356a28.142,28.142,0,0,0,11.99-8.668,42.859,42.859,0,0,0-5.451-4.476l2.481-3.111a38.7,38.7,0,0,1,5.42,4.3,33.941,33.941,0,0,0,4.194-9.51Z" transform="translate(58.38 246.386)"/>
      <path id="パス_88399" data-name="パス 88399" d="M67.886,218.033a21.02,21.02,0,0,0-4.4-6.921l3.146-2.026a19.939,19.939,0,0,1,4.754,7.166Zm-1.292,11.955c10.837-3.356,15.24-9.4,17.9-21.531l3.6,1.433c.84.313,1.118.419,1.118.7,0,.247-.139.421-.558.56-.454.176-.6.245-.908,1.33-2.763,9.089-5.629,15.344-18.038,20.8Zm18.912-22.616a17.143,17.143,0,0,0-2.727-3.459l1.923-1.188a13.745,13.745,0,0,1,2.972,3.389Zm5.453,0a25.291,25.291,0,0,0-2.972-3.775l1.923-1.224a13.054,13.054,0,0,1,3.146,3.881Z" transform="translate(76.492 243.845)"/>
      <path id="パス_88400" data-name="パス 88400" d="M89.8,223.926a38.6,38.6,0,0,1-8.948,4.2l-2.1-3.532a30.3,30.3,0,0,0,16.5-10.242H81.968v-3.636H97.733c.525,0,.908-.209,1.678-.944l2.763,3.391a5.346,5.346,0,0,0-2.727,1.958,67.96,67.96,0,0,1-5.7,5.839v13.353H89.8ZM94.483,209.8a35.924,35.924,0,0,0-7.8-3.74l1.574-3.356a40.381,40.381,0,0,1,8.11,3.74Zm8.074,18.876a28.7,28.7,0,0,0-7.481-5.942l2.447-2.622a22.115,22.115,0,0,1,7.517,5.417Z" transform="translate(94.889 244.248)"/>
      <path id="パス_88401" data-name="パス 88401" d="M97.92,215.181a21.066,21.066,0,0,0-2.728-5.314l2.8-1.153a19.017,19.017,0,0,1,2.8,5.417Zm1.433,10c8.284-3.356,11.36-8.635,13.179-17.829l2.657.8c.8.245,1.047.351,1.047.56s-.209.348-.419.49a.747.747,0,0,0-.419.593c-1.4,5.21-3.391,13.073-13.388,17.829Zm5-11.5a18.1,18.1,0,0,0-2.412-5.523l2.657-1.118a21.068,21.068,0,0,1,2.622,5.7Z" transform="translate(114.7 249.463)"/>
      <path id="パス_88402" data-name="パス 88402" d="M117.8,213a34.693,34.693,0,0,1,11.4,7.691l-2.551,3.53a25.408,25.408,0,0,0-10.1-7.375V232.02H112.7V203.737l3.146.525c1.05.176,1.433.315,1.433.6a.69.69,0,0,1-.313.454c-.421.348-.421.386-.421.6v9.367Z" transform="translate(135.791 245.488)"/>
      <path id="パス_88403" data-name="パス 88403" d="M131.076,215.276h-3.6V211.36c-.56.525-.875.8-1.643,1.433l-2.447-2.271c3.949-3.391,5.592-5.907,6.187-7.133l3.111,1.33c.28.139.454.209.454.384s-.139.28-.419.421a24.786,24.786,0,0,0-1.819,2.2c.49.28.666.421.666.631s-.49,1.012-.49,1.188Zm13.6,12.864a21.554,21.554,0,0,0,7.62,2.377l-2.622,3.005c-.873-.139-3.984-.7-9.3-3.949l1.852-1.433h-6.467l1.153,1.259a1.04,1.04,0,0,1,.351.664c0,.174-.141.28-.351.28-.1,0-.384-.071-.558-.071a1.513,1.513,0,0,0-.631.209,28.2,28.2,0,0,1-8,2.937l-2.622-2.9a25.7,25.7,0,0,0,8-2.377h-4.544V216.078h20.171v12.061Zm.49-9.647H132.125v1.259h13.038Zm0,2.935H132.125v1.224h13.038Zm0,2.9H132.125v1.363h13.038Zm7.83-15.52v2.412h-8.738v1.433h7.55v2.412H134.187v-2.412h6.361v-1.433h-8.039v-2.412h8.039v-1.365c-2.1.141-4.02.247-6.116.247L133.521,205c7.971.139,12.27-.664,15.767-1.572l1.643,2.516c.139.245.245.348.245.454,0,.139-.106.209-.245.209-.245,0-.7-.1-.875-.1-.278,0-5.312.558-5.8.628v1.678Z" transform="translate(148.67 245.068)"/>
      <path id="パス_88404" data-name="パス 88404" d="M148.5,204.794c.315.209.7.489.7.7,0,.243-.141.278-.6.348-.313.035-.454.245-.908.84-.348.454-.628.767-.873,1.047.28.174.489.348.489.628,0,.315-.245.525-.56.77a.589.589,0,0,0-.245.525v4.229h-3.391v-2.622c-.979.8-1.118.908-1.923,1.539l-2.445-2.447a24.329,24.329,0,0,0,7.06-7.375Zm11.71,1.749a9.83,9.83,0,0,0-2.029-1.047l1.958-2.167a25.553,25.553,0,0,1,3.321,1.92l-.873.944,5.279-.664.454,2.972-8.634,1.118c1.887,1.61,3.775,2.483,4.509,2.483s1.33-.351,1.5-2.657l2.831,1.991c-.489,2.447-1.469,4.057-3.146,4.057a3.986,3.986,0,0,1-1.153-.141v12.48h-4.683a29.7,29.7,0,0,0,8,3.182L165,234.194a53.822,53.822,0,0,1-9.788-4.721l1.746-1.643h-6.535l1.607,1.607c.141.141.245.212.245.351s-.1.245-.315.245a2.423,2.423,0,0,0-1.4.278,36.575,36.575,0,0,1-7.691,3.6l-2.445-3.008a23.585,23.585,0,0,0,7.9-3.076h-5.069V214.617h18.457a14.791,14.791,0,0,1-6.013-4.474l-7.8,1.014-.384-2.972,6.293-.8a19.187,19.187,0,0,1-1.365-3.777l4.09.071c.489,0,.84.035.84.28,0,.209-.8.734-.8.908a8.256,8.256,0,0,0,.873,2.026Zm.454,10.592H146.823v1.537h13.843Zm0,3.25H146.823v1.539h13.843Zm0,3.285H146.823v1.643h13.843Z" transform="translate(167.182 244.572)"/>
      <path id="パス_88405" data-name="パス 88405" d="M115.656,286.23H94.515l-13.058-25.39h-.725v25.39H61.042V221.875H82.909l12.228,26.219h.622V221.875h19.9Z" transform="translate(73.551 267.343)" fill="#beb143"/>
      <path id="パス_88406" data-name="パス 88406" d="M88.4,253.841q0-13.626,6.064-19.741t18.962-6.114q12.9,0,18.808,6.011t5.909,19.741q0,13.736-5.753,19.95t-18.861,6.218q-13.11,0-19.119-6.218T88.4,253.841m27.72-8.809a2.985,2.985,0,0,0-5.49,0q-.575,1.816-.573,7.719v2.489q0,6.631.573,8.548a2.924,2.924,0,0,0,5.49,0,35.041,35.041,0,0,0,.573-8.03v-2.9q0-6.01-.573-7.825" transform="translate(106.51 274.706)" fill="#beb143"/>
      <path id="パス_88407" data-name="パス 88407" d="M124.073,260.594q-5.6,0-7.876-2.022t-2.28-6.269q0-4.247,2.227-6.271t7.929-2.02q5.7,0,7.876,2.02t2.176,6.271q0,4.25-2.229,6.269t-7.823,2.022" transform="translate(137.261 294.017)" fill="#beb143"/>
      <path id="パス_88408" data-name="パス 88408" d="M154.231,286.23H132.779V239.389h-7.254v-11.71l11.5-5.8h17.2Z" transform="translate(151.248 267.343)" fill="#beb143"/>
      <path id="パス_88409" data-name="パス 88409" d="M319.688,210.625c-1.958,2.761-2.167,3.076-2.622,3.636.838.071.944.071.944.384s-.212.49-.56.734a.923.923,0,0,0-.454.8v19.959h-3.881V218.77a37.978,37.978,0,0,1-11.256,8.039l-2.447-3.215c9.893-4.474,13.459-9.893,15.417-12.969h-14.4V207.13H329.86v3.495Zm.139,4.09a48.748,48.748,0,0,1,10.312,9.333l-2.972,2.937a50.053,50.053,0,0,0-9.508-9.333Z" transform="translate(360.769 249.576)"/>
      <path id="パス_88410" data-name="パス 88410" d="M325.563,212h6.712v2.518h-6.712v1.431h5.8v9.3h-5.8v1.537h6.083v2.447h-6.083v1.782c.979-.1,5.243-.523,6.117-.593v1.746c1.224-2.3,3.426-6.394,3.881-14.541h-2.692v-3.25h2.866a64.745,64.745,0,0,0-.209-7.55l3.53.174c.734.033,1.224.071,1.224.419,0,.174-.139.315-.732.734-.315.209-.351.454-.351.908,0,.84.035,4.58.035,5.314H345c-.035,11.011-.8,15.871-1.188,17.723-.911,4.509-3.462,4.58-5.768,4.613l-1.61-3.495c2.763,0,3.078,0,3.426-.454,1.469-2.026,1.607-12.094,1.643-15.137h-2.481c-.77,9.23-2.273,14.264-6.853,19.646l-3.25-2.236a10.179,10.179,0,0,0,2.167-2.064c-2.167.315-13.179,1.643-13.739,1.819-.174.071-.664.838-.838.838-.28,0-.351-.419-.386-.767l-.419-3.007c3.706-.28,4.615-.348,6.782-.56v-2.062h-5.909v-2.447h5.909v-1.537h-5.629v-9.3h5.629v-1.431H315.6V212h6.886v-1.33c-1.643.106-2.657.141-4.474.141l-1.574-2.692c.734.035,1.5.071,2.622.071,6.083,0,8.844-1.05,10.173-1.539L330.806,209a2.01,2.01,0,0,1,.419.838c0,.174-.139.315-.384.315a10.644,10.644,0,0,1-1.118-.386c-.212.035-.7.141-.979.212a30.543,30.543,0,0,1-3.182.454Zm-3.076,5.978h-2.516v1.678h2.516Zm-2.518,5.349h2.516v-1.748h-2.516Zm8.39-5.349h-2.8v1.678h2.8Zm-2.8,5.349h2.8v-1.748h-2.8Z" transform="translate(380.275 249.002)"/>
      <path id="パス_88411" data-name="パス 88411" d="M337.6,218.756v2.657c0,4.615-.035,11.186-3.111,15.906l-3.6-1.118c1.468-2.309,3.252-5.281,3.252-12.969,0-1.226-.035-1.33-.315-7.342h7.446a31.126,31.126,0,0,0-1.993-3.53H333.4v-2.831h11.5v-3.111l3.636.209c.384.035,1.047.035,1.047.384,0,.176-.628.734-.7.908v1.61h11.607v2.831h-5.8a16.287,16.287,0,0,1-1.854,3.53h8.145v2.866Zm9.649,3.426V219.49l2.972.315c.873.1,1.083.174,1.083.454,0,.174-.141.28-.28.384-.245.174-.348.315-.348.525v1.014H359.3v2.866h-8.632V227.6h6.361v2.831h-6.361v3.146h10.487v2.866H337.143v-2.866h10.1v-3.146h-5.978V227.6h5.978v-2.551h-4.615a21.443,21.443,0,0,1-1.749,2.831l-2.9-1.5a18.456,18.456,0,0,0,3.565-6.886l3.076,1.12c.348.139.419.245.419.384s-.245.245-.489.384a5.891,5.891,0,0,0-.419.8Zm-4.09-9.823c.6,1.05,1.363,2.481,1.887,3.53H349.2a12.235,12.235,0,0,0,1.713-3.53Z" transform="translate(398.691 248.717)"/>
      <path id="パス_88412" data-name="パス 88412" d="M395.081,251.254H378.059l-1.623-7.781h-9l-1.7,7.781H349.446L359.9,200.918h24.722Zm-19.86-18.237-3.08-16.859h-.324l-3.162,16.859Z" transform="translate(421.056 242.091)" fill="#beb143"/>
      <rect id="長方形_10024" data-name="長方形 10024" width="17.104" height="50.336" transform="translate(819.863 443.009)" fill="#beb143"/>
      <path id="パス_88413" data-name="パス 88413" d="M291.233,244.125a80.125,80.125,0,0,1,6.853,5.612,68.365,68.365,0,0,0,9.633-10.48H277.774v-7.4h35.06a11.931,11.931,0,0,0,3.477-.646l4.816,5.861a15.158,15.158,0,0,0-2.432,2.432A171.485,171.485,0,0,1,303.448,255.6a37.455,37.455,0,0,1,4.469,5.861c-1.786,1.59-4.668,4.172-6.454,5.81-1.788-3.327-4.917-8.989-15.644-17.43Z" transform="translate(334.696 278.594)" fill="#beb143"/>
      <rect id="長方形_10025" data-name="長方形 10025" width="43.155" height="8.443" transform="translate(659.583 522.121)" fill="#beb143"/>
      <path id="パス_88414" data-name="パス 88414" d="M335.148,247.184A82.657,82.657,0,0,1,327,257.809a32.894,32.894,0,0,0-6.9-4.915,59.317,59.317,0,0,0,15.146-24.88l8.094,3.179c.348.148.8.346.8.743,0,.5-.944.7-1.442.8-1.091,2.483-1.29,2.928-3.177,6.7H364.2v7.748H352.133c-.6,15.1-7.847,22.594-15.545,27.511a37.481,37.481,0,0,0-6.456-5.413c6.008-3.427,13.062-8.244,13.607-22.1Z" transform="translate(385.699 274.74)" fill="#beb143"/>
      <path id="パス_88415" data-name="パス 88415" d="M342.437,249.284v-7.1h42.509v7.1H368.706c-.2,5.411-1.241,10.923-5.612,15.789a24.124,24.124,0,0,1-10.826,7.054,24.241,24.241,0,0,0-5.96-6.158c11.274-3.078,14.3-9.435,14.4-16.685Zm35.654-12.762H349.537v-7.2h28.554Z" transform="translate(412.61 276.314)" fill="#beb143"/>
      <path id="パス_88416" data-name="パス 88416" d="M387.7,268.036h-7.349V250.754a60.688,60.688,0,0,1-10.032,5.016,23.592,23.592,0,0,0-4.965-5.861,53.922,53.922,0,0,0,26.618-17.977l5.81,4.619c.2.2.4.348.4.6,0,.4-.445.4-.695.4a2.469,2.469,0,0,1-.6-.049,76.47,76.47,0,0,1-9.188,8.343Z" transform="translate(440.227 279.462)" fill="#beb143"/>
      <path id="パス_88417" data-name="パス 88417" d="M391.325,229.028c8.341,4.273,10.925,6.754,12.414,8.145-1.191,1.44-1.539,1.987-4.816,6.754a51.123,51.123,0,0,0-12.515-7.947Zm-4.073,34.315c14.153-2.93,28.106-12.513,36.946-26.717a31.833,31.833,0,0,0,5.115,6.754,65.689,65.689,0,0,1-15.443,16.537,82.527,82.527,0,0,1-20.459,11.073c0,.547-.249,1.094-.7,1.094-.3,0-.5-.15-.794-.695Z" transform="translate(465.592 275.961)" fill="#beb143"/>
      <path id="パス_88418" data-name="パス 88418" d="M440.749,237.008a8.261,8.261,0,0,0,3.526-.745l4.121,3.526c-.893,1.49-3.923,8.295-5.065,10.826-7.649,17.183-18.671,22.7-23.041,24.88-.845-1.094-2.236-2.732-6.408-5.662a45.593,45.593,0,0,0,16.14-11.768c4.022-4.866,6.306-10.877,7.4-13.906H425.005a68.087,68.087,0,0,1-11.172,12.714c-2.681-2.831-3.676-3.874-6.059-5.362,12.068-10.231,15.2-18.971,16.288-21.95l7.153,3.475c.2.1.644.348.644.745,0,.5-.695.646-1.191.7-.8,1.539-.944,1.936-1.292,2.531Zm-1.59-8.987a40.6,40.6,0,0,1,4.866,4.767,44.383,44.383,0,0,0-4.072,2.78,42.807,42.807,0,0,0-4.716-4.767Zm7.9-.547a46.468,46.468,0,0,1,4.866,5.115c-.646.445-3.574,2.333-4.172,2.732a26.692,26.692,0,0,0-4.469-5.215Z" transform="translate(491.337 274.089)" fill="#beb143"/>
      <path id="パス_88419" data-name="パス 88419" d="M192.581,152.191H188.72c-2.869,0-3.689-.463-4.708-2.273a6.148,6.148,0,0,1-2.075,2.472l-.754-.714c1.2-.741,2.511-1.956,2.829-5.684l.979.331c.132.04.238.106.238.2,0,.132-.172.185-.331.236a19.656,19.656,0,0,1-.529,2.368,2.933,2.933,0,0,0,2.287,1.984v-5.739h-3.437v-.86h7.748v.86h-3.345v2.273h3.133v.9h-3.133v2.723c.2.015.463.029,1.072.029a35.558,35.558,0,0,0,4.3-.238Zm-.86-7.232v-1.786h-9.256v2H181.5v-2.855h5.129v-1.746l1.1.04c.132,0,.278.026.278.132,0,.172-.278.278-.423.331v1.244h5.1v2.644Z" transform="translate(218.313 169.375)"/>
      <path id="パス_88420" data-name="パス 88420" d="M192.493,140.689c.132.013.344.04.344.146s-.159.157-.238.185v1.321h1.191v.794H192.6v5.276h1.138v.818h-6.5v-.818h1.44v-5.276h-1.307v-.794h1.307v-1.76l.833.093c.066,0,.3.029.3.145,0,.055-.04.108-.238.225v1.3h2.13v-1.718ZM187.51,152.1a7.368,7.368,0,0,0,1.572-2.553l.847.344c.159.066.238.119.238.212,0,.119-.106.159-.37.225a9.872,9.872,0,0,1-1.495,2.286Zm4.192-8.965h-2.128v1.2H191.7Zm0,1.956h-2.128v1.244H191.7Zm0,2.011h-2.128v1.31H191.7Zm.04,2.485a8.986,8.986,0,0,0,1.413,1.72l-.661.622a9.711,9.711,0,0,1-1.44-1.826Zm3.517-1.241a9.728,9.728,0,0,1-1.336,4.231l-.873-.45c1.164-1.879,1.389-3.266,1.389-6.573,0-1.506-.026-3.027-.079-4.533h4.165v10.127c0,.516,0,1.374-1.283,1.374-.093,0-.384-.011-.847-.064l-.212-1.032a6.524,6.524,0,0,0,.966.172c.4,0,.45-.278.45-.582v-2.67Zm2.339-.794v-2.5h-2.234c0,1.508,0,1.68-.04,2.5Zm0-5.7h-2.234v2.408H197.6Z" transform="translate(225.6 169.389)"/>
      <path id="パス_88421" data-name="パス 88421" d="M196.1,152.583h-.966v-7.735a22.4,22.4,0,0,1-1.413,1.823l-.688-.688a15.709,15.709,0,0,0,3.213-5.42l.953.355a.215.215,0,0,1,.146.185c0,.093-.172.161-.331.2a16.759,16.759,0,0,1-.9,1.931c.2.106.225.172.225.238s-.026.146-.238.384Zm5.991-11.94,1.069.119c.172.024.172.117.172.146,0,.1-.172.209-.278.278v1.36h1.826v.82h-1.826v1.8h2.17v.82h-8.4v-.82h2.366v-1.8h-1.929v-.82h1.929v-1.9l.913.09c.093.015.331.042.331.174,0,.064-.026.093-.278.249v1.389h1.932Zm-3.821,6.346h5.6v5.541h-.926v-.688h-3.755v.648h-.924Zm4.679.794h-3.755V149h3.755Zm0,1.969h-3.755v1.3h3.755Zm-.858-6.385h-1.929v1.8h1.929Z" transform="translate(232.584 169.369)"/>
      <path id="パス_88422" data-name="パス 88422" d="M199.916,151.385c-.106.212-.172.318-.278.318s-.119-.051-.185-.251l-.318-.9a15.055,15.055,0,0,0,1.865-.58v-4.853h-1.72v-.9H201v-3.345l.979.146c.106.013.291.053.291.159s-.119.146-.3.225v2.816h1.453v.9h-1.453v4.456c.556-.251,1.005-.489,1.585-.807l.066,1.005a35.663,35.663,0,0,1-3.7,1.612m9.4.728H206.1c-.992,0-1.416-.119-1.416-1.177v-4.123l-1.482.752-.448-.792,1.956-1.005V141.6l.847.132c.053.013.291.04.291.172,0,.079-.066.119-.238.212v3.133l1.31-.648V140.57l.964.119c.119.013.278.026.278.146s-.066.146-.317.265v2.988l1.826-.966.767.384a23.186,23.186,0,0,1-.4,4.879c-.265.807-.873.807-1.68.794l-.3-.926c.873,0,1.072,0,1.23-.582a15.138,15.138,0,0,0,.185-3.411l-1.627.86v4.509h-.924V145.6l-1.31.7v4.152c0,.673.212.765.86.765h2.353c1.019,0,1.2-.17,1.495-1.784l.858.609c-.329,1.678-.659,2.075-1.863,2.075" transform="translate(239.943 169.376)"/>
      <path id="パス_88423" data-name="パス 88423" d="M209.137,147.424a3.283,3.283,0,0,1-.82-1.4v6.531h-.939V146.09a10.207,10.207,0,0,1-1.572,3.371l-.873-.582a12.491,12.491,0,0,0,2.141-4.443h-1.585v-.86h1.89v-2.763l1.058.119c.132.013.225.04.225.146,0,.159-.2.225-.344.278v2.22h1.164v.86h-1.032a6.717,6.717,0,0,0,1.31,2.3Zm2.207,4.721v.384h-.964V147.94a5.344,5.344,0,0,1-1.244,1.072l-.648-.754a9.138,9.138,0,0,0,3.067-3.371h-1.731v-.794h2.1a8.592,8.592,0,0,0,.556-1.413h-.833a6.48,6.48,0,0,1-.937,1.387l-.847-.49a9.378,9.378,0,0,0,1.863-3.067l.886.344c.159.066.172.106.172.146,0,.159-.278.212-.37.225,0,.013-.212.437-.317.661h4.615v.794h-3.98l.675.318c.066.04.159.079.159.157,0,.121-.106.146-.331.214-.053.117-.291.62-.344.725h4.39v.794h-3.12l.858.423c.066.026.172.093.172.159,0,.159-.265.2-.381.212a7.609,7.609,0,0,1-.4.688h2.538v.778h-2.578v.926h2.445v.714h-2.445v.926h2.511v.714h-2.511v.926h2.961v.792Zm2.1-5h-2.1v.926h2.1Zm0,1.64h-2.1v.926h2.1Zm0,1.64h-2.1v.926h2.1Zm-.9-5.541a6.952,6.952,0,0,1-.86,1.482h1.654a4.24,4.24,0,0,0,.754-1.482Z" transform="translate(246.927 169.303)"/>
      <path id="パス_88424" data-name="パス 88424" d="M211.1,145.862a14.177,14.177,0,0,0,2.051-2.551,15.765,15.765,0,0,0,1.493-2.789l.9.448c.066.04.2.119.2.212,0,.132-.2.159-.344.185-.225.463-1.016,1.823-1.268,2.194.159.068.344.161.344.293,0,.09-.079.183-.238.331v8.447h-.966v-7.867a13.732,13.732,0,0,1-1.376,1.68Zm9.918,5.488c0,1.1-.767,1.175-1.244,1.175h-1.056l-.278-.966a11.443,11.443,0,0,0,1.175.068c.3,0,.41-.068.41-.45V144.9H215.2v-.926h4.827v-3.239l.992.132c.132.013.212.079.212.132,0,.093-.146.212-.212.251v2.723h2v.926h-2Zm-4.377-5.038a30.064,30.064,0,0,1,1.693,2.644l-.9.556a18.565,18.565,0,0,0-1.614-2.644Z" transform="translate(254.365 169.318)"/>
      <path id="パス_88425" data-name="パス 88425" d="M222,140.8a17.514,17.514,0,0,0,.582,1.865,13.853,13.853,0,0,0,2.366-1.244l.251.926a11.172,11.172,0,0,1-2.273,1.069c.2.49.41.966.648,1.455a13.678,13.678,0,0,0,2.7-1.455l.265.9a12.825,12.825,0,0,1-2.538,1.27,11.009,11.009,0,0,0,1.149,1.757c.119.159.675.794.767.926l-.754.939a3.6,3.6,0,0,0-1.032-.741,4.8,4.8,0,0,0-2.048-.463c-.807,0-2.326.3-2.326,1.508,0,1.336,1.665,1.482,2.419,1.482a6.345,6.345,0,0,0,2.816-.688l-.106,1.1a5.682,5.682,0,0,1-2.6.45,4.842,4.842,0,0,1-2.776-.725,2.056,2.056,0,0,1-.714-1.561c0-1.614,1.48-2.355,3.094-2.355a7.669,7.669,0,0,1,2.419.45,15.48,15.48,0,0,1-1.175-1.76,16.561,16.561,0,0,1-4.615.794l-.41-.964c.516.04.714.04.913.04a13.073,13.073,0,0,0,3.7-.6c-.106-.225-.622-1.244-.714-1.442a14.8,14.8,0,0,1-3.557.582l-.45-.966c.384.026.556.04.754.04a11.032,11.032,0,0,0,2.9-.423,19.123,19.123,0,0,1-.754-2.022Z" transform="translate(262.665 169.658)"/>
      <path id="パス_88426" data-name="パス 88426" d="M222.98,146.256a13.886,13.886,0,0,0,3.133-5.673l1.032.423c.066.026.159.093.159.172s-.119.132-.331.159c-.516,1.228-.6,1.413-.992,2.194.132.053.238.093.238.185s-.119.212-.344.357v8.449h-.926v-7.232a12.346,12.346,0,0,1-1.2,1.521ZM235,144.5H231.39v2.578h2.816v.9H231.39v3.173h3.821v.886h-8.542v-.886h3.755v-3.173H227.7v-.9h2.723V144.5h-3.451v-.926H235Zm-4.681-3.927a12.434,12.434,0,0,1,1.956,2.167l-.858.6a12.7,12.7,0,0,0-1.826-2.1Z" transform="translate(268.674 169.376)"/>
      <path id="パス_88427" data-name="パス 88427" d="M235.176,148.438v2.379c0,.569.132.688.754.688h2.485c.728,0,.953-.344,1.244-1.89l.886.514c-.463,2.156-.926,2.3-2.3,2.3h-2.419a1.835,1.835,0,0,1-1.191-.251,1.244,1.244,0,0,1-.423-1.138V148.5l-4.93.344-.066-.886,5-.344v-1.863c-.977.132-1.519.2-2.339.238l-.556-.9a15.283,15.283,0,0,0,6.308-1.336l.7.6a.244.244,0,0,1,.119.185c0,.132-.225.132-.516.132a14.93,14.93,0,0,1-2.75.871v2l5.607-.41.079.9Zm4.483-3.914v-1.654h-9.2v2h-.964v-2.9h5.023v-1.413l1.058.093c.079.013.251.026.251.146,0,.066-.026.079-.278.251v.924h5.078v2.553Z" transform="translate(276.185 169.362)"/>
      <path id="パス_88428" data-name="パス 88428" d="M237.32,149.893a9.525,9.525,0,0,1-1.363,2.051l-.9-.423a9.361,9.361,0,0,0,1.627-2.3l.807.331c.119.053.172.093.172.159,0,.119-.093.132-.344.183m-1.574-9.042h4.377v8.092h-4.377Zm3.477.833h-2.578v1.588h2.578Zm0,2.406h-2.578v1.588h2.578Zm0,2.406h-2.578v1.627h2.578Zm-.238,4.723a5.248,5.248,0,0,1-.966-1.349l.728-.41a5.631,5.631,0,0,0,.966,1.244Zm7.722.964a6.82,6.82,0,0,1-2.141-1.969,8.676,8.676,0,0,1-2.514,1.969l-.792-.754a6.752,6.752,0,0,0,2.789-2.075,12.735,12.735,0,0,1-1.349-4.192h-.542a12.7,12.7,0,0,1-1.969,7.021l-.926-.516c1.23-1.519,1.984-3,1.984-7.51,0-.609,0-1.085-.159-3.305h5.989v.86h-4.959c.027.937.04,1.294.04,2.551h4.152l.3.357a13.087,13.087,0,0,1-1.466,4.813,7.06,7.06,0,0,0,2.273,2.062Zm-3.133-7.021a10.73,10.73,0,0,0,1.032,3.371,13.279,13.279,0,0,0,.99-3.371Z" transform="translate(283.227 169.715)"/>
      <path id="パス_88429" data-name="パス 88429" d="M245.717,148.424c-.291,2.355-.844,3.477-3.7,3.953l-.688-1.005c2.209-.066,3.44-.529,3.4-3.609l.9.119c.119.013.344.053.344.185,0,.093-.159.265-.251.357m5.726.026v-1.455h-9.124v1.416h-.964v-2.3h11.053v2.342Zm-4.02-5.618v1.347h4.165v.9h-9.336v-.9h4.2v-1.347H241.42v-.886h5.038v-1.31l.913.026c.079,0,.357.013.357.159,0,.066-.04.132-.3.317v.807h4.985v.886Zm3.715,9.294h-2.326c-.926,0-1.257-.172-1.257-1.109v-3.254l.913.04c.119,0,.331.04.331.185,0,.119-.159.212-.238.265v2.419c0,.37.026.531.556.531h1.546c.489,0,.688,0,.82-1.164l.913.476c-.251,1.612-.7,1.612-1.257,1.612" transform="translate(290.781 169.456)"/>
      <path id="パス_88430" data-name="パス 88430" d="M258.844,146.487a9.5,9.5,0,0,1-1.707-.913v.82h-3.345v1.865h3.239v.884h-3.239v2.249h4.932v.884H247.947v-.884H252.8v-2.249h-3.345v-.884H252.8v-1.826h-3.411v-.6a12.747,12.747,0,0,1-1.588.939l-.792-.794a12.087,12.087,0,0,0,5.922-5.475l1.1.5c.04.013.225.093.225.212,0,.146-.172.225-.278.278a12.942,12.942,0,0,0,5.6,4.139Zm-5.594-4.469a16.084,16.084,0,0,1-3.411,3.477H257a15.172,15.172,0,0,1-3.755-3.477" transform="translate(297.628 169.303)"/>
      <path id="パス_88431" data-name="パス 88431" d="M263.1,151.944v-.45H254.43v.45h-.964V140.851h10.6v11.093Zm0-10.193H254.43v8.82H263.1Zm-7.986,7.523v-.86h3.241v-2h-2.315v-.831h2.315V143.8h-2.791v-.833h6.507v.833h-2.791v1.786h2.209v.831h-2.209v2h3.1v.86ZM260.7,148.2a4.524,4.524,0,0,0-.833-1.138l.661-.54a4.951,4.951,0,0,1,.873,1.125Z" transform="translate(305.407 169.715)"/>
      <path id="パス_88432" data-name="パス 88432" d="M267.5,150.857l-5.435-7.88v7.88h-1.188v-9.651h1.188L267.5,149.1v-7.894h1.2v9.651Z" transform="translate(314.336 170.142)"/>
      <path id="パス_88433" data-name="パス 88433" d="M268.428,149.836c-1.693,0-3.358-1.162-3.358-3.781s1.651-3.781,3.358-3.781,3.358,1.164,3.358,3.781-1.665,3.781-3.358,3.781m0-6.716c-1.336,0-2.194,1.323-2.194,2.935,0,1.627.871,2.922,2.194,2.922s2.194-1.294,2.194-2.922c0-1.612-.858-2.935-2.194-2.935" transform="translate(319.389 171.428)"/>
      <rect id="長方形_10026" data-name="長方形 10026" width="1.416" height="1.416" transform="translate(592.503 319.584)"/>
      <path id="パス_88434" data-name="パス 88434" d="M272.607,150.857V143.8h-2.035v-.86a2.114,2.114,0,0,0,2.339-1.731h.913v9.651Z" transform="translate(326.019 170.142)"/>
      <path id="パス_88435" data-name="パス 88435" d="M57.766,263.751v.792H55.757a6.653,6.653,0,0,1,.622.926l-.82.45a6.035,6.035,0,0,0-.9-1.376H54.09c-.45.556-.714.847-1.016,1.164l-.688-.648a9.328,9.328,0,0,0,1.969-2.763l.873.423c.146.066.225.119.225.212,0,.132-.265.172-.4.185-.159.264-.238.384-.4.635Zm2.712-.847c.079.04.185.106.185.159,0,.079-.159.119-.37.159-.093.132-.225.344-.291.423h3.887v.792H61.27a4.238,4.238,0,0,1,.622.966l-.725.476a7.169,7.169,0,0,0-.992-1.442h-.781c-.278.346-.476.556-.728.833.357.027.4.027.4.159s-.093.172-.238.278v.516h5v2.683H62.9v-1.85H53.588v1.958h-.924v-2.791h5.062v-1.032l.9.079-.688-.45a8.533,8.533,0,0,0,1.68-2.353Zm-4.813,11.04v.41h-.939v-6.584h6.69v2.551h-5.75v.754H62.13v3.213H61.2v-.344Zm4.813-5.409H55.665v1.032h4.813Zm.725,3.334H55.663v1.283H61.2Z" transform="translate(63.121 316.047)"/>
      <path id="パス_88436" data-name="パス 88436" d="M63.208,270.729c-2.011.9-3.281,1.376-4.2,1.707-.053.117-.119.278-.212.278s-.172-.161-.2-.24l-.357-.911c.4-.106,1.268-.331,2.075-.6v-3.4H58.659v-.9h1.651v-2.858H58.554v-.858h4.4v.858h-1.72v2.858h1.72v.9h-1.72v3.08c.979-.344,1.495-.582,2-.807Zm-.45,2.9v-.858h3.477v-1.892H63.894v-.86h2.342V268.5H63.682v-5.911h6.057V268.5H67.162v1.519h2.511v.86H67.162v1.892h3.305v.858Zm3.477-10.167H64.608v1.625h1.627Zm0,2.445H64.608v1.733h1.627Zm2.578-2.445H67.159v1.625h1.654Zm0,2.445H67.159v1.733h1.654Z" transform="translate(70.17 316.394)"/>
      <path id="パス_88437" data-name="パス 88437" d="M67.879,269.713V274.3h-.966v-4.139c-.661.3-.9.395-1.651.7-.079.117-.254.395-.344.395s-.132-.172-.159-.289l-.225-1.032a21.76,21.76,0,0,0,2.379-.82v-2.871H65.776c-.238.741-.344,1.019-.648,1.8l-.9-.344a16.169,16.169,0,0,0,1.2-4.178l.979.318c.119.04.2.119.2.185,0,.106-.185.146-.3.185-.119.542-.159.7-.265,1.138h.873v-2.882l.992.079c.119.013.251.024.251.117,0,.068-.026.093-.278.267v2.419h1.2v.9h-1.2v2.434c.489-.225.926-.463,1.374-.714V269c-.527.291-.9.476-1.374.714m7.523,3.279c-.384,1.138-1.072,1.138-2.485,1.138l-.318-.992c.238.013.5.026.752.026,1.058,0,1.244-.344,1.429-1.746a43.02,43.02,0,0,0,.238-5.645h-.556a13.106,13.106,0,0,1-3.755,8.357l-.794-.648a11.268,11.268,0,0,0,3.649-7.708h-.884a12.111,12.111,0,0,1-3.175,6.266l-.725-.659a10.029,10.029,0,0,0,1.956-2.659,11.6,11.6,0,0,0,1.005-2.948h-.966a12.183,12.183,0,0,1-1.1,1.784l-.924-.408a12.536,12.536,0,0,0,2.406-4.787l.939.291c.093.024.238.064.238.172,0,.146-.278.185-.357.185-.331.937-.489,1.307-.754,1.9h4.721c.013,2.088.026,6.374-.542,8.079" transform="translate(77.392 316.126)"/>
      <path id="パス_88438" data-name="パス 88438" d="M74.289,263.068a16.223,16.223,0,0,1-1.164,2.445c.212.066.278.079.278.2s-.079.159-.236.278v8.449h-.939v-7.55a16.438,16.438,0,0,1-1.164,1.455l-.833-.6a16.03,16.03,0,0,0,3.345-5.433l.926.423c.066.026.159.079.159.172,0,.119-.119.146-.37.159m4.76,7.206v4.165h-.966v-4.165H74.223v-.939h3.861v-3.226H75.665c-.344.582-.5.847-.847,1.336l-.939-.41a12.972,12.972,0,0,0,2.1-3.887l.939.41c.053.024.172.079.172.146,0,.132-.146.172-.344.212-.331.739-.476,1.056-.582,1.255h1.916V262.38l.992.106c.013,0,.251.026.251.159,0,.106-.066.146-.278.278v2.247h2.961v.939H79.05v3.226h3.437v.939Z" transform="translate(84.622 316.068)"/>
      <path id="パス_88439" data-name="パス 88439" d="M82.788,271.9a6.253,6.253,0,0,0,2.024-1.019,4.345,4.345,0,0,0,1.559-3.292,3.866,3.866,0,0,0-2.088-3.424,4.7,4.7,0,0,0-1.812-.359,16.7,16.7,0,0,1-1.535,5.792c-.553,1.177-1.268,2.328-2.048,2.328-1.111,0-2.262-1.707-2.262-3.625a5.445,5.445,0,0,1,5.594-5.393c2.776,0,5.144,1.744,5.144,4.681,0,3.6-3.2,4.879-3.993,5.195Zm-4.35-6.216a4.345,4.345,0,0,0-.913,2.593c0,1.413.807,2.485,1.336,2.485.278,0,.6,0,1.455-2.117a15.651,15.651,0,0,0,1.136-4.811,4.314,4.314,0,0,0-3.014,1.85" transform="translate(92.327 316.784)"/>
      <path id="パス_88440" data-name="パス 88440" d="M85.609,265.256a13.574,13.574,0,0,1,2.379,1.561,16.022,16.022,0,0,0,1.508-3.861l1.058.45c.106.04.265.132.265.249s-.172.148-.41.161a18.745,18.745,0,0,1-1.6,3.689,13.115,13.115,0,0,1,1.971,2.128l-.86.86a9.172,9.172,0,0,0-1.693-2.1,13.075,13.075,0,0,1-4.311,3.929l-.858-.794a11.075,11.075,0,0,0,4.377-3.821,13.919,13.919,0,0,0-2.408-1.548Z" transform="translate(100.079 316.842)"/>
      <path id="パス_88441" data-name="パス 88441" d="M89.817,265.209a16.465,16.465,0,0,1,1.76,2.511l-.926.6A13.9,13.9,0,0,0,89,265.871Zm.344,7.854A7.779,7.779,0,0,0,94.67,270.1a12.672,12.672,0,0,0,2.379-5.263l1.1.49c.146.066.225.172.225.251,0,.132-.212.159-.384.172-1.019,2.816-1.651,4.375-3.543,6.187a9.242,9.242,0,0,1-3.345,2.048Zm6.928-8.78a8.807,8.807,0,0,0-1.1-1.244l.686-.448a14.948,14.948,0,0,1,1.1,1.241Zm1.72-.45a5.711,5.711,0,0,0-1.1-1.241l.688-.452a7.6,7.6,0,0,1,1.1,1.244Z" transform="translate(107.235 315.859)"/>
      <path id="パス_88442" data-name="パス 88442" d="M99.273,269.563a15.513,15.513,0,0,1-3.757,1.8l-.752-.963a11.4,11.4,0,0,0,4.35-1.879,8.825,8.825,0,0,0,2.458-2.366H95.926v-.886h5.792a4.535,4.535,0,0,0,.9-.344l.754,1.1c-.423.159-.476.172-.622.344a16.267,16.267,0,0,1-2.408,2.445v5.237H99.273Zm-1.005-7.153a12.952,12.952,0,0,1,3.133,1.374l-.516.86a17.683,17.683,0,0,0-2.988-1.416Zm3.451,6.4a17.683,17.683,0,0,1,2.723,2.035l-.688.754a15.194,15.194,0,0,0-2.657-2.035Z" transform="translate(114.183 316.184)"/>
      <path id="パス_88443" data-name="パス 88443" d="M102.041,264.956a11.375,11.375,0,0,1,.937,1.9l-.725.344a9.813,9.813,0,0,0-.926-1.9Zm.9,6.24a6.36,6.36,0,0,0,3.546-2.551,8.554,8.554,0,0,0,1.453-4.271l.688.265c.3.093.384.159.384.225,0,.093-.04.106-.3.2a13.348,13.348,0,0,1-1.627,4.046,7.526,7.526,0,0,1-3.385,2.736Zm1.614-6.849a8.33,8.33,0,0,1,.939,1.89l-.728.306a11.918,11.918,0,0,0-.926-1.892Z" transform="translate(122.091 318.518)"/>
      <path id="パス_88444" data-name="パス 88444" d="M109.956,266.269a15.8,15.8,0,0,1,4.337,2.578l-.648.926a14.82,14.82,0,0,0-1.81-1.389,11.115,11.115,0,0,0-2.262-1.191v5.885h-1.058V262.752l1.005.053c.066,0,.37.013.37.185,0,.079-.106.146-.317.291v3.742Z" transform="translate(130.751 316.596)"/>
      <path id="パス_88445" data-name="パス 88445" d="M116.14,263.077c-.37.49-.675.792-.873,1.019.119.079.2.143.2.209,0,.093-.132.159-.238.2v2.723h-.884v-2.17a11.921,11.921,0,0,1-1.416,1.032l-.728-.661a8.848,8.848,0,0,0,3.371-3.133l.767.49c.053.026.146.093.146.172,0,.145-.278.119-.344.119m7.245,11.384a14.177,14.177,0,0,1-3.5-1.244l.2-.41h-3.332l.3.37a.231.231,0,0,1,.079.159c0,.106-.106.132-.212.132a2.526,2.526,0,0,1-.278-.04,11.575,11.575,0,0,1-2.961,1.1l-.582-.833a7.214,7.214,0,0,0,2.789-.886H114.37v-5.235h8.224v5.235h-1.442a19.828,19.828,0,0,0,2.75.86Zm-1.718-6.136h-6.374v.754h6.374Zm0,1.469h-6.374v.754h6.374Zm0,1.468h-6.374v.781h6.374Zm-.966-5.925v.688h2.935v.754h-6.544v-.754h2.644v-.688h-3.57v-.794h3.57v-.686c-.953.053-1.9.064-2.855.064l-.278-.858c.3.026.886.079,1.76.079a14.02,14.02,0,0,0,4.507-.7l.5.714a.277.277,0,0,1,.053.146c0,.064-.053.079-.093.079a1.366,1.366,0,0,1-.384-.108,16.768,16.768,0,0,1-2.247.439v.831h3.517v.794Z" transform="translate(135.192 316.047)"/>
      <path id="パス_88446" data-name="パス 88446" d="M122.328,263.31a9.07,9.07,0,0,1-.781.9c.079.026.212.079.212.172s-.119.159-.212.238v2h-.9V265.03a10.472,10.472,0,0,1-1.614,1.2l-.725-.688a11.4,11.4,0,0,0,3.557-3.056l.712.423c.04.027.2.106.2.2,0,.172-.329.2-.448.2m7.126,4.893a2.678,2.678,0,0,1-1.191-.3v4.469H126.53a12.607,12.607,0,0,0,3.493,1.241l-.622.86A18.224,18.224,0,0,1,125.686,273l.5-.635H122.4l.463.5a.416.416,0,0,1,.106.2c0,.064-.053.1-.146.1a.642.642,0,0,1-.251-.064c-.212.117-1.175.633-1.374.725a14.725,14.725,0,0,1-1.826.7l-.648-.794a10.888,10.888,0,0,0,3.228-1.374h-1.614v-5.435h6.716a6.966,6.966,0,0,1-1.175-1.561l-3.334.214-.04-.9,2.963-.172a10.311,10.311,0,0,1-.728-2l1.058.013c.132,0,.278.013.278.119s-.106.172-.2.238a5.762,5.762,0,0,0,.553,1.561l3.863-.238.024.9-3.477.2a6.218,6.218,0,0,0,.741.977,2.442,2.442,0,0,0,1.535.926c.423,0,.516-.238.556-1.283l.858.45c-.157,1.323-.4,1.826-1.083,1.826m-2.117-.49h-6.068v.767h6.068Zm0,1.519h-6.068V270h6.068Zm0,1.521h-6.068v.794h6.068Zm.794-6.862a6.849,6.849,0,0,0-1.217-.886l.556-.662a10.027,10.027,0,0,1,1.244.939Z" transform="translate(142.552 316.105)"/>
      <path id="パス_88447" data-name="パス 88447" d="M128.885,263.054v11.635h-.86V262.26h3.94v.794Z" transform="translate(154.261 316.003)"/>
      <path id="パス_88448" data-name="パス 88448" d="M141.069,266.176v.937h-2.657a9.911,9.911,0,0,1-.728,4.073,4.847,4.847,0,0,1-2.816,2.606l-.926-.794a4.065,4.065,0,0,0,2.842-2.275,8.947,8.947,0,0,0,.675-3.609h-2.935v3.239h-.992v-3.239h-2.9v-.937h2.9V263.4l1.072.132c.04,0,.238.026.238.132s-.04.106-.317.278v2.236h2.9c0-1.111-.04-2.223-.066-2.99l1.019.066c.132.013.318.026.318.159,0,.106-.026.119-.265.291v2.474Zm-.648-.648a8.486,8.486,0,0,0-1.347-1.138l.58-.582a6.147,6.147,0,0,1,1.349,1.1Zm.966-1.416a5.393,5.393,0,0,0-1.349-1.1l.582-.622a7.773,7.773,0,0,1,1.349,1.138Z" transform="translate(157.409 316.162)"/>
      <path id="パス_88449" data-name="パス 88449" d="M139.267,274.357H138.3v-7.735a22.066,22.066,0,0,1-1.413,1.826l-.688-.688a15.715,15.715,0,0,0,3.213-5.422l.953.357a.212.212,0,0,1,.145.185c0,.093-.172.159-.331.2a16.734,16.734,0,0,1-.9,1.929c.2.108.225.172.225.238s-.026.148-.238.384Zm5.991-11.94,1.069.119c.172.026.172.119.172.146,0,.106-.172.212-.278.278v1.363h1.826v.818h-1.826v1.8h2.17v.82h-8.4v-.82h2.366v-1.8h-1.929v-.818h1.929v-1.905l.913.093c.093.013.331.04.331.172,0,.066-.026.093-.278.251v1.389h1.932Zm-3.821,6.346h5.6V274.3h-.926v-.688h-3.755v.648h-.924Zm4.679.794h-3.755v1.217h3.755Zm0,1.971h-3.755v1.3h3.755Zm-.858-6.388h-1.929v1.8h1.929Z" transform="translate(164.111 316.097)"/>
      <path id="パス_88450" data-name="パス 88450" d="M153.3,274.121a9.022,9.022,0,0,1-3.98-7.629h-1.138c-.106.106-.225.238-.542.542a6.58,6.58,0,0,1,2.09,5.063c0,1.6-.7,2.5-2.011,2.5a2.657,2.657,0,0,1-.714-.093l-.249-.992a3.058,3.058,0,0,0,.977.146c.794,0,1.058-.648,1.058-1.68a7,7,0,0,0-.119-1.294,13.488,13.488,0,0,1-5.634,3.2l-.633-.86a6.1,6.1,0,0,0,2.273-.609,11.439,11.439,0,0,0,3.742-2.617,5.018,5.018,0,0,0-.37-.833,10.659,10.659,0,0,1-4.588,2.723l-.556-.8a8.681,8.681,0,0,0,4.588-2.738c-.212-.265-.357-.41-.49-.556a11.618,11.618,0,0,1-3.08,1.812l-.609-.714a8.5,8.5,0,0,0,2.236-1.125,6.676,6.676,0,0,0,1.191-1.069h-2.328v-.82h7.55v.82H150.2a8.591,8.591,0,0,0,.291,2.326,9.425,9.425,0,0,0,1.744-1.455l.714.648a.278.278,0,0,1,.106.172c0,.053,0,.106-.41.093-.767.622-1.693,1.23-1.876,1.363a7.169,7.169,0,0,0,3.358,3.715Zm-.489-7.867v-1.746h-9.256v1.746h-.924V263.7h4.983v-1.453l1.111.106c.106.013.225.027.225.119,0,.053-.079.119-.238.249v.979h5.025v2.553Z" transform="translate(171.593 315.989)"/>
      <path id="パス_88451" data-name="パス 88451" d="M151.352,273.9V262.26h.86v12.429h-3.94V273.9Z" transform="translate(178.656 316.003)"/>
      <path id="パス_88452" data-name="パス 88452" d="M80.323,283.041a3.038,3.038,0,0,1-3.2-2.445h1.244a1.783,1.783,0,0,0,1.943,1.413c2.551,0,2.683-2.9,2.723-3.874a3.128,3.128,0,0,1-2.75,1.349,3.089,3.089,0,0,1-3.318-3.175,3.344,3.344,0,0,1,3.517-3.451,3.4,3.4,0,0,1,2.935,1.468,6.689,6.689,0,0,1,.86,3.477c0,3.03-1.31,5.237-3.953,5.237m.185-9.19a2.169,2.169,0,0,0-2.3,2.342,2.092,2.092,0,0,0,2.207,2.3,2.171,2.171,0,0,0,2.419-2.183,2.276,2.276,0,0,0-2.326-2.459" transform="translate(92.737 328.774)"/>
      <path id="パス_88453" data-name="パス 88453" d="M83.74,282.631H82.483a15.223,15.223,0,0,1,1.442-4.655,15.693,15.693,0,0,1,2.644-4.006H80.805v-.99h7.06v.99a16.032,16.032,0,0,0-4.125,8.661" transform="translate(97.364 328.92)"/>
      <rect id="長方形_10027" data-name="長方形 10027" width="1.416" height="1.416" transform="translate(186.874 610.138)"/>
      <path id="パス_88454" data-name="パス 88454" d="M89.074,282.631H87.817a15.223,15.223,0,0,1,1.442-4.655A15.693,15.693,0,0,1,91.9,273.97H86.139v-.99H93.2v.99a16.048,16.048,0,0,0-4.125,8.661" transform="translate(103.791 328.92)"/>
      <path id="パス_88455" data-name="パス 88455" d="M92.009,277.871c-1.217,0-2.09-.966-2.09-2.5,0-1.561.886-2.514,2.09-2.514s2.086.953,2.086,2.514c0,1.546-.884,2.5-2.086,2.5m0-4.271c-.9,0-1.244.754-1.244,1.773,0,.3,0,1.757,1.244,1.757,1.069,0,1.241-1.069,1.241-1.757,0-.37-.026-1.773-1.241-1.773m.871,9.177h-.858l5.166-9.651h.862Zm5.184.265c-1.2,0-2.09-.952-2.09-2.5,0-1.519.86-2.5,2.09-2.5,1.257,0,2.1,1.005,2.1,2.5,0,1.521-.858,2.5-2.1,2.5m0-4.258c-.926,0-1.244.781-1.244,1.757,0,.333.013,1.76,1.244,1.76.966,0,1.257-.847,1.257-1.76,0-.368-.026-1.757-1.257-1.757" transform="translate(108.346 328.774)"/>
      <path id="パス_88456" data-name="パス 88456" d="M103.095,281.9a6.225,6.225,0,0,0,2.022-1.019,4.339,4.339,0,0,0,1.561-3.292,3.866,3.866,0,0,0-2.088-3.424,4.7,4.7,0,0,0-1.812-.359,16.7,16.7,0,0,1-1.535,5.792c-.553,1.177-1.268,2.328-2.048,2.328-1.111,0-2.262-1.707-2.262-3.625a5.445,5.445,0,0,1,5.594-5.393c2.776,0,5.144,1.744,5.144,4.681,0,3.6-3.2,4.879-3.993,5.195Zm-4.35-6.216a4.345,4.345,0,0,0-.913,2.593c0,1.413.807,2.485,1.336,2.485.278,0,.6,0,1.455-2.117a15.65,15.65,0,0,0,1.136-4.811,4.314,4.314,0,0,0-3.014,1.85" transform="translate(116.796 328.833)"/>
      <path id="パス_88457" data-name="パス 88457" d="M102.722,274.528v-.86H108v-1.336l1.072.119c.079.013.278.04.278.172s-.093.172-.357.344v.7h5.382v.86Zm10.817,9.572a4.011,4.011,0,0,1-1.561.159l-.251-1.032c.3.013.675.04.82.04.423,0,.423-.093.423-.516v-2.922h-8.9v4.522h-.966v-5.38h10.831v4.046c0,.5,0,.9-.4,1.083m-8.621-8.661h7.206v2.606h-7.206Zm6.293.794h-5.382v1.019h5.382Zm-4.48,7.179v.423h-.9v-3.041H111.2v2.617Zm3.583-1.85h-3.583v1.032h3.583Z" transform="translate(123.772 328.139)"/>
      <path id="パス_88458" data-name="パス 88458" d="M119.411,283.894a9.812,9.812,0,0,1-2.9-2.617,10.189,10.189,0,0,1-1.786-3.7,9.638,9.638,0,0,1-5.263,6.452l-.725-.886a8.241,8.241,0,0,0,4.139-3.557,12.244,12.244,0,0,0,1.44-6.094h-2.75v-.952h3.821c0,.251-.013.41-.026.873-.013.225-.053,1.191-.053,1.389a9.94,9.94,0,0,0,.966,4.271,8.814,8.814,0,0,0,3.9,3.925Z" transform="translate(131.025 328.385)"/>
      <path id="パス_88459" data-name="パス 88459" d="M121.919,278.154v1.773h3.133v4.125h-.992v-.728h-5.1v.754h-.99v-4.152h2.988v-1.773h-4.046a12.579,12.579,0,0,1-1.495,5.422l-.858-.542c1.44-2.459,1.479-5.367,1.479-7.827,0-.873-.013-1.453-.04-2.67h9.468v3.12h-3.543v1.64h4.443v.858Zm-.966-2.5H117c-.013.781-.026,1.058-.04,1.64h3.993Zm3.543-2.26H117v1.4h7.5Zm-.437,7.325h-5.1v1.786h5.1Z" transform="translate(138.03 328.385)"/>
      <path id="パス_88460" data-name="パス 88460" d="M123.678,278.521c-.408.37-1.255,1.1-2,1.68,0,.17-.013.381-.159.381-.053,0-.119-.04-.225-.185l-.6-.8a28.728,28.728,0,0,0,2.858-2.064Zm2.342,1.455,1.019.1c.119.013.291.029.291.145,0,.132-.212.225-.318.278v.741h5.3v.86h-5.3v2.289h-.992V282.1H120.7v-.86h5.316Zm-4.536-4.483a15.429,15.429,0,0,1,2.236,1.374l-.556.728a17.219,17.219,0,0,0-2.17-1.347Zm6.637,2.207a7.471,7.471,0,0,1,1.376,2.037l-.714.434a7.35,7.35,0,0,0-.423-.818c-1.718.238-3.226.408-4.271.5-.053.108-.132.293-.251.293-.1,0-.159-.119-.172-.2l-.289-.937c.45,0,.792-.013,1.2-.04a4.9,4.9,0,0,0,1.032-.86,11,11,0,0,0-1.76-1.48l.516-.648a5.191,5.191,0,0,1,.6.41,9.442,9.442,0,0,0,1.27-1.614h-5.157v-.873h4.946v-1.574l1.058.119c.238.027.278.066.278.119,0,.146-.225.212-.344.238v1.1h4.946v.873h-5.515l.6.437c.132.093.172.145.172.2,0,.172-.291.145-.423.132a13.659,13.659,0,0,1-1.244,1.321,7.654,7.654,0,0,1,.728.675c.331-.357.847-.911,1.548-1.733l.765.637c.066.04.132.1.132.17,0,.132-.172.132-.225.132a1.565,1.565,0,0,1-.251-.024c-.752.752-1.546,1.48-2.353,2.181.741-.053,1.839-.145,2.062-.172-.265-.317-.368-.437-.474-.556Zm.939-.807a18.944,18.944,0,0,0,1.932-1.64l.622.7c.1.108.146.161.146.214,0,.093-.119.1-.172.1s-.185-.011-.238-.011a19.357,19.357,0,0,1-1.707,1.321Zm.714.886a18.243,18.243,0,0,1,2.234,1.837l-.58.73a18.109,18.109,0,0,0-2.2-1.826Z" transform="translate(145.439 328.139)"/>
      <path id="パス_88461" data-name="パス 88461" d="M75.358,292.631v-7.06H73.323v-.86a2.114,2.114,0,0,0,2.339-1.731h.913v9.651Z" transform="translate(88.349 340.969)"/>
      <path id="パス_88462" data-name="パス 88462" d="M80.224,293.041a3.528,3.528,0,0,1-3.041-1.31,3.467,3.467,0,0,1-.609-1.929h1.2a2.194,2.194,0,0,0,2.472,2.247c1.627,0,2.445-.937,2.445-2.115,0-1.4-1.162-1.852-2.194-1.852H79.483v-.873h.86c.741,0,2.064-.41,2.064-1.691,0-.741-.423-1.667-2.037-1.667a2.178,2.178,0,0,0-1.72.662,2.255,2.255,0,0,0-.487,1.321H76.972a3.086,3.086,0,0,1,3.411-2.974c1.932,0,3.213,1.032,3.213,2.527a2.16,2.16,0,0,1-1.678,2.181,2.287,2.287,0,0,1,1.969,2.381c0,1.718-1.336,3.093-3.662,3.093" transform="translate(92.267 340.824)"/>
      <path id="パス_88463" data-name="パス 88463" d="M80.583,289.77v-.688c.516-.159.688-.291.728-.953h-.728v-1.413H82v1.4c0,1.27-.754,1.468-1.416,1.654" transform="translate(97.096 345.471)"/>
      <path id="パス_88464" data-name="パス 88464" d="M85.571,293.041c-2.961,0-3.662-2.659-3.662-5.091s.7-5.091,3.662-5.091,3.649,2.686,3.649,5.091c0,2.421-.688,5.091-3.649,5.091m0-9.19c-1.89,0-2.406,1.929-2.406,4.1,0,2.26.556,4.1,2.406,4.1,1.865,0,2.406-1.852,2.406-4.1s-.54-4.1-2.406-4.1" transform="translate(98.694 340.824)"/>
      <path id="パス_88465" data-name="パス 88465" d="M89.351,293.041c-2.961,0-3.662-2.659-3.662-5.091s.7-5.091,3.662-5.091S93,285.545,93,287.95c0,2.421-.688,5.091-3.649,5.091m0-9.19c-1.892,0-2.406,1.929-2.406,4.1,0,2.26.556,4.1,2.406,4.1,1.865,0,2.406-1.852,2.406-4.1s-.54-4.1-2.406-4.1" transform="translate(103.249 340.824)"/>
      <path id="パス_88466" data-name="パス 88466" d="M93.131,293.041c-2.961,0-3.662-2.659-3.662-5.091s.7-5.091,3.662-5.091,3.649,2.686,3.649,5.091c0,2.421-.688,5.091-3.649,5.091m0-9.19c-1.89,0-2.406,1.929-2.406,4.1,0,2.26.556,4.1,2.406,4.1,1.865,0,2.406-1.852,2.406-4.1s-.54-4.1-2.406-4.1" transform="translate(107.803 340.824)"/>
      <path id="パス_88467" data-name="パス 88467" d="M104.437,290v-.794H97.866a8.028,8.028,0,0,1-.529,2.553,6.029,6.029,0,0,1-1.76,2.313l-.794-.661c1.865-1.585,2.077-2.789,2.077-5.5v-2.7h8.529V290Zm-8.926-7.4h11.159v.924H95.512Zm8.926,3.543H97.893v2.167h6.544Z" transform="translate(114.207 340.507)"/>
      <path id="パス_88468" data-name="パス 88468" d="M107.265,291.9a6.225,6.225,0,0,0,2.022-1.019,4.34,4.34,0,0,0,1.561-3.292,3.866,3.866,0,0,0-2.088-3.424,4.7,4.7,0,0,0-1.812-.359,16.7,16.7,0,0,1-1.535,5.792c-.553,1.178-1.268,2.328-2.048,2.328-1.111,0-2.262-1.707-2.262-3.625a5.445,5.445,0,0,1,5.594-5.393c2.776,0,5.144,1.744,5.144,4.681,0,3.6-3.2,4.879-3.993,5.195Zm-4.35-6.216a4.345,4.345,0,0,0-.913,2.593c0,1.413.807,2.485,1.336,2.485.278,0,.6,0,1.455-2.117a15.65,15.65,0,0,0,1.136-4.811,4.314,4.314,0,0,0-3.014,1.85" transform="translate(121.82 340.883)"/>
      <path id="パス_88469" data-name="パス 88469" d="M112.244,283.751v.792h-2.009a6.841,6.841,0,0,1,.62.926l-.818.45a6.034,6.034,0,0,0-.9-1.376h-.569c-.45.556-.714.847-1.019,1.164l-.688-.648a9.292,9.292,0,0,0,1.971-2.763l.873.423c.146.066.225.119.225.212,0,.132-.265.172-.4.185-.159.265-.238.384-.4.635Zm2.71-.847c.079.04.185.106.185.159,0,.079-.159.119-.37.159-.093.132-.223.344-.291.423h3.889v.792h-2.619a4.238,4.238,0,0,1,.622.966l-.728.476a7.169,7.169,0,0,0-.992-1.442h-.778c-.278.346-.476.556-.728.833.357.026.4.026.4.159s-.093.172-.238.278v.516h5v2.683h-.926v-1.85h-9.309v1.958h-.926v-2.791H112.2v-1.032l.9.079-.688-.45a8.533,8.533,0,0,0,1.68-2.353Zm-4.811,11.04v.41H109.2v-6.584h6.69v2.551h-5.75v.754h6.465v3.213h-.926v-.344Zm4.811-5.409h-4.813v1.032h4.813Zm.728,3.334h-5.541v1.283h5.541Z" transform="translate(128.761 340.145)"/>
      <path id="パス_88470" data-name="パス 88470" d="M117.684,290.729c-2.009.9-3.279,1.376-4.2,1.707-.053.117-.119.278-.212.278s-.172-.161-.2-.24l-.357-.911c.4-.106,1.27-.331,2.077-.6v-3.4h-1.654v-.9h1.654v-2.858h-1.76v-.858h4.4v.858h-1.718v2.858h1.718v.9h-1.718v3.08c.979-.344,1.493-.582,2-.807Zm-.45,2.9v-.858h3.479v-1.892h-2.342v-.86h2.342V288.5H118.16v-5.911h6.057V288.5h-2.58v1.519h2.514v.86h-2.514v1.892h3.305v.858Zm3.479-10.167h-1.627v1.625h1.627Zm0,2.445h-1.627v1.733h1.627Zm2.578-2.445h-1.654v1.625h1.654Zm0,2.445h-1.654v1.733h1.654Z" transform="translate(135.809 340.492)"/>
      <path id="パス_88471" data-name="パス 88471" d="M124.013,285.045l1.058.066c.185.013.251.066.251.145,0,.106-.079.159-.318.251v.542h3.517v.86h-3.517v1.138h3.133v.818h-3.133a5.878,5.878,0,0,1-.106,1.177h5v.886h-4.483c1.188,1.731,3.332,2.088,4.639,2.287l-.646,1.005c-2.1-.476-3.665-1.1-4.853-3.014-.794,1.466-1.905,2.617-4.959,3l-.542-.939c3.345-.3,4.1-1.546,4.536-2.339h-4.443v-.886h4.721a5.738,5.738,0,0,0,.146-1.177h-3.239v-.818h3.239v-1.138h-3.477v-.86h3.477Zm-.026-2.683,1.138.079c.053.013.212.026.212.159s-.159.225-.318.3v.728h4.893v2.419h-.966v-1.521h-8.873v1.588h-.966v-2.485h4.879Z" transform="translate(143.451 340.225)"/>
      <path id="パス_88472" data-name="パス 88472" d="M125.421,284.33c.238.185.318.265.728.553a16.469,16.469,0,0,0,1.614-2.617l.873.529c.117.079.13.119.13.159,0,.119-.209.159-.381.2-.41.582-.847,1.257-1.548,2.353a7.425,7.425,0,0,1,.714.728,13.753,13.753,0,0,0,1.136-1.823l.86.686c.013.015.106.079.106.145,0,.119-.225.148-.463.172-.357.463-1.863,2.54-2.181,2.95a14.754,14.754,0,0,0,1.585-.306c-.077-.13-.395-.712-.448-.831l.792-.344A13.182,13.182,0,0,1,130,289.22l-.794.318c-.159-.41-.172-.45-.3-.765-.3.093-.712.185-1.03.249v5.356h-.9V289.2c-.4.093-1.548.342-1.614.355-.066.119-.146.265-.265.265s-.146-.146-.159-.212l-.172-.964c.278,0,.675-.04.966-.068.212-.249,1.1-1.387,1.283-1.625a14.14,14.14,0,0,0-2.143-1.852Zm-.516,9.307a9.931,9.931,0,0,0,.728-3.623l.953.132c.093.013.212.026.212.146s-.159.185-.265.225a15.7,15.7,0,0,1-.728,3.385Zm4.2-3.729a12.35,12.35,0,0,1,.648,2.789l-.86.174a15.8,15.8,0,0,0-.62-2.712Zm5.369,2.765a6.453,6.453,0,0,0,2.644.964l-.646.781a8.322,8.322,0,0,1-2.858-1.1l.714-.646H132.14l.5.593c.029.04.108.132.108.2s0,.146-.476.093c-.159.066-.847.344-.979.41-.529.2-1.058.4-1.6.556l-.516-.82a11.124,11.124,0,0,0,2.752-1.03H130.42v-4.827h5.753v4.827ZM132.826,282.5l.873.053c.132.013.317.026.317.132s-.132.185-.291.278v.675h2.858v.728h-2.858v.688h2.514v.725h-2.514v.728h3.056v.754H129.8v-.754h3.027v-.728h-2.339v-.725h2.339v-.688h-2.683v-.728h2.683Zm-1.519,6.7h3.927v-.675h-3.927Zm0,1.376h3.927V289.9h-3.927Zm3.927.688h-3.927v.714h3.927Z" transform="translate(150.326 340.109)"/>
      <path id="パス_88473" data-name="パス 88473" d="M309.943,266.618v-1.892H301.03v2h-1v-2.9h5v-1.455l.977.053c.106,0,.291.013.291.119,0,.146-.212.251-.3.3v.979h4.959v2.789Zm-1.228,7.47V273.4h-5.686v.807h-.966v-8.145h6.745v2.974h-5.779v1.244h6.65v3.808Zm-.86-7.192h-4.827v1.323h4.827Zm.86,4.218h-5.686v1.455h5.686Z" transform="translate(361.51 316.141)"/>
      <path id="パス_88474" data-name="パス 88474" d="M309.714,263.545a17.9,17.9,0,0,1-3.03,5.263l-.831-.622a15.368,15.368,0,0,0,3.067-5.686l1.1.569a.231.231,0,0,1,.132.172c0,.172-.2.238-.437.3m6.571,10.222a13.194,13.194,0,0,0-.939-1.561c-.831.145-2.71.489-4.072.728-.95.157-2.3.37-4.152.635-.053.106-.2.368-.355.368-.106,0-.148-.09-.172-.209l-.291-1.164c.238-.026.329-.026.45-.04.236-.026,1.241-.145,1.453-.172a61.706,61.706,0,0,0,2.988-6.676l1.019.5c.146.079.185.132.185.2,0,.143-.159.185-.463.249-1.23,2.736-1.691,3.768-2.644,5.607,1.678-.185,3.662-.49,5.5-.767a24.132,24.132,0,0,0-1.773-1.969l.688-.622a17.589,17.589,0,0,1,3.517,4.441Zm.529-5.369a7.654,7.654,0,0,1-3.49-4.959h-1.786v-.9h2.619a6.385,6.385,0,0,0,3.332,4.972Z" transform="translate(368.53 316.292)"/>
      <path id="パス_88475" data-name="パス 88475" d="M314.065,264.787c.013.478.026,1.482.026,1.905,0,3.583-.265,5.25-1.374,7.192l-.979-.381c1.244-1.852,1.4-3.7,1.4-6.163,0-1.164-.026-2.286-.066-3.451h4.549v-1.521l1.016.04c.172.013.265.053.265.119,0,.106-.119.172-.318.278v1.085h5.025v.9Zm5.832,2.752v5.409c0,1.122-.146,1.268-2.472,1.268l-.344-1.072a12.405,12.405,0,0,0,1.361.106c.463,0,.463-.238.463-.58v-5.131h-3.649V266.6h8.224v.939Z" transform="translate(375.622 316.133)"/>
      <path id="パス_88476" data-name="パス 88476" d="M318.339,266.362a12.378,12.378,0,0,1,2.683,2.406l-.686.756a10.2,10.2,0,0,0-2.514-2.646Z" transform="translate(382.952 320.946)"/>
      <path id="パス_88477" data-name="パス 88477" d="M334.873,268.134a12.772,12.772,0,0,1-5.036-4.244,14.241,14.241,0,0,1-5.25,4.377l-.794-.858a10.092,10.092,0,0,0,5.713-5.065l1,.384a.256.256,0,0,1,.172.225c0,.132-.117.185-.328.278a10.646,10.646,0,0,0,5.393,4Zm-10.154,5.713v-.9h2.935a6.15,6.15,0,0,0-.966-1.546l.688-.584a5.781,5.781,0,0,1,1.164,1.68l-.582.45h1.376V270.33h-3.649v-.86h3.649v-1.614H327.1V267h5.514v.858H330.26v1.614h3.834v.86H330.26v2.617h1.387l-.556-.41a5.537,5.537,0,0,0,1.1-1.691l.767.463c.119.064.212.13.212.223,0,.119-.146.132-.357.159a5.223,5.223,0,0,1-.86,1.257h3.2v.9Z" transform="translate(390.146 316.105)"/>
      <path id="パス_88478" data-name="パス 88478" d="M329.919,262.883h6.03v.873h-6.03Zm5.367,11.331h-1.069l-.238-.886a4.313,4.313,0,0,0,.847.093c.238,0,.291-.119.291-.265v-3.041h-1.27c-.582,0-.6-.357-.6-.609v-.871h-.9l.4.185c.04.013.185.093.185.2s-.119.117-.251.132a1.914,1.914,0,0,1-1.1,1.374l-.593-.569a1.448,1.448,0,0,0,1.016-1.321h-1.069v5.618h-.86v-6.372h5.9v5.473c0,.5-.146.86-.688.86m-4.639-9.6h4.708v2.514h-4.708Zm2.882,6.851v2.207h-.86v-2.207h-1.389v-.754h3.453v.754Zm1.005-6.1h-3.067v1.005h3.067Zm.582,3.268h-1.138v.423c0,.276.026.342.384.342h.754Zm5.922,5.512c-.172-.5-.278-.82-.516-1.374-.41.146-.966.342-1.81.62a13.835,13.835,0,0,0-1.72.609c-.185.251-.212.278-.278.278-.093,0-.119-.079-.159-.212l-.3-.886a15.249,15.249,0,0,0,2.143-.54v-3h-.939v.833h-.82v-5.79h1.76v-2.3l.873.106c.117.013.236.04.236.132,0,.132-.2.212-.278.238v1.826H341v4.957h-1.773v2.75c.331-.117.741-.276.979-.368a13.262,13.262,0,0,0-.648-1.389l.794-.37a19.9,19.9,0,0,1,1.508,3.543Zm-2.644-8.568h-.939v3.2h.939Zm1.81,0h-.979v3.2h.979Z" transform="translate(397.527 316.148)"/>
      <path id="パス_88479" data-name="パス 88479" d="M339.31,269.347a5.271,5.271,0,0,1-.754-1.376v6.414h-.86v-5.951a8.4,8.4,0,0,1-1.387,2.8l-.781-.45a9.822,9.822,0,0,0,1.956-4.443h-1.268v-.886H337.7v-3.133l.966.093c.066,0,.238.053.238.146,0,.051-.04.143-.344.249v2.646h1.283v.886h-1.283A7.107,7.107,0,0,0,340,268.9Zm7.523,5.051a1.992,1.992,0,0,1-1.151-.582,5.364,5.364,0,0,1-.926-1.151,19.854,19.854,0,0,1-3.107,1.244l-.45-.767a12.308,12.308,0,0,0,3.135-1.2,6.737,6.737,0,0,1-.516-1.654h-2.725a7.514,7.514,0,0,1-.778,4.062l-.873-.437a6.9,6.9,0,0,0,.781-3.625h-.635v-.818h4.1a33.029,33.029,0,0,1-.344-4.165c-.106.026-.159.04-.291.066a25.235,25.235,0,0,1-1.707,2.3c.278-.013.357-.013.86-.066a2.868,2.868,0,0,0-.172-.3l.648-.346a5.308,5.308,0,0,1,.794,1.614l-.688.3a5.1,5.1,0,0,0-.278-.688c-.41.093-.582.119-2.088.357-.066.119-.172.318-.3.318-.093,0-.145-.172-.159-.2l-.265-.847c.384-.026.41-.026.622-.04.236-.289.328-.41,1.2-1.546a13.922,13.922,0,0,0-1.863-1.521l.49-.622a4.57,4.57,0,0,1,.434.278,12.06,12.06,0,0,0,1.217-1.786l.688.478c.04.037.146.106.146.183,0,.132-.185.148-.384.148-.3.408-.781,1.056-1.072,1.466.238.212.542.489.794.714a7.64,7.64,0,0,0,.648-1.032l.688.45c-.053-1.453-.053-1.588-.066-2.646l1.056.174c.212.04.212.117.212.146,0,.093-.17.2-.3.289-.013.346-.027.873-.027,1.455a32.778,32.778,0,0,0,.37,5.065h3.543v.818h-3.413a4.321,4.321,0,0,0,.384,1.244,6.472,6.472,0,0,0,1.138-.858l.622.673a.168.168,0,0,1,.053.119.084.084,0,0,1-.093.093c-.04,0-.053-.013-.2-.037-.119.077-.648.421-.754.5-.132.093-.212.145-.384.265a3.359,3.359,0,0,0,.609.714,1.61,1.61,0,0,0,.714.423c.437,0,.556-1.019.609-1.482l.781.688c-.238,1.363-.847,1.773-1.323,1.773m-3.729-2.315a4.461,4.461,0,0,0-1.416-.767l.41-.712a4.712,4.712,0,0,1,1.376.752Zm4.4-3.927a6.214,6.214,0,0,0-.278-.661c-.781.185-1.23.278-2.1.45-.159.212-.238.318-.317.318s-.132-.119-.146-.2l-.223-.911a3.106,3.106,0,0,0,.514-.029,10.4,10.4,0,0,0,1.072-1.387,16.761,16.761,0,0,0-1.521-1.336l.489-.622c.331.251.37.278.45.344a6.361,6.361,0,0,0,.953-1.519l.728.487c.106.068.146.119.146.2s-.093.1-.357.13c-.185.318-.582.82-.886,1.217a5.255,5.255,0,0,1,.476.45,6.639,6.639,0,0,0,.6-.86l.7.569c0,.013.066.066.066.119,0,.106-.106.106-.317.119-.833,1.069-1.283,1.585-1.667,2.009.384-.024.622-.066,1.045-.13a2.851,2.851,0,0,0-.212-.346l.688-.315a5.788,5.788,0,0,1,.831,1.585Zm-.86,1.164a3.857,3.857,0,0,0-1.005-.82l.556-.661a4,4,0,0,1,1.032.9Z" transform="translate(404.287 316.083)"/>
      <path id="パス_88480" data-name="パス 88480" d="M342.953,274.116h-.926V262.56h4.721v4.073h-3.795Zm2.9-10.762h-2.855v.9h2.855Zm0,1.625h-2.855v.926h2.855Zm2.353,5.951a5.368,5.368,0,0,0,2.725,1.744l-.542.754a6.576,6.576,0,0,1-2.778-1.982,4.832,4.832,0,0,1-2.67,2.194l-.754-.688a4.347,4.347,0,0,0,2.738-2.022h-2.778v-.754h2.977a7.272,7.272,0,0,0,.037-.833v-.265H344.7v-.728h1.217a2.987,2.987,0,0,0-.622-.9l.662-.45a4.05,4.05,0,0,1,.86,1.069l-.41.278h2.26l-.344-.318a6.352,6.352,0,0,0,.794-1.056l.648.41c.093.053.159.119.159.185,0,.119-.251.145-.318.159a6.65,6.65,0,0,1-.489.62h1.2v.728h-2.262v.3a6.079,6.079,0,0,1-.053.794h2.871v.754Zm2.566,2.154c.265.026.752.106.937.106.371,0,.371-.209.371-.6v-5.962h-3.848V262.56h4.747v10.035c0,.979,0,1.574-1.72,1.482Zm1.308-9.73h-2.922v.9h2.922Zm0,1.625h-2.922v.926h2.922Z" transform="translate(412.116 316.365)"/>
      <path id="パス_88481" data-name="パス 88481" d="M348.339,266.362a12.38,12.38,0,0,1,2.683,2.406l-.686.756a10.2,10.2,0,0,0-2.514-2.646Z" transform="translate(419.1 320.946)"/>
      <path id="パス_88482" data-name="パス 88482" d="M364.622,274.072a9.548,9.548,0,0,1-3.332-2.683,9.119,9.119,0,0,1-1.627-3.334,8.967,8.967,0,0,1-4.853,6.057l-.9-.82a7.874,7.874,0,0,0,5.023-6.372h-5.023v-.926h5.129c.026-.463.053-.807.053-1.786,0-.648,0-1.149-.013-1.8l1.032.066c.093,0,.344.026.344.172,0,.053-.053.119-.3.3-.013,1.23-.027,1.416-.079,3.041h5.343v.926h-5.131a9.427,9.427,0,0,0,1.614,3.689,8.442,8.442,0,0,0,3.53,2.591Z" transform="translate(426.438 316.184)"/>
      <path id="パス_88483" data-name="パス 88483" d="M366.185,266.113h4.522v.924h-4.522v2.143h5.422v.926h-5.422v3.067c0,.807-.251,1.138-1.416,1.138-.421,0-.739-.026-.884-.04l-.318-1.138a9.728,9.728,0,0,0,1.136.146c.172,0,.49-.053.49-.384v-2.789h-5.34v-.926h5.34v-2.143h-4.337v-.924h4.337v-1.945a35.266,35.266,0,0,1-4.059.291l-.344-.992a23.782,23.782,0,0,0,8.357-1.135l.847.833a.2.2,0,0,1,.079.132c0,.079-.079.117-.159.117a1.936,1.936,0,0,1-.384-.064,30.807,30.807,0,0,1-3.345.688Z" transform="translate(433.595 316.09)"/>
      <path id="パス_88484" data-name="パス 88484" d="M365.619,268.031a13.886,13.886,0,0,0,3.133-5.673l1.032.423c.066.026.159.093.159.172s-.119.132-.331.159c-.516,1.228-.6,1.413-.992,2.194.132.053.238.093.238.185s-.119.212-.344.357V274.3h-.926v-7.232a12.331,12.331,0,0,1-1.2,1.521Zm12.019-1.76h-3.609v2.578h2.816v.9h-2.816v3.173h3.821v.886h-8.542v-.886h3.755v-3.173H370.34v-.9h2.723v-2.578h-3.451v-.926h8.026Zm-4.681-3.927a12.434,12.434,0,0,1,1.956,2.167l-.858.6a12.7,12.7,0,0,0-1.826-2.1Z" transform="translate(440.543 316.105)"/>
      <path id="パス_88485" data-name="パス 88485" d="M377.815,270.212v2.379c0,.569.132.688.754.688h2.485c.728,0,.953-.344,1.244-1.89l.886.514c-.463,2.156-.926,2.3-2.3,2.3h-2.419a1.835,1.835,0,0,1-1.191-.251,1.244,1.244,0,0,1-.423-1.138v-2.538l-4.93.344-.066-.886,5-.344v-1.863c-.977.132-1.519.2-2.339.238l-.556-.9a15.282,15.282,0,0,0,6.308-1.336l.7.6a.244.244,0,0,1,.119.185c0,.132-.225.132-.516.132a14.934,14.934,0,0,1-2.75.871v2l5.607-.41.079.9ZM382.3,266.3v-1.654h-9.2v2h-.963v-2.9h5.023v-1.413l1.058.093c.079.013.251.026.251.146,0,.066-.027.079-.278.251v.924h5.078V266.3Z" transform="translate(448.055 316.09)"/>
      <path id="パス_88486" data-name="パス 88486" d="M381.076,265.256a13.571,13.571,0,0,1,2.379,1.561,16.017,16.017,0,0,0,1.508-3.861l1.058.45c.106.04.265.132.265.249s-.172.148-.41.161a18.743,18.743,0,0,1-1.6,3.689,13.116,13.116,0,0,1,1.971,2.128l-.86.86a9.171,9.171,0,0,0-1.693-2.1,13.074,13.074,0,0,1-4.311,3.929l-.858-.794A11.075,11.075,0,0,0,382.9,267.7a13.922,13.922,0,0,0-2.408-1.548Z" transform="translate(456.094 316.842)"/>
      <rect id="長方形_10028" data-name="長方形 10028" width="9.574" height="0.966" transform="translate(847.438 584.305)"/>
      <path id="パス_88487" data-name="パス 88487" d="M394.612,265.526a19.975,19.975,0,0,0,.132-2.882l1.27.159c.093.013.212.026.212.132,0,.053,0,.119-.381.3a15.039,15.039,0,0,1-.174,2.286h3.993a26.049,26.049,0,0,1-.606,4.655,4.933,4.933,0,0,1-1.113,2.353c-.423.357-.913.4-2.033.476l-.346-1.138a4.016,4.016,0,0,0,.82.068c.633,0,1.215,0,1.693-1.865a14.779,14.779,0,0,0,.487-3.609h-3.025a13.041,13.041,0,0,1-1.484,3.953,6.661,6.661,0,0,1-2.855,2.723l-.833-.818a5.811,5.811,0,0,0,2.54-2.13,10.289,10.289,0,0,0,1.519-3.728h-3.742v-.939Z" transform="translate(470.364 316.466)"/>
      <rect id="長方形_10029" data-name="長方形 10029" width="9.574" height="0.966" transform="translate(873.897 584.305)"/>
      <path id="パス_88488" data-name="パス 88488" d="M409.1,267.271a8.359,8.359,0,0,0-.767-1.574c-.45.2-.952.41-2.405,1.164a62.337,62.337,0,0,1,2.405,6.161l-.886.452a42.977,42.977,0,0,0-2.313-6.2c-1.614.9-1.8,1.005-2.273,1.241l-.754-.9c.609-.212,1.111-.45,2.657-1.164a22.677,22.677,0,0,0-1.519-2.617l1.069-.318c.45.818.807,1.572,1.27,2.551.212-.106,1.124-.569,1.31-.648.633-.3.7-.331.99-.448a6.653,6.653,0,0,0-1.638-1.826l.886-.489a14.093,14.093,0,0,1,1.651,1.931,4.71,4.71,0,0,1,1.495-.278,2.463,2.463,0,0,1,2.6,2.194,2.866,2.866,0,0,1-1.837,2.472,5.167,5.167,0,0,1-2.395.4l-.318-.992c.146.015.6.053.9.053.953,0,2.723-.3,2.723-1.784a1.487,1.487,0,0,0-1.572-1.508,4.126,4.126,0,0,0-1.151.212c.238.41.291.516.754,1.469Z" transform="translate(484.506 316.48)"/>
      <path id="パス_88489" data-name="パス 88489" d="M328.051,275.671a13.563,13.563,0,0,1,2.659,1.416l-.489.966a10.925,10.925,0,0,0-2.617-1.482Zm8.952,1.31a17.573,17.573,0,0,1-3.5,3.874,12.647,12.647,0,0,1-4.588,2.525l-.648-.992a11.092,11.092,0,0,0,4.231-2.1,14.718,14.718,0,0,0,3.795-4.165Zm-7.536-4.337a13.1,13.1,0,0,1,2.617,1.416l-.49.926a9.886,9.886,0,0,0-2.578-1.482Z" transform="translate(394.737 328.515)"/>
      <path id="パス_88490" data-name="パス 88490" d="M343.184,277.037c-1.48,1.479-3.094,3.094-8.674,5.1-.013.026-.157.344-.236.344-.106,0-.172-.159-.251-.331l-.45-1.083a16.738,16.738,0,0,0,9.161-5Zm-6.954-1.1a18.587,18.587,0,0,0-2.181-2.249l.765-.752a17.641,17.641,0,0,1,2.3,2.313Z" transform="translate(401.93 328.869)"/>
      <path id="パス_88491" data-name="パス 88491" d="M347.59,274.328a1.48,1.48,0,0,0,.476-.066l.622.754c-.516.421-.582.553-.688.792-1.085,2.858-1.786,4.1-3.332,5.607a11.406,11.406,0,0,1-2.7,1.929l-.963-.794a10.475,10.475,0,0,0,4.006-3.054,9.525,9.525,0,0,0,1.982-4.269H343a15.265,15.265,0,0,1-2.617,2.816l-.86-.648a10.955,10.955,0,0,0,2.459-2.432,7.88,7.88,0,0,0,1.23-2.289l.953.331c.251.093.265.225.265.251,0,.119-.172.146-.423.172-.132.291-.265.569-.45.9Z" transform="translate(409.101 328.551)"/>
      <path id="パス_88492" data-name="パス 88492" d="M354.371,275.511a1.571,1.571,0,0,0-.344.344,17.885,17.885,0,0,1-1.733,3.385,9.766,9.766,0,0,1,1.31,1.058l-.688.794a10.425,10.425,0,0,0-1.2-1.058,9.819,9.819,0,0,1-2.117,2.022,8.851,8.851,0,0,1-2.869,1.349l-.688-.939a8.017,8.017,0,0,0,2.617-1.083,8.75,8.75,0,0,0,2.2-1.945,15.364,15.364,0,0,0-2.3-1.228l.622-.794a23.6,23.6,0,0,1,2.262,1.228,12.354,12.354,0,0,0,1.48-3.027h-3.887a12.682,12.682,0,0,1-2.683,2.831l-.9-.688a9.417,9.417,0,0,0,2.736-2.672,10.451,10.451,0,0,0,1.363-2.432l1.032.437c.159.066.212.17.212.225,0,.146-.331.2-.45.212-.185.381-.238.463-.688,1.228h3.239a3.873,3.873,0,0,0,.86-.132Z" transform="translate(416.236 328.53)"/>
      <path id="パス_88493" data-name="パス 88493" d="M361.184,277.037c-1.48,1.479-3.093,3.094-8.674,5.1-.013.026-.157.344-.236.344-.106,0-.172-.159-.251-.331l-.45-1.083a16.737,16.737,0,0,0,9.161-5Zm-6.954-1.1a18.582,18.582,0,0,0-2.181-2.249l.765-.752a17.643,17.643,0,0,1,2.3,2.313Z" transform="translate(423.619 328.869)"/>
      <path id="パス_88494" data-name="パス 88494" d="M365.59,274.328a1.48,1.48,0,0,0,.476-.066l.622.754c-.516.421-.582.553-.688.792-1.085,2.858-1.786,4.1-3.332,5.607a11.408,11.408,0,0,1-2.7,1.929l-.964-.794a10.475,10.475,0,0,0,4.006-3.054,9.525,9.525,0,0,0,1.982-4.269H361a15.262,15.262,0,0,1-2.617,2.816l-.86-.648a10.956,10.956,0,0,0,2.459-2.432,7.884,7.884,0,0,0,1.23-2.289l.953.331c.251.093.265.225.265.251,0,.119-.172.146-.423.172-.132.291-.265.569-.45.9Z" transform="translate(430.789 328.551)"/>
      <path id="パス_88495" data-name="パス 88495" d="M363.229,276.813a25.114,25.114,0,0,0,2.763-.688,12.689,12.689,0,0,0,.2-2.752l1.2.439c-.13.569-.2.979-.368,2a6.345,6.345,0,0,1,1.1-.132c.767,0,1.892.476,1.892,2.461a9.637,9.637,0,0,1-.86,4.017,1.836,1.836,0,0,1-1.759,1.019c-.143,0-.3-.013-.712-.053l-.423-1.069a10.417,10.417,0,0,0,1.1.1c.328,0,.831,0,1.175-.9a9.063,9.063,0,0,0,.516-2.91c0-.741-.079-1.81-1.111-1.81a5.328,5.328,0,0,0-1.056.172,20.223,20.223,0,0,1-2.686,6.584l-.992-.529a10.305,10.305,0,0,0,1.693-2.869,12.4,12.4,0,0,0,.913-2.948c-.2.079-1.072.423-1.257.5a4.976,4.976,0,0,1-.873.291Zm7.232-2.514c.714.661,2.445,2.249,2.445,3.651,0,.95-.781,1.109-1.519,1.268l-.476-1.058c.37.015.964.029.964-.408a1.733,1.733,0,0,0-.331-.847,8.85,8.85,0,0,0-1.731-1.958Zm2.313.648a10.056,10.056,0,0,0-1.244-1.136l.622-.542a10.924,10.924,0,0,1,1.336,1.136Zm.714-2.538a9.48,9.48,0,0,1,1.244,1.1l-.622.556c-.384-.4-.807-.807-1.164-1.111Z" transform="translate(437.628 328.233)"/>
      <path id="パス_88496" data-name="パス 88496" d="M371.724,279.295v3.768c0,1.191-.331,1.191-1.85,1.191l-.238-1.032a3.868,3.868,0,0,0,.635.066c.527,0,.527-.238.527-.41v-3.014c-.527.3-.937.516-1.294.7-.04.185-.066.291-.159.291-.066,0-.172-.053-.251-.238l-.4-.873a17.264,17.264,0,0,0,2.1-.966v-2.514h-1.757v-.858H370.8v-2.961l.886.04c.079.011.291.024.291.132,0,.077-.066.117-.251.223v2.567h1.283v.858h-1.283v1.971a11.937,11.937,0,0,0,1.31-.939v1.072a11.681,11.681,0,0,1-1.31.926m8.754,3.543a8.576,8.576,0,0,1-2.961-2.921v4.311h-.966v-4.244a13.764,13.764,0,0,1-2.855,3.027l-.794-.622a9.6,9.6,0,0,0,3.067-3.094h-2.591v-.833h3.173v-1.826l.926.04c.093,0,.278.013.278.119,0,.066-.026.093-.238.3v1.363h3.239v.833h-2.763a8.9,8.9,0,0,0,3.213,2.9Zm-.556-9.561c-.066,0-.3-.066-.384-.079a18.7,18.7,0,0,1-5.777.754l-.3-.926c.344.026.884.066,1.466.066a13.6,13.6,0,0,0,4.377-.712l.635.646a.256.256,0,0,1,.079.172c0,.053-.04.079-.093.079M375,276.953a10.214,10.214,0,0,0-1.519-2.1l.728-.45a9.177,9.177,0,0,1,1.506,2Zm2.2-.688a5.4,5.4,0,0,0-1.1-1.625l.661-.45a5.516,5.516,0,0,1,1.164,1.654Zm3.08-1.612a14.459,14.459,0,0,1-1.416,2.326l-.792-.437a7.251,7.251,0,0,0,1.506-2.591l.781.37c.066.026.185.119.185.2s-.093.106-.265.132" transform="translate(444.252 328.197)"/>
      <path id="パス_88497" data-name="パス 88497" d="M384.917,284.011h-1.638l-.384-1.138a11.207,11.207,0,0,0,1.678.2c.423,0,.45-.223.45-.5V280.4h-3.411v3.305h-.966V280.4h-3.5a8,8,0,0,1-1.651,3.781l-.794-.648a7.513,7.513,0,0,0,1.588-4.271c.106-1.255.106-2.472.106-6.716h9.6v10.5c0,.7-.185.966-1.072.966m-4.271-7.126h-3.292a17.3,17.3,0,0,1-.132,2.591h3.424Zm0-3.437h-3.292v2.538h3.292Zm4.377,0h-3.411v2.538h3.411Zm0,3.438h-3.411v2.591h3.411Z" transform="translate(451.481 328.4)"/>
      <path id="パス_88498" data-name="パス 88498" d="M229.811,47.313,214.952,62.172l-6.8-6.8L199.1,64.424l15.851,15.851,23.91-23.91Z" transform="translate(239.901 57.009)" fill="#c8bb9b"/>
      <rect id="長方形_10030" data-name="長方形 10030" width="4.583" height="22.415" transform="translate(435.762 124.674) rotate(-45)" fill="#796a56"/>
      <rect id="長方形_10031" data-name="長方形 10031" width="4.934" height="10.391" transform="translate(448.123 107.811) rotate(-45)" fill="#7d0000"/>
      <path id="パス_88499" data-name="パス 88499" d="M236.055,55.5l-16.4-16.4L192.506,66.256l9.051,9.049,18.1-18.1L227,64.553Z" transform="translate(231.955 47.118)" fill="#e50012"/>
      <path id="パス_88500" data-name="パス 88500" d="M231.354,45.8V43.254H219.617V45.8h4.355V58.889H227V45.8Z" transform="translate(264.622 52.118)" fill="#231815"/>
      <path id="パス_88501" data-name="パス 88501" d="M232.626,43.16c-4.727,0-7.331,2.45-7.331,6.9v2.247c0,4.45,2.6,6.9,7.331,6.9,4.745,0,7.358-2.452,7.358-6.9V50.059c0-4.45-2.613-6.9-7.358-6.9m4.333,9.146c0,2.946-1.418,4.379-4.335,4.379-2.9,0-4.3-1.433-4.3-4.379V50.059c0-2.946,1.409-4.379,4.3-4.379,2.917,0,4.335,1.433,4.335,4.379Z" transform="translate(271.463 52.005)" fill="#231815"/>
      <path id="パス_88502" data-name="パス 88502" d="M238.647,59.207c3.358,0,5.365-1.689,5.365-4.516,0-2.617-1.279-3.912-4.721-4.771-2.02-.5-3.188-1.061-3.188-2.406,0-1.164.844-1.832,2.315-1.832a3.3,3.3,0,0,1,3.142,1.565l2.258-1.612c-1.1-1.643-2.919-2.476-5.422-2.476-3.38,0-5.318,1.588-5.318,4.355,0,2.5,1.42,4,4.608,4.842,2.467.637,3.3,1.261,3.3,2.472,0,.692-.331,1.857-2.547,1.857a4.022,4.022,0,0,1-3.455-1.55l-2.3,1.594c1.343,1.713,3.188,2.478,5.967,2.478" transform="translate(280.362 52.005)" fill="#231815"/>
      <path id="パス_88503" data-name="パス 88503" d="M249.052,58.889h3.027V43.253h-3.027v6.282h-7.164V43.253h-3.025V58.889h3.025V52.058h7.164Z" transform="translate(287.812 52.117)" fill="#231815"/>
      <rect id="長方形_10032" data-name="長方形 10032" width="3.025" height="15.635" transform="translate(543.644 95.37)" fill="#231815"/>
      <path id="パス_88504" data-name="パス 88504" d="M259.43,58.889h2.542V43.253h-2.864V53.383l-6.957-10.129h-2.518V58.889H252.5V48.9Z" transform="translate(300.79 52.117)" fill="#231815"/>
      <path id="パス_88505" data-name="パス 88505" d="M233.132,52.491l-2.9,6.011-2.877-6.011h-3.506l4.871,9.239v6.4h3.025v-6.4l4.868-9.239Z" transform="translate(269.721 63.248)" fill="#231815"/>
      <path id="パス_88506" data-name="パス 88506" d="M236.557,68.332c3.859,0,5.984-2.32,5.984-6.533V52.492h-3.027v9.329c0,2.758-.911,3.989-2.957,3.989s-2.957-1.23-2.957-3.989V52.492h-3.027v9.329c0,5.664,3.751,6.511,5.984,6.511" transform="translate(277.823 63.249)" fill="#231815"/>
      <path id="パス_88507" data-name="パス 88507" d="M242.5,61.384l4.077,6.743H250.2l-5.724-9.336,4.763-6.3H245.66l-5.135,7.02v-7.02H237.5V68.126h3.027V63.992Z" transform="translate(286.166 63.248)" fill="#231815"/>
      <path id="パス_88508" data-name="パス 88508" d="M247.18,55.036h6.648V52.491h-9.673V68.127h9.673V65.6H247.18V61.293h5.96v-2.52h-5.96Z" transform="translate(294.188 63.248)" fill="#231815"/>
      <path id="パス_88509" data-name="パス 88509" d="M227,65.284V52.491h-3.027V65.284c0,2.6-.71,3.667-2.452,3.667h-1.9v2.522h2.11c3.548,0,5.272-2.024,5.272-6.189" transform="translate(264.621 63.248)" fill="#231815"/>
      <path id="パス_88510" data-name="パス 88510" d="M259.43,68.126h2.542V52.491h-2.864V62.62l-6.957-10.129h-2.518V68.126H252.5V58.136Z" transform="translate(300.79 63.248)" fill="#231815"/>
    </g>
  </g>
</svg>
