<svg id="レイヤー_1" data-name="レイヤー 1" xmlns="http://www.w3.org/2000/svg" viewBox="0 0 264 217"><defs><style>.cls-1{fill:#fff;}.cls-2{fill:#b49618;}</style></defs><rect class="cls-1" width="264" height="217"/><path d="M41.6,64.82a21.93,21.93,0,0,0-2.29-.1H30.4c-.85,0-1.63,0-2.31.1v-2a18.46,18.46,0,0,0,2.31.11h8.91a17.21,17.21,0,0,0,2.29-.11Z"/><path d="M47,59.55a8.87,8.87,0,0,1-1.53,1.69,6.48,6.48,0,0,0-1.13-1.09,6.14,6.14,0,0,0,1.79-1.87,4.51,4.51,0,0,0,.54-1.22l1.63.31c-.32.61-.32.61-.43.79H49.8a8.91,8.91,0,0,0,1.46-.09v1.24a5.54,5.54,0,0,0,1.34-2.22l1.51.41-.33.68h2.75a11.41,11.41,0,0,0,1.66-.09v1.55a11.94,11.94,0,0,0-1.58-.07H55.43a6,6,0,0,1,.59,1l-1.49.47a8.28,8.28,0,0,0-.74-1.52H53a8.82,8.82,0,0,1-.91,1.06,5.14,5.14,0,0,0-.06.77h3.4a11.79,11.79,0,0,0,1.65-.07v1.5a12.65,12.65,0,0,0-1.63-.09H52v1h4.4a13,13,0,0,0,1.75-.09V65.2a14.43,14.43,0,0,0-1.74-.09H55.09v1h1.19A14.73,14.73,0,0,0,58,66v1.55a14.5,14.5,0,0,0-1.77-.09H55.09v2.09c0,.72-.23,1.11-.78,1.31a6.23,6.23,0,0,1-1.78.15L51.4,71A6.13,6.13,0,0,0,51,69.41a14.93,14.93,0,0,0,1.88.11c.54,0,.66-.06.66-.36v-1.7H48.58a15.25,15.25,0,0,1,2.08,2l-1.35,1a10.73,10.73,0,0,0-2.08-2.12l1.13-.87H46.52a14,14,0,0,0-1.75.09V66a14.49,14.49,0,0,0,1.73.09h7v-1H46.43a15.27,15.27,0,0,0-1.76.09V63.63a12.54,12.54,0,0,0,1.73.09h4v-1H47.51a13.51,13.51,0,0,0-1.65.08V61.33a12.37,12.37,0,0,0,1.67.07h2.9a3.47,3.47,0,0,0-.09-.87h1.1a4,4,0,0,0-.79-.65c.15-.13.21-.18.33-.3l-.82,0H49.4a6.64,6.64,0,0,1,.52,1.07l-1.47.45a7.65,7.65,0,0,0-.62-1.52Z"/><path d="M62.7,59a12.94,12.94,0,0,0-.09-1.73h1.73A11.25,11.25,0,0,0,64.25,59V61h.34a5.43,5.43,0,0,0,1-.06v1.58a6.18,6.18,0,0,0-1-.06h-.29v4.09c.59-.27.76-.34,1.43-.69l0,1.6A25.74,25.74,0,0,1,62,69.1a7.26,7.26,0,0,0-.78.33l-.32-1.73a8.11,8.11,0,0,0,1.79-.54V62.43h-.34a6.28,6.28,0,0,0-1.18.07V60.89a5.88,5.88,0,0,0,1.18.08h.34Zm5.41,9.6c0,.3.1.4.44.46a11,11,0,0,0,2,.11c1.8,0,2.28-.08,2.5-.39a3.46,3.46,0,0,0,.28-1.8,7.23,7.23,0,0,0,1.64.5c-.18,3-.5,3.22-4.79,3.22-3,0-3.71-.28-3.71-1.61V63.93a1.74,1.74,0,0,1-.3.09,7.26,7.26,0,0,0-.92.35l-.37-1.64a9.6,9.6,0,0,0,1.46-.33l.13,0V60.29a9.21,9.21,0,0,0-.09-1.6H68.2a11.62,11.62,0,0,0-.09,1.54v1.64l1.46-.47V58.78a10.57,10.57,0,0,0-.08-1.5h1.75a12.23,12.23,0,0,0-.09,1.53v2.11l2.17-.68a8.68,8.68,0,0,0,1.23-.45c0,.66,0,.77-.07,1.58a28.41,28.41,0,0,1-.33,4.14c-.2.86-.6,1.12-1.7,1.12-.2,0-.33,0-.71,0a4.44,4.44,0,0,0-.41-1.55,4.63,4.63,0,0,0,.85.12c.37,0,.46-.06.52-.38a26.36,26.36,0,0,0,.18-2.89l-1.73.54v3.75a11,11,0,0,0,.09,1.51H69.49a11.44,11.44,0,0,0,.08-1.55V63l-1.46.47Z"/><path d="M78.67,59a19,19,0,0,0,3.5.19,5.81,5.81,0,0,0,.6-1.86l2,.21a11.46,11.46,0,0,0-.6,1.35,2.35,2.35,0,0,1-.13.27l.94-.06a20.07,20.07,0,0,0,4-.51L89,60.29c-.43,0-.43,0-1.19.12-1.1.13-3,.25-4.54.3a7.47,7.47,0,0,1-1.38,2v0a2.55,2.55,0,0,0,.3-.22,3.61,3.61,0,0,1,2.13-.68,2,2,0,0,1,2.15,1.6c1.16-.43,1.93-.7,2.31-.82a4.46,4.46,0,0,0,1.11-.45l.71,1.73a12.45,12.45,0,0,0-1.67.41c-.22.06-1,.32-2.26.77v.16c0,.39,0,.39,0,.6v.61c0,.25,0,.39,0,.49a6.17,6.17,0,0,0,0,.8L85,67.79a10.43,10.43,0,0,0,.1-1.75v-.36a10.3,10.3,0,0,0-1.45.78,1.57,1.57,0,0,0-.78,1.24c0,.78.72,1.1,2.54,1.1a13,13,0,0,0,4.43-.64l.15,2a3.84,3.84,0,0,0-.69.06,28.28,28.28,0,0,1-3.86.27,6.52,6.52,0,0,1-3.36-.63,2.21,2.21,0,0,1-1.1-2,2.38,2.38,0,0,1,.67-1.67,7.34,7.34,0,0,1,3.23-2.12.82.82,0,0,0-.91-.82,5.07,5.07,0,0,0-3.09,1.56,6.54,6.54,0,0,0-1.31,1.37l-1.37-1.36a8.79,8.79,0,0,0,1.35-1.34,19.56,19.56,0,0,0,1.81-2.57.58.58,0,0,1,.12-.2H81.2l-1.89,0h-.67Z"/><path d="M100.11,63.65a7.71,7.71,0,0,0,1.65-5.26,8.54,8.54,0,0,0-.07-.86,13.6,13.6,0,0,0,1.68.08h2.69a11.45,11.45,0,0,0,1.66-.08,7.2,7.2,0,0,0-.06,1.12c0,1.17-.15,3.08-.24,3.79a2.77,2.77,0,0,1-.59,1.67c-.29.3-.78.42-1.7.42-.21,0-.35,0-1.1,0a3.41,3.41,0,0,0-.29-1.4,6.78,6.78,0,0,0,1.27.13c.59,0,.71-.09.8-.66h-3.18a5.9,5.9,0,0,1-1.48,2.35h4.31a11.7,11.7,0,0,0,1.69-.09v1.49a12.7,12.7,0,0,0-1.69-.07h-3.67V67h2.95a8.67,8.67,0,0,0,1.52-.07v1.51a9.39,9.39,0,0,0-1.52-.08h-2.95v.93h4.33a12,12,0,0,0,1.7-.09v1.55a17.7,17.7,0,0,0-1.86-.09H96.17a18.34,18.34,0,0,0-1.85.09V69.17a9.42,9.42,0,0,0,1.68.09h4.14v-.93H97.43a9.59,9.59,0,0,0-1.53.08V66.9a9.94,9.94,0,0,0,1.53.07h2.71v-.73H96.69a10.41,10.41,0,0,0-1.68.07V64.82a12,12,0,0,0,1.68.09h4.16A4.1,4.1,0,0,0,99.69,64l.35-.32c-.86.08-1.61.12-2.23.12-1.91,0-2.46-.27-2.46-1.23V59.93a6.58,6.58,0,0,0-1,.07V58.42a9,9,0,0,0,1.43.08H97v-.26a8.47,8.47,0,0,0-.07-1.1h1.73a5.8,5.8,0,0,0-.08,1.08v.28h1a9.2,9.2,0,0,0,1.43-.08V60a9.63,9.63,0,0,0-1.43-.07H96.91v2c0,.36.12.41,1.14.41a15.53,15.53,0,0,0,2.06-.18Zm3-2.9a7.22,7.22,0,0,1-.15.73h3c0-.32,0-.32.06-.73Zm3-1.74h-2.78c0,.31,0,.42,0,.65H106Z"/><path d="M118.48,60.65a2.23,2.23,0,0,0-.45.06,19.43,19.43,0,0,1-2.24.29c0,1,0,1.11,0,1.59a2,2,0,0,1,.72,1.67,3,3,0,0,1-.34,1.43,7,7,0,0,1-.51.85,2.69,2.69,0,0,0-.55,1.37c0,.59.73.83,2.46.83a10.74,10.74,0,0,0,2.48-.29c.82-.2,1.15-.57,1.15-1.29a5.29,5.29,0,0,0-.33-1.74,9.13,9.13,0,0,0-.38-1,6.4,6.4,0,0,0,2,.48,5.16,5.16,0,0,1,.13.51l.17.59a5.68,5.68,0,0,1,.21,1.51,2.25,2.25,0,0,1-1.18,2.21,6,6,0,0,1-2.33.62,17.91,17.91,0,0,1-2.17.13,7.43,7.43,0,0,1-3.07-.49,1.68,1.68,0,0,1-1-1.63,2.35,2.35,0,0,1,.43-1.34h0a.77.77,0,0,1-.45.13,1.85,1.85,0,0,1-1.52-.87,2.81,2.81,0,0,1-.36-1.41,2.61,2.61,0,0,1,2.6-2.62h.17c0-.11,0-.35,0-.68V61h-1c-.41,0-.73,0-1.17,0h-.57l0-1.66a8.06,8.06,0,0,0,2.08.17h.64a1.33,1.33,0,0,1,0-.32v-.55a5.73,5.73,0,0,0-.08-1.15l1.92,0a4.73,4.73,0,0,0-.14,1,2.79,2.79,0,0,0,0,.51c0,.13,0,.18,0,.36a12.36,12.36,0,0,0,2.58-.45ZM114,63.51a1.16,1.16,0,0,0-1,1.21c0,.58.32,1,.82,1a1.18,1.18,0,0,0,1.07-1.25c0-.59-.24-.87-.79-.9Zm6.89-4.88a16.27,16.27,0,0,1,3.43,3.4l-1.45,1.16a13.53,13.53,0,0,0-3.34-3.52Z"/><path d="M132.9,68.16a4.48,4.48,0,0,1-.12,1.28,1.32,1.32,0,0,1-1.38.88,4.68,4.68,0,0,1-2.85-1.07,2.23,2.23,0,0,1-.83-1.7,3.21,3.21,0,0,1,1.3-2.23,7.82,7.82,0,0,1,2.2-1.28l0-2.32-.62,0h-1.64l-.38,0a2,2,0,0,0-.31,0l0-1.69a9.26,9.26,0,0,0,1.83.14,5.07,5.07,0,0,0,.52,0h.6v-1a9.79,9.79,0,0,0-.09-1.73H133a8.81,8.81,0,0,0-.09,1.64v1a16.07,16.07,0,0,0,2.9-.58l.06,1.69-1.59.27c-.5.09-.8.14-1.37.2v2a10.13,10.13,0,0,1,3.07-.43c2.51,0,4.31,1.54,4.31,3.68a3.34,3.34,0,0,1-3.42,3.43,2.42,2.42,0,0,1-2.47-1.67,4.94,4.94,0,0,1-.26-1.93,6.07,6.07,0,0,0,1.67-.66,5.24,5.24,0,0,0,0,.66A2.93,2.93,0,0,0,136,68a1,1,0,0,0,.95.51,1.55,1.55,0,0,0,1.52-1.67c0-1.3-1.05-2.14-2.66-2.14a9.71,9.71,0,0,0-2.89.5Zm-1.7-2.42c-1.13.6-1.79,1.26-1.79,1.81a.84.84,0,0,0,.49.69,1.85,1.85,0,0,0,1,.33c.26,0,.33-.13.33-.63Zm8.34-3a12.92,12.92,0,0,0-3-3.26L138,58.5a12.7,12.7,0,0,1,3,3.08Z"/><path d="M147.59,64.34c-.06.21-.07.24-.18.66a24.26,24.26,0,0,1-1.35,3.83c-.06.12-.26.46-.57,1a5.87,5.87,0,0,0-1.62-1,9.57,9.57,0,0,0,1.21-2.39,13.72,13.72,0,0,0,.77-2.67Zm6.06-3.65a3.57,3.57,0,0,0-1.28.55c-1,.6-1.49,1.25-1.49,1.8a1.43,1.43,0,0,0,.13.55c.15.3.21.36,1.12,1.32a5.87,5.87,0,0,1,1,1.43,3.49,3.49,0,0,1,.3,1.33,2.7,2.7,0,0,1-1,2.06,3,3,0,0,1-2,.66,5.19,5.19,0,0,1-3.17-1.17,7.77,7.77,0,0,0,.42-1.82,4.08,4.08,0,0,0,2.59,1.23,1.06,1.06,0,0,0,1.18-1,1.9,1.9,0,0,0-.24-.84,4.89,4.89,0,0,0-.94-1.25,3.26,3.26,0,0,1-1.14-2.29,3,3,0,0,1,.83-2,4.48,4.48,0,0,1,1.08-.89l-.49-.06a11.12,11.12,0,0,1-3-.8l-.51-.17.66-1.68a8.82,8.82,0,0,0,2,.74,17.66,17.66,0,0,0,3.68.55h.3Zm1.67,2.81a15.46,15.46,0,0,1,1.49,2.65,13.83,13.83,0,0,1,1,2.56l-1.77.84a13.61,13.61,0,0,0-1-2.94,9.76,9.76,0,0,0-1.34-2.42Z"/><path d="M161.22,59.81a12,12,0,0,0,2,.13h.7a19.47,19.47,0,0,0,.28-2.31c0-.06,0-.15,0-.27l2,.18A8,8,0,0,0,165.9,59c-.07.42-.09.51-.15.86a12.67,12.67,0,0,0,2.58-.46l.07,1.74-.48.07a21.8,21.8,0,0,1-2.47.32c-.17.93-.54,2.53-.94,3.9a49.91,49.91,0,0,1-1.68,5l-1.9-.73a32.43,32.43,0,0,0,2.7-8.11l-.2,0h-.87l-.48,0h-.89Zm7.47,5.84a2.47,2.47,0,0,0-.79,1.66c0,.76.76,1.16,2.26,1.16a11.72,11.72,0,0,0,3.42-.56l.14,1.85c-.27,0-.39,0-.74.11a17.57,17.57,0,0,1-2.8.24,6.08,6.08,0,0,1-3-.61,2.15,2.15,0,0,1-1.07-1.85,4.24,4.24,0,0,1,1.12-2.6Zm4.47-2a14.81,14.81,0,0,0-1.9-.11,16.28,16.28,0,0,0-4,.44l-.14-1.66a19.14,19.14,0,0,1,4.49-.48h1.49Z"/><path d="M181.69,57.5a15.35,15.35,0,0,0-.54,2.91c-.11.63-.17,1.14-.2,1.5H181a3.29,3.29,0,0,0,.09-.33,6.11,6.11,0,0,1,.95-1.79,3.61,3.61,0,0,1,2.86-1.54,3.18,3.18,0,0,1,2.58,1.36,6.33,6.33,0,0,1,1.08,4,6.35,6.35,0,0,1-3.89,6.19,13.25,13.25,0,0,1-2.95.84,5.59,5.59,0,0,0-.89-1.78,8.62,8.62,0,0,0,3.3-.86c1.75-.88,2.55-2.32,2.55-4.6S186,60,184.66,60a2.27,2.27,0,0,0-1.63.8,7.23,7.23,0,0,0-1.89,4.86V66l-1.81,0a1.72,1.72,0,0,0,0-.2v-.28c0-.44,0-1.55,0-1.85,0-1.22.09-2.89.21-3.93l.22-1.87a3.76,3.76,0,0,0,.05-.51Z"/><path d="M199.68,64.66a9.38,9.38,0,0,0-1.38.07v-1a6.09,6.09,0,0,0-.59,1.33,7.61,7.61,0,0,1-.77-1.68c0,.92.05,1.66.05,2.1v3.82a14.74,14.74,0,0,0,.09,1.84h-1.7a15.19,15.19,0,0,0,.09-1.84V66.15c0-1.13.06-1.84.09-2.1A12,12,0,0,1,194,67.62a7.8,7.8,0,0,0-.77-1.85,8.84,8.84,0,0,0,1.43-2.56,11.17,11.17,0,0,0,.58-1.87h-.61a6.64,6.64,0,0,0-1,.06V59.84a6.28,6.28,0,0,0,1,.06h.82V58.69a9.39,9.39,0,0,0-.09-1.56h1.7a8.23,8.23,0,0,0-.09,1.56V59.9h.4a4.93,4.93,0,0,0,.86-.06v1.55a7.57,7.57,0,0,0-.87,0h-.33a6,6,0,0,0,1.25,2v-.14a10.58,10.58,0,0,0,1.53.08h1.83v-.83h-1.39a10.32,10.32,0,0,0-1.42.06V61.13a10.27,10.27,0,0,0,1.39.06h1.42v-.78H200a9.33,9.33,0,0,0-1.43.07V59a9.79,9.79,0,0,0,1.43.08h.21a6.39,6.39,0,0,0-.85-1.46l1.41-.48a10.24,10.24,0,0,1,1,1.94h1.34a7.77,7.77,0,0,0,.9-1.94l1.61.43a15.16,15.16,0,0,1-.87,1.51h.74A10.68,10.68,0,0,0,207,59v1.5a10.53,10.53,0,0,0-1.49-.07h-2.3v.78h1.85a9.8,9.8,0,0,0,1.5-.07v1.44a9.58,9.58,0,0,0-1.5-.07h-1.85v.83h2.44a11.57,11.57,0,0,0,1.56-.1v1.53a13,13,0,0,0-1.56-.09h-2.34a6,6,0,0,0,.95,1.76,7.75,7.75,0,0,0,1.39-1.66l1.23.87a12.17,12.17,0,0,1-1.72,1.84,7.79,7.79,0,0,0,2.4,1.61,6.94,6.94,0,0,0-1,1.49,8.52,8.52,0,0,1-1.8-1.43,7.67,7.67,0,0,1-1.61-2.45c0,.68,0,.8,0,1.08v2.1c0,.85-.48,1.16-1.88,1.16-.23,0-.65,0-1.09,0a3.94,3.94,0,0,0-.4-1.52,6.45,6.45,0,0,0,1.43.13c.31,0,.41-.07.41-.34V67.83a20.82,20.82,0,0,1-2.9,1.92c-.12.07-.42.28-.64.43l-.62-1.61a6.91,6.91,0,0,0,1.23-.5,18.1,18.1,0,0,0,2.93-1.76V64.66Zm-.34.12a8.84,8.84,0,0,1,1.5,1.7l-1.11.84a10,10,0,0,0-1.45-1.72Z"/><path d="M210.08,64.75c.65-.46,1.3-1.19,3.29-3.69a4.17,4.17,0,0,1,.93-1,1.87,1.87,0,0,1,2.56.12,9.92,9.92,0,0,1,1,1.08,48.66,48.66,0,0,0,4.5,4.61A10.21,10.21,0,0,0,224,67.19l-.92,2.13a2.9,2.9,0,0,0-.43-.43c-.79-.7-2-1.82-3.07-2.92s-1.18-1.22-2.79-3.06c-.93-1.07-1-1.15-1.31-1.15s-.39.14-.9.82a45.34,45.34,0,0,1-3,3.64,2.29,2.29,0,0,0-.32.41Z"/><path d="M233.16,66.3c-.86,1.94-1.82,2.83-3,2.83-1.72,0-3-1.75-3-4.17a6.49,6.49,0,0,1,1.66-4.39,6.78,6.78,0,0,1,5.18-2.1c3.62,0,6,2.19,6,5.58a5.8,5.8,0,0,1-3.66,5.62,10,10,0,0,1-2.37.63,4.7,4.7,0,0,0-.92-1.76,7.93,7.93,0,0,0,3-.83A4.2,4.2,0,0,0,238.1,64a3.73,3.73,0,0,0-1.85-3.35,3.32,3.32,0,0,0-1.52-.45A21.74,21.74,0,0,1,233.16,66.3ZM231,60.91a5,5,0,0,0-2,4.06c0,1.24.53,2.22,1.19,2.22.5,0,1-.64,1.55-1.93a20,20,0,0,0,1.25-5.09A3.81,3.81,0,0,0,231,60.91Z"/><path d="M29.31,89.82a10.21,10.21,0,0,0-1.37.06V88.26a7.18,7.18,0,0,0,1.4.08h.36A6.34,6.34,0,0,0,29,86.56l1.33-.33h-.71a13.11,13.11,0,0,0-1.42.06V84.68a8.69,8.69,0,0,0,1.45.08h1.14v-.23a5.91,5.91,0,0,0-.07-1.1h1.82a5.61,5.61,0,0,0-.07,1.1v.23h1a8.16,8.16,0,0,0,1.4-.08v1.61a13.24,13.24,0,0,0-1.42-.06H32.9l1.28.36-.23.53a3.08,3.08,0,0,0-.26.56,4.49,4.49,0,0,1-.33.66h.3a7.31,7.31,0,0,0,1.39-.08v1.62a10.63,10.63,0,0,0-1.39-.06H32.44v1.07H33.6A8.21,8.21,0,0,0,35,90.81v1.58a12.1,12.1,0,0,0-1.37-.06h-.55a6.75,6.75,0,0,0,1.55,1.33,8.33,8.33,0,0,0-.72,1.43,7.56,7.56,0,0,1-1.48-1.63l0,.59s0,.51,0,.59v1.5a6.25,6.25,0,0,0,.1,1.25H30.8a8.05,8.05,0,0,0,.08-1.19V94.7c0-.29,0-.68,0-1a7.55,7.55,0,0,1-2.48,2.79,5.56,5.56,0,0,0-.77-1.54,7.8,7.8,0,0,0,2.64-2.59h-1a8.29,8.29,0,0,0-1.37.08v-1.6a8.16,8.16,0,0,0,1.4.08h1.52V89.82Zm1.16-3.59A7,7,0,0,1,31.12,88l-1.34.36h2.06a8.56,8.56,0,0,0,.85-2.11Zm10.06,1.82A7.48,7.48,0,0,0,41.9,88v1.68a7.77,7.77,0,0,0-1.2-.06h-.38v6.06a11,11,0,0,0,.09,1.78H38.65a11.36,11.36,0,0,0,.09-1.78V89.58H37.13a19.93,19.93,0,0,1-.56,4.86,9.28,9.28,0,0,1-1.34,3,6.82,6.82,0,0,0-1.49-1c1.43-1.74,1.81-3.72,1.81-9.43a18.35,18.35,0,0,0-.09-2.34,12.27,12.27,0,0,0,5.07-1.29l1.24,1.47a5.23,5.23,0,0,0-.5.16,20.84,20.84,0,0,1-4.13,1v2Z"/><path d="M45.3,86.14a11.9,11.9,0,0,0,2,.14l.69,0A17.51,17.51,0,0,0,48.3,84a1.53,1.53,0,0,0,0-.27l2,.18A7.53,7.53,0,0,0,50,85.31c-.07.42-.09.52-.15.86a12,12,0,0,0,2.58-.45l.07,1.73-.48.08a19.49,19.49,0,0,1-2.47.31c-.16.94-.54,2.53-.93,3.9-.44,1.57-.7,2.32-1.69,5L45,96a32.22,32.22,0,0,0,2.7-8.1H46.16c-.27,0-.48,0-.61,0a1.63,1.63,0,0,0-.28,0ZM52.77,92A2.52,2.52,0,0,0,52,93.64c0,.77.75,1.16,2.26,1.16a11.38,11.38,0,0,0,3.41-.56l.14,1.86c-.27,0-.39,0-.74.1a17.57,17.57,0,0,1-2.8.24,6.11,6.11,0,0,1-3-.6A2.2,2.2,0,0,1,50.16,94a4.26,4.26,0,0,1,1.12-2.61Zm4.47-2a16.77,16.77,0,0,0-1.9-.1,16.26,16.26,0,0,0-4,.43l-.14-1.65a19.21,19.21,0,0,1,4.49-.49l1.49,0Z"/><path d="M67,83.85a7.91,7.91,0,0,0-.24,1c-.08.36-.15.66-.32,1.33a12.47,12.47,0,0,0,2.41-.43l0,1.74a2.27,2.27,0,0,0-.48.07c-.55.09-1.47.2-2.4.27a28.87,28.87,0,0,1-1.66,4.37c-.34.74-.48,1-1.05,2.06l-.29.55-1.73-1a13.29,13.29,0,0,0,1.46-2.41,22.46,22.46,0,0,0,1.42-3.55H62.57l-.8,0V86.16a10.93,10.93,0,0,0,2,.13h.77A15.08,15.08,0,0,0,65,83.66Zm6.82,12.2a9.15,9.15,0,0,0-2.3-1.87c0,.14,0,.24,0,.3a2.42,2.42,0,0,1-.65,1.6,3.49,3.49,0,0,1-2.5.84c-2,0-3.28-1-3.28-2.53s1.34-2.59,3.25-2.59a7.15,7.15,0,0,1,1.4.14c0-.69-.08-1.28-.08-1.73a7.9,7.9,0,0,1,.13-1.52l1.74.09a5,5,0,0,0-.18,1.52,15.3,15.3,0,0,0,.14,2.06,9.5,9.5,0,0,1,2.38,1.39c.22.15.28.21.52.4a2.09,2.09,0,0,0,.23.21Zm-5.34-2.76c-1,0-1.62.41-1.62,1s.55,1,1.48,1,1.52-.42,1.52-1.26c0-.15,0-.51,0-.51A3.84,3.84,0,0,0,68.43,93.29Zm5.42-4.17A18.63,18.63,0,0,0,69.51,87l.9-1.46a24.08,24.08,0,0,1,4.25,2Z"/><path d="M81,94.12a2.32,2.32,0,0,0,1.87,1.34,5.33,5.33,0,0,0-1-1,6.15,6.15,0,0,0,2.28-1.17H82.48a5.17,5.17,0,0,0-1.15.08V91.94a5.76,5.76,0,0,0,1.15.07h1.13v-.93h-.33a11.29,11.29,0,0,0-1.4.06V89.82a10.74,10.74,0,0,0,1.4.06h.32c0-.37,0-.52-.06-.77H85.2a7.12,7.12,0,0,0-.06.77h2c0-.37,0-.52-.06-.77h1.65a5.08,5.08,0,0,0-.07.77h.8a11.07,11.07,0,0,0,1.4-.06v1.32a11.67,11.67,0,0,0-1.42-.06h-.78V92h1.16A10,10,0,0,0,91.3,92v1.36a10.38,10.38,0,0,0-1.45-.06H88.24a7.66,7.66,0,0,0,2.8,1,5.62,5.62,0,0,0-.87,1.15c.4,0,.4,0,1.53-.18A6.85,6.85,0,0,0,91.25,97c-1.32.06-3.25.09-5.18.09a13.32,13.32,0,0,1-4-.32,3.6,3.6,0,0,1-1.85-1.37,16.12,16.12,0,0,1-1.46,1.27l-.68.54-.74-1.72A7.66,7.66,0,0,0,79.44,94V90.78h-.78a4.81,4.81,0,0,0-1,.08V89.23a7,7,0,0,0,1.21.07h1.08a7.39,7.39,0,0,0,1.13-.06,13.5,13.5,0,0,0,0,1.63Zm-2.09-10.4a16.29,16.29,0,0,1,2.3,2.41L80,87.35a12,12,0,0,0-2.25-2.5Zm6.88,2.33a5.9,5.9,0,0,0,0,.81c-.37,0-.6,0-1,0H83v.45c0,.32,0,.35.65.35,1.17,0,1.19,0,1.23-.71a3.38,3.38,0,0,0,1.24.48c-.09.83-.24,1.13-.65,1.28a6.76,6.76,0,0,1-2,.14c-1.56,0-1.85-.15-1.85-1V86.56a7.52,7.52,0,0,0,0-.89,8.41,8.41,0,0,0,1,0h1.79V85.1H82.64a9.31,9.31,0,0,0-1.22.06V83.84a10.5,10.5,0,0,0,1.23.06h1.87a11.58,11.58,0,0,0,1.32-.05,5.45,5.45,0,0,0,0,.83Zm-.15,7.8a7.42,7.42,0,0,1-2.45,1.66c.72.07,1.58.1,2.6.1s2.43,0,3.8-.12a8,8,0,0,1-2.85-1.61l.92-.63h-3ZM85.14,92h2v-.93h-2Zm5.72-6a6.05,6.05,0,0,0,0,.81c-.38,0-.6,0-1,0H88v.45c0,.21,0,.26.14.3a2.06,2.06,0,0,0,.69.06c1.09,0,1.11,0,1.14-.74a4.32,4.32,0,0,0,1.33.5c-.12.83-.23,1.09-.56,1.24a6.36,6.36,0,0,1-2.07.18A4.31,4.31,0,0,1,87,88.66c-.32-.14-.44-.4-.44-.86V86.64c0-.62,0-.62,0-.65s0-.16,0-.32a8.34,8.34,0,0,0,1,0h1.8V85.1H87.71a9.42,9.42,0,0,0-1.22.06V83.84a10.93,10.93,0,0,0,1.24.06h1.83a11.67,11.67,0,0,0,1.33-.05,5.68,5.68,0,0,0,0,.83Z"/><path d="M95.58,87.77a9.53,9.53,0,0,0-1.2.07V86.23a5.72,5.72,0,0,0,1.23.09h.66V85a7.66,7.66,0,0,0-.09-1.5h1.76a8.47,8.47,0,0,0-.09,1.5v1.28h.62a5.42,5.42,0,0,0,1-.07v1.58a6.71,6.71,0,0,0-1-.06h-.62v2.32c.46-.15.67-.23,1.54-.55V91c-.71.29-.92.36-1.54.57v4.27A1.24,1.24,0,0,1,97.36,97a2.89,2.89,0,0,1-1.6.28c-.33,0-.59,0-1.1-.05a5.83,5.83,0,0,0-.34-1.6,11.35,11.35,0,0,0,1.5.11c.36,0,.45-.09.45-.45V92.12l-1.22.39c-.19.06-.25.09-.48.18L94.26,91a10,10,0,0,0,2-.45v-2.8Zm6,2.48c-.2,3.41-.83,5.24-2.4,7.07A7.57,7.57,0,0,0,97.93,96a6.61,6.61,0,0,0,1.58-2.58c.42-1.28.57-3.12.57-6.91,0-1.22,0-1.73-.06-2.4a15.45,15.45,0,0,0,1.7.06h4a13.59,13.59,0,0,0,1.61-.06,15.9,15.9,0,0,0-.06,1.61v3c0,.91,0,1.19,0,1.6-.42,0-.8,0-1.31,0H104.9a8,8,0,0,0,.65,2.68,6.94,6.94,0,0,0,2.53,2.88,7.41,7.41,0,0,0-1.16,1.6,9.22,9.22,0,0,1-2.72-3.65,11.61,11.61,0,0,1-.82-3.51Zm4-1.52V85.67h-3.93v1c0,.54,0,.7,0,2.11Z"/><path d="M115.83,95.76A11.1,11.1,0,0,0,119.1,94a12.67,12.67,0,0,1-2-3.62l-.59.06V88.79a12,12,0,0,0,1.55.08h1.33V87.08H118a13.69,13.69,0,0,0-1.68.08V85.45a12.28,12.28,0,0,0,1.64.09h1.43v-.45a11,11,0,0,0-.08-1.52H121a9.51,9.51,0,0,0-.08,1.52v.45h1.9a13.19,13.19,0,0,0,1.72-.09v1.71a12.75,12.75,0,0,0-1.66-.08h-2v1.79H122a6.32,6.32,0,0,0,1.06-.06l.83.92a5.33,5.33,0,0,0-.31.7A12.72,12.72,0,0,1,121.37,94,10.7,10.7,0,0,0,125,95.78a11.63,11.63,0,0,0-1,1.64,15.29,15.29,0,0,1-2.2-1.13,12.25,12.25,0,0,1-1.52-1.16,13,13,0,0,1-3.71,2.22,5.32,5.32,0,0,0-.7-1.31,1.12,1.12,0,0,1-.38.95c-.27.22-.65.28-1.64.28h-.47a5.45,5.45,0,0,0-.33-1.58,6.59,6.59,0,0,0,.92.12c.36,0,.45-.08.45-.39V92.59h-1.48a18.51,18.51,0,0,1-.33,2.59,6.74,6.74,0,0,1-.89,2.32,4.35,4.35,0,0,0-1.22-1.36,6.82,6.82,0,0,0,.83-2.68,56.66,56.66,0,0,0,.29-7.32,20.43,20.43,0,0,0-.09-2.17,11.6,11.6,0,0,0,1.59.08h1.39a8.66,8.66,0,0,0,1.42-.08,9.05,9.05,0,0,0,0,1.4ZM113,89.09l0,2.07h1.39V89.09Zm1.36-3.52H113v2.09h1.33Zm4.35,4.76a8.37,8.37,0,0,0,1.49,2.59,8,8,0,0,0,1.66-2.59Z"/><path class="cls-2" d="M36.32,172H31.87v7h4.68a3.84,3.84,0,0,0,2.62-.93,3.19,3.19,0,0,0,1.13-2.51A3.34,3.34,0,0,0,39.23,173,4.1,4.1,0,0,0,36.32,172Zm2,5.3a2.31,2.31,0,0,1-1.73.68H33v-4.93h3.38a2.64,2.64,0,0,1,1.9.69,2.41,2.41,0,0,1,.72,1.82A2.35,2.35,0,0,1,38.37,177.3Z"/><path class="cls-2" d="M53.34,176.48a1.4,1.4,0,0,1-.71,1.26,5.23,5.23,0,0,1-4.2,0,1.39,1.39,0,0,1-.72-1.26V172H46.54v4.76a2.07,2.07,0,0,0,1.07,1.78,5.37,5.37,0,0,0,2.92.7,5.31,5.31,0,0,0,2.91-.7,2,2,0,0,0,1.06-1.78V172H53.34Z"/><path class="cls-2" d="M66.75,172H61.18v7h1.16v-2.68h4.19a2.9,2.9,0,0,0,1.91-.55,2,2,0,0,0,.65-1.61,2.08,2.08,0,0,0-.63-1.59A2.38,2.38,0,0,0,66.75,172Zm-.2,3.3H62.34v-2.25h4.13c1,0,1.43.39,1.43,1.16S67.45,175.3,66.55,175.3Z"/><polygon class="cls-2" points="34.91 182.27 32.41 182.27 32.41 181 31.9 181 31.9 184.12 32.41 184.12 32.41 182.73 34.91 182.73 34.91 184.12 35.42 184.12 35.42 181 34.91 181 34.91 182.27"/><rect class="cls-2" x="41.62" y="181" width="0.52" height="3.12"/><polygon class="cls-2" points="48.85 181 48.33 181 48.33 184.12 51.25 184.12 51.25 183.65 48.85 183.65 48.85 181"/><polygon class="cls-2" points="57.53 181 57.01 181 57.01 184.12 59.94 184.12 59.94 183.65 57.53 183.65 57.53 181"/><path class="cls-2" d="M68.65,182.56a1.84,1.84,0,0,0-.86-.29l-.86-.07a2.41,2.41,0,0,1-.63-.1Q66,182,66,181.8c0-.13.09-.23.25-.31a2,2,0,0,1,.74-.11,3.16,3.16,0,0,1,1.41.35l.31-.34a2.89,2.89,0,0,0-1.68-.47,2.19,2.19,0,0,0-1.16.26.78.78,0,0,0-.42.69.63.63,0,0,0,.37.61,3.06,3.06,0,0,0,1.08.2,9.35,9.35,0,0,1,1.06.11c.26.07.38.2.38.4a.44.44,0,0,1-.29.4,1.91,1.91,0,0,1-.84.15,3,3,0,0,1-1.58-.45l-.28.38a2.91,2.91,0,0,0,1.85.52,2.41,2.41,0,0,0,1.26-.27.86.86,0,0,0,.44-.77A.69.69,0,0,0,68.65,182.56Z"/><path class="cls-2" d="M78.82,167.13c-1.87-.62-3.92-1.18-6.1-1.67V122.51H28.25v43q-3.29.73-6.11,1.67a139.2,139.2,0,0,1,28.34-2.7A139.13,139.13,0,0,1,78.82,167.13Zm-18.57-3.54c-.69-.05-1.38-.11-2.08-.15v-11h2.08Zm2.91.29c-.69-.07-1.38-.15-2.08-.21V152.43h2.08Zm2.91.37c-.68-.1-1.38-.19-2.08-.27V152.43h2.08Zm2.91.47c-.68-.12-1.38-.24-2.08-.34V152.43H69Zm2.91.56-2.08-.41V152.43h2.08Zm-2.08-41.94h2.08v13.72H69.81Zm-2.91,0H69v13.72H66.9Zm-2.91,0h2.08v13.72H64Zm-2.91,0h2.08v13.72H61.08Zm-2.91,0h2.08v13.72H58.17Zm-14.55,0H57.34v13.72H43.62Zm0,14.54H71.89V140H43.62Zm0,2.91H71.89v2.09H43.62Zm0,2.91H71.89v2.09H43.62Zm0,2.91H71.89v2.09H43.62Zm0,2.91H71.89v2.09H43.62ZM31.16,164.87l-2.09.41V123.34h2.09Zm2.91-.49c-.71.1-1.4.22-2.09.34V123.34h2.09ZM37,164c-.7.08-1.39.17-2.08.27V123.34H37Zm2.91-.31c-.7.06-1.39.14-2.08.21V123.34h2.08Zm2.91-.23c-.7,0-1.39.1-2.08.15V123.34h2.08Zm.83-11H57.34v11q-3.35-.19-6.86-.2t-6.86.2Z"/></svg>