<svg id="レイヤー_1" data-name="レイヤー 1" xmlns="http://www.w3.org/2000/svg" viewBox="0 0 70 26"><defs><style>.cls-1{fill:#231815;}.cls-2{fill:#fff;}</style></defs><rect class="cls-1" width="70" height="26"/><path class="cls-2" d="M14.12,16.87a10.6,10.6,0,0,1-.47,2.82l-.86-.39a8.56,8.56,0,0,0,.45-2.56Zm-1.28-1.44a2.37,2.37,0,0,0,.41,0h.39c.33-.4.37-.44.56-.69a8.58,8.58,0,0,0-1.32-1.41l.55-.79c.13.16.19.22.29.33a7.39,7.39,0,0,0,.8-1.54l.91.37-.2.34a11.78,11.78,0,0,1-.9,1.46l.41.47a10.15,10.15,0,0,0,1-1.66l.89.5a3.4,3.4,0,0,0-.32.44,24.78,24.78,0,0,1-1.63,2.14,8.86,8.86,0,0,0,1.1-.08,7,7,0,0,0-.28-.65l.72-.28A13.85,13.85,0,0,1,17,16.25l-.81.34c0-.22-.07-.3-.11-.45l-.69.07v3a6.78,6.78,0,0,0,.06,1H14.42a6.78,6.78,0,0,0,.06-1V16.29l-.91.07a6,6,0,0,0-.63.06Zm3.73,1.25A22.55,22.55,0,0,1,17,19.11l-.88.21a24.23,24.23,0,0,0-.37-2.45Zm1.61-2.89a6.52,6.52,0,0,1-1,1.5,3,3,0,0,0-.77-.77,6.13,6.13,0,0,0,1.14-1.9,5.48,5.48,0,0,0,.34-1.2l1.08.19-.12.39c-.13.39-.17.51-.28.8h2.1a7.29,7.29,0,0,0,.79,0,10.74,10.74,0,0,0,0,1.65A34.66,34.66,0,0,1,21.23,18c-.15,1.1-.32,1.62-.64,1.87a2.12,2.12,0,0,1-1.24.24c-.25,0-.55,0-.9,0A3.44,3.44,0,0,0,18.18,19a7.22,7.22,0,0,0,1.27.12c.43,0,.54-.11.65-.7a25.41,25.41,0,0,0,.31-4.59Zm.45,4a10.76,10.76,0,0,0-1.1-2.42l.84-.46a10.63,10.63,0,0,1,1.18,2.39Z"/><path class="cls-2" d="M26.49,15.93a2.18,2.18,0,0,0,.81,1.39,3.25,3.25,0,0,0,2.07.66c1.7,0,2.78-.86,2.78-2.2a2,2,0,0,0-1-1.78,4.44,4.44,0,0,0-2-.41,14.41,14.41,0,0,0-1.84.09v-2.1a13.42,13.42,0,0,0,1.67.08c1.71,0,2.73-.78,2.73-2.08S31,7.74,29.51,7.74a2.88,2.88,0,0,0-1.87.53,2.45,2.45,0,0,0-.72,1.31l-2.46-.41a4.26,4.26,0,0,1,1.63-2.43,5.71,5.71,0,0,1,3.37-.93c2.87,0,4.72,1.43,4.72,3.63A3.06,3.06,0,0,1,33,11.93a4.05,4.05,0,0,1-1.66.66,3.63,3.63,0,0,1,2.45,1.14,3.23,3.23,0,0,1,.83,2.34,3.57,3.57,0,0,1-1,2.47,6,6,0,0,1-4.22,1.38A5.39,5.39,0,0,1,25,18.31a4.52,4.52,0,0,1-1-1.9Z"/><path class="cls-2" d="M47.14,12.78a5.36,5.36,0,0,0,.8,0,8.05,8.05,0,0,0-.06,1.2c-.07,3.24-.19,4.68-.45,5.33s-.64.79-1.49.79c-.21,0-.45,0-.93-.05a2.26,2.26,0,0,0-.25-1.08,5.48,5.48,0,0,0,1.2.15c.38,0,.53-.2.64-.87a36.06,36.06,0,0,0,.28-4.51h-.12a11.84,11.84,0,0,1-1,3.45,8.07,8.07,0,0,1-2.51,2.92,2.34,2.34,0,0,0-.81-.78,6.75,6.75,0,0,0,2.51-2.7,10.32,10.32,0,0,0,.92-2.89h-.39a7.2,7.2,0,0,1-2.59,4.17,2.31,2.31,0,0,0-.71-.83,4,4,0,0,0,1.14-1,6.05,6.05,0,0,0,1.23-2.38h-.45a6.24,6.24,0,0,1-1.15,1.68,2.82,2.82,0,0,0-.8-.73,3.94,3.94,0,0,0,.46-.46h-.77V16a9.53,9.53,0,0,0,.91-.35v1l-.92.38v2.16a9.61,9.61,0,0,0,.06,1.1H40.73a7.36,7.36,0,0,0,.07-1.1v-1.8l-.87.3a2.86,2.86,0,0,0-.51.2l-.22-1.14a5.94,5.94,0,0,0,1.6-.37V14.19h-.49A10.42,10.42,0,0,1,40,15.73a3.14,3.14,0,0,0-.88-.52,5.44,5.44,0,0,0,.37-1.32,9.76,9.76,0,0,0,.12-1.34,2.82,2.82,0,0,0,0-.4l1,.1c0,.57,0,.62-.08,1h.37V12.15a4,4,0,0,0-.07-.79h1.14a4.62,4.62,0,0,0-.06.79v1.07H42a3.34,3.34,0,0,0,.63,0v.91a5.38,5.38,0,0,0,.68-1.25,5.59,5.59,0,0,0,.43-1.47l1.12.2c-.08.2-.08.2-.31.86l-.13.35Z"/><path class="cls-2" d="M50.37,16.35c0-.33,0-.63,0-1.05a5.68,5.68,0,0,1-.82,1.11,4,4,0,0,0-.43-1.18,8.27,8.27,0,0,0,1.66-2.7,6.31,6.31,0,0,0,.35-1.24l1.09.3c0,.15-.07.19-.16.43a11.64,11.64,0,0,1-.67,1.67v5.4c0,.43,0,.75,0,1.11H50.31a7.81,7.81,0,0,0,.06-1.12Zm4.24-3.87a5.64,5.64,0,0,0-.07-1h1.2a4.77,4.77,0,0,0-.07,1v.88h1.21a6.72,6.72,0,0,0,1-.06V14.4c-.43,0-.72-.06-1-.06H55.67v1.78h1.51a8,8,0,0,0,1.08-.06v1.1a8.67,8.67,0,0,0-1.06-.06H55.67v2a5.61,5.61,0,0,0,.07,1.1h-1.2a6.76,6.76,0,0,0,.07-1.1v-2H53a8,8,0,0,0-1.08.06v-1.1a7.7,7.7,0,0,0,1.08.06h1.65V14.34H53.28a6.64,6.64,0,0,1-.78,1.39,3.7,3.7,0,0,0-.86-.69,7.62,7.62,0,0,0,1-2,5,5,0,0,0,.3-1.21l1.06.27c-.07.22-.08.27-.17.57s-.14.42-.21.66h1Z"/></svg>