<svg id="レイヤー_1" data-name="レイヤー 1" xmlns="http://www.w3.org/2000/svg" viewBox="0 0 70 26"><defs><style>.cls-1{fill:#231815;}.cls-2{fill:#fff;}</style></defs><rect class="cls-1" width="70" height="26"/><path class="cls-2" d="M7.2,16.87a10.6,10.6,0,0,1-.47,2.82l-.86-.39a8.89,8.89,0,0,0,.45-2.56ZM5.92,15.43a2.37,2.37,0,0,0,.41,0h.39l.56-.69A8.25,8.25,0,0,0,6,13.35l.55-.79.29.33a6.53,6.53,0,0,0,.8-1.54l.92.37a2.32,2.32,0,0,0-.2.34,13.11,13.11,0,0,1-.9,1.46l.41.47a11.91,11.91,0,0,0,1-1.66l.89.5a3.4,3.4,0,0,0-.32.44A24.78,24.78,0,0,1,7.8,15.41a8.86,8.86,0,0,0,1.1-.08,7,7,0,0,0-.28-.65l.72-.28a14,14,0,0,1,.76,1.85l-.81.34c0-.22-.06-.3-.1-.45l-.69.07v3a6.78,6.78,0,0,0,.06,1H7.5a6.78,6.78,0,0,0,.06-1V16.29l-.91.07a5.68,5.68,0,0,0-.63.06Zm3.73,1.25a22.46,22.46,0,0,1,.46,2.43l-.87.21a24.23,24.23,0,0,0-.37-2.45Zm1.61-2.89a6.88,6.88,0,0,1-1,1.5,3,3,0,0,0-.78-.77,5.94,5.94,0,0,0,1.14-1.9,5.59,5.59,0,0,0,.35-1.2l1.08.19A2.74,2.74,0,0,0,12,12c-.13.39-.17.51-.28.8h2.1a7.29,7.29,0,0,0,.79,0,11.38,11.38,0,0,0-.05,1.65A34.89,34.89,0,0,1,14.31,18c-.15,1.1-.33,1.62-.65,1.87a2.08,2.08,0,0,1-1.23.24c-.25,0-.55,0-.9,0A3.74,3.74,0,0,0,11.26,19a7.14,7.14,0,0,0,1.27.12c.43,0,.54-.11.65-.7a25.41,25.41,0,0,0,.31-4.59Zm.45,4a10.76,10.76,0,0,0-1.1-2.42l.83-.46a10.67,10.67,0,0,1,1.19,2.39Z"/><path class="cls-2" d="M19.57,15.93a2.18,2.18,0,0,0,.8,1.39,3.3,3.3,0,0,0,2.08.66c1.7,0,2.78-.86,2.78-2.2a2,2,0,0,0-1-1.78,4.44,4.44,0,0,0-2-.41,14.31,14.31,0,0,0-1.84.09v-2.1a13.35,13.35,0,0,0,1.66.08c1.72,0,2.73-.78,2.73-2.08s-.8-1.84-2.26-1.84a2.88,2.88,0,0,0-1.87.53A2.39,2.39,0,0,0,20,9.58l-2.46-.41a4.21,4.21,0,0,1,1.63-2.43,5.69,5.69,0,0,1,3.37-.93c2.86,0,4.72,1.43,4.72,3.63a3.06,3.06,0,0,1-1.19,2.49,4.05,4.05,0,0,1-1.66.66,3.63,3.63,0,0,1,2.45,1.14,3.23,3.23,0,0,1,.83,2.34,3.57,3.57,0,0,1-1,2.47,6,6,0,0,1-4.23,1.38,5.4,5.4,0,0,1-4.36-1.61,4.52,4.52,0,0,1-1-1.9Z"/><path class="cls-2" d="M32.87,16.1a2.48,2.48,0,0,0,.52,1,2.88,2.88,0,0,0,4.93-1.94,2.55,2.55,0,0,0-2.7-2.73,3,3,0,0,0-2.13.78A1.89,1.89,0,0,0,33,14l-2.15-.21c.17-1.2.19-1.29.22-1.76l.4-4.2c0-.31.05-.89.07-1.73.51,0,.91,0,1.82,0h4.22A13.11,13.11,0,0,0,40,6V8.12A17,17,0,0,0,37.58,8h-4l-.27,3c0,.13-.05.37-.1.71a4.25,4.25,0,0,1,2.93-1,4.42,4.42,0,0,1,3.35,1.27,4.13,4.13,0,0,1,1.22,3.18c0,3-2,4.84-5.17,4.84a5,5,0,0,1-3.91-1.48,4.93,4.93,0,0,1-1.09-1.85Z"/><path class="cls-2" d="M53.3,12.78a5.29,5.29,0,0,0,.8,0A8.05,8.05,0,0,0,54,14c-.07,3.24-.19,4.68-.45,5.33s-.64.79-1.49.79c-.21,0-.45,0-.92-.05a2.27,2.27,0,0,0-.26-1.08,5.55,5.55,0,0,0,1.2.15c.39,0,.53-.2.64-.87A36.06,36.06,0,0,0,53,13.71h-.12a11.84,11.84,0,0,1-1,3.45,8.07,8.07,0,0,1-2.51,2.92,2.34,2.34,0,0,0-.81-.78,6.68,6.68,0,0,0,2.51-2.7A10.66,10.66,0,0,0,52,13.71h-.4A7.15,7.15,0,0,1,49,17.88a2.21,2.21,0,0,0-.71-.83,4,4,0,0,0,1.14-1,5.93,5.93,0,0,0,1.23-2.38h-.45a6.24,6.24,0,0,1-1.15,1.68,2.82,2.82,0,0,0-.8-.73,3.94,3.94,0,0,0,.46-.46H48V16a7.68,7.68,0,0,0,.91-.36v1L48,17v2.16a9.61,9.61,0,0,0,.06,1.1H46.89a7.36,7.36,0,0,0,.07-1.1v-1.8l-.87.3a2.86,2.86,0,0,0-.51.2l-.22-1.14A5.94,5.94,0,0,0,47,16.3V14.19h-.48a12,12,0,0,1-.37,1.54,3.14,3.14,0,0,0-.88-.52,5.44,5.44,0,0,0,.37-1.32,8.41,8.41,0,0,0,.12-1.34,2.82,2.82,0,0,0,0-.4l1,.1c0,.57-.05.62-.08,1H47V12.15a4,4,0,0,0-.07-.79H48a4.62,4.62,0,0,0-.06.79v1.07h.23a3.27,3.27,0,0,0,.63,0v.91a5.81,5.81,0,0,0,.69-1.25,5.51,5.51,0,0,0,.42-1.47l1.12.2c-.08.2-.08.2-.31.86,0,.09-.07.19-.12.35Z"/><path class="cls-2" d="M56.53,16.35c0-.33,0-.63,0-1.05a5.62,5.62,0,0,1-.81,1.11,4.32,4.32,0,0,0-.44-1.18A7.94,7.94,0,0,0,57,12.53a6.31,6.31,0,0,0,.35-1.24l1.09.3c0,.15-.07.19-.15.43a11.72,11.72,0,0,1-.68,1.67v5.4c0,.43,0,.75.05,1.11H56.47a7.81,7.81,0,0,0,.06-1.12Zm4.24-3.87a7,7,0,0,0-.06-1H61.9a4.87,4.87,0,0,0-.06,1v.88H63a6.72,6.72,0,0,0,1-.06V14.4c-.43,0-.72-.06-1-.06H61.84v1.78h1.5a8,8,0,0,0,1.08-.06v1.1a8.55,8.55,0,0,0-1.06-.06H61.84v2a5.73,5.73,0,0,0,.06,1.1H60.71a8.33,8.33,0,0,0,.06-1.1v-2H59.12a8,8,0,0,0-1.08.06v-1.1a7.7,7.7,0,0,0,1.08.06h1.65V14.34H59.44a6.64,6.64,0,0,1-.78,1.39A3.7,3.7,0,0,0,57.8,15a7.33,7.33,0,0,0,1-2,5,5,0,0,0,.3-1.21l1.06.27c-.06.22-.08.27-.17.57s-.13.42-.21.66h1Z"/></svg>