<?xml version="1.0" encoding="UTF-8"?>
<svg id="_レイヤー_2" data-name="レイヤー 2" xmlns="http://www.w3.org/2000/svg" viewBox="0 0 98.45 25.29">
  <defs>
    <style>
      .cls-1 {
        fill: none;
        stroke: #525a70;
        stroke-miterlimit: 10;
        stroke-width: .64px;
      }

      .cls-2 {
        fill: #525a70;
      }
    </style>
  </defs>
  <g id="_文字" data-name="文字">
    <g>
      <g>
        <path class="cls-2" d="M46.16,20.79c-1.14,0-2.18-.23-3.13-.68-.95-.45-1.77-1.1-2.47-1.94-.7-.84-1.24-1.86-1.61-3.05-.38-1.19-.56-2.52-.56-3.99s.19-2.81.58-3.99c.38-1.18.92-2.19,1.62-3.03.7-.84,1.53-1.49,2.5-1.93.97-.44,2.04-.66,3.22-.66,1.09,0,2.04.23,2.86.69.82.46,1.46.97,1.94,1.53l-.72.82c-.49-.56-1.09-1.02-1.78-1.37-.69-.35-1.46-.52-2.31-.52-1.36,0-2.54.35-3.54,1.04-1,.69-1.76,1.67-2.29,2.93-.53,1.26-.79,2.75-.79,4.47s.26,3.25.79,4.52c.53,1.28,1.28,2.27,2.26,2.98.98.71,2.14,1.06,3.49,1.06.95,0,1.81-.2,2.56-.59.75-.39,1.47-.97,2.15-1.74l.74.82c-.72.82-1.51,1.46-2.39,1.93-.88.47-1.92.7-3.13.7Z"/>
        <path class="cls-2" d="M56.97,20.79c-.36,0-.65-.08-.88-.23-.23-.15-.41-.38-.54-.69s-.19-.7-.19-1.18V.17h1.23v18.68c0,.29.05.51.15.65.1.15.24.22.41.22.07,0,.14,0,.2-.01.07,0,.17-.02.31-.04l.21,1c-.14.03-.26.06-.38.09s-.29.04-.51.04Z"/>
        <path class="cls-2" d="M66.94,20.79c-1.09,0-2.1-.28-3.02-.83-.92-.55-1.66-1.36-2.22-2.42-.56-1.06-.84-2.33-.84-3.83s.28-2.81.84-3.87c.56-1.06,1.3-1.87,2.22-2.43.92-.55,1.92-.83,3.02-.83.82,0,1.59.16,2.33.47.73.32,1.38.78,1.94,1.38.56.6,1.01,1.35,1.33,2.25.32.89.49,1.9.49,3.03,0,1.5-.29,2.78-.86,3.83-.57,1.06-1.31,1.86-2.22,2.42-.91.55-1.91.83-3,.83ZM66.94,19.72c.92,0,1.75-.25,2.48-.75.73-.5,1.31-1.21,1.73-2.11.42-.9.63-1.95.63-3.14s-.21-2.27-.63-3.17c-.42-.9-.99-1.61-1.73-2.13-.73-.52-1.56-.78-2.48-.78s-1.74.26-2.47.78c-.72.52-1.29,1.23-1.71,2.13-.42.9-.63,1.96-.63,3.17s.21,2.24.63,3.14c.42.9.99,1.61,1.71,2.11.72.5,1.55.75,2.47.75Z"/>
        <path class="cls-2" d="M80.36,20.79c-1.01,0-1.93-.18-2.77-.55s-1.57-.81-2.19-1.32l.69-.89c.58.48,1.21.88,1.88,1.21.67.33,1.49.5,2.44.5,1.09,0,1.91-.26,2.45-.79.54-.53.82-1.16.82-1.89,0-.58-.17-1.06-.5-1.43-.33-.37-.76-.69-1.28-.95-.52-.26-1.04-.48-1.57-.66-.67-.24-1.32-.51-1.96-.81-.64-.3-1.17-.69-1.6-1.18-.43-.49-.64-1.11-.64-1.88,0-.65.17-1.24.5-1.79.33-.55.82-.98,1.47-1.3.65-.32,1.44-.49,2.38-.49.73,0,1.44.13,2.11.4.67.26,1.26.6,1.75,1.01l-.66.84c-.44-.34-.92-.63-1.43-.87-.51-.24-1.11-.36-1.79-.36-1.06,0-1.84.26-2.35.77-.51.51-.77,1.09-.77,1.74,0,.49.15.91.45,1.25.3.34.69.62,1.16.84.48.22.98.43,1.51.64.54.2,1.08.41,1.6.63.52.21.99.47,1.42.77.43.3.77.66,1.02,1.1.26.43.38.98.38,1.65s-.17,1.31-.52,1.89c-.35.58-.86,1.04-1.52,1.39-.67.35-1.49.52-2.48.52Z"/>
        <path class="cls-2" d="M93.62,20.79c-1.14,0-2.19-.28-3.14-.84s-1.71-1.37-2.27-2.43c-.56-1.06-.84-2.33-.84-3.81,0-1.11.16-2.1.49-2.98.32-.88.77-1.63,1.33-2.25.56-.62,1.19-1.09,1.89-1.42.7-.32,1.43-.49,2.2-.49,1.07,0,1.99.24,2.76.73.77.49,1.36,1.2,1.79,2.13.43.94.64,2.07.64,3.4,0,.15,0,.31-.01.47,0,.16-.03.34-.06.52h-9.76c.02,1.14.24,2.16.67,3.04.43.89,1.02,1.58,1.78,2.1.76.51,1.65.77,2.67.77.75,0,1.42-.11,2.01-.33s1.14-.51,1.65-.87l.51.95c-.54.32-1.14.62-1.79.89s-1.47.41-2.48.41ZM88.61,12.84h8.69c0-1.74-.37-3.04-1.1-3.91-.73-.87-1.71-1.3-2.94-1.3-.77,0-1.49.2-2.16.61s-1.23,1-1.67,1.78c-.44.78-.72,1.72-.82,2.82Z"/>
      </g>
      <g>
        <line class="cls-1" x1="25.06" y1=".23" x2=".23" y2="25.06"/>
        <line class="cls-1" x1=".23" y1=".23" x2="25.06" y2="25.06"/>
      </g>
    </g>
  </g>
</svg>