<?xml version="1.0" encoding="utf-8"?>
<!-- Generator: Adobe Illustrator 24.2.3, SVG Export Plug-In . SVG Version: 6.00 Build 0)  -->
<svg version="1.1" id="レイヤー_1" xmlns="http://www.w3.org/2000/svg" xmlns:xlink="http://www.w3.org/1999/xlink" x="0px"
	 y="0px" viewBox="0 0 201.5 201.5" style="enable-background:new 0 0 201.5 201.5;" xml:space="preserve">
<style type="text/css">
	.st0{fill:#FFFFFF;}
	.st1{fill:#E73A12;}
	.st2{clip-path:url(#SVGID_2_);}
	.st3{fill:none;stroke:#FFFFFF;stroke-width:0.5;stroke-linecap:round;stroke-linejoin:round;}
	.st4{fill:none;stroke:#231815;stroke-width:0.62;stroke-linecap:round;stroke-linejoin:round;}
	.st5{fill:#72899B;stroke:#FFFFFF;stroke-width:0.5;stroke-linecap:round;stroke-linejoin:round;}
	.st6{fill:#FFFFFF;stroke:#FFFFFF;stroke-width:0.5;stroke-linecap:round;stroke-linejoin:round;}
	.st7{fill:#595857;stroke:#FFFFFF;stroke-width:0.83;stroke-linecap:round;stroke-linejoin:round;}
	.st8{fill:#595857;}
</style>
<g id="レイヤー_2_1_">
	<g id="レイヤー_1-2">
		<rect x="0.3" class="st0" width="201.5" height="201.5"/>
		<rect x="0.3" class="st1" width="27.3" height="27.3"/>
		<path class="st0" d="M12.3,11.7c0,0.1,0,0.4-0.1,0.6c0.7-0.5,1.5-0.8,2.4-0.8c1.1,0,2.1,0.4,2.8,1.1c0.7,0.7,1.1,1.7,1,2.7
			c0,2.6-1.7,4.1-4.4,4.1c-1.3,0.1-2.5-0.4-3.4-1.3c-0.5-0.5-0.8-1.1-1-1.8l2.4-0.4c0.1,0.3,0.2,0.6,0.4,0.8c0.4,0.5,1,0.7,1.6,0.7
			c1.1,0.1,2.1-0.7,2.1-1.8c0-0.1,0-0.2,0-0.3c0.1-1.1-0.7-2-1.8-2.1c-0.1,0-0.2,0-0.3,0c-0.6,0-1.1,0.2-1.6,0.6
			c-0.2,0.2-0.3,0.4-0.4,0.6l-2.1-0.2c0.1-0.6,0.1-0.9,0.2-1.4l0.3-3.6c0-0.5,0-0.6,0-1.5c0.5,0,0.8,0.1,1.6,0.1h3.7
			c0.7,0,1.4,0,2.1-0.1v2.1c-0.7-0.1-1.4-0.1-2.1-0.1h-3.2L12.3,11.7z"/>
		<g>
			<defs>
				<rect id="SVGID_1_" x="9" y="3.8" width="183.3" height="189.6"/>
			</defs>
			<clipPath id="SVGID_2_">
				<use xlink:href="#SVGID_1_"  style="overflow:visible;"/>
			</clipPath>
			<g class="st2">
				<path class="st0" d="M-26.4,219l37.8-34.6c2-2.2,8.4-3,9.1-3.1c32.1-1.5,50.6-12.1,58.5-14c14-3.5,33.4-10.1,37.1-14
					c2.2-2.1,3-5.1,2.1-8c0,0-1.5-4.5-2.6-6.8c0,0,6.3-1,7-5.1s-1.8-12-1.8-12s12.4-7.4,11-12c-0.7-2.7-2.4-4.9-4.7-6.4
					c3.3-0.6,13-3.1,15.4-4.6c4.8-2.8,6.1-10-0.4-13.2c-8.7-4.4-24.9-2.4-31.3-2.2c-7.8,0.5-15.6,1.7-23.3,3.5
					c-7.7,1.7-41.8,6.9-41.8,6.9l-13.2,2.5c0,0-17.6,4.5-26,12.2c0,0-14.7,17.6-22.8,38.1l-58.4,33.3c0,0-7.1,12,4.8,24
					S-26.4,219-26.4,219z"/>
				<path class="st3" d="M110.1,157c-10.1,4.3-20.5,7.7-31.1,10.4c-7.4,1.8-27.7,12.3-56.8,13.9c-2.5,0.1-7.6,0.2-10.8,3.1
					L-26.4,219"/>
				<path class="st4" d="M127.2,103c0,0,11.3-2.2,15.4-4.6c4.8-2.8,5.8-9.4-0.4-13.2c-7.3-4.6-24-2.6-24-2.6"/>
				<path class="st3" d="M45.8,93.4c-2.2,0.7-10.6,2.2-10.6,2.2"/>
				<path class="st3" d="M77.2,134.8c0,0,3,14.1,1.6,25.3"/>
				<path class="st5" d="M26.6,165c-9.8-4-10.1-11.7-7.4-18.5S69.5,22.3,72.1,15.9c3.3-8.1,9.6-11.6,18.2-8.2l51.8,21
					c8.5,3.5,10.6,10.4,7.4,18.5c-2.6,6.4-50.1,123.8-52.9,130.6s-8.3,12.1-18.2,8.2L26.6,165z"/>
				<path class="st5" d="M27.7,159.7c-5.1-2.1-6.3-6.7-4.8-10.4L76.5,16.7c2.1-5.1,5.9-7.8,11.2-5.6l54,21.8
					c5.3,2.2,6.2,6.8,4.1,11.8L92.1,177.3c-1.5,3.8-5.6,6.2-10.7,4.1L27.7,159.7z"/>
				
					<rect x="24.5" y="58.1" transform="matrix(0.3751 -0.927 0.927 0.3751 -31.3909 137.5326)" class="st6" width="123.7" height="67.9"/>
				<path class="st7" d="M120.5,28.9c-0.3,0.6,0,1.2,0.6,1.5c0.6,0.3,1.2,0,1.5-0.6c0,0,0-0.1,0-0.1c0.2-0.6-0.1-1.2-0.7-1.5
					C121.4,28.1,120.8,28.3,120.5,28.9z"/>
				<path class="st0" d="M117.3,28.5c0.4,0.2,0.9,0,1.1-0.5c0.2-0.4,0-0.9-0.5-1.1l-9-3.6c-0.4-0.2-0.9,0-1.1,0.5
					c-0.2,0.4,0,0.9,0.5,1.1c0,0,0,0,0,0L117.3,28.5z"/>
				<path class="st0" d="M-4.9,154.9c8.3,1.9,14.1-1.4,19.5-9.5c8.9-13.4,17-30,17.1-33.8c0.2-5.4-1.7-7.7-1.7-7.7
					c1.2-2.2,10.3-16.2,10.3-16.2s8.9-6,12.8-15.7c3.6-9,3.9-15.1,0.8-18c-2.6-2.4-5.2-1.8-6.6,0.4C41.8,62.3,34.9,69,27,74.3
					c-11.8,8.1-23.3,18.4-27,23.2s-10.5,21.6-12.3,30.3s-3.9,18.4-3.9,18.4S-16.7,152.2-4.9,154.9z"/>
				<path class="st3" d="M35.2,95.6c0,0-0.7,0.9-2.1,3.4c0.1,5.7-0.4,11.4-1.4,17"/>
				<path class="st4" d="M35.2,95.6c1.2-2.2,5-7.9,5-7.9s8.9-6,12.8-15.7c3.6-9,3.9-15.1,0.8-18c-2.6-2.4-5.2-1.8-6.6,0.4
					C41.7,62.2,34.9,68.9,27,74.2C15.1,82.3,3.7,92.7,0,97.5s-10.5,21.6-12.3,30.3s-3.9,18.4-3.9,18.4l-56.4,32.2"/>
				<path class="st0" d="M124.8,105.6c-3.3,1-5.9,3.5-7.1,6.7c-1.8,4.5-1.3,8.4,2.2,10.3s8,0.2,10.2-3.3c2.2-3.6,2.8-7,1.1-12
					C131.2,107.3,129.9,104.4,124.8,105.6z"/>
				<path class="st4" d="M127.2,103c1.7,1,3.1,2.6,3.9,4.4c2.3,4.8,1.1,8.4-1.1,12c-2.1,3.6-6.7,5.2-10.2,3.3s-4-5.8-2.2-10.3
					c1.2-3.2,3.8-5.7,7.1-6.7c0.9-0.3,1.9-0.4,2.8-0.3"/>
				<path class="st0" d="M112.3,135.9c-1-1.4-1.5-3.2-1.5-4.9c0.3-4.9,4.6-8.4,6.9-8.8c2.7-0.3,5.3,0.7,7.1,2.7
					c2.2,2.2,3.1,7.2,1.1,11.1s-7.3,5.7-7.3,5.7S113.9,138.7,112.3,135.9z"/>
				<path class="st4" d="M115.8,143.2c0,0,8.2-3.3,10.2-7.2s1-8.9-1.1-11.1c-1.8-2-4.4-3-7.1-2.7c-2.3,0.3-6.5,3.9-6.9,8.8
					c0,1.8,0.5,3.5,1.5,4.9"/>
				<path class="st8" d="M105.2,150.4c-0.8-1.5-1.1-3.2-1.1-4.9c0.2-4.2,2.4-7.7,4.8-9c2.4-1.3,5.4-0.3,6.7,2.1
					c1.1,2.3,2.6,6.8,2.6,6.8c0.8,2.9,0,5.9-2.1,8c-1.6,1.4-3.3,2.7-5.2,3.7C110.9,157,106.8,153.7,105.2,150.4z"/>
				<path class="st3" d="M110.1,157c2.3-0.7,4.3-2,6-3.7c2.2-2.1,3-5.1,2.1-8c0,0-1.5-4.5-2.6-6.8c-1.3-2.4-4.3-3.3-6.7-2.1
					c-2.4,1.3-4.6,4.8-4.8,9c0,1.7,0.3,3.4,1.1,4.9c0.7,1.8,1.8,3.4,3.1,4.8"/>
				<path class="st0" d="M146.9,314.2c23.2-0.5,28.7-18.3,28.7-18.3s-20.4-48.8-22.6-58.3c0,0-1.5-4.3-0.6-7.6s15.6-45,14.8-52.5
					s-6.1-15.3-9.3-21.4s-13.2-8.8-15.3-9c0,0-1.4-1.5-3.6-3.7c-4.7-4.5-11.7-2.9-15-3c-2.4-1.2-4.8-2.6-7-4.1
					c-4.6-3.4-8.8-8.5-14.7-8.3c-2.1,0.1-4.2,0.7-6,1.7c0,0-6.8-19.4-7.9-29.3c-0.9-8.5-1.3-20.3-1.6-22.2
					c-0.7-5.4-8.1-7.4-11.5,0.2c-4.1,9.2-3,25-3.3,29.3s3.5,34.5,4.8,43.4c-0.9-1.6-2.3-2.8-4-3.4c-1.8-0.6-3.4,0.4-3.4,2.9
					c-0.2,5.4-1.3,10.7-3.2,15.7c-3.7,10.4-5.4,16.7-5.4,22.7c0,3.6,6.2,22.2,10.9,28.6s26.6,24,29.7,29.1c0,0,4.3,15.4,7.4,48.3
					C108.9,295.2,110.9,315.1,146.9,314.2z"/>
				<path class="st4" d="M108.9,295.2c-3.1-32.9-7.4-48.3-7.4-48.3c-3.1-5-25.1-22.7-29.7-29.1s-10.8-25-10.9-28.6
					c-0.1-6,1.6-12.3,5.4-22.7c1.9-5,3-10.3,3.2-15.7c0-2.5,1.6-3.6,3.4-2.9c1.7,0.7,3.1,1.9,4,3.4c-1.3-9-5.1-39.1-4.8-43.4
					s-0.8-20.1,3.3-29.3c3.4-7.6,10.8-5.6,11.5-0.2c0.2,1.9,0.6,13.7,1.6,22.2c1.1,9.9,7.9,29.3,7.9,29.3c1.8-1,3.9-1.6,5.9-1.6
					c5.9-0.2,10.1,4.9,14.7,8.3c2.2,1.6,4.6,2.9,7,4.1c3.3,0.1,10.4-1.6,15,3c2.3,2.2,3.6,3.7,3.6,3.7c2.1,0.2,12.1,2.9,15.3,9
					s8.5,13.8,9.3,21.4s-13.9,49.2-14.8,52.5s0.6,7.6,0.6,7.6c2.1,9.5,22.6,58.3,22.6,58.3"/>
				<path class="st4" d="M76.9,151.4c0.7,6,0.9,12,0.7,18.1c-0.4,8.9-0.6,20-0.6,20"/>
				<path class="st4" d="M96.3,129.9c0,0,2.8,8,5.8,12.2"/>
				<path class="st4" d="M123.9,140.6c2.2,2,3.8,4.6,4.8,7.4"/>
				<path class="st4" d="M142.6,147.3c0,0,4.1,4.9,5.5,6.1"/>
				<path class="st4" d="M77.3,175.8c-1,2.3-2.2,4.4-3.8,6.3"/>
			</g>
		</g>
	</g>
</g>
</svg>
