<?xml version="1.0" encoding="utf-8"?>
<!-- Generator: Adobe Illustrator 24.2.3, SVG Export Plug-In . SVG Version: 6.00 Build 0)  -->
<svg version="1.1" id="レイヤー_1" xmlns="http://www.w3.org/2000/svg" xmlns:xlink="http://www.w3.org/1999/xlink" x="0px"
	 y="0px" viewBox="0 0 201.5 201.5" style="enable-background:new 0 0 201.5 201.5;" xml:space="preserve">
<style type="text/css">
	.st0{fill:#FFFFFF;}
	.st1{fill:#040000;}
	.st2{fill:none;stroke:#231815;stroke-width:0.58;stroke-linecap:round;stroke-linejoin:round;}
	.st3{fill:#FFFFFF;stroke:#231815;stroke-width:0.58;stroke-linecap:round;stroke-linejoin:round;}
	.st4{fill:#040000;stroke:#231815;stroke-width:0.58;stroke-linecap:round;stroke-linejoin:round;}
	.st5{fill:#E73A12;}
	.st6{clip-path:url(#SVGID_2_);}
	.st7{fill:#231815;stroke:#231815;stroke-width:0.58;stroke-linecap:round;stroke-linejoin:round;}
	.st8{fill:none;stroke:#231815;stroke-width:0.79;stroke-miterlimit:10;}
	.st9{fill:#231815;}
</style>
<g id="レイヤー_2_1_">
	<g id="レイヤー_1-2">
		<rect class="st0" width="201.5" height="201.5"/>
		<polygon class="st1" points="175.9,70.8 180.1,73.8 183,78.9 183.9,85.2 182.6,95.1 183.5,100.3 185.3,102.6 181.2,101.9 
			182.1,104 184.1,105.3 175.8,103.6 174.1,102 169.7,94.7 167.4,94.5 166.8,89.2 167.1,80.3 170.7,76.4 171.8,73.1 		"/>
		<path class="st2" d="M178.8,97.7c0,0,1.5,6.6,5.9,7.4c-2.2,0.6-4.5,0.3-6.5-0.7"/>
		<path class="st2" d="M174.1,70.3c0.4,0,3.6,1,6.6,4.7c2.7,3.3,3.1,9.3,2.7,15c-0.3,2.4-0.5,4.8-0.5,7.2c0.2,5,3.4,5.6,3.4,5.6
			c-2.8,0.5-5.7-0.9-7-3.5"/>
		<path class="st3" d="M191.6,176.5c0.8-6.6,1.1-13.3,1.1-19.9c-0.2-7.8,0-20.7-0.1-24s-1.6-11.9-1.6-11.9s-0.9-4-2.2-7.8
			c-0.8-2.3-2.4-4.2-4.6-5.4c-3.2-1.7-6.5-3.3-9.8-4.7l-7.2,0.9l-25.1,2.2c0,0-5.3,2.5-9.3,4c0,0-1.9,0.4-3.3,4.1c0,0-1.8,6-2.7,8.1
			c-1.1,3-1.8,6.1-2,9.2c-0.2,3.2-1,6.3-2.3,9.1c-1.4,2.6-2.4,10-2.4,10c-2.4,0.3-1.8,3.6-1.8,3.6c-1.5,0.4-3,0.8-4.5,1.4
			c-1.1,0.5-2.2,0.9-5.7,1.2c-1.6,0.3-3.1,1.1-4.1,2.3l4.1,5.8"/>
		<path class="st3" d="M136.8,55c-1.6,4.5-2.3,9.2-2.2,14c0.2,1.4,0.5,2.8,1.1,4.2c0.1,3.4,0.7,6.8,2,10c1.4,3.3,3.2,6.4,5.4,9.2
			c1.5,1.9,2.9,3.1,4.6,3c0.9,0,1.8-0.2,2.7-0.5c0,0,0.4,6.3,0.2,8.6l-9.3,12l5.3,3.6l11.7-2.1l6.2-11.9l4.4-6.5
			c-3.1-4.2-2-15.3-2-15.3s5.3-7,5.5-9.3s-0.2-12.5-4.7-16.6S144,49.3,144,49.3S138.1,52.9,136.8,55z"/>
		<path class="st3" d="M158.4,112.8c-4.9,0.7-9.8,0.7-14.7,0c0,0-6.2,9-8.1,16.7c-2.5,9.8,3.7,23.9,3.7,23.9l5.5-15.7L158.4,112.8z"
			/>
		<path class="st4" d="M165,67.7c0.4-1,1.9-2.6,3.7-1.3c2.5,2,3.5,5.4,2.4,8.4c-0.9,2.1-2.2,3.9-3.9,5.3c0,0-0.2,2.1-0.3,4.6
			c-0.1,1.9,0.3,3.7,1.4,5.3c0,0,0.5-2.9,0.9-4.4c0.2,0.8,0.5,1.6,1.1,2.3c0.3-1.7,0.9-3.3,1.7-4.8c0.6-1.4,1.3-2.7,2.1-4
			c1.2-2,2.1-4.2,2.6-6.5c0.9-3.6,0.9-7.3,0-10.8c-1.1-3.5-2.8-6.7-4.9-9.7c-2.6-3.6-6.5-6-10.8-6.7c-3-0.4-6.1-0.4-9.1,0l-4.9,0.7
			c-3.9,0.5-7.5,2.4-10.2,5.2c-3.5,3.9-5.6,9-5.9,14.2c0,3.6,1.8,6.9,4.8,8.8l-0.5-2.1c-0.2-1.2-0.1-2.5,0.4-3.7
			c0.4,0.8,1,1.4,1.9,1.7c0.1-0.6,0.2-1.3,0.4-1.9c0.4,0.7,1.2,1.2,2,1.4c-1.1-2-1.6-4.3-1.5-6.6c0.4-3,1.2-5.9,2.2-8.8
			c0,0-0.8,6.2,3.3,10.3c3.6,3.6,11.2,4.4,11.2,4.4l-1.1-1.4c2,0.7,4,1.3,6.1,1.7c0,0-4.7-5-5.9-7.2c-0.9-2-1.4-4-1.7-6.1
			c0,0,1.1,4,3.3,6c1.4,1.2,4.5,3.5,4.5,3.5c1.8,2.3,3,5,3.6,7.9C164.1,71.4,164.5,69.5,165,67.7z"/>
		<path class="st2" d="M165.3,80.5c1,0.2,2.1-0.1,2.8-0.9c1.6-1.4,4.3-5.1,3.1-8.1"/>
		<path class="st1" d="M168.5,75.3c2-0.1,3.6-2.5,3.6-5.4s-1.8-5.3-3.9-5.2l-2.6,0.1c-2,0.1-3.6,2.5-3.6,5.4s1.8,5.3,3.9,5.2
			L168.5,75.3z"/>
		<path class="st3" d="M139.2,153.5c0,0,0.7-10,2.8-16.5c1.5-4.5,10.1-20.4,14-25s12.1-17,12.1-17s0.7-1.5,1.6,0
			c1.4,2.4,3,4.8,4.7,7.1c0,0-1.5,5.3-2.3,7.5c0,0-9.6,2.2-11.1,2.3c0,0,5.6,2,7.6,2.9c0,0-14.9,13.5-20.1,21.7
			C145,141.9,141.9,147.6,139.2,153.5z"/>
		<path class="st2" d="M183.4,110.6c0,0-4.1,2-6.9,8.4c-1.9,4.1-2.8,8.5-2.8,13c0,0-0.1,21.2-0.2,24.5c-0.1,4.6,0,19.6,0,20.9"/>
		<path class="st2" d="M130.9,119c0,0-1.3,9.5-2.2,14.9c-1,6,0.3,10.2,2,14.9s3.9,12,3.9,12l0.8,16.5"/>
		<path class="st2" d="M121.7,154.2c0,0,5.4,1.3,7.8,4.6"/>
		<path class="st2" d="M150.5,94.8c3.6-1.4,6.9-3.3,9.8-5.8"/>
		<path class="st3" d="M139.2,155.3c-1.6-6.6-2.2-13.4-1.8-20.1c0.8-11.9,13.3-31.8,13.3-31.8c0.1-1.9,0-3.8-0.1-5.7
			c0,0-6.9,7.5-12.5,11.2l3.3,2.4l-6.7,3.1c0,0-3.9,12.9-2.3,23.8c0.7,5,4.5,14.1,4.5,14.1"/>
		<path class="st3" d="M101.1,167.2c1.4-0.7,2.9-1.2,4.4-1.6c0.8-0.3,1.6-0.6,2.3-1.1"/>
		<path class="st2" d="M120.1,150.3c0,0,5.2-0.1,7.9,2.7"/>
		<path class="st1" d="M140.8,73.2c-0.1,0.7-0.8,1.1-1.5,1s-1.1-0.8-1-1.5c0.1-0.6,0.6-1,1.2-1C140.3,71.8,140.9,72.4,140.8,73.2z"
			/>
		<path class="st1" d="M154,72.6c0.2,0.7-0.2,1.4-0.9,1.6c-0.7,0.2-1.4-0.2-1.6-0.9c-0.1-0.2-0.1-0.4,0-0.6
			c-0.2-0.7,0.2-1.4,0.9-1.6c0.7-0.2,1.4,0.2,1.6,0.9C154,72.2,154,72.4,154,72.6z"/>
		<path class="st2" d="M146,81c-1.2,0.4-2.6,0.3-3.7-0.3c1.6-2.2,2.2-5,1.4-7.7"/>
		<path class="st3" d="M142.4,83.9c3.1,0.5,6.3,0.3,9.2-0.8c0,0-0.1,5.8-3.9,6.1S142.4,83.9,142.4,83.9z"/>
		<rect class="st5" width="27.3" height="27.3"/>
		<path class="st0" d="M15.8,10.7c-0.2-0.8-1-1.4-1.8-1.3c-0.9,0-1.7,0.6-2,1.4c-0.3,0.6-0.5,1.3-0.5,2c0.3-0.3,0.6-0.6,0.9-0.8
			c0.6-0.3,1.3-0.4,1.9-0.4c2.5,0,4,1.5,4,3.8c0,1-0.4,2-1.1,2.7c-0.9,0.8-2.1,1.3-3.3,1.2c-1.3,0.1-2.5-0.5-3.4-1.4
			c-0.9-1.3-1.4-2.8-1.3-4.4c0-1.4,0.3-2.8,0.9-4C11,8.4,12.5,7.5,14,7.6c1,0,1.9,0.2,2.7,0.8c0.6,0.5,1.1,1.1,1.3,1.9L15.8,10.7z
			 M13.9,13.5c-1.1-0.1-2.1,0.7-2.2,1.8c0,0.1,0,0.1,0,0.2c0,1.1,1,2,2.1,2c0,0,0.1,0,0.1,0c0.7,0,1.4-0.3,1.8-0.9
			c0.2-0.3,0.3-0.7,0.2-1.1c0.1-1-0.7-1.9-1.7-2C14.2,13.5,14,13.5,13.9,13.5z"/>
		<g>
			<defs>
				<rect id="SVGID_1_" x="8.8" y="23.2" width="188.1" height="157"/>
			</defs>
			<clipPath id="SVGID_2_">
				<use xlink:href="#SVGID_1_"  style="overflow:visible;"/>
			</clipPath>
			<g class="st6">
				<polygon class="st3" points="102.3,128.9 104.6,128.1 104.6,114.6 102.3,114.6 				"/>
				<path class="st3" d="M68.4,45.7l4.8,3.9c1,2,1.9,4.1,2.7,6.3c0.3,1.3-0.3,5-0.3,5s0.1,0.9,0.2,2.1c0,0,1.6,4.6,3.6,6
					c1.6,1.1,0.8,1.8,0,2.2c-0.8,0.4-1.6,0.8-2.5,1.2c-0.1,1-0.2,1.9-0.5,2.8c-0.9,3.2-4.6,10.4-5.2,11.7s-1.2,3.5-3.7,3.2
					C66,89.7,63,89.5,63,89.5c-1.5,2.7-2.9,5.6-4,8.5l-18.5-2.9c0,0,2.4-14.2,0.7-17c-2.3-3.9,1.5-20.3,1.5-20.3L68.4,45.7z"/>
				<path class="st7" d="M33,43.2c-6.6,10.4-1.3,18,0.6,21.4c1.8,3.4,6.7,12.1,6.9,13c0.4,1.5,1.7,2.1,2.6,1.3
					c0.5-0.4,1-0.7,1.6-0.9c0,0,1,2.1,2.3,1.3s2.6-1.5,2.6-1.5c0.6,0.8,1.4,1.4,2.3,1.7c3.3-2.3,7.4-9,7.4-9c-1-1.4-1.7-2.9-2.1-4.6
					c-1-4.1-0.1-7.2,1.7-8.2c1.6-0.9,3.6-0.3,4.5,1.4c0.1,0.2,0.2,0.4,0.2,0.6c0.8,2,0.5,4.1,1.2,6.6s2.1,2.7,2.3,1.3
					s0.4-7.3,0.4-7.3c1-1.4,2.6-4.4,2.6-4.4c0.1-1,0.1-4.7,0.1-4.7c2.9,0.9,6.4,2.6,6.4,2.6L75,50.7c0.7,0.2,3.1-0.8,3.1-0.8
					c-2-1.8-3.7-3.5-3.7-3.5c1-0.1,2-0.4,3-0.7c-2-1-6.8-6.3-9.9-8.2c-4.2-2.4-8.7-4-13.5-4.9c-4.8-0.6-8.9-0.9-13.8,5.7
					C40.3,38.3,36.3,37.8,33,43.2z"/>
				<path class="st3" d="M59.5,70.6c0.6,1,1.4,1.9,2.5,2.5"/>
				<path class="st3" d="M38,95.9c0.4-1.3,1.4-6.6,1.4-6.6s2.6-3.3,10.3-3.7c6.3-0.4,13.1,2.8,16.2,6c1,1.1,4,6.4,4.2,6.5l0.5,3.1
					l-34.7-1.3L38,95.9z"/>
				<path class="st3" d="M100.7,124.5c0.3,2.7,0.8,5.5,1.6,8.1l0.1,2.6l9.6,1.1c0,0,3.5-17.6,3.6-18.5c0.1-1.7,0.6-3-0.5-5.3
					s-3.5-8.2-3.8-9c-0.7-0.9-1.5-1.7-2.4-2.3c0,0-6.2-4.5-7.5-4.6s-1.9,0.8-0.5,2.4c1.4,1.4,2.9,2.7,4.5,3.8
					c-2.2-0.5-4.5-0.9-6.8-1.2c-2-0.1-5-0.2-5-0.2s-1.6,0.3-0.1,1.7c1.3,1.2,7.1,1.9,7.1,1.9s-6.3,0-7.2-0.1c-1.3-0.2-1.5,1.8,0,2.5
					c1.7,0.8,3.6,1.2,5.4,1.2l2.1,2.8l-2.6-1.6c-1.4-0.3-5.2-0.7-5.2-0.7s-1.8,0.4-0.3,1.8c1.3,1.2,5.2,1.9,5.2,1.9l3.8,3.9
					C101.2,119.2,100.9,121.8,100.7,124.5z"/>
				<path class="st3" d="M111.1,112.7h-2.2c-2.1-1.7-4-3.7-5.5-6c-0.9-1.6-3.8-0.3-2.6,2.7c1,2.5,2.2,3.5,3.1,5.1
					c0.8,1.6,1,3.4,0.7,5.1c-0.3,1.5-0.9,6.2,0.9,8.7"/>
				<path class="st3" d="M84.9,163.1c4,4.4,8.6,8.8,11.9,11.1c5.9,3.9,11,5.8,16.6,2.4c7.1-4.4,5.8-12.4,5.2-14.7
					s-1.8-12.7-2.3-16.9c-0.7-6.2,0-8.2,0-8.2s-3.7-3.7-7.5-4.8s-7.7,1.9-7.7,1.9c0.1,1.6,0.1,4.4,0.1,4.4
					c-2.8-3.8-5.2-8.3-5.9-10.4c-2-6.5-3.8-11.6-5.6-15.8s-3.9-5-3.9-5L70,98.2c0,0-9.3-3.7-15.9-4.1s-12.3,0-16.1,1.9
					c0,0-14.7,10.9-16.3,12c-2.5,1.5-4.2,4-4.6,6.9c-0.4,3.8-3.1,20-3.2,23.2s-2.5,13.9-2.9,17.2c-0.2,3.5-0.2,7,0,10.5
					c0,0,0.4,3.4,5.6,6.6s8.2,1,8.2,1v6.1c0,0-3.5,22.6-4.5,36.9h64c0,0,0.5-27,0.5-35.4L84.9,163.1z"/>
				<path class="st3" d="M20.9,112c-0.3,0.4,0,9.5,0.6,17.5s2.4,28.3,2.6,31.7c0.1,2.4,0.4,7.1,0.5,12.1"/>
				<path class="st8" d="M110.4,148.6c1.9,0.9,3.6,2.3,4.8,4.1"/>
				<path class="st3" d="M101.2,138.3c0.8,1.1,2.2,4.8,3.1,5c2.2,0.7,3.6,1,3.6,1s1.7,1,2.4,4.8c0.6,2.8,4.3,8.4,4.3,8.4"/>
				<path class="st3" d="M80.6,107.9c0,0-5.3,3.7-6.4,13.3s0.3,27.2,3.7,32.9c2.1,3.2,4.4,6.2,7,9"/>
				<path class="st3" d="M76.4,150.6c0,0-10.4-23.5-11.9-27.7"/>
				<path class="st3" d="M78.1,158.1c0,0-17-16.4-19.1-18.7"/>
				<path class="st9" d="M75.5,61.9c0,0.9-0.5,1.7-1.1,1.6s-1.1-0.8-1-1.7s0.5-1.7,1.1-1.7S75.5,61,75.5,61.9z"/>
				<path class="st9" d="M76,58.5c-1.2-0.8-2.6-1-3.9-0.5c-0.4,0.2-0.9,0.1-1.1-0.3s-0.1-0.9,0.3-1.1l0,0c1.7-0.8,3.7-0.7,5.2,0.4
					C76.9,57.3,76.1,58.6,76,58.5z"/>
				<path class="st3" d="M74.7,79.4c-1.6-0.3-3-0.9-4.3-1.9"/>
			</g>
		</g>
	</g>
</g>
</svg>
