<?xml version="1.0" encoding="utf-8"?>
<!-- Generator: Adobe Illustrator 24.2.3, SVG Export Plug-In . SVG Version: 6.00 Build 0)  -->
<svg version="1.1" id="レイヤー_1" xmlns="http://www.w3.org/2000/svg" xmlns:xlink="http://www.w3.org/1999/xlink" x="0px"
	 y="0px" viewBox="0 0 201.5 201.5" style="enable-background:new 0 0 201.5 201.5;" xml:space="preserve">
<style type="text/css">
	.st0{fill:#FFFFFF;}
	.st1{fill:#F63402;}
	.st2{clip-path:url(#SVGID_2_);}
	.st3{fill:none;stroke:#231815;stroke-width:0.62;stroke-linecap:round;stroke-linejoin:round;}
	.st4{fill:#FFFFFF;stroke:#231815;stroke-width:0.62;stroke-linejoin:round;}
	.st5{fill:none;stroke:#231815;stroke-width:0.62;stroke-miterlimit:10;}
	.st6{fill:#FFFFFF;stroke:#231815;stroke-width:0.62;stroke-linecap:round;stroke-linejoin:round;}
	.st7{fill:#738C9F;stroke:#231815;stroke-width:0.62;stroke-linecap:round;stroke-linejoin:round;}
	.st8{stroke:#231815;stroke-width:0.62;stroke-linecap:round;stroke-linejoin:round;}
</style>
<g id="レイヤー_2_1_">
	<g id="レイヤー_1-2">
		<g id="レイヤー_2-2">
			<g id="枠">
				<rect x="0.3" y="0.3" class="st0" width="201.5" height="201.5"/>
				<rect x="0.3" y="0.3" class="st1" width="27.3" height="27.3"/>
				<path class="st0" d="M11.5,19.5c-0.7,0-1.3,0-2,0.1c0-0.6,0.1-1.2,0.3-1.7c0.4-1.1,1.1-2.1,2-2.9c0.8-0.7,1.6-1.3,2.4-1.8
					c1.3-0.9,1.6-1.3,1.6-2s-0.7-1.3-1.7-1.3c-0.6,0-1.3,0.2-1.6,0.8c-0.2,0.4-0.4,0.8-0.4,1.3l-2.5-0.3c0.1-0.9,0.4-1.7,1-2.4
					c0.9-0.9,2.2-1.4,3.4-1.3c2.6,0,4.2,1.3,4.2,3.2c0,1-0.5,1.9-1.2,2.5c-0.7,0.6-1.3,1.1-2.1,1.5c-0.6,0.4-1.1,0.8-1.6,1.3
					c-0.3,0.3-0.5,0.6-0.7,1h3.5c0.7,0,1.4,0,2.1-0.1v2.3c-0.8-0.1-1.5-0.1-2.3-0.1L11.5,19.5z"/>
				<g>
					<defs>
						<rect id="SVGID_1_" x="18.2" y="7.6" width="167.6" height="192.2"/>
					</defs>
					<clipPath id="SVGID_2_">
						<use xlink:href="#SVGID_1_"  style="overflow:visible;"/>
					</clipPath>
					<g class="st2">
						<g>
							<line class="st3" x1="17.4" y1="177.9" x2="206.1" y2="177.9"/>
							<line class="st3" x1="67.5" y1="146.8" x2="80.1" y2="108"/>
							<polyline class="st3" points="67.5,151.1 67.5,146.8 132.2,146.8 							"/>
							<line class="st3" x1="118.8" y1="114.4" x2="88.7" y2="114.4"/>
							<polyline class="st3" points="118.8,33.5 79.1,33.5 79.1,111.5 							"/>
							<polyline class="st3" points="142,141.5 118.8,114.4 118.8,33.5 127.4,16.5 							"/>
							<polyline class="st3" points="137.1,151.1 67.5,151.1 63.9,162.5 							"/>
							<path class="st4" d="M154.7,73l-3.1-0.3v5.6c0,0,2.4,1.6,2.4,9.7c0,8.4-1.8,12.3-1.8,12.3v5.3h2.9v-5.2c0,0,2.9-4.3,2.9-11.6
								s-3.3-10.5-3.3-10.5V73z"/>
							<rect x="63.8" y="16.3" class="st5" width="73.2" height="156.6"/>
							<polyline class="st3" points="63.8,172.8 61.2,177.9 61.2,12.5 138.4,12.5 							"/>
							<path class="st6" d="M82.8,85.7c0,0-6.1-2.1-8.3-2.1l-10.2,3c-1.2,0.3-2.1,1.4-2.1,2.7c0,0-1.8,24-1.8,25.1
								c0,1.4,0.6,1.6,1.5,1.8l5.5,1.6c0.8,0.2,1.7,0.1,2.5-0.3l12.7-30.1C82.5,87.4,84.2,86.3,82.8,85.7z"/>
							<path class="st6" d="M70.1,92.1c0,0,0.2-2.5,2-3.1l10.5-3.3c0,0,1.4,0.1,1.3,2l-3,24.6c-0.1,0.8-0.7,1.5-1.5,1.6l-9.5,3.5
								c0,0-2,0.7-2-1.8S70.1,92.1,70.1,92.1z"/>
							<path class="st7" d="M62.3,115L64,92.6l3.5,1L65.7,116c0,0.6,0.3,1.2,0.8,1.6l-3.5-1C63.1,116.6,62.2,116.4,62.3,115z"/>
							<path class="st6" d="M68.5,86.9l-3.4-1.2c-0.5,0.2-0.7,0.8-0.5,1.3l0,0v0.1c0.5,0.2,0.8,0.7,0.7,1.3L65,91.2l0,0
								c0,0-0.9,0-1,1.5l3.5,1c0.3-1.8-0.8-2-0.9-2L67,89c0.1-0.5,0.5-0.8,0.9-0.7c0,0,0,0,0,0H68C68.9,88,68.5,86.9,68.5,86.9z"/>
							<line class="st3" x1="62.3" y1="177.9" x2="138.4" y2="177.9"/>
							<path class="st6" d="M94.7,166.2l2.6-0.2c1.4-0.7,2.7-1.4,3.9-2.2c1-0.7,3-1.2,3.4,0.8s-0.9,4.9-2.5,6.7
								c-1.4,1.1-2.8,2.1-4.4,3l0.4,1.4c0,0-1.2,1.4-2.7,3c-1.2,1.2-5.1,1.1-6.2,0.4s-1.2-2.9-1.2-2.9c-0.2-1.4-0.2-2.8,0-4.2
								C88.5,170.8,94.7,166.2,94.7,166.2z"/>
							<path class="st6" d="M92.2,96.3c0,0,2.6,37.6,2.8,42.8s1.5,16.7,1.5,16.7c0.2,1.1,0,7.8,0,7.8c0.7,0.4,1.3,1.1,1.5,2
								c0,0,1.1,5-2.2,7.8c-2.1,1.8-8.2,2.2-8.2,2.2s-2.4-10-3-15.4S84,142.6,84,142.6c-1.4-4.4-2.5-8.8-3.3-13.4
								c-0.2-1.8-1.2-7.2-1.2-7.2c-0.2-0.9-2.8-9.2-3.3-13.9s2.2-13.9,2.2-13.9L92.2,96.3z"/>
							<path class="st6" d="M92.3,182c0,0,3,1.6,4.7,1.4s4.6-0.8,4.6-0.8c2-0.6,4,0.2,3.2,3.2c-0.7,2.6-5.3,4.7-6.7,4.9
								s-3.4,0.7-3.4,0.7l-0.5,1.7c-1.4,0.9-3,1.5-4.6,1.7c-1.7,0.2-5.6,0.1-5.6-2c0.1-1.8,0.3-3.6,0.7-5.4L92.3,182z"/>
							<path class="st0" d="M105.4,112.5c0,3.5-0.3,7.1-0.8,10.6c-0.4,3.7-2,15.1-2.3,17.3s-1.9,7.2-2.9,12.2
								c-0.7,3.7-1.4,8.1-1.6,9.4s-1.5,10.4-1.6,12.3s-2,6.4-2,6.4l1.2,2.6c-0.3,2.2-1.9,5.8-5.5,6.4c-2.1,0.4-4.3,0.2-6.4-0.5
								c0,0,0.2-2.4,0.3-5c0.1-3.5,0.5-7,1.2-10.4c0.9-3.7,2.3-13.6,2.3-13.6c-0.1-1.8-0.1-3.5,0-5.3c0.2-2.2,0.8-7,1.2-10.4
								s-1.2-21.1-1.6-23.7l-1.1-7.4L105.4,112.5z"/>
							<path class="st5" d="M105.4,112.5c0,3.5-0.3,7.1-0.8,10.6c-0.4,3.7-2,15.1-2.3,17.3s-1.9,7.2-2.9,12.2
								c-0.7,3.7-1.4,8.1-1.6,9.4s-1.5,10.4-1.6,12.3s-2,6.4-2,6.4l1.2,2.6c-0.3,2.2-1.9,5.8-5.5,6.4c-2.1,0.4-4.3,0.2-6.4-0.5
								c0,0,0.2-2.4,0.3-5c0.1-3.5,0.5-7,1.2-10.4c0.9-3.7,2.3-13.6,2.3-13.6c-0.1-1.8-0.1-3.5,0-5.3c0.2-2.2,0.8-7,1.2-10.4
								s-1.2-21.1-1.6-23.7l-2.3-2.8"/>
							<line class="st5" x1="94.4" y1="180.7" x2="93.6" y2="182.9"/>
							<path class="st5" d="M88.7,142.7c0,0,0.4,3.3,0.7,5.2"/>
							<polygon class="st6" points="151.2,198.1 132.7,172.8 132.7,16.8 151.2,-12 							"/>
							<polygon class="st4" points="155.1,197.5 151.2,198.1 151.2,-12 155.1,-11.6 							"/>
							<path class="st4" d="M146.7,73.2l3.1-0.3v5.6c0,0-2.7,2.3-2.7,9.6c0,8.4,2.8,12.3,2.8,12.3v5.3l-3.1-1.2v-5.2
								c0,0-2.8-4-2.8-11.3c0-6.3,2.8-9.5,2.8-9.5L146.7,73.2z"/>
							<path class="st6" d="M149.8,85.6c0,0,1.3,0.1,1.3,1c0,0.6-1.1,1.1-1.1,1.1s0.3,0.3-0.7,1.5c0.2,0.6-0.1,1.3-0.7,1.5
								c0,0,0,0,0,0l0,0c-1.4,1-3,1.8-4.6,2.3c-1.3,0.3-7-2.2-9.5-3.6l3.6-5.4c0,0,2.6-1.3,3.7-1.7c1.5-0.3,3-0.8,4.4-1.5
								c1.1-0.7,1.4,0.5,0.8,1.3c-0.7,0.7-1.5,1.4-2.4,1.9c-0.1,0.4,0,0.8,0.4,1c0.9,0.4,1.9,0.7,2.9,0.9
								C148.5,85.8,149.1,85.6,149.8,85.6z"/>
							<polyline class="st6" points="150,87.7 148.2,88.2 144.8,88.1 							"/>
							<line class="st3" x1="149.3" y1="89.2" x2="144.3" y2="90.1"/>
							<line class="st3" x1="148.6" y1="90.7" x2="144.1" y2="91.9"/>
							<path class="st6" d="M89.1,43.3c0.4,1.7,0.3,3.5-0.4,5.1l9.5,2.1l0.2-1c0.6-0.2,1.2-0.5,1.6-1.1c1.2-1.8,2.1-3.8,2.8-5.9
								c0-0.5,0.3-4.1,0.3-4.1c0.3-0.8,0.4-1.5,0.4-2.3c-0.1-1.3-0.2-2.5-0.4-3.7c0-0.9-0.4-1.9-1.1-2.5c-1.1-0.9-5.8-2.4-9.2-1.2
								s-4.8,3-5.5,5.6S89.1,43.3,89.1,43.3z"/>
							<path class="st8" d="M102.7,33.4c0.1,0.8,0.1,1.6,0,2.4c-0.2,0.4-1.3,2.1-1.3,2.1c-0.1,0.6-0.2,1.2-0.4,1.8
								c-0.2,0.2-0.4,0.4-0.6-0.3s0.1-2.7,0-3.3s0.1-1.3-0.8-1.6s-1.4,1.5-1.5,2.7c-0.2,1.1,0,2.2,0.3,3.3c-0.7,1.5-1.7,2.8-3,3.8
								c-0.4,0-0.8-0.1-1.2-0.3c-0.4-0.2-1.3,0.3-1.5,0.2s-1.2-0.6-1.2-0.6c-0.5,0.2-1,0.4-1.6,0.6c-0.4-0.1-0.9-0.2-1.3-0.4
								c0,0-3.1-5.3-3.3-6.7c-0.1-2.7,0.4-5.3,1.6-7.7c1.4-2.4,4.6-3.5,5.8-3.7c1,0,2,0.1,2.9,0.4c2.5-0.6,5.1,0.1,6.9,2
								c0.6,0.7,1.4,1.4,2.1,1.9c-0.4,0.2-0.7,0.3-1.1,0.4c0.3,0.5,0.5,1.1,0.4,1.7l-1.2-0.7C102.7,32.3,102.7,32.8,102.7,33.4z"/>
							<path class="st6" d="M101.4,52.9c-1-2-2.6-3.8-4.5-5c-3.8-2-7.7-1.2-8.9-0.3c-0.6,0.4-2.2,3.8-2.2,3.8L101.4,52.9z"/>
							<path class="st6" d="M110.5,57.6c0.9,0.7,1.3,1.7,1.2,2.8c1.2,1.3,2.3,2.7,3.3,4.1c0.8,1.4,2.1,4,2.1,4s1,0.3,5.7,5.4
								c1.1,0.1,2.1,0.7,2.8,1.6c1,1.5,10.6,5.6,13.4,6.3c0.3,1.9,0.1,3.8-0.8,5.6c-1.5,3.1-3.2,3.3-3.2,3.3S122.8,86,118.4,84
								c-3.6-1.9-6.9-4.2-10-6.9c0,0-1.2,14.9-1.2,16.6c0.1,3.4,0,17.7-0.3,21.6c-6.3,1.3-12.8,1.6-19.2,1
								c-9.5-1.1-13.9-4.2-13.9-4.2s1.9-13.5,3.4-22.8c0.1-0.7-0.1-8.5-0.1-8.5c-1.4,1.3-2.9,2.4-4.5,3.5c-2.1,1.5-4.9,1.7-7.2,0.5
								c-1.9-0.9-3-2.9-3-5c0.1-2.5,1-4.8,2.6-6.7c0,0,3.8-5.3,4.7-7.3c0.9-1.8,1.8-3.6,2.9-5.3c0,0,0.9-3.3,3.6-4.1
								c3.1-1.8,6.3-3.5,9.6-5c3.7-1.4,11-0.3,14.5,1.1C102.6,53.4,108.7,55.9,110.5,57.6z"/>
							<path class="st5" d="M77.2,80.8c0,0-0.7-7.7-0.8-10.5s-0.3-8-0.3-8"/>
							<path class="st5" d="M76.8,76.3c0,0-3.3,4.2-4.2,5.4"/>
							<path class="st5" d="M108.5,77.1c0,0-3.9-3.7-3.9-8.9c0-6,2.7-9,2.7-9c0.3-0.5,0.8-0.8,1.4-1"/>
							<path class="st5" d="M99.5,72.5c0,0,3.9,2,9,4.6"/>
							<path class="st5" d="M125.6,75.6c0.4,0.7,0.7,1.4,0.9,2.1"/>
							<path class="st5" d="M117.2,68.6c-1.3-0.7-2.6-1.3-4-1.7"/>
							<path class="st5" d="M98.3,80.8c2.8-0.7,5.5-1.5,8.1-2.6"/>
							<path class="st7" d="M68.5,87c0,0,9.1-26.8,10.9-30.3c1-1.7,2.4-3.2,4-4.3c0.3-0.3-0.6-0.3-0.6-0.3l-4,1.4
								c0,0-2.1,0.7-3.7,4.9c-2.3,6.2-9.9,27.5-9.9,27.5L68.5,87z"/>
							<path class="st5" d="M87.7,127c0,0-1.1,6.8-1.7,9.3"/>
							<line class="st3" x1="79.1" y1="33.5" x2="75" y2="16.3"/>
						</g>
					</g>
				</g>
			</g>
		</g>
	</g>
</g>
</svg>
