<svg xmlns="http://www.w3.org/2000/svg" viewBox="0 0 504.87 94.4"><defs><style>.cls-1{fill:#f1ff00;}.cls-2{fill:#f63402;}</style></defs><g id="レイヤー_2" data-name="レイヤー 2"><g id="枠"><rect class="cls-1" x="36.36" y="3.09" width="431.97" height="33.92"/><rect class="cls-1" x="51.57" y="53.97" width="401.54" height="33.92"/><path class="cls-2" d="M62.3,33.4a32.93,32.93,0,0,0-.88-3.26L56.93,15.45a35.05,35.05,0,0,1-1-3.91,2.61,2.61,0,0,0-.13.58c-.24.89-.68,2.65-.89,3.33L50.47,30.14a24.36,24.36,0,0,0-.88,3.26H47A24,24,0,0,0,46.05,30l-5.37-18.6a21.81,21.81,0,0,0-1.4-3.87h3.44a18.62,18.62,0,0,0,.64,3.53l4,14.76c.23.81.44,1.76.91,3.84.34-1.36.75-3,1-3.88L53.87,10.9a24.07,24.07,0,0,0,.78-3.33H57.2A23.19,23.19,0,0,0,58,10.9l4.55,14.89c.21.75.34,1.26,1,3.91l.92-3.91,4-14.69a21,21,0,0,0,.65-3.53h3.4a25.51,25.51,0,0,0-1.33,3.87L65.84,30A28.09,28.09,0,0,0,65,33.4Z"/><path class="cls-2" d="M98.24,33.64a22.28,22.28,0,0,0-3.81-.24h-10c-1.63,0-2.58,0-3.74.11a24,24,0,0,0,.27-4V11.34a25.66,25.66,0,0,0-.27-3.88c1.19.07,2.11.11,3.74.11h9.69A25.45,25.45,0,0,0,98,7.33v2.85A24,24,0,0,0,94.16,10H83.69v8.7h8.94a26.75,26.75,0,0,0,3.81-.24v2.86A23.07,23.07,0,0,0,92.63,21H83.69V31H94.46a25.31,25.31,0,0,0,3.78-.23Z"/><path class="cls-2" d="M111.43,33.4c-1.49,0-2.55,0-3.74.11a20.84,20.84,0,0,0,.31-4.22V11.1a20,20,0,0,0-.27-3.6c1,.07,1.73.07,3.7.07h7.24c4.93,0,7.69,2.24,7.69,6.25a5.78,5.78,0,0,1-1.84,4.56,6.92,6.92,0,0,1-2.69,1.36,6.25,6.25,0,0,1,3.3,1.42,6.39,6.39,0,0,1,2.11,5.1c0,4.56-3,7.14-8.19,7.14Zm7.21-14.75c3.16,0,5-1.67,5-4.52S122,9.88,118.6,9.88h-8v8.77Zm-8,12.44h8.19c3.7,0,5.68-1.77,5.68-5s-2-5.1-5.75-5.1h-8.12Z"/><path class="cls-2" d="M135.91,11.1c.65,0,1,0,1.23,0,.47,0,.88,0,1.93-.11,4.05-.3,14.93-.95,19.31-1.12a33.69,33.69,0,0,0,4.05-.37l.2,2.51a14.32,14.32,0,0,0-3.81.48,16.75,16.75,0,0,0-6.52,3.4c-2.72,2.28-4.18,5-4.18,7.85s1.73,5.14,4.76,6.29a17.41,17.41,0,0,0,5.1,1.09h.33l-.44,2.75c-.37-.06-.51-.1-1.05-.2a17,17,0,0,1-7.34-2.62,8.21,8.21,0,0,1-3.78-6.93c0-3.95,2.31-7.69,6.36-10.44a22.34,22.34,0,0,1,3.23-1.8,66.47,66.47,0,0,1-7.48.75c-7,.47-10.06.74-11.73,1.12ZM158.42,15a23.63,23.63,0,0,1,3.12,4.76l-1.73.88a20.87,20.87,0,0,0-3.06-4.82Zm3.29-1.6a23.79,23.79,0,0,1,3.13,4.76l-1.7.89a22.07,22.07,0,0,0-3.09-4.83Z"/><path class="cls-2" d="M185.38,24.56c-2,4.49-4,6.53-6.42,6.53-3.23,0-5.65-3.53-5.65-8.29a14.15,14.15,0,0,1,3.57-9.39,14.21,14.21,0,0,1,11-4.52,13.14,13.14,0,0,1,9.35,3.37,11.38,11.38,0,0,1,3.3,8.29,12.39,12.39,0,0,1-7.79,11.73,26,26,0,0,1-5.16,1.57,5.39,5.39,0,0,0-1.19-2.28A20.25,20.25,0,0,0,192,30a10.27,10.27,0,0,0,6-9.52,9,9,0,0,0-5.4-8.53,9.76,9.76,0,0,0-3.95-.85A51,51,0,0,1,185.38,24.56ZM181.2,12.7a11.75,11.75,0,0,0-5.54,10.13c0,3.26,1.43,5.78,3.26,5.78,1.43,0,2.79-1.6,4.25-4.93a46.83,46.83,0,0,0,3.09-12.58A10.72,10.72,0,0,0,181.2,12.7Z"/><path class="cls-2" d="M214.66,29a21.39,21.39,0,0,1-3.3,7,7.2,7.2,0,0,0-1.67-1.26,16.74,16.74,0,0,0,3.2-6.63Zm-1-1.7c-1.19,0-1.9,0-2.72.11.07-.65.11-1.91.11-3.51V10.32a33.47,33.47,0,0,0-.14-3.6c.82.06,1.53.1,2.79.1H217c1.15,0,1.9,0,2.61-.1a31.79,31.79,0,0,0-.1,3.36V24c0,1.87,0,2.82.1,3.44a26.06,26.06,0,0,0-2.65-.11ZM213,12.9h4.69V8.62H213Zm0,6h4.69V14.67H213Zm0,6.53h4.69V20.76H213Zm4.73,2.69a19.38,19.38,0,0,0,2.92,5.88A6.81,6.81,0,0,0,219,35.24,30.88,30.88,0,0,1,216.08,29Zm6.05-10.24a16.45,16.45,0,0,0-3.2.21V16.06a15.13,15.13,0,0,0,3.2.21h2V13.72h-1.09a15.83,15.83,0,0,0-2.82.17V12a20.58,20.58,0,0,0,2.82.14h1.09V9.84h-1.8A18.22,18.22,0,0,0,221,10V8a13.65,13.65,0,0,0,3,.2h1.77a10.56,10.56,0,0,0-.21-2.65h2.28a12.4,12.4,0,0,0-.2,2.65h5.17a9,9,0,0,0-.21-2.65h2.28a14,14,0,0,0-.2,2.65h2.17A15.05,15.05,0,0,0,239.71,8v2a18.57,18.57,0,0,0-2.85-.17h-2.21v2.32h1.49a20.38,20.38,0,0,0,2.79-.14v1.87a16,16,0,0,0-2.82-.17h-1.46v2.55H237a14.5,14.5,0,0,0,3.16-.21v2.08a15.91,15.91,0,0,0-3.19-.21h-5.82v2.35h4a28.51,28.51,0,0,0,3.3-.17,24.64,24.64,0,0,0-.17,3.33v5.34a8.48,8.48,0,0,0,2-.2v2a15.25,15.25,0,0,0-2-.14v2.82c0,2.11-.61,2.62-3.16,2.62-1.09,0-1.84,0-3.33-.1a7.67,7.67,0,0,0-.38-1.94,29.71,29.71,0,0,0,3.5.27c1.23,0,1.43-.13,1.43-.91V30.41h-12v2.14a29.34,29.34,0,0,0,.14,3.74h-2.21a36.58,36.58,0,0,0,.14-3.74V30.41a13.72,13.72,0,0,0-2.21.21v-2a19,19,0,0,0,2.21.17V23.51c0-1.26,0-2.11-.14-3.33.88.07,1.87.1,3.74.1h3.26V17.93Zm5.5,4h-4.93V24.5h4.93Zm0,4.15h-4.93v2.72h4.93Zm-1.66-13.9h5.17V9.84h-5.17Zm0,4.11h5.17V13.72h-5.17Zm8.7,8.23V21.91h-5.17V24.5Zm0,4.28V26.06h-5.17v2.72Z"/><path class="cls-2" d="M257.9,9.54c-.64,0-1.46.07-2.58.17V7.26a12.45,12.45,0,0,0,2.58.17h4.49a16.78,16.78,0,0,0,3.16-.2,17.84,17.84,0,0,0-.13,2.24,24.68,24.68,0,0,0,2.89,11.86,30.17,30.17,0,0,0,5.1,7,27.49,27.49,0,0,0,6.35,4.93,7.58,7.58,0,0,0-1.9,2.18,31.92,31.92,0,0,1-6.6-5.82,31.27,31.27,0,0,1-4.86-7.34A26.7,26.7,0,0,1,264.26,16a29.33,29.33,0,0,1-4.76,11,32.25,32.25,0,0,1-4.59,5.16,32.64,32.64,0,0,1-4.28,3.34,6.11,6.11,0,0,0-1.84-2,28.38,28.38,0,0,0,7.89-6.7A27.35,27.35,0,0,0,261.91,17,29.34,29.34,0,0,0,263,9.54Z"/><path class="cls-2" d="M291.84,27.05v2.07h-2.42a21,21,0,0,0,.21-3.06V13.48a18.63,18.63,0,0,0-.21-3.23,29.32,29.32,0,0,0,3.74.17h7.72V8.76a19.48,19.48,0,0,0-.24-3.51h2.65a19.93,19.93,0,0,0-.23,3.47v1.7h8.19a30.4,30.4,0,0,0,3.91-.17,20.78,20.78,0,0,0-.17,3.16V26.06a22.25,22.25,0,0,0,.2,3.06h-2.41V27.05h-9.72v5.13a19.56,19.56,0,0,0,.23,3.87h-2.65a23.23,23.23,0,0,0,.24-3.87V27.05Zm0-14.66v5.24h9V12.39Zm0,7.18v5.5h9v-5.5Zm11.22-1.94h9.72V12.39h-9.72Zm0,7.44h9.72v-5.5h-9.72Z"/><path class="cls-2" d="M331.92,7.09a53,53,0,0,0-.44,7.17c-.14,4.08-.24,8.71-.24,10.24,0,.4,0,1.25.07,2,.14,2,.58,3.16,1.6,4.08a6.41,6.41,0,0,0,4.25,1.32c4,0,7.17-2,9.11-5.91a20.17,20.17,0,0,0,1.66-5.34,9.78,9.78,0,0,0,2.45,1.63c-1.29,4-2.28,6-3.77,7.72A11.93,11.93,0,0,1,337,34.29c-2.89,0-5-.82-6.39-2.38s-1.87-3.4-1.87-7c0-2.28,0-3.13.31-13.84,0-1,0-1.66,0-2.21a9.72,9.72,0,0,0-.14-1.8Z"/><path class="cls-2" d="M359.84,18.48a13.74,13.74,0,0,0,2.61.17h2.08a16.32,16.32,0,0,0,2.62-.17,24.76,24.76,0,0,0-.17,3.57v6.63a5.36,5.36,0,0,0,2.85,3.06c1.63.85,3.61,1.09,8.87,1.09A89,89,0,0,0,391,32.15a11.09,11.09,0,0,0-.78,2.51c-3.16.14-7,.24-10,.24-5.67,0-7.75-.14-9.45-.65a8.35,8.35,0,0,1-5-3.8,34.55,34.55,0,0,1-3.51,3.09c-1,.82-1,.82-1.93,1.6l-1.12-2.28a24,24,0,0,0,5.6-4.08V20.59h-2.51a12.73,12.73,0,0,0-2.48.17Zm2.78-12.34a44.51,44.51,0,0,1,5.55,6.12l-1.74,1.53a33.19,33.19,0,0,0-5.37-6.26ZM374,9a16,16,0,0,0-2.72.17V6.89a15.23,15.23,0,0,0,2.75.17h3.47A16.41,16.41,0,0,0,380,6.92a11.06,11.06,0,0,0-.14,1.84,23.28,23.28,0,0,0,2.93,11.11,23.46,23.46,0,0,0,3.77,5.31,16.83,16.83,0,0,0,3.57,2.92A8.41,8.41,0,0,0,388.67,30a21.68,21.68,0,0,1-6.19-6.5c-1.84-2.78-2.65-4.89-3.64-9.28a22.33,22.33,0,0,1-1.6,6A24.07,24.07,0,0,1,373,27a22.57,22.57,0,0,1-2.68,2.48,9.09,9.09,0,0,0-1.67-1.67,19.21,19.21,0,0,0,4.52-4.48C376,19.5,377.48,14.77,377.65,9Z"/><path class="cls-2" d="M402.47,8.18a16.33,16.33,0,0,0,3.3.2c1.87,0,4.59-.1,5.71-.24a2.54,2.54,0,0,0,1.26-.4l1.8,1.42c-.44.62-.51.82-1.87,4.93-.75,2.31-1,3-1.6,4.76a26.65,26.65,0,0,1,9.28,2.69,38.17,38.17,0,0,0,.41-6.9,8.45,8.45,0,0,0-.13-1.67l2.55,0a11.47,11.47,0,0,0-.14,2.1,46.71,46.71,0,0,1-.61,7.38c1.83,1,3,1.56,4.66,2.55a6.1,6.1,0,0,0,1,.51l-.92,2.62a39.21,39.21,0,0,0-5.3-3.37,16.11,16.11,0,0,1-3.5,6.16,18.36,18.36,0,0,1-5.41,4.14,8.69,8.69,0,0,0-1.8-1.76,14.92,14.92,0,0,0,5.51-3.91,13.35,13.35,0,0,0,3.13-5.72,25.33,25.33,0,0,0-9.39-2.82,65.39,65.39,0,0,1-3.19,8.2c-1.23,2.34-2.48,3.36-4.12,3.36-2.55,0-4.48-2.41-4.48-5.57a7.66,7.66,0,0,1,4-6.74,11.22,11.22,0,0,1,6.12-1.46c1.12-3.33,1.53-4.62,2.72-8.56-2.68.2-3.19.23-6.42.34a17,17,0,0,0-2.49.17Zm0,14.75a5.67,5.67,0,0,0-1.63,3.91c0,1.8,1,3.23,2.21,3.23,1.39,0,2.55-2.11,5-9.35C405.53,20.93,403.83,21.57,402.47,22.93Z"/><path class="cls-2" d="M435.55,11.1c.65,0,1,0,1.23,0,.47,0,.88,0,1.94-.11,4-.3,14.92-.95,19.31-1.12a33.45,33.45,0,0,0,4-.37l.21,2.51a14.27,14.27,0,0,0-3.81.48,16.72,16.72,0,0,0-6.53,3.4c-2.72,2.28-4.18,5-4.18,7.85s1.73,5.14,4.76,6.29a17.47,17.47,0,0,0,5.1,1.09H458l-.44,2.75c-.38-.06-.51-.1-1.06-.2a17.14,17.14,0,0,1-7.34-2.62,8.23,8.23,0,0,1-3.77-6.93c0-3.95,2.31-7.69,6.35-10.44a22.88,22.88,0,0,1,3.23-1.8,65.94,65.94,0,0,1-7.48.75c-7,.47-10.06.74-11.73,1.12ZM458.06,15a24.08,24.08,0,0,1,3.13,4.76l-1.74.88a20.54,20.54,0,0,0-3.06-4.82Zm3.3-1.6a24.69,24.69,0,0,1,3.13,4.76l-1.7.89a22.48,22.48,0,0,0-3.1-4.83Z"/><path class="cls-2" d="M63.31,70.93c0-1.52,0-2.51.13-4.18a24.26,24.26,0,0,1-3.5,5,6.83,6.83,0,0,0-1.33-2A30.42,30.42,0,0,0,65,59.92a21.63,21.63,0,0,0,1.42-4.59l2.38.82a14.53,14.53,0,0,0-.57,1.49,52.7,52.7,0,0,1-2.76,6.12V82.32a27.42,27.42,0,0,0,.24,4H63.07a26.72,26.72,0,0,0,.24-4.08ZM77.55,59.34a29.5,29.5,0,0,0-.2-3.74h2.58a28.29,28.29,0,0,0-.2,3.78v3.16h6.08A25.25,25.25,0,0,0,89,62.4a22.74,22.74,0,0,0-.13,2.89v8a21.5,21.5,0,0,0,.17,3.54H86.76v-2h-7V82a31.06,31.06,0,0,0,.2,4.11H77.35a34,34,0,0,0,.2-4.08V74.81H71v2H68.71a23.79,23.79,0,0,0,.17-3.57v-8a22.52,22.52,0,0,0-.13-2.86,25,25,0,0,0,3.26.14h5.54ZM71,64.58V72.8h6.53V64.58ZM86.76,72.8V64.58h-7V72.8Z"/><path class="cls-2" d="M114.92,55.74a26.23,26.23,0,0,0,6.18,7.17,38.57,38.57,0,0,0,8.61,5.44,8.75,8.75,0,0,0-1.43,2.18,44.88,44.88,0,0,1-9-6.26,28.44,28.44,0,0,1-5.58-6.56,31,31,0,0,1-5,6.12,36.53,36.53,0,0,1-9,6.63,8.85,8.85,0,0,0-1.46-2,32.46,32.46,0,0,0,14.14-12.68ZM109.61,67a25.93,25.93,0,0,0-.2,3.19c-.1,8.4-2.31,12.48-8.67,15.95a6.11,6.11,0,0,0-1.8-2,12.91,12.91,0,0,0,5.78-4.19c1.66-2.21,2.45-5.27,2.45-9.72a19.82,19.82,0,0,0-.24-3.26Zm10.71,0a22.29,22.29,0,0,0-.24,3.5V82.09a24.64,24.64,0,0,0,.24,3.6H117.6a24.8,24.8,0,0,0,.24-3.57V70.46a22.65,22.65,0,0,0-.24-3.5Z"/><path class="cls-2" d="M151.87,60a98.72,98.72,0,0,1-11.15.89,6.05,6.05,0,0,0-.88-2.11,89.49,89.49,0,0,0,14.07-1.09,33,33,0,0,0,8.67-2.31l1.87,2a60.35,60.35,0,0,1-10.37,2.32v5.71h8.23a24.53,24.53,0,0,0,3.61-.21V67.6a27,27,0,0,0-3.61-.2h-8.23v5.34h9.73a24.3,24.3,0,0,0,3.57-.21V75a25.27,25.27,0,0,0-3.57-.21h-9.73V82.6c0,2.1-.81,2.68-3.7,2.68a50.35,50.35,0,0,1-5.1-.3,8.09,8.09,0,0,0-.61-2.35,37.2,37.2,0,0,0,5.78.58c1.09,0,1.42-.24,1.42-1V74.74H141.4a24.88,24.88,0,0,0-3.57.21V72.53a23.74,23.74,0,0,0,3.57.21h10.47V67.4h-8.56a29.21,29.21,0,0,0-3.61.2V65.22a24.53,24.53,0,0,0,3.61.21h8.56Z"/><path class="cls-2" d="M190.63,62.23a12.44,12.44,0,0,0,2.28-.13v2A12.12,12.12,0,0,0,190.6,64h-3.33a13.08,13.08,0,0,0,4.15,3.33A6.7,6.7,0,0,0,190.09,69,13.07,13.07,0,0,1,186,64.54a17.05,17.05,0,0,1,.14,2v1.9a6.5,6.5,0,0,0,.13,1.43h-2.21a5.84,5.84,0,0,0,.14-1.4v-1.9a14.52,14.52,0,0,1,.14-2c-1.74,3-3.06,4.32-6.4,6.69a6.29,6.29,0,0,0-1.49-1.63,19.26,19.26,0,0,0,5-3.87A12.67,12.67,0,0,0,182.85,64h-3.13a13.49,13.49,0,0,0-2.68.17V62.06a13.86,13.86,0,0,0,2.75.17h4.42V57.68A11.81,11.81,0,0,0,184,55.4h2.28a11.21,11.21,0,0,0-.17,2.28v4.55Zm-.91,21.56A22.84,22.84,0,0,0,186,81.44c-2.11,2-4.18,3.09-8.23,4.52a6.75,6.75,0,0,0-1.08-1.87,19.48,19.48,0,0,0,7.48-3.6A55.78,55.78,0,0,0,179,78.38a29.24,29.24,0,0,0,2.42-3.67h-2.08a11.07,11.07,0,0,0-2.41.17V72.74a11.09,11.09,0,0,0,2.41.17h3a15.06,15.06,0,0,0,1-2.69l2,.48c-.44,1.12-.58,1.46-.92,2.21h6.19a10.78,10.78,0,0,0,2.38-.17v2.14a11.42,11.42,0,0,0-2.45-.17H190a13.21,13.21,0,0,1-2.58,5.2,29.18,29.18,0,0,1,3.54,2Zm-9.93-27.71a23.17,23.17,0,0,1,2.55,4.49l-1.84.74a17.14,17.14,0,0,0-2.44-4.45Zm3.77,18.63c-.54,1-.88,1.46-1.73,2.79,1.84.71,2.48,1,3.77,1.56a10.86,10.86,0,0,0,2.31-4.35Zm8.77-17.88a25.68,25.68,0,0,1-3,4.86l-1.7-.85A16.47,16.47,0,0,0,190.5,56Zm15.2,7.2a14.2,14.2,0,0,0-2.89-.17,30.94,30.94,0,0,1-1.15,7.41,22.23,22.23,0,0,1-2.66,6.12,21.1,21.1,0,0,0,7.55,6.43,9,9,0,0,0-1.26,2.11,23.87,23.87,0,0,1-7.54-6.73,26.83,26.83,0,0,1-8.64,7,6.72,6.72,0,0,0-1.39-1.9,22,22,0,0,0,8.8-6.94,26.37,26.37,0,0,1-3.5-10,20.11,20.11,0,0,1-2.48,3.94,5.25,5.25,0,0,0-1.7-1.33,22.91,22.91,0,0,0,4.18-7.34,26.2,26.2,0,0,0,1.73-7.31l2.32.51c-.17.48-.17.48-.62,2.14s-.68,2.62-1.12,4h7.21a15.46,15.46,0,0,0,3.16-.21Zm-11.08-.17c-.14.31-.14.38-.31.75.75,4.73,1.63,7.62,3.44,10.81a24,24,0,0,0,2.55-7.61,24.79,24.79,0,0,0,.4-4Z"/><path class="cls-2" d="M219.57,69a17.4,17.4,0,0,0-3,.17V66.92a15.07,15.07,0,0,0,3,.17h2.69v-8a23.43,23.43,0,0,0-.21-3.64h2.48a23.56,23.56,0,0,0-.2,3.61v8.05h2a16.57,16.57,0,0,0,2.51-.13V69.1a18.1,18.1,0,0,0-2.55-.14h-1.86a20.06,20.06,0,0,0,4.86,6.29,11.13,11.13,0,0,0-1.19,1.84,20,20,0,0,1-4-6c.07,1.36.17,4.39.17,5v6.35a29,29,0,0,0,.2,3.74h-2.48a29.07,29.07,0,0,0,.21-3.77V76.68c0-1.56.06-3.47.17-5.27a25.79,25.79,0,0,1-5.24,9.72,7.48,7.48,0,0,0-1.29-1.9,21.38,21.38,0,0,0,4-5.71A28.08,28.08,0,0,0,221.85,69Zm-1-11.39a39.94,39.94,0,0,1,2.28,7.28l-1.8.78a30.09,30.09,0,0,0-2.25-7.27Zm11.15.65C228.21,63,228.21,63,227,65.63l-1.67-.78a25.15,25.15,0,0,0,2.48-7.38Zm11,.82a20.91,20.91,0,0,0-.21-3.57h2.59a23.61,23.61,0,0,0-.21,3.53V74.64l.51-.1a23.07,23.07,0,0,0,3.13-1l.41,2.38a23.55,23.55,0,0,0-3.27.57l-.78.21v5.68a25.52,25.52,0,0,0,.21,3.7h-2.59a19.82,19.82,0,0,0,.21-3.74V77.26l-8.95,2.17a25.21,25.21,0,0,0-3.16.92l-.44-2.41a18.69,18.69,0,0,0,3.26-.55l9.29-2.21Zm-9.08,7.41a30,30,0,0,1,6.08,5.16l-1.42,1.7a25.18,25.18,0,0,0-6.16-5.3Zm1-8.5a34.94,34.94,0,0,1,6.12,5.3L237.38,65a28.81,28.81,0,0,0-6.18-5.51Z"/><path class="cls-2" d="M255.61,72.67,257,56h14.51a45.78,45.78,0,0,0,6.12-.24v7c-2-.17-3.7-.24-6.05-.24H263.8l-.27,3.87A9.29,9.29,0,0,1,268.6,65a11.78,11.78,0,0,1,6.9,2c2.48,1.8,3.7,4.49,3.7,8,0,6.77-4.52,10.82-12.1,10.82-3.81,0-6.9-1-9.08-2.86-1.7-1.5-2.44-2.86-3.26-6l8.16-1.12a4.33,4.33,0,0,0,.75,1.8A3.73,3.73,0,0,0,266.8,79c2.51,0,4.07-1.46,4.07-3.84a3.69,3.69,0,0,0-4-3.91,4.65,4.65,0,0,0-2.76.81,2.77,2.77,0,0,0-1,1.4Z"/><path class="cls-2" d="M290.66,82.22a10.81,10.81,0,0,1-2.58-4,21.35,21.35,0,0,1-1.36-7.71,19.76,19.76,0,0,1,2.17-9.45,11.94,11.94,0,0,1,10.68-5.75,12.42,12.42,0,0,1,8.91,3.4,11.31,11.31,0,0,1,2.62,4,22.34,22.34,0,0,1,1.35,7.75c0,4.18-1,7.89-2.72,10.27a13.11,13.11,0,0,1-19.07,1.46ZM304,70.49c0-5.61-1.42-8.29-4.45-8.29s-4.45,2.72-4.45,8.33,1.46,8.22,4.45,8.22S304,76.14,304,70.49Z"/><path class="cls-2" d="M319.15,63.83a8.61,8.61,0,0,1,2.08-6.15,7.57,7.57,0,0,1,5.51-2.08,7.35,7.35,0,0,1,5.5,2.11,8.42,8.42,0,0,1,2,6c0,3.33-1.12,5.75-3.23,7.07A8.47,8.47,0,0,1,326.7,72C322,72,319.15,68.93,319.15,63.83ZM347,56.66,325,86.23l-1.73-1.36L345.2,55.3Zm-22.47,7.17c0,2.79.72,4,2.25,4S329,66.65,329,63.8s-.65-4-2.21-4S324.49,61,324.49,63.83ZM336,77.7a8.61,8.61,0,0,1,2.08-6.15,7.56,7.56,0,0,1,5.5-2.08,7.36,7.36,0,0,1,5.51,2.11,8.42,8.42,0,0,1,2,6c0,3.33-1.12,5.75-3.23,7.07a8.45,8.45,0,0,1-4.35,1.13C338.81,85.83,336,82.77,336,77.7Zm5.34,0c0,2.79.71,4,2.24,4s2.21-1.23,2.21-4.08-.64-4-2.21-4S341.32,74.88,341.32,77.7Z"/><path class="cls-2" d="M358,70.46c0-9.21,5.61-15.13,14.42-15.13s14.31,5.88,14.31,15-5.78,15.4-14.31,15.4C363.59,85.72,358,79.77,358,70.46Zm20.23,0c0-5.09-2.18-8.12-5.85-8.12s-5.91,3-5.91,8.12,2.24,8.27,5.91,8.27S378.21,75.56,378.21,70.42Z"/><path class="cls-2" d="M403.37,79.43a39.75,39.75,0,0,0,.27,5.58h-8.8a34.28,34.28,0,0,0,.31-5.44V61.21a37.11,37.11,0,0,0-.28-5.34c1.6.11,2.45.11,5.41.11h10.84a46.81,46.81,0,0,0,5.51-.24v7.65a48,48,0,0,0-5.47-.24h-7.79v4.66h6.22a46.7,46.7,0,0,0,5.48-.24v7.31a48.19,48.19,0,0,0-5.48-.24h-6.22Z"/><path class="cls-2" d="M432.82,79.43a38.26,38.26,0,0,0,.27,5.58h-8.81a34.28,34.28,0,0,0,.31-5.44V61.21a38.87,38.87,0,0,0-.27-5.34c1.59.11,2.45.11,5.4.11h10.85a46.62,46.62,0,0,0,5.5-.24v7.65a48,48,0,0,0-5.47-.24h-7.78v4.66H439a46.51,46.51,0,0,0,5.47-.24v7.31a48.12,48.12,0,0,0-5.47-.24h-6.22Z"/><path class="cls-2" d="M0,94.4V0H23.43c-5.74,7.81-7.91,11.66-10.18,18.09-3,8.4-4.35,17.59-4.35,29.06s1.38,20.66,4.35,29.16c2.27,6.42,4.44,10.18,10.18,18.09Z"/><path class="cls-2" d="M481.44,94.4c5.74-7.91,7.91-11.67,10.19-18.09,3-8.5,4.35-17.6,4.35-29.16s-1.39-20.66-4.35-29.06C489.35,11.66,487.18,7.81,481.44,0h23.43V94.4Z"/></g></g></svg>