<?xml version="1.0" encoding="UTF-8"?><svg xmlns="http://www.w3.org/2000/svg" viewBox="0 0 337.32 134.4"><defs><style>.d{fill:#fff;}</style></defs><g id="a"/><g id="b"><g id="c"><g><path class="d" d="M111.18,8.94v4.98c0,2.05-.48,3.35-1.45,3.88-.97,.54-4.51,1.98-10.63,4.32-6.12,2.34-12,5.1-17.62,8.28,2.17-2.64,4.14-4.59,5.93-5.86,1.79-1.27,4.2-2.86,7.25-4.76-2.64-.88-6.3-1.32-10.99-1.32-7.27,0-15.1,1.2-23.51,3.59-8.41,2.39-15.56,5.25-21.45,8.57-5.89,3.32-8.83,6.1-8.83,8.35,0,1.17,.89,2.14,2.68,2.89,1.79,.76,4.66,1.34,8.61,1.76,3.96,.42,8.89,.7,14.81,.84,5.92,.15,13.21,.22,21.88,.22,6.33,0,10.4,.2,12.22,.59,1.82,.39,2.72,1.29,2.72,2.71,0,1.81-1.07,3.87-3.21,6.19-2.14,2.32-4.97,3.7-8.48,4.14-5.45,.73-9.79,1.35-13.01,1.87-3.22,.51-7.05,1.38-11.47,2.6-4.42,1.22-9.33,2.98-14.72,5.27-8.03,3.52-14.3,7.08-18.81,10.69-4.51,3.61-6.77,6.81-6.77,9.59,0,2.39,1.61,4.26,4.83,5.6,3.22,1.34,7.85,2.01,13.89,2.01,20.8,0,41.98-7.79,63.54-23.36,.12,4.79-.51,9-1.89,12.63-1.38,3.64-4.17,7.12-8.39,10.44-3.52,2.78-8.66,5.44-15.42,7.98-6.77,2.54-14.15,4.56-22.15,6.08-8,1.51-15.51,2.27-22.54,2.27-8.14,0-14.88-1.62-20.21-4.87-5.33-3.25-8-7.56-8-12.93,0-3.91,1.29-7.79,3.87-11.65,2.58-3.86,6.53-7.56,11.87-11.1,5.33-3.54,12.08-6.75,20.26-9.63,8.17-2.88,17.59-5.15,28.26-6.81,1.52-.24,2.29-.63,2.29-1.17,0-.59-.89-.94-2.68-1.06-1.79-.12-5.07-.21-9.84-.26-4.78-.05-8.98-.22-12.61-.51-3.63-.29-7.47-.93-11.51-1.9-4.16-1.07-7.37-2.95-9.62-5.64-2.26-2.68-3.38-5.66-3.38-8.94,0-4.2,1.82-8.42,5.45-12.67,3.63-4.25,8.76-8.08,15.38-11.5,6.62-3.42,14.63-6.16,24.04-8.24,9.4-2.07,19.7-3.11,30.89-3.11,6.45,0,10.94,.31,13.49,.92,2.55,.61,4.03,1.42,4.44,2.42,.41,1,.62,2.87,.62,5.6Z"/><path class="d" d="M165.41,64.89c-10.31,9.57-15.47,16.24-15.47,20,0,2.1,1.02,3.15,3.08,3.15,1.7,0,3.91-.74,6.64-2.23,2.72-1.49,6.99-4.14,12.79-7.95v5.05c-8.32,6.84-14.71,11.77-19.16,14.8-4.45,3.03-8.09,4.54-10.9,4.54-4.8,0-7.21-2.64-7.21-7.91,0-1.56,.29-3.1,.88-4.61,.58-1.51,1.39-3.09,2.42-4.72,1.02-1.64,2.59-3.98,4.7-7.03,2.11-3.05,4.54-6.51,7.29-10.36-3.34,1.42-7.53,4.22-12.57,8.42-3.28,2.64-6.06,5.14-8.35,7.51-2.29,2.37-4.73,5.01-7.34,7.91-2.61,2.91-4.51,4.86-5.71,5.86-1.2,1-2.42,1.5-3.65,1.5-1.88,0-3.6-1.64-5.19-4.91-1.58-3.27-2.37-7.08-2.37-11.43,0-2.68,.37-4.78,1.1-6.3,.73-1.51,2.18-3.66,4.35-6.45,4.04-5.18,7.53-8.97,10.46-11.39,2.93-2.42,5.74-3.63,8.44-3.63,1.87,0,3.38,.27,4.53,.81,1.14,.54,1.71,1.37,1.71,2.49,0,.49-.18,1-.53,1.54-.35,.54-.75,1.03-1.19,1.46-.44,.44-1.36,1.29-2.77,2.56-9.26,8.55-13.89,14.09-13.89,16.63,0,1.42,.56,2.12,1.67,2.12,.7,0,2.07-.94,4.09-2.82,2.02-1.88,4.63-4.35,7.82-7.4,3.19-3.05,6.97-6.24,11.34-9.56,4.36-3.32,9.33-6.52,14.9-9.59,3.11-1.81,5.68-2.71,7.73-2.71,.94,0,1.86,1.07,2.77,3.22,.91,2.15,1.36,4.32,1.36,6.52,0,1.07-1.26,2.71-3.78,4.91Z"/><path class="d" d="M202.76,40.14h3.78c3.11-4.64,5.92-7.92,8.44-9.85,2.52-1.93,5.39-2.89,8.61-2.89s4.83,.61,4.83,1.83c0,.59-1.26,2.17-3.78,4.76-2.52,2.59-4.42,4.76-5.71,6.52,1.99,.2,3.76,.37,5.32,.51,1.55,.15,2.77,.27,3.65,.37-3.34,5.18-7.53,10.47-12.57,15.89-1.64-.1-3.02-.18-4.13-.26-1.11-.07-2.24-.15-3.38-.22-1.14-.07-2.54-.16-4.17-.26-3.16,4.25-5.82,8.05-7.95,11.39-2.14,3.35-3.78,6.41-4.92,9.19-1.14,2.78-1.71,5.42-1.71,7.91,0,3.37,1.61,5.05,4.83,5.05,2.23,0,5.14-.99,8.75-2.97,3.6-1.98,8.42-5.02,14.46-9.12v4.91c-15.82,14.31-27.51,21.46-35.07,21.46-2.64,0-4.76-.85-6.37-2.56-1.61-1.71-2.42-3.91-2.42-6.59,0-1.81,.45-3.96,1.36-6.45,.91-2.49,2.53-6.25,4.88-11.28-.82,.59-1.6,1.16-2.33,1.72-.73,.56-1.41,1.07-2.02,1.54-.62,.46-1.27,.95-1.98,1.46-.7,.51-1.41,1.04-2.11,1.57v-5.05c6.15-4.3,13.59-11.84,22.32-22.63-.88-.05-1.7-.08-2.46-.11-.76-.02-1.67-.04-2.72-.04-3.46,0-6.04,.2-7.73,.59-.7,.15-1.36,.31-1.98,.48-.62,.17-1.04,.26-1.27,.26s-.35-.15-.35-.44c0-1.61,1.2-4.03,3.6-7.25,1.93-2.73,3.76-4.76,5.49-6.08,1.73-1.32,3.84-2.21,6.33-2.67,2.49-.46,5.99-.7,10.5-.7Z"/><path class="d" d="M216.04,83.79v-4.76c3.16-3.12,5.57-5.79,7.21-7.98-1.88-.54-3.24-1.2-4.09-1.98-.85-.78-1.27-1.95-1.27-3.52,0-1.76,.88-3.98,2.64-6.66,1.76-2.68,3.92-5.2,6.5-7.54,2.58-2.34,4.92-3.86,7.03-4.54,.82-.34,1.61-.51,2.37-.51,1.17,0,1.76,.46,1.76,1.39,0,.83-.91,2.52-2.72,5.05,12.07-1.56,19.69-2.34,22.85-2.34,1.23,0,2.08,.1,2.55,.29,1,.44,1.82,1.46,2.46,3.08,.64,1.61,.97,3.22,.97,4.83,0,1.03-.54,2.14-1.63,3.33-1.08,1.2-2.94,2.94-5.58,5.24-3.11,2.78-5.71,5.81-7.82,9.08-2.11,3.27-3.16,5.74-3.16,7.4,0,2.3,1.7,3.44,5.1,3.44,3.57,0,9.79-3.03,18.63-9.08v4.91c-4.86,4.25-8.88,7.59-12.04,10.03-3.16,2.44-6.09,4.38-8.79,5.82-2.7,1.44-5.1,2.16-7.21,2.16-2.46,0-4.51-.94-6.15-2.82-1.64-1.88-2.46-4.6-2.46-8.17,0-2.1,.64-4.49,1.93-7.18,1.29-2.68,3.18-5.6,5.67-8.75,2.49-3.15,5.29-6.29,8.39-9.41-1.64,.29-3.49,.6-5.54,.92-2.05,.32-4.22,.65-6.5,.99-2.29,.34-4.04,.61-5.27,.81-3.63,6.06-8.91,11.55-15.82,16.48Z"/><path class="d" d="M309.99,81.01l-15.64,11.06c-7.44,5.42-12.42,8.13-14.94,8.13-2.29,0-4.69-2.18-7.21-6.56-2.52-4.37-3.78-8.19-3.78-11.46,0-2.78,.51-5.14,1.54-7.07,1.02-1.93,2.8-4.43,5.32-7.51,3.57-4.15,7-7.67,10.28-10.55,3.28-2.88,6.18-5.11,8.7-6.7,2.52-1.59,4.28-2.38,5.27-2.38,1.58,0,3.12,.68,4.61,2.05,1.49,1.37,2.24,2.78,2.24,4.25,0,.93-.81,2.42-2.42,4.47-1.61,2.05-4.16,4.65-7.65,7.8-3.49,3.15-8.34,6.92-14.55,11.32l-1.67,4.03c-.47,.78-.7,1.46-.7,2.05,0,1.32,.79,1.98,2.37,1.98s5.49-1.73,11.56-5.2c6.06-3.47,12.64-8.13,19.73-13.99,2.75-2.29,5.04-4.32,6.86-6.08,1.82-1.76,3.46-3.41,4.92-4.94,1.46-1.54,2.68-2.7,3.65-3.48,.97-.78,1.83-1.2,2.59-1.25,1.46-.15,2.61,.37,3.43,1.54,.82,1.17,1.23,2.91,1.23,5.2,0,1.32-.7,2.97-2.11,4.94-1.41,1.98-4.04,5.35-7.91,10.11-3.87,4.76-7.72,9.69-11.56,14.79-3.84,5.1-7.75,10.85-11.73,17.25,.18-.15,1.98-1.61,5.41-4.39,3.43-2.78,7.04-5.69,10.85-8.72,3.81-3.03,6.94-5.46,9.4-7.29,2.46-1.83,5.54-3.97,9.23-6.41v4.91c-7.91,7.08-15.07,13.79-21.49,20.14-6.42,6.35-11.37,11.43-14.85,15.23-3.49,3.81-5.52,6.03-6.11,6.66-1.58,1.71-3,3.31-4.26,4.8-1.26,1.49-2.32,2.64-3.16,3.44-.85,.81-1.54,1.21-2.07,1.21-1.23,0-2.33-1.01-3.3-3.04-.97-2.03-1.45-3.82-1.45-5.38,0-1.42,.32-2.66,.97-3.74,4.22-7.91,13.68-21.65,28.39-41.24Z"/></g></g></g></svg>