<?xml version="1.0" encoding="UTF-8"?><svg xmlns="http://www.w3.org/2000/svg" viewBox="0 0 319.62 108.47"><defs><style>.d{fill:#002fcd;}</style></defs><g id="a"/><g id="b"><g id="c"><g><path class="d" d="M47.78,52.26c2.18-3.55,3.32-5.84,3.41-6.89,.06-.66-.29-.95-1.04-.89-.4,.03-.59,1.23-5.7,3.58-5.11,2.35-8.28,3.58-9.49,3.68-.75,.07-1.1-.24-1.04-.93,.04-.45,.47-1.52,1.3-3.22l1.82-3.67,10.27-4.61c6.12-2.84,10.5-4.37,13.15-4.6,2.08-.18,3.05,.52,2.91,2.1-.05,.57-.41,1.51-1.08,2.82-.67,1.32-1.76,3.21-3.28,5.68-1.52,2.47-3.27,5.28-5.25,8.42-1.99,3.15-4.05,6.38-6.19,9.7,0,0-28.51,46.98-39.14,44.96C-2.2,106.39-.19,95.58,.91,93.75c1.1-1.83,3.48-3.3,4.03-3.3s-1.65,6.05-.37,8.61-.91,15.39,36.46-37.19l6.74-9.62Zm23.92-30.81c-.08,.9-.6,2.18-1.57,3.87-1.09,2.26-2.01,3.77-2.78,4.55-.76,.78-1.86,1.23-3.29,1.35-3.08,.27-4.54-.45-4.39-2.15,.12-1.34,1.24-3.35,3.36-6.02,1.12-1.43,2-2.33,2.64-2.69,.64-.37,1.63-.61,3-.73,2.15-.18,3.16,.42,3.04,1.83Z"/><g><path class="d" d="M89.81,62.33l-.27,3c-2.52,1.99-4.53,3.35-6.01,4.07-1.49,.72-3.57,1.14-6.24,1.25-5.06,5-9.37,7.65-12.91,7.95-2.01,.17-3.78-.22-5.33-1.18-1.55-.96-2.73-2.35-3.55-4.18-.81-1.82-1.12-3.92-.91-6.27,.17-1.91,1.12-4.09,2.85-6.55s3.89-4.8,6.49-7.02c2.59-2.22,5.33-4.07,8.19-5.55,2.87-1.47,5.48-2.31,7.84-2.52,1.68-.15,2.99-.04,3.92,.31,.93,.35,1.36,.91,1.29,1.69-.05,.6-.52,1.32-1.42,2.17,1.34,.12,2.23,.44,2.69,.95,.45,.51,.61,1.5,.48,2.96-.13,1.43-.69,3.27-1.69,5.52-1,2.25-2.28,4.39-3.85,6.41l.89,.72,.81-.07c.61-.05,1.22-.23,1.83-.54,.61-.3,1.17-.62,1.66-.94,.49-.32,1.57-1.04,3.23-2.16Zm-10.02-10.82c-3.1,1.75-5.77,3.32-7.99,4.71-2.22,1.39-4.12,2.77-5.7,4.13-1.58,1.37-2.67,2.69-3.29,3.99-1.19,3.42-1.8,5.26-1.82,5.53-.17,1.97,1.38,2.81,4.68,2.53,1.54-.13,4.21-1.46,8.03-3.98-.48-1.35-.67-2.67-.56-3.95,.17-1.88,.8-3.83,1.91-5.87,1.1-2.03,2.68-4.4,4.73-7.09Z"/><path class="d" d="M115.37,60.21l-.29,3.27c-3.8,4.03-7.29,7.12-10.47,9.27-3.18,2.15-5.82,3.32-7.93,3.5-2.94,.25-5.01-.84-6.21-3.28-1.2-2.44-1.67-5.18-1.4-8.23,.1-1.16,.34-2.29,.73-3.37,.38-1.08,.8-1.99,1.25-2.71,.46-.72,1.28-1.86,2.49-3.41,5.67-7.03,10.62-10.73,14.84-11.09,2.18-.19,3.21,.42,3.09,1.82-.08,.96-.92,2.51-2.52,4.66-1.59,2.15-2.98,3.71-4.17,4.67-3.34,2.77-5.52,4.69-6.56,5.76-1.04,1.07-1.61,2.23-1.72,3.48-.1,1.07,.31,1.93,1.21,2.56,.9,.63,2.12,.88,3.66,.75,1.68-.14,3.58-.82,5.69-2.02,2.11-1.2,4.88-3.08,8.31-5.62Zm-1.88-19.69c-.89,.08-1.72-.13-2.48-.63-.76-.5-1.09-1.18-1.02-2.04,.12-1.31,1-2.84,2.65-4.58,1.65-1.74,3.28-2.68,4.89-2.82,1.07-.09,1.94,.11,2.61,.6,.67,.49,.95,1.26,.86,2.3-.11,1.28-.97,2.76-2.58,4.44-1.61,1.68-3.25,2.59-4.93,2.73Z"/><path class="d" d="M151.8,49.04c-6.82,6.39-10.33,10.73-10.54,13.03-.11,1.28,.46,1.87,1.71,1.76,1.04-.09,2.43-.66,4.17-1.71,1.75-1.05,4.5-2.9,8.25-5.53l-.27,3.09c-5.46,4.62-9.63,7.96-12.51,10.05-2.88,2.08-5.19,3.2-6.9,3.35-2.94,.25-4.26-1.23-3.98-4.45,.08-.95,.35-1.91,.79-2.87,.44-.96,1.02-1.96,1.73-3.01,.71-1.05,1.8-2.57,3.25-4.54,1.45-1.98,3.13-4.21,5.02-6.72-2.12,1.04-4.83,2.98-8.14,5.81-2.15,1.78-3.98,3.46-5.51,5.03-1.52,1.57-3.16,3.31-4.91,5.22-1.75,1.91-3.02,3.21-3.81,3.88-.79,.67-1.56,1.04-2.31,1.11-1.15,.1-2.11-.81-2.9-2.73-.79-1.91-1.07-4.2-.83-6.85,.15-1.64,.48-2.94,1.01-3.91,.53-.96,1.53-2.35,3.01-4.17,2.75-3.37,5.09-5.88,7.01-7.51,1.92-1.63,3.71-2.52,5.35-2.66,1.15-.1,2.05-.01,2.72,.25,.67,.27,.97,.75,.91,1.43-.03,.3-.16,.62-.41,.97-.24,.35-.51,.67-.81,.96-.29,.29-.9,.86-1.83,1.71-6.12,5.71-9.25,9.34-9.39,10.89-.08,.87,.22,1.27,.91,1.21,.43-.04,1.31-.68,2.65-1.94,1.34-1.25,3.06-2.9,5.18-4.93,2.12-2.03,4.6-4.18,7.45-6.44,2.85-2.26,6.06-4.47,9.62-6.65,2-1.27,3.62-1.95,4.87-2.06,.57-.05,1.08,.56,1.52,1.82,.44,1.26,.6,2.57,.48,3.91-.06,.66-.92,1.72-2.58,3.2Z"/><path class="d" d="M211.51,48.91c-5.7,6.17-10.01,10.59-12.93,13.24-2.92,2.65-5.24,4.05-6.95,4.2-1.36,.12-2.57-.24-3.63-1.09-1.06-.84-1.84-2.03-2.32-3.57-.48-1.54-.65-3.22-.48-5.04,.11-1.19,.33-2.28,.69-3.26,.35-.98,.96-2.07,1.81-3.29,.85-1.21,1.96-2.54,3.31-3.99,1.36-1.45,3-3.1,4.94-4.96,1.17-1.14,2.15-2.09,2.95-2.87,.8-.78,1.56-1.33,2.28-1.64,.72-.31,1.87-.54,3.44-.67,1.15-.1,2.23-.07,3.24,.1,1.01,.17,1.51,.38,1.49,.65-.05,.54-.66,1.55-1.84,3.04-1.18,1.49-3.03,3.35-5.56,5.56-2.52,2.21-5.41,4.43-8.66,6.63-.84,1.82-1.3,3.19-1.38,4.11-.11,1.28,.42,1.87,1.6,1.77,.43-.04,1.17-.4,2.23-1.1,1.06-.7,2.85-2.02,5.39-3.97,2.54-1.95,4.81-3.68,6.83-5.18,1.49-1.13,3.24-2.79,5.26-4.96,2.02-2.17,3.65-3.81,4.89-4.93,2.86-2.56,4.8-4.22,5.83-5.01,1.03-.78,1.99-1.21,2.88-1.29,.86-.07,1.42,.1,1.69,.52,.26,.42,.34,1.32,.21,2.69-.06,.63-.17,1.14-.35,1.54-.18,.4-.52,.93-1.02,1.58-.5,.65-1.51,1.85-3.01,3.61-1.51,1.76-3.29,3.84-5.35,6.23-1.11,1.28-2.1,2.66-2.98,4.14-.88,1.48-1.35,2.58-1.41,3.3-.14,1.55,.53,2.26,2,2.14,1.22-.11,2.67-.64,4.35-1.62,1.69-.97,4.29-2.69,7.81-5.16l-.27,3c-4.48,3.58-7.78,6.19-9.92,7.83-2.14,1.63-3.97,2.89-5.5,3.76-1.54,.87-2.97,1.37-4.29,1.48-3.01,.26-4.38-1.1-4.11-4.09,.1-1.13,.68-2.7,1.75-4.7,1.07-2,2.76-4.91,5.09-8.72Z"/><path class="d" d="M227.94,51.76l.1-1.07c9.96-8.91,16.82-15.14,20.58-18.69,1.11-3.74,3.17-5.74,6.18-5.99,.75-.06,1.54,.04,2.37,.33l.25,.82c-.18,.37-.29,.88-.35,1.54-.05,.57,.12,1.6,.5,3.09,.38,1.49,.67,2.75,.86,3.77,.19,1.02,.23,2.19,.12,3.5-.17,1.97-.88,3.9-2.11,5.8-1.23,1.9-2.95,3.76-5.13,5.59-2.19,1.83-4.97,3.75-8.35,5.76,1.27,.07,2.29,.07,3.04,0,1.47-.13,3.08-.57,4.83-1.33,1.75-.76,3.56-1.73,5.43-2.91,1.86-1.18,4.05-2.69,6.56-4.54l-.27,3c-4.91,4.12-9.26,7.3-13.05,9.54-3.79,2.24-6.99,3.47-9.6,3.69-3.37,.29-6.38-.63-9.03-2.77-1.56-1.29-2.48-2.57-2.78-3.85-.3-1.28-.34-3.04-.14-5.27Zm20.64-8.57l-.39-6.45c-2.41,2.28-7.51,6.7-15.3,13.26,2.11,.2,3.54,.6,4.27,1.19,.73,.59,1.73,1.76,2.99,3.52,2.51-1.04,4.48-2.35,5.92-3.91,1.44-1.56,2.26-3.59,2.49-6.1,.03-.3,.04-.57,.05-.8,0-.24,0-.47-.02-.71Z"/><path class="d" d="M278.86,59.76c-1.07,.09-2.1-.21-3.06-.91-.97-.7-1.39-1.77-1.26-3.2,.17-1.88,.94-4.05,2.31-6.5,1.37-2.46,2.69-3.74,3.94-3.85,.79-.07,1.56,.09,2.33,.49,.76,.39,1.4,.98,1.9,1.77,.5,.79,.7,1.69,.61,2.7-.15,1.64-.98,3.61-2.5,5.9-1.52,2.29-2.94,3.5-4.26,3.61ZM310.46,.47c.77-.24,1.44-.39,2.01-.44,1.18-.1,2.45,.1,3.81,.6,1.36,.5,2.47,1.28,3.34,2.33-1.87,2.2-4.9,5.81-9.09,10.82-4.19,5.01-7.33,8.76-9.39,11.24-2.07,2.49-4.2,5.07-6.39,7.74-2.19,2.68-3.85,4.74-4.97,6.2,.67,.06,.98,.38,.93,.94-.03,.36-.51,1.01-1.43,1.94-.92,.94-1.72,1.44-2.4,1.5-.79,.07-1.74-.44-2.85-1.53-1.11-1.09-1.63-2.06-1.55-2.93,.04-.42,.38-1.16,1.02-2.22,.64-1.06,1.76-2.67,3.33-4.84,1.58-2.16,3.35-4.56,5.3-7.18,1.96-2.62,4.35-5.85,7.18-9.68,5.53-7.43,9.24-12.27,11.15-14.5Z"/></g></g></g></g></svg>