<?xml version="1.0" encoding="UTF-8"?><svg id="_レイヤー_1" xmlns="http://www.w3.org/2000/svg" viewBox="0 0 451.231 56.785"><defs><style>.cls-1{fill:#6a0000;}.cls-1,.cls-2,.cls-3,.cls-4,.cls-5,.cls-6{stroke-width:0px;}.cls-2{fill:#c40018;}.cls-3{fill:#c3ba9b;}.cls-4{fill:#231815;}.cls-5{fill:#251e1c;}.cls-6{fill:#746957;}</style></defs><path class="cls-4" d="M4.606,24.48c-.341.84-.748,1.706-1.22,2.533v9.185h-1.483v-6.929c-.354.459-.722.866-1.089,1.234-.144-.367-.551-1.22-.813-1.588,1.247-1.181,2.454-3.044,3.163-4.908l1.443.472ZM12.532,34.348v1.47H4.068v-1.47h3.491v-2.611h-2.769v-1.47h2.769v-2.283h-3.189v-1.47h3.727c-.643-.499-1.496-1.05-2.191-1.444l1.037-1.115c.971.512,2.31,1.325,2.966,1.903l-.578.656h3.005v1.47h-3.189v2.283h2.834v1.47h-2.834v2.611h3.386Z"/><path class="cls-4" d="M24.028,34.611c.709,0,.827-.276.932-1.811.354.276,1.076.538,1.549.643-.21,2.113-.696,2.703-2.349,2.703h-2.533c-1.916,0-2.441-.499-2.441-2.178v-1.627l-4.343.459-.184-1.509,4.527-.446v-1.325c-.932.144-1.863.263-2.755.354-.053-.394-.276-1.011-.459-1.365,2.559-.302,5.314-.814,6.994-1.535l1.221,1.286c-.958.38-2.086.695-3.281.945v1.47l5.289-.525.184,1.443-5.472.577v1.772c0,.59.118.669.893.669h2.23ZM16.522,28.22h-1.588v-3.084h4.737v-1.142h1.653v1.142h4.829v3.084h-1.666v-1.614h-7.965v1.614Z"/><path class="cls-4" d="M29.697,30.359c.591-.604,1.614-1.89,2.519-2.966.774-.918,1.548-1.063,2.572-.105.879.827,1.89,1.876,2.677,2.73.879.932,2.218,2.388,3.228,3.464l-1.443,1.549c-.879-1.089-1.995-2.441-2.768-3.346-.761-.905-1.929-2.178-2.401-2.664-.42-.42-.696-.394-1.076.079-.512.656-1.443,1.955-1.969,2.664-.302.42-.617.879-.853,1.22l-1.575-1.627c.394-.315.682-.604,1.089-.997ZM38.687,28.102l-1.181.512c-.381-.827-.709-1.47-1.194-2.139l1.142-.472c.368.538.945,1.496,1.234,2.1ZM40.484,27.328l-1.142.551c-.42-.827-.774-1.43-1.26-2.086l1.129-.512c.38.525.971,1.457,1.272,2.047Z"/><path class="cls-4" d="M48.87,32.144c2.244-1.325,3.95-3.333,4.776-5.105l1.023,1.85c-.997,1.771-2.743,3.582-4.855,4.855-1.326.801-3.019,1.535-4.869,1.85l-1.102-1.732c2.047-.289,3.753-.958,5.026-1.719ZM48.87,27.905l-1.339,1.365c-.682-.735-2.323-2.165-3.28-2.835l1.233-1.312c.918.617,2.624,1.981,3.386,2.782Z"/><path class="cls-4" d="M62.977,25.464c1.312-.184,2.651-.486,3.307-.787l1.076,1.443c-.446.105-.787.197-1.01.249-.643.17-1.417.315-2.205.433v2.086h3.307c.289,0,.905-.052,1.194-.079v1.693c-.354-.026-.8-.053-1.155-.053h-3.398c-.197,2.205-1.142,4.068-3.359,5.407l-1.667-1.142c1.994-.919,3.044-2.323,3.294-4.265h-3.609c-.407,0-.892.026-1.233.053v-1.693c.354.039.801.079,1.207.079h3.701v-1.864c-1.26.105-2.638.144-3.517.171l-.407-1.522c.997.026,3.031,0,4.475-.21Z"/><path class="cls-4" d="M76.126,27.761c.092.315.21.761.354,1.273,1.666-.315,3.503-.669,4.015-.787.236-.039.486-.118.669-.21l1.05.748c-.551,1.155-1.877,3.123-2.795,4.108l-1.444-.722c.669-.604,1.588-1.719,1.942-2.362-.315.053-1.627.328-3.044.617.499,1.811,1.063,3.832,1.26,4.514.079.223.249.814.354,1.076l-1.785.446c-.039-.355-.131-.788-.236-1.155-.197-.709-.735-2.756-1.207-4.541-1.102.236-2.06.433-2.454.525l-.407-1.575c.42-.039.774-.079,1.207-.158.184-.026.656-.105,1.26-.223-.131-.512-.249-.932-.341-1.221-.092-.341-.223-.656-.367-.932l1.758-.42c.053.302.131.656.21.997Z"/><path class="cls-4" d="M88.16,29.099h7.047c.617,0,1.194-.052,1.536-.079v2.06c-.315-.013-.984-.066-1.536-.066h-7.047c-.748,0-1.627.026-2.113.066v-2.06c.473.039,1.431.079,2.113.079Z"/><path class="cls-4" d="M293.714,19.548v1.408h-3.719v17.778h3.719v1.408h-5.633v-20.595h5.633Z"/><path class="cls-4" d="M303.546,20.956c-1.452,3.498-3.741,6.843-6.029,8.977-.418-.44-1.386-1.188-1.958-1.518,2.332-1.87,4.445-4.951,5.677-8.097l2.31.638ZM309.619,31.517c1.958,2.332,4.115,5.369,5.193,7.393l-2.09,1.122c-.264-.528-.594-1.122-.99-1.782-5.391.33-11.089.616-14.984.814l-.264-2.156c.902-.022,1.914-.066,3.014-.11,1.453-2.64,3.081-6.315,3.983-9.131l2.42.594c-1.145,2.75-2.663,5.963-4.049,8.449,2.685-.11,5.699-.242,8.669-.396-.902-1.342-1.914-2.728-2.86-3.895l1.958-.902ZM309.421,20.318c1.386,2.729,4.004,6.007,6.007,7.833-.55.418-1.32,1.21-1.738,1.782-2.024-2.134-4.643-5.721-6.293-8.757l2.024-.858Z"/><path class="cls-4" d="M331.002,25.665c.484,6.931,2.024,12.168,3.939,12.168.528,0,.792-1.188.924-4.049.462.484,1.232.968,1.804,1.166-.352,3.96-1.078,5.039-2.904,5.039-3.63,0-5.369-6.403-5.919-14.324h-11.155v-2.002h11.024c-.044-1.254-.088-2.53-.088-3.806h2.2c-.022,1.276,0,2.574.044,3.806h6.315v2.002h-6.183ZM324.182,36.05c1.452-.264,2.948-.572,4.423-.88l.154,1.848c-3.652.836-7.591,1.694-10.408,2.31l-.594-2.068c1.188-.198,2.706-.484,4.378-.792v-5.897h-3.652v-1.98h9.549v1.98h-3.851v5.479ZM333.357,19.856c1.078.704,2.42,1.782,3.059,2.53l-1.43,1.276c-.616-.77-1.893-1.914-2.971-2.684l1.342-1.122Z"/><path class="cls-4" d="M346.094,30.813c-.748.242-1.519.484-2.267.726v6.139c0,1.012-.198,1.562-.792,1.892-.594.308-1.452.374-2.86.374-.044-.484-.286-1.364-.55-1.892.88.022,1.694.022,1.937,0,.286,0,.396-.066.396-.374v-5.567c-.858.264-1.672.506-2.398.748l-.462-1.98c.792-.198,1.782-.484,2.86-.792v-4.181h-2.552v-1.892h2.552v-4.247h1.87v4.247h2.201v1.892h-2.201v3.631l2.002-.594.264,1.87ZM354.873,32.332c1.188,1.958,3.124,3.806,4.995,4.819-.418.352-1.034,1.056-1.342,1.518-1.716-1.078-3.477-2.927-4.752-4.951v6.073h-1.936v-6.117c-1.386,2.134-3.322,4.005-5.303,5.083-.33-.484-.924-1.21-1.386-1.562,2.134-.99,4.247-2.86,5.523-4.863h-4.203v-1.782h5.369v-2.354h1.936v2.354h5.478v1.782h-4.378ZM358.702,21.594c-3.168.902-7.899,1.43-11.882,1.65-.066-.484-.308-1.21-.528-1.672,3.873-.242,8.427-.792,11.046-1.562l1.364,1.584ZM348.052,28.525c-.176-1.1-.77-2.86-1.452-4.159l1.628-.462c.704,1.276,1.386,2.97,1.584,4.07l-1.76.55ZM351.88,27.755c-.044-1.034-.44-2.75-.946-4.071l1.716-.308c.528,1.276.99,2.926,1.056,3.982l-1.826.396ZM354.741,28.393c.902-1.408,2.046-3.697,2.684-5.347l1.914.704c-.902,1.848-2.068,3.961-3.014,5.303l-1.584-.66Z"/><path class="cls-4" d="M379.976,37.37c0,1.188-.286,1.804-1.078,2.112-.814.33-2.09.374-4.115.352-.088-.55-.418-1.452-.682-1.98,1.408.066,2.86.044,3.278.044.396,0,.55-.132.55-.55v-3.939h-5.325v6.293h-2.046v-6.293h-5.061c-.352,2.42-1.144,4.885-2.75,6.667-.308-.396-1.144-1.1-1.606-1.342,2.398-2.662,2.618-6.557,2.618-9.659v-7.833h16.217v16.128ZM370.558,31.474v-3.257h-4.775v.88c0,.748-.022,1.562-.088,2.376h4.863ZM365.783,23.2v3.102h4.775v-3.102h-4.775ZM377.929,23.2h-5.325v3.102h5.325v-3.102ZM377.929,31.474v-3.257h-5.325v3.257h5.325Z"/><path class="cls-4" d="M392.096,39.395l-1.87-1.76c4.115-1.518,6.051-3.411,6.051-9.241v-.88h-5.809v3.3c0,.902.066,1.826.11,2.134h-2.442c.022-.308.11-1.21.11-2.134v-3.3h-2.157c-1.034,0-1.936.044-2.288.088v-2.398c.286.066,1.276.176,2.288.176h2.157v-2.53c0-.55-.044-1.188-.132-1.76h2.486c-.044.286-.132.946-.132,1.76v2.53h5.809v-2.552c0-.88-.066-1.606-.11-1.914h2.486c-.044.33-.132,1.034-.132,1.914v2.552h2.068c1.078,0,1.782-.066,2.2-.132v2.333c-.352-.044-1.122-.066-2.178-.066h-2.09v.748c0,5.677-1.276,8.823-6.425,11.134Z"/><path class="cls-4" d="M415.68,25.951c2.289-1.408,4.621-3.454,6.117-5.237l1.849,1.76c-1.672,1.694-3.741,3.388-5.919,4.819v9.131c0,.902.044,2.112.154,2.597h-2.728c.066-.484.132-1.694.132-2.597v-7.657c-2.31,1.254-5.215,2.531-8.119,3.411l-1.078-2.179c3.851-1.034,7.151-2.53,9.593-4.049Z"/><path class="cls-4" d="M430.089,23.464c0-.704-.066-1.716-.198-2.464h2.707c-.066.726-.154,1.694-.154,2.464v3.433c2.926.88,7.107,2.442,9.308,3.52l-.99,2.398c-2.311-1.254-5.897-2.64-8.317-3.432v6.799c0,.682.066,2.024.176,2.816h-2.706c.11-.77.176-1.958.176-2.816v-12.718Z"/><path class="cls-4" d="M451.231,19.548v20.595h-5.633v-1.408h3.719v-17.778h-3.719v-1.408h5.633Z"/><polygon class="cls-3" points="169.469 18.928 153.929 34.468 146.819 27.358 137.355 36.822 153.929 53.397 178.933 28.393 169.469 18.928"/><rect class="cls-6" x="132.228" y="44.408" width="23.44" height="4.792" transform="translate(75.257 -88.078) rotate(45)"/><rect class="cls-1" x="149.979" y="19.161" width="5.159" height="10.867" transform="translate(27.293 115.079) rotate(-45)"/><polygon class="cls-2" points="167.689 17.148 150.541 0 122.148 28.393 131.612 37.857 150.541 18.928 158.225 26.612 167.689 17.148"/><polygon class="cls-5" points="196.934 12.229 196.934 9.567 184.659 9.567 184.659 12.229 189.214 12.229 189.214 25.918 192.379 25.918 192.379 12.229 196.934 12.229"/><path class="cls-5" d="M205.419,9.352c-4.944,0-7.666,2.563-7.666,7.216v2.35c0,4.653,2.722,7.216,7.666,7.216s7.696-2.563,7.696-7.216v-2.35c0-4.653-2.733-7.216-7.696-7.216ZM209.95,18.917c0,3.081-1.483,4.579-4.534,4.579-3.027,0-4.499-1.498-4.499-4.579v-2.35c0-3.081,1.471-4.579,4.499-4.579,3.051,0,4.534,1.498,4.534,4.579v2.35Z"/><path class="cls-5" d="M221.02,26.133c3.513,0,5.61-1.765,5.61-4.723,0-2.737-1.338-4.09-4.938-4.989-2.111-.528-3.333-1.108-3.333-2.514,0-1.219.882-1.918,2.421-1.918,1.576,0,2.507.461,3.287,1.638l2.361-1.686c-1.146-1.718-3.054-2.589-5.671-2.589-3.535,0-5.562,1.66-5.562,4.555,0,2.618,1.486,4.179,4.819,5.062,2.58.668,3.451,1.321,3.451,2.586,0,.725-.346,1.942-2.661,1.942-1.61,0-2.663-.471-3.614-1.621l-2.409,1.666c1.404,1.792,3.333,2.592,6.239,2.592Z"/><polygon class="cls-5" points="239.693 25.918 242.858 25.918 242.858 9.567 239.693 9.567 239.693 16.136 232.201 16.136 232.201 9.567 229.037 9.567 229.037 25.918 232.201 25.918 232.201 18.773 239.693 18.773 239.693 25.918"/><rect class="cls-5" x="246.783" y="9.567" width="3.164" height="16.35"/><polygon class="cls-5" points="264.118 25.918 266.777 25.918 266.777 9.567 263.78 9.567 263.78 20.161 256.507 9.567 253.872 9.567 253.872 25.918 256.869 25.918 256.869 15.47 264.118 25.918"/><polygon class="cls-5" points="204.126 30.868 201.093 37.154 198.084 30.868 194.42 30.868 199.511 40.529 199.511 47.218 202.675 47.218 202.675 40.529 207.767 30.868 204.126 30.868"/><path class="cls-5" d="M216.18,47.433c4.035,0,6.257-2.427,6.257-6.833v-9.733h-3.164v9.757c0,2.885-.954,4.171-3.093,4.171s-3.092-1.286-3.092-4.171v-9.757h-3.165v9.757c0,5.924,3.92,6.809,6.257,6.809Z"/><polygon class="cls-5" points="231.124 40.167 235.389 47.218 239.167 47.218 233.181 37.455 238.162 30.868 234.424 30.868 229.053 38.209 229.053 30.868 225.889 30.868 225.889 47.218 229.053 47.218 229.053 42.894 231.124 40.167"/><polygon class="cls-5" points="244.402 33.529 251.354 33.529 251.354 30.868 241.238 30.868 241.238 47.218 251.354 47.218 251.354 44.581 244.402 44.581 244.402 40.074 250.635 40.074 250.635 37.436 244.402 37.436 244.402 33.529"/><path class="cls-5" d="M192.379,44.245v-13.377h-3.165v13.377c0,2.724-.743,3.835-2.565,3.835h-1.99v2.637h2.205c3.71,0,5.514-2.117,5.514-6.473Z"/><polygon class="cls-5" points="264.118 47.218 266.777 47.218 266.777 30.868 263.78 30.868 263.78 41.461 256.507 30.868 253.872 30.868 253.872 47.218 256.869 47.218 256.869 36.77 264.118 47.218"/></svg>