<?xml version="1.0" encoding="UTF-8"?><svg id="_レイヤー_1" xmlns="http://www.w3.org/2000/svg" viewBox="0 0 259.328 101.819"><defs><style>.cls-1{fill:#6a0000;}.cls-1,.cls-2,.cls-3,.cls-4,.cls-5{stroke-width:0px;}.cls-2{fill:#c40018;}.cls-3{fill:#c3ba9b;}.cls-4{fill:#251e1c;}.cls-5{fill:#746957;}</style></defs><polygon class="cls-3" points="84.849 33.94 56.986 61.803 44.237 49.054 27.267 66.024 56.986 95.743 101.819 50.91 84.849 33.94"/><rect class="cls-5" x="18.074" y="79.625" width="42.029" height="8.593" transform="translate(70.79 -3.059) rotate(45)"/><rect class="cls-1" x="49.902" y="34.357" width="9.251" height="19.484" transform="translate(-15.212 51.473) rotate(-45)"/><polygon class="cls-2" points="81.657 30.747 50.91 0 0 50.91 16.97 67.88 50.91 33.94 64.687 47.717 81.657 30.747"/><polygon class="cls-4" points="134.095 21.927 134.095 17.155 112.086 17.155 112.086 21.927 120.253 21.927 120.253 46.472 125.927 46.472 125.927 21.927 134.095 21.927"/><path class="cls-4" d="M149.31,16.768c-8.864,0-13.746,4.595-13.746,12.939v4.213c0,8.343,4.882,12.939,13.746,12.939s13.799-4.595,13.799-12.939v-4.213c0-8.343-4.901-12.939-13.799-12.939ZM157.435,33.92c0,5.524-2.66,8.21-8.13,8.21-5.428,0-8.066-2.685-8.066-8.21v-4.213c0-5.524,2.639-8.21,8.066-8.21,5.471,0,8.13,2.685,8.13,8.21v4.213Z"/><path class="cls-4" d="M177.282,46.858c6.299,0,10.059-3.166,10.059-8.469,0-4.908-2.4-7.333-8.854-8.946-3.785-.946-5.976-1.987-5.976-4.508,0-2.185,1.582-3.439,4.341-3.439,2.826,0,4.494.826,5.893,2.937l4.233-3.024c-2.055-3.08-5.475-4.642-10.168-4.642-6.338,0-9.973,2.977-9.973,8.167,0,4.695,2.665,7.494,8.642,9.076,4.627,1.198,6.189,2.368,6.189,4.636,0,1.3-.62,3.482-4.772,3.482-2.886,0-4.776-.844-6.48-2.906l-4.32,2.987c2.517,3.212,5.977,4.647,11.187,4.647Z"/><polygon class="cls-4" points="210.765 46.472 216.439 46.472 216.439 17.155 210.765 17.155 210.765 28.933 197.332 28.933 197.332 17.155 191.658 17.155 191.658 46.472 197.332 46.472 197.332 33.662 210.765 33.662 210.765 46.472"/><rect class="cls-4" x="223.477" y="17.155" width="5.674" height="29.316"/><polygon class="cls-4" points="254.559 46.472 259.328 46.472 259.328 17.155 253.954 17.155 253.954 36.15 240.913 17.155 236.188 17.155 236.188 46.472 241.562 46.472 241.562 27.739 254.559 46.472"/><polygon class="cls-4" points="146.991 55.348 141.552 66.62 136.158 55.348 129.587 55.348 138.716 72.671 138.716 84.664 144.39 84.664 144.39 72.671 153.519 55.348 146.991 55.348"/><path class="cls-4" d="M168.604,85.051c7.235,0,11.219-4.351,11.219-12.251v-17.452h-5.674v17.495c0,5.173-1.71,7.479-5.545,7.479s-5.545-2.307-5.545-7.479v-17.495h-5.675v17.495c0,10.622,7.029,12.208,11.219,12.208Z"/><polygon class="cls-4" points="195.401 72.021 203.046 84.664 209.821 84.664 199.088 67.159 208.02 55.348 201.317 55.348 191.687 68.511 191.687 55.348 186.013 55.348 186.013 84.664 191.687 84.664 191.687 76.912 195.401 72.021"/><polygon class="cls-4" points="219.209 60.119 231.674 60.119 231.674 55.348 213.534 55.348 213.534 84.664 231.674 84.664 231.674 79.935 219.209 79.935 219.209 71.854 230.385 71.854 230.385 67.125 219.209 67.125 219.209 60.119"/><path class="cls-4" d="M125.928,79.334v-23.986h-5.675v23.986c0,4.885-1.333,6.877-4.599,6.877h-3.568v4.729h3.955c6.653,0,9.887-3.797,9.887-11.606Z"/><polygon class="cls-4" points="254.559 84.664 259.328 84.664 259.328 55.348 253.954 55.348 253.954 74.342 240.913 55.348 236.188 55.348 236.188 84.664 241.562 84.664 241.562 65.932 254.559 84.664"/></svg>