<svg id="レイヤー_1" data-name="レイヤー 1" xmlns="http://www.w3.org/2000/svg" xmlns:xlink="http://www.w3.org/1999/xlink" viewBox="0 0 461.449 197.876"><defs><style>.cls-1,.cls-11{fill:none;}.cls-2{fill:#ffffd8;}.cls-3{fill:#ffd672;}.cls-4{fill:#231815;}.cls-5{clip-path:url(#clip-path);}.cls-6{fill:#d7c7a6;}.cls-7{fill:#d4ba93;}.cls-8{fill:#727171;}.cls-17,.cls-9{fill:#fff;}.cls-10{fill:#d4d5d5;}.cls-10,.cls-11,.cls-13,.cls-17,.cls-18{stroke:#727171;stroke-linecap:round;stroke-linejoin:round;}.cls-11,.cls-13{stroke-width:1.5px;}.cls-12,.cls-13{fill:#d6be99;}.cls-14{fill:#d0c8bd;}.cls-15{fill:#dce5b1;}.cls-16{fill:#40647e;}.cls-17,.cls-18{stroke-width:1.063px;}.cls-18{fill:#d3de00;}</style><clipPath id="clip-path"><rect class="cls-1" x="160.002" y="2.266" width="185.461" height="137.667"/></clipPath></defs><rect class="cls-1" width="380" height="155"/><circle class="cls-2" cx="89.2" cy="74.766" r="57"/><path class="cls-3" d="M89.2,18.266a56.5,56.5,0,1,1-56.5,56.5,56.564,56.564,0,0,1,56.5-56.5m0-1a57.5,57.5,0,1,0,57.5,57.5,57.5,57.5,0,0,0-57.5-57.5Z"/><path class="cls-4" d="M66.7,63.425c-.156.026-.208.04-.39.079a22.436,22.436,0,0,1-2.3.389v2.249a9.252,9.252,0,0,1,2.8-.468,4.4,4.4,0,0,1,2.3.547,2.675,2.675,0,0,1-1.313,4.992,1.917,1.917,0,0,1-2-1.469,4.713,4.713,0,0,1-.156-1.469,2.818,2.818,0,0,0,.858-.338,3.861,3.861,0,0,0-.026.507c0,1.352.39,1.911,1.339,1.911a1.726,1.726,0,0,0,1.742-1.833c0-1.274-1.079-2.068-2.782-2.068a8.786,8.786,0,0,0-2.757.508v3.25c0,.7-.312,1.04-.948,1.04a3.431,3.431,0,0,1-2.145-.832,1.566,1.566,0,0,1-.6-1.222,2.354,2.354,0,0,1,1.027-1.729A6.954,6.954,0,0,1,63.176,66.4V63.945c-.116.013-.116.013-.52.04C62.422,64,62.2,64,61.824,64c-.2,0-.546,0-.689-.012H60.6v-.859a7.37,7.37,0,0,0,1.326.091c.351,0,.859-.013,1.248-.039V61.891a8.492,8.492,0,0,0-.065-1.235h.962a7.435,7.435,0,0,0-.065,1.209v1.248a13.15,13.15,0,0,0,2.653-.559Zm-3.524,3.836c-1.286.624-2.015,1.326-2.015,1.95,0,.273.182.533.559.78a2.431,2.431,0,0,0,1.157.377c.261,0,.3-.078.3-.637Zm7.138-2.445a10.665,10.665,0,0,0-2.626-2.548l.676-.507a10.908,10.908,0,0,1,2.626,2.471Z"/><path class="cls-4" d="M72.407,71.135a5.346,5.346,0,0,0,.87-1.17,6.228,6.228,0,0,0,.624-1.56l.742.273a7.678,7.678,0,0,1-1.535,2.938Zm9.113-7.788c.338,0,.611-.013.9-.038a6.6,6.6,0,0,0-.039.753v2.925a6.556,6.556,0,0,0,.039.768c-.338-.026-.585-.039-.858-.039h-6.41a7.8,7.8,0,0,0-1.091.065v-.806a8.27,8.27,0,0,0,1.091.051h6.436V65.831H75.357a7.436,7.436,0,0,0-1.091.065V65.1a8.073,8.073,0,0,0,1.091.052h6.228V64.037h-5.72a8.432,8.432,0,0,0-1.04.051v-.6a11.522,11.522,0,0,1-1.768,1.392,2.543,2.543,0,0,0-.573-.6,10.591,10.591,0,0,0,2.549-2.054A7.37,7.37,0,0,0,76.4,60.11l.936.234c-.156.234-.156.234-.585.858h2.314a6,6,0,0,0,1.105-.065l.4.468c-.1.117-.442.572-.611.806a9.691,9.691,0,0,1-.728.936Zm-3.224,0a8.5,8.5,0,0,0,1.144-1.469H76.281a9.949,9.949,0,0,1-1.261,1.431,8.159,8.159,0,0,0,.845.038ZM76.489,70.5c0,.325.065.429.312.494a6.9,6.9,0,0,0,1.339.078c1.677,0,2.054-.052,2.223-.286a2.543,2.543,0,0,0,.273-1.287,2.425,2.425,0,0,0,.819.312c-.286,1.9-.455,2-3.341,2a6.562,6.562,0,0,1-1.95-.169c-.364-.143-.481-.377-.481-.988V69.315a7.355,7.355,0,0,0-.078-1.131h.962a5.258,5.258,0,0,0-.078,1.131Zm2.678-.39a8.716,8.716,0,0,0-1.846-1.625l.585-.468a10,10,0,0,1,1.82,1.534Zm2.873-1.833a16.964,16.964,0,0,1,1.976,2.6l-.715.546a10.673,10.673,0,0,0-1.924-2.7Z"/><path class="cls-4" d="M85.953,62.762c.312.027.532.039.975.039a23.342,23.342,0,0,0,3.081-.2,14.7,14.7,0,0,0-.78-1.781l.975-.156a11,11,0,0,0,.689,1.833,15.5,15.5,0,0,0,2.639-.6l.117.806c-1.209.274-2.015.429-2.483.494.156.338.6,1.222.741,1.482a13.674,13.674,0,0,0,2.977-.819l.1.885a5.161,5.161,0,0,0-.7.169c-1,.247-1.638.389-2.041.468a15.424,15.424,0,0,0,1.911,2.587l-.767.546a3.525,3.525,0,0,0-1.43-.494,11.122,11.122,0,0,0-1.716-.13c-1.872,0-3.081.585-3.081,1.482,0,.858.987,1.339,2.782,1.339a8.579,8.579,0,0,0,3.848-.884l.182,1.027c-.143.026-.182.039-.3.065-.039.013-.208.065-.481.156a11.328,11.328,0,0,1-3.328.481,5.209,5.209,0,0,1-2.678-.546A1.853,1.853,0,0,1,86.2,69.38a1.9,1.9,0,0,1,1.04-1.625,5.92,5.92,0,0,1,2.938-.611,7.49,7.49,0,0,1,2.626.39,12.854,12.854,0,0,1-1.391-2,28.643,28.643,0,0,1-4.563.378c-.638.026-.677.026-.91.052l-.026-.871a6.949,6.949,0,0,0,1.04.052,25.9,25.9,0,0,0,4.1-.326c-.325-.61-.429-.819-.741-1.482a29.474,29.474,0,0,1-3.511.235,5.72,5.72,0,0,0-.8.025Zm8.268-2.223a9.869,9.869,0,0,1,1.339,2.015l-.663.391a9.15,9.15,0,0,0-1.326-2.068Zm1.469-.715a10.951,10.951,0,0,1,1.339,2.028l-.65.377a9.591,9.591,0,0,0-1.326-2.041Z"/><path class="cls-4" d="M101.734,67.664c-.754,1.716-1.521,2.5-2.457,2.5-1.235,0-2.158-1.352-2.158-3.173a5.281,5.281,0,0,1,5.565-5.317,5.033,5.033,0,0,1,3.575,1.287,4.354,4.354,0,0,1,1.261,3.173,4.733,4.733,0,0,1-2.978,4.485,10.036,10.036,0,0,1-1.976.6,2.054,2.054,0,0,0-.455-.871,7.782,7.782,0,0,0,2.171-.611,3.925,3.925,0,0,0,2.3-3.64,3.429,3.429,0,0,0-2.067-3.264,3.763,3.763,0,0,0-1.509-.325A19.5,19.5,0,0,1,101.734,67.664Zm-1.6-4.538A4.5,4.5,0,0,0,98.016,67c0,1.248.547,2.21,1.248,2.21.547,0,1.066-.611,1.625-1.885a17.863,17.863,0,0,0,1.183-4.811A4.117,4.117,0,0,0,100.135,63.126Z"/><path class="cls-4" d="M114.357,61.514a7.285,7.285,0,0,0-.09-1.144h1.04a6.248,6.248,0,0,0-.078,1.144v.975h3.978a9.133,9.133,0,0,0,1.5-.091v.975a8.239,8.239,0,0,0-1.469-.077h-4.927a18.543,18.543,0,0,1-.182,1.858h3.549a8.31,8.31,0,0,0,1.339-.064c-.026.26-.039.4-.065.91a27.2,27.2,0,0,1-.494,4.433c-.273,1.118-.585,1.391-1.625,1.391-.416,0-1.105-.039-1.807-.117a2.884,2.884,0,0,0-.208-.923,10.513,10.513,0,0,0,1.962.208c.559,0,.69-.156.885-1.118a24.928,24.928,0,0,0,.4-3.939h-4.082a8.751,8.751,0,0,1-1.235,3.328,8.3,8.3,0,0,1-1.613,1.794,7.742,7.742,0,0,1-1.417.949,2.516,2.516,0,0,0-.637-.728,6.73,6.73,0,0,0,2.639-2.106c1.067-1.378,1.574-3.146,1.678-5.876h-2.73a10.127,10.127,0,0,0-1.457.077V62.4a8.765,8.765,0,0,0,1.443.091h3.7Z"/><path class="cls-4" d="M50.43,90.044a9.31,9.31,0,0,0-1.43.065,5.969,5.969,0,0,1,.377-1.716,5.706,5.706,0,0,1,1.69-2.236,17.73,17.73,0,0,1,1.989-1.431c1.287-.87,1.716-1.443,1.716-2.236,0-.988-.832-1.625-2.158-1.625a2.15,2.15,0,0,0-1.885.845,2.631,2.631,0,0,0-.455,1.314l-1.092-.183A3.535,3.535,0,0,1,50,80.969a3.323,3.323,0,0,1,2.613-1c1.963,0,3.224.988,3.224,2.522a2.714,2.714,0,0,1-.767,1.847,10.247,10.247,0,0,1-2.21,1.677,7.06,7.06,0,0,0-1.872,1.6,3.643,3.643,0,0,0-.741,1.508H54.4a11.349,11.349,0,0,0,1.586-.091v1.092a14.619,14.619,0,0,0-1.6-.078Z"/><path class="cls-4" d="M67.655,91.11v-.767H58.776v.767h-.923a11.136,11.136,0,0,0,.078-1.56V81.5a14.254,14.254,0,0,0-.078-1.6,12.819,12.819,0,0,0,1.521.064h7.657a13.315,13.315,0,0,0,1.548-.064,13.707,13.707,0,0,0-.078,1.6v8.074a10.086,10.086,0,0,0,.078,1.534Zm-8.879-1.521h8.879V80.722H58.776Zm5.551-6.839a11.63,11.63,0,0,0,1.352-.052,6.7,6.7,0,0,0-.052,1v2.835a7.043,7.043,0,0,0,.052,1,12.99,12.99,0,0,0-1.352-.052H62.039a10.931,10.931,0,0,0-1.352.052,7.393,7.393,0,0,0,.052-1V83.7a7.527,7.527,0,0,0-.052-1,11.63,11.63,0,0,0,1.352.052Zm-2.782,4.018h3.276v-3.3H61.545Z"/><path class="cls-4" d="M78.472,79.981a9.5,9.5,0,0,0,1.351-.065,8.293,8.293,0,0,0-.065,1.2V89.6a9.886,9.886,0,0,0,.078,1.378h-.948v-.858h-6.7v.858h-.949a9.186,9.186,0,0,0,.078-1.326V81.2a9.194,9.194,0,0,0-.065-1.287,10.613,10.613,0,0,0,1.392.065Zm.416,3.043V80.787h-6.7v2.237Zm-6.7,3.107h6.7V83.8h-6.7Zm0,3.2h6.7V86.91h-6.7Z"/><path class="cls-4" d="M83.567,81.112a7.567,7.567,0,0,0-.1-1.365H84.5a8.392,8.392,0,0,0-.078,1.222v.156l.065,6.592c.715-.286,1.144-.481,1.7-.754a15.937,15.937,0,0,0,1.989-1.093l.169.807a29.674,29.674,0,0,1-5.1,2.431,5.9,5.9,0,0,0-.767.325l-.286-.949a11.944,11.944,0,0,0,1.43-.429Zm9-1.378a10.323,10.323,0,0,0-.1,1.287,19.916,19.916,0,0,1-.584,3.433,9.568,9.568,0,0,1-1.041,2.366,8.24,8.24,0,0,0,3.186,3.289,3.146,3.146,0,0,0-.585.832,9.6,9.6,0,0,1-2-1.807,9.031,9.031,0,0,1-1.092-1.56,10.386,10.386,0,0,1-4.758,3.471,2.555,2.555,0,0,0-.559-.78,11.263,11.263,0,0,0,2.6-1.287,8.325,8.325,0,0,0,3.549-5.149,14.2,14.2,0,0,0,.416-3.445,4.989,4.989,0,0,0-.039-.676Zm-5.681.9A19.438,19.438,0,0,1,89.4,83.738l-.78.547a14.851,14.851,0,0,0-2.457-3.173Z"/><path class="cls-4" d="M99.557,80.176c-.078.144-.078.144-.494,1.04a18.312,18.312,0,0,1-1.131,2.158,5.3,5.3,0,0,1,.988,1.612,4.047,4.047,0,0,1,.273,1.431,1.49,1.49,0,0,1-.533,1.313,2.116,2.116,0,0,1-1.066.195c-.143,0-.364-.013-.624-.026a2.408,2.408,0,0,0-.169-.793,3.663,3.663,0,0,0,.806.078c.65,0,.78-.156.78-.962a3.631,3.631,0,0,0-.572-1.821,5.083,5.083,0,0,0-.754-.948,13.355,13.355,0,0,0,1.469-3H96.5v9.374a10.41,10.41,0,0,0,.065,1.209h-.949a8.458,8.458,0,0,0,.078-1.209V80.67c0-.35-.013-.65-.039-.988a2.62,2.62,0,0,0,.377.039h2.288a4.017,4.017,0,0,0,.806-.052Zm1.066,6.2a5.2,5.2,0,0,0-.988.065V85.6a5.293,5.293,0,0,0,1.04.066h2.717v-.234a6.708,6.708,0,0,0-.065-1h.9a6.182,6.182,0,0,0-.065,1v.234h1.118A6.151,6.151,0,0,0,106.4,85.6v.846a6.621,6.621,0,0,0-1.119-.065h-1.118v1.781h1.677a6.491,6.491,0,0,0,1.131-.065v.845a7.473,7.473,0,0,0-1.183-.065h-1.625v1.118a7.064,7.064,0,0,0,.078,1.118h-.923a7.062,7.062,0,0,0,.078-1.118V88.874h-3.315a7.552,7.552,0,0,0-1.2.065v-.845a5.268,5.268,0,0,0,1,.065h.741Zm3.913-6.162a5.65,5.65,0,0,0,.923-.053l.456.469a10.9,10.9,0,0,1-2.185,2.326,10.117,10.117,0,0,0,3.419,1.365,2.791,2.791,0,0,0-.39.728,11.4,11.4,0,0,1-3.627-1.637,13.18,13.18,0,0,1-3.614,1.768,2.741,2.741,0,0,0-.481-.7,11.65,11.65,0,0,0,3.484-1.522,9.353,9.353,0,0,1-1.4-1.443,8.775,8.775,0,0,1-1.638,1.352,2.111,2.111,0,0,0-.546-.585,6.967,6.967,0,0,0,2.652-2.509,4.034,4.034,0,0,0,.364-.7l.832.221c-.286.468-.364.612-.585.924Zm-1.144,7.943V86.378H101.4v1.781Zm-1.781-7.177a7.778,7.778,0,0,0,1.508,1.547,9.185,9.185,0,0,0,1.638-1.625h-3.081Z"/><path class="cls-4" d="M112.973,86.664c-.754,1.716-1.521,2.5-2.457,2.5-1.235,0-2.158-1.352-2.158-3.173a5.281,5.281,0,0,1,5.564-5.317,5.033,5.033,0,0,1,3.575,1.287,4.354,4.354,0,0,1,1.261,3.173,4.732,4.732,0,0,1-2.977,4.485,10.057,10.057,0,0,1-1.976.6,2.066,2.066,0,0,0-.455-.871,7.793,7.793,0,0,0,2.171-.611,3.924,3.924,0,0,0,2.3-3.64,3.429,3.429,0,0,0-2.067-3.264,3.754,3.754,0,0,0-1.508-.325A19.5,19.5,0,0,1,112.973,86.664Zm-1.6-4.538A4.5,4.5,0,0,0,109.255,86c0,1.248.546,2.21,1.248,2.21.546,0,1.066-.611,1.625-1.885a17.863,17.863,0,0,0,1.183-4.811A4.117,4.117,0,0,0,111.374,82.126Z"/><path class="cls-4" d="M125.6,80.514a7.156,7.156,0,0,0-.091-1.144h1.04a6.339,6.339,0,0,0-.078,1.144v.975h3.978a9.124,9.124,0,0,0,1.5-.091v.975a8.219,8.219,0,0,0-1.468-.077h-4.928a17.972,17.972,0,0,1-.182,1.858h3.55a8.31,8.31,0,0,0,1.339-.064c-.026.26-.04.4-.065.91a27.187,27.187,0,0,1-.5,4.433c-.272,1.118-.585,1.391-1.625,1.391-.416,0-1.105-.039-1.807-.117a2.832,2.832,0,0,0-.208-.923,10.524,10.524,0,0,0,1.964.208c.558,0,.689-.156.883-1.118a24.692,24.692,0,0,0,.4-3.939h-4.082a8.734,8.734,0,0,1-1.235,3.328,8.267,8.267,0,0,1-1.612,1.794,7.778,7.778,0,0,1-1.417.949,2.516,2.516,0,0,0-.637-.728,6.737,6.737,0,0,0,2.639-2.106c1.066-1.378,1.573-3.146,1.677-5.876H121.9a10.111,10.111,0,0,0-1.456.077V81.4a8.749,8.749,0,0,0,1.443.091h3.7Z"/><g class="cls-5"><polygon class="cls-6" points="461.449 197.876 55.638 197.876 86.396 110.195 324.189 110.195 461.449 197.876"/><rect class="cls-7" x="198.92" y="8.721" width="40.38" height="101.107"/><rect class="cls-7" x="188.085" y="8.721" width="15.969" height="101.107"/><path class="cls-8" d="M238.676,8.722v100.7H188.65V8.722h50.026m1.5-1.5H187.15v103.7h53.026V7.222Z"/><rect class="cls-9" x="205.317" y="18.759" width="16.293" height="12.319"/><path class="cls-8" d="M220.86,19.509V30.328H206.067V19.509H220.86m1.5-1.5H204.567V31.828H222.36V18.009Z"/><rect class="cls-9" x="205.317" y="41.541" width="16.293" height="12.319"/><path class="cls-8" d="M220.86,42.291V53.11H206.067V42.291H220.86m1.5-1.5H204.567V54.61H222.36V40.791Z"/><rect class="cls-9" x="205.317" y="64.324" width="16.293" height="12.319"/><path class="cls-8" d="M220.86,65.074V75.893H206.067V65.074H220.86m1.5-1.5H204.567V77.393H222.36V63.574Z"/><rect class="cls-9" x="205.317" y="87.107" width="16.293" height="12.319"/><path class="cls-8" d="M220.86,87.856v10.82H206.067V87.856H220.86m1.5-1.5H204.567v13.82H222.36V86.356Z"/><path class="cls-10" d="M197.9,61.972h-6.772s-1.635.467-.7,1.634a1.535,1.535,0,0,0,2.452.234c.234-.467,4.9-.584,4.9-.584Z"/><line class="cls-11" x1="82.678" y1="109.921" x2="323.319" y2="109.921"/><line class="cls-11" x1="105.739" y1="114.943" x2="87.162" y2="186.788"/><line class="cls-11" x1="118.376" y1="140.896" x2="112.792" y2="186.788"/><line class="cls-11" x1="121.534" y1="114.943" x2="120.137" y2="126.423"/><line class="cls-11" x1="137.328" y1="114.943" x2="138.423" y2="186.788"/><line class="cls-11" x1="153.122" y1="114.943" x2="164.054" y2="186.788"/><line class="cls-11" x1="176.949" y1="142.733" x2="189.685" y2="186.788"/><line class="cls-11" x1="168.916" y1="114.943" x2="173.03" y2="129.175"/><line class="cls-11" x1="197.647" y1="145.313" x2="215.315" y2="186.788"/><line class="cls-11" x1="184.709" y1="114.943" x2="192.4" y2="132.997"/><line class="cls-11" x1="213.161" y1="137.429" x2="240.946" y2="186.788"/><line class="cls-11" x1="200.503" y1="114.943" x2="210.118" y2="131.151"/><line class="cls-11" x1="228.146" y1="131.873" x2="266.577" y2="186.788"/><line class="cls-11" x1="216.297" y1="114.943" x2="218.456" y2="118.027"/><line class="cls-11" x1="253.568" y1="140.61" x2="292.208" y2="186.788"/><line class="cls-11" x1="232.091" y1="114.943" x2="247.252" y2="133.061"/><line class="cls-11" x1="273.394" y1="141.142" x2="317.839" y2="186.788"/><line class="cls-11" x1="247.885" y1="114.943" x2="258.067" y2="125.4"/><line class="cls-11" x1="263.679" y1="114.943" x2="283.64" y2="132.916"/><line class="cls-11" x1="279.473" y1="114.943" x2="369.1" y2="186.788"/><line class="cls-11" x1="315.747" y1="129.736" x2="394.731" y2="186.788"/><line class="cls-11" x1="295.267" y1="114.943" x2="301.978" y2="119.79"/><line class="cls-11" x1="311.061" y1="114.943" x2="420.362" y2="186.788"/></g><polygon class="cls-12" points="366.258 117.766 348.508 128.266 346.758 144.516 367.508 144.516 366.258 117.766"/><path class="cls-13" d="M351.758,126.516s14.5-6.5,14.75-9.5-14.75.25-15.25,1.75"/><polyline class="cls-13" points="351.758 113.766 355.758 124.516 359.258 122.766 352.508 109.016"/><path class="cls-14" d="M342.312,44.069A22.189,22.189,0,0,0,337.69,33.4c-.84-1.009-5.235-5.512-10.822-6.247a11.27,11.27,0,0,0-4,.158,11.248,11.248,0,0,0-3.845-1.129c-5.6-.65-10.957,2.646-12.018,3.42a22.172,22.172,0,0,0-7.085,9.225,38.791,38.791,0,0,0-3.126,11.849c-.067.483-.129.967-.186,1.449a110.12,110.12,0,0,0-.836,15.266,19.5,19.5,0,0,0,.684,5.268c.063.224.129.44.2.64,1.983,5.472,9.055,6.323,14.126,6.592,2.146.239,4.1.338,5.523.44,1.4.247,3.325.628,5.464.92,4.984.975,12.05,1.874,15.306-2.949.12-.177.237-.37.352-.572a19.457,19.457,0,0,0,1.947-4.942,109.848,109.848,0,0,0,2.911-15.01q.094-.721.174-1.45A38.815,38.815,0,0,0,342.312,44.069Z"/><path class="cls-9" d="M341.518,57.709a2.8,2.8,0,0,0-3.486-2.048c.122-.6.235-1.185.34-1.749-1.015-.126-2.894-1.143-5.953-5.448a50.85,50.85,0,0,1-3.806-6.044c-2.77,2.85-5.769,5.466-9.269,6.628a14.327,14.327,0,0,1-9.29-.21,57.134,57.134,0,0,1-8.742.155c-.032.69-.062,1.409-.086,2.157a2.8,2.8,0,0,0-3.98,1.079,6.433,6.433,0,0,0,.287,7.022c.727,1.113,2.385,2.957,4.04,3.348.391,3.242,1.115,6.1,2.376,7.83a18.272,18.272,0,0,0,4.581,4.3c.054,1.995-.029,4.186-.568,5.073a11.931,11.931,0,0,1-3.123,2.112v9.451a109.665,109.665,0,0,0,23.684-.006V81.918a11.931,11.931,0,0,1-3.123-2.112,6.525,6.525,0,0,1-.54-2.683,19.174,19.174,0,0,0,5.932-3.372c1.651-1.377,3.049-3.981,4.208-7.045a8.512,8.512,0,0,0,4.528-2.258A6.43,6.43,0,0,0,341.518,57.709Z"/><path class="cls-9" d="M328.523,91.363a109.665,109.665,0,0,1-23.684.006v53.425h23.684Z"/><path class="cls-15" d="M343.3,89c-2.871-1.7-14.781-7.7-14.781-7.7v63.5h22.583c.249-7.229.455-14.076.45-16.761C351.535,117.7,354.962,95.89,343.3,89Z"/><path class="cls-15" d="M310.215,96.664l-2.052-1.083-3.324-1.754V81.465S292.8,87.34,289.91,89c-10.944,6.266-10.111,30.612-10.08,41.67a1.119,1.119,0,0,0,.2.625c1.243,6.567,8.105,8.4,13.094,4.939a31.992,31.992,0,0,1,.3,8.565h11.421V112.629C307.842,104.218,310.215,96.664,310.215,96.664Z"/><path class="cls-9" d="M317.921,78.249c-.038-.031-.085-.06-.127-.09a3.479,3.479,0,0,0,.046-.752,4.474,4.474,0,0,0-.782-2.122c-.952-.906-4.609-1.618-5.8-1.375a11.534,11.534,0,0,0-4.3,2.4c-1.293,1.4-5.4,15.662-5.4,15.662l-.032.106,6.638,3.5.491-1.532c3.949-1.014,3.913-5.442,4.19-5.661a2.6,2.6,0,0,0,1.956.275c.68-.276,1.039-1.337,1.229-2.339.1-.257.17-.438.17-.438.09-.265.207-.7.338-1.244a1.173,1.173,0,0,0,.426-.284,8.714,8.714,0,0,0,.732-3.247l-.018-.008C318.085,80.273,318.54,78.753,317.921,78.249Z"/><path class="cls-16" d="M329.438,126.507c.067-.023.134-.047.2-.068q-.1-1.879-.2-3.758Z"/><path class="cls-8" d="M343.754,88.234c-1.863-1.1-7.373-3.935-11.131-5.849a8.832,8.832,0,0,0,5.181-3.594c.127-.188.251-.394.374-.607a19.877,19.877,0,0,0,2.04-5.152,103.971,103.971,0,0,0,2.939-15.144c.064-.487.123-.978.173-1.441a39.556,39.556,0,0,0-.149-12.531,23.064,23.064,0,0,0-4.813-11.086c-.047-.057-4.806-5.693-11.381-6.557a12.06,12.06,0,0,0-4.009.106,12.377,12.377,0,0,0-3.858-1.08c-6.59-.765-12.581,3.541-12.641,3.584a23.067,23.067,0,0,0-7.368,9.573,39.505,39.505,0,0,0-3.2,12.094c-.068.489-.131.979-.188,1.467a104.2,104.2,0,0,0-.842,15.392,19.862,19.862,0,0,0,.723,5.5c.067.238.138.467.215.681,1.353,3.736,4.759,5.5,8.578,6.377-.1.284-.2.576-.307.874-2.046,1-11.984,5.872-14.622,7.382-10.757,6.16-10.613,28.428-10.535,40.392l0,.423.009.016c-.014,4.631,2.241,7.547,4.881,8.859a8.931,8.931,0,0,0,3.993.934,9.958,9.958,0,0,0,4.622-1.177c.11,1.344.212,2.67.292,3.964a28.93,28.93,0,0,1-.067,3.107.884.884,0,0,0,.834.93h.049a.882.882,0,0,0,.881-.835,29.868,29.868,0,0,0,.066-3.313c-.1-1.608-.231-3.262-.374-4.942a12.093,12.093,0,0,0,2.52-2.692c2.085-3.042,4.8-9.54,7.312-16.254v27.153a.883.883,0,1,0,1.766,0v-32c2.873-8.053,5.149-15.276,5.336-15.87a.884.884,0,0,0-.431-1.046l-1.4-.737.123-.384a5.575,5.575,0,0,0,2.732-1.984,112.438,112.438,0,0,0,15.555-.447V143.3a.884.884,0,1,0,1.767,0V82.733c3.152,1.6,11.191,5.687,13.447,7.022,9.235,5.462,8.53,20.889,8.015,32.154-.1,2.243-.2,4.361-.2,6.126,0,2.3-.146,7.928-.449,16.728a.882.882,0,0,0,.852.913h.031a.883.883,0,0,0,.882-.853c.3-8.822.456-14.472.451-16.792,0-1.723.092-3.821.194-6.042C353.169,110.278,353.9,94.237,343.754,88.234Zm-42.68-34.478c.03,0,.062.006.094.006a.882.882,0,0,0,.9-.867q.017-.857.045-1.764c.011-.332.022-.66.035-.981l0-.054a23.1,23.1,0,0,0,7.22-.7.886.886,0,0,0,.414.285,15.1,15.1,0,0,0,2.793.609,18.092,18.092,0,0,0,9.85-1.556,21.146,21.146,0,0,0,7.165-6.766.883.883,0,1,0-1.434-1.031,19.54,19.54,0,0,1-6.537,6.225,16.154,16.154,0,0,1-9.908,1.2c2.042-1.246,3.493-3.21,5.083-6.066a.883.883,0,0,0-1.544-.859c-3.027,5.44-4.929,7.3-14.378,6.852a.881.881,0,0,0-.57,1.587,3.493,3.493,0,0,0-2.6.612,37.684,37.684,0,0,1,3.022-11.3,21.339,21.339,0,0,1,6.8-8.868c1.506-1.1,6.49-3.826,11.4-3.256l.134.016a10.39,10.39,0,0,1,3.411,1.025.879.879,0,0,0,.59.073,10.247,10.247,0,0,1,3.7-.144c4.9.643,9.066,4.5,10.259,5.936a21.347,21.347,0,0,1,4.43,10.257l0,.012a37.779,37.779,0,0,1,.158,11.807,3.592,3.592,0,0,0-1.662-1.182.88.88,0,0,0-.378-1.4c-1.544-.545-3.96-2.005-6.7-5.864-.7-.979-1.619-2.529-2.346-3.769a.883.883,0,1,0-1.524.893c.745,1.271,1.694,2.864,2.43,3.9a19.078,19.078,0,0,0,5.961,5.772c-.062.322-.122.647-.187.966-.007.038-.014.073-.021.111q-.18.886-.369,1.746a.883.883,0,0,0,.672,1.053.8.8,0,0,0,.083.014.883.883,0,0,0,.97-.686c.083-.378.162-.768.243-1.154a2,2,0,0,1,1.909,1.555,5.567,5.567,0,0,1-1.751,5.814,9.681,9.681,0,0,1-2.544,1.652c.194-.574.386-1.167.574-1.785a.883.883,0,0,0-1.691-.512c-.4,1.326-.823,2.551-1.253,3.649-1.2,3.059-2.471,5.17-3.8,6.278a18.462,18.462,0,0,1-11.5,4.236V77.3h0a5,5,0,0,0-1.05-2.657c-1.2-1.141-5.183-1.89-6.586-1.6a8.667,8.667,0,0,0-2.18.868,17.3,17.3,0,0,1-4.238-4c-.978-1.345-1.692-3.61-2.125-6.736-.172-1.238-.3-2.622-.381-4.122a.883.883,0,0,0-1.764.095c.037.687.086,1.346.142,1.986a9.569,9.569,0,0,1-2.262-2.365,5.564,5.564,0,0,1-.282-6.065,2.086,2.086,0,0,1,1.947-1.109,1.876,1.876,0,0,1,.39.095c-.011.4-.021.792-.028,1.175A.884.884,0,0,0,301.074,53.756Zm17.209,23.666-.02-.015.018.008Zm-20.8-4.428c-.066-.181-.125-.377-.182-.578,0-.015-.008-.029-.013-.044a18.514,18.514,0,0,1-.638-5.021,75.712,75.712,0,0,1,.144-7.617,9.8,9.8,0,0,0,3.974,3.533c0,.029.008.058.012.087.007.052.013.108.02.159,0,.01,0,.018.007.027.479,3.4,1.275,5.825,2.421,7.4a18.38,18.38,0,0,0,4.052,3.971,6.732,6.732,0,0,0-.974.8,10.4,10.4,0,0,0-1.284,2.6C301.608,77.561,298.6,76.075,297.483,72.994Zm-7.134,16.767c2.135-1.222,9.439-4.833,12.956-6.561-.913,2.807-1.787,5.745-2.325,7.592l-.55-.29a.882.882,0,0,0-1.119.252c-.593.791-13.853,18.566-18.592,30.467C280.924,109.486,282.331,94.352,290.349,89.761Zm4.838,43.135c-2.918,4.259-7.528,4.954-10.573,3.441-2.96-1.472-5.284-5.563-2.929-12.63,3.467-10.4,16.051-27.829,18.592-31.289L309.15,97.1C307.716,101.592,299.722,126.279,295.187,132.9Zm15.991-46.563a.883.883,0,0,0,.746,1,2.757,2.757,0,0,0-.034,1.11c-.025.1-.048.218-.074.344-.246,1.213-.757,3.735-3.381,4.409a.883.883,0,0,0-.621.586l-.17.529-5.069-2.675c1.951-6.727,4.319-13.935,5.028-14.725a10.744,10.744,0,0,1,3.831-2.134c1-.2,4.315.484,5.016,1.15a2.063,2.063,0,0,1,.351.791,23.512,23.512,0,0,0-4.835-.945.883.883,0,0,0-.181,1.757c2.674.275,4.785.8,5.54,1.376a2.379,2.379,0,0,1-.144,1.056,40.047,40.047,0,0,0-5.216-1.092.883.883,0,1,0-.28,1.744,37.79,37.79,0,0,1,5.078,1.066,8.392,8.392,0,0,1-.394,1.93,2.2,2.2,0,0,0-.851-.517,30.45,30.45,0,0,0-3.776-.923.883.883,0,1,0-.294,1.741,29.331,29.331,0,0,1,3.53.863.455.455,0,0,1,.314.486c-.2,1.921-.675,2.526-.824,2.586a1.426,1.426,0,0,1-.826-.068c.017-.1.042-.213.071-.332a.881.881,0,0,0-.239-1.675l-.331-.047h0l-.962-.137A.881.881,0,0,0,311.178,86.333Zm16.462,4.226a110.761,110.761,0,0,1-14.62.488,10.467,10.467,0,0,0,.439-1.493,3.513,3.513,0,0,0,.77.092,2.4,2.4,0,0,0,.9-.165c1.033-.419,1.678-1.777,1.916-4.037,0-.025,0-.049,0-.073a1.838,1.838,0,0,0,.624-.487,8.428,8.428,0,0,0,.9-3.608,5.706,5.706,0,0,0,.532-2.192,18.476,18.476,0,0,0,4.982-.777,5.294,5.294,0,0,0,.561,1.958,10.094,10.094,0,0,0,3,2.18Zm1.281-10.051a.886.886,0,0,0-.861.036.838.838,0,0,0-.072.059,8.8,8.8,0,0,1-1.833-1.255,4.3,4.3,0,0,1-.368-1.629,19.886,19.886,0,0,0,5.57-3.289c1.523-1.27,2.948-3.564,4.239-6.819l.006-.012.021-.055.01-.023a10.113,10.113,0,0,0,4.494-2.424c.05-.046.095-.094.143-.14a76.738,76.738,0,0,1-1.75,7.588,18.477,18.477,0,0,1-1.84,4.7l-.023.038c-.1.182-.21.357-.317.517-1.429,2.115-3.735,3.011-6.335,3.253Z"/><path class="cls-8" d="M310.665,56.839a1.746,1.746,0,1,0-1.518-1.947A1.747,1.747,0,0,0,310.665,56.839Z"/><path class="cls-8" d="M327.38,58.908a1.746,1.746,0,1,0-1.518-1.948A1.746,1.746,0,0,0,327.38,58.908Z"/><path class="cls-8" d="M318.172,64.734c.585.051,1.283-.043,1.329-.475.043-.342-.457-.971-1.132-1.072h-.009A1.316,1.316,0,0,0,317,63.95C316.942,64.38,317.59,64.641,318.172,64.734Z"/><path class="cls-8" d="M320.928,69.318a8.269,8.269,0,0,1-6.637-.821.856.856,0,0,0-.341-.117.883.883,0,0,0-.559,1.636,10.149,10.149,0,0,0,8.04.995.883.883,0,0,0-.5-1.693Z"/><path class="cls-8" d="M327.646,51.479a.664.664,0,0,0,.32.009,3.485,3.485,0,0,1,2.755.631.665.665,0,1,0,.766-1.088,4.8,4.8,0,0,0-3.8-.843.665.665,0,0,0-.038,1.291Z"/><path class="cls-12" d="M340.943,127.105l-17.259,1.962s-1.617,4.1-1.27,6.638.808,9.51.808,9.51l16.739-.115Z"/><path class="cls-13" d="M322.876,144.537c-.231-2.656-.52-13.276-.52-13.276"/><path class="cls-13" d="M340.867,121.054S318.2,129.343,323.2,131.343s17.685-2.795,17.685-2.795l.65-7.271"/><path class="cls-8" d="M342.552,100.774h-.012a.883.883,0,0,0-.871.895,242.251,242.251,0,0,1-1.636,26.425c-.465,4.733-.905,9.2-1.169,13.435-.039.616-.027,2.129.026,3.305a.884.884,0,0,0,.882.843h.04a.883.883,0,0,0,.843-.922c-.049-1.085-.062-2.569-.028-3.115.262-4.2.7-8.655,1.164-13.372a243.315,243.315,0,0,0,1.644-26.622A.883.883,0,0,0,342.552,100.774Z"/><path class="cls-13" d="M338.222,129.607s3.888-44.3,5.148-41.453l-3.906-2.485s-6.126,37.051-4.615,44.737Z"/><path class="cls-13" d="M367.508,144.516c.25-.75-1-27.5-1-27.5"/><rect class="cls-17" x="259.713" y="65.963" width="2.635" height="38.596"/><path class="cls-18" d="M257.519,50.889a10.506,10.506,0,0,0,3.835,8.792,10.521,10.521,0,0,0,1.058-17.043A10.509,10.509,0,0,0,257.519,50.889Z"/><path class="cls-18" d="M251.671,60.462a10.507,10.507,0,0,0,8.247,4.9,10.522,10.522,0,0,0-9.089-14.456A10.506,10.506,0,0,0,251.671,60.462Z"/><path class="cls-18" d="M250.626,76.77a13.244,13.244,0,0,0,11.9,2.171,13.263,13.263,0,0,0-17.085-13.092A13.244,13.244,0,0,0,250.626,76.77Z"/><path class="cls-18" d="M252.187,90.754a13.243,13.243,0,0,0,12.075-.623,13.263,13.263,0,0,0-19.638-8.811A13.245,13.245,0,0,0,252.187,90.754Z"/><path class="cls-18" d="M271.975,64.169a13.246,13.246,0,0,1-10.4,6.177,13.262,13.262,0,0,1,11.457-18.222A13.247,13.247,0,0,1,271.975,64.169Z"/><path class="cls-18" d="M271.9,79.1a13.244,13.244,0,0,1-11.9,2.171,13.263,13.263,0,0,1,17.085-13.092A13.244,13.244,0,0,1,271.9,79.1Z"/><ellipse class="cls-18" cx="268.548" cy="87.12" rx="10.762" ry="5.512" transform="translate(-12.131 117.57) rotate(-24.165)"/><path class="cls-18" d="M254.569,71.285a11.08,11.08,0,0,0,8.7,5.169,11.1,11.1,0,0,0-9.586-15.248A11.082,11.082,0,0,0,254.569,71.285Z"/><rect class="cls-17" x="251.697" y="100.601" width="18.667" height="2.283"/><polygon class="cls-17" points="266.554 116.619 255.507 116.619 253.043 102.712 269.019 102.712 266.554 116.619"/><path class="cls-17" d="M258.729,91.526c.991-.066,6.8-3.321,6.8-3.321"/><line class="cls-17" x1="259.837" y1="71.116" x2="263.266" y2="76.454"/><line class="cls-17" x1="261.348" y1="53.213" x2="261.354" y2="59.681"/><line class="cls-17" x1="262.378" y1="66.375" x2="265.765" y2="62.979"/><line class="cls-17" x1="256.698" y1="85.997" x2="259.72" y2="87.973"/><line class="cls-17" x1="260.006" y1="81.266" x2="265.3" y2="76.929"/></svg>