<svg id="レイヤー_1" data-name="レイヤー 1" xmlns="http://www.w3.org/2000/svg" viewBox="0 0 327.398 69.49"><defs><style>.cls-1{fill:#f63402;}</style></defs><path class="cls-1" d="M57.579,39.563a8.91,8.91,0,0,1,14.367,0c1.782,2.635,2.71,6.273,2.71,10.543s-.928,7.907-2.71,10.506a8.857,8.857,0,0,1-14.367,0,19.164,19.164,0,0,1-2.71-10.506A18.886,18.886,0,0,1,57.579,39.563ZM60.994,60.13q1.225,3.229,3.787,3.229c1.893,0,3.192-1.262,4.009-3.861.669-2.042.965-5.011.965-9.392,0-4.826-.371-7.908-1.188-10.024-.816-2.19-2.041-3.23-3.786-3.23-3.453,0-4.975,4.047-4.975,13.254C59.806,54.821,60.177,58.013,60.994,60.13Z"/><path class="cls-1" d="M97.15,56.491c0,4.752-3.861,7.8-9.912,7.8-5.755,0-9.281-2.6-9.281-6.869A6.767,6.767,0,0,1,80.7,51.962a11.983,11.983,0,0,1,3.34-1.745c-3.9-2.042-5.308-3.824-5.308-6.868,0-4.529,3.49-7.462,8.947-7.462,5.049,0,8.427,2.636,8.427,6.5,0,2.933-1.893,5.049-5.494,6.125C95.219,50.551,97.15,52.927,97.15,56.491ZM83.043,52.482a6.928,6.928,0,0,0-1.449,4.492c0,3.824,2.376,6.348,5.9,6.348a5.155,5.155,0,0,0,5.457-5.346c0-1.856-.78-3.192-2.636-4.529A21.689,21.689,0,0,0,86.9,51.554c-.484-.223-1.634-.743-1.671-.743A6.368,6.368,0,0,0,83.043,52.482Zm8.389-6.014a6.538,6.538,0,0,0,1.152-4.047,7.126,7.126,0,0,0-.854-3.378A4.742,4.742,0,0,0,87.5,36.889a4.387,4.387,0,0,0-4.752,4.678c0,1.856.816,3.193,2.71,4.455a21.407,21.407,0,0,0,2.413,1.262l1.633.743A4.945,4.945,0,0,0,91.432,46.468Z"/><path class="cls-1" d="M103.161,39.563a8.91,8.91,0,0,1,14.367,0c1.782,2.635,2.71,6.273,2.71,10.543s-.928,7.907-2.71,10.506a8.857,8.857,0,0,1-14.367,0,19.164,19.164,0,0,1-2.71-10.506A18.886,18.886,0,0,1,103.161,39.563Zm3.415,20.567q1.226,3.229,3.787,3.229c1.893,0,3.192-1.262,4.009-3.861.669-2.042.965-5.011.965-9.392,0-4.826-.371-7.908-1.188-10.024-.816-2.19-2.041-3.23-3.786-3.23-3.453,0-4.975,4.047-4.975,13.254C105.388,54.821,105.759,58.013,106.576,60.13Z"/><path class="cls-1" d="M125.952,39.563a8.91,8.91,0,0,1,14.367,0c1.782,2.635,2.71,6.273,2.71,10.543s-.928,7.907-2.71,10.506a8.857,8.857,0,0,1-14.367,0,19.164,19.164,0,0,1-2.71-10.506A18.886,18.886,0,0,1,125.952,39.563Zm3.415,20.567q1.226,3.229,3.787,3.229c1.893,0,3.192-1.262,4.009-3.861.669-2.042.965-5.011.965-9.392,0-4.826-.371-7.908-1.188-10.024-.816-2.19-2.041-3.23-3.786-3.23-3.453,0-4.975,4.047-4.975,13.254C128.179,54.821,128.55,58.013,129.367,60.13Z"/><path class="cls-1" d="M146.478,51.294H155.2v3.118h-8.724Z"/><path class="cls-1" d="M162.4,62.654c1.708-.037,2.227-.111,2.784-.446.854-.445,1.114-1.41,1.114-3.786V41.344a10.545,10.545,0,0,0-.111-2.227c-.149-.817-.631-1-2.524-1h-1V37.075c3.527-.3,6.237-.668,8.687-1.114q-.334,3.954-.334,9.356v13.1c0,2.264.223,3.192.891,3.712.519.409.966.483,2.858.52v1.04H162.4Z"/><path class="cls-1" d="M187.086,40.453a2.809,2.809,0,0,0-2.932,1.485,10.376,10.376,0,0,0-1.114,3.3l-1.225-.148,1.15-8.613h17.746v2.636a48.84,48.84,0,0,0-5.9,11.174,42.09,42.09,0,0,0-1.781,6.572,29.78,29.78,0,0,0-.446,4.974,2.409,2.409,0,0,1-.743,2,4.059,4.059,0,0,1-2.376.594q-2.449,0-2.45-1.782c0-2.45,1.968-7.462,5.123-12.882,1.486-2.636,3.044-5.049,6.015-9.319Z"/><path class="cls-1" d="M206.908,39.563a8.91,8.91,0,0,1,14.367,0c1.782,2.635,2.71,6.273,2.71,10.543s-.928,7.907-2.71,10.506a8.857,8.857,0,0,1-14.367,0,19.164,19.164,0,0,1-2.71-10.506A18.886,18.886,0,0,1,206.908,39.563Zm3.415,20.567q1.225,3.229,3.787,3.229c1.893,0,3.192-1.262,4.009-3.861.669-2.042.965-5.011.965-9.392,0-4.826-.371-7.908-1.188-10.024-.816-2.19-2.041-3.23-3.786-3.23-3.453,0-4.975,4.047-4.975,13.254C209.135,54.821,209.506,58.013,210.323,60.13Z"/><path class="cls-1" d="M227.434,51.294h8.724v3.118h-8.724Z"/><path class="cls-1" d="M242.838,49.883A9.607,9.607,0,0,1,250,46.876c5.42,0,8.8,3.193,8.8,8.353,0,5.532-3.9,9.059-10.061,9.059-4.864,0-8.65-2.339-8.65-5.384,0-1.41.928-2.153,2.636-2.153a2.377,2.377,0,0,1,1.856.631c.26.3.334.594.372,1.671a4.353,4.353,0,0,0,1.039,3.044,3.92,3.92,0,0,0,2.9,1.225,4.28,4.28,0,0,0,3.638-1.893,10.766,10.766,0,0,0,1.411-5.717c0-4.678-1.931-7.388-5.273-7.388a7.446,7.446,0,0,0-6.236,4.046l-1.225-.3,1.225-15.592h15.184l-.668,4.158H243.581Z"/><path class="cls-1" d="M266.149,62.654c1.708-.037,2.227-.111,2.784-.446.855-.445,1.114-1.41,1.114-3.786V41.344a10.545,10.545,0,0,0-.111-2.227c-.148-.817-.631-1-2.524-1h-1V37.075c3.527-.3,6.237-.668,8.687-1.114q-.335,3.954-.334,9.356v13.1c0,2.264.223,3.192.891,3.712.519.409.966.483,2.858.52v1.04H266.149Z"/><path class="cls-1" d="M287.864,39.563a8.91,8.91,0,0,1,14.367,0c1.782,2.635,2.71,6.273,2.71,10.543s-.928,7.907-2.71,10.506a8.857,8.857,0,0,1-14.367,0,19.164,19.164,0,0,1-2.71-10.506A18.886,18.886,0,0,1,287.864,39.563Zm3.415,20.567q1.226,3.229,3.787,3.229c1.893,0,3.192-1.262,4.009-3.861.669-2.042.965-5.011.965-9.392,0-4.826-.371-7.908-1.188-10.024-.816-2.19-2.041-3.23-3.786-3.23-3.453,0-4.975,4.047-4.975,13.254C290.091,54.821,290.462,58.013,291.279,60.13Z"/><path class="cls-1" d="M323.425,59.016c0,3.081.483,3.6,3.342,3.638v1.04H315.592v-1c1.745-.074,2.154-.148,2.6-.52.557-.408.779-1.373.779-3.155V56.38H306.979V54.6l12.994-18.451h3.452V54.709H327.4V56.38h-3.973ZM318.97,40.008l-10.32,14.7h10.32Z"/><path class="cls-1" d="M0,33.919V61.356H45.274V33.919Zm15.85,26.51H10.241V40.947a6.119,6.119,0,0,1,6.267-6.27h6.608v5.128H18a2.012,2.012,0,0,0-2.146,1.8V45H30.639v5.117H15.85Zm19.027.023H32.135a6.131,6.131,0,0,1-6.28-6.274V51.332l4.789-.009v2.649a1.363,1.363,0,0,0,1.475,1.363h2.758Zm0-20.647H32.119a1.356,1.356,0,0,0-1.475,1.357V43.81H25.855V40.947a6.129,6.129,0,0,1,6.28-6.27h2.742Z"/><path class="cls-1" d="M6.82,63.1a6.684,6.684,0,0,1-1.234,4.079,6.209,6.209,0,0,1-3.875,2.149l-.538-1.17c3.407-.591,3.951-2.3,4.215-3.86H.64V63.1Z"/><path class="cls-1" d="M9.384,67.052H8.1v-4.2H9.384ZM13.073,65.9c0,2.921-2.292,3.259-4.114,3.475L8.493,68.2a6.548,6.548,0,0,0,2.6-.615,1.737,1.737,0,0,0,.693-1.514V62.73h1.29Z"/><rect class="cls-1" x="14.373" y="65.312" width="6.741" height="1.278"/><polygon class="cls-1" points="27.971 63.212 27.971 68.845 22.188 68.845 22.188 67.64 26.684 67.64 26.684 64.402 22.263 64.402 22.263 63.212 27.971 63.212"/><rect class="cls-1" x="29.368" y="65.312" width="6.742" height="1.278"/><path class="cls-1" d="M39.178,64.763a13.419,13.419,0,0,1-.229,2.526,4.057,4.057,0,0,1-1.155,2.2L36.84,68.5a2.935,2.935,0,0,0,.921-1.723,9.916,9.916,0,0,0,.193-1.88V62.98h1.224Zm2.093,2.97a1.929,1.929,0,0,0,1.162-1,4.741,4.741,0,0,0,.519-1.653l1.147.556a4.776,4.776,0,0,1-1.312,2.576,4.127,4.127,0,0,1-2.73,1.047v-6.53h1.214Z"/><path class="cls-1" d="M8.267,14.552a5.6,5.6,0,0,1-.153,1.614,1.669,1.669,0,0,1-1.748,1.1,5.917,5.917,0,0,1-3.59-1.348,2.791,2.791,0,0,1-1.045-2.147,4.055,4.055,0,0,1,1.634-2.812A10.14,10.14,0,0,1,6.139,9.347l-.02-2.926c-.151,0-.151,0-.778.038-.285.019-.551.019-1.026.019-.285,0-.817-.019-1.045-.019C3.023,6.44,2.852,6.44,2.8,6.44a3.562,3.562,0,0,0-.4.019L2.377,4.331a11.653,11.653,0,0,0,2.3.171c.189,0,.4,0,.665-.019.456-.019.551-.019.76-.019V3.21a12.99,12.99,0,0,0-.115-2.184H8.361A11.757,11.757,0,0,0,8.247,3.1V4.312a21.209,21.209,0,0,0,3.667-.722l.075,2.128c-.341.057-.7.114-2.013.342-.627.114-1.007.171-1.729.247v2.47a13.175,13.175,0,0,1,3.876-.532c3.172,0,5.433,1.937,5.433,4.635a4.22,4.22,0,0,1-4.313,4.331A3.067,3.067,0,0,1,10.128,15.1a6.348,6.348,0,0,1-.323-2.432,8.029,8.029,0,0,0,2.109-.836,6.588,6.588,0,0,0-.038.836,3.647,3.647,0,0,0,.266,1.672,1.314,1.314,0,0,0,1.2.646,1.952,1.952,0,0,0,1.918-2.109c0-1.634-1.329-2.7-3.362-2.7a12.161,12.161,0,0,0-3.648.627ZM6.119,11.493c-1.425.76-2.261,1.6-2.261,2.28,0,.323.191.608.627.874a2.287,2.287,0,0,0,1.216.418c.323,0,.418-.171.418-.8ZM16.644,7.656a16.221,16.221,0,0,0-3.8-4.1l1.785-1.2A16.094,16.094,0,0,1,18.392,6.25Z"/><path class="cls-1" d="M20.788,16.6a10.248,10.248,0,0,0,2.09-4.16l1.881.513a14.071,14.071,0,0,1-2.2,4.806ZM34.9,4.806a11.115,11.115,0,0,0,1.216-.057c-.019.285-.038.589-.038,1.1v5.072c0,.475.019.817.038,1.1-.589-.038-.779-.057-1.178-.057H30.078a14.5,14.5,0,0,1,2.127,1.957l-1.4,1.33a20.191,20.191,0,0,0-2.451-2.394l1.064-.893h-4.5a17.167,17.167,0,0,0-1.747.076v-1.88a14.151,14.151,0,0,0,1.747.075h9.138V9.175H25.2c-.683,0-1.025.02-1.728.077V7.447a13.762,13.762,0,0,0,1.728.076h8.853V6.535H25.917c-.493,0-.949.019-1.405.057V5.68A17.68,17.68,0,0,1,22.08,7.542,9.035,9.035,0,0,0,20.9,5.794,13.6,13.6,0,0,0,26.316.38L28.691.8c-.323.494-.4.589-.7,1.007h3a9.615,9.615,0,0,0,1.825-.095l1.1,1.045a11.436,11.436,0,0,0-.949,1.063,9.216,9.216,0,0,1-.856.988ZM27.494,15.388c0,.646.114.684,2.128.684,1.71,0,2.261-.076,2.564-.342.191-.171.3-.722.362-1.672a6.677,6.677,0,0,0,1.975.627c-.228,1.671-.379,2.166-.835,2.583-.5.475-1.634.646-4.351.646-3.286,0-3.837-.266-3.837-1.862v-2.07a7.367,7.367,0,0,0-.114-1.539h2.2a7.35,7.35,0,0,0-.095,1.539ZM29.6,4.806a9.674,9.674,0,0,0,1.122-1.329H26.7a14.162,14.162,0,0,1-1.234,1.329H29.6Zm5.89,7.409a29.379,29.379,0,0,1,2.926,4.065l-1.8,1.292A19.365,19.365,0,0,0,33.858,13.3Z"/><path class="cls-1" d="M53.561,4.673a4.216,4.216,0,0,1-.417.076c-.058.019-.229.057-.456.114a21.346,21.346,0,0,1-2.337.437,16.847,16.847,0,0,0,.741,1.558,23.362,23.362,0,0,0,4.426-1.1l.19,2.071c-.285.038-.57.095-1.064.209l-1.311.3-1.2.247-.191.057a20.185,20.185,0,0,0,2.546,3.476l-1.672,1.2a10.213,10.213,0,0,0-4.369-.779,7.329,7.329,0,0,0-3.192.532,1.371,1.371,0,0,0-.817,1.159,1.254,1.254,0,0,0,.817,1.1,7.409,7.409,0,0,0,2.717.417A14.421,14.421,0,0,0,53.827,14.5l.342,2.356c-.228.037-.323.056-.513.1-.076.018-.209.056-.4.094l-.322.1a18.3,18.3,0,0,1-4.864.646,8.691,8.691,0,0,1-4.635-.93,3.059,3.059,0,0,1-1.463-2.6,3.174,3.174,0,0,1,1.595-2.641A8.472,8.472,0,0,1,48,10.657a13.086,13.086,0,0,1,3.286.4,11.68,11.68,0,0,1-1.463-2.127,56.465,56.465,0,0,1-7.351.513c-.342.018-.456.018-.779.056l-.077-2.07a11.268,11.268,0,0,0,1.957.076,34.972,34.972,0,0,0,5.376-.361c-.113-.209-.171-.323-.341-.7-.19-.4-.228-.513-.4-.874a39.976,39.976,0,0,1-5.092.285,10.8,10.8,0,0,0-1.292.038l-.094-2.014a15.928,15.928,0,0,0,1.824.076,33.317,33.317,0,0,0,3.913-.209l-.057-.152c-.247-.608-.38-.893-.608-1.462a3.562,3.562,0,0,0-.3-.608L48.869,1.2a10.813,10.813,0,0,0,.778,2.3,21.7,21.7,0,0,0,3.629-.8Zm.532-3.8A12.259,12.259,0,0,1,55.917,3.78l-1.387.589a12.4,12.4,0,0,0-1.824-2.944Zm2.849,2.545A13.681,13.681,0,0,0,55.176.551L56.506,0a11,11,0,0,1,1.8,2.792Z"/><path class="cls-1" d="M67.033,12.2c-1.083,2.451-2.3,3.572-3.856,3.572-2.166,0-3.724-2.2-3.724-5.263a8.161,8.161,0,0,1,2.09-5.528,8.526,8.526,0,0,1,6.535-2.659c4.559,0,7.523,2.773,7.523,7.047a7.317,7.317,0,0,1-4.617,7.086,12.413,12.413,0,0,1-2.982.8,6.065,6.065,0,0,0-1.159-2.222,10.086,10.086,0,0,0,3.78-1.045,5.319,5.319,0,0,0,2.641-4.749,4.708,4.708,0,0,0-2.336-4.218,4.153,4.153,0,0,0-1.919-.57A27.5,27.5,0,0,1,67.033,12.2ZM64.24,5.4a6.363,6.363,0,0,0-2.583,5.129c0,1.558.664,2.793,1.5,2.793.627,0,1.274-.8,1.957-2.432a25.033,25.033,0,0,0,1.577-6.421A4.84,4.84,0,0,0,64.24,5.4Z"/><path class="cls-1" d="M86.091,12.329a10.937,10.937,0,0,1-2.337,1.615,4.406,4.406,0,0,0-.722-1.007,35.749,35.749,0,0,1-3.78,2,2.349,2.349,0,0,1-.247.152.86.86,0,0,0-.19.1l-.475-2.223a13.74,13.74,0,0,0,2.146-.76V7.162h-.55a9.269,9.269,0,0,0-1.483.095V5.224a8.534,8.534,0,0,0,1.5.095h.532V2.964A14.982,14.982,0,0,0,80.372.855h2.2a12.793,12.793,0,0,0-.114,2.127V5.319H82.8a8.132,8.132,0,0,0,1.348-.076v2a9.811,9.811,0,0,0-1.329-.076h-.361v4.084c.513-.266.665-.361,1.272-.7v1.311A7.516,7.516,0,0,0,86,9.936h-.418a13.611,13.611,0,0,0-1.766.094v-1.9a10.555,10.555,0,0,0,1.786.1h8.3a12.589,12.589,0,0,0,1.976-.114v1.9a18.907,18.907,0,0,0-1.957-.075H88.105a6.9,6.9,0,0,1-.514.778h6.042c.931,0,1.291-.019,1.842-.057-.037.3-.057.551-.076,1.121a16.487,16.487,0,0,1-.779,5.168c-.38.873-.987,1.12-2.659,1.12-.514,0-.855-.019-1.6-.057a4.591,4.591,0,0,0-.513-1.748,13.68,13.68,0,0,1-3.134,2.09,5.192,5.192,0,0,0-1.368-1.444,11.593,11.593,0,0,0,3.457-2.051,8.48,8.48,0,0,0,1.976-2.527h-1.14a11.43,11.43,0,0,1-5.262,4.16,4.706,4.706,0,0,0-1.216-1.443,9.861,9.861,0,0,0,4.407-2.717Zm.569-4.9a13.726,13.726,0,0,0-1.747.076,16.994,16.994,0,0,0,.075-1.843V2.887a14.8,14.8,0,0,0-.075-1.728,13.357,13.357,0,0,0,1.918.095h5.528a14.32,14.32,0,0,0,2.034-.095,15.129,15.129,0,0,0-.077,1.881V5.661a14.478,14.478,0,0,0,.077,1.824c-.4-.038-.969-.057-1.73-.057Zm.285-3.7h5.376v-.8H86.945Zm0,2.166h5.376V5.11H86.945Zm5.794,6.44a10.589,10.589,0,0,1-2.659,3.723,13.283,13.283,0,0,0,1.956.153c.7,0,.912-.19,1.083-1.007a22.92,22.92,0,0,0,.323-2.869Z"/><path class="cls-1" d="M102.2,6.953a19.289,19.289,0,0,1-3.039,1.6,7.362,7.362,0,0,0-1.1-1.938,18.984,18.984,0,0,0,4.845-2.736A13.267,13.267,0,0,0,105.889.7h2.26a12.412,12.412,0,0,0,3.192,3.21,17.836,17.836,0,0,0,4.845,2.6,10.129,10.129,0,0,0-1.045,2.09,18.427,18.427,0,0,1-3.1-1.672v1.33a13.842,13.842,0,0,0-1.71-.076h-6.5a14.317,14.317,0,0,0-1.634.076Zm-1.539,11.113a15.193,15.193,0,0,0,.114-2.014V11.626a17.4,17.4,0,0,0-.094-1.88,12.124,12.124,0,0,0,1.633.076h9.5a12.656,12.656,0,0,0,1.654-.076,12.927,12.927,0,0,0-.095,1.88v4.446a11.978,11.978,0,0,0,.113,1.994h-2.26V17.1h-8.3v.969Zm2.261-2.83h8.3V11.664h-8.3Zm7.39-9.024h.646a17.348,17.348,0,0,1-3.913-3.7,13.322,13.322,0,0,1-3.724,3.7h6.991Z"/><path class="cls-1" d="M119.817,17.325a6.934,6.934,0,0,0-.095-.741,36.011,36.011,0,0,1-.513-6.041,33.957,33.957,0,0,1,.361-5.034c.1-.57.1-.57.513-2.717a10.171,10.171,0,0,0,.209-1.4V1.311l2.564.266c-.778,1.652-1.5,6.231-1.519,9.536-.019.684-.019.684-.019.988v.3a3.234,3.234,0,0,1-.019.4h.019c.095-.209.095-.209.228-.551.038-.133.133-.342.227-.646.171-.4.171-.4.362-.855a3.71,3.71,0,0,0,.227-.588l1.578.7a15.835,15.835,0,0,0-1.881,5.813,3.714,3.714,0,0,0,.038.513ZM124.11,4.882a13.693,13.693,0,0,0,3.439.3c.665,0,1.083,0,1.748-.038,0-1.121-.02-2.071-.02-2.849a5.338,5.338,0,0,0-.056-.912L131.6,1.33a18.4,18.4,0,0,0-.134,2.792V5a19.1,19.1,0,0,0,2.565-.456c.114-.038.114-.038.418-.152l.152-.038.076,2.147a3.283,3.283,0,0,0-.551.095c-.645.133-1.634.3-2.641.418v.418c0,1.064,0,1.1.19,4.293a15.149,15.149,0,0,1,2.983,1.729,3.564,3.564,0,0,0,.532.323l-.912,2.3a7.139,7.139,0,0,0-1.424-1.216c-.647-.418-1.083-.7-1.2-.779v.266a3.3,3.3,0,0,1-.152,1.064c-.436,1.121-1.767,1.785-3.609,1.785-2.489,0-4.008-1.177-4.008-3.115,0-1.843,1.614-3.135,3.913-3.135a4.507,4.507,0,0,1,1.69.266c-.056-.475-.075-1.406-.151-4.046-.76.019-1.216.038-1.71.038-.7,0-1.463-.019-2.355-.095-.267,0-.476-.019-.571-.019a2.829,2.829,0,0,0-.323-.019.868.868,0,0,0-.19-.019.337.337,0,0,0-.114.019Zm3.857,7.96c-1.216,0-1.976.475-1.976,1.254,0,.7.684,1.178,1.748,1.178a1.866,1.866,0,0,0,1.538-.589,1.594,1.594,0,0,0,.247-1.026v-.513A3.969,3.969,0,0,0,127.967,12.842Z"/><path class="cls-1" d="M152.569,3.818a2.856,2.856,0,0,0-.322.855,17.855,17.855,0,0,1-3.9,7.96,18.483,18.483,0,0,1-7.067,4.844,6.96,6.96,0,0,0-1.672-2.26,15.459,15.459,0,0,0,4.161-1.938A13.161,13.161,0,0,0,149.53,5h-9.043a15.069,15.069,0,0,0-2.393.114V2.641a13.391,13.391,0,0,0,2.431.132h8.72a6.9,6.9,0,0,0,2.033-.19Z"/><path class="cls-1" d="M159.622,1.653a9.657,9.657,0,0,0-.076,1.71V8.606a9.159,9.159,0,0,0,.076,1.671h-2.6a13.672,13.672,0,0,0,.095-1.709V3.343a11.829,11.829,0,0,0-.076-1.709Zm8.625.019a9.006,9.006,0,0,0-.1,1.766V6a22.427,22.427,0,0,1-.494,5.756,7.274,7.274,0,0,1-3.743,4.427,16.111,16.111,0,0,1-3.7,1.462,6.479,6.479,0,0,0-1.33-2.26,10.238,10.238,0,0,0,4.1-1.52c1.786-1.178,2.413-2.337,2.622-4.844.077-.817.095-1.653.095-3.173V3.477a9.911,9.911,0,0,0-.095-1.8Z"/><path class="cls-1" d="M172.922,8.017A18.659,18.659,0,0,0,176,8.15h10.125a18.659,18.659,0,0,0,3.078-.133v2.64a21.1,21.1,0,0,0-3.1-.094H176.019a21.078,21.078,0,0,0-3.1.094Z"/><path class="cls-1" d="M194.791,15.692a21.239,21.239,0,0,0-2.337.076V13.317a12.215,12.215,0,0,0,2.375.133h8.644V5.167h-8.321a18.575,18.575,0,0,0-2.431.095V2.792a12.676,12.676,0,0,0,2.45.133h9.138c.988,0,.988,0,1.653-.038a11.33,11.33,0,0,0-.058,1.577v10.43a12.519,12.519,0,0,0,.1,1.957h-2.546V15.692Z"/><path class="cls-1" d="M210.467,8.017a18.659,18.659,0,0,0,3.078.133H223.67a18.659,18.659,0,0,0,3.078-.133v2.64a21.1,21.1,0,0,0-3.1-.094H213.563a21.07,21.07,0,0,0-3.1.094Z"/><path class="cls-1" d="M235.145,1.9a39.6,39.6,0,0,0-.189,4.255c-.134,3.7-.551,5.851-1.539,7.808a12.083,12.083,0,0,1-2.622,3.514,6.769,6.769,0,0,0-1.918-1.842,7.786,7.786,0,0,0,1.956-2.185c1.368-2.185,1.805-4.635,1.805-9.955a9.537,9.537,0,0,0-.076-1.728Zm5.035-.228a10.3,10.3,0,0,0-.133,1.805l-.095,10.809a7.627,7.627,0,0,0,2.906-2.166,9.3,9.3,0,0,0,1.863-3.476,7.935,7.935,0,0,0,1.785,1.785,11.791,11.791,0,0,1-3.021,4.427,12.542,12.542,0,0,1-4.046,2.279,8.267,8.267,0,0,0-.817.342l-1.216-1.291a8.46,8.46,0,0,0,.171-2.014l.095-10.715v-.57a8.359,8.359,0,0,0-.075-1.253Z"/><path class="cls-1" d="M248.41,10.239c.817-.57,1.634-1.5,4.141-4.654a5.846,5.846,0,0,1,1.177-1.2,2.617,2.617,0,0,1,1.521-.57,2.69,2.69,0,0,1,1.709.722,12.478,12.478,0,0,1,1.273,1.368,60.422,60.422,0,0,0,5.68,5.813,12.184,12.184,0,0,0,2.071,1.6l-1.159,2.7a3.657,3.657,0,0,0-.551-.551c-.988-.874-2.488-2.3-3.876-3.686-1.443-1.482-1.481-1.539-3.513-3.856-1.178-1.349-1.292-1.444-1.654-1.444-.3,0-.494.171-1.139,1.026a53.972,53.972,0,0,1-3.742,4.6,3.2,3.2,0,0,0-.4.513Z"/></svg>