<svg id="レイヤー_1" data-name="レイヤー 1" xmlns="http://www.w3.org/2000/svg" viewBox="0 0 30 27"><defs><style>.cls-1{fill:#c0af76;}</style></defs><path class="cls-1" d="M0,11a12.54,12.54,0,0,1,.81-4.7A9.83,9.83,0,0,1,3.13,2.87a9.47,9.47,0,0,1,3.21-2A15.24,15.24,0,0,1,11.58,0a14.27,14.27,0,0,1,4.73.69,9.15,9.15,0,0,1,3.32,2,9.3,9.3,0,0,1,2.06,2.75,11.27,11.27,0,0,1,.94,4.81,11.35,11.35,0,0,1-3.1,8.41Q16.44,21.72,11,21.71A13.43,13.43,0,0,1,6.25,21a9.4,9.4,0,0,1-3.28-2A9.09,9.09,0,0,1,1,16.22,12.52,12.52,0,0,1,0,11Zm4.58-.75a12.7,12.7,0,0,0,1.78,7.18,5.84,5.84,0,0,0,5.19,2.65,6.4,6.4,0,0,0,3.32-.89,5.85,5.85,0,0,0,2.33-3A13.7,13.7,0,0,0,18,11.11a16.8,16.8,0,0,0-.38-3.65A9.55,9.55,0,0,0,16.45,4.4a5.77,5.77,0,0,0-2-2,6.4,6.4,0,0,0-3.2-.7,7,7,0,0,0-3.14.67A5.49,5.49,0,0,0,6.26,3.88,7.56,7.56,0,0,0,5,6.54,14.5,14.5,0,0,0,4.58,10.24ZM5,25.81l-.33-1a13.66,13.66,0,0,1,1.3-1c1.15-.8,1.91-1.3,2.25-1.49a10.59,10.59,0,0,1,1.36-.63,31.79,31.79,0,0,1,5,1.43l2.67.93a15.41,15.41,0,0,0,1.69.42,5.39,5.39,0,0,0,1,.1,3.94,3.94,0,0,0,.77-.07,2.43,2.43,0,0,0,.48-.14l1.22-.52V25c-.39.22-1.12.67-2.21,1.33-.41.27-.73.49-1,.66a11.27,11.27,0,0,1-1.49-.19A34.42,34.42,0,0,1,14,25.88c-2-.59-3.33-1-4.06-1.13a12,12,0,0,0-2-.32,2.21,2.21,0,0,0-.84.17A19.88,19.88,0,0,0,5,25.81Z"/><path class="cls-1" d="M27.67,16.92a2.34,2.34,0,0,1,0,4.67,2.32,2.32,0,0,1-2.34-2.34A2.21,2.21,0,0,1,26,17.6,2.26,2.26,0,0,1,27.67,16.92Z"/></svg>