<?xml version="1.0" encoding="UTF-8"?><svg xmlns="http://www.w3.org/2000/svg" viewBox="0 0 59.98 62.48"><defs><style>.d{fill:#002fcd;}</style></defs><g id="a"/><g id="b"><g id="c"><path class="d" d="M53.39,8.98c.27,.44,.57,.83,.79,1.27,.76,1.49,.53,2.63-.85,3.61-.71,.5-1.51,.91-2.32,1.22-1.58,.61-3.2,1.11-4.8,1.67-.73,.25-.72,.27-.5,1.05,.43,1.52-.03,2.97-1.38,3.73-.92,.51-1.95,.84-2.96,1.15-.89,.28-1.83,.42-2.92,.66,.25,.39,.45,.65,.61,.94,.56,1.03,.48,1.64-.29,2.58-.53,.65-1.23,1.05-1.99,1.39-2.01,.9-4.07,1.66-6.24,2.07-.29,.05-.57,.15-.85,.22,.04,.23,.04,.35,.08,.45,.82,1.74,.54,2.84-1.08,3.77-.58,.34-1.27,.54-1.93,.69-.79,.18-1.6,.25-2.4,.36,.19,2.18-.33,3.16-2.3,4.01-.97,.41-2.03,.8-3.06,.83-1.81,.05-3.62-.18-5.43-.29-.06,0-.12-.02-.18-.04-.53-.16-.84-.51-.8-.91,.05-.42,.43-.77,.94-.75,1,.04,2,.13,3,.22,1.39,.12,2.76,.09,4.09-.37,.18-.06,.37-.11,.52-.21,.56-.35,1.32-.49,1.44-1.33-.47-.28-.93-.6-1.43-.81-.48-.2-.96-.36-1.02-.96-.05-.45,.41-.85,1.21-.95,1.37-.17,2.75-.26,4.12-.42,.87-.1,1.75-.19,2.5-.73,.61-.44,.63-.94,0-1.32-.37-.22-.79-.37-1.18-.57-.28-.14-.57-.26-.81-.45-.41-.32-.38-1.04,.06-1.3,.26-.16,.57-.26,.87-.33,1.1-.23,2.21-.48,3.32-.64,2.2-.32,4.21-1.2,6.22-2.1,.28-.13,.53-.33,.77-.53,.34-.28,.34-.76-.04-.93-.5-.23-1.04-.4-1.58-.54-.36-.09-.75-.04-1.12-.12-.47-.1-.79-.51-.78-.93,0-.43,.25-.7,.63-.84,.35-.13,.72-.23,1.08-.31,1.83-.42,3.68-.8,5.5-1.24,.73-.17,1.46-.4,2.14-.7,.38-.17,.7-.52,.99-.84,.29-.33,.17-.93-.22-1.15-.44-.24-.94-.35-1.36-.61-.23-.15-.43-.46-.49-.73-.09-.41,.19-.74,.56-.87,1.42-.49,2.86-.94,4.28-1.43,1.31-.44,2.61-.89,3.9-1.38,.52-.2,1.03-.47,1.49-.79,.7-.48,.73-1.14,.12-1.74-.22-.21-.49-.38-.77-.52-.39-.21-.79-.38-1.19-.56-.38-.17-.67-.47-.56-.87,.09-.32,.36-.69,.65-.83,.55-.28,1.19-.39,1.77-.61,1.29-.49,2.58-.98,3.85-1.51,.83-.35,1.48-.95,2-1.67,.29-.4,.24-.86-.14-1.18-.63-.54-1.33-.87-2.19-.99-4.79-.63-9.32,.21-13.82,1.9-3.97,1.49-7.73,3.36-11.18,5.77-3.23,2.26-6.42,4.62-8.92,7.75-.59,.73-1.24,1.41-1.86,2.12-3.04,3.48-5.29,7.45-7.13,11.66-.65,1.49-1.2,3.02-1.58,4.64,.29-.37,.6-.72,.88-1.1,5.45-7.57,11.71-14.4,18.91-20.35,4.41-3.65,9.1-6.9,14.27-9.4,.62-.3,1.26-.56,1.91-.78,.39-.14,.77,.01,.94,.41,.17,.39,0,.75-.34,.98-.37,.24-.76,.44-1.16,.62-4.79,2.26-9.17,5.2-13.3,8.48-7.21,5.73-13.51,12.35-18.95,19.78-4.05,5.54-7.49,11.42-9.92,17.86-.2,.53-.29,1.09-.46,1.63-.21,.63-.25,1.19,.17,1.77,.36,.5,.3,1.06,.07,1.62-.47,1.16-.9,2.34-1.38,3.49-.19,.46-.45,.9-.76,1.28-.42,.52-1.27,.48-1.62-.09-.25-.41-.48-.93-.47-1.39,.03-1.31,.17-2.62,.31-3.92,.08-.71,.38-1.35,1.06-1.68,.45-.22,.62-.57,.76-1.01,1.67-5.43,4.24-10.43,7.27-15.21,.2-.32,.41-.63,.61-.95,.24-.39,.43-.73-.07-1.12-.45-.35-.35-.94-.23-1.41,.26-1.03,.53-2.07,.92-3.06,2.27-5.7,5.36-10.87,9.45-15.49,4.65-5.25,10.18-9.32,16.36-12.47,3.85-1.96,7.91-3.52,12.27-4.1,2.76-.37,5.49-.25,8.21,.34,.69,.15,1.3,.41,1.86,.85,1.23,.96,1.65,2.12,.62,3.8-.6,.99-1.51,1.68-2.53,2.19-1.12,.56-2.27,1.04-3.48,1.59Z"/></g></g></svg>