<?xml version="1.0" encoding="UTF-8"?><svg xmlns="http://www.w3.org/2000/svg" viewBox="0 0 217.59 35.92"><defs><style>.d{fill:#002fcd;}</style></defs><g id="a"/><g id="b"><g id="c"><g><path class="d" d="M19.93,23.69v2.5c-2.65,2.85-5.13,5-7.42,6.44-2.3,1.45-4.25,2.17-5.87,2.17-2.24,0-3.91-.98-5-2.94-1.09-1.96-1.64-4.1-1.64-6.43,0-.89,.11-1.74,.33-2.55,.22-.81,.48-1.48,.78-2,.3-.52,.86-1.34,1.68-2.46,3.88-5.04,7.44-7.55,10.66-7.55,1.67,0,2.5,.54,2.5,1.61,0,.73-.54,1.87-1.62,3.42-1.08,1.55-2.04,2.65-2.89,3.32-2.38,1.91-3.93,3.25-4.66,4-.72,.75-1.09,1.61-1.09,2.56,0,.82,.37,1.5,1.11,2.05,.74,.55,1.7,.82,2.87,.82,1.29,0,2.7-.39,4.24-1.18,1.54-.79,3.55-2.04,6.01-3.78Zm-2.79-15.28c-.68,0-1.33-.22-1.95-.65-.62-.43-.92-.98-.92-1.64,0-1,.57-2.12,1.72-3.35,1.15-1.23,2.34-1.85,3.57-1.85,.82,0,1.5,.21,2.05,.63,.55,.42,.82,1.03,.82,1.83,0,.98-.56,2.06-1.68,3.25-1.12,1.19-2.32,1.78-3.61,1.78Z"/><path class="d" d="M47.21,17.5c-4.81,4.47-7.22,7.58-7.22,9.33,0,.98,.48,1.47,1.44,1.47,.79,0,1.82-.35,3.1-1.04,1.27-.69,3.26-1.93,5.97-3.71v2.36c-3.88,3.19-6.86,5.49-8.94,6.9-2.08,1.41-3.77,2.12-5.09,2.12-2.24,0-3.36-1.23-3.36-3.69,0-.73,.14-1.45,.41-2.15,.27-.71,.65-1.44,1.13-2.2,.48-.76,1.21-1.86,2.2-3.28,.98-1.42,2.12-3.04,3.4-4.84-1.56,.66-3.51,1.97-5.87,3.93-1.53,1.23-2.83,2.4-3.9,3.5-1.07,1.11-2.21,2.34-3.43,3.69-1.22,1.36-2.11,2.27-2.67,2.73-.56,.47-1.13,.7-1.7,.7-.88,0-1.68-.76-2.42-2.29-.74-1.53-1.11-3.3-1.11-5.33,0-1.25,.17-2.23,.51-2.94,.34-.71,1.02-1.71,2.03-3.01,1.89-2.41,3.51-4.19,4.88-5.31,1.37-1.13,2.68-1.69,3.94-1.69,.88,0,1.58,.13,2.11,.38,.53,.25,.8,.64,.8,1.16,0,.23-.08,.47-.25,.72-.16,.25-.35,.48-.55,.68-.21,.21-.63,.6-1.29,1.2-4.32,3.99-6.48,6.57-6.48,7.76,0,.66,.26,.99,.78,.99,.33,0,.96-.44,1.91-1.32,.94-.88,2.16-2.03,3.65-3.45,1.49-1.42,3.25-2.91,5.29-4.46,2.04-1.55,4.36-3.04,6.95-4.48,1.45-.84,2.65-1.26,3.61-1.26,.44,0,.87,.5,1.29,1.5,.42,1,.64,2.02,.64,3.04,0,.5-.59,1.26-1.76,2.29Z"/><path class="d" d="M64.64,5.95h1.76c1.45-2.16,2.76-3.7,3.94-4.6,1.18-.9,2.52-1.35,4.02-1.35s2.26,.29,2.26,.85c0,.27-.59,1.01-1.76,2.22-1.18,1.21-2.06,2.22-2.67,3.04,.93,.09,1.76,.17,2.48,.24,.72,.07,1.29,.13,1.7,.17-1.56,2.42-3.51,4.89-5.87,7.42-.77-.05-1.41-.09-1.93-.12-.52-.03-1.05-.07-1.58-.1s-1.18-.07-1.95-.12c-1.48,1.98-2.71,3.75-3.71,5.31-1,1.56-1.76,2.99-2.3,4.29-.53,1.3-.8,2.53-.8,3.69,0,1.57,.75,2.36,2.26,2.36,1.04,0,2.4-.46,4.08-1.38,1.68-.92,3.93-2.34,6.75-4.26v2.29c-7.38,6.68-12.84,10.01-16.37,10.01-1.23,0-2.22-.4-2.97-1.2-.75-.8-1.13-1.82-1.13-3.08,0-.84,.21-1.85,.63-3.01,.42-1.16,1.18-2.92,2.28-5.26-.38,.27-.75,.54-1.09,.8-.34,.26-.66,.5-.94,.72-.29,.22-.59,.44-.92,.68-.33,.24-.66,.48-.98,.73v-2.36c2.87-2,6.34-5.53,10.42-10.56-.41-.02-.79-.04-1.15-.05-.36-.01-.78-.02-1.27-.02-1.61,0-2.82,.09-3.61,.27-.33,.07-.64,.14-.92,.22-.29,.08-.48,.12-.59,.12s-.16-.07-.16-.21c0-.75,.56-1.88,1.68-3.38,.9-1.28,1.76-2.22,2.56-2.84s1.79-1.03,2.95-1.25c1.16-.22,2.8-.32,4.9-.32Z"/><path class="d" d="M76.04,17.57c4.16-3.14,8.19-5.48,12.1-7.01,3.91-1.53,6.93-2.29,9.06-2.29,.57,0,1.11,.2,1.6,.6,.49,.4,.88,.86,1.17,1.38,.29,.52,.43,.91,.43,1.16,0,.41-.19,.71-.57,.91-.38,.19-1.05,.43-2.01,.7,.19,.36,.44,.83,.74,1.4,.3,.57,.53,1.03,.7,1.38,.16,.35,.25,.67,.25,.94,0,.55-.66,1.57-1.99,3.06-1.33,1.49-2.26,2.59-2.79,3.3-.53,.71-.8,1.57-.8,2.6,0,1.69,.93,2.53,2.79,2.53s4.91-1.49,8.98-4.48v2.08c-6.92,6.4-11.87,9.6-14.85,9.6-1.07,0-1.83-.29-2.28-.87-.45-.58-.68-1.44-.68-2.58,0-1.8,.78-4.41,2.34-7.83-3.99,3.69-6.96,6.32-8.9,7.88-1.94,1.56-3.54,2.34-4.8,2.34-.6,0-1.35-.43-2.26-1.3-.9-.87-1.7-1.99-2.4-3.37-.7-1.38-1.05-2.81-1.05-4.29,0-1.07,.12-1.97,.37-2.68,.25-.72,.72-1.45,1.44-2.2,.71-.75,1.85-1.74,3.4-2.97Zm19.65-3.76c-7.11,2.71-12.18,5.01-15.2,6.9-3.02,1.89-4.53,3.84-4.53,5.84,0,.73,.15,1.33,.45,1.79,.3,.47,.71,.7,1.23,.7,.3,0,.83-.16,1.6-.48,2.87-1.41,5.5-3.25,7.88-5.52,2.38-2.27,5.24-5.35,8.57-9.25Z"/><path class="d" d="M110.7,23.75l-.74,2.87c-.11,.36-.16,.77-.16,1.23,0,1.23,.62,1.85,1.85,1.85s4.03-1.91,8.57-5.74c.03-1.48,.69-3.19,1.99-5.13,1.3-1.94,2.73-3.63,4.31-5.09,1.57-1.46,2.74-2.19,3.51-2.19,1.2,0,1.8,.66,1.8,1.98,0,.8-.23,1.77-.7,2.92-.46,1.15-1.15,2.39-2.05,3.73-.9,1.33-2.01,2.71-3.32,4.12,.68,1.03,1.38,1.54,2.09,1.54,.6,0,1.26-.18,1.99-.53,.72-.35,1.63-.89,2.73-1.62v2.29c-1.53,1-2.74,1.69-3.63,2.05-.89,.36-2.03,.55-3.42,.55-.55,0-1.53-.31-2.95-.92-2.79,2.46-5.06,4.3-6.81,5.52-1.75,1.22-3.17,1.83-4.27,1.83-1.89,0-3.49-.94-4.82-2.82-1.33-1.88-1.99-3.95-1.99-6.2,0-3.03,2.05-6.66,6.15-10.9,1.23-1.28,2.22-2.15,2.97-2.61,.75-.47,1.61-.7,2.56-.7,.82,0,1.6,.13,2.34,.38,.74,.25,1.11,.55,1.11,.89,0,1.14-.92,2.81-2.75,5.01-1.83,2.2-3.95,4.11-6.36,5.73Z"/><path class="d" d="M152.09,23.69v2.5c-2.65,2.85-5.13,5-7.42,6.44-2.3,1.45-4.25,2.17-5.87,2.17-2.24,0-3.91-.98-5-2.94-1.09-1.96-1.64-4.1-1.64-6.43,0-.89,.11-1.74,.33-2.55,.22-.81,.48-1.48,.78-2,.3-.52,.86-1.34,1.68-2.46,3.88-5.04,7.44-7.55,10.66-7.55,1.67,0,2.5,.54,2.5,1.61,0,.73-.54,1.87-1.62,3.42-1.08,1.55-2.04,2.65-2.89,3.32-2.38,1.91-3.93,3.25-4.66,4-.72,.75-1.09,1.61-1.09,2.56,0,.82,.37,1.5,1.11,2.05,.74,.55,1.7,.82,2.87,.82,1.29,0,2.7-.39,4.24-1.18,1.54-.79,3.55-2.04,6.01-3.78Zm-2.79-15.28c-.68,0-1.33-.22-1.95-.65-.62-.43-.92-.98-.92-1.64,0-1,.57-2.12,1.72-3.35,1.15-1.23,2.34-1.85,3.57-1.85,.82,0,1.5,.21,2.05,.63,.55,.42,.82,1.03,.82,1.83,0,.98-.56,2.06-1.68,3.25-1.12,1.19-2.32,1.78-3.61,1.78Z"/><path class="d" d="M158.28,24.92v.85c0,1.34,.4,2.39,1.19,3.14,.79,.75,1.83,1.13,3.12,1.13s2.73-.26,4.16-.79c1.44-.52,2.87-1.22,4.29-2.08,1.42-.87,3.16-2.03,5.21-3.49v2.08c-3.09,3.1-5.99,5.47-8.7,7.13-2.71,1.65-5.46,2.48-8.24,2.48-2.43,0-4.36-.79-5.78-2.36-1.42-1.57-2.13-3.73-2.13-6.46,0-2.39,.67-4.56,2.01-6.51,1.34-1.95,3.53-4,6.56-6.17,2.08-1.48,4.14-2.6,6.19-3.35,2.05-.75,3.88-1.13,5.5-1.13,1.29,0,2.3,.25,3.05,.73,.75,.49,1.13,1.23,1.13,2.2,0,1.44-.64,2.87-1.93,4.29-1.29,1.42-3.25,2.84-5.89,4.24-2.64,1.4-5.88,2.75-9.74,4.05Zm.41-2.22c2.46-.8,4.57-1.79,6.32-2.97,1.75-1.18,3.04-2.32,3.88-3.4,.83-1.08,1.25-1.87,1.25-2.38s-.29-.79-.86-.79c-.49,0-1.29,.26-2.4,.79-1.11,.52-2.23,1.21-3.36,2.05-1.13,.84-2.15,1.83-3.05,2.97-.9,1.14-1.49,2.38-1.76,3.73Z"/><path class="d" d="M197.7,27.72c0,1.03,.46,1.54,1.39,1.54,1.2,0,3.31-1.7,6.32-5.09-.11-.64-.16-1.06-.16-1.26,0-1.23,.59-2.73,1.76-4.51,1.18-1.78,2.53-3.33,4.06-4.65,1.53-1.32,2.69-1.98,3.49-1.98,.96,0,1.44,.96,1.44,2.87,0,1.57-.4,3.12-1.21,4.65-.81,1.53-1.97,3.09-3.51,4.68,.25,.21,.52,.42,.82,.63,.3,.22,.62,.4,.96,.55,.34,.15,.71,.22,1.09,.22,.9,0,2.05-.6,3.45-1.81v2.43c-2.16,1.87-4.03,2.8-5.62,2.8-.93,0-1.66-.1-2.2-.29-.53-.19-1.21-.54-2.03-1.04-5.03,5.04-8.86,7.55-11.48,7.55-1.01,0-1.81-.31-2.4-.94-.59-.63-.88-1.5-.88-2.61,0-.55,.27-2.6,.82-6.15-1.07,1.03-2.31,2.23-3.73,3.62-1.42,1.39-2.57,2.46-3.45,3.2-.88,.74-1.69,1.32-2.44,1.73-.75,.41-1.51,.62-2.28,.62s-1.62-.39-2.65-1.16c-1.03-.77-1.89-1.81-2.6-3.09-.71-1.29-1.07-2.67-1.07-4.15s.25-2.67,.74-3.69,1.61-2.56,3.36-4.61c1.59-1.82,2.99-3.32,4.22-4.48s2.34-2.06,3.34-2.7c1-.64,1.81-.96,2.44-.96,.38,0,.88,.07,1.5,.22,.62,.15,1.16,.35,1.64,.6,.48,.25,.72,.51,.72,.79,0,.87-.46,1.96-1.38,3.28-.92,1.32-2.28,2.8-4.08,4.44s-3.87,3.32-6.19,5.02c-.63,1.57-.94,2.85-.94,3.83,0,.32,.12,.62,.35,.91,.23,.29,.51,.43,.84,.43,1.12,0,3.27-1.46,6.46-4.37,3.19-2.92,7.39-7.34,12.61-13.26,.19-.23,.6-.34,1.23-.34,.68,0,1.3,.13,1.87,.38,.56,.25,.84,.59,.84,1.03,0,.25-.72,1.58-2.15,4-1.44,2.42-2.68,4.63-3.73,6.65s-1.58,3.53-1.58,4.53Z"/></g></g></g></svg>