<?xml version="1.0" encoding="UTF-8"?><svg xmlns="http://www.w3.org/2000/svg" xmlns:xlink="http://www.w3.org/1999/xlink" viewBox="0 0 326.9 73.09"><defs><style>.i{fill:url(#e);}.j{fill:url(#d);}.k{fill:url(#g);}.l{fill:url(#f);}.m{fill:url(#h);}</style><linearGradient id="d" x1="15.06" y1="99.08" x2="335.52" y2="99.08" gradientTransform="translate(-5.56 -46.68) rotate(-4.93) scale(1.02 .98) skewX(-9.71)" gradientUnits="userSpaceOnUse"><stop offset="0" stop-color="blue"/><stop offset=".15" stop-color="#1a2aff"/><stop offset=".46" stop-color="#4b79ff"/><stop offset=".71" stop-color="#6fb3ff"/><stop offset=".9" stop-color="#85d7ff"/><stop offset="1" stop-color="#8ee5ff"/></linearGradient><linearGradient id="e" x1="15.06" y1="102.3" x2="335.52" y2="102.3" xlink:href="#d"/><linearGradient id="f" x1="-647.83" y1="30.16" x2="397.63" y2="30.16" gradientTransform="matrix(1, 0, 0, 1, 0, 0)" xlink:href="#d"/><linearGradient id="g" x1="15.06" y1="98.54" x2="335.52" y2="98.54" xlink:href="#d"/><linearGradient id="h" x1="-249.49" y1="44.06" x2="850.08" y2="44.06" gradientTransform="matrix(1, 0, 0, 1, 0, 0)" xlink:href="#d"/></defs><g id="a"/><g id="b"><g id="c"><g><path class="j" d="M32.09,34.16c.79-.23,1.59-.47,2.4-.7,.81-.23,1.63-.45,2.46-.63,.83-.19,1.64-.32,2.42-.38,1.67-.14,3.08,.04,4.22,.55,1.14,.51,1.96,1.27,2.46,2.27,.5,1,.69,2.12,.58,3.35-.17,1.92-.79,4.15-1.86,6.7-1.07,2.55-2.51,5.17-4.33,7.86-1.81,2.69-3.89,5.27-6.22,7.72-3.19,3.33-6.91,6.11-11.15,8.34-4.25,2.23-8.08,3.5-11.48,3.79-2.51,.22-4.67-.16-6.49-1.11-1.82-.96-3.17-2.46-4.06-4.51S-.17,62.88,.09,59.99c.35-3.88,1.98-7.88,4.91-12,2.93-4.12,6.5-7.92,10.72-11.42,4.22-3.5,8.42-6.37,12.6-8.63,4.18-2.25,7.52-3.48,10.03-3.7,2.05-.18,3.57,.2,4.58,1.14,1,.94,1.88,2.51,2.63,4.72-2.69,.3-5.05,.77-7.08,1.4-2.03,.63-4.16,1.52-6.38,2.65Zm-11.54,8.15c-2.18,1.95-4.42,4.41-6.73,7.4-2.31,2.98-4.22,5.88-5.73,8.69-1.51,2.81-2.33,4.92-2.45,6.34-.31,3.53,1.53,5.12,5.54,4.77,2.8-.24,6.55-2.1,11.25-5.58,4.7-3.48,8.89-7.55,12.55-12.2,3.66-4.65,5.65-8.76,5.97-12.34,.23-2.63-.92-3.83-3.46-3.61-1.96,.17-4.41,1.01-7.35,2.54-2.94,1.52-5.81,3.57-8.62,6.13-1,.93-3.02,3.17-6.05,6.72,.72-2.27,2.41-5.22,5.08-8.86Z"/><g><path class="i" d="M191.51,46.39c-.62-1.03-1.62-1.92-2.98-2.67-1.37-.75-2.92-1.32-4.68-1.69-1.76-.38-3.6-.61-5.54-.7-5.76-.21-11.06-1.29-15.9-3.25-.42-.15-.84-.51-1.28-1.09-.44-.57-.63-1.14-.58-1.71,.18-2.08,.8-4.21,1.83-6.38,1.04-2.17,2.27-3.9,3.7-5.2,2.31-2.15,6.3-4.2,11.99-6.14,5.68-1.95,12-3.22,18.95-3.82,4.15-.36,7.34-.37,9.56-.05,2.22,.33,3.28,1.03,3.18,2.12-.16,1.78-.58,3.17-1.25,4.2-.68,1.02-1.37,1.72-2.08,2.1-.71,.38-1.93,.91-3.69,1.6-1.86,.68-3.49,1.36-4.88,2.04-1.39,.68-2.59,1.33-3.58,1.93-1,.6-1.61,.91-1.84,.93-.29,.02-.42-.06-.41-.25,.04-.4,.6-1.06,1.7-1.96s2.42-1.73,3.98-2.47c1.65-.82,2.48-1.33,2.5-1.52,.03-.31-.84-.39-2.6-.23-5.34,.46-10.3,1.28-14.9,2.45-4.6,1.17-8.26,2.51-10.98,4.01-2.73,1.5-4.15,2.92-4.26,4.24-.07,.83,.42,1.37,1.47,1.62,1.05,.25,3.39,.62,7.01,1.11,3.62,.49,6.84,1.13,9.66,1.92,4.05,1.11,7.02,2.37,8.9,3.78,1.88,1.41,2.73,3.1,2.56,5.07-.12,1.35-.64,2.74-1.55,4.17-.91,1.43-2.19,2.78-3.82,4.05-1.63,1.27-3.47,2.35-5.53,3.26-1.75,.74-3.95,1.48-6.57,2.22-2.63,.74-5.46,1.39-8.5,1.95-3.04,.56-5.93,.95-8.67,1.19-5.05,.44-9.07,.39-12.08-.12-3-.52-4.43-1.57-4.29-3.15,.06-.71,.68-1.86,1.85-3.45,1.17-1.59,2.49-2.71,3.95-3.35,1.28-.51,2.49-.84,3.65-1,1.16-.16,1.73-.1,1.7,.19,0,.07-.06,.15-.15,.22-.09,.08-.2,.15-.32,.2-.12,.06-.24,.11-.36,.17-.6,.24-1.08,.43-1.45,.57-.37,.14-.67,.27-.89,.39-.22,.12-.35,.28-.36,.47-.04,.5,2.92,.49,8.89-.03,5.19-.45,9.46-.97,12.8-1.56,3.34-.59,6.32-1.4,8.93-2.43,2.61-1.02,5.02-2.33,7.22-3.93Z"/><path class="l" d="M288.93,18.97c.71-.91,1.74-2.04,3.09-3.4,1.35-1.36,2.04-2.18,2.07-2.47,.05-.59-.71-.82-2.3-.68-1.59,.14-3.04,.73-4.37,1.77-1.32,1.04-2.85,2.75-4.58,5.13l-1.86,.16c-2.22,.19-3.96,.45-5.2,.78-1.25,.33-2.32,.85-3.23,1.56-.91,.71-1.9,1.77-2.97,3.18-1.32,1.66-2.02,2.89-2.09,3.67-.01,.14,.04,.21,.15,.2,.11,0,.33-.07,.64-.18,.31-.11,.64-.21,.99-.31,.85-.26,2.13-.47,3.83-.61,.52-.04,.97-.08,1.34-.1,.37-.02,.78-.04,1.21-.05-4.61,5.42-8.49,9.3-11.65,11.67-1.2,.8-2,1.33-2.37,1.57-.4,.26-.84,.51-1.33,.75-.49,.24-.99,.38-1.48,.43l-.65,.06-.72-.57c1.26-1.61,2.29-3.31,3.09-5.09,.8-1.78,1.25-3.24,1.36-4.38,.1-1.16-.03-1.94-.39-2.34-.37-.4-1.09-.65-2.17-.75,.72-.67,1.1-1.25,1.14-1.72,.05-.62-.29-1.06-1.04-1.34-.75-.28-1.8-.36-3.16-.24-1.9,.16-4.01,.83-6.32,2.01-2.31,1.17-4.51,2.64-6.6,4.41-2.09,1.77-3.83,3.62-5.22,5.58-1.09,1.54-1.79,2.94-2.11,4.2-4.81,3.29-7.91,5.01-9.26,5.13-1.3,.11-1.9-.39-1.8-1.5,.07-.76,.48-1.69,1.24-2.8,.76-1.11,1.81-2.39,3.15-3.83s3.15-3.27,5.4-5.49c.32-.38,.49-.69,.51-.92,.05-.54-.26-1.2-.94-1.98-.68-.78-1.45-1.13-2.31-1.05-.92,.08-2.42,.78-4.48,2.1-2.06,1.32-4.61,3.22-7.64,5.71-3.03,2.49-6.63,5.67-10.81,9.53l.38-4.26c2.49-2.28,4.72-4.39,6.68-6.34,1.96-1.94,4.13-4.15,6.51-6.62s4.17-4.38,5.38-5.71c1.21-1.34,3.26-3.65,6.15-6.93,2.68-3.1,4.58-5.37,5.69-6.82,1.12-1.45,1.7-2.47,1.75-3.06,.03-.33-.25-.6-.85-.81-.6-.21-1.4-.3-2.4-.29-.8,.02-2.48,1.15-5.02,3.38-2.54,2.23-5.79,5.47-9.73,9.72-3.94,4.25-8.71,9.7-14.31,16.33-2.66,3.17-4.34,5.67-5.05,7.52-.71,1.85-1.13,3.52-1.26,5.01-.4,4.54,.52,6.72,2.77,6.53,.55-.05,1.15-.37,1.8-.97,.65-.6,1.93-1.88,3.82-3.84,1.89-1.96,3.85-3.88,5.88-5.77,.66-.64,1.47-1.42,2.44-2.34,.97-.92,2.06-1.81,3.29-2.68,1.22-.87,2.51-1.66,3.86-2.36-2.9,3.35-5.16,6.24-6.76,8.67-1.61,2.43-2.48,4.52-2.64,6.27-.19,2.18,.83,3.17,3.08,2.98,.95-.08,2.14-.52,3.57-1.33,1.43-.8,3.12-1.95,5.07-3.45,1.85-1.42,4.06-3.23,6.58-5.4,.03,1.34,.29,2.56,.79,3.65,.66,1.45,1.61,2.55,2.86,3.31,1.25,.76,2.68,1.07,4.3,.93,2.86-.25,6.32-2.35,10.39-6.32,2.16-.09,3.83-.42,5.03-1,1.08-.52,2.52-1.47,4.29-2.82v.05c.36-.29,.73-.57,1.1-.85,.37-.28,.71-.54,1.04-.79,.32-.25,.68-.53,1.06-.83,.38-.3,.79-.61,1.22-.93-1.37,2.54-2.33,4.43-2.89,5.68-.55,1.25-.87,2.31-.95,3.18-.12,1.3,.19,2.33,.91,3.09,.72,.76,1.73,1.08,3.03,.97,3.72-.32,9.78-4.28,18.19-11.89l.21-2.38c-3.15,2.24-5.65,3.92-7.51,5.03-1.86,1.11-3.34,1.71-4.43,1.81-1.59,.14-2.31-.61-2.16-2.25,.11-1.21,.5-2.51,1.18-3.91,.68-1.4,1.62-2.95,2.82-4.66s2.67-3.67,4.41-5.86c.8-.02,1.49-.04,2.04-.05,.56-.01,1.11-.03,1.66-.04,.54-.01,1.22-.03,2.02-.05,2.71-2.84,5-5.59,6.87-8.24-.43-.01-1.02-.02-1.78-.02s-1.62-.01-2.6-.02Zm-36.57,17.23c-.89,1.62-1.4,3.17-1.53,4.66-.09,1.02,.06,2.06,.45,3.13-3.07,2-5.22,3.06-6.46,3.16-2.65,.23-3.91-.44-3.77-2,.02-.21,.5-1.68,1.46-4.39,.49-1.03,1.37-2.09,2.64-3.17,1.27-1.08,2.8-2.18,4.58-3.28,1.79-1.11,3.93-2.35,6.43-3.74-1.65,2.14-2.92,4.02-3.81,5.63Z"/><path class="k" d="M294.12,47.45c-.87,.07-1.69-.17-2.47-.72-.78-.56-1.12-1.4-1.02-2.54,.13-1.49,.75-3.21,1.85-5.16,1.1-1.95,2.16-2.97,3.17-3.06,.63-.05,1.26,.07,1.88,.38,.62,.31,1.12,.78,1.53,1.4,.4,.62,.57,1.34,.5,2.14-.12,1.3-.78,2.86-2,4.68-1.22,1.82-2.37,2.78-3.43,2.87ZM319.52,.37c.62-.19,1.16-.31,1.62-.35,.95-.08,1.97,.08,3.07,.48s1.99,1.01,2.69,1.85c-1.5,1.75-3.94,4.61-7.31,8.59-3.37,3.98-5.89,6.96-7.56,8.93-1.66,1.98-3.38,4.03-5.14,6.15-1.76,2.12-3.1,3.77-4,4.92,.54,.05,.79,.3,.75,.75-.02,.28-.41,.8-1.15,1.54-.74,.75-1.38,1.14-1.93,1.19-.64,.05-1.4-.35-2.3-1.21-.9-.86-1.31-1.64-1.25-2.32,.03-.33,.3-.92,.82-1.76,.52-.84,1.41-2.12,2.68-3.84,1.27-1.72,2.69-3.62,4.26-5.71,1.57-2.09,3.5-4.65,5.77-7.69,4.45-5.9,7.43-9.74,8.97-11.52Z"/></g><path class="m" d="M147.5,17.15c-11.22,.42-22.73,.93-33.89,4.04-1.58-.58-3.59-.72-5.37-.65-14.58,.55-29.68,1.22-43.82,7.6-2.32,1.04-4.74,2.37-6.11,4.52-1.38,2.15-1.28,6.38,1.13,5.84,.68-.15,.93-.69,.93-.69,1.05-3.11,4.21-5.61,7.37-5.72,2-.07,3.99-.13,5.99-.2-.29,.18-.57,.38-.85,.59l-1.39,1.02c-3.61,4.71-6.86,9.26-9.89,13.92-2.51,.43-5.1,.97-7.95,1.66l-.79,.38c-1.48,.76-2.75,2.02-3.51,3.48-.26,.51-.47,1.07-.38,1.57,.24,1.37,2.18,1.3,3.65,.96,1.58-.37,3.16-.78,4.74-1.19-1.44,2.45-2.83,4.96-4.21,7.57-1.09,2.08-2.18,4.44-1.55,6.41,.87,2.68,4.49,3.18,7.52,2.38,.51-.13,1.06-.33,1.39-.76,.23-.3,.31-.67,.38-1.03,1.22-5.87,3.45-11.59,6.12-17.22,3.73-1.08,7.45-2.2,11.18-3.33,1.11-.34,2.47-.93,2.68-2.04-1.74-.39-3.62-.35-5.48-.27-2.03,.09-3.92,.21-5.76,.37,2.17-4.19,4.5-8.33,6.74-12.47,.32-.59,.65-1.25,.5-1.82-.03-.11-.08-.2-.13-.29,6.69-.22,13.39-.44,20.08-.66-.46,2.08,.05,4.39,1.86,3.98,.68-.15,.93-.69,.93-.69,.44-1.31,1.27-2.5,2.31-3.46,1.35-.04,2.71-.09,4.06-.13,1.51-.05,3.06-.11,4.58-.48-3.54,4.62-6.73,9.1-9.7,13.68-2.51,.43-5.1,.97-7.95,1.66l-.79,.38c-1.48,.76-2.75,2.02-3.51,3.48-.26,.51-.47,1.07-.38,1.57,.24,1.37,2.18,1.3,3.65,.96,1.58-.37,3.16-.78,4.74-1.19-1.44,2.45-2.83,4.96-4.21,7.57-1.09,2.08-2.18,4.44-1.55,6.41,.87,2.68,4.49,3.18,7.52,2.38,.51-.13,1.06-.33,1.39-.76,.23-.3,.31-.67,.38-1.03,1.22-5.87,3.45-11.59,6.12-17.22,3.73-1.08,7.45-2.2,11.18-3.33,1.11-.34,2.47-.93,2.68-2.04-1.74-.39-3.62-.35-5.48-.27-2.03,.09-3.92,.21-5.76,.37,2.17-4.19,4.5-8.33,6.74-12.47,.32-.59,.65-1.25,.5-1.82-.03-.11-.08-.2-.13-.29,9.75-.32,19.49-.64,29.24-.96,2.14-.07,4.36-.16,6.43-1.11,2.07-.95,3.97-3.01,3.97-5.1,0-3.52-4.56-4.22-8.15-4.09Z"/></g></g></g></svg>