<?xml version="1.0" encoding="UTF-8"?><svg xmlns="http://www.w3.org/2000/svg" viewBox="0 0 49.34 49.34"><defs><style>.d{fill:#002fcd;}.e{fill:#fff;}</style></defs><g id="a"/><g id="b"><g id="c"><g><circle class="d" cx="24.67" cy="24.67" r="24.67"/><path class="e" d="M27.31,34.24v-2.46l7.4-8.99c.73-.89,1.03-1.59,1.03-2.56,0-1.73-1.03-2.91-2.81-2.91-1.46,0-2.83,.81-2.83,2.97h-2.75c0-3.27,2.32-5.43,5.59-5.43s5.56,2.08,5.56,5.4c0,1.7-.62,2.7-1.81,4.16l-6.02,7.37h7.83v2.46h-11.18Z"/><g><path class="e" d="M18.12,35.15l-1.42-1.42c-.82,.58-1.86,.9-2.98,.9-1.52,0-2.76-.54-3.74-1.52-1.4-1.4-1.38-2.98-1.38-5.72s-.02-4.32,1.38-5.72c.98-.98,2.22-1.52,3.74-1.52s2.78,.54,3.76,1.52c1.4,1.4,1.36,2.98,1.36,5.72,0,2.42,.02,3.9-.92,5.18l1.4,1.38-1.2,1.2Zm-2.28-12.18c-.5-.54-1.28-.88-2.12-.88s-1.62,.34-2.12,.88c-.7,.76-.84,1.56-.84,4.42s.14,3.66,.84,4.42c.5,.54,1.28,.88,2.12,.88,.54,0,1.04-.16,1.46-.46l-1.5-1.5,1.2-1.2,1.38,1.38c.36-.72,.42-1.68,.42-3.52,0-2.86-.14-3.66-.84-4.42Z"/><path class="e" d="M21.73,34.51v-2.44h2.44v2.44h-2.44Z"/></g></g></g></g></svg>