<?xml version="1.0" encoding="UTF-8"?><svg xmlns="http://www.w3.org/2000/svg" viewBox="0 0 49.34 49.34"><defs><style>.d{fill:#002fcd;}.e{fill:#fff;}</style></defs><g id="a"/><g id="b"><g id="c"><g><circle class="d" cx="24.67" cy="24.67" r="24.67"/><path class="e" d="M36.92,32.92c-.86,.86-2.19,1.51-4.05,1.51s-3.27-.65-4.1-1.48c-1.03-1.03-1.35-2.29-1.46-3.67h2.75c.22,1.7,1.08,2.67,2.81,2.67,.81,0,1.51-.27,2-.76,.81-.81,.92-2.08,.92-3.37,0-2.29-.59-4.02-2.81-4.02-1.57,0-2.43,.78-2.73,1.73h-2.51V15.02h10.37v2.46h-7.88v5.07c.65-.67,1.78-1.11,3.18-1.11,1.51,0,2.67,.46,3.46,1.24,1.46,1.46,1.67,3.32,1.67,5.13,0,2.05-.22,3.7-1.62,5.1Z"/><g><path class="e" d="M18.12,35.15l-1.42-1.42c-.82,.58-1.86,.9-2.98,.9-1.52,0-2.76-.54-3.74-1.52-1.4-1.4-1.38-2.98-1.38-5.72s-.02-4.32,1.38-5.72c.98-.98,2.22-1.52,3.74-1.52s2.78,.54,3.76,1.52c1.4,1.4,1.36,2.98,1.36,5.72,0,2.42,.02,3.9-.92,5.18l1.4,1.38-1.2,1.2Zm-2.28-12.18c-.5-.54-1.28-.88-2.12-.88s-1.62,.34-2.12,.88c-.7,.76-.84,1.56-.84,4.42s.14,3.66,.84,4.42c.5,.54,1.28,.88,2.12,.88,.54,0,1.04-.16,1.46-.46l-1.5-1.5,1.2-1.2,1.38,1.38c.36-.72,.42-1.68,.42-3.52,0-2.86-.14-3.66-.84-4.42Z"/><path class="e" d="M21.73,34.51v-2.44h2.44v2.44h-2.44Z"/></g></g></g></g></svg>