<?xml version="1.0" encoding="UTF-8"?>
<svg id="_レイヤー_2" data-name="レイヤー 2" xmlns="http://www.w3.org/2000/svg" viewBox="0 0 826.15 88.09">
  <defs>
    <style>
      .cls-1 {
        fill: #f5b32d;
      }

      .cls-2 {
        fill: #231815;
      }
    </style>
  </defs>
  <g id="_文字" data-name="文字">
    <g>
      <g>
        <path class="cls-2" d="M25.48,12.41c-.58.78-.84,1.3-1.82,3.32-5.01,10.08-11.31,17.62-20.48,24.38-.84-1.3-1.69-2.28-3.19-3.51,7.87-5.27,13.46-11.25,17.81-19.05,1.63-2.86,2.47-4.88,2.8-6.83l4.88,1.69ZM19.18,37.7c-2.47,0-4.68.13-6.7.39v-4.62c1.89.26,4.1.39,6.76.39h21.39c2.99,0,4.94-.07,6.83-.33-.2,1.17-.2,1.69-.26,4.62,0,12.61-1.23,23.6-2.93,26.65-1.1,1.95-2.67,2.6-6.44,2.6-2.15,0-4.42-.13-8.52-.52-.2-1.76-.39-2.73-1.04-4.62,3.58.72,6.83,1.11,9.17,1.11,2.08,0,2.8-.39,3.25-1.63,1.37-3.97,2.15-12.81,2.15-24.05h-15.15c-.59,7.15-2.08,12.03-5.07,17.1-3.38,5.66-8.45,10.08-16.38,14.17-.84-1.5-1.5-2.34-2.86-3.64,8.32-4.03,13.26-8.32,16.38-14.24,2.15-4.1,3.06-7.67,3.51-13.39h-4.1ZM39.39,10.85c.52,1.69,1.1,2.99,2.47,5.46,4.75,8.52,10.27,14.37,19.18,20.22-1.24,1.17-2.08,2.28-3.06,3.97-10.27-7.61-15.8-14.17-21.91-26.13-.33-.59-.72-1.3-1.04-1.82l4.35-1.69Z"/>
        <path class="cls-2" d="M75.27,21.38c1.49.26,2.67.33,5,.33h10.14c2.54,0,3.64-.07,4.94-.33v4.16c-1.36-.13-2.79-.2-4.94-.2h-10.14c-2.21,0-3.51.07-5,.26v-4.23ZM77.22,69.23c.26-1.69.39-3.64.39-6.44v-8.52c0-2.54-.06-4.16-.33-5.85,1.62.2,2.6.26,4.49.26h7.8c2.08,0,3.06-.07,4.23-.26-.19,1.69-.19,2.47-.19,5.46v8.71c0,2.28.06,3.9.26,5.27h-3.77v-2.41h-8.78v3.77h-4.1ZM77.35,12.41c1.49.26,2.6.33,4.75.33h6.89c2.15,0,3.19-.07,4.75-.33v4.16c-1.56-.2-2.73-.26-4.75-.26h-6.89c-1.95,0-3.38.07-4.75.26v-4.16ZM77.68,30.49c1.3.2,2.27.26,4.49.26h7.08c2.15,0,3.06-.07,4.36-.26v4.03c-1.56-.2-2.34-.26-4.36-.26h-7.08c-2.02,0-2.99.07-4.49.26v-4.03ZM77.68,39.46c1.3.2,2.27.26,4.49.26h7.08c2.15,0,2.93-.07,4.36-.26v4.03c-1.62-.2-2.41-.26-4.42-.26h-7.08c-2.08,0-2.99.07-4.42.26v-4.03ZM81.25,62.08h8.84v-10.08h-8.84v10.08ZM112.13,48.04c-1.56,2.15-2.21,2.86-3.96,4.42v10.73c3.44-.72,6.31-1.56,11.05-3.12l.13,3.51c-5.59,1.89-12.61,3.71-18.07,4.68q-2.21.39-3.12.65l-.72-4.03c2.02-.07,3.64-.26,7.09-.91v-8.84c-2.67,1.69-4.49,2.67-8.32,4.29-.65-1.37-1.17-2.15-2.08-3.19,4.62-1.43,7.35-2.73,10.4-4.94,1.5-1.11,2.27-1.76,3.44-3.25h-6.18c-3.25,0-4.48.07-5.85.26v-3.64c1.3.2,2.67.26,5.98.26h4.03v-4.75h-1.17c-2.99,0-4.29.07-5.66.26v-3.58c1.37.2,2.54.26,5.72.26h1.1v-4.49h-2.92c-3.12,0-4.23.07-5.59.26v-3.64c1.17.2,2.54.26,5.66.26h2.86c0-2.6-.06-3.97-.32-5.27h4.16c-.26,1.37-.33,2.6-.33,5.27h9.17c0-3.19-.06-3.84-.26-5.2h4.03c-.19,1.24-.26,2.02-.26,5.2h3.31c3.19,0,4.62-.07,6.18-.33v3.77c-1.69-.26-3.12-.33-6.05-.33h-3.44v4.49h2.92c2.99,0,4.36-.07,5.79-.33v3.71c-1.56-.26-2.92-.33-5.85-.33h-2.86v4.75h4.68c3.25,0,4.68-.07,6.24-.33v3.77c-1.56-.26-3.25-.33-6.37-.33h-9.04c1.04,3.06,1.95,4.94,3.58,7.15,3.31-2.08,5.2-3.71,7.15-6.11l2.99,2.41c-3.51,3.06-4.88,4.16-8,6.18,2.99,3.06,6.5,5.14,11.77,7.15-1.04,1.17-1.62,2.08-2.54,3.71-10.21-4.94-15.8-11.12-18.53-20.48h-1.95ZM109.92,20.6c-3.64,3.12-6.7,4.94-11.7,7.09-.72-1.04-1.56-1.95-2.6-2.73,5.27-1.69,8.45-3.51,11.38-6.44l2.93,2.08ZM126.69,14.88c2.8,0,4.62-.13,6.37-.39v4.03c-2.15-.26-3.9-.33-6.31-.33h-24.25c-2.41,0-3.97.07-5.59.26v-3.9c2.08.26,3.51.33,6.11.33h8.97v-.91c0-1.43-.06-2.8-.26-4.1h4.55c-.26,1.11-.32,2.21-.32,4.1v.91h10.73ZM109.46,37.12h9.17v-4.49h-9.17v4.49ZM109.46,44.92h9.17v-4.75h-9.17v4.75ZM120.32,18.52c3.84,2.73,7.15,4.23,13.39,5.98-.85,1.04-1.04,1.3-2.02,2.99-6.11-2.15-9.56-3.84-13.85-6.76l2.47-2.21Z"/>
        <path class="cls-2" d="M156.59,40.04c0-2.93.13-5.53.33-8.52-2.54,4.36-3.9,6.37-6.96,9.88-.26-1.17-.85-2.08-2.34-3.71,5.33-5.53,9.17-11.51,12.22-18.79,1.36-3.38,2.4-6.63,2.73-8.71l4.29,1.37c-2.34,6.31-2.86,7.54-6.11,14.3v35.3c0,2.93.13,5.2.46,7.61h-5.07c.32-2.28.45-4.16.45-7.8v-20.93ZM173.23,28.08c-2.47,0-4.88.13-6.83.33v-4.55c1.69.26,3.84.39,6.83.39h25.68c2.86,0,5.13-.13,6.89-.39v4.55c-1.88-.2-4.35-.33-6.83-.33h-11.57v13.72h9.62c2.67,0,5-.13,6.76-.39v4.42c-1.95-.2-4.36-.33-6.7-.33h-9.69v16.84h13.46c2.86,0,5.39-.13,7.08-.39v4.49c-1.95-.2-4.42-.33-7.08-.33h-30.29c-2.73,0-5.2.13-7.15.33v-4.49c1.75.26,4.16.39,7.02.39h12.74v-16.84h-8.06c-2.41,0-4.75.13-6.76.33v-4.42c1.75.26,4.03.39,6.69.39h8.13v-13.72h-9.95ZM179.14,10.66c5.33,2.8,8.25,4.62,13.07,8.26l-3.06,3.32c-3.96-3.58-6.69-5.4-12.87-8.65l2.86-2.93Z"/>
        <path class="cls-2" d="M246.35,34.65c-7.8,1.5-10.08,1.89-17.68,2.99-.65-1.76-1.17-2.86-2.01-3.97,13.26-1.3,23.34-3.32,33.8-6.7,4.03-1.3,5.53-1.89,7.28-2.99l3.64,3.58q-1.5.39-6.31,2.02c-3.96,1.37-10.21,3.12-14.37,4.16v9.43l23.6-2.86c2.47-.33,4.75-.78,6.44-1.24l.46,4.68h-.98c-1.43,0-3.58.13-5.59.39l-23.92,2.99v13.39c0,1.69.26,2.21,1.62,2.67,1.24.39,4.55.59,9.56.59,7.41,0,10.92-.33,12.35-1.24,1.49-.85,1.88-2.6,2.14-9.1,1.88,1.17,2.21,1.3,4.16,1.82-.46,6.63-1.37,9.23-3.64,10.66-2.08,1.37-5.72,1.76-15.21,1.76-7.54,0-11.18-.33-13.13-1.24-1.75-.85-2.21-1.95-2.21-5.2v-13.59l-15.15,1.82c-2.6.33-4.55.72-6.5,1.24l-.52-4.68h1.04c1.37,0,3.58-.13,5.53-.39l15.6-1.95v-9.04ZM249.73,14.43c0-1.43-.13-2.47-.46-3.97h5.07c-.26,1.43-.39,2.54-.39,3.97v3.06h19.18c2.79,0,4.49-.07,6.57-.26-.2,1.37-.26,2.47-.26,4.42v4.29c0,1.89.06,3.38.26,4.55h-4.29v-9.17h-45.44v9.17h-4.29c.2-1.43.26-2.54.26-4.55v-4.29c0-1.89-.07-3.06-.26-4.42,2.08.2,3.71.26,6.5.26h17.55v-3.06Z"/>
        <path class="cls-2" d="M311.94,14.56c-.98,2.8-1.76,5.98-2.73,10.4-1.37,6.83-1.95,12.55-1.95,20.35,0,5.07.13,8.91.39,12.35.91-4.36,2.15-7.93,4.23-12.68l3.12,1.5c-2.92,6.44-5.27,14.24-5.27,17.88v.98l-4.68.39c-.13-1.04-.2-1.37-.39-2.6-1.24-6.89-1.69-11.57-1.69-18.4,0-9.23.78-16.12,2.92-25.74.65-3.06.78-3.71.91-5.2l5.14.78ZM328.51,40.69c-3.25,3.58-4.88,6.7-4.88,9.56,0,4.81,4.09,7.15,12.48,7.15,5.92,0,11.44-.85,14.95-2.28l.65,5.01c-.85.07-.98.13-2.28.33-4.55.91-8.91,1.3-13.33,1.3-7.41,0-12.09-1.56-14.89-4.94-1.3-1.63-1.95-3.58-1.95-5.98,0-3.97,1.62-7.48,5.66-12.09l3.58,1.95ZM320.26,21.45c2.79.72,5.98.98,11.05.98,7.22,0,13.07-.59,17.42-1.76l.33,4.62c-.13,0-1.62.2-4.49.59-3.77.52-8.97.85-13.98.85-3.64,0-6.17-.2-10.4-.65l.07-4.62Z"/>
      </g>
      <g>
        <path class="cls-2" d="M752.57,20.73c2.15-4.55,2.93-6.83,3.12-8.91l5.2.91q-.58.85-1.69,3.51c-.85,2.08-1.69,3.84-2.02,4.42q.78-.07,1.37-.07c10.4-.52,16.9-1.3,20.48-2.47l.39,4.42c-1.04.07-1.43.13-2.6.33-6.76.91-13.58,1.43-21.45,1.69-1.95,3.84-3.58,6.44-5.85,9.23-.65.78-1.95,2.28-2.21,2.47-.46.33-.78.59-.84.65,0,.07-.07.07-.07.07v.07q.07.13.13.2,2.34-1.82,2.99-2.28c2.99-2.08,6.44-3.19,9.82-3.19,4.81,0,7.74,2.41,8.58,7.22,4.75-1.89,8.45-3.25,11.31-4.29,3.18-1.11,3.38-1.17,4.42-1.89l2.08,4.55c-3.38.59-9.23,2.54-17.36,5.72.13,1.69.13,2.34.13,3.97,0,.85,0,2.28-.06,3.58-.07,1.43-.07,2.34-.07,2.93,0,.91,0,1.43.13,2.34l-4.42.07c.2-1.43.39-5.4.39-9.36,0-1.04,0-1.17-.06-1.95-8.84,4.16-12.22,7.22-12.22,11.12,0,4.29,4.03,6.18,13.2,6.18,6.44,0,13.65-1.04,17.36-2.54l.58,5.01c-.97.07-1.3.13-2.6.33-5.14.85-10.79,1.3-15.8,1.3-11.63,0-17.29-3.32-17.29-10.01,0-3.58,2.21-6.96,6.63-10.27,2.21-1.63,5.33-3.32,9.69-5.2-.52-3.58-2.08-5.14-5.14-5.14-4.09,0-9.23,2.41-14.5,6.89-2.54,2.15-3.96,3.64-5,5.4l-3.64-3.64c4.49-3.45,9.88-10.27,14.56-18.59q.2-.33.58-.98c-.26.07-.91.13-1.23.13-1.04,0-7.15-.13-9.56-.2h-1.04c-.58,0-.71,0-1.43.07l.07-4.49c2.34.46,7.28.72,13.91.72h1.04Z"/>
        <path class="cls-2" d="M826.15,58.96c0,5.4-4.36,9.75-9.75,9.75s-9.75-4.36-9.75-9.75,4.36-9.75,9.75-9.75,9.75,4.36,9.75,9.75ZM810.35,58.96c0,3.32,2.73,6.05,6.04,6.05s6.05-2.73,6.05-6.05-2.73-6.05-6.05-6.05-6.04,2.73-6.04,6.05Z"/>
      </g>
      <g>
        <path class="cls-2" d="M409.53,70c-7.14,0-13.68-1.6-18.39-7.6-2.28,4.1-5.47,7.3-9.2,9.88l-4.86-6.99c3.65-1.98,7.3-5.02,9.73-8.97v-19.53h-8.74v-7.83h16.49v26.15c3.5,5.55,8.06,7.14,14.59,7.14h.46l39.52-.3-2.74,8.06h-36.86ZM388.71,20.14c-2.2-3.5-7.14-9.88-10.41-13.22l6.23-5.17c3.34,3.72,7.68,9.35,10.11,13.38l-5.93,5.02ZM442.14,61.49c-4.87-1.6-10.95-4.18-15.35-6.76l3.88-4.56h-15.73l3.95,4.03c-5.02,3.72-9.96,5.7-15.73,7.07l-3.8-6.99c5.17-.68,10.26-2.05,13.98-4.1h-15.58v-6.38h11.32v-4.94l-9.58-.08v-6.08h9.58v-3.88h-3.57c-4.33,0-6.23-.99-6.23-5.09v-10.56h13.22v-4.26h-13.53V2.66h20.83v15.88h-13.3v3.12c0,1.22.38,1.6,1.37,1.6h4.71c1.67,0,2.36-.23,2.74-4.41l6.84,3.04c-1.14,6-2.36,6.92-5.4,6.92v3.88h11.48v-3.88h-.61c-2.58,0-4.48-2.13-4.48-4.86v-10.79h14.06v-4.26h-14.36V2.66h21.66v15.88h-14.14v3.12c0,1.29.3,1.6,1.29,1.6h5.25c1.9,0,2.66-.68,3.04-4.41l6.76,3.04c-1.44,6.08-2.74,6.92-6.84,6.92h-3.95v3.88h9.58v6.08l-9.58.08v4.94h11.63v6.38h-15.66c4.33,1.9,9.43,3.57,14.44,4.71l-4.18,6.61ZM428.23,38.84h-11.48v4.94h11.48v-4.94Z"/>
        <path class="cls-2" d="M463.49,62.93c5.62-11.02,8.97-24.17,10.26-29.41l8.44,2.51c-2.36,8.89-6.23,21.81-10.56,30.33l-8.13-3.42ZM482.27,55.56c5.78,3.57,10.49,4.94,13.91,4.94,6.77,0,9.35-4.56,9.35-10.72,0-6.61-6.92-13.98-17.86-18.62l4.64-6.31c11.4,5.17,22.19,13.3,22.19,26.45,0,11.93-7.83,17.78-18.17,17.78-5.62,0-11.4-2.05-15.58-4.64l1.52-8.89ZM512.74,19.23c-9.8-4.56-23.03-6.38-31.24-7.07l2.05-7.52c8.44.91,22.65,2.43,30.93,5.85l-1.75,8.74ZM521.71,21.43c-1.75-4.56-5.32-11.02-7.75-14.36l5.4-2.13c2.36,3.12,6.31,9.58,8.06,13.98l-5.7,2.51ZM527.41,63.69c-1.6-10.41-5.78-21.74-10.87-28.65l8.06-2.66c4.94,7.07,9.8,18.77,11.55,27.59l-8.74,3.72ZM532.35,17.71c-1.82-4.33-5.32-10.41-8.06-14.14l5.24-2.2c2.58,3.19,6.31,9.2,8.21,13.6l-5.4,2.74Z"/>
        <path class="cls-2" d="M607.52,72.28v-4.64h-42.11v4.64h-8.28V9.8h18.24c2.05-3.04,4.03-6.61,5.17-9.8l9.35,1.29c-1.14,3.04-2.96,6-4.87,8.51h30.78v62.48h-8.28ZM607.52,17.63h-42.11v9.04h42.11v-9.04ZM607.52,33.82h-42.11v9.2h42.11v-9.2ZM607.52,50.16h-42.11v9.8h42.11v-9.8Z"/>
        <path class="cls-2" d="M696.28,71.75v-5.02h-46.51v5.02h-8.06V15.12h26.68V.46h8.51v14.67h27.44v56.62h-8.06ZM668.39,22.42h-18.62v14.21h18.62v-14.21ZM668.39,43.93h-18.62v15.5h18.62v-15.5ZM696.28,22.42h-19.38v14.21h19.38v-14.21ZM696.28,43.93h-19.38v15.5h19.38v-15.5Z"/>
      </g>
      <rect class="cls-1" x="369.05" y="79.28" width="347.7" height="8.81"/>
    </g>
  </g>
</svg>