<svg id="レイヤー_1" data-name="レイヤー 1" xmlns="http://www.w3.org/2000/svg" viewBox="0 0 707 48"><path d="M15.71,0V2.76H3v41H0V0Z"/><path d="M39.16,7.16a16.67,16.67,0,0,0-.1-4.86,32.51,32.51,0,0,1,6,1.06c.65.2,1,.5,1,.9a1.64,1.64,0,0,1-.35.8,5.19,5.19,0,0,0-.85,1.85c-.25,1.36-.45,2.36-.7,4.11a91.44,91.44,0,0,0,9.4-1.85c.7-.2,1-.15,1,.5A22.75,22.75,0,0,1,55,13.38c0,.55-.15.7-.6.8-4.3,1-7,1.5-11.2,2.05-.7,4.16-1.41,7.52-2.31,11A21.63,21.63,0,0,1,55.22,22c6.65,0,11.15,4.3,11.15,9.47a11.25,11.25,0,0,1-5.7,10.12c-3,2-7.3,3.15-12.75,4a22.08,22.08,0,0,1-3.7.36c-.5,0-.86-.25-1.25-1.21a9.56,9.56,0,0,0-2.71-3.55c7.31-.46,10.36-1.11,14.36-2.76s5.7-3.91,5.7-7.07c0-2.6-1.9-4.76-5.7-4.76a16.65,16.65,0,0,0-13.16,6.22c-.45.65-1,1.25-1.4,1.9s-.5.8-1,.75a14.05,14.05,0,0,1-3.75-1.1c-.8-.35-1.1-.55-1.1-1a3.41,3.41,0,0,1,.2-1c.25-.85.45-1.61.65-2.36,1.1-4.41,1.8-8.11,2.65-13.12-2.7.2-5.85.45-8.4.45a.85.85,0,0,1-.95-.71c-.15-.6-.5-2.7-.7-4.35,3.9,0,7-.16,10.85-.46C38.81,10,39,8.37,39.16,7.16Z"/><path d="M98.54,39.63c0,3.91-3,6.37-8.36,6.37s-8.5-2.76-8.5-6.32,3.4-6.46,8.45-6.46a32.71,32.71,0,0,1,3.5.15c-.3-3-.5-7.07-.65-11.07-.1-2.46-.15-4.36-.2-6.22a11.3,11.3,0,0,0-.6-3.81,39.13,39.13,0,0,1,5.46.71c.45.1.8.45.8.75a2.63,2.63,0,0,1-.2.85,7.34,7.34,0,0,0-.5,2c0,1.21,0,2.91,0,4.61a42.21,42.21,0,0,0,8.4-1.65c.55-.2.8-.15,1,.3a33.09,33.09,0,0,1,.9,3.31c.15.55.1.75-.4.9a46.67,46.67,0,0,1-9.75,1.75c.1,3,.35,5.46.65,8.32a42.06,42.06,0,0,1,11.25,5.41c.45.3.4.5.2.95a20.62,20.62,0,0,1-2.1,3.36c-.3.35-.55.5-1,.2a28.86,28.86,0,0,0-8.3-5.11Zm-4.81-1.9a14.52,14.52,0,0,0-3.4-.35c-2.6,0-4.45.9-4.45,2.15s1.15,2,4,2c2.4,0,3.85-1.21,3.85-3.11Z"/><path d="M131,16.63c4.2-1.4,7.65-2.5,11.45-2.5,6.7,0,10.56,4.56,10.56,11.92A19.69,19.69,0,0,1,149,38a28.29,28.29,0,0,1-9.65,8,2.25,2.25,0,0,1-.85.25,1.61,1.61,0,0,1-1.2-.66,12.34,12.34,0,0,0-4.15-2.65c5.5-2.61,8.9-5.41,11-8.37a14.69,14.69,0,0,0,2.75-8.87c0-4.16-1.75-6.31-4.65-6.31a16.74,16.74,0,0,0-7.85,2.15A24.11,24.11,0,0,0,130.1,24a1.82,1.82,0,0,1-1.1.5c-.65,0-1.1-.65-1.4-1.1A33.69,33.69,0,0,1,125,18.09,25.54,25.54,0,0,0,131,16.63ZM149.25,5.11a.71.71,0,0,1,.65.9,40.6,40.6,0,0,1-1.1,4.41c-.15.5-.3.75-.7.7a65.49,65.49,0,0,1-14.5-3.86c-.25-.1-.5-.35-.35-1a23.89,23.89,0,0,1,1.5-4.71A62.28,62.28,0,0,0,149.25,5.11Z"/><path d="M184.27,4.36c.6.15.9.4.9.8,0,.7-.35,1.4-.35,2.1,0,1,.15,2.21.25,3.36a70.69,70.69,0,0,0,1.6,8.62l7.1-3.81a12.37,12.37,0,0,0,3.45-2.7,25.37,25.37,0,0,1,3.65,4.71,2,2,0,0,1,.35,1c0,.5-.3.9-1,1a24,24,0,0,0-4.8,1.5,70.1,70.1,0,0,0-11.76,5.87c-4.35,2.85-5.9,5.21-5.9,7.56,0,2.91,2.05,4.21,8.31,4.21A88.93,88.93,0,0,0,201,37.48c.55-.1.8,0,.9.6a44.35,44.35,0,0,1,.5,4.66c0,.55-.3.8-.9.85a106.85,106.85,0,0,1-14.9.75c-9.46,0-14.46-3.1-14.46-9.62,0-5.56,3.65-9.22,9.5-12.92A76.23,76.23,0,0,1,179,9.57a22.36,22.36,0,0,0-1.3-5.81A29.09,29.09,0,0,1,184.27,4.36Zm16.35.6c.25-.2.45-.15.75.1a23.08,23.08,0,0,1,4.75,5.36.5.5,0,0,1-.15.8l-2.1,1.56a.52.52,0,0,1-.85-.15A24.92,24.92,0,0,0,198,6.81Zm4.45-3.26c.3-.2.45-.15.75.1A21,21,0,0,1,210.58,7a.59.59,0,0,1-.15.91l-2,1.55a.51.51,0,0,1-.85-.15,23.77,23.77,0,0,0-5-5.76Z"/><path d="M230.38,9.87c.45.2.8.55.8.9a4.46,4.46,0,0,1-.4,1.41,22.5,22.5,0,0,0-.45,4.91,63.24,63.24,0,0,0,.9,11.42c.7,4,2,7.36,4.11,7.36,1.6,0,2.85-1.75,4.8-7a19.21,19.21,0,0,0,3.2,3.86,1.53,1.53,0,0,1,.35,1.85c-1.9,5.11-5,7.82-8.51,7.82-3.9,0-8-4.61-9.35-13.08a91,91,0,0,1-1.2-14.58,26.84,26.84,0,0,0-.6-6.56A21.64,21.64,0,0,1,230.38,9.87ZM253.59,13a1.48,1.48,0,0,1,.55-.2.77.77,0,0,1,.55.3,33.16,33.16,0,0,1,9.81,17.13c.15.65-.15.86-.55,1.11a16.83,16.83,0,0,1-3.91,2c-.59.2-1,.05-1.05-.55-1.7-7.17-4.25-12.38-9.35-17.49C251.54,14.13,252.79,13.43,253.59,13Z"/><path d="M287.3,9.87c.45.2.8.55.8.9a4.46,4.46,0,0,1-.4,1.41,22.5,22.5,0,0,0-.45,4.91,63.24,63.24,0,0,0,.9,11.42c.7,4,2,7.36,4.1,7.36,1.6,0,2.86-1.75,4.81-7a19.21,19.21,0,0,0,3.2,3.86,1.53,1.53,0,0,1,.35,1.85c-1.9,5.11-5,7.82-8.51,7.82-3.9,0-8-4.61-9.35-13.08a91,91,0,0,1-1.2-14.58,26.84,26.84,0,0,0-.6-6.56A21.64,21.64,0,0,1,287.3,9.87ZM310.51,13a1.48,1.48,0,0,1,.55-.2.77.77,0,0,1,.55.3,33.16,33.16,0,0,1,9.81,17.13c.15.65-.15.86-.55,1.11a17,17,0,0,1-3.91,2c-.6.2-.95.05-1-.55-1.7-7.17-4.25-12.38-9.35-17.49C308.46,14.13,309.71,13.43,310.51,13Z"/><path d="M344,35.42a50.2,50.2,0,0,1-5.6,2.61,3.44,3.44,0,0,1-1.15.4c-.4,0-.6-.35-1.15-1.25A9.91,9.91,0,0,0,334,34.67c5.3-1.35,8.9-2.9,11.7-4.86h-3.8c-4.45,0-5.95.1-6.25.1s-.5-.05-.5-.55V26.51c0-.51.05-.56.5-.56s1.8.1,6.25.1H350a12.69,12.69,0,0,0,1.56-2.25h-2.86c-4.85,0-6.55.1-6.9.1s-.55,0-.55-.6c0-.3.1-1.3.1-3.81V15.43c0-2.55-.1-3.56-.1-3.81,0-.55,0-.6.55-.6s2.05.1,6.9.1h17.46c4.8,0,6.5-.1,6.85-.1s.55.05.55.6c0,.25-.1,1.26-.1,3.81v4.06c0,2.51.1,3.51.1,3.81,0,.55,0,.6-.55.6s-2.05-.1-6.85-.1H355.68l.4.1c.55.15.85.3.85.55s-.15.45-.55.65a2.51,2.51,0,0,0-1,.95h17.4c4.51,0,6-.1,6.31-.1.5,0,.55.05.55.56v2.85c0,.5-.05.55-.55.55-.35,0-1.8-.1-6.31-.1h-4.1c2.95,2.16,6.85,3.41,12.26,4.31a14.37,14.37,0,0,0-1.85,3c-.45.95-.6,1.25-1,1.25a5.08,5.08,0,0,1-1.1-.25,32.57,32.57,0,0,1-6.21-2.51v3.76c0,5.41.1,6.72.1,7,0,.5-.05.55-.55.55h-3.75c-.5,0-.55-.05-.55-.55V45.29H348.77v1.26c0,.5,0,.55-.55.55h-3.75c-.5,0-.55-.05-.55-.55,0-.3.1-1.61.1-7.07Zm3.6-31.31a26.11,26.11,0,0,0-.25-3.06c1.6.05,3.4.15,4.75.3.46,0,.71.2.71.45a2.08,2.08,0,0,1-.25.75,5.82,5.82,0,0,0-.25,1.56h9.8a26.11,26.11,0,0,0-.25-3.06c1.6.05,3.4.15,4.75.3.45,0,.7.2.7.45a1.9,1.9,0,0,1-.25.75,5.82,5.82,0,0,0-.25,1.56h5.85c4.46,0,6-.1,6.31-.1.5,0,.55,0,.55.55V7.62c0,.55-.05.6-.55.6-.3,0-1.85-.1-6.31-.1h-5.85c.05.8.1,1.25.1,1.45,0,.5-.05.55-.6.55h-3.7c-.55,0-.6,0-.6-.55,0-.2.05-.65.05-1.45h-9.75c.05.8.09,1.25.09,1.45,0,.5,0,.55-.59.55h-3.71c-.55,0-.6,0-.6-.55,0-.2.05-.65.05-1.45h-5.5c-4.45,0-6,.1-6.3.1-.5,0-.55-.05-.55-.6V4.56c0-.5,0-.55.55-.55.3,0,1.85.1,6.3.1Zm-1.3,10v2h22.11v-2Zm22.11,4.71H346.32v2.05h22.11ZM348.77,35v2.16H366V35ZM366,42.14V40H348.77v2.16Zm-.65-10.22c-.75-.66-1.5-1.36-2.2-2.11h-11a28,28,0,0,1-2.5,2.11Z"/><path d="M401.59,14.93c.55.25.8.55.8,1a1.49,1.49,0,0,1-.25.75,9.55,9.55,0,0,0-1,2.66,83.83,83.83,0,0,0-1.2,9.12c4.6-4.66,10.61-7.92,16.71-7.92,7.3,0,11.65,4.26,11.65,10.72,0,5.47-3.25,9.07-7.55,11.23-3.35,1.7-8.5,2.9-12.8,3.46-1.11.15-1.56.1-2-.66a12.79,12.79,0,0,0-3.4-4.25c5.61-.36,10.41-1.31,13.76-2.81,4.05-1.75,5.9-4.36,5.9-7.57,0-2.7-1.7-5.16-6-5.16s-9.71,2.86-14.41,7.62a13.68,13.68,0,0,0-2.15,2.75c-.3.51-.5.51-1.15.36-1.15-.41-2.35-.86-3.4-1.36-.5-.2-.7-.3-.7-1,.3-5.81.95-11.72,1.55-16.18a31.44,31.44,0,0,0,.45-4.51A28.13,28.13,0,0,1,401.59,14.93Zm1.25-12.68a.84.84,0,0,1,1-.25,32.9,32.9,0,0,1,9.81,6c.25.2.35.35.35.55a1.39,1.39,0,0,1-.25.6,33.88,33.88,0,0,1-2.55,3.51c-.2.25-.4.4-.55.4s-.35-.1-.6-.35a40,40,0,0,0-10.11-6.52A28.21,28.21,0,0,1,402.84,2.25Z"/><path d="M453.26,4.41c.85.2,1.2.45,1.2,1A4.85,4.85,0,0,1,454,7c-.25.71-.45,2.26-.7,6.12-.5,7.71-.75,12.82-.75,19.39,0,5.06.6,6.21,4.6,6.21,4.45,0,11.41-2.7,17.51-9.22a17.37,17.37,0,0,0,1.15,4.76,3.29,3.29,0,0,1,.4,1.2c0,.45-.2.86-1,1.56a28.55,28.55,0,0,1-19,7.51c-6.4,0-9.4-2.55-9.4-10.22,0-8.42.45-15.63.7-21.64a33.37,33.37,0,0,0-.5-9.17A51.71,51.71,0,0,1,453.26,4.41Z"/><path d="M487.77,48V45.24h12.71v-41h3V48Z"/><path d="M551.35,35.82c0,.56-.3.81-1,.91a27.09,27.09,0,0,1-3.56.25c-.45,0-.65-.3-.65-.8,0-1.81,0-4.31,0-6.12-4.45,2.31-6,4.26-6,6.67,0,2.1,1.7,3.45,6.95,3.45a85.48,85.48,0,0,0,12.46-1c.45,0,.65.1.7.55a22.48,22.48,0,0,1,.45,4.11c0,.6-.15.95-.55.95a88.94,88.94,0,0,1-12.41.66c-8.2,0-12.55-2.46-12.55-8.27,0-4.81,3-8.32,10.55-12.23-.15-2.55-.75-3.56-3-3.46s-4.6,1.61-6.9,3.61a69.11,69.11,0,0,0-5,5.46c-.25.3-.4.45-.6.45a1,1,0,0,1-.55-.35,23.78,23.78,0,0,1-2.85-3.3.81.81,0,0,1-.2-.45c0-.2.1-.36.35-.56a51,51,0,0,0,10.45-12.42c-2.35.1-5,.15-8,.15-.45,0-.6-.25-.7-.8-.15-.8-.35-2.66-.5-4.16a110.29,110.29,0,0,0,11.5,0,38.74,38.74,0,0,0,1.5-4.31,12.2,12.2,0,0,0,.35-3.06,30.66,30.66,0,0,1,5.7,1.41A.89.89,0,0,1,548,4a1,1,0,0,1-.36.75,3.89,3.89,0,0,0-.85,1.2c-.3.7-.55,1.35-1.15,2.71a78.09,78.09,0,0,0,9.11-1.56c.55-.1.7.05.8.51a16.86,16.86,0,0,1,.5,3.6c0,.5-.15.7-.85.8-3.75.56-8.06,1.11-11.71,1.51A51.7,51.7,0,0,1,539.69,19l0,.1a10,10,0,0,1,5-1.55c3.31,0,5.61,1.5,6.11,5.41,1.95-.9,4.8-2.21,7.35-3.51a15,15,0,0,0,3.8-2.7,30.8,30.8,0,0,1,3.5,4.4,2,2,0,0,1,.4,1.11c0,.4-.25.6-.75.7a16,16,0,0,0-3,.75c-3.25,1.15-6.5,2.25-10.75,4Z"/><path d="M599.41,16.48c-4.9,0-6.55.1-6.85.1-.5,0-.55,0-.55-.55V12.18c0-.56,0-.56.55-.56.3,0,2,.05,6.85.05h5.06V8.42a55.62,55.62,0,0,0-.35-7.12,44.67,44.67,0,0,1,5.25.4c.5,0,.8.25.8.5a2.66,2.66,0,0,1-.35,1.06c-.25.6-.3,1.65-.3,5.06v3.35h7.1c4.85,0,6.55-.05,6.9-.05s.5,0,.5.56V16c0,.5,0,.55-.5.55s-2-.1-6.9-.1h-5.2c3.45,6.77,7.15,11.43,13.9,17.14A12.67,12.67,0,0,0,622.87,37c-.35.7-.55,1.05-.8,1.05s-.55-.3-1.05-.8a49.39,49.39,0,0,1-11.65-16.84c0,4.51,0,9,.1,12.88h1.15c3.9,0,5.15-.1,5.45-.1.5,0,.55,0,.55.55v3.66c0,.55,0,.6-.55.6-.3,0-1.55-.1-5.45-.1h-1.1c.05,4.76.15,8.07.15,8.57s0,.55-.55.55h-4.3c-.55,0-.6,0-.6-.55s.1-3.86.2-8.57h-.91c-3.9,0-5.15.1-5.45.1-.5,0-.55,0-.55-.6V33.72c0-.5,0-.55.55-.55.3,0,1.55.1,5.45.1h1c.1-3.91.15-8.37.15-12.83a47,47,0,0,1-11.41,16.74c-.5.45-.8.75-1.05.75s-.45-.3-.8-1a16,16,0,0,0-2.25-3v4.81c0,4.91.1,7.37.1,7.62,0,.5-.05.55-.55.55h-4.25c-.45,0-.5,0-.5-.55,0-.3.1-2.71.1-7.62V27.46c0-1.66,0-3.66,0-5.66-.95,1.25-1.9,2.5-2.9,3.65-.35.4-.65.65-.9.65s-.41-.3-.55-.9A14.46,14.46,0,0,0,578,20.89a44.21,44.21,0,0,0,9.51-16.28,17.35,17.35,0,0,0,.75-3.56,34.63,34.63,0,0,1,4.85,1.55c.55.26.8.41.8.76s-.15.55-.55.9a4.84,4.84,0,0,0-1,2,72.66,72.66,0,0,1-3.25,7.32V33.87a46.31,46.31,0,0,0,13.1-17.39Z"/><path d="M672.89,1.1c.5-.3.7-.25,1.05,0A21.93,21.93,0,0,1,677,4.41c.35.45.2.6-.25,1l-1.15.75c2.9,0,4-.1,4.25-.1.5,0,.55,0,.55.5V9.87c0,.5-.05.55-.55.55-.3,0-1.95-.1-6.7-.1h-4.9a41.72,41.72,0,0,0,2.1,9.47,31.79,31.79,0,0,0,2.4-4.41,22.94,22.94,0,0,0,1-3.11,29.89,29.89,0,0,1,4,1.56,1,1,0,0,1,.6.7c0,.3-.2.5-.45.75a6,6,0,0,0-1,1.51,44.14,44.14,0,0,1-4.4,7.46c1.35,2.05,2.8,3.16,3.7,3.16,1.25,0,1.75-1.41,2.35-4.81a10.27,10.27,0,0,0,2.5,1.65c.95.45,1.3.65,1.3,1.15a4.68,4.68,0,0,1-.25,1.11c-1.25,4.2-2.9,6.06-5.75,6.06-2.4,0-4.9-1.71-7-4.61a30.51,30.51,0,0,1-3.8,3.3c-.6.41-.95.66-1.2.66s-.55-.3-1.1-1a16.35,16.35,0,0,0-1.65-1.6c-.05.25-.2.25-.56.25s-1.3-.1-4.25-.1h-4.7c-3,0-3.9.1-4.25.1-.5,0-.55-.05-.55-.55,0-.35.1-1.1.1-3.21v-3.3c0-2.11-.1-2.86-.1-3.21s.05-.55.55-.55c.35,0,1.3.1,4.25.1h4.7c3,0,3.9-.1,4.25-.1.51,0,.56.05.56.55,0,.3-.1,1.1-.1,3.21v3.3c0,1.51,0,2.31,0,2.76a25.83,25.83,0,0,0,5.5-4.46c-1.85-3.86-2.9-8.92-3.55-13.83H645.68v3.36a60.43,60.43,0,0,1-.9,10.07,27.65,27.65,0,0,1-3.35,8.77c-.4.7-.6,1-.9,1s-.5-.25-1-.75a12.43,12.43,0,0,0-3.2-2.16,19.32,19.32,0,0,0,3.6-8,46.36,46.36,0,0,0,1-10.68c0-3.5-.1-5.16-.1-5.46,0-.45,0-.5.6-.5.3,0,1.95.1,6.75.1h15c-.2-1.8-.3-3.66-.6-5.11,1.75.05,3.6.2,5,.35.5,0,.75.25.75.55a2.49,2.49,0,0,1-.25.91,15.46,15.46,0,0,0,0,3.3h4.8a34.58,34.58,0,0,0-2.3-2.6.53.53,0,0,1-.25-.45.61.61,0,0,1,.4-.51ZM637.43,43.24c-.6-.35-.6-.55-.31-1a28.81,28.81,0,0,0,5.06-8.37c.2-.55.3-.55,1-.25l3,1.3c.65.3.7.4.55.9a37,37,0,0,1-5.1,9c-.3.4-.45.4-1,.1Zm19.8-30.56c3,0,4.21-.1,4.51-.1.45,0,.5.05.5.6v2.9c0,.5,0,.55-.5.55-.3,0-1.51-.1-4.51-.1h-5.1c-3,0-4.15.1-4.45.1-.5,0-.55-.05-.55-.55v-2.9c0-.55,0-.6.55-.6.3,0,1.5.1,4.45.1Zm-3.55,26.65c0,1,.2,1.66.8,2,.8.4,2.95.45,5,.45,3.66,0,5.06.05,6.11-.55.85-.45,1.25-1.91,1.3-4.31a12.58,12.58,0,0,0,3.6,1.5c1.3.4,1.3.4,1.15,1.75-.4,2.76-1.35,4.11-2.75,4.91-1.85,1-4.6,1.21-9.81,1.21-4.4,0-7.2-.25-8.65-1-1.15-.65-1.85-1.7-1.85-4.36v-4.4a19.73,19.73,0,0,0-.25-3.81,38.72,38.72,0,0,1,5,.3q.9.15.9.45a1.6,1.6,0,0,1-.25.85,4.2,4.2,0,0,0-.3,1.81Zm3.7-17h-6V26h6Zm1.55,8.56c.5-.35.66-.35,1.05-.05a27.67,27.67,0,0,1,4.71,5c.3.36.35.46-.15.81l-2.6,2a1.17,1.17,0,0,1-.65.35c-.15,0-.26-.1-.4-.35a33.92,33.92,0,0,0-4.36-5.21c-.4-.4-.4-.45.2-.9Zm15.46,2a1.67,1.67,0,0,1,.6-.25c.15,0,.25.1.45.3a39.23,39.23,0,0,1,5.9,8.37c.25.5.25.6-.4,1l-3.1,1.9c-.65.4-.8.45-1-.05a30.73,30.73,0,0,0-5.35-8.67c-.4-.4-.35-.55.25-.9Z"/><path d="M705.45,32.27H700.4l-1.2-28H707Zm1,10.87h-7.1V36.38h7.1Z"/></svg>