<svg id="レイヤー_1" data-name="レイヤー 1" xmlns="http://www.w3.org/2000/svg" viewBox="0 0 364 102"><path d="M69.65,47.36q2.22,4.08,2.22,11.17a26.81,26.81,0,0,1-2,11.12Q67,75.95,60.32,76a9.56,9.56,0,0,1-8.89-5.15Q49,66.5,49,59.24a28.42,28.42,0,0,1,1.46-9.64q2.73-7.51,9.88-7.51Q66.79,42.09,69.65,47.36Zm-4.19,22q1.92-2.85,1.92-10.63A26,26,0,0,0,66,49.45a5.3,5.3,0,0,0-5.4-3.63,5.65,5.65,0,0,0-5.39,3.44q-1.71,3.45-1.71,10.14a24.73,24.73,0,0,0,1.09,8.11c1.11,3.11,3,4.67,5.71,4.67A6,6,0,0,0,65.46,69.32Z"/><path d="M79.3,55.77A6.51,6.51,0,0,1,77.47,51a8.57,8.57,0,0,1,2.69-6.33C82,42.88,84.48,42,87.77,42a10.59,10.59,0,0,1,7.47,2.5,7.71,7.71,0,0,1,2.7,5.83,7.62,7.62,0,0,1-1.57,5,9.54,9.54,0,0,1-2.73,2.12,10.68,10.68,0,0,1,3.25,2.16,8.29,8.29,0,0,1,2.21,6A10.16,10.16,0,0,1,96.16,73q-2.94,3-8.31,3a12.91,12.91,0,0,1-8.19-2.61q-3.34-2.61-3.34-7.59a8.86,8.86,0,0,1,1.43-5A9,9,0,0,1,82,57.49,8.27,8.27,0,0,1,79.3,55.77Zm13.44,14.9A5.61,5.61,0,0,0,94.65,66a6,6,0,0,0-2-4.85,7.57,7.57,0,0,0-5-1.66,7,7,0,0,0-4.87,1.69,6,6,0,0,0-1.89,4.68,6.36,6.36,0,0,0,1.72,4.46q1.73,1.88,5.34,1.87A7.32,7.32,0,0,0,92.74,70.67ZM92,54.37a5,5,0,0,0,1.55-3.66A4.8,4.8,0,0,0,92,47.32a6,6,0,0,0-4.5-1.54c-2,0-3.46.51-4.35,1.54a5.37,5.37,0,0,0-1.34,3.62,4.34,4.34,0,0,0,1.73,3.65,6.56,6.56,0,0,0,4.09,1.31A5.84,5.84,0,0,0,92,54.37Z"/><path d="M124.2,47.36q2.22,4.08,2.22,11.17a26.64,26.64,0,0,1-2,11.12q-2.91,6.3-9.53,6.3A9.56,9.56,0,0,1,106,70.8q-2.43-4.3-2.43-11.56A28.42,28.42,0,0,1,105,49.6q2.73-7.51,9.89-7.51Q121.33,42.09,124.2,47.36Zm-4.2,22q1.94-2.85,1.93-10.63a26.25,26.25,0,0,0-1.39-9.24,5.3,5.3,0,0,0-5.41-3.63,5.66,5.66,0,0,0-5.39,3.44c-1.14,2.3-1.7,5.68-1.7,10.14a24.73,24.73,0,0,0,1.09,8.11q1.66,4.67,5.7,4.67A5.94,5.94,0,0,0,120,69.32Z"/><path d="M151.85,47.36q2.22,4.08,2.22,11.17a26.64,26.64,0,0,1-2,11.12q-2.91,6.3-9.53,6.3a9.54,9.54,0,0,1-8.89-5.15q-2.44-4.3-2.44-11.56a28.42,28.42,0,0,1,1.46-9.64q2.73-7.51,9.89-7.51Q149,42.09,151.85,47.36Zm-4.2,22q1.93-2.85,1.93-10.63a26.25,26.25,0,0,0-1.39-9.24,5.3,5.3,0,0,0-5.41-3.63,5.66,5.66,0,0,0-5.39,3.44c-1.14,2.3-1.7,5.68-1.7,10.14a24.73,24.73,0,0,0,1.09,8.11q1.66,4.67,5.7,4.67A5.93,5.93,0,0,0,147.65,69.32Z"/><path d="M158.05,59.79h11.62v4.26H158.05Z"/><path d="M176.41,51.71V48.54a17.11,17.11,0,0,0,6.3-1.46c1.19-.69,2.07-2.3,2.66-4.85h3.29V75.06h-4.45V51.71Z"/><path d="M219.91,42.64v3.62a39,39,0,0,0-4.25,5.36A55.53,55.53,0,0,0,211,59.86a56,56,0,0,0-3.05,7.85q-.67,2.28-1.74,7.35h-4.6a56,56,0,0,1,6.94-18.79,60.2,60.2,0,0,1,6.67-9.46H196.85V42.64Z"/><path d="M243.43,47.36q2.22,4.08,2.22,11.17a26.81,26.81,0,0,1-2,11.12c-1.95,4.2-5.12,6.3-9.54,6.3a9.55,9.55,0,0,1-8.89-5.15q-2.43-4.3-2.43-11.56a28.42,28.42,0,0,1,1.46-9.64q2.73-7.51,9.88-7.51Q240.56,42.09,243.43,47.36Zm-4.19,22q1.92-2.85,1.92-10.63a26,26,0,0,0-1.39-9.24,5.3,5.3,0,0,0-5.4-3.63,5.67,5.67,0,0,0-5.4,3.44q-1.69,3.45-1.7,10.14a24.73,24.73,0,0,0,1.09,8.11c1.11,3.11,3,4.67,5.71,4.67A6,6,0,0,0,239.24,69.32Z"/><path d="M249.64,59.79h11.62v4.26H249.64Z"/><path d="M269.32,66.65a5.74,5.74,0,0,0,3.31,4.91,8,8,0,0,0,3.42.69,6.44,6.44,0,0,0,5.49-2.35,8.4,8.4,0,0,0,1.78-5.2,6.76,6.76,0,0,0-2.12-5.34,7.36,7.36,0,0,0-5.08-1.89,7.73,7.73,0,0,0-3.69.83,7.9,7.9,0,0,0-2.63,2.3l-3.61-.21,2.52-17.75h17.23v4h-14.1l-1.41,9.16a10.24,10.24,0,0,1,2.2-1.31,11.12,11.12,0,0,1,4.28-.76,11,11,0,0,1,7.73,2.92,9.63,9.63,0,0,1,3.17,7.42,12.66,12.66,0,0,1-2.9,8.24q-2.91,3.57-9.27,3.57a11.87,11.87,0,0,1-7.17-2.27c-2.08-1.51-3.24-3.84-3.48-7Z"/><path d="M292,51.71V48.54a17.11,17.11,0,0,0,6.3-1.46c1.19-.69,2.08-2.3,2.66-4.85h3.29V75.06h-4.44V51.71Z"/><path d="M334.11,47.36q2.24,4.08,2.23,11.17a26.8,26.8,0,0,1-2,11.12q-2.91,6.3-9.54,6.3a9.56,9.56,0,0,1-8.89-5.15q-2.43-4.3-2.43-11.56a28.42,28.42,0,0,1,1.46-9.64q2.73-7.51,9.89-7.51Q331.25,42.09,334.11,47.36Zm-4.19,22q1.92-2.85,1.92-10.63a26,26,0,0,0-1.39-9.24,5.3,5.3,0,0,0-5.4-3.63,5.65,5.65,0,0,0-5.39,3.44Q317.95,52.71,318,59.4A25,25,0,0,0,319,67.51q1.68,4.67,5.71,4.67A5.94,5.94,0,0,0,329.92,69.32Z"/><path d="M355,75.06V67H340.41V63L355.6,42h3.52V63.39H364V67h-4.88v8.06Zm-.07-11.67v-15l-10.63,15Z"/><path d="M3,68H42V44H3Zm13.66-.8H11.82V50.15a5.33,5.33,0,0,1,5.4-5.49h5.7v4.48H18.51a1.74,1.74,0,0,0-1.85,1.59v3H29.4v4.47H16.66Zm16.39,0H30.68a5.33,5.33,0,0,1-5.4-5.5V59.23h4.13v2.33a1.17,1.17,0,0,0,1.26,1.18h2.38Zm0-18.08H30.67a1.17,1.17,0,0,0-1.26,1.19v2.32H25.28v-2.5a5.33,5.33,0,0,1,5.4-5.49h2.37Z"/><path d="M9.26,70.33a6.09,6.09,0,0,1-1,3.61,5.22,5.22,0,0,1-3.3,1.9l-.46-1c2.89-.53,3.36-2,3.58-3.43H4V70.33Z"/><path d="M11.45,73.84h-1.1V70.12h1.1Zm3.14-1c0,2.59-1.95,2.89-3.51,3.07l-.39-1a5,5,0,0,0,2.21-.54A1.54,1.54,0,0,0,13.48,73V70h1.11Z"/><rect x="15.7" y="72.29" width="5.74" height="1.13"/><polygon points="27.27 70.43 27.27 75.42 22.34 75.42 22.34 74.36 26.18 74.36 26.18 71.48 22.41 71.48 22.41 70.43 27.27 70.43"/><rect x="28.46" y="72.29" width="5.74" height="1.13"/><path d="M36.81,71.8a12,12,0,0,1-.2,2.24,3.56,3.56,0,0,1-1,2l-.81-.88a2.65,2.65,0,0,0,.79-1.53,8.87,8.87,0,0,0,.16-1.66v-1.7h1Zm1.78,2.64a1.61,1.61,0,0,0,1-.88A4.25,4.25,0,0,0,40,72.09l1,.5a4.24,4.24,0,0,1-1.11,2.27,3.33,3.33,0,0,1-2.33.93V70h1Z"/><path d="M0,102V89H3.36a12,12,0,0,0,0,13Z"/><path d="M7.26,89.77a8.63,8.63,0,0,1,1.47,1.4L8,91.83h8.68v2.61h-1v-1.8H6.12v2h-1V91.83H8a7.24,7.24,0,0,0-1.38-1.47Zm8.31,7.84v3.79h-1v-.59H7.26v.65h-1V97.61H9.6c.38-.49.59-.83.81-1.16h-3V93.59H14.5v2.86H11.66c-.33.48-.55.76-.88,1.16Zm-1,2.39V98.43H7.26V100Zm-1-5.62H8.3v1.25h5.26Zm-3.38-4.95a9,9,0,0,1,1.45,1.81l-.79.53a9.28,9.28,0,0,0-1.4-1.87Zm2.49,1.78a9.46,9.46,0,0,0,1.51-1.63l.87.44c.08,0,.16.11.16.18s-.26.16-.43.17a12.14,12.14,0,0,1-1.37,1.35Z"/><path d="M26.76,92.85,27,93c.05,0,.15.1.15.18s-.17.1-.29.09a3.07,3.07,0,0,1-.45.68h2.68v.75H24.83v.83h4.09v.79H24.83v.86h5.31V98h-4.4a8.47,8.47,0,0,0,4.1,2.11l-.78.86a11.24,11.24,0,0,1-4.23-2.65v3.07h-1v-3a14.15,14.15,0,0,1-4.33,2.79l-.6-.85A11.21,11.21,0,0,0,23,98H18.63V97.2h5.23v-.86h-4.3v-.79h4.3v-.83h-4.5V94H22a3.48,3.48,0,0,0-.61-.84l.39-.28h-3.4v-.79h4.29V89.54l.88,0c.16,0,.27.08.27.14s-.11.16-.25.25v2.08H25V89.58l.88,0c.19,0,.26.08.26.12s-.11.15-.22.24v2.07h4.37v.79Zm-5.55-1A5.64,5.64,0,0,0,20,90.22l.71-.47A5.5,5.5,0,0,1,22,91.34Zm1.14,1a3.16,3.16,0,0,1,.6.81l-.54.31h3.47l-.38-.31a3.39,3.39,0,0,0,.57-.81Zm5.85-2.46A7.58,7.58,0,0,1,27,91.83l-.63-.62a9.38,9.38,0,0,0,1.41-1.57l.63.39c.09.07.21.13.21.24S28.34,90.4,28.2,90.39Z"/><path d="M32.14,90.9h3.55v8.55h-.94V98.6H33.08v1.63h-.94Zm2.61.82H33.08v2.6h1.67Zm0,3.41H33.08v2.65h1.67Zm4.9-5.36,1,0c.09,0,.26,0,.26.14s-.06.11-.25.23v1.3H43v.87H40.62V93.9h3.14v.86h-7.4V93.9h3.29V92.36H37.27v-.87h2.38Zm-3.18,6.68H41V95.06l.87.1c.22,0,.31,0,.31.14s0,.1-.24.24v.91h1.74v.86H41.91v3c0,.57-.13.88-.64,1a14.21,14.21,0,0,1-1.45.05l-.39-1.06a7.47,7.47,0,0,0,.9.07c.64,0,.64-.21.64-.58V97.31h-4.5Zm1.42,1.47A5.73,5.73,0,0,1,39,99.65l-.8.48a6,6,0,0,0-1.11-1.74Z"/><path d="M50.64,90v4.12H46.56v7.31h-.94V90Zm-.93.79H46.56v.9h3.15Zm0,2.56V92.4H46.56v.94Zm-.22,6.91h-.91V95.34h5.17v4.23H49.49Zm3.33-4.12H49.49V97h3.33Zm0,1.67H49.49v1h3.33Zm1.57,2.6c.22,0,.44,0,.71,0,.49,0,.68-.09.68-.41V94.11H51.65V90h5.07v9.9c0,1.23-.11,1.44-1.85,1.5Zm1.39-9.62H52.56v.9h3.22Zm0,1.62H52.56v.94h3.22Z"/><path d="M62.1,89v13H58.73a12,12,0,0,0,0-13Z"/><path d="M68.58,100.47v-7H66.51v-.85a2.16,2.16,0,0,0,2.38-1.72h.92v9.55Z"/><path d="M77.5,100.73c-3,0-3.72-2.63-3.72-5s.71-5,3.72-5,3.7,2.66,3.7,5S80.5,100.73,77.5,100.73Zm0-9.09c-1.92,0-2.44,1.91-2.44,4.06s.56,4,2.44,4,2.44-1.83,2.44-4S79.39,91.64,77.5,91.64Z"/><path d="M84.17,93.42H82.75V92h1.42Zm0,5.56H82.75v-1.4h1.42Z"/><path d="M89.43,100.73c-3,0-3.71-2.63-3.71-5s.71-5,3.71-5,3.7,2.66,3.7,5S92.44,100.73,89.43,100.73Zm0-9.09c-1.91,0-2.44,1.91-2.44,4.06s.57,4,2.44,4,2.44-1.83,2.44-4S91.32,91.64,89.43,91.64Z"/><path d="M97.88,100.73c-3,0-3.71-2.63-3.71-5s.71-5,3.71-5,3.7,2.66,3.7,5S100.89,100.73,97.88,100.73Zm0-9.09c-1.91,0-2.44,1.91-2.44,4.06s.57,4,2.44,4,2.44-1.83,2.44-4S99.77,91.64,97.88,91.64Z"/><path d="M114.22,94.89a4.23,4.23,0,0,1-.78,1.06,3,3,0,0,1-2.07.88,6.54,6.54,0,0,1-3-.92,5.6,5.6,0,0,0-2.6-.85,2.35,2.35,0,0,0-2,1.46l-.91-.4a3.7,3.7,0,0,1,.78-1.06,3,3,0,0,1,2.06-.88,6.44,6.44,0,0,1,3,.91,5.71,5.71,0,0,0,2.6.86,2.32,2.32,0,0,0,2-1.47Z"/><path d="M118.77,100.47v-7H116.7v-.85a2.14,2.14,0,0,0,2.37-1.72H120v9.55Z"/><path d="M127.68,100.73c-2.39,0-3.71-1.24-3.71-2.84a2.71,2.71,0,0,1,2-2.57,2.21,2.21,0,0,1-1.65-2.13c0-1.42,1.18-2.53,3.31-2.53s3.3,1.17,3.3,2.53a2.22,2.22,0,0,1-1.63,2.13,2.7,2.7,0,0,1,2,2.57C131.39,99.53,130,100.73,127.68,100.73Zm0-4.94c-1.43,0-2.45.78-2.45,2,0,1,.65,1.94,2.45,1.94s2.45-1,2.45-1.94C130.13,96.64,129.2,95.79,127.68,95.79Zm0-4.15c-1,0-2.05.34-2.05,1.66S126.75,95,127.68,95s2-.31,2-1.66S128.62,91.64,127.68,91.64Z"/><path d="M134.36,93.42h-1.42V92h1.42Zm0,5.56h-1.42v-1.4h1.42Z"/><path d="M139.62,100.73c-3,0-3.71-2.63-3.71-5s.71-5,3.71-5,3.7,2.66,3.7,5S142.63,100.73,139.62,100.73Zm0-9.09c-1.92,0-2.44,1.91-2.44,4.06s.56,4,2.44,4,2.44-1.83,2.44-4S141.51,91.64,139.62,91.64Z"/><path d="M148.07,100.73c-3,0-3.71-2.63-3.71-5s.71-5,3.71-5,3.7,2.66,3.7,5S151.07,100.73,148.07,100.73Zm0-9.09c-1.92,0-2.44,1.91-2.44,4.06s.56,4,2.44,4,2.44-1.83,2.44-4S150,91.64,148.07,91.64Z"/><path d="M168.43,102V89h3.36a12,12,0,0,0,0,13Z"/><path d="M184.91,101H181c-2.91,0-3.74-.45-4.78-2.25a6.16,6.16,0,0,1-2.1,2.45l-.76-.71c1.22-.73,2.54-1.93,2.86-5.62l1,.33c.13,0,.24.1.24.19s-.18.18-.34.24a19.35,19.35,0,0,1-.53,2.34,2.93,2.93,0,0,0,2.32,2V94.28h-3.49v-.85h7.86v.85h-3.4v2.25h3.18v.89h-3.18v2.7c.21,0,.47,0,1.09,0a37.12,37.12,0,0,0,4.36-.23ZM184,93.88V92.11h-9.38v2h-1V91.26h5.2V89.54l1.11,0c.14,0,.28,0,.28.13s-.28.27-.43.32v1.23H185v2.62Z"/><path d="M190.86,90.18a28.38,28.38,0,0,1-1.37,2.76c.27.08.43.13.43.26s-.12.18-.26.27v8h-1V94.27a16.26,16.26,0,0,1-1.39,1.91l-.91-.51a17.45,17.45,0,0,0,3.6-6.33l1.05.47c.07,0,.15.07.15.15S191,90.16,190.86,90.18Zm7.57,9.07a10.86,10.86,0,0,1-3.28-4.43v6.5h-1v-6.5a11.63,11.63,0,0,1-3.31,4.6l-.92-.65a9.84,9.84,0,0,0,3.6-5.14h-3v-.89h3.66V89.6l1,.13c.08,0,.22,0,.22.13s-.18.23-.24.27v2.61h3.63v.89h-3.14a9.25,9.25,0,0,0,3.56,4.84Z"/><path d="M208,101.25v-1.08h-5.9v1.08h-1V90.36H209v10.89Zm0-9.93h-5.9v3.5H208Zm0,4.42h-5.9v3.54H208Z"/><path d="M214.89,89v13h-3.36a12,12,0,0,0,0-13Z"/><path d="M218.07,99.45a9.19,9.19,0,0,0,4.27-5.79h-3.85v-.92h4.33l.62.55A10.47,10.47,0,0,1,219,100.1Zm7-9.84c.18,0,.22.07.22.15s-.09.18-.39.31V92a7,7,0,0,0,.44,1.37c.22.54.34.81.47,1.08a18,18,0,0,0,3.07-2.79l.87.73a.22.22,0,0,1,.11.16c0,.13-.2.14-.51.17-1.2,1.08-2.29,1.94-3.12,2.55a11.28,11.28,0,0,0,4.33,4.29l-1,.68a11.57,11.57,0,0,1-4.68-5.72v5.68c0,1.07-.68,1.2-1.51,1.2h-.89l-.35-1.09a7.84,7.84,0,0,0,1.15.13c.45,0,.59-.17.59-.48V89.51Z"/><path d="M237.52,100.72v.63h-.87v-5a4.88,4.88,0,0,1-.73.78l-.63-.4v3.06h-.84v-1H233v1.36h-.88V90.8h3.22v5.72a8.54,8.54,0,0,0,2-2.62h-1.39v-.71h2.55V92.4H236v-.72h2.47v-.85h-2.59v-.7h3.43V93.9h-1.7l.56.27c.07,0,.2.1.2.19s-.23.17-.39.17c-.32.43-.34.49-.59.81h2a8.8,8.8,0,0,0,1.12-1.46l.84.42c.08,0,.18.1.18.18s-.21.13-.37.13c-.19.2-.54.52-.79.73h3v.79H240.6v.74H243v.72H240.6v.77H243v.71H240.6v.86h3v.79Zm-3.07-9.1H233v2.77h1.5Zm0,3.59H233V98h1.5Zm5.27.92h-2.2v.74h2.2Zm0,1.46h-2.2v.77h2.2Zm0,1.48h-2.2v.86h2.2Zm.09-5.2v-.72h2.67v-.78H240v-.69h2.52v-.85h-2.7v-.7h3.53v3.74Z"/><path d="M253,101.25v-1.08h-5.9v1.08h-1V90.36H254v10.89Zm0-9.93h-5.9v3.5H253Zm0,4.42h-5.9v3.54H253Z"/><path d="M357,1V28H1V1H357m1-1H0V29H358V0Z"/><path d="M87.18,11.64a6.89,6.89,0,0,0-.84.16,18.73,18.73,0,0,1-2.07.32v2.27a10.44,10.44,0,0,1,3-.48,4.87,4.87,0,0,1,2.54.63,3,3,0,0,1,1.46,2.58,2.93,2.93,0,0,1-3,3,2.13,2.13,0,0,1-2.23-1.59,5.33,5.33,0,0,1-.2-1.65A3.65,3.65,0,0,0,87,16.43c0,.26,0,.38,0,.55a4.33,4.33,0,0,0,.17,1.31,1.19,1.19,0,0,0,1.19.72,1.77,1.77,0,0,0,1.77-1.89c0-1.34-1.12-2.19-2.88-2.19a9,9,0,0,0-2.93.54v3a3.53,3.53,0,0,1-.08,1,1,1,0,0,1-1.09.71,4,4,0,0,1-2.42-.93,1.83,1.83,0,0,1-.7-1.42,2.66,2.66,0,0,1,1.15-1.93,7.83,7.83,0,0,1,2-1.17V12.19l-.56,0a6.29,6.29,0,0,1-.8,0l-.84,0h-.59V11.11a7.6,7.6,0,0,0,1.53.11c.33,0,.33,0,1.26,0V9.92a9.53,9.53,0,0,0-.08-1.43h1.28a8.42,8.42,0,0,0-.07,1.37v1.23a13.18,13.18,0,0,0,2.83-.58Zm-4,4.19c-1.31.67-2,1.39-2,2,0,.3.18.55.57.8a2.34,2.34,0,0,0,1.17.38c.26,0,.31-.11.31-.67ZM91,13.12a11.53,11.53,0,0,0-2.87-2.83L89,9.64a11.68,11.68,0,0,1,2.85,2.74Z"/><path d="M96.71,19.29a11.82,11.82,0,0,0,.08,1.63H95.57a10.65,10.65,0,0,0,.09-1.64V10.09c0-.71,0-1.12-.06-1.57a13.72,13.72,0,0,0,1.48.06h2.15a13,13,0,0,0,1.45-.06c0,.44,0,.79,0,1.34v2c0,.59,0,1,0,1.29-.38,0-.86,0-1.4,0H96.71Zm0-8.85h3v-1h-3Zm0,1.88h3V11.26h-3ZM104,17.56a7,7,0,0,0,0,.87,8.81,8.81,0,0,0-.94,0H99.76v1.07H98.67a10,10,0,0,0,.07-1.34V15.26c0-.34,0-.64,0-.92a9.7,9.7,0,0,0,1,0H103c.43,0,.75,0,1.07,0a7.53,7.53,0,0,0,0,.89Zm-4.21-.07H103V15.28H99.76Zm7.42,2c0,1-.29,1.27-1.45,1.27-.61,0-.81,0-1.59,0a3.17,3.17,0,0,0-.3-1.08,14.46,14.46,0,0,0,1.81.13c.38,0,.48-.07.48-.38v-6.2h-2.81c-.58,0-1,0-1.4,0,0-.45,0-.73,0-1.29v-2c0-.53,0-.94,0-1.34a12.89,12.89,0,0,0,1.44.06h2.4a14.06,14.06,0,0,0,1.49-.06,12.68,12.68,0,0,0-.07,1.57Zm-4.24-9h3.19v-1h-3.19Zm0,1.88h3.19V11.26h-3.19Z"/><path d="M113.63,12.4A15.32,15.32,0,0,1,111,13.9a2.62,2.62,0,0,0-.65-1,14,14,0,0,0,3.83-2.32,8.93,8.93,0,0,0,2.14-2.44h1.25a9.61,9.61,0,0,0,2.36,2.5,14,14,0,0,0,3.8,2.2,4.93,4.93,0,0,0-.61,1.07,17.68,17.68,0,0,1-2.71-1.56v1.13a8,8,0,0,0-1.22-.06h-4.43a7.55,7.55,0,0,0-1.13.06Zm-1.18,8.46a9.93,9.93,0,0,0,.09-1.41V16.27a9.84,9.84,0,0,0-.07-1.31,8,8,0,0,0,1.13.06h6.78a8.17,8.17,0,0,0,1.14-.06,8.18,8.18,0,0,0-.07,1.31v3.18a11.2,11.2,0,0,0,.08,1.41h-1.2v-.79h-6.67v.79Zm6.74-8.43a9.5,9.5,0,0,0,1.21,0A13.25,13.25,0,0,1,117,9.12a12.57,12.57,0,0,1-3.32,3.26,8.16,8.16,0,0,0,1.12,0Zm-5.53,6.65h6.67V16h-6.67Z"/><path d="M130.41,9.05a15,15,0,0,0-.13,2.9c2.26-.14,2.26-.14,4.48-.22v-.84a13.42,13.42,0,0,0-.08-2.11H136a6.17,6.17,0,0,0-.06.94v2c1.63,0,2.44-.08,2.89-.14l0,1.2c-.35,0-.49,0-.85,0s-.62,0-2.08,0a11.75,11.75,0,0,1-.3,2.81,1.51,1.51,0,0,1-1.54,1.2,4.23,4.23,0,0,1-2-.61,4.13,4.13,0,0,0,0-.55c0-.19,0-.33,0-.65a3.92,3.92,0,0,0,1.85.75c.39,0,.55-.21.66-.86a13.38,13.38,0,0,0,.16-2.06c-2.21.09-2.21.09-4.48.23a1.42,1.42,0,0,1,0,.19,1.23,1.23,0,0,1,0,.17v1a15.76,15.76,0,0,0,.17,3.46,1.21,1.21,0,0,0,.95.84,8.72,8.72,0,0,0,2.14.21,12.92,12.92,0,0,0,4-.52l.11,1.31c-.21,0-.3,0-.59.08a26.88,26.88,0,0,1-3.65.26c-2.18,0-3.33-.38-3.82-1.25-.35-.64-.42-1.3-.42-3.64v-2a25.49,25.49,0,0,0-2.78.28l-.1-1.19a2.45,2.45,0,0,0,.34,0c.27,0,.85,0,2.54-.17v-.68A14,14,0,0,0,129,9.05Z"/><path d="M149.53,14.52a1.32,1.32,0,1,1-1.31-1.3A1.3,1.3,0,0,1,149.53,14.52Z"/><path d="M162.36,19.45a12.2,12.2,0,0,1-4.3,1.55,3.15,3.15,0,0,0-.62-.93,9.82,9.82,0,0,0,4.09-1.23Zm-1-7.48c-1.06.49-1.52.69-2.81,1.17a4.46,4.46,0,0,0-.63.28l-.4-1.07a14.5,14.5,0,0,0,3.56-1.26Zm-1.1-1.4A9,9,0,0,0,158,9.16l.66-.76A11.44,11.44,0,0,1,161,9.74Zm6.59,2.79c.78,0,1.08,0,1.46,0,0,.41,0,.86,0,1.55v2.5a12.16,12.16,0,0,0,.06,1.48c-.33,0-.91-.05-1.56-.05h-6c-.68,0-1.21,0-1.56.05a11.89,11.89,0,0,0,.05-1.44V14.82c0-.65,0-1.09,0-1.5.33,0,.8,0,1.46,0Zm-6.58,1.57h7v-.78h-7Zm0,1.53h7v-.78h-7Zm0,1.53h7V17.2h-7ZM163,10.05a8,8,0,0,1-1.33,1.22,2.26,2.26,0,0,0-.72-.66A5.64,5.64,0,0,0,163.16,8l1.05.27c-.27.42-.4.62-.63.94h4.59a4.89,4.89,0,0,0,1.09-.07l.64.51-.16.21-.2.27a6.31,6.31,0,0,1-1.29,1.34,5,5,0,0,0-.94-.42,3.77,3.77,0,0,0,1.18-1h-2.72a3.29,3.29,0,0,0,1.57,1.8,7.63,7.63,0,0,0,3,.85,4.26,4.26,0,0,0-.5,1c-2.48-.51-3.74-1.25-4.62-2.69a3.47,3.47,0,0,1-1.55,1.57,7.05,7.05,0,0,1-2.18.72,2.34,2.34,0,0,0-.56-.83c2.1-.2,3.34-1,3.69-2.4Zm3,8.8A10.54,10.54,0,0,0,170.21,20a5,5,0,0,0-.63.95,11.67,11.67,0,0,1-4.42-1.54Z"/><path d="M174.62,13.87a7.68,7.68,0,0,0-1.25.07V12.87a6,6,0,0,0,1.23.07h1.09V9.61a9.1,9.1,0,0,0-.08-1.48h1.19a9.15,9.15,0,0,0-.07,1.47v3.34h.78a6,6,0,0,0,1.06-.06v1a8,8,0,0,0-1.07-.06h-.7a8.3,8.3,0,0,0,2,2.43,6.52,6.52,0,0,0-.54.93A9,9,0,0,1,176.64,15c0,.54.09,1.61.09,1.95v2.57A11.07,11.07,0,0,0,176.8,21h-1.19a11.72,11.72,0,0,0,.08-1.55V17.22c0-.69,0-1.43.08-2.11A10.44,10.44,0,0,1,173.65,19a3,3,0,0,0-.58-1,9.06,9.06,0,0,0,1.64-2.3,11.63,11.63,0,0,0,.79-1.81ZM174.25,9a18.33,18.33,0,0,1,.92,3l-.87.37a11.9,11.9,0,0,0-.92-3Zm4.71.34a15.61,15.61,0,0,1-1.15,3.06L177,12a11.09,11.09,0,0,0,1-3.06Zm4.42.34a11.15,11.15,0,0,0-.08-1.53h1.25a8.88,8.88,0,0,0-.09,1.51v6.4l.12,0a9.11,9.11,0,0,0,1.3-.4l.21,1.17c-.35.05-.82.13-1.36.26l-.27.05v2.29a9.22,9.22,0,0,0,.09,1.57H183.3a11.93,11.93,0,0,0,.08-1.6v-2l-3.54.83a13.4,13.4,0,0,0-1.34.37l-.22-1.17a8.1,8.1,0,0,0,1.37-.23l3.73-.86Zm-3.64,3a13.75,13.75,0,0,1,2.52,2.13l-.69.84A10.92,10.92,0,0,0,179,13.43Zm.42-3.53a14.32,14.32,0,0,1,2.54,2.18l-.69.84a11.74,11.74,0,0,0-2.56-2.24Z"/><path d="M188.61,10.47a5.88,5.88,0,0,0,1.14.07h2.51a5.36,5.36,0,0,0,1.14-.07v1a9.72,9.72,0,0,0-1.05,0h-2.6a7.53,7.53,0,0,0-1.14.06Zm.5-2a5.28,5.28,0,0,0,1.07.07h1.88a5.52,5.52,0,0,0,1.07-.07v1a8.74,8.74,0,0,0-1.07,0h-1.88a8.16,8.16,0,0,0-1.07,0Zm0,4a5.7,5.7,0,0,0,.95.06h2.05a5.15,5.15,0,0,0,.92-.06v1a7.69,7.69,0,0,0-.92-.05H190.1a7.39,7.39,0,0,0-.95.05Zm0,2a5.87,5.87,0,0,0,.95.06h2.05a5.55,5.55,0,0,0,.92-.06v1a7.69,7.69,0,0,0-.94,0h-2a8,8,0,0,0-.94,0Zm0,6.41c0-.44.07-.89.07-1.38V17.56a9.52,9.52,0,0,0-.06-1.15,7.44,7.44,0,0,0,1.15.06h1.77a8,8,0,0,0,1,0,9.64,9.64,0,0,0,0,1.08v2a7.74,7.74,0,0,0,.06,1.16h-1v-.56h-1.9v.74Zm1.05-1.61h1.9V17.34h-1.9Zm5-9.27a7.75,7.75,0,0,0-1.32.07v-1a6.86,6.86,0,0,0,1.32.08h1.68A5.1,5.1,0,0,0,196.77,8h1.14a5.15,5.15,0,0,0-.09,1.13h2a7.13,7.13,0,0,0,1.37-.08v1a8.34,8.34,0,0,0-1.37-.07h-2v.89h1.61a10.09,10.09,0,0,0,1.27-.06v.92a9.27,9.27,0,0,0-1.29-.06h-1.59v.9h2.3a8.84,8.84,0,0,0,1.41-.08v1a7,7,0,0,0-1.41-.09H195a7.17,7.17,0,0,0-1.44.09v-1a7.47,7.47,0,0,0,1.44.08h1.85v-.9H195.5a8,8,0,0,0-1.27.07v-.93a10.27,10.27,0,0,0,1.28.06h1.35V10Zm0,9.4a10,10,0,0,0,.08,1.55h-1.13a11.68,11.68,0,0,0,.07-1.55v-4c0-.61,0-.85-.05-1.23a11.38,11.38,0,0,0,1.27.06h3.79a7.9,7.9,0,0,0,1.3-.07,13.81,13.81,0,0,0-.06,1.49v4c0,.94-.29,1.16-1.49,1.16-.35,0-.76,0-1.24-.05a3.83,3.83,0,0,0-.27-1,9.86,9.86,0,0,0,1.53.15c.38,0,.48-.09.48-.4v-.93h-4.28Zm4.28-3.4V15h-4.28V16Zm0,1.73v-.9h-4.28v.9Z"/><path d="M205.93,11.66a10.15,10.15,0,0,0-1.46.08V10.6a11.61,11.61,0,0,0,1.5.08h4.08v-1A10,10,0,0,0,210,8.16h1.24a10.4,10.4,0,0,0-.09,1.52v1h4.13a11.84,11.84,0,0,0,1.5-.08v1.14a9.79,9.79,0,0,0-1.5-.08h-4.09a11.07,11.07,0,0,0,1.39,3.14,10.07,10.07,0,0,0,2.37-2.57l1,.72c-.11.13-.11.13-.85.91a19.55,19.55,0,0,1-1.9,1.75,13.32,13.32,0,0,0,1.42,1.57A10.22,10.22,0,0,0,217,18.87a4.63,4.63,0,0,0-.77,1,12.74,12.74,0,0,1-3.4-3.07A11,11,0,0,1,211,13.6c0,.2,0,.37,0,.47s0,.73.06,1.78v3.82c0,.89-.34,1.15-1.55,1.15-.52,0-1,0-1.74-.09a3.41,3.41,0,0,0-.27-1.1,12.32,12.32,0,0,0,1.86.17c.52,0,.64-.07.64-.41V11.66Zm3.78,4.92a28,28,0,0,1-3.89,2.4c-.31.19-.48.28-.72.44l-.56-1.16a10.27,10.27,0,0,0,2.12-.94,17.61,17.61,0,0,0,2.71-1.77Zm-3.11-4.27a14.83,14.83,0,0,1,2,2.44l-.91.7a10.93,10.93,0,0,0-1.91-2.5ZM213,8.24a9.77,9.77,0,0,1,2.1,1.62l-.78.7a7.83,7.83,0,0,0-2.05-1.67Z"/><path d="M222.11,18.05a15.65,15.65,0,0,1,.74-2.32,3.13,3.13,0,0,0,.13-.33l.89.39a12.23,12.23,0,0,0-1.27,4.1,1.51,1.51,0,0,0,0,.31l-1.24.09a2.61,2.61,0,0,0-.07-.52,22.77,22.77,0,0,1-.4-4.29,24.35,24.35,0,0,1,.71-5.79,4.1,4.1,0,0,0,.16-.94l1.35.18A20.6,20.6,0,0,0,222,15.68c0,.32,0,1,0,1.66a3.24,3.24,0,0,1,0,.36V18Zm2.3-6.52a11.82,11.82,0,0,0,2.67.21c.55,0,.88,0,1.35,0,0-1.35,0-1.35,0-2.33,0-.25,0-.46,0-.6h1.26a14.58,14.58,0,0,0-.09,2.06v.79a11.05,11.05,0,0,0,2.42-.51l.05,1.13a1.15,1.15,0,0,0-.22,0,19.94,19.94,0,0,1-2.25.37c0,1.3,0,1.47.16,3.85a11.09,11.09,0,0,1,2.33,1.36,1.81,1.81,0,0,0,.37.24l-.52,1.2a3.28,3.28,0,0,0-.42-.41,8.91,8.91,0,0,0-1.48-1l-.15-.09c-.06,0-.06-.05-.13-.09,0,.13,0,.18,0,.3a2.22,2.22,0,0,1-.17,1,2.55,2.55,0,0,1-2.48,1.19c-1.69,0-2.74-.81-2.74-2.09s1.15-2.1,2.77-2.1a3.85,3.85,0,0,1,1.47.25c0-.31-.07-1.2-.14-3.49-.68,0-1,0-1.56,0s-1.09,0-1.6-.06l-.43,0h-.25l-.14,0-.06,0ZM227.17,17c-1,0-1.69.42-1.69,1.09s.62,1.06,1.54,1.06a1.86,1.86,0,0,0,1.35-.47,1.56,1.56,0,0,0,.24-1v-.41A3.65,3.65,0,0,0,227.17,17Z"/><path d="M246.56,19.36l-.52.06a23.5,23.5,0,0,1-3.81.32,9.65,9.65,0,0,1-3.36-.45,2.28,2.28,0,0,1-1.68-2.19,3.81,3.81,0,0,1,1.69-2.82l.87.66c-.93.75-1.34,1.39-1.34,2s.4,1,1.17,1.28a9.25,9.25,0,0,0,2.56.27,14.11,14.11,0,0,0,4.29-.55ZM238.07,9.6a17.14,17.14,0,0,0,3.8.33,16.46,16.46,0,0,0,3.73-.28l.08,1.13A21.51,21.51,0,0,0,242,13l-.86-.69c.92-.61,1.18-.76,1.74-1.09l.37-.19.27-.14a14.06,14.06,0,0,1-2.11.15,26.29,26.29,0,0,1-3-.18l-.48,0Z"/><path d="M252,10.63a14.19,14.19,0,0,0,3.06.22,11.41,11.41,0,0,0,.44-2.47l1.35.13a7,7,0,0,0-.22.87c-.2.86-.22.89-.36,1.46a24.21,24.21,0,0,0,5.53-.61l.07,1.23a14,14,0,0,0-1.53.17c-1.15.13-2.75.24-4.35.28a16.8,16.8,0,0,1-1.35,3.44v0a7.06,7.06,0,0,1,4.06-1.12c2.23,0,3.68,1.06,3.68,2.67,0,2-1.92,3.25-4.84,3.25a11.58,11.58,0,0,1-3.55-.54v-.24a6.93,6.93,0,0,0-.08-1,9.06,9.06,0,0,0,3.57.7c2.18,0,3.62-.84,3.62-2.11,0-1-1-1.63-2.63-1.63a7.75,7.75,0,0,0-3.22.74,2.82,2.82,0,0,0-1.13.87l-1.22-.46a10.06,10.06,0,0,0,.74-1.44,31.1,31.1,0,0,0,1.14-3.11c-.73,0-1.51,0-2.29-.1h-.53Z"/><path d="M270.42,11.23a36.34,36.34,0,0,0-.71,3.91,2.09,2.09,0,0,1-.07.33h0a3.3,3.3,0,0,1,.49-.44,7.32,7.32,0,0,1,4.09-1.13c2.26,0,3.76,1.12,3.76,2.8a3.1,3.1,0,0,1-1.35,2.51,6,6,0,0,1-3.57.93,12.45,12.45,0,0,1-3.61-.52v-.34a4.25,4.25,0,0,0-.13-1,10.4,10.4,0,0,0,3.71.71c2.2,0,3.67-.92,3.67-2.29,0-1.08-1-1.73-2.65-1.73a6.81,6.81,0,0,0-3.84,1.17,2.54,2.54,0,0,0-.59.59l-1.3,0c0-.25.05-.35.11-.83.14-1.08.34-2.36.6-4a5.61,5.61,0,0,0,.1-.77Zm.5-2.54a19.08,19.08,0,0,0,4.95,1.57l-.45,1.16c-1.44-.36-2-.53-2.87-.81a15.72,15.72,0,0,1-2.24-.92Z"/></svg>