<?xml version="1.0" encoding="UTF-8"?><svg id="_編集モード" xmlns="http://www.w3.org/2000/svg" viewBox="0 0 295 24.36"><defs><style>.cls-1{fill:#6f7a7d;}</style></defs><path class="cls-1" d="M11.12,1.62h-1.56c-.73,0-1.27.41-1.27,1.14,0,.38.13.79.35,1.14l5.18,8.8,4.7-8.67c.22-.41.29-.92.29-1.11,0-.92-.76-1.3-1.37-1.3h-1.43V.57h8.04v1.05h-1.18c-1.81,0-2.76,1.62-3.24,2.51l-5.49,10.13v6.13c0,1.56.57,2.35,2.1,2.35h1.78v1.02H6.35v-1.02h1.52c1.59,0,2.16-.83,2.16-2.35v-6.04L3.72,3.65c-.76-1.27-1.52-2.03-3.02-2.03h-.7V.57h11.12v1.05Z"/><path class="cls-1" d="M37.96,1.62h-1.3c-1.49,0-2.1.79-2.1,2.13v13.21c0,3.56,1.94,6.04,5.3,6.04,3.14,0,5.21-2.41,5.21-6.1V3.97c0-1.46-.79-2.35-2.16-2.35h-.95V.57h7.37v1.05h-1.14c-1.56,0-2.1,1.08-2.1,2.35v12.86c0,4.03-2.06,7.53-7.53,7.53-4.83,0-8.07-2.86-8.07-8.04V3.75c0-1.4-.73-2.13-2.1-2.13h-1.11V.57h10.67v1.05Z"/><path class="cls-1" d="M59.69.57l6.86,16.96L72.52.57h8.1v1.05h-1.11c-1.52,0-2.1.89-2.1,2.19v16.71c0,1.43.7,2.22,2.1,2.22h1.11v1.02h-10.58v-1.02h1.08c1.52,0,2.13-.79,2.13-2.22V1.75l-7.75,22.01h-.95l-7.69-19.03v15.79c0,1.43.7,2.22,2.1,2.22h1.11v1.02h-7.43v-1.02h1.11c1.43,0,2.1-.86,2.1-2.22V3.81c0-1.33-.6-2.19-2.1-2.19h-1.11V.57h7.05Z"/><path class="cls-1" d="M102.32,6.23c-1.08-1.52-3.27-4.61-7.75-4.61h-1.21c-1.49,0-2.16.86-2.16,2.22v7.43h2.6c1.97,0,3.43-1.27,3.43-3.11v-.76h1.05v8.96h-1.05v-1.11c0-1.24-1.08-2.95-3.24-2.95h-2.8v8.29c0,1.52.67,2.16,2.16,2.16h1.46c1.52,0,2.76-.29,5.46-2.1.89-.6,1.56-1.37,2.67-2.92l.83.48-2.06,5.56h-17.98v-1.02h1.02c1.24,0,2.19-.79,2.19-2.19V3.78c0-1.4-.76-2.16-2.13-2.16h-1.08V.57h17.37l2.16,5.18-.95.48Z"/><path class="cls-1" d="M113.57.57l11.18,15.85V4.07c0-1.52-.98-2.45-2.41-2.45h-.79V.57h7.46v1.05h-.79c-1.4,0-2.45,1.11-2.45,2.45v19.69h-.86l-13.72-19.47v16.07c0,1.21.92,2.38,2.35,2.38h.86v1.02h-7.43v-1.02h.83c1.24,0,2.38-.86,2.38-2.38V4.07c0-1.21-.92-2.45-2.45-2.45h-.76V.57h6.61Z"/><path class="cls-1" d="M141.46,24.36c-4.61,0-10.48-4.1-10.48-12.2s5.84-12.17,10.48-12.17,10.48,4.03,10.48,12.17-5.97,12.2-10.48,12.2ZM141.46,23.38c3.43,0,5.97-3.91,5.97-11.21s-2.6-11.21-5.97-11.21-5.97,3.81-5.97,11.21,2.54,11.21,5.97,11.21Z"/><path class="cls-1" d="M167.45,12.48v8.04c0,1.49.67,2.22,2.13,2.22h.98v1.02h-10.42v-1.02h1.11c1.46,0,2.1-.86,2.1-2.22V3.81c0-1.4-.73-2.19-2.1-2.19h-1.11V.57h10.42v1.05h-.98c-1.52,0-2.13.79-2.13,2.19v7.62h9.4V3.81c0-1.43-.67-2.19-2.13-2.19h-.95V.57h10.42v1.05h-1.11c-1.52,0-2.13.89-2.13,2.19v16.71c0,1.43.7,2.22,2.13,2.22h1.11v1.02h-10.42v-1.02h.95c1.46,0,2.13-.73,2.13-2.22v-8.04h-9.4Z"/><path class="cls-1" d="M187.94,22.74h1.24c1.65,0,2.26-.76,2.26-2.22V3.81c0-1.46-.64-2.19-2.26-2.19h-1.24V.57h10.99v1.05h-1.21c-1.65,0-2.22.7-2.22,2.19v16.71c0,1.52.64,2.22,2.22,2.22h1.21v1.02h-10.99v-1.02Z"/><path class="cls-1" d="M210.12,12.51v7.91c0,1.59.64,2.32,2.13,2.32h.76v1.02h-10.2v-1.02h1.11c1.3,0,2.1-.76,2.1-2.1V3.72c0-1.33-.73-2.1-2.03-2.1h-1.18V.57h12.39c4.7,0,7.5,2.45,7.5,5.59,0,.73,0,4.26-5.84,6l3.94,7.97c.76,1.52,1.84,2.6,3.4,2.6h.67v1.02h-6.86l-5.59-11.24h-2.29ZM210.12,11.5h3.75c2.45,0,4.32-1.81,4.32-5.34,0-3.08-1.65-4.54-4.22-4.54h-1.62c-1.59,0-2.22.76-2.22,2.22v7.66Z"/><path class="cls-1" d="M232.48,15.95l-1.46,4.7c-.09.25-.16.51-.16.73,0,.86.67,1.37,1.62,1.37h1.46v1.02h-7.78v-1.02h1.27c1.24,0,2.1-.89,2.51-2.16L236.33.38l2.92-.38,7.18,20.14c.44,1.21,1.33,2.6,2.92,2.6h.86v1.02h-10.8v-1.02h1.59c.79,0,1.33-.51,1.33-1.27,0-.35-.1-.86-.22-1.18l-1.56-4.35h-8.07ZM240.2,14.9l-3.94-10.99-3.46,10.99h7.4Z"/><path class="cls-1" d="M258.72,1.62h-1.56c-.73,0-1.27.41-1.27,1.14,0,.38.13.79.35,1.14l5.18,8.8,4.7-8.67c.22-.41.29-.92.29-1.11,0-.92-.76-1.3-1.37-1.3h-1.43V.57h8.04v1.05h-1.18c-1.81,0-2.76,1.62-3.24,2.51l-5.49,10.13v6.13c0,1.56.57,2.35,2.1,2.35h1.78v1.02h-11.66v-1.02h1.52c1.59,0,2.16-.83,2.16-2.35v-6.04l-6.32-10.7c-.76-1.27-1.52-2.03-3.02-2.03h-.7V.57h11.12v1.05Z"/><path class="cls-1" d="M277.28,15.95l-1.46,4.7c-.09.25-.16.51-.16.73,0,.86.67,1.37,1.62,1.37h1.46v1.02h-7.78v-1.02h1.27c1.24,0,2.1-.89,2.51-2.16l6.38-20.2,2.92-.38,7.18,20.14c.44,1.21,1.33,2.6,2.92,2.6h.86v1.02h-10.8v-1.02h1.59c.79,0,1.33-.51,1.33-1.27,0-.35-.09-.86-.22-1.18l-1.56-4.35h-8.07ZM284.99,14.9l-3.94-10.99-3.46,10.99h7.4Z"/></svg>