<?xml version="1.0" encoding="UTF-8"?><svg id="_イヤー_2" xmlns="http://www.w3.org/2000/svg" width="120" height="120" viewBox="0 0 120 120"><defs><style>.cls-1{fill:#fff;}</style></defs><g id="_字"><path class="cls-1" d="M60,.5c32.81,0,59.5,26.69,59.5,59.5s-26.69,59.5-59.5,59.5S.5,92.81,.5,60,27.19,.5,60,.5m18.36,28.96l-.17,.18c-.4,.46-.9,.97-1.48,1.57l-.63,.64c-.77,.82-1.66,1.68-2.85,2.82-.8,.79-1.69,1.6-2.63,2.45l-.88,.8c-.92,.84-1.89,1.66-2.92,2.54-.38,.32-.76,.64-1.13,.96-.47,.38-.94,.76-1.42,1.15-.99,.81-2.02,1.65-3.1,2.44-1.35,1.05-2.83,2.14-4.8,3.53-1.62,1.15-3.27,2.23-4.95,3.31l-.73,.45c-1.45,.9-2.83,1.74-4.24,2.51-1.3,.76-2.6,1.41-3.86,2.04l-.91,.46c-1.35,.64-2.8,1.28-4.4,1.94-.51,.18-1.01,.36-1.49,.55-.83,.31-1.62,.61-2.34,.8-.43,.11-.83,.24-1.22,.35-.67,.2-1.24,.37-1.79,.47l-2.79,.52c-.25,.05-.43,.28-.41,.54l.11,1.25c.02,.26,.24,.45,.5,.45h2.95c.59,0,1.26-.06,1.98-.13,.4-.04,.83-.08,1.28-.12,.88-.06,1.79-.22,2.74-.39,.51-.09,1.04-.18,1.61-.27,1.82-.37,3.46-.75,5.02-1.16l.94-.27c1.48-.42,3.01-.85,4.53-1.4,1.67-.53,3.31-1.16,5.05-1.83l.73-.28c1.87-.76,3.87-1.58,5.82-2.48,2.29-1.04,4.11-1.91,5.71-2.73,1.31-.63,2.57-1.32,3.79-1.98,.55-.3,1.1-.6,1.67-.9,.43-.25,.87-.49,1.29-.74,1.3-.74,2.52-1.43,3.69-2.15l.97-.59c1.22-.75,2.37-1.45,3.43-2.16,1.45-.94,2.63-1.72,3.67-2.47l.76-.53c.78-.55,1.46-1.02,2.04-1.47l.78-.59,.3-.23,3.31,3.19c.1,.09,.22,.14,.35,.14,.07,0,.14-.01,.2-.04,.19-.08,.3-.27,.3-.47l-.32-16.62c0-.27-.23-.49-.5-.49h0l-16.62,.31c-.2,0-.38,.13-.46,.32-.07,.19-.03,.4,.12,.54l3.39,3.26m3.39,62.68h10.19c.28,0,.5-.22,.5-.5V48.53c0-1.16-.94-2.1-2.1-2.1h-6.99c-1.16,0-2.1,.94-2.1,2.1v43.12c0,.28,.22,.5,.5,.5m-13.49,0h10.19c.28,0,.5-.22,.5-.5V57.33c0-1.16-.94-2.1-2.1-2.1h-6.99c-1.16,0-2.1,.94-2.1,2.1v34.32c0,.28,.22,.5,.5,.5m-13.49,0h10.19c.28,0,.5-.22,.5-.5v-26.99c0-1.16-.94-2.1-2.1-2.1h-6.98c-1.16,0-2.1,.94-2.1,2.1v26.99c0,.28,.22,.5,.5,.5m-13.49,0h10.19c.28,0,.5-.22,.5-.5v-19.66c0-1.16-.94-2.1-2.1-2.1h-6.99c-1.16,0-2.1,.94-2.1,2.1v19.66c0,.28,.22,.5,.5,.5m-13.49,0h10.19c.28,0,.5-.22,.5-.5v-16.72c0-1.16-.94-2.1-2.1-2.1h-6.99c-1.16,0-2.1,.94-2.1,2.1v16.72c0,.28,.22,.5,.5,.5M60,0C26.86,0,0,26.86,0,60s26.86,60,60,60,60-26.86,60-60S93.14,0,60,0h0ZM30.8,63.68s-.08,0-.11,0c-1.8,0-2.83,0-2.83,0l-.11-1.25s1.01-.19,2.78-.52c.89-.15,1.88-.51,3.05-.82,1.15-.3,2.46-.87,3.86-1.35,1.39-.57,2.89-1.22,4.45-1.96,1.55-.78,3.18-1.56,4.81-2.52,1.65-.89,3.31-1.93,4.98-2.96,1.66-1.07,3.34-2.17,4.98-3.33,1.64-1.16,3.26-2.33,4.82-3.54,1.58-1.17,3.06-2.43,4.52-3.6,1.42-1.22,2.81-2.37,4.08-3.52,1.26-1.15,2.47-2.22,3.52-3.26,1.07-1.02,2.04-1.97,2.86-2.83,.83-.86,1.57-1.59,2.13-2.23,.18-.2,.33-.36,.49-.54l-3.74-3.6,16.62-.31,.32,16.62-3.62-3.49c-.38,.29-.83,.63-1.42,1.07-.76,.59-1.71,1.23-2.78,1.99-1.07,.77-2.31,1.58-3.65,2.46-1.33,.9-2.83,1.79-4.39,2.75-1.56,.96-3.25,1.9-4.98,2.89-1.76,.93-3.54,1.95-5.43,2.86-1.85,.95-3.77,1.85-5.7,2.73-1.92,.88-3.88,1.69-5.8,2.47-1.95,.74-3.85,1.49-5.74,2.09-1.86,.66-3.72,1.16-5.46,1.66-1.76,.46-3.44,.84-4.99,1.15-1.58,.24-2.97,.55-4.29,.65-1.25,.1-2.34,.25-3.22,.25h0Zm50.96,27.96V48.53c0-.89,.72-1.6,1.6-1.6h6.99c.89,0,1.6,.72,1.6,1.6v43.12h-10.19Zm-13.49,0V57.33c0-.89,.72-1.6,1.6-1.6h6.99c.89,0,1.6,.72,1.6,1.6v34.32h-10.19Zm-13.49,0v-26.99c0-.89,.72-1.6,1.6-1.6h6.98c.89,0,1.6,.72,1.6,1.6v26.99h-10.19Zm-13.49,0v-19.66c0-.89,.72-1.6,1.6-1.6h6.99c.89,0,1.6,.72,1.6,1.6v19.66h-10.19Zm-13.49,0v-16.72c0-.89,.72-1.6,1.6-1.6h6.99c.89,0,1.6,.72,1.6,1.6v16.72h-10.19Z"/></g></svg>