<?xml version="1.0" encoding="UTF-8"?><svg id="_イヤー_2" xmlns="http://www.w3.org/2000/svg" width="120" height="120" viewBox="0 0 120 120"><defs><style>.cls-1{fill:#fff;}</style></defs><g id="_字"><path class="cls-1" d="M86.61,68.05c1.93,0,3.04,2.58,3.04,7.08,0,5.48-1.75,7.46-2.93,7.46-2.07,0-3.61-6.35-3.61-12.03v-.58c1.08-1.25,2.32-1.93,3.5-1.93m0-.5c-.38,0-2.13,0-4,2.25v.76c0,5.11,1.37,12.53,4.11,12.53,1.56,0,3.43-2.32,3.43-7.96,0-4.76-1.26-7.58-3.54-7.58h0Z"/><path class="cls-1" d="M60,.5c32.81,0,59.5,26.69,59.5,59.5s-26.69,59.5-59.5,59.5S.5,92.81,.5,60,27.19,.5,60,.5m-13.22,33.05c1.22,0,2.2-.99,2.2-2.2s-.99-2.2-2.2-2.2-2.2,.99-2.2,2.2,.99,2.2,2.2,2.2m4.61,4.13s.06,0,.09,0c.25-.04,.48-.09,.72-.09,.07,0,.29,0,.29,.39v7.58c0,.77-.12,.77-1.01,.77-.28,0-.5,.22-.5,.5v.77c0,.28,.22,.5,.5,.5h5.64c.28,0,.5-.22,.5-.5v-.77c0-.28-.22-.5-.5-.5-.85,0-1.13-.11-1.13-.77v-6.54c.87-1.02,1.56-1.24,2-1.24,.21,0,1.25,.08,1.25,1.56v8.26c0,.28,.22,.5,.5,.5h4.18c.28,0,.5-.22,.5-.5v-.77c0-.28-.22-.5-.5-.5h-.58c-.14,0-.58,0-.58-.75v-6.29c0-2.32-1.44-4-3.43-4-1.45,0-2.58,.71-3.34,1.37v-.87c0-.15-.07-.29-.18-.38-.09-.08-.2-.12-.32-.12-.03,0-.06,0-.09,0l-4.22,.79c-.13,.02-.25,.1-.32,.21-.07,.11-.1,.25-.08,.38l.12,.6c.05,.24,.26,.4,.5,.4m-7.57,.19c.05,0,.11,0,.16-.03,.23-.08,.47-.12,.68-.12,.14,0,.39,0,.39,.7v7.1c0,.3-.09,.8-.7,.8h-.86c-.28,0-.5,.22-.5,.5v.77c0,.28,.22,.5,.5,.5h6.6c.28,0,.5-.22,.5-.5v-.77c0-.28-.22-.5-.5-.5h-.77c-.61,0-.8-.19-.8-.8v-9.74c0-.15-.07-.3-.19-.39-.09-.07-.2-.11-.31-.11-.04,0-.07,0-.11,.01l-4.34,.98c-.13,.03-.24,.11-.31,.22-.07,.11-.09,.25-.06,.38l.14,.6c.03,.14,.12,.25,.24,.32,.07,.04,.16,.06,.24,.06m39.58,10.68c3.13,0,4.64-2.35,5.29-3.37,.14-.22,.09-.5-.11-.66l-.58-.46c-.09-.07-.2-.11-.31-.11-.15,0-.29,.07-.39,.19l-.03,.04c-.51,.64-1.7,2.14-3.15,2.14-.66,0-1.31-.29-1.81-.81-.55-.57-1.18-1.67-1.2-3.73h6.78c.14,0,.27-.06,.36-.16,.09-.1,.14-.24,.13-.37-.05-.75-.17-2.74-1.89-4.56-.5-.52-1.59-1.4-3.22-1.4-3.13,0-5.78,3.15-5.78,6.88s2.54,6.38,5.9,6.38m-12.46,0c2.96,0,4.42-1.97,5.2-3.02l.04-.06c.15-.21,.13-.49-.06-.67l-.58-.53c-.09-.09-.21-.13-.34-.13-.02,0-.03,0-.05,0-.14,.01-.27,.09-.35,.2-.9,1.21-1.64,1.91-2.74,1.91-1.78,0-2.98-1.88-2.98-4.68,0-1.81,.57-4.49,2.14-4.49,.59,0,.72,.4,.72,.56,0,.05-.01,.21-.02,.38-.01,.21-.03,.43-.03,.51,0,1.13,.92,1.72,1.82,1.72,1,0,2.08-.79,2.08-2.06,0-1.82-1.55-2.9-4.15-2.9-4.33,0-6.31,3.62-6.31,6.98,0,3.7,2.3,6.28,5.59,6.28m-32.88-2.03c-1.24,0-2.37-.68-3-1.31-.37-.39-.58-.68-.96-1.52-.08-.18-.26-.29-.45-.29-.06,0-.12,.01-.18,.03l-.89,.34c-.25,.09-.38,.37-.3,.62l1.25,3.82c.05,.14,.15,.25,.29,.31,.06,.02,.12,.04,.19,.04,.08,0,.16-.02,.24-.06,.21-.12,.78-.42,1.2-.42,.14,.02,1.07,.22,1.25,.27,.57,.14,1.05,.21,1.51,.21,2.03,0,4.2-1.44,4.2-4.1,0-2.13-1.35-3.18-4-4.48-2.48-1.2-2.48-1.57-2.48-1.95,0-.27,0-.89,1.16-.89,2.28,0,3.2,2.1,3.5,2.8,.08,.19,.26,.3,.46,.3,.05,0,.11,0,.16-.03l.7-.24c.25-.09,.39-.35,.32-.61l-1.03-3.7c-.04-.16-.16-.28-.31-.34-.05-.02-.11-.03-.17-.03-.1,0-.2,.03-.29,.09-.52,.36-.96,.36-1.15,.36-.21,0-.36,0-.92-.17-.74-.22-1.12-.28-1.56-.28-2.44,0-3.76,1.91-3.76,3.72,0,2.05,1.46,3.19,3.66,4.26,2.79,1.39,2.79,1.66,2.79,2.14,0,.81-.85,1.11-1.42,1.11m48.74,38.21c4.63,0,8.69-4.84,8.69-10.37,0-4.36-2.8-9.07-7.32-9.07-2.34,0-3.88,.9-4.94,1.77,.17-2.21,.52-5.11,1.67-7.9,.4-.95,1.27-2.55,2.59-2.55,.72,0,.72,.42,.72,.6,0,.12-.07,.57-.11,.89-.07,.48-.11,.78-.11,.94,0,1.52,1.14,3.09,3.05,3.09,1.81,0,3.17-1.43,3.17-3.32,0-2.96-2.85-4.31-5.49-4.31-7.73,0-11.24,8.2-11.24,15.82,0,9.9,4.84,14.41,9.34,14.41m-40.88-10.82c2.37,0,3.92-.9,4.98-1.77-.17,2.21-.52,5.11-1.67,7.9-.41,.97-1.28,2.59-2.59,2.59-.63,0-.72-.33-.72-.64,0-.1,.07-.55,.11-.84,.07-.51,.12-.83,.12-.99,0-1.5-1.14-3.05-3.05-3.05-1.81,0-3.17,1.41-3.17,3.28,0,2.16,1.7,4.35,5.49,4.35,7.73,0,11.24-8.22,11.24-15.85,0-7.14-3.21-14.37-9.34-14.37-4.63,0-8.69,4.83-8.69,10.33,0,4.36,2.78,9.07,7.28,9.07m-21.45-15.66h1.68c1.07,0,1.63,.56,1.63,1.63v20.08c0,1.02-.82,1.82-1.86,1.82h-1.71c-.28,0-.5,.22-.5,.5v1.22c0,.28,.22,.5,.5,.5h12.57c.28,0,.5-.22,.5-.5v-1.22c0-.28-.22-.5-.5-.5h-1.75c-1.34,0-1.82-.94-1.82-1.82v-24.5c0-.71-.43-.96-.81-.96-.24,0-.59,.14-1.29,.46-.11,.05-.19,.09-.23,.1-2.64,1.05-5.29,1.12-6.42,1.15-.27,0-.49,.23-.49,.5v1.03c0,.28,.22,.5,.5,.5m35.16,6.63c.07,0,.14-.01,.2-.04,.12-.05,.22-.16,.27-.28,.8-2.13,1.55-4.13,4.48-4.13h6.97c-2.23,3.5-4.96,7.84-7.81,14.08-.53,1.18-2.14,4.76-2.14,6.95,0,1.59,.83,3.28,3.17,3.28,3.07,0,3.5-2.6,3.66-5.04,.24-3.49,.62-6.16,1.92-10.21,1.83-5.69,3.86-8.84,5.66-11.62,.05-.08,.08-.17,.08-.27v-1.9c0-.28-.22-.5-.5-.5h-15.32c-.24,0-.44,.17-.49,.4l-1.68,8.27c-.05,.24,.08,.47,.3,.56l1.03,.42c.06,.02,.12,.04,.19,.04M60,0C26.86,0,0,26.86,0,60s26.86,60,60,60,60-26.86,60-60S93.14,0,60,0h0Zm-13.22,33.05c-.94,0-1.7-.77-1.7-1.7s.79-1.7,1.7-1.7,1.7,.74,1.7,1.7-.74,1.7-1.7,1.7h0Zm36.62,15c-2.95,0-5.4-2.33-5.4-5.88s2.52-6.38,5.28-6.38c1.34,0,2.3,.67,2.86,1.25,1.56,1.66,1.7,3.48,1.75,4.25h-7.27c-.14,4.03,1.85,5.54,3.5,5.54s3.02-1.68,3.58-2.38l.58,.46c-.6,.94-1.99,3.14-4.87,3.14h0Zm-12.46,0c-3.1,0-5.09-2.45-5.09-5.78s1.87-6.48,5.81-6.48c.62,0,3.65,.07,3.65,2.4,0,.98-.86,1.56-1.58,1.56-.62,0-1.32-.38-1.32-1.22,0-.14,.05-.77,.05-.89,0-.43-.36-1.06-1.22-1.06-2.02,0-2.64,3.05-2.64,4.99,0,3.05,1.37,5.18,3.48,5.18,1.42,0,2.3-.98,3.14-2.11l.58,.53c-.77,1.03-2.09,2.88-4.85,2.88h0Zm-15.46-10.18c.6-.67,1.92-2.09,3.84-2.09,1.68,0,2.93,1.42,2.93,3.5v6.29c0,.67,.31,1.25,1.08,1.25h.58v.77h-4.18v-8.26c0-1.58-1.03-2.06-1.75-2.06-1.2,0-2.18,1.18-2.5,1.56v6.72c0,1.27,1.01,1.27,1.63,1.27v.77h-5.64v-.77c.89,0,1.51,0,1.51-1.27v-7.58c0-.14-.05-.89-.79-.89-.29,0-.55,.05-.82,.1l-.12-.6,4.22-.79v2.09h0Zm-11.66-.5l-.14-.6,4.34-.98v9.74c0,.84,.36,1.3,1.3,1.3h.77v.77h-6.6v-.77h.86c.77,0,1.2-.55,1.2-1.3v-7.1c0-.53-.14-1.2-.89-1.2-.07,0-.41,0-.84,.14h0Zm-4.56-1.13c.22,0,.79,0,1.44-.46l1.03,3.7-.7,.24c-.34-.77-1.37-3.1-3.96-3.1-1.03,0-1.66,.46-1.66,1.39,0,.72,.29,1.2,2.76,2.4,2.83,1.39,3.72,2.33,3.72,4.03,0,2.4-1.92,3.6-3.7,3.6-.46,0-.91-.07-1.39-.19-.17-.05-1.22-.29-1.34-.29-.55,0-1.15,.31-1.46,.48l-1.25-3.82,.89-.34c.38,.84,.62,1.2,1.06,1.66,.77,.77,2.02,1.46,3.36,1.46,.91,0,1.92-.53,1.92-1.61,0-.82-.26-1.2-3.07-2.59-2.21-1.08-3.38-2.11-3.38-3.82,0-1.54,1.08-3.22,3.26-3.22,.36,0,.67,.05,1.42,.26,.62,.19,.82,.19,1.06,.19h0Zm47.54,47.99c-4,0-8.84-4.11-8.84-13.91,0-7.58,3.51-15.32,10.74-15.32,3.24,0,4.99,1.75,4.99,3.81,0,1.56-1.07,2.82-2.67,2.82s-2.55-1.41-2.55-2.59c0-.27,.23-1.52,.23-1.83,0-.8-.57-1.1-1.22-1.1-1.75,0-2.74,2.13-3.05,2.86-1.41,3.43-1.64,7.01-1.79,9.3,.95-.91,2.55-2.48,5.52-2.48,4.23,0,6.82,4.5,6.82,8.57,0,5.22-3.81,9.87-8.19,9.87h0Zm-40.88-10.82c-4.19,0-6.78-4.46-6.78-8.57,0-5.22,3.81-9.83,8.19-9.83,3.96,0,8.84,4.11,8.84,13.87,0,7.58-3.51,15.35-10.74,15.35-3.28,0-4.99-1.79-4.99-3.85,0-1.52,1.07-2.78,2.67-2.78s2.55,1.37,2.55,2.55c0,.27-.23,1.56-.23,1.83,0,.84,.57,1.14,1.22,1.14,1.75,0,2.74-2.17,3.05-2.9,1.41-3.43,1.64-7.01,1.79-9.3-.95,.91-2.55,2.48-5.56,2.48h0Zm-21.45-15.66v-1.03c1.49-.04,4-.15,6.59-1.18,.19-.08,1.1-.53,1.33-.53s.31,.19,.31,.46v24.5c0,1.26,.8,2.32,2.32,2.32h1.75v1.22h-12.57v-1.22h1.71c1.37,0,2.36-1.07,2.36-2.32v-20.08c0-1.37-.8-2.13-2.13-2.13h-1.68Zm35.16,6.63l-1.03-.42,1.68-8.27h15.32v1.9c-1.94,3.01-3.92,6.17-5.71,11.73-1.37,4.27-1.71,7.01-1.94,10.33-.19,2.86-.76,4.57-3.16,4.57-1.98,0-2.67-1.37-2.67-2.78,0-1.98,1.41-5.22,2.1-6.74,3.05-6.67,5.98-11.2,8.27-14.78h-7.89c-3.28,0-4.15,2.32-4.95,4.46h0Z"/><path class="cls-1" d="M47.41,56.62c1.71,0,3.61,5.15,3.61,12.03v.58c-1.08,1.25-2.32,1.93-3.5,1.93-1.91,0-3.04-2.63-3.04-7.04,0-5.46,1.8-7.5,2.93-7.5m0-.5c-1.56,0-3.43,2.36-3.43,8,0,4.72,1.26,7.54,3.54,7.54,.38,0,2.13,0,4-2.25v-.76c0-5.07-1.37-12.53-4.11-12.53h0Z"/><path class="cls-1" d="M83.28,37.08c1.16,0,1.44,1.35,1.5,2.94h-3.55c.21-1.47,.67-2.94,2.05-2.94m0-.5c-2.18,0-2.5,2.81-2.62,3.94h4.63c-.02-1.39-.1-3.94-2.02-3.94h0Z"/></g></svg>