<?xml version="1.0" encoding="UTF-8"?><svg id="_イヤー_2" xmlns="http://www.w3.org/2000/svg" width="2" height="1828.67" viewBox="0 0 2 1828.67"><defs><style>.cls-1{fill:#fff;}</style></defs><g id="_クロール"><path class="cls-1" d="M2,1828.67H0v-5.07H2v5.07Zm0-10.13H0v-5.07H2v5.07Zm0-10.13H0v-5.07H2v5.07Zm0-10.13H0v-5.07H2v5.07Zm0-10.13H0v-5.07H2v5.07Zm0-10.13H0v-5.07H2v5.07Zm0-10.13H0v-5.07H2v5.07Zm0-10.13H0v-5.07H2v5.07Zm0-10.13H0v-5.07H2v5.07Zm0-10.13H0v-5.07H2v5.07Zm0-10.13H0v-5.07H2v5.07Zm0-10.13H0v-5.07H2v5.07Zm0-10.13H0v-5.07H2v5.07Zm0-10.13H0v-5.07H2v5.07Zm0-10.13H0v-5.07H2v5.07Zm0-10.13H0v-5.07H2v5.07Zm0-10.13H0v-5.07H2v5.07Zm0-10.13H0v-5.07H2v5.07Zm0-10.13H0v-5.07H2v5.07Zm0-10.13H0v-5.07H2v5.07Zm0-10.13H0v-5.07H2v5.07Zm0-10.13H0v-5.07H2v5.07Zm0-10.13H0v-5.07H2v5.07Zm0-10.13H0v-5.07H2v5.07Zm0-10.13H0v-5.07H2v5.07Zm0-10.13H0v-5.07H2v5.07Zm0-10.13H0v-5.07H2v5.07Zm0-10.13H0v-5.07H2v5.07Zm0-10.13H0v-5.07H2v5.07Zm0-10.13H0v-5.07H2v5.07Zm0-10.13H0v-5.07H2v5.07Zm0-10.13H0v-5.07H2v5.07Zm0-10.13H0v-5.07H2v5.07Zm0-10.13H0v-5.07H2v5.07Zm0-10.13H0v-5.07H2v5.07Zm0-10.13H0v-5.07H2v5.07Zm0-10.13H0v-5.07H2v5.07Zm0-10.13H0v-5.07H2v5.07Zm0-10.13H0v-5.07H2v5.07Zm0-10.13H0v-5.07H2v5.07Zm0-10.13H0v-5.07H2v5.07Zm0-10.13H0v-5.07H2v5.07Zm0-10.13H0v-5.07H2v5.07Zm0-10.13H0v-5.07H2v5.07Zm0-10.13H0v-5.07H2v5.07Zm0-10.13H0v-5.07H2v5.07Zm0-10.13H0v-5.07H2v5.07Zm0-10.13H0v-5.07H2v5.07Zm0-10.13H0v-5.07H2v5.07Zm0-10.13H0v-5.07H2v5.07Zm0-10.13H0v-5.07H2v5.07Zm0-10.13H0v-5.07H2v5.07Zm0-10.13H0v-5.07H2v5.07Zm0-10.13H0v-5.07H2v5.07Zm0-10.13H0v-5.07H2v5.07Zm0-10.13H0v-5.07H2v5.07Zm0-10.13H0v-5.07H2v5.07Zm0-10.13H0v-5.07H2v5.07Zm0-10.13H0v-5.07H2v5.07Zm0-10.13H0v-5.07H2v5.07Zm0-10.13H0v-5.07H2v5.07Zm0-10.13H0v-5.07H2v5.07Zm0-10.13H0v-5.07H2v5.07Zm0-10.13H0v-5.07H2v5.07Zm0-10.13H0v-5.07H2v5.07Zm0-10.13H0v-5.07H2v5.07Zm0-10.13H0v-5.07H2v5.07Zm0-10.13H0v-5.07H2v5.07Zm0-10.13H0v-5.07H2v5.07Zm0-10.13H0v-5.07H2v5.07Zm0-10.13H0v-5.07H2v5.07Zm0-10.13H0v-5.07H2v5.07Zm0-10.13H0v-5.07H2v5.07Zm0-10.13H0v-5.07H2v5.07Zm0-10.13H0v-5.07H2v5.07Zm0-10.13H0v-5.07H2v5.07Zm0-10.13H0v-5.07H2v5.07Zm0-10.13H0v-5.07H2v5.07Zm0-10.13H0v-5.07H2v5.07Zm0-10.13H0v-5.07H2v5.07Zm0-10.13H0v-5.07H2v5.07Zm0-10.13H0v-5.07H2v5.07Zm0-10.13H0v-5.07H2v5.07Zm0-10.13H0v-5.07H2v5.07Zm0-10.13H0v-5.07H2v5.07Zm0-10.13H0v-5.07H2v5.07Zm0-10.13H0v-5.07H2v5.07Zm0-10.13H0v-5.07H2v5.07Zm0-10.13H0v-5.07H2v5.07Zm0-10.13H0v-5.07H2v5.07Zm0-10.13H0v-5.07H2v5.07Zm0-10.13H0v-5.07H2v5.07Zm0-10.13H0v-5.07H2v5.07Zm0-10.13H0v-5.07H2v5.07Zm0-10.13H0v-5.07H2v5.07Zm0-10.13H0v-5.07H2v5.07Zm0-10.13H0v-5.07H2v5.07Zm0-10.13H0v-5.07H2v5.07Zm0-10.13H0v-5.07H2v5.07Zm0-10.13H0v-5.07H2v5.07Zm0-10.13H0v-5.07H2v5.07Zm0-10.13H0v-5.07H2v5.07Zm0-10.13H0v-5.07H2v5.07Zm0-10.13H0v-5.07H2v5.07Zm0-10.13H0v-5.07H2v5.07Zm0-10.13H0v-5.07H2v5.07Zm0-10.13H0v-5.07H2v5.07Zm0-10.13H0v-5.07H2v5.07Zm0-10.13H0v-5.07H2v5.07Zm0-10.13H0v-5.07H2v5.07Zm0-10.13H0v-5.07H2v5.07Zm0-10.13H0v-5.07H2v5.07Zm0-10.13H0v-5.07H2v5.07Zm0-10.13H0v-5.07H2v5.07Zm0-10.13H0v-5.07H2v5.07Zm0-10.13H0v-5.07H2v5.07Zm0-10.13H0v-5.07H2v5.07Zm0-10.13H0v-5.07H2v5.07Zm0-10.13H0v-5.07H2v5.07Zm0-10.13H0v-5.07H2v5.07Zm0-10.13H0v-5.07H2v5.07Zm0-10.13H0v-5.07H2v5.07Zm0-10.13H0v-5.07H2v5.07Zm0-10.13H0v-5.07H2v5.07Zm0-10.13H0v-5.07H2v5.07Zm0-10.13H0v-5.07H2v5.07Zm0-10.13H0v-5.07H2v5.07Zm0-10.13H0v-5.07H2v5.07Zm0-10.13H0v-5.07H2v5.07Zm0-10.13H0v-5.07H2v5.07Zm0-10.13H0v-5.07H2v5.07Zm0-10.13H0v-5.07H2v5.07Zm0-10.13H0v-5.07H2v5.07Zm0-10.13H0v-5.07H2v5.07Zm0-10.13H0v-5.07H2v5.07Zm0-10.13H0v-5.07H2v5.07Zm0-10.13H0v-5.07H2v5.07Zm0-10.13H0v-5.07H2v5.07Zm0-10.13H0v-5.07H2v5.07Zm0-10.13H0v-5.07H2v5.07Zm0-10.13H0v-5.07H2v5.07Zm0-10.13H0v-5.07H2v5.07Zm0-10.13H0v-5.07H2v5.07Zm0-10.13H0v-5.07H2v5.07Zm0-10.13H0v-5.07H2v5.07Zm0-10.13H0v-5.07H2v5.07Zm0-10.13H0v-5.07H2v5.07Zm0-10.13H0v-5.07H2v5.07Zm0-10.13H0v-5.07H2v5.07Zm0-10.13H0v-5.07H2v5.07Zm0-10.13H0v-5.07H2v5.07Zm0-10.13H0v-5.07H2v5.07Zm0-10.13H0v-5.07H2v5.07Zm0-10.13H0v-5.07H2v5.07Zm0-10.13H0v-5.07H2v5.07Zm0-10.13H0v-5.07H2v5.07Zm0-10.13H0v-5.07H2v5.07Zm0-10.13H0v-5.07H2v5.07Zm0-10.13H0v-5.07H2v5.07Zm0-10.13H0v-5.07H2v5.07Zm0-10.13H0v-5.07H2v5.07Zm0-10.13H0v-5.07H2v5.07Zm0-10.13H0v-5.07H2v5.07Zm0-10.13H0v-5.07H2v5.07Zm0-10.13H0v-5.07H2v5.07Zm0-10.13H0v-5.07H2v5.07Zm0-10.13H0v-5.07H2v5.07Zm0-10.13H0v-5.07H2v5.07Zm0-10.13H0v-5.07H2v5.07Zm0-10.13H0v-5.07H2v5.07Zm0-10.13H0v-5.07H2v5.07Zm0-10.13H0v-5.07H2v5.07Zm0-10.13H0v-5.07H2v5.07Zm0-10.13H0v-5.07H2v5.07Zm0-10.13H0v-5.07H2v5.07Zm0-10.13H0v-5.07H2v5.07Zm0-10.13H0v-5.07H2v5.07Zm0-10.13H0v-5.07H2v5.07Zm0-10.13H0v-5.07H2v5.07Zm0-10.13H0v-5.07H2v5.07Zm0-10.13H0V0H2V5.07Z"/></g></svg>