<?xml version="1.0" encoding="UTF-8"?><svg id="_イヤー_2" xmlns="http://www.w3.org/2000/svg" width="334.34" height="110.92" viewBox="0 0 334.34 110.92"><defs><style>.cls-1{fill:#fff;}</style></defs><g id="_字"><g><g><g><path class="cls-1" d="M71.17,69.14c-.75-1.99-2.08-3.79-3.99-5.39-1.92-1.6-4.16-2.89-6.74-3.86-2.58-.97-5.31-1.7-8.22-2.17-8.65-1.3-16.43-4.13-23.35-8.5-.6-.35-1.17-1.08-1.72-2.21-.55-1.12-.73-2.21-.55-3.25,.67-3.81,1.99-7.63,3.97-11.46,1.97-3.83,4.16-6.83,6.56-8.99,3.89-3.59,10.29-6.73,19.23-9.41,8.93-2.68,18.69-4.03,29.28-4.03,6.33,0,11.13,.48,14.41,1.43,3.28,.95,4.75,2.42,4.4,4.41-.57,3.25-1.47,5.76-2.68,7.53-1.21,1.77-2.39,2.95-3.52,3.54-1.14,.58-3.09,1.37-5.86,2.37-2.94,.95-5.52,1.95-7.74,2.99-2.23,1.04-4.15,2.03-5.77,2.99-1.62,.95-2.6,1.43-2.96,1.43-.44,0-.63-.17-.57-.52,.13-.74,1.11-1.85,2.93-3.34,1.82-1.49,3.98-2.8,6.46-3.93,2.64-1.25,3.99-2.05,4.05-2.4,.1-.56-1.19-.84-3.87-.84-8.13,0-15.77,.71-22.92,2.14-7.15,1.43-12.92,3.31-17.31,5.65-4.39,2.34-6.8,4.72-7.23,7.14-.27,1.51,.37,2.59,1.91,3.21,1.54,.63,4.99,1.68,10.35,3.15,5.37,1.47,10.1,3.16,14.2,5.06,5.9,2.68,10.13,5.48,12.7,8.37,2.56,2.9,3.53,6.15,2.9,9.74-.44,2.47-1.48,4.94-3.12,7.43-1.65,2.49-3.82,4.77-6.51,6.85-2.7,2.08-5.68,3.79-8.95,5.13-2.78,1.08-6.23,2.1-10.33,3.05-4.1,.95-8.5,1.7-13.18,2.24-4.69,.54-9.12,.81-13.29,.81-7.69,0-13.75-.71-18.18-2.14-4.43-1.43-6.39-3.59-5.88-6.49,.23-1.3,1.38-3.32,3.44-6.07,2.07-2.75,4.26-4.6,6.58-5.55,2.02-.74,3.92-1.16,5.69-1.27,1.78-.11,2.62,.1,2.53,.62-.02,.13-.11,.26-.27,.39-.16,.13-.33,.24-.52,.32-.19,.09-.38,.17-.57,.26-.94,.35-1.7,.62-2.29,.81-.58,.19-1.06,.39-1.42,.58-.36,.19-.58,.46-.64,.81-.16,.91,4.31,1.36,13.41,1.36,7.91,0,14.44-.28,19.59-.84,5.15-.56,9.79-1.58,13.92-3.05,4.13-1.47,8-3.51,11.62-6.1Z"/><path class="cls-1" d="M115.12,37.73c-.05,.3,.2,.46,.78,.46,.4,0,2.23-.26,5.51-.78,3.28-.52,6.22-.8,8.82-.84-3.04,.78-5.67,1.57-7.9,2.37-2.23,.8-4.54,1.69-6.93,2.66-2.39,.97-4.1,1.62-5.12,1.95-1.02,.32-1.89,.49-2.59,.49-2.24,0-3.11-1.43-2.61-4.28,1.3-7.36,4.1-12.53,8.41-15.51,1.75-1.21,4.48-2.65,8.18-4.32,3.7-1.67,7.82-3.25,12.37-4.74,4.55-1.49,9.49-2.78,14.82-3.86,5.33-1.08,10.5-1.62,15.51-1.62s9.74,.74,13.78,2.21c4.05,1.47,7.29,3.54,9.72,6.2,2.43,2.66,4.09,5.92,4.97,9.77,.88,3.85,.9,8.18,.05,12.98-1.29,7.31-4.68,14.41-10.18,21.29-5.5,6.88-12.28,12.95-20.35,18.21-8.07,5.26-16.86,9.42-26.36,12.5-9.51,3.07-18.61,4.61-27.31,4.61-1.63,0-2.88-.17-3.76-.52-.88-.35-1.43-1.03-1.65-2.05-.22-1.02-.15-2.52,.2-4.51,.43-2.47,.99-4.48,1.66-6.04,.67-1.56,1.65-3.35,2.93-5.39,8.76-13.8,22.83-31.18,42.22-52.13-3.23,.35-6.81,1.01-10.76,1.98-3.95,.97-7.72,2.05-11.31,3.21-3.59,1.17-6.65,2.29-9.17,3.38-2.52,1.08-3.82,1.86-3.9,2.34Zm37.13-11.29c-.02,.09-.01,.57,0,1.46,.02,.89-.03,1.66-.14,2.31-.18,1-.94,2.39-2.29,4.19-1.35,1.8-3.94,4.99-7.79,9.58-3.84,4.59-7.14,8.61-9.91,12.07-2.77,3.46-6.1,7.92-10,13.37-1.23,1.73-2.07,2.9-2.53,3.51-.46,.61-1.19,1.6-2.21,2.99-1.01,1.38-1.78,2.58-2.31,3.57-.53,1-.84,1.75-.93,2.27-.2,1.13,.29,1.92,1.46,2.37,1.17,.46,2.92,.68,5.25,.68,5.98,0,12.49-1.07,19.55-3.21,7.06-2.14,13.86-5.12,20.39-8.93,6.54-3.81,11.99-8.12,16.35-12.92,4.36-4.8,7.01-9.82,7.93-15.06,1.05-5.97-.36-10.57-4.22-13.79-3.87-3.22-10.05-4.84-18.53-4.84-3.56,0-6.92,.13-10.09,.39Z"/><path class="cls-1" d="M217.58,110.04c-4.1,2.05-5.63,0-9.22-1.02s10.42-15.79,10.42-15.79c4.39-4.98,8.64-9.99,12.73-15.03,4.1-5.04,7.71-9.64,10.84-13.8,3.13-4.15,6.06-8.24,8.79-12.27-3.62,2.6-7.2,5.1-10.75,7.5-3.54,2.4-7,4.7-10.38,6.88-3.37,2.19-5.46,3.54-6.25,4.06-.79,.52-1.49,.97-2.09,1.36-8.81,6.58-15.1,9.87-18.88,9.87s-6.34-1.69-8.2-5.06c-1.87-3.38-2.34-7.64-1.44-12.79,.57-3.25,1.7-6.63,3.37-10.16,1.68-3.53,3.93-7.15,6.76-10.87,2.83-3.72,6.07-7.31,9.71-10.78,3.64-3.46,7.54-6.64,11.7-9.54,6.4-4.42,13.41-8.36,21.01-11.85,7.6-3.48,14.57-6.14,20.92-7.98,6.34-1.84,10.94-2.76,13.8-2.76,1.67,0,2.93,.4,3.78,1.2,.85,.8,1.36,1.88,1.54,3.25,.18,1.36,.13,2.8-.13,4.32-.24,1.38-.93,2.77-2.05,4.15-1.6,1.86-4.19,3.82-7.76,5.88-3.57,2.06-7.12,3.87-10.65,5.45-3.53,1.58-5.54,2.37-6.02,2.37-.26,0-.38-.09-.35-.26,.07-.39,.68-1.02,1.85-1.88,1.16-.87,2.44-1.75,3.83-2.66,3.08-2.03,5.07-4.2,5.96-6.49-4.47,1.17-8.98,2.71-13.54,4.61-4.55,1.9-9.13,4.18-13.73,6.82-4.6,2.64-9.26,5.65-13.98,9.02-5.34,3.85-10.01,7.87-14.02,12.04-4.01,4.18-7.18,8.04-9.49,11.59-2.32,3.55-3.64,6.28-3.98,8.18-.25,1.43-.01,2.67,.73,3.73,.74,1.06,1.89,1.59,3.48,1.59,1.85,0,4.27-.8,7.28-2.4,3.25-1.73,6.88-3.95,10.9-6.65,4.01-2.71,7.73-5.27,11.14-7.69,3.42-2.42,7.12-5.08,11.1-7.98,3.67-2.64,6.54-4.77,8.61-6.39,2.07-1.62,3.64-3.04,4.74-4.25,2.29-2.51,4.38-3.96,6.27-4.35,1.89-.39,3.39-.03,4.49,1.07,1.1,1.1,1.51,2.46,1.23,4.06-.09,.52-1.4,2.54-3.94,6.07-2.53,3.53-6.36,8.63-11.47,15.32-5.11,6.69-11.35,14.57-18.71,23.66,5.57-2.68,14.67-8.07,27.31-16.16l-.61,3.44c-5.74,4.15-11.41,8.13-17,11.91-5.59,3.79-12.31,8.02-20.17,12.69,0,0-5.39,12.76-9.48,14.81Z"/><path class="cls-1" d="M310.88,74.7c-.53-1.4-1.46-2.66-2.81-3.79-1.35-1.13-2.93-2.03-4.74-2.72-1.81-.69-3.74-1.2-5.78-1.53-6.09-.91-11.56-2.91-16.43-5.98-.42-.24-.82-.76-1.21-1.55-.39-.79-.52-1.55-.39-2.28,.47-2.68,1.4-5.37,2.79-8.06,1.39-2.69,2.93-4.8,4.62-6.33,2.73-2.53,7.24-4.74,13.53-6.62,6.29-1.89,13.15-2.83,20.61-2.83,4.45,0,7.83,.34,10.14,1,2.31,.67,3.34,1.71,3.09,3.11-.4,2.28-1.03,4.05-1.89,5.3-.85,1.25-1.68,2.08-2.48,2.49-.8,.41-2.17,.97-4.12,1.67-2.07,.67-3.88,1.37-5.45,2.1-1.57,.73-2.92,1.43-4.06,2.1-1.14,.67-1.83,1-2.08,1-.31,0-.44-.12-.4-.37,.09-.52,.78-1.3,2.06-2.35,1.28-1.05,2.8-1.97,4.55-2.76,1.86-.88,2.81-1.45,2.85-1.69,.07-.39-.84-.59-2.73-.59-5.72,0-11.1,.5-16.13,1.51-5.03,1-9.09,2.33-12.18,3.97-3.09,1.64-4.78,3.32-5.08,5.03-.19,1.07,.26,1.82,1.34,2.26,1.08,.44,3.51,1.18,7.29,2.22,3.78,1.04,7.11,2.22,9.99,3.56,4.15,1.89,7.13,3.85,8.93,5.89,1.8,2.04,2.48,4.33,2.04,6.85-.31,1.74-1.04,3.48-2.2,5.23-1.16,1.75-2.69,3.36-4.58,4.82-1.9,1.46-4,2.66-6.3,3.61-1.96,.76-4.38,1.48-7.27,2.15-2.89,.67-5.98,1.19-9.28,1.58-3.3,.38-6.42,.57-9.35,.57-5.41,0-9.68-.5-12.79-1.51-3.12-1-4.49-2.53-4.13-4.57,.16-.91,.97-2.34,2.42-4.27,1.45-1.93,3-3.24,4.63-3.91,1.42-.52,2.76-.81,4.01-.89,1.25-.08,1.84,.07,1.78,.43-.02,.09-.08,.18-.19,.27-.11,.09-.23,.17-.37,.23-.13,.06-.27,.12-.4,.18-.66,.25-1.2,.43-1.61,.57-.41,.14-.74,.27-1,.41-.26,.14-.41,.33-.45,.57-.11,.64,3.03,.96,9.43,.96,5.57,0,10.16-.2,13.79-.59,3.63-.4,6.89-1.11,9.79-2.15,2.9-1.03,5.63-2.47,8.18-4.29Z"/></g><g><path class="cls-1" d="M71.17,69.14c-.75-1.99-2.08-3.79-3.99-5.39-1.92-1.6-4.16-2.89-6.74-3.86-2.58-.97-5.31-1.7-8.22-2.17-8.65-1.3-16.43-4.13-23.35-8.5-.6-.35-1.17-1.08-1.72-2.21-.55-1.12-.73-2.21-.55-3.25,.67-3.81,1.99-7.63,3.97-11.46,1.97-3.83,4.16-6.83,6.56-8.99,3.89-3.59,10.29-6.73,19.23-9.41,8.93-2.68,18.69-4.03,29.28-4.03,6.33,0,11.13,.48,14.41,1.43,3.28,.95,4.75,2.42,4.4,4.41-.57,3.25-1.47,5.76-2.68,7.53-1.21,1.77-2.39,2.95-3.52,3.54-1.14,.58-3.09,1.37-5.86,2.37-2.94,.95-5.52,1.95-7.74,2.99-2.23,1.04-4.15,2.03-5.77,2.99-1.62,.95-2.6,1.43-2.96,1.43-.44,0-.63-.17-.57-.52,.13-.74,1.11-1.85,2.93-3.34,1.82-1.49,3.98-2.8,6.46-3.93,2.64-1.25,3.99-2.05,4.05-2.4,.1-.56-1.19-.84-3.87-.84-8.13,0-15.77,.71-22.92,2.14-7.15,1.43-12.92,3.31-17.31,5.65-4.39,2.34-6.8,4.72-7.23,7.14-.27,1.51,.37,2.59,1.91,3.21,1.54,.63,4.99,1.68,10.35,3.15,5.37,1.47,10.1,3.16,14.2,5.06,5.9,2.68,10.13,5.48,12.7,8.37,2.56,2.9,3.53,6.15,2.9,9.74-.44,2.47-1.48,4.94-3.12,7.43-1.65,2.49-3.82,4.77-6.51,6.85-2.7,2.08-5.68,3.79-8.95,5.13-2.78,1.08-6.23,2.1-10.33,3.05-4.1,.95-8.5,1.7-13.18,2.24-4.69,.54-9.12,.81-13.29,.81-7.69,0-13.75-.71-18.18-2.14-4.43-1.43-6.39-3.59-5.88-6.49,.23-1.3,1.38-3.32,3.44-6.07,2.07-2.75,4.26-4.6,6.58-5.55,2.02-.74,3.92-1.16,5.69-1.27,1.78-.11,2.62,.1,2.53,.62-.02,.13-.11,.26-.27,.39-.16,.13-.33,.24-.52,.32-.19,.09-.38,.17-.57,.26-.94,.35-1.7,.62-2.29,.81-.58,.19-1.06,.39-1.42,.58-.36,.19-.58,.46-.64,.81-.16,.91,4.31,1.36,13.41,1.36,7.91,0,14.44-.28,19.59-.84,5.15-.56,9.79-1.58,13.92-3.05,4.13-1.47,8-3.51,11.62-6.1Z"/><path class="cls-1" d="M115.12,37.73c-.05,.3,.2,.46,.78,.46,.4,0,2.23-.26,5.51-.78,3.28-.52,6.22-.8,8.82-.84-3.04,.78-5.67,1.57-7.9,2.37-2.23,.8-4.54,1.69-6.93,2.66-2.39,.97-4.1,1.62-5.12,1.95-1.02,.32-1.89,.49-2.59,.49-2.24,0-3.11-1.43-2.61-4.28,1.3-7.36,4.1-12.53,8.41-15.51,1.75-1.21,4.48-2.65,8.18-4.32,3.7-1.67,7.82-3.25,12.37-4.74,4.55-1.49,9.49-2.78,14.82-3.86,5.33-1.08,10.5-1.62,15.51-1.62s9.74,.74,13.78,2.21c4.05,1.47,7.29,3.54,9.72,6.2,2.43,2.66,4.09,5.92,4.97,9.77,.88,3.85,.9,8.18,.05,12.98-1.29,7.31-4.68,14.41-10.18,21.29-5.5,6.88-12.28,12.95-20.35,18.21-8.07,5.26-16.86,9.42-26.36,12.5-9.51,3.07-18.61,4.61-27.31,4.61-1.63,0-2.88-.17-3.76-.52-.88-.35-1.43-1.03-1.65-2.05-.22-1.02-.15-2.52,.2-4.51,.43-2.47,.99-4.48,1.66-6.04,.67-1.56,1.65-3.35,2.93-5.39,8.76-13.8,22.83-31.18,42.22-52.13-3.23,.35-6.81,1.01-10.76,1.98-3.95,.97-7.72,2.05-11.31,3.21-3.59,1.17-6.65,2.29-9.17,3.38-2.52,1.08-3.82,1.86-3.9,2.34Zm37.13-11.29c-.02,.09-.01,.57,0,1.46,.02,.89-.03,1.66-.14,2.31-.18,1-.94,2.39-2.29,4.19-1.35,1.8-3.94,4.99-7.79,9.58-3.84,4.59-7.14,8.61-9.91,12.07-2.77,3.46-6.1,7.92-10,13.37-1.23,1.73-2.07,2.9-2.53,3.51-.46,.61-1.19,1.6-2.21,2.99-1.01,1.38-1.78,2.58-2.31,3.57-.53,1-.84,1.75-.93,2.27-.2,1.13,.29,1.92,1.46,2.37,1.17,.46,2.92,.68,5.25,.68,5.98,0,12.49-1.07,19.55-3.21,7.06-2.14,13.86-5.12,20.39-8.93,6.54-3.81,11.99-8.12,16.35-12.92,4.36-4.8,7.01-9.82,7.93-15.06,1.05-5.97-.36-10.57-4.22-13.79-3.87-3.22-10.05-4.84-18.53-4.84-3.56,0-6.92,.13-10.09,.39Z"/><path class="cls-1" d="M217.58,110.04c-4.1,2.05-5.63,0-9.22-1.02s10.42-15.79,10.42-15.79c4.39-4.98,8.64-9.99,12.73-15.03,4.1-5.04,7.71-9.64,10.84-13.8,3.13-4.15,6.06-8.24,8.79-12.27-3.62,2.6-7.2,5.1-10.75,7.5-3.54,2.4-7,4.7-10.38,6.88-3.37,2.19-5.46,3.54-6.25,4.06-.79,.52-1.49,.97-2.09,1.36-8.81,6.58-15.1,9.87-18.88,9.87s-6.34-1.69-8.2-5.06c-1.87-3.38-2.34-7.64-1.44-12.79,.57-3.25,1.7-6.63,3.37-10.16,1.68-3.53,3.93-7.15,6.76-10.87,2.83-3.72,6.07-7.31,9.71-10.78,3.64-3.46,7.54-6.64,11.7-9.54,6.4-4.42,13.41-8.36,21.01-11.85,7.6-3.48,14.57-6.14,20.92-7.98,6.34-1.84,10.94-2.76,13.8-2.76,1.67,0,2.93,.4,3.78,1.2,.85,.8,1.36,1.88,1.54,3.25,.18,1.36,.13,2.8-.13,4.32-.24,1.38-.93,2.77-2.05,4.15-1.6,1.86-4.19,3.82-7.76,5.88-3.57,2.06-7.12,3.87-10.65,5.45-3.53,1.58-5.54,2.37-6.02,2.37-.26,0-.38-.09-.35-.26,.07-.39,.68-1.02,1.85-1.88,1.16-.87,2.44-1.75,3.83-2.66,3.08-2.03,5.07-4.2,5.96-6.49-4.47,1.17-8.98,2.71-13.54,4.61-4.55,1.9-9.13,4.18-13.73,6.82-4.6,2.64-9.26,5.65-13.98,9.02-5.34,3.85-10.01,7.87-14.02,12.04-4.01,4.18-7.18,8.04-9.49,11.59-2.32,3.55-3.64,6.28-3.98,8.18-.25,1.43-.01,2.67,.73,3.73,.74,1.06,1.89,1.59,3.48,1.59,1.85,0,4.27-.8,7.28-2.4,3.25-1.73,6.88-3.95,10.9-6.65,4.01-2.71,7.73-5.27,11.14-7.69,3.42-2.42,7.12-5.08,11.1-7.98,3.67-2.64,6.54-4.77,8.61-6.39,2.07-1.62,3.64-3.04,4.74-4.25,2.29-2.51,4.38-3.96,6.27-4.35,1.89-.39,3.39-.03,4.49,1.07,1.1,1.1,1.51,2.46,1.23,4.06-.09,.52-1.4,2.54-3.94,6.07-2.53,3.53-6.36,8.63-11.47,15.32-5.11,6.69-11.35,14.57-18.71,23.66,5.57-2.68,14.67-8.07,27.31-16.16l-.61,3.44c-5.74,4.15-11.41,8.13-17,11.91-5.59,3.79-12.31,8.02-20.17,12.69,0,0-5.39,12.76-9.48,14.81Z"/><path class="cls-1" d="M310.88,74.7c-.53-1.4-1.46-2.66-2.81-3.79-1.35-1.13-2.93-2.03-4.74-2.72-1.81-.69-3.74-1.2-5.78-1.53-6.09-.91-11.56-2.91-16.43-5.98-.42-.24-.82-.76-1.21-1.55-.39-.79-.52-1.55-.39-2.28,.47-2.68,1.4-5.37,2.79-8.06,1.39-2.69,2.93-4.8,4.62-6.33,2.73-2.53,7.24-4.74,13.53-6.62,6.29-1.89,13.15-2.83,20.61-2.83,4.45,0,7.83,.34,10.14,1,2.31,.67,3.34,1.71,3.09,3.11-.4,2.28-1.03,4.05-1.89,5.3-.85,1.25-1.68,2.08-2.48,2.49-.8,.41-2.17,.97-4.12,1.67-2.07,.67-3.88,1.37-5.45,2.1-1.57,.73-2.92,1.43-4.06,2.1-1.14,.67-1.83,1-2.08,1-.31,0-.44-.12-.4-.37,.09-.52,.78-1.3,2.06-2.35,1.28-1.05,2.8-1.97,4.55-2.76,1.86-.88,2.81-1.45,2.85-1.69,.07-.39-.84-.59-2.73-.59-5.72,0-11.1,.5-16.13,1.51-5.03,1-9.09,2.33-12.18,3.97-3.09,1.64-4.78,3.32-5.08,5.03-.19,1.07,.26,1.82,1.34,2.26,1.08,.44,3.51,1.18,7.29,2.22,3.78,1.04,7.11,2.22,9.99,3.56,4.15,1.89,7.13,3.85,8.93,5.89,1.8,2.04,2.48,4.33,2.04,6.85-.31,1.74-1.04,3.48-2.2,5.23-1.16,1.75-2.69,3.36-4.58,4.82-1.9,1.46-4,2.66-6.3,3.61-1.96,.76-4.38,1.48-7.27,2.15-2.89,.67-5.98,1.19-9.28,1.58-3.3,.38-6.42,.57-9.35,.57-5.41,0-9.68-.5-12.79-1.51-3.12-1-4.49-2.53-4.13-4.57,.16-.91,.97-2.34,2.42-4.27,1.45-1.93,3-3.24,4.63-3.91,1.42-.52,2.76-.81,4.01-.89,1.25-.08,1.84,.07,1.78,.43-.02,.09-.08,.18-.19,.27-.11,.09-.23,.17-.37,.23-.13,.06-.27,.12-.4,.18-.66,.25-1.2,.43-1.61,.57-.41,.14-.74,.27-1,.41-.26,.14-.41,.33-.45,.57-.11,.64,3.03,.96,9.43,.96,5.57,0,10.16-.2,13.79-.59,3.63-.4,6.89-1.11,9.79-2.15,2.9-1.03,5.63-2.47,8.18-4.29Z"/></g></g><path class="cls-1" d="M235.51,35.25s19.46-.51,48.66-6.15c0,0,1.54,7.17-1.54,9.22-3.07,2.05-47.64,7.68-49.69,5.12-2.05-2.56,2.56-8.2,2.56-8.2Z"/></g></g></svg>