<?xml version="1.0" encoding="UTF-8"?><svg id="_イヤー_2" xmlns="http://www.w3.org/2000/svg" width="267.28" height="108.37" viewBox="0 0 267.28 108.37"><defs><style>.cls-1{fill:#fff;}</style></defs><g id="_字"><g><path class="cls-1" d="M93.66,67.1v4.28c-8.86,8.22-16.99,15-24.4,20.34-7.41,5.34-14.65,9.45-21.71,12.33-7.07,2.88-13.9,4.32-20.49,4.32-5.7,0-10.59-.95-14.67-2.83-4.09-1.89-7.17-4.65-9.25-8.27-2.08-3.63-3.12-7.92-3.12-12.89,0-3.91,.75-8.05,2.25-12.43,1.5-4.37,3.68-8.79,6.53-13.25,2.85-4.46,6.34-9.06,10.48-13.81,4.14-4.75,9-9.73,14.59-14.96,5.8-5.41,11.52-10.07,17.16-14.01,5.64-3.93,10.76-7.02,15.35-9.26,4.59-2.24,8.85-3.91,12.77-5.01,3.93-1.1,7.18-1.65,9.77-1.65s4.88,.53,6.72,1.58c1.85,1.05,3.27,2.59,4.27,4.61,1,2.02,1.5,4.35,1.5,6.99,0,4.97-2.03,10.49-6.09,16.58-4.06,6.09-9.12,11.96-15.19,17.63-6.06,5.67-11.85,10.29-17.36,13.88-5.51,3.58-9.48,5.37-11.9,5.37-1.64,0-3.15-.54-4.55-1.62-1.4-1.08-2.1-2.3-2.1-3.66,0-2.5,1.59-5.54,4.79-9.1,3.19-3.56,6.67-6.82,10.44-9.79,3.77-2.97,6.02-4.45,6.76-4.45,.37,0,.55,.13,.55,.4,0,.4-.28,1.08-.83,2.04-.55,.97-.83,1.56-.83,1.78,0,.35,.16,.53,.47,.53,.9,0,3.48-2,7.75-6,4.27-4,8.19-8.4,11.75-13.22,3.56-4.81,5.34-8.76,5.34-11.83,0-1.27-.33-2.25-.99-2.93-.66-.68-1.65-1.02-2.97-1.02-3.69,0-9.29,2.49-16.81,7.48-7.51,4.99-15.21,11.34-23.1,19.05-7.88,7.71-14.46,15.68-19.74,23.9-5.27,8.22-7.91,15.45-7.91,21.69,0,3.6,.65,6.61,1.94,9.03,1.29,2.42,3.19,4.28,5.7,5.6,2.5,1.32,5.52,1.98,9.06,1.98,7.65,0,16.32-2.48,26.02-7.45,9.7-4.97,20.38-12.28,32.04-21.95Z"/><path class="cls-1" d="M92.15,72.44v-4.28c2.85-2.81,5.01-5.21,6.49-7.18-1.69-.48-2.91-1.08-3.68-1.78-.77-.7-1.15-1.76-1.15-3.16,0-1.58,.79-3.58,2.37-6,1.58-2.42,3.53-4.68,5.85-6.79,2.32-2.11,4.43-3.47,6.33-4.09,.74-.31,1.45-.46,2.14-.46,1.05,0,1.58,.42,1.58,1.25,0,.75-.82,2.26-2.45,4.55,10.86-1.41,17.72-2.11,20.57-2.11,1.11,0,1.87,.09,2.29,.26,.9,.4,1.63,1.32,2.21,2.77,.58,1.45,.87,2.9,.87,4.35,0,.92-.49,1.92-1.46,3-.98,1.08-2.65,2.65-5.02,4.71-2.8,2.5-5.14,5.23-7.04,8.17-1.9,2.94-2.85,5.16-2.85,6.66,0,2.07,1.53,3.1,4.59,3.1,3.22,0,8.81-2.72,16.77-8.17v4.42c-4.38,3.82-7.99,6.83-10.84,9.03-2.85,2.2-5.49,3.94-7.91,5.24-2.43,1.3-4.59,1.94-6.49,1.94-2.21,0-4.06-.85-5.54-2.54-1.48-1.69-2.21-4.14-2.21-7.35,0-1.89,.58-4.04,1.74-6.46,1.16-2.42,2.86-5.04,5.1-7.88,2.24-2.84,4.76-5.66,7.55-8.47-1.48,.26-3.14,.54-4.98,.82-1.85,.29-3.8,.58-5.85,.89-2.06,.31-3.64,.55-4.75,.73-3.27,5.45-8.02,10.39-14.24,14.83Z"/><path class="cls-1" d="M152.9,69.74v1.65c0,2.59,.76,4.61,2.29,6.06,1.53,1.45,3.53,2.18,6.01,2.18s5.26-.5,8.03-1.52c2.77-1.01,5.52-2.35,8.27-4.02,2.74-1.67,6.09-3.91,10.05-6.72v4.02c-5.96,5.98-11.55,10.56-16.77,13.74-5.22,3.19-10.52,4.78-15.9,4.78-4.69,0-8.41-1.52-11.15-4.55-2.74-3.03-4.11-7.19-4.11-12.46,0-4.61,1.29-8.8,3.88-12.56,2.58-3.76,6.8-7.72,12.66-11.9,4.01-2.86,7.99-5.01,11.94-6.46,3.96-1.45,7.49-2.18,10.6-2.18,2.48,0,4.44,.47,5.89,1.42,1.45,.95,2.18,2.36,2.18,4.25,0,2.77-1.24,5.53-3.72,8.27-2.48,2.75-6.26,5.47-11.35,8.17-5.09,2.7-11.35,5.31-18.79,7.81Zm.79-4.28c4.75-1.54,8.81-3.45,12.18-5.73,3.37-2.28,5.87-4.47,7.48-6.56,1.61-2.09,2.41-3.61,2.41-4.58s-.55-1.52-1.66-1.52c-.95,0-2.49,.51-4.63,1.52-2.14,1.01-4.3,2.33-6.49,3.96-2.19,1.63-4.15,3.54-5.89,5.73-1.74,2.2-2.87,4.59-3.4,7.19Z"/><path class="cls-1" d="M228.92,75.15c0,1.98,.9,2.97,2.69,2.97,2.32,0,6.38-3.27,12.18-9.82-.21-1.23-.32-2.04-.32-2.44,0-2.37,1.13-5.27,3.4-8.7,2.27-3.43,4.88-6.42,7.83-8.96,2.95-2.55,5.19-3.82,6.72-3.82,1.85,0,2.77,1.85,2.77,5.54,0,3.03-.78,6.02-2.33,8.96-1.56,2.94-3.81,5.96-6.76,9.03,.47,.4,1,.8,1.58,1.22,.58,.42,1.2,.77,1.86,1.05,.66,.29,1.36,.43,2.1,.43,1.74,0,3.95-1.16,6.64-3.49v4.68c-4.17,3.6-7.78,5.41-10.84,5.41-1.79,0-3.2-.19-4.23-.56-1.03-.37-2.33-1.04-3.92-2.01-9.7,9.71-17.09,14.57-22.15,14.57-1.95,0-3.49-.6-4.63-1.81-1.13-1.21-1.7-2.89-1.7-5.04,0-1.05,.53-5.01,1.58-11.87-2.06,1.98-4.46,4.31-7.2,6.99-2.74,2.68-4.96,4.74-6.64,6.16-1.69,1.43-3.26,2.54-4.71,3.33-1.45,.79-2.91,1.19-4.39,1.19s-3.12-.75-5.1-2.24c-1.98-1.49-3.65-3.48-5.02-5.97-1.37-2.48-2.06-5.15-2.06-8.01s.47-5.14,1.42-7.12,3.11-4.94,6.49-8.9c3.06-3.52,5.77-6.39,8.15-8.64,2.37-2.24,4.52-3.98,6.45-5.21,1.92-1.23,3.49-1.85,4.71-1.85,.74,0,1.7,.14,2.89,.43,1.19,.29,2.24,.67,3.16,1.15,.92,.48,1.38,.99,1.38,1.52,0,1.67-.88,3.78-2.65,6.33-1.77,2.55-4.39,5.41-7.87,8.57-3.48,3.16-7.46,6.39-11.94,9.69-1.21,3.03-1.82,5.49-1.82,7.38,0,.62,.22,1.2,.67,1.75,.45,.55,.99,.82,1.62,.82,2.16,0,6.31-2.81,12.46-8.44,6.14-5.62,14.25-14.15,24.32-25.58,.37-.44,1.16-.66,2.37-.66,1.32,0,2.52,.24,3.6,.73,1.08,.48,1.62,1.14,1.62,1.98,0,.48-1.38,3.05-4.15,7.71-2.77,4.66-5.17,8.93-7.2,12.82-2.03,3.89-3.05,6.8-3.05,8.73Z"/></g></g></svg>