<?xml version="1.0" encoding="UTF-8"?><svg id="_イヤー_2" xmlns="http://www.w3.org/2000/svg" width="448.03" height="123" viewBox="0 0 448.03 123"><defs><style>.cls-1{fill:#fff;}</style></defs><g id="_字"><g><g><path class="cls-1" d="M12.87,30.12c-.06,.33,.22,.49,.83,.49,.42,0,2.4-.28,5.92-.84,3.52-.56,6.68-.86,9.47-.91-3.26,.84-6.09,1.68-8.49,2.54-2.39,.86-4.87,1.81-7.44,2.86-2.57,1.05-4.4,1.74-5.5,2.09-1.1,.35-2.03,.52-2.78,.52-2.41,0-3.34-1.53-2.8-4.6,1.39-7.9,4.4-13.46,9.03-16.66,1.88-1.3,4.81-2.85,8.78-4.64,3.97-1.79,8.4-3.49,13.29-5.09,4.89-1.6,10.19-2.99,15.92-4.15,5.73-1.16,11.28-1.74,16.66-1.74s10.46,.79,14.8,2.37c4.35,1.58,7.83,3.8,10.44,6.66,2.61,2.86,4.39,6.36,5.34,10.49,.94,4.14,.96,8.79,.05,13.95-1.39,7.86-5.03,15.48-10.94,22.87-5.9,7.39-13.19,13.91-21.86,19.56-8.67,5.65-18.1,10.12-28.31,13.42-10.21,3.3-19.99,4.95-29.33,4.95-1.75,0-3.09-.19-4.04-.56-.95-.37-1.54-1.1-1.77-2.2-.23-1.09-.16-2.71,.22-4.85,.47-2.65,1.06-4.81,1.78-6.48,.72-1.67,1.77-3.6,3.14-5.79,9.41-14.83,24.53-33.49,45.34-55.99-3.46,.37-7.32,1.08-11.56,2.13-4.24,1.04-8.29,2.2-12.15,3.45-3.86,1.25-7.14,2.46-9.84,3.62-2.71,1.16-4.11,2-4.2,2.51Zm39.88-12.13c-.02,.09-.02,.62,0,1.57,.02,.95-.03,1.78-.15,2.48-.19,1.07-1.01,2.57-2.46,4.5-1.45,1.93-4.24,5.36-8.36,10.28-4.13,4.93-7.67,9.25-10.64,12.97-2.97,3.72-6.55,8.51-10.75,14.36-1.32,1.86-2.23,3.12-2.72,3.77-.49,.65-1.28,1.72-2.37,3.21-1.09,1.49-1.92,2.77-2.48,3.83-.57,1.07-.9,1.88-1,2.44-.21,1.21,.31,2.06,1.57,2.54,1.26,.49,3.14,.73,5.64,.73,6.42,0,13.42-1.15,21-3.45,7.58-2.3,14.88-5.5,21.9-9.59,7.02-4.09,12.88-8.72,17.56-13.88,4.69-5.16,7.52-10.55,8.52-16.18,1.13-6.41-.38-11.35-4.54-14.82-4.16-3.46-10.79-5.19-19.9-5.19-3.82,0-7.44,.14-10.84,.42Z"/><path class="cls-1" d="M127.08,69.45l-.9,5.09c-5.6,5.81-10.65,10.19-15.13,13.14-4.49,2.95-8.12,4.43-10.9,4.43-3.87,0-6.4-2-7.58-6-1.18-4-1.36-8.37-.52-13.11,.32-1.81,.81-3.54,1.48-5.19,.67-1.65,1.36-3.01,2.06-4.08,.71-1.07,1.97-2.74,3.79-5.02,8.51-10.27,15.56-15.41,21.13-15.41,2.88,0,4.13,1.09,3.74,3.28-.26,1.49-1.6,3.81-4.03,6.97-2.42,3.16-4.48,5.41-6.18,6.76-4.8,3.91-7.95,6.62-9.47,8.16-1.52,1.53-2.45,3.28-2.8,5.23-.29,1.67,.1,3.07,1.17,4.18,1.08,1.12,2.63,1.67,4.66,1.67,2.22,0,4.8-.8,7.75-2.41,2.95-1.6,6.86-4.17,11.73-7.7Zm.68-31.17c-1.18,0-2.22-.44-3.13-1.32-.91-.88-1.24-2-1-3.35,.36-2.04,1.75-4.32,4.18-6.83,2.43-2.51,4.7-3.77,6.82-3.77,1.42,0,2.52,.43,3.31,1.29,.79,.86,1.04,2.1,.76,3.73-.35,2-1.71,4.21-4.07,6.62-2.36,2.42-4.65,3.62-6.87,3.62Z"/><path class="cls-1" d="M125.81,71.4l.3-1.67c14.41-12.64,24.35-21.5,29.82-26.57,2.05-5.72,5.05-8.58,9.02-8.58,.99,0,2,.28,3.04,.84l.19,1.33c-.29,.56-.52,1.35-.7,2.37-.16,.88-.1,2.52,.16,4.92,.26,2.39,.44,4.4,.53,6.03,.09,1.63-.04,3.46-.4,5.51-.54,3.07-1.77,6.01-3.68,8.82-1.91,2.81-4.44,5.51-7.59,8.09-3.15,2.58-7.08,5.22-11.8,7.91,1.65,.28,2.97,.42,3.96,.42,1.93,0,4.11-.48,6.52-1.43,2.41-.95,4.92-2.23,7.54-3.83,2.62-1.6,5.71-3.68,9.28-6.24l-.82,4.67c-7.07,5.81-13.25,10.21-18.54,13.21-5.3,3-9.67,4.5-13.11,4.5-4.44,0-8.22-1.86-11.34-5.58-1.83-2.23-2.83-4.37-3.01-6.42-.18-2.04,.03-4.81,.65-8.3Zm28.29-10.67l.52-10.18c-3.5,3.25-10.86,9.51-22.07,18.76,2.73,.6,4.52,1.42,5.37,2.44,.86,1.02,1.97,3,3.34,5.93,3.44-1.3,6.22-3.08,8.34-5.34,2.12-2.25,3.53-5.33,4.21-9.24,.08-.46,.14-.88,.19-1.25,.04-.37,.07-.74,.09-1.12Z"/><path class="cls-1" d="M214.28,69.58l-.82,4.67c-5.91,4.88-10.7,8.67-14.36,11.37-3.66,2.7-7,4.79-10.03,6.28-3.02,1.49-5.86,2.23-8.5,2.23s-4.8-1.01-6.62-3.03c-1.81-2.02-3.05-4.67-3.7-7.95-.65-3.28-.65-6.75,0-10.42,.56-3.16,1.76-5.97,3.61-8.44,1.85-2.46,5.15-5.65,9.9-9.55,5.63-4.65,10.74-8.24,15.32-10.77,4.58-2.53,8.04-3.8,10.4-3.8,1.7,0,3.04,.58,4.01,1.74,.97,1.16,1.31,2.63,1,4.39-.26,1.49-1.41,3.6-3.46,6.35-2.04,2.74-4.21,5.12-6.5,7.15-2.29,2.02-4,3.03-5.14,3.03-1.23,0-1.73-.65-1.5-1.95,.11-.37,.21-.72,.29-1.05,.08-.33,.15-.65,.21-.98,.1-.56-.05-.87-.44-.94-.39-.07-.9,.1-1.54,.52-5.29,3.25-8.93,5.54-10.91,6.87-1.98,1.32-3.6,2.66-4.85,4.01-1.25,1.35-2.01,2.77-2.27,4.25-.48,2.74,.02,4.97,1.51,6.69,1.49,1.72,3.67,2.58,6.55,2.58s6.75-1.13,11.32-3.38c4.57-2.25,10.08-5.54,16.5-9.87Z"/><path class="cls-1" d="M259.57,69.31l-.82,4.67c-3.61,2.79-6.44,4.65-8.49,5.58-2.05,.93-4.83,1.3-8.34,1.12-7.4,7.16-13.43,10.74-18.11,10.74-2.64,0-4.9-.86-6.77-2.58-1.87-1.72-3.19-4.07-3.96-7.04-.77-2.97-.84-6.3-.19-9.97,.52-2.97,2.11-6.28,4.75-9.9,2.64-3.63,5.84-7.01,9.58-10.15,3.74-3.14,7.6-5.67,11.57-7.6,3.97-1.93,7.52-2.89,10.63-2.89,2.22,0,3.91,.34,5.06,1.01,1.16,.67,1.63,1.62,1.41,2.82-.16,.93-.9,2-2.19,3.21,1.73,.37,2.85,.99,3.36,1.85,.51,.86,.56,2.43,.16,4.71-.39,2.23-1.42,5.04-3.08,8.44-1.66,3.39-3.67,6.58-6.04,9.55l1.05,1.25h1.06c.8,0,1.63-.2,2.48-.59,.85-.4,1.62-.81,2.31-1.25,.69-.44,2.21-1.43,4.56-2.96Zm-11.35-18.34c-4.33,2.33-8.05,4.43-11.17,6.31-3.12,1.88-5.81,3.79-8.09,5.72-2.28,1.93-3.92,3.87-4.92,5.82-2.1,5.21-3.18,8.02-3.26,8.44-.54,3.07,1.36,4.6,5.7,4.6,2.03,0,5.73-1.72,11.11-5.16-.42-2.18-.45-4.28-.1-6.28,.52-2.93,1.66-5.91,3.42-8.96,1.76-3.04,4.2-6.54,7.3-10.49Z"/><path class="cls-1" d="M268.65,69.58l-2.31,5.86c-.32,.74-.56,1.58-.73,2.51-.44,2.51,.4,3.77,2.52,3.77s7.65-3.9,16.86-11.71c.58-3.02,2.34-6.51,5.28-10.46,2.94-3.95,6.03-7.41,9.27-10.39,3.24-2.97,5.52-4.46,6.84-4.46,2.08,0,2.88,1.35,2.4,4.04-.29,1.63-1.04,3.62-2.26,5.96-1.22,2.35-2.84,4.88-4.88,7.6-2.04,2.72-4.44,5.52-7.22,8.4,.81,2.09,1.83,3.14,3.06,3.14,1.04,0,2.25-.36,3.62-1.08,1.38-.72,3.14-1.82,5.29-3.31l-.82,4.67c-3,2.05-5.34,3.44-7,4.18-1.67,.74-3.7,1.12-6.11,1.12-.94,0-2.53-.63-4.77-1.88-5.7,5.02-10.28,8.77-13.74,11.26-3.46,2.49-6.13,3.73-8.02,3.73-3.26,0-5.69-1.92-7.31-5.75-1.61-3.83-2.01-8.05-1.2-12.66,1.09-6.18,5.94-13.6,14.54-22.24,2.58-2.6,4.61-4.38,6.07-5.33,1.47-.95,3.02-1.43,4.68-1.43,1.42,0,2.72,.25,3.9,.77,1.18,.51,1.71,1.12,1.59,1.81-.41,2.33-2.59,5.73-6.54,10.21-3.95,4.49-8.3,8.38-13.03,11.68Z"/><path class="cls-1" d="M317.16,71.96l-.31,1.74c-.48,2.74-.18,4.88,.92,6.42,1.1,1.53,2.76,2.3,4.98,2.3s4.8-.53,7.47-1.6c2.67-1.07,5.38-2.49,8.15-4.25,2.76-1.77,6.18-4.14,10.25-7.11l-.75,4.25c-6.45,6.32-12.31,11.17-17.57,14.54-5.27,3.37-10.31,5.06-15.12,5.06-4.2,0-7.25-1.6-9.13-4.81-1.89-3.21-2.34-7.6-1.36-13.18,.86-4.88,2.8-9.31,5.81-13.28,3.01-3.97,7.53-8.17,13.55-12.59,4.12-3.02,8.09-5.3,11.9-6.83,3.81-1.53,7.11-2.3,9.89-2.3,2.22,0,3.89,.5,5.01,1.5,1.12,1,1.51,2.5,1.15,4.5-.52,2.93-2.14,5.85-4.87,8.75-2.73,2.91-6.62,5.79-11.68,8.65-5.06,2.86-11.15,5.61-18.27,8.26Zm1.51-4.53c4.53-1.63,8.52-3.65,11.97-6.07,3.45-2.42,6.08-4.73,7.91-6.94,1.83-2.21,2.83-3.82,3.01-4.85,.19-1.07-.21-1.6-1.2-1.6-.85,0-2.32,.53-4.42,1.6-2.1,1.07-4.28,2.46-6.54,4.18-2.26,1.72-4.38,3.74-6.35,6.07-1.97,2.32-3.43,4.86-4.38,7.6Z"/><path class="cls-1" d="M346.96,74.81l.8-4.53c3.07-2.97,5.45-5.51,7.15-7.6-1.42-.51-2.41-1.14-2.96-1.88-.55-.74-.7-1.86-.44-3.35,.29-1.67,1.37-3.79,3.24-6.34,1.87-2.56,4.03-4.95,6.51-7.18,2.47-2.23,4.61-3.67,6.43-4.32,.72-.32,1.38-.49,2-.49,.94,0,1.34,.44,1.18,1.33-.14,.79-1.15,2.39-3.04,4.81,9.99-1.49,16.25-2.23,18.8-2.23,.99,0,1.66,.09,2,.28,.73,.42,1.22,1.39,1.47,2.93,.25,1.53,.24,3.07-.03,4.6-.17,.98-.8,2.03-1.87,3.17-1.07,1.14-2.86,2.8-5.37,4.99-2.97,2.65-5.58,5.53-7.83,8.65-2.25,3.12-3.51,5.46-3.79,7.04-.39,2.19,.79,3.28,3.53,3.28,2.88,0,8.39-2.88,16.53-8.65l-.82,4.67c-4.63,4.04-8.43,7.23-11.38,9.55-2.96,2.33-5.64,4.17-8.06,5.54-2.41,1.37-4.47,2.06-6.17,2.06-1.98,0-3.48-.89-4.48-2.68-1.01-1.79-1.21-4.38-.61-7.77,.35-2,1.27-4.28,2.76-6.83,1.49-2.56,3.5-5.33,6.04-8.33,2.53-3,5.31-5.98,8.34-8.96-1.37,.28-2.91,.57-4.61,.87-1.71,.3-3.51,.62-5.41,.94-1.9,.33-3.36,.58-4.38,.77-3.94,5.76-9.11,10.99-15.51,15.69Z"/><path class="cls-1" d="M423.11,72.16l-14.46,10.53c-6.9,5.16-11.37,7.74-13.4,7.74-1.84,0-3.41-2.08-4.7-6.24-1.3-4.16-1.67-7.8-1.12-10.91,.47-2.65,1.28-4.89,2.43-6.73,1.15-1.84,3-4.22,5.54-7.15,3.58-3.95,6.93-7.3,10.05-10.04,3.13-2.74,5.84-4.87,8.13-6.38,2.3-1.51,3.84-2.27,4.65-2.27,1.27,0,2.4,.65,3.37,1.95,.97,1.3,1.34,2.65,1.09,4.04-.16,.88-1.06,2.3-2.7,4.25-1.64,1.95-4.13,4.43-7.47,7.43-3.34,3-7.88,6.59-13.62,10.77l-2.02,3.83c-.51,.74-.81,1.39-.91,1.95-.22,1.25,.31,1.88,1.58,1.88s4.72-1.65,10.18-4.95c5.47-3.3,11.55-7.74,18.24-13.32,2.6-2.18,4.78-4.11,6.54-5.79,1.76-1.67,3.36-3.24,4.79-4.71,1.44-1.46,2.61-2.57,3.52-3.31,.91-.74,1.68-1.14,2.3-1.19,1.2-.14,2.04,.35,2.5,1.46,.46,1.12,.5,2.77,.12,4.95-.22,1.26-1.06,2.82-2.53,4.71-1.46,1.88-4.15,5.09-8.07,9.62-3.91,4.53-7.85,9.23-11.79,14.08-3.95,4.86-8.06,10.33-12.35,16.42,.16-.14,1.86-1.53,5.09-4.18,3.23-2.65,6.63-5.42,10.21-8.3,3.58-2.88,6.51-5.19,8.8-6.94,2.29-1.74,5.13-3.78,8.51-6.1l-.82,4.67c-7.56,6.74-14.46,13.13-20.69,19.17-6.23,6.04-11.08,10.88-14.52,14.5-3.45,3.63-5.46,5.74-6.04,6.34-1.56,1.63-2.97,3.15-4.24,4.57-1.27,1.42-2.31,2.51-3.13,3.28-.82,.77-1.44,1.15-1.87,1.15-.99,0-1.71-.96-2.14-2.89-.44-1.93-.53-3.64-.26-5.12,.24-1.35,.71-2.53,1.41-3.56,4.73-7.53,14.66-20.62,29.79-39.26Z"/></g><g><path class="cls-1" d="M12.87,30.12c-.06,.33,.22,.49,.83,.49,.42,0,2.4-.28,5.92-.84,3.52-.56,6.68-.86,9.47-.91-3.26,.84-6.09,1.68-8.49,2.54-2.39,.86-4.87,1.81-7.44,2.86-2.57,1.05-4.4,1.74-5.5,2.09-1.1,.35-2.03,.52-2.78,.52-2.41,0-3.34-1.53-2.8-4.6,1.39-7.9,4.4-13.46,9.03-16.66,1.88-1.3,4.81-2.85,8.78-4.64,3.97-1.79,8.4-3.49,13.29-5.09,4.89-1.6,10.19-2.99,15.92-4.15,5.73-1.16,11.28-1.74,16.66-1.74s10.46,.79,14.8,2.37c4.35,1.58,7.83,3.8,10.44,6.66,2.61,2.86,4.39,6.36,5.34,10.49,.94,4.14,.96,8.79,.05,13.95-1.39,7.86-5.03,15.48-10.94,22.87-5.9,7.39-13.19,13.91-21.86,19.56-8.67,5.65-18.1,10.12-28.31,13.42-10.21,3.3-19.99,4.95-29.33,4.95-1.75,0-3.09-.19-4.04-.56-.95-.37-1.54-1.1-1.77-2.2-.23-1.09-.16-2.71,.22-4.85,.47-2.65,1.06-4.81,1.78-6.48,.72-1.67,1.77-3.6,3.14-5.79,9.41-14.83,24.53-33.49,45.34-55.99-3.46,.37-7.32,1.08-11.56,2.13-4.24,1.04-8.29,2.2-12.15,3.45-3.86,1.25-7.14,2.46-9.84,3.62-2.71,1.16-4.11,2-4.2,2.51Zm39.88-12.13c-.02,.09-.02,.62,0,1.57,.02,.95-.03,1.78-.15,2.48-.19,1.07-1.01,2.57-2.46,4.5-1.45,1.93-4.24,5.36-8.36,10.28-4.13,4.93-7.67,9.25-10.64,12.97-2.97,3.72-6.55,8.51-10.75,14.36-1.32,1.86-2.23,3.12-2.72,3.77-.49,.65-1.28,1.72-2.37,3.21-1.09,1.49-1.92,2.77-2.48,3.83-.57,1.07-.9,1.88-1,2.44-.21,1.21,.31,2.06,1.57,2.54,1.26,.49,3.14,.73,5.64,.73,6.42,0,13.42-1.15,21-3.45,7.58-2.3,14.88-5.5,21.9-9.59,7.02-4.09,12.88-8.72,17.56-13.88,4.69-5.16,7.52-10.55,8.52-16.18,1.13-6.41-.38-11.35-4.54-14.82-4.16-3.46-10.79-5.19-19.9-5.19-3.82,0-7.44,.14-10.84,.42Z"/><path class="cls-1" d="M127.08,69.45l-.9,5.09c-5.6,5.81-10.65,10.19-15.13,13.14-4.49,2.95-8.12,4.43-10.9,4.43-3.87,0-6.4-2-7.58-6-1.18-4-1.36-8.37-.52-13.11,.32-1.81,.81-3.54,1.48-5.19,.67-1.65,1.36-3.01,2.06-4.08,.71-1.07,1.97-2.74,3.79-5.02,8.51-10.27,15.56-15.41,21.13-15.41,2.88,0,4.13,1.09,3.74,3.28-.26,1.49-1.6,3.81-4.03,6.97-2.42,3.16-4.48,5.41-6.18,6.76-4.8,3.91-7.95,6.62-9.47,8.16-1.52,1.53-2.45,3.28-2.8,5.23-.29,1.67,.1,3.07,1.17,4.18,1.08,1.12,2.63,1.67,4.66,1.67,2.22,0,4.8-.8,7.75-2.41,2.95-1.6,6.86-4.17,11.73-7.7Zm.68-31.17c-1.18,0-2.22-.44-3.13-1.32-.91-.88-1.24-2-1-3.35,.36-2.04,1.75-4.32,4.18-6.83,2.43-2.51,4.7-3.77,6.82-3.77,1.42,0,2.52,.43,3.31,1.29,.79,.86,1.04,2.1,.76,3.73-.35,2-1.71,4.21-4.07,6.62-2.36,2.42-4.65,3.62-6.87,3.62Z"/><path class="cls-1" d="M125.81,71.4l.3-1.67c14.41-12.64,24.35-21.5,29.82-26.57,2.05-5.72,5.05-8.58,9.02-8.58,.99,0,2,.28,3.04,.84l.19,1.33c-.29,.56-.52,1.35-.7,2.37-.16,.88-.1,2.52,.16,4.92,.26,2.39,.44,4.4,.53,6.03,.09,1.63-.04,3.46-.4,5.51-.54,3.07-1.77,6.01-3.68,8.82-1.91,2.81-4.44,5.51-7.59,8.09-3.15,2.58-7.08,5.22-11.8,7.91,1.65,.28,2.97,.42,3.96,.42,1.93,0,4.11-.48,6.52-1.43,2.41-.95,4.92-2.23,7.54-3.83,2.62-1.6,5.71-3.68,9.28-6.24l-.82,4.67c-7.07,5.81-13.25,10.21-18.54,13.21-5.3,3-9.67,4.5-13.11,4.5-4.44,0-8.22-1.86-11.34-5.58-1.83-2.23-2.83-4.37-3.01-6.42-.18-2.04,.03-4.81,.65-8.3Zm28.29-10.67l.52-10.18c-3.5,3.25-10.86,9.51-22.07,18.76,2.73,.6,4.52,1.42,5.37,2.44,.86,1.02,1.97,3,3.34,5.93,3.44-1.3,6.22-3.08,8.34-5.34,2.12-2.25,3.53-5.33,4.21-9.24,.08-.46,.14-.88,.19-1.25,.04-.37,.07-.74,.09-1.12Z"/><path class="cls-1" d="M214.28,69.58l-.82,4.67c-5.91,4.88-10.7,8.67-14.36,11.37-3.66,2.7-7,4.79-10.03,6.28-3.02,1.49-5.86,2.23-8.5,2.23s-4.8-1.01-6.62-3.03c-1.81-2.02-3.05-4.67-3.7-7.95-.65-3.28-.65-6.75,0-10.42,.56-3.16,1.76-5.97,3.61-8.44,1.85-2.46,5.15-5.65,9.9-9.55,5.63-4.65,10.74-8.24,15.32-10.77,4.58-2.53,8.04-3.8,10.4-3.8,1.7,0,3.04,.58,4.01,1.74,.97,1.16,1.31,2.63,1,4.39-.26,1.49-1.41,3.6-3.46,6.35-2.04,2.74-4.21,5.12-6.5,7.15-2.29,2.02-4,3.03-5.14,3.03-1.23,0-1.73-.65-1.5-1.95,.11-.37,.21-.72,.29-1.05,.08-.33,.15-.65,.21-.98,.1-.56-.05-.87-.44-.94-.39-.07-.9,.1-1.54,.52-5.29,3.25-8.93,5.54-10.91,6.87-1.98,1.32-3.6,2.66-4.85,4.01-1.25,1.35-2.01,2.77-2.27,4.25-.48,2.74,.02,4.97,1.51,6.69,1.49,1.72,3.67,2.58,6.55,2.58s6.75-1.13,11.32-3.38c4.57-2.25,10.08-5.54,16.5-9.87Z"/><path class="cls-1" d="M259.57,69.31l-.82,4.67c-3.61,2.79-6.44,4.65-8.49,5.58-2.05,.93-4.83,1.3-8.34,1.12-7.4,7.16-13.43,10.74-18.11,10.74-2.64,0-4.9-.86-6.77-2.58-1.87-1.72-3.19-4.07-3.96-7.04-.77-2.97-.84-6.3-.19-9.97,.52-2.97,2.11-6.28,4.75-9.9,2.64-3.63,5.84-7.01,9.58-10.15,3.74-3.14,7.6-5.67,11.57-7.6,3.97-1.93,7.52-2.89,10.63-2.89,2.22,0,3.91,.34,5.06,1.01,1.16,.67,1.63,1.62,1.41,2.82-.16,.93-.9,2-2.19,3.21,1.73,.37,2.85,.99,3.36,1.85,.51,.86,.56,2.43,.16,4.71-.39,2.23-1.42,5.04-3.08,8.44-1.66,3.39-3.67,6.58-6.04,9.55l1.05,1.25h1.06c.8,0,1.63-.2,2.48-.59,.85-.4,1.62-.81,2.31-1.25,.69-.44,2.21-1.43,4.56-2.96Zm-11.35-18.34c-4.33,2.33-8.05,4.43-11.17,6.31-3.12,1.88-5.81,3.79-8.09,5.72-2.28,1.93-3.92,3.87-4.92,5.82-2.1,5.21-3.18,8.02-3.26,8.44-.54,3.07,1.36,4.6,5.7,4.6,2.03,0,5.73-1.72,11.11-5.16-.42-2.18-.45-4.28-.1-6.28,.52-2.93,1.66-5.91,3.42-8.96,1.76-3.04,4.2-6.54,7.3-10.49Z"/><path class="cls-1" d="M268.65,69.58l-2.31,5.86c-.32,.74-.56,1.58-.73,2.51-.44,2.51,.4,3.77,2.52,3.77s7.65-3.9,16.86-11.71c.58-3.02,2.34-6.51,5.28-10.46,2.94-3.95,6.03-7.41,9.27-10.39,3.24-2.97,5.52-4.46,6.84-4.46,2.08,0,2.88,1.35,2.4,4.04-.29,1.63-1.04,3.62-2.26,5.96-1.22,2.35-2.84,4.88-4.88,7.6-2.04,2.72-4.44,5.52-7.22,8.4,.81,2.09,1.83,3.14,3.06,3.14,1.04,0,2.25-.36,3.62-1.08,1.38-.72,3.14-1.82,5.29-3.31l-.82,4.67c-3,2.05-5.34,3.44-7,4.18-1.67,.74-3.7,1.12-6.11,1.12-.94,0-2.53-.63-4.77-1.88-5.7,5.02-10.28,8.77-13.74,11.26-3.46,2.49-6.13,3.73-8.02,3.73-3.26,0-5.69-1.92-7.31-5.75-1.61-3.83-2.01-8.05-1.2-12.66,1.09-6.18,5.94-13.6,14.54-22.24,2.58-2.6,4.61-4.38,6.07-5.33,1.47-.95,3.02-1.43,4.68-1.43,1.42,0,2.72,.25,3.9,.77,1.18,.51,1.71,1.12,1.59,1.81-.41,2.33-2.59,5.73-6.54,10.21-3.95,4.49-8.3,8.38-13.03,11.68Z"/><path class="cls-1" d="M317.16,71.96l-.31,1.74c-.48,2.74-.18,4.88,.92,6.42,1.1,1.53,2.76,2.3,4.98,2.3s4.8-.53,7.47-1.6c2.67-1.07,5.38-2.49,8.15-4.25,2.76-1.77,6.18-4.14,10.25-7.11l-.75,4.25c-6.45,6.32-12.31,11.17-17.57,14.54-5.27,3.37-10.31,5.06-15.12,5.06-4.2,0-7.25-1.6-9.13-4.81-1.89-3.21-2.34-7.6-1.36-13.18,.86-4.88,2.8-9.31,5.81-13.28,3.01-3.97,7.53-8.17,13.55-12.59,4.12-3.02,8.09-5.3,11.9-6.83,3.81-1.53,7.11-2.3,9.89-2.3,2.22,0,3.89,.5,5.01,1.5,1.12,1,1.51,2.5,1.15,4.5-.52,2.93-2.14,5.85-4.87,8.75-2.73,2.91-6.62,5.79-11.68,8.65-5.06,2.86-11.15,5.61-18.27,8.26Zm1.51-4.53c4.53-1.63,8.52-3.65,11.97-6.07,3.45-2.42,6.08-4.73,7.91-6.94,1.83-2.21,2.83-3.82,3.01-4.85,.19-1.07-.21-1.6-1.2-1.6-.85,0-2.32,.53-4.42,1.6-2.1,1.07-4.28,2.46-6.54,4.18-2.26,1.72-4.38,3.74-6.35,6.07-1.97,2.32-3.43,4.86-4.38,7.6Z"/><path class="cls-1" d="M346.96,74.81l.8-4.53c3.07-2.97,5.45-5.51,7.15-7.6-1.42-.51-2.41-1.14-2.96-1.88-.55-.74-.7-1.86-.44-3.35,.29-1.67,1.37-3.79,3.24-6.34,1.87-2.56,4.03-4.95,6.51-7.18,2.47-2.23,4.61-3.67,6.43-4.32,.72-.32,1.38-.49,2-.49,.94,0,1.34,.44,1.18,1.33-.14,.79-1.15,2.39-3.04,4.81,9.99-1.49,16.25-2.23,18.8-2.23,.99,0,1.66,.09,2,.28,.73,.42,1.22,1.39,1.47,2.93,.25,1.53,.24,3.07-.03,4.6-.17,.98-.8,2.03-1.87,3.17-1.07,1.14-2.86,2.8-5.37,4.99-2.97,2.65-5.58,5.53-7.83,8.65-2.25,3.12-3.51,5.46-3.79,7.04-.39,2.19,.79,3.28,3.53,3.28,2.88,0,8.39-2.88,16.53-8.65l-.82,4.67c-4.63,4.04-8.43,7.23-11.38,9.55-2.96,2.33-5.64,4.17-8.06,5.54-2.41,1.37-4.47,2.06-6.17,2.06-1.98,0-3.48-.89-4.48-2.68-1.01-1.79-1.21-4.38-.61-7.77,.35-2,1.27-4.28,2.76-6.83,1.49-2.56,3.5-5.33,6.04-8.33,2.53-3,5.31-5.98,8.34-8.96-1.37,.28-2.91,.57-4.61,.87-1.71,.3-3.51,.62-5.41,.94-1.9,.33-3.36,.58-4.38,.77-3.94,5.76-9.11,10.99-15.51,15.69Z"/><path class="cls-1" d="M423.11,72.16l-14.46,10.53c-6.9,5.16-11.37,7.74-13.4,7.74-1.84,0-3.41-2.08-4.7-6.24-1.3-4.16-1.67-7.8-1.12-10.91,.47-2.65,1.28-4.89,2.43-6.73,1.15-1.84,3-4.22,5.54-7.15,3.58-3.95,6.93-7.3,10.05-10.04,3.13-2.74,5.84-4.87,8.13-6.38,2.3-1.51,3.84-2.27,4.65-2.27,1.27,0,2.4,.65,3.37,1.95,.97,1.3,1.34,2.65,1.09,4.04-.16,.88-1.06,2.3-2.7,4.25-1.64,1.95-4.13,4.43-7.47,7.43-3.34,3-7.88,6.59-13.62,10.77l-2.02,3.83c-.51,.74-.81,1.39-.91,1.95-.22,1.25,.31,1.88,1.58,1.88s4.72-1.65,10.18-4.95c5.47-3.3,11.55-7.74,18.24-13.32,2.6-2.18,4.78-4.11,6.54-5.79,1.76-1.67,3.36-3.24,4.79-4.71,1.44-1.46,2.61-2.57,3.52-3.31,.91-.74,1.68-1.14,2.3-1.19,1.2-.14,2.04,.35,2.5,1.46,.46,1.12,.5,2.77,.12,4.95-.22,1.26-1.06,2.82-2.53,4.71-1.46,1.88-4.15,5.09-8.07,9.62-3.91,4.53-7.85,9.23-11.79,14.08-3.95,4.86-8.06,10.33-12.35,16.42,.16-.14,1.86-1.53,5.09-4.18,3.23-2.65,6.63-5.42,10.21-8.3,3.58-2.88,6.51-5.19,8.8-6.94,2.29-1.74,5.13-3.78,8.51-6.1l-.82,4.67c-7.56,6.74-14.46,13.13-20.69,19.17-6.23,6.04-11.08,10.88-14.52,14.5-3.45,3.63-5.46,5.74-6.04,6.34-1.56,1.63-2.97,3.15-4.24,4.57-1.27,1.42-2.31,2.51-3.13,3.28-.82,.77-1.44,1.15-1.87,1.15-.99,0-1.71-.96-2.14-2.89-.44-1.93-.53-3.64-.26-5.12,.24-1.35,.71-2.53,1.41-3.56,4.73-7.53,14.66-20.62,29.79-39.26Z"/></g></g></g></svg>