<?xml version="1.0" encoding="UTF-8"?><svg id="_イヤー_2" xmlns="http://www.w3.org/2000/svg" width="477.02" height="196.53" viewBox="0 0 477.02 196.53"><defs><style>.cls-1{fill:#fff;}</style></defs><g id="_字"><g><path class="cls-1" d="M104.55,151.08v3.81c-7.87,7.31-15.11,13.33-21.69,18.08-6.59,4.75-13.02,8.4-19.3,10.96-6.28,2.56-12.35,3.84-18.21,3.84-5.06,0-9.41-.84-13.04-2.52-3.63-1.68-6.37-4.13-8.23-7.35-1.85-3.22-2.78-7.04-2.78-11.46,0-3.48,.67-7.16,2-11.04,1.34-3.89,3.27-7.81,5.8-11.78,2.53-3.96,5.64-8.06,9.32-12.28,3.68-4.22,8-8.65,12.97-13.3,5.16-4.8,10.24-8.95,15.26-12.45,5.02-3.5,9.56-6.24,13.64-8.23,4.08-1.99,7.86-3.48,11.36-4.45,3.49-.98,6.39-1.46,8.68-1.46s4.33,.47,5.98,1.41c1.64,.94,2.91,2.31,3.8,4.1,.89,1.8,1.34,3.87,1.34,6.21,0,4.41-1.8,9.33-5.41,14.74-3.61,5.41-8.11,10.63-13.5,15.67-5.39,5.04-10.54,9.15-15.43,12.33-4.9,3.18-8.43,4.78-10.58,4.78-1.45,0-2.8-.48-4.04-1.44-1.24-.96-1.86-2.04-1.86-3.25,0-2.23,1.42-4.92,4.25-8.09,2.84-3.16,5.93-6.06,9.28-8.7,3.35-2.64,5.35-3.96,6.01-3.96,.33,0,.49,.12,.49,.35,0,.35-.25,.96-.74,1.82-.49,.86-.74,1.39-.74,1.58,0,.31,.14,.47,.42,.47,.8,0,3.09-1.78,6.89-5.33,3.8-3.55,7.28-7.47,10.44-11.75,3.16-4.28,4.75-7.78,4.75-10.52,0-1.13-.29-2-.88-2.61-.59-.6-1.47-.91-2.64-.91-3.28,0-8.26,2.22-14.94,6.65-6.68,4.43-13.52,10.08-20.53,16.93-7.01,6.86-12.86,13.94-17.54,21.24-4.69,7.31-7.03,13.73-7.03,19.28,0,3.2,.57,5.88,1.72,8.03,1.15,2.15,2.84,3.81,5.06,4.98,2.23,1.17,4.91,1.76,8.05,1.76,6.8,0,14.51-2.21,23.13-6.62,8.62-4.41,18.12-10.92,28.48-19.51Z"/><path class="cls-1" d="M154.92,148.88v4.42c-3.48,2.64-6.28,4.39-8.38,5.27-2.11,.88-5.14,1.23-9.1,1.05-6.86,6.77-12.89,10.15-18.11,10.15-2.95,0-5.64-.81-8.07-2.44-2.43-1.63-4.36-3.84-5.81-6.66-1.45-2.81-2.18-5.95-2.18-9.43,0-2.81,1.12-5.93,3.36-9.36,2.24-3.43,5.14-6.62,8.7-9.59,3.56-2.97,7.37-5.36,11.43-7.18,4.06-1.82,7.83-2.74,11.31-2.74,2.48,0,4.43,.32,5.85,.96,1.42,.64,2.14,1.53,2.14,2.67,0,.88-.61,1.89-1.82,3.03,2,.35,3.37,.93,4.11,1.75,.74,.81,1.11,2.3,1.11,4.45s-.59,4.77-1.78,7.98c-1.19,3.21-2.81,6.22-4.87,9.03l1.42,1.19h1.19c.9,0,1.78-.19,2.65-.56,.87-.37,1.65-.77,2.33-1.19,.68-.42,2.19-1.35,4.51-2.8Zm-16.29-17.34c-4.38,2.2-8.12,4.19-11.23,5.97-3.11,1.78-5.75,3.58-7.91,5.41-2.16,1.82-3.61,3.66-4.35,5.5-1.32,4.92-1.98,7.58-1.98,7.98,0,2.9,2.42,4.35,7.28,4.35,2.27,0,6.06-1.63,11.39-4.88-.9-2.06-1.34-4.04-1.34-5.93,0-2.77,.68-5.59,2.06-8.47,1.37-2.88,3.4-6.18,6.09-9.92Z"/><path class="cls-1" d="M190.91,158.04c7.28-5.36,13.53-10.03,18.75-14.01,5.22-3.98,9.32-7.11,12.3-9.39,2.98-2.28,5.6-4.22,7.87-5.8,2.27-1.58,3.72-2.37,4.35-2.37,1.21-.04,2.37,1,3.48,3.13,1.11,2.13,1.66,3.83,1.66,5.11,0,.84-1.67,2.8-5.02,5.9-3.35,3.1-5.85,5.57-7.52,7.42-1.66,1.85-2.49,3.78-2.49,5.8,0,1.19,.47,2.14,1.42,2.87,.95,.73,2.08,1.09,3.4,1.09,1.53,0,3.36-.66,5.5-1.98,2.13-1.32,5.5-3.67,10.08-7.05v4.68c-4.59,3.6-8.75,6.71-12.5,9.33-3.75,2.62-7,4.57-9.77,5.87-2.77,1.3-5.08,1.94-6.92,1.94-1.63,0-3.01-.52-4.11-1.55-1.11-1.03-1.66-2.32-1.66-3.86s.32-3.01,.95-4.55c.63-1.54,1.61-3.36,2.93-5.47,1.32-2.11,3.06-4.65,5.22-7.61,2.16-2.97,4.14-5.68,5.93-8.14-5.38,3.65-10.15,7.16-14.32,10.55-4.17,3.38-7.57,6.34-10.2,8.87-2.64,2.53-4.72,4.52-6.25,5.97-2.95,2.73-5.7,4.09-8.23,4.09-2.74,0-4.11-1.63-4.11-4.88,0-1.32,1.03-3.68,3.08-7.09,2.06-3.41,4.98-7.75,8.78-13.02,.32-.35,.47-.9,.47-1.65,0-.88-.53-1.32-1.58-1.32-1.16,0-2.83,.91-5.02,2.74-2.19,1.82-6.42,5.64-12.7,11.44-1.74,1.63-3.71,3.75-5.89,6.36-2.19,2.62-3.76,4.36-4.71,5.24-.95,.88-1.9,1.32-2.85,1.32-1.9,0-3.67-1.41-5.3-4.22-1.63-2.81-2.45-6.09-2.45-9.82,0-2.72,.54-5.08,1.62-7.05,1.08-1.98,2.76-4.44,5.02-7.38,3.53-4.26,6.42-7.31,8.66-9.13,2.24-1.82,4.6-2.74,7.08-2.74,1.53,0,2.82,.25,3.88,.76,1.05,.51,1.58,1.2,1.58,2.08,0,.92-.96,2.44-2.89,4.55-1.93,2.11-4.36,4.28-7.32,6.53-1.58,1.27-3.08,2.85-4.51,4.71-1.42,1.87-2.14,3.22-2.14,4.05,0,1.19,.55,1.78,1.66,1.78,.9,0,3.16-1.54,6.8-4.61,3.64-3.08,7.63-6.43,11.98-10.05,4.35-3.62,8.38-6.63,12.1-9.03,3.72-2.4,6.87-3.59,9.45-3.59,1.58,0,2.89,.49,3.92,1.48,1.03,.99,1.54,2.21,1.54,3.66,0,.97-.79,2.71-2.37,5.24-1.58,2.53-3.89,5.65-6.92,9.36-3.03,3.71-6.95,8.21-11.75,13.48Z"/><path class="cls-1" d="M243.2,154.54v-4.61c7.38-6.68,13.75-12.96,19.1-18.85,5.35-5.89,9.58-10.57,12.7-14.04,3.11-3.47,5.85-5.92,8.23-7.35,2.37-1.43,5.35-2.14,8.94-2.14,1.79,0,2.69,.57,2.69,1.71,0,.92-.73,2.29-2.17,4.09-1.45,1.8-3.31,3.65-5.58,5.54-3.01,2.46-5.95,5.55-8.82,9.26-2.87,3.71-6.13,8.45-9.77,14.21,2.85-1.85,6.13-4.03,9.85-6.56,3.72-2.53,6.75-4.5,9.1-5.93,2.35-1.43,4.67-2.56,6.96-3.4,2.29-.83,4.6-1.25,6.92-1.25,1.48,0,2.44,.22,2.89,.66,.45,.44,.67,1.3,.67,2.57,0,3.34-.98,6.6-2.93,9.79-1.95,3.19-4.75,6.49-8.38,9.92-3.64,3.43-8.12,7.16-13.45,11.21,1.85,.57,3.74,.86,5.7,.86,6.12,0,14.32-3.89,24.6-11.67v4.75c-4.01,2.99-7.92,5.8-11.75,8.44-3.82,2.64-7.42,4.75-10.8,6.33-3.37,1.58-6.49,2.37-9.33,2.37-1.06,0-2.17-.1-3.36-.3-1.19-.2-2.28-.44-3.28-.72-1-.29-2.29-.69-3.88-1.22-1.58-.53-2.8-.9-3.64-1.12-1.69,.35-2.64,.53-2.85,.53-1.85,0-4.01-.61-6.49-1.85-1.74,2.81-3.65,6.45-5.73,10.91-2.08,4.46-3.84,8.01-5.26,10.65-1.42,2.64-3.32,5.16-5.7,7.58-1.32,1.1-2.24,1.65-2.77,1.65-2.27,0-3.4-1.67-3.4-5.01,0-2.9,.7-5.92,2.1-9.06,1.4-3.14,3.11-6.12,5.14-8.93,2.03-2.81,4.26-5.66,6.68-8.54,2.42-2.88,4.14-5.02,5.14-6.43,8.33-11.95,14.82-22.13,19.46-30.52-12.13,12.31-21.31,21.14-27.53,26.5Zm32.12,3.23c5.22-4.57,9.11-8.46,11.67-11.67,2.56-3.21,3.84-5.67,3.84-7.38,0-1.63-.98-2.44-2.93-2.44-2.64,0-6.34,1.81-11.11,5.44-4.77,3.62-9.69,8.51-14.75,14.67,3.9-.35,6.51-.47,7.83-.36,1.32,.11,3.14,.69,5.46,1.75Z"/><path class="cls-1" d="M319.14,137.21c8.02-6.06,15.79-10.57,23.33-13.51,7.54-2.94,13.37-4.42,17.48-4.42,1.11,0,2.14,.39,3.08,1.15,.95,.77,1.7,1.66,2.25,2.67,.55,1.01,.83,1.76,.83,2.24,0,.79-.37,1.37-1.11,1.75-.74,.37-2.03,.82-3.88,1.35,.37,.7,.84,1.6,1.42,2.7,.58,1.1,1.03,1.99,1.34,2.67,.32,.68,.47,1.29,.47,1.81,0,1.05-1.28,3.02-3.84,5.9-2.56,2.88-4.35,5-5.38,6.36-1.03,1.36-1.54,3.03-1.54,5.01,0,3.25,1.79,4.88,5.38,4.88s9.46-2.88,17.32-8.64v4.02c-13.34,12.35-22.89,18.52-28.63,18.52-2.06,0-3.52-.56-4.39-1.68-.87-1.12-1.3-2.78-1.3-4.98,0-3.47,1.5-8.5,4.51-15.1-7.7,7.12-13.42,12.18-17.17,15.19-3.75,3.01-6.83,4.52-9.25,4.52-1.16,0-2.61-.83-4.35-2.5-1.74-1.67-3.28-3.83-4.63-6.49-1.35-2.66-2.02-5.42-2.02-8.27,0-2.06,.24-3.79,.71-5.17,.47-1.38,1.4-2.8,2.77-4.25,1.37-1.45,3.56-3.36,6.57-5.73Zm37.89-7.25c-13.71,5.23-23.48,9.67-29.31,13.32-5.83,3.65-8.74,7.41-8.74,11.27,0,1.41,.29,2.56,.87,3.46,.58,.9,1.37,1.35,2.37,1.35,.58,0,1.61-.31,3.08-.92,5.54-2.72,10.6-6.27,15.19-10.65,4.59-4.37,10.1-10.32,16.53-17.83Z"/><path class="cls-1" d="M375.3,150.85v-1.58c13.61-11.95,22.97-20.32,28.08-25.11,1.16-5.41,3.96-8.11,8.38-8.11,1.11,0,2.29,.26,3.56,.79l.47,1.25c-.21,.53-.32,1.27-.32,2.24,0,.84,.38,2.38,1.15,4.65,.76,2.26,1.36,4.16,1.78,5.7,.42,1.54,.63,3.27,.63,5.21,0,2.9-.79,5.68-2.37,8.34-1.58,2.66-3.88,5.21-6.88,7.65-3.01,2.44-6.88,4.93-11.63,7.48,1.9,.26,3.4,.4,4.51,.4,2.16,0,4.5-.45,7-1.35,2.5-.9,5.06-2.11,7.67-3.62,2.61-1.52,5.66-3.48,9.14-5.9v4.42c-6.75,5.49-12.79,9.66-18.11,12.49-5.33,2.83-9.91,4.25-13.76,4.25-4.96,0-9.54-1.76-13.76-5.27-2.48-2.11-4.02-4.13-4.63-6.06-.61-1.93-.91-4.55-.91-7.84Zm29.5-10.09l-1.42-9.62c-3.27,3.08-10.26,8.99-20.96,17.73,3.16,.57,5.33,1.34,6.49,2.31,1.16,.97,2.79,2.83,4.9,5.6,3.59-1.23,6.34-2.91,8.27-5.04,1.92-2.13,2.89-5.04,2.89-8.73,0-.44-.01-.83-.04-1.19-.03-.35-.07-.7-.12-1.05Z"/><path class="cls-1" d="M425.85,150.85v-1.58c13.61-11.95,22.97-20.32,28.08-25.11,1.16-5.41,3.96-8.11,8.38-8.11,1.11,0,2.29,.26,3.56,.79l.47,1.25c-.21,.53-.32,1.27-.32,2.24,0,.84,.38,2.38,1.15,4.65,.76,2.26,1.36,4.16,1.78,5.7,.42,1.54,.63,3.27,.63,5.21,0,2.9-.79,5.68-2.37,8.34-1.58,2.66-3.88,5.21-6.88,7.65-3.01,2.44-6.88,4.93-11.63,7.48,1.9,.26,3.4,.4,4.51,.4,2.16,0,4.5-.45,7-1.35,2.5-.9,5.06-2.11,7.67-3.62,2.61-1.52,5.66-3.48,9.14-5.9v4.42c-6.75,5.49-12.79,9.66-18.11,12.49-5.33,2.83-9.91,4.25-13.76,4.25-4.96,0-9.54-1.76-13.76-5.27-2.48-2.11-4.02-4.13-4.63-6.06-.61-1.93-.91-4.55-.91-7.84Zm29.5-10.09l-1.42-9.62c-3.27,3.08-10.26,8.99-20.96,17.73,3.16,.57,5.33,1.34,6.49,2.31,1.16,.97,2.79,2.83,4.9,5.6,3.59-1.23,6.34-2.91,8.27-5.04,1.92-2.13,2.89-5.04,2.89-8.73,0-.44-.01-.83-.04-1.19-.03-.35-.07-.7-.12-1.05Z"/></g><g><path class="cls-1" d="M54.74,17.53c1.42-.31,2.86-.61,4.31-.92,1.45-.31,2.93-.57,4.43-.79,1.5-.22,2.97-.33,4.39-.33,3.06,0,5.68,.57,7.87,1.71,2.19,1.14,3.82,2.69,4.9,4.65,1.08,1.96,1.62,4.08,1.62,6.36,0,3.56-.78,7.64-2.33,12.23-1.56,4.59-3.78,9.26-6.68,14.01-2.9,4.75-6.3,9.23-10.2,13.45-5.33,5.71-11.72,10.32-19.18,13.81-7.46,3.49-14.3,5.24-20.53,5.24-4.59,0-8.64-1.04-12.14-3.13-3.51-2.09-6.25-5.12-8.23-9.1-1.98-3.98-2.97-8.65-2.97-14.01,0-7.21,2.36-14.42,7.08-21.65,4.72-7.23,10.68-13.78,17.88-19.64,7.2-5.87,14.46-10.57,21.79-14.11C54.08,1.77,60.04,0,64.63,0c3.74,0,6.62,.96,8.62,2.87,2,1.91,3.88,5,5.62,9.26-4.9,.13-9.18,.63-12.81,1.48-3.64,.86-7.41,2.16-11.31,3.92Zm-19.93,13.38c-3.69,3.3-7.42,7.55-11.19,12.76-3.77,5.21-6.82,10.32-9.14,15.33-2.32,5.01-3.48,8.83-3.48,11.47,0,6.55,3.66,9.82,11,9.82,5.11,0,11.72-2.88,19.81-8.64,8.09-5.76,15.13-12.69,21.12-20.8,5.98-8.11,8.98-15.48,8.98-22.12,0-4.88-2.32-7.32-6.96-7.32-3.59,0-7.96,1.19-13.13,3.56-5.17,2.37-10.12,5.73-14.87,10.09-1.69,1.58-5.04,5.45-10.05,11.6,.95-4.13,3.59-9.38,7.91-15.75Z"/><path class="cls-1" d="M108.86,59.92c-7.65,8.44-13.46,14.44-17.44,18-3.98,3.56-7.24,5.34-9.77,5.34-2,0-3.85-.69-5.54-2.08-1.69-1.38-2.99-3.25-3.92-5.6-.92-2.35-1.38-4.87-1.38-7.55,0-1.76,.2-3.34,.59-4.75,.39-1.41,1.15-2.96,2.25-4.65,1.11-1.69,2.57-3.53,4.39-5.5,1.82-1.98,4.05-4.22,6.68-6.72,1.58-1.54,2.91-2.83,3.99-3.89,1.08-1.05,2.14-1.77,3.16-2.14,1.03-.37,2.7-.56,5.02-.56,1.69,0,3.29,.19,4.83,.56,1.53,.37,2.29,.76,2.29,1.15,0,.79-.78,2.22-2.33,4.28-1.56,2.07-4.06,4.58-7.51,7.55-3.46,2.97-7.45,5.88-11.98,8.73-1,2.59-1.5,4.57-1.5,5.93,0,1.89,.87,2.83,2.61,2.83,.63,0,1.69-.45,3.16-1.35,1.48-.9,3.97-2.64,7.47-5.21,3.51-2.57,6.66-4.84,9.45-6.82,2.06-1.49,4.44-3.72,7.16-6.69,2.72-2.97,4.92-5.2,6.61-6.69,3.9-3.43,6.57-5.66,7.99-6.69,1.42-1.03,2.79-1.55,4.11-1.55s2.12,.33,2.57,.99c.45,.66,.67,2,.67,4.02,0,.92-.11,1.67-.32,2.24-.21,.57-.65,1.31-1.3,2.21-.66,.9-1.99,2.56-4,4.98-2,2.42-4.38,5.27-7.12,8.57-1.48,1.76-2.77,3.68-3.88,5.77-1.11,2.09-1.66,3.66-1.66,4.71,0,2.29,1.08,3.43,3.24,3.43,1.79,0,3.88-.61,6.25-1.85,2.37-1.23,6.01-3.45,10.92-6.66v4.42c-6.17,4.75-10.73,8.2-13.68,10.35-2.95,2.15-5.51,3.78-7.67,4.88-2.16,1.1-4.22,1.65-6.17,1.65-4.43,0-6.64-2.2-6.64-6.59,0-1.67,.66-3.92,1.98-6.76,1.32-2.83,3.45-6.93,6.41-12.29Z"/><path class="cls-1" d="M133.14,69.48v-4.28c2.85-2.81,5.01-5.21,6.49-7.18-1.69-.48-2.91-1.08-3.68-1.78-.77-.7-1.15-1.76-1.15-3.16,0-1.58,.79-3.58,2.37-6,1.58-2.42,3.53-4.68,5.85-6.79,2.32-2.11,4.43-3.47,6.33-4.09,.74-.31,1.45-.46,2.14-.46,1.05,0,1.58,.42,1.58,1.25,0,.75-.82,2.26-2.45,4.55,10.86-1.41,17.72-2.11,20.57-2.11,1.11,0,1.87,.09,2.29,.26,.9,.4,1.63,1.32,2.21,2.77,.58,1.45,.87,2.9,.87,4.35,0,.92-.49,1.92-1.46,3-.98,1.08-2.65,2.65-5.02,4.71-2.8,2.5-5.14,5.23-7.04,8.17-1.9,2.94-2.85,5.16-2.85,6.66,0,2.07,1.53,3.1,4.59,3.1,3.22,0,8.81-2.72,16.77-8.17v4.42c-4.38,3.82-7.99,6.83-10.84,9.03-2.85,2.2-5.49,3.94-7.91,5.24-2.43,1.3-4.59,1.94-6.49,1.94-2.21,0-4.06-.85-5.54-2.54-1.48-1.69-2.21-4.14-2.21-7.35,0-1.89,.58-4.04,1.74-6.46,1.16-2.42,2.86-5.04,5.1-7.88,2.24-2.83,4.76-5.66,7.55-8.47-1.48,.26-3.14,.54-4.98,.82-1.85,.29-3.8,.58-5.85,.89-2.06,.31-3.64,.55-4.75,.73-3.27,5.45-8.02,10.39-14.24,14.83Z"/></g></g></svg>