<svg id="レイヤー_1" data-name="レイヤー 1" xmlns="http://www.w3.org/2000/svg" viewBox="0 0 330.874 86.141"><defs><style>.cls-1{fill:#ff64a5;stroke:#ff64a5;stroke-miterlimit:10;stroke-width:0.371px;}</style></defs><path class="cls-1" d="M21.52,18.732c1.357,0,1.335-1.357,1.335-2.4a13.835,13.835,0,0,0-.267-2.559,21.322,21.322,0,0,1-8.431,5.7l-.913-1.29A19.809,19.809,0,0,0,22.165,12.3c-.177-.356-.378-.734-.578-1.068a22.609,22.609,0,0,1-7.164,4.605l-.912-1.268a19.263,19.263,0,0,0,7.364-4.382L20.1,9.3a21.794,21.794,0,0,1-5.918,2.871l-.846-1.224a20.9,20.9,0,0,0,7.253-3.671H16.225V5.94H28.261V7.275H24.368a20.221,20.221,0,0,0,1.646,4.16,20.583,20.583,0,0,0,3.2-3.181l1.313,1A28.975,28.975,0,0,1,26.7,12.614a17.3,17.3,0,0,0,4.649,4.7l-1.179,1.535A22.377,22.377,0,0,1,22.966,7.275h-.378c-.445.423-.979.868-1.446,1.246a10.364,10.364,0,0,1,3.226,7.742,7.413,7.413,0,0,1-.423,2.892,2.176,2.176,0,0,1-2.2,1.068,17.284,17.284,0,0,1-2.157-.156l-.29-1.624A10.885,10.885,0,0,0,21.52,18.732ZM29.151,4.205H15.335V7.052H13.756v-4.2h7.609V.2h1.624V2.848h7.719v4.2H29.151Z"/><path class="cls-1" d="M42.121,8.1A2.8,2.8,0,0,1,45.1,10.167c1.157-.489,2.291-.935,3.893-1.58l.645,1.447c-1.624.645-3,1.2-4.2,1.735v3.293h-1.6v-2.67c-1.846.979-4.472,2.225-3.782,4.115.534,1.469,3.025,1.38,3.849,1.38a38.113,38.113,0,0,0,4.249-.356l.067,1.579a35.108,35.108,0,0,1-4.405.356c-2.937.023-4.628-.734-5.273-2.224-1.357-3.248,2.6-5.1,5.117-6.474a1.459,1.459,0,0,0-1.535-1.224h-2.8l.645-4.872H36.092V3.159h4.093l.356-2.67H42.21l-.378,2.67h5.651V4.672H41.609L41.164,8.1Z"/><path class="cls-1" d="M60.052,16.708l1.357.845a25.522,25.522,0,0,1-6.185,2.959l-1.134-1.4A19.834,19.834,0,0,0,60.052,16.708ZM71.02,1.357V6.34H55.313V1.357ZM69.64,7.608v8.966H56.693V7.608ZM56.826,2.559v2.6h3.249v-2.6Zm1.4,6.229v1.4h9.878v-1.4Zm0,2.536v1.4h9.878v-1.4Zm0,2.536v1.491h9.878V13.86Zm3.27-11.3v2.6h3.248v-2.6ZM64.635,17.62l1.357-.934A44.321,44.321,0,0,1,72,18.955L70.708,20.29h-.044A31.671,31.671,0,0,0,64.635,17.62ZM69.507,5.162v-2.6H66.17v2.6Z"/><path class="cls-1" d="M81.587,18.51c1.09-.957,2.069-1.869,3.048-2.87,1.468-1.446,3.07-3.181,2.915-5.584a2.535,2.535,0,0,0-2.87-2.514H77.649V5.962H84.68c2.469,0,4.093,1.246,4.494,3.337a7,7,0,0,1,.111,1.8c-.267,2.914-1.8,4.182-6.43,8.543Zm-1.8-16.93L80.831.245A9.361,9.361,0,0,0,87.06,1.958V3.649C83.567,3.649,82.255,3.2,79.785,1.58Z"/><path class="cls-1" d="M98.673,17.064c-1.246-1.4-1.157-3.249-.934-4.828h1.712c-.267,1.825-.088,2.981.512,3.782.579.668,1.713,1,3.315,1h7.253v1.669h-7.253C101.1,18.688,99.607,18.154,98.673,17.064Zm.2-13.66.868-1.446c2.625,1.579,3.493,1.757,10.523,1.757V5.406C103.211,5.406,101.9,5.228,98.873,3.4Z"/><path class="cls-1" d="M125.258,19.022c-1.713-.023-5.561.066-6.719-2.759-1.067-2.714.712-4.472,3.938-6.563V.979h1.691v7.7c1.446-.978,2.737-1.757,4.917-3.048l.889,1.358-4.137,2.425c-4.116,2.447-6.5,4.093-5.7,6.162.623,1.713,3.16,1.825,4.694,1.869a37.864,37.864,0,0,0,5.807-.356v1.557A33.177,33.177,0,0,1,125.258,19.022Z"/><path class="cls-1" d="M144.457,8.1a2.8,2.8,0,0,1,2.981,2.069c1.158-.489,2.292-.935,3.894-1.58l.645,1.447c-1.624.645-3,1.2-4.205,1.735v3.293h-1.6v-2.67c-1.846.979-4.471,2.225-3.782,4.115.534,1.469,3.026,1.38,3.849,1.38a38.11,38.11,0,0,0,4.25-.356l.066,1.579a35.108,35.108,0,0,1-4.405.356c-2.936.023-4.627-.734-5.273-2.224-1.357-3.248,2.6-5.1,5.117-6.474a1.458,1.458,0,0,0-1.535-1.224h-2.8l.645-4.872h-3.87V3.159h4.093l.356-2.67h1.668l-.378,2.67h5.651V4.672h-5.873L143.5,8.1Z"/><path class="cls-1" d="M164.146,4.516H168v1.6h-4.071v.067q-.267,1.869-.467,3.871h4v1.6H163.3c-.044.445-.089,1.179-.089,1.846a4.71,4.71,0,0,0,1.6,3.916c1.557,1.067,4.427.823,5.384-1.135.8-1.624.155-3.493-.512-5.072l1.491-.668c.845,1.98,1.6,4.494.356,6.608a5.451,5.451,0,0,1-8.655.489,6.721,6.721,0,0,1-1.29-4.138c0-.667.045-1.4.089-1.846h-2.959v-1.6h3.115c.111-1.224.289-2.67.445-3.938h-2.826v-1.6H162.5l.6-3.937h1.6l-.2,1.49C164.391,2.87,164.258,3.671,164.146,4.516Z"/><path class="cls-1" d="M192.4,12.258c-.089,2.336-2.425,5.651-7.653,5.651h-1.312V16.263h1.312c2.425,0,5.829-1.268,5.94-4.049.089-2.4-1.557-3.092-3.893-3.092H180.12V7.5h6.674C190.309,7.5,192.512,9.122,192.4,12.258Z"/><path class="cls-1" d="M207.128,19.022c-1.713-.023-5.562.066-6.719-2.759-1.068-2.714.712-4.472,3.938-6.563V.979h1.691v7.7c1.446-.978,2.736-1.757,4.916-3.048l.89,1.358-4.138,2.425c-4.115,2.447-6.5,4.093-5.695,6.162.623,1.713,3.159,1.825,4.694,1.869a37.872,37.872,0,0,0,5.807-.356v1.557A33.177,33.177,0,0,1,207.128,19.022Z"/><path class="cls-1" d="M231.845,16.374h-1.514V.245h5.74V1.8h-4.226Z"/><path class="cls-1" d="M246.149.245l1.8.378c-.245.957-.556,1.98-.89,2.914h6.83V20.223h-1.579V18.91h-9.878v1.313h-1.558V3.537h4.583A29.509,29.509,0,0,0,246.149.245Zm-3.715,4.672V8.143h9.878V4.917Zm0,4.561V12.7h9.878V9.478Zm0,4.56v3.493h9.878V14.038Z"/><path class="cls-1" d="M275.693,4.45V19.889h-1.668V18.554H261.678v1.335h-1.669V4.45h6.941V.779h1.691V4.45ZM261.678,5.94v4.627h5.294V5.94Zm0,6.074v5.05h5.294v-5.05Zm6.94-6.074v4.627h5.407V5.94Zm0,6.074v5.05h5.407v-5.05Z"/><path class="cls-1" d="M279.186,18.621h4.227V4.027h1.513V20.178h-5.74Z"/><path class="cls-1" d="M304.77,17.909l-1.357,1c-1.468-1.957-1.691-2.558-1.691-5.317V2.425h1.6V13.593C303.324,16.218,303.524,16.352,304.77,17.909Zm6.83-1.468h4.872v1.624h-4.983c-3.4,0-4.4-2.136-4.072-5.628h1.691C308.864,15.262,309.308,16.441,311.6,16.441ZM308.107,4.494h7.831V6.163h-7.831Z"/><path class="cls-1" d="M67.883,47.741c-.156,2.092,1.313,2.982,3.381,2.982a16.4,16.4,0,0,0,1.98-.156V52.1a17.548,17.548,0,0,1-1.98.178c-3.047,0-5.228-1.513-5-4.65.133-1.936,1.779-3.67,3.515-5.3H61.565V41h3.8l5.139-5.028H64.613v-1.4h8.543v1.023L67.594,41H76.2v1.334H71.932C69.729,44.382,68.016,46.006,67.883,47.741Z"/><path class="cls-1" d="M82.655,51.879,81.142,51.1c2.825-5.161,3.648-6.608,3.738-12.259H81.631v-1.49H84.88v-3.76h1.735v3.76h3.626v1.49H86.593C86.5,44.961,85.48,46.718,82.655,51.879Zm6.274-3.826V47.23H90.6v.823c0,1.691,2.024,1.8,3.96,1.8h2.2v1.58H94.6C91.62,51.435,88.929,50.945,88.929,48.053ZM96.4,41.4v1.491H89.552V41.4Zm-3.071-2.536H92.021V35.417h1.312Zm2.759.022H94.78V35.439h1.312Z"/><path class="cls-1" d="M117.049,43.47a6.469,6.469,0,0,1-3.337,5.228c-1.8,1.113-3.8,1.669-7.253,1.669V48.7c4.405,0,8.677-1.669,8.832-5.3.112-3-2.024-3.982-5.072-3.982h-8.054V37.73h8.054C114.624,37.73,117.182,39.71,117.049,43.47Z"/><path class="cls-1" d="M136.092,37.886c0,6.563-3.137,9.455-9.366,14.06l-1.179-1.335c6.185-4.561,8.588-7.1,8.721-12.325H123.122V36.551h12.97Zm2-.979a2.331,2.331,0,0,1-2.359-2.292,2.347,2.347,0,1,1,4.694,0A2.326,2.326,0,0,1,138.1,36.907Zm0-3.671a1.382,1.382,0,0,0-1.357,1.379,1.363,1.363,0,0,0,1.357,1.358,1.4,1.4,0,0,0,1.379-1.358A1.448,1.448,0,0,0,138.1,33.236Z"/><path class="cls-1" d="M143.634,50.812V36.6H157.6V50.812ZM145.347,38.2V49.232h10.545V38.2Z"/><path class="cls-1" d="M171,35.817v1.735H165.28V35.817Zm-5.718,5.917V40.066H171v1.668Zm12.793.913c-2.336,4.738-4.294,8.832-10.657,8.832h-1.624V49.855h1.624c5.206,0,6.763-3.4,9.033-7.942.623-1.2,1.089-2.292,1.089-2.292l1.58.734S178.317,42.135,178.073,42.647ZM176.6,38.753h-1.268V35.327H176.6Zm2.781.022h-1.268V35.35h1.268Z"/><path class="cls-1" d="M196.983,39.866v1.491h-4.561v7.208h5.94v1.512H184.746V48.565h5.94V41.357h-4.56V39.866Z"/><path class="cls-1" d="M216.716,38.887h-5.428c-.935,1.758-2.247,3.093-5.162,5.139L205.1,42.691c5.362-3.826,5.384-5.784,5.384-8.788h1.779a11.772,11.772,0,0,1-.333,3.36H218.5v1.512c0,4.717-3.026,8.477-10.99,13.438l-.979-1.4C213.846,46.206,216.627,42.914,216.716,38.887Z"/><path class="cls-1" d="M238.919,45.205l-.979,1.446a63.983,63.983,0,0,0-7.342-4.516V52.1h-1.713V33.9H230.6v6.541A71.162,71.162,0,0,1,238.919,45.205Z"/><path class="cls-1" d="M248.485,50.166l-1.29,1c-1.869-2.336-1.758-3.048-1.758-5.028V35.594h1.6V46.028C247.039,47.964,246.928,48.186,248.485,50.166Zm9.433-1.8c-.112,2.181-1.268,3.071-3.182,3.071a5.031,5.031,0,0,1-2-.4,2.632,2.632,0,0,1-1.713-3.2c.556-1.513,2.18-1.846,3.448-1.846a10.686,10.686,0,0,1,1.825.178V39.554h-5.829V38.042h5.829V33.9h1.646v4.139h3.226v1.512H257.94v7.208a22.4,22.4,0,0,1,3.96,2.426l-.912,1.245C259.23,49.188,258.585,48.787,257.918,48.364Zm-3.338-.845a2.149,2.149,0,0,0-1.935.69c-.4.689.311,1.356.979,1.579a4,4,0,0,0,1.112.178c1.424,0,1.558-.623,1.558-1.936v-.311A7.9,7.9,0,0,0,254.58,47.519Z"/><path class="cls-1" d="M263.279,48.431l1.424-1.223a25.591,25.591,0,0,1,3.76,4.293L266.9,52.836A22.272,22.272,0,0,0,263.279,48.431Z"/><path class="cls-1" d="M.185,77V69.453h1.78V77c0,3.782.445,3.938,3.048,5.717l-1,1.4C.675,81.823.185,81.044.185,77Zm10.879-5.3,1.4-1c2.648,3.026,2.8,4,2.8,7.342v2.581H13.49V78.041C13.49,74.7,13.356,74.3,11.064,71.7Z"/><path class="cls-1" d="M30.664,82.69A3.854,3.854,0,0,0,32.822,78.6c-.289-1.513-2-2.225-3.426-2.358a12.933,12.933,0,0,0-6.719,1.846L21.7,77.04l7.875-8.187H22.811V67.362h9.21v1.179l-6.852,7.052a9.43,9.43,0,0,1,4.316-.8c2.025.155,4.538,1.112,5.028,3.47A5.287,5.287,0,0,1,31.42,84.07c-2.336,1.09-4.672.778-7.185.267V82.8C26.659,83.336,28.951,83.514,30.664,82.69Z"/><path class="cls-1" d="M41.12,77V69.453H42.9V77c0,3.782.445,3.938,3.048,5.717l-1,1.4C41.61,81.823,41.12,81.044,41.12,77ZM52,71.7l1.4-1c2.647,3.026,2.8,4,2.8,7.342v2.581H54.424V78.041C54.424,74.7,54.29,74.3,52,71.7Z"/><path class="cls-1" d="M71.6,82.69A3.855,3.855,0,0,0,73.757,78.6c-.29-1.513-2-2.225-3.427-2.358a12.927,12.927,0,0,0-6.718,1.846l-.979-1.045,7.876-8.187H63.745V67.362h9.211v1.179L66.1,75.593a9.432,9.432,0,0,1,4.316-.8c2.025.155,4.539,1.112,5.029,3.47a5.287,5.287,0,0,1-3.093,5.807c-2.336,1.09-4.672.778-7.186.267V82.8C67.594,83.336,69.886,83.514,71.6,82.69Z"/><path class="cls-1" d="M84.858,70.855H82.1V69.3h3.27c.334-1.2.623-2.313.8-2.914l1.6.378c-.134.445-.378,1.4-.69,2.536h2.959v1.558H86.593a56.005,56.005,0,0,1-4.316,10.456l-1.468-.823A51.96,51.96,0,0,0,84.858,70.855Zm8.61,6.429v2.781a26.277,26.277,0,0,1,4.2,2.158l-.8,1.357a30.527,30.527,0,0,0-3.4-1.869c.022,2.225-1.158,3.2-3.226,3.2s-4.628-1.424-3.827-3.715c.356-.979,1.4-1.646,2.959-1.824a6.541,6.541,0,0,1,2.514.178V77.218A4.107,4.107,0,0,1,92.911,74.1c-2.335,0-2.847.222-4.182,1.068l-.823-1.2a6.657,6.657,0,0,1,3.96-1.178l5,.088V74.17H95.359C94.224,74.17,93.423,75.149,93.468,77.284ZM90.13,80.8a4.69,4.69,0,0,0-1.4.223,1.122,1.122,0,0,0-.868,1c.022,1.179,2,1.4,2.425,1.4,1.357,0,1.691-.712,1.691-1.913v-.423A6.835,6.835,0,0,0,90.13,80.8Z"/><path class="cls-1" d="M111.71,74.948a4.807,4.807,0,0,1,3.849,1.558,4.861,4.861,0,0,1-.178,6.452c-1.557,1.646-4.227,1.579-5.7,1.534V83c2,.044,3.6-.267,4.428-1.157a3.278,3.278,0,0,0,.178-4.249,3.6,3.6,0,0,0-2.915-1.224,7.78,7.78,0,0,0-3.626.935v4.516a2.55,2.55,0,0,1-.912,2.18,2.461,2.461,0,0,1-2.292.156,3.566,3.566,0,0,1-2.269-3.115,3.5,3.5,0,0,1,1.068-2.558,12.47,12.47,0,0,1,2.781-2.047V71.567h-3.382V70.009h3.382V67.1h1.624v2.914h3.07v1.558h-3.07v4.249A8.811,8.811,0,0,1,111.71,74.948Zm-7.676,5.407a1.933,1.933,0,0,0,1.091,2.335c.779.29,1-.066,1-.823V78.174A4.487,4.487,0,0,0,104.034,80.355Zm7.943-7.32v-1.49c3.292,0,3.982.178,5.718,2.024l-1.246,1.046C115.18,73.324,115.025,73.035,111.977,73.035Z"/><path class="cls-1" d="M138.763,82.8h-1.58a5.215,5.215,0,0,0-5.028-5.117c1.491,2.4,1.491,4.249.378,5.517-1.513,1.847-3.937,1.513-6.541.934l.334-1.379c2.937.623,4.205.423,4.984-.489,1.157-1.469-.4-3.649-1-4.494-3.292.556-5.784,3.07-7.541,5.028l-1.09-1.135c1.868-2,4.449-4.427,7.808-5.184-.244-.422-1.223-1.824-1.223-1.824-1.535-2.18-.757-4,1.624-4.917l-2.2-1.69.957-1.2,5.5,4.272-.934,1.2-2.047-1.579c-2.314.756-2.47,1.735-1.557,3.136l1.624,2.381C135.536,75.86,138.429,78.775,138.763,82.8Z"/><path class="cls-1" d="M144.147,84.626l-1.513-.779c2.825-5.161,3.649-6.607,3.737-12.258h-3.337V70.1h3.337V66.338h1.736V70.1H152v1.49h-3.916C148,77.707,146.972,79.464,144.147,84.626ZM150.42,80.8v-.823h1.669V80.8c0,1.691,2.025,1.8,3.96,1.8h2.2v1.579h-2.157C153.112,84.181,150.42,83.691,150.42,80.8Zm7.475-6.651v1.49h-6.852v-1.49Z"/><path class="cls-1" d="M172.846,67.273c2.491.356,3.826,2.38,3.826,6.34a14.413,14.413,0,0,1-1.29,6.83,21.648,21.648,0,0,1-3.449,4.539l-1.268-1.112a18.331,18.331,0,0,0,3.115-4.094,12.363,12.363,0,0,0,1.179-6.163c0-2.914-.868-4.716-2.336-4.894-1.424-.267-2.536,1.446-3.515,3.337a15.2,15.2,0,0,0-1.869,6.14h-1.491V67.229h1.58V72.9C168.4,69.631,170.309,66.917,172.846,67.273Z"/><path class="cls-1" d="M182.745,81.467l-.912-1.647a25.272,25.272,0,0,0,3.248-7.986h-2.825v-1.4h3.026V65.738h1.468v4.694h2.336v1.4H186.75v2.581a25.036,25.036,0,0,1,2.714,3.047l-.89,1.58c-.6-1-1.224-1.935-1.824-2.759v9.433h-1.468V75.237A27.945,27.945,0,0,1,182.745,81.467ZM193.4,79.62l.289,1.38a25.22,25.22,0,0,1-4.6,3.159l-.735-1.491h.023A25.887,25.887,0,0,0,193.4,79.62Zm.423,6.118a18.752,18.752,0,0,1-2.292-.178l-.223-1.579a10.516,10.516,0,0,0,2,.245c.4,0,.667-.179.667-.623V75.972h-5.094V74.681h5.094V73.124h-4V71.878h4V70.365h-4.761v-1.29h6.341a28.4,28.4,0,0,0,1.4-3.337l1.624.556a28.041,28.041,0,0,1-1.468,2.781h3.315v1.29h-4.983v1.513h4.16v1.246h-4.16v1.557h5.472v1.291h-5.25a16.09,16.09,0,0,0,1.446,3.07,12.55,12.55,0,0,0,1.913-2.581l1.335.912a23.834,23.834,0,0,1-2.469,2.714,13.86,13.86,0,0,0,3.337,3l-.979,1.446a15.394,15.394,0,0,1-4.8-6.029v5.651C195.449,85.4,195.07,85.738,193.825,85.738Zm-3.983-8.075,1-.957a14.426,14.426,0,0,1,2.314,2.2l-1.068,1.046h-.044A14.288,14.288,0,0,0,189.842,77.663Zm.912-11.258,1.357-.645a12.942,12.942,0,0,1,1.491,2.514l-1.357.756H192.2A11.538,11.538,0,0,0,190.754,66.405Z"/><path class="cls-1" d="M211.422,73.591A2.8,2.8,0,0,1,214.4,75.66c1.157-.489,2.291-.934,3.893-1.579l.645,1.446c-1.624.645-3,1.2-4.2,1.735v3.293h-1.6v-2.67c-1.847.979-4.472,2.225-3.782,4.116.534,1.468,3.025,1.379,3.848,1.379a38.11,38.11,0,0,0,4.25-.356l.066,1.58a35.266,35.266,0,0,1-4.4.356c-2.937.022-4.628-.734-5.273-2.225-1.357-3.248,2.6-5.095,5.117-6.474a1.459,1.459,0,0,0-1.535-1.224h-2.8l.646-4.872h-3.871V68.652h4.093l.356-2.67h1.669l-.378,2.67h5.651v1.513H210.91l-.445,3.426Z"/><path class="cls-1" d="M226.55,74.036c0,4-.045,7.92-2.069,11.547l-1.246-1.4c1.6-2.937,1.713-6.341,1.713-9.611V68.853h7.52V65.938h1.646v2.915h7.341v1.49h-14.9Zm1.824,1.936,1.535.423a28.03,28.03,0,0,1-1.847,7.586l-1.424-.957A25.186,25.186,0,0,0,228.374,75.972Zm4.605,7.586a5.588,5.588,0,0,0,1.491.156c.422,0,1.535-.023,1.846-.4a14.546,14.546,0,0,0,.356-3.694l1.6.467c-.045.735-.134,3.76-.578,4.339-.579.778-2.359.823-3.226.823a7.852,7.852,0,0,1-2.67-.378,1.319,1.319,0,0,1-.667-1.246v-8.9h1.512v7.986C232.645,83.024,232.69,83.4,232.979,83.558Zm-1.424-11.546,1.068-1.068a25.976,25.976,0,0,1,3.582,3.426l-1.134,1.223h-.045A20.364,20.364,0,0,0,231.555,72.012Zm5.584,4,1.38-.8a41.786,41.786,0,0,1,3.515,6.964l-1.446,1h-.045A41.411,41.411,0,0,0,237.139,76.016Z"/><path class="cls-1" d="M247.8,77.307h.022v6.829c0,1.246-.49,1.58-1.736,1.58a13.281,13.281,0,0,1-1.913-.133l-.267-1.6a10.414,10.414,0,0,0,1.8.2.569.569,0,0,0,.645-.623V77.907c-.623.223-1.29.49-1.913.69l-.556.178-.512-1.446q1.5-.433,3-1h-.023V71.656H243.68V70.21h2.669V65.716h1.469V70.21h2.291v1.446h-2.291v4.116c.712-.29,1.446-.6,2.158-.913l.133,1.4C249.353,76.639,248.574,76.973,247.8,77.307Zm10.5,5.183a15.843,15.843,0,0,0,4.339,1.691l-.957,1.379a14.4,14.4,0,0,1-4.36-2.113,14.8,14.8,0,0,1-4.406,2.469l-.889-1.334a12.029,12.029,0,0,0,4.182-1.958,13.7,13.7,0,0,1-2.514-3,15.42,15.42,0,0,1-3.648,6.1l-.935-1.2A14.815,14.815,0,0,0,253,76.572h-2.625V75.237H253.2a3.689,3.689,0,0,1,.045-.489c.045-.378.089-.823.111-1.2h-2.714V72.256h7.12a24.907,24.907,0,0,0,1.779-4.182l1.6.623a29.826,29.826,0,0,1-1.824,3.559h2.314v1.291h-6.853c-.044.556-.044,1.134-.133,1.69H262.3v1.335h-7.853c-.089.512-.179,1.024-.312,1.513h5.829l.778.69A14.324,14.324,0,0,1,258.3,82.49ZM250.6,68.5l-.579-1.335h.023a40.238,40.238,0,0,0,9.989-1.29l1.268,1.29A71.2,71.2,0,0,1,250.6,68.5Zm.712.689,1.334-.511a10.247,10.247,0,0,1,1.514,2.936l-1.447.534h-.044A9.5,9.5,0,0,0,251.311,69.186Zm3.159-.445,1.446-.489a15.655,15.655,0,0,1,1.268,3.226l-1.424.556h-.022A14.816,14.816,0,0,0,254.47,68.741Zm2.714,12.97a11.013,11.013,0,0,0,1.646-2.335h-3.893A12.425,12.425,0,0,0,257.184,81.711Z"/><path class="cls-1" d="M272.912,84.759a4.3,4.3,0,0,1-4.538-4.694V67.273h1.758V80.065c0,1.825.823,3.093,2.714,3.093,1.757,0,4.227-.979,6.985-4.628l1.2,1.09C278.408,83.158,275.6,84.759,272.912,84.759Z"/><path class="cls-1" d="M295.338,81.044c-.067,2.447-1.046,3.626-3.4,3.626-2.425,0-4.806-1.446-3.983-3.893.356-1.023,1.469-1.713,3.071-1.913a7.993,7.993,0,0,1,2.692.089V75.06h-5.5V73.547h5.5V70.188h-5.785V68.652h5.785V66.005h1.624v2.647h5.183v1.536h-5.183v3.359h4.849V75.06h-4.849v4.36a20.009,20.009,0,0,1,5.5,3.048l-.979,1.268A19.512,19.512,0,0,0,295.338,81.044Zm-4.094-.489c-.689.089-1.535.423-1.668,1.045-.223.935,1.2,1.491,2.358,1.491,1.624,0,1.8-.8,1.78-2.4A7.481,7.481,0,0,0,291.244,80.555Z"/><path class="cls-1" d="M317.273,70.877V77.6c.089,4-.022,4.583-3.4,7.987l-1.223-1.068c2.447-2.381,2.87-2.937,3.07-4.539a2.142,2.142,0,0,1-1.78.556c-2-.111-3.27-1.757-3.092-3.937a3.4,3.4,0,0,1,3.381-3.426,2.006,2.006,0,0,1,1.38.4V70.877H306.06v-1.49h9.545V66.561h1.668v2.826h5.161v1.49Zm-4.827,5.851c-.089.957.267,2.225,1.535,2.269,1.29.045,1.735-1,1.8-2,.088-1.2-.468-2.291-1.646-2.291C313,74.7,312.513,75.772,312.446,76.728Z"/><path class="cls-1" d="M329.131,80.2a2.747,2.747,0,0,1,1.557,2.6,2.816,2.816,0,0,1-.334,1.334,2.78,2.78,0,0,1-2.625,1.625,2.978,2.978,0,0,1-1.4-.357,2.758,2.758,0,0,1-1.557-2.625,2.921,2.921,0,0,1,.912-2.113,2.95,2.95,0,0,1,3.449-.467Zm-2.648,1.245A1.741,1.741,0,0,0,325.9,82.8a1.948,1.948,0,0,0,.156.778,1.728,1.728,0,0,0,1.668,1.046,1.772,1.772,0,0,0,.957-.267,1.844,1.844,0,0,0-.133-3.2,1.786,1.786,0,0,0-.824-.177A1.713,1.713,0,0,0,326.483,81.444Z"/></svg>