<svg id="レイヤー_1" data-name="レイヤー 1" xmlns="http://www.w3.org/2000/svg" viewBox="0 0 424 33"><defs><style>.cls-1{fill:#ff64a5;}</style></defs><path class="cls-1" d="M7.956,2.538h9.823V5.077H8.442c-3.288,0-5.454.261-5.454,4.18V24.376c0,4.07,2.054,4.107,5.454,4.107h9.337v2.576H7.956C3.511,31.059,0,29.827,0,24.787V8.847C0,3.77,3.511,2.538,7.956,2.538Z"/><path class="cls-1" d="M41.982,9.22V24.451c0,5.712-4.482,6.608-7.1,6.608H29.507c-2.615,0-7.06-.9-7.06-6.608V9.22c0-5.748,4.445-6.682,7.06-6.682h5.378C37.5,2.538,41.982,3.472,41.982,9.22ZM34.96,5.188H29.507c-2.876,0-4.035,1.307-4.035,4.032V24.451c0,4,2.691,4.032,4.035,4.032h5.416c1.344,0,4.033-.037,4.033-4.032V9.22C38.956,6.458,37.836,5.188,34.96,5.188Z"/><path class="cls-1" d="M68.725,31.059H64.691L51.58,6.943V31.059H48.593V2.538h3.66L65.7,27.4V2.538h3.026Z"/><path class="cls-1" d="M83.216,2.538H93.04V5.077H83.7c-3.287,0-5.453.261-5.453,4.18V24.376c0,4.07,2.054,4.107,5.453,4.107H93.04v2.576H83.216c-4.445,0-7.955-1.232-7.955-6.272V8.847C75.261,3.77,78.771,2.538,83.216,2.538Z"/><path class="cls-1" d="M116.5,5.077h-15.65V15.118h13.3v2.427h-13.3V28.52H116.5v2.539H97.932V2.538H116.5Z"/><path class="cls-1" d="M140.549,9.183v3.546c0,5.488-3.959,6.683-7.1,6.683H123.89V31.059h-2.95V2.538h12.512C136.59,2.538,140.549,3.7,140.549,9.183Zm-7.1-4.106h-9.6V16.836h9.637c2.577,0,4.033-1.6,4.033-4.256V9.333C137.523,6.682,136.067,5.077,133.452,5.077Z"/><path class="cls-1" d="M162.511,5.077H154V31.059h-2.913V5.04h-8.516v-2.5h19.945Z"/><path class="cls-1" d="M210.432,31.059h-2.988V6.719l-8.292,16.015h-2.5L188.4,6.719v24.34h-2.988V2.538h3.922l8.59,16.8,8.442-16.8h4.071Z"/><path class="cls-1" d="M236.578,9.22V24.451c0,5.712-4.482,6.608-7.1,6.608H224.1c-2.615,0-7.06-.9-7.06-6.608V9.22c0-5.748,4.445-6.682,7.06-6.682h5.378C232.1,2.538,236.578,3.472,236.578,9.22Zm-7.023-4.032H224.1c-2.877,0-4.035,1.307-4.035,4.032V24.451c0,4,2.69,4.032,4.035,4.032h5.415c1.345,0,4.034-.037,4.034-4.032V9.22C233.552,6.458,232.431,5.188,229.555,5.188Z"/><path class="cls-1" d="M250.733,31.059,241.022,2.612h3.249l8.629,25.8,8.477-25.8h3.251L254.99,31.059Z"/><path class="cls-1" d="M272.284,31.059H269.3V2.538h2.988Z"/><path class="cls-1" d="M297.645,5.077H282V15.118h13.3v2.427H282V28.52h15.65v2.539H279.081V2.538h18.564Z"/><path class="cls-1" d="M329.914,1.268l2.728.86c-1.831,6.308-4.857,12.393-9.9,16.873l-2.091-2.091A30.147,30.147,0,0,0,329.914,1.268Zm4.109,10.341,2.839.9A121.815,121.815,0,0,1,330.326,28c3.473-.225,6.947-.56,10.42-.934l2.988-.336c-1.531-2.314-3.175-4.7-4.892-6.906l2.2-1.381a137.573,137.573,0,0,1,8.628,12.1l-2.614,1.643-1.942-3.286a218.526,218.526,0,0,1-21.738,2.539l-.9-2.912c.486-.037,1.046-.037,1.532-.074,1.12-.037,2.242-.076,3.4-.224h-.037A123.208,123.208,0,0,0,334.023,11.609Zm4.034-9.781L340.6.9a35.495,35.495,0,0,0,10.981,14.522l-1.942,2.463h-.075A44.147,44.147,0,0,1,338.057,1.828Z"/><path class="cls-1" d="M359.086,33V1.157h12.736V12.319H361.7V33ZM361.7,3.248v2.5h7.733v-2.5Zm0,4.4V10.3h7.733V7.652Zm16.36,15.829v7.84h-2.427v-7.84h-4.371a10.464,10.464,0,0,1-5.341,8.735l-1.643-1.9a7.791,7.791,0,0,0,4.556-6.831h-5.415V21.315h5.453V17.171H364.5V15.118h17.705v2.053h-4.258v4.144h5.341v2.166Zm-2.54-2.166V17.171H371.3v4.144Zm9,11.461a25.773,25.773,0,0,1-4.146-.261L380,29.752a17.856,17.856,0,0,0,3.885.411c.71,0,1.083-.373,1.083-1.157V12.319H374.586V1.157h12.961V29.939C387.547,32.179,386.8,32.776,384.521,32.776ZM376.976,3.248v2.5h7.993v-2.5Zm0,4.4V10.3h7.993V7.652Z"/><path class="cls-1" d="M424,7.353V23.816h-2.8V21.091H412.01V33h-2.876V21.091h-9V24h-2.8V7.353h11.8V0h2.876V7.353ZM400.134,9.78v8.885h9V9.78ZM421.2,18.665V9.78H412.01v8.885Z"/></svg>