<svg id="レイヤー_1" data-name="レイヤー 1" xmlns="http://www.w3.org/2000/svg" width="369" viewBox="0 0 246 100"><defs><style>.cls-1{fill:#e9e5d8;}.cls-2{fill:#fff;}.cls-3{fill:#231815;}.cls-4,.cls-6{fill:#008ded;}.cls-5{fill:#ffef00;}.cls-6,.cls-7{stroke:#008ded;stroke-linecap:round;stroke-linejoin:round;}.cls-6{stroke-width:0.244px;}.cls-7{fill:none;stroke-width:0.975px;}.cls-8{fill:#e63828;}.cls-9{fill:#fff88b;}.cls-10{fill:#ba8865;}</style></defs><rect class="cls-1" width="246" height="100"/><path class="cls-2" d="M230.484,28.035a15.02,15.02,0,0,1-15.148,14.8H103.688a15.02,15.02,0,0,1-15.148-14.8,15.021,15.021,0,0,1,15.148-14.8H215.336A15.02,15.02,0,0,1,230.484,28.035Z"/><path class="cls-3" d="M105.558,30.005a31.9,31.9,0,0,1-3.2,7.815l-2.4-2.814a24.354,24.354,0,0,0,3.028-6.625ZM101.8,22.752a21.933,21.933,0,0,1,3.4,2.122L103.417,27.6a15.788,15.788,0,0,0-3.352-2.339Zm.368-5.5a16.769,16.769,0,0,1,3.59,2.143l-1.882,2.641a13.494,13.494,0,0,0-3.417-2.316Zm9.342.108h3.158v1.148H120.4V20.76h-5.732v.78h5.256v1.818h-5.256v.8h6.164v2.425H105.3V24.159h6.206v-.8h-5.082V21.54h5.082v-.78h-5.623V18.509h5.623Zm8.111,9.894v8.6c0,1.256-.65,2.014-2.141,2.014h-3.807l-.541-2.707h2.553c.735,0,.735-.086.735-.887h-6.791v3.594h-3.158V27.255Zm-9.992,1.927v.8h6.791v-.8Zm0,2.49v.822h6.791v-.822Z"/><path class="cls-3" d="M131.073,18.877a21.78,21.78,0,0,1-5.472,4.957l-1.881-2.619a14.132,14.132,0,0,0,4.909-3.984Zm1.124,2.966h3.5a9.979,9.979,0,0,0,.346-1.083H131.2V17.989h13.365V20.76h-5.147a7.661,7.661,0,0,1-.389,1.083h4.758V33.512h-2.964a14.159,14.159,0,0,0,4.11,1.71l-1.449,2.706a18.221,18.221,0,0,1-5.234-2.814l1.449-1.6h-4.758l1.449,1.645a15.014,15.014,0,0,1-5.623,2.837l-1.384-2.75a16.507,16.507,0,0,0,4.607-1.732h-1.8V31.2a21.945,21.945,0,0,1-6.747,6.712l-1.708-2.88a18.394,18.394,0,0,0,6.293-6.04l2.162,1.84Zm-.281,2.662a23.809,23.809,0,0,1-6.423,5.586l-1.665-2.684a19.756,19.756,0,0,0,5.9-4.785Zm3.331-.367V25.2h5.407v-1.06Zm0,2.922V28.1h5.407V27.06Zm0,2.966v1.191h5.407V30.026Z"/><path class="cls-3" d="M156.438,17.275h3.416v1.84h8.608v3.226H159.79v1.58h7.18V34.053a2.046,2.046,0,0,1-2.054,2.251h-3.4l-.649-3.4h2.357c.433,0,.433-.152.433-.542V27H159.79V37.907h-3.331V27h-3.7v9.418h-3.309V23.921h7.007v-1.58H147.83V19.115h8.608Z"/><path class="cls-4" d="M171.506,30.113c1.06-.2,3.137-.8,4-1.061v-4.5h-.974a13.045,13.045,0,0,1-.886,3.723L171.4,26.129c.6-1.861.886-3.291.908-7.447l2.53.065c0,.887,0,1.8-.043,2.641h.714V17.34h3.114v4.048h1.341v3.161h-1.341v3.507c.216-.065,1.276-.411,1.406-.454v3.247c-.3.13-.476.217-1.406.563v6.495h-3.114V32.473c-1,.324-2.7.866-3.547,1.06Zm10.858.974h-1.991V28.056h6.856V26.627h-7.006v-3.1h4.238v-1.58h-3.568V19.007h3.568V17.34h3.266v1.667h3.85v2.944h-3.85v1.58h4.455v3.1h-1.708v1.429h1.513v3.031h-1.513v4.179c0,1.493-.087,2.641-2.271,2.641h-3.742l-.476-2.836-1.189.714a16.455,16.455,0,0,0-2.509-3.507Zm2.227,3.616H186.6c.627,0,.627-.39.627-.8V31.087h-3.741a15.535,15.535,0,0,1,2.206,2.966Z"/><path class="cls-4" d="M214.756,37.561a19.6,19.6,0,0,1-7.44-3.486V37.82h-3.2V34.14a21.122,21.122,0,0,1-7.374,3.377l-1.558-3.139a17.883,17.883,0,0,0,6.164-1.667h-5.818V30.069h8.586V29.2h-6.337V24.4c-.41.368-.6.52-1.015.866l-1.58-2.922a11.816,11.816,0,0,0,4.045-5.066l3.46.259c-.151.325-.324.715-.649,1.321h2.855a6.607,6.607,0,0,0,.5-1.58l3.353.151a9.394,9.394,0,0,1-.606,1.429h6.6v2.338H207.77v.866h6.337v1.472H207.77v.91h6.337v1.472H207.77v.909h7.592V29.2H207.3v.866H215.9v2.642h-5.817a15.489,15.489,0,0,0,6.206,1.732Zm-13.8-16.368v.866h3.85v-.866Zm0,2.338v.91h3.85v-.91Zm0,2.382v.909h3.85v-.909Z"/><polygon class="cls-4" points="141.467 80.223 87.433 80.223 87.433 64.625 114.325 58.838 141.467 64.625 141.467 80.223"/><path class="cls-5" d="M100.973,64.648h11.5v1.869h-4.76V70.7h5.18v1.9h-5.18v4.185h-2.051V72.6h-5.18V70.7h5.18V66.517h-4.694Zm2.446,2.106a18.8,18.8,0,0,1,1.275,3.317l-1.932.579a15.382,15.382,0,0,0-1.171-3.317Zm8.48.54a21.876,21.876,0,0,1-1.433,3.369l-1.854-.619a15.567,15.567,0,0,0,1.315-3.277Z"/><path class="cls-5" d="M126.789,72.861c-.17-.316-.209-.369-.486-.816-.249.026-.763.078-1.748.131v.737h3.694v1.343h-3.694v.737h4.154v1.513h-9.794V74.993h3.693v-.737h-3.142V72.913h3.142v-.644c-.446.012-2.668.092-3.168.092l-.132-1.567c.579,0,.645-.013.882-.013a6.584,6.584,0,0,0,.42-.789H119.1v.394c0,4.16-.829,5.607-1.263,6.37l-1.775-1.342a9.422,9.422,0,0,0,1.079-5.028V64.648h11.109v3.409H119.1v.487h9.61v1.448h-1.6a11.348,11.348,0,0,1,1.433,1.921Zm-.459-6.739H119.1v.619h7.231Zm-1.394,3.87h-2.183c-.21.394-.237.434-.447.789.579,0,1.92,0,3-.092a5.217,5.217,0,0,0-.565-.6Z"/><path class="cls-4" d="M149.288,68.132c-.87.455-1.5.712-2.174,1.008L145.77,66.1a17.043,17.043,0,0,0,8.042-5.2h3.5a16.3,16.3,0,0,0,7.962,5.183l-1.4,3.046a22.459,22.459,0,0,1-2.115-1.009v1.6h-4.7v1.8h5.928v2.709h-5.928v2.137h7.785v2.907H146.186V76.361h7.785V74.224h-5.928V71.515h5.928v-1.8h-4.683Zm10.552-1.207a24.794,24.794,0,0,1-4.328-3.639,20.679,20.679,0,0,1-4.19,3.639Z"/><path class="cls-4" d="M171.9,62.777a2.247,2.247,0,0,1-2.121-2.346,2.175,2.175,0,0,1,1.4-2.011c1.172-.615,4.967-7.094,5.971-8.715a2.572,2.572,0,0,1,2.176-1.4,2.151,2.151,0,0,1,2.065,2.29c0,2.067-4.91,23.184-5.58,26.647a2.251,2.251,0,0,1-4.464-.391c0-1.564,2.678-13.072,3.18-15.419A4,4,0,0,1,171.9,62.777Z"/><path class="cls-4" d="M182.338,71.771c-1.171,0-2.511-.558-2.511-1.9a2.736,2.736,0,0,1,.949-1.955l18.526-18.6a2.843,2.843,0,0,1,1.954-.949,1.967,1.967,0,0,1,1.953,2.179c0,2.122-2.846,13.853-3.46,16.7,1.73,0,3.739-.112,3.739,2.29,0,2.737-2.846,2.234-4.687,2.234l-1.228,5.475a2.159,2.159,0,0,1-2.12,1.844,2.3,2.3,0,0,1-2.344-2.235c0-1.564.725-3.464,1.06-5.084Zm14.733-13.854-9.264,9.33h7.311Z"/><path class="cls-4" d="M208.782,73.037c.454,0,.612,0,.87-.019v-11.2a44.541,44.541,0,0,0,8.891-1.009l1.047,2.67a24.147,24.147,0,0,1-2.608.436l.04,2.808h2.568V69.5h-2.43c.2,2.077.672,4.233,1.166,4.233.237,0,.573-.515.81-1.326l1.066,1.464V61.426h7.273v2.71a28.12,28.12,0,0,1-1.523,4.491,8.954,8.954,0,0,1,1.838,5.5c0,3.719-2.094,3.719-3.141,3.719H223.6l-.534-2.868h.712c.948,0,1.007-.772,1.007-1.424a6.776,6.776,0,0,0-1.758-4.569,23.751,23.751,0,0,0,1.62-4.807H222.89V79.624H220.2V75.747c-.394.792-1.066,1.88-2.074,1.88a1.888,1.888,0,0,1-1.186-.4v1.978H209.3v-2.67h7.034c-1.245-1.761-1.641-5.579-1.779-7.042h-2.114V72.76a20.383,20.383,0,0,0,2.312-.316v2.591c-1.68.317-4.643.574-5.691.673Zm3.655-6.31h1.9c-.078-1.4-.078-2.2-.078-2.571-1.107.059-1.364.059-1.819.079Z"/><path class="cls-6" d="M17.008,28.446a1.413,1.413,0,0,0-.4-1.181,1.453,1.453,0,0,0-1.379-.352,3.818,3.818,0,0,1,.561,3.149,1.211,1.211,0,0,1-.689.83,1.026,1.026,0,0,1-.884-.073,2.024,2.024,0,0,1-.9-1.614,2.788,2.788,0,0,1,.206-1.12l-.686-.676-.7.711-.33-.325.7-.717-.575-.567.365-.371.576.567L14.05,25.52l.33.326-1.167,1.187.581.573a3.587,3.587,0,0,1,.417-.526,2.787,2.787,0,0,1,.321-.276,3.409,3.409,0,0,0-.235-.261l.364-.371c.07.079.19.207.321.375a1.783,1.783,0,0,1,1.994.348,1.854,1.854,0,0,1,.539,1.507,2.144,2.144,0,0,1-.686,1.318l-.01.01-.325-.321A1.847,1.847,0,0,0,17.008,28.446Zm-3.184.512a1.657,1.657,0,0,0,.642,1.412.546.546,0,0,0,.482.07.8.8,0,0,0,.423-.55L13.9,28.445A3.566,3.566,0,0,0,13.824,28.958Zm.964-1.793a2.589,2.589,0,0,0-.66.771l1.327,1.308A3.888,3.888,0,0,0,14.788,27.165Z"/><path class="cls-6" d="M17.741,22.408l-.013-.532c.966-.022,1.227-.121,3.1-1.307l.285.451C19.234,22.21,18.855,22.384,17.741,22.408Zm2.249,3.675a1.811,1.811,0,0,1-1.062-1.129l.456-.289a1.551,1.551,0,0,0,.774.921,1.366,1.366,0,0,0,1.051-.292l1.932-1.224.281.445L21.49,25.739A1.8,1.8,0,0,1,19.99,26.083Z"/><path class="cls-6" d="M25.269,19.775l-1,.38-.168-.447,1.012-.382-.551-1.46.5-.188.55,1.459.447-.169a1.271,1.271,0,0,1,1.569.323,3.793,3.793,0,0,1,.534,1.075,3.864,3.864,0,0,1,.3,1.147c.037.835-.515,1.1-1.2,1.364l-.176-.467c.814-.308.85-.532.829-.885a3.045,3.045,0,0,0-.26-.967,3.16,3.16,0,0,0-.454-.926.736.736,0,0,0-.975-.217l-.453.171c.477,1.382.4,1.808.2,3.681l-.522-.05C25.655,21.334,25.707,21.014,25.269,19.775Zm2.583-1.983-.374.142-.374-.993.374-.141Zm.008.718.229-.447c.985.281,1.229.67,1.8,2.182l-.486.184C28.829,18.91,28.643,18.793,27.86,18.51Zm.79-1.011-.375.141-.375-.992.374-.142Z"/><path class="cls-6" d="M34.346,16.953a21.6,21.6,0,0,0-1.394,1.725l.437,2.465-.5.1-.358-2.023L31.8,20.367l-.417-.3,1.031-1.511-.251-1.42-1.086.192-.086-.491,1.086-.192-.19-1.074.5-.1.447,2.535c.595-.756.971-1.208,1.159-1.4.513-.526,1.422-.466,1.565.338l.246,1.392c.226,1.274.3,1.3,1.164,1.657l-.2.435c-1.126-.479-1.246-.672-1.481-2l-.247-1.4C34.979,16.662,34.589,16.717,34.346,16.953Z"/><path class="cls-6" d="M42.956,18.478a1.829,1.829,0,0,0-.06-1.847,1.888,1.888,0,0,0-1.377-.867,8.46,8.46,0,0,1-.268,1.758,5.439,5.439,0,0,1-.7,1.7,1.013,1.013,0,0,1-1.595.3,2.1,2.1,0,0,1-.471-1.578,2.8,2.8,0,0,1,2.833-2.672,2.4,2.4,0,0,1,2.041,1.087,2.377,2.377,0,0,1,.088,2.359A2.639,2.639,0,0,1,41,20.179l-.015-.513A2.1,2.1,0,0,0,42.956,18.478Zm-1.983-2.707a2.334,2.334,0,0,0-1.958,2.213,1.692,1.692,0,0,0,.314,1.2c.25.249.567.092.775-.228a5.238,5.238,0,0,0,.63-1.571A9.449,9.449,0,0,0,40.973,15.771Z"/><path class="cls-6" d="M48.385,19.233,48,21.347l-.517-.094.384-2.114-2.644-.481.084-.464,2.644.482.488-2.689-2.32-.422L46.2,15.1l5.213.948-.085.463-2.374-.432-.489,2.688,2.7.491-.084.463Zm-1.928-2.971.519-.105a14.2,14.2,0,0,1,.384,1.811l-.55.121-.014,0A10.178,10.178,0,0,0,46.457,16.262Zm3.83.39.487.3a14.008,14.008,0,0,1-1.089,1.722l-.41-.3h-.007A12.214,12.214,0,0,0,50.287,16.652Z"/><path class="cls-6" d="M55.272,22.123l-.255.669,2.128.817-.156.407-4.559-1.75.156-.406,1.978.759.257-.669-1.631-.626.145-.38,1.631.626.239-.624c-.395-.106-.778-.245-1.163-.378-.133-.043-.271-.1-.405-.14l.015-.491c.1.041.214.09.325.133.132.05.265.094.4.138l-.014,0c.229-.168.486-.386.7-.581l-1.331-.51-.055.144a13.3,13.3,0,0,1-.74,1.679,4.452,4.452,0,0,1-1.069,1.282L51.64,21.7a6.439,6.439,0,0,0,1.689-2.841l.828-2.165,4.422,1.7-.509,1.332-3.983-1.528-.206.538L58.2,20.387l-.146.381-1.29-.5.027.048a13.617,13.617,0,0,1,.773,1.432l-.481.161c-.056-.149-.122-.31-.192-.464-.416-.108-.819-.232-1.236-.361l.013,0-.248.65,1.69.648-.145.381ZM57.989,18.6l-3.538-1.357-.216.564,3.537,1.357Zm-3.153,1.777c.536.19,1.074.336,1.6.537l.256.1c-.121-.234-.246-.477-.385-.7l.391-.061-1.126-.432A9,9,0,0,1,54.836,20.377Z"/><path class="cls-6" d="M61.2,23.312l3.025,1.938-.211.331-1.277-.817a6.44,6.44,0,0,0,.944,1.571l-.445.215a5.59,5.59,0,0,1-.577-.961l-.952,1.49-.4-.253.132-.207-2.316-1.484L59,25.342l-.4-.253.923-1.444a6.679,6.679,0,0,1-1.116-.039l-.021-.463a5.975,5.975,0,0,0,1.854.02L59,22.368l.212-.331,1.554,1a2.663,2.663,0,0,0,.394-.147l-1.04-.666.972-1.52.727.465.2-.319L60.7,20l.212-.331,1.317.843.272-.425.4.257-.271.426,1.263.81.273-.426.4.257-.272.426,1.354.867-.213.331-1.353-.867-.2.32.763.488-.972,1.52-2.091-1.34Zm.671,2.638-2.316-1.483-.216.337,2.316,1.484Zm.392-.614L59.95,23.852l-.2.313,2.317,1.484Zm-.01-.883-1.542-.987a5.073,5.073,0,0,1-.529.111L62.411,25C62.359,24.837,62.293,24.628,62.255,24.453Zm-1.33-2.61-.211.331,2.753,1.764.212-.331Zm3.132,1.172L61.3,21.252l-.2.313,2.752,1.764Zm-.573-.784.2-.319-1.265-.81-.2.32Z"/><path class="cls-6" d="M66.349,27.622a3.331,3.331,0,0,1,1.473.858c.543.588.849,1.172.533,1.764a1.341,1.341,0,0,1-1.747.54,3.432,3.432,0,0,1-1.584-1.455l.346-.308a3.145,3.145,0,0,0,1.412,1.288.833.833,0,0,0,1.09-.319c.244-.444-.186-.946-.44-1.2a3.4,3.4,0,0,0-1.69-.92l-.2-.5.016,0a4.173,4.173,0,0,0,1.237-.63,8.279,8.279,0,0,0,1-.876l.377.387A6.708,6.708,0,0,1,66.349,27.622Zm2.7-.9a4.962,4.962,0,0,1-.623-1.354l.507-.152a4.761,4.761,0,0,0,.521,1.207,7.766,7.766,0,0,0,.871.985l-.356.348A8.805,8.805,0,0,1,69.049,26.723Z"/><path class="cls-6" d="M69.408,35.218a1.359,1.359,0,0,1,.6-1.971l3.529-1.956.268.486-3.529,1.955a.835.835,0,0,0-.439,1.223,2.936,2.936,0,0,0,2.344,1.221l-.117.5A3.33,3.33,0,0,1,69.408,35.218Z"/><path d="M177.92,93.456a8.569,8.569,0,0,0,3.441-5h-.422a8,8,0,0,1-2.791,4.273l-.493-.872-.14.052v2.67h-1.241V92.329c-.951.281-1.144.326-1.435.387l-.193-1.392a12.4,12.4,0,0,0,1.628-.4V89.166h-.4a5.075,5.075,0,0,1-.379,1.5l-.906-.979a8.091,8.091,0,0,0,.369-2.9l1.03.027c-.009.3-.009.5-.027,1.048h.309V86.223h1.241v1.639h.59v.484a7.468,7.468,0,0,0,.774-2.158l1.3.132c-.052.229-.105.458-.238.908h2.949a43.1,43.1,0,0,1-.255,6.572.913.913,0,0,1-.88.784h-1.523l-.22-1.3a9.42,9.42,0,0,1-1.417,1.3Zm1.539-5a5.209,5.209,0,0,1-1.153,1.762l-.721-1.057h-.07V90.54c.167-.052.281-.1.59-.211l.06.828a7.2,7.2,0,0,0,1.69-2.7Zm1.54,4.8c.229,0,.379-.018.432-.238.071-.309.14-1.657.167-2.335a8.339,8.339,0,0,1-1.566,2.573Z"/><path d="M184.125,90.778a3.156,3.156,0,0,1-.448.458l-.335-1.868a6.634,6.634,0,0,0,1.3-3.189l1.3.114a10.944,10.944,0,0,1-.537,2.089v6.184h-1.285Zm3.195-1.859a6.34,6.34,0,0,1-.686,1.427l-1.1-.775a7.379,7.379,0,0,0,1.091-3.048l1.241.114a7.149,7.149,0,0,1-.167.987h.757V86.215h1.354v1.409h1.805v1.3H189.81v1.595h2.008v1.321H189.81v2.731h-1.354V91.835h-2.719V90.514h2.719V88.919Z"/><path d="M196.413,86.461c-.071.388-.106.52-.149.7h3.247v1.278h-3.644a4.361,4.361,0,0,1-.29.634,2.431,2.431,0,0,1,1.039-.256,1.461,1.461,0,0,1,1.373.8,20.387,20.387,0,0,1,1.953-.67l.343,1.331a16.75,16.75,0,0,0-2.024.59,8.64,8.64,0,0,1,.044.969c0,.212-.008.361-.017.5h-1.365a8.454,8.454,0,0,0,.027-.907c-.537.273-.986.511-.986.943,0,.555.687.581,1.6.581.088,0,1.214,0,2.217-.106l.009,1.357c-1.592.026-1.769.035-1.962.035a6.608,6.608,0,0,1-2.376-.3,1.52,1.52,0,0,1-.986-1.41c0-1.048,1.039-1.736,2.262-2.361a.686.686,0,0,0-.545-.238,2.382,2.382,0,0,0-1.515.82c-.2.22-.977,1.277-1.144,1.488l-.977-.995a7.017,7.017,0,0,0,1.884-2.81h-1.54V87.157h1.883c.07-.291.115-.537.159-.819Z"/><path d="M206.3,89.351h2.754v1.286h-2.79c-.06,1.3-.492,2.969-3.96,3.63l-.589-1.242a5.09,5.09,0,0,0,2.605-1.014,1.86,1.86,0,0,0,.554-1.374h-3.379V89.351h3.4v-.908a22.339,22.339,0,0,1-2.807.132l-.265-1.25a19.481,19.481,0,0,0,5.932-.75l.713,1.287a21.227,21.227,0,0,1-2.165.414Z"/><path d="M216.887,88.505v1.216h-2.165v2.942h2.491V93.9h-6.24V92.663h2.455V89.721h-2.165V88.505Z"/><path d="M220.347,91.183a9,9,0,0,0-.7-2.22l1.118-.3a9.436,9.436,0,0,1,.774,2.237Zm.009,2.08c3.177-.767,3.828-1.983,4.418-4.934l1.364.317c-.5,2.079-1.153,4.8-5.139,5.727Zm1.98-2.529a9.141,9.141,0,0,0-.625-2.2l1.118-.238a8.161,8.161,0,0,1,.66,2.177Z"/><path d="M235.275,87.554c-.731,4.977-3.441,6.29-6.39,6.721l-.572-1.294c2.147-.291,4.33-.89,5.2-4.124h-2.728a7.55,7.55,0,0,1-2.095,1.912l-.916-1.031a6.177,6.177,0,0,0,2.861-3.374l1.5.194a10.157,10.157,0,0,1-.467,1Z"/><path d="M239.466,86.8l-.185,4.916h-1.109l-.186-4.916Zm-.044,5.559v1.383h-1.391V92.355Z"/><path class="cls-7" d="M6.736,31.59c2.905,5.493,10.328,7.108,12.911,4.523.322,2.908,3.873,3.555,5.809,1.616"/><path class="cls-7" d="M61.606,43.868c2.259,1.615,5.487.323,6.455-.646,1.291,2.261,7.747.969,8.715-2.908"/><path class="cls-8" d="M166.707,94.011V85.955l5.407,4.028Z"/><path class="cls-8" d="M159.607,94.011V85.955l5.407,4.028Z"/><path class="cls-2" d="M65.739,90.1s-1.024-6.353-1.517-9.356c-.849-5.167-2.72-9.216-13.925-13.622,0,0-.624.33-1.61.825a11.883,11.883,0,0,1-10.536.059c-1.04-.507-1.805-.884-1.805-.884-11.2,4.406-13.076,8.455-13.925,13.622-.493,3-1,9.356-1,9.356Z"/><path class="cls-4" d="M65.7,90.679a.63.63,0,0,1-.621-.535c-.008-.056-.86-5.632-1.48-9.293-.8-4.73-2.3-8.7-13.419-13.1a19.555,19.555,0,0,0-6.615,1.432.627.627,0,0,1-.492,0,45.465,45.465,0,0,0-6.657-1.416c-11.124,4.406-12.6,8.365-13.377,13.078-.483,2.942-.929,8.509-.934,8.565a.629.629,0,1,1-1.254-.1c.019-.231.455-5.675.947-8.67a13.7,13.7,0,0,1,3.231-7.414c2.194-2.454,5.716-4.581,11.084-6.692a.634.634,0,0,1,.322-.037,53.172,53.172,0,0,1,6.876,1.428A20.465,20.465,0,0,1,50.3,66.493h0a.623.623,0,0,1,.23.044c5.363,2.109,8.882,4.236,11.075,6.694a13.865,13.865,0,0,1,3.24,7.409c.622,3.671,1.475,9.258,1.484,9.314a.631.631,0,0,1-.527.718A.775.775,0,0,1,65.7,90.679Z"/><polygon class="cls-9" points="44.767 68.433 44.144 68.433 42.64 68.433 42.017 68.433 41.139 71.189 41.993 74.383 42.475 74.383 44.309 74.383 44.791 74.383 45.645 71.189 44.767 68.433"/><path class="cls-9" d="M46.491,90.1s.04-.632.107-2.039c.173-3.669-1.81-13.679-1.81-13.679H42s-1.943,10.01-1.77,13.679c.067,1.407.15,2.039.15,2.039Z"/><path class="cls-4" d="M45.435,74.409l.818-3.057A.636.636,0,0,0,46.245,71l-.879-2.756a.628.628,0,0,0-.6-.438h-2.75a.629.629,0,0,0-.6.438L40.54,71a.627.627,0,0,0-.009.354l.819,3.059c-.249,1.3-1.918,10.18-1.752,13.681.067,1.421.152,2.022.156,2.047A.628.628,0,1,0,41,89.96s-.08-.58-.144-1.928c-.146-3.084,1.274-10.943,1.663-13.02h1.752c.4,2.074,1.847,9.936,1.7,13.02-.067,1.4-.081,1.978-.081,2a.628.628,0,0,0,.614.644h.015a.629.629,0,0,0,.628-.615c0-.006.015-.592.08-1.972C47.392,84.59,45.689,75.714,45.435,74.409Zm-2.959-.656L41.794,71.2l.683-2.141h1.83L44.99,71.2l-.682,2.549Z"/><path class="cls-4" d="M30.2,34.568a.63.63,0,0,1-.616-.508l-.176-.891a.629.629,0,1,1,1.234-.245l.176.892a.628.628,0,0,1-.495.739A.571.571,0,0,1,30.2,34.568Z"/><path class="cls-4" d="M26.883,36.072a.63.63,0,0,1-.414-.156l-.683-.6a.629.629,0,0,1,.828-.948l.683.6a.63.63,0,0,1-.414,1.1Z"/><path class="cls-4" d="M25.5,39.577a.6.6,0,0,1-.094-.007l-.9-.135a.629.629,0,0,1,.186-1.245l.9.135a.63.63,0,0,1-.092,1.252Z"/><path class="cls-10" d="M28.527,52.458s1.707-.814.85-3.8c-1.5-5.207,1.745-9.39,5.065-12.714,4.271-4.275,10.9-7.106,15.213-1.8a12.423,12.423,0,0,0,1.824,1.274,4.431,4.431,0,0,1,3.682,2.33,23.738,23.738,0,0,1,3.3,9.7c.293,2.007-2.031,5.01-2.031,5.01Z"/><path class="cls-4" d="M28.653,52.913a.629.629,0,0,1-.367-1.141c1.132-.811,1-1.243.609-2.528a9.1,9.1,0,0,1-.374-4.732c.849-4.522,3.581-7.3,6.075-9.559,3.263-2.948,7.074-4.532,10.2-4.235a7.6,7.6,0,0,1,5.477,3.2.629.629,0,0,1-1,.759,6.381,6.381,0,0,0-4.593-2.7c-2.777-.264-6.229,1.2-9.235,3.916-2.45,2.213-4.905,4.719-5.681,8.856a7.884,7.884,0,0,0,.34,4.133c.4,1.328.786,2.582-1.08,3.918A.622.622,0,0,1,28.653,52.913Z"/><path class="cls-2" d="M31.883,50.275l.009,1.437a2.569,2.569,0,0,0-2.11,2.808c.338,2.969,3.578,3.137,3.578,3.137a10.583,10.583,0,0,0,2.531,3.177,9.963,9.963,0,0,0,3.473,2l.013,0c0,.844-.011,2.3-.011,2.956l-.621.317,5,2.318,4.313-2.318-.79-.383V62.911A14.311,14.311,0,0,0,50.6,61a11.572,11.572,0,0,0,2.648-3.343s3.141-.2,3.592-2.919a2.641,2.641,0,0,0-1.95-2.973l-1.086.519.006-5.144s-1-1.08-1.867-2.058c-1.352-1.523-1.329-2.134-2.513-2.382a2.362,2.362,0,0,0-1.5.2l-1.327-.526s-1.41-2-2.746-1.4c-3.338,1.506-2.733,3.86-5.157,6.288C36.137,49.836,31.883,50.275,31.883,50.275Z"/><path class="cls-4" d="M48.179,51.9A1,1,0,0,1,48,51.882h0a.893.893,0,1,1,.179.017Z"/><path class="cls-4" d="M46.943,41.96a2.8,2.8,0,0,0-2.467-1.72c-2.033.017-3.744,2.552-4.822,4.675-1.547,3.05-5.067,4.493-7.845,4.825a.631.631,0,0,0-.555.63l.006.9a3.187,3.187,0,0,0-2,3.918c.529,2.184,2.823,2.856,3.694,3.035a11.685,11.685,0,0,0,5.533,5.016c0,.68-.008,1.551-.009,2.159l-.309.147a.629.629,0,1,0,.54,1.137l.667-.317a.63.63,0,0,0,.359-.569c0-.6.006-1.877.01-2.734l0-.219a.631.631,0,0,0-.411-.594,10.516,10.516,0,0,1-5.417-4.887.629.629,0,0,0-.48-.332c-.025,0-2.521-.338-2.956-2.138a1.878,1.878,0,0,1,.535-2.018,2.8,2.8,0,0,1,1.027-.553l.015-.005.037-.011.025-.009.032-.013.027-.014.026-.014.029-.018.021-.014.029-.022.019-.015.026-.024.018-.019.022-.024.018-.022.018-.025.018-.026.014-.023.016-.03.011-.024.014-.031.009-.026.01-.031.007-.03.006-.029.005-.035,0-.025c0-.013,0-.026,0-.039v-.017l-.005-.8c3-.492,6.592-2.14,8.26-5.426,1.818-3.585,3.2-3.982,3.711-3.986H44.5a1.669,1.669,0,0,1,1.335,1.05.629.629,0,1,0,1.112-.589Z"/><polygon class="cls-2" points="38.884 66.076 39.151 64.883 37.992 64.968 35.249 67.072 39.828 73.035 43.17 68.289 38.884 66.076"/><polygon class="cls-2" points="47.995 66.076 47.728 64.883 48.887 64.968 51.63 67.072 47.052 73.035 43.709 68.289 47.995 66.076"/><path class="cls-4" d="M52.2,67.077a.632.632,0,0,0-.248-.419L49.21,64.623a.623.623,0,0,0-.325-.122l-1.106-.086a.629.629,0,1,0-.1,1.255H47.7l-4.3,2.139-4.3-2.139H39.1a.629.629,0,0,0-.1-1.255L37.9,64.5a.623.623,0,0,0-.325.122L34.83,66.658a.631.631,0,0,0-.124.89l.779,1.014,3.8,4.948a.628.628,0,0,0,.5.246H39.8a.627.627,0,0,0,.5-.267l3.1-4.394,3.095,4.394a.627.627,0,0,0,.5.267H47a.628.628,0,0,0,.5-.246l3.8-4.947h0l.779-1.014A.632.632,0,0,0,52.2,67.077ZM39.761,72.065,36.483,67.8l-.39-.507,2.084-1.546h0a.626.626,0,0,0,.193.978l3.817,1.9ZM50.3,67.8h0l-3.278,4.269L44.6,68.618l3.817-1.9a.626.626,0,0,0,.193-.978h0l2.084,1.546Z"/><path class="cls-4" d="M57.024,52.611c.1-.167.226-.35.358-.543a7.113,7.113,0,0,0,1.3-6.344,32.919,32.919,0,0,0-2.37-7.348A6.074,6.074,0,0,0,51.563,34.8a.63.63,0,0,0-.168,1.248c3.577.482,4.634,4.106,6.062,9.977a5.866,5.866,0,0,1-1.115,5.337c-.078.116-.154.227-.226.337a4.246,4.246,0,0,0-1.249-.6l-.014,0-.019,0a.553.553,0,0,0-.09-.011h0a.483.483,0,0,0-.093,0l-.018,0a.611.611,0,0,0-.085.018l-.024.008a.528.528,0,0,0-.078.031l-.008,0,0-4.206a.627.627,0,0,0-.22-.479,18.061,18.061,0,0,1-2.428-2.549c-.988-1.214-1.7-2.09-3.711-1.779a.629.629,0,0,0,.193,1.244c1.3-.2,1.585.154,2.543,1.331a19.688,19.688,0,0,0,2.365,2.518l-.005,5.228a.628.628,0,0,0,1.026.488l.642-.524a2.718,2.718,0,0,1,.749.455,1.878,1.878,0,0,1,.535,2.018c-.435,1.8-2.931,2.134-2.955,2.137a.628.628,0,0,0-.481.333,10.516,10.516,0,0,1-5.417,4.887.631.631,0,0,0-.411.594v.16c.005.857.011,2.179.011,2.793a.63.63,0,0,0,.359.569l.667.317a.629.629,0,0,0,.539-1.137l-.308-.147c0-.608-.006-1.479-.009-2.159a11.677,11.677,0,0,0,5.533-5.017,6.551,6.551,0,0,0,1.395-.456,3.862,3.862,0,0,0,2.3-2.578,3.189,3.189,0,0,0-.33-2.574Z"/><path class="cls-4" d="M61.259,90.73a.628.628,0,0,1-.628-.6c0-.032-.142-3.174-.264-4.953a.629.629,0,1,1,1.255-.086c.123,1.794.264,4.951.266,4.983a.631.631,0,0,1-.6.657Z"/><path class="cls-2" d="M37.333,42.337a7.556,7.556,0,1,0,7.548,7.556A7.552,7.552,0,0,0,37.333,42.337Zm-.007,12.916a5.362,5.362,0,1,1,5.357-5.362A5.359,5.359,0,0,1,37.326,55.253Z"/><path class="cls-2" d="M35.962,57.484c-.01,4.646-.081,9.488-.091,14.135.416.043,1.8.009,2.22.053.01-4.629-.14-9.478-.053-14.175Z"/><path class="cls-4" d="M37.333,55.883a5.99,5.99,0,1,1,5.983-5.99A5.993,5.993,0,0,1,37.333,55.883Zm0-10.72a4.731,4.731,0,1,0,4.725,4.73A4.733,4.733,0,0,0,37.333,45.163Z"/><path class="cls-4" d="M45.51,49.893A8.177,8.177,0,1,0,35.332,57.83c-.006,2.214-.025,4.5-.044,6.716-.02,2.333-.041,4.746-.046,7.071a.631.631,0,0,0,.564.628c.239.025.692.027,1.172.03.408,0,.871,0,1.048.023.022,0,.043,0,.065,0a.628.628,0,0,0,.629-.628c0-1.858-.018-3.787-.039-5.652-.031-2.653-.061-5.389-.021-8.052A8.2,8.2,0,0,0,45.51,49.893Zm-15.1,0a6.919,6.919,0,1,1,6.919,6.927A6.93,6.93,0,0,1,30.414,49.893Zm7.009,16.142c.019,1.644.038,3.337.04,4.984-.151,0-.313,0-.478,0l-.483,0c.007-2.132.025-4.327.043-6.455.019-2.148.038-4.362.045-6.514.245.023.492.036.743.036l.068,0C37.363,60.716,37.393,63.417,37.423,66.035Z"/><path class="cls-4" d="M38.1,52.4a1.407,1.407,0,0,1-.28-.028h0a1.38,1.38,0,0,1-1.113-1.284,1.388,1.388,0,1,1,2.6.6A1.369,1.369,0,0,1,38.1,52.4Z"/><path class="cls-2" d="M28.75,68.139c.8-2.69,1.2-4.417,2.043-5.818,1.7-2.833,4.483-4.216,7.158-2.841,1.927.99,2.354,4.073,2.215,6.021-.125,1.758-1.82,2.554-2.082,1.243-.154-.771-2.018.436-4.263,3.262Z"/><path class="cls-2" d="M25.8,73.065c.366-1.314,2.068-5.2,2.068-5.2l6.606,2.627s-1.025,3.992-1.413,5.22Z"/><path class="cls-2" d="M19.06,90.1a57.178,57.178,0,0,1,5.061-15.217A6.871,6.871,0,0,1,25.8,73.065s5.7,2.218,7.5,2.711c0,5.347-2.015,14.325-2.015,14.325Z"/><path class="cls-4" d="M38.238,58.92a5.131,5.131,0,0,0-4.479-.177A7.735,7.735,0,0,0,30.253,62a19.613,19.613,0,0,0-1.717,4.629c-.068.237-.139.484-.214.738l-.225-.089a.628.628,0,0,0-.809.332c-.066.152-1.56,3.571-2.031,5.065a4.906,4.906,0,0,0-1.73,2.005c-.269.775-.676,1.742-1.147,2.861A53.505,53.505,0,0,0,18.439,89.95a.629.629,0,1,0,1.242.2,52.46,52.46,0,0,1,3.858-12.121c.48-1.139.894-2.123,1.176-2.937a3.61,3.61,0,0,1,1.168-1.316c1.128.435,4.926,1.891,6.777,2.47A79.444,79.444,0,0,1,30.616,89.9a.629.629,0,0,0,.459.763.6.6,0,0,0,.152.019.629.629,0,0,0,.609-.478c.444-1.791.962-4.451,1.351-6.942a53.683,53.683,0,0,0,.735-7.485.622.622,0,0,0-.119-.365c.447-1.539,1.239-4.62,1.276-4.765a.629.629,0,0,0-.366-.737,11.421,11.421,0,0,1,2.866-2.677,1.236,1.236,0,0,0,1.244.792,2.475,2.475,0,0,0,1.971-2.477C40.929,63.642,40.543,60.1,38.238,58.92ZM28.2,68.67l5.523,2.2c-.243.937-.751,2.882-1.085,4.048-1.769-.584-4.817-1.745-6.061-2.224C26.98,71.537,27.793,69.615,28.2,68.67Zm11.34-3.214A1.678,1.678,0,0,1,39,66.636a.524.524,0,0,1-.25.129.448.448,0,0,1-.049-.144.881.881,0,0,0-.663-.707c-1.292-.313-3.644,2.386-4.552,3.5L29.5,67.831c.087-.3.17-.582.249-.855a18.855,18.855,0,0,1,1.587-4.332c1.629-2.721,4.114-3.744,6.332-2.6C39.162,60.81,39.686,63.387,39.539,65.456Z"/><path class="cls-4" d="M43.593,60.332A1.534,1.534,0,0,1,42.062,58.8v-.432a1.531,1.531,0,1,1,3.061,0V58.8A1.533,1.533,0,0,1,43.593,60.332Zm0-2.238a.273.273,0,0,0-.273.273V58.8a.273.273,0,1,0,.546,0v-.432A.273.273,0,0,0,43.593,58.094Z"/></svg>