<?xml version="1.0" encoding="UTF-8"?><svg id="_レイヤー_1" xmlns="http://www.w3.org/2000/svg" viewBox="0 0 450 200"><defs><style>.cls-1{fill:#003067;}.cls-1,.cls-2,.cls-3,.cls-4,.cls-5,.cls-6,.cls-7,.cls-8,.cls-9,.cls-10,.cls-11,.cls-12,.cls-13,.cls-14,.cls-15,.cls-16,.cls-17,.cls-18,.cls-19,.cls-20,.cls-21,.cls-22,.cls-23,.cls-24{stroke-width:0px;}.cls-2{fill:#00963b;}.cls-3{fill:#d29100;}.cls-4{fill:#6a0000;}.cls-5{fill:#f4a100;}.cls-6{fill:#d6a600;}.cls-7{fill:#58b331;}.cls-8{fill:#c40018;}.cls-9{fill:#0098d8;}.cls-10{fill:#c3ba9b;}.cls-11{fill:#004c87;}.cls-12{fill:#00a6d8;}.cls-13{fill:#ec6a02;}.cls-14{fill:#251e1c;}.cls-15{fill:#0076ba;}.cls-16{fill:#f9bc00;}.cls-17{fill:#e4001e;}.cls-18{fill:#fff;}.cls-19{fill:#e73819;}.cls-20{fill:#417935;}.cls-21{fill:#dc007a;}.cls-22{fill:#746957;}.cls-23{fill:#960b31;}.cls-24{fill:#c60f28;}</style></defs><rect class="cls-18" width="450" height="200"/><path class="cls-9" d="M256.485,161.872c-1.594,1.935-3.856,3.444-6.785,4.526-2.93,1.081-6.18,1.634-9.752,1.658-3.751.026-7.044-.77-9.884-2.388-2.838-1.617-5.037-3.979-6.597-7.084-1.559-3.105-2.373-6.76-2.441-10.967l-.02-2.946c-.029-4.326.675-8.076,2.112-11.251,1.436-3.175,3.523-5.611,6.261-7.306,2.737-1.695,5.95-2.556,9.641-2.581,5.138-.035,9.166,1.164,12.079,3.593,2.914,2.432,4.656,5.987,5.223,10.666l-8.692.06c-.413-2.478-1.304-4.289-2.671-5.429-1.367-1.141-3.242-1.705-5.622-1.689-3.037.021-5.341,1.178-6.912,3.47-1.572,2.293-2.352,5.691-2.341,10.196l.019,2.768c.031,4.544.916,7.971,2.659,10.281,1.742,2.309,4.281,3.453,7.614,3.43,3.352-.023,5.74-.754,7.159-2.192l-.052-7.471-8.126.055-.044-6.578,17.055-.116.117,17.293Z"/><path class="cls-9" d="M330.225,157.916l-15.657.106-2.914,8.95-9.495.065,15.837-43.448,8.274-.057,16.518,43.227-9.495.064-3.068-8.909ZM316.931,150.774l10.835-.074-5.558-16.185-5.277,16.259Z"/><polygon class="cls-9" points="354.376 159.508 373.336 159.378 373.384 166.552 345.495 166.742 345.2 123.404 354.129 123.343 354.376 159.508"/><path class="cls-9" d="M399.558,155.003c-.011-1.686-.616-2.977-1.812-3.872-1.197-.895-3.346-1.832-6.449-2.815-3.102-.98-5.56-1.951-7.372-2.911-4.939-2.625-7.424-6.189-7.455-10.694-.016-2.342.629-4.435,1.937-6.279,1.307-1.845,3.192-3.292,5.656-4.341,2.464-1.048,5.233-1.583,8.31-1.604,3.094-.022,5.857.52,8.285,1.624,2.429,1.105,4.319,2.675,5.672,4.709,1.355,2.035,2.04,4.352,2.057,6.951l-8.929.06c-.013-1.983-.649-3.523-1.908-4.615-1.257-1.092-3.017-1.632-5.279-1.616-2.183.015-3.876.488-5.081,1.419-1.204.931-1.801,2.151-1.789,3.658.009,1.409.725,2.585,2.152,3.528,1.424.943,3.519,1.821,6.283,2.637,5.09,1.493,8.804,3.363,11.141,5.609,2.337,2.246,3.519,5.057,3.541,8.43.025,3.75-1.374,6.703-4.196,8.854-2.824,2.152-6.636,3.245-11.438,3.278-3.333.022-6.374-.567-9.12-1.769-2.746-1.201-4.846-2.859-6.299-4.972-1.454-2.113-2.19-4.57-2.208-7.367l8.958-.061c.033,4.782,2.906,7.153,8.621,7.114,2.124-.014,3.779-.457,4.962-1.329,1.185-.871,1.773-2.081,1.761-3.628"/><path class="cls-7" d="M270.966,139.438c.547-.931,1.211-1.782,1.972-2.537l-6.467-7.089c-1.625,1.553-3.013,3.356-4.104,5.343l8.599,4.283Z"/><path class="cls-6" d="M286.816,134.429c.98.448,1.889,1.02,2.712,1.699l6.484-7.079c-1.709-1.472-3.645-2.688-5.747-3.585l-3.449,8.965Z"/><path class="cls-24" d="M301.666,136.56l-8.593,4.284c.41.958.701,1.976.859,3.037l9.561-.903c-.282-2.263-.908-4.42-1.827-6.417"/><path class="cls-2" d="M292.455,139.603l8.592-4.283c-1.065-1.978-2.421-3.775-4.015-5.332l-6.484,7.078c.739.758,1.381,1.61,1.907,2.537"/><path class="cls-20" d="M269.259,145.709c0-.194.007-.387.016-.578l-9.562-.856c-.03.474-.049.951-.049,1.434,0,1.834.228,3.616.651,5.319l9.235-2.649c-.19-.861-.291-1.753-.291-2.669"/><path class="cls-16" d="M291.252,153.568c-.68.827-1.464,1.564-2.332,2.194l5.049,8.174c1.874-1.269,3.543-2.82,4.944-4.59l-7.661-5.777Z"/><path class="cls-19" d="M294.065,145.709c0,.905-.097,1.788-.284,2.638l9.234,2.654c.421-1.696.645-3.469.645-5.292,0-.453-.014-.903-.043-1.351l-9.56.903c.006.15.008.298.008.447"/><path class="cls-5" d="M272.228,153.751l-7.643,5.808c1.422,1.75,3.105,3.276,4.991,4.522l5.047-8.166c-.888-.614-1.695-1.343-2.395-2.164"/><path class="cls-15" d="M269.414,143.751c.17-1.081.484-2.114.916-3.08l-8.591-4.28c-.949,2.02-1.599,4.206-1.896,6.502l9.571.859Z"/><path class="cls-23" d="M292.794,164.676l-5.04-8.164c-.917.518-1.904.924-2.943,1.196l1.78,9.444c2.214-.509,4.3-1.353,6.204-2.475"/><path class="cls-12" d="M293.414,149.685c-.335.981-.787,1.909-1.343,2.764l7.667,5.783c1.246-1.79,2.229-3.773,2.902-5.896l-9.226-2.651Z"/><path class="cls-13" d="M283.452,157.983c-.584.085-1.181.13-1.79.13-.488,0-.97-.03-1.443-.085l-1.779,9.443c1.053.154,2.128.236,3.222.236,1.214,0,2.406-.101,3.567-.29l-1.777-9.434Z"/><path class="cls-17" d="M282.455,133.33c1.066.069,2.095.272,3.07.593l3.449-8.963c-2.052-.724-4.24-1.153-6.519-1.233v9.603Z"/><path class="cls-21" d="M278.851,157.791c-1.074-.25-2.096-.641-3.045-1.152l-5.05,8.17c1.942,1.112,4.067,1.935,6.319,2.415l1.776-9.433Z"/><path class="cls-1" d="M277.935,133.879c.995-.315,2.045-.507,3.133-.558v-9.602c-2.308.061-4.526.482-6.606,1.204l3.472,8.956Z"/><path class="cls-3" d="M271.386,152.647c-.609-.9-1.105-1.885-1.463-2.933l-9.228,2.648c.699,2.201,1.735,4.251,3.048,6.094l7.643-5.809Z"/><path class="cls-11" d="M273.977,135.981c.811-.643,1.703-1.184,2.661-1.611l-3.471-8.951c-2.068.867-3.971,2.043-5.66,3.466l6.47,7.096Z"/><path class="cls-9" d="M51.597,137.808c0-.652-.231-1.158-.691-1.523-.461-.363-1.272-.74-2.431-1.129-1.159-.39-2.107-.766-2.843-1.13-2.394-1.176-3.591-2.792-3.591-4.849,0-1.023.298-1.926.895-2.709.596-.784,1.439-1.392,2.531-1.829,1.091-.435,2.318-.653,3.68-.653,1.328,0,2.519.237,3.572.711,1.055.475,1.873,1.149,2.457,2.024.583.876.875,1.876.875,3.001h-4.442c0-.753-.23-1.336-.692-1.751-.461-.415-1.085-.622-1.871-.622-.796,0-1.423.176-1.886.527-.46.351-.692.797-.692,1.339,0,.474.254.902.762,1.288.508.384,1.4.782,2.678,1.192,1.277.411,2.327.853,3.147,1.327,1.996,1.15,2.995,2.737,2.995,4.759,0,1.616-.609,2.886-1.827,3.807-1.219.922-2.889,1.384-5.013,1.384-1.497,0-2.854-.268-4.067-.806-1.215-.537-2.128-1.274-2.742-2.209-.613-.935-.92-2.011-.92-3.23h4.468c0,.99.255,1.719.768,2.189.512.47,1.342.704,2.494.704.736,0,1.317-.159,1.745-.476.427-.317.641-.762.641-1.338"/><path class="cls-9" d="M73.088,124.241v12.094c0,1.371-.292,2.558-.876,3.56-.583,1.003-1.421,1.766-2.512,2.292-1.092.524-2.383.786-3.871.786-2.251,0-4.022-.583-5.317-1.751-1.294-1.168-1.955-2.768-1.98-4.798v-12.184h4.48v12.272c.051,2.022.989,3.033,2.817,3.033.922,0,1.62-.253,2.094-.761.474-.507.711-1.332.711-2.474v-12.07h4.454Z"/><path class="cls-9" d="M85.659,137.808c0-.652-.231-1.158-.692-1.523-.462-.363-1.272-.74-2.431-1.129-1.159-.39-2.106-.766-2.842-1.13-2.394-1.176-3.592-2.792-3.592-4.849,0-1.023.298-1.926.895-2.709.595-.784,1.44-1.392,2.531-1.829,1.092-.435,2.318-.653,3.681-.653,1.328,0,2.519.237,3.573.711,1.053.475,1.872,1.149,2.456,2.024.583.876.876,1.876.876,3.001h-4.441c0-.753-.231-1.336-.692-1.751-.461-.415-1.085-.622-1.872-.622-.795,0-1.424.176-1.884.527-.462.351-.692.797-.692,1.339,0,.474.254.902.761,1.288.508.384,1.4.782,2.679,1.192,1.277.411,2.326.853,3.147,1.327,1.996,1.15,2.995,2.737,2.995,4.759,0,1.616-.609,2.886-1.828,3.807-1.219.922-2.889,1.384-5.013,1.384-1.497,0-2.853-.268-4.067-.806-1.214-.537-2.128-1.274-2.741-2.209-.614-.935-.921-2.011-.921-3.23h4.468c0,.99.256,1.719.768,2.189.511.47,1.343.704,2.493.704.736,0,1.318-.159,1.745-.476.428-.317.642-.762.642-1.338"/><polygon class="cls-9" points="107.163 127.68 101.617 127.68 101.617 142.719 97.162 142.719 97.162 127.68 91.718 127.68 91.718 124.241 107.163 124.241 107.163 127.68"/><path class="cls-9" d="M118.273,139.267h-6.104l-1.067,3.453h-4.759l6.776-18.478h4.188l6.828,18.478h-4.785l-1.079-3.453ZM113.235,135.828h3.972l-1.992-6.409-1.98,6.409Z"/><rect class="cls-9" x="126.046" y="124.242" width="4.442" height="18.478"/><polygon class="cls-9" points="149.275 142.719 144.846 142.719 138.297 131.221 138.297 142.719 133.843 142.719 133.843 124.241 138.297 124.241 144.834 135.739 144.834 124.241 149.275 124.241 149.275 142.719"/><path class="cls-9" d="M163.076,139.267h-6.105l-1.066,3.453h-4.76l6.777-18.478h4.188l6.827,18.478h-4.784l-1.079-3.453ZM158.038,135.828h3.972l-1.992-6.409-1.979,6.409Z"/><path class="cls-9" d="M170.545,142.719v-18.478h6.636c2.378,0,4.185.436,5.425,1.306,1.239.872,1.86,2.137,1.86,3.795,0,.957-.221,1.773-.66,2.45-.44.677-1.088,1.176-1.943,1.498.966.253,1.704.727,2.222,1.421.515.694.774,1.54.774,2.538,0,1.811-.572,3.17-1.72,4.08-1.146.909-2.844,1.372-5.095,1.39h-7.5ZM174.999,131.944h2.322c.972-.008,1.667-.187,2.081-.535.414-.347.622-.861.622-1.54,0-.781-.225-1.343-.673-1.686-.448-.344-1.172-.516-2.17-.516h-2.182v4.277ZM174.999,134.863v4.429h2.918c.803,0,1.421-.184,1.853-.553.432-.368.648-.886.648-1.555,0-1.539-.766-2.313-2.297-2.322h-3.122Z"/><polygon class="cls-9" points="192.023 139.293 199.776 139.293 199.776 142.719 187.569 142.719 187.569 124.242 192.023 124.242 192.023 139.293"/><polygon class="cls-9" points="213.376 134.876 206.37 134.876 206.37 139.293 214.645 139.293 214.645 142.719 201.915 142.719 201.915 124.241 214.67 124.241 214.67 127.681 206.37 127.681 206.37 131.576 213.376 131.576 213.376 134.876"/><path class="cls-9" d="M42.047,167.71v-18.104h5.832c1.599,0,3.039.362,4.316,1.087,1.276.725,2.273,1.749,2.99,3.072.717,1.322,1.08,2.804,1.089,4.445v.833c0,1.659-.351,3.145-1.051,4.458-.701,1.314-1.687,2.342-2.96,3.084-1.273.742-2.692,1.117-4.258,1.125h-5.956ZM46.412,152.975v11.378h1.518c1.251,0,2.213-.445,2.884-1.337.671-.891,1.007-2.215,1.007-3.973v-.782c0-1.749-.335-3.068-1.007-3.954-.672-.887-1.649-1.331-2.935-1.331h-1.467Z"/><polygon class="cls-9" points="68.782 160.025 62.373 160.025 62.373 164.352 70.026 164.352 70.026 167.71 58.01 167.71 58.01 149.605 70.05 149.605 70.05 152.975 62.373 152.975 62.373 156.792 68.782 156.792 68.782 160.025"/><polygon class="cls-9" points="79.596 162.785 83.203 149.605 88.076 149.605 81.983 167.71 77.209 167.71 71.165 149.605 76.003 149.605 79.596 162.785"/><polygon class="cls-9" points="100.105 160.025 93.759 160.025 93.759 164.352 101.349 164.352 101.349 167.71 89.395 167.71 89.395 149.605 101.374 149.605 101.374 152.975 93.759 152.975 93.759 156.792 100.105 156.792 100.105 160.025"/><polygon class="cls-9" points="107.214 164.352 114.121 164.352 114.121 167.71 102.849 167.71 102.849 149.606 107.214 149.606 107.214 164.352"/><path class="cls-9" d="M130.357,159.03c0,1.766-.326,3.329-.982,4.688-.655,1.36-1.586,2.406-2.791,3.141-1.206.734-2.58,1.1-4.122,1.1s-2.91-.354-4.104-1.063c-1.193-.709-2.123-1.723-2.79-3.04-.668-1.318-1.018-2.831-1.051-4.539v-1.02c0-1.774.325-3.339.976-4.694.65-1.356,1.583-2.401,2.798-3.139,1.214-.738,2.596-1.108,4.147-1.108,1.533,0,2.901.366,4.104,1.095,1.201.729,2.136,1.767,2.804,3.114.667,1.347,1.005,2.891,1.012,4.632v.833ZM125.92,158.272c0-1.798-.301-3.165-.902-4.097-.602-.933-1.461-1.399-2.58-1.399-2.189,0-3.345,1.641-3.469,4.923l-.012,1.331c0,1.774.295,3.138.883,4.091.588.954,1.463,1.43,2.623,1.43,1.102,0,1.952-.469,2.548-1.406.597-.936.9-2.283.909-4.04v-.834Z"/><path class="cls-9" d="M136.456,161.567v6.143h-4.365v-18.104h7.224c1.385,0,2.609.255,3.674.765,1.065.51,1.89,1.236,2.475,2.175.585.941.876,2.009.876,3.203,0,1.765-.632,3.177-1.896,4.234-1.264,1.057-2.998,1.585-5.204,1.585h-2.784ZM136.456,158.197h2.86c.846,0,1.489-.211,1.934-.634.443-.422.666-1.019.666-1.791,0-.845-.229-1.521-.685-2.026-.456-.506-1.078-.763-1.865-.772h-2.909v5.222Z"/><polygon class="cls-9" points="153.675 149.605 157.715 162.201 161.745 149.605 167.489 149.605 167.489 167.71 163.112 167.71 163.112 163.482 163.535 154.828 159.158 167.71 156.273 167.71 151.883 154.815 152.306 163.482 152.306 167.71 147.942 167.71 147.942 149.605 153.675 149.605"/><polygon class="cls-9" points="180.224 160.025 173.798 160.025 173.798 164.352 181.468 164.352 181.468 167.71 169.433 167.71 169.433 149.605 181.493 149.605 181.493 152.975 173.798 152.975 173.798 156.792 180.224 156.792 180.224 160.025"/><polygon class="cls-9" points="198.056 167.71 193.717 167.71 187.301 156.445 187.301 167.71 182.937 167.71 182.937 149.606 187.301 149.606 193.705 160.87 193.705 149.606 198.056 149.606 198.056 167.71"/><polygon class="cls-9" points="214.67 152.975 209.235 152.975 209.235 167.71 204.87 167.71 204.87 152.975 199.536 152.975 199.536 149.606 214.67 149.606 214.67 152.975"/><polygon class="cls-10" points="169.692 47.954 146.431 71.215 135.788 60.572 121.621 74.738 146.431 99.548 183.858 62.12 169.692 47.954"/><rect class="cls-22" x="113.947" y="86.093" width="35.086" height="7.173" transform="translate(101.925 -66.711) rotate(45)"/><rect class="cls-4" x="140.517" y="48.302" width="7.723" height="16.266" transform="translate(2.382 118.621) rotate(-45)"/><polygon class="cls-8" points="167.027 45.289 141.358 19.62 98.858 62.12 113.025 76.287 141.358 47.954 152.86 59.455 167.027 45.289"/><polygon class="cls-14" points="210.802 37.925 210.802 33.942 192.429 33.942 192.429 37.925 199.247 37.925 199.247 58.416 203.984 58.416 203.984 37.925 210.802 37.925"/><path class="cls-14" d="M223.504,33.619c-7.4,0-11.475,3.836-11.475,10.801v3.517c0,6.965,4.075,10.801,11.475,10.801s11.519-3.836,11.519-10.801v-3.517c0-6.965-4.091-10.801-11.519-10.801ZM230.287,47.937c0,4.612-2.22,6.854-6.787,6.854-4.531,0-6.734-2.242-6.734-6.854v-3.517c0-4.612,2.203-6.854,6.734-6.854,4.567,0,6.787,2.242,6.787,6.854v3.517Z"/><path class="cls-14" d="M246.856,58.738c5.258,0,8.397-2.643,8.397-7.07,0-4.097-2.003-6.122-7.391-7.468-3.16-.79-4.989-1.659-4.989-3.764,0-1.824,1.321-2.87,3.624-2.87,2.359,0,3.752.69,4.919,2.452l3.534-2.524c-1.716-2.571-4.571-3.875-8.488-3.875-5.291,0-8.326,2.485-8.326,6.818,0,3.919,2.225,6.256,7.214,7.577,3.862,1,5.166,1.977,5.166,3.87,0,1.086-.518,2.907-3.984,2.907-2.409,0-3.987-.705-5.41-2.426l-3.606,2.494c2.101,2.682,4.99,3.88,9.339,3.88Z"/><polygon class="cls-14" points="274.807 58.416 279.545 58.416 279.545 33.942 274.807 33.942 274.807 43.774 263.593 43.774 263.593 33.942 258.857 33.942 258.857 58.416 263.593 58.416 263.593 47.722 274.807 47.722 274.807 58.416"/><rect class="cls-14" x="285.42" y="33.942" width="4.737" height="24.474"/><polygon class="cls-14" points="311.368 58.416 315.348 58.416 315.348 33.942 310.862 33.942 310.862 49.799 299.975 33.942 296.031 33.942 296.031 58.416 300.517 58.416 300.517 42.777 311.368 58.416"/><polygon class="cls-14" points="221.568 65.825 217.028 75.235 212.524 65.825 207.039 65.825 214.66 80.287 214.66 90.299 219.397 90.299 219.397 80.287 227.018 65.825 221.568 65.825"/><path class="cls-14" d="M239.611,90.622c6.04,0,9.366-3.632,9.366-10.227v-14.569h-4.737v14.605c0,4.318-1.428,6.244-4.629,6.244s-4.629-1.925-4.629-6.244v-14.605h-4.737v14.605c0,8.868,5.868,10.192,9.366,10.192Z"/><polygon class="cls-14" points="261.981 79.744 268.364 90.299 274.02 90.299 265.06 75.685 272.516 65.825 266.92 65.825 258.881 76.814 258.881 65.825 254.144 65.825 254.144 90.299 258.881 90.299 258.881 83.827 261.981 79.744"/><polygon class="cls-14" points="281.856 69.809 292.263 69.809 292.263 65.825 277.119 65.825 277.119 90.299 292.263 90.299 292.263 86.351 281.856 86.351 281.856 79.605 291.186 79.605 291.186 75.657 281.856 75.657 281.856 69.809"/><path class="cls-14" d="M203.984,85.849v-20.024h-4.737v20.024c0,4.078-1.112,5.741-3.839,5.741h-2.978v3.948h3.301c5.554,0,8.254-3.17,8.254-9.689Z"/><polygon class="cls-14" points="311.368 90.299 315.348 90.299 315.348 65.825 310.862 65.825 310.862 81.682 299.975 65.825 296.031 65.825 296.031 90.299 300.517 90.299 300.517 74.661 311.368 90.299"/></svg>