<svg id="レイヤー_1" data-name="レイヤー 1" xmlns="http://www.w3.org/2000/svg" viewBox="0 0 748.5 79.553"><defs><style>.cls-1{fill:#ff64a5;stroke:#ed6fa4;stroke-miterlimit:10;stroke-width:0.5px;}</style></defs><path class="cls-1" d="M210.751,9.8h-4.7V7.764h4.732V1.118h2.275V7.764h1.916c2.007,0,4.822.39,5.9,3.653a16.112,16.112,0,0,1,.509,5.089,16.394,16.394,0,0,1-.509,5.03c-1.108,3.383-3.713,3.623-6.858,3.623V23.033c3.713,0,4.193-.838,4.642-2.275a12.991,12.991,0,0,0,.42-4.252,13.4,13.4,0,0,0-.42-4.371c-.419-1.347-1.228-2.335-3.684-2.335h-1.945c-.181,6.228-1.109,7.815-4.763,14.97l-2.006-.988C209.943,16.6,210.631,15.4,210.751,9.8ZM223,7.106l1.587-1.5c3.5,2.665,3.893,4.581,3.893,11.466h-2.216C226.263,10.16,225.7,9.411,223,7.106Z"/><path class="cls-1" d="M242.944,19.8c-.21,2.814,1.767,4.012,4.553,4.012a22.1,22.1,0,0,0,2.665-.21v2.066a23.869,23.869,0,0,1-2.665.239c-4.1,0-7.038-2.036-6.739-6.257.18-2.725,2.4-4.94,4.731-7.125h-11.05v-1.8h5.241L246.6,3.962h-8.055V2.076h11.5V3.454l-7.487,7.275h11.589v1.8h-5.75C245.43,15.279,243.124,17.344,242.944,19.8ZM253.365,9.261h-1.707V4.651h1.707Zm3.684.03h-1.707V4.681h1.707Z"/><path class="cls-1" d="M266.573,16.177a3.687,3.687,0,0,1-.179-4.4c1.677-2.246,4.851-6.767,7.756-10.988l1.917,1.287c-2.845,4.192-6.11,8.682-7.876,10.988a1.491,1.491,0,0,0,.059,1.676c2.067,2.305,5.721,6.737,8.176,10.209l-1.946,1.257C272.054,22.793,268.49,18.422,266.573,16.177Z"/><path class="cls-1" d="M307.152,17.255a7.8,7.8,0,0,0-.36-7.874,8.071,8.071,0,0,0-5.929-3.623,36.122,36.122,0,0,1-1.048,7.516,23.183,23.183,0,0,1-2.9,7.3c-1.976,2.994-4.971,3.084-6.8,1.377-1.977-1.886-2.186-5.03-2.1-6.706A11.957,11.957,0,0,1,299.964,3.693a10.28,10.28,0,0,1,8.775,4.52,10.131,10.131,0,0,1,.509,10.06c-2.1,4.162-5.69,6.168-10.362,6.347l-.09-2.185C302.69,22.105,305.415,20.848,307.152,17.255ZM298.527,5.819a9.959,9.959,0,0,0-8.235,9.55c-.06.808-.06,3.682,1.407,5.089,1.078,1.048,2.426.36,3.294-1.017A22.264,22.264,0,0,0,297.6,12.7,39.481,39.481,0,0,0,298.527,5.819Z"/><path class="cls-1" d="M325.39,13.243V26.536h-2.036V13.243H320c-.03,5.06-.569,9.85-3.953,13.982l-1.5-1.647c2.845-3.293,3.414-8.083,3.444-12.335h-3.923V11.358h3.923v-7.6h-3.2V1.867h13.835V3.753H325.3v7.605h3.922v1.885Zm-2.1-9.49H320v7.605h3.294Zm13.447,3.622,1.886,1.078a24.488,24.488,0,0,1-10.063,10.059l-1.347-1.856A20.709,20.709,0,0,0,336.741,7.375ZM335.512.669l2.007,1.108a22.717,22.717,0,0,1-8.774,8.623l-1.408-1.678h.03A18.869,18.869,0,0,0,335.512.669Zm2.366,13.742,1.887,1.137a27.674,27.674,0,0,1-10.871,11.018l-1.407-1.856A24.791,24.791,0,0,0,337.878,14.411Z"/><path class="cls-1" d="M348.9,23.722l-1.827,1.347c-1.976-2.634-2.275-3.443-2.275-7.155V2.884h2.156v15.03C346.953,21.447,347.222,21.626,348.9,23.722Zm9.194-1.976h6.558v2.186h-6.708c-4.582,0-5.929-2.874-5.48-7.575h2.275C354.41,20.159,355.008,21.746,358.093,21.746Zm-4.7-16.077h10.541V7.914H353.391Z"/><path class="cls-1" d="M382.739,25.608c-4.312,0-7.067-1.287-8.055-3.653a4.091,4.091,0,0,1,.149-3.592c.9-1.676,2.726-2.485,5.78-2.545a14.723,14.723,0,0,1,4.7.9,12.12,12.12,0,0,1-1.677-5.149h-9.733V9.531h9.553c-.06-.659-.06-1.167-.06-3.533h-9.493V3.873H383.4V.25h2.216V3.873h5.151V6h-5.151c0,2.455,0,2.964.03,3.533h5.211v2.036h-5.032a8.879,8.879,0,0,0,2.636,5.6h-.03l-1.138,1.767a28.335,28.335,0,0,0-6.528-1.228c-2.276.09-3.414.659-3.894,1.707a2.043,2.043,0,0,0-.119,1.676c.539,1.377,1.916,2.066,4.162,2.335a28.771,28.771,0,0,0,6.349-.149v2.036A27.493,27.493,0,0,1,382.739,25.608Z"/><path class="cls-1" d="M411.37,20.548c-.09,3.293-1.408,4.881-4.582,4.881-3.264,0-6.468-1.947-5.361-5.24.48-1.377,1.977-2.306,4.133-2.574a10.7,10.7,0,0,1,3.624.119V12.5h-7.4V10.459h7.4V5.939H401.4V3.873h7.786V.31h2.186V3.873h6.978V5.939H411.37v4.52H417.9V12.5H411.37v5.868a26.911,26.911,0,0,1,7.4,4.1l-1.318,1.707A26.26,26.26,0,0,0,411.37,20.548Zm-5.51-.658c-.928.119-2.067.568-2.246,1.406-.3,1.259,1.617,2.007,3.174,2.007,2.186,0,2.425-1.078,2.4-3.234A10.066,10.066,0,0,0,405.86,19.89Z"/><path class="cls-1" d="M439.34,2.016c3.355.479,5.151,3.2,5.151,8.533,0,3.113-.24,6.376-1.737,9.191a29.176,29.176,0,0,1-4.641,6.108l-1.707-1.5a24.631,24.631,0,0,0,4.192-5.51c1.468-2.6,1.587-5.628,1.587-8.292,0-3.922-1.168-6.347-3.144-6.587-1.917-.358-3.414,1.947-4.732,4.491a20.46,20.46,0,0,0-2.515,8.263h-2.007V1.957h2.127V9.591C433.351,5.19,435.926,1.538,439.34,2.016Z"/><path class="cls-1" d="M458.508,23.063,456.77,24.41c-2.515-3.143-2.365-4.1-2.365-6.765V3.454h2.156V17.5C456.561,20.1,456.412,20.4,458.508,23.063Zm12.7-2.424c-.15,2.933-1.707,4.131-4.282,4.131a6.782,6.782,0,0,1-2.7-.539c-1.646-.718-2.964-2.365-2.3-4.312.748-2.036,2.934-2.484,4.641-2.484a14.553,14.553,0,0,1,2.456.239V8.783h-7.846V6.747h7.846V1.178h2.215V6.747h4.343V8.783h-4.343v9.7a29.988,29.988,0,0,1,5.331,3.263l-1.227,1.676C472.972,21.746,472.1,21.207,471.205,20.639ZM466.713,19.5a2.9,2.9,0,0,0-2.606.928c-.539.929.419,1.827,1.318,2.127a5.4,5.4,0,0,0,1.5.238c1.916,0,2.1-.838,2.1-2.6V19.77A10.586,10.586,0,0,0,466.713,19.5Z"/><path class="cls-1" d="M486.208,6.836H482.5v-2.1h4.4c.45-1.617.839-3.114,1.079-3.922l2.156.509c-.18.6-.51,1.886-.929,3.413h3.983v2.1h-4.641a75.473,75.473,0,0,1-5.81,14.072L480.759,19.8A69.919,69.919,0,0,0,486.208,6.836Zm11.59,8.653v3.742a35.256,35.256,0,0,1,5.659,2.9l-1.077,1.826a40.724,40.724,0,0,0-4.582-2.514c.029,2.994-1.558,4.31-4.343,4.31s-6.228-1.916-5.15-5c.479-1.317,1.886-2.216,3.982-2.455a8.845,8.845,0,0,1,3.385.239V15.4a5.522,5.522,0,0,1,1.378-4.192c-3.145,0-3.834.3-5.63,1.438l-1.109-1.617a8.966,8.966,0,0,1,5.331-1.587l6.738.12V11.3h-2.036C498.816,11.3,497.738,12.615,497.8,15.489Zm-4.492,4.73a6.308,6.308,0,0,0-1.886.3,1.509,1.509,0,0,0-1.168,1.347c.029,1.586,2.694,1.886,3.264,1.886,1.827,0,2.275-.959,2.275-2.575v-.569A9.152,9.152,0,0,0,493.306,20.219Z"/><path class="cls-1" d="M509.987,15.1V4.951h2.395V15.1c0,5.089.6,5.3,4.1,7.693l-1.347,1.887C510.646,21.6,509.987,20.548,509.987,15.1ZM524.63,7.975l1.887-1.348c3.564,4.072,3.773,5.389,3.773,9.879V19.98H527.9V16.506C527.9,12.016,527.715,11.477,524.63,7.975Z"/><path class="cls-1" d="M539.515,19.411a3.7,3.7,0,0,1,2.1,3.5,3.811,3.811,0,0,1-.449,1.8,3.743,3.743,0,0,1-3.534,2.186,4.012,4.012,0,0,1-1.886-.48,3.711,3.711,0,0,1-2.1-3.533,3.93,3.93,0,0,1,1.228-2.844,3.97,3.97,0,0,1,4.641-.628Zm-3.563,1.676a2.339,2.339,0,0,0-.779,1.826,2.629,2.629,0,0,0,.21,1.048,2.326,2.326,0,0,0,2.246,1.407,2.381,2.381,0,0,0,1.288-.359,2.273,2.273,0,0,0,1.168-2.1,2.254,2.254,0,0,0-1.348-2.215,2.4,2.4,0,0,0-1.108-.24A2.306,2.306,0,0,0,535.952,21.087Z"/><path class="cls-1" d="M8.755,71.944c-.21,2.815,1.767,4.013,4.552,4.013a22.08,22.08,0,0,0,2.665-.21v2.065a23.634,23.634,0,0,1-2.665.24c-4.1,0-7.037-2.036-6.738-6.257.179-2.605,2.4-4.94,4.731-7.125H.25v-1.8H5.371l6.918-6.767H4.353V54.221h11.5V55.6L8.366,62.874H19.955v1.8h-5.75C11.241,67.424,8.935,69.609,8.755,71.944Z"/><path class="cls-1" d="M28.64,77.513,26.6,76.466c3.8-6.946,4.912-8.893,5.031-16.5H27.262V57.964h4.372V52.9H33.97v5.06h4.881V59.97h-4.91C33.821,68.2,32.444,70.567,28.64,77.513Zm8.445-5.15V71.256h2.246v1.107c0,2.276,2.725,2.426,5.33,2.426h2.965v2.126H44.721C40.708,76.915,37.085,76.256,37.085,72.363Zm10.062-8.95v2.005H37.923V63.413ZM43.014,60H41.247V55.359h1.767Zm3.713.029H44.961v-4.64h1.766Z"/><path class="cls-1" d="M74.938,66.2a8.7,8.7,0,0,1-4.492,7.036c-2.425,1.5-5.12,2.245-9.762,2.245V73.232c5.929,0,11.679-2.246,11.889-7.125.15-4.042-2.725-5.359-6.827-5.359H54.9V58.473H65.746C71.675,58.473,75.119,61.137,74.938,66.2Z"/><path class="cls-1" d="M100.573,58.682c0,8.832-4.222,12.724-12.607,18.921l-1.587-1.8c8.325-6.137,11.559-9.55,11.739-16.586h-15V56.886h17.458Zm2.7-1.318a3.136,3.136,0,0,1-3.174-3.083,3.159,3.159,0,1,1,6.318,0A3.131,3.131,0,0,1,103.269,57.364Zm0-4.939a1.859,1.859,0,0,0-1.827,1.856,1.833,1.833,0,0,0,1.827,1.826,1.88,1.88,0,0,0,1.857-1.826A1.951,1.951,0,0,0,103.269,52.425Z"/><path class="cls-1" d="M110.727,76.077V56.945h18.806V76.077ZM113.033,59.1v14.85h14.195V59.1Z"/><path class="cls-1" d="M147.561,55.9v2.335h-7.695V55.9Zm-7.695,7.963V61.616h7.695v2.245Zm17.219,1.228c-3.144,6.377-5.78,11.885-14.344,11.885h-2.187V74.789h2.187c7.007,0,9.1-4.58,12.158-10.688.838-1.617,1.467-3.084,1.467-3.084l2.126.988S157.414,64.4,157.085,65.089Zm-1.976-5.239H153.4V55.239h1.707Zm3.742.03h-1.707V55.269h1.707Z"/><path class="cls-1" d="M182.54,61.347v2H176.4v9.7h8v2.035H166.069V73.053h8v-9.7h-6.139v-2Z"/><path class="cls-1" d="M209.1,60.029H201.8c-1.258,2.365-3.025,4.162-6.948,6.916l-1.377-1.8c7.217-5.149,7.247-7.785,7.247-11.826h2.4a15.882,15.882,0,0,1-.448,4.521H211.5V59.88c0,6.346-4.073,11.407-14.794,18.083l-1.317-1.886C205.24,69.879,208.984,65.448,209.1,60.029Z"/><path class="cls-1" d="M238.991,68.531l-1.318,1.947a86.167,86.167,0,0,0-9.882-6.078V77.812h-2.306V53.323h2.306v8.8A96.022,96.022,0,0,1,238.991,68.531Z"/><path class="cls-1" d="M251.87,75.208l-1.737,1.347c-2.516-3.143-2.366-4.1-2.366-6.765V55.6h2.156V69.639C249.923,72.245,249.774,72.544,251.87,75.208Zm12.7-2.424c-.15,2.933-1.707,4.131-4.282,4.131a6.782,6.782,0,0,1-2.7-.539c-1.646-.718-2.964-2.365-2.305-4.312.748-2.036,2.934-2.484,4.641-2.484a14.553,14.553,0,0,1,2.456.239V60.928h-7.846V58.892h7.846V53.323H264.6v5.569h4.343v2.036H264.6v9.7a29.988,29.988,0,0,1,5.331,3.263L268.7,75.567C266.334,73.891,265.465,73.352,264.567,72.784Zm-4.492-1.139a2.9,2.9,0,0,0-2.606.928c-.539.929.419,1.826,1.318,2.127a5.4,5.4,0,0,0,1.5.238c1.916,0,2.1-.838,2.1-2.6v-.419A10.586,10.586,0,0,0,260.075,71.645Z"/><path class="cls-1" d="M271.785,72.873l1.917-1.647a34.518,34.518,0,0,1,5.06,5.779l-2.1,1.8A29.984,29.984,0,0,0,271.785,72.873Z"/><path class="cls-1" d="M303.349,67.245V57.1h2.4v10.15c0,5.089.6,5.3,4.1,7.693L308.5,76.825C304.008,73.742,303.349,72.693,303.349,67.245Zm14.643-7.125,1.887-1.348c3.564,4.072,3.773,5.389,3.773,9.879v3.474h-2.395V68.651C321.257,64.161,321.077,63.622,317.992,60.12Z"/><path class="cls-1" d="M344.377,74.909a5.188,5.188,0,0,0,2.9-5.509c-.389-2.036-2.7-2.994-4.612-3.174-1.976-.179-5.121.42-9.044,2.486L332.309,67.3l10.6-11.017h-9.1V54.281h12.4v1.586l-9.223,9.491a12.721,12.721,0,0,1,5.809-1.078c2.726.21,6.11,1.5,6.769,4.671a7.113,7.113,0,0,1-4.163,7.814c-3.145,1.467-6.288,1.047-9.672.359V75.058C338.987,75.776,342.071,76.016,344.377,74.909Z"/><path class="cls-1" d="M358.453,67.245V57.1h2.4v10.15c0,5.089.6,5.3,4.1,7.693L363.6,76.825C359.111,73.742,358.453,72.693,358.453,67.245ZM373.1,60.12l1.887-1.348c3.563,4.072,3.773,5.389,3.773,9.879v3.474h-2.395V68.651C376.361,64.161,376.18,63.622,373.1,60.12Z"/><path class="cls-1" d="M399.48,74.909a5.187,5.187,0,0,0,2.9-5.509c-.389-2.036-2.695-2.994-4.612-3.174-1.976-.179-5.12.42-9.044,2.486L387.412,67.3l10.6-11.017h-9.1V54.281h12.4v1.586l-9.223,9.491a12.717,12.717,0,0,1,5.809-1.078c2.726.21,6.11,1.5,6.769,4.671a7.113,7.113,0,0,1-4.163,7.814c-3.145,1.467-6.289,1.047-9.673.359V75.058C394.09,75.776,397.175,76.016,399.48,74.909Z"/><path class="cls-1" d="M417.329,58.981h-3.713V56.886h4.4c.449-1.617.838-3.114,1.078-3.922l2.157.509c-.181.6-.51,1.886-.929,3.413h3.983v2.095h-4.641a75.5,75.5,0,0,1-5.811,14.072l-1.976-1.109A69.815,69.815,0,0,0,417.329,58.981Zm11.59,8.653v3.742a35.3,35.3,0,0,1,5.659,2.9L433.5,76.106a40.811,40.811,0,0,0-4.582-2.514c.029,2.993-1.558,4.31-4.343,4.31s-6.228-1.916-5.15-5c.478-1.316,1.886-2.215,3.982-2.455a8.867,8.867,0,0,1,3.385.24V67.544a5.522,5.522,0,0,1,1.377-4.192c-3.145,0-3.833.3-5.63,1.438l-1.108-1.617a8.962,8.962,0,0,1,5.331-1.587l6.738.12v1.736h-2.037C429.937,63.442,428.858,64.76,428.919,67.634Zm-4.492,4.729a6.322,6.322,0,0,0-1.887.3,1.51,1.51,0,0,0-1.168,1.347c.03,1.586,2.695,1.885,3.264,1.885,1.827,0,2.276-.958,2.276-2.574v-.569A9.169,9.169,0,0,0,424.427,72.363Z"/><path class="cls-1" d="M453.475,64.49a6.471,6.471,0,0,1,5.181,2.1,6.539,6.539,0,0,1-.24,8.682c-2.1,2.215-5.689,2.125-7.666,2.066V75.328c2.695.06,4.852-.359,5.959-1.557a4.41,4.41,0,0,0,.24-5.718,4.848,4.848,0,0,0-3.923-1.647,10.471,10.471,0,0,0-4.881,1.258v6.078a3.427,3.427,0,0,1-1.228,2.933,3.314,3.314,0,0,1-3.085.21,4.8,4.8,0,0,1-3.054-4.192,4.708,4.708,0,0,1,1.438-3.442,16.778,16.778,0,0,1,3.742-2.755V59.939h-4.551V57.844h4.551V53.922h2.187v3.922h4.132v2.095h-4.132v5.718A11.873,11.873,0,0,1,453.475,64.49Zm-10.331,7.275a2.6,2.6,0,0,0,1.467,3.144c1.048.389,1.347-.09,1.347-1.108V68.832C444.7,69.639,443.5,70.538,443.144,71.765Zm10.69-9.849V59.909c4.433,0,5.361.24,7.7,2.725l-1.677,1.407C458.147,62.305,457.937,61.916,453.834,61.916Z"/><path class="cls-1" d="M489.892,75.058h-2.126c-.33-3.771-2.546-6.466-6.768-6.885,2.006,3.233,2.006,5.718.508,7.424-2.036,2.485-5.3,2.036-8.8,1.257L473.152,75c3.953.838,5.66.568,6.708-.659,1.557-1.977-.539-4.91-1.348-6.047-4.432.748-7.785,4.131-10.151,6.765l-1.468-1.526c2.516-2.695,5.989-5.959,10.511-6.976-.329-.569-1.647-2.455-1.647-2.455-2.066-2.934-1.018-5.389,2.186-6.617l-2.964-2.274,1.288-1.617,7.4,5.748-1.258,1.617-2.755-2.126c-3.114,1.018-3.324,2.335-2.1,4.221l2.187,3.2C485.549,65.718,489.443,69.639,489.892,75.058Z"/><path class="cls-1" d="M497.139,77.513,495.1,76.466c3.8-6.946,4.911-8.893,5.031-16.5h-4.492V57.964h4.492V52.9h2.336v5.06h5.241V59.97h-5.272C502.321,68.2,500.942,70.567,497.139,77.513Zm8.445-5.15V71.256h2.246v1.107c0,2.276,2.725,2.426,5.331,2.426h2.964v2.126h-2.9C509.208,76.915,505.584,76.256,505.584,72.363Zm10.062-8.95v2.005h-9.223V63.413Z"/><path class="cls-1" d="M535.772,54.161c3.354.479,5.151,3.2,5.151,8.533,0,3.113-.24,6.376-1.737,9.191a29.173,29.173,0,0,1-4.642,6.108l-1.707-1.5a24.6,24.6,0,0,0,4.192-5.51c1.468-2.6,1.587-5.628,1.587-8.292,0-3.922-1.168-6.347-3.144-6.587-1.916-.358-3.414,1.947-4.732,4.491a20.476,20.476,0,0,0-2.515,8.263h-2.006V54.1h2.126v7.634C529.782,57.335,532.358,53.682,535.772,54.161Z"/><path class="cls-1" d="M549.1,73.262l-1.228-2.215A34.02,34.02,0,0,0,552.243,60.3h-3.8V58.413h4.073V52.1h1.976v6.317h3.145V60.3h-3.145v3.472a33.884,33.884,0,0,1,3.654,4.1L556.945,70c-.809-1.348-1.647-2.6-2.456-3.712V78.98h-1.976V64.88A37.61,37.61,0,0,1,549.1,73.262Zm14.344-2.485.389,1.856a33.868,33.868,0,0,1-6.2,4.252l-.989-2.006h.031A34.879,34.879,0,0,0,563.443,70.777Zm.569,8.233a25.188,25.188,0,0,1-3.084-.24l-.3-2.125a14.058,14.058,0,0,0,2.695.329c.539,0,.9-.239.9-.838V65.868h-6.858V64.131h6.858V62.036h-5.391V60.358h5.391V58.322h-6.409V56.587h8.535a38.365,38.365,0,0,0,1.886-4.491l2.186.748a37.438,37.438,0,0,1-1.976,3.743h4.462v1.735H566.2v2.036h5.6v1.678h-5.6v2.095h7.367v1.737H566.5A21.765,21.765,0,0,0,568.444,70a16.905,16.905,0,0,0,2.576-3.473l1.8,1.228a32.1,32.1,0,0,1-3.324,3.652,18.669,18.669,0,0,0,4.492,4.042l-1.318,1.945A20.732,20.732,0,0,1,566.2,69.28v7.605C566.2,78.561,565.689,79.01,564.012,79.01Zm-5.36-10.868L560,66.855a19.439,19.439,0,0,1,3.114,2.964l-1.437,1.407h-.06A19.246,19.246,0,0,0,558.652,68.142Zm1.228-15.149,1.826-.867a17.356,17.356,0,0,1,2.007,3.383l-1.827,1.017h-.06A15.537,15.537,0,0,0,559.88,52.993Z"/><path class="cls-1" d="M587.7,62.664a3.77,3.77,0,0,1,4.013,2.784c1.558-.658,3.084-1.257,5.241-2.126l.868,1.946c-2.186.869-4.043,1.617-5.66,2.336v4.431h-2.156V68.442c-2.485,1.317-6.019,2.994-5.091,5.538.719,1.977,4.073,1.857,5.18,1.857a51.291,51.291,0,0,0,5.721-.48l.09,2.126a47.456,47.456,0,0,1-5.929.48c-3.953.03-6.23-.989-7.1-2.994-1.827-4.371,3.5-6.857,6.888-8.712A1.964,1.964,0,0,0,587.7,64.61h-3.773l.868-6.556h-5.21V56.018h5.509l.48-3.593h2.246l-.509,3.593h7.606v2.036h-7.906l-.6,4.61Z"/><path class="cls-1" d="M608.065,63.263c0,5.388-.059,10.658-2.784,15.538L603.6,76.915c2.156-3.952,2.307-8.533,2.307-12.934V56.287h10.121V52.365h2.216v3.922h9.882v2.006H608.065Zm2.456,2.6,2.066.568A37.681,37.681,0,0,1,610.1,76.645l-1.916-1.288A33.882,33.882,0,0,0,610.521,65.868Zm6.2,10.209a7.519,7.519,0,0,0,2.006.209c.569,0,2.067-.03,2.486-.539.419-.748.48-4.131.48-4.97l2.155.629c-.06.988-.179,5.06-.778,5.838-.779,1.048-3.175,1.107-4.343,1.107a10.552,10.552,0,0,1-3.593-.508,1.777,1.777,0,0,1-.9-1.677V64.191h2.035V74.938C616.27,75.357,616.331,75.867,616.72,76.077ZM614.8,60.539l1.438-1.438a35.149,35.149,0,0,1,4.821,4.611l-1.527,1.646h-.06A27.333,27.333,0,0,0,614.8,60.539Zm7.517,5.388,1.856-1.078a56.051,56.051,0,0,1,4.732,9.371l-1.946,1.347h-.06A55.825,55.825,0,0,0,622.32,65.927Z"/><path class="cls-1" d="M636.665,67.664h.03v9.19c0,1.678-.659,2.126-2.336,2.126a17.67,17.67,0,0,1-2.576-.179l-.359-2.156a13.962,13.962,0,0,0,2.426.27.766.766,0,0,0,.869-.838V68.472c-.839.3-1.738.659-2.576.928l-.749.239-.688-1.946q2.02-.584,4.043-1.347h-.03V60.059h-3.594V58.113h3.594V52.066H636.7v6.047h3.084v1.946H636.7V65.6c.958-.389,1.946-.808,2.9-1.227l.179,1.886C638.761,66.765,637.713,67.215,636.665,67.664ZM650.8,74.639a21.355,21.355,0,0,0,5.839,2.276l-1.288,1.855a19.374,19.374,0,0,1-5.869-2.843,19.951,19.951,0,0,1-5.929,3.323l-1.2-1.8a16.206,16.206,0,0,0,5.629-2.635,18.383,18.383,0,0,1-3.383-4.042,20.733,20.733,0,0,1-4.912,8.2l-1.257-1.616a19.961,19.961,0,0,0,5.241-10.688h-3.534v-1.8h3.8a4.876,4.876,0,0,1,.06-.659c.059-.509.12-1.108.149-1.617H640.5V60.867h9.583a33.4,33.4,0,0,0,2.395-5.628l2.157.838a40.127,40.127,0,0,1-2.456,4.79h3.115V62.6h-9.224c-.06.748-.06,1.527-.18,2.276h10.3v1.8H645.619c-.12.688-.239,1.377-.42,2.036h7.847l1.048.927A19.3,19.3,0,0,1,650.8,74.639ZM640.438,55.808l-.778-1.8h.029a54.174,54.174,0,0,0,13.446-1.737l1.707,1.737A95.611,95.611,0,0,1,640.438,55.808Zm.958.928,1.8-.688A13.75,13.75,0,0,1,645.229,60l-1.946.718h-.06A12.715,12.715,0,0,0,641.4,56.736Zm4.253-.6,1.946-.658a21.034,21.034,0,0,1,1.707,4.34l-1.916.749h-.031A19.981,19.981,0,0,0,645.649,56.137ZM649.3,73.592a14.85,14.85,0,0,0,2.216-3.145h-5.241A16.764,16.764,0,0,0,649.3,73.592Z"/><path class="cls-1" d="M670.476,77.693c-3.354,0-6.109-2.066-6.109-6.317V54.161h2.366V71.376c0,2.455,1.108,4.162,3.653,4.162,2.365,0,5.69-1.318,9.4-6.228l1.617,1.467C677.872,75.538,674.1,77.693,670.476,77.693Z"/><path class="cls-1" d="M700.662,72.693c-.089,3.293-1.407,4.881-4.581,4.881-3.264,0-6.468-1.947-5.361-5.24.48-1.377,1.977-2.306,4.133-2.575a10.725,10.725,0,0,1,3.624.12V64.64h-7.4V62.6h7.4v-4.52h-7.786V56.018h7.786V52.455h2.185v3.563h6.979v2.066h-6.979V62.6h6.529V64.64h-6.529v5.868a26.918,26.918,0,0,1,7.4,4.1l-1.318,1.707A26.241,26.241,0,0,0,700.662,72.693Zm-5.509-.658c-.928.119-2.067.568-2.246,1.406-.3,1.259,1.617,2.007,3.174,2.007,2.186,0,2.425-1.078,2.4-3.234A10.039,10.039,0,0,0,695.153,72.035Z"/><path class="cls-1" d="M730.191,59.011v9.042c.119,5.388-.03,6.167-4.582,10.748l-1.647-1.437c3.294-3.2,3.863-3.952,4.132-6.108a2.887,2.887,0,0,1-2.4.749c-2.7-.15-4.4-2.366-4.163-5.3.24-2.785,2.066-4.641,4.552-4.611a2.7,2.7,0,0,1,1.857.539V59.011H715.1V57.006h12.848V53.2h2.246v3.8h6.947v2.005Zm-6.5,7.874c-.12,1.288.358,2.994,2.065,3.054,1.737.06,2.336-1.347,2.426-2.694.12-1.617-.629-3.084-2.216-3.084C724.441,64.161,723.782,65.6,723.693,66.885Z"/><path class="cls-1" d="M746.153,71.556a3.7,3.7,0,0,1,2.1,3.5,3.8,3.8,0,0,1-.449,1.8,3.743,3.743,0,0,1-3.534,2.187,4.016,4.016,0,0,1-1.887-.48,3.713,3.713,0,0,1-2.1-3.533,3.93,3.93,0,0,1,1.228-2.844,3.97,3.97,0,0,1,4.641-.628Zm-3.563,1.676a2.339,2.339,0,0,0-.779,1.826,2.629,2.629,0,0,0,.21,1.048,2.326,2.326,0,0,0,2.246,1.407,2.39,2.39,0,0,0,1.288-.359,2.481,2.481,0,0,0-.18-4.311,2.4,2.4,0,0,0-1.108-.24A2.306,2.306,0,0,0,742.59,73.232Z"/></svg>