<svg id="レイヤー_1" data-name="レイヤー 1" xmlns="http://www.w3.org/2000/svg" width="369" viewBox="0 0 246 100"><defs><style>.cls-1{fill:#e9e5d8;}.cls-2{fill:#fff;}.cls-3{fill:#231815;}.cls-4,.cls-8{fill:#008ded;}.cls-5{fill:#ffef00;}.cls-6{fill:#ba8865;}.cls-7{fill:#fff88b;}.cls-8,.cls-9{stroke:#008ded;stroke-linecap:round;stroke-linejoin:round;}.cls-8{stroke-width:0.244px;}.cls-9{fill:none;stroke-width:0.975px;}.cls-10{fill:#e63828;}</style></defs><rect class="cls-1" width="246" height="100"/><path class="cls-2" d="M230.484,28.035a15.02,15.02,0,0,1-15.148,14.8H103.688a15.02,15.02,0,0,1-15.148-14.8,15.021,15.021,0,0,1,15.148-14.8H215.336A15.02,15.02,0,0,1,230.484,28.035Z"/><path class="cls-3" d="M100.541,25.653h20.07V29.16h-20.07Z"/><path class="cls-3" d="M127.527,24.462h-3.071V18.79h8.261V17.361h3.244V18.79h8.326v5.672H141.2v4.525h-5.234a5.075,5.075,0,0,1-.346,1.148h7.526v7.729h-3.179v-.91h-11.2v.866H125.58V30.135h6.661a5.488,5.488,0,0,0,.346-1.148h-5.06ZM141.043,22.6v-1.04H127.7V22.6Zm-12.284,9.98v1.732h11.2V32.581Zm1.773-7.469v1.429h7.613V25.112Z"/><path class="cls-3" d="M156.436,17.275h3.417v1.84h8.608v3.226h-8.673v1.58h7.181V34.053a2.046,2.046,0,0,1-2.055,2.251h-3.395l-.649-3.4h2.357c.433,0,.433-.152.433-.542V27h-3.872V37.907h-3.33V27h-3.7v9.418h-3.309V23.921h7.007v-1.58h-8.629V19.115h8.607Z"/><path class="cls-4" d="M171.506,30.113c1.059-.2,3.135-.8,4-1.061v-4.5h-.974a13.034,13.034,0,0,1-.887,3.723L171.4,26.129c.606-1.861.887-3.291.909-7.447l2.53.065c0,.887,0,1.8-.043,2.641h.714V17.34h3.114v4.048h1.341v3.161h-1.341v3.507c.216-.065,1.276-.411,1.405-.454v3.247c-.3.13-.475.217-1.405.563v6.495h-3.114V32.473c-1,.324-2.7.866-3.547,1.06Zm10.856.974h-1.989V28.056h6.855V26.627h-7.007v-3.1h4.239v-1.58h-3.568V19.007h3.568V17.34h3.266v1.667h3.849v2.944h-3.849v1.58h4.455v3.1h-1.709v1.429h1.514v3.031h-1.514v4.179c0,1.493-.086,2.641-2.271,2.641H184.46l-.476-2.836-1.19.714a16.449,16.449,0,0,0-2.508-3.507ZM184.59,34.7H186.6c.627,0,.627-.39.627-.8V31.087h-3.741a15.535,15.535,0,0,1,2.206,2.966Z"/><path class="cls-4" d="M214.754,37.561a19.594,19.594,0,0,1-7.439-3.486V37.82h-3.2V34.14a21.119,21.119,0,0,1-7.375,3.377l-1.557-3.139a17.889,17.889,0,0,0,6.164-1.667h-5.818V30.069h8.586V29.2h-6.336V24.4c-.411.368-.606.52-1.017.866l-1.579-2.922a11.806,11.806,0,0,0,4.044-5.066l3.461.259c-.152.325-.325.715-.649,1.321h2.855a6.607,6.607,0,0,0,.5-1.58l3.352.151a9.392,9.392,0,0,1-.6,1.429h6.6v2.338h-6.964v.866h6.337v1.472h-6.337v.91h6.337v1.472h-6.337v.909h7.591V29.2h-8.067v.866H215.9v2.642h-5.818a15.5,15.5,0,0,0,6.207,1.732Zm-13.8-16.368v.866h3.849v-.866Zm0,2.338v.91h3.849v-.91Zm0,2.382v.909h3.849v-.909Z"/><polygon class="cls-4" points="141.467 80.223 87.433 80.223 87.433 64.625 114.325 58.838 141.467 64.625 141.467 80.223"/><path class="cls-5" d="M100.974,64.648h11.5v1.869h-4.759V70.7h5.18v1.9h-5.18v4.185h-2.051V72.6h-5.18V70.7h5.18V66.517h-4.694Zm2.445,2.106a18.732,18.732,0,0,1,1.276,3.317l-1.933.579a15.372,15.372,0,0,0-1.17-3.317Zm8.481.54a21.9,21.9,0,0,1-1.434,3.369l-1.853-.619a15.558,15.558,0,0,0,1.314-3.277Z"/><path class="cls-5" d="M126.79,72.861c-.171-.316-.211-.369-.487-.816-.25.026-.763.078-1.748.131v.737h3.694v1.343h-3.694v.737h4.154v1.513h-9.8V74.993h3.695v-.737h-3.142V72.913h3.142v-.644c-.447.012-2.669.092-3.169.092l-.131-1.567c.578,0,.644-.013.881-.013a6.584,6.584,0,0,0,.42-.789H119.1v.394c0,4.16-.828,5.607-1.262,6.37l-1.775-1.342a9.433,9.433,0,0,0,1.078-5.028V64.648h11.11v3.409H119.1v.487h9.611v1.448h-1.6a11.348,11.348,0,0,1,1.433,1.921Zm-.46-6.739H119.1v.619h7.232Zm-1.394,3.87h-2.182c-.211.394-.237.434-.448.789.579,0,1.92,0,3-.092a5.132,5.132,0,0,0-.565-.6Z"/><path class="cls-4" d="M151.572,68.132c-.869.455-1.5.712-2.173,1.008L148.055,66.1a17.053,17.053,0,0,0,8.042-5.2h3.5a16.311,16.311,0,0,0,7.964,5.183l-1.4,3.046a22.578,22.578,0,0,1-2.115-1.009v1.6h-4.7v1.8h5.928v2.709h-5.928v2.137h7.785v2.907H148.47V76.361h7.785V74.224h-5.928V71.515h5.928v-1.8h-4.683Zm10.552-1.207a24.735,24.735,0,0,1-4.327-3.639,20.679,20.679,0,0,1-4.19,3.639Z"/><path class="cls-4" d="M174.19,62.777a2.246,2.246,0,0,1-2.121-2.346,2.174,2.174,0,0,1,1.4-2.011c1.172-.615,4.967-7.094,5.971-8.715a2.572,2.572,0,0,1,2.176-1.4,2.151,2.151,0,0,1,2.065,2.29c0,2.067-4.911,23.184-5.58,26.647a2.251,2.251,0,0,1-4.465-.391c0-1.564,2.679-13.072,3.181-15.419A4,4,0,0,1,174.19,62.777Z"/><path class="cls-4" d="M187.079,62.777a2.246,2.246,0,0,1-2.121-2.346,2.174,2.174,0,0,1,1.4-2.011c1.172-.615,4.967-7.094,5.972-8.715a2.57,2.57,0,0,1,2.176-1.4,2.151,2.151,0,0,1,2.065,2.29c0,2.067-4.911,23.184-5.581,26.647a2.251,2.251,0,0,1-4.464-.391c0-1.564,2.678-13.072,3.181-15.419A4,4,0,0,1,187.079,62.777Z"/><path class="cls-4" d="M202.474,73.037c.454,0,.612,0,.869-.019v-11.2a44.541,44.541,0,0,0,8.892-1.009l1.047,2.67a24.1,24.1,0,0,1-2.608.436l.04,2.808h2.568V69.5h-2.43c.2,2.077.672,4.233,1.165,4.233.237,0,.573-.515.811-1.326l1.067,1.464V61.426h7.271v2.71a28.089,28.089,0,0,1-1.521,4.491,8.967,8.967,0,0,1,1.837,5.5c0,3.719-2.094,3.719-3.141,3.719h-1.048l-.533-2.868h.711c.949,0,1.008-.772,1.008-1.424a6.776,6.776,0,0,0-1.759-4.569,23.62,23.62,0,0,0,1.621-4.807h-1.759V79.624H213.9V75.747c-.4.792-1.067,1.88-2.075,1.88a1.887,1.887,0,0,1-1.186-.4v1.978h-7.647v-2.67h7.035c-1.245-1.761-1.64-5.579-1.778-7.042h-2.115V72.76a20.383,20.383,0,0,0,2.312-.316v2.591c-1.679.317-4.644.574-5.691.673Zm3.655-6.31h1.9c-.079-1.4-.079-2.2-.079-2.571-1.107.059-1.363.059-1.818.079Z"/><path class="cls-4" d="M53.182,32.939a.664.664,0,0,1-.664-.662l0-.96a.664.664,0,0,1,.662-.667h0a.664.664,0,0,1,.664.663l0,.96a.664.664,0,0,1-.662.666Z"/><path class="cls-4" d="M57.02,34.1a.664.664,0,0,1-.532-1.062l.571-.769a.664.664,0,1,1,1.066.793l-.572.77A.663.663,0,0,1,57.02,34.1Z"/><path class="cls-4" d="M59.1,37.143a.665.665,0,0,1-.226-1.29l.9-.326a.665.665,0,0,1,.452,1.25l-.9.326A.661.661,0,0,1,59.1,37.143Z"/><path class="cls-6" d="M30.735,63.563a5.441,5.441,0,0,1-5.58-2.6c-1.729-3.122-.55-8.493,1.039-13.414,1.859-5.759,5.446-10.183,8.224-11.808,6.813-3.986,11.363-.389,12.162.3.037.032,1.857.885,1.857.885a3.913,3.913,0,0,1,3.16,1.257c1.753,1.976,3.516,6.092,4.867,13.744.464,2.631.608,7.239-1.461,9.94a5.164,5.164,0,0,1-4.662,1.738Z"/><path class="cls-4" d="M50.893,64.3q-.3,0-.6-.023a.665.665,0,0,1,.1-1.326c2.435.181,4.049-.9,4.932-3.309,1.376-3.752.149-9.865-1.124-14.332-1.356-4.76-2.769-7.711-5.62-7.711a.665.665,0,0,1,0-1.329c4.085,0,5.7,4.478,6.9,8.676C56.8,49.6,58.068,56.008,56.569,60.1A5.751,5.751,0,0,1,50.893,64.3Z"/><path class="cls-4" d="M30.015,64.264a5.811,5.811,0,0,1-4.095-1.535,8.232,8.232,0,0,1-2.155-6.436,31.62,31.62,0,0,1,7.287-18.567,13.237,13.237,0,0,1,8.853-4.459,9.457,9.457,0,0,1,7.114,2.281.664.664,0,0,1-.878,1A8.211,8.211,0,0,0,40,34.594a11.86,11.86,0,0,0-7.937,3.993,30.234,30.234,0,0,0-6.971,17.756,6.953,6.953,0,0,0,1.737,5.418A4.738,4.738,0,0,0,30.669,62.9a.665.665,0,1,1,.131,1.323Q30.4,64.264,30.015,64.264Z"/><path class="cls-2" d="M28.247,52.088l.184,1.321a2.917,2.917,0,0,0-2.215,3.114C26.574,59.658,30,59.835,30,59.835a10.867,10.867,0,0,0,2.741,3.235A12.9,12.9,0,0,0,36.9,65.307l.015,0c0,.892-.012,2.594-.012,3.286l-3.37,1.216L40.5,75.7l6.867-5.834L44.094,68.6l.107-3.24a18.233,18.233,0,0,0,3.974-2.212A13.741,13.741,0,0,0,51,59.835s3.317-.208,3.794-3.082c.411-2.481-2.243-3.2-2.243-3.2l-.185-5.231a8.851,8.851,0,0,1-3.186-1.632A18.592,18.592,0,0,1,47.139,44.7l-1.658-1.029a5.057,5.057,0,0,1-1.852,2.449,7.208,7.208,0,0,1-3.45.9l-2.2-.364a8.653,8.653,0,0,1-1.686.833,11.581,11.581,0,0,1-2.169.314l-1.57-.249a10.418,10.418,0,0,1-1.646,2.491A16.9,16.9,0,0,1,28.247,52.088Z"/><path class="cls-4" d="M35.359,54.345a1.007,1.007,0,0,1-.188-.019h0a.934.934,0,1,1,.188.019Z"/><path class="cls-4" d="M35.973,69.6a.665.665,0,0,1-.225-1.291l.49-.176c0-.654.006-1.6.009-2.341a12.758,12.758,0,0,1-6.674-5.352c-.914-.186-3.35-.893-3.909-3.207-.832-3.437,2.589-4.311,2.624-4.319A.665.665,0,0,1,28.6,54.2a2.966,2.966,0,0,0-1.084.584,1.982,1.982,0,0,0-.565,2.131c.459,1.9,3.1,2.255,3.121,2.258a.667.667,0,0,1,.5.342,11.375,11.375,0,0,0,6.52,5.155.676.676,0,0,1,.48.642c0,.934-.012,2.6-.012,3.283a.665.665,0,0,1-.439.625l-.928.335A.665.665,0,0,1,35.973,69.6Z"/><path class="cls-4" d="M45.022,69.6a.655.655,0,0,1-.225-.04l-.928-.335a.664.664,0,0,1-.439-.625c0-.726-.009-2.537-.012-3.283a.665.665,0,0,1,.466-.638l.014,0a11.373,11.373,0,0,0,6.519-5.155.666.666,0,0,1,.5-.342c.025,0,2.66-.356,3.12-2.258a1.979,1.979,0,0,0-.595-2.156,2.94,2.94,0,0,0-1.052-.558.666.666,0,0,1-.507-.623L51.7,48.35A.664.664,0,1,1,53.03,48.3L53.2,53.07a3.383,3.383,0,0,1,2.134,4.16c-.56,2.314-2.995,3.021-3.909,3.207a12.756,12.756,0,0,1-6.675,5.352c0,.687.008,1.664.009,2.341l.49.176a.665.665,0,0,1-.225,1.291Z"/><path class="cls-4" d="M34.418,48.471a.665.665,0,0,1-.044-1.329c3.531-.234,4.363-2.039,4.711-3.773a.665.665,0,1,1,1.3.262c-.618,3.073-2.5,4.61-5.926,4.838Z"/><path class="cls-4" d="M28.247,52.752a.665.665,0,0,1-.331-1.241,8.5,8.5,0,0,0,4.65-6.487.664.664,0,1,1,1.313.2,9.835,9.835,0,0,1-5.3,7.44A.659.659,0,0,1,28.247,52.752Z"/><path class="cls-4" d="M40.809,47.728a5.805,5.805,0,0,1-.712-.045.665.665,0,1,1,.165-1.319,4.388,4.388,0,0,0,4.725-3.437.664.664,0,1,1,1.314.194A5.727,5.727,0,0,1,40.809,47.728Z"/><path class="cls-7" d="M61.123,91.049s-.609-2.963-1.295-6.1C58.093,77.01,56.013,73.959,47.337,69.7l-6.838,6-6.837-6c-8.676,4.26-10.757,7.311-12.491,15.247-.686,3.14-1.33,5.989-1.33,5.989Z"/><path class="cls-4" d="M19.842,91.514a.667.667,0,0,1-.648-.816c0-.014.335-1.438.769-3.37.174-.775.365-1.634.559-2.524.821-3.754,1.776-6.768,3.772-9.274,1.831-2.3,4.46-4.162,9.075-6.428a.663.663,0,0,1,.732.1l6.4,5.649L46.9,69.2a.661.661,0,0,1,.731-.1c4.615,2.266,7.245,4.128,9.076,6.428,2,2.506,2.951,5.52,3.771,9.274.159.726.316,1.432.462,2.089.481,2.15.733,3.231.736,3.242a.664.664,0,1,1-1.293.3c0-.011-.257-1.1-.739-3.255-.147-.658-.3-1.366-.463-2.1-.781-3.572-1.677-6.424-3.513-8.73-1.648-2.068-4.046-3.783-8.224-5.866l-6.5,5.742a.663.663,0,0,1-.878,0l-6.5-5.742c-4.178,2.083-6.576,3.8-8.223,5.866-1.836,2.306-2.732,5.158-3.513,8.73-.2.892-.387,1.755-.561,2.532-.435,1.937-.768,3.366-.771,3.38A.666.666,0,0,1,19.842,91.514Z"/><path class="cls-2" d="M46.471,44.3a7.98,7.98,0,1,1-7.972,7.98A7.976,7.976,0,0,1,46.471,44.3Zm.006,13.64a5.663,5.663,0,1,0-5.656-5.662A5.659,5.659,0,0,0,46.477,57.935Z"/><path class="cls-2" d="M47.918,60.291c.011,4.907.086,10.021.1,14.928-.439.046-1.905.01-2.344.056-.011-4.888.148-10.01.055-14.97Z"/><path class="cls-4" d="M46.471,58.6a6.325,6.325,0,1,1,6.318-6.325A6.329,6.329,0,0,1,46.471,58.6Zm0-11.321a5,5,0,1,0,4.99,5A5,5,0,0,0,46.471,47.279Z"/><path class="cls-4" d="M55.106,52.275A8.636,8.636,0,1,0,45.069,60.8c.043,2.812.011,5.7-.022,8.5-.022,1.97-.046,4.007-.041,5.969a.665.665,0,0,0,.664.664c.023,0,.046,0,.069,0,.187-.02.675-.022,1.107-.024.506,0,.985-.006,1.238-.032a.665.665,0,0,0,.594-.663c0-2.455-.026-5-.048-7.468-.02-2.34-.04-4.754-.047-7.092A8.658,8.658,0,0,0,55.106,52.275ZM47.3,67.761c.019,2.248.039,4.565.047,6.817l-.51,0-.506,0c0-1.74.023-3.528.043-5.264.031-2.765.063-5.617.023-8.4l.072,0c.264,0,.526-.014.785-.038C47.263,63.155,47.283,65.493,47.3,67.761Zm-.831-8.171a7.315,7.315,0,1,1,7.307-7.315A7.32,7.32,0,0,1,46.471,59.59Z"/><path class="cls-4" d="M45.662,54.819a1.49,1.49,0,0,0,.3-.029h0a1.46,1.46,0,1,0-1.574-.726A1.444,1.444,0,0,0,45.662,54.819Z"/><path class="cls-7" d="M51.253,91.049c.053-2.419-.235-8.355-.235-8.355l8.278-2.07s1.427,3.913,1.877,5.43c.367,1.235,1.277,5,1.277,5Z"/><path class="cls-2" d="M58.474,81.539c-1.49-5.7-3.314-8.566-4.032-10.989a25.019,25.019,0,0,0-1.911-5.443c-1.586-2.651-4.195-3.945-6.7-2.659-1.8.927-2.2,3.811-2.072,5.634.116,1.645,1.7,2.389,1.948,1.163.144-.721,1.888.408,3.988,3.052,0,0,1.07,4.76,1.895,9.938"/><path class="cls-4" d="M63.1,90.922a68.936,68.936,0,0,0-3.188-10.544.665.665,0,0,0-.778-.4l-.385.1c-.711-2.293-1.548-4.311-2.293-6.1-.58-1.4-1.081-2.606-1.378-3.61-.132-.443-.251-.857-.364-1.247A18.4,18.4,0,0,0,53.1,64.765c-1.861-3.11-4.9-4.279-7.571-2.908-2.049,1.053-2.591,4.037-2.432,6.272a2.39,2.39,0,0,0,1.915,2.388,1.218,1.218,0,0,0,1.2-.711,12.075,12.075,0,0,1,2.866,2.786c.182.827,1.082,4.972,1.806,9.45l-.031.007a.666.666,0,0,0-.5.669c0,.056.2,5.541.234,8.339a.665.665,0,0,0,.664.657h.008a.665.665,0,0,0,.657-.673c-.027-2.293-.165-6.371-.216-7.832l7.187-1.8a66.937,66.937,0,0,1,2.91,9.764.663.663,0,0,0,.651.538.7.7,0,0,0,.128-.012A.664.664,0,0,0,63.1,90.922ZM50.345,72.151a.666.666,0,0,0-.128-.268c-.916-1.153-3.188-3.8-4.483-3.488a.9.9,0,0,0-.676.72.575.575,0,0,1-.016.061,1.334,1.334,0,0,1-.619-1.142c-.194-2.727.752-4.5,1.714-4.994,2.037-1.047,4.323-.1,5.824,2.408a17.6,17.6,0,0,1,1.478,4.036c.114.392.234.81.366,1.255.318,1.072.831,2.309,1.426,3.742.725,1.748,1.539,3.711,2.228,5.917l-5.278,1.32C51.372,76.737,50.356,72.2,50.345,72.151Z"/><path class="cls-4" d="M40.534,63.091h-.015a1.538,1.538,0,0,1-1.535-1.537v-.619A1.538,1.538,0,0,1,40.519,59.4h.015a1.538,1.538,0,0,1,1.536,1.537v.619A1.539,1.539,0,0,1,40.534,63.091Zm-.015-2.364a.208.208,0,0,0-.207.208v.619a.207.207,0,0,0,.207.207h.015a.207.207,0,0,0,.207-.207v-.619a.208.208,0,0,0-.207-.208Z"/><path class="cls-8" d="M16.986,28.464a1.411,1.411,0,0,0-.4-1.178,1.448,1.448,0,0,0-1.377-.349,3.811,3.811,0,0,1,.564,3.142,1.2,1.2,0,0,1-.686.831,1.023,1.023,0,0,1-.883-.072,2.017,2.017,0,0,1-.9-1.61,2.783,2.783,0,0,1,.2-1.119l-.686-.674-.7.712-.33-.325.7-.716-.576-.566.364-.37.575.565,1.165-1.187.33.324L13.194,27.06l.58.57a3.7,3.7,0,0,1,.417-.525,2.685,2.685,0,0,1,.32-.276c-.116-.143-.236-.261-.236-.261l.364-.371c.07.079.19.207.32.375a1.779,1.779,0,0,1,1.992.344,1.851,1.851,0,0,1,.54,1.5,2.138,2.138,0,0,1-.682,1.317l-.01.01-.325-.32A1.852,1.852,0,0,0,16.986,28.464Zm-3.18.516a1.661,1.661,0,0,0,.643,1.409.546.546,0,0,0,.482.07.794.794,0,0,0,.422-.55l-1.467-1.441A3.745,3.745,0,0,0,13.806,28.98Zm.961-1.791a2.554,2.554,0,0,0-.657.771l1.326,1.3A3.886,3.886,0,0,0,14.767,27.189Z"/><path class="cls-8" d="M17.74,22.408l-.013-.532c.965-.022,1.226-.121,3.1-1.307l.285.451C19.232,22.21,18.853,22.384,17.74,22.408Zm2.249,3.675a1.81,1.81,0,0,1-1.063-1.129l.457-.289a1.547,1.547,0,0,0,.773.921,1.369,1.369,0,0,0,1.052-.292l1.93-1.224.282.445-1.931,1.224A1.8,1.8,0,0,1,19.989,26.083Z"/><path class="cls-8" d="M25.248,19.785l-1,.38-.169-.447,1.011-.383-.55-1.459.5-.188.55,1.459.447-.169a1.273,1.273,0,0,1,1.57.323,3.809,3.809,0,0,1,.533,1.075,3.867,3.867,0,0,1,.3,1.146c.037.835-.515,1.1-1.2,1.364l-.176-.466c.814-.308.85-.532.829-.885a3.054,3.054,0,0,0-.26-.968,3.137,3.137,0,0,0-.454-.925.735.735,0,0,0-.975-.217l-.453.171c.477,1.382.4,1.808.2,3.681l-.522-.05C25.634,21.344,25.686,21.024,25.248,19.785ZM27.831,17.8l-.374.142-.374-.993.374-.141Zm.009.718.228-.447c.984.281,1.229.67,1.8,2.182l-.486.183C28.808,18.92,28.621,18.8,27.84,18.52Zm.788-1.012-.374.142-.374-.993.374-.141Z"/><path class="cls-8" d="M34.347,16.953a21.669,21.669,0,0,0-1.393,1.725l.436,2.465-.5.1-.357-2.023L31.8,20.367l-.416-.3,1.031-1.511-.251-1.42-1.086.192L31,16.84l1.086-.192-.19-1.074.5-.1.448,2.535c.595-.756.971-1.208,1.159-1.4.513-.526,1.423-.466,1.565.338l.246,1.392c.225,1.274.3,1.3,1.163,1.657l-.194.435c-1.126-.479-1.246-.672-1.481-2l-.248-1.4C34.981,16.662,34.591,16.717,34.347,16.953Z"/><path class="cls-8" d="M42.956,18.478a1.832,1.832,0,0,0-.059-1.847,1.892,1.892,0,0,0-1.378-.867,8.46,8.46,0,0,1-.268,1.758,5.435,5.435,0,0,1-.7,1.7,1.014,1.014,0,0,1-1.6.3,2.091,2.091,0,0,1-.47-1.578,2.8,2.8,0,0,1,2.833-2.672,2.4,2.4,0,0,1,2.039,1.087,2.374,2.374,0,0,1,.089,2.359A2.638,2.638,0,0,1,41,20.179l-.014-.513A2.1,2.1,0,0,0,42.956,18.478Zm-1.983-2.707a2.333,2.333,0,0,0-1.957,2.213,1.682,1.682,0,0,0,.314,1.2c.248.249.566.092.773-.228a5.215,5.215,0,0,0,.631-1.571A9.254,9.254,0,0,0,40.973,15.771Z"/><path class="cls-8" d="M48.385,19.233,48,21.347l-.518-.094.384-2.114-2.644-.481.084-.464,2.644.482.488-2.689-2.319-.422L46.2,15.1l5.211.948-.083.463-2.375-.432-.489,2.688,2.7.491-.085.463Zm-1.928-2.971.518-.105a14.2,14.2,0,0,1,.384,1.811l-.55.121-.013,0A10.358,10.358,0,0,0,46.457,16.262Zm3.829.39.488.3a14.024,14.024,0,0,1-1.091,1.722l-.408-.3h-.007A12.209,12.209,0,0,0,50.286,16.652Z"/><path class="cls-8" d="M55.248,22.118l-.255.669,2.129.816-.156.407-4.559-1.749.155-.407,1.979.759.255-.668-1.631-.626.146-.38,1.631.625.239-.623c-.395-.106-.778-.246-1.163-.378-.133-.044-.271-.1-.4-.14l.015-.49c.1.04.213.089.324.131.132.051.265.094.4.138l-.014-.005c.23-.167.486-.385.7-.58l-1.33-.51-.054.144a13.307,13.307,0,0,1-.741,1.679,4.465,4.465,0,0,1-1.069,1.282l-.23-.517a6.444,6.444,0,0,0,1.688-2.842l.829-2.164,4.421,1.7-.509,1.331-3.983-1.528-.206.538,4.317,1.657-.145.38-1.291-.5.027.047a13.826,13.826,0,0,1,.774,1.433l-.482.161c-.056-.149-.122-.31-.191-.464-.417-.107-.82-.232-1.237-.362l.014.006-.249.649,1.69.648-.145.38ZM57.964,18.6l-3.537-1.357-.216.564,3.538,1.357Zm-3.151,1.776c.535.191,1.073.337,1.6.538l.255.1c-.12-.234-.245-.478-.384-.7l.392-.061-1.127-.432A8.931,8.931,0,0,1,54.813,20.371Z"/><path class="cls-8" d="M61.2,23.313l3.025,1.937-.212.332-1.275-.818a6.411,6.411,0,0,0,.943,1.572l-.445.214a5.59,5.59,0,0,1-.577-.961L61.71,27.08l-.4-.253.132-.208L59.13,25.136,59,25.343l-.4-.254.923-1.443a6.9,6.9,0,0,1-1.116-.039l-.02-.464a5.931,5.931,0,0,0,1.852.02L59,22.369l.211-.332,1.554,1a2.672,2.672,0,0,0,.394-.148l-1.04-.666.972-1.52.727.466.2-.32L60.706,20l.211-.331,1.318.844.272-.426.4.257-.273.426,1.265.81.272-.426.4.258-.273.426,1.353.866-.211.332-1.353-.867-.2.319.762.488-.972,1.52-2.091-1.339Zm.671,2.638-2.316-1.483-.216.337,2.316,1.483Zm.393-.615-2.316-1.484-.2.314,2.315,1.483Zm-.011-.882-1.542-.988a4.779,4.779,0,0,1-.529.111L62.412,25C62.361,24.837,62.294,24.628,62.256,24.454Zm-1.329-2.61-.212.331,2.753,1.763.212-.331Zm3.131,1.171-2.753-1.763-.2.314,2.754,1.763Zm-.573-.783.2-.32-1.264-.81-.2.32Z"/><path class="cls-8" d="M66.351,27.622a3.333,3.333,0,0,1,1.472.858c.543.588.849,1.172.534,1.764a1.342,1.342,0,0,1-1.748.54,3.436,3.436,0,0,1-1.584-1.455l.346-.308a3.148,3.148,0,0,0,1.413,1.288.833.833,0,0,0,1.09-.319c.243-.444-.187-.946-.442-1.2a3.389,3.389,0,0,0-1.69-.92l-.2-.5.015,0a4.155,4.155,0,0,0,1.238-.63,8.279,8.279,0,0,0,1-.876l.377.387A6.736,6.736,0,0,1,66.351,27.622Zm2.7-.9a4.992,4.992,0,0,1-.623-1.354l.507-.152a4.762,4.762,0,0,0,.522,1.207,7.657,7.657,0,0,0,.87.985l-.356.348A8.9,8.9,0,0,1,69.05,26.723Z"/><path class="cls-8" d="M69.409,35.218a1.359,1.359,0,0,1,.6-1.971l3.529-1.956.269.486-3.529,1.955a.835.835,0,0,0-.439,1.223,2.934,2.934,0,0,0,2.344,1.221l-.117.5A3.325,3.325,0,0,1,69.409,35.218Z"/><path d="M177.919,93.456a8.564,8.564,0,0,0,3.442-5h-.423a7.99,7.99,0,0,1-2.79,4.273l-.493-.872-.141.052v2.67h-1.24V92.329c-.951.281-1.145.326-1.435.387l-.194-1.392a12.4,12.4,0,0,0,1.629-.4V89.166h-.4a5.085,5.085,0,0,1-.378,1.5l-.906-.979a8.116,8.116,0,0,0,.369-2.9l1.03.027c-.009.3-.009.5-.027,1.048h.309V86.223h1.24v1.639h.59v.484a7.409,7.409,0,0,0,.774-2.158l1.3.132c-.053.229-.106.458-.237.908h2.947a43.1,43.1,0,0,1-.255,6.572.912.912,0,0,1-.88.784h-1.522l-.22-1.3a9.469,9.469,0,0,1-1.417,1.3Zm1.54-5a5.224,5.224,0,0,1-1.153,1.762l-.721-1.057h-.071V90.54c.168-.052.282-.1.59-.211l.062.828a7.237,7.237,0,0,0,1.689-2.7Zm1.54,4.8c.229,0,.379-.018.432-.238.07-.309.141-1.657.167-2.335a8.338,8.338,0,0,1-1.567,2.573Z"/><path d="M184.125,90.778a3.156,3.156,0,0,1-.448.458l-.335-1.868a6.63,6.63,0,0,0,1.3-3.189l1.3.114a10.944,10.944,0,0,1-.537,2.089v6.184h-1.285Zm3.195-1.859a6.289,6.289,0,0,1-.687,1.427l-1.1-.775a7.362,7.362,0,0,0,1.092-3.048l1.241.114a7.183,7.183,0,0,1-.168.987h.757V86.215h1.356v1.409h1.8v1.3h-1.8v1.595h2.006v1.321h-2.006v2.731h-1.356V91.835h-2.719V90.514h2.719V88.919Z"/><path d="M196.413,86.461c-.071.388-.106.52-.15.7h3.248v1.278h-3.644a4.47,4.47,0,0,1-.29.634,2.431,2.431,0,0,1,1.038-.256,1.459,1.459,0,0,1,1.373.8,20.286,20.286,0,0,1,1.954-.67l.343,1.331a16.8,16.8,0,0,0-2.024.59,8.884,8.884,0,0,1,.044.969c0,.212-.009.361-.018.5h-1.364a8.454,8.454,0,0,0,.027-.907c-.537.273-.986.511-.986.943,0,.555.686.581,1.6.581.088,0,1.214,0,2.218-.106l.008,1.357c-1.593.026-1.769.035-1.962.035a6.614,6.614,0,0,1-2.377-.3,1.52,1.52,0,0,1-.985-1.41c0-1.048,1.038-1.736,2.261-2.361a.684.684,0,0,0-.545-.238,2.382,2.382,0,0,0-1.514.82c-.2.22-.977,1.277-1.144,1.488l-.977-.995a7.017,7.017,0,0,0,1.884-2.81h-1.541V87.157h1.884c.07-.291.114-.537.158-.819Z"/><path d="M206.3,89.351h2.754v1.286h-2.79c-.061,1.3-.492,2.969-3.96,3.63l-.59-1.242a5.093,5.093,0,0,0,2.606-1.014,1.86,1.86,0,0,0,.554-1.374h-3.379V89.351h3.4v-.908a22.347,22.347,0,0,1-2.808.132l-.264-1.25a19.481,19.481,0,0,0,5.932-.75l.713,1.287a21.169,21.169,0,0,1-2.165.414Z"/><path d="M216.886,88.505v1.216h-2.164v2.942h2.49V93.9h-6.24V92.663h2.456V89.721h-2.165V88.505Z"/><path d="M220.347,91.183a9.046,9.046,0,0,0-.7-2.22l1.117-.3a9.446,9.446,0,0,1,.775,2.237Zm.009,2.08c3.177-.767,3.828-1.983,4.418-4.934l1.364.317c-.5,2.079-1.153,4.8-5.14,5.727Zm1.98-2.529a9.141,9.141,0,0,0-.625-2.2l1.118-.238a8.2,8.2,0,0,1,.66,2.177Z"/><path d="M235.275,87.554c-.731,4.977-3.442,6.29-6.39,6.721l-.572-1.294c2.148-.291,4.33-.89,5.2-4.124h-2.728a7.552,7.552,0,0,1-2.094,1.912l-.916-1.031a6.177,6.177,0,0,0,2.861-3.374l1.5.194a10.4,10.4,0,0,1-.467,1Z"/><path d="M239.465,86.8l-.185,4.916h-1.109l-.184-4.916Zm-.044,5.559v1.383h-1.39V92.355Z"/><path class="cls-9" d="M6.736,31.59c2.905,5.493,10.328,7.108,12.91,4.523.323,2.908,3.874,3.555,5.81,1.616"/><path class="cls-9" d="M61.606,43.868c2.259,1.615,5.487.323,6.455-.646,1.291,2.261,7.747.969,8.715-2.908"/><path class="cls-10" d="M166.707,94.011V85.955l5.407,4.028Z"/><path class="cls-10" d="M159.607,94.011V85.955l5.406,4.028Z"/></svg>