<svg id="レイヤー_1" data-name="レイヤー 1" xmlns="http://www.w3.org/2000/svg" viewBox="0 0 754.5 80.572"><defs><style>.cls-1{fill:#ff64a5;stroke:#ff64a5;stroke-miterlimit:10;stroke-width:0.5px;}</style></defs><path class="cls-1" d="M181.98,25.408c1.841,0,1.812-1.841,1.812-3.258a18.64,18.64,0,0,0-.364-3.472,28.92,28.92,0,0,1-11.44,7.726l-1.238-1.75a26.872,26.872,0,0,0,12.106-7.968c-.241-.481-.515-.994-.786-1.448a30.667,30.667,0,0,1-9.72,6.248l-1.237-1.721a26.164,26.164,0,0,0,9.992-5.946l-1.057-1.206a29.511,29.511,0,0,1-8.031,3.892l-1.145-1.658a28.333,28.333,0,0,0,9.84-4.981H174.8V8.056h16.33v1.81h-5.283a27.392,27.392,0,0,0,2.234,5.643,27.913,27.913,0,0,0,4.346-4.315l1.782,1.358a39.266,39.266,0,0,1-5.192,4.556,23.417,23.417,0,0,0,6.309,6.369l-1.6,2.083a30.355,30.355,0,0,1-9.782-15.694h-.513c-.6.573-1.326,1.177-1.961,1.689a14.065,14.065,0,0,1,4.377,10.5,10.078,10.078,0,0,1-.574,3.924c-.574,1.177-1.72,1.448-2.987,1.448a23.586,23.586,0,0,1-2.929-.21l-.393-2.2A14.8,14.8,0,0,0,181.98,25.408ZM192.333,5.7H173.588V9.565h-2.142v-5.7H181.77V.269h2.2V3.861h10.475v5.7h-2.115Z"/><path class="cls-1" d="M209.933,10.984a3.8,3.8,0,0,1,4.045,2.806c1.57-.664,3.109-1.268,5.283-2.144l.876,1.963c-2.205.874-4.076,1.629-5.705,2.354v4.466h-2.174V16.808c-2.506,1.328-6.067,3.018-5.131,5.582.723,1.993,4.1,1.873,5.221,1.873a51.918,51.918,0,0,0,5.767-.484l.09,2.142a47.83,47.83,0,0,1-5.976.483c-3.986.032-6.28-1-7.156-3.018-1.842-4.4,3.531-6.91,6.943-8.781a1.978,1.978,0,0,0-2.083-1.66h-3.8l.875-6.61h-5.252V4.283h5.554l.484-3.621h2.264l-.513,3.621h7.667V6.335h-7.97l-.6,4.649Z"/><path class="cls-1" d="M234.266,22.663l1.841,1.146a34.626,34.626,0,0,1-8.392,4.014l-1.54-1.9A26.96,26.96,0,0,0,234.266,22.663ZM249.148,1.839V8.6H227.835V1.839Zm-1.871,8.481V22.481H229.708V10.32ZM229.889,3.468V7H234.3V3.468Zm1.9,8.451v1.9h13.4v-1.9Zm0,3.441v1.9h13.4v-1.9Zm0,3.44v2.022h13.4V18.8Zm4.437-15.332V7h4.409V3.468ZM240.484,23.9l1.842-1.267a60.411,60.411,0,0,1,8.15,3.079l-1.751,1.81h-.061A43.012,43.012,0,0,0,240.484,23.9ZM247.1,7V3.468h-4.528V7Z"/><path class="cls-1" d="M263.487,25.108c1.48-1.3,2.806-2.535,4.135-3.895,1.993-1.961,4.166-4.315,3.954-7.575-.149-2.2-1.509-3.409-3.893-3.409h-9.54V8.085h9.54c3.351,0,5.554,1.69,6.1,4.528a9.447,9.447,0,0,1,.15,2.444c-.362,3.953-2.445,5.675-8.723,11.589ZM261.042,2.14,262.461.33c3.139,1.931,4.5,2.322,8.451,2.322v2.3C266.173,4.948,264.393,4.342,261.042,2.14Z"/><path class="cls-1" d="M286.672,23.145c-1.69-1.9-1.57-4.406-1.268-6.549h2.323c-.361,2.475-.12,4.045.7,5.13.784.906,2.323,1.36,4.5,1.36h9.84v2.263h-9.84C289.962,25.349,287.94,24.624,286.672,23.145Zm.271-18.53,1.177-1.963c3.564,2.144,4.741,2.386,14.279,2.386V7.331C292.829,7.331,291.049,7.089,286.943,4.615Z"/><path class="cls-1" d="M322.746,25.8c-2.325-.029-7.547.091-9.117-3.743-1.449-3.68.967-6.066,5.343-8.9V1.326h2.294V11.768c1.962-1.329,3.713-2.386,6.672-4.134l1.207,1.841-5.615,3.289c-5.583,3.319-8.814,5.553-7.728,8.359.845,2.324,4.287,2.476,6.37,2.534a51.246,51.246,0,0,0,7.879-.481v2.112A45.028,45.028,0,0,1,322.746,25.8Z"/><path class="cls-1" d="M348.8,10.984a3.8,3.8,0,0,1,4.044,2.806c1.571-.664,3.11-1.268,5.283-2.144L359,13.609c-2.2.874-4.076,1.629-5.706,2.354v4.466h-2.173V16.808c-2.506,1.328-6.067,3.018-5.132,5.582.723,1.993,4.106,1.873,5.222,1.873a51.9,51.9,0,0,0,5.766-.484l.091,2.142a47.862,47.862,0,0,1-5.977.483c-3.986.032-6.279-1-7.156-3.018-1.841-4.4,3.532-6.91,6.944-8.781a1.978,1.978,0,0,0-2.083-1.66h-3.8l.874-6.61h-5.251V4.283h5.554l.483-3.621h2.264l-.512,3.621h7.666V6.335H348.1l-.6,4.649Z"/><path class="cls-1" d="M375.514,6.124h5.222V8.3h-5.523v.09q-.363,2.535-.635,5.25h5.434v2.174h-5.644c-.061.6-.122,1.6-.122,2.505,0,2.354.784,4.315,2.174,5.311,2.112,1.448,6.006,1.116,7.305-1.539,1.087-2.2.21-4.739-.694-6.881l2.022-.906c1.146,2.687,2.174,6.1.482,8.964-2.474,4.105-8.935,4.315-11.741.665a9.112,9.112,0,0,1-1.751-5.614c0-.906.061-1.9.12-2.505h-4.016V13.638h4.228c.151-1.66.391-3.621.6-5.34h-3.834V6.124h4.137L374.1.782h2.173L376,2.8C375.846,3.89,375.665,4.977,375.514,6.124Z"/><path class="cls-1" d="M413.852,16.627c-.12,3.167-3.29,7.665-10.385,7.665h-1.781V22.058h1.781c3.29,0,7.908-1.719,8.06-5.492.122-3.26-2.113-4.195-5.283-4.195h-9.055v-2.2h9.055C411.014,10.168,414,12.371,413.852,16.627Z"/><path class="cls-1" d="M433.837,25.8c-2.325-.029-7.547.091-9.117-3.743-1.448-3.68.967-6.066,5.344-8.9V1.326h2.293V11.768c1.962-1.329,3.713-2.386,6.673-4.134l1.206,1.841-5.615,3.289c-5.583,3.319-8.814,5.553-7.727,8.359.845,2.324,4.286,2.476,6.369,2.534a51.238,51.238,0,0,0,7.879-.481v2.112A45.028,45.028,0,0,1,433.837,25.8Z"/><path class="cls-1" d="M467.374,22.209h-2.052V.33h7.789V2.442h-5.737Z"/><path class="cls-1" d="M486.786.33l2.445.513c-.333,1.3-.755,2.686-1.207,3.953h9.266V27.43h-2.144V25.65h-13.4v1.78h-2.113V4.8h6.218A40.792,40.792,0,0,0,486.786.33Zm-5.041,6.337v4.376h13.4V6.667Zm0,6.187V17.23h13.4V12.854Zm0,6.186v4.739h13.4V19.04Z"/><path class="cls-1" d="M526.875,6.034V26.978h-2.264V25.167H507.858v1.811h-2.264V6.034h9.418V1.053h2.294V6.034ZM507.858,8.056v6.276h7.184V8.056Zm0,8.239v6.85h7.184V16.3Zm9.418-8.239v6.276h7.335V8.056Zm0,8.239v6.85h7.335V16.3Z"/><path class="cls-1" d="M531.615,25.259h5.735V5.46H539.4V27.371h-7.787Z"/><path class="cls-1" d="M566.331,24.292,564.49,25.65C562.5,23,562.2,22.18,562.2,18.437V3.287h2.174v15.15C564.37,22,564.641,22.18,566.331,24.292ZM575.6,22.3h6.611v2.2h-6.762c-4.619,0-5.977-2.9-5.523-7.635h2.293C571.885,20.7,572.489,22.3,575.6,22.3ZM570.859,6.093h10.625V8.357H570.859Z"/><path class="cls-1" d="M8.823,72.9c-.21,2.838,1.782,4.044,4.589,4.044a22.439,22.439,0,0,0,2.687-.21v2.081a23.621,23.621,0,0,1-2.687.242c-4.135,0-7.093-2.052-6.792-6.308.181-2.625,2.415-4.979,4.77-7.182H.25V63.76H5.413l6.973-6.821h-8v-1.9H15.979v1.39L8.432,63.76H20.114v1.811h-5.8C11.329,68.348,9.006,70.55,8.823,72.9Z"/><path class="cls-1" d="M28.867,78.518l-2.051-1.057c3.834-7,4.95-8.964,5.07-16.629H27.48V58.81h4.406v-5.1h2.355v5.1h4.921v2.022H34.211C34.091,69.132,32.7,71.515,28.867,78.518Zm8.514-5.191V72.211h2.264v1.116c0,2.293,2.746,2.444,5.374,2.444h2.987v2.144H45.078C41.033,77.915,37.381,77.251,37.381,73.327ZM47.525,64.3v2.022h-9.3V64.3Zm-4.167-3.441H41.577V56.185h1.781Zm3.742.03H45.319V56.214H47.1Z"/><path class="cls-1" d="M75.539,67.11A8.774,8.774,0,0,1,71.01,74.2c-2.445,1.509-5.161,2.264-9.84,2.264V74.2c5.977,0,11.772-2.263,11.985-7.181.149-4.076-2.748-5.4-6.883-5.4H55.343v-2.3H66.272C72.249,59.323,75.719,62.009,75.539,67.11Z"/><path class="cls-1" d="M101.379,59.535c0,8.9-4.257,12.825-12.708,19.074l-1.6-1.812c8.39-6.186,11.651-9.626,11.832-16.72H83.779V57.723h17.6Zm2.716-1.328a3.164,3.164,0,0,1-3.2-3.109,3.185,3.185,0,1,1,6.37,0A3.157,3.157,0,0,1,104.1,58.207Zm0-4.979a1.874,1.874,0,0,0-1.841,1.87,1.848,1.848,0,0,0,1.841,1.841,1.9,1.9,0,0,0,1.873-1.841A1.965,1.965,0,0,0,104.1,53.228Z"/><path class="cls-1" d="M111.615,77.07V57.784H130.57V77.07Zm2.323-17.112V74.926h14.309V59.958Z"/><path class="cls-1" d="M148.744,56.727v2.354h-7.757V56.727Zm-7.757,8.029V62.492h7.757v2.264Zm17.356,1.238c-3.168,6.427-5.826,11.98-14.459,11.98h-2.2v-2.2h2.2c7.063,0,9.176-4.617,12.255-10.773.846-1.631,1.48-3.109,1.48-3.109l2.143,1S158.675,65.3,158.343,65.994Zm-1.991-5.282H154.63V56.063h1.722Zm3.771.03H158.4V56.1h1.719Z"/><path class="cls-1" d="M184,62.221v2.022h-6.189v9.778h8.06v2.053H167.4V74.021h8.06V64.243h-6.187V62.221Z"/><path class="cls-1" d="M210.78,60.893h-7.366c-1.268,2.383-3.048,4.195-7,6.971l-1.389-1.811c7.276-5.19,7.305-7.846,7.305-11.921h2.416a16.064,16.064,0,0,1-.452,4.558h8.9v2.052c0,6.4-4.1,11.5-14.913,18.228l-1.328-1.9C206.885,70.822,210.658,66.355,210.78,60.893Z"/><path class="cls-1" d="M240.907,69.464l-1.329,1.961a86.941,86.941,0,0,0-9.962-6.127V78.819h-2.323V54.132h2.323v8.873A96.606,96.606,0,0,1,240.907,69.464Z"/><path class="cls-1" d="M253.888,76.194l-1.751,1.357c-2.535-3.167-2.384-4.134-2.384-6.82v-14.3h2.174V70.58C251.927,73.207,251.775,73.508,253.888,76.194Zm12.8-2.445c-.151,2.958-1.721,4.166-4.318,4.166a6.848,6.848,0,0,1-2.716-.544c-1.66-.723-2.989-2.384-2.325-4.347.755-2.051,2.958-2.5,4.68-2.5a14.658,14.658,0,0,1,2.474.24V61.8h-7.908V59.745h7.908V54.132h2.235v5.613H271.1V61.8h-4.377v9.777a30.4,30.4,0,0,1,5.373,3.289l-1.238,1.69C268.469,74.865,267.592,74.323,266.688,73.749ZM262.16,72.6a2.923,2.923,0,0,0-2.628.935c-.542.937.423,1.841,1.329,2.144a5.417,5.417,0,0,0,1.509.242c1.932,0,2.113-.845,2.113-2.626v-.422A10.662,10.662,0,0,0,262.16,72.6Z"/><path class="cls-1" d="M273.964,73.84l1.932-1.661a34.792,34.792,0,0,1,5.1,5.826l-2.113,1.81A30.235,30.235,0,0,0,273.964,73.84Z"/><path class="cls-1" d="M305.781,68.167V57.936H308.2V68.167c0,5.13.605,5.341,4.137,7.756l-1.358,1.9C306.445,74.716,305.781,73.659,305.781,68.167Zm14.76-7.184,1.9-1.357c3.593,4.1,3.8,5.433,3.8,9.958v3.5h-2.413v-3.5C323.833,65.059,323.65,64.514,320.541,60.983Z"/><path class="cls-1" d="M347.138,75.893a5.233,5.233,0,0,0,2.928-5.555c-.393-2.051-2.718-3.018-4.65-3.2-1.991-.18-5.161.423-9.115,2.506l-1.329-1.419L345.658,57.12h-9.176V55.1h12.5v1.6l-9.3,9.567a12.824,12.824,0,0,1,5.857-1.087c2.748.211,6.158,1.509,6.822,4.708a7.172,7.172,0,0,1-4.2,7.878c-3.17,1.477-6.338,1.055-9.75.361V76.042C341.7,76.767,344.813,77.009,347.138,75.893Z"/><path class="cls-1" d="M361.326,68.167V57.936h2.415V68.167c0,5.13.6,5.341,4.135,7.756l-1.358,1.9C361.99,74.716,361.326,73.659,361.326,68.167Zm14.761-7.184,1.9-1.357c3.591,4.1,3.8,5.433,3.8,9.958v3.5h-2.416v-3.5C379.377,65.059,379.2,64.514,376.087,60.983Z"/><path class="cls-1" d="M402.683,75.893a5.23,5.23,0,0,0,2.928-5.555c-.391-2.051-2.716-3.018-4.648-3.2-1.993-.18-5.161.423-9.117,2.506l-1.327-1.419L401.205,57.12h-9.177V55.1h12.5v1.6l-9.3,9.567a12.821,12.821,0,0,1,5.855-1.087c2.747.211,6.159,1.509,6.823,4.708a7.172,7.172,0,0,1-4.2,7.878c-3.17,1.477-6.34,1.055-9.75.361V76.042C397.25,76.767,400.36,77.009,402.683,75.893Z"/><path class="cls-1" d="M420.675,59.836h-3.744V57.723h4.438c.454-1.628.845-3.138,1.087-3.953l2.174.513c-.181.6-.513,1.9-.936,3.44h4.015v2.113H423.03a76.042,76.042,0,0,1-5.857,14.185L415.182,72.9A70.421,70.421,0,0,0,420.675,59.836Zm11.682,8.722v3.773a35.623,35.623,0,0,1,5.706,2.927L436.976,77.1a40.793,40.793,0,0,0-4.619-2.535c.03,3.018-1.57,4.344-4.376,4.344s-6.28-1.931-5.193-5.04c.484-1.326,1.9-2.232,4.015-2.474a8.892,8.892,0,0,1,3.412.242V68.468a5.562,5.562,0,0,1,1.388-4.225c-3.17,0-3.864.3-5.674,1.448l-1.119-1.629a9.021,9.021,0,0,1,5.374-1.6l6.792.12v1.75h-2.052C433.383,64.333,432.3,65.662,432.357,68.558Zm-4.528,4.769a6.313,6.313,0,0,0-1.9.3,1.519,1.519,0,0,0-1.178,1.357c.03,1.6,2.717,1.9,3.29,1.9,1.842,0,2.294-.964,2.294-2.595V73.72A9.206,9.206,0,0,0,427.829,73.327Z"/><path class="cls-1" d="M457.111,65.389a6.521,6.521,0,0,1,5.222,2.114,6.589,6.589,0,0,1-.242,8.752c-2.113,2.232-5.735,2.141-7.728,2.083V76.316c2.718.059,4.892-.364,6.008-1.57a4.446,4.446,0,0,0,.242-5.765,4.887,4.887,0,0,0-3.954-1.661,10.562,10.562,0,0,0-4.921,1.269v6.127a3.453,3.453,0,0,1-1.239,2.957,3.336,3.336,0,0,1-3.109.211,4.838,4.838,0,0,1-3.077-4.225,4.739,4.739,0,0,1,1.448-3.47,16.891,16.891,0,0,1,3.773-2.777V60.8h-4.589V58.69h4.589V54.737h2.2V58.69H455.9V60.8h-4.166v5.764A11.976,11.976,0,0,1,457.111,65.389ZM446.7,72.724a2.623,2.623,0,0,0,1.479,3.169c1.056.391,1.358-.092,1.358-1.118V69.766C448.267,70.58,447.058,71.486,446.7,72.724ZM457.473,62.8V60.771c4.469,0,5.4.242,7.759,2.747l-1.69,1.419C461.82,63.186,461.61,62.8,457.473,62.8Z"/><path class="cls-1" d="M493.82,76.042h-2.143c-.332-3.8-2.566-6.517-6.823-6.94,2.022,3.258,2.022,5.763.513,7.485-2.052,2.5-5.342,2.051-8.874,1.267l.452-1.871c3.986.845,5.706.572,6.763-.664,1.568-1.992-.544-4.949-1.36-6.1-4.467.755-7.848,4.166-10.232,6.82L470.637,74.5c2.535-2.716,6.037-6.007,10.6-7.033C480.9,66.9,479.571,65,479.571,65c-2.081-2.958-1.026-5.433,2.2-6.671l-2.989-2.293,1.3-1.629L487.54,60.2l-1.267,1.629L483.5,59.686c-3.139,1.026-3.351,2.354-2.113,4.254l2.2,3.231C489.443,66.626,493.368,70.58,493.82,76.042Z"/><path class="cls-1" d="M501.125,78.518l-2.052-1.057c3.835-7,4.951-8.964,5.071-16.629h-4.528V58.81h4.528v-5.1H506.5v5.1h5.283v2.022h-5.312C506.349,69.132,504.959,71.515,501.125,78.518Zm8.514-5.191V72.211H511.9v1.116c0,2.293,2.745,2.444,5.373,2.444h2.987v2.144h-2.928C513.29,77.915,509.639,77.251,509.639,73.327ZM519.78,64.3v2.022h-9.3V64.3Z"/><path class="cls-1" d="M540.068,54.976c3.381.484,5.193,3.231,5.193,8.6,0,3.138-.242,6.427-1.751,9.265A29.452,29.452,0,0,1,538.83,79l-1.72-1.509a24.859,24.859,0,0,0,4.226-5.555c1.48-2.625,1.6-5.673,1.6-8.359,0-3.953-1.178-6.4-3.17-6.64-1.932-.361-3.442,1.961-4.77,4.528A20.673,20.673,0,0,0,532.46,69.8h-2.022V54.918h2.144v7.694C534.031,58.177,536.627,54.5,540.068,54.976Z"/><path class="cls-1" d="M553.5,74.233,552.263,72a34.289,34.289,0,0,0,4.409-10.835h-3.835v-1.9h4.106V52.9h1.993v6.368h3.17v1.9h-3.17v3.5a34.1,34.1,0,0,1,3.683,4.135l-1.209,2.143c-.814-1.359-1.659-2.627-2.474-3.743V80h-1.993V65.782A37.97,37.97,0,0,1,553.5,74.233Zm14.459-2.505.394,1.87a34.246,34.246,0,0,1-6.248,4.286l-1-2.022h.03A35.064,35.064,0,0,0,567.96,71.728Zm.574,8.3a25.634,25.634,0,0,1-3.109-.241l-.3-2.144a14.061,14.061,0,0,0,2.718.332c.542,0,.906-.242.906-.845V66.778h-6.914V65.027h6.914V62.915h-5.435v-1.69h5.435V59.172h-6.46V57.423h8.6a38.666,38.666,0,0,0,1.9-4.527l2.2.754A38.153,38.153,0,0,1,573,57.423h4.5v1.749h-6.762v2.053h5.646v1.69h-5.646v2.112h7.427v1.751H571.04A21.906,21.906,0,0,0,573,70.943a16.939,16.939,0,0,0,2.6-3.5l1.812,1.238a32.435,32.435,0,0,1-3.351,3.68,18.768,18.768,0,0,0,4.528,4.075L577.259,78.4a20.881,20.881,0,0,1-6.521-8.178v7.666C570.738,79.573,570.225,80.027,568.534,80.027Zm-5.4-10.956,1.358-1.3a19.523,19.523,0,0,1,3.138,2.987l-1.448,1.418h-.061A19.46,19.46,0,0,0,563.132,69.071ZM564.37,53.8l1.839-.874a17.552,17.552,0,0,1,2.025,3.411l-1.842,1.026h-.061A15.732,15.732,0,0,0,564.37,53.8Z"/><path class="cls-1" d="M592.413,63.549a3.8,3.8,0,0,1,4.045,2.806c1.57-.664,3.109-1.267,5.283-2.143l.875,1.963c-2.2.874-4.075,1.629-5.706,2.354V73h-2.174V69.373c-2.5,1.329-6.067,3.019-5.131,5.583.725,1.992,4.105,1.872,5.222,1.872a52.06,52.06,0,0,0,5.766-.483l.091,2.142a47.99,47.99,0,0,1-5.977.483c-3.984.032-6.279-1-7.154-3.018-1.842-4.405,3.532-6.911,6.944-8.781a1.981,1.981,0,0,0-2.084-1.661h-3.805l.877-6.61h-5.253V56.849h5.554l.483-3.621h2.264l-.513,3.621h7.667V58.9h-7.969l-.6,4.649Z"/><path class="cls-1" d="M612.941,64.153c0,5.431-.061,10.744-2.806,15.662l-1.692-1.9c2.173-3.985,2.325-8.6,2.325-13.039V57.12h10.2V53.167H623.2V57.12h9.963v2.022H612.941Zm2.475,2.625,2.083.574a37.963,37.963,0,0,1-2.506,10.29l-1.932-1.3A34.109,34.109,0,0,0,615.416,66.778Zm6.25,10.292a7.548,7.548,0,0,0,2.022.21c.574,0,2.083-.029,2.506-.542.422-.755.483-4.166.483-5.01l2.172.632c-.059,1-.181,5.1-.784,5.887-.784,1.055-3.2,1.116-4.377,1.116a10.624,10.624,0,0,1-3.622-.513,1.791,1.791,0,0,1-.906-1.689V65.088h2.052V75.923C621.212,76.345,621.273,76.858,621.666,77.07Zm-1.932-15.664,1.448-1.448a35.239,35.239,0,0,1,4.86,4.647l-1.538,1.66h-.061A27.639,27.639,0,0,0,619.734,61.406Zm7.576,5.433,1.871-1.087a56.377,56.377,0,0,1,4.77,9.446l-1.961,1.357h-.061A56.122,56.122,0,0,0,627.31,66.839Z"/><path class="cls-1" d="M641.771,68.589h.03v9.265c0,1.69-.665,2.142-2.355,2.142a17.655,17.655,0,0,1-2.6-.181l-.362-2.173a14.077,14.077,0,0,0,2.445.273.772.772,0,0,0,.875-.845V69.4c-.845.3-1.751.664-2.6.935l-.754.242-.694-1.961q2.037-.59,4.076-1.358h-.031V60.922h-3.622V58.961h3.622v-6.1H641.8v6.1h3.109v1.961H641.8v5.585c.965-.393,1.961-.816,2.928-1.238l.181,1.9C643.884,67.684,642.827,68.136,641.771,68.589Zm14.247,7.031a21.571,21.571,0,0,0,5.886,2.3l-1.3,1.871a19.6,19.6,0,0,1-5.918-2.867,20.094,20.094,0,0,1-5.976,3.35l-1.207-1.812A16.293,16.293,0,0,0,653.18,75.8a18.516,18.516,0,0,1-3.41-4.073A20.906,20.906,0,0,1,644.819,80l-1.267-1.629a20.123,20.123,0,0,0,5.283-10.774h-3.564V65.782h3.835a4.7,4.7,0,0,1,.061-.665c.059-.512.12-1.116.149-1.628h-3.681V61.738h9.66a33.681,33.681,0,0,0,2.413-5.675l2.174.845a40.34,40.34,0,0,1-2.475,4.83h3.139v1.751h-9.3c-.059.754-.059,1.538-.181,2.293h10.385v1.811H650.8c-.12.694-.242,1.388-.423,2.052h7.909l1.057.935A19.44,19.44,0,0,1,656.018,75.62ZM645.574,56.637l-.784-1.81h.029a54.6,54.6,0,0,0,13.553-1.751l1.722,1.751A96.345,96.345,0,0,1,645.574,56.637Zm.965.935,1.812-.693a13.882,13.882,0,0,1,2.052,3.984l-1.961.723h-.061A12.874,12.874,0,0,0,646.539,57.572Zm4.286-.6,1.964-.664a21.23,21.23,0,0,1,1.72,4.376l-1.932.754h-.03A19.992,19.992,0,0,0,650.825,56.969Zm3.684,17.6a15.015,15.015,0,0,0,2.234-3.17H651.46A16.906,16.906,0,0,0,654.509,74.565Z"/><path class="cls-1" d="M675.852,78.7c-3.38,0-6.157-2.083-6.157-6.368V54.976h2.384V72.331c0,2.475,1.118,4.195,3.683,4.195,2.384,0,5.735-1.328,9.479-6.278l1.629,1.48C683.309,76.526,679.506,78.7,675.852,78.7Z"/><path class="cls-1" d="M706.282,73.659c-.091,3.319-1.419,4.92-4.619,4.92-3.29,0-6.521-1.963-5.4-5.282.484-1.389,1.993-2.324,4.167-2.595a10.8,10.8,0,0,1,3.654.12V65.54h-7.457V63.489h7.457V58.932h-7.85V56.849h7.85V53.257h2.2v3.592h7.034v2.083h-7.034v4.557h6.58V65.54h-6.58v5.916a27.149,27.149,0,0,1,7.456,4.135L712.41,77.31A26.558,26.558,0,0,0,706.282,73.659ZM700.728,73c-.936.12-2.084.574-2.264,1.419-.3,1.267,1.629,2.021,3.2,2.021,2.2,0,2.445-1.086,2.416-3.259A10.156,10.156,0,0,0,700.728,73Z"/><path class="cls-1" d="M736.047,59.867v9.114c.12,5.433-.032,6.217-4.619,10.834l-1.66-1.448c3.319-3.228,3.893-3.983,4.164-6.156a2.91,2.91,0,0,1-2.413.754c-2.718-.151-4.438-2.385-4.2-5.342.241-2.806,2.081-4.679,4.587-4.647a2.725,2.725,0,0,1,1.873.542V59.867H720.831V57.845h12.952V54.012h2.264v3.833h7v2.022ZM729.5,67.8c-.121,1.3.362,3.018,2.082,3.079,1.751.06,2.354-1.358,2.445-2.716.121-1.631-.633-3.108-2.233-3.108C730.251,65.059,729.587,66.507,729.5,67.8Z"/><path class="cls-1" d="M752.137,72.512a3.726,3.726,0,0,1,2.113,3.53,3.847,3.847,0,0,1-.452,1.812,3.774,3.774,0,0,1-3.563,2.2,4.022,4.022,0,0,1-1.9-.484,3.74,3.74,0,0,1-2.113-3.56,3.961,3.961,0,0,1,1.237-2.867,4,4,0,0,1,4.679-.634ZM748.545,74.2a2.362,2.362,0,0,0-.785,1.841,2.657,2.657,0,0,0,.211,1.058,2.348,2.348,0,0,0,2.264,1.418,2.413,2.413,0,0,0,1.3-.363,2.5,2.5,0,0,0-.181-4.345,2.429,2.429,0,0,0-1.118-.241A2.324,2.324,0,0,0,748.545,74.2Z"/></svg>