<svg id="レイヤー_1" data-name="レイヤー 1" xmlns="http://www.w3.org/2000/svg" viewBox="0 0 297.347 89.491"><defs><style>.cls-1{fill:#ff64a5;stroke:#ed6fa4;stroke-miterlimit:10;stroke-width:0.226px;}</style></defs><path class="cls-1" d="M39.474,6.5H36.333V5.134h3.161V.693h1.52V5.134h1.28c1.341,0,3.221.26,3.941,2.441a10.759,10.759,0,0,1,.34,3.4,10.95,10.95,0,0,1-.34,3.361c-.74,2.261-2.48,2.421-4.581,2.421v-1.42c2.481,0,2.8-.561,3.1-1.521a8.679,8.679,0,0,0,.28-2.841,8.946,8.946,0,0,0-.28-2.92c-.28-.9-.821-1.56-2.461-1.56h-1.3c-.12,4.16-.74,5.221-3.181,10l-1.34-.66C38.933,11.036,39.394,10.235,39.474,6.5Zm8.182-1.8,1.06-1c2.34,1.78,2.6,3.061,2.6,7.662h-1.48C49.836,6.734,49.456,6.234,47.656,4.694Z"/><path class="cls-1" d="M60.974,13.176c-.14,1.88,1.181,2.681,3.041,2.681a14.573,14.573,0,0,0,1.78-.141V17.1a15.809,15.809,0,0,1-1.78.16c-2.741,0-4.7-1.36-4.5-4.181.12-1.821,1.6-3.3,3.161-4.761H55.293v-1.2h3.5l4.621-4.521H58.034V1.333h7.681v.921l-5,4.861h7.742v1.2H64.615C62.635,10.155,61.094,11.536,60.974,13.176Zm6.962-7.042H66.8V3.054h1.14Zm2.46.02h-1.14V3.074H70.4Z"/><path class="cls-1" d="M76.754,10.755a2.463,2.463,0,0,1-.12-2.94c1.12-1.5,3.24-4.521,5.181-7.342l1.28.86c-1.9,2.8-4.081,5.8-5.261,7.342a1,1,0,0,0,.04,1.12c1.38,1.541,3.821,4.5,5.461,6.822l-1.3.84C80.414,15.176,78.034,12.256,76.754,10.755Z"/><path class="cls-1" d="M103.856,11.476a5.213,5.213,0,0,0-.24-5.262,5.39,5.39,0,0,0-3.961-2.42,24.13,24.13,0,0,1-.7,5.021,15.5,15.5,0,0,1-1.94,4.881c-1.321,2-3.321,2.06-4.541.92a5.956,5.956,0,0,1-1.4-4.481,7.988,7.988,0,0,1,7.982-7.721,6.863,6.863,0,0,1,5.861,3.02,6.773,6.773,0,0,1,.34,6.722A7.529,7.529,0,0,1,98.335,16.4l-.06-1.461C100.875,14.716,102.7,13.876,103.856,11.476ZM98.1,3.834a6.654,6.654,0,0,0-5.5,6.381c-.04.54-.04,2.461.94,3.4.72.7,1.62.24,2.2-.68a14.842,14.842,0,0,0,1.74-4.5A26.276,26.276,0,0,0,98.1,3.834Z"/><path class="cls-1" d="M116.035,8.8v8.882h-1.361V8.8h-2.241c-.02,3.381-.379,6.581-2.64,9.342l-1-1.1c1.9-2.2,2.281-5.4,2.3-8.242h-2.621V7.535h2.621V2.454h-2.141V1.193H118.2V2.454h-2.221V7.535H118.6V8.8Zm-1.4-6.341h-2.2V7.535h2.2Zm8.982,2.42,1.26.72a16.354,16.354,0,0,1-6.721,6.722l-.9-1.24A13.835,13.835,0,0,0,123.616,4.874ZM122.8.393l1.34.74A15.168,15.168,0,0,1,118.275,6.9l-.94-1.121h.02A12.613,12.613,0,0,0,122.8.393Zm1.58,9.182,1.261.76a18.491,18.491,0,0,1-7.262,7.362l-.94-1.24A16.567,16.567,0,0,0,124.376,9.575Z"/><path class="cls-1" d="M131.734,15.8l-1.22.9c-1.321-1.761-1.521-2.3-1.521-4.781V1.874h1.44V11.916C130.433,14.276,130.614,14.4,131.734,15.8Zm6.141-1.321h4.381v1.461h-4.481c-3.061,0-3.961-1.921-3.661-5.062h1.521C135.414,13.416,135.815,14.476,137.875,14.476ZM134.734,3.734h7.042v1.5h-7.042Z"/><path class="cls-1" d="M154.334,17.057c-2.88,0-4.72-.86-5.381-2.441a2.731,2.731,0,0,1,.1-2.4c.6-1.12,1.82-1.66,3.86-1.7a9.829,9.829,0,0,1,3.141.6,8.122,8.122,0,0,1-1.12-3.441h-6.5V6.315h6.382c-.04-.441-.04-.781-.04-2.361h-6.342V2.534h6.342V.113h1.48V2.534H159.7v1.42h-3.441c0,1.64,0,1.98.02,2.361h3.481v1.36H156.4a5.936,5.936,0,0,0,1.76,3.741h-.019l-.761,1.18a18.923,18.923,0,0,0-4.36-.82c-1.521.06-2.281.44-2.6,1.14a1.365,1.365,0,0,0-.08,1.12c.36.92,1.28,1.38,2.78,1.561a19.285,19.285,0,0,0,4.241-.1v1.361A18.337,18.337,0,0,1,154.334,17.057Z"/><path class="cls-1" d="M173.454,13.676c-.06,2.2-.939,3.261-3.06,3.261-2.18,0-4.321-1.3-3.581-3.5a3.078,3.078,0,0,1,2.761-1.72A7.18,7.18,0,0,1,172,11.8V8.3h-4.942V6.935H172V3.914h-5.2V2.534H172V.153h1.459V2.534h4.662v1.38h-4.662V6.935h4.362V8.3h-4.362v3.921a18,18,0,0,1,4.942,2.74l-.88,1.141A17.509,17.509,0,0,0,173.454,13.676Zm-3.68-.44c-.62.08-1.381.38-1.5.94-.2.84,1.081,1.34,2.121,1.34,1.46,0,1.621-.72,1.6-2.16A6.726,6.726,0,0,0,169.774,13.236Z"/><path class="cls-1" d="M192.135,1.293c2.24.32,3.441,2.141,3.441,5.7a12.949,12.949,0,0,1-1.161,6.141,19.435,19.435,0,0,1-3.1,4.081l-1.14-1a16.47,16.47,0,0,0,2.8-3.681A11.115,11.115,0,0,0,194.036,7c0-2.621-.781-4.241-2.1-4.4-1.28-.24-2.28,1.3-3.161,3a13.678,13.678,0,0,0-1.68,5.522h-1.34V1.254h1.42v5.1C188.134,3.414,189.854.973,192.135,1.293Z"/><path class="cls-1" d="M204.934,15.356l-1.161.9c-1.68-2.1-1.58-2.741-1.58-4.521V2.254h1.441v9.382C203.634,13.376,203.534,13.576,204.934,15.356Zm8.481-1.62a2.551,2.551,0,0,1-2.86,2.761,4.521,4.521,0,0,1-1.8-.36,2.366,2.366,0,0,1-1.541-2.881c.5-1.36,1.961-1.66,3.1-1.66a9.667,9.667,0,0,1,1.64.16V5.814h-5.241V4.454h5.241V.733h1.48V4.454h2.9v1.36h-2.9V12.3A20.036,20.036,0,0,1,217,14.476l-.82,1.121C214.6,14.476,214.016,14.116,213.415,13.736Zm-3-.76a1.931,1.931,0,0,0-1.74.62c-.361.62.279,1.22.88,1.42a3.592,3.592,0,0,0,1,.16c1.28,0,1.4-.56,1.4-1.74v-.28A7.078,7.078,0,0,0,210.415,12.976Z"/><path class="cls-1" d="M223.433,4.514h-2.48v-1.4h2.941c.3-1.08.56-2.081.72-2.621l1.44.34c-.12.4-.34,1.261-.62,2.281H228.1v1.4h-3.1a50.358,50.358,0,0,1-3.881,9.4l-1.32-.74A46.642,46.642,0,0,0,223.433,4.514Zm7.742,5.781v2.5a23.508,23.508,0,0,1,3.781,1.94l-.72,1.221a27.019,27.019,0,0,0-3.061-1.681c.02,2-1.04,2.881-2.9,2.881s-4.161-1.28-3.441-3.341a2.941,2.941,0,0,1,2.661-1.64,5.9,5.9,0,0,1,2.26.16v-2.1a3.69,3.69,0,0,1,.92-2.8,5.333,5.333,0,0,0-3.761.96l-.74-1.08a5.985,5.985,0,0,1,3.561-1.06l4.5.08V7.5h-1.36C231.855,7.5,231.135,8.375,231.175,10.3Zm-3,3.161a4.231,4.231,0,0,0-1.261.2,1.009,1.009,0,0,0-.78.9c.02,1.061,1.8,1.261,2.181,1.261,1.22,0,1.52-.641,1.52-1.721v-.38A6.135,6.135,0,0,0,228.175,13.456Z"/><path class="cls-1" d="M239.313,10.035V3.254h1.6v6.781c0,3.4.4,3.541,2.741,5.141l-.9,1.261C239.753,14.376,239.313,13.676,239.313,10.035ZM249.1,5.274l1.26-.9c2.381,2.721,2.521,3.6,2.521,6.6V13.3h-1.6V10.975C251.276,7.975,251.156,7.615,249.1,5.274Z"/><path class="cls-1" d="M259.033,12.916a2.469,2.469,0,0,1,1.4,2.34,2.553,2.553,0,0,1-.3,1.2,2.5,2.5,0,0,1-2.361,1.46,2.677,2.677,0,0,1-1.26-.32,2.481,2.481,0,0,1-1.4-2.361,2.623,2.623,0,0,1,.82-1.9,2.52,2.52,0,0,1,1.861-.74A2.547,2.547,0,0,1,259.033,12.916Zm-2.38,1.12a1.562,1.562,0,0,0-.52,1.22,1.758,1.758,0,0,0,.14.7,1.554,1.554,0,0,0,1.5.94,1.593,1.593,0,0,0,.86-.24,1.518,1.518,0,0,0,.78-1.4,1.5,1.5,0,0,0-.9-1.48,1.6,1.6,0,0,0-.74-.16A1.537,1.537,0,0,0,256.653,14.036Z"/><path class="cls-1" d="M60.974,48.825c-.14,1.88,1.181,2.68,3.041,2.68a14.761,14.761,0,0,0,1.78-.14v1.38a15.6,15.6,0,0,1-1.78.161c-2.741,0-4.7-1.361-4.5-4.181.12-1.741,1.6-3.3,3.161-4.761H55.293v-1.2h3.421l4.621-4.521h-5.3v-1.26h7.681v.92l-5,4.861h7.742v1.2H64.615C62.635,45.8,61.094,47.264,60.974,48.825Z"/><path class="cls-1" d="M74.253,52.546l-1.36-.7c2.54-4.641,3.281-5.941,3.36-11.022h-2.92v-1.34h2.92V36.1h1.561v3.381h3.261v1.34H77.794C77.714,46.324,76.794,47.9,74.253,52.546Zm5.641-3.441v-.74h1.5v.74c0,1.52,1.821,1.62,3.561,1.62h1.981v1.42H85C82.315,52.145,79.894,51.705,79.894,49.105Zm6.722-5.982v1.341H80.454V43.123Zm-2.761-2.28h-1.18v-3.1h1.18Zm2.481.02h-1.18v-3.1h1.18Z"/><path class="cls-1" d="M105.176,44.984a5.815,5.815,0,0,1-3,4.7c-1.62,1-3.421,1.5-6.521,1.5v-1.5c3.961,0,7.8-1.5,7.942-4.761.1-2.7-1.821-3.581-4.561-3.581H91.793v-1.52h7.242C103,39.823,105.3,41.6,105.176,44.984Z"/><path class="cls-1" d="M122.3,39.963c0,5.9-2.821,8.5-8.422,12.642l-1.06-1.2c5.561-4.1,7.722-6.381,7.842-11.082H110.633v-1.56H122.3Zm1.8-.88a2.1,2.1,0,0,1-2.12-2.061,2.111,2.111,0,1,1,4.221,0A2.093,2.093,0,0,1,124.1,39.083Zm0-3.3a1.242,1.242,0,0,0-1.22,1.24,1.225,1.225,0,0,0,1.22,1.22,1.255,1.255,0,0,0,1.24-1.22A1.3,1.3,0,0,0,124.1,35.782Z"/><path class="cls-1" d="M129.073,51.585V38.8h12.563V51.585Zm1.541-11.342v9.922H140.1V40.243Z"/><path class="cls-1" d="M153.675,38.1v1.561h-5.141V38.1Zm-5.141,5.321v-1.5h5.141v1.5Zm11.5.821c-2.1,4.261-3.861,7.941-9.582,7.941h-1.46v-1.46h1.46c4.681,0,6.081-3.061,8.122-7.141.56-1.081.98-2.061.98-2.061l1.42.66S160.256,43.784,160.036,44.244Zm-1.32-3.5h-1.141V37.662h1.141Zm2.5.02h-1.14V37.682h1.14Z"/><path class="cls-1" d="M177.036,41.743v1.34h-4.1v6.482h5.342v1.36H166.033v-1.36h5.341V43.083h-4.1v-1.34Z"/><path class="cls-1" d="M194.775,40.863h-4.881c-.84,1.58-2.02,2.78-4.641,4.621l-.92-1.2c4.821-3.441,4.841-5.2,4.841-7.9h1.6a10.607,10.607,0,0,1-.3,3.021h5.9v1.36c0,4.241-2.72,7.622-9.881,12.083l-.881-1.261C192.2,47.444,194.7,44.484,194.775,40.863Z"/><path class="cls-1" d="M214.736,46.544l-.88,1.3a57.548,57.548,0,0,0-6.6-4.06v8.961h-1.54V36.382h1.54v5.881A64.207,64.207,0,0,1,214.736,46.544Z"/><path class="cls-1" d="M223.334,51.005l-1.161.9c-1.68-2.1-1.58-2.74-1.58-4.521V37.9h1.441v9.382C222.034,49.025,221.933,49.225,223.334,51.005Zm8.481-1.62a2.55,2.55,0,0,1-2.86,2.76,4.521,4.521,0,0,1-1.8-.36,2.365,2.365,0,0,1-1.541-2.88c.5-1.361,1.961-1.661,3.1-1.661a9.667,9.667,0,0,1,1.64.16V41.463h-5.241V40.1h5.241V36.382h1.48V40.1h2.9v1.36h-2.9v6.481a20.12,20.12,0,0,1,3.561,2.181l-.82,1.12C233,50.125,232.415,49.765,231.815,49.385Zm-3-.76a1.931,1.931,0,0,0-1.74.62c-.361.62.279,1.22.879,1.42a3.6,3.6,0,0,0,1,.16c1.28,0,1.4-.56,1.4-1.74v-.28A7.078,7.078,0,0,0,228.815,48.625Z"/><path class="cls-1" d="M236.633,49.445l1.28-1.1a23.043,23.043,0,0,1,3.38,3.86l-1.4,1.2A20,20,0,0,0,236.633,49.445Z"/><path class="cls-1" d="M.113,81.332V74.551h1.6v6.781c0,3.4.4,3.541,2.74,5.142l-.9,1.26C.554,85.673.113,84.973.113,81.332ZM9.9,76.571l1.261-.9c2.38,2.721,2.52,3.6,2.52,6.6v2.32h-1.6v-2.32C12.076,79.272,11.956,78.912,9.9,76.571Z"/><path class="cls-1" d="M27.515,86.453a3.464,3.464,0,0,0,1.94-3.68c-.259-1.361-1.8-2-3.08-2.121a11.626,11.626,0,0,0-6.041,1.661l-.881-.941,7.082-7.361H20.453v-1.34h8.282v1.06l-6.161,6.341a8.484,8.484,0,0,1,3.881-.72c1.82.14,4.081,1,4.521,3.121A4.754,4.754,0,0,1,28.2,87.694c-2.1.98-4.2.7-6.461.24v-1.38C23.914,87.034,25.975,87.194,27.515,86.453Z"/><path class="cls-1" d="M36.913,81.332V74.551h1.6v6.781c0,3.4.4,3.541,2.74,5.142l-.9,1.26C37.353,85.673,36.913,84.973,36.913,81.332ZM46.7,76.571l1.26-.9c2.381,2.721,2.521,3.6,2.521,6.6v2.32h-1.6v-2.32C48.876,79.272,48.756,78.912,46.7,76.571Z"/><path class="cls-1" d="M64.315,86.453a3.465,3.465,0,0,0,1.941-3.68c-.26-1.361-1.8-2-3.081-2.121a11.628,11.628,0,0,0-6.041,1.661l-.88-.941,7.081-7.361H57.254v-1.34h8.282v1.06l-6.162,6.341a8.484,8.484,0,0,1,3.881-.72c1.821.14,4.081,1,4.521,3.121A4.754,4.754,0,0,1,65,87.694c-2.1.98-4.2.7-6.461.24v-1.38C60.715,87.034,62.775,87.194,64.315,86.453Z"/><path class="cls-1" d="M76.234,75.811H73.753v-1.4h2.941c.3-1.08.56-2.081.72-2.621l1.44.34c-.119.4-.339,1.261-.62,2.281H80.9v1.4h-3.1a50.33,50.33,0,0,1-3.881,9.4l-1.32-.74A46.616,46.616,0,0,0,76.234,75.811Zm7.741,5.781v2.5a23.554,23.554,0,0,1,3.782,1.94l-.72,1.221a27.266,27.266,0,0,0-3.062-1.681c.02,2-1.04,2.881-2.9,2.881s-4.161-1.28-3.441-3.341a2.941,2.941,0,0,1,2.661-1.64,5.908,5.908,0,0,1,2.261.16v-2.1a3.69,3.69,0,0,1,.919-2.8,5.329,5.329,0,0,0-3.76.96l-.741-1.08a5.993,5.993,0,0,1,3.562-1.06l4.5.08v1.16H85.676C84.656,78.792,83.935,79.672,83.975,81.592Zm-3,3.161a4.225,4.225,0,0,0-1.26.2,1.01,1.01,0,0,0-.781.9c.02,1.061,1.8,1.261,2.181,1.261,1.22,0,1.521-.64,1.521-1.721v-.38A6.147,6.147,0,0,0,80.975,84.753Z"/><path class="cls-1" d="M100.375,79.492a4.324,4.324,0,0,1,3.461,1.4,4.37,4.37,0,0,1-.16,5.8c-1.4,1.481-3.8,1.421-5.121,1.381v-1.34c1.8.04,3.24-.24,3.981-1.041a2.948,2.948,0,0,0,.16-3.821,3.24,3.24,0,0,0-2.621-1.1,7,7,0,0,0-3.261.84v4.061a2.289,2.289,0,0,1-.82,1.961,2.21,2.21,0,0,1-2.06.14,3.205,3.205,0,0,1-2.041-2.8,3.145,3.145,0,0,1,.96-2.3,11.264,11.264,0,0,1,2.5-1.841V76.451H92.313v-1.4h3.041v-2.62h1.46v2.62h2.761v1.4H96.814v3.821A7.934,7.934,0,0,1,100.375,79.492Zm-6.9,4.861a1.738,1.738,0,0,0,.98,2.1c.7.26.9-.06.9-.74v-3.32A4.027,4.027,0,0,0,93.474,84.353Zm7.141-6.581V76.431c2.961,0,3.581.16,5.141,1.821l-1.12.94C103.5,78.032,103.356,77.772,100.615,77.772Z"/><path class="cls-1" d="M124.7,86.554h-1.42a4.689,4.689,0,0,0-4.521-4.6c1.34,2.16,1.34,3.82.34,4.961-1.36,1.66-3.54,1.36-5.881.84l.3-1.24c2.641.56,3.781.38,4.481-.441,1.04-1.32-.36-3.28-.9-4.04-2.961.5-5.2,2.76-6.782,4.521l-.98-1.021c1.681-1.8,4-3.981,7.021-4.661-.219-.38-1.1-1.64-1.1-1.64-1.38-1.96-.68-3.6,1.461-4.421l-1.981-1.52.861-1.08,4.941,3.84-.841,1.08-1.84-1.42c-2.081.68-2.221,1.561-1.4,2.821l1.461,2.14C121.8,80.312,124.4,82.933,124.7,86.554Z"/><path class="cls-1" d="M129.533,88.194l-1.36-.7c2.541-4.641,3.28-5.942,3.361-11.023h-3v-1.34h3V71.75h1.56v3.381h3.5v1.34h-3.521C132.994,81.973,132.074,83.553,129.533,88.194Zm5.642-3.441v-.74h1.5v.74c0,1.521,1.82,1.62,3.561,1.62h1.98v1.421h-1.94C137.6,87.794,135.175,87.354,135.175,84.753Zm6.721-5.981v1.34h-6.161v-1.34Z"/><path class="cls-1" d="M155.335,72.59c2.241.321,3.441,2.141,3.441,5.7a12.958,12.958,0,0,1-1.16,6.141,19.474,19.474,0,0,1-3.1,4.081l-1.14-1a16.482,16.482,0,0,0,2.8-3.681,11.114,11.114,0,0,0,1.06-5.541c0-2.621-.781-4.241-2.1-4.4-1.28-.24-2.28,1.3-3.161,3a13.678,13.678,0,0,0-1.68,5.522h-1.34V72.551h1.42v5.1C151.334,74.711,153.055,72.27,155.335,72.59Z"/><path class="cls-1" d="M164.233,85.353l-.82-1.48a22.732,22.732,0,0,0,2.92-7.181h-2.54V75.431h2.721V71.21h1.32v4.221h2.1v1.261h-2.1v2.32a22.486,22.486,0,0,1,2.44,2.741l-.8,1.42c-.54-.9-1.1-1.741-1.64-2.481v8.482h-1.32V79.752A25.185,25.185,0,0,1,164.233,85.353Zm9.582-1.66.26,1.24a22.643,22.643,0,0,1-4.141,2.841l-.66-1.341h.02A23.3,23.3,0,0,0,173.815,83.693Zm.38,5.5a16.869,16.869,0,0,1-2.06-.16l-.2-1.42a9.414,9.414,0,0,0,1.8.22c.36,0,.6-.16.6-.56V80.412h-4.581v-1.16h4.581v-1.4h-3.6V76.731h3.6v-1.36h-4.28v-1.16h5.7a25.486,25.486,0,0,0,1.26-3l1.46.5a25.024,25.024,0,0,1-1.32,2.5h2.981v1.16h-4.481v1.36h3.74v1.121h-3.74v1.4h4.921v1.16h-4.721a14.477,14.477,0,0,0,1.3,2.761,11.25,11.25,0,0,0,1.72-2.321l1.2.82a21.456,21.456,0,0,1-2.221,2.441,12.494,12.494,0,0,0,3,2.7l-.881,1.3a13.856,13.856,0,0,1-4.32-5.421v5.081C175.656,88.894,175.315,89.194,174.2,89.194Zm-3.58-7.262.9-.86a12.987,12.987,0,0,1,2.08,1.981l-.96.94h-.04A12.9,12.9,0,0,0,170.615,81.932Zm.819-10.122,1.221-.58A11.573,11.573,0,0,1,174,73.491l-1.22.68h-.04A10.338,10.338,0,0,0,171.434,71.81Z"/><path class="cls-1" d="M190.015,78.272a2.518,2.518,0,0,1,2.68,1.86c1.04-.44,2.061-.84,3.5-1.42l.58,1.3c-1.46.58-2.7,1.08-3.781,1.56v2.961h-1.44v-2.4c-1.661.88-4.021,2-3.4,3.7.48,1.321,2.721,1.241,3.461,1.241a34.333,34.333,0,0,0,3.821-.32l.06,1.42a31.752,31.752,0,0,1-3.961.32c-2.641.02-4.161-.66-4.741-2-1.22-2.921,2.341-4.582,4.6-5.822a1.311,1.311,0,0,0-1.38-1.1h-2.521l.58-4.381h-3.48v-1.36h3.68l.32-2.4h1.5l-.34,2.4h5.081v1.36h-5.281l-.4,3.081Z"/><path class="cls-1" d="M203.614,78.672c0,3.6-.04,7.121-1.861,10.382l-1.12-1.26c1.44-2.641,1.54-5.7,1.54-8.642V74.011h6.761V71.39h1.481v2.621h6.6v1.34h-13.4Zm1.64,1.74,1.38.38a25.211,25.211,0,0,1-1.66,6.822l-1.28-.86A22.672,22.672,0,0,0,205.254,80.412Zm4.141,6.822a5.006,5.006,0,0,0,1.34.14c.38,0,1.38-.02,1.66-.36a13.051,13.051,0,0,0,.321-3.321l1.44.42c-.04.66-.12,3.381-.52,3.9-.52.7-2.121.74-2.9.74a7.052,7.052,0,0,1-2.4-.34,1.186,1.186,0,0,1-.6-1.12v-8H209.1v7.182C209.1,86.754,209.135,87.094,209.4,87.234Zm-1.28-10.383.96-.96a23.413,23.413,0,0,1,3.22,3.081l-1.02,1.1h-.04A18.336,18.336,0,0,0,208.115,76.851Zm5.021,3.6,1.24-.72a37.588,37.588,0,0,1,3.161,6.262l-1.3.9h-.04A37.29,37.29,0,0,0,213.136,80.452Z"/><path class="cls-1" d="M222.714,81.612h.02v6.142c0,1.12-.441,1.42-1.561,1.42a11.809,11.809,0,0,1-1.72-.12l-.24-1.44a9.338,9.338,0,0,0,1.62.18.512.512,0,0,0,.58-.56V82.153c-.56.2-1.16.44-1.72.62l-.5.16-.46-1.3q1.35-.39,2.7-.9h-.02v-4.2h-2.4v-1.3h2.4V71.19h1.321v4.041h2.06v1.3h-2.06v3.7c.64-.26,1.3-.54,1.94-.82l.12,1.26C224.114,81.012,223.414,81.312,222.714,81.612Zm9.442,4.662a14.241,14.241,0,0,0,3.9,1.52l-.861,1.24a12.957,12.957,0,0,1-3.921-1.9,13.283,13.283,0,0,1-3.961,2.22l-.8-1.2a10.794,10.794,0,0,0,3.76-1.761,12.286,12.286,0,0,1-2.26-2.7,13.873,13.873,0,0,1-3.281,5.481l-.84-1.08a13.33,13.33,0,0,0,3.5-7.142h-2.36v-1.2h2.541a3.27,3.27,0,0,1,.04-.44c.04-.34.08-.74.1-1.08h-2.441V77.071h6.4a22.362,22.362,0,0,0,1.6-3.76l1.44.56a26.859,26.859,0,0,1-1.64,3.2h2.08v1.161H229c-.04.5-.04,1.02-.12,1.52h6.881v1.2H228.7c-.08.46-.16.92-.28,1.361h5.241l.7.62A12.9,12.9,0,0,1,232.156,86.274Zm-6.922-12.583-.52-1.2h.02a36.171,36.171,0,0,0,8.982-1.161l1.14,1.161A63.885,63.885,0,0,1,225.234,73.691Zm.64.62,1.2-.46a9.212,9.212,0,0,1,1.36,2.64l-1.3.481h-.04A8.529,8.529,0,0,0,225.874,74.311Zm2.841-.4,1.3-.44a14.07,14.07,0,0,1,1.14,2.9l-1.28.5h-.02A13.318,13.318,0,0,0,228.715,73.911Zm2.44,11.662a9.877,9.877,0,0,0,1.481-2.1h-3.5A11.191,11.191,0,0,0,231.155,85.573Z"/><path class="cls-1" d="M245.3,88.314a3.869,3.869,0,0,1-4.081-4.221V72.59h1.58v11.5c0,1.64.741,2.781,2.441,2.781,1.58,0,3.8-.88,6.281-4.161l1.081.98C250.236,86.874,247.715,88.314,245.3,88.314Z"/><path class="cls-1" d="M265.455,84.973c-.06,2.2-.94,3.261-3.061,3.261-2.18,0-4.32-1.3-3.58-3.5a3.077,3.077,0,0,1,2.76-1.72,7.18,7.18,0,0,1,2.421.08v-3.5h-4.941v-1.36H264V75.211h-5.2v-1.38H264V71.45h1.46v2.381h4.661v1.38h-4.661v3.021h4.361v1.36h-4.361v3.921a17.968,17.968,0,0,1,4.941,2.741l-.88,1.14A17.523,17.523,0,0,0,265.455,84.973Zm-3.681-.44c-.62.08-1.38.38-1.5.94-.2.841,1.08,1.341,2.12,1.341,1.461,0,1.621-.721,1.6-2.161A6.725,6.725,0,0,0,261.774,84.533Z"/><path class="cls-1" d="M285.175,75.831v6.041c.08,3.6-.02,4.122-3.06,7.182l-1.1-.96c2.2-2.141,2.58-2.641,2.76-4.081a1.926,1.926,0,0,1-1.6.5,3.012,3.012,0,0,1-2.781-3.541,3.057,3.057,0,0,1,3.041-3.08,1.8,1.8,0,0,1,1.24.36V75.831h-8.582v-1.34h8.582V71.95h1.5v2.541h4.641v1.34Zm-4.341,5.261c-.08.861.241,2,1.381,2.041,1.16.04,1.56-.9,1.62-1.8.08-1.08-.42-2.06-1.48-2.06C281.334,79.272,280.894,80.232,280.834,81.092Z"/><path class="cls-1" d="M295.833,84.213a2.47,2.47,0,0,1,1.4,2.341,2.541,2.541,0,0,1-.3,1.2,2.5,2.5,0,0,1-2.361,1.46,2.677,2.677,0,0,1-1.26-.32,2.48,2.48,0,0,1-1.4-2.36,2.623,2.623,0,0,1,.82-1.9,2.517,2.517,0,0,1,1.86-.74A2.544,2.544,0,0,1,295.833,84.213Zm-2.38,1.12a1.563,1.563,0,0,0-.52,1.221,1.75,1.75,0,0,0,.14.7,1.554,1.554,0,0,0,1.5.94,1.593,1.593,0,0,0,.86-.24,1.657,1.657,0,0,0-.12-2.881,1.592,1.592,0,0,0-.74-.16A1.537,1.537,0,0,0,293.453,85.333Z"/></svg>