<?xml version="1.0" encoding="UTF-8"?><svg id="_レイヤー_2" xmlns="http://www.w3.org/2000/svg" viewBox="0 0 468.064 232.463"><defs><style>.cls-1{fill:none;stroke:#fff;stroke-miterlimit:10;stroke-width:14.403px;}.cls-2{fill:#af8c70;}.cls-2,.cls-3,.cls-4,.cls-5{stroke-width:0px;}.cls-3{fill:#646464;}.cls-4{fill:#f5695a;}.cls-5{fill:#fff;}</style></defs><g id="_レイヤー_1-2"><polygon class="cls-3" points="138.953 0 0 99.423 28.541 99.423 28.541 232.463 249.365 232.463 249.365 99.423 277.906 99.423 138.953 0 138.953 0"/><polyline class="cls-5" points="138.953 17.595 235.056 86.358 235.056 99.423 235.056 218.154 42.85 218.154 42.85 99.423 42.85 86.358 138.953 17.595"/><polygon class="cls-3" points="329.111 0 138.953 0 139 1 275 100 468.064 100 329.111 0 329.111 0"/><polygon class="cls-3" points="439.523 97.463 247.523 97.463 247.523 232.463 439.523 232.463 439.523 97.463 439.523 97.463"/><path class="cls-5" d="M251.572,133.864h72.752v11.807h-30.098v26.44h32.759v11.973h-32.759v26.44h-12.971v-26.44h-32.759v-11.973h32.759v-26.44h-29.683v-11.807ZM267.038,147.167c2.993,5.238,6.818,16.297,8.065,20.953l-12.222,3.659c-.998-4.49-3.742-13.969-7.4-20.953l11.558-3.659ZM320.666,150.577c-.998,2.993-5.404,15.299-9.063,21.285l-11.723-3.908c3.825-6.319,6.901-15.881,8.314-20.703l12.472,3.326Z"/><path class="cls-5" d="M406.475,185.747c-1.081-1.996-1.331-2.328-3.077-5.155-1.58.166-4.822.499-11.058.831v4.656h23.364v8.481h-23.364v4.656h26.274v9.562h-61.943v-9.562h23.364v-4.656h-19.872v-8.481h19.872v-4.074c-2.827.083-16.878.582-20.038.582l-.832-9.894c3.658,0,4.074-.083,5.571-.083,1.912-3.326,2.079-3.659,2.661-4.989h-9.562v2.494c0,26.274-5.238,35.42-7.982,40.242l-11.225-8.48c4.074-7.899,6.818-15.049,6.818-31.762v-36.251h70.258v21.535h-57.869v3.077h60.779v9.146h-10.144c4.24,4.905,5.654,6.568,9.062,12.139l-11.058,5.986ZM403.565,143.177h-45.73v3.908h45.73v-3.908ZM394.751,167.622h-13.802c-1.331,2.494-1.497,2.744-2.827,4.989,3.658,0,12.139,0,18.957-.582-1.414-1.746-2.245-2.578-3.575-3.825l1.247-.582Z"/><path class="cls-5" d="M250.523,121.583c.023-.042.253-.901.687-2.582.434-1.68.94-4.068,1.519-7.163.578-3.094,1.09-6.763,1.537-11.005.446-4.242.681-8.946.705-14.11v-12.85h5.604v12.85c0,5.698-.175,10.719-.524,15.063-.35,4.345-.79,7.983-1.32,10.913-.531,2.931-1.145,5.893-1.844,8.884h-6.363ZM276.123,121.583h-6.039c-.916-2.992-1.615-5.953-2.097-8.884-.482-2.93-.922-6.568-1.319-10.913-.398-4.344-.597-9.365-.597-15.063v-12.85h5.604v12.85c.024,5.165.259,9.868.705,14.11.446,4.242.958,7.911,1.537,11.005.578,3.095,1.084,5.482,1.519,7.163.434,1.681.663,2.541.687,2.582Z"/><path class="cls-5" d="M278.906,102.4v-9.653h16.705v9.653h-16.705Z"/><path class="cls-5" d="M299.552,84.754v-9.837h22.164v9.038c-.048,6.025-.603,11.211-1.663,15.555-1.061,4.345-2.327,7.922-3.796,10.729-1.471,2.808-3.025,4.991-4.665,6.548-1.639,1.558-3.194,2.736-4.664,3.535-1.471.799-2.67,1.311-3.598,1.537-.928.225-1.404.317-1.428.277v-9.837c1.928-.492,3.604-1.199,5.026-2.121,1.422-.922,2.838-2.387,4.249-4.396,1.41-2.008,2.561-4.703,3.453-8.085.891-3.382,1.397-7.695,1.519-12.942h-16.596Z"/><path class="cls-5" d="M339.94,124.411v-26.807c-1.206,4.714-2.621,8.7-4.248,11.958-1.627,3.259-3.182,5.902-4.665,7.931-1.482,2.029-2.7,3.483-3.652,4.365-.952.881-1.44,1.322-1.464,1.322v-11.067c.024,0,.398-.389,1.121-1.168.723-.778,1.663-2.039,2.82-3.781,1.157-1.742,2.355-4.078,3.598-7.009,1.241-2.93,2.392-6.568,3.453-10.913h-10.992v-9.407h14.029v-7.685h5.641v7.685h4.122v9.407h-4.122v35.168h-5.641Z"/><path class="cls-5" d="M353.065,102.4v-9.653h16.705v9.653h-16.705Z"/><path class="cls-5" d="M385.317,72.15c-.121,1.189-.241,2.265-.362,3.228-.121.964-.193,1.486-.217,1.568h12.366v9.407c-.289,5.616-.982,10.493-2.079,14.633-1.097,4.141-2.465,7.593-4.104,10.36-1.64,2.767-3.303,5.042-4.99,6.825-1.688,1.783-3.267,3.145-4.737,4.089-1.47.942-2.664,1.588-3.58,1.937-.916.348-1.386.501-1.41.461v-9.96c.024,0,.446-.174,1.266-.522.819-.348,1.862-.973,3.127-1.875,1.266-.901,2.585-2.162,3.959-3.781,1.374-1.619,2.639-3.72,3.796-6.302h-6.689v-9.161h8.858c.385-2.377.615-4.693.687-6.948h-8.497c-1.495,4.714-2.941,8.208-4.339,10.483s-2.543,3.966-3.435,5.072c-.892,1.107-1.362,1.64-1.41,1.599v-11.866c.023,0,.295-.378.813-1.137.518-.758,1.121-1.937,1.808-3.535.687-1.599,1.35-3.597,1.989-5.995.638-2.398,1.139-5.257,1.5-8.577h5.677ZM390.74,74.733v-8.854h2.495v8.854h-2.495ZM394.646,74.733v-8.854h2.495v8.854h-2.495Z"/><path class="cls-5" d="M401.298,102.4v-9.653h16.705v9.653h-16.705Z"/><path class="cls-4" d="M68.176,188.503v-7.325h18.78v-4.909l-.312-.468h-18.469v-7.325h14.026l-16.676-26.885h12.156l14.65,24.781,14.649-24.781h12.157l-16.599,26.885h13.949v7.325h-18.469l-.312.468v4.909h18.78v7.325h-18.78v15.274h-10.754v-15.274h-18.78Z"/><rect class="cls-2" x="62.09" y="95.802" width="60.488" height="17.067"/><rect class="cls-2" x="83.536" y="72.92" width="17.595" height="62.831"/><path class="cls-1" d="M173.949,205.03c-22.531,0-42.358-14.645-42.358-47.766v-63.989c0-33.121,19.827-47.766,42.358-47.766s42.358,14.645,42.358,47.766v63.989c0,33.121-19.827,47.766-42.358,47.766ZM157.501,155.912c0,17.574,4.957,26.587,16.448,26.587s16.447-9.012,16.447-26.587v-61.285c0-17.574-4.956-26.587-16.447-26.587s-16.448,9.013-16.448,26.587v61.285Z"/><path class="cls-4" d="M173.949,205.03c-22.531,0-42.358-14.645-42.358-47.766v-63.989c0-33.121,19.827-47.766,42.358-47.766s42.358,14.645,42.358,47.766v63.989c0,33.121-19.827,47.766-42.358,47.766ZM157.501,155.912c0,17.574,4.957,26.587,16.448,26.587s16.447-9.012,16.447-26.587v-61.285c0-17.574-4.956-26.587-16.447-26.587s-16.448,9.013-16.448,26.587v61.285Z"/></g></svg>