<svg id="レイヤー_1" data-name="レイヤー 1" xmlns="http://www.w3.org/2000/svg" viewBox="0 0 440 419.37"><defs><style>.cls-1,.cls-11,.cls-14,.cls-15,.cls-2,.cls-3,.cls-5,.cls-7{fill:none;}.cls-1,.cls-13,.cls-4,.cls-5,.cls-6,.cls-7{stroke:#221714;}.cls-1,.cls-11,.cls-13,.cls-2,.cls-3,.cls-4,.cls-6,.cls-7{stroke-linecap:round;}.cls-1,.cls-11,.cls-13,.cls-2,.cls-3,.cls-4,.cls-5,.cls-6,.cls-7{stroke-linejoin:round;}.cls-1,.cls-11{stroke-width:3.7px;}.cls-14,.cls-15,.cls-2,.cls-3{stroke:#fff;}.cls-2{stroke-width:1.67px;}.cls-3,.cls-4,.cls-5,.cls-6,.cls-7{stroke-width:0.83px;}.cls-12,.cls-4{fill:#9cbdde;}.cls-13,.cls-6,.cls-9{fill:#fff;}.cls-8{fill:#221714;}.cls-10{fill:#5d5856;}.cls-11{stroke:#9cbdde;}.cls-13{stroke-width:0.74px;}.cls-14,.cls-15{stroke-miterlimit:10;stroke-width:2.29px;}.cls-15{stroke-dasharray:6 6;}</style></defs><polygon class="cls-1" points="349.51 416.69 58.38 416.69 58.38 243.84 231.92 129.88 349.51 243.84 349.51 416.69"/><polyline class="cls-2" points="202.09 183.51 174.85 183.51 154.26 212.43"/><polyline class="cls-2" points="255.76 240.23 255.76 209.36 231.37 209.36 231.37 221.42"/><polyline class="cls-2" points="257.7 286.93 318.32 286.93 318.32 278.32"/><polyline class="cls-2" points="171.23 322.53 181.79 334.48 192.5 334.48"/><line class="cls-2" x1="250.47" y1="324.87" x2="288.16" y2="324.87"/><line class="cls-2" x1="320.68" y1="338.09" x2="320.68" y2="351.93"/><polyline class="cls-2" points="248.12 311.27 301.21 311.27 312.76 319.18"/><polyline class="cls-2" points="265.21 374.39 295.52 374.39 295.52 383.96"/><line class="cls-2" x1="257.7" y1="365.33" x2="257.7" y2="325.02"/><polyline class="cls-2" points="160.66 223.54 175.95 223.54 175.95 263.58"/><polyline class="cls-2" points="130.91 223.27 104.5 223.27 104.5 272.2"/><line class="cls-2" x1="93.65" y1="352.28" x2="121.17" y2="352.28"/><line class="cls-2" x1="128.13" y1="355.33" x2="128.13" y2="378.02"/><polyline class="cls-2" points="143.62 349.31 164.28 349.31 164.28 325.86"/><line class="cls-2" x1="132.29" y1="318.35" x2="158.44" y2="318.35"/><polyline class="cls-2" points="175.11 291.1 185.13 301.94 202.28 301.94"/><line class="cls-2" x1="183.88" y1="270.12" x2="207.65" y2="270.12"/><polyline class="cls-2" points="224.34 287.22 229.89 294.44 257.14 294.44 257.14 248.01"/><line class="cls-2" x1="245.74" y1="295" x2="245.74" y2="309.45"/><polygon class="cls-3" points="79.45 223.45 67.92 231.06 67.92 237.44 79.45 229.82 79.45 223.45"/><polygon class="cls-3" points="214.03 134.16 202.5 141.77 202.5 148.14 214.03 140.53 214.03 134.16"/><polygon class="cls-4" points="56.02 240.02 224.68 128.07 222.01 124.02 53.35 235.97 56.02 240.02"/><line class="cls-5" x1="66.64" y1="227.13" x2="69.32" y2="231.17"/><line class="cls-5" x1="79.91" y1="218.35" x2="82.59" y2="222.4"/><line class="cls-5" x1="93.18" y1="209.57" x2="95.85" y2="213.62"/><line class="cls-5" x1="106.44" y1="200.81" x2="109.12" y2="204.85"/><line class="cls-5" x1="119.71" y1="192.03" x2="122.39" y2="196.07"/><line class="cls-5" x1="132.98" y1="183.26" x2="135.66" y2="187.3"/><line class="cls-5" x1="146.24" y1="174.48" x2="148.92" y2="178.53"/><line class="cls-5" x1="159.51" y1="165.7" x2="162.19" y2="169.75"/><line class="cls-5" x1="172.79" y1="156.93" x2="175.46" y2="160.98"/><line class="cls-5" x1="186.05" y1="148.15" x2="188.72" y2="152.21"/><line class="cls-5" x1="199.2" y1="139.43" x2="201.88" y2="143.47"/><line class="cls-5" x1="212.36" y1="130.69" x2="215.04" y2="134.74"/><polygon class="cls-4" points="184.73 412.39 102.28 412.39 102.31 384.72 184.75 384.72 184.73 412.39"/><rect class="cls-6" x="102.31" y="410.75" width="82.44" height="2.26"/><rect class="cls-6" x="103.37" y="399.17" width="80.51" height="1.4"/><rect class="cls-6" x="103.37" y="386.37" width="80.51" height="1.4"/><rect class="cls-6" x="102.31" y="385.89" width="32.52" height="8.09"/><rect class="cls-4" x="114.47" y="384.77" width="10.1" height="6.09"/><rect class="cls-6" x="182.84" y="383.94" width="1.91" height="28.99"/><rect class="cls-6" x="102.31" y="383.94" width="1.91" height="28.99"/><rect class="cls-6" x="102.31" y="374.51" width="82.44" height="9.57"/><line class="cls-7" x1="151.43" y1="385.11" x2="151.43" y2="410.62"/><line class="cls-7" x1="134.9" y1="385.11" x2="134.9" y2="410.62"/><rect class="cls-6" x="104.03" y="376.1" width="30.86" height="6.38"/><path class="cls-6" d="M168.32,375.28c0,.54-2.36.44-2.36,0v-7.19c0-.61,2.36-.63,2.36,0Z"/><path class="cls-6" d="M132.23,379.36c0,1.06-2.4,1.94-5.37,1.94s-5.38-.88-5.38-1.94,2.41-1.95,5.38-1.95S132.23,378.28,132.23,379.36Z"/><path class="cls-8" d="M125.48,377.36c.62.16.67-.53.18-.65l-3.51-1.39v2.18H123v-1Z"/><path class="cls-8" d="M125,378h-4.33v1.47h-.83v-2.17h5.2C125.57,377.32,125.64,378,125,378Z"/><path class="cls-8" d="M125.82,378.92c.54-.2.19-.85-.16-.69l-3.51.83v2.37H123v-1.67Z"/><path class="cls-6" d="M182.8,381.88a1,1,0,0,1-1,1H152.43c-1.12,0-1-1-1-1v-4.44a1,1,0,0,1,1.08-1h29.14a1.06,1.06,0,0,1,1.16,1Z"/><path class="cls-8" d="M128.23,377.36c-.62.16-.66-.53-.17-.65l3.5-1.39v2.18h-.86v-1Z"/><path class="cls-8" d="M128.7,378H133v1.47h.82v-2.17h-5.2C128.15,377.32,128.08,378,128.7,378Z"/><path class="cls-8" d="M127.9,378.92c-.54-.2-.2-.85.16-.69l3.5.83v2.37h-.86v-1.67Z"/><path class="cls-6" d="M117.34,379.36c0,1.06-2.41,1.94-5.38,1.94s-5.36-.88-5.36-1.94,2.4-1.95,5.36-1.95S117.34,378.28,117.34,379.36Z"/><path class="cls-8" d="M110.6,377.36c.62.16.66-.53.17-.65l-3.5-1.39v2.18h.85v-1Z"/><path class="cls-8" d="M110.13,378h-4.34v1.47H105v-2.17h5.19C110.67,377.32,110.74,378,110.13,378Z"/><path class="cls-8" d="M110.93,378.92c.54-.2.19-.85-.16-.69l-3.5.83v2.37h.85v-1.67Z"/><path class="cls-8" d="M113.34,377.36c-.62.16-.67-.53-.17-.65l3.5-1.39v2.18h-.86v-1Z"/><path class="cls-8" d="M113.8,378h4.35v1.47H119v-2.17h-5.2C113.26,377.32,113.18,378,113.8,378Z"/><path class="cls-8" d="M113,378.92c-.55-.2-.19-.85.16-.69l3.5.83v2.37h-.86v-1.67Z"/><path class="cls-4" d="M129.2,388.88a1.24,1.24,0,1,1-1.24-1.24A1.25,1.25,0,0,1,129.2,388.88Z"/><circle class="cls-4" cx="131.66" cy="388.88" r="1.24" transform="translate(-257.64 519.3) rotate(-89.82)"/><path class="cls-4" d="M108.81,388.88a1.24,1.24,0,1,1-1.24-1.24A1.24,1.24,0,0,1,108.81,388.88Z"/><path class="cls-4" d="M112.51,388.88a1.24,1.24,0,0,1-1.24,1.25,1.25,1.25,0,1,1,0-2.49A1.24,1.24,0,0,1,112.51,388.88Z"/><line class="cls-7" x1="104.28" y1="390.87" x2="134.85" y2="390.87"/><line class="cls-7" x1="114.5" y1="392.11" x2="124.58" y2="392.11"/><line class="cls-7" x1="114.45" y1="385.27" x2="114.45" y2="393.93"/><line class="cls-7" x1="124.58" y1="385.27" x2="124.58" y2="393.93"/><path class="cls-9" d="M167.89,371.88l-4.09-3.25h-2.68a.61.61,0,1,0,0,1.21h2.1l2.87,2.33a2.82,2.82,0,0,0,1,.32C167.52,372.49,167.89,371.88,167.89,371.88Z"/><rect class="cls-6" x="102.34" y="384.1" width="82.45" height="2.26"/><path class="cls-6" d="M181.8,382.88v-2.26a1,1,0,0,0-1.09-1H153.44a1,1,0,0,0-1,1v2.24Z"/><path class="cls-6" d="M168.75,381.13c0,.41-.74.75-1.65.75s-1.63-.34-1.63-.75.73-.76,1.63-.76S168.75,380.71,168.75,381.13Z"/><path class="cls-6" d="M165.35,365.45c-.83-.69-1.93.08-1.12.71l1.73,1.25v1.65a2.5,2.5,0,0,0,1.16.26,2.73,2.73,0,0,0,1.2-.26v-1.6Z"/><line class="cls-6" x1="165.96" y1="367.41" x2="166.72" y2="367.94"/><path class="cls-7" d="M167.84,371.88l-4.09-3.25h-2.68a.61.61,0,1,0,0,1.21h2.1l3.06,2.48"/><path class="cls-6" d="M183.41,283.05c1,0-.6-2.52-2-2.52h-7.65v-4.88h-8.91v4.88h-7.65c-1.43,0-3,2.52-2,2.52Z"/><rect class="cls-9" x="152.31" y="252.45" width="33.97" height="22.11"/><path class="cls-6" d="M189.8,291.77a1.11,1.11,0,0,0,.88-1.23l-2.24-5.38a1.22,1.22,0,0,0-1.2-1H151.36a1.17,1.17,0,0,0-1.17,1L148,290.54c0,1.17.89,1.23.89,1.23Z"/><polygon class="cls-8" points="154.92 286.5 152.01 286.5 152.42 285.41 155.31 285.41 154.92 286.5"/><polygon class="cls-8" points="158.89 286.5 156.16 286.5 156.52 285.41 159.18 285.41 158.89 286.5"/><polygon class="cls-8" points="162.85 286.5 160.14 286.5 160.38 285.41 162.96 285.41 162.85 286.5"/><polygon class="cls-8" points="166.76 286.5 164.1 286.5 164.2 285.41 166.87 285.41 166.76 286.5"/><polygon class="cls-8" points="154.29 288.41 151.28 288.41 151.68 287.32 154.64 287.32 154.29 288.41"/><polygon class="cls-8" points="158.48 288.41 155.62 288.41 155.93 287.32 158.72 287.32 158.48 288.41"/><polygon class="cls-8" points="162.53 288.41 159.7 288.41 159.95 287.32 162.68 287.32 162.53 288.41"/><polygon class="cls-8" points="166.64 288.41 163.8 288.41 163.94 287.32 166.72 287.32 166.64 288.41"/><polygon class="cls-8" points="153.73 290.25 150.6 290.25 150.96 289.17 154.07 289.17 153.73 290.25"/><polygon class="cls-8" points="158.01 290.25 155.11 290.25 155.4 289.17 158.29 289.17 158.01 290.25"/><polygon class="cls-8" points="162.24 290.25 159.33 290.25 159.56 289.17 162.39 289.17 162.24 290.25"/><polygon class="cls-8" points="166.46 290.25 163.56 290.25 163.7 289.17 166.55 289.17 166.46 290.25"/><polygon class="cls-8" points="183.71 286.5 186.61 286.5 186.23 285.41 183.33 285.41 183.71 286.5"/><polygon class="cls-8" points="179.73 286.5 182.46 286.5 182.12 285.41 179.47 285.41 179.73 286.5"/><polygon class="cls-8" points="175.78 286.5 178.49 286.5 178.27 285.41 175.69 285.41 175.78 286.5"/><polygon class="cls-8" points="171.86 286.5 174.53 286.5 174.44 285.41 171.78 285.41 171.86 286.5"/><polygon class="cls-8" points="184.29 288.41 187.31 288.41 186.93 287.32 183.97 287.32 184.29 288.41"/><polygon class="cls-8" points="180.11 288.41 182.98 288.41 182.68 287.32 179.88 287.32 180.11 288.41"/><polygon class="cls-8" points="176.06 288.41 178.89 288.41 178.66 287.32 175.93 287.32 176.06 288.41"/><polygon class="cls-8" points="171.96 288.41 174.79 288.41 174.66 287.32 171.89 287.32 171.96 288.41"/><polygon class="cls-8" points="184.83 290.25 187.96 290.25 187.62 289.17 184.51 289.17 184.83 290.25"/><polygon class="cls-8" points="180.56 290.25 183.46 290.25 183.18 289.17 180.28 289.17 180.56 290.25"/><polygon class="cls-8" points="176.33 290.25 179.23 290.25 179.01 289.17 176.19 289.17 176.33 290.25"/><polygon class="cls-8" points="172.1 290.25 175 290.25 174.87 289.17 172.02 289.17 172.1 290.25"/><polygon class="cls-8" points="170.63 286.5 167.96 286.5 167.98 285.41 170.65 285.41 170.63 286.5"/><polygon class="cls-8" points="170.7 288.41 167.86 288.41 167.89 287.32 170.67 287.32 170.7 288.41"/><polygon class="cls-8" points="170.66 290.25 167.77 290.25 167.85 289.17 170.7 289.17 170.66 290.25"/><rect class="cls-6" x="150.1" y="250.17" width="38.34" height="26.41"/><rect class="cls-4" x="152.07" y="251.65" width="34.41" height="23.25"/><path class="cls-6" d="M341,319.07H308.75s1,3.86,3.21,9.53c2.39,6.16,4.63,12.33,4.63,12.33h24.2V321.55l.47-2.15"/><path class="cls-6" d="M342.94,317.25v4.39a1.93,1.93,0,0,1-1.68,2.17h-5.34a39.55,39.55,0,0,1-11.48,1.35,40.51,40.51,0,0,1-9.12-1s-6.43-1.28-6.65-5.34,4.1-5.32,6.11-5.81a34.39,34.39,0,0,1,9.66-.94,31.41,31.41,0,0,1,8.5,1.31c1.81.66,2.38.19,2.85-.85a2.93,2.93,0,0,1,2.52-1.58h3.23Z"/><path class="cls-4" d="M322.94,315.16c5.27,0,9.54,1.18,9.54,2.66s-4.27,2.64-9.54,2.64-9.53-1.18-9.53-2.64S317.67,315.16,322.94,315.16Z"/><path class="cls-6" d="M335.65,286.17h-2.9v24.22l5.37,7.89a2.38,2.38,0,0,0,3.14,1.12,2.59,2.59,0,0,0,1.81-2.53Z"/><path class="cls-4" d="M333,279.18a1.59,1.59,0,0,1-1.62,1.6H312.81c-1.78,0-1.61-1.52-1.61-1.52V269a1.63,1.63,0,0,1,1.72-1.65h18.23A1.69,1.69,0,0,1,333,269Z"/><path class="cls-6" d="M330.27,274a5.95,5.95,0,1,1-5.95-5.94A6,6,0,0,1,330.27,274Z"/><path class="cls-6" d="M328.75,274a4.43,4.43,0,1,1-4.43-4.41A4.43,4.43,0,0,1,328.75,274Z"/><rect class="cls-6" x="313.54" y="266.39" width="4.25" height="0.97"/><rect class="cls-4" x="322.08" y="272.2" width="4.5" height="3.41"/><path class="cls-6" d="M313.81,258.88a1.89,1.89,0,0,1-1.74,1.45H249.5a1.64,1.64,0,0,1-1.74-1.37l-.38-3.39V240.23a1.46,1.46,0,0,1,1.55-1.48h63.59a1.51,1.51,0,0,1,1.66,1.48v15.38Z"/><rect class="cls-6" x="247.42" y="253.84" width="66.74" height="1.52"/><path class="cls-4" d="M311,260.25a4.62,4.62,0,0,0,.55-2H250a4.78,4.78,0,0,0,.55,2Z"/><path class="cls-7" d="M249.52,253.66V240.1a1.77,1.77,0,0,1,.48-1.31"/><path class="cls-7" d="M312,253.66V240.1a1.73,1.73,0,0,0-.48-1.31"/><rect class="cls-6" x="201.26" y="221.67" width="36.6" height="67.68"/><rect class="cls-4" x="203.1" y="223.4" width="32.93" height="65.97"/><rect class="cls-4" x="214.91" y="227.61" width="11.18" height="55.79"/><rect class="cls-6" x="216.83" y="230.34" width="7.35" height="50.34"/><path class="cls-6" d="M208.55,247.25a1.45,1.45,0,1,1-1.44-1.44A1.45,1.45,0,0,1,208.55,247.25Z"/><path class="cls-6" d="M208.09,251.43v1.37h-2.31v1.92h2.31V265h-2.31v1.92h2.31v1.57c0,1.42,2.28,1.3,2.28,0V251.43C210.37,250.11,208.09,250,208.09,251.43Z"/><rect class="cls-8" x="206.43" y="247" width="1.31" height="0.5"/><rect class="cls-4" x="198.55" y="178.5" width="10.98" height="20.33"/><path class="cls-6" d="M213.19,205.59h-18.3s3.4-7.77,5.34-7.77h7.62C210.18,197.82,213.19,205.59,213.19,205.59Z"/><path class="cls-6" d="M222.34,201.16H185.75s5.5-7.77,10.67-7.77h15.25C216.85,193.39,222.34,201.16,222.34,201.16Z"/><polygon class="cls-6" points="204.87 178.5 203.21 178.5 203.21 147.6 204.07 147.08 204.87 147.6 204.87 178.5"/><path class="cls-6" d="M226.92,196H181.17s6.88-7.77,13.34-7.77h19.06C220.06,188.25,226.92,196,226.92,196Z"/><path class="cls-4" d="M156.67,243.91c2.29,0,2.2-2.16.11-2.16H152.3s-4-.15-4-3c0-2.38,4.45-3.14,4.45-3.14H138.9s4.45.76,4.45,3.14c0,2.85-4,3-4,3H134.9c-2,0-2.17,2.16.12,2.16Z"/><rect class="cls-4" x="122.96" y="205.94" width="45.74" height="30.79"/><rect class="cls-6" x="125.24" y="208.02" width="41.17" height="26.63"/><rect class="cls-4" x="90.22" y="284.95" width="3.45" height="1.89"/><rect class="cls-4" x="110.6" y="284.95" width="3.45" height="1.89"/><rect class="cls-6" x="89.53" y="269.8" width="25.7" height="15.05"/><rect class="cls-4" x="66.09" y="257.21" width="20.47" height="29.64"/><rect class="cls-6" x="68.3" y="259.2" width="16.07" height="25.65"/><path class="cls-6" d="M82.11,277.49a5.78,5.78,0,1,1-5.78-5.79A5.77,5.77,0,0,1,82.11,277.49Z"/><path class="cls-4" d="M78.64,277.49a2.31,2.31,0,1,1-2.31-2.32A2.31,2.31,0,0,1,78.64,277.49Z"/><path class="cls-6" d="M80.83,265a4.5,4.5,0,1,1-4.5-4.5A4.5,4.5,0,0,1,80.83,265Z"/><path class="cls-4" d="M78.64,265a2.31,2.31,0,1,1-2.31-2.31A2.31,2.31,0,0,1,78.64,265Z"/><rect class="cls-4" x="91.03" y="276.32" width="16.19" height="2.61"/><rect class="cls-6" x="91.03" y="280.62" width="3.86" height="1.35"/><path class="cls-6" d="M113.53,277.58a2.46,2.46,0,1,1-2.46-2.46A2.46,2.46,0,0,1,113.53,277.58Z"/><rect class="cls-4" x="118.22" y="257.21" width="20.48" height="29.64"/><rect class="cls-6" x="120.43" y="259.2" width="16.07" height="25.65"/><path class="cls-6" d="M122.68,277.49a5.78,5.78,0,1,0,5.78-5.79A5.77,5.77,0,0,0,122.68,277.49Z"/><path class="cls-4" d="M126.15,277.49a2.31,2.31,0,1,0,2.31-2.32A2.3,2.3,0,0,0,126.15,277.49Z"/><path class="cls-6" d="M124,265a4.5,4.5,0,1,0,4.5-4.5A4.5,4.5,0,0,0,124,265Z"/><path class="cls-4" d="M126.15,265a2.31,2.31,0,1,0,2.31-2.31A2.3,2.3,0,0,0,126.15,265Z"/><rect class="cls-6" x="63.49" y="337.23" width="33.44" height="75.81"/><line class="cls-7" x1="63.57" y1="373.24" x2="96.88" y2="373.24"/><line class="cls-7" x1="63.57" y1="381.9" x2="96.88" y2="381.9"/><line class="cls-7" x1="63.57" y1="395.63" x2="96.88" y2="395.63"/><line class="cls-7" x1="63.57" y1="410.86" x2="96.88" y2="410.86"/><rect class="cls-4" x="75.58" y="337.22" width="3.09" height="36.04"/><path class="cls-4" d="M90.63,395.66a4.36,4.36,0,0,1-3.42,1.77h-14a4.37,4.37,0,0,1-3.43-1.77Z"/><path class="cls-4" d="M90.63,381.9a4.37,4.37,0,0,1-3.42,1.76h-14a4.37,4.37,0,0,1-3.43-1.76Z"/><path class="cls-4" d="M90.63,373.3a4.37,4.37,0,0,1-3.42,1.76h-14a4.37,4.37,0,0,1-3.43-1.76Z"/><path class="cls-4" d="M180.83,319a15,15,0,1,1-15-15A15,15,0,0,1,180.83,319Z"/><path class="cls-6" d="M178.51,319a12.66,12.66,0,1,1-12.65-12.65A12.65,12.65,0,0,1,178.51,319Z"/><polygon class="cls-4" points="166.37 318.35 165.58 319.33 157.24 311.95 157.46 311.69 166.37 318.35"/><rect class="cls-10" x="165.61" y="328.59" width="0.51" height="2.19"/><polygon class="cls-4" points="166.46 319.18 165.38 318.57 169.77 311.54 170.22 311.8 166.46 319.18"/><path class="cls-6" d="M161,309.15a.66.66,0,0,1-1.15.66.66.66,0,1,1,1.15-.66Z"/><path class="cls-6" d="M171.89,328.09a.66.66,0,1,1-.9-.25A.67.67,0,0,1,171.89,328.09Z"/><path class="cls-6" d="M156.69,312.9A.66.66,0,1,1,156,314a.65.65,0,0,1-.24-.9A.63.63,0,0,1,156.69,312.9Z"/><path class="cls-6" d="M175.66,323.82a.69.69,0,0,1,.24.92.67.67,0,0,1-1.15-.67A.69.69,0,0,1,175.66,323.82Z"/><path class="cls-6" d="M156,323.85a.67.67,0,0,1,.91.25.66.66,0,1,1-1.14.66A.67.67,0,0,1,156,323.85Z"/><path class="cls-6" d="M175,312.92a.66.66,0,0,1,.9.24.67.67,0,0,1-1.15.67A.66.66,0,0,1,175,312.92Z"/><path class="cls-6" d="M159.79,328.11a.65.65,0,0,1,.9-.24.64.64,0,0,1,.24.9.66.66,0,0,1-.91.24A.65.65,0,0,1,159.79,328.11Z"/><path class="cls-6" d="M170.73,309.17a.66.66,0,0,1,.9-.24.67.67,0,0,1,.24.91.66.66,0,1,1-1.14-.67Z"/><path class="cls-6" d="M154.9,318.28a.67.67,0,1,1-.66.67A.67.67,0,0,1,154.9,318.28Z"/><path class="cls-6" d="M176.78,318.28a.67.67,0,1,1,0,1.33.67.67,0,0,1,0-1.33Z"/><path class="cls-6" d="M165.18,329.91a.67.67,0,1,1,.67.67A.67.67,0,0,1,165.18,329.91Z"/><path class="cls-6" d="M165.18,308a.67.67,0,1,1,.67.67A.67.67,0,0,1,165.18,308Z"/><path class="cls-4" d="M167.12,319a1.27,1.27,0,1,1-1.26-1.27A1.26,1.26,0,0,1,167.12,319Z"/><path class="cls-6" d="M284.14,352.58H260.79v-5.66h23.35s2.4-.1,2.4,2.76A2.72,2.72,0,0,1,284.14,352.58Z"/><path class="cls-6" d="M253.11,356.68l11.25-4.14a5.92,5.92,0,0,0,.68-2.77,5.72,5.72,0,0,0-.68-2.82l-11.25-4.13s-2.46,1.52-2.46,6.78S253.11,356.68,253.11,356.68Z"/><path class="cls-6" d="M255.69,349.74c0,3.85-1.28,7-2.86,7s-2.86-3.11-2.86-7,1.28-6.93,2.86-6.93S255.69,345.91,255.69,349.74Z"/><path class="cls-4" d="M254.78,349.74c0,3.21-.88,5.79-2,5.79s-2-2.58-2-5.79.88-5.78,2-5.78S254.78,346.56,254.78,349.74Z"/><path class="cls-6" d="M254.64,351.92a2.17,2.17,0,1,1,0-4.33s.14,1.31.14,2.15S254.64,351.92,254.64,351.92Z"/><path class="cls-4" d="M272.66,348.73c1.33,0,1.46,1.75,0,1.75H268a.89.89,0,1,1,0-1.75Z"/><path class="cls-6" d="M292.73,300.44a1.81,1.81,0,0,1-1.84,1.82H274.36c-2,0-1.82-1.73-1.82-1.73V276.94a1.86,1.86,0,0,1,2-1.87h16.13a1.91,1.91,0,0,1,2.1,1.87Z"/><rect class="cls-4" x="278.93" y="278.61" width="12.61" height="6.3"/><path class="cls-6" d="M283.12,287.6a1,1,0,1,1-1-1A1,1,0,0,1,283.12,287.6Z"/><path class="cls-6" d="M286.48,287.6a1,1,0,1,1-1-1A1,1,0,0,1,286.48,287.6Z"/><path class="cls-6" d="M289.85,287.6a1,1,0,0,1-1,1,1,1,0,0,1,0-2.06A1,1,0,0,1,289.85,287.6Z"/><path class="cls-6" d="M283.12,291a1,1,0,1,1-1-1A1,1,0,0,1,283.12,291Z"/><path class="cls-6" d="M286.48,291a1,1,0,0,1-2,0,1,1,0,1,1,2,0Z"/><path class="cls-6" d="M289.85,291a1,1,0,0,1-1,1,1,1,0,0,1-1-1,1,1,0,0,1,1-1A1,1,0,0,1,289.85,291Z"/><path class="cls-6" d="M283.12,293.94a1,1,0,1,1-1-1A1,1,0,0,1,283.12,293.94Z"/><path class="cls-6" d="M286.48,293.94a1,1,0,0,1-2,0,1,1,0,0,1,2,0Z"/><path class="cls-6" d="M289.85,293.94a1,1,0,0,1-1,1,1,1,0,1,1,1-1Z"/><path class="cls-6" d="M283.12,296.87a1,1,0,1,1-2.05,0,1,1,0,0,1,2.05,0Z"/><path class="cls-6" d="M286.48,296.87a1,1,0,1,1-1-1A1,1,0,0,1,286.48,296.87Z"/><path class="cls-6" d="M289.85,296.87a1,1,0,0,1-1,1,1,1,0,1,1,0-2.05A1,1,0,0,1,289.85,296.87Z"/><path class="cls-4" d="M277.7,282.08v-4.57c.1-.84-.47-.91-.47-.91h-5s-.72.32-.83.86a73.85,73.85,0,0,0-.74,10.68,82.69,82.69,0,0,0,.77,11.34.84.84,0,0,0,.8.77h5a.71.71,0,0,0,.5-.83v-4.57c0-.94-1.14-.89-1.14-.89-.11-1.61-.18-3.45-.18-5.45s.08-4,.21-5.68C276.62,282.83,277.7,282.88,277.7,282.08Z"/><path class="cls-7" d="M277,300.25a.83.83,0,0,1-.79-.77,80.8,80.8,0,0,1-.78-11.34,72.42,72.42,0,0,1,.74-10.68c.11-.54.83-.86.83-.86"/><path class="cls-6" d="M269.71,291a1.81,1.81,0,0,1,.5,1.63,8.28,8.28,0,0,0,1.19.06l.13,1.05s-2.61.31-3.81-.87a1.4,1.4,0,1,1,2-1.87Z"/><path class="cls-7" d="M270.21,292.64a3.24,3.24,0,0,1-1.18-.29,2,2,0,0,1-.83-1"/><path class="cls-6" d="M268.93,292.4a1.41,1.41,0,1,1-2.21.08A1.58,1.58,0,0,1,268.93,292.4Z"/><path class="cls-6" d="M268.59,293.76a1.4,1.4,0,1,1-2.2.09A1.57,1.57,0,0,1,268.59,293.76Z"/><path class="cls-6" d="M268.17,295.18a1.4,1.4,0,1,1-2.2.09A1.57,1.57,0,0,1,268.17,295.18Z"/><path class="cls-6" d="M267.91,296.65a1.41,1.41,0,1,1-2.21.08A1.6,1.6,0,0,1,267.91,296.65Z"/><path class="cls-6" d="M267.65,298.07a1.59,1.59,0,0,1,.6,2.13,1.78,1.78,0,1,1-.6-2.13Z"/><path class="cls-6" d="M267.7,299.33a1.4,1.4,0,1,1-2.21.09A1.58,1.58,0,0,1,267.7,299.33Z"/><path class="cls-6" d="M267.68,300.58a1.57,1.57,0,0,1,.93,2,1.79,1.79,0,0,1-3.09-1.59A1.57,1.57,0,0,1,267.68,300.58Z"/><path class="cls-6" d="M267.68,301.73a1.41,1.41,0,1,1-1.93,1.08A1.58,1.58,0,0,1,267.68,301.73Z"/><path class="cls-6" d="M268.23,302.84a1.41,1.41,0,1,1-1.75,1.36A1.59,1.59,0,0,1,268.23,302.84Z"/><path class="cls-6" d="M268.68,303.88a1.4,1.4,0,1,1,.91,2.57,1.41,1.41,0,1,1-.91-2.57Z"/><path class="cls-6" d="M269.41,304.66a1.4,1.4,0,1,1-.56,2.13A1.57,1.57,0,0,1,269.41,304.66Z"/><path class="cls-6" d="M270.37,305.3a1.41,1.41,0,1,1,.47,2.16A1.58,1.58,0,0,1,270.37,305.3Z"/><path class="cls-6" d="M271.7,305.58a1.4,1.4,0,1,1,2.72.19c-.07,1-.74,1.7-1.5,1.63A1.57,1.57,0,0,1,271.7,305.58Z"/><path class="cls-6" d="M272.83,305.72a1.41,1.41,0,1,1,2,.93A1.59,1.59,0,0,1,272.83,305.72Z"/><path class="cls-6" d="M275.8,302.78a1.41,1.41,0,1,1-2.21.1A1.59,1.59,0,0,1,275.8,302.78Z"/><path class="cls-6" d="M276.59,301.71a1.82,1.82,0,0,0-1.68-.29,9,9,0,0,1-.22-1.16h-1.05s0,2.64,1.35,3.67a1.57,1.57,0,0,0,2.21-.09A1.59,1.59,0,0,0,276.59,301.71Z"/><path class="cls-7" d="M274.91,301.42s.22,1.39,1.09,1.66"/><rect class="cls-4" x="101.69" y="309.37" width="4.88" height="1.63"/><path class="cls-6" d="M104.59,309.93a.58.58,0,1,0-1.08.43c.21.72,3.13,8.47,3.13,8.47l1.57-.62S105,310.7,104.59,309.93Z"/><path class="cls-6" d="M137.42,318.64a11.89,11.89,0,1,1-11.88-11.88A11.88,11.88,0,0,1,137.42,318.64Z"/><path class="cls-6" d="M136.24,318.64a10.71,10.71,0,1,1-10.7-10.7A10.7,10.7,0,0,1,136.24,318.64Z"/><path class="cls-6" d="M127.77,318.64a2.23,2.23,0,1,1-2.23-2.22A2.22,2.22,0,0,1,127.77,318.64Z"/><path class="cls-6" d="M97.22,318.64a11.89,11.89,0,1,1-11.89-11.88A11.89,11.89,0,0,1,97.22,318.64Z"/><path class="cls-6" d="M96,318.64a10.7,10.7,0,1,1-10.7-10.7A10.7,10.7,0,0,1,96,318.64Z"/><path class="cls-6" d="M87,318.64a1.72,1.72,0,1,1-1.71-1.71A1.72,1.72,0,0,1,87,318.64Z"/><path class="cls-6" d="M111.58,318.64a4.06,4.06,0,1,1-4.07-4.05A4.07,4.07,0,0,1,111.58,318.64Z"/><line class="cls-6" x1="108.22" y1="314.55" x2="125.8" y2="316.44"/><line class="cls-6" x1="125.54" y1="320.86" x2="108.15" y2="322.7"/><path class="cls-4" d="M126.07,318l-12.83-16.41L114,299l-1.44-.41-.68,2.31H92.34l.2-2.25a.77.77,0,0,0-.7-.81.74.74,0,0,0-.8.69L90.42,306a22.3,22.3,0,0,1-1.69,5.54,34.44,34.44,0,0,1-4,6.59.76.76,0,0,0,.59,1.23.75.75,0,0,0,.58-.29,34.43,34.43,0,0,0,4.19-6.91,23,23,0,0,0,1.81-6l.08-.94,15.86,15,4.9-16.93L124,317.72l-14.44.15c-.42,0,0,1.51,0,1.51l16-.17C126.07,319.21,126.32,318.46,126.07,318Zm-19-.52-15-14.14.09-.91h19.2Z"/><path class="cls-4" d="M92,305.63a5.94,5.94,0,0,1-3.87-1.36A3.77,3.77,0,0,1,87,301.48C87,298,90.19,297,91.86,297a1,1,0,0,1,0,2c-.48,0-2.84.15-2.84,2.46a1.71,1.71,0,0,0,.52,1.34,4.08,4.08,0,0,0,2.58.81H95a1,1,0,0,1,0,2H92Z"/><path class="cls-6" d="M113.72,299.61l1.51-1.59c.58-.67.44-1.45-.75-1.45h-5.89c-1.66,0-1.74.88-.62,1.38.62.27,4.34,1.66,4.34,1.66Z"/><path class="cls-6" d="M111.34,326.7c-.21-.52-1.71-4.61-2.56-6.91a1.69,1.69,0,0,0,.45-1.15,1.71,1.71,0,1,0-1.94,1.69c.95,2.21,2.68,6.2,3,6.81A.59.59,0,1,0,111.34,326.7Z"/><rect class="cls-4" x="108.47" y="326.38" width="4.88" height="1.62"/><rect class="cls-6" x="109.27" y="337.94" width="39.27" height="22.82"/><rect class="cls-4" x="140.31" y="337.94" width="10.24" height="22.82"/><polygon class="cls-6" points="109.27 360.83 111.34 363.32 148.49 363.32 150.54 360.83 109.27 360.83"/><rect class="cls-4" x="112.09" y="340.38" width="22.23" height="17.95"/><path class="cls-6" d="M148.51,355.06a2.89,2.89,0,1,1-2.89-2.9A2.89,2.89,0,0,1,148.51,355.06Z"/><rect class="cls-6" x="142.42" y="340.61" width="2.4" height="2.39"/><rect class="cls-6" x="146.17" y="340.61" width="2.4" height="2.39"/><rect class="cls-6" x="142.42" y="344.36" width="2.4" height="2.4"/><rect class="cls-6" x="146.17" y="344.36" width="2.4" height="2.4"/><rect class="cls-6" x="142.42" y="348.1" width="2.4" height="2.4"/><rect class="cls-6" x="146.17" y="348.1" width="2.4" height="2.4"/><path class="cls-6" d="M137,358.32h-2.9a37.46,37.46,0,0,1-1.06-9.27,38.4,38.4,0,0,1,1-8.67H137c.82,0,.72.87.72.87v2.47h-1.52a31.25,31.25,0,0,0-.37,5.4,44.66,44.66,0,0,0,.36,5.78h1.48v2.73S137.41,358.32,137,358.32Z"/><path class="cls-7" d="M136.16,343.72a19.85,19.85,0,0,1,.42-2.13"/><path class="cls-7" d="M136.16,354.92a19.87,19.87,0,0,0,.42,2.14"/><path class="cls-6" d="M265.11,412.94H237.35c-1.13,0-.94-1.27-.94-1.27v-8.46h29.65v8.56S266.06,412.94,265.11,412.94Z"/><line class="cls-2" x1="266.28" y1="370.23" x2="364.73" y2="370.23"/><path class="cls-6" d="M267.7,407.61s-.33,1.65-1.64,1.65H236.41c-1.51,0-1.65-1.65-1.65-1.65V392.83c0-13.26.66-29,.66-29S235.5,362,237,362h28.47c1.36,0,1.58,1.84,1.58,1.84s.65,14.72.65,29Z"/><rect class="cls-6" x="237.46" y="362.03" width="27.54" height="6.49"/><path class="cls-4" d="M264.72,384.25a13.49,13.49,0,1,1-13.49-13.5A13.49,13.49,0,0,1,264.72,384.25Z"/><path class="cls-6" d="M263,384.25a11.78,11.78,0,1,1-11.78-11.78A11.77,11.77,0,0,1,263,384.25Z"/><path class="cls-4" d="M258.73,384.25a7.5,7.5,0,1,1-7.5-7.51A7.49,7.49,0,0,1,258.73,384.25Z"/><rect class="cls-4" x="242.83" y="361.93" width="16.81" height="2.74"/><rect class="cls-8" x="242.78" y="365.76" width="3.48" height="1.3"/><rect class="cls-8" x="247.34" y="365.76" width="3.47" height="1.3"/><rect class="cls-8" x="251.7" y="365.76" width="3.48" height="1.3"/><rect class="cls-8" x="256.25" y="365.76" width="3.47" height="1.3"/><polygon class="cls-4" points="271.7 182.12 251.28 182.12 245.54 203.81 277.44 203.81 271.7 182.12"/><line class="cls-7" x1="261.49" y1="203.81" x2="261.49" y2="182.23"/><line class="cls-7" x1="253.52" y1="203.81" x2="256.39" y2="182.23"/><line class="cls-7" x1="269.47" y1="203.81" x2="266.6" y2="182.23"/><polygon class="cls-9" points="265.24 211.22 260.45 211.22 260.45 203.81 262.43 203.81 262.43 209.02 267.33 209.02 267.33 217.26 265.24 217.26 265.24 211.22"/><rect class="cls-6" x="251.8" y="217.37" width="22.42" height="2.09"/><path class="cls-7" d="M285.94,325c0,3.23-1.34,5.84-3,5.84s-3-2.61-3-5.84,1.35-5.84,3-5.84S285.94,321.79,285.94,325Z"/><path class="cls-6" d="M299.21,330.86c1.65,0,3-2.61,3-5.84s-1.34-5.84-3-5.84H282.94c-1.66,0-3,2.61-3,5.84s1.35,5.84,3,5.84Z"/><path class="cls-6" d="M276.34,321.13l6.24-1.87s3.36-.49,3.36,5.76-3.29,5.91-3.29,5.91l-6.31-2S276.12,321.2,276.34,321.13Z"/><path class="cls-6" d="M278.33,325c0,2.15-.89,3.9-2,3.9s-2-1.75-2-3.9.89-3.89,2-3.89S278.33,322.87,278.33,325Z"/><path class="cls-6" d="M299.83,347.82a3,3,0,0,1-3.34,2.83c-3.33,0-3.13-2.83-3.13-2.83v-14.7c0-1.45,2.4-2.29,2.4-2.29h4.07Z"/><line class="cls-3" x1="200.61" y1="211.21" x2="200.11" y2="215.59"/><line class="cls-3" x1="193.86" y1="210.49" x2="192.48" y2="214.34"/><line class="cls-3" x1="186.85" y1="208.91" x2="184.47" y2="212.57"/><line class="cls-3" x1="207.5" y1="211.21" x2="208" y2="215.59"/><line class="cls-3" x1="214.25" y1="210.49" x2="215.63" y2="214.34"/><line class="cls-3" x1="221.26" y1="208.91" x2="223.64" y2="212.57"/><rect class="cls-4" x="273.66" y="398.52" width="69.73" height="14.47"/><rect class="cls-6" x="273.66" y="395.03" width="69.73" height="15.27"/><rect class="cls-6" x="273.66" y="378.91" width="69.73" height="16.11"/><path class="cls-6" d="M316.14,392.07c4.82.63,8.73,1,11.48.59,3.72-.48,6.06-2.63,6.06-5.88a6,6,0,0,0-6.06-5.91H283.25a6,6,0,0,0-6.07,5.91c0,3.25,2.34,5.4,6.07,5.88a46.44,46.44,0,0,0,11.48-.59s5.56-.63,10.7-.63S316.14,392.07,316.14,392.07Z"/><path class="cls-4" d="M283.23,392.66a46.52,46.52,0,0,0,11.49-.59s5.56-.63,10.71-.63,10.69.63,10.69.63c4.83.63,8.73,1,11.48.59a7,7,0,0,0,5.14-2.74,5.23,5.23,0,0,0-4.5-5.29,6.13,6.13,0,0,1-2.75-.93,3.07,3.07,0,0,0-3.23,0,4.45,4.45,0,0,1-4.49.08,4.19,4.19,0,0,0-4.33-.16,4.65,4.65,0,0,1-4.95,0,4,4,0,0,0-4.72.16,5.35,5.35,0,0,1-5.67.08,4.64,4.64,0,0,0-4.4-.16,5.24,5.24,0,0,1-5,0,3.07,3.07,0,0,0-3.23,0c-.55.4-1.48.41-2.93.5-4.18.26-4.38,4.47-4.33,5.82A7.11,7.11,0,0,0,283.23,392.66Z"/><path class="cls-4" d="M335.78,414.64a4,4,0,0,1-3.41-1.72c-1.87-2.64-1.59-8.05.79-14.85,3.06-8.78,2.79-19.7,2.78-19.81l1.58,0c0,.45.28,11.31-2.88,20.36-2.14,6.13-2.52,11.27-1,13.42a2.43,2.43,0,0,0,2.13,1.07,2.14,2.14,0,0,0,1.64-.71c1-1,2.14-3.63,2-10.51l1.57,0c.1,6-.72,9.85-2.48,11.65A3.76,3.76,0,0,1,335.78,414.64Z"/><polygon class="cls-6" points="337.6 379.97 335.88 379.97 335.65 377.36 337.86 377.36 337.6 379.97"/><path class="cls-6" d="M341.14,403.21h-14c-.85,0-1-1.57,0-1.57h12.42V399h1.58Z"/><path class="cls-6" d="M346.33,400.32h-7.77a1.93,1.93,0,0,1,0-3.77h7.77Z"/><path class="cls-6" d="M341.79,396.54H339l-.3-4a3.64,3.64,0,0,1,3.43,0Z"/><line class="cls-7" x1="339.56" y1="392.95" x2="339.7" y2="396.46"/><line class="cls-7" x1="341.19" y1="392.95" x2="341.06" y2="396.46"/><rect class="cls-6" x="327.03" y="403.21" width="2.21" height="1.14"/><path class="cls-6" d="M328.54,364.51a1.7,1.7,0,0,1-1.71,1.71H311.36c-1.89,0-1.71-1.62-1.71-1.62V348.87a1.73,1.73,0,0,1,1.82-1.75h15.11a1.79,1.79,0,0,1,2,1.75Z"/><rect class="cls-6" x="311.65" y="349.15" width="14.89" height="14.89"/><line class="cls-6" x1="311.65" y1="356.53" x2="326.54" y2="356.53"/><line class="cls-6" x1="311.65" y1="354.07" x2="326.54" y2="354.07"/><line class="cls-6" x1="311.65" y1="351.61" x2="326.54" y2="351.61"/><line class="cls-6" x1="311.65" y1="361.45" x2="326.54" y2="361.45"/><line class="cls-6" x1="311.65" y1="358.99" x2="326.54" y2="358.99"/><line class="cls-3" x1="312.13" y1="365.43" x2="312.13" y2="373.32"/><path class="cls-3" d="M313.45,374.78a1.32,1.32,0,1,1-1.32-1.32A1.31,1.31,0,0,1,313.45,374.78Z"/><polyline class="cls-2" points="220.46 302.01 232.87 302.01 242.26 310.72"/><polygon class="cls-11" points="349.51 416.69 58.38 416.69 58.38 243.84 231.92 129.88 349.51 243.84 349.51 416.69"/><path class="cls-6" d="M252.09,324a3.79,3.79,0,0,0-.27-.92V307.27a1.41,1.41,0,0,0-1.48-1.3h-8.82a1.36,1.36,0,0,0-1.4,1.3v19.28a1.33,1.33,0,0,0,1.27,1.23,6.76,6.76,0,0,0,1.59,1.93l-6.15,10.91-8.33-14.34a8.88,8.88,0,0,0-3.53-3.14c-3.12-1.47-9.88-2.86-9.88-2.86v-3.39c3-.45,4.41-3.57,4.41-7.61.59-.23,1.65-3.72.38-4.78,0-2.12,0-4.17,0-4.21a3.65,3.65,0,0,0-.46-3.13,3.34,3.34,0,0,0-1.81-.83c-.31-2.54-1.32-2-1.32-2a20.63,20.63,0,0,1-2.39,1.41,2.22,2.22,0,0,0,0-2,9.28,9.28,0,0,1-3,1.41c-3.44,1-5,1.69-6.6,3-2.07,1.73-1.93,4.23-1.81,7.1-1.21.5-.4,4.87.38,5.25.62,3.13,2.16,5.92,4.81,6.18v3.35a73.14,73.14,0,0,0-10,3.4,5.87,5.87,0,0,0-3.61,4.44L190,358.57l1.51.72a6.75,6.75,0,0,0,0,4.42c1.72,4.29,4.8,3.82,7.21,2.55l-.43,43.64c-1.45,1.7-8.26,3.6-8.26,3.6a4.44,4.44,0,0,0,1.17,3.17h16.56s1-2.13-.25-6.14l2.22-36.65h2.88l4.77,36.65c-1.28,4-.44,6.14-.44,6.14h16.75a4.19,4.19,0,0,0,1.06-3.59c-6.46-1.06-7.73-2.86-7.73-2.86l-2.68-44.15h1.81L224,336.59l10.74,13.13c1.69,1.71,3.49,1.71,4.52.29,2.42-3.33,10.73-18,10.73-18l-1.16-.75A8.17,8.17,0,0,0,252.09,324Z"/><path class="cls-8" d="M215.27,305.38a1.05,1.05,0,1,1-1.05-1.05A1,1,0,0,1,215.27,305.38Z"/><path class="cls-7" d="M208.81,312.52a5.11,5.11,0,0,0,2.34.73,5.23,5.23,0,0,0,2.36-.73"/><path class="cls-8" d="M206.92,305.38a1.05,1.05,0,1,0,1.05-1.05A1,1,0,0,0,206.92,305.38Z"/><path class="cls-12" d="M429.62,364.55c0-1.86,1.24-3.71,5.1-3.71,2.17,0,5.11,1.23,5.11,3.71s-2.17,4-5.26,4h-.33l.48,5.12L431,371l.44-3.29A3.94,3.94,0,0,1,429.62,364.55Z"/><path class="cls-13" d="M375.05,404.76v10.65s-.58,3.59-5.84,3.59c-4.84,0-5.35-3.59-5.35-3.59V404.76Z"/><line class="cls-13" x1="369.45" y1="407.35" x2="369.45" y2="419"/><line class="cls-13" x1="366.66" y1="406.82" x2="366.66" y2="418.46"/><line class="cls-13" x1="372.24" y1="406.9" x2="372.24" y2="418.53"/><path class="cls-13" d="M433.43,404.76v10.65s-.59,3.59-5.85,3.59c-4.83,0-5.33-3.59-5.33-3.59V404.76Z"/><line class="cls-13" x1="427.83" y1="407.35" x2="427.83" y2="419"/><line class="cls-13" x1="425.03" y1="406.82" x2="425.03" y2="418.46"/><line class="cls-13" x1="430.62" y1="406.9" x2="430.62" y2="418.53"/><path class="cls-12" d="M367.64,364.55c0-1.86-1.23-3.71-5.1-3.71-2.16,0-5.1,1.23-5.1,3.71s2.17,4,5.25,4H363l-.49,5.12,3.71-2.63-.44-3.29A3.92,3.92,0,0,0,367.64,364.55Z"/><path class="cls-12" d="M430.36,408.79c2.16-.31,10.41-1.22,9.58-22-.62-15.46-10.2-17.31-10.2-17.31l-7.11-15.46A9,9,0,0,0,414,348.2H383.22a9,9,0,0,0-8.66,5.87l-7.11,15.46s-9.58,1.85-10.2,17.31c-.83,20.73,7.42,21.64,9.58,22Z"/><path class="cls-13" d="M376.08,381.59a6.47,6.47,0,1,1-6.46-6.47A6.46,6.46,0,0,1,376.08,381.59Z"/><polygon class="cls-9" points="425.78 369.22 418.77 353.14 378.42 353.14 371.41 369.22 425.78 369.22"/><path class="cls-13" d="M413.67,398.11c2.16-.3,5.28-.57,4.71-7.1a4.49,4.49,0,0,0-4.73-4.48H383.54a4.58,4.58,0,0,0-4.73,4.48c-.39,6.69,2.56,6.8,4.72,7.1Z"/><path class="cls-13" d="M412.43,396.69c2-.23,4.14-.44,3.63-5.35a3.49,3.49,0,0,0-3.65-3.39H384.78a3.55,3.55,0,0,0-3.65,3.39c-.34,5,1.65,5.12,3.64,5.35Z"/><path class="cls-13" d="M421.11,381.59a6.47,6.47,0,1,0,6.46-6.47A6.46,6.46,0,0,0,421.11,381.59Z"/><rect class="cls-13" x="390.25" y="395.11" width="16.84" height="11.13"/><path class="cls-6" d="M337.87,377.36h-2.24l-.67-6.67-1.45-5.32s-.11-.82.48-.82h2.68c.59,0,.71.7.71.7l.49,5.39Z"/><path class="cls-4" d="M336,367.55c.14.9-.14,1.69-.62,1.77s-1-.6-1.13-1.5.15-1.69.63-1.77S335.84,366.65,336,367.55Z"/><path class="cls-9" d="M0,103a11.76,11.76,0,0,1,3.37-8.41H4.78A11.63,11.63,0,0,0,1.37,103a11.76,11.76,0,0,0,.87,4.56,12.5,12.5,0,0,0,2.54,3.85H3.37A11.89,11.89,0,0,1,0,103Z"/><path class="cls-9" d="M14.64,106.17c0,.17,0,.35,0,.55a4.17,4.17,0,0,0,.1.6,3.6,3.6,0,0,0,.2.58,1.82,1.82,0,0,0,.36.51,1.19,1.19,0,0,0,.54.31,3.4,3.4,0,0,0,.72.14c.25,0,.49,0,.72,0h.53c.44,0,.87,0,1.31,0l1.38-.09v1.32l-1.45.08c-.45,0-.92,0-1.39,0h-.79a5.52,5.52,0,0,1-.81-.06,3.72,3.72,0,0,1-.8-.19,2.44,2.44,0,0,1-.77-.39,2.36,2.36,0,0,1-.69-.72,3.5,3.5,0,0,1-.42-.87,4.42,4.42,0,0,1-.2-.93,7.12,7.12,0,0,1-.06-.89v-3.1h-5v-1.34h5V98.34h-3V97H19.6v1.39H14.66v3.39H21v1.34H14.66Z"/><path class="cls-9" d="M30,107.39c.8-.62,1.49-1.21,2.08-1.77A13,13,0,0,0,33.48,104a8,8,0,0,0,.92-1.66,7.61,7.61,0,0,0,.49-1.85A16.71,16.71,0,0,0,35,98.25V96.46h1.56v1.79a16,16,0,0,1-.17,2.5,9.19,9.19,0,0,1-.55,2.11,8.22,8.22,0,0,1-1,1.87,13.54,13.54,0,0,1-1.6,1.82A27.51,27.51,0,0,1,31,108.48c-.85.67-1.84,1.41-2.95,2.21l-.89-1.22C28.22,108.7,29.14,108,30,107.39Z"/><path class="cls-9" d="M49.75,108.68a10.4,10.4,0,0,0,1.7-.28,5.17,5.17,0,0,0,1.43-.58,5,5,0,0,0,1.18-1,6.11,6.11,0,0,0,.94-1.43,5,5,0,0,0,.56-2.53,5.05,5.05,0,0,0-.78-2.42,4.75,4.75,0,0,0-1.58-1.54,5.39,5.39,0,0,0-2.15-.74c0,.87-.11,1.69-.22,2.47a18.07,18.07,0,0,1-.44,2.26c-.07.32-.17.67-.27,1s-.24.77-.39,1.17-.32.8-.51,1.21a6.32,6.32,0,0,1-.66,1.16,3.46,3.46,0,0,1-1,1.08,2.72,2.72,0,0,1-1.14.45,2.36,2.36,0,0,1-1.12-.09,2.65,2.65,0,0,1-1-.58,3.46,3.46,0,0,1-.74-1,5.79,5.79,0,0,1-.41-1.14A7.55,7.55,0,0,1,43,105.1c0-.36,0-.68,0-.94a7.48,7.48,0,0,1,4.94-6.8,7.57,7.57,0,0,1,2.58-.47,6.82,6.82,0,0,1,3.19.75A5.94,5.94,0,0,1,56,99.74a6.16,6.16,0,0,1,1,3.08,6.63,6.63,0,0,1-.69,3.24A6.92,6.92,0,0,1,53.68,109a8.24,8.24,0,0,1-3.87,1ZM49,102.56c.15-.67.27-1.36.37-2.07s.17-1.47.21-2.26a6.45,6.45,0,0,0-1.73.56A6.14,6.14,0,0,0,46.22,100,6.5,6.5,0,0,0,45,101.8a6.58,6.58,0,0,0-.58,2.43,5.82,5.82,0,0,0,0,.6,4.41,4.41,0,0,0,.09.86,5.44,5.44,0,0,0,.27.93,2.28,2.28,0,0,0,.53.81,1,1,0,0,0,1.08.26,2.22,2.22,0,0,0,1-.9,9.85,9.85,0,0,0,1-2.09C48.62,103.94,48.83,103.22,49,102.56Z"/><path class="cls-9" d="M72.39,97.05a5,5,0,0,1-.62,1.31,8.3,8.3,0,0,1-1.09,1.29,15.84,15.84,0,0,1-1.6,1.35v9.92H67.61v-8.78c-.35.26-.72.52-1.11.79l-1.26.85-1.47,1L62,105.91l-.79-1.21,4.32-2.8a32.41,32.41,0,0,0,3.09-2.23,9,9,0,0,0,1.85-2,3.6,3.6,0,0,0,.62-2h1.45A4.93,4.93,0,0,1,72.39,97.05Z"/><path class="cls-9" d="M85.16,97.5v1.43H79.93V97.5ZM92,101.3c-.54,1-1,1.91-1.51,2.74a22.93,22.93,0,0,1-1.4,2.21A11,11,0,0,1,87.61,108a7.13,7.13,0,0,1-1.82,1.21,9.65,9.65,0,0,1-2.33.72,16.76,16.76,0,0,1-3,.24v-1.4a15.9,15.9,0,0,0,2.55-.18,7.46,7.46,0,0,0,2-.58,6.12,6.12,0,0,0,1.56-1,9.5,9.5,0,0,0,1.35-1.55c.43-.61.87-1.31,1.33-2.11s1-1.7,1.5-2.72Z"/><path class="cls-9" d="M107.65,101.7a11.77,11.77,0,0,1-1.47,3l1.91,1.45-.89,1-1.81-1.43c-.33.42-.69.82-1,1.22s-.76.8-1.2,1.21-.92.85-1.46,1.31-1.17,1-1.86,1.49l-.92-1.11c.69-.52,1.3-1,1.84-1.45s1-.87,1.43-1.27.79-.77,1.13-1.13.64-.73.93-1.1L103,104l-1.16-.8-1.1-.74.84-1.07c.33.22.69.48,1.09.78l1.12.82c.41.31.82.62,1.24.92a11.13,11.13,0,0,0,1.2-2.46,8.56,8.56,0,0,0,.46-2.51H102c-.19.34-.4.67-.62,1s-.51.69-.85,1.09-.74.83-1.22,1.31-1,1-1.7,1.63l-1-1c1.07-1,1.92-1.84,2.55-2.54a11.71,11.71,0,0,0,1.43-1.89,5.31,5.31,0,0,0,.63-1.6,9.17,9.17,0,0,0,.14-1.63h1.47a11.22,11.22,0,0,1-.06,1.3,6.74,6.74,0,0,1-.21,1h5.59v1.13A9.41,9.41,0,0,1,107.65,101.7Z"/><path class="cls-9" d="M113.85,102.3h13.89v1.43H113.85Z"/><path class="cls-9" d="M143.14,99.06a4.51,4.51,0,0,1-.22,1.4,4.36,4.36,0,0,1-.69,1.26,6.76,6.76,0,0,1-1.2,1.19,16,16,0,0,1-1.77,1.17v6.84h-1.45V104.8c-.4.21-.78.41-1.14.58l-1.15.55-1.34.61-1.7.76-.56-1.24c1.48-.65,2.8-1.25,4-1.78a29.83,29.83,0,0,0,3-1.54,8.73,8.73,0,0,0,1.94-1.52,3.25,3.25,0,0,0,.86-1.71h-7.91V98.17h4V94.75h1.45v3.42h3.9Zm1.92,8.28-.64-.4c-.29-.17-.64-.38-1-.64l-1.35-.84c-.49-.32-1-.64-1.57-1l.76-1.17.62.36,4,2.5Z"/><path class="cls-9" d="M151.66,99.3h1.41v4.24h-1.41Zm1.13,10a36.2,36.2,0,0,0,3.21-2.39,10.64,10.64,0,0,0,1.92-2.08,6.09,6.09,0,0,0,.93-2.15,11.76,11.76,0,0,0,.25-2.6V99.4h1.43V100a13.47,13.47,0,0,1-.3,3,7.28,7.28,0,0,1-1.08,2.46,11.33,11.33,0,0,1-2.1,2.32,37.13,37.13,0,0,1-3.43,2.57Zm2.22-10h1.43v4.24H155Z"/><path class="cls-9" d="M175.78,102.69c1.13.65,2.3,1.38,3.53,2.18l-.82,1.23q-.86-.63-1.65-1.14c-.53-.35-1.05-.67-1.56-1s-1-.6-1.51-.88l-1.5-.82v8.43h-1.44V95.31h1.44v5.54C173.48,101.42,174.65,102,175.78,102.69Z"/><path class="cls-9" d="M186.27,107.54a12.57,12.57,0,0,0,0-9.14,12.34,12.34,0,0,0-2.55-3.86h1.41a12,12,0,0,1,2.54,3.88,12.07,12.07,0,0,1-2.54,13h-1.41A12.57,12.57,0,0,0,186.27,107.54Z"/><path class="cls-9" d="M304.79,103a11.76,11.76,0,0,1,3.37-8.41h1.41a11.63,11.63,0,0,0-3.41,8.45,11.76,11.76,0,0,0,.87,4.56,12.5,12.5,0,0,0,2.54,3.85h-1.41A11.89,11.89,0,0,1,304.79,103Z"/><path class="cls-9" d="M320.45,100.39a13.75,13.75,0,0,0,1.15,3.49,11.73,11.73,0,0,0,2.07,3,14,14,0,0,0,3.12,2.46l-1,1.43a15.57,15.57,0,0,1-3-2.73,16.19,16.19,0,0,1-2.24-3.37,10.61,10.61,0,0,1-.61-1.51c-.15-.5-.3-1-.42-1.58a15.24,15.24,0,0,1-2,5.46,12.64,12.64,0,0,1-4.24,4.1l-1-1.28a11.15,11.15,0,0,0,3.25-2.47,11,11,0,0,0,2-3.14,14.45,14.45,0,0,0,1-3.67,31.39,31.39,0,0,0,.25-4.06V95.18h1.45v1.24A20.85,20.85,0,0,0,320.45,100.39Z"/><path class="cls-9" d="M329.92,109.64v-1.32h6.42V98.21h-5.52V96.87h12.59v1.34h-5.64v10.11h6.53v1.32Z"/><path class="cls-9" d="M352.07,103.14c0,.28,0,.55,0,.83s0,.55-.09.83l.08.07q.9.91,1.74,1.8c.56.6,1.09,1.23,1.61,1.89l-.94,1.24c-.43-.62-.87-1.23-1.33-1.81s-.94-1.15-1.44-1.7a9.48,9.48,0,0,1-1.3,3,8.46,8.46,0,0,1-2.35,2.3l-.91-1.11a7,7,0,0,0,1.68-1.43,7.3,7.3,0,0,0,1.09-1.73,9.23,9.23,0,0,0,.62-2,16.63,16.63,0,0,0,.28-2.18h-3.72V102h3.74V98.4h-1.11q-.29.72-.66,1.47a12.56,12.56,0,0,1-.86,1.45l-1-1a12.56,12.56,0,0,0,1.36-2.78,19.18,19.18,0,0,0,.77-3l1.29.19c-.06.4-.14.8-.24,1.21l-.3,1.21h4.78V98.4h-2.77V102h3.2v1.18Zm4.9,6.4v1.38h-1.3V97H362v13.7h-1.29v-1.15Zm0-11.33v10.11h3.71V98.21Z"/><path class="cls-9" d="M365.19,98.66h.89a18,18,0,0,0,1-2q.4-1,.75-2.16l1.39.37-.38.9c-.15.33-.3.67-.46,1s-.33.68-.5,1-.34.62-.5.87h.19l.94,0,.92-.06a6,6,0,0,1,.61,0,6.08,6.08,0,0,0,.61,0h.15c-.17-.32-.36-.62-.55-.92l-.56-.82,1-.6A22.49,22.49,0,0,1,373,99.91l-1.09.8-.3-.64-.3-.64a31.67,31.67,0,0,1-3.2.37c-1.06.07-2.14.12-3.24.16l-.35-1.3ZM371.84,110a1.12,1.12,0,0,1-.43,1,2,2,0,0,1-1.11.28,11,11,0,0,1-1.64-.11l-.19-1.32a7.85,7.85,0,0,0,.82.15,7.14,7.14,0,0,0,.8,0,.48.48,0,0,0,.54-.54v-2.09h-3.78v4.06h-1.24V101.09h6.23Zm-5-7.75v1.45h3.78v-1.45Zm0,2.54v1.53h3.78v-1.53Zm7.7-6.85a19.89,19.89,0,0,0,2.12-.91,15.52,15.52,0,0,0,2-1.22l1,1a24.69,24.69,0,0,1-2.51,1.28,22.17,22.17,0,0,1-2.67,1h0v1.64a1,1,0,0,0,.07.4.52.52,0,0,0,.29.25.6.6,0,0,0,.25.06l.39,0h1.21c.24,0,.49,0,.74,0a3.19,3.19,0,0,0,.71-.14.67.67,0,0,0,.42-.29,1.79,1.79,0,0,0,.11-.41c0-.19.05-.4.07-.62s0-.43,0-.63,0-.35,0-.45l1.3.38c0,.17,0,.41,0,.69a7.22,7.22,0,0,1-.09.9,6.79,6.79,0,0,1-.2.86,1.13,1.13,0,0,1-.35.58,1.75,1.75,0,0,1-.66.22l-.9.13c-.32,0-.62,0-.91,0h-1.22l-.73,0c-.25,0-.5-.06-.73-.1a1.42,1.42,0,0,1-.53-.18.8.8,0,0,1-.41-.49,2.07,2.07,0,0,1-.1-.66V94.8h1.26Zm.11,8.23c.72-.28,1.41-.58,2.09-.89a14.24,14.24,0,0,0,2-1.15l1.05,1.07a27.45,27.45,0,0,1-2.58,1.22,21.55,21.55,0,0,1-2.71.91h0v1.79a1.37,1.37,0,0,0,.07.47.6.6,0,0,0,.34.32,1.07,1.07,0,0,0,.31.08l.42,0a3,3,0,0,0,.42,0h.76c.2,0,.4,0,.61,0l.61,0a1.26,1.26,0,0,0,.41-.12.66.66,0,0,0,.29-.45,4.48,4.48,0,0,0,.16-.78,7.84,7.84,0,0,0,.08-.82,4.89,4.89,0,0,1,0-.56l1.33.36c0,.16,0,.36,0,.61s0,.49-.05.75-.06.51-.11.74a2.33,2.33,0,0,1-.17.59,1.32,1.32,0,0,1-.46.53,2,2,0,0,1-.68.3,4.32,4.32,0,0,1-.8.14c-.28,0-.55,0-.81,0h-1.2l-.79,0-.77-.08A2,2,0,0,1,374,111a1,1,0,0,1-.55-.49,1.73,1.73,0,0,1-.13-.71v-6.53h1.26v2.93Z"/><path class="cls-9" d="M384.89,107.54a12.57,12.57,0,0,0,0-9.14,12.34,12.34,0,0,0-2.55-3.86h1.41a11.83,11.83,0,0,1,2.54,3.88,12.07,12.07,0,0,1-2.54,13h-1.41A12.57,12.57,0,0,0,384.89,107.54Z"/><path class="cls-9" d="M38.26,73.65h-7.7V.1h7.7Z"/><path class="cls-9" d="M83.32,16.85q9.74,0,14.73,4t5,12.13V57.57q0,16.08-19.74,16.08h-5q-19.56,0-19.55-16.08V33q0-16.17,19.55-16.17Zm12,16.36a13.11,13.11,0,0,0-.87-5.29A6.74,6.74,0,0,0,92.08,25a8.92,8.92,0,0,0-3.75-1.3,37.8,37.8,0,0,0-4.81-.29h-5.3a36.81,36.81,0,0,0-4.77.29,8.89,8.89,0,0,0-3.7,1.3,6.74,6.74,0,0,0-2.41,2.94,13.11,13.11,0,0,0-.87,5.29v23.4a13.44,13.44,0,0,0,1,5.63,7.46,7.46,0,0,0,2.64,3.18,9,9,0,0,0,3.81,1.39,31.6,31.6,0,0,0,4.43.29h5.1a35.94,35.94,0,0,0,4.81-.29A9.68,9.68,0,0,0,92,65.56a6.22,6.22,0,0,0,2.45-2.89,13.08,13.08,0,0,0,.87-5.29Z"/><path class="cls-9" d="M164.49,6.64h-22v67H135V6.55h-22V.1h51.42Z"/><path class="cls-9" d="M302,73.55,328,0h10.68l26.19,73.55h-8.28l-8-23.58H318.26l-8,23.58Zm18.49-29.94h25.9L333.47,5.3Z"/><path class="cls-9" d="M388.55,73.65h-7.7V.1h7.7Z"/><line class="cls-14" x1="264.16" y1="8.5" x2="261.98" y2="10.67"/><line class="cls-15" x1="257.74" y1="14.92" x2="208.92" y2="63.73"/><line class="cls-14" x1="206.8" y1="65.86" x2="204.64" y2="68.03"/><line class="cls-14" x1="204.64" y1="8.5" x2="206.8" y2="10.67"/><line class="cls-15" x1="211.05" y1="14.92" x2="259.87" y2="63.73"/><line class="cls-14" x1="261.98" y1="65.86" x2="264.16" y2="68.03"/></svg>