<?xml version="1.0" encoding="UTF-8"?>
<svg id="_レイヤー_2" data-name="レイヤー 2" xmlns="http://www.w3.org/2000/svg" viewBox="0 0 238.74 70.9">
  <defs>
    <style>
      .cls-1 {
        fill: #231815;
      }
    </style>
  </defs>
  <g id="_文字" data-name="文字">
    <g>
      <g>
        <path class="cls-1" d="M15.29,4.18c-.54.41-1.14.79-1.78,1.16-.23.14-.35.21-.45.21-.14,0-.19-.14-.37-.46-.21-.39-.5-.77-.75-.99,1.61-.77,3.27-2.01,4.38-3.29.14-.15.33-.41.54-.75.68.23,1.08.41,1.55.62.16.08.27.17.27.31,0,.15-.14.21-.31.29-.12.06-.27.23-.52.54-.19.23-.41.46-.64.7v3.04c0,.91.04,1.28.04,1.39,0,.21-.02.23-.21.23h-1.55c-.21,0-.23-.02-.23-.23,0-.12.04-.48.04-1.24v-1.53ZM19.22,15.84c.19.08.27.17.27.29s-.12.19-.29.23c-.21.04-.46.17-.79.35-1.18.6-2.75,1.08-4.42,1.36-.17.04-.31.04-.41.04-.21,0-.27-.1-.46-.41-.27-.46-.58-.89-.89-1.16,1.78-.17,3.31-.48,4.38-.91.29-.12.58-.27.91-.5.74.27,1.16.46,1.7.72ZM24.16,7.69c1.88,0,2.56-.04,2.67-.04.19,0,.21.02.21.21,0,.12-.04.64-.04,1.9v3.25c0,1.24.04,1.78.04,1.9,0,.19-.02.21-.21.21-.12,0-.79-.04-2.67-.04h-6.33c-1.9,0-2.56.04-2.69.04-.19,0-.21-.02-.21-.21,0-.14.04-.66.04-1.9v-3.25c0-1.26-.04-1.78-.04-1.9,0-.19.02-.21.21-.21.14,0,.79.04,2.69.04h6.33ZM16.82,9.84h8.31v-.81h-8.31v.81ZM25.13,11.79v-.81h-8.31v.81h8.31ZM25.13,12.94h-8.31v.83h8.31v-.83ZM21.45,6.95c-1.8,0-2.4.04-2.52.04-.19,0-.21-.02-.21-.23v-.97c0-.19.02-.21.21-.21.12,0,.72.04,2.52.04h1.32v-1.01h-1.86c-1.86,0-2.52.04-2.63.04-.19,0-.21-.02-.21-.21v-1.06c0-.19.02-.21.21-.21.12,0,.78.04,2.63.04h1.86v-.87c-.87.06-1.74.12-2.59.14q-.54.02-.72-.39c-.16-.39-.43-.79-.58-.97,2.9-.02,5.38-.25,6.97-.58.48-.08.72-.16,1.03-.29.52.33.89.6,1.3.95.12.1.17.16.17.27,0,.1-.1.19-.37.21-.21.02-.46.06-.77.12-.75.15-1.65.27-2.58.39v1.03h2.23c1.88,0,2.52-.04,2.61-.04.19,0,.21.02.21.21v1.06c0,.19-.02.21-.21.21-.1,0-.74-.04-2.61-.04h-2.23v1.01h1.49c1.78,0,2.4-.04,2.52-.04.19,0,.21.02.21.21v.97c0,.21-.02.23-.21.23-.12,0-.74-.04-2.52-.04h-4.67ZM23.91,15.22c.23-.12.27-.12.46-.02,1.32.66,3.12,1.08,5.27,1.3-.31.31-.64.72-.93,1.2-.19.31-.27.39-.46.39-.1,0-.23-.02-.45-.06-1.72-.27-3.89-1.01-5.29-1.9-.17-.12-.17-.19.1-.31l1.3-.6Z"/>
        <path class="cls-1" d="M36.64,4.26c-.56.39-1.16.75-1.84,1.1-.21.12-.35.19-.45.19-.14,0-.21-.14-.37-.46-.21-.45-.45-.75-.72-1.03,1.72-.74,3.45-1.96,4.43-3.14.19-.21.41-.48.58-.79.58.21,1.1.41,1.57.64.17.08.31.17.31.31,0,.17-.12.25-.29.33-.14.06-.31.21-.58.5l-.74.76v2.56c0,.83.04,1.14.04,1.26,0,.19-.02.21-.23.21h-1.55c-.19,0-.21-.02-.21-.21,0-.14.04-.33.04-.99v-1.24ZM40.5,15.69c.19.06.27.16.27.27s-.1.19-.27.23c-.21.06-.46.19-.79.37-1.18.62-2.73,1.12-4.4,1.43-.19.04-.35.06-.43.06-.19,0-.27-.1-.45-.41-.25-.46-.56-.89-.89-1.16,1.76-.19,3.27-.54,4.34-.97.29-.14.58-.29.91-.52.74.25,1.16.45,1.7.7ZM45.88.14c.19-.19.25-.15.45-.06.54.25,1.2.6,1.86,1.04.1.06.14.1.14.16s-.04.12-.14.19l-.89.81c1.57-.15,2.54-.31,2.73-.33.19-.02.19,0,.21.21l.14,1.24c.02.19,0,.21-.21.23-.19.02-.87.06-2.59.25l-1.94.19c.17.19.37.39.58.56.89.85,1.65,1.18,2.38,1.18.56-.02.87-.43,1.07-1.57.33.25.66.46,1.03.6.58.21.62.23.45.81-.41,1.45-1.3,1.84-2.23,1.86-.17,0-.37,0-.54-.02-.02.23-.04.79-.04,1.8v3.5c0,1.26.04,1.82.04,1.94,0,.19-.02.21-.21.21-.13,0-.79-.04-2.69-.04h-6.33c-1.88,0-2.54.04-2.67.04-.19,0-.21-.02-.21-.21,0-.13.04-.68.04-1.94v-3.5c0-1.26-.04-1.82-.04-1.94,0-.19.02-.21.21-.21.14,0,.79.04,2.67.04h7.84c-.75-.27-1.49-.7-2.09-1.28-.56-.52-1.01-1.07-1.39-1.63l-1.08.1-2.56.29c-.19.02-.21,0-.23-.19l-.14-1.24c-.02-.19,0-.19.19-.21.23-.02.85-.04,2.58-.23l.39-.04c-.19-.41-.35-.85-.5-1.32-.14-.43-.27-.85-.43-1.24.72-.02,1.32,0,1.82.02.37.02.54.1.54.23,0,.12-.04.21-.06.31-.04.15.02.45.14.77.12.35.27.68.45,1.03l2.54-.27s-.08-.04-.12-.08c-.54-.45-1.2-.87-1.82-1.14-.17-.08-.21-.12,0-.33l.7-.62ZM38.14,8.64v.83h8.31v-.83h-8.31ZM46.44,11.49v-.81h-8.31v.81h8.31ZM46.44,12.69h-8.31v.83h8.31v-.83ZM45.2,15.12c.23-.12.27-.12.46-.02,1.34.66,3.12,1.05,5.27,1.26-.31.31-.64.7-.93,1.24-.16.29-.27.39-.46.39-.1,0-.25-.02-.45-.06-1.72-.27-3.89-1.01-5.29-1.9-.17-.12-.17-.19.1-.31l1.3-.6Z"/>
        <path class="cls-1" d="M56.87,10.46c0-.7.02-1.51.04-2.32-.41.54-.81,1.08-1.26,1.61-.14.17-.25.25-.33.25-.1,0-.16-.12-.23-.35-.14-.64-.45-1.39-.66-1.74,1.67-1.82,2.9-3.97,3.68-6.27.16-.45.27-.89.31-1.38.68.19,1.28.35,1.88.6.19.1.29.16.29.29s-.06.23-.19.35c-.12.12-.23.29-.41.77-.33.87-.7,1.74-1.12,2.59v10.05c0,1.9.04,2.85.04,2.94,0,.19-.02.21-.23.21h-1.63c-.19,0-.21-.02-.21-.21,0-.12.04-1.05.04-2.94v-4.45ZM65.02,3.31c0-1.22-.04-2.03-.16-2.92.74.02,1.39.06,2.07.14.19.02.31.1.31.19,0,.14-.06.25-.1.41-.08.23-.14.72-.14,2.13v1.18h2.03c1.86,0,2.54-.04,2.65-.04.17,0,.19.02.19.21,0,.12-.04.74-.04,2.34v2.42c0,2.73.04,3.29.04,3.43,0,.19-.02.21-.19.21h-1.65c-.17,0-.19-.02-.19-.21v-.75h-2.85v2.46c0,2.21.04,3.31.04,3.41,0,.19-.02.21-.23.21h-1.63c-.19,0-.21-.02-.21-.21,0-.12.04-1.2.04-3.39v-2.48h-2.67v.85c0,.19-.02.21-.19.21h-1.59c-.21,0-.23-.02-.23-.21,0-.14.04-.7.04-3.45v-2.19c0-1.92-.04-2.52-.04-2.65,0-.19.02-.21.23-.21.12,0,.79.04,2.65.04h1.8v-1.12ZM62.35,10.21h2.67v-3.93h-2.67v3.93ZM67.02,6.28v3.93h2.85v-3.93h-2.85Z"/>
        <path class="cls-1" d="M85.91,1.14c2.07,2.83,4.34,4.59,8.17,6.1-.33.41-.6.93-.83,1.53-.14.35-.19.5-.35.5-.1,0-.23-.08-.45-.17-3.45-1.63-5.77-3.6-7.59-6.33-1.78,2.79-4.1,4.71-7.24,6.37-.23.14-.37.21-.46.21-.12,0-.19-.15-.35-.48-.23-.54-.52-.99-.89-1.38,3.39-1.47,5.65-3.37,7.3-6.04.33-.5.5-.87.68-1.41.75.12,1.43.21,2.01.41.17.04.33.16.33.29,0,.1-.06.17-.19.29l-.14.12ZM80.25,13.87c.56-.95.74-2.13.74-4.2,0-.83-.02-1.55-.14-2.27.68,0,1.51.04,2.15.1.21.02.33.1.33.23,0,.15-.04.25-.1.43-.06.17-.12.54-.12,1.57,0,2.71-.33,4.18-1.08,5.42-.7,1.1-1.86,2.05-3.45,2.75-.23.12-.37.19-.46.19-.12,0-.21-.12-.39-.43-.29-.46-.76-1.03-1.14-1.32,1.8-.58,3.06-1.45,3.66-2.48ZM86.68,10.32c0-1.08,0-2.09-.14-2.96.76.02,1.49.08,2.13.16.19.02.29.1.29.21,0,.15-.06.33-.1.48-.06.27-.1.97-.1,2.09v4.9c0,1.59.04,2.38.04,2.5,0,.17-.02.19-.23.19h-1.72c-.19,0-.21-.02-.21-.19,0-.13.04-.91.04-2.5v-4.88Z"/>
        <path class="cls-1" d="M109.89,11.37h1.84v1.82h-1.84v3.35h-2.23v-3.35h-5.63v-1.7l4.8-9.82h3.06v9.7ZM107.66,8.12c0-1.57.06-3.04.12-4.53h-.27c-.48,1.28-1.04,2.58-1.65,3.87l-1.82,3.91h3.62v-3.25Z"/>
        <path class="cls-1" d="M124.58,9.1c0,5.48-1.67,7.71-4.69,7.71s-4.63-2.19-4.63-7.67,1.68-7.63,4.67-7.63,4.65,2.13,4.65,7.59ZM117.77,9.12c0,4.36.6,5.77,2.13,5.77s2.19-1.43,2.19-5.77-.6-5.69-2.15-5.69-2.17,1.32-2.17,5.69Z"/>
        <path class="cls-1" d="M135.87,13.71c-1.7,0-2.3.04-2.42.04-.19,0-.21-.02-.21-.21v-1.53c0-.17.02-.19.21-.19.12,0,.72.04,2.42.04h.46v-2.71c0-1.1-.04-1.63-.04-1.74,0-.19.02-.21.23-.21.12,0,.77.04,2.65.04h2.48v-2.58h-3.97c-.64.97-1.39,1.9-2.27,2.77-.19.21-.31.31-.41.31s-.19-.12-.39-.37c-.37-.5-.72-.81-1.08-1.05,1.61-1.39,2.79-3,3.58-4.69.23-.48.41-.95.5-1.41.7.13,1.34.27,1.86.43.23.08.35.17.35.33s-.1.23-.23.37c-.16.13-.29.29-.48.7l-.39.83h8c1.88,0,2.54-.04,2.65-.04.19,0,.21.02.21.21v1.43c0,.19-.02.21-.21.21-.12,0-.77-.04-2.65-.04h-2.98v2.58h2.07c1.9,0,2.54-.04,2.65-.04.17,0,.19.02.19.21v1.45c0,.19-.02.21-.19.21-.12,0-.75-.04-2.65-.04h-2.07v2.83h4.1c1.7,0,2.3-.04,2.42-.04.19,0,.21.02.21.19v1.53c0,.19-.02.21-.21.21-.12,0-.72-.04-2.42-.04h-4.1v.95c0,2.03.04,3.06.04,3.16,0,.19-.02.21-.21.21h-1.72c-.21,0-.23-.02-.23-.21,0-.12.04-1.12.04-3.16v-.95h-5.79ZM141.66,11.85v-2.83h-3.27v2.83h3.27Z"/>
        <path class="cls-1" d="M164.46,4.63c-.45,3.29-1.26,6.31-2.42,8.35-.83,1.45-1.84,2.23-3.29,2.23-1.7,0-3.43-1.82-3.43-4.98,0-1.86.79-3.64,2.19-5.04,1.63-1.63,3.68-2.48,6.29-2.48,4.65,0,7.38,2.87,7.38,6.72,0,3.6-2.03,5.87-5.96,7.05-.41.12-.58.04-.83-.35-.21-.33-.62-.77-1.36-1.22,3.27-.77,5.85-2.13,5.85-5.79,0-2.3-1.74-4.49-4.34-4.49h-.08ZM158.9,6.51c-.93,1.04-1.51,2.34-1.51,3.58,0,1.78.72,2.77,1.32,2.77.5,0,.93-.25,1.45-1.18.85-1.57,1.72-4.36,2.05-6.93-1.36.27-2.44.81-3.31,1.76Z"/>
        <path class="cls-1" d="M179.01,12.82c-1.78,0-2.38.04-2.5.04-.19,0-.21-.02-.21-.21v-1.26c0-.21.02-.23.21-.23.12,0,.72.04,2.5.04h4.2c.08-.37.12-.75.13-1.18h-1.86c-1.86,0-2.52.04-2.63.04-.19,0-.21-.02-.21-.21v-1.22c0-.21.02-.23.21-.23.12,0,.77.04,2.63.04h1.92v-1.14h-1.78c-1.8,0-2.44.04-2.56.04-.19,0-.21-.02-.21-.23v-1.2c0-.21.02-.23.21-.23.12,0,.76.04,2.56.04h1.76c-.02-.6-.08-1.07-.12-1.43.64.02,1.39.04,1.98.12.23.04.35.12.35.25,0,.12-.06.27-.12.41-.06.14-.1.29-.1.66h2c1.78,0,2.42-.04,2.54-.04.21,0,.23.02.23.23v1.2c0,.21-.02.23-.23.23-.12,0-.75-.04-2.54-.04h-2v1.14h2.09c1.88,0,2.5-.04,2.61-.04.21,0,.23.02.23.23v1.22c0,.19-.02.21-.23.21-.12,0-.74-.04-2.61-.04h-2.13c-.02.43-.08.81-.12,1.18h4.88c1.78,0,2.38-.04,2.5-.04.21,0,.23.02.23.23v1.26c0,.19-.02.21-.23.21-.12,0-.72-.04-2.5-.04h-4.05c1.55,1.86,4.12,2.75,7.32,3.12-.29.37-.58.93-.74,1.45-.12.41-.17.52-.39.52-.1,0-.23,0-.43-.04-3.12-.52-5.6-1.8-7.38-4.24-.14.23-.29.46-.46.68-1.38,1.78-3.5,2.81-6.62,3.52-.19.04-.37.08-.45.08-.15,0-.23-.13-.37-.52-.17-.54-.48-1.01-.74-1.32,3.25-.46,5.69-1.57,6.66-2.96l.17-.29h-3.64ZM189.89,2.17c1.8,0,2.44-.04,2.56-.04.19,0,.21.02.21.21,0,.1-.04.45-.04.97v.81c0,1.68.04,1.99.04,2.09,0,.19-.02.21-.21.21h-1.59c-.19,0-.21-.02-.21-.21v-2.34h-12.3v2.34c0,.19-.02.21-.23.21h-1.57c-.19,0-.21-.02-.21-.21,0-.1.04-.41.04-2.09v-.66c0-.68-.04-1.03-.04-1.12,0-.19.02-.21.21-.21.14,0,.77.04,2.56.04h4.22v-.1c0-.83-.04-1.36-.16-1.84.72.02,1.43.06,2.09.12.21.02.31.1.31.17,0,.14-.06.23-.12.39-.06.16-.1.41-.1,1.16v.1h4.53Z"/>
        <path class="cls-1" d="M202.88,6.51c.19-.08.23-.08.31.12.56,1.12.89,2.3,1.2,3.5.04.19,0,.27-.23.35l-.93.35c-.25.1-.29.1-.33-.13l-.19-.85-1.07.12v5.33c0,1.78.04,2.44.04,2.54,0,.19-.02.21-.21.21h-1.47c-.19,0-.21-.02-.21-.21,0-.12.04-.75.04-2.54v-5.15l-1.45.12c-.33.02-.58.08-.74.15-.12.06-.17.08-.29.08s-.19-.12-.23-.31c-.1-.5-.17-1.03-.23-1.65.54.06.97.08,1.47.06.37-.48.72-.97,1.07-1.45-.74-1.01-1.59-1.97-2.5-2.85-.08-.08-.1-.13-.1-.17,0-.08.06-.14.14-.25l.72-.95c.16-.19.21-.21.35-.06l.45.45c.41-.64.79-1.38,1.12-2.09.17-.39.25-.64.35-1.03.56.21,1.12.45,1.61.7.17.1.25.19.25.31s-.08.19-.17.25c-.15.1-.23.21-.37.46-.56,1.01-1.03,1.76-1.65,2.65l.85,1.01c.45-.72.85-1.43,1.26-2.15.21-.41.39-.77.54-1.22.52.21,1.14.45,1.61.72.17.1.23.15.23.27,0,.14-.06.21-.21.31-.19.13-.31.31-.6.75-1.01,1.59-1.99,3.06-2.92,4.26l1.92-.12c-.13-.41-.29-.79-.46-1.18-.08-.17-.04-.25.19-.35l.87-.35ZM197.63,12.45c.04-.43.06-.77.04-1.24.58.1,1.16.21,1.49.31.23.08.33.16.33.23,0,.12-.02.19-.1.29-.06.1-.12.39-.16.72-.12,1.08-.35,2.46-.68,3.56-.1.33-.15.46-.27.46-.1,0-.21-.08-.43-.23-.25-.19-.78-.46-1.03-.54.43-1.03.7-2.25.79-3.56ZM203.15,11.25c.23-.08.27-.06.33.13.39,1.01.6,2.05.81,3.37.04.19.04.25-.23.35l-.97.33c-.27.1-.31.08-.33-.13-.16-1.39-.35-2.46-.7-3.49-.06-.19-.04-.21.19-.29l.89-.27ZM208.03,15.8c.17.08.25.17.25.27,0,.12-.1.21-.23.25-.17.06-.41.19-.72.37-.83.46-1.76.89-3.12,1.22-.21.06-.39.1-.46.1-.17,0-.25-.08-.39-.31-.29-.48-.52-.77-.76-.99,1.43-.27,2.44-.62,3.35-1.05.25-.12.54-.31.81-.54.54.29.91.46,1.26.68ZM209.87,5.15v.81h2.01c1.86,0,2.48-.04,2.59-.04.17,0,.19.02.19.21v1.05c0,.19-.02.21-.19.21-.12,0-.74-.04-2.59-.04h-5.31c-1.84,0-2.48.04-2.59.04-.19,0-.21-.02-.21-.21v-1.05c0-.19.02-.21.21-.21.12,0,.76.04,2.59.04h1.45v-.81h-.72c-1.65,0-2.21.04-2.32.04-.17,0-.19-.02-.19-.21v-.89c0-.21.02-.23.19-.23.12,0,.68.04,2.32.04h.72v-.81h-1.04c-1.74,0-2.34.04-2.46.04-.19,0-.21-.02-.21-.23v-.99c0-.21.02-.23.21-.23.12,0,.72.04,2.46.04h1.03c0-.52-.04-.97-.12-1.47.74.02,1.24.06,1.9.14.19.04.31.12.31.21,0,.12-.04.21-.12.35s-.1.33-.12.77h1.51c1.74,0,2.36-.04,2.48-.04.19,0,.21.02.21.23v.99c0,.21-.02.23-.21.23-.12,0-.74-.04-2.48-.04h-1.51v.81h1.03c1.67,0,2.19-.04,2.3-.04.19,0,.21.02.21.23v.89c0,.19-.02.21-.21.21-.12,0-.64-.04-2.3-.04h-1.03ZM210.86,8.12c1.67,0,2.21-.04,2.34-.04.19,0,.21.02.21.19,0,.12-.04.64-.04,1.8v3.02c0,1.18.04,1.68.04,1.8,0,.21-.02.23-.21.23-.13,0-.68-.04-2.34-.04h-3.49c-1.65,0-2.23.04-2.34.04-.17,0-.19-.02-.19-.23,0-.12.04-.62.04-1.8v-3.02c0-1.16-.04-1.67-.04-1.8,0-.17.02-.19.19-.19.12,0,.7.04,2.34.04h3.49ZM206.64,10.13h4.96v-.78h-4.96v.78ZM211.59,11.99v-.79h-4.96v.79h4.96ZM211.59,13.03h-4.96v.81h4.96v-.81ZM210.84,15.34c.17-.12.23-.13.43-.04.97.54,2.15.95,3.68,1.3-.27.23-.5.52-.7.87s-.25.48-.43.48c-.1,0-.23-.04-.45-.12-1.26-.41-2.42-.95-3.39-1.65-.17-.12-.17-.16.08-.33l.77-.52Z"/>
      </g>
      <g>
        <path d="M0,69.67v-36.78h13.66c6.53,0,10.91,2.56,10.91,9.59,0,3.31-1.08,5.98-4.04,7.48v.11c5.28.67,7.5,4.22,7.5,9.36,0,7.69-6.57,10.24-13.3,10.24H0ZM9.53,62.36h1.25c2.82,0,7.63.13,7.63-3.91,0-4.45-4.75-4-7.87-4h-1.01v7.9ZM9.53,47.34h1.08c2.55,0,5.16-.43,5.16-3.58,0-3.36-2.95-3.55-5.53-3.55h-.72v7.13Z"/>
        <path d="M40.62,61.59h11.44v8.07h-21.02v-36.78h9.58v28.71Z"/>
        <path d="M85.13,32.88v20.69c0,4.71-.19,9.41-3.85,12.96-3.08,3.03-7.9,4.11-12.19,4.11s-9.14-1.08-12.2-4.11c-3.65-3.55-3.86-8.25-3.86-12.96v-20.69h9.55v19.4c0,4.74.36,9.97,6.5,9.97s6.48-5.23,6.48-9.97v-19.4h9.55Z"/>
        <path d="M98.79,40.98v6.16h10.76v8.09h-10.76v6.37h11.35v8.07h-20.93v-36.78h20.93v8.1h-11.35Z"/>
        <path d="M130.67,69.67v-36.78h13.66c6.55,0,10.93,2.56,10.93,9.59,0,3.31-1.09,5.98-4.08,7.48v.11c5.29.67,7.52,4.22,7.52,9.36,0,7.69-6.57,10.24-13.31,10.24h-14.72ZM140.25,62.36h1.19c2.83,0,7.62.13,7.62-3.91,0-4.45-4.73-4-7.83-4h-.98v7.9ZM140.25,47.34h1.06c2.54,0,5.17-.43,5.17-3.58,0-3.36-2.97-3.55-5.53-3.55h-.7v7.13Z"/>
        <path d="M201.53,50.6c0,11.89-8.53,20.3-20.34,20.3s-20.32-8.4-20.32-20.3c0-11.14,9.73-18.91,20.32-18.91s20.34,7.77,20.34,18.91ZM170.79,50.64c0,6.34,4.7,10.99,10.4,10.99s10.38-4.64,10.38-10.99c0-5.04-4.67-9.7-10.38-9.7s-10.4,4.66-10.4,9.7Z"/>
        <path d="M202.17,32.88h11.75l5.61,9.53,5.61-9.53h11.75l-11.75,17.12,13.6,19.67h-11.5l-7.71-12-8.44,12h-11.56l14.39-19.67-11.75-17.12Z"/>
      </g>
    </g>
  </g>
</svg>