<svg id="レイヤー_1" data-name="レイヤー 1" xmlns="http://www.w3.org/2000/svg" viewBox="0 0 239 71.919"><defs><style>.cls-1,.cls-2{fill:#231815;}.cls-2{font-size:20px;font-family:YuGothic-Bold, Yu Gothic;font-weight:700;letter-spacing:0.1em;}</style></defs><path class="cls-1" d="M16.87.07a15.624,15.624,0,0,1,1.55.61c.18.09.27.19.27.31s-.1.2-.31.3a2.17,2.17,0,0,0-.52.54c-.2.23-.42.46-.64.7v4.4a.423.423,0,0,1,0,.2.349.349,0,0,1-.17,0H15.5a.394.394,0,0,1-.21,0,.382.382,0,0,1,0-.19V4.19a18.281,18.281,0,0,1-1.78,1.16,1.9,1.9,0,0,1-.45.22c-.08,0-.2-.16-.37-.47a3.552,3.552,0,0,0-.75-1A13.429,13.429,0,0,0,16.33.81,7.647,7.647,0,0,0,16.87.07Zm.66,15.08c.52.19,1.08.42,1.7.71.19.07.28.17.28.29s-.1.19-.3.24a3.362,3.362,0,0,0-.79.35A15.254,15.254,0,0,1,14,18.09a1.654,1.654,0,0,1-.41,0c-.14,0-.29-.14-.46-.41a4.528,4.528,0,0,0-.89-1.16,17.08,17.08,0,0,0,4.38-.91A4.546,4.546,0,0,0,17.53,15.15ZM24.17,7.7h2.86a.29.29,0,0,1,0,.17v7.2c0,.02-.08,0-.17,0H15.15a.294.294,0,0,1-.19,0,.327.327,0,0,1,0-.17L15,13V7.69a.307.307,0,0,1,.18,0h2.68ZM16.83,9v.82h8.31V9Zm0,2.77h8.31V11H16.83Zm8.31,2V13H16.83v.83ZM21.47,7H18.76a.366.366,0,0,1,0-.18V5.63a.29.29,0,0,1,.17,0h3.84v-1H18.1a.327.327,0,0,1,0-.17V3.19a.307.307,0,0,1,.18,0h4.49V2.33c-1.19.07-2.05.12-2.6.13h-.24a.439.439,0,0,1-.31-.08,1.278,1.278,0,0,1-.16-.32,3.249,3.249,0,0,0-.59-1,36.67,36.67,0,0,0,7-.59,4.451,4.451,0,0,0,1-.28,11.338,11.338,0,0,1,1.29.94.41.41,0,0,1,.18.28c0,.12-.12.19-.37.21a6.664,6.664,0,0,0-.77.12c-.55.11-1.41.23-2.58.38v1h5.03a.29.29,0,0,1,0,.17V4.45a.291.291,0,0,1,0,.18.366.366,0,0,1-.18,0H24.64v1h4.01a.324.324,0,0,1,.19,0,.391.391,0,0,1,0,.18v1a.4.4,0,0,1,0,.2.366.366,0,0,1-.18,0L26.13,7Zm2.92,8.26a15.214,15.214,0,0,0,5.27,1.3,6.188,6.188,0,0,0-.93,1.2c-.16.26-.32.39-.46.39a2.97,2.97,0,0,1-.46-.06,15.991,15.991,0,0,1-2.95-.78,12.643,12.643,0,0,1-2.33-1.12c-.08,0-.12-.1-.12-.14s.07-.11.21-.17l1.31-.6a.683.683,0,0,1,.25-.09.5.5,0,0,1,.21.03Z" transform="translate(0 0.919)"/><path class="cls-1" d="M38.32.14c.73.27,1.25.48,1.57.64s.32.2.32.31-.1.24-.3.33a2.233,2.233,0,0,0-.57.5l-.74.76v4a.382.382,0,0,1-.19,0H36.67a.307.307,0,0,1,0-.18V4.27a18.258,18.258,0,0,1-1.84,1.11,1.951,1.951,0,0,1-.44.19c-.1,0-.23-.16-.37-.47a3.651,3.651,0,0,0-.72-1A13.724,13.724,0,0,0,36,2.57,10.359,10.359,0,0,0,37.75.94,4.594,4.594,0,0,0,38.32.14ZM38.83,15a16.686,16.686,0,0,1,1.71.71q.27.07.27.27c0,.11-.09.19-.27.23a4.832,4.832,0,0,0-.8.37A15.668,15.668,0,0,1,35.34,18a2.286,2.286,0,0,1-.42.06c-.15,0-.3-.13-.45-.41a4.014,4.014,0,0,0-.89-1.16,16.766,16.766,0,0,0,4.34-1A5.02,5.02,0,0,0,38.83,15ZM46.37.09a12.374,12.374,0,0,1,1.86,1c.09.05.13.11.13.16a.279.279,0,0,1-.13.19l-.9.81c.67-.06,1.33-.14,2-.23L49.86,2h.3c.07,0,.11.07.12.22l.14,1.24h0c0,.08-.08.13-.22.14h-.38c-.62,0-1.37.13-2.22.22l-1.94.2a6.014,6.014,0,0,0,.58.56,3.54,3.54,0,0,0,2.39,1.18.822.822,0,0,0,.7-.42,3.284,3.284,0,0,0,.36-1.15,4.568,4.568,0,0,0,1,.6q.54.19.54.39a1.386,1.386,0,0,1-.1.42A2.24,2.24,0,0,1,48.9,7.47h-.54v7.24a.307.307,0,0,1,0,.18.324.324,0,0,1-.19,0L45.5,15H36.48a.291.291,0,0,1-.18,0,.366.366,0,0,1,0-.18V7.2a.485.485,0,0,1,.17,0H47a5.716,5.716,0,0,1-2.1-1.27A10.017,10.017,0,0,1,43.51,4.3l-1.09.09-2.55.3h-.1c-.08,0-.13-.06-.14-.19L39.5,3.25a.339.339,0,0,1,0-.09c0-.07.06-.11.2-.12q2-.17,2.58-.24h.39a9.472,9.472,0,0,1-.5-1.31c-.19-.57-.33-1-.44-1.24h1.83c.36,0,.54.09.54.22a.75.75,0,0,1-.06.32.405.405,0,0,0,0,.11,2.051,2.051,0,0,0,.15.66,7.175,7.175,0,0,0,.45,1l2.53-.27a.335.335,0,0,1-.11-.08,8,8,0,0,0-1.83-1.14A.311.311,0,0,0,45.08,1a.928.928,0,0,1,.14-.21l.7-.62c.1-.09.17-.14.23-.14A.606.606,0,0,1,46.37.09Zm.11,8.56H38.17v.84h8.31ZM38.17,11.5h8.31v-.81H38.17Zm8.31,2v-.8H38.17v.83Zm-.77,1.6A16.064,16.064,0,0,0,51,16.39a5.243,5.243,0,0,0-.93,1.24c-.14.26-.29.38-.47.38a2.174,2.174,0,0,1-.44-.05,15.8,15.8,0,0,1-3-.79,12.2,12.2,0,0,1-2.34-1.11q-.12-.09-.12-.15c0-.05.07-.1.21-.17l1.31-.59a.568.568,0,0,1,.26-.1.524.524,0,0,1,.23.08Z" transform="translate(0 0.919)"/><path class="cls-1" d="M54.48,7.91a17.187,17.187,0,0,0,3.68-6.28A5.2,5.2,0,0,0,58.47.26c.94.26,1.56.46,1.88.59s.29.2.29.3a.481.481,0,0,1-.19.35,2.124,2.124,0,0,0-.4.77,26.5,26.5,0,0,1-1.13,2.6v13c0,.11,0,.17-.05.19a.343.343,0,0,1-.18,0H56.91c-.02,0,0-.08,0-.18V8.14c-.55.73-1,1.27-1.26,1.61-.13.17-.24.26-.33.26s-.15-.12-.23-.35A5.235,5.235,0,0,0,54.48,7.91ZM64.93.39A17.907,17.907,0,0,1,67,.52c.21,0,.31.09.31.2a.974.974,0,0,1-.09.41,8.7,8.7,0,0,0-.14,2.13V4.44h4.66c.12,0,.19.07.19.22v8.16c0,.14-.07.21-.19.21H70.11c-.12,0-.19-.07-.19-.21v-.76H67.08v6.06a.382.382,0,0,1-.19,0H65.07a.327.327,0,0,1,0-.17V12.06H62.41v.85c0,.15-.06.22-.19.22h-1.6a.284.284,0,0,1-.2-.05.442.442,0,0,1,0-.17V4.43a.382.382,0,0,1,.19,0h4.45V3.31A23.932,23.932,0,0,0,64.93.39Zm-2.52,5.9v3.92h2.67V6.29Zm7.51,0H67.08v3.92h2.84Z" transform="translate(0 0.919)"/><path class="cls-1" d="M94.17,7.25a5.388,5.388,0,0,0-.83,1.54c-.13.33-.25.5-.35.5a2.652,2.652,0,0,1-.45-.17A18.238,18.238,0,0,1,85,2.77a18.728,18.728,0,0,1-7.3,6.37,1.339,1.339,0,0,1-.46.22c-.09,0-.2-.16-.35-.48A4.7,4.7,0,0,0,76,7.51a15.567,15.567,0,0,0,7.3-6A5.623,5.623,0,0,0,84,0a14.047,14.047,0,0,1,2,.41.3.3,0,0,1,.33.29c0,.15-.07.18-.2.29L86,1.15a16.348,16.348,0,0,0,3.69,3.73A20.335,20.335,0,0,0,94.17,7.25ZM76.68,16.37a6.276,6.276,0,0,0,3.66-2.49,8.776,8.776,0,0,0,.74-4.21,13.469,13.469,0,0,0-.15-2.27,13.889,13.889,0,0,1,2.15.11c.22,0,.33.09.33.22a1.577,1.577,0,0,1-.09.43,6.176,6.176,0,0,0-.12,1.57,15.947,15.947,0,0,1-.3,3.44,6.522,6.522,0,0,1-.78,2,7.407,7.407,0,0,1-3.46,2.74,1.726,1.726,0,0,1-.46.2c-.09,0-.22-.14-.38-.43A4.721,4.721,0,0,0,76.68,16.37Zm10-9a18.34,18.34,0,0,1,2.12.16c.19,0,.29.08.29.2a3.13,3.13,0,0,1-.09.49,12.6,12.6,0,0,0-.1,2.1v7.4c0,.1,0,.15-.05.17a.544.544,0,0,1-.18,0H86.94c-.14,0-.21-.06-.21-.19V10.34a22.31,22.31,0,0,0-.09-2.97Z" transform="translate(0 0.919)"/><path class="cls-1" d="M136,13.73h-2.61a.349.349,0,0,1,0-.17V12c0-.12.08-.19.22-.19h2.89V7.22c0-.02.08,0,.19,0h5.13V4.65h-4a17.537,17.537,0,0,1-2.27,2.77c-.18.21-.32.31-.41.31s-.2-.12-.39-.36a4.132,4.132,0,0,0-1.07-1.06,14.082,14.082,0,0,0,3.58-4.68,6.071,6.071,0,0,0,.5-1.42c.82.16,1.44.3,1.87.42.23.09.35.2.35.34s-.08.21-.24.37a1.994,1.994,0,0,0-.49.7l-.39.83H149.7a.29.29,0,0,1,0,.17V4.66a.29.29,0,0,1-.17,0h-5.66V7.23h4.78c.13,0,.19.07.19.21V8.86c0,.14-.06.21-.19.21L146,9h-2.1v2.83h6.52c.14,0,.21.07.21.19v1.55a.29.29,0,0,1,0,.17.307.307,0,0,1-.18,0H143.9v4.29a.29.29,0,0,1-.17,0H141.8a.544.544,0,0,1,0-.18v-4.1Zm2.52-1.87h3.27V9h-3.27Z" transform="translate(0 0.919)"/><path class="cls-1" d="M164.63,4.64A23.369,23.369,0,0,1,162.21,13a3.76,3.76,0,0,1-3.3,2.23,3,3,0,0,1-2.48-1.47,6.169,6.169,0,0,1-1-3.51,6.931,6.931,0,0,1,2.19-5A8.5,8.5,0,0,1,164,2.72a7.427,7.427,0,0,1,5.68,2.16,6.42,6.42,0,0,1,1.7,4.56q0,5.26-6,7.06a1.16,1.16,0,0,1-.28.05c-.19,0-.37-.13-.55-.4a4.08,4.08,0,0,0-1.35-1.22,9.5,9.5,0,0,0,4.35-2A5,5,0,0,0,169,9.14a4.432,4.432,0,0,0-1.35-3.28,4.08,4.08,0,0,0-3-1.22Zm-2.25.11a6,6,0,0,0-3.31,1.76,5.34,5.34,0,0,0-1.51,3.59,4.2,4.2,0,0,0,.48,2.15c.25.42.53.62.83.62.53,0,1-.39,1.46-1.18a17.164,17.164,0,0,0,1.3-3.33A24.408,24.408,0,0,0,162.38,4.75Z" transform="translate(0 0.919)"/><path class="cls-1" d="M179.2,12.84h-2.5a.307.307,0,0,1-.18,0,.349.349,0,0,1,0-.17V11.4a.377.377,0,0,1,0-.2.366.366,0,0,1,.18,0h6.7a8.368,8.368,0,0,0,.15-1.18h-4.69a.366.366,0,0,1,0-.18V8.62a.324.324,0,0,1,0-.19.366.366,0,0,1,.18,0h4.55V7.29h-4.52a.366.366,0,0,1,0-.18V5.69c0-.03.07,0,.17,0h4.32a12.732,12.732,0,0,0-.12-1.44,11.316,11.316,0,0,1,2,.12c.23,0,.35.12.35.25a1.154,1.154,0,0,1-.12.41,1.869,1.869,0,0,0-.09.66h4.73c.02,0,0,.09,0,.19V7.1a.276.276,0,0,1,0,.2.36.36,0,0,1-.19,0h-4.53V8.44h4.91a.366.366,0,0,1,0,.18V9.85c0,.11,0,.17-.05.18a.36.36,0,0,1-.19,0h-4.74a6.982,6.982,0,0,1-.12,1.18h7.39a.284.284,0,0,1,.2.05.307.307,0,0,1,0,.18v1.27a.274.274,0,0,1,0,.17h-6.75c1.4,1.68,3.85,2.72,7.33,3.12a4.265,4.265,0,0,0-.73,1.46c-.1.35-.23.52-.39.52a1.932,1.932,0,0,1-.43,0,11,11,0,0,1-7.39-4.25,4.948,4.948,0,0,1-.46.68,8,8,0,0,1-2.88,2.27,16.845,16.845,0,0,1-3.74,1.26l-.45.08c-.12,0-.25-.17-.37-.52a3.94,3.94,0,0,0-.74-1.33,14.989,14.989,0,0,0,4.42-1.24,5.563,5.563,0,0,0,2.25-1.72l.18-.29ZM190.09,2.17h2.75a.307.307,0,0,1,0,.18V6.26a.291.291,0,0,1,0,.18.327.327,0,0,1-.17,0h-1.78a.327.327,0,0,1,0-.17V3.87H178.54V6.4a.36.36,0,0,1-.19,0H176.6a.327.327,0,0,1,0-.17V2.35a.294.294,0,0,1,0-.19.366.366,0,0,1,.18,0h6.78v-.1a8.6,8.6,0,0,0-.15-1.84c.74,0,1.44.05,2.09.11.2,0,.31.08.31.18a2.113,2.113,0,0,1-.11.39,4.008,4.008,0,0,0-.1,1.16v.1Z" transform="translate(0 0.919)"/><path class="cls-1" d="M203.1,6.51a.539.539,0,0,1,.17,0s.1,0,.14.16a17.91,17.91,0,0,1,1.2,3.51.405.405,0,0,1,0,.11q0,.15-.24.24l-.93.35-.21.06c-.06,0-.1-.07-.12-.19l-.19-.86-1.07.12v8.01a.29.29,0,0,1-.17,0h-1.65a.307.307,0,0,1,0-.18v-7.7l-1.45.11a1.8,1.8,0,0,0-.73.16.752.752,0,0,1-.29.08c-.12,0-.2-.11-.24-.31-.1-.53-.18-1.08-.23-1.65.41,0,.78.07,1.11.07h.36l1.07-1.45a21.639,21.639,0,0,0-2.5-2.85.3.3,0,0,1-.09-.18.7.7,0,0,1,.13-.25l.72-.95c.09-.11.15-.16.2-.16s.08,0,.15.1l.44.44a17.532,17.532,0,0,0,1.12-2.1,6.7,6.7,0,0,0,.35-1,16.2,16.2,0,0,1,1.61.69c.17.1.25.2.25.31a.291.291,0,0,1-.17.26,1.162,1.162,0,0,0-.37.46,28.436,28.436,0,0,1-1.64,2.65l.85,1c.31-.5.73-1.21,1.26-2.15a10.872,10.872,0,0,0,.54-1.22,15.853,15.853,0,0,1,1.6.71c.16.08.24.18.24.27a.371.371,0,0,1-.21.31,3.088,3.088,0,0,0-.6.76q-1.69,2.67-2.93,4.26l1.92-.11a10.966,10.966,0,0,0-.5-1.19.472.472,0,0,1,0-.13c0-.08.08-.15.23-.22Zm-6,9.53a11.56,11.56,0,0,0,.8-3.57c0-.36.05-.65.05-.89v-.35a12.2,12.2,0,0,1,1.49.31c.22.07.33.15.33.23a.477.477,0,0,1-.09.29,2.286,2.286,0,0,0-.16.72,21.641,21.641,0,0,1-.67,3.57c-.1.31-.19.46-.28.46a1,1,0,0,1-.42-.23,3,3,0,0,0-1.1-.58Zm6.32-4.78h.18c.07,0,.11.06.15.18a17.3,17.3,0,0,1,.81,3.38.94.94,0,0,1,0,.13c0,.08-.08.15-.25.22l-1,.32a.834.834,0,0,1-.22.06c-.06,0-.1-.07-.11-.19a17.044,17.044,0,0,0-.7-3.5.472.472,0,0,1,0-.13c0-.06.07-.11.22-.15ZM207,15.15l1.25.67c.17.07.25.17.25.27a.259.259,0,0,1-.23.26,4.515,4.515,0,0,0-.71.37,13.023,13.023,0,0,1-3.13,1.22A2.227,2.227,0,0,1,204,18c-.14,0-.27-.1-.39-.31a4.074,4.074,0,0,0-.75-1,14.457,14.457,0,0,0,3.35-1A3.836,3.836,0,0,0,207,15.15Zm4.12-10h-1V6h4.6c.13,0,.19.07.19.2v.99c0,.14-.06.21-.19.21H204.21a.36.36,0,0,1-.19,0,.366.366,0,0,1,0-.18V5.96c0-.02.08,0,.18,0h4.05v-.8H205.2c-.13,0-.19-.07-.19-.21V3.89a.24.24,0,0,1,.15,0h3.05v-.8h-3.64a.382.382,0,0,1,0-.19V1.69a.485.485,0,0,1,.17,0h3.46a9.277,9.277,0,0,0-.12-1.46,17.24,17.24,0,0,1,1.9.13c.2,0,.31.12.31.22a.864.864,0,0,1-.11.35,1.812,1.812,0,0,0-.13.76h4.18a.382.382,0,0,1,0,.19v1a.439.439,0,0,1,0,.21h-4.18V3.9h3.31c.1,0,.16,0,.18.05a.36.36,0,0,1,0,.19V5.18a.29.29,0,0,1-.17,0Zm0,3h2.33c.15,0,.22.07.22.19v6.61a.4.4,0,0,1,0,.2.324.324,0,0,1-.19,0h-8.17a.244.244,0,0,1-.16,0,.423.423,0,0,1,0-.2V8.34a.17.17,0,0,1,.147-.19.155.155,0,0,1,.043,0h5.78Zm-4.23,1.24v.78h5V9.36Zm0,2.63h5v-.78h-5Zm5,1.87V13h-5v.82Zm-.33,1.46a13.9,13.9,0,0,0,3.68,1.29,3.426,3.426,0,0,0-.7.88c-.17.33-.32.49-.42.49a1.673,1.673,0,0,1-.45-.12,12.015,12.015,0,0,1-3.38-1.65c-.09-.05-.13-.1-.13-.14s.07-.1.2-.19l.78-.52a.483.483,0,0,1,.22-.11.426.426,0,0,1,.13.04Z" transform="translate(0 0.919)"/><path d="M0,69.77V32.93H13.67c6.54,0,10.92,2.56,10.92,9.6,0,3.31-1.09,6-4.05,7.49v.12c5.29.67,7.51,4.23,7.51,9.37,0,7.71-6.57,10.26-13.32,10.26Zm9.54-7.32h1.25c2.82,0,7.64.13,7.64-3.91,0-4.46-4.76-4-7.88-4h-1Zm0-15h1.09c2.55,0,5.16-.43,5.16-3.59,0-3.36-2.95-3.55-5.53-3.55H9.54Z" transform="translate(0 0.919)"/><path d="M40.66,61.68H52.12v8.09h-21V32.93h9.59Z" transform="translate(0 0.919)"/><path d="M85.22,32.93V53.64c0,4.72-.19,9.43-3.85,13-3.09,3-7.91,4.12-12.2,4.12S60,69.66,57,66.62c-3.65-3.55-3.86-8.26-3.86-13V32.93h9.57V52.36c0,4.74.35,10,6.51,10s6.49-5.24,6.49-10V32.93Z" transform="translate(0 0.919)"/><path d="M98.9,41v6.2h10.77v8.11H98.9v6.37h11.36v8.09h-21V32.93h21V41Z" transform="translate(0 0.919)"/><path d="M130.81,69.77V32.93h13.68c6.55,0,10.94,2.56,10.94,9.6,0,3.31-1.09,6-4.08,7.49v.12c5.29.67,7.53,4.23,7.53,9.37,0,7.71-6.58,10.26-13.33,10.26Zm9.59-7.32h1.19c2.84,0,7.63.13,7.63-3.91,0-4.46-4.73-4-7.84-4h-1Zm0-15h1c2.54,0,5.18-.43,5.18-3.59,0-3.36-3-3.55-5.53-3.55h-.7Z" transform="translate(0 0.919)"/><path d="M201.74,50.67c0,11.91-8.53,20.33-20.36,20.33S161,62.58,161,50.67c0-11.16,9.75-18.94,20.34-18.94S201.74,39.51,201.74,50.67Zm-30.76,0c0,6.35,4.7,11,10.4,11s10.39-4.65,10.39-11c0-5.05-4.67-9.71-10.39-9.71S171,45.66,171,50.71Z" transform="translate(0 0.919)"/><path d="M202.39,32.93h11.76l5.61,9.54,5.62-9.54h11.76L225.38,50.07,239,69.77H227.48l-7.72-12-8.45,12H199.74l14.41-19.7Z" transform="translate(0 0.919)"/><text class="cls-2" transform="translate(100.81 17.598)">36</text></svg>