<svg id="レイヤー_1" data-name="レイヤー 1" xmlns="http://www.w3.org/2000/svg" viewBox="0 0 310.77 249.08"><defs><style>.cls-1,.cls-11,.cls-4{fill:#fff;}.cls-2{fill:#ff64a5;}.cls-3,.cls-6,.cls-7{fill:#231815;}.cls-10,.cls-11,.cls-12,.cls-13,.cls-4,.cls-6,.cls-7,.cls-8{stroke:#231815;}.cls-10,.cls-11,.cls-12,.cls-4,.cls-8{stroke-linecap:round;}.cls-10,.cls-11,.cls-12,.cls-13,.cls-4,.cls-8{stroke-linejoin:round;}.cls-4,.cls-8{stroke-width:1.54px;}.cls-5{fill:#ecff00;}.cls-6,.cls-7{stroke-miterlimit:10;}.cls-6{stroke-width:1.15px;}.cls-7{stroke-width:0.77px;}.cls-10,.cls-12,.cls-8{fill:none;}.cls-9{fill:#c8c9ca;}.cls-10,.cls-11{stroke-width:1.79px;}.cls-12{stroke-width:2px;}.cls-13{fill:#86c2ba;stroke-width:1.43px;}.cls-14{fill:#ff96a5;}</style></defs><circle class="cls-1" cx="114.35" cy="114.35" r="114.35" transform="translate(-47.36 114.35) rotate(-45)"/><path class="cls-2" d="M55.92,123.9a12.1,12.1,0,0,0-.29,2.11,18.17,18.17,0,0,1-4.77,11.25,22.21,22.21,0,0,1-5.8,4,30.46,30.46,0,0,1-5.3,1.87,19.16,19.16,0,0,0-3.54-5.45A21.4,21.4,0,0,0,43,135.89c3.44-1.57,5.41-3.49,6.34-6.09a16.71,16.71,0,0,0,.79-4.62,9.2,9.2,0,0,0-.15-1.57Zm-18.77,3.88a19.66,19.66,0,0,0,.25-3.54v-3.49a25.6,25.6,0,0,0-.2-3.63,49.63,49.63,0,0,0,5.26.2H74.94c2.36,0,3.59,0,5.31-.2a21.89,21.89,0,0,0-.2,3.49v3.58a18.91,18.91,0,0,0,.25,3.59H74.55v-5.7H42.8v5.7Zm18.58-26.43a20,20,0,0,0-.25-3.79h6a14.94,14.94,0,0,0-.3,3.79v.59H74.45a41.22,41.22,0,0,0,5.89-.3v5.21a55.55,55.55,0,0,0-5.74-.25H61.18v3.25h11a31.19,31.19,0,0,0,5-.25v5.06a42.81,42.81,0,0,0-5-.19H45.26a43.88,43.88,0,0,0-5,.19V109.6a30.79,30.79,0,0,0,5,.25H55.73V106.6H43.1a46.12,46.12,0,0,0-5.8.25v-5.21a41.72,41.72,0,0,0,6,.3H55.73ZM66,135.64c0,1.28.44,1.48,3.78,1.48s4.52-.2,5-.84.64-2,.89-6.09a16.92,16.92,0,0,0,5.26,1.67c-.4,5-1.13,7.62-2.46,8.84-1.13,1.08-3.44,1.43-9.09,1.43-7.47,0-8.8-.64-8.8-4.23V127.83a29.07,29.07,0,0,0-.19-4.08h5.89a20.83,20.83,0,0,0-.24,3.83Z"/><path class="cls-2" d="M104.61,115.84a36.21,36.21,0,0,1,6-5.11c4.27-3.24,7.37-4.62,10.36-4.62,4.13,0,6.88,2.61,6.88,6.54a35.2,35.2,0,0,1-1.22,7.51c-1.68,7.42-2.07,9.49-2.07,11.06s.74,2.46,2,2.46c1.08,0,2.4-1,3.44-2.51a24.48,24.48,0,0,0,2.85-5.6,24,24,0,0,0,3.29,5.9,22.47,22.47,0,0,1-3.44,4.86,9.5,9.5,0,0,1-7.27,3.54,7.27,7.27,0,0,1-4.23-1.28c-1.77-1.37-2.56-3.19-2.56-6.19,0-2.85.2-4.18,2-12.33a30.93,30.93,0,0,0,1-6.19c0-1.18-.69-1.82-2-1.82-1.58,0-3.69.93-6.1,2.65a56.11,56.11,0,0,0-8.94,8c-.1,2.21-.1,3.59-.1,5,0,.4,0,.4,0,5.85,0,6.14,0,6.29.25,8.11H98.52c.29-2,.29-2,.34-7.81,0-5.26,0-5.26.1-6.59l-.1.05a37.09,37.09,0,0,1-3.49,4.13,29.36,29.36,0,0,0-2.26,2.8l-2.85-5.85a22.24,22.24,0,0,0,3.2-2.8C98.08,121,98.08,121,99,120c0-2.36,0-2.9.15-4.82,0-1.13,0-1.23,0-2.55a61.21,61.21,0,0,0-7.52.69l-.3-5.56a15.08,15.08,0,0,0,2,.1c.93,0,3.63-.15,5.94-.29.05-.74.05-.74.1-1.87,0-1.38,0-2.9,0-4a16,16,0,0,0-.15-2.75l6.24.1a7.24,7.24,0,0,0-.19,1.81c0,.25-.05.89-.15,1.87s-.1,1.38-.2,4.38c0,0,.25-.1.59-.2l1.82,2.06a8.17,8.17,0,0,0-1.42,1.48,4,4,0,0,0-.69.88c-.2.3-.3.39-.59.79l-.1,2.9s0,.29-.1.88Z"/><path class="cls-2" d="M161.8,118.69c4.47-1.77,6.63-2.26,10.32-2.26,8.4,0,13.81,4.32,13.81,11.06,0,4.66-2.31,8.4-6.69,10.86a24.39,24.39,0,0,1-11.89,2.8c-4.13,0-7.56-.79-9.53-2.26a7,7,0,0,1-2.95-5.65c0-4.08,3.54-7,8.45-7a10.55,10.55,0,0,1,8.5,4,13,13,0,0,1,2.26,4.42c4.08-1.52,5.85-3.64,5.85-7.12,0-3.84-3.78-6.34-9.73-6.34A30.28,30.28,0,0,0,150,129.45l-3.34-5.3a45,45,0,0,0,6.92-4.62,165.76,165.76,0,0,0,14.7-12.78l.88-.88-.05-.05c-1.86.24-5,.44-13.9.83a16.28,16.28,0,0,0-2.36.25l-.25-5.9a43.73,43.73,0,0,0,5.8.3c4.18,0,10.17-.25,14.94-.59a7.26,7.26,0,0,0,3-.64l3,4.32a10.47,10.47,0,0,0-2.55,2c-2.46,2.26-6.05,5.45-7.72,6.88-.88.73-4.42,3.39-5.4,4a19.14,19.14,0,0,1-2,1.27Zm1.47,12.24c-1.77,0-2.9.88-2.9,2.26,0,2,2.22,3.09,5.85,3.09a13.78,13.78,0,0,0,2.56-.19C167.89,132.69,166,130.93,163.27,130.93Z"/><path class="cls-3" d="M282.12,191.85s4,3.88,5.58,7.83,2.21,7.5,1.3,13.62c-.6,4,.91,10.21.91,10.21s-8.42-.84-12.65-4.14-5.66-10.7-5.21-15.67S282.12,191.85,282.12,191.85Z"/><path class="cls-4" d="M243.1,229.45H291c2.64-5.82-3.3-11.26-3.3-11.26-7.91-2.4-10.23-5-10.23-5-3.25-5.63-1.62-14.13-1.62-14.13H258.68s1.62,8.5-1.62,14.13c0,0-2.32,2.58-10.23,5C246.83,218.19,238.66,223.68,243.1,229.45Z"/><path class="cls-5" d="M247.81,220.92a51.2,51.2,0,0,0,19.47,3.53,73.19,73.19,0,0,0,20.42-2.82l-1,26.68H242.57Z"/><path class="cls-4" d="M287.85,179c-.81-1-2.35-.35-2.39-.33a63.27,63.27,0,0,0-.42-7.38c-.57-3.7-6.23-14.07-9.37-15.92l-14.7-.74a33,33,0,0,0-9,12.48,43.81,43.81,0,0,0-2.65,11.73l-.23-.17s-1.58-.67-2.41.33c-1.81,2.21-1.18,7.62-.1,10.58.86,2.37,2.36,3.52,3.59,3.4a16.33,16.33,0,0,0,1.61,4.22c2.4,4,7.34,9.12,12.23,11.06a6.7,6.7,0,0,0,6.53,0c4.89-1.94,9.83-7.05,12.22-11.06a16,16,0,0,0,1.62-4.22c1.22.12,2.73-1,3.59-3.4C289,186.57,289.66,181.16,287.85,179Z"/><path class="cls-3" d="M293.38,174.26c1.16-13.83-5.73-22.25-9.59-25.3s-9.62-2.12-9.62-2.12A18.64,18.64,0,0,0,262,145.42c-3.4.82-8.85,3.66-11.71,7.25-7.32,9.21-8.11,13.85-7.65,22.06s7.49,15.18,7.49,15.18a85.84,85.84,0,0,1-.44-10.56c3.05-6.8,10.79-11.55,10.79-11.55-4.65,5.29-4.93,9.48-4.93,9.48,6.38-9.47,16.47-15.67,16.47-15.67s.51,6.7,8.61,14.37c0,0-1.75-4.21-3.51-7.53,0,0,4.09.52,8.26,8a46.51,46.51,0,0,1-.48,12.64S292.64,183,293.38,174.26Z"/><path class="cls-6" d="M257,176.05c-2.4-.24-7.34-.5-7.78,3.4a5,5,0,0,0,3.24,5.44,13.5,13.5,0,0,0,9.63,0c3.67-1.62,4.23-4.31,4.15-4.79C265.76,177.41,261,176.44,257,176.05Z"/><path class="cls-6" d="M277.53,176.05c2.4-.24,7.33-.5,7.78,3.4a5,5,0,0,1-3.24,5.44,13.5,13.5,0,0,1-9.63,0c-3.67-1.62-4.23-4.31-4.15-4.79C268.77,177.41,273.51,176.44,277.53,176.05Z"/><path class="cls-7" d="M285.12,177.92a6.15,6.15,0,0,1,1.27.15c.45.2.36,1.47,0,1.76l-1.14.15S284.63,178.21,285.12,177.92Z"/><path class="cls-7" d="M249.38,177.92a6.15,6.15,0,0,0-1.27.15c-.45.2-.36,1.47,0,1.76l1.14.15S249.87,178.21,249.38,177.92Z"/><path class="cls-7" d="M266.48,179.56a2.43,2.43,0,0,0,1.5,0c.59-.3.86,1.1.84,1.28s-.54.55-.54.55a3,3,0,0,0-2,0c-.83.39-.57-.93-.5-1.06S266,179.45,266.48,179.56Z"/><path class="cls-3" d="M268.9,201.74a5.69,5.69,0,0,1-3.22,0c-1.08-.28-.94-1.63,0-1.45a9.17,9.17,0,0,0,3.22,0C269.8,200.11,270,201.4,268.9,201.74Z"/><path class="cls-3" d="M271.57,197.12a16.61,16.61,0,0,1-8.55,0c-2.81-.63-2.34-2.62,0-1.82a12.78,12.78,0,0,0,8.55,0C273.77,194.48,274.35,196.53,271.57,197.12Z"/><path class="cls-3" d="M268.88,192.38a3.44,3.44,0,0,1-3.21,0c-1-.45-.95-1.63,0-1.45a9.11,9.11,0,0,0,3.21,0C269.78,190.75,269.89,191.89,268.88,192.38Z"/><path class="cls-1" d="M257.32,176.49c-2.28-.23-6.51-.28-6.94,3.06a4.29,4.29,0,0,0,3,5c1.1.32,4.81,1.54,8.28-.13s3.35-3.91,3.27-4.37C264.44,177.54,260,176.76,257.32,176.49Z"/><path class="cls-1" d="M277.2,176.49c2.29-.23,6.52-.28,6.95,3.06a4.29,4.29,0,0,1-3,5c-1.1.32-4.81,1.54-8.28-.13s-3.35-3.91-3.27-4.37C270.09,177.54,274.54,176.76,277.2,176.49Z"/><path class="cls-3" d="M260.08,180a1.41,1.41,0,1,1-1.4-1.62A1.53,1.53,0,0,1,260.08,180Z"/><path class="cls-4" d="M224.53,248.31s2.78-12.74,4.82-18c2.68-7,5.59-8.1,8.27-9.21,4.45-1.84,11.32-4.28,11.32-4.28s2.21,26.89,2.38,31.53"/><path class="cls-3" d="M263,174.66a13.76,13.76,0,0,0-4.87-1.53,11,11,0,0,0-6.08,1.41c-.75.48-1.17,1.5.18,1a11.47,11.47,0,0,1,5.59-.72,27.82,27.82,0,0,1,4.85,1.08C263.05,176.16,263.52,175,263,174.66Z"/><path class="cls-3" d="M274.45,180a1.41,1.41,0,1,0,1.4-1.62A1.53,1.53,0,0,0,274.45,180Z"/><path class="cls-4" d="M310,248.31s-2.79-12.74-4.82-18c-2.68-7-5.6-8.1-8.27-9.21-4.45-1.84-11.32-4.28-11.32-4.28s-2.31,26.46-2.87,31.53"/><path class="cls-3" d="M271.55,174.66a13.87,13.87,0,0,1,4.88-1.53,11,11,0,0,1,6.08,1.41c.75.48,1.17,1.5-.19,1a11.43,11.43,0,0,0-5.58-.72,27.59,27.59,0,0,0-4.85,1.08C271.48,176.16,271,175,271.55,174.66Z"/><path class="cls-8" d="M249.36,221.53a56.76,56.76,0,0,0,17.92,2.92,73.63,73.63,0,0,0,17.65-2.08"/><path class="cls-9" d="M223.55,247.54c-1.33-6.67-2.18-13.54-6-16.71a26,26,0,0,0-5.46-3.35l-17,15.55-16.93-15.55a26,26,0,0,0-5.46,3.35c-3.86,3.17-4.71,10-6,16.71Z"/><path class="cls-10" d="M166.66,247.54c1.33-6.67,2.18-13.54,6-16.71a26,26,0,0,1,5.46-3.35L195.09,243l17-15.55a26,26,0,0,1,5.46,3.35c3.86,3.17,4.71,10,6,16.71"/><path class="cls-3" d="M176.47,182.53s-4.39-1.36-6.61,2.59c-2.36,4.22-5,18.55-2.82,23.82a57.73,57.73,0,0,0,2.73,6.08c1.46,2.69-.19,5.61-.19,5.61a4.89,4.89,0,0,0,3.41-3.75,8.88,8.88,0,0,1,.58,2.06s3.34-2.16,2.37-10.24-1.19-14.21-1.19-14.21Z"/><path class="cls-3" d="M213.77,182.53s4.39-1.36,6.61,2.59c2.36,4.22,4.51,19,3,24.44-.75,2.62-1.89,4.05-2.77,5.94-1,2.17.1,5.13.1,5.13a5.47,5.47,0,0,1-3.36-5,7.17,7.17,0,0,0,0,3.6S213,216.64,214,208.56s1.51-14.07,1.51-14.07Z"/><path class="cls-3" d="M195.14,170.85c-3,0-14.15,0-19,11.05-3.17,7.14-4,14.65,1.19,25.3L179,196.45H213l.38,9.76s7-12.47.35-25.09C208.8,171.67,198.08,170.85,195.14,170.85Z"/><path class="cls-11" d="M190.55,212.49h9.11c1.94,0,1.63,2.21,1.63,2.21-.31.27-.4,6.31,1.09,7.38a75.63,75.63,0,0,0,9.41,6.52C215.89,231,201.5,238,201.5,238L195.09,243l-4-5.05s-12.39-10.41-10.3-11.57c5.31-2.94,7.44-4.33,7.44-4.33,1.49-1.07,1.4-7.11,1.08-7.38C189.32,214.7,189.41,212.49,190.55,212.49Z"/><path class="cls-11" d="M212.89,201.15s.53-1.44,1.41-1.44c2.49,0,.74,7,0,9-1.23,3.2-3.14,2.06-3.14,2.06a13.17,13.17,0,0,1-3.59,4.13,28.14,28.14,0,0,1-9.46,4.77,10,10,0,0,1-6,0c-3.16-1-7-2.53-9.45-4.77a18,18,0,0,1-3.59-4.13s-1.92,1.14-3.14-2.06c-.75-1.94-2.37-8.21,0-9,2-.66,2.33.9,2.33.9s1.71-12.5,4.72-16.45,12.64-5.11,12.64-5.11,10.14,2.15,12.77,5.47S212.89,201.15,212.89,201.15Z"/><path class="cls-3" d="M189,205a1.13,1.13,0,0,1-1.84,0,1.62,1.62,0,0,1,0-2,1.17,1.17,0,0,1,1.84,0A1.62,1.62,0,0,1,189,205Z"/><path class="cls-3" d="M196.3,208.16a2.09,2.09,0,0,1-2.45,0c-.73-.57-.72-1.52,0-1.35a6,6,0,0,0,2.45,0C197,206.64,197.26,207.46,196.3,208.16Z"/><path class="cls-3" d="M198.74,213a11.18,11.18,0,0,1-7.14,0c-1.48-.53-1-1.6.31-1.22a11.23,11.23,0,0,0,6.42,0C199.75,211.34,200,212.5,198.74,213Z"/><path class="cls-3" d="M201.26,205a1.13,1.13,0,0,0,1.84,0,1.62,1.62,0,0,0,0-2,1.17,1.17,0,0,0-1.84,0A1.64,1.64,0,0,0,201.26,205Z"/><path class="cls-3" d="M200.61,197.46a6.18,6.18,0,0,1,4.17,0c.92.24.8,1.39,0,1.23a7.23,7.23,0,0,0-3.92-.09C199.87,199,199.71,197.75,200.61,197.46Z"/><path class="cls-10" d="M213.42,197.11c-3.77-4.43-4.49-11.24-4.49-11.24"/><path class="cls-3" d="M189.19,197.46a6.18,6.18,0,0,0-4.17,0c-.92.24-.8,1.39,0,1.23a7.22,7.22,0,0,1,3.92-.09C189.92,199,190.09,197.75,189.19,197.46Z"/><path class="cls-3" d="M179.49,198.52s5.26.47,11.61.82l1.6-7.85v7.85s1.56.11,4.86,0v-8.4l1.57,8.4s8.19-.31,12.45-.82a52.34,52.34,0,0,1-.4,9.5s3.63-3.83,3.92-10.91-2.84-22-19.78-22-18.93,16-19.19,20.3a21,21,0,0,0,3.06,12.49S179,200.71,179.49,198.52Z"/><path class="cls-12" d="M199.75,243.9a9.19,9.19,0,0,1,.78,3.64"/><path class="cls-3" d="M185.65,223.31l-13,5.94s3.44,8,23.61,15c0,0-6.89-10.76-8.21-13.36A41.12,41.12,0,0,1,185.65,223.31Z"/><path class="cls-1" d="M194.92,243c-5-1.93-10.49-4.41-13.1-6.22a34.31,34.31,0,0,1-8.2-7.24l1-.44c2.11,2.61,3.74,4.12,7.94,7a82.27,82.27,0,0,0,11.5,5.64Z"/><path class="cls-10" d="M185.65,223.31l-13,5.94s3.44,8,23.61,15c0,0-6.89-10.76-8.21-13.36A41.12,41.12,0,0,1,185.65,223.31Z"/><path class="cls-3" d="M204.58,223.31l13,5.94s-2.15,7.32-21.62,14.31l-.87-1.11s5.77-8.93,7.09-11.53A41.12,41.12,0,0,0,204.58,223.31Z"/><path class="cls-1" d="M195.31,243c5-1.93,10.49-4.41,13.11-6.22a34.71,34.71,0,0,0,8.2-7.24l-1-.44c-2.12,2.61-3.74,4.12-7.95,7a81.19,81.19,0,0,1-11.5,5.64Z"/><path class="cls-10" d="M196,243.56c18.41-6.88,21.62-14.31,21.62-14.31l-13-5.94a41.12,41.12,0,0,1-2.4,7.61c-1,1.88-4.8,8-6.87,11.27Z"/><path class="cls-11" d="M187.54,221.09a55,55,0,0,0,7.61,6.16l-5.82,5.23a26.11,26.11,0,0,1-3.94-8.67Z"/><path class="cls-11" d="M202.7,221.09a55,55,0,0,1-7.61,6.16l5.82,5.23a26.11,26.11,0,0,0,3.94-8.67Z"/><path class="cls-13" d="M193.73,230.15a31,31,0,0,1,.3,4.63c-.11,1.51-2.57,5.6-2.57,5.6l-7-4.63s2.15-3.23,4.07-4.2A14.69,14.69,0,0,1,193.73,230.15Z"/><path class="cls-13" d="M196.26,230.89a33.51,33.51,0,0,0-.07,3.88,38,38,0,0,0,1.73,5.85l7.16-4.89a26,26,0,0,0-4.88-4.09C197.71,230.38,196.26,230.89,196.26,230.89Z"/><path class="cls-13" d="M194.6,228.27a12.72,12.72,0,0,0-8.32-1l1.08,6.85a21.73,21.73,0,0,0,7.24-4.22Z"/><path class="cls-13" d="M195.45,228.27s4.26-2.18,8.45-.26L202,234.35s-4.34-1.06-6.51-4.48Z"/><rect class="cls-13" x="193.73" y="228.25" width="2.72" height="3.13"/><path d="M71,72.5a16.31,16.31,0,0,0,2.15.21,1.35,1.35,0,0,0,1.09-.37q.66-.84.95-5.78H72.87l-.16.9a.3.3,0,0,1-.32.24c-.12,0-.46,0-1-.09s-1.06-.21-1.06-.35a.66.66,0,0,1,0-.17,44.32,44.32,0,0,0,.88-5.61,12,12,0,0,0,.08-1.28c0-.12,0-.27,0-.44a.28.28,0,0,1,.32-.32l1.6.05h2.14V56.42H73l-2.09,0a.42.42,0,0,1-.25,0,.45.45,0,0,1,0-.21V54.45a.44.44,0,0,1,0-.25.56.56,0,0,1,.24,0l2.09,0h2.68l1.68,0c.13,0,.22,0,.25.06a.53.53,0,0,1,0,.23l0,2.18v2.5l0,2.18q0,.21-.06.24s-.1,0-.22,0l-1.68-.05H73.52c-.07.84-.19,1.79-.33,2.85h2.6l1.56-.05c.19,0,.29.08.29.24v.08c0,.24-.06.81-.1,1.7a25.14,25.14,0,0,1-1,7.15,2.29,2.29,0,0,1-1.14,1.26,4.52,4.52,0,0,1-2,.34l-1.17,0c-.27,0-.43-.08-.48-.16a2.14,2.14,0,0,1-.17-.65A6.61,6.61,0,0,0,71,72.5Zm17-2.39a.29.29,0,0,1-.06-.15c0-.08.09-.15.28-.23l1.24-.53a.46.46,0,0,1,.22-.07c.07,0,.14.07.22.21a20.9,20.9,0,0,1,2.6,4.57.45.45,0,0,1,0,.17c0,.08-.09.17-.26.24L90.87,75a.79.79,0,0,1-.25.06c-.1,0-.18-.07-.24-.22-.3-.76-.54-1.32-.71-1.69-2.83.53-6,1-9.49,1.44a3.2,3.2,0,0,0-1,.27,1.24,1.24,0,0,1-.42.12q-.31,0-.42-.39c-.14-.48-.31-1.27-.51-2.39.32,0,.64,0,1,0,.5,0,1.12,0,1.84-.07.95-.06,2-.16,3.07-.3v-3H82.27l-3.09,0c-.14,0-.22,0-.24,0a.38.38,0,0,1,0-.23l0-1.93V64.08l0-1.94c0-.13,0-.21,0-.23a.38.38,0,0,1,.23,0l3.09.05h1.42v-2c-1.17.1-2.29.17-3.34.22a2.23,2.23,0,0,0-.89.19.74.74,0,0,1-.39.12q-.24,0-.33-.39c-.15-.75-.25-1.47-.32-2.16.26,0,.59,0,1,0h.94a20.38,20.38,0,0,0,1.51-3.13,7.68,7.68,0,0,0,.46-1.65,16.55,16.55,0,0,1,2.36.44c.25.08.37.2.37.35a.55.55,0,0,1-.25.44,2.3,2.3,0,0,0-.46.69c-.46.95-1,1.88-1.49,2.79,1.22-.05,2.93-.16,5.12-.33a22.41,22.41,0,0,0-1.48-1.73.3.3,0,0,1-.11-.18c0-.06.07-.13.22-.22l1.22-.7a.53.53,0,0,1,.27-.1.31.31,0,0,1,.21.13,32.74,32.74,0,0,1,3.88,4.66.57.57,0,0,1,.09.23c0,.07-.08.16-.24.26l-1.46.88a.73.73,0,0,1-.3.14q-.1,0-.21-.21c-.32-.58-.57-1-.76-1.32-1.16.14-2.26.26-3.3.34v2.26h1.65l3.11-.05a.38.38,0,0,1,.24.05.51.51,0,0,1,0,.22L91,64.08v2.59L91,68.6c0,.13,0,.21,0,.23a.35.35,0,0,1-.23,0l-3.11,0H86v2.69l2.62-.35Zm-6.76-3.3h2.48V63.94H81.21Zm7.46,0V63.94H86v2.87Z"/><path d="M112.27,64.42a26.09,26.09,0,0,0,.51-3.13,5.58,5.58,0,0,0,0-.7,8.34,8.34,0,0,0-.06-1,10.18,10.18,0,0,1,2.81,1,.46.46,0,0,1,.25.42.4.4,0,0,1-.07.24,5.05,5.05,0,0,0-.39.95c-.15.76-.38,1.81-.68,3.13a26.25,26.25,0,0,1,3.79,2.34.31.31,0,0,1,.2.26.72.72,0,0,1,0,.25,16.28,16.28,0,0,1-1,2.09.3.3,0,0,1-.23.17.46.46,0,0,1-.28-.17,20.82,20.82,0,0,0-3.19-2.29,18,18,0,0,1-2.2,3.77A15.55,15.55,0,0,1,109,74.47a1,1,0,0,1-.49.27.76.76,0,0,1-.35-.17,5.55,5.55,0,0,0-2.13-1,16.59,16.59,0,0,0,3.69-3.39,12.51,12.51,0,0,0,1.76-3.2,15.68,15.68,0,0,0-4.81-1.49,19.49,19.49,0,0,1-3,4.87,4.11,4.11,0,0,1-3.1,1.34,2.65,2.65,0,0,1-2.09-.89,3.52,3.52,0,0,1-.81-2.44,4.65,4.65,0,0,1,2.32-4A8.39,8.39,0,0,1,104.83,63q1.22-3,2-5.76l-3.35.39a5.64,5.64,0,0,0-1.11.27,1,1,0,0,1-.43.1.38.38,0,0,1-.38-.27,13.39,13.39,0,0,1-.72-2.65,8.75,8.75,0,0,0,1.68.15H103a28.44,28.44,0,0,0,3.78-.32,3.11,3.11,0,0,0,1.18-.41.51.51,0,0,1,.32-.1.53.53,0,0,1,.34.1,7.46,7.46,0,0,1,1.66,1.34.6.6,0,0,1,.21.41.71.71,0,0,1-.24.42,1.6,1.6,0,0,0-.41.63l-.25.63q-1.82,4.77-2,5.3A21.8,21.8,0,0,1,112.27,64.42Zm-8.3.88a5.08,5.08,0,0,0-3.07,1,2.24,2.24,0,0,0-1,1.77c0,.74.28,1.12.85,1.12a2,2,0,0,0,1.41-.93A15.57,15.57,0,0,0,104,65.3Z"/><circle class="cls-14" cx="143" cy="63.83" r="16.99"/><path class="cls-1" d="M144.76,54.2V70.51h3.45v2.36h-10V70.51h3.64V57.28a13.47,13.47,0,0,1-3.43,1.65l-.49-2.55a13.54,13.54,0,0,0,4.32-2.18Z"/><path d="M300.81,50.72a14.28,14.28,0,0,1-2.14,2.43.59.59,0,0,1-.81,0,.53.53,0,0,1,.07-.76A16.89,16.89,0,0,0,301.15,48a.12.12,0,0,0-.08-.18,9.17,9.17,0,0,1-1.82-.64.59.59,0,0,1-.31-.76.53.53,0,0,1,.7-.3,12.89,12.89,0,0,0,2,.69.24.24,0,0,0,.26-.12,17.32,17.32,0,0,0,.91-2.31.58.58,0,1,1,1.12.33,17.79,17.79,0,0,1-.81,2c0,.07,0,.14.09.1a4.17,4.17,0,0,0,.8-.31.58.58,0,0,1,.78.23.64.64,0,0,1-.27.82,3.85,3.85,0,0,1-1.86.45.24.24,0,0,0-.27.16A25.3,25.3,0,0,1,300.81,50.72Zm6.62,3.71a.61.61,0,0,1-.62.61,5.83,5.83,0,0,1-3.23-.69,5.77,5.77,0,0,1-1.84-1.45.6.6,0,0,1,.09-.8.57.57,0,0,1,.8.11,5.14,5.14,0,0,0,1.5,1.15,4,4,0,0,0,2.64.57A.59.59,0,0,1,307.43,54.43Zm.56-4a.56.56,0,0,1-.78-.21,2.47,2.47,0,0,0-1.24-.83,8.93,8.93,0,0,0-1.6-.32.58.58,0,0,1-.39-.51.59.59,0,0,1,.56-.56,5.24,5.24,0,0,1,1.82.35,3.57,3.57,0,0,1,1.78,1.32A.57.57,0,0,1,308,50.39Zm.29-4.15a2.13,2.13,0,0,1,.39.85c0,.28,0,.56-.36.63a.55.55,0,0,1-.61-.48,2,2,0,0,0-.39-.81c-.16-.2-.27-.48-.07-.66C307.61,45.48,308.07,46,308.28,46.24Zm1.31-.36a2.12,2.12,0,0,1,.38.84.5.5,0,0,1-.36.64.56.56,0,0,1-.58-.48,1.93,1.93,0,0,0-.41-.79c-.16-.22-.26-.5-.07-.68C308.91,45.1,309.4,45.61,309.59,45.88Z"/><path d="M301.52,61.36a1.5,1.5,0,0,1,.21.87,2.91,2.91,0,0,1-.27,1c-.13.37-1.38,3.66-2.12,4.18-.91.58-1.75-.11-2.54-.58-.44-.25.06-1.27.61-.92l.95.5c.23.1.44.1.73-.57.09-.22.65-1.51,1.35-3.06.19-.44.22-.74.14-.88s-.45-.29-1.06-.32c-.2,0-.39,0-.59,0a.28.28,0,0,0-.28.14,10,10,0,0,1-.55.93,22.86,22.86,0,0,1-3,4.11.57.57,0,0,1-.82,0,.54.54,0,0,1,.08-.78,24.1,24.1,0,0,0,3.19-4.37.1.1,0,0,0-.08-.16,5.46,5.46,0,0,1-1.77-.52.61.61,0,0,1-.19-.77.6.6,0,0,1,.79-.17c.16.1.36.27,1.75.43a.28.28,0,0,0,.27-.14c.3-.54.53-1,.64-1.19s.32-.66.27-.77a.55.55,0,0,1,.35-.68.52.52,0,0,1,.65.29,1.45,1.45,0,0,1,0,.92,4.66,4.66,0,0,1-.3.68s-.22.39-.46.84c0,.08,0,.16.08.16h.06a4,4,0,0,1,1,.16A1.75,1.75,0,0,1,301.52,61.36Zm3,1.78c.24.5.85,1.79.42,2.63-.2.32-.5.37-.87.49a.47.47,0,0,1-.29,0,.64.64,0,0,1-.28-.2.6.6,0,0,1-.11-.4.62.62,0,0,1,.38-.48.18.18,0,0,0,.17-.21,6.45,6.45,0,0,0-1-2.25.57.57,0,0,1,.19-.73.52.52,0,0,1,.61,0,2.57,2.57,0,0,1,.28.29A4.73,4.73,0,0,1,304.47,63.14Z"/><path d="M299.07,79c.26-.63.24-1.33-.87-1.63-1.43-.37-2.85.51-4,1.18-.61.48-1.32.8-1.81.36s-.07-1.34.06-1.56,1.57-3.18,1.8-3.79a.58.58,0,1,1,1.08.4c-.17.48-1.13,2.55-1.56,3.42,0,0,0,.08.1.05a7.75,7.75,0,0,1,3.3-1.32c1.62-.11,3.79.75,3,3.26a3.11,3.11,0,0,1-1.7,1.8,7.83,7.83,0,0,1-4.13.28.56.56,0,0,1,.2-1.1,7.35,7.35,0,0,0,2.93-.07A2.22,2.22,0,0,0,299.07,79Zm-2.78-7.88a6.83,6.83,0,0,1,1.89,1.46.58.58,0,0,1,0,.85.62.62,0,0,1-.86,0,6.5,6.5,0,0,0-1.49-1.19.63.63,0,0,1-.3-.77A.56.56,0,0,1,296.29,71.12Z"/><path d="M287.74,46.49a.35.35,0,0,1,.13.63l-1.41,1.08a.33.33,0,0,0-.09.4l.93,1.8a.35.35,0,0,1-.4.51,1.77,1.77,0,0,1-1.14-.91l-.37-.73a.29.29,0,0,0-.37-.13l-.91.45a2.62,2.62,0,0,1-1.72.15.36.36,0,0,1-.07-.63l2.16-1a.24.24,0,0,0,.12-.34l-.81-1.6a.36.36,0,0,1,.41-.51,1.82,1.82,0,0,1,1.14.91l.25.51a.22.22,0,0,0,.34.08l.5-.39A1.57,1.57,0,0,1,287.74,46.49Zm2.76,1a2.31,2.31,0,0,0-.06.52v3.53a.44.44,0,0,1-.57.42.72.72,0,0,1-.55-.71l0-2.63a7.54,7.54,0,0,1,.25-2l.06-.24a.29.29,0,0,0-.19-.32l-6.16-1.6a.56.56,0,0,1-.41-.69.58.58,0,0,1,.69-.41l6.56,1.7a1,1,0,0,1,.72,1.24Zm-5.73-6.61a.41.41,0,0,0-.39.13l-.18.22a1,1,0,0,1-1.05.35.44.44,0,0,1-.23-.69l1.3-1.67a1,1,0,0,1,1.06-.35.42.42,0,0,1,.22.67l-.07.1a.13.13,0,0,0,.08.21l6.56,1.7a.59.59,0,0,1,.42.72.6.6,0,0,1-.72.43Zm6.13,3a.58.58,0,0,1-.69.41l-5.51-1.42a.58.58,0,0,1-.41-.7.57.57,0,0,1,.7-.41l5.5,1.43A.57.57,0,0,1,290.9,43.88Z"/><path d="M280.48,59.7a.26.26,0,0,0-.32.2l-.29,1.1a.26.26,0,0,0,.19.32l1,.27a.54.54,0,1,1-.27,1l-1-.27a.25.25,0,0,0-.32.19l-.25,1a.54.54,0,0,1-.66.37.54.54,0,0,1-.39-.65l.25-1a.25.25,0,0,0-.19-.32l-1-.27a.53.53,0,0,1-.38-.66.53.53,0,0,1,.65-.38l1,.26a.27.27,0,0,0,.33-.19l.28-1.1a.27.27,0,0,0-.18-.33l-.53-.14a1,1,0,0,1-.72-1.23l.63-2.45a1,1,0,0,1,1.23-.72l.53.13a.27.27,0,0,0,.32-.19l.14-.56a.27.27,0,0,0-.18-.33l-.9-.24a.51.51,0,0,1-.37-.62.52.52,0,0,1,.63-.38l1,.25a.2.2,0,0,0,.22-.13l0-.16a.54.54,0,1,1,1.05.27l0,.16a.17.17,0,0,0,.13.22l1,.25a.52.52,0,1,1-.26,1l-.88-.23a.27.27,0,0,0-.33.2l-.15.57a.28.28,0,0,0,.19.32l.53.13a1,1,0,0,1,.71,1.23l-.63,2.45a1,1,0,0,1-1.22.72ZM278.62,58a.26.26,0,0,0,.18.33l.35.09a.27.27,0,0,0,.33-.2l.09-.35a.27.27,0,0,0-.19-.33l-.35-.09a.25.25,0,0,0-.32.2Zm1.4-1.89a.27.27,0,0,0-.18-.33l-.35-.09a.27.27,0,0,0-.33.2l-.05.22a.26.26,0,0,0,.19.32l.35.09a.29.29,0,0,0,.32-.19Zm.5,2.38a.28.28,0,0,0,.19.34l.33.08a.28.28,0,0,0,.34-.19l.09-.35a.28.28,0,0,0-.2-.34l-.33-.09a.27.27,0,0,0-.33.2Zm1.41-1.88a.28.28,0,0,0-.2-.34l-.34-.09a.27.27,0,0,0-.32.21l-.06.21a.28.28,0,0,0,.19.32l.34.09a.26.26,0,0,0,.33-.19Zm3.62,7.48a.28.28,0,0,0,.18.34l2,.5a.56.56,0,1,1-.28,1.09l-5.5-1.43a.56.56,0,1,1,.28-1.08l1.95.5a.26.26,0,0,0,.32-.2l.38-1.46a.27.27,0,0,0-.19-.34l-1.34-.35a.56.56,0,0,1-.41-.69.59.59,0,0,1,.7-.41l1.34.35a.25.25,0,0,0,.32-.19l.19-.74a.56.56,0,0,1,1.09.29l-.19.73a.27.27,0,0,0,.19.33l1.34.34a.58.58,0,0,1,.41.7.56.56,0,0,1-.7.4l-1.34-.34a.26.26,0,0,0-.32.2Zm1.23-7.34a.19.19,0,0,0,.3.06l1-1a.14.14,0,0,0-.06-.24l-3.09-.8a.56.56,0,0,1-.39-.66.55.55,0,0,1,.67-.4l4.24,1.1a.57.57,0,0,1,.25,1l-2.08,2a.31.31,0,0,0,0,.41l1,1.29a.31.31,0,0,1-.33.49,2.87,2.87,0,0,1-1.46-.94l-.14-.18a.34.34,0,0,0-.41-.11l-.2.09a2.47,2.47,0,0,1-1.65.13.32.32,0,0,1-.06-.57l1.37-.62a.25.25,0,0,0,.13-.35l-.59-1.3a.34.34,0,0,1,.39-.47,1.45,1.45,0,0,1,1,.82Z"/><path d="M278,67.52a.6.6,0,0,1,0,.84,10.51,10.51,0,0,0-1.24,2.74,14,14,0,0,0-.52,4.28.56.56,0,0,1-.51.6.61.61,0,0,1-.62-.53,15.47,15.47,0,0,1,.6-4.66,13,13,0,0,1,.71-1.84C276.94,67.9,277.29,67,278,67.52Zm.69,6.25a5.76,5.76,0,0,0,2.81,1.77,5.43,5.43,0,0,0,2.05.22c.35,0,.68,0,.73.45a.58.58,0,0,1-.61.61,7.47,7.47,0,0,1-2.45-.2,5.61,5.61,0,0,1-3.41-2.12.72.72,0,0,1,.08-1C278.06,73.38,278.33,73.42,278.64,73.77Zm1.4-4a.53.53,0,0,1,.35-1c.42.1,1.21.38,3.72,1a.49.49,0,0,1,.43.63.56.56,0,0,1-.59.43c-.36,0-1.27-.26-2.15-.49C281.36,70.15,280.49,69.91,280,69.74Z"/><path d="M271.34,90.52a.38.38,0,0,1-.16-.66,1.34,1.34,0,0,1,1.18-.28l.26.07a.37.37,0,0,1,.18.63,1.24,1.24,0,0,1-1.18.31Zm8.66-5.8a1,1,0,0,1,.69,1.22l-1,4a1,1,0,0,1-1.19.7l-6-1.55a1,1,0,0,1-.7-1.19l1-4a1,1,0,0,1,1.2-.74Zm-7.11-4.78a1,1,0,0,1,1.2-.72l7.77,2a1,1,0,0,1,.71,1.21l-.32,1.21a1,1,0,0,1-1.19.69l-7.77-2a1,1,0,0,1-.71-1.19Zm-.09,8a.25.25,0,0,0,.19.32l5.45,1.41a.26.26,0,0,0,.32-.19l0-.12a.27.27,0,0,0-.19-.33l-5.45-1.41a.27.27,0,0,0-.32.2Zm6.44-.31a.26.26,0,0,0-.19-.32l-5.45-1.41a.25.25,0,0,0-.32.19l0,.12a.27.27,0,0,0,.18.33l5.45,1.42a.28.28,0,0,0,.33-.21Zm-5.18-7.39a.24.24,0,0,0-.31.17l-.2.76a.28.28,0,0,0,.18.34l1.48.38c.15,0,.26-.06.3-.21l.2-.76a.22.22,0,0,0-.17-.29ZM279.67,86a.27.27,0,0,0-.19-.34L274,84.2a.27.27,0,0,0-.32.2l0,.08a.26.26,0,0,0,.19.32l5.45,1.42a.27.27,0,0,0,.32-.19Zm-1.16-4.33a.23.23,0,0,0-.17-.29L277.09,81a.23.23,0,0,0-.28.17l-.2.77a.26.26,0,0,0,.16.32l1.25.33a.28.28,0,0,0,.29-.21Zm-.7,10a.36.36,0,0,1,.46-.46l.26.06a1.26,1.26,0,0,1,.87.82.38.38,0,0,1-.47.49l-.25-.07A1.24,1.24,0,0,1,277.81,91.58Zm3.27-8.19a.26.26,0,0,0,.32-.2l.2-.77c0-.15-.05-.25-.2-.29l-1.49-.39a.2.2,0,0,0-.28.17l-.2.77a.24.24,0,0,0,.16.32Z"/><path d="M267.3,103.16a.59.59,0,0,1,.14-.83s3.77-2.54,5.39-3.65a0,0,0,0,0,0-.05,13.26,13.26,0,0,1-3.32,0,.57.57,0,0,1,.26-1.11,12.49,12.49,0,0,0,4.31-.24.78.78,0,0,1,1,.32c.17.31.17.83-.61,1.36-.14.12-.79.57-1.49,1.06,0,0,0,.08,0,.1a1.07,1.07,0,0,1,.53,1.66c-.27.35-.63.67-.65,1.06s.35.75,1.17,1a3.46,3.46,0,0,0,2.29-.18.54.54,0,0,1,.78.26.62.62,0,0,1-.26.77,4.12,4.12,0,0,1-2.22.42c-3.84-.61-2.82-2.56-2.43-3.14s.38-.8.05-.92a1.47,1.47,0,0,0-1.28.36c-1.44,1-2.76,1.85-2.88,1.94A.6.6,0,0,1,267.3,103.16Zm7.48-7a5.68,5.68,0,0,0-2.61-1.09.56.56,0,0,1-.37-.63.55.55,0,0,1,.63-.41,7.47,7.47,0,0,1,3,1.33.52.52,0,0,1,.06.76A.54.54,0,0,1,274.78,96.18Z"/><path d="M272.33,109.13c-.79.46-2,1.28-3.33,2.12,0,0,0,0,0,0a5.4,5.4,0,0,1,3.18.66,2.82,2.82,0,0,1,1.26,3.09c-.51,2-3.06,2.76-5,2.43-2.31-.46-2.73-2-2.31-2.78a1.82,1.82,0,0,1,2.41-.61,3.35,3.35,0,0,1,1.3,2.16.19.19,0,0,0,.21.15c1.33-.21,2.17-.79,2.36-1.62a1.79,1.79,0,0,0-.77-1.93,4.69,4.69,0,0,0-2.85-.4,7,7,0,0,0-3,1,.47.47,0,0,1-.71-.13.53.53,0,0,1,.09-.73c.53-.49,4-2.74,4.77-3.28,0,0,0-.08,0-.07a9.22,9.22,0,0,1-2.14-.15.53.53,0,0,1-.35-.68.51.51,0,0,1,.67-.37,17.8,17.8,0,0,0,3.87.09.55.55,0,0,1,.55.32A.62.62,0,0,1,272.33,109.13Zm-5.24,6.28c0,.18.21.44.63.66a3.18,3.18,0,0,0,1,.34c.07,0,.13,0,.09-.12-.25-.85-.53-1.14-.74-1.27C267.45,114.73,267,115.11,267.09,115.41Z"/><path d="M262.57,128.44a.83.83,0,1,1-1,.59A.84.84,0,0,1,262.57,128.44Zm8.13-6.24a.57.57,0,0,1-.09.79l-5.73,4.83a.57.57,0,0,1-.8-.07.58.58,0,0,1,.08-.81l5.73-4.81A.59.59,0,0,1,270.7,122.2Z"/></svg>