<svg xmlns="http://www.w3.org/2000/svg" xmlns:xlink="http://www.w3.org/1999/xlink" viewBox="0 0 490.93 314.93"><defs><style>.cls-1,.cls-10,.cls-15,.cls-17,.cls-20,.cls-8{fill:none;}.cls-2{fill:#231815;}.cls-3{isolation:isolate;}.cls-4{fill:#ffe021;}.cls-5{fill:#ecff00;}.cls-5,.cls-7,.cls-9{stroke:#ecff00;}.cls-14,.cls-15,.cls-20,.cls-5,.cls-7,.cls-9{stroke-miterlimit:10;stroke-width:1.2px;}.cls-6{fill:#2eead8;}.cls-7,.cls-9{opacity:0.12;mix-blend-mode:multiply;}.cls-7{fill:url(#新規パターンスウォッチ_23);}.cls-14,.cls-8{stroke:#ff64a5;}.cls-16,.cls-17,.cls-19,.cls-8{stroke-linecap:round;stroke-linejoin:round;}.cls-8{stroke-width:5.98px;}.cls-9{fill:url(#新規パターンスウォッチ_23-3);}.cls-10,.cls-15,.cls-16,.cls-17,.cls-19{stroke:#231815;}.cls-10{stroke-width:0.46px;stroke-dasharray:1.54;}.cls-11{fill:#ff64a5;}.cls-12,.cls-14,.cls-16{fill:#fff;}.cls-13{fill:#818181;}.cls-16,.cls-17,.cls-19{stroke-width:1.87px;}.cls-18{fill:#c1c2c2;}.cls-19{fill:#27a9ff;}.cls-20{stroke:#4c4345;}</style><pattern id="新規パターンスウォッチ_23" data-name="新規パターンスウォッチ 23" width="75.42" height="75.42" patternTransform="translate(-94.54 -32.82) scale(1.2 1.2)" patternUnits="userSpaceOnUse" viewBox="0 0 75.42 75.42"><rect class="cls-1" width="75.42" height="75.42"/><polygon class="cls-2" points="58.73 -56.84 -56.84 58.73 -58.73 56.84 56.84 -58.73 58.73 -56.84"/><polygon class="cls-1" points="60.62 -54.96 -54.96 60.61 -56.84 58.73 58.73 -56.84 60.62 -54.96"/><polygon class="cls-2" points="62.5 -53.07 -53.07 62.5 -54.96 60.61 60.62 -54.96 62.5 -53.07"/><polygon class="cls-1" points="64.39 -51.19 -51.19 64.39 -53.07 62.5 62.5 -53.07 64.39 -51.19"/><polygon class="cls-2" points="66.27 -49.3 -49.3 66.27 -51.19 64.39 64.39 -51.19 66.27 -49.3"/><polygon class="cls-1" points="68.16 -47.41 -47.41 68.16 -49.3 66.27 66.27 -49.3 68.16 -47.41"/><polygon class="cls-2" points="70.04 -45.53 -45.53 70.04 -47.41 68.16 68.16 -47.41 70.04 -45.53"/><polygon class="cls-1" points="71.93 -43.64 -43.65 71.93 -45.53 70.04 70.04 -45.53 71.93 -43.64"/><polygon class="cls-2" points="73.81 -41.76 -41.76 73.81 -43.65 71.93 71.93 -43.64 73.81 -41.76"/><polygon class="cls-1" points="75.7 -39.87 -39.87 75.7 -41.76 73.81 73.81 -41.76 75.7 -39.87"/><polygon class="cls-2" points="77.58 -37.99 -37.99 77.58 -39.87 75.7 75.7 -39.87 77.58 -37.99"/><polygon class="cls-1" points="79.47 -36.1 -36.1 79.47 -37.99 77.58 77.58 -37.99 79.47 -36.1"/><polygon class="cls-2" points="81.36 -34.22 -34.22 81.35 -36.1 79.47 79.47 -36.1 81.36 -34.22"/><polygon class="cls-1" points="83.24 -32.33 -32.33 83.24 -34.22 81.35 81.36 -34.22 83.24 -32.33"/><polygon class="cls-2" points="85.13 -30.45 -30.45 85.13 -32.33 83.24 83.24 -32.33 85.13 -30.45"/><polygon class="cls-1" points="87.01 -28.56 -28.56 87.01 -30.45 85.13 85.13 -30.45 87.01 -28.56"/><polygon class="cls-2" points="88.9 -26.68 -26.68 88.9 -28.56 87.01 87.01 -28.56 88.9 -26.68"/><polygon class="cls-1" points="90.78 -24.79 -24.79 90.78 -26.68 88.9 88.9 -26.68 90.78 -24.79"/><polygon class="cls-2" points="92.67 -22.9 -22.9 92.67 -24.79 90.78 90.78 -24.79 92.67 -22.9"/><polygon class="cls-1" points="94.55 -21.02 -21.02 94.55 -22.9 92.67 92.67 -22.9 94.55 -21.02"/><polygon class="cls-2" points="96.44 -19.13 -19.13 96.44 -21.02 94.55 94.55 -21.02 96.44 -19.13"/><polygon class="cls-1" points="98.32 -17.25 -17.25 98.32 -19.13 96.44 96.44 -19.13 98.32 -17.25"/><polygon class="cls-2" points="100.21 -15.36 -15.36 100.21 -17.25 98.32 98.32 -17.25 100.21 -15.36"/><polygon class="cls-1" points="102.1 -13.48 -13.48 102.09 -15.36 100.21 100.21 -15.36 102.1 -13.48"/><polygon class="cls-2" points="103.98 -11.59 -11.59 103.98 -13.48 102.09 102.1 -13.48 103.98 -11.59"/><polygon class="cls-1" points="105.87 -9.71 -9.71 105.87 -11.59 103.98 103.98 -11.59 105.87 -9.71"/><polygon class="cls-2" points="107.75 -7.82 -7.82 107.75 -9.71 105.87 105.87 -9.71 107.75 -7.82"/><polygon class="cls-1" points="109.64 -5.93 -5.93 109.64 -7.82 107.75 107.75 -7.82 109.64 -5.93"/><polygon class="cls-2" points="111.52 -4.05 -4.05 111.52 -5.93 109.64 109.64 -5.93 111.52 -4.05"/><polygon class="cls-1" points="113.41 -2.16 -2.16 113.41 -4.05 111.52 111.52 -4.05 113.41 -2.16"/><polygon class="cls-2" points="115.29 -0.28 -0.28 115.29 -2.16 113.41 113.41 -2.16 115.29 -0.28"/><polygon class="cls-1" points="117.18 1.61 1.61 117.18 -0.28 115.29 115.29 -0.28 117.18 1.61"/><polygon class="cls-2" points="119.06 3.49 3.49 119.06 1.61 117.18 117.18 1.61 119.06 3.49"/><polygon class="cls-1" points="120.95 5.38 5.38 120.95 3.49 119.06 119.06 3.49 120.95 5.38"/><polygon class="cls-2" points="122.84 7.26 7.26 122.83 5.38 120.95 120.95 5.38 122.84 7.26"/><polygon class="cls-1" points="124.72 9.15 9.15 124.72 7.26 122.83 122.84 7.26 124.72 9.15"/><polygon class="cls-2" points="126.61 11.03 11.04 126.61 9.15 124.72 124.72 9.15 126.61 11.03"/><polygon class="cls-1" points="128.49 12.92 12.92 128.49 11.04 126.61 126.61 11.03 128.49 12.92"/><polygon class="cls-2" points="130.38 14.81 14.81 130.38 12.92 128.49 128.49 12.92 130.38 14.81"/><polygon class="cls-1" points="132.26 16.69 16.69 132.26 14.81 130.38 130.38 14.81 132.26 16.69"/><polygon class="cls-2" points="134.15 18.58 18.58 134.15 16.69 132.26 132.26 16.69 134.15 18.58"/><polygon class="cls-1" points="136.03 20.46 20.46 136.03 18.58 134.15 134.15 18.58 136.03 20.46"/></pattern><pattern id="新規パターンスウォッチ_23-3" data-name="新規パターンスウォッチ 23" width="75.42" height="75.42" patternTransform="translate(-94.54 -28.3) scale(1.2 1.2)" patternUnits="userSpaceOnUse" viewBox="0 0 75.42 75.42"><rect class="cls-1" width="75.42" height="75.42"/><polygon class="cls-2" points="58.73 -56.84 -56.84 58.73 -58.73 56.84 56.84 -58.73 58.73 -56.84"/><polygon class="cls-1" points="60.62 -54.96 -54.96 60.61 -56.84 58.73 58.73 -56.84 60.62 -54.96"/><polygon class="cls-2" points="62.5 -53.07 -53.07 62.5 -54.96 60.61 60.62 -54.96 62.5 -53.07"/><polygon class="cls-1" points="64.39 -51.19 -51.19 64.39 -53.07 62.5 62.5 -53.07 64.39 -51.19"/><polygon class="cls-2" points="66.27 -49.3 -49.3 66.27 -51.19 64.39 64.39 -51.19 66.27 -49.3"/><polygon class="cls-1" points="68.16 -47.41 -47.41 68.16 -49.3 66.27 66.27 -49.3 68.16 -47.41"/><polygon class="cls-2" points="70.04 -45.53 -45.53 70.04 -47.41 68.16 68.16 -47.41 70.04 -45.53"/><polygon class="cls-1" points="71.93 -43.64 -43.65 71.93 -45.53 70.04 70.04 -45.53 71.93 -43.64"/><polygon class="cls-2" points="73.81 -41.76 -41.76 73.81 -43.65 71.93 71.93 -43.64 73.81 -41.76"/><polygon class="cls-1" points="75.7 -39.87 -39.87 75.7 -41.76 73.81 73.81 -41.76 75.7 -39.87"/><polygon class="cls-2" points="77.58 -37.99 -37.99 77.58 -39.87 75.7 75.7 -39.87 77.58 -37.99"/><polygon class="cls-1" points="79.47 -36.1 -36.1 79.47 -37.99 77.58 77.58 -37.99 79.47 -36.1"/><polygon class="cls-2" points="81.36 -34.22 -34.22 81.35 -36.1 79.47 79.47 -36.1 81.36 -34.22"/><polygon class="cls-1" points="83.24 -32.33 -32.33 83.24 -34.22 81.35 81.36 -34.22 83.24 -32.33"/><polygon class="cls-2" points="85.13 -30.45 -30.45 85.13 -32.33 83.24 83.24 -32.33 85.13 -30.45"/><polygon class="cls-1" points="87.01 -28.56 -28.56 87.01 -30.45 85.13 85.13 -30.45 87.01 -28.56"/><polygon class="cls-2" points="88.9 -26.68 -26.68 88.9 -28.56 87.01 87.01 -28.56 88.9 -26.68"/><polygon class="cls-1" points="90.78 -24.79 -24.79 90.78 -26.68 88.9 88.9 -26.68 90.78 -24.79"/><polygon class="cls-2" points="92.67 -22.9 -22.9 92.67 -24.79 90.78 90.78 -24.79 92.67 -22.9"/><polygon class="cls-1" points="94.55 -21.02 -21.02 94.55 -22.9 92.67 92.67 -22.9 94.55 -21.02"/><polygon class="cls-2" points="96.44 -19.13 -19.13 96.44 -21.02 94.55 94.55 -21.02 96.44 -19.13"/><polygon class="cls-1" points="98.32 -17.25 -17.25 98.32 -19.13 96.44 96.44 -19.13 98.32 -17.25"/><polygon class="cls-2" points="100.21 -15.36 -15.36 100.21 -17.25 98.32 98.32 -17.25 100.21 -15.36"/><polygon class="cls-1" points="102.1 -13.48 -13.48 102.09 -15.36 100.21 100.21 -15.36 102.1 -13.48"/><polygon class="cls-2" points="103.98 -11.59 -11.59 103.98 -13.48 102.09 102.1 -13.48 103.98 -11.59"/><polygon class="cls-1" points="105.87 -9.71 -9.71 105.87 -11.59 103.98 103.98 -11.59 105.87 -9.71"/><polygon class="cls-2" points="107.75 -7.82 -7.82 107.75 -9.71 105.87 105.87 -9.71 107.75 -7.82"/><polygon class="cls-1" points="109.64 -5.93 -5.93 109.64 -7.82 107.75 107.75 -7.82 109.64 -5.93"/><polygon class="cls-2" points="111.52 -4.05 -4.05 111.52 -5.93 109.64 109.64 -5.93 111.52 -4.05"/><polygon class="cls-1" points="113.41 -2.16 -2.16 113.41 -4.05 111.52 111.52 -4.05 113.41 -2.16"/><polygon class="cls-2" points="115.29 -0.28 -0.28 115.29 -2.16 113.41 113.41 -2.16 115.29 -0.28"/><polygon class="cls-1" points="117.18 1.61 1.61 117.18 -0.28 115.29 115.29 -0.28 117.18 1.61"/><polygon class="cls-2" points="119.06 3.49 3.49 119.06 1.61 117.18 117.18 1.61 119.06 3.49"/><polygon class="cls-1" points="120.95 5.38 5.38 120.95 3.49 119.06 119.06 3.49 120.95 5.38"/><polygon class="cls-2" points="122.84 7.26 7.26 122.83 5.38 120.95 120.95 5.38 122.84 7.26"/><polygon class="cls-1" points="124.72 9.15 9.15 124.72 7.26 122.83 122.84 7.26 124.72 9.15"/><polygon class="cls-2" points="126.61 11.03 11.04 126.61 9.15 124.72 124.72 9.15 126.61 11.03"/><polygon class="cls-1" points="128.49 12.92 12.92 128.49 11.04 126.61 126.61 11.03 128.49 12.92"/><polygon class="cls-2" points="130.38 14.81 14.81 130.38 12.92 128.49 128.49 12.92 130.38 14.81"/><polygon class="cls-1" points="132.26 16.69 16.69 132.26 14.81 130.38 130.38 14.81 132.26 16.69"/><polygon class="cls-2" points="134.15 18.58 18.58 134.15 16.69 132.26 132.26 16.69 134.15 18.58"/><polygon class="cls-1" points="136.03 20.46 20.46 136.03 18.58 134.15 134.15 18.58 136.03 20.46"/></pattern></defs><g class="cls-3"><g id="レイヤー_1" data-name="レイヤー 1"><rect class="cls-4" x="63.02" y="111.83" width="62.34" height="152.14"/><rect class="cls-5" x="63.02" y="43.12" width="62.34" height="68.2"/><rect class="cls-6" x="63.02" y="23.32" width="62.34" height="19.58"/><rect class="cls-4" x="245.62" y="145.85" width="62.34" height="118.12"/><rect class="cls-6" x="245.62" y="88.22" width="62.34" height="18.17"/><rect class="cls-5" x="245.62" y="107.77" width="62.34" height="37.08"/><rect class="cls-7" x="63.02" y="43.12" width="62.34" height="68.2"/><rect class="cls-8" x="62.48" y="43.88" width="62.34" height="67.96"/><rect class="cls-9" x="245.62" y="106.77" width="62.34" height="38.08"/><line class="cls-10" x1="125.36" y1="42.91" x2="245.62" y2="106.39"/><path class="cls-2" d="M36.83,300.06c0-.83,0-.95,0-2.22a10,10,0,0,1-1.46,1.45,8.54,8.54,0,0,0-.87-2.12,12.67,12.67,0,0,0,4.27-5l1.74,1.21a9.74,9.74,0,0,0-.63.92,16.36,16.36,0,0,1-1.06,1.46v7.62a21.28,21.28,0,0,0,.08,2.25H36.71a17.38,17.38,0,0,0,.12-2.23Zm3.67-11a2.68,2.68,0,0,0-.35.39,19.69,19.69,0,0,1-4.34,3.83,8,8,0,0,0-1.1-1.79,11.15,11.15,0,0,0,4.08-3.7Zm3.07,3a11.66,11.66,0,0,0-1.92-3.25l1.78-.88a15.7,15.7,0,0,1,2.16,3.42l-1.5.71h2.53a15.65,15.65,0,0,0,2-4.11l2.11.65a23.44,23.44,0,0,1-1.88,3.46h1.5a14.63,14.63,0,0,0,1.94-.09v2.07a18.46,18.46,0,0,0-2-.09h-3v3h2.42a13.12,13.12,0,0,0,1.9-.1v2.06a14.15,14.15,0,0,0-1.94-.1H47.26v3.91a12.43,12.43,0,0,0,3,.31c.67,0,1.25,0,2.5-.1a11.74,11.74,0,0,0-.56,2.23l-1.57,0a11.3,11.3,0,0,1-6.21-1.44,6.78,6.78,0,0,1-1.92-2,14.71,14.71,0,0,1-1.78,3.75A7,7,0,0,0,39.09,304,11.91,11.91,0,0,0,41,299.75a17.56,17.56,0,0,0,.5-3.79,3,3,0,0,0,0-.44l2.15.28c-.06.33-.1.54-.16,1.1a24,24,0,0,1-.34,2.56,5.52,5.52,0,0,0,2.07,2.44V294H42.8a17.09,17.09,0,0,0-2.06.09V292a14.42,14.42,0,0,0,1.91.09Z"/><path class="cls-2" d="M56.53,297.94a18.57,18.57,0,0,0-2.24.12v-2.18a13.41,13.41,0,0,0,2.23.12h1.65a15.91,15.91,0,0,0-1.48-3.22l1.8-.8a18.47,18.47,0,0,1,1.6,3.34l-1.52.68h3.09v-4.2H57.32a16.26,16.26,0,0,0-2.13.12v-2.16a14.11,14.11,0,0,0,2.25.14h4.22v-.54a13.37,13.37,0,0,0-.09-1.48h2.3a8.2,8.2,0,0,0-.09,1.5v.52h4.57a12.49,12.49,0,0,0,2.28-.14v2.16a12.37,12.37,0,0,0-2.15-.12h-4.7V296h1.3A17.31,17.31,0,0,0,67,292.11l2,.66A19.21,19.21,0,0,1,67.31,296h2a11.48,11.48,0,0,0,2.2-.12v2.18a18,18,0,0,0-2.3-.12H65A15,15,0,0,0,71.9,303a8.39,8.39,0,0,0-1.29,2,18.78,18.78,0,0,1-4.36-2.91,14.84,14.84,0,0,1-2.55-3c.06,1,.08,1.42.08,1.83v2.71a11.94,11.94,0,0,0,.13,2H61.53a12.43,12.43,0,0,0,.13-2V301c0-.6,0-1,.06-1.79a14.33,14.33,0,0,1-3.19,3.62A17.69,17.69,0,0,1,55.29,305,10,10,0,0,0,54,303.08a16.72,16.72,0,0,0,4.71-3.1,14.27,14.27,0,0,0,1.74-2Z"/><path class="cls-2" d="M81.24,299.59c-1.1,2.49-2.33,3.62-3.9,3.62-2.19,0-3.77-2.23-3.77-5.33a8.26,8.26,0,0,1,2.12-5.6,8.59,8.59,0,0,1,6.6-2.69c4.61,0,7.61,2.81,7.61,7.14a7.4,7.4,0,0,1-4.67,7.17,12.21,12.21,0,0,1-3,.81A6,6,0,0,0,81,302.46a10.24,10.24,0,0,0,3.83-1.06,5.39,5.39,0,0,0,2.67-4.81,4.78,4.78,0,0,0-2.37-4.27,4.15,4.15,0,0,0-1.94-.57A27.62,27.62,0,0,1,81.24,299.59Zm-2.83-6.88a6.44,6.44,0,0,0-2.61,5.19c0,1.58.67,2.83,1.52,2.83.63,0,1.28-.81,2-2.46a25.34,25.34,0,0,0,1.59-6.51A4.93,4.93,0,0,0,78.41,292.71Z"/><path class="cls-2" d="M93.66,297.81c0-.5,0-.89.06-2.2a13.27,13.27,0,0,1-1.5,2.06,10.09,10.09,0,0,0-.86-2.33,15.65,15.65,0,0,0,3.17-5.08,12.47,12.47,0,0,0,.73-2.5l2.21.56a31.09,31.09,0,0,1-1.71,4.21v10.82a17.28,17.28,0,0,0,.13,2.23H93.53a13.85,13.85,0,0,0,.13-2.25Zm9.84-6.12a19,19,0,0,0-3.81-2.43l1.48-1.42a23.25,23.25,0,0,1,4,2.39l-1.44,1.46h2.9a17.68,17.68,0,0,0,2.28-.12v2.16c-.67-.06-1.4-.1-2.23-.1h-2.88V297h2.39a16.37,16.37,0,0,0,2.13-.12V299c-.62-.06-1.31-.1-2.12-.1h-2.4v4h3.33a21.34,21.34,0,0,0,2.28-.11V305c-.69-.06-1.34-.09-2.3-.09H98.66c-.94,0-1.58,0-2.29.09v-2.15a20.36,20.36,0,0,0,2.21.11h3.11v-4h-2c-.81,0-1.48,0-2.12.1v-2.12a15.89,15.89,0,0,0,2.12.12h2v-3.37H99.18c-.81,0-1.52,0-2.19.1v-2.16a12.49,12.49,0,0,0,2.17.12Z"/><path class="cls-2" d="M117.58,295.75c-2.35.38-2.35.38-4.69.69a9.6,9.6,0,0,0-.88-1.94,51.86,51.86,0,0,0,7.85-1.1A14.33,14.33,0,0,0,124,292l1.79,1.73a12.45,12.45,0,0,0-1.48.4c-2.23.67-3.3,1-4.59,1.23v2l6.57-.71a13.5,13.5,0,0,0,2.07-.37l.21,2.2a2.31,2.31,0,0,0-.34,0c-.35,0-1.25.06-1.77.11l-6.74.74v3.19c0,.48.1.6.54.71a17.45,17.45,0,0,0,2.34.12c1.86,0,2.79-.12,3.15-.37s.42-.73.5-2.58a6.14,6.14,0,0,0,2.11.77,6.71,6.71,0,0,1-.44,2.48,2.16,2.16,0,0,1-1.71,1.43,17.79,17.79,0,0,1-3.9.23c-4,0-4.72-.31-4.72-2.18v-3.57l-4.17.46a14.47,14.47,0,0,0-2.09.34l-.22-2.17h.39c.38,0,1.21-.06,1.73-.1l4.36-.48Zm1-6.72a5.1,5.1,0,0,0-.12-1.11h2.36a5.8,5.8,0,0,0-.09,1.11v.62H126a20.67,20.67,0,0,0,2.13-.08,8.8,8.8,0,0,0-.08,1.43v1.46a10.91,10.91,0,0,0,.08,1.48h-2.09v-2.33H113.62v2.33h-2.11a8.32,8.32,0,0,0,.09-1.5V291a9.87,9.87,0,0,0-.07-1.43,20,20,0,0,0,2.11.08h4.92Z"/><rect class="cls-11" x="214.65" y="282.01" width="124.22" height="29.91"/><path class="cls-12" d="M246.63,287a15.84,15.84,0,0,0,2.38.13c2.19,0,5.32-.13,7.21-.27a8.58,8.58,0,0,0,2.28-.39l1.58,2a10.13,10.13,0,0,0-1.41,1.19A70.31,70.31,0,0,1,252,295c1.21-.17,3-.34,5.9-.58l3.2-.25,1.73-.17a4,4,0,0,0,.8-.09l.17,2.84h-.73a16.43,16.43,0,0,0-6.75,1.19c-2,.9-3.3,2.39-3.3,3.7,0,1.58,1.75,2.46,4.88,2.46a9.35,9.35,0,0,0,2.3-.22l.12,3.09a8.06,8.06,0,0,0-.89,0c-.17,0-.56,0-1.24,0h-.32a15.55,15.55,0,0,1-4.51-.69,4.55,4.55,0,0,1-3.43-4.25,4.65,4.65,0,0,1,1.31-3.16,8.33,8.33,0,0,1,2.6-1.85c-1,.19-1.82.32-3,.46s-2,.24-2.68.34c-1,.12-2.28.29-3.9.54a7.94,7.94,0,0,0-1.12.24l-.29-3a2.15,2.15,0,0,0,.39,0c.48,0,1.5-.08,2.08-.15l.93-.12c.58-.05.82-.1,1.38-.19a46.25,46.25,0,0,0,7.45-6,60.13,60.13,0,0,1-6.77.54,13.3,13.3,0,0,0-1.55.14Z"/><path class="cls-12" d="M268.87,289.82a20,20,0,0,0,3.25.21l1.12,0a31.28,31.28,0,0,0,.46-3.72,2.72,2.72,0,0,0,0-.44l3.21.29a13.78,13.78,0,0,0-.46,2.34c-.12.68-.15.83-.25,1.38a20.63,20.63,0,0,0,4.16-.72l.12,2.79-.78.12a31,31,0,0,1-4,.51c-.27,1.51-.87,4.09-1.51,6.3a79,79,0,0,1-2.72,8.05l-3-1.19a52.16,52.16,0,0,0,4.34-13.08l-.31,0H271l-.78,0c-.44,0-.78,0-1,0a3,3,0,0,0-.46,0Zm12,9.43c-1,1.22-1.26,1.83-1.26,2.7,0,1.24,1.21,1.87,3.64,1.87a17.66,17.66,0,0,0,5.51-.92l.22,3c-.44.05-.63.07-1.19.17a25.65,25.65,0,0,1-4.52.41,9.82,9.82,0,0,1-4.88-1,3.52,3.52,0,0,1-1.72-3c0-1.31.46-2.38,1.8-4.23Zm7.21-3.18a23.64,23.64,0,0,0-3.06-.17,26.46,26.46,0,0,0-6.41.7l-.22-2.67a31,31,0,0,1,7.24-.78l2.4,0ZM284,286.44a12.64,12.64,0,0,1,2.09,3.3l-1.92.88a14.44,14.44,0,0,0-2.09-3.38Zm2.94,2.94a15.86,15.86,0,0,0-2-3.28l1.82-.78a12.71,12.71,0,0,1,2.07,3.18Z"/><path class="cls-12" d="M293.67,291a16.4,16.4,0,0,0,2.84-.49c5.54-1.19,6.85-1.38,9.67-1.38,4.81,0,7.94,2.7,7.94,6.83,0,3.31-1.94,6.1-5.39,7.78-2.21,1.1-4.11,1.53-8.55,2a10.37,10.37,0,0,0-1.24-3.14c3.89-.17,5.93-.53,8-1.43a6.77,6.77,0,0,0,3.67-3.6,5.38,5.38,0,0,0,.26-1.73,3.58,3.58,0,0,0-1.84-3.16,6.31,6.31,0,0,0-3.13-.65,34.4,34.4,0,0,0-9.57,1.72,8.94,8.94,0,0,0-1.94.68Z"/><line class="cls-10" x1="125.36" y1="111.31" x2="243.03" y2="144.37"/><rect class="cls-13" x="2.26" y="57.96" width="69" height="30.38"/><path class="cls-12" d="M15.06,77.15a8.71,8.71,0,0,1-1.52,2.94L12.15,79a6.14,6.14,0,0,0,1.32-2.5ZM12.82,65.82h5.25V76.31H12.82Zm1.74,1.71v1.25h1.83V67.53Zm0,2.75v1.35h1.83V70.28Zm0,2.88v1.42h1.83V73.16Zm5.3,5.3A10.17,10.17,0,0,1,19,80.07l-1.42-1-.7.35a9.23,9.23,0,0,0-1.26-2.33l1.45-.61a8.68,8.68,0,0,1,1,1.41,13.34,13.34,0,0,0,1.06-5.73V65.82H27v1.82H21v1.9h5.49a12,12,0,0,1-1.69,6.94,9.78,9.78,0,0,0,2.43,1.86l-1,1.7A10.17,10.17,0,0,1,23.59,78a8.81,8.81,0,0,1-2.84,2Zm2.6-2A11.7,11.7,0,0,1,21,72.32a17.05,17.05,0,0,1-1,6A10.18,10.18,0,0,0,22.46,76.44ZM21,71.29V72l1.59-.39a10,10,0,0,0,1.07,3.32,9,9,0,0,0,1-3.62Z"/><path class="cls-12" d="M36.84,69,36,68.33l.47-.45h-2a6.1,6.1,0,0,1,.45,1.06l-1.74.48a8.42,8.42,0,0,0-.58-1.54h-.29a6.61,6.61,0,0,1-1.78,1.74l-1.24-1.36a7.1,7.1,0,0,0,2.44-3l1.92.27a4.94,4.94,0,0,1-.3.75h3.19v1.57a7.13,7.13,0,0,0,1.56-2.57l1.85.22a4.32,4.32,0,0,1-.26.78h4.42v1.64H41.32A4.71,4.71,0,0,1,41.93,69l-1.88.5a11.91,11.91,0,0,0-.7-1.57H38.8a9.44,9.44,0,0,1-1.09,1.34v.45h6.14V72.8H42v2.25H33.44v.76H43V80H41.1V79.4H33.44V80H31.56V72.8H29.8V69.67h6.1V69ZM42,71.13H31.64v.61H42Zm-8.54,2.66h6.68V73H33.44Zm0,4.24H41.1v-.94H33.44Z"/><path class="cls-12" d="M48.35,73.32c-.59.25-.91.37-1.3.5l-.7-1.72a9.41,9.41,0,0,0,3.5-1.57H47c.23-1.22.26-1.36.42-2.67h3.72a.65.65,0,0,0,0-.2v-.49H46.89V66h4.27v-.64H53V66h1.74v-.64h1.85V66h3.88v2.8H56.57v.69h4.75c-.07,2.14-.23,3.12-1.23,3.12h-.56v4.94H56.87a13.27,13.27,0,0,0,4.42.89l-1,1.75a15,15,0,0,1-4.89-1.4l.93-1.24h-5.1l1,1.16a12.19,12.19,0,0,1-4.78,1.42l-.88-1.69a12.9,12.9,0,0,0,4.07-.89h-2.2Zm.86-4.56c0,.07-.08.46-.12.69h1.57a3.22,3.22,0,0,0,.28-.69Zm1.06,3.65v.67h7.35v-.67Zm0,1.58v.7h7.35V74Zm0,1.6v.77h7.35v-.77Zm4.45-4.27v-.79H52.11a5.37,5.37,0,0,1-.64.79Zm0-2.56H52.85a2.81,2.81,0,0,1-.2.69h2.07Zm0-.9v-.69H53v.69Zm1.85,0h2v-.69h-2Zm1.58,3.46L58.08,71h1c.17,0,.3,0,.3-.51H56.57v.79Z"/><rect class="cls-13" width="95.86" height="30.38"/><path class="cls-12" d="M9,12.84a20.52,20.52,0,0,1-2.51,1.31l-1-1.91C9.26,10.75,11.11,9,12,7.78h2.21c.84,1.06,2.37,2.8,6.43,4.46l-1,1.9a15.44,15.44,0,0,1-2.46-1.33v.89H9Zm9,9.78c-.17-.31-.28-.54-.62-1.1a98.77,98.77,0,0,1-10.84.67l-.25-2,2.23,0A22.59,22.59,0,0,0,9.83,17H6.1V15.18H20V17h-7.9c-.59,1.39-1,2.28-1.46,3.21.5,0,3.1-.06,5.65-.26-.34-.47-.75-1-1.57-1.94l1.65-.89a24.92,24.92,0,0,1,3.42,4.48ZM15.91,12A16.09,16.09,0,0,1,13,9.34,12.4,12.4,0,0,1,10.24,12Z"/><path class="cls-12" d="M26.91,22.5H25V16.84a16.57,16.57,0,0,1-1.77,1.38l-.64-2.13a11.15,11.15,0,0,0,4-4.18H22.78V10.08H25V7.78h1.95v2.3h1.73v1.83a15.48,15.48,0,0,1-1.43,2.45,7.42,7.42,0,0,0,2.16,1.81L28.42,18a10.46,10.46,0,0,1-1.51-1.61Zm5-14.72h2V12h3.21v2H33.9v6.11h3.5v2H28.15v-2h3.77V13.94H28.87V12h3.05Z"/><path class="cls-12" d="M39.92,13.67h3.16V18c0,1.25,1.12,2.26,3.85,2.26h7.81l-.36,1.82H47a5.3,5.3,0,0,1-4.39-1.59,10.14,10.14,0,0,1-2,2l-.87-2.14a10.28,10.28,0,0,0,1.56-1.15V15.51H39.92ZM41.21,8a10.94,10.94,0,0,1,2.35,2.51L42.1,11.86a14.79,14.79,0,0,0-2.2-2.62ZM45,11H43.64V8.12H54.23V11H52.84v.61h-3v.64h3.9v4.68h-3.9v.64h4.68V19H49.81v1.05H48V19H43.52V17.57H48v-.64H44.12V12.25H48v-.64H45ZM48,10.4V9.55h-2.6v.85Zm-2.1,3v.73H48v-.73Zm0,1.67v.75H48V15Zm3.88-4.63h2.6V9.55h-2.6Zm0,3v.73h2.1v-.73Zm0,1.67v.75h2.1V15Z"/><path class="cls-12" d="M59.19,9.85a15.22,15.22,0,0,0-.94-1.4l1.84-.71a16,16,0,0,1,1.29,2.11h2.25c-.33-.66-.69-1.25-.89-1.58l1.87-.63a15.23,15.23,0,0,1,1.13,2.21h1.75a9.86,9.86,0,0,0,1-2.14l2,.58a10,10,0,0,1-.87,1.56h1.74v3.81H69.42V11.49H59.3v2.17H57.38V9.85Zm9.93,2.45v4H65.37c-.06.17-.23.7-.31.87h5.57v5.33h-2v-.6H60.08v.6h-2V17.18H63a5,5,0,0,0,.33-.87H59.64v-4Zm-9,6.42v1.56h8.58V18.72Zm1.44-5v1.16h5.72V13.73Z"/><path class="cls-12" d="M75.9,15.76c-.59.25-.91.37-1.3.5l-.7-1.72A9.41,9.41,0,0,0,77.4,13H74.55c.23-1.22.26-1.36.42-2.67h3.72a.65.65,0,0,0,0-.2V9.62H74.44V8.4h4.27V7.76h1.82V8.4h1.74V7.76h1.86V8.4H88v2.81H84.13v.68h4.74C88.8,14,88.64,15,87.64,15h-.56v5H84.42a13.25,13.25,0,0,0,4.42.88l-1,1.75a15,15,0,0,1-4.89-1.4L83.84,20h-5.1l1,1.15a12,12,0,0,1-4.78,1.42L74,20.84A12.85,12.85,0,0,0,78.1,20H75.9Zm.86-4.55-.12.68h1.57a3.07,3.07,0,0,0,.28-.68Zm1.06,3.65v.67h7.35v-.67Zm0,1.57v.7h7.35v-.7Zm0,1.61v.76h7.35V18Zm4.45-4.28V13H79.66a5.37,5.37,0,0,1-.64.79Zm0-2.55H80.4a2.89,2.89,0,0,1-.2.68h2.07Zm0-.91V9.62H80.53v.68Zm1.86,0h2V9.62h-2Zm1.57,3.46-.06-.28h1c.17,0,.3,0,.3-.51H84.13v.79Z"/><rect class="cls-13" x="0.19" y="162.06" width="95.66" height="30.38"/><path class="cls-12" d="M14.13,175.3v.85h5.09v1.48H14c0,.18-.06.39-.17.92h6.74v1.72H15.44a8.67,8.67,0,0,0,5.23,2.29l-.79,1.95c-1.43-.36-5.08-1.35-6.59-4.24h0c-.61,1.23-1.73,3.1-6.58,4.24l-.78-1.92c2.29-.35,4.26-.9,5.29-2.32H6v-1.72h6c0-.23.1-.45.18-.92H7.42v-1.48h4.85v-.85h-4v-.91H6.38v-3.51H12.3v-1h2v1h6v3.51H18.4v.91Zm4.22-1.6v-1.12h-10v1.12h4v-.87h1.86v.87Z"/><path class="cls-12" d="M31.05,175.33l-1.13-1A3,3,0,0,0,31,172v-1.86a24.27,24.27,0,0,0,5.91-.53l.68,1.42a29,29,0,0,1-4.86.45v.58h5.09v1.31H35.71v1.67H34v-1.67H32.5a3.76,3.76,0,0,1-1,1.92h4.81v6.76H33.37a12.41,12.41,0,0,0,4.47.8l-.78,1.67a13.7,13.7,0,0,1-5.18-1.44l.95-1H27.71l.91,1a13.46,13.46,0,0,1-4.9,1.46L23,182.87a12.36,12.36,0,0,0,4.07-.78H24.61v-6.2l-.27.29L23,174.87a3.49,3.49,0,0,0,1.11-2.65v-2a20.86,20.86,0,0,0,5.6-.53l.63,1.41a21.53,21.53,0,0,1-4.5.41v.61h4.51v1.31H28.64v1.67H26.86v-1.67H25.73a4.37,4.37,0,0,1-.7,1.92Zm3.3,1.28H26.54v.74h7.81Zm0,1.73H26.54v.74h7.81Zm0,1.73H26.54v.76h7.81Z"/><path class="cls-12" d="M55.07,182.28l-.42,1.84H48a7.75,7.75,0,0,1-5.14-1.59,7,7,0,0,1-1.68,1.95L40,182.75a6.58,6.58,0,0,0,1.55-1.67,9.53,9.53,0,0,1-1.3-3.13l1.47-.52a8.86,8.86,0,0,0,.6,1.78,17.15,17.15,0,0,0,.42-2.37H40.2V175a19.33,19.33,0,0,0,2.12-2.83H40.2v-1.75h4.22v1.75a15.25,15.25,0,0,1-2.15,3h2.17A21,21,0,0,1,43.6,181a6.45,6.45,0,0,0,4.07,1.32Zm-4.8-11.57H54v2.17h.83v1.49H54v2.14H50.27v.81h3.94v1.38H50.27v.77h4.57v1.46H50.27V182H48.48v-1.1H44.59v-1.46h3.89v-.77H45.11v-1.38h3.37v-.81h-3v-1.35h3v-.79H44.59v-1.49h3.89v-.77h-3v-1.4h3v-.9h1.79Zm2,1.4h-2v.77h2Zm0,2.26h-2v.79h2Z"/><path class="cls-12" d="M63.29,177.46v.1a45.6,45.6,0,0,1-5.73.78l-.21-1.67c.35,0,1.2-.06,2.4-.14v-1.39H58v-1.48h.3l-1.11-1.14a7.21,7.21,0,0,0,2.26-2.81l2,.24a3.28,3.28,0,0,1-.25.62h3.3V172a5.91,5.91,0,0,0,1.35-2.23l1.92.21a4.29,4.29,0,0,1-.21.59H72v1.51H69.23a6.21,6.21,0,0,1,.45.84l-1.79.5c-.15-.4-.42-1-.59-1.34h-.59a6.12,6.12,0,0,1-1.14,1.39l-1.51-1.12.32-.27h-2a5.93,5.93,0,0,1,.43.91l-1.8.48a8.55,8.55,0,0,0-.5-1.39h-.3a9.87,9.87,0,0,1-1.46,1.58h4.58v1.48H61.54v1.22c.92-.13,1.26-.19,1.75-.29v.8c1-.62,1.24-1.5,1.26-3.37h5.63v2.75c0,.21,0,.32.19.32.33,0,.36,0,.39-.28,0-.12,0-.84,0-1l1.38.35c-.08,1.69-.11,2.47-1.05,2.47H69.48c-.78,0-.9-.7-.9-1.06v-.36l-1.14,1a15.64,15.64,0,0,0-1.49-1.6l1.15-1a12,12,0,0,1,1.48,1.52v-1.75H66.12a4.2,4.2,0,0,1-1.65,3.37h1.1v.65H72v1.56H67.1a12,12,0,0,0,5.08,2l-.94,1.77a15.27,15.27,0,0,1-5.67-3v3.31h-1.8v-3.32a13.29,13.29,0,0,1-5.64,3.06l-.9-1.81a13.35,13.35,0,0,0,5-2H57.41v-1.56h6.36v-.65H64Z"/><path class="cls-12" d="M76.22,177.79c-.59.25-.92.37-1.31.5l-.7-1.72a9.31,9.31,0,0,0,3.5-1.57H74.86a23.68,23.68,0,0,0,.42-2.67H79a.65.65,0,0,0,0-.2v-.48H74.75v-1.22H79v-.64h1.82v.64h1.75v-.64h1.85v.64h3.87v2.81H84.44v.68h4.75C89.11,176.06,89,177,88,177H87.4v5H84.73a13.25,13.25,0,0,0,4.43.88l-1,1.75a15,15,0,0,1-4.89-1.4l.94-1.23H79.05l1,1.15a12,12,0,0,1-4.78,1.42l-.87-1.69a12.79,12.79,0,0,0,4.06-.88H76.22Zm.85-4.55c0,.06-.07.45-.12.68h1.57a3.07,3.07,0,0,0,.28-.68Zm1.06,3.65v.67h7.35v-.67Zm0,1.57v.7h7.35v-.7Zm0,1.61v.76h7.35v-.76Zm4.46-4.28V175H80a5.37,5.37,0,0,1-.64.79Zm0-2.55H80.72a3,3,0,0,1-.21.68h2.08Zm0-.91v-.68H80.84v.68Zm1.85,0h2v-.68h-2ZM86,175.79l-.06-.28h1c.17,0,.29,0,.29-.51H84.44v.79Z"/><path class="cls-14" d="M375.84,45.77a73.48,73.48,0,0,0-47.95,73.54L309,125l20.28,4.71a75.24,75.24,0,0,0,3,10.35,73.35,73.35,0,1,0,43.61-94.25Z"/><path class="cls-11" d="M347.45,97.33a4.26,4.26,0,0,0-.09-.88h2.33a4.47,4.47,0,0,0-.06.9v.72h3.85a15.87,15.87,0,0,0,2-.1v2.22a11.47,11.47,0,0,0-2-.1h-9.43c0,6-.53,8.82-2.09,11.46a10.28,10.28,0,0,0-1.67-1.83c1.23-2.07,1.57-4.09,1.57-9.34a19.66,19.66,0,0,0-.08-2.38,17.05,17.05,0,0,0,1.74.07h3.93Zm-4,11.54a2.88,2.88,0,0,0,.41,0l1.11,0a35,35,0,0,0,2.65-8.36l2.44.57c-.15.42-.15.42-.62,2.05-.36,1.17-1.14,3.36-1.64,4.53l-.47,1c2.13-.18,2.84-.28,4.65-.57A31.33,31.33,0,0,0,350.1,105L352,104c1.22,1.92,1.22,1.92,2,3.31a21,21,0,0,1,1.54,3.17l-2,1.08c-.29-.83-.41-1.11-.65-1.68-2.91.55-2.91.55-8.48,1.21-.26,0-.36,0-.54.06Z"/><path class="cls-11" d="M363.33,98.36V97.9a8.05,8.05,0,0,0-.1-1.53h2.33a9.32,9.32,0,0,0-.1,1.55v.44h3.2a12.62,12.62,0,0,0,1.86-.1v2.11a16.41,16.41,0,0,0-1.84-.09h-3.22V102h4.2a16.53,16.53,0,0,0,1.95-.09v2.15a15.5,15.5,0,0,0-1.94-.1H358.84a15.72,15.72,0,0,0-1.94.1V102a13.78,13.78,0,0,0,1.69.09,4.9,4.9,0,0,0-1.49-1.33,5.92,5.92,0,0,0,1.26-1.27,8.26,8.26,0,0,0,1.55-3l2.2.55c-.39.85-.51,1.1-.64,1.34Zm-4.75,13.15a15.87,15.87,0,0,0,.09-1.89v-3a12.7,12.7,0,0,0-.06-1.61c.49,0,.86,0,1.63,0h8.1c.76,0,1.14,0,1.63,0a12.13,12.13,0,0,0-.07,1.61v3a12.78,12.78,0,0,0,.1,1.87h-2.23v-.66h-7v.66Zm4.75-9.47v-1.76h-2.95A8.59,8.59,0,0,1,358.9,102Zm-2.56,6.87h7v-2h-7Z"/><path class="cls-11" d="M386.61,100.84c.62,0,.93,0,1.32,0a9.68,9.68,0,0,0-.13,1c-.15,1.1-.24,1.46-.52,1.77a1.39,1.39,0,0,1-1,.41v3.46a15.8,15.8,0,0,0,.06,1.76c-.37,0-.94,0-1.69,0h-.7a11.24,11.24,0,0,0,4.29.91,8.69,8.69,0,0,0-1.2,1.68,13.73,13.73,0,0,1-5.45-1.92l1.07-.67h-4.18l1.06.68a13.22,13.22,0,0,1-5.31,1.92,7.67,7.67,0,0,0-1.17-1.61,13.1,13.1,0,0,0,4.18-1h-.66c-.77,0-1.31,0-1.7,0a15.16,15.16,0,0,0,.07-1.63v-2.76c-.37.13-.57.18-1.12.34a6.77,6.77,0,0,0-.9-1.71,8,8,0,0,0,3.65-1.33h-1.81l-1.3,0a10.15,10.15,0,0,0,.94-3.07,11.72,11.72,0,0,0,1.34,0h2.11c0-.23,0-.29.05-.52h-2.54a10.83,10.83,0,0,0-1.54.07v-1.5a12.3,12.3,0,0,0,1.54.06h2.57a4.58,4.58,0,0,0-.06-.91h2.05a8.44,8.44,0,0,0-.07.91h1.53a3.57,3.57,0,0,0-.08-.91h2.09a3.41,3.41,0,0,0-.09.91h2.14c.47,0,1.23,0,1.62-.06a9.07,9.07,0,0,0-.06,1.32v.62a8.52,8.52,0,0,0,.05,1.24c-.51,0-1-.05-1.63-.05h-2.12v.52Zm-10.52-.52c-.1.31-.1.32-.18.52h1.57a3.2,3.2,0,0,0,.18-.52Zm.84,4.25h7.29v-.52h-7.29Zm0,1.61h7.29v-.52h-7.29Zm0,1.62h7.29v-.52h-7.29Zm4.44-5.67h-2.44a3.66,3.66,0,0,1-.55.71h3Zm-1.75-1.81c-.05.21-.07.29-.13.52h1.88v-.52Zm.19-1.7c0,.26,0,.33,0,.52h1.59v-.52Zm3.48.52H385v-.52h-1.66Zm1.34,3.7c-.05-.11-.07-.16-.13-.32a4.08,4.08,0,0,0,.76.11c.38,0,.43,0,.48-.5h-2.45v.71Z"/><path class="cls-11" d="M395,103.93a2.2,2.2,0,1,1-2.2-2.2A2.2,2.2,0,0,1,395,103.93Z"/><path class="cls-11" d="M406.14,96.58A8.6,8.6,0,0,0,406,98a11.87,11.87,0,0,0,1.81,7,10.56,10.56,0,0,0,2.63,2.9,10.29,10.29,0,0,0,2.19,1.44,7.9,7.9,0,0,0-1.45,2.18,15.62,15.62,0,0,1-4.07-3.62,12.73,12.73,0,0,1-2.18-4.27,10,10,0,0,1-2.52,4.84,14.7,14.7,0,0,1-3.71,3,7,7,0,0,0-1.44-2,11.22,11.22,0,0,0,3.11-2.23,9.9,9.9,0,0,0,2.75-4.78,20,20,0,0,0,.51-4.54,8.71,8.71,0,0,0-.08-1.36Z"/><path class="cls-11" d="M415.24,105.32c0-.54,0-.85,0-1.73a7,7,0,0,1-1.19,1.57,10.59,10.59,0,0,0-.76-2.5A12.88,12.88,0,0,0,416,98.23a9.39,9.39,0,0,0,.57-2.07l2.18.6c-.08.2-.08.2-.28.8a22.24,22.24,0,0,1-1.09,2.71v9.4a14.51,14.51,0,0,0,.1,1.88h-2.31a14.48,14.48,0,0,0,.1-1.89Zm7.24-7.09a13.16,13.16,0,0,0-.1-1.74h2.33a10.54,10.54,0,0,0-.1,1.76v1.37h1.87a13.11,13.11,0,0,0,1.79-.1v2.17c-.83-.07-1.24-.09-1.79-.09h-1.87v2.84h2.28a13.43,13.43,0,0,0,1.87-.1v2.19a14.15,14.15,0,0,0-1.84-.1h-2.31v3.14a12.93,12.93,0,0,0,.1,2h-2.33a13.09,13.09,0,0,0,.1-2v-3.14h-2.57a14.47,14.47,0,0,0-1.91.1v-2.19a13.56,13.56,0,0,0,1.89.1h2.59V101.6h-2a15.11,15.11,0,0,1-1.27,2.29,7.55,7.55,0,0,0-1.69-1.41A12.21,12.21,0,0,0,419.24,99a8.2,8.2,0,0,0,.41-1.78l2.1.49c-.09.26-.09.26-.28.94a2.24,2.24,0,0,1-.13.44c0,.12-.1.3-.16.53h1.3Z"/><path class="cls-11" d="M443.57,100.84c.62,0,.92,0,1.31,0a9.68,9.68,0,0,0-.13,1c-.14,1.1-.24,1.46-.52,1.77s-.45.34-1,.41v3.46c0,.83,0,1.33.06,1.76-.37,0-.94,0-1.69,0h-.7a11.25,11.25,0,0,0,4.3.91,8.72,8.72,0,0,0-1.21,1.68,13.73,13.73,0,0,1-5.45-1.92l1.08-.67h-4.19l1.06.68a13.17,13.17,0,0,1-5.3,1.92,8,8,0,0,0-1.17-1.61,13.1,13.1,0,0,0,4.18-1h-.67c-.77,0-1.3,0-1.69,0,0-.36.06-.88.06-1.63v-2.76c-.37.13-.57.18-1.12.34a6.46,6.46,0,0,0-.9-1.71,8,8,0,0,0,3.65-1.33H431.7l-1.3,0a10.47,10.47,0,0,0,1-3.07,11.63,11.63,0,0,0,1.33,0h2.12c0-.23,0-.29,0-.52h-2.53a10.9,10.9,0,0,0-1.55.07v-1.5a12.48,12.48,0,0,0,1.55.06h2.57a4.47,4.47,0,0,0-.07-.91h2.05a7.22,7.22,0,0,0-.06.91h1.53a4.82,4.82,0,0,0-.08-.91h2.08a3.45,3.45,0,0,0-.08.91h2.13c.47,0,1.24,0,1.63-.06a8.78,8.78,0,0,0-.07,1.32v.62a8.52,8.52,0,0,0,.05,1.24c-.5,0-1-.05-1.63-.05h-2.11v.52ZM433,100.32c-.1.31-.1.32-.18.52h1.58c.08-.21.11-.3.18-.52Zm.84,4.25h7.29v-.52h-7.29Zm0,1.61h7.29v-.52h-7.29Zm0,1.62h7.29v-.52h-7.29Zm4.45-5.67h-2.44a4.16,4.16,0,0,1-.56.71h3Zm-1.76-1.81c-.05.21-.07.29-.13.52h1.89v-.52Zm.19-1.7c0,.26,0,.33,0,.52h1.6v-.52Zm3.49.52h1.66v-.52h-1.66Zm1.33,3.7c-.05-.11-.06-.16-.13-.32a4.17,4.17,0,0,0,.77.11c.37,0,.42,0,.47-.5h-2.44v.71Z"/><path class="cls-11" d="M446.9,98.23a14.36,14.36,0,0,0,3,.21h.81a6.61,6.61,0,0,0,.59-1.91l2.52.23a9.36,9.36,0,0,0-.6,1.36c-.07.14-.07.16-.13.29.24,0,.29,0,1-.07a22.72,22.72,0,0,0,4.2-.53l.09,2.2-1.28.13c-1.19.14-3.3.27-4.95.32a11.88,11.88,0,0,1-1.06,1.62,4.12,4.12,0,0,1,2.25-.64,2.2,2.2,0,0,1,2.42,1.65l.87-.3c.63-.22.71-.26,1.44-.5a5.49,5.49,0,0,0,1.27-.49l.87,2.22a12.17,12.17,0,0,0-1.84.42c-.39.1-.39.1-2.36.77l0,.53v1.11a10.81,10.81,0,0,0,0,1.09l-2.26.07a11.52,11.52,0,0,0,.1-1.89.4.4,0,0,0,0-.13,9,9,0,0,0-1.3.7,1.53,1.53,0,0,0-.76,1.17c0,.75.7,1,2.47,1a14.74,14.74,0,0,0,5-.74l.18,2.5a4.74,4.74,0,0,0-.82.08,30.91,30.91,0,0,1-4.18.29c-2.39,0-3.74-.36-4.49-1.2a2.66,2.66,0,0,1-.64-1.76,3.79,3.79,0,0,1,1.89-2.92,12.59,12.59,0,0,1,2.38-1.26.74.74,0,0,0-.83-.65,5.42,5.42,0,0,0-3.21,1.61,10,10,0,0,0-1.48,1.57l-1.76-1.75a14.86,14.86,0,0,0,3.18-3.81,2.41,2.41,0,0,1,.24-.41h-1.51l-.62,0a.84.84,0,0,1-.28,0h-.23a1.15,1.15,0,0,0-.24,0Z"/><path class="cls-11" d="M355.24,129.58a17,17,0,0,0,4,6.79,18.2,18.2,0,0,0,7.19,4.77,14.29,14.29,0,0,0-2.36,3.71,21.79,21.79,0,0,1-7-5.28,19.53,19.53,0,0,1-3.51-5.58,16.15,16.15,0,0,1-3.79,6.09,20.08,20.08,0,0,1-6.92,4.77,13.17,13.17,0,0,0-2.24-3.44,18,18,0,0,0,4.59-2.44,13,13,0,0,0,5.68-9.39H345a23.36,23.36,0,0,0-3.59.16v-3.93A29.05,29.05,0,0,0,345,126h6.24c0-1.17.06-1.9.06-2.82a16.54,16.54,0,0,0-.19-2.9h4.22a19.43,19.43,0,0,0-.19,3.85c0,.73,0,.94-.06,1.87h6.71a30.81,30.81,0,0,0,3.59-.17v3.93a26.74,26.74,0,0,0-3.57-.16Z"/><path class="cls-11" d="M374.63,142.52a17.12,17.12,0,0,0,.13,2.49h-3.21a13.2,13.2,0,0,0,.16-2.49v-15h-.84v9.39c0,1.38,0,1.87.08,2.71h-2.78c.08-.92.11-1.92.11-2.9V126.68c0-1.22,0-1.71-.08-2.38.67,0,1.19.08,2.16.08h1.19v-2.17a16.73,16.73,0,0,0-.16-2.43H375a15.94,15.94,0,0,0-.16,2.43v2.17h1.54a15.61,15.61,0,0,0,1.79-.08,17.41,17.41,0,0,0-.06,2.16v10.13c0,1.14-.16,1.7-.59,2.08a2.3,2.3,0,0,1-1.76.57h-.4a8.79,8.79,0,0,0-.65-3.19.79.79,0,0,1,.24,0h.19c.3,0,.41-.08.41-.29v-8.23h-.87Zm3.54-22.2a22.6,22.6,0,0,0,2.6.13h9.62a17.92,17.92,0,0,0,2.65-.13v3.25a17.48,17.48,0,0,0-2.65-.14h-9.62a23.61,23.61,0,0,0-2.6.11Zm.73,14.45c0-1.19,0-1.92-.11-2.87a25.22,25.22,0,0,0,2.87.11H390a25.33,25.33,0,0,0,2.87-.11c-.09.9-.14,1.85-.14,2.85v7c0,1.33.05,2.3.14,3.25h-3.41V143.9h-7.38v1h-3.32a29.12,29.12,0,0,0,.13-3.19Zm.65-8.28a14.93,14.93,0,0,0-.11-2c.81.05,1.43.08,2.68.08h7.16c1.11,0,1.87,0,2.6-.08a11.07,11.07,0,0,0-.14,2v2.47a11.28,11.28,0,0,0,.14,2c-.79-.06-1.41-.08-2.68-.08h-7.06c-1.1,0-1.94,0-2.7.08a14.91,14.91,0,0,0,.11-2ZM382,136.56h2.32v-1.7H382Zm0,4.52h2.32v-1.81H382Zm.84-12.69h5.51V127h-5.51Zm4.4,8.17h2.41v-1.7h-2.41Zm0,4.52h2.41v-1.84h-2.41Z"/><path class="cls-11" d="M403.75,125.35c.08-1.16.13-2.57.13-3.84a9.33,9.33,0,0,0-.05-1.14l4.3.11a22,22,0,0,0-.25,3.25c0,.57-.05.73-.1,1.6h5.94a5.07,5.07,0,0,0,2-.28l1.81,1.6a3.73,3.73,0,0,0-.33,1.87c-.16,5.58-.62,10.34-1.24,12.16-.73,2.22-1.92,3-4.65,3a20,20,0,0,1-3.41-.3,9.8,9.8,0,0,0-.78-4.06,13.73,13.73,0,0,0,3.54.6c1.27,0,1.62-.54,2-3.14a61.1,61.1,0,0,0,.51-7.88l-5.75,0a18.61,18.61,0,0,1-9.55,15.24,13.17,13.17,0,0,0-2.94-3.44c3.51-1.84,5.65-3.9,7-6.69a13.51,13.51,0,0,0,1.3-4.33l.14-.78h-3.52a17.35,17.35,0,0,0-3.7.16l0-4a18.62,18.62,0,0,0,3.79.21Z"/><path class="cls-11" d="M424.84,126.73a31.77,31.77,0,0,1,2.68,6.64l-3.63,1.11a28.1,28.1,0,0,0-2.43-6.77Zm15.65.33a10.15,10.15,0,0,0-.41,1.51,24.88,24.88,0,0,1-3.54,9c-1.92,2.76-4.32,4.68-8.59,6.85a11.75,11.75,0,0,0-2.57-3.23,18.88,18.88,0,0,0,4.76-2.49c3.13-2.27,4.92-5.06,6-9.39a14.35,14.35,0,0,0,.49-3.11Zm-9.79-1.44a26.89,26.89,0,0,1,2.63,6.42l-3.55,1.08a31.45,31.45,0,0,0-2.43-6.58Z"/><path class="cls-11" d="M447,144.06a27.06,27.06,0,0,0,.17-3.82v-16a22.79,22.79,0,0,0-.17-3.63h4.41a24.69,24.69,0,0,0-.16,3.63v4.11A65.06,65.06,0,0,1,463.5,134l-2.22,3.9a58.36,58.36,0,0,0-9-4.93,8.38,8.38,0,0,1-1-.49v7.8a33.18,33.18,0,0,0,.16,3.76Z"/><ellipse class="cls-11" cx="440.91" cy="44.56" rx="44.45" ry="44.52"/><path class="cls-12" d="M412.44,37.05c0-.14,0-.59,0-1.31a14.44,14.44,0,0,1-2.13,2.63,19.68,19.68,0,0,1-4.55,3.31,6.07,6.07,0,0,0-1.55-2,15.89,15.89,0,0,0,4.71-3.2,12.12,12.12,0,0,0,2-2.42h-3.63a19.68,19.68,0,0,0-2.18.08V32a15.31,15.31,0,0,0,2.22.1h5l0-.82a12.41,12.41,0,0,0-.07-1.77h2.42c0,.45,0,.75,0,1.16v1.44h1.12A11.76,11.76,0,0,0,418,32V34.2c-.55,0-1.26-.08-2.14-.08H414.7l.07,6.74a19.72,19.72,0,0,0,.11,2.15h-2.5a13.13,13.13,0,0,0,.09-1.79v-.34l0-3.61Z"/><path class="cls-12" d="M421.38,30.38a21.16,21.16,0,0,1,4.11,3l-1.56,2a16.4,16.4,0,0,0-4.06-3.21ZM419.93,40a14.75,14.75,0,0,0,4.61-1.13,9.55,9.55,0,0,0,4.54-3.8A12.74,12.74,0,0,0,430.64,32a8.51,8.51,0,0,0,2,1.8,13.32,13.32,0,0,1-6.05,6.78,19.35,19.35,0,0,1-4.5,1.61l-.68.14a5.77,5.77,0,0,0-.77.22Z"/><path class="cls-12" d="M434.43,33.57a14.11,14.11,0,0,0,2.34.11h7.45a3.91,3.91,0,0,0,1.5-.16l1,1.15a4.68,4.68,0,0,0-.43,1,11.5,11.5,0,0,1-3.51,5.3,14.92,14.92,0,0,1-4.23,2.23A6.63,6.63,0,0,0,437.14,41a10.52,10.52,0,0,0,4.19-1.92,7.57,7.57,0,0,0,2.44-3.36h-7a20.93,20.93,0,0,0-2.31.07Zm1.3-3.81a12.55,12.55,0,0,0,2.14.12h5.07a9.28,9.28,0,0,0,2.1-.12V32a15.18,15.18,0,0,0-2.07-.07h-5.15c-1,0-1.61,0-2.09.07Z"/><path class="cls-12" d="M461.34,30.84a5.27,5.27,0,0,0-.58.56,27,27,0,0,1-3.62,3.16v6.1a17.41,17.41,0,0,0,.08,2.29h-2.56a14.45,14.45,0,0,0,.1-2.24V36a26.38,26.38,0,0,1-5.29,2.4,7.79,7.79,0,0,0-1.25-2.11,22.79,22.79,0,0,0,8.15-4,12.63,12.63,0,0,0,2.86-2.87Z"/><path class="cls-12" d="M465,30.38a21.16,21.16,0,0,1,4.11,3l-1.56,2a16.4,16.4,0,0,0-4.06-3.21ZM463.5,40a14.75,14.75,0,0,0,4.61-1.13,9.55,9.55,0,0,0,4.54-3.8A12.74,12.74,0,0,0,474.21,32a8.51,8.51,0,0,0,2,1.8,13.32,13.32,0,0,1-6.05,6.78,19.35,19.35,0,0,1-4.5,1.61l-.68.14a5.77,5.77,0,0,0-.77.22Z"/><path class="cls-12" d="M418.52,55.54a4.55,4.55,0,0,0-.24.71A16.69,16.69,0,0,1,416.51,61a8.56,8.56,0,0,0,2.59,1.84,8.83,8.83,0,0,0-1.06,2,11.54,11.54,0,0,1-2.69-2.16,13.22,13.22,0,0,1-2.6,2.33,6.12,6.12,0,0,0-1.13-1.48,12,12,0,0,1-.76,1.41,5.2,5.2,0,0,0-1.23-1.15,6.28,6.28,0,0,0-.9.73,18.27,18.27,0,0,1-1.32-2.73l1.44-.76H406l1.44.78a9.59,9.59,0,0,1-1.61,3.1,5.8,5.8,0,0,0-1.59-1.23A7.78,7.78,0,0,0,405.79,61a8,8,0,0,0-.83,0c0-.61.06-1.09.06-1.62V52.21c0-.51,0-1-.06-1.38a11.34,11.34,0,0,0,1.36.06h2.47a9,9,0,0,0,1.28-.06c0,.39,0,.65,0,1.25V59.7c0,.7,0,1,0,1.31a7.28,7.28,0,0,0-1,0,14.31,14.31,0,0,0,.78,1.61c.86-1.67,1.11-3.87,1.11-9.68,0-.89,0-1.44-.06-2a16.1,16.1,0,0,0,1.79.07H417a15,15,0,0,0,1.81-.09v2c-.54,0-1.07-.07-1.79-.07h-4.16v1.75h3.57a8.65,8.65,0,0,0,1.24-.06Zm-11.71-1.75h1.46V52.64h-1.46Zm0,2.69h1.46V55.32h-1.46Zm0,2.76h1.46V58h-1.46Zm5.74.65a11.26,11.26,0,0,1-.78,3.22A10.25,10.25,0,0,0,414.16,61a12.78,12.78,0,0,1-1.4-3.38C412.72,58.34,412.66,59,412.55,59.89Zm1.56-3.53a10.1,10.1,0,0,0,1.18,3,12.6,12.6,0,0,0,.94-3Z"/><path class="cls-12" d="M426.62,58.81a5.53,5.53,0,0,0-.11.68,5.58,5.58,0,0,1-1.63,3.65,6.7,6.7,0,0,1-1.77,1.16,12.55,12.55,0,0,1-1.67.59,7.46,7.46,0,0,0-1.23-2,6.1,6.1,0,0,0,3.23-1.27,3.26,3.26,0,0,0,1-2.5c0-.23,0-.29,0-.46ZM420.47,60a6.8,6.8,0,0,0,.08-1.14v-1.2a7.84,7.84,0,0,0-.07-1.16,15.67,15.67,0,0,0,1.7.06h10.35c.77,0,1.16,0,1.73-.06a6.69,6.69,0,0,0-.06,1.1v1.24a5.75,5.75,0,0,0,.08,1.16h-2.11V58.26h-9.63V60Zm5.81-8.52a5,5,0,0,0-.08-1.1h2.2a5.13,5.13,0,0,0-.08,1.1v.13h4a14.58,14.58,0,0,0,1.91-.09v1.88a15.71,15.71,0,0,0-1.85-.07h-4v.82h3.39a10,10,0,0,0,1.55-.08v1.81a14.57,14.57,0,0,0-1.55-.06H423c-.73,0-1.1,0-1.55.06V54.05a10,10,0,0,0,1.55.08h3.24v-.82h-3.83a16.46,16.46,0,0,0-1.89.07V51.5a14.83,14.83,0,0,0,1.93.09h3.79Zm3.54,10.8c0,.39.13.45,1,.45s1.22-.05,1.36-.23a5.66,5.66,0,0,0,.23-1.86,7.19,7.19,0,0,0,1.93.57c-.12,1.72-.32,2.49-.75,2.9s-1.12.46-3,.46c-2.38,0-2.82-.21-2.82-1.41V60.06a9,9,0,0,0-.06-1.32h2.15a6.42,6.42,0,0,0-.08,1.21Z"/><path class="cls-12" d="M436,52.42l.6,0c.3,0,.39,0,2.59-.14,1.06-.08,3.72-.2,8-.39a8.14,8.14,0,0,0,1.73-.14l.12,2.37h-.37a7,7,0,0,0-3.29.94c-1.75,1-2.8,2.43-2.8,3.84a2.42,2.42,0,0,0,2,2.36,10.05,10.05,0,0,0,2.29.35h.38l-.32,2.51a3.28,3.28,0,0,0-.54-.08,10.12,10.12,0,0,1-3.75-1,4.23,4.23,0,0,1-2.44-3.95,5.69,5.69,0,0,1,3.26-5c-1.54.17-1.6.18-5,.45a21.5,21.5,0,0,0-2.28.28Zm10.78,5.41a9.94,9.94,0,0,0-1.28-2.15l1.31-.59a8.47,8.47,0,0,1,1.3,2.09Zm1.81-.85a10.73,10.73,0,0,0-1.25-2.08l1.28-.55a7.7,7.7,0,0,1,1.28,2Z"/><rect class="cls-15" x="19.83" y="282.01" width="124.22" height="29.91"/><path class="cls-16" d="M456.1,282.33l-12.29-6.15c-4-2.63-2.43-15.26-1.92-15.62H418.42c.51.36,2.05,13-1.92,15.62l-12.3,6.15s13.28,24.11,25.6,24.11S456.1,282.33,456.1,282.33Z"/><path class="cls-16" d="M447.92,210.16H412.39c-4.35,8.89-4.3,23.11-4.3,23.11-1.21-1.5-3.79-1.11-3.79,2,0,2.2,2,9.87,3.59,11.87s3,.46,3,.46,2.6,8.42,5.8,12.73,7,5.91,8.61,6.92a15.59,15.59,0,0,0,4.82,1.19,16,16,0,0,0,4.85-1.19c1.6-1,5.4-2.61,8.61-6.92s5.8-12.73,5.8-12.73,1.42,1.55,3-.46,3.59-9.67,3.59-11.87c0-3.11-2.58-3.5-3.79-2C452.22,233.27,452,218,447.92,210.16Z"/><path class="cls-2" d="M431.94,259a6.22,6.22,0,0,1-3.55,0c-1.2-.3-1-1.8,0-1.6a10.08,10.08,0,0,0,3.55,0C432.94,257.16,433.12,258.59,431.94,259Z"/><path class="cls-2" d="M422,238.37a1.11,1.11,0,0,1-2,0,2.45,2.45,0,0,1,0-2.64,1.14,1.14,0,0,1,2,0A2.45,2.45,0,0,1,422,238.37Z"/><path class="cls-2" d="M434.89,253.85a18.43,18.43,0,0,1-9.45,0c-3.1-.69-2.58-2.9,0-2a14.11,14.11,0,0,0,9.45,0C437.33,250.93,438,253.19,434.89,253.85Z"/><path class="cls-17" d="M429.22,236.28s1.1,7.33-1.4,11.58c0,0,2.43,1.68,4.36.26"/><path class="cls-2" d="M438.36,238.37a1.11,1.11,0,0,0,2,0,2.45,2.45,0,0,0,0-2.64,1.14,1.14,0,0,0-2,0A2.45,2.45,0,0,0,438.36,238.37Z"/><path class="cls-2" d="M416.12,231.85c.83-.86,1.46-1.9,2.95-2.2.89-.19,3.57.4,6.48,1.3,1.15.36.94,1.13.05,1.07-2.62-.17-4-.53-5.94-.35a11.94,11.94,0,0,0-2.82,1.12C415.74,233.34,415.41,232.59,416.12,231.85Z"/><path class="cls-2" d="M424.42,215.81a6.48,6.48,0,0,1,4.91,2.21c1.8,2.31,2.71,5.19,4.84,8,1.71,2.29,4.36,4.53,6,4.7l-3.9-7.21a37,37,0,0,0,5.46,5.18,65.29,65.29,0,0,0,8.09,4.12s1.41,1.64,2.44.43l1.72-1.5,1.69-5.58s.48-5.92.38-8.23-1.08-8.49-3.68-11.7-7.6-7.48-16.71-7.28a12,12,0,0,0-6.31-1.9c-3.6,0-6.2,2.9-8.5,4.91,0,0-4-1.51-6.51-.5-1.72.68-3.88,1.64-7.54,7.54,0,0-4.07,8.48-4,16,0,0,.53,5,1.11,6.26a17.25,17.25,0,0,0,1.13,2.07s-.33-1,2.3,0c0,0,2.17,6.29,3.17,8.7,0,0,1.14-12.92,1.74-16.22a17.47,17.47,0,0,1,5.61-9.14,2.52,2.52,0,0,1,2.8-.19s1.13-2.25,4.71-2.36Z"/><path class="cls-2" d="M453,233.37s-2.17,6.29-3.17,8.7c0,0-1.14-12.92-1.74-16.22,0,0-.39-3,1.25-3.21a5.12,5.12,0,0,1,4.79,2.58C454.85,226.86,453,233.37,453,233.37Z"/><path class="cls-2" d="M444.19,231.82c-.83-.85-1.47-1.88-3-2.18-.88-.18-3.57.42-6.47,1.34-1.15.36-.94,1.13,0,1.06,2.61-.18,4-.55,5.94-.38a12.29,12.29,0,0,1,2.81,1.11C444.58,233.31,444.91,232.56,444.19,231.82Z"/><path class="cls-16" d="M444,271.64a20.57,20.57,0,0,1-2.06-4.1,38.14,38.14,0,0,1-8.7,3.7h-5.26a56.58,56.58,0,0,1-9.5-3.7,20.57,20.57,0,0,1-2.06,4.1l-1.9,7.15,12.86,32.55H433l14-33.74Z"/><path class="cls-18" d="M430.16,313c-6.46-16.15-14.53-43.1-14.53-43.1l-6.45,8.18s-13.68,3.52-20.72,8.22S378.77,301.2,374.05,314H490c-3.33-11.78-7.63-21.78-14.68-26.49s-24.16-9.41-24.16-9.41l-6.45-8.18s-6,18.74-7.14,22.21S430.16,313,430.16,313Z"/><path class="cls-17" d="M430,312.13c-6.47-16.15-14.38-42.21-14.38-42.21l-6.45,8.18s-13.56,3.71-20.72,8.22c-6,3.8-9.44,13.49-13.38,25.48"/><path class="cls-17" d="M430.33,312.13c6.47-16.15,14.38-42.21,14.38-42.21l6.45,8.18s17.12,4.71,24.16,9.41,11.35,14.71,14.68,25.68"/><polygon class="cls-19" points="435.88 296.6 432.28 279.95 435.31 275.88 432.89 271.26 427.41 271.26 424.99 275.88 428.06 279.95 424.46 296.6 430.17 313.02 435.88 296.6"/><line class="cls-16" x1="432.19" y1="279.95" x2="428.32" y2="279.95"/><polyline class="cls-17" points="409.18 278.1 406.39 286.59 416.93 289.27 407.16 295.43 426.56 314"/><polyline class="cls-17" points="451.15 278.1 453.94 286.59 443.41 289.27 453.17 295.43 433.77 314"/><line class="cls-16" x1="425.33" y1="275.15" x2="420.19" y2="284.35"/><line class="cls-16" x1="435" y1="275.15" x2="440.13" y2="284.35"/><path class="cls-16" d="M340.86,260s1.49-1.75,4.79,0c4.67,2.48,13.09,7.8,13.09,7.8l.9-.55a31.06,31.06,0,0,1-3.24-6.18c-.56-1.76,1.18-3.27,2.77-1.48s5,5.9,7.33,8.73,3.19,7.74,3.54,16a58.6,58.6,0,0,0,1.25,8.54l-12,.75.88-8.36s-9.5-3.62-12.68-5.55-9.49-10.37-10.73-12a2.65,2.65,0,0,1-.35-3s-1.3-1.39-.62-2.51a1.74,1.74,0,0,1,1.4-.78s-.4-1.36.4-1.85C338.93,258.74,340.86,260,340.86,260Z"/><path class="cls-17" d="M340.86,260s4.22,2.57,11.76,7.69"/><path class="cls-17" d="M337.18,261.41a4.59,4.59,0,0,1,2.78.86l9.84,7.14"/><path class="cls-17" d="M336.39,264.67s.79-.81,2.21.18c0,0,4,2.85,9.58,7.46"/><polygon class="cls-16" points="374.62 302.95 372.05 284.32 357.22 288.26 358.51 303.76 374.62 302.95"/><polygon class="cls-18" points="377.82 314 374.14 288.4 354.88 293.82 356.39 314 377.82 314"/><polyline class="cls-17" points="356.39 314 354.88 293.82 374.14 288.4 377.82 314"/><rect class="cls-8" x="245.62" y="107.58" width="62.34" height="36.79"/><line class="cls-20" x1="16.25" y1="265.27" x2="336.75" y2="265.27"/><polygon class="cls-13" points="74.28 68.24 80.88 73.45 73.98 79.04 74.28 68.24"/><polygon class="cls-13" points="94.45 171.79 101.05 177 94.15 182.59 94.45 171.79"/><polygon class="cls-13" points="86.44 29.11 81.44 35.88 75.65 29.14 86.44 29.11"/></g></g></svg>