<svg id="レイヤー_1" data-name="レイヤー 1" xmlns="http://www.w3.org/2000/svg" viewBox="0 0 919.795 96.738"><defs><style>.cls-1{fill:#ecff00;}.cls-2{fill:#4c4345;}.cls-3{fill:#ff64a5;}</style></defs><rect class="cls-1" x="29.727" y="80.992" width="582.901" height="15.745"/><path class="cls-2" d="M5.606,7.005A29.55,29.55,0,0,1,2.625,8.949c-.389.227-.583.357-.746.357-.226,0-.323-.227-.615-.778A6.337,6.337,0,0,0,0,6.875a23.953,23.953,0,0,0,7.324-5.51A9.409,9.409,0,0,0,8.232.1a24.947,24.947,0,0,1,2.593,1.037c.259.13.453.291.453.518,0,.259-.226.357-.518.487a3.764,3.764,0,0,0-.875.907q-.486.582-1.07,1.167V9.306c0,1.523.065,2.138.065,2.334,0,.356-.032.388-.357.388H5.931c-.357,0-.389-.032-.389-.388,0-.2.064-.811.064-2.075Zm6.58,19.511c.324.129.454.291.454.485s-.2.324-.487.39a5.283,5.283,0,0,0-1.328.583,26.1,26.1,0,0,1-7.39,2.268,2.869,2.869,0,0,1-.68.066c-.357,0-.454-.163-.778-.681A8.087,8.087,0,0,0,.486,27.682a28.178,28.178,0,0,0,7.325-1.523,7.3,7.3,0,0,0,1.523-.843C10.565,25.77,11.278,26.094,12.186,26.516ZM20.45,12.871c3.144,0,4.279-.065,4.473-.065.324,0,.356.032.356.356,0,.195-.065,1.07-.065,3.177v5.444c0,2.074.065,2.983.065,3.177,0,.323-.032.356-.356.356-.194,0-1.329-.065-4.473-.065H9.853c-3.177,0-4.279.065-4.5.065-.325,0-.357-.033-.357-.356,0-.228.065-1.1.065-3.177V16.339c0-2.107-.065-2.982-.065-3.177,0-.324.032-.356.357-.356.226,0,1.328.065,4.505.065Zm-12.283,3.6h13.9V15.107H8.167Zm13.9,3.272v-1.36H8.167v1.36Zm0,1.913H8.167v1.394h13.9ZM15.913,11.64c-3.014,0-4.019.064-4.213.064-.325,0-.357-.032-.357-.389V9.694c0-.324.032-.356.357-.356.194,0,1.2.065,4.213.065h2.2V7.718H15.005c-3.111,0-4.213.064-4.407.064-.325,0-.357-.032-.357-.356V5.644c0-.325.032-.357.357-.357.194,0,1.3.065,4.407.065h3.112V3.894c-1.459.1-2.917.194-4.343.226-.908.032-.908.032-1.2-.648a6.465,6.465,0,0,0-.972-1.62A64.229,64.229,0,0,0,23.27.879,6.088,6.088,0,0,0,24.988.393a17.014,17.014,0,0,1,2.171,1.588c.2.163.292.259.292.454,0,.162-.162.324-.616.356-.356.033-.778.1-1.3.2-1.265.259-2.755.453-4.311.648V5.352h3.727c3.144,0,4.213-.065,4.376-.065.324,0,.356.032.356.357V7.426c0,.324-.032.356-.356.356-.163,0-1.232-.064-4.376-.064H21.228V9.4h2.5c2.982,0,4.019-.065,4.213-.065.324,0,.356.032.356.356v1.621c0,.357-.032.389-.356.389-.194,0-1.231-.064-4.213-.064Zm4.116,13.838c.389-.2.454-.2.778-.033a25.912,25.912,0,0,0,8.815,2.172,10.593,10.593,0,0,0-1.556,2.01c-.323.518-.453.647-.777.647a4.7,4.7,0,0,1-.746-.1A25.569,25.569,0,0,1,17.7,27c-.291-.194-.291-.323.162-.519Z"/><path class="cls-2" d="M39.412,7.135a27.787,27.787,0,0,1-3.079,1.846,2.086,2.086,0,0,1-.746.325c-.227,0-.357-.227-.616-.778a5.914,5.914,0,0,0-1.2-1.717A21.092,21.092,0,0,0,41.194,1.56,7.4,7.4,0,0,0,42.166.231,25.935,25.935,0,0,1,44.792,1.3c.291.129.518.291.518.518,0,.291-.194.421-.486.551a3.583,3.583,0,0,0-.972.843L42.62,4.477V8.755c0,1.393.065,1.912.065,2.106,0,.325-.033.357-.389.357H39.7c-.324,0-.356-.032-.356-.357,0-.226.065-.55.065-1.652Zm6.449,19.121c.324.1.453.26.453.454s-.161.324-.453.389a7.39,7.39,0,0,0-1.329.616,26.857,26.857,0,0,1-7.357,2.4,4.244,4.244,0,0,1-.713.1c-.324,0-.454-.162-.745-.681a6.716,6.716,0,0,0-1.491-1.944,28.855,28.855,0,0,0,7.26-1.621,9.5,9.5,0,0,0,1.523-.875A25.877,25.877,0,0,1,45.861,26.256ZM54.871.231c.324-.324.421-.259.745-.1a22.67,22.67,0,0,1,3.112,1.75c.162.1.227.162.227.26s-.065.194-.227.323L57.237,3.828c2.625-.259,4.245-.518,4.57-.551s.324,0,.356.357l.227,2.074c.032.324,0,.356-.357.39-.324.032-1.458.1-4.343.421l-3.24.324a8.76,8.76,0,0,0,.972.939A5.783,5.783,0,0,0,59.408,9.76c.94-.033,1.459-.713,1.783-2.625a6.62,6.62,0,0,0,1.717,1c.973.356,1.037.389.746,1.361-.681,2.431-2.172,3.079-3.727,3.111a8.582,8.582,0,0,1-.907-.032c-.033.389-.065,1.329-.065,3.014v5.866c0,2.107.065,3.047.065,3.241,0,.324-.033.357-.357.357-.227,0-1.329-.065-4.5-.065H43.56c-3.144,0-4.246.065-4.473.065-.324,0-.356-.033-.356-.357,0-.226.065-1.134.065-3.241V15.593c0-2.107-.065-3.046-.065-3.24,0-.325.032-.357.356-.357.227,0,1.329.065,4.473.065H56.686a9.832,9.832,0,0,1-3.5-2.139A16.276,16.276,0,0,1,50.852,7.2l-1.815.162-4.278.487c-.324.032-.357,0-.389-.325l-.227-2.074c-.032-.324,0-.324.324-.356.389-.032,1.427-.066,4.311-.39l.648-.064a19.664,19.664,0,0,1-.843-2.2c-.227-.713-.453-1.426-.713-2.075,1.2-.032,2.2,0,3.047.033.616.033.907.162.907.389a2.417,2.417,0,0,1-.1.519,2.759,2.759,0,0,0,.227,1.3A13.078,13.078,0,0,0,52.7,4.314l4.246-.453a.69.69,0,0,1-.2-.13A13.683,13.683,0,0,0,53.7,1.819c-.291-.13-.356-.194,0-.55ZM41.907,14.459v1.394h13.9V14.459Zm13.9,4.764V17.862h-13.9v1.361Zm0,2.009h-13.9v1.394h13.9Zm-2.075,4.084c.389-.194.454-.194.778-.033a26.238,26.238,0,0,0,8.816,2.108,8.592,8.592,0,0,0-1.556,2.074c-.259.486-.454.647-.778.647a4.281,4.281,0,0,1-.745-.1A25.594,25.594,0,0,1,51.4,26.84c-.292-.2-.292-.324.162-.52Z"/><path class="cls-2" d="M86.115,22.95c0,.357-.194.519-.615.583a17.347,17.347,0,0,1-2.3.162c-.291,0-.421-.194-.421-.518,0-1.166,0-2.787.033-3.954-2.885,1.491-3.922,2.755-3.922,4.31,0,1.362,1.1,2.237,4.5,2.237a55.462,55.462,0,0,0,8.07-.648c.291-.033.421.064.454.356a14.507,14.507,0,0,1,.291,2.658c.033.388-.1.616-.356.616a57.735,57.735,0,0,1-8.038.421c-5.315,0-8.135-1.588-8.135-5.348,0-3.111,1.945-5.38,6.839-7.908-.1-1.652-.486-2.3-1.945-2.236-1.523.065-2.982,1.037-4.472,2.334a43.477,43.477,0,0,0-3.241,3.532c-.162.194-.259.292-.389.292a.653.653,0,0,1-.357-.227,15.493,15.493,0,0,1-1.847-2.139.529.529,0,0,1-.13-.291c0-.13.065-.228.227-.357a33.112,33.112,0,0,0,6.774-8.038c-1.524.065-3.274.1-5.186.1-.291,0-.389-.162-.453-.519-.1-.518-.228-1.718-.325-2.69a71.557,71.557,0,0,0,7.454-.032A24.883,24.883,0,0,0,79.6,2.856,7.913,7.913,0,0,0,79.828.879a20.456,20.456,0,0,1,3.694.908.58.58,0,0,1,.389.551.625.625,0,0,1-.226.486,2.488,2.488,0,0,0-.551.778c-.2.454-.357.875-.746,1.75a52.131,52.131,0,0,0,5.9-1c.356-.065.453.033.518.324a10.9,10.9,0,0,1,.324,2.334c.033.324-.1.453-.551.518-2.431.357-5.218.713-7.583.972a33.582,33.582,0,0,1-2.431,3.6l.032.065a6.455,6.455,0,0,1,3.241-1,3.579,3.579,0,0,1,3.954,3.5c1.264-.583,3.111-1.425,4.764-2.268a9.746,9.746,0,0,0,2.464-1.75,19.956,19.956,0,0,1,2.268,2.851,1.286,1.286,0,0,1,.259.713c0,.26-.162.39-.485.454a10.338,10.338,0,0,0-1.978.487c-2.106.745-4.213,1.458-6.968,2.592Z"/><path class="cls-2" d="M104.752,17.408c0-1.167,0-2.56.033-3.922a27.448,27.448,0,0,1-1.912,2.431c-.26.292-.454.454-.584.454s-.226-.194-.324-.583a9.575,9.575,0,0,0-1.069-2.755,28.96,28.96,0,0,0,5.833-10.4,10.823,10.823,0,0,0,.551-2.3,30.03,30.03,0,0,1,3.014.941c.357.161.551.258.551.485s-.1.356-.356.584c-.227.194-.357.486-.681,1.328-.551,1.491-1.166,2.917-1.815,4.311V24.862c0,3.176.065,4.765.065,4.927,0,.323-.033.356-.324.356h-2.722c-.292,0-.324-.033-.324-.356,0-.2.064-1.751.064-4.927Zm9.594-3.63c-3.177,0-4.279.065-4.473.065-.356,0-.389-.032-.389-.324V11.283c0-.324.033-.357.389-.357.194,0,1.3.065,4.473.065h.388V7.523c-2.463.033-3.4.065-3.532.065-.324,0-.357-.032-.357-.389V5.027c0-.356.033-.388.357-.388.13,0,1.069.064,3.532.064v-1A15.759,15.759,0,0,0,114.54.652c1,.033,2.463.1,3.338.162.292.033.454.163.454.325a1.662,1.662,0,0,1-.194.648,7.173,7.173,0,0,0-.162,1.944V4.7h4.148V3.666A15.925,15.925,0,0,0,121.929.62c1,.032,2.431.1,3.339.162.291.032.453.195.453.357a1.519,1.519,0,0,1-.194.615,7.148,7.148,0,0,0-.162,1.88V4.7c2.982,0,4.019-.064,4.213-.064.324,0,.357.032.357.388V7.2c0,.357-.033.389-.357.389-.194,0-1.231-.065-4.213-.065v3.468h.94c3.176,0,4.245-.065,4.44-.065.357,0,.389.033.389.357v2.236c0,.292-.032.324-.389.324-.195,0-1.264-.065-4.44-.065Zm-1.912,16.367c-.325,0-.357-.033-.357-.356,0-.2.065-1.135.065-5.672V20.552c0-3.144-.065-4.116-.065-4.311,0-.324.032-.356.357-.356.226,0,1.231.064,4.148.064h7.1c2.916,0,3.889-.064,4.115-.064.325,0,.357.032.357.356,0,.2-.065,1.135-.065,3.792v4.019c0,4.5.065,5.445.065,5.639,0,.292-.032.325-.357.325H125.2c-.324,0-.357-.033-.357-.325V28.524h-9.5v1.265c0,.323-.032.356-.389.356Zm2.916-9.237h9.5V18.64h-9.5Zm9.5,4.927V23.5h-9.5v2.334Zm-2.722-14.844V7.523h-4.148v3.468Z"/><path class="cls-2" d="M146.3,2.694c.421.162.616.357.616.649a.743.743,0,0,1-.227.518,3.743,3.743,0,0,0-.584,1.523c-.453,2.2-.712,4.5-.907,6.19a32.667,32.667,0,0,0-.1,3.566c.713-1.265,1.394-2.5,2.269-4.149a6.708,6.708,0,0,0,1,2.107.745.745,0,0,1,.195.518,1.534,1.534,0,0,1-.324.811,26.51,26.51,0,0,0-1.913,4.148,4.082,4.082,0,0,0-.162.972.454.454,0,0,1-.421.518c-.389.1-1.783.292-2.593.39-.227.032-.388-.195-.453-.422a20.71,20.71,0,0,1-.973-6.579,68.589,68.589,0,0,1,.778-8.07,29.913,29.913,0,0,0,.26-3.695A17.066,17.066,0,0,1,146.3,2.694Zm10.533-.55c.648.162.713.323.648.875a11.43,11.43,0,0,0-.065,1.49c.227,3.079.454,6.028.454,8.362,0,4.6-.745,8.588-2.463,11.246a17.879,17.879,0,0,1-5.347,5.218,1.125,1.125,0,0,1-.649.226.939.939,0,0,1-.681-.356,7.509,7.509,0,0,0-2.754-1.49,16.04,16.04,0,0,0,5.509-4.344c1.88-2.56,2.723-5.218,2.723-10.338,0-2.3-.162-5.672-.389-7.746a15.566,15.566,0,0,0-.68-3.533A18.668,18.668,0,0,1,156.836,2.144Z"/><path class="cls-2" d="M181.729,14.037a9.751,9.751,0,0,1,5.153-1.458c4.732,0,8.037,3.111,8.037,7.778,0,5.413-4.375,8.88-11.311,8.88-4.083,0-6.546-1.75-6.546-4.763,0-2.172,2.042-3.954,4.569-3.954a5.9,5.9,0,0,1,6.094,4.731c2.268-1.037,3.305-2.463,3.305-4.926a4.731,4.731,0,0,0-5.088-4.893,13.193,13.193,0,0,0-8.3,3.434c-.94.843-1.847,1.783-2.82,2.755-.226.228-.388.357-.551.357a.8.8,0,0,1-.486-.292,14.6,14.6,0,0,1-1.912-2.106c-.194-.26-.1-.486.162-.746a78.1,78.1,0,0,0,7.681-7.162c2.01-2.074,3.533-3.695,5.024-5.542-1.945.356-4.246.809-6.255,1.231a10.009,10.009,0,0,0-1.362.389,2.409,2.409,0,0,1-.647.162.737.737,0,0,1-.714-.551,15.493,15.493,0,0,1-1.134-3.5,15.737,15.737,0,0,0,3.014.065c1.977-.2,4.829-.616,7.357-1.1a8.611,8.611,0,0,0,1.783-.486,1.66,1.66,0,0,1,.615-.26,1.156,1.156,0,0,1,.746.26,12.242,12.242,0,0,1,2.171,2.074,1.122,1.122,0,0,1,.357.777.859.859,0,0,1-.551.779A5.226,5.226,0,0,0,188.7,7.005c-2.366,2.3-4.538,4.569-7,6.935Zm.032,9.237c-.94,0-1.555.551-1.555,1.232,0,1,.875,1.685,2.819,1.685a7.047,7.047,0,0,0,1.491-.13C184.1,24.279,183.122,23.274,181.761,23.274Z"/><path class="cls-2" d="M226.391.49c.324-.194.453-.162.68.032a14.226,14.226,0,0,1,2.01,2.107c.227.292.129.39-.163.616l-.745.486c1.88,0,2.593-.065,2.755-.065.324,0,.357.033.357.324V6.162c0,.324-.033.357-.357.357-.195,0-1.264-.065-4.343-.065h-3.176a26.9,26.9,0,0,0,1.361,6.125,21.036,21.036,0,0,0,1.556-2.852,14.951,14.951,0,0,0,.615-2.009,18.559,18.559,0,0,1,2.626,1.005.618.618,0,0,1,.389.453c0,.194-.13.324-.292.486a3.969,3.969,0,0,0-.648.973,28.588,28.588,0,0,1-2.852,4.829c.875,1.328,1.815,2.042,2.4,2.042.81,0,1.134-.908,1.523-3.111a6.711,6.711,0,0,0,1.621,1.069c.616.291.842.421.842.745a2.945,2.945,0,0,1-.162.713c-.81,2.723-1.879,3.922-3.727,3.922-1.555,0-3.176-1.1-4.57-2.982A19.724,19.724,0,0,1,221.626,20c-.389.259-.615.421-.777.421-.195,0-.357-.194-.713-.615a10.517,10.517,0,0,0-1.07-1.037c-.032.162-.129.162-.357.162s-.842-.066-2.754-.066h-3.047c-1.912,0-2.528.066-2.755.066-.324,0-.356-.033-.356-.357,0-.227.065-.713.065-2.074v-2.14c0-1.361-.065-1.846-.065-2.074,0-.324.032-.356.356-.356.227,0,.843.065,2.755.065h3.047c1.912,0,2.527-.065,2.754-.065.325,0,.357.032.357.356,0,.194-.065.713-.065,2.074V16.5c0,.972.033,1.49.033,1.782A16.708,16.708,0,0,0,222.6,15.4a30.9,30.9,0,0,1-2.3-8.944H208.76V8.625a38.925,38.925,0,0,1-.584,6.515,17.832,17.832,0,0,1-2.171,5.671c-.259.454-.389.648-.584.648-.129,0-.323-.162-.68-.485a7.983,7.983,0,0,0-2.074-1.394A12.5,12.5,0,0,0,205,14.427a29.891,29.891,0,0,0,.616-6.9c0-2.268-.065-3.338-.065-3.533,0-.291.032-.324.389-.324.195,0,1.264.065,4.375.065h9.691c-.13-1.167-.194-2.366-.389-3.3,1.134.032,2.334.129,3.274.226.323.033.485.162.485.357a1.541,1.541,0,0,1-.162.583,10.008,10.008,0,0,0-.032,2.139h3.111a22.349,22.349,0,0,0-1.49-1.685.341.341,0,0,1-.162-.292c0-.1.064-.227.259-.324ZM203.412,27.747c-.389-.227-.389-.356-.194-.616a18.724,18.724,0,0,0,3.273-5.412c.13-.357.195-.357.648-.162l1.912.842c.422.2.454.259.357.583a24.015,24.015,0,0,1-3.306,5.834c-.194.259-.291.259-.648.065Zm12.835-19.77c1.944,0,2.722-.065,2.916-.065.292,0,.324.032.324.389v1.88c0,.324-.032.356-.324.356-.194,0-.972-.064-2.916-.064H212.94c-1.912,0-2.69.064-2.884.064-.324,0-.356-.032-.356-.356V8.3c0-.357.032-.389.356-.389.194,0,.972.065,2.884.065Zm-2.3,17.242c0,.648.13,1.069.519,1.3a10.542,10.542,0,0,0,3.273.291c2.366,0,3.274.033,3.954-.357.551-.291.81-1.231.843-2.787a8.163,8.163,0,0,0,2.333.973c.843.259.843.259.746,1.134-.259,1.783-.875,2.658-1.783,3.176-1.2.648-2.981.778-6.352.778-2.852,0-4.667-.163-5.607-.649-.746-.421-1.2-1.1-1.2-2.819V23.4a12.772,12.772,0,0,0-.162-2.464,25.2,25.2,0,0,1,3.208.2q.584.1.584.292a1.037,1.037,0,0,1-.162.551,2.7,2.7,0,0,0-.195,1.167Zm2.4-10.987h-3.857V16.6h3.857Zm1,5.542c.324-.227.422-.227.681-.033a17.854,17.854,0,0,1,3.046,3.209c.2.227.227.292-.1.519l-1.685,1.3a.762.762,0,0,1-.421.226c-.1,0-.163-.065-.26-.226a21.76,21.76,0,0,0-2.82-3.371c-.259-.26-.259-.292.13-.584Zm10.015,1.3a1.113,1.113,0,0,1,.389-.162c.1,0,.162.066.291.2a25.5,25.5,0,0,1,3.825,5.413c.162.324.162.388-.26.647L229.6,28.4c-.421.259-.518.291-.648-.033a19.867,19.867,0,0,0-3.468-5.606c-.259-.26-.227-.357.162-.584Z"/><path class="cls-2" d="M255.755,25.9c0,.454.065.649.324.779a7.386,7.386,0,0,0,2.755.291c1.815,0,2.463-.162,2.982-.487.518-.356.648-1,.713-2.949a9.92,9.92,0,0,0,2.43,1.037c.811.26.811.228.714,1.071-.26,1.944-.616,2.721-1.361,3.24-.973.68-2.3.94-5.7.94-2.949,0-4.6-.162-5.282-.518-.714-.357-.973-.875-.973-2.334V22.756h-2.787c-1.1,4.667-5.121,6.709-10.63,7.454-.973.13-.973.162-1.394-.811a6.846,6.846,0,0,0-1.361-2.171c4.991-.356,8.815-1.3,9.788-4.472-2.3.032-3.176.064-3.371.064-.324,0-.357-.032-.357-.356,0-.227.065-1.167.065-3.306v-6.32c0-2.2-.065-3.078-.065-3.306,0-.323.033-.356.357-.356.227,0,1.264.065,4.31.065H255.4c3.046,0,4.083-.065,4.31-.065.324,0,.357.033.357.356,0,.2-.065,1.1-.065,3.306v6.32c0,2.139.065,3.112.065,3.306,0,.324-.033.356-.357.356-.227,0-1.231-.064-3.954-.064Zm4.311-21.1c2.981,0,4.051-.065,4.278-.065.324,0,.356.033.356.357,0,.194-.064.809-.064,1.718V8.236c0,2.755.064,3.274.064,3.468,0,.324-.032.357-.356.357h-2.593c-.324,0-.356-.033-.356-.357V7.588H240.879V11.64c0,.356-.032.388-.357.388H237.93c-.324,0-.357-.032-.357-.388,0-.2.065-.714.065-3.436V7.069c0-1.167-.065-1.75-.065-1.976,0-.324.033-.357.357-.357.227,0,1.3.065,4.278.065h.746a16.587,16.587,0,0,0-1.718-2.885c-.195-.291-.162-.356.226-.486l1.945-.68c.422-.162.519-.1.713.129A18.5,18.5,0,0,1,246,3.7c.162.324.162.357-.292.486l-1.717.616h6.092a20.708,20.708,0,0,0-1.522-3.274c-.195-.324-.1-.356.291-.486l2.139-.648c.389-.129.486-.065.648.227A18.9,18.9,0,0,1,253.2,3.764c.13.292.1.324-.357.454l-1.977.583h5.251a26.422,26.422,0,0,0,1.393-2.691,7.9,7.9,0,0,0,.519-1.62A22.628,22.628,0,0,1,261.2,1.3c.292.129.422.259.422.453a.6.6,0,0,1-.292.486,4.132,4.132,0,0,0-.681.875L259.58,4.8ZM245.611,13.13H256.7V11.542H245.611ZM256.7,16.76V15.2H245.611V16.76Zm0,2.074H245.611v1.588H256.7Z"/><path class="cls-2" d="M286.837,8.172c-3.953.745-7.421,1.426-10.889,2.139-1.232.292-1.556.356-2.042.518a1.9,1.9,0,0,1-.713.259.758.758,0,0,1-.616-.485,22.629,22.629,0,0,1-1.2-3.5,44.864,44.864,0,0,0,5.153-.551C280.518,5.968,287.648,4.9,296.01,3.8c.486-.065.648.13.68.356a18.622,18.622,0,0,1,.357,2.853c0,.389-.2.486-.616.486a14.447,14.447,0,0,0-3.954.713c-5.51,1.88-8.265,5.671-8.265,9.561,0,4.18,2.982,6.449,8.621,6.805.519,0,.713.13.713.487a11.522,11.522,0,0,1-.356,2.787c-.1.486-.227.68-.616.68-5.7,0-11.959-3.273-11.959-10.014,0-4.6,2.3-7.713,6.222-10.274Zm6.418,3.5c.162-.13.291-.1.486.064A14.96,14.96,0,0,1,296.82,15.2a.328.328,0,0,1-.1.519l-1.362,1.005a.338.338,0,0,1-.55-.1,16.111,16.111,0,0,0-3.274-3.759Zm2.884-2.107c.194-.129.292-.1.486.065a13.535,13.535,0,0,1,3.079,3.338.375.375,0,0,1-.1.584l-1.3,1a.332.332,0,0,1-.551-.1,15.343,15.343,0,0,0-3.241-3.728Z"/><path class="cls-2" d="M305.6,21.978a.691.691,0,0,1,.486-.259.654.654,0,0,1,.422.194,24.142,24.142,0,0,1,6.449,5.931c.195.259.227.356.227.486,0,.162-.065.292-.324.519l-1.977,1.685c-.227.194-.357.292-.454.292-.162,0-.291-.065-.454-.324a24.2,24.2,0,0,0-6.125-6.191c-.194-.129-.291-.226-.291-.324s.064-.194.226-.388Z"/><path class="cls-2" d="M344.5,6.389a24.879,24.879,0,0,1-3.532,4.18c-.357.357-.584.552-.746.552-.194,0-.389-.2-.713-.648a5.906,5.906,0,0,0-1.652-1.492,19.1,19.1,0,0,0,5.639-7.129,7.042,7.042,0,0,0,.583-1.718,21.889,21.889,0,0,1,2.949.713c.292.1.454.259.454.454,0,.226-.1.291-.227.421a1.819,1.819,0,0,0-.551.713l-.486,1H360.7c3.176,0,4.246-.064,4.44-.064.357,0,.389.032.389.356V6.1c0,.323-.032.356-.389.356-.194,0-1.264-.065-4.44-.065Zm-.454,11.019c.325-.292.39-.324.649-.13,1.393.941,2.852,1.945,4.343,3.079.648-.745,1.264-1.523,1.88-2.366a10.66,10.66,0,0,0,.972-1.814,12.383,12.383,0,0,1,2.787,1.329c.292.226.421.421.421.583,0,.194-.162.356-.421.518a3.122,3.122,0,0,0-.875.94,26.309,26.309,0,0,1-2.236,2.787q2.139,1.751,4.375,3.792a.557.557,0,0,1,.259.39.5.5,0,0,1-.194.356l-1.815,1.88c-.195.194-.324.291-.454.291-.1,0-.194-.065-.324-.194-1.361-1.492-2.755-2.885-4.213-4.213a29.5,29.5,0,0,1-8.006,4.861,2.436,2.436,0,0,1-.81.259c-.227,0-.389-.2-.713-.745a7.267,7.267,0,0,0-1.652-1.88,24.557,24.557,0,0,0,8.75-4.57c-1.361-1.1-2.787-2.171-4.278-3.176-.292-.2-.292-.259.033-.583Zm.357-1.685c-3.144,0-4.246.065-4.44.065-.356,0-.389-.033-.389-.356V13c0-.323.033-.356.389-.356.194,0,1.3.065,4.44.065h12.64c3.209,0,4.278-.065,4.472-.065.324,0,.389.065.389.389a36.33,36.33,0,0,0-.032,4.181,35.1,35.1,0,0,0,.616,6.287c.421,1.848.551,2.658,1.2,2.658.389,0,.68-1.07.907-4.148a5.749,5.749,0,0,0,2.237,1.393c.68.259.648.357.485,1.394-.55,3.726-1.393,5.153-3.4,5.153-1.815,0-3.436-1.459-4.5-5.121a36.491,36.491,0,0,1-.875-9.107Zm4.408-4.829c-3.079,0-4.116.065-4.278.065-.324,0-.357-.033-.357-.39V8.4c0-.324.033-.356.357-.356.162,0,1.2.064,4.278.064h9.139c3.047,0,4.116-.064,4.311-.064.324,0,.356.032.356.356v2.171c0,.357-.032.39-.356.39-.195,0-1.264-.065-4.311-.065Z"/><path class="cls-2" d="M396.516,2.272a1.686,1.686,0,0,0,.811-.162.925.925,0,0,1,.421-.129c.259,0,.454.065,1.329.94.907.94.972,1.069.972,1.361,0,.227-.065.389-.389.649a4.8,4.8,0,0,0-1.037,1.393,25.244,25.244,0,0,1-3.468,4.473,27.777,27.777,0,0,0,6.352,2.851,7.394,7.394,0,0,0-1.1,2.01c-.259.615-.323.875-.615.875a2.888,2.888,0,0,1-.746-.226,25.652,25.652,0,0,1-6.255-3.436,31,31,0,0,1-6.06,3.5,2.339,2.339,0,0,1-.778.259c-.26,0-.357-.259-.616-.875a10.9,10.9,0,0,0-1.037-1.75v2.852c0,1.977.065,2.852.065,3.046,0,.292-.033.325-.357.325-.227,0-1.1-.065-3.565-.065h-.616V22.27h.811c2.819,0,3.824-.065,4.018-.065.292,0,.325.032.325.356v2.075c0,.324-.033.356-.325.356-.194,0-1.2-.065-4.018-.065h-.811c0,3.047.065,4.732.065,4.862,0,.323-.032.356-.356.356h-2.4c-.324,0-.356-.033-.356-.356,0-.162.032-1.815.065-4.862h-1.427c-2.819,0-3.759.065-3.953.065-.324,0-.357-.032-.357-.356V22.561c0-.324.033-.356.357-.356.194,0,1.134.065,3.953.065h1.427V20.163h-.584c-2.463,0-3.338.065-3.532.065-.325,0-.357-.033-.357-.325,0-.226.065-1.069.065-3.046V11.834c0-1.945-.065-2.82-.065-3.015,0-.324.032-.356.357-.356.194,0,1.069.065,3.532.065h.616V6.454h-1.394c-2.722,0-3.629.065-3.824.065-.324,0-.356-.033-.356-.357V4.056c0-.292.032-.325.356-.325.195,0,1.1.065,3.824.065h1.394a19.992,19.992,0,0,0-.227-3.338,27.129,27.129,0,0,1,3.079.227c.356.065.519.162.519.324a1.438,1.438,0,0,1-.163.583,5.262,5.262,0,0,0-.226,2.107v.1h.778c2.722,0,3.694-.065,3.889-.065.291,0,.324.033.324.325V6.162c0,.324-.033.357-.324.357-.195,0-1.167-.065-3.889-.065h-.778V8.528h.583c2.463,0,3.338-.065,3.565-.065.324,0,.357.032.357.356,0,.195-.065,1.07-.065,3.015V13.94a25.166,25.166,0,0,0,6.19-3.143,20.684,20.684,0,0,1-3.857-5.64c-.453.032-.68.032-.745.032-.357,0-.389-.032-.389-.356V2.564c0-.324.032-.356.389-.356.195,0,1.135.064,3.889.064ZM377.006,13.2V10.861h-1.912V13.2Zm0,4.634V15.4h-1.912v2.431Zm2.722-6.968V13.2h1.912V10.861ZM381.64,15.4h-1.912v2.431h1.912Zm13.9,3.534c2.723,0,3.63-.066,3.857-.066.324,0,.356.033.356.357v2.3c0,.325-.032.357-.356.357-.227,0-1.134-.066-3.857-.066h-1.491v4.376h2.431c3.014,0,4.019-.065,4.213-.065.292,0,.324.033.324.356v2.3c0,.357-.032.389-.324.389-.194,0-1.2-.065-4.213-.065h-7.843c-3.015,0-3.987.065-4.181.065-.324,0-.356-.032-.356-.389v-2.3c0-.323.032-.356.356-.356.194,0,1.166.065,4.181.065h2.2V21.815h-.973c-2.722,0-3.63.066-3.824.066-.324,0-.357-.032-.357-.357v-2.3c0-.324.033-.357.357-.357.194,0,1.1.066,3.824.066h.973V18.77a22.135,22.135,0,0,0-.227-3.76c1.167.032,2.171.13,3.273.226.324.034.486.162.486.357a1.69,1.69,0,0,1-.129.68,6.947,6.947,0,0,0-.195,2.464v.2Zm-5.7-13.807a15.987,15.987,0,0,0,2.917,3.792,18.159,18.159,0,0,0,2.949-3.792Z"/><path class="cls-2" d="M412.917,4.12c.551.292.746.486.746.778,0,.227-.065.324-.487.972a7.671,7.671,0,0,0-.778,2.3,52.539,52.539,0,0,0-1.361,10.468,31.177,31.177,0,0,0,.2,3.792c.68-1.492,1.264-2.561,2.2-4.829a8.4,8.4,0,0,0,1.134,2.042,1.292,1.292,0,0,1,.227.486.9.9,0,0,1-.162.518,31.5,31.5,0,0,0-1.847,4.894,3.665,3.665,0,0,0-.1,1c0,.388.065.648.065.907,0,.227-.13.356-.422.422a16.139,16.139,0,0,1-2.657.518c-.227.033-.357-.129-.421-.357a30.359,30.359,0,0,1-1.491-9.657,61.92,61.92,0,0,1,1.1-10.631,26.168,26.168,0,0,0,.583-4.829A14.334,14.334,0,0,1,412.917,4.12Zm6.936,15.265c.259-.032.324.13.324.486.194,2.236,1.75,3.047,5.282,3.047a46.337,46.337,0,0,0,6.191-.422c.324-.032.389,0,.454.422a24.065,24.065,0,0,1,.194,2.787c0,.389,0,.421-.551.486a43.593,43.593,0,0,1-5.283.357c-4.8,0-7.032-.778-8.426-2.691a7.139,7.139,0,0,1-1.135-4.212ZM418.038,7.264c.032-.389.129-.487.454-.551a51.658,51.658,0,0,1,7.032-.583c1.945,0,3.436.064,4.8.194.68.032.745.1.745.421,0,.973,0,1.848-.065,2.755-.032.292-.129.422-.421.389-1.944-.129-3.63-.195-5.283-.195a39.638,39.638,0,0,0-7.357.746C417.973,8.625,417.973,7.814,418.038,7.264Z"/><path class="cls-2" d="M443.61,16.76c-2.917,0-3.921.065-4.115.065-.325,0-.357-.033-.357-.324V13.357c0-.292.032-.324.357-.324.194,0,1.2.065,4.115.065h19.543c2.917,0,3.922-.065,4.117-.065.324,0,.356.032.356.324V16.5c0,.291-.032.324-.356.324-.195,0-1.2-.065-4.117-.065Z"/><path class="cls-2" d="M480.073,19.19c-.13.779-.259,1.556-.421,2.334a20.311,20.311,0,0,1-3.533,7.941c-.292.388-.421.551-.583.551s-.324-.163-.648-.519a7.955,7.955,0,0,0-2.367-1.782,15.313,15.313,0,0,0,3.858-8.038,33.814,33.814,0,0,0,.453-5.9c0-3.4-.064-5.023-.064-5.217,0-.325.032-.357.356-.357.227,0,1.361.065,4.5.065h11.959c3.143,0,4.278-.065,4.5-.065.292,0,.324.032.324.357,0,.194-.064,1.133-.064,3.208v5.737c0,2.074.064,2.916.064,3.111,0,.323-.032.357-.324.357h-2.917c-.291,0-.323-.034-.323-.357V19.19Zm-2.2-13.741c-2.917,0-3.954.065-4.148.065-.325,0-.357-.033-.357-.357V2.564c0-.324.032-.356.357-.356.194,0,1.231.064,4.148.064h19.058c2.949,0,3.953-.064,4.148-.064.323,0,.357.032.357.356V5.157c0,.324-.034.357-.357.357-.195,0-1.2-.065-4.148-.065Zm2.464,6v4.571h14.52V11.444Z"/><path class="cls-2" d="M513.521,23.4c2.107,1.782,4.991,2.722,10.015,2.722a97.558,97.558,0,0,0,12.316-.615,6.37,6.37,0,0,0-.908,2.366c-.227,1.069-.227,1.069-1.232,1.1-3.24.227-6.027.325-10.209.325-3.986,0-8.232-.487-11.084-2.983a5.522,5.522,0,0,1-.648-.583,23.5,23.5,0,0,1-3.4,3.6c-.356.292-.551.454-.713.454-.195,0-.324-.228-.584-.648a7.477,7.477,0,0,0-1.685-2.01,20.714,20.714,0,0,0,4.214-3.954,22.808,22.808,0,0,1-2.529-4.958c-.226-.519-.226-.616.195-.843l1.588-.843c.551-.292.584-.162.81.389a17.921,17.921,0,0,0,1.556,3.6,20.853,20.853,0,0,0,1.685-6.255h-2.787l-.518.777c-.13.194-.227.292-.389.292a4.6,4.6,0,0,1-1.361-.519c-.973-.454-1.3-.583-1.3-.778a.72.72,0,0,1,.194-.389,52.787,52.787,0,0,0,4.959-8.491h-2.139c-2.107,0-2.754.065-2.949.065-.324,0-.356-.033-.356-.357v-2.4c0-.357.032-.389.356-.389.195,0,.842.066,2.949.066H513.1a3.309,3.309,0,0,0,.713-.066,1.718,1.718,0,0,1,.389-.1c.194,0,.421.129,1.069.94.551.713.843,1.1.843,1.393s-.13.389-.324.551a3.22,3.22,0,0,0-.875,1.2c-.746,1.362-1.718,3.242-2.949,5.316h1.555a1.276,1.276,0,0,0,.746-.162c.194-.1.258-.162.421-.162.259,0,.518.194,1.166.94.649.681.779.907.779,1.166s-.1.39-.357.649a2.317,2.317,0,0,0-.389,1.134,23.728,23.728,0,0,1-2.528,8.329Zm7.065-.616c-3.078,0-4.148.065-4.343.065-.324,0-.356-.033-.356-.389V20.487c0-.356.032-.389.356-.389.195,0,1.265.065,4.343.065h2.593V18.348h-1.426c-2.917,0-3.954.065-4.149.065-.324,0-.356-.032-.356-.356v-1.88c0-.324.032-.357.356-.357.195,0,1.232.065,4.149.065h1.426V14.07h-1.75c-2.528,0-3.338.065-3.533.065-.324,0-.356-.032-.356-.357V11.963c0-.323.032-.357.356-.357.2,0,1,.066,3.533.066h1.75V9.856h-2.916c-2.983,0-3.987.066-4.182.066-.324,0-.356-.033-.356-.39V7.62c0-.324.032-.356.356-.356.195,0,1.2.065,4.182.065h2.916V5.546h-1.2c-2.883,0-3.824.065-4.018.065-.324,0-.357-.033-.357-.356V3.375c0-.324.033-.356.357-.356.194,0,1.135.064,4.018.064h1.2a17.6,17.6,0,0,0-.227-2.625,30.878,30.878,0,0,1,3.176.227c.324.032.519.129.519.324a1.128,1.128,0,0,1-.2.518,3.231,3.231,0,0,0-.194,1.556h1.88c2.981,0,4.408-.064,4.6-.064.357,0,.389.032.389.356,0,.194-.065,1.166-.065,3.208v.746c1,0,2.009-.065,2.171-.065.325,0,.357.032.357.356V9.565c0,.324-.032.357-.357.357-.162,0-1.167-.033-2.171-.066v.779c0,2.042.065,2.981.065,3.143,0,.325-.032.357-.389.357-.194,0-1.621-.065-4.6-.065h-1.88v1.815h2.722c2.917,0,3.922-.065,4.117-.065.356,0,.388.033.388.357v1.88c0,.324-.032.356-.388.356-.195,0-1.2-.065-4.117-.065h-2.722v1.815h3.824c3.111,0,4.182-.065,4.376-.065.324,0,.356.033.356.389v1.977c0,.356-.032.389-.356.389-.194,0-1.265-.065-4.376-.065h-3.824c.032,1.426.065,2.107.065,2.236,0,.357-.033.389-.356.389H523.5c-.357,0-.389-.032-.389-.389,0-.064.032-.81.032-2.236Zm5.672-17.242V7.329h3.792V5.546Zm3.792,4.31h-3.792v1.816h3.792Z"/><path class="cls-2" d="M556.822,8.01c-3.954.745-7.422,1.426-10.889,2.138-1.232.292-1.556.357-2.042.519a1.892,1.892,0,0,1-.713.259.755.755,0,0,1-.615-.486,22.436,22.436,0,0,1-1.2-3.5,44.6,44.6,0,0,0,5.153-.55c3.987-.583,11.117-1.653,19.478-2.755.486-.065.649.13.681.356a18.5,18.5,0,0,1,.356,2.853c0,.388-.194.486-.615.486a14.44,14.44,0,0,0-3.954.713c-5.51,1.88-8.265,5.672-8.265,9.561,0,4.18,2.982,6.449,8.621,6.805.519,0,.713.13.713.487a11.572,11.572,0,0,1-.356,2.787c-.1.486-.227.68-.616.68-5.7,0-11.959-3.273-11.959-10.014,0-4.6,2.3-7.713,6.222-10.274Z"/><path class="cls-2" d="M591.729,22.95c0,.357-.2.519-.617.583a17.311,17.311,0,0,1-2.3.162c-.292,0-.421-.194-.421-.518,0-1.166,0-2.787.032-3.954-2.885,1.491-3.922,2.755-3.922,4.31,0,1.362,1.1,2.237,4.5,2.237a55.462,55.462,0,0,0,8.07-.648c.292-.033.421.064.454.356a14.507,14.507,0,0,1,.291,2.658c.033.388-.1.616-.356.616a57.72,57.72,0,0,1-8.037.421c-5.316,0-8.135-1.588-8.135-5.348,0-3.111,1.944-5.38,6.838-7.908-.1-1.652-.486-2.3-1.944-2.236-1.524.065-2.982,1.037-4.473,2.334a43.477,43.477,0,0,0-3.241,3.532c-.162.194-.259.292-.389.292a.648.648,0,0,1-.356-.227,15.429,15.429,0,0,1-1.848-2.139.525.525,0,0,1-.129-.291c0-.13.064-.228.227-.357a33.131,33.131,0,0,0,6.773-8.038c-1.523.065-3.273.1-5.186.1-.292,0-.388-.162-.454-.519-.1-.518-.226-1.718-.323-2.69a71.56,71.56,0,0,0,7.454-.032,24.894,24.894,0,0,0,.972-2.788,7.866,7.866,0,0,0,.227-1.977,20.491,20.491,0,0,1,3.695.908.579.579,0,0,1,.388.551.625.625,0,0,1-.226.486,2.52,2.52,0,0,0-.551.778c-.194.454-.356.875-.746,1.75a52.093,52.093,0,0,0,5.9-1c.357-.065.454.033.519.324a10.9,10.9,0,0,1,.323,2.334c.033.324-.1.453-.551.518-2.43.357-5.217.713-7.584.972a33.422,33.422,0,0,1-2.43,3.6l.033.065a6.452,6.452,0,0,1,3.24-1,3.578,3.578,0,0,1,3.954,3.5c1.264-.583,3.112-1.425,4.765-2.268a9.761,9.761,0,0,0,2.463-1.75,19.956,19.956,0,0,1,2.268,2.851,1.281,1.281,0,0,1,.26.713c0,.26-.162.39-.486.454a10.357,10.357,0,0,0-1.978.487c-2.106.745-4.213,1.458-6.967,2.592Z"/><path class="cls-2" d="M609.394,23.89a6.778,6.778,0,0,0,.388-1.394,17.976,17.976,0,0,1,2.4.908c.292.129.422.227.422.389a.671.671,0,0,1-.26.518,2.761,2.761,0,0,0-.487.843,18.076,18.076,0,0,1-2.4,4.375c-.324.422-.454.616-.616.616s-.324-.129-.616-.389a7.372,7.372,0,0,0-1.783-1.232A13.535,13.535,0,0,0,609.394,23.89Zm4.634-22.136c1.977,0,2.593-.065,2.82-.065.292,0,.324.033.324.357,0,.194-.065,1.523-.065,4.375V17.278c0,2.853.065,4.181.065,4.376,0,.324-.032.357-.324.357-.227,0-.843-.066-2.82-.066h-2.69c-1.912,0-2.527.066-2.755.066-.323,0-.356-.033-.356-.357,0-.227.065-1.523.065-4.376V6.421c0-2.852-.065-4.149-.065-4.375,0-.324.033-.357.356-.357.228,0,.843.065,2.755.065Zm-2.917,5.932h3.209V4.444h-3.209Zm3.209,5.7V10.278h-3.209V13.39Zm0,2.559h-3.209V19.32h3.209ZM615,22.626c.453-.194.519-.194.647.13a19.545,19.545,0,0,0,2.95,4.731,6.986,6.986,0,0,0-1.75,1.265c-.259.259-.421.389-.583.389-.195,0-.357-.227-.649-.681a24.063,24.063,0,0,1-2.365-4.635c-.1-.324-.065-.389.291-.551Zm21.844,1.62c0,.357-.032.39-.357.39-.13,0-.583-.033-1.653-.033.033.746.065,1.458.065,1.977a3.237,3.237,0,0,1-.746,2.593c-.583.551-1.36.713-3.824.745-.972,0-.972,0-1.2-1a6.007,6.007,0,0,0-.745-1.653,22.746,22.746,0,0,0,2.463.13c.842,0,1-.26,1-.909V24.57h-9.561v1.654c0,2.3.064,3.4.064,3.6,0,.291-.032.324-.356.324h-2.366c-.323,0-.357-.033-.357-.324,0-.227.066-1.167.066-3.533V24.6c-.875,0-1.265.033-1.362.033-.356,0-.388-.033-.388-.39V22.594c0-.324.032-.357.388-.357.1,0,.487.033,1.362.065V18.64c0-2.333-.066-3.37-.066-3.566,0-.323.034-.356.357-.356.227,0,1.2.065,4.052.065h1.847V13.26h-2.788c-3.078,0-4.148.064-4.375.064-.324,0-.356-.032-.356-.356V11.283c0-.324.032-.357.356-.357.194,0,1.232.065,4.019.065V9.273c-1.945.033-2.69.065-2.852.065-.324,0-.356-.032-.356-.389V7.426c0-.291.032-.324.356-.324.162,0,.907.065,2.852.065V5.449c-2.4.032-3.306.065-3.468.065-.324,0-.357-.033-.357-.357V3.569c0-.356.033-.388.357-.388.162,0,1.069.064,3.468.064V3.051a8.509,8.509,0,0,0-.195-2.5c1.07.065,2.107.13,2.982.227.324.032.486.162.486.291a.734.734,0,0,1-.162.487,3.309,3.309,0,0,0-.194,1.621v.064h3.3V3.051a9.856,9.856,0,0,0-.194-2.5c1.069.065,2.106.13,2.981.227.325.032.487.162.487.291a.972.972,0,0,1-.162.487,3.3,3.3,0,0,0-.2,1.621v.064c3.015,0,3.954-.064,4.149-.064.324,0,.356.032.356.388V5.157c0,.324-.032.357-.356.357-.2,0-1.134-.065-4.149-.065V7.167c2.3,0,3.144-.065,3.339-.065.323,0,.357.033.357.324V8.949c0,.357-.034.389-.357.389-.2,0-1.037-.032-3.339-.065v1.718h.519c3.111,0,4.148-.065,4.343-.065.324,0,.356.033.356.357v1.685c0,.324-.032.356-.356.356-.195,0-1.232-.064-4.343-.064h-3.694v1.523h2.074c2.851,0,3.856-.065,4.083-.065.324,0,.357.033.357.356,0,.2-.065,1.427-.065,3.858V22.3c1.069-.032,1.555-.065,1.685-.065.325,0,.357.033.357.357ZM625.534,18.64V16.986h-3.241V18.64Zm0,3.662V20.584h-3.241V22.3Zm3.078-15.135V5.449h-3.3V7.167Zm0,3.824V9.273h-3.3v1.718Zm-.258,6V18.64h3.5V16.986Zm3.5,5.316V20.584h-3.5V22.3Z"/><path class="cls-2" d="M654.089,2.338c2.333,0,3.046-.066,3.24-.066.292,0,.422.066.422.39a18.2,18.2,0,0,0,.194,3.6c1,8.751,4.992,15.427,12.608,20.029a9.558,9.558,0,0,0-1.912,2.464c-.26.518-.389.745-.583.745-.162,0-.39-.162-.746-.422A27.856,27.856,0,0,1,656.2,13a27.27,27.27,0,0,1-11.926,16.141c-.389.226-.583.388-.746.388-.227,0-.356-.259-.68-.777a7.8,7.8,0,0,0-1.912-2.14c8.037-3.954,12.607-11.7,13.028-20.968H649.94c-2.334,0-3.046.064-3.241.064-.356,0-.388-.032-.388-.356V2.629c0-.323.032-.357.388-.357.2,0,.907.066,3.241.066Z"/><path class="cls-2" d="M691.328,8.172c-3.954.745-7.422,1.426-10.89,2.139-1.231.292-1.555.356-2.042.518a1.887,1.887,0,0,1-.712.259.757.757,0,0,1-.616-.485,22.523,22.523,0,0,1-1.2-3.5,44.886,44.886,0,0,0,5.153-.551C685.009,5.968,692.139,4.9,700.5,3.8c.486-.065.648.13.681.356a18.5,18.5,0,0,1,.356,2.853c0,.389-.194.486-.615.486a14.433,14.433,0,0,0-3.954.713c-5.51,1.88-8.265,5.671-8.265,9.561,0,4.18,2.982,6.449,8.621,6.805.519,0,.713.13.713.487a11.572,11.572,0,0,1-.356,2.787c-.1.486-.227.68-.617.68-5.7,0-11.959-3.273-11.959-10.014,0-4.6,2.3-7.713,6.223-10.274Zm6.417,3.5c.162-.13.292-.1.486.064a14.962,14.962,0,0,1,3.08,3.468.328.328,0,0,1-.1.519l-1.36,1.005a.34.34,0,0,1-.552-.1,16.065,16.065,0,0,0-3.274-3.759Zm2.885-2.107c.194-.129.292-.1.486.065a13.554,13.554,0,0,1,3.079,3.338.376.376,0,0,1-.1.584l-1.3,1a.333.333,0,0,1-.552-.1,15.36,15.36,0,0,0-3.24-3.728Z"/><path class="cls-2" d="M719.721,3.99a8.194,8.194,0,0,0-1.134-2.074,22.9,22.9,0,0,1,3.922-.356c.453,0,.713.259.713.584,0,.194-.066.42-.066.615a5.826,5.826,0,0,0,.13.972c.227.843.324,1.134.519,1.686A50.576,50.576,0,0,0,730.416,3.7c.292-.13.454-.1.552.162.194.616.421,1.523.551,2.171a.5.5,0,0,1-.39.583c-2.171.681-4.149,1.167-6.352,1.654.291.81.713,1.815,1.134,2.722a38.139,38.139,0,0,0,5.9-1.685c.324-.162.486-.1.584.194a12.431,12.431,0,0,1,.583,2.14c.065.291.065.453-.259.583a40.041,40.041,0,0,1-5.478,1.588,24.18,24.18,0,0,0,4.245,5.607c.325.291.325.421.162.777a9.379,9.379,0,0,1-1.328,2.01c-.194.227-.324.324-.518.324a.859.859,0,0,1-.454-.2,8.184,8.184,0,0,0-1.912-1.037,15.78,15.78,0,0,0-6.093-1.037c-3.047,0-4.829.94-4.829,2.464,0,2.106,2.755,2.787,7.713,2.787,1.2,0,2.4-.13,3.565-.2.324,0,.422.162.389.421a21.046,21.046,0,0,1-.648,2.949c-.1.325-.227.455-.68.487q-1.12.1-2.334.1c-7.455,0-11.409-2.107-11.409-6.093,0-3.468,2.982-5.639,8.038-5.639a15.013,15.013,0,0,1,5.575.81,37.705,37.705,0,0,1-2.691-3.825,76.271,76.271,0,0,1-8.88.973c-.356,0-.486-.13-.583-.454a16.453,16.453,0,0,1-.584-2.657,56.435,56.435,0,0,0,8.719-.811c-.324-.68-.81-1.782-1.231-2.689a56.2,56.2,0,0,1-7.876.777c-.389,0-.583-.13-.649-.453-.1-.357-.324-1.557-.518-2.594A57.183,57.183,0,0,0,720.5,6.1C720.239,5.352,720.045,4.8,719.721,3.99Z"/><path class="cls-2" d="M754.757,14.037a9.753,9.753,0,0,1,5.153-1.458c4.732,0,8.037,3.111,8.037,7.778,0,5.413-4.375,8.88-11.31,8.88-4.084,0-6.547-1.75-6.547-4.763,0-2.172,2.042-3.954,4.57-3.954a5.9,5.9,0,0,1,6.093,4.731c2.268-1.037,3.306-2.463,3.306-4.926a4.731,4.731,0,0,0-5.089-4.893,13.2,13.2,0,0,0-8.3,3.434c-.94.843-1.847,1.783-2.819,2.755-.227.228-.389.357-.551.357a.8.8,0,0,1-.487-.292A14.659,14.659,0,0,1,744.9,19.58c-.194-.26-.1-.486.162-.746a77.872,77.872,0,0,0,7.681-7.162c2.01-2.074,3.533-3.695,5.024-5.542-1.945.356-4.246.809-6.255,1.231a10,10,0,0,0-1.361.389,2.406,2.406,0,0,1-.648.162.737.737,0,0,1-.713-.551,15.481,15.481,0,0,1-1.135-3.5,15.738,15.738,0,0,0,3.014.065c1.977-.2,4.829-.616,7.357-1.1a8.592,8.592,0,0,0,1.783-.486,1.664,1.664,0,0,1,.616-.26,1.156,1.156,0,0,1,.745.26,12.251,12.251,0,0,1,2.172,2.074,1.129,1.129,0,0,1,.356.777.857.857,0,0,1-.551.779,5.241,5.241,0,0,0-1.426,1.037c-2.366,2.3-4.537,4.569-7,6.935Zm.032,9.237c-.939,0-1.556.551-1.556,1.232,0,1,.875,1.685,2.821,1.685a7.037,7.037,0,0,0,1.49-.13C757.123,24.279,756.15,23.274,754.789,23.274Z"/><path class="cls-2" d="M786.066,5.417a21.951,21.951,0,0,0,.325-3.6,23.706,23.706,0,0,1,3.889,1.07.682.682,0,0,1,.519.648.677.677,0,0,1-.228.486,4.07,4.07,0,0,0-.647,1.232c-.422,1.328-.746,2.527-1.167,3.889a24.5,24.5,0,0,1,2.527-.13c3.047,0,4.7,2.074,4.7,6,0,3.824-.648,8.07-1.751,10.4a4.639,4.639,0,0,1-4.375,3.047,10.572,10.572,0,0,1-3.208-.357.841.841,0,0,1-.584-.907,9.244,9.244,0,0,0-.615-3.014,9.74,9.74,0,0,0,3.565.713c1.069,0,1.555-.389,2.074-1.718a24.958,24.958,0,0,0,1.264-8.037c0-2.3-.421-3.015-1.847-3.015a21.439,21.439,0,0,0-2.723.228,89.506,89.506,0,0,1-6.513,15.232.533.533,0,0,1-.843.292,14.708,14.708,0,0,1-2.237-1.427.665.665,0,0,1-.259-.486.6.6,0,0,1,.13-.357,68.3,68.3,0,0,0,5.93-12.7c-1.263.2-2.3.389-3.176.551a9.517,9.517,0,0,0-1.782.519A.71.71,0,0,1,778,13.552a29.635,29.635,0,0,1-1-3.339c1.426,0,2.852-.1,4.279-.227,1.36-.13,2.559-.292,3.824-.486C785.613,7.652,785.84,6.519,786.066,5.417Zm13.192,2.171c.226-.13.388-.065.615.162a21.689,21.689,0,0,1,5.38,7.876.462.462,0,0,1-.129.647,13.275,13.275,0,0,1-2.432,1.622c-.323.162-.647.128-.745-.26a21.921,21.921,0,0,0-5.315-8.394A27.2,27.2,0,0,1,799.258,7.588Z"/><path class="cls-2" d="M818.672,9.436c.356.162.518.356.518.615a.957.957,0,0,1-.162.486,6.093,6.093,0,0,0-.648,1.718,53.754,53.754,0,0,0-.777,5.9c2.981-3.013,6.87-5.12,10.824-5.12,4.732,0,7.552,2.755,7.552,6.936,0,3.532-2.107,5.866-4.894,7.259a28.121,28.121,0,0,1-8.3,2.237c-.713.1-1,.064-1.3-.422a8.28,8.28,0,0,0-2.2-2.755,26.935,26.935,0,0,0,8.913-1.814c2.625-1.135,3.824-2.82,3.824-4.894,0-1.751-1.1-3.339-3.888-3.339-2.853,0-6.288,1.848-9.334,4.927a8.843,8.843,0,0,0-1.394,1.782c-.2.324-.324.324-.746.227a22.32,22.32,0,0,1-2.2-.875c-.323-.13-.453-.2-.453-.648.194-3.759.615-7.584,1-10.468a20.315,20.315,0,0,0,.291-2.917A18.139,18.139,0,0,1,818.672,9.436Zm.81-8.2a.544.544,0,0,1,.616-.162,21.266,21.266,0,0,1,6.352,3.858c.162.13.227.226.227.356a.9.9,0,0,1-.162.389,21.208,21.208,0,0,1-1.653,2.268c-.13.162-.259.26-.356.26-.13,0-.228-.065-.39-.227a25.817,25.817,0,0,0-6.547-4.213A17.909,17.909,0,0,1,819.482,1.235Z"/><path class="cls-2" d="M869.266,29.691a.449.449,0,0,1-.714.162,70.515,70.515,0,0,0-8.88-4.926c-3.306,2.56-7.681,4.019-13.32,4.829-1,.1-1.038.1-1.394-.81a7.955,7.955,0,0,0-1.231-2.2c5.412-.486,9.4-1.523,12.347-3.273a48.5,48.5,0,0,0-4.763-1.556l-.811,1.069c-.227.26-.389.325-.843.13l-1.976-.81c-.551-.227-.519-.357-.292-.648a24.547,24.547,0,0,0,1.588-2.009c.745-1.135,1.555-2.463,2.334-3.89h-3.274c-2.885,0-3.857.065-4.052.065-.324,0-.356-.032-.356-.356V13c0-.323.032-.356.356-.356.195,0,1.167.065,4.052.065h4.829c.259-.519.519-1.069.745-1.621a16.639,16.639,0,0,0,1.135-3.24,34.056,34.056,0,0,1,3.468.841c.259.066.421.228.421.422a.783.783,0,0,1-.389.583,2.819,2.819,0,0,0-.843,1.232l-.842,1.783h11.472c2.885,0,3.825-.065,4.052-.065.324,0,.356.033.356.356v2.464c0,.324-.032.356-.356.356-.227,0-1.167-.065-4.052-.065h-2.106a21.668,21.668,0,0,1-3.76,6.806,95.449,95.449,0,0,1,8.621,4.181c.162.1.228.162.228.292a.867.867,0,0,1-.195.453ZM866.607,4.023c3.047,0,4.149-.065,4.343-.065.324,0,.357.032.357.324,0,.2-.065.779-.065,1.654V7.264c0,2.852.065,3.339.065,3.533,0,.324-.033.356-.357.356h-2.689c-.324,0-.357-.032-.357-.356V7.005h-20V10.8c0,.324-.032.356-.356.356H844.86c-.324,0-.356-.032-.356-.356,0-.228.065-.681.065-3.533V6.194c0-1.133-.065-1.717-.065-1.912,0-.292.032-.324.356-.324.228,0,1.3.065,4.344.065h6.774V3.634a12.927,12.927,0,0,0-.26-3.079c1.2.033,2.4.1,3.5.195.357.032.518.129.518.291a1.8,1.8,0,0,1-.194.648,6.073,6.073,0,0,0-.162,1.945v.389Zm-11.6,11.732c-.649,1.231-1.361,2.431-2.107,3.63,2.042.551,4.051,1.167,6,1.88a15.434,15.434,0,0,0,3.4-5.51Z"/><path class="cls-2" d="M882.943,12.968c.453.13.519.194.486.518a40.736,40.736,0,0,1-2.982,11.02c-.13.292-.226.389-.68.194L877.4,23.631c-.454-.227-.486-.357-.356-.616a33.962,33.962,0,0,0,3.014-10.4c.064-.388.1-.388.583-.226Zm6.223,11.214c0,.745.194,1.2.615,1.393a7.187,7.187,0,0,0,2.821.324c1.684,0,2.559-.162,3.078-.68.714-.616.94-1.491.94-5.25a11.11,11.11,0,0,0,2.69,1.037c.842.226.842.226.81,1.069-.13,3.662-.615,5.024-1.75,5.931-1.231,1-2.917,1.361-6.028,1.361-3.274,0-4.6-.259-5.38-.777-.875-.552-1.329-1.329-1.329-3.209V12.936a23.059,23.059,0,0,0-.2-3.695,28.657,28.657,0,0,1,3.436.324c.519.065.713.259.713.486a1.054,1.054,0,0,1-.194.584c-.163.291-.227.713-.227,2.3ZM887.577,1.2c.26-.356.324-.389.649-.291a41.894,41.894,0,0,1,8.815,4.213c.324.194.324.259.1.648l-1.362,2.333c-.259.455-.324.487-.616.292a39.147,39.147,0,0,0-8.848-4.6c-.194-.065-.258-.1-.258-.194a1.06,1.06,0,0,1,.162-.389Zm13.969,10.371c.422-.162.486-.194.648.13a44.787,44.787,0,0,1,4.375,9.917c.1.357.066.422-.356.649l-2.463,1.2c-.454.226-.551.226-.648-.13a38.743,38.743,0,0,0-4.181-10.209c-.162-.292-.1-.421.324-.583Z"/><path class="cls-2" d="M919.8,26.159a4.7,4.7,0,1,1-4.7-4.667A4.675,4.675,0,0,1,919.8,26.159Zm-7.39,0a2.69,2.69,0,1,0,2.691-2.69A2.644,2.644,0,0,0,912.405,26.159Z"/><path class="cls-2" d="M38.405,83.162a34.045,34.045,0,0,1-3.63,1.685,2.23,2.23,0,0,1-.745.259c-.259,0-.389-.227-.746-.81a6.352,6.352,0,0,0-1.393-1.62,22.752,22.752,0,0,0,7.584-3.145H37.011c-2.884,0-3.856.066-4.051.066-.292,0-.324-.033-.324-.357V77.393c0-.325.032-.357.324-.357.2,0,1.167.065,4.051.065h5.251a7.9,7.9,0,0,0,1.005-1.458H41.419c-3.144,0-4.246.064-4.473.064-.323,0-.356-.032-.356-.389,0-.194.065-.842.065-2.463V70.23c0-1.653-.065-2.3-.065-2.463,0-.357.033-.389.356-.389.227,0,1.329.065,4.473.065H52.73c3.111,0,4.213-.065,4.44-.065.324,0,.357.032.357.389,0,.162-.065.81-.065,2.463v2.625c0,1.621.065,2.269.065,2.463,0,.357-.033.389-.357.389-.227,0-1.329-.064-4.44-.064H45.957l.259.064c.356.1.551.2.551.356,0,.2-.1.292-.357.422a1.624,1.624,0,0,0-.648.616H57.041c2.917,0,3.856-.065,4.083-.065.324,0,.356.032.356.357V79.24c0,.324-.032.357-.356.357-.227,0-1.166-.066-4.083-.066H54.383c1.912,1.395,4.44,2.2,7.94,2.788a9.46,9.46,0,0,0-1.2,1.945c-.291.615-.389.81-.681.81a3.315,3.315,0,0,1-.713-.162,21.7,21.7,0,0,1-4.018-1.621v2.431c0,3.5.064,4.342.064,4.538,0,.323-.032.356-.356.356H52.989c-.324,0-.356-.033-.356-.356v-.714H41.484v.81c0,.325-.032.357-.357.357H38.7c-.324,0-.357-.032-.357-.357,0-.194.065-1.037.065-4.569Zm2.333-20.257a16.522,16.522,0,0,0-.162-1.976c1.037.032,2.2.1,3.079.194.292.032.454.13.454.292a1.222,1.222,0,0,1-.162.485,3.638,3.638,0,0,0-.162,1.005h6.352a16.732,16.732,0,0,0-.162-1.976c1.037.032,2.2.1,3.079.194.292.032.454.13.454.292a1.222,1.222,0,0,1-.162.485,3.638,3.638,0,0,0-.162,1.005h3.792c2.884,0,3.889-.064,4.084-.064.323,0,.356.032.356.356v1.977c0,.357-.033.389-.356.389-.2,0-1.2-.065-4.084-.065H53.184c.032.519.065.811.065.94,0,.325-.033.357-.389.357h-2.4c-.356,0-.389-.032-.389-.357,0-.129.033-.421.033-.94h-6.32c.032.519.065.811.065.94,0,.325-.033.357-.389.357h-2.4c-.357,0-.389-.032-.389-.357,0-.129.032-.421.032-.94H37.141c-2.885,0-3.889.065-4.083.065-.325,0-.357-.032-.357-.389V63.2c0-.324.032-.356.357-.356.194,0,1.2.064,4.083.064ZM39.9,69.388v1.3H54.221v-1.3Zm14.325,3.046H39.9v1.329H54.221ZM41.484,82.9V84.3H52.633V82.9Zm11.149,4.6V86.111H41.484v1.394Zm-.422-6.612a18.562,18.562,0,0,1-1.425-1.362H43.655a17.04,17.04,0,0,1-1.62,1.362Z"/><path class="cls-2" d="M75.256,69.906c.357.162.519.357.519.615a.966.966,0,0,1-.162.487,6.072,6.072,0,0,0-.649,1.718,54.211,54.211,0,0,0-.777,5.9c2.981-3.014,6.871-5.12,10.825-5.12,4.731,0,7.551,2.755,7.551,6.935,0,3.533-2.106,5.867-4.894,7.26a28.1,28.1,0,0,1-8.3,2.237c-.713.1-1,.064-1.3-.422a8.292,8.292,0,0,0-2.2-2.755,26.908,26.908,0,0,0,8.913-1.815c2.625-1.134,3.824-2.819,3.824-4.893,0-1.751-1.1-3.339-3.889-3.339-2.852,0-6.287,1.848-9.334,4.927a8.851,8.851,0,0,0-1.394,1.782c-.194.324-.324.324-.745.226a21.744,21.744,0,0,1-2.2-.875c-.324-.129-.454-.194-.454-.647.2-3.76.616-7.584,1-10.469a20.14,20.14,0,0,0,.292-2.917A18.225,18.225,0,0,1,75.256,69.906Zm.81-8.2a.543.543,0,0,1,.616-.162A21.268,21.268,0,0,1,83.035,65.4c.162.13.226.227.226.357a.9.9,0,0,1-.161.388,21.13,21.13,0,0,1-1.654,2.269c-.129.162-.259.26-.356.26-.13,0-.227-.066-.389-.228a25.862,25.862,0,0,0-6.547-4.213A17.82,17.82,0,0,1,76.066,61.706Z"/><path class="cls-2" d="M110.973,63.1c.551.129.778.292.778.616a3.136,3.136,0,0,1-.324,1.069,19.426,19.426,0,0,0-.454,3.954c-.324,4.991-.486,8.3-.486,12.543,0,3.274.389,4.019,2.982,4.019,2.884,0,7.389-1.75,11.343-5.964a11.244,11.244,0,0,0,.746,3.079,2.13,2.13,0,0,1,.259.778c0,.291-.13.551-.649,1a18.517,18.517,0,0,1-12.283,4.862c-4.148,0-6.093-1.654-6.093-6.613,0-5.444.292-10.111.454-14a21.538,21.538,0,0,0-.324-5.93A33.574,33.574,0,0,1,110.973,63.1Z"/><path class="cls-2" d="M163.187,60.929c-5.38,4.44-7.292,9.139-7.292,14.843s1.912,10.4,7.292,14.844l-.843,1c-6.223-4.537-8.783-9.463-8.783-15.848s2.56-11.311,8.783-15.848Z"/><path class="cls-2" d="M176.573,73.86c-1.62,0-3.241.033-4.861.129-.292,0-.421-.194-.486-.615a24.457,24.457,0,0,1-.357-3.273,57.494,57.494,0,0,0,5.964.258h11.116A3.563,3.563,0,0,0,189.667,70a.7.7,0,0,1,.421-.194.832.832,0,0,1,.486.227,19.123,19.123,0,0,1,2.172,2.009.954.954,0,0,1,.324.681.782.782,0,0,1-.357.616,3.714,3.714,0,0,0-1.1,1.523c-3.241,6.9-6.968,10.954-13.223,14.324a1.551,1.551,0,0,1-.648.228,1.056,1.056,0,0,1-.713-.39,9.505,9.505,0,0,0-3.014-1.684c6-2.787,11.279-7.26,13.612-13.515Zm2.172-6.968c-1.459,0-3.079.033-4.44.129-.325,0-.422-.194-.454-.712a28.074,28.074,0,0,1-.162-3.112,44.531,44.531,0,0,0,5.315.227h5.834c2.106,0,3.824-.1,5.088-.162.292,0,.389.162.389.518a16.424,16.424,0,0,1,0,2.529c0,.55-.1.68-.584.648-1.069,0-2.592-.065-4.569-.065Z"/><path class="cls-2" d="M219.291,82.027c0,2.237.033,4.149.1,6.742.033.42-.129.55-.486.55a26.55,26.55,0,0,1-3.241,0c-.356,0-.486-.13-.453-.518.032-2.333.129-4.441.129-6.644V74.605a56,56,0,0,1-8.913,6.223.911.911,0,0,1-1.166-.194,12.144,12.144,0,0,0-2.787-1.912,52.054,52.054,0,0,0,10.209-6.645,52.617,52.617,0,0,0,6.9-6.773,9.4,9.4,0,0,0,2.042-3.338,28.879,28.879,0,0,1,3.6,2.268.573.573,0,0,1,.259.487.931.931,0,0,1-.453.713,10.642,10.642,0,0,0-1.945,1.782,51.426,51.426,0,0,1-3.792,4.084Z"/><path class="cls-2" d="M244.086,69.226c-2.107,0-3.954.1-5.348.162-.421.032-.55-.2-.615-.649-.1-.648-.227-2.333-.292-3.273a56.789,56.789,0,0,0,6.223.226h11.57a3.1,3.1,0,0,0,1.782-.323.909.909,0,0,1,.487-.13,1.588,1.588,0,0,1,.615.162,10,10,0,0,1,2.366,2.139.812.812,0,0,1,.227.551,1.1,1.1,0,0,1-.454.81,3.9,3.9,0,0,0-.745,1.264A38.145,38.145,0,0,1,253.614,80.7a36.325,36.325,0,0,1-9.2,7.714,1.572,1.572,0,0,1-.875.292,1.141,1.141,0,0,1-.81-.356,9.644,9.644,0,0,0-3.014-1.784,31.327,31.327,0,0,0,10.6-8.1,27.3,27.3,0,0,0,5.477-9.236Z"/><path class="cls-2" d="M286.933,65.563a4.747,4.747,0,0,0,2.236-.292.542.542,0,0,1,.357-.129,1.071,1.071,0,0,1,.551.259,11.849,11.849,0,0,1,2.107,2.269.867.867,0,0,1,.162.421.894.894,0,0,1-.422.648,5.971,5.971,0,0,0-1.2,1.426,51.224,51.224,0,0,1-4.148,6.061,76.25,76.25,0,0,1,8.977,7.843.739.739,0,0,1,.259.453.8.8,0,0,1-.227.487,17.38,17.38,0,0,1-2.171,2.2.558.558,0,0,1-.389.194.662.662,0,0,1-.454-.259,58.97,58.97,0,0,0-8.426-8.038,46.651,46.651,0,0,1-10.89,8.557,2.062,2.062,0,0,1-.745.259.725.725,0,0,1-.551-.292,8.888,8.888,0,0,0-2.723-2.107,39.361,39.361,0,0,0,11.409-8.264,39.782,39.782,0,0,0,6.093-8.135l-8.362.032c-1.686,0-3.371.066-5.121.2-.259.033-.357-.2-.421-.551a18.882,18.882,0,0,1-.292-3.37c1.75.129,3.371.129,5.478.129Z"/><path class="cls-2" d="M319.085,74.832a18.508,18.508,0,0,1-1.912,8.265,16.344,16.344,0,0,1-5.7,6.126,1.983,1.983,0,0,1-.973.388.953.953,0,0,1-.68-.324,8.526,8.526,0,0,0-2.885-1.718c3.176-1.717,5.089-3.305,6.45-5.768,1.2-2.14,1.523-3.89,1.653-6.969h-6.158c-1.621,0-3.209.1-4.861.194-.292.034-.39-.194-.422-.615a19.509,19.509,0,0,1-.259-3.111c1.815.162,3.63.162,5.509.162H323.4c2.527,0,4.407-.066,6.319-.194.325,0,.357.194.357.647.032.422.032,2.074,0,2.5,0,.421-.195.551-.487.551-1.685-.065-3.921-.13-6.157-.13Zm-6.417-7.519c-1.491,0-2.788.065-4.6.13-.42,0-.518-.162-.55-.551-.1-.778-.13-1.945-.227-3.112,2.269.13,3.921.162,5.38.162h7.26c1.815,0,3.856-.032,5.477-.129.324,0,.389.195.389.616a14.6,14.6,0,0,1,0,2.366c0,.453-.065.615-.421.615-1.751-.064-3.663-.1-5.445-.1Z"/><path class="cls-2" d="M343.621,78.073a25.919,25.919,0,0,0-4.765.389c-.389,0-.648-.194-.745-.681a35.009,35.009,0,0,1-.486-3.921,41.532,41.532,0,0,0,7,.389h10.436c2.463,0,4.959-.064,7.454-.1.486-.032.584.066.584.454a23.83,23.83,0,0,1,0,3.047c0,.389-.13.519-.584.486-2.431-.033-4.828-.065-7.227-.065Z"/><path class="cls-2" d="M372.855,71.559c.163-.227.325-.389.616-.325a22.5,22.5,0,0,1,6.223,3.177c.227.162.356.292.356.486a.979.979,0,0,1-.129.357,13.242,13.242,0,0,1-1.426,2.463c-.162.194-.292.324-.422.324a.624.624,0,0,1-.388-.194,28.453,28.453,0,0,0-6.547-3.534C371.948,73.018,372.467,72.077,372.855,71.559Zm5.251,12.024a54.333,54.333,0,0,0,8.88-5.606,59,59,0,0,0,9.334-9.043,16.222,16.222,0,0,0,.94,3.629,1.6,1.6,0,0,1,.162.617,1.007,1.007,0,0,1-.357.745,60.308,60.308,0,0,1-8.232,7.486,75.216,75.216,0,0,1-9.69,6.094,10.636,10.636,0,0,0-1.88,1.1.714.714,0,0,1-.518.259.832.832,0,0,1-.648-.388,20.493,20.493,0,0,1-2.4-3.306A14.948,14.948,0,0,0,378.106,83.583ZM376.777,64.1c.227-.388.421-.453.81-.258a22.013,22.013,0,0,1,6.093,3.6.51.51,0,0,1,.259.421.783.783,0,0,1-.129.421,13.892,13.892,0,0,1-1.653,2.432.362.362,0,0,1-.324.194.838.838,0,0,1-.486-.227A31.374,31.374,0,0,0,375.06,66.7C375.61,65.854,376.226,64.947,376.777,64.1Zm14.844-1c.162-.129.291-.1.486.065a14.921,14.921,0,0,1,3.079,3.468.327.327,0,0,1-.1.518l-1.36,1.005a.34.34,0,0,1-.552-.1A16.07,16.07,0,0,0,389.9,64.3Zm2.884-2.107c.195-.13.292-.1.486.066A13.531,13.531,0,0,1,398.07,64.4a.374.374,0,0,1-.1.583l-1.3,1a.333.333,0,0,1-.552-.1,15.342,15.342,0,0,0-3.24-3.728Z"/><path class="cls-2" d="M403.679,59.924c6.222,4.537,8.782,9.464,8.782,15.848s-2.56,11.311-8.782,15.848l-.843-1c5.38-4.44,7.292-9.139,7.292-14.844s-1.912-10.4-7.292-14.843Z"/><path class="cls-2" d="M446.72,65.888a22.083,22.083,0,0,0,.324-3.6,23.725,23.725,0,0,1,3.89,1.069.683.683,0,0,1,.518.649.675.675,0,0,1-.227.486,4.085,4.085,0,0,0-.648,1.232c-.422,1.328-.746,2.527-1.167,3.888a25.12,25.12,0,0,1,2.593-.13c3.014,0,4.635,2.108,4.635,6.256,0,3.5-.649,7.811-1.75,10.144a4.642,4.642,0,0,1-4.376,3.047,8.561,8.561,0,0,1-3.37-.487.865.865,0,0,1-.584-.907,9.262,9.262,0,0,0-.616-3.015,8.62,8.62,0,0,0,3.727.843c1.07,0,1.556-.388,2.074-1.718a25.006,25.006,0,0,0,1.265-8.069c0-2.269-.422-2.982-1.848-2.982a21.4,21.4,0,0,0-2.722.227,89.479,89.479,0,0,1-6.515,15.233.531.531,0,0,1-.842.292,14.774,14.774,0,0,1-2.236-1.427.667.667,0,0,1-.26-.486.608.608,0,0,1,.13-.357,68.335,68.335,0,0,0,5.931-12.7c-1.264.194-2.3.389-3.176.551a9.522,9.522,0,0,0-1.783.518.71.71,0,0,1-1.037-.421,29.5,29.5,0,0,1-1-3.338c1.425,0,2.852-.1,4.277-.227,1.362-.13,2.561-.292,3.825-.486C446.266,68.123,446.493,66.989,446.72,65.888Zm12.835,2.171c.226-.13.388-.065.615.162a21.68,21.68,0,0,1,5.38,7.876.463.463,0,0,1-.129.647,13.219,13.219,0,0,1-2.432,1.621c-.323.162-.647.129-.745-.26a21.925,21.925,0,0,0-5.315-8.393A27.2,27.2,0,0,1,459.555,68.059Zm.875-4.538c.162-.129.291-.1.485.065a14.9,14.9,0,0,1,3.079,3.468.326.326,0,0,1-.1.518l-1.361,1a.339.339,0,0,1-.551-.1,16.065,16.065,0,0,0-3.273-3.759Zm2.883-2.106c.195-.13.292-.1.487.064a13.57,13.57,0,0,1,3.079,3.338.375.375,0,0,1-.1.584l-1.3,1.005a.331.331,0,0,1-.55-.1,15.347,15.347,0,0,0-3.242-3.728Z"/><path class="cls-3" d="M491.608,76.081c-6.616,1.731-10.834,3.33-14.608,4.662a5.071,5.071,0,0,1-1.288.489,1.3,1.3,0,0,1-.888-.888,34.064,34.064,0,0,1-1.466-3.641c.978-.267,1.377-.4,2.31-.711a21.755,21.755,0,0,0,4.263-2.619,146.276,146.276,0,0,0,12.654-11.634c-2.708.755-5.106,1.2-7.9,1.732-.666.132-1.022.177-1.688.355a4.657,4.657,0,0,1-1.243.444c-.4,0-.755-.4-1.065-.977a25.576,25.576,0,0,1-1.6-4.4,29.065,29.065,0,0,0,4.4.089c2.976-.222,6.217-.755,10.124-1.332a5.816,5.816,0,0,0,2.354-.755,1.42,1.42,0,0,1,.844-.311c.4,0,.666.223,1.2.666a14.805,14.805,0,0,1,2.176,2.221,2.017,2.017,0,0,1,.532,1.243c0,.444-.267.755-.8,1.021a10.634,10.634,0,0,0-1.82,1.332c-4.618,4.085-8.393,7.371-13.454,11.19l.088.133a173.426,173.426,0,0,1,21.4-4.884c.578-.089.755.221.844.71a19.27,19.27,0,0,1,.488,3.6c.045.445-.222.578-.71.622a31.123,31.123,0,0,0-8.259,1.421c-5.151,1.777-7.593,4.929-7.593,8.126,0,4.263,4.663,5.55,11.1,5.55.443,0,.71.223.666.8-.089,1.109-.444,2.931-.577,3.729-.089.711-.356.977-.978.977a25.608,25.608,0,0,1-2.929-.266c-8.349-.843-11.99-4.663-11.99-10.035a10.361,10.361,0,0,1,5.417-8.57Z"/><path class="cls-3" d="M540.894,63.382c.488-.133.666.089.71.444.133.977.266,2.265.311,3.2.044.578-.089.71-.666.843a70.866,70.866,0,0,1-7.727,1.688c-3.019,9.857-5.284,16.651-8.126,24.022-.221.621-.488.577-.976.444-.444-.177-2.62-1.11-3.552-1.643a.714.714,0,0,1-.355-.888,166.638,166.638,0,0,0,7.681-21.047c-2.575.266-5.683.489-7.77.489-.666,0-.844-.134-.933-.711-.178-.933-.4-2.443-.622-4.04a20.689,20.689,0,0,0,3.286.132,59.773,59.773,0,0,0,7.194-.444c.444-1.775.8-3.729,1.11-5.55a30.483,30.483,0,0,0,.267-4.085,25.827,25.827,0,0,1,5.594,1.244.737.737,0,0,1,.489.709,1.064,1.064,0,0,1-.223.711,8.464,8.464,0,0,0-.932,1.777c-.444,1.6-.755,3.107-1.066,4.218C536.32,64.581,538.718,64,540.894,63.382Zm-1.732,21.224c.443,0,.621.178.666.622.355,3.242,2.53,4.174,6.793,4.174a66.139,66.139,0,0,0,7.46-.622c.356-.044.488.045.533.4a27.719,27.719,0,0,1,.356,3.863c.044.533,0,.666-.711.711a49.076,49.076,0,0,1-6.172.488c-5.684,0-8.7-.8-10.7-2.887-1.421-1.42-1.909-3.507-2-6.083A22.631,22.631,0,0,1,539.162,84.606Zm-.489-11.766c0-.622.134-.755.8-.888a46.3,46.3,0,0,1,8.658-1.021,32.38,32.38,0,0,1,5.2.443c.622.089.755.134.755.667a31.374,31.374,0,0,1,.045,3.552c0,.755-.223.932-.844.8a29.671,29.671,0,0,0-5.506-.533,49.064,49.064,0,0,0-8.925,1.022C538.762,75.326,538.673,73.728,538.673,72.84Zm10.258-12.655c.221-.178.4-.133.666.088a20.472,20.472,0,0,1,4.217,4.751.448.448,0,0,1-.132.711l-1.866,1.376a.463.463,0,0,1-.754-.133,22.057,22.057,0,0,0-4.485-5.15Zm3.951-2.886c.266-.178.4-.134.667.089a18.557,18.557,0,0,1,4.218,4.573.515.515,0,0,1-.133.8l-1.777,1.376A.455.455,0,0,1,555.1,64a21.04,21.04,0,0,0-4.441-5.107Z"/><path class="cls-3" d="M575.924,60.851a14.682,14.682,0,0,0-.089-4.307,29.051,29.051,0,0,1,5.329.933c.577.177.888.443.888.8a1.457,1.457,0,0,1-.311.711,4.615,4.615,0,0,0-.755,1.643c-.222,1.2-.4,2.087-.622,3.641a81.192,81.192,0,0,0,8.348-1.643c.622-.178.844-.133.933.444a20.168,20.168,0,0,1,.31,3.286c0,.489-.133.621-.532.71-3.819.844-6.217,1.332-9.946,1.821-.623,3.685-1.244,6.661-2.043,9.768a19.208,19.208,0,0,1,12.744-4.706c5.9,0,9.9,3.819,9.9,8.392a9.949,9.949,0,0,1-5.061,8.969c-2.664,1.732-6.484,2.8-11.324,3.552a20.5,20.5,0,0,1-3.285.312c-.444,0-.755-.223-1.11-1.067a8.494,8.494,0,0,0-2.4-3.152c6.483-.4,9.192-.977,12.744-2.442,3.418-1.421,5.062-3.463,5.062-6.261,0-2.309-1.687-4.218-5.062-4.218a14.763,14.763,0,0,0-11.678,5.506c-.4.577-.844,1.11-1.243,1.687-.312.533-.445.71-.844.667a12.473,12.473,0,0,1-3.33-.978c-.711-.311-.978-.488-.978-.888a3.035,3.035,0,0,1,.178-.887c.223-.755.4-1.421.577-2.087.978-3.909,1.6-7.194,2.354-11.634-2.4.178-5.2.4-7.46.4a.756.756,0,0,1-.843-.621c-.134-.533-.444-2.4-.622-3.863,3.464,0,6.217-.134,9.636-.4C575.613,63.382,575.791,61.917,575.924,60.851Z"/><path class="cls-2" d="M610.822,82.448a.7.7,0,0,1,.487-.259.655.655,0,0,1,.42.2,24.127,24.127,0,0,1,6.45,5.93c.194.26.227.357.227.487,0,.162-.065.292-.324.518L616.1,91.005c-.226.194-.356.292-.453.292-.162,0-.292-.066-.454-.324a24.214,24.214,0,0,0-6.125-6.191c-.194-.13-.292-.226-.292-.324s.065-.194.227-.389Z"/><path class="cls-2" d="M647.317,89.708c-2.852,0-3.824.033-4.018.033-.292,0-.324,0-.324-.324V87.181c0-.325.032-.357.324-.357.194,0,1.166.065,4.018.065h4.149c-.292-.778-.616-1.492-.941-2.172-1.62.033-2.333.065-2.5.065-.324,0-.356-.032-.356-.356,0-.227.064-.681.064-1.88V80.407c0-1.232-.064-1.653-.064-1.88,0-.324.032-.356.356-.356.227,0,1.329.064,4.408.064H662.55c3.079,0,4.18-.064,4.408-.064.323,0,.356.032.356.356,0,.195-.065.648-.065,1.88v2.139c0,1.2.065,1.685.065,1.88,0,.324-.033.356-.356.356-.162,0-.876-.032-2.432-.065-.356.746-.713,1.491-1.1,2.172H667.8c2.852,0,3.792-.065,3.986-.065.292,0,.324.032.324.357v2.236c0,.324-.032.324-.324.324-.194,0-1.134-.033-3.986-.033Zm.583-12.736c-2.949,0-3.921.064-4.116.064-.356,0-.388-.032-.388-.324V74.67c0-.357.032-.389.388-.389.2,0,1.167.065,4.116.065h19.317c2.949,0,3.922-.065,4.116-.065.324,0,.356.032.356.389v2.042c0,.292-.032.324-.356.324-.194,0-1.167-.064-4.116-.064Zm11.279-13.839a19.069,19.069,0,0,0-.129-2.27,25.29,25.29,0,0,1,2.917.162c.323.034.421.13.421.292a1.146,1.146,0,0,1-.13.551,3.2,3.2,0,0,0-.162,1.265H664.2c3.176,0,4.31-.066,4.5-.066.324,0,.356.033.356.357,0,.194-.065.908-.065,2.69v4.051c0,1.75.065,2.464.065,2.658,0,.357-.032.389-.356.389-.195,0-1.329-.065-4.5-.065H651.012c-3.176,0-4.311.065-4.537.065-.292,0-.325-.032-.325-.389,0-.194.066-.908.066-2.658V66.114c0-1.782-.066-2.463-.066-2.69,0-.324.033-.357.325-.357.226,0,1.361.066,4.537.066h1.783a16.444,16.444,0,0,0-.162-2.27,26.343,26.343,0,0,1,2.949.162c.291.034.421.13.421.292a1.521,1.521,0,0,1-.13.551,3.021,3.021,0,0,0-.194,1.265Zm-6.384,4.051v-1.75h-3.5v1.75Zm0,3.727V69.16h-3.5v1.751Zm11.084,9.625h-12.8v1.912h12.8Zm-3.922,6.353a16.7,16.7,0,0,0,1.069-2.172h-6.967a15.194,15.194,0,0,1,.875,2.172Zm-4.278-19.7h3.5v-1.75h-3.5Zm3.5,1.976h-3.5v1.751h3.5Zm2.917-3.726v1.75h3.792v-1.75Zm3.792,3.726H662.1v1.751h3.792Z"/><path class="cls-2" d="M686.793,65.888a22.083,22.083,0,0,0,.324-3.6,23.7,23.7,0,0,1,3.89,1.069.683.683,0,0,1,.518.649.675.675,0,0,1-.227.486,4.085,4.085,0,0,0-.648,1.232c-.421,1.328-.746,2.527-1.167,3.888a24.806,24.806,0,0,1,2.528-.13c3.047,0,4.7,2.075,4.7,6,0,3.825-.648,8.071-1.751,10.4a4.639,4.639,0,0,1-4.375,3.047,10.568,10.568,0,0,1-3.208-.357.841.841,0,0,1-.584-.907,9.281,9.281,0,0,0-.615-3.015,9.715,9.715,0,0,0,3.564.713c1.07,0,1.556-.388,2.074-1.718a24.945,24.945,0,0,0,1.265-8.037c0-2.3-.422-3.014-1.848-3.014a21.4,21.4,0,0,0-2.722.227A89.562,89.562,0,0,1,682,88.056a.532.532,0,0,1-.843.292,14.774,14.774,0,0,1-2.236-1.427.667.667,0,0,1-.26-.486.6.6,0,0,1,.13-.357,68.335,68.335,0,0,0,5.931-12.7c-1.264.194-2.3.389-3.176.551a9.507,9.507,0,0,0-1.782.518.71.71,0,0,1-1.037-.421,29.462,29.462,0,0,1-1-3.338c1.426,0,2.851-.1,4.278-.227,1.36-.13,2.56-.292,3.824-.486C686.34,68.123,686.566,66.989,686.793,65.888Zm13.191,2.171c.227-.13.389-.065.616.162a21.678,21.678,0,0,1,5.379,7.876.463.463,0,0,1-.128.647,13.253,13.253,0,0,1-2.432,1.621c-.323.162-.648.129-.745-.26a21.927,21.927,0,0,0-5.316-8.393A27.322,27.322,0,0,1,699.984,68.059Z"/><path class="cls-2" d="M718.136,64.591c.551.292.745.486.745.778,0,.227-.066.323-.486.972a7.614,7.614,0,0,0-.778,2.3,52.457,52.457,0,0,0-1.361,10.467,31.188,31.188,0,0,0,.194,3.792c.681-1.491,1.264-2.56,2.2-4.829a8.414,8.414,0,0,0,1.134,2.042,1.28,1.28,0,0,1,.227.487.9.9,0,0,1-.162.518,31.6,31.6,0,0,0-1.847,4.894,3.62,3.62,0,0,0-.1,1.005c0,.388.066.648.066.907,0,.226-.13.356-.422.422a16.078,16.078,0,0,1-2.657.517c-.228.033-.357-.129-.422-.356a30.364,30.364,0,0,1-1.491-9.657,61.911,61.911,0,0,1,1.1-10.631,26.089,26.089,0,0,0,.583-4.829A14.316,14.316,0,0,1,718.136,64.591Zm6.935,15.264c.259-.032.325.13.325.487.194,2.236,1.75,3.047,5.282,3.047a46.345,46.345,0,0,0,6.19-.422c.324-.032.389,0,.454.422a24.038,24.038,0,0,1,.2,2.787c0,.388,0,.421-.551.486a43.593,43.593,0,0,1-5.283.357c-4.8,0-7.034-.779-8.427-2.691a7.139,7.139,0,0,1-1.134-4.213Zm-1.815-12.121c.032-.388.13-.486.454-.55a51.659,51.659,0,0,1,7.033-.583c1.945,0,3.435.064,4.8.194.681.032.746.1.746.421,0,.972,0,1.847-.065,2.755-.032.292-.13.422-.421.388-1.945-.129-3.63-.194-5.283-.194a39.537,39.537,0,0,0-7.357.746C723.191,69.1,723.191,68.285,723.256,67.734Z"/><path class="cls-2" d="M760.2,66.6c.292-.1.421-.1.486.258a17.44,17.44,0,0,1,.291,2.625c0,.292-.128.357-.388.39-1.75.356-3.338.583-5.348.875a89.583,89.583,0,0,1-6.319,13.9c-.13.227-.228.325-.357.325a.894.894,0,0,1-.389-.163,15.532,15.532,0,0,1-2.237-1.652c-.161-.13-.226-.227-.226-.357a.618.618,0,0,1,.162-.389,65.339,65.339,0,0,0,5.606-11.311c-1.231.065-2.235.065-3.24.065-.713,0-.973,0-1.783-.032-.323,0-.389-.1-.453-.519a16.848,16.848,0,0,1-.324-2.755c1.329.1,2.074.13,3.013.13,1.265,0,2.237-.032,3.728-.162.388-1.361.616-2.463.843-3.63a12.577,12.577,0,0,0,.194-2.625,29.859,29.859,0,0,1,3.792.681c.324.064.518.259.518.485a.8.8,0,0,1-.292.616,3.56,3.56,0,0,0-.518,1.2c-.227.777-.486,1.782-.777,2.754A34.863,34.863,0,0,0,760.2,66.6Zm.907,8.685a11.386,11.386,0,0,0-.258-2.3,17.459,17.459,0,0,1,3.532.616.5.5,0,0,1,.454.518,4.19,4.19,0,0,1-.194.681,3.349,3.349,0,0,0-.13,1.329,42.2,42.2,0,0,0,.356,5.51,25.391,25.391,0,0,1,5.834,3.013c.324.227.357.357.194.681a19.884,19.884,0,0,1-1.491,2.625c-.1.162-.194.228-.292.228s-.194-.066-.323-.2a24.15,24.15,0,0,0-3.954-2.721c0,3.24-2.334,4.731-6.028,4.731-3.566,0-5.964-1.814-5.964-4.6,0-2.819,2.334-4.731,6-4.731a16.692,16.692,0,0,1,2.56.194C761.209,78.786,761.144,76.81,761.111,75.286Zm-2.3,8.167c-1.621,0-2.885.649-2.885,1.88,0,1.037.907,1.556,2.755,1.556,1.75,0,2.819-.94,2.819-2.3a3.792,3.792,0,0,0-.032-.649A8.268,8.268,0,0,0,758.811,83.453Zm6.028-15.589c.194-.324.356-.356.681-.226a25.233,25.233,0,0,1,6.351,3.046c.2.129.292.227.292.356a.767.767,0,0,1-.13.39,19.681,19.681,0,0,1-1.36,2.4c-.1.161-.2.227-.292.227a.454.454,0,0,1-.292-.13,27.959,27.959,0,0,0-6.709-3.532C763.931,69.42,764.417,68.447,764.839,67.864Z"/><path class="cls-2" d="M785.064,65.045a11.893,11.893,0,0,0-.324-3.145,18.19,18.19,0,0,1,3.695.617c.518.129.68.324.68.648a1.3,1.3,0,0,1-.226.615,3.94,3.94,0,0,0-.292,1.589c-.065,1.069-.1,1.75-.162,3.24a10.526,10.526,0,0,1,1.231.713.566.566,0,0,1,.292.454.677.677,0,0,1-.162.357c-.615,1.005-1.167,2.01-1.686,3.079v.162c1.037-1.167,1.75-1.912,3.015-3.144,2.561-2.43,4.343-3.176,5.866-3.176,2.431,0,3.889,1.621,3.889,4.31,0,.941-.032,2.917-.259,5.9-.162,2.982-.324,4.44-.324,5.445,0,1.62.389,1.848,1.2,1.848a4.232,4.232,0,0,0,2.4-1.167,8.551,8.551,0,0,0,1.944-2.723,8.073,8.073,0,0,0,1.2,2.431,1.215,1.215,0,0,1,.357.745.954.954,0,0,1-.227.552c-1.361,1.912-3.436,3.726-6.223,3.726s-4.148-1.588-4.148-4.958c0-.876.1-2.69.259-5.445.162-2.852.226-3.922.226-5.316,0-1.425-.356-2.138-1-2.138-.94,0-2.042.68-3.63,2.106-1.329,1.3-2.852,2.819-4.538,4.765.034,4.083.13,8.75.13,12.283a.4.4,0,0,1-.454.453,24.008,24.008,0,0,1-2.527.13c-.324,0-.454-.162-.454-.551,0-2.949,0-6.352.1-9.269-1.264,1.977-2.56,3.986-3.759,5.834-.13.226-.227.324-.357.324a.9.9,0,0,1-.389-.162,10.4,10.4,0,0,1-2.009-1.816.5.5,0,0,1-.2-.356.847.847,0,0,1,.292-.551c2.69-3.435,4.375-5.736,6.352-8.523,0-.811,0-1.426.033-2.2a30.556,30.556,0,0,0-3.89,1.3c-.292.129-.615.454-.939.454a.782.782,0,0,1-.648-.519,16.957,16.957,0,0,1-1.264-2.981,14.808,14.808,0,0,0,2.365-.292c1.1-.259,2.917-.713,4.57-1.232Z"/><path class="cls-2" d="M824.54,77.1a57.441,57.441,0,0,1-6.676-.129c-.357,0-.486-.13-.519-.552a19.429,19.429,0,0,1-.2-2.754,45.724,45.724,0,0,0,7.293.259c-.033-1.232-.033-2.495-.065-3.728a53.286,53.286,0,0,1-7.746-.161c-.357,0-.519-.13-.551-.454-.1-.811-.162-1.588-.227-2.917a74.126,74.126,0,0,0,8.492.324c0-1.2-.033-2.042-.065-3.143a9.349,9.349,0,0,0-.389-2.172,18.758,18.758,0,0,1,4.084.584.66.66,0,0,1,.356.971,4.164,4.164,0,0,0-.486,1.556c-.033.649-.033,1.1-.065,2.074a54.578,54.578,0,0,0,7.1-.971c.389-.1.518,0,.551.388a17.27,17.27,0,0,1,.162,2.367c0,.42-.1.485-.357.517a65.9,65.9,0,0,1-7.486.843c0,1.3.032,2.5.032,3.663,2.463-.162,4.019-.486,6.353-.843.388-.1.485-.032.518.259.033.616.1,1.686.1,2.658,0,.323-.13.421-.486.453a58.7,58.7,0,0,1-6.352.779c.065,1.49.129,3.079.227,4.569a28.912,28.912,0,0,1,8.589,3.922c.323.291.323.389.226.777a9.7,9.7,0,0,1-1.426,2.4.477.477,0,0,1-.422.259.5.5,0,0,1-.356-.162,25.746,25.746,0,0,0-6.449-3.7c-.032,3.5-2.139,4.927-6.579,4.927-4.214,0-6.612-1.848-6.612-4.537,0-2.626,2.56-4.6,6.482-4.6.81,0,1.588,0,3.111.13C824.638,79.531,824.572,78.2,824.54,77.1Zm-2.787,6.546c-2.366,0-3.5.681-3.5,1.718,0,.843.972,1.459,3.208,1.459a4,4,0,0,0,2.949-.972,3.106,3.106,0,0,0,.357-1.815A13.976,13.976,0,0,0,821.753,83.647Z"/><path class="cls-2" d="M859.577,64.17a10.312,10.312,0,0,0-.389-2.366,32.624,32.624,0,0,1,3.791.454c.552.1.909.323.909.615a1.364,1.364,0,0,1-.292.745,3.377,3.377,0,0,0-.259.941c-.033.42-.033.842-.066,2.074,3.5-.13,6.839-.162,9.951-.162.388,0,.453.064.486.486.032.81.032,1.652,0,2.463,0,.356-.162.454-.552.421-3.37-.1-6.513-.1-9.885-.065,0,1.978,0,4.052.033,6.029a10.1,10.1,0,0,1,.486,3.209,12.1,12.1,0,0,1-5.769,10.467,3.082,3.082,0,0,1-1.264.617,1.841,1.841,0,0,1-.972-.487,7.226,7.226,0,0,0-2.463-1.3c3.792-1.684,6.061-4.407,6.644-7.129a3.742,3.742,0,0,1-3.047,1.3c-2.56,0-4.5-1.847-4.5-4.959a4.723,4.723,0,0,1,4.895-4.861,3.968,3.968,0,0,1,2.462.648c0-1.134-.032-2.236-.032-3.306-4.084.227-8.653.616-11.214.973-.712.1-1.231.388-1.523.388-.324,0-.454-.13-.551-.453a22.6,22.6,0,0,1-.81-3.273,21.406,21.406,0,0,0,3.954-.13c1.976-.162,6.158-.422,10.047-.649C859.609,65.854,859.609,65.045,859.577,64.17ZM855.429,77.3a2.009,2.009,0,0,0,2.074,2.2,2.082,2.082,0,0,0,2.2-2.236,1.944,1.944,0,0,0-2.14-2.075A2.063,2.063,0,0,0,855.429,77.3Z"/><path class="cls-2" d="M887.937,86.63a4.7,4.7,0,1,1-4.7-4.667A4.675,4.675,0,0,1,887.937,86.63Zm-7.39,0a2.69,2.69,0,1,0,2.69-2.691A2.643,2.643,0,0,0,880.547,86.63Z"/></svg>