<svg id="レイヤー_1" data-name="レイヤー 1" xmlns="http://www.w3.org/2000/svg" viewBox="0 0 835 432"><defs><style>.cls-1{fill:#f7f7f7;}.cls-2{fill:#4c4345;}.cls-11,.cls-3,.cls-6{fill:#fff;}.cls-4{fill:#ecff00;}.cls-5{fill:#ffae2d;}.cls-10,.cls-11,.cls-12,.cls-6,.cls-8{stroke:#231815;stroke-linecap:round;stroke-linejoin:round;}.cls-6,.cls-8{stroke-width:1.54px;}.cls-10,.cls-7{fill:#231815;}.cls-12,.cls-8{fill:none;}.cls-9{fill:#c8c9ca;}.cls-10,.cls-11,.cls-12{stroke-width:1.53px;}.cls-13{fill:#ff8ddc;}.cls-14{fill:#66ebd6;}</style></defs><rect class="cls-1" x="358.42" y="59.81" width="170.17" height="88.54" rx="9.78"/><rect class="cls-1" x="358.42" y="208.4" width="170.17" height="88.54" rx="9.78"/><rect class="cls-1" x="156.14" y="59.81" width="170.17" height="88.54" rx="9.78"/><rect class="cls-1" x="156.14" y="208.4" width="170.17" height="88.54" rx="9.78"/><path class="cls-2" d="M306.08,19.62a19.69,19.69,0,0,1-19.65,19.61H202.34a19.62,19.62,0,1,1,0-39.23h84.09A19.69,19.69,0,0,1,306.08,19.62Z"/><path class="cls-3" d="M224.74,17.88c0-.49,0-.82-.06-1.28.46,0,.95.06,1.54.06H231V13.79h-4.62a20.76,20.76,0,0,1-3.64,4.36,10.1,10.1,0,0,0-1.64-2,13.89,13.89,0,0,0,4.31-5.55A6.6,6.6,0,0,0,226,9l2.63.53c-.13.27-.18.34-.33.67,0,.06-.24.53-.64,1.39H238a15.61,15.61,0,0,0,2.26-.11V13.9a16.11,16.11,0,0,0-2.26-.11h-4.51v2.87H237a16,16,0,0,0,2.28-.11V18.9a19.78,19.78,0,0,0-2.21-.09h-3.63v3.58h5.13a17.77,17.77,0,0,0,2.41-.13v2.52a18.49,18.49,0,0,0-2.41-.13h-5.13v2.76a13.26,13.26,0,0,0,.14,2.37h-2.7a16,16,0,0,0,.13-2.41V24.65h-7.42a18.7,18.7,0,0,0-2.41.13V22.26a18.18,18.18,0,0,0,2.41.13h1.12Zm6.3,4.51V18.81h-4v3.58Z"/><path class="cls-3" d="M251.06,22.57c.91-.33,1.19-.42,2.25-.84v-9.8a17,17,0,0,0-.13-2.54h2.65a16.5,16.5,0,0,0-.13,2.54V27.57a13.34,13.34,0,0,0,2.37-1.75,17.08,17.08,0,0,0,2.43-2.68c-1.71-2.8-2.5-5.48-3.12-10.37a7.45,7.45,0,0,0-1.15.11v-2.5a17.19,17.19,0,0,0,2.32.14h6.81a17.19,17.19,0,0,0,1.77-.09,7.27,7.27,0,0,0-.11.79,29.23,29.23,0,0,1-3.65,11.86,18,18,0,0,0,4.86,4.13A11.77,11.77,0,0,0,267,29.69a24.39,24.39,0,0,1-5-4.49A19.6,19.6,0,0,1,257,29.82a5.63,5.63,0,0,0-1.3-2.1,15.17,15.17,0,0,0,.13,1.93h-2.65a17.34,17.34,0,0,0,.13-2.55V24c-1.23.51-2.78,1.1-4.53,1.7-.46.15-.57.2-1,.38l-.44-2.55a10,10,0,0,0,1.44-.31V14a17,17,0,0,0-.13-2.54h2.58a16.5,16.5,0,0,0-.13,2.54Zm8.6-9.8a28.52,28.52,0,0,0,.64,3.83,16.21,16.21,0,0,0,1.59,4.31,23.12,23.12,0,0,0,2.43-8.14Z"/><path class="cls-2" d="M517.7,19.62A19.7,19.7,0,0,1,498,39.23H389.74a19.62,19.62,0,1,1,0-39.23H498A19.7,19.7,0,0,1,517.7,19.62Z"/><path class="cls-3" d="M390.63,20.58c0-.53,0-.6.07-2.5A15.43,15.43,0,0,1,389,20.56a12.09,12.09,0,0,0-1-2.63,17.67,17.67,0,0,0,3.54-6A11.55,11.55,0,0,0,392.31,9l2.54.6-.55,1.63A25.94,25.94,0,0,1,393,14.7V27.17a22.87,22.87,0,0,0,.11,2.57H390.5a24.29,24.29,0,0,0,.13-2.59Zm12.18-8.91v-.58a13.74,13.74,0,0,0-.11-1.79h2.5a12.48,12.48,0,0,0-.12,1.81v.56h1.09a16,16,0,0,0,2.12-.11v2.27a18.18,18.18,0,0,0-2.1-.08h-1.11v2.16h1.55a16.26,16.26,0,0,0,2.23-.11v2.37a14.1,14.1,0,0,0-2.27-.13H396.15a15.76,15.76,0,0,0-2.27.11V15.8a12.87,12.87,0,0,0,2.23.11h1.24V13.75h-.75a17.22,17.22,0,0,0-2,.08V11.56a13.92,13.92,0,0,0,2.06.11h.73v-.56a11.23,11.23,0,0,0-.13-1.81h2.52a9.69,9.69,0,0,0-.12,1.84v.53Zm-7.41,9.51a15.39,15.39,0,0,0-.08-1.84,14.77,14.77,0,0,0,2,.09h7.73a14.33,14.33,0,0,0,2.06-.09,13.49,13.49,0,0,0-.09,1.92V27.1c0,1.09,0,1.84.11,2.64h-2.45v-1h-7v1h-2.43a20.67,20.67,0,0,0,.13-2.5Zm2.3,1.9h7V21.42h-7Zm0,3.63h7V25h-7Zm5.11-10.8V13.75h-3.19v2.16Z"/><path class="cls-3" d="M417.06,12.73c-.6,0-1.26,0-2.12.11V10.18a13,13,0,0,0,2.07.12h3.52a11.73,11.73,0,0,0,2-.12,10.07,10.07,0,0,0-.07,1.4,17.14,17.14,0,0,0,2.37,8.76,18.13,18.13,0,0,0,3.53,4.24A15.59,15.59,0,0,0,431.65,27a9.17,9.17,0,0,0-1.88,2.5,22.17,22.17,0,0,1-5.37-5.2A16.54,16.54,0,0,1,422.45,21a15,15,0,0,1-1.13-3.14,18.5,18.5,0,0,1-3.16,6.68,22.2,22.2,0,0,1-5.48,5,6.16,6.16,0,0,0-1.81-2.33,17.28,17.28,0,0,0,4.44-3.47,16.36,16.36,0,0,0,3.78-6.54,17.71,17.71,0,0,0,.73-4.47Z"/><path class="cls-3" d="M436.63,12.44a26.38,26.38,0,0,0-2.72.13v-2.5a23.11,23.11,0,0,0,2.68.14h14.48a24.77,24.77,0,0,0,2.72-.14v2.5a23.68,23.68,0,0,0-2.48-.13V27.08c0,2.08-.6,2.46-3.74,2.46-.64,0-1.45,0-2.43-.07a8.25,8.25,0,0,0-.62-2.45,30.34,30.34,0,0,0,3.32.24c.82,0,1-.11,1-.69V12.44Zm9.18,9.75a16.67,16.67,0,0,0,.08,1.8,7.68,7.68,0,0,0-.86-.07h-.57c-.29,0-.49,0-.58,0h-5.19v1.83h-2.54a15.21,15.21,0,0,0,.13-2v-7a13.37,13.37,0,0,0-.11-2,16.61,16.61,0,0,0,2.05.09h5.58a18.4,18.4,0,0,0,2.12-.09,10.67,10.67,0,0,0-.11,1.88Zm-7.14-.44h4.77V17h-4.77Z"/><path class="cls-3" d="M456,13.33c.29,0,.86.06,1.06.06l.27,0h.33a15.54,15.54,0,0,0,1.85-4.29l2.57.46a6.3,6.3,0,0,0-.42.82c-.27.58-1.06,2.06-1.57,2.9,1.41-.09,1.94-.13,3.31-.31-.39-.77-.53-1-1-1.77l1.77-.86a33.16,33.16,0,0,1,2.74,4.62l-2,1.17c-.25-.57-.36-.84-.51-1.19-1.42.22-5.17.62-6.7.71a9.38,9.38,0,0,0-1.43.15Zm1.26,5.1a18.38,18.38,0,0,0-.09-2c.49,0,.89.07,1.59.07h4.87a17.54,17.54,0,0,0,2-.09c-.05.62-.07,1-.07,2.08v8.8c0,.95-.18,1.46-.62,1.72a4.44,4.44,0,0,1-2.32.42c-.2,0-.53,0-.93,0a9,9,0,0,0-.49-2.25,8.64,8.64,0,0,0,1.49.15c.46,0,.55-.07.59-.4V25.05h-3.71v2.19a19,19,0,0,0,.11,2.45h-2.52a18.32,18.32,0,0,0,.11-2.41Zm2.28,1.42h3.73V18.48h-3.73Zm0,3.27h3.73V21.75h-3.73Zm9.85-10.9a13.49,13.49,0,0,0,2.46-.93,10.83,10.83,0,0,0,2.56-1.55l1.64,2c-.47.2-.47.2-1.55.73a31,31,0,0,1-5.11,1.94v1.4c0,.53.2.62,1.6.62,1.79,0,2.3-.07,2.58-.29s.33-.67.38-2.3a8.17,8.17,0,0,0,2.21.68c-.18,2.08-.38,2.83-.89,3.34s-1.41.69-4.31.69a7.91,7.91,0,0,1-3-.31,1.32,1.32,0,0,1-.87-1.46V11.31a10.92,10.92,0,0,0-.11-1.9h2.55a9.17,9.17,0,0,0-.12,1.79Zm0,9.93a14.64,14.64,0,0,0,5.1-2.39l1.68,1.95c-.64.35-2.8,1.32-3.49,1.59a32.58,32.58,0,0,1-3.29,1V26.4c0,.37.13.5.55.59a6.53,6.53,0,0,0,1.57.11c1.46,0,2-.11,2.21-.44a6.51,6.51,0,0,0,.35-2.54,9.38,9.38,0,0,0,2.26.75c-.16,2.08-.4,2.92-1,3.56s-1.37.82-4.15.82c-2.17,0-2.87-.09-3.45-.44a1.43,1.43,0,0,1-.68-1.44V21.55a10.58,10.58,0,0,0-.12-2h2.55a9.11,9.11,0,0,0-.11,1.84Z"/><path class="cls-3" d="M486.5,13.21H481v1.93h-2.19a10,10,0,0,0,.09-1.42V12.66c0-.4,0-.93-.06-1.48a14.53,14.53,0,0,0,1.76.07h2.08v-.47a6.31,6.31,0,0,0-.11-1.39h2.54A5.78,5.78,0,0,0,485,10.8v.45h1.81c.91,0,1.31,0,1.64-.05V9.79a15.21,15.21,0,0,0,2.32.11h5.77a17.42,17.42,0,0,0,2.32-.11v2.34a16.87,16.87,0,0,0-2.32-.11H495c-.18.6-.31.93-.55,1.55h1.46A14.37,14.37,0,0,0,498,13.5c0,.62-.06,1.13-.06,2V23.1c0,.95,0,1.48.06,2.28-.75-.05-1.37-.07-1.9-.07h-.75a10,10,0,0,0,4.07,2.41,8.86,8.86,0,0,0-1.33,2.13,12.38,12.38,0,0,1-4.46-3.12l1.54-1.42h-3.62l1.61,1.4a12.22,12.22,0,0,1-4.49,3.18,6.44,6.44,0,0,0-1.17-1.66c0,.44,0,.78.07,1.06H485.4v-1h-3v1.22h-2.28a16.69,16.69,0,0,0,.12-2.06V24a7.77,7.77,0,0,0,0-.82c-.37.18-.5.25-1,.45a5.44,5.44,0,0,0-1.1-2,13.28,13.28,0,0,0,4.33-2,11.38,11.38,0,0,1-1.31-1.35,9.93,9.93,0,0,1-1.59,1.33,5,5,0,0,0-1.17-1.73,8.85,8.85,0,0,0,3.8-4.4l2.06.42-.18.36c-.13.26-.13.26-.33.62h1.77a6.13,6.13,0,0,0,1-.05Zm-.42,9.16c.47,0,.6,0,.87,0A19.6,19.6,0,0,1,484,20.82a14.2,14.2,0,0,1-2.3,1.55Zm-3.55-5.73a1.1,1.1,0,0,1-.2.25,8.94,8.94,0,0,0,1.5,1.52,14.27,14.27,0,0,0,1.48-1.77Zm-.18,9.71h3V24.21h-3Zm5.75-10.44L488,16c-.14.18-.16.2-.27.36a18.77,18.77,0,0,1-2.27,3.09A16.81,16.81,0,0,0,489,20.8a7,7,0,0,0-.77,2l-.64-.2a14.17,14.17,0,0,0-.05,1.53V27.9a7.89,7.89,0,0,0,2.15-1.08,8.39,8.39,0,0,0,1.72-1.51h-.66c-.38,0-1,0-1.73.07.05-.53.07-1.53.07-2V15.6c0-1,0-1-.07-2.08a15.56,15.56,0,0,0,1.86.05h1.28a16.4,16.4,0,0,0,.55-1.55h-1.92a18.25,18.25,0,0,0-2.25.11v1.44a11.07,11.07,0,0,0,.06,1.48H487.3Zm3.14,1h4.55V15.56h-4.55Zm0,3.2h4.55V18.7h-4.55Zm0,3.19h4.55V21.91h-4.55Z"/><path class="cls-4" d="M835,19.62a19.69,19.69,0,0,1-19.65,19.61H601A19.62,19.62,0,1,1,601,0h214.4A19.69,19.69,0,0,1,835,19.62Z"/><path class="cls-2" d="M609.8,14.3A21.46,21.46,0,0,1,608,15.85a10.1,10.1,0,0,0-1.62-1.68,12.72,12.72,0,0,0,4.11-4.27A5.52,5.52,0,0,0,611,8.81l2.56.49c-.17.27-.17.27-.46.8-.22.37-.4.66-.71,1.12h10.72a20.91,20.91,0,0,0,2.79-.13v2.43c-.73-.06-1-.08-2.17-.11v2.95h.86a11.44,11.44,0,0,0,2.17-.14V18.7a11.72,11.72,0,0,0-2.17-.13h-.86v3h.44a12.55,12.55,0,0,0,2.1-.11v2.43a10.34,10.34,0,0,0-2.05-.13H609.09a10.29,10.29,0,0,0-2,.13V21.42a14.12,14.12,0,0,0,2.17.11h.51v-3h-.95a12,12,0,0,0-2.17.13V16.22a11.44,11.44,0,0,0,2.17.14h.95Zm-3.14,13.8A10.51,10.51,0,0,0,609.4,24l2,1a14.37,14.37,0,0,1-2.85,4.64ZM612,16.36h1.79V13.41H612Zm0,5.17h1.79v-3H612Zm1,8v-.91c0-.84-.18-2.83-.33-3.92l2.14-.24a30.71,30.71,0,0,1,.6,4.85Zm4.59-13.18V13.41h-1.83v2.95Zm0,5.17v-3h-1.83v3Zm.53,7.94a25.74,25.74,0,0,0-1-4.64l2.14-.49a29.72,29.72,0,0,1,1.3,4.6Zm3.34-13.11V13.41h-1.88v2.95Zm0,5.17v-3h-1.88v3Zm3,8a21.73,21.73,0,0,0-2.65-4.62l1.9-.95a24.67,24.67,0,0,1,2.88,4.25Z"/><path class="cls-2" d="M634.26,12.53a9.17,9.17,0,0,0-1.66.11V10.25a11.7,11.7,0,0,0,2,.13h3.12a9.82,9.82,0,0,0,2-.13v2.37a12.29,12.29,0,0,0-1.64-.09h-.66v4.31h.51a6.76,6.76,0,0,0,1.39-.11V19a8.78,8.78,0,0,0-1.39-.09h-.51v4.36c.93-.4,1.19-.51,2.16-1l.07,2.34c-1.92,1-2.79,1.33-6.21,2.72l-.44.18-.6-2.5a18.17,18.17,0,0,0,2.72-.84V18.9h-.73a7.53,7.53,0,0,0-1.5.11V16.73a7.89,7.89,0,0,0,1.54.11h.69V12.53Zm10.67,12h-2.45a17.42,17.42,0,0,0-2.3.09V22.39a13.13,13.13,0,0,0,2.28.11h2.47V20.69h-2.1c-1.48,0-2,0-2.65.07.05-.51.05-.51.09-2.75V13a23.86,23.86,0,0,0-.11-3,26,26,0,0,0,3,.11h6.1a19.15,19.15,0,0,0,2.86-.11c-.07.64-.09,1.68-.09,3v4.71a28.74,28.74,0,0,0,.09,3,21.52,21.52,0,0,0-2.41-.07h-2.54V22.5H650a15.26,15.26,0,0,0,2.35-.11v2.28a15.61,15.61,0,0,0-2.32-.11h-2.85v2.28h3.55a15.34,15.34,0,0,0,2.35-.11v2.36a20.26,20.26,0,0,0-2.5-.11h-9.31a20.72,20.72,0,0,0-2.49.11V26.73a13.68,13.68,0,0,0,2.23.11h3.95Zm-2.45-12.25v2.21h2.45V12.31Zm0,4.07v2.23h2.45V16.38Zm4.67-1.86h2.56V12.31h-2.56Zm0,4.09h2.56V16.38h-2.56Z"/><path class="cls-2" d="M667.8,22.72c-1.26,2.86-2.67,4.16-4.48,4.16-2.52,0-4.34-2.56-4.34-6.12a9.51,9.51,0,0,1,2.43-6.44,10,10,0,0,1,7.61-3.1c5.3,0,8.75,3.23,8.75,8.21a8.52,8.52,0,0,1-5.37,8.25,14.72,14.72,0,0,1-3.47.93A7.12,7.12,0,0,0,667.58,26,11.8,11.8,0,0,0,672,24.8a6.19,6.19,0,0,0,3.07-5.53,5.49,5.49,0,0,0-2.72-4.91,4.92,4.92,0,0,0-2.23-.66A31.76,31.76,0,0,1,667.8,22.72Zm-3.25-7.91a7.4,7.4,0,0,0-3,6c0,1.81.77,3.25,1.74,3.25.73,0,1.48-.93,2.28-2.83a29,29,0,0,0,1.83-7.48A5.75,5.75,0,0,0,664.55,14.81Z"/><path class="cls-2" d="M692.18,9.83a9.49,9.49,0,0,0-.36,1.48c-.11.53-.22,1-.46,1.95a19,19,0,0,0,3.53-.62l.07,2.54c-.24,0-.29,0-.71.11-.79.14-2.14.29-3.51.4a43.37,43.37,0,0,1-2.43,6.42c-.51,1.08-.71,1.48-1.55,3-.29.53-.29.53-.42.79l-2.54-1.41A20.62,20.62,0,0,0,685.94,21,34.42,34.42,0,0,0,688,15.76l-1.39,0-.89,0-1.17,0V13.21a15,15,0,0,0,3,.2c.26,0,.64,0,1.12,0a22.92,22.92,0,0,0,.67-3.85Zm10,17.91A13.48,13.48,0,0,0,698.81,25c0,.2,0,.36,0,.44a3.58,3.58,0,0,1-1,2.35A5.08,5.08,0,0,1,694.23,29c-2.92,0-4.82-1.46-4.82-3.72s2-3.8,4.78-3.8a10.54,10.54,0,0,1,2,.2c-.06-1-.11-1.88-.11-2.55a11.92,11.92,0,0,1,.18-2.23l2.56.13a7.44,7.44,0,0,0-.26,2.24,22.65,22.65,0,0,0,.2,3,13.46,13.46,0,0,1,3.49,2,7.39,7.39,0,0,1,.77.6,4.26,4.26,0,0,0,.33.31Zm-7.85-4c-1.44,0-2.36.59-2.36,1.52s.79,1.44,2.16,1.44,2.23-.62,2.23-1.86c0-.22,0-.75,0-.75A5.65,5.65,0,0,0,694.34,23.7Zm8-6.13a26.94,26.94,0,0,0-6.37-3.09l1.33-2.15a35.52,35.52,0,0,1,6.23,3Z"/><path class="cls-2" d="M713.14,11.62A26,26,0,0,0,713,15a42,42,0,0,0,.41,5.93c.38,2.3,1.09,3.72,1.8,3.72.33,0,.64-.34.9-.95a16.35,16.35,0,0,0,1.17-4,11.15,11.15,0,0,0,2.21,2c-1.15,4.31-2.43,6.1-4.31,6.1-1.48,0-2.67-1.08-3.55-3.21s-1.31-5.42-1.4-11.54a9.68,9.68,0,0,0-.09-1.42Zm10.46,1a22.08,22.08,0,0,1,5,11.9l-2.74,1a22.24,22.24,0,0,0-1.42-6.4,19.48,19.48,0,0,0-3.13-5.44Z"/><path class="cls-2" d="M736.43,20.58c0-.53,0-.6.07-2.5a14.77,14.77,0,0,1-1.68,2.48,11.6,11.6,0,0,0-1-2.63,17.67,17.67,0,0,0,3.54-6A11.55,11.55,0,0,0,738.11,9l2.54.6-.55,1.63a25.94,25.94,0,0,1-1.35,3.48V27.17a22.87,22.87,0,0,0,.11,2.57H736.3a21.91,21.91,0,0,0,.13-2.59Zm12.18-8.91v-.58a12.17,12.17,0,0,0-.11-1.79H751a12.67,12.67,0,0,0-.11,1.81v.56H752a16,16,0,0,0,2.12-.11v2.27a18.18,18.18,0,0,0-2.1-.08h-1.1v2.16h1.54a16.43,16.43,0,0,0,2.24-.11v2.37a14.33,14.33,0,0,0-2.28-.13H742a15.83,15.83,0,0,0-2.28.11V15.8a12.94,12.94,0,0,0,2.23.11h1.24V13.75h-.75a17,17,0,0,0-2,.08V11.56a13.86,13.86,0,0,0,2,.11h.73v-.56A10.19,10.19,0,0,0,743,9.3h2.52a9.85,9.85,0,0,0-.11,1.84v.53Zm-7.4,9.51a15.07,15.07,0,0,0-.09-1.84,14.86,14.86,0,0,0,2,.09h7.73a14.24,14.24,0,0,0,2.06-.09,13.49,13.49,0,0,0-.09,1.92V27.1c0,1.09,0,1.84.11,2.64h-2.45v-1h-7v1h-2.43a20.51,20.51,0,0,0,.14-2.5Zm2.29,1.9h7V21.42h-7Zm0,3.63h7V25h-7Zm5.11-10.8V13.75h-3.18v2.16Z"/><path class="cls-2" d="M766.39,12.73c-.59,0-1.26,0-2.12.11V10.18a13.13,13.13,0,0,0,2.08.12h3.51a11.79,11.79,0,0,0,2-.12,10.07,10.07,0,0,0-.07,1.4,17.13,17.13,0,0,0,2.36,8.76,18.19,18.19,0,0,0,3.54,4.24A15.78,15.78,0,0,0,781,27a9.38,9.38,0,0,0-1.88,2.5,22.35,22.35,0,0,1-5.37-5.2A16.51,16.51,0,0,1,771.79,21a13.94,13.94,0,0,1-1.13-3.14,18.67,18.67,0,0,1-3.16,6.68,22.38,22.38,0,0,1-5.48,5,6.26,6.26,0,0,0-1.81-2.33,17.45,17.45,0,0,0,4.44-3.47,16.48,16.48,0,0,0,3.78-6.54,17.71,17.71,0,0,0,.73-4.47Z"/><path class="cls-2" d="M794.3,13.21h-5.5v1.93h-2.19a10,10,0,0,0,.09-1.42V12.66c0-.4,0-.93-.07-1.48a14.87,14.87,0,0,0,1.77.07h2.08v-.47a6.31,6.31,0,0,0-.11-1.39h2.54a5.78,5.78,0,0,0-.11,1.41v.45h1.81c.91,0,1.3,0,1.64-.05V9.79a15.13,15.13,0,0,0,2.32.11h5.77a17.53,17.53,0,0,0,2.32-.11v2.34a17,17,0,0,0-2.32-.11h-1.57a15.34,15.34,0,0,1-.56,1.55h1.46a14.45,14.45,0,0,0,2.17-.07c0,.62-.07,1.13-.07,2V23.1c0,.95,0,1.48.07,2.28-.75-.05-1.37-.07-1.9-.07h-.75a10,10,0,0,0,4.06,2.41,8.82,8.82,0,0,0-1.32,2.13,12.33,12.33,0,0,1-4.47-3.12L803,25.31h-3.62l1.61,1.4a12.22,12.22,0,0,1-4.49,3.18,7,7,0,0,0-1.17-1.66c0,.44,0,.78.07,1.06H793.2v-1h-3v1.22h-2.28a16.92,16.92,0,0,0,.11-2.06V24c0-.31,0-.48,0-.82-.38.18-.51.25-1,.45a5.32,5.32,0,0,0-1.11-2,13.19,13.19,0,0,0,4.33-2,12,12,0,0,1-1.3-1.35,10.38,10.38,0,0,1-1.59,1.33,5,5,0,0,0-1.17-1.73,8.85,8.85,0,0,0,3.8-4.4l2,.42c-.06.14-.08.18-.17.36s-.13.26-.33.62h1.76a6.19,6.19,0,0,0,1-.05Zm-.42,9.16c.47,0,.6,0,.86,0a20.62,20.62,0,0,1-2.94-1.53,13.68,13.68,0,0,1-2.29,1.55Zm-3.56-5.73a.88.88,0,0,1-.2.25,9,9,0,0,0,1.51,1.52,15.24,15.24,0,0,0,1.48-1.77Zm-.17,9.71h3.05V24.21h-3.05Zm5.74-10.44-.09.11-.26.36a18.78,18.78,0,0,1-2.28,3.09,17.11,17.11,0,0,0,3.52,1.33,7.31,7.31,0,0,0-.78,2l-.64-.2c0,.69,0,.69,0,1.53V27.9a7.69,7.69,0,0,0,2.14-1.08,8.43,8.43,0,0,0,1.73-1.51h-.67c-.37,0-.95,0-1.72.07,0-.53.07-1.53.07-2V15.6c0-1,0-1-.07-2.08a15.56,15.56,0,0,0,1.86.05h1.28a16.4,16.4,0,0,0,.55-1.55h-1.92a18.55,18.55,0,0,0-2.26.11v1.44a9.08,9.08,0,0,0,.07,1.48H795.1Zm3.14,1h4.55V15.56H799Zm0,3.2h4.55V18.7H799Zm0,3.19h4.55V21.91H799Z"/><path class="cls-2" d="M183.51,115.35l11.57-14.47a5.79,5.79,0,0,0,.91-1.63,6,6,0,0,0,.16-1.34,4.41,4.41,0,0,0-1-2.91,4,4,0,0,0-3.05-1.28,4,4,0,0,0-2.91,1.12A4.84,4.84,0,0,0,187.74,98h-4.23A9.12,9.12,0,0,1,186,91.87a8,8,0,0,1,5.75-2.4,8.48,8.48,0,0,1,6.2,2.44,8.55,8.55,0,0,1,.67,11.24l-9.53,12H200.4v4.25H183.51Z"/><path class="cls-2" d="M206.23,98a8,8,0,0,1,2.62-6.32,8.27,8.27,0,0,1,5.77-2.2,8.39,8.39,0,0,1,5.87,2.2A8.27,8.27,0,0,1,223,98v13.07a8.24,8.24,0,0,1-2.54,6.3,8.56,8.56,0,0,1-5.87,2.24,8.44,8.44,0,0,1-5.77-2.24,8,8,0,0,1-2.62-6.3Zm12.56.26q-.12-4.45-4.17-4.53t-4.14,4.53v12.57q.08,4.49,4.14,4.53t4.17-4.53Z"/><path class="cls-2" d="M228.7,98a8,8,0,0,1,2.62-6.32,8.27,8.27,0,0,1,5.77-2.2,8.39,8.39,0,0,1,5.87,2.2A8.27,8.27,0,0,1,245.5,98v13.07a8.24,8.24,0,0,1-2.54,6.3,8.56,8.56,0,0,1-5.87,2.24,8.44,8.44,0,0,1-5.77-2.24,8,8,0,0,1-2.62-6.3Zm12.56.26q-.12-4.45-4.17-4.53T233,98.25v12.57q.08,4.49,4.14,4.53t4.17-4.53Z"/><path class="cls-2" d="M255.24,99.83c-1.43,0-2.83.06-4.05.18V96c1.13.11,2.5.17,4,.17h18.34c1.46,0,2.8-.06,4-.17V100c-1.19-.12-2.59-.18-4-.18H263.1c0,1.84-.06,2.54-.2,4H271a35.91,35.91,0,0,0,3.9-.14,25.4,25.4,0,0,0-.2,3.76c-.18,5-.76,9.41-1.46,11.19-.81,2-2.12,2.71-5.44,2.71-1,0-2-.06-3.85-.21a12,12,0,0,0-.93-3.87,26.53,26.53,0,0,0,4.51.52c1.26,0,1.78-.23,2.1-.93.55-1.17,1-4.75,1.14-9.44H262.4a22.14,22.14,0,0,1-2.94,8.16,18.76,18.76,0,0,1-6,6.29,13.12,13.12,0,0,0-2.8-3.38,14.91,14.91,0,0,0,4.61-4.08,19.35,19.35,0,0,0,3.55-9.24,38.27,38.27,0,0,0,.35-5.33Z"/><path class="cls-2" d="M285,118.13a23.11,23.11,0,0,0,.15,3.5h-4.25a26.35,26.35,0,0,0,.2-3.64V98.78a28.92,28.92,0,0,0-.11-2.91c1,.09,1.83.11,3.49.11h17.68a30.36,30.36,0,0,0,3.41-.11,30.93,30.93,0,0,0-.12,3.41v18.77c0,1.48-.47,2.41-1.37,2.85a8,8,0,0,1-3.38.44c-1,0-2.3,0-3.61-.09a12.7,12.7,0,0,0-1.11-3.7c1.72.17,3.41.29,4.17.29,1.22,0,1.46-.12,1.46-.7v-6.29H285Zm6.21-18.5H285v7.63h6.21Zm10.4,7.63V99.63h-6.59v7.63Z"/><path class="cls-2" d="M183.51,263.05l11.57-14.48A5.62,5.62,0,0,0,196,247a6,6,0,0,0,.16-1.35,4.36,4.36,0,0,0-1-2.9,3.91,3.91,0,0,0-3.05-1.28,4,4,0,0,0-2.91,1.11,4.89,4.89,0,0,0-1.42,3.16h-4.23a9.12,9.12,0,0,1,2.48-6.12,7.87,7.87,0,0,1,5.75-2.4,8.44,8.44,0,0,1,6.2,2.44,8.55,8.55,0,0,1,.67,11.24l-9.53,12H200.4v4.25H183.51Z"/><path class="cls-2" d="M206.23,245.69a8,8,0,0,1,2.62-6.33,8.31,8.31,0,0,1,5.77-2.19,8.43,8.43,0,0,1,5.87,2.19,8.31,8.31,0,0,1,2.54,6.33v13.07a8.27,8.27,0,0,1-2.54,6.3,8.56,8.56,0,0,1-5.87,2.24,8.44,8.44,0,0,1-5.77-2.24,8,8,0,0,1-2.62-6.3Zm12.56.26q-.12-4.45-4.17-4.53-4.06.08-4.14,4.53v12.57q.08,4.49,4.14,4.53t4.17-4.53Z"/><path class="cls-2" d="M228.7,245.69a8,8,0,0,1,2.62-6.33,8.31,8.31,0,0,1,5.77-2.19,8.43,8.43,0,0,1,5.87,2.19,8.31,8.31,0,0,1,2.54,6.33v13.07a8.27,8.27,0,0,1-2.54,6.3,8.56,8.56,0,0,1-5.87,2.24,8.44,8.44,0,0,1-5.77-2.24,8,8,0,0,1-2.62-6.3Zm12.56.26q-.12-4.45-4.17-4.53Q233,241.5,233,246v12.57q.08,4.49,4.14,4.53t4.17-4.53Z"/><path class="cls-2" d="M255.24,247.53c-1.43,0-2.83.06-4.05.17v-4a39.13,39.13,0,0,0,4,.18h18.34q2.19,0,4-.18v4c-1.19-.11-2.59-.17-4-.17H263.1c0,1.84-.06,2.53-.2,4H271a35.91,35.91,0,0,0,3.9-.14,25.33,25.33,0,0,0-.2,3.75c-.18,5-.76,9.42-1.46,11.2-.81,2-2.12,2.71-5.44,2.71-1,0-2-.06-3.85-.21A12,12,0,0,0,263,265a26.53,26.53,0,0,0,4.51.52c1.26,0,1.78-.23,2.1-.93.55-1.17,1-4.75,1.14-9.44H262.4a22.14,22.14,0,0,1-2.94,8.16,18.85,18.85,0,0,1-6,6.29,13.12,13.12,0,0,0-2.8-3.38,15,15,0,0,0,4.61-4.08,19.35,19.35,0,0,0,3.55-9.24,38.53,38.53,0,0,0,.35-5.33Z"/><path class="cls-2" d="M285,265.83a23.11,23.11,0,0,0,.15,3.5h-4.25a26.41,26.41,0,0,0,.2-3.65v-19.2a28.92,28.92,0,0,0-.11-2.91c1,.08,1.83.11,3.49.11h17.68a33.07,33.07,0,0,0,3.41-.11,30.93,30.93,0,0,0-.12,3.41v18.76c0,1.49-.47,2.42-1.37,2.86a8,8,0,0,1-3.38.44c-1,0-2.3,0-3.61-.09a12.7,12.7,0,0,0-1.11-3.7c1.72.17,3.41.29,4.17.29,1.22,0,1.46-.12,1.46-.7v-6.3H285Zm6.21-18.5H285V255h6.21Zm10.4,7.63v-7.63h-6.59V255Z"/><path class="cls-2" d="M378.38,112.92a26.07,26.07,0,0,1-1,7.33l-2.43-1.11a24.19,24.19,0,0,0,1-6.53Zm-3.27-4a5.05,5.05,0,0,0,1.21.1h.83c.46-.56.65-.8,1.11-1.46a22.21,22.21,0,0,0-3.18-3.59l1.53-2.5c.34.41.46.56.71.82a17.7,17.7,0,0,0,1.79-3.66l2.7,1a6.49,6.49,0,0,0-.49.87,36.11,36.11,0,0,1-2.21,3.7c.32.38.44.51.8,1a26.35,26.35,0,0,0,2.45-4.11l2.6,1.44c-.19.26-.39.51-.82,1.19-1.12,1.65-2.89,4-3.89,5.17,1.24,0,1.46-.07,2.43-.15-.17-.51-.27-.77-.63-1.62l2-.78a40.89,40.89,0,0,1,1.87,5l-2.28.92a9.88,9.88,0,0,0-.22-1.06c-1.07.12-1.07.12-1.41.14v7.51a15.6,15.6,0,0,0,.15,2.64H379a14.29,14.29,0,0,0,.15-2.64v-7.27c-1.12.08-1.12.08-2.79.17l-1,.13Zm9.8,3.55a49.54,49.54,0,0,1,1,6.39l-2.58.48a57,57,0,0,0-.73-6.36Zm3.86-7.31a17.57,17.57,0,0,1-2.35,3.64,8.7,8.7,0,0,0-2.26-2.31,16.22,16.22,0,0,0,2.65-4.39,18.43,18.43,0,0,0,1-3.33l3.2.54a8.27,8.27,0,0,0-.34,1c-.12.39-.39,1.21-.61,1.8h5.12a13.42,13.42,0,0,0,2-.1,33.13,33.13,0,0,0-.12,4.44c0,2.92-.27,7.17-.51,9.14-.37,2.86-.85,4.2-1.72,4.88a6.12,6.12,0,0,1-3.38.65c-.68,0-1.31,0-2.13-.07a11.12,11.12,0,0,0-.8-3.21,24.35,24.35,0,0,0,3.13.29c1.09,0,1.36-.29,1.65-1.77a73.88,73.88,0,0,0,.63-11.24Zm.51,10.17a27.44,27.44,0,0,0-2.55-6.26l2.67-1.26a29.09,29.09,0,0,1,2.77,6.16Z"/><path class="cls-2" d="M399.43,116,409.07,104a4.85,4.85,0,0,0,.76-1.36,5.07,5.07,0,0,0,.13-1.12,3.7,3.7,0,0,0-.86-2.42A3.28,3.28,0,0,0,406.56,98a3.34,3.34,0,0,0-2.42.93,4.07,4.07,0,0,0-1.19,2.63h-3.52a7.56,7.56,0,0,1,2.07-5.1,6.57,6.57,0,0,1,4.79-2,7.05,7.05,0,0,1,5.16,2,7.14,7.14,0,0,1,.56,9.37l-7.94,10h9.43v3.54H399.43Z"/><path class="cls-2" d="M418.77,94.65h13.15v3.54H422.1v5.6a6.19,6.19,0,0,1,3.95-1.36,7.25,7.25,0,0,1,2.6.51,5.72,5.72,0,0,1,1.82,1.29,6.08,6.08,0,0,1,1.49,2.35,8.59,8.59,0,0,1,.33,1.78c.07.71.11,1.59.11,2.63a15.67,15.67,0,0,1-.34,3.69,5.81,5.81,0,0,1-1.19,2.25,6.78,6.78,0,0,1-2.11,1.77,6.3,6.3,0,0,1-3.22.86,7.74,7.74,0,0,1-4.59-1.49,7,7,0,0,1-2.63-4.93h3.54A3.29,3.29,0,0,0,425.4,116a3.57,3.57,0,0,0,2-.51,2.58,2.58,0,0,0,1-1.29,5.91,5.91,0,0,0,.37-1.73c0-.61,0-1.2,0-1.77a7.18,7.18,0,0,0-.66-3.44,2.68,2.68,0,0,0-1.1-1,4.61,4.61,0,0,0-1.82-.31,3.62,3.62,0,0,0-1.76.44A4.08,4.08,0,0,0,422.1,108h-3.33Z"/><path class="cls-2" d="M437.08,101.55a6.67,6.67,0,0,1,2.19-5.27,6.91,6.91,0,0,1,4.81-1.83A7,7,0,0,1,449,96.28a6.93,6.93,0,0,1,2.12,5.27v10.89A6.93,6.93,0,0,1,449,117.7a7.12,7.12,0,0,1-4.89,1.86,7,7,0,0,1-4.81-1.86,6.66,6.66,0,0,1-2.19-5.26Zm10.47.22q-.1-3.7-3.47-3.78-3.39.08-3.46,3.78v10.47q.08,3.75,3.46,3.78t3.47-3.78Z"/><path class="cls-2" d="M455.81,101.55A6.66,6.66,0,0,1,458,96.28a6.93,6.93,0,0,1,4.81-1.83,7,7,0,0,1,4.9,1.83,6.93,6.93,0,0,1,2.11,5.27v10.89a6.92,6.92,0,0,1-2.11,5.26,7.16,7.16,0,0,1-4.9,1.86A7,7,0,0,1,458,117.7a6.66,6.66,0,0,1-2.18-5.26Zm10.46.22q-.09-3.7-3.47-3.78c-2.25.05-3.41,1.31-3.45,3.78v10.47c0,2.5,1.2,3.76,3.45,3.78s3.41-1.28,3.47-3.78Z"/><path class="cls-2" d="M477.92,103.09c-1.19,0-2.35,0-3.37.14V99.86c.95.09,2.09.14,3.35.14h15.29c1.21,0,2.33,0,3.35-.14v3.37c-1-.1-2.16-.14-3.33-.14h-8.73c0,1.53-.05,2.11-.17,3.32h6.77a27.84,27.84,0,0,0,3.25-.12,18.69,18.69,0,0,0-.17,3.13c-.15,4.13-.63,7.85-1.21,9.33-.68,1.7-1.78,2.26-4.54,2.26-.8,0-1.68-.05-3.21-.17a10.14,10.14,0,0,0-.77-3.23,21.86,21.86,0,0,0,3.76.44c1,0,1.48-.2,1.75-.78.46-1,.82-4,.94-7.87h-7a18.3,18.3,0,0,1-2.45,6.8,15.81,15.81,0,0,1-5,5.25,11,11,0,0,0-2.33-2.82,12.49,12.49,0,0,0,3.83-3.4,15.91,15.91,0,0,0,3-7.7,31.12,31.12,0,0,0,.3-4.44Z"/><path class="cls-2" d="M502.76,118.34a19.41,19.41,0,0,0,.12,2.91h-3.55a21.37,21.37,0,0,0,.17-3v-16a23.4,23.4,0,0,0-.09-2.43,28.28,28.28,0,0,0,2.91.1h14.73a23.51,23.51,0,0,0,2.84-.1,27.26,27.26,0,0,0-.1,2.84v15.64a2.35,2.35,0,0,1-1.14,2.38,6.55,6.55,0,0,1-2.81.37c-.8,0-1.92,0-3-.08a10.91,10.91,0,0,0-.92-3.08c1.43.15,2.84.24,3.47.24,1,0,1.21-.09,1.21-.58v-5.24H502.76Zm5.17-15.42h-5.17v6.36h5.17Zm8.66,6.36v-6.36H511.1v6.36Z"/><path class="cls-2" d="M378.38,260.62a26.07,26.07,0,0,1-1,7.33l-2.43-1.11a24.21,24.21,0,0,0,1-6.54Zm-3.27-4a5.63,5.63,0,0,0,1.21.1h.83c.46-.56.65-.8,1.11-1.46a21.8,21.8,0,0,0-3.18-3.59l1.53-2.51c.34.42.46.56.71.83a17.5,17.5,0,0,0,1.79-3.67l2.7,1a6.49,6.49,0,0,0-.49.87,36,36,0,0,1-2.21,3.69c.32.39.44.51.8,1a26.91,26.91,0,0,0,2.45-4.1l2.6,1.43c-.19.27-.39.51-.82,1.19-1.12,1.65-2.89,4-3.89,5.18,1.24-.05,1.46-.08,2.43-.15-.17-.51-.27-.78-.63-1.63l2-.77a40.27,40.27,0,0,1,1.87,5l-2.28.92a10.63,10.63,0,0,0-.22-1.07l-1.41.15v7.5a15.65,15.65,0,0,0,.15,2.65H379a14.35,14.35,0,0,0,.15-2.65v-7.26l-2.79.17-1,.12Zm9.8,3.55a49.67,49.67,0,0,1,1,6.38l-2.58.49a57,57,0,0,0-.73-6.36Zm3.86-7.31a17.57,17.57,0,0,1-2.35,3.64,8.7,8.7,0,0,0-2.26-2.31,16.22,16.22,0,0,0,2.65-4.39,18.66,18.66,0,0,0,1-3.33l3.2.53a8,8,0,0,0-.34,1.05c-.12.39-.39,1.21-.61,1.79h5.12a13.76,13.76,0,0,0,2-.09,32.88,32.88,0,0,0-.12,4.44c0,2.92-.27,7.17-.51,9.13-.37,2.87-.85,4.2-1.72,4.88a6,6,0,0,1-3.38.66c-.68,0-1.31,0-2.13-.07a11,11,0,0,0-.8-3.21,24.35,24.35,0,0,0,3.13.29c1.09,0,1.36-.29,1.65-1.77a74.07,74.07,0,0,0,.63-11.24Zm.51,10.17a27.25,27.25,0,0,0-2.55-6.26l2.67-1.27a29.39,29.39,0,0,1,2.77,6.17Z"/><path class="cls-2" d="M399.43,263.72l9.64-12.07a4.68,4.68,0,0,0,.76-1.35,5.07,5.07,0,0,0,.13-1.12,3.68,3.68,0,0,0-.86-2.42,3.28,3.28,0,0,0-2.54-1.07,3.34,3.34,0,0,0-2.42.93,4.07,4.07,0,0,0-1.19,2.63h-3.52a7.56,7.56,0,0,1,2.07-5.1,6.57,6.57,0,0,1,4.79-2,7.05,7.05,0,0,1,5.16,2,7.14,7.14,0,0,1,.56,9.37l-7.94,10h9.43v3.54H399.43Z"/><path class="cls-2" d="M418.77,242.35h13.15v3.54H422.1v5.59a6.24,6.24,0,0,1,3.95-1.35,7.25,7.25,0,0,1,2.6.51,5.86,5.86,0,0,1,1.82,1.28,6.19,6.19,0,0,1,1.49,2.36,8.46,8.46,0,0,1,.33,1.78c.07.71.11,1.59.11,2.62a15.71,15.71,0,0,1-.34,3.7,5.81,5.81,0,0,1-1.19,2.25,6.77,6.77,0,0,1-2.11,1.76,6.31,6.31,0,0,1-3.22.87,7.74,7.74,0,0,1-4.59-1.49,7,7,0,0,1-2.63-4.93h3.54a3.3,3.3,0,0,0,3.54,2.88,3.57,3.57,0,0,0,2-.51,2.58,2.58,0,0,0,1-1.29,6,6,0,0,0,.37-1.73c0-.61,0-1.2,0-1.78a7.21,7.21,0,0,0-.66-3.44,2.75,2.75,0,0,0-1.1-1,4.81,4.81,0,0,0-1.82-.3,3.62,3.62,0,0,0-1.76.44,4,4,0,0,0-1.42,1.59h-3.33Z"/><path class="cls-2" d="M437.08,249.25a6.67,6.67,0,0,1,2.19-5.27,6.91,6.91,0,0,1,4.81-1.83A7,7,0,0,1,449,244a6.93,6.93,0,0,1,2.12,5.27v10.89a6.9,6.9,0,0,1-2.12,5.25,7.17,7.17,0,0,1-4.89,1.87,7.08,7.08,0,0,1-4.81-1.87,6.64,6.64,0,0,1-2.19-5.25Zm10.47.22q-.1-3.72-3.47-3.78t-3.46,3.78v10.47q.08,3.74,3.46,3.78t3.47-3.78Z"/><path class="cls-2" d="M455.81,249.25A6.66,6.66,0,0,1,458,244a6.93,6.93,0,0,1,4.81-1.83,7,7,0,0,1,4.9,1.83,6.93,6.93,0,0,1,2.11,5.27v10.89a6.9,6.9,0,0,1-2.11,5.25,7.22,7.22,0,0,1-4.9,1.87,7.1,7.1,0,0,1-4.81-1.87,6.63,6.63,0,0,1-2.18-5.25Zm10.46.22q-.09-3.72-3.47-3.78c-2.25,0-3.41,1.3-3.45,3.78v10.47c0,2.49,1.2,3.75,3.45,3.78s3.41-1.29,3.47-3.78Z"/><path class="cls-2" d="M477.92,250.78c-1.19,0-2.35.05-3.37.15v-3.38a32.82,32.82,0,0,0,3.35.15h15.29c1.21,0,2.33,0,3.35-.15v3.38c-1-.1-2.16-.15-3.33-.15h-8.73c0,1.53-.05,2.12-.17,3.33h6.77a27.84,27.84,0,0,0,3.25-.12,18.69,18.69,0,0,0-.17,3.13c-.15,4.13-.63,7.85-1.21,9.33-.68,1.7-1.78,2.26-4.54,2.26-.8,0-1.68,0-3.21-.17a10.14,10.14,0,0,0-.77-3.23,22.76,22.76,0,0,0,3.76.43c1,0,1.48-.19,1.75-.77.46-1,.82-4,.94-7.87h-7a18.3,18.3,0,0,1-2.45,6.8,15.79,15.79,0,0,1-5,5.24,11.16,11.16,0,0,0-2.33-2.81,12.49,12.49,0,0,0,3.83-3.4,15.91,15.91,0,0,0,3-7.7,31.29,31.29,0,0,0,.3-4.45Z"/><path class="cls-2" d="M502.76,266a19.48,19.48,0,0,0,.12,2.92h-3.55a21.47,21.47,0,0,0,.17-3v-16a23.28,23.28,0,0,0-.09-2.43c.85.07,1.53.1,2.91.1h14.73a25.87,25.87,0,0,0,2.84-.1,27.13,27.13,0,0,0-.1,2.84V266a2.35,2.35,0,0,1-1.14,2.38,6.55,6.55,0,0,1-2.81.37c-.8,0-1.92,0-3-.08a10.81,10.81,0,0,0-.92-3.08c1.43.14,2.84.24,3.47.24,1,0,1.21-.1,1.21-.58V260H502.76Zm5.17-15.42h-5.17V257h5.17Zm8.66,6.37v-6.37H511.1V257Z"/><rect class="cls-1" x="581.3" y="59.81" width="253.7" height="88.54" rx="11.94"/><rect class="cls-1" x="581.3" y="208.4" width="253.7" height="88.54" rx="11.94"/><path class="cls-5" d="M635.19,112.28a28.39,28.39,0,0,1-1.15,8.07l-2.67-1.23a26.39,26.39,0,0,0,1.12-7.18Zm-3.61-4.35a6.16,6.16,0,0,0,1.34.11h.91c.5-.62.72-.89,1.23-1.61a25.31,25.31,0,0,0-3.5-4l1.68-2.75c.37.45.51.61.77.91a18.86,18.86,0,0,0,2-4l3,1.15a8.74,8.74,0,0,0-.53,1,38.53,38.53,0,0,1-2.43,4.06c.35.43.48.56.88,1.07a30,30,0,0,0,2.7-4.51l2.85,1.57c-.21.3-.42.56-.9,1.31-1.23,1.82-3.18,4.41-4.28,5.69,1.37-.05,1.61-.08,2.67-.16a17.38,17.38,0,0,0-.69-1.79l2.22-.85a44.8,44.8,0,0,1,2,5.5l-2.51,1a11.68,11.68,0,0,0-.24-1.18l-1.55.16v8.25a17.66,17.66,0,0,0,.16,2.92h-3.47a16.23,16.23,0,0,0,.16-2.92v-8l-3.07.18c-.45.06-.72.08-1.09.14Zm10.79,3.9a53.86,53.86,0,0,1,1.15,7l-2.83.54a64.31,64.31,0,0,0-.8-7Zm4.25-8a19.25,19.25,0,0,1-2.59,4,9.54,9.54,0,0,0-2.49-2.54,17.38,17.38,0,0,0,2.91-4.84,19.07,19.07,0,0,0,1.07-3.66l3.53.59a7.37,7.37,0,0,0-.38,1.15c-.13.43-.43,1.33-.67,2h5.64a14.39,14.39,0,0,0,2.16-.11,36.27,36.27,0,0,0-.13,4.89c0,3.2-.3,7.88-.56,10-.4,3.15-.94,4.62-1.9,5.37a6.63,6.63,0,0,1-3.71.72c-.75,0-1.44,0-2.35-.08a11.82,11.82,0,0,0-.88-3.52,28.13,28.13,0,0,0,3.44.32c1.2,0,1.5-.32,1.82-2a81.42,81.42,0,0,0,.69-12.37Zm.56,11.19a30.49,30.49,0,0,0-2.81-6.89l2.94-1.39a31.72,31.72,0,0,1,3,6.79Z"/><path class="cls-5" d="M660.65,99.14V95l3.86-2.81h3.89v27.17h-3.89v-23Z"/><path class="cls-5" d="M679.16,99.77A7.32,7.32,0,0,1,681.57,94a7.59,7.59,0,0,1,5.29-2,7.73,7.73,0,0,1,5.38,2,7.61,7.61,0,0,1,2.33,5.79v12a7.62,7.62,0,0,1-2.33,5.78,7.9,7.9,0,0,1-5.38,2,7.76,7.76,0,0,1-5.29-2,7.32,7.32,0,0,1-2.41-5.78Zm11.51.25q-.1-4.08-3.81-4.16c-2.49,0-3.75,1.44-3.8,4.16v11.51c.05,2.75,1.31,4.14,3.8,4.16s3.74-1.41,3.81-4.16Z"/><path class="cls-5" d="M699.76,99.77a7.34,7.34,0,0,1,2.4-5.79,7.63,7.63,0,0,1,5.29-2,7.73,7.73,0,0,1,5.39,2,7.61,7.61,0,0,1,2.33,5.79v12a7.62,7.62,0,0,1-2.33,5.78,7.9,7.9,0,0,1-5.39,2,7.8,7.8,0,0,1-5.29-2,7.35,7.35,0,0,1-2.4-5.78Zm11.51.25q-.1-4.08-3.82-4.16-3.72.08-3.8,4.16v11.51q.08,4.13,3.8,4.16t3.82-4.16Z"/><path class="cls-5" d="M720.36,99.77a7.28,7.28,0,0,1,2.4-5.79,7.61,7.61,0,0,1,5.29-2,7.71,7.71,0,0,1,5.38,2,7.57,7.57,0,0,1,2.33,5.79v12a7.58,7.58,0,0,1-2.33,5.78,7.88,7.88,0,0,1-5.38,2,7.78,7.78,0,0,1-5.29-2,7.29,7.29,0,0,1-2.4-5.78Zm11.51.25c-.07-2.72-1.35-4.11-3.82-4.16s-3.75,1.44-3.8,4.16v11.51q.07,4.13,3.8,4.16c2.47,0,3.75-1.41,3.82-4.16Z"/><path class="cls-5" d="M744.68,101.46c-1.3,0-2.59.06-3.71.16V97.91a36.21,36.21,0,0,0,3.69.16h16.82c1.33,0,2.56,0,3.68-.16v3.71c-1.09-.1-2.38-.16-3.66-.16h-9.61a34.93,34.93,0,0,1-.18,3.66h7.44a30.76,30.76,0,0,0,3.58-.13,20.81,20.81,0,0,0-.19,3.45c-.16,4.54-.69,8.62-1.33,10.25-.75,1.87-2,2.49-5,2.49-.88,0-1.84-.05-3.53-.19a11,11,0,0,0-.85-3.55,24.59,24.59,0,0,0,4.14.48c1.15,0,1.62-.21,1.92-.86.51-1.06.91-4.35,1-8.65h-7.69a20,20,0,0,1-2.7,7.48,17.27,17.27,0,0,1-5.52,5.77,12.25,12.25,0,0,0-2.56-3.1,13.53,13.53,0,0,0,4.21-3.74,17.59,17.59,0,0,0,3.26-8.47,35,35,0,0,0,.32-4.89Z"/><path class="cls-5" d="M772,118.24a23.12,23.12,0,0,0,.13,3.21h-3.89a24,24,0,0,0,.18-3.34V100.5a24.89,24.89,0,0,0-.1-2.67c.93.08,1.68.11,3.2.11h16.21a27.77,27.77,0,0,0,3.12-.11,29.06,29.06,0,0,0-.11,3.13v17.2c0,1.36-.42,2.22-1.25,2.62a7.39,7.39,0,0,1-3.1.4c-.88,0-2.11,0-3.31-.08a12,12,0,0,0-1-3.39c1.57.16,3.12.26,3.81.26,1.12,0,1.34-.1,1.34-.64v-5.77H772Zm5.69-17H772v7h5.69Zm9.53,7v-7h-6v7Z"/><path class="cls-2" d="M708.4,164.16h4.8v13.15h13.15v4.81H713.2v13.16h-4.8V182.12H695.25v-4.81H708.4Z"/><path class="cls-5" d="M635.19,260a28.39,28.39,0,0,1-1.15,8.07l-2.67-1.23a26.47,26.47,0,0,0,1.12-7.19Zm-3.61-4.36a6.16,6.16,0,0,0,1.34.11h.91c.5-.61.72-.88,1.23-1.6a25.37,25.37,0,0,0-3.5-4l1.68-2.75c.37.46.51.62.77.91a18.6,18.6,0,0,0,2-4l3,1.15a7.86,7.86,0,0,0-.53,1,39.58,39.58,0,0,1-2.43,4.06c.35.43.48.56.88,1.07a29.94,29.94,0,0,0,2.7-4.52l2.85,1.58c-.21.29-.42.56-.9,1.31-1.23,1.81-3.18,4.4-4.28,5.69,1.37-.06,1.61-.08,2.67-.16a16.54,16.54,0,0,0-.69-1.79l2.22-.86a45.64,45.64,0,0,1,2,5.51l-2.51,1c-.08-.53-.13-.69-.24-1.18-1.17.14-1.17.14-1.55.17v8.25a17.45,17.45,0,0,0,.16,2.91h-3.47a16.11,16.11,0,0,0,.16-2.91v-8l-3.07.19-1.09.13Zm10.79,3.9a54,54,0,0,1,1.15,7l-2.83.53a63.8,63.8,0,0,0-.8-7Zm4.25-8a19,19,0,0,1-2.59,4,9.84,9.84,0,0,0-2.49-2.54,17.47,17.47,0,0,0,2.91-4.83,19.07,19.07,0,0,0,1.07-3.66l3.53.58a8.24,8.24,0,0,0-.38,1.15c-.13.43-.43,1.34-.67,2h5.64a14.39,14.39,0,0,0,2.16-.11,36.27,36.27,0,0,0-.13,4.89c0,3.21-.3,7.88-.56,10.05-.4,3.15-.94,4.62-1.9,5.37a6.63,6.63,0,0,1-3.71.72c-.75,0-1.44,0-2.35-.08a12,12,0,0,0-.88-3.53,26.27,26.27,0,0,0,3.44.32c1.2,0,1.5-.32,1.82-1.95a81.42,81.42,0,0,0,.69-12.37Zm.56,11.2a30.8,30.8,0,0,0-2.81-6.9l2.94-1.39a31.94,31.94,0,0,1,3,6.79Z"/><path class="cls-5" d="M660.65,246.84V242.7l3.86-2.82h3.89v27.18h-3.89V244Z"/><path class="cls-5" d="M679.16,247.47a7.35,7.35,0,0,1,2.41-5.8,7.59,7.59,0,0,1,5.29-2,7.73,7.73,0,0,1,5.38,2,7.65,7.65,0,0,1,2.33,5.8v12a7.6,7.6,0,0,1-2.33,5.78,7.85,7.85,0,0,1-5.38,2,7.72,7.72,0,0,1-5.29-2,7.31,7.31,0,0,1-2.41-5.78Zm11.51.24q-.1-4.08-3.81-4.15c-2.49.05-3.75,1.43-3.8,4.15v11.52c.05,2.75,1.31,4.13,3.8,4.16s3.74-1.41,3.81-4.16Z"/><path class="cls-5" d="M699.76,247.47a7.38,7.38,0,0,1,2.4-5.8,7.63,7.63,0,0,1,5.29-2,7.73,7.73,0,0,1,5.39,2,7.65,7.65,0,0,1,2.33,5.8v12a7.6,7.6,0,0,1-2.33,5.78,7.86,7.86,0,0,1-5.39,2,7.75,7.75,0,0,1-5.29-2,7.34,7.34,0,0,1-2.4-5.78Zm11.51.24q-.1-4.08-3.82-4.15t-3.8,4.15v11.52c.05,2.75,1.32,4.13,3.8,4.16s3.75-1.41,3.82-4.16Z"/><path class="cls-5" d="M720.36,247.47a7.31,7.31,0,0,1,2.4-5.8,7.61,7.61,0,0,1,5.29-2,7.71,7.71,0,0,1,5.38,2,7.61,7.61,0,0,1,2.33,5.8v12a7.56,7.56,0,0,1-2.33,5.78,7.83,7.83,0,0,1-5.38,2,7.74,7.74,0,0,1-5.29-2,7.27,7.27,0,0,1-2.4-5.78Zm11.51.24c-.07-2.72-1.35-4.1-3.82-4.15s-3.75,1.43-3.8,4.15v11.52c0,2.75,1.32,4.13,3.8,4.16s3.75-1.41,3.82-4.16Z"/><path class="cls-5" d="M744.68,249.16c-1.3,0-2.59.05-3.71.16v-3.71c1,.1,2.3.16,3.69.16h16.82c1.33,0,2.56-.06,3.68-.16v3.71c-1.09-.11-2.38-.16-3.66-.16h-9.61a35.22,35.22,0,0,1-.18,3.66h7.44a33.2,33.2,0,0,0,3.58-.13,20.74,20.74,0,0,0-.19,3.44c-.16,4.54-.69,8.63-1.33,10.26-.75,1.87-2,2.48-5,2.48-.88,0-1.84-.05-3.53-.18a11,11,0,0,0-.85-3.56,23.59,23.59,0,0,0,4.14.48c1.15,0,1.62-.21,1.92-.85.51-1.07.91-4.35,1-8.66h-7.69a20,20,0,0,1-2.7,7.48,17.08,17.08,0,0,1-5.52,5.77,12.2,12.2,0,0,0-2.56-3.09,13.78,13.78,0,0,0,4.21-3.74,17.67,17.67,0,0,0,3.26-8.47,35.11,35.11,0,0,0,.32-4.89Z"/><path class="cls-5" d="M772,265.93a23,23,0,0,0,.13,3.21h-3.89a24,24,0,0,0,.18-3.34V248.2a24.67,24.67,0,0,0-.1-2.67c.93.08,1.68.1,3.2.1h16.21a28.49,28.49,0,0,0,3.12-.1,29,29,0,0,0-.11,3.12v17.2c0,1.37-.42,2.22-1.25,2.62a7.22,7.22,0,0,1-3.1.4c-.88,0-2.11,0-3.31-.08a12.11,12.11,0,0,0-1-3.39c1.57.16,3.12.27,3.81.27,1.12,0,1.34-.11,1.34-.64v-5.77H772Zm5.69-17H772v7h5.69Zm9.53,7v-7h-6v7Z"/><path class="cls-5" d="M586.36,421.43l18.77-23.5a8.94,8.94,0,0,0,1.48-2.64,9.62,9.62,0,0,0,.27-2.18,7.13,7.13,0,0,0-1.68-4.72,6.4,6.4,0,0,0-5-2.08,6.52,6.52,0,0,0-4.72,1.81,7.89,7.89,0,0,0-2.31,5.12h-6.86a14.85,14.85,0,0,1,4-9.94,12.87,12.87,0,0,1,9.34-3.89,13.73,13.73,0,0,1,10.06,4,13.91,13.91,0,0,1,1.09,18.25L595.4,421h18.37v6.9H586.36Z"/><path class="cls-5" d="M623.24,393.24q.06-6.66,4.25-10.27a13.49,13.49,0,0,1,9.37-3.56,13.68,13.68,0,0,1,9.53,3.56q4,3.6,4.13,10.27v21.22q-.13,6.65-4.13,10.24a14,14,0,0,1-9.53,3.63,13.79,13.79,0,0,1-9.37-3.63q-4.18-3.6-4.25-10.24Zm20.38.43q-.2-7.23-6.76-7.36-6.6.13-6.73,7.36v20.4q.14,7.29,6.73,7.36t6.76-7.36Z"/><path class="cls-5" d="M659.72,393.24q.06-6.66,4.25-10.27a13.49,13.49,0,0,1,9.37-3.56,13.68,13.68,0,0,1,9.53,3.56q4,3.6,4.13,10.27v21.22q-.13,6.65-4.13,10.24a14,14,0,0,1-9.53,3.63A13.79,13.79,0,0,1,664,424.7q-4.19-3.6-4.25-10.24Zm20.38.43q-.2-7.23-6.76-7.36-6.6.13-6.73,7.36v20.4q.14,7.29,6.73,7.36t6.76-7.36Z"/><path class="cls-5" d="M696.2,393.24q.06-6.66,4.25-10.27a13.49,13.49,0,0,1,9.37-3.56,13.68,13.68,0,0,1,9.53,3.56q4,3.6,4.13,10.27v21.22q-.13,6.65-4.13,10.24a14,14,0,0,1-9.53,3.63,13.79,13.79,0,0,1-9.37-3.63q-4.19-3.6-4.25-10.24Zm20.38.43q-.2-7.23-6.76-7.36-6.6.13-6.73,7.36v20.4q.13,7.29,6.73,7.36t6.76-7.36Z"/><path class="cls-5" d="M739.28,396.23c-2.32,0-4.59.09-6.58.28v-6.58c1.85.19,4.07.29,6.53.29H769c2.37,0,4.54-.1,6.53-.29v6.58c-1.94-.19-4.21-.28-6.48-.28H752a60.56,60.56,0,0,1-.33,6.48h13.2a54.89,54.89,0,0,0,6.33-.24c-.18,1.14-.18,1.14-.33,6.11-.28,8-1.23,15.28-2.36,18.17-1.33,3.31-3.45,4.4-8.84,4.4-1.56,0-3.27-.1-6.25-.33a19.42,19.42,0,0,0-1.51-6.3,43.21,43.21,0,0,0,7.33.86c2,0,2.88-.38,3.41-1.52.89-1.89,1.6-7.71,1.84-15.33H750.91a35.75,35.75,0,0,1-4.78,13.25A30.57,30.57,0,0,1,736.35,432a21.64,21.64,0,0,0-4.54-5.49c3.68-2.36,5.53-4,7.47-6.62,3-4,4.91-8.9,5.77-15a62.49,62.49,0,0,0,.56-8.66Z"/><path class="cls-5" d="M787.66,425.94a38.69,38.69,0,0,0,.23,5.68H781a42.22,42.22,0,0,0,.33-5.91V394.52a43.84,43.84,0,0,0-.19-4.73c1.65.14,3,.19,5.67.19h28.71a50,50,0,0,0,5.53-.19,52.36,52.36,0,0,0-.19,5.54V425.8c0,2.41-.75,3.93-2.22,4.64-1,.52-2.65.71-5.49.71-1.56,0-3.73,0-5.86-.14a20.92,20.92,0,0,0-1.8-6c2.79.28,5.54.47,6.77.47,2,0,2.36-.19,2.36-1.14V414.11h-27Zm10.07-30H787.66v12.39h10.07Zm16.88,12.39V395.9H803.92v12.39Z"/><path class="cls-2" d="M351.48,109.25l-16.67,9.63V99.62Z"/><path class="cls-2" d="M558.5,109.25l-16.67,9.63V99.62Z"/><path class="cls-2" d="M351.48,258.44l-16.67,9.63V248.8Z"/><path class="cls-2" d="M558.5,258.44l-16.67,9.63V248.8Z"/><rect class="cls-2" x="699.88" y="304.37" width="23.18" height="13.75"/><polygon class="cls-2" points="733.99 316.01 688.94 316.01 711.47 331.74 733.99 316.01"/><path class="cls-2" d="M603.64,358.3a3.76,3.76,0,0,0,.8-.66c.64-.64,2.81-3.21,3.95-4.69a6.84,6.84,0,0,1,1.66-1.75,2.66,2.66,0,0,1,1.51-.44c1.08,0,1.61.35,3.29,2.26a76.89,76.89,0,0,0,7.16,7.05,16.21,16.21,0,0,0,2.1,1.68l-1.39,3a113,113,0,0,1-9.35-9.35c-1.42-1.55-1.42-1.55-1.79-1.55s-.44.07-1.35,1.28-2.41,3.08-4,4.93c-.33.38-.44.53-.75.93Zm18.9-6.83a2.42,2.42,0,0,1-2.43,2.43,2.45,2.45,0,0,1-2.43-2.43,2.43,2.43,0,1,1,4.86,0Zm-3.69,0a1.26,1.26,0,0,0,2.52,0,1.24,1.24,0,0,0-1.26-1.26A1.27,1.27,0,0,0,618.85,351.47Z"/><path class="cls-2" d="M635.84,352.93a9.44,9.44,0,0,0-.09,1.79c-.09,3.78-.68,5.9-2.19,7.83a12.77,12.77,0,0,1-5.7,4,7.6,7.6,0,0,0-1.75-2.52,10.2,10.2,0,0,0,3.87-1.88c2.26-1.79,3-3.7,3-7.88a5.46,5.46,0,0,0-.11-1.32Zm9-2.79a6.13,6.13,0,0,0-.88,1.55,13.92,13.92,0,0,1-3.4,4.44,13.56,13.56,0,0,1-2.66,1.84,7.3,7.3,0,0,0-2-2,10.31,10.31,0,0,0,3.23-2,9,9,0,0,0,2.1-2.81h-11.6a21.17,21.17,0,0,0-3,.14v-2.77a16.87,16.87,0,0,0,3,.18h11.54a6,6,0,0,0,2.14-.2Z"/><path class="cls-2" d="M651.17,364.1v1.54h-2.85a14.07,14.07,0,0,0,.09-1.9V351.07a14.07,14.07,0,0,0-.09-1.86,18.38,18.38,0,0,0,1.88.07h12.56a16.63,16.63,0,0,0,1.85-.07c0,.58-.07,1-.07,1.84V363.7a16.32,16.32,0,0,0,.09,1.92h-2.85V364.1Zm10.61-12.32H651.17v9.8h10.61Z"/><path class="cls-2" d="M669,355.36a21.76,21.76,0,0,0,3.58.16h11.78a21.76,21.76,0,0,0,3.58-.16v3.07a24.26,24.26,0,0,0-3.6-.11H672.58a24.34,24.34,0,0,0-3.6.11Z"/><path class="cls-2" d="M690.22,362.73a21.16,21.16,0,0,0,6.54-1.64,14.79,14.79,0,0,0,6.56-5.42,18.93,18.93,0,0,0,2.26-4.42,9.28,9.28,0,0,0,2.34,2.16c-1.88,4-4,6.66-7,8.67a23.68,23.68,0,0,1-8.42,3.32,7.9,7.9,0,0,0-1.46.38ZM692.09,349a32.06,32.06,0,0,1,5.71,4.27l-1.9,2.41a23.36,23.36,0,0,0-5.64-4.49Z"/><path class="cls-2" d="M712.31,358.08c0-.53,0-.6.07-2.5a14.77,14.77,0,0,1-1.68,2.48,12,12,0,0,0-1-2.63,17.67,17.67,0,0,0,3.54-6,11.55,11.55,0,0,0,.77-2.92l2.54.6-.55,1.64a26.35,26.35,0,0,1-1.35,3.47v12.47a22.77,22.77,0,0,0,.11,2.57h-2.56a21.91,21.91,0,0,0,.13-2.59Zm12.18-8.91v-.58a12.17,12.17,0,0,0-.11-1.79h2.5a12.72,12.72,0,0,0-.11,1.82v.55h1.08a14.44,14.44,0,0,0,2.12-.11v2.28a15.73,15.73,0,0,0-2.1-.09h-1.1v2.16h1.54a16.43,16.43,0,0,0,2.24-.11v2.37a14.33,14.33,0,0,0-2.28-.13H717.84a15.83,15.83,0,0,0-2.28.11V353.3a12.94,12.94,0,0,0,2.23.11H719v-2.16h-.75a14.74,14.74,0,0,0-2,.09v-2.28a12.6,12.6,0,0,0,2,.11H719v-.55a10.23,10.23,0,0,0-.13-1.82h2.52a9.92,9.92,0,0,0-.11,1.84v.53Zm-7.4,9.51a15.07,15.07,0,0,0-.09-1.84,14.86,14.86,0,0,0,2,.09h7.73a14.24,14.24,0,0,0,2.06-.09,13.56,13.56,0,0,0-.09,1.93v5.84c0,1.08,0,1.83.11,2.63h-2.45v-1h-7v1H717a20.39,20.39,0,0,0,.14-2.5Zm2.29,1.9h7v-1.66h-7Zm0,3.63h7V362.5h-7Zm5.11-10.8v-2.16h-3.18v2.16Z"/><path class="cls-2" d="M738.74,350.23c-.6,0-1.26,0-2.12.11v-2.65a14.52,14.52,0,0,0,2.07.11h3.52a13,13,0,0,0,2-.11,9.86,9.86,0,0,0-.07,1.39,17.14,17.14,0,0,0,2.37,8.76,17.75,17.75,0,0,0,3.54,4.24,15.26,15.26,0,0,0,3.27,2.39,9.54,9.54,0,0,0-1.88,2.5,22.17,22.17,0,0,1-5.37-5.2,16.54,16.54,0,0,1-2-3.27,14.79,14.79,0,0,1-1.13-3.14,18.5,18.5,0,0,1-3.16,6.68,22,22,0,0,1-5.48,5,6.13,6.13,0,0,0-1.81-2.32,17.54,17.54,0,0,0,4.44-3.48,16.29,16.29,0,0,0,3.78-6.54,17.71,17.71,0,0,0,.73-4.47Z"/><path class="cls-2" d="M755.27,356.09a7.67,7.67,0,0,0,1.23.09,3.57,3.57,0,0,0,.42,0c.42-.53.67-.87,1.06-1.44a21.3,21.3,0,0,0-2.76-3.45l1.17-1.81.73.81a13.31,13.31,0,0,0,1.64-3.69l2.19.95a3.77,3.77,0,0,0-.42.75,29.07,29.07,0,0,1-2.08,3.59c.35.44.53.68.77,1a20.21,20.21,0,0,0,2.06-3.81l2.1,1.06-.58.87s-.09.13-.17.28a1.39,1.39,0,0,0-.18.27,8.47,8.47,0,0,0,2.72-2.68,9.08,9.08,0,0,0,1.06-2l2.14,1-.11.17-.24.38a13.93,13.93,0,0,1-4.13,5,5.41,5.41,0,0,0-1.53-1.77,44.43,44.43,0,0,1-3,4.38c1.11,0,1.33-.07,2.3-.15a12.35,12.35,0,0,0-.64-1.44l1.48-.67a21.38,21.38,0,0,1,1.64,4.3l-1.71.64c-.08-.45-.11-.58-.19-.95l-.67.08c-.13,0-.31,0-.88.09v7a15.26,15.26,0,0,0,.13,2.32l-2.39,0a16.66,16.66,0,0,0,.14-2.32v-6.83a19.43,19.43,0,0,0-3,.26Zm2.76,3.36a27.49,27.49,0,0,1-.91,6.62l-1.9-.85a20.41,20.41,0,0,0,.93-6.06Zm3.62,4.32a20.77,20.77,0,0,0-.59-4.3l1.63-.44a20.09,20.09,0,0,1,.67,3.7,12.75,12.75,0,0,0,.46-2.86l2,.44a20,20,0,0,1-1.37,5.76l-2-1.18a12.78,12.78,0,0,0,.75-1.59Zm11.41-5.62c-.44-.93-.56-1.17-.86-1.75a40.94,40.94,0,0,1-4.09.51,19.72,19.72,0,0,1,3.22,2.41l-1.54,1.61a11.92,11.92,0,0,0-3.45-2.83l1.37-1.15c-2.68.27-3.16.31-3.6.38L763.8,355a4.84,4.84,0,0,0,.75,0l.68,0a17.77,17.77,0,0,0,1.18-2,15.35,15.35,0,0,0,1.3-3.09l2.28.71-.93,1.79c-.82,1.57-1,1.9-1.39,2.52,2.14-.16,2.43-.18,3.53-.31a21.71,21.71,0,0,0-1.35-1.95l1.77-1a39,39,0,0,1,3.43,5.17Zm-4.6,1.48a9.54,9.54,0,0,0-.09,1.41v3.3c0,.49,0,.51,1,.51a1.61,1.61,0,0,0,1-.22c.25-.27.29-.64.31-2.32a4.79,4.79,0,0,0,2,.66c-.29,3.63-.6,3.94-3.82,3.94a4.46,4.46,0,0,1-2.21-.38c-.29-.2-.42-.55-.42-1.2v-4a14.93,14.93,0,0,0-.11-1.66Zm3-12.85a11.12,11.12,0,0,0,2.07,2.54,11,11,0,0,0,2.39,1.71,6.8,6.8,0,0,0-1.28,2.1,15.3,15.3,0,0,1-4.73-4.69c0-.05-.18-.22-.4-.53Zm2.21,12.36a27.53,27.53,0,0,1,2.16,5.55l-2.16,1a21.21,21.21,0,0,0-1.93-5.75Z"/><path class="cls-2" d="M785.65,350.72h-5.5v1.92H778a11.74,11.74,0,0,0,.09-1.41v-1.07c0-.39,0-.93-.07-1.48a12.9,12.9,0,0,0,1.77.07h2.08v-.47a7,7,0,0,0-.11-1.39h2.54a5.82,5.82,0,0,0-.11,1.42v.44H786c.9,0,1.3,0,1.63-.05v-1.41a15.29,15.29,0,0,0,2.32.11h5.77a17.42,17.42,0,0,0,2.32-.11v2.34a16.78,16.78,0,0,0-2.32-.11h-1.57a15.22,15.22,0,0,1-.55,1.55H795a14.53,14.53,0,0,0,2.17-.07c-.05.62-.07,1.13-.07,2v7.63c0,.95,0,1.48.07,2.28-.75,0-1.37-.07-1.9-.07h-.76a10.07,10.07,0,0,0,4.07,2.41,8.82,8.82,0,0,0-1.32,2.13,12.09,12.09,0,0,1-4.47-3.12l1.55-1.42h-3.63l1.62,1.4a12.18,12.18,0,0,1-4.49,3.18,7.17,7.17,0,0,0-1.17-1.66c0,.45,0,.78.06,1.06h-2.21v-1h-3V367h-2.28a16.87,16.87,0,0,0,.11-2.05v-3.46c0-.3,0-.48,0-.81-.38.17-.51.24-1,.44a5.17,5.17,0,0,0-1.1-2,13,13,0,0,0,4.33-2,12,12,0,0,1-1.3-1.35,10.28,10.28,0,0,1-1.59,1.33,5,5,0,0,0-1.17-1.72,9,9,0,0,0,3.8-4.4l2,.42c-.06.13-.09.17-.17.35l-.34.62h1.77a6.19,6.19,0,0,0,1-.05Zm-.42,9.15c.46,0,.6,0,.86,0a19.6,19.6,0,0,1-2.94-1.53,12.83,12.83,0,0,1-2.3,1.55Zm-3.56-5.73a1.1,1.1,0,0,1-.2.25,9.32,9.32,0,0,0,1.5,1.52,14.1,14.1,0,0,0,1.49-1.77Zm-.18,9.71h3v-2.14h-3Zm5.75-10.44-.09.12c-.13.17-.15.19-.26.35a19.33,19.33,0,0,1-2.28,3.1,17.84,17.84,0,0,0,3.51,1.32,7.31,7.31,0,0,0-.77,2l-.64-.2c0,.69,0,.69,0,1.53v3.78a9.28,9.28,0,0,0,3.86-2.59h-.66c-.37,0-1,0-1.72.07,0-.53.06-1.53.06-2V353.1c0-1,0-1-.06-2.07.44,0,.73,0,1.85,0h1.29c.3-.77.39-1.06.55-1.55h-1.93a20.79,20.79,0,0,0-2.25.11v1.44a9.08,9.08,0,0,0,.07,1.48h-1.29Zm3.14,1h4.55v-1.33h-4.55Zm0,3.2h4.55V356.2h-4.55Zm0,3.19h4.55v-1.37h-4.55Z"/><path class="cls-6" d="M108.44,268.41l-11.11-5.55c-3.59-2.37-2.2-13.78-1.74-14.1H74.39c.46.32,1.85,11.73-1.74,14.1l-11.11,5.55s12,21.76,23.13,21.76S108.44,268.41,108.44,268.41Z"/><path class="cls-6" d="M101.05,203.26H68.94c-3.93,8-3.89,20.86-3.89,20.86-1.08-1.35-3.42-1-3.42,1.81,0,2,1.79,8.91,3.24,10.72s2.73.41,2.73.41,2.35,7.6,5.25,11.49,6.33,5.34,7.77,6.24A14,14,0,0,0,85,255.87a14.33,14.33,0,0,0,4.39-1.08,22.37,22.37,0,0,0,7.78-6.24c2.89-3.89,5.24-11.49,5.24-11.49s1.28,1.4,2.73-.41,3.24-8.73,3.24-10.72c0-2.81-2.33-3.16-3.42-1.81C104.93,224.12,104.74,210.38,101.05,203.26Z"/><path class="cls-7" d="M86.61,247.32a5.84,5.84,0,0,1-3.21,0c-1.09-.28-1-1.63,0-1.45a9.61,9.61,0,0,0,3.21,0C87.51,245.69,87.67,247,86.61,247.32Z"/><path class="cls-7" d="M77.59,228.73a1,1,0,0,1-1.8,0,2.18,2.18,0,0,1,0-2.38,1,1,0,0,1,1.8,0A2.22,2.22,0,0,1,77.59,228.73Z"/><path class="cls-7" d="M89.27,242.7a16.57,16.57,0,0,1-8.54,0c-2.8-.62-2.33-2.62,0-1.82a12.69,12.69,0,0,0,8.54,0C91.47,240.06,92.05,242.11,89.27,242.7Z"/><path class="cls-8" d="M84.15,226.84s1,6.62-1.27,10.45c0,0,2.19,1.52,3.94.24"/><path class="cls-7" d="M92.4,228.73a1,1,0,0,0,1.81,0,2.22,2.22,0,0,0,0-2.38,1,1,0,0,0-1.81,0A2.22,2.22,0,0,0,92.4,228.73Z"/><path class="cls-3" d="M133.65,296.94c-1.35-10.5-1.49-17.68-7.86-21.93s-17.85-8.49-17.85-8.49l-6.1-3.11s-12,15.77-17,15.77c-5.62,0-16.7-15.77-16.7-15.77l-6.1,3.11S50.56,270.76,44.2,275s-6.39,11.74-7.86,21.93Z"/><path class="cls-7" d="M72.28,222.49c.89-.6,1.64-1.4,3-1.4.82,0,3.09,1,5.49,2.36,1,.53.63,1.17-.16,1A33.76,33.76,0,0,0,75.44,223a11.19,11.19,0,0,0-2.7.46C71.67,223.73,71.51,223,72.28,222.49Z"/><path class="cls-7" d="M79.81,208.36a5.9,5.9,0,0,1,4.44,2c1.63,2.08,4.77,8.81,7.39,11.25s4,3.16,5.43,3.31l-2.44-3.61a35.16,35.16,0,0,0,6.42,4.44,11.81,11.81,0,0,0,6.23,1.14s-.28-.8-.91-2.18l4.59.21a29.63,29.63,0,0,1-1.64-3,9.67,9.67,0,0,0,2.89-1.09s-3-2-3.52-3.45l2.53,1.13s-2.78-6.09-2.87-8.17-1-7.67-3.32-10.57-6.87-6.75-15.1-6.57a10.85,10.85,0,0,0-5.7-1.72c-3.26,0-5.61,2.63-7.69,4.44,0,0-3.52-1.18-5.87-.45a9.84,9.84,0,0,0-7.06,7.69S57.82,211.9,59.09,219a23.73,23.73,0,0,1,1.46,4.5,12.87,12.87,0,0,1-.69,3.59,12.74,12.74,0,0,0,4.47-2.83s2,5.68,2.87,7.85c0,0,1-11.66,1.57-14.65a15.76,15.76,0,0,1,5.07-8.24,2.27,2.27,0,0,1,2.53-.17s1-2,4.25-2.14Z"/><path class="cls-7" d="M105.65,224.22s-2,5.68-2.86,7.85c0,0-1-11.66-1.57-14.65,0,0-.35-2.68,1.12-2.89a4.62,4.62,0,0,1,4.33,2.33C107.31,218.34,105.65,224.22,105.65,224.22Z"/><path class="cls-7" d="M97.7,222.49c-.89-.6-1.64-1.4-3-1.4-.82,0-3.09,1-5.49,2.36-1,.53-.62,1.17.16,1A33.55,33.55,0,0,1,94.55,223a11.11,11.11,0,0,1,2.69.46C98.32,223.73,98.48,223,97.7,222.49Z"/><rect class="cls-9" x="84.15" y="284.74" width="1.69" height="12.19"/><polygon class="cls-9" points="68.31 270.25 69.54 271.94 49.43 271.94 52.56 270.25 68.31 270.25"/><polygon class="cls-9" points="73.58 276.5 75 278.19 40.89 278.19 42.13 276.5 73.58 276.5"/><polygon class="cls-9" points="80.27 282.75 82.49 284.44 38.18 284.44 38.57 282.75 80.27 282.75"/><polygon class="cls-9" points="101.53 270.25 100.3 271.94 120.41 271.94 117.28 270.25 101.53 270.25"/><polygon class="cls-9" points="96.25 276.5 94.83 278.19 128.94 278.19 127.7 276.5 96.25 276.5"/><polygon class="cls-9" points="89.56 282.75 87.35 284.44 131.65 284.44 131.26 282.75 89.56 282.75"/><polygon class="cls-9" points="132.78 289 132.78 290.69 37.14 290.69 37.18 289 132.78 289"/><rect class="cls-9" x="36.34" y="295.25" width="97.31" height="1.69"/><polygon class="cls-9" points="79.6 296.94 77.91 296.94 77.91 281.44 79.6 282.97 79.6 296.94"/><polygon class="cls-9" points="73.36 296.94 71.67 296.94 71.67 275.22 73.36 276.82 73.36 296.94"/><polygon class="cls-9" points="67.11 296.94 65.42 296.94 65.42 267.26 67.11 269.32 67.11 296.94"/><polygon class="cls-9" points="60.86 296.94 59.17 296.94 59.17 267.31 60.86 266.52 60.86 296.94"/><polygon class="cls-9" points="54.62 296.94 52.93 296.94 52.93 269.85 54.62 269.01 54.62 296.94"/><polygon class="cls-9" points="48.37 296.94 46.68 296.94 46.68 272.96 48.37 272.11 48.37 296.94"/><polygon class="cls-9" points="42.12 296.94 40.43 296.94 40.43 278.29 42.12 276.69 42.12 296.94"/><polygon class="cls-9" points="90.39 296.94 92.08 296.94 92.08 281.44 90.39 282.97 90.39 296.94"/><polygon class="cls-9" points="96.63 296.94 98.32 296.94 98.32 275.22 96.63 276.82 96.63 296.94"/><polygon class="cls-9" points="102.88 296.94 104.57 296.94 104.57 267.26 102.88 269.32 102.88 296.94"/><polygon class="cls-9" points="109.13 296.94 110.81 296.94 110.81 267.31 109.13 266.52 109.13 296.94"/><polygon class="cls-9" points="115.37 296.94 117.06 296.94 117.06 269.85 115.37 269.01 115.37 296.94"/><polygon class="cls-9" points="121.62 296.94 123.31 296.94 123.31 272.96 121.62 272.11 121.62 296.94"/><polygon class="cls-9" points="127.86 296.94 129.55 296.94 129.55 278.29 127.86 276.69 127.86 296.94"/><path class="cls-8" d="M133.6,296.51c-1.35-10.51-1.44-17.25-7.81-21.5s-17.85-8.49-17.85-8.49l-6.1-3.11s-12,15.77-17,15.77c-5.62,0-16.7-15.77-16.7-15.77l-6.1,3.11S50.56,270.76,44.2,275s-6.39,11.31-7.86,21.5"/><path class="cls-8" d="M64.76,265.14c4.68,6.75,14.32,19.6,19.92,19.6s15.59-12.85,20.45-19.6"/><path class="cls-10" d="M92.42,117.7c9-1.6,12.09-5.63,12.09-5.63.16,1.32-1.5,3.29-1.5,3.29a36.6,36.6,0,0,0,7.69-4.81c5-4.66,4-12.06,2.65-16.12s-5.73-22.52-5.73-22.52c-2.84-8.07-5.28-10.93-9-13.67-4.42-3.26-7.42-1.07-7.42-1.07S87.72,55,84.35,55.4C71.83,57,66.42,67.54,65.18,71.91S60.8,90.38,59.45,94.43s-2.4,11.46,2.65,16.12a36.38,36.38,0,0,0,7.68,4.81s-1.66-2-1.49-3.29c0,0,3,4,12.09,5.63a41.82,41.82,0,0,0,6,1A41.82,41.82,0,0,0,92.42,117.7Z"/><path class="cls-11" d="M105,120.66l-7.74-5.4c-3.32-3.53-2.22-10.75-1.82-11,0,0,1.16-4.81-1.5-4.81H78.85c-1.73,0-1.53,4.81-1.53,4.81.4.29,1.49,7.51-1.82,11l-7.74,5.4s8.25,8.15,18.64,8.15S105,120.66,105,120.66Z"/><path class="cls-3" d="M125.68,147.67c-2.18-9-5-17.2-9.64-21a119.58,119.58,0,0,0-10.65-7.4,30.73,30.73,0,0,1-38,0,121.32,121.32,0,0,0-10.66,7.4c-4.62,3.85-7.45,12-9.63,21Z"/><path class="cls-11" d="M103.22,85.35s-1,7.24-1.71,13.84c-.55,5.14-8.67,11.64-11.72,13a10.35,10.35,0,0,1-3.41,1.23A9.93,9.93,0,0,1,83,112.17c-3.06-1.34-11.18-7.84-11.72-13-.69-6.5-1.71-13.84-1.71-13.84S72,74.72,73.85,71.49s15.67-7.92,15.67-7.92,7.26,5,10.35,9.29S103.22,85.35,103.22,85.35Z"/><path class="cls-7" d="M78.91,90.92a1,1,0,0,1-1.82,0,2.22,2.22,0,0,1,0-2.41,1,1,0,0,1,1.82,0A2.24,2.24,0,0,1,78.91,90.92Z"/><path class="cls-7" d="M88,105.91a5.76,5.76,0,0,1-3.24,0c-1.1-.28-1-1.65,0-1.46a9.28,9.28,0,0,0,3.24,0C88.92,104.26,89.09,105.57,88,105.91Z"/><path class="cls-7" d="M81.33,84.87a13.5,13.5,0,0,0-6.81.31c-1,.41-.77.93.17.72,2-.44,5.73.24,6.64.43S82.4,85.21,81.33,84.87Z"/><path class="cls-7" d="M89.69,102.35a23.1,23.1,0,0,1-6.59,0c-2.23-.28-1.94-1.64,0-1.46a38.16,38.16,0,0,0,6.59,0C91.55,100.71,91.89,102,89.69,102.35Z"/><path class="cls-7" d="M93.89,90.92a1,1,0,0,0,1.82,0,2.26,2.26,0,0,0,0-2.41,1,1,0,0,0-1.82,0A2.22,2.22,0,0,0,93.89,90.92Z"/><path class="cls-7" d="M87.84,97.88a3.06,3.06,0,0,1-2.91,0c-.93-.41-.86-1.48,0-1.31a8.37,8.37,0,0,0,2.91,0C88.66,96.4,88.76,97.44,87.84,97.88Z"/><path class="cls-7" d="M91.47,84.87a13.46,13.46,0,0,1,6.8.31c1.06.41.78.93-.17.72-2-.44-5.72.24-6.63.43S90.39,85.21,91.47,84.87Z"/><path class="cls-12" d="M70.13,89.46s-1.39,8.73-.75,12.93c.74,4.81,5.09,9.67,5.09,9.67"/><path class="cls-12" d="M63.83,98.81A14.69,14.69,0,0,0,70,110.37"/><path class="cls-12" d="M102.57,91.34c.19,2.29,3.92,13.56-2.69,20.72"/><path class="cls-7" d="M107.14,81.83C106.25,77,99,65.28,93.53,62.5s-13.29-1.22-16.68.91-13.26,16.18-13.15,21,3.63,10.43,3.63,10.43C68.08,86.92,75,76.38,75,76.38L72.77,82A43.13,43.13,0,0,1,81.56,74c6.58-4.87,8.36-6.5,8.36-6.5a47.06,47.06,0,0,1,7.9,8.84c3.17,4.43,7.65,13.6,7.65,17.52C105.47,93.9,108.11,87.17,107.14,81.83Z"/><path class="cls-12" d="M105.47,93.9c0-3.92-4.48-13.09-7.65-17.52a47.06,47.06,0,0,0-7.9-8.84s-1.78,1.63-8.36,6.5A43.13,43.13,0,0,0,72.77,82L75,76.38s-6.9,10.54-7.65,18.44"/><polygon class="cls-4" points="125 144.62 47.8 144.62 47.12 147.67 125.68 147.67 125 144.62"/><polygon class="cls-4" points="123.44 138.93 49.56 138.93 48.6 141.98 124.27 141.98 123.44 138.93"/><polygon class="cls-4" points="121.04 133.24 51.71 133.24 50.58 136.29 122.35 136.29 121.04 133.24"/><polygon class="cls-4" points="117.43 127.55 55.41 127.55 53.18 130.6 119.57 130.6 117.43 127.55"/><polygon class="cls-4" points="110.43 122.14 99.92 122.14 92.06 125.19 114.75 125.19 110.43 122.14"/><polygon class="cls-4" points="61.9 122.14 72.41 122.14 80.27 125.19 57.59 125.19 61.9 122.14"/><path class="cls-12" d="M75,65A88.77,88.77,0,0,0,68.17,79a71,71,0,0,0-3.1,13.39"/><path class="cls-12" d="M82.07,65A46.53,46.53,0,0,0,75,76.38"/><path class="cls-12" d="M104.51,76.3s5.54,15.76,5.54,23.85c0,8.53-5.54,11.92-5.54,11.92"/><path class="cls-12" d="M105.47,93.9s-.74-18.26-9.41-27.66"/><path class="cls-12" d="M47.12,147.32c2.18-9,5-17.19,9.63-21a123.51,123.51,0,0,1,10.66-7.4,30.69,30.69,0,0,0,38,0,121.71,121.71,0,0,1,10.65,7.4c4.63,3.86,7.46,12,9.64,21"/><rect class="cls-13" y="63.97" width="34.93" height="79.24" rx="9"/><path class="cls-3" d="M25.5,95a22.64,22.64,0,0,1-7.8-9v7.51h3.85V95H17.7v3.35H16.15V95h-4V93.46h4V86a26,26,0,0,1-7.72,9.28L7.12,94A24.82,24.82,0,0,0,14.9,85H7.63V83.44h8.52V79l1.61.11c.09,0,.45,0,.45.21s-.21.3-.51.48v3.68h8.62V85H18.79a21.29,21.29,0,0,0,8.09,8.76Z"/><path class="cls-3" d="M25.27,125.12a14.25,14.25,0,0,1-8.3-9.71c-1.06,4.16-2.67,7.43-7.9,10l-1.22-1.29a12.89,12.89,0,0,0,6.45-5.64c1.76-3.14,1.76-7,1.76-12.08l1.85.13c.37,0,.58.07.58.26s-.21.37-.6.65c-.06.6-.17,3.59-.17,4.24a12.73,12.73,0,0,0,2.3,7,15.15,15.15,0,0,0,6.47,5.08Z"/><rect class="cls-14" y="209.76" width="34.93" height="79.24" rx="9"/><path class="cls-3" d="M7.85,226.91a11.64,11.64,0,0,0,3.33-4,14.6,14.6,0,0,0,1.46-4.64l1.9.46c.3.07.47.14.47.25s-.28.23-.67.33a16.3,16.3,0,0,1-1.12,3.24,14.8,14.8,0,0,1-3.65,5.15Zm12.54-8.49a23.33,23.33,0,0,1,3.52,4.11,17.57,17.57,0,0,1,2,3.81l-1.85.62a17.84,17.84,0,0,0-5.2-7.84Zm2.47.05c0-.88.95-1.56,2.11-1.56s2.13.69,2.13,1.56S26.13,220,25,220,22.86,219.37,22.86,218.47Zm3.29,0c0-.48-.52-.85-1.16-.85s-1.18.4-1.18.85.58.87,1.16.87S26.15,219,26.15,218.45Z"/><path class="cls-3" d="M16.17,240.81V229.46l1.35,0c.59,0,.89,0,.89.22a.23.23,0,0,1-.13.19c-.28.21-.32.22-.43.32v10.58Z"/><path class="cls-3" d="M17.42,246.74a28.88,28.88,0,0,1,7,3.07l-1,1.1a24.74,24.74,0,0,0-3-1.65,21.59,21.59,0,0,0-3.68-1.42v7H15.07v-12.3l1.64.07c.11,0,.6,0,.6.22s-.17.17-.52.34v4.46Z"/><path class="cls-3" d="M25.93,260.14v1.15h-7.5a7.66,7.66,0,0,1-2,4.94,12.25,12.25,0,0,1-4.89,2.93L10.08,268a8.76,8.76,0,0,0,5-2.66,6.85,6.85,0,0,0,1.62-4.06H8.45v-1.15h8.24c0-2.32,0-3.29-.07-3.77l2.17.11c.26,0,.41.1.41.19s-.36.3-.6.43c-.11,2-.11,2.22-.13,3Z"/><path class="cls-3" d="M16.17,281.92V270.57l1.35.05c.59,0,.89,0,.89.22a.26.26,0,0,1-.13.19c-.28.2-.32.22-.43.31v10.58Z"/></svg>