<svg id="レイヤー_1" data-name="レイヤー 1" xmlns="http://www.w3.org/2000/svg" xmlns:xlink="http://www.w3.org/1999/xlink" viewBox="0 0 829.46 165.46"><defs><style>.cls-1{fill:none;}.cls-2{fill:#ecff00;}.cls-3{stroke:#ecff00;stroke-miterlimit:10;stroke-width:4.46px;fill:url(#新規パターンスウォッチ_30);}.cls-4{fill:#4c4345;}.cls-5{fill:#ff64a5;}</style><pattern id="新規パターンスウォッチ_30" data-name="新規パターンスウォッチ 30" width="75.42" height="75.42" patternTransform="translate(-3.08 56.05) scale(1.11)" patternUnits="userSpaceOnUse" viewBox="0 0 75.42 75.42"><rect class="cls-1" width="75.42" height="75.42"/><polygon class="cls-2" points="58.73 -56.84 -56.84 58.73 -58.73 56.84 56.84 -58.73 58.73 -56.84"/><polygon class="cls-2" points="62.5 -53.07 -53.07 62.5 -54.96 60.61 60.62 -54.96 62.5 -53.07"/><polygon class="cls-2" points="66.27 -49.3 -49.3 66.27 -51.19 64.39 64.39 -51.19 66.27 -49.3"/><polygon class="cls-2" points="70.04 -45.53 -45.53 70.04 -47.41 68.16 68.16 -47.41 70.04 -45.53"/><polygon class="cls-2" points="73.81 -41.76 -41.76 73.81 -43.65 71.93 71.93 -43.65 73.81 -41.76"/><polygon class="cls-2" points="77.58 -37.99 -37.99 77.58 -39.87 75.7 75.7 -39.87 77.58 -37.99"/><polygon class="cls-2" points="81.36 -34.22 -34.22 81.35 -36.1 79.47 79.47 -36.1 81.36 -34.22"/><polygon class="cls-2" points="85.13 -30.45 -30.45 85.13 -32.33 83.24 83.24 -32.33 85.13 -30.45"/><polygon class="cls-2" points="88.9 -26.68 -26.68 88.9 -28.56 87.01 87.01 -28.56 88.9 -26.68"/><polygon class="cls-2" points="92.67 -22.9 -22.9 92.67 -24.79 90.78 90.78 -24.79 92.67 -22.9"/><polygon class="cls-2" points="96.44 -19.13 -19.13 96.44 -21.02 94.55 94.55 -21.02 96.44 -19.13"/><polygon class="cls-2" points="100.21 -15.36 -15.36 100.21 -17.25 98.32 98.32 -17.25 100.21 -15.36"/><polygon class="cls-2" points="103.98 -11.59 -11.59 103.98 -13.48 102.09 102.1 -13.48 103.98 -11.59"/><polygon class="cls-2" points="107.75 -7.82 -7.82 107.75 -9.71 105.87 105.87 -9.71 107.75 -7.82"/><polygon class="cls-2" points="111.52 -4.05 -4.05 111.52 -5.93 109.64 109.64 -5.93 111.52 -4.05"/><polygon class="cls-2" points="115.29 -0.28 -0.28 115.29 -2.16 113.41 113.41 -2.16 115.29 -0.28"/><polygon class="cls-2" points="119.06 3.49 3.49 119.06 1.61 117.18 117.18 1.61 119.06 3.49"/><polygon class="cls-2" points="122.84 7.26 7.26 122.83 5.38 120.95 120.95 5.38 122.84 7.26"/><polygon class="cls-2" points="126.61 11.03 11.04 126.61 9.15 124.72 124.72 9.15 126.61 11.03"/><polygon class="cls-2" points="130.38 14.81 14.81 130.38 12.92 128.49 128.49 12.92 130.38 14.81"/><polygon class="cls-2" points="134.15 18.58 18.58 134.15 16.69 132.26 132.26 16.69 134.15 18.58"/></pattern></defs><rect class="cls-3" x="2.23" y="2.23" width="825" height="161"/><path class="cls-4" d="M136.17,56.66l-3.7.05c-.19,0-.29-.1-.29-.32V54.22c0-.21.1-.32.29-.32l3.7.06H140a18.58,18.58,0,0,0,1.15-2.86,5.1,5.1,0,0,0,.2-1.32q.62.12,1.44.33l1.17.3c.25.08.37.22.37.43a.58.58,0,0,1-.24.45,2,2,0,0,0-.45.69c-.37.84-.68,1.5-.94,2L146,53.9q.22,0,.27.06a.49.49,0,0,1,.05.26v2.17c0,.16,0,.25-.06.28a.51.51,0,0,1-.26,0l-3.7-.05h-1.38a10.51,10.51,0,0,0-.07,1.65v.54h1l3.6-.05a.47.47,0,0,1,.28.05.53.53,0,0,1,0,.27v2.12a.25.25,0,0,1-.32.34l-3.6-.06h-.21a14.29,14.29,0,0,0,3.84,3.15,10,10,0,0,0-1.05,1.92c-.13.33-.25.49-.36.49s-.35-.14-.63-.43a15.25,15.25,0,0,1-2.68-3.12c0,1.67.06,3.41.1,5.22q.06,2.06.06,2.37c0,.16,0,.26-.07.3a.77.77,0,0,1-.29,0H138.2c-.15,0-.25,0-.28-.07s0-.12,0-.27,0-1.05.06-2.66c0-1.46.05-2.88.06-4.27A25.41,25.41,0,0,1,134.1,69c-.31.29-.52.43-.63.43s-.33-.2-.49-.6a8.13,8.13,0,0,0-1.17-2,18.5,18.5,0,0,0,5.31-5.34h-.75l-3.63.06c-.16,0-.25,0-.28-.06a.52.52,0,0,1-.05-.28V59.12c0-.16,0-.25.06-.28a.53.53,0,0,1,.27,0l3.63.05h1.57v-.54q0-1.2,0-1.65ZM142,49.45h-5.27l-3.55,0a.5.5,0,0,1-.28,0,.53.53,0,0,1,0-.27V47.1c0-.16,0-.25.06-.28a.49.49,0,0,1,.26,0l3.55.06h1.17V46a8.26,8.26,0,0,0-.19-2c1.33,0,2.37.09,3.12.16.32,0,.49.11.49.26a1.49,1.49,0,0,1-.18.52,2.49,2.49,0,0,0-.15,1.08v.78h1l3.52-.06c.18,0,.28,0,.31.06a.49.49,0,0,1,0,.26v2.08a.47.47,0,0,1,0,.28.63.63,0,0,1-.3,0Zm-7.16,1.39a.73.73,0,0,1-.11-.28c0-.11.13-.19.37-.24l1.54-.45a1,1,0,0,1,.25,0c.11,0,.2.08.28.25a12.1,12.1,0,0,1,1.11,2.71.64.64,0,0,1,.05.2c0,.12-.12.21-.34.28l-1.72.44a.94.94,0,0,1-.3.07q-.21,0-.3-.3A15.84,15.84,0,0,0,134.79,50.84Zm8.81,19a14.71,14.71,0,0,0,3.09-6.08,42.4,42.4,0,0,0,.6-8.65V51.82q0-3-.18-5.13a14.64,14.64,0,0,1,2.76.72,20.57,20.57,0,0,0,5.2-2.08,8.67,8.67,0,0,0,1.59-1.1,12,12,0,0,1,2,2.12,1,1,0,0,1,.2.57c0,.21-.15.33-.45.37a3.85,3.85,0,0,0-1.17.35,32.14,32.14,0,0,1-7,2.47v3.66h5.13l4.09-.06c.15,0,.25,0,.27.06a.49.49,0,0,1,.05.26v2.2c0,.16,0,.25-.06.28a.51.51,0,0,1-.26,0H159l-2.64,0V67.06l.06,4.15a.49.49,0,0,1-.06.31.38.38,0,0,1-.23,0h-2.48c-.16,0-.25,0-.28-.06a.58.58,0,0,1,0-.29l.06-4.15V56.5h-3.21a39.7,39.7,0,0,1-.78,8.67,17.55,17.55,0,0,1-2.59,5.7q-.43.57-.63.57a1.71,1.71,0,0,1-.66-.42A6.61,6.61,0,0,0,143.6,69.82Z"/><path class="cls-4" d="M181.79,54.77a2.85,2.85,0,0,1,2.22,1,3,3,0,0,1-.22,4.24,2.84,2.84,0,0,1-2,.78,3,3,0,1,1,0-6Z"/><path class="cls-4" d="M212.85,52.39c.31-1.08.6-2.34.9-3.78a20.43,20.43,0,0,0,.31-3.33,27,27,0,0,1,3.59,1,.58.58,0,0,1,.48.6.63.63,0,0,1-.21.45,4.08,4.08,0,0,0-.6,1.14c-.14.45-.33,1.09-.57,1.91s-.39,1.32-.51,1.7a19.19,19.19,0,0,1,2.34-.13A3.8,3.8,0,0,1,222,53.55a6.85,6.85,0,0,1,1,3.94,31.9,31.9,0,0,1-.49,5.67,15.74,15.74,0,0,1-1.14,4A4.24,4.24,0,0,1,217.26,70a9.94,9.94,0,0,1-3-.34.77.77,0,0,1-.54-.83,10,10,0,0,0-.56-2.79,9.31,9.31,0,0,0,3.3.66,1.71,1.71,0,0,0,1.21-.38,3.39,3.39,0,0,0,.71-1.22,21.07,21.07,0,0,0,1.17-7.43,4.32,4.32,0,0,0-.41-2.28,1.52,1.52,0,0,0-1.3-.52,19.23,19.23,0,0,0-2.53.21,87.68,87.68,0,0,1-6,14.11c-.11.25-.26.37-.44.37a.72.72,0,0,1-.34-.1,8.52,8.52,0,0,1-2.08-1.32.65.65,0,0,1-.24-.44.56.56,0,0,1,.12-.34,68.07,68.07,0,0,0,5.5-11.77c-.69.11-1.66.28-2.93.52a9.32,9.32,0,0,0-1.66.48,1.09,1.09,0,0,1-.37.07.62.62,0,0,1-.6-.47,29,29,0,0,1-.92-3.09c1.1,0,2.42-.07,4-.2C210.39,52.74,211.57,52.59,212.85,52.39Zm10.69-.23A26.71,26.71,0,0,1,226,50.62a.42.42,0,0,1,.21-.06.58.58,0,0,1,.36.2,19.66,19.66,0,0,1,5,7.3.67.67,0,0,1,.07.27.43.43,0,0,1-.19.33,9,9,0,0,1-2.26,1.5.64.64,0,0,1-.31.09.38.38,0,0,1-.38-.33A20.47,20.47,0,0,0,223.54,52.16Z"/><path class="cls-4" d="M245.5,47c.67.05,1.31.07,1.92.07.36,0,.71,0,1.06,0,1-.08,3.28-.37,6.84-.89a4.78,4.78,0,0,0,1.6-.51,1,1,0,0,1,.57-.21,1.58,1.58,0,0,1,.81.45,8.68,8.68,0,0,1,1.46,1.5,1.34,1.34,0,0,1,.37.84c0,.28-.18.51-.54.7a6.51,6.51,0,0,0-1.23.89q-5.4,4.77-9.1,7.57l.05.08a128.58,128.58,0,0,1,14.47-3.29l.13,0c.24,0,.38.16.44.48a12.53,12.53,0,0,1,.34,2.44v.07c0,.21-.16.32-.48.35a23.75,23.75,0,0,0-5.59,1,8.75,8.75,0,0,0-4,2.58,4.54,4.54,0,0,0-1.1,2.92q0,3.75,7.51,3.75a.4.4,0,0,1,.45.45v.09c0,.24-.15,1.08-.4,2.52q-.07.66-.66.66c-.36,0-1-.06-2-.17q-4.38-.45-6.42-2.5a5.75,5.75,0,0,1-1.69-4.29,6.16,6.16,0,0,1,1-3.31,7.25,7.25,0,0,1,2.63-2.5v-.05q-3.71,1-9.88,3.16a5,5,0,0,1-.87.32c-.25,0-.45-.19-.6-.6a22.65,22.65,0,0,1-1-2.46q.66-.18,1.56-.48a14.32,14.32,0,0,0,2.88-1.78,101.39,101.39,0,0,0,8.56-7.85q-1.75.48-5.35,1.16c-.65.13-1,.22-1.14.25a1.38,1.38,0,0,0-.28.11,1.52,1.52,0,0,1-.55.18q-.37,0-.72-.66A15.57,15.57,0,0,1,245.5,47Zm15.19,1.52,1.6-1.11a.23.23,0,0,1,.17-.07.46.46,0,0,1,.28.13,12.76,12.76,0,0,1,2.84,3.22.37.37,0,0,1,.09.22.33.33,0,0,1-.17.25l-1.27.94a.4.4,0,0,1-.23.09.38.38,0,0,1-.28-.19A15,15,0,0,0,260.69,48.49Zm2.77-2L265,45.43a.37.37,0,0,1,.19-.07.47.47,0,0,1,.27.13,12.15,12.15,0,0,1,2.86,3.09.59.59,0,0,1,.08.25.35.35,0,0,1-.19.29l-1.18.94a.48.48,0,0,1-.25.09.33.33,0,0,1-.27-.19A14.29,14.29,0,0,0,263.46,46.51Z"/><path class="cls-4" d="M292.25,44.8a23.17,23.17,0,0,1,3.32,2.29.58.58,0,0,1,.23.46.6.6,0,0,1-.43.58,6.58,6.58,0,0,0-1.43,1c-3.29,3-6,5.55-8.19,7.8a1.45,1.45,0,0,0-.4.66c0,.16.13.34.4.54a82.06,82.06,0,0,1,11.16,9.45.8.8,0,0,1,.21.4.56.56,0,0,1-.21.35,26.93,26.93,0,0,1-2.08,2.08.78.78,0,0,1-.41.24q-.14,0-.36-.27a79.09,79.09,0,0,0-10.92-10.14,3.32,3.32,0,0,1-1.6-2.53,2.56,2.56,0,0,1,.44-1.4,9.59,9.59,0,0,1,1-1.24l4.06-4.28q2.25-2.34,3.58-3.78A9.29,9.29,0,0,0,292.25,44.8Z"/><path class="cls-4" d="M327.82,50.78q-1.12,8.34-3.75,12.93c-1.32,2.3-3,3.46-5.12,3.46a4.6,4.6,0,0,1-3.84-2.29,9.45,9.45,0,0,1-1.46-5.42A10.77,10.77,0,0,1,317,51.64a13.23,13.23,0,0,1,9.76-3.84q5.65,0,8.8,3.35a9.91,9.91,0,0,1,2.64,7.06q0,8.15-9.25,10.93a1.79,1.79,0,0,1-.44.08c-.3,0-.58-.21-.85-.62a6.35,6.35,0,0,0-2.1-1.89q4.64-1.09,6.74-3.09a7.69,7.69,0,0,0,2.32-5.88,6.84,6.84,0,0,0-2.1-5.07,6.31,6.31,0,0,0-4.61-1.89Zm-3.49.17a9.28,9.28,0,0,0-5.13,2.73,8.29,8.29,0,0,0-2.34,5.56,6.56,6.56,0,0,0,.74,3.32c.39.65.82,1,1.29,1,.82,0,1.58-.61,2.26-1.83a26.23,26.23,0,0,0,2-5.16A36.92,36.92,0,0,0,324.33,51Z"/><path class="cls-4" d="M360.09,50.41c1.24-.22,2.66-.56,4.26-1l.16,0c.19,0,.29.11.31.32a21.66,21.66,0,0,1,.22,2.16V52c0,.23-.15.37-.45.44a46.7,46.7,0,0,1-5.22,1.14q-3,9.7-5.5,16.24c-.08.24-.21.36-.36.36a1.27,1.27,0,0,1-.3-.06,18.81,18.81,0,0,1-2.4-1.12.47.47,0,0,1-.28-.42.57.57,0,0,1,0-.18,117.58,117.58,0,0,0,5.2-14.22,50.22,50.22,0,0,1-5.24.34.55.55,0,0,1-.63-.48c-.11-.53-.25-1.44-.43-2.74a16,16,0,0,0,2.23.1,38.65,38.65,0,0,0,4.85-.31c.24-.92.49-2.17.76-3.75a20.86,20.86,0,0,0,.18-2.76,19.55,19.55,0,0,1,3.77.84.47.47,0,0,1,.33.48.93.93,0,0,1-.14.49,9.55,9.55,0,0,0-.63,1.18c-.11.4-.25,1-.41,1.66S360.16,50.18,360.09,50.41Zm.54,13.78a11.51,11.51,0,0,1,2.55-.45.42.42,0,0,1,.46.42,2.67,2.67,0,0,0,1.46,2.32,7.32,7.32,0,0,0,3.12.51,42.47,42.47,0,0,0,5-.43h.11c.15,0,.24.09.26.28a17.82,17.82,0,0,1,.24,2.62,1,1,0,0,1,0,.15c0,.19-.16.3-.48.32a27.32,27.32,0,0,1-4.09.34,18.07,18.07,0,0,1-4.87-.51A5.66,5.66,0,0,1,362,68.31,6,6,0,0,1,360.63,64.19ZM363,58.52c-.09-1.42-.14-2.33-.14-2.73a.59.59,0,0,1,.12-.44.85.85,0,0,1,.43-.16,29.29,29.29,0,0,1,5.84-.69,21.9,21.9,0,0,1,3.52.29.93.93,0,0,1,.43.14c.06,0,.08.15.08.32,0,.41.05.87.05,1.38,0,.3,0,.64,0,1s-.11.57-.35.57l-.22,0a19.72,19.72,0,0,0-3.72-.35A31.1,31.1,0,0,0,363,58.52Z"/><path class="cls-4" d="M398.82,51.32a26.19,26.19,0,0,0,.87-3.66,12.64,12.64,0,0,0,.1-1.34,5,5,0,0,0-.05-.71,12.58,12.58,0,0,1,3.55,1.2q.48.21.48.54a.92.92,0,0,1-.2.51A5,5,0,0,0,403,49c-.31.82-.6,1.62-.85,2.4a9.74,9.74,0,0,1,6.07,3.14,8.28,8.28,0,0,1,1.95,5.57q0,7.75-9.22,10a2.51,2.51,0,0,1-.46.06c-.27,0-.53-.19-.77-.57a5.78,5.78,0,0,0-1.95-2q9-1.84,9-7.93a5.32,5.32,0,0,0-1.66-4A6.11,6.11,0,0,0,401.31,54a56.85,56.85,0,0,1-4.38,8.76,10.33,10.33,0,0,0,1.29,1.53,9.3,9.3,0,0,1-1.86,1.84.72.72,0,0,1-.43.15.69.69,0,0,1-.41-.18c-.32-.32-.59-.61-.82-.87q-2.68,2.84-5,2.84a3.47,3.47,0,0,1-2.95-1.48,5.56,5.56,0,0,1-1-3.39q0-4.74,4.27-8.6c-.1-.32-.41-1.64-.94-4a15.49,15.49,0,0,0-.9-2.83,12.36,12.36,0,0,1,3.39.49c.38.09.57.38.57.86a11.32,11.32,0,0,0,.12,1.72c.16,1,.31,1.67.42,2.12A16,16,0,0,1,398.82,51.32ZM391,57.71a8,8,0,0,0-2.1,5.22,2.51,2.51,0,0,0,.33,1.36.83.83,0,0,0,.73.47c.88,0,1.92-.73,3.12-2.18A30.8,30.8,0,0,1,391,57.71Zm2.46-2a21.06,21.06,0,0,0,1.69,4.39,38,38,0,0,0,2.84-6.07A10.78,10.78,0,0,0,393.41,55.73Z"/><path class="cls-4" d="M435.88,50.78q-1.12,8.34-3.75,12.93c-1.32,2.3-3,3.46-5.12,3.46a4.6,4.6,0,0,1-3.84-2.29,9.52,9.52,0,0,1-1.46-5.42,10.81,10.81,0,0,1,3.38-7.82,13.24,13.24,0,0,1,9.77-3.84q5.64,0,8.79,3.35a9.91,9.91,0,0,1,2.64,7.06q0,8.15-9.25,10.93a1.72,1.72,0,0,1-.44.08c-.29,0-.58-.21-.85-.62a6.35,6.35,0,0,0-2.1-1.89,14.75,14.75,0,0,0,6.75-3.09,7.72,7.72,0,0,0,2.31-5.88,6.87,6.87,0,0,0-2.09-5.07A6.32,6.32,0,0,0,436,50.78Zm-3.49.17a9.28,9.28,0,0,0-5.13,2.73,8.29,8.29,0,0,0-2.34,5.56,6.45,6.45,0,0,0,.75,3.32c.39.65.82,1,1.29,1q1.23,0,2.25-1.83a25.62,25.62,0,0,0,2-5.16A36.92,36.92,0,0,0,432.39,51Z"/><path class="cls-4" d="M461.88,50.31v3.58a64.21,64.21,0,0,1-.57,9.48A22.86,22.86,0,0,1,459,70.45c-.21.38-.36.57-.47.57s-.34-.16-.6-.48A8.19,8.19,0,0,0,456,68.87a18.9,18.9,0,0,0,2.27-6.67,59.23,59.23,0,0,0,.49-8.89l-.06-5.49c0-.16,0-.25.07-.28a.6.6,0,0,1,.29,0l4,0h6V46.29a13,13,0,0,0-.19-2.43q1.14,0,3.18.18.48.06.48.3a2.18,2.18,0,0,1-.17.58,3,3,0,0,0-.21,1.29v1.34h6.42l4,0a.57.57,0,0,1,.29,0,.53.53,0,0,1,0,.27v2.26c0,.19-.11.29-.33.29l-4-.06Zm2.77,8.15,1.92.51c.27.06.41.16.41.3s0,.09,0,.17a33.18,33.18,0,0,1-2.22,8.3c-.07.12-.15.19-.24.19a1.64,1.64,0,0,1-.39-.13l-2-1c-.21-.1-.31-.21-.31-.32a.64.64,0,0,1,.09-.28,24.31,24.31,0,0,0,2.26-7.57c0-.18.07-.27.17-.27A1.76,1.76,0,0,1,464.65,58.46Zm11.94,5.64a7.24,7.24,0,0,0,2.17.87,2.38,2.38,0,0,1,.63.19.39.39,0,0,1,.13.33,3.76,3.76,0,0,1,0,.47,10.23,10.23,0,0,1-.64,3.1,3.23,3.23,0,0,1-1.07,1.29,8.22,8.22,0,0,1-4.25.77c-2.2,0-3.66-.25-4.37-.74a1.84,1.84,0,0,1-.66-1,6.16,6.16,0,0,1-.18-1.71V60.41a30.53,30.53,0,0,0-.2-3.61c1.09,0,2.11.13,3.06.25.4,0,.6.16.6.38a1.4,1.4,0,0,1-.25.66,8.53,8.53,0,0,0-.17,2.41v6a5,5,0,0,0,.07,1.09.9.9,0,0,0,.35.47,3.86,3.86,0,0,0,1.92.3,3.73,3.73,0,0,0,2.13-.46,2.22,2.22,0,0,0,.6-1.36A21.57,21.57,0,0,0,476.59,64.1ZM470.53,51a31.68,31.68,0,0,1,5.71,3.73c.14.07.21.15.21.23s-.08.2-.22.37L474.82,57c-.16.2-.27.29-.35.29s-.12-.05-.22-.14a30.22,30.22,0,0,0-5.59-4c-.11-.07-.17-.13-.17-.18s.06-.16.17-.29l1.26-1.48c.17-.18.29-.26.36-.26A.76.76,0,0,1,470.53,51Zm7.09,7.86a.5.5,0,0,1-.09-.22c0-.1.12-.2.35-.31l1.81-.82a.94.94,0,0,1,.33-.12c.08,0,.16.08.24.22a34.19,34.19,0,0,1,3.35,7.92,1.16,1.16,0,0,1,.05.22c0,.1-.13.21-.4.35l-1.92.94a1.14,1.14,0,0,1-.38.15c-.08,0-.14-.1-.19-.28A33.41,33.41,0,0,0,477.62,58.84Z"/><path class="cls-4" d="M492.53,68.22a23.44,23.44,0,0,0,2.58.09q.63,0,.63-.84v-6l-1.17.37a4.27,4.27,0,0,0-1.05.51.8.8,0,0,1-.52.18c-.16,0-.29-.12-.38-.37-.18-.77-.35-1.72-.51-2.84a22.62,22.62,0,0,0,2.78-.57l.85-.25V52.7h-.54l-2.58.06a.46.46,0,0,1-.29-.06.55.55,0,0,1,0-.28V50.24c0-.16,0-.26.07-.3s.12,0,.26,0l2.58.07h.54V48.38a37.18,37.18,0,0,0-.22-4.27,29,29,0,0,1,3.05.22c.35,0,.52.14.52.32a2.3,2.3,0,0,1-.22.63,12.7,12.7,0,0,0-.18,3V50l2.24-.07q.26,0,.3.06a.55.55,0,0,1,0,.28v2.18c0,.17,0,.26-.06.29a.52.52,0,0,1-.28,0l-2.24-.06v4.81c.32-.12,1.1-.43,2.35-.94a11.7,11.7,0,0,0-.17,2.17,1.35,1.35,0,0,1-.13.75,1.54,1.54,0,0,1-.5.29c-.43.2-.94.42-1.55.66v1.23l.09,6c0,1.52-.31,2.51-.94,3a6.1,6.1,0,0,1-3.44.66H494c-.3,0-.5-.06-.59-.19a2,2,0,0,1-.19-.71A7.23,7.23,0,0,0,492.53,68.22Zm6.4.89a17.09,17.09,0,0,0,6.47-10.2l-2.47.05h-.74c-.15,0-.25,0-.29-.07a.55.55,0,0,1,0-.28v-2c0-.16,0-.25.07-.28a.44.44,0,0,1,.26-.05l3.7.06c0-.32.08-.86.11-1.62l-3.54,0a.47.47,0,0,1-.28,0,.64.64,0,0,1-.05-.3V52.76a.47.47,0,0,1,.06-.3.68.68,0,0,1,.27,0l3.91.06h6.45a23.57,23.57,0,0,0,1.61-3.27,8.67,8.67,0,0,0,.46-1.63,18.68,18.68,0,0,1,2.66.72c.27.1.4.24.4.43a.6.6,0,0,1-.28.45,1.84,1.84,0,0,0-.47.57c-.8,1.55-1.28,2.46-1.43,2.73l2.9-.06a.46.46,0,0,1,.29.06.52.52,0,0,1,0,.28v1.71a.26.26,0,0,1-.34.35l-3.93,0h-5.82c-.08.71-.15,1.25-.22,1.62h6.49l4-.06c.21,0,.31.11.31.33v2a.54.54,0,0,1,0,.3s-.11,0-.26,0l-4-.06h-6.93c-.09.38-.23.94-.42,1.66h6.81a1.68,1.68,0,0,0,.63-.12.87.87,0,0,1,.4-.09c.23,0,.58.27,1,.81s.76.91.76,1.14-.11.29-.34.41a3.18,3.18,0,0,0-.77.91,24.39,24.39,0,0,1-2.92,3.42,26,26,0,0,0,6.42,1.89A6.64,6.64,0,0,0,519,70.8c-.2.53-.39.79-.59.79a3.1,3.1,0,0,1-.64-.13,24.22,24.22,0,0,1-6.47-2.61,20.89,20.89,0,0,1-5.7,2.7,2.33,2.33,0,0,1-.69.17q-.23,0-.57-.69a7,7,0,0,0-1.11-1.58A19.21,19.21,0,0,0,509,67.19a16.62,16.62,0,0,1-2.58-2.84,19.32,19.32,0,0,1-4.84,6.29,1.71,1.71,0,0,1-.66.42q-.19,0-.57-.51A7.75,7.75,0,0,0,498.93,69.11ZM516.21,44a11.89,11.89,0,0,1,2,1.65c.23.22.34.39.34.51s-.21.36-.63.36a10.12,10.12,0,0,0-1.32.18,105.61,105.61,0,0,1-12.74,1.53l-.52,0a.68.68,0,0,1-.53-.17,2.71,2.71,0,0,1-.29-.66,5.55,5.55,0,0,0-.87-1.64,65.12,65.12,0,0,0,12.88-1.21A7.19,7.19,0,0,0,516.21,44ZM505.7,48.49A14.88,14.88,0,0,1,507.09,51a.81.81,0,0,1,.06.24c0,.09-.12.18-.37.28l-1.64.69a1.66,1.66,0,0,1-.35.1c-.1,0-.18-.1-.25-.28a11.4,11.4,0,0,0-1.26-2.58.61.61,0,0,1-.13-.23c0-.06.11-.14.33-.22l1.59-.63a1.17,1.17,0,0,1,.35-.09C505.51,48.29,505.6,48.36,505.7,48.49Zm7.87,14.21h-5.5a13.06,13.06,0,0,0,3,3A13.45,13.45,0,0,0,513.57,62.7ZM508.38,49a.31.31,0,0,1-.05-.13c0-.11.16-.22.46-.33l1.36-.51a1,1,0,0,1,.37-.1c.1,0,.19.07.29.22a14.37,14.37,0,0,1,1.38,2.74.54.54,0,0,1,0,.19c0,.12-.11.22-.35.31l-1.61.67a1.29,1.29,0,0,1-.37.12c-.08,0-.16-.1-.23-.31A19.6,19.6,0,0,0,508.38,49Z"/><path class="cls-4" d="M527.65,55.79a28.23,28.23,0,0,0,5.13-9.67,14.06,14.06,0,0,0,.48-2.16A18.37,18.37,0,0,1,536,45q.48.18.48.54a.88.88,0,0,1-.34.54,3.56,3.56,0,0,0-.58,1.2q-.92,2.55-1.72,4.3V66.74l.06,4.53c0,.16,0,.25-.06.29a.49.49,0,0,1-.26,0h-2.45c-.16,0-.25,0-.28-.06a.55.55,0,0,1,0-.28l.06-4.53V60.38q0-2.43,0-3.72-.49.72-1.5,2-.37.42-.54.42c-.16,0-.27-.17-.34-.51A8.41,8.41,0,0,0,527.65,55.79ZM540.74,49l-4.12.06c-.16,0-.25,0-.28-.06a.48.48,0,0,1-.05-.27V46.54a.26.26,0,0,1,.33-.36l4.12,0h10.61l4.12,0c.15,0,.25,0,.29.07a.6.6,0,0,1,0,.29v2.22c0,.16,0,.26-.07.29s-.12,0-.26,0L551.35,49h-1.91v4.62h.93l4.16-.06c.16,0,.26,0,.29.06a.53.53,0,0,1,0,.27l-.05,4.92v5.23l.05,6.57c0,.16,0,.25-.05.29a.5.5,0,0,1-.27,0H552.2c-.17,0-.27,0-.3-.08s0-.11,0-.26V69.38H539.3v1.38a.46.46,0,0,1-.06.29.55.55,0,0,1-.28,0h-2.31c-.16,0-.25,0-.28-.06a.48.48,0,0,1,0-.27l.06-6.6V59.41l-.06-5.49c0-.16,0-.25.06-.28a.52.52,0,0,1,.28,0l4.1.06h.78V49ZM539.3,66.71h2.24V56.29H539.3Zm5-13.06h2.33V49h-2.33Zm0,13.06h2.33V56.29h-2.33Zm7.53-10.42h-2.42V66.71h2.42Z"/><path class="cls-4" d="M592.47,58.34a6.61,6.61,0,0,0-.93,2.07c-.14.55-.31.82-.49.82a3.55,3.55,0,0,1-.68-.13c-.7-.24-1.15-.4-1.35-.49l-.06,3V66.2l.06,5c0,.16,0,.25-.06.28a.51.51,0,0,1-.27,0h-2.38c-.15,0-.25,0-.28-.06s0-.12,0-.26V70h-7v1.2c0,.16,0,.25-.06.28a.51.51,0,0,1-.26,0h-2.32c-.17,0-.26,0-.29-.06a.44.44,0,0,1-.05-.26l.06-5V63.94c0-1.32,0-2.28-.06-2.87l-.89.35a2.78,2.78,0,0,1-.72.22c-.19,0-.41-.27-.63-.81a5.14,5.14,0,0,0-1-1.74,26.7,26.7,0,0,0,7.83-3.9A18.57,18.57,0,0,1,578.16,52a22.31,22.31,0,0,1-2,2.1q-.51.48-.69.48t-.66-.57a5.82,5.82,0,0,0-1.38-1.29l-1.65,0a14.79,14.79,0,0,0,2.86,3.6,6.57,6.57,0,0,0-1,1.88c-.11.38-.23.57-.33.57s-.24-.15-.46-.45a17.16,17.16,0,0,1-1.44-2.3l.21,15.15c0,.18,0,.28-.06.31a.6.6,0,0,1-.29,0h-2.43q-.25,0-.3-.06s0-.13,0-.29,0-.74,0-2.09q.15-6,.18-11.2a25.82,25.82,0,0,1-3,6.62c-.19.33-.35.49-.45.49s-.24-.16-.32-.49A9.47,9.47,0,0,0,564,62.24a26.87,26.87,0,0,0,4.5-9.51h-.63l-3,.06c-.19,0-.29-.12-.29-.34V50.32c0-.22.1-.33.29-.33l3,.06h.81V48.16A26.82,26.82,0,0,0,568.4,44c1.15,0,2.16.11,3,.22.34,0,.51.13.51.32a1.81,1.81,0,0,1-.18.63,10.14,10.14,0,0,0-.22,2.89v1.95L574,50a.47.47,0,0,1,.3.06.53.53,0,0,1,0,.27v1.53a20.32,20.32,0,0,0,4.41-6.33,7.7,7.7,0,0,0,.57-1.72q1.57.24,2.76.54.48.13.48.36a.62.62,0,0,1-.23.42,2.67,2.67,0,0,0-.59.84l-.41.94h5.57a1.19,1.19,0,0,0,.54-.09.82.82,0,0,1,.34-.09c.28,0,.68.26,1.17.78s.72.93.72,1.17a.72.72,0,0,1-.32.54,2.79,2.79,0,0,0-.7.9A21.74,21.74,0,0,1,585,55.19,22,22,0,0,0,592.47,58.34Zm-14.85,2h7.53l3.18,0a24.52,24.52,0,0,1-5.52-3.18A26.8,26.8,0,0,1,577.62,60.38ZM579,63.11V67.4h7V63.11Zm3.72-9.72a16.25,16.25,0,0,0,3-3.92H580l-.12.21A15.4,15.4,0,0,0,582.72,53.39Z"/><path class="cls-4" d="M612.15,50.41c1.24-.22,2.66-.56,4.26-1l.16,0c.19,0,.29.11.31.32a21.66,21.66,0,0,1,.22,2.16V52c0,.23-.15.37-.45.44a46.7,46.7,0,0,1-5.22,1.14q-3,9.7-5.5,16.24-.13.36-.36.36a1.27,1.27,0,0,1-.3-.06,18.81,18.81,0,0,1-2.4-1.12.47.47,0,0,1-.28-.42.57.57,0,0,1,0-.18,119.3,119.3,0,0,0,5.2-14.22,50.22,50.22,0,0,1-5.24.34q-.57,0-.63-.48c-.11-.53-.25-1.44-.43-2.74a16,16,0,0,0,2.23.1,38.65,38.65,0,0,0,4.85-.31c.23-.92.49-2.17.76-3.75a20.86,20.86,0,0,0,.18-2.76,19.39,19.39,0,0,1,3.76.84.46.46,0,0,1,.34.48.86.86,0,0,1-.15.49,9.55,9.55,0,0,0-.63,1.18c-.1.4-.24,1-.41,1.66S612.21,50.18,612.15,50.41Zm.54,13.78a11.51,11.51,0,0,1,2.55-.45.41.41,0,0,1,.45.42,2.7,2.7,0,0,0,1.47,2.32,7.29,7.29,0,0,0,3.12.51,42.64,42.64,0,0,0,5-.43h.11c.15,0,.24.09.26.28a17.63,17.63,0,0,1,.23,2.62c0,.07,0,.12,0,.15,0,.19-.16.3-.48.32a27.82,27.82,0,0,1-4.18.34,17.43,17.43,0,0,1-4.78-.51A5.66,5.66,0,0,1,614,68.31,6,6,0,0,1,612.69,64.19ZM615,58.52c-.08-1.42-.13-2.33-.13-2.73a.59.59,0,0,1,.12-.44.85.85,0,0,1,.42-.16,29.46,29.46,0,0,1,5.85-.69,22,22,0,0,1,3.52.29,1,1,0,0,1,.43.14.46.46,0,0,1,.08.32c0,.41,0,.87,0,1.38,0,.3,0,.64,0,1s-.11.57-.35.57l-.22,0a19.72,19.72,0,0,0-3.72-.35A31.28,31.28,0,0,0,615,58.52Zm5.22-10.17,1.58-1.12a.35.35,0,0,1,.2-.07.47.47,0,0,1,.26.13,12.53,12.53,0,0,1,2.84,3.21.42.42,0,0,1,.09.22.3.3,0,0,1-.16.26l-1.26.93a.4.4,0,0,1-.24.1.34.34,0,0,1-.27-.19A15.19,15.19,0,0,0,620.25,48.35Zm2.76-2,1.51-1.09a.32.32,0,0,1,.19-.07.4.4,0,0,1,.25.13,11.62,11.62,0,0,1,2.85,3.09.45.45,0,0,1,.09.25.43.43,0,0,1-.17.3l-1.21.92a.31.31,0,0,1-.51-.09A14,14,0,0,0,623,46.37Z"/><path class="cls-4" d="M645.1,52.39q.46-1.62.9-3.78a20.43,20.43,0,0,0,.31-3.33,27,27,0,0,1,3.59,1,.58.58,0,0,1,.48.6.66.66,0,0,1-.2.45,3.85,3.85,0,0,0-.61,1.14c-.14.45-.33,1.09-.57,1.91s-.39,1.32-.51,1.7a19.19,19.19,0,0,1,2.34-.13,3.8,3.8,0,0,1,3.38,1.61,6.85,6.85,0,0,1,1,3.94,31.9,31.9,0,0,1-.49,5.67,15.74,15.74,0,0,1-1.14,4,4.23,4.23,0,0,1-4,2.81,10,10,0,0,1-3-.34.77.77,0,0,1-.54-.83,9.66,9.66,0,0,0-.56-2.79,9.31,9.31,0,0,0,3.3.66,1.75,1.75,0,0,0,1.22-.38,3.55,3.55,0,0,0,.7-1.22,21.07,21.07,0,0,0,1.17-7.43,4.22,4.22,0,0,0-.41-2.28,1.52,1.52,0,0,0-1.3-.52,19,19,0,0,0-2.52.21,88.53,88.53,0,0,1-6,14.11c-.11.25-.26.37-.44.37a.72.72,0,0,1-.34-.1,8.52,8.52,0,0,1-2.08-1.32.63.63,0,0,1-.23-.44.55.55,0,0,1,.11-.34,68.07,68.07,0,0,0,5.5-11.77c-.69.11-1.66.28-2.93.52a9.32,9.32,0,0,0-1.66.48,1.09,1.09,0,0,1-.37.07.62.62,0,0,1-.6-.47,29,29,0,0,1-.92-3.09c1.1,0,2.42-.07,4-.2C642.64,52.74,643.82,52.59,645.1,52.39Zm10.69-.23a26.71,26.71,0,0,1,2.43-1.54.42.42,0,0,1,.21-.06.58.58,0,0,1,.36.2,19.66,19.66,0,0,1,5,7.3.67.67,0,0,1,.07.27.43.43,0,0,1-.19.33,9,9,0,0,1-2.26,1.5.61.61,0,0,1-.31.09.38.38,0,0,1-.38-.33A20.47,20.47,0,0,0,655.79,52.16Z"/><path class="cls-4" d="M677.89,51.25A18.47,18.47,0,0,1,681,52.33q.48.22.48.57a1,1,0,0,1-.14.46,5.56,5.56,0,0,0-.61,1.58,47.31,47.31,0,0,0-.73,5.47,17.21,17.21,0,0,1,5-3.59,12,12,0,0,1,5-1.16,7,7,0,0,1,5.37,2A6.17,6.17,0,0,1,697,62.08q0,4.45-4.53,6.73a24.25,24.25,0,0,1-7.69,2.06,3.77,3.77,0,0,1-.47,0,.81.81,0,0,1-.73-.43,8.38,8.38,0,0,0-2-2.55,23.94,23.94,0,0,0,8.25-1.68q3.55-1.53,3.55-4.53a2.86,2.86,0,0,0-1-2.27,3.94,3.94,0,0,0-2.66-.83A9.36,9.36,0,0,0,685.23,60a18.53,18.53,0,0,0-4.1,3.18,8.92,8.92,0,0,0-1.29,1.66.44.44,0,0,1-.37.26,1.3,1.3,0,0,1-.32-.06,17.82,17.82,0,0,1-2-.8.61.61,0,0,1-.43-.6q.24-4.53.93-9.69A27.08,27.08,0,0,0,677.89,51.25ZM680,47.09a16.42,16.42,0,0,1,1.78-2.35.52.52,0,0,1,.38-.19l.19,0a20.23,20.23,0,0,1,5.89,3.58.43.43,0,0,1,.2.33.76.76,0,0,1-.14.35A15.58,15.58,0,0,1,686.74,51c-.13.16-.24.24-.32.24a.57.57,0,0,1-.37-.21A23.63,23.63,0,0,0,680,47.09Z"/><path class="cls-4" d="M115,109.9l-4,.06c-.16,0-.25,0-.29-.06a.49.49,0,0,1,0-.26v-2.12q0-.22.06-.27a.52.52,0,0,1,.28,0l3.15.06V103.2h-.88l-3.69.07c-.2,0-.29-.11-.29-.33v-2.19c0-.22.09-.33.29-.33l3.69,0h.88v-3a19.43,19.43,0,0,1-1.51,1.44,1.64,1.64,0,0,1-.69.39q-.18,0-.66-.6A6.89,6.89,0,0,0,110,97.38a17,17,0,0,0,5.21-5.58A9.82,9.82,0,0,0,116,90a16.83,16.83,0,0,1,2.58.75c.28.11.43.24.43.38a.52.52,0,0,1-.28.43,3.42,3.42,0,0,0-.69.88c-.36.57-.69,1.07-1,1.49h13.63l4.1-.06c.18,0,.28,0,.31.06a.42.42,0,0,1,.06.28v2.16c0,.14,0,.23-.08.26s-.13,0-.29,0h-.37l-2.36,0v3.86h.49l3.68,0q.3,0,.3.33v2.19q0,.33-.3.33l-3.68-.07H132v4.06l3-.06c.16,0,.25,0,.28.06a.51.51,0,0,1,0,.26v2.12a.5.5,0,0,1-.05.27.45.45,0,0,1-.27,0l-4-.06Zm-1.72,1c.06-.17.14-.25.22-.25a1.19,1.19,0,0,1,.38.11l1.75.74c.22.09.34.19.34.29a.77.77,0,0,1-.08.23,19.51,19.51,0,0,1-3.54,5.27.38.38,0,0,1-.27.17,1.11,1.11,0,0,1-.37-.17l-1.7-1.18c-.19-.11-.29-.23-.29-.33a.57.57,0,0,1,.16-.27A15.13,15.13,0,0,0,113.28,110.93ZM117,100.47h2.31V96.61H117Zm0,6.79h2.31V103.2H117Zm3.38,4.13h.22c.16,0,.26.11.3.31a29.81,29.81,0,0,1,.69,5s0,.07,0,.11-.14.28-.41.31l-2.16.18h-.26c-.17,0-.25-.11-.25-.32a25.66,25.66,0,0,0-.51-5,1.49,1.49,0,0,1,0-.17c0-.16.16-.25.47-.27Zm1.54-10.92h2.38V96.61h-2.38Zm0,6.79h2.38V103.2h-2.38Zm4.88,4.24a25.59,25.59,0,0,1,1.54,4.76,1.26,1.26,0,0,1,0,.21c0,.12-.13.22-.39.27l-2.13.43a2.17,2.17,0,0,1-.34,0c-.11,0-.19-.09-.23-.29A26.07,26.07,0,0,0,124,112.1a.91.91,0,0,1,0-.22c0-.1.14-.18.4-.24l1.86-.39.27,0C126.57,111.22,126.67,111.31,126.75,111.5Zm.11-11h2.4V96.61h-2.4Zm0,6.79h2.4V103.2h-2.4Zm5.7,3.58a24.59,24.59,0,0,1,3.24,4.73.59.59,0,0,1,.08.22c0,.09-.12.2-.36.32l-1.89,1.06a.87.87,0,0,1-.33.1c-.08,0-.17-.08-.26-.23a30.29,30.29,0,0,0-3-5,.37.37,0,0,1-.11-.2c0-.07.12-.16.34-.26l1.66-.83a.89.89,0,0,1,.33-.11C132.32,110.62,132.43,110.69,132.56,110.84Z"/><path class="cls-4" d="M154.89,106.92c0,.29,0,.59,0,.93s0,.66,0,1c0,.2,0,.34,0,.43a1,1,0,0,1-.11.56,2.8,2.8,0,0,1-.65.46,59.43,59.43,0,0,1-6.49,2.88,4.76,4.76,0,0,0-.93.45.78.78,0,0,1-.48.21c-.16,0-.29-.13-.39-.4a26.81,26.81,0,0,1-.75-2.81,24,24,0,0,0,2.83-.72l.86-.29v-6.53l-2.64.06a.46.46,0,0,1-.29-.06.49.49,0,0,1,0-.26v-2.17a.61.61,0,0,1,.05-.31.58.58,0,0,1,.28,0l2.64.06V95.1h-.17l-2.83.07a.41.41,0,0,1-.27-.06.78.78,0,0,1,0-.28v-2.2c0-.16,0-.27.06-.3a.38.38,0,0,1,.24,0l2.83.06h3.12l2.81-.06c.17,0,.27,0,.29.08a.48.48,0,0,1,0,.27v2.2c0,.16,0,.26-.06.29a.52.52,0,0,1-.28,0l-2.78-.07v5.29l2.4-.06c.15,0,.23,0,.26.06a.81.81,0,0,1,0,.29v2.17c0,.16,0,.25,0,.28s-.11,0-.25,0l-2.4-.06v5.35C153,107.88,154.08,107.36,154.89,106.92Zm2.37,9.59-4.17.06a.47.47,0,0,1-.3-.06.51.51,0,0,1,0-.26v-2.14a.45.45,0,0,1,.05-.27s.13-.06.29-.06l4.17.06h4.56V110.9H160l-3.87,0c-.17,0-.26,0-.29,0a.5.5,0,0,1-.05-.27v-2.08c0-.16,0-.25.06-.28a.55.55,0,0,1,.28,0l3.87.06h1.86v-2.6h-1.95l-3.9.06a.53.53,0,0,1-.32-.06s0-.1,0-.23l.06-3.34V95.46l-.06-3.27c0-.16,0-.26.06-.29a.65.65,0,0,1,.3,0l3.9,0H167l3.93,0a.57.57,0,0,1,.29,0,.55.55,0,0,1,.05.28l-.06,3.27v6.66l.06,3.34c0,.19-.12.29-.34.29l-3.93-.06h-2.18v2.6h2.27l3.88-.06c.16,0,.25,0,.28.06a.49.49,0,0,1,0,.26v2.08c0,.15,0,.24-.05.27s-.12,0-.27,0l-3.88,0h-2.27v2.94h3.44l4.15-.06c.15,0,.25,0,.28.06a.53.53,0,0,1,0,.27v2.14a.5.5,0,0,1-.05.27.45.45,0,0,1-.27,0l-4.15-.06Zm1.23-19h3.33v-3h-3.33Zm0,5.67h3.33V100h-3.33Zm9.87-8.7h-3.53v3h3.53Zm0,8.7V100h-3.53v3.21Z"/><path class="cls-4" d="M192.62,96.27a29.77,29.77,0,0,0,3.73-.65.61.61,0,0,1,.22-.06c.11,0,.19.1.22.3a14.5,14.5,0,0,1,.28,2.43c0,.21-.13.32-.37.35-1,.22-2.69.49-5,.81a86.81,86.81,0,0,1-5.84,12.88c-.12.2-.23.3-.34.3a.82.82,0,0,1-.35-.15,12,12,0,0,1-2.08-1.54.45.45,0,0,1-.21-.32.61.61,0,0,1,.15-.37,63.8,63.8,0,0,0,5.2-10.46c-.76,0-1.76,0-3,0l-1.66,0c-.22,0-.37-.17-.42-.49a16.65,16.65,0,0,1-.3-2.55c1.09.08,2,.12,2.79.12,1.16,0,2.31-.05,3.46-.15.26-.93.52-2,.77-3.35A13.66,13.66,0,0,0,190.1,91a29.71,29.71,0,0,1,3.51.63c.32.06.48.21.48.44a.79.79,0,0,1-.26.57,3.9,3.9,0,0,0-.49,1.12c-.05.16-.17.6-.36,1.3C192.84,95.53,192.72,96,192.62,96.27Zm4.83,12.54c-.14-1.47-.23-3.19-.27-5.15a11.44,11.44,0,0,0-.25-2.13,19,19,0,0,1,3.27.57.46.46,0,0,1,.43.47,3.28,3.28,0,0,1-.18.63,2.84,2.84,0,0,0-.13.9c0,.06,0,.18,0,.33a43.71,43.71,0,0,0,.33,5.1,26.39,26.39,0,0,1,5.4,2.8c.18.13.27.25.27.35a.64.64,0,0,1-.09.28,21.66,21.66,0,0,1-1.38,2.44c-.09.13-.18.2-.28.2a.5.5,0,0,1-.29-.18,24.72,24.72,0,0,0-3.66-2.52,3.86,3.86,0,0,1-1.7,3.46,7,7,0,0,1-3.87.93,6.17,6.17,0,0,1-4.19-1.32,3.73,3.73,0,0,1-1.34-3,3.84,3.84,0,0,1,1.7-3.31,6.5,6.5,0,0,1,3.86-1.07A16.59,16.59,0,0,1,197.45,108.81Zm.05,2.86a7.64,7.64,0,0,0-2.44-.45,3.47,3.47,0,0,0-2,.5,1.43,1.43,0,0,0-.67,1.24q0,1.44,2.55,1.44a2.83,2.83,0,0,0,2-.67,2,2,0,0,0,.6-1.46A4.14,4.14,0,0,0,197.5,111.67Zm1.78-12.54c.82-1.46,1.27-2.24,1.35-2.35s.24-.28.36-.28a.83.83,0,0,1,.27.06,21.14,21.14,0,0,1,5.89,2.83c.18.12.26.23.26.32a.85.85,0,0,1-.11.37,19,19,0,0,1-1.26,2.23.38.38,0,0,1-.28.2.51.51,0,0,1-.27-.12A25.35,25.35,0,0,0,199.28,99.13Z"/><path class="cls-4" d="M233.26,91.14a23.28,23.28,0,0,1,3.31,2.28.59.59,0,0,1,.24.47.6.6,0,0,1-.43.58,6.35,6.35,0,0,0-1.43,1q-4.94,4.42-8.2,7.8a1.49,1.49,0,0,0-.39.66q0,.22.39.54A81.6,81.6,0,0,1,237.92,114a.8.8,0,0,1,.21.4.56.56,0,0,1-.21.35,26.93,26.93,0,0,1-2.08,2.08.78.78,0,0,1-.41.24c-.09,0-.21-.09-.37-.27a78.45,78.45,0,0,0-10.91-10.14,3.32,3.32,0,0,1-1.6-2.53,2.48,2.48,0,0,1,.44-1.4,9.59,9.59,0,0,1,1-1.24l4.06-4.28q2.25-2.34,3.58-3.78A9.48,9.48,0,0,0,233.26,91.14Z"/><path class="cls-4" d="M252.93,116.32a12.59,12.59,0,0,0,2.72-4.16,5.38,5.38,0,0,0,.37-1.29c1,.32,1.86.6,2.49.83.24.11.37.24.37.4a.64.64,0,0,1-.24.41,3.12,3.12,0,0,0-.45.88A22.22,22.22,0,0,1,256,117.2q-.49.6-.66.6a1.4,1.4,0,0,1-.6-.37A7.35,7.35,0,0,0,252.93,116.32Zm7.53-24.7,2.76-.06c.16,0,.26,0,.29.06a.53.53,0,0,1,0,.27L263.49,96v10.11l.06,4q0,.25-.06.3a.53.53,0,0,1-.27,0l-2.76-.06h-2.84l-2.77,0c-.16,0-.25,0-.28,0a.4.4,0,0,1,0-.25l.06-4V96l-.06-4.06c0-.16,0-.25.06-.28a.5.5,0,0,1,.27,0l2.77.06Zm.37,2.49h-3.55V97h3.55Zm-3.55,8.26h3.55v-3h-3.55Zm3.55,5.49v-3.09h-3.55v3.09Zm3.95,7.51a8.93,8.93,0,0,0-1.77,1.2c-.27.23-.45.35-.54.35s-.3-.21-.57-.63a28.54,28.54,0,0,1-2.13-4,.52.52,0,0,1-.06-.22c0-.11.13-.23.38-.35l1.4-.66a.84.84,0,0,1,.33-.13c.07,0,.15.08.24.25A20.31,20.31,0,0,0,264.78,115.37Zm11.11-21.45,3.93-.06c.2,0,.29.12.29.34l-.05,1.29v1l.05,2.81a.23.23,0,0,1-.29.34h-2.4a.24.24,0,0,1-.32-.34V96.72h-9.34v2.61c0,.18,0,.28-.07.31a.8.8,0,0,1-.3,0h-2.31a.63.63,0,0,1-.28,0,.59.59,0,0,1-.05-.3l.06-2.81V95.7l-.06-1.5c0-.16,0-.26.06-.29a.52.52,0,0,1,.28,0l3.9.06h1.7v-.74a15.59,15.59,0,0,0-.21-2.85q1.53,0,3.21.24c.33,0,.49.12.49.28a1.63,1.63,0,0,1-.15.6,4.32,4.32,0,0,0-.19,1.67v.8Zm-6.84,10.7-3.87.06c-.16,0-.25,0-.28-.06a.55.55,0,0,1,0-.28v-2.28a.47.47,0,0,1,.05-.28.53.53,0,0,1,.27,0l3.87.05h7.21l3.87-.05c.16,0,.25,0,.28.05a.53.53,0,0,1,0,.27v2.28a.52.52,0,0,1-.05.29.45.45,0,0,1-.27.05l-3.87-.06h-1.72v5.54l0,3.64a7.27,7.27,0,0,1-.19,2,2.13,2.13,0,0,1-.7,1q-.89.67-4.32.72c-.49,0-.79,0-.88-.15a1.62,1.62,0,0,1-.24-.77,6.08,6.08,0,0,0-.75-2.35,19.74,19.74,0,0,0,2.64.18,1.36,1.36,0,0,0,1-.28,1.44,1.44,0,0,0,.23-1v-8.58Z"/><path class="cls-4" d="M294.25,116.77l-3.84.06c-.17,0-.28,0-.31-.06a.35.35,0,0,1-.05-.23v-2.29c0-.15,0-.25.07-.28a.6.6,0,0,1,.29,0l3.84.06h6.85v-6.55h-5.73l-4,.06a.49.49,0,0,1-.31-.06.5.5,0,0,1,0-.27v-2.25c0-.16,0-.25.06-.28a.64.64,0,0,1,.3,0l4,.06h5.73v-2.77h-1.18l-3.69.05a.28.28,0,0,1-.32-.31V99.84a37,37,0,0,1-4.6,2.38,2.17,2.17,0,0,1-.72.23q-.24,0-.6-.69a5.72,5.72,0,0,0-1.44-1.77q7.92-3.12,11.65-8.08a8.51,8.51,0,0,0,1.19-2,17.43,17.43,0,0,1,3.24.63c.36.1.54.27.54.48s-.1.27-.29.43l-.18.11a25,25,0,0,0,12.67,7.83,6.89,6.89,0,0,0-1.29,2.14q-.34.75-.57.75a3,3,0,0,1-.72-.21A34,34,0,0,1,310,99.82v1.8a.28.28,0,0,1-.32.31l-3.73-.05h-1.62v2.77h6.24l4-.06c.16,0,.26,0,.29.06a.53.53,0,0,1,0,.27v2.25c0,.23,0,.34-.11.34h-.22l-4-.06h-6.24V114h7.27l3.87-.06c.15,0,.25,0,.28.06a.66.66,0,0,1,0,.26v2.29c0,.19-.11.29-.32.29l-3.87-.06Zm2.41-8.62a24,24,0,0,1,2.14,4,.56.56,0,0,1,.05.23c0,.09-.11.19-.33.29l-1.86.94a1.59,1.59,0,0,1-.4.12c-.07,0-.14-.08-.2-.25a17.92,17.92,0,0,0-2-4.1.44.44,0,0,1-.12-.24c0-.07.12-.16.35-.28L296,108a1.1,1.1,0,0,1,.36-.12C296.43,107.92,296.54,108,296.66,108.15Zm.36-9c.37,0,1.34,0,2.9,0h6c1.56,0,2.52,0,2.91,0a23.54,23.54,0,0,1-6-5.32A26.65,26.65,0,0,1,297,99.13Zm9.27,13.66a19.59,19.59,0,0,0,1.95-3.4,8.28,8.28,0,0,0,.57-1.59,13.44,13.44,0,0,1,2.52,1q.54.27.54.51c0,.15-.12.31-.37.48a3.49,3.49,0,0,0-.69,1,20.77,20.77,0,0,1-1.58,2.66c-.2.27-.36.4-.48.4a2.28,2.28,0,0,1-.69-.24A7.56,7.56,0,0,0,306.29,112.79Z"/><path class="cls-4" d="M336.3,107.72a19,19,0,0,0-.18,2.41,3.76,3.76,0,0,0,1.09,3.08,4.53,4.53,0,0,0,2.9.76c3.64,0,5.46-1.34,5.46-4a6,6,0,0,0-.57-2.64,12.81,12.81,0,0,0-2.12-2.83,6,6,0,0,0,.92.07,17.92,17.92,0,0,0,2.14-.24.76.76,0,0,1,.21,0,.68.68,0,0,1,.42.14,7.57,7.57,0,0,1,2.55,5.65,6.27,6.27,0,0,1-2.69,5.35,10,10,0,0,1-6,1.67q-7.56,0-7.56-6.77c0-.32.07-1.26.21-2.83a27.22,27.22,0,0,1-4.08-.9c-.19-.06-.31-.25-.33-.57-.06-.63-.09-1.24-.09-1.8,0-.34,0-.68,0-1a19.93,19.93,0,0,0,4.86,1.17c.22-1.62.39-3.05.52-4.29a24.11,24.11,0,0,1-4.33-.84c-.32-.07-.48-.25-.48-.51-.06-1.44-.09-2.36-.09-2.78a27.76,27.76,0,0,0,5.44,1.14c.2-1.51.33-2.66.38-3.46,0-.38,0-.76,0-1.14a12,12,0,0,0-.07-1.38,14.88,14.88,0,0,1,3.61.83c.43.16.65.39.65.69a.84.84,0,0,1-.23.57,3.06,3.06,0,0,0-.54,1.3c-.18.8-.34,1.74-.49,2.82.3,0,.62,0,1,0a21.66,21.66,0,0,0,2.73-.2c.2,0,.31.11.31.35s0,.55,0,.84a11.8,11.8,0,0,1-.07,1.42c0,.26-.16.41-.49.44a29.4,29.4,0,0,1-3.1.16h-.9q-.13.77-.66,4.29l1.15,0q1.5,0,3.12-.12l.17,0c.21,0,.31.12.31.36a15.93,15.93,0,0,1-.15,2.25c0,.33-.17.49-.42.49-.88.07-1.9.1-3.06.1Z"/><path class="cls-4" d="M362.48,96.52c1.07,0,2.66-.22,4.78-.52q11.92-1.74,18-2.55h.18c.27,0,.42.11.45.34a13.83,13.83,0,0,1,.34,2.64q0,.45-.57.45a15.29,15.29,0,0,0-3.67.66,12.22,12.22,0,0,0-6,4,7.81,7.81,0,0,0-1.67,4.81q0,5.81,8,6.3c.44,0,.66.16.66.46a9.1,9.1,0,0,1-.34,2.58c-.08.42-.26.63-.56.63a12.18,12.18,0,0,1-7.94-2.61,8.21,8.21,0,0,1-3.14-6.67,9.86,9.86,0,0,1,1.72-5.76,14.47,14.47,0,0,1,4-3.75V97.5q-5.4,1-10.08,2c-1,.25-1.67.41-1.89.49a3.85,3.85,0,0,1-.66.23.6.6,0,0,1-.57-.45A22.26,22.26,0,0,1,362.48,96.52Zm18.68,5.33,1.58-1.11a.32.32,0,0,1,.19-.07.42.42,0,0,1,.26.13A12.44,12.44,0,0,1,386,104a.37.37,0,0,1,.09.21.34.34,0,0,1-.17.26l-1.26.94a.43.43,0,0,1-.25.09c-.08,0-.17-.07-.26-.19A15.47,15.47,0,0,0,381.16,101.85Zm2.75-2,1.51-1.07a.41.41,0,0,1,.19-.08.4.4,0,0,1,.25.13,11.66,11.66,0,0,1,2.86,3.09.54.54,0,0,1,.09.26.36.36,0,0,1-.18.28l-1.2.94a.4.4,0,0,1-.23.1.34.34,0,0,1-.28-.19A14.57,14.57,0,0,0,383.91,99.87Z"/><path class="cls-4" d="M408.62,95.58q-.4-1.14-.72-2a8.47,8.47,0,0,0-1.06-1.92,21.27,21.27,0,0,1,3.64-.32q.66,0,.66.54l-.06.57a6.14,6.14,0,0,0,.12.9c.15.55.32,1.07.48,1.55a52.23,52.23,0,0,0,6.13-1.58.69.69,0,0,1,.25-.08c.11,0,.2.08.25.22a18.42,18.42,0,0,1,.51,2,.38.38,0,0,1,0,.1.43.43,0,0,1-.36.44c-1.67.53-3.64,1-5.89,1.54q.42,1.14,1.05,2.52a36.22,36.22,0,0,0,5.47-1.57.85.85,0,0,1,.26-.07c.13,0,.22.09.28.27a10.69,10.69,0,0,1,.54,2,1,1,0,0,1,0,.22c0,.14-.09.25-.28.33a35,35,0,0,1-5.07,1.46,23.57,23.57,0,0,0,3.93,5.19.58.58,0,0,1,.25.4,1,1,0,0,1-.1.32,9.44,9.44,0,0,1-1.23,1.88.71.71,0,0,1-.47.29.85.85,0,0,1-.43-.18,9.16,9.16,0,0,0-1.77-1,14.38,14.38,0,0,0-5.65-1,7,7,0,0,0-3.44.69,1.81,1.81,0,0,0-1,1.59q0,1.5,2.1,2.1a19.8,19.8,0,0,0,5.06.48l3.3-.17c.24,0,.36.1.36.31v.08a18,18,0,0,1-.6,2.73.66.66,0,0,1-.63.45c-.69.06-1.42.09-2.17.09q-5.52,0-8.22-1.64a4.64,4.64,0,0,1-.12-8,9.74,9.74,0,0,1,5.22-1.23,13.48,13.48,0,0,1,5.16.76,32.26,32.26,0,0,1-2.49-3.55,68.16,68.16,0,0,1-8.23.9.54.54,0,0,1-.54-.43,15.42,15.42,0,0,1-.54-2.45,58.19,58.19,0,0,0,8.08-.74l-.58-1.26c-.26-.58-.45-1-.57-1.24a57.73,57.73,0,0,1-7.28.72.53.53,0,0,1-.6-.42c-.07-.24-.23-1-.49-2.41A53.21,53.21,0,0,0,408.62,95.58Z"/><path class="cls-4" d="M435.46,110.05a.6.6,0,0,1,.39.17,23,23,0,0,1,6,5.5.88.88,0,0,1,.2.45.74.74,0,0,1-.29.49l-1.83,1.55c-.22.19-.36.28-.43.28a.5.5,0,0,1-.41-.29,21.78,21.78,0,0,0-5.69-5.75c-.17-.12-.26-.22-.26-.29a.79.79,0,0,1,.2-.37L435,110.3A.65.65,0,0,1,435.46,110.05Z"/><path class="cls-4" d="M488.18,113.45a23.62,23.62,0,0,0,8.19,2,9.15,9.15,0,0,0-1.46,1.87q-.39.57-.69.57a5,5,0,0,1-.72-.06,24,24,0,0,1-4.57-1.2,20.27,20.27,0,0,1-3.64-1.75c-.12-.08-.18-.14-.18-.2s.12-.16.34-.24l2.27-1.08H477.64c.64.25,1.5.62,2.55,1.11.28.08.42.22.42.41s-.15.3-.45.37a5.86,5.86,0,0,0-1.23.54,22.48,22.48,0,0,1-6.84,2.1l-.61.06c-.25,0-.5-.21-.74-.63a6.87,6.87,0,0,0-1.35-1.73,25.44,25.44,0,0,0,6.75-1.48,6.91,6.91,0,0,0,1.35-.75l-3.63.06c-.16,0-.25,0-.28-.06a.7.7,0,0,1,0-.31l0-3V105l0-3a.47.47,0,0,1,0-.28.53.53,0,0,1,.27,0l3.93.06a2.51,2.51,0,0,1-.27-.49,5.51,5.51,0,0,0-1-1.38,14.69,14.69,0,0,0,5.38-1.8,6,6,0,0,0,2.4-3h-2.52A13.09,13.09,0,0,1,479.81,97a2.27,2.27,0,0,1-.69.42c-.13,0-.36-.2-.7-.6a3.92,3.92,0,0,0-1.32-1A13.42,13.42,0,0,0,481,91.59a6.94,6.94,0,0,0,.57-1.35c.93.15,1.72.31,2.38.47.34.09.51.2.51.34a.53.53,0,0,1-.28.43,1.84,1.84,0,0,0-.6.8l-.34.57h8.9a1.83,1.83,0,0,0,.75-.11.9.9,0,0,1,.41-.12,3,3,0,0,1,1.11.6c.67.44,1,.79,1,1.06a.46.46,0,0,1-.25.38,1.38,1.38,0,0,0-.53.54c-.32.53-.81,1.23-1.48,2.12q-.46.6-.72.6a2.36,2.36,0,0,1-.8-.26,9.5,9.5,0,0,0-1.69-.6,12.29,12.29,0,0,0,1.72-2h-4.45q1.67,4.36,9.49,5.07a6,6,0,0,0-.84,1.95,2.67,2.67,0,0,1-.26.69.38.38,0,0,1-.34.15,3.87,3.87,0,0,1-.6-.09,21.69,21.69,0,0,1-2.37-.6c0,.52-.06,1.42-.06,2.72v5.13l.06,3a.49.49,0,0,1-.06.31s-.13.06-.28.06l-4-.06ZM477.33,96.33c0,.33.09.9.22,1.71a4.21,4.21,0,0,1,.12.72c0,.22-.25.46-.75.73a37.37,37.37,0,0,1-4.69,2,2.54,2.54,0,0,0-.8.43.73.73,0,0,1-.43.23c-.17,0-.31-.11-.42-.34a16.73,16.73,0,0,1-1.05-2.55,20.18,20.18,0,0,0,2.22-.54A28.05,28.05,0,0,0,477.33,96.33Zm-4.73-5.25a21.89,21.89,0,0,1,4.13,2.34c.15.11.22.2.22.27s-.07.16-.22.31l-1.29,1.46c-.15.19-.28.28-.37.28a.47.47,0,0,1-.26-.13,17.77,17.77,0,0,0-4.07-2.52q-.24-.15-.24-.24a.55.55,0,0,1,.21-.33L472,91.26c.15-.17.28-.25.36-.25A.76.76,0,0,1,472.6,91.08Zm16.75,12.78H476.47v1.26h12.88Zm-12.88,4.29h12.88v-1.26H476.47Zm12.88,3.08v-1.3H476.47v1.3Zm-1.49-9.49q2.38,0,3.06,0a9.77,9.77,0,0,1-5-4.11c-1.05,1.94-3.05,3.31-6,4.14Z"/><path class="cls-4" d="M514.76,117l-4.09.06c-.18,0-.28,0-.31-.08a.55.55,0,0,1,0-.28v-2a.5.5,0,0,1,.05-.27.54.54,0,0,1,.3,0l4.09.06h5v-2.58h-1.59l-3.87.06a.47.47,0,0,1-.3-.06.55.55,0,0,1,0-.28v-2c0-.16,0-.25.07-.28s.12,0,.27,0l3.87.06h1.59V107h-4.89a23.58,23.58,0,0,1-2,3q-.39.51-.54.51c-.09,0-.24-.14-.46-.43a6.6,6.6,0,0,0-1.52-1.46l-.28,1.89a21.43,21.43,0,0,1-2.12,6.54c-.24.38-.41.57-.52.57s-.27-.13-.48-.37a6.76,6.76,0,0,0-1.95-1.79,15,15,0,0,0,2.18-5.89,41.19,41.19,0,0,0,.46-6.8l-.06-4.15c0-.15,0-.25.06-.28a.55.55,0,0,1,.28,0l4,.06h2.23a19.31,19.31,0,0,0-1.36-2.68h-.84l-4,.06a.55.55,0,0,1-.33-.06.53.53,0,0,1,0-.27v-2c0-.17,0-.27.07-.31a.63.63,0,0,1,.3,0l4,.06h6v-.27a12.48,12.48,0,0,0-.22-2.62,31.06,31.06,0,0,1,3.12.16c.33,0,.49.13.49.29a1.86,1.86,0,0,1-.18.57,4.85,4.85,0,0,0-.16,1.57v.3h6l4.06-.06c.16,0,.25,0,.28.07a.55.55,0,0,1,0,.28v2a.47.47,0,0,1,0,.28.5.5,0,0,1-.27.05l-4.09-.06h-.51a1.58,1.58,0,0,0-.29.51,20.51,20.51,0,0,1-1.21,2.17H528l4-.06a.28.28,0,0,1,.31.32v2a.28.28,0,0,1-.31.32l-4-.06H510.61l0,1.89a50.87,50.87,0,0,1-.32,5.63,15.16,15.16,0,0,0,3.44-5.31,6.51,6.51,0,0,0,.4-1.55,18.29,18.29,0,0,1,2.59.63c.27.09.4.2.4.35a.57.57,0,0,1-.21.37,3.5,3.5,0,0,0-.57,1.07l-.17.45h3.57v-.32a13,13,0,0,0-.25-2.64c1.07,0,2.11.09,3.13.18.32,0,.48.12.48.29a1.69,1.69,0,0,1-.18.6,5.87,5.87,0,0,0-.14,1.57v.32H526l3.9-.06c.15,0,.25,0,.27.06a.5.5,0,0,1,0,.27v2a.24.24,0,0,1-.32.32L526,107h-3.21v2.29h2.12l3.87-.06c.16,0,.26,0,.29.06a.46.46,0,0,1,0,.26v2a.26.26,0,0,1-.34.34l-3.87-.06h-2.12v2.58h4.88l4.12-.06c.15,0,.25,0,.28.06a.66.66,0,0,1,0,.26v2a.49.49,0,0,1-.06.31.49.49,0,0,1-.26,0l-4.12-.06ZM523,95.73h-7a27.81,27.81,0,0,1,1.17,2.68h4.5A23.39,23.39,0,0,0,523,95.73Z"/><path class="cls-4" d="M549.7,98.73c.3-1.08.6-2.34.89-3.78a19.37,19.37,0,0,0,.31-3.33,28.79,28.79,0,0,1,3.59,1,.59.59,0,0,1,.48.6.66.66,0,0,1-.2.46,3.62,3.62,0,0,0-.6,1.14c-.15.45-.34,1.09-.58,1.91s-.39,1.32-.51,1.7a19.92,19.92,0,0,1,2.41-.13q4.29,0,4.29,5.79a31.22,31.22,0,0,1-.48,5.43,16,16,0,0,1-1.15,4,4.23,4.23,0,0,1-4,2.81,8,8,0,0,1-3.12-.45.83.83,0,0,1-.55-.84,9.31,9.31,0,0,0-.57-2.78,8.26,8.26,0,0,0,3.46.77,1.8,1.8,0,0,0,1.22-.38,3.4,3.4,0,0,0,.7-1.22,21.23,21.23,0,0,0,1.17-7.47,4.1,4.1,0,0,0-.41-2.24,1.5,1.5,0,0,0-1.3-.52,19,19,0,0,0-2.52.21,88.53,88.53,0,0,1-6,14.11c-.11.25-.26.37-.44.37a.72.72,0,0,1-.34-.1,8.52,8.52,0,0,1-2.08-1.32.63.63,0,0,1-.23-.44.55.55,0,0,1,.11-.34,68.07,68.07,0,0,0,5.5-11.77l-2.93.51a10.31,10.31,0,0,0-1.66.49,1,1,0,0,1-.36.07.6.6,0,0,1-.6-.47,26.49,26.49,0,0,1-.93-3.09c1.11,0,2.42-.07,4-.21C547.23,99.08,548.42,98.93,549.7,98.73Zm10.36-.23A28.5,28.5,0,0,1,562.48,97a.41.41,0,0,1,.2-.06.59.59,0,0,1,.37.2,19.51,19.51,0,0,1,5,7.3.72.72,0,0,1,.08.27.44.44,0,0,1-.2.33,9.34,9.34,0,0,1-2.25,1.5.64.64,0,0,1-.31.09.37.37,0,0,1-.38-.33A20.34,20.34,0,0,0,560.06,98.5Zm1.64-4.62,1.6-1.11a.27.27,0,0,1,.17-.08.48.48,0,0,1,.27.13A13.33,13.33,0,0,1,566.6,96a.46.46,0,0,1,.08.22.38.38,0,0,1-.17.27l-1.26.92a.4.4,0,0,1-.24.1.35.35,0,0,1-.28-.19A14.9,14.9,0,0,0,561.7,93.88Zm2.77-2L566,90.8a.34.34,0,0,1,.19-.07.47.47,0,0,1,.26.13A11.83,11.83,0,0,1,569.26,94a.4.4,0,0,1,.09.23.38.38,0,0,1-.18.3l-1.2.93a.37.37,0,0,1-.23.11c-.1,0-.19-.07-.28-.2A14.66,14.66,0,0,0,564.47,91.89Z"/><path class="cls-5" d="M584.43,90.09c.82.06,1.61.09,2.36.09.45,0,.88,0,1.3,0Q590,90,596.51,89a5.87,5.87,0,0,0,2-.63,1.27,1.27,0,0,1,.7-.25,1.94,1.94,0,0,1,1,.56A10.9,10.9,0,0,1,602,90.56a1.68,1.68,0,0,1,.45,1c0,.35-.23.64-.67.87a7.76,7.76,0,0,0-1.51,1.1q-6.65,5.85-11.19,9.3l.07.11A155.8,155.8,0,0,1,606.9,98.9l.17,0c.29,0,.46.2.54.6a15.84,15.84,0,0,1,.41,3v.07c0,.25-.2.4-.59.43a28.94,28.94,0,0,0-6.87,1.19,10.71,10.71,0,0,0-4.95,3.17,5.56,5.56,0,0,0-1.36,3.59q0,4.62,9.23,4.61a.5.5,0,0,1,.56.56v.11c0,.29-.19,1.32-.49,3.1q-.1.81-.81.81a22.75,22.75,0,0,1-2.43-.22q-5.37-.54-7.89-3.06a7.09,7.09,0,0,1-2.08-5.28,7.54,7.54,0,0,1,1.28-4.07,8.9,8.9,0,0,1,3.23-3.07v-.07c-3,.8-7.05,2.09-12.15,3.88a7.73,7.73,0,0,1-1.06.41c-.31,0-.56-.24-.74-.74a25.44,25.44,0,0,1-1.23-3c.54-.14,1.18-.34,1.91-.59a17.74,17.74,0,0,0,3.55-2.18,125.6,125.6,0,0,0,10.53-9.66c-1.41.38-3.6.86-6.58,1.42-.8.17-1.27.27-1.4.31a2.74,2.74,0,0,0-.35.14,1.81,1.81,0,0,1-.68.22c-.3,0-.6-.27-.89-.81A20,20,0,0,1,584.43,90.09Z"/><path class="cls-5" d="M636.47,95.06c1.53-.27,3.28-.69,5.25-1.24a.72.72,0,0,1,.19,0c.23,0,.36.14.38.4a24,24,0,0,1,.27,2.65V97c0,.28-.18.46-.56.54a58.62,58.62,0,0,1-6.41,1.41q-3.66,11.93-6.76,20c-.11.28-.26.43-.45.43a2.12,2.12,0,0,1-.36-.07,26.63,26.63,0,0,1-3-1.37.62.62,0,0,1-.34-.53.52.52,0,0,1,0-.21,148.69,148.69,0,0,0,6.4-17.48q-3.92.41-6.46.41a.67.67,0,0,1-.77-.59c-.13-.65-.31-1.78-.52-3.37a20.81,20.81,0,0,0,2.74.12,47.12,47.12,0,0,0,6-.38c.29-1.13.6-2.66.94-4.61a26.83,26.83,0,0,0,.21-3.39,23.35,23.35,0,0,1,4.64,1,.58.58,0,0,1,.41.59,1.06,1.06,0,0,1-.18.6,11,11,0,0,0-.78,1.46c-.13.48-.3,1.16-.5,2C636.68,94.28,636.56,94.77,636.47,95.06Zm.67,16.94a14.23,14.23,0,0,1,3.13-.56.51.51,0,0,1,.56.53,3.31,3.31,0,0,0,1.81,2.85,8.94,8.94,0,0,0,3.83.63,54.1,54.1,0,0,0,6.2-.53l.13,0c.19,0,.3.12.32.35a21.38,21.38,0,0,1,.29,3.22c0,.09,0,.15,0,.18,0,.24-.2.38-.6.4a34.36,34.36,0,0,1-5.13.41,21.42,21.42,0,0,1-5.88-.63,6.91,6.91,0,0,1-3-1.76C637.78,116,637.22,114.35,637.14,112Zm2.88-7c-.11-1.74-.16-2.86-.16-3.35a.74.74,0,0,1,.14-.54,1,1,0,0,1,.53-.2,35.82,35.82,0,0,1,7.19-.85,26.24,26.24,0,0,1,4.32.36,1.18,1.18,0,0,1,.52.16c.08.06.11.2.11.4,0,.51.06,1.07.06,1.69,0,.38,0,.79,0,1.25s-.15.7-.43.7a.84.84,0,0,1-.27,0,24.61,24.61,0,0,0-4.58-.43A38,38,0,0,0,640,105Zm6.42-12.51,1.94-1.37a.45.45,0,0,1,.24-.09.63.63,0,0,1,.32.16,15.72,15.72,0,0,1,3.5,4,.56.56,0,0,1,.11.27.43.43,0,0,1-.2.33L650.8,96.9a.48.48,0,0,1-.29.13c-.12,0-.23-.08-.34-.24A19.34,19.34,0,0,0,646.44,92.52Zm3.39-2.43,1.85-1.33a.42.42,0,0,1,.24-.09.49.49,0,0,1,.3.16,14.28,14.28,0,0,1,3.52,3.8.57.57,0,0,1,.1.31.49.49,0,0,1-.21.36l-1.48,1.13a.46.46,0,0,1-.29.13c-.12,0-.23-.08-.34-.24A17.51,17.51,0,0,0,649.83,90.09Z"/><path class="cls-5" d="M667,98.83a41.43,41.43,0,0,0,7.16-1.91q9.08-3.06,13.3-3.06a11.07,11.07,0,0,1,8.27,3.06,9.25,9.25,0,0,1,2.58,6.72,10.8,10.8,0,0,1-1.82,6.38,13.26,13.26,0,0,1-4.69,3.88,23.17,23.17,0,0,1-4.88,2c-.88.25-2.38.6-4.49,1.06a2.64,2.64,0,0,1-.54.07c-.34,0-.59-.22-.76-.66a6.37,6.37,0,0,0-2.58-2.92,38.65,38.65,0,0,0,10-2.73q5.1-2.56,5.1-7.35a5.17,5.17,0,0,0-1.86-4.29,7,7,0,0,0-4.49-1.31q-4.69,0-13.33,3.8c-1.55.77-2.4,1.21-2.54,1.31a1.84,1.84,0,0,1-1,.56c-.33,0-.68-.26-1.07-.77A20.5,20.5,0,0,1,667,98.83Z"/><path class="cls-5" d="M720.32,89.57l-1.14,20.63h-3.73l-.88-20.63ZM720,113.23v5h-5.25v-5Z"/></svg>