<svg id="レイヤー_1" data-name="レイヤー 1" xmlns="http://www.w3.org/2000/svg" viewBox="0 0 70 52"><defs><style>.cls-1{fill:#ecff00;}</style></defs><polygon class="cls-1" points="0 52 0 0 70 0 0 52"/><path d="M15.77,7.92a6,6,0,0,1,3.9,1.2,3.92,3.92,0,0,1,1.49,3.19,4.28,4.28,0,0,1-2.43,4,3.93,3.93,0,0,1,2.1,1.62,5,5,0,0,1,.71,2.69,4.75,4.75,0,0,1-1.62,3.74,6.22,6.22,0,0,1-4.26,1.43,8.61,8.61,0,0,1-4-1V21.73a9.75,9.75,0,0,0,1.94,1,5.38,5.38,0,0,0,1.81.31,2.89,2.89,0,0,0,2-.69,2.29,2.29,0,0,0,.78-1.8,2.45,2.45,0,0,0-.86-1.95A3.55,3.55,0,0,0,15,17.9h-.2V15.2h.15a3.47,3.47,0,0,0,2.18-.62,2,2,0,0,0,.78-1.66,2,2,0,0,0-.76-1.66,2.94,2.94,0,0,0-1.94-.63,7.13,7.13,0,0,0-3.09.78V8.68A8.69,8.69,0,0,1,15.77,7.92Z"/></svg>