<svg id="レイヤー_1" data-name="レイヤー 1" xmlns="http://www.w3.org/2000/svg" viewBox="0 0 341 116"><defs><style>.cls-1{fill:#ecff00;}.cls-2{fill:#4c4345;}.cls-3{fill:#ff64a5;}</style></defs><rect class="cls-1" y="78.913" width="336.82" height="9.088"/><path class="cls-2" d="M84.292,4.044a17.13,17.13,0,0,1-1.723,1.122c-.225.131-.338.206-.431.206-.131,0-.187-.131-.356-.449a3.649,3.649,0,0,0-.73-.954A13.856,13.856,0,0,0,85.284.789a5.485,5.485,0,0,0,.525-.73,14.4,14.4,0,0,1,1.5.6c.15.074.262.168.262.3,0,.151-.131.206-.3.281a2.231,2.231,0,0,0-.506.524q-.281.338-.618.674V5.372c0,.879.038,1.234.038,1.347,0,.205-.019.224-.207.224h-1.5c-.206,0-.225-.019-.225-.224,0-.113.038-.468.038-1.2Zm3.8,11.262c.187.075.262.168.262.281s-.112.186-.281.224a3.061,3.061,0,0,0-.768.337,15.089,15.089,0,0,1-4.27,1.309,1.714,1.714,0,0,1-.393.037c-.206,0-.263-.093-.45-.392a4.669,4.669,0,0,0-.861-1.123,16.282,16.282,0,0,0,4.232-.879,4.206,4.206,0,0,0,.881-.486C87.158,14.875,87.569,15.063,88.094,15.306ZM92.87,7.43c1.817,0,2.472-.038,2.585-.038.187,0,.206.019.206.206,0,.112-.038.617-.038,1.833v3.143c0,1.2.038,1.722.038,1.834,0,.187-.019.206-.206.206-.113,0-.768-.038-2.585-.038H86.745c-1.835,0-2.472.038-2.6.038-.187,0-.206-.019-.206-.206,0-.131.037-.636.037-1.834V9.431c0-1.216-.037-1.721-.037-1.833,0-.187.019-.206.206-.206.131,0,.768.038,2.6.038Zm-7.1,2.076h8.036V8.721H85.771Zm8.036,1.89V10.61H85.771V11.4Zm0,1.1H85.771v.8h8.036Zm-3.559-5.78c-1.742,0-2.323.038-2.435.038-.187,0-.206-.02-.206-.225V5.6c0-.187.019-.206.206-.206.112,0,.693.038,2.435.038h1.274V4.455h-1.8c-1.8,0-2.435.038-2.547.038-.187,0-.206-.019-.206-.206V3.257c0-.186.019-.205.206-.205.112,0,.749.038,2.547.038h1.8V2.247c-.844.057-1.686.113-2.51.131-.525.02-.525.02-.693-.374a3.752,3.752,0,0,0-.562-.935A37.167,37.167,0,0,0,94.5.508a3.532,3.532,0,0,0,.993-.281,9.99,9.99,0,0,1,1.255.917c.112.093.169.149.169.261,0,.094-.094.188-.356.206-.207.02-.45.057-.749.112-.731.151-1.593.263-2.491.375V3.09h2.153c1.817,0,2.435-.038,2.529-.038.187,0,.206.019.206.205v1.03c0,.187-.019.206-.206.206-.094,0-.712-.038-2.529-.038H93.32v.973h1.441c1.724,0,2.323-.038,2.435-.038.188,0,.207.019.207.206v.936c0,.205-.019.225-.207.225-.112,0-.711-.038-2.435-.038Zm2.378,7.988c.225-.112.263-.112.45-.019a15.021,15.021,0,0,0,5.094,1.254,6.1,6.1,0,0,0-.9,1.16c-.187.3-.262.374-.449.374a2.72,2.72,0,0,1-.431-.056,14.788,14.788,0,0,1-5.113-1.833c-.169-.113-.169-.188.094-.3Z"/><path class="cls-2" d="M103.825,4.118a15.818,15.818,0,0,1-1.779,1.067,1.212,1.212,0,0,1-.43.187c-.132,0-.206-.131-.356-.449a3.429,3.429,0,0,0-.694-.991A12.189,12.189,0,0,0,104.856.9a4.288,4.288,0,0,0,.561-.767,14.861,14.861,0,0,1,1.518.617c.168.075.3.168.3.3,0,.169-.112.243-.28.318a2.089,2.089,0,0,0-.563.487l-.711.729v2.47c0,.8.037,1.1.037,1.216,0,.187-.018.206-.224.206h-1.5c-.187,0-.206-.019-.206-.206,0-.131.037-.318.037-.955Zm3.728,11.038c.187.056.262.15.262.262s-.094.187-.262.224a4.389,4.389,0,0,0-.768.356,15.523,15.523,0,0,1-4.252,1.384,2.478,2.478,0,0,1-.412.057c-.187,0-.262-.094-.431-.393a3.873,3.873,0,0,0-.861-1.123,16.737,16.737,0,0,0,4.2-.935,5.506,5.506,0,0,0,.88-.5A14.9,14.9,0,0,1,107.553,15.156ZM112.759.134c.188-.188.244-.15.431-.057a13.078,13.078,0,0,1,1.8,1.011c.094.056.131.093.131.149s-.037.113-.131.188l-.861.785c1.517-.15,2.453-.3,2.641-.318s.187,0,.2.206l.132,1.2c.018.188,0,.206-.206.225-.187.018-.843.055-2.51.243l-1.873.187a5.177,5.177,0,0,0,.562.543,3.348,3.348,0,0,0,2.3,1.14c.543-.018.843-.41,1.03-1.515a3.812,3.812,0,0,0,.992.581c.563.206.6.224.431.785a2.125,2.125,0,0,1-2.154,1.8,4.83,4.83,0,0,1-.524-.019c-.019.225-.038.767-.038,1.74v3.386c0,1.217.038,1.759.038,1.872,0,.186-.019.205-.206.205-.131,0-.768-.038-2.6-.038h-6.125c-1.817,0-2.454.038-2.585.038-.187,0-.206-.019-.206-.205,0-.132.038-.655.038-1.872V9c0-1.216-.038-1.758-.038-1.871,0-.187.019-.206.206-.206.131,0,.768.039,2.585.039h7.585a5.7,5.7,0,0,1-2.023-1.236,9.317,9.317,0,0,1-1.348-1.571l-1.049.094-2.472.28c-.188.018-.206,0-.225-.188l-.131-1.2c-.019-.186,0-.186.187-.205.225-.019.824-.038,2.491-.225l.375-.037a11.279,11.279,0,0,1-.487-1.273c-.131-.411-.262-.822-.412-1.2.693-.019,1.273,0,1.76.019.357.019.525.093.525.225a1.458,1.458,0,0,1-.056.3,1.572,1.572,0,0,0,.131.748,7.4,7.4,0,0,0,.431.991l2.453-.261a.385.385,0,0,1-.112-.075,7.938,7.938,0,0,0-1.761-1.1c-.168-.075-.206-.112,0-.318Zm-7.491,8.212v.8H113.3v-.8ZM113.3,11.1V10.31h-8.035V11.1Zm0,1.16h-8.035v.8H113.3Zm-1.2,2.358c.225-.112.262-.112.449-.019a15.2,15.2,0,0,0,5.095,1.216,4.983,4.983,0,0,0-.9,1.2c-.15.28-.262.374-.45.374a2.461,2.461,0,0,1-.43-.055,14.8,14.8,0,0,1-5.114-1.834c-.168-.112-.168-.187.094-.3Z"/><path class="cls-2" d="M130.813,13.248c0,.206-.112.3-.356.336a10.014,10.014,0,0,1-1.33.094c-.168,0-.243-.112-.243-.3,0-.673,0-1.608.019-2.282-1.667.861-2.267,1.591-2.267,2.488,0,.787.637,1.291,2.6,1.291A32.179,32.179,0,0,0,133.9,14.5c.168-.019.243.037.262.205a8.436,8.436,0,0,1,.168,1.534c.019.225-.056.356-.206.356a33.315,33.315,0,0,1-4.644.243c-3.072,0-4.7-.917-4.7-3.087,0-1.8,1.124-3.106,3.952-4.565-.056-.954-.281-1.328-1.124-1.291a4.521,4.521,0,0,0-2.584,1.347,25.239,25.239,0,0,0-1.873,2.039c-.094.113-.15.169-.225.169a.374.374,0,0,1-.206-.131,8.953,8.953,0,0,1-1.068-1.235.3.3,0,0,1-.074-.168c0-.075.037-.132.131-.206a19.119,19.119,0,0,0,3.914-4.64c-.88.037-1.892.057-3,.057-.168,0-.224-.094-.262-.3-.056-.3-.131-.991-.187-1.552a41.273,41.273,0,0,0,4.308-.02,14.643,14.643,0,0,0,.562-1.608,4.6,4.6,0,0,0,.13-1.141,11.693,11.693,0,0,1,2.136.524.337.337,0,0,1,.225.318.363.363,0,0,1-.132.281,1.439,1.439,0,0,0-.318.449c-.113.261-.206.5-.431,1.01a30.371,30.371,0,0,0,3.409-.58c.206-.038.262.018.3.186a6.376,6.376,0,0,1,.187,1.348c.019.186-.056.261-.318.3-1.405.206-3.016.412-4.383.563a19.519,19.519,0,0,1-1.405,2.076l.019.037a3.727,3.727,0,0,1,1.873-.58,2.068,2.068,0,0,1,2.285,2.02c.73-.336,1.8-.822,2.753-1.309a5.606,5.606,0,0,0,1.423-1.01,11.455,11.455,0,0,1,1.311,1.646.738.738,0,0,1,.15.412c0,.149-.093.224-.28.261a6.137,6.137,0,0,0-1.143.281c-1.217.431-2.435.843-4.027,1.5Z"/><path class="cls-2" d="M141.581,10.049c0-.673,0-1.478.019-2.264a15.762,15.762,0,0,1-1.1,1.4c-.15.169-.262.262-.337.262s-.131-.112-.187-.337a5.5,5.5,0,0,0-.619-1.589,16.7,16.7,0,0,0,3.372-6.006,6.212,6.212,0,0,0,.318-1.329,17.527,17.527,0,0,1,1.742.543c.206.094.319.15.319.281s-.056.206-.206.337c-.131.112-.207.281-.394.767-.318.86-.674,1.683-1.048,2.488v9.746c0,1.834.037,2.751.037,2.845,0,.186-.019.2-.187.2h-1.574c-.168,0-.187-.019-.187-.2,0-.113.037-1.011.037-2.845Zm5.544-2.095c-1.835,0-2.472.037-2.585.037-.2,0-.224-.019-.224-.187V6.513c0-.187.019-.206.224-.206.113,0,.75.038,2.585.038h.225v-2c-1.423.02-1.966.039-2.041.039-.188,0-.206-.019-.206-.225V2.9c0-.206.018-.224.206-.224.075,0,.618.037,2.041.037v-.58a9.048,9.048,0,0,0-.112-1.758c.581.018,1.423.056,1.929.093.168.019.262.094.262.188a.956.956,0,0,1-.112.374,4.113,4.113,0,0,0-.094,1.122v.561h2.4v-.6a9.175,9.175,0,0,0-.112-1.759c.581.019,1.405.056,1.929.094.169.018.263.112.263.206a.876.876,0,0,1-.113.355,4.129,4.129,0,0,0-.093,1.085v.617c1.722,0,2.322-.037,2.434-.037.188,0,.206.018.206.224V4.156c0,.206-.018.225-.206.225-.112,0-.712-.039-2.434-.039v2h.543c1.835,0,2.453-.038,2.566-.038.206,0,.224.019.224.206V7.8c0,.168-.018.187-.224.187-.113,0-.731-.037-2.566-.037Zm-1.1,9.447c-.187,0-.206-.019-.206-.2,0-.113.038-.655.038-3.275V11.864c0-1.815-.038-2.376-.038-2.488,0-.188.019-.206.206-.206.131,0,.712.037,2.4.037h4.1c1.685,0,2.247-.037,2.378-.037.187,0,.206.018.206.206,0,.112-.037.654-.037,2.188v2.32c0,2.6.037,3.143.037,3.255,0,.169-.019.188-.206.188h-1.5c-.187,0-.206-.019-.206-.188v-.673h-5.488v.73c0,.186-.019.2-.225.2Zm1.686-5.332h5.488v-1.31h-5.488Zm5.488,2.844V13.566h-5.488v1.347ZM151.62,6.345v-2h-2.4v2Z"/><path class="cls-2" d="M165.591,1.556c.244.093.356.2.356.373a.426.426,0,0,1-.131.3,2.153,2.153,0,0,0-.337.879c-.262,1.273-.412,2.6-.524,3.573a18.618,18.618,0,0,0-.056,2.058c.411-.729.805-1.44,1.311-2.394a3.861,3.861,0,0,0,.58,1.216.427.427,0,0,1,.112.3.877.877,0,0,1-.187.468,15.353,15.353,0,0,0-1.1,2.394,2.318,2.318,0,0,0-.093.561.263.263,0,0,1-.244.3c-.225.056-1.03.169-1.5.224-.131.019-.225-.112-.263-.243a11.981,11.981,0,0,1-.561-3.8,39.59,39.59,0,0,1,.449-4.659,17.279,17.279,0,0,0,.15-2.133A9.816,9.816,0,0,1,165.591,1.556Zm6.088-.319c.374.094.412.188.374.506a6.681,6.681,0,0,0-.037.86c.131,1.778.262,3.479.262,4.827a12.282,12.282,0,0,1-1.423,6.491,10.318,10.318,0,0,1-3.091,3.012.646.646,0,0,1-.375.131.542.542,0,0,1-.393-.206A4.342,4.342,0,0,0,165.4,16a9.263,9.263,0,0,0,3.184-2.507c1.086-1.478,1.573-3.012,1.573-5.967,0-1.329-.093-3.274-.224-4.472a8.914,8.914,0,0,0-.394-2.039A10.859,10.859,0,0,1,171.679,1.237Z"/><path class="cls-2" d="M186.061,8.1a5.638,5.638,0,0,1,2.978-.842,4.345,4.345,0,0,1,4.645,4.491c0,3.123-2.528,5.126-6.537,5.126-2.359,0-3.783-1.011-3.783-2.751a2.485,2.485,0,0,1,2.641-2.283,3.408,3.408,0,0,1,3.521,2.732,2.818,2.818,0,0,0,1.91-2.844,2.733,2.733,0,0,0-2.94-2.825,7.632,7.632,0,0,0-4.8,1.984c-.543.486-1.067,1.029-1.629,1.59-.131.13-.225.206-.318.206a.461.461,0,0,1-.282-.168,8.53,8.53,0,0,1-1.105-1.217c-.112-.149-.056-.28.094-.43A44.975,44.975,0,0,0,184.9,6.737c1.161-1.2,2.042-2.132,2.9-3.2-1.124.206-2.453.468-3.615.712a5.626,5.626,0,0,0-.786.224,1.394,1.394,0,0,1-.375.094.427.427,0,0,1-.412-.318,9,9,0,0,1-.656-2.021,8.98,8.98,0,0,0,1.742.037c1.143-.112,2.791-.355,4.252-.635a5.031,5.031,0,0,0,1.03-.281.955.955,0,0,1,.356-.15.669.669,0,0,1,.431.15,7.087,7.087,0,0,1,1.255,1.2.652.652,0,0,1,.2.449.5.5,0,0,1-.318.449,3.041,3.041,0,0,0-.824.6c-1.367,1.328-2.622,2.637-4.046,4Zm.019,5.332c-.543,0-.9.318-.9.711,0,.58.506.972,1.629.972a4.122,4.122,0,0,0,.862-.074C187.429,14.015,186.866,13.435,186.08,13.435Z"/><path class="cls-2" d="M211.869.283c.188-.112.263-.094.394.019a8.231,8.231,0,0,1,1.161,1.216c.131.168.075.225-.094.356l-.43.28c1.086,0,1.5-.037,1.592-.037.187,0,.206.018.206.187V3.557c0,.187-.019.206-.206.206-.113,0-.731-.037-2.51-.037h-1.836a15.5,15.5,0,0,0,.787,3.535,12.059,12.059,0,0,0,.9-1.646,8.83,8.83,0,0,0,.356-1.16,10.675,10.675,0,0,1,1.517.58.357.357,0,0,1,.225.262c0,.112-.075.187-.169.281a2.255,2.255,0,0,0-.374.561,16.492,16.492,0,0,1-1.649,2.788c.506.767,1.049,1.178,1.386,1.178.468,0,.656-.523.881-1.8a3.858,3.858,0,0,0,.936.618c.356.168.487.243.487.43a1.7,1.7,0,0,1-.094.411c-.468,1.572-1.086,2.264-2.154,2.264a3.583,3.583,0,0,1-2.641-1.722,11.341,11.341,0,0,1-1.423,1.236c-.225.149-.356.243-.449.243-.113,0-.207-.112-.413-.355a6.051,6.051,0,0,0-.618-.6c-.018.094-.074.094-.206.094s-.487-.037-1.592-.037h-1.76c-1.1,0-1.461.037-1.592.037-.188,0-.206-.018-.206-.206,0-.13.037-.412.037-1.2V8.291c0-.787-.037-1.067-.037-1.2,0-.187.018-.206.206-.206.131,0,.487.037,1.592.037h1.76c1.105,0,1.461-.037,1.592-.037.188,0,.206.019.206.206,0,.112-.037.411-.037,1.2V9.525c0,.561.019.861.019,1.028a9.641,9.641,0,0,0,2.06-1.664,17.866,17.866,0,0,1-1.33-5.163h-6.667V4.979a22.564,22.564,0,0,1-.337,3.76,10.327,10.327,0,0,1-1.255,3.274c-.15.262-.226.374-.338.374-.075,0-.187-.094-.393-.28a4.624,4.624,0,0,0-1.2-.8,7.209,7.209,0,0,0,1.349-2.974,17.265,17.265,0,0,0,.355-3.986c0-1.309-.037-1.926-.037-2.038,0-.169.019-.187.225-.187.112,0,.73.037,2.528.037h5.6c-.075-.674-.113-1.365-.225-1.908.655.019,1.349.074,1.892.131.187.018.281.093.281.206a.9.9,0,0,1-.094.336,5.768,5.768,0,0,0-.019,1.235h1.8c-.281-.355-.655-.767-.861-.973a.2.2,0,0,1-.094-.168c0-.057.037-.131.15-.187ZM198.59,16.017c-.225-.132-.225-.206-.112-.356a10.8,10.8,0,0,0,1.892-3.124c.074-.206.112-.206.374-.093l1.1.486c.243.112.262.15.206.336a13.864,13.864,0,0,1-1.91,3.368c-.113.15-.169.15-.375.038Zm7.417-11.412c1.124,0,1.573-.037,1.686-.037.168,0,.187.018.187.224V5.877c0,.187-.019.205-.187.205-.113,0-.562-.037-1.686-.037H204.1c-1.105,0-1.555.037-1.668.037-.187,0-.205-.018-.205-.205V4.792c0-.206.018-.224.205-.224.113,0,.563.037,1.668.037Zm-1.33,9.952c0,.375.075.618.3.749a6.07,6.07,0,0,0,1.892.168c1.367,0,1.891.019,2.285-.205.318-.169.468-.712.487-1.61a4.723,4.723,0,0,0,1.348.562c.487.15.487.15.431.654a2.236,2.236,0,0,1-1.03,1.834c-.693.374-1.723.449-3.671.449a8.318,8.318,0,0,1-3.24-.374c-.431-.243-.694-.636-.694-1.628V13.51a7.409,7.409,0,0,0-.093-1.422,14.3,14.3,0,0,1,1.854.113c.225.037.337.092.337.167a.608.608,0,0,1-.093.319,1.541,1.541,0,0,0-.113.673Zm1.386-6.342h-2.229V9.582h2.229Zm.581,3.2c.187-.131.243-.131.393-.018a10.339,10.339,0,0,1,1.761,1.852c.112.13.131.168-.057.3l-.974.749a.438.438,0,0,1-.243.13c-.056,0-.094-.037-.15-.13a12.614,12.614,0,0,0-1.629-1.946c-.15-.149-.15-.169.075-.337Zm5.787.749a.639.639,0,0,1,.225-.094c.056,0,.094.038.168.112a14.737,14.737,0,0,1,2.211,3.125c.093.187.093.224-.15.374l-1.161.711c-.244.15-.3.169-.375-.019a11.5,11.5,0,0,0-2-3.237c-.15-.149-.131-.205.094-.336Z"/><path class="cls-2" d="M228.837,14.95c0,.262.037.374.187.449a4.248,4.248,0,0,0,1.592.169,3.089,3.089,0,0,0,1.723-.281c.3-.206.375-.58.412-1.7a5.752,5.752,0,0,0,1.405.6c.468.15.468.131.412.618-.15,1.122-.356,1.571-.787,1.871-.562.392-1.33.542-3.3.542a8.571,8.571,0,0,1-3.053-.3c-.412-.206-.562-.506-.562-1.347V13.135h-1.611c-.637,2.7-2.959,3.873-6.143,4.3-.562.074-.562.093-.806-.469a3.966,3.966,0,0,0-.786-1.253c2.884-.205,5.095-.748,5.656-2.582-1.33.019-1.835.039-1.948.039-.187,0-.206-.02-.206-.206,0-.132.038-.675.038-1.909V7.411c0-1.272-.038-1.778-.038-1.908,0-.188.019-.206.206-.206.132,0,.731.038,2.492.038h4.907c1.76,0,2.359-.038,2.491-.038.187,0,.2.018.2.206,0,.112-.037.636-.037,1.908v3.648c0,1.234.037,1.8.037,1.909,0,.186-.018.206-.2.206-.132,0-.712-.039-2.285-.039Zm2.49-12.179c1.724,0,2.342-.037,2.473-.037.187,0,.206.019.206.206,0,.112-.037.468-.037.992v.822c0,1.591.037,1.89.037,2,0,.186-.019.206-.206.206h-1.5c-.187,0-.2-.02-.2-.206V4.381H220.24V6.719c0,.205-.019.224-.206.224h-1.5c-.188,0-.207-.019-.207-.224,0-.113.038-.412.038-1.983V4.081c0-.673-.038-1.01-.038-1.141,0-.187.019-.206.207-.206.13,0,.748.037,2.472.037h.43a9.432,9.432,0,0,0-.992-1.664c-.112-.169-.094-.206.131-.281L221.7.433c.243-.093.3-.056.412.075A10.749,10.749,0,0,1,223.2,2.135c.094.188.094.206-.169.281l-.992.355h3.521a11.938,11.938,0,0,0-.881-1.889c-.112-.187-.056-.206.169-.281l1.236-.374c.225-.075.281-.038.375.131a10.957,10.957,0,0,1,.9,1.815c.075.168.056.187-.206.262l-1.142.336h3.033a15.124,15.124,0,0,0,.806-1.552,4.591,4.591,0,0,0,.3-.936,13.106,13.106,0,0,1,1.835.468c.169.075.244.15.244.262a.345.345,0,0,1-.169.28,2.366,2.366,0,0,0-.393.506l-.618.972Zm-8.353,4.808h6.406V6.663h-6.406Zm6.406,2.095v-.9h-6.406v.9Zm0,1.2h-6.406v.917h6.406Z"/><path class="cls-2" d="M246.8,4.717c-2.285.431-4.289.823-6.293,1.235-.712.168-.9.205-1.18.3a1.093,1.093,0,0,1-.412.149.438.438,0,0,1-.356-.28,12.91,12.91,0,0,1-.693-2.021,25.731,25.731,0,0,0,2.978-.318c2.3-.336,6.424-.953,11.256-1.589.281-.038.375.074.394.206a10.779,10.779,0,0,1,.206,1.646c0,.224-.113.28-.356.28a8.4,8.4,0,0,0-2.285.412c-3.184,1.085-4.776,3.274-4.776,5.519,0,2.413,1.723,3.723,4.982,3.928.3,0,.412.076.412.281a6.658,6.658,0,0,1-.206,1.609c-.056.281-.131.393-.356.393-3.3,0-6.911-1.89-6.911-5.781,0-2.657,1.33-4.452,3.6-5.931Zm3.709,2.02c.093-.074.168-.056.28.038a8.61,8.61,0,0,1,1.78,2,.188.188,0,0,1-.056.3l-.787.58A.2.2,0,0,1,251.4,9.6a9.251,9.251,0,0,0-1.891-2.17Zm1.667-1.216c.112-.074.168-.055.281.038a7.815,7.815,0,0,1,1.779,1.927.215.215,0,0,1-.057.336l-.748.581a.193.193,0,0,1-.319-.057A8.863,8.863,0,0,0,251.236,6.2Z"/><path class="cls-2" d="M257.64,12.687a.4.4,0,0,1,.281-.15.381.381,0,0,1,.244.112,13.953,13.953,0,0,1,3.727,3.424c.112.15.131.206.131.281,0,.093-.038.167-.188.3l-1.142.972c-.131.112-.206.169-.262.169-.094,0-.168-.037-.262-.187a13.994,13.994,0,0,0-3.54-3.574c-.112-.074-.169-.131-.169-.186s.038-.112.131-.225Z"/><path class="cls-2" d="M7.431,35.129A14.319,14.319,0,0,1,5.39,37.543c-.206.2-.337.318-.431.318-.112,0-.224-.113-.412-.374a3.421,3.421,0,0,0-.955-.861A11.023,11.023,0,0,0,6.851,32.51a4.055,4.055,0,0,0,.337-.991,12.648,12.648,0,0,1,1.7.411c.169.057.263.15.263.262,0,.132-.057.169-.131.244a1.048,1.048,0,0,0-.319.411l-.281.58H16.8c1.836,0,2.454-.038,2.566-.038.206,0,.225.02.225.206v1.366c0,.188-.019.206-.225.206-.112,0-.73-.038-2.566-.038ZM7.17,41.49c.187-.168.224-.187.374-.075.805.543,1.648,1.122,2.509,1.777.375-.429.731-.879,1.087-1.365a6.123,6.123,0,0,0,.562-1.048,7.183,7.183,0,0,1,1.61.767c.169.132.244.244.244.337,0,.113-.094.206-.244.3a1.811,1.811,0,0,0-.5.543,15.176,15.176,0,0,1-1.293,1.609q1.236,1.009,2.529,2.189a.322.322,0,0,1,.15.224.285.285,0,0,1-.113.206l-1.048,1.085c-.113.112-.188.169-.263.169-.056,0-.112-.038-.187-.112-.787-.861-1.592-1.666-2.435-2.433a17.007,17.007,0,0,1-4.626,2.806,1.411,1.411,0,0,1-.468.15c-.131,0-.225-.113-.412-.431A4.223,4.223,0,0,0,3.686,47.1a14.175,14.175,0,0,0,5.056-2.637c-.786-.637-1.61-1.253-2.472-1.834-.168-.112-.168-.149.019-.337Zm.205-.972c-1.816,0-2.453.037-2.566.037-.206,0-.224-.019-.224-.206v-1.4c0-.187.018-.2.224-.2.113,0,.75.037,2.566.037H14.68c1.854,0,2.472-.037,2.585-.037.187,0,.224.037.224.224a20.849,20.849,0,0,0-.018,2.413,20.227,20.227,0,0,0,.355,3.629c.244,1.067.319,1.534.693,1.534.225,0,.394-.617.525-2.394a3.318,3.318,0,0,0,1.292.8c.393.149.375.2.281.8-.318,2.151-.8,2.974-1.967,2.974-1.048,0-1.985-.841-2.6-2.956a21.051,21.051,0,0,1-.506-5.256ZM9.922,37.73c-1.779,0-2.378.038-2.472.038-.187,0-.206-.02-.206-.225V36.289c0-.187.019-.206.206-.206.094,0,.693.039,2.472.039H15.2c1.761,0,2.379-.039,2.491-.039.188,0,.207.019.207.206v1.254c0,.2-.019.225-.207.225-.112,0-.73-.038-2.491-.038Z"/><path class="cls-2" d="M37.491,32.754a.975.975,0,0,0,.468-.094.53.53,0,0,1,.244-.075c.15,0,.262.037.768.543.524.542.562.617.562.785,0,.131-.038.225-.225.375a2.789,2.789,0,0,0-.6.8,14.635,14.635,0,0,1-2,2.582,16.057,16.057,0,0,0,3.671,1.646,4.234,4.234,0,0,0-.637,1.16c-.15.356-.188.505-.356.505a1.655,1.655,0,0,1-.431-.131,14.768,14.768,0,0,1-3.615-1.983,17.852,17.852,0,0,1-3.5,2.02,1.354,1.354,0,0,1-.449.151c-.15,0-.206-.151-.356-.506a6.324,6.324,0,0,0-.6-1.01v1.646c0,1.141.038,1.646.038,1.759,0,.169-.019.187-.206.187-.132,0-.637-.038-2.061-.038h-.355V44.3h.468c1.629,0,2.21-.038,2.322-.038.169,0,.187.018.187.206v1.2c0,.187-.018.206-.187.206-.112,0-.693-.037-2.322-.037h-.468c0,1.758.037,2.731.037,2.806,0,.187-.019.2-.206.2H26.291c-.187,0-.206-.018-.206-.2,0-.093.019-1.048.037-2.806H25.3c-1.629,0-2.172.037-2.285.037-.187,0-.206-.019-.206-.206v-1.2c0-.188.019-.206.206-.206.113,0,.656.038,2.285.038h.824V43.08h-.337c-1.423,0-1.929.038-2.041.038-.187,0-.206-.018-.206-.187,0-.131.037-.618.037-1.759v-2.9c0-1.122-.037-1.627-.037-1.74,0-.186.019-.206.206-.206.112,0,.618.039,2.041.039h.356v-1.2h-.8c-1.573,0-2.1.037-2.21.037-.188,0-.206-.018-.206-.206V33.783c0-.169.018-.188.206-.188.112,0,.637.038,2.21.038h.8a11.484,11.484,0,0,0-.131-1.927,15.854,15.854,0,0,1,1.78.131c.205.038.3.093.3.187a.84.84,0,0,1-.094.337,3.022,3.022,0,0,0-.131,1.216v.056h.45c1.573,0,2.135-.038,2.247-.038.169,0,.188.019.188.188V35c0,.188-.019.206-.188.206-.112,0-.674-.037-2.247-.037h-.45v1.2H28.2c1.424,0,1.929-.039,2.061-.039.187,0,.206.02.206.206,0,.113-.038.618-.038,1.74v1.216a14.583,14.583,0,0,0,3.578-1.814,11.916,11.916,0,0,1-2.229-3.255c-.262.018-.393.018-.431.018-.206,0-.225-.018-.225-.206V32.922c0-.187.019-.206.225-.206.112,0,.656.038,2.247.038ZM26.216,39.059V37.711H25.111v1.348Zm0,2.674v-1.4H25.111v1.4Zm1.574-4.022v1.348h1.1V37.711Zm1.1,2.619h-1.1v1.4h1.1Zm8.035,2.04c1.574,0,2.1-.037,2.229-.037.188,0,.206.018.206.2v1.329c0,.187-.018.206-.206.206-.131,0-.655-.038-2.229-.038h-.861V46.56h1.4c1.742,0,2.323-.037,2.435-.037.169,0,.187.018.187.206v1.328c0,.2-.018.224-.187.224-.112,0-.693-.037-2.435-.037H32.94c-1.742,0-2.3.037-2.416.037-.188,0-.206-.019-.206-.224V46.729c0-.188.018-.206.206-.206.112,0,.674.037,2.416.037h1.273V44.034h-.561c-1.574,0-2.1.038-2.21.038-.188,0-.206-.019-.206-.206V42.537c0-.186.018-.2.206-.2.112,0,.636.037,2.21.037h.561v-.094a12.673,12.673,0,0,0-.131-2.17c.675.018,1.255.075,1.892.13.187.02.281.094.281.206a.968.968,0,0,1-.075.394,4.019,4.019,0,0,0-.112,1.421v.113Zm-3.3-7.97a9.2,9.2,0,0,0,1.686,2.189,10.431,10.431,0,0,0,1.7-2.189Z"/><path class="cls-2" d="M46.967,33.82c.318.168.431.281.431.449,0,.131-.038.187-.281.562a4.392,4.392,0,0,0-.45,1.328A30.3,30.3,0,0,0,45.88,42.2a18.02,18.02,0,0,0,.113,2.19c.393-.861.73-1.479,1.274-2.788a4.831,4.831,0,0,0,.655,1.178.754.754,0,0,1,.131.28.522.522,0,0,1-.094.3,18.252,18.252,0,0,0-1.067,2.825,2.1,2.1,0,0,0-.056.58c0,.224.037.374.037.524,0,.13-.075.206-.243.243a9.208,9.208,0,0,1-1.536.3c-.131.019-.206-.075-.244-.206a17.527,17.527,0,0,1-.861-5.575,35.732,35.732,0,0,1,.636-6.135,15.067,15.067,0,0,0,.338-2.788A8.318,8.318,0,0,1,46.967,33.82Zm4.008,8.811c.149-.018.187.075.187.281.112,1.291,1.012,1.759,3.053,1.759a27,27,0,0,0,3.578-.243c.187-.019.224,0,.262.243a13.886,13.886,0,0,1,.112,1.609c0,.224,0,.243-.318.28a25.123,25.123,0,0,1-3.053.206c-2.772,0-4.065-.449-4.87-1.553a4.117,4.117,0,0,1-.656-2.432Zm-1.049-7c.019-.225.075-.281.262-.319a30.059,30.059,0,0,1,4.065-.336c1.123,0,1.985.037,2.772.112.393.019.43.057.43.243,0,.561,0,1.067-.037,1.591-.019.167-.075.243-.244.224-1.123-.075-2.1-.112-3.053-.112a22.914,22.914,0,0,0-4.251.43C49.889,36.42,49.889,35.953,49.926,35.635Z"/><path class="cls-2" d="M64.7,41.116c-1.685,0-2.266.038-2.378.038-.188,0-.206-.019-.206-.188V39.151c0-.167.018-.186.206-.186.112,0,.693.037,2.378.037H76c1.686,0,2.267-.037,2.379-.037.187,0,.206.019.206.186v1.815c0,.169-.019.188-.206.188-.112,0-.693-.038-2.379-.038Z"/><path class="cls-2" d="M85.772,42.519c-.075.449-.15.9-.243,1.347a11.734,11.734,0,0,1-2.042,4.584c-.169.224-.244.318-.337.318s-.187-.094-.375-.3a4.618,4.618,0,0,0-1.367-1.028,8.835,8.835,0,0,0,2.229-4.64,19.518,19.518,0,0,0,.262-3.4c0-1.964-.038-2.9-.038-3.012,0-.187.019-.206.207-.206.13,0,.786.037,2.6.037h6.911c1.817,0,2.472-.037,2.6-.037.169,0,.188.019.188.206,0,.112-.038.655-.038,1.852v3.311c0,1.2.038,1.684.038,1.8,0,.188-.019.206-.188.206H94.5c-.169,0-.187-.018-.187-.206v-.823ZM84.5,34.587c-1.685,0-2.285.038-2.4.038-.188,0-.206-.019-.206-.206v-1.5c0-.187.018-.206.206-.206.112,0,.712.038,2.4.038H95.511c1.7,0,2.285-.038,2.4-.038.187,0,.206.019.206.206v1.5c0,.187-.019.206-.206.206-.113,0-.693-.038-2.4-.038Zm1.424,3.461v2.637h8.391V38.048Z"/><path class="cls-2" d="M105.1,44.952c1.218,1.028,2.884,1.571,5.788,1.571A56.344,56.344,0,0,0,118,46.167a3.691,3.691,0,0,0-.524,1.366c-.132.617-.132.617-.712.636-1.873.131-3.484.187-5.9.187-2.3,0-4.758-.281-6.406-1.721a3.153,3.153,0,0,1-.374-.337,13.538,13.538,0,0,1-1.967,2.077c-.206.169-.318.262-.412.262-.112,0-.187-.132-.337-.375a4.359,4.359,0,0,0-.974-1.16,11.959,11.959,0,0,0,2.435-2.282,13.155,13.155,0,0,1-1.461-2.862c-.131-.3-.131-.355.112-.486l.918-.487c.319-.168.337-.094.469.224a10.235,10.235,0,0,0,.9,2.077,11.991,11.991,0,0,0,.974-3.611h-1.611l-.3.449c-.075.112-.131.169-.225.169a2.7,2.7,0,0,1-.787-.3c-.561-.262-.749-.337-.749-.449a.413.413,0,0,1,.113-.225,30.539,30.539,0,0,0,2.865-4.9h-1.236c-1.217,0-1.592.037-1.7.037-.187,0-.206-.019-.206-.206V32.866c0-.206.019-.224.206-.224.112,0,.487.037,1.7.037h2.042a1.966,1.966,0,0,0,.412-.037.918.918,0,0,1,.225-.057c.112,0,.243.075.617.543.319.412.487.636.487.8s-.074.224-.187.318a1.842,1.842,0,0,0-.506.693c-.43.785-.992,1.87-1.7,3.068h.9a.739.739,0,0,0,.431-.094c.112-.056.15-.094.243-.094.15,0,.3.113.675.543.374.393.449.524.449.673s-.056.225-.206.375a1.334,1.334,0,0,0-.224.655,13.712,13.712,0,0,1-1.461,4.807Zm4.083-.357c-1.779,0-2.4.038-2.51.038-.187,0-.2-.018-.2-.224V43.267c0-.206.018-.224.2-.224.113,0,.731.037,2.51.037h1.5V42.033h-.824c-1.686,0-2.286.037-2.4.037-.187,0-.206-.019-.206-.206V40.779c0-.186.019-.206.206-.206.112,0,.712.038,2.4.038h.824V39.563h-1.012c-1.461,0-1.929.038-2.041.038-.187,0-.206-.019-.206-.206V38.347c0-.187.019-.206.206-.206.112,0,.58.038,2.041.038h1.012V37.131H109c-1.723,0-2.3.038-2.416.038-.188,0-.206-.019-.206-.225v-1.1c0-.187.018-.205.206-.205.112,0,.693.037,2.416.037h1.686V34.643h-.694c-1.666,0-2.209.037-2.322.037-.187,0-.206-.018-.206-.206V33.389c0-.186.019-.205.206-.205.113,0,.656.037,2.322.037h.694a10.3,10.3,0,0,0-.131-1.515,18.044,18.044,0,0,1,1.835.131c.187.018.3.075.3.187a.655.655,0,0,1-.113.3,1.852,1.852,0,0,0-.112.9h1.086c1.723,0,2.547-.037,2.66-.037.206,0,.224.019.224.205,0,.112-.037.675-.037,1.852v.431c.58,0,1.161-.037,1.255-.037.187,0,.206.018.206.205v1.123c0,.187-.019.206-.206.206-.094,0-.675-.019-1.255-.038v.449c0,1.179.037,1.722.037,1.815,0,.187-.018.206-.224.206-.113,0-.937-.038-2.66-.038H112.46v1.048h1.573c1.686,0,2.266-.038,2.379-.038.206,0,.224.02.224.206v1.085c0,.187-.018.206-.224.206-.113,0-.693-.037-2.379-.037H112.46V43.08h2.21c1.8,0,2.416-.037,2.529-.037.187,0,.2.018.2.224v1.142c0,.206-.018.224-.2.224-.113,0-.731-.038-2.529-.038h-2.21c.019.824.037,1.217.037,1.291,0,.206-.018.225-.2.225h-1.424c-.206,0-.225-.019-.225-.225,0-.037.019-.467.019-1.291Zm3.278-9.952v1.029h2.191V34.643Zm2.191,2.488H112.46v1.048h2.191Z"/><path class="cls-2" d="M130.12,36.065c-2.285.43-4.288.824-6.292,1.234-.712.169-.9.206-1.181.3a1.089,1.089,0,0,1-.411.149.435.435,0,0,1-.356-.28,13,13,0,0,1-.694-2.021,25.722,25.722,0,0,0,2.979-.318c2.3-.337,6.424-.953,11.256-1.589.281-.039.374.074.394.2a10.809,10.809,0,0,1,.206,1.647c0,.224-.113.28-.356.28a8.387,8.387,0,0,0-2.285.411c-3.184,1.086-4.777,3.274-4.777,5.52,0,2.413,1.724,3.722,4.983,3.928.3,0,.411.075.411.281a6.643,6.643,0,0,1-.205,1.608c-.056.281-.132.394-.356.394-3.3,0-6.912-1.89-6.912-5.781,0-2.657,1.33-4.453,3.6-5.931Z"/><path class="cls-2" d="M150.291,44.689c0,.206-.113.3-.356.337a10.063,10.063,0,0,1-1.33.093c-.169,0-.243-.112-.243-.3,0-.673,0-1.608.018-2.283-1.667.861-2.266,1.591-2.266,2.489,0,.786.637,1.291,2.6,1.291a32.009,32.009,0,0,0,4.664-.374c.169-.019.243.037.262.206a8.33,8.33,0,0,1,.169,1.534c.019.224-.056.355-.206.355a33.321,33.321,0,0,1-4.645.243c-3.072,0-4.7-.916-4.7-3.086,0-1.8,1.124-3.106,3.952-4.565-.056-.955-.281-1.328-1.124-1.291a4.53,4.53,0,0,0-2.585,1.346,25.426,25.426,0,0,0-1.873,2.04c-.093.112-.149.169-.225.169a.374.374,0,0,1-.205-.131,8.831,8.831,0,0,1-1.068-1.236.3.3,0,0,1-.075-.167c0-.075.037-.132.131-.206a19.164,19.164,0,0,0,3.915-4.64c-.881.037-1.892.056-3,.056-.169,0-.225-.093-.262-.3-.057-.3-.131-.992-.187-1.553a41.53,41.53,0,0,0,4.307-.019,14.581,14.581,0,0,0,.562-1.608,4.553,4.553,0,0,0,.131-1.142,11.825,11.825,0,0,1,2.135.524.337.337,0,0,1,.225.318.36.36,0,0,1-.131.281,1.448,1.448,0,0,0-.319.449c-.112.262-.205.5-.43,1.01a30.184,30.184,0,0,0,3.409-.58c.206-.038.262.019.3.187a6.3,6.3,0,0,1,.188,1.347c.018.187-.057.262-.319.3-1.405.206-3.015.412-4.382.562a19.466,19.466,0,0,1-1.405,2.076l.018.038a3.72,3.72,0,0,1,1.874-.58A2.068,2.068,0,0,1,150.1,39.9c.73-.337,1.8-.823,2.753-1.31a5.632,5.632,0,0,0,1.423-1.01,11.523,11.523,0,0,1,1.311,1.647.741.741,0,0,1,.15.411c0,.15-.094.225-.281.262a5.974,5.974,0,0,0-1.142.281c-1.218.43-2.435.842-4.027,1.5Z"/><path class="cls-2" d="M160.5,45.232a3.946,3.946,0,0,0,.225-.8,10.218,10.218,0,0,1,1.386.524c.169.074.243.13.243.224a.385.385,0,0,1-.15.3,1.587,1.587,0,0,0-.28.487,10.506,10.506,0,0,1-1.386,2.525c-.188.243-.263.355-.356.355s-.187-.074-.356-.224a4.289,4.289,0,0,0-1.03-.711A7.818,7.818,0,0,0,160.5,45.232Zm2.678-12.778c1.143,0,1.5-.037,1.63-.037.168,0,.187.019.187.2,0,.113-.037.879-.037,2.527v6.266c0,1.646.037,2.413.037,2.526,0,.187-.019.206-.187.206-.131,0-.487-.038-1.63-.038h-1.554c-1.105,0-1.461.038-1.592.038-.187,0-.206-.019-.206-.206,0-.131.037-.88.037-2.526V35.149c0-1.648-.037-2.4-.037-2.527,0-.186.019-.2.206-.2.131,0,.487.037,1.592.037Zm-1.685,3.424h1.854V34.007H161.49Zm1.854,3.293v-1.8H161.49v1.8Zm0,1.477H161.49v1.946h1.854Zm.393,3.855c.262-.112.3-.112.375.074a11.253,11.253,0,0,0,1.7,2.731,4.056,4.056,0,0,0-1.011.73c-.15.149-.244.224-.337.224-.112,0-.206-.13-.375-.393a13.868,13.868,0,0,1-1.367-2.674c-.056-.188-.038-.225.169-.319Zm12.624.935c0,.2-.019.224-.206.224-.075,0-.337-.019-.955-.019.018.431.037.843.037,1.142a1.864,1.864,0,0,1-.431,1.5c-.337.318-.786.412-2.21.43-.561,0-.561,0-.693-.579a3.461,3.461,0,0,0-.431-.955,12.8,12.8,0,0,0,1.424.076c.487,0,.581-.151.581-.524v-1.1h-5.525v.954c0,1.328.037,1.965.037,2.077,0,.168-.019.186-.206.186h-1.368c-.187,0-.2-.018-.2-.186,0-.132.037-.675.037-2.04v-.973c-.506,0-.73.019-.787.019-.206,0-.224-.019-.224-.224v-.955c0-.186.018-.206.224-.206.057,0,.281.02.787.038V42.2c0-1.347-.037-1.945-.037-2.058,0-.187.018-.2.2-.2.132,0,.694.037,2.342.037h1.067V39.1h-1.611c-1.779,0-2.4.037-2.528.037-.187,0-.206-.019-.206-.206v-.973c0-.186.019-.206.206-.206.112,0,.712.038,2.323.038V36.8c-1.124.018-1.555.037-1.649.037-.187,0-.205-.019-.205-.225v-.879c0-.169.018-.187.205-.187.094,0,.525.038,1.649.038v-.992c-1.386.019-1.911.038-2,.038-.188,0-.207-.019-.207-.206V33.5c0-.2.019-.224.207-.224.093,0,.618.038,2,.038V33.2a4.893,4.893,0,0,0-.113-1.441c.618.038,1.218.075,1.723.131.188.019.281.094.281.168a.421.421,0,0,1-.093.281,1.9,1.9,0,0,0-.113.935v.038H171.6V33.2a5.656,5.656,0,0,0-.113-1.441c.618.038,1.218.075,1.723.131.188.019.281.094.281.168a.555.555,0,0,1-.093.281,1.9,1.9,0,0,0-.112.935v.038c1.741,0,2.285-.038,2.4-.038.187,0,.206.02.206.224v.918c0,.187-.019.206-.206.206-.112,0-.656-.038-2.4-.038v.992c1.329,0,1.816-.038,1.928-.038.188,0,.207.018.207.187v.879c0,.206-.019.225-.207.225-.112,0-.6-.019-1.928-.037v.991h.3c1.8,0,2.4-.038,2.51-.038.187,0,.206.02.206.206v.973c0,.187-.019.206-.206.206-.113,0-.712-.037-2.51-.037h-2.135v.879h1.2c1.648,0,2.228-.037,2.359-.037.188,0,.206.018.206.2,0,.113-.037.823-.037,2.227v1.945c.618-.018.9-.038.974-.038.187,0,.206.02.206.206ZM169.824,42.2v-.954h-1.872V42.2Zm0,2.114v-.991h-1.872v.991Zm1.78-8.736v-.992h-1.911v.992Zm0,2.207V36.8h-1.911v.991Zm-.15,3.461V42.2h2.023v-.954Zm2.023,3.068v-.991h-2.023v.991Z"/><path class="cls-2" d="M186.324,32.791c1.348,0,1.761-.037,1.873-.037.169,0,.243.037.243.224a10.437,10.437,0,0,0,.113,2.077,14.647,14.647,0,0,0,7.286,11.561,5.5,5.5,0,0,0-1.1,1.422c-.15.3-.225.43-.337.43-.094,0-.226-.093-.431-.243a16.081,16.081,0,0,1-6.425-9.279,15.74,15.74,0,0,1-6.892,9.316c-.225.131-.337.225-.431.225-.131,0-.206-.149-.393-.449a4.482,4.482,0,0,0-1.1-1.234c4.645-2.283,7.286-6.754,7.529-12.105h-2.323c-1.348,0-1.76.038-1.872.038-.207,0-.225-.019-.225-.206V32.959c0-.186.018-.205.225-.205.112,0,.524.037,1.872.037Z"/><path class="cls-2" d="M207.843,36.159c-2.285.43-4.29.822-6.294,1.234-.712.169-.9.206-1.179.3a1.122,1.122,0,0,1-.413.149.436.436,0,0,1-.355-.28,12.947,12.947,0,0,1-.693-2.021,25.753,25.753,0,0,0,2.978-.318c2.3-.337,6.424-.954,11.256-1.59.281-.038.375.074.393.206a10.534,10.534,0,0,1,.206,1.646c0,.225-.112.28-.355.28a8.426,8.426,0,0,0-2.285.412c-3.185,1.085-4.777,3.274-4.777,5.519,0,2.413,1.724,3.723,4.982,3.929.3,0,.412.075.412.28a6.6,6.6,0,0,1-.206,1.609c-.056.281-.131.393-.355.393-3.3,0-6.912-1.89-6.912-5.78,0-2.657,1.33-4.453,3.6-5.931Zm3.708,2.02c.094-.075.168-.056.281.038a8.579,8.579,0,0,1,1.779,2,.189.189,0,0,1-.056.3l-.787.579a.2.2,0,0,1-.318-.055,9.28,9.28,0,0,0-1.892-2.171Zm1.667-1.216c.112-.074.169-.056.281.038a7.792,7.792,0,0,1,1.779,1.926.216.216,0,0,1-.056.337l-.749.58a.193.193,0,0,1-.319-.056,8.867,8.867,0,0,0-1.873-2.152Z"/><path class="cls-2" d="M224.248,33.745a4.734,4.734,0,0,0-.655-1.2,13.252,13.252,0,0,1,2.266-.206c.262,0,.412.15.412.337,0,.112-.037.243-.037.355a3.348,3.348,0,0,0,.074.561c.132.487.188.655.3.973a29.15,29.15,0,0,0,3.821-.991c.169-.076.262-.056.319.093.112.355.243.88.318,1.254a.287.287,0,0,1-.225.337c-1.255.392-2.4.673-3.671.953.169.469.412,1.048.656,1.572a22.02,22.02,0,0,0,3.409-.973c.187-.093.281-.056.337.113a7.154,7.154,0,0,1,.337,1.234c.037.169.037.262-.15.337a23.119,23.119,0,0,1-3.165.917,13.939,13.939,0,0,0,2.453,3.237c.188.167.188.243.094.449a5.439,5.439,0,0,1-.768,1.159c-.112.132-.188.187-.3.187a.5.5,0,0,1-.262-.112,4.724,4.724,0,0,0-1.105-.6,9.137,9.137,0,0,0-3.521-.6c-1.761,0-2.791.542-2.791,1.421,0,1.216,1.592,1.609,4.458,1.609.693,0,1.386-.075,2.06-.112.188,0,.244.094.225.243a12.1,12.1,0,0,1-.375,1.7c-.056.186-.131.261-.393.28q-.647.057-1.349.057c-4.308,0-6.593-1.216-6.593-3.518,0-2,1.724-3.254,4.646-3.254a8.683,8.683,0,0,1,3.221.467,21.9,21.9,0,0,1-1.555-2.207,44.7,44.7,0,0,1-5.132.561c-.206,0-.28-.075-.337-.263a9.524,9.524,0,0,1-.337-1.534,32.71,32.71,0,0,0,5.038-.467c-.187-.393-.468-1.03-.711-1.553a32.363,32.363,0,0,1-4.551.449c-.225,0-.338-.075-.375-.262-.056-.206-.188-.9-.3-1.5a33.217,33.217,0,0,0,4.664-.3C224.548,34.531,224.436,34.213,224.248,33.745Z"/><path class="cls-2" d="M244.494,39.545a5.633,5.633,0,0,1,2.977-.842,4.344,4.344,0,0,1,4.645,4.489c0,3.125-2.528,5.127-6.537,5.127-2.359,0-3.783-1.011-3.783-2.751a2.485,2.485,0,0,1,2.641-2.282,3.408,3.408,0,0,1,3.521,2.731,2.818,2.818,0,0,0,1.911-2.843,2.733,2.733,0,0,0-2.941-2.825,7.632,7.632,0,0,0-4.795,1.984c-.543.485-1.067,1.028-1.629,1.589-.131.131-.225.206-.318.206a.464.464,0,0,1-.282-.168,8.424,8.424,0,0,1-1.1-1.217c-.112-.149-.056-.28.094-.43a44.954,44.954,0,0,0,4.439-4.134c1.162-1.2,2.042-2.133,2.9-3.2-1.124.206-2.453.467-3.615.711a5.641,5.641,0,0,0-.786.225,1.389,1.389,0,0,1-.375.092.425.425,0,0,1-.412-.317,8.963,8.963,0,0,1-.656-2.021,8.982,8.982,0,0,0,1.742.037c1.143-.112,2.791-.355,4.252-.635a4.966,4.966,0,0,0,1.03-.281.969.969,0,0,1,.356-.149.666.666,0,0,1,.431.149,7.087,7.087,0,0,1,1.255,1.2.652.652,0,0,1,.205.449.494.494,0,0,1-.318.449,3.041,3.041,0,0,0-.824.6c-1.367,1.328-2.622,2.638-4.046,4Zm.018,5.331c-.543,0-.9.319-.9.711,0,.58.506.973,1.629.973a4.19,4.19,0,0,0,.862-.074C245.861,45.456,245.3,44.876,244.512,44.876Z"/><path class="cls-2" d="M262.585,34.568a12.681,12.681,0,0,0,.187-2.076,13.634,13.634,0,0,1,2.248.617.394.394,0,0,1,.3.374.389.389,0,0,1-.131.281,2.36,2.36,0,0,0-.374.71c-.244.767-.431,1.46-.674,2.246a14.157,14.157,0,0,1,1.46-.075c1.761,0,2.716,1.2,2.716,3.461a16.066,16.066,0,0,1-1.011,6,2.682,2.682,0,0,1-2.529,1.758,6.124,6.124,0,0,1-1.854-.2.486.486,0,0,1-.337-.524,5.339,5.339,0,0,0-.356-1.74,5.608,5.608,0,0,0,2.06.412c.618,0,.9-.225,1.2-.992a14.4,14.4,0,0,0,.73-4.639c0-1.328-.243-1.74-1.067-1.74a12.406,12.406,0,0,0-1.574.131,51.533,51.533,0,0,1-3.764,8.793.308.308,0,0,1-.487.168,8.439,8.439,0,0,1-1.292-.823.386.386,0,0,1-.15-.281.344.344,0,0,1,.075-.206,39.42,39.42,0,0,0,3.427-7.333c-.73.112-1.329.224-1.836.318a5.494,5.494,0,0,0-1.029.3.412.412,0,0,1-.6-.244,17.062,17.062,0,0,1-.58-1.927c.824,0,1.648-.056,2.472-.13.787-.076,1.479-.169,2.21-.281C262.322,35.859,262.454,35.2,262.585,34.568Zm7.623,1.254c.131-.075.224-.038.356.094a12.52,12.52,0,0,1,3.109,4.545.269.269,0,0,1-.075.375,7.607,7.607,0,0,1-1.405.934c-.187.094-.374.076-.43-.149a12.679,12.679,0,0,0-3.072-4.845A15.644,15.644,0,0,1,270.208,35.822Z"/><path class="cls-2" d="M281.425,36.889c.207.092.3.2.3.355a.555.555,0,0,1-.093.28,3.488,3.488,0,0,0-.375.992,31.257,31.257,0,0,0-.45,3.405,9.137,9.137,0,0,1,6.256-2.956c2.735,0,4.364,1.59,4.364,4a4.584,4.584,0,0,1-2.828,4.191,16.263,16.263,0,0,1-4.8,1.291c-.412.055-.581.037-.749-.243a4.789,4.789,0,0,0-1.274-1.591,15.539,15.539,0,0,0,5.151-1.048,3.064,3.064,0,0,0,2.21-2.825c0-1.01-.637-1.926-2.247-1.926-1.648,0-3.634,1.066-5.394,2.844a5.116,5.116,0,0,0-.806,1.028c-.112.187-.187.187-.431.131a12.446,12.446,0,0,1-1.273-.505c-.188-.075-.262-.112-.262-.374.112-2.171.355-4.378.58-6.043a11.633,11.633,0,0,0,.169-1.684A10.473,10.473,0,0,1,281.425,36.889Zm.469-4.734a.315.315,0,0,1,.356-.094,12.3,12.3,0,0,1,3.671,2.227c.093.074.131.131.131.206a.519.519,0,0,1-.094.224,12.313,12.313,0,0,1-.955,1.31c-.075.094-.15.149-.206.149-.075,0-.131-.037-.225-.131a14.951,14.951,0,0,0-3.783-2.432A10.132,10.132,0,0,1,281.894,32.155Z"/><path class="cls-2" d="M310.661,48.581a.259.259,0,0,1-.412.093,40.784,40.784,0,0,0-5.132-2.843,16.022,16.022,0,0,1-7.7,2.787c-.581.056-.6.056-.805-.468a4.607,4.607,0,0,0-.712-1.272,16.937,16.937,0,0,0,7.136-1.889,27.66,27.66,0,0,0-2.753-.9l-.468.617c-.132.15-.226.187-.487.075l-1.143-.468c-.318-.13-.3-.206-.169-.374a13.836,13.836,0,0,0,.918-1.16c.431-.654.9-1.421,1.349-2.245h-1.892c-1.667,0-2.229.037-2.342.037-.187,0-.2-.018-.2-.2V38.946c0-.187.018-.2.2-.2.113,0,.675.037,2.342.037h2.791c.149-.3.3-.618.43-.936a9.513,9.513,0,0,0,.656-1.871,19.725,19.725,0,0,1,2,.487c.15.037.244.131.244.243a.456.456,0,0,1-.225.337,1.616,1.616,0,0,0-.487.71l-.487,1.03h6.63c1.667,0,2.21-.037,2.341-.037.188,0,.206.018.206.2v1.422c0,.187-.018.2-.206.2-.131,0-.674-.037-2.341-.037h-1.217a12.534,12.534,0,0,1-2.173,3.929,55.12,55.12,0,0,1,4.982,2.413c.093.056.131.094.131.169a.5.5,0,0,1-.112.261Zm-1.536-14.817c1.761,0,2.4-.037,2.509-.037.188,0,.207.018.207.186,0,.112-.038.449-.038.955v.767c0,1.646.038,1.927.038,2.039,0,.187-.019.206-.207.206H310.08c-.187,0-.206-.019-.206-.206V35.485H298.318v2.189c0,.187-.019.206-.206.206h-1.554c-.188,0-.207-.019-.207-.206,0-.131.038-.393.038-2.039v-.618c0-.655-.038-.992-.038-1.1,0-.168.019-.186.207-.186.13,0,.748.037,2.509.037h3.915V33.54a7.469,7.469,0,0,0-.15-1.778c.693.019,1.386.056,2.023.113.206.018.3.074.3.168a1.065,1.065,0,0,1-.112.374,3.465,3.465,0,0,0-.094,1.123v.224Zm-6.7,6.772c-.375.711-.787,1.4-1.218,2.095,1.18.318,2.342.674,3.466,1.085a8.9,8.9,0,0,0,1.966-3.18Z"/><path class="cls-2" d="M318.563,38.927c.263.075.3.112.281.3a23.472,23.472,0,0,1-1.723,6.36c-.075.169-.131.225-.393.113l-1.368-.618c-.261-.13-.28-.206-.205-.355a19.6,19.6,0,0,0,1.741-6.006c.038-.224.057-.224.338-.131Zm3.6,6.473c0,.431.113.692.357.8a4.159,4.159,0,0,0,1.629.187c.974,0,1.48-.094,1.779-.393.412-.356.543-.861.543-3.031a6.375,6.375,0,0,0,1.555.6c.487.131.487.131.468.618-.075,2.113-.356,2.9-1.011,3.423-.712.579-1.686.785-3.484.785-1.892,0-2.66-.149-3.109-.449-.506-.318-.768-.767-.768-1.852V38.908a13.443,13.443,0,0,0-.112-2.132,16.589,16.589,0,0,1,1.985.187c.3.038.412.15.412.281a.6.6,0,0,1-.112.336c-.094.168-.132.412-.132,1.328Zm-.917-13.264c.15-.206.187-.224.374-.168a24.288,24.288,0,0,1,5.1,2.432c.187.112.187.15.056.374l-.787,1.348c-.15.261-.187.28-.355.167a22.691,22.691,0,0,0-5.114-2.656c-.112-.038-.15-.056-.15-.112a.622.622,0,0,1,.094-.224Zm8.072,5.987c.244-.094.281-.112.375.075a25.845,25.845,0,0,1,2.528,5.724c.057.206.038.243-.206.375l-1.423.692c-.262.13-.319.13-.375-.075a22.334,22.334,0,0,0-2.416-5.893c-.093-.168-.056-.243.187-.337Z"/><path class="cls-2" d="M339.857,46.541a2.716,2.716,0,1,1-2.715-2.693A2.7,2.7,0,0,1,339.857,46.541Zm-4.27,0a1.555,1.555,0,1,0,1.555-1.552A1.528,1.528,0,0,0,335.587,46.541Z"/><path class="cls-2" d="M5.857,79.441a19.463,19.463,0,0,1-2.1.973,1.294,1.294,0,0,1-.431.15c-.15,0-.225-.131-.431-.468a3.706,3.706,0,0,0-.806-.936,13.155,13.155,0,0,0,4.383-1.814H5.052c-1.667,0-2.229.037-2.342.037-.168,0-.187-.018-.187-.2V76.111c0-.186.019-.206.187-.206.113,0,.675.038,2.342.038H8.086a4.565,4.565,0,0,0,.581-.842H7.6c-1.817,0-2.454.037-2.585.037-.187,0-.206-.018-.206-.224,0-.113.038-.486.038-1.422V71.977c0-.954-.038-1.329-.038-1.422,0-.206.019-.225.206-.225.131,0,.768.038,2.585.038h6.537c1.8,0,2.435-.038,2.565-.038.188,0,.207.019.207.225,0,.093-.038.468-.038,1.422v1.515c0,.936.038,1.309.038,1.422,0,.206-.019.224-.207.224-.13,0-.767-.037-2.565-.037H10.221l.15.037c.206.057.318.112.318.206,0,.112-.056.169-.206.243a.946.946,0,0,0-.374.356h6.518c1.685,0,2.229-.038,2.359-.038.188,0,.207.02.207.206v1.067c0,.187-.019.2-.207.2-.13,0-.674-.037-2.359-.037H15.091a10.6,10.6,0,0,0,4.589,1.609,5.439,5.439,0,0,0-.694,1.123c-.168.355-.224.467-.393.467a1.857,1.857,0,0,1-.412-.094,12.493,12.493,0,0,1-2.322-.934v1.4c0,2.021.037,2.507.037,2.62,0,.186-.019.2-.206.2h-1.4c-.187,0-.206-.019-.206-.2v-.412H7.636v.467c0,.188-.019.206-.206.206h-1.4c-.188,0-.207-.018-.207-.206,0-.112.038-.6.038-2.637ZM7.206,67.748a9.791,9.791,0,0,0-.094-1.14c.6.018,1.274.055,1.779.112.169.018.263.075.263.169a.72.72,0,0,1-.094.28,2.089,2.089,0,0,0-.094.579h3.671a9.806,9.806,0,0,0-.093-1.14c.6.018,1.273.055,1.779.112.169.018.262.075.262.169a.719.719,0,0,1-.093.28,2.051,2.051,0,0,0-.094.579h2.191c1.667,0,2.247-.037,2.36-.037.187,0,.206.019.206.206v1.141c0,.206-.019.225-.206.225-.113,0-.693-.038-2.36-.038H14.4c.018.3.037.468.037.543,0,.187-.019.206-.225.206H12.824c-.206,0-.224-.019-.224-.206,0-.075.018-.243.018-.543H8.966c.019.3.038.468.038.543,0,.187-.019.206-.225.206H7.393c-.206,0-.225-.019-.225-.206,0-.075.019-.243.019-.543H5.127c-1.667,0-2.248.038-2.361.038-.187,0-.205-.019-.205-.225V67.917c0-.187.018-.206.205-.206.113,0,.694.037,2.361.037Zm-.487,3.743v.748H15v-.748ZM15,73.249H6.719v.767H15ZM7.636,79.291V80.1h6.443v-.805Zm6.443,2.657v-.8H7.636v.8Zm-.243-3.816a10.844,10.844,0,0,1-.824-.786H8.891a9.854,9.854,0,0,1-.936.786Z"/><path class="cls-2" d="M27.151,71.79c.206.093.3.2.3.355a.55.55,0,0,1-.094.28,3.534,3.534,0,0,0-.374.993,31.238,31.238,0,0,0-.45,3.4,9.14,9.14,0,0,1,6.256-2.955c2.734,0,4.364,1.589,4.364,4a4.585,4.585,0,0,1-2.828,4.192,16.232,16.232,0,0,1-4.8,1.29c-.412.056-.581.038-.749-.242a4.779,4.779,0,0,0-1.274-1.591,15.564,15.564,0,0,0,5.151-1.048,3.066,3.066,0,0,0,2.21-2.825c0-1.01-.637-1.926-2.248-1.926-1.648,0-3.633,1.065-5.394,2.843a5.143,5.143,0,0,0-.8,1.029c-.112.187-.187.187-.431.13a12.677,12.677,0,0,1-1.273-.5c-.188-.075-.263-.112-.263-.375.113-2.17.356-4.377.581-6.042a11.633,11.633,0,0,0,.169-1.684A10.479,10.479,0,0,1,27.151,71.79Zm.469-4.733a.313.313,0,0,1,.356-.094,12.273,12.273,0,0,1,3.67,2.227c.094.074.131.13.131.206a.524.524,0,0,1-.093.224,12.444,12.444,0,0,1-.955,1.309c-.075.094-.15.15-.206.15-.075,0-.131-.037-.225-.131a14.951,14.951,0,0,0-3.783-2.432A10.132,10.132,0,0,1,27.62,67.057Z"/><path class="cls-2" d="M47.79,67.861c.318.075.449.168.449.356a1.8,1.8,0,0,1-.187.616,11.159,11.159,0,0,0-.262,2.283c-.188,2.881-.281,4.789-.281,7.24,0,1.89.225,2.32,1.723,2.32a9.88,9.88,0,0,0,6.555-3.442,6.508,6.508,0,0,0,.431,1.777,1.225,1.225,0,0,1,.15.449c0,.169-.075.318-.375.58a10.706,10.706,0,0,1-7.1,2.806c-2.4,0-3.522-.954-3.522-3.816,0-3.143.169-5.838.263-8.082a12.482,12.482,0,0,0-.187-3.424A19.436,19.436,0,0,1,47.79,67.861Z"/><path class="cls-2" d="M77.962,66.608a10.817,10.817,0,0,0,0,17.136l-.487.58c-3.6-2.619-5.076-5.462-5.076-9.148s1.48-6.529,5.076-9.148Z"/><path class="cls-2" d="M85.7,74.073c-.937,0-1.873.018-2.81.074-.168,0-.243-.112-.28-.355A14.2,14.2,0,0,1,82.4,71.9a32.995,32.995,0,0,0,3.447.15H92.27a2.052,2.052,0,0,0,.992-.206.4.4,0,0,1,.244-.112.486.486,0,0,1,.281.13,11.153,11.153,0,0,1,1.255,1.161.548.548,0,0,1,.187.393.45.45,0,0,1-.206.355,2.139,2.139,0,0,0-.637.879,16.362,16.362,0,0,1-7.641,8.269.9.9,0,0,1-.375.131.611.611,0,0,1-.412-.225,5.507,5.507,0,0,0-1.742-.972,14.6,14.6,0,0,0,7.867-7.8Zm1.255-4.023c-.843,0-1.78.019-2.566.074-.188,0-.244-.112-.262-.411a16.327,16.327,0,0,1-.094-1.8,25.872,25.872,0,0,0,3.071.131h3.372c1.218,0,2.21-.056,2.94-.094.169,0,.225.094.225.3a9.351,9.351,0,0,1,0,1.459c0,.318-.056.393-.337.374-.618,0-1.5-.037-2.641-.037Z"/><path class="cls-2" d="M110.38,78.787c0,1.291.018,2.394.056,3.891.018.243-.075.318-.281.318a15.816,15.816,0,0,1-1.873,0c-.206,0-.281-.075-.262-.3.018-1.348.075-2.564.075-3.835V74.5a32.467,32.467,0,0,1-5.151,3.593.538.538,0,0,1-.281.074.521.521,0,0,1-.393-.187,7.046,7.046,0,0,0-1.611-1.1,30.037,30.037,0,0,0,5.9-3.835,30.353,30.353,0,0,0,3.989-3.91,5.416,5.416,0,0,0,1.18-1.927,16.649,16.649,0,0,1,2.079,1.31.328.328,0,0,1,.15.28.536.536,0,0,1-.262.412,6.149,6.149,0,0,0-1.124,1.029,29.512,29.512,0,0,1-2.191,2.357Z"/><path class="cls-2" d="M124.707,71.4c-1.218,0-2.285.056-3.091.094-.243.018-.318-.113-.356-.375-.056-.374-.131-1.347-.168-1.889a33.009,33.009,0,0,0,3.6.13h6.686a1.8,1.8,0,0,0,1.031-.186.518.518,0,0,1,.28-.075.9.9,0,0,1,.356.094,5.758,5.758,0,0,1,1.368,1.234.472.472,0,0,1,.131.318.638.638,0,0,1-.263.468,2.274,2.274,0,0,0-.431.729,22.015,22.015,0,0,1-3.633,6.081,20.993,20.993,0,0,1-5.319,4.452.9.9,0,0,1-.506.168.652.652,0,0,1-.468-.206,5.572,5.572,0,0,0-1.742-1.028,18.122,18.122,0,0,0,6.125-4.677,15.76,15.76,0,0,0,3.165-5.332Z"/><path class="cls-2" d="M149.465,69.283a2.749,2.749,0,0,0,1.293-.169.313.313,0,0,1,.206-.075.612.612,0,0,1,.318.151A6.745,6.745,0,0,1,152.5,70.5a.492.492,0,0,1,.094.243.517.517,0,0,1-.243.374,3.433,3.433,0,0,0-.693.823,29.607,29.607,0,0,1-2.4,3.5,44.057,44.057,0,0,1,5.187,4.527.425.425,0,0,1,.15.262.46.46,0,0,1-.131.281,9.945,9.945,0,0,1-1.255,1.271.321.321,0,0,1-.225.113.385.385,0,0,1-.262-.15,34.158,34.158,0,0,0-4.869-4.64,26.937,26.937,0,0,1-6.294,4.94,1.194,1.194,0,0,1-.43.149.417.417,0,0,1-.319-.168,5.135,5.135,0,0,0-1.573-1.216,23.347,23.347,0,0,0,10.114-9.467l-4.832.02c-.974,0-1.948.037-2.96.112-.149.019-.205-.112-.243-.318a10.864,10.864,0,0,1-.168-1.946c1.011.075,1.948.075,3.165.075Z"/><path class="cls-2" d="M168.044,74.634a10.676,10.676,0,0,1-1.105,4.77,9.436,9.436,0,0,1-3.3,3.536,1.149,1.149,0,0,1-.561.224.548.548,0,0,1-.394-.187,4.911,4.911,0,0,0-1.667-.992,8.3,8.3,0,0,0,3.727-3.329,7.94,7.94,0,0,0,.956-4.022h-3.559c-.936,0-1.854.055-2.809.112-.169.018-.225-.112-.244-.356a11.313,11.313,0,0,1-.15-1.8c1.049.094,2.1.094,3.184.094h8.41c1.461,0,2.547-.038,3.652-.112.187,0,.206.112.206.373.019.243.019,1.2,0,1.441,0,.244-.112.318-.281.318-.974-.037-2.266-.074-3.558-.074Zm-3.709-4.341c-.861,0-1.61.037-2.659.075-.243,0-.3-.093-.319-.318-.056-.45-.074-1.123-.131-1.8,1.311.075,2.266.094,3.109.094h4.2c1.049,0,2.229-.019,3.165-.076.187,0,.225.113.225.357a8.407,8.407,0,0,1,0,1.365c0,.261-.038.355-.243.355-1.012-.037-2.117-.056-3.147-.056Z"/><path class="cls-2" d="M182.221,76.5a14.956,14.956,0,0,0-2.753.225c-.225,0-.375-.113-.431-.394a20.442,20.442,0,0,1-.281-2.262,24.208,24.208,0,0,0,4.045.224h6.031c1.424,0,2.866-.038,4.308-.057.281-.018.337.037.337.262a13.585,13.585,0,0,1,0,1.759c0,.225-.074.3-.337.28-1.4-.018-2.79-.037-4.177-.037Z"/><path class="cls-2" d="M199.113,72.744c.094-.131.188-.225.356-.187a13,13,0,0,1,3.6,1.833c.131.093.207.169.207.281a.558.558,0,0,1-.076.206,7.584,7.584,0,0,1-.824,1.421c-.094.113-.168.188-.243.188a.368.368,0,0,1-.225-.112,16.431,16.431,0,0,0-3.783-2.04C198.589,73.586,198.889,73.043,199.113,72.744Zm3.035,6.94a31.31,31.31,0,0,0,5.131-3.236,34.024,34.024,0,0,0,5.394-5.22,9.369,9.369,0,0,0,.544,2.1.915.915,0,0,1,.093.355.582.582,0,0,1-.206.431,34.911,34.911,0,0,1-4.757,4.321,43.411,43.411,0,0,1-5.6,3.517,6.083,6.083,0,0,0-1.086.637.418.418,0,0,1-.3.149.484.484,0,0,1-.375-.225A11.858,11.858,0,0,1,199.6,80.6,8.692,8.692,0,0,0,202.148,79.684Zm-.768-11.243c.131-.224.243-.262.468-.15a12.759,12.759,0,0,1,3.521,2.077.3.3,0,0,1,.15.243.452.452,0,0,1-.075.243,8.024,8.024,0,0,1-.955,1.4.209.209,0,0,1-.188.112.49.49,0,0,1-.281-.131,18.1,18.1,0,0,0-3.633-2.3C200.705,69.451,201.061,68.927,201.38,68.441Zm8.578-.58c.093-.075.168-.056.28.038a8.624,8.624,0,0,1,1.78,2,.189.189,0,0,1-.056.3l-.787.579a.2.2,0,0,1-.318-.055,9.3,9.3,0,0,0-1.892-2.171Zm1.667-1.216c.112-.074.168-.056.281.038a7.792,7.792,0,0,1,1.779,1.926.217.217,0,0,1-.056.337l-.749.58a.193.193,0,0,1-.319-.056,8.846,8.846,0,0,0-1.873-2.152Z"/><path class="cls-2" d="M216.924,66.028c3.6,2.619,5.076,5.463,5.076,9.148s-1.48,6.529-5.076,9.148l-.487-.58a10.817,10.817,0,0,0,0-17.136Z"/><path class="cls-2" d="M241.8,69.47a12.684,12.684,0,0,0,.187-2.077,13.7,13.7,0,0,1,2.248.618.377.377,0,0,1,.168.655,2.348,2.348,0,0,0-.374.71c-.244.767-.431,1.46-.674,2.245a14.625,14.625,0,0,1,1.5-.075c1.742,0,2.678,1.217,2.678,3.612a15.908,15.908,0,0,1-1.011,5.854,2.68,2.68,0,0,1-2.528,1.759,4.969,4.969,0,0,1-1.948-.28.5.5,0,0,1-.338-.524,5.323,5.323,0,0,0-.356-1.74,4.993,4.993,0,0,0,2.155.487c.617,0,.9-.225,1.2-.993a14.434,14.434,0,0,0,.73-4.657c0-1.31-.243-1.721-1.067-1.721a12.378,12.378,0,0,0-1.573.13,51.611,51.611,0,0,1-3.765,8.793.307.307,0,0,1-.487.168,8.436,8.436,0,0,1-1.292-.822.386.386,0,0,1-.15-.281.351.351,0,0,1,.075-.206,39.549,39.549,0,0,0,3.428-7.333c-.731.112-1.331.224-1.836.318a5.5,5.5,0,0,0-1.03.3.411.411,0,0,1-.6-.244,17.179,17.179,0,0,1-.58-1.926c.824,0,1.648-.057,2.472-.132.787-.074,1.48-.168,2.21-.28C241.533,70.761,241.664,70.106,241.8,69.47Zm7.417,1.254c.131-.076.225-.038.356.093a12.52,12.52,0,0,1,3.109,4.546.268.268,0,0,1-.075.374,7.53,7.53,0,0,1-1.405.935c-.187.094-.374.075-.431-.149a12.634,12.634,0,0,0-3.071-4.845A15.767,15.767,0,0,1,249.212,70.724Zm.506-2.619c.093-.076.168-.057.281.037a8.624,8.624,0,0,1,1.779,2,.189.189,0,0,1-.056.3l-.787.58a.2.2,0,0,1-.318-.056,9.323,9.323,0,0,0-1.892-2.171Zm1.667-1.216c.112-.075.168-.057.281.037a7.813,7.813,0,0,1,1.779,1.927.216.216,0,0,1-.057.337l-.748.579a.193.193,0,0,1-.319-.056,8.842,8.842,0,0,0-1.873-2.151Z"/><path class="cls-3" d="M267.734,75.355c-3.824,1-6.261,1.922-8.442,2.691a2.957,2.957,0,0,1-.744.282.751.751,0,0,1-.514-.513,19.538,19.538,0,0,1-.846-2.1c.564-.154.8-.231,1.334-.411a12.614,12.614,0,0,0,2.463-1.511,84.435,84.435,0,0,0,7.313-6.716c-1.565.436-2.951.692-4.567,1-.385.077-.59.1-.975.206a2.724,2.724,0,0,1-.719.256c-.231,0-.436-.23-.616-.564a14.755,14.755,0,0,1-.923-2.537,16.835,16.835,0,0,0,2.54.051c1.719-.128,3.592-.436,5.85-.769a3.361,3.361,0,0,0,1.36-.436.823.823,0,0,1,.488-.179c.231,0,.385.129.692.384a8.625,8.625,0,0,1,1.258,1.282,1.162,1.162,0,0,1,.308.718c0,.256-.154.436-.462.589a6.167,6.167,0,0,0-1.052.769c-2.669,2.358-4.85,4.254-7.775,6.459l.052.077a100.1,100.1,0,0,1,12.368-2.819c.333-.052.436.128.487.41a11.058,11.058,0,0,1,.282,2.075c.026.257-.128.334-.41.359a17.983,17.983,0,0,0-4.773.821c-2.976,1.025-4.388,2.844-4.388,4.69,0,2.461,2.694,3.2,6.415,3.2.256,0,.411.129.385.462-.051.641-.257,1.692-.334,2.153-.051.41-.2.563-.564.563a14.722,14.722,0,0,1-1.693-.153c-4.825-.487-6.929-2.691-6.929-5.792a5.977,5.977,0,0,1,3.131-4.947Z"/><path class="cls-3" d="M296.212,68.025c.282-.078.385.05.41.256.077.563.154,1.307.18,1.845.026.333-.052.41-.385.487a40.9,40.9,0,0,1-4.465.974c-1.745,5.69-3.053,9.611-4.695,13.866-.129.359-.283.333-.565.256-.256-.1-1.514-.64-2.053-.948a.413.413,0,0,1-.2-.513A96.051,96.051,0,0,0,288.873,72.1c-1.488.155-3.284.282-4.49.282-.385,0-.488-.077-.539-.409-.1-.539-.231-1.41-.359-2.333a11.829,11.829,0,0,0,1.9.077,34.8,34.8,0,0,0,4.157-.256c.257-1.026.462-2.153.642-3.2a17.727,17.727,0,0,0,.153-2.358,14.924,14.924,0,0,1,3.234.718.425.425,0,0,1,.282.41.618.618,0,0,1-.128.41,4.836,4.836,0,0,0-.539,1.025c-.257.922-.437,1.794-.616,2.435C293.569,68.716,294.954,68.384,296.212,68.025Zm-1,12.251c.257,0,.359.1.385.359.2,1.87,1.463,2.409,3.926,2.409a38.451,38.451,0,0,0,4.311-.359c.2-.025.282.025.307.23a15.962,15.962,0,0,1,.206,2.23c.025.308,0,.384-.411.411a28.4,28.4,0,0,1-3.566.282c-3.285,0-5.03-.462-6.184-1.667a4.99,4.99,0,0,1-1.155-3.511A13.077,13.077,0,0,1,295.211,80.276Zm-.282-6.792c0-.359.077-.436.462-.513a26.837,26.837,0,0,1,5-.59,18.7,18.7,0,0,1,3,.257c.359.051.436.077.436.385a18.056,18.056,0,0,1,.025,2.05c0,.436-.128.538-.487.461a17.221,17.221,0,0,0-3.182-.307,28.434,28.434,0,0,0-5.157.589C294.98,74.919,294.929,74,294.929,73.484Zm5.927-7.3c.128-.1.231-.077.385.051a11.8,11.8,0,0,1,2.438,2.743.259.259,0,0,1-.077.41l-1.078.794a.267.267,0,0,1-.436-.077,12.692,12.692,0,0,0-2.592-2.972Zm2.284-1.665c.154-.1.231-.078.384.05a10.714,10.714,0,0,1,2.438,2.64.3.3,0,0,1-.077.461l-1.026.795a.263.263,0,0,1-.436-.076,12.112,12.112,0,0,0-2.566-2.948Z"/><path class="cls-3" d="M316.453,66.564a8.5,8.5,0,0,0-.051-2.487,16.824,16.824,0,0,1,3.079.539c.333.1.513.256.513.461a.841.841,0,0,1-.18.41,2.671,2.671,0,0,0-.436.948c-.128.693-.231,1.2-.359,2.1a47,47,0,0,0,4.824-.949c.359-.1.488-.076.539.257a11.536,11.536,0,0,1,.18,1.9c0,.282-.077.358-.309.41-2.206.487-3.592.769-5.747,1.051-.359,2.127-.719,3.844-1.18,5.638a11.1,11.1,0,0,1,7.364-2.717c3.413,0,5.722,2.2,5.722,4.844a5.745,5.745,0,0,1-2.925,5.178,17.1,17.1,0,0,1-6.543,2.05,11.975,11.975,0,0,1-1.9.18c-.256,0-.436-.128-.641-.615a4.878,4.878,0,0,0-1.386-1.82c3.747-.23,5.312-.564,7.365-1.41,1.976-.82,2.925-2,2.925-3.614,0-1.333-.975-2.434-2.925-2.434a8.536,8.536,0,0,0-6.749,3.178c-.231.333-.487.64-.718.974-.179.307-.257.41-.488.384a7.2,7.2,0,0,1-1.924-.564c-.411-.179-.564-.282-.564-.513a1.741,1.741,0,0,1,.1-.512c.128-.435.231-.82.334-1.2.564-2.256.923-4.152,1.36-6.716-1.386.1-3,.23-4.311.23a.438.438,0,0,1-.488-.358c-.077-.307-.256-1.384-.359-2.229,2,0,3.592-.078,5.568-.232C316.273,68.025,316.376,67.178,316.453,66.564Z"/><path class="cls-2" d="M336.617,79.03a.4.4,0,0,1,.281-.15.379.379,0,0,1,.244.113,13.933,13.933,0,0,1,3.727,3.423c.112.15.131.206.131.281,0,.093-.038.168-.188.3l-1.142.972c-.131.112-.206.169-.262.169-.094,0-.168-.037-.262-.187a13.994,13.994,0,0,0-3.54-3.574c-.112-.074-.169-.13-.169-.186s.037-.112.131-.225Z"/><path class="cls-2" d="M103.432,115.084c-1.648,0-2.211.018-2.323.018-.168,0-.187,0-.187-.187v-1.291c0-.187.019-.206.187-.206.112,0,.675.038,2.323.038h2.4c-.168-.449-.356-.861-.543-1.254-.936.019-1.349.037-1.442.037-.188,0-.206-.018-.206-.2,0-.131.037-.393.037-1.085v-1.235c0-.711-.037-.954-.037-1.085,0-.187.018-.206.206-.206.131,0,.768.038,2.547.038h5.843c1.78,0,2.417-.038,2.548-.038.187,0,.206.019.206.206,0,.112-.038.374-.038,1.085v1.235c0,.692.038.973.038,1.085,0,.187-.019.2-.206.2-.094,0-.506-.018-1.405-.037-.206.43-.412.861-.637,1.254h2.529c1.648,0,2.191-.038,2.3-.038.169,0,.188.019.188.206v1.291c0,.187-.019.187-.188.187-.112,0-.655-.018-2.3-.018Zm.337-7.353c-1.7,0-2.266.037-2.379.037-.206,0-.225-.018-.225-.186V106.4c0-.206.019-.224.225-.224.113,0,.675.037,2.379.037h11.163c1.7,0,2.266-.037,2.378-.037.188,0,.206.018.206.224v1.179c0,.168-.018.186-.206.186-.112,0-.674-.037-2.378-.037Zm6.518-7.988a10.859,10.859,0,0,0-.075-1.309,14.733,14.733,0,0,1,1.685.092c.188.02.244.075.244.169a.663.663,0,0,1-.075.318,1.85,1.85,0,0,0-.093.73h1.217c1.835,0,2.491-.038,2.6-.038.187,0,.206.019.206.206,0,.112-.037.524-.037,1.552V103.8c0,1.01.037,1.422.037,1.534,0,.206-.019.225-.206.225-.112,0-.768-.037-2.6-.037h-7.623c-1.836,0-2.491.037-2.622.037-.169,0-.187-.019-.187-.225,0-.112.037-.524.037-1.534v-2.339c0-1.028-.037-1.421-.037-1.552,0-.187.018-.206.187-.206.131,0,.786.038,2.622.038h1.03a9.361,9.361,0,0,0-.094-1.309,15.373,15.373,0,0,1,1.7.092c.168.02.243.075.243.169a.873.873,0,0,1-.075.318,1.738,1.738,0,0,0-.112.73Zm-3.69,2.338v-1.01h-2.023v1.01Zm0,2.152v-1.01h-2.023v1.01ZM113,109.789h-7.4v1.1H113Zm-2.267,3.667a9.566,9.566,0,0,0,.618-1.254h-4.027a8.7,8.7,0,0,1,.506,1.254Zm-2.472-11.375h2.023v-1.01h-2.023Zm2.023,1.142h-2.023v1.01h2.023Zm1.686-2.152v1.01h2.191v-1.01Zm2.191,2.152h-2.191v1.01h2.191Z"/><path class="cls-2" d="M126.243,101.333a12.673,12.673,0,0,0,.188-2.077,13.714,13.714,0,0,1,2.247.618.378.378,0,0,1,.169.655,2.352,2.352,0,0,0-.375.71c-.243.767-.431,1.46-.674,2.245a14.444,14.444,0,0,1,1.46-.075c1.761,0,2.716,1.2,2.716,3.461a16.039,16.039,0,0,1-1.011,6,2.68,2.68,0,0,1-2.529,1.759,6.129,6.129,0,0,1-1.854-.2.486.486,0,0,1-.337-.524,5.339,5.339,0,0,0-.356-1.74,5.629,5.629,0,0,0,2.06.412c.619,0,.9-.226,1.2-.993a14.369,14.369,0,0,0,.731-4.639c0-1.328-.244-1.739-1.068-1.739a12.378,12.378,0,0,0-1.573.13,51.611,51.611,0,0,1-3.765,8.793.307.307,0,0,1-.487.168,8.486,8.486,0,0,1-1.292-.822.386.386,0,0,1-.15-.281.351.351,0,0,1,.075-.206,39.48,39.48,0,0,0,3.427-7.333c-.73.112-1.329.224-1.835.318a5.5,5.5,0,0,0-1.03.3.41.41,0,0,1-.6-.244A16.934,16.934,0,0,1,121,104.1c.824,0,1.648-.057,2.472-.131.787-.075,1.48-.169,2.21-.281C125.981,102.624,126.112,101.969,126.243,101.333Zm7.623,1.254c.131-.076.225-.038.356.093a12.52,12.52,0,0,1,3.109,4.546.268.268,0,0,1-.075.374,7.562,7.562,0,0,1-1.405.935c-.187.094-.374.075-.43-.149a12.64,12.64,0,0,0-3.072-4.845A15.644,15.644,0,0,1,133.866,102.587Z"/><path class="cls-2" d="M144.353,100.584c.318.169.431.281.431.45,0,.131-.038.186-.281.561a4.4,4.4,0,0,0-.45,1.328,30.307,30.307,0,0,0-.786,6.042,18.032,18.032,0,0,0,.112,2.19c.393-.861.731-1.478,1.274-2.788a4.837,4.837,0,0,0,.655,1.179.754.754,0,0,1,.131.28.515.515,0,0,1-.094.3,18.354,18.354,0,0,0-1.067,2.825,2.138,2.138,0,0,0-.056.579c0,.225.037.375.037.524,0,.131-.075.206-.243.243a9.206,9.206,0,0,1-1.536.3c-.131.018-.206-.075-.244-.206a17.537,17.537,0,0,1-.861-5.575,35.656,35.656,0,0,1,.637-6.136,15.115,15.115,0,0,0,.337-2.788A8.361,8.361,0,0,1,144.353,100.584Zm4.008,8.812c.15-.019.187.075.187.281.113,1.291,1.012,1.758,3.053,1.758a26.832,26.832,0,0,0,3.578-.243c.187-.018.224,0,.262.243a13.886,13.886,0,0,1,.112,1.609c0,.225,0,.243-.318.28a24.921,24.921,0,0,1-3.053.206c-2.772,0-4.065-.449-4.87-1.552a4.119,4.119,0,0,1-.656-2.432Zm-1.049-7c.019-.224.075-.281.262-.318a29.909,29.909,0,0,1,4.065-.337c1.123,0,1.985.038,2.772.113.393.018.431.056.431.243,0,.561,0,1.066-.038,1.59-.018.168-.075.243-.244.225-1.123-.075-2.1-.113-3.053-.113a22.934,22.934,0,0,0-4.251.431C147.275,103.185,147.275,102.717,147.312,102.4Z"/><path class="cls-2" d="M168.663,101.744c.168-.055.243-.055.281.15a10.135,10.135,0,0,1,.168,1.515c0,.169-.075.206-.225.225-1.011.206-1.929.337-3.09.5a51.717,51.717,0,0,1-3.652,8.026c-.075.131-.131.186-.206.186a.526.526,0,0,1-.225-.092,8.953,8.953,0,0,1-1.293-.955c-.093-.075-.13-.13-.13-.2a.356.356,0,0,1,.093-.225,37.613,37.613,0,0,0,3.24-6.529c-.711.037-1.292.037-1.872.037-.413,0-.562,0-1.031-.018-.187,0-.224-.056-.262-.3a9.675,9.675,0,0,1-.187-1.59c.768.056,1.2.075,1.742.075.73,0,1.292-.019,2.153-.093.225-.787.357-1.422.487-2.1a7.2,7.2,0,0,0,.113-1.516,17.329,17.329,0,0,1,2.191.394c.188.037.3.149.3.281a.459.459,0,0,1-.169.355,2.051,2.051,0,0,0-.3.692c-.131.449-.281,1.029-.45,1.59A20.1,20.1,0,0,0,168.663,101.744Zm.524,5.014a6.538,6.538,0,0,0-.15-1.328,10.181,10.181,0,0,1,2.042.355.288.288,0,0,1,.262.3,2.453,2.453,0,0,1-.112.393,1.935,1.935,0,0,0-.076.767,24.377,24.377,0,0,0,.207,3.18,14.747,14.747,0,0,1,3.371,1.74c.188.131.206.206.112.392a11.519,11.519,0,0,1-.861,1.516c-.056.093-.113.132-.169.132s-.112-.039-.187-.114a13.976,13.976,0,0,0-2.285-1.571c0,1.871-1.349,2.732-3.484,2.732-2.06,0-3.446-1.047-3.446-2.657,0-1.627,1.348-2.731,3.465-2.731a9.716,9.716,0,0,1,1.479.112C169.243,108.779,169.206,107.637,169.187,106.758Zm-1.33,4.714c-.936,0-1.667.375-1.667,1.085,0,.6.525.9,1.593.9,1.011,0,1.629-.542,1.629-1.329a2.127,2.127,0,0,0-.019-.374A4.792,4.792,0,0,0,167.857,111.472Zm3.484-9a.26.26,0,0,1,.393-.13,14.564,14.564,0,0,1,3.671,1.758c.113.074.169.131.169.206a.445.445,0,0,1-.075.224,11.211,11.211,0,0,1-.787,1.384c-.056.094-.112.132-.168.132a.269.269,0,0,1-.169-.075,16.17,16.17,0,0,0-3.877-2.04C170.816,103.372,171.1,102.811,171.341,102.474Z"/><path class="cls-2" d="M183.027,100.847a6.876,6.876,0,0,0-.187-1.815,10.652,10.652,0,0,1,2.135.355c.3.075.393.187.393.375a.755.755,0,0,1-.131.355,2.291,2.291,0,0,0-.169.917c-.037.617-.056,1.01-.093,1.871a5.938,5.938,0,0,1,.712.411.325.325,0,0,1,.168.262.4.4,0,0,1-.093.206,20.069,20.069,0,0,0-.974,1.777v.094c.6-.674,1.011-1.1,1.741-1.815,1.48-1.4,2.51-1.834,3.39-1.834a2.187,2.187,0,0,1,2.248,2.488c0,.543-.019,1.685-.15,3.406-.094,1.72-.187,2.562-.187,3.142,0,.936.225,1.066.693,1.066a2.44,2.44,0,0,0,1.386-.673,4.907,4.907,0,0,0,1.124-1.571,4.64,4.64,0,0,0,.693,1.4.7.7,0,0,1,.206.43.548.548,0,0,1-.132.318,4.524,4.524,0,0,1-3.6,2.151c-1.61,0-2.4-.916-2.4-2.862,0-.5.056-1.552.15-3.143.094-1.646.131-2.264.131-3.068,0-.823-.206-1.235-.58-1.235-.544,0-1.181.393-2.1,1.217-.768.748-1.648,1.628-2.622,2.75.019,2.357.075,5.05.075,7.09a.229.229,0,0,1-.263.261,13.886,13.886,0,0,1-1.461.076c-.187,0-.262-.094-.262-.319,0-1.7,0-3.666.056-5.35-.73,1.142-1.479,2.3-2.172,3.368-.075.13-.131.187-.206.187a.522.522,0,0,1-.225-.094A5.979,5.979,0,0,1,179.169,112a.285.285,0,0,1-.113-.206.488.488,0,0,1,.169-.318c1.555-1.983,2.529-3.311,3.671-4.92,0-.467,0-.822.019-1.271a17.7,17.7,0,0,0-2.248.747c-.169.075-.356.263-.543.263a.452.452,0,0,1-.375-.3,9.844,9.844,0,0,1-.73-1.721,8.508,8.508,0,0,0,1.367-.168c.637-.15,1.686-.412,2.641-.711Z"/><path class="cls-2" d="M205.838,107.806a33.34,33.34,0,0,1-3.858-.075c-.207,0-.281-.075-.3-.318a11.145,11.145,0,0,1-.112-1.59,26.556,26.556,0,0,0,4.214.15c-.019-.712-.019-1.441-.038-2.152a30.535,30.535,0,0,1-4.476-.094c-.206,0-.3-.074-.319-.261-.056-.468-.093-.917-.131-1.684a42.9,42.9,0,0,0,4.908.187c0-.692-.019-1.179-.038-1.815a5.34,5.34,0,0,0-.225-1.253,10.814,10.814,0,0,1,2.36.337.38.38,0,0,1,.206.561,2.4,2.4,0,0,0-.281.9c-.018.375-.018.637-.037,1.2a31.675,31.675,0,0,0,4.1-.561c.224-.056.3,0,.318.224a9.993,9.993,0,0,1,.094,1.366c0,.243-.057.28-.206.3a38.44,38.44,0,0,1-4.327.486c0,.748.019,1.44.019,2.114,1.424-.093,2.322-.281,3.671-.487.225-.055.281-.018.3.15.019.356.057.973.057,1.535,0,.186-.075.243-.281.261a33.88,33.88,0,0,1-3.671.449c.037.861.075,1.777.131,2.638a16.7,16.7,0,0,1,4.963,2.263c.188.169.188.225.131.449a5.61,5.61,0,0,1-.824,1.385.275.275,0,0,1-.243.149.286.286,0,0,1-.206-.093,14.85,14.85,0,0,0-3.727-2.132c-.019,2.019-1.237,2.843-3.8,2.843-2.435,0-3.82-1.067-3.82-2.619,0-1.515,1.479-2.657,3.746-2.657.468,0,.917,0,1.8.075C205.894,109.209,205.856,108.442,205.838,107.806Zm-1.611,3.778c-1.367,0-2.023.394-2.023.993,0,.486.562.841,1.854.841a2.314,2.314,0,0,0,1.705-.561,1.792,1.792,0,0,0,.206-1.047A8.021,8.021,0,0,0,204.227,111.584Z"/><path class="cls-2" d="M226.083,100.341a5.9,5.9,0,0,0-.224-1.365,18.946,18.946,0,0,1,2.191.262c.318.056.524.187.524.355a.785.785,0,0,1-.168.43,1.983,1.983,0,0,0-.15.543c-.019.243-.019.487-.038,1.2,2.023-.074,3.953-.094,5.751-.094.224,0,.262.038.28.281.019.468.019.955,0,1.422,0,.206-.093.262-.318.243-1.948-.056-3.765-.056-5.713-.037,0,1.141,0,2.338.019,3.48a5.794,5.794,0,0,1,.281,1.852,6.982,6.982,0,0,1-3.333,6.042,1.794,1.794,0,0,1-.731.356,1.065,1.065,0,0,1-.562-.281,4.188,4.188,0,0,0-1.423-.748,6.251,6.251,0,0,0,3.839-4.116,2.165,2.165,0,0,1-1.76.748,2.593,2.593,0,0,1-2.6-2.862,2.727,2.727,0,0,1,2.828-2.806,2.3,2.3,0,0,1,1.424.374c0-.654-.019-1.291-.019-1.908-2.36.131-5,.355-6.48.561-.413.056-.712.224-.881.224-.187,0-.262-.074-.318-.261a13.1,13.1,0,0,1-.469-1.889,12.361,12.361,0,0,0,2.286-.076c1.142-.093,3.558-.243,5.806-.374C226.1,101.314,226.1,100.847,226.083,100.341Zm-2.4,7.577a1.161,1.161,0,0,0,1.2,1.272,1.2,1.2,0,0,0,1.274-1.29,1.122,1.122,0,0,0-1.237-1.2A1.19,1.19,0,0,0,223.686,107.918Z"/><path class="cls-2" d="M242.47,113.306a2.716,2.716,0,1,1-2.716-2.693A2.7,2.7,0,0,1,242.47,113.306Zm-4.27,0a1.555,1.555,0,1,0,1.554-1.553A1.527,1.527,0,0,0,238.2,113.306Z"/></svg>