<svg id="レイヤー_1" data-name="レイヤー 1" xmlns="http://www.w3.org/2000/svg" viewBox="0 0 994 62"><defs><style>.cls-1{fill:#4c4345;}.cls-2{fill:#ff64a5;}</style></defs><path class="cls-1" d="M24,15.42H9.26a47.44,47.44,0,0,0-7.92.6L0,13.41c4.16.34,8.32.4,10.34.4h7.25l1.88-2.26c.33-.47.67-.81,1.07-.81a2.22,2.22,0,0,1,1.21.67l2.48,2.2c.34.27.81.74.81,1.14C25,15.35,24.43,15.42,24,15.42ZM20.74,24H12.08a41.68,41.68,0,0,0-7.92.6L2.82,21.89c4.63.4,9.46.47,10.34.47H15l1.81-2.07c.4-.47.74-.87,1.14-.87s.67.33,1.07.74l2.08,2c.47.4.61.66.61,1.06C21.75,23.83,21.21,24,20.74,24Zm0,8.67H12.22a47.56,47.56,0,0,0-7.92.61L3,30.57c4.64.4,9.4.46,10.34.46h1.48l1.81-1.93c.47-.47.74-.87,1.14-.87s.67.33,1.08.67l2.28,2c.27.27.67.6.67,1S21.14,32.63,20.74,32.63Zm-.47,10.48c-.06,1.74-.06,4.54.07,6.81,0,.67.27,5.67.27,6,0,1.13,0,3.27-3.09,3.27-1.88,0-1.81-1.27-1.75-4h-7c.2,2.94.13,3.47-.41,4.14a3.83,3.83,0,0,1-2.88,1.4C4.23,60.73,4,59.8,4,58.6c0-2.14.34-11.48.34-13.42a52.74,52.74,0,0,0-.54-7.67l5.37,2.67H15.3l2-2.07c.33-.34.54-.6.87-.6a2.15,2.15,0,0,1,1.14.53l2.42,1.8A1.76,1.76,0,0,1,22.42,41C22.42,41.64,21.48,42.31,20.27,43.11Zm1.21-36.5H13.22a45.49,45.49,0,0,0-7.92.6L4,4.54c4.3.33,8.46.47,10.34.47h1.47l1.62-2c.26-.33.67-.8,1.07-.8a2.68,2.68,0,0,1,1.14.6l2.22,2.07c.26.27.67.67.67,1C22.49,6.47,21.88,6.61,21.48,6.61ZM15.77,41.78h-7V53.59h7ZM60.15,55.53h-26a7.41,7.41,0,0,1,.13,1.66c0,1.74-.8,3.28-3.22,3.28-1.54,0-1.74-1.07-1.74-2s.33-11,.4-13.08c0-.73.34-21.22.07-27.16a52.53,52.53,0,0,1-8.6,11.21l-.4-.27c5.17-8.34,10-21.69,10.54-25.56a14.63,14.63,0,0,0,.2-3.6l6,3c.47.2.94.54.94,1.07s-.67,1.14-2.55,1.8A88.19,88.19,0,0,1,31.62,15l2.88,1.53H41c.94-2.67,3.42-11.94,3.42-13.81,0-.4-.07-2.14-.07-2.54l6.51,3.14c.27.13.88.47.88.93,0,.81-.54,1-2.69,1.67-.94,1.67-4.7,7.74-6.91,10.61h9l2.08-2.6c.34-.4.68-.8,1.08-.8a1.86,1.86,0,0,1,1.21.67l2.68,2.53c.34.34.74.67.74,1.07,0,.6-.6.74-1.07.74H45.24V29H50l2.15-2.53c.4-.47.67-.8,1.07-.8s.74.33,1.14.66l2.89,2.54c.4.4.67.6.67,1.07s-.54.67-1,.67H45.24V41h5l2.28-2.47c.41-.4.67-.8,1.14-.8a2.34,2.34,0,0,1,1.15.66l2.81,2.47c.21.2.68.6.68,1,0,.61-.61.74-1,.74h-12V53.92h7.32l2.55-3c.4-.47.6-.8,1-.8s.74.27,1.27.73l3.16,2.87c.4.4.6.67.6,1.07C61.15,55.39,60.62,55.53,60.15,55.53ZM41,18.09H34V29H41Zm0,12.48H34V41H41Zm0,12H34V53.92H41Z"/><path class="cls-1" d="M107.33,59.66c-4.22,0-8.92-1.4-11.68-4.73-1.94-2.41-2.28-6.21-2.28-8.35a35.16,35.16,0,0,1,.81-6.8C91,38.44,85.65,36.11,85.65,32c0-2.87,1.21-3.87,7.19-9,.73-.6.8-.94.8-1.27s-.2-.73-.74-1c-5.57-3-7.52-4.14-7.58-8.34,4.09,4.07,8.05,5,13,6.14A77.12,77.12,0,0,0,99.88,7.81c0-3.34-2.28-4.67-4.36-5.74a4.16,4.16,0,0,1,2.89-.94c3.22,0,7.65,3,7.65,5.41,0,.87-.27,1.4-1,3.2a51.94,51.94,0,0,0-3.42,9.68c1.68.87,2.48,2.14,2.48,3.07,0,1.8-1.81,1.74-3.69,1.67-.87,3.47-1,4.07-2.75,12.55a54.17,54.17,0,0,1,6.91.6c1.14.46,3,2,3,3.27s-1.68,1.47-3.7,1.47A21.55,21.55,0,0,1,97,40.78a31.74,31.74,0,0,0-.27,4.47c0,3.94.67,7,3.69,9A12.19,12.19,0,0,0,107,56.13c6.44,0,11-4,11-10,0-5.81-4.83-14.62-11.15-18.89l.27-.4c10.14,5,16.05,11.14,16.05,19.42C123.18,57.46,112,59.66,107.33,59.66ZM88.27,31.3c0,2.87,4.36,4.27,6.51,4.87C95.25,33.7,96,29.63,97.13,24,92.1,24.16,88.27,28.56,88.27,31.3Z"/><path class="cls-1" d="M178.56,53.92C176.74,56.06,174,58.2,172,58.2c-1.54,0-1.81-1.07-2-2.21-.47-2.8-.6-3.33-5-9.61l.2-.26c5.84,4,7.12,4.47,8.33,4.47a3,3,0,0,0,2.62-1.94A43.87,43.87,0,0,0,180.9,28.7c0-2.61,0-7.28-4.49-7.28a19.33,19.33,0,0,0-4.43.67,327,327,0,0,1-14,30c-.88,1.66-2.35,4.27-3.83,4.27S152,54.73,152,53.19a5.8,5.8,0,0,1,1.48-3.67c4.36-6.21,8-11.35,14.16-26.16a56.26,56.26,0,0,0-9.46,4.27,5.17,5.17,0,0,1-2.82,1.2c-2,0-5.57-2.8-5.57-6.14a5.49,5.49,0,0,1,.8-2.67c1.21,2.27,2.69,3.47,4.57,3.47,1.61,0,11.54-2.73,13.76-3.27,1-2.67,3-8.07,3-10.48,0-2.67-4-4.4-4.9-4.73a5.63,5.63,0,0,1,3.36-1.07C173.92,3.94,178,7,178,8.68a5.9,5.9,0,0,1-1,2.73c-1.48,2.67-2.62,5.07-3.89,7.94a16.26,16.26,0,0,1,3.62-.4c7.86,0,8.19,6.28,8.19,11.55C184.93,38.37,182.25,49.65,178.56,53.92Zm27.18-15.68c-.67,0-3.15-1.47-3.69-1.67-2.82-1.27-4.63-1.73-9.13-2.33V33.7c1-.06,8.39-.66,8.39-2.93,0-.67-3.09-7.28-12.55-13.08,6.85.26,18.66,8,18.66,17C207.42,35.24,207.42,38.24,205.74,38.24Zm-3.42-20.35c-.61,0-1.61-.87-3.22-2.21a23.59,23.59,0,0,0-8.39-5,13.28,13.28,0,0,1,2.68-.27c3.56,0,10.74,1.6,10.74,5.47A1.88,1.88,0,0,1,202.32,17.89Zm6.58-5.21c-.88,0-3.83-2.67-4.5-3.14a23.85,23.85,0,0,0-7.92-3.6,19.83,19.83,0,0,1,4.16-.47c1.21,0,9.67.27,9.67,5.34C210.31,11.68,210,12.68,208.9,12.68Z"/><path class="cls-2" d="M267.83,14.42a3.88,3.88,0,0,1-3.89-3.81c0-4.94,4.7-9,6.38-10.41l1.07,1c-1.81,1.34-3.15,3.07-3.15,4.41a1.23,1.23,0,0,0,.6,1.13c1.14.53,2.89,1.34,2.89,3.8A3.89,3.89,0,0,1,267.83,14.42Zm10.21,0a3.88,3.88,0,0,1-3.9-3.81c0-4.94,4.7-9,6.38-10.41l1.07,1c-1.81,1.34-3.15,3.07-3.15,4.41a1.23,1.23,0,0,0,.6,1.13c1.14.53,2.89,1.34,2.89,3.8A3.89,3.89,0,0,1,278,14.42Z"/><path class="cls-2" d="M352.21,19.09c-2.21,0-5.77-.8-8-1-2.48-.2-4.63-.27-6.31-.27-2.82,0-6,.2-8.05.33-.07,2.07-.07,3.61-.07,5.34s.07,2.94.13,4.14a19.62,19.62,0,0,1,2.89,10.54c0,10.08-6.51,19.49-18.86,23.83l-.27-.47c7.52-4.67,12.69-11.88,13.63-19-1.41,1.14-2.76,2.2-4.43,2.2-3.36,0-7.59-4.4-7.59-10.14,0-4.87,3.22-9.68,7.85-9.68a11.91,11.91,0,0,1,3.9.8c0-.33-.14-4.8-.14-7.2C322.81,19,311.6,20.42,305,24c-1.95,1-2.15,1.13-2.75,1.13-2.28,0-5.51-4.13-5.51-6.87a3.64,3.64,0,0,1,.54-1.87c1.34,1.8,2.75,3.14,4.9,3.14.74,0,6-.94,9.06-1.4,6.31-1.07,11.28-1.81,15.58-2.21-.47-10.67-.47-10.87-6-12.94a6.19,6.19,0,0,1,3.89-1.54c1.74,0,6.78,1.8,6.78,3.94,0,.2-.47,2.13-.61,2.6a62.23,62.23,0,0,0-.87,7.61l18.86-1.67c2.29,0,5.51,1.54,5.51,3.41C354.36,18.75,353,19.09,352.21,19.09Zm-30.07,8.74c-1.88,0-4.5,2.27-4.5,6.07s2.95,6.88,5.44,6.88c2.21,0,4-2.41,4-6.28C327.11,32.9,326.84,27.83,322.14,27.83Z"/><path class="cls-2" d="M408.4,61c-1.55,0-2.22-1.27-4.1-4.54-3.89-6.87-7.65-10.41-17-19.35-.54-.54-3.9-3.74-3.9-5.94,0-1.27.34-2.61,4-6.28S403,8.81,403,6c0-1.94-2.41-3.94-3.22-4.54a3.19,3.19,0,0,1,1.08-.2c4.23,0,7.92,3.53,7.92,6.81,0,1.33-.4,1.66-3.76,4.47-2.42,1.93-6,5.47-8.26,7.54A74.42,74.42,0,0,0,387.92,29a4.13,4.13,0,0,0-.74,2.07c0,.54,0,1.81,3.16,4.47,2.41,2.07,16.78,14.29,19.46,18.56a5.72,5.72,0,0,1,.88,3.27C410.68,59.86,409.4,61,408.4,61Zm11.67-42.38c-1.2,0-1.4-.53-2.21-2.54a27.23,27.23,0,0,0-5.3-8.41c1,.27,3.35.94,7.25,4.08a5,5,0,0,1,2.28,4.33C422.09,17.49,421.28,18.62,420.07,18.62Zm7.59-2.94c-1,0-1.21-.33-2.75-3.53a23.92,23.92,0,0,0-5.71-7.08c2.69.4,5.24,1.74,8.33,4.21a4.88,4.88,0,0,1,1.88,4.07C429.41,14.88,428.6,15.68,427.66,15.68Z"/><path class="cls-2" d="M460.82,37.77c-.81,3.34-2.35,9.75-2.35,12.75,0,.74.34,3.94.34,4.61,0,1.13-.14,2.47-1.75,2.47-2.75,0-7.11-6.14-7.11-19.69,0-4.81,1.47-13.82,2.61-20.69a29.55,29.55,0,0,0,.41-4.47,9,9,0,0,0-2.29-6.48A2.79,2.79,0,0,1,451.89,6c2.42,0,6.78,3.73,6.78,6.34a8.79,8.79,0,0,1-.87,3.13c-2.62,6.68-4.7,13.68-4.7,21,0,4.6,1.14,9.74,2.22,9.74.4,0,.73-.8.87-1.27.74-2.26,3.56-10,6-15.14l.54.13C462.3,31.77,461.36,35.64,460.82,37.77Zm32.29,14c-1.61,0-10.61-.07-16.45-1.87a9.77,9.77,0,0,1-6.78-9.08,5.2,5.2,0,0,1,.67-2.8C472.1,43.11,473.31,47,486,47c1.35,0,7.86-.53,8.53-.53,2.35,0,5.17,1,5.17,2.87C499.69,51.46,497.34,51.79,493.11,51.79Zm-.54-35.31c-6.51,1.14-10.74,3.34-12.95,4.94l-.41-.4c1-.93,5.91-5.4,6.11-5.6a.62.62,0,0,0,.2-.54c0-.73-2.08-.73-2.48-.73-2.69,0-7.12,1.07-12.22,3,3.63-4.8,10.41-6.54,16.65-6.54,4.16,0,8.93,1.2,8.93,3.54C496.4,15.68,495,16.08,492.57,16.48Z"/><path class="cls-2" d="M518.82,14.42l-1.08-1.07c1.82-1.34,3.16-3.07,3.16-4.41a1.24,1.24,0,0,0-.61-1.13c-1.14-.54-2.88-1.2-2.88-3.81A3.88,3.88,0,0,1,521.3.13,3.93,3.93,0,0,1,525.19,4C525.19,8.94,520.5,13,518.82,14.42Zm10.2,0L528,13.35c1.81-1.34,3.15-3.07,3.15-4.41a1.23,1.23,0,0,0-.6-1.13c-1.14-.54-2.89-1.2-2.89-3.81A3.89,3.89,0,0,1,531.5.13,3.94,3.94,0,0,1,535.4,4C535.4,8.94,530.7,13,529,14.42Z"/><path class="cls-1" d="M644.81,55.79c-12.28-6.87-21.07-20.55-23.09-34.63-1.88,1.33-3.69,2.53-6.24,4.07a29.39,29.39,0,0,1,10.14,22.69c0,10.94-5.11,12.88-11.08,13.41-.47-4.14-4.36-6-5.71-6.67l.27-.54a23.9,23.9,0,0,0,6.45,1.07c2.75,0,5.77-.93,5.77-9.47a30.57,30.57,0,0,0-.47-5.48C606.48,54.12,595.54,57.13,591,58.33l-.07-.47c8.86-3.74,23.36-16.42,28.66-23a26,26,0,0,0-1.34-3.21,62.37,62.37,0,0,1-28.39,14.62v-.47C598.7,42.25,610.38,33.44,616,27.7c-.74-1.07-1-1.34-1.41-1.94-5.3,3.07-16.11,8.14-24.37,8.34v-.4c8.12-2.53,20.68-9.87,26.05-14.41h-5.1a46.32,46.32,0,0,0-7.86.6l-1.34-2.67c4.16.33,8.26.47,10.27.47h16.18l2.48-3c.34-.4.67-.87,1.07-.87a2.13,2.13,0,0,1,1.21.74l3.43,3c.47.4.67.6.67,1,0,.6-.54.74-1,.74H624.07c-.47.4-.87.73-1.41,1.13A39,39,0,0,0,628,33.37c4.1-3.34,9.2-7.81,10-11.41l5.37,3.8c.47.33,1,.87,1,1.34,0,.86-.33.86-3.29,1-7.51,3.93-8.92,4.67-12.68,5.87,6.91,10.54,15.91,15.68,23.29,17.42V52A9.7,9.7,0,0,0,644.81,55.79Zm3-42.18a13.32,13.32,0,0,1-2.48-.2c-3.42,2.07-3.83,2.27-6.18,3.94l-.47-.13a48.5,48.5,0,0,0,2.62-7.34H600.44c.07,4.54-2.08,8.74-5.3,8.74a2.55,2.55,0,0,1-2.75-2.47c0-1.73.87-2.27,3.09-3.87a9,9,0,0,0,3.89-6.21l.4-.06a13.19,13.19,0,0,1,.54,2.27h18.46c-.07-5.74-.61-6.95-1.14-8.15l6.44,1.34c.54.13,1.34.2,1.34.87s-.8,1.2-2.14,2.13c-.07.6-.14,3.27-.14,3.81h17.39l1.94-1.54c.41-.33.88-.73,1.14-.73a2.84,2.84,0,0,1,1.42.8l4.09,3.87a2.43,2.43,0,0,1,.74,1.67C649.85,13.61,648.1,13.61,647.83,13.61Z"/><path class="cls-1" d="M716.5,28.83a95.11,95.11,0,0,0-18.86,6.27,45.33,45.33,0,0,1,.67,7.88c0,1.4,0,5.81-2.41,5.81s-2.49-3.81-2.49-4.94,0-5.54-.07-6.54c-4.49,2.8-9.59,7.67-9.59,11.28,0,5.07,8.79,5.07,10.74,5.07a60.72,60.72,0,0,0,10.27-1.14,13.42,13.42,0,0,1,2.35-.26c2.88,0,4,1.73,4,2.93s-1.21,1.94-2.08,2.14a88.54,88.54,0,0,1-10.27.67C695.09,58,681,58,681,49.72c0-6.27,8.26-12.35,12.09-14.88-.61-3.54-1.55-6.88-5.78-6.88s-7.31,4-8.39,5.74c-3,4.67-3.29,4.74-4.43,4.74-1.61,0-1.94-1.13-1.94-2.73,0-2.41.73-3,1.47-3.68,4.77-4.07,8.19-9.47,11.48-14.88a35.67,35.67,0,0,1-6,.67c-4.57,0-6.78-2.47-6.65-5.94,2.08,1.93,4,2.47,6.91,2.47a52.72,52.72,0,0,0,7.79-.8c.94-1.54,3.69-6.48,3.69-7.61,0-.93-1.47-2.34-4.56-2.74a5.11,5.11,0,0,1,4.09-1.6c3.29,0,6.11,2.47,6.11,3.87a4,4,0,0,1-1.07,2.34,42,42,0,0,0-3.49,4.67c1.47-.4,7.92-3.07,9.33-3.07,1.61,0,3.56.93,3.56,2.27a1.87,1.87,0,0,1-1.41,1.67c-3.09,1.33-10.48,2.53-14.3,3.13-6,8.68-6.65,9.61-7.52,11.22a14.47,14.47,0,0,1,6.85-1.81c6.17,0,7.45,4,8.19,6.48,4.56-2.67,11.14-5.81,13.09-6.74,1.2-.6,1.67-1.07,1.67-1.94s-.53-1.27-2.08-2.4a4.3,4.3,0,0,1,1.41-.2c2.42,0,7.66,1.93,7.66,5.67C718.79,28.3,717.91,28.56,716.5,28.83Z"/><path class="cls-1" d="M762.82,16.35h-8.93L754,29.9c1.48-.54,7.92-2.6,9.26-3.07l.14.4A86.62,86.62,0,0,1,754,33.1c.07,2.4.33,19.49.33,19.82,0,3.61-.67,6.41-7.25,7.95-.4-1.67-1.07-4.08-6.31-6.34v-.47c1,0,5.37.27,6.31.27,2.49,0,2.76-.61,2.76-5.08,0-2.2-.14-11.88-.14-13.88-1,.54-5.23,2.6-6.11,3-.6,2.07-.87,2.61-1.61,2.61s-1.07-.67-1.34-1.2l-3-6.08c2.68.07,3.82.14,12-2.4l-.07-14.95h-1.08a48.54,48.54,0,0,0-7.92.6l-1.34-2.67c1.95.2,4.43.4,10.41.47C749.8,4.2,749.19,3,748.19,1l6.91,1.74c.67.2,1.14.4,1.14,1s-.8,1.2-2.28,2v4.87c0,.6-.07,3.54-.07,4.14h2.28L758,12.28c.47-.6.73-.87,1.07-.87s.74.27,1.21.67l3,2.54a1.33,1.33,0,0,1,.61,1C763.83,16.28,763.29,16.35,762.82,16.35Zm36.31,8.28H767.05a46.32,46.32,0,0,0-7.86.6l-1.34-2.61c4.57.34,9.33.4,10.27.4h8V12.61h-3a47.38,47.38,0,0,0-7.86.6L764,10.54c4.23.34,8.46.47,10.27.47h1.88C776,4,775.3,2.27,774.5.4l7.32,1.87c.73.2,1.2.67,1.2,1.07s0,.66-2.41,2.13V11h6.58l2.75-3.4c.54-.67.67-.87,1.07-.87s.67.2,1.21.73l3.69,3.41c.4.33.67.6.67,1,0,.6-.6.73-1,.73h-15V23h10.07l2.55-3.33c.4-.54.67-.87,1.07-.87s.67.2,1.21.67l4,3.47c.33.26.67.53.67,1S799.6,24.63,799.13,24.63Zm.14,12.61H787.05c.07,2.4.27,13.21.27,15.42,0,3.2,0,7.27-7.65,8.61-.74-2.54-1.21-4-5.91-6.68v-.4c.94.07,5.1.34,6,.34,2.68,0,3-.54,3-2.74,0-4.07-.07-10.61-.14-14.55h-14.3a41.74,41.74,0,0,0-7.92.6l-1.34-2.67c4.23.33,8.39.47,10.34.47h13.22a47.5,47.5,0,0,0-1-9.88l6.31,1.4c.47.14,1.08.6,1.08,1.07s-.54.93-1.88,1.8c-.07,2.2-.07,3.67-.07,5.61h4.36l2.49-3.14c.47-.6.74-.8,1.07-.8s.67.2,1.14.67l3.49,3.07c.54.47.68.73.68,1.07C800.28,37.11,799.74,37.24,799.27,37.24Zm-26,12.95c-1.21,0-2.35-.54-3.15-3a19.18,19.18,0,0,0-3.76-7.47l.2-.4c4.23,1,9.46,4.27,9.46,8A2.78,2.78,0,0,1,773.29,50.19Z"/><path class="cls-1" d="M866.26,13.35c-9.2,0-10.2,0-13.09.93C845.25,17,838,26.56,838,36c0,11.41,12.28,13.75,17.12,14.68,2.14.4,4.63,1.41,4.63,3.94,0,2-2.08,2-2.55,2-3.9,0-22.49-3.6-22.49-19.55,0-10.34,6.91-17.49,14.57-23.49-3.9-.14-17.52,4.54-24.17,7.54-2.88,1.27-3,1.33-3.62,1.33-1.48,0-4.9-2.13-4.9-6a6.5,6.5,0,0,1,1.07-3.54c1.07,2.27,2.48,3.74,5.24,3.74a19.23,19.23,0,0,0,2.88-.4c15.17-3.61,16.85-4,23.5-5.41,3.89-.87,8.66-1.8,11.54-2.67a10.26,10.26,0,0,1,2.76-.47c3.89,0,5.5,3,5.5,3.68C869.08,13.35,867.2,13.35,866.26,13.35Z"/><path class="cls-1" d="M918.75,56.86c-6.44,0-13.09-2.6-13.09-7.81,0-4.6,4.63-5.8,7.39-5.8,5,0,8.79,3.47,10.54,9,5.37-.94,9.12-6.68,9.12-11.75,0-5.27-4.09-9.94-10.94-9.94C908.68,30.57,900,43.18,899,44.71c-1.68,2.67-2.29,3.68-3.7,3.68-.8,0-2.28-.47-2.28-2.81s.54-2.73,4.57-6.6c5.37-5.28,21.88-26.57,21.88-29.1,0-.4-.2-.67-.74-.67-.87,0-6,1.67-9.6,3.6-.13.07-2.75,1.47-2.95,1.47A6.54,6.54,0,0,1,900.76,8a2.94,2.94,0,0,1,.74-2.2c1.54,2.53,2.75,3.13,4.63,3.13,3.22,0,10.34-2,12.35-2.67.47-.13,2.69-.86,3-.86,2.56,0,4.9,3.2,4.9,4.6,0,1.07,0,1.14-2.41,2.94-1.75,1.33-14.64,16-17.32,20.35,4-2.27,9.13-4.74,16.11-4.74,10.81,0,15,6.41,15,12.48C937.82,48.72,931.1,56.86,918.75,56.86Zm-7.31-10.94c-1.35,0-3.23.86-3.23,2.8,0,3.47,6.92,5,8.86,5a6.32,6.32,0,0,0,2.35-.4C918,48.39,913.65,45.92,911.44,45.92Z"/><path class="cls-1" d="M994,54a3.63,3.63,0,0,1-7.25,0A3.63,3.63,0,0,1,994,54Zm-4.83-7.47A252.37,252.37,0,0,0,988,18.75c-.21-1.4-1.15-8.41-1.15-8.81a3.5,3.5,0,1,1,7,0c0,1.21-1,7.08-1.14,8.41-1.15,9-1.15,19.36-1.15,28.17Z"/></svg>