<svg id="レイヤー_1" data-name="レイヤー 1" xmlns="http://www.w3.org/2000/svg" viewBox="0 0 723.6 41.6"><defs><style>.cls-1{fill:#4c4345;stroke:#4c4345;}.cls-1,.cls-2{stroke-linecap:round;stroke-linejoin:round;stroke-width:0.6px;}.cls-2{fill:#ff64a5;stroke:#ff64a5;}</style></defs><path class="cls-1" d="M6.08,30H.3V6.45H11.73v5.83H6.08Zm3.86-19.5V8.26H2.12V28.15H4.26V10.46Z"/><path class="cls-1" d="M37.13,27.92c-.23,3,1.92,4.34,4.94,4.34A25.85,25.85,0,0,0,45,32v2.23a25.54,25.54,0,0,1-2.88.26c-4.45,0-7.63-2.2-7.31-6.77.2-2.82,2.6-5.34,5.13-7.71h-12V18.11h5.56L41,10.79h-8.6v-2H44.82v1.49l-8.11,7.87H49.27v1.94H43C39.83,23,37.33,25.4,37.13,27.92Z"/><path class="cls-1" d="M69.71,34,67.5,32.81C71.63,25.3,72.83,23.19,73,15H68.22V12.8H73V7.32h2.53V12.8h5.29V15H75.46C75.33,23.87,73.83,26.43,69.71,34Zm9.15-5.57v-1.2H81.3v1.2c0,2.46,3,2.62,5.77,2.62h3.22v2.3H87.14C82.79,33.3,78.86,32.59,78.86,28.38Zm10.91-9.69v2.17h-10V18.69ZM85.29,15H83.38V10h1.91Zm4,0H87.4V10h1.91Z"/><path class="cls-1" d="M130.91,21.7c-.13,3.05-1.81,5.7-4.86,7.62-2.63,1.61-5.55,2.42-10.58,2.42V29.32c6.42,0,12.65-2.43,12.88-7.71.16-4.38-2.95-5.8-7.4-5.8H109.2V13.35H121C127.38,13.35,131.11,16.23,130.91,21.7Z"/><path class="cls-1" d="M146.84,29.64h5.65V12h5.78V35.47H146.84Zm9.61,4V13.77h-2.14V31.45h-5.68v2.21Z"/><path class="cls-1" d="M195.42,31.45l-1.88,1.46c-2.73-3.4-2.56-4.44-2.56-7.32V10.24h2.33V25.43C193.31,28.25,193.15,28.57,195.42,31.45Zm13.76-2.62c-.16,3.17-1.85,4.47-4.64,4.47a7.53,7.53,0,0,1-2.92-.58c-1.78-.78-3.21-2.56-2.5-4.67s3.18-2.69,5-2.69a15.84,15.84,0,0,1,2.66.26V16h-8.5V13.8h8.5v-6h2.41v6h4.7V16h-4.7V26.5A31.89,31.89,0,0,1,215,30l-1.33,1.81C211.1,30,210.16,29.44,209.18,28.83Zm-4.87-1.23c-1,0-2.2.06-2.82,1s.46,2,1.43,2.3a5.88,5.88,0,0,0,1.62.26c2.08,0,2.27-.91,2.27-2.82v-.45A11.6,11.6,0,0,0,204.31,27.6Z"/><path class="cls-1" d="M236.47,13.9h-4V11.63h4.77c.48-1.75.91-3.37,1.17-4.24l2.33.55c-.19.65-.55,2-1,3.69H244V13.9h-5a81.48,81.48,0,0,1-6.29,15.22l-2.15-1.2A75.66,75.66,0,0,0,236.47,13.9ZM249,23.26v4a37.31,37.31,0,0,1,6.13,3.14l-1.16,2a44.53,44.53,0,0,0-5-2.72c0,3.24-1.69,4.67-4.7,4.67s-6.76-2.08-5.59-5.41c.52-1.43,2-2.4,4.32-2.66a9.72,9.72,0,0,1,3.67.26v-3.4a6,6,0,0,1,1.49-4.53c-3.41,0-4.15.32-6.1,1.55l-1.2-1.75a9.69,9.69,0,0,1,5.77-1.71l7.31.12v1.88h-2.21C250.13,18.72,249,20.15,249,23.26Zm-4.87,5.12a6.74,6.74,0,0,0-2,.32,1.63,1.63,0,0,0-1.27,1.46c0,1.71,2.92,2,3.54,2,2,0,2.47-1,2.47-2.79V28.8A10.07,10.07,0,0,0,244.16,28.38Z"/><path class="cls-1" d="M287.48,26.63l-1.94-1.46c2.4-3,2.11-3.08,2.11-7.19h-8.31v8.65a4,4,0,0,0,3.44,4.21c2.69.48,5.65.13,9.67-.59v2.21l0,0a24.24,24.24,0,0,1-10.1.58,6.27,6.27,0,0,1-5.45-6.44V18H271V15.81h5.84V8.75h2.47v7.06h8.31V8.75h2.43v7.06h5.84V18h-5.84C290.08,22.29,290.31,23.06,287.48,26.63Zm6.4-12.93H292V8.75h1.85Zm4,0H296v-5h1.85Z"/><path class="cls-1" d="M309.81,28.93l2.07-1.79a37.4,37.4,0,0,1,5.49,6.26l-2.27,1.94A32.69,32.69,0,0,0,309.81,28.93Z"/><path class="cls-2" d="M356.06,30.7l2.48,1.35a31,31,0,0,1-4.32,9.25L352,39A27,27,0,0,0,356.06,30.7Zm8.41-28.06v27.8H353.86V2.64Zm-8,2.74V10.9h5.22V5.38Zm0,8.12V19h5.22V13.5Zm0,8.09v6.06h5.22V21.59Zm3.37,10.46,2.39-1.21a42.84,42.84,0,0,1,3.65,7.45l-2.48,1.62h-.09A46,46,0,0,0,359.88,32.05Zm31.37-1.66v2.47h-3V37c0,2.29-1.26,3.32-3.51,3.32a36.6,36.6,0,0,1-4.46-.23L379.86,37a19.46,19.46,0,0,0,4.5.5,1,1,0,0,0,1.13-1.13v-3.5H371.67v7.86h-2.79V32.86h-3.24V30.39h3.24V20H377V17.64H365.87V15.17h7V12.11h-5.08V9.82h5.08V6.9h-6.38V4.52h6.38V.3h2.84V4.52h5.53V.3h2.84V4.52h6.16V6.9h-6.16V9.82h5v2.29h-5v3.06h7v2.47h-11.2V20h8.46V30.39Zm-14.18-8h-5.4v2.88h5.4Zm0,5.17h-5.4v2.87h5.4ZM381.21,6.9h-5.53V9.82h5.53Zm0,5.21h-5.53v3.06h5.53Zm-1.48,10.24v2.88h5.76V22.35Zm0,5.17v2.87h5.76V27.52Z"/><path class="cls-2" d="M429,16.65c-1.76,9.65-6.17,18.41-15.3,23.3l-2.34-3c11.7-5.66,15.34-19.18,15.79-31.3h-9.49V2.59h13c0,7,.41,14.28,3.69,20.66A31,31,0,0,0,446.1,35.64L443.76,39h-.09A35.21,35.21,0,0,1,429,16.65Z"/><path class="cls-2" d="M484.13,38.79c-5,0-9.18-3.1-9.18-9.48V3.49h3.56V29.31c0,3.68,1.66,6.24,5.48,6.24,3.56,0,8.55-2,14.13-9.34l2.43,2.2C495.24,35.55,489.57,38.79,484.13,38.79Z"/><path class="cls-2" d="M548.16,11.48c3.47,0,6,.81,7.79,2.52a7.68,7.68,0,0,1-.63,11.63,8.69,8.69,0,0,1-4.91,1.75c-2.47.09-4-.13-8-2.56l1.8-2.74c2.88,1.8,3.91,2.11,5.62,2.11a5.74,5.74,0,0,0,3.38-1.07,4.71,4.71,0,0,0,.36-6.88c-1.17-1.07-3-1.61-5.72-1.61-1.75,0-2.38.09-12.1,1.08l1.48,22.81h-3.55l-1.35-22.37-6.39.68v-3l6.21-.72-.68-11h3.42l.63,10.55C539.16,12.29,545.73,11.48,548.16,11.48Zm5-6.6V8.07c-6.39,0-9-.81-14-4.08l1.84-2.79C545.78,4.34,547.76,4.88,553.2,4.88Z"/><path class="cls-2" d="M604.46,10.77V24.33c.18,8.08-.05,9.25-6.89,16.12l-2.47-2.16c4.95-4.8,5.8-5.92,6.21-9.16a4.34,4.34,0,0,1-3.6,1.13c-4.05-.23-6.62-3.55-6.26-8,.36-4.18,3.11-7,6.84-6.92a4.09,4.09,0,0,1,2.79.81V10.77h-19.3v-3h19.3V2.05h3.38V7.76H614.9v3Zm-9.77,11.81c-.18,1.93.54,4.49,3.11,4.58s3.51-2,3.64-4c.18-2.43-.94-4.63-3.33-4.63S594.83,20.65,594.69,22.58Z"/><path class="cls-2" d="M640.77,23.12V7.89h3.6V23.12c0,7.63.9,7.94,6.17,11.54l-2,2.83C641.76,32.86,640.77,31.29,640.77,23.12Zm22-10.69,2.83-2c5.36,6.1,5.67,8.08,5.67,14.82v5.21h-3.6V25.23C667.68,18.49,667.41,17.68,662.78,12.43Z"/><path class="cls-2" d="M712.46,1.61c5.76,0,10.84,3.27,10.84,9.47,0,3.82-2.2,6.47-5.22,8.53A10,10,0,0,0,714,24.37a14.52,14.52,0,0,0-.54,4.58h-3.87a15.15,15.15,0,0,1,1.31-6.78,17.49,17.49,0,0,1,5.26-5.3,6.69,6.69,0,0,0,3.24-5.79c0-4.22-3.24-6-7-6-5,0-7.56,3.55-7.74,8.36h-4C701.12,6.5,705.17,1.61,712.46,1.61ZM709,33h5v5.21h-5Z"/></svg>