<svg id="レイヤー_1" data-name="レイヤー 1" xmlns="http://www.w3.org/2000/svg" viewBox="0 0 392.52 69.85"><defs><style>.cls-1{fill:#4c4345;stroke:#4c4345;stroke-width:0.7px;}.cls-1,.cls-2{stroke-linecap:round;stroke-linejoin:round;}.cls-2,.cls-4{fill:none;}.cls-2{stroke:#ff64a5;stroke-width:5px;stroke-dasharray:0 14.71;}.cls-3{fill:#ff64a5;}.cls-4{stroke:#fff;stroke-miterlimit:10;stroke-width:3.85px;}</style></defs><path class="cls-1" d="M97.64,16.62l1,2.07a58.25,58.25,0,0,1-8.56,5.76L88.47,22h0A41.8,41.8,0,0,0,97.64,16.62ZM99,37.2l2.1,1.62a40.05,40.05,0,0,1-10.4,4.77l-1.84-2.33h0A38.38,38.38,0,0,0,99,37.2Zm-8.38-25,1.62-1.77A30.44,30.44,0,0,1,97.6,14l-1.73,2H95.8A28.87,28.87,0,0,0,90.61,12.22Zm15.78,2h-3.16a18.09,18.09,0,0,1-2.85,3.61l-1.92-1.39a17.62,17.62,0,0,0,4.44-7.3l2.36.49a19.2,19.2,0,0,1-.82,2.11l-.19.41h13.26l1.28,1.13a22.89,22.89,0,0,1-4.51,5l-2-1.4a14.42,14.42,0,0,0,2.85-2.67h-6.42c.6,4.55,6.42,6.59,10.22,7.38l-1.39,2.25c-3.65-1-8.19-2.78-9.88-6.39-1.32,3.12-4.4,4.93-7.52,5.87h14.88V37.12h-6.84a86.6,86.6,0,0,1,10.63,3.8l-2.1,2.3a70.23,70.23,0,0,0-10.52-4.37L108,37.12H93.13V23.36h5.52l-1.16-1.58C101.66,21,106,19,106.39,14.25Zm-10.78,11v2h16.94v-2Zm16.94,5.8V29H95.61v2Zm0,4.06V32.84H95.61v2.29Z"/><path class="cls-1" d="M165.61,20.42h8.68v2.26H148.67v4c0,6-.19,11.63-3.91,16.86l-1.95-2c2.93-4.21,3.27-9.44,3.27-14.44V20.42h8c-.45-1.54-1-3.23-1.61-4.7H145V13.54h13.22V9.25H161v4.29h12.66v2.18h-6.24C167,17.26,166.25,19,165.61,20.42ZM162.87,28h9.77v2.11h-9.77v3.76h8.64V36h-8.64V40h11.65V42.2H148.63V40h11.65V36h-7.89V33.85h7.89V30.09h-6.2a19.59,19.59,0,0,1-2.93,4.59l-1.73-2a21.85,21.85,0,0,0,4.06-8.32l2.4.72A30.42,30.42,0,0,1,155,28h5.3V23.92h2.59Zm-6.12-7.56H163a43.06,43.06,0,0,0,1.66-4.7h-9.51A40.09,40.09,0,0,1,156.75,20.42Z"/><path class="cls-1" d="M204.57,25h-4.75V22.86h4.78V16H207v6.89h2.11c2,0,4.87.4,6,3.79a16.87,16.87,0,0,1,.52,5.28,17.2,17.2,0,0,1-.52,5.22c-1.15,3.51-3.85,3.76-7.11,3.76V38.7c3.85,0,4.35-.87,4.81-2.36a13.5,13.5,0,0,0,.43-4.41,13.87,13.87,0,0,0-.43-4.53c-.43-1.4-1.27-2.43-3.69-2.43h-2.14c-.19,6.46-1.15,8.11-4.93,15.53l-2.08-1C203.73,32,204.45,30.78,204.57,25Zm13.77-4.16h-1.76V16.12h1.76Zm-1.08,3,1.64-1.49c3.63,2.7,4,4.69,4,11.84h-2.3C220.64,27,220.05,26.18,217.26,23.79Zm4.84-2.95h-1.77V16.15h1.77Z"/><path class="cls-1" d="M263.42,32.21c-.35,4.71,3,6.71,7.61,6.71a36.9,36.9,0,0,0,4.45-.35V42a39.73,39.73,0,0,1-4.45.41c-6.86,0-11.76-3.41-11.26-10.47.3-4.36,4-8.27,7.91-11.92H249.22V17h8.55L269.33,5.71H256.07V2.55h19.21V4.86L262.77,17h19.36v3h-9.6C267.58,24.64,263.72,28.3,263.42,32.21Z"/><path class="cls-1" d="M305.64,41.52l-3.4-1.75c6.36-11.62,8.21-14.88,8.41-27.6h-7.31V8.82h7.31V.35h3.9V8.82h8.15v3.35h-8.2C314.3,26,312,29.9,305.64,41.52Zm14.11-8.61V31.05h3.75v1.86c0,3.81,4.56,4.06,8.91,4.06h4.95v3.55h-4.85C325.8,40.52,319.75,39.42,319.75,32.91Zm16.81-15v3.36H321.15V17.93Zm-6.9-5.71h-3V4.46h3Zm6.2,0h-2.95V4.51h2.95Z"/><path class="cls-1" d="M392,22.59c-.2,4.71-2.8,8.82-7.51,11.77-4.05,2.51-8.55,3.76-16.3,3.76V34.36c9.9,0,19.51-3.76,19.86-11.92.25-6.76-4.56-9-11.41-9H358.52V9.67h18.11C386.54,9.67,392.29,14.12,392,22.59Z"/><line class="cls-2" x1="95.28" y1="67.35" x2="390.02" y2="67.35"/><polygon class="cls-3" points="58.25 52.71 5.38 52.71 5.38 9.11 27.64 9.11 27.64 30.42 35.99 30.42 35.99 9.45 58.25 9.45 58.25 52.71"/><rect class="cls-3" x="16.81" y="18.88" width="30.35" height="40.09"/><rect class="cls-3" y="15.59" width="63.97" height="30.64"/><rect class="cls-3" x="23.89" y="42.01" width="16.19" height="23.35"/><line class="cls-4" x1="31.88" y1="19.39" x2="31.88" y2="23.38"/><line class="cls-4" x1="16.52" y1="23.95" x2="47.07" y2="23.95"/><polyline class="cls-4" points="24.3 24.33 24.3 30.56 40.62 30.56"/><line class="cls-4" x1="40.56" y1="27.09" x2="40.56" y2="33.5"/><polyline class="cls-4" points="24.3 51.88 24.3 36.49 40.62 36.49 40.62 51.88"/><line class="cls-4" x1="24.3" y1="41.62" x2="40.43" y2="41.62"/><line class="cls-4" x1="24.3" y1="46.7" x2="40.43" y2="46.7"/></svg>