<svg id="レイヤー_1" data-name="レイヤー 1" xmlns="http://www.w3.org/2000/svg" viewBox="0 0 438.35 68.85"><defs><style>.cls-1{fill:#4c4345;stroke:#4c4345;stroke-width:0.7px;}.cls-1,.cls-2{stroke-linecap:round;stroke-linejoin:round;}.cls-2,.cls-4{fill:none;}.cls-2{stroke:#ff64a5;stroke-width:5px;stroke-dasharray:0 14.71;}.cls-3{fill:#ff64a5;}.cls-4{stroke:#fff;stroke-miterlimit:10;stroke-width:3.85px;}</style></defs><path class="cls-1" d="M103.56,27.46h19.23v2.1h-8.11a34.31,34.31,0,0,0,8.79,4.35l-1.39,2.25a30.17,30.17,0,0,1-5.37-2.66v9.44h-2.52V41.63H99.46v1.31H97V33.8a37.08,37.08,0,0,1-5.15,3l-1.43-2a32,32,0,0,0,8.42-5.25H90.9v-2.1h9.88a13.19,13.19,0,0,0,1.35-1.8H95.52V16h4.62V14H91.76v-2.1h8.38V9.22h2.56v2.69h8V9.22h2.56v2.69h8.6V14h-8.6v2h4.84v9.63H104.84Zm12-9.55H98.08v2h17.5Zm-17.5,3.75v2.09h17.5V21.66ZM114.19,33.5H99.46v2h14.73Zm0,3.89H99.46v2.14h14.73Zm-2.59-7.83h-9.81a24.67,24.67,0,0,1-2.06,2h14.16C113.18,31,112.27,30.24,111.6,29.56ZM110.73,16V14h-8v2Z"/><path class="cls-1" d="M152.59,29.11a17.81,17.81,0,0,1,8.79-2.43c4.28.11,7.66,1.12,8.75,4.53s-.75,7.08-4.47,8.69a18.37,18.37,0,0,1-11.49.64l.11-2.47a16.92,16.92,0,0,0,10.22-.6c2-.83,3.64-3,2.85-5.36-.79-2.59-4.32-2.81-6.23-2.77-2.74.07-5.37.41-9.84,3l-2.67-1.12,0-.08a22.31,22.31,0,0,0,2.21-7.08,44,44,0,0,0,.38-7.08h2.89C154.13,22.67,153.68,25.74,152.59,29.11Zm6.65-13.67a26.76,26.76,0,0,1-7.51-2.67L153,10.26a25.07,25.07,0,0,0,6.58,2.51,41.32,41.32,0,0,0,7,.34v2.66A48.43,48.43,0,0,1,159.24,15.44Z"/><path class="cls-1" d="M209.66,41.33c-4.21,0-7.66-2.59-7.66-7.91V11.88h3V33.42c0,3.07,1.39,5.21,4.58,5.21,3,0,7.14-1.65,11.79-7.79l2,1.83C218.94,38.63,214.21,41.33,209.66,41.33Z"/><path class="cls-1" d="M253.08,24.88h-4.74V22.77h4.77V15.91h2.36v6.86h2.11c1.95,0,4.87.41,6,3.78a16.77,16.77,0,0,1,.52,5.26,17.05,17.05,0,0,1-.52,5.2c-1.15,3.49-3.85,3.74-7.11,3.74v-2.2c3.85,0,4.35-.86,4.81-2.35a13.35,13.35,0,0,0,.43-4.39,13.88,13.88,0,0,0-.43-4.52c-.43-1.39-1.27-2.41-3.69-2.41h-2.14c-.19,6.43-1.15,8.07-4.93,15.47l-2.08-1C252.24,31.9,253,30.66,253.08,24.88Zm13.77-4.15h-1.76V16.06h1.76Zm-1.08,3,1.64-1.48c3.63,2.69,4,4.67,4,11.78h-2.29C269.15,26.86,268.56,26.08,265.77,23.7Zm4.84-2.94h-1.77V16.09h1.77Z"/><path class="cls-1" d="M309.45,32.08c-.36,4.69,2.95,6.69,7.6,6.69a36.9,36.9,0,0,0,4.45-.35v3.44a39.52,39.52,0,0,1-4.45.4c-6.85,0-11.76-3.39-11.26-10.43.3-4.34,4-8.23,7.91-11.87H295.24V17h8.55L315.35,5.69H302.09V2.55H321.3V4.84L308.79,17h19.36v3h-9.6C313.6,24.55,309.75,28.19,309.45,32.08Z"/><path class="cls-1" d="M351.66,41.36l-3.4-1.74c6.35-11.58,8.2-14.82,8.4-27.49h-7.3V8.78h7.3V.35h3.9V8.78h8.15v3.35h-8.2C360.31,25.85,358,29.79,351.66,41.36Zm14.1-8.58V30.94h3.75v1.84c0,3.79,4.56,4,8.91,4h4.95v3.55h-4.85C371.82,40.37,365.76,39.27,365.76,32.78Zm16.81-14.92v3.35H367.16V17.86Zm-6.9-5.68h-2.95V4.44h2.95Zm6.2,0h-2.95V4.49h2.95Z"/><path class="cls-1" d="M438,22.5c-.2,4.69-2.8,8.79-7.5,11.73-4.06,2.49-8.56,3.74-16.31,3.74V34.23c9.9,0,19.51-3.74,19.86-11.88.25-6.73-4.55-8.93-11.41-8.93h-18.1V9.63h18.1C432.54,9.63,438.29,14.07,438,22.5Z"/><line class="cls-2" x1="95.34" y1="66.35" x2="435.6" y2="66.35"/><polygon class="cls-3" points="58.24 51.18 5.38 51.18 5.38 7.75 27.63 7.75 27.63 28.99 35.99 28.99 35.99 8.09 58.24 8.09 58.24 51.18"/><rect class="cls-3" x="16.81" y="17.48" width="30.34" height="39.94"/><rect class="cls-3" y="14.21" width="63.96" height="30.52"/><rect class="cls-3" x="23.89" y="40.52" width="16.18" height="23.26"/><line class="cls-4" x1="31.88" y1="18" x2="31.88" y2="21.97"/><line class="cls-4" x1="16.51" y1="22.54" x2="47.06" y2="22.54"/><polyline class="cls-4" points="24.29 22.92 24.29 29.13 40.61 29.13"/><line class="cls-4" x1="40.55" y1="25.66" x2="40.55" y2="32.05"/><polyline class="cls-4" points="24.29 50.36 24.29 35.03 40.61 35.03 40.61 50.36"/><line class="cls-4" x1="24.29" y1="40.14" x2="40.42" y2="40.14"/><line class="cls-4" x1="24.29" y1="45.2" x2="40.42" y2="45.2"/></svg>