<svg id="レイヤー_1" data-name="レイヤー 1" xmlns="http://www.w3.org/2000/svg" viewBox="0 0 553.6 41.6"><defs><style>.cls-1{fill:#4c4345;stroke:#4c4345;}.cls-1,.cls-2{stroke-linecap:round;stroke-linejoin:round;stroke-width:0.6px;}.cls-2{fill:#ff64a5;stroke:#ff64a5;}</style></defs><path class="cls-1" d="M6.08,30.4H.3V6.58H11.73v5.9H6.08ZM9.94,10.65V8.41H2.12V28.57H4.26V10.65Z"/><path class="cls-1" d="M37.14,28.34c-.23,3.08,1.91,4.39,4.93,4.39A21.93,21.93,0,0,0,45,32.5v2.27a25.5,25.5,0,0,1-2.89.26c-4.44,0-7.63-2.23-7.3-6.86.19-2.85,2.6-5.41,5.13-7.81h-12v-2h5.55L41,11h-8.6V8.91H44.83v1.51l-8.11,8H49.28v2H43.05C39.83,23.38,37.33,25.78,37.14,28.34Z"/><path class="cls-1" d="M69.72,34.44l-2.2-1.15c4.12-7.61,5.32-9.75,5.45-18.08H68.23V13H73V7.46H75.5V13h5.29v2.2H75.47C75.34,24.23,73.85,26.83,69.72,34.44Zm9.16-5.64V27.58h2.43V28.8c0,2.49,3,2.65,5.78,2.65H90.3v2.33H87.16C82.8,33.78,78.88,33.06,78.88,28.8ZM89.78,19v2.2h-10V19Zm-4.47-3.74H83.39V10.15h1.92Zm4,0H87.42V10.19h1.91Z"/><path class="cls-1" d="M130.94,22c-.13,3.09-1.82,5.78-4.87,7.72-2.63,1.64-5.55,2.46-10.58,2.46V29.75c6.42,0,12.66-2.46,12.88-7.81.17-4.44-3-5.88-7.4-5.88H109.22V13.57H121C127.4,13.57,131.13,16.49,130.94,22Z"/><path class="cls-1" d="M146.87,30.08h5.65V12.16h5.78V36H146.87Zm9.61,4.07V14h-2.14V31.91h-5.68v2.24Z"/><path class="cls-1" d="M195.46,31.91l-1.89,1.48C190.85,29.94,191,28.89,191,26V10.42h2.34V25.81C193.35,28.66,193.19,29,195.46,31.91Zm13.76-2.66c-.16,3.22-1.85,4.53-4.64,4.53a7.12,7.12,0,0,1-2.92-.59c-1.79-.78-3.22-2.59-2.5-4.72s3.18-2.73,5-2.73a15,15,0,0,1,2.66.27V16.26h-8.5V14h8.5V7.92h2.4V14H214v2.23h-4.71V26.89A32.35,32.35,0,0,1,215,30.47l-1.33,1.84C211.14,30.47,210.19,29.88,209.22,29.25ZM204.35,28c-1,0-2.21.06-2.82,1s.45,2,1.43,2.34a5.88,5.88,0,0,0,1.62.26c2.08,0,2.27-.92,2.27-2.86V28.3A11.6,11.6,0,0,0,204.35,28Z"/><path class="cls-1" d="M236.51,14.12h-4V11.83h4.77c.49-1.78.91-3.42,1.17-4.3l2.34.55c-.2.66-.56,2.07-1,3.75h4.32v2.29h-5a83.67,83.67,0,0,1-6.3,15.43l-2.14-1.21A76.63,76.63,0,0,0,236.51,14.12Zm12.57,9.49v4.1a38,38,0,0,1,6.13,3.19l-1.17,2a44.35,44.35,0,0,0-5-2.76c0,3.28-1.69,4.73-4.71,4.73s-6.75-2.1-5.58-5.48c.51-1.45,2-2.43,4.31-2.7a9.54,9.54,0,0,1,3.67.27V23.51a6.11,6.11,0,0,1,1.49-4.59c-3.4,0-4.15.32-6.1,1.57L241,18.72A9.69,9.69,0,0,1,246.74,17l7.3.13V19h-2.2C250.18,19,249,20.46,249.08,23.61Zm-4.87,5.19a6.8,6.8,0,0,0-2.05.32,1.66,1.66,0,0,0-1.26,1.48c0,1.74,2.92,2.07,3.53,2.07,2,0,2.47-1.05,2.47-2.82v-.63A10,10,0,0,0,244.21,28.8Z"/><path class="cls-1" d="M287.54,27l-2-1.47c2.4-3.06,2.11-3.12,2.11-7.29h-8.31V27a4.07,4.07,0,0,0,3.44,4.27c2.69.49,5.65.13,9.67-.59v2.23l0,0a23.92,23.92,0,0,1-10.1.59A6.33,6.33,0,0,1,276.92,27V18.26h-5.84v-2.2h5.84V8.91h2.47v7.15h8.31V8.91h2.43v7.15H296v2.2h-5.85C290.13,22.62,290.36,23.41,287.54,27Zm6.39-13.09h-1.85v-5h1.85Zm4,0h-1.85v-5h1.85Z"/><path class="cls-1" d="M309.86,29.35l2.08-1.8a37.72,37.72,0,0,1,5.49,6.33l-2.28,2A33,33,0,0,0,309.86,29.35Z"/><path class="cls-2" d="M361.12,12V41.3H358V18.05a69.21,69.21,0,0,1-4.46,6.55l-1.57-2.91A56.68,56.68,0,0,0,361.7.94l3,1A77.47,77.47,0,0,1,361.12,12Zm26.19,28.81c-2.56,0-4.81-4-5.85-5.92-2.47-4.5-3.73-10.56-4.27-15.65h-8V31c2.83-1,5.58-2,8.41-3.28l.45,2.82a112.62,112.62,0,0,1-13.77,5.51L363,32.79l.27,0c1-.28,2-.55,2.88-.82h0V4.81h.09a61,61,0,0,0,18.27-3.28L387,4.4c-2.43.63-4.86,1.18-7.33,1.68h0c0,2.23.14,4.46.23,6.65l.13,2.86v.32h9.63v2.91h-9.36c.41,4.19,1.35,9.24,3.2,13l.09.18c.49,1,1.89,4.23,2.74,4.23s1.22-5.6,1.22-6.28l3,2.41C390.37,33.93,389.79,40.76,387.31,40.76Zm-5.76-.6h-15.3V37.21h15.3ZM376.47,6.67c-2.43.37-4.91.64-7.34.78h.05v8.87h7.74C376.69,13.18,376.51,9.77,376.47,6.67Z"/><path class="cls-2" d="M410.54,24.19l-1.62-2.91c3.69-6.19,5.94-13.92,7.47-21l3,.82q-.89,3.61-1.89,7.1l-.63,2.14a.41.41,0,0,0-.09.23.62.62,0,0,0-.14.41V41.3h-3V18.5A46.43,46.43,0,0,1,410.54,24.19ZM447.62,3.81V6.72h-9V14h7.51v26.9h-3V38.12H423.73v2.73h-3V14h7.33V6.72h-8.68V3.81ZM428.27,16.68h-4.54V35.34h4.54ZM431.06,14h4.55V6.72h-4.55Zm0,2.73V35.34h4.55V16.68Zm7.34,0V35.34h4.72V16.68Z"/><path class="cls-2" d="M467.38,32.47l-1.8-3.36c3.15-4.69,5.22-11,6.53-16.48h-5.67V9.77h6V.39h3V9.77h5.4v2.86h-5.4v3.64c2,1.69,3.87,3.46,5.67,5.28l-1.67,2.78a45.38,45.38,0,0,0-4-4.78V41.3h-3V19.78A52.33,52.33,0,0,1,467.38,32.47Zm13.33-5L478.91,25a41.64,41.64,0,0,0,11.29-8.78,41,41,0,0,1-4-5.32,35.66,35.66,0,0,1-4.72,6.14l-1.89-2.28A32.88,32.88,0,0,0,487.41.39l2.88.87-.81,2.68h9.32l1.57,1.46a53.62,53.62,0,0,1-6.3,10.74,43,43,0,0,0,10.62,6.78l-2,2.91-.45-.23c-.72-.36-1.3-.68-2-1.09V41.3h-3V39H486.47V41.3h-3V25.79C482.55,26.38,481.61,26.88,480.71,27.42Zm11.56-9a44.9,44.9,0,0,1-6.84,6H500.1A38.93,38.93,0,0,1,492.27,18.37Zm5,8.73H486.47v9.15h10.75ZM487.68,8.36A43.81,43.81,0,0,0,492,14.09a43.46,43.46,0,0,0,4.46-7.42h-8A11.69,11.69,0,0,0,487.68,8.36Z"/><path class="cls-2" d="M542.46,1.67c5.76,0,10.84,3.32,10.84,9.6,0,3.87-2.2,6.55-5.22,8.65A10.09,10.09,0,0,0,544,24.74a14.86,14.86,0,0,0-.54,4.64h-3.87a15.54,15.54,0,0,1,1.31-6.87,17.49,17.49,0,0,1,5.26-5.37,6.82,6.82,0,0,0,3.24-5.87c0-4.28-3.24-6.1-7-6.1-5,0-7.56,3.6-7.74,8.47h-4C531.11,6.63,535.16,1.67,542.46,1.67ZM539,33.52h5V38.8h-5Z"/></svg>