<svg id="レイヤー_1" data-name="レイヤー 1" xmlns="http://www.w3.org/2000/svg" viewBox="0 0 250 250"><defs><style>.cls-1,.cls-3{fill:none;}.cls-2{fill:#fff;}.cls-3{stroke:#fff;stroke-miterlimit:10;}</style></defs><rect class="cls-1" width="250" height="250"/><path class="cls-2" d="M72,155.87a11.09,11.09,0,0,0,.11,1.73h-2a11.09,11.09,0,0,0,.11-1.73v-7.26h-1.8a13.78,13.78,0,0,0-1.82.09v-1.78a13.72,13.72,0,0,0,1.81.09h5.27a12.73,12.73,0,0,0,1.95-.09v1.78a15.91,15.91,0,0,0-1.95-.09H72Z"/><path class="cls-2" d="M79.86,147a11.47,11.47,0,0,0-.1,1.76v2.47a3.12,3.12,0,0,1,2.75-1.41A2.44,2.44,0,0,1,85.19,152h0a2.26,2.26,0,0,1,0,.52v3.35a11.09,11.09,0,0,0,.1,1.73h-2a14.22,14.22,0,0,0,.1-1.73v-3a1.91,1.91,0,0,0-.39-1.32,1.22,1.22,0,0,0-.92-.38c-1,0-1.77.64-2.37,2v2.68a11.09,11.09,0,0,0,.11,1.73H78a11.09,11.09,0,0,0,.11-1.73v-7.13A12.32,12.32,0,0,0,78,147Z"/><path class="cls-2" d="M93.29,156.77a2.92,2.92,0,0,1-1.41.84,4.69,4.69,0,0,1-1.24.16c-1.62,0-2.6-.84-2.6-2.24a2.33,2.33,0,0,1,1.5-2.15,10,10,0,0,1,3.75-.54v-.67c0-.78-.52-1.18-1.53-1.18a2.41,2.41,0,0,0-1.38.39,1.42,1.42,0,0,0-.54.85l-1.7-.3a2.76,2.76,0,0,1,1-1.48,4,4,0,0,1,2.54-.68,3.48,3.48,0,0,1,2.63.79,2.26,2.26,0,0,1,.62,1.83V156a10.22,10.22,0,0,0,.11,1.66h-1.8Zm0-2.77c-2.54.05-3.54.49-3.54,1.53,0,.63.47,1,1.21,1a2.7,2.7,0,0,0,1.85-.7,1.61,1.61,0,0,0,.48-1.17Z"/><path class="cls-2" d="M98,157.6a11.09,11.09,0,0,0,.1-1.73V151.7A10.71,10.71,0,0,0,98,150h1.81v.7a5.42,5.42,0,0,1,0,.57,3.06,3.06,0,0,1,2.71-1.41,2.65,2.65,0,0,1,2.27,1,3,3,0,0,1,.45,1.86v3.19a11.09,11.09,0,0,0,.1,1.73h-1.92a16.56,16.56,0,0,0,.09-1.73V153a2.26,2.26,0,0,0-.23-1.17,1.24,1.24,0,0,0-1.12-.55c-1,0-1.74.67-2.32,2v2.68a11.09,11.09,0,0,0,.1,1.73Z"/><path class="cls-2" d="M110.18,147a12.83,12.83,0,0,0-.09,1.75v4.37l2-2a6.25,6.25,0,0,0,1-1.18h2.49c-.76.68-.76.68-1.33,1.22l-1.89,1.8,2.25,3.07a10,10,0,0,0,1.21,1.54h-2.37a6.28,6.28,0,0,0-.88-1.5l-1.43-2.1-1.09,1v.86a9.64,9.64,0,0,0,.09,1.7H108.3a12.46,12.46,0,0,0,.1-1.73v-7a11.34,11.34,0,0,0-.1-1.75Z"/><path class="cls-2" d="M124.09,151.62c-.59-1.32-.6-1.36-.76-1.65h2a8.52,8.52,0,0,0,.51,1.55l1.62,3.78,1.48-3.76a8.72,8.72,0,0,0,.51-1.57h2c-.08.17-.32.71-.72,1.65l-3,7.11a2.35,2.35,0,0,1-2.45,1.48,6.61,6.61,0,0,1-1.4-.16l.31-1.51a2.31,2.31,0,0,0,.93.22,1.14,1.14,0,0,0,1-.66l.45-1Z"/><path class="cls-2" d="M133.4,153.77a4,4,0,1,1,4,4.06,3.74,3.74,0,0,1-4-3.46v0A2.81,2.81,0,0,1,133.4,153.77Zm1.72,0c0,1.63.85,2.65,2.23,2.65s2.24-1,2.24-2.62-.81-2.71-2.22-2.71S135.12,152.14,135.12,153.77Z"/><path class="cls-2" d="M151.25,150a10,10,0,0,0-.11,1.73v4.17a11.09,11.09,0,0,0,.11,1.73h-1.81v-1.27a3,3,0,0,1-2.73,1.42,2.88,2.88,0,0,1-1.6-.39,2.47,2.47,0,0,1-1.08-2.3V151.7a14.22,14.22,0,0,0-.1-1.73h1.93a11.09,11.09,0,0,0-.1,1.73v3a1.64,1.64,0,0,0,.61,1.52,1.72,1.72,0,0,0,.74.18c1,0,1.71-.65,2.31-2v-2.68a14.22,14.22,0,0,0-.11-1.73Z"/><path class="cls-2" d="M160.57,151.36a10.66,10.66,0,0,0-1.26.08v-1.55a8.65,8.65,0,0,0,1.25.08h.54v-.71c0-1.65.84-2.42,2.65-2.42a4.88,4.88,0,0,1,1.65.27l-.4,1.39a2.35,2.35,0,0,0-1.18-.32c-.77,0-1,.32-1,1.24V150h.63a9.43,9.43,0,0,0,1.5-.08v1.55a12.23,12.23,0,0,0-1.48-.08h-.65v4.51a16.56,16.56,0,0,0,.09,1.73H161a12.46,12.46,0,0,0,.09-1.73v-4.51Z"/><path class="cls-2" d="M167.35,153.77a4,4,0,1,1,4,4.06,3.74,3.74,0,0,1-4-3.46v0A2.81,2.81,0,0,1,167.35,153.77Zm1.72,0c0,1.63.85,2.65,2.24,2.65s2.23-1,2.23-2.62-.81-2.71-2.22-2.71S169.07,152.14,169.07,153.77Z"/><path class="cls-2" d="M183,151.64a4,4,0,0,0-1.18-.21,1.92,1.92,0,0,0-1.54.65,2.14,2.14,0,0,0-.55,1.33v2.46a16.56,16.56,0,0,0,.09,1.73h-1.9a12.46,12.46,0,0,0,.09-1.73V151.7a10,10,0,0,0-.09-1.73h1.81v1.25a2.56,2.56,0,0,1,2.5-1.4,6.47,6.47,0,0,1,1.24.15Z"/><path class="cls-2" d="M102.85,178.5a9,9,0,0,0-.33-1.26l-1-3.14s-.11-.35-.26-.89c-.06.24-.22.78-.26.92l-1,3.11c-.14.45-.29,1-.34,1.26h-1.6a10.62,10.62,0,0,0-.34-1.26l-1.47-4.72c-.18-.62-.37-1.16-.55-1.65h2a8.63,8.63,0,0,0,.3,1.58l.73,2.59c0,.18.13.55.24,1.07a9.55,9.55,0,0,1,.3-1.08l1-2.9a9,9,0,0,0,.34-1.26H102a6.87,6.87,0,0,0,.33,1.26l1,3a3.69,3.69,0,0,0,.18.65,1.57,1.57,0,0,1,.08.31.59.59,0,0,1,.07-.29c.07-.18.13-.62.16-.71l.74-2.66a8.47,8.47,0,0,0,.3-1.58h2c-.17.44-.2.54-.54,1.65l-1.48,4.72a9,9,0,0,0-.33,1.26Z"/><path class="cls-2" d="M114.09,177.64a2.92,2.92,0,0,1-1.41.84,4.69,4.69,0,0,1-1.24.16c-1.62,0-2.6-.84-2.6-2.24a2.33,2.33,0,0,1,1.5-2.15,10,10,0,0,1,3.75-.54V173c0-.78-.52-1.18-1.53-1.18a2.41,2.41,0,0,0-1.38.39,1.45,1.45,0,0,0-.53.85l-1.71-.3a2.76,2.76,0,0,1,1-1.48,4,4,0,0,1,2.54-.68,3.48,3.48,0,0,1,2.63.79,2.26,2.26,0,0,1,.62,1.83v3.58a10.22,10.22,0,0,0,.11,1.66H114Zm0-2.77c-2.54,0-3.54.49-3.54,1.53,0,.63.47,1,1.21,1a2.7,2.7,0,0,0,1.85-.7,1.61,1.61,0,0,0,.48-1.17Z"/><path class="cls-2" d="M120.75,167.91v1.69h-2v-1.69Zm0,3a12.68,12.68,0,0,0-.09,1.74v4.12a12.68,12.68,0,0,0,.09,1.74h-2a11.09,11.09,0,0,0,.1-1.73v-4.17a11.09,11.09,0,0,0-.1-1.73Z"/><path class="cls-2" d="M126.53,168.82a12.74,12.74,0,0,0-.1,1.63v.42H127a8.74,8.74,0,0,0,1.35-.08v1.57a7.15,7.15,0,0,0-1.31-.08h-.6v4.12c0,.65.24.89.88.89a1.68,1.68,0,0,0,1-.29l.24,1.41a4.09,4.09,0,0,1-1.66.28c-1.53,0-2.14-.55-2.14-1.94v-4.47h-.51a6.69,6.69,0,0,0-1.18.08v-1.59a6.74,6.74,0,0,0,1.19.08h.5v-.42a12.74,12.74,0,0,0-.1-1.63Z"/><path class="cls-2" d="M132.79,167.91v1.69h-2v-1.69Zm0,3a11.29,11.29,0,0,0-.1,1.74v4.12a12.69,12.69,0,0,0,.1,1.74h-1.95a11.09,11.09,0,0,0,.11-1.73v-4.17a11.09,11.09,0,0,0-.11-1.73Z"/><path class="cls-2" d="M135.77,178.5a11.09,11.09,0,0,0,.1-1.73V172.6a11.09,11.09,0,0,0-.1-1.73h1.81v.7a5.42,5.42,0,0,1,0,.57,3.07,3.07,0,0,1,2.72-1.41,2.64,2.64,0,0,1,2.26,1,3,3,0,0,1,.45,1.86v3.18a11.09,11.09,0,0,0,.11,1.73h-1.93a16.56,16.56,0,0,0,.09-1.73v-3a2.26,2.26,0,0,0-.23-1.17,1.24,1.24,0,0,0-1.11-.55c-1,0-1.75.67-2.33,2v2.67a11.09,11.09,0,0,0,.1,1.73Z"/><path class="cls-2" d="M147.22,178.77a2.25,2.25,0,0,0,2.06,1,2.37,2.37,0,0,0,2.18-1,3.5,3.5,0,0,0,.35-1.77,3,3,0,0,1-2.61,1.21c-2.11,0-3.47-1.45-3.47-3.72a3.45,3.45,0,0,1,3.09-3.77h.46a2.82,2.82,0,0,1,2.54,1.17,3.23,3.23,0,0,1,0-.44v-.61h1.78a11.55,11.55,0,0,0-.09,1.66V177a4,4,0,0,1-1.12,3.27,4.94,4.94,0,0,1-3.14.85,3.89,3.89,0,0,1-3.34-1.38Zm.86-2.39a2.09,2.09,0,0,0,1.42.59,2.2,2.2,0,0,0,1.84-1.05,2.77,2.77,0,0,0,.38-1.51,2.45,2.45,0,0,0-.8-2,2,2,0,0,0-1.29-.48c-1.33,0-2.16,1-2.16,2.58a2.61,2.61,0,0,0,.61,1.91Z"/><path class="cls-2" d="M47.29,86.17a36.66,36.66,0,0,0-5.83-5.65A22.61,22.61,0,0,1,34.22,86a7.74,7.74,0,0,0-1.54-2.1,15.63,15.63,0,0,0,3.8-2.09,18.17,18.17,0,0,0,6.38-7.74l.21-.49-6.29.11a14.43,14.43,0,0,0-2.07.16l-.07-2.44a7.78,7.78,0,0,0,1.67.12h.45l6.69-.1a4,4,0,0,0,1.69-.21l1.26,1.3a3.68,3.68,0,0,0-.61,1,26,26,0,0,1-3,5.25,28.24,28.24,0,0,1,3.52,2.75c.47.42.47.42,2.77,2.64Z"/><path class="cls-2" d="M65.19,75.53V76c-.25,3.23-1,5.25-2.45,7a13.09,13.09,0,0,1-4.94,3.5,5.71,5.71,0,0,0-1.58-2.09A10.64,10.64,0,0,0,60,82.25c1.73-1.54,2.52-3.49,2.71-6.72H58.2A16,16,0,0,1,55,79.38a6,6,0,0,0-1.94-1.5,13.87,13.87,0,0,0,4-5.22,9.47,9.47,0,0,0,1-2.72l2.47.59c-.15.31-.15.31-.72,1.64-.15.34-.34.76-.57,1.23h8.3a16.07,16.07,0,0,0,2.4-.11v2.33a7.49,7.49,0,0,0-1.16,0H67.52Z"/><path class="cls-2" d="M80.2,70.82a35.47,35.47,0,0,0-.2,4.25c-.14,3.71-.55,5.85-1.54,7.81a12,12,0,0,1-2.62,3.51,6.87,6.87,0,0,0-1.92-1.84,7.71,7.71,0,0,0,2-2.18c1.36-2.19,1.8-4.64,1.8-10a9.08,9.08,0,0,0-.08-1.73Zm5-.23a10.9,10.9,0,0,0-.13,1.8L85,83.2A7.43,7.43,0,0,0,87.91,81a9.38,9.38,0,0,0,1.86-3.48,8,8,0,0,0,1.79,1.79,11.94,11.94,0,0,1-3,4.42,12.63,12.63,0,0,1-4,2.28c-.42.15-.57.23-.82.34L82.48,85.1a9,9,0,0,0,.17-2l.09-10.72v-.61a7.43,7.43,0,0,0-.07-1.25Z"/><path class="cls-2" d="M99.12,86.39a12.51,12.51,0,0,0,.12-2.12V72.09a12.56,12.56,0,0,0-.12-1.94h2.6a14.8,14.8,0,0,0-.07,2v3.53a55.71,55.71,0,0,1,8.62,4l-1.33,2.24a44.87,44.87,0,0,0-6.72-3.63c-.44-.21-.5-.23-.65-.32a9.31,9.31,0,0,1,.08,1.29v5a16.38,16.38,0,0,0,.07,2.1Z"/><path class="cls-2" d="M117.27,83.26a17.86,17.86,0,0,0,5.62-1.41,12.62,12.62,0,0,0,5.64-4.65,15.49,15.49,0,0,0,1.94-3.8,8,8,0,0,0,2,1.86,16.6,16.6,0,0,1-6,7.45,20.61,20.61,0,0,1-7.24,2.85,7.91,7.91,0,0,0-1.25.32Zm1.61-11.8a26.56,26.56,0,0,1,4.9,3.67l-1.63,2.07a20.07,20.07,0,0,0-4.84-3.86Z"/><path class="cls-2" d="M146.81,78.43a10.32,10.32,0,0,1,.06-1.36,11.8,11.8,0,0,1-1.94,2.7,26.06,26.06,0,0,1-3.74,3.3,27.61,27.61,0,0,1-2.81,1.7,5.71,5.71,0,0,0-1.58-2,20.12,20.12,0,0,0,6-4.12,18.66,18.66,0,0,0,2.55-3.13h-5.21a22.58,22.58,0,0,0-2.33.09V73.32a10.08,10.08,0,0,0,2.39.14h6.57V71.94a12.84,12.84,0,0,0-.1-1.75h2.51a12.31,12.31,0,0,0-.08,1.61v1.66H151a9.89,9.89,0,0,0,2.24-.14v2.3c-.57,0-1-.07-2.19-.07h-2l.09,8.81a20.09,20.09,0,0,0,.12,2.19h-2.59a11.25,11.25,0,0,0,.12-1.83v-.34l-.06-5.68Z"/><path class="cls-2" d="M158.14,76.93a17.5,17.5,0,0,0,3.07.14h10.13a17.61,17.61,0,0,0,3.08-.14v2.64a22.94,22.94,0,0,0-3.1-.09H161.23a22.79,22.79,0,0,0-3.09.09Z"/><path class="cls-2" d="M194.1,73.23a3.42,3.42,0,0,0-.59,1.25,31.43,31.43,0,0,1-2.43,5.23A18.57,18.57,0,0,1,182.42,87a6.15,6.15,0,0,0-1.58-2,19.3,19.3,0,0,0,3.71-1.88,13.87,13.87,0,0,0,3.11-2.66,22.7,22.7,0,0,0-3.89-2.7l1.44-1.69A24.88,24.88,0,0,1,189,78.62a18.24,18.24,0,0,0,2.13-4.48l-5.91.06a20.33,20.33,0,0,1-4.45,5.11,5.68,5.68,0,0,0-1.87-1.54,16.31,16.31,0,0,0,4.75-5.43,9.83,9.83,0,0,0,1.12-2.65l2.47.56a7.42,7.42,0,0,0-.57,1.08c-.22.51-.36.72-.45.91l4.94-.08A6.72,6.72,0,0,0,192.5,72a13.07,13.07,0,0,0-1.19-1.92l1.52-.53A8.94,8.94,0,0,1,194.29,72l-1,.38Zm1-1.33a12.86,12.86,0,0,0-1.42-2.43l1.48-.55a9.76,9.76,0,0,1,1.44,2.35Z"/><path class="cls-2" d="M199.94,76.93a17.5,17.5,0,0,0,3.07.14h10.13a17.61,17.61,0,0,0,3.08-.14v2.64a22.94,22.94,0,0,0-3.1-.09H203a22.79,22.79,0,0,0-3.09.09Z"/><path class="cls-2" d="M96.46,101.77a11,11,0,0,0-.09-1.62h2.07a9.79,9.79,0,0,0-.1,1.62v.32h2.74v-.32a8.82,8.82,0,0,0-.1-1.62h2.07a11,11,0,0,0,0,1.62v.32a8,8,0,0,0,1.29-.1v1.92a8,8,0,0,0-1.29-.07v7.33a6.25,6.25,0,0,0,1.14-.08V113H96.27a10.13,10.13,0,0,0-1.46.07v-1.92a7.42,7.42,0,0,0,1.41.08h.24v-7.36a9.92,9.92,0,0,0-1.44.07V102a5.79,5.79,0,0,0,1.44.1ZM99.2,114.1a11.86,11.86,0,0,1-2.93,3.45,7.16,7.16,0,0,0-1.46-1.5,8.76,8.76,0,0,0,2.77-2.94Zm1.88-9v-1.24H98.34v1.25Zm0,3v-1.33H98.34v1.3Zm0,3.12v-1.45H98.34v1.44Zm.45,2a7.2,7.2,0,0,0,1.77,2,7,7,0,0,0-1.42,1.4,10.06,10.06,0,0,1-1.85-2.45Zm5-1.64c-.28,3-.76,4.39-2.09,6.1a13,13,0,0,0-1.61-1.54,6.48,6.48,0,0,0,1.63-3.53,67.6,67.6,0,0,0,.38-9.33,18.55,18.55,0,0,0-.1-2.47,18.61,18.61,0,0,0,2.11.08h2.76a19,19,0,0,0,2-.08,16.16,16.16,0,0,0-.08,2.09v12.6c0,.93-.26,1.52-.79,1.74a5.07,5.07,0,0,1-1.89.27c-.22,0-.26,0-1.19-.06a7.87,7.87,0,0,0-.5-2.09,8.65,8.65,0,0,0,1.68.19c.58,0,.72-.07.72-.42v-3.55Zm.23-4.48a21.83,21.83,0,0,1-.1,2.68h3v-2.73Zm2.87-4.33H106.8v2.51h2.83Z"/><path class="cls-2" d="M118.52,115.1a15.29,15.29,0,0,0,.12,2.34h-2.23a15.49,15.49,0,0,0,.12-2.36v-12.4a19,19,0,0,0-.08-2.13,14.8,14.8,0,0,0,2,.08h3.36a13.93,13.93,0,0,0,1.94-.08c0,.61-.06,1-.06,1.77v2.91a16.48,16.48,0,0,0,.06,1.72h-5.19Zm0-12h3.27v-.93h-3.27Zm0,2.31h3.27v-1h-3.27Zm9.75,8.17v1.66c.42,0,1.11.09,1.45.09.53,0,.7-.13.7-.51V106.9h-5.49c0-.55.06-.91.06-1.72v-2.91a17.45,17.45,0,0,0-.06-1.77,13.93,13.93,0,0,0,1.94.08h3.65a14.8,14.8,0,0,0,2-.08c-.06.69-.07,1.16-.07,2.11V115.1c0,1.14-.23,1.64-.92,1.92a5.74,5.74,0,0,1-2.14.23c-.27,0-.34,0-1.31-.06a7.25,7.25,0,0,0-.5-2h-5.06v1.06h-2a13.38,13.38,0,0,0,.13-1.9v-4.58a16.29,16.29,0,0,0-.06-1.71,17.46,17.46,0,0,0,1.77.07h4.24a17.26,17.26,0,0,0,1.76-.07v1.71Zm-5.78-2.75h3.88v-1.14h-3.88Zm0,2.77h3.88v-1.23h-3.88Zm4.43-10.5h3.55v-.93h-3.55Zm0,2.31h3.55v-1h-3.55Z"/><path class="cls-2" d="M144.19,102a13.06,13.06,0,0,0-.11-2.07h2.39a13.34,13.34,0,0,0-.11,2v1.23h5.2a14.22,14.22,0,0,0,1.73-.07,13.25,13.25,0,0,0-.08,1.67v5.79a12.1,12.1,0,0,0,.1,1.9h-2.24v-1.14h-4.71v3.86a14.31,14.31,0,0,0,.13,2.36h-2.43a16.89,16.89,0,0,0,.13-2.36v-3.86h-4.48v1.14h-2.25a13.44,13.44,0,0,0,.1-1.9v-5.79a13,13,0,0,0-.08-1.65,16.3,16.3,0,0,0,1.71.07h5Zm-4.48,3.18v4.12h4.48v-4.12Zm11.36,4.12v-4.12h-4.71v4.12Z"/><line class="cls-3" x1="220" y1="130.5" x2="30" y2="130.5"/></svg>