<svg id="レイヤー_1" data-name="レイヤー 1" xmlns="http://www.w3.org/2000/svg" viewBox="0 0 250 250"><defs><style>.cls-1,.cls-3{fill:none;}.cls-2{fill:#fff;}.cls-3{stroke:#fff;stroke-miterlimit:10;}</style></defs><rect class="cls-1" width="250" height="250"/><path class="cls-2" d="M61.67,165.58a5,5,0,0,1-.9,2A4.51,4.51,0,0,1,57.14,169a4.53,4.53,0,0,1-3.42-1.28,6.73,6.73,0,0,1,.11-8.48A4.67,4.67,0,0,1,57.15,158a4.78,4.78,0,0,1,2.56.64,4.16,4.16,0,0,1,1.41,1.45,5.13,5.13,0,0,1,.41,1l-1.85.43a2.77,2.77,0,0,0-.57-1.15,2.46,2.46,0,0,0-1.94-.82c-1.89,0-3,1.48-3,3.93s1.18,4,3,4a2.48,2.48,0,0,0,2.15-1,2.54,2.54,0,0,0,.44-1.22Z"/><path class="cls-2" d="M64.06,165a4,4,0,1,1,4,4.06,3.74,3.74,0,0,1-4-3.44h0A3.11,3.11,0,0,1,64.06,165Zm1.71,0c0,1.64.85,2.65,2.24,2.65s2.23-1,2.23-2.63-.81-2.7-2.22-2.7S65.77,163.37,65.77,165Z"/><path class="cls-2" d="M74.62,168.83a11.09,11.09,0,0,0,.1-1.73v-4.17a11.09,11.09,0,0,0-.1-1.73h1.81v.7a5.42,5.42,0,0,1,0,.57,3.1,3.1,0,0,1,2.71-1.41,2.64,2.64,0,0,1,2.26,1,3,3,0,0,1,.46,1.86v3.19a11.09,11.09,0,0,0,.1,1.73H80a14.22,14.22,0,0,0,.1-1.73v-3a2.26,2.26,0,0,0-.23-1.17,1.24,1.24,0,0,0-1.12-.55c-1,0-1.74.67-2.32,2v2.68a11.09,11.09,0,0,0,.1,1.73Z"/><path class="cls-2" d="M86.39,166.44c.22.9.72,1.26,1.75,1.26s1.6-.38,1.6-1a.8.8,0,0,0-.35-.66c-.25-.18-.33-.19-1.39-.43a8,8,0,0,1-1.92-.57,1.88,1.88,0,0,1-1.17-1.77,2,2,0,0,1,.41-1.24A3.27,3.27,0,0,1,88,161a3.67,3.67,0,0,1,2.51.78,2.56,2.56,0,0,1,.71,1.31l-1.75.23c-.15-.73-.6-1-1.47-1s-1.38.37-1.38.93a.71.71,0,0,0,.41.62,4.75,4.75,0,0,0,1.33.4,5.75,5.75,0,0,1,2.34.82,1.88,1.88,0,0,1,.78,1.65,2.12,2.12,0,0,1-.66,1.5,3.86,3.86,0,0,1-2.75.86,3.49,3.49,0,0,1-3-1.18,3,3,0,0,1-.52-1.18Z"/><path class="cls-2" d="M96.91,159.15a12.74,12.74,0,0,0-.1,1.63v.42h.56a7.65,7.65,0,0,0,1.35-.08v1.57a8.16,8.16,0,0,0-1.31-.08h-.6v4.12c0,.65.24.89.88.89a1.68,1.68,0,0,0,1-.29l.24,1.41a4.09,4.09,0,0,1-1.66.28c-1.53,0-2.14-.55-2.14-1.94v-4.5h-.51a6.69,6.69,0,0,0-1.18.08v-1.57a6.05,6.05,0,0,0,1.2.08h.49v-.42a12.74,12.74,0,0,0-.1-1.63Z"/><path class="cls-2" d="M106.32,162.87a4,4,0,0,0-1.18-.21,1.92,1.92,0,0,0-1.54.65,2.14,2.14,0,0,0-.55,1.33v2.46a16.56,16.56,0,0,0,.09,1.73h-1.9a12.46,12.46,0,0,0,.09-1.73v-4.17a10,10,0,0,0-.09-1.73h1.81v1.25a2.56,2.56,0,0,1,2.5-1.4,8.57,8.57,0,0,1,1.24.15Z"/><path class="cls-2" d="M116.38,161.2a10,10,0,0,0-.11,1.73v4.17a11.09,11.09,0,0,0,.11,1.73h-1.81v-1.27a2.93,2.93,0,0,1-2.72,1.42,2.8,2.8,0,0,1-1.6-.39,2.47,2.47,0,0,1-1.08-2.3v-3.36a14.22,14.22,0,0,0-.1-1.73H111a12.46,12.46,0,0,0-.09,1.73v3a1.64,1.64,0,0,0,.61,1.52,1.59,1.59,0,0,0,.74.18c.95,0,1.71-.65,2.31-2V163a14.22,14.22,0,0,0-.11-1.73Z"/><path class="cls-2" d="M124.68,163.75a2.81,2.81,0,0,0-.41-.81,1.71,1.71,0,0,0-1.37-.61c-1.31,0-2.12,1-2.12,2.67s.82,2.69,2.17,2.69a1.78,1.78,0,0,0,1.53-.74,2.05,2.05,0,0,0,.27-.67l1.64.33a3.6,3.6,0,0,1-.55,1.13,3.44,3.44,0,0,1-2.93,1.35,3.7,3.7,0,0,1-3.87-3.52v-.48a4.31,4.31,0,0,1,1.13-3.07,3.69,3.69,0,0,1,2.68-1,3.49,3.49,0,0,1,3,1.43,4.12,4.12,0,0,1,.46,1Z"/><path class="cls-2" d="M131.81,159.15a12.74,12.74,0,0,0-.1,1.63v.42h.56a7.65,7.65,0,0,0,1.35-.08v1.57a8.16,8.16,0,0,0-1.31-.08h-.6v4.12c0,.65.24.89.88.89a1.68,1.68,0,0,0,1-.29l.24,1.41a4.09,4.09,0,0,1-1.66.28c-1.53,0-2.14-.55-2.14-1.94v-4.5h-.51a6.69,6.69,0,0,0-1.18.08v-1.57a5.91,5.91,0,0,0,1.19.08h.5v-.42a12.74,12.74,0,0,0-.1-1.63Z"/><path class="cls-2" d="M138.07,158.24v1.69h-2v-1.69Zm0,3A11.47,11.47,0,0,0,138,163v4.15a12.69,12.69,0,0,0,.1,1.74h-1.95a11.09,11.09,0,0,0,.11-1.73V163a11.09,11.09,0,0,0-.11-1.73Z"/><path class="cls-2" d="M140.73,165a4,4,0,1,1,4,4.06,3.74,3.74,0,0,1-4-3.44h0A3.11,3.11,0,0,1,140.73,165Zm1.71,0c0,1.64.86,2.65,2.24,2.65s2.24-1,2.24-2.63-.82-2.7-2.23-2.7S142.44,163.37,142.44,165Z"/><path class="cls-2" d="M151.29,168.83a11.09,11.09,0,0,0,.11-1.73v-4.17a11.09,11.09,0,0,0-.11-1.73h1.81v.7a5.42,5.42,0,0,1,0,.57,3.07,3.07,0,0,1,2.72-1.41,2.66,2.66,0,0,1,2.26,1,3,3,0,0,1,.45,1.86v3.19a11.09,11.09,0,0,0,.11,1.73h-1.93a16.56,16.56,0,0,0,.09-1.73v-3a2.26,2.26,0,0,0-.23-1.17,1.28,1.28,0,0,0-1.11-.55c-1,0-1.75.67-2.33,2v2.68a11.09,11.09,0,0,0,.11,1.73Z"/><path class="cls-2" d="M167.33,168.83a11.09,11.09,0,0,0,.11-1.73v-4.17a11.09,11.09,0,0,0-.11-1.73h1.81v.7a5.42,5.42,0,0,1,0,.57,3.07,3.07,0,0,1,2.72-1.41,2.66,2.66,0,0,1,2.26,1,3,3,0,0,1,.45,1.86v3.19a11.09,11.09,0,0,0,.11,1.73h-1.93a16.56,16.56,0,0,0,.09-1.73v-3a2.26,2.26,0,0,0-.23-1.17,1.28,1.28,0,0,0-1.11-.55c-1,0-1.75.67-2.33,2v2.68a11.09,11.09,0,0,0,.11,1.73Z"/><path class="cls-2" d="M177.29,165a4,4,0,1,1,4,4.06,3.74,3.74,0,0,1-4-3.46h0A2.91,2.91,0,0,1,177.29,165Zm1.72,0c0,1.64.85,2.65,2.23,2.65s2.24-1,2.24-2.63-.81-2.7-2.22-2.7-2.26,1-2.26,2.68Z"/><path class="cls-2" d="M194.3,168.83a9.09,9.09,0,0,0-.3-1.25l-1-3.14s-.11-.35-.26-.89c-.06.24-.22.78-.26.92l-1,3.11c-.14.45-.29,1-.34,1.26h-1.55a10.62,10.62,0,0,0-.34-1.26l-1.46-4.72c-.19-.62-.38-1.16-.56-1.65h2a8.61,8.61,0,0,0,.29,1.58l.73,2.59c.05.18.13.55.24,1.07a7.86,7.86,0,0,1,.31-1.08l.95-2.9a9,9,0,0,0,.34-1.26h1.42a6.87,6.87,0,0,0,.33,1.26l1,3a3.69,3.69,0,0,0,.18.65,1.57,1.57,0,0,1,.08.31.59.59,0,0,1,.07-.29c.07-.18.13-.62.16-.71l.74-2.66a8.47,8.47,0,0,0,.3-1.58h1.95c-.17.43-.2.54-.54,1.65l-1.6,4.74a9,9,0,0,0-.33,1.26Z"/><path class="cls-2" d="M52.67,88.76a6.51,6.51,0,0,1-.82.84,5.46,5.46,0,0,0-.53-.82v5.74a2.06,2.06,0,0,0,1.06,1.25c.73.38,1.68.52,3.92.52A31.24,31.24,0,0,0,60.51,96,7.64,7.64,0,0,0,60,98H57.7c-1.44,0-3.45-.06-4.12-.13A3.84,3.84,0,0,1,50.33,96a15.71,15.71,0,0,1-2.07,1.75c-.17.13-.4.32-.55.46l-1-2a10.08,10.08,0,0,0,2.79-1.86V90.25h-.34a3.86,3.86,0,0,0-.68,0,11.11,11.11,0,0,1,.09,1.16,2.54,2.54,0,0,1-1,2.32,3.72,3.72,0,0,1-1.71.28h-.3v-.36a3.49,3.49,0,0,0-.32-1.52,2.1,2.1,0,0,0,.66.08c.67,0,.82-.21.82-1a5.67,5.67,0,0,0-1.48-3.74,16.35,16.35,0,0,0,1.61-4.22H45.12v12.9a22,22,0,0,0,.08,2.3H43.13a18.49,18.49,0,0,0,.11-2.35V83.31a15.66,15.66,0,0,0-.07-1.94,8,8,0,0,0,1.29.08h2.16a5.93,5.93,0,0,0,1.26-.08l1.06,1.09.59-.44a19.86,19.86,0,0,1,2,3.42L50,86.73A18.38,18.38,0,0,0,48.62,84a32.12,32.12,0,0,1-1.31,3.42,7.85,7.85,0,0,1,1.06,2.34V88.42a4.87,4.87,0,0,0,1.14.08h1.6a4.23,4.23,0,0,0-.44-.51,9.37,9.37,0,0,0,2.76-3.48h-.12a18.69,18.69,0,0,0-2.12.08v-2a11.55,11.55,0,0,0,2.12.1h.82a9,9,0,0,0,.36-1.79l2.07.25c-.06.15-.15.43-.25.78s-.13.43-.24.76h2a12.08,12.08,0,0,0,2.08-.1v2a20.75,20.75,0,0,0-2.09-.08h-2.7c-.21.46-.32.68-.59,1.2h2.91a11.9,11.9,0,0,0,1.69-.12c0,.55-.07,1.08-.07,1.71v6.4c0,1.37-.42,1.67-2.23,1.67h-1a4.87,4.87,0,0,0-.26-1.65,5.49,5.49,0,0,0,1.14.1c.42,0,.51-.08.51-.4v-.93h-3V93.8a6.85,6.85,0,0,0,.08,1.75h-2a13.44,13.44,0,0,0,.1-1.9Zm4.82-1.46H54.43v1h3.06Zm-3.06,2.57V91h3.06V89.87Z"/><path class="cls-2" d="M64.26,83.9a17.25,17.25,0,0,0-.08-1.9,15.54,15.54,0,0,0,1.67.06h2.3A15.17,15.17,0,0,0,69.8,82a14.74,14.74,0,0,0,0,1.88V96.63H67.87v-1H66.14v1.59h-2A16.52,16.52,0,0,0,64.26,95Zm1.9,3.91h1.71v-4H66.16Zm0,6h1.71V89.58H66.16Zm6.53-9a16.64,16.64,0,0,0-2,.1v-2a11.14,11.14,0,0,0,2,.12h1.67v-.45a8.42,8.42,0,0,0-.12-1.42h2.19a9.59,9.59,0,0,0-.1,1.42v.52H78.4a11.14,11.14,0,0,0,2-.12v2a14.81,14.81,0,0,0-2-.1H76.28v1.81H78.9a12.32,12.32,0,0,0,2.1-.11v2a14.64,14.64,0,0,0-1.87-.09h-.32V90.1H79a9.84,9.84,0,0,0,1.88-.1v2.07A11.8,11.8,0,0,0,79,91.94h-.25v4.29c0,1.1-.19,1.56-.76,1.82a5.14,5.14,0,0,1-2.09.31H74.42a5,5,0,0,0-.46-2,15.27,15.27,0,0,0,2.13.16c.59,0,.7-.1.7-.52V92h-4.5a19,19,0,0,0-2,.11V90a12,12,0,0,0,2.07.09h4.5V88.46h-4.5a14.56,14.56,0,0,0-2.09.09v-2a12.39,12.39,0,0,0,2.11.12h2V84.85Zm.74,11.49A14.74,14.74,0,0,0,71,93.23l1.62-1.07a15,15,0,0,1,2.48,2.91Z"/><path class="cls-2" d="M88.84,92.91h-2a14.81,14.81,0,0,0,.1-2V84a20.88,20.88,0,0,0-.1-2.37,13.33,13.33,0,0,0,2,.09h8.75a13.33,13.33,0,0,0,2-.09,20.88,20.88,0,0,0-.1,2.37v7a13.34,13.34,0,0,0,.1,2H95.91v2.92c0,.53.17.59,1.65.59s1.85-.08,2.07-.4a6,6,0,0,0,.37-2.48,7.68,7.68,0,0,0,2,.8c-.19,2.11-.38,2.81-.85,3.26s-1.35.65-3.5.65c-3.15,0-3.72-.27-3.72-1.69V92.9H92.15a5.87,5.87,0,0,1-1.81,3.51,9.6,9.6,0,0,1-4.82,2.28,5.94,5.94,0,0,0-1.1-1.86,9.34,9.34,0,0,0,3.7-1.25,3.75,3.75,0,0,0,1.81-2.67Zm0-8h8.57V83.63H88.88Zm0,3.06h8.57V86.66H88.88Zm0,3.13h8.57V89.71H88.88Z"/><path class="cls-2" d="M107.92,93.27a20,20,0,0,0-2.32.11V91.27a13.59,13.59,0,0,0,2.3.13h5.17v-.13a8.39,8.39,0,0,0-.06-1h.82a10.37,10.37,0,0,0,2.24-1.54h-5.22a15.09,15.09,0,0,0-1.9.07V86.9a12.17,12.17,0,0,0,1.91.1h6.29a7.84,7.84,0,0,0,1.45-.08l1,1.16-.6.5a25.89,25.89,0,0,1-3.8,2.78h5a14,14,0,0,0,2.33-.13v2.15a20.54,20.54,0,0,0-2.35-.11h-4.94v3.31a1.8,1.8,0,0,1-.25,1.2c-.32.47-1,.62-2.68.62-.25,0-.87,0-1.86-.07a7.06,7.06,0,0,0-.63-2,14.36,14.36,0,0,0,2.36.19c.84,0,1,0,1-.43V93.27Zm1-9.39a12.75,12.75,0,0,0-1.43-2.15l1.92-.57a14.07,14.07,0,0,1,1.73,2.72h2A10.7,10.7,0,0,0,112,81.49l2-.55a15.16,15.16,0,0,1,1.31,2.94h1.62A12.13,12.13,0,0,0,118.48,81l2.06.57a18.54,18.54,0,0,1-1.43,2.28H120a20.08,20.08,0,0,0,2.33-.07,13.75,13.75,0,0,0-.07,1.57v1.77a11.6,11.6,0,0,0,.09,1.44h-2.07V85.65H107.81v2.93h-2.08a7.91,7.91,0,0,0,.1-1.46V85.38a11.8,11.8,0,0,0-.08-1.57,18.79,18.79,0,0,0,2.25.07Z"/><path class="cls-2" d="M142.14,83a8.94,8.94,0,0,0-.71.66A33,33,0,0,1,137,87.58v8.11a14.9,14.9,0,0,0,.09,2.11h-2.65a10.91,10.91,0,0,0,.11-2.06V89.09a30,30,0,0,1-6.78,3.07A7.45,7.45,0,0,0,126.5,90a27.64,27.64,0,0,0,10-4.94,14.93,14.93,0,0,0,3.5-3.55Z"/><path class="cls-2" d="M147.06,90.91a3,3,0,0,0,.68-.55c.55-.55,2.42-2.75,3.4-4a6.09,6.09,0,0,1,1.43-1.48,2.35,2.35,0,0,1,1.29-.38c.93,0,1.39.31,2.83,1.94a65.26,65.26,0,0,0,6.16,6.06,12.92,12.92,0,0,0,1.8,1.42l-1.2,2.61a97.4,97.4,0,0,1-8-8c-1.22-1.33-1.22-1.33-1.54-1.33s-.38.06-1.16,1.1-2.07,2.64-3.4,4.24c-.28.32-.38.45-.65.78Zm13-6.72a10,10,0,0,1,1.84,2.58l-1.42.8A12.29,12.29,0,0,0,158.64,85Zm2.47,2.18a13.11,13.11,0,0,0-1.78-2.53l1.36-.74A10.38,10.38,0,0,1,164,85.58Z"/><path class="cls-2" d="M169.52,94.65a17.92,17.92,0,0,0,5.62-1.4,12.6,12.6,0,0,0,5.64-4.67,15.49,15.49,0,0,0,1.94-3.8,8.27,8.27,0,0,0,2,1.87,16.46,16.46,0,0,1-6,7.44,20.42,20.42,0,0,1-7.24,2.85,7.91,7.91,0,0,0-1.25.32Zm1.61-11.79a27,27,0,0,1,4.9,3.66l-1.63,2.06a20.48,20.48,0,0,0-4.84-3.85Z"/><path class="cls-2" d="M193.17,97.79a12.68,12.68,0,0,0,.12-2.13V83.48a12.56,12.56,0,0,0-.12-1.94h2.6a14.8,14.8,0,0,0-.07,2v3.53a57.11,57.11,0,0,1,8.62,4L203,93.32a46.31,46.31,0,0,0-6.72-3.63,3,3,0,0,1-.65-.32,9.31,9.31,0,0,1,.08,1.29v5a16.53,16.53,0,0,0,.07,2.11Z"/><path class="cls-2" d="M109.53,121.18a22.35,22.35,0,0,0-1.67,1.84,16.81,16.81,0,0,1-2.37,2.09,21,21,0,0,0,6.84,1.67,7.57,7.57,0,0,0-1,2.11,21.29,21.29,0,0,1-5.15-1.25,16,16,0,0,1-2.62-1.3,24.09,24.09,0,0,1-7.51,2.59,9.12,9.12,0,0,0-1-2,22.22,22.22,0,0,0,6.78-1.83,14.84,14.84,0,0,1-3.09-3.52,3.25,3.25,0,0,0-.93.07v-2a15.66,15.66,0,0,0,1.94.1h6.9a8.32,8.32,0,0,0,1.65-.1Zm-13.07-6.69a11.62,11.62,0,0,0-.68-1.9h1.5a77.4,77.4,0,0,0,8.61-.51,18.62,18.62,0,0,0,3.83-.86l1.28,1.86c-.3.06-.36.06-.81.18-.74.17-1.33.28-2.3.43l1.84.59c-.85,1.65-.87,1.71-1.16,2.19h1.26a14.8,14.8,0,0,0,2-.08c0,.49-.06.91-.06,1.6v1.38a9.55,9.55,0,0,0,.1,1.41h-2.11V118.4H97.34v2.47H95.23a10.14,10.14,0,0,0,.11-1.46V118a12.55,12.55,0,0,0-.07-1.62,13.25,13.25,0,0,0,2.09.1h1.19a12,12,0,0,0-.81-2Zm6.37,2c-.25-.8-.5-1.5-.78-2.19-.06,0-.8.06-2.22.13a19.13,19.13,0,0,1,.81,2.06ZM101,121.58a8.85,8.85,0,0,0,2.61,2.49,12.54,12.54,0,0,0,2.85-2.49Zm5.42-5.11a16.13,16.13,0,0,0,1.25-2.74,5.58,5.58,0,0,1-.82.11c-.2,0-.68.08-1.38.14q-.7,0-1.41.15a13.89,13.89,0,0,1,.76,2.34Z"/><path class="cls-2" d="M120.35,126.58a17.39,17.39,0,0,0,.09,2.28h-2.28a19.34,19.34,0,0,0,.11-2.28v-7.73a9.64,9.64,0,0,1-1.63,2.17,8.43,8.43,0,0,0-1.07-2.17,15.89,15.89,0,0,0,3.56-5.27,10.06,10.06,0,0,0,.78-2.38l2.18.61c-.13.29-.26.61-.45,1.1s-.76,1.83-1.29,2.89Zm8.26-12.75a16.75,16.75,0,0,0-.13-2.35h2.29a23.1,23.1,0,0,0-.11,2.35v1.68h.55a9.44,9.44,0,0,0,1.84-.12v2.09c-.51,0-1.12-.07-1.78-.07h-.61v8.87c0,1-.21,1.58-.65,1.86a4.14,4.14,0,0,1-2.33.36,19,19,0,0,1-2-.08,6.63,6.63,0,0,0-.6-2.14,16.51,16.51,0,0,0,2.33.19c1.07,0,1.22-.06,1.22-.48v-8.57h-5.17a20.87,20.87,0,0,0-2.24.11V115.4a15.41,15.41,0,0,0,2.15.12h5.26Zm-4.88,4.85a22,22,0,0,1,2.92,4.43l-1.76,1.25a18.71,18.71,0,0,0-2.82-4.62Z"/><path class="cls-2" d="M144.19,113.41a13.06,13.06,0,0,0-.11-2.07h2.39a13.34,13.34,0,0,0-.11,2v1.24h5.2a11.08,11.08,0,0,0,1.73-.08,13.25,13.25,0,0,0-.08,1.67V122a12.1,12.1,0,0,0,.1,1.9h-2.24v-1.14h-4.71v3.85a14.31,14.31,0,0,0,.13,2.36h-2.43a16.89,16.89,0,0,0,.13-2.36v-3.85h-4.48v1.14h-2.25a13.44,13.44,0,0,0,.1-1.9v-5.83a13,13,0,0,0-.08-1.65,12.24,12.24,0,0,0,1.71.08h5Zm-4.48,3.17v4.12h4.48v-4.12Zm11.36,4.12v-4.12h-4.71v4.12Z"/><line class="cls-3" x1="220" y1="141.5" x2="30" y2="141.5"/></svg>