<svg id="レイヤー_1" data-name="レイヤー 1" xmlns="http://www.w3.org/2000/svg" viewBox="0 0 250 250"><defs><style>.cls-1,.cls-3{fill:none;}.cls-2{fill:#fff;}.cls-3{stroke:#fff;stroke-miterlimit:10;}</style></defs><rect class="cls-1" width="250" height="250"/><path class="cls-2" d="M78.57,157.16a8.82,8.82,0,0,0-.59-1.8l-1.91-4.56a13.09,13.09,0,0,1-.68-2c0,.71.1,1.8.1,2.09v4.37a11.42,11.42,0,0,0,.11,1.94H73.74a12.55,12.55,0,0,0,.1-1.94v-6.68a13.34,13.34,0,0,0-.1-2h2.43a9.67,9.67,0,0,0,.5,1.58l2.7,6.6,2.68-6.6a7.38,7.38,0,0,0,.48-1.58H85a13.34,13.34,0,0,0-.11,2v6.68A11.42,11.42,0,0,0,85,157.2H83.12a12.55,12.55,0,0,0,.1-1.94v-4.42c.06-1.16.1-1.84.11-2a15.16,15.16,0,0,1-.61,1.95l-2,4.68a12.21,12.21,0,0,0-.58,1.77Z"/><path class="cls-2" d="M87.76,153.36a4,4,0,1,1,4,4,3.74,3.74,0,0,1-4-3.46A4.86,4.86,0,0,1,87.76,153.36Zm1.71,0c0,1.63.85,2.64,2.24,2.64s2.23-1,2.23-2.62-.81-2.7-2.22-2.7S89.47,151.69,89.47,153.36Z"/><path class="cls-2" d="M104.29,156.49V156a2.85,2.85,0,0,1-2.68,1.32,3.43,3.43,0,0,1-2.23-.68A4.11,4.11,0,0,1,98,153.33c0-2.44,1.4-4,3.59-4a3.12,3.12,0,0,1,2,.61,3.37,3.37,0,0,1,.68.73v-2.32a12.07,12.07,0,0,0-.1-1.8h1.88a13.27,13.27,0,0,0-.09,1.78v7a13.57,13.57,0,0,0,.09,1.8h-1.77Zm-2.37-.59a2.25,2.25,0,0,0,1.79-.88,3.05,3.05,0,0,0,.51-1.78,2.79,2.79,0,0,0-.64-1.77,2.38,2.38,0,0,0-1.72-.74c-1.3,0-2.12,1-2.12,2.59s.85,2.6,2.18,2.6Z"/><path class="cls-2" d="M110.42,153.78a2.49,2.49,0,0,0,.49,1.49,2.15,2.15,0,0,0,1.67.75,2,2,0,0,0,2-1.36l1.57.5a4,4,0,0,1-.81,1.23,3.85,3.85,0,0,1-2.74,1,3.68,3.68,0,0,1-3.86-3.47,3.13,3.13,0,0,1,0-.53c0-2.43,1.48-4.08,3.75-4.08a3.37,3.37,0,0,1,3.31,2.11,5.24,5.24,0,0,1,.39,2v.37Zm4.06-1.32a2,2,0,0,0-.59-1.27,1.87,1.87,0,0,0-1.43-.54,2,2,0,0,0-2,1.81Z"/><path class="cls-2" d="M120.78,146.57a12.68,12.68,0,0,0-.09,1.74v7.12a12.46,12.46,0,0,0,.09,1.73h-1.93a12.46,12.46,0,0,0,.09-1.73V148.3a12.46,12.46,0,0,0-.09-1.73Z"/><path class="cls-2" d="M131.45,146.57a11.47,11.47,0,0,0-.1,1.76v2.47a3.08,3.08,0,0,1,2.75-1.41,2.44,2.44,0,0,1,2.68,2.17,2.26,2.26,0,0,1,0,.52v3.35a11.09,11.09,0,0,0,.1,1.73H135a14.22,14.22,0,0,0,.1-1.73v-2.94a1.9,1.9,0,0,0-.39-1.32,1.2,1.2,0,0,0-.92-.39c-1,0-1.77.64-2.37,2v2.69a11.09,11.09,0,0,0,.11,1.73h-1.92a11.09,11.09,0,0,0,.11-1.73v-7.12a12.68,12.68,0,0,0-.09-1.74Z"/><path class="cls-2" d="M139.51,153.36a4,4,0,1,1,4,4,3.74,3.74,0,0,1-4-3.46A4.86,4.86,0,0,1,139.51,153.36Zm1.71,0c0,1.63.85,2.64,2.24,2.64s2.23-1,2.23-2.62-.81-2.7-2.22-2.7S141.22,151.69,141.22,153.36Z"/><path class="cls-2" d="M157.36,149.49a9.09,9.09,0,0,0-.11,1.73v4.18a11.09,11.09,0,0,0,.11,1.73h-1.81v-1.21a3.36,3.36,0,0,1-4.32,1,2.47,2.47,0,0,1-1.08-2.3v-3.37a11.09,11.09,0,0,0-.11-1.73h2a12.46,12.46,0,0,0-.09,1.73v3a1.34,1.34,0,0,0,1,1.64h0a1.74,1.74,0,0,0,.39,0c1,0,1.72-.65,2.32-2V151.3a14.22,14.22,0,0,0-.11-1.73Z"/><path class="cls-2" d="M161.84,154.77c.22.9.72,1.26,1.75,1.26s1.6-.39,1.6-1a.81.81,0,0,0-.35-.67c-.25-.17-.33-.18-1.39-.42a9.21,9.21,0,0,1-1.92-.57,1.92,1.92,0,0,1-1.17-1.77,2,2,0,0,1,.41-1.24,3.2,3.2,0,0,1,2.66-1,3.62,3.62,0,0,1,2.51.77,2.59,2.59,0,0,1,.71,1.32l-1.75.22c-.15-.73-.6-1-1.47-1s-1.38.38-1.38.94a.72.72,0,0,0,.41.62,5.52,5.52,0,0,0,1.33.4,5.64,5.64,0,0,1,2.35.81,1.89,1.89,0,0,1,.77,1.65,2.12,2.12,0,0,1-.66,1.5,3.92,3.92,0,0,1-2.75.87,3.55,3.55,0,0,1-3-1.18,2.89,2.89,0,0,1-.52-1.19Z"/><path class="cls-2" d="M170.93,153.78a2.43,2.43,0,0,0,.5,1.49,2.11,2.11,0,0,0,1.66.75,2.14,2.14,0,0,0,1.6-.67,2,2,0,0,0,.38-.69l1.57.5a3.61,3.61,0,0,1-.81,1.23,3.75,3.75,0,0,1-2.74,1,3.68,3.68,0,0,1-3.85-3.48,3,3,0,0,1,0-.52c0-2.43,1.47-4.08,3.75-4.08a3.37,3.37,0,0,1,3.31,2.11,5.48,5.48,0,0,1,.39,2v.37Zm4.07-1.29a2.08,2.08,0,0,0-.58-1.27,1.89,1.89,0,0,0-1.44-.54,2,2,0,0,0-2,1.81Z"/><path class="cls-2" d="M35.28,101.73a19,19,0,0,0-2.39.09V99.49a14.09,14.09,0,0,0,2.43.13h3.44V96.37H36.44a16.55,16.55,0,0,0-2.44.12v-2.3a14.32,14.32,0,0,0,2.45.13h8.66a13.59,13.59,0,0,0,2.47-.13v2.3a15.2,15.2,0,0,0-2.43-.1h-4v3.29h5.28a14.14,14.14,0,0,0,2.43-.19v2.29a19.26,19.26,0,0,0-2.4-.09H41.1v3c0,1.14.09,1.42.51,1.61a4.84,4.84,0,0,0,2,.25c.69,0,1.85-.06,2.84-.15a9.56,9.56,0,0,0,1.76-.32l.06,2.41H48c-.17,0-.17,0-1.54.11-.84.06-2.11.12-3,.12-3.71,0-4.58-.63-4.58-3.31v-3.68Z"/><path class="cls-2" d="M63.27,100.8a10.5,10.5,0,0,1-1.33,5.11c-1,1.67-2.4,2.72-5,3.74a6,6,0,0,0-1.56-2.11c2.26-.7,3.71-1.71,4.5-3.15a7.83,7.83,0,0,0,.84-3.59H56.14a19.42,19.42,0,0,0-2.41.09V98.63a13.38,13.38,0,0,0,2.45.14H67.3a13.38,13.38,0,0,0,2.45-.14v2.26a19.51,19.51,0,0,0-2.42-.09Zm4.35-6.31A9.64,9.64,0,0,1,69,97.13l-1.46.61a10.42,10.42,0,0,0-1.26-2.6v1a16.2,16.2,0,0,0-2.41-.1H58.06a16.2,16.2,0,0,0-2.41.1V93.83A13.4,13.4,0,0,0,58.1,94h5.68a13.38,13.38,0,0,0,2.45-.13V95Zm2,2.42a12.27,12.27,0,0,0-1.31-2.61l1.41-.55A9.72,9.72,0,0,1,71,96.28Z"/><path class="cls-2" d="M80.2,93.81a35.47,35.47,0,0,0-.2,4.25c-.14,3.71-.55,5.85-1.54,7.81a12.39,12.39,0,0,1-2.62,3.52,6.64,6.64,0,0,0-1.92-1.85,8.14,8.14,0,0,0,2-2.18c1.36-2.19,1.8-4.64,1.8-10a9,9,0,0,0-.08-1.72Zm5-.23a10.9,10.9,0,0,0-.13,1.8L85,106.19A7.76,7.76,0,0,0,87.91,104a9.46,9.46,0,0,0,1.86-3.48,8,8,0,0,0,1.79,1.79,11.94,11.94,0,0,1-3,4.42,12.44,12.44,0,0,1-4,2.28,8.41,8.41,0,0,0-.82.35l-1.21-1.3a9,9,0,0,0,.17-2l.09-10.71v-.57a7.61,7.61,0,0,0-.07-1.26Z"/><path class="cls-2" d="M102,94.78a7.31,7.31,0,0,0-.25,1.46,33.68,33.68,0,0,1-1.5,6.5,18.08,18.08,0,0,1-3.36,5.87A8.17,8.17,0,0,0,94.72,107a13,13,0,0,0,2.72-4,23,23,0,0,0,1.78-6.52,14.15,14.15,0,0,0,.18-1.84v-.27Zm5.39-.48a24,24,0,0,0,.8,4.37,18.37,18.37,0,0,0,4.24,8.21,8,8,0,0,0-2.09,1.75,20.28,20.28,0,0,1-3.23-5.59,30.46,30.46,0,0,1-1.81-6.91,9.19,9.19,0,0,0-.26-1.37Z"/><path class="cls-2" d="M132,97a3.12,3.12,0,0,0-.29,1,16.18,16.18,0,0,1-1.19,4.59,11.06,11.06,0,0,1-4.7,5.25,17.61,17.61,0,0,1-3.78,1.71,6.82,6.82,0,0,0-1.52-2.26,12.81,12.81,0,0,0,4-1.58,9.41,9.41,0,0,0,4.56-7.62h-9.27v2.45a12.79,12.79,0,0,0,.06,1.52H117.4a12.12,12.12,0,0,0,.1-1.59V97.72a15.49,15.49,0,0,0-.08-1.8,16.64,16.64,0,0,0,2,.09h3.72V94.38a6.46,6.46,0,0,0-.09-1.39h2.64a7.82,7.82,0,0,0-.09,1.37V96H129a4.55,4.55,0,0,0,1.87-.15Z"/><path class="cls-2" d="M151.79,109.16a35.7,35.7,0,0,0-5.79-5.67,22.93,22.93,0,0,1-7.24,5.49,7.25,7.25,0,0,0-1.54-2.11,16.75,16.75,0,0,0,3.8-2.09,18.41,18.41,0,0,0,6.38-7.73l.21-.5-6.29.12a12,12,0,0,0-2.07.15l-.07-2.43a9.31,9.31,0,0,0,1.67.11H148a4.4,4.4,0,0,0,1.69-.21l1.21,1.21a3.32,3.32,0,0,0-.61,1,26,26,0,0,1-3,5.25,28.24,28.24,0,0,1,3.52,2.75c.47.42.47.42,2.77,2.64Z"/><path class="cls-2" d="M165.28,93.87a1.17,1.17,0,0,0-.17.28,1.14,1.14,0,0,1-.1.19,4.44,4.44,0,0,0-.24.49,23,23,0,0,1-3.16,4.66,20.4,20.4,0,0,1-2.92,2.73,9.2,9.2,0,0,0-1.45-2,15.38,15.38,0,0,0,4.7-4.9,7,7,0,0,0,1-2.36Zm6.86,16.2c-.48-1-.65-1.35-1-2a98.51,98.51,0,0,1-10.28,1,11.84,11.84,0,0,0-2.22.21l-.38-2.43h2.47a49.92,49.92,0,0,0,2.79-5.63,15,15,0,0,0,1.1-3.27l2.51.65c-.11.23-.19.38-.38.84a61.6,61.6,0,0,1-3.55,7.31,61.07,61.07,0,0,0,6.88-.63,27,27,0,0,0-2.42-3.38l1.87-1a48.81,48.81,0,0,1,4.65,7.08ZM169.36,93a12.24,12.24,0,0,0,2.11,3.74,16.34,16.34,0,0,0,2.09,2.15,21.16,21.16,0,0,0,1.81,1.29,9.31,9.31,0,0,0-1.37,2.09,20.31,20.31,0,0,1-4.39-4.39A19.17,19.17,0,0,1,167.87,95c0-.1-.12-.23-.21-.44l-.19-.38-.16-.3Z"/><path class="cls-2" d="M181.22,107.7a17.87,17.87,0,0,0,.11,2.31h-2.22a15.36,15.36,0,0,0,.12-2.35V95.12a18.87,18.87,0,0,0-.08-2.13,19,19,0,0,0,2,.08h3.45a17.88,17.88,0,0,0,1.94-.08v4.69a16.26,16.26,0,0,0,0,1.71h-5.28Zm0-12.2h3.36v-1h-3.36Zm0,2.37h3.36v-1h-3.36Zm3.17,5.62v-1.75a17.24,17.24,0,0,0-1.9.07v-1.68a13.73,13.73,0,0,0,1.92.1H190a13.34,13.34,0,0,0,2-.1v1.71a19,19,0,0,0-2-.07v1.72h2.2v1.7a11.59,11.59,0,0,0-1.95-.1H190v2.81a8.81,8.81,0,0,0,.09,1.62h-2a8.07,8.07,0,0,0,.1-1.63v-2.8H186a6.8,6.8,0,0,1-2.3,4.69,9.47,9.47,0,0,0-1.52-1.31,4.6,4.6,0,0,0,2-3.38,12.13,12.13,0,0,0-2,.1v-1.7a19,19,0,0,0,2,.08Zm1.81-1.75v1.75h2v-1.72Zm9,5.91c0,1.69-.57,2.12-2.7,2.12h-1.23a6.93,6.93,0,0,0-.51-2,12.77,12.77,0,0,0,1.74.15c.61,0,.73-.07.73-.49V99.34h-5.45V94.76c0-.72,0-1.22-.05-1.77a17.8,17.8,0,0,0,1.93.08h3.63a19,19,0,0,0,2-.08c-.06.7-.08,1.16-.08,2.11Zm-5.51-12.16h3.54v-1h-3.54Zm0,2.37h3.54v-1h-3.54Z"/><path class="cls-2" d="M206.89,94.61a13.12,13.12,0,0,0-.11-2.08h2.39a13.34,13.34,0,0,0-.11,2v1.24h5.2a14.48,14.48,0,0,0,1.74-.08,13.25,13.25,0,0,0-.08,1.67v5.79a12.1,12.1,0,0,0,.1,1.9h-2.24v-1.14h-4.71v3.86a14.31,14.31,0,0,0,.13,2.36h-2.43a16.89,16.89,0,0,0,.13-2.36v-3.86h-4.48v1.14h-2.24a15.11,15.11,0,0,0,.09-1.9V97.34a13,13,0,0,0-.08-1.65,16.31,16.31,0,0,0,1.71.08h5Zm-4.48,3.17v4.12h4.48V97.78Zm11.36,4.12V97.78h-4.71v4.12Z"/><line class="cls-3" x1="220" y1="130.5" x2="30" y2="130.5"/></svg>