<svg id="レイヤー_1" data-name="レイヤー 1" xmlns="http://www.w3.org/2000/svg" viewBox="0 0 250 250"><defs><style>.cls-1,.cls-3{fill:none;}.cls-2{fill:#fff;}.cls-3{stroke:#fff;stroke-miterlimit:10;}</style></defs><rect class="cls-1" width="250" height="250"/><path class="cls-2" d="M51.824,95.027a10.326,10.326,0,0,0,1.045-.038,2.09,2.09,0,1,1,2.108,2.147,1.256,1.256,0,0,1-.209-.019,19.573,19.573,0,0,1-2.564,6.136,16.57,16.57,0,0,1-4.731,4.6,20.261,20.261,0,0,1-3.609,1.88,6.989,6.989,0,0,0-1.672-2.26,15.438,15.438,0,0,0,4.16-1.938,13.16,13.16,0,0,0,5.756-8.283H43.066a15.083,15.083,0,0,0-2.394.114V94.9a13.5,13.5,0,0,0,2.432.132Zm2.052,0a1.083,1.083,0,1,0,2.165,0,1.07,1.07,0,0,0-1.083-1.082A1.094,1.094,0,0,0,53.876,95.027Z"/><path class="cls-2" d="M63.32,107.736v1.33H60.869a12.69,12.69,0,0,0,.076-1.633V96.547a12.591,12.591,0,0,0-.076-1.595c.456.037.855.056,1.615.056h10.79c.817,0,1.159-.019,1.6-.056-.038.493-.057.873-.057,1.576V107.4a13.006,13.006,0,0,0,.076,1.652h-2.45v-1.311Zm9.119-10.581H63.32v8.416h9.119Z"/><path class="cls-2" d="M81.18,98.5a27.991,27.991,0,0,1,5.053,2.583l-1.177,2.147a21.524,21.524,0,0,0-5.149-2.774Zm-.855,8.511a16.868,16.868,0,0,0,5.49-1.235,11.7,11.7,0,0,0,5.491-4.16,14.4,14.4,0,0,0,2.2-4.218,9.811,9.811,0,0,0,1.976,1.691,16.306,16.306,0,0,1-2.85,4.806c-2.412,2.793-5.642,4.483-10.315,5.395a11.413,11.413,0,0,0-1.33.323Zm2.318-13.108a30.417,30.417,0,0,1,5.053,2.45l-1.216,2.09a22.169,22.169,0,0,0-5.072-2.6Zm10.126.075a9.877,9.877,0,0,1,1.785,2.489l-1.425.817a11.555,11.555,0,0,0-1.785-2.545Zm2.412,2.109a11.946,11.946,0,0,0-1.729-2.45L94.8,92.9a10.057,10.057,0,0,1,1.767,2.374Z"/><path class="cls-2" d="M108.406,107.148h3.875a8.751,8.751,0,0,0,1.767-.114v2.127a15.084,15.084,0,0,0-1.767-.076H102.5a14.67,14.67,0,0,0-1.767.076v-2.127a8.649,8.649,0,0,0,1.747.114H106.2v-6.117h-2.545a10.293,10.293,0,0,0-1.748.114V98.96a8.74,8.74,0,0,0,1.729.133H111.1a8.828,8.828,0,0,0,1.748-.133v2.146a12.877,12.877,0,0,0-1.728-.075h-2.717Z"/><path class="cls-2" d="M134.264,96.68a3.574,3.574,0,0,0-.475,1.14,19.716,19.716,0,0,1-3.894,7.333,19.2,19.2,0,0,1-6.763,4.825,5.864,5.864,0,0,0-1.615-1.995,17.087,17.087,0,0,0,4.16-2.241,15.043,15.043,0,0,0,5.548-8.017l-5.719.095a18.572,18.572,0,0,1-4.445,4.863,5.048,5.048,0,0,0-1.843-1.634,14.609,14.609,0,0,0,4.921-5.508,7.085,7.085,0,0,0,.968-2.508l2.6.512a3.973,3.973,0,0,0-.323.59,3.835,3.835,0,0,0-.247.532c-.057.113-.057.113-.247.494a4.537,4.537,0,0,1-.3.607c.247-.019.551-.038.912-.038l4.161-.057a3.363,3.363,0,0,0,1.386-.19Z"/><path class="cls-2" d="M138.636,109.693a12.8,12.8,0,0,0,.114-2.128V95.388a12.2,12.2,0,0,0-.114-1.937h2.6a12.89,12.89,0,0,0-.075,1.994v3.534a55.794,55.794,0,0,1,8.624,4.008l-1.33,2.242a44.853,44.853,0,0,0-6.725-3.628,5.858,5.858,0,0,1-.646-.324,9.675,9.675,0,0,1,.077,1.292v5.015c0,.988.019,1.482.075,2.109Z"/><path class="cls-2" d="M154.235,100.081a8.5,8.5,0,0,0,1.52.095h1.425a8.362,8.362,0,0,0,1.443-.095,19.123,19.123,0,0,0-.076,2.07v3.971a2.634,2.634,0,0,0,1.368,1.387,10.054,10.054,0,0,0,4.18.551,55.559,55.559,0,0,0,7.9-.418,9.961,9.961,0,0,0-.57,2.241c-1.691.076-4.161.114-6.4.114a17.723,17.723,0,0,1-5.09-.418,4.45,4.45,0,0,1-2.356-1.747,17.764,17.764,0,0,1-2.2,1.842,7.118,7.118,0,0,0-.627.494L153.817,108a11.317,11.317,0,0,0,2.736-1.88v-4.084h-1.045a6.677,6.677,0,0,0-1.273.094Zm1.653-6.935a23.067,23.067,0,0,1,3.305,3.439l-1.576,1.539a19.165,19.165,0,0,0-3.23-3.553Zm11.246,11.741h2.28a12.107,12.107,0,0,0,1.918-.095v1.956a13.22,13.22,0,0,0-1.9-.094h-7.447a13.78,13.78,0,0,0-1.729.076,16.933,16.933,0,0,0,.076-1.919V99.986c0-.4,0-.665.038-1.121a7.837,7.837,0,0,1-1.159,1.387,6.2,6.2,0,0,0-1.2-1.672,13.2,13.2,0,0,0,3.59-4.939,3.978,3.978,0,0,0,.285-.836l2.166.361c-.3.588-.3.588-.589,1.215-.019.038-.209.4-.57,1.045h2.374a11.377,11.377,0,0,0,1.216-2.545l2.071.361c-.133.228-.19.341-.456.836a12.769,12.769,0,0,1-.779,1.348H169.3a12.956,12.956,0,0,0,1.881-.094V97.25a12.562,12.562,0,0,0-1.615-.076h-2.432V98.6h1.539a14.531,14.531,0,0,0,1.919-.076v1.767c-.532-.038-.874-.058-1.919-.058h-1.539v1.407h1.539a14.531,14.531,0,0,0,1.919-.076v1.766c-.532-.038-.874-.057-1.919-.057h-1.539ZM165.2,97.174h-2.888V98.6H165.2Zm0,3.058h-2.888v1.407H165.2Zm-2.888,3.04v1.615H165.2v-1.615Z"/><path class="cls-2" d="M176.541,104.64c0-.8,0-.912.038-2.2a9.363,9.363,0,0,1-1.729,1.615,8.7,8.7,0,0,0-.95-2.032A13.614,13.614,0,0,0,178.574,97l1.785,1.178a6.715,6.715,0,0,0-.627.836c-.436.627-.608.874-1.1,1.481v7.485a16.316,16.316,0,0,0,.133,2.394h-2.356a16.44,16.44,0,0,0,.133-2.413Zm3.534-10.62c-.209.228-.209.228-.571.647a18.141,18.141,0,0,1-4.369,3.8,8.583,8.583,0,0,0-1.2-1.786,11.988,11.988,0,0,0,3.4-2.6,6.689,6.689,0,0,0,.912-1.33Zm2.564,6.536a20.409,20.409,0,0,0-2.336.113V98.542a19.481,19.481,0,0,0,2.336.114H189.1a16.722,16.722,0,0,0,2.318-.114v2.127a19.942,19.942,0,0,0-2.261-.113h-.817v7.561c0,1.634-.55,2.032-2.849,2.032-.646,0-1.216-.019-2.109-.057a7.642,7.642,0,0,0-.551-2.128,22.109,22.109,0,0,0,2.584.209c.76,0,.855-.038.855-.455v-7.162Zm-1.577-6.839a16.439,16.439,0,0,0,2.223.114h5.13a16.263,16.263,0,0,0,2.165-.114v2.108a18.691,18.691,0,0,0-2.128-.114h-5.167a19.463,19.463,0,0,0-2.223.114Z"/><path class="cls-2" d="M201.183,94.914a12.318,12.318,0,0,0-.114-2.071h2.394a13.925,13.925,0,0,0-.114,1.994v1.235h5.205A13.588,13.588,0,0,0,210.283,96a13.924,13.924,0,0,0-.077,1.672v5.794a13.055,13.055,0,0,0,.1,1.9H208.06v-1.14h-4.711v3.857a14.941,14.941,0,0,0,.133,2.355H201.05a15.924,15.924,0,0,0,.133-2.355v-3.857H196.7v1.14h-2.242a14.24,14.24,0,0,0,.095-1.9V97.649A14.874,14.874,0,0,0,194.477,96a14.64,14.64,0,0,0,1.71.076h5ZM196.7,98.086v4.122h4.483V98.086Zm11.36,4.122V98.086h-4.711v4.122Z"/><path class="cls-2" d="M85.778,153.5c.247.39.65,1.04.936,1.547-.052-.689-.078-1.287-.078-1.769v-4.849a10.034,10.034,0,0,0-.1-1.664h1.625a9.911,9.911,0,0,0-.1,1.678v6.89a9.02,9.02,0,0,0,.1,1.6H86.35a11.341,11.341,0,0,0-.767-1.313l-3.692-5.551c-.2-.313-.52-.858-.807-1.417.053.559.079,1.222.079,1.689v4.8a10.754,10.754,0,0,0,.1,1.794H79.655a12.131,12.131,0,0,0,.1-1.794v-6.786a9.862,9.862,0,0,0-.1-1.587H81.41a6.8,6.8,0,0,0,.741,1.3Z"/><path class="cls-2" d="M92.316,153.614a2.569,2.569,0,0,0,.507,1.6,2.269,2.269,0,0,0,3.328.1,2.027,2.027,0,0,0,.391-.715l1.287.442a3.381,3.381,0,0,1-.754,1.144,3.538,3.538,0,0,1-2.562.962c-2.183,0-3.574-1.5-3.574-3.848s1.377-3.862,3.483-3.862a3.269,3.269,0,0,1,3.381,3.042c.026.169.026.169.091,1.132Zm4.161-1.105a2.116,2.116,0,0,0-.625-1.391,2.066,2.066,0,0,0-3.172.455,2.339,2.339,0,0,0-.325.936Z"/><path class="cls-2" d="M106.708,156.929a9.961,9.961,0,0,0-.3-1.131l-1.119-3.367c-.025-.091-.064-.234-.233-.846-.078.3-.208.742-.247.872l-1.118,3.341a9.189,9.189,0,0,0-.3,1.131h-1.274a8.506,8.506,0,0,0-.312-1.144l-1.417-4.551c-.169-.558-.365-1.156-.534-1.586h1.625a7.591,7.591,0,0,0,.3,1.5l.8,2.821c.053.169.143.558.235,1,.039-.169.247-.871.286-1.014l1.066-3.173a7.833,7.833,0,0,0,.285-1.131h1.184a9.906,9.906,0,0,0,.3,1.131l1.079,3.277c.039.1.13.416.182.611a1.327,1.327,0,0,0,.078.3c.13-.6.208-.91.208-.936l.832-2.886a7.817,7.817,0,0,0,.286-1.5h1.625a16.35,16.35,0,0,0-.533,1.586l-1.43,4.564c-.169.585-.234.819-.3,1.131Z"/><path class="cls-2" d="M118.239,156.929a9.745,9.745,0,0,0,.1-1.586v-7.021a11.271,11.271,0,0,0-.1-1.6c.493.025.884.038,1.56.038h2.691c2.2,0,3.393,1.079,3.393,3.03,0,2.027-1.261,3.2-3.458,3.2h-2.653v2.327a9.571,9.571,0,0,0,.1,1.612Zm4.186-5.187a1.753,1.753,0,0,0,1.976-1.911c0-1.2-.676-1.821-1.976-1.821h-2.653v3.732Z"/><path class="cls-2" d="M133.1,151.026a3.388,3.388,0,0,0-1.105-.194,1.871,1.871,0,0,0-1.561.688,2.191,2.191,0,0,0-.507,1.313v2.5a12.331,12.331,0,0,0,.091,1.6H128.43a13.492,13.492,0,0,0,.091-1.6v-4.082a10.955,10.955,0,0,0-.091-1.6h1.5v.585c0,.1-.012.365-.026.469a2.486,2.486,0,0,1,2.379-1.183,5.228,5.228,0,0,1,1.2.129Z"/><path class="cls-2" d="M135.45,153.289a3.7,3.7,0,1,1,3.718,3.848A3.527,3.527,0,0,1,135.45,153.289Zm1.4-.026c0,1.69.871,2.717,2.3,2.717s2.288-1.014,2.288-2.678c0-1.7-.858-2.731-2.275-2.731S136.854,151.6,136.854,153.263Z"/><path class="cls-2" d="M147.54,149.648a11.194,11.194,0,0,0-.091,1.6v5.889a2.441,2.441,0,0,1-.416,1.729,2.2,2.2,0,0,1-1.833.689,2.6,2.6,0,0,1-2.353-1.183l1.3-.715c.325.52.611.715,1.079.715a.791.791,0,0,0,.7-.338,2.179,2.179,0,0,0,.117-1v-5.785a10.964,10.964,0,0,0-.091-1.6Zm.039-2.886v1.456h-1.651v-1.456Z"/><path class="cls-2" d="M151.674,153.614a2.569,2.569,0,0,0,.507,1.6,2.269,2.269,0,0,0,3.328.1,2.026,2.026,0,0,0,.39-.715l1.287.442a3.366,3.366,0,0,1-.754,1.144,3.534,3.534,0,0,1-2.561.962c-2.184,0-3.575-1.5-3.575-3.848s1.378-3.862,3.484-3.862a3.268,3.268,0,0,1,3.38,3.042c.026.169.026.169.091,1.132Zm4.16-1.105a2.111,2.111,0,0,0-.624-1.391,2.066,2.066,0,0,0-3.172.455,2.324,2.324,0,0,0-.325.936Z"/><path class="cls-2" d="M165.012,152a1.809,1.809,0,0,0-1.807-1.418c-1.326,0-2.171,1.04-2.171,2.691s.858,2.679,2.21,2.679a1.855,1.855,0,0,0,1.573-.754,2.185,2.185,0,0,0,.26-.637l1.378.286a3.222,3.222,0,0,1-.546,1.066,3.184,3.184,0,0,1-2.678,1.222,3.484,3.484,0,0,1-3.614-3.822c0-2.34,1.417-3.887,3.562-3.887a3.156,3.156,0,0,1,3.185,2.222Z"/><path class="cls-2" d="M171.538,147.672a10.823,10.823,0,0,0-.091,1.535v.441h.585a7.705,7.705,0,0,0,1.326-.078v1.314a7.386,7.386,0,0,0-1.3-.078h-.611v4.2c0,.65.195.858.806.858a1.883,1.883,0,0,0,1.014-.3l.273,1.222a3.81,3.81,0,0,1-1.573.3,2.14,2.14,0,0,1-1.456-.416,1.7,1.7,0,0,1-.455-1.391v-4.472h-.507a8.23,8.23,0,0,0-1.157.078V149.57a5.894,5.894,0,0,0,1.17.078h.494v-.441a13.921,13.921,0,0,0-.091-1.535Z"/><rect class="cls-1" width="250" height="250"/><line class="cls-3" x1="220" y1="130.5" x2="30" y2="130.5"/></svg>