<svg id="レイヤー_1" data-name="レイヤー 1" xmlns="http://www.w3.org/2000/svg" viewBox="0 0 166 19"><defs><style>.cls-1{fill:#525A70;}</style></defs><path class="cls-1" d="M6.06.43c1,.47,1.34.63,2.3,1.16h7.3c.48-.53.62-.69,1.12-1.22.76.53,1,.71,1.61,1.2.2.16.28.26.28.36s-.16.31-.73.62c0,10.93,0,10.93.12,15.49,0,.29-.08.41-.28.49a5.06,5.06,0,0,1-1.3.16c-.46,0-.6-.08-.62-.36v-1H8.22v.81c0,.21,0,.33-.16.39a3.42,3.42,0,0,1-1.38.2c-.5,0-.62-.08-.62-.44.08-4.46.1-6.48.1-9.82,0-2.59,0-6.27-.06-7.09a1.48,1.48,0,0,1-.49.13,25,25,0,0,1-2.1,4.72c1.36.24,1.62.33,1.62.55s-.2.31-.72.47v4.32c0,3.58,0,3.58,0,6.66a.51.51,0,0,1-.18.34A2.87,2.87,0,0,1,3,18.76c-.66,0-.8-.09-.8-.47v0c.08-2.75.14-5.16.14-6.62V8A17.26,17.26,0,0,1,.16,10.51L0,10.36A27.24,27.24,0,0,0,2.33,4.81,24.94,24.94,0,0,0,3.39,0c1.48.41,2,.55,2.69.81ZM15.86,2H8.22V16.88h7.64ZM12.93,9.35h.48l.77-.8c.48.39.62.51,1,.88.16.16.22.24.22.32s-.16.25-.56.45c0,2.87,0,3.14.06,4.89,0,0,0,.06,0,.08,0,.37-.36.51-1.35.51-.38,0-.48-.06-.5-.35v-1H11v.87c0,.21,0,.29-.1.35a2.38,2.38,0,0,1-1.19.2c-.4,0-.5-.08-.5-.41,0-1.08,0-1.34,0-2.85,0-2.26,0-2.73-.08-4a11.45,11.45,0,0,1,1.49.88h.4V6.13h-.92a7.17,7.17,0,0,0-1.51.12L8.5,5.52a6.83,6.83,0,0,0,1.63.18h.92V4.26a8.67,8.67,0,0,0-.12-1.61l1.22.12c1.22.1,1.52.18,1.52.41s-.18.26-.74.51v2h.5c.32-.41.62-.79.91-1.18.62.57.8.75,1.36,1.32.08.11.12.15.12.17s-.1.12-.2.12H12.93ZM11,13.91h2.1V9.75H11Z"/><path class="cls-1" d="M21.4,18.69a15.59,15.59,0,0,0,5.09-5.92,20,20,0,0,0,2.12-7.31c.11-1.08.21-2.57.21-3.48,0-.41,0-.64-.06-1.17C29.46.9,30,1,30.36,1c1.42.16,1.82.26,1.82.51s-.18.28-.84.53c0,.3,0,.55,0,.71a17,17,0,0,0,.8,4.76A12.21,12.21,0,0,0,36.43,14a11.58,11.58,0,0,0,3.79,2l0,.21c-1,.34-1.46.83-2,2.16-.08.2-.16.26-.26.26-.38,0-2.09-1.53-3-2.65a16.81,16.81,0,0,1-3-6.51A26.48,26.48,0,0,1,31.08,4a18.72,18.72,0,0,1-1.66,7.47,14,14,0,0,1-5.36,6.11A18.64,18.64,0,0,1,21.5,18.9Z"/><path class="cls-1" d="M43.92,3.6a10.91,10.91,0,0,1,.42,3c0,1.71-.54,2.89-1.31,2.89-.56,0-1-.61-1-1.37a1,1,0,0,1,.46-1c.85-.78,1.13-1.59,1.21-3.53Zm.86,0c0-1.6,0-2.52-.1-3.56,2.83.27,3,.31,3,.59s-.24.33-.85.49c0,14.19,0,14.19,0,17.17,0,.51-.22.59-1.4.59-.74,0-.84-.06-.86-.45.1-2.12.12-3.34.14-5.07Zm2.41-.34c1.44.81,2,1.44,2,2.16a1.27,1.27,0,0,1-.64,1.08,1.23,1.23,0,0,1-.58.22c-.26,0-.38-.2-.4-.67a5.82,5.82,0,0,0-.54-2.65Zm10.4,3.91c.6-.69.78-.9,1.4-1.55.95.71,1.23.94,2.15,1.69.08.08.1.12.1.16s-.1.13-.2.13H49.65a7.74,7.74,0,0,0-1.54.14L48,7.05a6.77,6.77,0,0,0,1.66.16H53V5.11H50.89a6,6,0,0,0-1.26.12l-.12-.71a5.32,5.32,0,0,0,1.38.16H53V2.73H49.89a6.23,6.23,0,0,0-1.32.12l-.12-.73a5.41,5.41,0,0,0,1.42.18H53V2.06c0-.68,0-1.39-.1-2,2.91.27,3,.29,3,.55s-.2.31-.79.49V2.3h2.23c.6-.71.78-.92,1.4-1.59.91.72,1.19,1,2.05,1.71a.35.35,0,0,1,.12.19c0,.08-.08.12-.22.12H55.16V4.68H57c.54-.65.72-.85,1.3-1.46a23.14,23.14,0,0,1,1.95,1.61c.08.08.1.12.1.16s-.08.12-.2.12h-5v2.1Zm-6.15,7.17v4c0,.47-.26.57-1.47.57-.62,0-.74-.06-.74-.45.08-1.85.12-4.21.12-6.21s0-3.14-.08-4.28A20.23,20.23,0,0,1,51.7,9.25h5.13c.46-.51.6-.68,1.08-1.15a12.22,12.22,0,0,1,1.61,1.19c.16.14.22.2.22.3s-.1.25-.63.57V14c0,.65,0,.73,0,2.85a1.58,1.58,0,0,1-.84,1.57,5,5,0,0,1-1.94.49c-.18,0-.24-.06-.26-.25a1.94,1.94,0,0,0-.24-.81,2,2,0,0,0-1.25-.77c-.1-.05-.54-.17-1.32-.39l0-.23c2.41.15,2.41.15,3.43.17.18,0,.24-.06.24-.21v-2ZM57,9.67H51.44v1.88H57ZM57,12H51.44v2H57Z"/><path class="cls-1" d="M69.85,3c.46-.57.6-.73,1.06-1.24a15,15,0,0,1,1.62,1.45c.06.06.08.1.08.14s-.06.08-.14.08H68.86V6.09H70c.46-.57.6-.73,1.06-1.24a19.25,19.25,0,0,1,1.66,1.46c.06.06.08.1.08.13s0,.08-.12.08h-8c1.77.93,2.51,1.63,2.51,2.36a1.77,1.77,0,0,1-1.32,1.48.36.36,0,0,1-.32-.22c-.07-.14-.07-.16-.19-1a6.59,6.59,0,0,0-.84-2.56l.1-.08h-.34a5.67,5.67,0,0,0-1.14.12L63,5.93a4.94,4.94,0,0,0,1.26.16h2.49V3.38H65a5.81,5.81,0,0,0-1.2.12l-.1-.71A5.64,5.64,0,0,0,65,3h1.79V1.85a11.68,11.68,0,0,0-.1-1.73c2.84.31,2.94.33,2.94.61s-.18.27-.76.45V3Zm3.08,4.52c0-4.11,0-5.94-.16-7.21A19.37,19.37,0,0,1,75,1.43h3.61c.46-.53.6-.68,1.06-1.17.72.49.94.66,1.62,1.19.18.14.24.22.24.3s-.16.31-.7.55c-.18,3.24-.32,3.85-1.08,4.32a4.19,4.19,0,0,1-1.8.45c-.22,0-.29-.06-.29-.29a1.42,1.42,0,0,0-.2-.73c-.24-.41-.58-.59-1.82-.92l0-.26A23.07,23.07,0,0,0,78.13,5c.34,0,.46-.1.52-.51a21.87,21.87,0,0,0,.22-2.67h-4V8.21h3.73c.46-.51.6-.65,1.08-1.14.7.51.9.67,1.54,1.2.18.14.24.22.24.32s-.14.27-.66.51a15.91,15.91,0,0,1-1.86,5A8.5,8.5,0,0,0,82.38,16v.16a2.69,2.69,0,0,0-1.15,1.24,2.8,2.8,0,0,0-.3.79c0,.11-.1.17-.18.17-.38,0-1.94-1.43-2.84-2.61a11.29,11.29,0,0,1-3,2.67v0a.52.52,0,0,1-.12.39,2.69,2.69,0,0,1-1.21.16c-.64,0-.76-.06-.76-.41.1-2.67.1-2.67.12-7.68l-.14,0H68.86v2.77H70c.46-.59.6-.75,1.08-1.32.76.63,1,.84,1.74,1.51.06.08.08.12.08.14s-.06.1-.16.1H68.86v.61c0,1,0,2.32.06,3.73a.58.58,0,0,1-.06.31c-.14.16-.58.24-1.38.24-.64,0-.76-.08-.76-.45,0-2.12.06-2.85.06-3.83v-.61H64.89a5.65,5.65,0,0,0-1.26.14l-.12-.73a5,5,0,0,0,1.4.16h1.87V10.89H64.39a5.17,5.17,0,0,0-1.22.13l-.12-.7a5,5,0,0,0,1.34.15H68.2a16.92,16.92,0,0,0,1.12-3.91c2.29.77,2.63.91,2.63,1.12s-.22.24-.94.28a23.9,23.9,0,0,1-2.27,2.51h1.47c.34-.41.68-.84,1.06-1.29.7.62.92.8,1.6,1.47l.06.08ZM74.9,18a16.42,16.42,0,0,0,2.26-3.48,12.79,12.79,0,0,1-1.4-4.11c-.14-.78-.2-1.25-.26-1.82h-.6Zm1-9.41A9.29,9.29,0,0,0,77.81,13a17.68,17.68,0,0,0,1-4.36Z"/><path class="cls-1" d="M83.86,10.53a30.74,30.74,0,0,0,2.69-6,18,18,0,0,0,1-4.34c2.65.63,3.19.82,3.19,1.08s-.2.31-.88.37a27,27,0,0,1-2.33,4.8C88.7,6.62,89,6.74,89,7s-.14.25-.66.41V12l0,6.09c0,.31-.08.43-.27.51a5.86,5.86,0,0,1-1.44.17c-.44,0-.6-.13-.6-.43v-.08c.1-2.2.16-4.28.16-6.13V8.29A17.15,17.15,0,0,1,84,10.69Zm12.92-.41H99.3c.62-.73.8-.94,1.41-1.63.94.78,1.22,1,2.08,1.79a.3.3,0,0,1,.08.17c0,.06-.08.1-.22.1H96.92a6.3,6.3,0,0,0,1.7,2.14,9.22,9.22,0,0,0,4.55,2.24l0,.22a2,2,0,0,0-.94.82,3,3,0,0,0-.5,1c-.1.29-.14.35-.26.35a1.77,1.77,0,0,1-.82-.49A14.6,14.6,0,0,1,96.78,11v3c0,1.24,0,2.57.08,4.15v.09c0,.44-.38.59-1.59.59-.56,0-.7-.11-.7-.47,0-1.39.1-3.24.1-3.87v-1.9a12.64,12.64,0,0,1-2.79,2.94,15.81,15.81,0,0,1-3.18,1.87l-.14-.18a18.7,18.7,0,0,0,3.91-4.4c.5-.77.92-1.51,1.32-2.26H90.66a7.15,7.15,0,0,0-1.38.12l-.14-.75a6.89,6.89,0,0,0,1.52.2h4V7H93.13v.52c0,.21,0,.31-.16.39a3.28,3.28,0,0,1-1.37.21c-.54,0-.66-.09-.66-.43,0-.94.08-3.59.08-5.2,0-.5,0-1.2-.08-2.13a25.6,25.6,0,0,1,2.47,1.22h5.11c.48-.53.64-.69,1.12-1.2.72.51.93.67,1.59,1.2.2.16.28.26.28.36s-.14.29-.72.62v1c0,1.39,0,2.26.08,3.81a.4.4,0,0,1-.18.39A2.89,2.89,0,0,1,99.36,8c-.54,0-.68-.06-.7-.36V7H96.78ZM93.13,6.58h5.53V2H93.13Z"/><path class="cls-1" d="M105.24,4a4.66,4.66,0,0,0,1.28.18h2.71c.52-.63.7-.81,1.26-1.4.83.63,1.09.83,1.91,1.53a.27.27,0,0,1,.1.18c0,.08-.08.12-.22.12h-5.76a6.2,6.2,0,0,0-1.16.1ZM112,1.79a5.83,5.83,0,0,0,1.22.14h1.1A12.67,12.67,0,0,0,114.28.1l1.27.12c1.24.11,1.5.17,1.5.39s-.2.29-.74.45v.87h2.24V1.12a5.82,5.82,0,0,0-.06-1A10.86,10.86,0,0,1,121,.37c.16.06.24.14.24.22s-.2.29-.74.45v.89h.8l1-1.22c.73.57,1,.76,1.65,1.37.06.08.08.12.08.16s-.08.12-.18.12h-3.35c0,.45,0,.45,0,.84s-.2.44-1.24.44c-.63,0-.75-.06-.75-.4V2.36h-2.24V3.2c0,.36-.26.47-1.3.47-.59,0-.69-.07-.69-.39s0-.61,0-.92h-1.12a7,7,0,0,0-1.16.1L112,1.93l-.18.05H107a6,6,0,0,0-1.07.1l-.14-.7a5,5,0,0,0,1.21.17h2c.52-.61.68-.8,1.22-1.41.73.61,1,.82,1.73,1.49Zm-6.3,4.81a5.29,5.29,0,0,0,1.27.16h2c.46-.55.62-.73,1.12-1.26.73.59,1,.77,1.69,1.42a.27.27,0,0,1,.08.15c0,.08-.08.12-.2.12H107a6.11,6.11,0,0,0-1.13.1Zm0,2.62a4.93,4.93,0,0,0,1.21.15h2l1.16-1.31c.79.61,1,.82,1.79,1.47.06.08.08.12.08.16s-.08.11-.2.11H107a5.39,5.39,0,0,0-1.11.1Zm2.13,9c0,.43-.22.51-1.35.51-.6,0-.68-.06-.7-.42.08-2.37.08-2.61.08-3,0-2.4,0-3.62-.08-4.48A18.76,18.76,0,0,1,108,12.12h1.36l1-1.1c.65.49.83.65,1.39,1.12.2.16.26.26.26.36s-.12.25-.66.59v1c0,1.33,0,2.16.06,3.48,0,.21,0,.31-.14.37a3.27,3.27,0,0,1-1.21.16c-.52,0-.62-.06-.64-.34v-.55h-1.58Zm0-1.38h1.58V12.54h-1.58Zm16.38-.33a2.44,2.44,0,0,0-1.37,1.86c-.06.2-.12.26-.3.26a2.51,2.51,0,0,1-.6-.1,14.22,14.22,0,0,1-4.15-1.67,19.18,19.18,0,0,1-7,2.12l-.08-.27a19.6,19.6,0,0,0,5.83-2.81,8,8,0,0,1-2-2.58h-.58a9.73,9.73,0,0,0-1.3.1l-.12-.69a5.63,5.63,0,0,0,1.42.16h5.54c.36-.35.72-.67,1.08-1,.8.55,1,.71,1.74,1.28.2.17.28.25.28.33s-.24.29-.94.39a14,14,0,0,1-2.26,2,17.67,17.67,0,0,0,3.93.45l1,0Zm-3.89-9.3,1-1.08c.66.51.86.67,1.5,1.24a.19.19,0,0,1,.09.16c0,.07-.07.11-.15.11h-3.6V9.08h1.16c.4-.49.54-.63,1-1.1.68.53.88.69,1.52,1.27.08.08.09.12.09.16s-.07.1-.17.1h-3.58v1.63h1.64c.48-.55.64-.71,1.14-1.24.78.57,1,.75,1.77,1.36q.12.12.12.18a.15.15,0,0,1-.16.13h-8.8v.24c0,.37-.21.45-1.33.45-.48,0-.58-.06-.6-.41,0-1,0-1,.08-4.64a16.19,16.19,0,0,1-1.66,1.3l-.18-.16a12.73,12.73,0,0,0,2.22-4.87c2.37.57,2.61.65,2.61.88s-.22.26-.86.34l-.47.68h2.41a7,7,0,0,0,.6-1.86l1.06.29c1,.24,1.17.32,1.17.49s-.14.2-.74.3c-.83.55-.89.59-1.23.78h2.79l1.12-1.29c.74.59,1,.8,1.69,1.41a.41.41,0,0,1,.1.18c0,.06-.1.12-.22.12h-4.27V7.17Zm-5.49,6.11a7.53,7.53,0,0,0,2.58,1.91,13.48,13.48,0,0,0,2-1.91Zm2.44-7.48h-2.42V7.17h2.42Zm-2.42,1.8V9.08h2.42V7.6Zm0,1.91v1.63h2.42V9.51Z"/><path class="cls-1" d="M140.65,4.15c.66-.81.85-1.05,1.53-1.83,1,.8,1.32,1,2.3,1.9a.31.31,0,0,1,.14.22c0,.08-.1.14-.24.14h-9.64a33.79,33.79,0,0,1-.26,3.48h4.83l1.18-1.32c.64.47,1.21.92,1.75,1.32.24.25.32.37.32.49a.23.23,0,0,1-.12.19,1.53,1.53,0,0,1-.3.2l-.32.22c-.16,2.28-.47,4.87-.69,6-.38,1.81-.94,2.69-2,3.1a7.51,7.51,0,0,1-2,.36c-.22,0-.26,0-.28-.45a1.43,1.43,0,0,0-.62-1.16,9.52,9.52,0,0,0-2.7-1l0-.29a39,39,0,0,0,4.19.33c.64,0,.82-.17,1-1.08a35.26,35.26,0,0,0,.74-6.5h-5.07a12.7,12.7,0,0,1-2.83,6.72,13.17,13.17,0,0,1-5.23,3.55l-.14-.19a13.39,13.39,0,0,0,4.17-4.52c1.32-2.38,1.94-5.4,2-9.47h-4.29a7.36,7.36,0,0,0-1.4.14l-.2-.77a8.93,8.93,0,0,0,1.6.2h6V1.85a15.2,15.2,0,0,0-.1-1.57c2.58.25,3.26.37,3.26.68s-.2.34-.86.55l0,2.64Z"/><path class="cls-1" d="M152.75,8.74h.76c.46-.59.62-.76,1.1-1.33.76.63,1,.82,1.67,1.45.06.1.1.14.1.18s-.08.12-.24.12h-3.39v5.95c1.28-.2,2-.35,3.83-.71l0,.24a59.25,59.25,0,0,1-7.9,3.24c-.08.61-.18.81-.36.81s-.3-.22-1.05-3a28.77,28.77,0,0,0,3.47-.31V9.16h-2.22a4.89,4.89,0,0,0-1.15.13l-.12-.72a4.14,4.14,0,0,0,1.25.17h2.24V6.15h-.66a3.48,3.48,0,0,0-.94.1l-.08-.51a15.36,15.36,0,0,1-2,1.53l-.2-.2a16.76,16.76,0,0,0,2.33-3.55A15.68,15.68,0,0,0,150.46,0L152,.35c1.44.32,1.62.38,1.62.59s-.22.28-.84.38l-.12.17.72.24c1.62.49,2.08.71,2.44,1.1a1.32,1.32,0,0,1,.35.92c0,.81-.49,1.56-1,1.56a.49.49,0,0,1-.34-.16,7.5,7.5,0,0,1-.48-1,6.35,6.35,0,0,0-1.84-2.42,15.56,15.56,0,0,1-3.19,3.85,3.16,3.16,0,0,0,.86.1h2.57c.48-.57.62-.73,1.1-1.28.74.61,1,.81,1.68,1.42.06.09.1.13.1.19s-.08.1-.22.1h-2.6ZM147.94,10c1.42,1.22,2.12,2.18,2.12,3s-.72,1.71-1.34,1.71a.31.31,0,0,1-.26-.14c-.12-.18-.12-.18-.12-1.18a10.61,10.61,0,0,0-.61-3.26Zm5.33,4.5a22.64,22.64,0,0,0,.78-4.6c2.41.93,2.41.93,2.41,1.16s-.18.24-.73.3a16,16,0,0,1-2.22,3.24Zm9.14-6.88c.6-.76.8-1,1.4-1.71.93.77,1.21,1,2.07,1.81q.12.12.12.18c0,.08-.1.14-.24.14h-4.53c0,5.2.08,8.64.12,10.29,0,.47-.3.57-1.51.57-.82,0-.92-.06-.92-.51.08-3.91.1-5.56.1-8.55,0-.55,0-1,0-1.8h-1.84a4.35,4.35,0,0,0-1.26.15l-.13-.74a5,5,0,0,0,1.39.17H159c0-6.11,0-6.11-.18-7.38l1.57.15c1.36.1,1.7.2,1.7.44s-.2.33-.86.55V7.62Z"/></svg>