<?xml version="1.0" encoding="UTF-8"?>
<svg id="_レイヤー_2" data-name="レイヤー 2" xmlns="http://www.w3.org/2000/svg" viewBox="0 0 174.9 29.4">
  <defs>
    <style>
      .cls-1 {
        fill: #59575f;
      }

      .cls-2 {
        fill: #e50012;
      }
    </style>
  </defs>
  <g id="_レイヤー_1-2" data-name="レイヤー 1">
    <g>
      <g>
        <path class="cls-1" d="M1.36,5.59c-.89,0-1.2.02-1.26.02-.09,0-.1-.01-.1-.11v-.74c0-.1.01-.11.1-.11.06,0,.37.02,1.26.02h.3V1.77c0-.73-.02-1.07-.02-1.13,0-.1.01-.11.11-.11.06,0,.41.02,1.38.02h3.34c.97,0,1.3-.02,1.36-.02.11,0,.12.01.12.11v.73c0,.09-.01.1-.12.1-.06,0-.39-.02-1.36-.02h-3.75v.56h3.33c.93,0,1.24-.02,1.3-.02.1,0,.11.01.11.12v.58c0,.1-.01.11-.11.11-.06,0-.37-.02-1.3-.02h-3.33v.55h3.33c.93,0,1.23-.02,1.29-.02.11,0,.12.01.12.12v.58c0,.1-.01.11-.12.11-.06,0-.36-.02-1.29-.02h-3.33v.57h4.8c.89,0,1.19-.02,1.25-.02.11,0,.12.01.12.11v.74c0,.1-.01.11-.12.11-.06,0-.36-.02-1.25-.02h-2.82c.27.49.62.91,1.05,1.26.39-.27.74-.55,1.02-.82.13-.12.23-.24.32-.41.32.2.55.34.8.53.07.05.1.09.1.15s-.05.09-.12.1c-.09.03-.18.07-.35.21-.29.23-.62.48-1.02.73.73.4,1.61.69,2.62.86-.16.18-.31.41-.43.69q-.15.31-.45.24c-2.22-.58-3.73-1.73-4.54-3.54h-.98v2.14c.6-.14,1.21-.29,1.87-.48-.03.18-.04.42-.04.63q0,.32-.31.41c-1.1.33-2.2.61-3.19.82-.16.03-.29.08-.35.13-.05.04-.09.06-.15.06-.04,0-.08-.04-.12-.13-.1-.28-.21-.69-.28-.97.42-.04.72-.08,1.07-.15l.44-.09v-2.37h-.3Z"/>
        <path class="cls-1" d="M17.12,7.09c0,.49.02.81.02,1.21s-.12.63-.33.77c-.2.12-.62.17-1.32.18q-.31,0-.39-.3c-.06-.25-.15-.47-.27-.65.35.04.77.05,1.03.04.15,0,.25-.1.25-.31v-1.63h-2.91c-.53.88-1.22,1.64-2.12,2.34-.11.09-.16.13-.21.13-.06,0-.11-.06-.2-.18-.18-.23-.37-.42-.58-.55.86-.51,1.49-1.09,1.96-1.74h-.38c-.93,0-1.25.02-1.31.02-.1,0-.11-.01-.11-.11v-.7c0-.1,0-.11.11-.11.06,0,.38.02,1.31.02h.91c.07-.13.14-.27.2-.42.04-.11.09-.21.13-.33h-1.48c-.9,0-1.21.02-1.27.02-.1,0-.11-.01-.11-.11v-.65c0-.1,0-.11.11-.11.06,0,.37.02,1.27.02h1.75c.06-.18.11-.37.15-.57h-.71c-.98,0-1.32.02-1.38.02-.1,0-.11-.01-.11-.12v-.59c0-.1.01-.11.11-.11.06,0,.4.02,1.38.02h.88l.09-.54h-1.4c-.97,0-1.3.02-1.36.02-.1,0-.11-.01-.11-.11v-.68c0-.09,0-.1.11-.1.06,0,.39.02,1.36.02h1.51c.05-.54.05-.77.02-1.11.35.02.73.05,1,.09.12.02.21.05.21.13s-.03.14-.07.2c-.06.09-.1.25-.14.69h1.98c.96,0,1.29-.02,1.35-.02.11,0,.12.01.12.1v.68c0,.1,0,.11-.12.11-.06,0-.39-.02-1.35-.02h-2.09l-.09.54h1.74c.97,0,1.31-.02,1.37-.02.11,0,.12.01.12.11v.59c0,.11-.01.12-.12.12-.06,0-.4-.02-1.37-.02h-1.9c-.04.2-.09.39-.14.57h3.25c.9,0,1.21-.02,1.27-.02.1,0,.11.01.11.11v.65c0,.1,0,.11-.11.11-.06,0-.37-.02-1.27-.02h-3.5l-.21.54-.1.21h2.44c0-.21-.03-.39-.06-.58.37.01.71.03,1.05.07.1.01.15.06.15.12,0,.08-.03.12-.07.19-.03.04-.04.09-.05.2h.11c.93,0,1.25-.02,1.31-.02.1,0,.11.01.11.11v.7c0,.1-.01.11-.11.11-.06,0-.38-.02-1.31-.02h-.11v.69ZM13.7,6.75c.11-.06.13-.06.21.02.32.32.68.78.94,1.21.05.09.05.11-.08.18l-.64.39c-.06.04-.1.06-.13.06s-.05-.03-.07-.08c-.24-.47-.56-.92-.89-1.26-.07-.08-.07-.11.05-.17l.61-.35Z"/>
        <path class="cls-1" d="M23.7,3.78c-.79,0-1.05.02-1.11.02-.1,0-.11-.01-.11-.11v-.69c-.59.39-1.23.73-1.92,1.03-.11.05-.18.08-.23.08-.08,0-.12-.08-.19-.26-.11-.27-.26-.49-.42-.66,1.69-.65,2.8-1.31,3.77-2.46.2-.24.34-.46.45-.73.42.07.78.14,1.06.21.11.03.16.07.16.14,0,.06-.03.12-.1.15l-.06.03c1.11,1.28,2.42,1.98,4.19,2.57-.17.2-.29.46-.38.73-.06.19-.09.26-.17.26-.05,0-.12-.02-.24-.07-.7-.28-1.37-.61-1.98-1v.67c0,.1,0,.11-.11.11-.06,0-.32-.02-1.11-.02h-1.5ZM23.92,6.52c0,1.35.02,1.61.02,1.66,0,.1,0,.11-.11.11h-.74c-.11,0-.12-.01-.12-.11v-.35h-1.27v.56c0,.1-.01.11-.11.11h-.74c-.11,0-.12-.01-.12-.11,0-.07.02-.32.02-1.75v-.82c0-.82-.02-1.1-.02-1.17,0-.1,0-.11.12-.11.06,0,.27.02.96.02h1.06c.67,0,.9-.02.96-.02.1,0,.11.01.11.11,0,.06-.02.34-.02.98v.89ZM21.7,5.47v1.46h1.27v-1.46h-1.27ZM25.2,2.88c.56,0,.85-.01.99-.01-.67-.46-1.27-.99-1.77-1.62-.49.61-1.08,1.15-1.74,1.62.13,0,.42.01,1.02.01h1.5ZM28.15,6.1c0,.44.02.88.02,1.21,0,.44-.08.66-.29.83-.23.18-.52.26-1.15.26-.31,0-.31.01-.37-.3-.05-.28-.15-.55-.24-.72.27.04.46.04.65.04.3,0,.37-.05.37-.34v-1.68h-1.42v2.74c0,.71.02,1.03.02,1.09,0,.1,0,.11-.11.11h-.83c-.1,0-.11-.01-.11-.11,0-.07.02-.36.02-1.1v-2.42c0-.74-.02-1.06-.02-1.13,0-.1,0-.11.11-.11.06,0,.29.02,1.02.02h1.21c.73,0,.96-.02,1.03-.02.1,0,.11.01.11.11,0,.06-.02.36-.02.93v.59Z"/>
        <path class="cls-1" d="M36.07,8.52h-1.41l-.66-2.28h-2.38l-.67,2.28h-1.28l2.38-7.76h1.63l2.39,7.76ZM33.31,3.67c-.17-.61-.29-1.18-.46-1.91h-.09c-.17.74-.31,1.3-.48,1.9l-.42,1.58h1.9l-.45-1.57Z"/>
        <path class="cls-1" d="M38.59,7.43h3.64v1.09h-5V.76h1.36v6.67Z"/>
        <path class="cls-1" d="M48.05,3.3c-.19-1.08-.75-1.64-1.63-1.64-1.15,0-1.95,1-1.95,2.98s.82,2.98,1.95,2.98c.93,0,1.49-.53,1.71-1.66l1.27.39c-.41,1.6-1.41,2.31-2.99,2.31-2.01,0-3.37-1.45-3.37-4.01s1.37-4.03,3.37-4.03c1.59,0,2.63.89,2.95,2.36l-1.31.32Z"/>
        <path class="cls-1" d="M56.67,3.06h-3.49c-.68,0-1.15.02-1.5.06-.11,0-.15-.05-.15-.17-.03-.27-.05-.74-.05-1.07.6.06.95.07,1.67.07h2.97c.52,0,1.05-.02,1.58-.04.16,0,.21.04.2.17,0,.53-.02,1.05-.02,1.58v2.39c0,.73.03,1.53.04,1.81,0,.1-.04.13-.18.14-.28.02-.6.02-.88,0-.16-.01-.19-.02-.19-.17v-.4h-3.44c-.63,0-1.16.03-1.64.04-.09,0-.13-.04-.14-.15-.03-.26-.05-.62-.05-1.04.47.03,1.05.05,1.84.05h3.43v-3.27Z"/>
        <path class="cls-1" d="M61.76,1.49c.04-.05.09-.08.14-.08.04,0,.08.02.13.05.51.27,1.34.88,1.91,1.42.06.06.09.1.09.14s-.02.08-.06.13c-.15.2-.48.6-.62.75-.05.05-.08.08-.12.08s-.08-.03-.13-.08c-.6-.62-1.32-1.19-2.04-1.63.22-.27.51-.58.7-.78ZM62.63,6.76c1.22-.63,1.87-1.05,2.88-1.86,1.22-.99,1.89-1.63,2.74-2.72.06.5.15.84.28,1.17.03.07.05.13.05.19,0,.09-.05.17-.16.3-.53.62-1.39,1.42-2.3,2.12-.83.65-1.67,1.21-3.02,1.96-.45.27-.58.37-.67.46-.06.06-.12.1-.18.1-.05,0-.11-.04-.17-.11-.25-.28-.56-.69-.8-1.11.51-.14.82-.23,1.35-.5Z"/>
        <path class="cls-1" d="M76.54,2.07c.26-.01.39-.05.5-.12.04-.03.08-.04.13-.04s.1.02.16.06c.25.16.48.35.68.54.09.08.13.16.13.23,0,.08-.05.15-.12.21-.14.11-.24.25-.33.43-.67,1.36-1.31,2.33-1.98,3.09-.86.97-2.05,1.94-3.04,2.49-.06.04-.11.05-.16.05-.08,0-.15-.04-.23-.11-.25-.2-.56-.35-.95-.46,1.56-.86,2.35-1.49,3.33-2.55.79-.88,1.25-1.56,1.85-2.84l-2.42.07c-.82,1.01-1.32,1.58-1.89,2.05-.07.07-.14.11-.21.11-.05,0-.1-.02-.15-.06-.25-.18-.62-.36-.96-.43,1.3-1.06,2.07-1.99,2.69-2.97.33-.56.48-.87.59-1.35.57.2.95.37,1.17.53.07.05.1.11.1.17s-.03.12-.11.17c-.1.06-.17.17-.25.27-.11.17-.21.32-.33.5l1.8-.04Z"/>
        <path class="cls-1" d="M82.36,2.24c0-.69-.03-1.07-.11-1.46.42.05.95.11,1.24.21.12.03.17.09.17.16,0,.05-.02.1-.04.15-.09.19-.11.44-.11.95v2.02c0,.52.02.91.03,1.26,0,.15-.06.2-.22.2h-.8c-.14,0-.2-.05-.19-.17,0-.35.03-.93.03-1.36v-1.96ZM87.07,4.11c0,1.48-.22,2.47-.81,3.26-.49.65-1.36,1.26-2.2,1.57-.08.03-.15.05-.21.05-.08,0-.15-.03-.24-.12-.24-.24-.5-.43-.85-.61,1.07-.33,1.91-.8,2.44-1.46.46-.57.67-1.4.67-2.67v-1.89c0-.86-.02-1.18-.11-1.63.48.04.96.11,1.3.22.1.03.14.09.14.17,0,.05-.01.11-.04.16-.09.21-.09.47-.09,1.09v1.86Z"/>
        <path class="cls-1" d="M92.62,5.41c-.99,0-1.37.12-1.47.12-.12,0-.2-.06-.23-.21-.05-.23-.11-.7-.15-1.21.65.1,1.15.12,2.16.12h3.22c.76,0,1.53-.02,2.3-.03.15-.01.18.02.18.14.02.3.02.64,0,.94,0,.12-.04.16-.18.15-.75-.01-1.49-.02-2.23-.02h-3.6Z"/>
        <path class="cls-1" d="M104.39,3.36c1.22.38,2.19.77,3.18,1.36.11.06.16.13.11.26-.13.33-.29.64-.43.87-.04.07-.08.11-.13.11-.03,0-.07-.01-.11-.05-.92-.59-1.82-1.03-2.63-1.28v2.21c0,.65.02,1.24.04,1.96.01.12-.04.15-.18.15-.29.02-.6.02-.89,0-.14,0-.19-.03-.19-.15.03-.74.04-1.33.04-1.97V1.91c0-.75-.03-1.08-.1-1.48.46.03.96.08,1.25.16.14.03.19.09.19.17,0,.06-.03.14-.08.23-.07.13-.07.38-.07.94v1.43Z"/>
        <path class="cls-1" d="M112.34,3.98s.06-.07.09-.07.06.02.1.06c.31.27.59.53.88.86.3-.65.53-1.37.69-2.17h-1.42c-.43.92-.99,1.74-1.7,2.51-.09.1-.15.15-.2.15s-.1-.06-.17-.2c-.13-.24-.3-.44-.5-.61,1.05-1.05,1.68-2.13,2.1-3.54.09-.31.12-.53.13-.79.41.07.69.12,1.02.22.1.03.15.08.15.14,0,.08-.03.13-.07.17-.08.08-.12.24-.2.51-.06.18-.11.35-.17.51h1.03c.16,0,.23-.02.3-.06.06-.03.08-.04.14-.04.07,0,.18.03.44.27.24.21.29.29.29.35s-.04.1-.1.17l-.06.1c.3.49.64.91,1,1.28V1.68c0-.71,0-1.06-.08-1.52.37.01.76.03,1.1.08.09.01.15.04.15.1,0,.07-.03.14-.05.2-.05.13-.07.38-.07,1.11v3.03c.69.48,1.47.85,2.35,1.2-.15.19-.33.49-.44.79-.07.18-.1.25-.18.25-.05,0-.12-.03-.23-.08-.55-.26-1.04-.53-1.5-.84v1.44c0,1.12.02,1.69.02,1.74,0,.1,0,.11-.11.11h-.87c-.1,0-.11-.01-.11-.11,0-.06.02-.62.02-1.74v-2.27c-.46-.43-.87-.91-1.25-1.48-.6,2.32-1.81,3.95-3.63,5.26-.12.09-.19.14-.24.14-.06,0-.11-.07-.22-.2-.16-.21-.36-.38-.58-.53,1.14-.68,2.06-1.54,2.73-2.62-.36-.42-.65-.71-.99-1.02-.04-.04-.06-.06-.06-.09s.02-.07.06-.12l.41-.53Z"/>
        <path class="cls-1" d="M123.41,3.48c.61,0,.78-.02.85-.02.1,0,.11.01.11.11,0,.06-.02.26-.02.72v.71c0,.46.02.64.02.73.29,0,.56.03.83.06.1.01.16.06.16.11,0,.09-.03.14-.06.2-.04.08-.06.18-.06.42h1.44c.98,0,1.32-.02,1.38-.02.09,0,.1.01.1.12v.65c0,.11,0,.12-.1.12-.06,0-.4-.02-1.38-.02h-1.44v.72h2.62c.88,0,1.18-.02,1.24-.02.1,0,.11.01.11.11v.69c0,.1-.01.11-.11.11-.06,0-.36-.02-1.24-.02h-6.23c-.88,0-1.18.02-1.24.02-.11,0-.12-.01-.12-.11v-.69c0-.1,0-.11.12-.11.06,0,.36.02,1.24.02h2.59v-.72h-1.34c-.98,0-1.32.02-1.38.02-.1,0-.11-.01-.11-.12v-.65c0-.11.01-.12.11-.12.06,0,.4.02,1.38.02h1.34c-.01-.24-.03-.46-.05-.7-.11-.01-.32-.02-.76-.02h-.85c-.59,0-.77.02-.84.02-.1,0-.11-.01-.11-.12,0-.06.02-.24.02-.7v-.72c0-.17,0-.31,0-.41l-.07.28c-.13.44-.33.9-.59,1.34-.07.12-.12.18-.17.18s-.1-.06-.19-.18c-.17-.22-.38-.43-.53-.53.3-.42.53-.91.66-1.43.13-.58.19-1.34.19-2.1,0-.53-.02-.77-.02-.84,0-.1,0-.11.12-.11.06,0,.29.02,1.02.02h1.21c.73,0,.96-.02,1.02-.02.11,0,.12.01.12.11,0,.07-.02.24-.02.7v.84c0,.48.02.65.02.71,0,.1-.01.11-.12.11-.06,0-.29-.02-1.02-.02h-1.46c-.02.18-.05.36-.08.53.08,0,.26.02.85.02h.85ZM123.45,1.29h-1.58v.27c0,.2,0,.39-.01.57h1.59v-.84ZM123.51,4.19h-1.06v.87h1.06v-.87ZM127.31,5.07c0,.56.02.8.02.86,0,.11-.01.12-.11.12h-.77c-.11,0-.12-.01-.12-.12,0-.06.02-.3.02-.86h-.25c-.81,0-1.07.02-1.13.02-.1,0-.11-.01-.11-.1v-.6c0-.11,0-.12.11-.12.06,0,.32.02,1.13.02h.25v-.64h-.4c-.87,0-1.17.02-1.23.02-.1,0-.11-.01-.11-.11v-.61c0-.1,0-.11.11-.11.05,0,.29.02.89.02-.08-.23-.18-.46-.29-.66-.06-.11-.05-.11.1-.17l.45-.15c.15-.04.17-.03.24.1.13.23.26.57.36.88h.69c.08-.18.14-.34.2-.52.04-.12.07-.25.1-.47.34.05.56.1.79.17.13.04.16.06.16.12,0,.07-.02.09-.06.12-.04.03-.1.08-.13.16-.06.14-.13.28-.2.42.78,0,1.06-.02,1.11-.02.1,0,.11.01.11.11v.61c0,.1,0,.11-.11.11-.05,0-.34-.02-1.22-.02h-.6v.64h.36c.8,0,1.07-.02,1.13-.02.1,0,.11.01.11.12v.6c0,.09-.01.1-.11.1-.06,0-.33-.02-1.13-.02h-.36ZM126.04,1.81c-.83,0-1.09.02-1.15.02-.1,0-.11-.01-.11-.11v-.62c0-.09,0-.1.11-.1.06,0,.32.02,1.15.02h.29v-.09c0-.3,0-.56-.06-.78.37.01.67.03.97.06.1.01.16.05.16.1,0,.06-.02.12-.06.19-.04.07-.05.24-.05.5v.02h.47c.82,0,1.09-.02,1.15-.02.11,0,.12.01.12.1v.62c0,.1,0,.11-.12.11-.06,0-.35-.02-1.17-.02h-1.7Z"/>
        <path class="cls-1" d="M132.32,5.99c0,.95.03,1.5.03,1.99,0,.56-.08.82-.3,1-.22.17-.47.22-1.1.22q-.31,0-.38-.3c-.06-.31-.15-.56-.25-.73.23.03.45.04.71.04.24,0,.31-.09.31-.38v-1.97c-.15.06-.3.11-.43.15-.18.06-.3.12-.36.17-.04.03-.1.06-.16.06s-.1-.04-.12-.12c-.07-.27-.12-.61-.16-.96.29-.04.57-.1.92-.19.09-.02.2-.05.31-.09v-1.89h-.11c-.65,0-.85.02-.91.02-.09,0-.1-.01-.1-.11v-.72c0-.11,0-.12.1-.12.06,0,.26.02.91.02h.11v-.52c0-.65,0-.96-.07-1.42.37.01.68.03,1.02.07.1.01.16.05.16.1,0,.09-.04.15-.07.22-.05.12-.06.33-.06,1.01v.54c.52,0,.69-.02.75-.02.11,0,.12.01.12.12v.72c0,.1-.01.11-.12.11-.06,0-.23-.01-.75-.02v1.55c.27-.1.55-.22.82-.33-.02.16-.05.38-.05.62,0,.33,0,.31-.29.44l-.48.21v.51ZM134.77,5.8c-.96,0-1.29.02-1.35.02-.1,0-.11-.01-.11-.11v-.71c0-.1.01-.11.11-.11.06,0,.39.02,1.35.02h.79c0-.25-.03-.53-.06-.88.37.01.66.03,1,.07.1.01.15.06.15.11,0,.09-.05.17-.07.25-.03.1-.04.24-.04.45h1.12c.96,0,1.29-.02,1.35-.02.11,0,.12.01.12.11v.71c0,.1,0,.11-.12.11-.06,0-.39-.02-1.35-.02h-.7c.63.82,1.42,1.45,2.43,1.92-.17.18-.3.41-.42.69-.07.16-.1.23-.17.23-.05,0-.12-.05-.24-.12-.85-.51-1.57-1.24-2.05-2.04.01,1.02.05,2.42.05,2.68,0,.1-.01.11-.12.11h-.79c-.1,0-.11-.01-.11-.11,0-.26.04-1.64.05-2.67-.5.81-1.19,1.47-2.09,2.03-.1.07-.16.11-.21.11-.06,0-.1-.07-.2-.23-.16-.25-.31-.42-.46-.56,1.05-.5,1.83-1.16,2.44-2.04h-.3ZM138.74.82c.06.07.09.12.09.2,0,.06-.05.13-.16.13-.15.01-.31.05-.51.1-1.32.36-2.64.55-4.2.69-.33.03-.33.02-.42-.28-.07-.23-.17-.45-.27-.61,1.72-.08,2.93-.28,3.99-.54.39-.1.6-.19.81-.29.27.2.49.41.67.6ZM134.21,2.33c.11-.05.14-.06.2.04.25.37.46.81.62,1.24.04.1.04.13-.11.19l-.58.24c-.12.06-.15.06-.18-.04-.16-.48-.35-.91-.58-1.28-.06-.09-.04-.12.08-.17l.55-.22ZM136.03,1.99c.14-.05.15-.04.21.05.19.34.41.9.52,1.29.04.11.02.13-.12.18l-.59.19c-.13.04-.16.04-.19-.08-.1-.41-.3-.94-.48-1.28-.04-.09-.03-.11.1-.15l.55-.2ZM137.72,2.36c.04-.13.1-.34.13-.56.34.09.65.2.9.31.11.05.17.09.17.15,0,.07-.02.08-.09.14-.09.08-.17.2-.23.33-.16.35-.42.86-.72,1.32-.1.15-.14.21-.2.21s-.13-.04-.25-.11c-.19-.1-.37-.18-.52-.23.36-.54.63-1.06.81-1.56Z"/>
        <path class="cls-1" d="M148.68,6.75c0,.46.02.97.02,1.38,0,.37-.1.62-.33.81-.19.17-.49.26-1.32.26q-.31,0-.37-.29c-.07-.32-.16-.55-.28-.76.41.03.6.04.93.04.23,0,.32-.1.32-.33v-1.66h-2.35v1.19c0,.97.02,1.42.02,1.48,0,.1-.01.11-.11.11h-.86c-.1,0-.11-.01-.11-.11,0-.07.02-.51.02-1.48v-1.19h-2.28c-.14,1.24-.41,2.01-.87,2.77-.08.14-.13.2-.18.2s-.1-.05-.21-.16c-.24-.24-.47-.39-.71-.51.73-.94,1.03-2.13,1.03-4.54v-1.64c0-1.04-.02-1.58-.02-1.64,0-.11,0-.12.12-.12.06,0,.41.02,1.37.02h4.7c.97,0,1.31-.02,1.38-.02.1,0,.11.01.11.12,0,.06-.02.6-.02,1.64v4.43ZM144.26,5.27v-1.41h-2.18v.11c0,.48-.01.91-.03,1.3h2.21ZM144.26,2.93v-1.39h-2.18v1.39h2.18ZM145.3,1.54v1.39h2.35v-1.39h-2.35ZM147.65,5.27v-1.41h-2.35v1.41h2.35Z"/>
      </g>
      <g>
        <g>
          <path class="cls-2" d="M8.64,28.58l-5.69-7.78v7.78h-1.91v-10.9h1.96l5.57,7.56v-7.56h1.91v10.9h-1.85Z"/>
          <path class="cls-2" d="M11.22,24.98c0-2.08,1.52-3.76,3.64-3.76s3.54,1.65,3.54,3.91v.37h-5.55c.12,1.09.94,1.98,2.29,1.98.7,0,1.53-.28,2.04-.79l.71,1.03c-.71.68-1.77,1.04-2.91,1.04-2.16,0-3.76-1.5-3.76-3.78ZM14.87,22.5c-1.34,0-1.95,1.03-2.02,1.9h4.04c-.03-.85-.61-1.9-2.02-1.9Z"/>
          <path class="cls-2" d="M26.12,28.58l-1.67-5.26-1.67,5.26h-1.64l-2.23-7.18h1.62l1.52,5.22,1.71-5.22h1.37l1.71,5.22,1.52-5.22h1.62l-2.23,7.18h-1.64Z"/>
        </g>
        <path class="cls-2" d="M45.51,19.69v-2.19c1.81.11,4.08.39,5.9.72v2.25c-1.71-.35-4.16-.68-5.9-.79ZM45.7,28.74v-2.2c4.92-.35,8-1.75,8.5-7.14h2.37c-.48,6.59-4.31,9.15-10.87,9.34Z"/>
        <path class="cls-2" d="M71.71,24.31v-7.02h2.32v7.02h-2.32ZM73.15,28.81v-2.07c4.33-.24,6.6-1.19,6.6-5.27v-4.17h2.33v4.19c0,5.32-3.15,7.2-8.94,7.32Z"/>
        <path class="cls-2" d="M84.04,23.43v-2.12h11.56v2.12h-11.56Z"/>
        <g>
          <rect class="cls-2" x="32.56" y="26.29" width="7.35" height="2.09"/>
          <rect class="cls-2" x="32.57" y="17.78" width="7.34" height="2.08"/>
          <polygon class="cls-2" points="40.75 17.78 40.75 19.86 40.75 26.29 40.75 28.38 43.12 28.38 43.12 17.78 40.75 17.78"/>
        </g>
        <g>
          <polygon class="cls-2" points="100.73 22.99 100.73 20.78 100.73 16.96 98.42 16.96 98.42 29.01 100.73 29.01 100.73 22.99"/>
          <path class="cls-2" d="M101.57,20.93v2.22c2.18.44,4.75,1,6.87,1.54v-2.28c-2.04-.52-4.53-1.05-6.87-1.49Z"/>
        </g>
        <g>
          <path class="cls-2" d="M62.24,19.55v-2.07h-1.71c-.39,1.91-1.41,3.27-2.69,4.07v2.24c2.01-.68,3.6-2.29,4.4-4.24Z"/>
          <path class="cls-2" d="M63.07,17.48v2.07h4.2c-.53,4.44-3.04,6.82-7.51,7.28v2.04c6.16-.36,9.79-3.93,9.94-10.91v-.48h-6.63Z"/>
        </g>
        <path class="cls-2" d="M111.54,28.86v-10.92h11.08v10.92h-11.08ZM120.39,20.02h-6.6v6.78h6.6v-6.78Z"/>
        <path class="cls-2" d="M137.03,29.38v-2.47c2.01-1.85,2.58-4.88,2.58-8.28v-1.02h2.29v.98c0,5.97-1.81,9.31-4.87,10.79ZM144.22,18.61v-.99h2.33v1.03c0,3.38.56,6.39,2.56,8.24v2.5c-3.09-1.49-4.9-4.88-4.9-10.77Z"/>
        <path class="cls-2" d="M170.07,25.37c-1.97,2.12-4.58,3.41-6.92,3.89v-2.16c3.09-.86,6.37-3.35,7.38-7.15h-6.68v-2.09h9.42c-.15,2.15-.78,4-1.7,5.54.71,1.8,2.12,2.95,3.34,3.61v2.37c-2.13-.7-3.81-2.23-4.83-4.01Z"/>
        <g>
          <path class="cls-2" d="M128.4,19.9v-2.08h-1.7c-.4,1.92-1.42,3.29-2.71,4.09v2.25c2.03-.68,3.62-2.31,4.41-4.27Z"/>
          <path class="cls-2" d="M135.41,16.73v1.09h-.43v-1.09h-1.33v1.09h-4.41v2.08h4.17c-.54,4.47-3.07,6.86-7.55,7.33v2.05c6.08-.36,9.71-3.84,9.97-10.63h.93v-1.92h-1.34Z"/>
        </g>
        <g>
          <polygon class="cls-2" points="152.43 20.98 152.43 18.96 150.25 18.96 150.25 23.83 152.43 23.83 152.43 20.98"/>
          <path class="cls-2" d="M157.12,18.96v-1.77h-2.33v1.77h-1.52v2.03h6.09c-.17,3.82-2.37,5.78-6.05,6.32v2.09c6-.7,8.56-3.96,8.56-10.08v-.36h-4.75Z"/>
        </g>
      </g>
    </g>
  </g>
</svg>