<?xml version="1.0" encoding="UTF-8"?><svg id="_レイヤー_2" xmlns="http://www.w3.org/2000/svg" viewBox="0 0 100 43"><defs><style>.cls-1{fill:none;}.cls-2{fill:#003d22;stroke:#003d22;stroke-linecap:round;stroke-linejoin:round;stroke-width:.087px;}</style></defs><g id="_レイヤー_2-2"><g id="_レイヤー_1-2"><rect class="cls-1" width="100" height="43"/><polygon class="cls-2" points="30.089 10.432 26.218 6.562 26.218 6.563 18.479 6.563 18.479 37.52 22.35 37.52 22.35 10.432 26.218 10.432 26.218 29.781 23.122 29.781 23.122 33.65 30.087 33.65 30.089 10.432"/><polygon class="cls-2" points="14.61 29.781 14.61 10.432 10.74 6.563 3 6.563 3 33.65 3 33.65 9.966 33.65 9.966 29.781 6.87 29.781 6.87 10.432 10.74 10.432 10.74 33.65 17.705 33.65 17.705 29.781 14.61 29.781"/><path class="cls-2" d="M49.493,13.627c1.748,0,3.133.465,4.155,1.393,1.021.928,1.531,2.179,1.531,3.738,0,1.435-.541,2.626-1.623,3.577-1.008.888-2.255,1.331-3.743,1.331h-6.671v-10.039h6.35ZM49.951,22.166c.999,0,1.818-.321,2.461-.963.643-.646.963-1.475.963-2.487,0-1.078-.344-1.945-1.033-2.603-.688-.656-1.592-.987-2.712-.987h-4.824v7.041h5.144Z"/><path class="cls-2" d="M75.693,20.421c0,1.045-.509,1.891-1.526,2.537-1.035.675-2.417,1.013-4.146,1.013s-3.118-.337-4.175-1.013c-1.014-.654-1.523-1.501-1.523-2.537v-6.794h1.665v6.393c0,.783.344,1.386,1.032,1.802.688.414,1.69.623,3.002.623s2.31-.209,2.99-.623c.679-.417,1.019-1.02,1.019-1.802v-6.393h1.665v6.794h0Z"/><path class="cls-2" d="M93.417,13.627c1.028,0,1.843.284,2.443.854.6.565.899,1.327.899,2.278,0,1.002-.313,1.763-.934,2.288-.625.529-1.532.791-2.725.791h-5.975v3.828h-1.665v-10.039s7.957,0,7.957,0ZM93.128,18.341c1.284,0,1.927-.515,1.927-1.551,0-1.109-.68-1.664-2.038-1.664h-5.892v3.215h6.003Z"/><path class="cls-2" d="M47.258,30.358h-.687l-.964-1.361h-1.799v1.361h-.591v-3.569h2.812c.374,0,.669.102.882.305.214.201.319.476.319.822,0,.3-.085.543-.259.728-.161.171-.384.277-.666.323l.955,1.392h-.001ZM45.939,28.465c.457,0,.684-.182.684-.549,0-.395-.246-.592-.739-.592h-2.079v1.141h2.134Z"/><polygon class="cls-2" points="53.638 30.358 49.904 30.358 49.904 26.79 53.499 26.79 53.499 27.324 50.495 27.324 50.495 28.239 52.582 28.239 52.582 28.771 50.495 28.771 50.495 29.826 53.638 29.826 53.638 30.358"/><path class="cls-2" d="M59.38,27.629c-.53-.272-1.067-.404-1.616-.404-.364,0-.642.043-.838.128-.193.082-.29.205-.29.353,0,.158.104.274.311.344.149.056.389.092.723.109.494.033.819.058.976.079.447.058.778.169.99.331.215.16.321.387.321.683,0,.377-.169.67-.504.878-.334.208-.815.311-1.443.311-.907,0-1.617-.203-2.124-.601l.324-.427c.559.337,1.161.51,1.804.51.414,0,.741-.055.969-.174.22-.11.33-.263.33-.457,0-.225-.146-.378-.432-.452-.154-.041-.561-.082-1.223-.126-.588-.037-1-.117-1.235-.236-.275-.135-.414-.368-.414-.694,0-.334.158-.601.47-.793.314-.189.757-.289,1.329-.289.767,0,1.412.177,1.93.527l-.359.399v-.002Z"/><rect class="cls-2" x="62.601" y="26.791" width=".59" height="3.566"/><path class="cls-2" d="M68.364,26.791c.62,0,1.113.165,1.474.497.364.328.544.77.544,1.33,0,.505-.19.928-.575,1.265-.356.318-.803.477-1.33.477h-2.37v-3.569h2.257ZM68.527,29.826c.355,0,.647-.117.873-.341.229-.234.343-.526.343-.886,0-.382-.122-.686-.364-.924-.246-.233-.568-.349-.964-.349h-1.714v2.502h1.828-.002Z"/><polygon class="cls-2" points="76.811 30.358 73.079 30.358 73.079 26.79 76.675 26.79 76.675 27.324 73.669 27.324 73.669 28.239 75.757 28.239 75.757 28.771 73.669 28.771 73.669 29.826 76.811 29.826 76.811 30.358"/><polygon class="cls-2" points="83.474 30.358 82.738 30.358 80.018 27.433 80.018 30.358 79.424 30.358 79.424 26.79 80.161 26.79 82.883 29.716 82.883 26.79 83.474 26.79 83.474 30.358"/><path class="cls-2" d="M90.553,27.605l-.537.192c-.362-.382-.867-.58-1.517-.58-.491,0-.893.129-1.205.382-.308.255-.463.574-.463.964,0,.404.153.731.46.98.308.245.722.369,1.244.369.63,0,1.126-.194,1.487-.588l.505.285c-.254.299-.544.513-.867.645-.324.136-.71.2-1.161.2-.63,0-1.154-.158-1.572-.473-.476-.36-.714-.832-.714-1.418,0-.576.243-1.043.724-1.407.42-.32.94-.477,1.562-.477.894,0,1.578.304,2.054.925"/><polygon class="cls-2" points="97 30.358 93.267 30.358 93.267 26.79 96.863 26.79 96.863 27.324 93.859 27.324 93.859 28.239 95.946 28.239 95.946 28.771 93.859 28.771 93.859 29.826 97 29.826 97 30.358"/></g></g></svg>