<?xml version="1.0" encoding="UTF-8"?>
<svg id="_レイヤー_2" data-name="レイヤー 2" xmlns="http://www.w3.org/2000/svg" viewBox="0 0 123.54 33.71">
  <defs>
    <style>
      .cls-1 {
        fill: #df1614;
      }

      .cls-2 {
        fill: #59575f;
      }
    </style>
  </defs>
  <g id="_レイヤー_1-2" data-name="レイヤー 1">
    <g>
      <g>
        <path class="cls-2" d="M1.69,3.38c-.91,0-1.22.02-1.28.02-.1,0-.11-.01-.11-.11v-.83c0-.1.01-.11.11-.11.06,0,.37.02,1.28.02h2.25c.02-.34.04-.7.04-1.08,0-.48-.01-.84-.05-1.16.31.01.81.03,1.14.08.1.02.18.07.18.14,0,.08-.02.13-.07.21-.04.09-.08.26-.08.7,0,.37-.02.74-.05,1.11h2.58c.91,0,1.22-.02,1.28-.02.1,0,.11.01.11.11v.83c0,.1,0,.11-.11.11-.06,0-.37-.02-1.28-.02h-2.36c.64,1.94,2.03,3.82,4.03,4.63-.21.2-.43.49-.58.75-.09.17-.13.24-.21.24-.04,0-.11-.03-.22-.1-1.57-.92-2.89-2.54-3.6-4.4-.13.45-.28.87-.48,1.26-.71,1.4-1.77,2.39-3.17,3.18-.11.06-.18.09-.23.09-.08,0-.13-.06-.23-.22-.15-.24-.36-.46-.58-.64,1.56-.7,2.61-1.65,3.21-2.83.29-.56.49-1.21.61-1.96H1.69ZM4.37,6.57c.11-.07.13-.05.2.02.44.44.78.88,1.13,1.43.06.09.06.1-.06.19l-.65.48c-.06.04-.1.06-.13.06-.04,0-.06-.03-.09-.08-.31-.55-.68-1.06-1.1-1.48-.07-.08-.07-.1.06-.18l.64-.44Z"/>
        <path class="cls-2" d="M12.65.35c.1,0,.16-.02.2-.03.04-.02.09-.03.14-.03.08,0,.13.02.38.32.2.23.26.32.26.4,0,.09-.04.12-.1.18-.09.08-.14.19-.19.3-.26.68-.42,1.07-.75,1.74.61.61.75,1.42.75,1.98,0,.76-.35,1.21-1.22,1.34-.31.05-.31.03-.35-.3-.03-.28-.1-.46-.19-.59.59.03.82-.15.82-.71,0-.47-.21-1.02-.79-1.68.39-.78.56-1.24.8-2h-.96v5.68c0,1.38.02,2.1.02,2.16,0,.1,0,.1-.11.1h-.79c-.1,0-.11,0-.11-.1,0-.07.02-.76.02-2.16V2.62c0-1.41-.02-2.11-.02-2.18,0-.1,0-.11.11-.11.07,0,.3.02.79.02h1.29ZM16.2,6.12c-.56.93-1.25,1.59-2.15,2.13-.11.07-.17.1-.22.1-.06,0-.12-.06-.26-.18-.12-.11-.37-.25-.5-.3.95-.44,1.63-.98,2.15-1.75h-.56c-.35.38-.74.71-1.17.99-.11.07-.18.11-.23.11-.07,0-.13-.06-.25-.2-.12-.14-.36-.28-.49-.34.72-.36,1.27-.78,1.76-1.44.09-.14.16-.28.24-.44-.63.01-.87.02-.92.02-.1,0-.11-.01-.11-.11v-.64c0-.1,0-.11.11-.11.06,0,.39.02,1.35.02h2.78c.95,0,1.28-.02,1.34-.02.11,0,.12.01.12.11v.64c0,.1,0,.11-.12.11-.06,0-.39-.02-1.34-.02h-2.7l.3.09c.13.04.16.08.16.14,0,.05-.02.09-.06.12-.06.04-.11.09-.16.16h2.35c.82,0,1.09-.02,1.15-.02.11,0,.13.02.13.12-.03.31-.04.64-.06.93-.05.94-.13,1.57-.25,1.99-.15.55-.43.77-1.04.77-.18,0-.29,0-.47-.02-.23-.02-.24-.02-.3-.34-.04-.23-.13-.49-.24-.65.37.06.46.07.7.07.26,0,.37-.08.46-.32.08-.26.14-.66.2-1.72h-.3c-.5,1.27-1.17,2.19-2.37,2.91-.12.07-.18.11-.24.11-.07,0-.12-.06-.24-.2-.11-.11-.33-.27-.43-.33,1.12-.56,1.86-1.33,2.36-2.49h-.48ZM17.1.4c.82,0,1.1-.02,1.17-.02.09,0,.1.01.1.12,0,.06-.02.29-.02.84v1.21c0,.55.02.78.02.84,0,.1-.01.11-.1.11-.07,0-.35-.02-1.17-.02h-1.77c-.82,0-1.09.02-1.15.02-.1,0-.11-.01-.11-.11,0-.07.02-.29.02-.84v-1.21c0-.55-.02-.78-.02-.84,0-.11.01-.12.11-.12.06,0,.33.02,1.15.02h1.77ZM15.01,1.61h2.39v-.46h-2.39v.46ZM17.4,2.31h-2.39v.45h2.39v-.45Z"/>
        <path class="cls-2" d="M21.67,4.7c-.91,0-1.21.02-1.28.02-.1,0-.11-.01-.11-.12v-.78c0-.1,0-.11.11-.11.07,0,.37.02,1.28.02h2.35V1.32c0-.53-.01-.83-.06-1.22.36.01.75.03,1.09.08.1.01.15.06.15.13,0,.08-.03.13-.07.21-.05.11-.06.29-.06.8v2.41h2.55c.91,0,1.22-.02,1.28-.02.09,0,.1.01.1.11v.78c0,.11,0,.12-.1.12-.06,0-.37-.02-1.28-.02h-1.57v2.7c0,.3,0,.44.1.54.09.09.24.13.72.13s.72-.06.87-.2c.18-.18.22-.49.23-1.2.19.15.49.25.76.31.26.06.27.06.24.31-.06.71-.19,1.1-.44,1.34-.3.28-.7.42-1.74.42-.9,0-1.31-.08-1.53-.32-.2-.21-.26-.54-.26-1.12v-2.91h-1.09c-.08,2.19-.78,3.64-2.95,4.4-.11.03-.17.05-.22.05-.09,0-.13-.06-.23-.25-.14-.26-.29-.45-.5-.64,2-.55,2.77-1.48,2.82-3.56h-1.16ZM21.85.74c.11-.06.14-.06.19.02.42.55.83,1.26,1.12,1.94.04.1.03.11-.1.19l-.67.35c-.13.07-.16.06-.2-.04-.25-.67-.68-1.43-1.07-1.95-.06-.08-.05-.11.07-.17l.66-.34ZM26.99,1.07c.07-.15.1-.26.14-.42.32.12.66.28.95.45.09.05.11.08.11.13s-.02.08-.1.15c-.06.05-.11.12-.18.26-.3.53-.59,1.02-.97,1.54-.1.14-.16.2-.22.2s-.13-.04-.24-.12c-.22-.14-.48-.26-.65-.34.46-.58.91-1.29,1.16-1.85Z"/>
        <path class="cls-2" d="M36.14,7.69c0,.19.03.29.11.35.09.07.28.1.73.1s.67-.05.79-.16c.13-.12.21-.35.25-1,.2.13.43.22.68.28.27.07.29.08.25.34-.1.71-.23,1.01-.53,1.2-.28.18-.72.25-1.44.25-.82,0-1.29-.04-1.55-.22-.25-.17-.31-.34-.31-.84v-1.65h-1.23c-.28,1.39-1.05,2.14-2.7,2.74-.11.04-.17.07-.22.07-.08,0-.12-.07-.22-.25-.14-.26-.33-.5-.51-.65,1.56-.41,2.28-.88,2.57-1.91h-.75c-.95,0-1.28.02-1.34.02-.11,0-.12-.01-.12-.11v-.72c0-.1.01-.11.12-.11.06,0,.39.02,1.34.02h.9c0-.22.02-.46.02-.73v-.34c-.43.01-.61.02-.65.02-.11,0-.12-.01-.12-.11v-.38c-.42.27-.87.51-1.34.74-.11.05-.18.08-.23.08-.08,0-.12-.08-.21-.26-.11-.21-.24-.38-.41-.55.69-.27,1.31-.58,1.85-.92-.34-.38-.65-.68-1.01-.97-.05-.04-.08-.07-.08-.1,0-.02.03-.05.08-.09l.5-.4c.09-.07.11-.09.2-.02.4.33.74.65,1.09,1.01.44-.36.81-.75,1.12-1.19h-1.12c-.75,0-.99.02-1.05.02-.11,0-.12-.01-.12-.11V.45c0-.1,0-.11.12-.11.06,0,.3.02,1.05.02h1.38c.56,0,.84-.02.91-.02.09,0,.12.01.17.12.11.31.26.6.46.86.04.07.09.13.14.2.24-.22.44-.43.6-.64.1-.12.18-.24.28-.42.3.15.59.34.77.46.09.06.11.11.11.16,0,.06-.04.11-.13.15-.08.04-.18.09-.34.27-.21.22-.42.43-.69.66.18.16.36.32.55.46.34-.29.64-.59.85-.83.1-.13.19-.25.28-.43.29.16.55.31.78.46.09.06.12.11.12.17s-.05.11-.13.14c-.1.04-.18.09-.35.27-.22.22-.48.46-.77.71.5.27,1.04.49,1.63.68-.15.2-.26.39-.36.63-.08.19-.11.26-.19.26-.05,0-.12-.02-.23-.07-.58-.25-1.09-.51-1.54-.8v.47c0,.1,0,.11-.11.11-.05,0-.24-.01-.7-.02v1.07h1.01c.96,0,1.28-.02,1.35-.02.1,0,.11,0,.11.11v.72c0,.1,0,.11-.11.11-.07,0-.39-.02-1.35-.02h-1.01v1.35ZM36.48,3.49c-.75-.56-1.33-1.21-1.81-2.01-.48.77-1.11,1.43-1.88,2.01h3.69ZM35.12,5.44v-1.07h-1.1v.34c0,.26-.01.5-.02.73h1.12Z"/>
        <path class="cls-2" d="M42.41,1.19c-.97,0-1.3.02-1.36.02-.11,0-.12-.01-.12-.11V.45c0-.1,0-.11.12-.11.06,0,.39.02,1.36.02h4.48c.98,0,1.31-.02,1.37-.02.1,0,.11.01.11.11v.65c0,.1-.01.11-.11.11-.06,0-.39-.02-1.37-.02h-1.81v.4h2.45c.92,0,1.24-.02,1.31-.02.1,0,.11.01.11.11,0,.06-.02.24-.02.5v.52c0,.8.02.96.02,1.02,0,.1,0,.11-.11.11h-.78c-.1,0-.11,0-.11-.11v-1.37h-2.87v.85c0,.66.02.94.02,1,0,.09,0,.1-.11.1h-.82c-.1,0-.11-.01-.11-.1,0-.06.02-.36.02-1v-.85h-2.77v1.37c0,.1,0,.11-.11.11h-.78c-.09,0-.1,0-.1-.11,0-.07,0-.22,0-1.02v-.44c0-.34,0-.52,0-.58,0-.1,0-.11.1-.11.07,0,.39.02,1.31.02h2.35v-.4h-1.67ZM46.31,4.52c1.01,0,1.5-.02,1.57-.02.1,0,.11.01.11.12,0,.06-.02.26-.02.91v1.14c0,.58.02.85.02.91,0,.1-.01.11-.11.11-.07,0-.56-.02-1.57-.02h-1.27v.15c0,.27.06.31.19.35.26.05.68.06,1.33.06.87,0,1.27-.05,1.47-.21.16-.13.22-.24.25-1.01.18.1.45.22.71.29.26.07.26.08.24.35-.08.65-.26.96-.57,1.16-.32.2-.88.31-2.08.31-.97,0-1.65-.04-2-.16-.31-.11-.51-.32-.51-.92v-.37h-1.84v.41c0,.1-.01.11-.11.11h-.79c-.09,0-.1-.01-.1-.11,0-.07.02-.31.02-.92v-1.61c0-.6-.02-.87-.02-.93,0-.11,0-.12.1-.12.07,0,.55.02,1.5.02h3.48ZM42.93,2.7c.4,0,.5-.01.56-.01.1,0,.11.01.11.09v.4c0,.06,0,.07-.11.07-.06,0-.16-.01-.56-.01h-.48c-.4,0-.5.01-.56.01-.1,0-.11-.01-.11-.08v-.4c0-.07,0-.08.11-.08.06,0,.16.01.56.01h.48ZM42.93,3.58c.4,0,.5-.01.56-.01.1,0,.11.01.11.09v.38c0,.08,0,.09-.11.09-.06,0-.16-.01-.56-.01h-.48c-.4,0-.5.01-.56.01-.1,0-.11-.01-.11-.09v-.39c0-.07,0-.08.11-.08.06,0,.16.01.56.01h.48ZM44.07,5.74v-.5h-1.84v.5h1.84ZM44.07,6.95v-.52h-1.84v.52h1.84ZM45.04,5.24v.5h1.94v-.5h-1.94ZM46.98,6.43h-1.94v.52h1.94v-.52ZM46.76,2.68c.43,0,.53-.01.59-.01.1,0,.11.01.11.09v.39c0,.08,0,.09-.11.09-.06,0-.16-.02-.59-.02h-.49c-.43,0-.53.02-.59.02-.1,0-.11-.01-.11-.1v-.39c0-.07,0-.08.11-.08.06,0,.16.01.59.01h.49ZM46.76,3.56c.43,0,.53-.01.59-.01.1,0,.11.01.11.09v.39c0,.07,0,.08-.11.08-.06,0-.16-.01-.59-.01h-.49c-.43,0-.53.01-.59.01-.1,0-.11-.01-.11-.08v-.4c0-.07,0-.08.11-.08.06,0,.16.01.59.01h.49Z"/>
        <path class="cls-2" d="M52.25,3.84c.27-.61.42-1.12.45-1.48.51.18.96.36,1.24.51.09.04.12.1.12.16,0,.07-.04.14-.1.2-.11.11-.19.25-.35.61-.59,1.33-1.18,2.35-2.14,3.36-.09.1-.18.15-.28.15-.08,0-.15-.03-.23-.1-.2-.16-.52-.32-.88-.43,1.05-.93,1.77-2.07,2.17-2.98ZM55.99,2.48s.1-.06.14-.06c.05,0,.09.02.15.08,1.09,1.09,1.93,2.39,2.51,3.67.03.05.04.09.04.14,0,.06-.03.11-.1.16-.19.15-.51.36-.83.53-.13.06-.2.04-.24-.09-.74-1.67-1.48-2.84-2.47-3.89.36-.24.63-.43.8-.54ZM59.36,1.8c0,.6-.48,1.07-1.08,1.07s-1.08-.47-1.08-1.07.48-1.07,1.08-1.07,1.08.47,1.08,1.07ZM57.69,1.8c0,.34.25.59.59.59s.59-.25.59-.59-.25-.59-.59-.59-.59.25-.59.59Z"/>
        <path class="cls-2" d="M65.21,7.09c0,.89.03,1.55.03,1.8,0,.09-.07.13-.19.13-.27.02-.59.02-.86,0-.12,0-.19-.04-.19-.14,0-.28.05-.95.05-1.78v-1.29c-.89.65-1.64,1.12-2.75,1.67-.06.03-.12.05-.17.05-.06,0-.13-.03-.2-.11-.24-.25-.45-.46-.8-.61,1.38-.63,2.31-1.16,3.22-1.8.83-.59,1.42-1.09,1.94-1.62l-2.31.05c-.54.02-.91.04-1.32.07-.11,0-.15-.06-.17-.19-.05-.23-.08-.6-.11-.98.43.05.85.09,1.39.08l2.9-.03c.37,0,.56-.04.71-.11.06-.03.11-.04.15-.04.06,0,.11.02.17.08.16.13.39.44.5.59.04.06.06.12.06.17,0,.08-.05.14-.15.18-.11.05-.21.12-.32.23-.51.52-1.04,1.02-1.58,1.48v2.12ZM63.59.26c.06-.09.11-.12.21-.09.72.21,1.64.62,2.12.87.07.04.11.07.11.11,0,.03,0,.06-.04.1-.11.22-.24.47-.41.74-.04.07-.08.1-.13.1-.03,0-.07-.01-.11-.04-.5-.31-1.37-.73-2.23-.99.2-.32.38-.65.48-.8ZM66.29,4.78c.07-.09.1-.08.2-.04.69.28,1.48.71,2.18,1.22.06.04.09.07.09.12,0,.03,0,.07-.04.12-.16.26-.29.48-.49.72-.04.05-.08.08-.12.08s-.08-.03-.14-.07c-.63-.51-1.27-.9-2.25-1.38.22-.32.44-.62.57-.77Z"/>
        <path class="cls-2" d="M73.43,2.08c.17.05.19.17.13.31-.11.22-.12.44-.12.68-.02,1.25-.21,2.2-.54,2.94-.26.61-.7,1.26-1.42,1.88-.1.08-.18.13-.26.13-.06,0-.12-.03-.19-.08-.25-.17-.49-.29-.85-.42.78-.59,1.31-1.2,1.66-1.99.28-.68.41-1.23.42-2.83,0-.38-.02-.54-.1-.84.57.07,1.03.14,1.27.22ZM75.65,6.31c.49-.26.95-.57,1.42-.93.6-.46,1.19-.99,1.75-1.7.04.35.14.68.31,1.01.03.07.06.12.06.17,0,.07-.04.14-.15.25-.5.51-.96.92-1.48,1.31-.52.4-1.08.79-1.78,1.2-.18.12-.2.14-.29.21-.06.05-.13.08-.2.08-.06,0-.13-.03-.21-.08-.22-.15-.45-.41-.6-.61-.06-.09-.09-.15-.09-.21,0-.05.01-.09.04-.15.07-.13.06-.25.06-.76v-3.13c0-.87,0-1.28-.1-1.74.4.05.95.12,1.25.21.13.03.18.09.18.17,0,.06-.03.15-.08.25-.09.19-.09.39-.09,1.11v3.34Z"/>
        <path class="cls-2" d="M81.08,2.92c-.65,0-.84.02-.9.02-.1,0-.11-.01-.11-.11v-.7c0-.1,0-.11.11-.11.06,0,.25.02.9.02h.15v-.63c0-.6,0-.94-.07-1.34.37.01.66.03.97.07.09.02.16.05.16.11,0,.08-.03.13-.06.2-.05.13-.07.29-.07.95v.64c.52,0,.69-.02.75-.02.11,0,.12.01.12.11v.7c0,.1,0,.11-.12.11-.05,0-.22-.01-.68-.02.21.66.6,1.29,1.01,1.79-.13.17-.24.38-.33.6-.05.12-.08.19-.13.19-.03,0-.07-.04-.12-.14-.2-.37-.39-.77-.53-1.23.01,2.65.07,4.82.07,4.98,0,.1,0,.11-.1.11h-.8c-.1,0-.11-.01-.11-.11,0-.15.06-2.1.07-4.41-.19.76-.45,1.44-.8,2.06-.05.11-.1.17-.14.17s-.08-.05-.11-.16c-.09-.29-.23-.58-.35-.74.6-.88,1.02-1.87,1.29-3.11h-.07ZM83.82,7.26c.1-.12.18-.25.26-.43.26.09.52.2.75.32.08.04.11.07.11.12s-.03.1-.09.14c-.08.05-.13.11-.2.22-.33.45-.62.78-1.1,1.17-.11.09-.17.14-.23.14s-.11-.06-.23-.18c-.16-.17-.36-.32-.52-.41.56-.34.96-.71,1.25-1.09ZM84.42,6.65c-.97,0-1.3.02-1.36.02-.11,0-.12-.01-.12-.11v-.62c0-.11.01-.12.12-.12.06,0,.39.02,1.36.02h3.3c.98,0,1.32-.02,1.37-.02.1,0,.11.01.11.12v.62c0,.1,0,.11-.11.11-.05,0-.39-.02-1.37-.02h-1.21v.35c0,.39.02.79.02,1.15,0,.41-.07.62-.3.8-.19.15-.45.2-1.09.2q-.3,0-.37-.3c-.05-.22-.13-.43-.23-.61.29.04.52.06.7.06.22,0,.33-.14.33-.35v-1.3h-1.15ZM84.48,1.29c-.97,0-1.3.02-1.36.02-.1,0-.11-.01-.11-.12v-.64c0-.1,0-.11.11-.11.06,0,.39.02,1.36.02h3.2c.97,0,1.31-.02,1.37-.02.09,0,.1.01.1.11v.64c0,.11,0,.12-.1.12-.06,0-.4-.02-1.37-.02h-.51v.64h.16c.94,0,1.27-.02,1.34-.02.1,0,.11.01.11.11,0,.06-.02.22-.02.66v.64c0,.44.02.6.02.66,0,.11,0,.12-.11.12-.07,0-.4-.02-1.34-.02h-2.54c-.94,0-1.27.02-1.33.02-.1,0-.11-.01-.11-.12,0-.06.02-.22.02-.66v-.64c0-.44-.02-.59-.02-.66,0-.1,0-.11.11-.11.06,0,.37.02,1.31.02h.14v-.64h-.43ZM84.99,5.35c-.88,0-1.19.02-1.25.02-.1,0-.11-.01-.11-.11v-.61c0-.1,0-.11.11-.11.06,0,.37.02,1.25.02h2.13c.9,0,1.2-.02,1.26-.02.1,0,.11.01.11.11v.61c0,.1,0,.11-.11.11-.06,0-.36-.02-1.26-.02h-2.13ZM84.91,3.38v-.76h-.71v.76h.71ZM86.36,1.29h-.64v.64h.64v-.64ZM85.72,3.38h.64v-.76h-.64v.76ZM87.66,6.91c.11-.07.13-.07.19.01.38.47.88.89,1.49,1.24-.16.15-.3.32-.43.52-.09.16-.14.23-.19.23s-.12-.05-.23-.14c-.52-.41-.98-.87-1.36-1.39-.06-.1-.06-.12.06-.2l.47-.27ZM87.88,2.62h-.71v.76h.71v-.76Z"/>
        <path class="cls-2" d="M90.61,2.05c.07-.09.09-.1.19-.06.44.18.89.43,1.31.73.07.06.07.08,0,.19l-.39.54c-.09.13-.11.13-.21.06-.39-.32-.85-.57-1.27-.77-.05-.02-.08-.05-.08-.08s.02-.07.06-.12l.39-.49ZM93.99,6.67c0-.25-.03-.43-.06-.71.37.01.73.03,1.08.07.08.01.14.05.14.1,0,.07-.04.13-.07.21-.02.07-.03.17-.03.33h2.62c.89,0,1.2-.02,1.26-.02.1,0,.11.01.11.12v.72c0,.1,0,.11-.11.11-.06,0-.37-.02-1.26-.02h-2.62v.37c0,.76.02,1.09.02,1.14,0,.1,0,.11-.11.11h-.87c-.1,0-.11-.01-.11-.11,0-.06.02-.38.02-1.14v-.37h-2.47c-.89,0-1.19.02-1.25.02-.11,0-.12-.01-.12-.11v-.72c0-.11,0-.12.12-.12.06,0,.36.02,1.25.02h2.46ZM92.55,4.31c.03.09.05.15.05.21,0,.1-.06.18-.2.32-.38.39-.84.78-1.19,1.05-.13.1-.21.2-.24.25-.04.07-.09.1-.14.1s-.09-.04-.14-.12c-.15-.22-.35-.56-.48-.83.26-.12.51-.26.71-.4.44-.32.98-.77,1.43-1.27.05.22.12.47.2.69ZM91.2.22c.07-.08.11-.08.2-.05.46.22.86.46,1.3.79.04.04.07.06.07.09,0,.02-.02.05-.06.09l-.41.55c-.08.1-.13.1-.21.03-.38-.3-.83-.59-1.29-.82-.09-.05-.09-.07,0-.18l.4-.5ZM93.32,2.91s-.09.09-.13.13c-.1.1-.16.16-.22.16-.05,0-.11-.06-.21-.18-.14-.18-.3-.32-.47-.43.72-.62,1.21-1.32,1.5-1.96.07-.16.17-.42.21-.63.33.06.64.13.92.2.1.03.15.07.15.14,0,.06-.03.11-.11.17-.06.05-.17.19-.25.37-.05.12-.12.24-.18.36h1.26c.12-.23.23-.47.29-.63.07-.18.13-.36.17-.57.35.06.64.12.92.21.07.02.13.06.13.11,0,.08-.03.11-.1.17-.07.06-.11.11-.14.17-.08.14-.2.36-.32.54h.66c.85,0,1.14-.02,1.2-.02.11,0,.12.01.12.12v.54c0,.11,0,.12-.12.12-.06,0-.35-.02-1.2-.02h-.77v.56h.48c.84,0,1.1-.02,1.16-.02.11,0,.12.01.12.11v.53c0,.1,0,.11-.12.11-.06,0-.32-.02-1.16-.02h-.48v.57h.46c.84,0,1.11-.02,1.17-.02.1,0,.11.01.11.11v.53c0,.1-.01.11-.11.11-.06,0-.33-.02-1.17-.02h-.46v.57h.76c.94,0,1.26-.01,1.32-.01.11,0,.12,0,.12.1v.56c0,.1,0,.11-.12.11-.06,0-.38-.02-1.32-.02h-2.63c-.95,0-1.29.02-1.35.02-.1,0-.11-.01-.11-.11,0-.07.02-.42.02-1.17v-1.67ZM95.71,2.54v-.56h-1.45v.56h1.45ZM95.71,3.82v-.57h-1.45v.57h1.45ZM95.71,5.1v-.57h-1.45v.57h1.45Z"/>
        <path class="cls-2" d="M103.64,7.99c.61-.1,1.29-.22,2.02-.39-.03.16-.06.36-.06.64q-.01.21-.33.28c-1,.23-2.11.42-3.05.57-.16.03-.31.07-.37.11-.05.04-.09.06-.15.06-.07,0-.12-.03-.16-.14-.08-.27-.15-.57-.22-.86.42-.02.71-.07,1.07-.11l.29-.03v-1.02c-.59.31-1.22.56-1.85.76-.11.03-.18.05-.23.05-.09,0-.12-.06-.21-.25-.12-.22-.24-.41-.38-.55,1.08-.24,2.29-.67,3.1-1.25h-1.59c-.89,0-1.19.02-1.25.02-.09,0-.1-.01-.1-.11v-.7c0-.1.01-.11.1-.11.06,0,.36.02,1.25.02h2.61c0-.25-.02-.44-.05-.74.36.02.67.04,1,.07.13.01.17.07.17.12,0,.08-.03.14-.06.22-.04.08-.04.21-.04.33h2.61c.89,0,1.19-.02,1.25-.02.1,0,.11.01.11.11v.7c0,.1,0,.11-.11.11-.06,0-.36-.02-1.25-.02h-.02c.21.14.39.27.57.41.06.05.09.09.09.15,0,.07-.06.11-.13.13-.09.03-.15.06-.32.19-.28.22-.57.42-.89.64.64.39,1.43.67,2.34.85-.15.17-.32.42-.44.68-.13.28-.15.28-.44.2-1.9-.58-3.21-1.66-3.9-3.25h-.14c-.25.24-.54.46-.84.67v1.46ZM102.24,1.21c0-.49,0-.78-.06-1.14.37.01.7.03,1.04.07.08,0,.15.05.15.1,0,.08-.03.13-.06.19-.06.11-.06.24-.06.76v2.17c0,.73.02,1.07.02,1.13,0,.1,0,.11-.1.11h-.84c-.1,0-.1-.01-.1-.11,0-.06,0-.38,0-1.04-.4.19-.86.39-1.26.55-.16.06-.25.1-.3.14-.07.06-.11.08-.16.08s-.09-.05-.13-.13c-.11-.25-.22-.57-.32-.88.31-.04.55-.11.83-.19.47-.16.91-.32,1.34-.51v-1.3ZM100.87.63c.09-.08.11-.09.2-.02.31.28.67.6.97.96.07.09.06.11-.04.2l-.51.47c-.06.05-.09.08-.13.08-.03,0-.05-.03-.08-.07-.28-.4-.56-.72-.9-1.02-.08-.06-.07-.09.03-.18l.46-.42ZM105.22,4.05c-.88,0-1.17.02-1.23.02-.11,0-.12-.01-.12-.11v-.69c0-.1,0-.1.12-.1.06,0,.35.01,1.23.01h.49v-1.09h-.65c-.93,0-1.26.02-1.32.02-.1,0-.11-.01-.11-.11v-.69c0-.11,0-.12.11-.12.06,0,.39.02,1.32.02h.65v-.2c0-.3,0-.59-.07-.96.39.01.7.04,1.04.07.1.01.16.06.16.11,0,.07-.02.12-.05.18-.06.11-.06.25-.06.57v.23h.86c.93,0,1.26-.02,1.32-.02.1,0,.11.01.11.12v.69c0,.1,0,.11-.11.11-.06,0-.39-.02-1.32-.02h-.86v1.09h.55c.89,0,1.18-.01,1.24-.01.11,0,.12,0,.12.1v.69c0,.1,0,.11-.12.11-.06,0-.35-.02-1.24-.02h-2.06ZM105.6,5.86c.2.38.46.72.78,1.01.33-.23.61-.45.88-.71.09-.08.17-.18.25-.3h-1.91Z"/>
        <path class="cls-2" d="M110.94,5.47c0-.37,0-.85.01-1.31-.16.22-.34.44-.52.66-.07.09-.13.14-.17.14-.05,0-.08-.06-.11-.18-.07-.32-.21-.65-.33-.84.8-.9,1.36-1.98,1.78-3.2.08-.23.14-.45.17-.7.32.08.61.17.9.28.11.04.17.07.17.15,0,.07-.03.11-.11.18-.07.06-.11.15-.2.41-.18.51-.37,1-.6,1.47v5.07c0,.97.02,1.46.02,1.51,0,.1,0,.11-.11.11h-.81c-.1,0-.11-.01-.11-.11,0-.06.02-.54.02-1.51v-2.13ZM113.73,4.24c0,.7-.02,1.71-.19,2.65-.14.75-.38,1.41-.68,2-.06.11-.1.17-.15.17s-.1-.04-.17-.13c-.19-.25-.41-.45-.6-.59.35-.57.55-1.11.68-1.79.12-.62.15-1.42.15-2.33s-.02-1.38-.02-1.44c0-.11,0-.12.11-.12.06,0,.41.02,1.39.02h3.43c.98,0,1.31-.02,1.37-.02.1,0,.11.01.11.12v.63c0,.11,0,.12-.11.12-.06,0-.39-.02-1.37-.02h-3.95v.73ZM114.27.96c0-.39-.01-.58-.06-.86.43.01.7.03.97.06.09.01.13.04.13.09,0,.06-.02.09-.05.15-.03.06-.05.21-.05.55v.04h1.27v-.05c0-.38,0-.56-.06-.84.43.01.69.03.96.06.09.01.14.04.14.09,0,.06-.01.09-.05.15-.04.06-.05.21-.05.54v.05h.16c.97,0,1.31-.02,1.37-.02.1,0,.11.01.11.11v.65c0,.1,0,.11-.11.11-.06,0-.4-.02-1.37-.02h-.16c0,.34.02.49.02.54,0,.1,0,.11-.12.11h-.75c-.1,0-.11-.01-.11-.11,0-.06,0-.2.02-.54h-1.27c0,.34.02.49.02.54,0,.1,0,.11-.11.11h-.76c-.1,0-.11-.01-.11-.11,0-.06,0-.2.02-.54h-.02c-.96,0-1.29.02-1.35.02-.1,0-.11-.01-.11-.11v-.65c0-.1,0-.11.11-.11.07,0,.4.02,1.37.02v-.03ZM118.74,6.06c0,1,.03,1.76.03,2.09,0,.36-.05.61-.26.79-.15.13-.43.21-.95.21-.22,0-.24,0-.28-.23-.04-.26-.11-.44-.19-.61.17.01.31.02.53.02.17,0,.24-.06.24-.26v-.62h-1.07v.29c0,.72.02,1.07.02,1.13,0,.1,0,.11-.11.11h-.67c-.1,0-.11-.01-.11-.11,0-.07.02-.41.02-1.13v-.29h-1.02v.49c0,.74.02,1.08.02,1.14,0,.1,0,.11-.11.11h-.7c-.1,0-.11-.01-.11-.11,0-.06.02-.38.02-1.14v-2.67c0-.75-.02-1.1-.02-1.15,0-.11,0-.12.11-.12.07,0,.38.02,1.25.02h2.02c.87,0,1.18-.02,1.25-.02.1,0,.11.01.11.12,0,.05-.02.37-.02,1.04v.9ZM115.94,5.38v-.61h-1.02v.61h1.02ZM115.94,6.74v-.65h-1.02v.65h1.02ZM116.79,4.77v.61h1.07v-.61h-1.07ZM117.86,6.74v-.65h-1.07v.65h1.07Z"/>
      </g>
      <g>
        <g>
          <path class="cls-1" d="M44,21.92v-2.27h4.54v2.27h-4.54ZM53.08,20.71v10.29l-2.27,2.27h-6.81v-2.82h2.27v.55h3.6l.95-.93v-9.37h2.27ZM44,26.46v-2.27h4.54v2.27h-4.54Z"/>
          <path class="cls-1" d="M63.32,30.98v2.27h-9.08v-2.27h3.41v-6.79h-2.27v-2.27h6.81v2.27h-2.27v6.79h3.41Z"/>
          <path class="cls-1" d="M64.45,33.25v-13.6h1.82v13.6h-1.82ZM73.54,24.19v6.79l-2.27,2.27h-3.65v-13.6h2.27v11.33h.44l.95-.93v-5.87h2.27Z"/>
          <path class="cls-1" d="M75.05,26.46v-2.27h.19l.95-.95v-3.6h7.95v11.35l-2.27,2.27h-5.68v-2.27h4.73l.95-.95v-2.46h-2.31v-2.27h2.31v-3.41h-3.41v2.27l-2.27,2.27h-1.14Z"/>
          <path class="cls-1" d="M92.67,25.17v2.27h-7.27v-2.27h7.27Z"/>
          <path class="cls-1" d="M95.93,33.29h-2.4l1.14-13.62h2.4l-1.14,13.62ZM100.18,33.29h2.42l-1.14-13.62h-2.42l1.14,13.62Z"/>
          <path class="cls-1" d="M112.82,31.02l-2.27,2.27h-5.66v-2.27h4.73l.93-.95v-6.83h-4.52v2.25h-2.27v-4.52h3.41v-1.31h2.27v1.31h3.39v10.05Z"/>
          <path class="cls-1" d="M120.77,26.78l2.71,6.49h-2.65l-1.59-3.77-2.14,3.77h-2.65v-2.27h1.32l4.92-8.7-.38-.38h-5.87v-2.27h6.81l2.27,2.27-2.76,4.86Z"/>
        </g>
        <g>
          <rect class="cls-1" x="34.26" y="22.79" width="4.24" height="1.19"/>
          <path class="cls-1" d="M39.08,31.8h-5.12c-.47,0-.7-.25-.7-.76v-.17h7.1v-5.91h-16.49v5.91h7.14v.45c0,.66.18,1.18.54,1.54.36.36.86.54,1.49.54h6.27c.42,0,.82-.03,1.19-.1.37-.06.68-.17.92-.31v-1.8c-.31.2-.67.35-1.08.46-.41.11-.83.16-1.25.16ZM33.26,26.25h4.77v1h-4.77v-1ZM33.26,28.56h4.77v1h-4.77v-1ZM31.01,29.55h-4.79v-1h4.79v1ZM31.01,27.24h-4.79v-1h4.79v1Z"/>
          <polygon class="cls-1" points="33.26 18.09 33.26 17.07 40.91 17.07 40.91 15.42 23.32 15.42 23.32 17.07 31.01 17.07 31.01 18.09 22.81 18.09 22.81 23.13 24.8 23.13 24.8 19.61 31.01 19.61 31.01 23.98 33.26 23.98 33.26 19.61 39.43 19.61 39.43 23.13 41.42 23.13 41.42 18.09 33.26 18.09"/>
          <rect class="cls-1" x="34.26" y="20.63" width="4.24" height="1.14"/>
          <rect class="cls-1" x="25.76" y="22.79" width="4.28" height="1.19"/>
          <rect class="cls-1" x="25.76" y="20.63" width="4.28" height="1.14"/>
          <path class="cls-1" d="M21.08,14.99l-4.02,3.04s-.05.06-.05.1c0,.04.02.08.06.1l1.24.75-.89,1.31-1.37-.63c-.34-.21-.59-.37-.74-.47-.27-.18-.51-.36-.72-.53l-.09-.09,3.59-2.56s.05-.06.05-.1c0-.04-.02-.08-.06-.1l-1.37-.83,1.8-2.65s.03-.12-.02-.16c-.04-.04-.11-.04-.16,0l-4.02,3.04s-.05.06-.05.1c0,.04.02.08.06.1l1.24.75-1.41,2.07-.83-.84c-.28-.31-.53-.62-.74-.93-.21-.31-.42-.66-.61-1.04H2.67v1.95h5.74c-.35.49-.76.94-1.22,1.34-.46.4-.98.76-1.56,1.08l-1.61-1.76H1.57l2.27,2.52c-.52.14-.96.24-1.31.31-.35.06-.65.11-.89.14v2.31c.42-.06.91-.14,1.45-.26.54-.12.99-.24,1.35-.37v.83h2.08v2.69H1.87v2.14h4.47c-.23.99-.69,1.72-1.38,2.2-.76.54-1.87.81-3.33.81v2.37c2.19,0,3.91-.54,5.17-1.61,1.06-.9,1.74-2.16,2.06-3.77h3.84v2.76c0,.66.24,1.23.71,1.69.47.46,1.06.69,1.77.69h2.9c.85,0,1.56-.17,2.14-.51v-2.48c-.34.27-.67.45-1.01.54-.33.09-.72.14-1.18.14h-2.18c-.18,0-.34-.06-.46-.17-.12-.11-.18-.25-.18-.42v-2.23h4.75v-2.14h-4.75v-2.69h2.18v-.81c.47.17.89.3,1.28.38.39.08.9.18,1.54.3v-2.33c-.67-.07-1.31-.2-1.92-.4l2.53-1.8s.05-.06.05-.1-.02-.08-.06-.1l-1.37-.83,1.8-2.65s.03-.12-.02-.16c-.04-.04-.11-.04-.16,0ZM12.7,26.18h-3.69v-2.69h3.69v2.69ZM7.17,21.35c.81-.48,1.53-1.05,2.18-1.72.58-.58,1.09-1.22,1.55-1.91.51.76,1.07,1.45,1.7,2.07.62.61,1.29,1.13,2.01,1.56h-7.44Z"/>
        </g>
      </g>
    </g>
  </g>
</svg>