<?xml version="1.0" encoding="UTF-8"?>
<svg id="_レイヤー_2" data-name="レイヤー 2" xmlns="http://www.w3.org/2000/svg" viewBox="0 0 154.18 38.1">
  <defs>
    <style>
      .cls-1 {
        fill: #59575f;
      }

      .cls-2 {
        fill: #003d22;
        stroke: #003d22;
        stroke-linecap: round;
        stroke-linejoin: round;
        stroke-width: .07px;
      }
    </style>
  </defs>
  <g id="_レイヤー_1-2" data-name="レイヤー 1">
    <g>
      <g>
        <path class="cls-1" d="M7.26,2.81c.94,0,1.28-.02,1.35-.02.1,0,.11.01.11.11,0,.06-.02.21-.02.43v.35c0,.76.02.9.02.96,0,.1,0,.11-.11.11h-.79c-.1,0-.11-.01-.11-.11v-1.04H1.49v1.04c0,.1,0,.11-.12.11h-.78c-.1,0-.11-.01-.11-.11,0-.07.02-.2.02-.96v-.29c0-.28-.02-.43-.02-.49,0-.1,0-.11.11-.11.07,0,.41.02,1.35.02h2.08c-.01-.24-.02-.44-.07-.67.33,0,.66.02.92.04l-.08-.07c-.17-.13-.38-.23-.54-.29l.18-.2c-.08,0-.35-.02-1.15-.02.1.18.2.38.29.61.04.1.04.12-.1.15l-.66.13c-.14.03-.16.03-.19-.08-.08-.26-.19-.55-.31-.81h-.63c-.21.3-.45.58-.73.83-.11.1-.17.16-.23.16-.05,0-.1-.06-.21-.18-.18-.21-.37-.33-.51-.42.52-.43.94-.91,1.24-1.51.08-.15.13-.28.18-.47.32.04.7.1.92.15.1,0,.15.04.15.12,0,.06-.03.1-.08.14-.06.05-.1.11-.17.24l-.07.14h1.07c.84,0,1.11-.02,1.17-.02.11,0,.12.01.12.11v.61c.26-.32.46-.64.62-1,.06-.13.13-.32.17-.5.3.04.65.1.86.15.11.02.16.05.16.12s-.03.1-.08.14c-.07.06-.13.2-.19.33l-.03.06h1.45c1.02,0,1.37-.02,1.43-.02.1,0,.11.01.11.11v.62c0,.1,0,.11-.11.11-.06,0-.41-.02-1.43-.02h-.17c.12.19.21.39.3.61.04.1.04.12-.1.15l-.65.12c-.14.03-.16.02-.19-.08-.09-.25-.2-.54-.33-.8h-.74c-.1.17-.22.34-.36.51-.07.08-.11.12-.15.14.01.02.01.03.01.06,0,.04-.02.08-.06.16-.04.07-.04.2-.04.34h2.25ZM5.73,4.06c.88,0,1.29-.02,1.35-.02.1,0,.11.01.11.11,0,.06-.02.25-.02.69v.5c0,.44.02.63.02.7,0,.09,0,.1-.11.1-.06,0-.47-.02-1.35-.02h-2.77v.55h3.32c.91,0,1.37-.02,1.44-.02.1,0,.11.01.11.12,0,.06-.02.26-.02.76v.83c0,.5.02.69.02.74,0,.1,0,.11-.11.11h-.81c-.1,0-.11-.01-.11-.11v-.27h-3.84v.29c0,.1,0,.11-.11.11h-.79c-.1,0-.11-.01-.11-.11,0-.06.02-.38.02-1.15v-2.65c0-.77-.02-1.11-.02-1.17,0-.1,0-.11.11-.11.06,0,.52.02,1.42.02h2.25ZM6.17,4.8h-3.21v.58h3.21v-.58ZM2.96,7.43v.64h3.84v-.64h-3.84Z"/>
        <path class="cls-1" d="M12.23,6.09c.35-.16.69-.32,1.04-.51,0,.17,0,.43,0,.65q.01.33-.25.48c-.66.35-1.4.67-2.16.96-.16.07-.26.11-.31.15-.06.05-.1.07-.16.07-.05,0-.09-.03-.13-.13-.09-.26-.17-.58-.25-.94.3-.05.59-.13.94-.24l.29-.1v-2.17c-.63,0-.82.02-.88.02-.1,0-.11,0-.11-.11v-.72c0-.11,0-.12.11-.12.06,0,.25.02.88.02v-1.76h-.06c-.67,0-.88.02-.94.02-.09,0-.1-.01-.1-.11v-.73c0-.11,0-.12.1-.12.06,0,.27.02.94.02h1.04c.68,0,.89-.02.94-.02.1,0,.11.01.11.12v.73c0,.1,0,.11-.11.11-.05,0-.26-.02-.93-.02v1.76c.55,0,.74-.02.8-.02.1,0,.1.01.1.12v.72c0,.1,0,.11-.1.11-.06,0-.25-.02-.8-.02v1.78ZM14.06,8.77c-.99,0-1.33.02-1.39.02-.1,0-.11-.01-.11-.11v-.71c0-.1.01-.11.11-.11.06,0,.4.02,1.39.02h1.52v-.98h-.62c-.92,0-1.23.02-1.29.02-.1,0-.11-.01-.11-.11v-.69c0-.1.01-.11.11-.11.06,0,.37.02,1.29.02h.62v-.86h-.65c-.91,0-1.24.02-1.3.02-.11,0-.12-.01-.12-.1,0-.06.02-.38.02-1.11V1.76c0-.71-.02-1.02-.02-1.09,0-.1,0-.11.12-.11.06,0,.39.02,1.3.02h2.38c.92,0,1.24-.02,1.31-.02.1,0,.11.01.11.11,0,.06-.02.38-.02,1.09v2.22c0,.73.02,1.05.02,1.11,0,.09,0,.1-.11.1-.07,0-.39-.02-1.31-.02h-.73v.86h.76c.91,0,1.23-.02,1.29-.02.1,0,.11.01.11.11v.69c0,.1,0,.11-.11.11-.06,0-.38-.02-1.29-.02h-.76v.98h1.15c.98,0,1.33-.02,1.38-.02.1,0,.11.01.11.11v.71c0,.1,0,.11-.11.11-.05,0-.4-.02-1.38-.02h-3.67ZM15.58,2.44v-1.01h-1.11v1.01h1.11ZM15.58,4.33v-1.07h-1.11v1.07h1.11ZM16.58,1.43v1.01h1.18v-1.01h-1.18ZM17.76,3.26h-1.18v1.07h1.18v-1.07Z"/>
        <path class="cls-1" d="M25.2.61c0-.21-.03-.4-.07-.57.37,0,.61.02.93.05.1.01.16.05.16.11,0,.04-.03.09-.06.16-.03.05-.05.12-.05.25h.46c1.04,0,1.55-.02,1.61-.02.11,0,.12.01.12.11,0,.06-.02.21-.02.56v.36c0,.37.02.52.02.57,0,.1,0,.11-.12.11-.06,0-.57-.02-1.61-.02h-.46v.42h1.4c.97,0,1.31-.02,1.37-.02.1,0,.12.04.11.12,0,.16,0,.27-.03.41-.05.44-.1.76-.21.96-.17.31-.45.42-.9.42h-.13v2.06c0,.63.02.9.02.96,0,.1,0,.11-.11.11-.07,0-.54-.02-1.46-.02h-3.13c-.92,0-1.39.02-1.45.02-.1,0-.11-.01-.11-.11,0-.07.02-.39.02-1.06v-1.64c-.22.08-.46.15-.71.22-.3.07-.32.07-.44-.21-.1-.24-.22-.4-.33-.51,1.28-.2,2.05-.54,2.49-1.09h-1.02l-.08.18c-.04.09-.07.12-.2.11l-.6-.05c-.15-.02-.16-.05-.12-.14.17-.36.31-.71.42-1.11.05-.16.09-.35.12-.53,0-.11.03-.14.12-.14.06,0,.39.02,1.36.02h.58c.02-.13.02-.26.03-.41h-.97c-.96,0-1.29.02-1.35.02-.1,0-.11-.01-.11-.1v-.47c0-.1,0-.11.11-.11.06,0,.39.02,1.35.02h.98c-.01-.22-.03-.39-.07-.57.37.01.62.02.91.05.1.01.18.05.18.11,0,.05-.04.1-.06.16-.02.05-.04.11-.04.25h1.15ZM23.61,8.08c.1.05.14.07.14.14,0,.06-.05.11-.15.12-.11.02-.23.05-.4.15-.52.29-1.36.57-2.25.73-.09.01-.17.02-.21.02-.11,0-.13-.04-.24-.21-.14-.23-.29-.41-.44-.54.89-.09,1.68-.26,2.26-.51.14-.06.27-.13.42-.26.37.12.62.23.87.36ZM22.85,2.7c.06-.13.1-.27.14-.42h-1.14l-.12.42h1.12ZM22.46,4.65v.42h4.29v-.42h-4.29ZM26.75,6.04v-.41h-4.29v.41h4.29ZM26.75,6.63h-4.29v.42h4.29v-.42ZM27.09,4c-.03-.09-.06-.19-.09-.26.28.04.45.05.64.05.17,0,.23-.03.26-.15.02-.08.03-.21.04-.32h-1.83c0,.22.02.34.02.37,0,.1,0,.11-.11.11h-.72c-.11,0-.12-.01-.12-.11,0-.04,0-.16,0-.37h-1.61c-.13.25-.29.48-.51.68h4.02ZM25.2,2.7v-.42h-1.27c-.03.15-.06.29-.1.42h1.37ZM25.2,1.66v-.41h-1.16c0,.14,0,.28-.02.41h1.18ZM26.07,7.77c.13-.06.15-.07.24-.02.73.4,1.59.57,2.72.68-.16.15-.35.36-.49.61-.08.14-.12.18-.22.18-.06,0-.13-.01-.24-.03-.93-.17-1.98-.51-2.69-.97-.1-.07-.09-.09.04-.15l.64-.3ZM26.11,1.25v.41h1.17v-.41h-1.17Z"/>
        <path class="cls-1" d="M34.86,4.62c0,2.83-.86,3.98-2.42,3.98s-2.39-1.13-2.39-3.96.87-3.94,2.41-3.94,2.4,1.1,2.4,3.92ZM31.34,4.63c0,2.25.31,2.98,1.1,2.98s1.13-.74,1.13-2.98-.31-2.94-1.11-2.94-1.12.68-1.12,2.94Z"/>
        <path class="cls-1" d="M44.32,6.21c0,.87.02,1.39.02,1.73,0,.4-.09.65-.32.83-.24.19-.57.26-1.63.26-.32,0-.33-.01-.39-.32-.06-.3-.15-.56-.26-.77.42.04.89.05,1.13.05.3,0,.39-.09.39-.34v-2.5h-5.84v2.13c0,1.09.02,1.65.02,1.71,0,.1,0,.11-.12.11h-.87c-.1,0-.11-.01-.11-.11,0-.07.02-.68.02-1.96V2.75c0-1.28-.02-1.91-.02-1.97,0-.11,0-.12.11-.12.07,0,.41.02,1.36.02h5.07c.95,0,1.29-.02,1.35-.02.1,0,.11.01.11.12,0,.06-.02.73-.02,2.01v3.42ZM39.77,4.18V1.66h-2.35v2.52h2.35ZM40.81,1.66v2.52h2.45V1.66h-2.45Z"/>
        <path class="cls-1" d="M50.96,2.31c-.23,1.7-.65,3.26-1.25,4.31-.43.75-.95,1.15-1.7,1.15-.88,0-1.77-.94-1.77-2.57,0-.96.41-1.88,1.13-2.6.84-.84,1.9-1.28,3.25-1.28,2.4,0,3.81,1.48,3.81,3.47,0,1.86-1.05,3.03-3.08,3.64-.21.06-.3.02-.43-.18-.11-.17-.32-.4-.7-.63,1.69-.4,3.02-1.1,3.02-2.99,0-1.19-.9-2.32-2.24-2.32h-.04ZM48.09,3.28c-.48.54-.78,1.21-.78,1.85,0,.92.37,1.43.68,1.43.26,0,.48-.13.75-.61.44-.81.89-2.25,1.06-3.58-.7.14-1.26.42-1.71.91Z"/>
        <path class="cls-1" d="M56.62,6.05c.14.05.14.06.14.17-.03.8-.13,1.59-.35,2.25-.04.11-.1.11-.18.06l-.35-.23c-.12-.06-.12-.09-.08-.19.2-.6.31-1.28.36-2.09,0-.12.03-.11.16-.07l.3.1ZM57.4,5.55c-.68,0-.94.02-1.05.02-.1,0-.11-.01-.11-.12,0-.06.02-.43.02-1.22V1.74c0-.79-.02-1.16-.02-1.23,0-.1,0-.11.11-.11.11,0,.37.02,1.05.02h1.61c.65,0,.93-.02.99-.02.1,0,.11.01.11.11v.64c0,.1-.01.11-.11.11-.06,0-.34-.02-.99-.02h-.19v.69c.63,0,.86-.02.92-.02.1,0,.11.01.11.11v.55c0,.1,0,.11-.11.11-.06,0-.29-.01-.92-.02v.67c.62,0,.86-.01.92-.01.1,0,.11,0,.11.1v.56c0,.1,0,.11-.11.11-.06,0-.29-.01-.92-.02v.71h.18c.63,0,.82-.02.88-.02.09,0,.12.02.11.13l-.03.66c-.04,1.43-.12,2.17-.26,2.64.43-.67.68-1.46.8-2.39.11-.81.13-1.82.13-3.55,0-1.03-.02-1.5-.02-1.56,0-.1,0-.11.12-.11.06,0,.32.02,1.12.02h1.46c.79,0,1.06-.02,1.12-.02.11,0,.12.01.12.11,0,.06-.02.35-.02,1v1.88c0,.66.02.92.02.99,0,.1-.01.11-.12.11h-.76c-.1,0-.11-.02-.11-.12v-.19h-.35c.14,1.66.69,2.95,1.85,4-.18.13-.4.36-.59.59-.09.13-.14.19-.19.19s-.1-.05-.2-.16c-1.15-1.21-1.61-2.72-1.78-4.62h-.72c-.02.7-.07,1.26-.14,1.82-.13.96-.44,1.96-.95,2.8-.08.12-.12.18-.17.18s-.11-.06-.21-.16c-.18-.2-.37-.36-.54-.47-.2.37-.55.55-.97.55-.13,0-.3,0-.43-.01q-.16-.02-.22-.33c-.04-.28-.11-.48-.2-.67.3.04.53.06.74.06s.32-.08.41-.26c.11-.25.2-.84.22-2.32h-1.72ZM57.28,6.03c.12-.02.14-.02.15.08.07.56.14,1.15.16,1.77,0,.1,0,.11-.12.15l-.31.11c-.12.04-.14.04-.14-.07,0-.68-.04-1.27-.11-1.84-.02-.11,0-.12.12-.15l.25-.05ZM57.96,1.93v-.69h-.82v.69h.82ZM57.96,3.33v-.67h-.82v.67h.82ZM57.96,4.78v-.71h-.82v.71h.82ZM57.93,5.95c.1-.04.12-.03.14.07.1.44.17.9.23,1.43,0,.09,0,.12-.12.17l-.21.09c-.11.05-.13.05-.14-.06-.04-.53-.11-1.06-.21-1.49-.02-.1,0-.1.1-.14l.21-.07ZM58.52,5.84c.09-.03.1-.02.13.06.11.3.2.64.27,1.05,0,.08,0,.1-.08.15l-.21.11c-.1.05-.12.03-.13-.05-.07-.45-.14-.81-.25-1.13-.03-.09-.02-.1.08-.13l.19-.06ZM61.61,1.54v.88c0,.38,0,.71-.01,1.02h1.96v-1.9h-1.95Z"/>
        <path class="cls-1" d="M68.16,7.01c.21.41.42.66.83.83.35.14.97.19,1.84.19,1.29,0,2.81-.08,4.3-.23-.14.21-.23.51-.27.79q-.05.32-.37.34c-1.27.07-2.46.09-3.5.09s-1.92-.06-2.33-.27c-.44-.22-.82-.56-1.04-.91-.31.3-.69.63-1.01.89-.11.09-.16.14-.2.2-.05.07-.09.09-.15.09-.04,0-.1-.04-.14-.12-.14-.26-.27-.57-.41-.94.26-.12.4-.19.59-.31.29-.18.63-.41.88-.64v-2.22h-.49c-.54,0-.68.02-.73.02-.11,0-.12,0-.12-.12v-.76c0-.1.01-.11.12-.11.05,0,.19.02.73.02h.63c.53,0,.69-.02.75-.02.1,0,.11.01.11.11,0,.06-.02.34-.02.95v2.13ZM66.73.43c.06-.04.09-.06.12-.06s.06.02.1.05c.46.43,1,1.02,1.36,1.59.06.07.05.1-.06.19l-.58.45c-.06.04-.1.06-.13.06s-.05-.02-.08-.07c-.3-.52-.9-1.25-1.32-1.64-.08-.07-.06-.1.05-.18l.54-.39ZM70.45,3.98c-.02.75-.08,1.33-.2,1.79-.14.52-.4,1.09-.76,1.57-.09.13-.14.19-.19.19-.04,0-.1-.06-.2-.17-.19-.23-.43-.39-.59-.5.49-.57.71-1.05.83-1.64.1-.48.13-1.01.13-2.02v-.75c0-.58-.04-1.06-.09-1.6.3.06.56.13.86.23.95-.12,1.82-.35,2.69-.68.24-.09.41-.18.61-.3.25.2.5.47.71.74.05.06.06.1.06.17,0,.06-.06.1-.15.11-.12,0-.24.02-.42.07-1.02.36-2.05.63-3.28.8v1.04h2.99c.89,0,1.19-.02,1.25-.02.1,0,.11.01.11.11v.77c0,.1-.01.11-.11.11-.06,0-.36-.02-1.25-.02h-.3v2.43c0,.71.02,1.05.02,1.11,0,.1,0,.11-.11.11h-.85c-.1,0-.11-.01-.11-.11,0-.07.02-.4.02-1.11v-2.43h-1.67Z"/>
        <path class="cls-1" d="M78.15,5.84c-.04.24-.08.48-.13.72-.19.89-.53,1.68-1.09,2.45-.09.12-.13.17-.18.17s-.1-.05-.2-.16c-.21-.24-.49-.43-.73-.55.64-.69,1.04-1.55,1.19-2.48.1-.63.14-1.1.14-1.82,0-1.05-.02-1.55-.02-1.61,0-.1,0-.11.11-.11.07,0,.42.02,1.39.02h3.69c.97,0,1.32-.02,1.39-.02.09,0,.1.01.1.11,0,.06-.02.35-.02.99v1.77c0,.64.02.9.02.96,0,.1,0,.11-.1.11h-.9c-.09,0-.1-.01-.1-.11v-.44h-4.56ZM77.47,1.6c-.9,0-1.22.02-1.28.02-.1,0-.11-.01-.11-.11v-.8c0-.1,0-.11.11-.11.06,0,.38.02,1.28.02h5.88c.91,0,1.22-.02,1.28-.02.1,0,.11.01.11.11v.8c0,.1,0,.11-.11.11-.06,0-.37-.02-1.28-.02h-5.88ZM78.23,3.45v1.41h4.48v-1.41h-4.48Z"/>
        <path class="cls-1" d="M88.07,7.14c.65.55,1.54.84,3.09.84s2.52-.04,3.8-.19c-.14.23-.24.47-.28.73q-.07.33-.38.34c-1,.07-1.86.1-3.15.1s-2.54-.15-3.42-.92c-.07-.06-.14-.11-.2-.18-.29.39-.64.75-1.05,1.11-.11.09-.17.14-.22.14-.06,0-.1-.07-.18-.2-.15-.26-.33-.46-.52-.62.53-.39.96-.78,1.3-1.22-.29-.42-.55-.92-.78-1.53-.07-.16-.07-.19.06-.26l.49-.26c.17-.09.18-.05.25.12.14.44.3.8.48,1.11.25-.53.42-1.16.52-1.93h-.86l-.16.24c-.04.06-.07.09-.12.09-.07,0-.18-.05-.42-.16-.3-.14-.4-.18-.4-.24,0-.03.02-.07.06-.12.66-.92,1.14-1.79,1.53-2.62h-.66c-.65,0-.85.02-.91.02-.1,0-.11-.01-.11-.11v-.74c0-.11,0-.12.11-.12.06,0,.26.02.91.02h1.09c.1,0,.18-.01.22-.02s.08-.03.12-.03c.06,0,.13.04.33.29.17.22.26.34.26.43s-.04.12-.1.17c-.11.06-.19.23-.27.37-.23.42-.53,1-.91,1.64h.48c.1,0,.17-.01.23-.05.06-.03.08-.05.13-.05.08,0,.16.06.36.29.2.21.24.28.24.36s-.03.12-.11.2c-.07.08-.09.19-.12.35-.14,1.01-.38,1.84-.78,2.57l.05.04ZM90.25,6.95c-.95,0-1.28.02-1.34.02-.1,0-.11-.01-.11-.12v-.61c0-.11,0-.12.11-.12.06,0,.39.02,1.34.02h.8v-.56h-.44c-.9,0-1.22.02-1.28.02-.1,0-.11-.01-.11-.11v-.58c0-.1,0-.11.11-.11.06,0,.38.02,1.28.02h.44v-.56h-.54c-.78,0-1.03.02-1.09.02-.1,0-.11-.01-.11-.11v-.56c0-.1,0-.11.11-.11.06,0,.31.02,1.09.02h.54v-.56h-.9c-.92,0-1.23.02-1.29.02-.1,0-.11-.01-.11-.12v-.59c0-.1,0-.11.11-.11.06,0,.37.02,1.29.02h.9v-.55h-.37c-.89,0-1.18.02-1.24.02-.1,0-.11-.01-.11-.11v-.58c0-.1,0-.11.11-.11.06,0,.35.02,1.24.02h.37c-.01-.35-.03-.58-.07-.81.38.01.65.03.98.07.1.01.16.04.16.1s-.03.1-.06.16c-.04.07-.06.17-.06.48h.58c.92,0,1.36-.02,1.42-.02.11,0,.12.01.12.11,0,.06-.02.36-.02.99v.23c.31,0,.62-.02.67-.02.1,0,.11.01.11.11v.6c0,.1,0,.11-.11.11-.05,0-.36-.01-.67-.02v.24c0,.63.02.92.02.97,0,.1-.01.11-.12.11-.06,0-.5-.02-1.42-.02h-.58v.56h.84c.9,0,1.21-.02,1.27-.02.11,0,.12,0,.12.11v.58c0,.1,0,.11-.12.11-.06,0-.37-.02-1.27-.02h-.84v.56h1.18c.96,0,1.29-.02,1.35-.02.1,0,.11.01.11.12v.61c0,.11-.01.12-.11.12-.06,0-.39-.02-1.35-.02h-1.18c0,.44.02.65.02.69,0,.11,0,.12-.11.12h-.76c-.11,0-.12-.01-.12-.12,0-.02,0-.25,0-.69h-.79ZM92,1.63v.55h1.17v-.55h-1.17ZM93.17,2.96h-1.17v.56h1.17v-.56Z"/>
        <path class="cls-1" d="M101.03,2.39c-1.22.23-2.29.44-3.36.66-.38.09-.48.11-.63.16-.07.03-.14.08-.22.08-.07,0-.15-.06-.19-.15-.13-.27-.24-.62-.37-1.08.51-.02.81-.06,1.59-.17,1.23-.18,3.43-.51,6.01-.85.15-.02.2.04.21.11.05.23.1.6.11.88,0,.12-.06.15-.19.15-.47.03-.79.08-1.22.22-1.7.58-2.55,1.75-2.55,2.95,0,1.29.92,1.99,2.66,2.1.16,0,.22.04.22.15,0,.26-.04.61-.11.86-.03.15-.07.21-.19.21-1.76,0-3.69-1.01-3.69-3.09,0-1.42.71-2.38,1.92-3.17v-.02Z"/>
        <path class="cls-1" d="M112.53,2.11c.58,0,.7-.03.83-.09.05-.03.1-.05.14-.05.06,0,.12.03.17.08.27.24.5.49.72.8.05.08.08.15.08.22,0,.08-.04.15-.13.21-.21.15-.35.24-.48.38-.86.95-1.79,1.88-2.69,2.68.32.32.59.63.88,1,.05.06.07.1.07.15s-.03.1-.09.16c-.2.2-.42.41-.65.59-.05.03-.09.05-.13.05s-.08-.03-.12-.09c-.97-1.25-1.98-2.23-3.21-3.11.2-.19.54-.51.72-.67.04-.03.08-.05.11-.05.04,0,.08.03.14.07.52.38,1,.73,1.42,1.12.84-.73,1.57-1.5,2.31-2.36l-4.21.02c-.58,0-1.32.02-1.86.07-.13,0-.16-.06-.18-.18-.06-.35-.1-.7-.12-1.07.68.07,1.49.07,2.18.07h4.1Z"/>
        <path class="cls-1" d="M117.36,1.43c.04-.05.09-.08.14-.08.04,0,.08.02.13.05.51.27,1.34.88,1.91,1.42.06.06.09.1.09.14s-.02.08-.06.13c-.15.2-.48.6-.62.75-.05.05-.08.08-.12.08s-.08-.03-.13-.08c-.6-.62-1.32-1.19-2.04-1.63.22-.27.51-.58.7-.78ZM118.23,6.7c1.22-.63,1.87-1.05,2.88-1.86,1.22-.99,1.89-1.63,2.74-2.72.06.5.15.84.28,1.17.03.07.05.13.05.19,0,.09-.05.17-.16.3-.53.62-1.39,1.42-2.3,2.12-.83.65-1.67,1.21-3.02,1.96-.45.27-.58.37-.67.46-.06.06-.12.1-.18.1-.05,0-.11-.04-.17-.11-.25-.28-.56-.69-.8-1.11.51-.14.82-.23,1.35-.5Z"/>
        <path class="cls-1" d="M126.84,3.24c.05-.07.1-.12.19-.1.75.25,1.35.57,1.92.98.07.05.11.09.11.15,0,.03-.02.07-.04.11-.11.27-.28.53-.44.76-.05.06-.09.1-.13.1s-.07-.02-.12-.06c-.64-.47-1.29-.8-2.02-1.09.25-.4.41-.69.53-.85ZM128.46,6.95c.95-.5,1.77-.97,2.74-1.73.8-.61,1.87-1.57,2.88-2.79.06.44.14.69.29,1.12.03.07.05.13.05.19,0,.08-.03.15-.11.23-.93,1-1.56,1.55-2.54,2.31-.87.66-1.8,1.23-2.99,1.88-.24.13-.48.24-.58.34-.06.06-.11.08-.16.08-.07,0-.14-.04-.2-.12-.21-.21-.48-.6-.74-1.02.42-.08.77-.19,1.36-.49ZM128.05.94c.07-.12.13-.14.25-.08.64.26,1.33.63,1.88,1.11.06.04.08.09.08.13s0,.08-.04.13c-.14.25-.34.57-.51.75-.03.05-.07.06-.1.06-.05,0-.1-.03-.15-.07-.52-.43-1.3-.94-1.94-1.23.17-.26.36-.54.53-.8Z"/>
        <path class="cls-1" d="M141.69,4.28h-2.31c-.47,0-.95.05-1.4.06-.09.01-.14-.07-.15-.23-.02-.25-.03-.44-.05-.82.57.05.88.05,1.6.05h1.74c.49,0,1.04,0,1.48-.02.12,0,.16.06.15.16,0,.45-.02.87-.02,1.31v2.31c0,.45.02.91.04,1.42,0,.15-.05.18-.22.19-.16.01-.48.02-.68.02-.16,0-.18-.03-.18-.15v-.3h-2.37c-.47,0-.92.02-1.38.05-.1,0-.13-.05-.14-.2-.03-.2-.05-.49-.05-.83.54.04,1.03.04,1.61.04h2.33v-1.12h-2.12c-.45,0-.94.02-1.37.04-.12,0-.16-.06-.17-.22-.03-.2-.04-.46-.04-.8.54.04.91.05,1.56.05h2.14v-1.01Z"/>
        <path class="cls-1" d="M147.36,1.43c.04-.05.09-.08.14-.08.04,0,.08.02.13.05.51.27,1.34.88,1.91,1.42.06.06.09.1.09.14s-.02.08-.06.13c-.15.2-.48.6-.62.75-.05.05-.08.08-.12.08s-.08-.03-.13-.08c-.6-.62-1.32-1.19-2.04-1.63.22-.27.51-.58.7-.78ZM148.23,6.7c1.22-.63,1.87-1.05,2.88-1.86,1.22-.99,1.89-1.63,2.74-2.72.06.5.15.84.28,1.17.03.07.05.13.05.19,0,.09-.05.17-.16.3-.53.62-1.39,1.42-2.3,2.12-.83.65-1.67,1.21-3.02,1.96-.45.27-.58.37-.67.46-.06.06-.12.1-.18.1-.05,0-.11-.04-.17-.11-.25-.28-.56-.69-.8-1.11.51-.14.82-.23,1.35-.5Z"/>
      </g>
      <g>
        <polygon class="cls-2" points="21.84 17.33 18.88 14.36 18.88 14.36 12.95 14.36 12.95 38.06 15.92 38.06 15.92 17.33 18.88 17.33 18.88 32.14 16.51 32.14 16.51 35.1 21.84 35.1 21.84 17.33"/>
        <polygon class="cls-2" points="9.99 32.14 9.99 17.33 7.03 14.36 1.1 14.36 1.1 35.1 1.1 35.1 6.44 35.1 6.44 32.14 4.07 32.14 4.07 17.33 7.03 17.33 7.03 35.1 12.36 35.1 12.36 32.14 9.99 32.14"/>
        <path class="cls-2" d="M36.7,19.77c1.34,0,2.4.36,3.18,1.07.78.71,1.17,1.67,1.17,2.86,0,1.1-.41,2.01-1.24,2.74-.77.68-1.73,1.02-2.87,1.02h-5.11v-7.69h4.86ZM37.05,26.31c.76,0,1.39-.25,1.88-.74.49-.49.74-1.13.74-1.9,0-.82-.26-1.49-.79-1.99-.53-.5-1.22-.76-2.08-.76h-3.69v5.39h3.94Z"/>
        <path class="cls-2" d="M56.76,24.97c0,.8-.39,1.45-1.17,1.94-.79.52-1.85.77-3.17.77s-2.39-.26-3.2-.77c-.78-.5-1.17-1.15-1.17-1.94v-5.2h1.27v4.89c0,.6.26,1.06.79,1.38.53.32,1.29.48,2.3.48s1.77-.16,2.29-.48c.52-.32.78-.78.78-1.38v-4.89h1.27v5.2Z"/>
        <path class="cls-2" d="M70.33,19.77c.79,0,1.41.22,1.87.65.46.43.69,1.02.69,1.74,0,.77-.24,1.35-.72,1.75-.48.4-1.17.61-2.09.61h-4.57v2.93h-1.27v-7.69h6.09ZM70.1,23.38c.98,0,1.48-.39,1.48-1.19,0-.85-.52-1.27-1.56-1.27h-4.51v2.46h4.6Z"/>
        <path class="cls-2" d="M34.99,32.58h-.53l-.74-1.04h-1.38v1.04h-.45v-2.73h2.15c.29,0,.51.08.68.23.16.15.24.36.24.63,0,.23-.07.42-.2.56-.12.13-.29.21-.51.25l.73,1.07ZM33.98,31.13c.35,0,.52-.14.52-.42,0-.3-.19-.45-.57-.45h-1.59v.87h1.63Z"/>
        <polygon class="cls-2" points="39.87 32.58 37.01 32.58 37.01 29.85 39.76 29.85 39.76 30.26 37.46 30.26 37.46 30.96 39.06 30.96 39.06 31.37 37.46 31.37 37.46 32.17 39.87 32.17 39.87 32.58"/>
        <path class="cls-2" d="M44.27,30.49c-.41-.21-.82-.31-1.24-.31-.28,0-.49.03-.64.1-.15.06-.22.16-.22.27,0,.12.08.21.24.26.11.04.3.07.55.08.38.03.63.04.75.06.34.04.6.13.76.25.16.12.25.3.25.52,0,.29-.13.51-.39.67-.26.16-.62.24-1.1.24-.69,0-1.24-.16-1.63-.46l.25-.33c.43.26.89.39,1.38.39.32,0,.57-.04.74-.13.17-.08.25-.2.25-.35,0-.17-.11-.29-.33-.35-.12-.03-.43-.06-.94-.1-.45-.03-.77-.09-.95-.18-.21-.1-.32-.28-.32-.53s.12-.46.36-.61c.24-.14.58-.22,1.02-.22.59,0,1.08.13,1.48.4l-.28.31Z"/>
        <rect class="cls-2" x="46.73" y="29.85" width=".45" height="2.73"/>
        <path class="cls-2" d="M51.14,29.85c.48,0,.85.13,1.13.38.28.25.42.59.42,1.02,0,.39-.15.71-.44.97-.27.24-.61.37-1.02.37h-1.81v-2.73h1.73ZM51.27,32.17c.27,0,.5-.09.67-.26.18-.18.26-.4.26-.68,0-.29-.09-.53-.28-.71-.19-.18-.43-.27-.74-.27h-1.31v1.92h1.4Z"/>
        <polygon class="cls-2" points="57.61 32.58 54.75 32.58 54.75 29.85 57.51 29.85 57.51 30.26 55.21 30.26 55.21 30.96 56.8 30.96 56.8 31.37 55.21 31.37 55.21 32.17 57.61 32.17 57.61 32.58"/>
        <polygon class="cls-2" points="62.71 32.58 62.15 32.58 60.07 30.34 60.07 32.58 59.61 32.58 59.61 29.85 60.18 29.85 62.26 32.09 62.26 29.85 62.71 29.85 62.71 32.58"/>
        <path class="cls-2" d="M68.13,30.47l-.41.15c-.28-.29-.66-.44-1.16-.44-.38,0-.68.1-.92.29-.24.19-.35.44-.35.74s.12.56.35.75c.24.19.55.28.95.28.48,0,.86-.15,1.14-.45l.39.22c-.19.23-.42.39-.66.49-.25.1-.54.15-.89.15-.48,0-.88-.12-1.2-.36-.36-.28-.55-.64-.55-1.09s.19-.8.55-1.08c.32-.24.72-.37,1.2-.37.68,0,1.21.23,1.57.71"/>
        <polygon class="cls-2" points="73.07 32.58 70.21 32.58 70.21 29.85 72.96 29.85 72.96 30.26 70.66 30.26 70.66 30.96 72.26 30.96 72.26 31.37 70.66 31.37 70.66 32.17 73.07 32.17 73.07 32.58"/>
      </g>
    </g>
  </g>
</svg>