<?xml version="1.0" encoding="UTF-8"?>
<svg id="_レイヤー_2" data-name="レイヤー 2" xmlns="http://www.w3.org/2000/svg" viewBox="0 0 118.55 33.31">
  <defs>
    <style>
      .cls-1 {
        fill: #525a70;
      }

      .cls-2 {
        fill: #59575f;
      }
    </style>
  </defs>
  <g id="_レイヤー_1-2" data-name="レイヤー 1">
    <g>
      <g>
        <path class="cls-2" d="M.96,2.31c.13.03.15.05.14.16-.04.82-.14,1.57-.34,2.19-.03.1-.05.09-.16.04l-.48-.2c-.13-.05-.14-.1-.11-.2.17-.54.28-1.23.32-2.03,0-.1.02-.09.16-.07l.47.11ZM1.29,1.62c0-.71,0-1.03-.08-1.51.38.01.7.03,1.03.07.1.01.16.04.16.1,0,.07-.02.13-.05.2-.05.13-.07.38-.07,1.11v5.81c0,1.13.02,1.7.02,1.75,0,.11-.01.12-.11.12h-.81c-.1,0-.11-.01-.11-.12,0-.05.02-.62.02-1.74V1.62ZM4.54,3.18c-.61,0-.96,0-1.16.01l.06.24c.02.11.02.13-.11.18l-.42.15c-.13.05-.16.05-.18-.06-.08-.47-.21-.92-.36-1.31-.04-.11-.03-.13.1-.17l.39-.12c.11-.04.14-.03.18.06l.08.23h.05s.38.02,1.26.02c-.1-.26-.23-.54-.37-.79-.52.01-.73.02-.78.02-.1,0-.11-.01-.11-.11v-.55c0-.11,0-.12.11-.12.07,0,.39.02,1.33.02h.77v-.12c0-.27,0-.48-.07-.69.38,0,.7.02,1.03.05.1.01.16.05.16.09,0,.06-.01.1-.05.16-.05.08-.06.18-.06.36v.15h.98c.94,0,1.27-.02,1.33-.02.1,0,.11.01.11.12v.55c0,.1-.01.11-.11.11-.05,0-.29-.01-.9-.02-.04.03-.08.08-.11.15-.07.16-.18.41-.31.64h.35c.98,0,1.31-.02,1.36-.02.11,0,.12.01.12.12v.59c0,.09-.01.1-.12.1-.04,0-.37-.02-1.36-.02h-3.19ZM4.19,9.01c-.97,0-1.31.02-1.37.02-.1,0-.11-.01-.11-.11v-.59c0-.1,0-.11.11-.11.06,0,.4.02,1.37.02h1.25v-.48h-.76c-.94,0-1.26.02-1.32.02-.1,0-.11-.01-.11-.11v-.54c0-.11.01-.12.11-.12.06,0,.38.02,1.32.02h.76v-.46h-.62c-.9,0-1.22.02-1.29.02-.1,0-.11-.01-.11-.11,0-.07.02-.29.02-.82v-1.09c0-.54-.02-.76-.02-.83,0-.1.01-.11.11-.11.07,0,.39.02,1.29.02h2.23c.9,0,1.21-.02,1.28-.02.1,0,.11.01.11.11,0,.06-.02.29-.02.83v1.09c0,.53.02.76.02.82,0,.1-.01.11-.11.11-.07,0-.38-.02-1.28-.02h-.71v.46h.89c.94,0,1.26-.02,1.32-.02.1,0,.11.01.11.12v.54c0,.1-.01.11-.11.11-.06,0-.38-.02-1.32-.02h-.89v.48h1.43c.98,0,1.31-.02,1.37-.02.1,0,.11.01.11.11v.59c0,.1-.01.11-.11.11-.06,0-.39-.02-1.37-.02h-3.58ZM5.44,4.8v-.5h-1.13v.5h1.13ZM5.44,5.94v-.52h-1.13v.52h1.13ZM5.01,1.62c.14.27.26.56.33.79h1.14c.12-.25.24-.53.33-.79h-1.8ZM6.34,4.3v.5h1.2v-.5h-1.2ZM7.54,5.42h-1.2v.52h1.2v-.52Z"/>
        <path class="cls-2" d="M12.42,1.36c0-.37-.02-.67-.1-.97.42.04.84.09,1.14.19.16.04.21.1.21.2,0,.06-.03.12-.07.19-.05.09-.07.21-.09.49-.02.33-.03.54-.05,1,.14.07.28.15.38.22.06.04.09.09.09.14,0,.03-.02.07-.05.11-.19.31-.36.62-.52.95v.05c.32-.36.54-.59.93-.97.79-.75,1.34-.98,1.81-.98.75,0,1.2.5,1.2,1.33,0,.29,0,.9-.08,1.82-.05.92-.1,1.37-.1,1.68,0,.5.12.57.37.57.22,0,.49-.15.74-.36.15-.13.35-.35.6-.84.13.36.21.54.37.75.07.09.11.15.11.23,0,.05-.02.1-.07.17-.42.59-1.06,1.15-1.92,1.15s-1.28-.49-1.28-1.53c0-.27.03-.83.08-1.68.05-.88.07-1.21.07-1.64s-.11-.66-.31-.66c-.29,0-.63.21-1.12.65-.41.4-.88.87-1.4,1.47.01,1.26.04,2.7.04,3.79,0,.09-.04.14-.14.14-.13.02-.52.04-.78.04-.1,0-.14-.05-.14-.17,0-.91,0-1.96.03-2.86-.39.61-.79,1.23-1.16,1.8-.04.07-.07.1-.11.1-.03,0-.07-.02-.12-.05-.16-.1-.48-.38-.62-.56-.04-.04-.06-.07-.06-.11,0-.06.04-.12.09-.17.83-1.06,1.35-1.77,1.96-2.63,0-.25,0-.44.01-.68-.34.09-.83.24-1.2.4-.09.04-.19.14-.29.14-.08,0-.15-.06-.2-.16-.14-.23-.25-.53-.39-.92.28-.01.45-.04.73-.09.34-.08.9-.22,1.41-.38v-1.36Z"/>
        <path class="cls-2" d="M25.3,2.34c-.23,1.7-.65,3.26-1.25,4.31-.43.75-.95,1.15-1.7,1.15-.88,0-1.77-.94-1.77-2.57,0-.96.41-1.88,1.13-2.6.84-.84,1.9-1.28,3.25-1.28,2.4,0,3.81,1.48,3.81,3.47,0,1.86-1.05,3.03-3.08,3.64-.21.06-.3.02-.43-.18-.11-.17-.32-.4-.7-.63,1.69-.4,3.02-1.1,3.02-2.99,0-1.19-.9-2.32-2.24-2.32h-.04ZM22.43,3.31c-.48.54-.78,1.21-.78,1.85,0,.92.37,1.43.68,1.43.26,0,.48-.13.75-.61.44-.81.89-2.25,1.06-3.58-.7.14-1.26.42-1.71.91Z"/>
        <path class="cls-2" d="M31.56,5.93c-.88,0-1.19.02-1.25.02-.1,0-.11-.01-.11-.11v-.82c0-.1.01-.11.11-.11.06,0,.37.02,1.25.02h2.51V1.59h-1.97c-.95,0-1.28.02-1.34.02-.1,0-.11-.01-.11-.12v-.8c0-.11,0-.12.11-.12.06,0,.39.02,1.34.02h5.16c.95,0,1.28-.02,1.34-.02.1,0,.11.01.11.12v.8c0,.11,0,.12-.11.12-.06,0-.39-.02-1.34-.02h-2.1v3.34h2.59c.89,0,1.19-.02,1.26-.02.1,0,.11.01.11.11v.82c0,.1,0,.11-.11.11-.07,0-.37-.02-1.26-.02h-2.59v2.16c0,.67,0,.99,0,1.05,0,.1,0,.11-.1.11h-.91c-.1,0-.11-.01-.11-.11,0-.07.02-.38.02-1.05v-2.16h-2.51ZM31.95,1.96c.11-.06.13-.04.19.05.42.6.82,1.36,1.09,2.09.03.09.03.11-.08.17l-.68.3c-.13.06-.15.06-.19-.05-.26-.73-.57-1.38-1.02-2.09-.06-.08-.04-.09.09-.16l.6-.31ZM36.93,2.47c.08-.16.15-.36.19-.56.31.1.65.25.91.4.09.05.12.09.12.14s-.02.09-.09.15c-.08.06-.16.17-.23.32-.27.53-.57,1.03-.92,1.53-.1.14-.14.2-.21.2-.05,0-.12-.04-.24-.12-.21-.13-.37-.23-.59-.3.44-.57.77-1.14,1.06-1.76Z"/>
        <path class="cls-2" d="M47.36,5.64c-1.4.11-2.89.2-4.32.26-.19.01-.25.02-.32.05-.05.02-.1.04-.15.04-.06,0-.11-.04-.13-.13-.05-.23-.1-.53-.14-.82.37.01.71.02,1.06.02.21-.3.37-.6.5-.88h-1.85c-.03.74-.1,1.52-.21,2.16-.17.94-.39,1.75-.86,2.53-.08.12-.11.18-.16.18-.04,0-.09-.05-.19-.16-.21-.24-.47-.46-.66-.58.51-.73.72-1.45.87-2.33.14-.83.22-1.86.22-3.31s-.02-2.04-.02-2.1c0-.11,0-.12.1-.12.06,0,.41.02,1.38.02h4.67c.97,0,1.32-.02,1.38-.02.1,0,.11.01.11.12,0,.06-.02.23-.02.69v.77c0,.45.02.62.02.68,0,.1,0,.11-.11.11-.06,0-.41-.02-1.38-.02h-5.12v.56h5.37c.98,0,1.32-.02,1.38-.02.11,0,.12.01.12.11v.64c0,.1,0,.11-.12.11-.06,0-.4-.02-1.38-.02h-.31c.54.45.95.88,1.44,1.43.07.09.06.11-.06.19l-.51.35c-.07.05-.1.07-.13.07s-.05-.02-.08-.07l-.39-.51ZM43.06,8.98c-.97,0-1.3.02-1.36.02-.1,0-.11-.01-.11-.12v-.64c0-.1,0-.11.11-.11.06,0,.39.02,1.36.02h1.66v-.68h-.82c-.95,0-1.29.02-1.35.02-.1,0-.11-.01-.11-.11v-.6c0-.11,0-.12.11-.12.06,0,.4.02,1.35.02h.82v-.02c0-.32,0-.52-.05-.73.31.01.62.03.94.06.12.01.2.06.2.11,0,.07-.02.11-.06.2-.03.08-.05.19-.05.35v.03h1.16c.96,0,1.28-.02,1.34-.02.11,0,.12,0,.12.12v.6c0,.1-.01.11-.12.11-.06,0-.38-.02-1.34-.02h-1.16v.68h1.9c.97,0,1.31-.02,1.36-.02.1,0,.11.01.11.11v.64c0,.11,0,.12-.11.12-.05,0-.39-.02-1.36-.02h-4.54ZM47.59,1.29h-5.56v.71h5.56v-.71ZM46.36,4.58c-.08-.07-.09-.09.03-.16l.46-.24h-1.95c-.16.32-.32.6-.5.86.73-.03,1.52-.06,2.31-.12l-.35-.34Z"/>
        <path class="cls-2" d="M51.99,6.95c-.36.19-.73.37-1.12.52-.11.05-.18.08-.23.08-.08,0-.12-.07-.23-.25-.13-.21-.28-.38-.43-.5,1.06-.27,1.78-.58,2.34-.97h-.76c-.89,0-1.19.02-1.25.02-.09,0-.1-.01-.1-.11v-.57c0-.1,0-.11.1-.11.06,0,.36.02,1.25.02h1.62c.13-.15.23-.3.31-.45h-.57c-.97,0-1.31.02-1.38.02-.1,0-.11-.01-.11-.12,0-.06.02-.26.02-.76v-.81c0-.51-.02-.71-.02-.76,0-.11,0-.12.11-.12.07,0,.41.02,1.38.02h3.49c.96,0,1.3-.02,1.37-.02.1,0,.11.01.11.12,0,.05-.02.25-.02.76v.81c0,.5.02.7.02.76,0,.11-.01.12-.11.12-.07,0-.41-.02-1.37-.02h-2.09l.08.02c.11.03.17.06.17.11,0,.06-.03.09-.11.13-.07.03-.13.09-.2.19h3.48c.9,0,1.19-.02,1.26-.02.1,0,.11,0,.11.11v.57c0,.1,0,.11-.11.11-.07,0-.36-.02-1.26-.02h-.82c.59.43,1.37.68,2.45.86-.14.17-.26.37-.37.6-.09.19-.12.25-.21.25-.05,0-.11-.02-.22-.05-.46-.14-.87-.3-1.24-.5v.75c0,1.08.02,1.34.02,1.4,0,.1,0,.11-.11.11h-.75c-.1,0-.11-.01-.11-.11v-.22h-3.44v.25c0,.1-.01.11-.11.11h-.75c-.1,0-.11-.01-.11-.11,0-.06.02-.32.02-1.41v-.81ZM52.71.7c0-.22-.02-.44-.05-.61.32.01.68.03.95.06.09.01.14.04.14.09,0,.06-.03.1-.05.15-.02.05-.04.15-.05.31h1.96c0-.22-.02-.44-.05-.61.32.01.68.03.95.06.09.01.14.04.14.09,0,.06-.03.1-.05.15-.02.05-.04.15-.05.31h1.17c.89,0,1.2-.02,1.26-.02.1,0,.11.01.11.11v.61c0,.11,0,.12-.11.12-.06,0-.37-.02-1.26-.02h-1.17c0,.16.02.25.02.29,0,.1-.01.11-.12.11h-.74c-.11,0-.12-.01-.12-.11,0-.04,0-.13,0-.29h-1.95c.01.16.02.25.02.29,0,.1,0,.11-.12.11h-.74c-.11,0-.12-.01-.12-.11,0-.04,0-.13,0-.29h-1.1c-.89,0-1.2.02-1.26.02-.1,0-.11-.01-.11-.12v-.61c0-.1,0-.11.11-.11.06,0,.37.02,1.26.02h1.11ZM52.45,2.7v.4h4.42v-.4h-4.42ZM56.87,3.64h-4.42v.41h4.42v-.41ZM52.94,6.87v.43h3.44v-.43h-3.44ZM56.38,8.29v-.43h-3.44v.43h3.44ZM56.25,6.25c-.15-.13-.3-.27-.44-.42h-2.2c-.15.14-.32.29-.5.42h3.14Z"/>
        <path class="cls-2" d="M62.96,2.86c.11.05.16.11.16.19,0,.05-.02.1-.05.15-.09.16-.16.34-.2.53-.1.51-.2,1.25-.24,1.82.92-.93,2.12-1.58,3.34-1.58,1.46,0,2.33.85,2.33,2.14,0,1.09-.65,1.81-1.51,2.24-.67.34-1.7.58-2.56.69-.22.03-.31.02-.4-.13-.19-.34-.37-.61-.68-.85,1.12-.07,2.08-.26,2.75-.56.81-.35,1.18-.87,1.18-1.51,0-.54-.34-1.03-1.2-1.03s-1.94.57-2.88,1.52c-.18.18-.31.35-.43.55-.06.1-.1.1-.23.07-.23-.08-.47-.17-.68-.27-.1-.04-.14-.06-.14-.2.06-1.16.19-2.34.31-3.23.04-.3.09-.56.09-.9.39.11.81.23,1.04.36ZM63.21.33c.05-.05.11-.08.19-.05.74.29,1.36.67,1.96,1.19.05.04.07.07.07.11,0,.03-.02.07-.05.12-.13.21-.34.5-.51.7-.04.05-.08.08-.11.08-.04,0-.07-.02-.12-.07-.56-.49-1.23-.95-2.02-1.3.24-.36.43-.62.59-.78Z"/>
        <path class="cls-2" d="M73.58.76c.17.04.24.09.24.19,0,.11-.06.23-.1.33-.05.14-.09.45-.14,1.22-.1,1.54-.15,2.56-.15,3.87,0,1.01.12,1.24.92,1.24.89,0,2.28-.54,3.5-1.84.04.38.13.71.23.95.05.11.08.18.08.24,0,.09-.04.17-.2.31-1.08.99-2.49,1.5-3.79,1.5s-1.88-.51-1.88-2.04c0-1.68.09-3.12.14-4.32.02-.59.05-1.23-.1-1.83.46.05.94.1,1.25.18Z"/>
        <path class="cls-2" d="M85.74,7.03c0,.11-.06.16-.19.18s-.43.05-.71.05c-.09,0-.13-.06-.13-.16,0-.36,0-.86,0-1.22-.89.46-1.21.85-1.21,1.33,0,.42.34.69,1.39.69.92,0,1.72-.09,2.49-.2.09-.01.13.02.14.11.05.23.09.58.09.82.01.12-.03.19-.11.19-.86.11-1.51.13-2.48.13-1.64,0-2.51-.49-2.51-1.65,0-.96.6-1.66,2.11-2.44-.03-.51-.15-.71-.6-.69-.47.02-.92.32-1.38.72-.43.42-.68.71-1,1.09-.05.06-.08.09-.12.09-.03,0-.07-.03-.11-.07-.14-.14-.44-.45-.57-.66-.03-.04-.04-.07-.04-.09,0-.04.02-.07.07-.11.77-.69,1.51-1.48,2.09-2.48-.47.02-1.01.03-1.6.03-.09,0-.12-.05-.14-.16-.03-.16-.07-.53-.1-.83.76.04,1.54.03,2.3-.01.11-.27.2-.51.3-.86.04-.17.07-.34.07-.61.44.07.88.18,1.14.28.08.03.12.1.12.17,0,.05-.02.11-.07.15-.06.05-.12.14-.17.24-.06.14-.11.27-.23.54.61-.07,1.22-.17,1.82-.31.11-.02.14.01.16.1.05.2.09.43.1.72,0,.1-.03.14-.17.16-.75.11-1.61.22-2.34.3-.23.37-.45.74-.75,1.11v.02c.33-.21.74-.31,1.01-.31.66,0,1.12.3,1.22,1.08.39-.18.96-.44,1.47-.7.19-.1.51-.28.76-.54.33.35.59.7.7.88.06.09.08.16.08.22,0,.08-.05.12-.15.14-.21.03-.41.08-.61.15-.65.23-1.3.45-2.15.8v1.61Z"/>
        <path class="cls-2" d="M97.36,6.74c0,.45.03.93.03,1.33,0,.36-.11.68-.33.84-.28.19-.68.23-1.54.24q-.3.01-.37-.3c-.07-.28-.16-.5-.26-.7.36.04.71.05,1.11.05.23,0,.36-.1.36-.36v-1.33c-1.51,1.08-3.27,1.88-5.22,2.5-.11.03-.18.05-.24.05-.1,0-.14-.06-.22-.25-.11-.25-.27-.46-.42-.59,2.03-.53,3.8-1.23,5.25-2.16-1.45.2-2.8.34-4.22.46-.16.01-.29.05-.36.09-.05.03-.1.06-.17.06-.06,0-.11-.06-.14-.15-.07-.26-.13-.6-.17-.9.38,0,.68-.01,1.05-.03.14,0,.29-.01.44-.02v-3.18c0-.76-.02-1.13-.02-1.19,0-.1,0-.11.11-.11.07,0,.39.02,1.32.02h.19c.11-.19.19-.37.26-.54.07-.18.11-.34.14-.57.32.03.79.09,1.07.15.09.02.14.08.14.14s-.04.1-.09.14c-.06.05-.12.12-.16.2-.09.19-.16.34-.24.48h1.29c.93,0,1.25-.02,1.32-.02.1,0,.11.01.11.11,0,.06-.02.49-.02,1.33v2.01c.23-.24.44-.49.64-.76.13-.16.29-.4.42-.65.29.23.46.37.63.55.08.09.13.15.13.21s-.04.13-.12.16c-.11.05-.22.14-.4.35-.4.48-.84.92-1.3,1.32v1.02ZM92.93,1.93v.62h3.43v-.62h-3.43ZM96.36,3.95v-.62h-3.43v.62h3.43ZM96.36,4.73h-3.43v.77c1.03-.07,2.21-.19,3.43-.34v-.43Z"/>
        <path class="cls-2" d="M102.5,7.04c.21.41.42.66.83.83.35.14.97.19,1.84.19,1.29,0,2.81-.08,4.3-.23-.14.21-.23.51-.27.79q-.05.32-.37.34c-1.27.07-2.46.09-3.5.09s-1.92-.06-2.33-.27c-.44-.22-.82-.56-1.04-.91-.31.3-.69.63-1.01.89-.11.09-.16.14-.2.2-.05.07-.09.09-.15.09-.04,0-.1-.04-.14-.12-.14-.26-.27-.57-.41-.94.26-.12.4-.19.59-.31.29-.18.63-.41.88-.64v-2.22h-.49c-.54,0-.68.02-.73.02-.11,0-.12-.01-.12-.12v-.76c0-.1,0-.11.12-.11.05,0,.19.02.73.02h.63c.53,0,.69-.02.75-.02.1,0,.11.01.11.11,0,.06-.02.34-.02.95v2.13ZM101.07.46c.06-.04.09-.06.12-.06s.06.02.1.05c.46.43,1,1.02,1.36,1.59.06.07.05.1-.06.19l-.58.45c-.06.04-.1.06-.13.06s-.05-.02-.08-.07c-.3-.52-.9-1.25-1.32-1.64-.08-.07-.06-.1.05-.18l.54-.39ZM104.79,4.01c-.02.75-.08,1.33-.2,1.79-.14.52-.4,1.09-.76,1.57-.09.13-.14.19-.19.19-.04,0-.1-.06-.2-.17-.19-.23-.43-.39-.59-.5.49-.57.71-1.05.83-1.64.1-.48.13-1.01.13-2.02v-.75c0-.58-.04-1.06-.09-1.6.3.06.56.13.86.23.95-.12,1.82-.35,2.69-.68.24-.09.41-.18.61-.3.25.2.5.47.71.74.05.06.06.1.06.17,0,.06-.06.1-.15.11-.12.01-.24.02-.42.07-1.02.36-2.05.63-3.28.8v1.04h2.99c.89,0,1.19-.02,1.25-.02.1,0,.11.01.11.11v.77c0,.1,0,.11-.11.11-.06,0-.36-.02-1.25-.02h-.3v2.43c0,.71.02,1.05.02,1.11,0,.1,0,.11-.11.11h-.85c-.1,0-.11-.01-.11-.11,0-.07.02-.4.02-1.11v-2.43h-1.67Z"/>
        <path class="cls-2" d="M112.57,1.22c.17.09.23.15.23.24,0,.07-.02.1-.15.3-.1.18-.15.32-.24.71-.28,1.24-.42,2.47-.42,3.23,0,.49.02.82.06,1.17.21-.46.39-.79.68-1.49.08.25.21.41.35.63.03.05.07.11.07.15,0,.07-.02.11-.05.16-.23.52-.42.95-.57,1.51-.02.06-.03.17-.03.31,0,.12.02.2.02.28,0,.07-.04.11-.13.13-.25.07-.53.13-.82.16-.07.01-.11-.04-.13-.11-.28-.7-.46-1.97-.46-2.98,0-.9.11-1.99.34-3.28.13-.74.18-1.07.18-1.49.45.11.77.21,1.07.37ZM114.71,5.93c.08-.01.1.04.1.15.06.69.54.94,1.63.94.75,0,1.24-.05,1.91-.13.1-.01.12,0,.14.13.03.21.06.6.06.86,0,.12,0,.13-.17.15-.68.08-1.16.11-1.63.11-1.48,0-2.17-.24-2.6-.83-.25-.32-.35-.83-.35-1.3l.91-.08ZM114.15,2.19c0-.12.04-.15.14-.17.59-.11,1.71-.18,2.17-.18.6,0,1.06.02,1.48.06.21.01.23.03.23.13,0,.3,0,.57-.02.85,0,.09-.04.13-.13.12-.6-.04-1.12-.06-1.63-.06-.67,0-1.32.06-2.27.23.01-.56.01-.81.03-.98Z"/>
      </g>
      <g>
        <path class="cls-1" d="M11.4,26.23c0,3.93.08,5.28.08,6.23,0,.46-.36.67-1.08.67-.53,0-.72-.17-.72-.58s.11-2.64.11-6.31v-.85H3.21c-.68,0-1.21.04-1.87.12l-.21-.73c.76.1,1.38.14,2.08.14h6.57v-7.62h-5.62c-.64,0-1.15.04-1.78.12l-.23-.71c.74.08,1.34.12,2.01.12h12.3c1.04-1.08,1.19-1.16,1.31-1.16.15,0,.3.08,1.38.87.53.37.62.48.62.6s-.06.17-.28.17h-8.1v7.62h5.75c1.12-1.21,1.29-1.31,1.42-1.31s.3.1,1.44.94c.55.4.66.54.66.66s-.08.19-.3.19h-8.97v.83ZM5.55,22.62c-.28-1.47-.76-2.6-1.72-3.95-.04-.06.11-.17.17-.13,2.01,1.21,3.27,2.82,3.27,4.05,0,.62-.38,1.14-.95,1.14-.49,0-.62-.23-.76-1.1ZM12.76,24.09c1.02-1.16,1.85-2.45,2.59-3.95.36-.79.62-1.43.72-1.95,1.63.64,2.18.91,2.18,1.16,0,.23-.28.33-.87.39-1.25,1.83-2.59,3.3-4.35,4.55-.13.08-.36-.1-.28-.19Z"/>
        <path class="cls-1" d="M43.79,22.22c.78-.93.93-1,1.06-1,.15,0,.32.08,1.23.75.42.31.53.42.53.54,0,.13-.06.19-.28.19h-8.59c-.57.98-1.29,1.89-2.1,2.72,2.21-.02,4.41-.08,6.62-.31-.59-.66-1.29-1.18-2.08-1.6-.08-.06.02-.23.13-.21,2.71.6,4.5,1.64,4.5,2.89,0,.44-.36.77-.74.77-.36,0-.57-.15-1.04-.85-.13-.21-.28-.42-.42-.62-2.52.54-4.64.81-9.2,1.25-.17.46-.3.6-.47.6-.25,0-.34-.23-.76-1.99.59.06.85.08,1.53.08h1.21c.4-.91.76-1.79.98-2.74h-4.54c-.11,1.81-.32,3.24-.64,4.49-.57,2.12-1.42,3.72-3.01,5.55-.08.1-.36-.02-.3-.14,1-1.83,1.61-3.51,1.97-5.55.34-1.95.47-4.34.47-8.02,0-1.77-.04-2.37-.13-3.32.83.31,1.25.5,1.97.89h11.88c.68-.69.78-.75.91-.75.15,0,.25.06.95.62.34.25.4.35.4.48,0,.15-.08.29-.59.56v.75c0,1.08.06,1.54.06,1.99,0,.39-.34.58-.93.58-.51,0-.64-.13-.64-.6v-.13h-12.28c-.02.71-.04,1.41-.08,2.12h12.43ZM43.79,32.01c.91-1.04,1.06-1.12,1.19-1.12.15,0,.3.08,1.31.85.47.33.57.44.57.56,0,.13-.06.19-.28.19h-14.85c-.49,0-.85.04-1.44.12l-.21-.73c.7.12,1.17.14,1.76.14h5.58v-2.62h-3.75c-.51,0-.93.02-1.53.12l-.21-.73c.74.1,1.23.14,1.87.14h3.63v-.52c0-.83-.04-1.23-.13-1.76,2.08.19,2.31.35,2.31.54,0,.17-.13.31-.7.52v1.21h3.8c.85-.89,1-.98,1.12-.98.15,0,.32.1,1.21.73.42.29.53.4.53.52,0,.15-.06.21-.28.21h-6.38v2.62h4.88ZM43.72,17.09h-12.28v2.53h12.28v-2.53Z"/>
        <path class="cls-1" d="M57.26,32.19c0,.46-.3.68-.98.68-.49,0-.66-.19-.66-.56,0-.98.13-2.43.13-8.89,0-3.68-.02-5.5-.13-7.14.78.29,1.15.42,1.89.85h12.81c.72-.71.83-.79.95-.79.15,0,.25.08,1,.66.32.27.4.39.4.5,0,.17-.11.31-.59.56v4.01c0,6.4.13,9.16.13,10.01,0,.5-.3.71-1.02.71-.49,0-.68-.17-.68-.58v-.77h-13.26v.75ZM70.51,17.61h-13.26v13.34h13.26v-13.34ZM61.6,27.58c0,.42-.3.6-.91.6-.47,0-.64-.14-.64-.48,0-.46.06-1.29.06-3.9,0-1.52,0-2.41-.11-3.41.76.29,1.08.4,1.8.77h4.05c.62-.64.72-.71.85-.71.15,0,.28.08.95.58.34.25.42.37.42.5s-.08.25-.55.54v1.33c0,2.43.06,3.68.06,4.05,0,.44-.34.62-.93.62-.45,0-.64-.14-.64-.48v-.68h-4.43v.68ZM66.04,21.64h-4.43v4.78h4.43v-4.78Z"/>
        <path class="cls-1" d="M85.97,18.59c0,4.26-.17,6.75-.57,8.43-.55,2.29-1.7,4.34-4.14,6.04-.15.1-.34-.1-.23-.21,1.78-1.85,2.63-3.66,3.08-5.84.32-1.54.45-3.45.45-6.15,0-3.16-.02-3.99-.15-4.98,2.18.25,2.31.31,2.31.56,0,.17-.08.27-.74.52v1.64ZM82.86,20.85c0,3.22.04,4.65.04,5.07,0,.39-.32.56-.81.56-.36,0-.55-.13-.55-.48,0-.33.04-1.37.04-4.32,0-2.33-.02-2.76-.11-3.47,1.65.17,1.99.29,1.99.52,0,.15-.13.27-.62.46v1.66ZM97.7,23.24c.72-.69.85-.77.98-.77.17,0,.38.08,1.19.81.3.27.42.48.42.62,0,.19-.21.27-.91.31-.21.02-.28.04-.59.25-.36.25-.72.48-1.1.68-.08.06-.21-.02-.17-.12.21-.39.38-.91.49-1.29h-9.82c.06,1.27-.47,2.26-1.31,2.26-.42,0-.76-.33-.76-.73,0-.29.13-.46.51-.75.68-.5,1.08-1.2,1.08-2.08,0-.1.19-.13.23-.02.08.29.17.58.21.85h9.56ZM93.65,27.1c0,3.36.08,5.07.08,5.61,0,.42-.32.6-.89.6-.53,0-.7-.13-.7-.52,0-.48.11-2.08.11-5.69v-.5h-2.8v1.58c0,1.74.02,2.41.02,2.85s-.3.67-.87.67c-.45,0-.68-.15-.68-.44,0-.42.08-1,.08-2.83,0-1.5-.02-2.26-.11-3.16.78.33,1.1.46,1.8.85h2.55c-.02-.93-.04-1.41-.11-1.99,2.04.21,2.21.25,2.21.48,0,.15-.11.25-.7.48v1.02h2.82c.66-.62.76-.68.89-.68.15,0,.25.06.93.58.34.25.4.35.4.46,0,.17-.08.27-.57.54v.83c0,1.89.06,2.16.06,2.41,0,.66-.23,1.02-.7,1.27-.25.14-.68.19-.91.19-.21,0-.3-.06-.34-.33-.08-.46-.36-.71-1.55-.91-.13-.04-.13-.23,0-.23.89.04,1.31.04,1.7.04.25,0,.34-.08.34-.27v-3.43h-3.08v.5ZM88.14,16.43c.64.1,1.04.12,1.63.12h6.32c.66-.66.78-.71.91-.71s.25.06.93.6c.34.25.42.37.42.48,0,.14-.06.19-.62.56v1.02c0,1.93.06,2.8.06,3.09,0,.42-.25.62-.89.62-.47,0-.64-.15-.64-.56v-.1h-6.57c-.53,0-.87.04-1.38.14l-.23-.73c.66.08,1.04.12,1.59.12h6.6v-1.81h-6.04c-.53,0-.87.04-1.38.13l-.21-.71c.64.08,1.02.1,1.57.1h6.07v-1.74h-6.49c-.55,0-.91.04-1.44.15l-.21-.75Z"/>
      </g>
    </g>
  </g>
</svg>