<?xml version="1.0" encoding="UTF-8"?><svg id="_レイヤー_2" xmlns="http://www.w3.org/2000/svg" viewBox="0 0 120 43"><defs><style>.cls-1{fill:#525a70;}.cls-2{fill:none;}</style></defs><g id="_レイヤー_2-2"><g id="_レイヤー_1-2"><rect class="cls-2" width="120" height="43"/><path class="cls-1" d="M14.802,23.218c0,4.523.098,6.075.098,7.162,0,.532-.414.776-1.244.776-.609,0-.828-.199-.828-.665,0-.488.121-3.037.121-7.249v-.976h-7.559c-.781,0-1.39.044-2.146.133l-.244-.842c.877.111,1.585.155,2.39.155h7.559v-8.758h-6.462c-.732,0-1.316.044-2.048.133l-.268-.821c.853.089,1.536.132,2.316.132h14.142c1.195-1.242,1.365-1.33,1.512-1.33.17,0,.342.089,1.585.998.609.421.707.555.707.687s-.073.199-.317.199h-9.315v8.758h6.608c1.293-1.397,1.488-1.508,1.634-1.508s.342.111,1.658,1.086c.634.466.756.62.756.754s-.098.222-.342.222h-10.314s0,.953,0,.953ZM8.073,19.072c-.317-1.685-.878-2.993-1.975-4.545-.049-.067.121-.199.195-.155,2.316,1.397,3.755,3.237,3.755,4.656,0,.709-.439,1.308-1.097,1.308-.561,0-.707-.266-.877-1.264h0ZM16.362,20.757c1.17-1.33,2.121-2.815,2.974-4.545.414-.909.707-1.641.829-2.24,1.878.732,2.511,1.042,2.511,1.33,0,.266-.317.377-1,.443-1.439,2.106-2.974,3.791-4.999,5.233-.146.089-.414-.111-.317-.222Z"/><path class="cls-1" d="M52.038,18.607c.902-1.064,1.072-1.153,1.219-1.153.171,0,.365.089,1.414.864.488.354.609.488.609.62,0,.155-.074.222-.318.222h-9.875c-.658,1.13-1.488,2.173-2.414,3.126,2.536-.022,5.072-.089,7.608-.354-.682-.754-1.488-1.352-2.389-1.84-.098-.067.024-.266.146-.244,3.121.687,5.169,1.884,5.169,3.325,0,.51-.414.887-.853.887-.414,0-.658-.177-1.195-.975-.146-.244-.318-.488-.488-.709-2.902.62-5.339.931-10.582,1.441-.195.532-.342.687-.537.687-.293,0-.39-.266-.877-2.283.682.067.975.089,1.756.089h1.39c.463-1.042.877-2.061,1.121-3.148h-5.218c-.122,2.084-.365,3.724-.732,5.166-.658,2.439-1.634,4.279-3.462,6.385-.098.111-.414-.022-.342-.155,1.146-2.106,1.853-4.035,2.267-6.385.39-2.24.537-4.988.537-9.223,0-2.039-.049-2.726-.146-3.813.951.354,1.439.577,2.267,1.02h13.654c.78-.798.902-.864,1.049-.864.171,0,.293.067,1.097.71.39.288.463.399.463.555,0,.177-.098.333-.682.642v.864c0,1.242.073,1.773.073,2.283,0,.443-.39.665-1.073.665-.586,0-.732-.155-.732-.687v-.155h-14.117c-.024.821-.049,1.618-.098,2.439h14.29ZM52.038,29.869c1.049-1.197,1.219-1.286,1.365-1.286.171,0,.342.089,1.512.975.537.377.658.51.658.643,0,.155-.074.221-.317.221h-17.069c-.561,0-.975.044-1.658.132l-.244-.842c.805.133,1.341.155,2.023.155h6.413v-3.015h-4.316c-.586,0-1.073.022-1.756.133l-.244-.842c.853.111,1.414.155,2.146.155h4.169v-.598c0-.953-.049-1.419-.146-2.017,2.39.222,2.658.399,2.658.62,0,.199-.146.354-.805.598v1.397h4.365c.975-1.02,1.146-1.13,1.293-1.13.17,0,.365.111,1.39.842.488.333.609.466.609.598,0,.177-.073.244-.317.244h-7.34v3.015h5.609ZM51.965,12.709h-14.117v2.905h14.117s0-2.905,0-2.905Z"/><path class="cls-1" d="M67.525,30.069c0,.532-.342.776-1.121.776-.561,0-.756-.221-.756-.642,0-1.131.146-2.793.146-10.221,0-4.235-.024-6.318-.146-8.203.902.333,1.316.488,2.17.976h14.728c.829-.821.951-.909,1.097-.909.17,0,.293.089,1.146.754.365.311.463.443.463.577,0,.199-.122.354-.683.643v4.611c0,7.361.146,10.531.146,11.506,0,.577-.342.821-1.17.821-.561,0-.78-.2-.78-.665v-.887h-15.239v.864h0ZM82.764,13.307h-15.239v15.342h15.239v-15.342ZM72.523,24.771c0,.488-.342.687-1.049.687-.537,0-.732-.155-.732-.554,0-.532.073-1.486.073-4.479,0-1.752,0-2.771-.122-3.924.878.333,1.244.465,2.072.886h4.657c.707-.732.829-.821.975-.821.17,0,.317.089,1.097.665.39.289.488.421.488.577s-.098.289-.633.62v1.53c0,2.793.073,4.235.073,4.656,0,.51-.39.71-1.073.71-.512,0-.731-.155-.731-.554v-.776h-5.096v.776h.002ZM77.619,17.942h-5.096v5.499h5.096s0-5.499,0-5.499Z"/><path class="cls-1" d="M100.542,14.439c0,4.899-.195,7.76-.658,9.689-.633,2.638-1.951,4.989-4.755,6.94-.17.111-.39-.111-.268-.244,2.048-2.128,3.023-4.212,3.536-6.718.365-1.773.512-3.969.512-7.073,0-3.636-.025-4.59-.171-5.72,2.511.289,2.658.354,2.658.643,0,.199-.098.311-.853.598v1.884ZM96.958,17.033c0,3.702.049,5.343.049,5.831,0,.443-.365.642-.926.642-.414,0-.634-.155-.634-.554,0-.377.049-1.574.049-4.966,0-2.683-.024-3.171-.121-3.991,1.902.199,2.292.333,2.292.598,0,.177-.146.311-.707.532v1.907h-.001ZM114.026,19.782c.829-.799.976-.887,1.121-.887.195,0,.439.089,1.365.931.342.311.488.555.488.71,0,.221-.244.31-1.049.354-.244.023-.318.045-.683.289-.414.288-.829.555-1.268.776-.098.067-.244-.022-.195-.133.244-.443.439-1.042.561-1.486h-11.289c.073,1.463-.537,2.594-1.512,2.594-.488,0-.878-.377-.878-.842,0-.333.146-.532.586-.864.781-.577,1.244-1.374,1.244-2.395,0-.111.219-.155.268-.022.098.333.195.665.244.976h10.997ZM109.368,24.216c0,3.858.098,5.831.098,6.452,0,.488-.365.687-1.024.687-.609,0-.805-.155-.805-.598,0-.554.121-2.394.121-6.54v-.577h-3.218v1.818c0,1.996.024,2.771.024,3.281,0,.532-.342.776-1,.776-.512,0-.78-.177-.78-.51,0-.488.098-1.153.098-3.259,0-1.73-.025-2.594-.121-3.636.902.376,1.268.532,2.072.975h2.926c-.024-1.064-.049-1.619-.121-2.283,2.341.244,2.536.288,2.536.555,0,.177-.121.288-.805.554v1.175h3.243c.756-.709.878-.776,1.024-.776.171,0,.293.067,1.073.665.39.288.463.399.463.532,0,.2-.098.311-.658.621v.953c0,2.173.073,2.482.073,2.771,0,.754-.268,1.175-.805,1.463-.293.155-.78.222-1.049.222-.244,0-.342-.067-.39-.377-.098-.532-.414-.821-1.779-1.042-.146-.044-.146-.266,0-.266,1.024.045,1.512.045,1.951.045.293,0,.39-.089.39-.311v-3.946h-3.536v.577h0ZM103.029,11.955c.732.111,1.195.133,1.877.133h7.266c.756-.754.902-.821,1.049-.821s.293.067,1.073.687c.39.289.488.421.488.554,0,.155-.073.222-.707.643v1.175c0,2.218.074,3.215.074,3.547,0,.488-.293.709-1.024.709-.537,0-.732-.177-.732-.643v-.111h-7.559c-.609,0-1,.045-1.585.155l-.268-.842c.756.089,1.195.133,1.829.133h7.584v-2.084h-6.95c-.609,0-1,.044-1.585.155l-.244-.821c.732.089,1.17.111,1.804.111h6.974v-1.996h-7.461c-.634,0-1.049.044-1.658.177l-.244-.864h-.002Z"/></g></g></svg>