<?xml version="1.0" encoding="UTF-8"?><svg id="_レイヤー_2" xmlns="http://www.w3.org/2000/svg" viewBox="0 0 167 43"><defs><style>.cls-1{fill:#df1614;}.cls-2{fill:none;}</style></defs><g id="_レイヤー_2-2"><g id="_レイヤー_1-2"><rect class="cls-2" width="167" height="43"/><path class="cls-1" d="M59,17.944v-2.998h5.995v2.998h-5.995ZM70.99,16.345v13.589l-2.998,2.998h-8.993v-3.722h2.998v.725h4.746l1.249-1.224v-12.365s2.998,0,2.998,0ZM59,23.94v-2.998h5.995v2.998h-5.995Z"/><path class="cls-1" d="M84.506,29.909v2.998h-11.99v-2.998h4.496v-8.968h-2.998v-2.998h8.993v2.998h-2.998v8.968s4.497,0,4.497,0Z"/><path class="cls-1" d="M86.005,32.907V14.947h2.398v17.961h-2.398ZM97.995,20.942v8.968l-2.997,2.998h-4.821V14.947h2.998v14.963h.574l1.25-1.224v-7.744s2.997,0,2.997,0Z"/><path class="cls-1" d="M99.996,23.94v-2.998h.251l1.249-1.249v-4.746h10.491v14.988l-2.997,2.998h-7.495v-2.998h6.245l1.25-1.249v-3.247h-3.049v-2.998h3.049v-4.496h-4.497v2.998l-2.998,2.998h-1.499Z"/><path class="cls-1" d="M123.259,22.241v2.998h-9.592v-2.998h9.592Z"/><path class="cls-1" d="M127.551,32.956h-3.172l1.498-17.986h3.172s-1.498,17.986-1.498,17.986ZM133.172,32.956h3.197l-1.499-17.986h-3.197l1.499,17.986Z"/><path class="cls-1" d="M149.859,29.96l-2.997,2.998h-7.469v-2.998h6.245l1.225-1.249v-9.018h-5.97v2.973h-2.998v-5.97h4.497v-1.724h2.998v1.724h4.471v13.264h-.002Z"/><path class="cls-1" d="M160.354,24.364l3.572,8.568h-3.497l-2.099-4.971-2.822,4.971h-3.498v-2.998h1.749l6.494-11.49-.499-.499h-7.744v-2.998h8.993l2.998,2.998-3.646,6.419h0Z"/><rect class="cls-1" x="46.143" y="19.099" width="5.596" height="1.566"/><path class="cls-1" d="M52.514,30.99h-6.761c-.617,0-.925-.335-.925-1.007v-.224h9.373v-7.806h-21.768v7.806h9.429v.587c0,.877.237,1.553.71,2.028.474.476,1.129.714,1.964.714h8.276c.557,0,1.082-.042,1.574-.126s.896-.22,1.212-.405v-2.378c-.412.262-.888.461-1.43.602-.542.14-1.094.21-1.655.21h0ZM44.828,23.66h6.296v1.315h-6.296v-1.315ZM44.828,26.71h6.296v1.315h-6.296v-1.315ZM41.862,28.024h-6.324v-1.315h6.324v1.315ZM41.862,24.975h-6.324v-1.315h6.324v1.315Z"/><polygon class="cls-1" points="44.828 12.887 44.828 11.545 54.928 11.545 54.928 9.363 31.705 9.363 31.705 11.545 41.862 11.545 41.862 12.887 31.034 12.887 31.034 19.547 33.664 19.547 33.664 14.902 41.862 14.902 41.862 20.666 44.828 20.666 44.828 14.902 52.969 14.902 52.969 19.547 55.6 19.547 55.6 12.887 44.828 12.887"/><rect class="cls-1" x="46.143" y="16.245" width="5.596" height="1.511"/><rect class="cls-1" x="34.923" y="19.099" width="5.652" height="1.566"/><rect class="cls-1" x="34.923" y="16.245" width="5.652" height="1.511"/><path class="cls-1" d="M28.751,8.797l-5.301,4.01c-.043.032-.066.083-.064.137.003.053.032.102.077.129l1.634.986-1.178,1.727-1.811-.828c-.448-.279-.775-.485-.979-.616-.354-.243-.671-.476-.951-.7l-.115-.117,4.736-3.374c.044-.031.069-.083.067-.137s-.031-.104-.078-.132l-1.803-1.09,2.377-3.5c.044-.065.035-.153-.022-.207s-.145-.059-.208-.012l-5.301,4.01c-.042.032-.066.083-.064.137.003.053.032.102.078.129l1.634.986-1.864,2.733-1.089-1.108c-.373-.41-.7-.821-.979-1.231-.279-.41-.55-.867-.812-1.371H4.454v2.574h7.582c-.466.653-1.003,1.241-1.609,1.763-.606.522-1.292.998-2.056,1.427l-2.126-2.322h-3.245l2.994,3.329c-.691.187-1.269.321-1.735.405s-.858.145-1.175.182v3.05c.56-.074,1.199-.191,1.917-.349s1.31-.321,1.777-.49v1.091h2.742v3.554H3.39v2.826h5.903c-.298,1.306-.904,2.276-1.819,2.91-1.007.709-2.472,1.063-4.392,1.063v3.133c2.891,0,5.167-.709,6.827-2.126,1.399-1.194,2.304-2.854,2.714-4.98h5.064v3.637c0,.876.312,1.618.937,2.224.625.606,1.403.909,2.337.909h3.833c1.119,0,2.061-.224,2.826-.672v-3.274c-.447.354-.891.592-1.329.714-.438.122-.956.182-1.553.182h-2.882c-.243,0-.443-.075-.601-.224-.159-.149-.238-.335-.238-.56v-2.938h6.268v-2.826h-6.268v-3.554h2.882v-1.063c.616.224,1.179.391,1.693.504.513.112,1.189.243,2.028.391v-3.077c-.879-.087-1.725-.265-2.538-.53l3.335-2.375c.044-.032.069-.083.067-.137s-.031-.104-.077-.131l-1.803-1.09,2.376-3.5c.044-.065.035-.153-.022-.207s-.145-.059-.208-.012v.004ZM17.688,23.576h-4.868v-3.554h4.868v3.554ZM10.386,17.197c1.063-.634,2.023-1.39,2.882-2.266.765-.765,1.445-1.604,2.042-2.518.671,1.007,1.417,1.917,2.238,2.728s1.707,1.497,2.658,2.056h-9.82Z"/></g></g></svg>