<?xml version="1.0" encoding="UTF-8"?><svg id="_レイヤー_2" xmlns="http://www.w3.org/2000/svg" viewBox="0 0 285 250"><defs><style>.cls-1{fill:#f63402;}.cls-2{fill:#fff;}.cls-3{fill:#595757;opacity:.5;}.cls-4{stroke:#fff;stroke-miterlimit:10;}.cls-4,.cls-5{fill:none;}</style></defs><g id="_レイヤー_1-2"><polygon class="cls-1" points=".339 0 125.339 0 101.53 35 .339 35 .339 0"/><path class="cls-2" d="M26.264,19.263c-1.473,0-1.969.032-2.065.032-.176,0-.192-.016-.192-.192v-1.168c0-.16.017-.176.192-.176.097,0,.593.032,2.065.032h9.203c1.457,0,1.969-.032,2.065-.032.16,0,.177.016.177.176v1.168c0,.176-.017.192-.177.192-.096,0-.608-.032-2.065-.032h-2.289v3.217c0,.4.016.576.129.72.144.144.592.192,1.473.192.72,0,1.136-.064,1.344-.24.273-.24.353-.672.385-1.777.287.192.688.352,1.104.464q.416.08.4.496c-.063,1.088-.271,1.681-.672,2.017-.545.48-1.217.64-2.881.64s-2.258-.144-2.578-.464c-.272-.288-.383-.704-.383-1.553v-3.713h-1.842c-.064,1.617-.432,2.753-1.024,3.538-.753,1.136-1.985,1.793-3.538,2.305-.176.064-.288.096-.368.096-.145,0-.208-.096-.352-.384-.192-.4-.433-.704-.785-1.072,1.682-.384,2.801-.88,3.457-1.681.593-.736.865-1.553.913-2.801h-1.696ZM35.195,12.268c1.488,0,2.032-.032,2.129-.032.16,0,.176.016.176.176,0,.096-.032.384-.032.864v.704c0,1.457.032,1.713.032,1.809,0,.16-.016.176-.176.176h-1.329c-.16,0-.176-.016-.176-.176v-2.033h-9.956v2.033c0,.176-.016.192-.176.192h-1.329c-.16,0-.176-.016-.176-.192,0-.096.032-.336.032-1.809v-.576c0-.608-.032-.896-.032-.992,0-.16.016-.176.176-.176.097,0,.64.032,2.129.032h3.394v-.16c0-.688-.016-1.12-.112-1.52.593.016,1.169.048,1.713.096.144.016.24.08.24.144,0,.112-.048.208-.097.32-.047.128-.064.336-.064.96v.16h3.634ZM29.096,16.526c-1.439,0-1.92.032-2.016.032-.16,0-.177-.016-.177-.176v-1.2c0-.176.017-.192.177-.192.096,0,.576.032,2.016.032h3.506c1.425,0,1.921-.032,2.017-.032.16,0,.16.016.16.192v1.2c0,.16,0,.176-.16.176-.097,0-.593-.032-2.017-.032h-3.506Z"/><path class="cls-2" d="M49.15,14.765c.08,1.793.305,3.249.656,4.53.385-.624.705-1.249.961-1.873.176-.464.336-.928.432-1.473.561.16,1.137.4,1.489.576.16.08.24.16.24.256,0,.112-.112.208-.224.336-.113.112-.209.304-.4.784-.496,1.136-1.106,2.241-1.825,3.249.576,1.232,1.312,2.001,1.713,2.001.368,0,.56-.48.656-1.969.208.24.56.448.896.624q.465.24.385.736c-.256,1.713-.832,2.497-1.809,2.497-1.104,0-2.161-1.024-2.961-2.513-.849.928-1.809,1.745-2.897,2.385-.192.112-.304.176-.384.176-.096,0-.176-.096-.336-.336-.257-.368-.545-.64-.816-.848,1.456-.768,2.705-1.825,3.713-3.009-.672-1.713-1.024-3.618-1.168-6.131h-4.93v2.065h2.305c.977,0,1.264-.032,1.36-.032.159,0,.192.032.192.208-.033.608-.049,1.281-.08,1.761-.08,1.361-.129,2.225-.369,2.977-.287.832-.896,1.328-1.856,1.328-.288,0-.528,0-.816-.032-.369-.032-.385-.032-.465-.528-.08-.464-.208-.864-.385-1.153.576.096.913.128,1.312.128.369,0,.641-.096.77-.576.127-.416.191-1.297.239-2.577h-2.241c-.047,1.105-.143,2.001-.287,2.801-.209,1.185-.545,2.449-1.249,3.745-.112.208-.192.304-.273.304s-.176-.08-.32-.256c-.304-.352-.688-.704-.992-.896.736-1.073,1.057-2.337,1.249-3.538.144-.992.224-2.113.224-3.873,0-2.177-.031-3.121-.031-3.217,0-.176.016-.192.191-.192.096,0,.625.032,2.145.032h4.258v-.336c-.016-1.073-.016-1.457-.127-2.257.607.032,1.152.048,1.728.112.16.016.24.096.24.192,0,.128-.049.224-.08.304-.065.192-.097.528-.08,1.601v.384h2.4c1.505,0,2.033-.032,2.129-.032.16,0,.176.016.176.192v1.216c0,.16-.016.176-.176.176-.096,0-.624-.032-2.129-.032h-2.353ZM51.023,10.811c.16-.112.209-.112.336-.016.465.352.961.8,1.377,1.345.096.128.096.192-.08.304l-.768.576c-.097.064-.16.112-.209.112-.048,0-.08-.048-.128-.112-.384-.592-.849-1.04-1.296-1.409-.065-.064-.097-.096-.097-.144s.048-.08.128-.144l.736-.512Z"/><path class="cls-2" d="M56.162,14.989c.127-.16.176-.16.319-.08.784.432,1.553.976,2.289,1.633.064.064.097.096.08.16,1.536-.144,2.913-.432,4.081-.864-.8-.592-1.488-1.313-2.049-2.193-.752.016-1.088.032-1.152.032-.176,0-.191-.016-.191-.176v-1.04c0-.144.016-.16.191-.16.097,0,.641.032,2.193.032h1.568v-.208c0-.544-.016-1.024-.111-1.537.592.016,1.136.048,1.696.112.16.016.256.096.256.16,0,.144-.064.224-.112.336-.064.144-.064.304-.064.88v.256h2.209c1.568,0,2.112-.032,2.208-.032.16,0,.177.016.177.16v1.04c0,.16-.017.176-.177.176-.096,0-.543-.016-1.695-.032-.56.848-1.217,1.553-2.002,2.161,1.249.448,2.722.704,4.307.864-.177.224-.353.656-.465,1.088-.111.448-.145.448-.592.384-.353-.048-.672-.112-1.009-.176v5.074c0,1.265.032,1.873.032,1.969,0,.16-.016.176-.192.176h-1.265c-.16,0-.176-.016-.176-.176,0-.096.032-.704.032-1.969v-.848h-4.642c-.32,1.168-.833,2.049-1.648,2.769-.193.16-.289.24-.385.24s-.191-.08-.368-.256c-.32-.32-.673-.576-.992-.752,1.024-.704,1.632-1.553,1.952-2.785.256-.944.273-1.921.273-3.473-.304.064-.608.112-.912.16-.448.064-.464.08-.608-.384-.112-.352-.256-.672-.4-.912l-.784,1.089c-.048.08-.08.112-.128.112-.032,0-.08-.032-.145-.096-.672-.672-1.456-1.265-2.24-1.745-.08-.048-.129-.08-.129-.112,0-.048.049-.112.113-.192l.656-.864ZM56.306,22.8c.448-.912.992-2.161,1.536-3.714.24.24.576.544.897.8.24.192.336.272.336.416,0,.08-.031.192-.096.368-.481,1.248-.977,2.481-1.504,3.537-.129.272-.225.48-.24.64-.017.128-.097.208-.209.208-.08,0-.176-.032-.287-.112-.385-.24-.801-.496-1.249-.88.336-.416.544-.736.816-1.265ZM56.818,10.972c.127-.16.176-.16.319-.08.784.464,1.505,1.025,2.209,1.665.064.048.097.096.097.144s-.033.096-.097.192l-.72,1.008c-.129.16-.16.144-.289.048-.703-.688-1.488-1.345-2.256-1.809-.08-.048-.113-.08-.113-.112,0-.048.033-.096.113-.192l.736-.864ZM66.55,20.864v-1.233h-4.258c-.032.432-.063.832-.112,1.233h4.37ZM62.324,18.302h4.226v-.736c-.769-.224-1.489-.496-2.177-.832-.625.32-1.312.576-2.049.8v.768ZM62.645,13.645c.464.592,1.057,1.073,1.744,1.473.672-.4,1.217-.896,1.648-1.473h-3.393Z"/><path class="cls-2" d="M80.983,15.966c.032-.352.032-.656-.017-1.088.833.208,1.473.448,1.857.688.145.08.225.288.111.432-.096.208-.207.384-.256.624-.127.672-.287,1.376-.447,2.065.912.464,1.904,1.088,2.496,1.537.16.096.144.176.097.336-.16.384-.497,1.056-.689,1.377-.048.08-.096.112-.144.112-.064,0-.127-.048-.191-.112-.705-.608-1.345-1.072-2.098-1.505-.816,1.841-1.68,3.009-3.232,4.21-.145.112-.225.176-.32.176-.065,0-.128-.032-.24-.112-.432-.352-.832-.512-1.393-.656,2.001-1.393,2.977-2.721,3.586-4.338-.881-.448-2.018-.8-3.17-.976-.848,1.761-1.312,2.561-1.953,3.201-.592.624-1.233.88-2.049.88-.928,0-1.904-.64-1.904-2.193,0-1.985,2.049-3.537,4.723-3.537.527-1.329.928-2.449,1.328-3.794-.881.096-1.682.192-2.209.256-.225.032-.465.08-.721.176-.08.032-.191.064-.288.064-.128,0-.208-.064-.256-.176-.144-.32-.304-.944-.464-1.745.48.096.928.112,1.408.096.769,0,1.568-.08,2.48-.208.4-.064.576-.144.785-.272.064-.048.144-.064.208-.064.079,0,.159.016.224.064.4.24.785.56,1.089.88.096.096.144.176.144.272s-.064.176-.16.272c-.24.224-.304.528-.432.832-.416,1.088-.864,2.337-1.345,3.489,1.009.128,1.952.368,3.105.8.16-.736.272-1.345.336-2.065ZM72.532,20.431c0,.512.176.736.56.736.305,0,.609-.208.929-.608.368-.464.753-1.104,1.169-1.953-1.633.064-2.657.912-2.657,1.825Z"/><rect class="cls-3" x="39" y="108.074" width="210" height="35"/><rect class="cls-4" x="39" y="108.074" width="210" height="35"/><path class="cls-2" d="M67.188,123.078h3.721c1.5,0,3.121-.04,4.4-.1.181,0,.221.1.24.36.04.48.04,1.02,0,1.5-.02.34-.08.38-.38.36-1.4-.02-2.94-.04-4.261-.04h-3.741v3.021c0,.62.181.92.54,1.06.42.14,1.021.22,2.181.22,1.181,0,2.62-.08,3.521-.24.18,0,.24.08.24.3.04.36.061.96.061,1.58,0,.34-.101.4-.4.42-.721.1-2.101.18-3.721.18-1.74,0-2.721-.2-3.461-.54-.92-.42-1.32-1.18-1.32-2.44v-3.561h-1.28c-1.761,0-3.241.06-4.161.1-.26.02-.32-.12-.34-.38-.08-.44-.1-1.24-.141-1.9,1.221.1,2.801.12,4.662.12h1.26v-3.161c-1.92,0-2.78,0-3.48.04-.26,0-.34-.1-.34-.36-.06-.6-.08-1.24-.08-1.86.96.08,2.54.1,4.08.1h4.041c1.58,0,2.861-.04,3.942-.08.24,0,.3.1.3.34.021.48.04,1,.04,1.48,0,.28-.1.36-.42.34-1.181,0-2.541-.02-3.861-.02h-1.84v3.161Z"/><path class="cls-2" d="M87.836,123.898c-.121,2.24-.4,3.581-1.181,5.101-.8,1.56-2.24,3.021-3.521,3.781-.221.14-.42.24-.6.24-.141,0-.281-.06-.421-.2-.4-.4-1.08-.8-1.78-1.06,1.961-1.06,3.141-2.04,3.98-3.561.74-1.32.94-2.401,1.02-4.301h-3.801c-1,0-1.98.06-3.001.12-.18.02-.24-.12-.26-.38-.1-.56-.16-1.32-.16-1.92,1.121.1,2.24.1,3.4.1h8.982c1.56,0,2.721-.04,3.9-.12.201,0,.221.12.221.4.019.26.019,1.28,0,1.54,0,.26-.12.34-.301.34-1.039-.04-2.42-.08-3.801-.08h-2.68ZM83.875,119.257c-.92,0-1.721.04-2.841.08-.261,0-.32-.1-.341-.34-.059-.48-.079-1.2-.139-1.92,1.399.08,2.42.1,3.32.1h3.681c1.12,0,2.38-.02,3.38-.08.201,0,.24.12.24.38.041.48.041.98,0,1.46,0,.28-.039.38-.26.38-1.08-.04-2.26-.06-3.36-.06h-3.681ZM92.477,115.777c.1-.06.18-.04.28.06.58.54,1.22,1.42,1.7,2.321.061.12.061.22-.1.32l-.9.54c-.141.08-.24.04-.32-.1-.519-.98-1.08-1.8-1.801-2.501l1.141-.64ZM94.377,114.656c.12-.08.18-.04.28.06.681.64,1.32,1.5,1.7,2.24.061.12.08.24-.1.36l-.841.54c-.18.1-.28.02-.34-.1-.46-.9-1.021-1.72-1.78-2.48l1.08-.62Z"/><path class="cls-2" d="M101.791,119.297c.34.1.38.34.26.62-.221.44-.24.88-.24,1.36-.04,2.501-.42,4.401-1.08,5.881-.52,1.22-1.4,2.521-2.841,3.761-.2.16-.36.26-.521.26-.119,0-.24-.06-.379-.16-.501-.34-.98-.58-1.701-.84,1.56-1.18,2.621-2.4,3.32-3.981.561-1.36.82-2.461.841-5.661,0-.76-.04-1.08-.2-1.68,1.141.14,2.06.28,2.541.44ZM106.231,127.759c.98-.52,1.9-1.14,2.841-1.86,1.2-.92,2.381-1.98,3.5-3.401.08.7.281,1.36.621,2.02.059.14.119.24.119.34,0,.14-.08.28-.299.5-1.001,1.02-1.921,1.84-2.961,2.621-1.041.8-2.16,1.58-3.56,2.4-.361.24-.4.28-.58.42-.121.1-.261.16-.4.16-.12,0-.26-.06-.42-.16-.44-.3-.9-.82-1.201-1.22-.119-.18-.18-.3-.18-.42,0-.1.02-.18.08-.3.141-.26.12-.5.12-1.52v-6.261c0-1.74,0-2.561-.2-3.481.801.1,1.9.24,2.5.42.261.06.361.18.361.34,0,.12-.061.3-.16.5-.181.38-.181.78-.181,2.22v6.681Z"/><path class="cls-2" d="M118.098,122.598c.541-1.22.84-2.24.9-2.961,1.021.36,1.92.72,2.481,1.02.18.08.24.2.24.32,0,.14-.08.28-.2.4-.22.22-.38.5-.7,1.22-1.18,2.661-2.36,4.701-4.281,6.721-.18.2-.359.3-.56.3-.16,0-.3-.06-.46-.2-.4-.32-1.041-.64-1.76-.86,2.1-1.86,3.54-4.141,4.34-5.961ZM125.58,119.877c.1-.08.199-.12.279-.12.1,0,.18.04.301.16,2.18,2.18,3.86,4.781,5.021,7.341.059.1.08.18.08.28,0,.12-.06.22-.2.32-.38.3-1.02.72-1.66,1.06-.26.12-.4.08-.48-.18-1.48-3.341-2.961-5.681-4.94-7.782.72-.48,1.261-.86,1.601-1.08Z"/><path class="cls-2" d="M144.732,119.217c.94,0,1.24-.06,1.5-.22.08-.06.18-.1.28-.1.159,0,.319.08.44.2.399.3.979.82,1.34,1.24.1.1.141.2.141.3,0,.16-.08.3-.201.44-.26.26-.34.64-.439.98-.62,2.06-1.34,4.081-2.521,5.881-1.161,1.8-3.141,3.701-5.161,4.901-.12.08-.221.12-.32.12-.141,0-.26-.08-.42-.2-.62-.42-1.2-.66-2-.9,2.82-1.56,4.381-2.941,5.721-4.981,1.12-1.7,1.82-3.441,2.32-5.581h-8.701v1.68c0,.8.039,1.62.06,2.42,0,.32-.06.38-.32.38-.601.04-1.24.04-1.841,0-.26,0-.319-.06-.319-.3.02-1.02.04-1.68.04-2.481v-1.62c0-.64,0-1.36-.04-1.94-.021-.18.101-.26.28-.26.94.04,2.04.06,3.041.06h2.039v-.78c0-1.06,0-1.88-.199-2.66.98.08,1.92.18,2.48.3.4.08.52.3.359.62-.1.28-.239.7-.239,1.54v.96h2.681Z"/><path class="cls-2" d="M161.148,118.077c.719,0,1.08-.02,1.379-.18.08-.06.141-.08.221-.08.12,0,.221.08.34.16.461.36.92.88,1.301,1.4.06.1.1.18.1.26,0,.12-.08.26-.26.4-.26.22-.519.52-.74.88-.82,1.4-1.601,2.52-2.561,3.741,1.92,1.42,3.701,2.981,5.541,4.841.1.1.16.2.16.28s-.04.18-.141.3c-.379.46-.84.94-1.34,1.36-.08.08-.16.12-.24.12-.1,0-.18-.06-.279-.16-1.681-1.96-3.401-3.541-5.201-4.961-2.261,2.361-4.541,4.061-6.722,5.281-.181.08-.32.16-.46.16-.12,0-.24-.06-.34-.18-.441-.54-1.021-.94-1.681-1.3,3.12-1.58,4.981-3.001,7.042-5.101,1.439-1.5,2.54-2.921,3.76-5.021l-5.16.02c-1.041,0-2.081.04-3.161.12-.16.02-.22-.12-.261-.34-.1-.42-.18-1.38-.18-2.08,1.08.08,2.08.08,3.381.08h5.502Z"/><path class="cls-2" d="M173.756,117.097c.201-.42.301-.78.42-1.3.721.2,1.441.44,1.981.7.221.1.301.2.301.34,0,.12-.04.2-.18.3-.201.14-.32.34-.461.62-1.519,3.101-3.42,5.481-5.881,7.362-.221.18-.359.28-.46.28-.12,0-.2-.14-.38-.44-.34-.56-.76-1.06-1.121-1.3,2.641-1.62,4.642-4.061,5.781-6.561ZM180.378,125.559c.12-.06.18-.1.239-.1.041,0,.08.04.16.12,1.621,2,2.881,3.941,4.262,6.401.1.18.1.22-.18.38l-1.501.86c-.101.06-.181.1-.24.1-.079,0-.12-.04-.18-.16-.3-.62-.62-1.22-.941-1.82-3.361.5-7.002.9-10.521,1.2-.4.04-.601.12-.761.22-.14.1-.22.14-.341.14-.139,0-.239-.12-.299-.32-.181-.56-.341-1.28-.48-2.12.76.02,1.48,0,2.28-.04.181,0,.38-.02.559-.02,1.08-2.36,2.041-4.741,2.581-6.481.261-.8.44-1.42.54-2.1.78.18,1.461.32,2.141.52.221.08.38.18.38.34,0,.14-.04.22-.159.36-.181.2-.301.42-.521.96-.72,1.921-1.6,4.141-2.561,6.221,2.041-.16,4.182-.36,6.162-.58-.641-1-1.301-1.98-2.041-2.961-.119-.16-.1-.2.16-.36l1.261-.76ZM179.998,115.837c.26-.12.3-.1.4.1,1.32,3.101,3.78,5.821,6.501,7.402-.38.3-.8.92-1.12,1.5-.16.3-.26.44-.381.44-.1,0-.22-.1-.42-.26-2.92-2.221-5.141-5.121-6.521-8.262-.08-.22-.039-.24.2-.36l1.341-.56Z"/><path class="cls-2" d="M194.271,115.777c1.32,0,1.9-.04,2.02-.04.18,0,.2.02.2.22,0,.14-.04.7-.04,1.92v2.361c0,1.22.04,1.78.04,1.9,0,.2-.02.22-.2.22-.12,0-.7-.04-2.02-.04h-3.28v6.681c0,2.801.039,4.181.039,4.321,0,.2-.02.22-.22.22h-1.7c-.2,0-.221-.02-.221-.22,0-.14.041-1.52.041-4.321v-8.682c0-2.801-.041-4.221-.041-4.361,0-.2.021-.22.221-.22.141,0,.9.04,2.381.04h2.78ZM190.99,117.257v1.14h3.5v-1.14h-3.5ZM194.49,119.737h-3.5v1.16h3.5v-1.16ZM196.15,128.659c-.039.32-.08.6-.14.86-.28,1.3-.94,2.441-1.9,3.361-.2.18-.3.28-.38.28-.12,0-.221-.12-.46-.36-.32-.32-.8-.64-1.181-.84,1.101-.7,1.82-1.64,2.141-2.941l.04-.36c-1.521.02-2.081.04-2.181.04-.199,0-.22-.02-.22-.24v-1.2c0-.2.021-.22.22-.22.1,0,.68.04,2.281.04.02-.5.039-1.12.039-1.82-1.199.02-1.66.04-1.76.04-.221,0-.24-.02-.24-.22v-1.22c0-.2.019-.22.24-.22.119,0,.72.04,2.5.04h4.281c1.78,0,2.381-.04,2.5-.04.201,0,.221.02.221.22v1.22c0,.2-.02.22-.221.22-.1,0-.6-.02-1.84-.04v1.82c1.58,0,2.181-.04,2.28-.04.2,0,.22.02.22.22v1.2c0,.22-.02.24-.22.24-.1,0-.7-.04-2.28-.04v1.86c0,1.38.04,2.041.04,2.161,0,.22-.02.24-.22.24h-1.481c-.2,0-.221-.02-.221-.24,0-.12.041-.78.041-2.161v-1.86h-2.102ZM198.252,127.079v-1.82h-1.942c0,.68-.019,1.3-.039,1.82h1.98ZM205.652,127.279c0,1.4.08,2.681.08,3.661,0,.96-.119,1.44-.58,1.84-.459.4-1.039.54-2.641.54-.619,0-.64,0-.74-.62-.1-.6-.26-1.06-.459-1.46.56.08,1.02.1,1.46.1.66,0,.82-.18.82-.78v-8.242h-3.28c-1.56,0-2.081.04-2.201.04-.221,0-.24-.02-.24-.22,0-.12.04-.56.04-1.74v-2.681c0-1.16-.04-1.62-.04-1.76,0-.2.02-.22.24-.22.12,0,.641.04,2.201.04h2.94c1.56,0,2.102-.04,2.221-.04.2,0,.221.02.221.22,0,.14-.041.98-.041,2.741v8.582ZM199.871,117.257v1.14h3.722v-1.14h-3.722ZM203.593,119.737h-3.722v1.16h3.722v-1.16Z"/><path class="cls-2" d="M215.322,117.777c0-1.12-.039-1.84-.159-2.561.739.02,1.54.06,2.22.14.181.02.341.1.341.24s-.04.28-.101.4c-.1.24-.16.68-.16,1.62v1.5h3.881c1.921,0,2.581-.04,2.721-.04.2,0,.221.02.221.22,0,.12-.041.74-.041,2.48v2.321c0,3.201.041,3.781.041,3.901,0,.2-.021.22-.221.22h-1.7c-.2,0-.22-.02-.22-.22v-.84h-4.682v2.46c0,2.381.041,3.601.041,3.701,0,.2-.02.22-.221.22h-1.78c-.2,0-.22-.02-.22-.22,0-.12.039-1.3.039-3.661v-2.501h-4.42v.92c0,.22-.021.24-.221.24h-1.7c-.2,0-.22-.02-.22-.24,0-.12.039-.72.039-3.921v-2.061c0-2.04-.039-2.68-.039-2.801,0-.2.02-.22.22-.22.14,0,.8.04,2.721.04h3.62v-1.34ZM210.902,125.219h4.42v-4.161h-4.42v4.161ZM217.463,121.058v4.161h4.682v-4.161h-4.682Z"/><rect class="cls-5" width="285" height="250"/></g></svg>