<?xml version="1.0" encoding="UTF-8"?><svg id="_レイヤー_2" xmlns="http://www.w3.org/2000/svg" viewBox="0 0 285 250"><defs><style>.cls-1{fill:#f63402;}.cls-2{fill:#fff;}</style></defs><g id="_レイヤー_1-2"><rect class="cls-1" width="285" height="250"/><path class="cls-2" d="M77.03,201.382h-1.002l-.781-2.574h-2.894l-.814,2.574h-.935l2.607-8.108h1.211l2.607,8.108ZM74.433,196.091c-.209-.682-.374-1.309-.572-2.079h-.165c-.187.77-.352,1.386-.561,2.068l-.594,1.98h2.498l-.605-1.969Z"/><path class="cls-2" d="M81.715,193.274c2.387,0,3.839,1.287,3.839,4.016s-1.606,4.093-3.994,4.093h-2.354v-8.108h2.508ZM80.164,200.601h1.364c1.804,0,3.014-1.012,3.014-3.3s-1.111-3.245-2.926-3.245h-1.452v6.546Z"/><path class="cls-2" d="M91.054,201.382h-1.199l-2.596-8.108h1.034l1.386,4.621c.275.902.473,1.727.737,2.629h.176c.253-.891.44-1.694.715-2.596l1.419-4.654h.957l-2.629,8.108Z"/><path class="cls-2" d="M101.494,201.382h-1.001l-.781-2.574h-2.894l-.814,2.574h-.935l2.607-8.108h1.21l2.607,8.108ZM98.897,196.091c-.209-.682-.374-1.309-.572-2.079h-.165c-.187.77-.352,1.386-.561,2.068l-.594,1.98h2.498l-.605-1.969Z"/><path class="cls-2" d="M109.6,201.382h-1.221l-2.542-4.907c-.451-.88-.737-1.507-1.155-2.365h-.165c.011.913.044,1.705.044,2.607v4.665h-.891v-8.108h1.485l2.322,4.544c.473.913.759,1.617,1.144,2.431h.176c-.033-.869-.088-1.705-.088-2.662v-4.313h.891v8.108Z"/><path class="cls-2" d="M117.465,195.706c-.275-1.188-.957-1.782-1.969-1.782-1.375,0-2.387,1.177-2.387,3.411s1.023,3.41,2.387,3.41c1.078,0,1.771-.539,2.057-1.815l.914.308c-.462,1.606-1.497,2.299-2.981,2.299-1.947,0-3.389-1.529-3.389-4.192s1.452-4.214,3.389-4.214c1.529,0,2.563.869,2.926,2.321l-.946.253Z"/><path class="cls-2" d="M125.847,194.077h-4.148v2.596h3.135v.803h-3.135v3.103h4.225v.803h-5.182v-8.108h5.105v.803Z"/><path class="cls-2" d="M132.953,201.382h-.957v-8.108h.957v8.108Z"/><path class="cls-2" d="M141.852,201.382h-1.221l-2.542-4.907c-.451-.88-.737-1.507-1.155-2.365h-.165c.011.913.044,1.705.044,2.607v4.665h-.891v-8.108h1.485l2.322,4.544c.473.913.759,1.617,1.144,2.431h.176c-.033-.869-.088-1.705-.088-2.662v-4.313h.891v8.108Z"/><path class="cls-2" d="M149.915,194.077h-4.137v2.629h3.124v.803h-3.124v3.872h-.957v-8.108h5.094v.803Z"/><path class="cls-2" d="M158.374,197.323c0,2.662-1.408,4.213-3.345,4.213-1.947,0-3.344-1.529-3.344-4.192s1.419-4.214,3.344-4.214c1.947,0,3.345,1.518,3.345,4.192ZM152.697,197.334c0,2.233.957,3.41,2.332,3.41,1.386,0,2.332-1.177,2.332-3.41,0-2.244-.946-3.411-2.332-3.411-1.375,0-2.332,1.166-2.332,3.411Z"/><path class="cls-2" d="M163.599,193.274c1.914,0,2.783.781,2.783,2.123,0,1.001-.572,1.782-1.716,2.046l1.937,3.939h-1.056l-1.782-3.784h-1.959v3.784h-.935v-8.108h2.729ZM161.805,196.85h1.672c1.353,0,1.925-.528,1.925-1.441,0-.88-.506-1.364-1.859-1.364h-1.738v2.805Z"/><path class="cls-2" d="M176.711,201.382h-.913v-4.764c0-.924.022-1.683.022-2.563h-.187c-.231.858-.429,1.584-.715,2.497l-1.529,4.83h-1.221l-1.496-4.819c-.275-.869-.473-1.617-.737-2.508h-.187c-.011.88.022,1.65.022,2.574v4.753h-.858v-8.108h1.606l1.452,4.775c.242.803.484,1.639.737,2.475h.187c.286-.847.495-1.595.759-2.453l1.474-4.797h1.584v8.108Z"/><path class="cls-2" d="M185.313,201.382h-1.002l-.781-2.574h-2.894l-.814,2.574h-.935l2.607-8.108h1.211l2.607,8.108ZM182.716,196.091c-.209-.682-.374-1.309-.572-2.079h-.165c-.187.77-.352,1.386-.561,2.068l-.594,1.98h2.498l-.606-1.969Z"/><path class="cls-2" d="M192.792,194.088h-2.541v7.294h-.968v-7.294h-2.519v-.814h6.029v.814Z"/><path class="cls-2" d="M195.993,201.382h-.957v-8.108h.957v8.108Z"/><path class="cls-2" d="M205.179,197.323c0,2.662-1.408,4.213-3.345,4.213-1.947,0-3.344-1.529-3.344-4.192s1.419-4.214,3.344-4.214c1.947,0,3.345,1.518,3.345,4.192ZM199.502,197.334c0,2.233.957,3.41,2.332,3.41,1.386,0,2.332-1.177,2.332-3.41,0-2.244-.946-3.411-2.332-3.411-1.375,0-2.332,1.166-2.332,3.411Z"/><path class="cls-2" d="M213.604,201.382h-1.221l-2.541-4.907c-.451-.88-.737-1.507-1.155-2.365h-.165c.011.913.044,1.705.044,2.607v4.665h-.891v-8.108h1.485l2.321,4.544c.473.913.759,1.617,1.144,2.431h.176c-.033-.869-.088-1.705-.088-2.662v-4.313h.891v8.108Z"/><path class="cls-2" d="M95.873,172.131c-.072.216-.265.36-.649.409-.721,3.581-1.707,6.849-7.33,8.82-.336-.745-1.105-1.923-1.754-2.524,5.023-1.442,5.792-4.013,6.177-7.114l3.557.409ZM101.713,177.346c0,.793.12.913.865.913h2.115c.721,0,.865-.457.961-3.317.577.481,1.851.961,2.62,1.154-.289,3.845-1.058,4.879-3.316,4.879h-2.812c-2.716,0-3.34-.889-3.34-3.629v-5.864h-12.305v-2.812h9.3v-3.941h-4.206c-.529,1.226-1.154,2.403-1.851,3.317-.649-.433-1.851-1.009-2.547-1.274,1.586-1.995,2.74-5.263,3.244-7.738l3.389.745c-.072.216-.264.337-.625.337-.145.553-.336,1.202-.553,1.851h3.148v-3.268l3.605.168c-.024.264-.216.408-.673.481v2.62h7.402v2.764h-7.402v3.941h9.325v2.812h-6.345v5.864Z"/><path class="cls-2" d="M118.342,172.395c-.649.697-1.322,1.322-1.971,1.899-.384-.577-1.25-1.802-1.778-2.355,2.283-1.827,4.927-5.023,6.465-8.003l3.172,1.322c-.096.168-.361.289-.673.216-.649,1.082-1.417,2.211-2.211,3.292l.529.168c-.072.192-.264.385-.649.433v11.992h-2.884v-8.964ZM123.293,160.042c-.096.144-.289.264-.673.216-1.49,1.85-4.061,4.326-6.369,5.936-.36-.649-1.129-1.802-1.61-2.379,2.019-1.274,4.326-3.437,5.503-5.119l3.148,1.346ZM137.376,167.036v2.74h-3.509v8.291c0,2.86-1.082,3.268-6.08,3.268-.12-.865-.48-2.091-.889-2.932,1.009.024,2.163.048,2.86.048.961,0,1.178,0,1.178-.457v-8.219h-7.162v-2.74h13.603ZM136.415,160.114v2.74h-11.8v-2.74h11.8Z"/><path class="cls-2" d="M150.762,162.349c.697,1.033,1.562,2.475,1.922,3.389l-1.971,1.13c-.24-.673-.745-1.658-1.249-2.572v17.039h-2.812v-15.693h-.024c-.144,1.803-.529,3.533-1.322,4.735-1.899-1.154-1.947-1.178-1.995-1.202.841-1.25,1.202-3.557,1.226-5.624l2.115.312v-5.191l3.436.192c-.024.24-.192.385-.624.457v3.701l1.298-.673ZM160.302,166.555h5.936v2.283h-14.9v-2.283h5.888v-.985h-4.061v-2.019h4.061v-.985h-5.119v-2.115h5.119v-1.778l3.75.216c-.024.24-.216.408-.673.457v1.106h5.167v2.115h-5.167v.985h4.11v2.019h-4.11v.985ZM164.412,169.799v8.868c0,2.283-.938,2.692-4.638,2.692-.121-.721-.481-1.706-.793-2.379.841.048,1.874.048,2.163.048.312,0,.409-.096.409-.361v-.865h-5.624v3.485h-2.812v-11.488h11.295ZM161.552,171.962h-5.624v1.009h5.624v-1.009ZM155.929,175.88h5.624v-.985h-5.624v.985Z"/><path class="cls-2" d="M179.431,163.142v1.779h4.158v2.427h-3.148l2.427.769c-.048.168-.264.24-.577.24-.336.649-.889,1.586-1.37,2.307h2.283v2.427h-3.773v1.826h3.413v2.427h-3.413v4.014h-2.667v-4.014h-3.509v-2.427h3.509v-1.826h-3.797v-2.427h1.898c-.144-.817-.504-1.923-.889-2.788l1.851-.529h-3.389v-2.427h4.326v-1.779h-3.245v-2.403h3.245v-2.043l3.292.192c-.025.216-.192.361-.625.408v1.442h3.22v2.403h-3.22ZM179.671,170.665l-.601-.264c.408-.865.865-2.139,1.105-3.052h-4.158c.456.913.889,2.163,1.009,2.932l-1.226.385h3.869ZM192.841,168.646l1.707.529c-.048.216-.12.288-.216.457-.336,2.644-1.01,5.143-2.115,7.282.865.865,1.851,1.586,2.98,2.067-.624.577-1.49,1.658-1.898,2.427-.985-.553-1.875-1.25-2.644-2.091-.601.745-1.273,1.394-2.019,1.947-.409-.625-1.225-1.442-1.85-1.899.841-.649,1.586-1.418,2.187-2.307-.889-1.49-1.586-3.196-2.091-5.047l2.187-.481c.312,1.033.745,2.019,1.273,2.932.409-1.033.721-2.163.938-3.316h-4.518v10.19h-2.668v-21.629h10.07v5.407c0,2.571-1.226,2.716-4.711,2.716-.096-.721-.433-1.754-.769-2.451.961.024,2.091.024,2.379.024.336-.024.433-.072.433-.336v-2.836h-4.734v6.489h5.575l.505-.072Z"/><rect class="cls-2" x="142.638" y="127.187" width="63.055" height="5.349"/><rect class="cls-2" x="172.549" y="115.132" width="33.145" height="5.349"/><path class="cls-2" d="M126.689,88.856l-48.507-20.324,80.358-21.532-31.851,41.856ZM130.15,94.635c-.177.221-.384.409-.61.572-.065.048-.131.092-.199.134-.253.154-.52.285-.804.364-.003,0-.005.001-.008.002,0,0-.002,0-.003,0h-.002s-.006.002-.008.003c-.288.074-.581.095-.877.088-.083-.003-.163-.009-.246-.018-.274-.028-.547-.087-.809-.19-.026-.01-.052-.006-.079-.018l-53.198-22.29,14.164,52.861c.448,1.671,2.166,2.663,3.837,2.215l85.779-22.985c1.671-.448,2.663-2.166,2.215-3.837l-14.164-52.861-34.93,45.904c-.016.021-.04.033-.058.054Z"/></g></svg>