<?xml version="1.0" encoding="UTF-8"?><svg id="_レイヤー_2" xmlns="http://www.w3.org/2000/svg" viewBox="0 0 285 250"><defs><style>.cls-1{fill:#fff;}.cls-2{stroke:#fff;stroke-miterlimit:10;}.cls-2,.cls-3{fill:none;}.cls-3,.cls-4{isolation:isolate;opacity:.5;}.cls-4{fill:#595757;}</style></defs><g id="_レイヤー_2-2"><rect class="cls-3" width="285" height="250"/><rect class="cls-4" x="57.153" y="108.074" width="170" height="35"/><rect class="cls-2" x="57.153" y="108.074" width="170" height="35"/><path class="cls-1" d="M83.724,121.198c-.12.06-.18.1-.24.1s-.08-.04-.14-.16c-.4-.92-.9-1.76-1.561-2.761-.36,1.24-.84,2.521-1.42,3.781,1.1,1.44,1.46,2.4,1.46,3.961,0,1.86-.7,2.841-2.301,2.96-.413.027-.646-.18-.699-.62-.08-.52-.221-.96-.4-1.22,1.2.06,1.601-.28,1.601-1.24,0-1.12-.381-2.08-1.581-3.681.66-1.48,1.16-2.941,1.48-4.301h-1.681v11.302c0,2.741.04,4.181.04,4.301,0,.18-.02.2-.22.2h-1.56c-.18,0-.2-.02-.2-.2,0-.14.02-1.5.02-4.281v-8.662c0-2.801-.02-4.181-.02-4.321,0-.2.02-.22.2-.22.141,0,.58.04,1.501.04h2.38c.181,0,.32-.02.4-.06.1-.04.18-.06.28-.06.14,0,.28.1.78.64.399.46.42.6.42.76,0,.14-.04.24-.181.34-.1.1-.18.22-.239.4l1.18-.66c.221-.12.301-.12.4.04.6.86,1.12,1.78,1.54,2.56.101.18.08.26-.16.4l-1.08.66v.002ZM84.944,129.639c.359.76.66,1.12,1.481,1.5.66.3,1.5.42,2.78.42,1.66,0,2.961-.08,4.961-.3-.18.42-.3.9-.38,1.4-.067.44-.314.673-.74.7-1.481.08-2.581.12-3.701.12-1.82,0-2.7-.14-3.56-.6-.88-.46-1.46-1.02-1.92-1.82-.62.62-1.32,1.22-2.061,1.82-.2.16-.341.28-.42.42-.08.14-.16.22-.301.22-.12,0-.22-.1-.3-.26-.28-.52-.521-1.08-.78-1.76.5-.24.82-.4,1.221-.64.56-.36,1.28-.9,1.82-1.42v-4.341h-.38c-.32,0-.521.04-.641.04-.2,0-.22-.02-.22-.24v-1.48c0-.2.02-.22.22-.22.12,0,.32.04.9.04h.9c.56,0,.819-.04.94-.04.2,0,.221.02.221.22,0,.12-.04.68-.04,1.88v4.341h0ZM86.225,123.538c-.181.22-.32.32-.42.32-.101,0-.181-.1-.301-.28-.319-.48-.66-.82-.96-1.04,1.141-1.08,1.86-2,2.4-3.161-1.26.02-1.74.04-1.84.04-.2,0-.221-.02-.221-.22v-1.32c0-.18.021-.2.221-.2.12,0,.7.04,2.4.04h.06c.08-.24.141-.48.221-.76.119-.46.159-.9.18-1.36.6.06,1.32.16,1.721.24.26.06.38.14.38.3,0,.1-.08.22-.16.32-.101.12-.16.24-.22.44l-.221.82h1.7c1.701,0,2.281-.04,2.401-.04.199,0,.22.02.22.2v1.32c0,.2-.02.22-.22.22-.12,0-.7-.04-2.401-.04h-2.28c-.2.54-.44,1.04-.72,1.52h2.44c1.3,0,1.94-.04,2.08-.04.2,0,.221.02.221.22,0,.12-.04.86-.04,2.381v2.441c0,.92.04,2.001.04,2.621,0,.74-.061,1.28-.48,1.64-.28.28-.7.4-1.78.44-.374.013-.594-.153-.66-.5-.08-.46-.26-1-.42-1.24.42.04.66.06,1.02.06.4,0,.521-.14.521-.58v-.78h-2.681v.74c0,1.54.04,2.04.04,2.161,0,.2-.02.22-.22.22h-1.4c-.221,0-.24-.02-.24-.22,0-.12.04-.62.04-2.161v-5.241l-.42.48h0ZM88.425,122.478v1.1h2.681v-1.1h-2.681ZM91.105,126.139v-1.16h-2.681v1.16h2.681Z"/><path class="cls-1" d="M101.768,125.459c0,4.981.04,5.881.04,6.001,0,.2-.02.22-.22.22h-1.44c-.18,0-.2-.02-.2-.22v-.88h-1.841v1.58c0,.2-.02.22-.199.22h-1.48c-.2,0-.221-.02-.221-.22,0-.12.04-1.14.04-6.161v-4.361c0-3.621-.04-4.681-.04-4.801,0-.2.021-.22.221-.22.14,0,.519.04,1.72.04h1.721c1.2,0,1.58-.04,1.721-.04.2,0,.22.02.22.22,0,.12-.04,1.1-.04,4.041v4.581h-.002ZM98.106,118.477v4.141h1.841v-4.141h-1.841ZM99.947,128.759v-4.321h-1.841v4.321h1.841ZM105.269,123.438c-1.9,0-2.561.04-2.681.04-.22,0-.24-.02-.24-.24v-1.38c0-.2.021-.22.24-.22.12,0,.78.04,2.681.04h1.44v-2.061h-.94c-1.78,0-2.4.04-2.521.04-.22,0-.24-.02-.24-.22v-1.4c0-.22.021-.24.24-.24.12,0,.74.04,2.521.04h.94c-.02-1.04-.04-1.56-.141-2.26.78.02,1.32.06,2.06.14.2.02.32.1.32.2,0,.16-.06.26-.12.42-.1.22-.1.6-.1,1.5h1.34c1.82,0,2.421-.04,2.541-.04.199,0,.22.02.22.24v1.4c0,.2-.02.22-.22.22-.12,0-.721-.04-2.541-.04h-1.34v2.061h2.12c1.9,0,2.561-.04,2.681-.04.22,0,.24.02.24.22v1.38c0,.22-.021.24-.24.24-.12,0-.78-.04-2.681-.04h-5.581.002ZM105.349,127.199c-1.9,0-2.541.04-2.661.04-.22,0-.239-.02-.239-.22v-1.4c0-.2.02-.22.239-.22.12,0,.761.04,2.661.04h3.94c-.02-.82-.08-1.3-.14-1.76.76.04,1.48.1,2.021.18.22.04.34.12.34.22,0,.14-.04.22-.1.34-.08.16-.101.4-.101,1.02,1.36,0,1.9-.04,2.001-.04.22,0,.239.02.239.22v1.4c0,.2-.02.22-.239.22-.101,0-.641-.02-2.001-.04v1.98c0,.92.02,1.78.02,2.461,0,.74-.141,1.3-.7,1.7-.44.3-1.101.44-2.601.44-.601,0-.62,0-.761-.6-.14-.6-.34-1.06-.6-1.46.7.06,1.3.08,1.96.08.481,0,.66-.16.66-.62v-3.981h-3.94.002ZM105.009,127.759c.199-.12.26-.12.42.02.68.7,1.28,1.46,1.84,2.301.12.18.101.24-.1.38l-1.221.84c-.12.08-.18.12-.239.12-.061,0-.101-.04-.16-.14-.601-1.02-1.181-1.78-1.761-2.461-.14-.16-.14-.22.1-.36,0,0,1.121-.7,1.121-.7Z"/><path class="cls-1" d="M126.261,130.76c0,.46.1.6.359.66.261.08.78.1,1.561.1.721,0,1.48-.08,1.721-.26.32-.24.479-.78.5-2.12.4.26.94.52,1.46.7.333.12.48.347.441.68-.12,1.4-.38,1.921-.941,2.321-.559.44-1.8.6-3.341.6-1.5,0-2.44-.06-3.021-.28-.46-.2-.82-.52-.82-1.42v-4.141h-1.8c-.58,3.381-2.681,5.441-6.142,6.161-.2.04-.32.06-.42.06-.2,0-.26-.1-.46-.5-.261-.5-.601-.96-.981-1.3,3.541-.44,5.401-1.92,5.801-4.421h-.04c-1.94,0-2.58.04-2.7.04-.22,0-.24-.02-.24-.22,0-.14.04-.88.04-2.441v-5.981c0-1.6-.04-2.341-.04-2.48,0-.2.021-.22.24-.22.12,0,.8.04,2.74.04h6.441c1.921,0,2.601-.04,2.741-.04.2,0,.22.02.22.22,0,.14-.04.88-.04,2.48v5.981c0,1.56.04,2.32.04,2.441,0,.2-.02.22-.22.22-.141,0-.82-.04-2.741-.04h-.359v3.161h0ZM119.299,118.157v1.46h8.162v-1.46h-8.162ZM127.461,122.718v-1.42h-8.162v1.42h8.162ZM127.461,124.398h-8.162v1.48h8.162v-1.48Z"/><path class="cls-1" d="M136.517,128.559c-1.78,0-2.38.04-2.5.04-.2,0-.221-.02-.221-.22v-1.54c0-.2.02-.22.221-.22.12,0,.72.04,2.5.04h5.262c-.021-.64-.04-1.16-.12-1.7l1.16.12c.68-.44,1.22-.88,1.82-1.44h-4.321c-1.84,0-2.48.04-2.58.04-.2,0-.221-.02-.221-.2v-1.4c0-.2.021-.22.221-.22.1,0,.74.04,2.58.04h5.422c.279,0,.399,0,.48-.04.1-.04.16-.08.26-.08.16,0,.36.16.86.64.4.42.56.68.56.86,0,.16-.08.26-.24.32-.2.1-.481.26-.96.66-.82.7-1.721,1.4-2.801,2.08v.32h5.001c1.78,0,2.381-.04,2.501-.04.199,0,.22.02.22.22v1.54c0,.2-.02.22-.22.22-.12,0-.721-.04-2.501-.04h-5.001v1.3c0,.48.04,1.22.04,1.74,0,.86-.16,1.3-.641,1.64-.52.32-1.14.44-3.061.44-.62,0-.62.02-.78-.58-.14-.52-.359-1.06-.6-1.46.8.08,1.36.12,2.141.12.56,0,.78-.14.78-.7v-2.501h-5.262.001ZM137.757,115.757c.261-.1.32-.06.441.1.5.64,1.04,1.5,1.34,2.08.101.2.101.22-.18.32l-1.32.48h4.161c-.3-.88-.78-1.88-1.141-2.501-.12-.2-.06-.22.181-.3l1.32-.4c.239-.08.3-.04.399.12.34.56.841,1.6,1.101,2.32.06.18.06.2-.22.3l-1.301.46h3.081c.38-.64.66-1.26.98-2.02.101-.26.2-.58.301-1.06.72.14,1.42.36,1.98.6.18.08.279.18.279.3s-.08.22-.199.3c-.12.08-.28.28-.381.46-.279.52-.519.94-.82,1.42h.521c1.86,0,2.52-.04,2.641-.04.22,0,.24.02.24.22,0,.12-.04.5-.04,1.08v.92c0,1.8.04,2.12.04,2.24,0,.22-.021.24-.24.24h-1.58c-.2,0-.221-.02-.221-.24v-2.64h-12.803v2.64c0,.2-.019.22-.22.22h-1.58c-.221,0-.24-.02-.24-.22,0-.14.04-.46.04-2.26v-.74c0-.74-.04-1.1-.04-1.24,0-.2.02-.22.24-.22.12,0,.78.04,2.641.04h.54c-.34-.82-.88-1.7-1.28-2.24-.12-.18-.101-.22.14-.3l1.2-.44h0Z"/><path class="cls-1" d="M165.597,124.638c.3,0,.48-.04.54-.06.101-.04.181-.08.261-.08.18,0,.359.12.939.7.5.48.58.68.58.84,0,.14-.08.22-.239.32-.141.1-.381.28-.66.68-.881,1.2-1.841,2.201-2.941,3.041,1.86.84,4.182,1.34,7.162,1.64-.3.44-.561.98-.761,1.5-.159.44-.199.56-.46.56-.08,0-.22-.02-.38-.04-3.121-.48-5.521-1.26-7.462-2.421-2.04,1.1-4.44,1.841-7.301,2.361-.2.04-.301.04-.421.04-.22,0-.279-.12-.439-.52-.221-.54-.54-1.08-.801-1.42,2.841-.34,5.222-.94,7.162-1.82-1.061-.96-1.921-2.101-2.681-3.481-.74,0-1.2.02-1.28.02-.2,0-.22-.02-.22-.22v-1.46c0-.2.02-.22.22-.22.12,0,.78.04,2.721.04h6.461ZM157.715,118.957c.24-.1.32-.06.421.12.38.64.779,1.42,1.08,2.18h2.22c-.18-.64-.42-1.3-.68-1.86-.08-.18-.04-.26.2-.34l1.22-.38c.221-.06.301-.08.4.12.34.72.66,1.66.84,2.461h1.341c.48-.7.84-1.4,1.16-2.04.14-.32.22-.58.3-.98.681.2,1.24.4,1.74.6.2.08.301.16.301.3,0,.12-.101.22-.221.34-.16.16-.279.32-.439.62-.2.38-.4.76-.641,1.16h.86c1.841,0,2.501-.04,2.62-.04.2,0,.221.02.221.22,0,.12-.04.46-.04,1v1.16c0,1.28.04,1.74.04,1.86,0,.2-.021.22-.221.22h-1.62c-.2,0-.22-.02-.22-.22v-2.32h-12.963v2.32c0,.2-.02.22-.22.22h-1.601c-.2,0-.22-.02-.22-.22,0-.12.04-.58.04-1.88v-1c0-.68-.04-1-.04-1.14,0-.2.02-.22.22-.22.12,0,.78.04,2.62.04h.721c-.221-.54-.5-1.1-.761-1.52-.12-.18-.12-.22.16-.32l1.16-.46h.002ZM169.218,116.877c.14.16.22.28.22.42,0,.12-.1.2-.32.2-.26,0-.58.02-.96.08-1.96.28-3.501.5-5.921.72-2.121.2-4.541.36-6.861.44-.293.013-.507-.187-.641-.6-.18-.46-.38-.92-.62-1.26,2.541-.02,5.161-.16,7.502-.36,2-.18,3.36-.36,4.481-.56.7-.14,1.2-.28,1.681-.44.58.4,1.021.9,1.441,1.36h-.002ZM159.856,126.459c.641,1.02,1.421,1.84,2.341,2.521,1.12-.72,2.021-1.56,2.74-2.521h-5.081Z"/><path class="cls-1" d="M175.498,126.059c0-.72,0-1.5.021-2.32-.44.64-.92,1.26-1.44,1.88-.16.18-.26.26-.34.26-.101,0-.16-.1-.24-.32-.18-.68-.5-1.32-.8-1.78,1.84-1.88,3.16-4.361,4.021-6.801.16-.48.28-.94.34-1.44.78.2,1.421.38,2.02.62.22.08.32.16.32.3s-.06.22-.22.36c-.141.12-.24.3-.4.8-.36.9-.74,1.78-1.181,2.661v10.322c0,1.941.04,2.921.04,3.021,0,.2-.02.22-.22.22h-1.74c-.2,0-.221-.02-.221-.22,0-.12.04-1.08.04-3.021v-4.541h0ZM181.939,121.918c-1.92,0-2.601.04-2.72.04-.2,0-.221-.02-.221-.22v-1.58c0-.2.021-.22.221-.22.119,0,.8.04,2.72.04h4.222v-1.5c0-1.3-.02-2.041-.141-2.841.74.02,1.48.06,2.201.14.199.02.319.12.319.22,0,.18-.08.3-.14.44-.101.24-.141.64-.141,1.98v1.56c1.721,0,2.341-.04,2.461-.04.2,0,.22.02.22.22v1.58c0,.2-.019.22-.22.22-.12,0-.74-.04-2.461-.04v5.541c0,1.4.061,2.741.061,3.841,0,1.02-.14,1.44-.66,1.861-.42.34-1.261.46-3.201.46-.413,0-.667-.207-.76-.62-.16-.64-.34-1.16-.6-1.56.779.06,1.7.1,2.3.08.56,0,.761-.18.761-.66v-8.942h-4.222.001ZM182.52,128.739c-.119.08-.199.12-.239.12-.061,0-.101-.06-.16-.18-.7-1.48-1.421-2.761-2.32-3.941-.141-.18-.12-.2.14-.36l1.261-.72c.199-.12.239-.08.38.06.92,1.14,1.68,2.34,2.42,3.801.101.18.04.22-.18.36l-1.301.86h-.001Z"/><path class="cls-1" d="M200.058,118.077c0-1.12-.04-1.84-.16-2.561.74.02,1.541.06,2.221.14.181.02.34.1.34.24s-.039.28-.1.4c-.1.24-.16.68-.16,1.62v1.5h3.881c1.921,0,2.581-.04,2.721-.04.2,0,.22.02.22.22,0,.12-.04.74-.04,2.481v2.32c0,3.201.04,3.781.04,3.901,0,.2-.02.22-.22.22h-1.7c-.2,0-.22-.02-.22-.22v-.84h-4.682v2.461c0,2.38.04,3.601.04,3.701,0,.2-.019.22-.22.22h-1.78c-.2,0-.221-.02-.221-.22,0-.12.04-1.3.04-3.661v-2.501h-4.421v.92c0,.22-.019.24-.22.24h-1.7c-.2,0-.221-.02-.221-.24,0-.12.04-.72.04-3.921v-2.06c0-2.04-.04-2.681-.04-2.801,0-.2.02-.22.221-.22.14,0,.8.04,2.721.04h3.62v-1.34h0ZM195.637,125.519h4.421v-4.161h-4.421v4.161ZM202.198,121.358v4.161h4.682v-4.161h-4.682Z"/></g></svg>