<?xml version="1.0" encoding="UTF-8"?><svg id="_レイヤー_2" xmlns="http://www.w3.org/2000/svg" viewBox="0 0 285 250"><defs><style>.cls-1,.cls-2{fill:#fff;}.cls-2,.cls-3{opacity:.5;}.cls-3{fill:#595757;}.cls-4{fill:none;stroke:#fff;stroke-miterlimit:10;}.cls-5{fill:#868686;}</style></defs><g id="_レイヤー_1-2"><rect class="cls-2" width="285" height="250"/><rect class="cls-3" x="57.153" y="108.074" width="170" height="35"/><rect class="cls-4" x="57.153" y="108.074" width="170" height="35"/><path class="cls-1" d="M83.724,121.198c-.12.06-.18.1-.24.1-.06,0-.08-.04-.14-.16-.4-.92-.9-1.76-1.561-2.761-.36,1.24-.84,2.521-1.42,3.781,1.1,1.44,1.46,2.4,1.46,3.961,0,1.86-.7,2.841-2.301,2.96q-.62.04-.699-.62c-.08-.52-.221-.96-.4-1.22,1.2.06,1.601-.28,1.601-1.24,0-1.12-.381-2.08-1.581-3.681.66-1.48,1.16-2.941,1.48-4.301h-1.681v11.302c0,2.741.04,4.181.04,4.301,0,.18-.02.2-.22.2h-1.56c-.18,0-.2-.02-.2-.2,0-.14.02-1.5.02-4.281v-8.662c0-2.801-.02-4.181-.02-4.321,0-.2.02-.22.2-.22.141,0,.58.04,1.501.04h2.38c.181,0,.32-.02.4-.06.1-.04.18-.06.28-.06.14,0,.28.1.78.64.399.46.42.6.42.76,0,.14-.04.24-.181.34-.1.1-.18.22-.239.4l1.18-.66c.221-.12.301-.12.4.04.6.86,1.12,1.78,1.54,2.56.101.18.08.26-.16.4l-1.08.66ZM84.944,129.639c.359.76.66,1.12,1.481,1.5.66.3,1.5.42,2.78.42,1.66,0,2.961-.08,4.961-.3-.18.42-.3.9-.38,1.4q-.101.66-.74.7c-1.481.08-2.581.12-3.701.12-1.82,0-2.7-.14-3.56-.6-.88-.46-1.46-1.02-1.92-1.82-.62.62-1.32,1.22-2.061,1.82-.2.16-.341.28-.42.42-.08.14-.16.22-.301.22-.12,0-.22-.1-.3-.26-.28-.52-.521-1.08-.78-1.76.5-.24.82-.4,1.221-.64.56-.36,1.28-.9,1.82-1.42v-4.341h-.38c-.32,0-.521.04-.641.04-.2,0-.22-.02-.22-.24v-1.48c0-.2.02-.22.22-.22.12,0,.32.04.9.04h.9c.56,0,.819-.04.94-.04.2,0,.221.02.221.22,0,.12-.04.68-.04,1.88v4.341ZM86.225,123.538c-.181.22-.32.32-.42.32-.101,0-.181-.1-.301-.28-.319-.48-.66-.82-.96-1.04,1.141-1.08,1.86-2,2.4-3.161-1.26.02-1.74.04-1.84.04-.2,0-.221-.02-.221-.22v-1.32c0-.18.021-.2.221-.2.12,0,.7.04,2.4.04h.06c.08-.24.141-.48.221-.76.119-.46.159-.9.18-1.36.6.06,1.32.16,1.721.24.26.06.38.14.38.3,0,.1-.08.22-.16.32-.101.12-.16.24-.22.44l-.221.82h1.7c1.701,0,2.281-.04,2.401-.04.199,0,.22.02.22.2v1.32c0,.2-.02.22-.22.22-.12,0-.7-.04-2.401-.04h-2.28c-.2.54-.44,1.04-.72,1.52h2.44c1.3,0,1.94-.04,2.08-.04.2,0,.221.02.221.22,0,.12-.04.86-.04,2.381v2.441c0,.92.04,2.001.04,2.621,0,.74-.061,1.28-.48,1.64-.28.28-.7.4-1.78.44q-.561.02-.66-.5c-.08-.46-.26-1-.42-1.24.42.04.66.06,1.02.06.4,0,.521-.14.521-.58v-.78h-2.681v.74c0,1.54.04,2.04.04,2.161,0,.2-.02.22-.22.22h-1.4c-.221,0-.24-.02-.24-.22,0-.12.04-.62.04-2.161v-5.241l-.42.48ZM88.425,122.478v1.1h2.681v-1.1h-2.681ZM91.105,126.139v-1.16h-2.681v1.16h2.681Z"/><path class="cls-1" d="M101.768,125.459c0,4.981.04,5.881.04,6.001,0,.2-.02.22-.22.22h-1.44c-.18,0-.2-.02-.2-.22v-.88h-1.841v1.58c0,.2-.02.22-.199.22h-1.48c-.2,0-.221-.02-.221-.22,0-.12.04-1.14.04-6.161v-4.361c0-3.621-.04-4.681-.04-4.801,0-.2.021-.22.221-.22.14,0,.519.04,1.72.04h1.721c1.2,0,1.58-.04,1.721-.04.2,0,.22.02.22.22,0,.12-.04,1.1-.04,4.041v4.581ZM98.106,118.477v4.141h1.841v-4.141h-1.841ZM99.947,128.759v-4.321h-1.841v4.321h1.841ZM105.269,123.438c-1.9,0-2.561.04-2.681.04-.22,0-.24-.02-.24-.24v-1.38c0-.2.021-.22.24-.22.12,0,.78.04,2.681.04h1.44v-2.061h-.94c-1.78,0-2.4.04-2.521.04-.22,0-.24-.02-.24-.22v-1.4c0-.22.021-.24.24-.24.12,0,.74.04,2.521.04h.94c-.02-1.04-.04-1.56-.141-2.26.78.02,1.32.06,2.06.14.2.02.32.1.32.2,0,.16-.06.26-.12.42-.1.22-.1.6-.1,1.5h1.34c1.82,0,2.421-.04,2.541-.04.199,0,.22.02.22.24v1.4c0,.2-.02.22-.22.22-.12,0-.721-.04-2.541-.04h-1.34v2.061h2.12c1.9,0,2.561-.04,2.681-.04.22,0,.24.02.24.22v1.38c0,.22-.021.24-.24.24-.12,0-.78-.04-2.681-.04h-5.581ZM105.349,127.199c-1.9,0-2.541.04-2.661.04-.22,0-.239-.02-.239-.22v-1.4c0-.2.02-.22.239-.22.12,0,.761.04,2.661.04h3.94c-.02-.82-.08-1.3-.14-1.76.76.04,1.48.1,2.021.18.22.04.34.12.34.22,0,.14-.04.22-.1.34-.08.16-.101.4-.101,1.02,1.36,0,1.9-.04,2.001-.04.22,0,.239.02.239.22v1.4c0,.2-.02.22-.239.22-.101,0-.641-.02-2.001-.04v1.98c0,.92.02,1.78.02,2.461,0,.74-.141,1.3-.7,1.7-.44.3-1.101.44-2.601.44-.601,0-.62,0-.761-.6-.14-.6-.34-1.06-.6-1.46.7.06,1.3.08,1.96.08.481,0,.66-.16.66-.62v-3.981h-3.94ZM105.009,127.759c.199-.12.26-.12.42.02.68.7,1.28,1.46,1.84,2.301.12.18.101.24-.1.38l-1.221.84c-.12.08-.18.12-.239.12-.061,0-.101-.04-.16-.14-.601-1.02-1.181-1.78-1.761-2.461-.14-.16-.14-.22.1-.36l1.121-.7Z"/><path class="cls-1" d="M126.261,130.76c0,.46.1.6.359.66.261.08.78.1,1.561.1.721,0,1.48-.08,1.721-.26.32-.24.479-.78.5-2.12.4.26.94.52,1.46.7q.5.18.441.68c-.12,1.4-.38,1.921-.941,2.321-.559.44-1.8.6-3.341.6-1.5,0-2.44-.06-3.021-.28-.46-.2-.82-.52-.82-1.42v-4.141h-1.8c-.58,3.381-2.681,5.441-6.142,6.161-.2.04-.32.06-.42.06-.2,0-.26-.1-.46-.5-.261-.5-.601-.96-.981-1.3,3.541-.44,5.401-1.92,5.801-4.421h-.04c-1.94,0-2.58.04-2.7.04-.22,0-.24-.02-.24-.22,0-.14.04-.88.04-2.441v-5.981c0-1.6-.04-2.341-.04-2.48,0-.2.021-.22.24-.22.12,0,.8.04,2.74.04h6.441c1.921,0,2.601-.04,2.741-.04.2,0,.22.02.22.22,0,.14-.04.88-.04,2.48v5.981c0,1.56.04,2.32.04,2.441,0,.2-.02.22-.22.22-.141,0-.82-.04-2.741-.04h-.359v3.161ZM119.299,118.157v1.46h8.162v-1.46h-8.162ZM127.461,122.718v-1.42h-8.162v1.42h8.162ZM127.461,124.398h-8.162v1.48h8.162v-1.48Z"/><path class="cls-1" d="M136.517,128.559c-1.78,0-2.38.04-2.5.04-.2,0-.221-.02-.221-.22v-1.54c0-.2.02-.22.221-.22.12,0,.72.04,2.5.04h5.262c-.021-.64-.04-1.16-.12-1.7l1.16.12c.68-.44,1.22-.88,1.82-1.44h-4.321c-1.84,0-2.48.04-2.58.04-.2,0-.221-.02-.221-.2v-1.4c0-.2.021-.22.221-.22.1,0,.74.04,2.58.04h5.422c.279,0,.399,0,.48-.04.1-.04.16-.08.26-.08.16,0,.36.16.86.64.4.42.56.68.56.86,0,.16-.08.26-.24.32-.2.1-.481.26-.96.66-.82.7-1.721,1.4-2.801,2.08v.32h5.001c1.78,0,2.381-.04,2.501-.04.199,0,.22.02.22.22v1.54c0,.2-.02.22-.22.22-.12,0-.721-.04-2.501-.04h-5.001v1.3c0,.48.04,1.22.04,1.74,0,.86-.16,1.3-.641,1.64-.52.32-1.14.44-3.061.44-.62,0-.62.02-.78-.58-.14-.52-.359-1.06-.6-1.46.8.08,1.36.12,2.141.12.56,0,.78-.14.78-.7v-2.501h-5.262ZM137.757,115.757c.261-.1.32-.06.441.1.5.64,1.04,1.5,1.34,2.08.101.2.101.22-.18.32l-1.32.48h4.161c-.3-.88-.78-1.88-1.141-2.501-.12-.2-.06-.22.181-.3l1.32-.4c.239-.08.3-.04.399.12.34.56.841,1.6,1.101,2.32.06.18.06.2-.22.3l-1.301.46h3.081c.38-.64.66-1.26.98-2.02.101-.26.2-.58.301-1.06.72.14,1.42.36,1.98.6.18.08.279.18.279.3s-.08.22-.199.3c-.12.08-.28.28-.381.46-.279.52-.519.94-.82,1.42h.521c1.86,0,2.52-.04,2.641-.04.22,0,.24.02.24.22,0,.12-.04.5-.04,1.08v.92c0,1.8.04,2.12.04,2.24,0,.22-.021.24-.24.24h-1.58c-.2,0-.221-.02-.221-.24v-2.64h-12.803v2.64c0,.2-.019.22-.22.22h-1.58c-.221,0-.24-.02-.24-.22,0-.14.04-.46.04-2.26v-.74c0-.74-.04-1.1-.04-1.24,0-.2.02-.22.24-.22.12,0,.78.04,2.641.04h.54c-.34-.82-.88-1.7-1.28-2.24-.12-.18-.101-.22.14-.3l1.2-.44Z"/><path class="cls-1" d="M165.597,124.638c.3,0,.48-.04.54-.06.101-.04.181-.08.261-.08.18,0,.359.12.939.7.5.48.58.68.58.84,0,.14-.08.22-.239.32-.141.1-.381.28-.66.68-.881,1.2-1.841,2.201-2.941,3.041,1.86.84,4.182,1.34,7.162,1.64-.3.44-.561.98-.761,1.5-.159.44-.199.56-.46.56-.08,0-.22-.02-.38-.04-3.121-.48-5.521-1.26-7.462-2.421-2.04,1.1-4.44,1.841-7.301,2.361-.2.04-.301.04-.421.04-.22,0-.279-.12-.439-.52-.221-.54-.54-1.08-.801-1.42,2.841-.34,5.222-.94,7.162-1.82-1.061-.96-1.921-2.101-2.681-3.481-.74,0-1.2.02-1.28.02-.2,0-.22-.02-.22-.22v-1.46c0-.2.02-.22.22-.22.12,0,.78.04,2.721.04h6.461ZM157.715,118.957c.24-.1.32-.06.421.12.38.64.779,1.42,1.08,2.18h2.22c-.18-.64-.42-1.3-.68-1.86-.08-.18-.04-.26.2-.34l1.22-.38c.221-.06.301-.08.4.12.34.72.66,1.66.84,2.461h1.341c.48-.7.84-1.4,1.16-2.04.14-.32.22-.58.3-.98.681.2,1.24.4,1.74.6.2.08.301.16.301.3,0,.12-.101.22-.221.34-.16.16-.279.32-.439.62-.2.38-.4.76-.641,1.16h.86c1.841,0,2.501-.04,2.62-.04.2,0,.221.02.221.22,0,.12-.04.46-.04,1v1.16c0,1.28.04,1.74.04,1.86,0,.2-.021.22-.221.22h-1.62c-.2,0-.22-.02-.22-.22v-2.32h-12.963v2.32c0,.2-.02.22-.22.22h-1.601c-.2,0-.22-.02-.22-.22,0-.12.04-.58.04-1.88v-1c0-.68-.04-1-.04-1.14,0-.2.02-.22.22-.22.12,0,.78.04,2.62.04h.721c-.221-.54-.5-1.1-.761-1.52-.12-.18-.12-.22.16-.32l1.16-.46ZM169.218,116.877c.14.16.22.28.22.42,0,.12-.1.2-.32.2-.26,0-.58.02-.96.08-1.96.28-3.501.5-5.921.72-2.121.2-4.541.36-6.861.44q-.44.02-.641-.6c-.18-.46-.38-.92-.62-1.26,2.541-.02,5.161-.16,7.502-.36,2-.18,3.36-.36,4.481-.56.7-.14,1.2-.28,1.681-.44.58.4,1.021.9,1.441,1.36ZM159.856,126.459c.641,1.02,1.421,1.84,2.341,2.521,1.12-.72,2.021-1.56,2.74-2.521h-5.081Z"/><path class="cls-1" d="M175.498,126.059c0-.72,0-1.5.021-2.32-.44.64-.92,1.26-1.44,1.88-.16.18-.26.26-.34.26-.101,0-.16-.1-.24-.32-.18-.68-.5-1.32-.8-1.78,1.84-1.88,3.16-4.361,4.021-6.801.16-.48.28-.94.34-1.44.78.2,1.421.38,2.02.62.22.08.32.16.32.3s-.06.22-.22.36c-.141.12-.24.3-.4.8-.36.9-.74,1.78-1.181,2.661v10.322c0,1.941.04,2.921.04,3.021,0,.2-.02.22-.22.22h-1.74c-.2,0-.221-.02-.221-.22,0-.12.04-1.08.04-3.021v-4.541ZM181.939,121.918c-1.92,0-2.601.04-2.72.04-.2,0-.221-.02-.221-.22v-1.58c0-.2.021-.22.221-.22.119,0,.8.04,2.72.04h4.222v-1.5c0-1.3-.02-2.041-.141-2.841.74.02,1.48.06,2.201.14.199.02.319.12.319.22,0,.18-.08.3-.14.44-.101.24-.141.64-.141,1.98v1.56c1.721,0,2.341-.04,2.461-.04.2,0,.22.02.22.22v1.58c0,.2-.019.22-.22.22-.12,0-.74-.04-2.461-.04v5.541c0,1.4.061,2.741.061,3.841,0,1.02-.14,1.44-.66,1.861-.42.34-1.261.46-3.201.46q-.62,0-.76-.62c-.16-.64-.34-1.16-.6-1.56.779.06,1.7.1,2.3.08.56,0,.761-.18.761-.66v-8.942h-4.222ZM182.52,128.739c-.119.08-.199.12-.239.12-.061,0-.101-.06-.16-.18-.7-1.48-1.421-2.761-2.32-3.941-.141-.18-.12-.2.14-.36l1.261-.72c.199-.12.239-.08.38.06.92,1.14,1.68,2.34,2.42,3.801.101.18.04.22-.18.36l-1.301.86Z"/><path class="cls-1" d="M200.058,118.077c0-1.12-.04-1.84-.16-2.561.74.02,1.541.06,2.221.14.181.02.34.1.34.24s-.039.28-.1.4c-.1.24-.16.68-.16,1.62v1.5h3.881c1.921,0,2.581-.04,2.721-.04.2,0,.22.02.22.22,0,.12-.04.74-.04,2.481v2.32c0,3.201.04,3.781.04,3.901,0,.2-.02.22-.22.22h-1.7c-.2,0-.22-.02-.22-.22v-.84h-4.682v2.461c0,2.38.04,3.601.04,3.701,0,.2-.019.22-.22.22h-1.78c-.2,0-.221-.02-.221-.22,0-.12.04-1.3.04-3.661v-2.501h-4.421v.92c0,.22-.019.24-.22.24h-1.7c-.2,0-.221-.02-.221-.24,0-.12.04-.72.04-3.921v-2.06c0-2.04-.04-2.681-.04-2.801,0-.2.02-.22.221-.22.14,0,.8.04,2.721.04h3.62v-1.34ZM195.637,125.519h4.421v-4.161h-4.421v4.161ZM202.198,121.358v4.161h4.682v-4.161h-4.682Z"/><polygon class="cls-5" points="0 0 125 0 101.191 35 0 35 0 0"/><path class="cls-1" d="M34.533,21.92c1.041.88,2.465,1.345,4.945,1.345,2.386,0,4.034-.064,6.083-.304-.224.368-.384.752-.448,1.168q-.111.528-.607.544c-1.602.112-2.979.16-5.043.16-1.969,0-4.065-.24-5.475-1.473-.111-.096-.224-.176-.319-.288-.464.624-1.024,1.2-1.681,1.777-.176.144-.273.224-.353.224-.096,0-.159-.112-.288-.32-.24-.416-.527-.736-.832-.993.848-.624,1.537-1.248,2.08-1.953-.463-.672-.88-1.473-1.248-2.449-.111-.256-.111-.304.096-.416l.785-.416c.271-.144.287-.08.4.192.224.704.48,1.28.768,1.777.4-.848.672-1.857.832-3.089h-1.376l-.257.384c-.064.096-.111.144-.191.144-.112,0-.288-.08-.672-.256-.48-.224-.641-.288-.641-.384,0-.048.031-.112.096-.192,1.057-1.472,1.825-2.865,2.449-4.194h-1.057c-1.04,0-1.36.032-1.457.032-.159,0-.176-.016-.176-.176v-1.185c0-.176.017-.192.176-.192.097,0,.417.032,1.457.032h1.745c.159,0,.288-.016.353-.032.064-.016.127-.048.191-.048.096,0,.208.064.528.464.272.352.416.544.416.688s-.064.192-.159.272c-.177.096-.305.368-.434.592-.367.672-.848,1.601-1.456,2.625h.769c.16,0,.272-.016.368-.08.097-.048.128-.08.208-.08.128,0,.256.096.576.464.32.336.385.448.385.576s-.049.192-.177.32c-.112.128-.144.304-.192.56-.224,1.617-.607,2.945-1.248,4.114l.08.064ZM38.022,21.616c-1.52,0-2.049.032-2.145.032-.159,0-.176-.016-.176-.192v-.976c0-.176.017-.192.176-.192.097,0,.625.032,2.145.032h1.28v-.896h-.704c-1.44,0-1.952.032-2.049.032-.16,0-.176-.016-.176-.176v-.928c0-.16.016-.176.176-.176.097,0,.608.032,2.049.032h.704v-.896h-.864c-1.248,0-1.648.032-1.745.032-.16,0-.176-.016-.176-.176v-.896c0-.16.016-.176.176-.176.097,0,.497.032,1.745.032h.864v-.896h-1.44c-1.473,0-1.969.032-2.064.032-.16,0-.177-.016-.177-.192v-.944c0-.16.017-.176.177-.176.096,0,.592.032,2.064.032h1.44v-.88h-.592c-1.425,0-1.889.032-1.984.032-.16,0-.177-.016-.177-.176v-.928c0-.16.017-.176.177-.176.096,0,.559.032,1.984.032h.592c-.016-.56-.048-.928-.111-1.296.607.016,1.04.048,1.568.112.16.016.256.064.256.16s-.048.16-.096.256c-.064.112-.096.272-.096.768h.928c1.473,0,2.177-.032,2.273-.032.176,0,.191.016.191.176,0,.096-.031.576-.031,1.585v.368c.496,0,.992-.032,1.072-.032.16,0,.176.016.176.176v.96c0,.16-.016.176-.176.176-.08,0-.576-.016-1.072-.032v.384c0,1.008.031,1.473.031,1.553,0,.16-.016.176-.191.176-.097,0-.801-.032-2.273-.032h-.928v.896h1.344c1.441,0,1.938-.032,2.033-.032.176,0,.191.016.191.176v.928c0,.16-.016.176-.191.176-.096,0-.592-.032-2.033-.032h-1.344v.896h1.889c1.536,0,2.064-.032,2.16-.032.16,0,.176.016.176.192v.976c0,.176-.016.192-.176.192-.096,0-.624-.032-2.16-.032h-1.889c.016.704.031,1.04.031,1.104,0,.176-.016.192-.176.192h-1.217c-.176,0-.191-.016-.191-.192,0-.032.016-.4.016-1.104h-1.265ZM40.824,13.101v.88h1.872v-.88h-1.872ZM42.696,15.229h-1.872v.896h1.872v-.896Z"/><path class="cls-1" d="M47.74,15.005c0-.144.016-.176.16-.176-.065-.032-.16-.128-.289-.288-.24-.288-.527-.528-.767-.656.96-.816,1.6-1.633,2.064-2.593.112-.24.191-.448.272-.752.529.064,1.105.16,1.426.24.16.016.24.064.24.192,0,.096-.049.144-.145.224-.08.064-.16.16-.256.368-.049.112-.112.208-.16.304h1.76c1.346,0,1.762-.032,1.857-.032.16,0,.176.016.176.192v1.008c.416-.528.769-1.105,1.024-1.713.112-.256.192-.464.272-.784.512.064.912.128,1.297.224.176.032.24.064.24.176s-.049.16-.113.224c-.111.096-.144.176-.224.4l-.144.304h2.449c1.633,0,2.209-.032,2.305-.032.16,0,.176.016.176.192v.944c0,.16-.016.176-.176.176-.096,0-.672-.032-2.305-.032h-.305c.176.256.32.528.465.832.064.144.047.192-.16.24l-.993.208c-.224.048-.256.032-.319-.128-.129-.384-.32-.784-.545-1.152h-1.264c-.24.4-.545.784-.881,1.168-.16.176-.24.256-.32.256-.096,0-.191-.096-.4-.288-.256-.24-.464-.384-.721-.512.193-.192.369-.384.545-.592h-.08c-.096,0-.496-.032-1.713-.032.176.288.32.592.48.912.08.16.048.208-.16.24l-.992.192c-.24.048-.289.048-.336-.128-.112-.4-.289-.832-.48-1.216h-1.137c-.336.512-.721.992-1.233,1.457-.145.144-.24.224-.32.256.176.016.576.032,1.457.032h1.713c1.088,0,1.44-.032,1.536-.032.16,0,.177.016.177.176v.944c0,.16-.017.176-.177.176-.097,0-.448-.032-1.536-.032h-.08v1.424c.576-.128,1.184-.288,1.84-.48-.064.256-.111.512-.127.784q-.017.528-.513.64c-1.312.384-2.449.656-3.698.928-.256.064-.432.128-.527.192-.096.064-.176.096-.272.096-.096,0-.176-.064-.224-.208-.16-.416-.289-.88-.385-1.312.528-.048.961-.096,1.505-.192l.929-.144v-1.729h-.16c-1.104,0-1.442.032-1.537.032-.176,0-.191-.016-.191-.176v-.944ZM56.031,16.654c.08-.064.128-.096.176-.096.049,0,.08.032.16.096.448.384.928.864,1.328,1.361.113.144.097.176-.08.32l-.64.496c-.08.064-.128.096-.177.096-.031,0-.063-.032-.127-.112-.416-.576-.816-1.025-1.281-1.409-.048-.032-.096-.064-.111-.128-.177.816-.576,1.409-1.217,1.889.305.016.592.048.897.08.144.016.224.096.224.192s-.032.16-.08.288c-.032.112-.063.224-.063.512h3.985c1.456,0,1.952-.032,2.049-.032.16,0,.176.016.176.16v1.04c0,.16-.016.176-.176.176-.097,0-.593-.032-2.049-.032h-2.673c1.328.944,3.009,1.537,5.395,1.985-.24.304-.465.672-.641,1.024-.24.464-.24.448-.721.32-2.129-.592-4.018-1.537-5.378-2.753,0,1.617.064,2.705.064,2.977,0,.16-.016.176-.176.176h-1.377c-.144,0-.16-.016-.16-.176,0-.272.049-1.28.064-2.929-1.377,1.28-3.137,2.161-5.17,2.737q-.496.128-.736-.336c-.176-.336-.416-.704-.624-.912,2.305-.48,3.841-1.072,5.186-2.113h-2.498c-1.456,0-1.952.032-2.049.032-.16,0-.176-.016-.176-.176v-1.04c0-.144.016-.16.176-.16.097,0,.593.032,2.049.032h3.811c0-.224,0-.432-.033-.672-.08-.016-.16-.112-.319-.272-.272-.288-.497-.464-.816-.608,1.456-.736,1.776-1.345,1.776-3.217,0-.352-.031-.56-.031-.672,0-.16.016-.176.176-.176.111,0,.447.032,1.568.032h1.809c1.137,0,1.488-.032,1.602-.032.159,0,.176.016.176.176,0,.112-.032.464-.032,1.2v1.425c0,.352,0,.512.079.576.113.096.193.096.417.096.256,0,.384-.064.513-.224.096-.128.144-.416.16-1.393.224.144.463.256.815.368.417.144.4.16.368.56-.065.816-.176,1.296-.496,1.617-.305.272-.801.384-1.553.384-.672,0-1.008-.032-1.297-.208-.256-.16-.432-.48-.432-1.008v-2.321h-2.417c-.017.544-.048.944-.128,1.36.031-.032.048-.048.128-.112l.608-.464Z"/><path class="cls-1" d="M68.865,12.636c0-.896-.031-1.473-.127-2.049.592.016,1.232.048,1.775.112.145.016.273.08.273.192s-.033.224-.08.32c-.08.192-.129.544-.129,1.297v1.2h3.105c1.537,0,2.064-.032,2.177-.032.16,0,.177.016.177.176,0,.096-.033.592-.033,1.985v1.857c0,2.561.033,3.025.033,3.121,0,.16-.017.176-.177.176h-1.36c-.16,0-.176-.016-.176-.176v-.672h-3.746v1.969c0,1.905.032,2.881.032,2.961,0,.16-.017.176-.177.176h-1.424c-.16,0-.176-.016-.176-.176,0-.096.031-1.04.031-2.929v-2.001h-3.537v.736c0,.176-.016.192-.176.192h-1.361c-.16,0-.176-.016-.176-.192,0-.096.032-.576.032-3.137v-1.649c0-1.633-.032-2.145-.032-2.241,0-.16.016-.176.176-.176.113,0,.641.032,2.178.032h2.896v-1.072ZM65.328,18.591h3.537v-3.329h-3.537v3.329ZM70.578,15.261v3.329h3.746v-3.329h-3.746Z"/></g></svg>