<svg id="レイヤー_1" data-name="レイヤー 1" xmlns="http://www.w3.org/2000/svg" viewBox="0 0 380 150"><defs><style>.cls-1{fill:#e6f9f1;}.cls-2{fill:#06c775;}.cls-3{fill:#fff;}.cls-4{fill:#727171;}.cls-5{fill:#231815;}.cls-6{fill:#e50012;}</style></defs><rect class="cls-1" x="1.5" y="1.5" width="377" height="147" rx="13.5"/><path class="cls-2" d="M365,3a12.013,12.013,0,0,1,12,12V135a12.013,12.013,0,0,1-12,12H15A12.013,12.013,0,0,1,3,135V15A12.013,12.013,0,0,1,15,3H365m0-3H15A15.044,15.044,0,0,0,0,15V135a15.044,15.044,0,0,0,15,15H365a15.044,15.044,0,0,0,15-15V15A15.044,15.044,0,0,0,365,0Z"/><path class="cls-3" d="M35.1,111.1a4,4,0,0,1-2.427-2.819.5.5,0,0,0-.484-.374H24.574a9.511,9.511,0,0,1-9.5-9.5v-3.9a9.511,9.511,0,0,1,9.5-9.5H241.733a9.511,9.511,0,0,1,9.5,9.5v3.9a9.511,9.511,0,0,1-9.5,9.5H35.229a.5.5,0,0,0-.5.457A7.667,7.667,0,0,0,35.1,111.1Z"/><path class="cls-4" d="M241.733,85.509a9.01,9.01,0,0,1,9,9v3.9a9.01,9.01,0,0,1-9,9H35.229a1,1,0,0,0-1,.914,6.727,6.727,0,0,0,.105,1.758,3.545,3.545,0,0,1-1.183-1.923,1,1,0,0,0-.968-.749H24.574a9.01,9.01,0,0,1-9-9v-3.9a9.01,9.01,0,0,1,9-9H241.733m0-1H24.574a10.029,10.029,0,0,0-10,10v3.9a10.029,10.029,0,0,0,10,10h7.613a4.633,4.633,0,0,0,3.721,3.477,8.531,8.531,0,0,1-.679-3.477h206.5a10.029,10.029,0,0,0,10-10v-3.9a10.029,10.029,0,0,0-10-10Z"/><path class="cls-3" d="M340.807,138.766a7.642,7.642,0,0,0,.367-2.736.5.5,0,0,0-.5-.457h-178.6a9.511,9.511,0,0,1-9.5-9.5v-3.9a9.511,9.511,0,0,1,9.5-9.5H351.331a9.511,9.511,0,0,1,9.5,9.5v3.9a9.511,9.511,0,0,1-9.5,9.5h-7.613a.5.5,0,0,0-.484.375A4,4,0,0,1,340.807,138.766Z"/><path class="cls-4" d="M351.331,113.174a9.011,9.011,0,0,1,9,9v3.9a9.011,9.011,0,0,1-9,9h-7.613a1,1,0,0,0-.968.748,3.545,3.545,0,0,1-1.183,1.923,6.812,6.812,0,0,0,.106-1.758,1,1,0,0,0-1-.913h-178.6a9.011,9.011,0,0,1-9-9v-3.9a9.011,9.011,0,0,1,9-9H351.331m0-1H162.078a10.029,10.029,0,0,0-10,10v3.9a10.029,10.029,0,0,0,10,10h178.6A8.529,8.529,0,0,1,340,139.55a4.633,4.633,0,0,0,3.721-3.476h7.613a10.029,10.029,0,0,0,10-10v-3.9a10.029,10.029,0,0,0-10-10Z"/><path class="cls-2" d="M0,39V14.921A15,15,0,0,1,15,0H365a15,15,0,0,1,15,14.921V39"/><path class="cls-3" d="M46.4,22.035c-1.134.954-1.639,1.711-1.639,2.485,0,1.17,1.315,1.674,4.358,1.674a18.544,18.544,0,0,0,5.653-.774l.2,2.467a7.549,7.549,0,0,0-.793.072,29.057,29.057,0,0,1-4.861.414,12.885,12.885,0,0,1-4.5-.594,3.11,3.11,0,0,1-2.3-3.007c0-1.387.7-2.575,2.322-3.925Zm-2.737-7.4a23.618,23.618,0,0,0,5.4.45,22.332,22.332,0,0,0,4.754-.342l.072,2.034a32.705,32.705,0,0,0-4.808,2.971l-1.566-1.242c1.134-.72,1.333-.846,1.783-1.1.18-.108.234-.144.468-.288a3.256,3.256,0,0,0,.4-.216,19.347,19.347,0,0,1-2.7.144,28.4,28.4,0,0,1-3.3-.217c-.216-.018-.342-.036-.414-.036-.036,0-.126-.018-.252-.018Zm9.507,4a11.706,11.706,0,0,1,1.891,2.647l-1.261.666a12.155,12.155,0,0,0-1.89-2.683Zm2.791,2.178a13.308,13.308,0,0,0-1.837-2.61l1.207-.63a10.409,10.409,0,0,1,1.872,2.538Z"/><path class="cls-3" d="M73.594,15.571A10.408,10.408,0,0,0,74.98,15.5v1.765a7.927,7.927,0,0,0-1.368-.09H72.423v1.548c.379-.018.432-.018.739-.054a18.342,18.342,0,0,0-.09,2.431v3.673a13.41,13.41,0,0,0,.09,2.052,18.034,18.034,0,0,0-1.927-.072h-1.3a12.9,12.9,0,0,0,5.185,1.279,6.9,6.9,0,0,0-.918,1.836,14.959,14.959,0,0,1-5.978-2.052l1.458-1.063H64.051l1.458,1.135a15.393,15.393,0,0,1-5.887,1.962,7.187,7.187,0,0,0-.973-1.818c2.737-.288,3.673-.522,5.042-1.279H62.646a18.844,18.844,0,0,0-1.944.072,16,16,0,0,0,.09-2.124V21.081c0-.864,0-1.117-.036-1.747a5.465,5.465,0,0,1-.864,1.279A9.33,9.33,0,0,0,58.4,19.082c1.043-1.062,1.44-2.3,1.44-4.645a7.063,7.063,0,0,0-.072-.829h.306c.18.018.324.018.36.018a22.035,22.035,0,0,0,3.331-.306,8.167,8.167,0,0,0,1.8-.54l1.1,1.513a19.127,19.127,0,0,1-4.97.738,4.73,4.73,0,0,1-.018.54h3.583a8.538,8.538,0,0,0,1.315-.072v1.747a9.1,9.1,0,0,0-1.279-.072h-.468V18.74h2.287A6.487,6.487,0,0,0,66.248,18a5.591,5.591,0,0,0,1.044-3.763,3.926,3.926,0,0,0-.054-.648,3.872,3.872,0,0,0,.558.035c.594,0,2.251-.125,2.953-.216a13.268,13.268,0,0,0,2.521-.594l1.152,1.513a27.573,27.573,0,0,1-5.276.684c-.018.27-.018.414-.036.558ZM63.024,18.74V17.174H61.512a5.928,5.928,0,0,1-.468,1.53c.594.036.9.036,1.549.036ZM62.7,21.009h8.462v-.775H62.7Zm0,2.088h8.462v-.756H62.7Zm0,2.125h8.462v-.774H62.7Zm6.157-8.048a6.471,6.471,0,0,1-.63,1.566h2.377V17.174Z"/><path class="cls-3" d="M78.959,27.383a15.439,15.439,0,0,0,.108,2.214H76.96a15.932,15.932,0,0,0,.108-2.232V15.571A20.179,20.179,0,0,0,77,13.537a16.856,16.856,0,0,0,1.836.071H82.02a15.239,15.239,0,0,0,1.836-.071c-.035.576-.053.99-.053,1.692V18.2c0,.81.018,1.224.053,1.62-.432-.036-1.062-.054-1.656-.054H78.959Zm0-11.362h3.079v-.936H78.959Zm0,2.341h3.079v-.954H78.959Zm9.111,7.13a11.271,11.271,0,0,0,.054,1.224c-.378-.036-.756-.054-1.278-.054H82.83v1.207H80.922a16.062,16.062,0,0,0,.09-1.747V22.269c0-.486-.018-.882-.054-1.26.4.036.81.054,1.332.054h4.447c.559,0,1.009-.018,1.387-.054a11.876,11.876,0,0,0-.054,1.242Zm-5.24-.468h3.422V22.665H82.83Zm9.291,2.359c0,.99-.162,1.458-.63,1.746a3.67,3.67,0,0,1-1.89.288c-.288,0-.487,0-1.675-.072a6.3,6.3,0,0,0-.5-1.909,20.779,20.779,0,0,0,2.214.163c.505,0,.594-.072.594-.468V19.766H86.755c-.594,0-1.242.018-1.638.054.018-.486.036-.846.036-1.62V15.229c0-.684-.018-1.17-.054-1.692a16.24,16.24,0,0,0,1.836.071h3.421a17.231,17.231,0,0,0,1.855-.071,15.85,15.85,0,0,0-.09,2.016ZM86.935,16.021h3.3v-.936h-3.3Zm0,2.341h3.3v-.954h-3.3Z"/><path class="cls-3" d="M95.51,28.859a6.569,6.569,0,0,0-.09-.7,34.158,34.158,0,0,1-.486-5.726,32.177,32.177,0,0,1,.342-4.771c.09-.54.09-.54.486-2.575a9.648,9.648,0,0,0,.2-1.333v-.071l2.431.252c-.739,1.566-1.423,5.905-1.441,9.038-.018.649-.018.649-.018.937V24.2a3.064,3.064,0,0,1-.018.378h.018c.091-.2.091-.2.216-.522.037-.127.126-.325.216-.613.162-.378.162-.378.343-.81a3.43,3.43,0,0,0,.216-.558l1.494.666a15.012,15.012,0,0,0-1.782,5.51,3.626,3.626,0,0,0,.035.486Zm4.069-11.794a12.926,12.926,0,0,0,3.259.289c.63,0,1.026,0,1.657-.036,0-1.063-.018-1.963-.018-2.7a5.034,5.034,0,0,0-.055-.865l2.251-.054a17.636,17.636,0,0,0-.126,2.647v.829a18.419,18.419,0,0,0,2.43-.432c.109-.036.109-.036.4-.145l.145-.036.071,2.035a3.11,3.11,0,0,0-.522.09c-.612.126-1.548.288-2.5.4v.4c0,1.009,0,1.045.18,4.069a14.383,14.383,0,0,1,2.827,1.639,3.425,3.425,0,0,0,.5.306l-.864,2.179a6.694,6.694,0,0,0-1.351-1.153c-.612-.4-1.026-.666-1.134-.738v.252a3.156,3.156,0,0,1-.144,1.009c-.414,1.062-1.674,1.692-3.421,1.692-2.358,0-3.8-1.116-3.8-2.953,0-1.746,1.531-2.971,3.709-2.971a4.284,4.284,0,0,1,1.6.252c-.054-.45-.073-1.332-.144-3.835-.721.018-1.153.036-1.621.036-.666,0-1.387-.018-2.233-.09-.252,0-.45-.018-.54-.018a2.68,2.68,0,0,0-.306-.018.827.827,0,0,0-.18-.018.317.317,0,0,0-.108.018Zm3.655,7.545c-1.152,0-1.872.45-1.872,1.188,0,.666.648,1.117,1.656,1.117a1.771,1.771,0,0,0,1.459-.559,1.511,1.511,0,0,0,.233-.972V24.9A3.768,3.768,0,0,0,103.234,24.61Z"/><path class="cls-3" d="M118.2,26.23a5.413,5.413,0,0,1-.143,1.531,1.583,1.583,0,0,1-1.658,1.044,5.611,5.611,0,0,1-3.4-1.278,2.647,2.647,0,0,1-.99-2.035,3.84,3.84,0,0,1,1.548-2.665,9.622,9.622,0,0,1,2.629-1.53l-.018-2.773c-.144,0-.144,0-.738.036-.271.018-.523.018-.973.018-.269,0-.774-.018-.99-.018-.235-.018-.4-.018-.45-.018a3.375,3.375,0,0,0-.378.018l-.018-2.017a11.025,11.025,0,0,0,2.178.163c.181,0,.379,0,.631-.018.431-.019.521-.019.72-.019V15.481a12.354,12.354,0,0,0-.108-2.071h2.25a11.091,11.091,0,0,0-.107,1.963v1.152a20.075,20.075,0,0,0,3.474-.684l.073,2.017c-.325.054-.667.108-1.91.324-.593.108-.954.162-1.637.234v2.341a12.445,12.445,0,0,1,3.672-.505c3.007,0,5.15,1.837,5.15,4.394a4,4,0,0,1-4.087,4.105,2.906,2.906,0,0,1-2.953-2,5.994,5.994,0,0,1-.306-2.3,7.561,7.561,0,0,0,2-.793,6.264,6.264,0,0,0-.036.793,3.468,3.468,0,0,0,.252,1.584,1.247,1.247,0,0,0,1.135.612,1.85,1.85,0,0,0,1.818-2c0-1.549-1.259-2.557-3.186-2.557a11.522,11.522,0,0,0-3.457.594Zm-2.034-2.9c-1.35.721-2.142,1.513-2.142,2.161,0,.306.179.576.593.828a2.17,2.17,0,0,0,1.153.4c.306,0,.4-.162.4-.756Zm9.975-3.637a15.414,15.414,0,0,0-3.6-3.889l1.692-1.134a15.239,15.239,0,0,1,3.565,3.691Z"/><path class="cls-3" d="M133.442,16.237a16.855,16.855,0,0,1-2.683,3.133,7.381,7.381,0,0,0-1.4-1.4,13.066,13.066,0,0,0,3.26-4.07,3.289,3.289,0,0,0,.4-1.134l2.161.324c-.162.307-.162.307-.631,1.261h8.3a14.594,14.594,0,0,0,2.251-.126v2.124a18.747,18.747,0,0,0-2.251-.108ZM139.474,29.2a39.7,39.7,0,0,0-3.133-2.773,22.031,22.031,0,0,1-5.2,3.241,6.935,6.935,0,0,0-1.351-1.692,20.107,20.107,0,0,0,4.987-2.737,31.615,31.615,0,0,0-3.132-2.052l1.314-1.207c1.315.756,1.908,1.134,3.187,2a6.574,6.574,0,0,0,1.566-2.3l1.927.918c-.18.2-.378.468-.775,1.009a14.582,14.582,0,0,1-1.17,1.494c1.1.864,2,1.6,3.133,2.611Zm-6.987-7.724a15.2,15.2,0,0,0-2.07.108V19.694a8.907,8.907,0,0,0,1.549.09h9.146a18.446,18.446,0,0,0,2.107-.072,12.18,12.18,0,0,0-.09,1.639,17.715,17.715,0,0,0,.5,4.627,2.32,2.32,0,0,0,.631,1.225,5.936,5.936,0,0,0,.431-2.665,5.388,5.388,0,0,0,1.549,1.08c-.288,2.827-.846,3.979-1.945,3.979-.81,0-1.729-.936-2.233-2.3a16.7,16.7,0,0,1-.828-5.815Zm.433-4.429a11.567,11.567,0,0,0,1.351.072h7.544a15.015,15.015,0,0,0,1.908-.091v1.783a13.433,13.433,0,0,0-1.908-.09H134.63a14.969,14.969,0,0,0-1.71.072Z"/><path class="cls-3" d="M152.569,27.941a11.01,11.01,0,0,0,.108,1.728h-1.945a12.458,12.458,0,0,0,.109-1.818v-.936h-1.423a8.846,8.846,0,0,0-1.692.108V25.2a10.534,10.534,0,0,0,1.692.09h1.423V24.232h-.793c-.792,0-1.206.018-1.836.054.054-.612.071-1.207.071-2.071V19.37a19.113,19.113,0,0,0-.071-1.944c.5.036.918.054,1.836.054h.793V16.345h-1.333a15.245,15.245,0,0,0-1.693.072V14.635a8.542,8.542,0,0,0,1.693.108h1.333a8.615,8.615,0,0,0-.109-1.711h1.945a7.9,7.9,0,0,0-.108,1.711h.774a8.644,8.644,0,0,0,1.693-.108v1.782a13.5,13.5,0,0,0-1.693-.072h-.774V17.48h.991c.881,0,1.206-.018,1.637-.054-.035.468-.053.81-.053,1.836V20.27a12.793,12.793,0,0,0,3.169-1.6,10.971,10.971,0,0,1-2.071-3.079,7.088,7.088,0,0,0-.792.054V13.735a11.488,11.488,0,0,0,1.819.107h4a6.093,6.093,0,0,0,1.332-.09l1.081,1.135c-.145.234-.253.378-.45.7a13.912,13.912,0,0,1-2.341,3.1,10.822,10.822,0,0,0,3.564,1.494,5.814,5.814,0,0,0-1.008,1.711,13.987,13.987,0,0,1-3.853-2.035,15.909,15.909,0,0,1-3.565,2.071,4.416,4.416,0,0,0-.882-1.368v1.728c0,.882.018,1.5.053,2-.45-.036-.792-.054-1.674-.054h-.954v1.062h1.512a9.015,9.015,0,0,0,1.44-.072v1.8a7.624,7.624,0,0,0-1.511-.108h-1.441Zm-2.754-8.967v1.152h1.08V18.974Zm0,2.467v1.278h1.08V21.441Zm3.834-1.315V18.974h-1.134v1.152Zm0,2.593V21.441h-1.134v1.278Zm8.427.45a8.4,8.4,0,0,0,1.567-.09v1.909a10.293,10.293,0,0,0-1.6-.09h-1.675v2.431h2.017a15.4,15.4,0,0,0,1.8-.091V29.2a10.14,10.14,0,0,0-1.8-.108h-5.87a10.442,10.442,0,0,0-1.836.108V27.238a11.31,11.31,0,0,0,1.728.091h2.089V24.9h-1.152a11,11,0,0,0-1.675.09V23.079a10.518,10.518,0,0,0,1.71.09h1.117v-.45a10.361,10.361,0,0,0-.091-1.728h2.053a10.363,10.363,0,0,0-.09,1.728v.45Zm-4.016-7.6a8.19,8.19,0,0,0,1.513,2.071,6.619,6.619,0,0,0,1.548-2.071Z"/><path class="cls-3" d="M166.956,28.751c-.018-.324-.036-.432-.091-.846a31.41,31.41,0,0,1-.467-5.384,34.5,34.5,0,0,1,.738-7.04,11.58,11.58,0,0,0,.269-1.674l2.377.252a24.889,24.889,0,0,0-1.134,5.383,30.081,30.081,0,0,0-.27,3.979c0,.4-.018.541-.036.991a18.345,18.345,0,0,1,.936-2.377l1.441.648a14.79,14.79,0,0,0-1.6,5.456c0,.108,0,.252.018.486Zm7.67-7.112a4.072,4.072,0,0,0-1.278,2.593c0,1.026.99,1.566,2.862,1.566a12.662,12.662,0,0,0,4.286-.684l.18,2.287a5.824,5.824,0,0,0-.738.108,22.228,22.228,0,0,1-3.728.342c-2.233,0-3.673-.5-4.465-1.567a3.015,3.015,0,0,1-.54-1.764,5.885,5.885,0,0,1,1.656-3.71Zm-2.971-5.96a12.987,12.987,0,0,0,3.331.288,19.873,19.873,0,0,0,4.9-.486l.107,2.179c-.143.018-.414.054-1.278.162a32.271,32.271,0,0,1-3.853.216,21.38,21.38,0,0,1-3.241-.2Z"/><path class="cls-3" d="M184.089,24.07a21.049,21.049,0,0,1,4.051,3.961L186.465,29.6a19.408,19.408,0,0,0-3.907-4.105Z"/><path class="cls-3" d="M205.534,28.535a17.474,17.474,0,0,0-2.556-.126h-5.33c-1.008,0-1.638.018-2.287.054a14.164,14.164,0,0,0,.145-2.377V16.742a17.405,17.405,0,0,0-.145-2.665h2.719a16.413,16.413,0,0,0-.144,2.646V26.23h5.042a19,19,0,0,0,2.556-.126Z"/><path class="cls-3" d="M209.746,14.077A13.448,13.448,0,0,0,209.6,16.4v9.687a13.594,13.594,0,0,0,.144,2.323h-2.737a13.594,13.594,0,0,0,.144-2.323V16.4a13.448,13.448,0,0,0-.144-2.322Z"/><path class="cls-3" d="M221.53,28.409a17.867,17.867,0,0,0-1.152-1.927l-4.646-7c-.341-.54-.792-1.314-1.224-2.16.018.252.018.252.072.918.019.342.054,1.152.054,1.566v5.906a20.1,20.1,0,0,0,.144,2.7h-2.629a19.446,19.446,0,0,0,.145-2.719V16.4a14.862,14.862,0,0,0-.145-2.322h2.809a9.837,9.837,0,0,0,1.1,1.908l4.555,6.86c.432.648,1.008,1.585,1.405,2.3-.073-.7-.126-1.783-.126-2.539v-6.05a15.72,15.72,0,0,0-.145-2.484h2.629a15.737,15.737,0,0,0-.144,2.484v9.525a13.587,13.587,0,0,0,.144,2.323Z"/><path class="cls-3" d="M237.049,28.535a15.5,15.5,0,0,0-2.323-.126h-5.618c-1.081,0-1.566.018-2.287.054a14.447,14.447,0,0,0,.145-2.377V16.345a15.782,15.782,0,0,0-.145-2.322c.721.036,1.189.054,2.287.054h5.438a19.232,19.232,0,0,0,2.322-.126v2.376a16.111,16.111,0,0,0-2.322-.126H229.36V19.91h4.375a18.74,18.74,0,0,0,2.341-.126v2.359a14.111,14.111,0,0,0-2.341-.126h-4.393v4.249h5.4a17.24,17.24,0,0,0,2.305-.126Z"/><path class="cls-3" d="M245.543,13.663a4.188,4.188,0,0,0-.144.558c-.036.234-.053.324-.108.612-.054.378-.054.378-.306,1.728-.072.4-.072.433-.126.666.523-.035.775-.053,1.117-.053a3.491,3.491,0,0,1,2.665.954c.612.684.845,1.548.845,3.187,0,3.1-.521,5.563-1.385,6.554a2.283,2.283,0,0,1-2,.81,8.733,8.733,0,0,1-2.773-.522c.018-.36.035-.612.035-.792a6.752,6.752,0,0,0-.179-1.531,7.451,7.451,0,0,0,2.629.7c.522,0,.81-.342,1.08-1.224a16,16,0,0,0,.468-4.105c0-1.657-.414-2.143-1.837-2.143-.36,0-.629.018-1.044.054a38.3,38.3,0,0,1-1.1,3.907,38.5,38.5,0,0,1-2.161,5.06l-.27.54c-.054.108-.054.126-.144.306l-2.088-1.152a19.748,19.748,0,0,0,1.872-3.385,30.649,30.649,0,0,0,1.747-5.1,32.319,32.319,0,0,0-3.224.576L238.9,17.75c.666,0,2.845-.216,3.835-.36a27.6,27.6,0,0,0,.469-3.638V13.41Zm5.96,2.3a17.464,17.464,0,0,1,3.709,7.022l-2.053,1.045a16.231,16.231,0,0,0-1.439-4.088,11.676,11.676,0,0,0-2.072-3.079Z"/><path class="cls-3" d="M260.8,17.029a38.135,38.135,0,0,0-.81,4.43c-.036.252-.036.252-.091.522l.037.036a8.537,8.537,0,0,1,5.456-1.71c3.06,0,5.077,1.512,5.077,3.816a4.385,4.385,0,0,1-1.855,3.476,7.779,7.779,0,0,1-4.753,1.224,16.553,16.553,0,0,1-4.591-.63A7.958,7.958,0,0,0,259,25.87a14.542,14.542,0,0,0,4.844.9c2.539,0,4.3-1.062,4.3-2.592,0-1.207-1.135-1.927-3.043-1.927a8.2,8.2,0,0,0-4.484,1.314,3.929,3.929,0,0,0-.81.775l-2.269-.072c.054-.324.054-.4.145-1.08.143-1.117.431-3.116.756-5.24a7.494,7.494,0,0,0,.108-1.044Zm.234-3.528a27.018,27.018,0,0,0,6.716,2l-.738,2.071a32.634,32.634,0,0,1-7.022-2.251Z"/><path class="cls-3" d="M271.706,15.625c.4.018.595.018.685.018.324,0,.324,0,2.97-.18,1.315-.072,4.394-.234,9.2-.468a9.7,9.7,0,0,0,1.854-.144l.126,2.287a2.787,2.787,0,0,0-.378-.018,8.05,8.05,0,0,0-3.565.972c-2.286,1.188-3.637,2.989-3.637,4.807a3.023,3.023,0,0,0,2.394,2.935,10.93,10.93,0,0,0,2.683.468c.018,0,.18,0,.36-.018l-.324,2.449c-.234-.054-.27-.054-.612-.108a10.81,10.81,0,0,1-4.213-1.189,4.814,4.814,0,0,1-2.575-4.339,6.267,6.267,0,0,1,1.711-4.231,7.942,7.942,0,0,1,2.5-1.818c-1.459.216-2.575.324-6.069.576a22.639,22.639,0,0,0-2.989.36Zm12.406,3.457A11.675,11.675,0,0,1,286,21.729l-1.261.666a12.179,12.179,0,0,0-1.89-2.683Zm2.791,2.179a13.244,13.244,0,0,0-1.837-2.611l1.206-.63a10.4,10.4,0,0,1,1.874,2.539Z"/><path class="cls-3" d="M290.1,20.342a11.8,11.8,0,0,0,3.169.685c.072-.649.234-1.855.324-2.521a23.526,23.526,0,0,1-2.574-.45c-.253-.054-.343-.072-.613-.126l.18-1.981a13.668,13.668,0,0,0,3.259.648,21.179,21.179,0,0,0,.36-2.989.792.792,0,0,0-.017-.18l2.394.216a14.652,14.652,0,0,0-.576,3.044,17.936,17.936,0,0,0,4.105-.379l-.072,2.107c-.234.018-.324.036-.721.072-1.3.108-1.872.144-2.52.144-.18,0-.342,0-1.116-.018-.18,1.314-.235,1.675-.342,2.539.54.018.683.018.882.018a14.343,14.343,0,0,0,3.439-.361l-.055,2.071a2.322,2.322,0,0,0-.54.054,26.215,26.215,0,0,1-2.7.162c-.288,0-.45,0-1.152-.036a12.528,12.528,0,0,0-.091,1.279,2.248,2.248,0,0,0,.667,1.854,3.275,3.275,0,0,0,2.232.666c2.287,0,3.6-1.008,3.6-2.772A4.192,4.192,0,0,0,300,21.045a6.646,6.646,0,0,0,2.232-.45,6.936,6.936,0,0,1,.847,1.134,5.6,5.6,0,0,1,.774,2.647,4.286,4.286,0,0,1-1.728,3.367,6.47,6.47,0,0,1-4.069,1.188c-3.278,0-5.06-1.566-5.06-4.465a12.309,12.309,0,0,1,.09-1.531c-1.08-.144-1.782-.252-2.5-.414a3.049,3.049,0,0,0-.684-.108Z"/><path class="cls-3" d="M317.427,15.589a7.768,7.768,0,0,1,2.017,5.618c0,4.555-2.647,7.508-6.734,7.508s-6.716-2.935-6.716-7.508a7.706,7.706,0,0,1,2.053-5.618,6.239,6.239,0,0,1,4.644-1.8A6.31,6.31,0,0,1,317.427,15.589Zm-.5,5.618a5.819,5.819,0,0,0-1.422-4.2,3.875,3.875,0,0,0-2.773-1.1c-2.593,0-4.231,2.053-4.231,5.312a5.949,5.949,0,0,0,1.458,4.249,3.887,3.887,0,0,0,2.791,1.1C315.32,26.572,316.923,24.52,316.923,21.207Z"/><path class="cls-3" d="M332.147,26.122a24.677,24.677,0,0,0,1.8,2.287h-3.331a16.859,16.859,0,0,0-1.134-1.891L325.9,21.477l-1.962,1.962v2.647a12.213,12.213,0,0,0,.162,2.323h-2.665a15.456,15.456,0,0,0,.144-2.323V16.4a14.846,14.846,0,0,0-.144-2.322H324.1a12.8,12.8,0,0,0-.162,2.322v4.2l4.59-4.772a8.879,8.879,0,0,0,1.406-1.746h3.4c-.521.522-1.116,1.1-1.908,1.908l-3.854,3.943Z"/><path class="cls-3" d="M335.978,24.466c.017-.378.035-.558.035-.775,0-.2,0-.2-.054-1.3l-.252-6.122c-.036-.792-.09-1.692-.162-2.2H338.5c-.054.486-.126,1.422-.162,2.2l-.252,6.122c-.036,1.062-.036,1.062-.036,1.314a6.444,6.444,0,0,0,.036.757Zm-.253,3.943V25.942h2.611v2.467Z"/><path class="cls-3" d="M29.144,63.681H22.909V62.087h6.235ZM19.5,58.068v1.423h9.649v1.288H21.135v7.052h6.617a23.081,23.081,0,0,1-8.529,4.364l1.089,1.478A23.188,23.188,0,0,0,29.144,68.5v5.539h1.84V68.479a24.821,24.821,0,0,0,8.877,5.176l1.069-1.477a22.868,22.868,0,0,1-8.557-4.347h6.713V60.779h-8.1V59.491h9.671V58.068H30.984V56.436h-1.84v1.632Zm9.649,8.477H22.909V64.914h6.235Zm8.19-2.864h-6.35V62.087h6.35Zm0,2.864h-6.35V64.914h6.35Z"/><path class="cls-3" d="M70.051,74.073H68.206V64.195A11.586,11.586,0,0,1,66.3,66.189L65.339,64.4a16.221,16.221,0,0,0,4.667-8l1.865.267a17.576,17.576,0,0,1-1.82,4.7ZM80.519,59.981a23.778,23.778,0,0,0-4.485-2.407l1.139-1.252a18.216,18.216,0,0,1,4.509,2.314Zm5.825,1.747H80.156v4.095h5.349v1.462H80.156v4.683h6.689V73.45H71.44V71.968h6.805V67.285H72.761V65.823h5.484V61.728H71.962V60.247H86.344Z"/><path class="cls-3" d="M106.549,63.148h-3.871V61.689h3.871Zm-3.871-6.692H100.9V57.69H96.217v1.29H100.9v1.436H94.716v1.273H100.9v1.459H96.217V64.4H100.9V65.73H95.492V67H100.9v1.462H94.716V69.75H100.9v1.743h1.774V69.75h6.944V68.461h-6.944V67h6.1V65.73h-6.1V64.4h5.58V61.689h1.478V60.416h-1.478V57.69h-5.58Zm-2.615,15.685a20.239,20.239,0,0,1-2.116-.117,9.916,9.916,0,0,1-4.962-1.972,19.382,19.382,0,0,0,1.432-6.9H90.71A21.1,21.1,0,0,0,94.4,58.6V57.215H88.662v1.421h3.686a22.4,22.4,0,0,1-3.62,4.324v1.574H92.69a14.331,14.331,0,0,1-.844,4.06,10.472,10.472,0,0,1-1.114-3.059l-1.59.328A10.569,10.569,0,0,0,91.1,70.071a9.6,9.6,0,0,1-2.618,2.617l1.114,1.385A9.737,9.737,0,0,0,92.281,71.3a11.831,11.831,0,0,0,7.509,2.276h9.761l.39-1.46Zm6.486-11.725h-3.871V58.98h3.871Z"/><path class="cls-3" d="M46.979,62.434a23.048,23.048,0,0,0-.659-2.924h3.961a16.718,16.718,0,0,1-.687,2.924Zm5.555,7.243a13.067,13.067,0,0,1-3.1-2.485h3.717V65.807h-3.94V63.816h4.342V62.434h-2.3a27.01,27.01,0,0,0,.729-2.924h1.256V58.128h-4.03V56.436H47.46v1.692H42.975V59.51h1.662a17.77,17.77,0,0,1,.679,2.924h-2.73v1.382H47.46v1.991H42.791v1.385h4.328a16.7,16.7,0,0,1-4.966,3.985l.98,1.382a20.579,20.579,0,0,0,4.327-3.722V74.11h1.751V68.766a16.3,16.3,0,0,0,2.319,2.239Zm1.889-10.55v5.749a14.89,14.89,0,0,1-.708,4.669,8.7,8.7,0,0,1-2.321,3.5l1.686,1.008c1-1.065,3.163-3.4,3.163-9.162v-.967H59.2V74.11h1.891V63.929h2.436v-1.44H56.243v-3.36Z"/><polygon class="cls-3" points="54.799 60.453 64.296 57.833 59.432 56.436 60.285 57.502 54.429 59.127 54.799 60.453"/><path class="cls-5" d="M29.144,63.681H22.909V62.087h6.235ZM19.5,58.068v1.423h9.649v1.288H21.135v7.052h6.617a23.081,23.081,0,0,1-8.529,4.364l1.089,1.478A23.188,23.188,0,0,0,29.144,68.5v5.539h1.84V68.479a24.821,24.821,0,0,0,8.877,5.176l1.069-1.477a22.868,22.868,0,0,1-8.557-4.347h6.713V60.779h-8.1V59.491h9.671V58.068H30.984V56.436h-1.84v1.632Zm9.649,8.477H22.909V64.914h6.235Zm8.19-2.864h-6.35V62.087h6.35Zm0,2.864h-6.35V64.914h6.35Z"/><path class="cls-5" d="M70.051,74.073H68.206V64.195A11.586,11.586,0,0,1,66.3,66.189L65.339,64.4a16.221,16.221,0,0,0,4.667-8l1.865.267a17.576,17.576,0,0,1-1.82,4.7ZM80.519,59.981a23.778,23.778,0,0,0-4.485-2.407l1.139-1.252a18.216,18.216,0,0,1,4.509,2.314Zm5.825,1.747H80.156v4.095h5.349v1.462H80.156v4.683h6.689V73.45H71.44V71.968h6.805V67.285H72.761V65.823h5.484V61.728H71.962V60.247H86.344Z"/><path class="cls-5" d="M106.549,63.148h-3.871V61.689h3.871Zm-3.871-6.692H100.9V57.69H96.217v1.29H100.9v1.436H94.716v1.273H100.9v1.459H96.217V64.4H100.9V65.73H95.492V67H100.9v1.462H94.716V69.75H100.9v1.743h1.774V69.75h6.944V68.461h-6.944V67h6.1V65.73h-6.1V64.4h5.58V61.689h1.478V60.416h-1.478V57.69h-5.58Zm-2.615,15.685a20.239,20.239,0,0,1-2.116-.117,9.916,9.916,0,0,1-4.962-1.972,19.382,19.382,0,0,0,1.432-6.9H90.71A21.1,21.1,0,0,0,94.4,58.6V57.215H88.662v1.421h3.686a22.4,22.4,0,0,1-3.62,4.324v1.574H92.69a14.331,14.331,0,0,1-.844,4.06,10.472,10.472,0,0,1-1.114-3.059l-1.59.328A10.569,10.569,0,0,0,91.1,70.071a9.6,9.6,0,0,1-2.618,2.617l1.114,1.385A9.737,9.737,0,0,0,92.281,71.3a11.831,11.831,0,0,0,7.509,2.276h9.761l.39-1.46Zm6.486-11.725h-3.871V58.98h3.871Z"/><path class="cls-6" d="M46.979,62.434a23.048,23.048,0,0,0-.659-2.924h3.961a16.718,16.718,0,0,1-.687,2.924Zm5.555,7.243a13.067,13.067,0,0,1-3.1-2.485h3.717V65.807h-3.94V63.816h4.342V62.434h-2.3a27.01,27.01,0,0,0,.729-2.924h1.256V58.128h-4.03V56.436H47.46v1.692H42.975V59.51h1.662a17.77,17.77,0,0,1,.679,2.924h-2.73v1.382H47.46v1.991H42.791v1.385h4.328a16.7,16.7,0,0,1-4.966,3.985l.98,1.382a20.579,20.579,0,0,0,4.327-3.722V74.11h1.751V68.766a16.3,16.3,0,0,0,2.319,2.239Zm1.889-10.55v5.749a14.89,14.89,0,0,1-.708,4.669,8.7,8.7,0,0,1-2.321,3.5l1.686,1.008c1-1.065,3.163-3.4,3.163-9.162v-.967H59.2V74.11h1.891V63.929h2.436v-1.44H56.243v-3.36Z"/><polygon class="cls-6" points="54.799 60.453 64.296 57.833 59.432 56.436 60.285 57.502 54.429 59.127 54.799 60.453"/><path class="cls-2" d="M131.777,50.9a27.744,27.744,0,0,1-8.908,12.873l-3.211-4.44a22.189,22.189,0,0,0,7.511-9.633Zm9.969,25.718c-.252-.587-.5-1.173-1.034-2.262-4.886.7-11.672.95-19.071,1.257L121,70.786c.224,0,.782.028,3.546.028a101.923,101.923,0,0,0,4.887-12.594l5,.922a91.859,91.859,0,0,1-4.859,11.56c4.272-.112,4.747-.139,8.851-.475a25.687,25.687,0,0,0-3.35-4.607l4.44-2.457A47.212,47.212,0,0,1,146.8,74.416Zm2.429-12.957a29.045,29.045,0,0,1-8.88-12.7l4.635-1.285a23.858,23.858,0,0,0,7.54,9.885Z"/><path class="cls-2" d="M149.313,71.177c.894,0,2.346,0,4.97-.224V64.7h-4.1V60.2h12.928V64.7H159V70.59c1.788-.167,3.575-.363,5.11-.614l.056,4.384c-3.462.642-4.551.754-14.38,1.7Zm24.21-17.536h2.513v4.5h-7.512c.168,2.569.475,7.819,1.676,10.7.084.2.726,1.759,1.452,1.759.921,0,2.625-1.926,3.379-3.63l1.508,5.417c-.754,1.48-2.151,4.245-4.943,4.245a4.863,4.863,0,0,1-3.239-1.34c-4.077-4.1-4.412-12.427-4.608-17.146H149.62v-4.5h13.962c0-.531-.112-3.1-.112-3.686h4.943v3.686h2.15a12.718,12.718,0,0,0-1.536-2.6l4.272-1.229a30.473,30.473,0,0,1,1.983,3.239Z"/><path class="cls-2" d="M185.735,50.547v19.76h8.407v5.274H179.965V50.547Z"/><path class="cls-2" d="M201.982,50.547V75.581h-5.8V50.547Z"/><path class="cls-2" d="M211.644,50.547l10.268,15.976V50.547h5.738V75.581h-6.111L211.271,59.605V75.581h-5.739V50.547Z"/><path class="cls-2" d="M246.7,60.1v5.15h-9.9v5.056H248v5.274H231.066V50.547H247.6V55.82H236.805V60.1Z"/><path class="cls-5" d="M32.281,100.251a10.331,10.331,0,0,1-1.224-1.415v3.371h-.923V98.9a11.409,11.409,0,0,1-2.291,2.327l-.5-.864a8.942,8.942,0,0,0,2.6-2.506H27.675v-.876h2.459v-1.26H27.555v-.863h1.439a9.445,9.445,0,0,0-.348-1.847h-.875v-.863h2.363V91.088h.923v1.056H33.18v.863h-.648c-.035.18-.227,1.283-.395,1.847h1.211v.863H31.057v1.26h2.075v.876H31.177A7.119,7.119,0,0,0,32.8,99.412Zm-1.02-5.4a12.467,12.467,0,0,0,.36-1.847h-2.1a14.95,14.95,0,0,1,.348,1.847Zm3.5.024h3.85v.912h-1.3v6.417h-.984V95.79H34.763V96.4c0,3.634-1.139,5.1-1.655,5.768l-.887-.635c.552-.661,1.571-1.883,1.571-5.146V91.94a10.5,10.5,0,0,0,4.2-.8l.5.924a12.38,12.38,0,0,1-3.73.768Z"/><path class="cls-5" d="M44.335,100.419a8.79,8.79,0,0,1-1.427-2.434,6.9,6.9,0,0,1-2.243,4.149l-.6-.863a6.277,6.277,0,0,0,2.075-4.486H40.221v-.9h1.991c.012-.275.024-.551.024-1.175v-.887H40.449v-.936h1.787v-1.8h.96v1.8h1.643v.936H43.2V94.7c0,.347,0,.779-.024,1.186h1.847v.9H43.28a7.4,7.4,0,0,0,1.811,2.963Zm6.489-2.171H49.289v2.7c0,.108,0,.3.323.3h.3a.313.313,0,0,0,.36-.276,7.627,7.627,0,0,0,.132-1.26l.9.2c-.095,2.051-.371,2.243-.983,2.243H49.156c-.563,0-.815-.228-.815-.8V98.248h-.864a4.587,4.587,0,0,1-3.25,3.959l-.576-.876c2.447-.78,2.807-2.231,2.927-3.083H45.426V91.46h5.4Zm-.948-5.936H46.362v1.163h3.514Zm0,1.954H46.362v1.14h3.514Zm0,1.932H46.362v1.2h3.514Z"/><path class="cls-5" d="M60.161,92.54l1.331,1.51a9.373,9.373,0,0,1-1.907,4.714,8.072,8.072,0,0,1-5.169,2.83l-.516-1.019c3.862-.576,5.973-2.674,6.5-6.992h-7.46V92.54Zm3.862-.325a1.667,1.667,0,1,1-1.667-1.667A1.663,1.663,0,0,1,64.023,92.215Zm-2.591,0a.924.924,0,1,0,.924-.923A.932.932,0,0,0,61.432,92.215Z"/><path class="cls-5" d="M74.752,92.444v8.587H65.9V92.444Zm-1.091,1.031H66.992V100h6.669Z"/><path class="cls-5" d="M80.743,97.025A15.256,15.256,0,0,0,77.3,95.6l.42-.948a14.443,14.443,0,0,1,3.465,1.355Zm-2.819,3.263c4.774-.468,6.789-2.28,8.108-6.441l.935.684c-1.559,4.449-3.885,6.3-8.778,6.931Zm3.79-6.093a16.055,16.055,0,0,0-3.49-1.392l.432-.911A16.191,16.191,0,0,1,82.17,93.2Zm3.166-3.359a10.045,10.045,0,0,1,1.1,2.328l-.839.419A9.7,9.7,0,0,0,84.1,91.232Zm2.016-.095a10.09,10.09,0,0,1,1.067,2.339l-.852.407A10.252,10.252,0,0,0,86.1,91.112Z"/><path class="cls-5" d="M93.906,100.143h3.61v.936H89.373v-.936H92.9v-4.7H89.864v-.96h7.148v.96H93.906Z"/><path class="cls-5" d="M100.634,100.707c2.411-.528,6.525-1.919,7.328-7.543h-4.257a10.4,10.4,0,0,1-3.142,3.273l-.684-.815a8.991,8.991,0,0,0,3.106-3.455h6.237c-.528,6.081-3.922,8.612-8.132,9.559Z"/><path class="cls-5" d="M119.434,98.248a26.648,26.648,0,0,0-5.289-2.566v6.057h-1.164V91.484h1.164v3.07A32.9,32.9,0,0,1,120,97.133Z"/><path class="cls-5" d="M125.689,101.823a54.591,54.591,0,0,0-1.476-6.249,19.538,19.538,0,0,0-2.039.876l-.4-1.1c.348-.108,1.835-.636,2.146-.744-.479-1.511-.527-1.679-.815-2.41l1.1-.3c.156.455.216.648.732,2.362.108-.036,1.223-.419,2.434-.756a11.957,11.957,0,0,0-.971-1.606l.936-.384a9.263,9.263,0,0,1,1.091,1.751,6.234,6.234,0,0,1,.983-.084,2.6,2.6,0,0,1,2.687,2.651c0,1.726-1.367,2.722-3.107,2.722a4.9,4.9,0,0,1-1.774-.336l.12-1.019a4.011,4.011,0,0,0,1.595.324,1.86,1.86,0,0,0,2.075-1.764,1.591,1.591,0,0,0-1.74-1.619,14.192,14.192,0,0,0-4.053,1.056c.468,1.595.588,2.075,1.667,6.356Z"/><path class="cls-5" d="M137.952,95.562a8.37,8.37,0,0,1,1.5-.145,5.048,5.048,0,0,1,2.974.745,2.95,2.95,0,0,1,1.175,2.41,2.755,2.755,0,0,1-2.135,2.722,7.293,7.293,0,0,1-2.134.289l-.18-1c1.067-.012,3.286-.06,3.286-2.05,0-.756-.408-2.171-2.855-2.171a8.88,8.88,0,0,0-1.631.143v3.67c0,.564-.2,1.2-1.5,1.2a2.381,2.381,0,0,1-2.65-2.35c0-2.039,2-2.818,3.094-3.238V94.05h-2.891v-.995H136.9V91.532h1.055v1.523h2.855v.995h-2.855Zm-1.043,1.223c-.708.3-2.087.876-2.087,2.183a1.427,1.427,0,0,0,1.595,1.379c.408,0,.492-.12.492-.348Zm4.8-5.193a8.672,8.672,0,0,1,2.422,3.166l-.983.576a9.109,9.109,0,0,0-2.267-3.155Z"/><path class="cls-5" d="M148.706,91.4a8.44,8.44,0,0,1-2.747,3.286l-.4-.959a6.784,6.784,0,0,0,2.29-2.711ZM145.6,97.169a8.52,8.52,0,0,0,2.567-3.43l.828.372a9.7,9.7,0,0,1-1.116,2.051v6.045h-.971V97.4a5.948,5.948,0,0,1-.936.84Zm11.022-.048h-1.367v.864h1.631v.851h-1.631v2.374c0,.481-.06.984-.96.984h-1.583l-.155-1,1.367.011c.263,0,.348-.059.348-.371v-2h-5.613v-.851h5.613v-.864h-5.229v-.816h7.579Zm-.563-1.559h-6.441V91.448h6.441Zm-5.637,3.454a11.275,11.275,0,0,1,1.439,1.774l-.8.588a13.165,13.165,0,0,0-1.4-1.823Zm4.7-6.74h-4.593v.875h4.593Zm0,1.571h-4.593v.887h4.593Z"/><path class="cls-5" d="M164.346,93.043V94.05h-2.723a24.555,24.555,0,0,1-2.1,6.238l-1.1-.481a18.78,18.78,0,0,0,2.123-5.757h-2.027V93.043h2.219c.132-.828.168-1.091.216-1.571l1.139.048c-.1.576-.108.647-.264,1.523Zm2.087,4.761a8.108,8.108,0,0,1,2.554,1.835l-.659.948a6.928,6.928,0,0,0-1.943-1.631v.492c0,1.775-1.212,2.207-2.4,2.207-1.8,0-2.687-1-2.687-2.112,0-.9.7-2.23,2.819-2.23a5.175,5.175,0,0,1,1.247.144l-.072-2.567h1.08Zm-1.044.649a3.393,3.393,0,0,0-1.271-.229c-1.223,0-1.8.612-1.8,1.283,0,1.212,1.475,1.212,1.7,1.212,1.187,0,1.367-.647,1.367-1.464Zm2.891-3.515a17.32,17.32,0,0,0-3.191-1.559l.42-.887a18.558,18.558,0,0,1,3.274,1.487Z"/><path class="cls-5" d="M176.621,101.714H175.47V96.126a19.081,19.081,0,0,1-4.725,2.4l-.528-1a17.9,17.9,0,0,0,8.6-6.045l1.008.66a22.014,22.014,0,0,1-3.2,3.13Z"/><path class="cls-5" d="M180.339,97.577c.456-.552,2.4-3,2.819-3.491a1.7,1.7,0,0,1,1.355-.8,2.335,2.335,0,0,1,1.643.912l5.265,5.337-.852.983-5.3-5.6a1.162,1.162,0,0,0-.768-.42.885.885,0,0,0-.576.347c-.348.407-.827,1.068-2.735,3.7Zm7.8-5.265a10.169,10.169,0,0,1,1.559,2.11l-.779.612a10.05,10.05,0,0,0-1.5-2.158Zm1.679-.983a10.144,10.144,0,0,1,1.547,2.11l-.768.611a11.1,11.1,0,0,0-1.5-2.158Z"/><path class="cls-5" d="M197.119,94.986a14.288,14.288,0,0,0-3.694-1.727l.539-.96a15.028,15.028,0,0,1,3.754,1.68Zm-3.442,5.2c6.068-.323,7.855-4.569,8.683-7.256l.935.7c-.575,1.7-2.494,7.3-9.4,7.759Z"/><path class="cls-5" d="M213.136,98.248a26.619,26.619,0,0,0-5.289-2.566v6.057h-1.163V91.484h1.163v3.07a32.9,32.9,0,0,1,5.853,2.579Z"/><path class="cls-5" d="M216.6,93.535a11.621,11.621,0,0,1-.432,3.358l-.792-.408a8.734,8.734,0,0,0,.432-2.987Zm1.451-2.458v11.141h-.984V91.077Zm.623,3.777a9.022,9.022,0,0,0-.539-1.487l.719-.287a10.1,10.1,0,0,1,.576,1.451Zm4.762-1.451h2.806v.731h-2.806v.8h3.274v.768h-7.544v-.768h3.3v-.8h-2.734V93.4h2.734v-.8h-3.034V91.82h3.034v-.743h.972v.743h3.046V92.6h-3.046Zm2.722,7.712c0,.815-.167,1.1-1.139,1.1h-1.271l-.192-.911H224.9c.312,0,.312-.217.312-.372v-.863H220.74v2.146h-.959V96.366h6.38Zm-.947-4.006H220.74v.756h4.474Zm0,1.476H220.74v.754h4.474Z"/><path class="cls-5" d="M231.613,91.077v1.031h2.063V93h-2.063v1.27h2.363v.876h-.756c-.108.552-.312,1.331-.42,1.679h1.068v.888h-2.255v1.4h2.063V100h-2.063v2.208h-.948V100H228.6v-.887h2.062v-1.4h-2.254v-.888h1.127a11.41,11.41,0,0,0-.444-1.679H228.3v-.876h2.362V93H228.6v-.888h2.062V91.077Zm.288,5.744a8.4,8.4,0,0,0,.347-1.679h-2.23a13.615,13.615,0,0,1,.408,1.679Zm7.04,5.386a8.5,8.5,0,0,1-1.523-1.476,7.371,7.371,0,0,1-1.355,1.439l-.6-.8a6.268,6.268,0,0,0,1.367-1.428,9.188,9.188,0,0,1-1.283-2.674l.839-.264a11.8,11.8,0,0,0,.96,2.063,9.448,9.448,0,0,0,.768-2.446h-2.855v5.589h-.935V91.46h4.629a10.785,10.785,0,0,1-.324,3.094c-.084.193-.252.54-1,.54H236.3l-.168-.924,1.163.012c.528,0,.672-.18.732-1.81h-2.771v3.37h3.874a10.755,10.755,0,0,1-1.175,4.149,10.946,10.946,0,0,0,1.559,1.428Z"/><path class="cls-5" d="M170.226,128.379a.3.3,0,0,0,.347.336h1.871c.6,0,.648-.084.708-1.883l.971.252c-.1,2.375-.4,2.566-1.307,2.566H170.19a.849.849,0,0,1-.972-.923v-2.422h-1.811c-.336,1.8-1.919,3.093-4.1,3.561l-.468-1.043c1.835-.216,3.2-1.164,3.561-2.518h-2.254v-7.161h8.744v7.161h-2.663Zm1.667-8.371h-6.777v1.247h6.777Zm0,2.062h-6.777v1.236h6.777Zm0,2.051h-6.777v1.308h6.777Z"/><path class="cls-5" d="M184.625,123.426a13.629,13.629,0,0,1-3.047,1.955v.252h4.989v.924h-4.989v2.362a.879.879,0,0,1-.983.924h-2.183l-.191-1.033,1.954.013c.372,0,.4-.1.4-.372v-1.894h-5.109v-.924h5.109v-.995h.516a6.892,6.892,0,0,0,1.942-1.14h-5.636v-.888h7.232Zm-1.164-2.782a17.661,17.661,0,0,0,.9-1.979l1.043.348a12.518,12.518,0,0,1-.851,1.631h1.739v2.65h-.983v-1.763h-8.576v1.763h-.983v-2.65h1.738a7.139,7.139,0,0,0-.827-1.584l.888-.347a6.577,6.577,0,0,1,.923,1.7l-.6.228Zm-2.626-.012a10.231,10.231,0,0,0-.912-1.7l.924-.372a9.477,9.477,0,0,1,.912,1.751Z"/><path class="cls-5" d="M191.264,118.988a8.9,8.9,0,0,1-2.891,3.239l-.407-.936a7.233,7.233,0,0,0,2.446-2.662Zm-3.3,5.721a8.984,8.984,0,0,0,2.675-3.478l.827.36a12.361,12.361,0,0,1-1.116,2.027v6.2h-.959v-4.977a10.013,10.013,0,0,1-1,.912Zm9.511-4.929a44.651,44.651,0,0,1-3.155,3.646c.3,0,2.195-.1,3.227-.2-.384-.552-.649-.875-.864-1.139l.767-.468a12.222,12.222,0,0,1,1.835,2.71l-.839.516c-.156-.323-.252-.527-.42-.827-1.212.143-2.423.215-3.646.263a6.952,6.952,0,0,1-.468.72h4.1v.792a7.335,7.335,0,0,1-2.123,2.23,10.979,10.979,0,0,0,3.441.9l-.371.924a12.548,12.548,0,0,1-4.006-1.272,13.116,13.116,0,0,1-3.922,1.247l-.3-.935A10.681,10.681,0,0,0,194.07,128a8.918,8.918,0,0,1-1.523-1.522,6.479,6.479,0,0,1-1.343.922l-.515-.838a6.163,6.163,0,0,0,2.65-2.255c-.372,0-1.98.048-2.315.048l-.072-.864c.516,0,1.1,0,2.063-.024a10.974,10.974,0,0,0,.78-.816,14.044,14.044,0,0,0-2.316-1.655l.516-.72a7.57,7.57,0,0,1,.708.42,11.777,11.777,0,0,0,1.356-2.062l.959.384a22.124,22.124,0,0,1-1.595,2.182,9.235,9.235,0,0,1,.972.78c1.378-1.643,1.535-1.824,2.134-2.651Zm-4.27,6.057-.036.036a9.2,9.2,0,0,0,1.81,1.631,8.348,8.348,0,0,0,1.872-1.667Z"/><path class="cls-5" d="M208.392,120.835v.983h-3.874l-.048,2.2h1.558a7.505,7.505,0,0,0,2.219-.216l.061.983a9.1,9.1,0,0,1-2.232.216h-1.619c-.071,2.662-.06,3.214,2.423,3.214,1.247,0,2.974,0,2.974-2.315a6.187,6.187,0,0,0-.7-2.662l.984-.264a6.4,6.4,0,0,1,.815,3.035c0,3.238-2.7,3.238-4.018,3.238-1.535,0-2.686-.144-3.286-1.344-.264-.54-.264-1.175-.264-2.9h-2.255v-.983H203.4l.024-2.2H201.3v-.983h2.147l.012-1.654h1.1l-.036,1.654Z"/><path class="cls-5" d="M223.749,119.576v.9H214.91a11.7,11.7,0,0,1-1.642,1.726l-.745-.731a7.927,7.927,0,0,0,2.423-2.878l1.056.227c-.168.3-.276.48-.456.756Zm-9.582,5.085a17.4,17.4,0,0,1,2.518,1.5,10.532,10.532,0,0,0,1.38-1.787l.911.444a12.015,12.015,0,0,1-1.5,1.919,24.257,24.257,0,0,1,2.338,1.991l-.707.816a18.445,18.445,0,0,0-2.327-2.123,13.26,13.26,0,0,1-3.586,2.41l-.66-.911a10.52,10.52,0,0,0,3.454-2.075,21.093,21.093,0,0,0-2.386-1.439Zm7.772-1.523c-.121,1.595-.144,2.663-.144,3.035,0,.587,0,2.53.635,2.53.348,0,.576-1.535.635-1.943l.913.444c-.336,1.727-.684,2.59-1.583,2.59-1.572,0-1.572-3.034-1.572-3.766a18.508,18.508,0,0,1,.084-1.99h-8.156v-.9Zm.971-.911h-8.168v-.852h8.168Z"/><path class="cls-5" d="M227.7,119.72v-1h.9v1h2.123v.863H228.6v.828h1.919v4.594H228.6v.983h2.219v.864H228.6v2h-.9v-2H225.49v-.864H227.7v-.983H225.79v-4.594H227.7v-.828h-2.1v-.863Zm0,2.5h-1.091v1.139H227.7Zm0,1.858h-1.091v1.14H227.7Zm1.992-1.858H228.6v1.139h1.092Zm0,1.858H228.6v1.14h1.092Zm4.533,1.535h2.134v.888h-2.134v2.075H236.6v.923h-6.1v-.923h2.782V126.5h-2.242v-.888h2.242v-1.163h.948Zm-3.586-1.654a8.557,8.557,0,0,0,2.543-1.319,7.574,7.574,0,0,1-1.356-2.184l.8-.335a7.261,7.261,0,0,0,1.247,1.919,5.54,5.54,0,0,0,1.356-1.979h-4.2v-.912H236.3v.864a6.59,6.59,0,0,1-1.751,2.675,7.515,7.515,0,0,0,2.146,1.247l-.5.9a8.412,8.412,0,0,1-2.352-1.523,9.714,9.714,0,0,1-2.7,1.5Z"/><path class="cls-5" d="M240.4,119.468a23.1,23.1,0,0,0-.54,5.433,17.885,17.885,0,0,0,.372,4.258l-1.163.1a23.933,23.933,0,0,1-.312-4.186,27.435,27.435,0,0,1,.5-5.7Zm3.058,5.145a2.9,2.9,0,0,0-.6,1.619c0,1.092,1.224,1.236,2.507,1.236a26,26,0,0,0,2.747-.144v1.127c-.408.036-1.248.109-2.267.109-1.775,0-3.993-.168-3.993-2.232a4.011,4.011,0,0,1,.635-2.014Zm4.4-4.269V121.4h-5.637v-1.055Z"/><path class="cls-5" d="M251.445,119.384v8.42h3.526v1.031h-4.654v-9.451Z"/><path class="cls-5" d="M257.974,119.384v9.451H256.8v-9.451Z"/><path class="cls-5" d="M262.162,119.384l5.408,8.3v-8.3h1.116v9.451h-1.643l-5.409-8.3v8.3h-1.115v-9.451Z"/><path class="cls-5" d="M276.489,123.426v1.031H272.3V127.8h4.761v1.031h-5.889v-9.451h5.709v1.032H272.3v3.01Z"/><path class="cls-5" d="M288.835,120.919c-.516-.035-.887-.048-1.223-.048a3.348,3.348,0,0,0-1.212.145c-1.726.575-4.077,2.434-4.077,4.5,0,1.559,1.152,2.051,2.423,2.314a14.34,14.34,0,0,0,3.022.216l-.216,1.164c-2.362-.1-6.344-.264-6.344-3.622,0-2.279,2.1-3.85,3.514-4.678-.348.012-4.5.264-5.805.42l-.1-1.176c.587-.011,2.662-.107,3.274-.143,2.843-.156,3.97-.18,6.716-.193Zm-2.482,1.439a10.679,10.679,0,0,1,1.319,2.267l-.84.528a10.2,10.2,0,0,0-1.259-2.315Zm1.775-.767a10.425,10.425,0,0,1,1.319,2.266l-.84.529a10.741,10.741,0,0,0-1.258-2.316Z"/><path class="cls-5" d="M292.645,120.4h3.706v.72h-1.583v1.487h-.913v-1.487H292.6a3.841,3.841,0,0,1-1.092,2.351l-.695-.623a3.114,3.114,0,0,0,.935-2.2v-1.619a14.353,14.353,0,0,0,4.186-.42l.3.792a13.866,13.866,0,0,1-3.585.36Zm-1.776,8.564a8.35,8.35,0,0,0,3.347-.911l.611.671a10.267,10.267,0,0,1-3.574,1.116Zm9.931-.924h-8.755v-5.1H300.8Zm-.972-4.341h-6.811v.732h6.811Zm0,1.355h-6.811v.78h6.811Zm0,1.4h-6.811v.815h6.811Zm-2-6.057H302v.72h-1.858v1.487h-.9v-1.487h-1.512a2.953,2.953,0,0,1-.983,1.715l-.707-.611a2.314,2.314,0,0,0,.9-1.824v-1.379a13.76,13.76,0,0,0,4.46-.467l.336.779a15.923,15.923,0,0,1-3.91.432Zm.792,7.676a9.074,9.074,0,0,0,3.359.912l-.409.875a9.144,9.144,0,0,1-3.525-1.139Z"/><path class="cls-5" d="M308.272,119.181V123.5h-3.513v6.345h-.948V119.181Zm-.947.791h-2.554v1.007h2.554Zm0,1.691h-2.554v1.056h2.554Zm4.186,6.777H306.27v-3.9h5.241Zm-.9-3.084h-3.429V127.6h3.429Zm3.395,3.527c0,.6-.132.96-.84.96h-1.895l-.108-.96,1.535.011c.336,0,.348-.155.348-.347V123.5h-3.538v-4.317h4.5Zm-.96-8.911h-2.59v1.007h2.59Zm0,1.691h-2.59v1.056h2.59Z"/><path class="cls-5" d="M326.071,120.919c-.515-.035-.886-.048-1.222-.048a3.345,3.345,0,0,0-1.212.145c-1.727.575-4.077,2.434-4.077,4.5,0,1.559,1.151,2.051,2.422,2.314a14.34,14.34,0,0,0,3.022.216l-.216,1.164c-2.362-.1-6.344-.264-6.344-3.622,0-2.279,2.1-3.85,3.514-4.678-.348.012-4.5.264-5.805.42l-.1-1.176c.587-.011,2.662-.107,3.273-.143,2.843-.156,3.97-.18,6.717-.193Zm-2.482,1.439a10.637,10.637,0,0,1,1.319,2.267l-.84.528a10.2,10.2,0,0,0-1.258-2.315Zm1.775-.767a10.427,10.427,0,0,1,1.32,2.266l-.84.529a10.787,10.787,0,0,0-1.259-2.316Z"/><path class="cls-5" d="M338.449,123.653a28.632,28.632,0,0,1-3.237.336,9.056,9.056,0,0,0,1.283,2l-.935.649a10.517,10.517,0,0,1-1.512-2.6c-.323.023-1.247.035-1.667.035l-3.79-.023v-.972l3.646.048c.36,0,.755,0,1.463-.023a13.954,13.954,0,0,1-.395-1.428c-.432.011-.852.024-1.284.024l-3-.013v-.97l2.879.012c.384,0,.468,0,1.211-.012a14.247,14.247,0,0,1-.191-1.476l1.151-.011c.036.539.072.9.156,1.438a28.672,28.672,0,0,0,3.238-.335l.1,1.007a29.426,29.426,0,0,1-3.155.3,10.556,10.556,0,0,0,.42,1.427,20.159,20.159,0,0,0,3.5-.408ZM331.3,125.8a1.708,1.708,0,0,0-.6,1.079c0,1.235,2.087,1.355,3.814,1.355,1.38,0,2.159-.072,2.734-.12l.024,1.056c-.588.048-1.055.084-2.434.084a9.407,9.407,0,0,1-3.91-.48,2.018,2.018,0,0,1-1.331-1.739,2.406,2.406,0,0,1,.887-1.775Z"/><path class="cls-5" d="M347.535,120.367c-.264.193-.636.492-.935.733-1.535,1.235-1.7,1.367-2.5,1.99a6.422,6.422,0,0,1,2.148-.407,2.875,2.875,0,0,1,3.178,3.009c0,2.351-2.015,3.563-4.258,3.563-1.906,0-3.094-.852-3.094-1.991a1.843,1.843,0,0,1,2.026-1.691,2.932,2.932,0,0,1,2.868,2.351,2.313,2.313,0,0,0,1.39-2.207c0-.636-.191-2.135-2.494-2.135-2.123,0-3.683,1.187-5.325,2.746l-.624-.9c.924-.72,3.67-2.926,5.925-4.953-2.039.143-2.746.168-4.7.2v-1.032c2.542,0,3.526-.012,6.392-.18Zm-3.466,6.081c-.732,0-1.044.468-1.044.792,0,.587.768,1.163,2.112,1.163a3.483,3.483,0,0,0,.934-.108A2.062,2.062,0,0,0,344.069,126.448Z"/><path class="cls-5" d="M258.963,60.034a36.507,36.507,0,0,0-1.027,8.373,23.192,23.192,0,0,0,.7,5.869l-1.945.325a23.9,23.9,0,0,1-.72-6.194,43.659,43.659,0,0,1,.936-8.643Zm6.464-.378h2.016l.055,3.151c1.386-.126,2.016-.216,2.773-.324l.017,2c-1.278.145-1.422.163-2.737.27l.072,4.646a15.945,15.945,0,0,1,3.421,1.818l-.828,1.837a12.377,12.377,0,0,0-2.593-1.585c-.036,1.1-.144,3.241-3.511,3.241-2.034,0-3.889-.99-3.889-3.042,0-1.225.811-3.007,3.673-3.007a9.094,9.094,0,0,1,1.747.216l-.09-4.015c-.2.017-1.261.035-2.593.035-1.17,0-1.962-.018-2.575-.053v-2c2,.09,2.917.108,5.132.072ZM263.9,70.405c-1.386,0-1.89.648-1.89,1.243,0,.9.954,1.314,1.944,1.314,1.783,0,1.765-1.008,1.747-2.269A6.045,6.045,0,0,0,263.9,70.405Z"/><path class="cls-5" d="M277.684,68.029c-.469.288-2.233,1.4-2.233,2.376,0,1.567,3.907,1.657,5.69,1.657a27.266,27.266,0,0,0,5.924-.63l.107,2.16a37.114,37.114,0,0,1-5.959.486c-2.071,0-7.778-.036-7.778-3.547,0-1.206.737-2.341,2.862-3.853Zm7.8-4.646a31.208,31.208,0,0,0-6.14-.576,34.466,34.466,0,0,0-4.321.27l.09-2.089a35.349,35.349,0,0,1,4.015-.215,41.3,41.3,0,0,1,6.5.521Z"/><path class="cls-5" d="M292.569,72.512a17.679,17.679,0,0,0,3.925.432c1.819,0,5.69-.27,5.69-2.809,0-1.026-.739-2.179-3.1-2.179a10.512,10.512,0,0,0-6.176,2.269l-1.476-.738a32.3,32.3,0,0,0,1.944-5.294c-1.512-.018-2.161-.018-3.385-.09l-.054-1.944c1.1.072,2.863.162,3.961.144.324-1.387.45-1.891.666-2.989l2.017.306c-.162.612-.594,2.232-.7,2.629a45.227,45.227,0,0,0,7.526-.973l.216,1.927a58.268,58.268,0,0,1-8.282.936c-.361,1.171-.613,1.981-1.1,3.349a10.69,10.69,0,0,1,4.952-1.3c3.313,0,5.041,1.746,5.041,4,0,4.645-6.194,4.645-7.706,4.645a24.02,24.02,0,0,1-3.763-.324Z"/><path class="cls-5" d="M311.217,62.447c-.648,2.574-.864,3.745-1.044,4.753a10.732,10.732,0,0,1,5.78-1.782c3.313,0,5.1,1.8,5.1,4.177a4.583,4.583,0,0,1-3.079,4.285,13.213,13.213,0,0,1-4.9.756,21.75,21.75,0,0,1-3.133-.216l-.4-2.052a18.825,18.825,0,0,0,3.709.342c1.044,0,5.762,0,5.762-3.169,0-2.269-2.593-2.269-3.116-2.269a9.639,9.639,0,0,0-6.391,2.593l-1.639-.486c.235-1.6.594-3.925,1.4-7.382Zm6.284.4a29.192,29.192,0,0,0-7.058-1.585l.72-1.818a32.092,32.092,0,0,1,7.058,1.584Z"/><path class="cls-5" d="M331.288,59.872c-.252,1.4-.4,2.053-.684,3.367,4.051-.162,4.843,1.711,4.843,4.753,0,5.978-1.746,6.626-3.943,6.626a8.089,8.089,0,0,1-1.926-.234l.018-2a6.261,6.261,0,0,0,1.746.288c1.062,0,2.125-.18,2.125-4.7,0-2.125-.306-2.9-2.395-2.9-.36,0-.7.018-.918.036a35.726,35.726,0,0,1-3.907,9.722L324.554,73.7a29.453,29.453,0,0,0,3.565-8.354c-1.927.27-2.881.432-3.655.576l-.252-1.909,4.375-.558a39.138,39.138,0,0,0,.7-4Zm6.446,9.849a11.462,11.462,0,0,0-3.061-7.238l1.566-1.134a12.511,12.511,0,0,1,3.475,7.724Z"/><path class="cls-5" d="M346.174,62.447c-.649,2.574-.864,3.745-1.045,4.753a10.735,10.735,0,0,1,5.78-1.782c3.313,0,5.1,1.8,5.1,4.177a4.585,4.585,0,0,1-3.079,4.285,13.216,13.216,0,0,1-4.9.756,21.719,21.719,0,0,1-3.132-.216l-.4-2.052a18.838,18.838,0,0,0,3.71.342c1.044,0,5.761,0,5.761-3.169,0-2.269-2.593-2.269-3.115-2.269a9.639,9.639,0,0,0-6.392,2.593l-1.638-.486c.234-1.6.594-3.925,1.4-7.382Zm6.284.4a29.187,29.187,0,0,0-7.059-1.585l.721-1.818a32.1,32.1,0,0,1,7.058,1.584Z"/><path class="cls-5" d="M361.764,59.782l-.271,10.263h-1.764l-.27-10.263Zm-2.305,11.974h2.287v2.3h-2.287Z"/></svg>