<svg id="レイヤー_1" data-name="レイヤー 1" xmlns="http://www.w3.org/2000/svg" viewBox="0 0 380 155"><defs><style>.cls-1,.cls-13,.cls-14,.cls-16,.cls-6,.cls-7,.cls-8,.cls-9{fill:none;}.cls-2{fill:#ffffd8;}.cls-3{fill:#ffd672;}.cls-4{fill:#f63402;}.cls-5{fill:#231815;}.cls-10,.cls-11,.cls-12,.cls-13,.cls-14,.cls-15,.cls-16,.cls-17,.cls-18,.cls-6,.cls-7,.cls-8,.cls-9{stroke:#727171;stroke-linecap:round;stroke-linejoin:round;}.cls-7{stroke-dasharray:3.151 3.151;}.cls-8{stroke-dasharray:2.302 2.302;}.cls-9{stroke-dasharray:2.68 2.68;}.cls-10{fill:#fff;}.cls-10,.cls-14,.cls-15{stroke-width:1.602px;}.cls-11,.cls-17{fill:#c9e5f0;}.cls-11,.cls-12,.cls-13{stroke-width:1.201px;}.cls-12{fill:#d3de00;fill-rule:evenodd;}.cls-15{fill:#ebb300;}.cls-16,.cls-17,.cls-18{stroke-width:1.621px;}.cls-18{fill:#9c9d9d;}</style></defs><rect class="cls-1" width="380" height="155"/><circle class="cls-2" cx="108.843" cy="77.857" r="76"/><path class="cls-3" d="M108.843,2.358a75.5,75.5,0,1,1-75.5,75.5,75.585,75.585,0,0,1,75.5-75.5m0-1a76.5,76.5,0,1,0,76.5,76.5,76.5,76.5,0,0,0-76.5-76.5Z"/><path class="cls-4" d="M60.624,63.366a11.2,11.2,0,0,1-2.187,2.062,14.339,14.339,0,0,0,3.169.747,4.7,4.7,0,0,0-.623,1.44,13.507,13.507,0,0,1-3.9-1.315,12.772,12.772,0,0,1-4.263,1.384,4.293,4.293,0,0,0-.664-1.259,12.492,12.492,0,0,0,3.64-.941,7.638,7.638,0,0,1-1.163-1.039,9.337,9.337,0,0,1-1.606,1,4.265,4.265,0,0,0-.885-.969,8.392,8.392,0,0,0,3.141-2.352h-.332c-.263.013-.263.013-.609.013a2.187,2.187,0,0,0-.346.028c.028-.415.042-.8.042-1.259v-2.09c-.152.18-.221.249-.4.456a5.662,5.662,0,0,0-.817-.7,20.77,20.77,0,0,1-1.19,2.131,5.2,5.2,0,0,0,.346.415,8.385,8.385,0,0,0,.968-1.384l.9.678a17.924,17.924,0,0,1-1.121,1.412,8.064,8.064,0,0,0,.83.609,4.8,4.8,0,0,0-.664,1.19A7.976,7.976,0,0,1,51.642,62.4v3.709c0,.665.013,1.149.041,1.564H50.106a13.355,13.355,0,0,0,.1-1.591V62.55a11.923,11.923,0,0,1-1.328,1.259,4.778,4.778,0,0,0-.581-1.467,9.76,9.76,0,0,0,3.141-3.93H49.842a8.029,8.029,0,0,0-1.12.055V57.014a8.253,8.253,0,0,0,1.2.055h.264V55.948a8.348,8.348,0,0,0-.07-1.107h1.619a5.7,5.7,0,0,0-.069,1.093v1.135a7.513,7.513,0,0,0,.941-.041l.6.581a7.791,7.791,0,0,0,1.549-2.8l1.551.3c-.07.152-.07.152-.222.47-.055.1-.1.18-.18.36h4.041a7.335,7.335,0,0,0,1.4-.083v1.412a8.427,8.427,0,0,0-1.384-.07H55.2c-.166.277-.235.374-.4.609l.5.014h3.958a12.135,12.135,0,0,0,1.357-.055c-.028.3-.042.65-.042,1.384v1.633c0,.733.014,1.066.042,1.384a9.8,9.8,0,0,0-1.274-.055H56.9c-.18.262-.25.359-.4.567h2.395a7.646,7.646,0,0,0,1-.056Zm-5.2-3.9h3.709V58.91H55.42Zm0,1.592h3.709v-.567H55.42Zm.36,2.768a6.475,6.475,0,0,0,1.314.968,8.374,8.374,0,0,0,1.3-.968Z"/><path class="cls-4" d="M68.484,57.443a6.325,6.325,0,0,0,.886-.042v1.274a6.6,6.6,0,0,0-.886-.042h-.927a3.737,3.737,0,0,0,1.217.886,4.446,4.446,0,0,0-.8,1.134,5.01,5.01,0,0,1-1.232-1.314c.028.29.041.456.041.567v.5a2.051,2.051,0,0,0,.056.512H65.356a2.512,2.512,0,0,0,.042-.456v-.526a5.96,5.96,0,0,1,.041-.595,7.876,7.876,0,0,1-2.256,2.173,4.7,4.7,0,0,0-.9-1.149,5.541,5.541,0,0,0,2.214-1.73h-.747A6.542,6.542,0,0,0,62.6,58.7V57.373a6.5,6.5,0,0,0,1.162.07h1.647V55.809a4.373,4.373,0,0,0-.069-.94h1.509a5.365,5.365,0,0,0-.056.913v1.661Zm-.706,9.411a7.325,7.325,0,0,0-1.287-.844,7.273,7.273,0,0,1-3.308,1.647,5.983,5.983,0,0,0-.72-1.274A7.583,7.583,0,0,0,65.2,65.359c-.692-.3-1.066-.457-2.049-.817a11.408,11.408,0,0,0,.9-1.37h-.4a5.948,5.948,0,0,0-1.093.069v-1.4a5.778,5.778,0,0,0,1.093.069h1.037a9.839,9.839,0,0,0,.36-.983l1.44.277c-.125.346-.18.443-.291.706h2.187a4.922,4.922,0,0,0,1.024-.069v1.4a5.5,5.5,0,0,0-1.121-.069,5.128,5.128,0,0,1-.831,1.772,7.137,7.137,0,0,1,1.122.623ZM64.124,55.007a6.9,6.9,0,0,1,.969,1.827l-1.218.457a7.161,7.161,0,0,0-.927-1.841Zm1.412,8.165c-.194.332-.235.4-.485.775.582.208.762.277,1.177.457a3.566,3.566,0,0,0,.623-1.232Zm3.751-7.681a11.848,11.848,0,0,1-1.053,1.869l-1.176-.526a6.838,6.838,0,0,0,.983-1.855Zm6.02,3.142a6.888,6.888,0,0,0-.969-.055A11.316,11.316,0,0,1,72.926,64a7.362,7.362,0,0,0,2.63,2.159,6.315,6.315,0,0,0-.8,1.467,9.486,9.486,0,0,1-2.7-2.381,10.715,10.715,0,0,1-3.141,2.477,4.311,4.311,0,0,0-.747-1.384,8.521,8.521,0,0,0,1.093-.594,8.623,8.623,0,0,0,1.965-1.73,9.482,9.482,0,0,1-1.163-3.253c-.248.388-.346.526-.636.914a4.856,4.856,0,0,0-1-1A10.142,10.142,0,0,0,70.3,56.7a10.019,10.019,0,0,0,.332-1.882l1.522.3c-.055.166-.083.29-.193.761-.084.36-.208.83-.36,1.37h2.408a7.539,7.539,0,0,0,1.3-.069Zm-4.166-.055c-.111.249-.111.249-.18.428a10.89,10.89,0,0,0,1.107,3.64,10.008,10.008,0,0,0,.858-4.068Z"/><path class="cls-4" d="M82.032,63.269c-.789,1.786-1.675,2.6-2.809,2.6-1.578,0-2.713-1.6-2.713-3.833a5.945,5.945,0,0,1,1.523-4.028,6.211,6.211,0,0,1,4.761-1.937c3.321,0,5.48,2.02,5.48,5.134a5.332,5.332,0,0,1-3.363,5.162,9.074,9.074,0,0,1-2.173.582,4.414,4.414,0,0,0-.844-1.62,7.346,7.346,0,0,0,2.754-.761,3.875,3.875,0,0,0,1.924-3.46,3.427,3.427,0,0,0-1.7-3.072,3.03,3.03,0,0,0-1.4-.416A20.024,20.024,0,0,1,82.032,63.269ZM80,58.315a4.633,4.633,0,0,0-1.882,3.736c0,1.135.484,2.035,1.093,2.035.457,0,.927-.582,1.425-1.772a18.227,18.227,0,0,0,1.149-4.678A3.518,3.518,0,0,0,80,58.315Z"/><path class="cls-4" d="M92.48,59.394a12.939,12.939,0,0,1-2.214,1.19,6.374,6.374,0,0,0-.8-1.411,12.926,12.926,0,0,0,3.474-1.924,9.129,9.129,0,0,0,2.187-2.325h1.647a8.39,8.39,0,0,0,2.339,2.3,14.6,14.6,0,0,0,3.557,1.869,6.148,6.148,0,0,0-.762,1.55,14.745,14.745,0,0,1-2.366-1.26v1.08a10.4,10.4,0,0,0-1.246-.056H93.67a10.963,10.963,0,0,0-1.19.056Zm-.761,3.571a12.845,12.845,0,0,0-1.633.083V61.442a13.469,13.469,0,0,0,1.633.083h8.622a12.886,12.886,0,0,0,1.619-.083v1.606a12.744,12.744,0,0,0-1.619-.083h-4.76a15.106,15.106,0,0,1-1.44,2.685c2.45-.139,2.45-.139,4.387-.346-.443-.485-.678-.734-1.453-1.537l1.37-.609a28.3,28.3,0,0,1,3.2,3.7l-1.329.871c-.456-.678-.594-.871-.83-1.2-1.149.153-1.979.25-2.491.3-1.37.125-4.11.374-4.664.415a16.644,16.644,0,0,0-1.785.194l-.222-1.688c.374.027.609.041.8.041.1,0,.512-.014,1.218-.055a14.386,14.386,0,0,0,1.481-2.768Zm6.56-4c.221,0,.346,0,.609-.014A11.26,11.26,0,0,1,96,56.266a11.81,11.81,0,0,1-2.879,2.685c.236.014.319.014.568.014Z"/><path class="cls-4" d="M109.06,63.366a7.947,7.947,0,0,1-1.7,1.176,3.179,3.179,0,0,0-.526-.733,26.169,26.169,0,0,1-2.754,1.453,1.538,1.538,0,0,1-.18.111.664.664,0,0,0-.139.069l-.345-1.619a10.014,10.014,0,0,0,1.564-.554V59.6h-.4a6.66,6.66,0,0,0-1.079.069V58.19a6.24,6.24,0,0,0,1.093.069h.388V56.543a10.963,10.963,0,0,0-.083-1.536H106.5a9.343,9.343,0,0,0-.083,1.55v1.7h.249a5.994,5.994,0,0,0,.982-.055v1.453a7.082,7.082,0,0,0-.968-.055h-.263v2.975c.374-.194.484-.263.927-.512v.955a5.48,5.48,0,0,0,1.647-1.4h-.3a10,10,0,0,0-1.287.069V60.308a7.749,7.749,0,0,0,1.3.069h6.048a9.234,9.234,0,0,0,1.44-.083v1.384a13.4,13.4,0,0,0-1.426-.056h-4.235a4.819,4.819,0,0,1-.374.568h4.4c.678,0,.942-.014,1.343-.042-.028.222-.041.4-.056.817a11.99,11.99,0,0,1-.567,3.764c-.277.637-.72.817-1.938.817-.373,0-.622-.014-1.162-.042a3.324,3.324,0,0,0-.374-1.273,9.942,9.942,0,0,1-2.283,1.522,3.8,3.8,0,0,0-1-1.052,8.484,8.484,0,0,0,2.518-1.494,6.209,6.209,0,0,0,1.44-1.841h-.831a8.334,8.334,0,0,1-3.833,3.031,3.438,3.438,0,0,0-.886-1.052,7.185,7.185,0,0,0,3.211-1.979Zm.415-3.571a9.9,9.9,0,0,0-1.273.056,12.257,12.257,0,0,0,.055-1.343v-2.02a10.673,10.673,0,0,0-.055-1.26,9.622,9.622,0,0,0,1.4.07h4.027a10.307,10.307,0,0,0,1.481-.07,11.12,11.12,0,0,0-.055,1.37v1.91a10.643,10.643,0,0,0,.055,1.329c-.291-.028-.706-.042-1.259-.042Zm.208-2.7H113.6v-.582h-3.917Zm0,1.578H113.6v-.568h-3.917Zm4.221,4.691a7.745,7.745,0,0,1-1.938,2.713,9.687,9.687,0,0,0,1.426.11c.512,0,.664-.138.789-.733a16.793,16.793,0,0,0,.235-2.09Z"/><path class="cls-4" d="M117.861,56.543a16.694,16.694,0,0,0,3.211.18,5.475,5.475,0,0,0,.554-1.716l1.813.194a10.533,10.533,0,0,0-.554,1.245c-.069.152-.1.194-.124.249.111-.013.111-.013.872-.055a18.657,18.657,0,0,0,3.626-.471l.1,1.578c-.388.028-.388.028-1.094.111-1.01.124-2.768.235-4.165.277a7.17,7.17,0,0,1-1.274,1.84l.014.028c.1-.069.1-.069.277-.208a3.347,3.347,0,0,1,1.951-.622,1.82,1.82,0,0,1,1.979,1.467q1.6-.582,2.118-.748a4.366,4.366,0,0,0,1.024-.415l.65,1.592a12.269,12.269,0,0,0-1.536.373q-.291.084-2.076.706V62.3c.014.36.014.36.014.554v.554c-.014.235-.014.359-.014.456a5.617,5.617,0,0,0,.042.734l-1.605.041a11.006,11.006,0,0,0,.083-1.6V62.7a8.431,8.431,0,0,0-1.329.719,1.46,1.46,0,0,0-.72,1.135c0,.72.664,1.011,2.339,1.011a12.015,12.015,0,0,0,4.069-.582l.138,1.786a4.007,4.007,0,0,0-.636.055,25.147,25.147,0,0,1-3.544.249,5.941,5.941,0,0,1-3.085-.581,2.007,2.007,0,0,1-1.011-1.786,2.205,2.205,0,0,1,.609-1.536,6.769,6.769,0,0,1,2.976-1.951.759.759,0,0,0-.844-.747,4.68,4.68,0,0,0-2.838,1.425,6.234,6.234,0,0,0-1.2,1.259l-1.259-1.245a8.488,8.488,0,0,0,1.245-1.232,18.346,18.346,0,0,0,1.661-2.366.7.7,0,0,1,.111-.18c-.055,0-.236.013-.236.013-.221,0-1.439-.027-1.743-.027-.263-.014-.263-.014-.388-.014a1.511,1.511,0,0,0-.221.014Z"/><path class="cls-4" d="M140.918,67.642v-.761h-8.623v.761h-1.6a15.052,15.052,0,0,0,.083-1.8v-8.76a14.621,14.621,0,0,0-.083-1.661,14.052,14.052,0,0,0,1.62.069h8.58a14.564,14.564,0,0,0,1.647-.069,14.124,14.124,0,0,0-.083,1.661v8.774a13.88,13.88,0,0,0,.083,1.785Zm-8.623-2.131h8.623V56.875h-8.623Zm5.772-7.058a11.54,11.54,0,0,0,1.342-.055,8.92,8.92,0,0,0-.055,1.107v3.308a9.078,9.078,0,0,0,.055,1.107,12.046,12.046,0,0,0-1.342-.056h-2.948a11,11,0,0,0-1.343.056,9.306,9.306,0,0,0,.056-1.107V59.505a9.3,9.3,0,0,0-.056-1.107,11.416,11.416,0,0,0,1.343.055Zm-2.782,4.11h2.6V59.754h-2.6Z"/><path class="cls-4" d="M144.667,60.2a7.413,7.413,0,0,0,1.439-.263,19.582,19.582,0,0,1,4.277-.582,3.565,3.565,0,0,1,3.266,1.412,3.139,3.139,0,0,1,.512,1.786c0,1.84-1.3,3.335-3.5,4.027a13.625,13.625,0,0,1-3,.526,4.372,4.372,0,0,0-.6-1.578h.208a12.249,12.249,0,0,0,1.965-.207,4.872,4.872,0,0,0,2.311-.942,2.221,2.221,0,0,0,.983-1.868c0-1.08-.8-1.661-2.27-1.661a15.485,15.485,0,0,0-3.639.54,8.761,8.761,0,0,0-1.606.471Z"/><path class="cls-4" d="M155.337,56.875c.305.014.457.014.526.014.249,0,.249,0,2.284-.138.775-.042,3.072-.166,6.906-.346a7.862,7.862,0,0,0,1.592-.139l.1,1.772a2.111,2.111,0,0,0-.29-.014,6.194,6.194,0,0,0-2.74.747c-1.758.914-2.8,2.3-2.8,3.7a2.323,2.323,0,0,0,1.84,2.256,8.387,8.387,0,0,0,2.063.36c.014,0,.138,0,.277-.014l-.25,1.883a2.812,2.812,0,0,0-.47-.083,8.325,8.325,0,0,1-3.239-.914,3.7,3.7,0,0,1-1.979-3.335,4.883,4.883,0,0,1,1.315-3.267,6.092,6.092,0,0,1,1.924-1.383c-1.121.166-1.661.207-4.664.429a19.951,19.951,0,0,0-2.3.277Z"/><path class="cls-4" d="M53.42,84.165c1.3-.374,1.979-.6,3.211-1.024l.014,1.467c-1.08.415-1.785.664-3.46,1.19-.456.139-.456.139-1.467.416-.18.055-.18.055-.29.083a5.745,5.745,0,0,0-.761.262l-.333-1.715a8.908,8.908,0,0,0,1.522-.263v-8.9a11.325,11.325,0,0,0-.083-1.551H53.5a9.256,9.256,0,0,0-.083,1.551v2.311h1.91a6.634,6.634,0,0,0,1.329-.083v1.633a6.634,6.634,0,0,0-1.329-.083H53.42Zm5.287.416c0,.3.18.359,1.177.359.968,0,1.3-.055,1.439-.249a6.826,6.826,0,0,0,.291-2.782,5.832,5.832,0,0,0,1.467.609c-.1,2.063-.249,2.851-.651,3.294-.387.429-.983.554-2.629.554a4.577,4.577,0,0,1-2.118-.249c-.373-.194-.512-.526-.512-1.149V75.709a10.6,10.6,0,0,0-.083-1.564h1.7a9.537,9.537,0,0,0-.083,1.564v3.017a10.909,10.909,0,0,0,3.252-2.532l1.08,1.273c-.207.152-.207.152-.5.387a24.073,24.073,0,0,1-3.834,2.491Z"/><path class="cls-4" d="M74.927,76.733A7.905,7.905,0,0,0,77.2,79.5a7.1,7.1,0,0,0-.941,1.2c-.359-.332-.484-.47-.734-.719a13.2,13.2,0,0,1-1.328,3.141,7.583,7.583,0,0,0,3,2.09,6.421,6.421,0,0,0-.8,1.453,10.074,10.074,0,0,1-3.059-2.394,9.723,9.723,0,0,1-3.1,2.394,4.331,4.331,0,0,0-.927-1.273,8.1,8.1,0,0,0,3.169-2.242,14.893,14.893,0,0,1-1.37-2.851c-.167.18-.235.249-.457.471a5.838,5.838,0,0,0-.692-.748V81c0,.678.014,1.107.041,1.5a11.461,11.461,0,0,0-1.217-.042h-.72v.886H69.1a6.77,6.77,0,0,0,1.135-.069v1.439a6.969,6.969,0,0,0-1.135-.069H68.062v.8a8.759,8.759,0,0,0,.083,1.218H66.623a7.549,7.549,0,0,0,.1-1.273v-.747H65.584a7.988,7.988,0,0,0-1.273.069V83.266a7.468,7.468,0,0,0,1.273.069H66.72v-.886H66.1c-.623,0-.9.014-1.4.042.041-.43.055-.914.055-1.55V78.56a13.633,13.633,0,0,0-.055-1.439c.457.027.734.041,1.37.041h.651v-.733H65.654a10.687,10.687,0,0,0-1.273.055v-1.4a7.65,7.65,0,0,0,1.273.069H66.72v-.166a5.98,5.98,0,0,0-.1-1.134h1.522a6.953,6.953,0,0,0-.083,1.134v.166h.748a7.479,7.479,0,0,0,1.259-.069v1.4a9.594,9.594,0,0,0-1.259-.055h-.748v.733h.775A10.565,10.565,0,0,0,70,77.121c-.027.291-.041.609-.041,1.342v1a7.14,7.14,0,0,0,1.827-2.713l1.245.581a11.19,11.19,0,0,1-1.577,2.561l.9-.374a7.23,7.23,0,0,0,.983,2.422,8.314,8.314,0,0,0,.844-2.519l1.274.5a10.066,10.066,0,0,1-1.7-2.588Zm-9.01,1.55v.969h.844v-.969Zm0,2.062v.983h.844v-.983Zm2.934-1.093v-.969h-.844v.969Zm0,2.076v-.983h-.844v.983Zm3.792-6.449a5.679,5.679,0,0,0-.069-1.038h1.633a5.025,5.025,0,0,0-.069,1.01v.471h1.411a9.859,9.859,0,0,0,1.4-.07v1.5c-.429-.041-.9-.069-1.411-.069H71.73a9.86,9.86,0,0,0-1.371.069V75.239a7.466,7.466,0,0,0,1.371.083h.913Z"/><path class="cls-4" d="M85.043,78.311c-.554,0-.748.014-1.122.041V77.73a10.039,10.039,0,0,1-1.314.885,6.146,6.146,0,0,0-.457-.858c-.221-.013-.318-.013-.484-.013h-.36A8.146,8.146,0,0,0,82.731,80.1a5.782,5.782,0,0,0-.636,1.315,10.764,10.764,0,0,1-.942-1.868c.042.415.07,1.024.07,1.84v3.585a13.805,13.805,0,0,0,.083,1.7H79.728a14.113,14.113,0,0,0,.083-1.7V82.1c0-.457.028-1.149.083-1.813a16.1,16.1,0,0,1-.678,1.951c-.055.153-.249.568-.581,1.26a5.045,5.045,0,0,0-.789-1.481,13.519,13.519,0,0,0,1.827-4.276h-.554a5.467,5.467,0,0,0-.927.055V76.291a5.468,5.468,0,0,0,.927.055h.692v-1.08a9.067,9.067,0,0,0-.083-1.453h1.564a9.815,9.815,0,0,0-.069,1.439v1.094h.415a3.87,3.87,0,0,0,.747-.055v.788a10.65,10.65,0,0,0,1.481-1.121,7.421,7.421,0,0,0,1.619-2.02h1.536a6.041,6.041,0,0,0,1.634,1.785,9.414,9.414,0,0,0,2.435,1.425,5.38,5.38,0,0,0-.719,1.371,12.544,12.544,0,0,1-1.537-.9v.733c-.318-.027-.567-.041-1.121-.041H86.98v.858h1.827c.568,0,.858-.014,1.218-.041-.028.415-.042.7-.042,1.065v1.7c0,.47.014.664.042,1.051a11.674,11.674,0,0,0-1.3-.055H87.3a5.958,5.958,0,0,0,3.7,2.256,4.326,4.326,0,0,0-.762,1.481,8.085,8.085,0,0,1-2.768-1.619A5.672,5.672,0,0,1,86.3,83.556a5.694,5.694,0,0,1-3.709,3.059,4.073,4.073,0,0,0-.872-1.4,4.164,4.164,0,0,0,3.349-2.325H83.991a11.489,11.489,0,0,0-1.274.055c.028-.359.042-.567.042-.886V80.082c0-.387-.014-.608-.042-.954a8.767,8.767,0,0,0,1.191.041H85.6v-.858Zm-.914,2.034V81.7h1.329a8.7,8.7,0,0,0,.11-1.357Zm3.584-3.307h.333A7.793,7.793,0,0,1,86.3,75.155a9.122,9.122,0,0,1-1.564,1.883h2.975Zm-.761,3.307a10.3,10.3,0,0,1-.124,1.357H88.6V80.345Z"/><path class="cls-4" d="M91.934,76.138a6.039,6.039,0,0,0,1.107.069H96.2a7.357,7.357,0,0,0,1.108-.055v1.426a6.3,6.3,0,0,0-1.052-.056H93.041a8.584,8.584,0,0,0-1.107.056Zm.442,10.518a10.161,10.161,0,0,0,.084-1.342V83.252a6.479,6.479,0,0,0-.069-1.08c.345.028.553.042,1.079.042h2.56a4.869,4.869,0,0,0,.928-.042,9.728,9.728,0,0,0-.042,1v2.186a9.682,9.682,0,0,0,.056,1.121H95.56v-.47H93.816v.65ZM92.46,74.2a8.637,8.637,0,0,0,1.148.055h2.16a8.647,8.647,0,0,0,1.148-.055v1.328a8.921,8.921,0,0,0-1.148-.055h-2.16a8.773,8.773,0,0,0-1.148.055Zm.041,4.041a7.635,7.635,0,0,0,.914.041h2.643a6.956,6.956,0,0,0,.886-.041v1.3a5.435,5.435,0,0,0-.886-.042H93.415a5.71,5.71,0,0,0-.914.042Zm0,1.951a7.7,7.7,0,0,0,.914.042h2.643a5.088,5.088,0,0,0,.886-.042v1.3a8.14,8.14,0,0,0-.914-.041H93.4a5.748,5.748,0,0,0-.9.041Zm1.315,4.581H95.56V83.418H93.816Zm5.038-5.813a17.961,17.961,0,0,1,1.965,3.433l-1.37.8a15.792,15.792,0,0,0-1.841-3.516ZM103.116,85c0,.747-.207,1.148-.664,1.328a4.492,4.492,0,0,1-1.494.152c-.526,0-.956-.027-1.647-.082a5.546,5.546,0,0,0-.374-1.55,15.773,15.773,0,0,0,2.089.207c.43,0,.568-.083.568-.346V78.159H99.2c-.568,0-1.08.027-1.564.069v-1.55a11.1,11.1,0,0,0,1.536.083h2.422V75.626a11.411,11.411,0,0,0-.1-1.7h1.716a11.136,11.136,0,0,0-.1,1.716v1.121h.222a10.456,10.456,0,0,0,1.425-.083v1.55a12.624,12.624,0,0,0-1.411-.069h-.236Z"/><path class="cls-4" d="M105.676,75.834c.3.014.457.014.526.014.249,0,.249,0,2.283-.139,1.011-.055,3.377-.18,7.073-.36a7.5,7.5,0,0,0,1.425-.11l.1,1.757a2.118,2.118,0,0,0-.291-.014,6.186,6.186,0,0,0-2.74.748c-1.757.913-2.8,2.3-2.8,3.695a2.325,2.325,0,0,0,1.841,2.256,8.436,8.436,0,0,0,2.062.36c.014,0,.138,0,.277-.014l-.249,1.882c-.18-.041-.208-.041-.471-.083a8.339,8.339,0,0,1-3.238-.913,3.7,3.7,0,0,1-1.979-3.336,4.815,4.815,0,0,1,1.315-3.252,6.1,6.1,0,0,1,1.923-1.4c-1.121.166-1.979.249-4.664.443a17.341,17.341,0,0,0-2.3.277Zm9.535,2.657a8.972,8.972,0,0,1,1.454,2.034l-.969.513a9.352,9.352,0,0,0-1.453-2.063Zm2.146,1.675a10.2,10.2,0,0,0-1.412-2.007l.928-.484a7.976,7.976,0,0,1,1.438,1.951Z"/><path class="cls-4" d="M119.529,76.055a11.492,11.492,0,0,0,1.329.056,24.535,24.535,0,0,0,2.851-.153c-.041-.11-.041-.11-.152-.36-.346-.8-.54-1.231-.554-1.259l1.73-.235a8.178,8.178,0,0,0,.567,1.674,23.25,23.25,0,0,0,3.737-.83l.139,1.467-.471.1c-.927.221-2.463.526-2.892.581a12.451,12.451,0,0,0,.539,1.135c1.191-.249,1.827-.388,1.91-.4a6.941,6.941,0,0,0,1.315-.4l.138,1.509c-.262.041-.553.1-.872.18-.567.138-1.024.235-1.356.3s-.346.07-.512.111a13.806,13.806,0,0,0,1.855,2.532l-1.218.873a7.432,7.432,0,0,0-3.183-.568,5.322,5.322,0,0,0-2.325.388,1,1,0,0,0-.6.844.914.914,0,0,0,.6.8,5.407,5.407,0,0,0,1.979.3,10.736,10.736,0,0,0,4.262-.9l.249,1.7a6.769,6.769,0,0,0-.9.207,13.3,13.3,0,0,1-3.543.471,6.332,6.332,0,0,1-3.377-.678,2.228,2.228,0,0,1-1.066-1.9,2.309,2.309,0,0,1,1.163-1.924A6.166,6.166,0,0,1,124.1,81a9.535,9.535,0,0,1,2.394.291,8.334,8.334,0,0,1-1.066-1.55,39.86,39.86,0,0,1-5.356.373c-.235.014-.332.014-.567.042l-.056-1.509a8.268,8.268,0,0,0,1.426.055,27.224,27.224,0,0,0,3.917-.263c-.083-.166-.139-.249-.25-.512-.138-.29-.18-.373-.29-.622a33.536,33.536,0,0,1-3.709.194c-.581,0-.651.013-.941.027Z"/><path class="cls-4" d="M141.727,85.646a9.315,9.315,0,0,0-2.56-1.9,6.152,6.152,0,0,0-.747-.346v.152a2.163,2.163,0,0,1-.775,1.869,3.687,3.687,0,0,1-2.284.595c-2.021,0-3.183-.789-3.183-2.159,0-1.509,1.37-2.394,3.695-2.394a7.142,7.142,0,0,1,.927.055,2.835,2.835,0,0,0-.013-.332v-.3c-.014-.194-.014-.194-.028-.747-.664.014-1.093.028-1.384.028-.844,0-1.356-.014-2.5-.1-.18-.014-.318-.014-.526-.014l.028-1.5a17.885,17.885,0,0,0,3.224.235c.277,0,.748-.013,1.135-.027,0-.125,0-.595-.014-1.384-.443.014-.664.014-.871.014-.678,0-2.464-.07-3.391-.139-.152-.014-.263-.014-.305-.014h-.221l.014-1.536a18.179,18.179,0,0,0,3.723.291c.221,0,.691-.014,1.038-.028a9.766,9.766,0,0,0-.07-1.744h1.758a8.616,8.616,0,0,0-.1,1.689,18.746,18.746,0,0,0,3.986-.526l.069,1.536a8.682,8.682,0,0,0-1.093.125c-1.218.166-1.758.207-2.976.276.014.347.014.512.028,1.37.692-.041.692-.041,1.965-.179a10.254,10.254,0,0,0,1.716-.305l.042,1.523c-.236.013-.581.055-.9.1-.207.028-.83.1-1.868.194-.194.014-.4.028-.941.055.041,1.343.041,1.343.055,1.675a12.39,12.39,0,0,1,3.792,1.951c.235.153.305.208.5.319Zm-6.048-2.809c-1.12,0-1.8.36-1.8.954,0,.513.6.831,1.578.831a1.437,1.437,0,0,0,1.2-.443,1.753,1.753,0,0,0,.166-.886v-.332A4.843,4.843,0,0,0,135.679,82.837Z"/><path class="cls-4" d="M152.009,79.321c0,.056.014.167.014.332a4.21,4.21,0,0,1,.443,1.952,4.441,4.441,0,0,1-2.062,3.737,9.659,9.659,0,0,1-2.5,1.134,4.538,4.538,0,0,0-.982-1.563,6.55,6.55,0,0,0,2.352-.8,2.909,2.909,0,0,0,1.6-2.021,2.279,2.279,0,0,1-2.034.983,2.549,2.549,0,0,1-1.6-.5,2.163,2.163,0,0,1-.955-1.869,2.548,2.548,0,0,1,2.754-2.519,2.311,2.311,0,0,1,1.439.416.573.573,0,0,1-.014-.167c-.013-.027-.013-.8-.013-1.176-1.98.056-3.28.1-3.889.139-2.09.152-2.09.152-2.464.207l-.055-1.647a5.953,5.953,0,0,0,.678.028c.346,0,.567,0,2.353-.069.9-.028,1.037-.028,2.173-.056.456-.013.456-.013,1.176-.041a7.541,7.541,0,0,0-.083-1.675l1.744-.014a10.761,10.761,0,0,0-.07,1.647c2.409-.013,3.488-.041,4-.1l.014,1.591c-.512-.041-1.176-.069-2.325-.069-.332,0-.581,0-1.675.028v.9Zm-2.823.139a1.213,1.213,0,0,0-1.287,1.107,1.091,1.091,0,0,0,1.176,1.093,1.262,1.262,0,0,0,1.357-1.245C150.432,79.833,149.947,79.46,149.186,79.46Z"/><path class="cls-4" d="M160.147,82.712c.014-.291.028-.429.028-.595s0-.152-.042-.983l-.193-4.7c-.028-.609-.07-1.3-.125-1.689h2.269c-.041.374-.1,1.094-.124,1.689l-.194,4.7c-.028.8-.028.8-.028,1a4.885,4.885,0,0,0,.028.581Zm-.194,3.031v-1.9h2.007v1.9Z"/><path class="cls-5" d="M63.071,105.439v.9h-.977a6.607,6.607,0,0,0,.051-.952V98.5a6.505,6.505,0,0,0-.051-.989,8.989,8.989,0,0,0,.99.038h6.758a6.609,6.609,0,0,0,.989-.038,6.888,6.888,0,0,0-.038.989v6.86c0,.381.013.71.038.977h-.964v-.9Zm6.8-7.05h-6.8v6.226h6.8Z"/><path class="cls-5" d="M73.448,101.09a9.026,9.026,0,0,0,1.573.076h7.367a9.932,9.932,0,0,0,1.534-.064v1.028a14.493,14.493,0,0,0-1.547-.051H75.021a13.855,13.855,0,0,0-1.573.051Z"/><path class="cls-5" d="M84.853,105.376a11.025,11.025,0,0,0,3.69-.977,9.579,9.579,0,0,0,5.173-5.642,2.547,2.547,0,0,0,.774.748,11.128,11.128,0,0,1-3.868,4.844,12.8,12.8,0,0,1-4.729,1.889,6.7,6.7,0,0,0-.761.2Zm.812-7.862A16.539,16.539,0,0,1,88.72,99.9l-.659.786A14.006,14.006,0,0,0,85.043,98.2Z"/><path class="cls-5" d="M100.505,103.106c-.735,1.674-1.484,2.435-2.4,2.435-1.2,0-2.105-1.319-2.105-3.094a5.151,5.151,0,0,1,5.427-5.187,4.905,4.905,0,0,1,3.487,1.256,4.242,4.242,0,0,1,1.23,3.094,4.617,4.617,0,0,1-2.9,4.374,9.869,9.869,0,0,1-1.928.584,2.023,2.023,0,0,0-.443-.85,7.6,7.6,0,0,0,2.117-.6,3.827,3.827,0,0,0,2.244-3.55,3.342,3.342,0,0,0-2.016-3.183,3.64,3.64,0,0,0-1.47-.317A19.053,19.053,0,0,1,100.505,103.106Zm-1.56-4.425a4.385,4.385,0,0,0-2.067,3.778c0,1.218.533,2.156,1.218,2.156.532,0,1.039-.6,1.585-1.839a17.452,17.452,0,0,0,1.153-4.691A4,4,0,0,0,98.945,98.681Z"/><path class="cls-5" d="M110.325,101.99c-.824.685-1.2,1.268-1.2,1.864s.368,1,1.078,1.243a8.074,8.074,0,0,0,2.32.253,12.052,12.052,0,0,0,3.8-.481l.114,1.039a4.077,4.077,0,0,0-.431.064,20.7,20.7,0,0,1-3.423.291,8.948,8.948,0,0,1-2.917-.393,2.019,2.019,0,0,1-1.445-1.914,3.332,3.332,0,0,1,1.458-2.448Zm-1.332-4.628a14.475,14.475,0,0,0,3.373.3,13.838,13.838,0,0,0,3.208-.266l.064.837a19.348,19.348,0,0,0-3.2,1.927l-.647-.519A19.713,19.713,0,0,1,114.04,98.3a10.01,10.01,0,0,1-1.915.165,24.653,24.653,0,0,1-2.789-.165c-.241-.025-.241-.025-.419-.038Zm6.327,2.194a10.114,10.114,0,0,1,1.294,1.965l-.634.381a9.856,9.856,0,0,0-1.294-2.017Zm1.383-.748a9.75,9.75,0,0,1,1.318,1.978l-.634.355a10.617,10.617,0,0,0-1.293-1.991Z"/><path class="cls-5" d="M121.919,99.1a8.083,8.083,0,0,0,1.814,2.929,2.961,2.961,0,0,0-.457.71,9.111,9.111,0,0,1-1.471-2.662c.038,1.166.051,1.635.051,2.054v3.854a10.236,10.236,0,0,0,.076,1.471h-.951a10.6,10.6,0,0,0,.076-1.471V102.4c0-.533.013-.812.076-2.067a11.337,11.337,0,0,1-1.876,4.02,2.346,2.346,0,0,0-.5-.736,11.265,11.265,0,0,0,2.181-4.514h-.913a5.923,5.923,0,0,0-.913.051v-.8a5.616,5.616,0,0,0,.913.051h1.027V97.184a7.66,7.66,0,0,0-.063-1.318h.925a8.459,8.459,0,0,0-.063,1.306V98.4h.926a5.079,5.079,0,0,0,.837-.051v.786c-.279-.025-.533-.038-.825-.038Zm2.144,8.293c.038-.431.063-.888.063-1.547V97.9c0-.444-.013-.749-.051-1.37a9.735,9.735,0,0,0,.989.025h3.753a5.955,5.955,0,0,0,.964-.038c-.025.279-.038.571-.038,1.268v8.052a14.585,14.585,0,0,0,.051,1.509h-.85v-.862h-4.019v.913Zm.862-7.836h4.019v-2.27h-4.019Zm0,2.979h4.019v-2.257h-4.019Zm0,3.221h4.019v-2.5h-4.019Z"/><path class="cls-5" d="M131.613,98.11a5.4,5.4,0,0,0,1.014.063h2.334a5.005,5.005,0,0,0,1.014-.063v.824a6.11,6.11,0,0,0-.926-.051h-2.422a7.951,7.951,0,0,0-1.014.051Zm.533,9.206c.038-.381.063-.837.063-1.23v-1.712a8.8,8.8,0,0,0-.051-1.04,4.218,4.218,0,0,0,.812.051h1.813a5.4,5.4,0,0,0,.774-.038,9.618,9.618,0,0,0-.038.989v1.433a7.9,7.9,0,0,0,.025.837,1.415,1.415,0,0,0-.342-.025.944.944,0,0,1-.191-.013h-2.067v.748Zm.038-7.418a5.021,5.021,0,0,0,.862.051h1.636a4.713,4.713,0,0,0,.837-.051v.774a5.169,5.169,0,0,0-.837-.051h-1.636a5.393,5.393,0,0,0-.862.051Zm0,1.75a5.021,5.021,0,0,0,.862.051h1.623a4.785,4.785,0,0,0,.85-.051v.773a5.183,5.183,0,0,0-.85-.05h-1.636a5.064,5.064,0,0,0-.849.05Zm.012-5.3a4.57,4.57,0,0,0,.913.063h1.547a4.564,4.564,0,0,0,.913-.063v.8a6.715,6.715,0,0,0-.913-.05h-1.547a6.378,6.378,0,0,0-.913.05Zm.736,9.548h1.877v-1.877h-1.877Zm6.923-4.819a4.518,4.518,0,0,0-.063.85,4.465,4.465,0,0,0,.824,2.79,5.719,5.719,0,0,0,2.663,1.977,2.727,2.727,0,0,0-.482.787,7.315,7.315,0,0,1-2.384-1.852,4.92,4.92,0,0,1-.977-1.813,4.538,4.538,0,0,1-.887,1.9,5.633,5.633,0,0,1-2.409,1.775,2.057,2.057,0,0,0-.545-.71,4.644,4.644,0,0,0,2.574-1.775,4.952,4.952,0,0,0,.836-3.031,6.417,6.417,0,0,0-.05-.9Zm.025-5.008a6.49,6.49,0,0,0-.063.811,3.973,3.973,0,0,0,.672,2.4,4.62,4.62,0,0,0,1.243,1.179,5.84,5.84,0,0,0,1.318.634,3.134,3.134,0,0,0-.469.735,6.216,6.216,0,0,1-2.459-1.914,4.007,4.007,0,0,1-.673-1.256,3.934,3.934,0,0,1-.672,1.37,5.374,5.374,0,0,1-2.46,1.8,2.164,2.164,0,0,0-.494-.7,4.579,4.579,0,0,0,1.927-1.015,3.934,3.934,0,0,0,1.294-3.195,5.549,5.549,0,0,0-.051-.849Zm-2.066,6.187a7,7,0,0,1-1.065,2.346l-.723-.329a4.481,4.481,0,0,0,1.027-2.219Zm.114-5.363a6.658,6.658,0,0,1-1.04,2.358l-.723-.3a4.484,4.484,0,0,0,1-2.232Zm4.882.076a9.406,9.406,0,0,1-1.547,2.041,4.539,4.539,0,0,0-.609-.405,5.837,5.837,0,0,0,1.4-1.991Zm-.039,5.465a10.372,10.372,0,0,1-1.432,1.991,4,4,0,0,0-.609-.419,6.043,6.043,0,0,0,1.293-1.927Z"/><path class="cls-5" d="M144.793,101.356a8.435,8.435,0,0,0,2.27.507c.063-.621.19-1.61.292-2.282a16.9,16.9,0,0,1-1.89-.342c-.165-.038-.216-.051-.393-.089l.114-.837a8.223,8.223,0,0,0,2.282.5,20.022,20.022,0,0,0,.305-2.384v-.1l1.014.114a6.564,6.564,0,0,0-.2.85c-.013.114-.013.114-.126.811-.039.279-.064.406-.127.761.355.013.532.013.735.013a10.263,10.263,0,0,0,2.321-.216l-.038.875c-.254.026-.254.026-.888.076-.393.039-.773.051-1.141.051-.2,0-.419,0-1.116-.025-.2,1.458-.216,1.585-.292,2.3.482.012.659.012.837.012a11.146,11.146,0,0,0,2.333-.2l-.025.849c-.127.013-.165.013-.343.026a14.623,14.623,0,0,1-1.787.1c-.318,0-.52,0-1.091-.025a2.246,2.246,0,0,1-.013.253c-.025.3-.05.723-.05.939a1.87,1.87,0,0,0,.583,1.521,2.668,2.668,0,0,0,1.788.546c1.7,0,2.8-.875,2.8-2.22a2.893,2.893,0,0,0-1.2-2.206,2.513,2.513,0,0,0,.925-.254,3.388,3.388,0,0,1,1.192,2.524c0,1.788-1.5,2.992-3.715,2.992a3.153,3.153,0,0,1-2.84-1.268,3.433,3.433,0,0,1-.393-1.75,6.693,6.693,0,0,1,.05-.836c.013-.191.013-.191.025-.305a13.3,13.3,0,0,1-1.914-.317,1.346,1.346,0,0,0-.393-.076Z"/><path class="cls-5" d="M103.713,119.584c0,3.056-1.712,5.009-4.387,5.009s-4.375-1.953-4.375-5.009,1.724-5.008,4.387-5.008S103.713,116.528,103.713,119.584Zm-2.169,3.247a4.54,4.54,0,0,0,1.129-3.247,4.463,4.463,0,0,0-1.116-3.246,3.094,3.094,0,0,0-2.219-.875c-2.028,0-3.36,1.623-3.36,4.109s1.344,4.121,3.373,4.121A3,3,0,0,0,101.544,122.831Z"/><path class="cls-5" d="M111.934,123.021a11,11,0,0,0,1.192,1.382h-1.471a7.714,7.714,0,0,0-.748-1.09l-2.993-3.855-1.483,1.458v2.067a7.512,7.512,0,0,0,.1,1.42h-1.179a7.6,7.6,0,0,0,.1-1.42v-6.8a8.042,8.042,0,0,0-.1-1.42h1.179a7.346,7.346,0,0,0-.1,1.42V119.7l3.854-3.88a4.714,4.714,0,0,0,.875-1.053h1.5c-.229.216-.229.216-.33.317-.2.2-.393.38-.558.558-.228.241-.38.393-.418.431l-2.739,2.726Z"/><path class="cls-5" d="M116.794,122.108c.024-.393.024-.482.024-.9v-.456l-.113-4.514c-.013-.533-.026-.913-.077-1.395h1.256c-.038.482-.064.862-.076,1.395l-.1,4.514c-.013.533-.013.533-.013.583,0,.229.013.457.038.774Zm-.14,2.371v-1.192h1.23v1.192Z"/><line class="cls-6" x1="346.681" y1="18.713" x2="347.755" y2="17.665"/><line class="cls-7" x1="350.01" y1="15.465" x2="353.393" y2="12.163"/><line class="cls-6" x1="354.52" y1="11.063" x2="355.594" y2="10.015"/><line class="cls-6" x1="352.311" y1="23.75" x2="353.805" y2="23.611"/><line class="cls-8" x1="356.097" y1="23.399" x2="359.535" y2="23.079"/><line class="cls-6" x1="360.681" y1="22.972" x2="362.174" y2="22.833"/><line class="cls-6" x1="340.124" y1="14.544" x2="340.512" y2="13.095"/><line class="cls-9" x1="341.205" y1="10.506" x2="342.246" y2="6.622"/><line class="cls-6" x1="342.592" y1="5.328" x2="342.98" y2="3.879"/><line class="cls-6" x1="201.424" y1="18.713" x2="200.351" y2="17.665"/><line class="cls-7" x1="198.096" y1="15.465" x2="194.713" y2="12.163"/><line class="cls-6" x1="193.586" y1="11.063" x2="192.512" y2="10.015"/><line class="cls-6" x1="195.795" y1="23.75" x2="194.301" y2="23.611"/><line class="cls-8" x1="192.009" y1="23.399" x2="188.571" y2="23.079"/><line class="cls-6" x1="187.425" y1="22.972" x2="185.932" y2="22.833"/><line class="cls-6" x1="207.982" y1="14.544" x2="207.594" y2="13.095"/><line class="cls-9" x1="206.9" y1="10.506" x2="205.86" y2="6.622"/><line class="cls-6" x1="205.514" y1="5.328" x2="205.126" y2="3.879"/><path class="cls-10" d="M241.655,63.71V20.368a.927.927,0,0,0-1.442-.9l-31.252,15.11a2.8,2.8,0,0,0-1.442,2.3V63.71Z"/><path class="cls-11" d="M229.39,34.929h5a1.6,1.6,0,0,1,1.6,1.6v5.4a1.6,1.6,0,0,1-1.6,1.6h-5a1.6,1.6,0,0,1-1.6-1.6v-5.4A1.6,1.6,0,0,1,229.39,34.929Z"/><rect class="cls-11" x="213.095" y="50.502" width="8.201" height="9.692" rx="1.602"/><path class="cls-12" d="M244.658,47.418c2.655,0,4.808,2.828,4.808,6.312s-2.153,6.311-4.808,6.311-4.807-2.828-4.807-6.311,2.154-6.312,4.807-6.312Z"/><path class="cls-13" d="M235.088,63.71V53.578a1.607,1.607,0,0,0-1.6-1.6H230.1a1.607,1.607,0,0,0-1.6,1.6V63.71Z"/><line class="cls-14" x1="195.893" y1="63.71" x2="249.45" y2="63.71"/><path class="cls-12" d="M201.411,38.772a8.02,8.02,0,1,1-8.008,8.02,8.018,8.018,0,0,1,8.008-8.02Z"/><line class="cls-13" x1="201.412" y1="50.869" x2="201.412" y2="63.71"/><line class="cls-13" x1="244.658" y1="57.274" x2="244.658" y2="63.71"/><path class="cls-10" d="M348.21,30.121,328.081,16.673h0l-.664-.444a1.314,1.314,0,0,0-1.335,0l-.666.439,0,0L304.989,30.124a1.666,1.666,0,0,0-.668,1.242v1.553a.8.8,0,0,0,.8.8h1.948a.8.8,0,0,1,.8.8V63.71h37.591V34.52a.8.8,0,0,1,.8-.8h1.812a.8.8,0,0,0,.8-.8V31.366A1.682,1.682,0,0,0,348.21,30.121Z"/><path class="cls-11" d="M319.167,34.752h1.927a1.6,1.6,0,0,1,1.6,1.6v5.666a1.6,1.6,0,0,1-1.6,1.6h-1.928a1.6,1.6,0,0,1-1.6-1.6V36.354A1.6,1.6,0,0,1,319.167,34.752Z"/><path class="cls-11" d="M332.1,34.752h1.929a1.6,1.6,0,0,1,1.6,1.6v5.666a1.6,1.6,0,0,1-1.6,1.6H332.1a1.6,1.6,0,0,1-1.6-1.6V36.354A1.6,1.6,0,0,1,332.1,34.752Z"/><path class="cls-11" d="M332.1,50.549h1.929a1.6,1.6,0,0,1,1.6,1.6v5.666a1.6,1.6,0,0,1-1.6,1.6H332.1a1.6,1.6,0,0,1-1.6-1.6V52.151A1.6,1.6,0,0,1,332.1,50.549Z"/><line class="cls-14" x1="296.013" y1="63.71" x2="357.326" y2="63.71"/><path class="cls-13" d="M322.813,63.71V52.681a1.606,1.606,0,0,0-1.6-1.6h-4.232a1.606,1.606,0,0,0-1.6,1.6V63.71Z"/><path class="cls-12" d="M304.69,45.425a3.722,3.722,0,0,0-3.055,2.288c-.666-1.544-1.727-2.549-2.925-2.549-2.016,0-3.652,2.83-3.652,6.315s1.636,6.314,3.652,6.314a3.039,3.039,0,0,0,2.443-1.633c.731,2.02,2.04,3.372,3.537,3.372,2.294,0,4.155-3.161,4.155-7.054S306.984,45.425,304.69,45.425Z"/><path class="cls-12" d="M350.714,40.771a8.021,8.021,0,1,1-8.008,8.02,8.019,8.019,0,0,1,8.008-8.02Z"/><line class="cls-13" x1="298.583" y1="54.637" x2="298.583" y2="63.71"/><line class="cls-13" x1="304.611" y1="56.144" x2="304.611" y2="63.71"/><line class="cls-13" x1="350.714" y1="53.884" x2="350.714" y2="63.71"/><rect class="cls-10" x="253.808" y="60.536" width="37.591" height="31.459"/><path class="cls-15" d="M292.805,61.27c.881,0,1.029-.437.328-.971L273.962,45.686a2.236,2.236,0,0,0-2.551-.005L252.079,60.3c-.7.531-.557.966.324.966Z"/><path class="cls-11" d="M277.944,64.478h5a1.6,1.6,0,0,1,1.6,1.6v5.4a1.6,1.6,0,0,1-1.6,1.6h-5a1.6,1.6,0,0,1-1.6-1.6v-5.4A1.6,1.6,0,0,1,277.944,64.478Z"/><path class="cls-11" d="M261.653,79.492h5a1.6,1.6,0,0,1,1.6,1.6v5.4a1.6,1.6,0,0,1-1.6,1.6h-5a1.6,1.6,0,0,1-1.6-1.6v-5.4A1.6,1.6,0,0,1,261.653,79.492Z"/><path class="cls-12" d="M246.222,78.655a4.983,4.983,0,1,1-4.809,4.98,4.9,4.9,0,0,1,4.809-4.98Z"/><line class="cls-14" x1="243.615" y1="91.995" x2="301.525" y2="91.995"/><line class="cls-13" x1="246.221" y1="85.559" x2="246.221" y2="91.995"/><path class="cls-13" d="M283.737,92V82.26a1.606,1.606,0,0,0-1.6-1.6h-3.388a1.607,1.607,0,0,0-1.6,1.6V92Z"/><path class="cls-12" d="M295.1,71.079a6.938,6.938,0,0,0-6.81,7.053c0,.2.013.394.029.588-.121-.009-.241-.019-.363-.019a4.983,4.983,0,1,0,4.7,6.009,6.592,6.592,0,0,0,2.442.475,7.057,7.057,0,0,0,0-14.106Z"/><line class="cls-13" x1="287.848" y1="85.748" x2="287.848" y2="91.995"/><line class="cls-13" x1="295.006" y1="81.227" x2="295.006" y2="91.995"/><line class="cls-16" x1="246.949" y1="143.72" x2="296.297" y2="143.72"/><path class="cls-16" d="M209.508,140.182a13.292,13.292,0,0,0,9.048,3.538h5.037"/><path class="cls-16" d="M300.869,110.742l-3.006-2.566a24.2,24.2,0,0,0-17.089-7.063H247.956a24.208,24.208,0,0,0-11.638,2.981l-19.285,8.324a19.568,19.568,0,0,0-11.813,17.966h0a13.294,13.294,0,0,0,1.048,5.191"/><path class="cls-16" d="M319.691,143.72h17.692a4.337,4.337,0,0,0,4.337-4.337v-.811a10.7,10.7,0,0,0-.823-4.153c-3.116-7.387-6.39-9.119-12.528-11.131l-16.541-4.177-7.515-5.533"/><path class="cls-17" d="M254.836,117.773l-14.9-.484a4.743,4.743,0,0,1-2.123-8.9,55.677,55.677,0,0,1,6.364-3.023,101.219,101.219,0,0,1,10.754-.405,4.744,4.744,0,0,1,4.8,4.742v3.331A4.741,4.741,0,0,1,254.836,117.773Z"/><path class="cls-17" d="M262.242,109.577a4.742,4.742,0,0,1,4.734-4.692c8.447-.013,16.064.046,16.338.117,2.359.609,5.013,3.272,7.279,6.124a4.741,4.741,0,0,1-3.872,7.684l-19.932-.648a4.743,4.743,0,0,1-4.588-4.79Z"/><path class="cls-16" d="M335.372,126.53c-2.437-.185-5.775-1.37-7.817-.936-.322,1.308,1.524,3.492,2.328,4.544,2.962.961,6.205.792,9.223,1.453"/><ellipse class="cls-18" cx="307.989" cy="140.232" rx="12.267" ry="11.496"/><path class="cls-16" d="M307.989,134.506a5.728,5.728,0,1,0,5.875,5.726,5.638,5.638,0,0,0-1.72-4.049"/><ellipse class="cls-18" cx="235.259" cy="140.232" rx="12.267" ry="11.496"/><path class="cls-16" d="M241.134,140.232a5.877,5.877,0,1,0-5.875,5.726A5.8,5.8,0,0,0,241.134,140.232Z"/><path class="cls-16" d="M267.8,121.958h0a1.423,1.423,0,0,0-1.423-1.423h-2a1.423,1.423,0,0,0-1.424,1.423h0a1.423,1.423,0,0,0,1.424,1.423h2A1.423,1.423,0,0,0,267.8,121.958Z"/><path class="cls-16" d="M238.9,121.958h0a1.423,1.423,0,0,0-1.423-1.423h-2a1.423,1.423,0,0,0-1.424,1.423h0a1.423,1.423,0,0,0,1.424,1.423h2A1.423,1.423,0,0,0,238.9,121.958Z"/><line class="cls-16" x1="260.202" y1="120.259" x2="260.202" y2="138.627"/></svg>