<svg data-name="customer-4" xmlns="http://www.w3.org/2000/svg" viewBox="0 0 149 149"><circle class="col1" cx="74.5" cy="74.5" r="74"/><path d="M39.919,56.413a1.417,1.417,0,0,1-.052-.377,1.476,1.476,0,1,1,1.469,1.469,1.522,1.522,0,0,1-.454-.065c-.014.039-.014.039-.027.078A11.59,11.59,0,0,1,38.2,62.692a12.056,12.056,0,0,1-4.732,3.081,2.572,2.572,0,0,0-.637-.9,10.439,10.439,0,0,0,4.758-2.951A10.535,10.535,0,0,0,39.867,57.3H33.25a9.6,9.6,0,0,0-1.456.078v-1.04a9.216,9.216,0,0,0,1.469.078h6.656Zm.494-.39a.93.93,0,1,0,.937-.923A.932.932,0,0,0,40.413,56.023Z"/><path d="M44.794,58.675a9.354,9.354,0,0,0,1.521.078h6.669a2.192,2.192,0,0,0,.845-.091l.481.559a3.771,3.771,0,0,0-.364.819c-1.1,3.029-2.9,4.693-6.266,5.824a2.81,2.81,0,0,0-.559-.9,8.923,8.923,0,0,0,3.861-1.976,8.01,8.01,0,0,0,2.106-3.406H46.3a11.967,11.967,0,0,0-1.508.065Zm1.118-3.016a5.966,5.966,0,0,0,1.365.091h4.342a5.96,5.96,0,0,0,1.365-.091v1a8.649,8.649,0,0,0-1.351-.065H47.264a8.663,8.663,0,0,0-1.352.065Z"/><path d="M67.076,55.815a2.971,2.971,0,0,0-.572.546,22.9,22.9,0,0,1-3.042,2.613v5.538a8.76,8.76,0,0,0,.065,1.378H62.4a6.755,6.755,0,0,0,.079-1.352V59.6a20.348,20.348,0,0,1-5.019,2.275A3.01,3.01,0,0,0,56.949,61,18.29,18.29,0,0,0,63.7,57.635a10.943,10.943,0,0,0,2.484-2.457Z"/><path d="M74.019,56.244a4.531,4.531,0,0,0-.169.884c-.547,3.7-1.6,6.2-3.433,8.112a2.846,2.846,0,0,0-.832-.676A8.357,8.357,0,0,0,71.47,61.99a15.084,15.084,0,0,0,1.34-4.511,10.477,10.477,0,0,0,.129-1.222,1.436,1.436,0,0,0-.013-.208Zm3.6-.2a15.652,15.652,0,0,0,.6,3.12,11.472,11.472,0,0,0,2.95,5.369,2.811,2.811,0,0,0-.806.728A15.627,15.627,0,0,1,76.826,57.1a5.524,5.524,0,0,0-.169-.858ZM79,55.36A9.637,9.637,0,0,1,80.3,57.4l-.663.377a9.888,9.888,0,0,0-1.287-2.093Zm1.482-.676a9.88,9.88,0,0,1,1.3,2.054l-.649.351a10.277,10.277,0,0,0-1.287-2.067Z"/><path d="M84.393,58.61a19.86,19.86,0,0,1,3.3,1.7l-.507.871A14.434,14.434,0,0,0,83.872,59.4Zm-.339,5.941a11.242,11.242,0,0,0,3.5-.806,8.562,8.562,0,0,0,3.9-2.9,9.683,9.683,0,0,0,1.561-2.912,3.915,3.915,0,0,0,.8.689,10.186,10.186,0,0,1-5,5.6,14.849,14.849,0,0,1-3.289,1.118c-.208.039-.442.091-.7.143a3.051,3.051,0,0,0-.507.143ZM85.406,55.5a19.223,19.223,0,0,1,3.224,1.638l-.532.871A13.7,13.7,0,0,0,84.9,56.3Z"/><path d="M96.131,59.975a9.2,9.2,0,0,0,1.612.078H105.3a10.229,10.229,0,0,0,1.572-.065v1.053a14.871,14.871,0,0,0-1.586-.052h-7.54a14.2,14.2,0,0,0-1.612.052Z"/><path d="M113.058,55.1a22.523,22.523,0,0,0,.974,4.3c.767-.312,1.131-.455,3.147-1.157a7.1,7.1,0,0,0,.832-.338l.389.988a29.9,29.9,0,0,0-3.913,1.261c-2.223.884-3.185,1.742-3.185,2.821,0,1.183,1,1.638,3.55,1.638a12.9,12.9,0,0,0,3.717-.442l.105,1.079a6.756,6.756,0,0,0-.963.078,26.078,26.078,0,0,1-2.873.169,8.844,8.844,0,0,1-2.886-.351,2.158,2.158,0,0,1-1.612-2.132,2.812,2.812,0,0,1,1.157-2.21,8.1,8.1,0,0,1,1.7-1.053,26.481,26.481,0,0,1-.949-3.64,4.349,4.349,0,0,0-.221-.819Z"/><path d="M26.243,84.967a13.146,13.146,0,0,0,.066,1.521h-.95a12.934,12.934,0,0,0,.078-1.56V80.586c0-.637,0-.845.04-1.573a7.383,7.383,0,0,1-1.223,1.846,2.82,2.82,0,0,0-.52-.715,10.578,10.578,0,0,0,2.2-3.679,7.448,7.448,0,0,0,.533-1.937l.884.286c-.091.234-.13.338-.246.7a20.519,20.519,0,0,1-.859,2.223ZM27.6,76.738a12.147,12.147,0,0,0-.052-1.378c.364.026.689.039,1.118.039h5.46a10.754,10.754,0,0,0,1.262-.052,11.688,11.688,0,0,0-.053,1.43v8.008a11.567,11.567,0,0,0,.065,1.56h-.858v-.637H28.375v.637h-.857a11.2,11.2,0,0,0,.077-1.521Zm.78,8.229h6.162V76.14H28.375Zm3.81-4.511a11,11,0,0,0,1.182-.052,6.4,6.4,0,0,0-.039,1.027v1.43a5.958,5.958,0,0,0,.053,1.053,11.946,11.946,0,0,0-1.2-.052H30.624a10.257,10.257,0,0,0-1.183.052,5.94,5.94,0,0,0,.052-1.014v-1.5a5.858,5.858,0,0,0-.052-1,9.834,9.834,0,0,0,1.183.052h.4V78.844H29.883a5.677,5.677,0,0,0-1.014.065V78.09a5.684,5.684,0,0,0,1.014.065h1.144v-.4a6.43,6.43,0,0,0-.078-1.183h.884a6.918,6.918,0,0,0-.064,1.183v.4H32.99a6.289,6.289,0,0,0,1.079-.065v.819A6.133,6.133,0,0,0,33,78.844H31.769v1.612Zm-1.977,2.717h2.405V81.132H30.208Z"/><path d="M43.507,74.853a9.025,9.025,0,0,0-.065,1.157,16.87,16.87,0,0,0,.286,2.821,11.379,11.379,0,0,0,1.677,3.64,11.529,11.529,0,0,0,1.924,2.054,9.543,9.543,0,0,0,1.509,1.014,2.961,2.961,0,0,0-.677.819,11.9,11.9,0,0,1-3.444-3.328A11.2,11.2,0,0,1,43.026,78.9a11.012,11.012,0,0,1-.9,2.9A8.744,8.744,0,0,1,40.27,84.46a11.055,11.055,0,0,1-2.392,1.9,2.48,2.48,0,0,0-.7-.767,9.179,9.179,0,0,0,2.652-1.963A10.647,10.647,0,0,0,42.519,76a8.876,8.876,0,0,0-.052-1.144Z"/><path d="M49.955,80.6a10.264,10.264,0,0,0,.546-3.445l.715.2a13.053,13.053,0,0,1-.559,3.575Zm1.69,5.876a10.368,10.368,0,0,0,.091-1.495V75.971a8.444,8.444,0,0,0-.091-1.313h1a8.111,8.111,0,0,0-.091,1.313v9.022a10.18,10.18,0,0,0,.091,1.482Zm1.69-7.774a7.446,7.446,0,0,0-.6-1.768l.585-.247a13.909,13.909,0,0,1,.651,1.716Zm1.808-2.366a7.529,7.529,0,0,0-1.223.065v-.806a6.071,6.071,0,0,0,1.235.078h1.937a4.449,4.449,0,0,0-.077-1.014h.922a4.318,4.318,0,0,0-.078,1.014h2.406a6.347,6.347,0,0,0,1.273-.078V76.4a8.163,8.163,0,0,0-1.261-.065H57.859v.884h2.029a7.349,7.349,0,0,0,1.2-.065v.767a7.835,7.835,0,0,0-1.209-.065H57.859v.962h2.626a8.024,8.024,0,0,0,1.287-.078v.832a10.068,10.068,0,0,0-1.287-.078H54.96a8.487,8.487,0,0,0-1.326.078V78.74a8.134,8.134,0,0,0,1.326.078h2.132v-.962h-1.56a7.765,7.765,0,0,0-1.182.065v-.767a7.432,7.432,0,0,0,1.2.065h1.547v-.884Zm.09,8.71a8.929,8.929,0,0,0,.078,1.4h-.936a9.232,9.232,0,0,0,.065-1.4V81.379a8.761,8.761,0,0,0-.039-1.131,10.466,10.466,0,0,0,1.209.052H59.6a6.44,6.44,0,0,0,1.2-.065,11.771,11.771,0,0,0-.053,1.391v3.692c0,.806-.247,1.014-1.222,1.014-.351,0-.767-.026-1.326-.065a2.707,2.707,0,0,0-.208-.819,8.981,8.981,0,0,0,1.456.156c.429,0,.507-.052.507-.351V84.239H55.233Zm4.719-3.094v-.988H55.233v.988Zm0,1.625V82.6H55.233v.975Z"/><path d="M67.947,78.22a5.338,5.338,0,0,0,1.028-.065V79a7.228,7.228,0,0,0-1.028-.052H64.281a7.647,7.647,0,0,0-1.04.052v-.845a5.64,5.64,0,0,0,1.04.065h1.547V76.894H64.606a6.87,6.87,0,0,0-.975.052v-.819a6.2,6.2,0,0,0,.975.052h1.222v-.39a7.179,7.179,0,0,0-.078-1.118h.923a7.807,7.807,0,0,0-.078,1.118v.39h1.04a6.146,6.146,0,0,0,.963-.052v.819a6.814,6.814,0,0,0-.963-.052H66.6V78.22Zm0,2.912a5.017,5.017,0,0,0,1.028-.065v.845a7.345,7.345,0,0,0-1.028-.052H66.6v1.313h1.2a6.338,6.338,0,0,0,.962-.052v.832a6.9,6.9,0,0,0-.962-.052H66.6v1.326a9.692,9.692,0,0,0,.078,1.235h-.936a7.9,7.9,0,0,0,.091-1.235V83.9H64.5a6.87,6.87,0,0,0-.975.052v-.832a6.419,6.419,0,0,0,.975.052h1.326V81.86H64.281a7.9,7.9,0,0,0-1.04.052v-.845a5.471,5.471,0,0,0,1.04.065h2.392a7.779,7.779,0,0,0,.7-2.041l.715.208a11.042,11.042,0,0,1-.689,1.833Zm-3.159-.143a9.185,9.185,0,0,0-.494-1.7l.65-.208a10.454,10.454,0,0,1,.52,1.677Zm5.3-.949v5.122a8.378,8.378,0,0,0,.092,1.3h-.95a8.388,8.388,0,0,0,.091-1.3V76.426A11.377,11.377,0,0,0,69.26,75.2a8.237,8.237,0,0,0,1.222.065h3a7.074,7.074,0,0,0,1.092-.052c-.025.221-.025.221-.091.923a5.184,5.184,0,0,1-.389,1.846c-.2.286-.468.377-1.131.377a9.737,9.737,0,0,1-1.275-.091,3.779,3.779,0,0,0-.169-.78,8.116,8.116,0,0,0,1.5.182c.494,0,.558-.169.675-1.664h-3.6v3.315h2.821a6.107,6.107,0,0,0,1.04-.052l.469.481a3.465,3.465,0,0,0-.156.533,13.086,13.086,0,0,1-1.314,3.445,8.64,8.64,0,0,0,2.185,1.885,2.858,2.858,0,0,0-.534.728,10.819,10.819,0,0,1-2.08-1.924,9.506,9.506,0,0,1-1.715,1.911,3.461,3.461,0,0,0-.585-.65,7.979,7.979,0,0,0,1.806-1.9A10.3,10.3,0,0,1,70.5,80.04Zm1.132,0a8.182,8.182,0,0,0,1.234,3.042,11.168,11.168,0,0,0,1.054-3.042Z"/><path d="M81.428,82.042c-.754,1.716-1.521,2.5-2.457,2.5-1.235,0-2.158-1.352-2.158-3.172a5.279,5.279,0,0,1,5.564-5.317,5.033,5.033,0,0,1,3.575,1.287,4.352,4.352,0,0,1,1.262,3.172,4.735,4.735,0,0,1-2.978,4.485,10.057,10.057,0,0,1-1.976.6,2.064,2.064,0,0,0-.454-.871,7.813,7.813,0,0,0,2.171-.611,3.925,3.925,0,0,0,2.3-3.64,3.427,3.427,0,0,0-2.067-3.263,3.741,3.741,0,0,0-1.508-.325A19.449,19.449,0,0,1,81.428,82.042Zm-1.6-4.537a4.5,4.5,0,0,0-2.119,3.874c0,1.248.546,2.21,1.248,2.21.546,0,1.066-.611,1.625-1.885a17.855,17.855,0,0,0,1.184-4.81A4.106,4.106,0,0,0,79.829,77.505Z"/><path d="M90.645,80.729c0-.507.013-.988.039-1.56A8.044,8.044,0,0,1,89.319,81a3.782,3.782,0,0,0-.533-.741,10.491,10.491,0,0,0,2.523-3.874,8.974,8.974,0,0,0,.519-1.794l.884.286a5.37,5.37,0,0,0-.234.7,16.667,16.667,0,0,1-1.04,2.431v6.916a13.393,13.393,0,0,0,.065,1.521h-.936a13.4,13.4,0,0,0,.078-1.56Zm5.421-1.456H94.623a13.071,13.071,0,0,0-1.378.052c.026-.351.052-.689.052-1.17v-1.69a10.065,10.065,0,0,0-.052-1.157,9.859,9.859,0,0,0,1.43.065h3.836a9.725,9.725,0,0,0,1.429-.065,8.221,8.221,0,0,0-.051,1.183v1.677a9.265,9.265,0,0,0,.051,1.157c-.286-.026-.871-.052-1.365-.052H96.847v1.378H99.5a9.166,9.166,0,0,0,1.274-.078v.884a11.085,11.085,0,0,0-1.26-.078H97.067a9.137,9.137,0,0,0,1.755,1.859,9.508,9.508,0,0,0,2.354,1.456,3.741,3.741,0,0,0-.585.806,13.556,13.556,0,0,1-2.068-1.5,8.58,8.58,0,0,1-1.742-2,13.467,13.467,0,0,1,.066,1.391v1.781a7.709,7.709,0,0,0,.077,1.274h-.936a9.717,9.717,0,0,0,.078-1.274V83.407a13.45,13.45,0,0,1,.052-1.4,8.445,8.445,0,0,1-1.975,2.262,9.976,9.976,0,0,1-1.8,1.261,2.933,2.933,0,0,0-.6-.728A10.269,10.269,0,0,0,94.3,83.1a8.282,8.282,0,0,0,1.5-1.716H93.544a9.233,9.233,0,0,0-1.287.078v-.884a9.1,9.1,0,0,0,1.287.078h2.522ZM94.1,78.532h4.966V76.114H94.1Z"/><path d="M102.15,76.855a5.555,5.555,0,0,0,1.04.065H105.1a5.159,5.159,0,0,0,1.04-.065V77.7a6.066,6.066,0,0,0-.95-.052h-2a7.77,7.77,0,0,0-1.04.052Zm.416,9.477c.039-.377.065-.832.065-1.248V83.277a8.5,8.5,0,0,0-.052-1.053,4.409,4.409,0,0,0,.832.052h1.638a4.906,4.906,0,0,0,.78-.039,7.836,7.836,0,0,0-.039,1.014v1.495a8.5,8.5,0,0,0,.026.858c-.416-.026-.559-.026-.767-.026h-1.677v.754Zm.026-7.657a5.162,5.162,0,0,0,.885.052h1.377a4.913,4.913,0,0,0,.872-.052v.806a5.1,5.1,0,0,0-.872-.052h-1.377a5.667,5.667,0,0,0-.885.052Zm0,1.794a5.162,5.162,0,0,0,.885.052h1.39a5.075,5.075,0,0,0,.871-.052v.806a5.7,5.7,0,0,0-.871-.052h-1.39a5.459,5.459,0,0,0-.885.052Zm.026-5.421a4.7,4.7,0,0,0,.936.065h1.378a4.783,4.783,0,0,0,.936-.065v.819a6.876,6.876,0,0,0-.936-.052h-1.378a6.517,6.517,0,0,0-.936.052Zm.741,9.854h1.729V82.926h-1.729Zm8.984-5.967a4.971,4.971,0,0,0,.948-.052v.663a5.524,5.524,0,0,0-.948-.052h-1.625v.7h1.611a5.236,5.236,0,0,0,.962-.052v.663a5.616,5.616,0,0,0-.962-.052h-1.611v.754h2.171a5.336,5.336,0,0,0,.962-.052v.728a6.642,6.642,0,0,0-1-.065H108c-.39,0-.663.013-.988.039.026-.351.039-.559.039-1v-1.4c0-.26.026-.624.052-.91a6.392,6.392,0,0,1-.923,1.014,1.243,1.243,0,0,0-.377-.585,4.124,4.124,0,0,0,.91-.936,5.357,5.357,0,0,0,.871-1.612l.56.143a3.811,3.811,0,0,0,.025-.559v-.091h-.715a8.25,8.25,0,0,0-1.131.065V75.49a7.3,7.3,0,0,0,1.17.078h.676V75.4a2.453,2.453,0,0,0-.065-.7h.832a2.553,2.553,0,0,0-.051.715v.156h2.222v-.156a3.348,3.348,0,0,0-.051-.715h.832a2.41,2.41,0,0,0-.066.7v.169h.832a6.271,6.271,0,0,0,1.2-.078v.793a10.723,10.723,0,0,0-1.2-.065h-.832v.13a2.756,2.756,0,0,0,.052.65h-.74c-.131.221-.144.26-.378.624h1.95a6.459,6.459,0,0,0,1.015-.052v.7a5.8,5.8,0,0,0-.989-.052h-2.014v.715Zm.558,4.277a8.99,8.99,0,0,1-2.158,1.742,10.54,10.54,0,0,0,3.394.676,3.7,3.7,0,0,0-.338.806,11.666,11.666,0,0,1-3.771-1.092,13.736,13.736,0,0,1-3.8,1.144,3.109,3.109,0,0,0-.4-.728,12.858,12.858,0,0,0,3.484-.806,6.542,6.542,0,0,1-1.7-1.508,7.914,7.914,0,0,0-1.066.065v-.754a5.978,5.978,0,0,0,1.054.065h3.821a4.809,4.809,0,0,0,.975-.065Zm-2.86-4.992h-2.3v.715h2.3Zm0,1.274h-2.3v.7h2.3Zm-2.3,1.261v.754h2.3v-.754Zm.507-3.8c-.052.1-.272.507-.364.663h2.145a3.7,3.7,0,0,0,.443-.91l.61.195a5.06,5.06,0,0,0,.026-.559v-.13h-2.222v.091a2.92,2.92,0,0,0,.038.65Zm.208,6.487a5.521,5.521,0,0,0,1.573,1.17,7.5,7.5,0,0,0,1.664-1.17Z"/><path d="M119.219,76.751a5.492,5.492,0,0,0,.624-1.781l1.04.182a2.838,2.838,0,0,0-.338.7c-.169.416-.338.767-.4.884a2.19,2.19,0,0,1,.272-.013,18.318,18.318,0,0,0,4.1-.494l.077.884a4.1,4.1,0,0,0-.52.065,41.93,41.93,0,0,1-4.29.338,9.538,9.538,0,0,1-1.17,1.846c-.13.156-.39.455-.442.494-.091.065-.156.117-.169.13a.013.013,0,0,1-.013.013v.013a.1.1,0,0,0,.026.039c.468-.364.468-.364.6-.455a3.46,3.46,0,0,1,1.963-.637,1.578,1.578,0,0,1,1.716,1.443c.949-.377,1.69-.65,2.263-.858a2.873,2.873,0,0,0,.884-.377l.416.91a21.586,21.586,0,0,0-3.472,1.144c.026.338.026.468.026.793,0,.169,0,.455-.012.715-.014.286-.014.468-.014.585a2.826,2.826,0,0,0,.026.468l-.884.013a18.31,18.31,0,0,0,.079-1.872,3.173,3.173,0,0,0-.014-.39c-1.768.832-2.443,1.443-2.443,2.223,0,.858.805,1.235,2.638,1.235a10.888,10.888,0,0,0,3.471-.507l.117,1a5.1,5.1,0,0,0-.519.065,20.19,20.19,0,0,1-3.16.26c-2.327,0-3.458-.663-3.458-2a2.687,2.687,0,0,1,1.327-2.054,10.047,10.047,0,0,1,1.936-1.04c-.1-.715-.416-1.027-1.027-1.027a4.884,4.884,0,0,0-2.9,1.378,4.3,4.3,0,0,0-1,1.079l-.728-.728a12.936,12.936,0,0,0,2.912-3.718l.117-.2a1.44,1.44,0,0,1-.247.026c-.208,0-1.43-.026-1.911-.039H116.5a2.305,2.305,0,0,0-.286.013l.013-.9a18.19,18.19,0,0,0,2.782.143Z"/><path d="M45.08,94.931a7.709,7.709,0,0,0-.065,1.313v3.237c0,3.224-.286,5.057-1.014,6.552a2.888,2.888,0,0,0-.689-.6,5.859,5.859,0,0,0,.728-2.184,29.062,29.062,0,0,0,.234-3.822V96.244a8.511,8.511,0,0,0-.078-1.313Zm1.69.39a7.971,7.971,0,0,0-.052,1.339v6.513a10.766,10.766,0,0,0,.052,1.3h-.858a11.548,11.548,0,0,0,.065-1.313v-6.5a10.552,10.552,0,0,0-.052-1.339Zm1.716-.377a9.555,9.555,0,0,0-.065,1.534v8.008a12.326,12.326,0,0,0,.053,1.547h-.859a9.736,9.736,0,0,0,.065-1.547V96.478a9.961,9.961,0,0,0-.065-1.534Zm2.977,9.529a7.6,7.6,0,0,1-2.457,1.963,2.406,2.406,0,0,0-.546-.637,5.3,5.3,0,0,0,2.288-1.755Zm-1.287-8.567a6.922,6.922,0,0,0-1.261.065V95.1a6.561,6.561,0,0,0,1.261.065h3.939a7.145,7.145,0,0,0,1.262-.078v.9a6.372,6.372,0,0,0-1.262-.078h-1.6a11.235,11.235,0,0,1-.507,1.378h1.625a8.625,8.625,0,0,0,1.2-.052,9.834,9.834,0,0,0-.052,1.183v4.212a11.1,11.1,0,0,0,.052,1.235,10.165,10.165,0,0,0-1.131-.052H50.5a9.733,9.733,0,0,0-1.131.052,10.648,10.648,0,0,0,.052-1.2V98.454a10.7,10.7,0,0,0-.052-1.222,8.527,8.527,0,0,0,1.131.052h.7a8.024,8.024,0,0,0,.494-1.378Zm.013,3.3H54V97.973H50.189Zm0,1.9H54V99.871H50.189Zm0,2H54v-1.339H50.189Zm3.03.923a6.652,6.652,0,0,0,2.482,1.677,3.34,3.34,0,0,0-.494.715,8.649,8.649,0,0,1-2.665-1.976Z"/><path d="M66.855,99.676a8.867,8.867,0,0,0,1.313-.078v.923a9.369,9.369,0,0,0-1.313-.078H65.282v4.9a.936.936,0,0,1-.325.845,2.573,2.573,0,0,1-1.287.182c-.3,0-.832-.026-1.326-.052a3.442,3.442,0,0,0-.3-.9,12.541,12.541,0,0,0,1.756.156c.493,0,.623-.065.623-.325v-4.81h-6.11a9.369,9.369,0,0,0-1.313.078V99.6a8.867,8.867,0,0,0,1.313.078h6.11v-.559a6.944,6.944,0,0,0-.091-1.352H65.36a7.956,7.956,0,0,0-.078,1.352v.559Zm-4.9-4.16a3.594,3.594,0,0,0-.091-.819h1.028a3.357,3.357,0,0,0-.092.806v.624h3.836a12.714,12.714,0,0,0,1.3-.052,5.341,5.341,0,0,0-.052.884V97.8a5.9,5.9,0,0,0,.052.91h-.859v-1.82h-9.1v1.82h-.859a5.918,5.918,0,0,0,.052-.91v-.845a5.662,5.662,0,0,0-.052-.884,12.714,12.714,0,0,0,1.3.052h3.536Zm-.741,8.879a11.318,11.318,0,0,0-2.184-2.743l.689-.52a15.072,15.072,0,0,1,2.236,2.665Z"/><path d="M73.147,95.36a20.222,20.222,0,0,0-.169,2.743c-.052,1.56-.091,3.328-.091,3.913,0,.156.013.481.026.78a2.046,2.046,0,0,0,.611,1.56,2.457,2.457,0,0,0,1.625.507,3.735,3.735,0,0,0,3.485-2.262,7.725,7.725,0,0,0,.636-2.041,3.7,3.7,0,0,0,.936.624,7.91,7.91,0,0,1-1.442,2.951A4.554,4.554,0,0,1,75.1,105.76a3.084,3.084,0,0,1-2.445-.91,3.621,3.621,0,0,1-.715-2.665c0-.871.013-1.2.117-5.291.013-.39.013-.637.013-.845a4,4,0,0,0-.052-.689Z"/><path d="M92.855,105.37a10.425,10.425,0,0,0-2.652-1.859c-.221-.117-.519-.247-.871-.39a3.738,3.738,0,0,1,.026.468,2.251,2.251,0,0,1-.325,1.417,2.617,2.617,0,0,1-2.2.819,3.386,3.386,0,0,1-2.015-.52,1.7,1.7,0,0,1-.7-1.365c0-.858.676-1.534,1.82-1.794a5.663,5.663,0,0,1,1.352-.13,5.776,5.776,0,0,1,1.17.1c-.013-.039-.013-.039-.013-.156a1.036,1.036,0,0,1-.013-.143c-.013-.117-.013-.39-.026-.767-.013-.169-.013-.416-.026-.754-.468.013-1.117.026-1.533.026-.781,0-1.392-.026-2.2-.091-.143-.013-.247-.013-.325-.013h-.1l.013-.858a15.955,15.955,0,0,0,2.977.208c.338,0,.793,0,1.157-.013l-.026-1.781c-.377.013-.585.013-.884.013-.949,0-2-.039-3.172-.13a1.577,1.577,0,0,0-.234-.013,1.062,1.062,0,0,0-.182.013l.013-.884a16.15,16.15,0,0,0,3.328.26c.261,0,.7-.013,1.131-.013a10.18,10.18,0,0,0-.065-1.872h1a14.509,14.509,0,0,0-.091,1.833,18.326,18.326,0,0,0,3.848-.533l.065.884c-.22.013-.22.013-.9.1a26.981,26.981,0,0,1-3.016.312c.013,1.066.013,1.066.026,1.755a15.681,15.681,0,0,0,3.6-.533l.052.9c-.169.013-.3.026-.754.091-.9.143-1.924.247-2.886.312.026.728.026.728.079,1.989a11.4,11.4,0,0,1,3.627,1.9,4.444,4.444,0,0,0,.441.3Zm-4.394-2.457a4.772,4.772,0,0,0-1.326-.143c-1.287,0-2.132.468-2.132,1.157s.65,1.079,1.781,1.079a1.877,1.877,0,0,0,1.43-.429,1.7,1.7,0,0,0,.261-1.17Z"/><path d="M102.163,95.815a4.381,4.381,0,0,0-.052-.754h.975a10.762,10.762,0,0,0-.065,1.625v.143c2.457-.013,3.458-.039,3.887-.091v.923a23.069,23.069,0,0,0-2.482-.065c-.2,0-.339,0-1.392.026V100.2a3.726,3.726,0,0,1,.313,1.534,4.182,4.182,0,0,1-1.743,3.393,8.269,8.269,0,0,1-2.054,1.053,2.854,2.854,0,0,0-.572-.819,6.663,6.663,0,0,0,2.106-.975,3.367,3.367,0,0,0,1.456-2.743,1.8,1.8,0,0,1-.351.637,2.173,2.173,0,0,1-3.77-1.352,2.163,2.163,0,0,1,2.3-2.145,1.994,1.994,0,0,1,1.507.585c-.013-.182-.013-.234-.013-.715,0-.052-.013-.182-.013-.338v-.676c-2.613.052-5.239.182-6.11.325l-.039-.949c.234.013.325.013.52.013.377,0,.377,0,2.47-.078,1.248-.052,2.263-.078,3.146-.1Zm-.559,3.913a1.663,1.663,0,0,0-.871-.208,1.376,1.376,0,0,0-1.443,1.365,1.256,1.256,0,0,0,1.339,1.287,1.457,1.457,0,0,0,1.521-1.534A.941.941,0,0,0,101.6,99.728Z"/><path class="col2" d="M81.807,32.848a17.008,17.008,0,0,0-2.2-.154h-.793v1.562a13.661,13.661,0,0,0,.177,2.508H75.865a14.022,14.022,0,0,0,.177-2.552V32.694h-6.1c-1.3,0-2,.022-2.75.088V30.075c.748-.814.99-1.1,1.76-2.024l5.215-6.381A20.822,20.822,0,0,0,76,19.25h2.971a30.944,30.944,0,0,0-.155,3.718v7.217h.771a14.506,14.506,0,0,0,2.223-.154Zm-5.744-7.195a24.915,24.915,0,0,1,.111-2.641c-.441.638-.7.991-1.5,1.959l-4.225,5.236h5.61Z"/></svg>