<svg data-name="customer-5" xmlns="http://www.w3.org/2000/svg" viewBox="0 0 149 149"><circle class="col1" cx="74.5" cy="74.5" r="74"/><path d="M31.287,57.8c-.156.026-.208.039-.391.078a22.76,22.76,0,0,1-2.3.39v2.249a9.205,9.205,0,0,1,2.795-.468,4.4,4.4,0,0,1,2.3.546,2.674,2.674,0,0,1-1.312,4.992,1.917,1.917,0,0,1-2-1.469,4.744,4.744,0,0,1-.156-1.469,2.818,2.818,0,0,0,.858-.338,3.861,3.861,0,0,0-.026.507c0,1.352.389,1.911,1.339,1.911A1.726,1.726,0,0,0,34.134,62.9c0-1.274-1.079-2.067-2.782-2.067a8.762,8.762,0,0,0-2.756.507v3.25c0,.7-.313,1.04-.95,1.04A3.431,3.431,0,0,1,25.5,64.8a1.569,1.569,0,0,1-.6-1.222,2.351,2.351,0,0,1,1.028-1.729,6.921,6.921,0,0,1,1.833-1.066V58.324c-.118.013-.118.013-.521.039-.233.013-.455.013-.832.013-.194,0-.546,0-.688-.013h-.534v-.858a7.375,7.375,0,0,0,1.327.091c.35,0,.858-.013,1.248-.039V56.27a8.478,8.478,0,0,0-.066-1.235h.962a7.456,7.456,0,0,0-.064,1.209v1.248a13.153,13.153,0,0,0,2.652-.559Zm-3.523,3.835c-1.287.624-2.016,1.326-2.016,1.95,0,.273.183.533.56.78a2.424,2.424,0,0,0,1.157.377c.26,0,.3-.078.3-.637ZM34.9,59.2a10.613,10.613,0,0,0-2.626-2.548l.677-.507a10.943,10.943,0,0,1,2.626,2.47Z"/><path d="M39.5,63.5c0-.273-.014-.494-.026-.754a18.554,18.554,0,0,1-1.873.533,2.323,2.323,0,0,0-.428-.767,15.014,15.014,0,0,0,5.343-1.937A10.1,10.1,0,0,1,40.8,59.078a11.37,11.37,0,0,1-2.5,1.794,2.162,2.162,0,0,0-.56-.624A9.782,9.782,0,0,0,40.3,58.61,7.289,7.289,0,0,0,41.777,56.8l.846.3a1.116,1.116,0,0,0-.169.182c-.026.039-.078.091-.144.182s-.064.078-.311.364h2.834a9.572,9.572,0,0,0,1.183-.052l.481.468c-.091.091-.117.117-.234.247a18.57,18.57,0,0,1-2.392,2.08,14.521,14.521,0,0,0,5.213,1.768,3.085,3.085,0,0,0-.39.871c-.832-.208-1.118-.286-1.834-.507-.012.286-.025.468-.025.793v1.794a7.175,7.175,0,0,0,.078,1.118h-.9V65.9H40.309v.507h-.884a8.081,8.081,0,0,0,.078-1.118ZM42.6,55.62a6.319,6.319,0,0,0-.078-.936h1a5.29,5.29,0,0,0-.09.936v.338h3.639a12.333,12.333,0,0,0,1.456-.065,5.989,5.989,0,0,0-.051.9v.741a6.177,6.177,0,0,0,.051.91H47.68V56.673H38.515v1.755h-.832a6.378,6.378,0,0,0,.051-.91V56.79a6.188,6.188,0,0,0-.051-.9,11.784,11.784,0,0,0,1.377.065H42.6Zm3.107,6.9c.286,0,.39,0,.6-.013a13.657,13.657,0,0,1-3.108-1.482,16.158,16.158,0,0,1-3.081,1.5H45.7Zm-5.4,2.665h5.707V63.225H40.309Zm1-6.6a9.952,9.952,0,0,0,1.884,1.573,13.961,13.961,0,0,0,2.016-1.664H41.4Z"/><path d="M52.087,56.01a7.731,7.731,0,0,0-.066-1.352h.911A8.546,8.546,0,0,0,52.866,56v1.274h.508a4.692,4.692,0,0,0,.818-.052v.793a7.684,7.684,0,0,0-.818-.039h-.469a7.234,7.234,0,0,0,1.209,2.119,5.953,5.953,0,0,0-.455.7,8.931,8.931,0,0,1-.845-1.82c.039,1.092.052,1.664.052,2.119v3.939a10.69,10.69,0,0,0,.078,1.508h-.935a11.216,11.216,0,0,0,.078-1.508V61.353c0-.52,0-.52.039-1.144.013-.078.025-.312.038-.637,0-.1.014-.26.026-.481a10.875,10.875,0,0,1-.832,2.509,10.764,10.764,0,0,1-.858,1.469,3.206,3.206,0,0,0-.493-.806,7.627,7.627,0,0,0,1.221-2.054,12.992,12.992,0,0,0,.728-2.236H51.28a5.611,5.611,0,0,0-.91.052v-.806a5.32,5.32,0,0,0,.91.052h.807Zm3.392,1.183a6.577,6.577,0,0,0-1.13.065v-.819a6.745,6.745,0,0,0,1.143.065h.69a6.293,6.293,0,0,0-.845-1.43l.688-.3a8.351,8.351,0,0,1,.937,1.729H58.47a8.164,8.164,0,0,0,.883-1.756l.768.274c-.208.416-.638,1.17-.832,1.482h1.144a7.714,7.714,0,0,0,1.183-.078v.845a7.6,7.6,0,0,0-1.183-.078H58.066v1.118H60.03a7.047,7.047,0,0,0,1.183-.078v.858a7.3,7.3,0,0,0-1.17-.065H58.066V60.2h2.549a7.714,7.714,0,0,0,1.183-.078v.845a7.773,7.773,0,0,0-1.17-.078H58.144a7.171,7.171,0,0,0,1.067,1.95,7.028,7.028,0,0,0,1.417-1.677l.663.468a10.362,10.362,0,0,1-1.625,1.768,7.316,7.316,0,0,0,2.47,1.82,3.379,3.379,0,0,0-.546.754,9.207,9.207,0,0,1-1.911-1.5,8.188,8.188,0,0,1-1.716-2.652,10.765,10.765,0,0,1,.1,1.287v2.444c0,.7-.247.884-1.221.884a9.945,9.945,0,0,1-1.067-.052,2.088,2.088,0,0,0-.233-.819,8.124,8.124,0,0,0,1.287.117c.377,0,.455-.052.455-.286V63.563A17.69,17.69,0,0,1,54.53,65.24a5.142,5.142,0,0,0-.585.351l-.377-.858a13.6,13.6,0,0,0,3.719-1.976V60.885H55.259a6.508,6.508,0,0,0-1.118.065v-.806a8.764,8.764,0,0,0,1.13.052h2.016v-1.17H55.844a6.484,6.484,0,0,0-1.131.065v-.845a6.247,6.247,0,0,0,1.1.065h1.47V57.193ZM55,61.184a11.947,11.947,0,0,1,1.234,1.573l-.6.429a8.063,8.063,0,0,0-1.222-1.6Z"/><path d="M66.166,55.516a18.445,18.445,0,0,0-.547,2.08,19.284,19.284,0,0,0-.39,4.069c0,1.014.027,1.781.079,2.47a12.014,12.014,0,0,1,.844-2.535l.624.3a11.325,11.325,0,0,0-1.052,3.575v.195l-.937.078c-.025-.208-.039-.273-.077-.52a18.634,18.634,0,0,1-.339-3.679,21.506,21.506,0,0,1,.585-5.148,7.286,7.286,0,0,0,.183-1.04Zm3.314,5.226a3.023,3.023,0,0,0-.974,1.911c0,.962.818,1.43,2.5,1.43a8.556,8.556,0,0,0,2.99-.455l.13,1c-.169.013-.195.026-.455.065a13.412,13.412,0,0,1-2.665.26,3.615,3.615,0,0,1-2.978-.988,1.842,1.842,0,0,1-.389-1.2,3.591,3.591,0,0,1,1.131-2.418Zm-1.65-3.848a8.824,8.824,0,0,0,2.21.2,13.946,13.946,0,0,0,3.483-.351l.066.923c-.027,0-.325.039-.9.117a21.946,21.946,0,0,1-2.8.169,17.34,17.34,0,0,1-2.08-.13Z"/><path d="M79.92,60.9c-.846.7-1.235,1.3-1.235,1.911s.376,1.027,1.105,1.274a8.273,8.273,0,0,0,2.379.26,12.321,12.321,0,0,0,3.9-.494l.117,1.066a4.062,4.062,0,0,0-.441.065,21.218,21.218,0,0,1-3.511.3,9.176,9.176,0,0,1-2.99-.4,2.071,2.071,0,0,1-1.481-1.963,3.416,3.416,0,0,1,1.5-2.509Zm-1.365-4.745a14.857,14.857,0,0,0,3.458.312,14.217,14.217,0,0,0,3.289-.273l.065.858a19.828,19.828,0,0,0-3.276,1.976l-.663-.533a20.211,20.211,0,0,1,2.3-1.378,10.265,10.265,0,0,1-1.962.169,25.448,25.448,0,0,1-2.861-.169c-.247-.026-.247-.026-.428-.039ZM85.042,58.4a10.409,10.409,0,0,1,1.326,2.015l-.65.39a10.138,10.138,0,0,0-1.326-2.067Zm1.417-.767a9.977,9.977,0,0,1,1.351,2.028l-.649.364a10.9,10.9,0,0,0-1.326-2.041Z"/><path d="M89.279,59.78a5.268,5.268,0,0,0,1,.065h.676a5.538,5.538,0,0,0,.988-.065,11.374,11.374,0,0,0-.051,1.3v2.613a2.033,2.033,0,0,0,1.157,1.183,7.193,7.193,0,0,0,2.964.377,40.048,40.048,0,0,0,5.187-.247,3.1,3.1,0,0,0-.3.949c-1.21.052-2.782.091-4.3.091-2.328,0-3.016-.078-3.809-.455a3.267,3.267,0,0,1-1.34-1.235,12.363,12.363,0,0,1-1.559,1.378c-.118.091-.26.208-.468.39l-.43-.845a8.577,8.577,0,0,0,2.094-1.586V60.56h-.859a5.009,5.009,0,0,0-.949.065Zm.715-4.876a18.036,18.036,0,0,1,2.067,2.3l-.65.585a12.18,12.18,0,0,0-2.027-2.366Zm9.556,3.888a8.4,8.4,0,0,0,1.248-.078v.858c-.39-.039-.82-.065-1.248-.065H97.093a10.772,10.772,0,0,0,1.027,1.287,11.131,11.131,0,0,0,2.7,2.132,2.783,2.783,0,0,0-.533.767,12.768,12.768,0,0,1-1.73-1.378,9.082,9.082,0,0,1-1.781-2.158,9.938,9.938,0,0,1,.053,1.287v1.885a8.64,8.64,0,0,0,.078,1.274h-.963a8.64,8.64,0,0,0,.078-1.274v-1.9a10.685,10.685,0,0,1,.053-1.261,9.16,9.16,0,0,1-1.651,2.106,10.565,10.565,0,0,1-1.534,1.3,2.478,2.478,0,0,0-.559-.676A10.462,10.462,0,0,0,95,60.586a10.6,10.6,0,0,0,.74-1.079H93.686a7.638,7.638,0,0,0-1.169.078v-.871a7.362,7.362,0,0,0,1.182.078h2.327v-2.86a7.3,7.3,0,0,0-.064-1.132H96.9a7,7,0,0,0-.064,1.145v2.847Zm-5.967-3.549a16.176,16.176,0,0,1,1.5,2.6l-.741.39a11.888,11.888,0,0,0-1.47-2.652Zm6.422.377a14.415,14.415,0,0,1-1.6,2.652l-.677-.39a10.526,10.526,0,0,0,1.522-2.639Z"/><path d="M102.462,65.513a6.262,6.262,0,0,0,1.547-2.574l.7.351a7.814,7.814,0,0,1-1.561,2.743Zm5.876-4.173c-1.378.286-2.718.481-5.083.754-.222.026-.352.052-.56.091l-.169-.845a1.6,1.6,0,0,0,.221.013,38.624,38.624,0,0,0,5.564-.689Zm4.393-3.562c-.22.377-.22.377-.546.949a10.6,10.6,0,0,1-1.052,1.5,4.353,4.353,0,0,0,.9,1.079,1.275,1.275,0,0,0,.65.364c.247,0,.467-.52.663-1.612a2.551,2.551,0,0,0,.676.52c-.338,1.378-.715,1.924-1.274,1.924a2.326,2.326,0,0,1-1.417-.806,4.966,4.966,0,0,1-.689-.9A9.689,9.689,0,0,1,108.4,62.51a2.006,2.006,0,0,0-.649-.559,8.258,8.258,0,0,0,2.5-1.82,9.48,9.48,0,0,1-1.079-3.315h-5.2a10.578,10.578,0,0,0-1.431.078v-.871a10.177,10.177,0,0,0,1.431.078h5.109c-.026-.3-.053-.494-.065-.741-.039-.364-.066-.56-.091-.689h.923c-.013.156-.027.325-.027.494,0,.221.027.585.053.936h2.587a9.012,9.012,0,0,0,1.378-.078v.871a9.6,9.6,0,0,0-1.417-.078h-2.457a9.359,9.359,0,0,0,.793,2.717,7.108,7.108,0,0,0,1.182-2.106Zm-9.177.65c0-.286-.014-.559-.039-.858.325.026.649.039,1.065.039h2.432c.428,0,.7-.013,1.052-.039-.025.286-.039.546-.039.858V59.4a6.384,6.384,0,0,0,.027.819c-.4-.013-.455-.013-1.053-.013H104.58c-.39,0-.715.013-1.065.039.025-.312.039-.559.039-.845Zm.766,1.144h2.951V58.246H104.32Zm2.158,3.406a3.717,3.717,0,0,0-.078.884V65.2c0,.286.208.325,1.652.325,1.69,0,2.171-.065,2.34-.286a3.01,3.01,0,0,0,.208-1.365,2.779,2.779,0,0,0,.819.312c-.208,2-.3,2.067-3.211,2.067-2.263,0-2.6-.1-2.6-.845V63.94a4.241,4.241,0,0,0-.078-.962Zm2.457,1.521a8.189,8.189,0,0,0-1.781-1.56l.573-.455a10.544,10.544,0,0,1,1.768,1.495Zm3.133-8.5a7.89,7.89,0,0,0-1.52-1l.546-.4a7.881,7.881,0,0,1,1.482.937Zm1.132,9.841a11.891,11.891,0,0,0-1.756-2.613l.651-.377A13.3,13.3,0,0,1,113.9,65.37Z"/><path d="M119.336,56.751a5.517,5.517,0,0,0,.624-1.781l1.04.182a2.761,2.761,0,0,0-.338.7c-.17.416-.339.767-.4.884a2.206,2.206,0,0,1,.272-.013,18.308,18.308,0,0,0,4.1-.494l.078.884a4.052,4.052,0,0,0-.52.065,41.973,41.973,0,0,1-4.291.338,9.536,9.536,0,0,1-1.169,1.846c-.13.156-.39.455-.443.494-.091.065-.155.117-.169.13A.012.012,0,0,1,118.1,60v.013a.082.082,0,0,0,.026.039c.468-.364.468-.364.6-.455a3.457,3.457,0,0,1,1.962-.637A1.578,1.578,0,0,1,122.4,60.4c.949-.377,1.691-.65,2.263-.858a2.86,2.86,0,0,0,.884-.377l.416.91a21.584,21.584,0,0,0-3.471,1.144c.025.338.025.468.025.793,0,.169,0,.455-.012.715-.013.286-.013.468-.013.585a2.937,2.937,0,0,0,.025.468l-.883.013a18.7,18.7,0,0,0,.078-1.872,3.416,3.416,0,0,0-.013-.39c-1.768.832-2.444,1.443-2.444,2.223,0,.858.805,1.235,2.638,1.235a10.9,10.9,0,0,0,3.472-.507l.116,1a5.136,5.136,0,0,0-.519.065,20.178,20.178,0,0,1-3.159.26c-2.328,0-3.458-.663-3.458-2a2.688,2.688,0,0,1,1.326-2.054,10.047,10.047,0,0,1,1.936-1.04c-.1-.715-.416-1.027-1.026-1.027a4.881,4.881,0,0,0-2.9,1.378,4.3,4.3,0,0,0-1,1.079l-.729-.728a12.919,12.919,0,0,0,2.912-3.718l.117-.2a1.419,1.419,0,0,1-.247.026c-.208,0-1.429-.026-1.911-.039h-.208a2.321,2.321,0,0,0-.286.013l.014-.9a18.181,18.181,0,0,0,2.782.143Z"/><path d="M24.787,77.8c-.156.026-.208.039-.391.078a22.76,22.76,0,0,1-2.3.39v2.249a9.205,9.205,0,0,1,2.795-.468,4.4,4.4,0,0,1,2.3.546,2.674,2.674,0,0,1-1.312,4.992,1.917,1.917,0,0,1-2-1.469,4.744,4.744,0,0,1-.156-1.469,2.818,2.818,0,0,0,.858-.338,3.861,3.861,0,0,0-.026.507c0,1.352.389,1.911,1.339,1.911A1.726,1.726,0,0,0,27.634,82.9c0-1.274-1.079-2.067-2.782-2.067a8.762,8.762,0,0,0-2.756.507v3.25c0,.7-.313,1.04-.95,1.04A3.431,3.431,0,0,1,19,84.8a1.569,1.569,0,0,1-.6-1.222,2.351,2.351,0,0,1,1.028-1.729,6.921,6.921,0,0,1,1.833-1.066V78.324c-.118.013-.118.013-.521.039-.233.013-.455.013-.832.013-.194,0-.546,0-.688-.013h-.534v-.858a7.375,7.375,0,0,0,1.327.091c.35,0,.858-.013,1.248-.039V76.27a8.478,8.478,0,0,0-.066-1.235h.962a7.456,7.456,0,0,0-.064,1.209v1.248a13.153,13.153,0,0,0,2.652-.559Zm-3.523,3.835c-1.287.624-2.016,1.326-2.016,1.95,0,.273.183.533.56.78a2.424,2.424,0,0,0,1.157.377c.26,0,.3-.078.3-.637ZM28.4,79.195a10.613,10.613,0,0,0-2.626-2.548l.677-.507a10.943,10.943,0,0,1,2.626,2.47Z"/><path d="M31.273,78.311c.468-.013,1.821-.169,2.873-.338a15.889,15.889,0,0,0,.39-2.756v-.169l1.04.117a7.91,7.91,0,0,0-.246,1.248c-.065.377-.156.858-.273,1.482a7.542,7.542,0,0,1,.766-.039A2.482,2.482,0,0,1,37.7,78.4a2.624,2.624,0,0,1,.638,2.093,8.96,8.96,0,0,1-.871,4.472,1.36,1.36,0,0,1-1.275.611,4.891,4.891,0,0,1-1.962-.507,2.828,2.828,0,0,0,.026-.455,2.517,2.517,0,0,0-.039-.52,4.856,4.856,0,0,0,1.936.6q.489,0,.742-.624a10.088,10.088,0,0,0,.545-3.614c0-1.378-.389-1.82-1.6-1.82a7.489,7.489,0,0,0-.937.065,24.477,24.477,0,0,1-1.963,5.512c-.168.312-.442.832-.844,1.56l-.885-.52A12.467,12.467,0,0,0,32.56,82.9a21.393,21.393,0,0,0,1.43-4.121c-1.118.169-1.742.273-1.858.3a7.321,7.321,0,0,0-.754.169Zm8.541-1.2a11.746,11.746,0,0,1,2.718,4.6L41.7,82.2a10.641,10.641,0,0,0-2.652-4.667Z"/><path d="M46.666,75.477a22.477,22.477,0,0,0-.794,5.668c0,.715.053,1.677.1,2.119a4.655,4.655,0,0,1,.078.7,14.121,14.121,0,0,1,1.091-2.756l.664.312a24.385,24.385,0,0,0-.962,2.275,5.081,5.081,0,0,0-.365,1.651l-.9.078a3.49,3.49,0,0,0-.105-.455A14.792,14.792,0,0,1,45,81.223a26.7,26.7,0,0,1,.519-5,6.665,6.665,0,0,0,.118-.9ZM47.991,78.1a10.526,10.526,0,0,0,2.211.169c.52,0,1-.026,1.65-.078a24.561,24.561,0,0,0-.156-3.029l1-.013a3.055,3.055,0,0,0-.039.442c0,.091,0,.156.013.39.013.3.013.3.078,2.106a6.844,6.844,0,0,0,2.066-.546l.066.936a6.58,6.58,0,0,0-.69.156,12.32,12.32,0,0,1-1.417.26c.014.351.014.559.014.936,0,2.47-.234,3.536-1,4.576a6.284,6.284,0,0,1-2.041,1.677,3.018,3.018,0,0,0-.7-.7,5.338,5.338,0,0,0,1.989-1.495c.662-.845.87-1.794.87-3.874,0-.364,0-.65-.025-1.027-.572.052-1.326.078-1.9.078-.364,0-1.1-.026-1.573-.052A1.847,1.847,0,0,0,48.174,79a1.3,1.3,0,0,0-.2.013Z"/><path d="M63.279,75.815a4.3,4.3,0,0,0-.052-.755H64.2a10.647,10.647,0,0,0-.065,1.626v.143c2.457-.013,3.458-.039,3.886-.091v.923a23.069,23.069,0,0,0-2.482-.065c-.2,0-.338,0-1.392.026V80.2a3.71,3.71,0,0,1,.313,1.534,4.184,4.184,0,0,1-1.742,3.393,8.305,8.305,0,0,1-2.054,1.053,2.894,2.894,0,0,0-.572-.819,6.656,6.656,0,0,0,2.105-.975,3.367,3.367,0,0,0,1.456-2.743,1.8,1.8,0,0,1-.35.637,2.174,2.174,0,0,1-3.771-1.352,2.164,2.164,0,0,1,2.3-2.145,2,2,0,0,1,1.508.585c-.013-.182-.013-.234-.013-.715,0-.052-.014-.182-.014-.338v-.676c-2.612.052-5.239.182-6.11.325l-.038-.949c.233.013.324.013.519.013.377,0,.377,0,2.47-.078,1.248-.052,2.263-.078,3.147-.1Zm-.558,3.913a1.665,1.665,0,0,0-.871-.208,1.376,1.376,0,0,0-1.444,1.365,1.257,1.257,0,0,0,1.34,1.287,1.457,1.457,0,0,0,1.521-1.534A.941.941,0,0,0,62.721,79.728Z"/><path d="M72.2,75.815a6.015,6.015,0,0,0,1.223.078c1.079,0,2.807-.078,3.977-.169a1.329,1.329,0,0,0,.624-.143l.546.715a2.415,2.415,0,0,0-.663.546,33.366,33.366,0,0,1-4.276,3.692l.025.039a6.591,6.591,0,0,1,3.186-.806c2.171,0,3.561,1.066,3.561,2.73,0,2.028-1.884,3.367-4.77,3.367-1.833,0-2.887-.676-2.887-1.872a1.69,1.69,0,0,1,1.886-1.521,2.615,2.615,0,0,1,2.144,1.066,3.722,3.722,0,0,1,.6,1.248c1.364-.377,2.08-1.17,2.08-2.275,0-1.248-1.04-1.989-2.8-1.989a8.34,8.34,0,0,0-5.472,2.223l-.585-.832a14.633,14.633,0,0,0,1.82-1.326c1.391-1.105,3.444-2.912,4.342-3.8l.181-.182L77,76.556l.052-.052-.027-.026a.5.5,0,0,0-.117.013c-.416.078-1.975.169-3.952.234a6.386,6.386,0,0,0-.7.065Zm2.445,7.4c-.651,0-1.053.312-1.053.806a.888.888,0,0,0,.519.793,3.325,3.325,0,0,0,1.456.3,4.684,4.684,0,0,0,.95-.091C76.227,83.836,75.578,83.212,74.642,83.212Z"/><path d="M83.378,76.686a10.726,10.726,0,0,0-.053-1.248,11.7,11.7,0,0,0,1.2.039h.962a11.172,11.172,0,0,0,1.17-.039,9.632,9.632,0,0,0-.039,1.274v7.124c0,.624.014.962.039,1.248h-.805v-.65h-1.7V85.5H83.3a10.4,10.4,0,0,0,.078-1.378Zm.766,2.743h1.7V76.205h-1.7Zm0,4.277h1.7V80.131h-1.7ZM88.682,77a11.331,11.331,0,0,0-1.248.065v-.858a7.633,7.633,0,0,0,1.235.078h1.378v-.416a6.8,6.8,0,0,0-.078-1.053h.962a6.323,6.323,0,0,0-.079,1.053v.416H92.7a7.866,7.866,0,0,0,1.235-.078v.858A10.742,10.742,0,0,0,92.7,77H90.852v1.69h2.3a8.511,8.511,0,0,0,1.313-.078v.871a8.345,8.345,0,0,0-1.261-.078h-.43v1.521h.4a7.953,7.953,0,0,0,1.274-.078v.9a8.656,8.656,0,0,0-1.274-.078h-.4v3.64c0,.832-.285,1.027-1.494,1.027-.208,0-.416-.013-1.171-.052a2.275,2.275,0,0,0-.208-.858,9.46,9.46,0,0,0,1.483.156c.494,0,.585-.052.585-.338V81.665H88.305a9.693,9.693,0,0,0-1.3.078v-.9a8.276,8.276,0,0,0,1.312.078h3.654V79.4H88.317a9.475,9.475,0,0,0-1.312.078V78.61a8.622,8.622,0,0,0,1.312.078h1.73V77Zm1,7.813a11.8,11.8,0,0,0-1.807-2.184l.637-.455a13.989,13.989,0,0,1,1.872,2.119Z"/><path d="M97.184,84.967a9.366,9.366,0,0,0,.078,1.456H96.3a9.717,9.717,0,0,0,.078-1.456v-8.4a14.292,14.292,0,0,0-.053-1.43,12.033,12.033,0,0,0,1.365.052h1.86a11.417,11.417,0,0,0,1.326-.052c-.026.364-.039.754-.039,1.235v1.612c0,.52.013.884.039,1.209-.352-.026-.793-.039-1.314-.039H97.184Zm0-8.1H100.1v-1.04H97.184Zm0,1.664H100.1V77.479H97.184Zm6.825,4.927c0,.494.012.845.039,1.183-.364-.026-.793-.039-1.326-.039H99.875v.91h-.807a8,8,0,0,0,.066-1.222V81.405c0-.468-.014-.845-.039-1.222a11.654,11.654,0,0,0,1.287.052h2.379a11.528,11.528,0,0,0,1.287-.052c-.027.364-.039.7-.039,1.222Zm-4.134-1.417h3.393V80.885H99.875Zm0,1.911h3.393V82.692H99.875Zm6.968,1.209c0,.858-.273,1.079-1.326,1.079-.273,0-.975-.026-1.3-.052a2.95,2.95,0,0,0-.235-.832,14.176,14.176,0,0,0,1.431.13c.533,0,.637-.065.637-.377V79.156h-2.665c-.546,0-.962.013-1.314.039.027-.338.039-.728.039-1.209V76.374c0-.455-.012-.845-.039-1.235a11.264,11.264,0,0,0,1.326.052h2.146a12.033,12.033,0,0,0,1.365-.052,12.084,12.084,0,0,0-.065,1.43Zm-3.991-8.294h3.2v-1.04h-3.2Zm0,1.664h3.2V77.479h-3.2Z"/><path d="M117.645,75.88v-.143a5.725,5.725,0,0,0-.051-.975h.9a4.884,4.884,0,0,0-.065.988v.13h.52a8.321,8.321,0,0,0,1.443-.078v.884a10.554,10.554,0,0,0-1.417-.065h-.546v1.235a8.2,8.2,0,0,0,.039.858,7.684,7.684,0,0,0-1.067-.039h-5.707c-.272,0-.78.013-1.013.039a8.327,8.327,0,0,0,.039-.9v-1.2h-.482a10.437,10.437,0,0,0-1.417.065V75.8a8.154,8.154,0,0,0,1.43.078h.469v-.117a5.333,5.333,0,0,0-.066-1h.9a5.441,5.441,0,0,0-.053,1v.117h2.613v-.169a5.324,5.324,0,0,0-.064-1.04h.91a5.15,5.15,0,0,0-.065,1.04v.169Zm-7.787,4.472v1.872H109a7.14,7.14,0,0,0,.053-.962V80.6A8.052,8.052,0,0,0,109,79.572a12.4,12.4,0,0,0,1.4.052h8.308c.637,0,1.079-.013,1.469-.052a9.312,9.312,0,0,0-.052,1.131v.663a5.253,5.253,0,0,0,.052.884h-.858v-1.9H114.89v1.3h2.392a10.972,10.972,0,0,0,1.235-.052,8.948,8.948,0,0,0-.052,1.144v1.833c0,.754-.247.9-1.586.9-.117,0-.3,0-.7-.013a4.76,4.76,0,0,0-.182-.832,8.673,8.673,0,0,0,1.144.065,2.4,2.4,0,0,0,.377-.026c.129-.039.156-.078.156-.26V82.367H114.89V85.24a8.968,8.968,0,0,0,.078,1.352h-.949a9.1,9.1,0,0,0,.078-1.352V82.367h-2.575v1.859a9.8,9.8,0,0,0,.052,1.326h-.91a8.378,8.378,0,0,0,.065-1.313V82.77a10.775,10.775,0,0,0-.051-1.17,11.273,11.273,0,0,0,1.26.052H114.1v-1.3Zm4.251-3.731H111.5v1.352h2.613Zm3.536,1.352V76.621H114.89v1.352Z"/><path d="M124.666,75.516a18.445,18.445,0,0,0-.547,2.08,19.284,19.284,0,0,0-.39,4.069c0,1.014.027,1.781.079,2.47a12.014,12.014,0,0,1,.844-2.535l.624.3a11.325,11.325,0,0,0-1.052,3.575v.195l-.937.078c-.025-.208-.039-.273-.077-.52a18.634,18.634,0,0,1-.339-3.679,21.506,21.506,0,0,1,.585-5.148,7.286,7.286,0,0,0,.183-1.04Zm3.314,5.226a3.023,3.023,0,0,0-.974,1.911c0,.962.818,1.43,2.5,1.43a8.556,8.556,0,0,0,2.99-.455l.13,1c-.169.013-.2.026-.455.065a13.412,13.412,0,0,1-2.665.26,3.615,3.615,0,0,1-2.978-.988,1.842,1.842,0,0,1-.389-1.2,3.591,3.591,0,0,1,1.131-2.418Zm-1.65-3.848a8.824,8.824,0,0,0,2.21.195,13.946,13.946,0,0,0,3.483-.351l.066.923c-.027,0-.325.039-.9.117a21.946,21.946,0,0,1-2.8.169,17.34,17.34,0,0,1-2.08-.13Z"/><path d="M37.306,99.858a5.407,5.407,0,0,0,1.013.065h.676a6.065,6.065,0,0,0,1-.065,9.729,9.729,0,0,0-.064,1.378v2.548a1.867,1.867,0,0,0,.636.832c.754.559,1.534.715,3.38.715a36.647,36.647,0,0,0,5.227-.247,3.164,3.164,0,0,0-.3.949c-1.157.052-2.99.091-4.524.091-2.159,0-2.938-.13-3.77-.611a3.109,3.109,0,0,1-1.079-1.066,13.306,13.306,0,0,1-1.534,1.339,5.094,5.094,0,0,0-.507.429l-.43-.858a8.327,8.327,0,0,0,2.094-1.56v-3.146h-.858a5.149,5.149,0,0,0-.962.065Zm.78-4.914a17.319,17.319,0,0,1,2.093,2.288l-.663.6a12.127,12.127,0,0,0-2.029-2.366Zm3.691,1.625a6.754,6.754,0,0,0-1.221.065v-.806a10.527,10.527,0,0,0,1.351.065h2.276a6.671,6.671,0,0,0-.091-1.17H45a6.389,6.389,0,0,0-.091,1.17h2.522a10.694,10.694,0,0,0,1.352-.065v.806a7.921,7.921,0,0,0-1.3-.065H44.911V97.6h2.171a7.854,7.854,0,0,0,1.014-.052,6.105,6.105,0,0,0-.052.884v2.6a5.558,5.558,0,0,0,.052.845,7.985,7.985,0,0,0-1.014-.052H44.911v1.066h2.626a7.541,7.541,0,0,0,1.287-.065v.806a8.02,8.02,0,0,0-1.3-.065H44.911v.247A6.831,6.831,0,0,0,45,104.993h-.91a7.034,7.034,0,0,0,.091-1.183v-.247H41.894a10.47,10.47,0,0,0-1.3.065v-.806a7.707,7.707,0,0,0,1.3.065h2.289v-1.066H42.22a8.491,8.491,0,0,0-1.028.052,5.783,5.783,0,0,0,.052-.845V98.4a6.086,6.086,0,0,0-.052-.858,7.616,7.616,0,0,0,1.015.052h1.976V96.569ZM42,98.246v1.105h2.184V98.246Zm0,1.729v1.2h2.184v-1.2Zm2.912-.624H47.29V98.246H44.911Zm0,1.82H47.29v-1.2H44.911Z"/><path d="M51.748,101.977a13.34,13.34,0,0,1-.793,3.666l-.715-.338a10.339,10.339,0,0,0,.768-3.523Zm-1.494-1.651a2.81,2.81,0,0,0,.48.026c.118,0,.377-.013.612-.013.142-.182.4-.559.805-1.131a14.211,14.211,0,0,0-1.872-2.249l.494-.6c.287.312.377.416.585.663a8.554,8.554,0,0,0,1.106-2.432l.832.339a5.243,5.243,0,0,0-.482.871,16.369,16.369,0,0,1-1,1.768c.365.442.429.533.767,1a12.953,12.953,0,0,0,1.365-2.522l.781.416c-.052.065-.3.468-.742,1.2-.416.689-1.26,1.911-1.82,2.626.832-.065,1.223-.1,1.964-.208a7.782,7.782,0,0,0-.482-1.014l.6-.26a12.111,12.111,0,0,1,.963,2.223,10.953,10.953,0,0,0,2.8-1.7,8.531,8.531,0,0,1-1.392-1.807,10.956,10.956,0,0,1-1.39,1.417,1.931,1.931,0,0,0-.573-.546,8.709,8.709,0,0,0,1.9-1.95,5.6,5.6,0,0,0,.923-1.833l.819.3c-.078.131-.13.222-.222.4-.169.325-.194.377-.338.624H59.64a6.328,6.328,0,0,0,1.222-.065l.468.507a5.474,5.474,0,0,0-.312.468,11.689,11.689,0,0,1-1.9,2.457,9.887,9.887,0,0,0,3.3,1.677,2.631,2.631,0,0,0-.416.832,11.012,11.012,0,0,1-3.446-1.976,12.536,12.536,0,0,1-3.2,2.015,2.191,2.191,0,0,0-.3-.494l-.441.2c-.117-.39-.156-.533-.247-.819-.377.065-.585.091-1.118.156v4.3a8.66,8.66,0,0,0,.078,1.3h-.924a8.851,8.851,0,0,0,.078-1.313v-4.212c-.208.013-.233.013-.389.026-1.04.091-1.04.091-1.716.169Zm4.212,1.43a16.65,16.65,0,0,1,.636,2.964l-.714.2a12.332,12.332,0,0,0-.585-2.977Zm2.34,4.719h-.832a8.117,8.117,0,0,0,.065-1.313v-2.418A8.547,8.547,0,0,0,56,101.613c.3.026.494.026,1.053.026H60.1c.546,0,.8-.013,1.066-.026a10.786,10.786,0,0,0-.039,1.131v2.405a8.336,8.336,0,0,0,.064,1.326h-.844v-.689H56.806Zm0-1.4h3.536v-2.7H56.806Zm.481-8.45c-.092.13-.131.169-.2.273a6.394,6.394,0,0,0,1.468,1.924,9.064,9.064,0,0,0,1.665-2.2Z"/><path d="M66.764,95.36A19.868,19.868,0,0,0,66.6,98.1c-.052,1.56-.091,3.328-.091,3.913,0,.156.013.481.025.78a2.05,2.05,0,0,0,.612,1.56,2.454,2.454,0,0,0,1.625.507A3.734,3.734,0,0,0,72.25,102.6a7.723,7.723,0,0,0,.637-2.041,3.677,3.677,0,0,0,.936.624,7.908,7.908,0,0,1-1.443,2.951,4.553,4.553,0,0,1-3.666,1.625,3.085,3.085,0,0,1-2.445-.91,3.622,3.622,0,0,1-.714-2.665c0-.871.012-1.2.117-5.291.013-.39.013-.637.013-.845a4,4,0,0,0-.052-.689Z"/><path d="M86.472,105.37a10.45,10.45,0,0,0-2.653-1.859c-.22-.117-.519-.247-.871-.39a3.6,3.6,0,0,1,.027.468,2.25,2.25,0,0,1-.326,1.417,2.617,2.617,0,0,1-2.2.819,3.391,3.391,0,0,1-2.015-.52,1.7,1.7,0,0,1-.7-1.365c0-.858.676-1.534,1.821-1.794a5.654,5.654,0,0,1,1.351-.13,5.785,5.785,0,0,1,1.171.1c-.014-.039-.014-.039-.014-.156a1.119,1.119,0,0,1-.012-.143c-.013-.117-.013-.39-.027-.767-.012-.169-.012-.416-.025-.754-.469.013-1.118.026-1.534.026-.781,0-1.392-.026-2.2-.091-.143-.013-.248-.013-.326-.013h-.1l.012-.858a15.967,15.967,0,0,0,2.978.208c.338,0,.793,0,1.156-.013l-.025-1.781c-.377.013-.585.013-.885.013-.948,0-2-.039-3.172-.13a1.571,1.571,0,0,0-.233-.013,1.072,1.072,0,0,0-.183.013l.014-.884a16.136,16.136,0,0,0,3.328.26c.26,0,.7-.013,1.131-.013a10.218,10.218,0,0,0-.066-1.872h1a14.58,14.58,0,0,0-.09,1.833,18.337,18.337,0,0,0,3.848-.533l.065.884c-.221.013-.221.013-.9.1a27.006,27.006,0,0,1-3.016.312c.012,1.066.012,1.066.026,1.755a15.691,15.691,0,0,0,3.6-.533l.051.9c-.169.013-.3.026-.754.091-.9.143-1.923.247-2.885.312.026.728.026.728.078,1.989a11.379,11.379,0,0,1,3.627,1.9,4.444,4.444,0,0,0,.442.3Zm-4.394-2.457a4.776,4.776,0,0,0-1.326-.143c-1.287,0-2.133.468-2.133,1.157s.65,1.079,1.781,1.079a1.879,1.879,0,0,0,1.431-.429,1.7,1.7,0,0,0,.26-1.17Z"/><path d="M93,95.607a15.044,15.044,0,0,0-.117,2.717c2.105-.117,2.626-.143,4.251-.208v-.364c.012-.143.012-.286.012-.442a12.33,12.33,0,0,0-.078-1.976h1a7.056,7.056,0,0,0-.051,1v.546L98,97.726v.351c1.273-.026,2.288-.065,2.717-.117l.026.923c-.352-.026-.43-.026-.976-.026-.116,0-.455,0-.883.013-.208,0-.494.013-.91.013a12.361,12.361,0,0,1-.234,2.535,1.3,1.3,0,0,1-1.313,1.144,3.726,3.726,0,0,1-1.807-.6c.013-.195.025-.26.025-.39s-.012-.273-.025-.533a3.688,3.688,0,0,0,1.7.715c.363,0,.52-.208.637-.845a11.927,11.927,0,0,0,.156-2c-1.573.052-2.51.1-4.238.221v1.17a19.933,19.933,0,0,0,.13,3.276,1.117,1.117,0,0,0,.871.845,7.218,7.218,0,0,0,2.028.221,11.779,11.779,0,0,0,3.613-.481l.105,1c-.182.013-.208.026-.521.065a22.09,22.09,0,0,1-3.289.273c-2.313,0-3.3-.442-3.639-1.612a13.718,13.718,0,0,1-.169-3.081V99.182a26.228,26.228,0,0,0-2.614.273l-.078-.91a2.783,2.783,0,0,0,.286.013c.235,0,1.04-.052,2.406-.169v-.845a13.75,13.75,0,0,0-.066-1.937Z"/><path d="M107.6,95.373c-.169.312-.169.312-1.444,3.575a21.773,21.773,0,0,1-.935,2.145c-.027.052-.078.156-.144.286a1.962,1.962,0,0,0-.116.234l.064.026c.859-1.235,1.522-1.7,2.445-1.7a1.445,1.445,0,0,1,1.3.767,3.282,3.282,0,0,1,.22,1.469v.884a2.219,2.219,0,0,0,.208,1.235,1.213,1.213,0,0,0,.989.4,2.25,2.25,0,0,0,2.08-1.625,5.693,5.693,0,0,0,.494-1.846,3.71,3.71,0,0,0,.858.663,7.021,7.021,0,0,1-.924,2.288,3.024,3.024,0,0,1-2.587,1.417,1.828,1.828,0,0,1-1.9-1.17,5.359,5.359,0,0,1-.117-1.4v-.741a2.8,2.8,0,0,0-.1-.988.694.694,0,0,0-.74-.481c-.755,0-1.6.689-2.327,1.924a13.259,13.259,0,0,0-1.2,2.99l-1-.312c.169-.364.169-.364,2.041-5.356,1.417-3.757,1.7-4.576,1.781-4.966Z"/><path class="col2" d="M71,32.21a3,3,0,0,0,.66,1.276,3.332,3.332,0,0,0,2.706,1.122,3.412,3.412,0,0,0,3.608-3.631,3.281,3.281,0,0,0-3.454-3.542A3.868,3.868,0,0,0,71.8,28.447a2.523,2.523,0,0,0-.66.99l-2.75-.264c.219-1.562.242-1.672.286-2.288l.506-5.457c.021-.4.065-1.144.088-2.244.66.044,1.166.066,2.332.066H77.01a16.751,16.751,0,0,0,3.058-.176v2.772a21.109,21.109,0,0,0-3.037-.176h-5.17l-.352,3.851q-.033.264-.132.924A5.413,5.413,0,0,1,75.14,25.1a5.653,5.653,0,0,1,4.29,1.65,5.408,5.408,0,0,1,1.562,4.136c0,3.873-2.53,6.271-6.623,6.271a6.118,6.118,0,0,1-6.4-4.312Z"/></svg>