<svg data-name="customer-2" xmlns="http://www.w3.org/2000/svg" viewBox="0 0 149 149"><circle class="col1" cx="74.5" cy="74.5" r="74"/><path d="M35.072,56.816a5.555,5.555,0,0,0,1.04.065h2.054a5.307,5.307,0,0,0,1.04-.065v.845a5.939,5.939,0,0,0-.949-.052H36.112a7.647,7.647,0,0,0-1.04.052Zm.416,9.386a12.556,12.556,0,0,0,.065-1.261V63.264a9.065,9.065,0,0,0-.052-1.053,4.236,4.236,0,0,0,.832.052h1.6a4.794,4.794,0,0,0,.78-.039,5.761,5.761,0,0,0-.039,1.014v1.378c0,.377,0,.533.026.845-.169-.013-.442-.026-.7-.026H36.268V66.2Zm.026-7.553a5.156,5.156,0,0,0,.884.052h1.573a4.821,4.821,0,0,0,.858-.052v.806a5.518,5.518,0,0,0-.858-.052H36.4a5.353,5.353,0,0,0-.884.052Zm0,1.794a5.353,5.353,0,0,0,.884.052h1.56a4.987,4.987,0,0,0,.871-.052v.806a5.279,5.279,0,0,0-.871-.052H36.385a5.18,5.18,0,0,0-.871.052Zm.026-5.421a4.624,4.624,0,0,0,.936.065h1.6a4.783,4.783,0,0,0,.936-.065v.819a6.4,6.4,0,0,0-.936-.052h-1.6a6.634,6.634,0,0,0-.936.052Zm.715,9.737H38V62.926H36.255Zm7.982-7.267c0,.208.013.4.013.507a20.572,20.572,0,0,0,.416,4,10.474,10.474,0,0,0,1.015-2.6,6.316,6.316,0,0,0,.129-.715l.806.338a4.843,4.843,0,0,0-.26.728,13.477,13.477,0,0,1-1.43,3.237,4.691,4.691,0,0,0,1.118,2.132c.118-.052.118-.052.234-.546a9.131,9.131,0,0,0,.13-1.339,2.006,2.006,0,0,0,.69.455c-.169,1.69-.455,2.379-.975,2.379-.339,0-.689-.286-1.054-.884a7.75,7.75,0,0,1-.675-1.4,9.684,9.684,0,0,1-2.887,2.652,1.946,1.946,0,0,0-.572-.6,8.912,8.912,0,0,0,3.185-2.912,22.483,22.483,0,0,1-.65-5.434H40.519v.793c0,.338,0,.6-.013,1.092H41.78a8.781,8.781,0,0,0,1.131-.052c-.026.234-.026.26-.065,1.352a10.255,10.255,0,0,1-.364,3.068c-.169.325-.4.416-.988.416a5.886,5.886,0,0,1-.728-.052,2.628,2.628,0,0,0-.143-.793,3.793,3.793,0,0,0,.845.1c.312,0,.39-.1.468-.585a27.085,27.085,0,0,0,.156-2.743h-1.6c-.065,1.846-.1,2.639-.182,3.315a7.958,7.958,0,0,1-.936,3.016,1.677,1.677,0,0,0-.663-.533,5.989,5.989,0,0,0,.819-2.392,46.687,46.687,0,0,0,.221-5.252c0-.754-.013-1.092-.052-1.547a10.08,10.08,0,0,0,1.261.065h2.483c0-.377,0-.6-.013-1.2a5.342,5.342,0,0,0-.052-.845h.911a4.523,4.523,0,0,0-.065.9v1.144h1.4a7.684,7.684,0,0,0,1.262-.078v.871a13,13,0,0,0-1.34-.065Zm1.755-1.027a6.217,6.217,0,0,0-1.4-1.313l.494-.442a7.652,7.652,0,0,1,1.457,1.235Z"/><path d="M54.546,62.588a6.079,6.079,0,0,0,1.69,1.625,9.913,9.913,0,0,0,3.6,1.326,3.36,3.36,0,0,0-.494.845c-2.756-.728-4.355-1.768-5.6-3.653A5.015,5.015,0,0,1,51.7,65.162a8.965,8.965,0,0,1-2.951,1.2,3.044,3.044,0,0,0-.481-.819,7.888,7.888,0,0,0,2.782-.936,4.321,4.321,0,0,0,1.911-2.015h-3.3a8.589,8.589,0,0,0-1.209.078V61.8a7.212,7.212,0,0,0,1.2.078h3.562a7.632,7.632,0,0,0,.182-1.248H51.036a6.318,6.318,0,0,0-1.131.065v-.819a6.407,6.407,0,0,0,1.131.065h2.418c.026-.507.026-.65.039-1.157H50.984a8.041,8.041,0,0,0-1.248.078v-.845a7.7,7.7,0,0,0,1.248.078h2.522a4.74,4.74,0,0,0-.078-1.053h.962a4.68,4.68,0,0,0-.065,1.053h2.717a7.592,7.592,0,0,0,1.248-.078v.845a6.852,6.852,0,0,0-1.248-.078h-2.73c-.013.416-.026.728-.052,1.157h2.574a6.244,6.244,0,0,0,1.118-.065v.819a6.237,6.237,0,0,0-1.118-.065H54.208a9.721,9.721,0,0,1-.2,1.248h4.446a7.379,7.379,0,0,0,1.209-.078v.871a8.519,8.519,0,0,0-1.222-.078ZM53.48,55.464a3.407,3.407,0,0,0-.091-.806H54.4a4.133,4.133,0,0,0-.078.806v.494h3.822a12.714,12.714,0,0,0,1.3-.052,5.92,5.92,0,0,0-.052.871v.767a5.843,5.843,0,0,0,.052.9H58.6V56.673H49.45v1.768h-.858a5.952,5.952,0,0,0,.052-.9V56.79a5.991,5.991,0,0,0-.052-.884,12.821,12.821,0,0,0,1.313.052H53.48Z"/><path d="M61.774,62.913a13.246,13.246,0,0,1,2.613,2.756l-.728.689A12.975,12.975,0,0,0,61.1,63.524Z"/><path d="M75.71,56.3a9.014,9.014,0,0,0-1.4.078v-.988a10.332,10.332,0,0,0,1.391.078H84.33a10.516,10.516,0,0,0,1.4-.078v.988a11.079,11.079,0,0,0-1.4-.078H80.689v8.788c0,.936-.3,1.144-1.625,1.144a12.94,12.94,0,0,1-1.69-.1,2.911,2.911,0,0,0-.208-.923,9.686,9.686,0,0,0,1.976.2c.494,0,.6-.065.6-.416V56.3Z"/><path d="M88.866,63.953a10.125,10.125,0,0,0-1.534.078V63.16a9.437,9.437,0,0,0,1.534.078h8.2a11.713,11.713,0,0,0,1.625-.078v.871a12.512,12.512,0,0,0-1.625-.078H93.676v1.456c0,.819-.286,1-1.625,1-.39,0-.819-.026-1.352-.078a2.212,2.212,0,0,0-.234-.806,7.964,7.964,0,0,0,1.677.169c.6,0,.7-.052.7-.377V63.953Zm3.64-8.45a3.327,3.327,0,0,0-.078-.858h.988a3.579,3.579,0,0,0-.078.845v.286H96.81a17.781,17.781,0,0,0,1.78-.065,5.935,5.935,0,0,0-.051.91v.455a5.354,5.354,0,0,0,.051.845h-.832V56.465H88.281V57.9h-.832a4.8,4.8,0,0,0,.052-.819v-.52a5.449,5.449,0,0,0-.052-.845,13.817,13.817,0,0,0,1.625.065h3.432ZM87.8,59.078a5.857,5.857,0,0,0,1.82-1.937l.559.429a8.072,8.072,0,0,1-1.807,2.041Zm9.659,2.535a5.758,5.758,0,0,0,.052.858,9.429,9.429,0,0,0-1.183-.052H89.646a9.429,9.429,0,0,0-1.183.052,5.627,5.627,0,0,0,.052-.858V60.7a5.49,5.49,0,0,0-.052-.832,11.262,11.262,0,0,0,1.274.052H96.29a9.722,9.722,0,0,0,1.221-.052,5.464,5.464,0,0,0-.052.845Zm-6.188-1.066H89.3v1.261h1.976Zm.286-3.718a3.766,3.766,0,0,0-.065.845v.689c0,.221.143.247,1.4.247a6.105,6.105,0,0,0,1.859-.117c.143-.065.234-.377.234-.819v-.208a2.263,2.263,0,0,0,.728.3c-.143,1.43-.234,1.482-2.587,1.482-2.21,0-2.392-.052-2.392-.689v-.806a5.055,5.055,0,0,0-.065-.923Zm2.392,3.718H92v1.261h1.95Zm-.325-2.379a5.733,5.733,0,0,0-1.456-1.1l.507-.4a7.942,7.942,0,0,1,1.469,1.053Zm3.055,3.64V60.547h-2v1.261Zm.9-2.3a8.551,8.551,0,0,0-1.755-2.041l.573-.364a11.873,11.873,0,0,1,1.833,1.989Z"/><path d="M104.817,55.1a4.072,4.072,0,0,0-.208.832c-.091.442-.169.754-.351,1.417a10.818,10.818,0,0,0,2.327-.429l.039.9c-.143.026-.143.026-.455.078a15.694,15.694,0,0,1-2.132.273,24.22,24.22,0,0,1-1.443,3.8c-.312.624-.429.845-.923,1.7-.117.182-.2.338-.26.442l-.884-.52a11.477,11.477,0,0,0,1.248-2.028,19.465,19.465,0,0,0,1.352-3.354c-.325.013-.767.026-.962.026-.221,0-.663-.013-.858-.013-.143-.013-.247-.013-.286-.013h-.169l.013-.9a8.215,8.215,0,0,0,1.547.1c.26,0,.689-.013.936-.013a13.375,13.375,0,0,0,.442-2.444Zm6.175,10.088a7.436,7.436,0,0,0-2.275-1.768,2.7,2.7,0,0,1,.026.416c0,1.339-.884,2.08-2.47,2.08-1.56,0-2.535-.728-2.535-1.885a1.844,1.844,0,0,1,1.209-1.651,3.8,3.8,0,0,1,1.534-.286,4.29,4.29,0,0,1,1.313.2c-.065-.845-.091-1.456-.091-1.781a5.264,5.264,0,0,1,.13-1.261l.884.091a3.99,3.99,0,0,0-.169,1.209,15.508,15.508,0,0,0,.143,1.976,9.323,9.323,0,0,1,2.548,1.573,1.278,1.278,0,0,0,.235.208Zm-4.576-2.327c-1.1,0-1.807.455-1.807,1.17,0,.663.624,1.066,1.651,1.066,1.118,0,1.625-.442,1.625-1.417,0-.156-.026-.559-.026-.559A3.858,3.858,0,0,0,106.416,62.861Zm4.563-3.536a14.1,14.1,0,0,0-3.445-1.768l.481-.728a17.918,17.918,0,0,1,3.432,1.716Z"/><path d="M57.341,76.088a7.429,7.429,0,0,0-.078-1.313h.962a9.6,9.6,0,0,0-.065,1.313v.871H59.4a7.9,7.9,0,0,0,1.2-.078v.871a9.168,9.168,0,0,0-1.183-.052,12.474,12.474,0,0,1-.923,4.095,25.418,25.418,0,0,1,1.859,2.73l-.65.624A24.214,24.214,0,0,0,58.108,82.6a10.578,10.578,0,0,1-2.886,3.471,2.291,2.291,0,0,0-.65-.624,9.1,9.1,0,0,0,3-3.549,22.6,22.6,0,0,0-2.353-2.652l.611-.52a29.611,29.611,0,0,1,2.093,2.353,11.936,11.936,0,0,0,.637-3.38h-2.7a6.834,6.834,0,0,0-1.157.065v-.884a7.9,7.9,0,0,0,1.2.078h1.443Zm3.77,3.484a14.781,14.781,0,0,1,1.924,2.9l-.715.494a11.421,11.421,0,0,0-1.872-2.99Zm.819-1.079a8.024,8.024,0,0,0-1.222.078v-.884a7.5,7.5,0,0,0,1.235.065h2.028V76.3a7.453,7.453,0,0,0-.091-1.417h1A8.8,8.8,0,0,0,64.8,76.3v1.456h.325a8.124,8.124,0,0,0,1.262-.078v.9a7.808,7.808,0,0,0-1.275-.078H64.8v6.7c0,.858-.26,1.053-1.43,1.053-.585,0-.91-.013-1.482-.039a3.119,3.119,0,0,0-.273-.871,12.48,12.48,0,0,0,1.664.143c.585,0,.689-.052.689-.325V78.493Z"/><path d="M73.344,75.373a4.169,4.169,0,0,0-.078-.819h1a2.9,2.9,0,0,0-.078.832v.676h3.692a8.953,8.953,0,0,0,1.405-.078v.9a10.023,10.023,0,0,0-1.405-.065H69.509a38.108,38.108,0,0,1-.312,6.448,8.258,8.258,0,0,1-1.014,2.951,3.421,3.421,0,0,0-.728-.6c.975-1.664,1.209-3.172,1.209-7.865A14,14,0,0,0,68.6,76a9.949,9.949,0,0,0,1.313.065h3.432ZM69.626,84.59a9.833,9.833,0,0,0,1.1-4.251l.819.221a12.912,12.912,0,0,1-1.144,4.5Zm3.861-5.382a6.43,6.43,0,0,0-.078,1.183v4.654c0,.208.039.273.208.338a4.28,4.28,0,0,0,1.053.078c1.118,0,1.443-.078,1.573-.351a7.452,7.452,0,0,0,.221-2.015V82.77a3,3,0,0,0,.832.325c-.09,1.625-.247,2.431-.533,2.743s-.78.4-2.041.4c-1.833,0-2.145-.13-2.145-.9V80.378a6.364,6.364,0,0,0-.078-1.17Zm2.327.806a11.417,11.417,0,0,0-3.133-2.145l.546-.572a16.439,16.439,0,0,1,3.159,2.054Zm2.744,4.849a13.83,13.83,0,0,0-1.5-4.3l.754-.325A18.749,18.749,0,0,1,79.4,84.5Z"/><path d="M84.719,76.751a5.517,5.517,0,0,0,.624-1.781l1.04.182a2.761,2.761,0,0,0-.338.7c-.169.416-.338.767-.4.884a2.213,2.213,0,0,1,.273-.013,18.3,18.3,0,0,0,4.095-.494l.078.884a4.052,4.052,0,0,0-.52.065,41.975,41.975,0,0,1-4.29.338,9.586,9.586,0,0,1-1.17,1.846c-.13.156-.39.455-.442.494-.091.065-.156.117-.169.13a.013.013,0,0,1-.013.013v.013a.1.1,0,0,0,.026.039c.468-.364.468-.364.6-.455a3.46,3.46,0,0,1,1.963-.637A1.578,1.578,0,0,1,87.787,80.4c.949-.377,1.69-.65,2.262-.858a2.871,2.871,0,0,0,.885-.377l.416.91a21.554,21.554,0,0,0-3.472,1.144c.026.338.026.468.026.793,0,.169,0,.455-.013.715-.013.286-.013.468-.013.585a2.826,2.826,0,0,0,.026.468l-.884.013a18.7,18.7,0,0,0,.078-1.872,3.416,3.416,0,0,0-.013-.39c-1.768.832-2.444,1.443-2.444,2.223,0,.858.806,1.235,2.639,1.235a10.892,10.892,0,0,0,3.471-.507l.117,1a5.067,5.067,0,0,0-.519.065,20.19,20.19,0,0,1-3.16.26c-2.327,0-3.458-.663-3.458-2a2.688,2.688,0,0,1,1.326-2.054,10.092,10.092,0,0,1,1.937-1.04c-.1-.715-.416-1.027-1.027-1.027a4.884,4.884,0,0,0-2.9,1.378,4.3,4.3,0,0,0-1,1.079l-.728-.728A12.936,12.936,0,0,0,84.251,77.7l.117-.2a1.44,1.44,0,0,1-.247.026c-.208,0-1.43-.026-1.911-.039H82a2.305,2.305,0,0,0-.286.013l.013-.9a18.19,18.19,0,0,0,2.782.143Z"/><path d="M41.481,103.9a8.288,8.288,0,0,0,1-2.158,14.231,14.231,0,0,0,.676-3l.871.234a19.8,19.8,0,0,1-.741,3.146,10.43,10.43,0,0,1-.975,2.288Zm4.563.832c0,.4.3.481,1.807.481a6.025,6.025,0,0,0,1.664-.156c.26-.078.39-.286.481-.754a12.346,12.346,0,0,0,.182-2.145,3.526,3.526,0,0,0,.884.338,8.031,8.031,0,0,1-.494,2.808c-.312.611-.78.728-2.795.728-2.236,0-2.6-.156-2.6-1.118V98.688a8.774,8.774,0,0,0-.091-1.235h1.053a7.087,7.087,0,0,0-.091,1.222Zm3.367-7.254A16.736,16.736,0,0,0,45.2,95.386l.507-.715A20.172,20.172,0,0,1,50,96.712Zm3.367,6.565a19.71,19.71,0,0,0-.962-2.717,15.045,15.045,0,0,0-1.2-2.3l.767-.4a21.517,21.517,0,0,1,2.236,4.94Z"/><path d="M55.5,98.025a5.458,5.458,0,0,0-.858.065v-.858a4.267,4.267,0,0,0,.858.065h.637V96.088a8.819,8.819,0,0,0-.078-1.326h.962a7.044,7.044,0,0,0-.078,1.313V97.3h.3a4.571,4.571,0,0,0,.793-.052v.832a4.668,4.668,0,0,0-.793-.052h-.3v2.7c.364-.143.52-.208,1.1-.468l.013.741c-.52.247-.689.325-1.118.494v3.965c0,.7-.247.91-1.04.91-.26,0-.637-.013-.988-.039a2.771,2.771,0,0,0-.156-.806,5.118,5.118,0,0,0,1.04.1c.273,0,.338-.052.338-.3v-3.51c-.377.143-.546.2-.7.247a6.215,6.215,0,0,0-.676.26l-.2-.858a7.173,7.173,0,0,0,1.573-.442v-3Zm6.4,3.848a6.665,6.665,0,0,0,1.144-.065v.858a6.665,6.665,0,0,0-1.144-.065H60.864v2.015c1.274-.247,1.573-.3,2.392-.507v.728c-1.261.3-2.834.624-4.5.936a6.776,6.776,0,0,0-.975.221l-.208-.91a13.718,13.718,0,0,0,2.509-.312V102.6h-.871a7.906,7.906,0,0,0-1.131.065v-.858a6.407,6.407,0,0,0,1.131.065h.871v-.429a10.149,10.149,0,0,0-.065-1.118h.9a9.788,9.788,0,0,0-.052,1.118v.429Zm-.039-5.265a6.333,6.333,0,0,0,1.118-.065v.819a9.358,9.358,0,0,0-1.118-.052h-.988v1.833h1.17a6.628,6.628,0,0,0,1.17-.065v.858a10.38,10.38,0,0,0-1.17-.065H59.057a9.726,9.726,0,0,0-1.144.065v-.858a6.393,6.393,0,0,0,1.144.065h1.027V97.31h-.793a8.589,8.589,0,0,0-1.066.052v-.819a5.78,5.78,0,0,0,1.066.065h.793v-.533a7.21,7.21,0,0,0-.078-1.274h.923a7.447,7.447,0,0,0-.065,1.287v.52Zm2.73,8.476a8.945,8.945,0,0,0,.078,1.456h-.949a11.463,11.463,0,0,0,.079-1.469V96.153a10.177,10.177,0,0,0-.079-1.391h.949a8.093,8.093,0,0,0-.078,1.391v2.613a8.747,8.747,0,0,0,2.236,2.184,2.948,2.948,0,0,0-.363.806,9.773,9.773,0,0,1-1.873-1.9Z"/><path d="M70.549,95.477a22.48,22.48,0,0,0-.793,5.668c0,.715.052,1.677.1,2.119a4.526,4.526,0,0,1,.078.7,14.209,14.209,0,0,1,1.092-2.756l.663.312a24.657,24.657,0,0,0-.962,2.275,5.074,5.074,0,0,0-.364,1.651l-.9.078a3.457,3.457,0,0,0-.1-.455,14.792,14.792,0,0,1-.481-3.848,26.716,26.716,0,0,1,.52-5,6.606,6.606,0,0,0,.117-.9ZM71.875,98.1a10.521,10.521,0,0,0,2.21.169c.52,0,1-.026,1.651-.078a25.069,25.069,0,0,0-.156-3.029l1-.013a3.055,3.055,0,0,0-.039.442c0,.091,0,.156.013.39.013.3.013.3.078,2.106a6.852,6.852,0,0,0,2.067-.546l.066.936a6.525,6.525,0,0,0-.69.156,12.4,12.4,0,0,1-1.417.26c.013.351.013.559.013.936,0,2.47-.234,3.536-1,4.576a6.284,6.284,0,0,1-2.041,1.677,3,3,0,0,0-.7-.7,5.33,5.33,0,0,0,1.989-1.495c.663-.845.871-1.794.871-3.874,0-.364,0-.65-.026-1.027-.572.052-1.326.078-1.9.078-.364,0-1.105-.026-1.573-.052A1.869,1.869,0,0,0,72.057,99a1.286,1.286,0,0,0-.2.013Z"/><path d="M90.855,105.37a10.443,10.443,0,0,0-2.652-1.859c-.221-.117-.52-.247-.871-.39a3.738,3.738,0,0,1,.026.468,2.257,2.257,0,0,1-.325,1.417,2.617,2.617,0,0,1-2.2.819,3.386,3.386,0,0,1-2.015-.52,1.7,1.7,0,0,1-.7-1.365c0-.858.676-1.534,1.82-1.794a5.663,5.663,0,0,1,1.352-.13,5.782,5.782,0,0,1,1.17.1c-.013-.039-.013-.039-.013-.156a1.036,1.036,0,0,1-.013-.143c-.013-.117-.013-.39-.026-.767-.013-.169-.013-.416-.026-.754-.468.013-1.118.026-1.534.026-.78,0-1.391-.026-2.2-.091-.143-.013-.247-.013-.325-.013h-.1l.013-.858a15.955,15.955,0,0,0,2.977.208c.338,0,.793,0,1.157-.013l-.026-1.781c-.377.013-.585.013-.884.013-.949,0-2-.039-3.172-.13a1.577,1.577,0,0,0-.234-.013,1.062,1.062,0,0,0-.182.013l.013-.884a16.15,16.15,0,0,0,3.328.26c.26,0,.7-.013,1.131-.013a10.18,10.18,0,0,0-.065-1.872h1a14.509,14.509,0,0,0-.091,1.833,18.349,18.349,0,0,0,3.849-.533l.064.884c-.221.013-.221.013-.9.1a27.051,27.051,0,0,1-3.017.312c.013,1.066.013,1.066.026,1.755a15.681,15.681,0,0,0,3.6-.533l.052.9c-.169.013-.3.026-.754.091-.9.143-1.924.247-2.886.312.026.728.026.728.078,1.989a11.393,11.393,0,0,1,3.628,1.9,4.444,4.444,0,0,0,.441.3Zm-4.394-2.457a4.772,4.772,0,0,0-1.326-.143c-1.287,0-2.132.468-2.132,1.157s.65,1.079,1.781,1.079a1.878,1.878,0,0,0,1.43-.429,1.7,1.7,0,0,0,.26-1.17Z"/><path d="M100.163,95.815a4.381,4.381,0,0,0-.052-.754h.975a10.762,10.762,0,0,0-.065,1.625v.143c2.457-.013,3.458-.039,3.887-.091v.923a23.093,23.093,0,0,0-2.483-.065c-.195,0-.338,0-1.391.026V100.2a3.725,3.725,0,0,1,.312,1.534,4.184,4.184,0,0,1-1.742,3.393,8.269,8.269,0,0,1-2.054,1.053,2.854,2.854,0,0,0-.572-.819,6.663,6.663,0,0,0,2.106-.975,3.367,3.367,0,0,0,1.456-2.743,1.821,1.821,0,0,1-.351.637,2.173,2.173,0,0,1-3.77-1.352,2.163,2.163,0,0,1,2.3-2.145,2,2,0,0,1,1.508.585c-.013-.182-.013-.234-.013-.715,0-.052-.013-.182-.013-.338v-.676c-2.613.052-5.239.182-6.11.325l-.039-.949c.234.013.325.013.52.013.377,0,.377,0,2.47-.078,1.248-.052,2.262-.078,3.146-.1ZM99.6,99.728a1.663,1.663,0,0,0-.871-.208,1.376,1.376,0,0,0-1.443,1.365,1.256,1.256,0,0,0,1.339,1.287,1.457,1.457,0,0,0,1.521-1.534A.941.941,0,0,0,99.6,99.728Z"/><path class="col2" d="M70.695,36.764a20.3,20.3,0,0,0-2.839.11,11.281,11.281,0,0,1,.573-2.816,10.868,10.868,0,0,1,3.014-4.313,30.251,30.251,0,0,1,3.631-2.662c2.024-1.386,2.64-2.112,2.64-3.234,0-1.5-1.166-2.421-3.036-2.421a3.109,3.109,0,0,0-2.8,1.3,4.186,4.186,0,0,0-.682,2.025l-3.146-.374a6.6,6.6,0,0,1,1.518-3.521A6.4,6.4,0,0,1,74.612,18.9c3.85,0,6.226,1.848,6.226,4.862a4.466,4.466,0,0,1-1.562,3.521,27.542,27.542,0,0,1-3.7,2.706,19.334,19.334,0,0,0-2.619,2.2,5.3,5.3,0,0,0-1.254,1.98h6.161a23.142,23.142,0,0,0,3.213-.176v2.9c-1.035-.087-1.915-.132-3.323-.132Z"/></svg>