<svg data-name="customer-1" xmlns="http://www.w3.org/2000/svg" viewBox="0 0 149 149"><circle class="col1" cx="74.5" cy="74.5" r="74"/><path d="M35.67,65.422a9.31,9.31,0,0,0-1.43.065,5.969,5.969,0,0,1,.377-1.716,5.706,5.706,0,0,1,1.69-2.236,17.65,17.65,0,0,1,1.989-1.43c1.287-.871,1.716-1.443,1.716-2.236,0-.988-.832-1.625-2.158-1.625a2.15,2.15,0,0,0-1.885.845,2.63,2.63,0,0,0-.455,1.313l-1.092-.182a3.527,3.527,0,0,1,.819-1.872,3.323,3.323,0,0,1,2.613-1c1.963,0,3.224.988,3.224,2.522a2.713,2.713,0,0,1-.767,1.846,10.247,10.247,0,0,1-2.21,1.677,7.079,7.079,0,0,0-1.872,1.6,3.643,3.643,0,0,0-.741,1.508h4.147a11.349,11.349,0,0,0,1.586-.091V65.5a14.619,14.619,0,0,0-1.6-.078Z"/><path d="M42.417,61.977c.273-.312.572-.676.845-1l3.289-4.108a14.665,14.665,0,0,0,.975-1.326H48.5a21.562,21.562,0,0,0-.078,2.2V62h.494a8.731,8.731,0,0,0,1.352-.091v1.079A8.9,8.9,0,0,0,48.9,62.9h-.481v1.118a7.455,7.455,0,0,0,.1,1.4H47.344a7.544,7.544,0,0,0,.1-1.4V62.9H43.964c-.728,0-1.118.013-1.547.052Zm5.044-3.263a15.809,15.809,0,0,1,.078-1.768c-.273.39-.6.819-.975,1.3l-2.99,3.77h3.887Z"/><path d="M55.118,56.686a10.506,10.506,0,0,0-.053-1.248,11.673,11.673,0,0,0,1.2.039h.962a11.185,11.185,0,0,0,1.17-.039,9.632,9.632,0,0,0-.039,1.274v7.124c0,.624.013.962.039,1.248h-.807v-.65h-1.7V65.5H55.04a10.568,10.568,0,0,0,.078-1.378Zm.766,2.743h1.7V56.205h-1.7Zm0,4.277h1.7V60.131h-1.7ZM60.422,57a11.317,11.317,0,0,0-1.248.065v-.858a7.624,7.624,0,0,0,1.235.078h1.378v-.416a6.554,6.554,0,0,0-.079-1.053h.963a6.331,6.331,0,0,0-.078,1.053v.416h1.846a7.858,7.858,0,0,0,1.235-.078v.858A10.729,10.729,0,0,0,64.439,57H62.593v1.69h2.3a8.511,8.511,0,0,0,1.313-.078v.871a8.345,8.345,0,0,0-1.261-.078h-.429v1.521h.4a7.953,7.953,0,0,0,1.274-.078v.9a8.656,8.656,0,0,0-1.274-.078h-.4v3.64c0,.832-.286,1.027-1.495,1.027-.208,0-.416-.013-1.17-.052a2.313,2.313,0,0,0-.208-.858,9.436,9.436,0,0,0,1.482.156c.494,0,.585-.052.585-.338V61.665H60.044a9.7,9.7,0,0,0-1.3.078v-.9a8.273,8.273,0,0,0,1.313.078h3.653V59.4H60.058a9.5,9.5,0,0,0-1.313.078V58.61a8.618,8.618,0,0,0,1.313.078h1.729V57Zm1,7.813a11.8,11.8,0,0,0-1.807-2.184l.636-.455a13.88,13.88,0,0,1,1.872,2.119Z"/><path d="M68.923,64.967A9.333,9.333,0,0,0,69,66.423H68.04a9.856,9.856,0,0,0,.078-1.456v-8.4a14,14,0,0,0-.053-1.43,12.064,12.064,0,0,0,1.366.052H71.29a11.406,11.406,0,0,0,1.326-.052c-.026.364-.039.754-.039,1.235v1.612c0,.52.013.884.039,1.209-.351-.026-.793-.039-1.313-.039h-2.38Zm0-8.1h2.912v-1.04H68.923Zm0,1.664h2.912V57.479H68.923Zm6.825,4.927c0,.494.014.845.04,1.183-.364-.026-.793-.039-1.326-.039H71.615v.91h-.806a8.037,8.037,0,0,0,.064-1.222V61.405c0-.468-.012-.845-.039-1.222a11.7,11.7,0,0,0,1.288.052H74.5a11.516,11.516,0,0,0,1.287-.052c-.026.364-.04.7-.04,1.222Zm-4.133-1.417h3.393V60.885H71.615Zm0,1.911h3.393V62.692H71.615Zm6.968,1.209c0,.858-.273,1.079-1.326,1.079-.273,0-.975-.026-1.3-.052a2.984,2.984,0,0,0-.234-.832,14.137,14.137,0,0,0,1.43.13c.533,0,.637-.065.637-.377V59.156H75.124c-.545,0-.961.013-1.313.039.027-.338.04-.728.04-1.209V56.374c0-.455-.013-.845-.04-1.235a11.294,11.294,0,0,0,1.327.052h2.145a12.033,12.033,0,0,0,1.365-.052,12.3,12.3,0,0,0-.065,1.43Zm-3.991-8.294h3.2v-1.04h-3.2Zm0,1.664h3.2V57.479h-3.2Z"/><path d="M81.962,56.491a7.56,7.56,0,0,0-.1-1.365H82.9a8.548,8.548,0,0,0-.077,1.222V56.5l.065,6.591c.715-.286,1.144-.481,1.7-.754a16.064,16.064,0,0,0,1.99-1.092l.169.806a29.722,29.722,0,0,1-5.1,2.431,5.962,5.962,0,0,0-.767.325l-.285-.949a11.93,11.93,0,0,0,1.429-.429Zm9-1.378a10.323,10.323,0,0,0-.1,1.287,19.887,19.887,0,0,1-.585,3.432A9.511,9.511,0,0,1,89.23,62.2a8.231,8.231,0,0,0,3.185,3.289,3.193,3.193,0,0,0-.585.832,9.614,9.614,0,0,1-2-1.807,9.031,9.031,0,0,1-1.092-1.56,10.386,10.386,0,0,1-4.758,3.471,2.54,2.54,0,0,0-.56-.78,11.252,11.252,0,0,0,2.6-1.287,8.326,8.326,0,0,0,3.549-5.148,14.208,14.208,0,0,0,.416-3.445,4.989,4.989,0,0,0-.039-.676Zm-5.681.9A19.4,19.4,0,0,1,87.8,59.117l-.78.546a14.82,14.82,0,0,0-2.457-3.172Z"/><path d="M99.643,57.362c-.026.247-.039.338-.078.559a7.815,7.815,0,0,0,1.313,2.3,8.722,8.722,0,0,0,2.574,2.054,2.814,2.814,0,0,0-.572.754,8.839,8.839,0,0,1-3.575-3.952,6.041,6.041,0,0,1-.728,1.638,7.387,7.387,0,0,1-2.7,2.431,2.484,2.484,0,0,0-.585-.663,6.755,6.755,0,0,0,2.249-1.742,6.108,6.108,0,0,0,1.274-3.38H95.066v7.579a9.647,9.647,0,0,0,.065,1.443H94.118a9.067,9.067,0,0,0,.091-1.443V57.687a9.949,9.949,0,0,0-.052-1.17,10.141,10.141,0,0,0,1.286.065h3.446c.026-.442.026-.6.026-1.079a4.4,4.4,0,0,0-.091-.936h1.014a3.725,3.725,0,0,0-.091.936c-.013.585-.026.767-.039,1.079h3.575a10.316,10.316,0,0,0,1.313-.065,9.271,9.271,0,0,0-.052,1.144v7.514c0,.819-.273.975-1.651.975-.429,0-.949-.026-1.482-.065a3.008,3.008,0,0,0-.208-.9,9.475,9.475,0,0,0,1.781.169c.611,0,.7-.039.7-.338V57.362Z"/><path d="M109.406,55.516a18.445,18.445,0,0,0-.547,2.08,19.22,19.22,0,0,0-.389,4.069c0,1.014.026,1.781.077,2.47a12.084,12.084,0,0,1,.846-2.535l.624.3a11.339,11.339,0,0,0-1.054,3.575v.195l-.936.078c-.026-.208-.038-.273-.077-.52a18.634,18.634,0,0,1-.339-3.679A21.508,21.508,0,0,1,108.2,56.4a7.05,7.05,0,0,0,.181-1.04Zm3.315,5.226a3.02,3.02,0,0,0-.975,1.911c0,.962.819,1.43,2.5,1.43a8.556,8.556,0,0,0,2.99-.455l.13,1c-.169.013-.195.026-.455.065a13.412,13.412,0,0,1-2.665.26,3.613,3.613,0,0,1-2.977-.988,1.833,1.833,0,0,1-.391-1.2,3.593,3.593,0,0,1,1.132-2.418Zm-1.651-3.848a8.824,8.824,0,0,0,2.21.2,13.949,13.949,0,0,0,3.484-.351l.065.923q-.039,0-.9.117a21.946,21.946,0,0,1-2.8.169,17.315,17.315,0,0,1-2.08-.13Z"/><path d="M38.335,77.8c-.156.026-.208.039-.39.078a22.817,22.817,0,0,1-2.3.39v2.249a9.21,9.21,0,0,1,2.8-.468,4.4,4.4,0,0,1,2.3.546,2.675,2.675,0,0,1-1.313,4.992,1.917,1.917,0,0,1-2-1.469,4.744,4.744,0,0,1-.156-1.469,2.818,2.818,0,0,0,.858-.338,3.861,3.861,0,0,0-.026.507c0,1.352.39,1.911,1.339,1.911A1.726,1.726,0,0,0,41.182,82.9c0-1.274-1.079-2.067-2.782-2.067a8.771,8.771,0,0,0-2.756.507v3.25c0,.7-.312,1.04-.949,1.04A3.433,3.433,0,0,1,32.55,84.8a1.565,1.565,0,0,1-.6-1.222,2.353,2.353,0,0,1,1.027-1.729,6.947,6.947,0,0,1,1.832-1.066V78.324c-.116.013-.116.013-.519.039-.234.013-.456.013-.833.013-.194,0-.545,0-.689-.013h-.532v-.858a7.363,7.363,0,0,0,1.326.091c.351,0,.858-.013,1.247-.039V76.27a8.65,8.65,0,0,0-.064-1.235h.961a7.573,7.573,0,0,0-.064,1.209v1.248a13.138,13.138,0,0,0,2.652-.559Zm-3.524,3.835c-1.286.624-2.015,1.326-2.015,1.95,0,.273.183.533.559.78a2.435,2.435,0,0,0,1.158.377c.26,0,.3-.078.3-.637Zm7.138-2.444a10.647,10.647,0,0,0-2.626-2.548L40,76.14a10.924,10.924,0,0,1,2.626,2.47Z"/><path d="M46.733,75.75a12.609,12.609,0,0,0-1.287.052V75a10.253,10.253,0,0,0,1.325.078h6.761A8.849,8.849,0,0,0,54.819,75V75.8a11.2,11.2,0,0,0-1.248-.052H50.4v.793h3.835a9.74,9.74,0,0,0,1.43-.065,7.311,7.311,0,0,0-.052.988v.767a4.561,4.561,0,0,0,.078.975h-.845V77.18H50.4v1.56a7.845,7.845,0,0,0,.065,1.274h-.936a7.626,7.626,0,0,0,.078-1.274V77.18h-4.2v2.028h-.846a5.491,5.491,0,0,0,.079-.975v-.767a7.506,7.506,0,0,0-.053-.988A9.447,9.447,0,0,0,46,76.543h3.6V75.75ZM46.551,84.3v.728H45.68a7.127,7.127,0,0,0,.078-1.1V81.522a10.065,10.065,0,0,0-.052-1.157,8.687,8.687,0,0,0,1.118.052h6.552a9.429,9.429,0,0,0,1.183-.052,9.367,9.367,0,0,0-.052,1.157v1.9a8.877,8.877,0,0,0,.039.936,10.017,10.017,0,0,0-1.17-.052h-3v.884c0,.312.273.351,2.093.351,1.547,0,2.236-.065,2.457-.247.169-.13.221-.52.234-1.534a3.19,3.19,0,0,0,.806.364c-.026,1.027-.169,1.534-.494,1.768-.364.273-1.105.351-3.133.351-2.418,0-2.756-.1-2.756-.858V84.3Zm-.429-6.513a6.261,6.261,0,0,0,.793.039h1.208a5.871,5.871,0,0,0,.755-.039v.624a4.2,4.2,0,0,0-.755-.052H46.915a4.564,4.564,0,0,0-.793.052Zm0,1.248a4.206,4.206,0,0,0,.793.052h1.208a4.106,4.106,0,0,0,.755-.052v.637a4.106,4.106,0,0,0-.755-.052H46.915a4.377,4.377,0,0,0-.793.052Zm.429,2.015v.923H49.58v-.923Zm0,1.547v1.053H49.58V82.6Zm7.163-.624v-.923H50.373v.923Zm0,1.677V82.6H50.373v1.053Zm-2.522-5.876a4.206,4.206,0,0,0,.793.052H53.4a4.012,4.012,0,0,0,.754-.052v.637a4.1,4.1,0,0,0-.754-.052H51.985a4.384,4.384,0,0,0-.793.052Zm0,1.261a4.206,4.206,0,0,0,.793.052H53.4a4.1,4.1,0,0,0,.754-.052v.637a4.1,4.1,0,0,0-.754-.052H51.985a4.384,4.384,0,0,0-.793.052Z"/><path d="M57.432,76.946a5.634,5.634,0,0,0,1.04.065H60.89a5.307,5.307,0,0,0,1.04-.065v.832a5.757,5.757,0,0,0-.936-.052H58.472a7.77,7.77,0,0,0-1.04.052Zm.441-1.781a5.365,5.365,0,0,0,1,.065h1.808a5.437,5.437,0,0,0,1-.065v.819a7.271,7.271,0,0,0-1-.052H58.874a7.4,7.4,0,0,0-1,.052Zm.066,3.575a6.165,6.165,0,0,0,.935.052H60.8a5.783,5.783,0,0,0,.923-.052v.806a6.679,6.679,0,0,0-.923-.052H58.874a6.4,6.4,0,0,0-.935.052Zm0,1.794a5.838,5.838,0,0,0,.935.052H60.8a5.579,5.579,0,0,0,.923-.052v.806a6.326,6.326,0,0,0-.923-.052H58.874a6.057,6.057,0,0,0-.935.052Zm.9,5.9h-.844a8.288,8.288,0,0,0,.078-1.248V83.407A6.459,6.459,0,0,0,58,82.328a8.949,8.949,0,0,0,1.054.052h1.677a5.392,5.392,0,0,0,.949-.039,10.05,10.05,0,0,0-.039,1.014V85.2a7.254,7.254,0,0,0,.064,1.066h-.8v-.533H58.835Zm-.012-1.378H60.9v-2h-2.08Zm6.149-8.671c-.975.182-1.339.234-2.548.364A3.019,3.019,0,0,0,62.073,76a20.191,20.191,0,0,0,4.5-.754,6.906,6.906,0,0,0,1.456-.559l.559.741c-.26.078-.4.117-.416.117-.468.169-1.833.546-2.379.676v2.405h1.716a9.438,9.438,0,0,0,1.391-.078v.884a9.81,9.81,0,0,0-1.391-.078H65.791v2.223h1.6a6.64,6.64,0,0,0,.975-.052,8.594,8.594,0,0,0-.052,1.157V85.1a10.634,10.634,0,0,0,.065,1.274h-.884v-.65h-4.03v.65H62.58a7.471,7.471,0,0,0,.065-1.261v-2.5a9.038,9.038,0,0,0-.052-1.092,6.441,6.441,0,0,0,.923.052h1.456V79.351H63.594a8.865,8.865,0,0,0-1.443.078v-.884a8.483,8.483,0,0,0,1.456.078h1.365Zm-1.508,8.606h4.03v-2.7h-4.03Z"/><path d="M71.407,80.248a8.644,8.644,0,0,0,2.327.52c.065-.637.2-1.651.3-2.34a17.274,17.274,0,0,1-1.937-.351c-.169-.039-.222-.052-.4-.091l.117-.858a8.39,8.39,0,0,0,2.34.507,20.458,20.458,0,0,0,.312-2.444v-.1l1.04.117a6.687,6.687,0,0,0-.208.871c-.013.117-.013.117-.13.832-.04.286-.065.416-.13.78.364.013.546.013.754.013a10.549,10.549,0,0,0,2.379-.221l-.039.9c-.26.026-.26.026-.91.078-.4.039-.793.052-1.17.052-.208,0-.429,0-1.144-.026-.208,1.495-.221,1.625-.3,2.353.494.013.676.013.858.013a11.367,11.367,0,0,0,2.392-.208l-.026.871c-.13.013-.169.013-.351.026a15,15,0,0,1-1.833.1c-.325,0-.533,0-1.118-.026a2.36,2.36,0,0,1-.013.26c-.026.312-.052.741-.052.962a1.919,1.919,0,0,0,.6,1.56,2.733,2.733,0,0,0,1.833.559c1.742,0,2.873-.9,2.873-2.275a2.964,2.964,0,0,0-1.235-2.262,2.573,2.573,0,0,0,.949-.26A3.47,3.47,0,0,1,80.7,82.744c0,1.833-1.534,3.068-3.809,3.068a3.234,3.234,0,0,1-2.912-1.3,3.525,3.525,0,0,1-.4-1.794,6.874,6.874,0,0,1,.052-.858c.013-.195.013-.195.026-.312a13.7,13.7,0,0,1-1.963-.325,1.355,1.355,0,0,0-.4-.078Z"/><path d="M86.811,75.36a20.3,20.3,0,0,0-.168,2.743c-.052,1.56-.091,3.328-.091,3.913,0,.156.013.481.026.78a2.046,2.046,0,0,0,.611,1.56,2.454,2.454,0,0,0,1.625.507A3.733,3.733,0,0,0,92.3,82.6a7.723,7.723,0,0,0,.637-2.041,3.677,3.677,0,0,0,.936.624,7.908,7.908,0,0,1-1.443,2.951,4.552,4.552,0,0,1-3.666,1.625,3.083,3.083,0,0,1-2.444-.91,3.621,3.621,0,0,1-.715-2.665c0-.871.013-1.2.117-5.291.013-.39.013-.637.013-.845a4,4,0,0,0-.052-.689Z"/><path d="M104.622,75.7c-.143.117-.247.208-1.6,1.508a37.869,37.869,0,0,1-2.99,2.457c-.481.364-.573.468-.573.65,0,.234.105.325,1.158,1.144a38.33,38.33,0,0,1,4.16,3.549,3.309,3.309,0,0,0,.364.325l-.819.806a12.272,12.272,0,0,0-1.677-1.781c-.871-.806-1.391-1.235-3.289-2.717-.729-.572-.937-.858-.937-1.3a1.26,1.26,0,0,1,.378-.871,10.045,10.045,0,0,1,1.105-.884,20.667,20.667,0,0,0,3.809-3.562Z"/><path d="M112.149,75.464a18.522,18.522,0,0,0-1,6.1c0,.455.027,1.222.053,1.82,0,.1,0,.13.012.364v.247l.053.013a11.476,11.476,0,0,1,.767-2.288,1.793,1.793,0,0,0,.1-.26l.637.3a11.226,11.226,0,0,0-1.118,3.692,1.416,1.416,0,0,0,.026.26l-.923.091c-.013-.117-.027-.182-.078-.481a20.693,20.693,0,0,1-.365-3.861,22.033,22.033,0,0,1,.677-5.343,5.988,5.988,0,0,0,.143-.819Zm1.313,2.418a9,9,0,0,0,2.34.208c.507,0,.858-.013,1.391-.039-.013-1.222-.013-1.222-.013-2.21a2.884,2.884,0,0,0-.039-.533h.975a13.3,13.3,0,0,0-.091,2.041c0,.143,0,.351.013.637a8.86,8.86,0,0,0,2.249-.481l.039.884c-.026,0-.026,0-.91.182a12.428,12.428,0,0,1-1.378.208c.013,1.287.039,1.95.143,3.679a9.41,9.41,0,0,1,2.171,1.274c.156.1.182.13.325.221l-.4.91a7.025,7.025,0,0,0-1.846-1.352.834.834,0,0,1-.13-.078.912.912,0,0,0-.117-.078,1.865,1.865,0,0,1,.026.338,1.9,1.9,0,0,1-2.327,1.976c-1.508,0-2.457-.715-2.457-1.846,0-1.079,1.027-1.846,2.47-1.846a3.672,3.672,0,0,1,1.443.26c-.039-.273-.091-1.495-.13-3.393-.585.026-.988.039-1.482.039-.533,0-1.014-.013-1.469-.039a3.409,3.409,0,0,0-.416-.026,1.936,1.936,0,0,0-.221-.013.6.6,0,0,0-.13-.013h-.053Zm2.5,4.875c-1.014,0-1.677.429-1.677,1.079s.6,1.053,1.508,1.053a1.792,1.792,0,0,0,1.326-.455,1.519,1.519,0,0,0,.247-1.014c0-.091-.013-.39-.013-.39A3.358,3.358,0,0,0,115.958,82.757Z"/><path d="M27.753,95.815a3.661,3.661,0,0,0-.4.793,21.263,21.263,0,0,1-1.911,3.8,33.421,33.421,0,0,1,2.99,2.8l-.728.806a18.612,18.612,0,0,0-2.834-2.821,15.523,15.523,0,0,1-5.226,4.524,2.308,2.308,0,0,0-.677-.78,13.859,13.859,0,0,0,5.175-4.342,24.62,24.62,0,0,0-3.5-2.353l.65-.689a37.34,37.34,0,0,1,3.38,2.262,17.864,17.864,0,0,0,1.534-3.029,5.687,5.687,0,0,0,.455-1.378Z"/><path d="M31.8,99.975a9.2,9.2,0,0,0,1.613.078h7.553a10.253,10.253,0,0,0,1.573-.065v1.053a14.871,14.871,0,0,0-1.586-.052h-7.54a14.211,14.211,0,0,0-1.613.052Z"/><path d="M48.241,95.659a6.476,6.476,0,0,0-.078,1.118c-.1,3.523-.208,4.485-.7,5.8a7.927,7.927,0,0,1-2.249,3.211,2.388,2.388,0,0,0-.779-.7,6.422,6.422,0,0,0,2.2-2.99,17.7,17.7,0,0,0,.586-5.577,5.783,5.783,0,0,0-.052-.923Zm3.224-.143a5.04,5.04,0,0,0-.078,1.144l-.078,7.852A6.008,6.008,0,0,0,53.727,103a6.429,6.429,0,0,0,1.534-2.6,3.635,3.635,0,0,0,.728.754,7.386,7.386,0,0,1-2.613,3.341,8.569,8.569,0,0,1-1.859.949c-.234.091-.234.091-.416.156a2.165,2.165,0,0,0-.3.143l-.52-.6a2.191,2.191,0,0,0,.091-.884l.078-7.605A5.216,5.216,0,0,0,50.4,95.5Z"/><path d="M57.834,96.894c.248.013.377.013.469.013.182,0,.338-.013.74-.039.728-.052.807-.065,2.406-.156l2.041-.13c1.6-.091,1.768-.1,2.2-.117l.741-.026a8.78,8.78,0,0,0,1.547-.143l.078.962a5.453,5.453,0,0,0-1.456.182,6.394,6.394,0,0,0-2.5,1.3,3.973,3.973,0,0,0-1.6,3,2.549,2.549,0,0,0,1.82,2.405,6.663,6.663,0,0,0,1.95.416h.13l-.169,1.053c-.143-.026-.169-.039-.4-.078a6.557,6.557,0,0,1-2.808-1,3.148,3.148,0,0,1-1.443-2.652A4.946,4.946,0,0,1,64.01,97.9a8.51,8.51,0,0,1,1.235-.689,26.606,26.606,0,0,1-2.86.286,43.35,43.35,0,0,0-4.486.429Zm8.7,1.937a9.869,9.869,0,0,1,1.339,2.015l-.663.39a9.142,9.142,0,0,0-1.326-2.067ZM68,98.116a10.535,10.535,0,0,1,1.339,2.028l-.65.364a10.287,10.287,0,0,0-1.326-2.041Z"/><path d="M70.406,99.845a5.268,5.268,0,0,0,1,.065h.676a6.157,6.157,0,0,0,1-.065,9.9,9.9,0,0,0-.064,1.365v2.561a2.1,2.1,0,0,0,1.157,1.2,6.947,6.947,0,0,0,2.912.377,37.248,37.248,0,0,0,5.239-.26,3.622,3.622,0,0,0-.3.949c-1.274.052-2.8.091-3.835.091a14.192,14.192,0,0,1-3.718-.26,3.138,3.138,0,0,1-1.885-1.443,12.59,12.59,0,0,1-1.573,1.391,5.225,5.225,0,0,0-.469.4l-.428-.858a8.268,8.268,0,0,0,2.092-1.586v-3.146h-.857a5.086,5.086,0,0,0-.949.065Zm.909-4.784a16.948,16.948,0,0,1,2.094,2.3l-.663.585a12.748,12.748,0,0,0-2.028-2.353Zm4.278,3.692a16,16,0,0,1-.52,3.679,6.934,6.934,0,0,1-.884,1.963,2.8,2.8,0,0,0-.637-.6c.936-1.274,1.313-3.3,1.313-7.137a11.5,11.5,0,0,0-.052-1.417,8.435,8.435,0,0,0,1.287.065h4.394a9.258,9.258,0,0,0,1.339-.078v.9a9.5,9.5,0,0,0-1.313-.078H75.658c0,.9,0,1.209-.039,1.989H79.74a6.95,6.95,0,0,0,1.105-.065l.455.468a7.408,7.408,0,0,0-.351.715A10.067,10.067,0,0,1,79.142,102a9.267,9.267,0,0,0,2.977,1.7,3.231,3.231,0,0,0-.455.767,10.657,10.657,0,0,1-3.068-1.924,10.267,10.267,0,0,1-2.912,2,2.537,2.537,0,0,0-.572-.65,9.452,9.452,0,0,0,2.938-1.885,8.2,8.2,0,0,1-1.976-3.263Zm1.274,0a7.208,7.208,0,0,0,1.716,2.717,8.558,8.558,0,0,0,1.69-2.717Z"/><path d="M85.512,104.928a13.116,13.116,0,0,0,.065,1.521h-.936a13.4,13.4,0,0,0,.078-1.56v-4.342c0-.65,0-.871.039-1.573a9.122,9.122,0,0,1-1.222,1.924,2.236,2.236,0,0,0-.52-.715A11.085,11.085,0,0,0,85.2,96.452a7.54,7.54,0,0,0,.494-1.833l.884.273a6.59,6.59,0,0,0-.247.728,16.5,16.5,0,0,1-.819,2.106Zm.936-7.865a6.608,6.608,0,0,0,1.092.078h6.214A8.4,8.4,0,0,0,95,97.063v.9a9.1,9.1,0,0,0-1.261-.078h-6.2a6.941,6.941,0,0,0-1.092.078Zm1.676,9.386h-.857a9.681,9.681,0,0,0,.065-1.2v-1.547c0-.481-.026-.9-.052-1.235a8.149,8.149,0,0,0,1.079.052h4.29a9.34,9.34,0,0,0,1.222-.052,11.1,11.1,0,0,0-.052,1.235v1.547a8.4,8.4,0,0,0,.065,1.2h-.871v-.689H88.124Zm5.747-6.721a6.7,6.7,0,0,0-1.118-.065H88.437a5.814,5.814,0,0,0-1.04.065V98.9a5.471,5.471,0,0,0,1.04.065h4.3a6.5,6.5,0,0,0,1.131-.065Zm0,1.781a6.608,6.608,0,0,0-1.118-.065H88.437a7.526,7.526,0,0,0-1.04.052v-.819a5.471,5.471,0,0,0,1.04.065h4.316a6.423,6.423,0,0,0,1.118-.065Zm0-5.369a10.644,10.644,0,0,0-1.3-.065H88.54a6.6,6.6,0,0,0-1.117.065v-.871a7.473,7.473,0,0,0,1.157.078h3.965a8.025,8.025,0,0,0,1.326-.078Zm-.858,8.905v-1.807H88.124v1.807Z"/><path d="M99.812,95.36a20.043,20.043,0,0,0-.169,2.743c-.052,1.56-.091,3.328-.091,3.913,0,.156.013.481.026.78a2.046,2.046,0,0,0,.611,1.56,2.454,2.454,0,0,0,1.625.507A3.733,3.733,0,0,0,105.3,102.6a7.723,7.723,0,0,0,.637-2.041,3.677,3.677,0,0,0,.936.624,7.908,7.908,0,0,1-1.443,2.951,4.552,4.552,0,0,1-3.666,1.625,3.083,3.083,0,0,1-2.444-.91,3.621,3.621,0,0,1-.715-2.665c0-.871.013-1.2.117-5.291.013-.39.013-.637.013-.845a4,4,0,0,0-.052-.689Z"/><path d="M119.52,105.37a10.461,10.461,0,0,0-2.652-1.859c-.221-.117-.52-.247-.871-.39a3.738,3.738,0,0,1,.026.468,2.257,2.257,0,0,1-.325,1.417,2.617,2.617,0,0,1-2.2.819,3.386,3.386,0,0,1-2.015-.52,1.7,1.7,0,0,1-.7-1.365c0-.858.676-1.534,1.82-1.794a5.663,5.663,0,0,1,1.352-.13,5.782,5.782,0,0,1,1.17.1c-.013-.039-.013-.039-.013-.156a1.036,1.036,0,0,1-.013-.143c-.013-.117-.013-.39-.026-.767-.013-.169-.013-.416-.026-.754-.468.013-1.118.026-1.534.026-.78,0-1.391-.026-2.2-.091-.143-.013-.247-.013-.325-.013h-.1l.013-.858a15.955,15.955,0,0,0,2.977.208c.338,0,.793,0,1.157-.013l-.026-1.781c-.377.013-.585.013-.885.013-.948,0-2-.039-3.171-.13a1.577,1.577,0,0,0-.234-.013,1.062,1.062,0,0,0-.182.013l.013-.884a16.143,16.143,0,0,0,3.328.26c.26,0,.7-.013,1.131-.013a10.18,10.18,0,0,0-.065-1.872h1a14.509,14.509,0,0,0-.091,1.833,18.326,18.326,0,0,0,3.848-.533l.065.884c-.221.013-.221.013-.9.1a27.006,27.006,0,0,1-3.016.312c.013,1.066.013,1.066.026,1.755a15.691,15.691,0,0,0,3.6-.533l.052.9c-.169.013-.3.026-.754.091-.9.143-1.924.247-2.886.312.026.728.026.728.078,1.989a11.379,11.379,0,0,1,3.627,1.9,4.444,4.444,0,0,0,.442.3Zm-4.394-2.457a4.772,4.772,0,0,0-1.326-.143c-1.287,0-2.133.468-2.133,1.157s.651,1.079,1.782,1.079a1.878,1.878,0,0,0,1.43-.429,1.7,1.7,0,0,0,.26-1.17Z"/><path d="M128.828,95.815a4.381,4.381,0,0,0-.052-.754h.975a10.762,10.762,0,0,0-.065,1.625v.143c2.457-.013,3.458-.039,3.887-.091v.923a23.105,23.105,0,0,0-2.483-.065c-.195,0-.338,0-1.391.026V100.2a3.725,3.725,0,0,1,.312,1.534,4.184,4.184,0,0,1-1.742,3.393,8.269,8.269,0,0,1-2.054,1.053,2.874,2.874,0,0,0-.572-.819,6.645,6.645,0,0,0,2.105-.975,3.365,3.365,0,0,0,1.457-2.743,1.821,1.821,0,0,1-.351.637,2.173,2.173,0,0,1-3.77-1.352,2.163,2.163,0,0,1,2.3-2.145,2,2,0,0,1,1.508.585c-.013-.182-.013-.234-.013-.715,0-.052-.013-.182-.013-.338v-.676c-2.613.052-5.24.182-6.111.325l-.038-.949c.234.013.324.013.52.013.377,0,.377,0,2.47-.078,1.248-.052,2.262-.078,3.146-.1Zm-.559,3.913a1.665,1.665,0,0,0-.871-.208,1.376,1.376,0,0,0-1.443,1.365,1.256,1.256,0,0,0,1.339,1.287,1.457,1.457,0,0,0,1.521-1.534A.941.941,0,0,0,128.269,99.728Z"/><path class="col2" d="M73.2,36.764a18.261,18.261,0,0,0,.176-2.86V21.78H72.323a19.565,19.565,0,0,0-2.266.132V19.118a12.226,12.226,0,0,0,2.2.132h2.024a16,16,0,0,0,2.244-.11,33.4,33.4,0,0,0-.175,3.63V33.9a18.577,18.577,0,0,0,.175,2.86Z"/></svg>