<svg data-name="customer-3" xmlns="http://www.w3.org/2000/svg" viewBox="0 0 149 149"><circle class="col1" cx="74.5" cy="74.5" r="74"/><path d="M25.4,55.36a20.222,20.222,0,0,0-.169,2.743c-.052,1.56-.091,3.328-.091,3.913,0,.156.013.481.026.78a2.046,2.046,0,0,0,.611,1.56,2.457,2.457,0,0,0,1.625.507A3.735,3.735,0,0,0,30.884,62.6a7.725,7.725,0,0,0,.636-2.041,3.7,3.7,0,0,0,.936.624,7.91,7.91,0,0,1-1.442,2.951,4.554,4.554,0,0,1-3.666,1.625,3.084,3.084,0,0,1-2.445-.91,3.621,3.621,0,0,1-.715-2.665c0-.871.013-1.2.117-5.291.013-.39.013-.637.013-.845a4,4,0,0,0-.052-.689Z"/><path d="M35.381,58.012a17.429,17.429,0,0,0,2.7-.546,17.367,17.367,0,0,1,3.77-.481c2.379,0,3.887,1.261,3.887,3.25a4.258,4.258,0,0,1-2.7,3.835,11.227,11.227,0,0,1-4.3.988,2.293,2.293,0,0,0-.4-.962,11.632,11.632,0,0,0,3.614-.6c1.781-.65,2.782-1.82,2.782-3.276s-1.079-2.34-2.847-2.34a20.649,20.649,0,0,0-5.3.923,5.713,5.713,0,0,0-.936.312Z"/><path d="M51.748,60.9c-.845.7-1.235,1.3-1.235,1.911s.378,1.027,1.105,1.274a8.283,8.283,0,0,0,2.379.26,12.332,12.332,0,0,0,3.9-.494l.118,1.066a3.649,3.649,0,0,0-.443.065,21.206,21.206,0,0,1-3.51.3,9.171,9.171,0,0,1-2.99-.4,2.071,2.071,0,0,1-1.482-1.963A3.416,3.416,0,0,1,51.085,60.4Zm-1.365-4.745a14.863,14.863,0,0,0,3.458.312,14.233,14.233,0,0,0,3.29-.273l.064.858a18.551,18.551,0,0,0-3.276,1.976l-.663-.533a20.143,20.143,0,0,1,1.729-1.079c.143-.078.169-.091.325-.169.091-.052.118-.052.248-.13a10.292,10.292,0,0,1-1.964.169,25.444,25.444,0,0,1-2.86-.169,3.041,3.041,0,0,0-.429-.039Z"/><path d="M63.11,56.3a9.423,9.423,0,0,0-.091,1.547,22.262,22.262,0,0,0,.338,4.043c.287,1.326.819,2.223,1.313,2.223.234,0,.455-.221.65-.65A9.353,9.353,0,0,0,66,61.236a4.131,4.131,0,0,0,.768.741c-.638,2.275-1.236,3.146-2.159,3.146-.728,0-1.4-.728-1.846-1.976s-.637-2.9-.7-6.1a7.033,7.033,0,0,0-.039-.767Zm6.28.689a11.28,11.28,0,0,1,1.858,2.964,12.481,12.481,0,0,1,.976,3.471L71.3,63.8a11.5,11.5,0,0,0-2.7-6.409Z"/><path d="M76.838,56.439a7.032,7.032,0,0,0-.988-1.456l.78-.221a9.949,9.949,0,0,1,1.079,1.677h1.82a7.87,7.87,0,0,0-.871-1.677l.806-.182a15.465,15.465,0,0,1,.924,1.859h1.364a8.482,8.482,0,0,0,1.118-1.846l.832.3a13.839,13.839,0,0,1-1.04,1.547h1.054a13.957,13.957,0,0,0,1.442-.052,8,8,0,0,0-.052,1.092v1.066a5.108,5.108,0,0,0,.066.936h-.885v-2.34H75.213v2.34h-.871a7.174,7.174,0,0,0,.065-.923V57.479a9.613,9.613,0,0,0-.052-1.092c.429.039.78.052,1.43.052Zm.78,4.784a11.269,11.269,0,0,0-1.391.052,7.526,7.526,0,0,0,.052-1.04V59.1a6.2,6.2,0,0,0-.052-.975,11.918,11.918,0,0,0,1.261.052H82a11.658,11.658,0,0,0,1.248-.052,8.736,8.736,0,0,0-.039.988v1.118a6.7,6.7,0,0,0,.053,1.04c-.469-.039-.742-.052-1.392-.052h-1.95A12.647,12.647,0,0,1,79.3,62.5h3.719a10.368,10.368,0,0,0,1.234-.052,7.635,7.635,0,0,0-.064,1.222v1.5a7,7,0,0,0,.078,1.261h-.885V65.89H76.1v.52h-.884a9.454,9.454,0,0,0,.078-1.248v-1.5a8.064,8.064,0,0,0-.064-1.222,10.6,10.6,0,0,0,1.248.052H78.45a7.587,7.587,0,0,0,.624-1.274ZM76.1,65.162h7.28v-1.95H76.1Zm.975-4.615h5.343v-1.69H77.072Z"/><path d="M88.889,59.676a10.134,10.134,0,0,0-1.391.065v-.806A9.462,9.462,0,0,0,88.889,59h1.885a7.837,7.837,0,0,0-.689-1.469H88.447a13.864,13.864,0,0,0-1.469.065v-.832a10.125,10.125,0,0,0,1.443.078h.9a6.787,6.787,0,0,0-1.066-1.378l.741-.351a7.72,7.72,0,0,1,1.157,1.729h1.092v-1a6.287,6.287,0,0,0-.078-1.092h.884A7.326,7.326,0,0,0,92,55.828v1.014h1.378V55.828a7.555,7.555,0,0,0-.052-1.079h.884a6.083,6.083,0,0,0-.078,1.092v1h1.248A8.311,8.311,0,0,0,96.4,55.048l.793.338a12.914,12.914,0,0,1-.974,1.456H97a10.062,10.062,0,0,0,1.456-.078V57.6a13.85,13.85,0,0,0-1.469-.065H95.454a14.586,14.586,0,0,1-.7,1.469H96.6a9.767,9.767,0,0,0,1.4-.065v.806a10.211,10.211,0,0,0-1.4-.065H93.062v.949h2.73a9.766,9.766,0,0,0,1.4-.065v.793a10.1,10.1,0,0,0-1.4-.065h-2.73v1H97a9.755,9.755,0,0,0,1.482-.078v.845a12.372,12.372,0,0,0-1.468-.078H93.608a10.277,10.277,0,0,0,5.161,2.249,2.994,2.994,0,0,0-.506.806,13.948,13.948,0,0,1-3.186-1.222,8.516,8.516,0,0,1-2.067-1.586c.039.585.052.819.052,1.1V65.2a9.67,9.67,0,0,0,.079,1.352H92.2a8.59,8.59,0,0,0,.078-1.365V64.33c0-.3.013-.585.052-1.092a10.336,10.336,0,0,1-4.888,2.8,2.709,2.709,0,0,0-.533-.754,9.853,9.853,0,0,0,4.823-2.3H88.551a12.223,12.223,0,0,0-1.469.078v-.845a9.919,9.919,0,0,0,1.469.078h3.731v-1H89.708a9.906,9.906,0,0,0-1.391.065V60.56a9.906,9.906,0,0,0,1.391.065h2.574v-.949ZM93.907,59a6.675,6.675,0,0,0,.663-1.469H90.956A10.686,10.686,0,0,1,91.567,59Z"/><path d="M100.277,58.142a11.5,11.5,0,0,1,2.392,1.495l-.455.754a10.455,10.455,0,0,0-2.392-1.612Zm2.522,4.2a24.263,24.263,0,0,1-2.158,3.874l-.741-.676a3.477,3.477,0,0,0,.4-.442,13.117,13.117,0,0,0,1.833-3.276Zm-1.95-7.475a15.4,15.4,0,0,1,2.236,1.729l-.507.689a13.647,13.647,0,0,0-2.262-1.82Zm6.006,1.638a25.955,25.955,0,0,1-2.977.325,2.551,2.551,0,0,0-.338-.793,23.587,23.587,0,0,0,5.5-.741,6.037,6.037,0,0,0,1.5-.52l.6.78-.43.117c-.754.221-1.768.455-3.016.689V58.61h2.536a8.949,8.949,0,0,0,1.326-.078v.923a9.57,9.57,0,0,0-1.326-.078h-2.536v2.21h2.081a6.272,6.272,0,0,0,1-.052,8.385,8.385,0,0,0-.052,1.183v2.47a10.117,10.117,0,0,0,.064,1.261H109.9v-.741h-5.031v.741h-.884a8.668,8.668,0,0,0,.065-1.274v-2.5A9.826,9.826,0,0,0,104,61.535a6.258,6.258,0,0,0,.949.052h1.911v-2.21h-2.47a9.644,9.644,0,0,0-1.313.078v-.923a8.746,8.746,0,0,0,1.313.078h2.47Zm-1.989,8.437H109.9V62.328h-5.031Z"/><path d="M115.9,56.14c-.936.13-1.417.169-2.405.247a1.757,1.757,0,0,0-.325-.689,16.632,16.632,0,0,0,5.421-.9l.572.663c-.182.039-.182.039-.649.156a17.712,17.712,0,0,1-1.86.4V57.05h1.56a5.96,5.96,0,0,0,1.144-.065v.78a5.717,5.717,0,0,0-1.04-.052h-1.664v.806h1.352c.508,0,.832-.013,1.144-.039a6.952,6.952,0,0,0-.051,1.144v1.508a8.868,8.868,0,0,0,.051,1.235c-.312-.026-.65-.039-1.2-.039h-1.3V63.2h1.314a7.835,7.835,0,0,0,1.182-.052v.78a6.481,6.481,0,0,0-1.066-.052h-1.43v.936c.832-.1,1.275-.169,2.418-.364v.689c-1.82.312-3.12.481-5.33.7a6.072,6.072,0,0,0-.689.1l-.169-.9c.208.013.429.026.546.026.4,0,1.144-.052,2.47-.182V63.875H114.46a11.192,11.192,0,0,0-1.183.065v-.806a7.162,7.162,0,0,0,1.2.065h1.43v-.871h-1.235c-.546,0-.9.013-1.209.039.026-.286.039-.572.039-1.222V59.624a8.663,8.663,0,0,0-.039-1.144c.338.026.689.039,1.235.039H115.9v-.806h-1.768a7.1,7.1,0,0,0-1.17.065v-.806a7.367,7.367,0,0,0,1.183.078H115.9Zm-1.664,3v.949H115.9v-.949Zm0,1.547V61.7H115.9V60.69Zm2.418-.6h1.716v-.949h-1.716Zm0,1.612h1.716V60.69h-1.716Zm6.513-4.043a9.491,9.491,0,0,0,1.157-.052c-.025.286-.039.546-.064,1.365-.091,3.926-.261,5.759-.612,6.6-.181.468-.533.637-1.248.637a12.8,12.8,0,0,1-1.378-.1,3.434,3.434,0,0,0-.142-.871,7.181,7.181,0,0,0,1.4.182c.482,0,.624-.091.715-.481a33.051,33.051,0,0,0,.469-6.526h-1.6a19.517,19.517,0,0,1-.533,4.173A8.972,8.972,0,0,1,119.3,66.41a2.9,2.9,0,0,0-.74-.559,6.737,6.737,0,0,0,1.507-2.106,13.737,13.737,0,0,0,1-5.33h-.337a7.922,7.922,0,0,0-1.209.065V57.6a6.814,6.814,0,0,0,1.156.065h.429c.013-.442.013-.819.013-1.3a7.27,7.27,0,0,0-.078-1.495H122a3.894,3.894,0,0,0-.078.988c-.013.923-.013,1.365-.026,1.807Z"/><path d="M126.524,62.913a13.246,13.246,0,0,1,2.613,2.756l-.728.689a12.975,12.975,0,0,0-2.561-2.834Z"/><path d="M39.658,76.374a11.935,11.935,0,0,0-1.417.078V75.5a10.681,10.681,0,0,0,1.4.078H48.29a10.092,10.092,0,0,0,1.417-.078v.949a11.09,11.09,0,0,0-1.4-.078H45.04a10.974,10.974,0,0,1-.832,1.456v7.2a9.32,9.32,0,0,0,.091,1.4H43.233a11.944,11.944,0,0,0,.091-1.4V80.391c0-.52.013-.962.027-1.482a13.308,13.308,0,0,1-1.99,2.106,17.907,17.907,0,0,1-2.808,2.041,2.942,2.942,0,0,0-.6-.767,15.548,15.548,0,0,0,4.018-3.029,10.406,10.406,0,0,0,2.066-2.886Zm5.85,2.145a12.207,12.207,0,0,0,2,2.015,12.544,12.544,0,0,0,2.6,1.612,3.014,3.014,0,0,0-.6.806,14.56,14.56,0,0,1-4.642-3.9Z"/><path d="M55.206,81.548a6.924,6.924,0,0,0,.729-1.17H53.776a13.671,13.671,0,0,0-1.5.052,8.911,8.911,0,0,0,.052-1.131v-.936a9.973,9.973,0,0,0-.052-1.183,13.216,13.216,0,0,0,1.4.065h1.482V75.984H52.893a10.175,10.175,0,0,0-1.444.065v-.858a9.681,9.681,0,0,0,1.469.078h8.2a9.746,9.746,0,0,0,1.482-.078v.858a10.4,10.4,0,0,0-1.443-.065H58.729v1.261h1.547a12.949,12.949,0,0,0,1.417-.065,9.6,9.6,0,0,0-.051,1.183v.923a8.412,8.412,0,0,0,.051,1.144,13.217,13.217,0,0,0-1.495-.052H56.844c-.364.637-.442.741-.728,1.17h5.031A9.472,9.472,0,0,0,62.6,81.47v.858a11.447,11.447,0,0,0-1.456-.065H59.718a5.621,5.621,0,0,1-1.561,2.054,43.255,43.255,0,0,1,4.16,1.547l-.585.715a31.262,31.262,0,0,0-4.29-1.742,12.086,12.086,0,0,1-5.72,1.586,2.986,2.986,0,0,0-.377-.806,11.585,11.585,0,0,0,5.109-1.079c-1.014-.3-1.936-.52-3.237-.793a12.949,12.949,0,0,0,1.43-1.482H52.866a11.1,11.1,0,0,0-1.443.065V81.47a9.517,9.517,0,0,0,1.443.078Zm-2.08-3.64v1.807h2.041V77.908Zm2.47,4.355a11.525,11.525,0,0,1-.988,1.1c1.209.273,1.664.39,2.652.689a4.193,4.193,0,0,0,1.534-1.794Zm.312-5.018h2.08V75.984h-2.08Zm0,2.47h2.08V77.908h-2.08Zm2.821,0h2.12V77.908h-2.12Z"/><path d="M68.817,75.1a4.142,4.142,0,0,0-.208.832c-.09.442-.169.754-.351,1.417a10.818,10.818,0,0,0,2.327-.429l.039.9c-.143.026-.143.026-.455.078a15.673,15.673,0,0,1-2.132.273,24.22,24.22,0,0,1-1.443,3.8c-.312.624-.429.845-.923,1.7-.117.182-.194.338-.26.442l-.884-.52a11.477,11.477,0,0,0,1.248-2.028,19.465,19.465,0,0,0,1.352-3.354c-.325.013-.767.026-.962.026-.221,0-.663-.013-.858-.013-.143-.013-.247-.013-.286-.013h-.169l.013-.9a8.215,8.215,0,0,0,1.547.1c.26,0,.69-.013.936-.013a13.29,13.29,0,0,0,.442-2.444Zm6.175,10.088a7.443,7.443,0,0,0-2.274-1.768,2.8,2.8,0,0,1,.025.416c0,1.339-.884,2.08-2.47,2.08-1.56,0-2.535-.728-2.535-1.885a1.844,1.844,0,0,1,1.209-1.651,3.8,3.8,0,0,1,1.534-.286,4.29,4.29,0,0,1,1.313.2c-.065-.845-.091-1.456-.091-1.781a5.264,5.264,0,0,1,.13-1.261l.885.091a3.959,3.959,0,0,0-.169,1.209,15.515,15.515,0,0,0,.142,1.976A9.338,9.338,0,0,1,75.239,84.1a1.348,1.348,0,0,0,.235.208Zm-4.576-2.327c-1.1,0-1.807.455-1.807,1.17,0,.663.624,1.066,1.651,1.066,1.118,0,1.626-.442,1.626-1.417,0-.156-.027-.559-.027-.559A3.858,3.858,0,0,0,70.416,82.861Zm4.563-3.536a14.081,14.081,0,0,0-3.445-1.768l.482-.728a17.936,17.936,0,0,1,3.431,1.716Z"/><path d="M77.189,79.858a5.419,5.419,0,0,0,1.014.065h.676a6.072,6.072,0,0,0,1-.065,9.7,9.7,0,0,0-.065,1.378v2.548a1.868,1.868,0,0,0,.637.832c.754.559,1.534.715,3.38.715a36.665,36.665,0,0,0,5.227-.247,3.164,3.164,0,0,0-.3.949c-1.158.052-2.991.091-4.525.091-2.158,0-2.938-.13-3.77-.611a3.126,3.126,0,0,1-1.079-1.066,13.223,13.223,0,0,1-1.534,1.339,5.21,5.21,0,0,0-.507.429l-.429-.858a8.307,8.307,0,0,0,2.093-1.56V80.651h-.858a5.156,5.156,0,0,0-.962.065Zm.78-4.914a17.319,17.319,0,0,1,2.093,2.288l-.663.6a12.124,12.124,0,0,0-2.028-2.366Zm3.692,1.625a6.767,6.767,0,0,0-1.222.065v-.806a10.557,10.557,0,0,0,1.352.065h2.275a6.675,6.675,0,0,0-.09-1.17h.91a6.384,6.384,0,0,0-.092,1.17h2.522a10.694,10.694,0,0,0,1.352-.065v.806a7.907,7.907,0,0,0-1.3-.065H84.794V77.6h2.172a7.838,7.838,0,0,0,1.013-.052,6.114,6.114,0,0,0-.051.884v2.6a5.566,5.566,0,0,0,.051.845,7.979,7.979,0,0,0-1.013-.052H84.794v1.066H87.42a7.527,7.527,0,0,0,1.287-.065v.806a8,8,0,0,0-1.3-.065H84.794v.247a6.829,6.829,0,0,0,.092,1.183h-.91a7.036,7.036,0,0,0,.09-1.183v-.247H81.778a10.489,10.489,0,0,0-1.3.065v-.806a7.721,7.721,0,0,0,1.3.065h2.288V81.821H82.1a8.474,8.474,0,0,0-1.027.052,5.783,5.783,0,0,0,.052-.845V78.4a6.086,6.086,0,0,0-.052-.858,7.6,7.6,0,0,0,1.014.052h1.976V76.569Zm.221,1.677v1.105h2.184V78.246Zm0,1.729v1.2h2.184v-1.2Zm2.912-.624h2.38V78.246h-2.38Zm0,1.82h2.38v-1.2h-2.38Z"/><path d="M91.632,81.977a13.34,13.34,0,0,1-.793,3.666l-.715-.338a10.365,10.365,0,0,0,.767-3.523Zm-1.5-1.651a2.827,2.827,0,0,0,.481.026c.117,0,.377-.013.611-.013.143-.182.4-.559.806-1.131a14.265,14.265,0,0,0-1.872-2.249l.494-.6c.286.312.377.416.585.663a8.524,8.524,0,0,0,1.1-2.431l.832.338a5.3,5.3,0,0,0-.481.871,16.369,16.369,0,0,1-1,1.768c.364.442.429.533.767,1a13.009,13.009,0,0,0,1.365-2.522l.78.416c-.051.065-.3.468-.741,1.2-.416.689-1.261,1.911-1.82,2.626.832-.065,1.222-.1,1.963-.208a7.9,7.9,0,0,0-.481-1.014l.6-.26a12.1,12.1,0,0,1,.962,2.223,10.976,10.976,0,0,0,2.8-1.7,8.5,8.5,0,0,1-1.392-1.807A11.028,11.028,0,0,1,95.1,78.935a1.915,1.915,0,0,0-.572-.546,8.753,8.753,0,0,0,1.9-1.95,5.6,5.6,0,0,0,.922-1.833l.819.3c-.077.13-.13.221-.221.4-.169.325-.2.377-.338.624h1.911a6.328,6.328,0,0,0,1.222-.065l.469.507a5.169,5.169,0,0,0-.313.468A11.656,11.656,0,0,1,99,79.3a9.9,9.9,0,0,0,3.3,1.677,2.631,2.631,0,0,0-.416.832,11,11,0,0,1-3.446-1.976,12.553,12.553,0,0,1-3.2,2.015,2.266,2.266,0,0,0-.3-.494l-.442.2c-.116-.39-.155-.533-.247-.819-.377.065-.585.091-1.117.156v4.3a8.815,8.815,0,0,0,.077,1.3H92.3a8.989,8.989,0,0,0,.078-1.313V80.963c-.208.013-.234.013-.39.026-1.04.091-1.04.091-1.716.169Zm4.213,1.43a16.65,16.65,0,0,1,.636,2.964l-.715.2a12.284,12.284,0,0,0-.585-2.977Zm2.339,4.719h-.832a8,8,0,0,0,.065-1.313V82.744a8.547,8.547,0,0,0-.039-1.131c.3.026.494.026,1.053.026h3.042c.546,0,.806-.013,1.067-.026a10.786,10.786,0,0,0-.039,1.131v2.405a8.336,8.336,0,0,0,.064,1.326h-.844v-.689H96.689Zm0-1.4h3.537v-2.7H96.689Zm.481-8.45c-.091.13-.13.169-.194.273a6.378,6.378,0,0,0,1.468,1.924,9.061,9.061,0,0,0,1.664-2.2Z"/><path d="M105.984,75.464a18.524,18.524,0,0,0-1,6.1c0,.455.026,1.222.052,1.82,0,.1,0,.13.013.364v.247l.052.013a11.54,11.54,0,0,1,.767-2.288,1.793,1.793,0,0,0,.1-.26l.637.3a11.226,11.226,0,0,0-1.118,3.692,1.416,1.416,0,0,0,.026.26l-.923.091c-.013-.117-.026-.182-.078-.481a20.694,20.694,0,0,1-.364-3.861,22.027,22.027,0,0,1,.676-5.343,5.988,5.988,0,0,0,.143-.819Zm1.313,2.418a9.008,9.008,0,0,0,2.341.208c.506,0,.857-.013,1.39-.039-.012-1.222-.012-1.222-.012-2.21a2.974,2.974,0,0,0-.039-.533h.974a13.438,13.438,0,0,0-.091,2.041c0,.143,0,.351.013.637a8.85,8.85,0,0,0,2.249-.481l.039.884c-.025,0-.025,0-.91.182a12.389,12.389,0,0,1-1.378.208c.014,1.287.039,1.95.144,3.679a9.4,9.4,0,0,1,2.17,1.274c.157.1.182.13.326.221l-.4.91a7.034,7.034,0,0,0-1.845-1.352.75.75,0,0,1-.13-.078,1.079,1.079,0,0,0-.117-.078,1.938,1.938,0,0,1,.025.338,2.26,2.26,0,0,1-.155.884,2.222,2.222,0,0,1-2.172,1.092c-1.508,0-2.457-.715-2.457-1.846,0-1.079,1.027-1.846,2.47-1.846a3.669,3.669,0,0,1,1.443.26c-.038-.273-.091-1.495-.13-3.393-.585.026-.987.039-1.481.039-.534,0-1.015-.013-1.47-.039a3.4,3.4,0,0,0-.416-.026,1.925,1.925,0,0,0-.221-.013.587.587,0,0,0-.13-.013h-.052Zm2.5,4.875c-1.014,0-1.677.429-1.677,1.079s.6,1.053,1.508,1.053a1.792,1.792,0,0,0,1.326-.455,1.519,1.519,0,0,0,.247-1.014c0-.091-.012-.39-.012-.39A3.365,3.365,0,0,0,109.793,82.757Z"/><path d="M40.36,96.3a9.423,9.423,0,0,0-.091,1.547,22.262,22.262,0,0,0,.338,4.043c.287,1.326.819,2.223,1.313,2.223.234,0,.455-.221.65-.65a9.353,9.353,0,0,0,.676-2.223,4.131,4.131,0,0,0,.768.741c-.638,2.275-1.236,3.146-2.159,3.146-.728,0-1.4-.728-1.846-1.976s-.637-2.9-.7-6.1a7.033,7.033,0,0,0-.039-.767Zm6.28.689A11.28,11.28,0,0,1,48.5,99.949a12.481,12.481,0,0,1,.976,3.471l-.923.377a11.5,11.5,0,0,0-2.7-6.409Z"/><path d="M51.943,97.336a8.965,8.965,0,0,0,1.625.117c.26,0,.4,0,.78-.026a12.712,12.712,0,0,0,.286-2.392l1.027.1a12.292,12.292,0,0,0-.234,1.235c-.065.416-.1.6-.169.988A10.73,10.73,0,0,0,57.6,96.92l.064.9c-.1.013-.1.013-.364.065a18.971,18.971,0,0,1-2.2.312c-.2,1.027-.559,2.5-.91,3.679a34.256,34.256,0,0,1-1.495,3.965l-.949-.4a26.145,26.145,0,0,0,2.444-7.189c-.26.013-.416.013-.9.013-.455,0-.572,0-1.079-.026h-.052a1.936,1.936,0,0,0-.221.013Zm5.811,4.719a4.356,4.356,0,0,0-.39.494,1.564,1.564,0,0,0-.325.923c0,.78.793,1.2,2.275,1.2a9.659,9.659,0,0,0,2.873-.442l.091.975c-.142.026-.142.026-.572.091a13.025,13.025,0,0,1-2.313.221c-2.133,0-3.238-.663-3.238-1.95,0-.585.182-.988.871-1.872Zm4.017-2.249a13.052,13.052,0,0,0-1.534-.091,11.315,11.315,0,0,0-3.25.442l-.091-.884a14.73,14.73,0,0,1,3.446-.429c.246,0,.441,0,1.417.039Z"/><path d="M67.647,95.36a20.222,20.222,0,0,0-.169,2.743c-.052,1.56-.091,3.328-.091,3.913,0,.156.013.481.026.78a2.046,2.046,0,0,0,.611,1.56,2.457,2.457,0,0,0,1.625.507,3.735,3.735,0,0,0,3.485-2.262,7.725,7.725,0,0,0,.636-2.041,3.7,3.7,0,0,0,.936.624,7.91,7.91,0,0,1-1.442,2.951A4.554,4.554,0,0,1,69.6,105.76a3.084,3.084,0,0,1-2.445-.91,3.621,3.621,0,0,1-.715-2.665c0-.871.013-1.2.117-5.291.013-.39.013-.637.013-.845a4,4,0,0,0-.052-.689Z"/><path d="M87.355,105.37a10.425,10.425,0,0,0-2.652-1.859c-.221-.117-.519-.247-.871-.39a3.738,3.738,0,0,1,.026.468,2.251,2.251,0,0,1-.325,1.417,2.617,2.617,0,0,1-2.2.819,3.386,3.386,0,0,1-2.015-.52,1.7,1.7,0,0,1-.7-1.365c0-.858.676-1.534,1.82-1.794a5.663,5.663,0,0,1,1.352-.13,5.776,5.776,0,0,1,1.17.1c-.013-.039-.013-.039-.013-.156a1.036,1.036,0,0,1-.013-.143c-.013-.117-.013-.39-.026-.767-.013-.169-.013-.416-.026-.754-.468.013-1.117.026-1.533.026-.781,0-1.392-.026-2.2-.091-.143-.013-.247-.013-.325-.013h-.1l.013-.858a15.955,15.955,0,0,0,2.977.208c.338,0,.793,0,1.157-.013l-.026-1.781c-.377.013-.585.013-.884.013-.949,0-2-.039-3.172-.13a1.577,1.577,0,0,0-.234-.013,1.062,1.062,0,0,0-.182.013l.013-.884a16.15,16.15,0,0,0,3.328.26c.261,0,.7-.013,1.131-.013a10.18,10.18,0,0,0-.065-1.872h1a14.509,14.509,0,0,0-.091,1.833,18.326,18.326,0,0,0,3.848-.533l.065.884c-.22.013-.22.013-.9.1a26.981,26.981,0,0,1-3.016.312c.013,1.066.013,1.066.026,1.755a15.681,15.681,0,0,0,3.6-.533l.052.9c-.169.013-.3.026-.754.091-.9.143-1.924.247-2.886.312.026.728.026.728.079,1.989a11.4,11.4,0,0,1,3.627,1.9,4.444,4.444,0,0,0,.441.3Zm-4.394-2.457a4.772,4.772,0,0,0-1.326-.143c-1.287,0-2.132.468-2.132,1.157s.65,1.079,1.781,1.079a1.877,1.877,0,0,0,1.43-.429,1.7,1.7,0,0,0,.261-1.17Z"/><path d="M93.881,95.607a15.044,15.044,0,0,0-.117,2.717c2.106-.117,2.627-.143,4.252-.208v-.364c.012-.143.012-.286.012-.442a12.33,12.33,0,0,0-.078-1.976h1a7.034,7.034,0,0,0-.052,1v.546l-.012.845v.351c1.273-.026,2.288-.065,2.716-.117l.027.923c-.352-.026-.43-.026-.976-.026-.117,0-.455,0-.884.013-.208,0-.494.013-.91.013a12.29,12.29,0,0,1-.234,2.535,1.3,1.3,0,0,1-1.313,1.144,3.732,3.732,0,0,1-1.807-.6c.013-.195.026-.26.026-.39s-.013-.273-.026-.533a3.7,3.7,0,0,0,1.7.715c.364,0,.52-.208.638-.845a11.842,11.842,0,0,0,.155-2c-1.572.052-2.509.1-4.238.221v1.17a19.933,19.933,0,0,0,.13,3.276,1.117,1.117,0,0,0,.872.845,7.21,7.21,0,0,0,2.027.221,11.786,11.786,0,0,0,3.614-.481l.105,1c-.183.013-.208.026-.521.065a22.09,22.09,0,0,1-3.289.273c-2.313,0-3.3-.442-3.64-1.612a13.746,13.746,0,0,1-.168-3.081V99.182a26.193,26.193,0,0,0-2.614.273l-.078-.91a2.762,2.762,0,0,0,.286.013c.234,0,1.04-.052,2.406-.169v-.845a13.75,13.75,0,0,0-.066-1.937Z"/><path d="M108.48,95.373c-.169.312-.169.312-1.443,3.575a22.26,22.26,0,0,1-.935,2.145c-.027.052-.079.156-.144.286a2.118,2.118,0,0,0-.117.234l.065.026c.858-1.235,1.521-1.7,2.445-1.7a1.442,1.442,0,0,1,1.3.767,3.265,3.265,0,0,1,.221,1.469v.884a2.21,2.21,0,0,0,.208,1.235,1.212,1.212,0,0,0,.988.4,2.249,2.249,0,0,0,2.08-1.625,5.719,5.719,0,0,0,.495-1.846,3.685,3.685,0,0,0,.857.663,7.022,7.022,0,0,1-.923,2.288,3.026,3.026,0,0,1-2.587,1.417,1.829,1.829,0,0,1-1.9-1.17,5.419,5.419,0,0,1-.116-1.4v-.741a2.8,2.8,0,0,0-.1-.988.7.7,0,0,0-.741-.481c-.754,0-1.6.689-2.327,1.924a13.306,13.306,0,0,0-1.2,2.99l-1-.312c.169-.364.169-.364,2.041-5.356,1.417-3.757,1.7-4.576,1.781-4.966Z"/><path class="col2" d="M70.717,31.99a2.857,2.857,0,0,0,1.033,1.8,4.159,4.159,0,0,0,2.663.858c2.179,0,3.564-1.122,3.564-2.86a2.563,2.563,0,0,0-1.231-2.311,5.7,5.7,0,0,0-2.531-.528,18.786,18.786,0,0,0-2.354.11V26.335a15.082,15.082,0,0,0,2.134.11c2.2,0,3.5-1.012,3.5-2.707,0-1.518-1.034-2.376-2.905-2.376a3.668,3.668,0,0,0-2.4.682,3.225,3.225,0,0,0-.924,1.694L68.12,23.21a5.466,5.466,0,0,1,2.09-3.146,7.146,7.146,0,0,1,4.313-1.21c3.675,0,6.051,1.848,6.051,4.709A4.011,4.011,0,0,1,79.056,26.8a5.431,5.431,0,0,1-2.134.858,4.628,4.628,0,0,1,3.146,1.474,4.228,4.228,0,0,1,1.056,3.037,4.659,4.659,0,0,1-1.32,3.212,7.6,7.6,0,0,1-5.412,1.782c-2.575,0-4.335-.66-5.59-2.09a5.81,5.81,0,0,1-1.232-2.464Z"/></svg>