<svg data-name="icon-tel" xmlns="http://www.w3.org/2000/svg" viewBox="0 0 24.437 36.536"><path class="col1" d="M3.922,2.481A5.5,5.5,0,0,0,1.9,4.032c-.268.386-.5.8-.75,1.2L.715,6.3a1.632,1.632,0,0,1-.038.22,16,16,0,0,0-.469,7.241,35.461,35.461,0,0,0,1.386,5.707,41.833,41.833,0,0,0,2.669,6.4,36.032,36.032,0,0,0,2.878,4.681,17,17,0,0,0,3.48,3.63A10.829,10.829,0,0,0,15.6,36.509a5.7,5.7,0,0,0,2.444-.347c-.035-.1-.061-.187-.1-.27q-.189-.456-.382-.908Q16.6,32.694,15.635,30.4c-.523-1.24-1.051-2.478-1.563-3.724a.441.441,0,0,0-.416-.319,3.464,3.464,0,0,1-2.823-1.873c-.4-.749-.778-1.512-1.1-2.3-.821-1.981-1.608-3.977-2.4-5.968a3.611,3.611,0,0,1,.52-3.8.406.406,0,0,0,.071-.334C7.466,10.983,7,9.884,6.534,8.783Q5.495,6.319,4.456,3.853C4.269,3.405,4.1,2.948,3.922,2.481Z"/><path class="col1" d="M10.166,10.975c.953-.406,2.3-.97,3.252-1.371a1.114,1.114,0,0,0,.675-1.631c-.886-2.11-1.768-4.222-2.663-6.329A3.727,3.727,0,0,0,10.621.153L10.247,0a5,5,0,0,0-.855.169c-.73.28-1.832.765-2.554,1.063-.441.182-.887.352-1.3.514C6.9,4.961,8.224,8.115,9.556,11.276,9.746,11.182,9.951,11.067,10.166,10.975Z"/><path class="col1" d="M19.808,35.42c1.208-.509,2.808-1.173,4.01-1.7a1.045,1.045,0,0,0,.529-1.407c-.085-.22-.181-.435-.273-.652q-1.4-3.325-2.8-6.65a1.129,1.129,0,0,0-1.645-.657c-.582.243-1.557.639-2.131.9s-1.161.564-1.731.843c1.28,3.04,2.607,6.188,3.937,9.347A.692.692,0,0,0,19.808,35.42Z"/></svg>