<svg data-name="icon-form" xmlns="http://www.w3.org/2000/svg" viewBox="0 0 29.041 38.217"><rect class="col1" x="1.445" y="9.24" width="26.351" height="27.523"/><path class="col1" d="M24.5,4H21.426V6.054H24.5a2.487,2.487,0,0,1,2.483,2.484V33.676A2.485,2.485,0,0,1,24.5,36.159H4.541a2.485,2.485,0,0,1-2.483-2.483V8.538A2.486,2.486,0,0,1,4.541,6.054H7.615V4H4.541A4.546,4.546,0,0,0,0,8.538V33.676a4.546,4.546,0,0,0,4.541,4.541H24.5a4.546,4.546,0,0,0,4.54-4.541V8.538A4.546,4.546,0,0,0,24.5,4Z"/><path class="col1" d="M19.968,2.661H17.181a2.661,2.661,0,1,0-5.321,0H9.073V7.805h10.9Zm-5.447.868a.868.868,0,1,1,.868-.868A.869.869,0,0,1,14.521,3.529Z"/><rect class="col2" x="13.367" y="12.62" width="9.498" height="1.029"/><rect class="col2" x="13.367" y="14.75" width="9.498" height="1.029"/><path class="col2" d="M11.573,19.232H5.663v5.911h5.91Zm-1.028,4.883H6.691V20.261h3.854Z"/><rect class="col2" x="13.367" y="20.608" width="9.498" height="1.029"/><rect class="col2" x="13.367" y="22.739" width="9.498" height="1.029"/><path class="col2" d="M5.663,33.132h5.91V27.221H5.663ZM6.691,28.25h3.854V32.1H6.691Z"/><rect class="col2" x="13.367" y="28.597" width="9.498" height="1.029"/><rect class="col2" x="13.367" y="30.727" width="9.498" height="1.029"/><polygon class="col2" points="11.573 14.448 10.545 15.122 10.545 16.126 7.064 16.126 6.691 16.126 6.691 15.738 5.663 14.666 5.663 17.155 11.573 17.155 11.573 14.448"/><polygon class="col2" points="4.371 11.635 7.987 15.404 15.484 10.49 15.174 9.995 8.519 13.059 6.879 10.614 4.371 11.635"/><rect class="col1" x="1.237" y="5.904" width="6.38" height="3.933"/><rect class="col1" x="21.432" y="5.904" width="6.38" height="3.933"/></svg>