<svg data-name="icon-line" xmlns="http://www.w3.org/2000/svg" viewBox="0 0 34.667 32.441"><path class="col1" d="M5.367,16.207A8.554,8.554,0,0,0,0,23.82a7.663,7.663,0,0,0,1.567,4.594l-.973,3.63L4.508,31a11.321,11.321,0,0,0,5.6,1.446c4.793,0,8.8-2.85,9.836-6.669-.19.007-.381.018-.572.018C12.572,25.79,6.871,21.692,5.367,16.207Z"/><path class="col2" d="M32.667,13.341C32.667,7.078,26.714,2,19.371,2s-13.3,5.078-13.3,11.341,5.952,11.34,13.3,11.34a14.891,14.891,0,0,0,7.365-1.9l5.149,1.381-1.279-4.774A10.105,10.105,0,0,0,32.667,13.341Z"/><path class="col1" d="M32.667,13.341C32.667,7.078,26.714,2,19.371,2s-13.3,5.078-13.3,11.341,5.952,11.34,13.3,11.34a14.891,14.891,0,0,0,7.365-1.9l5.149,1.381-1.279-4.774A10.105,10.105,0,0,0,32.667,13.341Z"/></svg>