<svg data-name="tel-v20230809" xmlns="http://www.w3.org/2000/svg" viewBox="0 0 327.398 35.57"><path class="col1" d="M57.578,5.643a8.911,8.911,0,0,1,14.368,0c1.782,2.635,2.71,6.274,2.71,10.543s-.928,7.908-2.71,10.506a8.858,8.858,0,0,1-14.368,0,19.164,19.164,0,0,1-2.71-10.506A18.9,18.9,0,0,1,57.578,5.643ZM60.993,26.21q1.227,3.229,3.788,3.229c1.893,0,3.192-1.262,4.008-3.861.669-2.041.966-5.011.966-9.392,0-4.826-.371-7.908-1.188-10.024-.817-2.19-2.041-3.23-3.786-3.23-3.454,0-4.975,4.047-4.975,13.254C59.806,20.9,60.177,24.094,60.993,26.21Z"/><path class="col1" d="M97.15,22.571c0,4.752-3.862,7.8-9.912,7.8-5.755,0-9.282-2.6-9.282-6.869A6.77,6.77,0,0,1,80.7,18.042,12,12,0,0,1,84.044,16.3c-3.9-2.041-5.308-3.823-5.308-6.868,0-4.529,3.49-7.462,8.947-7.462,5.049,0,8.427,2.636,8.427,6.5,0,2.933-1.893,5.049-5.494,6.126C95.219,16.631,97.15,19.007,97.15,22.571ZM83.042,18.562a6.935,6.935,0,0,0-1.448,4.492c0,3.824,2.376,6.348,5.9,6.348a5.155,5.155,0,0,0,5.457-5.346c0-1.856-.779-3.192-2.635-4.529A21.689,21.689,0,0,0,86.9,17.634c-.484-.223-1.634-.743-1.671-.743A6.373,6.373,0,0,0,83.042,18.562Zm8.39-6.014A6.537,6.537,0,0,0,92.583,8.5a7.125,7.125,0,0,0-.853-3.378A4.743,4.743,0,0,0,87.5,2.97a4.387,4.387,0,0,0-4.752,4.677c0,1.857.817,3.193,2.71,4.455a21.589,21.589,0,0,0,2.413,1.262l1.634.743A4.952,4.952,0,0,0,91.432,12.548Z"/><path class="col1" d="M103.16,5.643a8.911,8.911,0,0,1,14.368,0c1.782,2.635,2.71,6.274,2.71,10.543s-.928,7.908-2.71,10.506a8.858,8.858,0,0,1-14.368,0,19.164,19.164,0,0,1-2.709-10.506A18.9,18.9,0,0,1,103.16,5.643Zm3.416,20.567q1.226,3.229,3.787,3.229c1.893,0,3.192-1.262,4.008-3.861.669-2.041.966-5.011.966-9.392,0-4.826-.371-7.908-1.188-10.024-.817-2.19-2.041-3.23-3.786-3.23-3.453,0-4.975,4.047-4.975,13.254C105.388,20.9,105.759,24.094,106.576,26.21Z"/><path class="col1" d="M125.952,5.643a8.91,8.91,0,0,1,14.367,0c1.782,2.635,2.71,6.274,2.71,10.543s-.928,7.908-2.71,10.506a8.857,8.857,0,0,1-14.367,0,19.155,19.155,0,0,1-2.71-10.506A18.891,18.891,0,0,1,125.952,5.643Zm3.415,20.567q1.226,3.229,3.787,3.229c1.893,0,3.192-1.262,4.008-3.861.669-2.041.966-5.011.966-9.392,0-4.826-.371-7.908-1.188-10.024-.817-2.19-2.041-3.23-3.786-3.23-3.453,0-4.975,4.047-4.975,13.254C128.179,20.9,128.55,24.094,129.367,26.21Z"/><path class="col1" d="M146.478,17.374H155.2v3.118h-8.724Z"/><path class="col1" d="M162.4,28.734c1.708-.037,2.227-.111,2.784-.445.854-.446,1.114-1.411,1.114-3.787V7.425a10.552,10.552,0,0,0-.111-2.228c-.149-.817-.631-1-2.525-1h-1V3.155c3.528-.3,6.238-.668,8.688-1.114q-.334,3.954-.334,9.356V24.5c0,2.264.223,3.193.891,3.712.519.409.965.483,2.858.52v1.04H162.4Z"/><path class="col1" d="M187.086,6.534a2.807,2.807,0,0,0-2.932,1.485,10.353,10.353,0,0,0-1.115,3.3l-1.224-.149,1.15-8.613h17.746V5.2a48.785,48.785,0,0,0-5.9,11.175,42.078,42.078,0,0,0-1.781,6.571,29.863,29.863,0,0,0-.447,4.974,2.406,2.406,0,0,1-.742,2,4.059,4.059,0,0,1-2.376.594q-2.451,0-2.45-1.782c0-2.45,1.968-7.462,5.123-12.882a110.626,110.626,0,0,1,6.015-9.318Z"/><path class="col1" d="M206.908,5.643a8.91,8.91,0,0,1,14.367,0c1.782,2.635,2.71,6.274,2.71,10.543s-.928,7.908-2.71,10.506a8.857,8.857,0,0,1-14.367,0,19.155,19.155,0,0,1-2.71-10.506A18.891,18.891,0,0,1,206.908,5.643Zm3.415,20.567q1.225,3.229,3.787,3.229c1.893,0,3.192-1.262,4.008-3.861.669-2.041.966-5.011.966-9.392,0-4.826-.371-7.908-1.188-10.024-.817-2.19-2.041-3.23-3.786-3.23-3.453,0-4.975,4.047-4.975,13.254C209.135,20.9,209.506,24.094,210.323,26.21Z"/><path class="col1" d="M227.434,17.374h8.724v3.118h-8.724Z"/><path class="col1" d="M242.838,15.963A9.607,9.607,0,0,1,250,12.956c5.42,0,8.8,3.193,8.8,8.353,0,5.532-3.9,9.059-10.061,9.059-4.864,0-8.65-2.339-8.65-5.383,0-1.411.928-2.154,2.636-2.154a2.379,2.379,0,0,1,1.856.631c.26.3.334.594.371,1.671a4.363,4.363,0,0,0,1.039,3.044,3.924,3.924,0,0,0,2.9,1.225,4.281,4.281,0,0,0,3.638-1.893,10.764,10.764,0,0,0,1.411-5.717c0-4.678-1.931-7.388-5.273-7.388a7.444,7.444,0,0,0-6.236,4.047l-1.226-.3L242.43,2.561h15.184l-.668,4.158H243.58Z"/><path class="col1" d="M266.149,28.734c1.708-.037,2.227-.111,2.784-.445.854-.446,1.114-1.411,1.114-3.787V7.425a10.552,10.552,0,0,0-.111-2.228c-.149-.817-.631-1-2.525-1h-1V3.155c3.527-.3,6.237-.668,8.687-1.114q-.335,3.954-.334,9.356V24.5c0,2.264.223,3.193.891,3.712.519.409.965.483,2.858.52v1.04H266.149Z"/><path class="col1" d="M287.864,5.643a8.91,8.91,0,0,1,14.367,0c1.782,2.635,2.71,6.274,2.71,10.543s-.928,7.908-2.71,10.506a8.857,8.857,0,0,1-14.367,0,19.155,19.155,0,0,1-2.71-10.506A18.891,18.891,0,0,1,287.864,5.643Zm3.415,20.567q1.226,3.229,3.787,3.229c1.893,0,3.192-1.262,4.009-3.861.668-2.041.965-5.011.965-9.392,0-4.826-.371-7.908-1.188-10.024-.817-2.19-2.041-3.23-3.786-3.23-3.453,0-4.975,4.047-4.975,13.254C290.091,20.9,290.462,24.094,291.279,26.21Z"/><path class="col1" d="M323.425,25.1c0,3.081.483,3.6,3.342,3.638v1.04H315.592v-1c1.745-.074,2.153-.148,2.6-.519.556-.409.779-1.374.779-3.156V22.46H306.979V20.678L319.973,2.227h3.452V20.79H327.4v1.67h-3.973ZM318.97,6.088l-10.32,14.7h10.32Z"/><path class="col1" d="M0,0V27.436H45.274V0ZM15.85,26.51H10.241V7.028A6.12,6.12,0,0,1,16.508.757h6.608V5.885H18A2.013,2.013,0,0,0,15.85,7.69v3.39H30.639V16.2H15.85Zm19.027.023H32.134a6.131,6.131,0,0,1-6.279-6.274V17.413l4.789-.009v2.648a1.363,1.363,0,0,0,1.475,1.364h2.758Zm0-20.648H32.119a1.356,1.356,0,0,0-1.475,1.358V9.891H25.855V7.028A6.13,6.13,0,0,1,32.134.757h2.743Z"/><path class="col1" d="M6.82,29.179a6.678,6.678,0,0,1-1.234,4.078,6.214,6.214,0,0,1-3.875,2.15l-.538-1.17c3.407-.592,3.951-2.3,4.215-3.861H.64v-1.2Z"/><path class="col1" d="M9.384,33.132H8.1v-4.2H9.384Zm3.689-1.157c0,2.921-2.292,3.259-4.114,3.476l-.466-1.172a6.548,6.548,0,0,0,2.6-.615,1.737,1.737,0,0,0,.693-1.514V28.81h1.29Z"/><rect class="col1" x="14.373" y="31.393" width="6.741" height="1.278"/><polygon class="col1" points="27.971 29.292 27.971 34.926 22.188 34.926 22.188 33.721 26.684 33.721 26.684 30.483 22.263 30.483 22.263 29.292 27.971 29.292"/><rect class="col1" x="29.368" y="31.393" width="6.742" height="1.278"/><path class="col1" d="M39.178,30.844a13.409,13.409,0,0,1-.229,2.525,4.054,4.054,0,0,1-1.155,2.2l-.954-.986a2.942,2.942,0,0,0,.921-1.723,10.022,10.022,0,0,0,.193-1.88v-1.92h1.224Zm2.093,2.969a1.922,1.922,0,0,0,1.162-.994,4.713,4.713,0,0,0,.518-1.653l1.148.555A4.773,4.773,0,0,1,42.787,34.3a4.122,4.122,0,0,1-2.73,1.047v-6.53h1.214Z"/></svg>