<svg data-name="tel-beta-v20230809" xmlns="http://www.w3.org/2000/svg" viewBox="0 0 380 114.683"><rect class="col1" width="380" height="100"/><path class="col2" d="M30.45,69.8c-.251-.492-.384-.72-.684-1.211l1.451-.492a12.69,12.69,0,0,1,.865,1.7h1.331a8.436,8.436,0,0,0,.791-1.643l1.523.444a7.881,7.881,0,0,1-.684,1.2h1.344v2.914H34.936V71.056H27.1v1.655H25.628V69.8h1.4a12.949,12.949,0,0,0-.72-1.079l1.416-.54a13.1,13.1,0,0,1,.995,1.619ZM34.7,74.834H31.757c-.036.108-.2.588-.24.684h4.306v3.754H26.168V75.518h3.779a3.1,3.1,0,0,0,.264-.684H27.344V71.68H34.7Zm-.372,1.871H27.679v1.308h6.645Zm-1.055-3.922H28.8v.96h4.474Z"/><path class="col2" d="M48.506,79.356a10.894,10.894,0,0,1-4.173-2.267v2.387H42.87V77.125A10.778,10.778,0,0,1,38.7,79.356l-.72-1.307a13.187,13.187,0,0,0,3.862-1.608H38V75.266H42.87v-.624H38.816V73.623H42.87v-.612H38.528V71.872h2.411a4.534,4.534,0,0,0-.288-.792H38V69.845h1.7a9.986,9.986,0,0,0-.612-1.307l1.463-.348a8.342,8.342,0,0,1,.624,1.655h.635V68.25h1.367v1.595h.876V68.25h1.356v1.595h.647a12.6,12.6,0,0,0,.6-1.655l1.463.348a10.959,10.959,0,0,1-.587,1.307H49.2V71.08H46.552c-.156.444-.192.564-.288.792h2.483v1.139H44.333v.612h4.114v1.019H44.333v.624H49.2v1.175H45.4a10.882,10.882,0,0,0,3.886,1.572Zm-3.741-7.484a4.5,4.5,0,0,0,.252-.792H42.174c.048.108.24.672.288.792Z"/><path class="col2" d="M54.679,68.67V78.792H50.841V68.67ZM53.4,70.085H52.2V73h1.2Zm0,4.21H52.2V77.4h1.2Zm7.352,3.957c0,.78-.312,1.236-1.152,1.236H57.534l-.265-1.464h1.68c.2,0,.311-.095.311-.3V75.494H55.111V74.079H59.26v-1H55v-1.4h2.675V70.529H55.386V69.173h2.291V68.2h1.476v.971h2.362v1.356H59.153V71.68h2.71v1.4H60.748v1h1.019v1.415H60.748Zm-4.1.132a11.135,11.135,0,0,0-1.439-2.1l1.235-.707a8.878,8.878,0,0,1,1.511,2.015Z"/><path class="col2" d="M63.56,68.646h4.726v4.5h-3.31v6.369H63.56Zm1.416,1.1v.684H66.9v-.684Zm0,1.595v.7H66.9v-.7Zm6.56,6.741h.816c.287,0,.3-.18.3-.348V73.143H69.2v-4.5h4.869v9.666c0,.432-.12,1.2-.912,1.2H71.1l-.191-1.164H66.055V73.791h5.481Zm-4.138-3.2v.708h2.783v-.708Zm0,1.595v.744h2.783v-.744Zm3.179-6.728v.684h2.075v-.684Zm0,1.595v.7h2.075v-.7Z"/><path class="col2" d="M86.775,68.91,76.449,79.2l-.4-.384,10.326-10.29Z"/><path class="col2" d="M94.627,68.85h1.5v9.57h-1.7V70.673l-1.739,1.211-.216-1.571Z"/><path class="col2" d="M100.064,73.635a6.484,6.484,0,0,1,.8-3.586,3.058,3.058,0,0,1,2.627-1.391c3.429,0,3.429,4.1,3.429,4.977s0,4.977-3.429,4.977S100.064,74.51,100.064,73.635Zm5.17,0c0-2.063-.468-3.43-1.739-3.43-1.356,0-1.74,1.535-1.74,3.43,0,2.075.468,3.43,1.74,3.43C104.814,77.065,105.234,75.6,105.234,73.635Z"/><path class="col2" d="M110.719,71.284v1.907h-1.882V71.284Zm0,5.229V78.42h-1.882V76.513Z"/><path class="col2" d="M112.64,73.635a6.484,6.484,0,0,1,.8-3.586,3.058,3.058,0,0,1,2.627-1.391c3.43,0,3.43,4.1,3.43,4.977s0,4.977-3.43,4.977S112.64,74.51,112.64,73.635Zm5.17,0c0-2.063-.468-3.43-1.739-3.43-1.356,0-1.739,1.535-1.739,3.43,0,2.075.467,3.43,1.739,3.43C117.39,77.065,117.81,75.6,117.81,73.635Z"/><path class="col2" d="M121.161,73.635a6.493,6.493,0,0,1,.8-3.586,3.059,3.059,0,0,1,2.627-1.391c3.43,0,3.43,4.1,3.43,4.977s0,4.977-3.43,4.977S121.161,74.51,121.161,73.635Zm5.17,0c0-2.063-.468-3.43-1.74-3.43-1.355,0-1.739,1.535-1.739,3.43,0,2.075.468,3.43,1.739,3.43C125.911,77.065,126.331,75.6,126.331,73.635Z"/><path class="col2" d="M140.535,73.707a4.058,4.058,0,0,1-3.19,1.571,4.993,4.993,0,0,1-2.686-.936,3.721,3.721,0,0,0-1.955-.635,2.7,2.7,0,0,0-2.291,1.151l-.864-.851a3.633,3.633,0,0,1,1.247-1.068,4.288,4.288,0,0,1,1.956-.491,5.043,5.043,0,0,1,2.614.875,3.86,3.86,0,0,0,2,.708,2.83,2.83,0,0,0,2.3-1.188Z"/><path class="col2" d="M145.147,68.85h1.5v9.57h-1.7V70.673L143.2,71.884l-.216-1.571Z"/><path class="col2" d="M157.468,75.578a3.483,3.483,0,0,1-6.908,0,2.8,2.8,0,0,1,1.475-2.5,2.27,2.27,0,0,1-.959-1.895,2.971,2.971,0,0,1,5.877,0,2.3,2.3,0,0,1-.96,1.895A2.8,2.8,0,0,1,157.468,75.578Zm-1.691-.048a1.782,1.782,0,0,0-3.526,0,1.78,1.78,0,0,0,3.526,0Zm-.444-4.282a1.326,1.326,0,0,0-2.638,0,1.325,1.325,0,0,0,2.638,0Z"/><path class="col2" d="M161.239,71.284v1.907h-1.883V71.284Zm0,5.229V78.42h-1.883V76.513Z"/><path class="col2" d="M163.16,73.635a6.485,6.485,0,0,1,.8-3.586,3.059,3.059,0,0,1,2.627-1.391c3.43,0,3.43,4.1,3.43,4.977s0,4.977-3.43,4.977S163.16,74.51,163.16,73.635Zm5.17,0c0-2.063-.468-3.43-1.74-3.43-1.355,0-1.739,1.535-1.739,3.43,0,2.075.468,3.43,1.739,3.43C167.91,77.065,168.33,75.6,168.33,73.635Z"/><path class="col2" d="M171.68,73.635a6.484,6.484,0,0,1,.8-3.586,3.058,3.058,0,0,1,2.627-1.391c3.43,0,3.43,4.1,3.43,4.977s0,4.977-3.43,4.977S171.68,74.51,171.68,73.635Zm5.17,0c0-2.063-.468-3.43-1.739-3.43-1.356,0-1.739,1.535-1.739,3.43,0,2.075.467,3.43,1.739,3.43C176.43,77.065,176.85,75.6,176.85,73.635Z"/><path class="col2" d="M197.513,73.011h-2.734V71.62h6.992v1.391h-2.747v1.475h3.586v1.392h-3.586v1.907c.216.012.288.012.5.012h4.51l-.312,1.439h-4.2a5,5,0,0,1-4.378-1.943,6.57,6.57,0,0,1-1.69,2.195l-.972-1.272c.647-.551,1.811-1.715,2.266-4.629l1.464.2a16.531,16.531,0,0,1-.516,2.135,3.728,3.728,0,0,0,1.811,1.547Zm1.511-4.821v.959h4.6v2.939h-1.474V70.517H194.4v1.571h-1.487V69.149h4.581V68.19Z"/><path class="col2" d="M206.276,73.959a5.413,5.413,0,0,1-.756.827l-.479-1.967a8.715,8.715,0,0,0,1.978-4.629l1.523.144a11.522,11.522,0,0,1-.8,3v8.192h-1.463Zm1.571,2.746a14,14,0,0,0,3.3-4.881H208.4V70.373h3.2V68.2h1.487v2.171H216.5v1.451h-3a12.927,12.927,0,0,0,3.2,4.8l-.947,1.523a10.763,10.763,0,0,1-2.663-4.161v5.541H211.6V73.791a14.451,14.451,0,0,1-2.782,4.317Z"/><path class="col2" d="M228.1,68.718V79.176h-9.45V68.718Zm-7.879,4.425H226.5v-2.95h-6.284Zm0,1.451v3.095H226.5V74.594Z"/><path class="col2" d="M241.249,68.91,230.923,79.2l-.4-.384,10.326-10.29Z"/><path class="col2" d="M242.9,70.936h4.281v1.488a8.444,8.444,0,0,1-3.658,6.008l-.852-1.427a6.28,6.28,0,0,0,3.059-4.581H242.9Zm6.344-1.355a1.452,1.452,0,0,0,.012.228c.024.156.755,2.507.768,2.543a15.829,15.829,0,0,0,2.77-2.723l1.343,1.008a18.98,18.98,0,0,1-3.418,3,10.408,10.408,0,0,0,3.574,3.454l-.912,1.463a10.66,10.66,0,0,1-4.137-4.953v4.569c0,1.128-.6,1.308-1.187,1.308h-2.171l-.312-1.524h1.811c.228,0,.348-.107.348-.323V68.19h1.511Z"/><path class="col2" d="M261.941,72.927c-.108.252-.156.384-.252.564h1.247a4.29,4.29,0,0,0,.359-.756l1.32.2a4.1,4.1,0,0,1-.312.552h2.171v1.043h-2.411v.672h1.991v.828h-1.991v.671h1.991v.84h-1.991v.683h2.651V79.32h-6.9V75.938c-.048.048-.1.1-.336.311l-.492-.8V78.66h-3.274V68.694h3.274V74.81a6.746,6.746,0,0,0,1.619-2.171Zm-4.1-2.842h-.911v2.854h.911Zm0,4.15h-.911v3.034h.911Zm4.786-5.673v4.006h-3.286v-.984h1.991V71.02h-1.811v-.9h1.811v-.588h-1.991v-.971Zm.2,5.972h-1.667v.672h1.667Zm0,1.5h-1.667v.671h1.667Zm0,1.511h-1.667v.683h1.667Zm3.526-8.983v4.006h-3.322v-.984h2.051V71.02H263.2v-.9h1.883v-.588h-2.051v-.971Z"/><path class="col2" d="M278.319,68.718V79.176h-9.45V68.718Zm-7.879,4.425h6.284v-2.95H270.44Zm0,1.451v3.095h6.284V74.594Z"/><path class="col2" d="M82.6,25.4a8.911,8.911,0,0,1,14.367,0c1.783,2.636,2.71,6.274,2.71,10.543s-.927,7.908-2.71,10.507a8.858,8.858,0,0,1-14.367,0,19.165,19.165,0,0,1-2.71-10.507A18.9,18.9,0,0,1,82.6,25.4Zm3.415,20.567Q87.238,49.2,89.8,49.2c1.894,0,3.193-1.262,4.009-3.861.669-2.042.966-5.012.966-9.393,0-4.826-.371-7.907-1.189-10.023-.816-2.191-2.041-3.23-3.786-3.23-3.453,0-4.974,4.047-4.974,13.253C84.824,40.658,85.2,43.851,86.011,45.967Z"/><path class="col2" d="M122.168,42.329c0,4.752-3.862,7.8-9.913,7.8-5.754,0-9.281-2.6-9.281-6.868a6.768,6.768,0,0,1,2.747-5.457,11.964,11.964,0,0,1,3.341-1.745c-3.9-2.042-5.309-3.824-5.309-6.868,0-4.529,3.491-7.462,8.948-7.462,5.048,0,8.426,2.636,8.426,6.5,0,2.932-1.892,5.048-5.494,6.125C120.237,36.389,122.168,38.765,122.168,42.329Zm-14.108-4.01a6.929,6.929,0,0,0-1.448,4.492c0,3.824,2.376,6.349,5.9,6.349a5.155,5.155,0,0,0,5.457-5.346c0-1.856-.779-3.193-2.635-4.529a21.78,21.78,0,0,0-3.416-1.894c-.483-.222-1.633-.742-1.67-.742A6.372,6.372,0,0,0,108.06,38.319Zm8.39-6.014a6.534,6.534,0,0,0,1.151-4.046,7.129,7.129,0,0,0-.853-3.379,4.745,4.745,0,0,0-4.233-2.153,4.387,4.387,0,0,0-4.752,4.678c0,1.856.817,3.192,2.71,4.455a21.76,21.76,0,0,0,2.413,1.262l1.634.742A4.935,4.935,0,0,0,116.45,32.305Z"/><path class="col2" d="M128.178,25.4a8.911,8.911,0,0,1,14.367,0c1.783,2.636,2.71,6.274,2.71,10.543s-.927,7.908-2.71,10.507a8.858,8.858,0,0,1-14.367,0,19.165,19.165,0,0,1-2.71-10.507A18.9,18.9,0,0,1,128.178,25.4Zm3.415,20.567q1.227,3.23,3.787,3.23c1.894,0,3.193-1.262,4.009-3.861.669-2.042.966-5.012.966-9.393,0-4.826-.371-7.907-1.188-10.023-.817-2.191-2.041-3.23-3.787-3.23-3.453,0-4.974,4.047-4.974,13.253C130.406,40.658,130.777,43.851,131.593,45.967Z"/><path class="col2" d="M150.969,25.4a8.912,8.912,0,0,1,14.368,0c1.782,2.636,2.709,6.274,2.709,10.543s-.927,7.908-2.709,10.507a8.859,8.859,0,0,1-14.368,0,19.165,19.165,0,0,1-2.71-10.507A18.9,18.9,0,0,1,150.969,25.4Zm3.415,20.567q1.227,3.23,3.787,3.23c1.894,0,3.193-1.262,4.009-3.861.669-2.042.966-5.012.966-9.393,0-4.826-.371-7.907-1.189-10.023-.816-2.191-2.04-3.23-3.786-3.23-3.453,0-4.974,4.047-4.974,13.253C153.2,40.658,153.568,43.851,154.384,45.967Z"/><path class="col2" d="M171.5,37.131h8.723V40.25H171.5Z"/><path class="col2" d="M187.419,48.492c1.708-.038,2.228-.112,2.785-.446.854-.445,1.114-1.411,1.114-3.787V27.182a10.545,10.545,0,0,0-.111-2.227c-.149-.817-.631-1-2.525-1h-1V22.913c3.528-.3,6.237-.669,8.688-1.114q-.334,3.954-.334,9.355V44.259c0,2.265.222,3.193.89,3.713.52.408.966.482,2.859.52v1.039H187.419Z"/><path class="col2" d="M212.1,26.291a2.809,2.809,0,0,0-2.933,1.485,10.392,10.392,0,0,0-1.114,3.3l-1.224-.148,1.15-8.613h17.746v2.636a48.8,48.8,0,0,0-5.9,11.174,42.082,42.082,0,0,0-1.782,6.571,30,30,0,0,0-.446,4.975,2.412,2.412,0,0,1-.742,2.005,4.059,4.059,0,0,1-2.376.594q-2.451,0-2.45-1.782c0-2.451,1.968-7.463,5.123-12.883,1.485-2.635,3.044-5.049,6.014-9.318Z"/><path class="col2" d="M231.925,25.4a8.911,8.911,0,0,1,14.367,0c1.783,2.636,2.71,6.274,2.71,10.543s-.927,7.908-2.71,10.507a8.858,8.858,0,0,1-14.367,0,19.165,19.165,0,0,1-2.71-10.507A18.9,18.9,0,0,1,231.925,25.4Zm3.415,20.567q1.227,3.23,3.787,3.23c1.894,0,3.193-1.262,4.009-3.861.669-2.042.966-5.012.966-9.393,0-4.826-.371-7.907-1.188-10.023-.817-2.191-2.041-3.23-3.787-3.23-3.453,0-4.974,4.047-4.974,13.253C234.153,40.658,234.524,43.851,235.34,45.967Z"/><path class="col2" d="M252.452,37.131h8.723V40.25h-8.723Z"/><path class="col2" d="M267.856,35.721a9.607,9.607,0,0,1,7.165-3.007c5.42,0,8.8,3.192,8.8,8.353,0,5.531-3.9,9.058-10.062,9.058-4.863,0-8.649-2.339-8.649-5.383,0-1.411.928-2.153,2.636-2.153a2.375,2.375,0,0,1,1.856.631c.26.3.334.594.371,1.67a4.358,4.358,0,0,0,1.039,3.045,3.925,3.925,0,0,0,2.9,1.225,4.277,4.277,0,0,0,3.637-1.894,10.752,10.752,0,0,0,1.412-5.717c0-4.677-1.931-7.387-5.273-7.387a7.445,7.445,0,0,0-6.236,4.046l-1.226-.3,1.226-15.592h15.183l-.668,4.158H268.6Z"/><path class="col2" d="M291.166,48.492c1.708-.038,2.228-.112,2.785-.446.854-.445,1.114-1.411,1.114-3.787V27.182a10.545,10.545,0,0,0-.111-2.227c-.149-.817-.631-1-2.525-1h-1V22.913c3.528-.3,6.238-.669,8.688-1.114q-.334,3.954-.334,9.355V44.259c0,2.265.222,3.193.89,3.713.52.408.966.482,2.859.52v1.039H291.166Z"/><path class="col2" d="M312.881,25.4a8.912,8.912,0,0,1,14.368,0c1.782,2.636,2.71,6.274,2.71,10.543s-.928,7.908-2.71,10.507a8.859,8.859,0,0,1-14.368,0,19.165,19.165,0,0,1-2.71-10.507A18.9,18.9,0,0,1,312.881,25.4ZM316.3,45.967q1.227,3.23,3.788,3.23c1.893,0,3.192-1.262,4.008-3.861.669-2.042.966-5.012.966-9.393,0-4.826-.371-7.907-1.188-10.023-.817-2.191-2.041-3.23-3.786-3.23-3.454,0-4.975,4.047-4.975,13.253C315.109,40.658,315.48,43.851,316.3,45.967Z"/><path class="col2" d="M348.443,44.853c0,3.082.482,3.6,3.342,3.639v1.039H340.61v-1c1.745-.075,2.153-.149,2.6-.52.556-.408.779-1.374.779-3.156V42.217H332V40.436l12.994-18.451h3.452V40.547h3.973v1.67h-3.973Zm-4.455-19.007-10.321,14.7h10.321Z"/><path class="col2" d="M25.017,19.757V47.194H70.291V19.757Zm15.85,26.51H35.258V26.785a6.12,6.12,0,0,1,6.268-6.271h6.607v5.129h-5.12a2.012,2.012,0,0,0-2.146,1.8v3.39H55.656v5.117H40.867Zm19.027.023H57.152a6.131,6.131,0,0,1-6.28-6.274V37.17l4.789-.009v2.648a1.363,1.363,0,0,0,1.475,1.364h2.758Zm0-20.647H57.136A1.356,1.356,0,0,0,55.661,27v2.648H50.872V26.785a6.13,6.13,0,0,1,6.28-6.271h2.742Z"/><path class="col2" d="M31.837,48.936A6.691,6.691,0,0,1,30.6,53.015a6.212,6.212,0,0,1-3.876,2.149l-.538-1.17c3.407-.591,3.951-2.3,4.215-3.861H25.658v-1.2Z"/><path class="col2" d="M34.4,52.889H33.119v-4.2H34.4Zm3.689-1.157c0,2.921-2.292,3.259-4.114,3.476l-.466-1.172a6.548,6.548,0,0,0,2.6-.615,1.737,1.737,0,0,0,.693-1.514v-3.34h1.29Z"/><rect class="col2" x="39.39" y="51.15" width="6.741" height="1.278"/><polygon class="col2" points="52.988 49.049 52.988 54.683 47.205 54.683 47.205 53.478 51.702 53.478 51.702 50.24 47.28 50.24 47.28 49.049 52.988 49.049"/><rect class="col2" x="54.386" y="51.15" width="6.742" height="1.278"/><path class="col2" d="M64.195,50.6a13.409,13.409,0,0,1-.229,2.525,4.054,4.054,0,0,1-1.155,2.2l-.954-.986a2.935,2.935,0,0,0,.922-1.723,10.032,10.032,0,0,0,.192-1.88v-1.92h1.224Zm2.093,2.969a1.922,1.922,0,0,0,1.162-.994,4.741,4.741,0,0,0,.519-1.653l1.147.555A4.776,4.776,0,0,1,67.8,54.055a4.119,4.119,0,0,1-2.73,1.046V48.572h1.214Z"/><path class="col3" d="M311.055,69.344a13.828,13.828,0,1,1-13.828-13.826A13.829,13.829,0,0,1,311.055,69.344Z"/><path class="col4" d="M305.238,69.344a8.011,8.011,0,1,1-8.011-8.011A8.012,8.012,0,0,1,305.238,69.344Z"/><path class="col5" d="M325.976,73.268h0c-2.106,1.1-2.366,2.917-1.78,3.785l-1.55-2.294a4.157,4.157,0,0,0-2.435-1.725,3.436,3.436,0,0,0-2.754.466h0a3.783,3.783,0,0,0-.769,5.283l-1.415-2.1a3.783,3.783,0,0,0-5.188-1.26h0a3.434,3.434,0,0,0-1.458,2.381,4.149,4.149,0,0,0,.689,2.9c-2.4-3.548-5.449-8.068-7.482-11.078a4.162,4.162,0,0,0-2.436-1.724,3.442,3.442,0,0,0-2.753.465h0a3.785,3.785,0,0,0-.769,5.284l14.265,21.116-.069.061s-3.321-1.149-6.588-1.924c-2.691-.639-4.282.468-4.575,2.438v0c-.272,1.827,1.4,4.079,3.139,4.762,3.406,1.215,8.506,3.055,9.058,3.412,4.075,2.639,11.942,6.126,12.119,6.376,1.209,1.7,2.673,3.956,2.673,3.956l17.869-12.071L341.1,97.83s-.028-7.923-7.2-18.547c-.774-1.144-.511-.756-1.993-2.949C330.438,74.171,328.059,72.14,325.976,73.268Z"/><path class="col5" d="M326.381,80.288l-3.735-5.529a4.157,4.157,0,0,0-2.435-1.725,3.436,3.436,0,0,0-2.754.466h0a3.783,3.783,0,0,0-.769,5.283l2.247,3.325m0,0s-2-2.955-3.662-5.421a3.783,3.783,0,0,0-5.188-1.26h0a3.434,3.434,0,0,0-1.458,2.381,4.149,4.149,0,0,0,.689,2.9l3.663,5.421m-2.907,8.7s-3.321-1.149-6.588-1.924c-2.691-.639-4.282.468-4.575,2.438v0c-.272,1.827,1.4,4.079,3.139,4.762,3.406,1.215,8.506,3.055,9.058,3.412,4.075,2.639,11.942,6.126,12.119,6.376,1.209,1.7,2.673,3.956,2.673,3.956l17.869-12.071L341.1,97.83s-.028-7.923-7.2-18.547c-.774-1.144-.511-.756-1.993-2.949-1.461-2.163-3.84-4.194-5.923-3.066h0c-2.106,1.1-2.366,2.917-1.78,3.785l2.185,3.235m-13.4,5.844s-7.351-10.881-11.145-16.5a4.162,4.162,0,0,0-2.436-1.724,3.442,3.442,0,0,0-2.753.465h0a3.785,3.785,0,0,0-.769,5.284l15.443,22.86"/><path class="col2" d="M344.211,77.681a12.7,12.7,0,0,0,.087,1.661h-2.431a12.2,12.2,0,0,0,.088-1.661V72.136h-1.3a14.886,14.886,0,0,0-1.661.077v-2.1a14.779,14.779,0,0,0,1.639.078h4.819a14.517,14.517,0,0,0,1.716-.078v2.1a14.184,14.184,0,0,0-1.716-.077h-1.243Z"/><path class="col2" d="M354.253,79.342a8.627,8.627,0,0,0-.264-1.188l-.3-.935h-3.135l-.3.935a6.339,6.339,0,0,0-.275,1.188h-2.574A11,11,0,0,0,347.939,78l2.376-6.623a6.715,6.715,0,0,0,.352-1.188h2.872a8.494,8.494,0,0,0,.374,1.188L356.3,78c.209.583.385,1.034.528,1.342Zm-2.145-7.272-1.023,3.3h2.068Z"/><path class="col2" d="M357.586,79.342a11.967,11.967,0,0,0,.087-1.628V71.762a12.482,12.482,0,0,0-.087-1.606c.517.022.913.033,1.617.033h2.409c2.179,0,3.377,1.045,3.377,2.959,0,1.958-1.254,3.124-3.388,3.124h-1.738v1.409a14.282,14.282,0,0,0,.088,1.661ZM361.5,74.4a1.1,1.1,0,0,0,1.221-1.188,1.065,1.065,0,0,0-1.221-1.155h-1.639V74.4Z"/></svg>