<svg xmlns="http://www.w3.org/2000/svg" viewBox="0 0 327.398 86.655"><path d="M57.579,56.727a8.911,8.911,0,0,1,14.367,0c1.782,2.636,2.71,6.274,2.71,10.544s-.928,7.907-2.71,10.506a8.858,8.858,0,0,1-14.367,0,19.164,19.164,0,0,1-2.71-10.506A18.892,18.892,0,0,1,57.579,56.727Zm3.415,20.567q1.225,3.231,3.787,3.23c1.893,0,3.192-1.262,4.009-3.861.669-2.042.965-5.012.965-9.392,0-4.827-.371-7.908-1.188-10.024-.816-2.19-2.041-3.23-3.786-3.23-3.453,0-4.975,4.047-4.975,13.254C59.806,71.986,60.177,75.178,60.994,77.294Z"/><path d="M97.15,73.656c0,4.752-3.861,7.8-9.912,7.8-5.755,0-9.281-2.6-9.281-6.868A6.767,6.767,0,0,1,80.7,69.127a11.983,11.983,0,0,1,3.34-1.745c-3.9-2.042-5.308-3.824-5.308-6.868,0-4.529,3.49-7.462,8.947-7.462,5.049,0,8.427,2.636,8.427,6.5,0,2.933-1.893,5.049-5.494,6.125C95.219,67.716,97.15,70.092,97.15,73.656ZM83.043,69.647a6.928,6.928,0,0,0-1.449,4.492c0,3.824,2.376,6.348,5.9,6.348a5.155,5.155,0,0,0,5.457-5.346c0-1.856-.78-3.193-2.636-4.529A21.689,21.689,0,0,0,86.9,68.719c-.484-.223-1.634-.743-1.671-.743A6.355,6.355,0,0,0,83.043,69.647Zm8.389-6.015a6.533,6.533,0,0,0,1.152-4.046,7.121,7.121,0,0,0-.854-3.379A4.743,4.743,0,0,0,87.5,54.054a4.387,4.387,0,0,0-4.752,4.678c0,1.856.816,3.193,2.71,4.455a21.576,21.576,0,0,0,2.413,1.262l1.633.743A4.938,4.938,0,0,0,91.432,63.632Z"/><path d="M103.161,56.727a8.911,8.911,0,0,1,14.367,0c1.782,2.636,2.71,6.274,2.71,10.544s-.928,7.907-2.71,10.506a8.858,8.858,0,0,1-14.367,0,19.164,19.164,0,0,1-2.71-10.506A18.892,18.892,0,0,1,103.161,56.727Zm3.415,20.567q1.226,3.231,3.787,3.23c1.893,0,3.192-1.262,4.009-3.861.669-2.042.965-5.012.965-9.392,0-4.827-.371-7.908-1.188-10.024-.816-2.19-2.041-3.23-3.786-3.23-3.453,0-4.975,4.047-4.975,13.254C105.388,71.986,105.759,75.178,106.576,77.294Z"/><path d="M125.952,56.727a8.911,8.911,0,0,1,14.367,0c1.782,2.636,2.71,6.274,2.71,10.544s-.928,7.907-2.71,10.506a8.858,8.858,0,0,1-14.367,0,19.164,19.164,0,0,1-2.71-10.506A18.892,18.892,0,0,1,125.952,56.727Zm3.415,20.567q1.226,3.231,3.787,3.23c1.893,0,3.192-1.262,4.009-3.861.669-2.042.965-5.012.965-9.392,0-4.827-.371-7.908-1.188-10.024-.816-2.19-2.041-3.23-3.786-3.23-3.453,0-4.975,4.047-4.975,13.254C128.179,71.986,128.55,75.178,129.367,77.294Z"/><path d="M146.478,68.459H155.2v3.118h-8.724Z"/><path d="M162.4,79.819c1.707-.037,2.227-.112,2.784-.446.855-.445,1.115-1.41,1.115-3.786V58.509a10.545,10.545,0,0,0-.111-2.227c-.149-.817-.631-1-2.526-1h-1V54.24c3.528-.3,6.236-.668,8.688-1.114q-.334,3.954-.334,9.356V75.587c0,2.264.222,3.192.89,3.712.52.408.965.483,2.858.52v1.039H162.4Z"/><path d="M187.086,57.618a2.807,2.807,0,0,0-2.932,1.485,10.4,10.4,0,0,0-1.115,3.3l-1.224-.148,1.15-8.613h17.746v2.636a48.755,48.755,0,0,0-5.9,11.174,42.082,42.082,0,0,0-1.782,6.571A29.866,29.866,0,0,0,192.58,79a2.412,2.412,0,0,1-.742,2.005,4.055,4.055,0,0,1-2.375.594q-2.452,0-2.451-1.782c0-2.45,1.969-7.462,5.123-12.882,1.486-2.636,3.045-5.049,6.015-9.319Z"/><path d="M206.908,56.727a8.911,8.911,0,0,1,14.367,0c1.782,2.636,2.709,6.274,2.709,10.544s-.927,7.907-2.709,10.506a8.858,8.858,0,0,1-14.367,0A19.155,19.155,0,0,1,204.2,67.271,18.892,18.892,0,0,1,206.908,56.727Zm3.414,20.567q1.228,3.231,3.787,3.23c1.895,0,3.194-1.262,4.01-3.861.668-2.042.965-5.012.965-9.392,0-4.827-.371-7.908-1.187-10.024-.817-2.19-2.041-3.23-3.788-3.23-3.453,0-4.974,4.047-4.974,13.254C209.135,71.986,209.506,75.178,210.322,77.294Z"/><path d="M227.434,68.459h8.724v3.118h-8.724Z"/><path d="M242.838,67.048A9.609,9.609,0,0,1,250,64.041c5.42,0,8.8,3.193,8.8,8.353,0,5.531-3.9,9.058-10.063,9.058-4.863,0-8.648-2.339-8.648-5.383,0-1.411.928-2.153,2.635-2.153a2.381,2.381,0,0,1,1.857.631c.26.3.334.594.371,1.671a4.355,4.355,0,0,0,1.039,3.044,3.921,3.921,0,0,0,2.9,1.225,4.277,4.277,0,0,0,3.636-1.893,10.757,10.757,0,0,0,1.413-5.717c0-4.678-1.932-7.388-5.274-7.388a7.446,7.446,0,0,0-6.236,4.046l-1.225-.3,1.225-15.592h15.183l-.668,4.158H243.58Z"/><path d="M266.148,79.819c1.709-.037,2.229-.112,2.786-.446.853-.445,1.113-1.41,1.113-3.786V58.509a10.545,10.545,0,0,0-.111-2.227c-.149-.817-.631-1-2.524-1h-1V54.24c3.528-.3,6.239-.668,8.688-1.114q-.335,3.954-.334,9.356V75.587c0,2.264.222,3.192.89,3.712.52.408.967.483,2.86.52v1.039H266.148Z"/><path d="M287.863,56.727a8.912,8.912,0,0,1,14.368,0c1.783,2.636,2.71,6.274,2.71,10.544s-.927,7.907-2.71,10.506a8.859,8.859,0,0,1-14.368,0,19.172,19.172,0,0,1-2.709-10.506A18.908,18.908,0,0,1,287.863,56.727Zm3.416,20.567q1.226,3.231,3.787,3.23c1.893,0,3.192-1.262,4.008-3.861.67-2.042.967-5.012.967-9.392,0-4.827-.371-7.908-1.189-10.024-.817-2.19-2.041-3.23-3.786-3.23-3.453,0-4.974,4.047-4.974,13.254C290.092,71.986,290.463,75.178,291.279,77.294Z"/><path d="M323.426,76.181c0,3.081.482,3.6,3.342,3.638v1.039H315.592v-1c1.746-.074,2.154-.149,2.6-.52.557-.408.78-1.373.78-3.155V73.545H306.979V71.763l12.994-18.451h3.453V71.874H327.4v1.671h-3.972Zm-4.455-19.008-10.321,14.7h10.321Z"/><path d="M0,51.084V78.521H45.274V51.084Zm15.85,26.51H10.241V58.112a6.12,6.12,0,0,1,6.267-6.271h6.608V56.97H18a2.012,2.012,0,0,0-2.146,1.8v3.39H30.639v5.117H15.85Zm19.027.023H32.134a6.131,6.131,0,0,1-6.279-6.274V68.5l4.789-.009v2.648A1.363,1.363,0,0,0,32.119,72.5h2.758Zm0-20.647H32.119a1.355,1.355,0,0,0-1.475,1.357v2.648H25.855V58.112a6.13,6.13,0,0,1,6.279-6.271h2.743Z"/><path d="M6.82,80.263a6.684,6.684,0,0,1-1.234,4.079,6.209,6.209,0,0,1-3.875,2.149l-.538-1.17c3.407-.591,3.951-2.3,4.215-3.861H.64v-1.2Z"/><path d="M9.384,84.216H8.1v-4.2H9.384Zm3.689-1.157c0,2.922-2.292,3.259-4.114,3.476l-.466-1.172a6.548,6.548,0,0,0,2.6-.615,1.737,1.737,0,0,0,.693-1.514V79.9h1.29Z"/><rect x="14.373" y="82.477" width="6.741" height="1.278"/><polygon points="27.971 80.376 27.971 86.01 22.188 86.01 22.188 84.805 26.684 84.805 26.684 81.567 22.263 81.567 22.263 80.376 27.971 80.376"/><rect x="29.368" y="82.477" width="6.742" height="1.278"/><path d="M39.178,81.928a13.4,13.4,0,0,1-.229,2.525,4.06,4.06,0,0,1-1.155,2.2l-.954-.987a2.935,2.935,0,0,0,.921-1.723,10,10,0,0,0,.193-1.88v-1.92h1.224ZM41.271,84.9a1.922,1.922,0,0,0,1.162-.994,4.713,4.713,0,0,0,.518-1.653l1.148.555a4.776,4.776,0,0,1-1.312,2.577,4.127,4.127,0,0,1-2.73,1.047V79.9h1.214Z"/><path d="M35.821,22.282a5.658,5.658,0,0,1-.152,1.615A1.669,1.669,0,0,1,33.92,25a5.912,5.912,0,0,1-3.589-1.348A2.788,2.788,0,0,1,29.286,21.5a4.057,4.057,0,0,1,1.633-2.812,10.165,10.165,0,0,1,2.774-1.614l-.02-2.926c-.151,0-.151,0-.778.038-.285.019-.551.019-1.026.019-.284,0-.817-.019-1.045-.019-.246-.019-.418-.019-.475-.019a3.547,3.547,0,0,0-.4.019l-.02-2.128a11.653,11.653,0,0,0,2.3.171c.189,0,.4,0,.665-.019.456-.019.551-.019.76-.019V10.941a13.127,13.127,0,0,0-.114-2.185h2.375a11.645,11.645,0,0,0-.115,2.071v1.215a21.19,21.19,0,0,0,3.667-.722l.076,2.128c-.342.057-.7.114-2.014.342-.627.114-1.007.171-1.729.247v2.47a13.18,13.18,0,0,1,3.876-.532c3.172,0,5.433,1.937,5.433,4.635A4.22,4.22,0,0,1,40.8,24.941a3.066,3.066,0,0,1-3.115-2.108,6.348,6.348,0,0,1-.323-2.432,8.015,8.015,0,0,0,2.109-.836,6.588,6.588,0,0,0-.038.836,3.647,3.647,0,0,0,.266,1.672,1.314,1.314,0,0,0,1.2.646,1.952,1.952,0,0,0,1.918-2.109c0-1.634-1.329-2.7-3.362-2.7a12.161,12.161,0,0,0-3.648.627Zm-2.148-3.059c-1.424.76-2.26,1.6-2.26,2.28,0,.323.19.608.627.874a2.281,2.281,0,0,0,1.215.418c.324,0,.418-.171.418-.8ZM44.2,15.386a16.2,16.2,0,0,0-3.8-4.1l1.785-1.2a16.094,16.094,0,0,1,3.762,3.894Z"/><path d="M48.342,24.333a10.236,10.236,0,0,0,2.09-4.16l1.881.513a14.071,14.071,0,0,1-2.2,4.806Zm14.116-11.8a11.1,11.1,0,0,0,1.215-.057c-.019.285-.038.589-.038,1.1v5.072c0,.475.019.817.038,1.1-.588-.038-.779-.057-1.177-.057H57.632a14.5,14.5,0,0,1,2.127,1.957l-1.405,1.33A20.119,20.119,0,0,0,55.9,20.591l1.064-.893h-4.5a17.167,17.167,0,0,0-1.747.076v-1.88a14.151,14.151,0,0,0,1.747.075H61.6V16.906H52.75c-.684,0-1.026.019-1.729.076v-1.8a13.77,13.77,0,0,0,1.729.076H61.6v-.988H53.471c-.493,0-.949.019-1.4.057V13.41a17.68,17.68,0,0,1-2.432,1.862,9.033,9.033,0,0,0-1.177-1.748A13.607,13.607,0,0,0,53.871,8.11l2.375.418c-.324.494-.4.589-.7,1.007h3a9.609,9.609,0,0,0,1.824-.1l1.1,1.045a11.73,11.73,0,0,0-.949,1.063,9.35,9.35,0,0,1-.855.988Zm-7.41,10.582c0,.646.115.684,2.128.684,1.71,0,2.261-.076,2.565-.342.19-.171.3-.722.361-1.672a6.683,6.683,0,0,0,1.976.627c-.229,1.672-.38,2.166-.836,2.583-.494.475-1.634.646-4.351.646-3.286,0-3.837-.266-3.837-1.861V21.712a7.367,7.367,0,0,0-.114-1.539h2.2a7.35,7.35,0,0,0-.095,1.539Zm2.109-10.582a9.682,9.682,0,0,0,1.121-1.329H54.251a14.33,14.33,0,0,1-1.235,1.329h4.141Zm5.889,7.409a29.331,29.331,0,0,1,2.926,4.066l-1.8,1.291a19.4,19.4,0,0,0-2.755-4.274Z"/><path d="M81.115,12.4a4.216,4.216,0,0,1-.417.076c-.058.019-.229.057-.456.114a21.346,21.346,0,0,1-2.337.437,16.847,16.847,0,0,0,.741,1.558,23.362,23.362,0,0,0,4.426-1.1l.19,2.071c-.285.038-.57.095-1.064.209l-1.311.3-1.2.247-.19.057a20.128,20.128,0,0,0,2.545,3.476l-1.671,1.2a10.22,10.22,0,0,0-4.37-.779,7.332,7.332,0,0,0-3.192.532A1.371,1.371,0,0,0,72,21.959a1.253,1.253,0,0,0,.816,1.1,7.406,7.406,0,0,0,2.717.418,14.42,14.42,0,0,0,5.851-1.254l.342,2.356c-.227.038-.323.056-.513.095-.076.018-.208.056-.4.1l-.322.094a18.3,18.3,0,0,1-4.863.646,8.693,8.693,0,0,1-4.636-.93,3.06,3.06,0,0,1-1.463-2.6,3.173,3.173,0,0,1,1.6-2.641,8.465,8.465,0,0,1,4.426-.95,13.08,13.08,0,0,1,3.286.4,11.657,11.657,0,0,1-1.462-2.127,56.5,56.5,0,0,1-7.352.513c-.342.019-.456.019-.779.057l-.076-2.071a11.261,11.261,0,0,0,1.957.076,34.99,34.99,0,0,0,5.376-.361c-.114-.209-.171-.323-.342-.7-.19-.4-.228-.513-.4-.874a39.971,39.971,0,0,1-5.091.285,10.793,10.793,0,0,0-1.292.038l-.095-2.014a15.939,15.939,0,0,0,1.824.076,33.317,33.317,0,0,0,3.913-.209l-.057-.152c-.247-.607-.379-.892-.608-1.462a3.489,3.489,0,0,0-.3-.608l2.375-.323a10.78,10.78,0,0,0,.779,2.3,21.718,21.718,0,0,0,3.629-.8Zm.532-3.8a12.259,12.259,0,0,1,1.824,2.906l-1.386.589A12.422,12.422,0,0,0,80.26,9.155ZM84.5,11.15A13.707,13.707,0,0,0,82.73,8.281l1.33-.551a10.965,10.965,0,0,1,1.8,2.793Z"/><path d="M94.587,19.926c-1.083,2.451-2.3,3.572-3.856,3.572-2.166,0-3.724-2.2-3.724-5.263a8.166,8.166,0,0,1,2.09-5.528,8.526,8.526,0,0,1,6.535-2.659c4.559,0,7.523,2.773,7.523,7.048a7.32,7.32,0,0,1-4.616,7.086,12.425,12.425,0,0,1-2.983.8A6.065,6.065,0,0,0,94.4,22.757a10.086,10.086,0,0,0,3.78-1.045,5.317,5.317,0,0,0,2.641-4.749,4.706,4.706,0,0,0-2.336-4.218,4.153,4.153,0,0,0-1.919-.57A27.471,27.471,0,0,1,94.587,19.926Zm-2.793-6.8a6.363,6.363,0,0,0-2.583,5.129c0,1.558.665,2.793,1.5,2.793.627,0,1.274-.8,1.958-2.432a25.105,25.105,0,0,0,1.577-6.421A4.84,4.84,0,0,0,91.794,13.125Z"/><path d="M113.645,20.059a10.937,10.937,0,0,1-2.337,1.615,4.375,4.375,0,0,0-.722-1.007,35.749,35.749,0,0,1-3.78,1.995,2.236,2.236,0,0,1-.247.152.86.86,0,0,0-.19.095l-.475-2.223a13.743,13.743,0,0,0,2.147-.76V14.892h-.551a9.277,9.277,0,0,0-1.483.1V12.954a8.534,8.534,0,0,0,1.5.095h.533V10.694a14.955,14.955,0,0,0-.115-2.109h2.2a12.91,12.91,0,0,0-.114,2.128v2.336h.342a8.154,8.154,0,0,0,1.349-.076v1.995a9.826,9.826,0,0,0-1.33-.076h-.361v4.084c.513-.266.665-.361,1.273-.7v1.311a7.5,7.5,0,0,0,2.26-1.918h-.418a13.622,13.622,0,0,0-1.766.094v-1.9a10.555,10.555,0,0,0,1.786.095h8.3a12.574,12.574,0,0,0,1.975-.114v1.9a18.9,18.9,0,0,0-1.957-.075h-5.812a6.9,6.9,0,0,1-.514.778h6.042c.931,0,1.291-.019,1.842-.057a11.111,11.111,0,0,0-.075,1.121,16.509,16.509,0,0,1-.78,5.168c-.38.873-.987,1.12-2.659,1.12-.513,0-.855-.019-1.6-.057a4.575,4.575,0,0,0-.513-1.747,13.655,13.655,0,0,1-3.134,2.089,5.192,5.192,0,0,0-1.368-1.444,11.568,11.568,0,0,0,3.457-2.051,8.465,8.465,0,0,0,1.976-2.527H117.2a11.432,11.432,0,0,1-5.262,4.161,4.7,4.7,0,0,0-1.216-1.444,9.871,9.871,0,0,0,4.408-2.717Zm.569-4.9a13.726,13.726,0,0,0-1.747.076,16.963,16.963,0,0,0,.076-1.843V10.618a14.782,14.782,0,0,0-.076-1.729,13.357,13.357,0,0,0,1.918.1h5.529a14.313,14.313,0,0,0,2.033-.1,15.174,15.174,0,0,0-.076,1.881v2.621a14.519,14.519,0,0,0,.076,1.824c-.4-.038-.969-.057-1.73-.057Zm.286-3.7h5.376v-.8H114.5Zm0,2.166h5.376V12.84H114.5Zm5.794,6.44a10.617,10.617,0,0,1-2.66,3.724,13.285,13.285,0,0,0,1.956.152c.7,0,.912-.19,1.083-1.007A23.07,23.07,0,0,0,121,20.059Z"/><path d="M129.757,14.683a19.289,19.289,0,0,1-3.039,1.6,7.358,7.358,0,0,0-1.1-1.938,18.978,18.978,0,0,0,4.844-2.736,13.247,13.247,0,0,0,2.983-3.172H135.7a12.391,12.391,0,0,0,3.191,3.21,17.851,17.851,0,0,0,4.845,2.6,10.179,10.179,0,0,0-1.045,2.09,18.427,18.427,0,0,1-3.1-1.672v1.33a13.831,13.831,0,0,0-1.71-.076h-6.5a14.328,14.328,0,0,0-1.634.076ZM128.218,25.8a15.158,15.158,0,0,0,.115-2.013V19.356a17.373,17.373,0,0,0-.095-1.88,11.965,11.965,0,0,0,1.634.076h9.5a12.473,12.473,0,0,0,1.653-.076,12.927,12.927,0,0,0-.095,1.88V23.8a11.857,11.857,0,0,0,.114,1.994h-2.261v-.968h-8.3V25.8Zm2.261-2.83h8.3V19.394h-8.3Zm7.391-9.024h.645a17.348,17.348,0,0,1-3.913-3.7,13.308,13.308,0,0,1-3.724,3.7h6.992Z"/><path d="M147.372,25.055a7.28,7.28,0,0,0-.1-.74,36.137,36.137,0,0,1-.513-6.042,33.823,33.823,0,0,1,.362-5.034c.094-.57.094-.57.512-2.716a10.2,10.2,0,0,0,.209-1.406V9.041l2.565.266c-.779,1.652-1.5,6.231-1.52,9.536-.018.684-.018.684-.018.988v.3a3.074,3.074,0,0,1-.02.4h.02c.094-.209.094-.209.227-.551.038-.133.133-.342.228-.646.171-.4.171-.4.361-.855a3.627,3.627,0,0,0,.228-.588l1.577.7a15.853,15.853,0,0,0-1.881,5.814,3.712,3.712,0,0,0,.038.512Zm4.293-12.443a13.679,13.679,0,0,0,3.438.3c.665,0,1.083,0,1.748-.038,0-1.121-.019-2.071-.019-2.849a5.315,5.315,0,0,0-.057-.912l2.375-.057a18.406,18.406,0,0,0-.134,2.792v.874a19.147,19.147,0,0,0,2.566-.456c.113-.038.113-.038.418-.152l.151-.038.076,2.147a3.3,3.3,0,0,0-.551.095c-.645.133-1.633.3-2.64.418v.418c0,1.064,0,1.1.189,4.293a15.186,15.186,0,0,1,2.984,1.729,3.561,3.561,0,0,0,.531.323l-.911,2.3a7.175,7.175,0,0,0-1.425-1.216c-.647-.418-1.083-.7-1.2-.779v.266a3.294,3.294,0,0,1-.153,1.064c-.436,1.121-1.766,1.785-3.609,1.785-2.488,0-4.008-1.177-4.008-3.115,0-1.843,1.614-3.135,3.913-3.135a4.516,4.516,0,0,1,1.691.266c-.057-.475-.076-1.4-.152-4.046-.76.019-1.216.038-1.71.038-.7,0-1.463-.019-2.355-.095-.267,0-.476-.019-.571-.019a2.819,2.819,0,0,0-.323-.019.865.865,0,0,0-.189-.019.331.331,0,0,0-.114.019Zm3.856,7.96c-1.216,0-1.976.475-1.976,1.254,0,.7.684,1.178,1.749,1.178a1.867,1.867,0,0,0,1.538-.589,1.6,1.6,0,0,0,.247-1.026v-.513A3.977,3.977,0,0,0,155.521,20.572Z"/><path d="M180.123,11.548a2.856,2.856,0,0,0-.322.855,17.855,17.855,0,0,1-3.895,7.96,18.483,18.483,0,0,1-7.067,4.844,6.97,6.97,0,0,0-1.672-2.26,15.459,15.459,0,0,0,4.161-1.938,13.165,13.165,0,0,0,5.756-8.283h-9.043a15.069,15.069,0,0,0-2.393.114V10.371a13.371,13.371,0,0,0,2.431.133h8.72a6.944,6.944,0,0,0,2.033-.19Z"/><path d="M187.176,9.383a9.657,9.657,0,0,0-.076,1.71v5.243a9.153,9.153,0,0,0,.076,1.671h-2.6a13.672,13.672,0,0,0,.095-1.709V11.073a11.989,11.989,0,0,0-.076-1.709ZM195.8,9.4a9.006,9.006,0,0,0-.095,1.766v2.565a22.432,22.432,0,0,1-.494,5.756,7.277,7.277,0,0,1-3.743,4.427,16.111,16.111,0,0,1-3.7,1.462,6.512,6.512,0,0,0-1.33-2.26,10.243,10.243,0,0,0,4.1-1.52c1.786-1.178,2.413-2.337,2.622-4.844.076-.817.095-1.653.095-3.173V11.207A10.005,10.005,0,0,0,193.16,9.4Z"/><path d="M200.476,15.747a18.659,18.659,0,0,0,3.078.133h10.125a18.659,18.659,0,0,0,3.078-.133v2.64a20.875,20.875,0,0,0-3.1-.095H203.572a20.833,20.833,0,0,0-3.1.095Z"/><path d="M222.345,23.422a21.239,21.239,0,0,0-2.337.076V21.047a12.215,12.215,0,0,0,2.375.133h8.643V12.9h-8.32a18.593,18.593,0,0,0-2.432.1V10.523a12.778,12.778,0,0,0,2.451.133h9.137c.989,0,.989,0,1.654-.038a11.306,11.306,0,0,0-.058,1.576v10.43a12.5,12.5,0,0,0,.1,1.957h-2.546V23.422Z"/><path d="M238.021,15.747a18.651,18.651,0,0,0,3.078.133h10.125a18.659,18.659,0,0,0,3.078-.133v2.64a20.875,20.875,0,0,0-3.1-.095H241.117a20.833,20.833,0,0,0-3.1.095Z"/><path d="M262.7,9.63a39.6,39.6,0,0,0-.189,4.255c-.134,3.705-.551,5.851-1.539,7.808a12.083,12.083,0,0,1-2.622,3.514,6.782,6.782,0,0,0-1.918-1.842,7.817,7.817,0,0,0,1.956-2.185c1.368-2.185,1.8-4.635,1.8-9.955a9.669,9.669,0,0,0-.075-1.728Zm5.034-.228a10.415,10.415,0,0,0-.132,1.805l-.1,10.809a7.627,7.627,0,0,0,2.906-2.166,9.28,9.28,0,0,0,1.862-3.476,7.939,7.939,0,0,0,1.786,1.785,11.791,11.791,0,0,1-3.021,4.427,12.524,12.524,0,0,1-4.046,2.279,8.267,8.267,0,0,0-.817.342l-1.216-1.291a8.514,8.514,0,0,0,.171-2.014l.1-10.714v-.57a8.223,8.223,0,0,0-.076-1.254Z"/><path d="M275.964,17.969c.816-.569,1.634-1.5,4.141-4.654a5.846,5.846,0,0,1,1.177-1.2,2.617,2.617,0,0,1,1.521-.57,2.693,2.693,0,0,1,1.709.722,12.684,12.684,0,0,1,1.273,1.368,60.3,60.3,0,0,0,5.68,5.813,12.184,12.184,0,0,0,2.071,1.6l-1.159,2.7a3.7,3.7,0,0,0-.551-.551c-.988-.874-2.488-2.3-3.876-3.686-1.443-1.482-1.481-1.539-3.513-3.856-1.178-1.349-1.292-1.444-1.654-1.444-.3,0-.494.171-1.139,1.026a53.6,53.6,0,0,1-3.743,4.6,3.133,3.133,0,0,0-.4.513Z"/><path d="M324,1V33H1V1H324m1-1H0V34H325V0Z"/></svg>