<svg data-name="tel-beta" xmlns="http://www.w3.org/2000/svg" viewBox="0 0 380 159.683"><rect class="col1" width="380" height="145"/><rect class="col2" x="25.517" y="17.552" width="324" height="33"/><path class="col1" d="M349.017,18.052v32h-323v-32h323m1-1h-325v34h325v-34Z"/><path class="col2" d="M30.45,114.8c-.251-.491-.384-.719-.684-1.211l1.451-.492a12.749,12.749,0,0,1,.865,1.7h1.331a8.375,8.375,0,0,0,.791-1.643l1.523.444a7.786,7.786,0,0,1-.684,1.2h1.344v2.915H34.936v-1.655H27.1v1.655H25.628V114.8h1.4c-.084-.131-.348-.587-.72-1.079l1.416-.54a13.181,13.181,0,0,1,.995,1.619Zm4.246,5.038H31.757c-.036.108-.2.587-.24.683h4.306v3.754H26.168v-3.754h3.779a3.12,3.12,0,0,0,.264-.683H27.344V116.68H34.7Zm-.372,1.871H27.679v1.307h6.645Zm-1.055-3.922H28.8v.959h4.474Z"/><path class="col2" d="M48.506,124.356a10.88,10.88,0,0,1-4.173-2.267v2.387H42.87v-2.351a10.765,10.765,0,0,1-4.174,2.231l-.72-1.307a13.21,13.21,0,0,0,3.862-1.607H38v-1.176H42.87v-.623H38.816v-1.02H42.87v-.611H38.528v-1.14h2.411a4.5,4.5,0,0,0-.288-.791H38v-1.236h1.7a10.049,10.049,0,0,0-.612-1.307l1.463-.348a8.365,8.365,0,0,1,.624,1.655h.635V113.25h1.367v1.595h.876V113.25h1.356v1.595h.647a12.543,12.543,0,0,0,.6-1.655l1.463.348a10.885,10.885,0,0,1-.587,1.307H49.2v1.236H46.552c-.156.443-.192.563-.288.791h2.483v1.14H44.333v.611h4.114v1.02H44.333v.623H49.2v1.176H45.4a10.9,10.9,0,0,0,3.886,1.571Zm-3.741-7.484a4.482,4.482,0,0,0,.252-.791H42.174c.048.108.24.671.288.791Z"/><path class="col2" d="M54.679,113.67v10.122H50.841V113.67ZM53.4,115.085H52.2V118h1.2Zm0,4.21H52.2V122.4h1.2Zm7.352,3.958c0,.779-.312,1.235-1.152,1.235H57.534l-.265-1.463h1.68c.2,0,.311-.1.311-.3v-2.231H55.111v-1.415H59.26v-.995H55v-1.4h2.675v-1.151H55.386v-1.355h2.291V113.2h1.476v.972h2.362v1.355H59.153v1.151h2.71v1.4H60.748v.995h1.019v1.415H60.748Zm-4.1.132a11.072,11.072,0,0,0-1.439-2.1l1.235-.708a8.922,8.922,0,0,1,1.511,2.015Z"/><path class="col2" d="M63.56,113.646h4.726v4.5h-3.31v6.369H63.56Zm1.416,1.1v.684H66.9v-.684Zm0,1.595v.7H66.9v-.7Zm6.56,6.741h.816c.287,0,.3-.18.3-.348v-4.594H69.2v-4.5h4.869v9.667c0,.431-.12,1.2-.912,1.2H71.1l-.191-1.163H66.055v-4.558h5.481Zm-4.138-3.2v.707h2.783v-.707Zm0,1.595v.743h2.783v-.743Zm3.179-6.729v.684h2.075v-.684Zm0,1.595v.7h2.075v-.7Z"/><path class="col2" d="M86.775,113.91,76.449,124.2l-.4-.384,10.326-10.29Z"/><path class="col2" d="M94.627,113.85h1.5v9.571h-1.7v-7.748l-1.739,1.211-.216-1.571Z"/><path class="col2" d="M100.064,118.635a6.486,6.486,0,0,1,.8-3.586,3.058,3.058,0,0,1,2.627-1.391c3.429,0,3.429,4.1,3.429,4.977s0,4.978-3.429,4.978S100.064,119.511,100.064,118.635Zm5.17,0c0-2.063-.468-3.43-1.739-3.43-1.356,0-1.74,1.535-1.74,3.43,0,2.075.468,3.43,1.74,3.43C104.814,122.065,105.234,120.6,105.234,118.635Z"/><path class="col2" d="M110.719,116.284v1.907h-1.882v-1.907Zm0,5.23v1.907h-1.882v-1.907Z"/><path class="col2" d="M112.64,118.635a6.486,6.486,0,0,1,.8-3.586,3.058,3.058,0,0,1,2.627-1.391c3.43,0,3.43,4.1,3.43,4.977s0,4.978-3.43,4.978S112.64,119.511,112.64,118.635Zm5.17,0c0-2.063-.468-3.43-1.739-3.43-1.356,0-1.739,1.535-1.739,3.43,0,2.075.467,3.43,1.739,3.43C117.39,122.065,117.81,120.6,117.81,118.635Z"/><path class="col2" d="M121.161,118.635a6.5,6.5,0,0,1,.8-3.586,3.059,3.059,0,0,1,2.627-1.391c3.43,0,3.43,4.1,3.43,4.977s0,4.978-3.43,4.978S121.161,119.511,121.161,118.635Zm5.17,0c0-2.063-.468-3.43-1.74-3.43-1.355,0-1.739,1.535-1.739,3.43,0,2.075.468,3.43,1.739,3.43C125.911,122.065,126.331,120.6,126.331,118.635Z"/><path class="col2" d="M140.535,118.707a4.058,4.058,0,0,1-3.19,1.571,5,5,0,0,1-2.686-.935,3.715,3.715,0,0,0-1.955-.636,2.7,2.7,0,0,0-2.291,1.152l-.864-.852a3.622,3.622,0,0,1,1.247-1.067,4.289,4.289,0,0,1,1.956-.492,5.052,5.052,0,0,1,2.614.875,3.86,3.86,0,0,0,2,.708,2.832,2.832,0,0,0,2.3-1.187Z"/><path class="col2" d="M145.147,113.85h1.5v9.571h-1.7v-7.748l-1.739,1.211-.216-1.571Z"/><path class="col2" d="M157.468,120.578a3.483,3.483,0,0,1-6.908,0,2.8,2.8,0,0,1,1.475-2.494,2.273,2.273,0,0,1-.959-1.9,2.971,2.971,0,0,1,5.877,0,2.3,2.3,0,0,1-.96,1.9A2.8,2.8,0,0,1,157.468,120.578Zm-1.691-.048a1.782,1.782,0,0,0-3.526,0,1.78,1.78,0,0,0,3.526,0Zm-.444-4.282a1.326,1.326,0,0,0-2.638,0,1.325,1.325,0,0,0,2.638,0Z"/><path class="col2" d="M161.239,116.284v1.907h-1.883v-1.907Zm0,5.23v1.907h-1.883v-1.907Z"/><path class="col2" d="M163.16,118.635a6.487,6.487,0,0,1,.8-3.586,3.059,3.059,0,0,1,2.627-1.391c3.43,0,3.43,4.1,3.43,4.977s0,4.978-3.43,4.978S163.16,119.511,163.16,118.635Zm5.17,0c0-2.063-.468-3.43-1.74-3.43-1.355,0-1.739,1.535-1.739,3.43,0,2.075.468,3.43,1.739,3.43C167.91,122.065,168.33,120.6,168.33,118.635Z"/><path class="col2" d="M171.68,118.635a6.486,6.486,0,0,1,.8-3.586,3.058,3.058,0,0,1,2.627-1.391c3.43,0,3.43,4.1,3.43,4.977s0,4.978-3.43,4.978S171.68,119.511,171.68,118.635Zm5.17,0c0-2.063-.468-3.43-1.739-3.43-1.356,0-1.739,1.535-1.739,3.43,0,2.075.467,3.43,1.739,3.43C176.43,122.065,176.85,120.6,176.85,118.635Z"/><path class="col2" d="M197.513,118.012h-2.734V116.62h6.992v1.392h-2.747v1.475h3.586v1.391h-3.586v1.907c.216.012.288.012.5.012h4.51l-.312,1.439h-4.2a5,5,0,0,1-4.378-1.943,6.548,6.548,0,0,1-1.691,2.195l-.971-1.271c.647-.552,1.811-1.715,2.266-4.63l1.464.2a16.49,16.49,0,0,1-.516,2.135,3.722,3.722,0,0,0,1.811,1.547Zm1.511-4.822v.96h4.6v2.938h-1.474v-1.571H194.4v1.571h-1.487V114.15h4.581v-.96Z"/><path class="col2" d="M206.276,118.959a5.38,5.38,0,0,1-.756.828l-.479-1.967a8.722,8.722,0,0,0,1.978-4.63l1.524.144a11.624,11.624,0,0,1-.8,3v8.191h-1.463Zm1.571,2.747a14.014,14.014,0,0,0,3.3-4.882H208.4v-1.451h3.2V113.2h1.487v2.171H216.5v1.451h-3a12.914,12.914,0,0,0,3.2,4.8l-.947,1.523a10.769,10.769,0,0,1-2.663-4.162v5.541H211.6v-5.733a14.474,14.474,0,0,1-2.782,4.318Z"/><path class="col2" d="M228.1,113.718v10.458h-9.45V113.718Zm-7.879,4.425H226.5v-2.95h-6.284Zm0,1.452v3.094H226.5V119.6Z"/><path class="col2" d="M241.249,113.91,230.923,124.2l-.4-.384,10.326-10.29Z"/><path class="col2" d="M242.9,115.937h4.281v1.487a8.446,8.446,0,0,1-3.658,6.009l-.852-1.428a6.278,6.278,0,0,0,3.059-4.581H242.9Zm6.344-1.355a1.446,1.446,0,0,0,.012.227c.024.156.755,2.507.768,2.543a15.837,15.837,0,0,0,2.77-2.722l1.343,1.007a18.941,18.941,0,0,1-3.418,3,10.4,10.4,0,0,0,3.574,3.454l-.912,1.464a10.673,10.673,0,0,1-4.137-4.954v4.57c0,1.127-.6,1.307-1.187,1.307h-2.171l-.312-1.523h1.811c.228,0,.348-.108.348-.324V113.19h1.511Z"/><path class="col2" d="M261.941,117.928c-.109.251-.156.384-.252.563h1.247a4.28,4.28,0,0,0,.359-.755l1.32.2a4.141,4.141,0,0,1-.312.551h2.171v1.044h-2.411v.671h1.991v.828h-1.991v.672h1.991v.839h-1.991v.684h2.651v1.091h-6.9v-3.382c-.048.048-.1.1-.336.312l-.492-.8v3.214h-3.274v-9.966h3.274v6.117a6.758,6.758,0,0,0,1.619-2.171Zm-4.1-2.843h-.911v2.855h.911Zm0,4.15h-.911v3.034h.911Zm4.786-5.673v4.006h-3.286v-.984h1.991v-.563h-1.811v-.9h1.811v-.587h-1.991v-.972Zm.2,5.973h-1.667v.671h1.667Zm0,1.5h-1.667v.672h1.667Zm0,1.511h-1.667v.684h1.667Zm3.526-8.983v4.006h-3.322v-.984h2.05v-.563H263.2v-.9h1.882v-.587h-2.05v-.972Z"/><path class="col2" d="M278.319,113.718v10.458h-9.45V113.718Zm-7.879,4.425h6.284v-2.95H270.44Zm0,1.452v3.094h6.284V119.6Z"/><path class="col2" d="M82.6,70.4a8.911,8.911,0,0,1,14.367,0c1.783,2.636,2.71,6.274,2.71,10.544s-.927,7.907-2.71,10.506a8.858,8.858,0,0,1-14.367,0,19.164,19.164,0,0,1-2.71-10.506A18.9,18.9,0,0,1,82.6,70.4Zm3.415,20.567Q87.238,94.2,89.8,94.2c1.894,0,3.193-1.262,4.009-3.861.669-2.042.966-5.012.966-9.392,0-4.826-.371-7.908-1.189-10.024-.816-2.19-2.041-3.23-3.786-3.23-3.453,0-4.974,4.047-4.974,13.254C84.824,85.659,85.2,88.851,86.011,90.967Z"/><path class="col2" d="M122.168,87.329c0,4.752-3.862,7.8-9.913,7.8-5.754,0-9.281-2.6-9.281-6.868a6.77,6.77,0,0,1,2.747-5.457,11.99,11.99,0,0,1,3.341-1.745c-3.9-2.042-5.309-3.824-5.309-6.868,0-4.529,3.491-7.462,8.948-7.462,5.048,0,8.426,2.636,8.426,6.5,0,2.933-1.892,5.049-5.494,6.125C120.237,81.389,122.168,83.765,122.168,87.329ZM108.06,83.32a6.927,6.927,0,0,0-1.448,4.492c0,3.824,2.376,6.348,5.9,6.348a5.155,5.155,0,0,0,5.457-5.346c0-1.856-.779-3.192-2.635-4.529a21.707,21.707,0,0,0-3.416-1.893c-.483-.223-1.633-.743-1.67-.743A6.373,6.373,0,0,0,108.06,83.32Zm8.39-6.014a6.537,6.537,0,0,0,1.151-4.047,7.125,7.125,0,0,0-.853-3.378,4.743,4.743,0,0,0-4.233-2.154,4.388,4.388,0,0,0-4.752,4.678c0,1.856.817,3.193,2.71,4.455a21.76,21.76,0,0,0,2.413,1.262l1.634.743A4.952,4.952,0,0,0,116.45,77.306Z"/><path class="col2" d="M128.178,70.4a8.911,8.911,0,0,1,14.367,0c1.783,2.636,2.71,6.274,2.71,10.544s-.927,7.907-2.71,10.506a8.858,8.858,0,0,1-14.367,0,19.164,19.164,0,0,1-2.71-10.506A18.9,18.9,0,0,1,128.178,70.4Zm3.415,20.567q1.227,3.231,3.787,3.23c1.894,0,3.193-1.262,4.009-3.861.669-2.042.966-5.012.966-9.392,0-4.826-.371-7.908-1.188-10.024-.817-2.19-2.041-3.23-3.787-3.23-3.453,0-4.974,4.047-4.974,13.254C130.406,85.659,130.777,88.851,131.593,90.967Z"/><path class="col2" d="M150.969,70.4a8.912,8.912,0,0,1,14.368,0c1.782,2.636,2.709,6.274,2.709,10.544s-.927,7.907-2.709,10.506a8.859,8.859,0,0,1-14.368,0,19.164,19.164,0,0,1-2.71-10.506A18.9,18.9,0,0,1,150.969,70.4Zm3.415,20.567q1.227,3.231,3.787,3.23c1.894,0,3.193-1.262,4.009-3.861.669-2.042.966-5.012.966-9.392,0-4.826-.371-7.908-1.189-10.024-.816-2.19-2.04-3.23-3.786-3.23-3.453,0-4.974,4.047-4.974,13.254C153.2,85.659,153.568,88.851,154.384,90.967Z"/><path class="col2" d="M171.5,82.132h8.723V85.25H171.5Z"/><path class="col2" d="M187.419,93.492c1.708-.037,2.228-.111,2.785-.446.854-.445,1.114-1.41,1.114-3.786V72.182a10.545,10.545,0,0,0-.111-2.227c-.149-.817-.631-1-2.525-1h-1v-1.04c3.528-.3,6.238-.668,8.688-1.114q-.334,3.954-.334,9.356V89.26c0,2.264.222,3.192.89,3.712.52.409.966.483,2.859.52v1.039H187.419Z"/><path class="col2" d="M212.1,71.291a2.809,2.809,0,0,0-2.933,1.485,10.4,10.4,0,0,0-1.114,3.3l-1.225-.148,1.151-8.613h17.746v2.636a48.8,48.8,0,0,0-5.9,11.174,42.112,42.112,0,0,0-1.782,6.571,30.029,30.029,0,0,0-.446,4.975,2.409,2.409,0,0,1-.742,2.005,4.059,4.059,0,0,1-2.376.594q-2.451,0-2.45-1.782c0-2.45,1.968-7.462,5.123-12.882a110.774,110.774,0,0,1,6.015-9.319Z"/><path class="col2" d="M231.925,70.4a8.912,8.912,0,0,1,14.368,0c1.782,2.636,2.71,6.274,2.71,10.544s-.928,7.907-2.71,10.506a8.859,8.859,0,0,1-14.368,0,19.164,19.164,0,0,1-2.71-10.506A18.9,18.9,0,0,1,231.925,70.4Zm3.415,20.567q1.227,3.231,3.788,3.23c1.893,0,3.192-1.262,4.008-3.861.669-2.042.966-5.012.966-9.392,0-4.826-.371-7.908-1.188-10.024-.817-2.19-2.041-3.23-3.786-3.23-3.454,0-4.975,4.047-4.975,13.254C234.153,85.659,234.524,88.851,235.34,90.967Z"/><path class="col2" d="M252.452,82.132h8.723V85.25h-8.723Z"/><path class="col2" d="M267.856,80.721a9.607,9.607,0,0,1,7.165-3.007c5.42,0,8.8,3.193,8.8,8.353,0,5.532-3.9,9.058-10.062,9.058-4.863,0-8.649-2.338-8.649-5.383,0-1.41.928-2.153,2.636-2.153a2.379,2.379,0,0,1,1.856.631c.26.3.334.594.371,1.671a4.355,4.355,0,0,0,1.039,3.044,3.921,3.921,0,0,0,2.9,1.225,4.278,4.278,0,0,0,3.637-1.893,10.757,10.757,0,0,0,1.412-5.717c0-4.678-1.931-7.388-5.273-7.388a7.445,7.445,0,0,0-6.236,4.046l-1.226-.3,1.226-15.592h15.183l-.668,4.158H268.6Z"/><path class="col2" d="M291.167,93.492c1.707-.037,2.227-.111,2.784-.446.854-.445,1.114-1.41,1.114-3.786V72.182a10.545,10.545,0,0,0-.111-2.227c-.149-.817-.631-1-2.525-1h-1v-1.04c3.528-.3,6.238-.668,8.688-1.114q-.334,3.954-.334,9.356V89.26c0,2.264.223,3.192.89,3.712.52.409.966.483,2.859.52v1.039H291.167Z"/><path class="col2" d="M312.881,70.4a8.912,8.912,0,0,1,14.368,0c1.782,2.636,2.709,6.274,2.709,10.544s-.927,7.907-2.709,10.506a8.859,8.859,0,0,1-14.368,0,19.164,19.164,0,0,1-2.71-10.506A18.9,18.9,0,0,1,312.881,70.4ZM316.3,90.967q1.227,3.231,3.787,3.23c1.894,0,3.193-1.262,4.009-3.861.669-2.042.966-5.012.966-9.392,0-4.826-.371-7.908-1.188-10.024-.817-2.19-2.041-3.23-3.787-3.23-3.453,0-4.974,4.047-4.974,13.254C315.109,85.659,315.48,88.851,316.3,90.967Z"/><path class="col2" d="M348.443,89.854c0,3.081.482,3.6,3.342,3.638v1.039H340.61v-1c1.745-.074,2.153-.148,2.6-.52.557-.408.78-1.373.78-3.155V87.218H332V85.436l12.994-18.451h3.452V85.547h3.973v1.671h-3.973Zm-4.455-19.008-10.32,14.7h10.32Z"/><path class="col2" d="M25.017,64.757V92.194H70.291V64.757Zm15.85,26.51H35.258V71.785a6.12,6.12,0,0,1,6.268-6.27h6.607v5.128h-5.12a2.012,2.012,0,0,0-2.146,1.8v3.389H55.656v5.117H40.867Zm19.027.023H57.152a6.131,6.131,0,0,1-6.28-6.274V82.17l4.789-.009V84.81a1.363,1.363,0,0,0,1.475,1.363h2.758Zm0-20.647H57.136A1.356,1.356,0,0,0,55.661,72v2.648H50.872V71.785a6.129,6.129,0,0,1,6.28-6.27h2.742Z"/><path class="col2" d="M31.837,93.936A6.691,6.691,0,0,1,30.6,98.015a6.212,6.212,0,0,1-3.876,2.149l-.538-1.17c3.407-.591,3.951-2.3,4.215-3.86H25.658v-1.2Z"/><path class="col2" d="M34.4,97.89H33.119v-4.2H34.4Zm3.689-1.157c0,2.921-2.292,3.259-4.114,3.475l-.466-1.172a6.548,6.548,0,0,0,2.6-.615,1.737,1.737,0,0,0,.693-1.514V93.568h1.29Z"/><rect class="col2" x="39.39" y="96.15" width="6.741" height="1.278"/><polygon class="col2" points="52.988 94.05 52.988 99.683 47.205 99.683 47.205 98.478 51.702 98.478 51.702 95.24 47.28 95.24 47.28 94.05 52.988 94.05"/><rect class="col2" x="54.386" y="96.15" width="6.742" height="1.278"/><path class="col2" d="M64.195,95.6a13.419,13.419,0,0,1-.229,2.526,4.057,4.057,0,0,1-1.155,2.2l-.954-.987a2.935,2.935,0,0,0,.922-1.723,10.022,10.022,0,0,0,.192-1.88v-1.92h1.224Zm2.093,2.969a1.922,1.922,0,0,0,1.162-.994,4.741,4.741,0,0,0,.519-1.653l1.147.556A4.776,4.776,0,0,1,67.8,99.055a4.127,4.127,0,0,1-2.73,1.047v-6.53h1.214Z"/><path class="col1" d="M61.511,39.334a5.658,5.658,0,0,1-.152,1.615,1.669,1.669,0,0,1-1.748,1.1,5.916,5.916,0,0,1-3.59-1.349,2.791,2.791,0,0,1-1.045-2.147,4.055,4.055,0,0,1,1.634-2.811,10.141,10.141,0,0,1,2.773-1.615L59.364,31.2c-.152,0-.152,0-.778.039-.286.019-.551.019-1.027.019-.284,0-.816-.019-1.045-.019-.246-.02-.418-.02-.474-.02a3.377,3.377,0,0,0-.4.02l-.019-2.128a11.648,11.648,0,0,0,2.3.171c.19,0,.4,0,.666-.019.456-.019.55-.019.759-.019V27.993a13.018,13.018,0,0,0-.114-2.185h2.375a11.665,11.665,0,0,0-.114,2.071V29.1a21.209,21.209,0,0,0,3.667-.722l.075,2.128c-.342.057-.7.114-2.014.341-.627.115-1.007.172-1.728.248v2.469a13.175,13.175,0,0,1,3.876-.532c3.172,0,5.432,1.938,5.432,4.636a4.22,4.22,0,0,1-4.312,4.331,3.067,3.067,0,0,1-3.115-2.109,6.342,6.342,0,0,1-.324-2.431,8.036,8.036,0,0,0,2.11-.836,6.588,6.588,0,0,0-.038.836,3.661,3.661,0,0,0,.265,1.671,1.314,1.314,0,0,0,1.2.646A1.952,1.952,0,0,0,68.5,37.663c0-1.634-1.33-2.7-3.363-2.7a12.15,12.15,0,0,0-3.647.627Zm-2.147-3.058c-1.425.76-2.261,1.6-2.261,2.279,0,.323.19.608.627.874a2.287,2.287,0,0,0,1.216.418c.323,0,.418-.171.418-.8Zm10.524-3.838a16.215,16.215,0,0,0-3.8-4.1l1.785-1.2a16.1,16.1,0,0,1,3.762,3.895Z"/><path class="col1" d="M74.033,41.386a10.26,10.26,0,0,0,2.09-4.16l1.88.513a14.089,14.089,0,0,1-2.2,4.806Zm14.115-11.8a11.115,11.115,0,0,0,1.216-.057c-.02.285-.038.589-.038,1.1v5.072c0,.475.018.817.038,1.1-.589-.038-.78-.057-1.178-.057H83.323a14.6,14.6,0,0,1,2.127,1.956l-1.406,1.33a19.956,19.956,0,0,0-2.451-2.393l1.065-.893h-4.5a17.154,17.154,0,0,0-1.747.076V34.946a13.9,13.9,0,0,0,1.747.076h9.138V33.958H78.44c-.684,0-1.025.019-1.728.076v-1.8a13.752,13.752,0,0,0,1.728.076h8.853v-.987H79.162c-.494,0-.95.019-1.406.056v-.911a17.806,17.806,0,0,1-2.431,1.861,9.1,9.1,0,0,0-1.178-1.747,13.6,13.6,0,0,0,5.414-5.415l2.375.418c-.323.494-.4.589-.7,1.007h3a9.6,9.6,0,0,0,1.824-.095l1.1,1.045a11.34,11.34,0,0,0-.949,1.064,9.216,9.216,0,0,1-.856.988ZM80.739,40.17c0,.646.114.684,2.128.684,1.71,0,2.26-.076,2.564-.342.191-.171.3-.722.362-1.672a6.668,6.668,0,0,0,1.975.627c-.228,1.672-.38,2.166-.836,2.584-.494.475-1.634.646-4.35.646-3.287,0-3.837-.266-3.837-1.862V38.764a7.35,7.35,0,0,0-.115-1.538h2.2a7.352,7.352,0,0,0-.094,1.538Zm2.108-10.581a9.572,9.572,0,0,0,1.121-1.33H79.941a14.168,14.168,0,0,1-1.234,1.33h4.14ZM88.737,37a29.319,29.319,0,0,1,2.926,4.065l-1.8,1.292A19.355,19.355,0,0,0,87.1,38.081Z"/><path class="col1" d="M106.805,29.456a4.114,4.114,0,0,1-.417.076c-.057.019-.228.057-.456.114a21.257,21.257,0,0,1-2.337.437,16.968,16.968,0,0,0,.742,1.558,23.212,23.212,0,0,0,4.425-1.1l.191,2.071c-.285.038-.571.095-1.065.209l-1.31.3-1.2.247-.19.057a20.193,20.193,0,0,0,2.546,3.477l-1.672,1.2a10.216,10.216,0,0,0-4.369-.778,7.355,7.355,0,0,0-3.193.531,1.371,1.371,0,0,0-.816,1.159,1.253,1.253,0,0,0,.816,1.1,7.414,7.414,0,0,0,2.717.418,14.425,14.425,0,0,0,5.852-1.254l.342,2.356c-.228.038-.324.057-.513.095-.076.019-.209.057-.4.095l-.323.095a18.291,18.291,0,0,1-4.863.646,8.685,8.685,0,0,1-4.636-.931,3.06,3.06,0,0,1-1.463-2.6,3.175,3.175,0,0,1,1.6-2.64,8.469,8.469,0,0,1,4.427-.95,13.086,13.086,0,0,1,3.286.4,11.664,11.664,0,0,1-1.463-2.128,56.48,56.48,0,0,1-7.351.513c-.342.019-.457.019-.78.057l-.076-2.071a11.268,11.268,0,0,0,1.957.076,34.981,34.981,0,0,0,5.376-.361c-.113-.209-.171-.323-.342-.7-.189-.4-.227-.512-.4-.873a40.175,40.175,0,0,1-5.092.285,10.8,10.8,0,0,0-1.292.038l-.095-2.014a15.939,15.939,0,0,0,1.824.076,33.305,33.305,0,0,0,3.913-.209l-.056-.152c-.247-.608-.38-.893-.608-1.463a3.562,3.562,0,0,0-.3-.608l2.375-.323a10.707,10.707,0,0,0,.778,2.3,21.7,21.7,0,0,0,3.629-.8Zm.532-3.8a12.249,12.249,0,0,1,1.825,2.907l-1.387.589a12.438,12.438,0,0,0-1.824-2.945Zm2.85,2.546a13.665,13.665,0,0,0-1.767-2.869l1.331-.551a10.96,10.96,0,0,1,1.8,2.793Z"/><path class="col1" d="M120.278,36.979c-1.083,2.45-2.3,3.571-3.857,3.571-2.166,0-3.723-2.2-3.723-5.262a8.159,8.159,0,0,1,2.09-5.528,8.524,8.524,0,0,1,6.535-2.66c4.558,0,7.522,2.774,7.522,7.048a7.319,7.319,0,0,1-4.616,7.086,12.413,12.413,0,0,1-2.982.8,6.063,6.063,0,0,0-1.16-2.223,10.092,10.092,0,0,0,3.781-1.045,5.317,5.317,0,0,0,2.64-4.749,4.7,4.7,0,0,0-2.336-4.217,4.153,4.153,0,0,0-1.919-.57A27.523,27.523,0,0,1,120.278,36.979Zm-2.793-6.8a6.359,6.359,0,0,0-2.583,5.129c0,1.558.664,2.792,1.5,2.792.627,0,1.273-.8,1.957-2.431a25.074,25.074,0,0,0,1.577-6.421A4.837,4.837,0,0,0,117.485,30.178Z"/><path class="col1" d="M139.336,37.112A10.935,10.935,0,0,1,137,38.726a4.433,4.433,0,0,0-.722-1.006,35.872,35.872,0,0,1-3.78,1.994,2.416,2.416,0,0,1-.248.152.882.882,0,0,0-.19.095l-.475-2.222a13.708,13.708,0,0,0,2.147-.76V31.944h-.551a9.256,9.256,0,0,0-1.482.1V30.007a8.527,8.527,0,0,0,1.5.095h.532V27.746a14.982,14.982,0,0,0-.114-2.109h2.2a12.8,12.8,0,0,0-.114,2.128V30.1h.341a8.154,8.154,0,0,0,1.349-.076V32.02a9.811,9.811,0,0,0-1.329-.076h-.361v4.085c.512-.266.665-.361,1.272-.7v1.311a7.5,7.5,0,0,0,2.261-1.919h-.418a13.6,13.6,0,0,0-1.767.095v-1.9a10.57,10.57,0,0,0,1.786.1h8.3a12.6,12.6,0,0,0,1.976-.114v1.9a18.59,18.59,0,0,0-1.957-.076h-5.813a6.932,6.932,0,0,1-.513.779h6.041c.931,0,1.291-.019,1.842-.057-.037.3-.056.551-.075,1.121a16.545,16.545,0,0,1-.779,5.167c-.38.874-.988,1.121-2.659,1.121-.514,0-.856-.019-1.6-.057a4.586,4.586,0,0,0-.514-1.748,13.636,13.636,0,0,1-3.134,2.09,5.178,5.178,0,0,0-1.368-1.444,11.589,11.589,0,0,0,3.457-2.052,8.475,8.475,0,0,0,1.977-2.526h-1.141a11.439,11.439,0,0,1-5.261,4.16,4.725,4.725,0,0,0-1.216-1.444,9.869,9.869,0,0,0,4.407-2.716Zm.569-4.9a13.726,13.726,0,0,0-1.747.076,17.246,17.246,0,0,0,.075-1.842V27.67a15.034,15.034,0,0,0-.075-1.729,13.348,13.348,0,0,0,1.918.1H145.6a14.3,14.3,0,0,0,2.033-.1,15.377,15.377,0,0,0-.076,1.881v2.622a14.708,14.708,0,0,0,.076,1.823c-.4-.038-.969-.057-1.729-.057Zm.285-3.7h5.376v-.8H140.19Zm0,2.166h5.376v-.779H140.19Zm5.794,6.44a10.62,10.62,0,0,1-2.659,3.723,13.265,13.265,0,0,0,1.956.152c.7,0,.912-.19,1.083-1.007a23.118,23.118,0,0,0,.323-2.868Z"/><path class="col1" d="M155.448,31.735a19.377,19.377,0,0,1-3.039,1.6,7.341,7.341,0,0,0-1.1-1.937,18.984,18.984,0,0,0,4.845-2.736,13.263,13.263,0,0,0,2.982-3.173h2.261a12.414,12.414,0,0,0,3.192,3.211,17.815,17.815,0,0,0,4.844,2.6,10.23,10.23,0,0,0-1.045,2.09,18.456,18.456,0,0,1-3.1-1.672v1.33a13.852,13.852,0,0,0-1.71-.076h-6.5a14.306,14.306,0,0,0-1.634.076Zm-1.539,11.114a15.193,15.193,0,0,0,.114-2.014V36.409a17.154,17.154,0,0,0-.095-1.881,11.965,11.965,0,0,0,1.634.076h9.5a12.453,12.453,0,0,0,1.653-.076,12.971,12.971,0,0,0-.094,1.881v4.445a11.884,11.884,0,0,0,.113,1.995h-2.261V41.88h-8.3v.969Zm2.26-2.831h8.3V36.447h-8.3ZM163.56,31h.646a17.329,17.329,0,0,1-3.913-3.705A13.311,13.311,0,0,1,156.569,31h6.991Z"/><path class="col1" d="M173.062,42.108a6.76,6.76,0,0,0-.1-.741,36.12,36.12,0,0,1-.512-6.041,33.938,33.938,0,0,1,.361-5.034c.095-.57.095-.57.513-2.717a10.2,10.2,0,0,0,.209-1.406v-.076l2.564.266c-.778,1.653-1.5,6.231-1.519,9.537-.019.684-.019.684-.019.988v.3a3.074,3.074,0,0,1-.02.4h.02c.095-.209.095-.209.228-.551.038-.133.132-.342.227-.646.171-.4.171-.4.361-.855a3.5,3.5,0,0,0,.228-.589l1.577.7a15.843,15.843,0,0,0-1.881,5.813,3.723,3.723,0,0,0,.038.513Zm4.293-12.443a13.689,13.689,0,0,0,3.438.3c.665,0,1.084,0,1.749-.038,0-1.121-.02-2.071-.02-2.85a5.315,5.315,0,0,0-.057-.912l2.375-.057a18.589,18.589,0,0,0-.133,2.793v.874a19.1,19.1,0,0,0,2.565-.456c.113-.038.113-.038.418-.152l.151-.038.077,2.146a3.267,3.267,0,0,0-.551.095c-.646.133-1.634.3-2.641.418v.418c0,1.064,0,1.1.19,4.294a15.177,15.177,0,0,1,2.983,1.729,3.683,3.683,0,0,0,.531.322l-.911,2.3a7.118,7.118,0,0,0-1.425-1.216c-.646-.418-1.083-.7-1.2-.779v.266a3.324,3.324,0,0,1-.152,1.064c-.437,1.121-1.767,1.786-3.61,1.786-2.488,0-4.008-1.178-4.008-3.116,0-1.842,1.615-3.134,3.914-3.134a4.511,4.511,0,0,1,1.69.266c-.057-.475-.075-1.406-.151-4.047-.76.019-1.216.038-1.71.038-.7,0-1.463-.019-2.356-.095-.266,0-.475-.019-.57-.019a2.829,2.829,0,0,0-.323-.019.872.872,0,0,0-.19-.019.334.334,0,0,0-.114.019Zm3.857,7.96c-1.216,0-1.976.474-1.976,1.253,0,.7.683,1.178,1.748,1.178a1.866,1.866,0,0,0,1.538-.589,1.594,1.594,0,0,0,.247-1.026v-.513A3.97,3.97,0,0,0,181.212,37.625Z"/><path class="col1" d="M205.814,28.6a2.83,2.83,0,0,0-.322.855,17.871,17.871,0,0,1-3.895,7.96,18.5,18.5,0,0,1-7.067,4.844A6.963,6.963,0,0,0,192.858,40a15.459,15.459,0,0,0,4.161-1.938,13.163,13.163,0,0,0,5.756-8.282h-9.043a15.083,15.083,0,0,0-2.394.114v-2.47a13.39,13.39,0,0,0,2.432.133h8.72a6.944,6.944,0,0,0,2.033-.19Z"/><path class="col1" d="M212.867,26.435a9.657,9.657,0,0,0-.076,1.71v5.243a9.171,9.171,0,0,0,.076,1.672h-2.6a13.7,13.7,0,0,0,.095-1.71V28.126a12,12,0,0,0-.076-1.71Zm8.625.019a9.012,9.012,0,0,0-.095,1.767v2.565a22.438,22.438,0,0,1-.494,5.756,7.278,7.278,0,0,1-3.743,4.426,16.061,16.061,0,0,1-3.7,1.463,6.507,6.507,0,0,0-1.33-2.261,10.243,10.243,0,0,0,4.1-1.52c1.786-1.177,2.413-2.336,2.622-4.844.076-.817.095-1.653.095-3.172V28.259a10.005,10.005,0,0,0-.095-1.8Z"/><path class="col1" d="M226.167,32.8a18.659,18.659,0,0,0,3.078.133H239.37a18.659,18.659,0,0,0,3.078-.133V35.44a20.875,20.875,0,0,0-3.1-.095H229.263a20.833,20.833,0,0,0-3.1.095Z"/><path class="col1" d="M248.036,40.474a21.239,21.239,0,0,0-2.337.076V38.1a12.2,12.2,0,0,0,2.375.134h8.643V29.95H248.4a18.593,18.593,0,0,0-2.432.1v-2.47a12.771,12.771,0,0,0,2.451.133h9.137c.989,0,.989,0,1.654-.038a11.33,11.33,0,0,0-.058,1.577V39.676a12.379,12.379,0,0,0,.1,1.957H256.7V40.474Z"/><path class="col1" d="M263.711,32.8a18.673,18.673,0,0,0,3.079.133h10.125a18.666,18.666,0,0,0,3.078-.133V35.44a20.875,20.875,0,0,0-3.1-.095H266.808a20.858,20.858,0,0,0-3.1.095Z"/><path class="col1" d="M288.39,26.682a39.61,39.61,0,0,0-.189,4.256c-.134,3.7-.551,5.851-1.539,7.807a12.117,12.117,0,0,1-2.622,3.515,6.772,6.772,0,0,0-1.918-1.843,7.828,7.828,0,0,0,1.956-2.184c1.368-2.185,1.8-4.636,1.8-9.955a9.675,9.675,0,0,0-.075-1.729Zm5.034-.228a10.415,10.415,0,0,0-.132,1.8L293.2,39.068A7.625,7.625,0,0,0,296.1,36.9a9.284,9.284,0,0,0,1.862-3.477,7.943,7.943,0,0,0,1.786,1.786,11.787,11.787,0,0,1-3.021,4.426,12.542,12.542,0,0,1-4.046,2.28,8.267,8.267,0,0,0-.817.342l-1.216-1.292a8.514,8.514,0,0,0,.171-2.014l.095-10.714v-.57a8.223,8.223,0,0,0-.076-1.254Z"/><path class="col1" d="M301.655,35.022c.816-.57,1.634-1.5,4.14-4.654a5.871,5.871,0,0,1,1.178-1.2,2.617,2.617,0,0,1,1.521-.57,2.693,2.693,0,0,1,1.709.722,12.684,12.684,0,0,1,1.273,1.368,60.534,60.534,0,0,0,5.68,5.813,12.075,12.075,0,0,0,2.071,1.595l-1.159,2.7a3.754,3.754,0,0,0-.551-.551c-.988-.874-2.488-2.3-3.876-3.685-1.443-1.482-1.481-1.539-3.513-3.857-1.178-1.349-1.293-1.443-1.654-1.443-.3,0-.494.17-1.14,1.025a53.467,53.467,0,0,1-3.742,4.6,3.133,3.133,0,0,0-.4.513Z"/><path class="col3" d="M311.055,114.345a13.828,13.828,0,1,1-13.828-13.827A13.829,13.829,0,0,1,311.055,114.345Z"/><path class="col4" d="M305.238,114.345a8.011,8.011,0,1,1-8.011-8.012A8.011,8.011,0,0,1,305.238,114.345Z"/><path class="col5" d="M325.976,118.268h0c-2.106,1.1-2.366,2.917-1.78,3.786l-1.55-2.3a4.163,4.163,0,0,0-2.435-1.725,3.44,3.44,0,0,0-2.754.466h0a3.783,3.783,0,0,0-.769,5.283l-1.415-2.1a3.783,3.783,0,0,0-5.188-1.26h0a3.436,3.436,0,0,0-1.458,2.381,4.149,4.149,0,0,0,.689,2.9c-2.4-3.547-5.449-8.068-7.482-11.077a4.153,4.153,0,0,0-2.436-1.724,3.438,3.438,0,0,0-2.753.464h0a3.786,3.786,0,0,0-.769,5.285c4.024,5.955,11.4,16.878,14.265,21.115l-.069.061s-3.321-1.149-6.588-1.924c-2.691-.639-4.282.468-4.575,2.438v0c-.272,1.827,1.4,4.08,3.139,4.762,3.406,1.215,8.506,3.056,9.058,3.412,4.075,2.64,11.942,6.126,12.119,6.376,1.209,1.705,2.673,3.956,2.673,3.956l17.869-12.071-2.672-3.956s-.028-7.924-7.2-18.548l-1.992-2.949C330.438,119.171,328.06,117.14,325.976,118.268Z"/><path class="col5" d="M326.381,125.288l-3.735-5.529a4.163,4.163,0,0,0-2.435-1.725,3.44,3.44,0,0,0-2.754.466h0a3.783,3.783,0,0,0-.769,5.283l2.247,3.325m0,0s-2-2.955-3.662-5.421a3.783,3.783,0,0,0-5.188-1.26h0a3.436,3.436,0,0,0-1.458,2.381,4.149,4.149,0,0,0,.689,2.9c1.666,2.465,3.662,5.421,3.662,5.421m-2.906,8.7s-3.321-1.149-6.588-1.924c-2.691-.639-4.282.468-4.575,2.438v0c-.272,1.827,1.4,4.08,3.139,4.762,3.406,1.215,8.506,3.056,9.058,3.412,4.075,2.64,11.942,6.126,12.119,6.376,1.209,1.705,2.673,3.956,2.673,3.956l17.869-12.071-2.672-3.956s-.028-7.924-7.2-18.548l-1.992-2.949c-1.461-2.163-3.839-4.194-5.923-3.066h0c-2.106,1.1-2.366,2.917-1.78,3.786l2.185,3.234m-13.4,5.844-11.144-16.5a4.153,4.153,0,0,0-2.436-1.724,3.438,3.438,0,0,0-2.753.464h0a3.786,3.786,0,0,0-.769,5.285l15.443,22.859"/><path class="col2" d="M344.21,125.681a12.688,12.688,0,0,0,.088,1.661h-2.431a12.2,12.2,0,0,0,.088-1.661v-5.545h-1.3a14.886,14.886,0,0,0-1.661.077v-2.1a15.077,15.077,0,0,0,1.639.077h4.819a14.549,14.549,0,0,0,1.716-.077v2.1a14.184,14.184,0,0,0-1.716-.077H344.21Z"/><path class="col2" d="M354.253,127.342a8.627,8.627,0,0,0-.264-1.188l-.3-.935h-3.135l-.3.935a6.339,6.339,0,0,0-.275,1.188h-2.574a11,11,0,0,0,.528-1.342l2.376-6.623a6.715,6.715,0,0,0,.352-1.188h2.872a8.494,8.494,0,0,0,.374,1.188L356.3,126c.209.583.385,1.034.528,1.342Zm-2.145-7.272-1.023,3.3h2.068Z"/><path class="col2" d="M357.585,127.342a11.793,11.793,0,0,0,.088-1.628v-5.952a12.3,12.3,0,0,0-.088-1.606c.518.022.914.033,1.618.033h2.409c2.179,0,3.377,1.045,3.377,2.959,0,1.958-1.254,3.125-3.388,3.125h-1.738v1.408a14.282,14.282,0,0,0,.088,1.661Zm3.917-4.94a1.1,1.1,0,0,0,1.221-1.188,1.065,1.065,0,0,0-1.221-1.155h-1.639V122.4Z"/></svg>