<svg xmlns="http://www.w3.org/2000/svg" viewBox="0 0 123 123">
<defs><style>.cls-1{fill:#25a739;}.cls-2{fill:#fff;}</style></defs>
<rect class="cls-1" width="123" height="123"/>
<path class="cls-2" d="M10.49,15.33a16.85,16.85,0,0,1-1.85.72c-.81.28-1.33.46-1.54.55V13.28a20.87,20.87,0,0,0,2.39-1.16,7.92,7.92,0,0,0,2-1.42H15V34.15H10.49Z"/><path class="cls-2" d="M19.87,33.67a4.26,4.26,0,0,1-1.82-2.41,13.18,13.18,0,0,1-.5-3.91H21.9a8.39,8.39,0,0,0,.37,2.94,1.68,1.68,0,0,0,2.76.33,3.47,3.47,0,0,0,.5-1.58c.07-.66.1-1.62.1-2.88a9.85,9.85,0,0,0-.39-3.2,1.55,1.55,0,0,0-1.6-1.06c-1.05,0-1.71.71-2,2.12H17.79L18.1,10.7H28.9v3.85H21.78l-.26,5.18a3,3,0,0,1,1.39-.82A6.63,6.63,0,0,1,25,18.57a4,4,0,0,1,3.61,1.94A10.19,10.19,0,0,1,29.86,26a18.2,18.2,0,0,1-.49,4.62,5.22,5.22,0,0,1-1.87,2.89,6.29,6.29,0,0,1-3.92,1.06,6.83,6.83,0,0,1-3.71-.86"/><rect class="cls-2" x="46.97" y="83.26" width="4.19" height="9.54" rx="0.27"/><path class="cls-2" d="M90.87,96.67h-60a.28.28,0,0,0-.27.28v3.67a.27.27,0,0,0,.27.27h60a.28.28,0,0,0,.28-.27V97a.29.29,0,0,0-.28-.28"/><path class="cls-2" d="M90.87,104h-60a.27.27,0,0,0-.27.27v3.68a.27.27,0,0,0,.27.27h60a.28.28,0,0,0,.28-.27v-3.68a.28.28,0,0,0-.28-.27"/><path class="cls-2" d="M79.46,73.3a9,9,0,0,0-5.2-2,6.88,6.88,0,0,0-4.81,2.05.47.47,0,0,0-.16.37v.33a.52.52,0,0,0,.17.41.49.49,0,0,0,.42.1l.11,0a.85.85,0,0,0,.3-.19,4.89,4.89,0,0,1,2.4-.5,9.09,9.09,0,0,1,6.19,2.59l.05,0a.75.75,0,0,0,.53.22.68.68,0,0,0,.5-.22l.05,0a9.12,9.12,0,0,1,6.19-2.59,4.85,4.85,0,0,1,2.41.5,1,1,0,0,0,.33.2.65.65,0,0,0,.35,0,.5.5,0,0,0,.38-.49v-.29a.51.51,0,0,0-.16-.37,6.93,6.93,0,0,0-4.88-2.11,8.79,8.79,0,0,0-5.17,2"/><path class="cls-2" d="M75.73,49.39a.48.48,0,0,0-.26.31l-.06.2a.52.52,0,0,0,.45.66h.07a.69.69,0,0,0,.29-.07,1.71,1.71,0,0,1,.37,0,5.2,5.2,0,0,1,4.28,2.8l0,0a.63.63,0,0,0,.39.31.58.58,0,0,0,.19,0,.7.7,0,0,0,.3-.07l0,0a6,6,0,0,1,2.68-.66,4.06,4.06,0,0,1,2.73.87.63.63,0,0,0,.21.22l.19.1h.14A.64.64,0,0,0,88,54a.57.57,0,0,0,.26-.31l0-.18a.61.61,0,0,0,0-.15.52.52,0,0,0-.07-.25,4.51,4.51,0,0,0-4.07-2.45,6.34,6.34,0,0,0-2.16.41,5.25,5.25,0,0,0-4-2.27,5,5,0,0,0-2.25.57"/><path class="cls-2" d="M63.05,58.62l0,.27a.5.5,0,0,0,.24.4.48.48,0,0,0,.4.06l.09,0a.7.7,0,0,0,.26-.19,4.36,4.36,0,0,1,2.29-.52,7.41,7.41,0,0,1,4.74,1.79l0,0a.65.65,0,0,0,.46.18h0a.68.68,0,0,0,.47-.23l0,0a7.2,7.2,0,0,1,5.26-2.43,3.68,3.68,0,0,1,1.57.28.7.7,0,0,0,.31.16.62.62,0,0,0,.22,0l.13,0a.53.53,0,0,0,.34-.52l0-.23a.5.5,0,0,0-.18-.36,5.89,5.89,0,0,0-3.84-1.51,7.16,7.16,0,0,0-4.49,1.86,7.43,7.43,0,0,0-4-1.33,5.71,5.71,0,0,0-4.26,2,.57.57,0,0,0-.14.38"/><path class="cls-2" d="M32.69,63.44a6.5,6.5,0,0,1,6.5-6.51l.42,0a8.8,8.8,0,1,1,16.68,4.51,9.83,9.83,0,0,1-2.13,19.43L41,80.81A7,7,0,0,1,36,69.08a6.51,6.51,0,0,1-3.27-5.64"/><path class="cls-2" d="M53.54,20.24c-.26-.31-.49-.65-.74-.95,1.3-.41,2.5-1,2.5-3.06a2.85,2.85,0,0,0-1.72-2.94c-.22,1.87-.66,4.84-1.95,5.95A1,1,0,0,1,50,19a4.19,4.19,0,0,1-.53-2.21c0-2.65,1.68-4.53,3.64-4.53,1.81,0,3.28,1.42,3.28,3.94a3.87,3.87,0,0,1-2.83,4.09m-2.9-5a4.64,4.64,0,0,0-.23,1.49c0,.44.07,1.59.53,1.59.17,0,.31-.21.41-.35.77-1,1.1-3.26,1.18-4.67a3.11,3.11,0,0,0-1.89,1.94"/><path class="cls-2" d="M58.26,20.59v-.85h2a6.46,6.46,0,0,0-.44-.71c.14-.1.29-.18.43-.27h-1V16.64h5.63v2.12H63.87l.39.16a.14.14,0,0,1,.08.12c0,.1-.11.14-.18.14-.11.18-.21.38-.31.56H66v.85Zm.05-5.15h7.55v.85H58.31Zm.72-.38V11.8h1.74V11l1,.07a.13.13,0,0,1,.14.13.22.22,0,0,1-.15.18v.43h.75V11l1,.07a.13.13,0,0,1,.14.13.21.21,0,0,1-.14.18v.43H65.2v3.26Zm1.76-2.46H60v.52h.8Zm0,1.22H60v.53h.81Zm3.11,3.56H60.27V18h3.64ZM61,18.76c.1.33.21.65.29,1h1.61l.27-1Zm1.51-6.16h-.76v.52h.76Zm0,1.22h-.77v.53h.77ZM64.2,12.6h-.81v.52h.81Zm0,1.22h-.81v.53h.81Z"/><path class="cls-2" d="M71.84,19.66a1.38,1.38,0,0,1-1,.31,2,2,0,0,1-.87-.2c0-.4-.06-.8-.11-1.2a1.94,1.94,0,0,0,1,.3c.71,0,.71-2.37.71-3,0-.43,0-1.21-.5-1.21a2.35,2.35,0,0,0-.53.09A20.81,20.81,0,0,1,68.62,20c-.34-.17-.67-.39-1-.57A14.81,14.81,0,0,0,69.4,15c-.41.08-.82.18-1.22.29,0-.14-.26-1.1-.26-1.14s0-.05,0-.05.15,0,.23,0a8.49,8.49,0,0,0,1.42-.18,17.76,17.76,0,0,0,.32-2.51c.28.07.55.16.82.24a2,2,0,0,1,.35.11s.11.05.11.11-.07.12-.12.14c-.1.6-.22,1.19-.37,1.77a5,5,0,0,1,.53,0,1.06,1.06,0,0,1,1.18.89,5.65,5.65,0,0,1,.17,1.6c0,.93-.13,2.8-.77,3.43m2.2-2c-.19-.31-.4-.59-.62-.89.26,0,.91-.2.91-.59a5.09,5.09,0,0,0-1.28-2.37l.93-.6a6,6,0,0,1,1.48,3.13c0,.84-.87,1.12-1.42,1.32"/><path class="cls-2" d="M81.17,14c.56,1.09,1.08,2.2,1.59,3.31l-.75.74A3.34,3.34,0,0,0,79.73,17c-.52,0-1.23.24-1.23,1,0,1.06,1.12,1.17,1.77,1.17A7.17,7.17,0,0,0,81.8,19c0,.39,0,.77-.07,1.15a8.23,8.23,0,0,1-1.4.09c-1.24,0-2.87-.25-2.87-2.16,0-1.54,1.16-2,2.24-2a4.48,4.48,0,0,1,1.44.27c-.15-.37-.33-.73-.5-1.09s-.29-.59-.44-.87a12.7,12.7,0,0,1-2.68.68c-.11-.37-.26-.73-.38-1.1a7.81,7.81,0,0,0,2.51-.52,11,11,0,0,0-.86-1.5.13.13,0,0,1-.12-.12.12.12,0,0,1,.08-.11,10.31,10.31,0,0,1,1-.39c.34.54.61,1.12.9,1.7a8.93,8.93,0,0,0,1.66-1c.18.38.33.76.5,1.13a9.93,9.93,0,0,1-1.64.87"/><path class="cls-2" d="M45.27,29.5v2c0,1.65-.46,2.26-1.86,2.47l-.63-.88c1-.15,1.43-.3,1.43-1.61,0-.67,0-1.34,0-2H39.51v-1h4.68V27l1.08.07a.14.14,0,0,1,.15.13.22.22,0,0,1-.15.18v1.12h2.32v1Zm.88-1.61V26.51H40.89v1.37h-1V25.53h3V24.25l1.12.09a.12.12,0,0,1,.14.13c0,.08-.08.14-.15.17v.89H47.2v2.36Zm-3.79,4.57a16,16,0,0,0-1.76-1.83c.25-.27.5-.57.76-.85a24.32,24.32,0,0,1,1.7,1.94Z"/><path class="cls-2" d="M52.11,33.88a4.59,4.59,0,0,0-.48-.87s-.05-.06-.05-.09.05,0,.06-.05A10,10,0,0,0,53,32.7a2,2,0,0,0,1.8-2,1.31,1.31,0,0,0-1.48-1.45,3,3,0,0,0-2.37,1.47c-.36.48-.69,1-1,1.48-.31-.27-.62-.56-.92-.84a31.68,31.68,0,0,0,2.58-3.56,10.52,10.52,0,0,0,.78-1.39c-.24.05-.47.12-.71.19-.42.11-.86.24-1.29.34-.06-.42-.13-.83-.21-1.24a20.07,20.07,0,0,0,3-.52,3.72,3.72,0,0,0,.62-.2,7.33,7.33,0,0,1,.57.9c0,.11-.11.14-.17.15a18.24,18.24,0,0,0-1.85,2.42,4.68,4.68,0,0,1,1.18-.18,2.33,2.33,0,0,1,2.46,2.57c0,2.25-2.27,3-3.83,3.06"/><path class="cls-2" d="M60.29,34.14c-.33-.3-.67-.62-1-.89a4.41,4.41,0,0,0,2.6-1.84,3.32,3.32,0,0,0,.35-1.55c0-.94-.3-1.48-1.14-1.48a7.44,7.44,0,0,0-2.56,1.13c-.06-.16-.5-1.24-.5-1.34s.09-.06.13-.06a5.54,5.54,0,0,0,1.12-.31,6.26,6.26,0,0,1,2.1-.54c1.45,0,2.08,1.14,2.08,2.72a4.5,4.5,0,0,1-3.16,4.16m1.58-7.61a14,14,0,0,0-2.55-1c.17-.37.33-.75.5-1.13a9.52,9.52,0,0,1,2.62,1c-.18.38-.36.76-.57,1.12"/><path class="cls-2" d="M47.39,16.76a4.8,4.8,0,0,1-1.25.14,1.9,1.9,0,0,1-.88-.14.2.2,0,0,1-.15.2v.84H47v.84H45.09v1h2.27v.86H41.74v-.86h2.34v-1H42.29V17.8h1.77V16.56l1,.1a1,1,0,0,1-.3-.82v-1h-.63a3.59,3.59,0,0,1-1.42,2.52l-.59-.47a2.32,2.32,0,0,1-1,1.49l-.65-.68v2.92h-1v-9.3h2.82v.83c-.31.66-.6,1.31-.93,2a2.6,2.6,0,0,1,.85,2.11,2.71,2.71,0,0,1,0,.4,2.59,2.59,0,0,0,1-1.78H42.07V14h2V13H42.44v-.9h1.62V11.06l1.06.08a.14.14,0,0,1,.15.13.18.18,0,0,1-.15.17v.7H47V13H45.1V14h2.21v.9H45.74v.59c0,.49.15.57.54.57a3,3,0,0,0,1.22-.32Zm-6.9-4.5v2.08c.26-.69.51-1.37.72-2.08Zm0,2.19v3.14a1.63,1.63,0,0,0,.8-1.51,1.84,1.84,0,0,0-.8-1.63"/><path class="cls-2" d="M89.31,20.44c-1.27,0-2.5-.52-2.51-2.23,0-.25,0-.5,0-.75-.66-.24-1.54-.53-1.56-1.51a3.7,3.7,0,0,1,.4-1.35c.34.07.68.17,1,.25a1.92,1.92,0,0,0-.44.93c0,.37.52.52.76.59.15-.83.31-1.66.45-2.49l-.46.6c-.47-.45-1-.85-1.45-1.25l.62-1a13.72,13.72,0,0,1,1.35,1.16,14.74,14.74,0,0,0,.29-2.1c.29.05.58.13.87.21a2.11,2.11,0,0,1,.36.09c.07,0,.13,0,.13.14a.4.4,0,0,1-.17.27c-.06.23-.12.49-.17.72-.11.5-.22,1-.34,1.49-.17.78-.35,1.57-.49,2.36a10.45,10.45,0,0,0,1.1.1l-.16,1a7.59,7.59,0,0,1-1.07-.08,2.32,2.32,0,0,0,0,.46,1.17,1.17,0,0,0,1.31,1.23c.77,0,1.11-.47,1.1-1.35a4.43,4.43,0,0,0-1.32-2.64,9.1,9.1,0,0,0,1-.49,5,5,0,0,1,1.52,3.43,2,2,0,0,1-2.14,2.14"/></svg>