<svg xmlns="http://www.w3.org/2000/svg" viewBox="0 0 123 123">
<defs><style>.cls-1{fill:#c60f28;}.cls-2{fill:#fff;}</style></defs>
<rect class="cls-1" width="123" height="123"/>
<path class="cls-2" d="M16.46,28.59H9.4V25.06L15.51,10.7h5V25.2h2.34v3.39H20.52v5.56H16.46Zm0-3.39v-10l-3.56,10Z"/><polygon class="cls-2" points="54.51 65.97 32.35 53.17 32.35 94.57 54.51 101.26 54.51 65.97"/><polygon class="cls-2" points="56.95 66.06 56.95 101.27 79.25 94.56 79.25 53.18 56.95 66.06"/><polygon class="cls-2" points="92.06 93.84 91.41 93.84 94.03 103 96.65 93.84 96 93.84 96.65 93.84 96.65 57.01 96 57.01 95.35 57.01 94.66 57.01 93.35 57.01 92.71 57.01 92.06 57.01 91.4 57.01 91.4 93.84 92.06 93.84"/><polygon class="cls-2" points="84.01 54.95 81.64 53.08 81.64 95.69 57.01 103.65 55.87 103.65 55.65 103.65 54.51 103.65 30 96.8 30 53.08 27.62 54.95 27.62 98.47 54.4 105.88 55.65 105.88 55.87 105.88 57.12 105.88 81.83 98.04 84.01 97.4 84.01 54.95"/><path class="cls-2" d="M96.65,52.13a2.62,2.62,0,1,0-5.24,0V55h5.24Z"/><path class="cls-2" d="M35,12.86V14H34V12.83h-.61a3,3,0,0,1-1,1.95l-.77-.54c.78-.63.8-1.23.8-2.25,0-.4,0-.79,0-1.18l.83.07A8.51,8.51,0,0,0,35,10.4l.73.89c0,.08-.09.11-.14.11a.35.35,0,0,1-.18-.06,19.19,19.19,0,0,1-2,.26c0,.15,0,.29,0,.44h3.23v.82Zm3.81.09V14h-1V12.9H37a2.27,2.27,0,0,1-.85,1.36h2.59v4.13H37.68a5,5,0,0,0,2.22.76l-.67,1a11.38,11.38,0,0,1-2.86-1.21c.19-.19.42-.34.61-.54H34.6a4.3,4.3,0,0,1,.55.62.12.12,0,0,1-.12.11.23.23,0,0,1-.11,0,9.56,9.56,0,0,1-2.64,1l-.57-.87a4.37,4.37,0,0,0,2.18-.85h-1V14.26h3c-.18-.1-.35-.23-.53-.35a1.6,1.6,0,0,0,.74-1.57c0-.51,0-1,0-1.56l.83.07a6.62,6.62,0,0,0,1.78-.47l.83.86s.1.09.1.15-.12.1-.17.1a.39.39,0,0,1-.23-.07c-.71.09-1.43.16-2.14.19,0,.16,0,.31,0,.47h2.87V13ZM37.68,15H33.86v.43h3.82Zm0,1.1H33.86v.41h3.82Zm0,1.09H33.86v.42h3.82Z"/><path class="cls-2" d="M45.79,19.44c-.29-.3-.54-.63-.81-.93,1.42-.4,2.74-1,2.74-3a2.77,2.77,0,0,0-1.89-2.87c-.24,1.83-.72,4.73-2.14,5.8a1.12,1.12,0,0,1-1.8-.27A3.74,3.74,0,0,1,41.31,16a4.16,4.16,0,0,1,4-4.42,3.53,3.53,0,0,1,3.6,3.84,3.84,3.84,0,0,1-3.1,4m-3.18-4.86A4.13,4.13,0,0,0,42.36,16c0,.43.08,1.55.58,1.55.18,0,.34-.2.44-.34.85-1,1.22-3.18,1.3-4.56a3.23,3.23,0,0,0-2.07,1.9"/><path class="cls-2" d="M50.64,12.34v-1H53.8v-1l1.13.07a.13.13,0,0,1,.14.13.23.23,0,0,1-.15.18v.65h3.26v1ZM56.42,20l-.68-.85c.63-.13,1.17-.21,1.17-1.13V16.09H52v3.67h-1V15.27H58v2.82A1.66,1.66,0,0,1,56.42,20M52,12.7h4.86v2.16H52Zm.58,3.86h3.78v2.33H52.55Zm3.26-3.09H53v.66h2.85Zm-.45,3.84H53.5v.79h1.86Z"/><path class="cls-2" d="M61.81,19.45a1,1,0,0,1-.7-.3,5.52,5.52,0,0,1-1.06-3.48,16.56,16.56,0,0,1,.18-2.9c.05-.37.09-.73.15-1.09a6.75,6.75,0,0,1,1.28.48.13.13,0,0,1,.07.11c0,.11-.11.18-.19.21a11.28,11.28,0,0,0-.35,2.13,11.91,11.91,0,0,0,0,1.34,6.09,6.09,0,0,0,.22,1.41c.07.19.2.68.43.67.43,0,1-1.41,1.16-1.84l.57,1.35c-.27.7-1,1.9-1.74,1.91m4.41-1.71a9.62,9.62,0,0,0-1.53-4.45c.37-.18.72-.39,1.1-.56a11.5,11.5,0,0,1,1.59,4.46c-.38.2-.77.38-1.16.55"/><path class="cls-2" d="M73.85,11.66a14.11,14.11,0,0,1-1.1,2h.58v.86H72.18c-.14.16-.26.33-.41.5H73v.73a9.59,9.59,0,0,1-1,1V17c.5-.09,1-.17,1.5-.29l-.08,1c-.45.13-.91.2-1.36.3v.62a1.5,1.5,0,0,1-1.28,1.65l-.66-.77c.77-.22.93-.37.93-1.33l-1.22.27c0,.07-.07.18-.13.18s-.08,0-.1-.09l-.41-1.08c.61-.07,1.22-.18,1.83-.3,0-.33,0-.68,0-1l.55,0a2.5,2.5,0,0,0,.35-.47H71.1a7,7,0,0,1-1.59,1.21l-.63-.72A7.46,7.46,0,0,0,71,14.49H69.11v-.88h1.52V12.7H69.46v-1h1.16V10.42l1.07.1a.1.1,0,0,1,.11.1.22.22,0,0,1-.14.19v.93H73l-.62.61a13.56,13.56,0,0,0,.6-1.58l1,.6a.21.21,0,0,1,.11.17c0,.12-.13.13-.19.12m-2.2,1v.94c.19-.29.38-.61.56-.94ZM76.9,20a7.4,7.4,0,0,1-1.56-1.76,6.86,6.86,0,0,1-2.23,1.88l-.66-.82a4.56,4.56,0,0,0,2.28-2,11,11,0,0,1-.7-2.1,5.65,5.65,0,0,1-.36.58l-.62-.68a11.94,11.94,0,0,0,1.42-4.76l1.15.36a.22.22,0,0,1,.12.18c0,.1-.14.18-.2.2-.13.5-.26,1-.42,1.49h2.27v.94h-.5A10.26,10.26,0,0,1,76,17.4a6.25,6.25,0,0,0,1.73,1.78Zm-2.11-6.45-.09.23a11.58,11.58,0,0,0,.62,2.5,10.89,10.89,0,0,0,.51-2.73Z"/><path class="cls-2" d="M84.51,12.39c.55.65,1.14,1.25,1.66,1.92l-.81.75a8.56,8.56,0,0,0-.73-.93c-1.86.17-3.73.22-5.6.33l-.22-1h.93a.49.49,0,0,0,.35-.15,4.86,4.86,0,0,0,.71-.9H78.51v-.9h3.31V10.4l1.27.09a.13.13,0,0,1,.11.14c0,.1-.13.18-.19.22v.64h3.33v.9ZM83.8,20l-.65-.79c.6-.1,1-.22,1-1H80.66V20h-1V14.82h5.54v3.61A1.41,1.41,0,0,1,83.8,20m-3.15-4.42v.48h3.47v-.48Zm3.48,1.26H80.65v.52h3.48Zm-1.79-4.49c-.38.36-.74.77-1.14,1.09.91,0,1.83-.09,2.74-.14-.16-.15-.32-.32-.47-.48.26-.15.53-.3.78-.47Z"/><path class="cls-2" d="M95,15.7a.27.27,0,0,1-.14,0c-.65.22-1.9.72-2.5,1v1.62H91.26c0-.14,0-.3,0-.48v-.59c-.73.33-1.09.77-1.09,1.25s.42.65,1.24.65a7.91,7.91,0,0,0,2.63-.43l0,1.24a7.49,7.49,0,0,1-2.26.3c-1.77,0-2.66-.55-2.66-1.68A2.07,2.07,0,0,1,89.83,17a6.59,6.59,0,0,1,1.37-.91c0-.47-.16-.72-.42-.72a1.32,1.32,0,0,0-.93.4,8.29,8.29,0,0,0-.7.72l-.66.75-.76-.86A7.62,7.62,0,0,0,90,13.51c-.48.06-1,.1-1.59.13,0-.4-.09-.77-.14-1.09a16.4,16.4,0,0,0,2.07-.11,9.91,9.91,0,0,0,.3-1.46l1.22.28c.07,0,.11.06.11.12s0,.12-.15.16a8.15,8.15,0,0,1-.24.81A15.34,15.34,0,0,0,93.28,12l-.1,1.15c-.5.11-1.16.22-2,.33a6.54,6.54,0,0,1-.57,1.06,1.68,1.68,0,0,1,.52-.08c.55,0,.91.37,1.07,1.13.73-.38,1.55-.77,2.44-1.17l.42,1.18c0,.09,0,.13-.11.13"/><path class="cls-2" d="M39.46,31.61a12.87,12.87,0,0,0-1.22-.91,5.69,5.69,0,0,1-1.86,2.67l-.94-.62a4.59,4.59,0,0,0,1.84-2.54,6.32,6.32,0,0,0-1.69-.64c-.13.37-.27.74-.43,1.1-.39.87-.88,1.76-1.8,1.76-.76,0-1.29-.73-1.29-1.64a2.29,2.29,0,0,1,1.67-2.23,4.1,4.1,0,0,1,1.1-.1,17.85,17.85,0,0,0,.66-2.59l-1.92.34L33.37,25h.1a12.06,12.06,0,0,0,3-.4c.14.18.29.35.44.51-.19.67-.39,1.32-.59,2-.16.51-.3,1-.47,1.5a7,7,0,0,1,1.69.55,10,10,0,0,0,.3-2.19c.36.25.72.49,1.06.77a12,12,0,0,1-.33,1.9,11.33,11.33,0,0,1,1.37.8c-.16.41-.34.82-.52,1.23m-6.37-.88c0,.28.1.52.34.52a.46.46,0,0,0,.38-.2,5.63,5.63,0,0,0,.73-1.61c-.63.06-1.45.37-1.45,1.29"/><path class="cls-2" d="M46.17,33.24C45,33.24,45.06,32,45.06,31V30c0-.3,0-.65-.33-.65a1,1,0,0,0-.24,0c-1.35.39-1.87,2.49-2.29,3.81l-1.07-.59c.37-1,.79-2,1.21-3s.95-2.26,1.44-3.38c.27-.62.52-1.26.81-1.87a10.18,10.18,0,0,1,1.14.58.12.12,0,0,1,.06.11.14.14,0,0,1-.15.13c-.61,1.05-1.15,2.16-1.7,3.24,0,.11-.11.2-.16.29a2.62,2.62,0,0,1,1.2-.39c.87,0,1.15.67,1.15,1.58,0,.54,0,1.07,0,1.61,0,.27,0,.65.34.65a2,2,0,0,0,1.14-.67,6.31,6.31,0,0,0,.92-1.37c.14.5.28,1,.41,1.48a3.36,3.36,0,0,1-2.76,1.69"/><path class="cls-2" d="M54.58,26.37a13.31,13.31,0,0,1-1.32.32,21.68,21.68,0,0,1-2,4.95c-.34-.17-.67-.37-1-.57a17.25,17.25,0,0,0,1.8-4.25,10,10,0,0,1-1.34.11l-.15-1.12a2.74,2.74,0,0,0,.5,0,8.76,8.76,0,0,0,1.25-.09,11.07,11.07,0,0,0,.25-1.82c.42.06.84.11,1.25.21-.1.48-.21,1-.36,1.46a8.69,8.69,0,0,0,1.09-.36c0,.37,0,.75,0,1.13m2.52,6.46a7.73,7.73,0,0,0-1.2-1.09c0,.12,0,.23,0,.35,0,1.09-.75,1.38-1.56,1.38a2.54,2.54,0,0,1-.86-.14,1.6,1.6,0,0,1-1.06-1.49,1.58,1.58,0,0,1,1.65-1.61,4.62,4.62,0,0,1,.74.06c0-.49,0-1,0-1.48a2.18,2.18,0,0,1,.13-.72h.82s.32,0,.31.08,0,0,0,0a1.44,1.44,0,0,0-.19.64c0,.56,0,1.11,0,1.67a6.48,6.48,0,0,1,1.92,1.25c-.22.36-.45.72-.7,1m-2.25-1.52a1.52,1.52,0,0,0-.64-.12c-.35,0-.78.11-.79.6s.49.71.85.71.58-.07.59-.53c0-.22,0-.44,0-.66m2.42-3.53a5.56,5.56,0,0,0-2.2-1.21l.52-1.06a5.55,5.55,0,0,1,2.25,1.21Z"/><path class="cls-2" d="M61.47,33.15l-1,.12A13.56,13.56,0,0,1,60,29.2a25.16,25.16,0,0,1,.48-4.58l.79.19a2.74,2.74,0,0,1,.39.09.13.13,0,0,1,.1.14.14.14,0,0,1-.14.14,20.47,20.47,0,0,0-.53,4.75c0,.39,0,.77,0,1.16.16-.49.31-1,.49-1.47l.68.63a10,10,0,0,0-.81,2.9m5.9-.31a7.09,7.09,0,0,1-1.66.09c-1.31,0-2.52-.25-2.68-2.21.31-.22.61-.46.93-.68,0,1.11.53,1.61,1.38,1.64a6,6,0,0,0,2.06-.24l0,1.4m-.22-6A7.19,7.19,0,0,0,65,26.73a9.1,9.1,0,0,0-1.46.25c0-.39-.06-.87-.11-1.25a11,11,0,0,1,2.07-.25,7.63,7.63,0,0,1,1.72.08c0,.43-.06.87-.1,1.29"/></svg>