<svg xmlns="http://www.w3.org/2000/svg" viewBox="0 0 123 123">
<defs><style>.cls-1{fill:#d6a600;}.cls-2{fill:#fff;}</style></defs>
<rect class="cls-1" width="123" height="123"/>
<path class="cls-2" d="M9.92,31l5.67-8.78.35-.52a20.71,20.71,0,0,0,1.62-2.76,5.7,5.7,0,0,0,.53-2.45,2.87,2.87,0,0,0-.44-1.72,1.44,1.44,0,0,0-1.24-.6,1.69,1.69,0,0,0-1.68.93,5.77,5.77,0,0,0-.47,2.55v1.07H9.92V17.56a8.15,8.15,0,0,1,1.55-5.23,5.86,5.86,0,0,1,4.85-1.92A6.17,6.17,0,0,1,20.94,12a6.24,6.24,0,0,1,1.58,4.56,7.83,7.83,0,0,1-.41,2.52,11.11,11.11,0,0,1-1,2.11c-.36.62-.93,1.5-1.7,2.63l-4.52,6.78h7v3.53h-12Z"/><path class="cls-2" d="M49,104.71v1.82a.82.82,0,0,0,.81.78H70.26a.81.81,0,0,0,.8-.81h0v-2c11.48-3.76,20.07-13.06,22-24.4,0,0,0,0,0-.06s0-.08,0-.12a.83.83,0,0,0-.83-.82h-65a.83.83,0,0,0-.83.82l.05.37c2,11.44,10.81,20.8,22.52,24.4"/><path class="cls-2" d="M71,51.39c-.26.38-6.54,9.42.14,16.73,3.07,3.35,2.8,6.31,1.93,8.31H77.4c.87-3,.51-6.66-3-10.46-4.93-5.38.06-12.66.13-12.77a1.6,1.6,0,0,0-.69-2.4,2.29,2.29,0,0,0-2.83.59"/><path class="cls-2" d="M60.19,76.43h4.29c.86-3,.5-6.65-3-10.46-4.92-5.38.06-12.66.14-12.78a1.61,1.61,0,0,0-.7-2.39,2.28,2.28,0,0,0-2.82.59c-.27.38-6.55,9.42.14,16.73,3.07,3.35,2.8,6.31,1.93,8.31"/><path class="cls-2" d="M45.2,51.39c-.28.38-6.55,9.42.13,16.73,3.07,3.35,2.81,6.31,1.93,8.31h4.29c.87-3,.51-6.65-3-10.46-4.92-5.38.07-12.66.14-12.78A1.59,1.59,0,0,0,48,50.8a2.26,2.26,0,0,0-2.81.59"/><path class="cls-2" d="M61,15.6a.27.27,0,0,1-.14,0c-.65.22-1.91.72-2.5,1v1.62H57.28c0-.15,0-.31,0-.49v-.59c-.72.34-1.08.77-1.08,1.26s.41.64,1.23.64a13.41,13.41,0,0,0,2.64-.19V20a10.66,10.66,0,0,1-2.32.13c-1.77,0-2.66-.56-2.66-1.69a2.11,2.11,0,0,1,.74-1.52A6.83,6.83,0,0,1,57.23,16c0-.47-.17-.72-.43-.72a1.31,1.31,0,0,0-.93.41,6,6,0,0,0-.69.71c-.34.37-.55.63-.67.75-.17-.19-.42-.47-.75-.86A7.66,7.66,0,0,0,56,13.41c-.48.06-1,.1-1.6.14,0-.41-.09-.78-.14-1.1a16.17,16.17,0,0,0,2.07-.11,8.59,8.59,0,0,0,.31-1.45l1.22.27a.12.12,0,0,1,.1.13c0,.06,0,.11-.14.16s-.13.45-.24.81a16.3,16.3,0,0,0,1.69-.39L59.21,13c-.5.1-1.17.21-2,.33a7.78,7.78,0,0,1-.56,1.05,1.94,1.94,0,0,1,.51-.07c.56,0,.92.37,1.08,1.13.72-.38,1.55-.78,2.44-1.17l.42,1.18c0,.08,0,.12-.11.12"/><path class="cls-2" d="M42.26,19.76a2.17,2.17,0,0,1-1.07.38c-1.09,0-1.24-.67-1.24-1.7,0-2,0-4.05,0-6.08H39v2.19c0,2-.08,4.46-1.65,5.83l-.89-.56A3.16,3.16,0,0,0,37,19.2l-.26.18L36.54,19c-.82.38-1.66.68-2.49,1,0,0-.06.18-.12.18a.16.16,0,0,1-.16-.1l-.48-1a7.23,7.23,0,0,0,.8-.21V14.24c-.12.11-.24.22-.37.32l-.67-.74a7.36,7.36,0,0,0,2.32-3.2l1.06.26s.15,0,.15.11a.1.1,0,0,1-.09.1,7.85,7.85,0,0,0,1.32,1.55l-.72.78A11.59,11.59,0,0,1,35.91,12a8.3,8.3,0,0,1-1.38,1.83h.83v-.92l1,.08c.07,0,.18,0,.18.12s-.11.15-.16.18v.54h.94V17.2H35.09v1.44c.33-.12.67-.27,1-.41-.14-.18-.27-.36-.42-.53l.81-.46c.3.45.6.9.87,1.37a8.89,8.89,0,0,0,.54-3.48c0-1.25,0-2.5-.06-3.75h3.23c0,2.36,0,4.72,0,7.08,0,.24,0,.57.29.57a1.67,1.67,0,0,0,1-.66Zm-5.95-5.2H35.09v.62h1.22Zm0,1.36H35.09v.58h1.22Z"/><path class="cls-2" d="M51.4,20.44a5.75,5.75,0,0,1-1.12-1.6,5,5,0,0,1-1.41,1.39l-.46-.62a1.91,1.91,0,0,1-.95.83l-.62-.71c.72-.29.93-.62.93-1.5v-.9l-.36.19c0,.09-.07.23-.16.23a.11.11,0,0,1-.08-.07l-.29-.81v.46H45.11V18.8c.3-.14.61-.26.89-.42-.1-.18-.21-.38-.33-.56l.74-.42c.31.55.59,1.11.86,1.68l-.68.5a3.61,3.61,0,0,0-.22-.39c-.67.33-1.36.65-2,1,0,.09,0,.2-.14.2a.13.13,0,0,1-.09-.06l-.54-1a4.88,4.88,0,0,0,.64-.23V14.26a2.13,2.13,0,0,1-.31.29l-.6-.8a6.86,6.86,0,0,0,2-3l1.08.34a.08.08,0,0,1,.06.08.1.1,0,0,1-.05.08A4.63,4.63,0,0,0,47,12.28a5.49,5.49,0,0,0,1.76-1l.54.76c0-.32,0-.63,0-1v-.18l1.14.22a.12.12,0,0,1,.11.13c0,.12-.12.18-.2.2,0,.75,0,1.51,0,2.26V14h1.56v.94H50.35a11.75,11.75,0,0,0,.13,1.78,7.64,7.64,0,0,0,.31-1.51l.92.65a.14.14,0,0,1,.07.13.21.21,0,0,1-.15.18,7.7,7.7,0,0,1-.7,1.7,4.06,4.06,0,0,0,1.27,1.68Zm-6.17-7.35a10,10,0,0,1-.64.82h.64Zm-.12,1.54v.66H46v-.66ZM46,16h-.87v.63H46Zm1.79-1.14H47V14h.76V13c-.21.1-.41.2-.62.28L46.92,13l-.32.31a6.48,6.48,0,0,1-.8-1.12c-.15.29-.33.58-.51.86l.84.09c.07,0,.19,0,.19.13s-.09.15-.15.19v.5h.71v2.73c.3-.11.59-.2.89-.32Zm1.65,0h-.73V16l.65-.31v.95c-.21.12-.44.19-.65.31v1.56a2.25,2.25,0,0,1-.14.78,4.07,4.07,0,0,0,1.29-1.49,9,9,0,0,1-.43-2.92m-.08-2.56-.12,0c-.16.1-.33.21-.5.3V14h.66c0-.55,0-1.1,0-1.65m2.54-.05c-.21.4-.41.83-.64,1.23l-.71-.35c.18-.55.3-1.13.45-1.7l1.07.57s0,.08,0,.11-.13.14-.21.14"/><path class="cls-2" d="M41.15,27.54c-.13.2-.23.41-.34.6a11.19,11.19,0,0,1-2.12,2.78,6.46,6.46,0,0,0-1-.74A7.53,7.53,0,0,0,39.37,28l-1.06.17c-.53.09-1.05.17-1.57.27,0,.42,0,.84,0,1.25v1.53c0,.87.4,1,1.08,1a11.66,11.66,0,0,0,3-.37c0,.48-.1.95-.14,1.41-1,.09-1.95.14-2.94.14-1.15,0-2.26-.33-2.26-1.85V28.61c-.73.13-1.43.28-2.14.42-.05-.44-.1-.89-.16-1.33.76-.07,1.53-.15,2.29-.27v-2.5l1.36.16c.08,0,.17.05.17.16a.23.23,0,0,1-.15.19c0,.6,0,1.2,0,1.81,1-.15,1.93-.33,2.89-.49a2.9,2.9,0,0,0,.75-.21,8.31,8.31,0,0,1,.84.88c0,.06-.08.1-.11.11m-1.31-1.38A10.42,10.42,0,0,0,39,24.65l.74-.43a11.87,11.87,0,0,1,.84,1.47Zm1.39-.46a12.77,12.77,0,0,0-.92-1.56l.72-.45a10.76,10.76,0,0,1,.87,1.51Z"/><path class="cls-2" d="M49.36,33.12v-.56h-4v.61H44.09c0-2.4,0-4.81,0-7.21l3.35,0,3.19,0c0,2.28,0,4.55,0,6.83v.33Zm0-6h-4v4.32h4Z"/><path class="cls-2" d="M55,33.67l-1,.12a14,14,0,0,1-.47-4.15A27.08,27.08,0,0,1,54,25l.79.19a2,2,0,0,1,.4.1.14.14,0,0,1,.1.14.14.14,0,0,1-.15.14,21.91,21.91,0,0,0-.53,4.85c0,.39,0,.78,0,1.18.16-.5.32-1,.49-1.5l.69.64a10.05,10.05,0,0,0-.81,3m5.8-.52a7.18,7.18,0,0,1-1.67.09c-1.3,0-2.52-.25-2.68-2.25.31-.23.62-.48.93-.7,0,1.14.53,1.65,1.39,1.67a5.69,5.69,0,0,0,2.05-.24c0,.47,0,.94,0,1.43m-.33-5.9a7.17,7.17,0,0,0-2.12-.13,9.32,9.32,0,0,0-1.46.26c0-.4-.06-.89-.11-1.28a11,11,0,0,1,2.07-.25,7.61,7.61,0,0,1,1.72.09c0,.43-.05.88-.1,1.31"/></svg>