<svg xmlns="http://www.w3.org/2000/svg" viewBox="0 0 123 123">
<defs><style>.cls-1{fill:#f4a100;}.cls-2{fill:#fff;}</style></defs>
<rect class="cls-1" width="123" height="123"/>
<path class="cls-2" d="M10.67,15.26A16.32,16.32,0,0,1,8.83,16c-.81.27-1.32.46-1.53.55V13.22a20,20,0,0,0,2.38-1.16,8,8,0,0,0,2-1.41h3.49V34H10.67Z"/><path class="cls-2" d="M20.44,15.26A16.32,16.32,0,0,1,18.6,16c-.81.27-1.32.46-1.53.55V13.22a19.28,19.28,0,0,0,2.38-1.16,8,8,0,0,0,2-1.41h3.49V34H20.44Z"/><path class="cls-2" d="M20.88,93.38H39.39a.45.45,0,0,0,.45-.46.42.42,0,0,0-.12-.3l0,0L30.49,80.68l-.09-.1a.44.44,0,0,0-.33-.14.44.44,0,0,0-.3.11l-.06.07-.08.09-9,11.79-.14.17a.44.44,0,0,0-.08.25.45.45,0,0,0,.45.46"/><path class="cls-2" d="M39.33,95.06H20.79a.45.45,0,0,0-.45.45V110a.46.46,0,0,0,.45.46h6v-9.13a.45.45,0,0,1,.45-.45h5.54a.46.46,0,0,1,.46.45v9.13h6.12a.47.47,0,0,0,.46-.46V95.51a.46.46,0,0,0-.46-.45"/><path class="cls-2" d="M103.42,91.26H85.07a.44.44,0,0,0-.45.44v18.53a.44.44,0,0,0,.45.43h18.35a.44.44,0,0,0,.45-.43V91.7a.44.44,0,0,0-.45-.44m-10,12.1a.45.45,0,0,1-.45.44H87.45a.45.45,0,0,1-.46-.44V100a.45.45,0,0,1,.46-.44h5.48a.44.44,0,0,1,.45.44Zm0-6.16a.45.45,0,0,1-.45.44H87.45A.45.45,0,0,1,87,97.2V93.87a.45.45,0,0,1,.46-.44h5.48a.45.45,0,0,1,.45.44Zm8.38,6.16a.45.45,0,0,1-.45.44H95.83a.45.45,0,0,1-.45-.44V100a.44.44,0,0,1,.45-.44h5.48a.44.44,0,0,1,.45.44Zm0-6.16a.45.45,0,0,1-.45.44H95.83a.45.45,0,0,1-.45-.44V93.87a.45.45,0,0,1,.45-.44h5.48a.45.45,0,0,1,.45.44Z"/><path class="cls-2" d="M60.76,48.24h-18a.44.44,0,0,0-.44.44v61.38a.44.44,0,0,0,.44.44h18a.44.44,0,0,0,.44-.44V48.68a.44.44,0,0,0-.44-.44M50.07,103.51a.23.23,0,0,1-.23.24H45.73a.24.24,0,0,1-.24-.24V98.93a.24.24,0,0,1,.24-.24h4.11a.23.23,0,0,1,.23.24Zm0-10.53a.23.23,0,0,1-.23.24H45.73a.24.24,0,0,1-.24-.24V88.4a.23.23,0,0,1,.24-.23h4.11a.23.23,0,0,1,.23.23Zm0-10.52a.23.23,0,0,1-.23.24H45.73a.24.24,0,0,1-.24-.24V77.88a.24.24,0,0,1,.24-.24h4.11a.23.23,0,0,1,.23.24Zm0-10.52a.23.23,0,0,1-.23.23H45.73a.23.23,0,0,1-.24-.23V67.35a.23.23,0,0,1,.24-.23h4.11a.23.23,0,0,1,.23.23Zm0-10.53a.23.23,0,0,1-.23.24H45.73a.24.24,0,0,1-.24-.24V56.83a.24.24,0,0,1,.24-.24h4.11a.23.23,0,0,1,.23.24Zm8.07,42.1a.24.24,0,0,1-.24.24H53.79a.24.24,0,0,1-.24-.24V98.93a.24.24,0,0,1,.24-.24H57.9a.24.24,0,0,1,.24.24Zm0-10.53a.24.24,0,0,1-.24.24H53.79a.24.24,0,0,1-.24-.24V88.4a.23.23,0,0,1,.24-.23H57.9a.23.23,0,0,1,.24.23Zm0-10.52a.24.24,0,0,1-.24.24H53.79a.24.24,0,0,1-.24-.24V77.88a.24.24,0,0,1,.24-.24H57.9a.24.24,0,0,1,.24.24Zm0-10.52a.23.23,0,0,1-.24.23H53.79a.23.23,0,0,1-.24-.23V67.35a.23.23,0,0,1,.24-.23H57.9a.23.23,0,0,1,.24.23Zm0-10.53a.24.24,0,0,1-.24.24H53.79a.24.24,0,0,1-.24-.24V56.83a.24.24,0,0,1,.24-.24H57.9a.24.24,0,0,1,.24.24Z"/><rect class="cls-2" x="84.64" y="85.33" width="19.21" height="4.43" rx="0.37"/><path class="cls-2" d="M82.45,59.83a.47.47,0,0,0-.45-.34.48.48,0,0,0-.26.09l0,0-.15.19L63.91,82.18l-.09.11a.54.54,0,0,0-.15.35v27.52a.44.44,0,0,0,.44.43H82.05a.43.43,0,0,0,.44-.43V60a.41.41,0,0,0,0-.19M75,72l.13-.16c1.2-1.55,3.24-4.06,4.23-5.28l.13-.15a.53.53,0,0,1,.4-.19.49.49,0,0,1,.48.41V72.3a.5.5,0,0,1-.48.5h-4.5a.51.51,0,0,1-.49-.5A.49.49,0,0,1,75,72m-2.79,31.35a.44.44,0,0,1-.44.44H66.43a.44.44,0,0,1-.44-.44V100a.44.44,0,0,1,.44-.43h5.36a.44.44,0,0,1,.44.43Zm0-6.19a.44.44,0,0,1-.44.44H66.43a.44.44,0,0,1-.44-.44V93.81a.44.44,0,0,1,.44-.44h5.36a.44.44,0,0,1,.44.44Zm0-6.19a.44.44,0,0,1-.44.44H66.43A.44.44,0,0,1,66,91V87.62a.44.44,0,0,1,.44-.44h5.36a.44.44,0,0,1,.44.44Zm0-13.56v7.38a.44.44,0,0,1-.44.44H66.45a.44.44,0,0,1-.44-.44v-.93a.51.51,0,0,1,0-.17l0,0a.1.1,0,0,1,0,0,.35.35,0,0,1,0-.08c.68-1,3.77-4.78,5.07-6.37l.13-.16a.5.5,0,0,1,.88.23Zm8.17,25.94a.44.44,0,0,1-.44.44H74.62a.43.43,0,0,1-.44-.44V100a.43.43,0,0,1,.44-.43H80a.44.44,0,0,1,.44.43Zm0-6.19a.44.44,0,0,1-.44.44H74.62a.43.43,0,0,1-.44-.44V93.81a.44.44,0,0,1,.44-.44H80a.44.44,0,0,1,.44.44Zm0-6.19a.44.44,0,0,1-.44.44H74.62a.44.44,0,0,1-.44-.44V87.62a.44.44,0,0,1,.44-.44H80a.44.44,0,0,1,.44.44Zm0-6.19a.44.44,0,0,1-.44.44H74.62a.44.44,0,0,1-.44-.44V81.43a.44.44,0,0,1,.44-.44H80a.44.44,0,0,1,.44.44Zm0-6.19A.44.44,0,0,1,80,79H74.62a.44.44,0,0,1-.44-.44V75.24a.43.43,0,0,1,.44-.44H80a.44.44,0,0,1,.44.44Z"/><path class="cls-2" d="M37.8,11.37c-.23.68-.51,1.31-.8,2V20H36v-5a4.63,4.63,0,0,1-.68,1l-.66-.78a11.25,11.25,0,0,0,2.14-4.67l1.16.51a.14.14,0,0,1,.09.12c0,.12-.16.17-.24.18m-.27,8.37v-.91h2.24V16.6H38v-.91h1.81V13.78H37.7v-1H43v1H40.82v1.91h1.85v.91H40.82v2.23h2.35v.91Zm2.87-7a10.52,10.52,0,0,0-1.66-1.33l.72-.89c.29.22.58.49.86.74a9.47,9.47,0,0,1,.73.69Z"/><path class="cls-2" d="M52,18.07a11.4,11.4,0,0,0-1.22-.88,5.41,5.41,0,0,1-1.85,2.57l-.93-.6a4.45,4.45,0,0,0,1.83-2.44,7.07,7.07,0,0,0-1.68-.61,11,11,0,0,1-.43,1.05c-.39.84-.88,1.69-1.79,1.69a1.42,1.42,0,0,1-1.29-1.57,2.22,2.22,0,0,1,1.67-2.14,4,4,0,0,1,1.09-.09A16.86,16.86,0,0,0,48,12.56l-1.92.33-.2-1.21H46a13,13,0,0,0,3-.38,4,4,0,0,0,.44.48c-.19.64-.4,1.27-.6,1.91s-.29,1-.46,1.44a7.28,7.28,0,0,1,1.68.53,9.24,9.24,0,0,0,.29-2.1c.36.24.72.47,1.06.73a11.13,11.13,0,0,1-.33,1.83,10.36,10.36,0,0,1,1.37.77c-.16.39-.33.79-.52,1.18m-6.34-.85c0,.27.1.5.34.5a.46.46,0,0,0,.38-.19A5.53,5.53,0,0,0,47.06,16c-.63.06-1.45.36-1.45,1.24"/><path class="cls-2" d="M55.31,17.05a11,11,0,0,1-.61,2.45l-.77-.41a11.15,11.15,0,0,0,.57-2.66l.87.36a.14.14,0,0,1,.06.11.16.16,0,0,1-.12.15m5.7-.44v-1H58.13v1.05h-.87V15.9l-.63.28c0-.11-.07-.23-.1-.35l-.16,0V20h-.9V16c-.43,0-.87.08-1.29.13l-.11-.89a2.1,2.1,0,0,0,.43-.05.34.34,0,0,0,.23-.18c.24-.31.44-.65.65-1a9.89,9.89,0,0,0-1.16-.5V13a10.91,10.91,0,0,0,1.48-2.52l.94.52c.07,0,.19.09.19.21s-.17.17-.27.16c-.41.53-.81,1.07-1.25,1.56.17.11.34.19.5.31.17-.27.32-.55.48-.83l.82.58a.17.17,0,0,1,.08.14c0,.15-.13.14-.22.14-.47.62-.91,1.26-1.41,1.85a6.83,6.83,0,0,0,.77-.06c-.07-.18-.1-.37-.18-.53l.7-.28c.15.48.27,1,.41,1.48v-1H62v1.85Zm-4.15,1.94c-.13-.57-.24-1.15-.33-1.73l.66-.28c.11.57.22,1.16.36,1.73Zm2.49-2.15a7.11,7.11,0,0,1-.28,1.72,3.75,3.75,0,0,1-1.5,2l-.79-.64c1.34-.83,1.56-1.85,1.61-3.54l.94.17a.13.13,0,0,1,.12.13.17.17,0,0,1-.1.13M60,12.69v.74h1.59v.84H57.48v-.84H59v-.76h-1.9v-.89H59v-1.2l1,.08a.12.12,0,0,1,.13.12A.19.19,0,0,1,60,11v.83h2v.91Zm2.27,7A3.16,3.16,0,0,1,60.7,20c-.64,0-1.06-.36-1.06-1.17V16l.92.1c.06,0,.14,0,.14.11a.17.17,0,0,1-.12.15v2.13c0,.51.06.64.5.64a2.37,2.37,0,0,0,1.22-.57Z"/><path class="cls-2" d="M65.83,19.1l-.9.11a10.6,10.6,0,0,1-.62-3.88,21.09,21.09,0,0,1,.45-4c.27.06.55.13.82.21a1.42,1.42,0,0,1,.35.11s.11,0,.11.11a.22.22,0,0,1-.16.16,16.46,16.46,0,0,0-.52,4.21,5.78,5.78,0,0,0,.09,1.31c.18-.5.36-1,.53-1.53a9,9,0,0,0,.65.82,10,10,0,0,0-.8,2.34m4.44-4.41c0,.45,0,.91,0,1.37a8,8,0,0,1-.19,1.69A3.85,3.85,0,0,1,68.75,20a10.71,10.71,0,0,0-1-.56A4.06,4.06,0,0,0,69.18,16c0-.42,0-.83,0-1.25a14.72,14.72,0,0,1-1.62,0l-.52,0c0-.37-.06-.74-.09-1.1a11.35,11.35,0,0,0,1.16.1h1c0-.58-.05-1.16-.07-1.73,0-.3,0-.62-.08-.94l.86.13a1.51,1.51,0,0,1,.36.06.13.13,0,0,1,.12.13.19.19,0,0,1-.12.15c0,.69,0,1.38,0,2.08a6.86,6.86,0,0,0,1.61-.38c0,.38,0,.78,0,1.17a10.67,10.67,0,0,1-1.58.28"/><path class="cls-2" d="M76.41,19.82a4.92,4.92,0,0,1-.55.14c-.09-.16-.56-.9-.56-.9s0,0,0,0a6,6,0,0,0,1.34-.39A1.9,1.9,0,0,0,78,16.94c0-.81-.42-1.26-1.11-1.27-1,0-2,1.12-2.35,2.21l-.9-.17a12.26,12.26,0,0,1-.09-1.6,21.56,21.56,0,0,1,.37-3.41L75,13a.12.12,0,0,1,.1.13.2.2,0,0,1-.13.16,13,13,0,0,0-.35,2.55,3.36,3.36,0,0,1,2.61-1.25,2.05,2.05,0,0,1,2,2.18c0,1.92-1.41,2.64-2.8,3m.52-6.77A8.77,8.77,0,0,0,75,11.33c.24-.27.46-.55.7-.82a6.84,6.84,0,0,1,2,1.69c-.28.28-.55.58-.82.85"/><path class="cls-2" d="M87.3,19c-.81,0-1.17-.61-1.17-1.5s.14-1.86.2-2.8c0-.13,0-.28,0-.42s0-.39-.24-.39c-.52,0-1.77,1.21-2.07,1.72,0,1.33,0,2.7.08,4L83,19.77c0-1.11,0-2.23,0-3.34-.4.67-.82,1.31-1.22,2-.28-.29-.53-.63-.79-.95a17.4,17.4,0,0,0,2-3v-.51c-.51.1-1,.24-1.5.32-.06-.36-.12-.71-.2-1.06a9.38,9.38,0,0,0,1.67-.27c0-.73,0-1.45-.06-2.17a6,6,0,0,1,1.15.13.14.14,0,0,1,.11.15.1.1,0,0,1-.07.11c0,.52,0,1-.06,1.53l.47-.17c.07.27.12.54.18.8-.16.2-.3.42-.45.65v0a3.53,3.53,0,0,1,2.3-1.24c.61,0,.94.56.94,1.23a14.14,14.14,0,0,1-.11,1.58c-.06.56-.14,1.12-.15,1.69v0c0,.23,0,.56.28.56.56,0,.92-.9,1.15-1.4.13.48.27,1,.39,1.45A2,2,0,0,1,87.3,19"/><path class="cls-2" d="M94.07,20c-.74,0-1.95-.32-1.95-1.46a1.23,1.23,0,0,1,1.3-1.19,1.33,1.33,0,0,1,1.24,1,2.35,2.35,0,0,1,.09.6,1.66,1.66,0,0,0,1.15-1.61,1.51,1.51,0,0,0-1.57-1.67c-1.36,0-2.14,1.3-3,2.37l-.84-.88a22.72,22.72,0,0,0,3.41-4.59c-.71.17-1.44.31-2.15.46l-.2-1.28h.28a8,8,0,0,0,1.2-.11,13.28,13.28,0,0,0,1.65-.3c.19,0,.37-.12.56-.19l.62.87-.27.24c-.2.22-.4.49-.58.73-.43.59-.84,1.2-1.25,1.8a2.9,2.9,0,0,1,.83-.1A2.28,2.28,0,0,1,97,17.08,2.7,2.7,0,0,1,94.07,20m-.76-1.78a.25.25,0,0,0-.28.29c0,.41.52.46.75.46,0-.31-.14-.75-.47-.75"/><path class="cls-2" d="M41.89,32.5a10.78,10.78,0,0,0-2-1.21,1.57,1.57,0,0,1-.51,1.38,2.32,2.32,0,0,1-1.23.41c-.89,0-2.24-.32-2.22-1.65a1.62,1.62,0,0,1,1.49-1.53,5.61,5.61,0,0,1,.71,0c.22,0,.42,0,.63.06,0-.33,0-.67,0-1l-.91,0c-.69,0-1.66-.08-1.65-1.16a2.08,2.08,0,0,1,.23-.87l1-.05a2.22,2.22,0,0,0-.21.72c0,.34.37.34.57.34a6.29,6.29,0,0,0,1,0c0-.51,0-1,0-1.53a23.5,23.5,0,0,0-3,.24c-.06-.37-.1-.73-.14-1.1,1.05-.07,2.1-.13,3.16-.16,0-.32,0-.65,0-1v-.46l.75.1c.13,0,.27,0,.4.06a.11.11,0,0,1,.1.11.19.19,0,0,1-.12.15c0,.33,0,.64,0,1l2.4-.06v1.07c-.8,0-1.6,0-2.39,0,0,.51,0,1,0,1.53a10.29,10.29,0,0,0,2.3-.45L42,28.63c-.73.11-1.46.21-2.2.26,0,.43,0,.87,0,1.3a10.62,10.62,0,0,1,2.7,1.29c-.2.35-.41.69-.62,1M38.76,31a2.07,2.07,0,0,0-.8-.18c-.32,0-1,.13-1,.62s.58.64.9.65a.76.76,0,0,0,.85-.86V31"/><path class="cls-2" d="M49.9,32.13a5,5,0,0,1-2.56,1c-.19-.33-.34-.69-.55-1,1-.09,2.84-.42,2.84-2a1.06,1.06,0,0,0-1.18-1.08,2.68,2.68,0,0,0-1.58.64,3.81,3.81,0,0,0-.94,1.34l-1-.53a8.67,8.67,0,0,0,1.2-3.61c-.35,0-.69,0-1,0h-.73c0-.39-.07-.76-.08-1.15a11.38,11.38,0,0,0,1.31.08h.65a18.81,18.81,0,0,0,.1-2l.81.11a2.25,2.25,0,0,1,.36.06.16.16,0,0,1,.13.15.25.25,0,0,1-.16.21c0,.46-.06.93-.13,1.38a14.16,14.16,0,0,0,2.74-.55v1.23a23.49,23.49,0,0,1-2.9.39,11.54,11.54,0,0,1-.42,1.85,3.39,3.39,0,0,1,2-.57,1.93,1.93,0,0,1,2,2.12,2.49,2.49,0,0,1-.83,1.88"/><path class="cls-2" d="M59.06,31.31a6.28,6.28,0,0,1-3.44,1.45c-.27-.34-.52-.7-.8-1a10,10,0,0,0,2.07-.48,2.54,2.54,0,0,0,2-2.46c0-1.38-.71-1.85-1.76-1.85A8.06,8.06,0,0,0,54,28a6.65,6.65,0,0,1-1.16.41c0-.15-.43-1.34-.43-1.37s.11-.08.16-.08a7.32,7.32,0,0,0,2.21-.55,8,8,0,0,1,2.63-.57A2.62,2.62,0,0,1,60,28.7a3.45,3.45,0,0,1-1,2.61M58,25.53a11,11,0,0,0-.9-1.29l.68-.39a7.5,7.5,0,0,1,.87,1.27Zm1.23-.34a9.36,9.36,0,0,0-.92-1.37l.7-.39a8.49,8.49,0,0,1,.86,1.34Z"/><path class="cls-2" d="M66.41,33a16.75,16.75,0,0,0-2.63-3,9.19,9.19,0,0,0-.76-.66,2.05,2.05,0,0,1-.44-.39.9.9,0,0,1-.17-.55,1.17,1.17,0,0,1,.41-.87c.42-.45.85-.87,1.26-1.33.61-.69,1.24-1.39,1.83-2.12.26.21.51.41.76.63A1.68,1.68,0,0,1,67,25a.14.14,0,0,1,.05.1c0,.14-.2.16-.29.14-.58.55-1.18,1.09-1.76,1.65-.25.24-.47.5-.72.73s-.24.21-.35.34a.68.68,0,0,0-.21.4.38.38,0,0,0,.16.31c.37.35.78.65,1.15,1a18,18,0,0,1,2.33,2.51c-.31.28-.6.59-.91.88"/><path class="cls-2" d="M71.34,30.31c-.31,0-.62-.06-.92-.09a7,7,0,0,1-.36-2.38c0-1.13.23-2.26.37-3.38l.82.13c.09,0,.22,0,.32.07a.11.11,0,0,1,.08.11.23.23,0,0,1-.12.15,14.39,14.39,0,0,0-.44,3q0,.31,0,.63s0,.08,0,.08,0-.08,0-.09c.13-.34.26-.66.4-1l.5.76a8.93,8.93,0,0,0-.73,2m3.55-5.42c0,1.23,0,2.5-.06,3.74-.07,2-.49,3.81-2.09,4.72a5.36,5.36,0,0,0-.94-.57s-.06,0,0-.06,0-.07.07-.09a4,4,0,0,0,.61-.4,4.8,4.8,0,0,0,1.32-3.68,41.59,41.59,0,0,0-.1-4.18,7.86,7.86,0,0,1,.83.11,3,3,0,0,1,.43.08.11.11,0,0,1,.09.12.43.43,0,0,1-.11.21"/><path class="cls-2" d="M84.11,28.7a.27.27,0,0,1-.13-.05c-.6.22-1.78.71-2.34,1v1.62h-1V30.17c-.67.34-1,.77-1,1.25s.39.65,1.16.65a7.19,7.19,0,0,0,2.46-.42l0,1.23a6.59,6.59,0,0,1-2.12.3c-1.65,0-2.48-.56-2.48-1.68A2.13,2.13,0,0,1,79.31,30a6.19,6.19,0,0,1,1.28-.9c0-.47-.15-.72-.39-.72a1.21,1.21,0,0,0-.87.4,7.62,7.62,0,0,0-.65.72c-.31.37-.51.62-.63.74l-.7-.86a7.51,7.51,0,0,0,2.13-2.85c-.45.06-1,.11-1.49.14,0-.4-.08-.77-.13-1.1a14.4,14.4,0,0,0,1.93-.1A9,9,0,0,0,80.08,24l1.14.28a.12.12,0,0,1,.1.13c0,.06,0,.11-.13.15s-.12.45-.23.81A12.26,12.26,0,0,0,82.54,25l-.09,1.16c-.47.11-1.09.21-1.87.33a7.27,7.27,0,0,1-.52,1.05,1.66,1.66,0,0,1,.48-.07c.51,0,.85.36,1,1.12.68-.38,1.45-.77,2.28-1.17l.39,1.18c0,.09,0,.13-.1.13"/></svg>