<svg xmlns="http://www.w3.org/2000/svg" viewBox="0 0 123 123">
<defs><style>.cls-1{fill:#004c87;}.cls-2{fill:#fff;}</style></defs>
<rect class="cls-1" width="123" height="123"/>
<path class="cls-2" d="M10.55,15.33a16.5,16.5,0,0,1-1.86.72c-.81.28-1.32.46-1.53.55V13.28a20.87,20.87,0,0,0,2.39-1.16,7.92,7.92,0,0,0,2-1.42H15V34.15H10.55Z"/><path class="cls-2" d="M19.05,32.39a9.18,9.18,0,0,1-1.55-5.62V18.43a10.64,10.64,0,0,1,1.39-5.92q1.38-2.1,4.89-2.1c2.09,0,3.59.49,4.52,1.47a6.46,6.46,0,0,1,1.42,4.46l0,.41H25.49a5.69,5.69,0,0,0-.32-2.27,1.32,1.32,0,0,0-1.33-.65,1.43,1.43,0,0,0-1.12.43,2.87,2.87,0,0,0-.55,1.45A20.45,20.45,0,0,0,22,18.57V21a2.47,2.47,0,0,1,1.22-1,4.82,4.82,0,0,1,1.91-.36,4.16,4.16,0,0,1,3.78,1.81,9,9,0,0,1,1.17,4.93,10.57,10.57,0,0,1-1.45,6q-1.44,2.13-4.83,2.13a5.54,5.54,0,0,1-4.76-2.08m6.19-2.22a9.58,9.58,0,0,0,.36-3.08,22.65,22.65,0,0,0-.08-2.29A2.46,2.46,0,0,0,25,23.5a1.44,1.44,0,0,0-1.2-.5,1.94,1.94,0,0,0-1.09.32,2.63,2.63,0,0,0-.74.75v3.74q0,3.33,1.86,3.33a1.35,1.35,0,0,0,1.37-1"/><path class="cls-2" d="M81.74,54.56a4.46,4.46,0,0,0-.85,3.15A4.46,4.46,0,0,0,83,60.19,4.46,4.46,0,0,0,83.86,57a4.46,4.46,0,0,0-2.12-2.48"/><path class="cls-2" d="M79.79,63.66a4.42,4.42,0,0,0,.85-3.14A4.42,4.42,0,0,0,78.52,58a4.43,4.43,0,0,0-.85,3.15,4.42,4.42,0,0,0,2.12,2.47"/><path class="cls-2" d="M84.72,62a4,4,0,0,0,2.71,1.15,4.13,4.13,0,0,0,2.51-1.62,4,4,0,0,0-2.71-1.15A4.13,4.13,0,0,0,84.72,62"/><path class="cls-2" d="M86.79,55.13a4.77,4.77,0,0,0-1,3.3,4.54,4.54,0,0,0,3.24-1,4.8,4.8,0,0,0,1-3.3,4.57,4.57,0,0,0-3.25,1"/><path class="cls-2" d="M84.2,66.69A4.12,4.12,0,0,0,87,65.63,4,4,0,0,0,84.58,64,4.12,4.12,0,0,0,81.79,65a4,4,0,0,0,2.41,1.68"/><path class="cls-2" d="M85.49,89.8H74.74a1.52,1.52,0,1,0,0,3H85.49a1.52,1.52,0,1,0,0-3"/><path class="cls-2" d="M85.49,106.56H74.74a1.52,1.52,0,0,0,0,3H85.49a1.52,1.52,0,1,0,0-3"/><path class="cls-2" d="M37.17,86.11c-.26-.08-.51-.14-.75-.19a7.39,7.39,0,0,0,.75.19"/><path class="cls-2" d="M85.09,93.9h-10a.87.87,0,0,0-.87.87v3l-6.5.72-9.5-.22v-5.8a24.84,24.84,0,0,0,3.78-.77c9.14-2.57,11.14-8.27,10.94-13.5s1.5-7.39,4-8.31a11.59,11.59,0,0,1,2-.54A16.21,16.21,0,0,0,79.85,74l.65,0a15.53,15.53,0,0,1-.9-4.68,11.06,11.06,0,0,1,2.17-.06,13.44,13.44,0,0,1-2.06-1.47c.41-2.52,1.91-4.07,3.46-5.66a18.5,18.5,0,0,0,2.42-2.84l-.54-.35a18.77,18.77,0,0,1-2.34,2.75c-1.51,1.54-3,3.12-3.55,5.62-.49-.44-1-1-1.57-1.57-2.25-2.53-5.15-.68-9.29,3.18s-9.35,4-14.43-1.22c-6.71-6.87-12.56-6.83-16.57-6.44C40,62.38,41,64.94,42.39,71.46c1.46,6.84,5.13,9.94,10.15,10.36-2.32.38-2.93.71-6.67,3.29-2.92,2-7,1.38-8.7,1,3.06,1,6.68,4.17,9.93,5.28A23.89,23.89,0,0,0,53,92.61v5.55l-18-.39v3.88l32.77-.73,6.5.71v3a.87.87,0,0,0,.87.86h10a.87.87,0,0,0,.87-.86V94.77a.87.87,0,0,0-.87-.87M54.58,92.69q1.06,0,2.13-.06v5.61l-2.13,0Z"/><path class="cls-2" d="M34.07,101a1.39,1.39,0,0,1-1.27,1.48H32A1.39,1.39,0,0,1,30.76,101V98.33A1.39,1.39,0,0,1,32,96.85h.76a1.39,1.39,0,0,1,1.27,1.48Z"/><path class="cls-2" d="M44.09,16.59v3.46H43V16.59H39.57v-1H43v-3.5H40V11h7v1h-3v3.5h3.43v1Zm-2.58-1.44c-.32-.75-.65-1.51-1-2.21l1-.53a12,12,0,0,1,.85,2.28Zm5-1.93c-.32.67-.64,1.33-1,2l-.8-.37c.3-.8.57-1.61.8-2.43l1.09.49a.23.23,0,0,1,.12.18c0,.12-.14.16-.21.16"/><path class="cls-2" d="M53.25,11.68a.27.27,0,0,1-.15,0,10.74,10.74,0,0,1-1.25.41v1.42h1.2v.94h-1.2v.27a7,7,0,0,0,1.42,1.81l-.61.84a6,6,0,0,1-.81-1.11v3.87h-1V16.26a6.42,6.42,0,0,1-1.3,1.93l-.72-.75a7.11,7.11,0,0,0,1.8-3H49.08v-.94h1.73V12.22c-.46.09-.92.15-1.39.2L49,11.5a8,8,0,0,0,3.61-1,9.05,9.05,0,0,1,.74,1,.14.14,0,0,1-.14.15m.14.24H57v7.53H53.39Zm2.55,1H54.39v5.6h1.55Z"/><path class="cls-2" d="M62.7,19.84c-1.29,0-3.35-.2-3.35-2.22a3.09,3.09,0,0,1,2.1-2.72,16.06,16.06,0,0,1-.36-3.73l.82.06.4,0s.1,0,.1.1a.17.17,0,0,1-.06.11,8,8,0,0,0-.05,1,6.34,6.34,0,0,0,.17,1.89.13.13,0,0,0,.08,0,10.38,10.38,0,0,0,2.28-.94c.13.46.22.93.33,1.4-1.13.26-4.71.94-4.71,2.68,0,1,1.33,1.17,2,1.17a7.7,7.7,0,0,0,2.89-.48c.06.45.1.9.13,1.35a13.26,13.26,0,0,1-2.73.29"/><path class="cls-2" d="M70.59,11.68a9.92,9.92,0,0,1-2.51,4.12l-.82-.64a8.15,8.15,0,0,0,2.22-4.27l1.19.47c.06,0,.11.07.11.14s-.11.17-.19.18M74,20.22l-.53-1c-1.64.25-3.28.42-4.92.61,0,.05-.1.12-.17.12s-.08,0-.09-.09l-.34-1.07a7.53,7.53,0,0,0,.8-.09c.21-.05.24-.08.37-.29a21.53,21.53,0,0,0,1-2.17,20.72,20.72,0,0,0,.75-2l1.13.61a.21.21,0,0,1,.11.15c0,.12-.13.18-.21.19A34.41,34.41,0,0,1,70,18.58c1-.09,1.95-.21,2.93-.33-.25-.47-.52-.92-.8-1.37l.9-.61c.64,1.08,1.23,2.2,1.79,3.32Zm.89-4.43A9.77,9.77,0,0,1,72,11.61c.36-.2.71-.43,1.08-.62a7.68,7.68,0,0,0,2.55,3.9Z"/><path class="cls-2" d="M76.63,19.76v-1H78v-5l1.06.07a.14.14,0,0,1,.15.13.2.2,0,0,1-.15.18v4.66h1.28V12.29H77v-1h7.37v1.05H81.47v2.46h2.46v1.08H81.45v2.88h3.13v1Z"/><path class="cls-2" d="M93.47,15.65a.27.27,0,0,1-.14-.05c-.65.22-1.91.71-2.5,1v1.62H89.76c0-.14,0-.3,0-.48v-.59c-.72.33-1.08.77-1.08,1.25s.42.65,1.24.65a8,8,0,0,0,2.63-.43l0,1.24a7.55,7.55,0,0,1-2.27.3c-1.77,0-2.65-.55-2.65-1.68a2.07,2.07,0,0,1,.74-1.52A6.59,6.59,0,0,1,89.71,16c0-.47-.16-.72-.42-.72a1.32,1.32,0,0,0-.93.4,7,7,0,0,0-.7.72c-.33.37-.54.63-.67.75l-.75-.87a7.61,7.61,0,0,0,2.28-2.85c-.48.06-1,.1-1.59.13,0-.4-.09-.77-.14-1.09a16.11,16.11,0,0,0,2.06-.11,8.53,8.53,0,0,0,.31-1.46l1.22.28c.07,0,.11.06.11.12s0,.12-.15.16-.12.46-.24.82a15.74,15.74,0,0,0,1.69-.39l-.1,1.16c-.5.1-1.17.21-2,.32a5.76,5.76,0,0,1-.56,1.06,2,2,0,0,1,.52-.07c.55,0,.91.36,1.07,1.12.72-.38,1.54-.77,2.44-1.17l.41,1.18c0,.09,0,.13-.1.13"/><path class="cls-2" d="M47.23,27.14l-1.1,0c-.55,0-1.09,0-1.62,0,0,.39,0,.78,0,1.17A3.4,3.4,0,0,1,44.86,30c0,1.76-.72,3.33-2.22,3.88-.32-.27-.67-.52-1-.8a2.77,2.77,0,0,0,2-1.82,1.4,1.4,0,0,1-.75.17c-.77,0-1.22-1-1.22-1.77,0-1,.51-2,1.46-2a1.47,1.47,0,0,1,.36,0c0-.17,0-.34,0-.51-.61,0-1.22.08-1.83.13s-1.16.14-1.74.23c0-.4,0-.81,0-1.21,1.2-.06,2.39-.08,3.6-.16,0-.52,0-1-.06-1.56.26,0,.54.06.8.1a1.86,1.86,0,0,1,.34.06c.06,0,.14,0,.14.12a.3.3,0,0,1-.12.22c0,.34,0,.68,0,1,.92,0,1.85-.08,2.77-.13Zm-4,1.5c-.41,0-.59.46-.59.9s.11.85.47.85.47-.59.47-.95,0-.8-.35-.8"/><path class="cls-2" d="M55.38,33.52c-.46-.57-1-1.16-1.48-1.8l-1.71-2.27-.57-.78c-.1-.12-.23-.35-.4-.35s-.48.43-.61.62-.36.55-.53.8c-.31.46-.58.94-.88,1.39v.06c0,.08,0,.15-.12.15l-1-.91a16.63,16.63,0,0,0,1.07-1.29c.34-.48.65-1,1-1.48A1.35,1.35,0,0,1,51.29,27a1.23,1.23,0,0,1,.89.53c.2.23.39.52.57.75.42.56.85,1.13,1.28,1.66.67.83,1.54,1.82,2.24,2.6Zm-1.5-5.87c-.22-.51-.47-1-.72-1.48l.68-.4a12.54,12.54,0,0,1,.7,1.48Zm1.14-.5a11.88,11.88,0,0,0-.72-1.48l.69-.39a15.27,15.27,0,0,1,.68,1.48Z"/><path class="cls-2" d="M64.59,26.82h-.12a3.4,3.4,0,0,0-1.29.22,3.64,3.64,0,0,0-2.06,3.35c0,2.19,1.75,2.44,3.22,2.44-.07.41-.14.84-.24,1.25h-.2a5.57,5.57,0,0,1-2-.38,3.07,3.07,0,0,1-1.88-3,5.83,5.83,0,0,1,1-3.29c-1.09.2-2.17.43-3.24.7-.06-.42-.14-.83-.19-1.24a53.58,53.58,0,0,0,5.58-1c.43-.12.85-.25,1.27-.41,0,.16.32,1.19.32,1.27s-.06.11-.12.11"/><path class="cls-2" d="M71.05,33.66c-.29-.3-.54-.63-.82-.92,1.43-.41,2.75-1,2.75-3a2.76,2.76,0,0,0-1.89-2.87c-.24,1.82-.72,4.73-2.14,5.8a1.36,1.36,0,0,1-.84.34,1.38,1.38,0,0,1-1-.61,3.82,3.82,0,0,1-.57-2.17,4.14,4.14,0,0,1,4-4.4,3.53,3.53,0,0,1,3.6,3.84,3.83,3.83,0,0,1-3.1,4M67.87,28.8a4.12,4.12,0,0,0-.25,1.44c0,.44.08,1.56.58,1.56.18,0,.34-.21.44-.34.85-1,1.21-3.18,1.3-4.56a3.23,3.23,0,0,0-2.07,1.9"/><path class="cls-2" d="M83.07,33.92a9.2,9.2,0,0,1-3.33-4.59,10.75,10.75,0,0,1-.49,1.38,6.76,6.76,0,0,1-2,2.57,4.4,4.4,0,0,1-.92.6l-.8-.88a5,5,0,0,0,1.07-.69,6.73,6.73,0,0,0,2.24-4.14,20.21,20.21,0,0,0,.14-3.3l1.25.14c.08,0,.18,0,.18.16a.21.21,0,0,1-.17.19c0,.43,0,.85,0,1.29A7.6,7.6,0,0,0,84,32.87Z"/><path class="cls-2" d="M87.28,33.68l-1,.12a12.93,12.93,0,0,1-.47-4,24.05,24.05,0,0,1,.47-4.47l.78.18a2.74,2.74,0,0,1,.39.09s.1.06.1.14a.14.14,0,0,1-.14.14,19.49,19.49,0,0,0-.53,4.64c0,.38,0,.75,0,1.13.16-.48.31-1,.49-1.44l.67.62a10,10,0,0,0-.8,2.83m5.55-.55a10.55,10.55,0,0,1-1.59.13c-1.37,0-2.65-.16-2.88-2.07.32-.24.63-.48,1-.7,0,1.09.61,1.56,1.5,1.56a8.23,8.23,0,0,0,2.09-.29c0,.45,0,.9-.08,1.37m-.52-5.53a6.83,6.83,0,0,0-2-.3,9.86,9.86,0,0,0-1.42.13c0-.38,0-.75,0-1.13a10.19,10.19,0,0,1,2-.17,7.53,7.53,0,0,1,1.64.22c-.06.41-.12.84-.19,1.25"/></svg>