<svg xmlns="http://www.w3.org/2000/svg" viewBox="0 0 123 123">
<defs><style>.cls-1{fill:#0076ba;}.cls-2{fill:#fff;}</style></defs>
<rect class="cls-1" width="123" height="123"/>
<path class="cls-2" d="M10.5,15.26A16.32,16.32,0,0,1,8.66,16c-.81.27-1.32.46-1.53.55V13.22a19.28,19.28,0,0,0,2.38-1.16,7.78,7.78,0,0,0,2-1.41H15V34H10.5Z"/><path class="cls-2" d="M24,28.47h-7V25L23,10.65h5V25.09h2.34v3.38H28V34H24Zm0-3.38V15.18l-3.55,9.91Z"/><path class="cls-2" d="M94.18,89.48c-1.55-2.09-11.55-14.84-25.57-14.84-12.18,0-25.21,11-25.21,11s-4.89-10-14.9-11l-.19,0h-.06a.41.41,0,0,0-.38.4,1.13,1.13,0,0,0,.16.36c1.29,2.15,4.58,8.24,4.58,14.33S29.3,102,28,104.13l-.09.13a.51.51,0,0,0-.06.21.4.4,0,0,0,.37.4h.21c10-.94,15-11,15-11s13,11,25.21,11c14,0,24-12.75,25.57-14.83l.1-.15a.37.37,0,0,0,0-.15.33.33,0,0,0,0-.15l-.1-.15M76.4,91.39a4.09,4.09,0,1,1,4.1-4.1,4.1,4.1,0,0,1-4.1,4.1"/><path class="cls-2" d="M42.48,63.21a.57.57,0,0,1,.11-.11.45.45,0,0,1,.22-.08.44.44,0,0,1,.28.11v0c7.65,7.29,15.67,1.38,17.34,0L60.6,63a.4.4,0,0,1,.15,0,.41.41,0,0,1,.16,0l.17.15c1.66,1.38,9.68,7.29,17.33,0v0a.41.41,0,0,1,.27-.11.42.42,0,0,1,.22.08.41.41,0,0,1,.12.11c1.48,1.46,7.88,7,14.65,1.08A.35.35,0,0,0,93.8,64v-2.8a.4.4,0,0,0-.4-.4l-.08,0-.21.1a12.32,12.32,0,0,1-14.39-2,1.29,1.29,0,0,1-.17-.16.37.37,0,0,0-.18,0,.27.27,0,0,0-.12,0,.37.37,0,0,0-.2.15c-1.75,1.33-9.76,6.76-16.9.1L61,58.88a.42.42,0,0,0-.29-.11.41.41,0,0,0-.28.11l-.11.11c-7.13,6.66-15.16,1.23-16.9-.1a.37.37,0,0,0-.2-.15.31.31,0,0,0-.13,0,.35.35,0,0,0-.17,0,1.29,1.29,0,0,1-.17.16,12.33,12.33,0,0,1-14.4,2l-.2-.1-.08,0a.4.4,0,0,0-.4.4V64a.38.38,0,0,0,.11.28c6.77,5.89,13.18.38,14.66-1.08"/><path class="cls-2" d="M28.19,50.67l-.08,0a.41.41,0,0,0-.4.41v2.79a.4.4,0,0,0,.11.29C34.59,60,41,54.51,42.49,53.06a.4.4,0,0,1,.1-.12.44.44,0,0,1,.22-.07.39.39,0,0,1,.28.11h0c7.64,7.3,15.66,1.39,17.33,0l.16-.15a.4.4,0,0,1,.15,0,.38.38,0,0,1,.16,0l.17.15c1.66,1.39,9.68,7.3,17.32,0h0a.39.39,0,0,1,.27-.11.41.41,0,0,1,.22.07.46.46,0,0,1,.12.12c1.48,1.45,7.88,7,14.65,1.08a.41.41,0,0,0,.12-.29V51.06a.4.4,0,0,0-.4-.41l-.08,0-.21.11a12.32,12.32,0,0,1-14.39-2l-.18-.17a.43.43,0,0,0-.17,0h-.12a.64.64,0,0,0-.2.16c-1.75,1.33-9.76,6.76-16.9.1l-.11-.1a.41.41,0,0,0-.29-.12.42.42,0,0,0-.28.12l-.11.1c-7.13,6.66-15.16,1.23-16.9-.1a.64.64,0,0,0-.2-.16h-.13a.51.51,0,0,0-.17,0l-.17.17a12.33,12.33,0,0,1-14.4,2l-.2-.11"/><path class="cls-2" d="M42.23,16.21a16.26,16.26,0,0,0-1.52-1l.61-1a8.32,8.32,0,0,1,1.45,1.21Zm-.35,4.6a.71.71,0,0,1,0,.21c0,.06,0,.13-.09.13s-1-.69-1.09-.76A15.79,15.79,0,0,0,42,16.88l.86.92a31.21,31.21,0,0,1-1,3m.79-7.14a10.05,10.05,0,0,0-1.42-1l.7-1.05a9.68,9.68,0,0,1,1.35,1.29Zm5.67,4c0,.53,0,1.05-.09,1.58h.65v.95H48a2.15,2.15,0,0,1-1,1.18l-.8-.61a1.74,1.74,0,0,0,.76-.57H43.46c.11-.83.17-1.68.26-2.53H43v-.92h.76l.14-1.88a4.47,4.47,0,0,1-.44.52l-.7-.58a8.72,8.72,0,0,0,1.67-3.54l1.14.46a.15.15,0,0,1,.1.13.19.19,0,0,1-.19.18c-.09.22-.2.42-.29.64h3.67v.95H44.79a6.46,6.46,0,0,1-.44.71h4c0,.8,0,1.61,0,2.41h.84v.92Zm-3.68,0-.14,1.6h.87l.1-1.6Zm.19-2.45-.12,1.53h.81l.08-1.53Zm1.58,2.45-.09,1.6h.88a9,9,0,0,0,.12-1.6Zm.94-2.45h-.8l-.09,1.53h.88c0-.2,0-.4,0-.62Z"/><path class="cls-2" d="M55.11,20.77c-.25-.31-.48-.65-.73-.95,1.29-.41,2.49-1,2.49-3a2.85,2.85,0,0,0-1.71-2.93c-.22,1.86-.66,4.82-1.95,5.92a1.19,1.19,0,0,1-.76.35,1.24,1.24,0,0,1-.88-.63,4.28,4.28,0,0,1-.52-2.21c0-2.64,1.66-4.5,3.61-4.5s3.27,1.41,3.27,3.92a3.83,3.83,0,0,1-2.82,4.07m-2.88-5A4.63,4.63,0,0,0,52,17.28c0,.44.07,1.59.53,1.59.17,0,.3-.21.4-.35.77-1,1.1-3.24,1.18-4.65a3.1,3.1,0,0,0-1.88,1.93"/><path class="cls-2" d="M59.81,21.11v-.84h2a6.38,6.38,0,0,0-.43-.71,4.92,4.92,0,0,1,.43-.26h-1V17.19h5.6V19.3h-1l.39.15a.16.16,0,0,1,.08.12c0,.11-.11.15-.18.15-.11.17-.2.38-.31.55h2.1v.84Zm0-5.12h7.52v.85H59.86Zm.72-.38V12.36h1.74v-.81l1,.08a.13.13,0,0,1,.14.13.19.19,0,0,1-.15.17v.43H64v-.81l.94.08a.13.13,0,0,1,.14.13.18.18,0,0,1-.14.17v.43h1.78v3.25Zm1.76-2.45h-.8v.52h.8Zm0,1.22h-.8v.53h.8Zm3.1,3.54H61.82v.63h3.62ZM62.5,19.3c.1.32.21.64.3,1h1.59l.28-1ZM64,13.16h-.76v.52H64Zm0,1.22h-.77v.53H64Zm1.71-1.22h-.81v.52h.81Zm0,1.22h-.81v.53h.81Z"/><path class="cls-2" d="M73.34,20.19a1.38,1.38,0,0,1-1,.31,2.16,2.16,0,0,1-.87-.19c0-.41,0-.81-.11-1.21a2,2,0,0,0,1,.31c.71,0,.7-2.37.7-2.95s0-1.2-.49-1.2a2.43,2.43,0,0,0-.53.08,21.43,21.43,0,0,1-1.88,5.2c-.35-.17-.68-.39-1-.57a14.56,14.56,0,0,0,1.78-4.44c-.4.08-.81.18-1.21.29,0-.13-.26-1.1-.26-1.14s0,0,0,0l.23,0a7.67,7.67,0,0,0,1.42-.18A19,19,0,0,0,71.44,12c.29.07.55.15.83.24a2.24,2.24,0,0,1,.34.11s.11,0,.11.11-.07.11-.12.13c-.1.6-.22,1.19-.37,1.77a4.75,4.75,0,0,1,.53,0,1.06,1.06,0,0,1,1.18.88,6.06,6.06,0,0,1,.17,1.59c0,.93-.14,2.79-.77,3.42m2.19-2c-.19-.31-.41-.59-.62-.88.26,0,.9-.2.9-.6a5.06,5.06,0,0,0-1.27-2.35l.93-.61a6,6,0,0,1,1.47,3.13c0,.83-.87,1.12-1.41,1.31"/><path class="cls-2" d="M82.52,14.48c.56,1.08,1.07,2.19,1.59,3.3l-.76.74a3.3,3.3,0,0,0-2.26-1.1c-.53,0-1.23.24-1.23,1,0,1.06,1.12,1.16,1.77,1.16a7.77,7.77,0,0,0,1.52-.16c0,.39-.05.77-.07,1.15a9.34,9.34,0,0,1-1.39.08c-1.24,0-2.87-.24-2.87-2.14,0-1.54,1.16-2,2.24-2a4.47,4.47,0,0,1,1.43.27c-.15-.37-.33-.72-.5-1.08s-.29-.59-.44-.88a11.51,11.51,0,0,1-2.67.68c-.11-.37-.25-.73-.37-1.09a7.75,7.75,0,0,0,2.5-.52,12.05,12.05,0,0,0-.86-1.49c-.05,0-.12,0-.12-.12a.12.12,0,0,1,.08-.11c.33-.16.67-.27,1-.39.34.54.61,1.12.91,1.7a10.49,10.49,0,0,0,1.65-1c.17.37.33.75.49,1.12a9.46,9.46,0,0,1-1.63.87"/><path class="cls-2" d="M93.37,16.42a.27.27,0,0,1-.14-.05c-.64.22-1.89.71-2.48,1V19H89.68c0-.15,0-.3,0-.48v-.59c-.72.34-1.08.77-1.08,1.25s.42.64,1.24.64a8,8,0,0,0,2.61-.42l0,1.23a7.43,7.43,0,0,1-2.25.3c-1.76,0-2.64-.55-2.64-1.68a2.09,2.09,0,0,1,.73-1.51,6.61,6.61,0,0,1,1.37-.9q0-.72-.42-.72a1.32,1.32,0,0,0-.93.4,9.78,9.78,0,0,0-.69.71c-.34.37-.54.63-.67.75l-.74-.86a7.58,7.58,0,0,0,2.26-2.85c-.47.06-1,.11-1.58.14,0-.4-.09-.77-.14-1.09a16.11,16.11,0,0,0,2.06-.11,9.72,9.72,0,0,0,.3-1.45L90.3,12a.12.12,0,0,1,.1.12c0,.06,0,.12-.14.16s-.13.45-.24.81a16.21,16.21,0,0,0,1.68-.39l-.1,1.15c-.5.11-1.16.21-2,.33a5.69,5.69,0,0,1-.56,1.05,2,2,0,0,1,.52-.07c.55,0,.9.37,1.07,1.12.72-.38,1.53-.77,2.42-1.17l.42,1.18c0,.09,0,.13-.11.13"/><path class="cls-2" d="M47.09,30v2c0,1.64-.46,2.24-1.85,2.46l-.63-.88c1-.15,1.43-.29,1.43-1.6,0-.67,0-1.33,0-2H41.36V29H46V27.51l1.07.07c.07,0,.16,0,.16.13a.21.21,0,0,1-.16.18V29H49.4v1ZM48,28.38V27H42.73v1.35h-1V26h3V24.77l1.11.08A.13.13,0,0,1,46,25c0,.08-.08.14-.15.17V26H49v2.34ZM44.2,32.94a16,16,0,0,0-1.76-1.83c.26-.27.5-.57.76-.84a23.91,23.91,0,0,1,1.69,1.92Z"/><path class="cls-2" d="M53.91,34.35a5.18,5.18,0,0,0-.49-.86.26.26,0,0,1,0-.1s0,0,.06,0a7.45,7.45,0,0,0,1.33-.17,2,2,0,0,0,1.79-2,1.31,1.31,0,0,0-1.48-1.45,3.06,3.06,0,0,0-2.35,1.48,16.52,16.52,0,0,0-1,1.47l-.91-.84a32.66,32.66,0,0,0,2.57-3.54,9.44,9.44,0,0,0,.77-1.39c-.24.05-.47.12-.7.19-.43.11-.86.24-1.29.34q-.09-.62-.21-1.23a21.59,21.59,0,0,0,3-.52,3.35,3.35,0,0,0,.61-.2,6.3,6.3,0,0,1,.57.9c0,.1-.11.13-.17.14a18.19,18.19,0,0,0-1.83,2.42,4.13,4.13,0,0,1,1.16-.18,2.32,2.32,0,0,1,2.46,2.55c0,2.24-2.27,3-3.81,3.05"/><path class="cls-2" d="M62.05,34.61c-.33-.3-.67-.62-1-.89a4.34,4.34,0,0,0,2.59-1.83A3.27,3.27,0,0,0,64,30.34c0-.93-.3-1.46-1.14-1.46A7.41,7.41,0,0,0,60.29,30c-.07-.16-.5-1.24-.5-1.34s.09-.06.13-.06A6.13,6.13,0,0,0,61,28.3a6.2,6.2,0,0,1,2.1-.54c1.44,0,2.06,1.14,2.06,2.7a4.49,4.49,0,0,1-3.14,4.15M63.62,27a13,13,0,0,0-2.54-.95l.5-1.13a9.76,9.76,0,0,1,2.61.95c-.18.38-.36.76-.57,1.13"/></svg>