<svg xmlns="http://www.w3.org/2000/svg" viewBox="0 0 123 123">
<defs><style>.cls-1{fill:#00963b;}.cls-2{fill:#fff;}</style></defs>
<rect class="cls-1" width="123" height="123"/>
<path class="cls-2" d="M11.22,32.7a8.23,8.23,0,0,1-1.47-5.24v-.81H14.2v.78A6.2,6.2,0,0,0,14.64,30a1.51,1.51,0,0,0,1.48.78A1.41,1.41,0,0,0,17.55,30a6.78,6.78,0,0,0,.36-2.59,5.53,5.53,0,0,0-.55-2.8,2.22,2.22,0,0,0-2-.94,5.05,5.05,0,0,0-.81,0V20.37h.73a2.38,2.38,0,0,0,2.08-.81,4.67,4.67,0,0,0,.58-2.67,4.61,4.61,0,0,0-.42-2.23A1.58,1.58,0,0,0,16,13.94a1.4,1.4,0,0,0-1.39.78A5.84,5.84,0,0,0,14.2,17v1H9.75V16.81a6.52,6.52,0,0,1,1.63-4.75A6.15,6.15,0,0,1,16,10.38,6.41,6.41,0,0,1,20.69,12a6.25,6.25,0,0,1,1.65,4.66,6.43,6.43,0,0,1-.84,3.41,3.6,3.6,0,0,1-2.14,1.72c2,.73,3,2.58,3,5.53a8.42,8.42,0,0,1-1.5,5.31,5.69,5.69,0,0,1-4.78,1.93q-3.36,0-4.84-1.86"/><path class="cls-2" d="M103,76.94c0-3.48-2.23-6.29-5.61-6.29-1.69,0-3.73,1.85-4.83,3-1.11-1.14-3-3-4.7-3-3.38,0-5.75,2.82-5.75,6.3a6.39,6.39,0,0,0,1.79,4.45l8.67,8.68,8.64-8.67h0A6.37,6.37,0,0,0,103,76.94"/><path class="cls-2" d="M66.12,104.24H66a1.43,1.43,0,0,1-1.32-1.18l-4.4-25.62L53.66,89.79A1.42,1.42,0,0,1,51,89.31L48.17,69.54,43,81.17a1.42,1.42,0,0,1-1.3.84H21.57a1.43,1.43,0,0,1,0-2.85h19.2l6.81-15.29A1.42,1.42,0,0,1,49.07,63a1.43,1.43,0,0,1,1.22,1.21L53.2,84.64l6.58-12.19a1.42,1.42,0,0,1,2.65.44L66.5,96.62,81.35,47.29a1.43,1.43,0,0,1,2.65-.2l7.81,16.19a1.42,1.42,0,1,1-2.56,1.24L83,51.61,67.49,103.22a1.43,1.43,0,0,1-1.37,1"/><path class="cls-2" d="M79.58,20.84l-1,.12a14,14,0,0,1-.46-4.09,27.39,27.39,0,0,1,.46-4.61l.78.19a2.74,2.74,0,0,1,.39.09s.1.06.1.14a.14.14,0,0,1-.15.14,22,22,0,0,0-.52,4.79c0,.39,0,.77,0,1.16l.48-1.48.68.63a10.27,10.27,0,0,0-.8,2.92m5.7-.2a7,7,0,0,1-1.64.09c-1.28,0-2.48-.25-2.63-2.22.3-.23.6-.47.91-.69,0,1.12.52,1.62,1.36,1.65a5.78,5.78,0,0,0,2-.24c0,.47,0,.93,0,1.41m-.23-6A7.25,7.25,0,0,0,83,14.48a8.76,8.76,0,0,0-1.43.26c0-.39-.06-.87-.11-1.26a10.73,10.73,0,0,1,2-.25,7.35,7.35,0,0,1,1.69.09c0,.43-.05.86-.1,1.29"/><path class="cls-2" d="M39.08,14.54,38,14.48c-.55,0-1.1,0-1.64,0,0,.41,0,.79,0,1.19a3.65,3.65,0,0,1,.34,1.73c0,1.84-.73,3.47-2.25,4-.33-.28-.68-.53-1-.83a2.81,2.81,0,0,0,2-1.89,1.36,1.36,0,0,1-.76.18c-.78,0-1.24-1-1.24-1.85,0-1.05.52-2.09,1.48-2.09a1.55,1.55,0,0,1,.37,0c0-.17,0-.35,0-.53-.62,0-1.24,0-1.85.08s-1.18.12-1.77.2c0-.42,0-.84,0-1.26,1.21,0,2.42,0,3.63-.07,0-.54,0-1.07-.05-1.62a7.5,7.5,0,0,1,.81.11c.11,0,.24,0,.34,0s.14,0,.14.13a.32.32,0,0,1-.12.23c0,.36,0,.73,0,1.08.93,0,1.87,0,2.81-.05ZM35,16c-.42,0-.61.48-.61.93s.11.89.49.89.47-.61.47-1,0-.84-.35-.84"/><path class="cls-2" d="M47.62,21.06c-.46-.62-1-1.26-1.48-2l-1.72-2.47c-.19-.28-.38-.58-.57-.85s-.22-.39-.39-.39-.48.47-.62.67-.36.6-.54.88c-.3.51-.57,1-.87,1.52v.06c0,.09,0,.17-.12.17l-1-1.11a14.78,14.78,0,0,0,1.07-1.4c.35-.52.65-1.1,1-1.62s.61-.75,1.13-.75.63.26.9.58.39.56.57.82c.42.61.85,1.23,1.28,1.81.67.9,1.54,2,2.25,2.84ZM46.3,14.62c-.29-.52-.61-1-.94-1.49L46,12.6a12.28,12.28,0,0,1,.9,1.49Zm1.06-.71a15.56,15.56,0,0,0-.93-1.5l.63-.52a16,16,0,0,1,.89,1.5Z"/><path class="cls-2" d="M56.69,14a10.72,10.72,0,0,0-1.33.36,2.84,2.84,0,0,0-1.84,2.94c0,2.2,1.38,2.41,2.74,2.43-.06.41-.12.84-.21,1.25h-.19a4.26,4.26,0,0,1-1.77-.42,3.29,3.29,0,0,1-1.73-3.14,5,5,0,0,1,1.07-3.14c-1,.06-2.13.17-3.12.31,0-.54,0-.87-.07-1.29a40.43,40.43,0,0,0,5.17-.32l1.32-.18c.05.16.14,1,.16,1.09s-.11.09-.2.11"/><path class="cls-2" d="M63.28,20.92c-.27-.32-.52-.66-.79-1,1.39-.41,2.68-1,2.68-3.11a2.91,2.91,0,0,0-1.84-3c-.24,1.9-.71,4.94-2.1,6.06a1.26,1.26,0,0,1-.82.35,1.31,1.31,0,0,1-.94-.64,4.07,4.07,0,0,1-.57-2.26c0-2.69,1.79-4.6,3.89-4.6,1.95,0,3.53,1.44,3.53,4a4,4,0,0,1-3,4.16m-3.11-5.07a4.46,4.46,0,0,0-.25,1.5c0,.45.08,1.62.58,1.62.18,0,.33-.21.43-.35.83-1.06,1.19-3.32,1.27-4.76a3.29,3.29,0,0,0-2,2"/><path class="cls-2" d="M75.25,21.35a9.45,9.45,0,0,1-3.33-4.75A13.37,13.37,0,0,1,71.43,18a7.18,7.18,0,0,1-2,2.66,5,5,0,0,1-.93.62l-.79-.91a5.52,5.52,0,0,0,1.07-.71,7.11,7.11,0,0,0,2.23-4.29A20.44,20.44,0,0,0,71.19,12l1.26.14a.18.18,0,0,1,.17.17.2.2,0,0,1-.16.19c0,.45,0,.89,0,1.33A8.4,8.4,0,0,0,73.84,18a7.62,7.62,0,0,0,2.35,2.22Z"/><path class="cls-2" d="M39.74,34.88l-1.24,0a4.51,4.51,0,0,1-3.69-1.31,6.06,6.06,0,0,1-1,1.33l-.6-.51V35h-1V29.89a7.33,7.33,0,0,1-.39.67l-.59-.9A13.16,13.16,0,0,0,32.81,25l1.1.49s.07.06.07.11a.15.15,0,0,1-.1.14h1.95v.88L34.6,28.87h1.33a12,12,0,0,1-.63,3.82c.74,1.12,2.2,1.22,3.31,1.22.48,0,1,0,1.43-.06Zm-6.36-5.2v-.37l1.3-2.65h-.85v-.75a18.38,18.38,0,0,1-.61,1.95v6.27a3.87,3.87,0,0,0,1-1.34,14,14,0,0,1-.74-2.57l.85-.45a10.63,10.63,0,0,0,.36,1.8A17.09,17.09,0,0,0,35,29.68Zm6.09-1.26v1.5H37.91v.57h1.71v.82H37.91v.53h1.83v.85H37.92v.93h-1v-.95H35.82v-.81h1.11v-.55H36v-.8h.94v-.59h-.88v-.77h.88v-.73H35.55v-.86h1.38v-.69h-1.3V26H36.9v-.93l1.05.1a.15.15,0,0,1,.15.16c0,.09-.1.15-.16.19V26h1.52v1.57H40v.86Zm-1-1.55h-.6v.71h.6Zm0,1.55h-.6v.73h.6Z"/><path class="cls-2" d="M49.43,34.7a6.55,6.55,0,0,1-2.83-2.16v.75c0,1.15-.29,1.57-1.21,1.82l-.71-.79c.69-.19.94-.33.94-1.25V30.92H44.2c.34.31.67.61,1,.94l-.6.63c-.37-.26-.74-.52-1.11-.76l.58-.81h-.13v-.8h1.69V29.6H43.27c0,.39,0,.78,0,1.17a9.17,9.17,0,0,1-1.1,4.07c-.27-.21-.53-.43-.8-.63.84-1.3.92-3.33.92-4.92,0-1.17,0-2.35-.06-3.53h3.12V24.71c.35,0,.79,0,1.13.06.06,0,.15,0,.15.14s-.1.16-.16.18v.67h3.15v.95H43.28c0,.66,0,1.32,0,2H45.6v-.46H43.92v-.84h1.66v-.57l1,.05c.07,0,.16,0,.16.14a.2.2,0,0,1-.12.17v.21h2v1.28h1.13v1H48.6v1l.09-.06.68.94a.37.37,0,0,1,0,.15.12.12,0,0,1-.12.13.39.39,0,0,1-.2-.08l-1.51.51a5,5,0,0,0,2.5,1.59Zm-4.06-1.46c-.56.32-1.13.57-1.71.83,0,.08-.06.22-.15.22s-.08,0-.11-.09l-.53-.94c.86-.32,1.72-.65,2.56-1.06Zm2.22-5h-1v.5h1Zm0,1.39h-1v.54h1Zm-1,1.33v.86a17.18,17.18,0,0,0,1.57-.86Z"/><path class="cls-2" d="M55.44,34.8c-1.27,0-3.29-.2-3.29-2.27a3.15,3.15,0,0,1,2.06-2.8,17.45,17.45,0,0,1-.35-3.83l.8.06.4.05s.1,0,.1.09a.23.23,0,0,1-.06.12,6.7,6.7,0,0,0-.05,1,7.07,7.07,0,0,0,.16,1.94.13.13,0,0,0,.08,0,9.57,9.57,0,0,0,2.24-1c.13.46.22.95.32,1.43-1.1.27-4.62,1-4.62,2.75,0,1,1.31,1.2,1.92,1.2A8.17,8.17,0,0,0,58,33.23c0,.46.06.92.08,1.39a14.76,14.76,0,0,1-2.65.18"/><path class="cls-2" d="M63.63,35V31.1L63.2,32c-.18-.21-.34-.43-.52-.65v3.81h-1V31.18a4.58,4.58,0,0,1-.79.85l-.62-.77a6.53,6.53,0,0,0,2.1-3.2H60.67v-.92h1V25.32l1,.08a.14.14,0,0,1,.14.13.21.21,0,0,1-.14.17v1.44h.91a8,8,0,0,1-1,2.76,4.5,4.5,0,0,0,1,1.1v-.6h5.11V35Zm0-9.18h5.25v1H63.64Zm.46,1.5h4.17V29.9H64.1Zm1.58,3.93H64.61v1h1.07Zm0,1.8H64.61v1.15h1.07Zm1.59-4.89H65v1h2.23Zm.46,3.09h-1.1v1h1.1Zm0,1.8h-1.1v1.15h1.1Z"/><path class="cls-2" d="M72.72,30.07v.05a8.29,8.29,0,0,0,1.21,1.23l-.55.86a8.53,8.53,0,0,1-.65-.69v3.66h-1V31.29a5,5,0,0,1-.82.84l-.66-.82A8.53,8.53,0,0,0,72.62,28h-2v-.94h1.15v-1.8l1.11.1a.16.16,0,0,1,.13.15c0,.08-.08.14-.15.16v1.39H74a8.11,8.11,0,0,1-1.27,3m.56,4.78v-1h.92V27.73l1,.13a.16.16,0,0,1,.14.16c0,.1-.1.15-.17.18v5.7H76V25.44l1,.12c.07,0,.17.05.17.15s-.11.15-.17.2v3h1.64V30H77.06v3.9h1.81v1Z"/><path class="cls-2" d="M88,30.42a.24.24,0,0,1-.13-.05c-.66.22-1.91.71-2.51,1V33H84.3c0-.14,0-.3,0-.48V31.9c-.72.33-1.09.77-1.09,1.25s.42.64,1.24.64a7.9,7.9,0,0,0,2.63-.42l0,1.24a7.49,7.49,0,0,1-2.26.3c-1.77,0-2.66-.55-2.66-1.69a2.1,2.1,0,0,1,.74-1.51,6.59,6.59,0,0,1,1.37-.91c0-.48-.16-.72-.42-.72a1.34,1.34,0,0,0-.93.4c-.18.17-.41.39-.7.72l-.66.75-.75-.87a7.54,7.54,0,0,0,2.27-2.86c-.48.07-1,.11-1.59.14,0-.4-.09-.77-.14-1.09a16.29,16.29,0,0,0,2.07-.11,8.74,8.74,0,0,0,.3-1.46l1.22.28c.08,0,.11.06.11.12s0,.12-.14.16-.13.46-.25.81a13.63,13.63,0,0,0,1.69-.39l-.1,1.16c-.49.11-1.16.22-2,.33a7.31,7.31,0,0,1-.56,1.06,1.59,1.59,0,0,1,.51-.08c.55,0,.91.37,1.08,1.13.72-.38,1.54-.77,2.43-1.17l.42,1.18c0,.09,0,.13-.11.13"/></svg>