<svg id="レイヤー_1" data-name="レイヤー 1" xmlns="http://www.w3.org/2000/svg" viewBox="0 0 150 150"><defs><style>.cls-1{fill:none;}.cls-2{fill:#58b231;}.cls-3{fill:#d7a600;}.cls-4{fill:#c60f28;}.cls-5{fill:#00973b;}.cls-6{fill:#427935;}.cls-7{fill:#fabd00;}.cls-8{fill:#e83819;}.cls-9{fill:#f5a200;}.cls-10{fill:#0075ba;}.cls-11{fill:#970b31;}.cls-12{fill:#00a6d9;}.cls-13{fill:#ed6a02;}.cls-14{fill:#e5001e;}.cls-15{fill:#dc007a;}.cls-16{fill:#003067;}.cls-17{fill:#d39200;}.cls-18{fill:#004c88;}</style></defs><rect class="cls-1" width="150" height="150"/><path class="cls-2" d="M52.76,62.24a26.138,26.138,0,0,1,4.118-5.3L43.371,42.128a46.243,46.243,0,0,0-8.577,11.163Z"/><path class="cls-3" d="M85.874,51.776a25.812,25.812,0,0,1,5.665,3.549l13.545-14.79a46.122,46.122,0,0,0-12.005-7.49Z"/><path class="cls-4" d="M116.9,56.23,98.942,65.18a25.649,25.649,0,0,1,1.8,6.343l19.973-1.886A45.537,45.537,0,0,0,116.9,56.23"/><path class="cls-5" d="M97.654,62.585l17.952-8.949a46.165,46.165,0,0,0-8.39-11.138L93.671,57.285a26.037,26.037,0,0,1,3.983,5.3"/><path class="cls-6" d="M49.192,75.343c0-.4.012-.808.031-1.209L29.247,72.346c-.063.99-.1,1.989-.1,3a46.02,46.02,0,0,0,1.359,11.111L49.8,80.919a25.938,25.938,0,0,1-.606-5.576"/><path class="cls-7" d="M95.14,91.762a26.239,26.239,0,0,1-4.873,4.583l10.549,17.077a46.361,46.361,0,0,0,10.328-9.592Z"/><path class="cls-8" d="M101.019,75.343a25.617,25.617,0,0,1-.594,5.512L119.716,86.4a45.855,45.855,0,0,0,1.348-11.055c0-.947-.031-1.885-.089-2.821L101,74.409c.011.312.018.622.018.934"/><path class="cls-9" d="M55.393,92.144,39.427,104.279a46.32,46.32,0,0,0,10.428,9.446L60.4,96.666a26.21,26.21,0,0,1-5.006-4.522"/><path class="cls-10" d="M49.515,71.252a25.535,25.535,0,0,1,1.914-6.435L33.482,55.875a45.638,45.638,0,0,0-3.961,13.584Z"/><path class="cls-11" d="M98.361,114.967,87.829,97.912a25.8,25.8,0,0,1-6.146,2.5L85.4,120.138a45.618,45.618,0,0,0,12.961-5.171"/><path class="cls-12" d="M99.657,83.648a25.943,25.943,0,0,1-2.8,5.773L112.87,101.5a45.7,45.7,0,0,0,6.062-12.316Z"/><path class="cls-13" d="M78.843,100.986a25.684,25.684,0,0,1-6.755.093l-3.715,19.729a46.107,46.107,0,0,0,14.182-.112Z"/><path class="cls-14" d="M76.761,49.481a25.694,25.694,0,0,1,6.413,1.238l7.2-18.725a45.63,45.63,0,0,0-13.618-2.578Z"/><path class="cls-15" d="M69.233,100.586a25.769,25.769,0,0,1-6.362-2.406L52.32,115.247a45.747,45.747,0,0,0,13.2,5.046Z"/><path class="cls-16" d="M67.317,50.626a25.7,25.7,0,0,1,6.546-1.164V29.4a45.711,45.711,0,0,0-13.8,2.514Z"/><path class="cls-17" d="M53.637,89.838a25.721,25.721,0,0,1-3.056-6.128L31.3,89.243a45.8,45.8,0,0,0,6.368,12.731Z"/><path class="cls-18" d="M59.049,55.017a25.911,25.911,0,0,1,5.558-3.362l-7.25-18.7a45.928,45.928,0,0,0-11.825,7.242Z"/></svg>