<svg xmlns="http://www.w3.org/2000/svg" viewBox="0 0 123 123">
<defs><style>.cls-1{fill:#f9bc00;}.cls-2{fill:#fff;}</style></defs>
<rect class="cls-1" width="123" height="123"/>
<polygon class="cls-2" points="16.46 14.12 10.09 14.12 10.09 10.7 20.84 10.7 20.84 13.62 15.88 34.15 11.54 34.15 16.46 14.12"/><path class="cls-2" d="M61.55,59.92A18.12,18.12,0,1,0,79.65,78a18.11,18.11,0,0,0-18.1-18.11M60.2,67.08a1.35,1.35,0,0,1,2.69,0V73.3a1.35,1.35,0,0,1-2.69,0Zm1.35,20.23a9.42,9.42,0,0,1-2.8-18.41v3.51a6.16,6.16,0,1,0,5.58,0V68.89a9.42,9.42,0,0,1-2.78,18.42"/><path class="cls-2" d="M40.76,77.88a1.51,1.51,0,0,0-1.39-1.49H31.44a1.49,1.49,0,0,0,0,3h7.93a1.52,1.52,0,0,0,1.39-1.49"/><path class="cls-2" d="M93.07,77.88a1.51,1.51,0,0,0-1.39-1.49H83.74a1.49,1.49,0,0,0,0,3h7.94a1.52,1.52,0,0,0,1.39-1.49"/><path class="cls-2" d="M61.55,109.4A1.52,1.52,0,0,0,63,108v-7.93a1.49,1.49,0,0,0-3,0V108a1.52,1.52,0,0,0,1.49,1.4"/><path class="cls-2" d="M88.91,93.53a1.53,1.53,0,0,0-.47-2l-6.89-3.94a1.49,1.49,0,0,0-1.48,2.59L87,94.14a1.52,1.52,0,0,0,2-.61"/><path class="cls-2" d="M45.9,105.23a1.51,1.51,0,0,0,2-.47l3.94-6.88a1.49,1.49,0,0,0-2.59-1.48l-3.94,6.89a1.5,1.5,0,0,0,.61,1.94"/><path class="cls-2" d="M77.26,105.2a1.52,1.52,0,0,0,.6-2l-4-6.87a1.49,1.49,0,0,0-2.59,1.48l4,6.88a1.52,1.52,0,0,0,2,.46"/><path class="cls-2" d="M34.23,93.59a1.52,1.52,0,0,0,2,.6l6.87-4a1.49,1.49,0,0,0-1.48-2.58l-6.88,4a1.52,1.52,0,0,0-.46,2"/><path class="cls-2" d="M61.55,57.09A1.52,1.52,0,0,0,63,55.7V47.76a1.49,1.49,0,0,0-3,0V55.7a1.52,1.52,0,0,0,1.49,1.39"/><path class="cls-2" d="M43.5,67.55a1.51,1.51,0,0,0-.47-2l-6.88-3.94a1.49,1.49,0,0,0-1.48,2.58l6.89,3.94a1.51,1.51,0,0,0,1.94-.6"/><path class="cls-2" d="M71.88,59.83a1.52,1.52,0,0,0,2-.46l3.94-6.89a1.51,1.51,0,0,0-.59-1.95,1.53,1.53,0,0,0-2,.47l-3.93,6.88a1.52,1.52,0,0,0,.6,1.95"/><path class="cls-2" d="M51.19,59.85a1.52,1.52,0,0,0,.59-2l-4-6.87a1.49,1.49,0,0,0-2.58,1.48l4,6.88a1.53,1.53,0,0,0,2,.46"/><path class="cls-2" d="M79.58,67.52a1.51,1.51,0,0,0,1.94.59l6.88-4a1.49,1.49,0,0,0-1.49-2.58l-6.87,4a1.52,1.52,0,0,0-.46,2"/><polygon class="cls-2" points="30.42 20.15 30.42 18.93 33.07 18.93 33.07 14.32 30.86 14.32 30.86 13.1 36.39 13.1 36.39 14.32 34.18 14.32 34.18 18.93 36.87 18.93 36.87 20.15 30.42 20.15"/><path class="cls-2" d="M41.93,16.59v1.28c0,1,0,1.94,0,2.9h-1c0-1.06,0-2.11,0-3.16a7.61,7.61,0,0,1-2.1,1.45A9.53,9.53,0,0,0,38,18a6.72,6.72,0,0,0,3.82-3.57c-1,0-1.91.12-2.86.18l-.06-1.36c1.23,0,2.46,0,3.69-.07a2,2,0,0,0,.54-.08l.31.61a22.84,22.84,0,0,1-1.54,2.9m-.37-3.7a10.1,10.1,0,0,0-1.65-1.25l.54-1a9.89,9.89,0,0,1,1.77,1.28c-.21.35-.43.69-.66,1m2.49,6.05a10.79,10.79,0,0,0-1.76-2.06L42.9,16a8.06,8.06,0,0,1,1.87,1.94Z"/><path class="cls-2" d="M48,13.16c0,2.44.22,4.7-1,6.73a4.18,4.18,0,0,1-.8,1l-.87-.79c1.31-1.15,1.57-2.62,1.57-4.69,0-.88,0-1.8,0-2.68l1.1.14a.11.11,0,0,1,.09.12.28.28,0,0,1-.09.18m3.07,6.56a12.91,12.91,0,0,1-1.38.89A6.36,6.36,0,0,1,49,20a2.26,2.26,0,0,0,.09-.58V18c0-1.82,0-3.68-.06-5.51l1.16.19a.14.14,0,0,1,.09.15.26.26,0,0,1-.13.2c0,.5,0,1,0,1.51,0,1.43,0,2.9,0,4.33a7.51,7.51,0,0,0,1.91-1.76c.18-.21.33-.46.5-.7,0,0,0-.06.06-.06s0,.12,0,.15c0,.49.09,1,.16,1.45a9.38,9.38,0,0,1-1.74,1.81"/><path class="cls-2" d="M58.07,17.87c0,1.07.1,2.13.17,3.2-.36,0-.71.05-1.07.1,0-1.08-.09-2.15-.12-3.24-.94,0-1.87.07-2.8.13,0-.4,0-.8,0-1.2l.64,0c.71,0,1.41-.05,2.12-.07,0-.62-.05-1.24-.09-1.86-.64,0-1.27,0-1.91.07,0-.4,0-.81-.06-1.22.63,0,1.26,0,1.89,0,0-.67-.08-1.33-.14-2l1.14.14a.17.17,0,0,1,.14.17.25.25,0,0,1-.14.21l0,1.46a19,19,0,0,0,2-.15c0,.42,0,.84,0,1.25-.64,0-1.29,0-1.93,0,0,.61.05,1.23.08,1.85.89,0,1.79-.1,2.68-.19,0,.42,0,.83,0,1.23-.86,0-1.73,0-2.6.09m1.23-4.7c-.15-.64-.35-1.26-.55-1.87l.78-.33a17.31,17.31,0,0,1,.5,1.78Zm1.29-.28c-.16-.66-.33-1.31-.54-1.92l.76-.3a13.43,13.43,0,0,1,.51,1.78Z"/><path class="cls-2" d="M68.64,17.24c-.51,0-.9,0-1.31,0s-3.71,0-4.84,0c0-.43,0-1-.05-1.31,0-.16.06-.17.12-.16a4.33,4.33,0,0,0,.51.07c.54,0,1.12,0,1.74,0,1.29,0,2.44,0,3.88-.06,0,.44,0,1,0,1.42"/><path class="cls-2" d="M76.56,16.39a.16.16,0,0,1-.11-.05c-.56.22-1.62.73-2.13,1V19h-.9c0-.16,0-.32,0-.5v-.61a1.51,1.51,0,0,0-.92,1.29c0,.43.35.66,1,.66a5.81,5.81,0,0,0,2.23-.43l0,1.27a5.25,5.25,0,0,1-1.92.31c-1.5,0-2.25-.57-2.25-1.74a2.37,2.37,0,0,1,.63-1.56,5.5,5.5,0,0,1,1.16-.93c0-.49-.13-.74-.35-.74a1,1,0,0,0-.79.41,9.2,9.2,0,0,0-.6.74c-.28.38-.45.64-.56.77l-.64-.89a7.73,7.73,0,0,0,1.93-2.94,12.57,12.57,0,0,1-1.34.14c0-.41-.08-.79-.13-1.13A10.6,10.6,0,0,0,72.65,13a11.61,11.61,0,0,0,.26-1.49l1,.28A.13.13,0,0,1,74,12a.18.18,0,0,1-.12.16q-.06.29-.21.84a11.85,11.85,0,0,0,1.44-.4l-.09,1.19c-.42.11-1,.22-1.69.34a7.05,7.05,0,0,1-.48,1.08,1.44,1.44,0,0,1,.44-.07c.47,0,.77.38.91,1.16.61-.39,1.31-.8,2.07-1.21l.35,1.22c0,.08,0,.13-.09.13"/><path class="cls-2" d="M84.36,19.28a13.59,13.59,0,0,0-1-1,6.12,6.12,0,0,1-1.69,2.76l-.8-.68a4.86,4.86,0,0,0,1.67-2.62A5.12,5.12,0,0,0,81,17.07c-.13.38-.25.77-.4,1.13-.36.91-.85,1.82-1.68,1.8-.68,0-1.14-.8-1.11-1.74A2.35,2.35,0,0,1,79.4,16a2.79,2.79,0,0,1,1-.08c.2-.76.49-1.84.69-2.65l-1.71.12-.12-1.19h.09A10.72,10.72,0,0,0,82.13,12c.09.2.2.39.3.58a15.86,15.86,0,0,0-.65,1.83c-.15.52-.28,1.05-.45,1.56a4.84,4.84,0,0,1,1.45.6,11.39,11.39,0,0,0,.32-2.28c.31.27.61.54.9.83a15.73,15.73,0,0,1-.33,2,10.11,10.11,0,0,1,1.17.87c-.16.42-.31.85-.48,1.27m-5.6-1.06c0,.29.08.54.3.55a.42.42,0,0,0,.34-.2,6.45,6.45,0,0,0,.7-1.67,1.33,1.33,0,0,0-1.34,1.32"/><path class="cls-2" d="M90.4,20.76c-1.1,0-1-1.29-1-2.3v-1c0-.29,0-.65-.29-.65a.78.78,0,0,0-.22,0c-1.23.41-1.7,2.53-2.08,3.87l-1-.59c.34-1,.72-2.06,1.1-3.08s.86-2.28,1.31-3.42c.24-.63.47-1.28.73-1.9a9.62,9.62,0,0,1,1,.59.11.11,0,0,1,.05.1.13.13,0,0,1-.13.14c-.55,1.07-1,2.19-1.54,3.29l-.15.29a2.14,2.14,0,0,1,1.09-.4c.8,0,1,.68,1,1.59V19c0,.27,0,.65.31.65a1.36,1.36,0,0,0,.92-.57,4.89,4.89,0,0,0,.72-1.29c.14.51.27,1,.38,1.5a2.5,2.5,0,0,1-2.28,1.51"/><path class="cls-2" d="M97.49,14.06a11.16,11.16,0,0,1-1.14.16,21,21,0,0,1-1.8,4.66c-.29-.17-.57-.38-.85-.58a19.28,19.28,0,0,0,1.68-4.08,11.46,11.46,0,0,1-1.31,0c0-.36,0-.73,0-1.1a3.11,3.11,0,0,0,.44.07,6.82,6.82,0,0,0,1.11.06,12.35,12.35,0,0,0,.25-1.66c.44,0,.83,0,1.14.06a11.85,11.85,0,0,1-.38,1.57,7.21,7.21,0,0,0,1-.23l-.15,1.1m2.36,6.43a8,8,0,0,0-1-1.19c0,.12,0,.24,0,.36A1.23,1.23,0,0,1,97.29,21a2.21,2.21,0,0,1-.78-.21,1.71,1.71,0,0,1-.91-1.59,1.46,1.46,0,0,1,1.58-1.51,3.87,3.87,0,0,1,.68.12c0-.51-.06-1,0-1.5a2.19,2.19,0,0,1,.14-.72l.74,0s.3,0,.29.1,0,0,0,0a1.4,1.4,0,0,0-.18.64c0,.57,0,1.15,0,1.72a6.3,6.3,0,0,1,1.7,1.41,10.47,10.47,0,0,1-.68,1m-2-1.7a1.27,1.27,0,0,0-.58-.17c-.32,0-.72.06-.75.56a.78.78,0,0,0,.75.78c.3,0,.53,0,.57-.5,0-.22,0-.44,0-.67m2.29-3.67a4.4,4.4,0,0,0-1.94-1l.46-1a4.38,4.38,0,0,1,2,1Z"/><path class="cls-2" d="M42.76,33.85a3.21,3.21,0,0,1-2,.72c-1.1,0-1.79-.86-1.85-2.36,0-.2,0-.4,0-.6,0-.57,0-1.14,0-1.72l.06-4.11.72.16A1.18,1.18,0,0,1,40,26c.06,0,.13.07.13.16a.21.21,0,0,1-.11.18c-.09,1.84-.16,3.7-.16,5.54,0,.94.31,1.52,1,1.52a1.92,1.92,0,0,0,1-.31,4.28,4.28,0,0,0,1.56-2.21L44,32.27a4.94,4.94,0,0,1-1.19,1.58"/><path class="cls-2" d="M50.47,27.32l-.09,0a2.43,2.43,0,0,0-1.05.18,3.81,3.81,0,0,0-1.78,3.29c-.08,2.19,1.33,2.5,2.51,2.55-.07.41-.15.83-.24,1.24h-.16a3.58,3.58,0,0,1-1.61-.45,3.91,3.91,0,0,1-1.55-3.42,5.72,5.72,0,0,1,1-3.19c-.89.07-1.78.18-2.66.33,0-.42,0-.84,0-1.25a35.38,35.38,0,0,0,4.58-.39,9.64,9.64,0,0,0,1.06-.26c0,.16.11,1.21.11,1.29a.1.1,0,0,1-.11.11"/><path class="cls-2" d="M58.36,28.14c-.12.42-.23.85-.37,1.26a10.75,10.75,0,0,1-2,3.7,7.52,7.52,0,0,1-2.2,1.76c-.28-.34-.56-.68-.86-1a7.65,7.65,0,0,0,1.29-.76,7.54,7.54,0,0,0,1.4-1.42,9.74,9.74,0,0,0,1.5-3.38l-1.84,0a11.34,11.34,0,0,1-1.77,2.6c-.24-.29-.49-.6-.76-.87a10.35,10.35,0,0,0,2.43-4.73l1,.49a.17.17,0,0,1,.1.16.15.15,0,0,1-.15.15c-.12.32-.22.65-.36.94h2a1.28,1.28,0,0,0,.43-.06c.09.2.2.38.3.58l-.19.55"/><path class="cls-2" d="M62,26.6v.45c0,1.41,0,2.84,0,4.25H60.85c0-.26,0-.53,0-.78V29c0-.93,0-1.86,0-2.78l1.18.13a.09.09,0,0,1,.09.1c0,.09-.08.15-.14.19m3.32,0c0,.64,0,1.27,0,1.92,0,1.85,0,3.65-1,5.15a3.71,3.71,0,0,1-1.1,1.13,9.11,9.11,0,0,0-.92-.72,4.61,4.61,0,0,0,1.05-1A6.77,6.77,0,0,0,64.18,29c0-1-.05-1.94-.1-2.9l1.18.14a.14.14,0,0,1,.14.14.29.29,0,0,1-.12.22"/><path class="cls-2" d="M73.36,30.77c-.5,0-.9,0-1.3,0s-3.6,0-4.72,0c0-.42,0-1-.06-1.27s.07-.17.12-.16a4.33,4.33,0,0,0,.51.07c.54,0,1.59,0,2.2,0,1.28,0,1.86,0,3.29-.05,0,.42,0,1,0,1.38"/><path class="cls-2" d="M77,33.61a6.1,6.1,0,0,1-1.36.61l-.53-1.41c0-.05,0-.05.06-.05a1,1,0,0,0,.33-.06,7,7,0,0,0,2.46-1.33,15,15,0,0,0,2.88-3L81,30a13.57,13.57,0,0,1-4,3.58M76.8,29a11.61,11.61,0,0,0-1.55-2.11c.31-.32.59-.66.89-1A10.55,10.55,0,0,1,77.63,28a8.38,8.38,0,0,1-.83,1"/><path class="cls-2" d="M84.54,34.39l-.9.12a15.49,15.49,0,0,1-.43-4.15,29.05,29.05,0,0,1,.43-4.66l.72.18c.1,0,.24.05.35.1a.15.15,0,0,1,0,.29,23.72,23.72,0,0,0-.48,4.84c0,.4,0,.78,0,1.18.15-.5.29-1,.44-1.5l.62.64a11.46,11.46,0,0,0-.73,3m5.24-.52a6.4,6.4,0,0,1-1.51.1c-1.17,0-2.27-.26-2.42-2.25.28-.24.56-.48.84-.7,0,1.13.48,1.64,1.25,1.67a4.73,4.73,0,0,0,1.86-.25c0,.48,0,1,0,1.43M89.48,28a5.86,5.86,0,0,0-1.91-.14,8.8,8.8,0,0,0-1.32.26c0-.39-.06-.88-.1-1.27A9,9,0,0,1,88,26.58a6.21,6.21,0,0,1,1.55.08c0,.44,0,.88-.09,1.32"/><path class="cls-2" d="M103.58,20.65l-.88.12a15.83,15.83,0,0,1-.42-4.14A30.22,30.22,0,0,1,102.7,12l.7.19a1.46,1.46,0,0,1,.34.1.13.13,0,0,1,.09.14.14.14,0,0,1-.13.14,24.33,24.33,0,0,0-.46,4.83c0,.39,0,.78,0,1.17.15-.49.29-1,.44-1.49l.6.64a11.27,11.27,0,0,0-.71,2.95m5.18-.64a5.52,5.52,0,0,1-1.46.09c-1.15,0-2.22-.25-2.36-2.24.27-.23.54-.48.82-.7,0,1.13.47,1.64,1.21,1.67a4.49,4.49,0,0,0,1.81-.25c0,.47,0,1,0,1.43m-.29-5.88a5.55,5.55,0,0,0-1.86-.13,7.06,7.06,0,0,0-1.28.25c0-.39-.06-.88-.1-1.27a8.58,8.58,0,0,1,1.82-.25,5.93,5.93,0,0,1,1.51.09c0,.43,0,.87-.09,1.31"/><path class="cls-2" d="M34.1,30.09a2.5,2.5,0,0,0-.68,2.2c.17,1,1.28,1.1,1.86,1.09l.58,0c-.09.38-.18.76-.26,1.14h-.17c-1.14,0-2.77-.16-3-2a3.67,3.67,0,0,1,.62-2.63,15.4,15.4,0,0,0-2.81.77c-.06-.39-.15-.77-.23-1.14A6.63,6.63,0,0,0,31.54,29a10.68,10.68,0,0,0,1.91-2.16,12,12,0,0,1-1.69.08c0-.35,0-.71,0-1.06a9.9,9.9,0,0,0,2.55-.07,3,3,0,0,0,.64-.26c.17.31.34.64.49,1A21.22,21.22,0,0,0,33,28.94c1.19-.19,2.39-.34,3.58-.45,0,.41,0,.82,0,1.23a3.92,3.92,0,0,0-2.47.37"/></svg>