<svg xmlns="http://www.w3.org/2000/svg" viewBox="0 0 123 123">
<defs><style>.cls-1{fill:#003067;}.cls-2{fill:#fff;}</style></defs>
<rect class="cls-1" width="123" height="123"/>
<path class="cls-2" d="M10.72,15.33a16.85,16.85,0,0,1-1.85.72c-.82.28-1.33.46-1.54.55V13.28a20.87,20.87,0,0,0,2.39-1.16,7.92,7.92,0,0,0,2-1.42h3.51V34.15H10.72Z"/><polygon class="cls-2" points="24.24 14.11 17.87 14.11 17.87 10.7 28.61 10.7 28.61 13.62 23.66 34.15 19.32 34.15 24.24 14.11"/><path class="cls-2" d="M92.9,74.66A16.11,16.11,0,0,0,77.4,58.58a16.09,16.09,0,0,0-30.35,0,16.08,16.08,0,0,0-9.29,28.76,16.09,16.09,0,0,0,24.55,17.74,16.08,16.08,0,0,0,25-13.38,16.26,16.26,0,0,0-.61-4.38A16.05,16.05,0,0,0,92.9,74.66M75.08,63.93a12.86,12.86,0,0,1-11,12.7A12.79,12.79,0,0,1,74.91,62a12.77,12.77,0,0,1,.17,2m-12.79,37a12.81,12.81,0,0,1-.12-18.31,12.81,12.81,0,0,1,.12,18.31M49.54,62A12.72,12.72,0,0,1,60.33,76.63,12.79,12.79,0,0,1,49.54,62m9.59,18.45a12.81,12.81,0,0,1-17.39,5.65,12.81,12.81,0,0,1,17.39-5.65m6.16-.09A12.81,12.81,0,0,1,82.76,86a12.81,12.81,0,0,1-17.47-5.72M62.23,51.08A12.86,12.86,0,0,1,74,58.81a16.13,16.13,0,0,0-11.78,9,16.13,16.13,0,0,0-11.78-9,12.86,12.86,0,0,1,11.78-7.73M34.79,74.66A12.87,12.87,0,0,1,46.27,61.88a15.46,15.46,0,0,0-.13,2,16.06,16.06,0,0,0,5.25,11.89,16.14,16.14,0,0,0-12.34,8.37,12.85,12.85,0,0,1-4.26-9.53m5.58,17.15a13,13,0,0,1,.28-2.66,16.07,16.07,0,0,0,14.77-.41,16,16,0,0,0,4.27,14.16A12.83,12.83,0,0,1,40.37,91.81m43.72-.11a12.87,12.87,0,0,1-12.85,12.85,12.71,12.71,0,0,1-6.34-1.68,16.07,16.07,0,0,0,4.42-11.06,16.49,16.49,0,0,0-.3-3.08,16,16,0,0,0,14.81.4,12.88,12.88,0,0,1,.26,2.57m-10.93-16a16.05,16.05,0,0,0,5.16-11.8,17.36,17.36,0,0,0-.13-2,12.83,12.83,0,0,1,7.25,22.27,16.11,16.11,0,0,0-12.28-8.42"/><path class="cls-2" d="M41,13a11.64,11.64,0,0,1-.29,1.33,10.93,10.93,0,0,1-1.93,4.21c-.31-.29-.66-.53-1-.78,1.44-1.68,1.84-3.54,2.13-5.95l1.18.88a.17.17,0,0,1,.05.13c0,.1-.09.15-.16.18m3.32,5.13a19.44,19.44,0,0,0-2.1-5.53l.92-.78a20.46,20.46,0,0,1,2.22,5.39Zm.18-5.88a1.07,1.07,0,0,1-.9-1.18,1.06,1.06,0,0,1,.9-1.17,1.07,1.07,0,0,1,.9,1.17,1.07,1.07,0,0,1-.9,1.18m0-1.8a.56.56,0,0,0-.47.62c0,.34.21.63.47.63s.48-.3.48-.63a.57.57,0,0,0-.48-.62"/><path class="cls-2" d="M52.16,15.17c-.49,0-.88,0-1.28,0s-3.4,0-4.49,0c0-.43,0-1-.06-1.31,0-.16.07-.17.12-.16a3.94,3.94,0,0,0,.5.07c.52,0,1.32,0,1.92,0,1.25,0,1.93,0,3.33-.06,0,.44,0,1,0,1.42"/><path class="cls-2" d="M57.86,16a12.84,12.84,0,0,0-2.53-1.72v2.94c0,.64,0,1.29,0,1.93h-1.2c.05-1.39.06-2.78.06-4.16,0-1.62,0-3.23,0-4.83l1.24.14a.12.12,0,0,1,.12.13.21.21,0,0,1-.14.19l-.06,3a3.12,3.12,0,0,0,.3-.53,11.6,11.6,0,0,1,2.91,1.82L57.86,16"/><path class="cls-2" d="M66.68,14H64c0,2.36-.62,4.22-2.44,5.18a8.26,8.26,0,0,0-1-.81c1.68-.82,2.25-2.18,2.3-4.38l-3,.14c0-.44,0-.88,0-1.33l1.64,0h1.37c0-.15,0-.3,0-.46,0-.74,0-1.48-.06-2.21l1.2.15a.14.14,0,0,1,.13.13.21.21,0,0,1-.11.17l0,2.21c.88,0,1.76-.06,2.65-.13,0,.44,0,.89,0,1.33"/><path class="cls-2" d="M73.64,15.17c-.49,0-.88,0-1.28,0s-3.07,0-4.16,0c0-.43,0-1,0-1.31,0-.16.06-.17.11-.16a4.2,4.2,0,0,0,.5.07c.52,0,1.87,0,2.47,0,1.25,0,1,0,2.45-.06,0,.44,0,1,0,1.42"/><path class="cls-2" d="M77.45,15a10.37,10.37,0,0,0-2-1.58c.21-.36.41-.72.61-1.08a8,8,0,0,1,2,1.54Zm-1.29,3.89c-.06-.13-.57-1.16-.57-1.21s.08-.09.11-.1a9.49,9.49,0,0,0,1.57-.48,13.32,13.32,0,0,0,4.51-3.52c0,.54.08,1.08.14,1.61a11.82,11.82,0,0,1-5.76,3.7m2.45-6.29a9.67,9.67,0,0,0-1.81-1.29c.19-.34.37-.71.55-1.08a6.64,6.64,0,0,1,1.88,1.27c-.19.38-.41.74-.62,1.1"/><path class="cls-2" d="M84.68,15.85A12.94,12.94,0,0,0,84,13.53l.94-.38a12.21,12.21,0,0,1,.66,2.31c-.3.15-.61.27-.91.39m4.55-2.4a10.42,10.42,0,0,1-1.47,4.19,5.24,5.24,0,0,1-2.33,1.8c-.24-.29-.49-.57-.73-.87,2.41-.72,3.27-2.83,3.53-5.8l1.06.41s.06.05.06.1a.2.2,0,0,1-.12.17m-3,1.83a13.67,13.67,0,0,0-.66-2.23l.92-.33A12,12,0,0,1,87.16,15c-.3.09-.61.21-.9.32"/><path class="cls-2" d="M96.46,12.51a10.43,10.43,0,0,1-2.79,5.26,5.66,5.66,0,0,1-1.61,1.09,13.19,13.19,0,0,0-1-1c2.08-.67,3.53-2.61,4.12-5.19-1.46,0-2.92.12-4.38.2,0-.43,0-.87,0-1.3l1.18,0c.77,0,1.53,0,2.3,0,.4,0,.79,0,1.19,0a.61.61,0,0,0,.43-.16,7.51,7.51,0,0,1,.77.92c0,.08-.12.15-.16.19m.5-.84a1,1,0,0,1-.86-1.07.88.88,0,1,1,1.72,0A1,1,0,0,1,97,11.67M97,10a.53.53,0,0,0-.46.58.52.52,0,0,0,.46.56.53.53,0,0,0,.46-.56A.53.53,0,0,0,97,10"/><path class="cls-2" d="M104.88,11.91l-.1,0a2.78,2.78,0,0,0-1.09.21,3.63,3.63,0,0,0-1.85,3.17c-.08,2.07,1.37,2.36,2.6,2.41q-.1.59-.24,1.17H104a4.34,4.34,0,0,1-1.68-.42,2.94,2.94,0,0,1-1.45-2.89,6.18,6.18,0,0,1,.93-3.13c-.92.16-1.82.34-2.73.57,0-.4-.08-.79-.11-1.2.82-.1,1.64-.21,2.46-.34a17.57,17.57,0,0,0,3.31-.81c0,.17.23,1.08.22,1.19s0,.1-.1.09m-.7,2.62c-.15-.5-.31-1-.49-1.46l.59-.31a9.65,9.65,0,0,1,.45,1.44Zm1-.37a12.6,12.6,0,0,0-.5-1.54l.59-.33c.18.5.34,1,.49,1.5Z"/><path class="cls-2" d="M38.67,23.73h5.77v9H38.67Zm4.76,1.07H39.64v1.58h3.79Zm0,2.63H39.64V29h3.79Zm0,2.55H39.64v1.74h3.79Z"/><path class="cls-2" d="M48.5,29a4.05,4.05,0,0,1-.35-.53v4.36h-.91V28.8A4.12,4.12,0,0,1,46.57,30l-.63-.75a7.11,7.11,0,0,0,1.24-3h-.89v-1h.94V23.25l.92.08a.14.14,0,0,1,.14.14.19.19,0,0,1-.14.16v1.68h.52v1h-.53v.52a6.79,6.79,0,0,0,.85,1.4c-.17.28-.32.57-.49.84m1.71,2A6.12,6.12,0,0,1,49,32.58l-.64-.66a3.58,3.58,0,0,0,1.18-1.62l.83.57a.09.09,0,0,1,0,.08c0,.12-.11.13-.18.11m1.95-6.51v.65h1.33v2.55H48.88V25.2h1.21v-.65H48.61v-.86h5.15v.86Zm-.44,5.61v1.47c0,1-.58,1.21-1.26,1.32l-.52-.8c.35-.08.81-.08.81-.67V30.16H48.67v-.82h5.11v.82Zm-2.43-2h3.83V29H49.29ZM50.13,26h-.44v1h.44Zm1.22-1.45h-.46v.65h.46Zm0,1.45h-.46v1h.46Zm2,6.61A7.52,7.52,0,0,1,52,30.9l.77-.54a5.54,5.54,0,0,0,1.25,1.56ZM52.62,26h-.48v1h.48Z"/><path class="cls-2" d="M62.12,28.27a.23.23,0,0,1-.12-.06c-.61.22-1.79.72-2.34,1v1.63h-1c0-.15,0-.31,0-.49v-.59c-.68.34-1,.77-1,1.26s.39.64,1.16.64a6.92,6.92,0,0,0,2.46-.42l0,1.23a6.36,6.36,0,0,1-2.12.31c-1.65,0-2.48-.56-2.48-1.69a2.18,2.18,0,0,1,.69-1.52,6.39,6.39,0,0,1,1.29-.91c0-.47-.15-.71-.4-.71a1.17,1.17,0,0,0-.87.4,8.7,8.7,0,0,0-.65.71c-.31.37-.51.63-.63.75l-.7-.86a7.47,7.47,0,0,0,2.13-2.86c-.44.06-.94.11-1.48.14,0-.4-.09-.77-.14-1.1A14.3,14.3,0,0,0,57.8,25a8.18,8.18,0,0,0,.29-1.46l1.14.27a.13.13,0,0,1,.1.13.18.18,0,0,1-.13.16c0,.18-.12.45-.23.81a12.26,12.26,0,0,0,1.58-.39l-.09,1.16c-.47.1-1.09.21-1.87.33a7.27,7.27,0,0,1-.52,1.05,1.66,1.66,0,0,1,.48-.07c.51,0,.85.37,1,1.13.68-.38,1.45-.77,2.28-1.17l.39,1.18c0,.08,0,.13-.1.13"/><path class="cls-2" d="M70.87,32.71c-.44,0-.87,0-1.31,0a7.29,7.29,0,0,1-4.49-1.19,6.62,6.62,0,0,1-.63,1.28l-.72-.54c.79-1,.93-2.82.94-4.17h-1v-.91h2a15.72,15.72,0,0,1-.33,3.3c1.21,1.19,3,1.26,4.44,1.26.47,0,1,0,1.42-.07Zm-5.72-7.17a12.31,12.31,0,0,0-1.32-1.09l.66-1a9.56,9.56,0,0,1,1.19,1.27Zm4.85.78c-.11.26-.2.53-.3.8H71v.81h-2.2v.48h1.75v.8H68.83v.44h2.24v.84H68.84v1h-.9v-1H65.87v-.84h2.07v-.44H66.31v-.8h1.63v-.48H65.85v-.81h1.2c-.08-.27-.14-.54-.23-.8h-1v-.81h2.08v-.6H66.1V24h1.81v-.85l.93.08c.07,0,.16,0,.16.12s-.09.13-.14.16V24h2v.88h-2v.6h2.23v.81Zm-2.26,0c0,.28.08.55.11.82H68.9c0-.27.1-.54.14-.82Z"/><path class="cls-2" d="M79.79,32.9a7,7,0,0,1-1.85-2,5.34,5.34,0,0,1-2,1.93l-.68-.71a5.26,5.26,0,0,0,2.2-2.21,12.77,12.77,0,0,1-1-4h-2v0c0,.4,0,.79,0,1.2h2c0,.81,0,1.64-.11,2.44-.16,1.32-.54,1.75-1.56,1.86l-.46-.86c1-.13,1.14-.57,1.16-1.8v-.74h-1c0,1.53-.21,3.63-1.07,4.78l-.78-.62c.86-1.09.91-2.89.91-4.36,0-1,0-2-.06-2.94h3c0-.64-.07-1.29-.08-1.93l1.09.15c.06,0,.18,0,.18.15a.3.3,0,0,1-.16.23c0,.26,0,.51,0,.77s0,.42,0,.63h2.67v1H77.45A12.71,12.71,0,0,0,78,28.78a10.47,10.47,0,0,0,.59-2.33l1,.72a.26.26,0,0,1,.1.19c0,.12-.17.17-.23.18A13.62,13.62,0,0,1,78.55,30a6,6,0,0,0,1.94,1.89Zm-.25-9.1c-.2.36-.39.73-.6,1.07l-.77-.29A15.85,15.85,0,0,0,78.64,23l1,.43a.21.21,0,0,1,.13.19c0,.1-.13.16-.2.17"/><path class="cls-2" d="M86.54,31.87a3.72,3.72,0,0,1-2.24.72c-1.2,0-2-.85-2-2.35,0-.2,0-.4,0-.6,0-.57,0-1.14,0-1.72l.06-4.1.79.16a1.76,1.76,0,0,1,.33.07c.07,0,.15.08.15.17a.22.22,0,0,1-.12.18c-.11,1.84-.18,3.69-.18,5.53,0,.94.34,1.51,1.12,1.51a2.16,2.16,0,0,0,1.08-.31,4.29,4.29,0,0,0,1.69-2.2l.62,1.37a4.9,4.9,0,0,1-1.3,1.57"/><path class="cls-2" d="M95.17,32.21a9.68,9.68,0,0,0-1.92-1.5,1.64,1.64,0,0,1-1.82,1.76,2,2,0,0,1-2.12-1.79A1.67,1.67,0,0,1,91.16,29a3.74,3.74,0,0,1,1,.14c0-1.48-.06-3-.17-4.43,0-.36-.05-.72-.11-1.07l1.13.18a.17.17,0,0,1,.14.15.24.24,0,0,1-.09.15v.4c0,.46,0,.93,0,1.39h.11a9,9,0,0,0,1.16-.06l.9-.17c0,.41,0,.82,0,1.24-.47,0-1,.07-1.42.07h-.67c0,.84,0,1.68.06,2.54a13.88,13.88,0,0,1,2.64,1.6Zm-3-2a2.6,2.6,0,0,0-1.12-.27.75.75,0,0,0-.75.67c0,.65.59.82,1,.82s.86-.23.86-.92Z"/><path class="cls-2" d="M99.55,32.63c-.31-.3-.62-.62-1-.9A4.06,4.06,0,0,0,101,29.9a3.57,3.57,0,0,0,.33-1.55c0-.94-.29-1.48-1.07-1.48A6.78,6.78,0,0,0,97.9,28c-.06-.16-.47-1.25-.47-1.34s.09-.06.12-.06a5.42,5.42,0,0,0,1-.31,5.57,5.57,0,0,1,2-.54c1.35,0,1.94,1.14,1.94,2.71a4.47,4.47,0,0,1-3,4.17M101,25a11.91,11.91,0,0,0-2.39-.95c.16-.37.31-.76.47-1.14a8.88,8.88,0,0,1,2.46,1c-.18.38-.35.76-.54,1.12"/></svg>