<svg xmlns="http://www.w3.org/2000/svg" viewBox="0 0 123 123">
<defs><style>.cls-1{fill:#dc007a;}.cls-2{fill:#fff;}</style></defs>
<rect class="cls-1" width="123" height="123"/>
<path class="cls-2" d="M10.74,15.76c-.21.11-.83.36-1.84.72-.81.28-1.32.46-1.53.56V13.72a19.24,19.24,0,0,0,2.37-1.16,8,8,0,0,0,2-1.42l3.49,0,.1,23.35-4.47,0Z"/><path class="cls-2" d="M19.19,33a7.23,7.23,0,0,1-1.62-4.91l-.05-10.46a7.48,7.48,0,0,1,1.54-5,5.83,5.83,0,0,1,4.69-1.85,5.76,5.76,0,0,1,4.67,1.81,7.47,7.47,0,0,1,1.58,5l.05,10.47A7.16,7.16,0,0,1,28.46,33a5.8,5.8,0,0,1-4.61,1.87A5.83,5.83,0,0,1,19.19,33m6.33-5,0-10.29a6.27,6.27,0,0,0-.34-2.16,1.33,1.33,0,0,0-1.38-.86,1.32,1.32,0,0,0-1.4.86,6.08,6.08,0,0,0-.31,2.17l0,10.3c0,1.94.59,2.9,1.75,2.9s1.69-1,1.68-2.92"/><path class="cls-2" d="M73,80.58l-22.56.1a.26.26,0,0,0-.24.27l0,6.78a.26.26,0,0,0,.25.27L73,87.9a.26.26,0,0,0,.25-.27l0-6.78a.26.26,0,0,0-.25-.27"/><path class="cls-2" d="M72.88,66.16l-22.55.09a.27.27,0,0,0-.24.28l0,6.78a.26.26,0,0,0,.24.27l22.56-.1a.26.26,0,0,0,.24-.27l0-6.78a.26.26,0,0,0-.25-.27"/><path class="cls-2" d="M72.52,55.91,61.65,45.13a.2.2,0,0,0-.27,0L50.61,56a.19.19,0,0,0,.13.32l21.65-.1a.19.19,0,0,0,.13-.32"/><path class="cls-2" d="M82.83,87.94,93.6,77.07a.17.17,0,0,0,0-.26L82.73,66a.19.19,0,0,0-.32.13l.1,21.65a.19.19,0,0,0,.32.13"/><path class="cls-2" d="M50.79,98.25,61.66,109a.2.2,0,0,0,.27,0L72.71,98.15a.19.19,0,0,0-.14-.32l-21.65.1a.19.19,0,0,0-.13.32"/><path class="cls-2" d="M40.49,66.21,29.71,77.09a.19.19,0,0,0,0,.26L40.58,88.13A.19.19,0,0,0,40.9,88l-.09-21.65a.19.19,0,0,0-.32-.14"/><path class="cls-2" d="M47.42,19.93a9.1,9.1,0,0,1-3.34-4.56,10.21,10.21,0,0,1-.48,1.38,6.82,6.82,0,0,1-1.94,2.57,4.89,4.89,0,0,1-.92.61L39.93,19A4.5,4.5,0,0,0,41,18.36a6.74,6.74,0,0,0,2.2-4.14,17.94,17.94,0,0,0,.13-3.28l1.25.14c.07,0,.17.05.17.15a.19.19,0,0,1-.16.19c0,.43,0,.85,0,1.28A7.93,7.93,0,0,0,46,16.75a7.59,7.59,0,0,0,2.35,2.14Z"/><path class="cls-2" d="M54.25,16.7a4.79,4.79,0,0,1-1.06-.12,8.14,8.14,0,0,0-.35-1.09,4.52,4.52,0,0,0,1.15.18c.7,0,1.36-.28,1.36-1.28a.89.89,0,0,0-.85-1,1.58,1.58,0,0,0-.52.09c.1.32.21.63.33,1-.3.15-.6.28-.89.41-.12-.34-.24-.68-.37-1a12.75,12.75,0,0,0-1.2.65c.3.79.58,1.6.83,2.41s.52,1.53.71,2.31c-.32.19-.65.31-1,.47A44.12,44.12,0,0,0,51,15c-.46.3-.92.62-1.36.94-.18-.36-.37-.71-.53-1.08.49-.28,1-.57,1.5-.84-.25-.59-.54-1.18-.84-1.74.13,0,1-.37,1.06-.37s.07,0,.09.1c.2.52.38,1,.58,1.56.38-.21.76-.41,1.15-.6a12.29,12.29,0,0,0-.77-1.54c.33-.12.66-.27,1-.39.29.51.51,1.05.75,1.59a3.69,3.69,0,0,1,1-.14,1.78,1.78,0,0,1,1.76,1.93,2.11,2.11,0,0,1-2.17,2.29"/><path class="cls-2" d="M58.47,10.87l7.39,0,0,9.05-7.39,0Zm6.34,1-5.3,0,0,7.08,5.3,0Zm-5,6.22v-.9h1.74V15.62H60.21v-.85h1.37V13.68H59.93v-.9l4.53,0v.89H62.58v1.08H64v.74l.45.26a.1.1,0,0,1,.05.08c0,.1-.11.14-.18.14-.16.35-.31.71-.45,1.07l-.75-.27c.12-.38.23-.76.33-1.15h-.89v1.57h1.91v.88Z"/><path class="cls-2" d="M72.51,19.15c-.26-.29-.5-.61-.76-.9,1.33-.39,2.55-1,2.54-2.9a2.68,2.68,0,0,0-1.77-2.78c-.22,1.77-.65,4.59-2,5.64A1,1,0,0,1,68.87,18a3.81,3.81,0,0,1-.55-2.1c0-2.5,1.69-4.28,3.69-4.29,1.85,0,3.36,1.32,3.38,3.71a3.71,3.71,0,0,1-2.88,3.88m-3-4.71a4.21,4.21,0,0,0-.23,1.41c0,.42.08,1.5.55,1.5.17,0,.31-.19.41-.33.79-1,1.12-3.08,1.19-4.43a3.1,3.1,0,0,0-1.92,1.85"/><path class="cls-2" d="M82.27,12c-.17.33-.34.67-.52,1l0,6.87H80.69l0-5.3a9.49,9.49,0,0,1-2.89,2.73L77,16.56A9.63,9.63,0,0,0,80.93,12L77.5,12V11l7.4,0v1Zm2.47,5.42a12.13,12.13,0,0,1-2.87-3c.28-.26.55-.54.83-.82a8.5,8.5,0,0,0,2.79,2.92Z"/><path class="cls-2" d="M91.23,16.5v3.44H90.15V16.5l-3.42,0v-1l3.41,0V12H87.18V11l7,0v1h-3v3.49l3.42,0v1Zm-2.58-1.42c-.32-.74-.65-1.5-1-2.2l1-.53a12.84,12.84,0,0,1,.86,2.26Zm5-1.95c-.31.67-.63,1.33-1,2l-.8-.37c.29-.79.56-1.6.79-2.42l1.08.49a.2.2,0,0,1,.12.18c0,.11-.14.15-.21.15"/><path class="cls-2" d="M99,12.16l.1.72-.74.2-.29-.94H97.8a7.56,7.56,0,0,1-1,1.27l-.78-.51a6.06,6.06,0,0,0,1.32-2.63l1,.33c.06,0,.12.07.12.14a.19.19,0,0,1-.17.17,1.93,1.93,0,0,1-.19.38h1.75v.87ZM102,15.85v.63h1.78v.94h-1.76c0,1.6.17,2.51-1.46,2.8l-.62-.89c.62-.12,1.07-.18,1.07-1v-.86H98.41c.27.25.52.52.77.79s.39.37.57.59l-.67.76a20.87,20.87,0,0,0-1.52-1.46l.6-.68H96.48v-.93l4.55,0v-.64l-4.81,0V15h3.31v-.63H97.12v-.89h2.36v-.72h1.12s-.21.19-.21.24.12-.24.14-.31v.78h2.62v.89l-2.63,0V15H104v.89Zm.65-3.67-.28.91-.79-.08,0-.86h-.59a9.08,9.08,0,0,1-.69.9l-.91-.33a7.26,7.26,0,0,0,1.22-2.42l1.07.31a.14.14,0,0,1,.11.12c0,.09-.12.11-.19.11a4.68,4.68,0,0,1-.2.45h2.38v.89Z"/><path class="cls-2" d="M47.86,29a.27.27,0,0,1-.13-.05c-.65.23-1.89.73-2.49,1v1.62H44.19c0-.15,0-.3,0-.48v-.59c-.71.34-1.07.77-1.07,1.26s.42.64,1.24.63A7.76,7.76,0,0,0,47,31.93l0,1.23a7.16,7.16,0,0,1-2.25.31c-1.77,0-2.65-.54-2.66-1.67a2.09,2.09,0,0,1,.73-1.51,6.59,6.59,0,0,1,1.37-.91c0-.47-.17-.71-.43-.71a1.32,1.32,0,0,0-.92.4,8.45,8.45,0,0,0-.69.72c-.33.37-.54.62-.66.74-.17-.18-.42-.46-.75-.85a7.66,7.66,0,0,0,2.25-2.86c-.48.07-1,.11-1.58.14,0-.4-.1-.76-.15-1.09a16.11,16.11,0,0,0,2.06-.11,10,10,0,0,0,.3-1.45l1.21.26c.07,0,.11.07.11.13s0,.12-.14.16-.13.45-.24.81a16.68,16.68,0,0,0,1.68-.4l-.1,1.16c-.49.11-1.16.21-2,.33a5.76,5.76,0,0,1-.56,1.06,1.68,1.68,0,0,1,.52-.08c.55,0,.91.36,1.07,1.12.72-.38,1.54-.77,2.42-1.18L48,28.86c0,.08,0,.12-.11.12"/><path class="cls-2" d="M54.08,26.51c-.44.12-.87.23-1.31.32a21.63,21.63,0,0,1-1.94,4.93,10.86,10.86,0,0,1-1-.56A17.29,17.29,0,0,0,51.62,27a10,10,0,0,1-1.34.12L50.13,26a4.1,4.1,0,0,0,.5,0,8.89,8.89,0,0,0,1.25-.1,10.79,10.79,0,0,0,.23-1.81c.43.06.84.11,1.25.2-.1.49-.21,1-.35,1.46a8.55,8.55,0,0,0,1.08-.36c0,.37,0,.75,0,1.13m2.54,6.41a7.59,7.59,0,0,0-1.19-1.08c0,.12,0,.23,0,.35,0,1.08-.73,1.38-1.54,1.38a2.44,2.44,0,0,1-.85-.13A1.61,1.61,0,0,1,52,32a1.56,1.56,0,0,1,1.63-1.6,4.52,4.52,0,0,1,.74.06c0-.5,0-1,0-1.48a2,2,0,0,1,.13-.72h.81c.05,0,.31,0,.31.08s0,0,0,0a1.22,1.22,0,0,0-.18.65c0,.55,0,1.1,0,1.66a6.22,6.22,0,0,1,1.91,1.24,10.41,10.41,0,0,1-.69,1m-2.24-1.5a1.4,1.4,0,0,0-.64-.11c-.35,0-.77.1-.79.6s.5.7.85.7.58-.08.59-.53c0-.22,0-.44,0-.66m2.39-3.53a5.59,5.59,0,0,0-2.2-1.2l.52-1.05a5.53,5.53,0,0,1,2.25,1.2Z"/><path class="cls-2" d="M63.57,33.57a17.63,17.63,0,0,0-2.65-3.1,8.39,8.39,0,0,0-.77-.7,1.86,1.86,0,0,1-.44-.4.88.88,0,0,1-.16-.57,1.23,1.23,0,0,1,.43-.89c.44-.45.9-.88,1.33-1.34.64-.71,1.29-1.41,1.92-2.15l.77.66a2.35,2.35,0,0,1,.29.26.11.11,0,0,1,0,.09c0,.15-.2.17-.3.15-.6.56-1.22,1.1-1.84,1.67-.25.23-.49.49-.74.73a4,4,0,0,0-.37.34.73.73,0,0,0-.23.41.4.4,0,0,0,.16.32c.37.37.79.68,1.17,1a19,19,0,0,1,2.35,2.62c-.32.29-.64.6-1,.88"/><path class="cls-2" d="M70.81,29a2.47,2.47,0,0,0-.74,2.28c.19,1,1.44,1.13,2.08,1.11l.64-.05c-.09.4-.19.79-.28,1.18h-.19c-1.27,0-3.09-.14-3.31-2.09a3.61,3.61,0,0,1,.67-2.73,19,19,0,0,0-3.13.83c-.07-.4-.17-.79-.26-1.18A8.14,8.14,0,0,0,68,27.87a12,12,0,0,0,2.11-2.25,13.38,13.38,0,0,1-1.89.1c0-.37,0-.74-.06-1.1a11.33,11.33,0,0,0,2.85-.1,2.69,2.69,0,0,0,.71-.28l.56,1a23.56,23.56,0,0,0-2.66,2.54c1.32-.21,2.66-.37,4-.5,0,.42,0,.85,0,1.27a4.65,4.65,0,0,0-2.75.4"/><path class="cls-2" d="M78.35,33.8c-.34-.3-.68-.63-1-.9A4.46,4.46,0,0,0,80,31a4.37,4.37,0,0,0,.36-1.66c.06-1-.22-1.52-1.07-1.57a7.55,7.55,0,0,0-2.66,1c0-.16-.43-1.29-.42-1.39s.09-.06.13-.06a5.1,5.1,0,0,0,1.16-.24,6.23,6.23,0,0,1,2.17-.41c1.46.09,2,1.29,1.93,2.89a4.78,4.78,0,0,1-3.2,4.25m1.57-8a12.94,12.94,0,0,0-2.6-1c.17-.4.33-.79.51-1.18a10,10,0,0,1,2.66,1c-.18.39-.36.79-.57,1.17"/></svg>