<svg xmlns="http://www.w3.org/2000/svg" viewBox="0 0 123 123">
<defs><style>.cls-1{fill:#960b31;}.cls-2{fill:#fff;}</style></defs>
<rect class="cls-1" width="123" height="123"/>
<path class="cls-2" d="M9.63,27.38a7.7,7.7,0,0,1,.7-3.42,4.45,4.45,0,0,1,2.05-2.14,5.84,5.84,0,0,1-1.74-2.1,7.11,7.11,0,0,1-.66-3.2A6.26,6.26,0,0,1,11.51,12a5.76,5.76,0,0,1,4.4-1.61A5.77,5.77,0,0,1,20.29,12a6.21,6.21,0,0,1,1.5,4.43,7.56,7.56,0,0,1-.64,3.3,5.29,5.29,0,0,1-1.7,2.09A4.45,4.45,0,0,1,21.5,24a8.31,8.31,0,0,1,.7,3.56,7.73,7.73,0,0,1-1.51,5.09c-1,1.22-2.6,1.83-4.78,1.83q-6.28,0-6.28-7.12m7.8,2.76a7.36,7.36,0,0,0,.39-2.59,7.83,7.83,0,0,0-.39-2.75,1.47,1.47,0,0,0-1.52-1,1.49,1.49,0,0,0-1.52,1A7.92,7.92,0,0,0,14,27.55a7.36,7.36,0,0,0,.39,2.59,1.49,1.49,0,0,0,1.52,1,1.48,1.48,0,0,0,1.52-1m.13-13.62a4.19,4.19,0,0,0-.4-2,1.33,1.33,0,0,0-1.25-.74,1.37,1.37,0,0,0-1.27.74,4,4,0,0,0-.43,2c0,2.41.56,3.62,1.7,3.62s1.65-1.21,1.65-3.62"/><path class="cls-2" d="M85,60.51,72.39,72.46a2.06,2.06,0,0,0-.72,1.79v33.49a.71.71,0,0,0,.72.71h13a.71.71,0,0,0,.72-.71V60.81c0-.4-.31-1.12-1.13-.3"/><path class="cls-2" d="M48.76,76.07,36.2,88a2.08,2.08,0,0,0-.71,1.79v17.93a.71.71,0,0,0,.71.71h13a.71.71,0,0,0,.71-.71V76.37c0-.39-.31-1.12-1.13-.3"/><path class="cls-2" d="M90.66,46a.35.35,0,0,0-.11-.27.32.32,0,0,0-.23-.1h-.18l-9.61,2.17h-.18a.4.4,0,0,0-.18.1.36.36,0,0,0,0,.52l.1.11,2.2,2.19L60.68,72.55,50.61,62.49a.3.3,0,0,0-.41,0l-2.73,2.73h0L31.34,81.36a.3.3,0,0,0,0,.41l2.73,2.73a.3.3,0,0,0,.41,0L50.41,68.57l7.3,7.3,0,0,2.73,2.73a.3.3,0,0,0,.41,0L85.61,53.91l2.31,2.3a.36.36,0,0,0,.51,0,.38.38,0,0,0,.11-.24v0l2.11-9.81Z"/><path class="cls-2" d="M66.93,78.17,60.85,84.3a.29.29,0,0,1-.39,0L55,78.67c-1-1-1.22-.19-1.22.21v28.85a.71.71,0,0,0,.71.72h13a.71.71,0,0,0,.71-.72V78.4c0-.4-.31-1.12-1.2-.23"/><path class="cls-2" d="M41.8,18.52c-.07,1.26-.43,1.8-1.51,2.08l-.6-.87c.76-.15,1.05-.35,1.12-1.29.1-1.32.1-2.66.1-4h-.3a16.83,16.83,0,0,1-.41,3.63,6,6,0,0,1-1.32,2.57l-.83-.6c.16-.18.34-.35.49-.55l-2.36.5c0,.09,0,.16-.14.16s-.12-.07-.15-.14l-.38-.93L37,18.9v-.52H35.72V17.6H37v-.36H35.74V14.17H37v-.35H35.72V13H37v-.44l-.9.08-.25-.47c-.11.41-.21.84-.32,1.25a3,3,0,0,0-.13.44v6.77h-1V15.88a5.57,5.57,0,0,1-.37.57l-.59-.88A11.91,11.91,0,0,0,35,11l1.07.39a.17.17,0,0,1,.09.13c0,.08-.12.12-.18.13l0,.16a9.71,9.71,0,0,0,2.75-.59l.68,1.05c0,.08-.06.11-.13.11a.25.25,0,0,1-.16-.06c-.39.08-.79.14-1.17.2V13h1.35v.54h.46V11.07l1,.13c.07,0,.17.06.17.15a.2.2,0,0,1-.12.18c0,.67,0,1.34-.07,2l1.21,0c0,1.67,0,3.34-.1,5M37,14.82h-.45v.57H37Zm0,1.25h-.45v.52H37Zm1.25-1.25h-.41v.57h.41Zm0,1.25h-.43v.52h.43Zm.94-1.62v-.63H37.86v.35H39v3.07H37.86v.36H39v.76H37.86v.43c.36-.05.71-.13,1.07-.19l0,.36a10.35,10.35,0,0,0,.78-4.51Z"/><path class="cls-2" d="M48.91,15.43a7.38,7.38,0,0,0,1.18,1.88c-.2.31-.42.59-.63.88A5,5,0,0,0,47,17.55c-.37,0-1.18.18-1.18.77,0,.92,1.24,1,1.81,1a10.63,10.63,0,0,0,1.87-.24c-.09.4-.16.8-.23,1.2a8.65,8.65,0,0,1-1.33.12c-1.15,0-3.17-.14-3.17-2,0-1.32,1.28-1.76,2.21-1.76a6.32,6.32,0,0,1,1.44.19c-.17-.4-.36-.8-.54-1.21a21.29,21.29,0,0,1-3.28.4L44.38,15a14.42,14.42,0,0,0,3.14-.31c-.11-.32-.21-.64-.3-.95a14.8,14.8,0,0,1-2.3.32l-.27-1A13.15,13.15,0,0,0,47,12.74a15.81,15.81,0,0,1-.34-1.55l1.11-.09h0a.13.13,0,0,1,.14.13.22.22,0,0,1-.09.16c0,.35.1.7.17,1a5.19,5.19,0,0,0,1.26-.6c.07.39.16.78.23,1.18-.41.16-.84.3-1.26.44.1.34.22.67.34,1a11.78,11.78,0,0,0,2.12-.79c.08.4.12.8.19,1.2a11.52,11.52,0,0,1-2,.57"/><path class="cls-2" d="M57.06,19.67A1.32,1.32,0,0,1,56,20a2,2,0,0,1-.88-.22c0-.4-.06-.79-.11-1.19a1.89,1.89,0,0,0,1,.29c.73,0,.73-2.37.73-3,0-.43,0-1.2-.51-1.2a2.52,2.52,0,0,0-.54.08A20.62,20.62,0,0,1,53.79,20c-.36-.19-.68-.4-1-.57A14.67,14.67,0,0,0,54.58,15a12.29,12.29,0,0,0-1.23.31l-.27-1.13c0-.06.06-.07.09-.07s.15,0,.24,0a6.75,6.75,0,0,0,1.4-.2,17.4,17.4,0,0,0,.32-2.51c.27.07.53.15.8.24.11,0,.25.07.37.12s.11.06.11.13-.06.09-.1.11c-.11.6-.23,1.2-.38,1.79a5.43,5.43,0,0,1,.55-.06,1.07,1.07,0,0,1,1.19.9,6.17,6.17,0,0,1,.18,1.61c0,1-.14,2.77-.79,3.43M58.38,13a11.4,11.4,0,0,0-.68-1.5l.73-.35a13.71,13.71,0,0,1,.64,1.46Zm.92,4.65c-.2-.31-.41-.59-.63-.87.26-.06.92-.22.92-.62a5.16,5.16,0,0,0-1.3-2.35,11,11,0,0,0,1-.57,6.79,6.79,0,0,1,1.44,3.15c0,.79-.91,1.08-1.44,1.26m.29-5a9.69,9.69,0,0,0-.68-1.5l.7-.38a9.58,9.58,0,0,1,.68,1.49Z"/><path class="cls-2" d="M65.43,19.75a1,1,0,0,1-.72-.27,5.48,5.48,0,0,1-1.21-3.43,16.51,16.51,0,0,1,.06-2.9c0-.38.06-.74.1-1.1a7.05,7.05,0,0,1,1.3.42.12.12,0,0,1,.07.11c0,.11-.09.18-.17.21a10.8,10.8,0,0,0-.26,2.14,12.25,12.25,0,0,0,0,1.35,5.05,5.05,0,0,0,.28,1.39c.07.2.23.67.45.66.43,0,.91-1.45,1.08-1.89l.63,1.32c-.24.72-.94,1.94-1.65,2m4-1.89a9.7,9.7,0,0,0-1.46-4.47c.37-.18.72-.38,1.1-.55a11.52,11.52,0,0,1,1.53,4.49c-.39.2-.78.37-1.17.53"/><path class="cls-2" d="M76.81,20.35c-1.27,0-2.5-.52-2.51-2.23,0-.25,0-.5,0-.75-.66-.24-1.54-.53-1.56-1.51a3.7,3.7,0,0,1,.4-1.35c.34.07.68.17,1,.25a1.93,1.93,0,0,0-.45.93c0,.37.53.53.77.59.15-.83.31-1.66.45-2.49l-.47.6a19,19,0,0,0-1.44-1.25c.2-.31.4-.63.62-.94A12.5,12.5,0,0,1,75,13.36a15.07,15.07,0,0,0,.29-2.11c.29.05.58.13.87.21a2.11,2.11,0,0,1,.36.09c.07,0,.13,0,.13.14a.42.42,0,0,1-.17.27c-.07.24-.12.49-.17.72-.11.5-.22,1-.34,1.49-.17.78-.35,1.57-.49,2.36a10.45,10.45,0,0,0,1.1.1l-.17,1a6.32,6.32,0,0,1-1.06-.09,2.48,2.48,0,0,0,0,.47,1.18,1.18,0,0,0,1.31,1.24c.77,0,1.11-.48,1.1-1.36a4.54,4.54,0,0,0-1.32-2.65,7.52,7.52,0,0,0,1-.48,4.92,4.92,0,0,1,1.51,3.43,2,2,0,0,1-2.13,2.14"/><path class="cls-2" d="M35,30.62a9.32,9.32,0,0,1-.73,2.47l-.76-.39a8.47,8.47,0,0,0,.67-2.65l.82.31a.15.15,0,0,1,.1.15s-.06.09-.1.11M41.58,30a6.93,6.93,0,0,1-2.4-1.42,6.25,6.25,0,0,1-1.76,1.24l-.37-.56.11.46a6.36,6.36,0,0,1-.71.31c0-.18-.09-.37-.14-.55l-.23,0v4.24h-.92V29.59c-.44.05-.87.13-1.32.18l-.1-.92a2.41,2.41,0,0,0,.54-.05c.3-.38.57-.8.84-1.21a5.57,5.57,0,0,0-1.23-.47v-.47a11.86,11.86,0,0,0,1.65-2.53,9.06,9.06,0,0,1,.92.49c.07,0,.2.1.2.22s-.15.14-.22.14c-.47.55-.94,1.09-1.44,1.6l.54.33c.17-.28.34-.56.49-.86.14.09.92.57.92.74s-.13.14-.2.12c-.51.63-1,1.27-1.53,1.9l.9-.11c-.06-.18-.11-.37-.18-.54.24-.09.48-.2.72-.3.11.34.21.69.31,1a5.82,5.82,0,0,0,1.55-1,9.41,9.41,0,0,1-1.2-1.53l.59-.6h-.86v-.92h4.17v.79a7.36,7.36,0,0,1-1.34,2.23A7.16,7.16,0,0,0,42.15,29c-.2.31-.38.65-.57,1m-4.94,2.35a17.32,17.32,0,0,1-.46-1.92l.75-.31A11.83,11.83,0,0,0,37.38,32Zm.19,1.2v-.87h1.91V31.38H37.33v-.87h1.4v-1.2c.24,0,.49.06.73.09a1.87,1.87,0,0,1,.32,0,.11.11,0,0,1,.09.11c0,.08-.08.14-.15.17v.79h1.54v.87H39.72v1.26h2v.87Zm1.37-7.78a6.23,6.23,0,0,0,.95,1.41A5,5,0,0,0,40,25.73Z"/><path class="cls-2" d="M44.86,28.82a17,17,0,0,0-1.51-1.05l.64-1a7.88,7.88,0,0,1,1.4,1.2Zm-.31,4.62a.29.29,0,0,1,0,.16.09.09,0,0,1-.08.09A10.75,10.75,0,0,1,43.42,33a15.54,15.54,0,0,0,1.2-3.56l.85.8c-.29,1.08-.58,2.14-.92,3.2m.52-7.27a12.76,12.76,0,0,0-1.3-.92l.69-1a8.2,8.2,0,0,1,1.16,1.12Zm6.31,3.5a8.6,8.6,0,0,1-.9-.29v4.29h-1V31.91H47.26a4.34,4.34,0,0,1-1.18,1.93l-.78-.59c1.1-.93,1.29-2.48,1.29-4a5.43,5.43,0,0,1-.93.33l-.5-.88a6.84,6.84,0,0,0,2.54-1,7.15,7.15,0,0,1-1.19-1.52h-.78v-.92h2.1v-1.2l1.12.08a.17.17,0,0,1,.16.17c0,.1-.1.15-.17.17v.78h2.47v.92h-.95a6.5,6.5,0,0,1-1.2,1.53,7.29,7.29,0,0,0,2.61.85Zm-1.88.68h-2c0,.24-.05.49-.08.74h2Zm0-1.33c-.35-.21-.71-.44-1-.69a9.59,9.59,0,0,1-.88.51c0,.23,0,.45,0,.68H49.5Zm-1.87-2.8a3.8,3.8,0,0,0,.85,1,3.34,3.34,0,0,0,.76-1Z"/><path class="cls-2" d="M60.68,33.73a7.24,7.24,0,0,1-2-2,5.55,5.55,0,0,1-2.19,1.91l-.74-.7a5.5,5.5,0,0,0,2.38-2.19,11.86,11.86,0,0,1-1.07-3.95H54.87v.05c0,.4,0,.79,0,1.18H57c0,.81,0,1.63-.11,2.42-.18,1.32-.59,1.73-1.69,1.84l-.5-.85C55.8,31.33,56,30.9,56,29.68V29H54.86c0,1.51-.24,3.6-1.16,4.73l-.85-.62c.93-1.07,1-2.86,1-4.31,0-1-.05-1.94-.07-2.91H57c-.05-.63-.07-1.28-.09-1.91l1.19.15c.06,0,.19,0,.19.15a.28.28,0,0,1-.17.22c0,.26,0,.51,0,.77s0,.42,0,.62H61v1H58.15a11.64,11.64,0,0,0,.55,2.82,10,10,0,0,0,.63-2.31l1.13.7a.26.26,0,0,1,.11.2c0,.12-.18.16-.25.17a12,12,0,0,1-1,2.39,6.37,6.37,0,0,0,2.11,1.87Zm-.27-9c-.22.36-.43.72-.65,1.07l-.83-.29a13.51,13.51,0,0,0,.5-1.56l1,.43c.06,0,.15.08.15.18s-.15.16-.22.17"/><path class="cls-2" d="M70.07,33.59A6.79,6.79,0,0,1,66.4,30.5a19.57,19.57,0,0,0,2.29-.82h-3.2v2.39L67,31.7l-.12,1-2.89.76c0,.07-.08.16-.16.16a.12.12,0,0,1-.09-.07l-.46-1.08c.42-.07.85-.12,1.27-.22V29.73H63v-1H64.5V24.55H70v.94H65.5V26h3.94v.85H65.5v.53h3.94v.82H65.5v.52h5.06v.92H69.34l.49.75a.14.14,0,0,1-.14.14.35.35,0,0,1-.17-.06c-.56.14-1.12.25-1.69.34a5.06,5.06,0,0,0,2.9,1.74Z"/><path class="cls-2" d="M76.58,33.58c-1.26,0-2.49-.53-2.51-2.23,0-.25,0-.51.05-.76-.66-.23-1.55-.53-1.57-1.51a4,4,0,0,1,.4-1.35c.34.08.69.18,1,.25a2.11,2.11,0,0,0-.44.93c0,.37.52.53.77.59.14-.83.3-1.65.45-2.49-.16.21-.32.4-.47.61a15.45,15.45,0,0,0-1.45-1.25c.2-.32.41-.63.63-.95a12.54,12.54,0,0,1,1.34,1.16,12.46,12.46,0,0,0,.29-2.11c.29.05.59.14.88.21a1.61,1.61,0,0,1,.36.1c.06,0,.12,0,.12.13a.42.42,0,0,1-.17.28c-.06.23-.11.48-.17.72l-.33,1.48c-.17.78-.35,1.58-.49,2.37.36.06.73.06,1.09.09l-.16,1a7.82,7.82,0,0,1-1.07-.08,3.62,3.62,0,0,0,0,.46,1.18,1.18,0,0,0,1.31,1.24c.76,0,1.11-.48,1.1-1.35a4.49,4.49,0,0,0-1.33-2.65,8.23,8.23,0,0,0,1-.48,5,5,0,0,1,1.52,3.43,2,2,0,0,1-2.14,2.14"/></svg>