<svg xmlns="http://www.w3.org/2000/svg" viewBox="0 0 123 123">
<defs><style>.cls-1{fill:#e4001e;}.cls-2{fill:#fff;}.cls-3{fill:none;stroke:#fff;stroke-linecap:round;stroke-miterlimit:10;stroke-width:1.46px;}</style></defs>
<rect class="cls-1" width="123" height="123"/>
<path class="cls-2" d="M10.7,15.33a17.87,17.87,0,0,1-1.86.73c-.81.27-1.32.45-1.53.55V13.28A20.87,20.87,0,0,0,9.7,12.12a7.92,7.92,0,0,0,2-1.42h3.51V34.15H10.7Z"/><path class="cls-2" d="M94.71,58.67a3.42,3.42,0,1,1,3.43,3.42,3.43,3.43,0,0,1-3.43-3.42"/><path class="cls-2" d="M102.13,63.41A4.56,4.56,0,0,1,106.27,68v9.49a1.33,1.33,0,0,1-2.65,0V69.29c0-.3-.09-.72-.65-.72-.39,0-.47.41-.48.67V93.65a1.91,1.91,0,1,1-3.81,0V79.58a.52.52,0,0,0-.54-.55h0a.53.53,0,0,0-.55.55V93.65a1.91,1.91,0,1,1-3.81,0V69.24c0-.26-.09-.67-.48-.67-.56,0-.64.42-.64.72v8.15a1.33,1.33,0,0,1-2.65,0V68a4.56,4.56,0,0,1,4.14-4.54l.25,0h7.48l.26,0"/><path class="cls-2" d="M74.37,60.47a3.24,3.24,0,1,0-3.24,3.24,3.25,3.25,0,0,0,3.24-3.24"/><path class="cls-2" d="M64.61,67.8l-2.7,8.77s-.48,1.61.89,2,1.77-1.17,1.77-1.17l2.17-7.32s.11-.56.54-.44.26.73.26.73L63.76,84.09h3.52v9.82a1.69,1.69,0,0,0,3.37,0V84.09h1v9.82a1.69,1.69,0,0,0,3.38,0V84.09H78.5L74.73,70.38s-.16-.61.26-.73.54.44.54.44l2.17,7.32s.41,1.57,1.77,1.17.88-2,.88-2L77.66,67.8s-1-2.53-3.09-2.53H67.7c-2.13,0-3.09,2.53-3.09,2.53"/><path class="cls-2" d="M55,60.47a3.24,3.24,0,1,0-3.24,3.24A3.25,3.25,0,0,0,55,60.47"/><path class="cls-2" d="M45.2,67.8l-2.69,8.77s-.48,1.61.89,2,1.76-1.17,1.76-1.17l2.18-7.32s.11-.56.54-.44.26.73.26.73L44.36,84.09h3.52v9.82a1.69,1.69,0,0,0,3.37,0V84.09h1v9.82a1.69,1.69,0,0,0,3.38,0V84.09H59.1L55.32,70.38s-.16-.61.27-.73.54.44.54.44l2.17,7.32s.41,1.57,1.76,1.17.89-2,.89-2L58.26,67.8s-1-2.53-3.1-2.53H48.3c-2.13,0-3.1,2.53-3.1,2.53"/><path class="cls-2" d="M85.25,78.6a2.7,2.7,0,1,0-2.7-2.7,2.7,2.7,0,0,0,2.7,2.7"/><path class="cls-2" d="M78.79,87a.93.93,0,0,0,.39,1.28.89.89,0,0,0,1.15-.38L81.8,83.2s.25-.32.25,0v11h0a1.39,1.39,0,0,0,2.77,0V89.87s-.08-.62.41-.62.42.62.42.62v4.34a1.39,1.39,0,0,0,2.77,0v-11c0-.33.17-.1.17-.1l1.15,3.21a7.76,7.76,0,0,0,.65,1.49,1,1,0,0,0,1.23-1.54h0c0-.1-1.72-4.23-1.91-4.81C89.12,79.67,88,79.69,87,79.66s-1.71,0-1.71,0-.68,0-2.09,0-1.85.77-3.39,4.76c-.23.57-1,2.43-1,2.54Z"/><path class="cls-2" d="M26,58.67a3.42,3.42,0,1,0-3.42,3.42A3.42,3.42,0,0,0,26,58.67"/><path class="cls-2" d="M18.62,63.41A4.56,4.56,0,0,0,14.48,68v9.49a1.33,1.33,0,0,0,2.66,0V69.29c0-.3.08-.72.64-.72.39,0,.47.41.48.67V93.65a1.91,1.91,0,1,0,3.81,0V79.58a.52.52,0,0,1,.55-.55h0a.53.53,0,0,1,.55.55V93.65a1.91,1.91,0,1,0,3.81,0V69.24c0-.26.1-.67.48-.67.56,0,.64.42.64.72v8.15a1.33,1.33,0,0,0,2.66,0V68a4.56,4.56,0,0,0-4.15-4.54l-.25,0H18.88l-.26,0"/><line class="cls-3" x1="15.64" y1="78.81" x2="12.6" y2="94.91"/><path class="cls-2" d="M32.38,77.18a1,1,0,0,0-.83-.46,1,1,0,0,0-1,1,1.67,1.67,0,0,0,.1.43l2.72,4.92a1.72,1.72,0,0,1,.17.65V94.26h0a1.33,1.33,0,1,0,2.66,0V90.09s-.08-.58.4-.58.4.58.4.58v4.17a1.33,1.33,0,1,0,2.66,0V83.7a1.8,1.8,0,0,1,.16-.65l2.52-4.54a4.41,4.41,0,0,0,.3-.81,1,1,0,0,0-1.81-.52h0c-.08.06-1.34,2.31-1.76,2.72a1.09,1.09,0,0,1-.83.39H35a1.1,1.1,0,0,1-.84-.39c-.42-.41-1.67-2.66-1.75-2.72Z"/><path class="cls-2" d="M36.61,78.6a2.7,2.7,0,1,0-2.7-2.7,2.69,2.69,0,0,0,2.7,2.7"/><polygon class="cls-2" points="36.61 82.38 39.66 84.6 41.11 89.94 36.61 89.94 32.11 89.94 33.56 84.6 36.61 82.38"/><path class="cls-2" d="M35.47,14a6.23,6.23,0,0,1-1.18-.76,3.71,3.71,0,0,1-.12.65c-.25.88-1.23.93-1.9.95l-.4-.75c.34,0,1,0,1.2-.44a2.45,2.45,0,0,0,.08-.39H31.88a4.37,4.37,0,0,1-1.65,1.63h4.51v4H33.66a4.46,4.46,0,0,0,2.17.78l-.6,1a9.28,9.28,0,0,1-2.82-1.23l.58-.54H30.51l.55.49a.27.27,0,0,1,.1.15c0,.08-.1.12-.16.12a.23.23,0,0,1-.15,0,9.79,9.79,0,0,1-2.49,1.08l-.6-.93a5,5,0,0,0,2.13-.86H29V15.56a4.25,4.25,0,0,1-.75.28L27.7,15a4.25,4.25,0,0,0,2.81-1.71H29.13a4.66,4.66,0,0,1-1,.57l-.73-.74A4.84,4.84,0,0,0,30,10.81l1.11.36a.13.13,0,0,1,.09.14c0,.14-.14.19-.24.2a5.77,5.77,0,0,1-.93,1h3.33a9.88,9.88,0,0,1-1-1.11l1-.58a6.29,6.29,0,0,0,2.83,2.25ZM33.7,15.66H29.94v.41H33.7Zm0,1.05H29.94v.4h3.77Zm0,1H29.94v.39h3.77Z"/><path class="cls-2" d="M38,11.46h7.44v9.08H38Zm6.36,1H39v7.13h5.33Zm-.74,6a8.72,8.72,0,0,1-1.41-2.09V19.3h-1V16.4a7.14,7.14,0,0,1-1.53,2L39,17.72A6.53,6.53,0,0,0,41,15H39.4v-.9h1.82v-1.4l1,.09c.08,0,.17,0,.17.15a.2.2,0,0,1-.12.15v1H44V15H42.47a7.46,7.46,0,0,0,1.88,2.71Z"/><path class="cls-2" d="M54.71,15.83a.3.3,0,0,1-.14-.05c-.64.22-1.9.72-2.5,1v1.62H51c0-.15,0-.31,0-.49v-.59c-.73.34-1.09.77-1.09,1.25s.42.65,1.24.65A13.31,13.31,0,0,0,53.8,19V20.2a10.66,10.66,0,0,1-2.32.13c-1.77,0-2.65-.56-2.65-1.69a2.07,2.07,0,0,1,.74-1.52A6.59,6.59,0,0,1,51,16.21c0-.47-.16-.72-.42-.72a1.32,1.32,0,0,0-.93.4,7,7,0,0,0-.7.72c-.33.37-.54.63-.67.75l-.75-.86a7.74,7.74,0,0,0,2.28-2.86c-.48.06-1,.1-1.59.13,0-.4-.09-.77-.15-1.09a16.17,16.17,0,0,0,2.07-.11,8.59,8.59,0,0,0,.31-1.45l1.22.27a.13.13,0,0,1,.11.13c0,.06,0,.11-.14.15s-.13.46-.25.82A15.74,15.74,0,0,0,53,12.1l-.1,1.16c-.5.1-1.17.21-2,.32a5.76,5.76,0,0,1-.56,1.06,2,2,0,0,1,.52-.07c.55,0,.91.36,1.07,1.12.73-.38,1.55-.77,2.44-1.17l.42,1.18c0,.09,0,.13-.11.13"/><path class="cls-2" d="M32,26.9c-.44.12-.87.23-1.31.31a22.14,22.14,0,0,1-2,4.95c-.34-.17-.67-.37-1-.57a17.28,17.28,0,0,0,1.81-4.25,10.1,10.1,0,0,1-1.35.11c0-.36-.1-.73-.14-1.11a3.93,3.93,0,0,0,.49,0,7.63,7.63,0,0,0,1.26-.09A10.08,10.08,0,0,0,30,24.45c.43.06.85.12,1.26.21-.11.49-.22,1-.36,1.47A10.52,10.52,0,0,0,32,25.77c0,.37,0,.75,0,1.13m2.53,6.45a8.21,8.21,0,0,0-1.2-1.09v.35C33.26,33.7,32.56,34,31.74,34a2.79,2.79,0,0,1-.85-.13,1.6,1.6,0,0,1-1.06-1.5,1.57,1.57,0,0,1,1.65-1.6,4.49,4.49,0,0,1,.73.06c0-.5,0-1,0-1.49a2.28,2.28,0,0,1,.13-.72h.81c.06,0,.32,0,.32.09s0,0,0,0a1.32,1.32,0,0,0-.19.64c0,.56,0,1.11,0,1.67a6.28,6.28,0,0,1,1.91,1.26c-.22.36-.45.71-.69,1m-2.25-1.52a1.56,1.56,0,0,0-.65-.11c-.34,0-.77.1-.79.6s.5.7.85.7.58-.07.6-.52c0-.22,0-.45,0-.67m2.41-3.53a5.52,5.52,0,0,0-2.19-1.21L33,26a5.58,5.58,0,0,1,2.25,1.22Z"/><path class="cls-2" d="M41.27,34a17.48,17.48,0,0,0-2.65-3.13,6.32,6.32,0,0,0-.77-.7,2.14,2.14,0,0,1-.44-.41,1,1,0,0,1-.16-.58,1.2,1.2,0,0,1,.44-.89c.44-.45.9-.87,1.34-1.34.65-.7,1.3-1.4,1.93-2.15.26.23.52.44.77.67a1.87,1.87,0,0,1,.3.26.18.18,0,0,1,0,.1c0,.15-.2.16-.3.14-.61.56-1.24,1.1-1.85,1.67-.26.23-.5.49-.76.73s-.26.22-.37.34a.73.73,0,0,0-.23.42.43.43,0,0,0,.16.32c.37.36.79.68,1.17,1a19,19,0,0,1,2.34,2.64c-.32.29-.63.6-1,.89"/><path class="cls-2" d="M48.35,29.45a2.46,2.46,0,0,0-.81,2.27c.16,1,1.41,1.17,2.06,1.17l.64,0c-.1.4-.22.78-.32,1.18h-.19c-1.27,0-3.1-.23-3.26-2.2a3.56,3.56,0,0,1,.75-2.71,18.42,18.42,0,0,0-3.17.73c-.06-.4-.14-.79-.22-1.19a8.1,8.1,0,0,0,1.67-.39,11.41,11.41,0,0,0,2.19-2.2,15.07,15.07,0,0,1-1.9.05c0-.37,0-.74,0-1.11a11.9,11.9,0,0,0,2.86,0,3.1,3.1,0,0,0,.72-.26c.18.33.36.68.53,1a25.35,25.35,0,0,0-2.75,2.46c1.34-.17,2.69-.29,4-.38,0,.42,0,.85,0,1.27a4.78,4.78,0,0,0-2.77.33"/><path class="cls-2" d="M55.69,34.44c-.34-.31-.68-.63-1-.92a4.42,4.42,0,0,0,2.65-1.87A4.48,4.48,0,0,0,57.68,30c.06-1-.21-1.53-1.07-1.59a7.65,7.65,0,0,0-2.68,1c0-.17-.42-1.31-.41-1.4s.09-.06.13-.06a5.66,5.66,0,0,0,1.16-.23A6.38,6.38,0,0,1,57,27.27c1.47.1,2,1.3,1.93,2.91a4.8,4.8,0,0,1-3.23,4.26m1.61-7.91a13.09,13.09,0,0,0-2.61-1c.18-.4.34-.79.52-1.19a10.16,10.16,0,0,1,2.67,1c-.18.4-.37.79-.58,1.18"/></svg>