<svg xmlns="http://www.w3.org/2000/svg" viewBox="0 0 123 123">
<defs><style>.cls-1{fill:#d29100;}.cls-2{fill:#fff;}</style></defs>
<rect class="cls-1" width="123" height="123"/>
<path class="cls-2" d="M10.5,15.26A16.32,16.32,0,0,1,8.66,16c-.81.27-1.32.46-1.53.55V13.22a19.28,19.28,0,0,0,2.38-1.16,8,8,0,0,0,2-1.41H15V34H10.5Z"/><path class="cls-2" d="M17.45,30.86l5.65-8.74.35-.51a22.88,22.88,0,0,0,1.61-2.76,5.61,5.61,0,0,0,.52-2.43,2.89,2.89,0,0,0-.43-1.72,1.45,1.45,0,0,0-1.24-.59,1.69,1.69,0,0,0-1.67.92,5.72,5.72,0,0,0-.47,2.54v1.07H17.45V17.48A8.05,8.05,0,0,1,19,12.28a5.83,5.83,0,0,1,4.83-1.92,6.2,6.2,0,0,1,4.6,1.6A6.2,6.2,0,0,1,30,16.5a7.68,7.68,0,0,1-.4,2.51,11.76,11.76,0,0,1-.95,2.11c-.37.61-.94,1.49-1.71,2.62l-4.49,6.75h7V34H17.45Z"/><path class="cls-2" d="M92.45,63.55A20.16,20.16,0,0,0,77.19,59.8l-.31.07c-3,.72-7.88,1.91-13.54,8.93l-.1.12-.07.09a.51.51,0,0,0-.09.27.5.5,0,0,0,.06.24l.13.21c.71,1.19,1.61,2.72,2.36,4.13,0,0,0,0,0,0a.49.49,0,0,0,.44.27.44.44,0,0,0,.33-.14.71.71,0,0,0,.1-.14c5-7,9-7.91,11.65-8.54l.32-.07A14.67,14.67,0,0,1,89,68c3,2.35,4.48,6.08,4.48,11.09,0,8.42-4.09,11.71-7.53,13-5.31,2-10.42-.67-10.45-.69l-.23-.11C72.31,90,68,87.34,63.84,79.08,55.55,62.45,48.63,60.88,44,59.85l-.24-.06a19.8,19.8,0,0,0-15,3.74c-3,2.38-6.52,7-6.52,15.5,0,5.18,1.06,8.61,3.8,12.21.6.82,6.74,8.7,18.59,6.43a17.9,17.9,0,0,0,7.3-3.39l2.61,2.35a.43.43,0,0,0,.6,0,.37.37,0,0,0,.1-.28v0L57.13,84.7v-.13a.43.43,0,0,0-.14-.31.42.42,0,0,0-.28-.1h-.2L45.42,87.29l-.21,0a.45.45,0,0,0-.21.12.42.42,0,0,0,0,.6l.13.12,2.49,2.25a11.7,11.7,0,0,1-4.07,1.72c-8.58,1.64-12.82-4-13-4.2l-.06-.08c-2-2.62-2.67-4.85-2.67-8.82,0-5,1.48-8.76,4.41-11.1a14.24,14.24,0,0,1,10.27-2.65l.25.06c3.76.85,8.9,2,16,16.26,3.68,7.39,8.3,12.22,14.1,14.77a20.43,20.43,0,0,0,8.84,2,17.54,17.54,0,0,0,6.15-1.09c3.37-1.26,11.19-5.55,11.19-18.27,0-8.5-3.6-13.12-6.62-15.51"/><path class="cls-2" d="M48.52,18.7a8.1,8.1,0,0,1-1.67.39c-.28-.33-.54-.69-.83-1a13.54,13.54,0,0,0,2.14-.5,2.57,2.57,0,0,0,2-2.46,1.6,1.6,0,0,0-1.82-1.84c-1.5,0-2.91,1.06-4.39,1.42,0-.15-.45-1.32-.45-1.37s.14-.07.2-.07A8.05,8.05,0,0,0,46,12.74a8.34,8.34,0,0,1,2.73-.58A2.67,2.67,0,0,1,51.39,15c0,2.18-1.22,3.12-2.87,3.66"/><path class="cls-2" d="M58.09,19.66a17.66,17.66,0,0,0-2.71-3.06,8.25,8.25,0,0,0-.78-.68,2.43,2.43,0,0,1-.45-.4A1,1,0,0,1,54,15a1.23,1.23,0,0,1,.41-.89c.44-.46.89-.89,1.31-1.36.63-.72,1.27-1.43,1.88-2.19l.78.65a2.48,2.48,0,0,1,.3.25.18.18,0,0,1,0,.1c0,.15-.2.17-.29.15-.6.56-1.21,1.12-1.81,1.7l-.74.74c-.12.12-.25.22-.36.35a.69.69,0,0,0-.22.42.43.43,0,0,0,.17.32c.38.35.8.66,1.18,1A17.24,17.24,0,0,1,59,18.76c-.31.29-.61.61-.93.9"/><path class="cls-2" d="M64.88,19.42c-.75,0-1.95-.3-1.95-1.41a1.21,1.21,0,0,1,1.29-1.14,1.32,1.32,0,0,1,1.24.94,2.26,2.26,0,0,1,.09.58,1.6,1.6,0,0,0,1.15-1.56,1.47,1.47,0,0,0-1.57-1.6c-1.36,0-2.14,1.25-3,2.29l-.84-.85a22.66,22.66,0,0,0,3.41-4.44c-.72.17-1.44.31-2.16.46l-.2-1.25a1.42,1.42,0,0,0,.29,0,9.56,9.56,0,0,0,1.2-.11,15.66,15.66,0,0,0,1.64-.29c.19-.05.38-.12.57-.18l.62.84a3,3,0,0,0-.27.23,7.8,7.8,0,0,0-.59.7c-.43.57-.83,1.16-1.25,1.74a2.9,2.9,0,0,1,.83-.1,2.24,2.24,0,0,1,2.39,2.37,2.66,2.66,0,0,1-2.91,2.76m-.76-1.71c-.18,0-.28.07-.28.28,0,.39.51.44.74.44,0-.3-.13-.72-.46-.72"/><path class="cls-2" d="M77.89,20a7.41,7.41,0,0,1-2.75-1.09l.54-.61H73.2l.53.57a.13.13,0,0,1-.11.14.37.37,0,0,1-.17-.05A7.53,7.53,0,0,1,71,20l-.67-.9a4.42,4.42,0,0,0,2.21-.77h-1V14.38h5.85v3.93H76.29a5.49,5.49,0,0,0,2.29.68Zm-7.52-6v-.82h3.5v-.32H71.38v-.77h2.49V11.8H70.79v-.87h3.07v-.82l1.1.07a.14.14,0,0,1,.15.13.19.19,0,0,1-.15.18v.44h3.15v.87H74.94v.35H77.4v.77H74.94v.32h3.5v.82Zm5.95,1H72.49v.36h3.83Zm0,1H72.49v.38h3.84Zm0,1.05H72.49v.38h3.84Z"/><path class="cls-2" d="M83.18,11c-.25.7-.52,1.39-.83,2.05v6.68h-1v-5a3.7,3.7,0,0,1-.66.94l-.65-.8a10.71,10.71,0,0,0,2.14-4.67l1.19.49a.13.13,0,0,1,.09.13c0,.11-.17.16-.24.17m3,4.39v3.15h2.1v.94H83.06v-.94h2.08V15.4H82.87v-.94h2.27v-2.1c-.59.09-1.2.17-1.79.23l-.4-.92a11.86,11.86,0,0,0,4.49-1.14l.81,1.17a.15.15,0,0,1-.15.12.28.28,0,0,1-.16-.06,17.49,17.49,0,0,1-1.7.41v2.29h2.3v.94Z"/><path class="cls-2" d="M48.31,32.27a9,9,0,0,1-1.67.39c-.28-.34-.54-.7-.84-1A13.37,13.37,0,0,0,48,31.17a2.59,2.59,0,0,0,2-2.46c0-1.39-.73-1.85-1.82-1.85-1.5,0-2.91,1.06-4.39,1.43,0-.15-.45-1.33-.45-1.38s.14-.06.2-.06a8.07,8.07,0,0,0,2.24-.55,8.6,8.6,0,0,1,2.72-.58,2.68,2.68,0,0,1,2.71,2.88c0,2.19-1.22,3.12-2.87,3.67"/><path class="cls-2" d="M57.25,32.38a1.38,1.38,0,0,1-1,.32,2.13,2.13,0,0,1-.88-.2c0-.41-.05-.81-.11-1.21a2,2,0,0,0,1,.3c.73,0,.72-2.37.72-3,0-.43,0-1.21-.5-1.21a2.54,2.54,0,0,0-.54.09A20.46,20.46,0,0,1,54,32.73c-.35-.17-.68-.39-1-.57a14.6,14.6,0,0,0,1.82-4.46c-.41.08-.83.18-1.23.29,0-.13-.26-1.1-.26-1.14a0,0,0,0,1,0,0h.23A8.71,8.71,0,0,0,55,26.65a17.76,17.76,0,0,0,.32-2.51c.29.07.56.15.84.24a1.79,1.79,0,0,1,.35.11c.05,0,.11.05.11.11s-.07.12-.12.14c-.11.59-.22,1.19-.37,1.77a4.93,4.93,0,0,1,.54-.05,1.08,1.08,0,0,1,1.19.89A5.65,5.65,0,0,1,58,29c0,.93-.13,2.8-.78,3.43m2.23-2c-.2-.31-.41-.59-.63-.88.26-.05.92-.2.92-.6a5.09,5.09,0,0,0-1.3-2.37l1-.61a6,6,0,0,1,1.5,3.14c0,.85-.89,1.13-1.44,1.32"/><path class="cls-2" d="M64.93,33.46c-.34-.3-.67-.61-1-.89a4.35,4.35,0,0,0,2.59-1.82,3.45,3.45,0,0,0,.35-1.55c0-.93-.31-1.47-1.14-1.47a7.48,7.48,0,0,0-2.55,1.13c-.06-.16-.49-1.25-.49-1.34s.09-.06.12-.06a5.37,5.37,0,0,0,1.12-.31A6.21,6.21,0,0,1,66,26.61c1.44,0,2.07,1.14,2.07,2.71a4.48,4.48,0,0,1-3.14,4.14m1.57-7.57A13.17,13.17,0,0,0,64,25l.5-1.14a10.14,10.14,0,0,1,2.61,1c-.18.38-.36.75-.57,1.12"/><path class="cls-2" d="M77.79,33.57A7.54,7.54,0,0,1,75,32.49l.55-.62H73.09l.54.58a.13.13,0,0,1-.12.13.33.33,0,0,1-.16,0,7.71,7.71,0,0,1-2.46,1l-.68-.9a4.39,4.39,0,0,0,2.21-.77h-1V27.94h5.84v3.93H76.18a5.39,5.39,0,0,0,2.29.68Zm-7.53-5.95v-.81h3.5v-.33H71.27v-.77h2.49v-.34H70.69v-.88h3.06v-.82l1.11.08a.13.13,0,0,1,.14.12.19.19,0,0,1-.14.18v.44H78v.88H74.83v.34h2.46v.77H74.83v.33h3.51v.81Zm6,1H72.38V29h3.84Zm0,1H72.38v.38h3.84Zm0,1H72.38v.38h3.84Z"/><path class="cls-2" d="M83,24.58c-.25.69-.52,1.39-.83,2.05v6.68h-1v-5a4.08,4.08,0,0,1-.65.93l-.66-.8a10.71,10.71,0,0,0,2.14-4.67l1.19.49a.15.15,0,0,1,.1.13c0,.11-.18.17-.25.18M86,29v3.15h2.1v1H82.85v-1h2.08V29H82.66V28h2.27v-2.1c-.59.1-1.19.17-1.79.23l-.4-.92a11.91,11.91,0,0,0,4.49-1.14L88,25.26a.16.16,0,0,1-.15.13.44.44,0,0,1-.16-.06c-.57.15-1.13.3-1.7.4V28h2.3V29Z"/></svg>