<svg xmlns="http://www.w3.org/2000/svg" viewBox="0 0 123 123">
<defs><style>.cls-1{fill:#417935;}.cls-2{fill:#fff;}</style></defs>
<rect class="cls-1" width="123" height="123"/>
<path class="cls-2" d="M10.84,15.26A17.24,17.24,0,0,1,9,16c-.81.27-1.32.46-1.53.55V13.22a20,20,0,0,0,2.38-1.16,7.78,7.78,0,0,0,2-1.41h3.49V34H10.84Z"/><path class="cls-2" d="M19.09,32.56a8.19,8.19,0,0,1-1.47-5.22v-.8h4.43v.77a6.14,6.14,0,0,0,.44,2.57,1.51,1.51,0,0,0,1.47.78,1.43,1.43,0,0,0,1.43-.79,6.93,6.93,0,0,0,.36-2.58,5.62,5.62,0,0,0-.55-2.79,2.23,2.23,0,0,0-2-.93,5.25,5.25,0,0,0-.81,0V20.28h.72a2.4,2.4,0,0,0,2.08-.81,4.68,4.68,0,0,0,.58-2.65,4.54,4.54,0,0,0-.42-2.22,1.58,1.58,0,0,0-1.49-.72,1.39,1.39,0,0,0-1.38.78,5.77,5.77,0,0,0-.41,2.3v1H17.62V16.73A6.5,6.5,0,0,1,19.24,12a6.12,6.12,0,0,1,4.6-1.68A6.36,6.36,0,0,1,28.51,12a6.2,6.2,0,0,1,1.65,4.64A6.36,6.36,0,0,1,29.32,20a3.59,3.59,0,0,1-2.13,1.71q3,1.1,3,5.51a8.38,8.38,0,0,1-1.5,5.29,5.67,5.67,0,0,1-4.76,1.92q-3.34,0-4.81-1.85"/><path class="cls-2" d="M107.29,76.8A56.27,56.27,0,0,0,17,76.68l-.36.5.36.51a56.27,56.27,0,0,0,90.31.13c.15-.2.26-.37.36-.51l-.35-.51M46.94,65.5c.25-.36,1.06-1.39,1.16-1.52A1.51,1.51,0,0,1,49,63.6c.29-.05.68.11.72.33a2.58,2.58,0,0,1-.25,1.21,3.17,3.17,0,0,1-2,.9c-.44-.07-.61-.41-.53-.54m-1,1.93.09-.11a2.62,2.62,0,0,1,1.5-.55c.47-.08,1.1.16,1.18.48s-1.19.88-1.42,1.09c-.65.61-1.68,1.84-2.28,2a.77.77,0,0,1-.49,0A18.26,18.26,0,0,1,46,67.43M56.14,88.37A5.44,5.44,0,0,1,55,90.8a3.88,3.88,0,0,1-2.59,1c-.87-.07-1-2.37-1-3.56,0-.41-.58.81-.88-1.66-.19-1.58-1.21.16-1.28-.89s-.58-.84-1.11-1.5-1.19.06-1.93.39-.43.5-1.48.17l-.07,0a19.16,19.16,0,0,1-1.48-7.4c0-.64,0-1.27.1-1.89a.94.94,0,0,1,.12-.18c1-1.18,1-1.46,1-1.46l1.11-.38a18.1,18.1,0,0,1,3.11.78c1.1.41,2.83,1.35,3.84.94.73-.3,1.3-.7,1.23-1.31s-.68-.94-1.4-.43c-.27.19-.84-1.15-1.29-1.08s.55,1.57.17,1.63S50,72.38,49.87,72.11s-.72-.92-1.25-.42c-1.12,1.06-2.94,1-3.3,1.27-1.12.83-1.41-.28-1.38-.95,0-.15.09-.31.14-.46a2.26,2.26,0,0,1,2.11-.23c.49.33.84-.09,1-.28a.71.71,0,0,0,0-.78c-.12-.26.25-.45.5-.52a12.36,12.36,0,0,0,1.44-.86,4.83,4.83,0,0,1,2.89,0A1.51,1.51,0,0,0,54,68.49a5.06,5.06,0,0,1,1.38-1.14c.28-.13-.68-1-1.46,0s-1.19,1-1.56,1-2.56-.55-2.83-1.25.69-1.2,1.5-1.6a20.39,20.39,0,0,1,3.59-.5c1.15-.25,2.62-.83,3.36-.32s-3.09,1.36-1.84,2c.45.24,2.48-1.17,3.18-1.53,1.63-.84-1.59-1.12-1.17-2.83.48-1.94-3.94-1.19-6.14-1a19,19,0,0,1,28.67,11.6,2.84,2.84,0,0,1-.1.87,1.24,1.24,0,0,1-2.22.17c-.19-.28-1-1-1,.27s1.28,1.45.06,2.24a4.68,4.68,0,0,1-2,.8,2.54,2.54,0,0,0-1,2.27c.13.73,1.86,2.71.57,2.63a7.54,7.54,0,0,1-2.94-2.58c-.39-1-.82-2.07-1.13-2.87a1.12,1.12,0,0,0-1.78-.52c-.68.46.18.92-.3,1.91S68,80,67.3,79.18c-1.85-2.13-4.54-1.08-5-3.44-.23-1.29-1.33-1.17-2.25-1.89s-1.45-1.12-1.6-.6,2.9,2.88,3.11,3.49c.32.92-.91,1.73-1.81,1.94s-1.3-.5-2.18-1.43-1.27-1.58-1.33-.85A4.14,4.14,0,0,0,58,79.55c.77.49,1.63.71,1.38,1.5s0,.34-.86,1.19a2.32,2.32,0,0,0-1,2.32c.06,1.18-.25,1.25-.44,2.23s-.61.14-1,1.58m20.37-7.54c.64,0,1.6.83,1.23,1.17a1.72,1.72,0,0,1-1.82-.16c-.47-.37.31-1,.59-1m-.8-.59c-.21-.07-.39-.27-.54-.73a.43.43,0,0,1,.62-.55,1.83,1.83,0,0,1,.89,1.09c0,.32-.76.28-1,.19m-8.38,0A1.72,1.72,0,0,1,65.51,80c-.47-.37.31-1,.59-1,.64-.06,1.6.83,1.23,1.17M59.57,84c-.26.43-1,3.62-1.46,3.25s.2-3.71.34-4c.75-1.37,2.37-1.3,1.12.71m2.56,12.38a19.13,19.13,0,0,1-5.33-.77.79.79,0,0,1-.23-.93c.59-1.53,2.34-2.13,3.72-2.26,3.08-.3,7.12,2,7.77,1.64s2-2.06,3.86-2a2.94,2.94,0,0,1,1.73.44,19,19,0,0,1-11.52,3.87m13.4-5.51a3.32,3.32,0,0,1-.59-.22c-1-.53-.92.31-1.42.13s.57-1.38-1-.38-1.11-.15-1.78-1.84.77-3.62,2-4.06a24.7,24.7,0,0,1,3.45-.9c2.28-.57,2.77-1.92,3.18-1.1l.22.44a2.83,2.83,0,0,1,.29,1.24,19,19,0,0,1-4.36,6.69m5.22-9.58c-.51-.14-2.64-3.09-1-5,.28-.31-.57-1.25-.34-1.27a1.54,1.54,0,0,1,1.66,1.33c0,.36,0,.73,0,1.1a19,19,0,0,1-.4,3.87"/><path class="cls-2" d="M40.47,13.1c-.13.18-.25.38-.39.57h5v.93H40v-.85a5.29,5.29,0,0,1-.87,1.06l-.86-.62a6.53,6.53,0,0,0,1.77-3.28l1.12.37c.09,0,.16.06.16.17s-.13.15-.19.17c-.07.18-.16.36-.24.53h4.82v1Zm5.34,7.61c-1.51-1-2.05-2.72-2-4.64H42l.8.38s.15.07.15.15-.15.19-.23.2a7.08,7.08,0,0,1-.65,1.29,13.37,13.37,0,0,1,1.32,1.29l-.73.78c-.4-.44-.78-.88-1.21-1.27a6.21,6.21,0,0,1-2.3,1.64l-.79-.78a5.62,5.62,0,0,0,2.35-1.52c-.45-.29-.91-.58-1.37-.83.21-.29.4-.62.59-.93a11.5,11.5,0,0,1,1.38.93,6.56,6.56,0,0,0,.51-1.32H38.74v-.91c2.08,0,4.17,0,6.26,0a7.5,7.5,0,0,0-.12,1.34,3.5,3.5,0,0,0,1.69,3.31Z"/><path class="cls-2" d="M50.76,13V18.9h-.91v-6c-.14.35-.26.71-.42,1.06V20.7h-1V15.76a4.65,4.65,0,0,1-.56.79l-.62-.78A11.37,11.37,0,0,0,49.18,11l1.12.46a.19.19,0,0,1,.12.18.16.16,0,0,1-.2.14L50,12.6l.86.12a.12.12,0,0,1,.1.11c0,.1-.08.14-.15.16m4.57,7.84a5,5,0,0,1-2.2-2.33,4.13,4.13,0,0,1-2.21,2.2l-.6-.69a3.67,3.67,0,0,0,2.12-2.17H50.92v-.9h1.69c0-.23,0-.47,0-.7V16H52a3.58,3.58,0,0,1-.52.87l-.7-.46a6.52,6.52,0,0,0,.82-2H51v-.86h2.56l0-1-2.26,0v-.94h3.31c0,.63,0,1.26-.07,1.89h1v.88H52.31l.35.17a.06.06,0,0,1,.05.07c0,.09-.09.12-.16.12l-.15.36h2.88V16H53.64c0,.32,0,.65,0,1h2.11v.9H53.81A3.94,3.94,0,0,0,56,19.92Z"/><path class="cls-2" d="M59.75,14a6.05,6.05,0,0,1-1.47,1.83l-.76-.63a4.74,4.74,0,0,0,1.43-2l.9.54s.07.05.07.09-.11.18-.17.15M65,20.7a9.18,9.18,0,0,1-3.1-1.19,9.79,9.79,0,0,1-3.55,1.21l-.65-.91a6.68,6.68,0,0,0,3.35-1,5.59,5.59,0,0,1-.82-.86A6.21,6.21,0,0,1,58.6,19L58,18.3a5.48,5.48,0,0,0,2.71-2.53l.9.41a.14.14,0,0,1,.09.12c0,.08-.1.1-.15.1l-.13.15h2.77v.61a7.09,7.09,0,0,1-1.45,1.67,8.71,8.71,0,0,0,2.91.81ZM63,13.06c0,.62,0,1.23,0,1.85A1.23,1.23,0,0,1,62,16.28l-.73-.76c.53-.14.77-.18.77-.89V13.06h-.56A4,4,0,0,1,60.3,16a3.19,3.19,0,0,1-.81.61l-.71-.69a4.32,4.32,0,0,0,.71-.46,2.79,2.79,0,0,0,.91-2.36H57.8v-.94H61V11l1.12.1a.13.13,0,0,1,.14.12.21.21,0,0,1-.15.18v.77h3.35v.94ZM60.8,17.31a5.25,5.25,0,0,0,1,1,4.13,4.13,0,0,0,.87-1ZM65,16.08a9.39,9.39,0,0,1-1.63-2.14l.89-.64a6.51,6.51,0,0,0,1.52,2Z"/><path class="cls-2" d="M75.19,18.1c-.09,1.48-.36,2.17-1.7,2.44l-.58-.9c.87-.14,1.22-.49,1.28-1.54s.07-2.38.07-3.56h-.48c-.13,2.23-.41,4.65-2,6.09L70.93,20a3.56,3.56,0,0,0,.56-.54c-1.18.25-2.37.43-3.56.65,0,.08-.05.16-.12.16s-.08-.05-.1-.09l-.4-1.06c.67-.08,1.34-.13,2-.23v-.52H67.55v-.79h1.77v-.38H67.76v-3h1.56v-.38H67.47V13h1.85v-.48c-.51,0-1,.08-1.5.09l-.34-.86c.29,0,.57,0,.86,0a8.53,8.53,0,0,0,2.94-.57,7.34,7.34,0,0,1,.72,1,.13.13,0,0,1-.13.13.35.35,0,0,1-.17-.06,13.89,13.89,0,0,1-1.41.25v.55h1.63v.67h.87c0-.83,0-1.65,0-2.48l1,.12c.08,0,.2.06.2.17a.27.27,0,0,1-.14.21c0,.66,0,1.32-.09,2H75.3c0,1.5,0,3-.11,4.5m-5.87-3.25h-.67v.53h.67Zm0,1.2h-.67v.49h.67Zm1.54-1.2h-.61v.53h.61Zm0,1.2h-.62v.49h.62Zm1-1.51v-.75H70.26v.38h1.51v3H70.26v.38h1.53v.77H70.26v.47l1.5-.23-.08.63c.92-1.27,1-3.07,1.09-4.67Z"/><path class="cls-2" d="M43.92,31.72a4.8,4.8,0,0,0,2.44,1.59l-.65.93a8.94,8.94,0,0,1-2.66-1.8l.78-.72H40.94a5.93,5.93,0,0,1,.8.77c0,.1-.14.12-.2.11a7.29,7.29,0,0,1-2.43,1.62l-.6-.8a4.92,4.92,0,0,0,2.28-1.7H38.4v-.95h8.08v.95ZM39.67,25h5.58V30.3H39.67Zm4.59.89H40.64v.67h3.62Zm0,1.5H40.64V28h3.62Zm0,1.47H40.64v.66h3.62Z"/><path class="cls-2" d="M55.3,32.34a7.91,7.91,0,0,1-.92-1.14v.85H53.27v2h-1v-2H51.16v-.81a5,5,0,0,1-.88,1.05l-.61-.65V34h-1V29A5.15,5.15,0,0,1,48,30l-.62-.76a10.7,10.7,0,0,0,2.15-4.72l1.11.52a.17.17,0,0,1,.09.14c0,.1-.13.16-.21.16a17.52,17.52,0,0,1-.8,2v4.16a9.7,9.7,0,0,0,2.24-3.93H50.15v-1H52.2v-2l1.06.07a.14.14,0,0,1,.14.13.21.21,0,0,1-.15.18v1.64h2.43v1H53.56a9.69,9.69,0,0,0,2.56,3.9Zm-4-1.21h1V29.06a8.55,8.55,0,0,1-1,2.07m2-2.08v2.08h1.07a10.25,10.25,0,0,1-1.08-2.08"/><path class="cls-2" d="M65,28.82c0,.45,0,.9,0,1.34-.07,2-.15,3.61-2.14,4l-.67-.9a1.81,1.81,0,0,0,1.73-1.66,7.15,7.15,0,0,0,.08-1c0-.24,0-.47,0-.71,0-.79,0-1.57,0-2.36h-1.7A7.14,7.14,0,0,1,61.39,29l-.49-.46v4.87H57.54V26.58h1q.27-.93.48-1.89L60.2,25c.06,0,.15.06.15.15s-.14.17-.21.18q-.28.63-.63,1.23H60.9V28A9.76,9.76,0,0,0,62,24.6l1,.46a.19.19,0,0,1,.12.15c0,.1-.1.13-.17.13-.14.4-.27.81-.44,1.19H65Zm-5-1.39H58.51v1.9h1.42Zm0,2.81H58.51v2.25h1.42Zm2.9,1.05a16.71,16.71,0,0,0-1.32-1.67l.78-.8a14.08,14.08,0,0,1,1.25,1.8Z"/><path class="cls-2" d="M71.17,27.27c-.44.13-.87.23-1.31.32a22.15,22.15,0,0,1-2,4.93c-.33-.17-.67-.37-1-.57a17.4,17.4,0,0,0,1.8-4.24,8.56,8.56,0,0,1-1.34.12l-.15-1.11a4.18,4.18,0,0,0,.5,0A7.59,7.59,0,0,0,69,26.65a11.94,11.94,0,0,0,.24-1.81c.42.06.83.11,1.25.21-.11.48-.21,1-.36,1.46a10.52,10.52,0,0,0,1.08-.36c0,.37,0,.75,0,1.12m2.48,6.22a7.81,7.81,0,0,0-1.23-1.08c0,.12,0,.23,0,.35,0,1.08-.69,1.37-1.5,1.37a2.8,2.8,0,0,1-.86-.13A1.69,1.69,0,0,1,69,32.5a1.5,1.5,0,0,1,1.58-1.59,4.71,4.71,0,0,1,.74.06c0-.49-.07-1-.07-1.48a2.25,2.25,0,0,1,.11-.72h.81c.06,0,.32,0,.32.09s0,0,0,0a1.29,1.29,0,0,0-.16.64c0,.56,0,1.11.08,1.66a7.12,7.12,0,0,1,2,1.25,10.82,10.82,0,0,1-.66,1M71.36,32a1.57,1.57,0,0,0-.65-.12c-.34,0-.76.11-.76.6s.52.71.87.71.58-.08.58-.53c0-.22,0-.44,0-.66m2.38-3.21a5.59,5.59,0,0,0-2.18-1.2l.52-1.05a5.58,5.58,0,0,1,2.24,1.21Z"/><path class="cls-2" d="M79.9,33.44a16.92,16.92,0,0,0-1.26-1.83,6.76,6.76,0,0,1-2,2.48l-.77-.72a5.56,5.56,0,0,0,2-2.51,9.91,9.91,0,0,0-1.55-1.73l.61-.95a12.8,12.8,0,0,1,1.37,1.64,10.83,10.83,0,0,0,.41-2.26H76.2v-.91h1.64V24.81l1.12.08a.13.13,0,0,1,.14.13c0,.08-.09.13-.14.15v1.48h1.23v.91h-.68c.09,0,.43.14.43.28a.13.13,0,0,1-.1.11,13.35,13.35,0,0,1-.71,2.71,19.1,19.1,0,0,1,1.45,2Zm1.24-2a18.36,18.36,0,0,0-1.24-1.87l.85-.72a17.32,17.32,0,0,1,1.08,1.93Zm2-3.26V31.8c0,1.7-.19,2.26-1.69,2.6l-.65-1c1.22-.18,1.27-.62,1.27-1.94V28.17H80.39v-1h1.67V24.81l1.1.08a.15.15,0,0,1,.14.13c0,.08-.09.13-.14.15v2h1.08v1Z"/><path class="cls-2" d="M93.19,34.13a7,7,0,0,1-3-2.2v2.53h-1V31.89a6.88,6.88,0,0,1-3,2.17l-.63-.78a7,7,0,0,0,3.62-3v-.23H87.57V32h-1V29.29H89.2v-.46H85.8V28h3.38V27.2l.57.06L89.32,27a5.64,5.64,0,0,0,1.18-2.43l.94.2c.09,0,.23.05.23.19s-.12.16-.18.18l-.21.51h2.38v.78H92.53c-.12.35-.23.71-.35,1.05l-.78-.07.08-1h-.64a5.33,5.33,0,0,1-.61.86c.07,0,.17.07.17.17s-.11.16-.16.19V28h3.34v.86H90.23v.46h2.86v1.53c0,.91-.43,1.17-1.12,1.34l-.58-.67c.78-.27.66-.57.66-1.4H90.23v.24a5.07,5.07,0,0,0,1.51,1.76,6.25,6.25,0,0,0,2.13,1.09Zm-4.39-7.7c0,.29.08.57.11.85l-.77.24c-.13-.36-.22-.73-.34-1.09h-.36a5.69,5.69,0,0,1-1.09,1.29l-.75-.54a5.86,5.86,0,0,0,1.58-2.6l1,.26c.07,0,.15.06.15.15s-.12.18-.2.22a5.06,5.06,0,0,1-.24.46h1.74v.76Z"/><path class="cls-2" d="M102.36,29.83a.24.24,0,0,1-.13,0c-.65.22-1.9.71-2.49,1v1.62H98.68c0-.15,0-.3,0-.48V31.3c-.72.33-1.08.77-1.08,1.25s.41.64,1.23.64a8.1,8.1,0,0,0,2.62-.42l0,1.23a7.45,7.45,0,0,1-2.26.3c-1.76,0-2.64-.55-2.64-1.68a2.07,2.07,0,0,1,.74-1.51,6.24,6.24,0,0,1,1.36-.9c0-.48-.16-.72-.42-.72a1.3,1.3,0,0,0-.92.4,9.55,9.55,0,0,0-.7.71c-.33.37-.53.62-.66.75-.16-.19-.42-.47-.75-.86a7.6,7.6,0,0,0,2.27-2.85c-.48.07-1,.11-1.58.14,0-.4-.09-.77-.15-1.09a14.46,14.46,0,0,0,2.06-.11,8.36,8.36,0,0,0,.31-1.45l1.21.27c.07,0,.11.07.11.13s-.05.12-.15.16-.12.45-.24.81a13.54,13.54,0,0,0,1.68-.39l-.1,1.15c-.49.11-1.16.21-2,.33a7.78,7.78,0,0,1-.56,1.05,1.84,1.84,0,0,1,.51-.07c.55,0,.91.36,1.07,1.12.72-.38,1.54-.77,2.43-1.16l.41,1.17c0,.08,0,.13-.11.13"/><path class="cls-2" d="M79.4,20.26l-1,.12a14,14,0,0,1-.47-4.13,26.76,26.76,0,0,1,.47-4.65l.79.19a1.72,1.72,0,0,1,.39.1.13.13,0,0,1,.11.14.15.15,0,0,1-.15.14A21.58,21.58,0,0,0,79,17c0,.4,0,.78,0,1.18.16-.5.32-1,.49-1.5l.68.64a10.3,10.3,0,0,0-.81,3m5.78-.52a7.09,7.09,0,0,1-1.66.09c-1.3,0-2.51-.25-2.67-2.24l.93-.69c0,1.13.53,1.64,1.38,1.66a5.94,5.94,0,0,0,2-.24l0,1.42m-.33-5.87a7.06,7.06,0,0,0-2.1-.13,10.36,10.36,0,0,0-1.46.25c0-.39-.06-.87-.11-1.27a11.94,11.94,0,0,1,2.06-.24,7.66,7.66,0,0,1,1.72.08c0,.44-.06.88-.11,1.31"/></svg>