<svg xmlns="http://www.w3.org/2000/svg" viewBox="0 0 123 123">
<defs><style>.cls-1{fill:#e73819;}.cls-2{fill:#fff;}</style></defs>
<rect class="cls-1" width="123" height="123"/>
<path class="cls-2" d="M12.32,33.67a4.27,4.27,0,0,1-1.82-2.41A13.21,13.21,0,0,1,10,27.35h4.34a8.11,8.11,0,0,0,.38,2.94,1.45,1.45,0,0,0,1.47.91,1.45,1.45,0,0,0,1.28-.58A3.24,3.24,0,0,0,18,29c.07-.66.1-1.62.1-2.88a9.85,9.85,0,0,0-.39-3.2,1.55,1.55,0,0,0-1.6-1.06c-1,0-1.71.71-2,2.12H10.24l.32-13.32h10.8v3.85H14.23L14,19.73a3,3,0,0,1,1.39-.82,6.63,6.63,0,0,1,2.12-.34,4,4,0,0,1,3.62,1.94A10.29,10.29,0,0,1,22.31,26a18.2,18.2,0,0,1-.49,4.62A5.22,5.22,0,0,1,20,33.47,6.27,6.27,0,0,1,16,34.53a6.86,6.86,0,0,1-3.71-.86"/><path class="cls-2" d="M89.72,46.47H74.36a.2.2,0,0,0-.19.2v5.1a.2.2,0,0,0,.19.2h6.12l-6.79,6.79a20.11,20.11,0,1,0-15,35.76v5.88H52.63a.19.19,0,0,0-.19.19v5.47a.19.19,0,0,0,.19.2h6.06V112a.2.2,0,0,0,.2.2h5.46a.2.2,0,0,0,.2-.2v-5.78h6.06a.19.19,0,0,0,.19-.2v-5.47a.19.19,0,0,0-.19-.19H64.55v-6A20.1,20.1,0,0,0,77.73,63l6.69-6.7V62a.2.2,0,0,0,.2.19h5.1a.2.2,0,0,0,.2-.19V46.67a.2.2,0,0,0-.2-.2M61.29,89.38a14.81,14.81,0,1,1,14.8-14.8,14.82,14.82,0,0,1-14.8,14.8"/><path class="cls-2" d="M70.33,68.5h-18a.18.18,0,0,0-.19.18V73a.18.18,0,0,0,.19.18h18a.19.19,0,0,0,.2-.18V68.68a.19.19,0,0,0-.2-.18"/><path class="cls-2" d="M70.33,76.26h-18a.19.19,0,0,0-.19.18v4.35a.18.18,0,0,0,.19.18h18a.19.19,0,0,0,.2-.18V76.44a.2.2,0,0,0-.2-.18"/><path class="cls-2" d="M34.66,16a11.85,11.85,0,0,0-2.1-1.57c.23-.35.43-.72.66-1.07a9,9,0,0,1,2.13,1.53Zm-1.37,3.9c-.07-.13-.63-1.22-.63-1.29s.08-.08.13-.09A11.68,11.68,0,0,0,34.48,18a14.47,14.47,0,0,0,4.87-3.73c0,.56.09,1.13.17,1.7a12.89,12.89,0,0,1-6.23,3.92m2.64-6.28a9.15,9.15,0,0,0-2-1.29c.22-.36.41-.72.62-1.09a7.92,7.92,0,0,1,2,1.27c-.22.38-.44.75-.68,1.11m2.73-.57a10.1,10.1,0,0,0-.75-1.42l.67-.36a12.44,12.44,0,0,1,.7,1.36Zm1.15-.46c-.24-.48-.49-1-.77-1.45l.65-.39a9.84,9.84,0,0,1,.72,1.41Z"/><polygon class="cls-2" points="42.12 19.54 42.12 18.55 44.53 18.55 44.53 15.39 42.56 15.39 42.56 14.36 47.66 14.36 47.66 15.39 45.63 15.39 45.63 18.55 48.1 18.55 48.1 19.54 42.12 19.54"/><path class="cls-2" d="M52.93,19a7.92,7.92,0,0,1-1.59.57c-.05-.13-.62-1.32-.62-1.32s0,0,.07,0a1.67,1.67,0,0,0,.39-.06,9.14,9.14,0,0,0,2.88-1.24,15.94,15.94,0,0,0,3.37-2.8c.07.52.16,1,.24,1.55A15.55,15.55,0,0,1,52.93,19m-.21-4.26a11.27,11.27,0,0,0-1.8-2c.35-.29.69-.61,1-.91a9.78,9.78,0,0,1,1.74,1.93,7.92,7.92,0,0,1-1,1"/><path class="cls-2" d="M65.51,13.44c0,.13-.07.26-.11.39a8.1,8.1,0,0,1-.3,1,13.64,13.64,0,0,1-.8,1.84,14.13,14.13,0,0,1,1.19,1,10.77,10.77,0,0,1-.75.92c-.34-.34-.69-.67-1-1a7.87,7.87,0,0,1-3.31,2.5c-.25-.3-.52-.58-.8-.86a.09.09,0,0,1,0-.05s0,0,.06-.05a4.56,4.56,0,0,0,.52-.18,6.73,6.73,0,0,0,2.63-2.1c-.36-.3-.75-.55-1.13-.81.22-.3.42-.61.65-.9.36.25.71.52,1.06.79a7.06,7.06,0,0,0,.78-2.13l-1.83,0a10.84,10.84,0,0,1-1.91,2.54c-.3-.23-.6-.46-.92-.67A8.75,8.75,0,0,0,62,11.17l1.21.52a.11.11,0,0,1,.08.11c0,.1-.1.13-.17.13-.11.27-.22.55-.34.81a24,24,0,0,0,2.54-.13,3.47,3.47,0,0,0,.39.47,2.83,2.83,0,0,0-.16.36m-.37-1c-.22-.46-.47-.91-.74-1.36l.68-.37A14.37,14.37,0,0,1,65.76,12Zm1.23-.3a13.62,13.62,0,0,0-.74-1.42l.65-.39a8,8,0,0,1,.7,1.4Z"/><path class="cls-2" d="M75.24,16.18c-.52,0-1,0-1.38,0s-4.72,0-5.86,0c0-.42,0-1,0-1.27,0-.16.06-.09.12-.08s.44,0,.52,0c.55,0,2,0,2.59,0,1.31,0,2.6,0,4.06-.05,0,.42,0,1,0,1.39"/><path class="cls-2" d="M82.12,16.88v3.46H81V16.88H77.6v-1H81v-3.5h-3v-1h7v1h-3v3.5h3.43v1Zm-2.58-1.44c-.32-.75-.64-1.51-1-2.21l1-.53A12,12,0,0,1,80.33,15Zm5-1.93c-.32.67-.64,1.33-1,2l-.8-.37c.3-.8.57-1.61.8-2.43l1.09.49a.24.24,0,0,1,.13.18c0,.12-.15.16-.22.16"/><path class="cls-2" d="M89.82,12.55l.1.73-.74.2-.29-1h-.25a7.56,7.56,0,0,1-1,1.27l-.79-.52a6,6,0,0,0,1.34-2.63l1,.34a.15.15,0,0,1,.11.14c0,.09-.1.16-.17.17a2.25,2.25,0,0,1-.19.38h1.75v.87Zm3.07,3.73v.63h1.78v.94H92.89c0,1.61.16,2.52-1.48,2.81l-.62-.9c.62-.12,1.08-.17,1.08-1v-.87H89.23c.27.25.52.52.77.79s.39.38.57.6L89.9,20a21.15,21.15,0,0,0-1.53-1.47l.61-.68H87.3v-.94h4.57v-.64H87v-.89h3.33v-.63H88v-.9h2.37v-.72l1.09.15s0,0,0,0,0,.21-.09.23v.33H94v.9H91.35v.63h3.5v.9Zm.66-3.68-.29.9-.78-.08,0-.86h-.59a8.94,8.94,0,0,1-.56,1l-1.05-.39a7.6,7.6,0,0,0,1.24-2.42l1.06.31a.14.14,0,0,1,.11.12c0,.09-.12.12-.18.12a4.54,4.54,0,0,1-.21.45h2.4v.89Z"/><path class="cls-2" d="M103.31,15.83a.21.21,0,0,1-.13-.05c-.62.22-1.82.72-2.39,1V18.4h-1c0-.15,0-.31,0-.49v-.59c-.68.34-1,.77-1,1.26s.39.64,1.18.64a7.47,7.47,0,0,0,2.51-.42l0,1.23a6.61,6.61,0,0,1-2.16.31c-1.69,0-2.53-.56-2.53-1.69a2.13,2.13,0,0,1,.7-1.52,6.61,6.61,0,0,1,1.31-.91c0-.47-.15-.71-.4-.71a1.21,1.21,0,0,0-.89.4,7.48,7.48,0,0,0-.66.72c-.32.37-.52.62-.64.74l-.72-.86a7.47,7.47,0,0,0,2.17-2.86c-.45.06-1,.1-1.51.14,0-.4-.09-.77-.14-1.1a13.11,13.11,0,0,0,2-.11,8.57,8.57,0,0,0,.3-1.45l1.16.27a.12.12,0,0,1,.1.13.18.18,0,0,1-.13.16c0,.18-.12.45-.24.81a12.13,12.13,0,0,0,1.61-.39l-.09,1.16c-.47.1-1.11.21-1.9.33a6.57,6.57,0,0,1-.54,1.05,1.77,1.77,0,0,1,.49-.07c.53,0,.87.37,1,1.13.69-.38,1.47-.77,2.32-1.17l.4,1.18c0,.08,0,.12-.1.12"/><path class="cls-2" d="M40.07,33.53a6.61,6.61,0,0,1-2.13-.94A4.57,4.57,0,0,1,36.48,31a5.29,5.29,0,0,1-3.43,2.44l-.61-.93a4.29,4.29,0,0,0,3.09-1.87H32.48v-.94h3.4c0-.2,0-.4,0-.6H33.32v-.9h2.6v-.66h-2v-.9h2V26l1.06.07a.1.1,0,0,1,.11.11c0,.07-.07.12-.12.15v.35h2.1v.9H37v.66h2.72v.9H36.93c0,.2,0,.4,0,.6h3.55v.94H37.38a5,5,0,0,0,3.3,1.83Zm-.81-6.39V25.82H33.69v1.32h-1V24.89h3.2V23.75l1.12.08c.07,0,.15,0,.15.12a.21.21,0,0,1-.16.18v.76H40.3v2.25Z"/><path class="cls-2" d="M45.22,30.57c-.84.41-1.7.76-2.55,1.15,0,.06-.06.16-.13.16s-.08,0-.11-.11L42,30.72l1.33-.46V28h-1v-.92h1V25.26H42.24v-.91h3v.91h-.84v1.83h.75V28h-.78v2l.88-.39Zm5.41,2.65a3.72,3.72,0,0,1-1.54.28c-.7,0-1.42-.13-1.42-1.15V30.18h-.81c.08.06.51.38.51.48s-.08.11-.12.12a9.63,9.63,0,0,1-.57,1,5.48,5.48,0,0,1-2.21,1.89L43.69,33a4.32,4.32,0,0,0,2.61-2.81h-.8V24.25h4.44v5.93H48.67V32c0,.34.1.57.43.57a2.63,2.63,0,0,0,1.62-.68Zm-1.73-8H46.49V26H48.9Zm-2.41,1.67v.8H48.9v-.8Zm2.42,1.64H46.49v.87h2.42Z"/><path class="cls-2" d="M57.34,32.44a4.26,4.26,0,0,1-2.4.71c-1.28,0-2.08-.85-2.15-2.35,0-.2,0-.4,0-.6,0-.57,0-1.14,0-1.72,0-1.36.05-2.73.07-4.09l.84.15c.12,0,.25,0,.36.08s.16.07.16.17a.22.22,0,0,1-.14.18c-.1,1.83-.19,3.69-.19,5.53,0,.93.37,1.51,1.21,1.51a2.5,2.5,0,0,0,1.14-.31,4.37,4.37,0,0,0,1.82-2.21l.66,1.38a5.4,5.4,0,0,1-1.39,1.57"/><path class="cls-2" d="M67,32.88a10.17,10.17,0,0,0-2-1.5A1.7,1.7,0,0,1,63,33.14c-.89,0-2.26-.52-2.26-1.79a1.75,1.75,0,0,1,2-1.71,4.3,4.3,0,0,1,1.12.14c0-1.48-.06-3-.18-4.43,0-.36,0-.72-.11-1.07l1.2.18c.05,0,.15.06.15.15a.18.18,0,0,1-.1.14v.41c0,.46,0,.93,0,1.39h.11a10.3,10.3,0,0,0,1.24-.06l1-.17c0,.41,0,.82,0,1.24-.5,0-1,.08-1.52.08l-.71,0c0,.84,0,1.68.06,2.54a14.91,14.91,0,0,1,2.82,1.6Zm-3.15-2a2.91,2.91,0,0,0-1.19-.27c-.31,0-.8.23-.8.67,0,.65.63.82,1.07.82a.81.81,0,0,0,.92-.92Z"/><path class="cls-2" d="M72.34,33.3c-.33-.31-.66-.62-1-.9a4.29,4.29,0,0,0,2.6-1.83A3.33,3.33,0,0,0,74.28,29c0-.94-.31-1.48-1.15-1.48a7.53,7.53,0,0,0-2.56,1.13c-.06-.16-.49-1.25-.49-1.34s.09-.06.12-.06A6.06,6.06,0,0,0,71.32,27a6.32,6.32,0,0,1,2.11-.54c1.44,0,2.07,1.14,2.07,2.71a4.5,4.5,0,0,1-3.16,4.17m1.58-7.61a13.3,13.3,0,0,0-2.55-1l.5-1.13a9.7,9.7,0,0,1,2.62.95c-.18.38-.36.76-.57,1.13"/></svg>