<svg xmlns="http://www.w3.org/2000/svg" viewBox="0 0 123 123">
<defs><style>.cls-1{fill:#ec6a02;}.cls-2{fill:#fff;}</style></defs>
<rect class="cls-1" width="123" height="123"/>
<path class="cls-2" d="M11.36,32.83A6.51,6.51,0,0,1,10,28.35V28h4.21a5.44,5.44,0,0,0,.33,2.24,1.37,1.37,0,0,0,1.37.67A1.35,1.35,0,0,0,17,30.49a3,3,0,0,0,.51-1.43,22.68,22.68,0,0,0,.14-2.87V23.83a2.49,2.49,0,0,1-1.18,1,4.55,4.55,0,0,1-1.87.36,4.12,4.12,0,0,1-3.78-1.9,9.46,9.46,0,0,1-1.18-5.05q0-7.86,6.28-7.87a5.65,5.65,0,0,1,4.76,2,8.79,8.79,0,0,1,1.53,5.48v8.5a10.62,10.62,0,0,1-1.4,5.89q-1.4,2.1-4.92,2.1c-2.07,0-3.57-.49-4.48-1.49M17.6,20.71V17a6.41,6.41,0,0,0-.37-2.42,1.36,1.36,0,0,0-1.36-.89,1.34,1.34,0,0,0-1.38,1,9.91,9.91,0,0,0-.35,3.07,22,22,0,0,0,.09,2.3,2.58,2.58,0,0,0,.47,1.28,1.43,1.43,0,0,0,1.2.49,1.92,1.92,0,0,0,1.7-1.07"/><path class="cls-2" d="M92.66,80.58,78,72.14V55.25a1,1,0,0,0-.5-.86L62.41,45.66a1,1,0,0,0-1,0L46.3,54.39a1,1,0,0,0-.5.86V72.14L31.17,80.58a1,1,0,0,0-.49.86V98.91a1,1,0,0,0,.49.86L46.3,108.5a1,1,0,0,0,.5.13,1,1,0,0,0,.49-.13l14.63-8.44,14.62,8.44a1,1,0,0,0,.5.13,1,1,0,0,0,.49-.13l15.13-8.73a1,1,0,0,0,.5-.86V81.44a1,1,0,0,0-.5-.86M60.92,97.18l-12.13-7,12.13-7ZM75,72.72l-12.13,7v-14Zm-14.12,7-12.13-7,12.13-7Zm3,1.72L77,73.87l13.12,7.57L77,89ZM76,71,63.91,64,76,57ZM59.92,64,47.79,71V57ZM45.8,105.91,32.67,98.33V83.17L45.8,90.75Zm2,0v-14l12.13,7Zm43.37-7.58L78,105.91V90.75l13.13-7.58Z"/><path class="cls-2" d="M36.12,15c0,.28,0,.55,0,.82a11.73,11.73,0,0,1-.4,3.29,5.41,5.41,0,0,1-.64,1.47l-.84-.6a7.08,7.08,0,0,0,.87-3.9c0-.65,0-1.31,0-2h1.78c-.16-.32-.31-.65-.48-.95l.65-.3h-2v-1H38V10.8l1.08.07c.08,0,.17,0,.17.13a.21.21,0,0,1-.14.16v.72h3.05v1H40.08l.59.22a.12.12,0,0,1,.09.11c0,.06-.08.09-.12.1-.14.28-.26.56-.42.82h2.22V15Zm0,5.4v-.85h2.55v-.94H37.27v-.82h1.35V17H37.49a7.89,7.89,0,0,1-.66,1.61l-.74-.49a9.06,9.06,0,0,0,.79-2.85l.95.27c.05,0,.11,0,.11.11s-.07.12-.13.13-.08.25-.11.38h.92v-1l1.09.1c.06,0,.09.07.09.13s-.12.17-.19.19v.53h2.32V17H39.61v.78h1.85v.85H39.61v.92h2.65v.87Zm1.36-7.53c.13.35.31,1,.41,1.33a.36.36,0,0,1-.46-.08h1.9c.12-.41.22-.83.31-1.25Z"/><path class="cls-2" d="M51.71,20.5a6.29,6.29,0,0,1-3.2-1.95v2.07h-1V18.53a6.76,6.76,0,0,1-3.11,1.92l-.6-.87A6.13,6.13,0,0,0,46.75,18H44.16v-.87h3.36v-.42H45v-.79h2.51v-.46H44.46v-.84h1.86c-.1-.24-.19-.49-.31-.73h-2V13h1.53a8.08,8.08,0,0,0-.75-1.23l1-.59c.22.51.42,1,.62,1.56l-.5.26h.81V11l1,.09c.06,0,.1,0,.1.11s-.08.13-.13.16V13h.61V11l1,.08c.06,0,.1,0,.1.12s-.09.12-.14.14V13h.76l-.45-.24a16.59,16.59,0,0,0,.56-1.59l1,.5a.17.17,0,0,1,.12.16c0,.11-.15.12-.22.12-.22.36-.44.71-.67,1.05H52v.9H50.05c-.14.25-.29.49-.43.73h2.07v.84H48.51v.46h2.57v.79H48.51v.42h3.38V18H49.2a6.5,6.5,0,0,0,3.09,1.56ZM47.1,13.89l.14.73H48.7c.07-.24.12-.49.17-.73Z"/><path class="cls-2" d="M57.48,20.42c-1.26,0-3.28-.2-3.28-2.2a3,3,0,0,1,2.06-2.71,16,16,0,0,1-.35-3.72l.8.06.4,0a.1.1,0,0,1,.09.1.17.17,0,0,1-.06.11,7.88,7.88,0,0,0,0,1A6.63,6.63,0,0,0,57.25,15a.14.14,0,0,0,.09,0,9.92,9.92,0,0,0,2.22-.93c.13.45.22.92.32,1.38-1.1.27-4.6.94-4.6,2.67,0,1,1.3,1.17,1.91,1.17A7.67,7.67,0,0,0,60,18.8c0,.43.09.89.12,1.34a12.68,12.68,0,0,1-2.67.28"/><path class="cls-2" d="M64.7,16.29v2.26a2.43,2.43,0,0,1-1.14,2.26l-.78-.71a1.74,1.74,0,0,0,.93-1.68V16.73c-.24.17-.5.31-.75.49,0,.08,0,.22-.13.22s-.07-.05-.09-.11l-.3-1.15c.43-.19.86-.38,1.27-.59V14.1H62.65v-.93H63.7v-2l1,.13a.11.11,0,0,1,.1.1c0,.07-.08.14-.12.18v1.61h.64v.93h-.66v1.18l.76-.39v1c-.25.15-.5.28-.75.42m5.52,4.49a6.46,6.46,0,0,1-2.31-1.6,6.48,6.48,0,0,1-2.38,1.5l-.71-.79a5.41,5.41,0,0,0,2.41-1.48A8.43,8.43,0,0,1,66,16.21l.39-.37h-.69V15h1.57V13.63H65.55v-.94h1.7V11.14l1.07.09a.14.14,0,0,1,.14.16c0,.08-.12.15-.17.17v1.12h2.2v1H68.27V15H70v.63s-.11.39-.13.45a7.19,7.19,0,0,1-1.28,2.4,5.65,5.65,0,0,0,2.3,1.34Zm-3.32-5a6.05,6.05,0,0,0,1,1.89,5.87,5.87,0,0,0,.89-1.89Z"/><path class="cls-2" d="M76.41,14.53v6.2h-1V14.54H74.31V14.4c-.21.4-.4.8-.63,1.18v5.18h-1V16.88a5.39,5.39,0,0,1-.53.54l-.5-.83a8.74,8.74,0,0,0,2-3.12l.64.58v-.4h1.1V11.37l1,.1c.06,0,.15,0,.15.13a.22.22,0,0,1-.17.2v1.85h1.23v.88Zm-2.17-2.2a9.56,9.56,0,0,1-1.69,2l-.72-.66a6.58,6.58,0,0,0,1.64-2.26l.92.64a.18.18,0,0,1,.09.14.19.19,0,0,1-.24.16m.9,3.71a20.44,20.44,0,0,1-.49,3.66L73.88,19a15.89,15.89,0,0,0,.38-3.58l.93.35a.1.1,0,0,1,.06.1c0,.07-.08.13-.11.15m2,3a17.93,17.93,0,0,1-.5-3.2l.84-.25a17.34,17.34,0,0,0,.47,3ZM78,13v-.77a.11.11,0,0,1-.11.08c-.14.38-.27.77-.42,1.15l-.64-.3c.12-.48.2-1,.31-1.45l.84.41,0,.05V12h1.9v1Zm1.37,2.53v3.36a1.72,1.72,0,0,1-1.25,1.93L77.44,20a1.09,1.09,0,0,0,.93-1.23V15.53H77.6v-.92H80v.92Z"/><path class="cls-2" d="M85.78,19.39V21h-1V19.39H81.33v-.94h3.46v-.68H82.33V14.89h2.46v-.51H83.46V13.1H81.61v-.92h1.83v-1l1,.08a.12.12,0,0,1,.11.1c0,.07-.09.14-.13.17v.7h1.68v-1l1,.08a.12.12,0,0,1,.11.1c0,.07-.08.14-.13.17v.7H89v.92H87.17v1.28h-1.4v.51h2.58v2.88H85.77v.68h3.55v.94Zm-1-3.68h-1.5v1.2h1.5Zm1.36-2.65H84.47v.57h1.68Zm1.18,2.65H85.77v1.2h1.56Z"/><path class="cls-2" d="M93.36,15.57v.63H94.7V17H93.47a4.15,4.15,0,0,0,1.11,1.1l-.5.78a3.71,3.71,0,0,1-.72-.71v2.61h-.94V18.33a5.27,5.27,0,0,1-1.18,1.37L90.59,19A5.31,5.31,0,0,0,92.15,17H90.9V16.2h1.52v-.63H90.85v-.85h1a12.32,12.32,0,0,0-.48-1.19l.63-.24H91V12.4h1.4V11.17l1,.06a.13.13,0,0,1,.14.13.19.19,0,0,1-.14.18v.86h1.26v.89h-1l.61.35a.18.18,0,0,1,.09.12c0,.12-.13.15-.2.15-.12.28-.26.54-.39.81h.92v.85Zm-1-2.28c.09.4.33,1.28.41,1.69-.17.09-.47-.34-.64-.26h.93c.11-.47.21-1,.3-1.43Zm5.39,2.29v5.16h-1V15.58h-.69c0,1.76-.28,4-1.51,5.11l-.73-.64c1.24-1.16,1.29-3.14,1.29-4.9,0-1,0-2,0-3l.6,0a2.54,2.54,0,0,0,.59-.17,13,13,0,0,0,1.51-.67l.68,1.23a.14.14,0,0,1-.15.16.27.27,0,0,1-.17-.06,18.25,18.25,0,0,1-2.05.34V14.7h2.5v.88Z"/><path class="cls-2" d="M104.33,20.43c-.27-.32-.51-.65-.78-1,1.37-.41,2.64-1,2.64-3.07a2.87,2.87,0,0,0-1.82-3c-.23,1.88-.69,4.87-2.06,6a1.24,1.24,0,0,1-.8.35,1.32,1.32,0,0,1-.94-.63,4.18,4.18,0,0,1-.55-2.23c0-2.66,1.76-4.54,3.83-4.54,1.91,0,3.47,1.42,3.47,4a3.91,3.91,0,0,1-3,4.11m-3.06-5a4.39,4.39,0,0,0-.24,1.49c0,.45.07,1.6.56,1.6.18,0,.32-.21.43-.35.82-1,1.16-3.27,1.25-4.69a3.21,3.21,0,0,0-2,1.95"/><path class="cls-2" d="M42.13,32.22a6,6,0,0,1-1.51-.93v.64h-1.7v.69h2.67v.85H35.32v-.85H38v-.69H36.28v-.71a7.67,7.67,0,0,1-1.52,1l-.6-.8a5.76,5.76,0,0,0,2.36-1.7H34.45v-.93h1.86V26H34.77v-.9h1.52V24l1,.07a.1.1,0,0,1,.1.11.21.21,0,0,1-.13.16v.79H39.6V24l1,.07a.11.11,0,0,1,.12.11.21.21,0,0,1-.14.16v.79h1.43V26H40.62v2.74h1.82v.93H40.31a5.59,5.59,0,0,0,2.46,1.61Zm-3.07-2.59H37.74a6.32,6.32,0,0,1-1.28,1.44h1.48v-.92l1,.07a.11.11,0,0,1,.11.11.21.21,0,0,1-.13.17v.57h1.45a6.65,6.65,0,0,1-1.3-1.44M39.59,26h-2.3v.45h2.3Zm0,1.18h-2.3v.43h2.3Zm0,1.14h-2.3v.46h2.3Z"/><path class="cls-2" d="M51.94,30.22a5.67,5.67,0,0,1-2-.86,5.7,5.7,0,0,1-1.66.68l-.5-.69a1.28,1.28,0,0,1-1,.78l-.58-.62c.51-.15.75-.31.75-1V27.39l-.3,0v1.7H46V27.5l-.22,0a4.46,4.46,0,0,1-.86,2.82l-.79-.49a3.55,3.55,0,0,0,.74-2.21l-.43.1c0,.08-.07.15-.14.15s-.1-.08-.11-.15l-.23-.94c.3,0,.61,0,.9,0,0-.72,0-1.44,0-2.16h.94c.11-.27.2-.55.29-.84l1.11.14a.13.13,0,0,1,.11.12c0,.14-.15.19-.24.2s-.22.26-.34.38h1.22v3.75a3.08,3.08,0,0,1-.11,1,4.75,4.75,0,0,0,1.39-.55,6.15,6.15,0,0,1-.79-.82l.37-.26h-.63v-.77h.65L48,26.59A2.47,2.47,0,0,0,48.43,25c0-.24,0-.49,0-.73H51c0,.41,0,.82,0,1.23,0,.26.06.35.29.35a2.13,2.13,0,0,0,1-.5l-.07,1.08a2.58,2.58,0,0,1-1.14.3c-.67,0-1-.08-1-.94,0-.23,0-.47,0-.7h-.64a2.58,2.58,0,0,1-.57,1.81h3v.6a3.9,3.9,0,0,1-1.09,1.25,5.05,5.05,0,0,0,1.72.53ZM44.21,33.5v-.85h1V30.18h5.94v2.47h.91v.85ZM47,25.41H45.73v.51l.65-.44c.17.26.33.52.49.78l-.51.44.6,0Zm-1.23.53v.81l.59-.05a9,9,0,0,0-.59-.76M46.94,31H46.2v1.66h.74Zm1.61,0h-.73v1.66h.73Zm.77-3.3a5.09,5.09,0,0,0,.63.6,2.89,2.89,0,0,0,.61-.6Zm.89,3.3h-.78v1.66h.78Z"/><path class="cls-2" d="M61,28.89a.27.27,0,0,1-.14-.05c-.65.22-1.9.71-2.49,1v1.62H57.32c0-.15,0-.3,0-.48v-.59c-.72.34-1.08.77-1.08,1.25s.42.64,1.23.64a7.84,7.84,0,0,0,2.62-.42l0,1.23a7.43,7.43,0,0,1-2.25.3c-1.77,0-2.64-.55-2.64-1.68a2.09,2.09,0,0,1,.73-1.51,6.23,6.23,0,0,1,1.37-.9c0-.48-.17-.72-.42-.72a1.32,1.32,0,0,0-.93.4,7.13,7.13,0,0,0-.69.72c-.34.36-.54.62-.67.74l-.74-.86a7.58,7.58,0,0,0,2.26-2.85c-.48.07-1,.11-1.58.14,0-.4-.09-.77-.15-1.09a14.37,14.37,0,0,0,2.06-.11,8.36,8.36,0,0,0,.31-1.45l1.21.27c.08,0,.11.07.11.13s0,.12-.14.16-.13.45-.25.81a13.63,13.63,0,0,0,1.69-.39l-.1,1.16c-.5.1-1.16.21-2,.32a6.37,6.37,0,0,1-.56,1.05,2,2,0,0,1,.52-.07c.54,0,.9.36,1.06,1.12.72-.38,1.54-.76,2.43-1.16l.42,1.17c0,.09,0,.13-.11.13"/><path class="cls-2" d="M67.86,32.43a7.51,7.51,0,0,1-1.61.43c-.28-.33-.54-.67-.83-1a12.65,12.65,0,0,0,2.07-.55,2.58,2.58,0,0,0,1.9-2.51c0-1.39-.74-1.83-1.8-1.81-1.45.05-2.8,1.14-4.22,1.55,0-.14-.46-1.31-.46-1.36s.13-.07.19-.07a7.68,7.68,0,0,0,2.16-.61,8.33,8.33,0,0,1,2.62-.65,2.63,2.63,0,0,1,2.69,2.81,3.58,3.58,0,0,1-2.71,3.74"/><path class="cls-2" d="M77,33.52a18,18,0,0,0-2.7-3.06,9.84,9.84,0,0,0-.79-.68,2.12,2.12,0,0,1-.45-.4.91.91,0,0,1-.17-.56,1.2,1.2,0,0,1,.42-.9c.43-.46.88-.89,1.3-1.36.63-.72,1.27-1.43,1.88-2.19l.78.65a2.48,2.48,0,0,1,.3.25.14.14,0,0,1,0,.1c0,.15-.2.17-.29.15-.6.56-1.21,1.12-1.81,1.7-.25.24-.49.5-.74.74s-.25.23-.36.35a.65.65,0,0,0-.21.42.42.42,0,0,0,.16.32c.38.35.8.66,1.18,1A17.85,17.85,0,0,1,78,32.62c-.32.29-.62.61-.94.9"/><path class="cls-2" d="M82.93,33.4a4.59,4.59,0,0,0-.48-.87s0-.06,0-.09,0,0,.07,0a8.36,8.36,0,0,0,1.32-.17,2,2,0,0,0,1.79-2,1.31,1.31,0,0,0-1.47-1.45,3,3,0,0,0-2.36,1.47c-.36.48-.68,1-1,1.47l-.92-.83a30.6,30.6,0,0,0,2.57-3.55,10.4,10.4,0,0,0,.78-1.38c-.24,0-.47.12-.71.19-.42.11-.85.24-1.28.33-.07-.41-.13-.82-.21-1.23a19.79,19.79,0,0,0,3-.51,5,5,0,0,0,.62-.2,7.27,7.27,0,0,1,.57.89c0,.11-.11.14-.17.15A17.58,17.58,0,0,0,83.12,28a4.2,4.2,0,0,1,1.17-.18,2.31,2.31,0,0,1,2.45,2.55c0,2.24-2.26,3-3.81,3"/><path class="cls-2" d="M91,33.58c-.33-.32-.67-.64-1-.92a4.34,4.34,0,0,0,2.59-1.88,3.52,3.52,0,0,0,.35-1.58c0-1-.3-1.51-1.14-1.51a7.31,7.31,0,0,0-2.54,1.15c-.07-.16-.5-1.27-.5-1.37s.09-.07.13-.07A5.28,5.28,0,0,0,90,27.09a6,6,0,0,1,2.1-.55c1.44,0,2.06,1.17,2.06,2.77A4.59,4.59,0,0,1,91,33.58m1.57-7.78a12.43,12.43,0,0,0-2.54-1l.5-1.17a10.2,10.2,0,0,1,2.61,1c-.18.39-.36.78-.57,1.16"/></svg>