<svg xmlns="http://www.w3.org/2000/svg" viewBox="0 0 123 123">
<defs><style>.cls-1{fill:#00a6d8;}.cls-2{fill:#fff;}</style></defs>
<rect class="cls-1" width="123" height="123"/>
<path class="cls-2" d="M11.44,32.39a9.25,9.25,0,0,1-1.55-5.62V18.43a10.64,10.64,0,0,1,1.39-5.92q1.4-2.1,4.89-2.1c2.09,0,3.59.49,4.52,1.48a6.36,6.36,0,0,1,1.42,4.45l0,.41H17.88a5.51,5.51,0,0,0-.32-2.27,1.31,1.31,0,0,0-1.33-.65,1.41,1.41,0,0,0-1.11.43,2.78,2.78,0,0,0-.55,1.45,19,19,0,0,0-.16,2.86V21a2.45,2.45,0,0,1,1.21-1,4.82,4.82,0,0,1,1.91-.36,4.16,4.16,0,0,1,3.78,1.81,8.9,8.9,0,0,1,1.18,4.93,10.65,10.65,0,0,1-1.45,6q-1.45,2.13-4.84,2.13a5.54,5.54,0,0,1-4.76-2.08m6.2-2.22A9.58,9.58,0,0,0,18,27.09a22.09,22.09,0,0,0-.09-2.29,2.5,2.5,0,0,0-.48-1.3,1.44,1.44,0,0,0-1.2-.5,1.93,1.93,0,0,0-1.08.32,2.43,2.43,0,0,0-.74.76v3.73c0,2.22.62,3.33,1.85,3.33a1.36,1.36,0,0,0,1.38-1"/><path class="cls-2" d="M84.26,49.68a.58.58,0,0,0-.41-.18H39a.57.57,0,0,0-.4.18.53.53,0,0,0-.11.43L46,95.66a.53.53,0,0,0,.52.44H55.8l.63,7.42H52.54l9.05,9,9.08-9.07H66.78l.63-7.4h9.4a.53.53,0,0,0,.52-.45l7-45.54a.59.59,0,0,0-.12-.43M66.93,86.15A7.17,7.17,0,0,1,61.58,88a7.17,7.17,0,0,1-5.35-1.86c-3.36-3.36-2.16-7.53-1-9.69.72-1.35,5.88-9.1,6.32-9.76v0l0,0,0,0v0c.43.66,5.6,8.41,6.32,9.76,1.17,2.16,2.37,6.33-1,9.69M81.15,59.27a5.53,5.53,0,0,0-4.23.25c-5.56,2.26-9.35,3.07-15.2,1.24-3.68-1.16-7.13-3.57-11.21-2.1-2.7,1-5.22,1.9-8.28,1.87l-1.76-9.05h42Z"/><path class="cls-2" d="M39,16.21a9.42,9.42,0,0,1-1.13,2.24,19.89,19.89,0,0,1,2.51,1.48l-.73.93a14.63,14.63,0,0,0-2.49-1.7,7.71,7.71,0,0,1-3.69,1.54l-.64-1a6.25,6.25,0,0,0,3.29-1.07,12.45,12.45,0,0,0-2.2-.62,13.68,13.68,0,0,0,.91-1.84H32.69v-1h2.59a14.68,14.68,0,0,0,.64-1.83l1.21.37a.11.11,0,0,1,.08.11c0,.1-.13.15-.2.16-.19.4-.36.8-.56,1.19h4.39v1Zm.27-1.6v-1.3H34.17v1.3H33.09V12.37h3V11.14l1.17.08c.08,0,.18,0,.18.12s-.09.13-.14.16v.87h3.11v2.24ZM36,16.22c-.2.39-.37.79-.58,1.18a12,12,0,0,1,1.51.57,6.2,6.2,0,0,0,.86-1.75Z"/><path class="cls-2" d="M50.59,16.11a8.8,8.8,0,0,1-1.09-.75v.44H47.37v1.3H50v1H47.37v1.52h3.31v.94H43.05v-.94h3.22V18.06H43.66v-1h2.61V15.8H44.19v-.44a7.84,7.84,0,0,1-1.1.74l-.7-.93a8.29,8.29,0,0,0,3.86-4.06l1.19.2a.16.16,0,0,1,.13.14.18.18,0,0,1,0,.1,9.41,9.41,0,0,0,3.83,3.58ZM46.81,12.5a9.6,9.6,0,0,1-2,2.33h4a11.59,11.59,0,0,1-2-2.33"/><path class="cls-2" d="M57.13,13.93c-.47.13-.92.23-1.38.32a21.56,21.56,0,0,1-2.06,4.94,9.78,9.78,0,0,1-1-.57,16.62,16.62,0,0,0,1.9-4.25,9.58,9.58,0,0,1-1.41.12c-.05-.37-.11-.74-.15-1.12a4.43,4.43,0,0,0,.52,0,9.6,9.6,0,0,0,1.31-.08,11.2,11.2,0,0,0,.26-1.83c.44.07.88.12,1.31.21-.11.49-.23,1-.38,1.47a11.58,11.58,0,0,0,1.14-.36c0,.37,0,.75,0,1.13m2.61,6.25a8.35,8.35,0,0,0-1.3-1.09c0,.12,0,.23,0,.35,0,1.08-.73,1.38-1.58,1.38a2.82,2.82,0,0,1-.9-.14,1.7,1.7,0,0,1-1.17-1.5,1.55,1.55,0,0,1,1.67-1.6,5,5,0,0,1,.77.06c0-.49-.06-1-.06-1.48a1.94,1.94,0,0,1,.11-.72h.85c.06,0,.33,0,.33.08a.09.09,0,0,1,0,.05,1.3,1.3,0,0,0-.17.64c0,.56,0,1.11.09,1.66a7.27,7.27,0,0,1,2,1.26c-.22.36-.45.72-.69,1.05m-2.42-1.52a1.53,1.53,0,0,0-.68-.12c-.35,0-.8.11-.8.6s.55.71.92.71.6-.07.6-.53a4.87,4.87,0,0,0,0-.66m2.51-3.22a6,6,0,0,0-2.29-1.22l.54-1.05a6,6,0,0,1,2.36,1.21Z"/><path class="cls-2" d="M65.64,14.73a9.9,9.9,0,0,1-1.3,3.34A5.57,5.57,0,0,1,63,19.46l-.89-.72a5.28,5.28,0,0,0,.79-.71,6.84,6.84,0,0,0,1.61-3.47h-2v-1h3.14v.72a2.17,2.17,0,0,1-.08.43m4.8,4.92a10.9,10.9,0,0,1-3-4.55c0,1.22,0,2.44,0,3.66,0,1.4-.43,2-1.67,2.22l-.8-.91a4.09,4.09,0,0,0,.61-.1c.68-.25.72-.74.72-1.46,0-1.8,0-3.62,0-5.43V11.31l1.21.19a.13.13,0,0,1,.12.13.26.26,0,0,1-.19.22v2.56a25.24,25.24,0,0,0,2.48-1.51L70.58,14a.58.58,0,0,1,.09.21.11.11,0,0,1-.12.11.29.29,0,0,1-.17-.08c-.66.22-1.31.49-2,.72a8.53,8.53,0,0,0,2.93,3.76Z"/><path class="cls-2" d="M76.72,20.36c-1.33,0-3.45-.2-3.45-2.21,0-1.47,1.12-2.22,2.16-2.72a16.15,16.15,0,0,1-.37-3.74l.85.07.42,0s.1,0,.1.09a.21.21,0,0,1-.07.12,7.78,7.78,0,0,0,0,1,6.05,6.05,0,0,0,.18,1.89s.05,0,.08,0A10.61,10.61,0,0,0,78.91,14c.14.45.23.93.35,1.39-1.17.27-4.86.94-4.86,2.68,0,1,1.38,1.18,2,1.18a8.17,8.17,0,0,0,3-.48c.06.44.11.9.13,1.35a14,14,0,0,1-2.81.28"/><path class="cls-2" d="M86.35,17.81A14.09,14.09,0,0,0,83.7,16.1c0,.18,0,.35,0,.51V19c0,.64,0,1.28,0,1.91H82.45c.06-1.37.07-2.75.07-4.13,0-1.6,0-3.2,0-4.79l1.31.14a.12.12,0,0,1,.13.12.24.24,0,0,1-.15.2c0,1,0,2-.06,2.93a4,4,0,0,0,.32-.52,12.34,12.34,0,0,1,3,1.81l-.72,1.12"/><path class="cls-2" d="M94.93,12.9a12.88,12.88,0,0,1-1.7,2v6H92l0-5.08a14.54,14.54,0,0,1-1.2.86,11.88,11.88,0,0,1-1.39.77l-.76-1.05a9.57,9.57,0,0,0,1.9-1,10.27,10.27,0,0,0,1.71-1.4,9.59,9.59,0,0,0,1.59-2.14l1.14.73a.12.12,0,0,1,.06.12c0,.12-.12.14-.18.14"/><path class="cls-2" d="M99.36,20.46a4.86,4.86,0,0,0-.65.39c-.28-.27-.57-.55-.86-.79a2.41,2.41,0,0,0,.13-.88c0-.65,0-1.3,0-1.94,0-1.62,0-3.34,0-5l1.26.15a.13.13,0,0,1,.12.13.27.27,0,0,1-.13.2c0,1.51-.06,3.14-.06,4.65V19c0,.05,0,.07.06.07l.11,0a10.22,10.22,0,0,0,3.92-3.18c.11-.17.22-.35.34-.52a.09.09,0,0,1,.07,0s0,.06,0,.1c.06.53.13,1,.22,1.59a11.55,11.55,0,0,1-4.5,3.45"/><path class="cls-2" d="M40.88,29.59a.2.2,0,0,1-.14-.06c-.69.23-2,.72-2.62,1v1.63H37c0-.15,0-.31,0-.48v-.6c-.76.34-1.13.77-1.13,1.26s.43.64,1.29.64a8.56,8.56,0,0,0,2.75-.42l0,1.24a8.32,8.32,0,0,1-2.38.3c-1.85,0-2.78-.56-2.78-1.69a2.08,2.08,0,0,1,.78-1.52,6.73,6.73,0,0,1,1.43-.9c0-.48-.17-.72-.44-.72a1.41,1.41,0,0,0-1,.4,7.88,7.88,0,0,0-.73.72l-.7.75-.79-.87a7.68,7.68,0,0,0,2.39-2.86c-.51.07-1.06.11-1.67.14,0-.4-.09-.77-.15-1.1a18.15,18.15,0,0,0,2.17-.1,9.38,9.38,0,0,0,.32-1.46l1.27.28q.12,0,.12.12c0,.06,0,.12-.15.16s-.14.45-.26.81a14.79,14.79,0,0,0,1.77-.39L39,27c-.52.11-1.22.22-2.08.33a6.25,6.25,0,0,1-.59,1.05,2.08,2.08,0,0,1,.54-.07c.57,0,.95.37,1.12,1.13.76-.38,1.62-.77,2.55-1.17L41,29.46c0,.09,0,.13-.11.13"/><path class="cls-2" d="M49.62,28.4v3.12H46.2V28.4H45v4.48h5.67v1H43.89V28.4H42.51v-1h1.38V25.05l1.12.06a.14.14,0,0,1,.15.13.2.2,0,0,1-.16.18v2h1.18V24.84l1.1.05a.14.14,0,0,1,.15.13.22.22,0,0,1-.15.18v2.19h1.21V24.84l1.12.05a.14.14,0,0,1,.15.13c0,.08-.1.16-.16.18v2.19h1.46v1Zm-1.12,0H47.26v2.17H48.5Z"/><path class="cls-2" d="M60.49,32.11a8.14,8.14,0,0,1-2-1.24v3.31h-1V30l-.55-.69h-.62a6.17,6.17,0,0,1-.67.76l.48.08c.06,0,.15,0,.15.12a.2.2,0,0,1-.16.19,5.09,5.09,0,0,1-.76,2.81A3.58,3.58,0,0,1,54,34.36l-.85-.73c1.38-.52,1.79-1.37,1.86-3a8.21,8.21,0,0,1-2.13,1.41l-.65-.88a7.79,7.79,0,0,0,1.64-.86,4.55,4.55,0,0,0,1.07-1H53.39v-4.4H60v4.4H58.21a6.55,6.55,0,0,0,3,1.83ZM56.1,25.82H54.45v.94H56.1Zm0,1.83H54.45v.9H56.1Zm2.78-1.83H57.13v.94h1.75Zm0,1.83H57.13v.9h1.75Z"/><path class="cls-2" d="M66.88,31.19v3H65.77v-3H62.6v-4.8h3.12V24.61l1.17.09a.14.14,0,0,1,.15.13.2.2,0,0,1-.16.18v1.38h3.25v4.8Zm-1.12-3.81H63.7v2.86h2.06Zm3.24,0H66.87v2.86H69Z"/><path class="cls-2" d="M73.94,33.75l-1,.12a14,14,0,0,1-.47-4.15,27,27,0,0,1,.47-4.66l.8.18a2.85,2.85,0,0,1,.39.11.13.13,0,0,1,.1.14.15.15,0,0,1-.14.14,21.24,21.24,0,0,0-.53,4.84c0,.4,0,.78,0,1.18.17-.5.32-1,.5-1.5l.68.64a10.46,10.46,0,0,0-.81,3m5.9-.32a7.13,7.13,0,0,1-1.66.1c-1.31,0-2.52-.26-2.68-2.25.3-.23.61-.48.93-.7,0,1.13.53,1.64,1.38,1.67a5.69,5.69,0,0,0,2-.25c0,.48,0,1,0,1.43m-.22-6.1a7.19,7.19,0,0,0-2.12-.13,9.12,9.12,0,0,0-1.46.26c0-.4-.06-.88-.11-1.28A11,11,0,0,1,78,25.93a7.67,7.67,0,0,1,1.72.09c0,.43-.06.88-.1,1.31"/></svg>