<?xml version="1.0" encoding="UTF-8"?><svg xmlns="http://www.w3.org/2000/svg" viewBox="0 0 160 60"><defs><style>.d{fill:#fff;}</style></defs><g id="a"/><g id="b"><g id="c"><g><rect class="d" width="160" height="60"/><g><path d="M29.69,27.31h-7.09v1.14h5.92v6.24h-4.9c1.69,1.84,4.38,3.22,6.25,3.82l-.79,1.32c-.79-.34-4.02-1.73-6.49-4.58v4.91h-1.34v-4.91c-1.51,1.93-4.02,3.56-6.49,4.59l-.8-1.31c2.45-.91,4.7-2.18,6.27-3.86h-4.86v-6.24h5.89v-1.14h-7.09v-1.26h7.09v-1.44h1.34v1.44h7.09v1.26Zm-13.03,2.3v1.41h4.59v-1.41h-4.59Zm0,2.5v1.44h4.59v-1.44h-4.59Zm10.58-2.5h-4.64v1.41h4.64v-1.41Zm0,2.5h-4.64v1.44h4.64v-1.44Z"/><path d="M37.55,37.43c-.54-.54-1.09-1.11-1.71-1.98v4.71h-1.29v-4.63c-1.02,1.41-2.01,2.3-3.2,3.25l-.7-1.21c1.41-.94,2.73-2.1,3.64-3.5h-3.17v-1.22h3.44v-1.76h-3.61v-1.21h2.01c0-.39-.25-1.88-.49-2.58h-1.22v-1.21h3.3v-1.48h1.29v1.48h2.97v1.21h-.91c-.05,.25-.32,1.79-.55,2.58h1.69v1.21h-3.2v1.76h2.9v1.22h-2.73c.29,.4,.96,1.22,2.26,2.18l-.72,1.17Zm-1.43-7.55c.22-.74,.44-1.93,.5-2.58h-2.93c.27,.96,.47,2.4,.49,2.58h1.95Zm4.9,.03h5.38v1.27h-1.81v8.97h-1.37v-8.97h-2.2v.86c0,5.08-1.59,7.13-2.31,8.07l-1.24-.89c.77-.92,2.2-2.63,2.2-7.19v-6.22c2.06,.02,3.96-.34,5.87-1.12l.7,1.29c-1.34,.5-2.75,.89-5.22,1.07v2.87Z"/><path d="M50.85,40.15h-1.36v-8.7c-.6,.96-.99,1.34-1.41,1.76l-.7-1.58c1.51-1.54,2.88-4.33,3.45-7.06l1.36,.23c-.13,.64-.39,1.95-1.34,4.14v11.2Zm11.99-10.88h-4.56v3.61h3.94v1.29h-3.94v4.12h4.93v1.31h-11.34v-1.31h5.01v-4.12h-4.04v-1.29h4.04v-3.61h-4.61v-1.29h10.56v1.29Zm-4.28-1.53c-.99-.82-2.11-1.54-3.3-2.13l.84-1.11c.94,.4,2.15,1.06,3.3,2.05l-.84,1.19Z"/><path d="M80.11,38.47l-.3,1.29h-7.18c-3.22,0-5.01-1.51-5.53-2.01-.87,1.51-1.66,2.16-1.98,2.43l-.82-1.21c.5-.44,1.26-1.09,1.93-2.3-.94-1.46-1.26-2.9-1.44-3.76l1.17-.27c.15,.8,.35,1.63,.82,2.72,.23-.74,.49-1.78,.62-3.61h-2.9v-1.38c.74-.84,2-2.46,2.67-3.84h-2.72v-1.26h4.23v1.21c-.84,1.71-1.66,2.77-2.73,4.06h2.73c-.12,2.82-.6,4.93-1.06,6.09,.17,.18,1.81,1.83,5.22,1.83h7.28Zm-5.35-12.76h4.11v2.41h1.07v1.11h-1.07v2.41h-4.11v1.17h4.49v1.11h-4.49v1.31h5.11v1.14h-5.11v1.53h-1.31v-1.53h-4.56v-1.14h4.56v-1.31h-3.99v-1.11h3.99v-1.17h-3.45v-1.12h3.45v-1.29h-4.56v-1.11h4.56v-1.27h-3.45v-1.14h3.45v-1.09h1.31v1.09Zm2.85,1.14h-2.85v1.27h2.85v-1.27Zm0,2.38h-2.85v1.29h2.85v-1.29Z"/><path d="M88.35,38.06c2.63-.23,4.02-.65,4.96-1.59,1.29-1.29,1.46-3.2,1.46-4.23,0-1.96-.97-4.96-5.1-5.08-.03,3.37-1.29,10.97-5,10.97-1.96,0-3.14-2.35-3.14-4.81,0-4.16,2.92-7.51,7.9-7.51,4.66,0,6.98,2.85,6.98,6.54,0,6.37-5.37,6.96-7.58,7.13l-.49-1.41Zm-2.97-9.73c-2.4,1.76-2.4,4.68-2.4,5.11,0,1.26,.42,3.17,1.73,3.17,.89,0,1.44-.89,1.78-1.53,.5-.99,1.58-3.91,1.69-7.85-.6,.1-1.69,.27-2.8,1.09Z"/><path d="M106.9,29.49c.02-2.13-.85-2.65-3.52-2.65-1.49,0-3.29,.07-3.29,2.35,0,1.29,.65,1.76,1.86,1.89l3.66,.4c1.14,.12,3.5,.42,3.5,3.56,0,3.37-2.55,3.86-5.3,3.86-4.19,0-5.38-1.36-5.43-4.41h1.63c-.02,1.91,.4,2.97,3.84,2.97,2.8,0,3.66-.65,3.66-2.35,0-1.53-.67-2.06-2.06-2.21l-3.96-.42c-2.58-.27-2.95-2.18-2.95-3.39,0-3.67,3.42-3.67,4.81-3.67,4.8,0,5.13,1.95,5.18,4.08h-1.63Z"/><path d="M117.14,25.54c3.07,0,5.52,.52,5.52,6.57,0,4.81-1.14,6.64-5.13,6.64h-6.09v-13.21h5.7Zm-4.07,1.46v10.3h4.34c2.92,0,3.64-1.07,3.64-5.16,0-4.56-1.27-5.13-3.89-5.13h-4.09Z"/><path d="M134.65,29.77c.05-2.82-2.26-2.92-3.96-2.92-3.35,0-4.23,.97-4.23,5.5,0,3.59,.39,5.1,4.04,5.1s4.26-.82,4.23-4.12h-4.29v-1.38h5.9c0,2.87,0,3.56-.45,4.65-.81,2-2.97,2.3-5.18,2.3-4.31,0-5.85-1.31-5.85-6.62,0-4.56,.84-6.86,5.79-6.86,1.68,0,5.63,0,5.63,4.36h-1.63Z"/><path d="M145.25,31.75c0-.91-.2-1.66-2.55-1.66-2,0-2.73,.4-2.73,1.69,0,.75,.32,1.01,1.44,1.14l3.27,.37c1.26,.13,2.38,.69,2.38,2.63,0,2.88-2.63,2.97-4.29,2.97-3.77,0-4.36-1.31-4.39-3.37h1.48c.02,1.16,.02,2.03,3.14,2.03,2.26,0,2.58-.7,2.58-1.63,0-1.09-.49-1.26-1.56-1.38l-3.2-.37c-.5-.05-2.23-.25-2.23-2.4,0-3.04,2.95-3.04,4.14-3.04,3.87,0,3.99,1.76,4.02,3h-1.49Z"/></g></g></g></g></svg>