<?xml version="1.0" encoding="UTF-8"?><svg xmlns="http://www.w3.org/2000/svg" viewBox="0 0 160 60"><defs><style>.d{fill:#fff;}.e{fill:#282828;}</style></defs><g id="a"/><g id="b"><g id="c"><g><rect class="d" width="160" height="60"/><g><path class="e" d="M23.06,36.36h-2.77c1.21,1.06,2.68,1.88,4.4,2.46-.57,.49-1.08,1.11-1.52,1.85-1.61-.69-3.09-1.75-4.44-3.17v3.27h-2.22v-3.19c-1.27,1.35-2.72,2.37-4.35,3.06-.44-.7-.92-1.29-1.45-1.78,1.66-.58,3.09-1.41,4.3-2.5h-2.65v-5.73h4.15v-.61h-5.35v-1.98h5.35v-1.11h2.22v1.11h5.49v1.98h-5.49v.61h4.34v5.73Zm-8.63-4.18v.58h2.08v-.58h-2.08Zm0,2.02v.6h2.08v-.6h-2.08Zm6.46-2.02h-2.16v.58h2.16v-.58Zm0,2.62v-.6h-2.16v.6h2.16Z"/><path class="e" d="M31.94,37.34l-1.21,1.49c-.07-.08-.18-.22-.36-.41-.17-.19-.3-.32-.38-.42v2.75h-2.05v-2.42c-.48,.65-.99,1.19-1.51,1.62-.46-.65-.92-1.15-1.37-1.51,.96-.63,1.78-1.47,2.48-2.55h-2.02v-1.76h2.42v-.88h-2.46v-1.72h1.18c-.05-.38-.17-.82-.37-1.31l.78-.19h-1.42v-1.71h2.29v-1.24h2.05v1.24h2.29v1.71h-1.18l.63,.11c-.07,.14-.17,.37-.31,.7-.14,.32-.24,.55-.31,.68h1.25v1.72h-2.38v.88h2.23v1.76h-2.23c.15,.12,.36,.27,.63,.46,.27,.19,.54,.4,.83,.6,.28,.21,.44,.33,.49,.37Zm-2.13-7.3h-1.81c.23,.54,.36,.98,.4,1.32l-.64,.17h2.49l-.88-.17c.22-.59,.37-1.03,.44-1.32Zm4.95-.09v1.74h4.37v1.96h-1.24v7.04h-2.05v-7.04h-1.08c-.07,3.23-.81,5.61-2.22,7.13-.12-.23-.35-.49-.67-.8-.32-.3-.61-.52-.85-.64,.38-.42,.69-.89,.94-1.41,.25-.52,.42-1.07,.53-1.65,.11-.58,.18-1.1,.21-1.56,.03-.46,.05-.99,.05-1.58v-5.09l1.15,.33c1.56-.42,2.74-.85,3.54-1.29l1.68,1.52c-1.05,.48-2.51,.93-4.37,1.35Z"/><path class="e" d="M43.03,26.97l1.96,.64c-.45,1.06-.88,1.96-1.29,2.7v10.41h-2.01v-7.38c-.29,.37-.63,.74-1,1.11-.09-.27-.24-.64-.48-1.11-.23-.47-.43-.84-.6-1.1,.67-.64,1.32-1.44,1.93-2.38,.62-.94,1.11-1.91,1.48-2.9Zm7.14,11.35h3.59v2.02h-9.45v-2.02h3.7v-2.46h-2.93v-1.99h2.93v-2.16h-3.4v-2.01h3.61c-.69-.48-1.37-.91-2.02-1.28l1.39-1.52c1.54,.78,2.66,1.48,3.37,2.09l-.64,.71h3.21v2.01h-3.37v2.16h2.97v1.99h-2.97v2.46Z"/><path class="e" d="M57.93,31.74l1.24,.27c-.14,2.11-.46,3.87-.94,5.29,.62,.44,1.33,.73,2.13,.88,.81,.15,1.78,.23,2.92,.24,2.61,0,4.32-.02,5.15-.06-.36,.54-.63,1.23-.81,2.08h-4.4c-1.28,0-2.39-.09-3.33-.28-.94-.19-1.77-.53-2.5-1.02-.4,.69-.89,1.26-1.46,1.71-.17-.22-.42-.48-.76-.78-.34-.3-.61-.51-.83-.63,.64-.45,1.16-1.04,1.57-1.78-.54-.74-1-1.69-1.38-2.85l1.64-.55c.12,.38,.31,.81,.55,1.29,.16-.65,.28-1.3,.36-1.93h-.58l-.14,.34-1.91-.48c.54-1.18,1.11-2.49,1.71-3.95h-1.65v-1.83h2.56l.3-.07,1.45,.37c-.45,1.21-.95,2.48-1.52,3.8h.31l.34-.04Zm4.18-2.09v-.34h-2.52v-1.56h2.52v-.68h2.06v.68h2.93v1.91h1.09v1.61h-1.09v1.91h-2.93v.38h3.04v1.51h-3.04v.38h3.71v1.65h-3.71v.98h-2.06v-.98h-3.29v-1.65h3.29v-.38h-2.65v-1.51h2.65v-.38h-2.58v-1.58h2.58v-.33h-3.5v-1.61h3.5Zm2.92-.34h-.85v.34h.85v-.34Zm0,2.28v-.33h-.85v.33h.85Z"/><path class="e" d="M74.27,38.21c1.34-.1,4.12-.32,4.12-3.67,0-2.08-1.21-2.96-2.63-3.08-.06,1.08-.54,7.6-3.87,7.6-1.68,0-2.73-1.71-2.73-3.66,0-2.75,1.93-5.8,6.04-5.8,2.86,0,5.27,1.57,5.27,5.12,0,1.42-.41,2.89-1.69,4.03-1.22,1.07-3.11,1.27-3.77,1.34l-.73-1.88Zm-3.14-2.84c0,.47,.14,1.59,.85,1.59,.95,0,1.66-2.44,1.89-5.42-2.74,.8-2.74,3.51-2.74,3.82Z"/><path class="e" d="M82.12,32.82v-2.95h12.56v2.95h-4.01c-.1,1.37-.43,2.52-.98,3.43-.55,.91-1.24,1.63-2.05,2.16-.82,.53-1.6,.91-2.35,1.16-.75,.24-1.37,.4-1.87,.47-.49,.07-.75,.1-.76,.09v-3.1s.26-.02,.73-.09c.48-.07,1.04-.24,1.69-.5,.65-.26,1.2-.68,1.66-1.25,.46-.57,.73-1.36,.82-2.36h-5.43Zm.54-4.97v-2.95h11.5v2.95h-11.5Z"/><path class="e" d="M108.4,24.62c-.54,1.12-1.2,2.17-1.97,3.16-.78,.99-1.49,1.85-2.13,2.58v10.13h-3.04v-7.78c-.99,.8-1.94,1.43-2.85,1.91s-1.64,.81-2.18,.99c-.54,.19-.82,.28-.83,.28v-3.1s.34-.13,.98-.39c.64-.26,1.46-.7,2.46-1.31,1-.61,2.03-1.44,3.11-2.5,1.08-1.06,2.07-2.38,2.99-3.96h3.47Z"/><path class="e" d="M109.34,27.91v-3.02h5.64v3.02h-5.64Zm12.81,.44c-.64,2.35-1.5,4.26-2.58,5.74-1.08,1.48-2.2,2.62-3.36,3.42-1.16,.8-2.26,1.37-3.3,1.71-1.04,.33-1.89,.53-2.55,.59-.66,.06-1,.08-1.01,.07v-3.14s.28,0,.79-.03c.51-.03,1.17-.16,1.97-.39,.8-.23,1.65-.67,2.53-1.33,.89-.66,1.71-1.49,2.46-2.5,.75-1.01,1.42-2.39,1.99-4.13h3.06Zm-12.81,4.24v-3.02h5.64v3.02h-5.64Z"/><path class="e" d="M123.36,31.9v-2.54l1.71-.08-.29-2.5h2.52l.29,2.43,6.86-.21v2.54c-.24,1.07-.66,1.98-1.23,2.75-.58,.76-1.15,1.37-1.72,1.8-.57,.44-1.27,.87-2.11,1.29v-2.79c.41-.22,.77-.47,1.07-.75,.3-.28,.58-.59,.82-.93,.24-.34,.45-.77,.62-1.28l-3.99,.13,1.06,8.75h-2.5l-1.08-8.69-2.02,.1Z"/><path class="e" d="M142.34,24.17c-.05,.36-.12,.71-.19,1.04-.08,.33-.15,.65-.23,.96h6.34v2.95c-.14,1.67-.51,3.14-1.1,4.42-.59,1.28-1.3,2.33-2.13,3.15-.83,.82-1.68,1.48-2.54,1.98-.87,.5-1.68,.9-2.43,1.19-.75,.3-1.36,.5-1.84,.61-.47,.11-.72,.16-.73,.14v-3.12s.27-.05,.76-.18c.49-.14,1.1-.38,1.82-.72,.72-.35,1.47-.87,2.25-1.58,.78-.71,1.42-1.52,1.9-2.45,.48-.92,.81-2.1,.97-3.53h-4.45c-.75,1.16-1.47,2.09-2.18,2.81-.71,.72-1.29,1.25-1.76,1.58-.47,.33-.72,.49-.74,.48v-3.72s.16-.12,.43-.36c.28-.24,.59-.62,.95-1.15,.36-.53,.71-1.15,1.05-1.88,.34-.73,.61-1.61,.8-2.65h3.04Z"/></g></g></g></g></svg>