<?xml version="1.0" encoding="UTF-8"?>
<svg id="_レイヤー_2" data-name="レイヤー 2" xmlns="http://www.w3.org/2000/svg" viewBox="0 0 160 60">
  <defs>
    <style>
      .cls-1 {
        fill: #df1614;
      }

      .cls-1, .cls-2 {
        stroke-width: 0px;
      }

      .cls-2 {
        fill: #fff;
      }
    </style>
  </defs>
  <g id="_文字" data-name="文字">
    <g>
      <rect class="cls-2" width="160" height="60"/>
      <g>
        <path class="cls-1" d="m59.34,28.88v-2.53h5.06v2.53h-5.06Zm10.11-1.35v11.46l-2.53,2.53h-7.58v-3.14h2.53v.61h4l1.05-1.03v-10.43h2.53Zm-10.11,6.4v-2.53h5.06v2.53h-5.06Z"/>
        <path class="cls-1" d="m80.85,38.97v2.53h-10.11v-2.53h3.79v-7.56h-2.53v-2.53h7.58v2.53h-2.53v7.56h3.79Z"/>
        <path class="cls-1" d="m82.11,41.49v-15.15h2.02v15.15h-2.02Zm10.11-10.09v7.56l-2.53,2.53h-4.07v-15.15h2.53v12.62h.48l1.05-1.03v-6.53h2.53Z"/>
        <path class="cls-1" d="m93.91,33.93v-2.53h.21l1.05-1.05v-4h8.85v12.64l-2.53,2.53h-6.32v-2.53h5.27l1.05-1.05v-2.74h-2.57v-2.53h2.57v-3.79h-3.79v2.53l-2.53,2.53h-1.26Z"/>
        <path class="cls-1" d="m113.53,32.5v2.53h-8.09v-2.53h8.09Z"/>
        <path class="cls-1" d="m117.15,41.54h-2.68l1.26-15.17h2.68l-1.26,15.17Zm4.74,0h2.7l-1.26-15.17h-2.7l1.26,15.17Z"/>
        <path class="cls-1" d="m135.97,39.01l-2.53,2.53h-6.3v-2.53h5.27l1.03-1.05v-7.6h-5.03v2.51h-2.53v-5.03h3.79v-1.45h2.53v1.45h3.77v11.19Z"/>
        <path class="cls-1" d="m144.82,34.29l3.01,7.23h-2.95l-1.77-4.19-2.38,4.19h-2.95v-2.53h1.47l5.48-9.69-.42-.42h-6.53v-2.53h7.58l2.53,2.53-3.08,5.41Z"/>
        <rect class="cls-1" x="48.49" y="29.85" width="4.72" height="1.32"/>
        <path class="cls-1" d="m53.87,39.88h-5.7c-.52,0-.78-.28-.78-.85v-.19h7.9v-6.58h-18.36v6.58h7.95v.5c0,.74.2,1.31.6,1.71.4.4.95.6,1.66.6h6.98c.44,0,.89-.03,1.33-.11.36-.05.7-.17,1.02-.34v-2c-.37.23-.78.4-1.21.51-.46.12-.92.18-1.4.18Zm-6.48-6.18h5.31v1.11h-5.31v-1.11Zm0,2.57h5.31v1.11h-5.31v-1.11Zm-2.5,1.11h-5.33v-1.11h5.33v1.11Zm0-2.57h-5.33v-1.11h5.33v1.11Z"/>
        <polygon class="cls-1" points="47.38 24.61 47.38 23.48 55.9 23.48 55.9 21.64 36.32 21.64 36.32 23.48 44.88 23.48 44.88 24.61 35.75 24.61 35.75 30.23 37.97 30.23 37.97 26.31 44.88 26.31 44.88 31.17 47.38 31.17 47.38 26.31 54.25 26.31 54.25 30.23 56.47 30.23 56.47 24.61 47.38 24.61"/>
        <rect class="cls-1" x="48.49" y="27.44" width="4.72" height="1.27"/>
        <rect class="cls-1" x="39.03" y="29.85" width="4.77" height="1.32"/>
        <rect class="cls-1" x="39.03" y="27.44" width="4.77" height="1.27"/>
        <path class="cls-1" d="m33.83,21.16l-4.47,3.38c-.06.05-.07.13-.03.19.01.01.02.03.04.03l1.38.83-.99,1.46-1.53-.7c-.38-.24-.65-.41-.83-.52-.3-.2-.57-.4-.8-.59l-.1-.1,3.99-2.84c.06-.04.07-.13.03-.19-.01-.01-.02-.03-.04-.04l-1.52-.92,2-2.95c.04-.06.03-.15-.04-.19-.05-.03-.11-.03-.16,0l-4.47,3.38c-.06.05-.07.13-.03.19.01.01.02.03.04.03l1.38.83-1.57,2.31-.92-.93c-.3-.33-.58-.67-.83-1.04-.25-.37-.48-.76-.68-1.16h-10.36v2.17h6.39c-.39.55-.85,1.05-1.36,1.49-.54.46-1.12.86-1.73,1.2l-1.79-1.96h-2.74l2.52,2.81c-.58.16-1.07.27-1.46.34-.39.07-.72.12-.99.15v2.57c.47-.06,1.01-.16,1.62-.29.51-.11,1.01-.24,1.5-.41v.92h2.31v3h-5.17v2.38h4.98c-.25,1.1-.76,1.92-1.53,2.45-.85.6-2.08.9-3.7.9v2.64c2.44,0,4.36-.6,5.76-1.79,1.18-1.01,1.94-2.41,2.29-4.2h4.27v3.07c-.01.71.27,1.39.79,1.88.53.51,1.24.79,1.97.77h3.23c.94,0,1.74-.19,2.38-.57v-2.76c-.33.27-.71.48-1.12.6-.43.11-.87.16-1.31.15h-2.43c-.19,0-.37-.06-.51-.19-.13-.12-.2-.29-.2-.47v-2.48h5.29v-2.38h-5.29v-3h2.43v-.9c.47.17.94.32,1.43.42.43.09,1,.2,1.71.33v-2.6c-.73-.07-1.45-.22-2.14-.45l2.81-2c.06-.04.07-.13.03-.19-.01-.01-.02-.03-.04-.04l-1.52-.92,2-2.95c.04-.06.03-.15-.04-.19-.05-.03-.11-.03-.16,0h0Zm-9.33,12.46h-4.11v-3h4.11v3Zm-6.16-5.38c.89-.53,1.71-1.17,2.43-1.91.65-.65,1.22-1.36,1.72-2.12.55.83,1.18,1.6,1.89,2.3.67.67,1.43,1.25,2.24,1.73h-8.28Z"/>
      </g>
    </g>
  </g>
</svg>