<?xml version="1.0" encoding="UTF-8"?><svg xmlns="http://www.w3.org/2000/svg" viewBox="0 0 333 41.34"><defs><style>.d{fill:#f4a100;}.e{fill:#f9bc00;}.f{fill:#004c87;}.g{fill:#003067;}.h{fill:#00a6d8;}.i{fill:#0076ba;}.j{fill:#00963b;}.k{fill:#0098d8;}.l{fill:#ec6a02;}.m{fill:#e73819;}.n{fill:#d29100;}.o{fill:#c60f28;}.p{fill:#dc007a;}.q{fill:#e4001e;}.r{fill:#d6a600;}.s{fill:#417935;}.t{fill:#960b31;}.u{fill:#58b331;}</style></defs><g id="a"/><g id="b"><g id="c"><g><path class="k" d="M195.07,35.73c-1.45,1.76-3.5,3.12-6.16,4.11-2.66,.98-5.61,1.48-8.85,1.5-3.4,.02-6.39-.7-8.97-2.17-2.58-1.47-4.57-3.61-5.99-6.43-1.41-2.82-2.15-6.13-2.22-9.95l-.02-2.67c-.03-3.92,.61-7.33,1.92-10.21s3.2-5.09,5.68-6.63c2.48-1.54,5.4-2.32,8.75-2.34,4.66-.03,8.32,1.06,10.96,3.26,2.64,2.21,4.22,5.43,4.74,9.68l-7.89,.05c-.38-2.25-1.18-3.89-2.42-4.93-1.24-1.04-2.94-1.55-5.1-1.53-2.76,.02-4.85,1.07-6.27,3.15-1.43,2.08-2.13,5.16-2.12,9.25l.02,2.51c.03,4.12,.83,7.23,2.41,9.33,1.58,2.1,3.88,3.13,6.91,3.11,3.04-.02,5.21-.68,6.49-1.99l-.05-6.78-7.37,.05-.04-5.97,15.47-.11,.11,15.69Z"/><path class="k" d="M261.97,32.14l-14.2,.1-2.64,8.12-8.61,.06L250.87,1l7.51-.05,14.99,39.22-8.61,.06-2.78-8.08Zm-12.06-6.48l9.83-.07-5.04-14.68-4.79,14.75Z"/><polygon class="k" points="283.88 33.59 301.08 33.47 301.12 39.98 275.82 40.15 275.55 .83 283.65 .78 283.88 33.59"/><path class="k" d="M324.87,29.5c0-1.53-.56-2.7-1.64-3.51-1.09-.81-3.04-1.66-5.85-2.55-2.81-.89-5.04-1.77-6.69-2.64-4.48-2.38-6.74-5.62-6.76-9.7-.01-2.12,.57-4.02,1.76-5.7,1.19-1.67,2.9-2.99,5.13-3.94,2.24-.95,4.75-1.44,7.54-1.45,2.81-.02,5.31,.47,7.52,1.47,2.2,1,3.92,2.43,5.15,4.27,1.23,1.85,1.85,3.95,1.87,6.31l-8.1,.05c-.01-1.8-.59-3.2-1.73-4.19-1.14-.99-2.74-1.48-4.79-1.47-1.98,.01-3.52,.44-4.61,1.29-1.09,.84-1.63,1.95-1.62,3.32,0,1.28,.66,2.35,1.95,3.2,1.29,.86,3.19,1.65,5.7,2.39,4.62,1.35,7.99,3.05,10.11,5.09,2.12,2.04,3.19,4.59,3.21,7.65,.02,3.4-1.25,6.08-3.81,8.03-2.56,1.95-6.02,2.94-10.38,2.97-3.02,.02-5.78-.51-8.27-1.6-2.49-1.09-4.4-2.59-5.71-4.51-1.32-1.92-1.99-4.15-2-6.68l8.13-.06c.03,4.34,2.64,6.49,7.82,6.45,1.93-.01,3.43-.41,4.5-1.21,1.08-.79,1.61-1.89,1.6-3.29"/><path class="u" d="M208.2,15.38c.5-.84,1.1-1.62,1.79-2.3l-5.87-6.43c-1.47,1.41-2.73,3.05-3.72,4.85l7.8,3.89Z"/><path class="r" d="M222.58,10.83c.89,.41,1.71,.93,2.46,1.54l5.88-6.42c-1.55-1.34-3.31-2.44-5.21-3.25l-3.13,8.13Z"/><path class="o" d="M236.06,12.77l-7.8,3.89c.37,.87,.64,1.79,.78,2.76l8.67-.82c-.26-2.05-.82-4.01-1.66-5.82"/><path class="j" d="M227.7,15.53l7.8-3.89c-.97-1.79-2.2-3.42-3.64-4.84l-5.88,6.42c.67,.69,1.25,1.46,1.73,2.3"/><path class="s" d="M206.65,21.07c0-.18,0-.35,.01-.52l-8.68-.78c-.03,.43-.04,.86-.04,1.3,0,1.66,.21,3.28,.59,4.83l8.38-2.4c-.17-.78-.26-1.59-.26-2.42"/><path class="e" d="M226.61,28.2c-.62,.75-1.33,1.42-2.12,1.99l4.58,7.42c1.7-1.15,3.21-2.56,4.49-4.16l-6.95-5.24Z"/><path class="m" d="M229.16,21.07c0,.82-.09,1.62-.26,2.39l8.38,2.41c.38-1.54,.59-3.15,.59-4.8,0-.41-.01-.82-.04-1.23l-8.67,.82c0,.14,0,.27,0,.41"/><path class="d" d="M209.35,28.36l-6.93,5.27c1.29,1.59,2.82,2.97,4.53,4.1l4.58-7.41c-.81-.56-1.54-1.22-2.17-1.96"/><path class="i" d="M206.8,19.29c.15-.98,.44-1.92,.83-2.79l-7.79-3.88c-.86,1.83-1.45,3.82-1.72,5.9l8.68,.78Z"/><path class="t" d="M228.01,38.28l-4.57-7.41c-.83,.47-1.73,.84-2.67,1.08l1.61,8.57c2.01-.46,3.9-1.23,5.63-2.25"/><path class="h" d="M228.57,24.68c-.3,.89-.71,1.73-1.22,2.51l6.96,5.25c1.13-1.62,2.02-3.42,2.63-5.35l-8.37-2.41Z"/><path class="l" d="M219.53,32.2c-.53,.08-1.07,.12-1.62,.12-.44,0-.88-.03-1.31-.08l-1.61,8.57c.96,.14,1.93,.21,2.92,.21,1.1,0,2.18-.09,3.24-.26l-1.61-8.56Z"/><path class="q" d="M218.63,9.84c.97,.06,1.9,.25,2.79,.54l3.13-8.13c-1.86-.66-3.85-1.05-5.91-1.12V9.84Z"/><path class="p" d="M215.36,32.03c-.97-.23-1.9-.58-2.76-1.05l-4.58,7.41c1.76,1.01,3.69,1.76,5.73,2.19l1.61-8.56Z"/><path class="g" d="M214.53,10.34c.9-.29,1.86-.46,2.84-.51V1.12c-2.09,.06-4.11,.44-5.99,1.09l3.15,8.13Z"/><path class="n" d="M208.58,27.36c-.55-.82-1-1.71-1.33-2.66l-8.37,2.4c.63,2,1.57,3.86,2.77,5.53l6.93-5.27Z"/><path class="f" d="M210.94,12.24c.74-.58,1.55-1.07,2.41-1.46l-3.15-8.12c-1.88,.79-3.6,1.85-5.13,3.14l5.87,6.44Z"/><path class="k" d="M9.18,13.9c0-.59-.21-1.05-.63-1.38-.42-.33-1.15-.67-2.21-1.02-1.05-.35-1.91-.69-2.58-1.03C1.59,9.4,.51,7.94,.51,6.07c0-.93,.27-1.75,.81-2.46,.54-.71,1.31-1.26,2.3-1.66,.99-.39,2.1-.59,3.34-.59s2.29,.22,3.24,.64c.96,.43,1.7,1.04,2.23,1.84,.53,.79,.79,1.7,.79,2.72h-4.03c0-.68-.21-1.21-.63-1.59-.42-.38-.98-.56-1.7-.56s-1.29,.16-1.71,.48c-.42,.32-.63,.72-.63,1.22,0,.43,.23,.82,.69,1.17,.46,.35,1.27,.71,2.43,1.08,1.16,.37,2.11,.77,2.86,1.2,1.81,1.04,2.72,2.48,2.72,4.32,0,1.47-.55,2.62-1.66,3.45-1.11,.84-2.62,1.26-4.55,1.26-1.36,0-2.59-.24-3.69-.73-1.1-.49-1.93-1.16-2.49-2-.56-.85-.83-1.82-.83-2.93H4.05c0,.9,.23,1.56,.7,1.99,.46,.43,1.22,.64,2.26,.64,.67,0,1.19-.14,1.58-.43,.39-.29,.58-.69,.58-1.21"/><path class="k" d="M28.68,1.59V12.56c0,1.24-.26,2.32-.79,3.23-.53,.91-1.29,1.6-2.28,2.08-.99,.48-2.16,.71-3.51,.71-2.04,0-3.65-.53-4.82-1.59-1.17-1.06-1.77-2.51-1.8-4.35V1.59h4.06V12.73c.05,1.83,.9,2.75,2.56,2.75,.84,0,1.47-.23,1.9-.69,.43-.46,.65-1.21,.65-2.24V1.59h4.04Z"/><path class="k" d="M40.08,13.9c0-.59-.21-1.05-.63-1.38-.42-.33-1.15-.67-2.21-1.02-1.05-.35-1.91-.69-2.58-1.03-2.17-1.07-3.26-2.53-3.26-4.4,0-.93,.27-1.75,.81-2.46,.54-.71,1.31-1.26,2.3-1.66,.99-.39,2.1-.59,3.34-.59s2.29,.22,3.24,.64c.96,.43,1.7,1.04,2.23,1.84,.53,.79,.79,1.7,.79,2.72h-4.03c0-.68-.21-1.21-.63-1.59-.42-.38-.98-.56-1.7-.56s-1.29,.16-1.71,.48c-.42,.32-.63,.72-.63,1.22,0,.43,.23,.82,.69,1.17,.46,.35,1.27,.71,2.43,1.08,1.16,.37,2.11,.77,2.85,1.2,1.81,1.04,2.72,2.48,2.72,4.32,0,1.47-.55,2.62-1.66,3.45-1.11,.84-2.62,1.26-4.55,1.26-1.36,0-2.59-.24-3.69-.73-1.1-.49-1.93-1.16-2.49-2-.56-.85-.84-1.82-.84-2.93h4.05c0,.9,.23,1.56,.7,1.99,.46,.43,1.22,.64,2.26,.64,.67,0,1.2-.14,1.58-.43,.39-.29,.58-.69,.58-1.21"/><polygon class="k" points="59.59 4.71 54.56 4.71 54.56 18.36 50.52 18.36 50.52 4.71 45.58 4.71 45.58 1.59 59.59 1.59 59.59 4.71"/><path class="k" d="M69.67,15.22h-5.54l-.97,3.13h-4.32L64.99,1.59h3.8l6.2,16.76h-4.34l-.98-3.13Zm-4.57-3.12h3.6l-1.81-5.81-1.8,5.81Z"/><rect class="k" x="76.72" y="1.59" width="4.03" height="16.76"/><polygon class="k" points="97.8 18.36 93.78 18.36 87.84 7.92 87.84 18.36 83.8 18.36 83.8 1.59 87.84 1.59 93.77 12.02 93.77 1.59 97.8 1.59 97.8 18.36"/><path class="k" d="M110.32,15.22h-5.54l-.97,3.13h-4.32L105.64,1.59h3.8l6.19,16.76h-4.34l-.98-3.13Zm-4.57-3.12h3.6l-1.81-5.81-1.8,5.81Z"/><path class="k" d="M117.09,18.36V1.59h6.02c2.16,0,3.8,.4,4.92,1.19,1.12,.79,1.69,1.94,1.69,3.44,0,.87-.2,1.61-.6,2.22-.4,.61-.99,1.07-1.76,1.36,.88,.23,1.55,.66,2.02,1.29,.47,.63,.7,1.4,.7,2.3,0,1.64-.52,2.88-1.56,3.7-1.04,.83-2.58,1.25-4.62,1.26h-6.8Zm4.04-9.78h2.11c.88,0,1.51-.17,1.89-.49,.38-.32,.56-.78,.56-1.4,0-.71-.2-1.22-.61-1.53-.41-.31-1.06-.47-1.97-.47h-1.98v3.88Zm0,2.65v4.02h2.65c.73,0,1.29-.17,1.68-.5,.39-.33,.59-.8,.59-1.41,0-1.4-.69-2.1-2.08-2.11h-2.83Z"/><polygon class="k" points="136.58 15.25 143.62 15.25 143.62 18.36 132.54 18.36 132.54 1.59 136.58 1.59 136.58 15.25"/><polygon class="k" points="155.95 11.24 149.6 11.24 149.6 15.25 157.11 15.25 157.11 18.36 145.56 18.36 145.56 1.59 157.13 1.59 157.13 4.71 149.6 4.71 149.6 8.25 155.95 8.25 155.95 11.24"/><path class="k" d="M.51,41.03V24.6H5.8c1.45,0,2.76,.33,3.92,.99,1.16,.66,2.06,1.59,2.71,2.79,.65,1.2,.98,2.54,.99,4.03v.76c0,1.51-.32,2.85-.95,4.05-.64,1.19-1.53,2.12-2.69,2.8-1.15,.67-2.44,1.01-3.86,1.02H.51Zm3.96-13.37v10.32h1.38c1.14,0,2.01-.4,2.62-1.21,.61-.81,.91-2.01,.91-3.6v-.71c0-1.59-.3-2.78-.91-3.59-.61-.8-1.5-1.21-2.66-1.21h-1.33Z"/><polygon class="k" points="24.77 34.06 18.95 34.06 18.95 37.98 25.9 37.98 25.9 41.03 14.99 41.03 14.99 24.6 25.92 24.6 25.92 27.66 18.95 27.66 18.95 31.12 24.77 31.12 24.77 34.06"/><polygon class="k" points="34.58 36.56 37.85 24.6 42.27 24.6 36.75 41.03 32.41 41.03 26.93 24.6 31.32 24.6 34.58 36.56"/><polygon class="k" points="53.19 34.06 47.43 34.06 47.43 37.98 54.32 37.98 54.32 41.03 43.47 41.03 43.47 24.6 54.34 24.6 54.34 27.66 47.43 27.66 47.43 31.12 53.19 31.12 53.19 34.06"/><polygon class="k" points="59.64 37.98 65.9 37.98 65.9 41.03 55.68 41.03 55.68 24.6 59.64 24.6 59.64 37.98"/><path class="k" d="M80.63,33.15c0,1.6-.3,3.02-.89,4.25-.59,1.23-1.44,2.18-2.53,2.85-1.09,.67-2.34,1-3.74,1s-2.64-.32-3.72-.96c-1.08-.64-1.93-1.56-2.53-2.76-.61-1.2-.92-2.57-.95-4.12v-.93c0-1.61,.29-3.03,.89-4.26,.59-1.23,1.44-2.18,2.54-2.85,1.1-.67,2.35-1.01,3.76-1.01s2.63,.33,3.72,.99c1.09,.66,1.94,1.6,2.54,2.83,.61,1.22,.91,2.62,.92,4.2v.76Zm-4.03-.69c0-1.63-.27-2.87-.82-3.72-.55-.85-1.33-1.27-2.34-1.27-1.99,0-3.03,1.49-3.15,4.47v1.21c-.01,1.61,.26,2.85,.79,3.71,.53,.87,1.33,1.3,2.38,1.3s1.77-.43,2.31-1.28c.54-.85,.82-2.07,.82-3.67v-.76Z"/><path class="k" d="M86.17,35.46v5.57h-3.96V24.6h6.55c1.26,0,2.37,.23,3.33,.69,.97,.46,1.72,1.12,2.25,1.97,.53,.85,.79,1.82,.79,2.91,0,1.6-.57,2.88-1.72,3.84-1.15,.96-2.72,1.44-4.72,1.44h-2.53Zm0-3.06h2.59c.77,0,1.35-.19,1.75-.58,.4-.38,.6-.92,.6-1.62,0-.77-.21-1.38-.62-1.84-.41-.46-.98-.69-1.69-.7h-2.64v4.74Z"/><polygon class="k" points="101.79 24.6 105.45 36.03 109.11 24.6 114.32 24.6 114.32 41.03 110.35 41.03 110.35 37.19 110.73 29.34 106.76 41.03 104.15 41.03 100.16 29.33 100.55 37.19 100.55 41.03 96.59 41.03 96.59 24.6 101.79 24.6"/><polygon class="k" points="125.88 34.06 120.05 34.06 120.05 37.98 127.01 37.98 127.01 41.03 116.09 41.03 116.09 24.6 127.03 24.6 127.03 27.66 120.05 27.66 120.05 31.12 125.88 31.12 125.88 34.06"/><polygon class="k" points="142.06 41.03 138.12 41.03 132.3 30.81 132.3 41.03 128.34 41.03 128.34 24.6 132.3 24.6 138.11 34.82 138.11 24.6 142.06 24.6 142.06 41.03"/><polygon class="k" points="157.13 27.66 152.2 27.66 152.2 41.03 148.24 41.03 148.24 27.66 143.4 27.66 143.4 24.6 157.13 24.6 157.13 27.66"/></g></g></g></svg>