<?xml version="1.0" encoding="UTF-8"?><svg xmlns="http://www.w3.org/2000/svg" viewBox="0 0 89.5 109.2"><defs><style>.d{fill:#002fcd;}.e{fill:#fff;}</style></defs><g id="a"/><g id="b"><g id="c"><g><polyline class="d" points="89.5 0 89.5 109.2 0 109.2"/><path class="e" d="M71.53,90.47c-1.72,1.72-4.06,2.65-7.12,2.65s-5.51-.83-7.12-2.5c-1.4-1.4-2.29-3.38-2.5-6.03h2.65c.52,3.95,2.65,6.19,6.97,6.19,2.03,0,3.9-.68,5.1-1.87,2.18-2.18,2.24-5.51,2.24-8.27,0-4.63-.83-9.88-6.92-9.88-3.38,0-5.93,1.4-6.71,3.9h-2.34v-18.93h17.78v2.34h-15.44v13.1c1.61-1.87,4-2.76,7.02-2.76,2.65,0,4.78,.78,6.24,2.24,2.6,2.6,3.02,6.5,3.02,9.98s-.21,7.18-2.86,9.83Z"/><g><path class="d" d="M23.66,69.4c-.88,1.09-2.08,1.76-3.43,1.91-1.88,.21-2.98-.67-5.33-2.57-2.35-1.89-3.45-2.77-3.65-4.65-.15-1.35,.25-2.67,1.13-3.77,1.09-1.36,2.35-1.83,3.86-2.03l.16,1.43c-1.22,.15-2.11,.39-2.96,1.45-.59,.73-.87,1.66-.76,2.54,.15,1.28,.86,1.97,3.18,3.84,2.32,1.87,3.15,2.4,4.43,2.28,.89-.08,1.73-.56,2.32-1.29,.85-1.06,.89-1.98,.78-3.2l1.43-.16c.14,1.52-.06,2.85-1.15,4.21Z"/><path class="d" d="M34.6,55.6l-3.22-1.13-3.9,4.85,1.8,2.91-1.02,1.26-7.82-13.01,.8-1,14.37,4.85-1.02,1.26Zm-12.05-4.27l4.18,6.8,3.33-4.15-7.52-2.65Z"/><path class="d" d="M40.69,48.21c-1.34,1.67-2.64,2.42-4.52,2.63l-.16-1.46c1.66-.18,2.65-.8,3.65-2.05,1.3-1.62,1.34-3.23,.05-4.27-.58-.46-1.21-.69-1.81-.59-.6,.11-.92,.31-1.7,1.02l-1.24,1.13c-.83,.74-1.67,1.22-2.48,1.37-.95,.16-1.86-.11-2.75-.83-1.89-1.52-2.04-3.88-.28-6.07,1.14-1.42,2.25-2.07,3.87-2.33l.15,1.38c-1.18,.18-2.09,.65-3.03,1.82-1.19,1.48-1.05,3,.18,3.99,.55,.44,1.11,.63,1.68,.53,.57-.1,1.25-.51,1.81-1.01l1.16-1.07c1-.92,1.63-1.26,2.41-1.4,1-.19,2.03,.09,2.95,.83,1.95,1.57,1.92,4.06,.07,6.37Z"/><path class="d" d="M46.93,40.27l-11.1-8.92,5.54-6.89,1.06,.85-4.59,5.71,3.91,3.15,3.91-4.86,1.06,.85-3.91,4.86,4.01,3.22,4.59-5.71,1.06,.85-5.54,6.89Z"/></g></g></g></g></svg>