<?xml version="1.0" encoding="UTF-8"?><svg xmlns="http://www.w3.org/2000/svg" viewBox="0 0 494.37 135.72"><defs><style>.d{fill:#fff;}</style></defs><g id="a"/><g id="b"><g id="c"><g><g><path class="d" d="M14.2,33.24c-.06,.36,.24,.54,.92,.54,.47,0,2.64-.31,6.53-.92,3.88-.62,7.37-.95,10.45-1-3.6,.92-6.72,1.86-9.36,2.81-2.64,.95-5.38,2-8.21,3.15-2.83,1.15-4.86,1.92-6.07,2.31-1.21,.38-2.24,.58-3.07,.58-2.66,0-3.69-1.69-3.09-5.08,1.54-8.72,4.86-14.85,9.96-18.39,2.08-1.44,5.31-3.14,9.69-5.12,4.38-1.97,9.27-3.85,14.66-5.62,5.39-1.77,11.25-3.29,17.56-4.58,6.32-1.28,12.45-1.92,18.39-1.92s11.54,.87,16.34,2.62c4.8,1.74,8.64,4.19,11.52,7.35,2.88,3.15,4.84,7.01,5.89,11.58,1.04,4.57,1.06,9.69,.06,15.39-1.53,8.67-5.55,17.08-12.07,25.24-6.52,8.16-14.56,15.35-24.12,21.58-9.56,6.23-19.98,11.17-31.24,14.81s-22.06,5.46-32.37,5.46c-1.93,0-3.42-.21-4.46-.62-1.05-.41-1.7-1.22-1.96-2.42-.26-1.2-.18-2.99,.24-5.35,.52-2.92,1.17-5.31,1.96-7.16,.79-1.85,1.95-3.97,3.47-6.39,10.39-16.36,27.06-36.96,50.03-61.78-3.82,.41-8.08,1.19-12.76,2.35-4.68,1.15-9.15,2.42-13.41,3.81-4.26,1.38-7.88,2.72-10.86,4-2.99,1.28-4.53,2.21-4.63,2.77Zm44-13.39c-.02,.1-.02,.68,0,1.73,.02,1.05-.03,1.96-.17,2.73-.21,1.18-1.11,2.83-2.71,4.96-1.6,2.13-4.68,5.91-9.23,11.35-4.55,5.44-8.47,10.21-11.74,14.31-3.28,4.1-7.23,9.39-11.86,15.85-1.46,2.05-2.46,3.44-3,4.15-.54,.72-1.42,1.9-2.62,3.54-1.2,1.64-2.11,3.05-2.74,4.23-.63,1.18-.99,2.08-1.1,2.69-.23,1.33,.34,2.27,1.73,2.81,1.39,.54,3.46,.81,6.23,.81,7.08,0,14.81-1.27,23.17-3.81,8.36-2.54,16.42-6.06,24.17-10.58,7.75-4.51,14.21-9.62,19.38-15.31,5.17-5.69,8.3-11.64,9.4-17.85,1.25-7.08-.42-12.53-5.01-16.35-4.59-3.82-11.91-5.73-21.96-5.73-4.22,0-8.2,.15-11.96,.46Z"/><path class="d" d="M140.22,76.63l-.99,5.62c-6.18,6.41-11.75,11.25-16.7,14.5-4.95,3.26-8.96,4.89-12.03,4.89-4.27,0-7.06-2.21-8.36-6.62-1.31-4.41-1.5-9.23-.57-14.46,.35-2,.9-3.91,1.64-5.73,.74-1.82,1.5-3.32,2.28-4.5,.78-1.18,2.17-3.03,4.18-5.54,9.39-11.34,17.16-17,23.31-17,3.18,0,4.55,1.21,4.13,3.62-.29,1.64-1.77,4.21-4.44,7.69-2.67,3.49-4.95,5.98-6.82,7.46-5.29,4.31-8.78,7.31-10.45,9-1.68,1.69-2.71,3.62-3.09,5.77-.33,1.85,.11,3.39,1.3,4.62,1.19,1.23,2.9,1.85,5.14,1.85,2.45,0,5.3-.88,8.55-2.65,3.25-1.77,7.57-4.6,12.94-8.5Zm.75-34.39c-1.3,0-2.45-.49-3.45-1.46-1-.97-1.37-2.2-1.11-3.69,.4-2.26,1.93-4.77,4.61-7.54,2.68-2.77,5.19-4.15,7.53-4.15,1.56,0,2.78,.48,3.66,1.42,.87,.95,1.15,2.32,.84,4.12-.39,2.21-1.89,4.64-4.49,7.31-2.61,2.67-5.13,4-7.58,4Z"/><path class="d" d="M138.83,78.79l.33-1.85c15.9-13.95,26.86-23.72,32.9-29.31,2.26-6.31,5.58-9.46,9.95-9.46,1.09,0,2.21,.31,3.35,.92l.21,1.46c-.32,.62-.57,1.49-.77,2.62-.17,.98-.11,2.78,.18,5.42,.29,2.64,.48,4.86,.58,6.66,.1,1.8-.05,3.82-.45,6.08-.6,3.39-1.95,6.63-4.06,9.73-2.11,3.1-4.9,6.08-8.37,8.92-3.47,2.85-7.81,5.76-13.02,8.73,1.82,.31,3.28,.46,4.37,.46,2.13,0,4.53-.52,7.19-1.58,2.66-1.05,5.43-2.46,8.32-4.23,2.89-1.77,6.3-4.06,10.24-6.89l-.91,5.16c-7.8,6.41-14.62,11.27-20.46,14.58-5.85,3.31-10.67,4.96-14.47,4.96-4.9,0-9.07-2.05-12.51-6.15-2.02-2.46-3.12-4.82-3.32-7.08-.2-2.26,.04-5.31,.72-9.16Zm31.22-11.77l.57-11.23c-3.86,3.59-11.98,10.49-24.35,20.7,3.01,.67,4.98,1.57,5.93,2.69,.95,1.13,2.18,3.31,3.69,6.54,3.79-1.44,6.86-3.4,9.2-5.89,2.34-2.49,3.89-5.89,4.65-10.19,.09-.51,.16-.97,.21-1.38,.04-.41,.08-.82,.1-1.23Z"/><path class="d" d="M236.44,76.78l-.91,5.15c-6.52,5.39-11.8,9.57-15.84,12.54-4.04,2.98-7.73,5.28-11.06,6.92-3.34,1.64-6.46,2.46-9.38,2.46s-5.3-1.12-7.3-3.35c-2-2.23-3.36-5.15-4.08-8.77-.72-3.62-.72-7.45,0-11.5,.61-3.49,1.94-6.59,3.99-9.31,2.04-2.72,5.68-6.23,10.92-10.54,6.22-5.13,11.85-9.09,16.9-11.89,5.05-2.79,8.88-4.19,11.48-4.19,1.87,0,3.35,.64,4.43,1.92,1.07,1.28,1.44,2.9,1.1,4.85-.29,1.64-1.56,3.98-3.81,7-2.25,3.03-4.64,5.66-7.17,7.89-2.53,2.23-4.42,3.35-5.67,3.35-1.36,0-1.9-.72-1.65-2.15,.12-.41,.23-.79,.32-1.15,.09-.36,.17-.72,.23-1.08,.11-.62-.05-.96-.48-1.04-.43-.08-1,.12-1.7,.58-5.84,3.59-9.86,6.12-12.04,7.58-2.19,1.46-3.97,2.94-5.35,4.42-1.38,1.49-2.22,3.05-2.51,4.69-.53,3.03,.02,5.49,1.67,7.39,1.64,1.9,4.05,2.85,7.23,2.85s7.45-1.24,12.49-3.73c5.05-2.49,11.12-6.12,18.21-10.89Z"/><path class="d" d="M286.42,76.48l-.91,5.16c-3.98,3.08-7.1,5.13-9.37,6.15-2.26,1.03-5.33,1.44-9.2,1.23-8.16,7.9-14.82,11.85-19.98,11.85-2.92,0-5.41-.95-7.47-2.85-2.06-1.9-3.52-4.49-4.37-7.77-.85-3.28-.92-6.95-.21-11,.58-3.28,2.33-6.92,5.25-10.93,2.92-4,6.44-7.73,10.57-11.19,4.13-3.46,8.38-6.26,12.77-8.39,4.38-2.13,8.3-3.19,11.73-3.19,2.45,0,4.31,.37,5.58,1.12,1.28,.74,1.79,1.78,1.56,3.12-.18,1.03-.99,2.21-2.42,3.54,1.91,.41,3.14,1.09,3.7,2.04,.56,.95,.62,2.68,.18,5.19-.43,2.46-1.57,5.57-3.4,9.31-1.83,3.75-4.05,7.26-6.66,10.54l1.16,1.38h1.17c.88,0,1.8-.22,2.73-.65,.94-.43,1.79-.9,2.55-1.38,.76-.49,2.44-1.58,5.03-3.27Zm-12.53-20.23c-4.78,2.57-8.88,4.89-12.32,6.96-3.44,2.08-6.42,4.18-8.93,6.31-2.51,2.13-4.32,4.27-5.43,6.42-2.32,5.75-3.51,8.85-3.59,9.31-.6,3.39,1.5,5.08,6.29,5.08,2.24,0,6.32-1.9,12.25-5.69-.46-2.41-.5-4.72-.11-6.92,.57-3.23,1.83-6.53,3.77-9.89,1.95-3.36,4.63-7.22,8.06-11.58Z"/><path class="d" d="M296.44,76.78l-2.55,6.46c-.35,.82-.62,1.74-.8,2.77-.49,2.77,.44,4.15,2.78,4.15s8.44-4.31,18.61-12.93c.64-3.33,2.58-7.18,5.82-11.54,3.24-4.36,6.65-8.18,10.22-11.46,3.57-3.28,6.09-4.92,7.55-4.92,2.29,0,3.17,1.49,2.65,4.46-.32,1.8-1.15,3.99-2.49,6.58-1.34,2.59-3.14,5.39-5.38,8.39-2.25,3-4.9,6.09-7.96,9.27,.89,2.31,2.02,3.46,3.37,3.46,1.14,0,2.48-.4,4-1.19,1.52-.79,3.47-2.01,5.84-3.65l-.91,5.15c-3.32,2.26-5.89,3.8-7.73,4.62-1.84,.82-4.08,1.23-6.74,1.23-1.04,0-2.8-.69-5.26-2.08-6.29,5.54-11.34,9.68-15.16,12.43-3.82,2.74-6.77,4.12-8.85,4.12-3.59,0-6.28-2.12-8.06-6.35-1.78-4.23-2.22-8.89-1.33-13.96,1.2-6.82,6.55-15,16.05-24.54,2.85-2.87,5.08-4.83,6.7-5.89,1.62-1.05,3.34-1.58,5.16-1.58,1.56,0,3,.28,4.3,.85,1.31,.56,1.89,1.23,1.76,2-.45,2.57-2.86,6.32-7.22,11.27-4.36,4.95-9.16,9.25-14.38,12.89Z"/><path class="d" d="M349.97,79.4l-.34,1.92c-.53,3.03-.2,5.39,1.02,7.08,1.21,1.69,3.04,2.54,5.49,2.54s5.3-.59,8.24-1.77c2.94-1.18,5.94-2.74,8.99-4.69,3.05-1.95,6.82-4.56,11.31-7.85l-.83,4.69c-7.12,6.98-13.58,12.32-19.39,16.04-5.81,3.72-11.38,5.58-16.69,5.58-4.64,0-8-1.77-10.08-5.31-2.08-3.54-2.58-8.39-1.5-14.54,.95-5.39,3.09-10.27,6.41-14.66,3.32-4.39,8.31-9.01,14.95-13.89,4.55-3.33,8.92-5.85,13.13-7.54,4.21-1.69,7.84-2.54,10.92-2.54,2.45,0,4.29,.55,5.53,1.65,1.24,1.1,1.66,2.76,1.27,4.96-.57,3.23-2.36,6.45-5.38,9.66-3.01,3.21-7.31,6.39-12.89,9.54-5.58,3.15-12.3,6.19-20.16,9.12Zm1.66-5c5-1.79,9.41-4.03,13.21-6.69,3.8-2.67,6.71-5.22,8.73-7.66,2.02-2.44,3.13-4.22,3.33-5.35,.21-1.18-.23-1.77-1.33-1.77-.94,0-2.56,.59-4.88,1.77-2.32,1.18-4.72,2.72-7.22,4.62-2.5,1.9-4.83,4.13-7,6.69-2.17,2.57-3.79,5.36-4.84,8.39Z"/><path class="d" d="M382.85,82.55l.88-5c3.39-3.28,6.02-6.08,7.89-8.39-1.57-.56-2.66-1.26-3.27-2.08-.61-.82-.77-2.05-.48-3.69,.33-1.85,1.52-4.18,3.58-7,2.06-2.82,4.45-5.46,7.18-7.92,2.72-2.46,5.09-4.05,7.09-4.77,.79-.36,1.53-.54,2.2-.54,1.04,0,1.48,.49,1.3,1.46-.15,.87-1.27,2.64-3.36,5.31,11.02-1.64,17.93-2.46,20.75-2.46,1.09,0,1.83,.1,2.21,.31,.8,.46,1.34,1.54,1.62,3.23,.27,1.69,.26,3.39-.04,5.08-.19,1.08-.88,2.24-2.06,3.5-1.19,1.26-3.16,3.09-5.93,5.5-3.28,2.92-6.15,6.1-8.64,9.54-2.48,3.44-3.88,6.03-4.18,7.77-.43,2.41,.87,3.62,3.89,3.62,3.18,0,9.26-3.18,18.25-9.54l-.91,5.16c-5.11,4.46-9.3,7.98-12.56,10.54-3.27,2.57-6.23,4.6-8.89,6.12-2.66,1.51-4.93,2.27-6.81,2.27-2.19,0-3.84-.99-4.95-2.96-1.11-1.97-1.34-4.83-.67-8.58,.39-2.2,1.4-4.72,3.05-7.54,1.64-2.82,3.86-5.89,6.66-9.19,2.8-3.31,5.86-6.6,9.21-9.89-1.51,.31-3.21,.63-5.09,.96-1.88,.33-3.87,.68-5.96,1.04-2.09,.36-3.71,.64-4.84,.85-4.35,6.36-10.06,12.13-17.12,17.31Z"/><path class="d" d="M466.88,79.63l-15.96,11.62c-7.62,5.69-12.55,8.54-14.79,8.54-2.03,0-3.76-2.29-5.19-6.89-1.43-4.59-1.84-8.6-1.24-12.04,.52-2.92,1.41-5.4,2.68-7.42,1.27-2.03,3.31-4.65,6.12-7.89,3.94-4.36,7.64-8.05,11.09-11.08,3.45-3.03,6.44-5.37,8.98-7.04,2.53-1.67,4.24-2.5,5.13-2.5,1.41,0,2.65,.72,3.72,2.15,1.07,1.44,1.48,2.92,1.21,4.46-.17,.98-1.16,2.54-2.98,4.69-1.81,2.15-4.56,4.89-8.24,8.19-3.68,3.31-8.69,7.27-15.03,11.89l-2.23,4.23c-.56,.82-.9,1.54-1,2.15-.24,1.38,.34,2.08,1.74,2.08s5.2-1.82,11.24-5.46c6.03-3.64,12.74-8.54,20.13-14.7,2.87-2.41,5.28-4.54,7.22-6.39,1.94-1.85,3.7-3.58,5.29-5.19,1.58-1.62,2.88-2.83,3.89-3.65,1-.82,1.85-1.26,2.54-1.31,1.33-.15,2.25,.38,2.76,1.62,.51,1.23,.55,3.05,.13,5.46-.24,1.38-1.18,3.12-2.79,5.19-1.62,2.08-4.58,5.62-8.9,10.62-4.32,5-8.66,10.18-13.01,15.54-4.36,5.36-8.9,11.4-13.62,18.12,.18-.15,2.06-1.69,5.62-4.62,3.56-2.92,7.32-5.97,11.26-9.16,3.95-3.18,7.18-5.73,9.71-7.66,2.53-1.92,5.66-4.17,9.39-6.73l-.91,5.16c-8.34,7.44-15.95,14.49-22.83,21.16-6.88,6.67-12.22,12-16.03,16-3.8,4-6.03,6.33-6.66,7-1.72,1.79-3.28,3.47-4.68,5.04-1.4,1.56-2.55,2.77-3.45,3.62-.91,.85-1.59,1.27-2.06,1.27-1.09,0-1.88-1.06-2.37-3.19-.48-2.13-.58-4.01-.29-5.65,.26-1.49,.78-2.8,1.55-3.92,5.21-8.31,16.17-22.75,32.87-43.32Z"/></g><g><path class="d" d="M14.2,33.24c-.06,.36,.24,.54,.92,.54,.47,0,2.64-.31,6.53-.92,3.88-.62,7.37-.95,10.45-1-3.6,.92-6.72,1.86-9.36,2.81-2.64,.95-5.38,2-8.21,3.15-2.83,1.15-4.86,1.92-6.07,2.31-1.21,.38-2.24,.58-3.07,.58-2.66,0-3.69-1.69-3.09-5.08,1.54-8.72,4.86-14.85,9.96-18.39,2.08-1.44,5.31-3.14,9.69-5.12,4.38-1.97,9.27-3.85,14.66-5.62,5.39-1.77,11.25-3.29,17.56-4.58,6.32-1.28,12.45-1.92,18.39-1.92s11.54,.87,16.34,2.62c4.8,1.74,8.64,4.19,11.52,7.35,2.88,3.15,4.84,7.01,5.89,11.58,1.04,4.57,1.06,9.69,.06,15.39-1.53,8.67-5.55,17.08-12.07,25.24-6.52,8.16-14.56,15.35-24.12,21.58-9.56,6.23-19.98,11.17-31.24,14.81s-22.06,5.46-32.37,5.46c-1.93,0-3.42-.21-4.46-.62-1.05-.41-1.7-1.22-1.96-2.42-.26-1.2-.18-2.99,.24-5.35,.52-2.92,1.17-5.31,1.96-7.16,.79-1.85,1.95-3.97,3.47-6.39,10.39-16.36,27.06-36.96,50.03-61.78-3.82,.41-8.08,1.19-12.76,2.35-4.68,1.15-9.15,2.42-13.41,3.81-4.26,1.38-7.88,2.72-10.86,4-2.99,1.28-4.53,2.21-4.63,2.77Zm44-13.39c-.02,.1-.02,.68,0,1.73,.02,1.05-.03,1.96-.17,2.73-.21,1.18-1.11,2.83-2.71,4.96-1.6,2.13-4.68,5.91-9.23,11.35-4.55,5.44-8.47,10.21-11.74,14.31-3.28,4.1-7.23,9.39-11.86,15.85-1.46,2.05-2.46,3.44-3,4.15-.54,.72-1.42,1.9-2.62,3.54-1.2,1.64-2.11,3.05-2.74,4.23-.63,1.18-.99,2.08-1.1,2.69-.23,1.33,.34,2.27,1.73,2.81,1.39,.54,3.46,.81,6.23,.81,7.08,0,14.81-1.27,23.17-3.81,8.36-2.54,16.42-6.06,24.17-10.58,7.75-4.51,14.21-9.62,19.38-15.31,5.17-5.69,8.3-11.64,9.4-17.85,1.25-7.08-.42-12.53-5.01-16.35-4.59-3.82-11.91-5.73-21.96-5.73-4.22,0-8.2,.15-11.96,.46Z"/><path class="d" d="M140.22,76.63l-.99,5.62c-6.18,6.41-11.75,11.25-16.7,14.5-4.95,3.26-8.96,4.89-12.03,4.89-4.27,0-7.06-2.21-8.36-6.62-1.31-4.41-1.5-9.23-.57-14.46,.35-2,.9-3.91,1.64-5.73,.74-1.82,1.5-3.32,2.28-4.5,.78-1.18,2.17-3.03,4.18-5.54,9.39-11.34,17.16-17,23.31-17,3.18,0,4.55,1.21,4.13,3.62-.29,1.64-1.77,4.21-4.44,7.69-2.67,3.49-4.95,5.98-6.82,7.46-5.29,4.31-8.78,7.31-10.45,9-1.68,1.69-2.71,3.62-3.09,5.77-.33,1.85,.11,3.39,1.3,4.62,1.19,1.23,2.9,1.85,5.14,1.85,2.45,0,5.3-.88,8.55-2.65,3.25-1.77,7.57-4.6,12.94-8.5Zm.75-34.39c-1.3,0-2.45-.49-3.45-1.46-1-.97-1.37-2.2-1.11-3.69,.4-2.26,1.93-4.77,4.61-7.54,2.68-2.77,5.19-4.15,7.53-4.15,1.56,0,2.78,.48,3.66,1.42,.87,.95,1.15,2.32,.84,4.12-.39,2.21-1.89,4.64-4.49,7.31-2.61,2.67-5.13,4-7.58,4Z"/><path class="d" d="M138.83,78.79l.33-1.85c15.9-13.95,26.86-23.72,32.9-29.31,2.26-6.31,5.58-9.46,9.95-9.46,1.09,0,2.21,.31,3.35,.92l.21,1.46c-.32,.62-.57,1.49-.77,2.62-.17,.98-.11,2.78,.18,5.42,.29,2.64,.48,4.86,.58,6.66,.1,1.8-.05,3.82-.45,6.08-.6,3.39-1.95,6.63-4.06,9.73-2.11,3.1-4.9,6.08-8.37,8.92-3.47,2.85-7.81,5.76-13.02,8.73,1.82,.31,3.28,.46,4.37,.46,2.13,0,4.53-.52,7.19-1.58,2.66-1.05,5.43-2.46,8.32-4.23,2.89-1.77,6.3-4.06,10.24-6.89l-.91,5.16c-7.8,6.41-14.62,11.27-20.46,14.58-5.85,3.31-10.67,4.96-14.47,4.96-4.9,0-9.07-2.05-12.51-6.15-2.02-2.46-3.12-4.82-3.32-7.08-.2-2.26,.04-5.31,.72-9.16Zm31.22-11.77l.57-11.23c-3.86,3.59-11.98,10.49-24.35,20.7,3.01,.67,4.98,1.57,5.93,2.69,.95,1.13,2.18,3.31,3.69,6.54,3.79-1.44,6.86-3.4,9.2-5.89,2.34-2.49,3.89-5.89,4.65-10.19,.09-.51,.16-.97,.21-1.38,.04-.41,.08-.82,.1-1.23Z"/><path class="d" d="M236.44,76.78l-.91,5.15c-6.52,5.39-11.8,9.57-15.84,12.54-4.04,2.98-7.73,5.28-11.06,6.92-3.34,1.64-6.46,2.46-9.38,2.46s-5.3-1.12-7.3-3.35c-2-2.23-3.36-5.15-4.08-8.77-.72-3.62-.72-7.45,0-11.5,.61-3.49,1.94-6.59,3.99-9.31,2.04-2.72,5.68-6.23,10.92-10.54,6.22-5.13,11.85-9.09,16.9-11.89,5.05-2.79,8.88-4.19,11.48-4.19,1.87,0,3.35,.64,4.43,1.92,1.07,1.28,1.44,2.9,1.1,4.85-.29,1.64-1.56,3.98-3.81,7-2.25,3.03-4.64,5.66-7.17,7.89-2.53,2.23-4.42,3.35-5.67,3.35-1.36,0-1.9-.72-1.65-2.15,.12-.41,.23-.79,.32-1.15,.09-.36,.17-.72,.23-1.08,.11-.62-.05-.96-.48-1.04-.43-.08-1,.12-1.7,.58-5.84,3.59-9.86,6.12-12.04,7.58-2.19,1.46-3.97,2.94-5.35,4.42-1.38,1.49-2.22,3.05-2.51,4.69-.53,3.03,.02,5.49,1.67,7.39,1.64,1.9,4.05,2.85,7.23,2.85s7.45-1.24,12.49-3.73c5.05-2.49,11.12-6.12,18.21-10.89Z"/><path class="d" d="M286.42,76.48l-.91,5.16c-3.98,3.08-7.1,5.13-9.37,6.15-2.26,1.03-5.33,1.44-9.2,1.23-8.16,7.9-14.82,11.85-19.98,11.85-2.92,0-5.41-.95-7.47-2.85-2.06-1.9-3.52-4.49-4.37-7.77-.85-3.28-.92-6.95-.21-11,.58-3.28,2.33-6.92,5.25-10.93,2.92-4,6.44-7.73,10.57-11.19,4.13-3.46,8.38-6.26,12.77-8.39,4.38-2.13,8.3-3.19,11.73-3.19,2.45,0,4.31,.37,5.58,1.12,1.28,.74,1.79,1.78,1.56,3.12-.18,1.03-.99,2.21-2.42,3.54,1.91,.41,3.14,1.09,3.7,2.04,.56,.95,.62,2.68,.18,5.19-.43,2.46-1.57,5.57-3.4,9.31-1.83,3.75-4.05,7.26-6.66,10.54l1.16,1.38h1.17c.88,0,1.8-.22,2.73-.65,.94-.43,1.79-.9,2.55-1.38,.76-.49,2.44-1.58,5.03-3.27Zm-12.53-20.23c-4.78,2.57-8.88,4.89-12.32,6.96-3.44,2.08-6.42,4.18-8.93,6.31-2.51,2.13-4.32,4.27-5.43,6.42-2.32,5.75-3.51,8.85-3.59,9.31-.6,3.39,1.5,5.08,6.29,5.08,2.24,0,6.32-1.9,12.25-5.69-.46-2.41-.5-4.72-.11-6.92,.57-3.23,1.83-6.53,3.77-9.89,1.95-3.36,4.63-7.22,8.06-11.58Z"/><path class="d" d="M296.44,76.78l-2.55,6.46c-.35,.82-.62,1.74-.8,2.77-.49,2.77,.44,4.15,2.78,4.15s8.44-4.31,18.61-12.93c.64-3.33,2.58-7.18,5.82-11.54,3.24-4.36,6.65-8.18,10.22-11.46,3.57-3.28,6.09-4.92,7.55-4.92,2.29,0,3.17,1.49,2.65,4.46-.32,1.8-1.15,3.99-2.49,6.58-1.34,2.59-3.14,5.39-5.38,8.39-2.25,3-4.9,6.09-7.96,9.27,.89,2.31,2.02,3.46,3.37,3.46,1.14,0,2.48-.4,4-1.19,1.52-.79,3.47-2.01,5.84-3.65l-.91,5.15c-3.32,2.26-5.89,3.8-7.73,4.62-1.84,.82-4.08,1.23-6.74,1.23-1.04,0-2.8-.69-5.26-2.08-6.29,5.54-11.34,9.68-15.16,12.43-3.82,2.74-6.77,4.12-8.85,4.12-3.59,0-6.28-2.12-8.06-6.35-1.78-4.23-2.22-8.89-1.33-13.96,1.2-6.82,6.55-15,16.05-24.54,2.85-2.87,5.08-4.83,6.7-5.89,1.62-1.05,3.34-1.58,5.16-1.58,1.56,0,3,.28,4.3,.85,1.31,.56,1.89,1.23,1.76,2-.45,2.57-2.86,6.32-7.22,11.27-4.36,4.95-9.16,9.25-14.38,12.89Z"/><path class="d" d="M349.97,79.4l-.34,1.92c-.53,3.03-.2,5.39,1.02,7.08,1.21,1.69,3.04,2.54,5.49,2.54s5.3-.59,8.24-1.77c2.94-1.18,5.94-2.74,8.99-4.69,3.05-1.95,6.82-4.56,11.31-7.85l-.83,4.69c-7.12,6.98-13.58,12.32-19.39,16.04-5.81,3.72-11.38,5.58-16.69,5.58-4.64,0-8-1.77-10.08-5.31-2.08-3.54-2.58-8.39-1.5-14.54,.95-5.39,3.09-10.27,6.41-14.66,3.32-4.39,8.31-9.01,14.95-13.89,4.55-3.33,8.92-5.85,13.13-7.54,4.21-1.69,7.84-2.54,10.92-2.54,2.45,0,4.29,.55,5.53,1.65,1.24,1.1,1.66,2.76,1.27,4.96-.57,3.23-2.36,6.45-5.38,9.66-3.01,3.21-7.31,6.39-12.89,9.54-5.58,3.15-12.3,6.19-20.16,9.12Zm1.66-5c5-1.79,9.41-4.03,13.21-6.69,3.8-2.67,6.71-5.22,8.73-7.66,2.02-2.44,3.13-4.22,3.33-5.35,.21-1.18-.23-1.77-1.33-1.77-.94,0-2.56,.59-4.88,1.77-2.32,1.18-4.72,2.72-7.22,4.62-2.5,1.9-4.83,4.13-7,6.69-2.17,2.57-3.79,5.36-4.84,8.39Z"/><path class="d" d="M382.85,82.55l.88-5c3.39-3.28,6.02-6.08,7.89-8.39-1.57-.56-2.66-1.26-3.27-2.08-.61-.82-.77-2.05-.48-3.69,.33-1.85,1.52-4.18,3.58-7,2.06-2.82,4.45-5.46,7.18-7.92,2.72-2.46,5.09-4.05,7.09-4.77,.79-.36,1.53-.54,2.2-.54,1.04,0,1.48,.49,1.3,1.46-.15,.87-1.27,2.64-3.36,5.31,11.02-1.64,17.93-2.46,20.75-2.46,1.09,0,1.83,.1,2.21,.31,.8,.46,1.34,1.54,1.62,3.23,.27,1.69,.26,3.39-.04,5.08-.19,1.08-.88,2.24-2.06,3.5-1.19,1.26-3.16,3.09-5.93,5.5-3.28,2.92-6.15,6.1-8.64,9.54-2.48,3.44-3.88,6.03-4.18,7.77-.43,2.41,.87,3.62,3.89,3.62,3.18,0,9.26-3.18,18.25-9.54l-.91,5.16c-5.11,4.46-9.3,7.98-12.56,10.54-3.27,2.57-6.23,4.6-8.89,6.12-2.66,1.51-4.93,2.27-6.81,2.27-2.19,0-3.84-.99-4.95-2.96-1.11-1.97-1.34-4.83-.67-8.58,.39-2.2,1.4-4.72,3.05-7.54,1.64-2.82,3.86-5.89,6.66-9.19,2.8-3.31,5.86-6.6,9.21-9.89-1.51,.31-3.21,.63-5.09,.96-1.88,.33-3.87,.68-5.96,1.04-2.09,.36-3.71,.64-4.84,.85-4.35,6.36-10.06,12.13-17.12,17.31Z"/><path class="d" d="M466.88,79.63l-15.96,11.62c-7.62,5.69-12.55,8.54-14.79,8.54-2.03,0-3.76-2.29-5.19-6.89-1.43-4.59-1.84-8.6-1.24-12.04,.52-2.92,1.41-5.4,2.68-7.42,1.27-2.03,3.31-4.65,6.12-7.89,3.94-4.36,7.64-8.05,11.09-11.08,3.45-3.03,6.44-5.37,8.98-7.04,2.53-1.67,4.24-2.5,5.13-2.5,1.41,0,2.65,.72,3.72,2.15,1.07,1.44,1.48,2.92,1.21,4.46-.17,.98-1.16,2.54-2.98,4.69-1.81,2.15-4.56,4.89-8.24,8.19-3.68,3.31-8.69,7.27-15.03,11.89l-2.23,4.23c-.56,.82-.9,1.54-1,2.15-.24,1.38,.34,2.08,1.74,2.08s5.2-1.82,11.24-5.46c6.03-3.64,12.74-8.54,20.13-14.7,2.87-2.41,5.28-4.54,7.22-6.39,1.94-1.85,3.7-3.58,5.29-5.19,1.58-1.62,2.88-2.83,3.89-3.65,1-.82,1.85-1.26,2.54-1.31,1.33-.15,2.25,.38,2.76,1.62,.51,1.23,.55,3.05,.13,5.46-.24,1.38-1.18,3.12-2.79,5.19-1.62,2.08-4.58,5.62-8.9,10.62-4.32,5-8.66,10.18-13.01,15.54-4.36,5.36-8.9,11.4-13.62,18.12,.18-.15,2.06-1.69,5.62-4.62,3.56-2.92,7.32-5.97,11.26-9.16,3.95-3.18,7.18-5.73,9.71-7.66,2.53-1.92,5.66-4.17,9.39-6.73l-.91,5.16c-8.34,7.44-15.95,14.49-22.83,21.16-6.88,6.67-12.22,12-16.03,16-3.8,4-6.03,6.33-6.66,7-1.72,1.79-3.28,3.47-4.68,5.04-1.4,1.56-2.55,2.77-3.45,3.62-.91,.85-1.59,1.27-2.06,1.27-1.09,0-1.88-1.06-2.37-3.19-.48-2.13-.58-4.01-.29-5.65,.26-1.49,.78-2.8,1.55-3.92,5.21-8.31,16.17-22.75,32.87-43.32Z"/></g></g></g></g></svg>