<?xml version="1.0" encoding="UTF-8"?><svg xmlns="http://www.w3.org/2000/svg" xmlns:xlink="http://www.w3.org/1999/xlink" viewBox="0 0 205.07 30.05"><defs><style>.e{fill:url(#d);}.f{opacity:.5;}</style><linearGradient id="d" x1="0" y1="15.02" x2="205.07" y2="15.02" gradientTransform="matrix(1, 0, 0, 1, 0, 0)" gradientUnits="userSpaceOnUse"><stop offset="0" stop-color="blue"/><stop offset=".15" stop-color="#1a2aff"/><stop offset=".46" stop-color="#4b79ff"/><stop offset=".71" stop-color="#6fb3ff"/><stop offset=".9" stop-color="#85d7ff"/><stop offset="1" stop-color="#8ee5ff"/></linearGradient></defs><g id="a"/><g id="b"><g id="c"><g class="f"><path class="e" d="M20.71,16.08c-.72-.24-1.56-.47-2.51-.69-.95-.22-1.99-.42-3.11-.6s-2.39-.32-3.82-.43l1.23-1.2c3.2-.31,5.99-.75,8.35-1.32,2.36-.57,4.28-1.24,5.75-2,1.47-.76,2.56-1.57,3.26-2.42,.7-.85,1.04-1.74,1.04-2.66,0-1.36-.76-2.49-2.28-3.39-1.52-.9-3.8-1.35-6.82-1.35-1.28,0-2.75,.1-4.42,.3-1.67,.2-3.3,.45-4.91,.74-1.61,.29-3.09,.6-4.43,.92-1.35,.32-2.2,.55-2.57,.7-1.06,.43-2.23,1.4-3.52,2.93-1.29,1.53-1.93,2.59-1.93,3.17,0,.49,.3,.74,.89,.74,.83,0,2.45-.3,4.85-.91,2.4-.61,3.6-1.02,3.6-1.23,0-.16-.39-.36-1.18-.6-.1-.04-.14-.08-.14-.12,0-.13,.48-.34,1.45-.63,.97-.29,2.07-.56,3.32-.81,1.24-.25,2.63-.48,4.16-.68s2.89-.3,4.07-.3c2.15,0,3.74,.2,4.78,.6,1.04,.4,1.56,1.05,1.56,1.94,0,.73-.49,1.4-1.47,2-.98,.6-2.42,1.12-4.34,1.55-1.91,.43-4.38,.82-7.39,1.15,1.1-1.04,2.06-1.94,2.87-2.7,.81-.76,1.39-1.31,1.75-1.66,.36-.35,.54-.56,.54-.64,0-.07-.08-.1-.23-.1s-.29,0-.42,.02c-1.59,.13-3.07,.65-4.46,1.55-1.39,.9-2.95,2.25-4.7,4.03-1.57,.16-2.85,.29-3.86,.4-1,.11-1.68,.2-2.03,.27-.35,.07-.63,.19-.84,.35-.21,.16-.31,.39-.31,.7,0,.49,.27,.88,.82,1.15,.54,.27,1.47,.44,2.79,.49-1.75,1.83-3.04,3.36-3.87,4.58-.83,1.23-1.25,2.3-1.25,3.2,0,1.31,.68,2.34,2.04,3.09,1.36,.75,3.26,1.13,5.69,1.13,1.46,0,3.08-.2,4.86-.61,1.79-.41,3.52-.97,5.21-1.69,1.69-.72,3.06-1.54,4.12-2.46,1.06-.92,1.59-1.86,1.59-2.82,0-1.58-1.27-2.8-3.8-3.68Zm-1.84,4.84c-1.07,.65-2.38,1.18-3.94,1.59-1.56,.41-3.03,.61-4.41,.61-1.49,0-2.63-.25-3.42-.75-.79-.5-1.19-1.07-1.19-1.71,0-.4,.14-.8,.42-1.19,.28-.39,.74-.91,1.39-1.54,.65-.63,1.39-1.36,2.22-2.19,2.24,.24,4.16,.5,5.77,.79,1.6,.29,2.79,.62,3.58,.99,.78,.37,1.18,.85,1.18,1.42,0,.67-.53,1.33-1.6,1.98Z"/><path class="e" d="M35.3,23.64c-.84,.31-1.65,.46-2.44,.46s-1.36-.22-1.83-.66c-.46-.44-.7-1.05-.7-1.84v-.5c2.26-.76,4.16-1.55,5.71-2.37,1.55-.82,2.69-1.65,3.45-2.48,.75-.83,1.13-1.67,1.13-2.51,0-.57-.22-1-.66-1.29-.44-.29-1.04-.43-1.79-.43-.94,0-2.02,.22-3.22,.66-1.2,.44-2.41,1.09-3.63,1.96-1.78,1.27-3.06,2.47-3.84,3.61-.78,1.14-1.18,2.41-1.18,3.81,0,1.6,.42,2.86,1.25,3.78,.83,.92,1.96,1.38,3.39,1.38,1.63,0,3.24-.48,4.83-1.45,1.59-.97,3.28-2.36,5.09-4.17v-1.22c-1.2,.85-2.22,1.54-3.05,2.04-.83,.51-1.67,.91-2.51,1.22Zm-3.69-6.03c.53-.67,1.12-1.25,1.79-1.74,.66-.49,1.32-.89,1.97-1.2,.65-.31,1.12-.46,1.41-.46,.34,0,.5,.15,.5,.46s-.24,.76-.73,1.39c-.49,.63-1.25,1.3-2.27,1.99-1.02,.69-2.26,1.27-3.7,1.74,.16-.79,.5-1.51,1.03-2.18Z"/><path class="e" d="M67.96,21.56c0-.6,.16-1.11,.47-1.52,.31-.41,.86-1.06,1.63-1.93,.78-.87,1.16-1.47,1.16-1.79,0-.16-.05-.34-.14-.55s-.23-.48-.41-.81c-.18-.33-.32-.61-.43-.82,.56-.16,.95-.3,1.18-.41,.22-.11,.34-.29,.34-.53,0-.15-.08-.37-.25-.68-.17-.31-.4-.58-.68-.81-.29-.23-.6-.35-.94-.35-1.25,0-3.02,.45-5.31,1.34-2.29,.89-4.65,2.26-7.09,4.1-.91,.72-1.58,1.3-1.99,1.74s-.7,.87-.84,1.29c-.14,.42-.22,.94-.22,1.57,0,.87,.2,1.71,.61,2.51,.41,.81,.88,1.46,1.41,1.97,.53,.51,.97,.76,1.32,.76,.74,0,1.67-.46,2.81-1.37,1.14-.91,2.87-2.45,5.21-4.61-.91,2-1.37,3.53-1.37,4.58,0,.67,.13,1.17,.4,1.51,.26,.34,.71,.51,1.33,.51,1.75,0,4.64-1.88,8.7-5.62v-1.22c-2.39,1.75-4.14,2.62-5.26,2.62s-1.63-.49-1.63-1.48Zm-3.99-1.55c-1.39,1.33-2.93,2.41-4.61,3.23-.45,.19-.76,.28-.94,.28-.3,0-.54-.14-.72-.41-.18-.27-.26-.62-.26-1.05,0-1.17,.88-2.32,2.65-3.42,1.77-1.11,4.74-2.46,8.9-4.04-1.95,2.28-3.63,4.09-5.02,5.42Z"/><path class="e" d="M117.75,5.52c-.38-.9-.91-1.66-1.6-2.27-1.92-1.76-5.37-2.64-10.33-2.64-4.29,0-9.24,.83-14.85,2.5-1.01,1.38-1.89,2.66-2.63,3.86-.74,1.2-1.12,1.86-1.12,1.96,0,.09,.06,.17,.17,.24,.11,.07,.22,.1,.34,.1,.45-.15,1.19-.4,2.22-.75,1.03-.35,2.21-.73,3.52-1.12,1.31-.39,2.89-.76,4.73-1.11,1.84-.35,3.6-.55,5.26-.6l-7.33,9.11c-2.23,.41-3.91,.97-5.04,1.68-1.14,.71-1.71,1.47-1.71,2.3,0,.37,.21,.75,.62,1.14,.42,.39,1,.7,1.75,.94-1.41,2.11-2.46,3.8-3.16,5.07-.7,1.27-1.04,2.21-1.04,2.79,0,.41,.06,.74,.19,.97,.13,.23,.42,.35,.89,.35,.22,0,.45-.08,.68-.24,.23-.16,.44-.35,.62-.56,.18-.21,.54-.65,1.07-1.3,.53-.65,.95-1.18,1.27-1.58,.22-.28,.34-.63,.34-1.04,0-.17-.11-.4-.34-.68l2.16-3.28c1.63,.16,2.71,.24,3.24,.24,2.99,0,5.75-.32,8.26-.95,2.51-.63,4.7-1.55,6.56-2.75s3.29-2.62,4.29-4.25c1-1.63,1.5-3.45,1.5-5.46,0-.88-.19-1.77-.56-2.67Zm-2.85,5.8c-.54,.93-1.42,1.87-2.63,2.79-1.21,.93-2.84,1.71-4.9,2.33-2.06,.63-4.49,.94-7.29,.94-.32,0-.72-.01-1.19-.04-.47-.03-1.01-.05-1.62-.08l1.37-1.92,3.65-.58c.42-.07,.62-.19,.62-.36,0-.2-.13-.3-.38-.3l-3.15,.3,4.18-5.47c.88-1.13,1.32-2.05,1.32-2.74,0-.21-.02-.39-.05-.54,2.47,0,4.48,.09,6.04,.27,1.56,.18,2.76,.52,3.59,1.01,.83,.49,1.25,1.17,1.25,2.04,0,.63-.27,1.41-.82,2.34Z"/><path class="e" d="M125.94,11.05c.36,.25,.74,.38,1.14,.38,.75,0,1.46-.35,2.11-1.04,.66-.69,.98-1.33,.98-1.9,0-.47-.16-.82-.48-1.07-.32-.25-.72-.37-1.2-.37-.72,0-1.42,.36-2.09,1.08-.67,.72-1.01,1.38-1.01,1.96,0,.39,.18,.71,.54,.96Z"/><path class="e" d="M199.97,22.82c-.93,0-1.39-.31-1.39-.94,0-.45,.29-1.13,.86-2.02,.58-.89,1.29-1.72,2.14-2.48,.72-.63,1.23-1.1,1.53-1.43,.3-.33,.44-.63,.44-.91,0-.44-.09-.88-.26-1.32-.18-.44-.4-.72-.67-.84-.13-.05-.36-.08-.7-.08-.86,0-2.95,.21-6.25,.64,.5-.69,.75-1.15,.75-1.38,0-.25-.16-.38-.48-.38-.21,0-.42,.05-.65,.14-.58,.19-1.22,.6-1.92,1.24-.71,.64-1.3,1.33-1.78,2.06-.48,.73-.72,1.34-.72,1.82,0,.43,.12,.75,.35,.96,.23,.21,.6,.39,1.12,.54-.41,.54-.99,1.2-1.74,1.95-1.2,.85-2.21,1.53-3.04,2.04-.83,.51-1.67,.91-2.51,1.22-.84,.31-1.65,.46-2.44,.46s-1.36-.22-1.83-.66c-.46-.44-.7-1.05-.7-1.84v-.5c2.26-.76,4.16-1.55,5.71-2.37,1.55-.82,2.69-1.65,3.45-2.48,.75-.83,1.13-1.67,1.13-2.51,0-.57-.22-1-.66-1.29-.44-.29-1.04-.43-1.79-.43-.94,0-2.02,.22-3.22,.66-1.2,.44-2.41,1.09-3.63,1.96-1.78,1.27-3.06,2.47-3.84,3.61-.48,.7-.8,1.46-.98,2.26v-.13c-1.2,.85-2.22,1.54-3.05,2.04-.83,.51-1.67,.91-2.51,1.22-.84,.31-1.65,.46-2.44,.46s-1.36-.22-1.83-.66c-.46-.44-.7-1.05-.7-1.84v-.5c2.26-.76,4.16-1.55,5.71-2.37,1.55-.82,2.69-1.65,3.45-2.48,.75-.83,1.13-1.67,1.13-2.51,0-.57-.22-1-.66-1.29-.44-.29-1.04-.43-1.79-.43-.94,0-2.02,.22-3.22,.66-1.2,.44-2.41,1.09-3.63,1.96-1.78,1.27-3.06,2.47-3.84,3.61-.46,.66-.76,1.38-.95,2.13-1.52,1-2.66,1.7-3.38,2.1-.74,.41-1.35,.61-1.81,.61-.56,0-.84-.29-.84-.86,0-1.03,1.41-2.85,4.23-5.46,.69-.6,1.03-1.05,1.03-1.34,0-.6-.12-1.19-.37-1.78-.25-.59-.5-.88-.76-.88-.56,0-1.27,.25-2.11,.74-1.52,.84-2.88,1.72-4.07,2.62-1.19,.91-2.23,1.78-3.1,2.61-.87,.83-1.59,1.51-2.14,2.02-.55,.51-.93,.77-1.12,.77-.3,0-.46-.19-.46-.58,0-.69,1.27-2.21,3.8-4.54,.38-.35,.64-.58,.76-.7,.12-.12,.23-.25,.32-.4,.1-.15,.14-.29,.14-.42,0-.31-.16-.53-.47-.68-.31-.15-.72-.22-1.24-.22-.74,0-1.51,.33-2.31,.99-.8,.66-1.75,1.7-2.86,3.11-.59,.76-.99,1.35-1.19,1.76-.08,.17-.15,.38-.2,.62-.59,.37-1,.62-1.19,.74-.21,.13-.44,.25-.71,.36-.26,.11-.53,.17-.8,.17h-.36l-.43-.36c.62-.85,1.12-1.77,1.48-2.74,.36-.97,.54-1.78,.54-2.42s-.11-1.1-.34-1.35c-.22-.25-.64-.42-1.25-.53,.37-.35,.55-.65,.55-.92,0-.35-.22-.62-.65-.81-.43-.19-1.02-.29-1.78-.29-1.06,0-2.2,.28-3.43,.83-1.23,.55-2.39,1.28-3.47,2.18-1.08,.9-1.96,1.87-2.64,2.91-.58,.89-.9,1.7-.98,2.45-1.25,.86-2.29,1.51-3.1,1.92-.9,.46-1.73,.69-2.49,.69-.69,0-1.25-.16-1.68-.48-.43-.32-.65-.72-.65-1.2,0-.56,.21-1.06,.64-1.5,.42-.44,1.33-1.22,2.73-2.34,.5-.39,1.06-1.03,1.69-1.94,.63-.91,.95-1.57,.95-2,0-.63-.49-.94-1.47-.94-1.89,0-3.97,1.47-6.25,4.42-.48,.65-.81,1.13-.98,1.44-.18,.31-.33,.7-.46,1.17-.13,.47-.19,.97-.19,1.49,0,1.36,.32,2.62,.96,3.76,.64,1.15,1.62,1.72,2.93,1.72,.94,0,2.09-.42,3.44-1.27,1.24-.78,2.58-1.93,4-3.41,.1,.61,.28,1.19,.56,1.72,.44,.85,1.03,1.53,1.77,2.02,.74,.49,1.55,.74,2.45,.74,1.59,0,3.42-1.03,5.5-3.08,1.2,.05,2.12-.05,2.76-.32,.58-.24,1.35-.72,2.27-1.4,.04,1.05,.24,1.99,.63,2.8,.43,.89,.9,1.34,1.42,1.34,.34,0,.67-.14,1-.41,.33-.27,.85-.81,1.56-1.6,.71-.79,1.38-1.51,2.01-2.16,.62-.65,1.39-1.33,2.28-2.05,1.38-1.15,2.52-1.91,3.44-2.3-.75,1.05-1.42,2-1.99,2.83-.58,.83-1,1.47-1.29,1.92-.28,.45-.5,.88-.66,1.29-.16,.41-.24,.83-.24,1.26,0,1.44,.66,2.16,1.97,2.16,.77,0,1.76-.41,2.98-1.24,1.16-.79,2.8-2.06,4.91-3.78,0,.04,0,.08,0,.11,0,1.6,.42,2.86,1.25,3.78,.83,.92,1.96,1.38,3.39,1.38,1.63,0,3.24-.48,4.83-1.45,1.54-.94,3.18-2.28,4.92-4.01,0,.1-.02,.19-.02,.3,0,1.6,.42,2.86,1.25,3.78,.83,.92,1.96,1.38,3.39,1.38,1.63,0,3.24-.48,4.83-1.45,1.51-.92,3.13-2.25,4.85-3.94v.09c1.89-1.35,3.33-2.85,4.32-4.5,.34-.05,.82-.13,1.44-.22,.62-.09,1.22-.18,1.78-.27,.56-.09,1.06-.17,1.51-.25-.85,.85-1.61,1.71-2.29,2.57-.68,.86-1.2,1.66-1.55,2.39-.35,.73-.53,1.39-.53,1.96,0,.97,.22,1.72,.67,2.23,.45,.51,1.01,.77,1.68,.77,.58,0,1.23-.2,1.97-.59,.74-.39,1.54-.92,2.4-1.59,.86-.67,1.96-1.58,3.29-2.74v-1.34c-2.42,1.65-4.12,2.48-5.09,2.48Zm-18.62-5.21c.53-.67,1.12-1.25,1.79-1.74,.66-.49,1.32-.89,1.97-1.2,.65-.31,1.12-.46,1.41-.46,.34,0,.5,.15,.5,.46s-.24,.76-.73,1.39c-.49,.63-1.25,1.3-2.27,1.99-1.02,.69-2.26,1.27-3.7,1.74,.16-.79,.5-1.51,1.03-2.18Zm-14.37,0c.53-.67,1.12-1.25,1.79-1.74,.66-.49,1.32-.89,1.97-1.2,.65-.31,1.12-.46,1.41-.46,.34,0,.5,.15,.5,.46s-.24,.76-.73,1.39c-.49,.63-1.25,1.3-2.27,1.99-1.02,.69-2.26,1.27-3.7,1.74,.16-.79,.5-1.51,1.03-2.18Zm-29.84,.47c-.42,.87-.62,1.73-.62,2.57,0,.57,.14,1.17,.41,1.8-1.62,.99-2.77,1.48-3.46,1.48-1.47,0-2.21-.44-2.21-1.32,0-.12,.2-.93,.6-2.42,.22-.56,.66-1.12,1.32-1.67,.66-.55,1.46-1.1,2.4-1.64,.94-.54,2.08-1.14,3.41-1.81-.82,1.13-1.43,2.14-1.85,3.01Z"/></g></g></g></svg>