<?xml version="1.0" encoding="UTF-8"?><svg xmlns="http://www.w3.org/2000/svg" viewBox="0 0 399.8 156.26"><defs><style>.d{fill:#fff;}</style></defs><g id="a"/><g id="b"><g id="c"><g><path class="d" d="M30.8,30.01l-3.32,2.74c3.26,.24,6.15,.57,8.68,.98,2.52,.41,4.85,.87,6.97,1.37,2.12,.5,3.97,1.03,5.54,1.58,5.51,2.01,7.95,4.81,7.31,8.41-.39,2.19-1.99,4.34-4.81,6.44-2.82,2.1-6.33,3.97-10.54,5.62-4.21,1.64-8.46,2.93-12.76,3.86-4.3,.93-8.14,1.39-11.52,1.39-5.64,0-9.89-.86-12.74-2.58C.76,58.1-.4,55.75,.12,52.76c.37-2.07,1.76-4.51,4.18-7.31,2.42-2.8,6.03-6.29,10.81-10.46-3.02-.12-5.11-.49-6.26-1.12-1.15-.62-1.63-1.5-1.43-2.63,.12-.7,.46-1.23,1.01-1.6,.55-.37,1.24-.63,2.09-.8,.85-.17,2.45-.37,4.81-.62,2.36-.24,5.39-.55,9.09-.91,4.76-4.08,8.93-7.15,12.51-9.2,3.57-2.06,7.22-3.24,10.95-3.54,.3-.03,.63-.05,.98-.05s.51,.08,.49,.23c-.03,.18-.54,.67-1.51,1.46-.98,.79-2.55,2.06-4.73,3.79-2.18,1.74-4.76,3.79-7.74,6.17,7.11-.76,12.97-1.64,17.58-2.63,4.61-.99,8.17-2.17,10.67-3.54,2.5-1.37,3.91-2.89,4.2-4.57,.36-2.04-.59-3.52-2.84-4.43-2.25-.91-5.86-1.37-10.84-1.37-2.75,0-5.93,.23-9.56,.69-3.63,.46-6.93,.97-9.9,1.55-2.98,.58-5.65,1.2-8.01,1.85-2.36,.66-3.57,1.13-3.62,1.44-.02,.09,.08,.18,.29,.27,1.72,.55,2.55,1.01,2.49,1.37-.09,.49-3.03,1.42-8.84,2.81-5.81,1.39-9.68,2.08-11.61,2.08-1.37,0-1.96-.56-1.76-1.69,.24-1.34,2.16-3.75,5.76-7.24,3.6-3.49,6.71-5.72,9.33-6.69,.91-.33,2.99-.87,6.24-1.6,3.25-.73,6.79-1.43,10.64-2.1,3.85-.67,7.74-1.23,11.68-1.69,3.94-.46,7.39-.69,10.36-.69,7.01,0,12.1,1.03,15.26,3.08,3.16,2.06,4.47,4.64,3.92,7.74-.37,2.1-1.53,4.13-3.49,6.08-1.96,1.95-4.8,3.79-8.52,5.53-3.72,1.74-8.43,3.26-14.14,4.57-5.71,1.31-12.33,2.31-19.87,3.01Zm-6.94,5.89c-2.26,1.89-4.27,3.56-6.03,5-1.76,1.45-3.04,2.62-3.85,3.52-.81,.9-1.29,1.8-1.45,2.72-.26,1.46,.43,2.76,2.07,3.91,1.64,1.14,4.18,1.71,7.63,1.71,3.19,0,6.68-.46,10.46-1.39,3.78-.93,7.04-2.14,9.77-3.63,2.73-1.49,4.23-3,4.5-4.52,.23-1.31-.49-2.39-2.16-3.24-1.67-.85-4.3-1.61-7.89-2.26-3.6-.65-7.94-1.26-13.04-1.8Z"/><path class="d" d="M87.04,46l-.6,3.38c-9.24,8.44-16.3,12.65-21.16,12.65-2.64,0-4.5-1.18-5.58-3.54-1.09-2.36-1.29-5.46-.62-9.3,.55-3.11,2.09-6.8,4.62-11.08,2.54-4.28,5.69-8.62,9.45-13.02,3.76-4.4,7.54-8.24,11.33-11.51,3.79-3.27,7.17-5.57,10.15-6.88,1.21-.55,2.13-.82,2.76-.82,.78,0,1.25,.28,1.41,.85,.16,.56,.12,1.53-.12,2.9-.75,4.23-3.76,9.43-9.04,15.6-5.28,6.17-12.24,12.46-20.86,18.89-.65,1.58-1.05,2.8-1.2,3.65-.34,1.95-.11,3.53,.69,4.75,.8,1.22,2.12,1.83,3.94,1.83,.93,0,1.98-.3,3.16-.89,1.18-.59,2.44-1.33,3.79-2.22,1.34-.88,3.97-2.63,7.88-5.25Zm-15.19-8.22c2.2-1.55,4.38-3.32,6.53-5.3,2.15-1.98,4.22-4.1,6.21-6.35,1.99-2.25,3.6-4.28,4.83-6.08,1.23-1.8,1.92-3.15,2.08-4.07,.12-.7-.11-1.05-.71-1.05-.22,0-.68,.17-1.37,.5-2.53,1.52-5.6,4.5-9.2,8.93-3.6,4.43-6.39,8.9-8.38,13.41Z"/><path class="d" d="M113.21,43.4c-6.41,5.85-11.24,10-14.47,12.47-3.24,2.47-5.75,3.7-7.53,3.7-1.41,0-2.62-.48-3.64-1.44-1.02-.96-1.71-2.25-2.07-3.88-.36-1.63-.38-3.37-.05-5.23,.21-1.22,.55-2.31,1-3.29,.45-.97,1.17-2.05,2.15-3.22,.99-1.17,2.24-2.44,3.76-3.81s3.36-2.92,5.52-4.66c1.3-1.07,2.4-1.96,3.29-2.7,.89-.73,1.72-1.23,2.49-1.48,.77-.26,1.97-.39,3.6-.39,1.19,0,2.3,.13,3.33,.39,1.03,.26,1.52,.53,1.47,.8-.1,.55-.82,1.54-2.17,2.97-1.35,1.43-3.42,3.17-6.21,5.23-2.79,2.06-5.96,4.07-9.5,6.05-1.02,1.8-1.62,3.17-1.78,4.11-.23,1.31,.27,1.96,1.49,1.96,.45,0,1.24-.31,2.39-.94,1.15-.62,3.11-1.83,5.9-3.61,2.78-1.78,5.28-3.36,7.48-4.73,1.63-1.03,3.58-2.58,5.86-4.64,2.27-2.06,4.09-3.6,5.46-4.64,3.16-2.38,5.31-3.92,6.44-4.64,1.13-.72,2.16-1.07,3.08-1.07s1.45,.23,1.69,.69c.23,.46,.23,1.39-.02,2.79-.11,.64-.28,1.16-.5,1.55-.22,.4-.62,.91-1.19,1.53-.57,.62-1.71,1.77-3.42,3.45-1.71,1.68-3.73,3.65-6.06,5.94-1.25,1.22-2.4,2.55-3.43,4-1.03,1.45-1.62,2.54-1.74,3.27-.28,1.58,.34,2.38,1.86,2.38,1.26,0,2.8-.43,4.62-1.28,1.82-.85,4.65-2.39,8.5-4.61l-.54,3.06c-4.92,3.29-8.55,5.68-10.89,7.17-2.34,1.49-4.34,2.62-6,3.38-1.66,.76-3.17,1.14-4.54,1.14-3.12,0-4.41-1.52-3.87-4.57,.2-1.16,.94-2.72,2.22-4.68,1.27-1.96,3.28-4.8,6.01-8.52Z"/><path class="d" d="M138.93,48.15l-.2,1.14c-.32,1.8-.03,3.2,.87,4.2,.9,1.01,2.22,1.51,3.96,1.51s3.76-.35,5.84-1.05c2.07-.7,4.17-1.63,6.31-2.79,2.13-1.16,4.76-2.71,7.89-4.66l-.49,2.79c-4.92,4.14-9.42,7.32-13.48,9.52-4.06,2.21-7.99,3.31-11.77,3.31-3.3,0-5.73-1.05-7.29-3.15-1.56-2.1-2.02-4.98-1.37-8.63,.56-3.2,1.98-6.1,4.26-8.7,2.28-2.6,5.73-5.35,10.36-8.25,3.17-1.98,6.23-3.47,9.19-4.48,2.96-1.01,5.53-1.51,7.73-1.51,1.74,0,3.07,.33,3.97,.98,.9,.66,1.24,1.64,1.01,2.95-.34,1.92-1.55,3.83-3.63,5.73-2.08,1.9-5.08,3.79-8.99,5.66-3.91,1.87-8.64,3.68-14.18,5.41Zm1.08-2.97c3.53-1.07,6.62-2.39,9.27-3.97,2.65-1.58,4.67-3.1,6.06-4.55,1.39-1.45,2.14-2.5,2.26-3.18,.12-.7-.2-1.05-.98-1.05-.67,0-1.81,.35-3.44,1.05-1.63,.7-3.31,1.61-5.05,2.74-1.74,1.13-3.35,2.45-4.85,3.97-1.49,1.52-2.58,3.18-3.27,4.98Z"/><path class="d" d="M234.21,14.02c1.04-.21,2.09-.43,3.15-.64,1.06-.21,2.13-.4,3.21-.55,1.08-.15,2.13-.23,3.13-.23,2.15,0,3.93,.4,5.33,1.19,1.4,.79,2.36,1.87,2.88,3.22,.52,1.36,.64,2.83,.36,4.41-.43,2.47-1.48,5.29-3.14,8.47-1.66,3.18-3.8,6.42-6.42,9.71-2.62,3.29-5.56,6.4-8.82,9.32-4.45,3.96-9.51,7.15-15.19,9.57-5.68,2.42-10.71,3.63-15.08,3.63-3.23,0-5.95-.72-8.16-2.17-2.21-1.45-3.77-3.55-4.68-6.3-.9-2.76-1.03-5.99-.38-9.71,.88-4.99,3.42-10,7.63-15.01,4.2-5.01,9.2-9.55,14.98-13.61,5.78-4.07,11.47-7.32,17.06-9.78,5.59-2.45,10-3.68,13.23-3.68,2.63,0,4.54,.66,5.72,1.99,1.18,1.32,2.12,3.46,2.82,6.42-3.47,.09-6.53,.43-9.2,1.03-2.67,.59-5.48,1.5-8.44,2.72Zm-15.66,9.27c-3,2.28-6.15,5.23-9.43,8.84-3.29,3.61-6.06,7.15-8.3,10.62-2.25,3.47-3.53,6.12-3.85,7.95-.8,4.54,1.38,6.81,6.54,6.81,3.6,0,8.6-1.99,15-5.98,6.4-3.99,12.2-8.79,17.4-14.41,5.2-5.62,8.21-10.73,9.02-15.33,.6-3.38-.74-5.07-4-5.07-2.52,0-5.75,.82-9.68,2.47-3.93,1.64-7.83,3.97-11.7,6.99-1.38,1.1-4.21,3.78-8.49,8.04,1.17-2.86,3.67-6.5,7.49-10.92Z"/><path class="d" d="M278.4,46.6l-.54,3.06c-4.54,3.2-8.21,5.68-11.03,7.45-2.82,1.77-5.4,3.14-7.74,4.11-2.34,.97-4.55,1.46-6.63,1.46s-3.8-.66-5.27-1.99c-1.47-1.32-2.5-3.06-3.09-5.21-.59-2.15-.67-4.42-.24-6.83,.37-2.07,1.25-3.91,2.64-5.53,1.4-1.61,3.92-3.7,7.56-6.26,4.32-3.04,8.25-5.4,11.79-7.06,3.54-1.66,6.24-2.49,8.09-2.49,1.34,0,2.4,.38,3.19,1.14,.79,.76,1.09,1.72,.88,2.88-.17,.98-1.03,2.36-2.57,4.16-1.54,1.8-3.19,3.36-4.94,4.68-1.76,1.32-3.08,1.99-3.97,1.99-.97,0-1.37-.43-1.22-1.28,.08-.24,.15-.47,.21-.69,.05-.21,.1-.43,.14-.64,.06-.37-.06-.57-.36-.62-.31-.05-.71,.07-1.2,.34-4.09,2.13-6.89,3.63-8.42,4.5-1.53,.87-2.77,1.74-3.72,2.63-.95,.88-1.52,1.81-1.69,2.79-.32,1.8,.13,3.26,1.34,4.39,1.21,1.13,2.95,1.69,5.21,1.69s5.28-.74,8.82-2.22c3.55-1.48,7.79-3.63,12.75-6.46Z"/><path class="d" d="M286.81,48.15l-.2,1.14c-.32,1.8-.03,3.2,.87,4.2,.9,1.01,2.22,1.51,3.96,1.51s3.76-.35,5.84-1.05c2.07-.7,4.17-1.63,6.31-2.79,2.13-1.16,4.76-2.71,7.89-4.66l-.49,2.79c-4.92,4.14-9.42,7.32-13.48,9.52-4.06,2.21-7.99,3.31-11.77,3.31-3.3,0-5.74-1.05-7.29-3.15-1.56-2.1-2.02-4.98-1.37-8.63,.56-3.2,1.98-6.1,4.26-8.7,2.28-2.6,5.73-5.35,10.36-8.25,3.17-1.98,6.23-3.47,9.19-4.48,2.96-1.01,5.53-1.51,7.72-1.51,1.74,0,3.07,.33,3.97,.98,.9,.66,1.24,1.64,1.01,2.95-.34,1.92-1.55,3.83-3.63,5.73-2.08,1.9-5.08,3.79-8.99,5.66-3.91,1.87-8.64,3.68-14.17,5.41Zm1.08-2.97c3.53-1.07,6.62-2.39,9.27-3.97,2.65-1.58,4.67-3.1,6.06-4.55,1.39-1.45,2.14-2.5,2.26-3.18,.12-.7-.2-1.05-.98-1.05-.67,0-1.81,.35-3.44,1.05-1.63,.7-3.31,1.61-5.05,2.74-1.74,1.13-3.35,2.45-4.85,3.97-1.49,1.52-2.59,3.18-3.27,4.98Z"/><path class="d" d="M319.44,38.33c6.38-4.2,12.41-7.32,18.07-9.36,5.67-2.04,9.95-3.06,12.84-3.06,.78,0,1.46,.27,2.03,.8,.57,.53,1,1.15,1.26,1.85,.27,.7,.37,1.22,.31,1.55-.1,.55-.43,.95-.99,1.21-.57,.26-1.53,.57-2.89,.94,.17,.49,.4,1.11,.67,1.87,.27,.76,.48,1.38,.62,1.85,.14,.47,.18,.89,.11,1.26-.13,.73-1.27,2.09-3.42,4.09-2.15,1.99-3.67,3.46-4.56,4.41-.89,.94-1.46,2.1-1.7,3.47-.4,2.25,.67,3.38,3.19,3.38s7.01-1.99,13.25-5.98l-.49,2.79c-10.9,8.56-18.37,12.84-22.41,12.84-1.45,0-2.41-.39-2.88-1.16-.47-.78-.58-1.93-.31-3.45,.42-2.41,2.1-5.89,5.02-10.46-6.29,4.93-10.93,8.44-13.94,10.53-3,2.09-5.36,3.13-7.06,3.13-.82,0-1.74-.58-2.76-1.74-1.02-1.16-1.84-2.66-2.46-4.5-.62-1.84-.76-3.75-.41-5.73,.25-1.43,.63-2.63,1.13-3.59,.5-.96,1.33-1.94,2.47-2.95,1.14-1.01,2.92-2.33,5.32-3.97Zm27.55-5.03c-10.29,3.62-17.7,6.7-22.25,9.23-4.55,2.53-7.06,5.13-7.53,7.81-.17,.98-.11,1.77,.19,2.4,.3,.62,.8,.94,1.5,.94,.41,0,1.17-.21,2.28-.64,4.23-1.89,8.23-4.35,11.99-7.38,3.76-3.03,8.37-7.15,13.81-12.36Z"/><path class="d" d="M396.72,38.24c-7.58,5.97-11.58,10.13-12,12.47-.23,1.31,.3,1.96,1.6,1.96,1.08,0,2.56-.46,4.45-1.39,1.89-.93,4.88-2.58,8.97-4.96l-.56,3.15c-6.02,4.26-10.61,7.34-13.76,9.23-3.15,1.89-5.62,2.83-7.4,2.83-3.04,0-4.27-1.64-3.69-4.93,.17-.97,.53-1.93,1.06-2.88,.54-.94,1.22-1.93,2.05-2.95,.83-1.02,2.08-2.48,3.75-4.39,1.67-1.9,3.59-4.06,5.76-6.46-2.27,.88-5.23,2.63-8.89,5.25-2.37,1.64-4.41,3.21-6.11,4.68-1.71,1.48-3.55,3.12-5.52,4.93-1.97,1.81-3.39,3.03-4.26,3.65-.87,.62-1.7,.94-2.48,.94-1.19,0-2.1-1.02-2.75-3.06-.64-2.04-.72-4.42-.25-7.13,.3-1.67,.76-2.98,1.39-3.93,.63-.94,1.79-2.28,3.46-4.02,3.13-3.23,5.75-5.6,7.88-7.1,2.12-1.51,4.04-2.26,5.74-2.26,1.19,0,2.11,.17,2.78,.5,.67,.34,.93,.85,.81,1.55-.05,.3-.22,.62-.5,.96-.28,.34-.59,.64-.91,.91-.33,.27-1.01,.81-2.04,1.6-6.8,5.33-10.34,8.79-10.62,10.37-.16,.88,.12,1.32,.82,1.32,.45,0,1.41-.59,2.9-1.76,1.49-1.17,3.41-2.71,5.77-4.61,2.36-1.9,5.1-3.89,8.23-5.96,3.13-2.07,6.62-4.07,10.49-5.98,2.17-1.13,3.9-1.69,5.2-1.69,.59,0,1.06,.67,1.4,2.01,.34,1.34,.39,2.7,.15,4.07-.12,.67-1.1,1.69-2.93,3.06Z"/><path class="d" d="M117.93,103.08l1.48,1.42c-3.6,3.14-6.66,5.42-9.2,6.85-2.53,1.43-4.34,2.15-5.42,2.15-.89,0-1.22-.65-.99-1.96,.57-3.26,4.08-8.28,10.51-15.08,5.45-5.88,8.24-9.15,8.36-9.82,.1-.58-.14-.87-.74-.87-1.04,0-3.99,1.92-8.86,5.76-4.87,3.84-11,9.26-18.4,16.26-8.35,7.8-14.12,13.37-17.31,16.72,4.86,.4,8.83,.91,11.89,1.53,3.06,.62,7.48,1.64,13.27,3.04,5.78,1.4,10.08,2.22,12.9,2.47-4.06,3.26-6.86,5.47-8.38,6.65-1.52,1.17-2.66,1.88-3.41,2.12-1.18,.4-2.84,.42-4.97,.07-2.13-.35-5.48-1.03-10.05-2.03-4.57-1.01-8.87-1.84-12.89-2.51-4.02-.67-7.74-1-11.15-1-1.93,0-3.62,.18-5.08,.55-1.46,.37-3.49,.97-6.11,1.8-2.62,.84-4.42,1.26-5.43,1.26-1.45,0-2.08-.49-1.91-1.46,.1-.55,.45-1.17,1.05-1.87,1.51-1.61,2.97-3.15,4.38-4.61,1.41-1.46,2.83-2.6,4.28-3.43,1.44-.82,3.43-1.46,5.96-1.92,2.53-.46,5.8-.7,9.81-.73,7.39-7.61,14.22-14.37,20.49-20.26,6.27-5.89,11.91-10.86,16.91-14.92,5-4.05,9.3-7.12,12.89-9.2,3.6-2.09,6.34-3.13,8.23-3.13,1.34,0,2.32,.3,2.96,.91,.63,.61,.86,1.46,.66,2.56-.64,3.65-5.89,11.22-15.75,22.7Z"/><path class="d" d="M149.77,123.32l-.59,3.33c-4.27,3.81-8.14,6.68-11.59,8.61-3.46,1.93-6.28,2.9-8.47,2.9-3.04,0-5.08-1.31-6.1-3.93-1.02-2.62-1.26-5.48-.71-8.59,.21-1.19,.56-2.32,1.05-3.4,.49-1.08,1-1.97,1.53-2.67,.53-.7,1.49-1.8,2.86-3.29,6.46-6.73,11.87-10.1,16.25-10.1,2.26,0,3.27,.72,3.02,2.15-.17,.98-1.17,2.5-3,4.57-1.83,2.07-3.4,3.55-4.71,4.43-3.68,2.56-6.1,4.34-7.26,5.34-1.16,1.01-1.85,2.15-2.08,3.43-.19,1.1,.15,2.01,1.02,2.74,.87,.73,2.11,1.1,3.7,1.1,1.74,0,3.76-.53,6.04-1.58,2.28-1.05,5.3-2.73,9.04-5.05Zm-.18-20.42c-.93,0-1.76-.29-2.49-.87-.73-.58-1.02-1.31-.87-2.19,.24-1.34,1.28-2.83,3.13-4.48s3.61-2.47,5.28-2.47c1.11,0,1.99,.28,2.63,.85,.64,.56,.87,1.38,.68,2.44-.23,1.31-1.25,2.76-3.05,4.34-1.8,1.58-3.57,2.38-5.32,2.38Z"/><path class="d" d="M188.24,115.05c-7.58,5.97-11.58,10.13-12,12.47-.23,1.31,.3,1.96,1.6,1.96,1.08,0,2.56-.46,4.45-1.39,1.89-.93,4.88-2.58,8.97-4.96l-.56,3.15c-6.02,4.26-10.61,7.34-13.76,9.23-3.15,1.89-5.62,2.83-7.4,2.83-3.04,0-4.27-1.64-3.69-4.93,.17-.97,.53-1.93,1.06-2.88,.54-.94,1.22-1.93,2.05-2.95,.83-1.02,2.08-2.48,3.75-4.39,1.67-1.9,3.59-4.06,5.76-6.46-2.27,.88-5.23,2.63-8.89,5.25-2.37,1.64-4.41,3.21-6.11,4.68-1.71,1.48-3.55,3.12-5.52,4.93-1.97,1.81-3.39,3.03-4.26,3.65-.87,.62-1.7,.94-2.48,.94-1.19,0-2.1-1.02-2.74-3.06-.64-2.04-.72-4.42-.25-7.13,.3-1.67,.76-2.98,1.39-3.93,.63-.94,1.78-2.28,3.46-4.02,3.13-3.23,5.75-5.6,7.88-7.1,2.12-1.51,4.04-2.26,5.74-2.26,1.19,0,2.11,.17,2.78,.5,.66,.34,.93,.85,.81,1.55-.05,.3-.22,.62-.5,.96-.28,.34-.59,.64-.91,.91-.33,.27-1.01,.81-2.04,1.6-6.8,5.33-10.34,8.79-10.62,10.37-.16,.88,.12,1.32,.82,1.32,.45,0,1.41-.59,2.9-1.76,1.49-1.17,3.41-2.71,5.77-4.61,2.36-1.9,5.1-3.89,8.23-5.96,3.13-2.07,6.62-4.07,10.49-5.98,2.16-1.13,3.9-1.69,5.2-1.69,.59,0,1.06,.67,1.4,2.01,.34,1.34,.39,2.7,.15,4.07-.12,.67-1.1,1.69-2.93,3.06Z"/><path class="d" d="M199.52,124.96l-.2,1.14c-.32,1.8-.03,3.2,.87,4.2,.9,1.01,2.22,1.51,3.96,1.51s3.76-.35,5.83-1.05c2.07-.7,4.17-1.63,6.31-2.79,2.13-1.16,4.76-2.71,7.89-4.66l-.49,2.79c-4.92,4.14-9.42,7.32-13.48,9.52-4.06,2.21-7.99,3.31-11.77,3.31-3.3,0-5.74-1.05-7.29-3.15-1.56-2.1-2.02-4.98-1.37-8.63,.56-3.2,1.98-6.1,4.26-8.7,2.28-2.6,5.73-5.35,10.36-8.25,3.17-1.98,6.23-3.47,9.19-4.48,2.96-1.01,5.54-1.51,7.73-1.51,1.74,0,3.07,.33,3.97,.98,.9,.66,1.24,1.64,1.01,2.95-.34,1.92-1.55,3.83-3.63,5.73-2.08,1.9-5.08,3.79-8.99,5.66-3.91,1.87-8.64,3.68-14.17,5.41Zm1.08-2.97c3.53-1.07,6.62-2.39,9.27-3.97,2.65-1.58,4.67-3.1,6.06-4.55,1.39-1.45,2.14-2.5,2.26-3.17,.12-.7-.21-1.05-.98-1.05-.67,0-1.81,.35-3.44,1.05-1.63,.7-3.31,1.61-5.05,2.74-1.74,1.13-3.36,2.45-4.85,3.97-1.49,1.52-2.58,3.18-3.27,4.98Z"/><path class="d" d="M250.96,120.21c-6.41,5.85-11.24,10-14.47,12.47-3.24,2.47-5.75,3.7-7.53,3.7-1.41,0-2.62-.48-3.64-1.44-1.02-.96-1.71-2.25-2.07-3.88-.36-1.63-.38-3.37-.05-5.23,.21-1.22,.55-2.31,1-3.29,.45-.97,1.17-2.05,2.15-3.22,.99-1.17,2.24-2.44,3.76-3.81,1.52-1.37,3.36-2.92,5.53-4.66,1.3-1.07,2.4-1.96,3.29-2.7,.89-.73,1.72-1.23,2.49-1.48,.77-.26,1.97-.39,3.6-.39,1.19,0,2.3,.13,3.33,.39,1.03,.26,1.52,.53,1.47,.8-.1,.55-.82,1.54-2.16,2.97-1.35,1.43-3.42,3.17-6.21,5.23-2.79,2.06-5.96,4.07-9.5,6.05-1.02,1.8-1.62,3.17-1.78,4.11-.23,1.31,.27,1.96,1.49,1.96,.45,0,1.24-.31,2.39-.94,1.15-.62,3.11-1.83,5.9-3.61,2.78-1.78,5.28-3.36,7.49-4.73,1.63-1.03,3.58-2.58,5.86-4.64,2.27-2.06,4.09-3.6,5.46-4.64,3.16-2.38,5.31-3.92,6.44-4.64,1.13-.72,2.16-1.07,3.08-1.07s1.45,.23,1.69,.69c.23,.46,.23,1.39-.02,2.79-.11,.64-.28,1.16-.5,1.55-.22,.4-.62,.91-1.19,1.53-.58,.62-1.71,1.77-3.42,3.45-1.71,1.68-3.73,3.65-6.06,5.94-1.25,1.22-2.4,2.55-3.43,4-1.03,1.45-1.62,2.54-1.75,3.27-.28,1.58,.34,2.38,1.86,2.38,1.26,0,2.8-.43,4.62-1.28,1.82-.85,4.65-2.39,8.5-4.61l-.54,3.06c-4.92,3.29-8.55,5.68-10.89,7.17-2.34,1.49-4.34,2.62-6,3.38-1.66,.76-3.17,1.14-4.54,1.14-3.12,0-4.41-1.52-3.87-4.57,.2-1.16,.94-2.72,2.22-4.68,1.27-1.96,3.28-4.8,6.01-8.52Z"/><path class="d" d="M266.71,127.16l.56-3.2c6.01-4.63,11.26-8.98,15.75-13.07,4.49-4.08,8.04-7.32,10.65-9.73,2.61-2.41,4.84-4.1,6.69-5.09,1.84-.99,4.03-1.48,6.55-1.48,1.26,0,1.82,.4,1.68,1.19-.11,.64-.79,1.58-2.03,2.83-1.24,1.25-2.78,2.53-4.6,3.84-2.42,1.71-4.86,3.85-7.34,6.42-2.48,2.57-5.35,5.86-8.61,9.84,2.23-1.28,4.81-2.79,7.73-4.55,2.92-1.75,5.3-3.12,7.13-4.11,1.83-.99,3.6-1.77,5.31-2.35,1.72-.58,3.39-.87,5.02-.87,1.04,0,1.69,.15,1.95,.46,.26,.3,.31,.9,.16,1.78-.41,2.31-1.49,4.58-3.26,6.78-1.76,2.21-4.13,4.5-7.11,6.88-2.98,2.38-6.59,4.96-10.83,7.77,1.23,.4,2.53,.59,3.9,.59,4.3,0,10.55-2.7,18.74-8.09l-.58,3.29c-3.19,2.07-6.29,4.02-9.3,5.85-3.01,1.83-5.8,3.29-8.37,4.39-2.57,1.1-4.85,1.64-6.86,1.64-.74,0-1.52-.07-2.33-.21-.81-.14-1.55-.3-2.22-.5-.67-.2-1.53-.48-2.58-.85s-1.86-.62-2.42-.78c-1.23,.24-1.92,.37-2.07,.37-1.3,0-2.75-.43-4.34-1.28-1.57,1.95-3.36,4.47-5.37,7.56-2.01,3.09-3.68,5.55-5,7.38-1.32,1.83-2.97,3.58-4.93,5.25-1.06,.76-1.78,1.14-2.15,1.14-1.59,0-2.19-1.16-1.78-3.47,.35-2.01,1.22-4.1,2.58-6.28,1.37-2.18,2.94-4.24,4.71-6.19,1.77-1.95,3.69-3.92,5.75-5.92,2.06-1.99,3.53-3.48,4.4-4.45,7.32-8.28,13.13-15.33,17.42-21.15-10.04,8.53-17.58,14.65-22.61,18.36Zm22.21,2.24c4.23-3.17,7.44-5.86,9.64-8.09,2.19-2.22,3.39-3.93,3.6-5.12,.2-1.13-.39-1.69-1.76-1.69-1.86,0-4.68,1.26-8.49,3.77-3.8,2.51-7.86,5.9-12.17,10.16,2.79-.24,4.64-.33,5.55-.25,.91,.08,2.12,.48,3.63,1.21Z"/></g></g></g></svg>