<svg height="266.971" viewBox="0 0 950.833 266.971" width="950.833" xmlns="http://www.w3.org/2000/svg" xmlns:xlink="http://www.w3.org/1999/xlink"><clipPath id="a"><path d="m0 0h950.833v266.969h-950.833z"/></clipPath><g transform="translate(0 .001)"><path d="m627.334 181.891h323.498v85.078h-323.498z" fill="#bfae0a"/><path d="m627.334-.001h323.498v85.078h-323.498z" fill="#808080"/><path d="m243.062 0v85.078h323.5v-28.287l15.892-14.252-15.892-14.253v-28.286z" fill="#e6e6e6" transform="translate(60.46)"/><g clip-path="url(#a)"><path d="m79.835 29.435a24.086 24.086 0 0 0 2.7-.739v-5.687h-2.2v-2.264h2.2v-4.992h-2.424v-2.289h7.281v2.289h-2.52v4.992h2.128v2.264h-2.128v4.9a26.76 26.76 0 0 0 2.52-.994l.508 2.173a41.052 41.052 0 0 1 -7.557 2.635zm8.6-16.387h12.781v13.243h-3.955v4.346c0 .647.116.855.763.855h1.2c.416 0 .508-.162.577-.578a17.352 17.352 0 0 0 .185-2.612l2.15.441c-.116 3.42-.347 5.084-1.9 5.084h-3.4c-.972 0-1.942-.092-1.942-2.01v-5.526h-1.515c-1.064 4.831-3.49 6.495-7.373 7.836l-1.134-2.311c5.432-1.41 5.964-4.438 6.149-5.524h-2.588zm2.311 3.814h8.112v-1.762h-8.114zm0 3.675h8.112v-1.756h-8.114zm0 3.7h8.112v-1.76h-8.114z" fill="#221714" transform="translate(19.858 3.246)"/><path d="m102.675 19.578c-1.2.671-2.033 1.064-2.82 1.434l-1.364-2.219c3.7-1.317 7.882-3.906 9.962-6.449h2.1a30.2 30.2 0 0 0 10.076 6.495l-1.34 2.334c-.647-.322-1.34-.669-2.981-1.595v1.595h-5.658v2.544h8.736v2.149h-8.736v5.569h1.894c.371-.832 1.341-3.35 1.827-4.991l2.473.577a36.807 36.807 0 0 1 -1.826 4.414h4.9v2.2h-20.848v-2.2h4.553a25.487 25.487 0 0 0 -1.665-4.229l2.335-.717a27.7 27.7 0 0 1 1.849 4.946h2.149v-5.57h-8.781v-2.149h8.782v-2.543h-5.617zm12.574-.623a34.043 34.043 0 0 1 -5.778-4.461 27.825 27.825 0 0 1 -5.686 4.461z" fill="#221714" transform="translate(24.499 3.07)"/><path d="m63.03 40.181h-7.211v2.542a8.051 8.051 0 0 1 1.942-.255c3.49 0 6.565 2.243 6.565 6.241 0 3.1-1.988 6.563-7.651 6.563a13.129 13.129 0 0 1 -6.009-1.41l1.016-3.929a9.225 9.225 0 0 0 4.946 1.409c.44 0 3.42 0 3.42-2.565a2.379 2.379 0 0 0 -2.635-2.38 2.7 2.7 0 0 0 -2.2.993h-3.49v-11.138h11.3z" fill="#637389" transform="translate(12.603 9.017)"/><path d="m67.623 47.746v4.09c0 2.45-1.572 3.121-4.3 3.168v-2.035c1.48 0 1.849-.347 1.9-1.11h-1.9v-4.113z" fill="#637389" transform="translate(15.751 11.877)"/><path d="m69.995 52.434c-1.434-2.242-1.525-5.408-1.525-6.794a12.455 12.455 0 0 1 1.571-6.84 6.4 6.4 0 0 1 10.656.024c1.386 2.172 1.548 5.2 1.548 6.818a12.79 12.79 0 0 1 -1.526 6.818 6.194 6.194 0 0 1 -5.362 2.888 6.132 6.132 0 0 1 -5.362-2.912m7.951-6.794c0-3.051-.531-5.754-2.589-5.754s-2.589 2.7-2.589 5.754c0 3.352.648 5.778 2.589 5.778 2.058 0 2.589-2.7 2.589-5.778" fill="#637389" transform="translate(17.032 8.944)"/><path d="m82.212 52.434c-1.434-2.242-1.526-5.408-1.526-6.794a12.443 12.443 0 0 1 1.572-6.84 6.4 6.4 0 0 1 10.656.024c1.386 2.172 1.548 5.2 1.548 6.818a12.8 12.8 0 0 1 -1.526 6.818 6.194 6.194 0 0 1 -5.362 2.888 6.131 6.131 0 0 1 -5.362-2.912m7.951-6.794c0-3.051-.532-5.754-2.589-5.754s-2.589 2.7-2.589 5.754c0 3.352.647 5.778 2.589 5.778 2.057 0 2.589-2.7 2.589-5.778" fill="#637389" transform="translate(20.07 8.944)"/><path d="m94.428 52.434c-1.434-2.241-1.528-5.408-1.528-6.794a12.468 12.468 0 0 1 1.57-6.842 6.4 6.4 0 0 1 10.657.024c1.386 2.172 1.548 5.2 1.548 6.818a12.8 12.8 0 0 1 -1.526 6.818 6.194 6.194 0 0 1 -5.362 2.888 6.131 6.131 0 0 1 -5.362-2.912m7.951-6.794c0-3.051-.533-5.754-2.589-5.754s-2.59 2.7-2.59 5.754c0 3.352.649 5.778 2.59 5.778 2.055 0 2.589-2.7 2.589-5.778" fill="#637389" transform="translate(23.109 8.944)"/><path d="m119.359 45.574c-.693 3.745-1.757 7.951-7.581 11.718l-2.5-3.581c3.536-1.9 6.517-4.855 6.517-12.182v-1.918h-6.078v-3.767h21.864v3.767h-11.76c-.022.785-.07 1.894-.07 2.289h10.055a63.782 63.782 0 0 1 -1.016 12.48c-.717 2.659-2.38 2.8-4.346 2.8h-3.79l-.741-3.952h3.328c.763 0 1.249 0 1.618-.833a23.648 23.648 0 0 0 .74-6.818z" fill="#637389" transform="translate(27.183 8.916)"/><path d="m145.04 48.907h-12.227v8.3h-3.929v-21.381h20.062v18.352c0 1.849-.278 3.028-3.144 3.028h-3.859l-.672-4h3.074c.694 0 .694-.348.694-.741zm-12.228-3.674h4.188v-5.641h-4.185zm8 0h4.229v-5.641h-4.231z" fill="#637389" transform="translate(32.059 8.912)"/><path d="m334.159 40.968h-7.212v2.542a8.042 8.042 0 0 1 1.942-.255c3.49 0 6.563 2.243 6.563 6.241 0 3.1-1.988 6.563-7.65 6.563a13.125 13.125 0 0 1 -6.009-1.41l1.016-3.929a9.225 9.225 0 0 0 4.946 1.409c.44 0 3.42 0 3.42-2.565a2.379 2.379 0 0 0 -2.635-2.38 2.7 2.7 0 0 0 -2.2.993h-3.49v-11.138h11.3z" fill="#637389" transform="translate(80.044 9.213)"/><path d="m338.752 48.533v4.09c0 2.45-1.571 3.121-4.3 3.168v-2.034c1.478 0 1.848-.347 1.894-1.11h-1.894v-4.114z" fill="#637389" transform="translate(83.193 12.072)"/><path d="m341.125 53.221c-1.434-2.241-1.526-5.408-1.526-6.794a12.454 12.454 0 0 1 1.572-6.842 6.4 6.4 0 0 1 10.654.024c1.387 2.172 1.548 5.2 1.548 6.818a12.8 12.8 0 0 1 -1.525 6.818 6.2 6.2 0 0 1 -5.362 2.888 6.131 6.131 0 0 1 -5.362-2.912m7.951-6.794c0-3.051-.532-5.754-2.589-5.754s-2.589 2.7-2.589 5.754c0 3.352.647 5.778 2.589 5.778 2.057 0 2.589-2.7 2.589-5.778" fill="#637389" transform="translate(84.473 9.14)"/><path d="m353.341 53.221c-1.434-2.241-1.526-5.408-1.526-6.794a12.454 12.454 0 0 1 1.572-6.842 6.4 6.4 0 0 1 10.656.024c1.386 2.172 1.547 5.2 1.547 6.818a12.8 12.8 0 0 1 -1.525 6.818 6.194 6.194 0 0 1 -5.362 2.888 6.132 6.132 0 0 1 -5.362-2.912m7.951-6.794c0-3.051-.532-5.754-2.589-5.754s-2.589 2.7-2.589 5.754c0 3.352.647 5.778 2.589 5.778 2.057 0 2.589-2.7 2.589-5.778" fill="#637389" transform="translate(87.512 9.14)"/><path d="m365.557 53.221c-1.434-2.241-1.526-5.408-1.526-6.794a12.454 12.454 0 0 1 1.572-6.842 6.4 6.4 0 0 1 10.656.024c1.386 2.172 1.547 5.2 1.547 6.818a12.8 12.8 0 0 1 -1.525 6.818 6.194 6.194 0 0 1 -5.362 2.888 6.132 6.132 0 0 1 -5.362-2.912m7.951-6.794c0-3.051-.532-5.754-2.589-5.754s-2.589 2.7-2.589 5.754c0 3.352.647 5.778 2.589 5.778 2.057 0 2.589-2.7 2.589-5.778" fill="#637389" transform="translate(90.551 9.14)"/><path d="m390.489 46.361c-.693 3.745-1.757 7.951-7.581 11.718l-2.5-3.581c3.536-1.9 6.518-4.855 6.518-12.182v-1.916h-6.079v-3.769h21.866v3.769h-11.762c-.022.785-.069 1.894-.069 2.289h10.054a63.888 63.888 0 0 1 -1.016 12.48c-.717 2.659-2.381 2.8-4.346 2.8h-3.79l-.741-3.952h3.328c.763 0 1.249 0 1.618-.833a23.647 23.647 0 0 0 .741-6.818z" fill="#637389" transform="translate(94.625 9.112)"/><path d="m416.169 49.695h-12.226v8.3h-3.93v-21.382h20.062v18.352c0 1.849-.277 3.028-3.143 3.028h-3.86l-.671-4h3.074c.693 0 .693-.347.693-.741zm-12.226-3.675h4.183v-5.641h-4.183zm8 0h4.229v-5.641h-4.232z" fill="#637389" transform="translate(99.501 9.107)"/><path d="m241.22 81.332h-237.474v-77.586h237.474zm3.746-81.332h-244.966v85.078h244.966z" fill="#ccc"/><path d="m594 34.325a26.685 26.685 0 0 1 -9.645-2.991 29.251 29.251 0 0 1 -9.331 3.081l-1.191-3.036a25.174 25.174 0 0 0 7.847-1.911 19.681 19.681 0 0 1 -3.957-4.565l2.405-1.439a17.4 17.4 0 0 0 4.25 4.453 20.509 20.509 0 0 0 4.384-4.519h-13.241v-2.698h7.486v-2.54h-9.151v-2.788h9.151v-2.249h2.811v2.249h9.242v2.788h-9.242v2.54h6.382v2.722a21.251 21.251 0 0 1 -5.126 6.07 21.1 21.1 0 0 0 8.027 1.753z" fill="#fff" transform="translate(142.738 3.264)"/><path d="m600.608 25.1a26.773 26.773 0 0 1 -2.743 1.034v6.251c0 1.956-1.732 1.978-2.384 1.978h-2.945l-.406-2.763h2.25c.561 0 .74-.022.74-.561v-4c-1.573.495-2.2.651-3.013.853l-.381-2.787c.809-.2 1.842-.45 3.394-.9v-4.657h-3.238v-2.585h3.238v-3.777h2.744v3.777h2.63v2.585h-2.63v3.822c1.215-.381 1.933-.652 2.63-.922zm6.25-11.827a99.194 99.194 0 0 1 -3.643 17.043c1.867-.2 4.655-.517 6.41-.832a47.023 47.023 0 0 0 -2.07-6.048l2.675-.764a46.354 46.354 0 0 1 3.194 11.083l-2.947.7c-.09-.9-.157-1.551-.335-2.474-2.542.586-8.794 1.327-11.04 1.53l-.473-2.878c.561 0 .721 0 1.663-.067a92.492 92.492 0 0 0 3.553-17.424z" fill="#fff" transform="translate(147.189 3.269)"/><path d="m614.275 30.58c4.317-.134 10.119-.336 10.119-5.4 0-2.922-1.957-3.056-3.35-3.056a70.971 70.971 0 0 0 -8.545 1.19l-.448-3.171c6.295-.652 7.982-.808 8.993-.808 2.225 0 6.565 0 6.565 5.732 0 7.736-8.027 8.186-12.434 8.344zm10.883-12.636a39.735 39.735 0 0 0 -10.613-1.482l.383-2.745a49.561 49.561 0 0 1 10.882 1.349z" fill="#fff" transform="translate(152.244 3.412)"/><path d="m635.636 27.5a17.764 17.764 0 0 1 -1.708-2.743v9.645h-2.609v-9.887a19.857 19.857 0 0 1 -2.81 5.507l-.945-3.464a19.858 19.858 0 0 0 3.509-6.812h-3.1v-2.653h3.35v-3.934h2.609v3.934h2.668v2.654h-2.676v1.08a15.759 15.759 0 0 0 3.171 4.181zm12.772 6.385h-11.018v-20.029h11.018zm-2.7-17.4h-5.666v3.127h5.666zm0 5.622h-5.666v3.214h5.666zm0 5.734h-5.666v3.4h5.666z" fill="#fff" transform="translate(156.103 3.273)"/><path d="m648.488 26.493a26.038 26.038 0 0 1 -.743 6.475l-2.09-1.1a17.181 17.181 0 0 0 .809-5.576zm-2.676-3.756c.944 0 1.056 0 1.395-.022.651-.9.965-1.349 1.191-1.663a13.939 13.939 0 0 0 -2.721-2.675l1.215-2.318c.4.315.472.383.561.452a35.025 35.025 0 0 0 1.686-3.352l2.43.676a32.953 32.953 0 0 1 -2.5 4.248c.2.2.4.406.787.832a28.6 28.6 0 0 0 2.113-3.485l2.092.9v-1.71h4.991v-1.415h2.766v1.415h5.239v2.473h-5.239v1.417h4.54v2.271h-11.62v-2.271h4.317v-1.417h-4.991v-.448a57.914 57.914 0 0 1 -4.137 5.959c.292-.022 1.731-.091 2.069-.112-.2-.652-.293-.923-.451-1.371l1.8-.7a19.168 19.168 0 0 1 1.034 2.9v-1.321h12.209v4.386h-2.519v-2.119h-7.263v2.114h-2.428v-1.328l-1.663.518c-.112-.652-.136-.721-.18-.9-.159.021-.247.046-1.058.134v9.534h-2.36v-9.307c-.427.044-2.9.268-3.148.29zm8.049 3.4a27.247 27.247 0 0 1 .631 4.588l-2.047.382a26.316 26.316 0 0 0 -.4-4.7zm-.7 5.937c3.372-1.238 3.71-3.171 3.912-6.834h2.54c-.157 5.192-1.372 7.531-4.81 9.127zm7.6-6.834h2.564v5.89c0 .427.066.471.448.471h.719a.383.383 0 0 0 .406-.381c.066-.451.09-1.912.09-2.473l2.09.582c-.022 3.149-.022 4.813-1.755 4.813h-2.945c-1.618 0-1.618-1.371-1.618-1.909z" fill="#fff" transform="translate(160.603 3.273)"/><path d="m672.621 25.585-1.259 2.426a12.3 12.3 0 0 1 -1.6-2.539v8.859h-2.654v-8.341a23.327 23.327 0 0 1 -2.585 4.451l-1.034-3.283a21.39 21.39 0 0 0 3.4-5.8h-3.036v-2.587h3.259v-2.293c-1.349.159-2.09.224-2.811.292l-.493-2.564a33.859 33.859 0 0 0 7.329-1.193l1.034 2.451a23.893 23.893 0 0 1 -2.405.586v2.72h2.134v2.587h-2.135v.225a18.863 18.863 0 0 0 2.856 3.821v-7.555h1.8a17.5 17.5 0 0 0 -1.844-3.8l2.745-.965a17.189 17.189 0 0 1 1.933 4.115l-1.978.651h4.271a37.4 37.4 0 0 0 2.339-4.834l2.81.947a27.194 27.194 0 0 1 -2.023 3.887h1.754v8.32h-3.1v5.06c0 .381.2.517.563.517h.4a.465.465 0 0 0 .495-.361 12.832 12.832 0 0 0 .225-2.654l2.5.608c-.247 3.934-.36 4.992-2.225 4.992h-2.745c-1.371 0-1.932-.452-1.932-1.891v-6.272h-1.53c-.338 4.519-1.889 6.362-5.126 8.3l-1.618-2.383c2.945-1.461 3.957-3.081 4.115-5.914h-1.822zm2.7-1.934h6.407v-3.261h-6.408z" fill="#fff" transform="translate(165.04 3.237)"/><path d="m599.741 41.716a9.086 9.086 0 0 0 -1.247-.09 5.016 5.016 0 0 0 -4.9 3.212 5.545 5.545 0 0 1 2.936-.785 6.15 6.15 0 0 1 6.171 6.379 6.53 6.53 0 0 1 -6.726 6.656c-3.605 0-7.235-2.495-7.235-8.505 0-5.363 3.074-10.884 9.407-10.884.578 0 1.226.044 1.6.067zm-3.86 6.1a2.64 2.64 0 0 0 -2.843 2.451 2.845 2.845 0 0 0 2.843 2.887 2.531 2.531 0 0 0 2.542-2.748 2.353 2.353 0 0 0 -2.542-2.59" fill="#fff" transform="translate(146.445 9.377)"/><path d="m602.535 54.175c-1.434-2.241-1.526-5.407-1.526-6.794a12.457 12.457 0 0 1 1.572-6.842 6.4 6.4 0 0 1 10.656.025c1.386 2.17 1.547 5.2 1.547 6.817a12.8 12.8 0 0 1 -1.525 6.819 6.193 6.193 0 0 1 -5.362 2.887 6.129 6.129 0 0 1 -5.362-2.912m7.951-6.794c0-3.051-.532-5.753-2.589-5.753s-2.589 2.7-2.589 5.753c0 3.352.647 5.778 2.589 5.778 2.057 0 2.589-2.7 2.589-5.778" fill="#fff" transform="translate(149.497 9.377)"/><path d="m614.751 54.175c-1.434-2.241-1.526-5.407-1.526-6.794a12.457 12.457 0 0 1 1.572-6.842 6.4 6.4 0 0 1 10.656.025c1.386 2.17 1.547 5.2 1.547 6.817a12.815 12.815 0 0 1 -1.523 6.819 6.2 6.2 0 0 1 -5.363 2.887 6.129 6.129 0 0 1 -5.362-2.912m7.951-6.794c0-3.051-.532-5.753-2.589-5.753s-2.589 2.7-2.589 5.753c0 3.352.647 5.778 2.589 5.778 2.057 0 2.589-2.7 2.589-5.778" fill="#fff" transform="translate(152.536 9.377)"/><path d="m639.684 47.316c-.694 3.746-1.757 7.951-7.581 11.719l-2.5-3.583c3.536-1.9 6.517-4.854 6.517-12.18v-1.919h-6.079v-3.766h21.866v3.766h-11.761c-.022.787-.07 1.894-.07 2.29h10.054a63.685 63.685 0 0 1 -1.016 12.48c-.716 2.659-2.38 2.8-4.346 2.8h-3.79l-.741-3.954h3.329c.763 0 1.247 0 1.617-.832a23.566 23.566 0 0 0 .741-6.819z" fill="#fff" transform="translate(156.611 9.35)"/><path d="m665.363 50.65h-12.226v8.3h-3.929v-21.383h20.061v18.353c0 1.849-.276 3.027-3.142 3.027h-3.861l-.669-4h3.074c.692 0 .692-.348.692-.742zm-12.227-3.676h4.183v-5.64h-4.183zm8 0h4.23v-5.64h-4.23z" fill="#fff" transform="translate(161.487 9.345)"/><path d="m0 0h244.966v85.078h-244.966z" fill="#637389" transform="translate(0 181.891)"/><path d="m582.452 188.2-15.891-14.253v-28.288h-323.5v85.078h323.5v-28.287z" fill="#e6e6e6" transform="translate(60.46 36.232)"/><g fill="#fff"><path d="m593.053 180.149a27.424 27.424 0 0 1 -9.915-3.074 30.09 30.09 0 0 1 -9.592 3.167l-1.226-3.121a25.859 25.859 0 0 0 8.067-1.964 20.287 20.287 0 0 1 -4.067-4.693l2.473-1.479a17.9 17.9 0 0 0 4.368 4.577 21.1 21.1 0 0 0 4.508-4.645h-13.615v-2.775h7.7v-2.612h-9.407v-2.866h9.407v-2.31h2.89v2.31h9.5v2.866h-9.5v2.612h6.556v2.8a21.853 21.853 0 0 1 -5.271 6.241 21.663 21.663 0 0 0 8.252 1.8z" transform="translate(142.361 39.389)"/><path d="m599.849 170.667a27.89 27.89 0 0 1 -2.82 1.064v6.425c0 2.012-1.779 2.034-2.45 2.034h-3.028l-.416-2.843h2.313c.576 0 .762-.024.762-.577v-4.115c-1.618.508-2.265.671-3.1.878l-.392-2.866c.832-.209 1.9-.462 3.49-.924v-4.784h-3.328v-2.659h3.328v-3.882h2.82v3.882h2.7v2.659h-2.7v3.93c1.249-.395 1.987-.672 2.7-.948zm6.425-12.157a101.913 101.913 0 0 1 -3.744 17.519c1.918-.207 4.784-.531 6.587-.854a47.947 47.947 0 0 0 -2.127-6.219l2.751-.785a47.7 47.7 0 0 1 3.282 11.395l-3.028.717a24.819 24.819 0 0 0 -.346-2.542c-2.612.6-9.037 1.364-11.349 1.571l-.484-2.958c.577 0 .738 0 1.71-.069a95.344 95.344 0 0 0 3.653-17.912z" transform="translate(146.938 39.394)"/><path d="m613.9 176.3c4.438-.137 10.4-.346 10.4-5.546 0-3-2.01-3.144-3.444-3.144a72.73 72.73 0 0 0 -8.782 1.225l-.462-3.259c6.471-.671 8.2-.832 9.244-.832 2.288 0 6.749 0 6.749 5.894 0 7.951-8.252 8.413-12.782 8.574zm11.19-12.99a40.953 40.953 0 0 0 -10.909-1.526l.393-2.82a50.843 50.843 0 0 1 11.186 1.387z" transform="translate(152.136 39.541)"/><path d="m635.869 173.136a18.271 18.271 0 0 1 -1.758-2.82v9.915h-2.68v-10.17a20.447 20.447 0 0 1 -2.89 5.663l-.97-3.559a20.445 20.445 0 0 0 3.605-7h-3.189v-2.726h3.444v-4.049h2.68v4.046h2.752v2.726h-2.752v1.11a16.227 16.227 0 0 0 3.26 4.3zm13.131 6.564h-11.329v-20.593h11.329zm-2.772-17.889h-5.828v3.212h5.824zm0 5.777h-5.828v3.305h5.824zm0 5.894h-5.828v3.49h5.824z" transform="translate(156.105 39.399)"/><path d="m649.085 172.1c-.186 4.252-.416 5.386-.763 6.657l-2.149-1.133a17.664 17.664 0 0 0 .832-5.732zm-2.751-3.86c.972 0 1.088 0 1.434-.022.671-.924.994-1.387 1.224-1.711a14.378 14.378 0 0 0 -2.8-2.751l1.248-2.38c.417.323.486.393.578.462a36.318 36.318 0 0 0 1.734-3.443l2.5.692a33.791 33.791 0 0 1 -2.566 4.369c.208.207.416.416.808.855a29.946 29.946 0 0 0 2.174-3.583l2.148.924v-1.756h5.132v-1.456h2.842v1.456h5.387v2.542h-5.387v1.456h4.669v2.334h-11.949v-2.334h4.438v-1.456h-5.132v-.462a59.077 59.077 0 0 1 -4.252 6.124c.3-.024 1.78-.092 2.127-.116-.209-.669-.3-.948-.462-1.41l1.849-.716a19.709 19.709 0 0 1 1.063 2.982v-1.365h12.551v4.507h-2.592v-2.172h-7.466v2.172h-2.5v-1.362l-1.711.531a9.263 9.263 0 0 0 -.184-.924c-.162.024-.256.046-1.088.139v9.8h-2.426v-9.569c-.438.046-2.982.278-3.237.3zm8.274 3.49a27.866 27.866 0 0 1 .648 4.715l-2.1.392a27.08 27.08 0 0 0 -.416-4.83zm-.717 6.1c3.468-1.271 3.815-3.258 4.022-7.025h2.612c-.162 5.338-1.41 7.742-4.946 9.384zm7.809-7.03h2.634v6.055c0 .44.07.485.462.485h.74a.392.392 0 0 0 .416-.392c.07-.462.092-1.964.092-2.542l2.149.6c-.021 3.237-.021 4.946-1.8 4.946h-3.028c-1.663 0-1.663-1.41-1.663-1.964z" transform="translate(160.732 39.399)"/><path d="m673.9 171.163-1.294 2.5a12.7 12.7 0 0 1 -1.641-2.612v9.107h-2.727v-8.575a24.093 24.093 0 0 1 -2.659 4.577l-1.064-3.375a21.988 21.988 0 0 0 3.49-5.963h-3.121v-2.659h3.353v-2.363c-1.387.162-2.15.232-2.89.3l-.51-2.635a34.793 34.793 0 0 0 7.535-1.225l1.064 2.519a24.321 24.321 0 0 1 -2.472.6v2.8h2.2v2.659h-2.2v.231a19.279 19.279 0 0 0 2.935 3.929v-7.766h1.849a18.045 18.045 0 0 0 -1.9-3.906l2.82-.994a17.711 17.711 0 0 1 1.988 4.231l-2.034.669h4.392a38.6 38.6 0 0 0 2.4-4.969l2.89.97a28.046 28.046 0 0 1 -2.08 4h1.8v8.553h-3.189v5.2c0 .392.209.532.578.532h.416a.478.478 0 0 0 .508-.37 13.153 13.153 0 0 0 .231-2.729l2.566.624c-.255 4.046-.37 5.132-2.288 5.132h-2.82c-1.41 0-1.988-.462-1.988-1.942v-6.448h-1.572c-.347 4.645-1.942 6.541-5.27 8.529l-1.664-2.45c3.028-1.5 4.068-3.167 4.229-6.079h-1.861zm2.773-1.988h6.587v-3.352h-6.587z" transform="translate(165.294 39.362)"/><path d="m545.9 183.2h3.814v18.652h-4.3v-14.1l-3.234 2.265-.532-3.93z" transform="translate(134.733 45.571)"/><path d="m554.406 197.77a8.027 8.027 0 0 0 2.936.6 3.985 3.985 0 0 0 4.3-3.305 5.694 5.694 0 0 1 -2.982.809 5.978 5.978 0 0 1 -6.125-6.194 6.616 6.616 0 0 1 6.794-6.772c1.9 0 7.167.809 7.167 8.76 0 6.055-3.074 10.631-8.968 10.631a10.223 10.223 0 0 1 -3.121-.462zm4.992-5.593a2.67 2.67 0 1 0 -2.589-2.542 2.517 2.517 0 0 0 2.589 2.542" transform="translate(137.44 45.498)"/><path d="m566.35 199.387c-1.434-2.241-1.526-5.408-1.526-6.794a12.454 12.454 0 0 1 1.572-6.842 6.4 6.4 0 0 1 10.654.024c1.387 2.172 1.548 5.2 1.548 6.818a12.8 12.8 0 0 1 -1.525 6.818 6.2 6.2 0 0 1 -5.362 2.888 6.132 6.132 0 0 1 -5.362-2.912m7.951-6.794c0-3.051-.532-5.754-2.589-5.754s-2.589 2.7-2.589 5.754c0 3.352.647 5.778 2.589 5.778 2.057 0 2.589-2.7 2.589-5.778" transform="translate(140.497 45.498)"/><path d="m591.281 192.527c-.693 3.745-1.756 7.951-7.58 11.718l-2.5-3.581c3.536-1.9 6.517-4.855 6.517-12.181v-1.918h-6.079v-3.765h21.864v3.767h-11.76c-.022.785-.07 1.894-.07 2.289h10.055a63.78 63.78 0 0 1 -1.016 12.48c-.716 2.659-2.38 2.8-4.346 2.8h-3.79l-.74-3.952h3.328c.764 0 1.249 0 1.618-.833a23.646 23.646 0 0 0 .74-6.818z" transform="translate(144.571 45.47)"/><path d="m616.962 195.861h-12.226v8.3h-3.93v-21.38h20.062v18.352c0 1.849-.279 3.028-3.144 3.028h-3.86l-.669-4h3.073c.694 0 .694-.347.694-.741zm-12.227-3.675h4.183v-5.641h-4.183zm8 0h4.231v-5.641h-4.231z" transform="translate(149.447 45.465)"/><path d="m640.181 191.568a7.727 7.727 0 0 1 -6.356 3.167c-1.894 0-2.75-.462-5.109-1.711-2.055-1.064-2.657-1.247-3.674-1.247a4.717 4.717 0 0 0 -4.161 2.2l-2.1-2.149a7.8 7.8 0 0 1 6.356-3.121c1.9 0 2.635.37 5.432 1.826a6.6 6.6 0 0 0 3.35 1.11 4.978 4.978 0 0 0 4.185-2.2z" transform="translate(153.918 46.939)"/><path d="m651.271 198v3.929h-14.723c7.443-8.089 9.706-11.025 9.706-12.851a2.074 2.074 0 0 0 -2.172-2.218c-2.472 0-3.929 2.358-4.438 3.189l-1.894-4a7.634 7.634 0 0 1 6.4-3.143c3.513 0 6.379 2.149 6.379 6.031 0 2.982-1.595 5.062-5.085 9.061z" transform="translate(158.338 45.498)"/><path d="m663.487 198v3.929h-14.723c7.443-8.089 9.708-11.025 9.708-12.851a2.075 2.075 0 0 0 -2.173-2.218c-2.472 0-3.929 2.358-4.438 3.189l-1.894-4a7.634 7.634 0 0 1 6.4-3.143c3.513 0 6.379 2.149 6.379 6.031 0 2.982-1.595 5.062-5.085 9.061z" transform="translate(161.376 45.498)"/><path d="m663.154 199.387c-1.434-2.241-1.526-5.408-1.526-6.794a12.456 12.456 0 0 1 1.571-6.842 6.4 6.4 0 0 1 10.656.024c1.386 2.172 1.548 5.2 1.548 6.818a12.8 12.8 0 0 1 -1.525 6.818 6.2 6.2 0 0 1 -5.362 2.888 6.129 6.129 0 0 1 -5.362-2.912m7.95-6.794c0-3.051-.531-5.754-2.587-5.754s-2.59 2.7-2.59 5.754c0 3.352.648 5.778 2.59 5.778 2.057 0 2.587-2.7 2.587-5.778" transform="translate(164.576 45.498)"/><path d="m688.085 192.527c-.694 3.745-1.757 7.951-7.581 11.718l-2.5-3.581c3.536-1.9 6.517-4.855 6.517-12.181v-1.918h-6.078v-3.765h21.864v3.767h-11.76c-.023.785-.07 1.894-.07 2.289h10.055a63.775 63.775 0 0 1 -1.016 12.48c-.717 2.659-2.38 2.8-4.346 2.8h-3.791l-.739-3.952h3.328c.763 0 1.249 0 1.618-.833a23.616 23.616 0 0 0 .739-6.818z" transform="translate(168.65 45.47)"/><path d="m713.766 195.861h-12.227v8.3h-3.93v-21.38h20.064v18.352c0 1.849-.279 3.028-3.144 3.028h-3.86l-.671-4h3.074c.694 0 .694-.347.694-.741zm-12.228-3.675h4.185v-5.641h-4.185zm8 0h4.231v-5.641h-4.231z" transform="translate(173.526 45.465)"/><path d="m49.835 179.78c-2.576-.607-7.361-.632-11.636-.632-4.785 0-8.21-.1-9.5-.461a1.8 1.8 0 0 1 -1.531-1.871c0-1.02.34-1.676 1.676-2.162 1.58-.584 4.664-1.023 9.449-1.023a74.321 74.321 0 0 1 12.781 1.169l.34-1.871a75.752 75.752 0 0 0 -13.118-1.19c-5.343 0-8.842.631-10.785 1.385a3.8 3.8 0 0 0 -2.818 3.789 3.17 3.17 0 0 0 2.259 3.305c1.676.558 5.83.825 12.219.825a68.815 68.815 0 0 1 9.207.365c1.7.34 2.162 1.116 2.162 2.138a2.346 2.346 0 0 1 -1.6 2.429c-1.869.778-5.052 1.069-9.547 1.069a77.45 77.45 0 0 1 -13.9-1.336l-.316 1.919a69.746 69.746 0 0 0 14.211 1.311c4.59 0 9.135-.437 11.274-1.481a3.87 3.87 0 0 0 2.356-3.911 3.611 3.611 0 0 0 -3.182-3.766" transform="translate(6.142 42.719)"/><path d="m113.775 185.712h-.075c-7.675-4.568-15.327-9.085-22.979-13.7h-1.99v16.52h2.429v-13.7h.074c7.677 4.593 15.3 9.135 22.981 13.7h1.992v-16.521h-2.431z" transform="translate(22.071 42.787)"/><path d="m132.31 172.011-14.967 16.349v.171h2.917l3.378-3.693h18.923l3.4 3.693h2.915v-.171l-14.964-16.349zm8.524 10.933h-15.449l4.713-5.125c1.482-1.628 2.988-3.377 2.988-3.377h.049c.194.242 1.481 1.748 2.987 3.377z" transform="translate(29.188 42.787)"/><path d="m151.638 186.49v-5.514h22.276v-1.894h-22.276v-5.027h23.244v-2.04h-25.676v16.52h25.824v-2.04z" transform="translate(37.114 42.787)"/><path d="m84.156 177.519v-3.2l-2.712-1.828h-4.75l-4.781-3.222-4.781 3.222h-4.75l-2.714 1.828v3.2l-4.751 3.2 4.751 3.2v3.2l2.714 1.828h4.749l4.781 3.222 4.781-3.222h4.75l2.716-1.831v-3.2l4.75-3.2zm-2.26-3.234v1.715l-2.537-1.711zm0 3.876v5.121l-5.75 3.874h-8.467l-5.75-3.874v-5.121l5.75-3.876h8.466zm-9.984-6.728 1.568 1.058h-3.136zm-9.984 2.852h2.537l-2.536 1.715zm-3.8 6.436 1.537-1.038v2.074zm3.8 6.435v-1.71l2.537 1.71zm9.984 2.853-1.568-1.058h3.137zm9.984-2.853h-2.537l2.537-1.71zm2.26-7.472 1.538 1.036-1.538 1.038z" transform="translate(13.66 42.105)"/></g><path d="m298.48 10.377h3v16.07h-3.38v-12.453l-2.838 1.978-.421-3.118z" fill="#666" transform="translate(73.34 2.581)"/><path d="m305.564 24.352c-1.24-1.919-1.3-4.7-1.3-5.877a10.7 10.7 0 0 1 1.339-5.937 5.435 5.435 0 0 1 9.055.02 11.594 11.594 0 0 1 1.32 5.917 11.027 11.027 0 0 1 -1.3 5.9 5.442 5.442 0 0 1 -9.115-.02m7.035-5.877c0-3.258-.7-5.257-2.479-5.257-1.9 0-2.479 2.3-2.479 5.257 0 3.258.681 5.257 2.479 5.257 1.9 0 2.479-2.259 2.479-5.257" fill="#666" transform="translate(75.684 2.518)"/><path d="m316.124 24.352c-1.24-1.919-1.3-4.7-1.3-5.877a10.7 10.7 0 0 1 1.339-5.937 5.435 5.435 0 0 1 9.055.02 11.594 11.594 0 0 1 1.32 5.917 11.027 11.027 0 0 1 -1.3 5.9 5.442 5.442 0 0 1 -9.115-.02m7.035-5.877c0-3.258-.7-5.257-2.479-5.257-1.9 0-2.479 2.3-2.479 5.257 0 3.258.681 5.257 2.479 5.257 1.9 0 2.479-2.259 2.479-5.257" fill="#666" transform="translate(78.311 2.518)"/><path d="m329.31 10.121c2.2 0 3.957 1.8 3.957 4.436 0 2.62-1.74 4.418-3.957 4.418-2.179 0-3.958-1.778-3.958-4.418 0-2.659 1.8-4.436 3.958-4.436m8.834.318h1.7l-11.095 16.072h-1.7zm-8.834 6.476c.719 0 1.439-.739 1.439-2.359 0-1.638-.719-2.378-1.439-2.378-.779 0-1.42.879-1.42 2.378 0 1.46.6 2.359 1.42 2.359m8.254 1.085a4.092 4.092 0 0 1 3.977 4.417c0 2.619-1.758 4.417-3.957 4.417a4.093 4.093 0 0 1 -3.977-4.417c0-2.659 1.8-4.417 3.957-4.417m.02 6.776c.7 0 1.42-.739 1.42-2.359 0-1.638-.719-2.379-1.44-2.379-.8 0-1.419.9-1.419 2.379 0 1.5.639 2.359 1.439 2.359" fill="#666" transform="translate(80.929 2.518)"/><path d="m350.364 15.161h-7.077v-2.261h7.077zm.18 6.836v-2.619h4.377v-.9h-3.937v-8.454h10.753v8.456h-4.057v.9h4.578v2.62h-3.439a13.875 13.875 0 0 0 3.779 3.039l-1.46 2.758a11.7 11.7 0 0 1 -3.458-3.439v4.037h-2.76v-4.139a11.918 11.918 0 0 1 -3.7 3.558l-1.239-1.838v2.158h-6.156v-6.257h6.156v3.238a13.928 13.928 0 0 0 3.641-3.115zm-.559-9.813h-6.156v-2.159h6.156zm0 5.9h-6.156v-2.184h6.156zm0 2.978h-6.156v-2.2h6.156zm-2.185 2.974h-1.359v1.879h1.359zm7.275-11.753h-1.538v1.1h1.538zm0 2.92h-1.538v1.1h1.538zm4.038-2.92h-1.6v1.1h1.6zm0 2.92h-1.6v1.1h1.6z" fill="#666" transform="translate(85.391 2.493)"/><path d="m367.126 21.393-1.1 2.059a9.338 9.338 0 0 1 -1.18-2.119v7.217h-2.8v-6.478a15.574 15.574 0 0 1 -2.039 3.5l-.979-3.619a13.812 13.812 0 0 0 2.762-4.553h-2.459v-2.78h2.719v-1.662c-1.08.1-1.7.12-2.339.16l-.441-2.7a29.686 29.686 0 0 0 6.637-.919l1 2.7a16.346 16.346 0 0 1 -2.059.42v2h1.66v2.781h-1.56a14.5 14.5 0 0 0 2.119 3.118v-6.941h1.339a22.845 22.845 0 0 0 -1.558-3.218l2.918-.839a19.244 19.244 0 0 1 1.7 3.579l-1.859.478h3.5a26.88 26.88 0 0 0 1.839-4.1l3.1.819a26.437 26.437 0 0 1 -1.66 3.278h1.359v7.816h-2.617v3.9c0 .12 0 .46.36.46.739 0 .759 0 .8-2.478l2.339.7c-.2 3.538-.36 4.578-2.1 4.578h-2.459c-1.479 0-1.818-.78-1.818-1.861v-5.3h-1.02c-.18 3.678-1.419 5.537-4.317 7.275l-1.779-2.539c2.918-1.379 3.319-3.157 3.419-4.736zm2.758-2.659h4.916v-2.458h-4.918z" fill="#666" transform="translate(89.307 2.358)"/><path d="m384.732 26.874a10.067 10.067 0 0 1 0-13.024h1.768a10.121 10.121 0 0 0 -2.335 6.512 10.3 10.3 0 0 0 2.335 6.512z" fill="#666" transform="translate(95.105 3.445)"/><path d="m390.85 22.81a9.189 9.189 0 0 1 -.824-1.456v5.546h-1.909v-5.23a10.553 10.553 0 0 1 -1.5 2.8l-.661-2.581a10.465 10.465 0 0 0 2.034-3.847h-1.758v-1.922h1.882v-2.281h1.909v2.281h1.483v1.923h-1.483v.3a9.74 9.74 0 0 0 1.858 2.657zm7.954 3.82h-6.9v-12.391h6.9zm-1.979-10.442h-2.967v1.512h2.967zm0 3.339h-2.967v1.607h2.967zm0 3.434h-2.967v1.7h2.967z" fill="#666" transform="translate(96.005 3.442)"/><path d="m398.787 22.046a20.666 20.666 0 0 1 -.441 4.121l-1.332-.934a11 11 0 0 0 .44-3.324zm3.585-.8-1.031.3c-.027-.165-.066-.4-.082-.481-.081.014-.3.041-.522.055v5.743h-1.607v-5.545c-.3.027-1.621.165-1.827.179l-.165-1.868c.288 0 .522 0 .8-.015.22-.287.495-.673.646-.879a7.954 7.954 0 0 0 -1.552-1.592l.8-1.773c.194.151.234.206.317.276a11.921 11.921 0 0 0 .85-1.828l1.717.372a14.3 14.3 0 0 1 -1.456 2.555c.111.122.192.206.4.438a16.487 16.487 0 0 0 1.2-2.019l1.346.563v-1.07h2.915v-.8h1.964v.8h3.117v1.758h-3.117v.673h2.665v1.592h-7.158v-1.593h2.529v-.673h-2.915v-.261a26.911 26.911 0 0 1 -2.376 3.365c.22-.015.907-.055 1.073-.069a3.971 3.971 0 0 0 -.276-.838l1.21-.426a10.164 10.164 0 0 1 .549 1.5v-.4h7.542v2.871h-1.827v-1.291h-3.971v.535h1.429c-.055 2.967-.549 4.273-2.761 5.509l-1.2-1.69a2.94 2.94 0 0 0 2.129-3.064h-1.346zm-.151.549a23.546 23.546 0 0 1 .345 2.857l-1.307.248a15.844 15.844 0 0 0 -.219-2.9zm3.819-.4h1.854v3.165c0 .316.055.33.221.33h.356c.166 0 .22-.069.234-.246.027-.276.041-1.306.041-1.4l1.485.452c.027 2.185-.151 3.064-1.21 3.064h-1.909a1.019 1.019 0 0 1 -1.071-1.2z" fill="#666" transform="translate(98.755 3.437)"/><path d="m413.545 21.972-.756 1.415a6.411 6.411 0 0 1 -.81-1.456v4.96h-1.923v-4.452a10.63 10.63 0 0 1 -1.4 2.4l-.673-2.486a9.457 9.457 0 0 0 1.9-3.132h-1.691v-1.906h1.869v-1.14c-.742.069-1.169.081-1.608.11l-.3-1.856a20.293 20.293 0 0 0 4.56-.631l.687 1.854a11.3 11.3 0 0 1 -1.415.287v1.375h1.14v1.909h-1.071a9.933 9.933 0 0 0 1.456 2.143v-4.766h.92a15.821 15.821 0 0 0 -1.071-2.213l2.006-.577a13.207 13.207 0 0 1 1.169 2.46l-1.279.33h2.4a18.486 18.486 0 0 0 1.265-2.816l2.129.562a17.938 17.938 0 0 1 -1.14 2.254h.934v5.371h-1.8v2.68c0 .081 0 .316.247.316.508 0 .522 0 .549-1.7l1.607.48c-.137 2.433-.247 3.147-1.442 3.147h-1.69c-1.016 0-1.251-.536-1.251-1.279v-3.64h-.7a5.354 5.354 0 0 1 -2.967 5l-1.223-1.744a3.467 3.467 0 0 0 2.349-3.257zm1.9-1.826h3.379v-1.691h-3.379z" fill="#666" transform="translate(101.483 3.429)"/><path d="m424.405 17.741h-5.248v-1.607h5.248zm-.371-2.074h-4.478v-1.5h4.478zm0 4.107h-4.478v-1.566h4.478zm0 2.048h-4.478v-1.552h4.478zm.124 4.8h-4.6v-4.322h4.6zm-1.635-2.8h-1.1v1.181h1.1zm4.713 2.968v-4.39h-2.817v-2.034h2.817v-4.259h-2.542v-1.937h7.306v1.937h-2.692v4.259h2.857v2.034h-2.857v4.382zm-2.005-6.676a14.634 14.634 0 0 0 -.77-3.119l1.593-.44a13.667 13.667 0 0 1 .908 3.132zm4.3-.482a13.837 13.837 0 0 0 .783-3.077l1.758.357a18.776 18.776 0 0 1 -.8 3.2z" fill="#666" transform="translate(104.263 3.525)"/><path d="m433.01 26.91h-1.951v-5.867a6.993 6.993 0 0 1 -.578.632l-.522-2.994a9.273 9.273 0 0 0 1.773-4.864l2.019.137a17.851 17.851 0 0 1 -.742 3.339zm10.19-10.717h-2.857v1.512h2.472v8.847h-9.067v-8.846h2.431v-1.513h-2.459v-1.935h9.48zm-6.938 3.38h-.742v5.07h.742zm2.363-3.38h-.742v1.512h.742zm0 3.38h-.742v5.07h.742zm2.391 0h-.755v5.07h.755z" fill="#666" transform="translate(106.95 3.437)"/><path d="m441.07 26.874a10.289 10.289 0 0 0 2.321-6.512 10.033 10.033 0 0 0 -2.321-6.512h1.772a10.309 10.309 0 0 1 2.39 6.512 10.388 10.388 0 0 1 -2.39 6.512z" fill="#666" transform="translate(109.714 3.445)"/><path d="m269.89 184.167h3.81v18.651h-4.3v-14.1l-3.236 2.264-.532-3.929z" fill="#637389" transform="translate(66.075 45.81)"/><path d="m281.411 195.661v4.09c0 2.449-1.572 3.119-4.3 3.167v-2.034c1.48 0 1.849-.347 1.9-1.11h-1.9v-4.112z" fill="#637389" transform="translate(68.93 48.67)"/><path d="m293.2 187.891a8.661 8.661 0 0 0 -1.249-.092 5.019 5.019 0 0 0 -4.9 3.212 5.565 5.565 0 0 1 2.936-.785 6.152 6.152 0 0 1 6.171 6.381 6.532 6.532 0 0 1 -6.726 6.656c-3.605 0-7.234-2.5-7.234-8.505 0-5.363 3.073-10.887 9.406-10.887.578 0 1.226.046 1.6.067zm-3.86 6.1a2.638 2.638 0 0 0 -2.843 2.449 2.845 2.845 0 0 0 2.843 2.89 2.532 2.532 0 0 0 2.542-2.751 2.351 2.351 0 0 0 -2.542-2.587" fill="#637389" transform="translate(70.196 45.737)"/><path d="m296 200.35c-1.434-2.241-1.525-5.41-1.525-6.794a12.452 12.452 0 0 1 1.571-6.842 6.4 6.4 0 0 1 10.656.022c1.386 2.173 1.548 5.2 1.548 6.819a12.794 12.794 0 0 1 -1.526 6.817 6.406 6.406 0 0 1 -10.724-.022m7.951-6.794c0-3.051-.532-5.755-2.589-5.755s-2.589 2.7-2.589 5.755c0 3.352.648 5.778 2.589 5.778 2.057 0 2.589-2.7 2.589-5.778" fill="#637389" transform="translate(73.249 45.737)"/><path d="m308.215 200.35c-1.434-2.241-1.525-5.41-1.525-6.794a12.452 12.452 0 0 1 1.571-6.842 6.4 6.4 0 0 1 10.656.022c1.386 2.173 1.548 5.2 1.548 6.819a12.783 12.783 0 0 1 -1.526 6.817 6.406 6.406 0 0 1 -10.724-.022m7.951-6.794c0-3.051-.531-5.755-2.589-5.755s-2.589 2.7-2.589 5.755c0 3.352.648 5.778 2.589 5.778 2.058 0 2.589-2.7 2.589-5.778" fill="#637389" transform="translate(76.287 45.737)"/><path d="m333.147 193.489c-.694 3.744-1.757 7.951-7.581 11.717l-2.5-3.58c3.536-1.9 6.517-4.856 6.517-12.183v-1.917h-6.079v-3.769h21.866v3.769h-11.761c-.022.785-.07 1.894-.07 2.288h10.055a63.749 63.749 0 0 1 -1.018 12.48c-.716 2.659-2.38 2.8-4.344 2.8h-3.791l-.739-3.951h3.328c.763 0 1.249 0 1.618-.834a23.6 23.6 0 0 0 .739-6.817z" fill="#637389" transform="translate(80.362 45.709)"/><path d="m358.827 196.82h-12.227v8.3h-3.929v-21.38h20.062v18.35c0 1.849-.278 3.029-3.143 3.029h-3.86l-.669-4h3.073c.693 0 .693-.347.693-.739zm-12.227-3.672h4.183v-5.642h-4.183zm8 0h4.23v-5.642h-4.23z" fill="#637389" transform="translate(85.238 45.704)"/><path d="m382.047 192.529a7.73 7.73 0 0 1 -6.356 3.168c-1.894 0-2.75-.463-5.107-1.712-2.058-1.064-2.659-1.246-3.676-1.246a4.713 4.713 0 0 0 -4.16 2.2l-2.1-2.149a7.8 7.8 0 0 1 6.352-3.127c1.894 0 2.636.371 5.431 1.827a6.625 6.625 0 0 0 3.353 1.11 4.973 4.973 0 0 0 4.183-2.2z" fill="#637389" transform="translate(89.708 47.178)"/><path d="m384.572 184.167h3.814v18.651h-4.3v-14.1l-3.235 2.264-.531-3.929z" fill="#637389" transform="translate(94.602 45.81)"/><path d="m396.094 195.661v4.09c0 2.449-1.572 3.119-4.3 3.167v-2.034c1.479 0 1.848-.347 1.894-1.11h-1.888v-4.112z" fill="#637389" transform="translate(97.457 48.67)"/><path d="m410.771 197.207c0 3.7-3.166 6.055-6.933 6.055s-6.933-2.359-6.933-6.055a5.458 5.458 0 0 1 2.519-4.715 4.637 4.637 0 0 1 -1.595-3.514c0-2.842 2.358-5.107 6.009-5.107s6.008 2.265 6.008 5.107a4.72 4.72 0 0 1 -1.593 3.514 5.461 5.461 0 0 1 2.519 4.715m-4.3-.14a2.669 2.669 0 0 0 -5.27 0 2.665 2.665 0 0 0 5.27 0m-.692-7.951a1.947 1.947 0 0 0 -3.884 0 1.949 1.949 0 0 0 3.884 0" fill="#637389" transform="translate(98.728 45.737)"/><path d="m410.682 200.35c-1.432-2.241-1.525-5.41-1.525-6.794a12.452 12.452 0 0 1 1.571-6.842 6.4 6.4 0 0 1 10.656.022c1.386 2.173 1.548 5.2 1.548 6.819a12.782 12.782 0 0 1 -1.526 6.817 6.406 6.406 0 0 1 -10.724-.022m7.951-6.794c0-3.051-.531-5.755-2.589-5.755s-2.589 2.7-2.589 5.755c0 3.352.648 5.778 2.589 5.778 2.058 0 2.589-2.7 2.589-5.778" fill="#637389" transform="translate(101.775 45.737)"/><path d="m422.9 200.35c-1.434-2.241-1.526-5.41-1.526-6.794a12.451 12.451 0 0 1 1.572-6.842 6.4 6.4 0 0 1 10.654.022c1.387 2.173 1.548 5.2 1.548 6.819a12.794 12.794 0 0 1 -1.525 6.817 6.2 6.2 0 0 1 -5.362 2.89 6.134 6.134 0 0 1 -5.362-2.912m7.951-6.794c0-3.051-.532-5.755-2.589-5.755s-2.589 2.7-2.589 5.755c0 3.352.647 5.778 2.589 5.778 2.057 0 2.589-2.7 2.589-5.778" fill="#637389" transform="translate(104.814 45.737)"/><path d="m447.83 193.489c-.693 3.744-1.756 7.951-7.581 11.717l-2.5-3.58c3.536-1.9 6.518-4.856 6.518-12.183v-1.917h-6.079v-3.769h21.865v3.769h-11.761c-.023.785-.069 1.894-.069 2.288h10.054a63.78 63.78 0 0 1 -1.016 12.48c-.717 2.659-2.38 2.8-4.346 2.8h-3.79l-.74-3.951h3.329c.763 0 1.247 0 1.617-.834a23.635 23.635 0 0 0 .741-6.817z" fill="#637389" transform="translate(108.888 45.709)"/><path d="m473.511 196.82h-12.227v8.3h-3.929v-21.38h20.062v18.35c0 1.849-.279 3.029-3.144 3.029h-3.86l-.669-4h3.073c.694 0 .694-.347.694-.739zm-12.228-3.673h4.183v-5.642h-4.183zm8 0h4.229v-5.642h-4.229z" fill="#637389" transform="translate(113.764 45.704)"/><path d="m280.1 173.573v-3.137h-6.856v-2.78l6.936-10.154h3.258v9.954h1.918v2.98h-1.918v3.137zm-3.538-6.116h3.538v-5.277z" fill="#666" transform="translate(67.967 39.178)"/><path d="m285.244 171.479c-1.24-1.919-1.3-4.7-1.3-5.877a10.7 10.7 0 0 1 1.339-5.937 5.435 5.435 0 0 1 9.055.02 11.594 11.594 0 0 1 1.32 5.917 11.027 11.027 0 0 1 -1.3 5.9 5.442 5.442 0 0 1 -9.115-.02m7.035-5.877c0-3.258-.7-5.257-2.479-5.257-1.9 0-2.479 2.3-2.479 5.257 0 3.258.681 5.257 2.479 5.257 1.9 0 2.479-2.259 2.479-5.257" fill="#666" transform="translate(70.629 39.115)"/><path d="m298.43 157.248c2.2 0 3.957 1.8 3.957 4.436 0 2.62-1.74 4.418-3.957 4.418-2.179 0-3.958-1.778-3.958-4.418 0-2.659 1.8-4.436 3.958-4.436m8.834.318h1.7l-11.094 16.071h-1.7zm-8.834 6.476c.719 0 1.439-.739 1.439-2.359 0-1.638-.719-2.378-1.439-2.378-.779 0-1.42.879-1.42 2.378 0 1.46.6 2.359 1.42 2.359m8.254 1.08a4.092 4.092 0 0 1 3.977 4.417c0 2.619-1.758 4.417-3.957 4.417a4.093 4.093 0 0 1 -3.977-4.417c0-2.659 1.8-4.417 3.957-4.417m.02 6.776c.7 0 1.42-.739 1.42-2.359 0-1.638-.719-2.379-1.44-2.379-.8 0-1.419.9-1.419 2.379 0 1.5.639 2.359 1.439 2.359" fill="#666" transform="translate(73.248 39.115)"/><path d="m327.045 164.632a6.7 6.7 0 0 1 -5.437 2.68c-1.518 0-2.179-.3-4.437-1.5-1.72-.918-2.339-1.079-3.2-1.079a4.289 4.289 0 0 0 -3.679 1.9l-1.678-1.68a6.874 6.874 0 0 1 5.437-2.68c1.558 0 2.118.241 4.756 1.64a5.393 5.393 0 0 0 2.878.94 4.363 4.363 0 0 0 3.7-1.919z" fill="#666" transform="translate(76.766 40.364)"/><path d="m333.854 160.426a7.559 7.559 0 0 0 -1-.081c-1.34 0-3.318.3-4.6 3.438a4.862 4.862 0 0 1 2.878-.939 5.278 5.278 0 0 1 5.3 5.437 5.592 5.592 0 0 1 -5.757 5.677c-3.018 0-6.156-2.059-6.156-7.3 0-4.858 2.838-9.414 8.036-9.414.36 0 .859.019 1.3.06zm-3.238 5.4a2.506 2.506 0 0 0 -2.679 2.339 2.653 2.653 0 0 0 2.679 2.7 2.377 2.377 0 0 0 2.419-2.579 2.25 2.25 0 0 0 -2.419-2.459" fill="#666" transform="translate(80.722 39.115)"/><path d="m336.443 171.479c-1.24-1.919-1.3-4.7-1.3-5.877a10.7 10.7 0 0 1 1.339-5.937 5.436 5.436 0 0 1 9.055.02 11.594 11.594 0 0 1 1.32 5.917 11.027 11.027 0 0 1 -1.3 5.9 5.442 5.442 0 0 1 -9.115-.02m7.035-5.877c0-3.258-.7-5.257-2.479-5.257-1.9 0-2.479 2.3-2.479 5.257 0 3.258.681 5.257 2.479 5.257 1.9 0 2.479-2.259 2.479-5.257" fill="#666" transform="translate(83.365 39.115)"/><path d="m349.63 157.248c2.2 0 3.957 1.8 3.957 4.436 0 2.62-1.74 4.418-3.957 4.418-2.179 0-3.958-1.778-3.958-4.418 0-2.659 1.8-4.436 3.958-4.436m8.834.318h1.7l-11.094 16.071h-1.7zm-8.834 6.476c.719 0 1.439-.739 1.439-2.359 0-1.638-.719-2.378-1.439-2.378-.779 0-1.42.879-1.42 2.378 0 1.46.6 2.359 1.42 2.359m8.254 1.08a4.092 4.092 0 0 1 3.977 4.417c0 2.619-1.758 4.417-3.957 4.417a4.093 4.093 0 0 1 -3.977-4.417c0-2.659 1.8-4.417 3.957-4.417m.02 6.776c.7 0 1.42-.739 1.42-2.359 0-1.638-.719-2.379-1.44-2.379-.8 0-1.419.9-1.419 2.379 0 1.5.639 2.359 1.439 2.359" fill="#666" transform="translate(85.984 39.115)"/><path d="m370.683 162.288h-7.077v-2.259h7.077zm.18 6.836v-2.619h4.378v-.9h-3.941v-8.455h10.754v8.455h-4.054v.9h4.577v2.619h-3.438a13.842 13.842 0 0 0 3.777 3.038l-1.459 2.758a11.673 11.673 0 0 1 -3.457-3.437v4.037h-2.758v-4.138a11.927 11.927 0 0 1 -3.7 3.559l-1.242-1.841v2.159h-6.156v-6.259h6.156v3.238a13.907 13.907 0 0 0 3.638-3.118zm-.559-9.814h-6.156v-2.159h6.152zm0 5.9h-6.156v-2.179h6.152zm0 2.978h-6.156v-2.2h6.152zm-2.179 2.978h-1.359v1.879h1.359zm7.275-11.756h-1.538v1.1h1.538zm0 2.918h-1.538v1.1h1.538zm4.037-2.918h-1.6v1.1h1.6zm0 2.918h-1.6v1.1h1.6z" fill="#666" transform="translate(90.445 39.09)"/><path d="m387.445 168.52-1.1 2.059a9.344 9.344 0 0 1 -1.179-2.119v7.216h-2.8v-6.476a15.477 15.477 0 0 1 -2.039 3.5l-.979-3.619a13.792 13.792 0 0 0 2.758-4.557h-2.459v-2.78h2.719v-1.658c-1.079.1-1.7.12-2.339.16l-.44-2.7a29.684 29.684 0 0 0 6.636-.919l1 2.7a16.438 16.438 0 0 1 -2.059.42v2h1.658v2.78h-1.558a14.478 14.478 0 0 0 2.118 3.118v-6.945h1.34a23.09 23.09 0 0 0 -1.56-3.218l2.918-.839a19.084 19.084 0 0 1 1.7 3.579l-1.859.478h3.5a26.633 26.633 0 0 0 1.839-4.1l3.1.819a26.053 26.053 0 0 1 -1.66 3.278h1.36v7.816h-2.619v3.9c0 .12 0 .46.36.46.741 0 .759 0 .8-2.478l2.339.7c-.2 3.538-.36 4.578-2.1 4.578h-2.458c-1.48 0-1.819-.78-1.819-1.861v-5.3h-1.019c-.18 3.678-1.42 5.537-4.317 7.275l-1.779-2.539c2.918-1.379 3.318-3.157 3.418-4.736zm2.758-2.659h4.918v-2.461h-4.921z" fill="#666" transform="translate(94.361 38.955)"/><path d="m405.051 174a10.067 10.067 0 0 1 0-13.024h1.772a10.12 10.12 0 0 0 -2.335 6.512 10.3 10.3 0 0 0 2.335 6.512z" fill="#666" transform="translate(100.16 40.042)"/><path d="m411.169 169.937a9.183 9.183 0 0 1 -.824-1.456v5.551h-1.909v-5.232a10.576 10.576 0 0 1 -1.5 2.8l-.659-2.581a10.458 10.458 0 0 0 2.033-3.847h-1.758v-1.923h1.882v-2.281h1.909v2.281h1.484v1.923h-1.484v.3a9.74 9.74 0 0 0 1.854 2.651zm7.954 3.82h-6.9v-12.391h6.9zm-1.978-10.442h-2.967v1.512h2.967zm0 3.339h-2.967v1.607h2.967zm0 3.434h-2.967v1.7h2.967z" fill="#666" transform="translate(101.06 40.039)"/><path d="m419.106 169.173a20.567 20.567 0 0 1 -.44 4.121l-1.332-.934a11 11 0 0 0 .44-3.324zm3.585-.8-1.03.3c-.027-.165-.067-.4-.082-.481-.082.014-.3.041-.522.055v5.753h-1.607v-5.551c-.3.027-1.621.165-1.827.179l-.165-1.868c.288 0 .522 0 .8-.015.22-.287.495-.673.646-.879a7.954 7.954 0 0 0 -1.552-1.592l.8-1.773c.192.151.234.206.316.276a11.815 11.815 0 0 0 .852-1.828l1.717.372a14.377 14.377 0 0 1 -1.456 2.555c.11.122.192.206.4.438a16.655 16.655 0 0 0 1.2-2.019l1.346.563v-1.07h2.913v-.8h1.964v.8h3.118v1.758h-3.132v.673h2.665v1.592h-7.155v-1.592h2.527v-.673h-2.913v-.261a27.039 27.039 0 0 1 -2.376 3.365c.22-.015.907-.055 1.073-.069a3.974 3.974 0 0 0 -.276-.838l1.21-.426a10.061 10.061 0 0 1 .548 1.5v-.4h7.544v2.871h-1.828v-1.291h-3.97v.536h1.429c-.055 2.967-.549 4.273-2.761 5.509l-1.2-1.69a2.941 2.941 0 0 0 2.129-3.064h-1.347zm-.151.549a23.274 23.274 0 0 1 .345 2.857l-1.306.249a15.958 15.958 0 0 0 -.219-2.9zm3.82-.4h1.854v3.159c0 .316.055.33.22.33h.357c.165 0 .22-.069.234-.246.027-.276.041-1.306.041-1.4l1.483.452c.027 2.185-.151 3.064-1.209 3.064h-1.909a1.019 1.019 0 0 1 -1.071-1.2z" fill="#666" transform="translate(103.809 40.034)"/><path d="m433.864 169.1-.756 1.415a6.411 6.411 0 0 1 -.81-1.456v4.96h-1.923v-4.452a10.612 10.612 0 0 1 -1.4 2.4l-.673-2.486a9.475 9.475 0 0 0 1.9-3.132h-1.69v-1.909h1.868v-1.14c-.742.067-1.168.081-1.607.11l-.3-1.856a20.315 20.315 0 0 0 4.56-.632l.688 1.856a11.323 11.323 0 0 1 -1.416.287v1.375h1.14v1.909h-1.071a9.934 9.934 0 0 0 1.456 2.143v-4.766h.92a15.82 15.82 0 0 0 -1.071-2.213l2.007-.577a13.27 13.27 0 0 1 1.168 2.46l-1.279.33h2.405a18.47 18.47 0 0 0 1.264-2.816l2.129.562a17.939 17.939 0 0 1 -1.14 2.254h.934v5.374h-1.8v2.68c0 .081 0 .316.247.316.508 0 .522 0 .549-1.7l1.607.479c-.137 2.433-.247 3.147-1.442 3.147h-1.69c-1.016 0-1.25-.536-1.25-1.279v-3.643h-.7a5.356 5.356 0 0 1 -2.967 5l-1.224-1.745a3.464 3.464 0 0 0 2.349-3.257zm1.9-1.827h3.379v-1.691h-3.379z" fill="#666" transform="translate(106.537 40.026)"/><path d="m444.724 164.868h-5.248v-1.607h5.248zm-.371-2.074h-4.478v-1.5h4.478zm0 4.107h-4.478v-1.566h4.478zm0 2.048h-4.478v-1.549h4.478zm.124 4.8h-4.6v-4.319h4.6zm-1.635-2.8h-1.1v1.181h1.1zm4.713 2.968v-4.382h-2.817v-2.033h2.817v-4.259h-2.542v-1.943h7.309v1.937h-2.692v4.259h2.857v2.033h-2.857v4.382zm-2.006-6.676a14.634 14.634 0 0 0 -.77-3.119l1.593-.44a13.667 13.667 0 0 1 .908 3.132zm4.3-.482a13.837 13.837 0 0 0 .783-3.077l1.758.357a18.776 18.776 0 0 1 -.8 3.2z" fill="#666" transform="translate(109.317 40.122)"/><path d="m453.328 174.037h-1.951v-5.867a6.759 6.759 0 0 1 -.577.632l-.522-2.994a9.275 9.275 0 0 0 1.772-4.864l2.019.137a17.852 17.852 0 0 1 -.742 3.339zm10.193-10.717h-2.857v1.512h2.472v8.847h-9.066v-8.847h2.43v-1.512h-2.46v-1.936h9.479zm-6.938 3.38h-.742v5.07h.742zm2.364-3.38h-.742v1.512h.742zm0 3.38h-.742v5.07h.742zm2.39 0h-.755v5.07h.755z" fill="#666" transform="translate(112.004 40.034)"/><path d="m461.389 174a10.289 10.289 0 0 0 2.321-6.512 10.033 10.033 0 0 0 -2.321-6.512h1.772a10.067 10.067 0 0 1 0 13.024z" fill="#666" transform="translate(114.768 40.042)"/><path d="m0 0h6.244v70.537h-6.244z" fill="#f38900" transform="translate(459.122 90.975)"/><path d="m362.688 127.151 9.339 16.174 9.339-16.174z" fill="#f38900" transform="translate(90.216 31.628)"/><path d="m497.591 123.917h-208.762a15.029 15.029 0 0 1 -14.985-14.985v-5.232a15.029 15.029 0 0 1 14.985-14.985h208.762a15.029 15.029 0 0 1 14.985 14.985v5.235a15.029 15.029 0 0 1 -14.985 14.985" fill="#f38900" transform="translate(68.117 22.067)"/><path d="m295.386 95.668h9.533v17.045h-9.533v-7.737l-1.424 2.586a12.431 12.431 0 0 1 -.955-1.8v7.268h-2.847v-6.48a12.9 12.9 0 0 1 -1.873 3.37l-.955-3.9a12.916 12.916 0 0 0 2.66-4.981h-2.285v-2.879h2.454v-3.016h2.847v3.016h1.911v2.885h-1.911v.112a13.537 13.537 0 0 0 2.379 3.6zm6.575 2.941h-3.634v1.761h3.634zm0 4.458h-3.634v1.909h3.634zm0 4.645h-3.634v2.023h3.634z" fill="#fff" transform="translate(71.472 23.667)"/><path d="m304.842 106.423a28.143 28.143 0 0 1 -.581 5.732l-1.854-1.461a15.67 15.67 0 0 0 .543-4.458zm4.833-1.01-1.367.392c-.037-.28-.075-.392-.112-.618-.169.02-.356.037-.581.076v7.753h-2.341v-7.491c-1.517.186-1.8.206-2.416.28l-.244-2.79c.3-.02.375-.02.993-.037.112-.15.674-.919.805-1.086a10.724 10.724 0 0 0 -1.985-2.118l1.124-2.7c.225.206.3.262.375.337a16.927 16.927 0 0 0 1.049-2.286l2.51.468a24.945 24.945 0 0 1 -1.911 3.467c.15.186.262.318.45.542a19.025 19.025 0 0 0 1.573-2.659l1.892.768v-1.478h3.859v-1.033h2.9v1.029h4.195v2.586h-4.195v.785h3.559v2.324h-9.834v-2.324h3.372v-.785h-3.859v-.413c-.993 1.573-2.491 3.6-3.147 4.459.768-.037 1.105-.056 1.349-.076-.206-.711-.243-.86-.375-1.2l1.723-.562a16.747 16.747 0 0 1 .637 1.725v-.114h10.4v4.066h-2.66v2.9c0 .356 0 .451.262.451h.318c.167 0 .281-.039.3-.338.039-.318.039-1.441.039-1.817l2.191.674a26.674 26.674 0 0 1 -.151 2.81 1.6 1.6 0 0 1 -1.611 1.5h-2.584a2.164 2.164 0 0 1 -1.144-.393 1.684 1.684 0 0 1 -.392-1.274v-5.6h2.715v-.657h-5.075v.657h1.8c-.056 3.915-.712 5.862-3.671 7.472l-1.779-2.547a5.215 5.215 0 0 0 .918-.45l-1.292.262a23.8 23.8 0 0 0 -.262-3.99l1.648-.3.037.112zm.075 1.291c.131.918.15 1.124.3 3.053a3.635 3.635 0 0 0 1.33-3.053z" fill="#fff" transform="translate(75.222 23.663)"/><path d="m325.124 106.344-1.18 2.192a7.17 7.17 0 0 1 -1.012-1.685v6.161h-2.866v-5.337a13.086 13.086 0 0 1 -1.779 2.79l-.955-3.746a11.549 11.549 0 0 0 2.473-3.971h-2.135v-2.848h2.4v-1.367c-.637.039-1.218.076-2.135.112l-.393-2.752a29.339 29.339 0 0 0 6.35-.805l.974 2.791a17.381 17.381 0 0 1 -1.929.375v1.646h1.461v2.846h-1.255a13.182 13.182 0 0 0 1.723 2.66v-6.606h1.134a22.638 22.638 0 0 0 -1.424-2.921l3.016-.787a18.026 18.026 0 0 1 1.591 3.3l-1.759.412h3.089a26.949 26.949 0 0 0 1.611-3.726l3.241.749a25.237 25.237 0 0 1 -1.475 2.973h1.16v7.549h-2.378v3.334c0 .132 0 .431.261.431.393 0 .468 0 .544-.411a17.887 17.887 0 0 0 .111-1.817l2.266.748c-.206 3.278-.356 4.383-2.06 4.383h-2.321c-1.517 0-1.779-.937-1.779-1.853v-4.815h-.768c-.131 3.222-1.144 5.095-3.971 6.762l-1.873-2.6a4.506 4.506 0 0 0 3.109-4.158zm2.659-2.716h4.2v-2.059h-4.2z" fill="#fff" transform="translate(78.934 23.648)"/><path d="m341.968 98.968a18.316 18.316 0 0 1 1.216 4.177l-2.51.657a21.2 21.2 0 0 0 -.9-3.785v.618h-7.174v-2.359h7.174v1.324zm-2.66-1.216h-6.163v-2.173h6.163zm0 5.693h-6.163v-2.285h6.163zm0 2.792h-6.163v-2.249h6.163zm.2 6.442h-6.369v-5.918h6.369zm-2.359-3.69h-1.236v1.275h1.236zm6.255 3.9v-5.789h-3.69v-3.033h3.69v-5.567h-3.334v-2.921h10.1v2.921h-3.615v5.564h3.821v3.036h-3.821v5.788zm3.3-9.834a18.424 18.424 0 0 0 1.011-4.065l2.585.562a21.348 21.348 0 0 1 -1.049 4.253z" fill="#fff" transform="translate(82.733 23.775)"/><path d="m365.448 95.728v2.9h-3.82v1.725h3.3v12.174h-12.441v-12.172h3.278v-1.725h-3.278v-2.358a20.514 20.514 0 0 1 -.843 3.484v13.3h-2.922v-7.776a6.382 6.382 0 0 1 -.731.769l-.674-4.683a13.006 13.006 0 0 0 2.3-6.237l3.016.169c-.037.2-.037.281-.056.431zm-9.534 7.435h-.787v6.52h.787zm3.167-4.533h-.805v1.725h.805zm0 4.533h-.805v6.52h.805zm3.2 0h-.805v6.52h.805z" fill="#fff" transform="translate(86.393 23.663)"/><path d="m377.82 97.175v2.752h-7.53c-.225.506-.356.768-.674 1.369a4.536 4.536 0 0 1 2.173-.544 2.8 2.8 0 0 1 2.828 1.65 37.846 37.846 0 0 1 4.2-1.35l.562 3.017a31.947 31.947 0 0 0 -4.121 1.066 27.361 27.361 0 0 1 .038 2.847h-3.072c.037-.506.075-1.2.056-1.7-.974.468-1.723.957-1.723 1.7 0 1.049 1.124 1.125 3.128 1.125a38.085 38.085 0 0 0 4.627-.245l.019 3.072c-.45.019-3.8.056-3.915.056a14.138 14.138 0 0 1 -5.17-.618 3.177 3.177 0 0 1 -2.079-2.94c0-2.6 3.184-4.158 4.589-4.815a1.376 1.376 0 0 0 -1.011-.412 4.859 4.859 0 0 0 -3.166 1.854 24.023 24.023 0 0 1 -2.21 2.828l-2.19-2.229a16.609 16.609 0 0 0 3.876-5.732h-3.072v-2.751h3.9c.15-.638.187-.9.318-1.611l3.353.169c-.131.712-.206.974-.318 1.442z" fill="#fff" transform="translate(90.337 23.771)"/><path d="m377.437 109.746c4.046-1.424 6.088-3.372 7.062-7.343h-6.8v-3.128h7.118v-4.1h3.222v4.1h7.379v3.125h-6.967c1.292 4.215 3.409 6.013 7.343 7.455l-1.706 3.109a12.137 12.137 0 0 1 -7.435-7.343 13.466 13.466 0 0 1 -7.586 7.305z" fill="#fff" transform="translate(93.885 23.674)"/><path d="m397.645 113.016h-2.285v-12.193h-.6v8.877h-1.948v-11.725h2.36v-2.775h2.791v2.771h2.1v10.152c0 1.367-.918 1.517-1.33 1.517h-.45l-.637-2.827zm0-6.444c.243 0 .375 0 .45-.056s.094-.167.094-.392v-5.3h-.543zm12.718-8.315h-10.1v-2.529h10.1zm-.468 14.4h-9.385v-8.635h9.384zm-.338-9.177h-8.657v-4.68h8.654zm-5.524 2.66h-1.086v1.236h1.086zm0 3.033h-1.086v1.311h1.086zm2.827-8.5h-3.372v.88h3.372zm.468 5.469h-1.105v1.236h1.105zm0 3.033h-1.105v1.311h1.105z" fill="#fff" transform="translate(97.71 23.681)"/><path d="m408.647 109.569a14.692 14.692 0 0 0 7.117-3.428 25.373 25.373 0 0 0 -4.138-2.641 12.235 12.235 0 0 1 -1.911 1.5l-2.173-2.491a10.822 10.822 0 0 0 4.719-5.393h7.492l2.753 3.445c-.656 2.529-2.491 9.647-12.137 11.95zm5.788-9.459c-.488.712-.656.937-.937 1.292a19.792 19.792 0 0 1 4.232 2.379 12.856 12.856 0 0 0 1.518-3.671zm6.948-4.589a15.059 15.059 0 0 1 2.285 3.3l-1.292.957a15.341 15.341 0 0 0 -2.21-3.354zm2.341-.768a16.92 16.92 0 0 1 2.248 3.315l-1.311.955a14.814 14.814 0 0 0 -2.173-3.37z" fill="#fff" transform="translate(101.374 23.569)"/><path d="m438.606 98.355v1.123c0 10.079-6.65 12.119-12.024 12.587l-1.088-3.071c2.549-.189 9.515-.731 9.59-7.587h-8.054v3.653h-3.183v-6.7h5.619v-2.496h3.3v2.491z" fill="#fff" transform="translate(105.429 23.846)"/><path d="m444.47 102.168a23.75 23.75 0 0 0 -5.863-2.883l1.461-2.791a25.09 25.09 0 0 1 6.144 2.677zm-5.507 5.957c1.442-.13 5.807-.524 8.616-3.016 1.967-1.723 3.39-4.8 4.157-7.83l2.886 1.968c-2.641 8.821-7.474 11.369-14.891 12.418z" fill="#fff" transform="translate(109.101 24.002)"/><path d="m0 0h6.244v70.537h-6.244z" fill="#f38900" transform="translate(780.366 90.975)"/><path d="m619.941 127.151 9.339 16.174 9.339-16.174z" fill="#f38900" transform="translate(154.207 31.628)"/><path d="m754.845 123.917h-208.763a15.029 15.029 0 0 1 -14.982-14.985v-5.232a15.029 15.029 0 0 1 14.985-14.985h208.76a15.029 15.029 0 0 1 14.984 14.985v5.235a15.029 15.029 0 0 1 -14.985 14.985" fill="#f38900" transform="translate(132.107 22.067)"/><path d="m548.08 112.871c-.074-.244-.094-.318-.242-.88a48.618 48.618 0 0 1 -6.2.693l-.337-2.735c.506 0 .749 0 1.1-.019v-9.44h.357l-1.611-2a9.831 9.831 0 0 0 2.853-3.357l3.222.318c-.112.3-.17.412-.375.862h3.22v1.856a9.53 9.53 0 0 0 1.78-3.054l3.128.318a5.109 5.109 0 0 1 -.281.88h4.552v2.642h-2.6c.226.355.468.8.562.973l-2.866.562h4.347v9.665a1.54 1.54 0 0 1 -1.631 1.686h-2.135l-.543-3.2h.825c.562 0 .562-.056.562-.486v-4.833h-1.667v9.7h-2.922v-12.532h.168l-1.779-1.535h-1.349c.15.261.336.674.448.937l-3.033.561a12.262 12.262 0 0 0 -.487-1.5h-.046a12.444 12.444 0 0 1 -1.536 1.535h6.724v7.1h-5.039v2.21c.393-.02.8-.056 1.8-.15a6.533 6.533 0 0 0 -.468-1.143l2.754-.824a26.649 26.649 0 0 1 1.706 4.232zm-2.827-9.665h2.173v-.731h-2.173zm0 2.435h2.173v-.768h-2.173zm8.728-5.151a10.481 10.481 0 0 0 -.673-1.535h-.037a10.928 10.928 0 0 1 -1.181 1.535z" fill="#fff" transform="translate(134.608 23.659)"/><path d="m563.927 106.344-1.18 2.192a7.173 7.173 0 0 1 -1.011-1.685v6.161h-2.866v-5.337a13.092 13.092 0 0 1 -1.779 2.79l-.954-3.746a11.55 11.55 0 0 0 2.471-3.971h-2.135v-2.848h2.4v-1.367c-.637.039-1.218.076-2.135.112l-.392-2.752a29.349 29.349 0 0 0 6.35-.805l.973 2.791a17.263 17.263 0 0 1 -1.929.375v1.646h1.46v2.846h-1.255a13.184 13.184 0 0 0 1.723 2.66v-6.606h1.143a22.65 22.65 0 0 0 -1.424-2.921l3.016-.787a18.145 18.145 0 0 1 1.592 3.3l-1.759.412h3.089a27.257 27.257 0 0 0 1.611-3.726l3.24.749a25 25 0 0 1 -1.48 2.977h1.161v7.549h-2.379v3.334c0 .132 0 .431.262.431.393 0 .468 0 .543-.411a17.764 17.764 0 0 0 .112-1.817l2.266.748c-.206 3.278-.356 4.383-2.06 4.383h-2.323c-1.517 0-1.78-.937-1.78-1.853v-4.815h-.768c-.131 3.222-1.143 5.095-3.971 6.762l-1.873-2.6a4.506 4.506 0 0 0 3.109-4.158zm2.66-2.716h4.2v-2.059h-4.2z" fill="#fff" transform="translate(138.336 23.648)"/><path d="m571.166 105.171a14.952 14.952 0 0 0 3.072-1.029c-.356-.432-.488-.618-.713-.9-.261.189-.373.282-.937.657l-1.4-2.36a5.54 5.54 0 0 0 2.062-1.292h-1.369v-3.879h2.886v-1.179h3.014v1.179h2.885v-.748h8.578v2.791h-3.094c-.169.5-.187.524-.281.767h2.9v9.929h-2.04a9.064 9.064 0 0 0 2.9 1.235l-1.274 2.773a11.426 11.426 0 0 1 -3.653-2.4l1.573-1.611h-3.147l1.442 1.611a9.017 9.017 0 0 1 -3.447 2.359l-1.2-2.1v1.778h-7.622v-4.945zm6.63 1.893a17.693 17.693 0 0 1 -1.629-1.064 16.711 16.711 0 0 1 -1.781 1.069zm.3-7.286v-1.03h-3.428v.224l2.209.151a4.182 4.182 0 0 1 -.318.656zm-.9 9.328h-2.079v1.461h2.083zm-1.985-7.23a10.691 10.691 0 0 0 1.049 1.03 4.955 4.955 0 0 0 .957-1.03zm4.926.017a10.1 10.1 0 0 1 -1.834 2.361 10.406 10.406 0 0 0 2.546.973v-6.05h2.151a2.99 2.99 0 0 0 .262-.711h-2.582v1.779h-.543zm.712 3.673-.918 2v3.016a6.583 6.583 0 0 0 2.81-1.479h-1.892zm4.926-4.383h-2.075v.86h2.079zm0 2.51h-2.075v.88h2.079zm0 2.527h-2.075v.862h2.079z" fill="#fff" transform="translate(142.074 23.678)"/><path d="m590.383 110.548a10.324 10.324 0 0 1 -2.359 2.509l-1.873-2.753a7.189 7.189 0 0 0 3.2-4.851h-2.866v-2.553h7.361v-.712h-6.126v-2.316h6.126v-.672h-6.874v-2.55h3.259a11.71 11.71 0 0 0 -.582-1.255l3.5-.356a13.179 13.179 0 0 1 .674 1.611h3.091a9.783 9.783 0 0 0 .524-1.555l3.651.225a8.51 8.51 0 0 1 -.562 1.33h3.334v2.55h-6.961v.674h6.124v2.321h-6.124v.712h7.341v2.547h-11.946c-.056.318-.075.451-.131.674h10.863v2.529h-4.215v1.086h5.4v2.847h-13.829zm5.321-.807v-1.086h-3.634v-2.1a11.008 11.008 0 0 1 -1.2 3.184z" fill="#fff" transform="translate(145.802 23.64)"/><path d="m611.491 111.024v-2.866h-6.35v-2.847l6.462-9.4h3.3v9.2h1.761v3.053h-1.764v2.866zm-2.922-5.919h2.922v-4.363z" fill="#fff" transform="translate(150.525 23.857)"/><path d="m619.641 95.909h3.092v15.115h-3.484v-11.424l-2.624 1.836-.431-3.184z" fill="#fff" transform="translate(153.275 23.857)"/><path d="m626.311 109.023a10.84 10.84 0 0 1 -1.236-5.506 10.087 10.087 0 0 1 1.274-5.544 5.185 5.185 0 0 1 8.634.019 10.83 10.83 0 0 1 1.255 5.526 10.373 10.373 0 0 1 -1.238 5.525 5.024 5.024 0 0 1 -4.347 2.341 4.969 4.969 0 0 1 -4.344-2.361m6.443-5.506c0-2.473-.432-4.664-2.1-4.664s-2.1 2.192-2.1 4.664c0 2.716.525 4.683 2.1 4.683 1.667 0 2.1-2.192 2.1-4.683" fill="#fff" transform="translate(155.484 23.797)"/><path d="m652.394 102.685a6.257 6.257 0 0 1 -5.15 2.567c-1.536 0-2.229-.376-4.14-1.387-1.667-.862-2.154-1.01-2.978-1.01a3.819 3.819 0 0 0 -3.372 1.779l-1.7-1.743a6.321 6.321 0 0 1 5.15-2.527c1.537 0 2.135.3 4.4 1.479a5.358 5.358 0 0 0 2.716.9 4.032 4.032 0 0 0 3.389-1.779z" fill="#fff" transform="translate(157.965 24.965)"/><path d="m650.814 107a6.731 6.731 0 0 0 4.046 1.2c1.2 0 2.847-.376 2.847-1.967 0-.693-.468-1.65-2.566-1.65h-1.836v-2.846h1.573c1.442 0 2.023-.712 2.023-1.5 0-1.124-1.161-1.386-1.723-1.386a4.8 4.8 0 0 0 -3.653 1.742l-1.216-2.978a7.38 7.38 0 0 1 5-1.948c3.278 0 5.056 2.023 5.056 4.271a3.279 3.279 0 0 1 -1.553 2.9 4.039 4.039 0 0 1 2.379 3.765c0 2.285-1.686 4.776-6.35 4.776a9.468 9.468 0 0 1 -5-1.292z" fill="#fff" transform="translate(161.644 23.797)"/><path d="m671.082 106.477c0 3-2.565 4.908-5.619 4.908s-5.618-1.912-5.618-4.908a4.426 4.426 0 0 1 2.042-3.822 3.751 3.751 0 0 1 -1.292-2.846c0-2.305 1.911-4.14 4.869-4.14s4.871 1.834 4.871 4.14a3.825 3.825 0 0 1 -1.294 2.846 4.429 4.429 0 0 1 2.042 3.822m-3.484-.114a2.164 2.164 0 0 0 -4.271 0 2.16 2.16 0 0 0 4.271 0m-.561-6.442a1.578 1.578 0 0 0 -3.148 0 1.58 1.58 0 0 0 3.148 0" fill="#fff" transform="translate(164.133 23.797)"/><path d="m671.011 109.023a10.838 10.838 0 0 1 -1.235-5.506 10.1 10.1 0 0 1 1.272-5.544 5.186 5.186 0 0 1 8.635.019 10.843 10.843 0 0 1 1.255 5.526 10.372 10.372 0 0 1 -1.236 5.526 5.023 5.023 0 0 1 -4.346 2.341 4.971 4.971 0 0 1 -4.346-2.361m6.443-5.506c0-2.473-.431-4.664-2.1-4.664s-2.1 2.192-2.1 4.664c0 2.716.525 4.683 2.1 4.683 1.667 0 2.1-2.192 2.1-4.683" fill="#fff" transform="translate(166.603 23.797)"/><path d="m691.217 103.464c-.562 3.036-1.424 6.444-6.144 9.5l-2.023-2.9c2.866-1.536 5.282-3.934 5.282-9.871v-1.561h-4.926v-3.053h17.72v3.053h-9.534c-.019.637-.056 1.535-.056 1.853h8.147a51.758 51.758 0 0 1 -.823 10.115c-.582 2.154-1.929 2.266-3.521 2.266h-3.072l-.6-3.2h2.7c.618 0 1.011 0 1.31-.674a19.079 19.079 0 0 0 .6-5.526z" fill="#fff" transform="translate(169.905 23.775)"/><path d="m712.028 106.165h-9.908v6.724h-3.186v-17.325h16.259v14.871c0 1.5-.225 2.454-2.546 2.454h-3.128l-.544-3.24h2.492c.562 0 .562-.28.562-.6zm-9.909-2.977h3.39v-4.57h-3.39zm6.481 0h3.428v-4.57h-3.428z" fill="#fff" transform="translate(173.856 23.771)"/><path d="m0 0h26.893v2.497h-26.893z" transform="translate(260.549 36.797)"/><path d="m0 0h26.893v2.497h-26.893z" transform="translate(260.549 44.62)"/><path d="m0 0h26.893v2.497h-26.893z" transform="translate(260.549 217.222)"/><path d="m0 0h26.893v2.497h-26.893z" transform="translate(260.549 225.045)"/></g></g></svg>