<svg xmlns="http://www.w3.org/2000/svg" xmlns:xlink="http://www.w3.org/1999/xlink" width="42.575" height="42.575" viewBox="0 0 42.575 42.575">
  <defs>
    <clipPath id="clip-path">
      <rect id="長方形_12604" data-name="長方形 12604" width="30.703" height="30.708" fill="#fff"/>
    </clipPath>
  </defs>
  <g id="グループ_29709" data-name="グループ 29709" transform="translate(6036 9259.655)">
    <path id="パス_149933" data-name="パス 149933" d="M1.67,0H40.906a1.67,1.67,0,0,1,1.67,1.67V40.906a1.67,1.67,0,0,1-1.67,1.67H1.67A1.67,1.67,0,0,1,0,40.906V1.67A1.67,1.67,0,0,1,1.67,0Z" transform="translate(-6036 -9259.655)" fill="#637389"/>
    <g id="グループ_29708" data-name="グループ 29708" transform="translate(-6029.92 -9253.865)">
      <g id="グループ_29707" data-name="グループ 29707" clip-path="url(#clip-path)">
        <path id="パス_149931" data-name="パス 149931" d="M31.285,25.013a12.507,12.507,0,0,1-8.844-21.35A12.507,12.507,0,1,1,40.128,21.35a12.425,12.425,0,0,1-8.844,3.663m0-23.192a10.686,10.686,0,0,0-7.556,18.242A10.686,10.686,0,0,0,38.841,4.951a10.617,10.617,0,0,0-7.556-3.13" transform="translate(-13.083)" fill="#fff"/>
        <path id="パス_149932" data-name="パス 149932" d="M.911,76.137a.911.911,0,0,1-.644-1.554l9.091-9.091a.91.91,0,0,1,1.287,1.287L1.554,75.87a.907.907,0,0,1-.644.267" transform="translate(0 -45.428)" fill="#fff"/>
      </g>
    </g>
  </g>
</svg>
