<?xml version="1.0" encoding="UTF-8"?><svg id="_レイヤー_1" xmlns="http://www.w3.org/2000/svg" viewBox="0 0 442 203"><defs><style>.cls-1{fill:none;}.cls-2{fill:#eae35a;}.cls-3{fill:#231815;}.cls-4{fill:#fff;}.cls-5{fill:#f38900;}</style></defs><g id="_グループ_30681"><rect id="_長方形_10999" class="cls-2" x="126.34" y="20.6" width="160.75" height="79.97"/><rect id="_長方形_11000" class="cls-3" x="75.7" y="97.78" width="259.84" height="3.04"/><rect id="_長方形_11001" class="cls-2" x="82.61" y="101.23" width="246.63" height="101.42"/><path id="_パス_117727" class="cls-3" d="M205.89,69.42l-.84,3.41h-13.29c-1.83,0-6.52,0-10.25-2.95-.88,1.4-2.02,2.63-3.35,3.61l-2.3-3.21c1.2-.84,2.24-1.89,3.07-3.09-1.22-1.76-2.09-3.73-2.57-5.81l2.92-.95c.28,1.14.69,2.25,1.21,3.3.38-1.44.66-2.91.84-4.39h-5.09v-3.38c1.57-1.62,2.99-3.38,4.22-5.26h-4.22v-3.24h8.41v3.24c-1.19,2.03-2.62,3.91-4.28,5.58h4.32c-.01,3.63-.58,7.24-1.68,10.7,1.9,1.59,5.19,2.46,8.13,2.46h14.75ZM196.33,47.97h7.45v4.02h1.65v2.78h-1.65v3.96h-7.45v1.5h7.85v2.55h-7.85v1.45h9.1v2.69h-9.1v2.05h-3.57v-2.05h-7.76v-2.69h7.76v-1.45h-6.74v-2.55h6.74v-1.5h-5.99v-2.52h5.99v-1.45h-7.76v-2.77h7.76v-1.42h-5.99v-2.6h5.99v-1.68h3.57v1.68ZM200.27,50.57h-3.94v1.42h3.94v-1.42ZM200.27,54.76h-3.94v1.44h3.94v-1.44Z"/><path id="_パス_117728" class="cls-3" d="M218.78,70.66c6.01-4.09,10.3-10.26,12.05-17.32h-2.08c-1.48,5.88-4.93,11.07-9.78,14.72l-2.11-2.81c4.1-2.89,7.09-7.09,8.48-11.91h-1.62c-.9,2.18-2.18,4.19-3.78,5.93l-2.64-2.69c.37-.37.71-.77,1.03-1.18h-1.77v5.12c1.02-.32,1.61-.55,2.48-.84l.25,3.41c-.89.41-1.8.77-2.73,1.07v9.43h-3.67v-8.3c-2.7.72-3.97,1.01-5.22,1.3l-.68-3.7c1.43-.26,3.51-.67,5.9-1.3v-6.19h-1.8c-.24,1.68-.69,3.32-1.33,4.89l-2.77-2.37c.96-2.78,1.24-4.6,1.43-9.63l3.2.11c.04,1.17,0,2.34-.09,3.5h1.36v-5.58h3.66v5.58h2.49v2.51c1.47-2.52,2.5-5.28,3.04-8.15l3.94.35c-.25,1.18-.57,2.35-.96,3.5h10.93c.09,4.89-.12,17.17-.84,20.41-.15,1.79-1.68,3.14-3.48,3.07h-4.97l-.65-3.56h3.94c.72,0,1.24-.03,1.46-.7.28-.93.65-4.16.84-11.1-1.89,5.18-4.65,10.7-11.24,15.36l-2.26-2.92Z"/><path id="_パス_117729" class="cls-3" d="M188.94,136.71h4.04v7.58h10.83v3.64h-10.83v11.39h12.48v3.7h-29.06v-3.7h12.54v-11.39h-10.68v-3.64h10.68v-7.58Z"/><path id="_パス_117730" class="cls-3" d="M216.27,146.92h-1.86v8.32c1.09-.32,1.58-.46,2.36-.75l.19,3.29c-3.04,1.19-6.16,2.14-9.35,2.86l-.62-3.76c.96-.15,1.99-.29,3.7-.7v-9.28h-3.33v-3.41h3.32v-6.82h3.73v6.82h2.55v2.4l1.43-.35v-6.61h3.66v5.72l3.13-.78v-7.2h3.7v6.3l6.95-1.71c.1,3.95-.08,7.9-.53,11.83-.02,1.57-1.31,2.82-2.87,2.81-.05,0-.09,0-.14,0h-2.35l-.62-3.53h1.49c.65,0,.9-.12,1.09-.72.28-1.96.39-3.95.34-5.93l-3.35.84v10.39h-3.7v-9.46l-3.13.75v10.99c0,.55.19.7.87.7h8.76c.96,0,1.33,0,1.55-3.56l3.54.81c-.19,4.19-1.12,6.27-3.73,6.27h-11.68c-2.39,0-2.98-1.24-2.98-2.6v-11.69l-1.71.4-.4-2.66Z"/><rect id="_長方形_11706" class="cls-4" x="328.52" y="37.59" width="112.24" height="45.26"/><path id="_パス_130904" class="cls-5" d="M442,84.09h-114.73v-47.75h114.73v47.75ZM329.77,81.59h109.73v-42.75h-109.74v42.75Z"/><path id="_パス_130900" class="cls-5" d="M340.17,52.93h8.61v2.27h-8.61v-2.27ZM340.84,49.7h7.26v2.2h-7.26v-2.2ZM340.84,56.19h7.26v2.22h-7.26v-2.22ZM340.84,59.54h7.26v2.23h-7.26v-2.23ZM340.84,62.84h7.35v6.47h-4.74v.83h-2.61v-7.3ZM343.45,67.16h2.29v-2.16h-2.29v2.16ZM353.83,70.14v-7.6h-4.9v-2.72h4.9v-7.51h-4.47v-2.63h11.8v2.63h-4.52v7.51h4.76v2.72h-4.76v7.6h-2.81ZM351.61,53.31c.68,1.72,1.17,3.52,1.46,5.34l-2.56.52c-.22-1.8-.65-3.58-1.28-5.28l2.38-.58ZM361.18,53.71c-.27,1.87-.76,3.7-1.46,5.46l-2.58-.61c.67-1.7,1.16-3.47,1.46-5.28l2.59.43Z"/><path id="_パス_130901" class="cls-5" d="M364.34,60.14c-.31.43-.65.83-1.01,1.21l-.94-3.7c1.1-1.46,2.43-3.5,3.08-8.7l2.81.23c-.22,1.94-.64,3.86-1.26,5.71v15.33h-2.67v-10.07ZM383.89,49.67v2.61h-4.83v3.21h4.15v14.72h-2.49v-.87h-9.71v.87h-2.47v-14.72h4.18v-3.21h-4.36v-2.61h15.53ZM371.01,66.75h1.71v-8.76h-1.71v8.76ZM375.03,55.49h1.71v-3.21h-1.71v3.21ZM375.03,66.75h1.71v-8.76h-1.71v8.76ZM379.05,66.75h1.66v-8.76h-1.66v8.76Z"/><path id="_パス_130902" class="cls-5" d="M387.47,56.32c1.2.96,2.34,1.98,3.42,3.08.51-1.45.84-2.95.99-4.48h-6.63v-2.74h4.05v-3.21h2.79v3.21h3.78v2.74h-1.17c-.21,2.32-.78,4.6-1.68,6.74,1.17,1.28,2.21,2.68,3.1,4.18l-2.29,1.85c-1.14-1.93-2.07-3.12-2.2-3.33-1.32,2.06-2.96,3.9-4.85,5.44l-1.89-2.45c1.94-1.43,3.58-3.23,4.81-5.31-1.25-1.42-2.65-2.7-4.16-3.84l1.95-1.88ZM397.92,57.45c1.19,1.84,2.15,3.82,2.85,5.89l-2.67,1.28c-.64-2.06-1.53-4.04-2.65-5.89l2.47-1.28ZM404.55,48.97v4.02h1.78v2.85h-1.78v11.93c0,1.87-.63,2.36-2.63,2.36h-3.76l-.61-2.75h3.28c.85,0,.85-.11.85-.72v-10.83h-5.23v-2.85h5.23v-4.02h2.86Z"/><path id="_パス_130903" class="cls-5" d="M407.48,67.49c3.55-.58,8.02-1.71,11.05-3.66-.09-.23-.19-.46-.31-.67-3.04,1.66-6.34,2.81-9.75,3.39l-.67-2.14c3.25-.31,6.42-1.23,9.33-2.72-.17-.19-.36-.36-.56-.52-2.52,1.02-5.15,1.74-7.84,2.14l-.7-2.14c5.1-.74,6.88-1.5,8-2h-6.88v-4.18s-.54.23-.79.31l-1.1-2.49c2.53-.61,4.81-1.98,6.54-3.93l3.06.47c-.19.27-.39.52-.6.76h7.62v2.07c-.39.46-.82.89-1.28,1.28h4.97v5.71h-1.91l1.84,1.5c-1.04.98-2.21,1.82-3.48,2.49,1.42,1.65,3.18,2.96,5.17,3.84l-1.84,2.47c-3.83-2.13-6.56-5.81-7.48-10.09-.33.25-.68.47-1.03.67,1.89,1.59,2.96,3.93,2.94,6.4,0,2.76-.9,3.75-2.99,3.75h-2.63l-.58-2.34h2.16c1.17,0,1.35-.31,1.35-1.39,0-.26-.01-.53-.07-.78-3.33,1.92-6.95,3.3-10.72,4.07l-.78-2.27ZM411.87,57.22h5.12v-1.8h-5.12v1.8ZM418.74,53.47c.47-.38.9-.81,1.28-1.28h-5.89c-.6.47-1.23.9-1.89,1.28h6.5ZM419.55,57.22h5.28v-1.8h-5.28v1.8ZM422.04,59.18c.21.76.5,1.5.86,2.2,1.02-.58,1.94-1.32,2.72-2.2h-3.57Z"/><rect id="_長方形_11705" class="cls-5" x="255.89" y="57.98" width="72.96" height="2.5"/><path id="_パス_130899" class="cls-5" d="M309.24,117.19h-56.83v-2.5h54.34v-54.48h2.5v56.98Z"/><path id="_パス_117756" class="cls-2" d="M291.18,34.51H121.13L130.29.5h151.73l9.16,34.01Z"/></g><rect class="cls-1" y="-.34" width="442" height="203"/></svg>