<?xml version="1.0" encoding="UTF-8"?><svg id="_レイヤー_1" xmlns="http://www.w3.org/2000/svg" viewBox="0 0 442 251.05"><defs><style>.cls-1{fill:none;}.cls-2{fill:#edf5e6;}.cls-3{fill:#eae35a;}.cls-4{fill:#9cb7c5;}.cls-5{fill:#231815;}.cls-6{fill:#fff;}.cls-7{fill:#f38900;}</style></defs><g id="_グループ_30682"><path id="_パス_117721" class="cls-5" d="M317.92,231.01v2.92h-10.45l-.14,4.35c.53-.44,1.63-1.34,4.95-1.34,5.02,0,6.38,2.39,6.38,6.14,0,4.33-1.7,6.24-7.39,6.24s-7.46-1.64-7.53-5.94h3.2c0,1.64,0,3.04,4.24,3.04,3.2,0,4.28-.71,4.28-3.17,0-2.14-.42-3.46-4.03-3.46s-4,1.02-4.21,1.57h-2.97l.25-10.36h13.42Z"/><path id="_パス_117722" class="cls-5" d="M328.67,230.83c6.15,0,7.57,2.16,7.57,9.25s-1.38,9.25-7.57,9.25-7.6-2.19-7.6-9.25,1.38-9.25,7.6-9.25M325.01,234.83c-.67.94-.71,3.91-.71,5.25s.05,4.3.71,5.25c.71,1.04,2.49,1.11,3.82,1.11.8,0,2.76-.05,3.5-1.11.64-.94.69-3.91.69-5.25s-.05-4.3-.69-5.25c-.74-1.06-2.72-1.11-3.66-1.11s-2.92.05-3.66,1.11"/><path id="_パス_117723" class="cls-5" d="M341.83,240.99c-.37.4-.76.77-1.18,1.12l-1.32-1.72c1.64-1.22,2.84-2.94,3.41-4.9l2.07.37c-.11.4-.25.8-.41,1.18h9.55v1.9h-4.96v1.88h4.45v1.85h-4.45v2.55h5.57v1.9h-5.57v3.48h-2.03v-3.48h-7.43v-1.9h2.3v-4.22ZM346.96,240.81v-1.88h-3.59c-.42.65-.88,1.28-1.38,1.88h4.97ZM343.81,245.21h3.16v-2.55h-3.16v2.55Z"/><path id="_パス_117724" class="cls-5" d="M52.12,242.57c-.56-.5-1.08-1.05-1.55-1.64v5.85h-1.91v-5.85c-.54.47-1.12.91-1.72,1.31l-.7-2.17c1.79-.9,3.23-2.38,4.07-4.21h-3.78v-1.87h2.14v-2.23h1.91v2.23h1.79v1.86c-.41,1.07-.98,2.07-1.7,2.97.77.79,1.62,1.5,2.55,2.09l-1.09,1.65ZM61.22,232.45c0,3.87-.03,8.31-.34,11.38-.27,2.73-1.16,2.95-2.77,2.95h-1.87l-.43-2.04h1.69c.93,0,1.15-.09,1.37-1.4.28-2.97.39-5.96.34-8.94h-2.07c.01,6.79-1.15,9.72-4.39,12.43l-1.39-1.72c3.21-2.79,3.72-5.4,3.78-10.71h-2.28v-1.95h8.35ZM54.2,237.88c-.38.74-.84,1.43-1.37,2.07l-1.32-.91c.51-.64.95-1.33,1.31-2.05l1.39.89Z"/><path id="_パス_117725" class="cls-5" d="M64.74,237.16c-.36.4-.76.77-1.18,1.12l-1.32-1.72c1.64-1.21,2.84-2.93,3.41-4.89l2.07.37c-.11.4-.25.79-.42,1.18h9.55v1.9h-4.96v1.88h4.45v1.85h-4.45v2.55h5.57v1.9h-5.57v3.48h-2.02v-3.48h-7.43v-1.9h2.3v-4.22ZM69.88,236.99v-1.88h-3.59c-.42.65-.88,1.28-1.38,1.88h4.97ZM66.72,241.39h3.16v-2.55h-3.16v2.55Z"/><path id="_パス_117726" class="cls-5" d="M79.41,232.81h5.67v-1.1h2.06v1.1h6.2v1.75h-2.29v1h2.38v1.53h-2.38v2.43h-7.74v-2.42h-1.96v2.94c.08,2.32-.43,4.62-1.47,6.7l-1.67-1.48c.84-1.64,1.26-3.47,1.2-5.31v-7.13ZM84.26,241.95h-2.52v-1.68h10.19v1.68c-.58.96-1.4,1.77-2.38,2.32,1.29.33,2.61.54,3.94.62l-.78,1.9c-1.84-.2-3.65-.66-5.37-1.36-1.83.72-3.75,1.17-5.71,1.34l-.72-1.77c1.42-.11,2.82-.35,4.19-.72-.7-.42-1.34-.93-1.9-1.53l1.05-.81ZM81.34,235.57h1.96v-1h-1.96v1ZM84.93,241.95c.7.62,1.48,1.14,2.33,1.53.8-.33,1.5-.85,2.04-1.53h-4.37ZM85.18,235.57h4v-1h-4v1ZM85.18,238.1h4v-1h-4v1Z"/><rect id="_長方形_11002" class="cls-3" x="112.74" y="21.86" width="174.8" height="86.96"/><rect id="_長方形_11003" class="cls-2" x="65.18" y="109.54" width="268.18" height="110.29"/><path id="_パス_117731" class="cls-4" d="M335.14,221.61h-8.91v-3.57h7.13v.84h1.78v2.73ZM319.1,221.61h-7.13v-3.57h7.13v3.57ZM304.83,221.61h-7.13v-3.57h7.13v3.57ZM290.57,221.61h-7.13v-3.57h7.13v3.57ZM276.31,221.61h-7.13v-3.57h7.13v3.57ZM262.04,221.61h-7.13v-3.57h7.13v3.57ZM247.78,221.61h-7.13v-3.57h7.13v3.57ZM233.51,221.61h-7.13v-3.57h7.13v3.57ZM219.25,221.61h-7.13v-3.57h7.13v3.57ZM204.99,221.61h-7.13v-3.57h7.13v3.57ZM190.72,221.61h-7.13v-3.57h7.13v3.57ZM176.46,221.61h-7.13v-3.57h7.13v3.57ZM162.19,221.61h-7.13v-3.57h7.13v3.57ZM147.93,221.61h-7.13v-3.57h7.14v3.57ZM133.67,221.61h-7.13v-3.57h7.13v3.57ZM119.4,221.61h-7.13v-3.57h7.13v3.57ZM105.14,221.61h-7.13v-3.57h7.13v3.57ZM90.87,221.61h-7.13v-3.57h7.13v3.57ZM76.61,221.61h-7.13v-3.57h7.13v3.57ZM66.96,216.99h-3.57v-7.13h3.57v7.13ZM335.14,211.75h-3.57v-7.13h3.57v7.13ZM66.96,202.73h-3.57v-7.13h3.57v7.13ZM335.14,197.49h-3.57v-7.13h3.57v7.13ZM66.96,188.47h-3.57v-7.13h3.57v7.13ZM335.14,183.23h-3.57v-7.13h3.57v7.13ZM66.97,174.2h-3.57v-7.13h3.57v7.13ZM335.14,168.96h-3.57v-7.13h3.57v7.13ZM66.97,159.94h-3.57v-7.14h3.57v7.14ZM335.14,154.7h-3.57v-7.14h3.57v7.14ZM66.97,145.67h-3.57v-7.13h3.57v7.13ZM335.14,140.43h-3.57v-7.13h3.57v7.13ZM66.97,131.41h-3.57v-7.13h3.57v7.13ZM335.14,126.17h-3.57v-7.13h3.57v7.13ZM66.97,117.14h-3.57v-7.13h3.57v7.13ZM335.14,111.9h-3.57v-.58h-2.98v-3.56h6.55v4.14ZM321.46,111.32h-7.13v-3.56h7.13v3.56ZM307.2,111.32h-7.13v-3.56h7.13v3.56ZM292.93,111.32h-7.13v-3.56h7.13v3.56ZM278.67,111.32h-7.13v-3.56h7.13v3.56ZM264.41,111.32h-7.13v-3.56h7.13v3.56ZM250.14,111.32h-7.13v-3.56h7.13v3.56ZM235.88,111.32h-7.13v-3.56h7.13v3.56ZM221.61,111.32h-7.13v-3.56h7.13v3.56ZM207.35,111.32h-7.13v-3.56h7.13v3.56ZM193.09,111.32h-7.13v-3.56h7.13v3.56ZM178.82,111.32h-7.13v-3.56h7.13v3.56ZM164.56,111.32h-7.13v-3.56h7.13v3.56ZM150.29,111.32h-7.13v-3.56h7.13v3.56ZM136.03,111.32h-7.13v-3.56h7.14v3.56ZM121.77,111.32h-7.13v-3.56h7.13v3.56ZM107.5,111.32h-7.13v-3.56h7.13v3.56ZM93.24,111.32h-7.13v-3.56h7.13v3.56ZM78.97,111.32h-7.13v-3.56h7.13v3.56Z"/><path id="_パス_117732" class="cls-3" d="M65.18,151.65v-42.11h268.18l-268.18,42.11Z"/><path id="_パス_117733" class="cls-5" d="M200.79,76.16l-.81,3.3h-12.83c-1.77,0-6.29,0-9.89-2.85-.85,1.36-1.95,2.54-3.24,3.49l-2.22-3.1c1.16-.81,2.16-1.82,2.97-2.99-1.18-1.7-2.02-3.6-2.49-5.61l2.82-.92c.27,1.1.66,2.17,1.17,3.18.37-1.39.64-2.81.81-4.24h-4.92v-3.26c1.52-1.56,2.88-3.26,4.08-5.08h-4.08v-3.12h8.12v3.12c-1.14,1.96-2.53,3.77-4.14,5.39h4.16c-.01,3.5-.56,6.99-1.62,10.33,1.83,1.54,5.01,2.37,7.85,2.37h14.24ZM191.55,55.45h7.2v3.89h1.59v2.68h-1.59v3.82h-7.2v1.45h7.59v2.46h-7.59v1.4h8.79v2.59h-8.79v1.98h-3.45v-1.98h-7.49v-2.6h7.49v-1.4h-6.5v-2.45h6.5v-1.45h-5.78v-2.43h5.78v-1.4h-7.49v-2.68h7.49v-1.37h-5.78v-2.51h5.78v-1.61h3.45v1.61ZM195.36,57.97h-3.81v1.37h3.81v-1.37ZM195.36,62.01h-3.81v1.39h3.81v-1.39Z"/><path id="_パス_117734" class="cls-5" d="M213.23,77.36c5.81-3.95,9.95-9.9,11.63-16.72h-2.01c-1.43,5.68-4.77,10.69-9.45,14.21l-2.04-2.71c3.96-2.79,6.85-6.85,8.18-11.5h-1.56c-.87,2.11-2.11,4.05-3.66,5.72l-2.55-2.6c.36-.36.69-.74.99-1.15h-1.71v4.94c.99-.31,1.56-.53,2.4-.81l.24,3.3c-.86.4-1.74.74-2.63,1.03v9.1h-3.54v-8.01c-2.61.7-3.84.98-5.04,1.26l-.66-3.57c1.38-.25,3.39-.64,5.7-1.25v-5.97h-1.74c-.23,1.62-.67,3.2-1.29,4.72l-2.67-2.29c.93-2.68,1.2-4.44,1.38-9.3l3.09.11c.04,1.13,0,2.25-.09,3.37h1.32v-5.38h3.54v5.39h2.4v2.43c1.42-2.44,2.42-5.1,2.94-7.87l3.81.34c-.24,1.14-.55,2.27-.93,3.38h10.56c.09,4.72-.12,16.58-.81,19.71-.15,1.73-1.63,3.03-3.36,2.96h-4.8l-.63-3.43h3.81c.69,0,1.2-.03,1.41-.67.27-.9.63-4.02.81-10.72-1.83,5-4.5,10.33-10.85,14.82l-2.19-2.82Z"/><path id="_パス_117735" class="cls-5" d="M184.42,154.79h3.9v7.31h10.46v3.52h-10.46v11h12.05v3.57h-28.06v-3.57h12.11v-11h-10.32v-3.52h10.31v-7.31Z"/><path id="_パス_117736" class="cls-5" d="M210.8,164.64h-1.8v8.04c1.05-.31,1.53-.45,2.28-.72l.18,3.18c-2.93,1.15-5.95,2.07-9.02,2.76l-.6-3.63c.93-.14,1.92-.28,3.57-.67v-8.96h-3.21v-3.29h3.21v-6.59h3.6v6.59h2.46v2.31l1.38-.33v-6.39h3.54v5.52l3.03-.76v-6.94h3.57v6.09l6.71-1.65c.1,3.81-.08,7.63-.51,11.42-.02,1.52-1.26,2.73-2.78,2.71-.04,0-.09,0-.13,0h-2.28l-.6-3.41h1.44c.63,0,.87-.11,1.05-.7.27-1.9.38-3.81.33-5.72l-3.24.81v10.02h-3.57v-9.12l-3.03.72v10.61c0,.53.18.67.84.67h8.46c.93,0,1.29,0,1.5-3.43l3.42.78c-.18,4.05-1.08,6.06-3.6,6.06h-11.27c-2.31,0-2.88-1.2-2.88-2.51v-11.28l-1.65.39-.39-2.57Z"/><rect id="_長方形_11006" class="cls-6" x="320.19" y="42.28" width="112.24" height="45.26"/><path id="_パス_117743" class="cls-7" d="M433.68,88.78h-114.73v-47.75h114.73v47.75ZM321.45,86.28h109.73v-42.75h-109.74v42.75Z"/><path id="_パス_117744" class="cls-7" d="M331.85,57.62h8.61v2.27h-8.61v-2.27ZM332.52,54.39h7.26v2.2h-7.26v-2.2ZM332.52,60.88h7.26v2.22h-7.26v-2.22ZM332.52,64.23h7.26v2.23h-7.26v-2.23ZM332.52,67.53h7.35v6.47h-4.74v.83h-2.61v-7.3ZM335.13,71.85h2.29v-2.16h-2.29v2.16ZM345.51,74.84v-7.6h-4.9v-2.72h4.9v-7.51h-4.47v-2.63h11.8v2.63h-4.52v7.51h4.76v2.72h-4.76v7.6h-2.81ZM343.28,58.01c.68,1.72,1.17,3.52,1.46,5.34l-2.56.52c-.22-1.8-.65-3.58-1.28-5.28l2.38-.58ZM352.86,58.41c-.27,1.87-.76,3.7-1.46,5.46l-2.58-.61c.67-1.7,1.16-3.47,1.46-5.28l2.59.43Z"/><path id="_パス_117745" class="cls-7" d="M356.01,64.83c-.31.43-.65.83-1.01,1.21l-.94-3.7c1.1-1.46,2.43-3.5,3.08-8.7l2.81.23c-.22,1.94-.64,3.86-1.26,5.71v15.33h-2.67v-10.07ZM375.56,54.36v2.61h-4.83v3.21h4.15v14.72h-2.49v-.87h-9.71v.87h-2.47v-14.72h4.18v-3.21h-4.36v-2.61h15.53ZM362.68,71.44h1.71v-8.76h-1.71v8.76ZM366.71,60.18h1.71v-3.21h-1.71v3.21ZM366.71,71.44h1.71v-8.76h-1.71v8.76ZM370.73,71.44h1.66v-8.76h-1.66v8.76Z"/><path id="_パス_117746" class="cls-7" d="M379.15,61.02c1.2.96,2.34,1.98,3.42,3.08.51-1.45.84-2.95.99-4.48h-6.63v-2.74h4.05v-3.21h2.79v3.21h3.78v2.74h-1.17c-.21,2.32-.78,4.6-1.68,6.74,1.17,1.28,2.21,2.68,3.1,4.18l-2.29,1.85c-1.14-1.93-2.07-3.12-2.2-3.33-1.32,2.06-2.96,3.9-4.85,5.44l-1.89-2.45c1.94-1.43,3.58-3.23,4.81-5.31-1.25-1.42-2.65-2.7-4.16-3.84l1.95-1.88ZM389.6,62.14c1.19,1.84,2.15,3.82,2.85,5.89l-2.67,1.28c-.64-2.06-1.53-4.04-2.65-5.89l2.47-1.28ZM396.23,53.67v4.02h1.78v2.85h-1.78v11.93c0,1.87-.63,2.36-2.63,2.36h-3.76l-.61-2.75h3.28c.85,0,.85-.11.85-.72v-10.83h-5.23v-2.85h5.23v-4.02h2.86Z"/><path id="_パス_117747" class="cls-7" d="M399.16,72.18c3.55-.58,8.02-1.71,11.05-3.66-.09-.23-.19-.46-.31-.67-3.04,1.66-6.34,2.81-9.75,3.39l-.67-2.14c3.25-.31,6.42-1.23,9.33-2.72-.17-.19-.36-.36-.56-.52-2.52,1.02-5.15,1.74-7.84,2.14l-.7-2.14c5.1-.74,6.88-1.5,8-2h-6.88v-4.18s-.54.23-.79.31l-1.1-2.49c2.53-.61,4.81-1.98,6.54-3.93l3.06.47c-.19.27-.39.52-.6.76h7.62v2.07c-.39.46-.82.89-1.28,1.28h4.97v5.71h-1.91l1.84,1.5c-1.04.98-2.21,1.82-3.48,2.49,1.42,1.65,3.18,2.96,5.17,3.84l-1.84,2.47c-3.83-2.13-6.56-5.81-7.48-10.09-.33.25-.68.47-1.03.67,1.89,1.59,2.96,3.93,2.94,6.4,0,2.76-.9,3.75-2.99,3.75h-2.63l-.58-2.34h2.16c1.17,0,1.35-.31,1.35-1.39,0-.26-.01-.53-.07-.78-3.33,1.92-6.95,3.3-10.72,4.07l-.78-2.27ZM403.54,61.91h5.12v-1.8h-5.12v1.8ZM410.42,58.16c.47-.38.9-.81,1.28-1.28h-5.89c-.6.47-1.23.9-1.89,1.28h6.5ZM411.23,61.91h5.28v-1.8h-5.28v1.8ZM413.72,63.87c.21.76.5,1.5.86,2.2,1.02-.58,1.94-1.32,2.72-2.2h-3.57Z"/><rect id="_長方形_11007" class="cls-7" x="247.57" y="62.67" width="72.96" height="2.5"/><path id="_パス_117748" class="cls-7" d="M300.92,121.88h-56.83v-2.5h54.34v-54.48h2.5v56.98Z"/><rect id="_長方形_11008" class="cls-5" x="57.67" y="105.79" width="282.54" height="3.31"/><path id="_パス_117749" class="cls-5" d="M8.69,137.01c-.05,2.65.21,3.11,5.01,3.11,2.24,0,3.94-.28,3.94-2.28,0-2.17-1.59-2.21-2.74-2.21h-3.77v-3.04h3.77c1.04,0,2.46,0,2.46-1.91,0-2.05-1.66-2.09-4.46-2.09-3.76,0-3.87.83-3.87,2.62h-3.78c.09-4.9,1.91-6.12,7.82-6.12,3.46,0,8.04.02,8.04,5.13,0,.55,0,2.94-2.26,3.7.69.28,2.58,1.01,2.58,4.24,0,5.04-4,5.43-7.94,5.43-7.41,0-8.61-1.49-8.61-6.58h3.8Z"/><path id="_パス_117750" class="cls-5" d="M39.37,125.27v3.45h-11.37l-.14,3.71c.78-.6,1.7-1.22,5.36-1.22,3.87,0,6.86.55,6.86,6.22,0,4.7-1.93,6.17-7.99,6.17s-8.31-.94-8.38-6.08h3.77c0,1.77.27,2.62,4.17,2.62s4.65-.41,4.65-2.71c0-2-.3-2.88-4.15-2.88s-4.23.67-4.44,1.31h-3.47l.25-10.59h14.87Z"/><path id="_パス_117751" class="cls-5" d="M44.68,131.19c2.05,0,3.14.38,3.14,3.36,0,2.36-.35,3.58-2.93,3.58-2.26,0-3.16-.51-3.16-3.47,0-2.36.48-3.47,2.95-3.47M43.59,134.72c0,1.24.21,1.56,1.23,1.56s1.15-.51,1.15-1.69-.21-1.56-1.18-1.56c-1.1,0-1.2.52-1.2,1.69M53.35,131.31l-6.86,12.09h-1.89l6.86-12.09h1.89ZM53.06,136.59c2.07,0,3.16.38,3.16,3.36,0,2.36-.37,3.57-2.95,3.57-2.27,0-3.15-.53-3.15-3.47,0-2.36.46-3.47,2.93-3.47M51.98,140.1c0,1.26.2,1.58,1.21,1.58s1.15-.51,1.15-1.69-.22-1.56-1.18-1.56c-1.09,0-1.18.49-1.18,1.67"/><path id="_パス_117752" class="cls-5" d="M15.54,200.04c.02-1.2-.16-2.12-3.43-2.12-3.91,0-4.81.44-4.81,4.83.74-.71,1.54-1.49,5.53-1.49,5.36,0,6.58,2.16,6.58,5.68,0,5.39-2.76,6.14-7.27,6.14-5.41,0-8.58-.32-8.58-7.82,0-8.1.48-10.68,8.03-10.68,4.72,0,7.74.69,7.71,5.46h-3.75ZM7.37,207.36c0,2.07,1.04,2.46,4.58,2.46s3.87-.71,3.87-2.81c0-1.68-.74-2.44-3.84-2.44s-4.6.09-4.6,2.79"/><path id="_パス_117753" class="cls-5" d="M37.68,194.77v3.45h-11.37l-.14,3.71c.78-.6,1.7-1.22,5.36-1.22,3.87,0,6.86.55,6.86,6.22,0,4.7-1.93,6.17-7.99,6.17s-8.31-.94-8.38-6.08h3.77c0,1.77.28,2.62,4.17,2.62s4.65-.41,4.65-2.71c0-2-.3-2.88-4.15-2.88s-4.23.67-4.44,1.31h-3.48l.26-10.59h14.87Z"/><path id="_パス_117754" class="cls-5" d="M42.99,200.69c2.05,0,3.14.38,3.14,3.36,0,2.36-.35,3.58-2.93,3.58-2.26,0-3.16-.51-3.16-3.47,0-2.36.48-3.47,2.95-3.47M41.9,204.22c0,1.24.21,1.56,1.23,1.56s1.15-.51,1.15-1.69-.21-1.56-1.18-1.56c-1.1,0-1.2.52-1.2,1.69M51.66,200.82l-6.86,12.09h-1.89l6.86-12.09h1.89ZM51.37,206.1c2.07,0,3.16.38,3.16,3.36,0,2.36-.37,3.57-2.95,3.57-2.27,0-3.15-.54-3.15-3.47,0-2.36.46-3.47,2.93-3.47M50.3,209.61c0,1.26.2,1.58,1.21,1.58s1.15-.51,1.15-1.69-.22-1.56-1.18-1.56c-1.09,0-1.18.49-1.18,1.67"/><rect id="_長方形_11009" class="cls-5" x="102.91" y="239.94" width="182.97" height="1.78"/><path id="_パス_117755" class="cls-5" d="M283.93,247.5l11.54-6.67-11.54-6.67v13.33Z"/><path id="_パス_117757" class="cls-3" d="M291.98,36.98H107.07L117.03,0h164.99l9.96,36.98Z"/></g><rect class="cls-1" width="442" height="203"/></svg>