<svg xmlns="http://www.w3.org/2000/svg" xmlns:xlink="http://www.w3.org/1999/xlink" width="99" height="76" viewBox="0 0 99 76">
  <defs>
    <clipPath id="clip-path">
      <rect id="長方形_12888" data-name="長方形 12888" width="99" height="76" transform="translate(0 0.246)" fill="none"/>
    </clipPath>
  </defs>
  <g id="グループ_30654" data-name="グループ 30654" transform="translate(0 -0.746)">
    <g id="グループ_30653" data-name="グループ 30653" transform="translate(0 0.5)" clip-path="url(#clip-path)">
      <path id="パス_155562" data-name="パス 155562" d="M83.067,76.751H6.223A6.241,6.241,0,0,1,0,70.528V6.223A6.241,6.241,0,0,1,6.223,0H83.067a6.241,6.241,0,0,1,6.223,6.223V70.528a6.241,6.241,0,0,1-6.223,6.223" transform="translate(0 -0.495)" fill="#bfae0a"/>
      <path id="パス_155563" data-name="パス 155563" d="M37.013,18.268a11.406,11.406,0,0,0-.655,1.349,31.192,31.192,0,0,1-2.641,5.3,44.858,44.858,0,0,1,4.176,3.971l-1.8,1.929a27.832,27.832,0,0,0-3.8-3.951,21.46,21.46,0,0,1-2.922,3.127,23.741,23.741,0,0,1-4.457,3.09,5.81,5.81,0,0,0-1.648-1.948,19.041,19.041,0,0,0,4.851-3.24A19.072,19.072,0,0,0,30.5,25.347a33.616,33.616,0,0,0-4.963-3.371l1.648-1.648c1.367.8,2.173,1.33,3.091,1.985,1.4,1.012,1.4,1.012,1.554,1.105a22.9,22.9,0,0,0,2.641-6.03Z" transform="translate(-11.201 -8.866)" fill="#fff"/>
      <path id="パス_155564" data-name="パス 155564" d="M62.964,17.84a9.491,9.491,0,0,0-.075,1.686v5.169a9,9,0,0,0,.075,1.647H60.4a13.543,13.543,0,0,0,.093-1.685v-5.15a11.866,11.866,0,0,0-.075-1.686Zm8.5.019a8.859,8.859,0,0,0-.094,1.742v2.528a22.1,22.1,0,0,1-.487,5.675,7.174,7.174,0,0,1-3.69,4.364,15.823,15.823,0,0,1-3.652,1.442,6.394,6.394,0,0,0-1.311-2.229,10.09,10.09,0,0,0,4.046-1.5c1.76-1.161,2.379-2.3,2.584-4.775.075-.805.093-1.629.093-3.128V19.638a9.9,9.9,0,0,0-.093-1.78Z" transform="translate(-29.078 -9.075)" fill="#fff"/>
      <path id="パス_155565" data-name="パス 155565" d="M91.172,24.837a21.638,21.638,0,0,1,1.836,4.439l-2.117.675a18.731,18.731,0,0,0-1.7-4.533Zm10.751.131a3.946,3.946,0,0,0-.262.955,15.993,15.993,0,0,1-2.585,6.237,14.377,14.377,0,0,1-5.712,4.513,6.815,6.815,0,0,0-1.5-1.854A12.155,12.155,0,0,0,95.049,33.1,10.769,10.769,0,0,0,99.3,26.6a8.3,8.3,0,0,0,.337-2.154Zm-6.761-.9a18.369,18.369,0,0,1,1.816,4.308l-2.079.655a20.6,20.6,0,0,0-1.7-4.4Z" transform="translate(-42.939 -12.084)" fill="#fff"/>
      <path id="パス_155566" data-name="パス 155566" d="M126.21,33.076a12.588,12.588,0,0,0,.113-2.1V18.973a12,12,0,0,0-.113-1.91h2.566a12.591,12.591,0,0,0-.075,1.966v3.484a55,55,0,0,1,8.5,3.952l-1.311,2.21a44.365,44.365,0,0,0-6.63-3.578,5.964,5.964,0,0,1-.637-.318,9.632,9.632,0,0,1,.075,1.274V31a20.647,20.647,0,0,0,.075,2.079Z" transform="translate(-60.763 -8.71)" fill="#fff"/>
      <path id="パス_155567" data-name="パス 155567" d="M30,96.111a16.375,16.375,0,0,0,2.435.113c1.292,0,4.364-.113,5.637-.206a7.317,7.317,0,0,0,2.267-.356l1.872,2.528c-.374.262-.524.374-.88.655l-2.154,1.836c-1.124.936-1.255,1.03-1.854,1.5.843-.075.843-.075,3.259-.225,1.255-.094,1.255-.094,2.042-.131.281,0,.674-.038,1.162-.075a4.055,4.055,0,0,0,.767-.094l.131,3.709c-.45-.019-.6-.019-.993-.019a12.275,12.275,0,0,0-5.094.767c-1.162.487-1.892,1.255-1.892,1.948,0,.787.843,1.18,2.472,1.18a11.4,11.4,0,0,0,2.716-.281l.168,3.877h-.374c-.187,0-.187,0-1.76.056a4.92,4.92,0,0,1-.524.019,11.809,11.809,0,0,1-4.533-.749c-1.629-.749-2.435-1.835-2.435-3.259a4.313,4.313,0,0,1,1.255-3.109q-.534.056-1.966.224a31.7,31.7,0,0,0-3.952.562l-.318-3.764c.243.019.412.019.543.019a29.275,29.275,0,0,0,3.615-.318,27.311,27.311,0,0,0,3.971-3.2c-.281.019-.543.056-.675.056-.936.094-.936.094-2.3.169a23.7,23.7,0,0,0-2.379.244Z" transform="translate(-13.215 -46.551)" fill="#fff"/>
      <path id="パス_155568" data-name="パス 155568" d="M71.326,110.508a3.887,3.887,0,0,1-3.24,1.7c-2.734,0-4.626-2.547-4.626-6.274a8.4,8.4,0,0,1,2.21-5.806,9.307,9.307,0,0,1,7.023-2.847c3.446,0,6.218,1.48,7.416,3.952a8.741,8.741,0,0,1,.824,3.971,8,8,0,0,1-3.821,7.135,11.808,11.808,0,0,1-4.27,1.274,14.45,14.45,0,0,0-1.517-3.109m-4.27-4.495c0,1.162.431,2.1.955,2.1.394,0,.749-.524,1.255-1.873a22.362,22.362,0,0,0,1.33-5.375c-1.967.412-3.54,2.7-3.54,5.15m6.125.525a16.447,16.447,0,0,1-1.442,3.352,6.428,6.428,0,0,0,3.464-1.068,5.01,5.01,0,0,0,1.873-4.046,4.386,4.386,0,0,0-1.255-3.24,2.561,2.561,0,0,0-1.4-.693,26.643,26.643,0,0,1-1.236,5.694" transform="translate(-30.553 -47.333)" fill="#fff"/>
      <path id="パス_155569" data-name="パス 155569" d="M101.872,62.191a23.092,23.092,0,0,1,10.993-2.954q5.482,0,8.323,2.784t2.841,7.869a17.1,17.1,0,0,1-1.79,8.323,56.992,56.992,0,0,1-6.562,8.749h8.465v8.124h-20.85l-.455-5.795q5.4-5.738,7.67-8.693a23.164,23.164,0,0,0,3.068-4.886,9.52,9.52,0,0,0,.8-3.608,3.723,3.723,0,0,0-.823-2.585,2.746,2.746,0,0,0-2.131-.909,9.059,9.059,0,0,0-2.5.341A32.937,32.937,0,0,0,103.69,71Z" transform="translate(-49.046 -29.015)" fill="#fff"/>
      <path id="パス_155570" data-name="パス 155570" d="M178.5,67.363l-12.387,7.153V60.211Z" transform="translate(-79.976 -29.483)" fill="#bfae0a"/>
    </g>
  </g>
</svg>
