<svg id="グループ_30652" data-name="グループ 30652" xmlns="http://www.w3.org/2000/svg" xmlns:xlink="http://www.w3.org/1999/xlink" width="99.238" height="77.305" viewBox="0 0 99.238 77.305">
  <defs>
    <clipPath id="clip-path">
      <rect id="長方形_12887" data-name="長方形 12887" width="99.238" height="77.305" fill="none"/>
    </clipPath>
  </defs>
  <g id="グループ_30651" data-name="グループ 30651" clip-path="url(#clip-path)">
    <path id="パス_155553" data-name="パス 155553" d="M83.666,77.3H6.268A6.286,6.286,0,0,1,0,71.037V6.268A6.286,6.286,0,0,1,6.268,0h77.4a6.286,6.286,0,0,1,6.268,6.268V71.037A6.286,6.286,0,0,1,83.666,77.3" fill="#bfae0a"/>
    <path id="パス_155554" data-name="パス 155554" d="M37.112,18.275a11.489,11.489,0,0,0-.66,1.358,31.418,31.418,0,0,1-2.66,5.338,45.183,45.183,0,0,1,4.207,4l-1.811,1.942a28.033,28.033,0,0,0-3.829-3.98,21.615,21.615,0,0,1-2.943,3.15,23.912,23.912,0,0,1-4.49,3.112,5.852,5.852,0,0,0-1.66-1.962,19.179,19.179,0,0,0,4.886-3.263,19.21,19.21,0,0,0,2.4-2.566,33.859,33.859,0,0,0-5-3.4l1.66-1.66c1.377.811,2.188,1.339,3.113,2,1.415,1.019,1.415,1.019,1.565,1.113a23.065,23.065,0,0,0,2.66-6.074Z" transform="translate(-11.114 -8.307)" fill="#fff"/>
    <path id="パス_155555" data-name="パス 155555" d="M62.982,17.841a9.559,9.559,0,0,0-.076,1.7v5.207a9.064,9.064,0,0,0,.076,1.659H60.4a13.64,13.64,0,0,0,.094-1.7V19.52a11.951,11.951,0,0,0-.075-1.7Zm8.564.019a8.922,8.922,0,0,0-.095,1.754v2.547a22.261,22.261,0,0,1-.49,5.716,7.226,7.226,0,0,1-3.716,4.4,15.938,15.938,0,0,1-3.679,1.453,6.44,6.44,0,0,0-1.32-2.245,10.163,10.163,0,0,0,4.075-1.509c1.773-1.169,2.4-2.32,2.6-4.81.075-.811.094-1.641.094-3.15V19.652a9.972,9.972,0,0,0-.094-1.793Z" transform="translate(-28.852 -8.514)" fill="#fff"/>
    <path id="パス_155556" data-name="パス 155556" d="M91.186,24.843a21.794,21.794,0,0,1,1.849,4.471l-2.132.68a18.867,18.867,0,0,0-1.716-4.565Zm10.828.132a3.975,3.975,0,0,0-.264.962,16.109,16.109,0,0,1-2.6,6.282,14.481,14.481,0,0,1-5.753,4.546A6.864,6.864,0,0,0,91.885,34.9a12.243,12.243,0,0,0,3.206-1.736,10.846,10.846,0,0,0,4.282-6.545,8.361,8.361,0,0,0,.339-2.17ZM95.2,24.07a18.5,18.5,0,0,1,1.83,4.339l-2.094.66a20.745,20.745,0,0,0-1.716-4.433Z" transform="translate(-42.605 -11.498)" fill="#fff"/>
    <path id="パス_155557" data-name="パス 155557" d="M126.21,33.192a12.678,12.678,0,0,0,.113-2.113V18.987a12.087,12.087,0,0,0-.113-1.924h2.584a12.686,12.686,0,0,0-.075,1.981v3.509a55.4,55.4,0,0,1,8.564,3.98l-1.32,2.226a44.684,44.684,0,0,0-6.678-3.6,6.005,6.005,0,0,1-.641-.321,9.7,9.7,0,0,1,.076,1.283V31.1a20.8,20.8,0,0,0,.075,2.094Z" transform="translate(-60.291 -8.151)" fill="#fff"/>
    <path id="パス_155558" data-name="パス 155558" d="M30.014,96.114a16.5,16.5,0,0,0,2.452.113c1.3,0,4.4-.113,5.678-.208a7.369,7.369,0,0,0,2.283-.358l1.886,2.547c-.377.264-.528.377-.886.66l-2.17,1.849c-1.132.943-1.264,1.037-1.867,1.509.849-.075.849-.075,3.282-.226,1.264-.095,1.264-.095,2.056-.132.283,0,.679-.038,1.17-.076a4.083,4.083,0,0,0,.773-.095l.132,3.735c-.453-.019-.6-.019-1-.019a12.364,12.364,0,0,0-5.131.773c-1.17.491-1.905,1.264-1.905,1.962,0,.792.849,1.188,2.49,1.188a11.484,11.484,0,0,0,2.736-.283l.169,3.905h-.377c-.189,0-.189,0-1.773.056a4.957,4.957,0,0,1-.528.019,11.9,11.9,0,0,1-4.565-.755c-1.641-.754-2.452-1.848-2.452-3.282a4.344,4.344,0,0,1,1.264-3.131q-.537.056-1.981.226a31.933,31.933,0,0,0-3.98.566l-.321-3.791c.245.019.415.019.547.019a29.486,29.486,0,0,0,3.641-.321,27.509,27.509,0,0,0,4-3.226c-.283.019-.547.056-.68.056-.943.095-.943.095-2.32.17a23.867,23.867,0,0,0-2.4.245Z" transform="translate(-13.112 -45.698)" fill="#fff"/>
    <path id="パス_155559" data-name="パス 155559" d="M71.383,110.6a3.915,3.915,0,0,1-3.263,1.717c-2.754,0-4.659-2.566-4.659-6.319a8.462,8.462,0,0,1,2.226-5.848,9.374,9.374,0,0,1,7.074-2.867c3.471,0,6.263,1.491,7.47,3.98a8.8,8.8,0,0,1,.83,4,8.055,8.055,0,0,1-3.849,7.187,11.893,11.893,0,0,1-4.3,1.283,14.554,14.554,0,0,0-1.528-3.132m-4.3-4.527c0,1.17.434,2.113.962,2.113.4,0,.755-.528,1.264-1.886a22.523,22.523,0,0,0,1.34-5.414c-1.981.415-3.566,2.716-3.566,5.187m6.169.529a16.567,16.567,0,0,1-1.453,3.377,6.475,6.475,0,0,0,3.489-1.075,5.046,5.046,0,0,0,1.887-4.075,4.418,4.418,0,0,0-1.264-3.263,2.58,2.58,0,0,0-1.414-.7,26.835,26.835,0,0,1-1.245,5.735" transform="translate(-30.315 -46.474)" fill="#fff"/>
    <path id="パス_155560" data-name="パス 155560" d="M117.332,95.867h-9.556V69.431h-4.12V63.422l5.837-3.09h7.84Z" transform="translate(-49.517 -28.821)" fill="#fff"/>
    <path id="パス_155561" data-name="パス 155561" d="M178.592,67.415l-12.477,7.2V60.211Z" transform="translate(-79.354 -28.763)" fill="#bfae0a"/>
  </g>
</svg>
