<?xml version="1.0" encoding="UTF-8"?><svg id="_レイヤー_1" xmlns="http://www.w3.org/2000/svg" viewBox="0 0 125.55 84.62"><defs><style>.cls-1{fill:#c7bb5d;}</style></defs><path class="cls-1" d="M62.77,0l-17.66,11.9h-17.54l-10.02,6.76v11.82L0,42.31l17.55,11.83v11.82l10.02,6.76h17.54l17.66,11.9,17.66-11.9h17.53l10.03-6.76v-11.82l17.55-11.83-17.55-11.83v-11.82l-10.02-6.76h-17.54L62.77,0ZM62.77,8l5.79,3.9h-11.59s5.8-3.9,5.8-3.9ZM90.27,18.54h9.37v6.32l-9.37-6.32ZM25.88,51.77v-18.91l21.24-14.32h31.28l21.24,14.32v18.91l-21.24,14.32h-31.28s-21.24-14.32-21.24-14.32ZM25.88,18.54h9.37l-9.37,6.32v-6.32ZM108,38.48l5.68,3.83-5.68,3.83v-7.66ZM11.85,42.31l5.68-3.83v7.66s-5.68-3.83-5.68-3.83ZM99.65,59.76v6.32h-9.37s9.37-6.32,9.37-6.32ZM25.88,59.76l9.37,6.32h-9.37v-6.32ZM56.97,72.72h11.59l-5.79,3.9s-5.8-3.9-5.8-3.9Z"/></svg>