<svg xmlns="http://www.w3.org/2000/svg" width="295.69" height="130.53" viewBox="0 0 295.69 130.53">
  <defs>
    <style>
      .cls-1 {
        fill: #fff;
      }
    </style>
  </defs>
  <g id="レイヤー_2" data-name="レイヤー 2">
    <g id="レイヤー_1-2" data-name="レイヤー 1">
      <g>
        <g>
          <path class="cls-1" d="M0,104.43a7.4,7.4,0,0,1,.27-2,5.54,5.54,0,0,1,.83-1.75,4.37,4.37,0,0,1,1.4-1.24,4.09,4.09,0,0,1,2-.45,3.31,3.31,0,0,1,2,.62,2.06,2.06,0,0,1,.89,1.8,2.61,2.61,0,0,1-1.05,2.23,4.25,4.25,0,0,1-2.4.84,6.79,6.79,0,0,0-.35,1.5c0,.5-.08,1-.08,1.51a5.24,5.24,0,0,0,.89,3.09,6.55,6.55,0,0,0,2.26,2,11,11,0,0,0,3,1.1,15,15,0,0,0,3.18.35,10.35,10.35,0,0,0,4.65-1,10.23,10.23,0,0,0,3.36-2.61,14.11,14.11,0,0,0,2.29-3.73,25.31,25.31,0,0,0,1.4-4.42,38.74,38.74,0,0,0,.73-4.65c.14-1.56.25-3,.32-4.39a34.43,34.43,0,0,1,1-7,18.49,18.49,0,0,1,2.56-5.84,12.56,12.56,0,0,1,4.25-4A12.13,12.13,0,0,1,39.49,75a14.23,14.23,0,0,1,2.94.3,7.23,7.23,0,0,1,2.5,1A5.84,5.84,0,0,1,46.68,78a4.82,4.82,0,0,1,.67,2.61,4.31,4.31,0,0,1-.51,2.18,3.86,3.86,0,0,1-1.35,1.4,6.17,6.17,0,0,1-1.93.75,10.78,10.78,0,0,1-2.29.24,12.37,12.37,0,0,0,1.16-2.42,8.27,8.27,0,0,0,.4-2.69,4.65,4.65,0,0,0-1.1-3.25,3.72,3.72,0,0,0-2.88-1.21,5.65,5.65,0,0,0-3.47,1,7.9,7.9,0,0,0-2.29,2.77,15.46,15.46,0,0,0-1.4,4.09q-.48,2.34-.81,5c-.21,1.74-.39,3.52-.53,5.35s-.33,3.63-.54,5.38a22.56,22.56,0,0,1-1.24,5,16.09,16.09,0,0,1-3,5,15.82,15.82,0,0,1-5.19,3.9,18,18,0,0,1-7.94,1.56,17.36,17.36,0,0,1-4.57-.62,12,12,0,0,1-4-1.91A10,10,0,0,1,1.08,109,9.13,9.13,0,0,1,0,104.43Z"/>
          <path class="cls-1" d="M40,95.88l.37-1H44.5l4-6.78,5.81-.22-4.46,7h6.83l-.48,1H49.29l-4.09,6.7c-1.12,1.81-2,3.31-2.67,4.51s-1.14,2.17-1.45,2.88a5.07,5.07,0,0,0-.46,1.89A1.68,1.68,0,0,0,41,113a1.38,1.38,0,0,0,1.08.43A7.38,7.38,0,0,0,45.63,112a28.88,28.88,0,0,0,4.73-3.79q1.72-1.73,3.77-4c1.36-1.55,2.64-3.11,3.82-4.68l.32.26q-1.23,1.62-3.12,3.93A59.67,59.67,0,0,1,51,108.31c-.83.82-1.68,1.6-2.56,2.34a22.89,22.89,0,0,1-2.66,1.93,14.78,14.78,0,0,1-2.64,1.32,7.23,7.23,0,0,1-2.53.49,5.72,5.72,0,0,1-3-.78,2.92,2.92,0,0,1-1.29-2.72,7.85,7.85,0,0,1,.59-2.88,24.85,24.85,0,0,1,1.64-3.26Q39.6,103,41,100.83c.93-1.44,1.94-3.09,3-5Z"/>
          <path class="cls-1" d="M46.81,118.1a5.19,5.19,0,0,0-1-.06,4.22,4.22,0,0,0-3.57,1.67A6.54,6.54,0,0,0,41,123.8a5.78,5.78,0,0,0,1.75,4.47,6.16,6.16,0,0,0,4.33,1.61,11.88,11.88,0,0,0,5.17-1.15,19.11,19.11,0,0,0,4.52-3.07,33.38,33.38,0,0,0,3.95-4.36,59.65,59.65,0,0,0,3.44-5q1.59-2.58,3-5.06t2.58-4.46l-.1-.11c-.54.64-1.22,1.41-2,2.28a24.5,24.5,0,0,1-2.72,2.53,18.35,18.35,0,0,1-3.17,2.07,7.31,7.31,0,0,1-3.39.87,3,3,0,0,1-2.56-1,3.86,3.86,0,0,1-.78-2.42,7.79,7.79,0,0,1,.75-3.06c.51-1.15,1.14-2.42,1.91-3.8s1.64-2.84,2.61-4.38,1.94-3.14,2.91-4.79l5.7-.22q-4.52,7.05-7.05,11.14c-1.68,2.73-2.53,4.66-2.53,5.81a1.42,1.42,0,0,0,.41,1,1.34,1.34,0,0,0,1,.4,4.92,4.92,0,0,0,2.48-1,21.89,21.89,0,0,0,3.2-2.66,43.26,43.26,0,0,0,3.42-3.85,46.26,46.26,0,0,0,3.12-4.49c.79-1.3,1.49-2.48,2.1-3.56a26.47,26.47,0,0,0,1.34-2.63l5.27-.22q-2.9,5-5.62,10t-5.67,9.88a20.62,20.62,0,0,0,5.11-2.34,36.29,36.29,0,0,0,4.87-3.69,45.84,45.84,0,0,0,4.35-4.47c1.35-1.57,2.56-3.12,3.64-4.62l.43.37a56.54,56.54,0,0,1-4,5.14A44.58,44.58,0,0,1,80,109.52a35.66,35.66,0,0,1-5,3.57,19.78,19.78,0,0,1-5.17,2.16,41.65,41.65,0,0,1-4.36,6.08,29.57,29.57,0,0,1-5.32,4.84,24.93,24.93,0,0,1-6.3,3.2,22.36,22.36,0,0,1-7.26,1.16,20.33,20.33,0,0,1-3.77-.35A10,10,0,0,1,39.6,129a6.7,6.7,0,0,1-2.26-2.2,6.26,6.26,0,0,1-.86-3.36,5.36,5.36,0,0,1,.67-2.75,5.75,5.75,0,0,1,1.78-1.86,8,8,0,0,1,2.53-1.07,11.93,11.93,0,0,1,2.93-.35c.43,0,.87,0,1.32,0a7.52,7.52,0,0,1,1.1.16Z"/>
          <path class="cls-1" d="M111.32,76.24,94.7,102.71q-2.1,3.39-3.34,5.62A8.16,8.16,0,0,0,90.12,112c0,1,.4,1.46,1.19,1.46a6.31,6.31,0,0,0,3.06-1.24,25.14,25.14,0,0,0,4.15-3.44c1.36-1.37,2.71-2.82,4-4.36s2.62-3.14,3.88-4.79l.48.16c-.43.57-.92,1.22-1.48,1.94s-1.14,1.44-1.75,2.18l-1.85,2.2c-.63.74-1.25,1.41-1.86,2a34.94,34.94,0,0,1-5.51,4.74,9,9,0,0,1-5,1.56q-3.66,0-3.66-3.23a9.31,9.31,0,0,1,1.1-3.8q1.11-2.28,3.42-6.16l15-24.64Z"/>
          <path class="cls-1" d="M133.28,99.75q-1.68,2.27-3.58,4.47a57.4,57.4,0,0,1-4.55,4.62,22.59,22.59,0,0,1-7.13,4.6,18.42,18.42,0,0,1-6.43,1.27,6.43,6.43,0,0,1-4.84-1.83,6.54,6.54,0,0,1-1.78-4.74,9.58,9.58,0,0,1,1.57-5.11,18.84,18.84,0,0,1,3.92-4.52,21.65,21.65,0,0,1,5.2-3.23A13.39,13.39,0,0,1,121,94.05a6.3,6.3,0,0,1,3.6.88,2.89,2.89,0,0,1,1.3,2.51A3.62,3.62,0,0,1,125,99.8a9,9,0,0,1-2.29,1.94,17,17,0,0,1-3.15,1.51c-1.16.43-2.32.8-3.47,1.13s-2.22.59-3.23.8l-2.47.54a8.11,8.11,0,0,0-.27,1.94,5.48,5.48,0,0,0,1.29,3.77,4.6,4.6,0,0,0,3.61,1.45,11.31,11.31,0,0,0,5-1.35,22.59,22.59,0,0,0,5.46-3.92q2.1-2,4-4.17c1.29-1.46,2.42-2.81,3.39-4.07ZM121.6,96.09a1.28,1.28,0,0,0-.4-1.07,1.61,1.61,0,0,0-1-.33,5.09,5.09,0,0,0-2.91,1.13,16.52,16.52,0,0,0-2.93,2.77,25.85,25.85,0,0,0-2.42,3.45,12,12,0,0,0-1.37,3.14,16.07,16.07,0,0,0,4.19-1.42,18.42,18.42,0,0,0,3.53-2.26,11.75,11.75,0,0,0,2.45-2.69A5.06,5.06,0,0,0,121.6,96.09Z"/>
        </g>
        <g>
          <path class="cls-1" d="M2.61,0H15.68V54.08H38.82V64.79H2.61Z"/>
          <path class="cls-1" d="M50.88,29.31a21.43,21.43,0,0,1,3.27-8,14.45,14.45,0,0,1,5.94-4.9,21.67,21.67,0,0,1,9-1.68,23,23,0,0,1,9.35,1.5,13.14,13.14,0,0,1,5.9,4.85,21.79,21.79,0,0,1,3.08,8.08,61.66,61.66,0,0,1,.91,11.25,55.31,55.31,0,0,1-1,11.07,21.5,21.5,0,0,1-3.27,8,13.49,13.49,0,0,1-5.94,4.76,23.33,23.33,0,0,1-9,1.54,24.06,24.06,0,0,1-9.34-1.4,12.58,12.58,0,0,1-5.9-4.72,21.39,21.39,0,0,1-3.09-8.08,61.93,61.93,0,0,1-.9-11.2A55.22,55.22,0,0,1,50.88,29.31Zm11.71,18a24,24,0,0,0,.86,5.45,7.75,7.75,0,0,0,2,3.54,5.15,5.15,0,0,0,3.63,1.27c2.54,0,4.3-1.33,5.26-4s1.46-7,1.46-13.15-.49-10.5-1.46-13.16-2.72-4-5.26-4a5.1,5.1,0,0,0-3.63,1.27,7.75,7.75,0,0,0-2,3.54,24,24,0,0,0-.86,5.44q-.18,3.18-.18,6.9T62.59,47.27Z"/>
          <path class="cls-1" d="M127.19,59.07A11.83,11.83,0,0,1,122,64.24a16.41,16.41,0,0,1-7.26,1.54q-6,0-9.21-3.13t-3.22-10.48V16h12.52V49.63q0,3.81,1.27,5.31a5.08,5.08,0,0,0,4.09,1.5q6.62,0,6.62-8.08V16h12.52V64.79h-12V59.07Z"/>
          <path class="cls-1" d="M166.93,16v5.72h.19a12.69,12.69,0,0,1,5.17-5.31,15.25,15.25,0,0,1,7.26-1.68q6,0,9.21,3.27T192,28.58V64.79H179.46V31.12c0-2.54-.43-4.31-1.27-5.31a5.11,5.11,0,0,0-4.09-1.49q-6.61,0-6.62,8.07v32.4H155V16Z"/>
          <path class="cls-1" d="M244.15,62.34q0,9.43-4.67,14.15t-15.65,4.72q-8,0-12.3-3.4t-4.31-9.67h12a4.31,4.31,0,0,0,1.9,3.72,7.72,7.72,0,0,0,2,1,6.71,6.71,0,0,0,2.22.36c2.54,0,4.32-.81,5.35-2.45a11.17,11.17,0,0,0,1.54-6.07V58.25H232a14.92,14.92,0,0,1-4.67,4.36,11.19,11.19,0,0,1-5.76,1.63q-7.44,0-11.21-5.67t-3.76-19a76.34,76.34,0,0,1,.5-8.71,27.13,27.13,0,0,1,2.08-8A14.44,14.44,0,0,1,213.8,17a13.28,13.28,0,0,1,8.12-2.27,11.87,11.87,0,0,1,5.45,1.45A10.89,10.89,0,0,1,232,21.41h.18V16h12ZM219.33,46.73a16.12,16.12,0,0,0,.91,4,6.81,6.81,0,0,0,1.91,2.81,4.76,4.76,0,0,0,3.22,1,5.14,5.14,0,0,0,3.31-1,7.1,7.1,0,0,0,2.09-2.86,16.94,16.94,0,0,0,1.09-4.4,47,47,0,0,0,.31-5.67q0-8.89-1.4-12.61a5.14,5.14,0,0,0-5.13-3.72,5.71,5.71,0,0,0-3.36.9,6,6,0,0,0-2,3,21,21,0,0,0-1,5.45c-.15,2.27-.22,5-.22,8.3C219.11,43.61,219.18,45.22,219.33,46.73Z"/>
          <path class="cls-1" d="M270.92,46.18a26.35,26.35,0,0,0,.32,4.22,13.34,13.34,0,0,0,1,3.63,6.74,6.74,0,0,0,1.91,2.54,4.43,4.43,0,0,0,2.9,1,5.1,5.1,0,0,0,4.63-2.27,16.81,16.81,0,0,0,2-6.9H295q-.36,8.53-4.53,13t-13.16,4.44c-4.54,0-8.07-.75-10.62-2.26a14.12,14.12,0,0,1-5.62-6,23.6,23.6,0,0,1-2.22-8.35c-.28-3.09-.41-6.17-.41-9.26a62.66,62.66,0,0,1,.68-9.43,22.69,22.69,0,0,1,2.72-8.08,14.74,14.74,0,0,1,5.85-5.62q3.81-2.08,10.16-2.09a19.76,19.76,0,0,1,8.94,1.77,13.45,13.45,0,0,1,5.49,5,20.85,20.85,0,0,1,2.72,7.8,64.87,64.87,0,0,1,.73,10.21v2.81H270.92ZM283.35,29.9a12.78,12.78,0,0,0-1-3.63A5.07,5.07,0,0,0,280.49,24a5.83,5.83,0,0,0-3.13-.77,5.36,5.36,0,0,0-3.13.86,6.15,6.15,0,0,0-2,2.27,11,11,0,0,0-1,3.13,18.31,18.31,0,0,0-.32,3.45v1.9h12.79C283.65,33,283.53,31.32,283.35,29.9Z"/>
        </g>
      </g>
    </g>
  </g>
</svg>
