<svg xmlns="http://www.w3.org/2000/svg" width="403.94" height="128.53" viewBox="0 0 403.94 128.53">
  <defs>
    <style>
      .cls-1 {
        fill: #fff;
      }
    </style>
  </defs>
  <g id="レイヤー_2" data-name="レイヤー 2">
    <g id="レイヤー_1-2" data-name="レイヤー 1">
      <g>
        <g>
          <path class="cls-1" d="M22.3,0l9.26,45.73h.18L41.08,0H60.41V64.79h-12V13.07h-.18L36.73,64.79H26.57L15,13.07h-.18V64.79h-12V0Z"/>
          <path class="cls-1" d="M76,29.31a21.26,21.26,0,0,1,3.26-8,14.48,14.48,0,0,1,6-4.9,21.65,21.65,0,0,1,9-1.68,23,23,0,0,1,9.35,1.5,13.08,13.08,0,0,1,5.9,4.85,21.61,21.61,0,0,1,3.08,8.08,60.79,60.79,0,0,1,.91,11.25,54.59,54.59,0,0,1-1,11.07,21.33,21.33,0,0,1-3.26,8,13.57,13.57,0,0,1-6,4.76,23.33,23.33,0,0,1-9,1.54,24.1,24.1,0,0,1-9.34-1.4A12.63,12.63,0,0,1,79,59.66a21.22,21.22,0,0,1-3.08-8.08A61,61,0,0,1,75,40.38,54.45,54.45,0,0,1,76,29.31Zm11.7,18a24,24,0,0,0,.86,5.45,7.85,7.85,0,0,0,2,3.54,5.1,5.1,0,0,0,3.62,1.27c2.55,0,4.3-1.33,5.27-4s1.45-7,1.45-13.15-.48-10.5-1.45-13.16-2.72-4-5.27-4a5.06,5.06,0,0,0-3.62,1.27,7.85,7.85,0,0,0-2,3.54,24,24,0,0,0-.86,5.44q-.18,3.18-.18,6.9T87.72,47.27Z"/>
          <path class="cls-1" d="M139.44,16v5.72h.18a12.75,12.75,0,0,1,5.17-5.31,15.31,15.31,0,0,1,7.26-1.68q6,0,9.21,3.27t3.22,10.61V64.79H152V31.12q0-3.81-1.27-5.31a5.1,5.1,0,0,0-4.08-1.49q-6.63,0-6.62,8.07v32.4H127.46V16Z"/>
          <path class="cls-1" d="M179.46,29.31a21.26,21.26,0,0,1,3.26-8,14.52,14.52,0,0,1,5.94-4.9,21.7,21.7,0,0,1,9-1.68A23,23,0,0,1,207,16.2a13.08,13.08,0,0,1,5.9,4.85A21.61,21.61,0,0,1,216,29.13a60.79,60.79,0,0,1,.91,11.25,54.59,54.59,0,0,1-1,11.07,21.17,21.17,0,0,1-3.27,8,13.49,13.49,0,0,1-5.94,4.76,23.33,23.33,0,0,1-9,1.54,24.1,24.1,0,0,1-9.34-1.4,12.63,12.63,0,0,1-5.9-4.72,21.22,21.22,0,0,1-3.08-8.08,61,61,0,0,1-.91-11.2A54.45,54.45,0,0,1,179.46,29.31Zm11.7,18a24,24,0,0,0,.86,5.45,7.93,7.93,0,0,0,2,3.54,5.15,5.15,0,0,0,3.63,1.27q3.81,0,5.27-4t1.45-13.15q0-9.16-1.45-13.16t-5.27-4a5.1,5.1,0,0,0-3.63,1.27A7.93,7.93,0,0,0,192,28a24,24,0,0,0-.86,5.44q-.18,3.18-.18,6.9T191.16,47.27Z"/>
          <path class="cls-1" d="M246.15,2V16h7.26V24.5h-7.26V50.9A7.36,7.36,0,0,0,247,55c.57.82,1.77,1.23,3.58,1.23.49,0,1,0,1.45,0s.94-.07,1.37-.13v8.71c-1.4,0-2.74,0-4,.13s-2.68.14-4.13.14a29.16,29.16,0,0,1-5.94-.5,6,6,0,0,1-3.54-2,8.53,8.53,0,0,1-1.68-3.94,35,35,0,0,1-.46-6.17V24.5h-6.35V16h6.35V2Z"/>
          <path class="cls-1" d="M264.38,29.31a21.43,21.43,0,0,1,3.27-8,14.45,14.45,0,0,1,5.94-4.9,21.67,21.67,0,0,1,9-1.68A23,23,0,0,1,292,16.2a13.14,13.14,0,0,1,5.9,4.85A21.61,21.61,0,0,1,301,29.13a60.79,60.79,0,0,1,.91,11.25,54.59,54.59,0,0,1-1,11.07,21.33,21.33,0,0,1-3.27,8,13.49,13.49,0,0,1-5.94,4.76,23.33,23.33,0,0,1-9,1.54,24.1,24.1,0,0,1-9.34-1.4,12.63,12.63,0,0,1-5.9-4.72,21.39,21.39,0,0,1-3.09-8.08,61.93,61.93,0,0,1-.9-11.2A55.22,55.22,0,0,1,264.38,29.31Zm11.71,18a24,24,0,0,0,.86,5.45,7.93,7.93,0,0,0,2,3.54,5.15,5.15,0,0,0,3.63,1.27c2.54,0,4.3-1.33,5.26-4s1.46-7,1.46-13.15-.49-10.5-1.46-13.16-2.72-4-5.26-4A5.1,5.1,0,0,0,279,24.5,7.93,7.93,0,0,0,277,28a24,24,0,0,0-.86,5.44q-.18,3.18-.18,6.9T276.09,47.27Z"/>
          <path class="cls-1" d="M327.81,16v5.72H328a12.69,12.69,0,0,1,5.17-5.31,15.31,15.31,0,0,1,7.26-1.68q6,0,9.21,3.27t3.22,10.61V64.79H340.33V31.12q0-3.81-1.27-5.31A5.1,5.1,0,0,0,335,24.32q-6.63,0-6.63,8.07v32.4H315.83V16Z"/>
          <path class="cls-1" d="M379.16,46.18a27.55,27.55,0,0,0,.32,4.22,13.34,13.34,0,0,0,1,3.63,6.72,6.72,0,0,0,1.9,2.54,4.47,4.47,0,0,0,2.9,1A5.1,5.1,0,0,0,390,55.26a16.64,16.64,0,0,0,2-6.9h11.25q-.36,8.53-4.54,13t-13.15,4.44q-6.81,0-10.62-2.26a14.15,14.15,0,0,1-5.63-6,23.6,23.6,0,0,1-2.22-8.35c-.27-3.09-.41-6.17-.41-9.26a64,64,0,0,1,.68-9.43,22.7,22.7,0,0,1,2.73-8.08,14.74,14.74,0,0,1,5.85-5.62q3.81-2.08,10.16-2.09A19.76,19.76,0,0,1,395,16.47a13.45,13.45,0,0,1,5.49,5,20.85,20.85,0,0,1,2.72,7.8,66.1,66.1,0,0,1,.73,10.21v2.81H379.16ZM391.6,29.9a12.77,12.77,0,0,0-1-3.63,5.05,5.05,0,0,0-1.9-2.27,5.83,5.83,0,0,0-3.13-.77,5.33,5.33,0,0,0-3.13.86,6.15,6.15,0,0,0-2,2.27,11,11,0,0,0-1,3.13,19.18,19.18,0,0,0-.32,3.45v1.9H392C391.9,33,391.78,31.32,391.6,29.9Z"/>
        </g>
        <g>
          <path class="cls-1" d="M0,102.44a7.35,7.35,0,0,1,.27-2A5.54,5.54,0,0,1,1.1,98.7a4.25,4.25,0,0,1,1.4-1.24,4.1,4.1,0,0,1,2-.46,3.38,3.38,0,0,1,2,.62,2.06,2.06,0,0,1,.89,1.8,2.63,2.63,0,0,1-1.05,2.24,4.24,4.24,0,0,1-2.4.83A6.74,6.74,0,0,0,3.52,104c0,.5-.08,1-.08,1.5a5.3,5.3,0,0,0,.89,3.1,6.75,6.75,0,0,0,2.26,2,11,11,0,0,0,3,1.1,15.7,15.7,0,0,0,3.18.35,10.49,10.49,0,0,0,4.65-1,10.5,10.5,0,0,0,3.36-2.61,14,14,0,0,0,2.29-3.74,25.48,25.48,0,0,0,1.4-4.41,38.9,38.9,0,0,0,.73-4.66c.14-1.56.25-3,.32-4.38a34.42,34.42,0,0,1,1-7,18.59,18.59,0,0,1,2.56-5.84,12.53,12.53,0,0,1,4.25-4A12.13,12.13,0,0,1,39.49,73a14.23,14.23,0,0,1,2.94.3,7.25,7.25,0,0,1,2.5,1A5.81,5.81,0,0,1,46.68,76a4.82,4.82,0,0,1,.67,2.61,4.29,4.29,0,0,1-.51,2.18,3.78,3.78,0,0,1-1.35,1.4,6.43,6.43,0,0,1-1.93.76,10.78,10.78,0,0,1-2.29.24,12.65,12.65,0,0,0,1.16-2.42,8.31,8.31,0,0,0,.4-2.69,4.68,4.68,0,0,0-1.1-3.26,3.72,3.72,0,0,0-2.88-1.21,5.65,5.65,0,0,0-3.47,1,8,8,0,0,0-2.29,2.77,15.59,15.59,0,0,0-1.4,4.09q-.48,2.34-.81,5c-.21,1.74-.39,3.53-.53,5.36s-.33,3.62-.54,5.38a22.35,22.35,0,0,1-1.24,5,16,16,0,0,1-3,5,15.82,15.82,0,0,1-5.19,3.9,18,18,0,0,1-7.94,1.56,17,17,0,0,1-4.57-.62,11.81,11.81,0,0,1-4-1.91A9.94,9.94,0,0,1,1.08,107,9.16,9.16,0,0,1,0,102.44Z"/>
          <path class="cls-1" d="M40,93.88l.37-1H44.5l4-6.78,5.81-.21-4.46,7h6.83l-.48,1H49.29l-4.09,6.7c-1.12,1.81-2,3.32-2.67,4.52s-1.14,2.16-1.45,2.88a5,5,0,0,0-.46,1.88A1.66,1.66,0,0,0,41,111a1.35,1.35,0,0,0,1.08.43,7.45,7.45,0,0,0,3.55-1.37,29.43,29.43,0,0,0,4.73-3.79q1.72-1.73,3.77-4c1.36-1.54,2.64-3.1,3.82-4.68l.32.27q-1.23,1.62-3.12,3.93A59.57,59.57,0,0,1,51,106.31c-.83.83-1.68,1.61-2.56,2.34a23,23,0,0,1-2.66,1.94,16.25,16.25,0,0,1-2.64,1.32,7.21,7.21,0,0,1-2.53.48,5.72,5.72,0,0,1-3-.78,2.92,2.92,0,0,1-1.29-2.72,7.85,7.85,0,0,1,.59-2.88,24.78,24.78,0,0,1,1.64-3.25Q39.6,101,41,98.83c.93-1.43,1.94-3.08,3-5Z"/>
          <path class="cls-1" d="M46.81,116.1a6.67,6.67,0,0,0-1,0,4.22,4.22,0,0,0-3.57,1.67A6.52,6.52,0,0,0,41,121.81a5.74,5.74,0,0,0,1.75,4.46,6.12,6.12,0,0,0,4.33,1.62,11.89,11.89,0,0,0,5.17-1.16,18.53,18.53,0,0,0,4.52-3.07,32.14,32.14,0,0,0,3.95-4.36,58.08,58.08,0,0,0,3.44-5q1.59-2.58,3-5t2.58-4.47l-.1-.11c-.54.65-1.22,1.41-2,2.29a25.49,25.49,0,0,1-2.72,2.53,18.35,18.35,0,0,1-3.17,2.07,7.41,7.41,0,0,1-3.39.86,3,3,0,0,1-2.56-1A3.88,3.88,0,0,1,55,109a7.83,7.83,0,0,1,.75-3.07c.51-1.15,1.14-2.41,1.91-3.79s1.64-2.85,2.61-4.39,1.94-3.14,2.91-4.79l5.7-.21q-4.52,7-7.05,11.14c-1.68,2.72-2.53,4.66-2.53,5.81a1.42,1.42,0,0,0,.41,1,1.38,1.38,0,0,0,1,.4,4.86,4.86,0,0,0,2.48-1,21.89,21.89,0,0,0,3.2-2.66,40.62,40.62,0,0,0,3.42-3.85,46.26,46.26,0,0,0,3.12-4.49c.79-1.29,1.49-2.47,2.1-3.55a27.58,27.58,0,0,0,1.34-2.64l5.27-.21q-2.9,5-5.62,10t-5.67,9.87a20.27,20.27,0,0,0,5.11-2.34,37.06,37.06,0,0,0,4.87-3.68,45.84,45.84,0,0,0,4.35-4.47q2-2.37,3.64-4.63l.43.38a56.54,56.54,0,0,1-4,5.14A44.47,44.47,0,0,1,80,107.52a35.75,35.75,0,0,1-5,3.58,20.08,20.08,0,0,1-5.17,2.15,40.6,40.6,0,0,1-4.36,6.08,29.2,29.2,0,0,1-5.32,4.84,25,25,0,0,1-6.3,3.21,22.36,22.36,0,0,1-7.26,1.15,19.51,19.51,0,0,1-3.77-.35A10,10,0,0,1,39.6,127a6.73,6.73,0,0,1-2.26-2.21,6.21,6.21,0,0,1-.86-3.36,5.32,5.32,0,0,1,.67-2.74,5.56,5.56,0,0,1,1.78-1.86,8.26,8.26,0,0,1,2.53-1.08,12.43,12.43,0,0,1,2.93-.35q.64,0,1.32.06a6.37,6.37,0,0,1,1.1.16Z"/>
          <path class="cls-1" d="M111.32,74.24,94.7,100.71q-2.1,3.39-3.34,5.63A8.16,8.16,0,0,0,90.12,110c0,1,.4,1.45,1.19,1.45a6.31,6.31,0,0,0,3.06-1.24,24.64,24.64,0,0,0,4.15-3.44c1.36-1.36,2.71-2.81,4-4.36s2.62-3.14,3.88-4.79l.48.17c-.43.57-.92,1.22-1.48,1.93s-1.14,1.45-1.75,2.18-1.23,1.47-1.85,2.21-1.25,1.41-1.86,2a35.33,35.33,0,0,1-5.51,4.73,9,9,0,0,1-5,1.56q-3.66,0-3.66-3.23a9.28,9.28,0,0,1,1.1-3.79q1.11-2.3,3.42-6.16l15-24.65Z"/>
          <path class="cls-1" d="M133.28,97.76q-1.68,2.25-3.58,4.46a59.1,59.1,0,0,1-4.55,4.63,22.77,22.77,0,0,1-7.13,4.6,18.63,18.63,0,0,1-6.43,1.26,6.43,6.43,0,0,1-4.84-1.83,6.52,6.52,0,0,1-1.78-4.73,9.56,9.56,0,0,1,1.57-5.11,18.65,18.65,0,0,1,3.92-4.52,21.34,21.34,0,0,1,5.2-3.23A13.24,13.24,0,0,1,121,92.05a6.3,6.3,0,0,1,3.6.89,2.87,2.87,0,0,1,1.3,2.5,3.66,3.66,0,0,1-.89,2.37,9.24,9.24,0,0,1-2.29,1.94,17.7,17.7,0,0,1-3.15,1.5c-1.16.43-2.32.81-3.47,1.13s-2.22.59-3.23.81-1.83.39-2.47.54a8,8,0,0,0-.27,1.93,5.46,5.46,0,0,0,1.29,3.77,4.56,4.56,0,0,0,3.61,1.45,11.29,11.29,0,0,0,5-1.34,22.92,22.92,0,0,0,5.46-3.93q2.1-2,4-4.17c1.29-1.45,2.42-2.81,3.39-4.06ZM121.6,94.1a1.3,1.3,0,0,0-.4-1.08,1.66,1.66,0,0,0-1-.32,5,5,0,0,0-2.91,1.13,15.82,15.82,0,0,0-2.93,2.77,25.13,25.13,0,0,0-2.42,3.44,11.87,11.87,0,0,0-1.37,3.15,16.09,16.09,0,0,0,4.19-1.43,18,18,0,0,0,3.53-2.26,11.75,11.75,0,0,0,2.45-2.69A5,5,0,0,0,121.6,94.1Z"/>
        </g>
      </g>
    </g>
  </g>
</svg>
