<?xml version="1.0" encoding="UTF-8"?><svg id="_レイヤー_1" xmlns="http://www.w3.org/2000/svg" viewBox="0 0 230 90.304"><defs><style>.cls-1{fill:#6a0000;}.cls-1,.cls-2,.cls-3,.cls-4,.cls-5{stroke-width:0px;}.cls-2{fill:#c40018;}.cls-3{fill:#c3ba9b;}.cls-4{fill:#251e1c;}.cls-5{fill:#746957;}</style></defs><polygon class="cls-3" points="75.254 30.101 50.541 54.814 39.234 43.507 24.183 58.558 50.541 84.916 90.304 45.152 75.254 30.101"/><rect class="cls-5" x="16.03" y="70.621" width="37.276" height="7.621" transform="translate(62.785 -2.713) rotate(45)"/><rect class="cls-1" x="44.259" y="30.471" width="8.205" height="17.281" transform="translate(-13.492 45.652) rotate(-45)"/><polygon class="cls-2" points="72.423 27.27 45.152 0 0 45.152 15.051 60.203 45.152 30.101 57.372 42.321 72.423 27.27"/><polygon class="cls-4" points="118.93 19.447 118.93 15.215 99.41 15.215 99.41 19.447 106.654 19.447 106.654 41.216 111.686 41.216 111.686 19.447 118.93 19.447"/><path class="cls-4" d="M132.424,14.872c-7.862,0-12.191,4.076-12.191,11.475v3.737c0,7.4,4.33,11.475,12.191,11.475s12.238-4.076,12.238-11.475v-3.737c0-7.4-4.346-11.475-12.238-11.475ZM139.63,30.084c0,4.9-2.359,7.281-7.211,7.281-4.814,0-7.154-2.382-7.154-7.281v-3.737c0-4.9,2.34-7.281,7.154-7.281,4.852,0,7.211,2.382,7.211,7.281v3.737Z"/><path class="cls-4" d="M157.233,41.559c5.586,0,8.921-2.808,8.921-7.511,0-4.353-2.128-6.504-7.852-7.934-3.357-.839-5.3-1.762-5.3-3.998,0-1.938,1.403-3.05,3.85-3.05,2.506,0,3.986.733,5.226,2.605l3.754-2.682c-1.823-2.732-4.856-4.117-9.018-4.117-5.621,0-8.845,2.64-8.845,7.244,0,4.164,2.364,6.646,7.664,8.049,4.103,1.063,5.489,2.1,5.489,4.112,0,1.153-.55,3.088-4.232,3.088-2.56,0-4.236-.749-5.748-2.577l-3.832,2.65c2.232,2.849,5.301,4.122,9.922,4.122Z"/><polygon class="cls-4" points="186.929 41.216 191.962 41.216 191.962 15.215 186.929 15.215 186.929 25.661 175.015 25.661 175.015 15.215 169.983 15.215 169.983 41.216 175.015 41.216 175.015 29.855 186.929 29.855 186.929 41.216"/><rect class="cls-4" x="198.204" y="15.215" width="5.032" height="26.001"/><polygon class="cls-4" points="225.771 41.216 230 41.216 230 15.215 225.234 15.215 225.234 32.061 213.668 15.215 209.478 15.215 209.478 41.216 214.243 41.216 214.243 24.602 225.771 41.216"/><polygon class="cls-4" points="130.368 49.088 125.544 59.086 120.759 49.088 114.932 49.088 123.029 64.453 123.029 75.089 128.061 75.089 128.061 64.453 136.157 49.088 130.368 49.088"/><path class="cls-4" d="M149.536,75.432c6.417,0,9.95-3.859,9.95-10.866v-15.478h-5.032v15.516c0,4.588-1.517,6.634-4.918,6.634s-4.918-2.046-4.918-6.634v-15.516h-5.033v15.516c0,9.421,6.234,10.828,9.95,10.828Z"/><polygon class="cls-4" points="173.302 63.876 180.084 75.089 186.092 75.089 176.573 59.564 184.495 49.088 178.55 49.088 170.009 60.763 170.009 49.088 164.977 49.088 164.977 75.089 170.009 75.089 170.009 68.214 173.302 63.876"/><polygon class="cls-4" points="194.418 53.32 205.474 53.32 205.474 49.088 189.385 49.088 189.385 75.089 205.474 75.089 205.474 70.895 194.418 70.895 194.418 63.728 204.33 63.728 204.33 59.534 194.418 59.534 194.418 53.32"/><path class="cls-4" d="M111.687,70.362v-21.273h-5.033v21.273c0,4.332-1.182,6.099-4.079,6.099h-3.164v4.194h3.507c5.9,0,8.769-3.367,8.769-10.294Z"/><polygon class="cls-4" points="225.771 75.089 230 75.089 230 49.088 225.234 49.088 225.234 65.935 213.668 49.088 209.478 49.088 209.478 75.089 214.243 75.089 214.243 58.475 225.771 75.089"/></svg>