<svg id="svg_tel" data-name="svg_tel" xmlns="http://www.w3.org/2000/svg" width="522.139" height="57.151" viewBox="0 0 522.139 57.151">
<defs><style>
#svg_tel .fill{fill:#004EA3;}
footer #svg_tel .fill{fill:#1E1E1E;}
</style></defs>
  <g id="グループ_15" data-name="グループ 15" transform="translate(-397.061 -1102)">
    <path id="パス_15" data-name="パス 15" d="M34.457-26.45q0,11.979-3.925,17.733T18.444-2.962q-7.913,0-11.932-5.942T2.493-26.45q0-12.1,3.909-17.843t12.041-5.739q7.913,0,11.963,6T34.457-26.45Zm-22.362,0q0,8.413,1.454,12.057t4.895,3.644q3.378,0,4.879-3.691t1.5-12.01q0-8.413-1.517-12.088t-4.863-3.675q-3.409,0-4.879,3.675T12.095-26.45ZM55.13-49.907q6.568,0,10.587,2.987a9.518,9.518,0,0,1,4.019,8.054,10.525,10.525,0,0,1-1.939,6.24,16.519,16.519,0,0,1-6.255,4.895,22.166,22.166,0,0,1,7.365,5.739,10.692,10.692,0,0,1,2.236,6.552,10.9,10.9,0,0,1-4.41,9.054q-4.41,3.425-11.6,3.425-7.506,0-11.791-3.19a10.6,10.6,0,0,1-4.285-9.039,11.985,11.985,0,0,1,2.08-6.943,17.274,17.274,0,0,1,6.677-5.348,17.133,17.133,0,0,1-5.63-5.286,11.593,11.593,0,0,1-1.72-6.161,9.458,9.458,0,0,1,4.066-7.944Q48.594-49.907,55.13-49.907ZM48-15.754a5.065,5.065,0,0,0,1.877,4.191,7.992,7.992,0,0,0,5.129,1.5,8.022,8.022,0,0,0,5.379-1.548,5.142,5.142,0,0,0,1.783-4.081A5.584,5.584,0,0,0,60.4-19.616a22.717,22.717,0,0,0-5.739-3.894Q48-20.445,48-15.754Zm7.068-27.085a6.016,6.016,0,0,0-3.988,1.267,4.2,4.2,0,0,0-1.517,3.393,5.2,5.2,0,0,0,1.2,3.362,13.237,13.237,0,0,0,4.363,3.049,12.214,12.214,0,0,0,4.285-2.94,5.346,5.346,0,0,0,1.22-3.472,4.132,4.132,0,0,0-1.564-3.409A6.209,6.209,0,0,0,55.068-42.838ZM107.7-26.45q0,11.979-3.925,17.733T91.692-2.962q-7.913,0-11.932-5.942T75.741-26.45q0-12.1,3.909-17.843t12.041-5.739q7.913,0,11.963,6T107.7-26.45Zm-22.362,0q0,8.413,1.454,12.057t4.895,3.644q3.378,0,4.879-3.691t1.5-12.01q0-8.413-1.517-12.088t-4.863-3.675q-3.409,0-4.879,3.675T85.343-26.45Zm58.986,0q0,11.979-3.925,17.733T128.315-2.962q-7.913,0-11.932-5.942T112.365-26.45q0-12.1,3.909-17.843t12.041-5.739q7.913,0,11.963,6T144.329-26.45Zm-22.362,0q0,8.413,1.454,12.057t4.895,3.644q3.378,0,4.879-3.691t1.5-12.01q0-8.413-1.517-12.088t-4.863-3.675q-3.409,0-4.879,3.675T121.967-26.45Zm26.616,9.6v-7.819h16.8v7.819ZM193.744-3.587H184.08V-30.047l.094-4.347.156-4.754q-2.408,2.408-3.347,3.159l-5.254,4.222-4.66-5.817L185.8-49.312h7.944Zm17.264,0,17.17-37.593h-22.55v-8.132h32.808v6.067l-17.3,39.658Zm63.8-22.863q0,11.979-3.925,17.733T258.8-2.962q-7.913,0-11.932-5.942T242.847-26.45q0-12.1,3.909-17.843T258.8-50.032q7.913,0,11.963,6T274.811-26.45Zm-22.362,0q0,8.413,1.454,12.057t4.895,3.644q3.378,0,4.879-3.691t1.5-12.01q0-8.413-1.517-12.088T258.8-42.213q-3.409,0-4.879,3.675T252.449-26.45Zm26.616,9.6v-7.819h16.8v7.819ZM316.971-32.8q6.63,0,10.556,3.722t3.925,10.2q0,7.663-4.723,11.791T313.218-2.962q-7.631,0-12.323-2.471v-8.351a25.579,25.579,0,0,0,5.755,2.142,25.462,25.462,0,0,0,6.224.829q8.851,0,8.851-7.256,0-6.912-9.164-6.912a22.755,22.755,0,0,0-3.659.328,26.774,26.774,0,0,0-3.253.7L301.8-26.012l1.72-23.3h24.8v8.194H312l-.844,8.976,1.095-.219A21.528,21.528,0,0,1,316.971-32.8Zm43.88,29.212h-9.664V-30.047l.094-4.347.156-4.754q-2.408,2.408-3.346,3.159l-5.254,4.222-4.66-5.817,14.731-11.728h7.944ZM405.294-26.45q0,11.979-3.925,17.733T389.28-2.962q-7.913,0-11.932-5.942T373.33-26.45q0-12.1,3.91-17.843t12.041-5.739q7.913,0,11.963,6T405.294-26.45Zm-22.362,0q0,8.413,1.454,12.057t4.895,3.644q3.378,0,4.879-3.691t1.5-12.01q0-8.413-1.517-12.088t-4.863-3.675q-3.409,0-4.879,3.675T382.931-26.45ZM443.2-13.064h-5.5v9.477H428.25v-9.477H408.734v-6.724l20.048-29.524H437.7V-20.57h5.5ZM428.25-20.57v-7.756q0-1.939.156-5.63t.25-4.285h-.25a34.874,34.874,0,0,1-2.784,5L417.241-20.57Z" transform="translate(476 1157.032)" fill="#1750a1"/>
    <g id="グループ_11" data-name="グループ 11" transform="translate(397.061 1102)">
      <g id="グループ_10" data-name="グループ 10" transform="translate(0 0)" clip-path="url(#clip-path)">
        <path id="パス_17" data-name="パス 17" d="M91.351,46.223h7.833a1.022,1.022,0,1,0,0-2.044H91.351a1.022,1.022,0,1,0,0,2.044" transform="translate(-39.567 -19.352)" fill="#1750a2"/>
        <path id="パス_18" data-name="パス 18" d="M70.164,68.383H78a1.022,1.022,0,1,0,0-2.044H70.164a1.022,1.022,0,1,0,0,2.044" transform="translate(-30.286 -29.059)" fill="#1750a2"/>
        <path id="パス_19" data-name="パス 19" d="M55.05,37.207H48.289a1.022,1.022,0,1,0,0,2.044h5.7c-.238,3.2-1.673,4.965-5.014,6.328a1.022,1.022,0,0,0,.773,1.893c4.43-1.809,6.322-4.573,6.322-9.242a1.025,1.025,0,0,0-1.022-1.023" transform="translate(-20.704 -16.298)" fill="#1750a2"/>
        <path id="パス_20" data-name="パス 20" d="M54.972,59.918H48.289a1.021,1.021,0,1,0,0,2.042h5.664v5.025H48.289a1.022,1.022,0,1,0,0,2.044h6.682a1.021,1.021,0,0,0,1.023-1.023V60.939a1.02,1.02,0,0,0-1.023-1.021" transform="translate(-20.704 -26.246)" fill="#1750a2"/>
        <path id="パス_21" data-name="パス 21" d="M70.909,42.555V37.407a1.021,1.021,0,1,0-2.041,0v5.148a1.021,1.021,0,1,0,2.041,0" transform="translate(-30.167 -15.938)" fill="#1750a2"/>
        <path id="パス_22" data-name="パス 22" d="M73.06,47.174c4.908-.8,5.772-3.1,5.772-7.613V37.408a1.02,1.02,0,1,0-2.04,0v2.153c0,3.94-.479,5.012-4.061,5.6a1.021,1.021,0,0,0,.329,2.015" transform="translate(-31.484 -15.939)" fill="#1750a2"/>
        <path id="パス_23" data-name="パス 23" d="M91.513,60.119c0,3.743-.2,5.914-1.344,8.136a1.022,1.022,0,1,0,1.819.935c1.458-2.834,1.572-5.547,1.572-9.071a1.023,1.023,0,0,0-2.046,0" transform="translate(-39.447 -25.887)" fill="#1750a2"/>
        <path id="パス_24" data-name="パス 24" d="M103.4,62.865a1.02,1.02,0,0,0-1.238.744,5.7,5.7,0,0,1-2.138,3.466V59.708a1.021,1.021,0,1,0-2.042,0v8.833a1.014,1.014,0,0,0,.356.775,1.028,1.028,0,0,0,.816.237c2.358-.349,4.224-2.386,4.987-5.45a1.018,1.018,0,0,0-.741-1.238" transform="translate(-42.921 -25.707)" fill="#1750a2"/>
        <path id="パス_25" data-name="パス 25" d="M64.161,10.842C57.369,4.052,46.819,0,35.939,0,16.122,0,0,13.085,0,29.171A17.478,17.478,0,0,0,2.832,38.83,1.554,1.554,0,0,0,5.4,37.074a14.3,14.3,0,0,1-2.288-7.9c0-14.372,14.73-26.063,32.83-26.063,10.076,0,19.8,3.715,26.022,9.933a22.212,22.212,0,0,1,6.81,15.948c0,12.449-12.1,25.053-35.206,25.053-5.866,0-10.981-1.754-14.037-4.81A10.131,10.131,0,0,1,17.4,46.2l.232.14a1.885,1.885,0,0,0,1.4-.362,12.933,12.933,0,0,0,3.556-7.105c.3-2.751-3.613-3.693-3.06-8.756.242-2.215,3.464-9.334,6.033-11.4,1.694-1.361,3.661-1.376,5.663-1.159,3.157.344,5.69-5.87,5.949-8.236.14-1.3-2-2.924-5.515-3.306a9.2,9.2,0,0,0-6.577,2.217c-4.535,3.548-13.232,19.987-14.092,27.9A9.9,9.9,0,0,0,13.505,43.9l.1.055a12.376,12.376,0,0,0,3.728,7.477c3.688,3.688,9.452,5.72,16.236,5.72,11.366,0,21.1-2.955,28.159-8.541,6.55-5.187,10.155-12.157,10.155-19.62a25.276,25.276,0,0,0-7.718-18.147" transform="translate(0 0)" fill="#1750a2"/>
      </g>
    </g>
  </g>
</svg>
