<svg id="レイヤー_1" data-name="レイヤー 1" xmlns="http://www.w3.org/2000/svg" viewBox="0 0 68 24"><defs><style>.cls-1{fill:#ff64a5;}.cls-2{fill:#fff;}</style></defs><rect class="cls-1" width="68" height="24"/><path class="cls-2" d="M22.56,9l-2,.54c-.31-1.29-1-1.93-2.1-1.93A2.2,2.2,0,0,0,17,8.11a1.36,1.36,0,0,0-.45,1.07A1.53,1.53,0,0,0,17,10.43a4.63,4.63,0,0,0,1.65.71l.63.19a5.59,5.59,0,0,1,2.82,1.47,3,3,0,0,1,.62,2,3.13,3.13,0,0,1-1.22,2.64,4.91,4.91,0,0,1-3,.85,4.93,4.93,0,0,1-3-.86,3.92,3.92,0,0,1-1.43-2.19l2-.62a2.78,2.78,0,0,0,1,1.64,2.34,2.34,0,0,0,1.49.48c1.49,0,2.24-.56,2.24-1.68a1.56,1.56,0,0,0-.49-1.26,5.17,5.17,0,0,0-1.8-.78l-.61-.17a5.46,5.46,0,0,1-2.69-1.49,3.15,3.15,0,0,1-.61-2,2.88,2.88,0,0,1,1.15-2.39,4.4,4.4,0,0,1,2.78-.82A3.92,3.92,0,0,1,22.56,9Z"/><path class="cls-2" d="M27,7V9.74h1.86v1.39H27V15.7q0,1.2,1,1.2a4.52,4.52,0,0,0,1-.1l-.07,1.36a9.27,9.27,0,0,1-1.49.1,2.35,2.35,0,0,1-1.82-.61,2.29,2.29,0,0,1-.49-1.6V11.13H23.86V9.74h1.25V7.45Z"/><path class="cls-2" d="M37.46,14.31H31.83a3,3,0,0,0,.61,2,1.85,1.85,0,0,0,1.49.63c.89,0,1.47-.53,1.75-1.58l1.73.5a3.31,3.31,0,0,1-3.51,2.41,3.67,3.67,0,0,1-3-1.28A4.69,4.69,0,0,1,30,14a4.57,4.57,0,0,1,1.18-3.36,3.48,3.48,0,0,1,2.59-1,3.38,3.38,0,0,1,2.78,1.28,4.82,4.82,0,0,1,.94,3.09Zm-1.87-1.26c-.09-1.45-.7-2.18-1.82-2.18a1.64,1.64,0,0,0-1.41.67,2.79,2.79,0,0,0-.5,1.51Z"/><path class="cls-2" d="M41.21,9.74V11a2.63,2.63,0,0,1,2.33-1.42,2.75,2.75,0,0,1,2.38,1.22,5.31,5.31,0,0,1,.79,3.08,5,5,0,0,1-1.08,3.42,2.79,2.79,0,0,1-2.17,1,2.39,2.39,0,0,1-2.19-1.37V21H39.38V9.74Zm.06,2.71v2.94c.4.93,1,1.4,1.68,1.4a1.5,1.5,0,0,0,1.34-.8,4,4,0,0,0,.47-2.1,3.74,3.74,0,0,0-.56-2.26A1.36,1.36,0,0,0,43.06,11,2,2,0,0,0,41.27,12.45Z"/><path class="cls-2" d="M48.24,9.49a3.77,3.77,0,0,1,6.19-2.28,2.93,2.93,0,0,1,.83,2.2,3.63,3.63,0,0,1-.57,1.95,11.61,11.61,0,0,1-1.76,2,12.75,12.75,0,0,0-2.82,3.21h5.2v1.52H48.14V16.71a15.31,15.31,0,0,1,3.31-4.29A8.91,8.91,0,0,0,53,10.63,2.39,2.39,0,0,0,53.3,9.4a1.61,1.61,0,0,0-.47-1.24,1.48,1.48,0,0,0-1-.37c-1,0-1.55.7-1.64,2.1Z"/></svg>