<?xml version="1.0" encoding="UTF-8"?>
<svg id="_レイヤー_2" data-name="レイヤー 2" xmlns="http://www.w3.org/2000/svg" viewBox="0 0 64.51 71.17">
  <defs>
    <style>
      .cls-1 {
        fill: #3c3c3c;
      }

      .cls-2 {
        fill: #231815;
      }

      .cls-3 {
        fill: #fff;
      }
    </style>
  </defs>
  <g id="_レイヤー_1-2" data-name="レイヤー 1">
    <g>
      <g>
        <g>
          <polygon class="cls-3" points="32.26 43.57 36.64 44.22 39.83 39.89 39.83 36.1 39.69 35.74 32.26 32.41 24.83 35.74 24.68 36.1 24.68 39.89 27.87 44.22 32.26 43.57"/>
          <path class="cls-3" d="M29.94,44.57c.32.32,2.31.92,2.31,5.24,0-4.32,1.99-4.92,2.31-5.24s.93-.93,1.02-2.15h0l-3.33,1.25-3.33-1.25h0c.09,1.22.69,1.82,1.02,2.15Z"/>
        </g>
        <path class="cls-3" d="M44.64,18.3l-2.04,2.12-1.26-6.35-3.01-1.81-6.07.65-6.07-.65-3.01,1.81-1.26,6.35-2.04-2.12c-2.86.39-3.53,3.84-2.7,6.82,1.01,3.66,4.99,3.53,4.99,3.53.83,5.82,3.86,10.73,10.09,10.73h0c6.23,0,9.26-4.91,10.09-10.73,0,0,3.98.14,4.99-3.53.82-2.98.16-6.43-2.7-6.82Z"/>
        <path class="cls-3" d="M59.92,47.98c-1.29-3.48-5.84-3.66-5.85-3.66,0,0,4.56.17,5.85,3.66Z"/>
        <path class="cls-3" d="M42.35,39.89h0l-2.52-3.79s-1.07,3.46-3.45,4.64c0,0-.71.47-.8,1.69-.09,1.22-.69,1.82-1.02,2.15s-2.31.92-2.31,5.24c0-4.32-1.99-4.92-2.31-5.24s-.93-.93-1.02-2.15c-.09-1.22-.8-1.69-.8-1.69-2.37-1.18-3.45-4.64-3.45-4.64l-2.52,3.79s-6.89,2.22-11.73,4.43c0,0,2.19,4.34,2.19,10.98v13.81c5.01.87,11.56,1.57,19.63,1.57h0c8.07,0,14.62-.71,19.63-1.57v-13.81c0-6.64,2.18-10.98,2.18-10.98-4.83-2.21-11.73-4.43-11.73-4.43Z"/>
        <g>
          <path class="cls-3" d="M54.07,44.32c-4.83-2.21-11.73-4.43-11.73-4.43h0l-2.52-3.79s-1.07,3.46-3.45,4.64c0,0-.71.47-.8,1.69-.09,1.22-.69,1.82-1.02,2.15s-2.31.92-2.31,5.24c0-4.32-1.99-4.92-2.31-5.24s-.93-.93-1.02-2.15c-.09-1.22-.8-1.69-.8-1.69-2.37-1.18-3.45-4.64-3.45-4.64l-2.52,3.79s-6.89,2.22-11.73,4.43"/>
          <path class="cls-1" d="M32.26,50.46c-.36,0-.65-.29-.65-.65,0-3.37-1.26-4.19-1.8-4.54-.12-.08-.23-.15-.33-.24-.36-.36-1.1-1.1-1.2-2.56-.06-.86-.51-1.19-.52-1.21-1.62-.8-2.67-2.58-3.22-3.78l-1.83,2.76c-.08.12-.2.21-.34.26-.07.02-6.92,2.24-11.66,4.41-.32.15-.71,0-.86-.32s0-.71.32-.86c4.33-1.98,10.37-3.99,11.58-4.39l2.39-3.6c.14-.21.38-.31.63-.28.25.04.45.21.53.45,0,.03,1.03,3.21,3.12,4.25.17.11,1.05.73,1.16,2.22.07.98.53,1.43.83,1.74.02.01.06.04.12.08.39.25,1.18.76,1.74,2.02.56-1.25,1.35-1.76,1.74-2.02.05-.04.1-.06.13-.09.29-.29.74-.75.81-1.72.11-1.49.99-2.11,1.09-2.18,2.16-1.08,3.18-4.26,3.19-4.29.07-.24.28-.41.53-.45.25-.03.49.07.63.28l2.39,3.6c1.34.44,7.25,2.41,11.58,4.39.32.15.47.53.32.86-.15.33-.53.47-.86.32-4.74-2.17-11.59-4.38-11.66-4.41-.14-.04-.26-.14-.34-.26l-1.83-2.76c-.56,1.2-1.62,3-3.3,3.83h0s-.39.34-.45,1.16c-.1,1.46-.84,2.2-1.2,2.55-.1.1-.2.17-.33.25-.54.35-1.8,1.17-1.8,4.54,0,.36-.29.65-.65.65Z"/>
        </g>
        <path class="cls-3" d="M10.44,44.32s-4.55.17-5.85,3.66c0,0-3.31,8.47-3.94,18,0,0,4.06,1.76,11.98,3.13v-13.81c0-6.64-2.19-10.98-2.19-10.98Z"/>
        <path class="cls-3" d="M51.89,65.99v3.13c7.91-1.37,11.98-3.13,11.98-3.13-.64-9.54-3.94-18-3.94-18-1.29-3.49-5.85-3.66-5.85-3.66,0,0-2.18,4.34-2.18,10.98"/>
        <g>
          <path class="cls-3" d="M42.6,25.13c0,7.21-2.89,14.26-10.34,14.26h0c-7.46,0-10.34-7.05-10.34-14.26"/>
          <path class="cls-1" d="M32.26,40.03c-8.1,0-10.99-7.7-10.99-14.9,0-.36.29-.65.65-.65s.65.29.65.65c0,6.58,2.55,13.61,9.7,13.61s9.7-7.03,9.7-13.61c0-.36.29-.65.65-.65s.65.29.65.65c0,7.21-2.89,14.9-10.99,14.9Z"/>
        </g>
        <g>
          <path class="cls-3" d="M22.16,28.65s-3.98.14-4.99-3.53c-.82-2.98-.16-6.43,2.7-6.82"/>
          <path class="cls-1" d="M22.03,29.3c-1.6,0-4.61-.82-5.48-4-.62-2.23-.41-4.51.54-5.94.63-.95,1.56-1.54,2.7-1.69.34-.05.68.2.73.55.05.35-.2.68-.55.73-.77.1-1.37.48-1.79,1.12-.75,1.14-.89,3.01-.38,4.89.86,3.12,4.21,3.06,4.35,3.05h.02c.35,0,.64.28.65.62.01.36-.27.65-.62.67-.05,0-.1,0-.15,0Z"/>
        </g>
        <g>
          <path class="cls-3" d="M42.35,28.65s3.98.14,4.99-3.53c.82-2.98.16-6.43-2.7-6.82"/>
          <path class="cls-1" d="M42.48,29.3c-.05,0-.1,0-.15,0-.36-.01-.63-.31-.62-.67.01-.35.3-.62.65-.62.01,0,.02,0,.07,0,.46,0,3.48-.11,4.29-3.05.52-1.88.38-3.75-.37-4.89-.42-.64-1.03-1.02-1.79-1.12-.35-.05-.6-.37-.55-.73s.38-.6.73-.55c1.14.15,2.07.74,2.7,1.69.95,1.44,1.16,3.72.54,5.94-.88,3.18-3.88,4-5.48,4Z"/>
        </g>
        <g>
          <path class="cls-3" d="M24.68,36.1l-2.52,3.79s-6.89,2.22-11.73,4.43c0,0-4.55.17-5.85,3.66,0,0-3.31,8.47-3.94,18"/>
          <path class="cls-1" d="M.65,66.63s-.03,0-.04,0c-.36-.02-.62-.33-.6-.69.63-9.53,3.95-18.11,3.99-18.2,1.31-3.53,5.47-4,6.29-4.06,4.32-1.96,10.27-3.95,11.47-4.34l2.39-3.6c.2-.3.6-.38.9-.18.3.2.38.6.18.9l-2.52,3.79c-.08.12-.2.21-.34.26-.07.02-6.92,2.24-11.66,4.41-.08.04-.16.05-.24.06-.04,0-4.14.21-5.27,3.24-.04.09-3.28,8.5-3.9,17.82-.02.34-.31.6-.64.6Z"/>
        </g>
        <g>
          <path class="cls-3" d="M63.86,65.99c-.64-9.54-3.94-18-3.94-18-1.29-3.49-5.85-3.66-5.85-3.66-4.83-2.21-11.73-4.43-11.73-4.43h0l-2.52-3.79"/>
          <path class="cls-1" d="M63.86,66.63c-.34,0-.62-.26-.64-.6-.62-9.32-3.87-17.73-3.9-17.81-1.13-3.04-5.23-3.25-5.27-3.25-.08,0-.17-.02-.24-.06-4.74-2.17-11.59-4.38-11.66-4.41-.14-.04-.26-.13-.34-.26l-2.52-3.79c-.2-.3-.12-.7.18-.9.3-.2.7-.12.9.18l2.39,3.6c1.33.44,7.15,2.38,11.47,4.34.82.06,4.98.54,6.3,4.07.03.08,3.35,8.66,3.98,18.19.02.36-.25.66-.6.69-.01,0-.03,0-.04,0Z"/>
        </g>
        <g>
          <path class="cls-3" d="M45.24,12.35l-.6,5.95-2.04,2.12-.69-3.48c-2.17,0-5.05-5.32-5.05-5.32-4.56,5.17-14.15,4.76-14.15,4.76l-.8,4.04-2.04-2.12-.6-5.95,12.98-4.44,12.98,4.44Z"/>
          <path class="cls-1" d="M42.6,21.07c-.06,0-.12,0-.18-.03-.23-.07-.41-.26-.45-.49l-.6-3.04c-1.86-.49-3.75-3.33-4.64-4.82-4.22,4.04-11.37,4.35-13.46,4.35h-.02l-.69,3.51c-.05.24-.22.43-.45.49-.23.07-.48,0-.65-.17l-2.04-2.12c-.1-.1-.16-.24-.18-.38l-.6-5.95c-.03-.3.15-.58.43-.68l12.98-4.44c.13-.05.28-.05.42,0l12.98,4.44c.28.1.46.38.43.68l-.6,5.95c-.01.14-.08.28-.18.38l-2.04,2.12c-.12.13-.29.2-.47.2ZM20.49,18.02l1.03,1.07.56-2.82c.06-.31.35-.53.66-.52.1,0,9.34.32,13.64-4.55.14-.16.35-.24.56-.21.21.02.39.15.49.33,1.12,2.07,3.25,4.98,4.48,4.98.31,0,.57.22.63.52l.45,2.27,1.03-1.07.53-5.22-12.29-4.2-12.28,4.2.52,5.22Z"/>
        </g>
        <rect class="cls-1" x="11.98" y="62.59" width="1.29" height="6.53"/>
        <rect class="cls-1" x="51.25" y="62.59" width="1.29" height="6.53"/>
        <path class="cls-1" d="M21.83,31.11c-.36,0-.65-.29-.65-.65v-13.54c0-.36.29-.65.65-.65s.65.29.65.65v13.54c0,.36-.29.65-.65.65Z"/>
        <path class="cls-1" d="M42.68,31.11c-.36,0-.65-.29-.65-.65v-13.54c0-.36.29-.65.65-.65s.65.29.65.65v13.54c0,.36-.29.65-.65.65Z"/>
        <path class="cls-3" d="M32.26,16.39h14.42s.38-15.74-14.42-15.74-14.42,15.74-14.42,15.74h14.42Z"/>
        <g>
          <path class="cls-3" d="M32.26,16.39h14.42s.38-15.74-14.42-15.74-14.42,15.74-14.42,15.74h14.42Z"/>
          <path class="cls-1" d="M46.68,17.03h-28.84c-.35,0-.64-.28-.65-.63,0-.31-.13-7.61,4.55-12.41,2.59-2.65,6.12-3.99,10.51-3.99s7.93,1.34,10.51,3.99c4.68,4.8,4.56,12.1,4.55,12.41,0,.35-.29.63-.65.63ZM46.68,16.38h0,0ZM18.49,15.74h27.53c-.08-1.83-.63-7.22-4.18-10.85-2.33-2.39-5.56-3.6-9.58-3.6s-7.25,1.21-9.58,3.6c-3.54,3.63-4.1,9.02-4.18,10.85Z"/>
        </g>
        <g>
          <path class="cls-3" d="M32.26,17.29c14.45,0,14.82,2.77,14.82,2.77v-4.79s-.37-2.77-14.82-2.77-14.82,2.77-14.82,2.77v4.79s.37-2.77,14.82-2.77Z"/>
          <path class="cls-1" d="M17.43,20.75s-.03,0-.05,0c-.34-.02-.59-.35-.59-.69v-4.79c.11-.87,1.54-3.42,15.47-3.42s15.36,2.55,15.46,3.33v4.87c0,.34-.26.62-.6.64-.34.02-.64-.22-.68-.56,0,0,0,0,0,0-.02,0-1.35-2.22-14.18-2.22s-14.19,2.28-14.21,2.3c-.04.32-.3.52-.62.52ZM32.26,16.64c8.67,0,12.5.99,14.18,1.92v-3.16c-.23-.31-2.14-2.26-14.18-2.26s-13.95,1.95-14.18,2.26v3.16c1.68-.94,5.51-1.92,14.18-1.92Z"/>
        </g>
        <path class="cls-1" d="M32.26,71.17c-.27,0-.48-.22-.48-.48v-19.64c0-.27.22-.48.48-.48s.48.22.48.48v19.64c0,.27-.22.48-.48.48Z"/>
        <g>
          <path class="cls-1" d="M30.63,28.67c-.27,0-.48-.22-.48-.48v-4.02c0-.27.22-.48.48-.48s.48.22.48.48v4.02c0,.27-.22.48-.48.48Z"/>
          <circle class="cls-2" cx="26.89" cy="22.7" r="1.09"/>
          <circle class="cls-2" cx="37.27" cy="22.7" r="1.09"/>
          <g>
            <path class="cls-3" d="M34.97,31.95c0,.76-.76,1.5-2.71,1.5h0c-1.96,0-2.71-.74-2.71-1.5"/>
            <path class="cls-1" d="M32.26,33.93c-2.36,0-3.2-1.03-3.2-1.99,0-.27.22-.48.48-.48s.48.22.48.48c0,.62.88,1.02,2.23,1.02s2.23-.4,2.23-1.02c0-.27.22-.48.48-.48s.48.22.48.48c0,.96-.84,1.99-3.2,1.99Z"/>
          </g>
        </g>
      </g>
      <path class="cls-1" d="M46.83,55.94h-8.31c-.36,0-.65-.29-.65-.65s.29-.65.65-.65h8.31c.36,0,.65.29.65.65s-.29.65-.65.65Z"/>
      <path class="cls-1" d="M26.07,55.94h-8.31c-.36,0-.65-.29-.65-.65s.29-.65.65-.65h8.31c.36,0,.65.29.65.65s-.29.65-.65.65Z"/>
      <path class="cls-1" d="M26.89,12.91c-.36,0-.65-.29-.65-.65V1.65c0-.36.29-.65.65-.65s.65.29.65.65v10.61c0,.36-.29.65-.65.65Z"/>
      <path class="cls-1" d="M37.69,12.91c-.36,0-.65-.29-.65-.65V1.65c0-.36.29-.65.65-.65s.65.29.65.65v10.61c0,.36-.29.65-.65.65Z"/>
    </g>
  </g>
</svg>