<?xml version="1.0" encoding="UTF-8"?>
<svg id="_レイヤー_2" data-name="レイヤー 2" xmlns="http://www.w3.org/2000/svg" viewBox="0 0 64.51 69.61">
  <defs>
    <style>
      .cls-1 {
        fill: #3c3c3c;
      }

      .cls-2 {
        fill: #fff;
      }

      .cls-3 {
        fill: #070001;
      }
    </style>
  </defs>
  <g id="_レイヤー_1-2" data-name="レイヤー 1">
    <g>
      <g>
        <polygon class="cls-2" points="32.26 45.27 36.64 43.15 39.83 38.81 39.83 35.02 39.69 34.66 32.26 31.33 24.83 34.66 24.68 35.02 24.68 38.81 27.87 43.15 32.25 45.27 32.26 45.27"/>
        <path class="cls-2" d="M63.86,64.91s-10.79,4.7-31.61,4.7h0c-20.82,0-31.61-4.7-31.61-4.7.64-9.54,3.94-18,3.94-18,1.3-3.49,5.85-3.66,5.85-3.66,4.83-2.21,11.73-4.43,11.73-4.43l10.09,3.79,10.09-3.79s6.89,2.22,11.73,4.43c0,0,4.55.17,5.85,3.66,0,0,3.31,8.47,3.94,18Z"/>
        <path class="cls-2" d="M24.68,35.02l-2.52,3.79s.52,4.96,2.48,11.16h0c.93-1.44,2.78-3.23,4.42-4.69,1.71-1.52,3.19-2.68,3.19-2.68-5.14-.95-7.57-7.57-7.57-7.57Z"/>
        <path class="cls-2" d="M29.06,45.27c-1.64,1.46-3.49,3.26-4.42,4.69h0c1.16,3.68,2.84,7.8,5.22,11.57.22-7.69.8-13.04.8-13.04-.13-.76-1.6-3.23-1.6-3.23Z"/>
        <path class="cls-2" d="M39.83,35.02s-2.43,6.63-7.57,7.57c0,0,1.49,1.16,3.19,2.68,1.64,1.46,3.49,3.26,4.42,4.69h0c1.96-6.2,2.48-11.16,2.48-11.16l-2.52-3.79Z"/>
        <path class="cls-2" d="M39.87,49.96c-.93-1.44-2.78-3.23-4.42-4.69,0,0-1.47,2.47-1.6,3.23,0,0,.58,5.35.8,13.04,2.37-3.77,4.05-7.89,5.21-11.57h0Z"/>
        <g>
          <path class="cls-2" d="M35.45,45.27c-1.71-1.52-3.19-2.68-3.19-2.68h0s-1.49,1.16-3.19,2.68c0,0,1.47,2.47,1.6,3.23,0,0-.58,5.35-.8,13.04.73,1.16,1.53,2.29,2.4,3.37.87-1.07,1.66-2.21,2.4-3.37-.22-7.69-.8-13.04-.8-13.04.13-.76,1.6-3.23,1.6-3.23Z"/>
          <path class="cls-1" d="M32.26,65.55c-.19,0-.38-.09-.5-.24-.84-1.04-1.66-2.19-2.44-3.43-.07-.11-.1-.23-.1-.36.2-7.04.71-12.19.79-12.98-.12-.43-.72-1.62-1.49-2.92-.06-.1-.1-.23-.1-.34,0-.18.08-.36.22-.48,1.7-1.52,3.21-2.69,3.23-2.7.23-.18.57-.18.8,0,.02.01,1.52,1.19,3.23,2.7.14.12.22.3.22.48,0,.12-.04.24-.1.34-.77,1.3-1.38,2.49-1.49,2.92.08.79.59,5.94.79,12.98,0,.13-.03.25-.1.36-.78,1.24-1.6,2.39-2.44,3.43-.12.15-.31.24-.5.24ZM30.51,61.36c.56.89,1.15,1.73,1.75,2.5.6-.78,1.18-1.62,1.75-2.5-.22-7.46-.78-12.74-.79-12.79,0-.06,0-.12,0-.17.11-.64.84-2,1.41-2.99-1-.87-1.88-1.6-2.37-1.99-.49.39-1.37,1.11-2.37,1.99.57.99,1.3,2.35,1.41,2.99,0,.06.01.12,0,.17,0,.05-.57,5.32-.79,12.79Z"/>
        </g>
        <path class="cls-2" d="M44.64,17.22l-2.04,2.12-1.26-6.35-3.01-1.81-6.07.65-6.07-.65-3.01,1.81-1.26,6.35-2.04-2.12c-2.86.39-3.53,3.84-2.7,6.82,1.01,3.66,4.99,3.53,4.99,3.53.83,5.82,3.87,10.73,10.09,10.73h0c6.23,0,9.26-4.91,10.09-10.73,0,0,3.98.14,4.99-3.53.82-2.98.16-6.43-2.7-6.82Z"/>
        <circle class="cls-3" cx="26.92" cy="22.09" r="1.09"/>
        <circle class="cls-3" cx="37.3" cy="22.09" r="1.09"/>
        <g>
          <path class="cls-2" d="M42.6,24.05c0,7.21-2.89,14.26-10.34,14.26h0c-7.46,0-10.34-7.04-10.34-14.26"/>
          <path class="cls-1" d="M32.26,38.95c-8.1,0-10.99-7.7-10.99-14.9,0-.36.29-.65.65-.65s.65.29.65.65c0,6.58,2.55,13.61,9.7,13.61s9.7-7.03,9.7-13.61c0-.36.29-.65.65-.65s.65.29.65.65c0,7.2-2.89,14.9-10.99,14.9Z"/>
        </g>
        <path class="cls-1" d="M30.66,28.06c-.27,0-.48-.22-.48-.48v-4.02c0-.27.22-.48.48-.48s.48.22.48.48v4.02c0,.27-.22.48-.48.48Z"/>
        <g>
          <path class="cls-2" d="M22.16,27.57s-3.98.14-4.99-3.53c-.82-2.98-.16-6.43,2.7-6.82"/>
          <path class="cls-1" d="M22.04,28.22c-1.6,0-4.61-.82-5.49-4-.62-2.23-.41-4.5.54-5.94.63-.95,1.56-1.54,2.7-1.69.35-.05.68.2.73.55.05.35-.2.68-.55.73-.77.1-1.37.48-1.79,1.12-.75,1.14-.89,3.01-.37,4.89.86,3.11,4.21,3.06,4.35,3.05.32-.01.65.27.66.63.01.36-.27.65-.62.67-.05,0-.1,0-.15,0Z"/>
        </g>
        <g>
          <path class="cls-2" d="M42.35,27.57s3.98.14,4.99-3.53c.82-2.98.16-6.43-2.7-6.82"/>
          <path class="cls-1" d="M42.47,28.22c-.05,0-.1,0-.15,0-.36-.01-.63-.31-.62-.67.01-.36.31-.62.66-.63.15.01,3.49.06,4.35-3.05.52-1.88.38-3.75-.37-4.89-.42-.64-1.03-1.02-1.79-1.12-.35-.05-.6-.37-.55-.73s.37-.61.73-.55c1.14.15,2.07.74,2.7,1.69.95,1.44,1.15,3.72.54,5.94-.88,3.18-3.89,4-5.49,4Z"/>
        </g>
        <g>
          <path class="cls-2" d="M32.25,42.6s-5.71,4.44-7.61,7.37"/>
          <path class="cls-1" d="M24.64,50.61c-.12,0-.24-.03-.35-.1-.3-.19-.38-.59-.19-.89,1.94-2.99,7.52-7.34,7.76-7.53.28-.22.69-.17.91.11.22.28.17.69-.11.91-.06.04-5.65,4.4-7.46,7.21-.12.19-.33.29-.54.29Z"/>
        </g>
        <g>
          <path class="cls-2" d="M24.68,35.02s2.43,6.63,7.57,7.57"/>
          <path class="cls-1" d="M32.25,43.24s-.08,0-.12-.01c-5.44-1-7.96-7.7-8.06-7.99-.12-.33.05-.71.38-.83.33-.12.71.05.83.38.02.06,2.37,6.29,7.08,7.16.35.06.58.4.52.75-.06.31-.33.53-.63.53Z"/>
        </g>
        <g>
          <line class="cls-2" x1="22.16" y1="38.81" x2="24.68" y2="35.02"/>
          <path class="cls-1" d="M22.16,39.46c-.12,0-.25-.03-.36-.11-.3-.2-.38-.6-.18-.9l2.52-3.79c.2-.3.6-.38.9-.18.3.2.38.6.18.9l-2.52,3.79c-.12.19-.33.29-.54.29Z"/>
        </g>
        <g>
          <path class="cls-2" d="M32.26,64.91c-8.45-10.43-10.09-26.1-10.09-26.1"/>
          <path class="cls-1" d="M32.26,65.55c-.19,0-.37-.08-.5-.24-8.47-10.46-10.16-25.79-10.23-26.44-.04-.35.22-.67.57-.71.35-.03.67.22.71.58.02.16,1.72,15.61,9.95,25.76.22.28.18.68-.1.91-.12.1-.26.14-.41.14Z"/>
        </g>
        <g>
          <path class="cls-2" d="M22.16,38.81s-6.89,2.22-11.73,4.43c0,0-4.55.17-5.85,3.66,0,0-3.31,8.47-3.94,18"/>
          <path class="cls-1" d="M.65,65.55s-.03,0-.04,0c-.36-.02-.62-.33-.6-.69.64-9.53,3.95-18.11,3.99-18.2,1.31-3.53,5.47-4,6.29-4.06,4.81-2.18,11.62-4.39,11.69-4.41.34-.11.7.08.81.42.11.34-.08.7-.42.81-.07.02-6.91,2.24-11.66,4.41-.08.04-.16.05-.24.06-.04,0-4.14.21-5.27,3.24-.04.09-3.28,8.5-3.9,17.82-.02.34-.31.6-.64.6Z"/>
        </g>
        <g>
          <path class="cls-2" d="M32.26,42.6s5.71,4.44,7.61,7.37"/>
          <path class="cls-1" d="M39.87,50.61c-.21,0-.42-.1-.54-.29-1.82-2.81-7.41-7.17-7.46-7.21-.28-.22-.33-.62-.11-.91.22-.28.62-.33.91-.11.24.18,5.82,4.54,7.76,7.53.19.3.11.7-.19.89-.11.07-.23.1-.35.1Z"/>
        </g>
        <g>
          <path class="cls-2" d="M39.83,35.02s-2.43,6.63-7.57,7.57"/>
          <path class="cls-1" d="M32.26,43.24c-.31,0-.58-.22-.63-.53-.06-.35.17-.69.52-.75,4.71-.87,7.06-7.1,7.08-7.16.12-.33.5-.51.83-.38.33.12.51.49.38.83-.1.28-2.62,6.98-8.06,7.99-.04,0-.08.01-.12.01Z"/>
        </g>
        <g>
          <line class="cls-2" x1="42.35" y1="38.81" x2="39.83" y2="35.02"/>
          <path class="cls-1" d="M42.35,39.46c-.21,0-.41-.1-.54-.29l-2.52-3.79c-.2-.3-.12-.7.18-.9.3-.2.7-.12.9.18l2.52,3.79c.2.3.12.7-.18.9-.11.07-.23.11-.36.11Z"/>
        </g>
        <g>
          <path class="cls-2" d="M32.26,64.91c8.45-10.43,10.09-26.1,10.09-26.1"/>
          <path class="cls-1" d="M32.25,65.55c-.14,0-.29-.05-.41-.14-.28-.22-.32-.63-.1-.91,8.23-10.15,9.93-25.6,9.95-25.76.04-.36.36-.6.71-.58.35.04.61.36.57.71-.07.65-1.76,15.98-10.23,26.44-.13.16-.31.24-.5.24Z"/>
        </g>
        <g>
          <path class="cls-2" d="M42.35,38.81s6.89,2.22,11.73,4.43c0,0,4.55.17,5.85,3.66,0,0,3.31,8.47,3.94,18"/>
          <path class="cls-1" d="M63.86,65.55c-.34,0-.62-.26-.64-.6-.62-9.32-3.87-17.73-3.9-17.81-1.13-3.04-5.23-3.25-5.27-3.25-.08,0-.17-.02-.24-.06-4.74-2.17-11.59-4.38-11.66-4.41-.34-.11-.53-.47-.42-.81.11-.34.47-.53.81-.42.07.02,6.88,2.23,11.69,4.41.82.06,4.98.54,6.3,4.07.03.08,3.35,8.66,3.98,18.19.02.36-.25.66-.6.69-.01,0-.03,0-.04,0Z"/>
        </g>
        <g>
          <path class="cls-2" d="M54.07,43.24s-2.19,4.34-2.19,10.98"/>
          <path class="cls-1" d="M51.89,54.87c-.36,0-.65-.29-.65-.65,0-6.72,2.16-11.09,2.25-11.27.16-.32.55-.45.87-.29.32.16.45.55.29.87-.02.04-2.12,4.3-2.12,10.69,0,.36-.29.65-.65.65Z"/>
        </g>
        <g>
          <path class="cls-2" d="M19.28,39.79s-1.28,1.45-1.99,4.01c0,0,1.33,1.31,2.52,1.85"/>
          <path class="cls-1" d="M19.8,46.29c-.09,0-.18-.02-.27-.06-1.28-.58-2.65-1.92-2.71-1.98-.17-.17-.23-.41-.17-.63.75-2.67,2.08-4.2,2.13-4.26.24-.27.64-.29.91-.06.27.24.29.64.06.91-.01.01-1.07,1.24-1.75,3.38.43.39,1.29,1.11,2.05,1.46.32.15.47.53.32.85-.11.24-.34.38-.59.38Z"/>
        </g>
        <g>
          <path class="cls-2" d="M42.6,21.17l2.04-3.95.6-5.95c.24-2.34.09-4.64-2-7.01-2.09-2.37-5.31-1.26-5.31-1.26,0,0-2.93-3.91-8.86-1.67-5.93,2.23-10.2,5.79-9.79,9.94l.6,5.95,2.04,3.95s11.91-3.95,14.95-10.63c0,0,3.57,10.63,5.74,10.63Z"/>
          <path class="cls-1" d="M21.91,21.82c-.24,0-.46-.13-.57-.35l-2.04-3.95c-.04-.07-.06-.15-.07-.23l-.6-5.95c-.42-4.15,3.3-8.01,10.2-10.61,5.22-1.97,8.36.59,9.3,1.55,1.03-.24,3.68-.6,5.58,1.56,2.3,2.61,2.4,5.15,2.16,7.5l-.6,5.95c0,.08-.03.16-.07.23l-2.04,3.95c-.11.21-.33.35-.57.35-2.09,0-4.55-5.98-5.87-9.69-3.89,6.05-14.15,9.51-14.61,9.66-.07.02-.14.03-.2.03ZM36.86,9.9s.02,0,.03,0c.27.01.49.19.58.44,1.64,4.88,3.74,9.22,4.81,10.05l1.73-3.35.59-5.83c.24-2.38.02-4.41-1.85-6.52-1.77-2.01-4.5-1.11-4.61-1.07-.26.09-.56,0-.73-.22-.11-.14-2.74-3.48-8.12-1.46-6.22,2.34-9.72,5.81-9.37,9.27l.59,5.83,1.72,3.34c2.29-.84,11.51-4.53,14.04-10.1.11-.23.34-.38.59-.38Z"/>
        </g>
        <g>
          <path class="cls-2" d="M35,31.33c0,.76-.76,1.5-2.71,1.5h0c-1.96,0-2.71-.74-2.71-1.5"/>
          <path class="cls-1" d="M32.28,33.32c-2.36,0-3.2-1.03-3.2-1.99,0-.27.22-.48.48-.48s.48.22.48.48c0,.62.88,1.02,2.23,1.02s2.23-.4,2.23-1.02c0-.27.22-.48.48-.48s.48.22.48.48c0,.96-.84,1.99-3.2,1.99Z"/>
        </g>
      </g>
      <g>
        <path class="cls-2" d="M45.24,39.79s1.28,1.45,1.99,4.01c0,0-1.33,1.31-2.52,1.85"/>
        <path class="cls-1" d="M44.71,46.29c-.25,0-.48-.14-.59-.38-.15-.33,0-.71.32-.85.77-.34,1.62-1.07,2.05-1.46-.67-2.14-1.73-3.37-1.75-3.38-.23-.27-.21-.68.06-.91.27-.24.67-.21.91.06.06.06,1.39,1.59,2.13,4.26.06.23,0,.47-.17.63-.06.06-1.42,1.4-2.71,1.98-.09.04-.18.06-.27.06Z"/>
      </g>
      <g>
        <path class="cls-2" d="M32.26,66.2s8.82-5.65,13.98-18.47c0,0-1.54-2.63-4.62-5.2l-9.35,23.67"/>
        <path class="cls-1" d="M32.26,66.84s-.04,0-.05,0c-.19-.01-.38-.12-.49-.29-.13-.2-.13-.44-.04-.63l9.33-23.62c.08-.19.24-.34.44-.39.2-.05.41,0,.57.13,3.13,2.62,4.7,5.26,4.77,5.37.1.17.12.38.04.57-5.05,12.55-13.45,18.26-14.19,18.74-.11.08-.25.13-.39.13ZM41.87,43.62l-8.16,20.66c2.78-2.33,8.18-7.68,11.8-16.48-.42-.64-1.64-2.38-3.64-4.18Z"/>
      </g>
      <g>
        <path class="cls-2" d="M32.26,66.2s-8.82-5.65-13.98-18.47c0,0,1.54-2.63,4.62-5.2l9.35,23.67Z"/>
        <path class="cls-1" d="M32.26,66.84c-.12,0-.24-.03-.35-.1-.37-.24-9.05-5.91-14.23-18.77-.07-.19-.06-.4.04-.57.07-.11,1.64-2.75,4.77-5.37.16-.13.37-.18.57-.13.2.05.37.2.44.39l9.35,23.67c.1.26.03.56-.19.74-.12.1-.26.15-.41.15ZM19,47.8c3.62,8.8,9.02,14.15,11.8,16.48l-8.17-20.66c-1.99,1.8-3.21,3.54-3.64,4.18Z"/>
      </g>
    </g>
  </g>
</svg>