<?xml version="1.0" encoding="UTF-8"?>
<svg id="_レイヤー_2" data-name="レイヤー 2" xmlns="http://www.w3.org/2000/svg" viewBox="0 0 52.16 71.22">
  <defs>
    <style>
      .cls-1 {
        fill: #231815;
      }

      .cls-2, .cls-3, .cls-4, .cls-5, .cls-6 {
        fill: #fff;
      }

      .cls-3, .cls-4, .cls-5 {
        stroke: #3c3c3c;
        stroke-linejoin: round;
      }

      .cls-3, .cls-5, .cls-6 {
        stroke-width: 1.29px;
      }

      .cls-4 {
        stroke-width: .97px;
      }

      .cls-4, .cls-5 {
        stroke-linecap: round;
      }

      .cls-6 {
        stroke: #231815;
        stroke-miterlimit: 10;
      }
    </style>
  </defs>
  <g id="_レイヤー_" data-name="&amp;lt;レイヤー&amp;gt;">
    <g>
      <g>
        <path class="cls-5" d="M38.52,24.62c3.18-15.43-9.16-19.41-12.46-19.41s-6.02,2.15-6.02,2.15c0,0-9.33,3.73-6.43,17.25h24.91Z"/>
        <polygon class="cls-2" points="32.5 37.74 32.5 37.73 32.5 37.75 32.5 37.74"/>
        <polygon class="cls-2" points="32.5 37.73 32.5 37.73 32.5 37.74 32.5 37.73"/>
        <path class="cls-5" d="M25.98,53.47h.09c13.38,0,17.38-9.53,17.39-9.55-4.57-1.86-9.91-3.5-9.91-3.5l-1.05-2.68h-12.76s-1.24,2.68-1.24,2.68c0,0-5.34,1.64-9.91,3.5,0,0,4,9.55,17.39,9.55Z"/>
        <path class="cls-2" d="M49.29,48.52c-1.15-3.54-3.65-3.66-3.65-3.66-.69-.31-1.42-.63-2.18-.94,0,.02-4.01,9.55-17.39,9.55h-.09c-13.39,0-17.39-9.55-17.39-9.55-.76.31-1.5.62-2.18.94,0,0-2.5.12-3.65,3.66-1.18,3.62-2.11,10.29-2.11,18,0,0,4.52,4.7,25.34,4.7s25.42-4.7,25.42-4.7c0-7.71-.93-14.39-2.11-18Z"/>
        <path class="cls-2" d="M26.96,48.08c0,.51-.41.91-.92.91s-.92-.41-.92-.91.41-.92.92-.92.92.41.92.92Z"/>
        <path class="cls-2" d="M23.84,47.42c0,.51-.41.91-.92.91s-.92-.41-.92-.91.41-.92.92-.92.92.41.92.92Z"/>
        <path class="cls-2" d="M21.09,46.04c0,.51-.41.91-.92.91s-.92-.41-.92-.91.41-.92.92-.92.92.41.92.92Z"/>
        <g>
          <path class="cls-2" d="M18.24,43.14c.08.14.14.29.14.46,0,.51-.41.91-.92.91-.17,0-.32-.06-.46-.14.16.27.44.46.78.46.51,0,.92-.41.92-.91,0-.34-.19-.62-.46-.78Z"/>
          <path class="cls-1" d="M18.38,43.6c0-.17-.06-.32-.14-.46-.14-.08-.29-.14-.45-.14-.51,0-.92.41-.92.92,0,.17.06.32.14.45.14.08.29.14.46.14.51,0,.92-.41.92-.91Z"/>
        </g>
        <g>
          <path class="cls-2" d="M20.63,45.26c.08.14.14.29.14.46,0,.51-.41.91-.92.91-.17,0-.32-.06-.46-.14.16.27.44.46.78.46.51,0,.92-.41.92-.91,0-.34-.19-.62-.46-.78Z"/>
          <path class="cls-1" d="M20.77,45.72c0-.17-.06-.32-.14-.46-.14-.08-.29-.14-.45-.14-.51,0-.92.41-.92.92,0,.17.06.32.14.45.14.08.29.14.46.14.51,0,.92-.41.92-.91Z"/>
        </g>
        <g>
          <path class="cls-2" d="M23.38,46.65c.08.14.14.29.14.46,0,.51-.41.91-.92.91-.17,0-.32-.06-.46-.14.16.27.44.46.78.46.51,0,.92-.41.92-.91,0-.34-.19-.62-.46-.78Z"/>
          <path class="cls-1" d="M23.52,47.1c0-.17-.06-.32-.14-.46-.14-.08-.29-.14-.45-.14-.51,0-.92.41-.92.92,0,.17.06.32.14.45.14.08.29.14.46.14.51,0,.92-.41.92-.91Z"/>
        </g>
        <g>
          <path class="cls-2" d="M26.5,47.3c.08.14.14.29.14.46,0,.51-.41.91-.92.91-.17,0-.32-.06-.46-.14.16.27.44.46.78.46.51,0,.92-.41.92-.91,0-.34-.19-.62-.46-.78Z"/>
          <path class="cls-1" d="M26.64,47.76c0-.17-.06-.32-.14-.46-.14-.08-.29-.14-.45-.14-.51,0-.92.41-.92.92,0,.17.06.32.14.45.14.08.29.14.46.14.51,0,.92-.41.92-.91Z"/>
        </g>
        <path class="cls-2" d="M28.21,47.42c0,.51.41.91.92.91s.92-.41.92-.91-.41-.92-.92-.92-.92.41-.92.92Z"/>
        <path class="cls-2" d="M30.97,46.04c0,.51.41.91.92.91s.92-.41.92-.91-.41-.92-.92-.92-.92.41-.92.92Z"/>
        <path class="cls-2" d="M33.35,43.92c0,.51.41.91.92.91s.92-.41.92-.91-.41-.92-.92-.92-.92.41-.92.92Z"/>
        <g>
          <path class="cls-2" d="M29.58,46.65c.08.14.14.29.14.46,0,.51-.41.91-.92.91-.17,0-.32-.06-.46-.14.16.27.44.46.78.46.51,0,.92-.41.92-.91,0-.34-.19-.62-.46-.78Z"/>
          <path class="cls-1" d="M29.72,47.1c0-.17-.06-.32-.14-.46-.14-.08-.29-.14-.45-.14-.51,0-.92.41-.92.92,0,.17.06.32.14.45.14.08.29.14.46.14.51,0,.92-.41.92-.91Z"/>
        </g>
        <g>
          <path class="cls-2" d="M32.34,45.26c.08.14.14.29.14.46,0,.51-.41.91-.92.91-.17,0-.32-.06-.46-.14.16.27.44.46.78.46.51,0,.92-.41.92-.91,0-.34-.19-.62-.46-.78Z"/>
          <path class="cls-1" d="M32.47,45.71c0-.17-.06-.32-.14-.46-.14-.08-.29-.14-.45-.14-.51,0-.92.41-.92.92,0,.17.06.32.14.45.14.08.29.14.46.14.51,0,.92-.41.92-.91Z"/>
        </g>
        <g>
          <path class="cls-2" d="M34.72,43.14c.08.14.14.29.14.46,0,.51-.41.91-.92.91-.17,0-.32-.06-.46-.14.16.27.44.46.78.46.51,0,.92-.41.92-.91,0-.34-.19-.62-.46-.78Z"/>
          <path class="cls-1" d="M34.86,43.6c0-.17-.06-.32-.14-.46-.14-.08-.29-.14-.45-.14-.51,0-.92.41-.92.92,0,.17.06.32.14.45.14.08.29.14.46.14.51,0,.92-.41.92-.91Z"/>
        </g>
        <g>
          <path class="cls-2" d="M13.06,42.23c-1.43.51-2.99,1.08-4.46,1.68-.76.31-1.5.62-2.18.94,0,0-2.5.12-3.65,3.66-1.18,3.62-2.11,10.29-2.11,18,0,0,2.32,2.41,11.29,3.78-.64-9.22-.24-16.74.25-21.68.4-4.07.87-6.38.87-6.39Z"/>
          <path class="cls-2" d="M51.41,66.52c0-7.71-.93-14.39-2.11-18-1.15-3.54-3.65-3.66-3.65-3.66-.69-.31-1.42-.63-2.18-.94-1.48-.6-3.03-1.18-4.46-1.68,0,.02.47,2.33.87,6.38.49,4.93.89,12.45.25,21.67,8.93-1.37,11.29-3.77,11.29-3.77Z"/>
        </g>
        <path class="cls-6" d="M30.56,5.21c0,2.52-2.04,4.57-4.57,4.57s-4.57-2.04-4.57-4.57S23.47.65,25.99.65s4.57,2.04,4.57,4.57Z"/>
        <path class="cls-5" d="M.65,66.52c0-7.71.93-14.39,2.11-18,1.15-3.54,3.65-3.66,3.65-3.66,4.83-2.21,12.09-4.43,12.09-4.43l1.24-2.67"/>
        <path class="cls-5" d="M51.51,66.45c-.06-7.71-1.04-14.38-2.24-17.99-1.18-3.53-3.68-3.63-3.68-3.63-4.85-2.18-12.12-4.35-12.12-4.35l-1.27-2.66"/>
        <path class="cls-5" d="M15.65,24.01c-2.74.37-3.7,1.65-3.71,3.68-.03,4.83,4.66,5.83,4.66,5.83h18.87s4.69-1,4.66-5.83c-.01-2.03-.97-3.31-3.71-3.68H15.65Z"/>
        <path class="cls-5" d="M36.45,24.01c-10.73-1.24-16.41-9.82-16.41-9.82,0,0-3.28,2.72-4.35,8.31v4.09c0,6.91,2.9,12.97,10.38,12.97h0c7.48,0,10.38-6.05,10.38-12.97v-2.58Z"/>
        <path class="cls-3" d="M13.06,42.23s-2.28,11.23-1.12,28.07"/>
        <path class="cls-3" d="M39,42.23s2.28,11.23,1.12,28.07"/>
        <path class="cls-5" d="M39.87,48.62c-2.67,2.41-7.04,4.85-13.8,4.85h-.09c-6.77,0-11.14-2.44-13.8-4.85"/>
        <path class="cls-5" d="M6.41,44.86s2.18,4.34,2.18,10.98"/>
        <path class="cls-5" d="M45.64,44.86s-2.19,4.34-2.19,10.98"/>
        <path class="cls-5" d="M11.92,51.73s2.4,1.96,5.16,2.95"/>
        <path class="cls-5" d="M40.21,51.73s-2.4,1.96-5.16,2.95"/>
      </g>
      <g>
        <circle class="cls-1" cx="20.4" cy="24.63" r="1.09"/>
        <circle class="cls-1" cx="30.78" cy="24.63" r="1.09"/>
        <line class="cls-4" x1="24.51" y1="26.46" x2="24.51" y2="29.38"/>
        <path class="cls-4" d="M28.74,33.4c0,.76-.76,1.5-2.71,1.5h0c-1.96,0-2.71-.74-2.71-1.5"/>
      </g>
    </g>
  </g>
</svg>