<?xml version="1.0" encoding="UTF-8"?>
<svg id="_レイヤー_2" data-name="レイヤー 2" xmlns="http://www.w3.org/2000/svg" viewBox="0 0 52.16 71.22">
  <defs>
    <style>
      .cls-1 {
        fill: #3c3c3c;
      }

      .cls-2 {
        fill: #231815;
      }

      .cls-3 {
        fill: #fff;
      }
    </style>
  </defs>
  <g id="_レイヤー_1-2" data-name="レイヤー 1">
    <g>
      <g>
        <g>
          <path class="cls-3" d="M38.52,24.62c3.18-15.43-9.16-19.41-12.46-19.41s-6.02,2.15-6.02,2.15c0,0-9.33,3.73-6.43,17.25h24.91Z"/>
          <path class="cls-1" d="M38.52,25.26H13.61c-.3,0-.57-.21-.63-.51-2.82-13.16,5.73-17.49,6.73-17.95.47-.35,3.12-2.24,6.35-2.24,2.29,0,7.13,1.48,10.37,5.45,3.05,3.74,3.97,8.7,2.72,14.73-.06.3-.33.52-.63.52ZM14.14,23.97h23.85c1.01-5.4.15-9.82-2.56-13.14-3.07-3.76-7.63-4.98-9.37-4.98-3.03,0-5.6,1.99-5.62,2.01-.05.04-.1.07-.16.09-.35.14-8.56,3.63-6.14,16.01Z"/>
        </g>
        <polygon class="cls-3" points="32.5 37.74 32.5 37.73 32.5 37.75 32.5 37.74"/>
        <polygon class="cls-3" points="32.5 37.73 32.5 37.73 32.5 37.74 32.5 37.73"/>
        <g>
          <path class="cls-3" d="M25.98,53.47h.09c13.38,0,17.38-9.53,17.39-9.55-4.57-1.86-9.91-3.5-9.91-3.5l-1.05-2.68h-12.76s-1.24,2.68-1.24,2.68c0,0-5.34,1.64-9.91,3.5,0,0,4,9.55,17.39,9.55Z"/>
          <path class="cls-1" d="M26.07,54.12h-.09c-13.21,0-18.04-9.41-18.04-10.2,0-.26.16-.5.4-.6,3.95-1.61,8.53-3.07,9.69-3.43l1.12-2.41c.11-.23.33-.37.58-.37h12.76s0-.01,0-.01c.27,0,.5.16.6.41l.94,2.4c1.19.37,5.74,1.83,9.67,3.42.33.13.49.5.36.83-.04.1-4.26,9.96-17.99,9.96ZM9.49,44.25c1.13,2.02,5.63,8.57,16.5,8.57h.09c10.86,0,15.37-6.55,16.5-8.57-4.34-1.72-9.16-3.2-9.21-3.22-.19-.06-.34-.2-.41-.38l-.89-2.27h-11.91s-1.07,2.31-1.07,2.31c-.08.17-.22.29-.4.34-.05.02-4.87,1.5-9.2,3.22Z"/>
        </g>
        <path class="cls-3" d="M49.29,48.51c-1.15-3.54-3.65-3.66-3.65-3.66-.69-.31-1.42-.63-2.18-.94,0,.02-4.01,9.55-17.39,9.55h-.09c-13.39,0-17.39-9.55-17.39-9.55-.76.31-1.5.62-2.18.94,0,0-2.5.12-3.65,3.66-1.18,3.62-2.11,10.29-2.11,18,0,0,4.52,4.7,25.34,4.7s25.42-4.7,25.42-4.7c0-7.71-.93-14.39-2.11-18Z"/>
        <path class="cls-3" d="M26.96,48.08c0,.51-.41.91-.92.91s-.92-.41-.92-.91.41-.92.92-.92.92.41.92.92Z"/>
        <path class="cls-3" d="M23.84,47.42c0,.51-.41.91-.92.91s-.92-.41-.92-.91.41-.92.92-.92.92.41.92.92Z"/>
        <path class="cls-3" d="M21.09,46.04c0,.51-.41.91-.92.91s-.92-.41-.92-.91.41-.92.92-.92.92.41.92.92Z"/>
        <g>
          <path class="cls-3" d="M18.24,43.14c.08.14.14.29.14.46,0,.51-.41.91-.92.91-.17,0-.32-.06-.46-.14.16.27.44.46.78.46.51,0,.92-.41.92-.91,0-.34-.19-.62-.46-.78Z"/>
          <path class="cls-2" d="M18.38,43.6c0-.17-.06-.32-.14-.46-.14-.08-.29-.14-.45-.14-.51,0-.92.41-.92.92,0,.17.06.32.14.45.14.08.29.14.46.14.51,0,.92-.41.92-.91Z"/>
        </g>
        <g>
          <path class="cls-3" d="M20.63,45.26c.08.14.14.29.14.46,0,.51-.41.91-.92.91-.17,0-.32-.06-.46-.14.16.27.44.46.78.46.51,0,.92-.41.92-.91,0-.34-.19-.62-.46-.78Z"/>
          <path class="cls-2" d="M20.77,45.72c0-.17-.06-.32-.14-.46-.14-.08-.29-.14-.45-.14-.51,0-.92.41-.92.92,0,.17.06.32.14.45.14.08.29.14.46.14.51,0,.92-.41.92-.91Z"/>
        </g>
        <g>
          <path class="cls-3" d="M23.38,46.65c.08.14.14.29.14.46,0,.51-.41.91-.92.91-.17,0-.32-.06-.46-.14.16.27.44.46.78.46.51,0,.92-.41.92-.91,0-.34-.19-.62-.46-.78Z"/>
          <path class="cls-2" d="M23.52,47.1c0-.17-.06-.32-.14-.46-.14-.08-.29-.14-.45-.14-.51,0-.92.41-.92.92,0,.17.06.32.14.45.14.08.29.14.46.14.51,0,.92-.41.92-.91Z"/>
        </g>
        <g>
          <path class="cls-3" d="M26.5,47.3c.08.14.14.29.14.46,0,.51-.41.91-.92.91-.17,0-.32-.06-.46-.14.16.27.44.46.78.46.51,0,.92-.41.92-.91,0-.34-.19-.62-.46-.78Z"/>
          <path class="cls-2" d="M26.64,47.76c0-.17-.06-.32-.14-.46-.14-.08-.29-.14-.45-.14-.51,0-.92.41-.92.92,0,.17.06.32.14.45.14.08.29.14.46.14.51,0,.92-.41.92-.91Z"/>
        </g>
        <path class="cls-3" d="M28.21,47.42c0,.51.41.91.92.91s.92-.41.92-.91-.41-.92-.92-.92-.92.41-.92.92Z"/>
        <path class="cls-3" d="M30.97,46.04c0,.51.41.91.92.91s.92-.41.92-.91-.41-.92-.92-.92-.92.41-.92.92Z"/>
        <path class="cls-3" d="M33.35,43.92c0,.51.41.91.92.91s.92-.41.92-.91-.41-.92-.92-.92-.92.41-.92.92Z"/>
        <g>
          <path class="cls-3" d="M29.58,46.65c.08.14.14.29.14.46,0,.51-.41.91-.92.91-.17,0-.32-.06-.46-.14.16.27.44.46.78.46.51,0,.92-.41.92-.91,0-.34-.19-.62-.46-.78Z"/>
          <path class="cls-2" d="M29.72,47.1c0-.17-.06-.32-.14-.46-.14-.08-.29-.14-.45-.14-.51,0-.92.41-.92.92,0,.17.06.32.14.45.14.08.29.14.46.14.51,0,.92-.41.92-.91Z"/>
        </g>
        <g>
          <path class="cls-3" d="M32.34,45.26c.08.14.14.29.14.46,0,.51-.41.91-.92.91-.17,0-.32-.06-.46-.14.16.27.44.46.78.46.51,0,.92-.41.92-.91,0-.34-.19-.62-.46-.78Z"/>
          <path class="cls-2" d="M32.47,45.71c0-.17-.06-.32-.14-.46-.14-.08-.29-.14-.45-.14-.51,0-.92.41-.92.92,0,.17.06.32.14.45.14.08.29.14.46.14.51,0,.92-.41.92-.91Z"/>
        </g>
        <g>
          <path class="cls-3" d="M34.72,43.14c.08.14.14.29.14.46,0,.51-.41.91-.92.91-.17,0-.32-.06-.46-.14.16.27.44.46.78.46.51,0,.92-.41.92-.91,0-.34-.19-.62-.46-.78Z"/>
          <path class="cls-2" d="M34.86,43.6c0-.17-.06-.32-.14-.46-.14-.08-.29-.14-.45-.14-.51,0-.92.41-.92.92,0,.17.06.32.14.45.14.08.29.14.46.14.51,0,.92-.41.92-.91Z"/>
        </g>
        <g>
          <path class="cls-3" d="M13.06,42.23c-1.43.51-2.99,1.08-4.46,1.68-.76.31-1.5.62-2.18.94,0,0-2.5.12-3.65,3.66-1.18,3.62-2.11,10.29-2.11,18,0,0,2.32,2.41,11.29,3.78-.64-9.22-.24-16.74.25-21.68.4-4.07.87-6.38.87-6.39Z"/>
          <path class="cls-3" d="M51.41,66.52c0-7.71-.93-14.39-2.11-18-1.15-3.54-3.65-3.66-3.65-3.66-.69-.31-1.42-.63-2.18-.94-1.48-.6-3.03-1.18-4.46-1.68,0,.02.47,2.33.87,6.38.49,4.93.89,12.45.25,21.67,8.93-1.37,11.29-3.77,11.29-3.77Z"/>
        </g>
        <g>
          <path class="cls-3" d="M30.56,5.21c0,2.52-2.04,4.57-4.57,4.57s-4.57-2.04-4.57-4.57S23.47.65,25.99.65s4.57,2.04,4.57,4.57Z"/>
          <path class="cls-2" d="M25.99,10.42c-2.87,0-5.21-2.34-5.21-5.21S23.12,0,25.99,0s5.21,2.34,5.21,5.21-2.34,5.21-5.21,5.21ZM25.99,1.29c-2.16,0-3.92,1.76-3.92,3.92s1.76,3.92,3.92,3.92,3.92-1.76,3.92-3.92-1.76-3.92-3.92-3.92Z"/>
        </g>
        <g>
          <path class="cls-3" d="M.65,66.52c0-7.71.93-14.39,2.11-18,1.15-3.54,3.65-3.66,3.65-3.66,4.83-2.21,12.09-4.43,12.09-4.43l1.24-2.67"/>
          <path class="cls-1" d="M.65,67.17c-.36,0-.65-.29-.65-.65,0-7.17.82-14.14,2.14-18.21,1.13-3.47,3.49-4.01,4.09-4.09,4.28-1.94,10.43-3.91,11.8-4.33l1.12-2.41c.15-.32.53-.46.86-.31.32.15.46.54.31.86l-1.24,2.67c-.08.17-.22.29-.4.34-.07.02-7.28,2.24-12.01,4.4-.07.03-.15.05-.24.06-.08,0-2.08.19-3.07,3.22-1,3.09-2.08,9.39-2.08,17.8,0,.36-.29.65-.65.65Z"/>
        </g>
        <g>
          <path class="cls-3" d="M51.51,66.45c-.06-7.71-1.04-14.38-2.24-17.99-1.18-3.53-3.68-3.63-3.68-3.63-4.85-2.18-12.12-4.35-12.12-4.35l-1.27-2.66"/>
          <path class="cls-1" d="M51.51,67.1c-.35,0-.64-.29-.65-.64-.06-8.43-1.18-14.71-2.21-17.79-1.01-3.02-3.01-3.19-3.1-3.19-.08,0-.16-.02-.23-.06-4.75-2.13-11.97-4.3-12.05-4.33-.17-.05-.32-.18-.4-.34l-1.27-2.66c-.15-.32-.02-.71.3-.86.32-.15.71-.02.86.3l1.15,2.41c1.37.42,7.54,2.34,11.83,4.26.61.08,2.97.6,4.12,4.06,1.35,4.04,2.22,11.01,2.28,18.19,0,.36-.28.65-.64.65h0Z"/>
        </g>
        <g>
          <path class="cls-3" d="M15.65,24.01c-2.74.37-3.7,1.65-3.71,3.68-.03,4.83,4.66,5.83,4.66,5.83h18.87s4.69-1,4.66-5.83c-.01-2.03-.97-3.31-3.71-3.68H15.65Z"/>
          <path class="cls-1" d="M35.46,34.16h-18.87s-.09,0-.13-.01c-.05-.01-5.2-1.17-5.17-6.47.02-2.51,1.41-3.93,4.27-4.31.03,0,.06,0,.09,0h20.76c2.94.4,4.34,1.81,4.36,4.32.03,5.3-5.11,6.46-5.17,6.47-.04,0-.09.01-.13.01ZM16.67,32.87h18.72c.54-.13,4.11-1.18,4.08-5.18,0-1.36-.4-2.67-3.15-3.04H15.69c-2.72.39-3.1,1.69-3.11,3.04-.02,4,3.55,5.05,4.08,5.18Z"/>
        </g>
        <g>
          <path class="cls-3" d="M36.45,24.01c-10.73-1.24-16.41-9.82-16.41-9.82,0,0-3.28,2.72-4.35,8.31v4.09c0,6.91,2.9,12.97,10.38,12.97h0c7.48,0,10.38-6.05,10.38-12.97v-2.58Z"/>
          <path class="cls-1" d="M26.07,40.2c-6.9,0-11.03-5.09-11.03-13.61v-4.09s0-.08.01-.12c1.1-5.75,4.43-8.56,4.58-8.68.14-.12.32-.17.51-.14.18.03.34.13.44.28.06.08,5.65,8.34,15.94,9.53.33.04.57.31.57.64v2.58c0,8.52-4.12,13.61-11.03,13.61ZM16.33,22.56v4.03c0,3.7.95,12.32,9.73,12.32s9.74-8.62,9.74-12.32v-2.01c-8.97-1.26-14.31-7.39-15.84-9.4-.92.98-2.85,3.44-3.62,7.38Z"/>
        </g>
        <g>
          <path class="cls-3" d="M13.06,42.23s-2.28,11.23-1.12,28.07"/>
          <path class="cls-1" d="M11.29,70.34c-1.15-16.72,1.11-28.12,1.13-28.24l1.27.26c-.02.11-2.25,11.36-1.11,27.89l-1.29.09Z"/>
        </g>
        <g>
          <path class="cls-3" d="M39,42.23s2.28,11.23,1.12,28.07"/>
          <path class="cls-1" d="M40.76,70.34l-1.29-.09c1.14-16.54-1.08-27.78-1.11-27.89l1.27-.26c.02.11,2.28,11.51,1.13,28.24Z"/>
        </g>
        <g>
          <path class="cls-3" d="M39.87,48.62c-2.67,2.41-7.04,4.85-13.8,4.85h-.09c-6.77,0-11.14-2.44-13.8-4.85"/>
          <path class="cls-1" d="M26.07,54.12c-7.27,0-11.79-2.73-14.32-5.02-.26-.24-.28-.65-.04-.91.24-.26.65-.28.91-.04,2.36,2.14,6.6,4.69,13.37,4.69s11.09-2.55,13.45-4.69c.26-.24.67-.22.91.04.24.26.22.67-.05.91-2.53,2.29-7.05,5.02-14.23,5.02Z"/>
        </g>
        <g>
          <path class="cls-3" d="M6.41,44.85s2.18,4.34,2.18,10.98"/>
          <path class="cls-1" d="M8.59,56.48c-.36,0-.65-.29-.65-.65,0-6.39-2.09-10.65-2.12-10.69-.16-.32-.03-.71.29-.87.32-.16.71-.03.87.29.09.18,2.25,4.56,2.25,11.27,0,.36-.29.65-.65.65Z"/>
        </g>
        <g>
          <path class="cls-3" d="M45.64,44.85s-2.19,4.34-2.19,10.98"/>
          <path class="cls-1" d="M43.46,56.48c-.36,0-.65-.29-.65-.65,0-6.72,2.16-11.09,2.26-11.27.16-.32.55-.45.87-.29.32.16.45.55.29.87-.02.04-2.12,4.3-2.12,10.69,0,.36-.29.65-.65.65Z"/>
        </g>
        <g>
          <path class="cls-3" d="M11.92,51.73s2.4,1.96,5.16,2.95"/>
          <path class="cls-1" d="M17.08,55.33c-.07,0-.15-.01-.22-.04-2.83-1.01-5.25-2.97-5.35-3.06-.28-.23-.32-.63-.09-.91.23-.28.63-.32.91-.09.02.02,2.35,1.91,4.97,2.84.34.12.51.49.39.83-.09.26-.34.43-.61.43Z"/>
        </g>
        <g>
          <path class="cls-3" d="M40.21,51.73s-2.4,1.96-5.16,2.95"/>
          <path class="cls-1" d="M35.05,55.33c-.27,0-.51-.16-.61-.43-.12-.34.05-.71.39-.83,2.62-.94,4.95-2.82,4.97-2.84.28-.23.68-.18.91.09.23.28.18.68-.09.91-.1.08-2.52,2.04-5.35,3.06-.07.03-.15.04-.22.04Z"/>
        </g>
      </g>
      <g>
        <circle class="cls-2" cx="20.4" cy="24.63" r="1.09"/>
        <circle class="cls-2" cx="30.78" cy="24.63" r="1.09"/>
        <path class="cls-1" d="M24.51,29.87c-.27,0-.48-.22-.48-.48v-2.93c0-.27.22-.48.48-.48s.48.22.48.48v2.93c0,.27-.22.48-.48.48Z"/>
        <g>
          <path class="cls-3" d="M28.74,33.4c0,.76-.76,1.5-2.71,1.5h0c-1.96,0-2.71-.74-2.71-1.5"/>
          <path class="cls-1" d="M26.03,35.39c-2.36,0-3.2-1.03-3.2-1.99,0-.27.22-.48.48-.48s.48.22.48.48c0,.62.88,1.02,2.23,1.02s2.23-.4,2.23-1.02c0-.27.22-.48.48-.48s.48.22.48.48c0,.96-.84,1.99-3.2,1.99Z"/>
        </g>
      </g>
    </g>
  </g>
</svg>