<?xml version="1.0" encoding="UTF-8"?>
<svg id="_レイヤー_2" data-name="レイヤー 2" xmlns="http://www.w3.org/2000/svg" viewBox="0 0 64.51 69.61">
  <defs>
    <style>
      .cls-1 {
        fill: #040000;
      }

      .cls-2, .cls-3, .cls-4 {
        fill: #fff;
      }

      .cls-3 {
        stroke-width: .97px;
      }

      .cls-3, .cls-4 {
        stroke: #3c3c3c;
        stroke-linecap: round;
        stroke-linejoin: round;
      }

      .cls-4 {
        stroke-width: 1.29px;
      }
    </style>
  </defs>
  <g id="_レイヤー_" data-name="&amp;lt;レイヤー&amp;gt;">
    <g>
      <g>
        <polygon class="cls-2" points="32.26 45.28 36.64 43.15 39.83 38.82 39.83 35.03 39.69 34.67 32.26 31.34 24.83 34.67 24.68 35.03 24.68 38.82 27.87 43.15 32.25 45.28 32.26 45.28"/>
        <path class="cls-2" d="M63.86,64.91s-10.79,4.7-31.61,4.7h0c-20.82,0-31.61-4.7-31.61-4.7.64-9.54,3.94-18,3.94-18,1.3-3.49,5.85-3.66,5.85-3.66,4.83-2.21,11.73-4.43,11.73-4.43l10.09,3.79,10.09-3.79s6.89,2.22,11.73,4.43c0,0,4.55.17,5.85,3.66,0,0,3.31,8.47,3.94,18Z"/>
        <path class="cls-2" d="M24.68,35.03l-2.52,3.79s.52,4.96,2.48,11.16h0c.93-1.44,2.78-3.23,4.42-4.69,1.71-1.52,3.19-2.68,3.19-2.68-5.14-.95-7.57-7.57-7.57-7.57Z"/>
        <path class="cls-2" d="M29.06,45.28c-1.64,1.46-3.49,3.26-4.42,4.69h0c1.16,3.68,2.84,7.8,5.22,11.57.22-7.69.8-13.04.8-13.04-.13-.76-1.6-3.23-1.6-3.23Z"/>
        <path class="cls-2" d="M39.83,35.03s-2.43,6.63-7.57,7.57c0,0,1.49,1.16,3.19,2.68,1.64,1.46,3.49,3.26,4.42,4.69h0c1.96-6.2,2.48-11.16,2.48-11.16l-2.52-3.79Z"/>
        <path class="cls-2" d="M39.87,49.97c-.93-1.44-2.78-3.23-4.42-4.69,0,0-1.47,2.47-1.6,3.23,0,0,.58,5.35.8,13.04,2.37-3.77,4.05-7.89,5.21-11.57h0Z"/>
        <path class="cls-4" d="M35.45,45.28c-1.71-1.52-3.19-2.68-3.19-2.68h0s-1.49,1.16-3.19,2.68c0,0,1.47,2.47,1.6,3.23,0,0-.58,5.35-.8,13.04.73,1.16,1.53,2.29,2.4,3.37.87-1.07,1.66-2.21,2.4-3.37-.22-7.69-.8-13.04-.8-13.04.13-.76,1.6-3.23,1.6-3.23Z"/>
        <path class="cls-2" d="M44.64,17.23l-2.04,2.12-1.26-6.35-3.01-1.81-6.07.65-6.07-.65-3.01,1.81-1.26,6.35-2.04-2.12c-2.86.39-3.53,3.84-2.7,6.82,1.01,3.66,4.99,3.53,4.99,3.53.83,5.82,3.87,10.73,10.09,10.73h0c6.23,0,9.26-4.91,10.09-10.73,0,0,3.98.14,4.99-3.53.82-2.98.16-6.43-2.7-6.82Z"/>
        <circle class="cls-1" cx="26.92" cy="22.09" r="1.09"/>
        <circle class="cls-1" cx="37.3" cy="22.09" r="1.09"/>
        <path class="cls-4" d="M42.6,24.05c0,7.21-2.89,14.26-10.34,14.26h0c-7.46,0-10.34-7.04-10.34-14.26"/>
        <line class="cls-3" x1="30.66" y1="23.56" x2="30.66" y2="27.58"/>
        <path class="cls-4" d="M22.16,27.58s-3.98.14-4.99-3.53c-.82-2.98-.16-6.43,2.7-6.82"/>
        <path class="cls-4" d="M42.35,27.58s3.98.14,4.99-3.53c.82-2.98.16-6.43-2.7-6.82"/>
        <path class="cls-4" d="M32.25,42.6s-5.71,4.44-7.61,7.37"/>
        <path class="cls-4" d="M24.68,35.03s2.43,6.63,7.57,7.57"/>
        <line class="cls-4" x1="22.16" y1="38.82" x2="24.68" y2="35.03"/>
        <path class="cls-4" d="M32.26,64.91c-8.45-10.43-10.09-26.1-10.09-26.1"/>
        <path class="cls-4" d="M22.16,38.82s-6.89,2.22-11.73,4.43c0,0-4.55.17-5.85,3.66,0,0-3.31,8.47-3.94,18"/>
        <path class="cls-4" d="M32.26,42.6s5.71,4.44,7.61,7.37"/>
        <path class="cls-4" d="M39.83,35.03s-2.43,6.63-7.57,7.57"/>
        <line class="cls-4" x1="42.35" y1="38.82" x2="39.83" y2="35.03"/>
        <path class="cls-4" d="M32.26,64.91c8.45-10.43,10.09-26.1,10.09-26.1"/>
        <path class="cls-4" d="M42.35,38.82s6.89,2.22,11.73,4.43c0,0,4.55.17,5.85,3.66,0,0,3.31,8.47,3.94,18"/>
        <path class="cls-4" d="M54.07,43.25s-2.19,4.34-2.19,10.98"/>
        <path class="cls-4" d="M19.28,39.79s-1.28,1.45-1.99,4.01c0,0,1.33,1.31,2.52,1.85"/>
        <path class="cls-4" d="M42.6,21.18l2.04-3.95.6-5.95c.24-2.34.09-4.64-2-7.01-2.09-2.37-5.31-1.26-5.31-1.26,0,0-2.93-3.91-8.86-1.67-5.93,2.23-10.2,5.79-9.79,9.94l.6,5.95,2.04,3.95s11.91-3.95,14.95-10.63c0,0,3.57,10.63,5.74,10.63Z"/>
        <path class="cls-3" d="M35,31.34c0,.76-.76,1.5-2.71,1.5h0c-1.96,0-2.71-.74-2.71-1.5"/>
      </g>
      <path class="cls-4" d="M45.24,39.79s1.28,1.45,1.99,4.01c0,0-1.33,1.31-2.52,1.85"/>
      <path class="cls-4" d="M32.26,66.2s8.82-5.65,13.98-18.47c0,0-1.54-2.63-4.62-5.2l-9.35,23.67"/>
      <path class="cls-4" d="M32.26,66.2s-8.82-5.65-13.98-18.47c0,0,1.54-2.63,4.62-5.2l9.35,23.67Z"/>
    </g>
  </g>
</svg>