<?xml version="1.0" encoding="UTF-8"?>
<svg id="_レイヤー_2" data-name="レイヤー 2" xmlns="http://www.w3.org/2000/svg" viewBox="0 0 64.51 71.17">
  <defs>
    <style>
      .cls-1 {
        fill: #231815;
      }

      .cls-2, .cls-3, .cls-4, .cls-5 {
        fill: #fff;
      }

      .cls-3, .cls-4, .cls-5 {
        stroke: #3c3c3c;
        stroke-linejoin: round;
      }

      .cls-3, .cls-5 {
        stroke-width: 1.29px;
      }

      .cls-4 {
        stroke-width: .97px;
      }

      .cls-4, .cls-5 {
        stroke-linecap: round;
      }
    </style>
  </defs>
  <g id="_レイヤー_" data-name="&amp;lt;レイヤー&amp;gt;">
    <g>
      <g>
        <g>
          <polygon class="cls-2" points="32.26 43.57 36.64 44.23 39.83 39.89 39.83 36.1 39.69 35.74 32.26 32.41 24.83 35.74 24.68 36.1 24.68 39.89 27.88 44.23 32.26 43.57"/>
          <path class="cls-2" d="M29.94,44.57c.32.32,2.31.92,2.31,5.24,0-4.32,1.99-4.92,2.31-5.24s.93-.93,1.02-2.15h0l-3.33,1.25-3.33-1.25h0c.09,1.22.69,1.82,1.02,2.15Z"/>
        </g>
        <path class="cls-2" d="M44.64,18.3l-2.04,2.12-1.26-6.35-3.01-1.81-6.07.65-6.07-.65-3.01,1.81-1.26,6.35-2.04-2.12c-2.86.39-3.53,3.84-2.7,6.82,1.01,3.66,4.99,3.53,4.99,3.53.83,5.82,3.86,10.73,10.09,10.73h0c6.23,0,9.26-4.91,10.09-10.73,0,0,3.98.14,4.99-3.53.82-2.98.16-6.43-2.7-6.82Z"/>
        <path class="cls-2" d="M59.92,47.98c-1.29-3.48-5.84-3.66-5.85-3.66,0,0,4.56.17,5.85,3.66Z"/>
        <path class="cls-2" d="M42.35,39.89h0l-2.52-3.79s-1.07,3.46-3.45,4.64c0,0-.71.47-.8,1.69-.09,1.22-.69,1.82-1.02,2.15s-2.31.92-2.31,5.24c0-4.32-1.99-4.92-2.31-5.24s-.93-.93-1.02-2.15c-.09-1.22-.8-1.69-.8-1.69-2.37-1.18-3.45-4.64-3.45-4.64l-2.52,3.79s-6.89,2.22-11.73,4.43c0,0,2.19,4.34,2.19,10.98v13.81c5.01.87,11.56,1.57,19.63,1.57h0c8.07,0,14.62-.71,19.63-1.57v-13.81c0-6.64,2.18-10.98,2.18-10.98-4.83-2.21-11.73-4.43-11.73-4.43Z"/>
        <path class="cls-5" d="M54.07,44.32c-4.83-2.21-11.73-4.43-11.73-4.43h0l-2.52-3.79s-1.07,3.46-3.45,4.64c0,0-.71.47-.8,1.69-.09,1.22-.69,1.82-1.02,2.15s-2.31.92-2.31,5.24c0-4.32-1.99-4.92-2.31-5.24s-.93-.93-1.02-2.15c-.09-1.22-.8-1.69-.8-1.69-2.37-1.18-3.45-4.64-3.45-4.64l-2.52,3.79s-6.89,2.22-11.73,4.43"/>
        <path class="cls-2" d="M10.44,44.32s-4.55.17-5.85,3.66c0,0-3.31,8.47-3.94,18,0,0,4.06,1.76,11.98,3.13v-13.81c0-6.64-2.19-10.98-2.19-10.98Z"/>
        <path class="cls-2" d="M51.89,65.99v3.13c7.91-1.37,11.98-3.13,11.98-3.13-.64-9.54-3.94-18-3.94-18-1.29-3.49-5.85-3.66-5.85-3.66,0,0-2.18,4.34-2.18,10.98"/>
        <path class="cls-5" d="M42.6,25.13c0,7.21-2.89,14.26-10.34,14.26h0c-7.46,0-10.34-7.05-10.34-14.26"/>
        <path class="cls-5" d="M22.16,28.65s-3.98.14-4.99-3.53c-.82-2.98-.16-6.43,2.7-6.82"/>
        <path class="cls-5" d="M42.35,28.65s3.98.14,4.99-3.53c.82-2.98.16-6.43-2.7-6.82"/>
        <path class="cls-5" d="M24.68,36.1l-2.52,3.79s-6.89,2.22-11.73,4.43c0,0-4.55.17-5.85,3.66,0,0-3.31,8.47-3.94,18"/>
        <path class="cls-5" d="M63.86,65.99c-.64-9.54-3.94-18-3.94-18-1.29-3.49-5.85-3.66-5.85-3.66-4.83-2.21-11.73-4.43-11.73-4.43h0l-2.52-3.79"/>
        <path class="cls-5" d="M45.24,12.35l-.6,5.95-2.04,2.12-.69-3.48c-2.17,0-5.05-5.32-5.05-5.32-4.56,5.17-14.15,4.76-14.15,4.76l-.8,4.04-2.04-2.12-.6-5.95,12.98-4.44,12.98,4.44Z"/>
        <line class="cls-3" x1="12.62" y1="69.11" x2="12.62" y2="62.59"/>
        <line class="cls-3" x1="51.89" y1="69.11" x2="51.89" y2="62.59"/>
        <line class="cls-5" x1="21.83" y1="30.47" x2="21.83" y2="16.93"/>
        <line class="cls-5" x1="42.68" y1="30.47" x2="42.68" y2="16.93"/>
        <path class="cls-2" d="M32.26,16.39h14.42s.38-15.74-14.42-15.74-14.42,15.74-14.42,15.74h14.42Z"/>
        <path class="cls-5" d="M32.26,16.39h14.42s.38-15.74-14.42-15.74-14.42,15.74-14.42,15.74h14.42Z"/>
        <path class="cls-5" d="M32.26,17.29c14.45,0,14.82,2.77,14.82,2.77v-4.79s-.37-2.77-14.82-2.77-14.82,2.77-14.82,2.77v4.79s.37-2.77,14.82-2.77Z"/>
        <line class="cls-4" x1="32.26" y1="51.04" x2="32.26" y2="70.68"/>
        <g>
          <line class="cls-4" x1="30.63" y1="24.16" x2="30.63" y2="28.19"/>
          <circle class="cls-1" cx="26.89" cy="22.7" r="1.09"/>
          <circle class="cls-1" cx="37.27" cy="22.7" r="1.09"/>
          <path class="cls-4" d="M34.97,31.95c0,.76-.76,1.5-2.71,1.5h0c-1.96,0-2.71-.74-2.71-1.5"/>
        </g>
      </g>
      <line class="cls-5" x1="38.52" y1="55.3" x2="46.83" y2="55.3"/>
      <line class="cls-5" x1="17.76" y1="55.3" x2="26.07" y2="55.3"/>
      <line class="cls-5" x1="26.89" y1="1.65" x2="26.89" y2="12.26"/>
      <line class="cls-5" x1="37.69" y1="1.65" x2="37.69" y2="12.26"/>
    </g>
  </g>
</svg>