<?xml version="1.0" encoding="UTF-8"?>
<svg id="_レイヤー_2" data-name="レイヤー 2" xmlns="http://www.w3.org/2000/svg" viewBox="0 0 64.51 68.42">
  <defs>
    <style>
      .cls-1 {
        fill: #3c3c3c;
      }

      .cls-2 {
        fill: #fff;
      }
    </style>
  </defs>
  <g id="_レイヤー_1-2" data-name="レイヤー 1">
    <g>
      <g>
        <polygon class="cls-2" points="32.26 44.45 36.64 42.33 39.83 37.99 39.83 34.2 39.69 33.84 32.26 30.51 24.83 33.84 24.68 34.2 24.68 37.99 27.87 42.33 32.25 44.45 32.26 44.45"/>
        <path class="cls-2" d="M59.78,45.72c-1.3-3.49-5.85-3.66-5.85-3.66-4.83-2.21-11.73-4.43-11.73-4.43l-2.52-3.79s-1.73,4.69-5.35,6.74l-2.22.83-2.23-.84c-3.61-2.05-5.35-6.74-5.35-6.74l-2.52,3.79s-6.89,2.22-11.73,4.43c0,0-4.55.17-5.85,3.66,0,0-3.31,8.47-3.94,18,0,0,10.79,4.7,31.61,4.7h0c20.82,0,31.61-4.7,31.61-4.7-.64-9.54-3.94-18-3.94-18Z"/>
        <path class="cls-2" d="M44.64,16.4l-2.04,2.12-1.26-6.35-3.01-1.81-6.07.65-6.07-.65-3.01,1.81-1.26,6.35-2.04-2.12c-2.86.39-3.53,3.84-2.7,6.82,1.01,3.66,4.99,3.53,4.99,3.53.83,5.82,3.87,10.73,10.09,10.73h0c6.23,0,9.26-4.91,10.09-10.73,0,0,3.98.14,4.99-3.53.82-2.98.16-6.43-2.7-6.82Z"/>
        <g>
          <path class="cls-2" d="M42.6,23.23c0,7.21-2.89,14.26-10.34,14.26h0c-7.46,0-10.34-7.04-10.34-14.26"/>
          <path class="cls-1" d="M32.26,38.13c-8.1,0-10.99-7.7-10.99-14.9,0-.36.29-.65.65-.65s.65.29.65.65c0,6.58,2.55,13.61,9.7,13.61s9.7-7.03,9.7-13.61c0-.36.29-.65.65-.65s.65.29.65.65c0,7.2-2.89,14.9-10.99,14.9Z"/>
        </g>
        <g>
          <polyline class="cls-2" points="30.94 23.01 30.94 27.04 32.96 27.04"/>
          <path class="cls-1" d="M32.96,27.52h-2.02c-.27,0-.48-.22-.48-.48v-4.02c0-.27.22-.48.48-.48s.48.22.48.48v3.54h1.53c.27,0,.48.22.48.48s-.22.48-.48.48Z"/>
        </g>
        <g>
          <path class="cls-2" d="M22.16,26.75s-3.98.14-4.99-3.53c-.82-2.98-.16-6.43,2.7-6.82"/>
          <path class="cls-1" d="M22.04,27.4c-1.6,0-4.61-.82-5.48-4-.62-2.23-.41-4.5.54-5.94.63-.95,1.56-1.54,2.7-1.69.35-.05.68.2.73.55s-.2.68-.55.73c-.77.1-1.37.48-1.79,1.12-.75,1.14-.89,3.01-.37,4.89.86,3.12,4.21,3.06,4.35,3.05h.02c.35,0,.64.28.65.63.01.36-.27.65-.62.67-.05,0-.1,0-.15,0Z"/>
        </g>
        <g>
          <path class="cls-2" d="M42.35,26.75s3.98.14,4.99-3.53c.82-2.98.16-6.43-2.7-6.82"/>
          <path class="cls-1" d="M42.48,27.4c-.05,0-.1,0-.15,0-.36-.01-.63-.31-.62-.67.01-.35.3-.63.65-.63.01,0,.02,0,.07,0,.45,0,3.48-.11,4.3-3.05.52-1.88.38-3.75-.37-4.89-.42-.64-1.03-1.02-1.79-1.12-.35-.05-.6-.37-.55-.73s.38-.6.73-.55c1.14.15,2.07.74,2.7,1.69.95,1.44,1.15,3.72.54,5.94-.88,3.18-3.89,4-5.48,4Z"/>
        </g>
        <g>
          <path class="cls-2" d="M30.94,41.14s-4.4,5.08-6.3,8.01"/>
          <path class="cls-1" d="M24.64,49.79c-.12,0-.24-.03-.35-.1-.3-.19-.38-.59-.19-.89,1.9-2.94,6.17-7.87,6.35-8.08.23-.27.64-.3.91-.07.27.23.3.64.07.91-.04.05-4.39,5.08-6.24,7.94-.12.19-.33.29-.54.29Z"/>
        </g>
        <path class="cls-1" d="M32.23,45.21s-.02,0-.03,0c-.26-.01-.48-.18-.57-.42l-1.17-3.1c-5.21-1.21-6.37-7.12-6.42-7.38-.07-.35.17-.69.52-.75.34-.07.69.16.75.52.01.06,1.11,5.56,5.74,6.42.22.04.41.2.49.41l.77,2.05,1.05-2.11c.09-.18.26-.31.46-.35,4.61-.85,5.33-6.16,5.36-6.38.04-.35.37-.6.72-.56.35.04.6.37.56.72,0,.06-.83,6.22-6.09,7.42l-1.57,3.15c-.11.22-.33.36-.58.36Z"/>
        <g>
          <line class="cls-2" x1="22.16" y1="37.99" x2="24.68" y2="34.2"/>
          <path class="cls-1" d="M22.16,38.63c-.12,0-.25-.03-.36-.11-.3-.2-.38-.6-.18-.9l2.52-3.79c.2-.3.6-.38.9-.18.3.2.38.6.18.9l-2.52,3.79c-.12.19-.33.29-.54.29Z"/>
        </g>
        <path class="cls-1" d="M32.26,64.73c-.19,0-.37-.08-.5-.24-8.47-10.46-10.16-25.79-10.23-26.44-.04-.35.22-.67.58-.71.34-.03.67.22.71.58.02.16,1.72,15.61,9.95,25.76.22.28.18.68-.1.91-.12.1-.26.14-.41.14Z"/>
        <path class="cls-1" d="M.65,64.73s-.03,0-.04,0c-.36-.02-.62-.33-.6-.69.63-9.53,3.95-18.11,3.99-18.2,1.31-3.53,5.47-4,6.29-4.06,4.81-2.18,11.62-4.39,11.69-4.41.34-.11.7.08.81.42.11.34-.08.7-.42.81-.07.02-6.91,2.24-11.66,4.41-.08.04-.16.05-.24.06-.04,0-4.14.21-5.27,3.24-.04.09-3.28,8.5-3.9,17.82-.02.34-.31.6-.64.6Z"/>
        <g>
          <path class="cls-2" d="M33.95,41.14s4.02,5.08,5.92,8.01"/>
          <path class="cls-1" d="M39.87,49.79c-.21,0-.42-.1-.54-.29-1.86-2.87-5.84-7.91-5.88-7.96-.22-.28-.17-.69.1-.91.28-.22.69-.17.91.1.17.21,4.06,5.13,5.96,8.06.19.3.11.7-.19.89-.11.07-.23.1-.35.1Z"/>
        </g>
        <g>
          <line class="cls-2" x1="42.35" y1="37.99" x2="39.83" y2="34.2"/>
          <path class="cls-1" d="M42.35,38.63c-.21,0-.41-.1-.54-.29l-2.52-3.79c-.2-.3-.12-.7.18-.9.3-.2.7-.12.9.18l2.52,3.79c.2.3.12.7-.18.9-.11.07-.23.11-.36.11Z"/>
        </g>
        <path class="cls-1" d="M32.26,64.73c-.14,0-.29-.05-.41-.14-.28-.22-.32-.63-.1-.91,8.23-10.15,9.93-25.6,9.95-25.76.04-.35.36-.61.71-.58.35.04.61.36.58.71-.07.65-1.76,15.98-10.23,26.44-.13.16-.31.24-.5.24Z"/>
        <path class="cls-1" d="M63.86,64.73c-.34,0-.62-.26-.64-.6-.62-9.32-3.87-17.73-3.9-17.81-1.13-3.04-5.23-3.25-5.27-3.25-.08,0-.17-.02-.24-.06-4.74-2.17-11.59-4.38-11.66-4.41-.34-.11-.53-.47-.42-.81.11-.34.47-.53.81-.42.07.02,6.88,2.23,11.69,4.41.82.06,4.98.54,6.3,4.07.03.08,3.35,8.66,3.98,18.19.02.36-.25.66-.6.69-.01,0-.03,0-.04,0Z"/>
        <g>
          <path class="cls-2" d="M54.07,42.42s-2.19,4.34-2.19,10.98"/>
          <path class="cls-1" d="M51.89,54.05c-.36,0-.65-.29-.65-.65,0-6.72,2.16-11.09,2.25-11.27.16-.32.55-.44.87-.29.32.16.45.55.29.87-.02.04-2.12,4.3-2.12,10.69,0,.36-.29.65-.65.65Z"/>
        </g>
        <g>
          <path class="cls-2" d="M42.6,18.94l2.04-2.53.6-5.95c.24-2.34-4.15-7.25-6.84-8.95-2.68-1.69-6.11.62-6.11.62,0,0-1.63-2.74-5.36-.75-5.6,2.97-8.06,4.93-7.64,9.08l.6,5.95,2.04,2.53s6.54-.94,10.32-9.19c0,0,7.01,9,10.36,9.19Z"/>
          <path class="cls-1" d="M21.91,19.58c-.19,0-.38-.09-.5-.24l-2.04-2.53c-.08-.1-.13-.22-.14-.34l-.6-5.95c-.45-4.45,2.1-6.6,7.98-9.72,3.15-1.67,5.04-.33,5.81.49,1.13-.62,3.93-1.83,6.31-.33,2.68,1.69,7.42,6.77,7.14,9.56l-.6,5.95c-.01.12-.06.24-.14.34l-2.04,2.53c-.13.16-.33.25-.54.24-3.04-.17-8.3-6.29-10.19-8.63-3.93,7.62-10.09,8.59-10.37,8.62-.03,0-.06,0-.09,0ZM32.24,9.1c.2,0,.39.09.51.25,1.82,2.34,6.95,8.31,9.58,8.89l1.69-2.1.58-5.76c.19-1.88-3.74-6.57-6.54-8.34-2.28-1.44-5.38.59-5.41.61-.15.1-.33.13-.5.09-.17-.04-.32-.15-.41-.3-.14-.22-1.44-2.14-4.51-.51-5.46,2.9-7.68,4.71-7.3,8.45l.58,5.76,1.67,2.08c1.37-.32,6.35-1.92,9.48-8.75.09-.21.29-.35.51-.37.02,0,.05,0,.07,0Z"/>
        </g>
      </g>
      <path class="cls-1" d="M26.83,25.03c-2.12,0-3.84-1.72-3.84-3.84s1.72-3.84,3.84-3.84,3.84,1.72,3.84,3.84-1.72,3.84-3.84,3.84ZM26.83,18.32c-1.58,0-2.87,1.29-2.87,2.87s1.29,2.87,2.87,2.87,2.87-1.29,2.87-2.87-1.29-2.87-2.87-2.87Z"/>
      <path class="cls-1" d="M37.3,25.03c-2.12,0-3.84-1.72-3.84-3.84s1.72-3.84,3.84-3.84,3.84,1.72,3.84,3.84-1.72,3.84-3.84,3.84ZM37.3,18.32c-1.58,0-2.87,1.29-2.87,2.87s1.29,2.87,2.87,2.87,2.87-1.29,2.87-2.87-1.29-2.87-2.87-2.87Z"/>
      <path class="cls-1" d="M33.95,21.68h-3.76c-.27,0-.48-.22-.48-.48s.22-.48.48-.48h3.76c.27,0,.48.22.48.48s-.22.48-.48.48Z"/>
      <path class="cls-1" d="M28.27,22.29c-.27,0-.48-.22-.48-.48,0-.48-.39-.86-.86-.86s-.86.39-.86.86c0,.27-.22.48-.48.48s-.48-.22-.48-.48c0-1.01.82-1.83,1.83-1.83s1.83.82,1.83,1.83c0,.27-.22.48-.48.48Z"/>
      <path class="cls-1" d="M38.65,22.29c-.27,0-.48-.22-.48-.48,0-.48-.39-.86-.86-.86s-.86.39-.86.86c0,.27-.22.48-.48.48s-.48-.22-.48-.48c0-1.01.82-1.83,1.83-1.83s1.83.82,1.83,1.83c0,.27-.22.48-.48.48Z"/>
      <path class="cls-1" d="M32.07,32.32c-2.36,0-3.2-1.03-3.2-1.99,0-.27.22-.48.48-.48s.48.22.48.48c0,.62.88,1.02,2.23,1.02s2.23-.4,2.23-1.02c0-.27.22-.48.48-.48s.48.22.48.48c0,.96-.84,1.99-3.2,1.99Z"/>
      <path class="cls-1" d="M32.23,48.43c-.81,0-1.47-.66-1.47-1.47s.66-1.47,1.47-1.47,1.47.66,1.47,1.47-.66,1.47-1.47,1.47ZM32.23,46.49c-.26,0-.47.21-.47.47s.21.47.47.47.47-.21.47-.47-.21-.47-.47-.47Z"/>
      <path class="cls-1" d="M32.23,52.03c-.81,0-1.47-.66-1.47-1.47s.66-1.47,1.47-1.47,1.47.66,1.47,1.47-.66,1.47-1.47,1.47ZM32.23,50.09c-.26,0-.47.21-.47.47s.21.47.47.47.47-.21.47-.47-.21-.47-.47-.47Z"/>
    </g>
  </g>
</svg>