<svg id="レイヤー_1" data-name="レイヤー 1" xmlns="http://www.w3.org/2000/svg" viewBox="0 0 414 350"><defs><style>.cls-1,.cls-3{fill:none;}.cls-2{fill:#fff;}.cls-3{stroke:#fff;stroke-miterlimit:10;}.cls-4{fill:#d61518;}</style></defs><rect class="cls-1" width="414" height="350"/><path class="cls-2" d="M107.37,295.94a1.53,1.53,0,0,0-.19.18,8.78,8.78,0,0,1-2.16,1.8,13.07,13.07,0,0,0,4.72,1,2,2,0,0,0-.35.77,15.88,15.88,0,0,1-2.74-.51,10.13,10.13,0,0,1-2.34-.91,15.13,15.13,0,0,1-4.86,1.45,2,2,0,0,0-.41-.7,14.9,14.9,0,0,0,4.58-1.15,8.16,8.16,0,0,1-1.72-1.44,9,9,0,0,1-2.27,1.42,1.85,1.85,0,0,0-.51-.57,8.88,8.88,0,0,0,2.45-1.43,6.09,6.09,0,0,0,1.14-1.21c-.49-.06-.63-.18-.63-.58v-.91a4.46,4.46,0,0,0-.06-.86h.81a3.79,3.79,0,0,0-.06.79v.76c0,.1,0,.14.13.18a7.51,7.51,0,0,0,1.17.06A6.74,6.74,0,0,0,106,294c.19-.09.26-.29.34-.87a1.73,1.73,0,0,0,.64.34c-.29,1.22-.34,1.25-2.6,1.25h-.83c-.35.46-.44.57-.64.8h3a5.39,5.39,0,0,0,1.06-.06Zm-6-4.69a5.27,5.27,0,0,0-.5-1l-1.08,0a2.66,2.66,0,0,0-.3-.66h.63a52.29,52.29,0,0,0,5.86-.35,9.67,9.67,0,0,0,2.35-.47l.57.69-1.68.29.68.19c-.45.81-.53,1-.77,1.33h.94a12,12,0,0,0,1.36-.05,6.25,6.25,0,0,0,0,.9v.7a5.84,5.84,0,0,0,.06.75h-.78v-1.67H100v1.71h-.78a5.87,5.87,0,0,0,.06-.85v-.66a6.46,6.46,0,0,0-.05-.89,11.06,11.06,0,0,0,1.48.06Zm-1.88,3.48a4.22,4.22,0,0,0,1.46-2.14l.62.3a6.5,6.5,0,0,1-1.54,2.37Zm4.64-3.48a5.57,5.57,0,0,0-.53-1.16c-.89,0-1.53.08-2,.09a6.66,6.66,0,0,1,.53,1.07Zm-1.72,4.86a6.93,6.93,0,0,0,1.86,1.46,6.86,6.86,0,0,0,1.92-1.46Zm2.55-2.44a7.71,7.71,0,0,0-1.55-1.19l.42-.44a9.09,9.09,0,0,1,1.61,1.13Zm1.42-2.42a5.63,5.63,0,0,0,.76-1.51c-.92.13-1.63.2-2.84.3a7,7,0,0,1,.52,1.21Zm2.14,3.91a9.38,9.38,0,0,0-1.8-2.3l.54-.38a13.36,13.36,0,0,1,1.86,2.22Z"/><path class="cls-2" d="M112.63,291.21a8.05,8.05,0,0,1-1.11,1.77,1.53,1.53,0,0,0-.59-.53,6.15,6.15,0,0,0,1.59-3,2.54,2.54,0,0,0,.11-.66l.82.13c-.07.19-.1.29-.21.65a5.85,5.85,0,0,1-.31.95h2.17a7.7,7.7,0,0,0,1.18-.07v.82c-.37,0-.77-.06-1.18-.06h-.76c0,1.3,0,1.44-.09,2.25h1a6.71,6.71,0,0,0,1.14-.08v.84a8.54,8.54,0,0,0-1.14-.07h-1.08c0,.28,0,.42-.09.71a7.21,7.21,0,0,0,2.27,2.73,2.49,2.49,0,0,0-.47.72,9.55,9.55,0,0,1-2-2.54,6.28,6.28,0,0,1-2.4,3.45,2.21,2.21,0,0,0-.6-.62,5.57,5.57,0,0,0,2.58-4.45h-1.09a7.38,7.38,0,0,0-1.27.07v-.84a7.11,7.11,0,0,0,1.29.08h1.14c0-.66.06-.92.07-2.25Zm4.93,8.06h-.83a10,10,0,0,0,.08-1.36v-6.66a10,10,0,0,0-.08-1.26,6.49,6.49,0,0,0,1.08.06h2.4a6.42,6.42,0,0,0,1.08-.06,8.81,8.81,0,0,0-.06,1.26v6.57a13.58,13.58,0,0,0,.07,1.45h-.84v-.85h-2.9Zm0-1.54h2.9v-7h-2.9Z"/><path class="cls-2" d="M124.35,290.37a9.68,9.68,0,0,0-1.29.08v-.88a9.43,9.43,0,0,0,1.29.07h8.05a9.82,9.82,0,0,0,1.29-.07v.88a9.35,9.35,0,0,0-1.29-.08h-4.85a18.79,18.79,0,0,1-.17,2.34H131a9,9,0,0,0,1.39-.06c0,.22,0,.43-.07.94a19.86,19.86,0,0,1-.57,4.84c-.27.77-.66,1-1.74,1a17.53,17.53,0,0,1-1.85-.15,2.64,2.64,0,0,0-.19-.86,11.21,11.21,0,0,0,2.1.25c.69,0,.85-.14,1-1a25.91,25.91,0,0,0,.42-4.26h-4.25a9.85,9.85,0,0,1-1.5,4,9.16,9.16,0,0,1-2.21,2.28,2.27,2.27,0,0,0-.65-.63,7.54,7.54,0,0,0,3-3.69,13.87,13.87,0,0,0,.79-5Z"/><path class="cls-2" d="M136.15,289.87a5.69,5.69,0,0,0-.08-1.07H137a5.25,5.25,0,0,0-.08,1.06v2H137a4.43,4.43,0,0,0,.85-.06v.79a5,5,0,0,0-.84-.05h-.14v5.76a8.9,8.9,0,0,0,.08,1.3h-.92a8.09,8.09,0,0,0,.08-1.29v-5.77h-.26a7.14,7.14,0,0,0-1,.05v-.79a6.49,6.49,0,0,0,1,.06h.26Zm8.55.17a7.62,7.62,0,0,0,1-.07v.74a9,9,0,0,0-1.14,0H142v.88h2.17a7.64,7.64,0,0,0,.92,0,4.89,4.89,0,0,0,0,.74v2.21a5.72,5.72,0,0,0,0,.77c-.29,0-.47,0-.9,0H144v.93h.78a4.54,4.54,0,0,0,1-.08v.78a6.78,6.78,0,0,0-1-.06H144v1.95a.82.82,0,0,1-.31.75,1.38,1.38,0,0,1-.79.15c-.33,0-.77,0-1.19-.05a2.34,2.34,0,0,0-.24-.78,11,11,0,0,0,1.43.14c.3,0,.38-.07.38-.3v-1.86H138.8a7.42,7.42,0,0,0-1,.06V296a5.58,5.58,0,0,0,1,.08h4.42v-.93h-3.86c-.42,0-.59,0-.88,0,0-.24,0-.47,0-.77v-2.22a5.32,5.32,0,0,0,0-.73,6.75,6.75,0,0,0,.87,0h1.94v-.88h-2.23a9.37,9.37,0,0,0-1.13,0V290a9,9,0,0,0,1.15.07h2.21v-.27a6.07,6.07,0,0,0-.07-1h.83a5.59,5.59,0,0,0-.08,1V290Zm-4,9a9.8,9.8,0,0,0-1.63-1.59l.51-.44a13.13,13.13,0,0,1,1.67,1.46Zm-1.47-6.88V293h2.09v-.92Zm0,1.49v1h2.09v-1ZM142,293h2.36v-.92H142Zm0,1.56h2.36v-1H142Zm2.1-4.6a8.11,8.11,0,0,0-1.41-.85l.44-.44a7.67,7.67,0,0,1,1.43.81Z"/><path class="cls-2" d="M151.37,298.76a8.28,8.28,0,0,0-1.32.06,5.5,5.5,0,0,1,.35-1.59,5.27,5.27,0,0,1,1.56-2.06,16.4,16.4,0,0,1,1.83-1.32c1.19-.8,1.58-1.33,1.58-2.06,0-.91-.76-1.5-2-1.5a2,2,0,0,0-1.73.78,2.35,2.35,0,0,0-.42,1.21l-1-.17a3.28,3.28,0,0,1,.75-1.72,3,3,0,0,1,2.41-.93c1.81,0,3,.91,3,2.33a2.48,2.48,0,0,1-.71,1.7,9.25,9.25,0,0,1-2,1.55,6.31,6.31,0,0,0-1.72,1.47,3.4,3.4,0,0,0-.69,1.4H155a10.37,10.37,0,0,0,1.46-.09v1a13.06,13.06,0,0,0-1.47-.07Z"/><path class="cls-2" d="M159,298.09a2.91,2.91,0,0,1-.72-1.11,8.25,8.25,0,0,1-.46-2.77,7,7,0,0,1,.7-3.26,3.2,3.2,0,0,1,4.88-.62,3.08,3.08,0,0,1,.72,1.1,8.27,8.27,0,0,1,.45,2.78,6.25,6.25,0,0,1-.84,3.47,2.93,2.93,0,0,1-2.54,1.26A3,3,0,0,1,159,298.09Zm.69-7.18a2.59,2.59,0,0,0-.54.88,7.49,7.49,0,0,0-.37,2.42,6.72,6.72,0,0,0,.56,2.86,2.06,2.06,0,0,0,1.86,1,2,2,0,0,0,1.48-.56,2.45,2.45,0,0,0,.56-.94,7.45,7.45,0,0,0,.37-2.42,6.85,6.85,0,0,0-.54-2.8,2,2,0,0,0-1.88-1.09A2,2,0,0,0,159.66,290.91Z"/><path class="cls-2" d="M166.85,298.09a2.91,2.91,0,0,1-.72-1.11,8.25,8.25,0,0,1-.46-2.77,7,7,0,0,1,.7-3.26,3.2,3.2,0,0,1,4.88-.62,2.84,2.84,0,0,1,.72,1.1,8.27,8.27,0,0,1,.46,2.78,6.33,6.33,0,0,1-.84,3.47,2.94,2.94,0,0,1-2.55,1.26A3,3,0,0,1,166.85,298.09Zm.69-7.18a2.59,2.59,0,0,0-.54.88,7.49,7.49,0,0,0-.37,2.42,6.56,6.56,0,0,0,.57,2.86,2,2,0,0,0,1.86,1,2,2,0,0,0,1.47-.56,2.33,2.33,0,0,0,.56-.94,7.19,7.19,0,0,0,.38-2.42,6.85,6.85,0,0,0-.54-2.8A2,2,0,0,0,169,290.3,2,2,0,0,0,167.54,290.91Z"/><path class="cls-2" d="M175.1,293.12a3,3,0,0,1-.09.54,2.91,2.91,0,0,1,2.1-.83,3,3,0,0,1,2.16.82,2.77,2.77,0,0,1,.8,2.11,3,3,0,0,1-3.24,3.17,3.26,3.26,0,0,1-2.29-.82,3.55,3.55,0,0,1-.75-1.13l1-.29a1.78,1.78,0,0,0,.38.7,2.23,2.23,0,0,0,1.71.71,2.14,2.14,0,0,0,2.24-2.29,2,2,0,0,0-2.1-2.19,2.47,2.47,0,0,0-1.57.51,1.49,1.49,0,0,0-.55.72l-.9-.09a11,11,0,0,0,.18-1.23l.26-2.71c0-.35,0-.49,0-.72a3.89,3.89,0,0,0,0-.52,7.93,7.93,0,0,0,1.27.06h2.48a8.15,8.15,0,0,0,1.4-.09v1a7.55,7.55,0,0,0-1.4-.1h-2.82Z"/><path class="cls-2" d="M185,290.89h.43l.68,0,2.22-.15,1.88-.12,2-.11.68,0a8,8,0,0,0,1.43-.13l.07.89a5,5,0,0,0-1.34.16,6.05,6.05,0,0,0-2.3,1.2,3.69,3.69,0,0,0-1.48,2.77,2.35,2.35,0,0,0,1.68,2.22,6,6,0,0,0,1.8.39h.12l-.16,1a2.74,2.74,0,0,0-.37-.07,6.17,6.17,0,0,1-2.59-.93,2.9,2.9,0,0,1-1.33-2.45,4.57,4.57,0,0,1,2.24-3.68,8.22,8.22,0,0,1,1.14-.63,23.65,23.65,0,0,1-2.64.26,39.24,39.24,0,0,0-4.13.4Zm8,1.79a8.87,8.87,0,0,1,1.24,1.86l-.62.36a8.06,8.06,0,0,0-1.22-1.91Zm1.36-.66a9.3,9.3,0,0,1,1.23,1.87l-.6.33a9.24,9.24,0,0,0-1.22-1.88Z"/><path class="cls-2" d="M198,290.77a8.74,8.74,0,0,0-1.42.07V290a9,9,0,0,0,1.45.09h3.41V290a6.13,6.13,0,0,0-.09-1.16h.89a6.67,6.67,0,0,0-.08,1.16v.1h3.58a8.18,8.18,0,0,0,1.5-.09v.84a10.8,10.8,0,0,0-1.47-.07h-3.61v1h2.61a10.55,10.55,0,0,0,1.37-.05,9.44,9.44,0,0,0-.05,1.25v1.77a8.11,8.11,0,0,0,.05,1.27,7.52,7.52,0,0,0-1.37-.07h-2.06a9.41,9.41,0,0,0,4.94,2.66,3.32,3.32,0,0,0-.45.75,13.4,13.4,0,0,1-2.7-1.18,8.94,8.94,0,0,1-2.38-2c0,.31,0,.71,0,.94v1.22a6.68,6.68,0,0,0,.08,1.33h-.89a7.91,7.91,0,0,0,.09-1.33v-1.21c0-.23,0-.59,0-.93a7,7,0,0,1-1.41,1.37,11.19,11.19,0,0,1-3.35,1.75,3.1,3.1,0,0,0-.44-.72,10,10,0,0,0,2.91-1.28,6.59,6.59,0,0,0,1.68-1.4h-1.75a7.52,7.52,0,0,0-1.39.07v-.16a8.5,8.5,0,0,0,0-1.11V293a10.54,10.54,0,0,0-.05-1.3,6.77,6.77,0,0,0,1.33.07h2.39v-1Zm.51,1.62v1.1h2.93v-1.1Zm0,1.71v1.22h2.93V294.1Zm3.65-.61h3.19v-1.1h-3.19Zm0,1.83h3.19V294.1h-3.19Z"/><path class="cls-2" d="M209.5,295.4a4.46,4.46,0,0,0-1,.07v-.79a4.5,4.5,0,0,0,1,.07H211v-.63a2.07,2.07,0,0,0-.06-.5h.81a2.07,2.07,0,0,0,0,.5v.63H213a4.63,4.63,0,0,0,1-.07v.78a5.14,5.14,0,0,0-1-.06h-1.14a5,5,0,0,0,1.69,1.52,2.9,2.9,0,0,0-.42.65,6.21,6.21,0,0,1-1.5-1.66c0,.27,0,.62.05,1.06v1.74a6.35,6.35,0,0,0,.06,1h-.83a6.41,6.41,0,0,0,.07-1V297c0-.29,0-.6,0-1a7.12,7.12,0,0,1-2.27,2.66,2.62,2.62,0,0,0-.45-.67,8.07,8.07,0,0,0,1.56-1.32,5.58,5.58,0,0,0,.87-1.28Zm2.13-2.68a6.06,6.06,0,0,0,.8-2l.72.23a11.93,11.93,0,0,1-.81,1.73h.71a5.14,5.14,0,0,0,1-.06v.81a5.39,5.39,0,0,0-1-.06h-3.57a5.31,5.31,0,0,0-1,.06v-.81a5.06,5.06,0,0,0,1,.06Zm1.22-2.75a6.37,6.37,0,0,0,1-.06v.8a5.87,5.87,0,0,0-1-.06h-3.07a5.85,5.85,0,0,0-1,.06v-.8a6.6,6.6,0,0,0,1.05.06H211v-.33a4.07,4.07,0,0,0-.06-.84h.88a3.9,3.9,0,0,0-.06.84V290Zm-2.74,2.65a6.52,6.52,0,0,0-.69-1.61l.64-.24a6.78,6.78,0,0,1,.68,1.62Zm8.21,0a6,6,0,0,0,1.11-.07v.83a6.1,6.1,0,0,0-1.06-.06h-.44v5.23a6,6,0,0,0,.07,1.19h-.92a8.26,8.26,0,0,0,.07-1.19v-5.23h-1.88v.46a13.37,13.37,0,0,1-.69,4.31,6.07,6.07,0,0,1-.89,1.64,2.34,2.34,0,0,0-.68-.5c1.15-1.42,1.51-3.1,1.51-7.1a21.62,21.62,0,0,0-.06-2.22h.15a11.73,11.73,0,0,0,2.84-.55,3.76,3.76,0,0,0,1.1-.52l.61.67-.43.17a14.38,14.38,0,0,1-3.45.89v2.05Z"/><path class="cls-2" d="M221.83,294.32c0-.54,0-1,.06-1.57a10.34,10.34,0,0,1-1.28,1.82,1.54,1.54,0,0,0-.43-.68,10.93,10.93,0,0,0,2.25-3.47,8.41,8.41,0,0,0,.51-1.61l.79.26a22.73,22.73,0,0,1-1.13,2.64v6.51a10,10,0,0,0,.08,1.4h-.93a9.26,9.26,0,0,0,.08-1.44Zm3.07-2.21c-.45,0-.9,0-1.26.06v-.84a8.1,8.1,0,0,0,1.26.08h4.74a8.44,8.44,0,0,0,1.27-.08v.84c-.35,0-.8-.06-1.26-.06h-2.13v2.53h1.77a8.72,8.72,0,0,0,1.25-.07v.82a11.71,11.71,0,0,0-1.24-.06h-1.78v3.1H230a9.17,9.17,0,0,0,1.31-.07v.83a12.43,12.43,0,0,0-1.31-.06h-5.59a12.5,12.5,0,0,0-1.32.06v-.83a9.2,9.2,0,0,0,1.3.07h2.35v-3.1h-1.49a12,12,0,0,0-1.25.06v-.82a8.66,8.66,0,0,0,1.24.07h1.5v-2.53ZM226,288.9a14,14,0,0,1,2.41,1.52l-.56.61a9.75,9.75,0,0,0-2.37-1.59Z"/><path class="cls-2" d="M233.62,294.37a5.29,5.29,0,0,0,.74,1.81,9.19,9.19,0,0,0,.68-2.69h-1c-.33,0-.75,0-1.09,0a20.75,20.75,0,0,0,1.94-3.38h-1.44a4,4,0,0,0-.81.06v-.78a4.87,4.87,0,0,0,.83.06h1.14a5.71,5.71,0,0,0,.88-.05l.35.45c-.07.11-.14.26-.26.5a19,19,0,0,1-1.42,2.45h.78a6.42,6.42,0,0,0,1,0,5.71,5.71,0,0,0-.1.6,11.62,11.62,0,0,1-.94,3.45c1,1.3,2.3,1.76,4.82,1.76,1.18,0,2.64-.07,3.74-.16a2.43,2.43,0,0,0-.25.82c-.89,0-2.4.05-3.32.05-2.85,0-4.07-.42-5.33-1.85a8.6,8.6,0,0,1-1.67,2.11,2,2,0,0,0-.56-.58,7.62,7.62,0,0,0,1.76-2.13,8,8,0,0,1-.81-1.55c-.15-.34-.15-.34-.3-.66Zm5.26-4.08h-1.53a5.75,5.75,0,0,0-.87,0v-.71a4.43,4.43,0,0,0,.89.06h1.51a6.87,6.87,0,0,0-.06-.91h.82a4.35,4.35,0,0,0-.06.91h1.89a6.63,6.63,0,0,0,.88,0c0,.06,0,.06,0,.21a4.53,4.53,0,0,0,0,.55v.85h.06a4.7,4.7,0,0,0,.9-.07v.72a5.54,5.54,0,0,0-.9-.05h-.06v1c0,.26,0,.57,0,.69-.39,0-.54,0-.85,0h-1.92v1h1.92a8.55,8.55,0,0,0,1.06-.06v.7a10.72,10.72,0,0,0-1.08,0h-1.9v1.05H242a6.57,6.57,0,0,0,1.11-.07v.73a8.26,8.26,0,0,0-1.11-.05h-2.46v.3a6.67,6.67,0,0,0,.06,1.12h-.82a8.39,8.39,0,0,0,.06-1.11v-.31H237a6.45,6.45,0,0,0-1.06.06v-.74a6.19,6.19,0,0,0,1.08.07h1.9v-1.05h-1.61a7.05,7.05,0,0,0-1,.06v-.72a7.05,7.05,0,0,0,1,.06h1.61v-1h-1.57a7.3,7.3,0,0,0-.84.05v-.71a4.15,4.15,0,0,0,.88.06h1.53v-1h-2a6.6,6.6,0,0,0-1.11.06v-.73a6.47,6.47,0,0,0,1.12.07h2Zm2.75,1v-1h-2v1Zm-2,1.64h2v-1h-2Z"/><path class="cls-2" d="M244.79,292.24a24.25,24.25,0,0,0,2.65-.31,15.25,15.25,0,0,0,.36-2.54v-.16l1,.11a8.39,8.39,0,0,0-.23,1.15c-.05.3-.16.86-.25,1.37.28,0,.43,0,.71,0a2.27,2.27,0,0,1,1.72.51,2.41,2.41,0,0,1,.59,1.93,8.34,8.34,0,0,1-.8,4.13,1.27,1.27,0,0,1-1.18.56,4.46,4.46,0,0,1-1.81-.47,2.12,2.12,0,0,0,0-.43,2,2,0,0,0,0-.47,4.4,4.4,0,0,0,1.79.55c.3,0,.52-.19.68-.57a9.4,9.4,0,0,0,.5-3.34c0-1.27-.36-1.68-1.47-1.68-.27,0-.42,0-.86.06a23.44,23.44,0,0,1-2.6,6.53l-.81-.48a17.88,17.88,0,0,0,2.57-6,14.14,14.14,0,0,0-2.41.43Zm7.88-1.1a11,11,0,0,1,2.51,4.25l-.77.43a10.22,10.22,0,0,0-2.45-4.31Zm.54-2a9.08,9.08,0,0,1,1.23,1.86l-.6.36a9.54,9.54,0,0,0-1.23-1.91Zm1.35-.65a10,10,0,0,1,1.24,1.86l-.6.35a9,9,0,0,0-1.22-1.88Z"/><path class="cls-2" d="M260.05,295.46a12.34,12.34,0,0,0,.09-1.73,7.16,7.16,0,0,0-1,0v-.59a10,10,0,0,1-2.33,1.38,2.3,2.3,0,0,0-.47-.62,9,9,0,0,0,2.73-1.63,10.14,10.14,0,0,0-1.81-1.57l.56-.47a17.31,17.31,0,0,1,1.78,1.54,7.8,7.8,0,0,0,1.51-1.87h-2.27a6.72,6.72,0,0,0-.78.06v-.76a5.86,5.86,0,0,0,.87.06h2.27a8.1,8.1,0,0,0,1.07-.05,3.56,3.56,0,0,0,.93,1.63,7.2,7.2,0,0,0,1.24-1.54l.66.44a1.66,1.66,0,0,0-.25.27,12.89,12.89,0,0,1-1.23,1.3,13.46,13.46,0,0,0,1,.93,8,8,0,0,0,1.42-1.65l.66.43-.57.64a13.53,13.53,0,0,1-1,1,8.91,8.91,0,0,0,2.26,1.18,2.75,2.75,0,0,0-.47.7,11.54,11.54,0,0,1-2.29-1.36v.58a7.63,7.63,0,0,0-1,0h-.21v1.73h2.14a9.09,9.09,0,0,0,1.2-.07v.81a8.15,8.15,0,0,0-1.2-.07h-2.14v2.27c0,.19.05.26.24.32a4,4,0,0,0,.93.07c.93,0,1.27-.06,1.44-.25a3,3,0,0,0,.31-1.35,2,2,0,0,0,.77.34,3.14,3.14,0,0,1-.53,1.59c-.25.28-.78.38-2.08.38-1.48,0-1.82-.17-1.82-.9v-2.47h-2a4.09,4.09,0,0,1-.85,1.88,5.43,5.43,0,0,1-1.37,1.14,5.76,5.76,0,0,1-1.2.55,2.75,2.75,0,0,0-.57-.68,5.52,5.52,0,0,0,1.84-.85,3.12,3.12,0,0,0,1.39-2h-1.77a8,8,0,0,0-1.19.07v-.81a8.92,8.92,0,0,0,1.19.07Zm3.55-2.38c.41,0,.6,0,.85,0a9.26,9.26,0,0,1-2.58-3,10.77,10.77,0,0,1-2.54,3c.28,0,.48,0,.9,0Zm-2.71.65a12.94,12.94,0,0,1-.08,1.73h1.88v-1.73Z"/><path class="cls-2" d="M271.76,296.15a14,14,0,0,1-2.85,1.6,2.68,2.68,0,0,0-.48-.68,10.81,10.81,0,0,0,4.33-2.61h-2.89a9.66,9.66,0,0,0-1.33.08v-.82a7.09,7.09,0,0,0,1.33.07h3.54v-1.16h-2.49a8.13,8.13,0,0,0-1.22.05v-.77a10.21,10.21,0,0,0,1.22,0h2.49v-1.13H270.3a8.32,8.32,0,0,0-1.27.06v-.79a8.25,8.25,0,0,0,1.29.07h3.09v-.28a5.32,5.32,0,0,0-.08-1h.88a5,5,0,0,0-.07,1v.28h3.3a8.78,8.78,0,0,0,1.32-.07v.79a8.93,8.93,0,0,0-1.3-.06h-3.32V292h2.66a10.88,10.88,0,0,0,1.27,0v.77a8.87,8.87,0,0,0-1.27-.05h-2.66v1.16h3.75a8.13,8.13,0,0,0,1.31-.07v.82a9.67,9.67,0,0,0-1.31-.08h-3.34a7.12,7.12,0,0,0,1.24,2,10.44,10.44,0,0,0,1.77-1.68l.69.47-.24.22a17,17,0,0,1-1.74,1.49,9.19,9.19,0,0,0,3.18,1.86,3.2,3.2,0,0,0-.52.72,9,9,0,0,1-5.14-5h-.13a9.64,9.64,0,0,1-1.17,1.12v2.81c1-.22,1.49-.36,2.72-.72v.73c-1.56.44-2.68.72-4.45,1.06l-.57.15-.2-.84a10.35,10.35,0,0,0,1.77-.23Z"/><path class="cls-2" d="M283.7,289.47a18.27,18.27,0,0,0-.15,2.53c-.05,1.44-.09,3.08-.09,3.61,0,.15,0,.45,0,.72a1.89,1.89,0,0,0,.56,1.44,2.28,2.28,0,0,0,1.5.47,3.43,3.43,0,0,0,3.21-2.09,7,7,0,0,0,.59-1.88,3.31,3.31,0,0,0,.87.58,7.31,7.31,0,0,1-1.34,2.72,4.18,4.18,0,0,1-3.38,1.5,2.84,2.84,0,0,1-2.25-.84,3.35,3.35,0,0,1-.66-2.46c0-.8,0-1.1.11-4.88,0-.36,0-.59,0-.78a3.39,3.39,0,0,0,0-.64Z"/><path class="cls-2" d="M293.21,291.3a8.37,8.37,0,0,0,1.5.11,6.73,6.73,0,0,0,.72,0,11.52,11.52,0,0,0,.26-2.21l.95.1c-.07.29-.07.29-.22,1.14-.06.38-.09.55-.15.91a9.22,9.22,0,0,0,2.16-.41l.06.83-.34.06a18.37,18.37,0,0,1-2,.29c-.18,1-.51,2.3-.84,3.39a29.29,29.29,0,0,1-1.38,3.66l-.87-.37a23.94,23.94,0,0,0,2.25-6.63h-.82c-.42,0-.53,0-1,0h0l-.2,0Zm5.36,4.35a3.13,3.13,0,0,0-.36.46,1.44,1.44,0,0,0-.3.85c0,.72.73,1.1,2.1,1.1a8.88,8.88,0,0,0,2.65-.41l.08.9-.52.09a12.43,12.43,0,0,1-2.14.2c-2,0-3-.61-3-1.8,0-.54.17-.91.81-1.72Zm3.71-2.07a12.3,12.3,0,0,0-1.42-.09,10.43,10.43,0,0,0-3,.41l-.08-.82a13.52,13.52,0,0,1,3.18-.39l1.3,0Z"/><path class="cls-2" d="M106.16,312.78v-1.17a9.6,9.6,0,0,0,0-1.21h.93c0,.31,0,.31,0,1.12v1.26h1a10.13,10.13,0,0,0,1.4-.07v.91a10.72,10.72,0,0,0-1.39-.06H107c0,2.43-.14,3.2-.59,4.06a5.07,5.07,0,0,1-2,2,8.71,8.71,0,0,1-1.39.61,2.23,2.23,0,0,0-.54-.75,5.28,5.28,0,0,0,2.29-1.18,3.9,3.9,0,0,0,1.28-3c0-.38,0-.75.05-1.72H102.5v2a7.41,7.41,0,0,0,0,1h-1a6.23,6.23,0,0,0,0-1v-2h-1a10.72,10.72,0,0,0-1.39.06v-.91a10.13,10.13,0,0,0,1.4.07h1V311.4a6.38,6.38,0,0,0,0-1h1a5,5,0,0,0,0,1v1.42Z"/><path class="cls-2" d="M120.46,319.94a22.31,22.31,0,0,0-3.83-3.71,13.33,13.33,0,0,1-2.29,2.15,16.47,16.47,0,0,1-2.35,1.44,2.81,2.81,0,0,0-.59-.79,10,10,0,0,0,2.43-1.38,13,13,0,0,0,4.28-5.41l.06-.15a.12.12,0,0,0,0-.08h-.29l-4,.06a7.84,7.84,0,0,0-1.24.1l0-1a6.55,6.55,0,0,0,.94.06h.32l4.28,0a2.25,2.25,0,0,0,.77-.1l.5.52a2.42,2.42,0,0,0-.34.59,14.23,14.23,0,0,1-2,3.35,29.64,29.64,0,0,1,4,3.6Z"/><path class="cls-2" d="M129,314.62c0,.36-.07.81-.14,1.28a4.67,4.67,0,0,1-1.62,3.16,6.87,6.87,0,0,1-2.11,1.19,2.13,2.13,0,0,0-.56-.78,4.53,4.53,0,0,0,3-2.36,6.72,6.72,0,0,0,.48-2.49h-3.25a12.8,12.8,0,0,0-1.38.06v-.88a8.69,8.69,0,0,0,1.39.07h7a8.69,8.69,0,0,0,1.39-.07v.88a12.67,12.67,0,0,0-1.38-.06Zm-4.33-3.8a6.55,6.55,0,0,0,1.37.09h4.67a6.72,6.72,0,0,0,1.38-.09v.91a11.05,11.05,0,0,0-1.37-.06H126a10.86,10.86,0,0,0-1.36.06Z"/><path class="cls-2" d="M143.81,312.94a1.52,1.52,0,0,0-.29.28,20.7,20.7,0,0,1-2.41,2.11v4.06a6.18,6.18,0,0,0,.06,1.05h-.94a6.28,6.28,0,0,0,.05-1v-3.56a14.39,14.39,0,0,1-3.68,1.65,2.42,2.42,0,0,0-.42-.72,12.06,12.06,0,0,0,2.78-1,13.38,13.38,0,0,0,3.43-2.5,3.83,3.83,0,0,0,.67-.78Z"/><path class="cls-2" d="M155.79,313.34a7.6,7.6,0,0,0,1.41-.08v.93a10.72,10.72,0,0,0-1.39-.06h-2.72a6.62,6.62,0,0,1-.88,3.49,6.94,6.94,0,0,1-3,2.51,2.6,2.6,0,0,0-.61-.77,5.56,5.56,0,0,0,3-2.47,6.15,6.15,0,0,0,.61-2.76h-3.32a10.79,10.79,0,0,0-1.4.06v-.93a7.73,7.73,0,0,0,1.41.08h3.34c0-.44,0-.68,0-1v-.87a5.45,5.45,0,0,0-.07-1h1a5.47,5.47,0,0,0-.06,1v1.92Z"/><path class="cls-2" d="M168.45,312.39a2.5,2.5,0,0,0-.25.75,9.91,9.91,0,0,1-2.94,5,10.89,10.89,0,0,1-3.76,2.26,2.42,2.42,0,0,0-.59-.83,9.61,9.61,0,0,0,4.39-2.72,9.79,9.79,0,0,0,2.1-4.27h-6.11a8.65,8.65,0,0,0-1.34.07v-1a8.5,8.5,0,0,0,1.35.07h6.51a8.77,8.77,0,0,0-1.13-1.63l.6-.31a8.78,8.78,0,0,1,1.29,1.92l-.44.26Zm.37-3a10.4,10.4,0,0,1,1.26,1.85l-.61.36a8.81,8.81,0,0,0-1.23-1.89Z"/><path class="cls-2" d="M174.56,310.75a8.21,8.21,0,0,0-.07,1c-.09,3.25-.19,4.14-.65,5.35a7.2,7.2,0,0,1-2.07,3,2.13,2.13,0,0,0-.72-.64,6,6,0,0,0,2-2.76,16.48,16.48,0,0,0,.54-5.15,6.14,6.14,0,0,0-.05-.85Zm3-.13a4.64,4.64,0,0,0-.07,1.05l-.08,7.25a5.63,5.63,0,0,0,2.24-1.39,6.13,6.13,0,0,0,1.41-2.4,3.37,3.37,0,0,0,.67.69,6.87,6.87,0,0,1-2.41,3.09,7.82,7.82,0,0,1-1.71.87l-.39.15a1.13,1.13,0,0,0-.27.13l-.48-.55a2.12,2.12,0,0,0,.08-.82l.07-7a5.6,5.6,0,0,0,0-1.06Z"/><path class="cls-2" d="M184.3,315.32c0-.54,0-1,.06-1.57a9.88,9.88,0,0,1-1.29,1.82,1.37,1.37,0,0,0-.43-.68,11,11,0,0,0,2.26-3.47,8.26,8.26,0,0,0,.5-1.61l.79.26a22.73,22.73,0,0,1-1.13,2.64v6.51a9.88,9.88,0,0,0,.09,1.4h-.94a9.06,9.06,0,0,0,.09-1.44Zm3.07-2.21c-.46,0-.9,0-1.26.06v-.84a8,8,0,0,0,1.26.08h4.73a8.69,8.69,0,0,0,1.28-.08v.84c-.35,0-.81-.06-1.26-.06H190v2.53h1.78a8.56,8.56,0,0,0,1.24-.07v.82a11.51,11.51,0,0,0-1.23-.06H190v3.1h2.48a9.17,9.17,0,0,0,1.31-.07v.83a12.3,12.3,0,0,0-1.31-.06h-5.58a12.36,12.36,0,0,0-1.32.06v-.83a9,9,0,0,0,1.29.07h2.35v-3.1h-1.48a11.9,11.9,0,0,0-1.25.06v-.82a8.42,8.42,0,0,0,1.23.07h1.5v-2.53Zm1.09-3.21a14.79,14.79,0,0,1,2.41,1.52l-.56.61a10,10,0,0,0-2.38-1.59Z"/><path class="cls-2" d="M199.19,314.32c-1.44.28-1.86.35-3.26.56a2.55,2.55,0,0,0-.38-.74,28.5,28.5,0,0,0,6.24-1.23,5.49,5.49,0,0,0,1.34-.55l.68.66a12,12,0,0,0-1.17.37c-.73.25-1.88.57-2.65.77v1.74l4.36-.53a10.32,10.32,0,0,0,1.18-.23l.09.86h-.18a8.71,8.71,0,0,0-1,.08l-4.41.55v2.47c0,.31,0,.41.3.49a8.43,8.43,0,0,0,1.76.11,5.52,5.52,0,0,0,2.28-.23c.28-.16.35-.48.4-1.68a2.09,2.09,0,0,0,.77.34c-.09,1.22-.26,1.7-.68,2s-1,.33-2.8.33a6.73,6.73,0,0,1-2.42-.23c-.33-.16-.41-.36-.41-1v-2.51l-2.8.34a8,8,0,0,0-1.2.23l-.09-.87h.19a8.18,8.18,0,0,0,1-.07l2.88-.36Zm.62-3.73a3.14,3.14,0,0,0-.08-.73h.93a3.68,3.68,0,0,0-.07.73v.57h3.54a10.62,10.62,0,0,0,1.21-.05,4.79,4.79,0,0,0-.05.82v.79a5,5,0,0,0,.05.84h-.79v-1.69h-8.38v1.69h-.8a5.12,5.12,0,0,0,0-.84v-.79a4.86,4.86,0,0,0,0-.82,10.64,10.64,0,0,0,1.2.05h3.24Z"/><path class="cls-2" d="M211.81,316.64c-.69,1.58-1.4,2.3-2.27,2.3-1.14,0-2-1.25-2-2.92a4.88,4.88,0,0,1,5.14-4.91A4.6,4.6,0,0,1,216,312.3a4,4,0,0,1,1.17,2.92,4.37,4.37,0,0,1-2.75,4.14,9.07,9.07,0,0,1-1.82.55,1.92,1.92,0,0,0-.42-.8,7.19,7.19,0,0,0,2-.56,3.62,3.62,0,0,0,2.12-3.36,3.15,3.15,0,0,0-1.9-3,3.43,3.43,0,0,0-1.39-.3A18,18,0,0,1,211.81,316.64Zm-1.47-4.19a4.14,4.14,0,0,0-2,3.58c0,1.15.51,2,1.15,2s1-.57,1.5-1.74a16.41,16.41,0,0,0,1.09-4.44A3.82,3.82,0,0,0,210.34,312.45Z"/><path class="cls-2" d="M221.59,319a11.47,11.47,0,0,0-1.28,0v-.94a6,6,0,0,0,1.31.08h5.71v-5.79h-5.46a9.76,9.76,0,0,0-1.38.06v-1a6.78,6.78,0,0,0,1.38.08h5.76l.62,0c0,.3,0,.5,0,.93v6.14a9.77,9.77,0,0,0,.05,1.1h-.95V319Z"/><path class="cls-2" d="M232,318.79a10.39,10.39,0,0,0,3.49-.93,9.07,9.07,0,0,0,4.9-5.33,2.31,2.31,0,0,0,.73.7,10.52,10.52,0,0,1-3.66,4.58A12,12,0,0,1,233,319.6a6.85,6.85,0,0,0-.72.19Zm.77-7.44a15.86,15.86,0,0,1,2.89,2.25l-.62.75a13,13,0,0,0-2.86-2.35Z"/><path class="cls-2" d="M246,311.61a8.24,8.24,0,0,0,0-1.1h1a6.69,6.69,0,0,0-.06,1.1v1.75l4.87-.64a1.32,1.32,0,0,0,.68-.17l.59.49a2.06,2.06,0,0,0-.19.34,8.67,8.67,0,0,1-.91,1.53,9.37,9.37,0,0,1-2,1.87,2.14,2.14,0,0,0-.72-.57,6.66,6.66,0,0,0,2.72-2.79l-.28.06-.14,0-4.58.63V317c0,1.12.05,1.37.3,1.59a2.93,2.93,0,0,0,1.74.3,13.84,13.84,0,0,0,3.49-.42l.06,1a5.67,5.67,0,0,0-.72.06,20.82,20.82,0,0,1-2.85.22c-1.36,0-2.06-.17-2.44-.57s-.45-.75-.45-2v-2.89l-1.45.21a6.37,6.37,0,0,0-1.17.2l-.11-.9h.18c.2,0,.62,0,1-.08l1.52-.21Z"/><path class="cls-2" d="M263.49,311.45a1.63,1.63,0,0,1-.05-.35,1.34,1.34,0,1,1,.94,1.29l0,.08a10.77,10.77,0,0,1-2.45,4.77,11.08,11.08,0,0,1-4.37,2.84,2.4,2.4,0,0,0-.58-.83,9,9,0,0,0,6.48-7h-6.1a10.16,10.16,0,0,0-1.34.07v-1a8.26,8.26,0,0,0,1.35.08h6.14Zm.46-.36a.86.86,0,1,0,.86-.86A.85.85,0,0,0,264,311.09Z"/><path class="cls-2" d="M269.89,320.2a7.5,7.5,0,0,0,.07-1.26v-7.45a7,7,0,0,0-.07-1.22h1a8.53,8.53,0,0,0-.06,1.25v2.24a29.81,29.81,0,0,1,5.34,2.53l-.52.89a24.56,24.56,0,0,0-4.47-2.38,1.39,1.39,0,0,1-.37-.2h0a5,5,0,0,1,0,.71v3.61a9.25,9.25,0,0,0,.06,1.27Z"/><path class="cls-2" d="M280.82,315.21a10.29,10.29,0,0,0-1.37.06v-.9a8.4,8.4,0,0,0,1.39.07h2.44v-2.51h-1.77a9.35,9.35,0,0,0-1.37.06v-.92a6.07,6.07,0,0,0,1.38.09H287a6.12,6.12,0,0,0,1.39-.09V312a9.43,9.43,0,0,0-1.38-.06h-2.9v2.51h3.64a8.47,8.47,0,0,0,1.39-.07v.9a10.29,10.29,0,0,0-1.37-.06h-3.66v2.36c0,.76,0,1,.3,1.12a3.19,3.19,0,0,0,1.56.24c.45,0,1.11,0,1.78-.1a4.18,4.18,0,0,0,1-.18v.94h-.15c-.12,0-.14,0-.9.07-.44,0-1.3.07-1.86.07-2.12,0-2.65-.37-2.65-1.87v-2.64Z"/><path class="cls-2" d="M296.94,314.6c-.15,3.11-1.15,4.57-3.86,5.62a2.12,2.12,0,0,0-.57-.77c2.49-.83,3.42-2.12,3.52-4.85h-3.25a9.1,9.1,0,0,0-1.38.06v-.89a7.92,7.92,0,0,0,1.39.07h7a8,8,0,0,0,1.39-.07v.89a9.26,9.26,0,0,0-1.38-.06Zm-4.33-3.8a6.44,6.44,0,0,0,1.38.08h3.62a10.46,10.46,0,0,0,1.38-.06v.87c-.16,0-.61,0-1.37,0H294a8.1,8.1,0,0,0-1.37.06Zm7-1a9.28,9.28,0,0,1,1.17,1.9l-.61.33a9,9,0,0,0-1.16-1.94Zm1.47-.46a9.86,9.86,0,0,1,1.18,1.9l-.61.34a9.27,9.27,0,0,0-1.17-1.94Z"/><path class="cls-2" d="M306.56,310.75a8.21,8.21,0,0,0-.07,1c-.09,3.25-.19,4.14-.65,5.35a7.2,7.2,0,0,1-2.07,3,2.13,2.13,0,0,0-.72-.64,6,6,0,0,0,2-2.76,16.48,16.48,0,0,0,.54-5.15,6.14,6.14,0,0,0-.05-.85Zm3-.13a4.64,4.64,0,0,0-.07,1.05l-.08,7.25a5.63,5.63,0,0,0,2.24-1.39,6.13,6.13,0,0,0,1.41-2.4,3.37,3.37,0,0,0,.67.69,6.87,6.87,0,0,1-2.41,3.09,7.82,7.82,0,0,1-1.71.87l-.39.15a1.13,1.13,0,0,0-.27.13l-.48-.55a2.12,2.12,0,0,0,.08-.82l.07-7a5.6,5.6,0,0,0,0-1.06Z"/><rect class="cls-3" x="81.57" y="277.76" width="252.26" height="54.49"/><path class="cls-2" d="M88.5,92.8l.88.82a16,16,0,0,1-3.89,3.32c1.56.5,3.36.84,7.59.88a3.86,3.86,0,0,0-1,2A23.61,23.61,0,0,1,83.54,98a24.57,24.57,0,0,1-8.49,2A7.14,7.14,0,0,0,74,98.16a23.66,23.66,0,0,0,7.6-1.26,9.23,9.23,0,0,1-2-1.79A16.54,16.54,0,0,1,76.37,97a7,7,0,0,0-1.53-1.55,14.16,14.16,0,0,0,5.84-3.76c-.57-.17-.92-.57-.92-1.5V89.08a1.2,1.2,0,0,1-.49.08,15.36,15.36,0,0,1-2.37,3.11,6.48,6.48,0,0,0-1.62-1.07A12.84,12.84,0,0,0,78,87.8l1.51.78.3.14V87.38l2,.1c.23,0,.5.07.5.3s-.25.33-.48.4v1.13c0,.78.32.82,1,.82h2.56c.78,0,1-.29,1.14-1.6a4.2,4.2,0,0,0,1.72.84c-.4,2.38-1.3,2.4-2.27,2.4H82.82c.11,0,.47.15.47.29s-.21.17-.51.19c-.23.28-.34.38-.5.55Zm4.24-7.48v3.8H90.62V87H84.31a15,15,0,0,1,1.22,1.74L84,89.71a19.47,19.47,0,0,0-1.32-2L83.81,87H76.56v2.1h-2.2v-3.8h4.37a9.77,9.77,0,0,0-1.2-1.43l1-.34c-1.71,0-1.89,0-2.48,0a5.56,5.56,0,0,0-.65-1.87,29.41,29.41,0,0,0,3,.13,34.79,34.79,0,0,0,11.39-1.62l1.39,1.53a.7.7,0,0,1,.17.36.24.24,0,0,1-.26.23,1.28,1.28,0,0,1-.63-.29c-.63.17-1.09.27-1.93.46l1.28.57c.21.08.38.17.38.33s-.34.3-.59.32a11.92,11.92,0,0,1-1.07,1.64Zm-9.9,0a14,14,0,0,0-1-1.62l1.2-.4c-1.38.15-2.29.17-3.38.21L80.78,85l-1.09.34Zm-1.55,9A8.61,8.61,0,0,0,83.52,96a7.79,7.79,0,0,0,2.35-1.74Zm5.06-9a16.55,16.55,0,0,0,1.41-2.69c-1.32.23-1.81.34-3.93.59.17.23.86,1.43,1,1.7l-1.34.4Zm2.94,2.23a21.24,21.24,0,0,1,2.5,3.61,8.89,8.89,0,0,0-1.61,1,17,17,0,0,0-2.38-3.68Z"/><path class="cls-2" d="M108,89.21h3.43v2H108a11.61,11.61,0,0,0,3.64,5A12.82,12.82,0,0,0,110,97.86a11,11,0,0,1-2.9-4,13.27,13.27,0,0,1-4.24,6,8.92,8.92,0,0,0-1.79-1.45c3.2-2.56,4.16-4.81,4.56-7.23h-4.22v-2h4.45V85.47h-1.32a22.18,22.18,0,0,1-1.53,3,8.22,8.22,0,0,0-2.06-.8,18.38,18.38,0,0,0,2.83-7L106,81c.16,0,.48.08.48.34s-.25.29-.59.4a17.64,17.64,0,0,1-.48,1.7h5.38v2H108Zm6.35,8.53v1.8h-2.15V82.65h7.63V99.46H117.7V97.74Zm3.4-2v-11h-3.4v11Z"/><path class="cls-2" d="M140.1,90.3a1.89,1.89,0,1,1-1.89-1.89A1.91,1.91,0,0,1,140.1,90.3Z"/><path class="cls-2" d="M162.14,93.89A22,22,0,0,1,157,96.18a5.35,5.35,0,0,0-1.53-1.85A22.07,22.07,0,0,0,164,90.09a20.06,20.06,0,0,0-2.88-2.8A21.06,21.06,0,0,1,158,89.94a6,6,0,0,0-1.68-1.53,19.2,19.2,0,0,0,7.33-8.2l2.06.61c.21.07.36.17.36.28s-.09.21-.21.27l-.36.15-.65,1.09h5.65l1.18,1a25.36,25.36,0,0,1-5.59,7.48h8.17V99.9H172v-1h-7.58v1h-2.25Zm1.36-9.35c-.21.3-.44.59-.92,1.16a25.92,25.92,0,0,1,3,2.85,17.11,17.11,0,0,0,3-4ZM172,96.83V93.05h-7.58v3.78Z"/><path class="cls-2" d="M202.44,84.37v2.15h-8.37v3.61h5.64v9.71h-2.4V98.53h-8.95v1.31H186V90.13h5.72V86.52h-8.49V84.37h8.49v-3.8l2.37.08c.21,0,.59,0,.59.3s-.19.31-.57.46v3ZM188.36,96.5h8.95V92.13h-8.95Z"/><path class="cls-2" d="M228.64,81.37v4.68H214.16c-.08,5.87-.12,10.19-2,14a6.41,6.41,0,0,0-2.14-.72c1.76-3.09,2.08-6.24,2.08-13.3V81.37ZM214.16,83v1.49h12.36V83Zm8.28,11.09h5V95.8h-5v1.73h7v1.72h-15.2V97.53h6V95.8h-5.14V94.08h5.14V92.44l-4.53.27c-.13.19-.21.36-.42.36s-.28-.19-.3-.38l-.29-1.76,2.54,0c.55-.8,1.13-1.85,1.24-2.06h-3.87V87.23h14.63v1.62h-3.6a25.63,25.63,0,0,1,3.35,3.4,5.68,5.68,0,0,0-1.6,1.45A15.63,15.63,0,0,0,226,92c-1.3.17-3.07.27-3.78.32.44,0,.82,0,.82.35s-.42.34-.63.38Zm1.32-5.23H221.2c0,.23-.17.25-.69.31-.49.84-.82,1.39-1,1.68,1.38-.06,3.21-.12,5.15-.29-.57-.52-.68-.59-1.52-1.26Z"/><path class="cls-2" d="M249.35,90.3a1.89,1.89,0,1,1-1.89-1.89A1.91,1.91,0,0,1,249.35,90.3Z"/><path class="cls-2" d="M268.43,94V80.61l1.79.09c.08,0,.38,0,.38.19s-.28.31-.55.42V94h1.09V83.55l1.58.09c.27,0,.57,0,.57.29s-.3.3-.45.32v13h-1.7V96.12h-3.8v2.23h-1.7V83.53l1.83.13c.12,0,.42,0,.42.23s-.3.34-.55.42V94Zm14-5.74,1.08,1a20.3,20.3,0,0,1-3.83,6.24,12.74,12.74,0,0,0,5.4,2.59,3.82,3.82,0,0,0-1.38,1.91A14,14,0,0,1,278.08,97a19.58,19.58,0,0,1-6.14,3.13,4.47,4.47,0,0,0-1.3-2.06,13.89,13.89,0,0,0,6.09-2.5,15.58,15.58,0,0,1-2.46-4.2l1.79-.8a11.8,11.8,0,0,0,2.18,3.68,10.3,10.3,0,0,0,2.46-4h-7.08v-2h3.68v-3h-3.83v-2h3.83V80.57l2.27.06c.19,0,.44,0,.44.23s-.25.36-.53.49v1.87h5v2h-5v3Z"/><path class="cls-2" d="M303.2,94.27h8.47v1.85H303.2v3.82h-2.26V96.12h-8.37V94.27h8.37V93.05h-6.5V82.38h4.77a8.15,8.15,0,0,0,.65-1.87l2.44.31c.17,0,.3.11.3.23,0,.28-.26.32-.59.38-.17.42-.3.67-.42.95h7.6v4.81H296.61V88.3H310v4.75h-6.09c0,.25-.36.32-.66.38Zm-6.59-10.21v1.51h10.46V84.06Zm0,7.33h11.18V89.86H296.61Z"/><path class="cls-2" d="M329.57,97.09c6.26-1.31,6.68-6,6.68-7.21a5.82,5.82,0,0,0-6-5.93,31.18,31.18,0,0,1-2.32,9.61c-1.13,2.58-2.22,3.9-3.42,3.9-1.58,0-4.14-2.52-4.14-6.07A9.82,9.82,0,0,1,330.1,82c4.43,0,8.32,3,8.32,7.88A9.17,9.17,0,0,1,336,96.08,11.54,11.54,0,0,1,331,99,10.49,10.49,0,0,0,329.57,97.09Zm-7.12-5.85c0,2.11,1.11,3.66,1.93,3.66s1.41-1.6,2-3a22.1,22.1,0,0,0,1.59-7.63A7.65,7.65,0,0,0,322.45,91.24Z"/><path class="cls-2" d="M134.74,120.11h3.32v1.79h-3.15a13.65,13.65,0,0,0,2.77,2.88,4,4,0,0,0-1.36,1.51,11.68,11.68,0,0,1-1.58-2.19v5.24h-2v-5.4a15,15,0,0,1-2.66,4,5.9,5.9,0,0,0-1.81-1.11,17.53,17.53,0,0,0,3.76-5h-3.09v-1.79h3.8V118.2h-4v-1.74h2.54a15.21,15.21,0,0,0-.84-2.17l1.18-.35h-2.35v-1.75h3.46V110l2.17.16c.37,0,.48.11.48.26s-.13.21-.48.37v1.39h3.4v1.75h-1c.21.08.32.16.32.27,0,.29-.36.31-.59.36a13.3,13.3,0,0,1-.86,1.89h2.54v1.74h-3.4a.28.28,0,0,1,.08.15c0,.23-.36.33-.61.42Zm-2.5-6.17a15.21,15.21,0,0,1,.8,2.16l-1.2.36h2.35a12.52,12.52,0,0,0,1.14-2.52Zm7.06-2.4,1.32.17a19.78,19.78,0,0,0,5.84-1.45l1.24,1.62a.44.44,0,0,1,.11.27.24.24,0,0,1-.27.25c-.13,0-.23,0-.53-.21a21.68,21.68,0,0,1-5.57,1.18v3.25h6.24v2H145.6v10.63h-2.12V118.62h-2c0,1.93,0,6.83-3.15,10.72a14.91,14.91,0,0,0-2-1c2.88-3.07,3-7,3-9.54Z"/><path class="cls-2" d="M171,113.31a11.26,11.26,0,0,1,.42,1.53,19.37,19.37,0,0,0-2.06.23,10.79,10.79,0,0,0-.44-1.76h-1.41a14.58,14.58,0,0,1-1.58,2.12,9.94,9.94,0,0,0-1.78-.93,11.9,11.9,0,0,0,1.05-1.19h-2.88c.17.46.29.79.57,1.7a5.59,5.59,0,0,0-2,.21,13.68,13.68,0,0,0-.55-1.91h-1.57a14.85,14.85,0,0,1-1.62,2,8.12,8.12,0,0,0-1.81-.77,15.91,15.91,0,0,0,3.22-4.77l1.95.44c.15,0,.34.08.34.29s-.42.3-.61.3c-.19.39-.28.52-.38.73h5.57V113a16.11,16.11,0,0,0,1.89-3.19l1.78.4c.19,0,.42.1.42.35s-.42.3-.63.32a7,7,0,0,1-.31.65h6.28v1.75Zm2.45,8.55h-1.34c-1.37,0-1.56-.65-1.56-1.66v-.09a6.5,6.5,0,0,0-1.51,1,11.73,11.73,0,0,0-1.24-2.56,7.66,7.66,0,0,1-1.62,3l.4.06c.17,0,.42,0,.42.23s-.23.28-.46.34v.55h8.55v1.74h-7.27a23.58,23.58,0,0,0,7.38,3.11,5.1,5.1,0,0,0-1.39,1.76,23.88,23.88,0,0,1-7.27-3.92v4h-2.08v-3.91a20.1,20.1,0,0,1-7,3.87,8,8,0,0,0-1.66-1.71,18.37,18.37,0,0,0,7.36-3.21h-7.19v-1.74h8.53v-.87a6.2,6.2,0,0,0-.84-.58c1.7-1,2.56-2,2.56-4.77,0-.44,0-.74,0-1h6.26v4.22c0,.38,0,.5.72.5.29,0,.61,0,.71-1.87a4.76,4.76,0,0,0,1.62,1.08C175.14,121.46,174.45,121.86,173.46,121.86Zm-8.63-1.58c-1,.25-5.4,1.24-7.19,1.49-.06.23-.12.51-.38.51s-.25-.23-.29-.38l-.42-1.93c.52,0,1.51-.13,3.59-.45v-2.31H157v-1.68h7.92v1.68H162v2c1.64-.29,2.23-.42,3-.57A8.34,8.34,0,0,0,164.83,120.28Zm5.73-3.17H168a9,9,0,0,1-.13,1.15l1.27-.67a13,13,0,0,1,1.42,2.5Z"/><path class="cls-2" d="M202.29,118.47v2.32h-19v-2.32Z"/><path class="cls-2" d="M215.3,122.13a15.67,15.67,0,0,1-2.63,7.37,6.41,6.41,0,0,0-2.19-.9c2.63-3.4,2.65-6.93,2.65-10.15v-3.53h14.6v8.28H225.4v-1.07Zm13.78-11.28v2H211.14v-2ZM225.4,120v-3h-9.94c0,.63,0,.86-.06,3Z"/><path class="cls-2" d="M244,117.13A20.25,20.25,0,0,1,242.5,125c2,1.91,3.91,1.95,7.21,1.95,5.86,0,7-.17,7.8-.31a5.66,5.66,0,0,0-.8,2.18h-7.82a22.92,22.92,0,0,1-4.2-.5,7,7,0,0,1-3.07-1.66,13.66,13.66,0,0,1-2.48,2.86,4.56,4.56,0,0,0-1.7-1.16,11.62,11.62,0,0,0,2.82-3.26,11.8,11.8,0,0,1-1.87-4.47l1.74-.46a11.19,11.19,0,0,0,1,3,13.33,13.33,0,0,0,.78-4.16h-1.75c-.29.4-.5.67-.75,1a4.77,4.77,0,0,0-1.83-.91,25.44,25.44,0,0,0,3.38-5.82h-3.17v-2H243l.88,1a47.4,47.4,0,0,1-2.44,4.81Zm4.72,1.79h-3.78v-1.5h3.78V116h-4.91v-1.51h4.91v-1.41h-3.76v-1.51h3.76V110l2.1.09c.13,0,.38.1.38.29s-.14.25-.44.36v.84h4.56v2.92h1.79V116H255.3v3h-4.56v1.38h4.81v1.51h-4.81v1.37h5.91v1.6h-5.91v1.55h-2v-1.55H244v-1.6h4.68v-1.37h-3.76V120.3h3.76Zm2-5.87v1.41h2.59v-1.41Zm0,2.92v1.45h2.59V116Z"/><path class="cls-2" d="M283.94,113.26c-5.17,0-10.13,4.6-10.13,8.58,0,1.28.59,4.35,6.37,4.87a14.28,14.28,0,0,0-1,2.42c-3.3-.68-7.61-2.57-7.61-7.27,0-4.44,4-7.11,5.3-7.92a106.85,106.85,0,0,0-10.74,1.45l-.33-2.69c.39,0,.73,0,1.19,0a105.37,105.37,0,0,0,16.48-1.89Z"/><path class="cls-2" d="M115.58,171.06h-11v-2.81h11Zm-17-9.88v2.5h17V166H101.49v12.4h11.65c-3.81,3.42-9.25,5.92-15,7.69l1.91,2.6c5.94-2.07,11.94-5.3,15.54-9.12v9.76h3.24V179.5a43.82,43.82,0,0,0,15.63,9.12l1.88-2.61c-4.49-1.23-11-3.93-15.06-7.65h11.82V166H118.82v-2.28h17v-2.5h-17v-2.87h-3.24v2.87Zm17,14.92h-11v-2.87h11Zm14.43-5H118.82v-2.81H130Zm0,5H118.82v-2.87H130Z"/><path class="cls-2" d="M187.58,189.35h-3.25V172a19.52,19.52,0,0,1-3.35,3.51l-1.69-3.14c3.61-3.07,6.88-8.65,8.21-14.09l3.29.47a31.09,31.09,0,0,1-3.21,8.28ZM206,164.56a41.67,41.67,0,0,0-7.89-4.25l2-2.2a32.14,32.14,0,0,1,7.93,4.07Zm10.25,3.07H205.37v7.2h9.41v2.57h-9.41v8.25h11.77v2.6H190v-2.6h12V177.4h-9.65v-2.57H202v-7.2H190.94V165h25.32Z"/><path class="cls-2" d="M251.81,170.12H245v-2.56h6.81ZM245,158.35h-3.12v2.16h-8.25v2.28h8.25v2.53H231v2.24h10.89v2.56h-8.25v2.21h8.25v2.33h-9.52v2.24h9.52v2.57H231v2.27h10.89v3.07H245v-3.07h12.23v-2.27H245V176.9h10.74v-2.24H245v-2.33h9.82v-4.77h2.6v-2.24h-2.6v-4.81H245ZM240.4,186a36.15,36.15,0,0,1-3.72-.2,17.4,17.4,0,0,1-8.74-3.48,33.73,33.73,0,0,0,2.52-12.15h-6.52a37.34,37.34,0,0,0,6.49-8v-2.44h-10.1v2.5h6.49a38.93,38.93,0,0,1-6.37,7.61v2.77h7a25.55,25.55,0,0,1-1.49,7.15,18.24,18.24,0,0,1-2-5.39l-2.8.59a18.76,18.76,0,0,0,3.44,7.4,16.78,16.78,0,0,1-4.61,4.6l2,2.43a16.81,16.81,0,0,0,4.72-4.87c3.41,2.84,8.37,4,13.22,4H257.1l.68-2.57Zm11.41-20.63H245v-2.53h6.81Z"/><path class="cls-4" d="M147,168.86a39.86,39.86,0,0,0-1.17-5.14h7a29,29,0,0,1-1.21,5.14Zm9.77,12.75a23.28,23.28,0,0,1-5.45-4.37h6.54V174.8h-6.93v-3.5h7.64v-2.44h-4a49.33,49.33,0,0,0,1.28-5.14H158v-2.44h-7.09v-3h-3.09v3h-7.89v2.44h2.92a33.12,33.12,0,0,1,1.21,5.14h-4.81v2.44h8.57v3.5h-8.21v2.44h7.61a29.36,29.36,0,0,1-8.73,7l1.72,2.43a36.26,36.26,0,0,0,7.61-6.54v9.28h3.09V180A28,28,0,0,0,155,184Zm3.33-18.56v10.11a26.13,26.13,0,0,1-1.25,8.22,15.47,15.47,0,0,1-4.08,6.18l3,1.76c1.76-1.87,5.57-6,5.57-16.13V171.5h5.2v17.92h3.33V171.5h4.29V169H163.28v-5.91Z"/><polygon class="cls-4" points="160.74 165.38 177.46 160.77 168.89 158.31 170.4 160.19 160.09 163.04 160.74 165.38"/><path class="cls-2" d="M275.28,183c3.67-.15,11.2-.48,11.2-9.78,0-2.37-.84-7.83-8.12-8.28-.49,5-1,10.35-3.36,14.64-.52.93-2.34,4.23-5.92,4.23-4.05,0-6.08-4.5-6.08-8.7,0-7.23,5.24-13.32,14.41-13.32,10.24,0,12.92,6.84,12.92,11.76,0,11.91-10.95,12.48-14.16,12.63Zm-8.92-7.44c0,3.24,1.3,4.95,2.84,4.95,4.13,0,5.34-11.22,5.65-15.42C267.47,166.32,266.36,172.89,266.36,175.53Z"/><path class="cls-2" d="M325.43,171a24.14,24.14,0,0,1-3.91,3.18c-.57.42-1.85,1.31-3,2a25.68,25.68,0,0,0,7.89,8.88l-2.73,3a38.51,38.51,0,0,1-11.48-19.83h-.92a15.44,15.44,0,0,1-2.28,2.11c2.31,2.28,5.08,5.32,5.08,12.23,0,1.24,0,6.73-4.69,6.73H304l-.68-3.45H308c1.17,0,2.63,0,2.63-3.73,0-.87-.08-1.49-.11-1.9a44.78,44.78,0,0,1-16,7.84l-1.49-3.35a43.83,43.83,0,0,0,17-7.4,10.78,10.78,0,0,0-.71-1.76c-3,2.39-7.78,4.6-13.72,6.15l-1.53-3.25a37.62,37.62,0,0,0,13.83-5,14,14,0,0,0-1.42-1.45,35.53,35.53,0,0,1-11.2,3.87l-1.35-3.32c5.33-.59,9.67-1.83,13.15-4.35h-8.17v-2.94h21.85v2.94H315.3a27.81,27.81,0,0,0,1.74,5,35.14,35.14,0,0,0,5.44-4.52ZM308,160.06v-2.62h3.73v2.62h13.68v7.29h-3.55v-4.14h-24v4.14h-3.55v-7.29Z"/></svg>