<svg id="レイヤー_1" data-name="レイヤー 1" xmlns="http://www.w3.org/2000/svg" viewBox="0 0 1300 800"><defs><style>.cls-1{fill:none;}.cls-2{fill:#fff;}.cls-3{fill:#d61518;}</style></defs><rect class="cls-1" width="1300" height="800"/><path class="cls-2" d="M985.57,711a1.53,1.53,0,0,0-.19.18,8.6,8.6,0,0,1-2.14,1.78,13.1,13.1,0,0,0,4.67,1,2.12,2.12,0,0,0-.34.76,16.5,16.5,0,0,1-2.71-.5,10.45,10.45,0,0,1-2.32-.91,15,15,0,0,1-4.82,1.44,2,2,0,0,0-.41-.7,14.64,14.64,0,0,0,4.54-1.14,7.72,7.72,0,0,1-1.7-1.43,8.83,8.83,0,0,1-2.26,1.42,1.7,1.7,0,0,0-.5-.57,8.83,8.83,0,0,0,2.43-1.42,5.73,5.73,0,0,0,1.13-1.2c-.49-.06-.62-.18-.62-.57v-.9a4.52,4.52,0,0,0-.06-.86h.8a3.79,3.79,0,0,0-.06.79V709c0,.1,0,.14.13.17a6.15,6.15,0,0,0,1.16.06,6.8,6.8,0,0,0,1.86-.1c.19-.09.26-.29.34-.86a1.66,1.66,0,0,0,.63.33c-.28,1.22-.33,1.24-2.58,1.24h-.82a10.07,10.07,0,0,1-.63.79h3a5.27,5.27,0,0,0,1-.06Zm-5.92-4.65a4.92,4.92,0,0,0-.5-1l-1.07,0a2.26,2.26,0,0,0-.29-.65h.63a51.21,51.21,0,0,0,5.8-.35,9.58,9.58,0,0,0,2.33-.46l.57.68c-.85.15-1.4.25-1.67.28l.67.19c-.44.81-.52,1-.76,1.32h.94a11.72,11.72,0,0,0,1.34,0,8.12,8.12,0,0,0,0,.9v.69a5.54,5.54,0,0,0,.06.74h-.77V707h-8.61v1.69h-.77a5.73,5.73,0,0,0,.06-.84v-.66a6.4,6.4,0,0,0,0-.88,11,11,0,0,0,1.47.06Zm-1.86,3.45a4.15,4.15,0,0,0,1.45-2.12l.62.3a6.53,6.53,0,0,1-1.54,2.34Zm4.6-3.45a6.34,6.34,0,0,0-.53-1.15c-.88,0-1.52.08-2,.09a6.16,6.16,0,0,1,.52,1.06Zm-1.7,4.82a1.93,1.93,0,0,0,3.74,0Zm2.52-2.42a7.28,7.28,0,0,0-1.54-1.17l.42-.44a8.86,8.86,0,0,1,1.59,1.11Zm1.41-2.4a5.69,5.69,0,0,0,.75-1.5c-.92.14-1.62.21-2.82.3a7,7,0,0,1,.53,1.2Zm2.12,3.88A9.05,9.05,0,0,0,985,708l.54-.37a12.35,12.35,0,0,1,1.84,2.2Z"/><path class="cls-2" d="M990.79,706.34a8.29,8.29,0,0,1-1.11,1.74,1.63,1.63,0,0,0-.58-.52,6.12,6.12,0,0,0,1.58-3,3.09,3.09,0,0,0,.11-.65l.8.13c-.07.19-.09.28-.2.64a7.37,7.37,0,0,1-.31.94h2.15a7.45,7.45,0,0,0,1.17-.07v.82a10.9,10.9,0,0,0-1.17-.06h-.76c0,1.28,0,1.42-.08,2.22h1a6.76,6.76,0,0,0,1.13-.07v.83a7.08,7.08,0,0,0-1.13-.07h-1.07c0,.27-.05.41-.09.7a7.18,7.18,0,0,0,2.25,2.71,2.44,2.44,0,0,0-.47.71,9.43,9.43,0,0,1-2-2.52,6.28,6.28,0,0,1-2.38,3.43,2.06,2.06,0,0,0-.59-.62,5.52,5.52,0,0,0,2.56-4.41h-1.09a7.32,7.32,0,0,0-1.26.07v-.83a7.3,7.3,0,0,0,1.29.07h1.13c0-.65.06-.9.07-2.22Zm4.88,8h-.82a10.09,10.09,0,0,0,.07-1.35v-6.6a10,10,0,0,0-.07-1.25,6.29,6.29,0,0,0,1.07.06h2.38a6.43,6.43,0,0,0,1.07-.06,8.66,8.66,0,0,0-.06,1.25v6.52a11.23,11.23,0,0,0,.07,1.43h-.83v-.84h-2.88Zm0-1.53h2.88v-6.92h-2.88Z"/><path class="cls-2" d="M1002.39,705.5a9.36,9.36,0,0,0-1.27.08v-.87a9.21,9.21,0,0,0,1.27.07h8a9.5,9.5,0,0,0,1.27-.07v.87a9,9,0,0,0-1.27-.08h-4.81c-.08,1.57-.08,1.57-.17,2.32h3.6a8.94,8.94,0,0,0,1.38-.06,6.73,6.73,0,0,0-.07.93,20.67,20.67,0,0,1-.57,4.8c-.26.76-.66,1-1.73,1-.42,0-1-.05-1.83-.14a2.58,2.58,0,0,0-.19-.86,11.12,11.12,0,0,0,2.08.25c.69,0,.85-.14,1-1a26.87,26.87,0,0,0,.41-4.22h-4.21a9.91,9.91,0,0,1-1.48,3.93,9.42,9.42,0,0,1-2.2,2.26,2.25,2.25,0,0,0-.64-.63,7.43,7.43,0,0,0,3-3.65,13.67,13.67,0,0,0,.79-5Z"/><path class="cls-2" d="M1014.09,705A5.51,5.51,0,0,0,1014,704h.92a5,5,0,0,0-.09,1v2h.13a3.74,3.74,0,0,0,.85-.06v.79a4.91,4.91,0,0,0-.83,0h-.15v5.71a8.81,8.81,0,0,0,.09,1.29H1014a8,8,0,0,0,.08-1.28v-5.72h-.26a6.83,6.83,0,0,0-1,0V707a5.19,5.19,0,0,0,1,.06h.26Zm8.48.16a6,6,0,0,0,1-.07v.74a8.69,8.69,0,0,0-1.13-.05h-2.58v.87H1022a7.36,7.36,0,0,0,.91,0,4.82,4.82,0,0,0,0,.74v2.19a5.64,5.64,0,0,0,0,.76,7.31,7.31,0,0,0-.89,0h-.22v.92h.78a5.33,5.33,0,0,0,1-.07v.77a5.61,5.61,0,0,0-1-.06h-.78v1.92a.8.8,0,0,1-.31.75,1.33,1.33,0,0,1-.78.15c-.32,0-.76,0-1.18,0a1.87,1.87,0,0,0-.24-.77,10.86,10.86,0,0,0,1.42.14c.3,0,.38-.07.38-.3v-1.84h-4.4a6,6,0,0,0-1,.06v-.77a6.52,6.52,0,0,0,1,.07h4.39v-.92h-3.83a6.78,6.78,0,0,0-.86,0c0-.24,0-.47,0-.76v-2.2c0-.37,0-.44,0-.73a6.42,6.42,0,0,0,.85,0h1.93v-.87H1017a9.1,9.1,0,0,0-1.12.05v-.74a7.22,7.22,0,0,0,1.14.07h2.19v-.26a5.83,5.83,0,0,0-.08-1h.82a6.63,6.63,0,0,0-.07,1v.26Zm-4,8.88a9.25,9.25,0,0,0-1.62-1.57l.51-.44a11.64,11.64,0,0,1,1.65,1.45Zm-1.45-6.81v.9h2.07v-.9Zm0,1.47v1h2.07v-1Zm2.74-.57h2.33v-.9h-2.33Zm0,1.55h2.33v-1h-2.33Zm2.08-4.55a8,8,0,0,0-1.4-.85l.44-.44a7.74,7.74,0,0,1,1.41.81Z"/><path class="cls-2" d="M1029.18,713.81a9.64,9.64,0,0,0-1.31.06,5.49,5.49,0,0,1,.34-1.57,5.22,5.22,0,0,1,1.55-2,15,15,0,0,1,1.82-1.31c1.17-.79,1.56-1.32,1.56-2,0-.91-.76-1.49-2-1.49a2,2,0,0,0-1.72.77,2.48,2.48,0,0,0-.42,1.2l-1-.16a3.24,3.24,0,0,1,.75-1.71,3,3,0,0,1,2.39-.92c1.8,0,2.95.9,2.95,2.31a2.53,2.53,0,0,1-.7,1.69,9.67,9.67,0,0,1-2,1.53,6.39,6.39,0,0,0-1.71,1.46A3.31,3.31,0,0,0,1029,713h3.79a10.36,10.36,0,0,0,1.45-.08v1c-.48,0-.87-.07-1.46-.07Z"/><path class="cls-2" d="M1036.7,713.15a2.89,2.89,0,0,1-.71-1.1,8.12,8.12,0,0,1-.45-2.74,6.86,6.86,0,0,1,.69-3.23,3.1,3.1,0,0,1,5.55.47,8.11,8.11,0,0,1,.45,2.76,6.19,6.19,0,0,1-.83,3.43,2.9,2.9,0,0,1-2.52,1.25A3,3,0,0,1,1036.7,713.15Zm.69-7.11a2.3,2.3,0,0,0-.53.87,7.32,7.32,0,0,0-.37,2.4,6.61,6.61,0,0,0,.56,2.83,2,2,0,0,0,1.84,1,2,2,0,0,0,1.46-.56,2.38,2.38,0,0,0,.56-.92,7.43,7.43,0,0,0,.37-2.41,6.65,6.65,0,0,0-.54-2.76,2,2,0,0,0-1.86-1.09A2,2,0,0,0,1037.39,706Z"/><path class="cls-2" d="M1044.52,713.15a2.8,2.8,0,0,1-.72-1.1,8.37,8.37,0,0,1-.45-2.74,6.86,6.86,0,0,1,.69-3.23,2.92,2.92,0,0,1,2.66-1.47,3,3,0,0,1,2.89,1.94,8.11,8.11,0,0,1,.45,2.76,6.19,6.19,0,0,1-.83,3.43,2.89,2.89,0,0,1-2.52,1.25A2.93,2.93,0,0,1,1044.52,713.15Zm.69-7.11a2.46,2.46,0,0,0-.54.87,7.32,7.32,0,0,0-.37,2.4,6.61,6.61,0,0,0,.56,2.83,2,2,0,0,0,1.84,1,2,2,0,0,0,1.46-.56,2.16,2.16,0,0,0,.56-.92,7.43,7.43,0,0,0,.37-2.41,6.66,6.66,0,0,0-.53-2.76,2,2,0,0,0-1.87-1.09A1.94,1.94,0,0,0,1045.21,706Z"/><path class="cls-2" d="M1052.7,708.23a5,5,0,0,1-.1.53,2.87,2.87,0,0,1,2.08-.82,3,3,0,0,1,2.14.81,2.74,2.74,0,0,1,.8,2.09,3,3,0,0,1-3.21,3.14,3.19,3.19,0,0,1-2.27-.81,3.61,3.61,0,0,1-.75-1.12l1-.28a1.68,1.68,0,0,0,.38.69,2.19,2.19,0,0,0,1.68.7,2.13,2.13,0,0,0,2.23-2.27,2,2,0,0,0-2.08-2.16,2.43,2.43,0,0,0-1.56.5,1.47,1.47,0,0,0-.55.71l-.89-.08a11.36,11.36,0,0,0,.18-1.23l.26-2.69c0-.34,0-.48,0-.71a3.76,3.76,0,0,0,0-.51,7.79,7.79,0,0,0,1.26.06h2.45a7,7,0,0,0,1.39-.1v1a8.39,8.39,0,0,0-1.39-.09H1053Z"/><path class="cls-2" d="M1062.46,706h.43l.68,0c.66,0,.73-.06,2.2-.14l1.86-.12,2-.11.68,0a7.71,7.71,0,0,0,1.41-.13l.07.88a5,5,0,0,0-1.33.17,5.79,5.79,0,0,0-2.28,1.18,3.64,3.64,0,0,0-1.46,2.75,2.34,2.34,0,0,0,1.66,2.2,6.19,6.19,0,0,0,1.79.38h.11l-.15,1-.37-.07a6,6,0,0,1-2.57-.91,2.9,2.9,0,0,1-1.32-2.43,4.51,4.51,0,0,1,2.23-3.65,8.57,8.57,0,0,1,1.13-.63,23.45,23.45,0,0,1-2.62.26c-2.36.17-3.67.29-4.1.39Zm8,1.77a9,9,0,0,1,1.23,1.84l-.61.36a7.89,7.89,0,0,0-1.21-1.89Zm1.35-.66A9.94,9.94,0,0,1,1073,709l-.59.33a9.19,9.19,0,0,0-1.22-1.87Z"/><path class="cls-2" d="M1075.36,705.9a8.47,8.47,0,0,0-1.4.07v-.83a9.1,9.1,0,0,0,1.44.08h3.38v-.1a6.09,6.09,0,0,0-.09-1.15h.88a6.62,6.62,0,0,0-.08,1.15v.1H1083a8.33,8.33,0,0,0,1.49-.08V706a10.73,10.73,0,0,0-1.46-.07h-3.58v1h2.59a8.56,8.56,0,0,0,1.36-.06,9.63,9.63,0,0,0,0,1.25v1.75a8,8,0,0,0,0,1.26,7.53,7.53,0,0,0-1.36-.07h-2a9.34,9.34,0,0,0,4.89,2.64,3.24,3.24,0,0,0-.45.75,13.11,13.11,0,0,1-2.67-1.18,9,9,0,0,1-2.36-2c0,.31,0,.7,0,.93v1.21a6.63,6.63,0,0,0,.08,1.32h-.88a7.78,7.78,0,0,0,.09-1.32v-1.2c0-.23,0-.58,0-.92a7.2,7.2,0,0,1-1.4,1.36,11.22,11.22,0,0,1-3.32,1.73,3.23,3.23,0,0,0-.44-.71,9.72,9.72,0,0,0,2.89-1.27,6.84,6.84,0,0,0,1.66-1.39h-1.73a7.39,7.39,0,0,0-1.38.07v-.16a8.31,8.31,0,0,0,0-1.1V708.1a10.36,10.36,0,0,0-.05-1.29,6.71,6.71,0,0,0,1.32.07h2.37v-1Zm.52,1.6v1.1h2.9v-1.1Zm0,1.7v1.2h2.9v-1.2Zm3.61-.6h3.16v-1.1h-3.16Zm0,1.8h3.16v-1.2h-3.16Z"/><path class="cls-2" d="M1086.78,710.48a4.17,4.17,0,0,0-1,.08v-.79a4.35,4.35,0,0,0,1,.07h1.45v-.63a2.52,2.52,0,0,0-.06-.48h.79a2.52,2.52,0,0,0,0,.48v.63h1.31a4.63,4.63,0,0,0,1-.07v.77a6.15,6.15,0,0,0-1-.06h-1.13a4.94,4.94,0,0,0,1.68,1.51,3.3,3.3,0,0,0-.42.65,6.2,6.2,0,0,1-1.48-1.64c0,.26,0,.6,0,1v1.73a7.67,7.67,0,0,0,.06,1h-.82a6.21,6.21,0,0,0,.08-1v-1.69c0-.29,0-.6,0-1a7.07,7.07,0,0,1-2.24,2.64,2.94,2.94,0,0,0-.46-.67,8,8,0,0,0,1.55-1.3,5.92,5.92,0,0,0,.87-1.28Zm2.12-2.65a6.25,6.25,0,0,0,.79-1.94l.72.22a13.53,13.53,0,0,1-.81,1.72h.7a6.14,6.14,0,0,0,1-.05v.79a5.21,5.21,0,0,0-1-.06h-3.53a5.31,5.31,0,0,0-1,.06v-.79a6.33,6.33,0,0,0,1,.05Zm1.21-2.73a5.3,5.3,0,0,0,1-.06v.8a5.81,5.81,0,0,0-1-.06h-3a5.79,5.79,0,0,0-1,.06V705a5.52,5.52,0,0,0,1,.06h1.19v-.32a4.71,4.71,0,0,0-.06-.83h.86a4.56,4.56,0,0,0-.06.83v.32Zm-2.72,2.63a6.59,6.59,0,0,0-.68-1.6l.63-.23a7.07,7.07,0,0,1,.68,1.6Zm8.14,0a5.73,5.73,0,0,0,1.09-.07v.82a5.78,5.78,0,0,0-1-.06h-.44v5.18a5.91,5.91,0,0,0,.07,1.19h-.92a6.94,6.94,0,0,0,.07-1.19v-5.18h-1.86v.46a12.91,12.91,0,0,1-.68,4.27,6.13,6.13,0,0,1-.88,1.63,2.54,2.54,0,0,0-.68-.5c1.15-1.4,1.5-3.07,1.5-7a21.39,21.39,0,0,0-.06-2.2h.15a11.29,11.29,0,0,0,2.81-.54,4.05,4.05,0,0,0,1.1-.51l.6.66-.43.17a14.62,14.62,0,0,1-3.42.88v2Z"/><path class="cls-2" d="M1099,709.42c0-.54,0-1,.06-1.56a10.17,10.17,0,0,1-1.28,1.8,1.35,1.35,0,0,0-.42-.67,10.91,10.91,0,0,0,2.23-3.44,8.36,8.36,0,0,0,.5-1.59l.78.25a21.42,21.42,0,0,1-1.11,2.61v6.46a9.92,9.92,0,0,0,.08,1.39h-.93a8.92,8.92,0,0,0,.09-1.43Zm3-2.19a11.77,11.77,0,0,0-1.25.06v-.83a9.6,9.6,0,0,0,1.25.07h4.7a10.4,10.4,0,0,0,1.26-.07v.83a11.63,11.63,0,0,0-1.25-.06h-2.12v2.51h1.76a8.39,8.39,0,0,0,1.24-.08v.81c-.36,0-.8-.06-1.23-.06h-1.77v3.08h2.46a9.11,9.11,0,0,0,1.3-.07v.82c-.36,0-.81-.06-1.3-.06h-5.54c-.5,0-1,0-1.31.06v-.82a9.14,9.14,0,0,0,1.29.07h2.33v-3.08h-1.48c-.43,0-.86,0-1.23.06v-.81a8.19,8.19,0,0,0,1.22.08h1.49v-2.51Zm1.08-3.19a14.82,14.82,0,0,1,2.39,1.51l-.56.61a9.31,9.31,0,0,0-2.35-1.58Z"/><path class="cls-2" d="M1110.69,709.46a5.34,5.34,0,0,0,.73,1.8,9,9,0,0,0,.68-2.66h-1c-.34,0-.75,0-1.08,0a21.1,21.1,0,0,0,1.92-3.35h-1.42a3.93,3.93,0,0,0-.81.06v-.77a4.75,4.75,0,0,0,.82.06h1.13a5.8,5.8,0,0,0,.88,0l.34.45c-.07.11-.14.25-.26.49a20.56,20.56,0,0,1-1.4,2.43h.77a6.34,6.34,0,0,0,.94,0,4.89,4.89,0,0,0-.1.59,11.13,11.13,0,0,1-.94,3.42c1,1.29,2.29,1.75,4.78,1.75,1.18,0,2.62-.07,3.71-.17a2.68,2.68,0,0,0-.25.82c-.88,0-2.38,0-3.29,0-2.82,0-4-.41-5.28-1.83a8.6,8.6,0,0,1-1.65,2.09,2,2,0,0,0-.56-.58,7.64,7.64,0,0,0,1.75-2.1,8,8,0,0,1-.81-1.55c-.14-.33-.14-.33-.3-.65Zm5.21-4h-1.52a5.48,5.48,0,0,0-.85.05v-.7a4.26,4.26,0,0,0,.88.06h1.49a6.87,6.87,0,0,0-.06-.91h.81a5.17,5.17,0,0,0-.06.91h1.88a6.56,6.56,0,0,0,.87,0c0,.06,0,.06,0,.2s0,.37,0,.55v.84h0a4.84,4.84,0,0,0,.9-.07V707a5.61,5.61,0,0,0-.9,0h0v1c0,.25,0,.56,0,.68-.38,0-.54,0-.84,0h-1.91v1h1.91a6.83,6.83,0,0,0,1-.06v.7a10.1,10.1,0,0,0-1.07,0h-1.89v1H1119a6.37,6.37,0,0,0,1.1-.07v.72a10.53,10.53,0,0,0-1.1,0h-2.44v.29a7.79,7.79,0,0,0,.06,1.11h-.81a8.23,8.23,0,0,0,.06-1.1v-.3H1114a6.59,6.59,0,0,0-1.06.06v-.74a6.21,6.21,0,0,0,1.07.07h1.89v-1h-1.59a8.67,8.67,0,0,0-1,.06v-.71a5.59,5.59,0,0,0,1,.06h1.59v-1h-1.55a7.28,7.28,0,0,0-.84,0V708a4.1,4.1,0,0,0,.87.06h1.52v-1h-2a6.54,6.54,0,0,0-1.1.06v-.73a6.34,6.34,0,0,0,1.11.07h2Zm2.73,1v-1h-2v1Zm-2,1.63h2v-1h-2Z"/><path class="cls-2" d="M1121.76,707.36a23.9,23.9,0,0,0,2.63-.31,14.74,14.74,0,0,0,.35-2.52v-.15l1,.1a7.22,7.22,0,0,0-.22,1.14c0,.3-.16.85-.25,1.36a5.37,5.37,0,0,1,.7,0,2.3,2.3,0,0,1,1.71.5,2.39,2.39,0,0,1,.58,1.92,8.25,8.25,0,0,1-.79,4.08,1.24,1.24,0,0,1-1.17.56,4.47,4.47,0,0,1-1.79-.46,3.17,3.17,0,0,0,0-.43,1.91,1.91,0,0,0,0-.46,4.57,4.57,0,0,0,1.78.55c.29,0,.52-.19.67-.58a9.2,9.2,0,0,0,.5-3.3c0-1.26-.35-1.66-1.46-1.66a6.47,6.47,0,0,0-.86.06,22.9,22.9,0,0,1-2.56,6.46l-.81-.47a17.48,17.48,0,0,0,2.54-5.92,16.17,16.17,0,0,0-2.39.42Zm7.81-1.09a10.93,10.93,0,0,1,2.48,4.2l-.76.43a10,10,0,0,0-2.42-4.27Zm.53-2a9.29,9.29,0,0,1,1.23,1.85l-.6.35a9.07,9.07,0,0,0-1.22-1.89Zm1.35-.64a9.87,9.87,0,0,1,1.22,1.85l-.6.34a8.14,8.14,0,0,0-1.21-1.87Z"/><path class="cls-2" d="M1136.88,710.54a12,12,0,0,0,.09-1.71,7,7,0,0,0-1,0v-.58a9.91,9.91,0,0,1-2.3,1.36,2.49,2.49,0,0,0-.48-.61,8.72,8.72,0,0,0,2.71-1.62,10.39,10.39,0,0,0-1.79-1.56l.56-.46a16.81,16.81,0,0,1,1.75,1.53,7.66,7.66,0,0,0,1.5-1.85h-2.24a4.88,4.88,0,0,0-.78.06v-.76a5.7,5.7,0,0,0,.86.06H1138a7.85,7.85,0,0,0,1-.05A3.64,3.64,0,0,0,1140,706a7.5,7.5,0,0,0,1.24-1.53l.65.43a1.76,1.76,0,0,0-.25.28,12.49,12.49,0,0,1-1.22,1.28c.33.33.61.59,1,.93a8.1,8.1,0,0,0,1.41-1.64l.65.42-.57.63a10,10,0,0,1-1,1,9,9,0,0,0,2.23,1.17,3.18,3.18,0,0,0-.46.69,11.33,11.33,0,0,1-2.27-1.34v.57a7.56,7.56,0,0,0-1,0h-.2v1.71h2.11a7.41,7.41,0,0,0,1.19-.07v.81a7.92,7.92,0,0,0-1.19-.07h-2.11v2.25c0,.19,0,.26.23.32a3.92,3.92,0,0,0,.92.07c.93,0,1.26-.06,1.42-.25a2.8,2.8,0,0,0,.31-1.34,2,2,0,0,0,.77.34,3.08,3.08,0,0,1-.53,1.57c-.25.29-.77.38-2,.38-1.48,0-1.81-.17-1.81-.89v-2.45h-2a3.94,3.94,0,0,1-.84,1.87,5.73,5.73,0,0,1-1.35,1.13,6.58,6.58,0,0,1-1.19.54,2.94,2.94,0,0,0-.56-.68,5.7,5.7,0,0,0,1.82-.84,3,3,0,0,0,1.37-2H1135a8,8,0,0,0-1.18.07v-.81a7.35,7.35,0,0,0,1.18.07Zm3.52-2.35c.41,0,.6,0,.85,0a9.08,9.08,0,0,1-2.56-3,10.87,10.87,0,0,1-2.52,3c.27,0,.48,0,.89,0Zm-2.68.64a13.73,13.73,0,0,1-.09,1.71h1.87v-1.71Z"/><path class="cls-2" d="M1148.49,711.23a14.11,14.11,0,0,1-2.83,1.58,2.51,2.51,0,0,0-.47-.67,10.79,10.79,0,0,0,4.29-2.58h-2.87a9.81,9.81,0,0,0-1.32.07v-.81a7.09,7.09,0,0,0,1.32.07h3.51v-1.15h-2.46a8,8,0,0,0-1.21,0V707a10.63,10.63,0,0,0,1.21,0h2.46V706H1147a8.25,8.25,0,0,0-1.26.06v-.79a8.19,8.19,0,0,0,1.28.07h3.06V705a5.29,5.29,0,0,0-.07-1h.87a4.82,4.82,0,0,0-.08,1v.27h3.27a8.55,8.55,0,0,0,1.31-.07V706a8.62,8.62,0,0,0-1.28-.06h-3.3v1.11h2.64a11.48,11.48,0,0,0,1.26,0v.76a8.62,8.62,0,0,0-1.26,0h-2.64v1.15h3.73a7.92,7.92,0,0,0,1.29-.07v.81a9.62,9.62,0,0,0-1.29-.07h-3.32a6.74,6.74,0,0,0,1.24,1.92,9.38,9.38,0,0,0,1.74-1.66l.69.46-.24.23A16.58,16.58,0,0,1,1153,712a9,9,0,0,0,3.15,1.85,2.83,2.83,0,0,0-.51.71,9,9,0,0,1-5.1-5h-.13a10.07,10.07,0,0,1-1.15,1.1v2.78c1-.21,1.47-.35,2.68-.71v.73c-1.54.44-2.65.71-4.41,1l-.56.15-.2-.83a12.73,12.73,0,0,0,1.76-.23Z"/><path class="cls-2" d="M1160.32,704.61a19.88,19.88,0,0,0-.15,2.51c-.05,1.43-.08,3-.08,3.58,0,.14,0,.44,0,.71a1.86,1.86,0,0,0,.56,1.43,2.22,2.22,0,0,0,1.48.46,3.41,3.41,0,0,0,3.19-2.07,6.92,6.92,0,0,0,.58-1.86,3.67,3.67,0,0,0,.86.57,7.3,7.3,0,0,1-1.32,2.7,4.19,4.19,0,0,1-3.35,1.48,2.83,2.83,0,0,1-2.24-.83,3.31,3.31,0,0,1-.65-2.44c0-.79,0-1.09.11-4.83,0-.36,0-.59,0-.78a3.28,3.28,0,0,0,0-.63Z"/><path class="cls-2" d="M1169.74,706.42a8.32,8.32,0,0,0,1.49.11,6.47,6.47,0,0,0,.71,0,11.32,11.32,0,0,0,.26-2.18l.94.09c-.07.29-.07.29-.21,1.13-.06.38-.1.55-.15.9a9.74,9.74,0,0,0,2.14-.4l0,.82-.33.06a15.91,15.91,0,0,1-2,.28c-.18.94-.51,2.29-.83,3.37a31,31,0,0,1-1.37,3.62l-.86-.36a24,24,0,0,0,2.23-6.58H1171c-.41,0-.52,0-1,0h-.25Zm5.32,4.31a3.81,3.81,0,0,0-.36.46,1.41,1.41,0,0,0-.3.84c0,.71.73,1.09,2.08,1.09a8.75,8.75,0,0,0,2.63-.4l.08.89-.52.08a11.24,11.24,0,0,1-2.12.21c-1.94,0-3-.61-3-1.79,0-.53.16-.9.79-1.71Zm3.67-2.05a11.72,11.72,0,0,0-1.4-.08,10.21,10.21,0,0,0-3,.4l-.09-.81a13.3,13.3,0,0,1,3.15-.39l1.3,0Z"/><path class="cls-2" d="M984.37,727.71v-1.16a9.5,9.5,0,0,0,0-1.2h.92a9.74,9.74,0,0,0,0,1.11v1.25h1a8.62,8.62,0,0,0,1.39-.07v.9a10.55,10.55,0,0,0-1.38-.06h-1c0,2.41-.14,3.17-.58,4a5,5,0,0,1-1.94,2,8.38,8.38,0,0,1-1.37.61,2.05,2.05,0,0,0-.54-.75,5.3,5.3,0,0,0,2.27-1.17,3.85,3.85,0,0,0,1.27-3c0-.38,0-.75.05-1.71h-3.61v2a7.75,7.75,0,0,0,0,1h-1a6.16,6.16,0,0,0,0-1v-1.95h-1a10.55,10.55,0,0,0-1.38.06v-.9a8.62,8.62,0,0,0,1.39.07h1v-1.37a6.32,6.32,0,0,0,0-1h1a6.17,6.17,0,0,0,0,1v1.4Z"/><path class="cls-2" d="M998.55,734.8a22.39,22.39,0,0,0-3.81-3.67,12.74,12.74,0,0,1-2.27,2.13,14.82,14.82,0,0,1-2.33,1.42,2.69,2.69,0,0,0-.58-.78,9.37,9.37,0,0,0,2.41-1.37,12.84,12.84,0,0,0,4.25-5.36.59.59,0,0,1,.06-.14.41.41,0,0,0,0-.08H996l-4,.06a7.87,7.87,0,0,0-1.23.09l0-1a5.3,5.3,0,0,0,.94.06h.31l4.24-.05a2.2,2.2,0,0,0,.76-.09l.5.51a2.07,2.07,0,0,0-.33.58,15,15,0,0,1-2,3.33,30.25,30.25,0,0,1,4,3.56Z"/><path class="cls-2" d="M1007,729.54a11.24,11.24,0,0,1-.13,1.26,4.65,4.65,0,0,1-1.61,3.14,6.86,6.86,0,0,1-2.09,1.17,2.06,2.06,0,0,0-.56-.77,4.52,4.52,0,0,0,3-2.34,7,7,0,0,0,.48-2.46h-3.22a10.38,10.38,0,0,0-1.37.06v-.88a8.48,8.48,0,0,0,1.38.07h7a8.55,8.55,0,0,0,1.38-.07v.88a10.38,10.38,0,0,0-1.37-.06Zm-4.29-3.77a6.72,6.72,0,0,0,1.37.08h4.62a6.72,6.72,0,0,0,1.37-.08v.9a11,11,0,0,0-1.36-.06H1004a10.9,10.9,0,0,0-1.35.06Z"/><path class="cls-2" d="M1021.68,727.87a1.51,1.51,0,0,0-.29.28,19.57,19.57,0,0,1-2.39,2.09v4a7.18,7.18,0,0,0,.06,1h-.92a8,8,0,0,0,0-1v-3.53a13.55,13.55,0,0,1-3.65,1.64,2.05,2.05,0,0,0-.41-.71,12.35,12.35,0,0,0,2.76-1,13.3,13.3,0,0,0,3.4-2.47,4.07,4.07,0,0,0,.66-.78Z"/><path class="cls-2" d="M1033.56,728.27a7.27,7.27,0,0,0,1.39-.09v.93a10.46,10.46,0,0,0-1.38-.06h-2.69a6.53,6.53,0,0,1-.87,3.46,6.86,6.86,0,0,1-3,2.48,2.72,2.72,0,0,0-.61-.76,5.5,5.5,0,0,0,3-2.45,6,6,0,0,0,.61-2.73h-3.3a10.55,10.55,0,0,0-1.38.06v-.93a7.41,7.41,0,0,0,1.39.09H1030c0-.44,0-.68,0-1v-.86a5.55,5.55,0,0,0-.06-1h1a5.41,5.41,0,0,0-.06,1v1.91Z"/><path class="cls-2" d="M1046.11,727.33c-.08.1-.1.15-.25.73a10,10,0,0,1-2.92,4.94,10.84,10.84,0,0,1-3.73,2.23,2.5,2.5,0,0,0-.58-.82,9.5,9.5,0,0,0,4.35-2.7,9.66,9.66,0,0,0,2.08-4.23h-6a9.87,9.87,0,0,0-1.33.07v-.95a8.37,8.37,0,0,0,1.34.07h6.44a8.12,8.12,0,0,0-1.11-1.61l.59-.31a8.08,8.08,0,0,1,1.28,1.9l-.44.26Zm.36-3a9.7,9.7,0,0,1,1.25,1.83l-.6.36a8.71,8.71,0,0,0-1.23-1.87Z"/><path class="cls-2" d="M1052.16,725.7a5.4,5.4,0,0,0-.07,1c-.09,3.22-.19,4.1-.64,5.3a7.37,7.37,0,0,1-2.06,2.94,2.1,2.1,0,0,0-.71-.64,5.93,5.93,0,0,0,2-2.74,16.19,16.19,0,0,0,.53-5.1,6.25,6.25,0,0,0,0-.84Zm2.95-.13a4.54,4.54,0,0,0-.07,1l-.07,7.18a5.46,5.46,0,0,0,2.21-1.38,5.93,5.93,0,0,0,1.4-2.37,3.13,3.13,0,0,0,.67.69,6.84,6.84,0,0,1-2.39,3,7.73,7.73,0,0,1-1.7.87l-.38.14-.28.13-.47-.54a2.09,2.09,0,0,0,.08-.81l.07-7a5.53,5.53,0,0,0,0-1.05Z"/><path class="cls-2" d="M1061.81,730.23c0-.54,0-1,.06-1.56a10.38,10.38,0,0,1-1.27,1.81,1.49,1.49,0,0,0-.43-.68,10.8,10.8,0,0,0,2.23-3.44,8.14,8.14,0,0,0,.5-1.59l.79.25a24.2,24.2,0,0,1-1.12,2.62v6.45a9.83,9.83,0,0,0,.08,1.39h-.93a8.83,8.83,0,0,0,.09-1.43Zm3-2.19a11.77,11.77,0,0,0-1.25.06v-.83a8.09,8.09,0,0,0,1.25.07h4.7a8.68,8.68,0,0,0,1.26-.07v.83a11.63,11.63,0,0,0-1.25-.06h-2.12v2.51h1.76a10.29,10.29,0,0,0,1.24-.07v.81a11.65,11.65,0,0,0-1.23-.06h-1.77v3.07h2.46a9,9,0,0,0,1.3-.07v.82c-.36,0-.81-.06-1.3-.06h-5.54c-.5,0-.95,0-1.3.06v-.82a8.89,8.89,0,0,0,1.28.07h2.33v-3.07h-1.47a11.84,11.84,0,0,0-1.24.06v-.81a10.05,10.05,0,0,0,1.22.07h1.49V728Zm1.08-3.18a14.76,14.76,0,0,1,2.39,1.5l-.56.61a9.59,9.59,0,0,0-2.35-1.58Z"/><path class="cls-2" d="M1076.57,729.24c-1.43.27-1.85.35-3.24.55a2.48,2.48,0,0,0-.37-.73,28,28,0,0,0,6.18-1.22,5.49,5.49,0,0,0,1.34-.55l.66.66c-.27.07-.27.07-1.15.36s-1.87.57-2.63.76v1.73l4.32-.52a10.1,10.1,0,0,0,1.17-.23l.09.86h-.18a8.06,8.06,0,0,0-1,.07l-4.38.54V734c0,.31.05.41.3.49a8.24,8.24,0,0,0,1.75.11,5.4,5.4,0,0,0,2.25-.23c.28-.15.35-.48.4-1.66a2.12,2.12,0,0,0,.76.33c-.09,1.21-.25,1.69-.67,2s-1,.32-2.78.32a6.63,6.63,0,0,1-2.4-.23c-.32-.15-.4-.35-.4-.95v-2.48l-2.77.33a7.63,7.63,0,0,0-1.19.23l-.1-.86h.19a7.91,7.91,0,0,0,1-.07l2.86-.36Zm.61-3.7a3,3,0,0,0-.08-.72h.93a3.51,3.51,0,0,0-.07.72v.56h3.5c.51,0,.82,0,1.2,0a6.07,6.07,0,0,0,0,.8v.79a6.28,6.28,0,0,0,0,.83h-.78V726.8h-8.31v1.68h-.78a6.47,6.47,0,0,0,0-.83v-.79a6.17,6.17,0,0,0,0-.8c.38,0,.67,0,1.18,0h3.21Z"/><path class="cls-2" d="M1089.08,731.54c-.69,1.56-1.4,2.28-2.25,2.28-1.13,0-2-1.24-2-2.9a4.81,4.81,0,0,1,5.08-4.86,4.6,4.6,0,0,1,3.27,1.17,4,4,0,0,1,1.15,2.9,4.31,4.31,0,0,1-2.72,4.1,8.84,8.84,0,0,1-1.8.55,1.92,1.92,0,0,0-.42-.8,7.14,7.14,0,0,0,2-.55,3.61,3.61,0,0,0,2.1-3.33,3.14,3.14,0,0,0-1.89-3,3.39,3.39,0,0,0-1.38-.29A18.13,18.13,0,0,1,1089.08,731.54Zm-1.47-4.15a4.09,4.09,0,0,0-1.93,3.54c0,1.14.5,2,1.14,2s1-.56,1.48-1.72a16.48,16.48,0,0,0,1.09-4.4A3.7,3.7,0,0,0,1087.61,727.39Z"/><path class="cls-2" d="M1098.77,733.84a8.29,8.29,0,0,0-1.27,0V733a5.91,5.91,0,0,0,1.29.08h5.66v-5.74H1099a9.44,9.44,0,0,0-1.36.06v-1a6.56,6.56,0,0,0,1.36.08h5.71l.62,0a8.36,8.36,0,0,0,0,.93v6.08a8.91,8.91,0,0,0,.06,1.08h-1v-.71Z"/><path class="cls-2" d="M1109.12,733.66a10.3,10.3,0,0,0,3.46-.91,9,9,0,0,0,4.84-5.29,2.53,2.53,0,0,0,.73.7,10.45,10.45,0,0,1-3.62,4.54,12,12,0,0,1-4.44,1.77c-.32.07-.41.1-.71.19Zm.76-7.37a15.14,15.14,0,0,1,2.86,2.24l-.62.73a13.2,13.2,0,0,0-2.82-2.32Z"/><path class="cls-2" d="M1123,726.55a6.48,6.48,0,0,0,0-1.09h1a6.48,6.48,0,0,0-.06,1.09v1.74l4.82-.64a1.29,1.29,0,0,0,.68-.17l.58.49-.19.33a7.7,7.7,0,0,1-.9,1.52,9,9,0,0,1-2,1.86,2,2,0,0,0-.71-.57,6.63,6.63,0,0,0,2.69-2.76l-.27.06-.14,0-4.54.63v2.81c0,1.1.05,1.35.3,1.57s.74.29,1.72.29a13.62,13.62,0,0,0,3.46-.41l.06,1a5.83,5.83,0,0,0-.72.06,21.86,21.86,0,0,1-2.81.21c-1.36,0-2-.16-2.43-.55s-.44-.75-.44-2v-2.86l-1.44.2a9,9,0,0,0-1.16.2l-.11-.89h.18a10,10,0,0,0,1-.08l1.51-.2Z"/><path class="cls-2" d="M1140.3,726.39a1.14,1.14,0,0,1,0-.35,1.35,1.35,0,0,1,2.7,0,1.36,1.36,0,0,1-1.36,1.36,1.76,1.76,0,0,1-.42-.06l0,.07a10.64,10.64,0,0,1-2.42,4.73,11.08,11.08,0,0,1-4.33,2.82,2.4,2.4,0,0,0-.58-.82,9.58,9.58,0,0,0,4.35-2.7,9.78,9.78,0,0,0,2.08-4.23h-6a8.42,8.42,0,0,0-1.33.07v-.95a8.3,8.3,0,0,0,1.34.07h6.09Zm.45-.36a.85.85,0,1,0,.85-.84A.85.85,0,0,0,1140.75,726Z"/><path class="cls-2" d="M1146.64,735.07a8.83,8.83,0,0,0,.07-1.25v-7.38a8.13,8.13,0,0,0-.07-1.22h1a7.22,7.22,0,0,0-.06,1.24v2.22a30,30,0,0,1,5.29,2.51l-.51.88a24.58,24.58,0,0,0-4.44-2.35,1.1,1.1,0,0,1-.36-.21l0,0a3.65,3.65,0,0,1,0,.7v3.58a7.86,7.86,0,0,0,.06,1.26Z"/><path class="cls-2" d="M1157.47,730.12a10.38,10.38,0,0,0-1.37.06v-.89a8.34,8.34,0,0,0,1.38.07h2.43v-2.5h-1.76a11,11,0,0,0-1.36.06V726a6.78,6.78,0,0,0,1.37.08h5.47A6.84,6.84,0,0,0,1165,726v.9a11.05,11.05,0,0,0-1.37-.06h-2.88v2.5h3.62a8.41,8.41,0,0,0,1.38-.07v.89a10.38,10.38,0,0,0-1.37-.06h-3.63v2.34c0,.75,0,.95.3,1.11a3.3,3.3,0,0,0,1.55.24c.45,0,1.1,0,1.77-.1a4.51,4.51,0,0,0,1-.18v.93h-.14c-.12,0-.14,0-.89.07-.44,0-1.3.07-1.84.07-2.11,0-2.63-.37-2.63-1.85v-2.62Z"/><path class="cls-2" d="M1173.44,729.51c-.14,3.08-1.14,4.53-3.83,5.58a2,2,0,0,0-.55-.77c2.46-.82,3.38-2.1,3.48-4.81h-3.22a10.62,10.62,0,0,0-1.37.06v-.88a7.61,7.61,0,0,0,1.38.08h7a7.54,7.54,0,0,0,1.38-.08v.88a10.62,10.62,0,0,0-1.37-.06Zm-4.29-3.76a6.33,6.33,0,0,0,1.37.08h3.59a10.13,10.13,0,0,0,1.36-.06v.86c-.15,0-.6,0-1.35,0h-3.61a8,8,0,0,0-1.36.06Zm7-1a8.84,8.84,0,0,1,1.16,1.88l-.61.33a9.11,9.11,0,0,0-1.15-1.93Zm1.46-.45a10,10,0,0,1,1.16,1.87l-.6.34a9.53,9.53,0,0,0-1.16-1.92Z"/><path class="cls-2" d="M1183,725.7a5.4,5.4,0,0,0-.07,1c-.1,3.22-.19,4.1-.64,5.3a7.37,7.37,0,0,1-2.06,2.94,2.19,2.19,0,0,0-.71-.64,6,6,0,0,0,2-2.74,16.19,16.19,0,0,0,.53-5.1,4.76,4.76,0,0,0,0-.84Zm3-.13a4.54,4.54,0,0,0-.07,1l-.07,7.18a5.46,5.46,0,0,0,2.21-1.38,5.93,5.93,0,0,0,1.4-2.37,3.32,3.32,0,0,0,.66.69,6.75,6.75,0,0,1-2.38,3,7.73,7.73,0,0,1-1.7.87l-.38.14-.28.13-.47-.54a2.09,2.09,0,0,0,.08-.81l.07-7a4.44,4.44,0,0,0,0-1.05Z"/><path class="cls-2" d="M1209,694v52H961V694h248m1-1H960v54h250V693Z"/><path class="cls-2" d="M368.4,369.7l1.25,1.16a22.09,22.09,0,0,1-5.48,4.67c2.19.71,4.74,1.19,10.69,1.25a5.47,5.47,0,0,0-1.42,2.81c-3.88-.24-8.26-.77-12-2.55a34.69,34.69,0,0,1-12,2.82,9.8,9.8,0,0,0-1.54-2.61,33.39,33.39,0,0,0,10.72-1.78,13.33,13.33,0,0,1-2.85-2.51,23.12,23.12,0,0,1-4.47,2.69,10.14,10.14,0,0,0-2.16-2.19,19.77,19.77,0,0,0,8.23-5.3c-.8-.23-1.3-.8-1.3-2.1v-1.6a1.53,1.53,0,0,1-.68.12,21.66,21.66,0,0,1-3.35,4.38,9.19,9.19,0,0,0-2.27-1.51,18.09,18.09,0,0,0,3.75-4.79l2.14,1.09.41.21v-1.9l2.78.15c.33,0,.71.09.71.42s-.35.47-.68.56v1.6c0,1.09.45,1.15,1.36,1.15h3.62c1.09,0,1.36-.41,1.59-2.25a6,6,0,0,0,2.43,1.19c-.56,3.34-1.83,3.37-3.2,3.37h-4.29c.15.06.65.21.65.42s-.29.23-.71.26a7.26,7.26,0,0,1-.71.77Zm6-10.54v5.36h-3v-3h-8.88a20.37,20.37,0,0,1,1.72,2.46c-.68.41-1.83,1.15-2.1,1.33a24.41,24.41,0,0,0-1.87-2.84l1.54-.95H351.59v3h-3.11v-5.36h6.16a14,14,0,0,0-1.69-2l1.42-.47c-2.39,0-2.66,0-3.49,0A7.68,7.68,0,0,0,350,354c1,.09,2.25.18,4.29.18a48.88,48.88,0,0,0,16.05-2.28l1.95,2.16a.89.89,0,0,1,.24.51.34.34,0,0,1-.36.32,1.79,1.79,0,0,1-.88-.41c-.89.23-1.54.38-2.73.65l1.81.8c.3.12.53.23.53.47s-.47.42-.83.44a16.1,16.1,0,0,1-1.51,2.31Zm-13.94,0a24.07,24.07,0,0,0-1.45-2.28l1.69-.56c-2,.21-3.23.24-4.77.3.24.29,1.36,1.74,1.63,2.07l-1.54.47Zm-2.19,12.64a12.57,12.57,0,0,0,3.14,2.46,10.78,10.78,0,0,0,3.31-2.46Zm7.14-12.64a23.74,23.74,0,0,0,2-3.79c-1.87.33-2.55.48-5.54.83.24.33,1.22,2,1.45,2.4l-1.89.56Zm4.14,3.14a31.21,31.21,0,0,1,3.52,5.09,12.85,12.85,0,0,0-2.28,1.39,24.34,24.34,0,0,0-3.34-5.18Z"/><path class="cls-2" d="M395.81,364.64h4.83v2.87H395.9a16.29,16.29,0,0,0,5.12,7.08,18,18,0,0,0-2.28,2.25,15.53,15.53,0,0,1-4.08-5.57,18.75,18.75,0,0,1-6,8.47,12.22,12.22,0,0,0-2.52-2.05c4.5-3.61,5.86-6.77,6.42-10.18h-5.95v-2.87h6.28v-5.27H391a27.13,27.13,0,0,1-2.16,4.18,11.27,11.27,0,0,0-2.9-1.13,25.74,25.74,0,0,0,4-9.92l3,.57c.24,0,.68.11.68.47s-.36.41-.83.56a20,20,0,0,1-.68,2.4h7.58v2.87h-3.94Zm8.94,12v2.54h-3V355.4h10.75v23.69h-2.93v-2.43Zm4.8-2.84V358.28h-4.8v15.54Z"/><path class="cls-2" d="M441.1,366.18a2.67,2.67,0,0,1-5.33,0,2.67,2.67,0,0,1,5.33,0Z"/><path class="cls-2" d="M472.14,371.24a30.93,30.93,0,0,1-7.22,3.23,7.49,7.49,0,0,0-2.16-2.61,31.1,31.1,0,0,0,12-6,27.06,27.06,0,0,0-4.06-3.93,30.61,30.61,0,0,1-4.44,3.73,8,8,0,0,0-2.36-2.16c4.29-2.31,8.73-7.7,10.33-11.55l2.9.86c.29.09.5.24.5.38s-.12.3-.3.39a4.18,4.18,0,0,1-.5.21c-.29.5-.5.85-.92,1.54h8l1.65,1.36a35.66,35.66,0,0,1-7.87,10.54h11.52v12.46H486v-1.45H475.31v1.48h-3.17Zm1.93-13.17c-.3.41-.62.83-1.3,1.63a36.45,36.45,0,0,1,4.23,4,24,24,0,0,0,4.17-5.65ZM486,375.39v-5.33H475.31v5.33Z"/><path class="cls-2" d="M528.92,357.83v3H517.13v5.09h7.94v13.68h-3.38v-1.84H509.08v1.84h-3.37V365.94h8.05v-5.09h-12v-3h12v-5.36l3.34.12c.3,0,.83,0,.83.42s-.26.44-.8.65v4.17Zm-19.84,17.08h12.61v-6.15H509.08Z"/><path class="cls-2" d="M565.83,353.6v6.6h-20.4c-.12,8.26-.18,14.36-2.87,19.69a9.2,9.2,0,0,0-3-1c2.49-4.35,2.93-8.79,2.93-18.74V353.6Zm-20.4,2.28V358h17.41v-2.1Zm11.66,15.63h7v2.43h-7v2.42h9.83v2.43h-21.4v-2.43H554v-2.42h-7.25v-2.43H554V369.2l-6.39.38c-.18.27-.3.51-.59.51s-.39-.27-.42-.54l-.41-2.48c1,0,1.69,0,3.58,0,.77-1.13,1.6-2.61,1.75-2.9h-5.45v-2.28h20.6v2.28h-5.06a36.13,36.13,0,0,1,4.71,4.79,7.9,7.9,0,0,0-2.25,2.05,19.48,19.48,0,0,0-1.93-2.37c-1.83.23-4.32.38-5.32.44.62,0,1.15.06,1.15.5s-.59.48-.89.54Zm1.87-7.37h-3.61c0,.32-.24.35-1,.44-.68,1.19-1.16,1.95-1.42,2.37,1.95-.09,4.53-.18,7.25-.42-.8-.74-1-.82-2.13-1.77Z"/><path class="cls-2" d="M595,366.18a2.67,2.67,0,0,1-5.33,0,2.67,2.67,0,0,1,5.33,0Z"/><path class="cls-2" d="M621.88,371.42V352.53l2.52.12c.12,0,.53,0,.53.27s-.38.44-.77.59v17.91h1.54V356.68l2.22.12c.38,0,.8,0,.8.41s-.42.41-.62.44V376h-2.4v-1.57h-5.36v3.14h-2.4V356.65l2.58.18c.18,0,.59,0,.59.32s-.41.47-.77.59v13.68Zm19.69-8.08,1.51,1.48a28.42,28.42,0,0,1-5.39,8.79,17.75,17.75,0,0,0,7.61,3.64,5.48,5.48,0,0,0-2,2.69,19.77,19.77,0,0,1-7.87-4.32,27.77,27.77,0,0,1-8.65,4.41,6.26,6.26,0,0,0-1.83-2.9,19.59,19.59,0,0,0,8.58-3.52,22,22,0,0,1-3.46-5.92l2.52-1.13a15.94,15.94,0,0,0,3.08,5.18,14.67,14.67,0,0,0,3.46-5.56h-10v-2.84h5.18v-4.26H629V356.2h5.38v-3.73l3.2.09c.27,0,.62,0,.62.33s-.35.5-.74.68v2.63h7v2.88h-7v4.26Z"/><path class="cls-2" d="M670.87,371.77H682.8v2.61H670.87v5.39h-3.2v-5.39H655.89v-2.61h11.78v-1.71h-9.15V355h6.72a12.09,12.09,0,0,0,.92-2.63l3.43.44c.24,0,.42.15.42.32,0,.39-.36.45-.83.54-.24.59-.41.94-.59,1.33H679.3v6.78H661.57v1.57h18.8v6.69h-8.58c0,.35-.51.44-.92.53Zm-9.3-14.38v2.13h14.74v-2.13Zm0,10.33h15.75v-2.16H661.57Z"/><path class="cls-2" d="M708,375.74c8.82-1.83,9.42-8.44,9.42-10.15a8.2,8.2,0,0,0-8.47-8.35,43.72,43.72,0,0,1-3.26,13.53c-1.59,3.64-3.13,5.5-4.82,5.5-2.22,0-5.83-3.55-5.83-8.55a13.83,13.83,0,0,1,13.7-13.26c6.25,0,11.72,4.17,11.72,11.1a12.85,12.85,0,0,1-3.46,8.76,16.14,16.14,0,0,1-7,4.14A15,15,0,0,0,708,375.74Zm-10-8.23c0,3,1.57,5.15,2.72,5.15s2-2.25,2.75-4.17a31.36,31.36,0,0,0,2.25-10.75A10.79,10.79,0,0,0,698,367.51Z"/><path class="cls-2" d="M741.37,366.74h4.68v2.52h-4.44a18.69,18.69,0,0,0,3.9,4.05,5.82,5.82,0,0,0-1.92,2.14,17.19,17.19,0,0,1-2.22-3.08v7.37h-2.81v-7.61a21.14,21.14,0,0,1-3.76,5.71,8.27,8.27,0,0,0-2.55-1.57,24.48,24.48,0,0,0,5.3-7H733.2v-2.52h5.36v-2.69h-5.69v-2.46h3.59a22.94,22.94,0,0,0-1.19-3l1.66-.5h-3.32v-2.46h4.89V352.5l3,.24c.53,0,.68.15.68.36s-.18.29-.68.53v1.95h4.79V358h-1.42c.3.12.45.24.45.38,0,.42-.51.45-.83.51a17.28,17.28,0,0,1-1.22,2.66h3.59v2.46h-4.8a.38.38,0,0,1,.12.21c0,.32-.51.47-.86.59Zm-3.52-8.7a19.25,19.25,0,0,1,1.12,3l-1.68.5h3.31a17.87,17.87,0,0,0,1.6-3.55Zm9.94-3.38,1.87.24a28,28,0,0,0,8.23-2l1.74,2.28a.73.73,0,0,1,.15.38.34.34,0,0,1-.38.36,1.22,1.22,0,0,1-.74-.3,30.5,30.5,0,0,1-7.85,1.66v4.59h8.79v2.81h-2.93v15h-3v-15h-2.87c0,2.72,0,9.62-4.44,15.1a21.35,21.35,0,0,0-2.84-1.36c4.06-4.33,4.26-9.92,4.26-13.44Z"/><path class="cls-2" d="M792.46,357.15a14.59,14.59,0,0,1,.59,2.16,26,26,0,0,0-2.9.33,15.36,15.36,0,0,0-.62-2.49h-2a19.47,19.47,0,0,1-2.22,3,14,14,0,0,0-2.51-1.3,17,17,0,0,0,1.48-1.69h-4.06c.24.65.42,1.13.8,2.4a8.28,8.28,0,0,0-2.84.29,20.41,20.41,0,0,0-.77-2.69H775.2a19.57,19.57,0,0,1-2.28,2.87,11.37,11.37,0,0,0-2.54-1.09,22.34,22.34,0,0,0,4.52-6.72l2.76.62c.2.06.47.12.47.41,0,.45-.59.42-.86.42-.26.56-.38.74-.53,1h7.84v2.08a22.88,22.88,0,0,0,2.67-4.5l2.51.56c.27.06.6.15.6.5s-.6.42-.89.45c-.15.35-.21.44-.45.91h8.86v2.46Zm3.46,12.05H794c-1.93,0-2.19-.92-2.19-2.34v-.12a8.91,8.91,0,0,0-2.13,1.36,17.55,17.55,0,0,0-1.75-3.61,11,11,0,0,1-2.28,4.21l.56.08c.24,0,.59.06.59.33s-.32.39-.65.47v.77h12.05v2.46H788a32.77,32.77,0,0,0,10.39,4.38,7.24,7.24,0,0,0-2,2.49,33.65,33.65,0,0,1-10.24-5.54v5.66h-2.93v-5.51a28.41,28.41,0,0,1-9.92,5.45,11.12,11.12,0,0,0-2.33-2.4,25.92,25.92,0,0,0,10.36-4.53H771.23v-2.46h12v-1.21a10.06,10.06,0,0,0-1.18-.83c2.39-1.42,3.61-2.75,3.61-6.72,0-.62,0-1-.06-1.48h8.82v5.95c0,.53,0,.71,1,.71.41,0,.86,0,1-2.63a6.87,6.87,0,0,0,2.28,1.51C798.29,368.64,797.31,369.2,795.92,369.2ZM783.75,367c-1.45.35-7.6,1.75-10.12,2.1-.09.33-.18.71-.53.71s-.36-.32-.42-.53l-.59-2.73c.74,0,2.13-.17,5.06-.62v-3.25h-4.47v-2.37h11.16v2.37h-4.08v2.84c2.31-.42,3.14-.59,4.23-.8A12,12,0,0,0,783.75,367Zm8.09-4.47h-3.62a12.87,12.87,0,0,1-.17,1.63l1.77-.95a18.9,18.9,0,0,1,2,3.52Z"/><path class="cls-2" d="M836.53,364.43v3.26H809.8v-3.26Z"/><path class="cls-2" d="M854.85,369.58a22.11,22.11,0,0,1-3.7,10.39,9,9,0,0,0-3.08-1.27c3.7-4.79,3.73-9.77,3.73-14.3v-5h20.57v11.66h-3.28v-1.51Zm19.42-15.89v2.81H849v-2.81Zm-5.18,12.9v-4.26h-14c0,.89,0,1.22-.09,4.26Z"/><path class="cls-2" d="M895.25,362.54a28.68,28.68,0,0,1-2.07,11.1c2.78,2.69,5.51,2.75,10.15,2.75,8.26,0,9.8-.23,11-.44a8.06,8.06,0,0,0-1.13,3.08h-11a32.49,32.49,0,0,1-5.92-.71,9.9,9.9,0,0,1-4.32-2.34,19.52,19.52,0,0,1-3.5,4,6.52,6.52,0,0,0-2.39-1.62,16.4,16.4,0,0,0,4-4.59,17,17,0,0,1-2.63-6.31l2.45-.65a15.35,15.35,0,0,0,1.46,4.23,18.94,18.94,0,0,0,1.09-5.86h-2.46c-.41.57-.71.95-1.06,1.36a6.83,6.83,0,0,0-2.58-1.27,36.32,36.32,0,0,0,4.77-8.2h-4.47v-2.81h7.22l1.24,1.48a66,66,0,0,1-3.43,6.78Zm6.66,2.51h-5.33V363h5.33v-2H895v-2.13h6.92v-2h-5.3v-2.14h5.3v-2.22l3,.12c.18,0,.54.15.54.42s-.21.35-.63.5v1.18h6.43v4.12h2.51v2.13h-2.51v4.14h-6.43v2h6.78v2.13h-6.78v1.92h8.32v2.25h-8.32v2.19h-2.87v-2.19h-6.6v-2.25h6.6v-1.92h-5.3V367h5.3Zm2.87-8.25v2h3.64v-2Zm0,4.11v2h3.64v-2Z"/><path class="cls-2" d="M951.55,357.09c-7.28-.06-14.27,6.48-14.27,12.08,0,1.81.83,6.13,9,6.87a20.7,20.7,0,0,0-1.39,3.4c-4.65-.95-10.72-3.61-10.72-10.24,0-6.25,5.69-10,7.46-11.16-3.49.21-13.38,1.57-15.12,2l-.48-3.79c.57,0,1,.06,1.69.06,1.54,0,14.68-.68,23.21-2.66Z"/><path class="cls-2" d="M519.31,424.55H503.63v-4h15.68ZM495,410.41V414h24.28v3.25H499.16V435h16.66c-5.45,4.89-13.23,8.47-21.47,11l2.73,3.72c8.49-2.95,17.07-7.58,22.23-13v14h4.63v-14c6.09,5.78,13.87,10,22.34,13l2.7-3.73c-6.42-1.77-15.69-5.63-21.54-10.94h16.9V417.24h-20.4V414h24.35v-3.58H523.94v-4.1h-4.63v4.1Zm24.28,21.34H503.63v-4.1h15.68Zm20.62-7.2h-16v-4h16Zm0,7.2h-16v-4.1h16Z"/><path class="cls-2" d="M622.26,450.69h-4.65V425.83a28.75,28.75,0,0,1-4.8,5l-2.41-4.49c5.16-4.39,9.84-12.37,11.74-20.15l4.7.68a44.35,44.35,0,0,1-4.58,11.83Zm26.34-35.45a58.57,58.57,0,0,0-11.28-6.06l2.86-3.15a45.79,45.79,0,0,1,11.34,5.82Zm14.66,4.39H647.69v10.3h13.45v3.68H647.69v11.78h16.83v3.73H625.75v-3.73h17.13V433.61h-13.8v-3.68h13.8v-10.3H627.06V415.9h36.2Z"/><path class="cls-2" d="M714.1,423.2h-9.73v-3.67h9.73Zm-9.73-16.84H699.9v3.1H688.1v3.26h11.8v3.61H684.33v3.2H699.9v3.67H688.1v3.16h11.8v3.33H686.28v3.21H699.9v3.67H684.33v3.24H699.9v4.39h4.47v-4.39h17.47v-3.24H704.37V432.9h15.35v-3.21H704.37v-3.33h14v-6.83h3.72v-3.2H718.4v-6.87h-14Zm-6.59,39.47a51.68,51.68,0,0,1-5.32-.29c-7.85-1.1-12.15-4.62-12.49-5,1.95-4.21,3.27-10.36,3.6-17.38h-9.32c4.81-4.95,6.06-6.29,9.27-11.45v-3.48H669.09v3.58h9.27c-2.11,3.68-6.18,8.11-9.1,10.88v4h10a36.3,36.3,0,0,1-2.12,10.22,26.31,26.31,0,0,1-2.81-7.71l-4,.84a26.79,26.79,0,0,0,4.91,10.58,24.07,24.07,0,0,1-6.58,6.59l2.81,3.47a24.13,24.13,0,0,0,6.76-7c4.87,4.06,12,5.73,18.9,5.73h24.55l1-3.68Zm16.32-29.5h-9.73v-3.61h9.73Z"/><path class="cls-3" d="M564.2,421.4a57.75,57.75,0,0,0-1.67-7.35h10a43,43,0,0,1-1.74,7.35Zm14,18.23a33.32,33.32,0,0,1-7.8-6.25h9.35v-3.49h-9.91v-5h10.93V421.4H575a70.32,70.32,0,0,0,1.83-7.35H580v-3.49H569.82v-4.25H565.4v4.25H554.12v3.49h4.18A45.1,45.1,0,0,1,560,421.4h-6.87v3.48H565.4v5H553.66v3.49h10.89a42.08,42.08,0,0,1-12.49,10l2.46,3.48a51.57,51.57,0,0,0,10.88-9.36v13.27h4.42V437.34a41.21,41.21,0,0,0,5.83,5.63Zm4.76-26.54v14.46a37.32,37.32,0,0,1-1.79,11.75,22.14,22.14,0,0,1-5.84,8.83l4.24,2.52c2.52-2.68,8-8.54,8-23.06v-2.42H595v25.62h4.75V425.17h6.14v-3.63H587.51v-8.45Z"/><polygon class="cls-3" points="583.87 416.42 607.78 409.83 595.54 406.31 597.68 409 582.95 413.08 583.87 416.42"/><path class="cls-2" d="M747.65,441.57c5.25-.21,16-.68,16-14,0-3.39-1.19-11.19-11.6-11.84-.7,7.12-1.45,14.8-4.81,20.93-.75,1.33-3.35,6.05-8.47,6.05-5.78,0-8.69-6.43-8.69-12.44,0-10.33,7.5-19,20.6-19,14.65,0,18.49,9.78,18.49,16.81,0,17-15.66,17.85-20.25,18.06ZM734.9,430.94c0,4.63,1.85,7.07,4.06,7.07,5.91,0,7.63-16,8.07-22C736.49,417.77,734.9,427.16,734.9,430.94Z"/><path class="cls-2" d="M819.36,424.47a34.4,34.4,0,0,1-5.59,4.54,51.09,51.09,0,0,1-4.27,2.82c4,6.72,7.32,9.93,11.28,12.7l-3.91,4.34a55,55,0,0,1-16.41-28.36h-1.32a22.14,22.14,0,0,1-3.26,3c3.31,3.26,7.27,7.61,7.27,17.49,0,1.78,0,9.63-6.71,9.63h-7.67l-1-4.94h6.66c1.68,0,3.76,0,3.76-5.33,0-1.24-.1-2.13-.15-2.72a63.91,63.91,0,0,1-22.82,11.21l-2.13-4.79c11.08-2.37,19.61-7,24.24-10.57a15.66,15.66,0,0,0-1-2.52c-4.32,3.41-11.13,6.57-19.61,8.79l-2.19-4.64c10.62-1.83,17.13-5.44,19.77-7.12a19.93,19.93,0,0,0-2-2.07,50.46,50.46,0,0,1-16,5.53l-1.93-4.74c7.62-.84,13.82-2.62,18.8-6.23H781.45v-4.2H812.7v4.2h-7.82a39.14,39.14,0,0,0,2.49,7.22,51,51,0,0,0,7.77-6.47Zm-24.9-15.67v-3.75h5.34v3.75h19.56v10.43h-5.08V413.3H780v5.93H775V408.8Z"/></svg>