<svg id="レイヤー_1" data-name="レイヤー 1" xmlns="http://www.w3.org/2000/svg" xmlns:xlink="http://www.w3.org/1999/xlink" viewBox="0 0 28 44"><defs><style>.cls-1{mask:url(#mask);filter:url(#luminosity-noclip-2);}.cls-2{mix-blend-mode:multiply;fill:url(#linear-gradient);}.cls-3{mask:url(#mask-2);}.cls-4{fill:#ddc400;}.cls-5{fill:none;}.cls-6{filter:url(#luminosity-noclip);}</style><filter id="luminosity-noclip" x="0" y="-8576" width="28" height="32766" filterUnits="userSpaceOnUse" color-interpolation-filters="sRGB"><feFlood flood-color="#fff" result="bg"/><feBlend in="SourceGraphic" in2="bg"/></filter><mask id="mask" x="0" y="-8576" width="28" height="32766" maskUnits="userSpaceOnUse"><g class="cls-6"/></mask><linearGradient id="linear-gradient" x1="4.1" y1="20.1" x2="23.9" y2="39.9" gradientUnits="userSpaceOnUse"><stop offset="0" stop-color="#fff"/><stop offset="0.24" stop-color="#fff"/><stop offset="0.27" stop-color="#fff"/><stop offset="0.37" stop-color="#fff"/><stop offset="0.39" stop-color="#fff"/><stop offset="0.59" stop-color="#fcfcfc"/><stop offset="0.73" stop-color="#f3f3f3"/><stop offset="0.75" stop-color="#f2f2f2"/><stop offset="0.91" stop-color="#fff"/><stop offset="0.96" stop-color="#fcfcfc"/><stop offset="1" stop-color="#f3f3f3"/><stop offset="1" stop-color="#f2f2f2"/></linearGradient><filter id="luminosity-noclip-2" x="0" y="16" width="28" height="28" filterUnits="userSpaceOnUse" color-interpolation-filters="sRGB"><feFlood flood-color="#fff" result="bg"/><feBlend in="SourceGraphic" in2="bg"/></filter><mask id="mask-2" x="0" y="16" width="28" height="28" maskUnits="userSpaceOnUse"><g class="cls-1"><path class="cls-2" d="M28,30A14,14,0,1,1,14,16,14,14,0,0,1,28,30Z"/></g></mask></defs><g class="cls-3"><path class="cls-4" d="M28,30A14,14,0,1,1,14,16,14,14,0,0,1,28,30Z"/></g><path class="cls-4" d="M26.18,8.6a.9.9,0,0,0-.9.9.93.93,0,0,0,0,.29c-.19.09-1.26.6-1.8.89s-1.16.07-1.16-.66c0-1.69-.09-5.08-.09-5.08l-.08,0a1,1,0,1,0-1.35-1,1,1,0,0,0,.22.64C20.68,5,18.88,6.92,18,8c-.46.59-1,.5-1.25-.22C16.23,6.25,15,3.1,14.62,2.22a1.2,1.2,0,1,0-1.81-1,1.18,1.18,0,0,0,.52,1C13,3.05,11.57,6.25,11,7.85c-.27.71-.8.8-1.23.2C9,6.91,7.27,4.87,7,4.49a1.08,1.08,0,0,0,.18-.59A1,1,0,1,0,5,3.9a1.06,1.06,0,0,0,.86,1c0,.37,0,3.42,0,5,0,.73-.51,1-1.18.69s-2-.88-2-.9a1.36,1.36,0,0,0,0-.21.9.9,0,1,0-1.79,0,.9.9,0,0,0,.9.91l.15,0q1.61,2.27,3,4.68a.91.91,0,0,0,1.09.24,22.53,22.53,0,0,1,15.77,0A1,1,0,0,0,23.05,15c.87-1.5,2.71-4.24,3-4.63l.15,0a.91.91,0,0,0,0-1.81M6.45,14c-.23-.18-.48-.36-.72-.53.16-.36.32-.72.49-1.07l.72.55-.49,1m3.39-1.08c-.31-.31-.62-.6-.93-.89l.75-1.29c.32.3.62.6.93.92q-.39.62-.75,1.26M14,12.41c-.42-.55-.85-1.09-1.29-1.61.42-.58.85-1.15,1.29-1.7.44.55.87,1.12,1.28,1.7-.44.52-.86,1.06-1.28,1.61m4.16.46q-.36-.64-.75-1.26c.3-.32.61-.62.93-.92.25.42.5.86.74,1.29-.31.29-.62.58-.92.89M21.54,14c-.16-.35-.32-.7-.49-1l.73-.55c.17.35.33.71.49,1.07-.25.17-.49.35-.73.53"/><rect class="cls-5" width="28" height="44"/></svg>