<?xml version="1.0" encoding="UTF-8"?><svg id="_レイヤー_2" xmlns="http://www.w3.org/2000/svg" viewBox="0 0 365.696 68.565"><defs><style>.cls-1{stroke-width:0px;}.cls-1,.cls-2{fill:#977b47;}</style></defs><g id="_レイヤー_1-2"><path class="cls-2" d="M36.16,49.507c.018,3.522-2.547,6.392-2.547,6.392,0,0-2.597-2.843-2.617-6.364-.02-3.522,2.546-6.39,2.546-6.39,0,0,2.6,2.838,2.618,6.362"/><path class="cls-2" d="M24.133,50.881c3.513.256,6.172,3.038,6.172,3.038,0,0-3.034,2.368-6.545,2.111-3.513-.256-6.175-3.035-6.175-3.035,0,0,3.034-2.37,6.548-2.114"/><path class="cls-2" d="M15.766,42.27c3.491.443,6,3.362,6,3.362,0,0-3.161,2.203-6.653,1.759-3.495-.445-6.003-3.364-6.003-3.364,0,0,3.162-2.201,6.657-1.757"/><path class="cls-2" d="M10.107,31.408c3.387.965,5.426,4.227,5.426,4.227,0,0-3.453,1.701-6.838.739-3.388-.965-5.427-4.229-5.427-4.229,0,0,3.453-1.702,6.839-.737"/><path class="cls-2" d="M6.756,18.938c2.962,1.911,3.962,5.626,3.962,5.626,0,0-3.8.623-6.758-1.286-2.96-1.912-3.961-5.629-3.961-5.629,0,0,3.797-.619,6.756,1.29"/><path class="cls-2" d="M28.63,43.968c-.5,3.485-3.46,5.946-3.46,5.946,0,0-2.151-3.195-1.648-6.68.497-3.486,3.461-5.948,3.461-5.948,0,0,2.148,3.195,1.647,6.682"/><path class="cls-2" d="M22.534,35.729c-.801,3.43-3.965,5.624-3.965,5.624,0,0-1.865-3.368-1.061-6.797.799-3.43,3.963-5.624,3.963-5.624,0,0,1.863,3.369,1.063,6.797"/><path class="cls-2" d="M17.918,26.456c-1.692,3.089-5.327,4.349-5.327,4.349,0,0-.894-3.743.802-6.831,1.694-3.088,5.33-4.349,5.33-4.349,0,0,.889,3.745-.804,6.831"/><path class="cls-2" d="M15.939,16.086c-2.003,2.897-5.751,3.776-5.751,3.776,0,0-.496-3.816,1.507-6.712,2.004-2.898,5.75-3.777,5.75-3.777,0,0,.5,3.818-1.506,6.713"/><path class="cls-2" d="M11.451,8.185c.248,3.514-2.126,6.545-2.126,6.545,0,0-2.775-2.667-3.025-6.179-.248-3.514,2.126-6.544,2.126-6.544,0,0,2.773,2.664,3.025,6.177"/><path class="cls-1" d="M59.086,67.081l-.303,1.484c-.477-.101-47.679-10.307-50.347-54.981l1.51-.093c2.596,43.507,48.675,53.496,49.14,53.589Z"/><path class="cls-2" d="M329.535,49.507c-.018,3.522,2.547,6.392,2.547,6.392,0,0,2.598-2.843,2.617-6.364.02-3.522-2.546-6.39-2.546-6.39,0,0-2.6,2.838-2.618,6.362"/><path class="cls-2" d="M341.562,50.881c-3.513.256-6.172,3.038-6.172,3.038,0,0,3.034,2.368,6.545,2.111,3.513-.256,6.175-3.035,6.175-3.035,0,0-3.034-2.37-6.548-2.114"/><path class="cls-2" d="M349.929,42.27c-3.49.443-6,3.362-6,3.362,0,0,3.161,2.203,6.653,1.759,3.495-.445,6.003-3.364,6.003-3.364,0,0-3.161-2.201-6.656-1.757"/><path class="cls-2" d="M355.589,31.408c-3.387.965-5.426,4.227-5.426,4.227,0,0,3.453,1.701,6.839.739,3.387-.965,5.426-4.229,5.426-4.229,0,0-3.453-1.702-6.839-.737"/><path class="cls-2" d="M358.939,18.938c-2.962,1.911-3.962,5.626-3.962,5.626,0,0,3.8.623,6.758-1.286,2.96-1.912,3.961-5.629,3.961-5.629,0,0-3.797-.619-6.756,1.29"/><path class="cls-2" d="M337.066,43.968c.5,3.485,3.46,5.946,3.46,5.946,0,0,2.151-3.195,1.648-6.68-.497-3.486-3.461-5.948-3.461-5.948,0,0-2.149,3.195-1.647,6.682"/><path class="cls-2" d="M343.162,35.729c.801,3.43,3.966,5.624,3.966,5.624,0,0,1.865-3.368,1.061-6.797-.8-3.43-3.963-5.624-3.963-5.624,0,0-1.864,3.369-1.064,6.797"/><path class="cls-2" d="M347.777,26.456c1.693,3.089,5.328,4.349,5.328,4.349,0,0,.893-3.743-.802-6.831-1.694-3.088-5.33-4.349-5.33-4.349,0,0-.888,3.745.804,6.831"/><path class="cls-2" d="M349.757,16.086c2.003,2.897,5.751,3.776,5.751,3.776,0,0,.496-3.816-1.507-6.712-2.003-2.898-5.75-3.777-5.75-3.777,0,0-.5,3.818,1.506,6.713"/><path class="cls-2" d="M354.245,8.185c-.248,3.514,2.126,6.545,2.126,6.545,0,0,2.776-2.667,3.025-6.179.248-3.514-2.126-6.544-2.126-6.544,0,0-2.773,2.664-3.025,6.177"/><path class="cls-1" d="M306.61,67.081l.303,1.484c.477-.101,47.678-10.307,50.347-54.981l-1.51-.093c-2.596,43.507-48.675,53.496-49.14,53.589Z"/><path class="cls-1" d="M60.374,26.82h-1.917c-.574,0-.939.013-1.318.065v-1.383c.339.052.718.065,1.318.065h4.997c.613,0,.992-.013,1.344-.065v1.383c-.365-.052-.744-.065-1.344-.065h-1.709v1.67h2.466c.6,0,.926-.013,1.278-.078v1.396c-.391-.052-.705-.065-1.278-.065h-2.466v2.244c.639.091,1.357.13,2.126.13.757,0,1.644-.039,2.975-.156-.209.535-.3.887-.365,1.487-1.07.026-1.748.039-2.779.039-3.053,0-4.762-.665-5.832-2.244-.417.9-.913,1.618-1.787,2.557-.339-.483-.522-.652-1.122-1.07,1.07-.966,1.827-2.218,2.244-3.692.144-.535.248-1.122.261-1.409l1.448.274c-.065.222-.065.235-.183.77-.065.261-.144.561-.339,1.174.522.926,1.057,1.409,1.983,1.813v-4.84ZM60.152,22.632c0-.326-.026-.548-.078-.835h1.604c-.052.274-.065.483-.065.822v.496h3.522c.522,0,.965-.013,1.448-.052-.04.3-.052.587-.052.966v1.018c0,.378.013.678.052,1.018h-1.409v-1.631h-8.428v1.631h-1.448c.052-.313.065-.574.065-1.031v-1.004c0-.339-.026-.666-.052-.966.469.039.913.052,1.435.052h3.405v-.483Z"/><path class="cls-1" d="M69.09,23.024c0-.47-.013-.796-.065-1.109h1.422c-.052.313-.065.639-.065,1.109v.222h1.879v-.222c0-.509-.013-.822-.065-1.109h1.422c-.052.3-.065.626-.065,1.109v.222c.457-.013.665-.026.887-.065v1.318c-.222-.039-.417-.052-.887-.052v5.036c.43-.013.548-.013.783-.052v1.305c-.248-.026-.561-.039-1.096-.039h-4.279c-.535,0-.757.013-1.005.052v-1.318c.261.039.47.052.966.052h.169v-5.036c-.548,0-.757.013-.992.052v-1.318c.222.052.444.065.992.065v-.222ZM70.969,31.491c-.665,1.096-1.018,1.5-2.009,2.375-.287-.392-.483-.6-1.005-1.031.9-.639,1.357-1.122,1.905-2.022l1.109.678ZM72.261,25.307v-.861h-1.879v.861h1.879ZM72.261,27.342v-.887h-1.879v.887h1.879ZM72.261,29.482v-.992h-1.879v.992h1.879ZM72.574,30.838c.457.705.482.731,1.213,1.396-.405.313-.705.6-.979.965q-.744-.822-1.266-1.683l1.031-.678ZM76.018,29.716c-.195,2.062-.521,3.014-1.435,4.188-.404-.457-.652-.678-1.109-1.057.64-.718.939-1.383,1.122-2.427.183-1.122.261-3.053.261-6.406,0-.887-.013-1.252-.065-1.696.417.039.77.052,1.448.052h1.892c.717,0,1.018-.013,1.409-.052-.04.326-.052.718-.052,1.435v8.65c0,.639-.183,1.044-.548,1.2-.261.117-.718.183-1.292.183-.156,0-.183,0-.822-.039-.065-.561-.144-.887-.339-1.435.587.104.848.13,1.148.13.404,0,.496-.052.496-.287v-2.44h-2.114ZM76.174,26.637c-.013.77-.026,1.252-.065,1.84h2.022v-1.84h-1.957ZM78.131,23.663h-1.944v1.722h1.944v-1.722Z"/><path class="cls-1" d="M82.321,28.438c0-.313,0-.352.039-1.474-.6.979-.626,1.031-.992,1.461-.183-.639-.313-1.004-.6-1.552.861-.926,1.566-2.114,2.087-3.549.274-.73.378-1.122.457-1.722l1.5.352q-.052.156-.326.966c-.235.757-.443,1.278-.796,2.048v7.358c0,.587.013,1.018.065,1.513h-1.513c.052-.483.078-.9.078-1.526v-3.875ZM89.509,23.18v-.339c0-.457-.026-.77-.065-1.057h1.475c-.04.3-.065.613-.065,1.07v.326h.639c.522,0,.887-.013,1.252-.065v1.344c-.313-.039-.639-.052-1.239-.052h-.652v1.279h.913c.639,0,1.018-.026,1.318-.065v1.396c-.326-.052-.718-.078-1.344-.078h-6.158c-.6,0-.966.013-1.344.065v-1.383c.287.052.639.065,1.317.065h.73v-1.279h-.443c-.574,0-.9.013-1.2.052v-1.344c.313.052.678.065,1.213.065h.43v-.326c0-.457-.026-.757-.078-1.07h1.487c-.052.274-.065.587-.065,1.083v.313h1.879ZM85.139,28.79c0-.483-.013-.77-.052-1.083.326.039.613.052,1.188.052h4.566c.626,0,.926-.013,1.213-.052-.039.287-.052.6-.052,1.135v3.444c0,.639.026,1.083.065,1.552h-1.448v-.6h-4.123v.6h-1.435c.052-.444.078-.9.078-1.474v-3.575ZM86.496,29.912h4.123v-.979h-4.123v.979ZM86.496,32.052h4.123v-1.005h-4.123v1.005ZM89.509,25.685v-1.279h-1.879v1.279h1.879Z"/><path class="cls-1" d="M95.525,23.402c0-.678-.026-1.096-.079-1.5h1.5c-.065.417-.078.783-.078,1.513v1.67h.287c.483,0,.666-.013.875-.052v1.37c-.274-.039-.509-.052-.914-.052h-.248v3.549c.509-.235.652-.3,1.239-.6l.039,1.383c-1.187.639-1.892.952-3.223,1.448-.365.144-.482.196-.678.287l-.274-1.5c.392-.052.77-.17,1.553-.47v-4.096h-.3c-.496,0-.705.013-1.018.065v-1.396c.287.052.509.065,1.018.065h.3v-1.683ZM100.209,31.712c0,.261.091.352.378.405.339.065.822.091,1.774.091,1.553,0,1.97-.065,2.166-.339.157-.222.235-.666.235-1.552.417.183.979.352,1.422.43-.157,2.609-.431,2.792-4.149,2.792-2.635,0-3.209-.248-3.209-1.396v-4.488c-.117.039-.208.065-.261.078-.392.13-.535.183-.796.3l-.326-1.422c.365-.052.822-.143,1.266-.287l.117-.039v-1.787c0-.626-.013-.952-.078-1.383h1.54c-.052.417-.078.796-.078,1.331v1.422l1.265-.404v-2.27c0-.6-.013-.874-.065-1.305h1.513c-.052.43-.078.848-.078,1.331v1.826l1.878-.587c.509-.156.718-.235,1.07-.391-.026.574-.039.665-.065,1.37-.065,1.84-.157,3.027-.287,3.588-.17.744-.522.966-1.474.966-.17,0-.287,0-.613-.026-.065-.561-.157-.939-.353-1.344.3.065.535.104.731.104.326,0,.404-.052.457-.326.065-.43.117-1.239.156-2.505l-1.5.47v3.249c0,.535.026.9.078,1.305h-1.513c.052-.444.065-.731.065-1.344v-2.766l-1.265.404v4.501Z"/><path class="cls-1" d="M108.86,23.128c0-.678-.013-1.005-.065-1.357h1.474c-.052.326-.078.744-.078,1.344v.952h.144c.365,0,.574-.013.795-.052v1.37c-.208-.026-.43-.039-.691-.039h-.183c.222.691.691,1.357,1.383,1.97-.313.365-.352.43-.704,1.07-.483-.639-.548-.731-.809-1.266.052.47.065.939.065,1.761v3.392c0,.652.026,1.213.078,1.605h-1.487c.065-.417.091-.939.091-1.605v-2.7q.026-.966.078-1.618c-.404,1.161-.822,1.996-1.37,2.792-.261-.6-.47-.926-.757-1.265.574-.77.979-1.527,1.396-2.596.183-.444.274-.744.496-1.54h-.574c-.392,0-.639.013-.874.052v-1.396c.235.052.457.065.874.065h.717v-.939ZM112.539,25.907c-.509,0-.77.013-1.109.078v-1.357c.235.039.431.052.717.065-.3-.339-.352-.391-.9-.744.744-.626,1.213-1.318,1.513-2.231l1.305.3c-.156.339-.208.457-.365.744h3.549c.691,0,1.057-.013,1.474-.078v1.357c-.417-.052-.783-.065-1.487-.065h-1.905q-.157.483-.248.718h2.557c.626,0,1.083-.026,1.396-.078v1.37c-.3-.052-.796-.078-1.344-.078h-3.196c-.209.391-.339.587-.574.926h1.448c.196-.326.3-.535.431-.887l1.174.391c-.144.274-.195.352-.287.496h1.004c.483,0,.887-.026,1.174-.065v1.252c-.339-.039-.718-.052-1.161-.052h-1.409v.718h1.239c.535,0,.757-.013,1.018-.052v1.135c-.261-.039-.521-.052-1.018-.052h-1.239v.692h1.239c.548,0,.757-.013,1.018-.052v1.135c-.261-.039-.521-.052-1.018-.052h-1.239v.731h1.278c.692,0,1.044-.013,1.436-.065v1.292c-.431-.052-.887-.078-1.448-.078h-4.371v.535h-1.383c.065-.417.078-.757.078-1.448v-2.583c0-.209,0-.43.013-.639-.183.183-.274.261-.561.509-.274-.457-.431-.652-.77-.952,1.03-.757,1.826-1.644,2.531-2.831h-.561ZM113.713,24.694c.104-.274.13-.326.261-.718h-1.031q-.208.261-.626.718h1.396ZM115.057,27.968h-1.866v.718h1.866v-.718ZM115.057,29.716h-1.866v.692h1.866v-.692ZM113.191,31.438v.731h1.866v-.731h-1.866Z"/><path class="cls-1" d="M123.33,32.234c0,.587.026,1.07.065,1.565h-1.565c.052-.469.078-.913.078-1.565v-3.849c0-.639,0-.939.026-1.461-.444.73-.652,1.005-1.122,1.487-.196-.574-.392-.979-.73-1.487,1.018-1.018,1.787-2.166,2.414-3.627.313-.718.457-1.161.535-1.631l1.5.417c-.091.196-.183.417-.313.757-.157.43-.522,1.252-.887,1.983v7.41ZM129.005,23.48c0-.626-.026-1.161-.091-1.618h1.579c-.052.496-.078.966-.078,1.618v1.148h.378c.574,0,.926-.026,1.266-.078v1.435c-.353-.026-.77-.052-1.227-.052h-.417v6.093c0,.678-.144,1.083-.443,1.279-.287.196-.64.248-1.605.248-.47,0-.822-.013-1.383-.052-.078-.574-.169-.913-.417-1.474.744.091,1.148.13,1.604.13.731,0,.835-.039.835-.326v-5.897h-3.548c-.535,0-1.109.026-1.54.078v-1.461c.404.052.874.078,1.474.078h3.614v-1.148ZM125.652,26.807c.9,1.096,1.396,1.853,2.009,3.04l-1.213.861c-.626-1.383-1.083-2.127-1.931-3.17l1.135-.73Z"/><path class="cls-1" d="M136.129,29.403c-.196,1.892-.705,3.196-1.8,4.553-.118-.117-.209-.196-.261-.248-.417-.404-.443-.417-1.004-.822.574-.691.874-1.174,1.122-1.84.392-1.018.574-2.479.574-4.697,0-.705-.013-1.122-.065-1.579.417.026.757.039,1.37.039h6.758c.548,0,.835-.013,1.2-.039-.039.339-.052.626-.052,1.213v2.922c0,.652.013.966.065,1.318h-1.553v-.822h-6.354ZM144.949,23.702c-.417-.052-.809-.065-1.513-.065h-8.285c-.666,0-1.057.013-1.513.065v-1.435c.47.065.835.078,1.513.078h8.285c.691,0,1.057-.013,1.513-.078v1.435ZM142.483,28.099v-1.983h-6.236v.952c0,.196,0,.378-.013.548s-.013.274-.026.3c0,.091,0,.104-.013.183h6.288Z"/><path class="cls-1" d="M149.451,26.037c.587,0,.691,0,.939-.039-.026.235-.039.339-.065.574-.144,1.813-.417,2.922-1.004,4.175.457.444.887.744,1.396.952.587.248,1.161.352,2.309.43.339.026.796.039.992.039,1.591,0,3.209-.065,4.449-.17-.222.587-.261.757-.353,1.448-1.226.026-2.479.039-3.901.039-2.87,0-4.214-.405-5.519-1.644-.574.861-.926,1.279-1.67,1.944-.274-.47-.496-.757-.926-1.2.809-.691,1.201-1.109,1.683-1.84-.235-.339-.404-.639-.626-1.083-.026-.052-.144-.261-.3-.587-.065-.117-.157-.326-.287-.574l1.161-.613c.274.809.405,1.135.691,1.644.3-.744.431-1.239.574-2.27h-1.239c-.365,0-.744.013-1.057.039q.809-1.318,1.122-1.918c.483-.913.587-1.161.822-1.8h-1.305c-.353,0-.574.013-.887.065v-1.383c.3.052.548.065.926.065h1.383c.496,0,.718-.013.939-.052l.626.848c-.104.143-.117.169-.326.665-.261.613-.848,1.748-1.148,2.244h.6ZM153.235,23.611h-1.527c-.352,0-.652.013-.926.052v-1.161c.326.039.548.052,1.005.052h1.448c0-.417-.013-.561-.065-.861h1.435c-.039.248-.065.417-.065.861h1.918c.404,0,.705-.013.992-.039-.026.248-.039.496-.039.822v.952c.417,0,.639-.013.926-.078v1.213c-.287-.052-.509-.065-.926-.065v.992c0,.3.013.587.039.783-.339-.013-.574-.026-.914-.026h-1.996v.744h2.022c.457,0,.73-.013,1.096-.052v1.135c-.313-.039-.639-.052-1.109-.052h-2.009v.77h2.479c.548,0,.835-.013,1.161-.065v1.226c-.313-.039-.678-.052-1.161-.052h-2.479c0,.587.013.783.065,1.096h-1.435c.052-.339.065-.587.065-1.096h-1.879c-.548,0-.796.013-1.122.052v-1.226c.3.052.652.065,1.135.065h1.866v-.77h-1.553c-.392,0-.717.013-1.043.065v-1.148c.339.039.613.052,1.043.052h1.553v-.744h-1.592c-.353,0-.548.013-.835.039v-1.135c.274.039.47.052.913.052h1.514v-.705h-2.009c-.561,0-.796.013-1.122.052v-1.187c.326.052.509.065,1.174.065h1.957v-.678ZM156.131,24.289v-.678h-1.592v.678h1.592ZM154.539,26.063h1.592v-.705h-1.592v.705Z"/><path class="cls-1" d="M159.825,23.676c.287.013.43.013.496.013q.235,0,2.153-.13c.73-.039,2.896-.156,6.51-.326,1.07-.052,1.266-.065,1.5-.13l.091,1.67q-.144-.013-.274-.013c-.783,0-1.748.261-2.583.705-1.657.861-2.636,2.166-2.636,3.483,0,1.018.64,1.8,1.735,2.126.639.196,1.474.339,1.944.339.013,0,.13,0,.261-.013l-.235,1.774c-.157-.039-.222-.052-.444-.078-1.435-.183-2.257-.417-3.053-.861-1.2-.678-1.866-1.787-1.866-3.144,0-1.109.444-2.205,1.239-3.079.496-.535.966-.874,1.813-1.305-1.057.157-1.565.196-4.396.405-.874.065-1.657.156-2.166.261l-.091-1.696Z"/><path class="cls-1" d="M56.225,45.884c0-.339.013-.6.039-1.487-.431.678-.6.913-1.018,1.396-.208-.757-.287-.965-.587-1.579.939-1.004,1.618-2.1,2.152-3.444.274-.718.431-1.252.496-1.696l1.5.378c-.274.874-.639,1.774-1.161,2.857v7.332c0,.574.026,1.018.091,1.513h-1.604c.078-.522.091-.861.091-1.526v-3.744ZM62.905,41.735c-.691-.587-1.526-1.109-2.583-1.644l1.004-.965c1.043.496,1.866.979,2.74,1.618l-.979.991h1.97c.652,0,1.122-.026,1.552-.078v1.461c-.457-.039-.952-.065-1.513-.065h-1.957v2.283h1.618c.574,0,1.031-.026,1.448-.078v1.435c-.417-.039-.887-.065-1.435-.065h-1.631v2.74h2.257c.587,0,1.122-.026,1.553-.078v1.461c-.47-.039-.914-.065-1.566-.065h-5.766c-.639,0-1.07.026-1.553.065v-1.461c.417.052.939.078,1.5.078h2.113v-2.74h-1.383c-.548,0-1.004.026-1.435.065v-1.435c.404.052.861.078,1.435.078h1.383v-2.283h-1.709c-.548,0-1.031.026-1.487.065v-1.461c.405.065.783.078,1.474.078h2.949Z"/><path class="cls-1" d="M72.469,44.488q-1.592.261-3.183.469c-.222-.613-.339-.887-.6-1.318,1.683-.091,3.692-.378,5.336-.744,1.344-.3,2.191-.587,2.805-.952l1.213,1.174c-.392.091-.522.117-1.004.274-1.514.457-2.244.652-3.118.835v1.37l4.462-.483c.548-.065,1.057-.144,1.409-.248l.144,1.487c-.104-.013-.169-.013-.235-.013-.235,0-.848.039-1.2.078l-4.579.496v2.166c0,.326.065.404.365.483.222.039.861.078,1.592.078,1.265,0,1.892-.078,2.139-.248.222-.17.287-.496.339-1.748.613.326.744.365,1.435.522-.078,1.005-.13,1.292-.3,1.683-.222.548-.535.809-1.161.966-.457.117-1.135.156-2.648.156-2.753,0-3.209-.209-3.209-1.474v-2.427l-2.831.313c-.626.065-.979.13-1.422.235l-.144-1.474h.261c.261,0,.822-.039,1.174-.065l2.961-.326v-1.265ZM73.135,39.935c0-.287-.026-.483-.079-.757h1.605c-.052.274-.065.47-.065.757v.417h3.601c.665,0,1.004-.013,1.448-.052-.039.261-.052.509-.052.965v.992c0,.391.013.704.052,1.004h-1.422v-1.579h-8.441v1.579h-1.435c.052-.326.065-.574.065-1.018v-.979c0-.417-.013-.665-.052-.965.417.039.783.052,1.435.052h3.34v-.417Z"/><path class="cls-1" d="M84.852,39.426c-.065.169-.104.248-.195.535-.313.991-.535,1.539-.914,2.335v7.397c0,.444.026,1.096.065,1.513h-1.553c.052-.444.079-.848.079-1.526v-3.705c0-.73,0-.913.039-1.461-.365.626-.613.966-1.07,1.487-.235-.809-.3-.991-.587-1.579,1.331-1.383,2.401-3.575,2.648-5.414l1.487.417ZM87.931,47.997c-.926,1.461-1.604,2.218-2.936,3.236-.43-.509-.652-.731-1.135-1.109.717-.457,1.096-.757,1.604-1.305.496-.522.757-.874,1.2-1.631l1.266.809ZM89.548,41.696v-1.318c0-.444-.013-.77-.065-1.096h1.552c-.052.352-.078.691-.078,1.109v1.305h.587c.548,0,.887-.026,1.252-.078v1.487c-.352-.052-.691-.078-1.252-.078h-.587v2.7h.939c.574,0,.875-.013,1.24-.078v1.487c-.365-.052-.705-.078-1.24-.078h-6.405c-.535,0-.875.026-1.24.078v-1.487c.339.052.679.078,1.24.078h.744v-2.7h-.378c-.548,0-.861.013-1.24.078v-1.487c.366.052.757.078,1.24.078h.378v-1.344c0-.391-.026-.705-.079-1.07h1.553c-.052.326-.065.626-.065,1.083v1.331h1.905ZM89.548,45.727v-2.7h-1.905v2.7h1.905ZM90.383,47.149c.47.73.744,1.07,1.279,1.618.561.561.9.835,1.565,1.226-.365.365-.522.548-1.044,1.252-.665-.496-.991-.796-1.552-1.383-.626-.678-.939-1.083-1.461-1.918l1.213-.796Z"/><path class="cls-1" d="M95.695,46.706c-.104,1.8-.235,2.753-.522,3.901l-1.174-.457c.313-1.07.457-2.035.535-3.64l1.161.196ZM94.064,44.722c.274.026.561.039.809.039.052,0,.117,0,.208-.013.261-.326.352-.469.639-.861q-.065-.091-.183-.248c-.482-.678-.9-1.161-1.526-1.774l.73-1.07q.209.222.417.457c.313-.548.353-.639.522-1.005.3-.718.392-.939.444-1.161l1.252.457c-.079.104-.118.196-.222.404-.378.809-.783,1.527-1.226,2.231.261.326.326.405.496.652.678-1.044,1.161-1.931,1.305-2.387l1.2.613c-.091.13-.183.274-.365.587-.457.796-1.357,2.126-2.062,3.053.757-.039.979-.052,1.422-.092-.144-.365-.222-.535-.47-1.057l.952-.378c.47.926.809,1.709,1.109,2.583l-1.096.457c-.078-.261-.078-.274-.144-.535q-.457.052-.926.091v4.136c0,.639.013.965.078,1.37h-1.422c.065-.457.078-.783.078-1.383v-4.018q-.469.026-1.292.078c-.274.026-.404.039-.6.078l-.13-1.305ZM98.656,46.458c.222.952.365,1.761.548,3.144l-1.07.248c-.117-1.252-.248-2.126-.496-3.131l1.018-.261ZM100.078,43.392c-.3.261-.43.352-.809.613-.196-.509-.339-.73-.744-1.174.796-.509,1.109-.77,1.644-1.344.6-.626,1.044-1.318,1.435-2.192h1.422c.457.939.979,1.618,1.8,2.348.522.457.952.77,1.592,1.135-.339.47-.509.809-.666,1.318-.443-.3-.6-.404-.913-.665v.913c-.313-.039-.613-.052-1.174-.052h-2.414c-.522,0-.835.013-1.174.052v-.952ZM100.965,51.18h-1.409c.039-.444.065-.861.065-1.344v-3.196c0-.652-.013-.848-.052-1.187.326.026.613.039,1.122.039h3.692c.509,0,.822-.013,1.069-.039-.039.326-.052.587-.052,1.174v3.066c0,.639.026,1.187.065,1.487h-1.461v-.731h-3.04v.731ZM103.783,43.066c.3,0,.444,0,.601-.013-.9-.796-1.475-1.448-2.036-2.374-.574.979-1.122,1.67-1.878,2.374.235.013.365.013.678.013h2.635ZM100.965,49.197h3.053v-2.492h-3.053v2.492Z"/><path class="cls-1" d="M109.904,43.757c-.6,0-.926.013-1.227.065v-.691h-1.2c.052-.3.065-.535.065-.965v-.966c0-.352-.013-.639-.052-.978.417.039.783.052,1.435.052h3.392v-.3c0-.326-.026-.535-.078-.822h1.604c-.052.261-.065.496-.065.822v.3h3.575c.666,0,1.005-.013,1.448-.052-.039.326-.052.6-.052.952v.992c0,.378.013.665.052.965h-1.2v.691c-.326-.052-.626-.065-1.239-.065h-2.623q-.013.417-.026.718h2.439c.639,0,.848-.013,1.161-.052v1.24c-.339-.039-.548-.052-1.161-.052h-2.518c-.039.326-.052.431-.104.705h4.07c.652,0,.979-.013,1.344-.065v1.37c-.47-.052-.835-.078-1.409-.078h-3.327c.47.561.718.783,1.213,1.096.574.352,1.383.665,2.296.887.326.091.731.17,1.448.3-.3.457-.509.861-.678,1.409-1.213-.287-1.749-.457-2.44-.757-1.396-.626-2.283-1.331-3.092-2.479-.47.887-1.031,1.487-1.905,2.048-.913.574-1.735.887-3.183,1.174-.235-.665-.313-.809-.691-1.357,1.37-.196,2.048-.391,2.831-.796.756-.391,1.265-.861,1.657-1.526h-2.883c-.509,0-.926.026-1.396.078v-1.37c.353.052.666.065,1.318.065h3.418c.052-.248.078-.391.118-.705h-2.205c-.626,0-.835.013-1.174.052v-1.24c.313.039.535.052,1.174.052h2.296q.013-.365.013-.718h-2.439ZM112.356,42.609c-.013-.417-.013-.587-.052-.835h1.513c-.039.156-.039.313-.052.835h2.596c.496,0,.704-.013,1.03-.039v-1.07h-8.493v1.07c.234.026.521.039,1.004.039h2.453Z"/><path class="cls-1" d="M121.725,46.706c-.091,1.696-.196,2.557-.509,3.914l-1.135-.6c.326-1.005.457-1.892.535-3.562l1.109.248ZM120.134,44.631c.274.039.391.052.613.052.091,0,.104,0,.392-.013q.339-.457.626-.887c-.587-.835-.926-1.252-1.618-1.957l.652-1.109c.13.144.274.3.431.47.443-.744.796-1.552.939-2.153l1.213.522c-.091.156-.131.235-.261.483-.47.992-.678,1.357-1.122,2.035.248.3.326.391.47.6.613-.992.939-1.618,1.148-2.166l1.187.6c-.157.209-.209.3-.535.848-.417.718-1.304,2.048-1.774,2.661.509-.026.652-.039,1.174-.104-.104-.274-.156-.417-.365-.835l.861-.352c.378.744.678,1.552.979,2.622l-.979.365c-.065-.313-.091-.444-.144-.652-.287.039-.392.052-.691.091v3.992c0,.678.026,1.07.078,1.487h-1.409c.052-.405.079-.822.079-1.487v-3.888q-.835.065-.926.065c-.509.039-.6.039-.874.091l-.144-1.383ZM124.543,46.51c.234,1.096.3,1.54.43,2.883l-1.018.196c-.039-.966-.169-2.009-.365-2.883l.953-.196ZM126.409,49.197c-.43,0-.626,0-1.109.039.026-.313.039-.757.039-1.226v-2.505c0-.535-.013-.783-.039-1.096.326.026.535.026,1.083.026h4.031c.6,0,.796,0,1.122-.039-.039.339-.052.73-.052,1.226v2.322c0,.522.013.927.052,1.292-.444-.026-.679-.039-1.083-.039h-.744c.926.587,1.396.757,2.753,1.005-.261.326-.457.626-.705,1.135-1.331-.378-1.97-.691-3.04-1.448l.744-.692h-2.401l.835.652c-1.213.887-1.591,1.07-3.235,1.487-.144-.365-.365-.704-.678-1.044,1.344-.235,1.905-.444,2.948-1.096h-.522ZM126.096,41.004c-.6,0-.874.013-1.161.052v-1.161c.365.052.691.065,1.227.065h1.513c0-.378-.026-.548-.065-.809h1.475c-.052.248-.079.417-.079.809h1.696c.548,0,.861-.013,1.239-.065v1.161c-.287-.039-.574-.052-1.187-.052h-1.749v.444h1.448c.483,0,.796-.013,1.096-.052v1.057c-.326-.026-.548-.039-1.083-.039h-1.461v.483h2.009c.535,0,.848-.013,1.213-.065v1.2c-.392-.052-.705-.065-1.213-.065h-5.127c-.574,0-.992.013-1.266.052v-1.187c.378.052.626.065,1.252.065h1.8v-.483h-1.305c-.548,0-.783.013-1.122.039v-1.057c.3.039.626.052,1.109.052h1.318v-.444h-1.579ZM126.618,45.766h3.575v-.43h-3.575v.43ZM126.618,47.006h3.575v-.43h-3.575v.43ZM126.618,48.271h3.575v-.469h-3.575v.469Z"/><path class="cls-1" d="M195.691,27.379c-2.153,4.161-4.369,7.033-7.146,9.345-2.247,1.849-5.086,3.434-7.458,4.194-.188.066-.406.132-.624.198-.25.066-.406.099-.5.099s-.156-.066-.156-.132c0-.099.062-.165.281-.264,1.529-.792,3.869-2.906,5.554-5.019,2.372-3.038,4.212-6.703,5.679-11.458,1.591.198,4.306.825,5.149,1.156.281.099.53.429.53.66,0,.429-.125.561-.718.925.843,1.948,1.966,3.335,3.9,4.788,2.216,1.684,5.617,3.17,9.206,4.062.218.066.312.132.312.231s-.031.132-.219.231c-1.248.66-2.496,2.08-3.089,3.467-.125.264-.25.363-.5.363-1.56,0-3.994-1.453-6.022-3.533-1.872-1.915-2.871-3.962-3.557-7.132-.062-.363-.187-1.123-.375-2.344l-.25.165ZM202.057,53.036c2.247-3.17,2.403-3.335,2.871-3.335.593,0,1.467.66,2.715,2.047.624.693.936,1.156.936,1.486,0,.429-.406.66-1.154.66h-22.686c-1.685,0-1.935,0-3.246.066-.468-.858-.499-.924-.499-1.023s.094-.132.187-.132c.874.132,2.309.231,3.214.231h7.551c.094-2.972.094-3.864.094-6.406h-6.147c-.468,0-.936.033-1.404.099-.5-.594-.531-.66-.531-.727,0-.132.094-.231.25-.231.375.033.874.066,1.124.066h6.74c0-1.552-.031-4.656-.094-5.58h-4.524c-.687,0-1.404.033-2.091.099-.468-.627-.5-.694-.5-.76,0-.132.094-.231.25-.231.499.033,1.123.066,1.435.066h11.015c.25-.363.437-.627.562-.825.655-1.057.905-1.321,1.248-1.321.749,0,2.996,1.882,2.996,2.444,0,.33-.281.528-.718.528h-4.462c-.062.264-.093.33-.405.462-.468.198-.468.264-.5,5.118h2.902c.5-.693.937-1.42,1.404-2.146.375-.562.593-.727.936-.727.967,0,3.308,2.146,3.308,3.038,0,.429-.437.627-1.373.627h-7.177c.062,3.467.094,5.58.125,6.406h5.648Z"/><path class="cls-1" d="M237.006,27.214c.125-.165.187-.264.25-.363.78-1.123.967-1.321,1.342-1.321.437,0,1.342.462,2.59,1.354.999.726,1.342,1.123,1.342,1.552,0,.297-.156.495-.53.892l-.468.462c-.031,1.023-.031,1.849-.031,2.377,0,5.415.188,16.477.281,19.052.031.792.031,1.255.031,1.651,0,.925-.125,1.288-.687,1.618-.624.396-1.466.594-2.465.594-1.03,0-1.311-.297-1.311-1.255,0-.727,0-.892.031-1.321h-17.256v.858c0,.528-.219.892-.749,1.156-.593.33-1.279.495-1.966.495-1.155,0-1.529-.264-1.529-1.057,0-.363.062-3.302.125-5.514.094-3.764.218-13.274.218-17.369,0-1.057,0-1.255-.062-4.986,0-.231.031-.297.156-.297.624,0,2.652.396,3.433.66.687.231.811.297,1.154.76h16.102ZM237.474,36.394c0-2.543-.062-5.184-.093-7.793,0-.462-.156-.594-.78-.594h-15.945c-.624.198-.624.231-.655,5.382l-.031,7.925c0,2.642.031,8.189.094,10.401h17.318l.093-15.321ZM232.263,47.257c1.404-2.212,1.685-2.51,2.122-2.51.343,0,1.123.528,1.778,1.189.749.76,1.03,1.189,1.03,1.585,0,.33-.281.495-.811.495h-13.605c-.562,0-1.155.033-1.716.099-.437-.627-.468-.693-.468-.76,0-.132.094-.231.25-.231.812.066,1.841.132,2.34.132h3.121c.094-1.981.094-2.279.125-7.958h-2.621c-.562,0-1.155.033-1.716.099-.468-.627-.5-.693-.5-.76,0-.132.094-.231.25-.231.812.066,1.873.132,2.372.132h2.185c0-2.444,0-2.51-.062-5.911h-3.339c-.562,0-1.155.033-1.716.099-.468-.627-.499-.694-.499-.76,0-.132.093-.231.25-.231.811.066,1.872.132,2.372.132h8.269l.437-.66c.936-1.42,1.186-1.684,1.56-1.684.343,0,.687.165,1.279.66,1.124.991,1.591,1.519,1.591,1.948,0,.363-.187.495-.718.495h-4.899v.132c0,.264-.218.429-.718.627-.062,1.057-.062,1.321-.062,3.302v1.849h1.529c.343-.462.437-.627.842-1.222.406-.594.655-.891.905-.891.655,0,2.496,1.684,2.496,2.311,0,.33-.281.528-.749.528h-5.024c0,2.278,0,2.906.062,7.991h2.06ZM233.636,44.483c-.406,0-.78-.165-.999-.363-.187-.198-.218-.297-.312-.991-.125-.958-.593-1.849-1.311-2.575-.094-.066-.125-.132-.125-.198,0-.165.281-.231.843-.231,2.278,0,3.775.958,3.775,2.377,0,1.156-.78,1.981-1.872,1.981Z"/><path class="cls-1" d="M256.708,4.353l-7.284.143v-1.927c10.049,0,12.747-.999,15.647-2.569l1.012.642c-.135,2.212-.27,4.425-.27,6.566v44.032l7.283.071v1.855h-23.672v-1.855l7.284-.071V4.353Z"/><path class="cls-1" d="M282.601,33.983c-1.672,2.444-4.816,5.687-5.573,5.687-.08,0-.159-.084-.159-.168,0-.126.278-.463.796-1.348,1.394-2.275,3.464-7.541,4.578-11.838.836-3.16,1.633-7.162,1.792-9.058,6.011,1.643,6.927,2.022,6.927,2.949,0,.674-.239.927-1.593,1.559-1.154,2.57-1.871,4.171-2.866,5.982,1.115.463,1.792.969,1.792,1.432,0,.295-.239.548-.956.927.12,8.678.12,16.135.159,19.969,0,1.011.04,1.98.04,2.317,0,1.222-.119,1.601-.597,2.022-.638.548-1.911.885-3.146.885-1.473,0-1.791-.295-1.791-1.601,0-.716.198-4.213.358-10.532l.238-9.184ZM306.327,52.014c2.668-4.129,3.146-4.719,3.742-4.719.638,0,1.673.843,2.986,2.401.915,1.137,1.234,1.77,1.234,2.401s-.398.969-1.115.969h-20.9c-1.154,0-2.389.042-3.543.168-.717-.927-.756-1.011-.756-1.095,0-.168.119-.295.318-.295.875.084,2.03.168,2.587.168h8.799c1.672-6.993,2.627-13.271,3.423-22.876,5.017,1.306,7.047,2.317,7.047,3.455,0,.632-.239.885-1.672,1.432-2.03,6.446-3.782,11.249-6.569,17.989h4.419ZM305.89,26.821c2.349-3.665,2.667-3.918,3.065-3.918.478,0,1.513.885,2.985,2.359.876.927,1.155,1.306,1.155,1.769,0,.506-.438.843-1.035.843h-20.224c-.836,0-1.712,0-2.548.084-.598-.885-.637-.969-.637-1.053,0-.168.119-.295.318-.295.796.126,1.831.211,2.349.211h5.454l-.12-7.668v-.295c0-.758,0-.927.358-.927.717,0,4.061.421,4.777.59,1.274.337,1.792.674,1.792,1.222,0,.506-.199.758-1.354,1.475v5.603h3.662ZM293.429,41.735c.159-4.382-.875-8.679-2.069-10.153-.12-.168-.12-.211-.12-.337,0-.084.08-.169.239-.169.836,0,3.821,3.286,5.096,5.646,1.513,2.738,2.229,5.308,2.229,7.836,0,3.033-1.154,4.761-3.225,4.761-1.513,0-2.31-1.18-2.31-3.455,0-.674.08-2.317.12-2.949l.039-1.18Z"/></g></svg>