<svg xmlns="http://www.w3.org/2000/svg" width="177.786" height="84.619" viewBox="0 0 177.786 84.619">
  <g id="グループ_30683" data-name="グループ 30683" transform="translate(-352.5 -9036.473)">
    <path id="パス_106455" data-name="パス 106455" d="M56.991,72.717H68.58l-5.794,3.9ZM25.9,59.765l9.375,6.319H25.9Zm73.765,0v6.319H90.294ZM11.87,42.31l5.684-3.83V46.14Zm96.148-3.83,5.683,3.83-5.683,3.83ZM25.9,18.536h9.375L25.9,24.854Zm0,33.23V32.853L47.148,18.536H78.424L99.668,32.853V51.766L78.424,66.083H47.148Zm64.39-33.23h9.375v6.319ZM62.786,8l5.794,3.9H56.991Zm0-8L45.122,11.9H27.579L17.554,18.659V30.481L0,42.31,17.554,54.138V65.961l10.023,6.755H45.122l17.664,11.9,17.664-11.9H97.983l10.034-6.761V54.138L125.572,42.31,108.018,30.481V18.659L97.993,11.9H80.45Z" transform="translate(404.714 9036.473)" fill="#c7bb5d"/>
    <text id="_4" data-name="4" transform="translate(467.5 9096.701)" fill="#c7bb5d" font-size="60" font-family="PassionOne-Regular, Passion One"><tspan x="-14.76" y="0">4</tspan></text>
    <text id="Point" transform="translate(377.5 9086.092)" fill="#c7bb5d" font-size="25" font-family="PassionOne-Regular, Passion One"><tspan x="-24.225" y="0">Point</tspan></text>
  </g>
</svg>
