<?xml version="1.0" encoding="UTF-8"?><svg id="_レイヤー_1" xmlns="http://www.w3.org/2000/svg" viewBox="0 0 175.91 84.62"><defs><style>.cls-1{fill:#c7bb5d;}</style></defs><path class="cls-1" d="M113.13,0l-17.66,11.9h-17.54l-10.02,6.76v11.82l-17.55,11.83,17.55,11.83v11.82l10.02,6.76h17.54l17.66,11.9,17.66-11.9h17.53l10.03-6.76v-11.82l17.55-11.83-17.55-11.83v-11.82l-10.02-6.76h-17.54L113.13,0ZM113.13,8l5.79,3.9h-11.59l5.8-3.9ZM140.63,18.54h9.37v6.32l-9.37-6.32ZM76.24,51.77v-18.91l21.24-14.32h31.28l21.24,14.32v18.91l-21.24,14.32h-31.28l-21.24-14.32ZM76.24,18.54h9.37l-9.37,6.32v-6.32ZM158.36,38.48l5.68,3.83-5.68,3.83v-7.66ZM62.21,42.31l5.68-3.83v7.66l-5.68-3.83ZM150.01,59.76v6.32h-9.37l9.37-6.32ZM76.24,59.76l9.37,6.32h-9.37v-6.32ZM107.33,72.72h11.59l-5.79,3.9-5.8-3.9Z"/><path class="cls-1" d="M101.21,25.49c3.88-2.08,7.75-3.12,11.61-3.12s6.79.98,8.79,2.94c2,1.96,3,4.73,3,8.31s-.63,6.51-1.89,8.79c-1.26,2.28-3.57,5.36-6.93,9.24h8.94v8.58h-22.02l-.48-6.12c3.8-4.04,6.5-7.1,8.1-9.18,1.6-2.08,2.68-3.8,3.24-5.16.56-1.36.84-2.63.84-3.81s-.29-2.09-.87-2.73c-.58-.64-1.33-.96-2.25-.96s-1.8.12-2.64.36c-1.16.28-3,1-5.52,2.16l-1.92-9.3Z"/><path class="cls-1" d="M5.35,44.54h-1.15v5.07H0v-15.53h5.07c1.78,0,3.11.41,3.98,1.23s1.3,2.16,1.3,4.02-.41,3.2-1.23,4c-.82.8-2.08,1.2-3.77,1.2ZM5.82,41.17c.15-.28.23-.79.23-1.53s-.08-1.25-.25-1.55c-.17-.3-.5-.45-1-.45h-.6v3.95h.7c.47,0,.77-.14.92-.42Z"/><path class="cls-1" d="M11.05,43.58c0-2.19.42-3.78,1.26-4.76.84-.98,2.16-1.48,3.95-1.48s3.1.48,3.91,1.45,1.23,2.55,1.23,4.76-.4,3.81-1.2,4.81c-.8,1-2.11,1.5-3.93,1.5s-3.14-.5-3.98-1.5-1.25-2.6-1.25-4.79ZM17.06,41.22c-.11-.33-.38-.5-.81-.5s-.71.17-.83.5c-.12.33-.17,1.04-.17,2.1v.6c0,1.18.06,1.95.17,2.3.12.35.39.53.81.53s.7-.17.81-.53c.12-.35.18-1.07.18-2.15v-.73c0-1.08-.05-1.79-.16-2.12Z"/><path class="cls-1" d="M23.12,36.82c-.35-.3-.52-.78-.52-1.45s.18-1.16.52-1.47c.35-.32.93-.47,1.73-.47s1.38.16,1.73.47.52.8.52,1.46-.17,1.14-.52,1.45-.92.46-1.73.46-1.38-.15-1.73-.45ZM26.92,49.62h-4.12v-11.85h4.12v11.85Z"/><path class="cls-1" d="M32.67,38.52c.92-.78,1.93-1.18,3.03-1.18s1.87.26,2.31.76c.44.51.66,1.27.66,2.29v9.22h-4.25v-7.8c0-.42-.18-.62-.55-.62-.47,0-.86.12-1.17.35v8.07h-4.2v-11.97h3.83l.25.88h.1Z"/><path class="cls-1" d="M46.92,49.64c-1.23.15-2.3.22-3.21.22s-1.62-.24-2.12-.71c-.51-.47-.76-1.29-.76-2.46v-5.8h-1.2v-3.1h1.4l.23-2.3h3.77v2.3h2.23l-.18,3.1h-2.07v4.97c0,.35.17.53.5.53.03,0,.55-.03,1.55-.07l-.12,3.32Z"/></svg>