<?xml version="1.0" encoding="UTF-8"?><svg id="_レイヤー_1" xmlns="http://www.w3.org/2000/svg" viewBox="0 0 32 32"><defs><style>.cls-1{fill:#637389;}.cls-2{fill:#eae35a;}</style></defs><path class="cls-1" d="M16,0c1.05,0,2.09.1,3.12.31,1.03.21,2.03.51,3,.91.97.4,1.89.9,2.77,1.48.87.58,1.68,1.25,2.42,1.99s1.41,1.55,1.99,2.42c.58.87,1.08,1.8,1.48,2.77.4.97.71,1.97.91,3,.2,1.03.31,2.07.31,3.12s-.1,2.09-.31,3.12c-.2,1.03-.51,2.03-.91,3-.4.97-.89,1.89-1.48,2.77-.58.87-1.25,1.68-1.99,2.42s-1.55,1.41-2.42,1.99c-.87.58-1.8,1.08-2.77,1.48-.97.4-1.97.71-3,.91-1.03.21-2.07.31-3.12.31s-2.09-.1-3.12-.31c-1.03-.21-2.03-.51-3-.91-.97-.4-1.89-.9-2.77-1.48-.87-.58-1.68-1.25-2.42-1.99s-1.41-1.55-1.99-2.42c-.58-.87-1.08-1.8-1.48-2.77-.4-.97-.71-1.97-.91-3-.2-1.03-.31-2.07-.31-3.12s.1-2.09.31-3.12c.2-1.03.51-2.03.91-3,.4-.97.89-1.89,1.48-2.77.58-.87,1.25-1.68,1.99-2.42s1.55-1.41,2.42-1.99c.87-.58,1.8-1.08,2.77-1.48.97-.4,1.97-.71,3-.91,1.03-.21,2.07-.31,3.12-.31Z"/><path class="cls-2" d="M16.03,24.03c-.92,0-1.57-.17-1.95-.5-.38-.33-.56-.85-.56-1.55s.18-1.22.55-1.55,1.02-.5,1.96-.5,1.59.17,1.95.5c.36.33.54.85.54,1.55s-.18,1.22-.55,1.55c-.37.33-1.01.5-1.93.5ZM13.75,19.27l-.31-11.39h5.12l-.38,11.39h-4.43Z"/></svg>