<svg xmlns="http://www.w3.org/2000/svg" viewBox="0 0 212.8 212.78"><defs><style>.cls-1{isolation:isolate;}.cls-2{fill:#717071;}.cls-3{fill:none;}.cls-3,.cls-6{stroke:#231815;stroke-linecap:round;stroke-linejoin:round;stroke-width:0.8px;}.cls-4,.cls-6{fill:#fff;}.cls-5,.cls-8{fill:#231815;}.cls-7{fill:#f63402;}.cls-8{mix-blend-mode:multiply;}</style></defs><g class="cls-1"><g id="レイヤー_1" data-name="レイヤー 1"><path class="cls-2" d="M125.05,68.75a8.75,8.75,0,0,1,1.51,7.94c-.86,3.17-2.31,6-2.17,9.65.08,1.93,1,2.79,3.52,4.46,0,0,3.35,1.62,1.08,5.33,0,0-7.9,1.23-12.57-2.72s-1.1-18-1.1-18l6-7.58Z"/><path class="cls-3" d="M125.05,68.75a8.75,8.75,0,0,1,1.51,7.94c-1.31,4.86-4.48,12.21.49,17.21"/><path class="cls-3" d="M121.44,70.24s3.7,2.68,3,13c0,0-1.11,4.64,2.49,6.85s2.6,3.79,2.6,3.79"/><path class="cls-3" d="M117.11,73.92s3.6,2.27,3.29,11.09c0,0-.76,4.87,2.83,7.09a4.17,4.17,0,0,1,2,5.48"/><path class="cls-3" d="M120.4,72.92s4.52,4,1.68,11c-1.77,4.38-.31,8.65,2.35,9.51"/><path class="cls-4" d="M129.45,102.07s-4.4,3.47-13.9,3.47-22.7-4-22.7-4c-2.26-3.42,1-6.32,1-6.32,5.65-2.46,7.68-4.33,7.68-4.33a4.76,4.76,0,0,0,1.7-2c1.35-2.65,1-10.39,1-10.39s1-4.56,6.6-4.56,6.6,4.56,6.6,4.56-.44,7.77.9,10.42a7.86,7.86,0,0,0,2.52,2.58,30.56,30.56,0,0,0,7,3.74S132.07,98.48,129.45,102.07Z"/><path class="cls-3" d="M104.18,78.51s.3,8.17-1.16,10.81a5.54,5.54,0,0,1-2.32,2.19,27.23,27.23,0,0,1-6.92,3.74"/><path class="cls-3" d="M117.38,78.51s-.31,8.17,1.15,10.81a5.6,5.6,0,0,0,2.33,2.19,31.59,31.59,0,0,0,6.91,3.74"/><path class="cls-4" d="M125.14,53.49c-.73-8.48-9.22-11.33-14.48-11.09C102.6,42.77,98.88,47.49,97,54c-.81,2.78.18,8.14.18,8.14A1.48,1.48,0,0,0,95,61.55c-1.58.9-.59,5.25.4,6.5s2.17,2.43,3.48,2a18.21,18.21,0,0,0,3.22,6.5,26.86,26.86,0,0,0,7.22,5.19,3.51,3.51,0,0,0,2.8,0,25.73,25.73,0,0,0,7.22-5.19,18,18,0,0,0,3.22-6.5c1.32.39,2.5-.79,3.48-2s2-5.68.4-6.5c-1.35-.69-1.89.27-1.89.27A54.59,54.59,0,0,0,125.14,53.49Z"/><path class="cls-2" d="M112.21,39.11a10.89,10.89,0,0,0-7.38,0c-6.14,2.4-8.3,9.24-8.3,9.24a13.4,13.4,0,0,0-2.17,4.37c-1,3,.17,8.87.17,8.87a2,2,0,0,1,2.45.31s.66,2.35,1,4.28c0,0,.22-4.28.87-5.38a20.61,20.61,0,0,0,3.7-1.64,13.15,13.15,0,0,1,3.36.39,11.6,11.6,0,0,0,8.26-5c1.71-2.39,2.56-7,2.6-7a29.51,29.51,0,0,1,3.6,4.71A24.44,24.44,0,0,1,122,56.11a89.15,89.15,0,0,1,1.41,9.33,24,24,0,0,0,1.19-3.62s.53-1,1.88-.27c0,0,2.11-4.08.44-7.8a7.54,7.54,0,0,0,.65-.45l-.9-.62.65-.24-.56-.74s-1.48-3.21-2.46-4.86-2.6-5.3-5.75-7C114.17,37.53,112.21,39.11,112.21,39.11Z"/><path class="cls-3" d="M97.18,62.14a1.48,1.48,0,0,0-2.12-.59c-1.58.9-.59,5.25.39,6.5s2.17,2.43,3.49,2a18.1,18.1,0,0,0,3.21,6.5,27,27,0,0,0,7.23,5.19,3.49,3.49,0,0,0,2.79,0,25.74,25.74,0,0,0,7.23-5.19,18.21,18.21,0,0,0,3.22-6.5c1.31.39,2.49-.79,3.48-2s2-5.68.39-6.5c-1.35-.69-1.88.27-1.88.27"/><path class="cls-3" d="M110.14,65.84s.42,3-1.23,4.68a3.76,3.76,0,0,0,1.87.54,9.24,9.24,0,0,0,1.43-.3"/><path class="cls-3" d="M101.79,43.81s-6.65,4.39-7.44,9.49a27.07,27.07,0,0,0,.18,8.25"/><path class="cls-3" d="M96.53,61.32s2.23-.11,5.69-2.32c3.88-2.47,7.33-10.22,8-11.51s2.55-4.07,5.39-4.36"/><path class="cls-3" d="M115.56,45.37s-5.21,8.81-7.91,11.46A6.61,6.61,0,0,1,102.22,59"/><path class="cls-3" d="M116.8,47.49s-.82,5.91-4.22,8.87-5.7,2.76-5.7,2.76"/><path class="cls-3" d="M117.15,47.93c.2.26,5.61,3.7,9.9,3.94"/><path class="cls-3" d="M120.4,52s4.17,1.4,6.93.42"/><path class="cls-3" d="M121.21,54.69s4.59.19,6.37-1.39"/><path class="cls-3" d="M127.13,53.85a10.32,10.32,0,0,1-.64,7.7"/><path class="cls-3" d="M126.68,51.44s-4.07-9-7.45-11.17c-4.32-2.8-7-1.16-7-1.16"/><path class="cls-3" d="M113.39,39.67a10.46,10.46,0,0,0-6.51-1.18c-3.81.53-8.14,4.21-11.1,11.24"/><path class="cls-3" d="M98.88,60.76a20.67,20.67,0,0,0-.77,5.69s-.5-2.59-1.13-5.13"/><path class="cls-5" d="M121.49,59.92a9,9,0,0,0-4.19-1.07A9.37,9.37,0,0,0,113.67,60c-.33.26-.12,1.07.54.76a9.17,9.17,0,0,1,3.23-1,8.51,8.51,0,0,1,3.85.69C122.36,60.92,122.26,60.28,121.49,59.92Z"/><path class="cls-3" d="M124.92,60.28c-.63,2.55-1.48,6.17-1.48,6.17a48.9,48.9,0,0,0-1-8l-.24-2"/><path class="cls-5" d="M118.34,63.4a1.2,1.2,0,1,1-2.38,0,1.2,1.2,0,1,1,2.38,0Z"/><path class="cls-5" d="M100.08,59.92a9,9,0,0,1,4.19-1.07A9.29,9.29,0,0,1,107.89,60c.33.26.13,1.07-.54.76a9,9,0,0,0-3.22-1,8.58,8.58,0,0,0-3.86.69C99.21,60.92,99.3,60.28,100.08,59.92Z"/><path class="cls-5" d="M103.22,63.4a1.2,1.2,0,1,0,1.19-1.34A1.26,1.26,0,0,0,103.22,63.4Z"/><path class="cls-3" d="M107.65,74.26A1.86,1.86,0,0,0,109,75a10,10,0,0,0,3,.06,2.68,2.68,0,0,0,1.89-.78"/><path class="cls-3" d="M121.9,56.35s3.63,1.41,5.43-.59"/><path class="cls-3" d="M123.23,57.7s2.87,1.06,3.82,2.39"/><path class="cls-3" d="M94.78,60.86a8.75,8.75,0,0,1,2.83-4c4.46-3.83,6.83-8.25,8.43-10.18s3.81-4.37,5.8-4.63"/><path class="cls-3" d="M117.15,45.24a12,12,0,0,1,8.75,4.66"/><path class="cls-6" d="M100.21,99.89s11.84,3.86,21.15,0l-10.8,36.92S104.81,125.43,100.21,99.89Z"/><path class="cls-7" d="M134.28,157.79c2.83-2.36,8-6.74,9.14-7.88,1.41-1.43,3.14-3.78,3.17-9.1,0-6.38-.18-12.24-.81-19.66a84.13,84.13,0,0,0-4.09-19.77,5.34,5.34,0,0,0-2.48-2.33S127.4,94,125.44,92.86l-5.83-5.33c-1.11-1.14-1.29.09-1.29.09s1.3,7.63-1.5,18.55c-1.53,5.93-7.06,20.45-7.06,20.45s-4.79-15.11-5.89-21.08a81.33,81.33,0,0,1-1-17.56s-.17-1.28-1.34,0c-1.91,2.06-5.72,5.21-5.72,5.21l-8.57,4.67c-2,1.2-3.64,2-4.36,5.74,0,0-2.88,11.37-5.65,26.68,0,0,2.36,4.72,5.94,5.2a15.16,15.16,0,0,0,7.16-1.11c1.17,5.54,2.21,12.2,2.17,14.77-.06,3.43-1.79,20.42-1.79,20.42H137s-.86-4-1.53-7.14A43,43,0,0,0,134.28,157.79Z"/><path class="cls-7" d="M91.5,134.77c-3.08,8.76-4.69,11.56-6.72,14.08a6.83,6.83,0,0,1-9.76.88c-2.62-2.48-4.92-7.82-5.79-13.84-2-14.1-4.48-25.65-4.48-25.65s.24-1.54,7-3c1.88-.41,4.87-.68,4.87-.68s3.45,15.61,5.28,20.94l5.56,6.93Z"/><path class="cls-6" d="M134.28,157.79a111.36,111.36,0,0,1,2.7,11.77"/><path class="cls-3" d="M88.29,114.62a40.71,40.71,0,0,0,.88,14.76c1.53,5.63,3.41,16.33,3.35,19.76s-1.49,12.7-1.79,20.42"/><path class="cls-6" d="M68.37,109l-.89-6.8S65.22,99,65,97.25A27.34,27.34,0,0,1,65.77,90c-.17-1.17-2.16-5.94-1.49-7.3a1,1,0,0,1,1.43-.42,6,6,0,0,1-.25-1.51c-.1-2.1,1.48-1.35,1.48-1.35.54-2.46,2.29-.78,2.29-.78-.13-1.63,1.09-1.79,1.65-1.16a42.52,42.52,0,0,1,2.84,5.27c.9,1.77,2.09,4,2.09,4,.6,1.35,1.59,2.64,1.26,4.38-.52,2.77-3.24,9.22-3.18,9.56.13.88,1.14,6,1.14,6Z"/><path class="cls-3" d="M69.23,78.67s2.08,7.08,2.9,9.31"/><path class="cls-3" d="M66.94,79.45s1.32,5.8,2.62,9.45"/><path class="cls-3" d="M65.71,82.31s1.29,4.84,2.16,7.13"/><path class="cls-3" d="M76.65,106.57A19.12,19.12,0,0,1,69.19,110c-2.19.54-4.28.73-4.44.24-.27-.78,1.36-1.36,3.46-2.09"/><path class="cls-3" d="M91.5,134.77c-3.08,8.76-4.69,11.56-6.72,14.08a6.83,6.83,0,0,1-9.76.88c-2.62-2.48-4.92-7.82-5.79-13.84-2-14.1-4.48-25.65-4.48-25.65s.24-1.54,7-3c1.88-.41,4.87-.68,4.87-.68s3.45,15.61,5.28,20.94"/><rect class="cls-6" x="55.19" y="61.61" width="18.29" height="27.97" transform="translate(-20.22 23.59) rotate(-18.01)"/><path class="cls-3" d="M77.25,130.28C80,115,82.9,103.6,82.9,103.6c.72-3.71,2.38-4.54,4.36-5.74l8.57-4.67S99.64,90,101.55,88c1.17-1.28,1.34,0,1.34,0s-.88,5.37.74,16.19c.9,6,6.13,22.45,6.13,22.45s5.82-15.32,7.21-21.28C119.42,94.82,118.36,88,118.36,88s.45-1.1,1.25-.45l5.83,5.33c2,1.12,13.77,6.19,13.77,6.19a5.34,5.34,0,0,1,2.48,2.33,84.13,84.13,0,0,1,4.09,19.77c.63,7.42.84,13.28.81,19.66,0,5.32-1.76,7.67-3.17,9.1-3.62,3.67-20.73,17.26-20.73,17.26C112,169,110.5,160.8,110.5,160.8"/><path class="cls-3" d="M95.83,93.19S94.16,97.27,93,99.55l6.77,3.51L92,105.38s10.12,18,13.94,22.48"/><path class="cls-3" d="M125.44,92.86s1.71,4.17,2.92,6.42l-8.45,3.91,7.86,2.15s-4.27,8.89-18.31,26"/><path class="cls-6" d="M66.82,110.45s-.13-2.16-.3-3a44.47,44.47,0,0,0,9.31-2.7l.39,2.17s-1,1.11-4.88,2.47A37.31,37.31,0,0,1,66.82,110.45Z"/><path class="cls-6" d="M111.84,164.15s7,.17,11.06-1.45a18.7,18.7,0,0,0-3.05-6.43C117.55,153.55,108.72,158.74,111.84,164.15Z"/><rect class="cls-6" x="109" y="117.05" width="4.17" height="41.35"/><polygon class="cls-6" points="109 158.4 74.94 152.42 74.94 111.07 109 117.05 109 158.4"/><polygon class="cls-6" points="109 158.4 77.07 151.09 77.07 109.74 109 117.05 109 158.4"/><polygon class="cls-6" points="110.11 158.46 79.15 149.66 79.15 108.31 110.11 117.11 110.11 158.46"/><polygon class="cls-6" points="111.84 158.4 81.39 148.77 81.39 107.42 111.84 117.05 111.84 158.4"/><polygon class="cls-6" points="113.17 158.4 147.24 152.42 147.24 111.07 113.17 117.05 113.17 158.4"/><polygon class="cls-6" points="113.17 158.4 145.1 151.09 145.1 109.74 113.17 117.05 113.17 158.4"/><polygon class="cls-6" points="113.57 158.4 143.42 149.91 143.42 108.56 113.57 117.05 113.57 158.4"/><polygon class="cls-6" points="111.84 158.4 141.69 148.96 141.69 107.61 111.84 117.05 111.84 158.4"/><path class="cls-3" d="M113.91,120.49a2.08,2.08,0,0,0-4.15,0"/><path class="cls-3" d="M109.76,123.22a2.08,2.08,0,0,1,4.15,0"/><path class="cls-3" d="M113.91,126.62a2.08,2.08,0,0,0-4.15,0"/><path class="cls-3" d="M109.76,129.59a2.08,2.08,0,1,1,4.15,0"/><path class="cls-3" d="M113.91,132.75a2.08,2.08,0,0,0-4.15,0"/><path class="cls-3" d="M109.76,135.48a2.08,2.08,0,0,1,4.15,0"/><path class="cls-3" d="M113.91,138.88a2.08,2.08,0,0,0-4.15,0"/><path class="cls-3" d="M109.76,141.85a2.08,2.08,0,1,1,4.15,0"/><path class="cls-3" d="M109.76,144.93a2.08,2.08,0,1,1,4.15,0"/><path class="cls-3" d="M113.91,148.33a2.08,2.08,0,1,0-4.15,0"/><path class="cls-3" d="M109.76,151.29a2.08,2.08,0,0,1,4.15,0"/><path class="cls-6" d="M110,164.24a13.38,13.38,0,0,0,6.52-1.62c2.75-1.53,3.11-3.54,3.11-3.54.34-.94-.08-1.92-.85-1.63l-2.82.51s-3.48-5.08-4.38-5.68a1.15,1.15,0,0,0-1.77.34s-.5-1.32-1.54-.93-.46,2-.46,2-.48-1.35-1.31-.94c-1.06.51-.07,3.48-.07,3.48-.92-1.87-2-1.1-2,.19a27.74,27.74,0,0,0,1,5S106,164,110,164.24Z"/><path class="cls-6" d="M106.38,156.27s1,3.56,1.84,6.07"/><path class="cls-6" d="M107.61,153.4s1.2,3.5,3.26,8.27"/><path class="cls-6" d="M109.76,152.62s2.42,5,4.15,7.91"/><path class="cls-6" d="M115.91,158s.6.78.91,1.12"/><path class="cls-3" d="M122.69,167.17a6.63,6.63,0,0,0,.21-4.47"/><rect class="cls-6" x="59.67" y="60.16" width="18.29" height="27.97" transform="translate(-7.06 7.25) rotate(-5.73)"/><rect class="cls-6" x="64.36" y="60.18" width="18.29" height="27.97" transform="translate(10.55 -9.14) rotate(7.66)"/><path class="cls-4" d="M72,98.22s3-4.37,3.16-6-.25-2.08-.25-2.08S70.39,86.65,68.53,84c-.62-.89-1.3-.31-1.31.75,0,2.24,3.42,6,3.42,6a11.71,11.71,0,0,0-1.45,6.52S69.76,100.55,72,98.22Z"/><path class="cls-3" d="M74.92,90.1S70.39,86.65,68.53,84c-.62-.89-1.3-.31-1.31.75,0,2.24,3.42,6,3.42,6a11.71,11.71,0,0,0-1.45,6.52"/><rect class="cls-6" x="153.26" y="17.88" width="32.92" height="50.35" transform="translate(19.26 132.61) rotate(-45)"/><path class="cls-5" d="M149,33.66c-.31-.35-1.26-.21-1.08-1,.07-.35.56-.45.78-.43s.39.31.56.08C149.72,32.67,149.9,33.71,149,33.66Z"/><path class="cls-5" d="M188.46,58.55c-.23-.54-1.18,0-.81-.92,0-.66.7-.46,1.07-.46C189.31,57.56,189.73,58.92,188.46,58.55Z"/><path class="cls-5" d="M186.83,50.47c-.29-.19-.93-.08-.92-.67l.44-.72,1.1.6C187.26,50,187.33,50.52,186.83,50.47Z"/><path class="cls-5" d="M179.93,57.93c-.08-.18-.1-.49-.36-.6,0-.21.3-.17.41-.28C180.6,57,180.7,58.24,179.93,57.93Z"/><path class="cls-5" d="M178.45,55.69a.74.74,0,0,1,.8-.87c.09.33.66.19.48.64l-.44.72Z"/><path class="cls-5" d="M179.38,49.49c-.14-1.32-1.33-.39-1.66-1.41l.15-.39c.72,1.19,2.47-.94,2.79.83C180.34,49.14,180.2,49.68,179.38,49.49Z"/><path class="cls-5" d="M180,51.23c-.22,0-.21-.23-.28-.41s.29-.17.41-.28C180.47,50.7,180.2,51.18,180,51.23Z"/><path class="cls-5" d="M178.86,66.78c0-.22-.19-.45,0-.75l.36-.15.08.18.36-.15C180.76,66.5,179.34,67.79,178.86,66.78Z"/><path class="cls-5" d="M181,38.17c-.06-.34.11-.83-.34-.89h-.22c-.05-.16.11-.22.22-.33.72.5,1.71-.61,2,.77.06.55-.55.72-.88.88A.92.92,0,0,1,181,38.17Z"/><path class="cls-5" d="M177.37,41.44c-.34.05-.68.39-1.07.1-.05-.25-.25-.44-.2-.78C176.79,40.17,177.91,40.52,177.37,41.44Z"/><path class="cls-5" d="M171.61,63.54c-.34.05-.68.39-1.07.1,0-.25-.25-.44-.2-.79C171,62.27,172.15,62.61,171.61,63.54Z"/><path class="cls-5" d="M177.89,32.74c-.29.09-.48-.1-.58-.39l.78-.2C178.14,32.4,178,32.54,177.89,32.74Z"/><path class="cls-5" d="M192.5,51.56c-.3.1-.49-.1-.59-.39l.78-.19C192.74,51.22,192.6,51.37,192.5,51.56Z"/><path class="cls-5" d="M177.21,32.05c-.15,0-.39.1-.49-.1l.3-.29C177.11,31.76,177.31,31.86,177.21,32.05Z"/><path class="cls-5" d="M165.17,49.19c-.24-.24-.68.49-.78-.2.2,0,.39.1.49-.09v-.2C165.17,48.8,165.71,48.85,165.17,49.19Z"/><path class="cls-5" d="M173.48,41a3.34,3.34,0,0,1-1-.19c.15-.25.1-.78.59-.59C173.43,40.36,173.38,40.7,173.48,41Z"/><path class="cls-5" d="M184.78,36.67c-.19,0-.44,0-.58-.2s.29-.29.49-.29S184.78,36.47,184.78,36.67Z"/><path class="cls-5" d="M151.29,44.19c-.35.24-.93.44-1.18.78l-.68-.1c.64-.54-.29-1.47.69-1.66C150.75,43.26,151.68,43.21,151.29,44.19Z"/><path class="cls-5" d="M165.9,22.86l-.39-.39c.19-.1.09-.3.09-.49a2.64,2.64,0,0,1,1.27.1C166.87,22.57,166.58,23.25,165.9,22.86Z"/><path class="cls-5" d="M177.1,37c0,.15-.19.1-.29.1l-.29-.3A.31.31,0,0,1,177.1,37Z"/><path class="cls-5" d="M173.82,28.42c-.1.19-.54.24-.78.19,0-.12-.27-.17-.44-.24-.07-.61-.29-1,.39-1.27h.39V27C173.85,27.17,174.43,28,173.82,28.42Z"/><path class="cls-5" d="M171.84,32.53c-.1.1-.2.29-.39.2s-.24-.25-.19-.4S172,32.09,171.84,32.53Z"/><path class="cls-5" d="M173.79,35.07h-.2l.2-.78C173.84,34.63,174.42,34.73,173.79,35.07Z"/><path class="cls-5" d="M166.52,36.68v-.2c.54.25.78-.48,1.17,0C167.35,36.53,167,37.22,166.52,36.68Z"/><path class="cls-5" d="M162.58,24c-.05.15-.19.1-.29.1l-.19-.2.29-.29C162.49,23.73,162.68,23.83,162.58,24Z"/><path class="cls-5" d="M187.68,39.86l-.49-.1.3-.29C187.58,39.57,187.78,39.66,187.68,39.86Z"/><rect class="cls-5" x="179.56" y="42.47" width="0.69" height="0.28" transform="translate(22.08 138.9) rotate(-44.71)"/><path class="cls-5" d="M189.53,42.3c-.05.15-.19.1-.29.1l-.2-.2.2-.19Z"/><path class="cls-5" d="M192.35,44.31c-.15-.24,0-.73.29-.68l-.1.68Z"/><path class="cls-5" d="M185.34,39.46c-.05.15-.2.1-.29.1l-.2-.2.29-.29C185.24,39.17,185.44,39.27,185.34,39.46Z"/><path class="cls-5" d="M188.64,48.57c0,.15-.2.1-.29.1l-.2-.2.3-.29C188.54,48.28,188.74,48.38,188.64,48.57Z"/><path class="cls-5" d="M166.4,18.72c-.1.39-.44.05-.69.09a.89.89,0,0,1-.29-.68A.57.57,0,0,1,166.4,18.72Z"/><path class="cls-5" d="M150,30c-.09.39-.44.05-.68.1a.91.91,0,0,1-.29-.68A.57.57,0,1,1,150,30Z"/><path class="cls-5" d="M154.09,46.18c-.1.19-.29.1-.49.09s0-.34-.1-.48C153.8,45.69,154.19,45.88,154.09,46.18Z"/><path class="cls-5" d="M159.36,23.92l-1.07-.1c.05-.44.15-.93.68-.88A.89.89,0,0,1,159.36,23.92Z"/><path class="cls-5" d="M189.63,44.35c-.2,0-.44,0-.59-.19l.29-.3C189.48,44,189.77,44.11,189.63,44.35Z"/><path class="cls-5" d="M188.2,42.73h-.39c.05-.25-.14-.44.2-.39C188.11,42.43,188.3,42.53,188.2,42.73Z"/><path class="cls-5" d="M181.14,40.14c-.19-.1-.15-.34-.19-.59h.58C181.43,39.75,181.63,40.24,181.14,40.14Z"/><path class="cls-5" d="M184.65,43.66h-.39c0-.34.19-.59.49-.49C184.75,43.37,184.84,43.56,184.65,43.66Z"/><path class="cls-5" d="M185.65,45.14c-.29-.29-1.66,1.46-1.85.1C184.39,44.75,185.56,44.46,185.65,45.14Z"/><path class="cls-5" d="M170.31,26.61c-.1.1-.2.3-.39.2s0-.34-.1-.49C170,26.32,170.45,26.27,170.31,26.61Z"/><polygon class="cls-5" points="160.5 18.8 160.99 18.7 160.99 19.09 160.5 18.8"/><path class="cls-5" d="M158.17,45.94c-.29,0-.68.1-.88-.29v-.39C157.68,45,158.71,45.31,158.17,45.94Z"/><path class="cls-5" d="M152.3,28.15h-.39c-.15.15,0-.63.29-.48S152.3,28,152.3,28.15Z"/><path class="cls-5" d="M183.47,53.07h-.39c-.14.15-.05-.63.3-.49C183.57,52.68,183.47,52.88,183.47,53.07Z"/><path class="cls-5" d="M151.91,29.33v-.4c.49-.09.63.05.68.49Z"/><path class="cls-5" d="M153,32.16c-.09.19-.29.1-.48.09v-.39C152.58,31.86,153.17,31.77,153,32.16Z"/><path class="cls-5" d="M195.58,51.17c-.1.2-.29.1-.49.1v-.39C195.19,50.88,195.78,50.78,195.58,51.17Z"/><path class="cls-5" d="M159.52,36.21c-.05.14-.2.09-.3.09l-.19-.19.29-.3C159.42,35.91,159.61,36,159.52,36.21Z"/><path class="cls-5" d="M191.23,48.65c-.2-.2-.49-.1-.78-.2l-.19-1.37h.39v.2h.78v.2l.39-.2C191.62,47.67,192.25,48.8,191.23,48.65Z"/><path class="cls-5" d="M161.07,48.4c-.1.09-.2.39-.49.29s-.15-.34-.19-.59C160.58,47.52,161.75,47.91,161.07,48.4Z"/><polygon class="cls-5" points="154.56 39.26 154.46 38.77 155.04 38.58 155.24 39.16 154.56 39.26"/><path class="cls-5" d="M161.69,33.1c-.2,0-.44,0-.59-.2v-.19l.69-.1C161.79,32.81,161.88,33,161.69,33.1Z"/><path class="cls-5" d="M165,34.13c-.35-.14-1.08.2-1.08-.49C164.46,33.16,164.75,33.65,165,34.13Z"/><path class="cls-5" d="M160.42,33.19c-.15,0-.59,0-.49-.29C160.08,32.85,160.52,33,160.42,33.19Z"/><path class="cls-5" d="M188.93,47.24c-.15,0-.59,0-.49-.29C188.59,46.9,189,47.05,188.93,47.24Z"/><path class="cls-5" d="M173.66,66.55c-.15,0-.59,0-.49-.29C173.32,66.21,173.76,66.36,173.66,66.55Z"/><path class="cls-5" d="M167.72,40.72c-.53.34-1,.59-1,1.37l-.49-.1c.73-.63-.68-2.05.88-2.05Z"/><path class="cls-5" d="M172.3,45.51l-.29.3c-.44,0-.29-.49-.49-.69C171.82,44.73,172.55,45,172.3,45.51Z"/><path class="cls-5" d="M165.86,44.33c-.09-.19-1-.68,0-.58Z"/><path class="cls-5" d="M167.81,46.09c-.19,0-.44,0-.58-.19C167.32,45.6,167.91,45.51,167.81,46.09Z"/><path class="cls-5" d="M162.84,44.62c-.15,0-.39.1-.49-.1s.29-.29.49-.29Z"/><path class="cls-5" d="M161.37,44.13a1.32,1.32,0,0,1-1.36,0c-.25-.25-.73-.74-.29-.88a1.76,1.76,0,0,1,1.17-.59C162,43.05,160.5,43.74,161.37,44.13Z"/><path class="cls-5" d="M165.59,57.28a1.35,1.35,0,0,1-1.36,0c-.25-.25-.73-.74-.29-.88a1.76,1.76,0,0,1,1.17-.59C166.18,56.21,164.72,56.89,165.59,57.28Z"/><path class="cls-5" d="M152.86,26.41h-.58c.19-.2,0-.69.39-.59S152.86,26.21,152.86,26.41Z"/><path class="cls-5" d="M167.64,55.61h-.39c-.15.15-.05-.63.3-.49C167.74,55.22,167.64,55.42,167.64,55.61Z"/><path class="cls-5" d="M166.53,62.16v-.39c.49-.09.63,0,.68.49Z"/><path class="cls-5" d="M167.49,59.25h-.59c.19-.2,0-.69.39-.59S167.49,59.05,167.49,59.25Z"/><path class="cls-5" d="M191.17,54.37h-.59c.2-.2,0-.68.39-.59S191.17,54.18,191.17,54.37Z"/><path class="cls-5" d="M154,40.52c-.05.24-.34.14-.58.19,0-.24.09-.68.39-.58C153.9,40.23,154.09,40.32,154,40.52Z"/><path class="cls-5" d="M158,49.88c0,.24-.35.15-.59.19s-.24-.24-.19-.39C157.31,49.24,158.29,49.25,158,49.88Z"/><path class="cls-5" d="M143.81,37.85c-.05.14-.19.09-.29.09l-.2-.19.3-.29C143.72,37.55,143.91,37.65,143.81,37.85Z"/><path class="cls-5" d="M186.64,52.45c0,.15-.2.1-.3.1l-.19-.2.29-.29C186.54,52.16,186.74,52.26,186.64,52.45Z"/><path class="cls-5" d="M156.46,24c.09.11.26.23.14.41s-.27.21-.41.14C155.87,24.37,156.14,23.82,156.46,24Z"/><path class="cls-5" d="M159.32,28.94l.09.11-.45.34A.29.29,0,0,1,159.32,28.94Z"/><path class="cls-5" d="M161,29.57c0,.15-.14.28-.25.36l-.47-.16A.58.58,0,0,1,161,29.57Z"/><path class="cls-5" d="M163.83,31.34c.28.48.1.63-.33.85a.46.46,0,0,1-.38-.64C163.07,31,163.62,31.06,163.83,31.34Z"/><path class="cls-5" d="M173.39,58.92c.28.48.1.63-.33.85a.46.46,0,0,1-.37-.64C172.64,58.55,173.18,58.64,173.39,58.92Z"/><path class="cls-5" d="M164.74,36.17c-.33.25-.37.88-.9.86s-.56-.28-.72-.5C162.77,35.15,164.51,35.74,164.74,36.17Z"/><path class="cls-5" d="M169.24,50.23a.74.74,0,0,1-1.13.33c.1-.33-.47-.51-.08-.8l.74-.39Z"/><path class="cls-5" d="M171.79,51.07c-.13.18-.07.49-.39.64l-.74-.3C170,50.33,171.89,50,171.79,51.07Z"/><path class="cls-5" d="M171.48,54c.42.76-.29,2.42-1.61,1.26-.47-.51,0-1.14.22-1.55A1.06,1.06,0,0,1,171.48,54Z"/><path class="cls-5" d="M175,51.42l.08.11a.33.33,0,0,1-.58-.08C174.62,51.27,174.8,51.39,175,51.42Z"/><path class="cls-5" d="M177.35,53.29l-.19.66a.93.93,0,0,1-1.32-1.07l.56-.31A.74.74,0,0,1,177.35,53.29Z"/><path class="cls-5" d="M175.36,55.12c-.07.14,0,.4-.16.47l-.2,0C175.09,55.33,175.09,55,175.36,55.12Z"/><path class="cls-5" d="M180.67,56c.08.11,0,.29-.17.47-.36.1-.65-.29-.61-.58A.76.76,0,0,1,180.67,56Z"/><path class="cls-5" d="M179.13,57.86l0,.19c-.15,0-.62-.13-.52-.46C178.77,57.61,179.07,57.56,179.13,57.86Z"/><path class="cls-5" d="M182.33,58.54c0,.15-.14.27-.25.36-.51.12-.39-.4-.5-.66C181.86,58,182.16,58.32,182.33,58.54Z"/><path class="cls-5" d="M174.09,48.31a.35.35,0,0,1-.14.28l-.41-.55C173.73,48.07,174,48,174.09,48.31Z"/><path class="cls-5" d="M181.1,60.65c-.07.14,0,.4-.17.47,0,0-1,.1-.5-.66C180.63,60.49,180.93,60.43,181.1,60.65Z"/><path class="cls-5" d="M175,48c.18.13,0,.35.22.53-.12.18-.36.09-.61.11C174.39,48.26,174.86,48.08,175,48Z"/><path class="cls-5" d="M178.92,62.81c-.43.24.22.87-.44,1-.45.09-.68-.44-.69-.68C177.87,62.57,178.53,62.76,178.92,62.81Z"/><path class="cls-5" d="M183.58,63.63c.24.09.1.36.12.61s-.35,0-.5,0C182.94,64,183.1,63.22,183.58,63.63Z"/><path class="cls-5" d="M185.82,58.89c.5,0,.28.48.39.74l-.11.09-.5-.66Z"/><path class="cls-5" d="M170.81,36.37c-.4.1-.75.78-1.24.33-.53-.17-.31-.81-.33-1.24a1,1,0,0,1,1.14-.22A1.45,1.45,0,0,1,170.81,36.37Z"/><path class="cls-5" d="M154.27,33.05l-.28.31c-.06-.15-.2-.09-.3-.09-.06-.24.07-.68.37-.6C154.16,32.76,154.36,32.85,154.27,33.05Z"/><path class="cls-5" d="M154.47,35.49c-.25-.24-.76-.7-.73-1.24l.85-.53A1.49,1.49,0,0,1,154.47,35.49Z"/><path class="cls-5" d="M190.07,52.53c-.25-.23-.76-.7-.74-1.24l.86-.52A1.5,1.5,0,0,1,190.07,52.53Z"/><path class="cls-5" d="M158,37.58c-.53.26-.41-.38-.61-.56C157.66,36.71,158.22,37.22,158,37.58Z"/><path class="cls-5" d="M160.65,40.39l-.4-.37c.14-.06.09-.2.08-.3C160.77,39.65,161.28,40.21,160.65,40.39Z"/><path class="cls-5" d="M152.24,35.88c0,.15-.19.1-.28.11s-.17-.34-.23-.58A.46.46,0,0,1,152.24,35.88Z"/><path class="cls-5" d="M156.39,43.41c0,.15-.19.11-.29.11l-.1-.09.28-.31C156.43,43.17,156.39,43.31,156.39,43.41Z"/><path class="cls-5" d="M173.16,62.18c0,.15-.19.1-.29.11l-.1-.1.28-.3C173.2,61.93,173.15,62.08,173.16,62.18Z"/><path class="cls-5" d="M154.59,42.52c-.18.3-.51.56-.86.33.23-.35-.32-.67.05-1.08C154.35,41.55,154.81,42,154.59,42.52Z"/><path class="cls-5" d="M158.12,31.25c.25-.22.25-.72.68-.73s.45.19.6.36C159.75,32,158.33,31.58,158.12,31.25Z"/><path class="cls-5" d="M161.08,50.69a.6.6,0,0,1,.89-.33c-.06.27.4.39.11.64l-.58.35Z"/><path class="cls-5" d="M161.28,17.52c.08-.15,0-.39.27-.53l.61.21C162.73,18,161.25,18.42,161.28,17.52Z"/><path class="cls-5" d="M156.29,21.65c.09-.15,0-.39.28-.53l.61.21C157.74,22.15,156.27,22.55,156.29,21.65Z"/><path class="cls-5" d="M169.11,23.42c-.38-.58.11-2,1.22-1.08.4.38,0,.9-.1,1.24A.84.84,0,0,1,169.11,23.42Z"/><path class="cls-5" d="M175.5,28l-.08-.09a.27.27,0,0,1,.47,0C175.8,28.1,175.65,28,175.5,28Z"/><path class="cls-5" d="M186,53.75l-.07-.08a.26.26,0,0,1,.47,0C186.28,53.85,186.13,53.76,186,53.75Z"/><path class="cls-5" d="M162.6,21.22l.12-.54a.75.75,0,0,1,1.11.79l-.44.28A.6.6,0,0,1,162.6,21.22Z"/><path class="cls-5" d="M159.27,52.53l.12-.54a.75.75,0,0,1,1.11.79l-.44.28A.59.59,0,0,1,159.27,52.53Z"/><path class="cls-5" d="M165.51,20.89c0-.11-.06-.31.1-.38h.16C165.72,20.71,165.73,21,165.51,20.89Z"/><path class="cls-5" d="M172.88,25.49c.05-.11,0-.32.11-.38h.15C173.09,25.31,173.11,25.59,172.88,25.49Z"/><path class="cls-5" d="M147.64,41.15c-.07-.08,0-.23.1-.38a.42.42,0,0,1,.52.43A.6.6,0,0,1,147.64,41.15Z"/><path class="cls-5" d="M148.57,40.2v-.15c.12,0,.5.07.45.34C148.87,40.38,148.63,40.44,148.57,40.2Z"/><path class="cls-5" d="M193.63,47.12V47c.12,0,.51.08.45.35C193.93,47.3,193.69,47.36,193.63,47.12Z"/><path class="cls-5" d="M146.18,39.18c0-.12.09-.23.18-.3.4-.13.32.3.43.5C146.58,39.56,146.32,39.34,146.18,39.18Z"/><path class="cls-5" d="M173.84,32.62c0-.12.09-.23.17-.3.41-.13.33.3.44.5C174.24,33,174,32.78,173.84,32.62Z"/><path class="cls-5" d="M145.16,33.29c0-.12.1-.23.18-.3.4-.13.33.3.43.5C145.56,33.67,145.31,33.46,145.16,33.29Z"/><path class="cls-5" d="M162.32,16a.27.27,0,0,1,.09-.23l.36.42C162.62,16.13,162.38,16.19,162.32,16Z"/><path class="cls-5" d="M147.05,37.43c0-.12-.05-.32.11-.39,0,0,.79-.13.43.5C147.44,37.53,147.2,37.59,147.05,37.43Z"/><path class="cls-5" d="M158.1,25.58c-.14-.09,0-.28-.2-.41.09-.15.28-.1.48-.12C158.6,25.3,158.23,25.47,158.1,25.58Z"/><path class="cls-5" d="M148.68,35.59c.33-.21-.23-.68.29-.84.36-.09.57.32.59.51C149.53,35.73,149,35.61,148.68,35.59Z"/><path class="cls-5" d="M182.12,41.48c-.19,0-.1-.28-.12-.48s.28,0,.4,0C182.62,41.12,182.53,41.78,182.12,41.48Z"/><path class="cls-5" d="M177.93,45.24c-.4,0-.25-.37-.35-.57l.08-.08.43.51Z"/><path class="cls-5" d="M156.22,28.48c.4-.13.7-.82,1.22-.41.53.14.36.79.41,1.22a1,1,0,0,1-1.13.29A1.48,1.48,0,0,1,156.22,28.48Z"/><path class="cls-5" d="M166.64,33.2l.21-.26c.05.11.16.06.24.05.06.19,0,.55-.26.5S166.58,33.36,166.64,33.2Z"/><path class="cls-5" d="M166.08,30.27c.22.18.65.52.66.95l-.66.47A1.22,1.22,0,0,1,166.08,30.27Z"/><path class="cls-5" d="M163.44,29.78c.4-.24.34.28.51.41C163.75,30.45,163.27,30.07,163.44,29.78Z"/><path class="cls-5" d="M161.16,27.67l.35.28c-.11.05-.06.16,0,.24C161.11,28.27,160.67,27.84,161.16,27.67Z"/><path class="cls-5" d="M168.11,30.84c0-.12.15-.1.22-.11s.15.26.21.45A.36.36,0,0,1,168.11,30.84Z"/><path class="cls-5" d="M164.41,25c0-.12.15-.1.23-.11l.08.07-.21.26C164.39,25.24,164.42,25.11,164.41,25Z"/><path class="cls-5" d="M165.89,25.66c.13-.25.38-.47.68-.31-.17.29.29.52,0,.86C166.13,26.42,165.75,26.11,165.89,25.66Z"/><rect class="cls-6" x="0.4" y="81.22" width="32.92" height="50.35"/><path class="cls-5" d="M24.41,104.05c-.13.55.38,1.24-.21,1.68-.38.39-.81.19-1.17.1C21.48,104.69,23.8,103.81,24.41,104.05Z"/><path class="cls-5" d="M21.55,114.54a1,1,0,0,1-.89,1.32c-.19-.42-.93-.12-.78-.76l.44-1Z"/><path class="cls-5" d="M29.37,107.56c0,.29.35.56.15,1l-1,.33C26.89,108.31,28.52,106.3,29.37,107.56Z"/><path class="cls-5" d="M27.84,116.17c1.1.42,1.78,2.77-.59,2.68-.93-.12-1-1.18-1.11-1.79A1.42,1.42,0,0,1,27.84,116.17Z"/><path class="cls-5" d="M7.45,107.23l.37.86a1.26,1.26,0,0,1-2.3,0l.32-.82A1,1,0,0,1,7.45,107.23Z"/><path class="cls-5" d="M30.91,99.05c-.34.45-.13,1.46-1,1.41-.69.28-1-.57-1.41-1a1.34,1.34,0,0,1,1-1.2A2,2,0,0,1,30.91,99.05Z"/><path class="cls-5" d="M10.82,109.81l0,.56c-.18-.11-.28.08-.38.16-.27-.2-.52-.77-.14-.94C10.46,109.6,10.74,109.52,10.82,109.81Z"/><path class="cls-5" d="M13.13,112.16a2.42,2.42,0,0,1-1.83-.65l.43-1.28A2,2,0,0,1,13.13,112.16Z"/><path class="cls-5" d="M26.26,93.09a2.45,2.45,0,0,1-1.84-.65l.44-1.29A2,2,0,0,1,26.26,93.09Z"/><path class="cls-5" d="M18.58,111.32c-.31.73-.74,0-1.11,0C17.49,110.71,18.52,110.76,18.58,111.32Z"/><path class="cls-5" d="M23.78,112l-.75,0c.1-.18-.08-.28-.17-.38C23.26,111.09,24.28,111.24,23.78,112Z"/><path class="cls-5" d="M11.14,114.49c.09.19-.1.27-.2.36-.28.08-.46-.21-.73-.41A.62.62,0,0,1,11.14,114.49Z"/><path class="cls-5" d="M21.94,118.77c.08.19-.11.28-.21.36h-.18l0-.55C21.76,118.48,21.85,118.67,21.94,118.77Z"/><path class="cls-5" d="M19.29,119.38c.07.47-.05,1-.61,1.09-.07-.56-.91-.42-.88-1.16C18.21,118.58,19.05,118.62,19.29,119.38Z"/><path class="cls-5" d="M13.28,104.63c.08-.44-.36-1,.08-1.35s.64-.19.93-.14C15.59,104,13.78,104.79,13.28,104.63Z"/><path class="cls-5" d="M28.34,89.73a.8.8,0,0,1,.64-1.1c.17.33.75.05.66.56l-.3.86Z"/><path class="cls-5" d="M4.78,87.62c0-.24-.31-.43-.17-.79l.81-.31C6.72,86.89,5.52,88.57,4.78,87.62Z"/><path class="cls-5" d="M3.13,96.2c0-.24-.3-.43-.16-.79l.81-.31C5.07,95.47,3.88,97.16,3.13,96.2Z"/><path class="cls-5" d="M18,87c-.89-.28-1.56-2.12.34-2.18.75.06.83.9,1,1.38A1.14,1.14,0,0,1,18,87Z"/><path class="cls-5" d="M15.64,125.93c-.9-.28-1.57-2.12.33-2.17.75,0,.83.9,1,1.38A1.13,1.13,0,0,1,15.64,125.93Z"/><path class="cls-5" d="M28.59,86.31l-.15,0a.35.35,0,0,1,.52-.36C29,86.15,28.76,86.19,28.59,86.31Z"/><path class="cls-5" d="M9.33,90.33,9,89.67a1,1,0,0,1,1.84-.14l-.21.67A.81.81,0,0,1,9.33,90.33Z"/><path class="cls-5" d="M23.12,126.46l-.34-.66a1,1,0,0,1,1.84-.14l-.22.67A.8.8,0,0,1,23.12,126.46Z"/><path class="cls-5" d="M12.08,87.49c-.05-.16-.33-.28-.22-.49l.17-.12C12.14,87.12,12.4,87.39,12.08,87.49Z"/><path class="cls-5" d="M23.71,85.94c-.05-.16-.33-.28-.22-.49l.17-.12C23.77,85.58,24,85.85,23.71,85.94Z"/><path class="cls-5" d="M10.88,123.94c-.15,0-.19-.26-.22-.5a.57.57,0,0,1,.91,0A.85.85,0,0,1,10.88,123.94Z"/><path class="cls-5" d="M11,122.15l-.12-.17c.1-.14.59-.36.76,0C11.5,122.08,11.3,122.34,11,122.15Z"/><path class="cls-5" d="M7.66,123.14c-.13-.1-.1-.32-.07-.47.31-.48.6,0,.88.15C8.41,123.19,8,123.19,7.66,123.14Z"/><path class="cls-5" d="M12.93,117.05c-.13-.1-.1-.32-.07-.47.31-.47.6,0,.88.15C13.68,117.1,13.23,117.1,12.93,117.05Z"/><path class="cls-5" d="M4.51,85.08a.4.4,0,0,1-.1-.32l.74.13C5,85,4.78,85.28,4.51,85.08Z"/><path class="cls-5" d="M7.07,120.56c-.05-.16-.33-.28-.22-.49,0,0,.71-.81.88.15C7.56,120.34,7.36,120.61,7.07,120.56Z"/><path class="cls-5" d="M8.4,98.73c-.24,0-.26-.27-.57-.25,0-.23.21-.34.4-.54C8.67,98,8.43,98.51,8.4,98.73Z"/><path class="cls-5" d="M7.18,117.25c.16-.5-.82-.52-.41-1.13.3-.4.86-.15,1.05,0C8.19,116.67,7.53,117,7.18,117.25Z"/><path class="cls-5" d="M8.92,103.37c.31-.47,0-1.46.92-1.47.68-.32,1.05.51,1.48.92a1.35,1.35,0,0,1-.93,1.26A2,2,0,0,1,8.92,103.37Z"/><path class="cls-5" d="M23.83,99.33v-.45c.15.08.22-.07.29-.15.23.15.46.59.16.74S23.91,99.55,23.83,99.33Z"/><path class="cls-5" d="M20.74,96.76a2,2,0,0,1,1.5.43l-.29,1A1.62,1.62,0,0,1,20.74,96.76Z"/><path class="cls-5" d="M17.56,98.52c.21-.6.6,0,.89,0C18.46,99,17.64,99,17.56,98.52Z"/><path class="cls-5" d="M13.38,98.28H14c-.08.15.07.22.15.3C13.84,99,13,98.88,13.38,98.28Z"/><path class="cls-5" d="M23.33,95.61c-.07-.15.08-.23.15-.3s.37.14.6.29A.5.5,0,0,1,23.33,95.61Z"/><path class="cls-5" d="M14.5,92.75c-.08-.15.07-.23.14-.3h.15v.44C14.65,93,14.57,92.82,14.5,92.75Z"/><path class="cls-5" d="M16.58,92.12c-.08-.37,0-.82.43-.9.08.45.75.29.76.89C17.48,92.71,16.81,92.72,16.58,92.12Z"/><rect class="cls-6" x="89.94" y="170.75" width="32.92" height="50.35" transform="translate(-89.52 302.32) rotate(-90)"/><path class="cls-5" d="M116,204.86c.29-.18,0,.9,0,.9s-.17.59-.44.36-1.09.3-1.09.3l-.92-.87s-.31-1.19.19-1.22.73-1.44.73-1.44l-.76-.55s-.63,1.08-.69.67-1.21-.67-1.21-.67c0-.37.08-.7.11-1l-1.62.45a2,2,0,0,1,1.83-1.09,1.49,1.49,0,0,0,1.61-1.79,5.8,5.8,0,0,0,.19-.8,9.47,9.47,0,0,0-.1-1.07c.62.28,1.24.34,1.11,1.18,0,.08.65.27,1,.41,0-.06,1-.26,1.09-.32.18.51-.34,1.17-.13,1.67s.91,1.7,1.5,1.56c1.25-.3,1.76-1.59,2.3-.47.12.25-.65,1.61.91,1.73,2.26-.17,3.29-.22,5.27-1.52l.48,1.46c-.84,0-1.15,0-2.16-.06a1.68,1.68,0,0,0-1.21.24,6.7,6.7,0,0,0,.58.79c.3.3.33.28.73.65a9.73,9.73,0,0,1-1.45.1c-.57,0-1.13-.24-1.71-.32a8,8,0,0,0-1.07,0c.12.44.18.68.28,1-.7-.29-1.16.72-1.77.56-.35-.1-.43-2.25-.74-2.09-.7-.62-.89-1-1.42-.33,0,0,.31,1.36.29,1.29a1.72,1.72,0,0,0-1.78-1S115.69,205,116,204.86Zm-5-2.19.59.72-.59.66a.67.67,0,0,1-.73.58c-.62-.08-.64.33-.64.33l.64.59s-.37,1.33.37,1.21,1,.1,1,.1a4.24,4.24,0,0,1-.39-1.31c-.07-.7.73-.92.73-.92s.59.51.38.57-.29.79-.29.79a2.13,2.13,0,0,1,.38.56c.13.28.18.85,0,1-.47.32-.67.6-.32,1.11,0,.07,0,.19.06.58l1.1-1c.15-.14.28-.36.46-.44,1-.4,2-.79,3-1.15a3.36,3.36,0,0,1,.9-.06c0,.25,0,.49,0,.78,1,.28,2.25-.54,3.19.55a1.33,1.33,0,0,0-.44.14,9.41,9.41,0,0,0-.27,1.16c.86,0,1.48,1.08,2,1.29a1.32,1.32,0,0,1-1.94-.46c-.5.21-.25,2-.22,2.06-.34-.09-1-1.16-1.34-1.27-.07.23-.75.81-.77,1s-.26,0,.27.52l-3.21.13-.38-1.33a6.3,6.3,0,0,0,.71.53,2.44,2.44,0,0,0,1.48-.25c.37-.22.59-2.19.59-2.19l-.83.79a2.1,2.1,0,0,0-.48-1.39,2.18,2.18,0,0,0-1.28-.61l-.33,1.32-.53,1s-1.17.35-1,.66a4,4,0,0,1-.05,1.41l-2.75,0c-.16-.61.57-.8.5-.86-.58-.4-.66-.62-1.29-1-.11.75-.47,1-.92,1.78-1.32-1.16-1.56-1.16-.66-2.31-.53-.39-1.08-.77-1.59-1.18a2,2,0,0,1-.52-.65c-.24-.55-.31-1.15-1.22-.91-.57.15-1.25,0-1.25-.64a8.2,8.2,0,0,1,.72-1.06c.15-.15.55-.3.63-.23a17.41,17.41,0,0,1,1.25,1.31c.32-.35.62-.71,1-1a1.86,1.86,0,0,1,.42-.22,1.76,1.76,0,0,1,.22.54,4.61,4.61,0,0,1-.09.85c-.55.31-.69.6-1.39,1l1.53.18,1.15,1.35a.74.74,0,0,1,0,.18c-.08.25-.38.68-.46.92a4,4,0,0,0,1-.09c.16-.23-.15-.47,0-.73s.31-.68.5-1a3,3,0,0,1,.51-.49c-.41-.45-.79-.82-1.1-1.24a1.59,1.59,0,0,1-.2-.7,4.5,4.5,0,0,0-.26-1.35c-.17-.32-.64-.47-1.11-.79.22-.08.57-.31.74-.22.5.28.76.14,1-.28s.53-.66,1.14-.38Zm4.23-.81c0-.07.72-.24.74-.31-.16-.43-.13-1.35-.3-1.78-.08,0-1,.6-1.11.6,0,.34-.19.72-.08,1S115,201.7,115.23,201.86ZM111,209.27c.1.27.16.73.32.78a5.28,5.28,0,0,0,1.32,0l0-.18Zm7.58.17.25.17a2.66,2.66,0,0,0,.3-.64,2.93,2.93,0,0,0-.08-.81C118.54,208.13,118.48,208.24,118.58,209.44Z"/><path class="cls-5" d="M112.4,197.69a1.45,1.45,0,0,1-1.54.41c-.47-.12-.65.35-.46.87s.73,0,.86.55c-.13,0-.73,1.18-.86,1.21-.13-.57-.84-.77-1-1.4l-1.18.72c0-.52,0-.92.08-1.39-.58.13-1,.1-1.24-.56,0-.12-.32-.16-.43-.29s-.51-.55-.46-.75c.11-.38.15-1,.9-.82.29.06.65-.28,1-.47.24.37.37,1.23,1,.87.82-.46,1.25-.08,1.77.39.06.05.2,0,.29,0,.43-.86-.4-1.09-.75-1.11-.65,0-.93-.44-1.38-.67-.89-.46-.88-1.35-1.57-2.12.46,0,.74-.06,1-.06s.47,0,.71.06c0-.26-.09-.51-.14-.77,0-.1,0-.21-.06-.28a3,3,0,0,0,1.2-.07c.24-.14.29-.64.45-1l.63.85.9-1.41c.35.27,1.15.25.63.76,0,.08-.34.58-.45.73.18-.14.91.27,1.08.13.22.56.42.25.64.81h0c-.13-.41.17-.73.09-1.15s.29-.73.25-1.33c.59.58.54,1.08,1.05,1.39s.71.19,1.29.28c-.91-.81-1.18-1.53-.77-2.27a4.53,4.53,0,0,0,.74.82,2.3,2.3,0,0,0,.87.29c.54.13,1.09.22,1.6.31-.22,1.42-1.86,1.54-2,2.86l.85.14a5.88,5.88,0,0,1,.12.69c0,.26.1.67,0,.76s-.54.06-.82,0-.7-.07-1-.11a2.53,2.53,0,0,0-.15.34l-.06,1.06a3.57,3.57,0,0,1-.74-.77c-.21-.43-.37-.64-.92-.51a1.26,1.26,0,0,1-1-.4c-.55-.64-1.23-.2-1.83-.3a1.6,1.6,0,0,0-.26.9,3.38,3.38,0,0,0,.57,1c.21-.14.42-.28.64-.4a.69.69,0,0,1,.31-.1c.1.17.27.47.22.53-.4.42-.17.88-.16,1.33,0,.05-.11.11-.2.19Zm3.29-2,.17-.11c0-.35,0-.71,0-1.06s-.1-.48-.73-.41C115.34,194.65,115.52,195.18,115.69,195.7Z"/><path class="cls-5" d="M91.07,190.62c1.43.48,1.76.24,1.7-1.32l-.85,0c0-.52,0-1-.06-1.56a1.13,1.13,0,0,0-.37,0,2.59,2.59,0,0,0-.55.28c-.19-.47-.34-.89-.54-1.27-.09-.17-.3-.39-.45-.39a9.47,9.47,0,0,0-1.38.21,5.94,5.94,0,0,1-2.65,2.27c-.21.08-.35.29-.55.4a3.7,3.7,0,0,1-.84.37c-.47.11-1.07-.26-1.37.32.71,1.13,1.76.26,2.77.54l-1.05,1.2,1,1.64c-1.19.08-1.26.68-.94,1.55l2.16-.22c.4,0,.66,0,.74.56s.15,1.08,1,1a8,8,0,0,1-.76-1.52,1.74,1.74,0,0,1,.24-1.09,3.26,3.26,0,0,1,.66-.68l-.15-.27-1.75.67c-.13-.3-.25-.56-.37-.82a9.27,9.27,0,0,1,1-.32,7.94,7.94,0,0,1,.88-.06,1.94,1.94,0,0,1,.44-.67,7.49,7.49,0,0,0-1.67-.53c-.28.05-.22-1.44-.22-1.44a.89.89,0,0,0,1.1-.72,1,1,0,0,1,.6,1l.82-.3.16-1.39a12.88,12.88,0,0,1,1,1c.23.29-.89,1.28-.89,1.28a1.81,1.81,0,0,1,.12,1.19c-.21.44,1,.72,1,.72l.24-.87Z"/><path class="cls-5" d="M126,182.54a10.51,10.51,0,0,1,1.36.32c.14,0,.26.33.28.52,0,.44,0,.88,0,1.38a3.88,3.88,0,0,1,.61,0,1.12,1.12,0,0,1,.34.14l-.52,1.46.8.3c-.52,1.47-.92,1.57-2.07.59a2.52,2.52,0,0,0-2.85.47,6.63,6.63,0,0,0-.83-.27,9.42,9.42,0,0,0-1.06-.08c0,.29,0,.57,0,.9l1.87,0c0,.1,0,.2,0,.3a2.94,2.94,0,0,0-.86.39,1.71,1.71,0,0,0-.63.92,7.66,7.66,0,0,0,.14,1.69c-.81-.2-.66-.81-.56-1.27s-.09-.67-.48-.78l-2.08-.6c0-.93.32-1.46,1.45-1.09-.12-.7-.23-1.27-.34-1.9l1.43-.73c-.84-.63-2.14-.22-2.38-1.53.5-.43.92.14,1.4.21a4,4,0,0,0,.91,0c.22,0,.44-.16.66-.17,0,0,.33.82,1,.79s.59-.77.59-.77,1,1.08.55,1.29a5.74,5.74,0,0,0-1.1.73l.92.49a1.74,1.74,0,0,1,1.12-.63c.63,0,.88-1.11.88-1.11s0-.57-.69-.51-1.68-1.28-1.68-1.28l1.08-1.17,1.33.45Z"/><path class="cls-5" d="M129.78,198c-.16.25-1.46-.88-1.64-.64a13.72,13.72,0,0,1-.6,1.3c-.22.53.6,1.12,1.62,1.56a3.72,3.72,0,0,1-1.26.25c-1-.69-1.7-.56-2.94-.49-.12,0,.07.87,0,.93-1.17.63-1.08-.22-2.29.63-.42-.46-1.59-2.12-.8-2.5-1.27-1.09-1.19.42-2.13.94-.31-.56-1.06.1-1.34-.45a1,1,0,0,0-.53-1.4c-.08-.05.06-1,.17-.91,1.39,1.09,1.27-.07,1.54-.14s.47,1,.75,0c0-.09.26-.84.37-.88.53-.18,1.2,1.43,1.26,2a1.8,1.8,0,0,0,.16.82,1.31,1.31,0,0,0,.72.4,2.92,2.92,0,0,0,.49-.93c-.08-.26-.39-.4-.55-.62s.37-.66.11-.92c.47-.07,1.05.21,1.36.16.25.42-.59,1.4-.24,1.73.14.13.69,0,.93-.2a4.38,4.38,0,0,0,.92-1,1.31,1.31,0,0,0,.22-.69c-.47-.26-.55-.83-.87-1.12-.61-.58-1.34-1.13-.76-1.8.08-.08,1.4-.69,1.48-1.06.32.94.19,1.73.88,1.83-.47.09-.39.57-1.08.7a10,10,0,0,0,1.11.74c.6.32,1.13-.12,1.37-1.1.59.06,1.2.11,1.79.22.21,0,.37.27.56.41-.15.13-.28.33-.45.38C129.33,196.26,129.86,197.73,129.78,198Z"/><path class="cls-5" d="M113.22,189.2l-.85-.82c-.19-.18-.38-.36-.56-.55-.12.2-.34.41-.33.59a1.54,1.54,0,0,0,.34.81c.09.13.36.12.59.19a.71.71,0,0,1-1.23,0c-.35-.47-.63-1-1-1.48a6.42,6.42,0,0,0-.56-.61l-.22.16q.11.33.21.69c-.5.42-.71-.07-.89-.37-.35-.6.2-.75.62-1,0-.36-.1-.7-.14-1l-1.3,0c0,.17-.1.39-.13.51-.69.22-1.32.45-2,.61-.26.06-.73,0-.82-.11s0-.59,0-1c.47.23.78.37,1.09.51l.22-.19-1.12-2.12A19.21,19.21,0,0,0,107,185c.42.16.83.11.84-.53,0-.14.19-.3.31-.42a2.66,2.66,0,0,1,.38-.28l-1.27-.28c1.07-1.08,2.39-1.13,3.16-.24a1.41,1.41,0,0,1,.21.8c0,.45.21.68.68.68a.7.7,0,0,1,.76.6c.11.37.69.58,1,.91a3.69,3.69,0,0,1,.49.87c.06.11,0,.28.1.37C114.15,188.12,113.9,188.63,113.22,189.2Zm-2.16-2.11a2.08,2.08,0,0,0-1.14-2.55c-.18-.1-.57-.13-.65,0a.76.76,0,0,0-.1.7,18.4,18.4,0,0,0,1.47,1.71C110.73,187,110.91,187,111.06,187.09Z"/><path class="cls-5" d="M93.48,196.67c-.56.21-.43,1.16-1.24,1.1-.55,0-1.09-.12-1.5-.17-.44.24-.85.44-1.24.67a.89.89,0,0,0-.29.29c-.22.33-.23.83-.86.81-.14,0-.3.58-.49,1-.41-.56-.76-1-.55-1.73.1-.35-.36-.91-.65-1.31-.18-.25-.51-.38-.69-.7l-1.55,0c0-.07-.07-.14-.1-.2.35-.26.73-.75,1.07-.72a2.73,2.73,0,0,1,1.65.67,1.65,1.65,0,0,0,2.21.41,2.76,2.76,0,0,1,1.23-.43c.8,0,.71-.54.73-1a8.21,8.21,0,0,0-.2-1.06c-.07-.69.11-.87.9-.91l-.41.69c.1.13.16.31.29.38.66.33.76.71.18,1.23-.07.06-.12.28-.08.32a.87.87,0,0,0,.4.18c.39.08.8.14,1.2.21C93.49,196.46,93.49,196.56,93.48,196.67Z"/><path class="cls-5" d="M99.53,200.66c.26-.18.46-.36.69-.49s.38-.06.4,0c.46.91.95.47,1.62-.19.06.65.1,1.06.14,1.48l-.22.08c-.51-.39-1-.5-1.35.14-.11.16-.4.21-.61.31,0-.09-.08-.18-.13-.27l.7-.38c-.58-.22-1.08-.91-1.65,0-.11.19-.56.18-1,.29l1.89,2.57c-1.11,1.1-2.11,1.12-3.12.18a.62.62,0,0,0-.49-.16c-.93.24-.51-.31-.4-.67s.23-.78.38-1.3l-1.57,0,.94-2.11.84,1.12c.42,0,.89-.58,1.53-.23.11.05.5-.42.81-.68Z"/><path class="cls-5" d="M98.63,191.17a1,1,0,0,1-1.43-.79c.46-.89.83-1.62,1.23-2.38a.77.77,0,0,0,1.4,0,1.72,1.72,0,0,1,1-.92c.15-.05.2-.37.35-.67a10.24,10.24,0,0,0-1.29-.14,6.89,6.89,0,0,1-1.4,0c.47-.61.94-1.21,1.51-2l1.1-.49-.15,1.28c1.7.93,1.81,1.09,1.61,2.46l-1.21.34c.12.44.23.91.39,1.35a4.33,4.33,0,0,1,.4,1.26c-.38-.2-.76-.39-1.12-.62-1.16-.74-1.59-.59-2,.83l-.49-.46c-.12-.12-.24-.33-.37-.34a.49.49,0,0,0-.4.26.81.81,0,0,0,.22.54A2.74,2.74,0,0,0,98.63,191.17Z"/><path class="cls-5" d="M91.54,212.36a9.07,9.07,0,0,0-.69-1.76c.46-.88,1.2-.16,1.59-.92a.78.78,0,0,0,1.41,0,1.72,1.72,0,0,1,1-.92c.14-.05.2-.37.35-.67a12.39,12.39,0,0,0-1.3-.14c-.41,0-.63.73-1.21.66-.35-1.25.75-1.83,1.33-2.57l1.1-.5-.15,1.28c1.69.93,1.81,1.09,1.6,2.46l-1.21.35c.13.43.23.9.4,1.35a3.88,3.88,0,0,1,.39,1.26c-.37-.21-.76-.4-1.12-.63-1.16-.74-.62-.68-1,.74H93.2c-.12-.12,0-1.34-.11-1.35a1.9,1.9,0,0,0-.78.61c0,.18-.13.59,0,.74Z"/><path class="cls-5" d="M86.16,186.34c.06-.19.13-.38.21-.62l-.89-.17.59-.71c-.33,0-.59-.15-.75-.07a1.3,1.3,0,0,1-1.65-.41c-.35-.33-.59-.71-1.2-.34-.37.22-.81-.42-.72-1.18l.84.37c.18.1.39.34.51.3,1.26-.4,2.28.78,3.55.5.45-.1,1,.34,1.53.4.28,0,.58-.23,1-.41l-.75-.51v-.23a25.16,25.16,0,0,1,3-.18,21,21,0,0,1,2.86.55c0,.31-.25.54-.76.46-.92-.14-1.83-.31-2.74-.47-.11,0-.23-.07-.32,0-.35.14-.68.32-1,.48.14.3.29.59.41.85l-1.79.05c0,.06,0,.12,0,.19l1.38.28C88.54,186.51,87.55,187.09,86.16,186.34Z"/><path class="cls-5" d="M128.83,208.54l-.51.81c.39.1.21,1.37.55,1.46-1.68,1.14-1.88-.29-1.75-.75a3.67,3.67,0,0,0-2.45.54,1.85,1.85,0,0,0,.28,1.68h-1.43c-.22-.5-.44-2.06.17-2.6,0-.18.52.72,1,0,.67-.48.4-2,1-1.71.39.15.68.8,1.11.78C127.42,208.74,128,208.63,128.83,208.54Z"/><path class="cls-5" d="M85.48,205,84,204.52c.51-.34.86-.61.42-1.3l3.93,2.28-1.14.18c0,.74,1.44.87.63,1.85a3.33,3.33,0,0,0-2.29-.6c-.23,0-.5-.3-.65-.52s0-.41.09-.6A7.64,7.64,0,0,1,85.48,205Z"/><path class="cls-5" d="M93.65,195.61c-.79-1.08-.75-1.3.12-1.93.13-.09.18-.3.24-.46s.2-.56.3-.84l.27-.1a7.7,7.7,0,0,0,.61.95,1.36,1.36,0,0,0,.61.27,9.32,9.32,0,0,1,.91.23c.39.17.38.5,0,.63a6.31,6.31,0,0,1-1.94.46C94.21,194.83,93.84,195,93.65,195.61Z"/><path class="cls-5" d="M128.1,192.85c-.78-1.08-.75-1.3.13-1.93.13-.09.17-.3.24-.46s.2-.56.29-.84l.28-.1a6.68,6.68,0,0,0,.61.95,1.27,1.27,0,0,0,.61.27c.29.09.62.11.91.23s.38.5,0,.62a6.12,6.12,0,0,1-1.94.47C128.66,192.07,128.29,192.19,128.1,192.85Z"/><path class="cls-5" d="M91.49,179.8c.43.75.81,1,1.45.26a1,1,0,0,1,1.46.05,5.11,5.11,0,0,0,1.44.72l-.07.27c-.66,0-1.31,0-2,0-.46,0-.8,0-.84.55,0,.15-.18.41-.28.41s-.34-.16-.5-.26-.21-.21-.33-.26C91,181.11,90.92,180.8,91.49,179.8Z"/><path class="cls-5" d="M111.26,180.72l.84.13.78-1.19.44,1.47.19-.24,2,.69c0,.53,0,1.09.06,1.75l-2.87-1.91-.6.56Z"/><path class="cls-5" d="M91.56,204.49c0-.7-1.34-.56-.79-1.6a1.5,1.5,0,0,1,1.55-.89,9.48,9.48,0,0,1,.9.88c.1.12.11.47,0,.53C92.72,203.79,92.15,204.12,91.56,204.49Z"/><path class="cls-5" d="M100.94,204.05a1.76,1.76,0,0,0,.78,1.79c.15.14.45.1.68.14-.47,2.29-.47,2.29-1.12,2.52-.16-.51-.32-1-.5-1.57l.68-.31c.09-.68-.41-.91-.83-1.23-.17-.13-.41-.46-.36-.57A3.74,3.74,0,0,1,100.94,204.05Z"/><path class="cls-5" d="M106.45,203.89a4.85,4.85,0,0,1-.1.8,3.67,3.67,0,0,1-.29.6l-.58-.31c-.23-.12-.57-.17-.67-.35a3.45,3.45,0,0,0-2.35-1.72c-.08,0-.06-.44-.08-.57a10.62,10.62,0,0,0,1.39.46c.65.11,1.2.23,1.5.94C105.45,204.17,105.78,204.79,106.45,203.89Z"/><path class="cls-5" d="M102.89,183.66l.6.15c.09.69.16,1.29.24,1.89-.43-.49-.77-.85-1.41-.4-.09.07-.4-.17-.76-.35a2.62,2.62,0,0,0,1.28-2.43c0-.13.32-.31.5-.33a2.59,2.59,0,0,1,.75.16c-.15.18-.29.36-.44.53Z"/><path class="cls-5" d="M130.56,182.77c-.87-.08-1.26-.5-1.4-1.54l.76,0c0-.18,0-.33.06-.49s0-.42.08-.44a.75.75,0,0,1,.59,0c.15.09.33.42.28.5-.52.77.13.63.53.67C131.16,181.89,130.89,182.3,130.56,182.77Z"/><path class="cls-5" d="M130.77,202.52c-.87-.09-1.26-.5-1.4-1.54l.76,0c0-.18,0-.34.06-.49s0-.42.08-.45a.8.8,0,0,1,.59,0c.14.09.33.42.27.5-.51.76.14.62.53.67Z"/><path class="cls-5" d="M101.76,212.4c.34-.74-.67-1.15-.91-1.39s1.09-.89.46-1.57c1.41-.07.8,1.22,1.18,1.78-.14-.29,1.17-.81,1-1.1.07-.06.32-.62.39-.68.38.38.67,1.1,1,1.48-.06.07-.42.67-.48.74l-.55-.07a5.51,5.51,0,0,1,0,.81Z"/><path class="cls-5" d="M88.25,209.66c.62.08,1.68-.17,1.48.77,0,.14.58.65.79.83-.83.18-.42.92-1.27,1.1-.07,0-1.75-.09-1.76-.13-.34-.92-1.42-.6-2-1.15,0-.07.76-.7.78-.77.32.08.41.37.68.54.89.57.63-.25,1.44.45,0-.07.55-.2.59-.27C88.78,210.77,88.56,210,88.25,209.66Z"/><path class="cls-5" d="M102.15,180.22c-.36.07.19,1.06-.05,1.27-.77.7-1-.32-1.56-.88-.09-.13-1,.69-1.1.62-.67-.38-.08-.72-.12-1.4,0-.15.14-.3.22-.45A6.86,6.86,0,0,0,102.15,180.22Z"/><path class="cls-5" d="M93.3,198.61c.42,1.16.11,2,1.52,2.2l-.93.93c-.61-.7-1-.75-1.54-1.56C92.15,199.88,92.69,198.79,93.3,198.61Z"/><path class="cls-5" d="M94.15,186.68c.41,1,.78,1.85,1.17,2.79l-2.81-1.81Z"/><path class="cls-5" d="M123.71,207.67c-.3.2-.69.8-1,1,0-.06-.2-1.11-.25-1.17l.35-.32-.9-.29.78-1.12c.49,1.57,1.58-.26,2.25.41-.17,1-.86.79-1.53.7C123.45,206.94,123.69,207.6,123.71,207.67Z"/><path class="cls-5" d="M102.52,197.05c-.9.4-2.31-.16-2.5,1.36-.16-.57-.29-1.08-.43-1.59l1-.53c.28.26.56.65,1.11.28.15-.1.54.15.82.24A1.93,1.93,0,0,0,102.52,197.05Z"/><path class="cls-5" d="M126.22,180.58c-.9.4-2.31-.16-2.5,1.36-.15-.58-.29-1.08-.43-1.6l1-.52c.28.25.57.65,1.12.28.15-.1.53.15.81.23C126.23,180.42,126.22,180.5,126.22,180.58Z"/><path class="cls-5" d="M95.68,183.61c.79,0,1.62.13,1.73-.9l1.29.37c0,.32,0,.76,0,1.21a10.68,10.68,0,0,0-1.2-.42.87.87,0,0,0-.68.07C96.35,184.36,96.07,184.1,95.68,183.61Z"/><path class="cls-5" d="M121.35,181c-.24.17-.56.51-.81.68-.54-.8-.14-1.26-1-1.14-.58.07-.7,1.17-1.37.13C118.72,180.23,120.53,179.4,121.35,181Z"/><path class="cls-5" d="M83.16,208.18l.57,0c.1.6.19,1.12.3,1.71a3.5,3.5,0,0,1-.85.13,2.45,2.45,0,0,1-.69-.3c.1-.2.22-.38.31-.58S83,208.61,83.16,208.18Z"/><path class="cls-5" d="M98.38,212.06c-.12-.25-.39-.52-.34-.74.15-.79-.27-1-.86-1,0-.37,0-.71,0-1l.15-.13c.23.26,1.09-.14,1.32.13,0,0-.32,1.07-.35,1.11.18,0,.87-.29,1-.26.45.08.49.36.27.8S98.53,211.6,98.38,212.06Z"/><path class="cls-5" d="M116,183.94l.62-.26a6.39,6.39,0,0,1,1.31.88c.18.19.08.65,0,1C117.36,184.82,116,185.05,116,183.94Z"/><path class="cls-5" d="M87.15,209.66c-1.12-.09-1.49.23-2.27-.8C85.7,208.53,87,208.34,87.15,209.66Z"/><path class="cls-5" d="M105.3,195l-1.72-.52-.1-.18c.58-.22,1.15-.46,1.74-.64.1,0,.42.26.41.37A6.09,6.09,0,0,1,105.3,195Z"/><path class="cls-5" d="M84.37,186.37c-.74.24-1.74-.11-2,1.17a6.38,6.38,0,0,1-.41-1,.67.67,0,0,1,.85-.79Z"/><path class="cls-5" d="M105,191.41l-.81-.28-.44.69,0,0c-.57,0-.81-.3-.89-.94a4.84,4.84,0,0,1,1.48-.31c.23,0,.4.57.61.87Z"/><path class="cls-5" d="M114.13,186.58l-.91-1.92a1.35,1.35,0,0,1,1.54.69C114.88,185.65,114.33,186.22,114.13,186.58Z"/><path class="cls-5" d="M127.9,207.27a2.46,2.46,0,0,1-2-2.31C127.25,205.33,127.24,206.52,127.9,207.27Z"/><path class="cls-5" d="M82,204.11l1.14-.25a3.25,3.25,0,0,1-.28.83,2.9,2.9,0,0,1-.61.6,2.42,2.42,0,0,1-.34-.6A1.72,1.72,0,0,1,82,204.11Z"/><path class="cls-5" d="M88.33,201.76l1.13-.25a3.66,3.66,0,0,1-.27.83,3.85,3.85,0,0,1-.61.6,2.06,2.06,0,0,1-.34-.61A1.45,1.45,0,0,1,88.33,201.76Z"/><path class="cls-5" d="M84,199l1.14-.24a3.69,3.69,0,0,1-.28.83,3.16,3.16,0,0,1-.61.6,2.31,2.31,0,0,1-.34-.61A1.54,1.54,0,0,1,84,199Z"/><path class="cls-5" d="M130,207.1c1.18,0,1.38,0,1.5.67C130.72,208.77,130,208,130,207.1Z"/><path class="cls-5" d="M84,211.84l-2.1-.24c.23-.25.49-.59.54-.57C82.89,211.31,83.7,210.84,84,211.84Z"/><path class="cls-5" d="M95.88,187.7c.13-.48.24-.9.34-1.31l1.37,1Z"/><path class="cls-5" d="M81.66,192.21c-.07-.56-.11-.84-.16-1.27.34,0,.67,0,1,0a.77.77,0,0,1,0,.47A8.82,8.82,0,0,1,81.66,192.21Z"/><path class="cls-5" d="M82.58,201.21c-.24.69-.38,1.12-.54,1.58-.68-.28-.17-.95-.38-1.39Z"/><path class="cls-5" d="M108.32,190.37l-.78,1.07-.83-.87Z"/><path class="cls-5" d="M121.93,195.25c-.42-.09-1.64,0-1.64-.89.52-.43,1.73-.57,2.13-.89C122.41,193.91,121.93,194.73,121.93,195.25Z"/><path class="cls-5" d="M95.36,190.91c.33-.55.59-1.24,1.43-.7C96.56,191,95.91,190.86,95.36,190.91Z"/><path class="cls-5" d="M105.2,181.82c-.23-.39-.47-.78-.71-1.17l.8-.43c0,.59,0,1,0,1.47Z"/><path class="cls-5" d="M105.65,198.34c.25,0,.63-.1.72,0a3.46,3.46,0,0,1,.39,1l-.3.19-.87-.91Z"/><path class="cls-5" d="M129.5,205.14l-.57.62-.79-.88C128.72,204.34,129.07,204.76,129.5,205.14Z"/><path class="cls-5" d="M130.86,188.22l-.57.62-.79-.88C130.08,187.42,130.43,187.84,130.86,188.22Z"/><path class="cls-5" d="M81.33,208.4c0-.6,0-1.06,0-1.56C82.24,207.35,82.28,207.76,81.33,208.4Z"/><path class="cls-5" d="M118.54,187.12c-.55.21-1.23.66-1.78.87-.6,0-.34-.68-.36-.74C117.51,186.46,117.92,186.77,118.54,187.12Z"/><path class="cls-5" d="M126.39,190.68c-.55.21-1.23.66-1.78.87-.61,0-.34-.68-.37-.74C125.36,190,125.77,190.33,126.39,190.68Z"/><path class="cls-5" d="M97.51,194.28c.53-.86.53-.86,1.81-.27Z"/><path class="cls-5" d="M98.27,206.9l1.13-.48c0,.47.12,1,0,1.1C98.66,208,98.89,207,98.27,206.9Z"/><path class="cls-5" d="M83.18,179.75l.62-.13.79,1.65-.09.09C84.09,180.87,83.68,180.37,83.18,179.75Z"/><path class="cls-5" d="M86,181.63c.07-.59.12-1,.18-1.51C87.07,180.83,87.07,180.88,86,181.63Z"/><path class="cls-5" d="M96.21,206.42c.29-.48.58-.51.9-1C97.46,206,97.51,207,96.21,206.42Z"/><path class="cls-5" d="M90.34,205.07c.47.13.16.76.63.91.1,0,.16.19.24.29-.12,0-.28.18-.37.15-.47-.17-.92-.39-1.38-.58C89.49,205.75,90.31,205.15,90.34,205.07Z"/><path class="cls-5" d="M104.93,191.42l1.44,1c-.06.09-.13.17-.19.25-.89.12-.9-.76-1.23-1.27Z"/><path class="cls-5" d="M111.15,182.39c-.67.16-1.13-.37-1-1.41Z"/><path class="cls-5" d="M82.93,193.07c.32.72-.22,1-.59,1.25a.32.32,0,0,1-.3,0,.38.38,0,0,1,0-.33C82.34,193.66,82.62,193.39,82.93,193.07Z"/><path class="cls-5" d="M84.73,202.7c0-.35,0-.62,0-.89l.21-.13c.25.31.5.62.89,1.08Z"/><path class="cls-5" d="M107.32,201.06l1,.64-.11.27-.94,0C107.28,201.77,107.29,201.54,107.32,201.06Z"/><path class="cls-5" d="M103.7,191.82a4.05,4.05,0,0,1,.68.46,7.43,7.43,0,0,1,.56.77c-.88-.11-1.34-.64-1.22-1.25Z"/><path class="cls-5" d="M107.39,188.25c-.49-.31-1.29.08-1.59-.87l1.71.6Z"/><path class="cls-5" d="M95.64,197.61c.4-.73.65-.73,1.51,0Z"/><rect class="cls-6" x="179.48" y="81.22" width="32.92" height="50.35"/><path class="cls-5" d="M185.9,106.87c-.24-1.41-.08-3-.43-5.2.51-.86-.31-4,.36-5.07-.71-1.48-.05-3.82,0-5.35C186.34,95.43,186,102.17,185.9,106.87Z"/><path class="cls-5" d="M180.81,131.44c-.47-3.6-.17-8-.52-10.19.52-.86-.41-7.77.25-8.8-.71-1.48.33-6.71-.1-8.28C181,108.35,180.93,126.74,180.81,131.44Z"/><path class="cls-5" d="M205.25,131.44c-.4-3.61,0-8-.29-10.19.53-.85-.25-7.78.44-8.81-.68-1.49.48-6.69.08-8.27C205.9,108.36,205.48,126.74,205.25,131.44Z"/><path class="cls-5" d="M189.79,84.92c.11,7-.2,19.74-.39,23.55-.39-3.62,0-8-.29-10.2.53-.85-.24-7.78.44-8.8-.36-.81-.19-2.71,0-4.53a34.24,34.24,0,0,0-.14-3.83h.43A30.69,30.69,0,0,1,189.79,84.92Z"/><path class="cls-5" d="M183.55,115c-.09-3,.22-3.24,0-5.21a17.14,17.14,0,0,0,.11-3.07l-.13-.74.14-1c.66.6,0,3.94.49,4.34-.79,4.65.21,7.72-.54,12.39C183.67,119.23,183.09,117.75,183.55,115Z"/><path class="cls-5" d="M185.57,131.46c.15-3.31-.36-6.42.27-10.12-.46-.4.17-3.74-.48-4.34l-.15,1,.13.74a17.28,17.28,0,0,1-.11,3.08c.26,2,0,2.22,0,5.2-.27,1.64.2,3-.07,4.42Z"/><path class="cls-5" d="M182.86,124.93c-1-3.14,0-7.24-.59-10.53.95-1.58-.57-3.17.37-4.75a6.65,6.65,0,0,1-.74-3.18c0-1.24,0-2.36,0-3.62.18,1.17.32,2.43.44,3.75C182.87,112.33,182.83,119.2,182.86,124.93Z"/><path class="cls-5" d="M192.5,103.49c-1-3.15.28-6.07-.58-10.54.53-1.79,0-3.43.24-5,0-1.56-.33-2.62-.29-3.65a10.15,10.15,0,0,1,.35-3.07,27.77,27.77,0,0,1,.23,4.16C192.43,91.4,192.47,97.75,192.5,103.49Z"/><path class="cls-5" d="M203.4,84.8c0,1.13.07,2.11.17,3.32.06.74,0,6.3-.2,7.06-.12-.67-.17-6-.22-6.85C203.08,87,203.35,86.19,203.4,84.8Z"/><path class="cls-5" d="M193.29,89.64c0,1.13.07,2.11.17,3.32.06.73-.05,6.3-.2,7.06-.12-.67-.17-6-.22-6.85A32.75,32.75,0,0,1,193.29,89.64Z"/><path class="cls-5" d="M183.62,122.93a5.14,5.14,0,0,1,.31,3.13c-.12.6.18,1.15.19,2.58-.53-.38-.48-3.58-.48-4.36C183.63,123.82,183.66,123.34,183.62,122.93Z"/><path class="cls-5" d="M186.65,81.19c.35,1.79.3,10.39.17,12.4C186.13,92,186.7,83,186.65,81.19Z"/><path class="cls-5" d="M187.15,108.05c.36,1.79.31,10.39.18,12.4C186.63,118.85,187.2,109.84,187.15,108.05Z"/><path class="cls-5" d="M207.27,120.68a9.29,9.29,0,0,1,.17,1.89c0,.56.11.48.1,1,0,.31-.1,1.58-.11,1.89,0,.47.09,1,.11,1.5a24,24,0,0,0,0,2.68,34.69,34.69,0,0,1-.43-4.69C207.12,123.56,207.31,122.08,207.27,120.68Z"/><path class="cls-5" d="M185.37,111.05a5.42,5.42,0,0,1,.19,2c0,.32-.12,1.33-.12,1.81a4.08,4.08,0,0,1-.2-1.61C185.26,112.61,185.31,111.66,185.37,111.05Z"/><path class="cls-5" d="M204.17,109c-.12-3.29-.28-6.2-.5-9.6a24.76,24.76,0,0,0,0-3l-.28.08a62.21,62.21,0,0,0,.39,7.21,12.39,12.39,0,0,1-.19,2.16l.35,2.33-.2.48.22,2.46c0,.06.28.83.27.89A12,12,0,0,0,204.17,109Z"/><path class="cls-5" d="M193.06,129.28c-.39-3.62,0-8-.28-10.2.53-.85-.25-7.78.44-8.8-.68-1.49.48-6.69.08-8.28C193.72,106.2,193.3,124.58,193.06,129.28Z"/><path class="cls-5" d="M192.05,109.51c0,1.13.07,2.11.18,3.32.06.74-.06,6.3-.2,7.06-.12-.67-.18-6-.22-6.85C191.74,111.68,192,110.9,192.05,109.51Z"/><path class="cls-5" d="M188.05,121.24c0,1.13.07,2.11.17,3.32.06.73-.05,6.3-.2,7.06-.12-.67-.17-6-.22-6.85C187.73,123.41,188,122.63,188.05,121.24Z"/><path class="cls-5" d="M190.61,103a8.71,8.71,0,0,1,.18,1.89c0,.56.11.48.09,1,0,.31-.09,1.58-.1,1.9s.09,1,.11,1.5a23.77,23.77,0,0,0,0,2.67,36.57,36.57,0,0,1-.44-4.69C190.47,105.87,190.65,104.4,190.61,103Z"/><path class="cls-5" d="M189.65,123.43c0-3.29-.05-6.2-.14-9.61,0-.42.06-3.85,0-4.56l-.16,1.65a60,60,0,0,0,.12,7.22,12.71,12.71,0,0,1-.27,2.16l.26,2.34-.22.47.14,2.47c0,.06.25.83.23.89A12.09,12.09,0,0,0,189.65,123.43Z"/><path class="cls-5" d="M183.52,102.44a26.54,26.54,0,0,0,.12-4.87c-.2-2.22-.13-7.49-.35-8.92s-.79-4.75-.79-4.75-.34.41-.56,2.63a57.55,57.55,0,0,0,0,7.75c.12,1.75.23,6,.23,6s.14-.94.19-1.61-.06-2.76,0-3.54-.26-5-.16-6,.24-3.06.24-3.06a20.92,20.92,0,0,1,.76,3.46c.13,1.47.2,5.3.14,6.14s.16,7.25.31,8.45S183.52,102.44,183.52,102.44Z"/><path class="cls-5" d="M210.07,94.62c0,3,.29,3.23.07,5.2a17.1,17.1,0,0,1,.17,3.08l-.11.74.17,1c.64-.61-.07-3.94.39-4.34-.89-4.64.05-7.73-.79-12.38C210.11,90.35,209.56,91.84,210.07,94.62Z"/><path class="cls-5" d="M208.82,83c-1,3.17.2,7.24-.37,10.55,1,1.56-.5,3.17.47,4.74a6.8,6.8,0,0,0-.68,3.2c.07,1.23.09,2.35.11,3.61.16-1.17.27-2.44.36-3.76C209.09,95.62,208.91,88.75,208.82,83Z"/><path class="cls-5" d="M210,87.11a5.15,5.15,0,0,0,.25-3.13c-.14-.59.15-1.15.13-2.58-.52.39-.41,3.59-.39,4.36C210,86.23,210,86.7,210,87.11Z"/><path class="cls-5" d="M210.31,111.63a27,27,0,0,1,.22,4.87c-.16,2.22,0,7.49-.17,8.92s-.69,4.77-.69,4.77a6.19,6.19,0,0,1-.62-2.62,59.21,59.21,0,0,1-.2-7.75c.08-1.75.11-6,.11-6s.16.94.22,1.61,0,2.75,0,3.54-.15,5,0,6,.3,3,.3,3a20.87,20.87,0,0,0,.69-3.47c.1-1.48.09-5.3,0-6.14s0-7.26.13-8.46S210.31,111.63,210.31,111.63Z"/><path class="cls-8" d="M202.85,128.83c.26-2.17,0-4.59.31-8-.72-1.31.2-6.17-.73-7.75.86-2.27-.62-4.41-.13-6.82C201.84,112.7,202.45,121.64,202.85,128.83Z"/><path class="cls-8" d="M197.75,121.83c1.08-4.29-.38-9.88.21-14.38-1.19-2.15.74-4-.44-6.19a22.19,22.19,0,0,0,.52-4.63c-.11-1.68-.16-3.21-.2-4.93-.16,1.59-.27,3.32-.35,5.12C197.16,104.63,197.52,114,197.75,121.83Z"/><path class="cls-8" d="M196.55,131.42a38.39,38.39,0,0,1,0-6.44c-1.19-2.15.74-4-.44-6.19a22.12,22.12,0,0,0,.52-4.63c-.11-1.68-.16-3.21-.2-4.93-.16,1.59-.27,3.32-.35,5.12-.22,5.13-.14,11.52,0,17.11Z"/><path class="cls-8" d="M206.6,81.13c-.13,2,.14,10.23.38,12.05-1.19,2.15.75,4-.44,6.19a21.71,21.71,0,0,1,.53,4.63c-.12,1.68-.16,3.21-.21,4.93-.16-1.59-.27-3.31-.35-5.12-.21-5.12-.5-17.13-.35-22.72Z"/><path class="cls-8" d="M199.22,109.83c-.33,2.45.34,6.85,0,9.3C200,117,199.25,112.28,199.22,109.83Z"/><path class="cls-8" d="M199.43,81.11c.09,1.24,0,3.94,0,5.4a28.64,28.64,0,0,1-.12,4.65,47.38,47.38,0,0,1-.11-5.74c0-1.49-.14-3.07-.16-4.31Z"/><path class="cls-8" d="M201.93,92.34c0-3.25-.27-3.54-.06-5.68a21.57,21.57,0,0,1-.16-3.36l.11-.8-.16-1.1c-.6.64.06,4.3-.38,4.73.84,5.08-.06,8.43.74,13.53C201.89,97,202.41,95.39,201.93,92.34Z"/><path class="cls-8" d="M199.75,131.44c.05-2.25,0-5.52,0-6.51-.07-1.57-.27-3.18-.26-4.71a11.94,11.94,0,0,0-.13,2.06c0,.61-.09.52-.07,1.13,0,.34.12,1.73.14,2.07,0,.51-.07,1.13-.08,1.64s0,2.7.12,4.32Z"/><path class="cls-8" d="M199.52,93.07a11.94,11.94,0,0,0-.13,2.06c0,.62-.09.52-.07,1.13,0,.34.12,1.73.14,2.08s-.07,1.13-.08,1.63c0,.65.39,5.5.29,6.16.17-1.86.16-6.93.1-8.35S199.51,94.61,199.52,93.07Z"/><path class="cls-8" d="M197.84,81.34a11.82,11.82,0,0,0-.13,2.06c0,.61-.09.51-.07,1.12,0,.34.12,1.74.14,2.08,0,.5-.07,1.13-.08,1.63a28.59,28.59,0,0,1,.06,2.93A43.65,43.65,0,0,0,198.1,86C198,84.48,197.83,82.87,197.84,81.34Z"/><path class="cls-8" d="M197.78,124a6.42,6.42,0,0,0-.13,2.13c0,.34.13,1.46.14,2a5.25,5.25,0,0,0,.16-1.75C197.92,125.69,197.85,124.65,197.78,124Z"/><path class="cls-8" d="M195.15,103.44s-.12-3.08,0-5.49,0-8.17.18-9.73.65-5.17.65-5.17a7.7,7.7,0,0,1,.59,2.88,74.71,74.71,0,0,1,.18,8.46c-.08,1.91-.15,7.71-.15,7.71s-.12-2.22-.17-2.95,0-3,0-3.87.16-5.48,0-6.57-.29-3.34-.29-3.34a26.08,26.08,0,0,0-.65,3.76c-.1,1.6-.09,5.78,0,6.69s.08,12.21-.05,13.52S195.15,103.44,195.15,103.44Z"/><rect class="cls-6" x="144.54" y="153.21" width="50.35" height="32.92" transform="translate(-70.26 169.71) rotate(-45)"/><path class="cls-5" d="M177.49,142.89a.84.84,0,1,1,0-1.19A.84.84,0,0,1,177.49,142.89Z"/><path class="cls-5" d="M180.38,145.78a.84.84,0,1,1,0-1.19A.84.84,0,0,1,180.38,145.78Z"/><path class="cls-5" d="M183.27,148.66a.85.85,0,0,1-1.2,0,.84.84,0,0,1,0-1.19.85.85,0,1,1,1.2,1.19Z"/><path class="cls-5" d="M186.15,151.55a.84.84,0,1,1,0-1.19A.84.84,0,0,1,186.15,151.55Z"/><path class="cls-5" d="M191.92,157.32a.84.84,0,1,1,0-1.19A.84.84,0,0,1,191.92,157.32Z"/><path class="cls-5" d="M194.81,160.21a.84.84,0,1,1,0-1.19A.84.84,0,0,1,194.81,160.21Z"/><path class="cls-5" d="M197.7,163.1a.85.85,0,0,1-1.2-1.2.85.85,0,0,1,1.2,1.2Z"/><path class="cls-5" d="M189,154.44a.84.84,0,0,1-1.19,0,.84.84,0,1,1,1.19,0Z"/><path class="cls-5" d="M175.19,145.19a.84.84,0,1,1,0-1.19A.84.84,0,0,1,175.19,145.19Z"/><path class="cls-5" d="M178.08,148.08a.84.84,0,1,1,0-1.19A.84.84,0,0,1,178.08,148.08Z"/><path class="cls-5" d="M181,151a.84.84,0,0,1-1.19-1.2.84.84,0,0,1,1.19,0A.85.85,0,0,1,181,151Z"/><path class="cls-5" d="M183.85,153.85a.84.84,0,1,1,0-1.19A.84.84,0,0,1,183.85,153.85Z"/><path class="cls-5" d="M189.62,159.62a.84.84,0,1,1,0-1.19A.84.84,0,0,1,189.62,159.62Z"/><path class="cls-5" d="M192.51,162.51a.84.84,0,1,1,0-1.19A.84.84,0,0,1,192.51,162.51Z"/><path class="cls-5" d="M195.4,165.4a.85.85,0,0,1-1.2-1.2.87.87,0,0,1,1.2,0A.85.85,0,0,1,195.4,165.4Z"/><path class="cls-5" d="M186.74,156.74a.85.85,0,0,1-1.2-1.2.87.87,0,0,1,1.2,0A.85.85,0,0,1,186.74,156.74Z"/><path class="cls-5" d="M172.89,147.49a.84.84,0,1,1,0-1.19A.84.84,0,0,1,172.89,147.49Z"/><path class="cls-5" d="M175.78,150.38a.85.85,0,0,1-1.2,0,.84.84,0,0,1,0-1.19.85.85,0,0,1,1.2,0A.84.84,0,0,1,175.78,150.38Z"/><path class="cls-5" d="M178.66,153.27a.84.84,0,1,1-1.19-1.2.84.84,0,0,1,1.19,0A.85.85,0,0,1,178.66,153.27Z"/><path class="cls-5" d="M181.55,156.15a.84.84,0,1,1,0-1.19A.84.84,0,0,1,181.55,156.15Z"/><path class="cls-5" d="M187.32,161.92a.84.84,0,1,1,0-1.19A.84.84,0,0,1,187.32,161.92Z"/><path class="cls-5" d="M190.21,164.81a.84.84,0,1,1,0-1.19A.84.84,0,0,1,190.21,164.81Z"/><path class="cls-5" d="M193.1,167.7a.85.85,0,1,1,0-1.2A.85.85,0,0,1,193.1,167.7Z"/><path class="cls-5" d="M184.44,159a.85.85,0,0,1-1.2,0,.84.84,0,0,1,0-1.19.85.85,0,0,1,1.2,0A.84.84,0,0,1,184.44,159Z"/><path class="cls-5" d="M170.58,149.8a.84.84,0,1,1,0-1.19A.84.84,0,0,1,170.58,149.8Z"/><path class="cls-5" d="M173.47,152.69a.85.85,0,0,1-1.2,0,.84.84,0,0,1,0-1.19.85.85,0,0,1,1.2,0A.84.84,0,0,1,173.47,152.69Z"/><path class="cls-5" d="M176.35,155.58a.84.84,0,0,1-1.19,0,.85.85,0,0,1,0-1.2.84.84,0,0,1,1.19,0A.85.85,0,0,1,176.35,155.58Z"/><path class="cls-5" d="M179.24,158.46a.84.84,0,1,1,0-1.19A.84.84,0,0,1,179.24,158.46Z"/><path class="cls-5" d="M185,164.24a.84.84,0,0,1-1.19,0,.85.85,0,0,1,0-1.2.84.84,0,0,1,1.19,0A.85.85,0,0,1,185,164.24Z"/><path class="cls-5" d="M187.9,167.12a.84.84,0,1,1,0-1.19A.84.84,0,0,1,187.9,167.12Z"/><path class="cls-5" d="M190.78,170a.84.84,0,1,1,0-1.19A.84.84,0,0,1,190.78,170Z"/><path class="cls-5" d="M182.12,161.35a.84.84,0,1,1,0-1.19A.84.84,0,0,1,182.12,161.35Z"/><path class="cls-5" d="M168.28,152.1a.84.84,0,1,1,0-1.19A.84.84,0,0,1,168.28,152.1Z"/><path class="cls-5" d="M171.16,155a.84.84,0,1,1,0-1.19A.84.84,0,0,1,171.16,155Z"/><path class="cls-5" d="M174.05,157.88a.84.84,0,0,1-1.19,0,.85.85,0,0,1,0-1.2.84.84,0,0,1,1.19,0A.85.85,0,0,1,174.05,157.88Z"/><path class="cls-5" d="M176.94,160.76a.84.84,0,1,1,0-1.19A.84.84,0,0,1,176.94,160.76Z"/><path class="cls-5" d="M182.71,166.54a.84.84,0,0,1-1.19,0,.85.85,0,0,1,0-1.2.84.84,0,0,1,1.19,0A.85.85,0,0,1,182.71,166.54Z"/><path class="cls-5" d="M185.6,169.42a.85.85,0,0,1-1.2,0,.84.84,0,0,1,0-1.19.85.85,0,0,1,1.2,0A.84.84,0,0,1,185.6,169.42Z"/><circle class="cls-5" cx="187.89" cy="171.71" r="0.84"/><path class="cls-5" d="M179.82,163.65a.84.84,0,1,1,0-1.19A.84.84,0,0,1,179.82,163.65Z"/><path class="cls-5" d="M166,154.41a.85.85,0,1,1,0-1.2A.85.85,0,0,1,166,154.41Z"/><path class="cls-5" d="M168.86,157.29a.84.84,0,1,1,0-1.19A.84.84,0,0,1,168.86,157.29Z"/><path class="cls-5" d="M171.75,160.18a.84.84,0,1,1,0-1.19A.84.84,0,0,1,171.75,160.18Z"/><path class="cls-5" d="M174.64,163.06a.85.85,0,0,1-1.2,0,.84.84,0,0,1,0-1.19.85.85,0,0,1,1.2,0A.84.84,0,0,1,174.64,163.06Z"/><path class="cls-5" d="M180.41,168.84a.84.84,0,0,1-1.19,0,.85.85,0,0,1,0-1.2.84.84,0,0,1,1.19,0A.85.85,0,0,1,180.41,168.84Z"/><path class="cls-5" d="M183.3,171.72a.85.85,0,0,1-1.2,0,.84.84,0,0,1,0-1.19.85.85,0,0,1,1.2,0A.84.84,0,0,1,183.3,171.72Z"/><path class="cls-5" d="M186.18,174.61a.84.84,0,1,1,0-1.19A.84.84,0,0,1,186.18,174.61Z"/><path class="cls-5" d="M177.52,166a.84.84,0,1,1,0-1.19A.84.84,0,0,1,177.52,166Z"/><path class="cls-5" d="M163.68,156.71a.85.85,0,1,1,0-1.2A.85.85,0,0,1,163.68,156.71Z"/><path class="cls-5" d="M166.56,159.59a.84.84,0,1,1,0-1.19A.84.84,0,0,1,166.56,159.59Z"/><path class="cls-5" d="M169.45,162.48a.84.84,0,1,1,0-1.19A.84.84,0,0,1,169.45,162.48Z"/><path class="cls-5" d="M172.34,165.37a.87.87,0,0,1-1.2,0,.85.85,0,1,1,1.2,0Z"/><path class="cls-5" d="M178.11,171.14a.84.84,0,1,1,0-1.19A.84.84,0,0,1,178.11,171.14Z"/><path class="cls-5" d="M181,174a.85.85,0,0,1-1.2,0,.84.84,0,0,1,0-1.19.85.85,0,0,1,1.2,0A.84.84,0,0,1,181,174Z"/><path class="cls-5" d="M183.88,176.91a.84.84,0,1,1,0-1.19A.84.84,0,0,1,183.88,176.91Z"/><path class="cls-5" d="M175.22,168.25a.84.84,0,1,1,0-1.19A.84.84,0,0,1,175.22,168.25Z"/><path class="cls-5" d="M161.37,159a.85.85,0,0,1-1.2,0,.84.84,0,0,1,0-1.19.85.85,0,0,1,1.2,0A.84.84,0,0,1,161.37,159Z"/><path class="cls-5" d="M164.25,161.9a.84.84,0,1,1,0-1.19A.84.84,0,0,1,164.25,161.9Z"/><path class="cls-5" d="M167.14,164.79a.84.84,0,1,1,0-1.19A.84.84,0,0,1,167.14,164.79Z"/><path class="cls-5" d="M170,167.68a.85.85,0,1,1,0-1.2A.85.85,0,0,1,170,167.68Z"/><circle class="cls-5" cx="175.2" cy="172.85" r="0.84"/><path class="cls-5" d="M178.69,176.33a.85.85,0,0,1-1.2,0,.84.84,0,0,1,0-1.19.85.85,0,0,1,1.2,1.19Z"/><path class="cls-5" d="M181.57,179.22a.84.84,0,1,1,0-1.19A.84.84,0,0,1,181.57,179.22Z"/><path class="cls-5" d="M172.91,170.56a.84.84,0,1,1,0-1.19A.84.84,0,0,1,172.91,170.56Z"/><path class="cls-5" d="M159.07,161.32a.85.85,0,1,1,0-1.2A.87.87,0,0,1,159.07,161.32Z"/><path class="cls-5" d="M162,164.2a.84.84,0,1,1,0-1.19A.84.84,0,0,1,162,164.2Z"/><path class="cls-5" d="M164.84,167.09a.84.84,0,1,1,0-1.19A.84.84,0,0,1,164.84,167.09Z"/><path class="cls-5" d="M167.72,170a.84.84,0,0,1-1.19,0,.85.85,0,0,1,0-1.2.84.84,0,0,1,1.19,0A.85.85,0,0,1,167.72,170Z"/><path class="cls-5" d="M173.5,175.75a.84.84,0,1,1,0-1.19A.84.84,0,0,1,173.5,175.75Z"/><path class="cls-5" d="M176.38,178.64a.84.84,0,0,1-1.19,0,.85.85,0,0,1,0-1.2.84.84,0,0,1,1.19,0A.85.85,0,0,1,176.38,178.64Z"/><path class="cls-5" d="M179.27,181.52a.84.84,0,1,1,0-1.19A.84.84,0,0,1,179.27,181.52Z"/><path class="cls-5" d="M170.61,172.86a.84.84,0,1,1,0-1.19A.84.84,0,0,1,170.61,172.86Z"/><path class="cls-5" d="M156.76,163.62a.84.84,0,1,1,0-1.19A.84.84,0,0,1,156.76,163.62Z"/><path class="cls-5" d="M159.65,166.5a.84.84,0,1,1,0-1.19A.84.84,0,0,1,159.65,166.5Z"/><path class="cls-5" d="M162.54,169.39a.85.85,0,0,1-1.2,0,.84.84,0,0,1,0-1.19.85.85,0,0,1,1.2,0A.84.84,0,0,1,162.54,169.39Z"/><path class="cls-5" d="M165.42,172.28a.84.84,0,0,1-1.19,0,.85.85,0,0,1,0-1.2.84.84,0,0,1,1.19,0A.85.85,0,0,1,165.42,172.28Z"/><path class="cls-5" d="M171.2,178.05a.85.85,0,0,1-1.2,0,.84.84,0,0,1,0-1.19.85.85,0,0,1,1.2,0A.84.84,0,0,1,171.2,178.05Z"/><path class="cls-5" d="M174.08,180.94a.84.84,0,0,1-1.19,0,.85.85,0,0,1,0-1.2.84.84,0,0,1,1.19,0A.85.85,0,0,1,174.08,180.94Z"/><path class="cls-5" d="M177,183.82a.84.84,0,1,1,0-1.19A.84.84,0,0,1,177,183.82Z"/><path class="cls-5" d="M168.31,175.16a.84.84,0,1,1,0-1.19A.84.84,0,0,1,168.31,175.16Z"/><path class="cls-5" d="M154.46,165.92a.84.84,0,1,1,0-1.19A.84.84,0,0,1,154.46,165.92Z"/><circle class="cls-5" cx="156.75" cy="168.21" r="0.84"/><path class="cls-5" d="M160.24,171.69a.85.85,0,0,1-1.2,0,.84.84,0,0,1,0-1.19.85.85,0,0,1,1.2,0A.84.84,0,0,1,160.24,171.69Z"/><path class="cls-5" d="M163.12,174.58a.84.84,0,1,1,0-1.19A.84.84,0,0,1,163.12,174.58Z"/><path class="cls-5" d="M168.9,180.35a.85.85,0,0,1-1.2,0,.84.84,0,0,1,0-1.19.85.85,0,0,1,1.2,0A.84.84,0,0,1,168.9,180.35Z"/><path class="cls-5" d="M171.78,183.24a.84.84,0,0,1-1.19,0,.85.85,0,0,1,0-1.2.84.84,0,0,1,1.19,0A.85.85,0,0,1,171.78,183.24Z"/><path class="cls-5" d="M174.67,186.12a.84.84,0,1,1,0-1.19A.84.84,0,0,1,174.67,186.12Z"/><path class="cls-5" d="M166,177.46a.84.84,0,1,1,0-1.19A.84.84,0,0,1,166,177.46Z"/><path class="cls-5" d="M152.15,168.23a.84.84,0,1,1,0-1.19A.84.84,0,0,1,152.15,168.23Z"/><path class="cls-5" d="M155,171.12a.85.85,0,0,1-1.19-1.2.84.84,0,0,1,1.19,0A.85.85,0,0,1,155,171.12Z"/><path class="cls-5" d="M157.93,174a.85.85,0,0,1-1.2,0,.84.84,0,0,1,0-1.19.84.84,0,0,1,1.2,1.19Z"/><path class="cls-5" d="M160.81,176.89a.84.84,0,0,1-1.19,0,.84.84,0,1,1,1.19,0Z"/><path class="cls-5" d="M166.58,182.66a.84.84,0,1,1,0-1.19A.84.84,0,0,1,166.58,182.66Z"/><path class="cls-5" d="M169.47,185.55a.84.84,0,0,1-1.19,0,.85.85,0,1,1,1.19,0Z"/><path class="cls-5" d="M172.36,188.43a.85.85,0,0,1-1.2,0,.84.84,0,0,1,0-1.19.85.85,0,0,1,1.2,0A.84.84,0,0,1,172.36,188.43Z"/><path class="cls-5" d="M163.7,179.78a.84.84,0,0,1-1.19-1.2.84.84,0,0,1,1.19,0A.85.85,0,0,1,163.7,179.78Z"/><path class="cls-5" d="M149.85,170.53a.84.84,0,1,1,0-1.19A.84.84,0,0,1,149.85,170.53Z"/><path class="cls-5" d="M152.74,173.42a.85.85,0,0,1-1.2,0,.87.87,0,0,1,0-1.2.85.85,0,0,1,1.2,1.2Z"/><path class="cls-5" d="M155.62,176.3a.84.84,0,1,1,0-1.19A.84.84,0,0,1,155.62,176.3Z"/><path class="cls-5" d="M158.51,179.19a.84.84,0,1,1,0-1.19A.84.84,0,0,1,158.51,179.19Z"/><circle class="cls-5" cx="163.69" cy="184.37" r="0.84"/><path class="cls-5" d="M167.17,187.85a.84.84,0,1,1,0-1.19A.84.84,0,0,1,167.17,187.85Z"/><path class="cls-5" d="M170.06,190.73a.85.85,0,0,1-1.2,0,.84.84,0,0,1,0-1.19.85.85,0,0,1,1.2,0A.84.84,0,0,1,170.06,190.73Z"/><path class="cls-5" d="M161.4,182.07a.85.85,0,0,1-1.2,0,.84.84,0,0,1,0-1.19.85.85,0,0,1,1.2,0A.84.84,0,0,1,161.4,182.07Z"/><circle class="cls-5" cx="146.95" cy="172.23" r="0.84"/><path class="cls-5" d="M150.44,175.72a.85.85,0,1,1,0-1.2A.85.85,0,0,1,150.44,175.72Z"/><path class="cls-5" d="M153.32,178.6a.84.84,0,1,1,0-1.19A.84.84,0,0,1,153.32,178.6Z"/><path class="cls-5" d="M156.21,181.49a.84.84,0,1,1,0-1.19A.84.84,0,0,1,156.21,181.49Z"/><path class="cls-5" d="M162,187.26a.84.84,0,1,1,0-1.19A.84.84,0,0,1,162,187.26Z"/><path class="cls-5" d="M164.87,190.15a.84.84,0,1,1,0-1.19A.84.84,0,0,1,164.87,190.15Z"/><path class="cls-5" d="M167.76,193a.87.87,0,0,1-1.2,0,.85.85,0,1,1,1.2,0Z"/><path class="cls-5" d="M159.1,184.38a.85.85,0,1,1,0-1.2A.85.85,0,0,1,159.1,184.38Z"/><path class="cls-5" d="M145.25,175.13a.84.84,0,1,1,0-1.19A.84.84,0,0,1,145.25,175.13Z"/><path class="cls-5" d="M148.14,178a.85.85,0,1,1-1.2-1.2.87.87,0,0,1,1.2,0A.85.85,0,0,1,148.14,178Z"/><path class="cls-5" d="M151,180.9a.84.84,0,1,1,0-1.19A.84.84,0,0,1,151,180.9Z"/><path class="cls-5" d="M153.91,183.79a.84.84,0,1,1,0-1.19A.84.84,0,0,1,153.91,183.79Z"/><path class="cls-5" d="M159.68,189.56a.84.84,0,1,1,0-1.19A.84.84,0,0,1,159.68,189.56Z"/><path class="cls-5" d="M162.57,192.45a.84.84,0,1,1,0-1.19A.84.84,0,0,1,162.57,192.45Z"/><path class="cls-5" d="M165.46,195.34a.85.85,0,1,1,0-1.2A.87.87,0,0,1,165.46,195.34Z"/><path class="cls-5" d="M156.8,186.68a.85.85,0,1,1,0-1.2A.85.85,0,0,1,156.8,186.68Z"/><path class="cls-5" d="M142.94,177.44a.84.84,0,1,1,0-1.19A.84.84,0,0,1,142.94,177.44Z"/><path class="cls-5" d="M145.83,180.33a.85.85,0,0,1-1.2,0,.84.84,0,0,1,0-1.19.85.85,0,0,1,1.2,0A.84.84,0,0,1,145.83,180.33Z"/><path class="cls-5" d="M148.71,183.22a.84.84,0,0,1-1.19,0,.85.85,0,0,1,0-1.2.84.84,0,0,1,1.19,0A.85.85,0,0,1,148.71,183.22Z"/><path class="cls-5" d="M151.6,186.1a.84.84,0,1,1,0-1.19A.84.84,0,0,1,151.6,186.1Z"/><path class="cls-5" d="M157.37,191.87a.84.84,0,1,1,0-1.19A.84.84,0,0,1,157.37,191.87Z"/><path class="cls-5" d="M160.26,194.76a.84.84,0,1,1,0-1.19A.84.84,0,0,1,160.26,194.76Z"/><path class="cls-5" d="M163.14,197.65a.84.84,0,0,1-1.19,0,.85.85,0,0,1,0-1.2.84.84,0,0,1,1.19,0A.85.85,0,0,1,163.14,197.65Z"/><path class="cls-5" d="M154.49,189a.85.85,0,0,1-1.2,0,.84.84,0,0,1,0-1.19.84.84,0,0,1,1.2,1.19Z"/><rect class="cls-6" x="26.63" y="144.49" width="32.92" height="50.35" transform="translate(-107.35 80.16) rotate(-45)"/><rect class="cls-5" x="33.82" y="153.67" width="0.4" height="50.35" transform="translate(-116.49 76.43) rotate(-45)"/><rect class="cls-5" x="36.85" y="150.65" width="0.4" height="50.35" transform="translate(-113.47 77.69) rotate(-45)"/><rect class="cls-5" x="39.87" y="147.63" width="0.4" height="50.35" transform="translate(-110.62 79.21) rotate(-45.1)"/><rect class="cls-5" x="42.89" y="144.61" width="0.4" height="50.35" transform="translate(-107.43 80.19) rotate(-45)"/><rect class="cls-5" x="45.91" y="141.58" width="0.4" height="50.35" transform="translate(-104.56 81.71) rotate(-45.1)"/><rect class="cls-5" x="48.94" y="138.56" width="0.4" height="50.35" transform="translate(-101.51 82.93) rotate(-45.09)"/><rect class="cls-5" x="51.96" y="135.54" width="0.4" height="50.35" transform="translate(-98.37 83.95) rotate(-45)"/><rect class="cls-6" x="89.94" y="-8.31" width="32.92" height="50.35" transform="translate(89.54 123.26) rotate(-90)"/><rect class="cls-5" x="81.22" y="27.29" width="32.2" height="0.4"/><rect class="cls-5" x="113.22" y="8.93" width="0.4" height="24.39"/><rect class="cls-5" x="101.16" y="0.4" width="0.4" height="27.09"/><rect class="cls-5" x="101.36" y="8.73" width="30.21" height="0.4"/><rect class="cls-5" x="113.43" y="21.2" width="12.65" height="0.4"/><rect class="cls-5" x="126" y="8.93" width="0.4" height="24.39"/><rect class="cls-5" x="120.24" y="21.4" width="0.4" height="11.92"/><rect class="cls-5" x="95.72" y="15.14" width="17.7" height="0.4"/><rect class="cls-5" x="95.52" y="0.4" width="0.4" height="20.73"/><rect class="cls-5" x="117.2" y="0.4" width="0.4" height="21.01"/><rect class="cls-5" x="81.22" y="20.93" width="20.14" height="0.4"/><rect class="cls-5" x="84.55" y="6.93" width="0.4" height="14.19"/><rect class="cls-5" x="81.22" y="6.57" width="14.5" height="0.4"/><rect class="cls-6" x="17.92" y="26.59" width="50.35" height="32.92" transform="translate(-17.82 43.08) rotate(-45)"/><path class="cls-5" d="M51.67,34.48s-3.45,3.27-4,3.28-4-3.28-4-3.28,3.44,3.61,3.4,4-3.4,4-3.4,4,3.58-3.4,4-3.38,4,3.39,4,3.39-3.4-3.54-3.33-4S51.67,34.48,51.67,34.48Z"/><path class="cls-5" d="M42.23,43.91s-3.44,3.27-4,3.29-4-3.29-4-3.29,3.44,3.61,3.39,4-3.39,4-3.39,4,3.57-3.41,4-3.39,4,3.39,4,3.39-3.4-3.53-3.33-4S42.23,43.91,42.23,43.91Z"/><path class="cls-5" d="M70.11,34.47A27.86,27.86,0,0,0,67,38.23a8.92,8.92,0,0,0,1.8,2.39l-.11.11a11.27,11.27,0,0,0-2.34-1.85c-.46,0-4,3.38-4,3.38s3.33-3.53,3.39-4-3.39-4-3.39-4,3.39,3.3,4,3.28c.45,0,3-2.37,3.76-3.08Z"/><path class="cls-5" d="M51.69,16.05a28,28,0,0,0-3.13,3.75c-.07.51,3.33,4,3.33,4s-3.47-3.37-4-3.39-4,3.39-4,3.39,3.34-3.53,3.4-4a12.07,12.07,0,0,0-1.88-2.35l.11-.11a8.62,8.62,0,0,0,2.42,1.77c.44,0,3-2.37,3.75-3.09Z"/><path class="cls-5" d="M60.68,43.91a28,28,0,0,0-3.13,3.75,9.07,9.07,0,0,0,1.8,2.4l-.1.1a11,11,0,0,0-2.35-1.85c-.46,0-4,3.39-4,3.39s3.33-3.53,3.39-4-3.39-4-3.39-4,3.39,3.3,4,3.28c.44,0,3-2.37,3.76-3.08Z"/><path class="cls-5" d="M42.25,25.48a28.83,28.83,0,0,0-3.13,3.76c-.07.5,3.33,4,3.33,4s-3.47-3.36-4-3.38-4,3.38-4,3.38,3.33-3.53,3.39-4A11.61,11.61,0,0,0,36,26.9l.11-.12a8.34,8.34,0,0,0,2.41,1.77c.45,0,3-2.37,3.76-3.08Z"/><path class="cls-5" d="M51.24,53.34a27.25,27.25,0,0,0-3.12,3.76,9.26,9.26,0,0,0,1.8,2.39l-.11.11a10.76,10.76,0,0,0-2.34-1.85c-.46,0-4,3.38-4,3.38s3.34-3.53,3.4-4-3.4-4-3.4-4,3.4,3.31,4,3.29c.45,0,3-2.37,3.76-3.09Z"/><path class="cls-5" d="M32.82,34.91a28.68,28.68,0,0,0-3.13,3.76c-.07.5,3.33,4,3.33,4s-3.47-3.37-4-3.39-4,3.38-4,3.38,3.34-3.52,3.4-4a12.46,12.46,0,0,0-1.88-2.34l.12-.12A8.21,8.21,0,0,0,29.05,38c.44,0,3-2.37,3.75-3.08Z"/><path class="cls-5" d="M60.9,25.26A27.42,27.42,0,0,0,57.77,29c-.07.5,3.33,4,3.33,4s-3.47-3.36-4-3.38-4,3.38-4,3.38,3.33-3.53,3.39-4-3.39-4-3.39-4,3.39,3.3,4,3.29c.44,0,3-2.37,3.76-3.09Z"/><path class="cls-5" d="M34.51,70.07A27.86,27.86,0,0,1,38.27,67a8.69,8.69,0,0,1,2.39,1.8l.11-.11a11.27,11.27,0,0,1-1.85-2.34c0-.46,3.38-4,3.38-4s-3.53,3.33-4,3.39-4-3.39-4-3.39,3.31,3.39,3.29,4c0,.45-2.37,3-3.08,3.76Z"/><path class="cls-5" d="M16.08,51.65a28.68,28.68,0,0,1,3.76-3.13c.5-.07,4,3.33,4,3.33s-3.37-3.47-3.39-4,3.39-4,3.39-4-3.53,3.34-4,3.4a12.07,12.07,0,0,1-2.35-1.88l-.12.12a8.21,8.21,0,0,1,1.77,2.41c0,.44-2.37,3-3.08,3.75Z"/><path class="cls-5" d="M25.3,60.86a28.83,28.83,0,0,1,3.75-3.13c.51-.07,4,3.33,4,3.33s-3.36-3.47-3.39-4,3.39-4,3.39-4-3.53,3.33-4,3.39-4-3.39-4-3.39,3.3,3.39,3.29,4c0,.44-2.37,3-3.09,3.75Z"/></g></g></svg>