<svg id="レイヤー_1" data-name="レイヤー 1" xmlns="http://www.w3.org/2000/svg" viewBox="0 0 97 52"><defs><style>.cls-1{fill:#fff;}</style></defs><path class="cls-1" d="M0,0H6V25H16.68V29.9H0Z"/><path class="cls-1" d="M28.34,20.85a13.35,13.35,0,0,0,.14,2.08A4.68,4.68,0,0,0,29,24.56a2.9,2.9,0,0,0,1.08,1.09,3.5,3.5,0,0,0,1.74.39,3.44,3.44,0,0,0,1.75-.39,3,3,0,0,0,1.07-1.09,4.89,4.89,0,0,0,.54-1.63,13.28,13.28,0,0,0,.15-2.08V0h6V20.85a12.06,12.06,0,0,1-.79,4.71,7.54,7.54,0,0,1-2.13,3A7.27,7.27,0,0,1,35.4,30a16.57,16.57,0,0,1-3.55.38A18.06,18.06,0,0,1,28.29,30a7.1,7.1,0,0,1-3.05-1.36,7,7,0,0,1-2.13-2.91,12.74,12.74,0,0,1-.79-4.9V0h6Z"/><path class="cls-1" d="M62.73,20.48h.08V0h5.52V29.9H61.48L54.12,9H54V29.9H48.52V0h6.94Z"/><path class="cls-1" d="M89.1,0,97,29.9H90.73l-1.38-6.33H81.41L80,29.9H73.76L81.66,0Zm-.79,18.63L85.42,5.19h-.08L82.46,18.63Z"/><path class="cls-1" d="M8.07,47.22H2.49V44.88H8.07Z"/><path class="cls-1" d="M15.81,37.62l2,10h0l2-10h4.22V51.78H21.51V40.48h0L19,51.78H16.74l-2.51-11.3h0v11.3H11.57V37.62Z"/><path class="cls-1" d="M35.65,40h-5v3.33h4.75v2.34H30.6v3.81h5.24v2.34H27.75V37.62h7.9Z"/><path class="cls-1" d="M43.66,37.62a5,5,0,0,1,2.4.49,3.35,3.35,0,0,1,1.41,1.38,6.21,6.21,0,0,1,.69,2.18,22.73,22.73,0,0,1,0,6.08A6.44,6.44,0,0,1,47.33,50a3.55,3.55,0,0,1-1.49,1.33,5.55,5.55,0,0,1-2.35.43H39V37.62Zm-.55,12.06a2.5,2.5,0,0,0,1.21-.26,1.81,1.81,0,0,0,.72-.85A5,5,0,0,0,45.4,47c.06-.65.08-1.45.08-2.42,0-.8,0-1.51-.07-2.12a5.74,5.74,0,0,0-.33-1.52,1.92,1.92,0,0,0-.73-.91,2.38,2.38,0,0,0-1.3-.31H41.84v10Z"/><path class="cls-1" d="M51.94,37.62h2.85V51.78H51.94Z"/><path class="cls-1" d="M61.16,47.5a7.4,7.4,0,0,0,.07,1,2.19,2.19,0,0,0,.26.77,1.49,1.49,0,0,0,.51.52,1.73,1.73,0,0,0,.83.19,1.67,1.67,0,0,0,.83-.19,1.39,1.39,0,0,0,.5-.52,2.19,2.19,0,0,0,.26-.77,6,6,0,0,0,.07-1V37.62h2.85V47.5A5.73,5.73,0,0,1,67,49.73a3.52,3.52,0,0,1-1,1.4,3.44,3.44,0,0,1-1.44.69,7.72,7.72,0,0,1-1.68.18,8.43,8.43,0,0,1-1.69-.16,3.36,3.36,0,0,1-1.44-.64,3.4,3.4,0,0,1-1-1.38,6.07,6.07,0,0,1-.38-2.32V37.62h2.85Z"/><path class="cls-1" d="M75,37.62l2,10h0l2-10h4.21V51.78H80.72V40.48h0l-2.51,11.3H76l-2.51-11.3h0v11.3H70.78V37.62Z"/><path class="cls-1" d="M92.42,47.22H86.84V44.88h5.58Z"/></svg>