<svg id="レイヤー_1" data-name="レイヤー 1" xmlns="http://www.w3.org/2000/svg" viewBox="0 0 157 157"><defs><style>.cls-1{fill:#fff;}.cls-2{fill:none;stroke:#525a70;stroke-miterlimit:10;}.cls-3{fill:#525a70;}</style></defs><path class="cls-1" d="M153.68,93.445a39.942,39.942,0,0,0,0-29.448h0A39.973,39.973,0,0,0,142.1,36.033h0a40,40,0,0,0-21.417-21.4A40,40,0,0,0,93.547,3.365h0a40.107,40.107,0,0,0-7.179-2.122l-.091-.02c-.55-.106-1.1-.2-1.658-.281-.071-.01-.141-.024-.212-.035-.515-.074-1.032-.133-1.55-.187-.111-.011-.22-.028-.331-.039-.479-.045-.961-.075-1.443-.1-.149-.009-.3-.025-.446-.032C80.074.519,79.51.507,78.945.5c-.065,0-.131,0-.2,0-.1,0-.209.006-.314.007-.521,0-1.041.013-1.561.037-.158.008-.316.025-.475.034-.467.028-.935.056-1.4.1-.115.012-.229.029-.344.041-.51.053-1.02.11-1.528.183-.067.009-.133.023-.2.033-.556.082-1.111.173-1.664.279-.034.006-.067.015-.1.021-.586.114-1.17.239-1.752.379h0A41.851,41.851,0,0,0,63.957,3.33h0A39.748,39.748,0,0,0,48.863,6.342a40.584,40.584,0,0,0-12.955,8.642h0A39.989,39.989,0,0,0,14.6,36.347,39.949,39.949,0,0,0,3.32,63.555a39.942,39.942,0,0,0,0,29.45A39.976,39.976,0,0,0,14.9,120.967a40,40,0,0,0,21.418,21.4,40,40,0,0,0,27.133,11.268h0a40.085,40.085,0,0,0,7.189,2.124c.027.006.053.013.08.017.559.109,1.121.2,1.684.286.062.009.123.022.185.03.526.076,1.054.137,1.583.191.1.011.2.026.3.035.509.049,1.021.082,1.533.111.118.006.235.019.354.025q.942.043,1.891.045t1.877-.045c.12-.005.239-.018.358-.025.508-.029,1.015-.061,1.52-.109.083-.008.166-.02.249-.029.542-.055,1.083-.117,1.622-.194.05-.007.1-.017.149-.025.573-.084,1.144-.178,1.714-.287l.061-.013a41.559,41.559,0,0,0,7.242-2.1,39.748,39.748,0,0,0,15.094-3.012,40.568,40.568,0,0,0,12.955-8.642h0a39.99,39.99,0,0,0,21.31-21.359v0A39.953,39.953,0,0,0,153.68,93.445Z"/><path class="cls-2" d="M108.137,150.658c-9.222,3.817-19.435,4.019-29.638.6-20.721,6.921-41.064-1.508-51.453-21.336C7.206,119.541-1.228,99.208,5.7,78.5-1.228,57.792,7.205,37.461,27.045,27.077,32.16,17.3,39.677,10.145,48.863,6.342,58.085,2.525,68.3,2.324,78.5,5.74c20.721-6.92,41.064,1.508,51.452,21.336C149.795,37.46,158.228,57.792,151.3,78.5c6.925,20.708-1.508,41.039-21.348,51.423C124.84,139.7,117.323,146.855,108.137,150.658Z"/><path class="cls-2" d="M142.4,120.655a39.953,39.953,0,0,0,11.276-27.21,39.94,39.94,0,0,0,0-29.449A39.975,39.975,0,0,0,142.1,36.033a39.994,39.994,0,0,0-21.417-21.4A39.993,39.993,0,0,0,93.547,3.365,39.715,39.715,0,0,0,78.749.5,40.519,40.519,0,0,0,63.957,3.33,39.748,39.748,0,0,0,48.863,6.342a40.584,40.584,0,0,0-12.955,8.642A39.991,39.991,0,0,0,14.6,36.348,39.945,39.945,0,0,0,3.32,63.555a39.942,39.942,0,0,0,0,29.45A39.978,39.978,0,0,0,14.9,120.967a39.994,39.994,0,0,0,21.418,21.4,40,40,0,0,0,27.133,11.269,39.725,39.725,0,0,0,14.8,2.864,40.519,40.519,0,0,0,14.792-2.83,39.748,39.748,0,0,0,15.094-3.012,40.584,40.584,0,0,0,12.955-8.642A39.987,39.987,0,0,0,142.4,120.655Z"/><path class="cls-2" d="M78.251,156.5c-9.981,0-19.494-3.72-27.613-10.778-21.794-1.531-37.36-17.1-39.366-39.391C-3.082,89.15-3.088,67.14,11.238,50.656c1.532-21.78,17.108-37.338,39.414-39.344C59.123,4.233,68.806.5,78.749.5c9.981,0,19.494,3.721,27.613,10.779,21.793,1.531,37.361,17.1,39.365,39.39,14.355,17.182,14.361,39.191.034,55.676-1.532,21.78-17.108,37.338-39.413,39.344C97.877,152.768,88.194,156.5,78.251,156.5Z"/><path class="cls-3" d="M36.269,61.192q-.052-1.326-.115-2.7c.181.028.355.051.522.073a4.064,4.064,0,0,0,1,0c.167-.022.341-.045.523-.073q-.063,1.377-.115,2.7t-.053,2.7v3.591q0,1.377.053,2.713t.115,2.63q-.481-.042-1.024-.042t-1.023.042q.061-1.294.115-2.63t.052-2.713V65.606q-1.128-.019-2.183-.031t-2.182-.01q-1.128,0-2.183.01t-2.182.031v1.879q0,1.377.052,2.713t.115,2.63q-.481-.042-1.023-.042c-.362,0-.7.014-1.024.042q.063-1.294.115-2.63t.053-2.713V63.894q0-1.377-.053-2.7t-.115-2.7c.181.028.355.051.522.073a4.072,4.072,0,0,0,1,0c.167-.022.341-.045.522-.073q-.063,1.377-.115,2.7t-.052,2.7v.731l2.182.042q1.055.021,2.183.021t2.182-.021l2.183-.042v-.731Q36.321,62.517,36.269,61.192Z"/><path class="cls-3" d="M50.428,61.192q-.051-1.326-.114-2.7c.18.028.355.051.522.073a4.064,4.064,0,0,0,1,0c.167-.022.341-.045.522-.073q-.063,1.377-.114,2.7t-.053,2.7v3.591q0,1.377.053,2.713t.114,2.63q-.48-.042-1.023-.042t-1.023.042q.061-1.294.114-2.63t.053-2.713V63.894Q50.481,62.517,50.428,61.192Z"/><path class="cls-3" d="M64.641,63.894q0-1.377-.053-2.7t-.114-2.7c.4.028.8.051,1.19.073s.787.031,1.191.031.8-.017,1.19-.053.786-.051,1.19-.051a8.192,8.192,0,0,1,1.671.166,4.09,4.09,0,0,1,1.389.554,2.785,2.785,0,0,1,.94,1.012,3.623,3.623,0,0,1-.105,3.288,4.184,4.184,0,0,1-1.1,1.189,5.4,5.4,0,0,1-1.389.731,6.915,6.915,0,0,1-1.347.344q.251.314.689.877c.293.376.619.789.982,1.242s.738.926,1.127,1.419.766.968,1.128,1.419.7.866,1.024,1.242.577.661.772.856a4.7,4.7,0,0,0-.626-.042H73.162a4.26,4.26,0,0,0-.606.042q-.314-.438-.95-1.315T70.2,69.634q-.773-1-1.577-1.993t-1.472-1.68h-.794v1.524q0,1.377.053,2.713t.114,2.63q-.48-.042-1.023-.042t-1.023.042q.061-1.294.114-2.63t.053-2.713Zm1.712,1.191a4.4,4.4,0,0,0,.637.083q.345.021.763.021a6.558,6.558,0,0,0,1.347-.147,3.9,3.9,0,0,0,1.284-.511,3.035,3.035,0,0,0,.971-.981A2.871,2.871,0,0,0,71.742,62a2.705,2.705,0,0,0-.3-1.346,2.428,2.428,0,0,0-.783-.846,3,3,0,0,0-1.045-.427,5.581,5.581,0,0,0-1.107-.115q-.731,0-1.211.031c-.32.021-.592.046-.814.073q-.042,1.149-.084,2.276t-.042,2.253Z"/><path class="cls-3" d="M108.964,66.963q-.208-.355-.616-1.033t-.9-1.5q-.492-.824-1.034-1.732t-1.034-1.733q-.49-.825-.888-1.482t-.605-.991c.194.028.386.051.574.073a5.339,5.339,0,0,0,1.149,0c.188-.022.379-.045.574-.073q.939,1.815,1.911,3.569t2.057,3.653q.48-.752,1-1.649t1.044-1.837q.522-.939,1-1.889t.9-1.847a3.241,3.241,0,0,0,1.629,0q-1,1.524-1.795,2.755t-1.4,2.233q-.606,1-1.065,1.806t-.794,1.45q0,.774.011,1.649c.007.584.017,1.159.031,1.722s.032,1.086.052,1.566.046.866.073,1.158q-.48-.042-1.023-.042t-1.024.042q.126-1.084.147-2.63T108.964,66.963Z"/><path class="cls-3" d="M95.992,71.367q-.429-.96-.961-2.181t-1.138-2.641q-.606-1.419-1.211-2.859t-1.191-2.849q-.585-1.41-1.086-2.62h-.4q-1.629,3.738-3.237,7.347t-3.3,7.264a7.125,7.125,0,0,1,1.545,0q.27-.96.814-2.431c.265-.717,3.885-9.362,3.885-9.362s3.1,7.476,3.2,7.713q.314.762.616,1.5t.554,1.42q.251.678.4,1.158a3.909,3.909,0,0,1,.554-.042h1.107a3.92,3.92,0,0,1,.554.042Q96.419,72.327,95.992,71.367Z"/><path class="cls-3" d="M133.972,71.367q-.427-.96-.96-2.181t-1.139-2.641q-.606-1.419-1.211-2.859t-1.19-2.849q-.587-1.41-1.087-2.62h-.4q-1.629,3.738-3.237,7.347t-3.3,7.264a7.125,7.125,0,0,1,1.545,0q.271-.96.815-2.431c.264-.717,3.884-9.362,3.884-9.362s3.1,7.476,3.2,7.713q.314.762.616,1.5t.554,1.42c.166.452.3.838.4,1.158a3.9,3.9,0,0,1,.554-.042h1.106a3.909,3.909,0,0,1,.554.042Q134.4,72.327,133.972,71.367Z"/><path class="cls-3" d="M47.5,93.808c.192-.5.348-.971.516-1.559.408.012.888.012,1.308.012.444,0,.985-.012,1.429-.036.084,0,.108.024.108.156s-.024.156-.108.168c-.517.048-.72.048-.852.3a3.281,3.281,0,0,0-.181,1.559l.072,4.355c.025,1.2.06,1.344.18,1.6s.4.264.9.312c.084.012.108.036.108.156s-.024.144-.12.144c-.552-.024-1.26-.036-1.789-.036-.576,0-1.176.012-1.693.036-.072,0-.1-.024-.1-.156,0-.108.023-.132.1-.144.469-.048.709-.048.841-.312a3.774,3.774,0,0,0,.144-1.6l-.048-5.255h-.108l-1.753,4.3c-.54,1.332-.876,2.112-1.248,3.036-.036.1-.072.132-.228.132-.192,0-.2-.036-.24-.132-.36-.948-.7-1.728-1.153-2.8l-1.909-4.535h-.143l-.025,5.255a3.483,3.483,0,0,0,.229,1.536c.155.24.576.324.888.372.108.012.12.036.12.144,0,.132-.024.156-.132.156-.456-.024-.876-.036-1.381-.036-.48,0-.936.012-1.392.036-.084,0-.12-.024-.12-.144s.036-.144.12-.156a1.154,1.154,0,0,0,.8-.372,3.425,3.425,0,0,0,.288-1.536l.12-4.355a3.091,3.091,0,0,0-.156-1.559c-.168-.252-.54-.252-.96-.3-.072-.012-.108-.024-.108-.168s.036-.156.1-.156c.48.024.984.036,1.381.036.432,0,.924,0,1.416-.012a12.406,12.406,0,0,0,.492,1.379l1.681,4.007c.252.6.348.84.588,1.464.24-.576.3-.78.552-1.44Z"/><path class="cls-3" d="M56.316,98.763a3.474,3.474,0,0,0,.168,1.452c.192.324.624.348,1.152.348a2.973,2.973,0,0,0,2.065-.576,4.876,4.876,0,0,0,.96-1.224c.036-.084.073-.12.192-.084.156.048.144.1.132.168a14.819,14.819,0,0,1-.624,2.124c-1.056-.024-2.16-.036-3.157-.036-1.056,0-2.209.012-3.277.036-.084,0-.108-.024-.108-.144s.024-.144.108-.156c.456-.048.66-.06.792-.312a4.156,4.156,0,0,0,.156-1.6V94.408c0-1.152-.012-1.307-.144-1.571-.12-.228-.372-.24-.876-.288-.084-.012-.108-.024-.108-.156s.024-.168.108-.168c1.056.036,2.16.048,3.181.048.984,0,2.041-.012,3.085-.048.048.612.132,1.415.228,2.039.012.072-.012.12-.132.144s-.18-.012-.2-.084a3.123,3.123,0,0,0-.816-1.235,2.622,2.622,0,0,0-1.8-.432c-.432,0-.8.024-.96.3a3.889,3.889,0,0,0-.12,1.451V96.16c.192.012.468.012.672.012a2.977,2.977,0,0,0,1.513-.264,1.291,1.291,0,0,0,.468-.816c.012-.072.036-.108.18-.108s.144.036.144.12c-.012.432-.024.852-.024,1.26,0,.444.012.96.024,1.391,0,.1-.012.132-.144.132s-.156-.036-.18-.12a1.581,1.581,0,0,0-.481-.9,3.2,3.2,0,0,0-1.5-.288c-.2,0-.48,0-.672.012Z"/><path class="cls-3" d="M71.111,93.808c.192-.5.348-.971.516-1.559.408.012.888.012,1.308.012.444,0,.985-.012,1.429-.036.084,0,.108.024.108.156s-.024.156-.108.168c-.517.048-.72.048-.852.3a3.281,3.281,0,0,0-.181,1.559l.072,4.355c.025,1.2.06,1.344.181,1.6s.4.264.9.312c.084.012.108.036.108.156s-.024.144-.12.144c-.552-.024-1.26-.036-1.789-.036-.576,0-1.176.012-1.693.036-.071,0-.095-.024-.095-.156,0-.108.024-.132.095-.144.469-.048.709-.048.841-.312a3.774,3.774,0,0,0,.144-1.6l-.048-5.255h-.108l-1.753,4.3c-.54,1.332-.876,2.112-1.248,3.036-.036.1-.072.132-.228.132-.192,0-.2-.036-.24-.132-.36-.948-.7-1.728-1.153-2.8l-1.909-4.535h-.143l-.025,5.255a3.483,3.483,0,0,0,.229,1.536c.155.24.576.324.888.372.108.012.12.036.12.144,0,.132-.024.156-.132.156-.456-.024-.876-.036-1.381-.036-.48,0-.936.012-1.392.036-.084,0-.12-.024-.12-.144s.036-.144.12-.156a1.154,1.154,0,0,0,.8-.372,3.425,3.425,0,0,0,.288-1.536l.12-4.355a3.091,3.091,0,0,0-.156-1.559c-.168-.252-.54-.252-.96-.3-.072-.012-.108-.024-.108-.168s.036-.156.1-.156c.48.024.984.036,1.381.036.432,0,.924,0,1.416-.012a12.406,12.406,0,0,0,.492,1.379l1.681,4.007c.252.6.348.84.588,1.464.24-.576.3-.78.552-1.44Z"/><path class="cls-3" d="M81.958,96.376c1.873.18,2.905.936,2.905,2.171,0,1.212-.8,2.46-3.673,2.46-.7,0-1.489-.06-2.077-.06-.516,0-1.092.012-1.6.024-.083,0-.1-.024-.1-.144s.013-.144.1-.156c.457-.048.709-.048.865-.312a3.923,3.923,0,0,0,.156-1.6V94.408c0-1.152,0-1.307-.156-1.571-.144-.228-.408-.24-.924-.288-.084-.012-.108-.024-.108-.156s.024-.168.119-.168q.811.036,1.621.036c.564,0,1.3-.06,1.957-.06,2.5,0,3.265.8,3.265,1.991,0,.876-.528,1.644-2.353,2.112Zm-2.041-.2c.18.012.252.012.408.012,1.993,0,2.486-.864,2.486-1.9,0-1.091-.7-1.679-1.909-1.679-.385,0-.7.012-.853.264a4.037,4.037,0,0,0-.132,1.535Zm0,2.591a3.414,3.414,0,0,0,.168,1.5c.18.312.54.348,1.045.348A1.92,1.92,0,0,0,83.3,98.559c0-.768-.2-1.955-2.833-1.955-.156,0-.253,0-.553.012Z"/><path class="cls-3" d="M90.307,98.763a3.474,3.474,0,0,0,.168,1.452c.192.324.624.348,1.152.348a2.973,2.973,0,0,0,2.065-.576,4.876,4.876,0,0,0,.96-1.224c.036-.084.073-.12.192-.084.157.048.144.1.132.168a14.819,14.819,0,0,1-.624,2.124c-1.056-.024-2.16-.036-3.157-.036-1.056,0-2.209.012-3.277.036-.084,0-.108-.024-.108-.144s.024-.144.108-.156c.456-.048.66-.06.792-.312a4.135,4.135,0,0,0,.156-1.6V94.408c0-1.152-.011-1.307-.144-1.571-.12-.228-.372-.24-.876-.288-.084-.012-.108-.024-.108-.156s.024-.168.108-.168c1.056.036,2.161.048,3.181.048.984,0,2.041-.012,3.085-.048.048.612.132,1.415.228,2.039.012.072-.012.12-.132.144s-.18-.012-.2-.084a3.123,3.123,0,0,0-.816-1.235,2.622,2.622,0,0,0-1.8-.432c-.432,0-.8.024-.96.3a3.889,3.889,0,0,0-.12,1.451V96.16c.192.012.468.012.672.012a2.977,2.977,0,0,0,1.513-.264,1.3,1.3,0,0,0,.468-.816c.012-.072.036-.108.18-.108s.144.036.144.12c-.012.432-.024.852-.024,1.26,0,.444.012.96.024,1.391,0,.1-.012.132-.144.132s-.156-.036-.18-.12a1.587,1.587,0,0,0-.481-.9,3.2,3.2,0,0,0-1.5-.288c-.2,0-.48,0-.672.012Z"/><path class="cls-3" d="M99.987,98.751c0,1.2.012,1.368.133,1.6.155.264.419.264.924.312.084.012.1.036.1.168,0,.108-.012.144-.12.144-.553-.024-1.165-.048-1.717-.048-.528,0-1.14.024-1.656.048-.1,0-.121-.036-.121-.144,0-.132.024-.156.121-.168.444-.048.708-.06.828-.312a4.231,4.231,0,0,0,.144-1.6V94.408c0-1.152,0-1.3-.12-1.559-.12-.24-.481-.252-.973-.3-.084-.012-.108-.036-.108-.168s.024-.156.108-.156c.565.024,1.189.036,1.717.036.456,0,1.224-.048,1.981-.048,2.377,0,3.277.984,3.277,2.243A2.3,2.3,0,0,1,102.5,96.6c.516.935,1.093,1.943,1.729,2.975a2.871,2.871,0,0,0,.708.9,1.591,1.591,0,0,0,.733.18c.071.012.095.024.095.156s-.024.156-.095.156c-.5-.024-.889-.048-1.273-.048-.336,0-.684,0-1.105.012a6.511,6.511,0,0,0-.432-.936c-.588-1.08-1.128-2.088-1.728-3.167-.12.012-.265.012-.4.012-.24,0-.443,0-.744-.024Zm0-2.339a6.05,6.05,0,0,0,.781.048c1.62,0,2.209-.852,2.209-1.932,0-1.212-.613-1.907-1.993-1.907-.312,0-.7-.012-.864.228a4.1,4.1,0,0,0-.133,1.559Z"/><path class="cls-3" d="M110.173,96.736c-1.429-.72-1.909-1.32-1.909-2.544s1.08-2.159,2.689-2.159a4.521,4.521,0,0,1,1.212.168,3.039,3.039,0,0,0,1.189.036c0,.612.083,1.391.132,2.027,0,.06,0,.1-.121.12s-.156-.012-.179-.072c-.469-1.1-1.213-1.895-2.173-1.895a1.412,1.412,0,0,0-1.441,1.511c0,.54.324,1.044,1.333,1.536l.648.312c1.7.828,2.305,1.368,2.305,2.8,0,1.62-1.189,2.592-3.206,2.592a6.907,6.907,0,0,1-2.3-.42,17.656,17.656,0,0,1-.421-2c-.011-.084-.011-.168.132-.192s.181.012.2.072a3.155,3.155,0,0,0,2.52,2.16,1.667,1.667,0,0,0,1.741-1.728c0-.912-.54-1.38-1.752-2Z"/><path class="cls-3" d="M66.425,114.585a4.652,4.652,0,1,1-4.657-4.547A4.421,4.421,0,0,1,66.425,114.585Zm-7.635,0c0,2.532,1.189,4.175,2.978,4.175s2.989-1.643,2.989-4.139c0-2.543-1.225-4.175-2.989-4.175S58.79,112.1,58.79,114.585Z"/><path class="cls-3" d="M70.957,111.526l.06,5.255a3.164,3.164,0,0,0,.252,1.523,1.277,1.277,0,0,0,.9.372c.095.012.108.036.108.156s-.025.144-.121.144c-.456-.024-.912-.036-1.4-.036s-1.008.012-1.44.036c-.1,0-.108-.024-.108-.132s.011-.144.095-.156a1.11,1.11,0,0,0,.829-.384,2.9,2.9,0,0,0,.3-1.523l.06-4.367a2.911,2.911,0,0,0-.192-1.464,1.4,1.4,0,0,0-1.009-.372c-.083-.012-.108-.036-.108-.18s.025-.168.108-.168c.433.012.9.036,1.261.036s.876,0,1.464-.012a17.382,17.382,0,0,0,.925,1.476l2.748,4.091c.421.636.673,1.008.985,1.548V116l-.024-3.587a2.978,2.978,0,0,0-.288-1.476c-.144-.252-.528-.324-.852-.36-.108-.012-.145-.024-.145-.168s.024-.18.108-.18c.385.024.925.048,1.393.048s1.056-.024,1.38-.048c.084,0,.108.024.108.168s-.024.156-.108.168a.978.978,0,0,0-.78.372,3.012,3.012,0,0,0-.288,1.476l-.072,4.355c-.012.828,0,1.331.024,1.991-.768.408-.816.42-.876.42a.126.126,0,0,1-.108-.06c-.384-.612-.6-.959-1.357-2.1l-3.661-5.5Z"/><path class="cls-3" d="M83.664,116.769a3.7,3.7,0,0,0,.156,1.451c.205.324.637.348,1.153.348a3.117,3.117,0,0,0,2.052-.612,4.476,4.476,0,0,0,.937-1.2c.048-.084.072-.108.2-.072s.132.1.12.168a16.526,16.526,0,0,1-.624,2.123c-1.069-.024-2.173-.036-3.169-.036-1.057,0-2.2.012-3.265.036-.084,0-.108-.024-.108-.144s.024-.144.108-.156c.456-.048.684-.06.827-.312a3.894,3.894,0,0,0,.157-1.595v-4.355c0-1.152-.012-1.308-.144-1.572-.121-.228-.384-.24-.865-.288-.1-.012-.12-.024-.12-.156s.024-.168.12-.168c.517.012,1.153.048,1.7.048s1.188-.036,1.7-.048c.1,0,.132.024.132.168s-.035.144-.108.156c-.456.048-.708.048-.84.288a4.333,4.333,0,0,0-.132,1.572Z"/><path class="cls-3" d="M92.588,115.5c0-.168-.012-.36-.012-.516-.18-.3-.312-.5-.492-.8l-1.141-1.943a8.2,8.2,0,0,0-.9-1.368.982.982,0,0,0-.78-.312c-.084-.012-.108-.024-.108-.156s.024-.168.108-.168c.564.024,1.116.048,1.668.048s1.153-.024,1.693-.048c.072,0,.1.024.1.156s-.024.156-.084.168c-.444.048-.7.072-.745.3-.071.276.133.516.373.948l1.08,1.919c.156.264.228.384.36.624a5.109,5.109,0,0,0,.349-.563l1-1.884c.264-.5.336-.708.24-.972-.084-.24-.384-.324-.78-.372-.085-.012-.108-.024-.108-.156s.011-.168.131-.168c.457.024.985.048,1.465.048s.853-.024,1.321-.048c.1,0,.108.024.108.156s-.024.156-.121.168a1.661,1.661,0,0,0-.84.372,4.222,4.222,0,0,0-.948,1.236L94.4,114.045c-.156.276-.264.432-.4.648,0,.168-.012.636-.012.816v1.26c0,1.2-.012,1.367.108,1.595.132.264.432.264.961.312.084.012.1.036.1.156s-.012.144-.1.144c-.613-.012-1.224-.036-1.777-.036s-1.128.024-1.669.036c-.108,0-.119-.024-.119-.144s.024-.144.108-.156c.468-.048.744-.06.864-.312a5.03,5.03,0,0,0,.12-1.595Z"/></svg>