<?xml version="1.0" encoding="UTF-8"?>
<svg xmlns="http://www.w3.org/2000/svg" version="1.1" viewBox="0 0 339.9 484">
  <defs>
    <style>
      .cls-1 {
        fill: #c0b55c;
      }

      .cls-2 {
        fill: #231815;
      }

      .cls-3 {
        fill: #fff;
      }

      .cls-4 {
        fill: #c6b368;
        stroke: #c0b55c;
        stroke-width: .7px;
      }

      .cls-5 {
        fill: #27231e;
      }
    </style>
  </defs>
  <!-- Generator: Adobe Illustrator 28.7.5, SVG Export Plug-In . SVG Version: 1.2.0 Build 176)  -->
  <g>
    <g id="_レイヤー_1" data-name="レイヤー_1">
      <g id="_レイヤー_1-2" data-name="_レイヤー_1">
        <path class="cls-3" d="M330.4,458.7c0,8.7-7.1,15.9-15.9,15.9H25.4c-8.7,0-15.9-7.1-15.9-15.9V25.4c0-8.7,7.1-15.9,15.9-15.9h289.2c8.7,0,15.9,7.1,15.9,15.9v433.3h0ZM339.9,458.7V25.4C339.9,11.4,328.5,0,314.6,0H25.4C11.4,0,0,11.4,0,25.4v433.3c0,14,11.4,25.4,25.4,25.4h289.2c14,0,25.4-11.4,25.4-25.4ZM314.6,19c3.4,0,6.3,2.9,6.3,6.3v433.3c0,3.4-2.9,6.3-6.3,6.3H25.4c-3.4,0-6.3-2.9-6.3-6.3V25.4c0-3.4,2.9-6.3,6.3-6.3h289.2Z"/>
        <rect class="cls-5" x="9.5" y="9.5" width="320.9" height="465" rx="15.9" ry="15.9"/>
        <path class="cls-1" d="M169.8,378.7l-71.3-71.3h-24.1v-24.1l-41.5-41.5,41.5-41.5v-24.1h24.1l71.3-71.3,71.3,71.3h23.6v23.6l42,42-42,42v23.6h-23.6l-71.3,71.3h0ZM81.1,300.8h20.2l68.5,68.5,68.5-68.5h19.6v-19.6l39.2-39.2-39.2-39.2v-19.6h-19.6l-68.5-68.5-68.5,68.5h-20.2v20.2l-38.7,38.7,38.7,38.7v20.2h0Z"/>
        <polygon class="cls-2" points="261.2 282.5 301.9 241.9 261.2 201.3 261.2 179.7 239.6 179.7 169.8 109.8 99.9 179.7 77.7 179.7 77.7 201.8 37.6 241.9 77.7 282 77.7 304.1 99.9 304.1 169.8 374 239.6 304.1 261.2 304.1 261.2 282.5"/>
        <path class="cls-4" d="M252.8,196.3v-4.6h-15.6l-49.2-49.2h0l-3.2-3.2h0l-4.4-4.4h0l-3.2-3.2h0l-4.4-4.3h0l-3.2-3.2h0l-3.2,3.2h0l-4.4,4.3h0l-3.2,3.2h0l-4.4,4.4h0l-3.2,3.2h0l-49.2,49.2h-15.6v4.6h17.5s50.5-50.5,50.5-50.5l4.4,4.4-52.3,52.3h-20v4.6h21.9c0,0,0,0,0,0l53.6-53.6,4.4,4.4-55.5,55.5h-24.4v4.6h26.3s0,0,0,0h0s56.8-56.8,56.8-56.8l56.8,56.8h0s0,0,0,0h0s0,0,0,0h26.3v-4.6h-24.4l-55.5-55.5,4.4-4.4,53.6,53.6h0s0,0,0,0h21.9v-4.6h-20l-52.3-52.3,4.4-4.4,50.5,50.5h0s17.5,0,17.5,0h0ZM169.7,130.6l4.4,4.4-4.4,4.4-4.4-4.4,4.4-4.4ZM157.8,142.5l4.4-4.4,4.4,4.4-4.4,4.4-4.4-4.4ZM169.7,154.5l-4.4-4.4,4.4-4.4,4.4,4.4-4.4,4.4ZM177.3,146.9l-4.4-4.4,4.4-4.4,4.4,4.4-4.4,4.4ZM226.5,266.4h0s0,0,0,0h0s-56.8,56.8-56.8,56.8l-56.8-56.8h0s0,0,0,0h0s0,0,0,0h-26.3v4.6h24.4l55.5,55.5-4.4,4.4-53.6-53.6h0s0,0,0,0h-21.9v4.6h20l52.3,52.3-4.4,4.4-50.5-50.5h0s-17.5,0-17.5,0v4.6h15.6l49.2,49.2h0l3.2,3.2h0l4.4,4.4h0l3.2,3.2h0l4.4,4.4h0l3.2,3.2h0l3.2-3.2h0l4.4-4.4h0l3.2-3.2h0l4.4-4.4h0l3.2-3.2h0l49.2-49.2h15.6v-4.6h-17.5s-50.5,50.5-50.5,50.5l-4.4-4.4,52.3-52.3h20v-4.6h-21.9c0,0,0,0,0,0l-53.6,53.6-4.4-4.4,55.5-55.5h24.4v-4.6h-26.3ZM157.8,341.5l4.4-4.4,4.4,4.4-4.4,4.4-4.4-4.4ZM169.7,353.5l-4.4-4.4,4.4-4.4,4.4,4.4-4.4,4.4ZM181.6,341.5l-4.4,4.4-4.4-4.4,4.4-4.4,4.4,4.4ZM174,334l-4.4,4.4-4.4-4.4,4.4-4.4,4.4,4.4Z"/>
        <polygon class="cls-4" points="207.9 262.1 161.4 215.6 170.3 206.6 181.2 217.8 217.4 217.8 170.3 170.8 125.5 215.6 131.6 221.6 131.6 221.6 178.1 268.2 169.2 277.1 158.3 266 122.1 266 169.2 312.9 214 268.2 207.9 262.1 207.9 262.1"/>
      </g>
    </g>
  </g>
</svg>