<?xml version="1.0" encoding="UTF-8"?>
<svg xmlns="http://www.w3.org/2000/svg" xmlns:xlink="http://www.w3.org/1999/xlink" version="1.1" viewBox="0 0 339.9 484">
  <defs>
    <style>
      .cls-1 {
        fill: none;
      }

      .cls-2, .cls-3 {
        fill: #c6b368;
      }

      .cls-4 {
        fill: #c0b55c;
      }

      .cls-5 {
        clip-path: url(#clippath-1);
      }

      .cls-6 {
        fill: #231815;
      }

      .cls-7 {
        fill: #fff;
      }

      .cls-3 {
        stroke: #c0b55c;
        stroke-width: .1px;
      }

      .cls-8 {
        fill: #27231e;
      }

      .cls-9 {
        fill: #c6b636;
      }

      .cls-10 {
        clip-path: url(#clippath);
      }
    </style>
    <clipPath id="clippath">
      <rect class="cls-1" x="9.5" y="9.5" width="320.9" height="465" rx="15.9" ry="15.9"/>
    </clipPath>
    <clipPath id="clippath-1">
      <rect class="cls-1" x="440.6" y="13.2" width="320.9" height="465" rx="15.9" ry="15.9"/>
    </clipPath>
  </defs>
  <!-- Generator: Adobe Illustrator 28.7.5, SVG Export Plug-In . SVG Version: 1.2.0 Build 176)  -->
  <g>
    <g id="_レイヤー_1" data-name="レイヤー_1">
      <g id="_レイヤー_1-2" data-name="_レイヤー_1">
        <path class="cls-7" d="M330.4,458.7c0,8.7-7.1,15.9-15.9,15.9H25.4c-8.7,0-15.9-7.1-15.9-15.9V25.4c0-8.7,7.1-15.9,15.9-15.9h289.2c8.7,0,15.9,7.1,15.9,15.9v433.3h0ZM339.9,458.7V25.4C339.9,11.4,328.5,0,314.6,0H25.4C11.4,0,0,11.4,0,25.4v433.3c0,14,11.4,25.4,25.4,25.4h289.2c14,0,25.4-11.4,25.4-25.4Z"/>
        <rect x="9.5" y="9.5" width="320.9" height="465" rx="15.9" ry="15.9"/>
        <g class="cls-10">
          <g>
            <path class="cls-8" d="M137.8,174.3c-3.4-8.3-6-16.8-7.7-25.5,1.7-8.7,4.3-17.2,7.7-25.5,6.6-16.1,16.1-30.6,28.2-43,1.3-1.3,2.6-2.6,4-3.9-5.9-1.6-11.6-3.7-17.3-6.1-6.2-2.7-12.2-5.9-17.9-9.5-8.7,5.5-16.7,12-23.9,19.5-3.1,3.2-6,6.4-8.7,9.8,8,10,14.5,21.1,19.5,33.2,3.4,8.3,6,16.8,7.7,25.5-1.7,8.7-4.3,17.2-7.7,25.5-4.9,12-11.5,23.1-19.5,33.2,2.7,3.4,5.6,6.7,8.7,9.9,7.3,7.5,15.3,14,23.9,19.5,5.7-3.6,11.6-6.8,17.9-9.5,5.6-2.5,11.4-4.5,17.3-6.1-1.4-1.3-2.7-2.6-4-3.9-12.1-12.4-21.6-26.9-28.2-43h0Z"/>
            <path class="cls-8" d="M75,148.9c1.7-8.7,4.3-17.2,7.7-25.5,4.9-12,11.5-23.1,19.5-33.2-2.7-3.4-5.6-6.7-8.7-9.8-7.3-7.5-15.3-14-23.9-19.5-5.7,3.6-11.6,6.8-17.9,9.5-5.7,2.5-11.4,4.5-17.3,6.1,1.3,1.3,2.7,2.6,4,3.9,12.1,12.4,21.5,26.9,28.2,43,3.4,8.3,6,16.8,7.7,25.5-1.7,8.7-4.3,17.2-7.7,25.5-6.6,16.1-16.1,30.6-28.2,43-1.3,1.3-2.6,2.6-4,3.9,5.9,1.6,11.7,3.6,17.3,6.1,6.2,2.7,12.2,5.9,17.9,9.5,8.7-5.5,16.7-12,23.9-19.5,3.1-3.1,6-6.4,8.7-9.9-8-10-14.5-21.1-19.5-33.2-3.4-8.3-6-16.8-7.7-25.5h0Z"/>
            <path class="cls-8" d="M134.8,60.9c5.7-3.6,11.6-6.8,17.9-9.5,5.6-2.5,11.4-4.5,17.3-6.1-1.4-1.3-2.7-2.6-4-3.9-12.1-12.4-21.6-26.9-28.2-43-3.7-8.9-6.4-18.1-8.1-27.5-1.7,9.4-4.4,18.6-8.1,27.5-4.9,12-11.5,23.1-19.5,33.2,2.7,3.4,5.6,6.7,8.7,9.8,7.3,7.5,15.3,14,23.9,19.5h0Z"/>
            <path class="cls-8" d="M69.5,60.9c8.7-5.5,16.7-12,23.9-19.5,3.1-3.2,6-6.4,8.7-9.9-8-10-14.5-21.1-19.5-33.2-3.7-8.9-6.4-18.1-8.1-27.5-1.7,9.4-4.4,18.6-8.1,27.5-6.6,16.1-16.1,30.6-28.2,43-1.3,1.3-2.6,2.6-4,3.9,5.9,1.6,11.7,3.7,17.3,6.1,6.2,2.7,12.2,5.9,17.9,9.5h0Z"/>
            <path class="cls-8" d="M2.2,174.3c-3.4-8.3-6-16.8-7.7-25.5,1.7-8.7,4.3-17.2,7.7-25.5,6.6-16.1,16.1-30.6,28.2-43,1.3-1.3,2.6-2.6,4-3.9-5.9-1.6-11.6-3.7-17.3-6.1-6.2-2.7-12.2-5.9-17.9-9.5-8.6,5.5-16.7,12-23.9,19.5-3.1,3.2-6,6.4-8.7,9.8,8,10,14.5,21.1,19.5,33.2,3.4,8.3,6,16.8,7.7,25.5-1.7,8.7-4.3,17.2-7.7,25.5-4.9,12-11.5,23.1-19.5,33.2,2.7,3.4,5.6,6.7,8.7,9.9,7.3,7.5,15.3,14,23.9,19.5,5.7-3.6,11.6-6.8,17.9-9.5,5.6-2.5,11.4-4.5,17.3-6.1-1.3-1.3-2.7-2.6-4-3.9-12.1-12.4-21.5-26.9-28.2-43h0Z"/>
            <path class="cls-8" d="M-.8,60.9c5.7-3.6,11.6-6.8,17.9-9.5,5.6-2.5,11.4-4.5,17.3-6.1-1.3-1.3-2.7-2.6-4-3.9C18.3,28.9,8.9,14.5,2.2-1.6-1.4-10.5-4.1-19.7-5.8-29.1-7.6-19.7-10.3-10.5-13.9-1.6c-4.9,12-11.5,23.1-19.5,33.2,2.7,3.4,5.6,6.7,8.7,9.9,7.3,7.5,15.3,14,23.9,19.5h0Z"/>
            <path class="cls-8" d="M346.1,148.9c1.7-8.7,4.3-17.2,7.7-25.5,4.9-12,11.5-23.1,19.5-33.2-2.7-3.4-5.6-6.7-8.7-9.8-7.3-7.5-15.3-14-23.9-19.5-5.7,3.6-11.6,6.8-17.9,9.5-5.6,2.5-11.4,4.5-17.3,6.1,1.4,1.3,2.7,2.6,4,3.9,12.1,12.4,21.5,26.9,28.2,43,3.4,8.3,6,16.8,7.7,25.5-1.7,8.7-4.3,17.2-7.7,25.5-6.6,16.1-16.1,30.6-28.2,43-1.3,1.3-2.6,2.6-4,3.9,5.9,1.6,11.6,3.6,17.3,6.1,6.2,2.7,12.2,5.9,17.9,9.5,8.6-5.5,16.7-12,23.9-19.5,3.1-3.1,6-6.4,8.7-9.9-8-10-14.5-21.1-19.5-33.2-3.4-8.3-6-16.8-7.7-25.5h0Z"/>
            <path class="cls-8" d="M340.7,60.9c8.6-5.5,16.7-12,23.9-19.5,3.1-3.2,6-6.4,8.7-9.9-8-10-14.5-21.1-19.5-33.2-3.7-8.9-6.4-18.1-8.1-27.5-1.7,9.4-4.4,18.6-8.1,27.5-6.6,16.1-16.1,30.6-28.2,43-1.3,1.3-2.6,2.6-4,3.9,5.9,1.6,11.6,3.7,17.3,6.1,6.2,2.7,12.2,5.9,17.9,9.5h0Z"/>
            <path class="cls-8" d="M273.4,174.3c-3.4-8.3-6-16.8-7.7-25.5,1.7-8.7,4.3-17.2,7.7-25.5,6.6-16.1,16.1-30.6,28.2-43,1.3-1.3,2.6-2.6,4-3.9-5.9-1.6-11.6-3.7-17.3-6.1-6.2-2.7-12.2-5.9-17.9-9.5-8.6,5.5-16.7,12-23.9,19.5-3.1,3.2-6,6.4-8.7,9.8,8,10,14.5,21.1,19.5,33.2,3.4,8.3,6,16.8,7.7,25.5-1.7,8.7-4.3,17.2-7.7,25.5-4.9,12-11.5,23.1-19.5,33.2,2.7,3.4,5.6,6.7,8.7,9.9,7.3,7.5,15.3,14,23.9,19.5,5.7-3.6,11.6-6.8,17.9-9.5,5.6-2.5,11.4-4.5,17.3-6.1-1.4-1.3-2.7-2.6-4-3.9-12.1-12.4-21.5-26.9-28.2-43h0Z"/>
            <path class="cls-8" d="M210.6,148.9c1.7-8.7,4.3-17.2,7.7-25.5,4.9-12,11.5-23.1,19.5-33.2-2.7-3.4-5.6-6.7-8.7-9.8-7.3-7.5-15.3-14-23.9-19.5-5.7,3.6-11.6,6.8-17.9,9.5-5.6,2.5-11.4,4.5-17.3,6.1,1.4,1.3,2.7,2.6,4,3.9,12.1,12.4,21.6,26.9,28.2,43,3.4,8.3,6,16.8,7.7,25.5-1.7,8.7-4.3,17.2-7.7,25.5-6.6,16.1-16.1,30.6-28.2,43-1.3,1.3-2.6,2.6-4,3.9,5.9,1.6,11.6,3.6,17.3,6.1,6.2,2.7,12.2,5.9,17.9,9.5,8.6-5.5,16.7-12,23.9-19.5,3.1-3.1,6-6.4,8.7-9.9-8-10-14.5-21.1-19.5-33.2-3.4-8.3-6-16.8-7.7-25.5h0Z"/>
            <path class="cls-8" d="M270.4,60.9c5.7-3.6,11.6-6.8,17.9-9.5,5.6-2.5,11.4-4.5,17.3-6.1-1.4-1.3-2.7-2.6-4-3.9-12.1-12.4-21.5-26.9-28.2-43-3.7-8.9-6.4-18.1-8.1-27.5-1.7,9.4-4.4,18.6-8.1,27.5-4.9,12-11.5,23.1-19.5,33.2,2.7,3.4,5.6,6.7,8.7,9.8,7.3,7.5,15.3,14,23.9,19.5h0Z"/>
            <path class="cls-8" d="M205.1,60.9c8.6-5.5,16.7-12,23.9-19.5,3.1-3.2,6-6.4,8.7-9.9-8-10-14.5-21.1-19.5-33.2-3.7-8.9-6.4-18.1-8.1-27.5-1.7,9.4-4.4,18.6-8.1,27.5-6.6,16.1-16.1,30.6-28.2,43-1.3,1.3-2.6,2.6-4,3.9,5.9,1.6,11.6,3.7,17.3,6.1,6.2,2.7,12.2,5.9,17.9,9.5h0Z"/>
            <path class="cls-8" d="M137.8,174.3c-3.4-8.3-6-16.8-7.7-25.5,1.7-8.7,4.3-17.2,7.7-25.5,6.6-16.1,16.1-30.6,28.2-43,1.3-1.3,2.6-2.6,4-3.9-5.9-1.6-11.6-3.7-17.3-6.1-6.2-2.7-12.2-5.9-17.9-9.5-8.7,5.5-16.7,12-23.9,19.5-3.1,3.2-6,6.4-8.7,9.8,8,10,14.5,21.1,19.5,33.2,3.4,8.3,6,16.8,7.7,25.5-1.7,8.7-4.3,17.2-7.7,25.5-4.9,12-11.5,23.1-19.5,33.2,2.7,3.4,5.6,6.7,8.7,9.9,7.3,7.5,15.3,14,23.9,19.5,5.7-3.6,11.6-6.8,17.9-9.5,5.6-2.5,11.4-4.5,17.3-6.1-1.4-1.3-2.7-2.6-4-3.9-12.1-12.4-21.6-26.9-28.2-43h0Z"/>
            <path class="cls-8" d="M75,148.9c1.7-8.7,4.3-17.2,7.7-25.5,4.9-12,11.5-23.1,19.5-33.2-2.7-3.4-5.6-6.7-8.7-9.8-7.3-7.5-15.3-14-23.9-19.5-5.7,3.6-11.6,6.8-17.9,9.5-5.7,2.5-11.4,4.5-17.3,6.1,1.3,1.3,2.7,2.6,4,3.9,12.1,12.4,21.5,26.9,28.2,43,3.4,8.3,6,16.8,7.7,25.5-1.7,8.7-4.3,17.2-7.7,25.5-6.6,16.1-16.1,30.6-28.2,43-1.3,1.3-2.6,2.6-4,3.9,5.9,1.6,11.7,3.6,17.3,6.1,6.2,2.7,12.2,5.9,17.9,9.5,8.7-5.5,16.7-12,23.9-19.5,3.1-3.1,6-6.4,8.7-9.9-8-10-14.5-21.1-19.5-33.2-3.4-8.3-6-16.8-7.7-25.5h0Z"/>
            <path class="cls-8" d="M134.8,60.9c5.7-3.6,11.6-6.8,17.9-9.5,5.6-2.5,11.4-4.5,17.3-6.1-1.4-1.3-2.7-2.6-4-3.9-12.1-12.4-21.6-26.9-28.2-43-3.7-8.9-6.4-18.1-8.1-27.5-1.7,9.4-4.4,18.6-8.1,27.5-4.9,12-11.5,23.1-19.5,33.2,2.7,3.4,5.6,6.7,8.7,9.8,7.3,7.5,15.3,14,23.9,19.5h0Z"/>
            <path class="cls-8" d="M69.5,60.9c8.7-5.5,16.7-12,23.9-19.5,3.1-3.2,6-6.4,8.7-9.9-8-10-14.5-21.1-19.5-33.2-3.7-8.9-6.4-18.1-8.1-27.5-1.7,9.4-4.4,18.6-8.1,27.5-6.6,16.1-16.1,30.6-28.2,43-1.3,1.3-2.6,2.6-4,3.9,5.9,1.6,11.7,3.7,17.3,6.1,6.2,2.7,12.2,5.9,17.9,9.5h0Z"/>
            <path class="cls-8" d="M2.2,174.3c-3.4-8.3-6-16.8-7.7-25.5,1.7-8.7,4.3-17.2,7.7-25.5,6.6-16.1,16.1-30.6,28.2-43,1.3-1.3,2.6-2.6,4-3.9-5.9-1.6-11.6-3.7-17.3-6.1-6.2-2.7-12.2-5.9-17.9-9.5-8.6,5.5-16.7,12-23.9,19.5-3.1,3.2-6,6.4-8.7,9.8,8,10,14.5,21.1,19.5,33.2,3.4,8.3,6,16.8,7.7,25.5-1.7,8.7-4.3,17.2-7.7,25.5-4.9,12-11.5,23.1-19.5,33.2,2.7,3.4,5.6,6.7,8.7,9.9,7.3,7.5,15.3,14,23.9,19.5,5.7-3.6,11.6-6.8,17.9-9.5,5.6-2.5,11.4-4.5,17.3-6.1-1.3-1.3-2.7-2.6-4-3.9-12.1-12.4-21.5-26.9-28.2-43h0Z"/>
            <path class="cls-8" d="M-.8,60.9c5.7-3.6,11.6-6.8,17.9-9.5,5.6-2.5,11.4-4.5,17.3-6.1-1.3-1.3-2.7-2.6-4-3.9C18.3,28.9,8.9,14.5,2.2-1.6-1.4-10.5-4.1-19.7-5.8-29.1-7.6-19.7-10.3-10.5-13.9-1.6c-4.9,12-11.5,23.1-19.5,33.2,2.7,3.4,5.6,6.7,8.7,9.9,7.3,7.5,15.3,14,23.9,19.5h0Z"/>
            <path class="cls-8" d="M346.1,148.9c1.7-8.7,4.3-17.2,7.7-25.5,4.9-12,11.5-23.1,19.5-33.2-2.7-3.4-5.6-6.7-8.7-9.8-7.3-7.5-15.3-14-23.9-19.5-5.7,3.6-11.6,6.8-17.9,9.5-5.6,2.5-11.4,4.5-17.3,6.1,1.4,1.3,2.7,2.6,4,3.9,12.1,12.4,21.5,26.9,28.2,43,3.4,8.3,6,16.8,7.7,25.5-1.7,8.7-4.3,17.2-7.7,25.5-6.6,16.1-16.1,30.6-28.2,43-1.3,1.3-2.6,2.6-4,3.9,5.9,1.6,11.6,3.6,17.3,6.1,6.2,2.7,12.2,5.9,17.9,9.5,8.6-5.5,16.7-12,23.9-19.5,3.1-3.1,6-6.4,8.7-9.9-8-10-14.5-21.1-19.5-33.2-3.4-8.3-6-16.8-7.7-25.5h0Z"/>
            <path class="cls-8" d="M340.7,60.9c8.6-5.5,16.7-12,23.9-19.5,3.1-3.2,6-6.4,8.7-9.9-8-10-14.5-21.1-19.5-33.2-3.7-8.9-6.4-18.1-8.1-27.5-1.7,9.4-4.4,18.6-8.1,27.5-6.6,16.1-16.1,30.6-28.2,43-1.3,1.3-2.6,2.6-4,3.9,5.9,1.6,11.6,3.7,17.3,6.1,6.2,2.7,12.2,5.9,17.9,9.5h0Z"/>
            <path class="cls-8" d="M273.4,174.3c-3.4-8.3-6-16.8-7.7-25.5,1.7-8.7,4.3-17.2,7.7-25.5,6.6-16.1,16.1-30.6,28.2-43,1.3-1.3,2.6-2.6,4-3.9-5.9-1.6-11.6-3.7-17.3-6.1-6.2-2.7-12.2-5.9-17.9-9.5-8.6,5.5-16.7,12-23.9,19.5-3.1,3.2-6,6.4-8.7,9.8,8,10,14.5,21.1,19.5,33.2,3.4,8.3,6,16.8,7.7,25.5-1.7,8.7-4.3,17.2-7.7,25.5-4.9,12-11.5,23.1-19.5,33.2,2.7,3.4,5.6,6.7,8.7,9.9,7.3,7.5,15.3,14,23.9,19.5,5.7-3.6,11.6-6.8,17.9-9.5,5.6-2.5,11.4-4.5,17.3-6.1-1.4-1.3-2.7-2.6-4-3.9-12.1-12.4-21.5-26.9-28.2-43h0Z"/>
            <path class="cls-8" d="M210.6,148.9c1.7-8.7,4.3-17.2,7.7-25.5,4.9-12,11.5-23.1,19.5-33.2-2.7-3.4-5.6-6.7-8.7-9.8-7.3-7.5-15.3-14-23.9-19.5-5.7,3.6-11.6,6.8-17.9,9.5-5.6,2.5-11.4,4.5-17.3,6.1,1.4,1.3,2.7,2.6,4,3.9,12.1,12.4,21.6,26.9,28.2,43,3.4,8.3,6,16.8,7.7,25.5-1.7,8.7-4.3,17.2-7.7,25.5-6.6,16.1-16.1,30.6-28.2,43-1.3,1.3-2.6,2.6-4,3.9,5.9,1.6,11.6,3.6,17.3,6.1,6.2,2.7,12.2,5.9,17.9,9.5,8.6-5.5,16.7-12,23.9-19.5,3.1-3.1,6-6.4,8.7-9.9-8-10-14.5-21.1-19.5-33.2-3.4-8.3-6-16.8-7.7-25.5h0Z"/>
            <path class="cls-8" d="M270.4,60.9c5.7-3.6,11.6-6.8,17.9-9.5,5.6-2.5,11.4-4.5,17.3-6.1-1.4-1.3-2.7-2.6-4-3.9-12.1-12.4-21.5-26.9-28.2-43-3.7-8.9-6.4-18.1-8.1-27.5-1.7,9.4-4.4,18.6-8.1,27.5-4.9,12-11.5,23.1-19.5,33.2,2.7,3.4,5.6,6.7,8.7,9.8,7.3,7.5,15.3,14,23.9,19.5h0Z"/>
            <path class="cls-8" d="M205.1,60.9c8.6-5.5,16.7-12,23.9-19.5,3.1-3.2,6-6.4,8.7-9.9-8-10-14.5-21.1-19.5-33.2-3.7-8.9-6.4-18.1-8.1-27.5-1.7,9.4-4.4,18.6-8.1,27.5-6.6,16.1-16.1,30.6-28.2,43-1.3,1.3-2.6,2.6-4,3.9,5.9,1.6,11.6,3.7,17.3,6.1,6.2,2.7,12.2,5.9,17.9,9.5h0Z"/>
            <path class="cls-8" d="M137.8,174.3c-3.4-8.3-6-16.8-7.7-25.5,1.7-8.7,4.3-17.2,7.7-25.5,6.6-16.1,16.1-30.6,28.2-43,1.3-1.3,2.6-2.6,4-3.9-5.9-1.6-11.6-3.7-17.3-6.1-6.2-2.7-12.2-5.9-17.9-9.5-8.7,5.5-16.7,12-23.9,19.5-3.1,3.2-6,6.4-8.7,9.8,8,10,14.5,21.1,19.5,33.2,3.4,8.3,6,16.8,7.7,25.5-1.7,8.7-4.3,17.2-7.7,25.5-4.9,12-11.5,23.1-19.5,33.2,2.7,3.4,5.6,6.7,8.7,9.9,7.3,7.5,15.3,14,23.9,19.5,5.7-3.6,11.6-6.8,17.9-9.5,5.6-2.5,11.4-4.5,17.3-6.1-1.4-1.3-2.7-2.6-4-3.9-12.1-12.4-21.6-26.9-28.2-43h0Z"/>
            <path class="cls-8" d="M75,148.9c1.7-8.7,4.3-17.2,7.7-25.5,4.9-12,11.5-23.1,19.5-33.2-2.7-3.4-5.6-6.7-8.7-9.8-7.3-7.5-15.3-14-23.9-19.5-5.7,3.6-11.6,6.8-17.9,9.5-5.7,2.5-11.4,4.5-17.3,6.1,1.3,1.3,2.7,2.6,4,3.9,12.1,12.4,21.5,26.9,28.2,43,3.4,8.3,6,16.8,7.7,25.5-1.7,8.7-4.3,17.2-7.7,25.5-6.6,16.1-16.1,30.6-28.2,43-1.3,1.3-2.6,2.6-4,3.9,5.9,1.6,11.7,3.6,17.3,6.1,6.2,2.7,12.2,5.9,17.9,9.5,8.7-5.5,16.7-12,23.9-19.5,3.1-3.1,6-6.4,8.7-9.9-8-10-14.5-21.1-19.5-33.2-3.4-8.3-6-16.8-7.7-25.5h0Z"/>
            <path class="cls-8" d="M134.8,60.9c5.7-3.6,11.6-6.8,17.9-9.5,5.6-2.5,11.4-4.5,17.3-6.1-1.4-1.3-2.7-2.6-4-3.9-12.1-12.4-21.6-26.9-28.2-43-3.7-8.9-6.4-18.1-8.1-27.5-1.7,9.4-4.4,18.6-8.1,27.5-4.9,12-11.5,23.1-19.5,33.2,2.7,3.4,5.6,6.7,8.7,9.8,7.3,7.5,15.3,14,23.9,19.5h0Z"/>
            <path class="cls-8" d="M69.5,60.9c8.7-5.5,16.7-12,23.9-19.5,3.1-3.2,6-6.4,8.7-9.9-8-10-14.5-21.1-19.5-33.2-3.7-8.9-6.4-18.1-8.1-27.5-1.7,9.4-4.4,18.6-8.1,27.5-6.6,16.1-16.1,30.6-28.2,43-1.3,1.3-2.6,2.6-4,3.9,5.9,1.6,11.7,3.7,17.3,6.1,6.2,2.7,12.2,5.9,17.9,9.5h0Z"/>
            <path class="cls-8" d="M2.2,174.3c-3.4-8.3-6-16.8-7.7-25.5,1.7-8.7,4.3-17.2,7.7-25.5,6.6-16.1,16.1-30.6,28.2-43,1.3-1.3,2.6-2.6,4-3.9-5.9-1.6-11.6-3.7-17.3-6.1-6.2-2.7-12.2-5.9-17.9-9.5-8.6,5.5-16.7,12-23.9,19.5-3.1,3.2-6,6.4-8.7,9.8,8,10,14.5,21.1,19.5,33.2,3.4,8.3,6,16.8,7.7,25.5-1.7,8.7-4.3,17.2-7.7,25.5-4.9,12-11.5,23.1-19.5,33.2,2.7,3.4,5.6,6.7,8.7,9.9,7.3,7.5,15.3,14,23.9,19.5,5.7-3.6,11.6-6.8,17.9-9.5,5.6-2.5,11.4-4.5,17.3-6.1-1.3-1.3-2.7-2.6-4-3.9-12.1-12.4-21.5-26.9-28.2-43h0Z"/>
            <path class="cls-8" d="M-.8,60.9c5.7-3.6,11.6-6.8,17.9-9.5,5.6-2.5,11.4-4.5,17.3-6.1-1.3-1.3-2.7-2.6-4-3.9C18.3,28.9,8.9,14.5,2.2-1.6-1.4-10.5-4.1-19.7-5.8-29.1-7.6-19.7-10.3-10.5-13.9-1.6c-4.9,12-11.5,23.1-19.5,33.2,2.7,3.4,5.6,6.7,8.7,9.9,7.3,7.5,15.3,14,23.9,19.5h0Z"/>
            <path class="cls-8" d="M346.1,148.9c1.7-8.7,4.3-17.2,7.7-25.5,4.9-12,11.5-23.1,19.5-33.2-2.7-3.4-5.6-6.7-8.7-9.8-7.3-7.5-15.3-14-23.9-19.5-5.7,3.6-11.6,6.8-17.9,9.5-5.6,2.5-11.4,4.5-17.3,6.1,1.4,1.3,2.7,2.6,4,3.9,12.1,12.4,21.5,26.9,28.2,43,3.4,8.3,6,16.8,7.7,25.5-1.7,8.7-4.3,17.2-7.7,25.5-6.6,16.1-16.1,30.6-28.2,43-1.3,1.3-2.6,2.6-4,3.9,5.9,1.6,11.6,3.6,17.3,6.1,6.2,2.7,12.2,5.9,17.9,9.5,8.6-5.5,16.7-12,23.9-19.5,3.1-3.1,6-6.4,8.7-9.9-8-10-14.5-21.1-19.5-33.2-3.4-8.3-6-16.8-7.7-25.5h0Z"/>
            <path class="cls-8" d="M340.7,60.9c8.6-5.5,16.7-12,23.9-19.5,3.1-3.2,6-6.4,8.7-9.9-8-10-14.5-21.1-19.5-33.2-3.7-8.9-6.4-18.1-8.1-27.5-1.7,9.4-4.4,18.6-8.1,27.5-6.6,16.1-16.1,30.6-28.2,43-1.3,1.3-2.6,2.6-4,3.9,5.9,1.6,11.6,3.7,17.3,6.1,6.2,2.7,12.2,5.9,17.9,9.5h0Z"/>
            <path class="cls-8" d="M273.4,174.3c-3.4-8.3-6-16.8-7.7-25.5,1.7-8.7,4.3-17.2,7.7-25.5,6.6-16.1,16.1-30.6,28.2-43,1.3-1.3,2.6-2.6,4-3.9-5.9-1.6-11.6-3.7-17.3-6.1-6.2-2.7-12.2-5.9-17.9-9.5-8.6,5.5-16.7,12-23.9,19.5-3.1,3.2-6,6.4-8.7,9.8,8,10,14.5,21.1,19.5,33.2,3.4,8.3,6,16.8,7.7,25.5-1.7,8.7-4.3,17.2-7.7,25.5-4.9,12-11.5,23.1-19.5,33.2,2.7,3.4,5.6,6.7,8.7,9.9,7.3,7.5,15.3,14,23.9,19.5,5.7-3.6,11.6-6.8,17.9-9.5,5.6-2.5,11.4-4.5,17.3-6.1-1.4-1.3-2.7-2.6-4-3.9-12.1-12.4-21.5-26.9-28.2-43h0Z"/>
            <path class="cls-8" d="M210.6,148.9c1.7-8.7,4.3-17.2,7.7-25.5,4.9-12,11.5-23.1,19.5-33.2-2.7-3.4-5.6-6.7-8.7-9.8-7.3-7.5-15.3-14-23.9-19.5-5.7,3.6-11.6,6.8-17.9,9.5-5.6,2.5-11.4,4.5-17.3,6.1,1.4,1.3,2.7,2.6,4,3.9,12.1,12.4,21.6,26.9,28.2,43,3.4,8.3,6,16.8,7.7,25.5-1.7,8.7-4.3,17.2-7.7,25.5-6.6,16.1-16.1,30.6-28.2,43-1.3,1.3-2.6,2.6-4,3.9,5.9,1.6,11.6,3.6,17.3,6.1,6.2,2.7,12.2,5.9,17.9,9.5,8.6-5.5,16.7-12,23.9-19.5,3.1-3.1,6-6.4,8.7-9.9-8-10-14.5-21.1-19.5-33.2-3.4-8.3-6-16.8-7.7-25.5h0Z"/>
            <path class="cls-8" d="M270.4,60.9c5.7-3.6,11.6-6.8,17.9-9.5,5.6-2.5,11.4-4.5,17.3-6.1-1.4-1.3-2.7-2.6-4-3.9-12.1-12.4-21.5-26.9-28.2-43-3.7-8.9-6.4-18.1-8.1-27.5-1.7,9.4-4.4,18.6-8.1,27.5-4.9,12-11.5,23.1-19.5,33.2,2.7,3.4,5.6,6.7,8.7,9.8,7.3,7.5,15.3,14,23.9,19.5h0Z"/>
            <path class="cls-8" d="M205.1,60.9c8.6-5.5,16.7-12,23.9-19.5,3.1-3.2,6-6.4,8.7-9.9-8-10-14.5-21.1-19.5-33.2-3.7-8.9-6.4-18.1-8.1-27.5-1.7,9.4-4.4,18.6-8.1,27.5-6.6,16.1-16.1,30.6-28.2,43-1.3,1.3-2.6,2.6-4,3.9,5.9,1.6,11.6,3.7,17.3,6.1,6.2,2.7,12.2,5.9,17.9,9.5h0Z"/>
            <path class="cls-8" d="M137.8,174.3c-3.4-8.3-6-16.8-7.7-25.5,1.7-8.7,4.3-17.2,7.7-25.5,6.6-16.1,16.1-30.6,28.2-43,1.3-1.3,2.6-2.6,4-3.9-5.9-1.6-11.6-3.7-17.3-6.1-6.2-2.7-12.2-5.9-17.9-9.5-8.7,5.5-16.7,12-23.9,19.5-3.1,3.2-6,6.4-8.7,9.8,8,10,14.5,21.1,19.5,33.2,3.4,8.3,6,16.8,7.7,25.5-1.7,8.7-4.3,17.2-7.7,25.5-4.9,12-11.5,23.1-19.5,33.2,2.7,3.4,5.6,6.7,8.7,9.9,7.3,7.5,15.3,14,23.9,19.5,5.7-3.6,11.6-6.8,17.9-9.5,5.6-2.5,11.4-4.5,17.3-6.1-1.4-1.3-2.7-2.6-4-3.9-12.1-12.4-21.6-26.9-28.2-43h0Z"/>
            <path class="cls-8" d="M75,148.9c1.7-8.7,4.3-17.2,7.7-25.5,4.9-12,11.5-23.1,19.5-33.2-2.7-3.4-5.6-6.7-8.7-9.8-7.3-7.5-15.3-14-23.9-19.5-5.7,3.6-11.6,6.8-17.9,9.5-5.7,2.5-11.4,4.5-17.3,6.1,1.3,1.3,2.7,2.6,4,3.9,12.1,12.4,21.5,26.9,28.2,43,3.4,8.3,6,16.8,7.7,25.5-1.7,8.7-4.3,17.2-7.7,25.5-6.6,16.1-16.1,30.6-28.2,43-1.3,1.3-2.6,2.6-4,3.9,5.9,1.6,11.7,3.6,17.3,6.1,6.2,2.7,12.2,5.9,17.9,9.5,8.7-5.5,16.7-12,23.9-19.5,3.1-3.1,6-6.4,8.7-9.9-8-10-14.5-21.1-19.5-33.2-3.4-8.3-6-16.8-7.7-25.5h0Z"/>
            <path class="cls-8" d="M134.8,60.9c5.7-3.6,11.6-6.8,17.9-9.5,5.6-2.5,11.4-4.5,17.3-6.1-1.4-1.3-2.7-2.6-4-3.9-12.1-12.4-21.6-26.9-28.2-43-3.7-8.9-6.4-18.1-8.1-27.5-1.7,9.4-4.4,18.6-8.1,27.5-4.9,12-11.5,23.1-19.5,33.2,2.7,3.4,5.6,6.7,8.7,9.8,7.3,7.5,15.3,14,23.9,19.5h0Z"/>
            <path class="cls-8" d="M69.5,60.9c8.7-5.5,16.7-12,23.9-19.5,3.1-3.2,6-6.4,8.7-9.9-8-10-14.5-21.1-19.5-33.2-3.7-8.9-6.4-18.1-8.1-27.5-1.7,9.4-4.4,18.6-8.1,27.5-6.6,16.1-16.1,30.6-28.2,43-1.3,1.3-2.6,2.6-4,3.9,5.9,1.6,11.7,3.7,17.3,6.1,6.2,2.7,12.2,5.9,17.9,9.5h0Z"/>
            <path class="cls-8" d="M2.2,174.3c-3.4-8.3-6-16.8-7.7-25.5,1.7-8.7,4.3-17.2,7.7-25.5,6.6-16.1,16.1-30.6,28.2-43,1.3-1.3,2.6-2.6,4-3.9-5.9-1.6-11.6-3.7-17.3-6.1-6.2-2.7-12.2-5.9-17.9-9.5-8.6,5.5-16.7,12-23.9,19.5-3.1,3.2-6,6.4-8.7,9.8,8,10,14.5,21.1,19.5,33.2,3.4,8.3,6,16.8,7.7,25.5-1.7,8.7-4.3,17.2-7.7,25.5-4.9,12-11.5,23.1-19.5,33.2,2.7,3.4,5.6,6.7,8.7,9.9,7.3,7.5,15.3,14,23.9,19.5,5.7-3.6,11.6-6.8,17.9-9.5,5.6-2.5,11.4-4.5,17.3-6.1-1.3-1.3-2.7-2.6-4-3.9-12.1-12.4-21.5-26.9-28.2-43h0Z"/>
            <path class="cls-8" d="M-.8,60.9c5.7-3.6,11.6-6.8,17.9-9.5,5.6-2.5,11.4-4.5,17.3-6.1-1.3-1.3-2.7-2.6-4-3.9C18.3,28.9,8.9,14.5,2.2-1.6-1.4-10.5-4.1-19.7-5.8-29.1-7.6-19.7-10.3-10.5-13.9-1.6c-4.9,12-11.5,23.1-19.5,33.2,2.7,3.4,5.6,6.7,8.7,9.9,7.3,7.5,15.3,14,23.9,19.5h0Z"/>
            <path class="cls-8" d="M346.1,148.9c1.7-8.7,4.3-17.2,7.7-25.5,4.9-12,11.5-23.1,19.5-33.2-2.7-3.4-5.6-6.7-8.7-9.8-7.3-7.5-15.3-14-23.9-19.5-5.7,3.6-11.6,6.8-17.9,9.5-5.6,2.5-11.4,4.5-17.3,6.1,1.4,1.3,2.7,2.6,4,3.9,12.1,12.4,21.5,26.9,28.2,43,3.4,8.3,6,16.8,7.7,25.5-1.7,8.7-4.3,17.2-7.7,25.5-6.6,16.1-16.1,30.6-28.2,43-1.3,1.3-2.6,2.6-4,3.9,5.9,1.6,11.6,3.6,17.3,6.1,6.2,2.7,12.2,5.9,17.9,9.5,8.6-5.5,16.7-12,23.9-19.5,3.1-3.1,6-6.4,8.7-9.9-8-10-14.5-21.1-19.5-33.2-3.4-8.3-6-16.8-7.7-25.5h0Z"/>
            <path class="cls-8" d="M340.7,60.9c8.6-5.5,16.7-12,23.9-19.5,3.1-3.2,6-6.4,8.7-9.9-8-10-14.5-21.1-19.5-33.2-3.7-8.9-6.4-18.1-8.1-27.5-1.7,9.4-4.4,18.6-8.1,27.5-6.6,16.1-16.1,30.6-28.2,43-1.3,1.3-2.6,2.6-4,3.9,5.9,1.6,11.6,3.7,17.3,6.1,6.2,2.7,12.2,5.9,17.9,9.5h0Z"/>
            <path class="cls-8" d="M273.4,174.3c-3.4-8.3-6-16.8-7.7-25.5,1.7-8.7,4.3-17.2,7.7-25.5,6.6-16.1,16.1-30.6,28.2-43,1.3-1.3,2.6-2.6,4-3.9-5.9-1.6-11.6-3.7-17.3-6.1-6.2-2.7-12.2-5.9-17.9-9.5-8.6,5.5-16.7,12-23.9,19.5-3.1,3.2-6,6.4-8.7,9.8,8,10,14.5,21.1,19.5,33.2,3.4,8.3,6,16.8,7.7,25.5-1.7,8.7-4.3,17.2-7.7,25.5-4.9,12-11.5,23.1-19.5,33.2,2.7,3.4,5.6,6.7,8.7,9.9,7.3,7.5,15.3,14,23.9,19.5,5.7-3.6,11.6-6.8,17.9-9.5,5.6-2.5,11.4-4.5,17.3-6.1-1.4-1.3-2.7-2.6-4-3.9-12.1-12.4-21.5-26.9-28.2-43h0Z"/>
            <path class="cls-8" d="M210.6,148.9c1.7-8.7,4.3-17.2,7.7-25.5,4.9-12,11.5-23.1,19.5-33.2-2.7-3.4-5.6-6.7-8.7-9.8-7.3-7.5-15.3-14-23.9-19.5-5.7,3.6-11.6,6.8-17.9,9.5-5.6,2.5-11.4,4.5-17.3,6.1,1.4,1.3,2.7,2.6,4,3.9,12.1,12.4,21.6,26.9,28.2,43,3.4,8.3,6,16.8,7.7,25.5-1.7,8.7-4.3,17.2-7.7,25.5-6.6,16.1-16.1,30.6-28.2,43-1.3,1.3-2.6,2.6-4,3.9,5.9,1.6,11.6,3.6,17.3,6.1,6.2,2.7,12.2,5.9,17.9,9.5,8.6-5.5,16.7-12,23.9-19.5,3.1-3.1,6-6.4,8.7-9.9-8-10-14.5-21.1-19.5-33.2-3.4-8.3-6-16.8-7.7-25.5h0Z"/>
            <path class="cls-8" d="M270.4,60.9c5.7-3.6,11.6-6.8,17.9-9.5,5.6-2.5,11.4-4.5,17.3-6.1-1.4-1.3-2.7-2.6-4-3.9-12.1-12.4-21.5-26.9-28.2-43-3.7-8.9-6.4-18.1-8.1-27.5-1.7,9.4-4.4,18.6-8.1,27.5-4.9,12-11.5,23.1-19.5,33.2,2.7,3.4,5.6,6.7,8.7,9.8,7.3,7.5,15.3,14,23.9,19.5h0Z"/>
            <path class="cls-8" d="M205.1,60.9c8.6-5.5,16.7-12,23.9-19.5,3.1-3.2,6-6.4,8.7-9.9-8-10-14.5-21.1-19.5-33.2-3.7-8.9-6.4-18.1-8.1-27.5-1.7,9.4-4.4,18.6-8.1,27.5-6.6,16.1-16.1,30.6-28.2,43-1.3,1.3-2.6,2.6-4,3.9,5.9,1.6,11.6,3.7,17.3,6.1,6.2,2.7,12.2,5.9,17.9,9.5h0Z"/>
            <path class="cls-8" d="M202.1,174.3c3.4-8.3,6-16.8,7.7-25.5-1.7-8.7-4.3-17.2-7.7-25.5-6.6-16.1-16.1-30.6-28.2-43-1.3-1.3-2.6-2.6-4-3.9,5.9-1.6,11.6-3.7,17.3-6.1,6.2-2.7,12.2-5.9,17.9-9.5,8.6,5.5,16.7,12,23.9,19.5,3.1,3.2,6,6.4,8.7,9.8-8,10-14.5,21.1-19.5,33.2-3.4,8.3-6,16.8-7.7,25.5,1.7,8.7,4.3,17.2,7.7,25.5,4.9,12,11.5,23.1,19.5,33.2-2.7,3.4-5.6,6.7-8.7,9.9-7.3,7.5-15.3,14-23.9,19.5-5.7-3.6-11.6-6.8-17.9-9.5-5.6-2.5-11.4-4.5-17.3-6.1,1.4-1.3,2.7-2.6,4-3.9,12.1-12.4,21.6-26.9,28.2-43h0Z"/>
            <path class="cls-8" d="M264.9,148.9c-1.7-8.7-4.3-17.2-7.7-25.5-4.9-12-11.5-23.1-19.5-33.2,2.7-3.4,5.6-6.7,8.7-9.8,7.3-7.5,15.3-14,23.9-19.5,5.7,3.6,11.6,6.8,17.9,9.5,5.6,2.5,11.4,4.5,17.3,6.1-1.4,1.3-2.7,2.6-4,3.9-12.1,12.4-21.5,26.9-28.2,43-3.4,8.3-6,16.8-7.7,25.5,1.7,8.7,4.3,17.2,7.7,25.5,6.6,16.1,16.1,30.6,28.2,43,1.3,1.3,2.6,2.6,4,3.9-5.9,1.6-11.6,3.6-17.3,6.1-6.2,2.7-12.2,5.9-17.9,9.5-8.6-5.5-16.7-12-23.9-19.5-3.1-3.1-6-6.4-8.7-9.9,8-10,14.5-21.1,19.5-33.2,3.4-8.3,6-16.8,7.7-25.5h0Z"/>
            <path class="cls-8" d="M205.1,60.9c-5.7-3.6-11.6-6.8-17.9-9.5-5.6-2.5-11.4-4.5-17.3-6.1,1.4-1.3,2.7-2.6,4-3.9,12.1-12.4,21.6-26.9,28.2-43,3.7-8.9,6.4-18.1,8.1-27.5,1.7,9.4,4.4,18.6,8.1,27.5,4.9,12,11.5,23.1,19.5,33.2-2.7,3.4-5.6,6.7-8.7,9.8-7.3,7.5-15.3,14-23.9,19.5h0Z"/>
            <path class="cls-8" d="M270.4,60.9c-8.6-5.5-16.7-12-23.9-19.5-3.1-3.2-6-6.4-8.7-9.9,8-10,14.5-21.1,19.5-33.2,3.7-8.9,6.4-18.1,8.1-27.5,1.7,9.4,4.4,18.6,8.1,27.5,6.6,16.1,16.1,30.6,28.2,43,1.3,1.3,2.6,2.6,4,3.9-5.9,1.6-11.6,3.7-17.3,6.1-6.2,2.7-12.2,5.9-17.9,9.5h0Z"/>
            <path class="cls-8" d="M337.7,174.3c3.4-8.3,6-16.8,7.7-25.5-1.7-8.7-4.3-17.2-7.7-25.5-6.6-16.1-16.1-30.6-28.2-43-1.3-1.3-2.6-2.6-4-3.9,5.9-1.6,11.6-3.7,17.3-6.1,6.2-2.7,12.2-5.9,17.9-9.5,8.6,5.5,16.7,12,23.9,19.5,3.1,3.2,6,6.4,8.7,9.8-8,10-14.5,21.1-19.5,33.2-3.4,8.3-6,16.8-7.7,25.5,1.7,8.7,4.3,17.2,7.7,25.5,4.9,12,11.5,23.1,19.5,33.2-2.7,3.4-5.6,6.7-8.7,9.9-7.3,7.5-15.3,14-23.9,19.5-5.7-3.6-11.6-6.8-17.9-9.5-5.6-2.5-11.4-4.5-17.3-6.1,1.4-1.3,2.7-2.6,4-3.9,12.1-12.4,21.5-26.9,28.2-43h0Z"/>
            <path class="cls-8" d="M340.7,60.9c-5.7-3.6-11.6-6.8-17.9-9.5-5.6-2.5-11.4-4.5-17.3-6.1,1.4-1.3,2.7-2.6,4-3.9,12.1-12.4,21.5-26.9,28.2-43,3.7-8.9,6.4-18.1,8.1-27.5,1.7,9.4,4.4,18.6,8.1,27.5,4.9,12,11.5,23.1,19.5,33.2-2.7,3.4-5.6,6.7-8.7,9.8-7.3,7.5-15.3,14-23.9,19.5h0Z"/>
            <path class="cls-8" d="M-6.2,148.9c-1.7-8.7-4.3-17.2-7.7-25.5-4.9-12-11.5-23.1-19.5-33.2,2.7-3.4,5.6-6.7,8.7-9.8,7.3-7.5,15.3-14,23.9-19.5,5.7,3.6,11.6,6.8,17.9,9.5,5.6,2.5,11.4,4.5,17.3,6.1-1.3,1.3-2.7,2.6-4,3.9-12.1,12.4-21.5,26.9-28.2,43-3.4,8.3-6,16.8-7.7,25.5,1.7,8.7,4.3,17.2,7.7,25.5,6.6,16.1,16.1,30.6,28.2,43,1.3,1.3,2.6,2.6,4,3.9-5.9,1.6-11.6,3.6-17.3,6.1-6.2,2.7-12.2,5.9-17.9,9.5-8.6-5.5-16.7-12-23.9-19.5-3.1-3.1-6-6.4-8.7-9.9,8-10,14.5-21.1,19.5-33.2,3.4-8.3,6-16.8,7.7-25.5h0Z"/>
            <path class="cls-8" d="M-.8,60.9c-8.6-5.5-16.7-12-23.9-19.5-3.1-3.2-6-6.4-8.7-9.9C-25.4,21.5-18.9,10.4-13.9-1.6c3.7-8.9,6.4-18.1,8.1-27.5C-4.1-19.7-1.4-10.5,2.2-1.6c6.6,16.1,16.1,30.6,28.2,43,1.3,1.3,2.6,2.6,4,3.9-5.9,1.6-11.6,3.7-17.3,6.1-6.2,2.7-12.2,5.9-17.9,9.5Z"/>
            <path class="cls-8" d="M66.5,174.3c3.4-8.3,6-16.8,7.7-25.5-1.7-8.7-4.3-17.2-7.7-25.5-6.6-16.1-16.1-30.6-28.2-43-1.3-1.3-2.6-2.6-4-3.9,5.9-1.6,11.6-3.7,17.3-6.1,6.2-2.7,12.2-5.9,17.9-9.5,8.7,5.5,16.7,12,23.9,19.5,3.1,3.2,6,6.4,8.7,9.8-8,10-14.5,21.1-19.5,33.2-3.4,8.3-6,16.8-7.7,25.5,1.7,8.7,4.3,17.2,7.7,25.5,4.9,12,11.5,23.1,19.5,33.2-2.7,3.4-5.6,6.7-8.7,9.9-7.3,7.5-15.3,14-23.9,19.5-5.7-3.6-11.6-6.8-17.9-9.5-5.7-2.5-11.4-4.5-17.3-6.1,1.3-1.3,2.7-2.6,4-3.9,12.1-12.4,21.5-26.9,28.2-43h0Z"/>
            <path class="cls-8" d="M129.3,148.9c-1.7-8.7-4.3-17.2-7.7-25.5-4.9-12-11.5-23.1-19.5-33.2,2.7-3.4,5.6-6.7,8.7-9.8,7.3-7.5,15.3-14,23.9-19.5,5.7,3.6,11.6,6.8,17.9,9.5,5.6,2.5,11.4,4.5,17.3,6.1-1.4,1.3-2.7,2.6-4,3.9-12.1,12.4-21.6,26.9-28.2,43-3.4,8.3-6,16.8-7.7,25.5,1.7,8.7,4.3,17.2,7.7,25.5,6.6,16.1,16.1,30.6,28.2,43,1.3,1.3,2.6,2.6,4,3.9-5.9,1.6-11.6,3.6-17.3,6.1-6.2,2.7-12.2,5.9-17.9,9.5-8.7-5.5-16.7-12-23.9-19.5-3.1-3.1-6-6.4-8.7-9.9,8-10,14.5-21.1,19.5-33.2,3.4-8.3,6-16.8,7.7-25.5h0Z"/>
            <path class="cls-8" d="M69.5,60.9c-5.7-3.6-11.6-6.8-17.9-9.5-5.7-2.5-11.4-4.5-17.3-6.1,1.3-1.3,2.7-2.6,4-3.9,12.1-12.4,21.5-26.9,28.2-43,3.7-8.9,6.3-18.1,8.1-27.5,1.7,9.4,4.4,18.6,8.1,27.5,4.9,12,11.5,23.1,19.5,33.2-2.7,3.4-5.6,6.7-8.7,9.8-7.3,7.5-15.3,14-23.9,19.5h0Z"/>
            <path class="cls-8" d="M134.8,60.9c-8.7-5.5-16.7-12-23.9-19.5-3.1-3.2-6-6.4-8.7-9.9,8-10,14.5-21.1,19.5-33.2,3.7-8.9,6.4-18.1,8.1-27.5,1.7,9.4,4.4,18.6,8.1,27.5,6.6,16.1,16.1,30.6,28.2,43,1.3,1.3,2.6,2.6,4,3.9-5.9,1.6-11.6,3.7-17.3,6.1-6.2,2.7-12.2,5.9-17.9,9.5h0Z"/>
            <path class="cls-8" d="M202.1,174.3c3.4-8.3,6-16.8,7.7-25.5-1.7-8.7-4.3-17.2-7.7-25.5-6.6-16.1-16.1-30.6-28.2-43-1.3-1.3-2.6-2.6-4-3.9,5.9-1.6,11.6-3.7,17.3-6.1,6.2-2.7,12.2-5.9,17.9-9.5,8.6,5.5,16.7,12,23.9,19.5,3.1,3.2,6,6.4,8.7,9.8-8,10-14.5,21.1-19.5,33.2-3.4,8.3-6,16.8-7.7,25.5,1.7,8.7,4.3,17.2,7.7,25.5,4.9,12,11.5,23.1,19.5,33.2-2.7,3.4-5.6,6.7-8.7,9.9-7.3,7.5-15.3,14-23.9,19.5-5.7-3.6-11.6-6.8-17.9-9.5-5.6-2.5-11.4-4.5-17.3-6.1,1.4-1.3,2.7-2.6,4-3.9,12.1-12.4,21.6-26.9,28.2-43h0Z"/>
            <path class="cls-8" d="M264.9,148.9c-1.7-8.7-4.3-17.2-7.7-25.5-4.9-12-11.5-23.1-19.5-33.2,2.7-3.4,5.6-6.7,8.7-9.8,7.3-7.5,15.3-14,23.9-19.5,5.7,3.6,11.6,6.8,17.9,9.5,5.6,2.5,11.4,4.5,17.3,6.1-1.4,1.3-2.7,2.6-4,3.9-12.1,12.4-21.5,26.9-28.2,43-3.4,8.3-6,16.8-7.7,25.5,1.7,8.7,4.3,17.2,7.7,25.5,6.6,16.1,16.1,30.6,28.2,43,1.3,1.3,2.6,2.6,4,3.9-5.9,1.6-11.6,3.6-17.3,6.1-6.2,2.7-12.2,5.9-17.9,9.5-8.6-5.5-16.7-12-23.9-19.5-3.1-3.1-6-6.4-8.7-9.9,8-10,14.5-21.1,19.5-33.2,3.4-8.3,6-16.8,7.7-25.5h0Z"/>
            <path class="cls-8" d="M205.1,60.9c-5.7-3.6-11.6-6.8-17.9-9.5-5.6-2.5-11.4-4.5-17.3-6.1,1.4-1.3,2.7-2.6,4-3.9,12.1-12.4,21.6-26.9,28.2-43,3.7-8.9,6.4-18.1,8.1-27.5,1.7,9.4,4.4,18.6,8.1,27.5,4.9,12,11.5,23.1,19.5,33.2-2.7,3.4-5.6,6.7-8.7,9.8-7.3,7.5-15.3,14-23.9,19.5h0Z"/>
            <path class="cls-8" d="M270.4,60.9c-8.6-5.5-16.7-12-23.9-19.5-3.1-3.2-6-6.4-8.7-9.9,8-10,14.5-21.1,19.5-33.2,3.7-8.9,6.4-18.1,8.1-27.5,1.7,9.4,4.4,18.6,8.1,27.5,6.6,16.1,16.1,30.6,28.2,43,1.3,1.3,2.6,2.6,4,3.9-5.9,1.6-11.6,3.7-17.3,6.1-6.2,2.7-12.2,5.9-17.9,9.5h0Z"/>
            <path class="cls-8" d="M337.7,174.3c3.4-8.3,6-16.8,7.7-25.5-1.7-8.7-4.3-17.2-7.7-25.5-6.6-16.1-16.1-30.6-28.2-43-1.3-1.3-2.6-2.6-4-3.9,5.9-1.6,11.6-3.7,17.3-6.1,6.2-2.7,12.2-5.9,17.9-9.5,8.6,5.5,16.7,12,23.9,19.5,3.1,3.2,6,6.4,8.7,9.8-8,10-14.5,21.1-19.5,33.2-3.4,8.3-6,16.8-7.7,25.5,1.7,8.7,4.3,17.2,7.7,25.5,4.9,12,11.5,23.1,19.5,33.2-2.7,3.4-5.6,6.7-8.7,9.9-7.3,7.5-15.3,14-23.9,19.5-5.7-3.6-11.6-6.8-17.9-9.5-5.6-2.5-11.4-4.5-17.3-6.1,1.4-1.3,2.7-2.6,4-3.9,12.1-12.4,21.5-26.9,28.2-43h0Z"/>
            <path class="cls-8" d="M340.7,60.9c-5.7-3.6-11.6-6.8-17.9-9.5-5.6-2.5-11.4-4.5-17.3-6.1,1.4-1.3,2.7-2.6,4-3.9,12.1-12.4,21.5-26.9,28.2-43,3.7-8.9,6.4-18.1,8.1-27.5,1.7,9.4,4.4,18.6,8.1,27.5,4.9,12,11.5,23.1,19.5,33.2-2.7,3.4-5.6,6.7-8.7,9.8-7.3,7.5-15.3,14-23.9,19.5h0Z"/>
            <path class="cls-8" d="M-6.2,148.9c-1.7-8.7-4.3-17.2-7.7-25.5-4.9-12-11.5-23.1-19.5-33.2,2.7-3.4,5.6-6.7,8.7-9.8,7.3-7.5,15.3-14,23.9-19.5,5.7,3.6,11.6,6.8,17.9,9.5,5.6,2.5,11.4,4.5,17.3,6.1-1.3,1.3-2.7,2.6-4,3.9-12.1,12.4-21.5,26.9-28.2,43-3.4,8.3-6,16.8-7.7,25.5,1.7,8.7,4.3,17.2,7.7,25.5,6.6,16.1,16.1,30.6,28.2,43,1.3,1.3,2.6,2.6,4,3.9-5.9,1.6-11.6,3.6-17.3,6.1-6.2,2.7-12.2,5.9-17.9,9.5-8.6-5.5-16.7-12-23.9-19.5-3.1-3.1-6-6.4-8.7-9.9,8-10,14.5-21.1,19.5-33.2,3.4-8.3,6-16.8,7.7-25.5h0Z"/>
            <path class="cls-8" d="M-.8,60.9c-8.6-5.5-16.7-12-23.9-19.5-3.1-3.2-6-6.4-8.7-9.9C-25.4,21.5-18.9,10.4-13.9-1.6c3.7-8.9,6.4-18.1,8.1-27.5C-4.1-19.7-1.4-10.5,2.2-1.6c6.6,16.1,16.1,30.6,28.2,43,1.3,1.3,2.6,2.6,4,3.9-5.9,1.6-11.6,3.7-17.3,6.1-6.2,2.7-12.2,5.9-17.9,9.5Z"/>
            <path class="cls-8" d="M66.5,174.3c3.4-8.3,6-16.8,7.7-25.5-1.7-8.7-4.3-17.2-7.7-25.5-6.6-16.1-16.1-30.6-28.2-43-1.3-1.3-2.6-2.6-4-3.9,5.9-1.6,11.6-3.7,17.3-6.1,6.2-2.7,12.2-5.9,17.9-9.5,8.7,5.5,16.7,12,23.9,19.5,3.1,3.2,6,6.4,8.7,9.8-8,10-14.5,21.1-19.5,33.2-3.4,8.3-6,16.8-7.7,25.5,1.7,8.7,4.3,17.2,7.7,25.5,4.9,12,11.5,23.1,19.5,33.2-2.7,3.4-5.6,6.7-8.7,9.9-7.3,7.5-15.3,14-23.9,19.5-5.7-3.6-11.6-6.8-17.9-9.5-5.7-2.5-11.4-4.5-17.3-6.1,1.3-1.3,2.7-2.6,4-3.9,12.1-12.4,21.5-26.9,28.2-43h0Z"/>
            <path class="cls-8" d="M129.3,148.9c-1.7-8.7-4.3-17.2-7.7-25.5-4.9-12-11.5-23.1-19.5-33.2,2.7-3.4,5.6-6.7,8.7-9.8,7.3-7.5,15.3-14,23.9-19.5,5.7,3.6,11.6,6.8,17.9,9.5,5.6,2.5,11.4,4.5,17.3,6.1-1.4,1.3-2.7,2.6-4,3.9-12.1,12.4-21.6,26.9-28.2,43-3.4,8.3-6,16.8-7.7,25.5,1.7,8.7,4.3,17.2,7.7,25.5,6.6,16.1,16.1,30.6,28.2,43,1.3,1.3,2.6,2.6,4,3.9-5.9,1.6-11.6,3.6-17.3,6.1-6.2,2.7-12.2,5.9-17.9,9.5-8.7-5.5-16.7-12-23.9-19.5-3.1-3.1-6-6.4-8.7-9.9,8-10,14.5-21.1,19.5-33.2,3.4-8.3,6-16.8,7.7-25.5h0Z"/>
            <path class="cls-8" d="M69.5,60.9c-5.7-3.6-11.6-6.8-17.9-9.5-5.7-2.5-11.4-4.5-17.3-6.1,1.3-1.3,2.7-2.6,4-3.9,12.1-12.4,21.5-26.9,28.2-43,3.7-8.9,6.3-18.1,8.1-27.5,1.7,9.4,4.4,18.6,8.1,27.5,4.9,12,11.5,23.1,19.5,33.2-2.7,3.4-5.6,6.7-8.7,9.8-7.3,7.5-15.3,14-23.9,19.5h0Z"/>
            <path class="cls-8" d="M134.8,60.9c-8.7-5.5-16.7-12-23.9-19.5-3.1-3.2-6-6.4-8.7-9.9,8-10,14.5-21.1,19.5-33.2,3.7-8.9,6.4-18.1,8.1-27.5,1.7,9.4,4.4,18.6,8.1,27.5,6.6,16.1,16.1,30.6,28.2,43,1.3,1.3,2.6,2.6,4,3.9-5.9,1.6-11.6,3.7-17.3,6.1-6.2,2.7-12.2,5.9-17.9,9.5h0Z"/>
            <path class="cls-8" d="M137.8,301.8c-3.4,8.6-6,17.4-7.7,26.5,1.7,9,4.3,17.9,7.7,26.5,6.6,16.8,16.1,31.8,28.2,44.7,1.3,1.4,2.6,2.8,4,4.1-5.9,1.7-11.6,3.8-17.3,6.4-6.2,2.8-12.2,6.1-17.9,9.9-8.7-5.7-16.7-12.5-23.9-20.3-3.1-3.3-6-6.7-8.7-10.2,8-10.4,14.5-22,19.5-34.5,3.4-8.6,6-17.4,7.7-26.5-1.7-9-4.3-17.9-7.7-26.5-4.9-12.5-11.5-24-19.5-34.5,2.7-3.5,5.6-7,8.7-10.2,7.3-7.8,15.3-14.6,23.9-20.3,5.7,3.8,11.6,7,17.9,9.9,5.6,2.6,11.4,4.7,17.3,6.4-1.4,1.3-2.7,2.7-4,4.1-12.1,12.9-21.6,27.9-28.2,44.7h0Z"/>
            <path class="cls-8" d="M75,328.3c1.7,9,4.3,17.9,7.7,26.5,4.9,12.5,11.5,24,19.5,34.5-2.7,3.5-5.6,7-8.7,10.2-7.3,7.8-15.3,14.6-23.9,20.3-5.7-3.8-11.6-7-17.9-9.9-5.7-2.6-11.4-4.7-17.3-6.4,1.3-1.3,2.7-2.7,4-4.1,12.1-12.9,21.5-27.9,28.2-44.7,3.4-8.6,6-17.4,7.7-26.5-1.7-9-4.3-17.9-7.7-26.5-6.6-16.8-16.1-31.8-28.2-44.7-1.3-1.4-2.6-2.8-4-4.1,5.9-1.7,11.7-3.8,17.3-6.4,6.2-2.8,12.2-6.1,17.9-9.9,8.7,5.7,16.7,12.5,23.9,20.3,3.1,3.3,6,6.7,8.7,10.2-8,10.4-14.5,22-19.5,34.5-3.4,8.6-6,17.4-7.7,26.5h0Z"/>
            <path class="cls-8" d="M134.8,419.7c5.7,3.8,11.6,7,17.9,9.9,5.6,2.6,11.4,4.7,17.3,6.4-1.4,1.3-2.7,2.7-4,4.1-12.1,12.9-21.6,27.9-28.2,44.7-3.7,9.2-6.4,18.8-8.1,28.5-1.7-9.8-4.4-19.3-8.1-28.5-4.9-12.5-11.5-24-19.5-34.5,2.7-3.5,5.6-7,8.7-10.2,7.3-7.8,15.3-14.6,23.9-20.3h0Z"/>
            <path class="cls-8" d="M69.5,419.7c8.7,5.7,16.7,12.5,23.9,20.3,3.1,3.3,6,6.7,8.7,10.2-8,10.4-14.5,22-19.5,34.5-3.7,9.2-6.4,18.8-8.1,28.6-1.7-9.8-4.4-19.3-8.1-28.6-6.6-16.8-16.1-31.8-28.2-44.7-1.3-1.4-2.6-2.8-4-4.1,5.9-1.7,11.7-3.8,17.3-6.4,6.2-2.8,12.2-6.1,17.9-9.9h0Z"/>
            <path class="cls-8" d="M2.2,301.8c-3.4,8.6-6,17.4-7.7,26.5,1.7,9,4.3,17.9,7.7,26.5,6.6,16.8,16.1,31.8,28.2,44.7,1.3,1.4,2.6,2.8,4,4.1-5.9,1.7-11.6,3.8-17.3,6.4-6.2,2.8-12.2,6.1-17.9,9.9-8.6-5.7-16.7-12.5-23.9-20.3-3.1-3.3-6-6.7-8.7-10.2,8-10.4,14.5-22,19.5-34.5,3.4-8.6,6-17.4,7.7-26.5-1.7-9-4.3-17.9-7.7-26.5-4.9-12.5-11.5-24-19.5-34.5,2.7-3.5,5.6-7,8.7-10.2,7.3-7.8,15.3-14.6,23.9-20.3,5.7,3.8,11.6,7,17.9,9.9,5.6,2.6,11.4,4.7,17.3,6.4-1.3,1.3-2.7,2.7-4,4.1-12.1,12.9-21.5,27.9-28.2,44.7h0Z"/>
            <path class="cls-8" d="M-.8,419.7c5.7,3.8,11.6,7,17.9,9.9,5.6,2.6,11.4,4.7,17.3,6.4-1.3,1.3-2.7,2.7-4,4.1-12.1,12.9-21.5,27.9-28.2,44.7-3.7,9.2-6.3,18.8-8.1,28.5-1.7-9.8-4.4-19.3-8.1-28.5-4.9-12.5-11.5-24-19.5-34.5,2.7-3.5,5.6-7,8.7-10.2,7.3-7.8,15.3-14.6,23.9-20.3h0Z"/>
            <path class="cls-8" d="M346.1,328.3c1.7,9,4.3,17.9,7.7,26.5,4.9,12.5,11.5,24,19.5,34.5-2.7,3.5-5.6,7-8.7,10.2-7.3,7.8-15.3,14.6-23.9,20.3-5.7-3.8-11.6-7-17.9-9.9-5.6-2.6-11.4-4.7-17.3-6.4,1.4-1.3,2.7-2.7,4-4.1,12.1-12.9,21.5-27.9,28.2-44.7,3.4-8.6,6-17.4,7.7-26.5-1.7-9-4.3-17.9-7.7-26.5-6.6-16.8-16.1-31.8-28.2-44.7-1.3-1.4-2.6-2.8-4-4.1,5.9-1.7,11.6-3.8,17.3-6.4,6.2-2.8,12.2-6.1,17.9-9.9,8.6,5.7,16.7,12.5,23.9,20.3,3.1,3.3,6,6.7,8.7,10.2-8,10.4-14.5,22-19.5,34.5-3.4,8.6-6,17.4-7.7,26.5h0Z"/>
            <path class="cls-8" d="M340.7,419.7c8.6,5.7,16.7,12.5,23.9,20.3,3.1,3.3,6,6.7,8.7,10.2-8,10.4-14.5,22-19.5,34.5-3.7,9.2-6.4,18.8-8.1,28.6-1.7-9.8-4.4-19.3-8.1-28.6-6.6-16.8-16.1-31.8-28.2-44.7-1.3-1.4-2.6-2.8-4-4.1,5.9-1.7,11.6-3.8,17.3-6.4,6.2-2.8,12.2-6.1,17.9-9.9h0Z"/>
            <path class="cls-8" d="M273.4,301.8c-3.4,8.6-6,17.4-7.7,26.5,1.7,9,4.3,17.9,7.7,26.5,6.6,16.8,16.1,31.8,28.2,44.7,1.3,1.4,2.6,2.8,4,4.1-5.9,1.7-11.6,3.8-17.3,6.4-6.2,2.8-12.2,6.1-17.9,9.9-8.6-5.7-16.7-12.5-23.9-20.3-3.1-3.3-6-6.7-8.7-10.2,8-10.4,14.5-22,19.5-34.5,3.4-8.6,6-17.4,7.7-26.5-1.7-9-4.3-17.9-7.7-26.5-4.9-12.5-11.5-24-19.5-34.5,2.7-3.5,5.6-7,8.7-10.2,7.3-7.8,15.3-14.6,23.9-20.3,5.7,3.8,11.6,7,17.9,9.9,5.6,2.6,11.4,4.7,17.3,6.4-1.4,1.3-2.7,2.7-4,4.1-12.1,12.9-21.5,27.9-28.2,44.7h0Z"/>
            <path class="cls-8" d="M210.6,328.3c1.7,9,4.3,17.9,7.7,26.5,4.9,12.5,11.5,24,19.5,34.5-2.7,3.5-5.6,7-8.7,10.2-7.3,7.8-15.3,14.6-23.9,20.3-5.7-3.8-11.6-7-17.9-9.9-5.6-2.6-11.4-4.7-17.3-6.4,1.4-1.3,2.7-2.7,4-4.1,12.1-12.9,21.6-27.9,28.2-44.7,3.4-8.6,6-17.4,7.7-26.5-1.7-9-4.3-17.9-7.7-26.5-6.6-16.8-16.1-31.8-28.2-44.7-1.3-1.4-2.6-2.8-4-4.1,5.9-1.7,11.6-3.8,17.3-6.4,6.2-2.8,12.2-6.1,17.9-9.9,8.6,5.7,16.7,12.5,23.9,20.3,3.1,3.3,6,6.7,8.7,10.2-8,10.4-14.5,22-19.5,34.5-3.4,8.6-6,17.4-7.7,26.5h0Z"/>
            <path class="cls-8" d="M270.4,419.7c5.7,3.8,11.6,7,17.9,9.9,5.6,2.6,11.4,4.7,17.3,6.4-1.4,1.3-2.7,2.7-4,4.1-12.1,12.9-21.5,27.9-28.2,44.7-3.7,9.2-6.4,18.8-8.1,28.5-1.7-9.8-4.4-19.3-8.1-28.5-4.9-12.5-11.5-24-19.5-34.5,2.7-3.5,5.6-7,8.7-10.2,7.3-7.8,15.3-14.6,23.9-20.3h0Z"/>
            <path class="cls-8" d="M205.1,419.7c8.6,5.7,16.7,12.5,23.9,20.3,3.1,3.3,6,6.7,8.7,10.2-8,10.4-14.5,22-19.5,34.5-3.7,9.2-6.4,18.8-8.1,28.6-1.7-9.8-4.4-19.3-8.1-28.6-6.6-16.8-16.1-31.8-28.2-44.7-1.3-1.4-2.6-2.8-4-4.1,5.9-1.7,11.6-3.8,17.3-6.4,6.2-2.8,12.2-6.1,17.9-9.9h0Z"/>
            <path class="cls-8" d="M137.8,301.8c-3.4,8.6-6,17.4-7.7,26.5,1.7,9,4.3,17.9,7.7,26.5,6.6,16.8,16.1,31.8,28.2,44.7,1.3,1.4,2.6,2.8,4,4.1-5.9,1.7-11.6,3.8-17.3,6.4-6.2,2.8-12.2,6.1-17.9,9.9-8.7-5.7-16.7-12.5-23.9-20.3-3.1-3.3-6-6.7-8.7-10.2,8-10.4,14.5-22,19.5-34.5,3.4-8.6,6-17.4,7.7-26.5-1.7-9-4.3-17.9-7.7-26.5-4.9-12.5-11.5-24-19.5-34.5,2.7-3.5,5.6-7,8.7-10.2,7.3-7.8,15.3-14.6,23.9-20.3,5.7,3.8,11.6,7,17.9,9.9,5.6,2.6,11.4,4.7,17.3,6.4-1.4,1.3-2.7,2.7-4,4.1-12.1,12.9-21.6,27.9-28.2,44.7h0Z"/>
            <path class="cls-8" d="M75,328.3c1.7,9,4.3,17.9,7.7,26.5,4.9,12.5,11.5,24,19.5,34.5-2.7,3.5-5.6,7-8.7,10.2-7.3,7.8-15.3,14.6-23.9,20.3-5.7-3.8-11.6-7-17.9-9.9-5.7-2.6-11.4-4.7-17.3-6.4,1.3-1.3,2.7-2.7,4-4.1,12.1-12.9,21.5-27.9,28.2-44.7,3.4-8.6,6-17.4,7.7-26.5-1.7-9-4.3-17.9-7.7-26.5-6.6-16.8-16.1-31.8-28.2-44.7-1.3-1.4-2.6-2.8-4-4.1,5.9-1.7,11.7-3.8,17.3-6.4,6.2-2.8,12.2-6.1,17.9-9.9,8.7,5.7,16.7,12.5,23.9,20.3,3.1,3.3,6,6.7,8.7,10.2-8,10.4-14.5,22-19.5,34.5-3.4,8.6-6,17.4-7.7,26.5h0Z"/>
            <path class="cls-8" d="M134.8,419.7c5.7,3.8,11.6,7,17.9,9.9,5.6,2.6,11.4,4.7,17.3,6.4-1.4,1.3-2.7,2.7-4,4.1-12.1,12.9-21.6,27.9-28.2,44.7-3.7,9.2-6.4,18.8-8.1,28.5-1.7-9.8-4.4-19.3-8.1-28.5-4.9-12.5-11.5-24-19.5-34.5,2.7-3.5,5.6-7,8.7-10.2,7.3-7.8,15.3-14.6,23.9-20.3h0Z"/>
            <path class="cls-8" d="M69.5,419.7c8.7,5.7,16.7,12.5,23.9,20.3,3.1,3.3,6,6.7,8.7,10.2-8,10.4-14.5,22-19.5,34.5-3.7,9.2-6.4,18.8-8.1,28.6-1.7-9.8-4.4-19.3-8.1-28.6-6.6-16.8-16.1-31.8-28.2-44.7-1.3-1.4-2.6-2.8-4-4.1,5.9-1.7,11.7-3.8,17.3-6.4,6.2-2.8,12.2-6.1,17.9-9.9h0Z"/>
            <path class="cls-8" d="M2.2,301.8c-3.4,8.6-6,17.4-7.7,26.5,1.7,9,4.3,17.9,7.7,26.5,6.6,16.8,16.1,31.8,28.2,44.7,1.3,1.4,2.6,2.8,4,4.1-5.9,1.7-11.6,3.8-17.3,6.4-6.2,2.8-12.2,6.1-17.9,9.9-8.6-5.7-16.7-12.5-23.9-20.3-3.1-3.3-6-6.7-8.7-10.2,8-10.4,14.5-22,19.5-34.5,3.4-8.6,6-17.4,7.7-26.5-1.7-9-4.3-17.9-7.7-26.5-4.9-12.5-11.5-24-19.5-34.5,2.7-3.5,5.6-7,8.7-10.2,7.3-7.8,15.3-14.6,23.9-20.3,5.7,3.8,11.6,7,17.9,9.9,5.6,2.6,11.4,4.7,17.3,6.4-1.3,1.3-2.7,2.7-4,4.1-12.1,12.9-21.5,27.9-28.2,44.7h0Z"/>
            <path class="cls-8" d="M-.8,419.7c5.7,3.8,11.6,7,17.9,9.9,5.6,2.6,11.4,4.7,17.3,6.4-1.3,1.3-2.7,2.7-4,4.1-12.1,12.9-21.5,27.9-28.2,44.7-3.7,9.2-6.3,18.8-8.1,28.5-1.7-9.8-4.4-19.3-8.1-28.5-4.9-12.5-11.5-24-19.5-34.5,2.7-3.5,5.6-7,8.7-10.2,7.3-7.8,15.3-14.6,23.9-20.3h0Z"/>
            <path class="cls-8" d="M346.1,328.3c1.7,9,4.3,17.9,7.7,26.5,4.9,12.5,11.5,24,19.5,34.5-2.7,3.5-5.6,7-8.7,10.2-7.3,7.8-15.3,14.6-23.9,20.3-5.7-3.8-11.6-7-17.9-9.9-5.6-2.6-11.4-4.7-17.3-6.4,1.4-1.3,2.7-2.7,4-4.1,12.1-12.9,21.5-27.9,28.2-44.7,3.4-8.6,6-17.4,7.7-26.5-1.7-9-4.3-17.9-7.7-26.5-6.6-16.8-16.1-31.8-28.2-44.7-1.3-1.4-2.6-2.8-4-4.1,5.9-1.7,11.6-3.8,17.3-6.4,6.2-2.8,12.2-6.1,17.9-9.9,8.6,5.7,16.7,12.5,23.9,20.3,3.1,3.3,6,6.7,8.7,10.2-8,10.4-14.5,22-19.5,34.5-3.4,8.6-6,17.4-7.7,26.5h0Z"/>
            <path class="cls-8" d="M340.7,419.7c8.6,5.7,16.7,12.5,23.9,20.3,3.1,3.3,6,6.7,8.7,10.2-8,10.4-14.5,22-19.5,34.5-3.7,9.2-6.4,18.8-8.1,28.6-1.7-9.8-4.4-19.3-8.1-28.6-6.6-16.8-16.1-31.8-28.2-44.7-1.3-1.4-2.6-2.8-4-4.1,5.9-1.7,11.6-3.8,17.3-6.4,6.2-2.8,12.2-6.1,17.9-9.9h0Z"/>
            <path class="cls-8" d="M273.4,301.8c-3.4,8.6-6,17.4-7.7,26.5,1.7,9,4.3,17.9,7.7,26.5,6.6,16.8,16.1,31.8,28.2,44.7,1.3,1.4,2.6,2.8,4,4.1-5.9,1.7-11.6,3.8-17.3,6.4-6.2,2.8-12.2,6.1-17.9,9.9-8.6-5.7-16.7-12.5-23.9-20.3-3.1-3.3-6-6.7-8.7-10.2,8-10.4,14.5-22,19.5-34.5,3.4-8.6,6-17.4,7.7-26.5-1.7-9-4.3-17.9-7.7-26.5-4.9-12.5-11.5-24-19.5-34.5,2.7-3.5,5.6-7,8.7-10.2,7.3-7.8,15.3-14.6,23.9-20.3,5.7,3.8,11.6,7,17.9,9.9,5.6,2.6,11.4,4.7,17.3,6.4-1.4,1.3-2.7,2.7-4,4.1-12.1,12.9-21.5,27.9-28.2,44.7h0Z"/>
            <path class="cls-8" d="M210.6,328.3c1.7,9,4.3,17.9,7.7,26.5,4.9,12.5,11.5,24,19.5,34.5-2.7,3.5-5.6,7-8.7,10.2-7.3,7.8-15.3,14.6-23.9,20.3-5.7-3.8-11.6-7-17.9-9.9-5.6-2.6-11.4-4.7-17.3-6.4,1.4-1.3,2.7-2.7,4-4.1,12.1-12.9,21.6-27.9,28.2-44.7,3.4-8.6,6-17.4,7.7-26.5-1.7-9-4.3-17.9-7.7-26.5-6.6-16.8-16.1-31.8-28.2-44.7-1.3-1.4-2.6-2.8-4-4.1,5.9-1.7,11.6-3.8,17.3-6.4,6.2-2.8,12.2-6.1,17.9-9.9,8.6,5.7,16.7,12.5,23.9,20.3,3.1,3.3,6,6.7,8.7,10.2-8,10.4-14.5,22-19.5,34.5-3.4,8.6-6,17.4-7.7,26.5h0Z"/>
            <path class="cls-8" d="M270.4,419.7c5.7,3.8,11.6,7,17.9,9.9,5.6,2.6,11.4,4.7,17.3,6.4-1.4,1.3-2.7,2.7-4,4.1-12.1,12.9-21.5,27.9-28.2,44.7-3.7,9.2-6.4,18.8-8.1,28.5-1.7-9.8-4.4-19.3-8.1-28.5-4.9-12.5-11.5-24-19.5-34.5,2.7-3.5,5.6-7,8.7-10.2,7.3-7.8,15.3-14.6,23.9-20.3h0Z"/>
            <path class="cls-8" d="M205.1,419.7c8.6,5.7,16.7,12.5,23.9,20.3,3.1,3.3,6,6.7,8.7,10.2-8,10.4-14.5,22-19.5,34.5-3.7,9.2-6.4,18.8-8.1,28.6-1.7-9.8-4.4-19.3-8.1-28.6-6.6-16.8-16.1-31.8-28.2-44.7-1.3-1.4-2.6-2.8-4-4.1,5.9-1.7,11.6-3.8,17.3-6.4,6.2-2.8,12.2-6.1,17.9-9.9h0Z"/>
            <path class="cls-8" d="M137.8,301.8c-3.4,8.6-6,17.4-7.7,26.5,1.7,9,4.3,17.9,7.7,26.5,6.6,16.8,16.1,31.8,28.2,44.7,1.3,1.4,2.6,2.8,4,4.1-5.9,1.7-11.6,3.8-17.3,6.4-6.2,2.8-12.2,6.1-17.9,9.9-8.7-5.7-16.7-12.5-23.9-20.3-3.1-3.3-6-6.7-8.7-10.2,8-10.4,14.5-22,19.5-34.5,3.4-8.6,6-17.4,7.7-26.5-1.7-9-4.3-17.9-7.7-26.5-4.9-12.5-11.5-24-19.5-34.5,2.7-3.5,5.6-7,8.7-10.2,7.3-7.8,15.3-14.6,23.9-20.3,5.7,3.8,11.6,7,17.9,9.9,5.6,2.6,11.4,4.7,17.3,6.4-1.4,1.3-2.7,2.7-4,4.1-12.1,12.9-21.6,27.9-28.2,44.7h0Z"/>
            <path class="cls-8" d="M75,328.3c1.7,9,4.3,17.9,7.7,26.5,4.9,12.5,11.5,24,19.5,34.5-2.7,3.5-5.6,7-8.7,10.2-7.3,7.8-15.3,14.6-23.9,20.3-5.7-3.8-11.6-7-17.9-9.9-5.7-2.6-11.4-4.7-17.3-6.4,1.3-1.3,2.7-2.7,4-4.1,12.1-12.9,21.5-27.9,28.2-44.7,3.4-8.6,6-17.4,7.7-26.5-1.7-9-4.3-17.9-7.7-26.5-6.6-16.8-16.1-31.8-28.2-44.7-1.3-1.4-2.6-2.8-4-4.1,5.9-1.7,11.7-3.8,17.3-6.4,6.2-2.8,12.2-6.1,17.9-9.9,8.7,5.7,16.7,12.5,23.9,20.3,3.1,3.3,6,6.7,8.7,10.2-8,10.4-14.5,22-19.5,34.5-3.4,8.6-6,17.4-7.7,26.5h0Z"/>
            <path class="cls-8" d="M134.8,419.7c5.7,3.8,11.6,7,17.9,9.9,5.6,2.6,11.4,4.7,17.3,6.4-1.4,1.3-2.7,2.7-4,4.1-12.1,12.9-21.6,27.9-28.2,44.7-3.7,9.2-6.4,18.8-8.1,28.5-1.7-9.8-4.4-19.3-8.1-28.5-4.9-12.5-11.5-24-19.5-34.5,2.7-3.5,5.6-7,8.7-10.2,7.3-7.8,15.3-14.6,23.9-20.3h0Z"/>
            <path class="cls-8" d="M69.5,419.7c8.7,5.7,16.7,12.5,23.9,20.3,3.1,3.3,6,6.7,8.7,10.2-8,10.4-14.5,22-19.5,34.5-3.7,9.2-6.4,18.8-8.1,28.6-1.7-9.8-4.4-19.3-8.1-28.6-6.6-16.8-16.1-31.8-28.2-44.7-1.3-1.4-2.6-2.8-4-4.1,5.9-1.7,11.7-3.8,17.3-6.4,6.2-2.8,12.2-6.1,17.9-9.9h0Z"/>
            <path class="cls-8" d="M2.2,301.8c-3.4,8.6-6,17.4-7.7,26.5,1.7,9,4.3,17.9,7.7,26.5,6.6,16.8,16.1,31.8,28.2,44.7,1.3,1.4,2.6,2.8,4,4.1-5.9,1.7-11.6,3.8-17.3,6.4-6.2,2.8-12.2,6.1-17.9,9.9-8.6-5.7-16.7-12.5-23.9-20.3-3.1-3.3-6-6.7-8.7-10.2,8-10.4,14.5-22,19.5-34.5,3.4-8.6,6-17.4,7.7-26.5-1.7-9-4.3-17.9-7.7-26.5-4.9-12.5-11.5-24-19.5-34.5,2.7-3.5,5.6-7,8.7-10.2,7.3-7.8,15.3-14.6,23.9-20.3,5.7,3.8,11.6,7,17.9,9.9,5.6,2.6,11.4,4.7,17.3,6.4-1.3,1.3-2.7,2.7-4,4.1-12.1,12.9-21.5,27.9-28.2,44.7h0Z"/>
            <path class="cls-8" d="M-.8,419.7c5.7,3.8,11.6,7,17.9,9.9,5.6,2.6,11.4,4.7,17.3,6.4-1.3,1.3-2.7,2.7-4,4.1-12.1,12.9-21.5,27.9-28.2,44.7-3.7,9.2-6.3,18.8-8.1,28.5-1.7-9.8-4.4-19.3-8.1-28.5-4.9-12.5-11.5-24-19.5-34.5,2.7-3.5,5.6-7,8.7-10.2,7.3-7.8,15.3-14.6,23.9-20.3h0Z"/>
            <path class="cls-8" d="M346.1,328.3c1.7,9,4.3,17.9,7.7,26.5,4.9,12.5,11.5,24,19.5,34.5-2.7,3.5-5.6,7-8.7,10.2-7.3,7.8-15.3,14.6-23.9,20.3-5.7-3.8-11.6-7-17.9-9.9-5.6-2.6-11.4-4.7-17.3-6.4,1.4-1.3,2.7-2.7,4-4.1,12.1-12.9,21.5-27.9,28.2-44.7,3.4-8.6,6-17.4,7.7-26.5-1.7-9-4.3-17.9-7.7-26.5-6.6-16.8-16.1-31.8-28.2-44.7-1.3-1.4-2.6-2.8-4-4.1,5.9-1.7,11.6-3.8,17.3-6.4,6.2-2.8,12.2-6.1,17.9-9.9,8.6,5.7,16.7,12.5,23.9,20.3,3.1,3.3,6,6.7,8.7,10.2-8,10.4-14.5,22-19.5,34.5-3.4,8.6-6,17.4-7.7,26.5h0Z"/>
            <path class="cls-8" d="M340.7,419.7c8.6,5.7,16.7,12.5,23.9,20.3,3.1,3.3,6,6.7,8.7,10.2-8,10.4-14.5,22-19.5,34.5-3.7,9.2-6.4,18.8-8.1,28.6-1.7-9.8-4.4-19.3-8.1-28.6-6.6-16.8-16.1-31.8-28.2-44.7-1.3-1.4-2.6-2.8-4-4.1,5.9-1.7,11.6-3.8,17.3-6.4,6.2-2.8,12.2-6.1,17.9-9.9h0Z"/>
            <path class="cls-8" d="M273.4,301.8c-3.4,8.6-6,17.4-7.7,26.5,1.7,9,4.3,17.9,7.7,26.5,6.6,16.8,16.1,31.8,28.2,44.7,1.3,1.4,2.6,2.8,4,4.1-5.9,1.7-11.6,3.8-17.3,6.4-6.2,2.8-12.2,6.1-17.9,9.9-8.6-5.7-16.7-12.5-23.9-20.3-3.1-3.3-6-6.7-8.7-10.2,8-10.4,14.5-22,19.5-34.5,3.4-8.6,6-17.4,7.7-26.5-1.7-9-4.3-17.9-7.7-26.5-4.9-12.5-11.5-24-19.5-34.5,2.7-3.5,5.6-7,8.7-10.2,7.3-7.8,15.3-14.6,23.9-20.3,5.7,3.8,11.6,7,17.9,9.9,5.6,2.6,11.4,4.7,17.3,6.4-1.4,1.3-2.7,2.7-4,4.1-12.1,12.9-21.5,27.9-28.2,44.7h0Z"/>
            <path class="cls-8" d="M210.6,328.3c1.7,9,4.3,17.9,7.7,26.5,4.9,12.5,11.5,24,19.5,34.5-2.7,3.5-5.6,7-8.7,10.2-7.3,7.8-15.3,14.6-23.9,20.3-5.7-3.8-11.6-7-17.9-9.9-5.6-2.6-11.4-4.7-17.3-6.4,1.4-1.3,2.7-2.7,4-4.1,12.1-12.9,21.6-27.9,28.2-44.7,3.4-8.6,6-17.4,7.7-26.5-1.7-9-4.3-17.9-7.7-26.5-6.6-16.8-16.1-31.8-28.2-44.7-1.3-1.4-2.6-2.8-4-4.1,5.9-1.7,11.6-3.8,17.3-6.4,6.2-2.8,12.2-6.1,17.9-9.9,8.6,5.7,16.7,12.5,23.9,20.3,3.1,3.3,6,6.7,8.7,10.2-8,10.4-14.5,22-19.5,34.5-3.4,8.6-6,17.4-7.7,26.5h0Z"/>
            <path class="cls-8" d="M270.4,419.7c5.7,3.8,11.6,7,17.9,9.9,5.6,2.6,11.4,4.7,17.3,6.4-1.4,1.3-2.7,2.7-4,4.1-12.1,12.9-21.5,27.9-28.2,44.7-3.7,9.2-6.4,18.8-8.1,28.5-1.7-9.8-4.4-19.3-8.1-28.5-4.9-12.5-11.5-24-19.5-34.5,2.7-3.5,5.6-7,8.7-10.2,7.3-7.8,15.3-14.6,23.9-20.3h0Z"/>
            <path class="cls-8" d="M205.1,419.7c8.6,5.7,16.7,12.5,23.9,20.3,3.1,3.3,6,6.7,8.7,10.2-8,10.4-14.5,22-19.5,34.5-3.7,9.2-6.4,18.8-8.1,28.6-1.7-9.8-4.4-19.3-8.1-28.6-6.6-16.8-16.1-31.8-28.2-44.7-1.3-1.4-2.6-2.8-4-4.1,5.9-1.7,11.6-3.8,17.3-6.4,6.2-2.8,12.2-6.1,17.9-9.9h0Z"/>
            <path class="cls-8" d="M137.8,301.8c-3.4,8.6-6,17.4-7.7,26.5,1.7,9,4.3,17.9,7.7,26.5,6.6,16.8,16.1,31.8,28.2,44.7,1.3,1.4,2.6,2.8,4,4.1-5.9,1.7-11.6,3.8-17.3,6.4-6.2,2.8-12.2,6.1-17.9,9.9-8.7-5.7-16.7-12.5-23.9-20.3-3.1-3.3-6-6.7-8.7-10.2,8-10.4,14.5-22,19.5-34.5,3.4-8.6,6-17.4,7.7-26.5-1.7-9-4.3-17.9-7.7-26.5-4.9-12.5-11.5-24-19.5-34.5,2.7-3.5,5.6-7,8.7-10.2,7.3-7.8,15.3-14.6,23.9-20.3,5.7,3.8,11.6,7,17.9,9.9,5.6,2.6,11.4,4.7,17.3,6.4-1.4,1.3-2.7,2.7-4,4.1-12.1,12.9-21.6,27.9-28.2,44.7h0Z"/>
            <path class="cls-8" d="M75,328.3c1.7,9,4.3,17.9,7.7,26.5,4.9,12.5,11.5,24,19.5,34.5-2.7,3.5-5.6,7-8.7,10.2-7.3,7.8-15.3,14.6-23.9,20.3-5.7-3.8-11.6-7-17.9-9.9-5.7-2.6-11.4-4.7-17.3-6.4,1.3-1.3,2.7-2.7,4-4.1,12.1-12.9,21.5-27.9,28.2-44.7,3.4-8.6,6-17.4,7.7-26.5-1.7-9-4.3-17.9-7.7-26.5-6.6-16.8-16.1-31.8-28.2-44.7-1.3-1.4-2.6-2.8-4-4.1,5.9-1.7,11.7-3.8,17.3-6.4,6.2-2.8,12.2-6.1,17.9-9.9,8.7,5.7,16.7,12.5,23.9,20.3,3.1,3.3,6,6.7,8.7,10.2-8,10.4-14.5,22-19.5,34.5-3.4,8.6-6,17.4-7.7,26.5h0Z"/>
            <path class="cls-8" d="M134.8,419.7c5.7,3.8,11.6,7,17.9,9.9,5.6,2.6,11.4,4.7,17.3,6.4-1.4,1.3-2.7,2.7-4,4.1-12.1,12.9-21.6,27.9-28.2,44.7-3.7,9.2-6.4,18.8-8.1,28.5-1.7-9.8-4.4-19.3-8.1-28.5-4.9-12.5-11.5-24-19.5-34.5,2.7-3.5,5.6-7,8.7-10.2,7.3-7.8,15.3-14.6,23.9-20.3h0Z"/>
            <path class="cls-8" d="M69.5,419.7c8.7,5.7,16.7,12.5,23.9,20.3,3.1,3.3,6,6.7,8.7,10.2-8,10.4-14.5,22-19.5,34.5-3.7,9.2-6.4,18.8-8.1,28.6-1.7-9.8-4.4-19.3-8.1-28.6-6.6-16.8-16.1-31.8-28.2-44.7-1.3-1.4-2.6-2.8-4-4.1,5.9-1.7,11.7-3.8,17.3-6.4,6.2-2.8,12.2-6.1,17.9-9.9h0Z"/>
            <path class="cls-8" d="M2.2,301.8c-3.4,8.6-6,17.4-7.7,26.5,1.7,9,4.3,17.9,7.7,26.5,6.6,16.8,16.1,31.8,28.2,44.7,1.3,1.4,2.6,2.8,4,4.1-5.9,1.7-11.6,3.8-17.3,6.4-6.2,2.8-12.2,6.1-17.9,9.9-8.6-5.7-16.7-12.5-23.9-20.3-3.1-3.3-6-6.7-8.7-10.2,8-10.4,14.5-22,19.5-34.5,3.4-8.6,6-17.4,7.7-26.5-1.7-9-4.3-17.9-7.7-26.5-4.9-12.5-11.5-24-19.5-34.5,2.7-3.5,5.6-7,8.7-10.2,7.3-7.8,15.3-14.6,23.9-20.3,5.7,3.8,11.6,7,17.9,9.9,5.6,2.6,11.4,4.7,17.3,6.4-1.3,1.3-2.7,2.7-4,4.1-12.1,12.9-21.5,27.9-28.2,44.7h0Z"/>
            <path class="cls-8" d="M-.8,419.7c5.7,3.8,11.6,7,17.9,9.9,5.6,2.6,11.4,4.7,17.3,6.4-1.3,1.3-2.7,2.7-4,4.1-12.1,12.9-21.5,27.9-28.2,44.7-3.7,9.2-6.3,18.8-8.1,28.5-1.7-9.8-4.4-19.3-8.1-28.5-4.9-12.5-11.5-24-19.5-34.5,2.7-3.5,5.6-7,8.7-10.2,7.3-7.8,15.3-14.6,23.9-20.3h0Z"/>
            <path class="cls-8" d="M346.1,328.3c1.7,9,4.3,17.9,7.7,26.5,4.9,12.5,11.5,24,19.5,34.5-2.7,3.5-5.6,7-8.7,10.2-7.3,7.8-15.3,14.6-23.9,20.3-5.7-3.8-11.6-7-17.9-9.9-5.6-2.6-11.4-4.7-17.3-6.4,1.4-1.3,2.7-2.7,4-4.1,12.1-12.9,21.5-27.9,28.2-44.7,3.4-8.6,6-17.4,7.7-26.5-1.7-9-4.3-17.9-7.7-26.5-6.6-16.8-16.1-31.8-28.2-44.7-1.3-1.4-2.6-2.8-4-4.1,5.9-1.7,11.6-3.8,17.3-6.4,6.2-2.8,12.2-6.1,17.9-9.9,8.6,5.7,16.7,12.5,23.9,20.3,3.1,3.3,6,6.7,8.7,10.2-8,10.4-14.5,22-19.5,34.5-3.4,8.6-6,17.4-7.7,26.5h0Z"/>
            <path class="cls-8" d="M340.7,419.7c8.6,5.7,16.7,12.5,23.9,20.3,3.1,3.3,6,6.7,8.7,10.2-8,10.4-14.5,22-19.5,34.5-3.7,9.2-6.4,18.8-8.1,28.6-1.7-9.8-4.4-19.3-8.1-28.6-6.6-16.8-16.1-31.8-28.2-44.7-1.3-1.4-2.6-2.8-4-4.1,5.9-1.7,11.6-3.8,17.3-6.4,6.2-2.8,12.2-6.1,17.9-9.9h0Z"/>
            <path class="cls-8" d="M273.4,301.8c-3.4,8.6-6,17.4-7.7,26.5,1.7,9,4.3,17.9,7.7,26.5,6.6,16.8,16.1,31.8,28.2,44.7,1.3,1.4,2.6,2.8,4,4.1-5.9,1.7-11.6,3.8-17.3,6.4-6.2,2.8-12.2,6.1-17.9,9.9-8.6-5.7-16.7-12.5-23.9-20.3-3.1-3.3-6-6.7-8.7-10.2,8-10.4,14.5-22,19.5-34.5,3.4-8.6,6-17.4,7.7-26.5-1.7-9-4.3-17.9-7.7-26.5-4.9-12.5-11.5-24-19.5-34.5,2.7-3.5,5.6-7,8.7-10.2,7.3-7.8,15.3-14.6,23.9-20.3,5.7,3.8,11.6,7,17.9,9.9,5.6,2.6,11.4,4.7,17.3,6.4-1.4,1.3-2.7,2.7-4,4.1-12.1,12.9-21.5,27.9-28.2,44.7h0Z"/>
            <path class="cls-8" d="M210.6,328.3c1.7,9,4.3,17.9,7.7,26.5,4.9,12.5,11.5,24,19.5,34.5-2.7,3.5-5.6,7-8.7,10.2-7.3,7.8-15.3,14.6-23.9,20.3-5.7-3.8-11.6-7-17.9-9.9-5.6-2.6-11.4-4.7-17.3-6.4,1.4-1.3,2.7-2.7,4-4.1,12.1-12.9,21.6-27.9,28.2-44.7,3.4-8.6,6-17.4,7.7-26.5-1.7-9-4.3-17.9-7.7-26.5-6.6-16.8-16.1-31.8-28.2-44.7-1.3-1.4-2.6-2.8-4-4.1,5.9-1.7,11.6-3.8,17.3-6.4,6.2-2.8,12.2-6.1,17.9-9.9,8.6,5.7,16.7,12.5,23.9,20.3,3.1,3.3,6,6.7,8.7,10.2-8,10.4-14.5,22-19.5,34.5-3.4,8.6-6,17.4-7.7,26.5h0Z"/>
            <path class="cls-8" d="M270.4,419.7c5.7,3.8,11.6,7,17.9,9.9,5.6,2.6,11.4,4.7,17.3,6.4-1.4,1.3-2.7,2.7-4,4.1-12.1,12.9-21.5,27.9-28.2,44.7-3.7,9.2-6.4,18.8-8.1,28.5-1.7-9.8-4.4-19.3-8.1-28.5-4.9-12.5-11.5-24-19.5-34.5,2.7-3.5,5.6-7,8.7-10.2,7.3-7.8,15.3-14.6,23.9-20.3h0Z"/>
            <path class="cls-8" d="M205.1,419.7c8.6,5.7,16.7,12.5,23.9,20.3,3.1,3.3,6,6.7,8.7,10.2-8,10.4-14.5,22-19.5,34.5-3.7,9.2-6.4,18.8-8.1,28.6-1.7-9.8-4.4-19.3-8.1-28.6-6.6-16.8-16.1-31.8-28.2-44.7-1.3-1.4-2.6-2.8-4-4.1,5.9-1.7,11.6-3.8,17.3-6.4,6.2-2.8,12.2-6.1,17.9-9.9h0Z"/>
            <path class="cls-8" d="M202.1,301.8c3.4,8.6,6,17.4,7.7,26.5-1.7,9-4.3,17.9-7.7,26.5-6.6,16.8-16.1,31.8-28.2,44.7-1.3,1.4-2.6,2.8-4,4.1,5.9,1.7,11.6,3.8,17.3,6.4,6.2,2.8,12.2,6.1,17.9,9.9,8.6-5.7,16.7-12.5,23.9-20.3,3.1-3.3,6-6.7,8.7-10.2-8-10.4-14.5-22-19.5-34.5-3.4-8.6-6-17.4-7.7-26.5,1.7-9,4.3-17.9,7.7-26.5,4.9-12.5,11.5-24,19.5-34.5-2.7-3.5-5.6-7-8.7-10.2-7.3-7.8-15.3-14.6-23.9-20.3-5.7,3.8-11.6,7-17.9,9.9-5.6,2.6-11.4,4.7-17.3,6.4,1.4,1.3,2.7,2.7,4,4.1,12.1,12.9,21.6,27.9,28.2,44.7h0Z"/>
            <path class="cls-8" d="M264.9,328.3c-1.7,9-4.3,17.9-7.7,26.5-4.9,12.5-11.5,24-19.5,34.5,2.7,3.5,5.6,7,8.7,10.2,7.3,7.8,15.3,14.6,23.9,20.3,5.7-3.8,11.6-7,17.9-9.9,5.6-2.6,11.4-4.7,17.3-6.4-1.4-1.3-2.7-2.7-4-4.1-12.1-12.9-21.5-27.9-28.2-44.7-3.4-8.6-6-17.4-7.7-26.5,1.7-9,4.3-17.9,7.7-26.5,6.6-16.8,16.1-31.8,28.2-44.7,1.3-1.4,2.6-2.8,4-4.1-5.9-1.7-11.6-3.8-17.3-6.4-6.2-2.8-12.2-6.1-17.9-9.9-8.6,5.7-16.7,12.5-23.9,20.3-3.1,3.3-6,6.7-8.7,10.2,8,10.4,14.5,22,19.5,34.5,3.4,8.6,6,17.4,7.7,26.5h0Z"/>
            <path class="cls-8" d="M205.1,419.7c-5.7,3.8-11.6,7-17.9,9.9-5.6,2.6-11.4,4.7-17.3,6.4,1.4,1.3,2.7,2.7,4,4.1,12.1,12.9,21.6,27.9,28.2,44.7,3.7,9.2,6.4,18.8,8.1,28.5,1.7-9.8,4.4-19.3,8.1-28.5,4.9-12.5,11.5-24,19.5-34.5-2.7-3.5-5.6-7-8.7-10.2-7.3-7.8-15.3-14.6-23.9-20.3h0Z"/>
            <path class="cls-8" d="M270.4,419.7c-8.6,5.7-16.7,12.5-23.9,20.3-3.1,3.3-6,6.7-8.7,10.2,8,10.4,14.5,22,19.5,34.5,3.7,9.2,6.4,18.8,8.1,28.6,1.7-9.8,4.4-19.3,8.1-28.6,6.6-16.8,16.1-31.8,28.2-44.7,1.3-1.4,2.6-2.8,4-4.1-5.9-1.7-11.6-3.8-17.3-6.4-6.2-2.8-12.2-6.1-17.9-9.9h0Z"/>
            <path class="cls-8" d="M337.7,301.8c3.4,8.6,6,17.4,7.7,26.5-1.7,9-4.3,17.9-7.7,26.5-6.6,16.8-16.1,31.8-28.2,44.7-1.3,1.4-2.6,2.8-4,4.1,5.9,1.7,11.6,3.8,17.3,6.4,6.2,2.8,12.2,6.1,17.9,9.9,8.6-5.7,16.7-12.5,23.9-20.3,3.1-3.3,6-6.7,8.7-10.2-8-10.4-14.5-22-19.5-34.5-3.4-8.6-6-17.4-7.7-26.5,1.7-9,4.3-17.9,7.7-26.5,4.9-12.5,11.5-24,19.5-34.5-2.7-3.5-5.6-7-8.7-10.2-7.3-7.8-15.3-14.6-23.9-20.3-5.7,3.8-11.6,7-17.9,9.9-5.6,2.6-11.4,4.7-17.3,6.4,1.4,1.3,2.7,2.7,4,4.1,12.1,12.9,21.5,27.9,28.2,44.7h0Z"/>
            <path class="cls-8" d="M340.7,419.7c-5.7,3.8-11.6,7-17.9,9.9-5.6,2.6-11.4,4.7-17.3,6.4,1.4,1.3,2.7,2.7,4,4.1,12.1,12.9,21.5,27.9,28.2,44.7,3.7,9.2,6.4,18.8,8.1,28.5,1.7-9.8,4.4-19.3,8.1-28.5,4.9-12.5,11.5-24,19.5-34.5-2.7-3.5-5.6-7-8.7-10.2-7.3-7.8-15.3-14.6-23.9-20.3h0Z"/>
            <path class="cls-8" d="M-6.2,328.3c-1.7,9-4.3,17.9-7.7,26.5-4.9,12.5-11.5,24-19.5,34.5,2.7,3.5,5.6,7,8.7,10.2,7.3,7.8,15.3,14.6,23.9,20.3,5.7-3.8,11.6-7,17.9-9.9,5.6-2.6,11.4-4.7,17.3-6.4-1.3-1.3-2.7-2.7-4-4.1-12.1-12.9-21.5-27.9-28.2-44.7-3.4-8.6-6-17.4-7.7-26.5,1.7-9,4.3-17.9,7.7-26.5,6.6-16.8,16.1-31.8,28.2-44.7,1.3-1.4,2.6-2.8,4-4.1-5.9-1.7-11.6-3.8-17.3-6.4-6.2-2.8-12.2-6.1-17.9-9.9-8.6,5.7-16.7,12.5-23.9,20.3-3.1,3.3-6,6.7-8.7,10.2,8,10.4,14.5,22,19.5,34.5,3.4,8.6,6,17.4,7.7,26.5h0Z"/>
            <path class="cls-8" d="M-.8,419.7c-8.6,5.7-16.7,12.5-23.9,20.3-3.1,3.3-6,6.7-8.7,10.2,8,10.4,14.5,22,19.5,34.5,3.7,9.2,6.4,18.8,8.1,28.6,1.7-9.8,4.4-19.3,8.1-28.6,6.6-16.8,16.1-31.8,28.2-44.7,1.3-1.4,2.6-2.8,4-4.1-5.9-1.7-11.6-3.8-17.3-6.4-6.2-2.8-12.2-6.1-17.9-9.9h0Z"/>
            <path class="cls-8" d="M66.5,301.8c3.4,8.6,6,17.4,7.7,26.5-1.7,9-4.3,17.9-7.7,26.5-6.6,16.8-16.1,31.8-28.2,44.7-1.3,1.4-2.6,2.8-4,4.1,5.9,1.7,11.6,3.8,17.3,6.4,6.2,2.8,12.2,6.1,17.9,9.9,8.7-5.7,16.7-12.5,23.9-20.3,3.1-3.3,6-6.7,8.7-10.2-8-10.4-14.5-22-19.5-34.5-3.4-8.6-6-17.4-7.7-26.5,1.7-9,4.3-17.9,7.7-26.5,4.9-12.5,11.5-24,19.5-34.5-2.7-3.5-5.6-7-8.7-10.2-7.3-7.8-15.3-14.6-23.9-20.3-5.7,3.8-11.6,7-17.9,9.9-5.7,2.6-11.4,4.7-17.3,6.4,1.3,1.3,2.7,2.7,4,4.1,12.1,12.9,21.5,27.9,28.2,44.7h0Z"/>
            <path class="cls-8" d="M129.3,328.3c-1.7,9-4.3,17.9-7.7,26.5-4.9,12.5-11.5,24-19.5,34.5,2.7,3.5,5.6,7,8.7,10.2,7.3,7.8,15.3,14.6,23.9,20.3,5.7-3.8,11.6-7,17.9-9.9,5.6-2.6,11.4-4.7,17.3-6.4-1.4-1.3-2.7-2.7-4-4.1-12.1-12.9-21.6-27.9-28.2-44.7-3.4-8.6-6-17.4-7.7-26.5,1.7-9,4.3-17.9,7.7-26.5,6.6-16.8,16.1-31.8,28.2-44.7,1.3-1.4,2.6-2.8,4-4.1-5.9-1.7-11.6-3.8-17.3-6.4-6.2-2.8-12.2-6.1-17.9-9.9-8.7,5.7-16.7,12.5-23.9,20.3-3.1,3.3-6,6.7-8.7,10.2,8,10.4,14.5,22,19.5,34.5,3.4,8.6,6,17.4,7.7,26.5h0Z"/>
            <path class="cls-8" d="M69.5,419.7c-5.7,3.8-11.6,7-17.9,9.9-5.7,2.6-11.4,4.7-17.3,6.4,1.3,1.3,2.7,2.7,4,4.1,12.1,12.9,21.5,27.9,28.2,44.7,3.7,9.2,6.3,18.8,8.1,28.5,1.7-9.8,4.4-19.3,8.1-28.5,4.9-12.5,11.5-24,19.5-34.5-2.7-3.5-5.6-7-8.7-10.2-7.3-7.8-15.3-14.6-23.9-20.3h0Z"/>
            <path class="cls-8" d="M134.8,419.7c-8.7,5.7-16.7,12.5-23.9,20.3-3.1,3.3-6,6.7-8.7,10.2,8,10.4,14.5,22,19.5,34.5,3.7,9.2,6.4,18.8,8.1,28.6,1.7-9.8,4.4-19.3,8.1-28.6,6.6-16.8,16.1-31.8,28.2-44.7,1.3-1.4,2.6-2.8,4-4.1-5.9-1.7-11.6-3.8-17.3-6.4-6.2-2.8-12.2-6.1-17.9-9.9h0Z"/>
            <path class="cls-8" d="M202.1,301.8c3.4,8.6,6,17.4,7.7,26.5-1.7,9-4.3,17.9-7.7,26.5-6.6,16.8-16.1,31.8-28.2,44.7-1.3,1.4-2.6,2.8-4,4.1,5.9,1.7,11.6,3.8,17.3,6.4,6.2,2.8,12.2,6.1,17.9,9.9,8.6-5.7,16.7-12.5,23.9-20.3,3.1-3.3,6-6.7,8.7-10.2-8-10.4-14.5-22-19.5-34.5-3.4-8.6-6-17.4-7.7-26.5,1.7-9,4.3-17.9,7.7-26.5,4.9-12.5,11.5-24,19.5-34.5-2.7-3.5-5.6-7-8.7-10.2-7.3-7.8-15.3-14.6-23.9-20.3-5.7,3.8-11.6,7-17.9,9.9-5.6,2.6-11.4,4.7-17.3,6.4,1.4,1.3,2.7,2.7,4,4.1,12.1,12.9,21.6,27.9,28.2,44.7h0Z"/>
            <path class="cls-8" d="M264.9,328.3c-1.7,9-4.3,17.9-7.7,26.5-4.9,12.5-11.5,24-19.5,34.5,2.7,3.5,5.6,7,8.7,10.2,7.3,7.8,15.3,14.6,23.9,20.3,5.7-3.8,11.6-7,17.9-9.9,5.6-2.6,11.4-4.7,17.3-6.4-1.4-1.3-2.7-2.7-4-4.1-12.1-12.9-21.5-27.9-28.2-44.7-3.4-8.6-6-17.4-7.7-26.5,1.7-9,4.3-17.9,7.7-26.5,6.6-16.8,16.1-31.8,28.2-44.7,1.3-1.4,2.6-2.8,4-4.1-5.9-1.7-11.6-3.8-17.3-6.4-6.2-2.8-12.2-6.1-17.9-9.9-8.6,5.7-16.7,12.5-23.9,20.3-3.1,3.3-6,6.7-8.7,10.2,8,10.4,14.5,22,19.5,34.5,3.4,8.6,6,17.4,7.7,26.5h0Z"/>
            <path class="cls-8" d="M205.1,419.7c-5.7,3.8-11.6,7-17.9,9.9-5.6,2.6-11.4,4.7-17.3,6.4,1.4,1.3,2.7,2.7,4,4.1,12.1,12.9,21.6,27.9,28.2,44.7,3.7,9.2,6.4,18.8,8.1,28.5,1.7-9.8,4.4-19.3,8.1-28.5,4.9-12.5,11.5-24,19.5-34.5-2.7-3.5-5.6-7-8.7-10.2-7.3-7.8-15.3-14.6-23.9-20.3h0Z"/>
            <path class="cls-8" d="M270.4,419.7c-8.6,5.7-16.7,12.5-23.9,20.3-3.1,3.3-6,6.7-8.7,10.2,8,10.4,14.5,22,19.5,34.5,3.7,9.2,6.4,18.8,8.1,28.6,1.7-9.8,4.4-19.3,8.1-28.6,6.6-16.8,16.1-31.8,28.2-44.7,1.3-1.4,2.6-2.8,4-4.1-5.9-1.7-11.6-3.8-17.3-6.4-6.2-2.8-12.2-6.1-17.9-9.9h0Z"/>
            <path class="cls-8" d="M337.7,301.8c3.4,8.6,6,17.4,7.7,26.5-1.7,9-4.3,17.9-7.7,26.5-6.6,16.8-16.1,31.8-28.2,44.7-1.3,1.4-2.6,2.8-4,4.1,5.9,1.7,11.6,3.8,17.3,6.4,6.2,2.8,12.2,6.1,17.9,9.9,8.6-5.7,16.7-12.5,23.9-20.3,3.1-3.3,6-6.7,8.7-10.2-8-10.4-14.5-22-19.5-34.5-3.4-8.6-6-17.4-7.7-26.5,1.7-9,4.3-17.9,7.7-26.5,4.9-12.5,11.5-24,19.5-34.5-2.7-3.5-5.6-7-8.7-10.2-7.3-7.8-15.3-14.6-23.9-20.3-5.7,3.8-11.6,7-17.9,9.9-5.6,2.6-11.4,4.7-17.3,6.4,1.4,1.3,2.7,2.7,4,4.1,12.1,12.9,21.5,27.9,28.2,44.7h0Z"/>
            <path class="cls-8" d="M340.7,419.7c-5.7,3.8-11.6,7-17.9,9.9-5.6,2.6-11.4,4.7-17.3,6.4,1.4,1.3,2.7,2.7,4,4.1,12.1,12.9,21.5,27.9,28.2,44.7,3.7,9.2,6.4,18.8,8.1,28.5,1.7-9.8,4.4-19.3,8.1-28.5,4.9-12.5,11.5-24,19.5-34.5-2.7-3.5-5.6-7-8.7-10.2-7.3-7.8-15.3-14.6-23.9-20.3h0Z"/>
            <path class="cls-8" d="M-6.2,328.3c-1.7,9-4.3,17.9-7.7,26.5-4.9,12.5-11.5,24-19.5,34.5,2.7,3.5,5.6,7,8.7,10.2,7.3,7.8,15.3,14.6,23.9,20.3,5.7-3.8,11.6-7,17.9-9.9,5.6-2.6,11.4-4.7,17.3-6.4-1.3-1.3-2.7-2.7-4-4.1-12.1-12.9-21.5-27.9-28.2-44.7-3.4-8.6-6-17.4-7.7-26.5,1.7-9,4.3-17.9,7.7-26.5,6.6-16.8,16.1-31.8,28.2-44.7,1.3-1.4,2.6-2.8,4-4.1-5.9-1.7-11.6-3.8-17.3-6.4-6.2-2.8-12.2-6.1-17.9-9.9-8.6,5.7-16.7,12.5-23.9,20.3-3.1,3.3-6,6.7-8.7,10.2,8,10.4,14.5,22,19.5,34.5,3.4,8.6,6,17.4,7.7,26.5h0Z"/>
            <path class="cls-8" d="M-.8,419.7c-8.6,5.7-16.7,12.5-23.9,20.3-3.1,3.3-6,6.7-8.7,10.2,8,10.4,14.5,22,19.5,34.5,3.7,9.2,6.4,18.8,8.1,28.6,1.7-9.8,4.4-19.3,8.1-28.6,6.6-16.8,16.1-31.8,28.2-44.7,1.3-1.4,2.6-2.8,4-4.1-5.9-1.7-11.6-3.8-17.3-6.4-6.2-2.8-12.2-6.1-17.9-9.9h0Z"/>
            <path class="cls-8" d="M66.5,301.8c3.4,8.6,6,17.4,7.7,26.5-1.7,9-4.3,17.9-7.7,26.5-6.6,16.8-16.1,31.8-28.2,44.7-1.3,1.4-2.6,2.8-4,4.1,5.9,1.7,11.6,3.8,17.3,6.4,6.2,2.8,12.2,6.1,17.9,9.9,8.7-5.7,16.7-12.5,23.9-20.3,3.1-3.3,6-6.7,8.7-10.2-8-10.4-14.5-22-19.5-34.5-3.4-8.6-6-17.4-7.7-26.5,1.7-9,4.3-17.9,7.7-26.5,4.9-12.5,11.5-24,19.5-34.5-2.7-3.5-5.6-7-8.7-10.2-7.3-7.8-15.3-14.6-23.9-20.3-5.7,3.8-11.6,7-17.9,9.9-5.7,2.6-11.4,4.7-17.3,6.4,1.3,1.3,2.7,2.7,4,4.1,12.1,12.9,21.5,27.9,28.2,44.7h0Z"/>
            <path class="cls-8" d="M129.3,328.3c-1.7,9-4.3,17.9-7.7,26.5-4.9,12.5-11.5,24-19.5,34.5,2.7,3.5,5.6,7,8.7,10.2,7.3,7.8,15.3,14.6,23.9,20.3,5.7-3.8,11.6-7,17.9-9.9,5.6-2.6,11.4-4.7,17.3-6.4-1.4-1.3-2.7-2.7-4-4.1-12.1-12.9-21.6-27.9-28.2-44.7-3.4-8.6-6-17.4-7.7-26.5,1.7-9,4.3-17.9,7.7-26.5,6.6-16.8,16.1-31.8,28.2-44.7,1.3-1.4,2.6-2.8,4-4.1-5.9-1.7-11.6-3.8-17.3-6.4-6.2-2.8-12.2-6.1-17.9-9.9-8.7,5.7-16.7,12.5-23.9,20.3-3.1,3.3-6,6.7-8.7,10.2,8,10.4,14.5,22,19.5,34.5,3.4,8.6,6,17.4,7.7,26.5h0Z"/>
            <path class="cls-8" d="M69.5,419.7c-5.7,3.8-11.6,7-17.9,9.9-5.7,2.6-11.4,4.7-17.3,6.4,1.3,1.3,2.7,2.7,4,4.1,12.1,12.9,21.5,27.9,28.2,44.7,3.7,9.2,6.3,18.8,8.1,28.5,1.7-9.8,4.4-19.3,8.1-28.5,4.9-12.5,11.5-24,19.5-34.5-2.7-3.5-5.6-7-8.7-10.2-7.3-7.8-15.3-14.6-23.9-20.3h0Z"/>
            <path class="cls-8" d="M134.8,419.7c-8.7,5.7-16.7,12.5-23.9,20.3-3.1,3.3-6,6.7-8.7,10.2,8,10.4,14.5,22,19.5,34.5,3.7,9.2,6.4,18.8,8.1,28.6,1.7-9.8,4.4-19.3,8.1-28.6,6.6-16.8,16.1-31.8,28.2-44.7,1.3-1.4,2.6-2.8,4-4.1-5.9-1.7-11.6-3.8-17.3-6.4-6.2-2.8-12.2-6.1-17.9-9.9h0Z"/>
          </g>
        </g>
        <polygon class="cls-7" points="269.4 209.5 268.3 209.5 254.3 209.5 254.3 211.4 267.4 211.4 267.4 250.9 268.3 250.9 269.4 250.9 269.5 250.9 269.5 209.5 271.6 209.5 271.6 250.9 273.8 250.9 273.8 209.5 276 209.5 276 250.9 278.2 250.9 278.2 209.5 280.3 209.5 280.3 250.9 282.5 250.9 282.5 211.4 295.6 211.4 295.6 209.5 269.4 209.5"/>
        <path class="cls-7" d="M46.5,229.6c.9,1,2.2,1.7,3.4,2.5l21.2,13.1c-1.2,1-2.8,2-4.4,2.6-1.6.6-3.1,1-4.8,1.2-.3,0-.6,0-.8,0-.3,0-.6,0-.8,0-2.9,0-5.6-.7-8.1-2.1s-4.6-3.3-6.2-5.6h-2.1s.5,1.3,2.3,3.3c1.8,2,3.9,3.5,6.4,4.6s5,1.6,7.7,1.6,1,0,1.5,0c.5,0,1-.1,1.5-.2,2-.4,3.9-1,5.8-1.9,1.6-.8,3.5-2.3,5-4.2l-29.8-18.3c.6,1.6,1.4,2.8,2,3.5h0Z"/>
        <path class="cls-7" d="M74.4,229.7c-1-1.3-2.2-2.1-3.7-3l-21.5-13.3c1.1-.9,2.6-1.8,4-2.4,1.4-.6,2.8-1,4.2-1.2.4,0,.9-.1,1.3-.2s.9,0,1.3,0c2.9,0,5.5.7,7.9,2.1s4.3,3.2,5.9,5.6h2s-.4-1.3-2.1-3.3c-1.7-2-3.7-3.5-6.1-4.6s-4.9-1.7-7.5-1.7h-.6c-.2,0-.4,0-.6,0-3.8.2-7.4,1.6-10.5,4-.9.7-1.7,1.5-2.3,2.3l29.9,18.4c-.4-1-.9-1.9-1.5-2.8h0Z"/>
        <path class="cls-7" d="M44,218l32.7,20.1c0-.4,0-.8,0-1.2s0-.9,0-1.4l-31.9-19.6c-.3.7-.6,1.4-.8,2.1h0Z"/>
        <path class="cls-7" d="M43.5,221.4c0,.4,0,.7,0,1.1,0,.2,0,.4,0,.5l31.8,19.6c.3-.7.6-1.4.8-2.1l-32.7-20.1c0,.3,0,.7,0,1h0Z"/>
        <polygon class="cls-7" points="86.6 250.7 86.6 250.7 86.6 209.3 86.6 209.3 85.9 209.3 84.4 209.3 84.4 250.7 85.9 250.7 86.6 250.7"/>
        <rect class="cls-7" x="93.1" y="209.3" width="2.2" height="41.4"/>
        <polygon class="cls-7" points="116.6 250.7 116.6 248.8 99.7 248.8 99.7 231.4 107.2 231.4 107.2 229.6 99.7 229.6 99.7 211.2 116.6 211.2 116.6 209.3 97.5 209.3 97.5 250.7 116.6 250.7"/>
        <rect class="cls-7" x="88.8" y="209.3" width="2.2" height="41.4"/>
        <polygon class="cls-7" points="218 250.7 218 250.7 218 209.3 218 209.3 217.3 209.3 215.9 209.3 215.9 250.7 217.3 250.7 218 250.7"/>
        <rect class="cls-7" x="224.6" y="209.3" width="2.2" height="41.4"/>
        <polygon class="cls-7" points="248 250.7 248 248.8 231.1 248.8 231.1 231.4 238.6 231.4 238.6 229.6 231.1 229.6 231.1 211.2 248 211.2 248 209.3 228.9 209.3 228.9 250.7 248 250.7"/>
        <rect class="cls-7" x="220.2" y="209.3" width="2.2" height="41.4"/>
        <path class="cls-7" d="M124.3,238.4v-19.1c-1.4,2.9-2.2,6.1-2.2,9.6s.8,6.7,2.2,9.6h0Z"/>
        <path class="cls-7" d="M143.8,250.6c8.7,0,16.3-5.1,19.7-12.6h-2.1c-3.3,6.3-9.9,10.6-17.6,10.6s-4.3-.4-6.3-1v-37.6c2-.7,4.1-1,6.3-1,7.7,0,14.4,4.4,17.7,10.8h2.1c-3.4-7.5-11-12.7-19.8-12.7s-5.9.6-8.5,1.7v40.1c2.6,1.1,5.5,1.7,8.5,1.7h0Z"/>
        <path class="cls-7" d="M128.7,244.5v-31.3c-.8.8-1.5,1.6-2.2,2.5v26.3c.7.9,1.4,1.7,2.2,2.5h0Z"/>
        <path class="cls-7" d="M133.1,247.8v-37.9c-.8.4-1.5.9-2.2,1.4v35c.7.5,1.4,1,2.2,1.4h0Z"/>
        <path class="cls-7" d="M185.3,209.2v41.4h2.2v-39.5h7.4c3.3,0,5.9,1.1,7.7,3.3s2.8,4.6,2.9,7.3v.5c0,2.6-.9,5.1-2.6,7.2s-4.4,3.2-8,3.2h-1.9c1,1.4,2.1,2.7,3.1,4,1.1,1.4,2.1,2.7,3.2,4,1.1,1.4,2.1,2.7,3.2,4,.8,1.1,3.1,4,4.6,5.9h2.4l-12.8-16.3c3.1-.4,5.6-1.8,7.7-4.2,2.1-2.4,3.1-5.1,3.1-8.3s-1.2-6.5-3.7-8.9c-2.5-2.5-5.4-3.7-9-3.7h-9.6,0Z"/>
        <rect class="cls-7" x="181" y="209.2" width="2.2" height="41.4"/>
        <rect class="cls-7" x="176.6" y="209.2" width="2.2" height="41.4"/>
        <path class="cls-7" d="M173.9,209.2h-1.6v41.4h2.2v-41.4h-.5,0Z"/>
        <path class="cls-7" d="M92.7,263c.1,0,.2.1.2.2s-.1.2-.4.3c0,.3-.2.5-.4,1.1-.6,1.6-1.3,3.2-2,4.4,1,.7,2,1.6,2.9,2.7l-1,1c-1-1.2-1.6-1.7-2.6-2.5-1.6,2.4-3.5,4.2-6.7,6.4-.2-.4-.5-.8-.9-1,3-1.9,4.9-3.8,6.6-6.2-1.9-1.1-2.1-1.2-3.3-1.9l.6-1c1.4.6,2.4,1.2,3.4,1.8,1.1-1.8,2-4,2.4-5.9l1.2.5h0Z"/>
        <path class="cls-7" d="M97.3,264.3c1.5.8,2.3,1.4,3.3,2.6l-1,1c-1.1-1.3-1.9-2-3-2.6l.8-1h0ZM96.9,274.3c2.2-.9,4.1-2,6.1-3.4,2.2-1.6,3.6-3.1,5.5-5.5.2.4.4.8.8,1.1-2.2,2.7-3.6,4-5.6,5.6-1.4,1.1-2.6,1.8-5.3,3.3,0,.2-.1.4-.3.4s-.2,0-.3-.2l-.8-1.1h0Z"/>
        <path class="cls-7" d="M116.5,266.8c0,0,.2.1.2.2,0,.1-.2.2-.4.2-1.2,2-1.7,2.8-2.7,3.8-1,1-1.8,1.6-3.2,2.5-.2-.5-.4-.8-.7-1.1,1.8-1.1,3.1-2.1,4.1-3.5.7-.9.9-1.2,1.6-2.6l1.3.6h0ZM120.3,265.5c2.7,2,4.1,3.8,5.7,6.6l-1.2.9c-1.4-2.8-2.9-4.6-5.4-6.6l.8-.9h0ZM122.5,263.8c.8.5,1.4,1,2.3,1.8l-.7.8c-.8-.9-1.2-1.2-2.2-1.9,0,0,.6-.7.6-.7ZM123.8,262.2c.8.5,1.4,1,2.3,1.8l-.7.8c-.8-.9-1.2-1.2-2.2-1.9l.6-.7h0Z"/>
        <path class="cls-7" d="M140.9,270.1c-.9,0-2.3,0-3.2,0h-7.1c-.9,0-2.5,0-3.2,0v-1.3c.7,0,2.3,0,3.2,0h7.1c1,0,2.4,0,3.2,0v1.3Z"/>
        <path class="cls-7" d="M144.6,267c1.2.6,1.9,1.1,2.9,2.1l-.9,1.1c-1.3-1.3-1.7-1.6-2.7-2.1l.7-1h0ZM145.5,275.2c1.8-.9,3.9-2.4,5.8-4,2-1.7,3.5-3.4,4.9-5.4.3.4.6.7.9,1-2.2,2.9-3.7,4.4-6.1,6.4-1,.8-1.8,1.4-4,3,0,.3-.1.4-.3.4s-.2,0-.3-.2l-.9-1h0ZM147.3,263.3c1.1.6,1.8,1.2,2.9,2.3l-1,1c-1-1.1-1.7-1.7-2.7-2.3l.8-1h0Z"/>
        <path class="cls-7" d="M160.4,267.4c.8.8,1.5,1.9,2,3.1l-1.2.5c-.6-1.4-.9-2-1.7-3l.9-.6h0ZM170.1,267.1c.1,0,.2.2.2.2,0,.1-.1.2-.4.3-1.2,3.5-2.3,5.2-4.5,6.9-1.1.9-1.8,1.3-4,2.4-.2-.4-.3-.7-.7-1.1,1.9-.8,2.7-1.2,3.8-2.1,1.6-1.2,2.9-2.9,3.6-4.7.2-.6.5-1.3.7-2.4,0-.2,0-.2,0-.3l1.2.6h0ZM163.8,266.2c0,0,0,.1.1.2.6.9,1.1,1.9,1.5,3.1l-1.2.4c-.5-1.6-.6-1.9-1.4-3.2l.9-.5h0Z"/>
        <path class="cls-7" d="M183.5,264l1.2.9c.1,0,.2.2.2.3s-.1.2-.4.3c-.6,2.2-1.6,4.2-2.8,5.7-1.7,2-3.8,3.5-7.1,5-.2-.5-.4-.8-.8-1.1,3.5-1.6,5.3-2.8,7-4.9,1.1-1.3,1.8-2.8,2.4-4.8l-4.7.3c-.8,0-4.1.2-5.1.3l-.2-1.4c1.4,0,4,0,5.3-.2l4.8-.3.3-.3h0ZM187.6,262.7c0,1-.8,1.8-1.8,1.8s-1.8-.8-1.8-1.8.8-1.8,1.8-1.8,1.8.8,1.8,1.8ZM184.7,262.7c0,.6.5,1.1,1.1,1.1s1.1-.5,1.1-1.1-.5-1.1-1.1-1.1-1.1.5-1.1,1.1Z"/>
        <path class="cls-7" d="M192.9,261.7l1.1.9c0,0,.1.2.1.2s0,.2-.4.4c-.4,1.2-.9,2.5-1.8,4.3,1.1.9,1.5,1.4,1.8,2.2.2.6.3,1.2.3,1.9,0,1.2-.5,2-1.5,2.3-.4.1-.7.2-1.7.2,0-.6,0-.9-.3-1.4.3,0,.9,0,1.2,0,.8,0,1.1-.4,1.1-1.3s-.3-1.8-.9-2.6c-.3-.3-.4-.4-.9-.9l-.4-.3c1.1-2.6,1.4-3.2,1.8-4.5h-2.6v9.4c0,2.3,0,4.1,0,5.3h-1.3c0-1.2,0-3,0-5.3v-9c0-.6,0-1.3,0-1.6.4,0,.8,0,1.3,0h2.8l.3-.3h0ZM199.3,269.5c.2.9.5,1.9,1,2.7,1.1-.6,1.8-1.1,2.7-1.9l1,.7c0,0,.1.2.1.3s-.1.2-.3.2h-.1c-.9.6-1.9,1.2-2.9,1.7h0c.9,1.3,1.8,2,3.6,3.1-.3.3-.6.6-.9,1-1.7-1-2.8-1.9-3.7-3.3-.9-1.3-1.4-2.6-1.8-4.4h-1.9v5.8c1.5-.3,2.6-.7,3.6-1.1l.2,1c-1.6.6-3.5,1.2-6.4,1.9-.2.3-.2.4-.3.4s-.2,0-.3-.2l-.6-1.3c1-.2,1.8-.3,2.6-.5,0-.4,0-.8,0-1.4v-10.3c0-.6,0-1.3,0-1.6.4,0,.8,0,1.3,0h5.4c.5,0,.9,0,1.3,0,0,.3,0,1,0,1.6v4.3c0,.9,0,1.5,0,1.9h-1.2v-.5h-2.6,0ZM201.9,263.4h-5.6v1.8h5.6v-1.8ZM201.9,266.3h-5.6v2h5.6v-2Z"/>
        <path class="cls-7" d="M214.1,276c.7.1,1.4.2,2.2.2,1.6,0,4.2,0,5.6-.2-.2.4-.3.7-.3,1.2-2.8,0-3.7,0-4.6,0-2.6,0-3.8-.2-5-.9-1.2-.7-2-1.5-2.7-3-.8,1.8-1.9,3.1-3.7,4.3-.2-.4-.4-.6-.7-.9,1.5-1.2,2.1-1.9,2.8-3.1.8-1.4,1.1-2.5,1.4-4.5l1.2.3c.3,0,.4.1.4.3s-.1.2-.4.3c-.1.7-.3,1.4-.5,2,.6,1.6,1.4,2.4,2.5,3.1.2.1.4.2.6.3v-7.6h-2.1c-1,0-2.6,0-3.6,0v-1.3c.9,0,2.6,0,3.6,0h5.4c1.1,0,2.7,0,3.6,0v1.3c-1,0-2.5,0-3.6,0h-2v2.9h2c.9,0,2.1,0,2.9,0v1.2c-.8,0-2,0-2.9,0h-2v3.9h0ZM212.8,262.2c0-.5,0-.9,0-1.2h1.3c.2.1.3.2.3.3s0,.2-.3.4v1.4h3.6c1.2,0,2.7,0,3.6,0,0,.6,0,1,0,1.4v.6c0,.4,0,.8,0,1.4h-1.3c0-.5,0-1,0-1.4v-.8h-13v.8c0,.3,0,.9,0,1.4h-1.3c0-.5,0-1,0-1.4v-.6c0-.4,0-.7,0-1.4.9,0,2.4,0,3.6,0h3.5v-.9h0Z"/>
        <path class="cls-7" d="M229.3,262.5c.2,0,.3.2.3.3s0,.2-.5.3c-1.6,3.2-3.2,5.3-5.5,7.2-.3-.6-.4-.6-.8-1,1.3-1,2-1.8,3-3.1,1-1.3,1.5-2.2,2.4-4.2l1.2.5h0ZM236.8,277.2c-.5-.8-.9-1.4-1.3-1.9-1.3.2-1.9.3-5,.7-.9.1-1.1.1-3.3.4-.9.1-1.1.1-2.4.3-.2.2-.2.3-.4.3s-.2,0-.3-.3l-.6-1.3c1,0,1.4,0,2.3-.1,1.1-1.6,1.4-2.2,2.4-4.2.9-1.7,1-2.1,1.6-3.4l1.4.6c0,0,.2.1.2.2,0,.1-.2.2-.4.3-1.8,3.4-2.5,4.8-3.7,6.4.5,0,1.1,0,1.9-.1,2.6-.2,3-.2,5.7-.6-.7-.8-1.4-1.5-2.5-2.5l.8-.7c2.1,1.7,3.3,3,4.8,5.2l-1.1.8h0ZM232.5,261.7c.7,1.9,1.5,3.1,2.5,4.4,1,1.2,2,2,3.7,3-.5.3-.8.6-1,1-1.7-1.1-2.7-2-3.8-3.5-1.1-1.4-1.8-2.6-2.4-4.6l1-.3h0Z"/>
        <path class="cls-7" d="M241.8,273.4c0,1.9,0,3.4,0,4.2h-1.3c0-1,0-2.4,0-4.2v-10c0-.6,0-1.3,0-1.6.5,0,1.1,0,1.8,0h2.6c.8,0,1.4,0,2,0,0,.3,0,1,0,1.6v2.4c0,.9,0,1.5,0,1.9h-1.2v-.5h-4.1v6.2h0ZM245.9,262.9h-4.1v1.2h4.1v-1.2ZM245.9,265.1h-4.1v1.2h4.1v-1.2ZM247,272.8c-.2,1.2-.6,2.1-1.4,3-.7.7-1.3,1.1-2.6,1.7-.2-.6-.3-.8-.6-1,1.2-.5,1.9-.9,2.5-1.6.5-.6.8-1.2.9-2h-1.3c-.5,0-1.3,0-1.8,0v-1.1c.5,0,1.3,0,1.8,0h1.4v-1.9h-.9c-.5,0-1.3,0-1.8,0v-1.1c.5,0,1.3,0,1.8,0h6.4c.5,0,1.3,0,1.8,0v1.1c-.5,0-1.3,0-1.8,0h-.7v1.9h1.3c.5,0,1.3,0,1.8,0v1.1c-.5,0-1.3,0-1.8,0h-1.3v1.4c0,1.4,0,2.5,0,3.2h-1.3c0-.7,0-1.7,0-3.2v-1.4h-2.6,0ZM247,271.7h2.5v-1.9h-2.5v1.9ZM250.4,267.8h-1.2c0-.4,0-1,0-1.9v-2.4c0-.6,0-1.3,0-1.6.6,0,1.2,0,2,0h2.7c.8,0,1.3,0,1.8,0,0,.3,0,1,0,1.6v8.9c0,.8,0,1.7,0,2.8,0,.3,0,.7,0,.9,0,.8-.1,1.1-.6,1.4s-.9.3-2.2.3c0-.7-.1-.9-.4-1.4.7,0,1,0,1.3,0,.6,0,.7,0,.7-.7v-8.5h-4.1v.5h0ZM254.5,262.9h-4.1v1.2h4.1v-1.2ZM254.5,265.1h-4.1v1.2h4.1v-1.2Z"/>
        <path class="cls-4" d="M169.9,194.3l-13.9-13.9h-4.7v-4.7l-8.1-8.1,8.1-8.1v-4.7h4.7l13.9-13.9,13.9,13.9h4.6v4.6l8.2,8.2-8.2,8.2v4.6h-4.6l-13.9,13.9h0ZM152.7,179.1h3.9l13.3,13.3,13.3-13.3h3.8v-3.8l7.6-7.6-7.6-7.6v-3.8h-3.8l-13.3-13.3-13.3,13.3h-3.9v3.9l-7.5,7.5,7.5,7.5v3.9h0Z"/>
        <polygon class="cls-6" points="187.8 175.6 195.7 167.7 187.8 159.8 187.8 155.6 183.6 155.6 169.9 142 156.4 155.6 152.1 155.6 152.1 159.9 144.2 167.7 152.1 175.5 152.1 179.8 156.4 179.8 169.9 193.4 183.6 179.8 187.8 179.8 187.8 175.6"/>
        <path class="cls-3" d="M186.1,158.8v-.9h-3l-9.6-9.6h0l-.6-.6h0l-.9-.9h0l-.6-.6h0l-.9-.9h0l-.6-.6h0l-.6.6h0l-.9.9h0l-.6.6h0l-.9.9h0l-.6.6h0l-9.6,9.6h-3v.9h3.4l9.8-9.8.9.9-10.2,10.2h-3.9v.9h4.3s10.4-10.4,10.4-10.4l.9.9-10.8,10.8h-4.8v.9h5.1l11.1-11.1,11.1,11.1h5.1v-.9h-4.8l-10.8-10.8.9-.9,10.4,10.4h4.3v-.9h-3.9l-10.2-10.2.9-.9,9.8,9.8h3.4ZM169.9,146l.9.9-.9.9-.9-.9.9-.9ZM167.6,148.3l.9-.9.9.9-.9.9-.9-.9ZM169.9,150.7l-.9-.9.9-.9.9.9-.9.9ZM171.4,149.2l-.9-.9.9-.9.9.9-.9.9ZM181,172.4h0l-11.1,11.1-11.1-11.1h-5.1v.9h4.8l10.8,10.8-.9.9-10.4-10.4h-4.3v.9h3.9l10.2,10.2-.9.9-9.8-9.8h-3.4v.9h3l9.6,9.6h0l.6.6h0l.9.9h0l.6.6h0l.9.9h0l.6.6h0l.6-.6h0l.9-.9h0l.6-.6h0l.9-.9h0l.6-.6h0l9.6-9.6h3v-.9h-3.4l-9.8,9.8-.9-.9,10.2-10.2h3.9v-.9h-4.3s-10.4,10.4-10.4,10.4l-.9-.9,10.8-10.8h4.8v-.9h-5.1ZM167.6,187.1l.9-.9.9.9-.9.9-.9-.9ZM169.9,189.4l-.9-.9.9-.9.9.9-.9.9ZM172.3,187.1l-.9.9-.9-.9.9-.9.9.9ZM170.8,185.6l-.9.9-.9-.9.9-.9.9.9Z"/>
        <polygon class="cls-7" points="177.4 171.6 168.3 162.5 170.1 160.8 172.2 163 179.2 163 170.1 153.8 161.4 162.5 162.5 163.7 162.5 163.7 171.6 172.8 169.9 174.5 167.7 172.4 160.7 172.4 169.9 181.5 178.6 172.8 177.4 171.6 177.4 171.6"/>
        <path class="cls-2" d="M307.9,142.8v-1.9h-109.6l-28.3-28.3h0l-28.3,28.3H32v1.9h110.4l21.1-21.2,1.8,1.8-21.9,21.9H32v1.9h112.3s0,0,0,0l22.5-22.5,1.8,1.8-23.2,23.2H32v1.9h114.1l23.8-23.8,23.8,23.8h0s114.1,0,114.1,0v-1.9h-113.3l-23.2-23.2,1.8-1.8,22.5,22.5h0s0,0,0,0h112.3v-1.9h-111.5l-21.9-21.9,1.8-1.8,21.1,21.2h110.4s0,0,0,0ZM171.8,117.1l-1.8,1.8-1.8-1.8,1.8-1.8,1.8,1.8ZM165,120.3l1.8-1.8,1.8,1.8-1.8,1.8-1.8-1.8ZM169.9,125.3l-1.8-1.8,1.8-1.8,1.8,1.8-1.8,1.8ZM173.1,122.1l-1.8-1.8,1.8-1.8,1.8,1.8-1.8,1.8Z"/>
        <path class="cls-4" d="M169.9,290.1l13.9,13.9h4.7v4.7l8.1,8.1-8.1,8.1v4.7h-4.7l-13.9,13.9-13.9-13.9h-4.6v-4.6l-8.2-8.2,8.2-8.2v-4.6h4.6l13.9-13.9h0ZM187.2,305.3h-3.9l-13.3-13.3-13.3,13.3h-3.8v3.8l-7.6,7.6,7.6,7.6v3.8h3.8l13.3,13.3,13.3-13.3h3.9v-3.9l7.5-7.5-7.5-7.5v-3.9Z"/>
        <polygon class="cls-6" points="152.1 308.8 144.2 316.7 152.1 324.6 152.1 328.8 156.4 328.8 169.9 342.4 183.6 328.8 187.9 328.8 187.9 324.5 195.7 316.7 187.9 308.9 187.9 304.6 183.6 304.6 169.9 291 156.4 304.6 152.1 304.6 152.1 308.8"/>
        <path class="cls-3" d="M153.8,325.6v.9h3l9.6,9.6h0l.6.6h0l.9.9h0l.6.6h0l.9.9h0l.6.6h0l.6-.6h0l.9-.9h0l.6-.6h0l.9-.9h0l.6-.6h0l9.6-9.6h3v-.9h-3.4l-9.8,9.8-.9-.9,10.2-10.2h3.9v-.9h-4.3s-10.4,10.4-10.4,10.4l-.9-.9,10.8-10.8h4.8v-.9h-5.1l-11.1,11-11.1-11h-5.1v.9h4.8l10.8,10.8-.9.9-10.4-10.4h-4.3v.9h3.9l10.2,10.2-.9.9-9.8-9.8h-3.4ZM170,338.4l-.9-.9.9-.9.9.9-.9.9ZM172.3,336.1l-.9.9-.9-.9.9-.9.9.9ZM170,333.7l.9.9-.9.9-.9-.9.9-.9ZM168.5,335.2l.9.9-.9.9-.9-.9.9-.9ZM158.9,312h0l11.1-11,11.1,11h5.1v-.9h-4.8l-10.8-10.8.9-.9,10.4,10.4h4.3v-.9h-3.9l-10.2-10.2.9-.9,9.8,9.8h3.4v-.9h-3l-9.6-9.6h0l-.6-.6h0l-.9-.9h0l-.6-.6h0l-.9-.9h0l-.6-.6h0l-.6.6h0l-.9.9h0l-.6.6h0l-.9.9h0l-.6.6h0l-9.6,9.6h-3v.9h3.4l9.8-9.8.9.9-10.2,10.2h-3.9v.9h4.3s10.4-10.4,10.4-10.4l.9.9-10.8,10.8h-4.8v.9h5.1ZM172.3,297.3l-.9.9-.9-.9.9-.9.9.9ZM170,295l.9.9-.9.9-.9-.9.9-.9ZM167.6,297.3l.9-.9.9.9-.9.9-.9-.9ZM169.1,298.8l.9-.9.9.9-.9.9-.9-.9Z"/>
        <polygon class="cls-7" points="162.5 312.8 171.6 321.9 169.9 323.6 167.7 321.4 160.7 321.4 169.9 330.6 178.6 321.9 177.4 320.7 177.4 320.7 168.3 311.6 170.1 309.9 172.2 312 179.2 312 170.1 302.9 161.4 311.6 162.5 312.8 162.5 312.8"/>
        <path class="cls-2" d="M32,341.3v1.9h109.6l28.3,28.3h0l28.3-28.3h109.6v-1.9h-110.4l-21.1,21.2-1.8-1.8,21.9-21.9h111.5v-1.9h-112.3s0,0,0,0l-22.5,22.5-1.8-1.8,23.2-23.2h113.3v-1.9h-114.1l-23.8,23.8-23.8-23.8h0s-114.2,0-114.2,0v1.9h113.3l23.2,23.2-1.8,1.8-22.5-22.5h0s0,0,0,0H32v1.9h111.5l21.9,21.9-1.8,1.8-21.1-21.1H32ZM168.1,366.9l1.8-1.8,1.8,1.8-1.8,1.8-1.8-1.8ZM174.9,363.8l-1.8,1.8-1.8-1.8,1.8-1.8,1.8,1.8ZM169.9,358.8l1.8,1.8-1.8,1.8-1.8-1.8,1.8-1.8ZM166.8,362l1.8,1.8-1.8,1.8-1.8-1.8,1.8-1.8Z"/>
        <rect class="cls-7" x="45.9" y="269.5" width="32.4" height="1.1"/>
        <rect class="cls-7" x="260.3" y="269.5" width="32.4" height="1.1"/>
        <path class="cls-2" d="M141.8,32.8c-1.2-.3-3.3-.3-5.2-.3s-3.7,0-4.3-.2c-.5-.1-.7-.4-.7-.8s.1-.8.8-1c.7-.3,2.1-.5,4.2-.5s3.9.2,5.8.5v-.8c-1.8-.4-3.8-.5-5.8-.5-2.4,0-4,.3-4.9.6-.9.3-1.3.9-1.3,1.7s.3,1.2,1,1.5c.8.2,2.6.4,5.5.4h0c1.9,0,3.5,0,4.1.2.8.2,1,.5,1,1s-.2.9-.7,1.1c-.8.3-2.3.5-4.3.5-2.1,0-4.2-.2-6.2-.6v.9c1,.3,3.4.6,6.3.6s4.1-.2,5.1-.7c.7-.3,1.1-.8,1.1-1.8s-.4-1.5-1.4-1.7h0Z"/>
        <path class="cls-2" d="M177.7,35.5h0c-3.4-2.1-6.9-4.1-10.3-6.2h-.9v7.4h1.1v-6.2h0c3.5,2.1,6.9,4.1,10.3,6.2h.9v-7.4h-1.1v6.2Z"/>
        <path class="cls-2" d="M189.3,29.4l-6.7,7.4h0c0,0,1.3,0,1.3,0l1.5-1.7h8.5l1.5,1.7h1.3c0,0-6.7-7.4-6.7-7.4h-.7,0ZM193.1,34.3h-6.9l2.1-2.3c.7-.7,1.3-1.5,1.3-1.5h0c0,.1.7.8,1.3,1.5l2.1,2.3h0Z"/>
        <polygon class="cls-2" points="201.6 35.9 201.6 33.4 211.6 33.4 211.6 32.6 201.6 32.6 201.6 30.3 212 30.3 212 29.4 200.5 29.4 200.5 36.8 212.1 36.8 212.1 35.9 201.6 35.9"/>
        <path class="cls-2" d="M160.6,31.5v-1.4l-1.2-.8h-2.1l-2.1-1.5-2.1,1.5h-2.1l-1.2.8v1.4l-2.1,1.4,2.1,1.4v1.4l1.2.8h2.1l2.1,1.5,2.1-1.5h2.1l1.2-.8v-1.4l2.1-1.4s-2.1-1.4-2.1-1.4ZM159.6,30.1v.8l-1.1-.8h1.1ZM159.6,31.8v2.3l-2.6,1.7h-3.8l-2.6-1.7v-2.3l2.6-1.7h3.8s2.6,1.7,2.6,1.7ZM155.1,28.8l.7.5h-1.4l.7-.5h0ZM150.6,30.1h1.1l-1.1.8v-.8ZM148.9,33l.7-.5v.9l-.7-.5h0ZM150.6,35.9v-.8l1.1.8h-1.1ZM155.1,37.2l-.7-.5h1.4l-.7.5h0ZM159.6,35.9h-1.1l1.1-.8v.8ZM160.6,32.5l.7.5-.7.5v-.9h0Z"/>
        <path class="cls-2" d="M200.8,451.2c1.2.3,3.3.3,5.2.3s3.7,0,4.3.2c.5.1.7.4.7.8s-.1.8-.8,1c-.7.3-2.1.5-4.2.5s-3.9-.2-5.8-.5v.8c1.8.4,3.8.5,5.8.5,2.4,0,4-.3,4.9-.6.9-.3,1.3-.9,1.3-1.7s-.3-1.2-1-1.5c-.8-.2-2.6-.4-5.5-.4h0c-1.9,0-3.5,0-4.1-.2-.8-.1-1-.5-1-1s.2-.9.7-1.1c.8-.4,2.3-.5,4.3-.5,2.1,0,4.2.2,6.2.6v-.9c-1-.3-3.4-.6-6.3-.6s-4.1.2-5.1.7c-.7.4-1.1.8-1.1,1.8s.4,1.5,1.4,1.7h0Z"/>
        <path class="cls-2" d="M164.8,448.5h0c3.4,2.1,6.9,4.1,10.3,6.2h.9v-7.4h-1.1v6.2h0c-3.5-2.1-6.9-4.1-10.3-6.2h-.9v7.4h1.1v-6.2Z"/>
        <path class="cls-2" d="M153.3,454.7l6.7-7.4h0c0,0-1.3,0-1.3,0l-1.5,1.7h-8.5l-1.5-1.7h-1.3c0,0,6.7,7.4,6.7,7.4h.7,0ZM149.4,449.8h6.9l-2.1,2.3c-.7.7-1.3,1.5-1.3,1.5h0c0-.1-.7-.8-1.3-1.5l-2.1-2.3h0Z"/>
        <polygon class="cls-2" points="141 448.2 141 450.7 131 450.7 131 451.5 141 451.5 141 453.8 130.5 453.8 130.5 454.7 142.1 454.7 142.1 447.3 130.5 447.3 130.5 448.2 141 448.2"/>
        <path class="cls-2" d="M181.9,452.5v1.4l1.2.8h2.1l2.1,1.5,2.1-1.5h2.1l1.2-.8v-1.4l2.1-1.4-2.1-1.4v-1.4l-1.2-.8h-2.1l-2.1-1.5-2.1,1.5h-2.1l-1.2.8v1.4l-2.1,1.4,2.1,1.4ZM182.9,454v-.8l1.1.8h-1.1ZM182.9,452.2v-2.3l2.6-1.7h3.8l2.6,1.7v2.3l-2.6,1.7h-3.8l-2.6-1.7ZM187.4,455.3l-.7-.5h1.4l-.7.5h0ZM191.9,454h-1.1l1.1-.8v.8ZM193.6,451.1l-.7.5v-.9l.7.5h0ZM191.9,448.2v.8l-1.1-.8h1.1ZM187.4,446.9l.7.5h-1.4l.7-.5h0ZM182.9,448.2h1.1l-1.1.8v-.8ZM181.9,451.6l-.7-.5.7-.5v.9h0Z"/>
        <g class="cls-5">
          <g>
            <path class="cls-9" d="M370.5,152.6c1.7-8.7,4.3-17.2,7.7-25.5,4.9-12,11.5-23.1,19.5-33.2-2.7-3.4-5.6-6.7-8.7-9.8-7.3-7.5-15.3-14-23.9-19.5-5.7,3.6-11.6,6.8-17.9,9.5-5.6,2.5-11.4,4.5-17.3,6.1,1.4,1.3,2.7,2.6,4,3.9,12.1,12.4,21.5,26.9,28.2,43,3.4,8.3,6,16.8,7.7,25.5-1.7,8.7-4.3,17.2-7.7,25.5-6.6,16.1-16.1,30.6-28.2,43-1.3,1.3-2.6,2.6-4,3.9,5.9,1.6,11.6,3.6,17.3,6.1,6.2,2.7,12.2,5.9,17.9,9.5,8.6-5.5,16.7-12,23.9-19.5,3.1-3.1,6-6.4,8.7-9.9-8-10-14.5-21.1-19.5-33.1-3.4-8.3-6-16.8-7.7-25.5h0Z"/>
            <path class="cls-9" d="M365.1,64.6c8.6-5.5,16.7-12,23.9-19.5,3.1-3.2,6-6.4,8.7-9.8-8-10-14.5-21.1-19.5-33.2-3.7-8.9-6.4-18.1-8.1-27.5-1.7,9.4-4.4,18.6-8.1,27.5-6.6,16.1-16.1,30.6-28.2,43-1.3,1.3-2.6,2.6-4,3.9,5.9,1.6,11.6,3.7,17.3,6.1,6.2,2.7,12.2,5.9,17.9,9.5h0Z"/>
            <path class="cls-9" d="M370.5,152.6c1.7-8.7,4.3-17.2,7.7-25.5,4.9-12,11.5-23.1,19.5-33.2-2.7-3.4-5.6-6.7-8.7-9.8-7.3-7.5-15.3-14-23.9-19.5-5.7,3.6-11.6,6.8-17.9,9.5-5.6,2.5-11.4,4.5-17.3,6.1,1.4,1.3,2.7,2.6,4,3.9,12.1,12.4,21.5,26.9,28.2,43,3.4,8.3,6,16.8,7.7,25.5-1.7,8.7-4.3,17.2-7.7,25.5-6.6,16.1-16.1,30.6-28.2,43-1.3,1.3-2.6,2.6-4,3.9,5.9,1.6,11.6,3.6,17.3,6.1,6.2,2.7,12.2,5.9,17.9,9.5,8.6-5.5,16.7-12,23.9-19.5,3.1-3.1,6-6.4,8.7-9.9-8-10-14.5-21.1-19.5-33.1-3.4-8.3-6-16.8-7.7-25.5h0Z"/>
            <path class="cls-9" d="M365.1,64.6c8.6-5.5,16.7-12,23.9-19.5,3.1-3.2,6-6.4,8.7-9.8-8-10-14.5-21.1-19.5-33.2-3.7-8.9-6.4-18.1-8.1-27.5-1.7,9.4-4.4,18.6-8.1,27.5-6.6,16.1-16.1,30.6-28.2,43-1.3,1.3-2.6,2.6-4,3.9,5.9,1.6,11.6,3.7,17.3,6.1,6.2,2.7,12.2,5.9,17.9,9.5h0Z"/>
            <path class="cls-9" d="M370.5,152.6c1.7-8.7,4.3-17.2,7.7-25.5,4.9-12,11.5-23.1,19.5-33.2-2.7-3.4-5.6-6.7-8.7-9.8-7.3-7.5-15.3-14-23.9-19.5-5.7,3.6-11.6,6.8-17.9,9.5-5.6,2.5-11.4,4.5-17.3,6.1,1.4,1.3,2.7,2.6,4,3.9,12.1,12.4,21.5,26.9,28.2,43,3.4,8.3,6,16.8,7.7,25.5-1.7,8.7-4.3,17.2-7.7,25.5-6.6,16.1-16.1,30.6-28.2,43-1.3,1.3-2.6,2.6-4,3.9,5.9,1.6,11.6,3.6,17.3,6.1,6.2,2.7,12.2,5.9,17.9,9.5,8.6-5.5,16.7-12,23.9-19.5,3.1-3.1,6-6.4,8.7-9.9-8-10-14.5-21.1-19.5-33.1-3.4-8.3-6-16.8-7.7-25.5h0Z"/>
            <path class="cls-9" d="M365.1,64.6c8.6-5.5,16.7-12,23.9-19.5,3.1-3.2,6-6.4,8.7-9.8-8-10-14.5-21.1-19.5-33.2-3.7-8.9-6.4-18.1-8.1-27.5-1.7,9.4-4.4,18.6-8.1,27.5-6.6,16.1-16.1,30.6-28.2,43-1.3,1.3-2.6,2.6-4,3.9,5.9,1.6,11.6,3.7,17.3,6.1,6.2,2.7,12.2,5.9,17.9,9.5h0Z"/>
            <path class="cls-9" d="M370.5,152.6c1.7-8.7,4.3-17.2,7.7-25.5,4.9-12,11.5-23.1,19.5-33.2-2.7-3.4-5.6-6.7-8.7-9.8-7.3-7.5-15.3-14-23.9-19.5-5.7,3.6-11.6,6.8-17.9,9.5-5.6,2.5-11.4,4.5-17.3,6.1,1.4,1.3,2.7,2.6,4,3.9,12.1,12.4,21.5,26.9,28.2,43,3.4,8.3,6,16.8,7.7,25.5-1.7,8.7-4.3,17.2-7.7,25.5-6.6,16.1-16.1,30.6-28.2,43-1.3,1.3-2.6,2.6-4,3.9,5.9,1.6,11.6,3.6,17.3,6.1,6.2,2.7,12.2,5.9,17.9,9.5,8.6-5.5,16.7-12,23.9-19.5,3.1-3.1,6-6.4,8.7-9.9-8-10-14.5-21.1-19.5-33.1-3.4-8.3-6-16.8-7.7-25.5h0Z"/>
            <path class="cls-9" d="M365.1,64.6c8.6-5.5,16.7-12,23.9-19.5,3.1-3.2,6-6.4,8.7-9.8-8-10-14.5-21.1-19.5-33.2-3.7-8.9-6.4-18.1-8.1-27.5-1.7,9.4-4.4,18.6-8.1,27.5-6.6,16.1-16.1,30.6-28.2,43-1.3,1.3-2.6,2.6-4,3.9,5.9,1.6,11.6,3.7,17.3,6.1,6.2,2.7,12.2,5.9,17.9,9.5h0Z"/>
            <path class="cls-9" d="M362.1,178c3.4-8.3,6-16.8,7.7-25.5-1.7-8.7-4.3-17.2-7.7-25.5-6.6-16.1-16.1-30.6-28.2-43-1.3-1.3-2.6-2.6-4-3.9,5.9-1.6,11.6-3.7,17.3-6.1,6.2-2.7,12.2-5.9,17.9-9.5,8.6,5.5,16.7,12,23.9,19.5,3.1,3.2,6,6.4,8.7,9.8-8,10-14.5,21.1-19.5,33.2-3.4,8.3-6,16.8-7.7,25.5,1.7,8.7,4.3,17.2,7.7,25.5,4.9,12,11.5,23.1,19.5,33.2-2.7,3.4-5.6,6.7-8.7,9.9-7.3,7.5-15.3,14-23.9,19.5-5.7-3.6-11.6-6.8-17.9-9.5-5.6-2.5-11.4-4.5-17.3-6.1,1.4-1.3,2.7-2.6,4-3.9,12.1-12.4,21.5-26.9,28.2-43h0Z"/>
            <path class="cls-9" d="M365.1,64.6c-5.7-3.6-11.6-6.8-17.9-9.5-5.6-2.5-11.4-4.5-17.3-6.1,1.4-1.3,2.7-2.6,4-3.9,12.1-12.4,21.5-26.9,28.2-43,3.7-8.9,6.4-18.1,8.1-27.5,1.7,9.4,4.4,18.6,8.1,27.5,4.9,12,11.5,23.1,19.5,33.2-2.7,3.4-5.6,6.7-8.7,9.8-7.3,7.5-15.3,14-23.9,19.5h0Z"/>
            <path class="cls-9" d="M362.1,178c3.4-8.3,6-16.8,7.7-25.5-1.7-8.7-4.3-17.2-7.7-25.5-6.6-16.1-16.1-30.6-28.2-43-1.3-1.3-2.6-2.6-4-3.9,5.9-1.6,11.6-3.7,17.3-6.1,6.2-2.7,12.2-5.9,17.9-9.5,8.6,5.5,16.7,12,23.9,19.5,3.1,3.2,6,6.4,8.7,9.8-8,10-14.5,21.1-19.5,33.2-3.4,8.3-6,16.8-7.7,25.5,1.7,8.7,4.3,17.2,7.7,25.5,4.9,12,11.5,23.1,19.5,33.2-2.7,3.4-5.6,6.7-8.7,9.9-7.3,7.5-15.3,14-23.9,19.5-5.7-3.6-11.6-6.8-17.9-9.5-5.6-2.5-11.4-4.5-17.3-6.1,1.4-1.3,2.7-2.6,4-3.9,12.1-12.4,21.5-26.9,28.2-43h0Z"/>
            <path class="cls-9" d="M365.1,64.6c-5.7-3.6-11.6-6.8-17.9-9.5-5.6-2.5-11.4-4.5-17.3-6.1,1.4-1.3,2.7-2.6,4-3.9,12.1-12.4,21.5-26.9,28.2-43,3.7-8.9,6.4-18.1,8.1-27.5,1.7,9.4,4.4,18.6,8.1,27.5,4.9,12,11.5,23.1,19.5,33.2-2.7,3.4-5.6,6.7-8.7,9.8-7.3,7.5-15.3,14-23.9,19.5h0Z"/>
            <path class="cls-9" d="M370.5,332c1.7,9,4.3,17.9,7.7,26.5,4.9,12.5,11.5,24,19.5,34.5-2.7,3.5-5.6,7-8.7,10.2-7.3,7.8-15.3,14.6-23.9,20.3-5.7-3.8-11.6-7-17.9-9.9-5.6-2.6-11.4-4.7-17.3-6.4,1.4-1.3,2.7-2.7,4-4.1,12.1-12.9,21.5-27.9,28.2-44.7,3.4-8.6,6-17.4,7.7-26.5-1.7-9-4.3-17.9-7.7-26.5-6.6-16.8-16.1-31.8-28.2-44.7-1.3-1.4-2.6-2.8-4-4.1,5.9-1.7,11.6-3.8,17.3-6.4,6.2-2.8,12.2-6.1,17.9-9.9,8.6,5.7,16.7,12.5,23.9,20.3,3.1,3.3,6,6.7,8.7,10.2-8,10.4-14.5,22-19.5,34.5-3.4,8.6-6,17.4-7.7,26.5h0Z"/>
            <path class="cls-9" d="M365.1,423.4c8.6,5.7,16.7,12.5,23.9,20.3,3.1,3.3,6,6.7,8.7,10.2-8,10.4-14.5,22-19.5,34.5-3.7,9.2-6.4,18.8-8.1,28.6-1.7-9.8-4.4-19.3-8.1-28.6-6.6-16.8-16.1-31.8-28.2-44.7-1.3-1.4-2.6-2.8-4-4.1,5.9-1.7,11.6-3.8,17.3-6.4,6.2-2.8,12.2-6.1,17.9-9.9h0Z"/>
            <path class="cls-9" d="M370.5,332c1.7,9,4.3,17.9,7.7,26.5,4.9,12.5,11.5,24,19.5,34.5-2.7,3.5-5.6,7-8.7,10.2-7.3,7.8-15.3,14.6-23.9,20.3-5.7-3.8-11.6-7-17.9-9.9-5.6-2.6-11.4-4.7-17.3-6.4,1.4-1.3,2.7-2.7,4-4.1,12.1-12.9,21.5-27.9,28.2-44.7,3.4-8.6,6-17.4,7.7-26.5-1.7-9-4.3-17.9-7.7-26.5-6.6-16.8-16.1-31.8-28.2-44.7-1.3-1.4-2.6-2.8-4-4.1,5.9-1.7,11.6-3.8,17.3-6.4,6.2-2.8,12.2-6.1,17.9-9.9,8.6,5.7,16.7,12.5,23.9,20.3,3.1,3.3,6,6.7,8.7,10.2-8,10.4-14.5,22-19.5,34.5-3.4,8.6-6,17.4-7.7,26.5h0Z"/>
            <path class="cls-9" d="M365.1,423.4c8.6,5.7,16.7,12.5,23.9,20.3,3.1,3.3,6,6.7,8.7,10.2-8,10.4-14.5,22-19.5,34.5-3.7,9.2-6.4,18.8-8.1,28.6-1.7-9.8-4.4-19.3-8.1-28.6-6.6-16.8-16.1-31.8-28.2-44.7-1.3-1.4-2.6-2.8-4-4.1,5.9-1.7,11.6-3.8,17.3-6.4,6.2-2.8,12.2-6.1,17.9-9.9h0Z"/>
            <path class="cls-9" d="M370.5,332c1.7,9,4.3,17.9,7.7,26.5,4.9,12.5,11.5,24,19.5,34.5-2.7,3.5-5.6,7-8.7,10.2-7.3,7.8-15.3,14.6-23.9,20.3-5.7-3.8-11.6-7-17.9-9.9-5.6-2.6-11.4-4.7-17.3-6.4,1.4-1.3,2.7-2.7,4-4.1,12.1-12.9,21.5-27.9,28.2-44.7,3.4-8.6,6-17.4,7.7-26.5-1.7-9-4.3-17.9-7.7-26.5-6.6-16.8-16.1-31.8-28.2-44.7-1.3-1.4-2.6-2.8-4-4.1,5.9-1.7,11.6-3.8,17.3-6.4,6.2-2.8,12.2-6.1,17.9-9.9,8.6,5.7,16.7,12.5,23.9,20.3,3.1,3.3,6,6.7,8.7,10.2-8,10.4-14.5,22-19.5,34.5-3.4,8.6-6,17.4-7.7,26.5h0Z"/>
            <path class="cls-9" d="M365.1,423.4c8.6,5.7,16.7,12.5,23.9,20.3,3.1,3.3,6,6.7,8.7,10.2-8,10.4-14.5,22-19.5,34.5-3.7,9.2-6.4,18.8-8.1,28.6-1.7-9.8-4.4-19.3-8.1-28.6-6.6-16.8-16.1-31.8-28.2-44.7-1.3-1.4-2.6-2.8-4-4.1,5.9-1.7,11.6-3.8,17.3-6.4,6.2-2.8,12.2-6.1,17.9-9.9h0Z"/>
            <path class="cls-9" d="M370.5,332c1.7,9,4.3,17.9,7.7,26.5,4.9,12.5,11.5,24,19.5,34.5-2.7,3.5-5.6,7-8.7,10.2-7.3,7.8-15.3,14.6-23.9,20.3-5.7-3.8-11.6-7-17.9-9.9-5.6-2.6-11.4-4.7-17.3-6.4,1.4-1.3,2.7-2.7,4-4.1,12.1-12.9,21.5-27.9,28.2-44.7,3.4-8.6,6-17.4,7.7-26.5-1.7-9-4.3-17.9-7.7-26.5-6.6-16.8-16.1-31.8-28.2-44.7-1.3-1.4-2.6-2.8-4-4.1,5.9-1.7,11.6-3.8,17.3-6.4,6.2-2.8,12.2-6.1,17.9-9.9,8.6,5.7,16.7,12.5,23.9,20.3,3.1,3.3,6,6.7,8.7,10.2-8,10.4-14.5,22-19.5,34.5-3.4,8.6-6,17.4-7.7,26.5h0Z"/>
            <path class="cls-9" d="M365.1,423.4c8.6,5.7,16.7,12.5,23.9,20.3,3.1,3.3,6,6.7,8.7,10.2-8,10.4-14.5,22-19.5,34.5-3.7,9.2-6.4,18.8-8.1,28.6-1.7-9.8-4.4-19.3-8.1-28.6-6.6-16.8-16.1-31.8-28.2-44.7-1.3-1.4-2.6-2.8-4-4.1,5.9-1.7,11.6-3.8,17.3-6.4,6.2-2.8,12.2-6.1,17.9-9.9h0Z"/>
            <path class="cls-9" d="M362.1,305.5c3.4,8.6,6,17.4,7.7,26.5-1.7,9-4.3,17.9-7.7,26.5-6.6,16.8-16.1,31.8-28.2,44.7-1.3,1.4-2.6,2.8-4,4.1,5.9,1.7,11.6,3.8,17.3,6.4,6.2,2.8,12.2,6.1,17.9,9.9,8.6-5.7,16.7-12.5,23.9-20.3,3.1-3.3,6-6.7,8.7-10.2-8-10.4-14.5-22-19.5-34.5-3.4-8.6-6-17.4-7.7-26.5,1.7-9,4.3-17.9,7.7-26.5,4.9-12.5,11.5-24,19.5-34.5-2.7-3.5-5.6-7-8.7-10.2-7.3-7.8-15.3-14.6-23.9-20.3-5.7,3.8-11.6,7-17.9,9.9-5.6,2.6-11.4,4.7-17.3,6.3,1.4,1.3,2.7,2.7,4,4.1,12.1,12.9,21.5,27.9,28.2,44.7h0Z"/>
            <path class="cls-9" d="M365.1,423.4c-5.7,3.8-11.6,7-17.9,9.9-5.6,2.6-11.4,4.7-17.3,6.4,1.4,1.3,2.7,2.7,4,4.1,12.1,12.9,21.5,27.9,28.2,44.7,3.7,9.2,6.4,18.8,8.1,28.5,1.7-9.8,4.4-19.3,8.1-28.5,4.9-12.5,11.5-24,19.5-34.5-2.7-3.5-5.6-7-8.7-10.2-7.3-7.8-15.3-14.6-23.9-20.3h0Z"/>
            <path class="cls-9" d="M362.1,305.5c3.4,8.6,6,17.4,7.7,26.5-1.7,9-4.3,17.9-7.7,26.5-6.6,16.8-16.1,31.8-28.2,44.7-1.3,1.4-2.6,2.8-4,4.1,5.9,1.7,11.6,3.8,17.3,6.4,6.2,2.8,12.2,6.1,17.9,9.9,8.6-5.7,16.7-12.5,23.9-20.3,3.1-3.3,6-6.7,8.7-10.2-8-10.4-14.5-22-19.5-34.5-3.4-8.6-6-17.4-7.7-26.5,1.7-9,4.3-17.9,7.7-26.5,4.9-12.5,11.5-24,19.5-34.5-2.7-3.5-5.6-7-8.7-10.2-7.3-7.8-15.3-14.6-23.9-20.3-5.7,3.8-11.6,7-17.9,9.9-5.6,2.6-11.4,4.7-17.3,6.3,1.4,1.3,2.7,2.7,4,4.1,12.1,12.9,21.5,27.9,28.2,44.7h0Z"/>
            <path class="cls-9" d="M365.1,423.4c-5.7,3.8-11.6,7-17.9,9.9-5.6,2.6-11.4,4.7-17.3,6.4,1.4,1.3,2.7,2.7,4,4.1,12.1,12.9,21.5,27.9,28.2,44.7,3.7,9.2,6.4,18.8,8.1,28.5,1.7-9.8,4.4-19.3,8.1-28.5,4.9-12.5,11.5-24,19.5-34.5-2.7-3.5-5.6-7-8.7-10.2-7.3-7.8-15.3-14.6-23.9-20.3h0Z"/>
          </g>
        </g>
      </g>
    </g>
  </g>
</svg>