<svg id="グループ_21407" data-name="グループ 21407" xmlns="http://www.w3.org/2000/svg" xmlns:xlink="http://www.w3.org/1999/xlink" width="14.11" height="101.861" viewBox="0 0 14.11 101.861">
  <defs>
    <clipPath id="clip-path">
      <rect id="長方形_10057" data-name="長方形 10057" width="14.11" height="101.861" fill="#fff"/>
    </clipPath>
  </defs>
  <g id="グループ_21406" data-name="グループ 21406" clip-path="url(#clip-path)">
    <path id="パス_88546" data-name="パス 88546" d="M14.189,3.351v8.716H12.666V4.616A19.366,19.366,0,0,1,10.06,8.639a16.517,16.517,0,0,1-3.337,3.078V9.873a16.422,16.422,0,0,0,2.918-3.01A13.718,13.718,0,0,0,11.6,3.351H6.753V1.9h5.912V0h1.524V1.9h1.737V3.351Z" transform="translate(-4.315 0.001)" fill="#fff"/>
    <path id="パス_88547" data-name="パス 88547" d="M6.85,42.5h3.9V44H6.85Zm9.142,2.56a11.72,11.72,0,0,1-1.767,3.794,10.621,10.621,0,0,1-2.606,2.651,10.465,10.465,0,0,1-2.37,1.227,11.407,11.407,0,0,1-2.4.556V51.721a7.983,7.983,0,0,0,2.026-.412,7.181,7.181,0,0,0,1.981-1.1,10.124,10.124,0,0,0,3.581-5.15Z" transform="translate(-4.397 -27.28)" fill="#fff"/>
    <path id="パス_88548" data-name="パス 88548" d="M6.892,87.5V86.049h9.02a8.251,8.251,0,0,1-.541,2.956A5.62,5.62,0,0,1,13.886,91.2a7.325,7.325,0,0,1-2,1.341,9.269,9.269,0,0,1-1.714.64q-.831.213-1.882.381V92.007a9.912,9.912,0,0,0,3.078-.914,5.588,5.588,0,0,0,1.775-1.4A4.631,4.631,0,0,0,14.175,87.5Zm.427-5.089h7.923v1.417H7.319Z" transform="translate(-4.424 -52.893)" fill="#fff"/>
    <path id="パス_88549" data-name="パス 88549" d="M15.938,122.186a15.013,15.013,0,0,1-1.326,2.057,13,13,0,0,1-1.661,1.89v7.725H11.427v-6.4a19.1,19.1,0,0,1-4.662,2.636V128.54a19.8,19.8,0,0,0,2.529-1.326,13.482,13.482,0,0,0,2.59-2.08,14.157,14.157,0,0,0,2.24-2.948Z" transform="translate(-4.342 -78.425)" fill="#fff"/>
    <path id="パス_88550" data-name="パス 88550" d="M6.85,163.753h3.9v1.493H6.85Zm9.142,2.56a11.72,11.72,0,0,1-1.767,3.794,10.621,10.621,0,0,1-2.606,2.651,10.466,10.466,0,0,1-2.37,1.227,11.406,11.406,0,0,1-2.4.556v-1.569a7.984,7.984,0,0,0,2.026-.412,7.181,7.181,0,0,0,1.981-1.1,10.124,10.124,0,0,0,3.581-5.15Z" transform="translate(-4.397 -105.104)" fill="#fff"/>
    <path id="パス_88551" data-name="パス 88551" d="M8.18,203.34q-.274.838-.518,1.676H13.6v10.042H12.157v-.793H2.877v.793H1.506V205.016H6.2q.2-.807.335-1.676H.851V202h13.47v1.341Zm-5.3,9.615h1.9v-6.643h-1.9Zm6-6.643H6.047v1.432H8.881Zm0,2.56H6.047v1.448H8.881Zm-2.834,4.084H8.881v-1.509H6.047Zm6.11-6.643h-2v6.643h2Z" transform="translate(-0.546 -129.652)" fill="#fff"/>
    <path id="パス_88552" data-name="パス 88552" d="M5.684,248.95H0v-1.127H5.684Zm-.5,5.028v4.48H1.9v.64H.686v-5.12Zm-.015-2.987H.7v-1.1H5.165Zm-4.464.93H5.165v1.112H.7Zm4.434-5H.762v-1.112H5.135Zm-1.173,8.2H1.905v2.194H3.962Zm6.613-1.265a3.886,3.886,0,0,0,.3,1.356,4.679,4.679,0,0,0,1.09,1.577,5.972,5.972,0,0,0,2.149,1.318,10.738,10.738,0,0,0-.823,1.2,5.521,5.521,0,0,1-1.722-1.036,6.066,6.066,0,0,1-1.15-1.341,4.609,4.609,0,0,1-.556-1.219,4.324,4.324,0,0,1-.61,1.2,6.285,6.285,0,0,1-1.272,1.326,6.835,6.835,0,0,1-1.928,1.067,6.255,6.255,0,0,0-.373-.6,3.941,3.941,0,0,0-.434-.541A6.767,6.767,0,0,0,7.6,256.828a4.752,4.752,0,0,0,1.2-1.592,3.66,3.66,0,0,0,.328-1.379v-2.224h1.447Zm-5.089,1.57a3.154,3.154,0,0,0,.853-1.1,6.245,6.245,0,0,0,.518-1.547l1.249.259a6.641,6.641,0,0,1-.533,1.714,4.015,4.015,0,0,1-.944,1.318Zm7.542-3.261a16.38,16.38,0,0,0-1.417-1.12q-.9-.647-1.874-1.257a4.533,4.533,0,0,1-1.25,1.463,7.1,7.1,0,0,1-2.042,1.036,4.118,4.118,0,0,0-.358-.594,3.444,3.444,0,0,0-.449-.533A5.354,5.354,0,0,0,7.9,249.949a3.784,3.784,0,0,0,1.013-1.805,15.038,15.038,0,0,0,.335-2.834h1.387a16.056,16.056,0,0,1-.427,3.291q1.082.625,2.118,1.31t1.63,1.173ZM8.182,246.5a5.881,5.881,0,0,1-.427,1.569,3.53,3.53,0,0,1-.808,1.2l-1.082-.518A3.025,3.025,0,0,0,6.59,247.7a6.254,6.254,0,0,0,.434-1.432Zm2.987,8.822a12.009,12.009,0,0,0,.716-1.265q.381-.762.625-1.387l1.386.457a29.86,29.86,0,0,1-1.63,2.605Zm2.56-8.685a24.135,24.135,0,0,1-1.493,2.423l-1.052-.411a11.892,11.892,0,0,0,.655-1.2,12.349,12.349,0,0,0,.533-1.257Z" transform="translate(0 -157.45)" fill="#fff"/>
  </g>
</svg>
