<svg xmlns="http://www.w3.org/2000/svg" xmlns:xlink="http://www.w3.org/1999/xlink" width="25.829" height="103.984" viewBox="0 0 25.829 103.984">
  <defs>
    <clipPath id="clip-path">
      <rect id="長方形_9506" data-name="長方形 9506" width="25.829" height="24.61" fill="none"/>
    </clipPath>
    <clipPath id="clip-path-2">
      <rect id="長方形_10056" data-name="長方形 10056" width="13.651" height="88.572" fill="#414141"/>
    </clipPath>
  </defs>
  <g id="グループ_21523" data-name="グループ 21523" transform="translate(-1880.066 -304.801)">
    <g id="グループ_20511" data-name="グループ 20511" transform="translate(1880.066 304.801)">
      <g id="グループ_20510" data-name="グループ 20510" transform="translate(0 0)" clip-path="url(#clip-path)">
        <path id="パス_83538" data-name="パス 83538" d="M25.829,10.48C25.829,4.7,20.036,0,12.915,0S0,4.7,0,10.48C0,15.661,4.595,20,10.8,20.82c.42.091.993.277,1.137.637a2.652,2.652,0,0,1,.042,1.168s-.152.911-.185,1.106c-.056.326-.259,1.277,1.119.7s7.437-4.379,10.147-7.5h0a9.326,9.326,0,0,0,2.768-6.448" transform="translate(0 0)" fill="#fff"/>
        <path id="パス_83539" data-name="パス 83539" d="M43.482,23.373H39.854a.247.247,0,0,1-.247-.247v0h0V17.5h0v-.005a.247.247,0,0,1,.247-.247h3.628a.247.247,0,0,1,.247.247v.916a.247.247,0,0,1-.247.247H41.017V19.6h2.465a.248.248,0,0,1,.247.247v.916a.247.247,0,0,1-.247.247H41.017v.951h2.465a.247.247,0,0,1,.247.247v.916a.247.247,0,0,1-.247.247" transform="translate(-21.95 -9.556)" fill="#06c755"/>
        <path id="パス_83540" data-name="パス 83540" d="M13.378,23.373a.247.247,0,0,0,.247-.247v-.916a.247.247,0,0,0-.247-.247H10.912V17.491a.247.247,0,0,0-.247-.247H9.75a.247.247,0,0,0-.247.247v5.632h0v0a.247.247,0,0,0,.247.247h3.628Z" transform="translate(-5.266 -9.556)" fill="#06c755"/>
        <path id="パス_83541" data-name="パス 83541" d="M21.649,17.244h-.916a.247.247,0,0,0-.247.247v5.636a.247.247,0,0,0,.247.247h.916a.247.247,0,0,0,.247-.247V17.491a.247.247,0,0,0-.247-.247" transform="translate(-11.353 -9.556)" fill="#06c755"/>
        <path id="パス_83542" data-name="パス 83542" d="M30.731,17.244h-.916a.247.247,0,0,0-.247.247v3.348l-2.579-3.482a.219.219,0,0,0-.02-.026l0,0-.015-.015,0,0-.013-.011-.007,0-.013-.009-.008,0-.013-.008-.008,0-.014-.006-.008,0-.015,0-.008,0-.015,0-.011,0-.013,0H25.87a.246.246,0,0,0-.247.247v5.636a.246.246,0,0,0,.247.247h.916a.246.246,0,0,0,.247-.247V19.78l2.582,3.487a.247.247,0,0,0,.063.062l0,0,.016.009.007,0,.012.006.012.005.008,0,.017.005h0a.241.241,0,0,0,.065.009h.911a.247.247,0,0,0,.247-.247V17.491a.247.247,0,0,0-.247-.247" transform="translate(-14.2 -9.556)" fill="#06c755"/>
      </g>
    </g>
    <g id="グループ_21405" data-name="グループ 21405" transform="translate(1886.674 320.214)">
      <g id="グループ_21404" data-name="グループ 21404" clip-path="url(#clip-path-2)">
        <path id="パス_88541" data-name="パス 88541" d="M11.861,46.6a10.481,10.481,0,0,1-2.718,4.809,12.474,12.474,0,0,0,4.516,1.637,3.64,3.64,0,0,0-.475.57,4.7,4.7,0,0,0-.4.672A12.538,12.538,0,0,1,8.075,52.3a13.738,13.738,0,0,1-4.151,2.017,4.746,4.746,0,0,0-.358-.614,5.918,5.918,0,0,0-.416-.556,11.438,11.438,0,0,0,3.844-1.725,11.2,11.2,0,0,1-2.251-3.142A12.017,12.017,0,0,1,1.381,53.82a3.913,3.913,0,0,0-1.169-.935,9.081,9.081,0,0,0,2.682-3.647,19.64,19.64,0,0,0,1.293-4.714H.738V43.209H4.363q.088-.891.117-1.841l.029-.482h1.4l-.014.351q-.088,1.4-.146,1.973h7.527v1.315h-7.7q-.1.789-.292,1.739h5.408l.263-.058Zm-6.095.979a8.679,8.679,0,0,0,2.265,3,8.541,8.541,0,0,0,2.046-3Z" transform="translate(-0.139 -26.839)" fill="#414141"/>
        <path id="パス_88542" data-name="パス 88542" d="M6.552,91.16V89.816H8.437q.1-.746.132-1.535H9.987q-.044.482-.176,1.535h2.046l-.014,1.345H9.709q-.365,2.543-.7,4.341t-.789,3.756H6.7q.453-1.768.87-3.9t.724-4.195Zm5.613,4.224a2.975,2.975,0,0,0-.585,1.476q0,1.111,2.075,1.111.935,0,2.134-.088v1.388q-.074,0-.534.037t-1.118.036q-.57,0-1.184-.044a5.455,5.455,0,0,1-.884-.11,3.236,3.236,0,0,1-.694-.241,2,2,0,0,1-.84-.753,2.266,2.266,0,0,1-.27-1.162,2.781,2.781,0,0,1,.124-.855,3.127,3.127,0,0,1,.4-.8Zm-.424-3.756h.438q1.608-.029,2.1-.029l1.3.015v1.4q-.57-.044-1.812-.044-.482,0-2,.029Zm1.666-3.435h1.009v2.1H13.407Zm1.579,0h1.009v2.1H14.985Z" transform="translate(-4.301 -57.895)" fill="#414141"/>
        <path id="パス_88543" data-name="パス 88543" d="M7.275,135.133v-1.359h2.982q.2-.511.57-1.461H12.3q-.337.965-.57,1.461h4.311v1.359H11.236l-.394.848-.745,1.593a8.208,8.208,0,0,1,2.6-.556,3.6,3.6,0,0,1,1.673.38,2.912,2.912,0,0,1,1.162,1.06A2.852,2.852,0,0,1,15.957,140a3.825,3.825,0,0,1-.183,1.162,2.816,2.816,0,0,1-.548,1q-1.067,1.242-3.844,1.243a19.2,19.2,0,0,1-2.7-.219V141.8a16.288,16.288,0,0,0,2.718.248,5.692,5.692,0,0,0,1.856-.248,2.054,2.054,0,0,0,.987-.7,1.8,1.8,0,0,0,.344-1.1,1.39,1.39,0,0,0-.541-1.191,2.508,2.508,0,0,0-1.52-.4q-.307,0-.468.014A8.4,8.4,0,0,0,8.2,139.854v-1.476q.965-1.944,1.535-3.245Z" transform="translate(-4.776 -86.857)" fill="#414141"/>
        <path id="パス_88544" data-name="パス 88544" d="M3.619,183.019q.921,1.447,3.45,1.535.965.029,1.812.029,2.952,0,4.882-.132a4.11,4.11,0,0,0-.263.665,6.48,6.48,0,0,0-.19.724q-1.637.073-3.786.073-1.461,0-2.47-.044a7.088,7.088,0,0,1-2.382-.453,4.155,4.155,0,0,1-1.652-1.227Q2.231,184.876.872,186l-.7-1.4a23.767,23.767,0,0,0,2.119-1.505v-3.435H.418V178.4h3.2Zm-.672-6.826A7.463,7.463,0,0,0,1.9,175.032a13.337,13.337,0,0,0-1.4-1.147l1.008-.818q.746.526,1.447,1.133a6.487,6.487,0,0,1,1.052,1.1Zm4.56-1.988a10.076,10.076,0,0,0,.424-1.52l1.579.234q-.263.673-.556,1.286h3.186v3.9H6.44v1.213h6.285v4.195H5.11v-9.31Zm3.318,1.111H6.44v1.666h4.385Zm.555,5.145H6.44v1.915h4.94Z" transform="translate(-0.112 -113.36)" fill="#414141"/>
        <path id="パス_88545" data-name="パス 88545" d="M6.8,221.827q0,.5-.015.658-.058,3.406-.132,5.181t-.2,2.7a3.2,3.2,0,0,1-.344,1.25,1.61,1.61,0,0,1-.446.446,1.62,1.62,0,0,1-.592.2,7.667,7.667,0,0,1-.921.044q-.526,0-.8-.014a3.435,3.435,0,0,0-.117-.709,2.173,2.173,0,0,0-.278-.65q.965.044,1.476.044a.829.829,0,0,0,.3-.044.421.421,0,0,0,.2-.2,5.131,5.131,0,0,0,.336-1.915q.116-1.622.2-5.656h-1.9a29.184,29.184,0,0,1-.665,5.613,8.482,8.482,0,0,1-1.893,3.8,3.518,3.518,0,0,0-.468-.526A3.55,3.55,0,0,0,0,231.6a7.361,7.361,0,0,0,1.673-3.376,26.428,26.428,0,0,0,.563-5.072H.38v-1.33H2.265q.014-.8.015-2.47H3.625q0,1.666-.015,2.47Zm1.023-.935h5.072V232.2H11.517v-.935H9.12v1.052h-1.3Zm1.3,9.076h2.4v-7.761H9.12Z" transform="translate(0 -143.998)" fill="#414141"/>
      </g>
    </g>
  </g>
</svg>
