<svg id="グループ_30671" data-name="グループ 30671" xmlns="http://www.w3.org/2000/svg" xmlns:xlink="http://www.w3.org/1999/xlink" width="361.375" height="39.905" viewBox="0 0 361.375 39.905">
  <defs>
    <clipPath id="clip-path">
      <rect id="長方形_12919" data-name="長方形 12919" width="46.553" height="30.543" transform="translate(0.002 6.69)" fill="none"/>
    </clipPath>
  </defs>
  <g id="グループ_30668" data-name="グループ 30668">
    <g id="グループ_30667" data-name="グループ 30667" clip-path="url(#clip-path)">
      <path id="パス_155739" data-name="パス 155739" d="M0,6.69v4.762a27.461,27.461,0,0,1,10.013,1.872q.826.327,1.6.7a25.44,25.44,0,0,1,3.79-1.452,27.867,27.867,0,0,1,7.869-1.12,27.451,27.451,0,0,1,10.06,1.872q.826.327,1.6.7a25.44,25.44,0,0,1,3.79-1.452,27.894,27.894,0,0,1,7.826-1.12V6.69Z" fill="#dbcf72"/>
      <path id="パス_155740" data-name="パス 155740" d="M29.15,24.749a5.787,5.787,0,1,0,11.574,0,4.939,4.939,0,0,0-.372-1.819A8,8,0,0,0,39.2,20.967a14.641,14.641,0,0,0-4.264-3.554,15.748,15.748,0,0,0-3.5,2.677,8.694,8.694,0,0,0-1.992,3.05,4.829,4.829,0,0,0-.292,1.609" fill="#dbcf72"/>
      <path id="パス_155741" data-name="パス 155741" d="M40.6,18.01a11.664,11.664,0,0,1,2.66,4.133,7.828,7.828,0,0,1,.463,2.607,8.787,8.787,0,1,1-17.575,0A8.339,8.339,0,0,1,27.158,20.9a13.113,13.113,0,0,1,2.654-3.42,18.287,18.287,0,0,1,1.9-1.557c-.459-.168-.931-.326-1.415-.47a24.9,24.9,0,0,0-7.021-1,24.562,24.562,0,0,0-8.437,1.466,17.642,17.642,0,0,1,2.443,2.091,11.684,11.684,0,0,1,2.659,4.133,7.8,7.8,0,0,1,.464,2.607,8.788,8.788,0,1,1-17.575,0A8.341,8.341,0,0,1,3.837,20.9a13.12,13.12,0,0,1,2.656-3.42,18.288,18.288,0,0,1,1.9-1.557c-.46-.168-.931-.326-1.415-.47a24.893,24.893,0,0,0-6.978-1V37.23H46.553V14.453a24.569,24.569,0,0,0-8.4,1.466A17.593,17.593,0,0,1,40.6,18.01" fill="#dbcf72"/>
      <path id="パス_155742" data-name="パス 155742" d="M5.832,24.749a5.787,5.787,0,1,0,11.574,0,4.939,4.939,0,0,0-.372-1.819,8.028,8.028,0,0,0-1.151-1.963,14.641,14.641,0,0,0-4.264-3.554,15.725,15.725,0,0,0-3.5,2.677,8.71,8.71,0,0,0-1.993,3.05,4.8,4.8,0,0,0-.293,1.609" fill="#dbcf72"/>
    </g>
  </g>
  <g id="グループ_30670" data-name="グループ 30670">
    <path id="パス_155743" data-name="パス 155743" d="M69.754,39.9a10.733,10.733,0,0,1-5.783-1.434,8.918,8.918,0,0,1-3.441-3.942,13.847,13.847,0,0,1-1.147-5.807V11.374a14.962,14.962,0,0,1,1.1-5.95,8.578,8.578,0,0,1,3.393-3.991A10.927,10.927,0,0,1,69.754,0a10.706,10.706,0,0,1,5.807,1.433A8.627,8.627,0,0,1,78.93,5.424a14.962,14.962,0,0,1,1.1,5.95V28.722a13.832,13.832,0,0,1-1.147,5.807,8.906,8.906,0,0,1-3.441,3.942A10.536,10.536,0,0,1,69.754,39.9m0-6.5a2.123,2.123,0,0,0,1.864-.812,4.665,4.665,0,0,0,.765-1.936,12.489,12.489,0,0,0,.191-2.079V11.517a15.326,15.326,0,0,0-.167-2.2,4.642,4.642,0,0,0-.741-1.983A2.151,2.151,0,0,0,69.754,6.5a2.215,2.215,0,0,0-1.936.837,4.454,4.454,0,0,0-.764,1.983,15.183,15.183,0,0,0-.167,2.2V28.579a12.383,12.383,0,0,0,.191,2.079,4.323,4.323,0,0,0,.812,1.936,2.2,2.2,0,0,0,1.864.812" fill="#dbcf72"/>
    <path id="パス_155744" data-name="パス 155744" d="M94.749,39.9a10.92,10.92,0,0,1-6.213-1.481A7.419,7.419,0,0,1,85.6,34.265,22.229,22.229,0,0,1,84.809,28h7.12a20.062,20.062,0,0,0,.263,3.537,4.085,4.085,0,0,0,.956,2.15,2.625,2.625,0,0,0,2.079.669,2.28,2.28,0,0,0,2.007-1.051A6.448,6.448,0,0,0,98,30.442q.143-1.863.143-4.4a24.524,24.524,0,0,0-.239-3.632,5.39,5.39,0,0,0-.932-2.486,2.508,2.508,0,0,0-2.126-.908,2.768,2.768,0,0,0-2.127.908A5.579,5.579,0,0,0,91.5,22.509H85.191L85.716.525H103.5V6.882H91.786l-.43,8.554a4.525,4.525,0,0,1,1.935-1.243,9.776,9.776,0,0,1,2.939-.621,7.1,7.1,0,0,1,4.995,1.147,8.377,8.377,0,0,1,2.939,4.23,21.2,21.2,0,0,1,.956,6.81,39.08,39.08,0,0,1-.383,5.664,12.464,12.464,0,0,1-1.481,4.492,7.513,7.513,0,0,1-3.154,2.938A11.768,11.768,0,0,1,94.749,39.9" fill="#dbcf72"/>
    <path id="パス_155745" data-name="パス 155745" d="M119.7,39.9a10.733,10.733,0,0,1-5.783-1.434,8.918,8.918,0,0,1-3.441-3.942,13.847,13.847,0,0,1-1.147-5.807V11.374a14.962,14.962,0,0,1,1.1-5.95,8.578,8.578,0,0,1,3.393-3.991A10.927,10.927,0,0,1,119.7,0,10.706,10.706,0,0,1,125.5,1.433a8.627,8.627,0,0,1,3.369,3.991,14.962,14.962,0,0,1,1.1,5.95V28.722a13.832,13.832,0,0,1-1.147,5.807,8.906,8.906,0,0,1-3.441,3.942A10.536,10.536,0,0,1,119.7,39.9m0-6.5a2.123,2.123,0,0,0,1.864-.812,4.664,4.664,0,0,0,.765-1.936,12.489,12.489,0,0,0,.191-2.079V11.517a15.326,15.326,0,0,0-.167-2.2,4.642,4.642,0,0,0-.741-1.983A2.151,2.151,0,0,0,119.7,6.5a2.215,2.215,0,0,0-1.936.837A4.454,4.454,0,0,0,117,9.319a15.183,15.183,0,0,0-.167,2.2V28.579a12.384,12.384,0,0,0,.191,2.079,4.323,4.323,0,0,0,.812,1.936,2.2,2.2,0,0,0,1.864.812" fill="#dbcf72"/>
    <rect id="長方形_12920" data-name="長方形 12920" width="11.996" height="4.731" transform="translate(135.562 20.598)" fill="#dbcf72"/>
    <path id="パス_155746" data-name="パス 155746" d="M162.469,39.9a10.92,10.92,0,0,1-6.213-1.481,7.419,7.419,0,0,1-2.939-4.159,22.229,22.229,0,0,1-.788-6.26h7.12a20.062,20.062,0,0,0,.263,3.537,4.085,4.085,0,0,0,.956,2.15,2.625,2.625,0,0,0,2.079.669,2.28,2.28,0,0,0,2.007-1.051,6.448,6.448,0,0,0,.765-2.868q.143-1.863.143-4.4a24.524,24.524,0,0,0-.239-3.632,5.39,5.39,0,0,0-.932-2.486,2.508,2.508,0,0,0-2.126-.908,2.768,2.768,0,0,0-2.127.908,5.579,5.579,0,0,0-1.219,2.581h-6.308L153.436.525h17.779V6.882H159.506l-.43,8.554a4.525,4.525,0,0,1,1.935-1.243,9.776,9.776,0,0,1,2.939-.621,7.1,7.1,0,0,1,5,1.147,8.377,8.377,0,0,1,2.939,4.23,21.2,21.2,0,0,1,.956,6.81,39.079,39.079,0,0,1-.383,5.664,12.465,12.465,0,0,1-1.481,4.492,7.513,7.513,0,0,1-3.154,2.938,11.768,11.768,0,0,1-5.353,1.052" fill="#dbcf72"/>
    <path id="パス_155747" data-name="パス 155747" d="M186.46,39.9a10.92,10.92,0,0,1-6.213-1.481,7.419,7.419,0,0,1-2.939-4.159A22.229,22.229,0,0,1,176.52,28h7.12a20.062,20.062,0,0,0,.263,3.537,4.085,4.085,0,0,0,.956,2.15,2.625,2.625,0,0,0,2.079.669,2.28,2.28,0,0,0,2.007-1.051,6.448,6.448,0,0,0,.765-2.868q.142-1.863.143-4.4a24.524,24.524,0,0,0-.239-3.632,5.39,5.39,0,0,0-.932-2.486,2.508,2.508,0,0,0-2.126-.908,2.768,2.768,0,0,0-2.127.908,5.579,5.579,0,0,0-1.219,2.581H176.9L177.427.525h17.779V6.882H183.5l-.43,8.554A4.525,4.525,0,0,1,185,14.193a9.776,9.776,0,0,1,2.939-.621,7.1,7.1,0,0,1,5,1.147,8.377,8.377,0,0,1,2.939,4.23,21.2,21.2,0,0,1,.956,6.81,39.079,39.079,0,0,1-.383,5.664,12.464,12.464,0,0,1-1.481,4.492,7.513,7.513,0,0,1-3.154,2.938A11.768,11.768,0,0,1,186.46,39.9" fill="#dbcf72"/>
    <path id="パス_155748" data-name="パス 155748" d="M210.642,39.9a11.269,11.269,0,0,1-6.141-1.457,8.171,8.171,0,0,1-3.274-4.11,17.156,17.156,0,0,1-1-6.094V26.858h7.359v1.29a17.113,17.113,0,0,0,.311,3.083,3.416,3.416,0,0,0,.932,1.84,2.708,2.708,0,0,0,1.912.621,2.543,2.543,0,0,0,1.911-.645,3.663,3.663,0,0,0,.861-1.888,16.563,16.563,0,0,0,.238-3.059,9.687,9.687,0,0,0-.859-4.515q-.861-1.6-3.442-1.65h-1.29V16.487H209.3q2.58,0,3.513-1.386a7.946,7.946,0,0,0,.931-4.348,7.91,7.91,0,0,0-.668-3.585,2.542,2.542,0,0,0-2.485-1.29,2.3,2.3,0,0,0-2.39,1.433,10.653,10.653,0,0,0-.622,3.68v1.721h-7.359v-2.1a12.262,12.262,0,0,1,1.242-5.759A8.5,8.5,0,0,1,205,1.242,11.606,11.606,0,0,1,210.6,0a12.292,12.292,0,0,1,5.639,1.194,8.111,8.111,0,0,1,3.56,3.489,12.011,12.011,0,0,1,1.219,5.687,10.43,10.43,0,0,1-1.41,5.639,6.259,6.259,0,0,1-3.465,2.868,6.411,6.411,0,0,1,2.533,1.577,7.459,7.459,0,0,1,1.721,2.939,14.461,14.461,0,0,1,.621,4.565,17.671,17.671,0,0,1-1,6.188,8.493,8.493,0,0,1-3.3,4.23,10.78,10.78,0,0,1-6.07,1.529" fill="#dbcf72"/>
    <path id="パス_155749" data-name="パス 155749" d="M235.589,39.762a10.112,10.112,0,0,1-6-1.648A9.453,9.453,0,0,1,226.2,33.6a18.556,18.556,0,0,1-1.076-6.547V13.286a24.068,24.068,0,0,1,.884-6.787,8.938,8.938,0,0,1,3.131-4.731,10.351,10.351,0,0,1,6.4-1.72,12.288,12.288,0,0,1,5.711,1.123,6.663,6.663,0,0,1,3.082,3.322,13.538,13.538,0,0,1,.956,5.4,2.2,2.2,0,0,0,.024.311,2.19,2.19,0,0,1,.024.31h-6.978a10.386,10.386,0,0,0-.477-3.632q-.48-1.194-2.295-1.2A2.288,2.288,0,0,0,233.8,6.4a4.715,4.715,0,0,0-.908,2.414,32.111,32.111,0,0,0-.263,4.659v3.967a4.034,4.034,0,0,1,1.936-1.625A8.11,8.11,0,0,1,237.6,15.2a7.284,7.284,0,0,1,4.9,1.362,8.1,8.1,0,0,1,2.652,4.015,18.993,18.993,0,0,1,.812,5.758A23.362,23.362,0,0,1,245,33.311a9.136,9.136,0,0,1-3.226,4.755,10.12,10.12,0,0,1-6.189,1.7m.1-5.5a2.079,2.079,0,0,0,1.792-.812,5.092,5.092,0,0,0,.812-2.294,25.322,25.322,0,0,0,.216-3.584q0-2.007-.12-3.513a4.61,4.61,0,0,0-.741-2.365,2.358,2.358,0,0,0-2.055-.861,3.111,3.111,0,0,0-1.266.263,3.616,3.616,0,0,0-1.7,1.5v6.166a13.3,13.3,0,0,0,.263,2.7,4.349,4.349,0,0,0,.932,2.03,2.342,2.342,0,0,0,1.864.765" fill="#dbcf72"/>
    <rect id="長方形_12921" data-name="長方形 12921" width="11.996" height="4.731" transform="translate(250.882 20.598)" fill="#dbcf72"/>
    <path id="パス_155750" data-name="パス 155750" d="M278.839,39.237V30.2H267.083V24.421L277.167.526h8.6V24.565H289.5V30.2h-3.728v9.032Zm-5.926-14.672h5.926V8.125Z" fill="#dbcf72"/>
    <path id="パス_155751" data-name="パス 155751" d="M302.4,39.9a10.92,10.92,0,0,1-6.213-1.481,7.42,7.42,0,0,1-2.939-4.159,22.229,22.229,0,0,1-.788-6.26h7.12a20.064,20.064,0,0,0,.263,3.537,4.085,4.085,0,0,0,.956,2.15,2.625,2.625,0,0,0,2.079.669,2.28,2.28,0,0,0,2.007-1.051,6.448,6.448,0,0,0,.765-2.868q.143-1.863.143-4.4a24.524,24.524,0,0,0-.239-3.632,5.39,5.39,0,0,0-.932-2.486,2.508,2.508,0,0,0-2.126-.908,2.768,2.768,0,0,0-2.127.908,5.579,5.579,0,0,0-1.219,2.581h-6.308L293.368.525h17.779V6.882H299.438l-.43,8.554a4.525,4.525,0,0,1,1.935-1.243,9.776,9.776,0,0,1,2.939-.621,7.1,7.1,0,0,1,5,1.147,8.377,8.377,0,0,1,2.939,4.23,21.2,21.2,0,0,1,.956,6.81,39.079,39.079,0,0,1-.383,5.664,12.464,12.464,0,0,1-1.481,4.492,7.513,7.513,0,0,1-3.154,2.938A11.768,11.768,0,0,1,302.4,39.9" fill="#dbcf72"/>
    <path id="パス_155752" data-name="パス 155752" d="M327.443,39.237V30.2H315.687V24.421L325.771.526h8.6V24.565H338.1V30.2h-3.728v9.032Zm-5.926-14.672h5.926V8.125Z" fill="#dbcf72"/>
    <path id="パス_155753" data-name="パス 155753" d="M351,39.9a10.915,10.915,0,0,1-6.212-1.481,7.41,7.41,0,0,1-2.939-4.159,22.227,22.227,0,0,1-.789-6.26h7.121a20.075,20.075,0,0,0,.262,3.537,4.085,4.085,0,0,0,.956,2.15,2.628,2.628,0,0,0,2.08.669,2.28,2.28,0,0,0,2.006-1.051,6.448,6.448,0,0,0,.765-2.868q.144-1.863.144-4.4a24.513,24.513,0,0,0-.24-3.632,5.4,5.4,0,0,0-.931-2.486,2.509,2.509,0,0,0-2.127-.908,2.768,2.768,0,0,0-2.127.908,5.579,5.579,0,0,0-1.219,2.581h-6.308L341.972.525H359.75V6.882H348.041l-.43,8.554a4.53,4.53,0,0,1,1.936-1.243,9.77,9.77,0,0,1,2.938-.621,7.1,7.1,0,0,1,5,1.147,8.371,8.371,0,0,1,2.939,4.23,21.2,21.2,0,0,1,.956,6.81,39.079,39.079,0,0,1-.383,5.664,12.464,12.464,0,0,1-1.481,4.492,7.507,7.507,0,0,1-3.154,2.938A11.768,11.768,0,0,1,351,39.9" fill="#dbcf72"/>
    <rect id="長方形_12922" data-name="長方形 12922" width="361.375" height="39.905" fill="none"/>
  </g>
</svg>
