<svg xmlns="http://www.w3.org/2000/svg" xmlns:xlink="http://www.w3.org/1999/xlink" width="339.981" height="41.72" viewBox="0 0 339.981 41.72">
  <defs>
    <clipPath id="clip-path">
      <rect id="長方形_6652" data-name="長方形 6652" width="46.552" height="30.544" fill="#dbcf72"/>
    </clipPath>
  </defs>
  <g id="グループ_12546" data-name="グループ 12546" transform="translate(-284.055 -9581.856)">
    <path id="パス_88532" data-name="パス 88532" d="M-119.728-28.56c0-7.952-3.584-12.6-10.36-12.6s-10.3,4.648-10.3,12.656V-12.04c0,7.952,3.528,12.6,10.3,12.6s10.36-4.648,10.36-12.6Zm-14.224,0c0-4.816,1.176-6.384,3.864-6.384s3.92,1.568,3.92,6.384v16.52c0,4.984-1.232,6.552-3.92,6.552s-3.864-1.568-3.864-6.552Zm27.216-12.208c-.56,5.824-1.568,6.888-5.1,6.888h-2.688v5.1h6.216V0h6.832V-40.768ZM-82.6-41.16c-5.936,0-9.24,4.48-10.36,10.64l5.208,1.568c.616-4.256,2.408-6.1,4.648-6.1,2.464,0,3.584,1.456,3.584,4.48,0,8.792-12.88,14.448-13.328,27.384L-92.736,0h19.88V-5.88h-12.88c1.68-9.408,12.824-12.32,12.824-24.976C-72.912-36.68-75.88-41.16-82.6-41.16Zm36.736,12.6c0-7.952-3.584-12.6-10.36-12.6s-10.3,4.648-10.3,12.656V-12.04c0,7.952,3.528,12.6,10.3,12.6s10.36-4.648,10.36-12.6Zm-14.224,0c0-4.816,1.176-6.384,3.864-6.384s3.92,1.568,3.92,6.384v16.52c0,4.984-1.232,6.552-3.92,6.552s-3.864-1.568-3.864-6.552Zm20.216,15.008h10.416v-5.88H-39.872ZM-2.8-28.56c0-7.952-3.584-12.6-10.36-12.6s-10.3,4.648-10.3,12.656V-12.04c0,7.952,3.528,12.6,10.3,12.6S-2.8-4.088-2.8-12.04Zm-14.224,0c0-4.816,1.176-6.384,3.864-6.384s3.92,1.568,3.92,6.384v16.52c0,4.984-1.232,6.552-3.92,6.552s-3.864-1.568-3.864-6.552ZM10.192-40.768c-.56,5.824-1.568,6.888-5.1,6.888H2.408v5.1H8.624V0h6.832V-40.768ZM23.52-13.552H33.936v-5.88H23.52ZM58.3,0V-7.392h2.968l.448-5.656H58.3V-40.6H51.8L38.528-11.984v4.592H52.36V0ZM44.968-13.048,52.7-31.976h.112l-.392,18.928ZM76.832.56C83.5.56,87.36-2.464,87.36-12.1c0-4.816-1.456-7.952-4.368-9.352v-.112c2.52-1.4,3.7-4.312,3.7-8.9,0-6.5-2.688-10.7-9.856-10.7-7.224,0-9.912,4.2-9.912,10.7,0,4.592,1.176,7.5,3.64,8.9v.112c-2.912,1.4-4.312,4.536-4.312,9.352C66.248-2.464,70.112.56,76.832.56Zm4.032-12.88c0,5.768-1.4,7-4.032,7-2.744,0-4.088-1.344-4.088-7,0-4.872,1.4-6.048,4.088-6.048C79.464-18.368,80.864-17.192,80.864-12.32ZM76.832-35.392c2.576,0,3.7,1.12,3.7,5.656,0,4.928-1.064,5.992-3.7,5.992-2.688,0-3.752-1.064-3.752-5.992C73.08-34.272,74.2-35.392,76.832-35.392ZM98-10.472,93.408-8.344C94.64-2.352,97.944.5,103.152.5c6.44,0,10.416-4.48,10.416-12.1v-17.92c0-6.776-3.248-11.648-9.912-11.648-6.776,0-10.584,4.2-10.584,13.1,0,8.568,3.528,11.928,8.9,11.928a6.9,6.9,0,0,0,5.04-1.848h.112v6.72c0,4.032-1.456,5.768-4.256,5.768C100.408-5.488,99.008-6.72,98-10.472Zm5.264-11.312c-2.408,0-3.7-1.232-3.7-6.5,0-5.152,1.288-6.776,3.864-6.776,2.52,0,3.7,1.512,3.7,5.264v4.872C107.128-22.736,105.056-21.784,103.264-21.784ZM130.368.56C137.032.56,140.9-2.464,140.9-12.1c0-4.816-1.456-7.952-4.368-9.352v-.112c2.52-1.4,3.7-4.312,3.7-8.9,0-6.5-2.688-10.7-9.856-10.7-7.224,0-9.912,4.2-9.912,10.7,0,4.592,1.176,7.5,3.64,8.9v.112c-2.912,1.4-4.312,4.536-4.312,9.352C119.784-2.464,123.648.56,130.368.56ZM134.4-12.32c0,5.768-1.4,7-4.032,7-2.744,0-4.088-1.344-4.088-7,0-4.872,1.4-6.048,4.088-6.048C133-18.368,134.4-17.192,134.4-12.32Zm-4.032-23.072c2.576,0,3.7,1.12,3.7,5.656,0,4.928-1.064,5.992-3.7,5.992-2.688,0-3.752-1.064-3.752-5.992C126.616-34.272,127.736-35.392,130.368-35.392Z" transform="translate(483.14 9623.016)" fill="#dbcf72"/>
    <g id="グループ_12545" data-name="グループ 12545" transform="translate(284.055 9588.68)">
      <g id="グループ_12544" data-name="グループ 12544" clip-path="url(#clip-path)">
        <path id="パス_29418" data-name="パス 29418" d="M0,0V4.762A27.447,27.447,0,0,1,10.013,6.634q.827.327,1.6.7a25.374,25.374,0,0,1,3.79-1.452,27.865,27.865,0,0,1,7.869-1.12A27.459,27.459,0,0,1,33.332,6.634q.827.327,1.6.7a25.394,25.394,0,0,1,3.79-1.452,27.878,27.878,0,0,1,7.826-1.12V0Z" fill="#dbcf72"/>
        <path id="パス_29419" data-name="パス 29419" d="M320.59,125.27a5.787,5.787,0,0,0,9.021,4.8,5.776,5.776,0,0,0,2.553-4.8,4.937,4.937,0,0,0-.372-1.819,8.02,8.02,0,0,0-1.151-1.963,14.63,14.63,0,0,0-4.264-3.554,15.733,15.733,0,0,0-3.5,2.677,8.7,8.7,0,0,0-1.992,3.05,4.831,4.831,0,0,0-.292,1.609" transform="translate(-291.442 -107.211)" fill="#dbcf72"/>
        <path id="パス_29420" data-name="パス 29420" d="M40.6,88.934a11.673,11.673,0,0,1,2.66,4.133,7.835,7.835,0,0,1,.463,2.607,8.787,8.787,0,1,1-17.575,0,8.334,8.334,0,0,1,1.008-3.852,13.1,13.1,0,0,1,2.654-3.42,18.264,18.264,0,0,1,1.9-1.557c-.459-.168-.931-.326-1.415-.47a24.891,24.891,0,0,0-7.021-1,24.548,24.548,0,0,0-8.437,1.466,17.6,17.6,0,0,1,2.443,2.091,11.681,11.681,0,0,1,2.659,4.133,7.826,7.826,0,0,1,.464,2.607,8.787,8.787,0,1,1-17.575,0,8.338,8.338,0,0,1,1.007-3.852A13.106,13.106,0,0,1,6.491,88.4a18.213,18.213,0,0,1,1.9-1.557c-.46-.168-.931-.326-1.415-.47a24.9,24.9,0,0,0-6.978-1v22.781H46.551V85.377a24.555,24.555,0,0,0-8.395,1.466A17.593,17.593,0,0,1,40.6,88.934" transform="translate(0 -77.614)" fill="#dbcf72"/>
        <path id="パス_29421" data-name="パス 29421" d="M64.118,125.27a5.787,5.787,0,0,0,9.021,4.8,5.777,5.777,0,0,0,2.553-4.8,4.952,4.952,0,0,0-.372-1.819,8.045,8.045,0,0,0-1.151-1.963,14.644,14.644,0,0,0-4.264-3.554,15.718,15.718,0,0,0-3.5,2.677,8.7,8.7,0,0,0-1.993,3.05,4.826,4.826,0,0,0-.293,1.609" transform="translate(-58.288 -107.211)" fill="#dbcf72"/>
      </g>
    </g>
  </g>
</svg>
