<svg xmlns="http://www.w3.org/2000/svg" xmlns:xlink="http://www.w3.org/1999/xlink" width="25.829" height="24.61" viewBox="0 0 25.829 24.61">
  <defs>
    <clipPath id="clip-path">
      <rect id="長方形_9506" data-name="長方形 9506" width="25.829" height="24.61" fill="none"/>
    </clipPath>
  </defs>
  <g id="グループ_20511" data-name="グループ 20511" transform="translate(0 0)">
    <g id="グループ_20510" data-name="グループ 20510" transform="translate(0 0)" clip-path="url(#clip-path)">
      <path id="パス_83538" data-name="パス 83538" d="M25.829,10.48C25.829,4.7,20.036,0,12.915,0S0,4.7,0,10.48C0,15.661,4.595,20,10.8,20.82c.42.091.993.277,1.137.637a2.652,2.652,0,0,1,.042,1.168s-.152.911-.185,1.106c-.056.326-.259,1.277,1.119.7s7.437-4.379,10.147-7.5h0a9.326,9.326,0,0,0,2.768-6.448" transform="translate(0 0)" fill="#fff"/>
      <path id="パス_83539" data-name="パス 83539" d="M43.482,23.373H39.854a.247.247,0,0,1-.247-.247v0h0V17.5h0v-.005a.247.247,0,0,1,.247-.247h3.628a.247.247,0,0,1,.247.247v.916a.247.247,0,0,1-.247.247H41.017V19.6h2.465a.248.248,0,0,1,.247.247v.916a.247.247,0,0,1-.247.247H41.017v.951h2.465a.247.247,0,0,1,.247.247v.916a.247.247,0,0,1-.247.247" transform="translate(-21.95 -9.556)" fill="#06c755"/>
      <path id="パス_83540" data-name="パス 83540" d="M13.378,23.373a.247.247,0,0,0,.247-.247v-.916a.247.247,0,0,0-.247-.247H10.912V17.491a.247.247,0,0,0-.247-.247H9.75a.247.247,0,0,0-.247.247v5.632h0v0a.247.247,0,0,0,.247.247h3.628Z" transform="translate(-5.266 -9.556)" fill="#06c755"/>
      <path id="パス_83541" data-name="パス 83541" d="M21.649,17.244h-.916a.247.247,0,0,0-.247.247v5.636a.247.247,0,0,0,.247.247h.916a.247.247,0,0,0,.247-.247V17.491a.247.247,0,0,0-.247-.247" transform="translate(-11.353 -9.556)" fill="#06c755"/>
      <path id="パス_83542" data-name="パス 83542" d="M30.731,17.244h-.916a.247.247,0,0,0-.247.247v3.348l-2.579-3.482a.219.219,0,0,0-.02-.026l0,0-.015-.015,0,0-.013-.011-.007,0-.013-.009-.008,0-.013-.008-.008,0-.014-.006-.008,0-.015,0-.008,0-.015,0-.011,0-.013,0H25.87a.246.246,0,0,0-.247.247v5.636a.246.246,0,0,0,.247.247h.916a.246.246,0,0,0,.247-.247V19.78l2.582,3.487a.247.247,0,0,0,.063.062l0,0,.016.009.007,0,.012.006.012.005.008,0,.017.005h0a.241.241,0,0,0,.065.009h.911a.247.247,0,0,0,.247-.247V17.491a.247.247,0,0,0-.247-.247" transform="translate(-14.2 -9.556)" fill="#06c755"/>
    </g>
  </g>
</svg>
