<svg xmlns="http://www.w3.org/2000/svg" width="132.527" height="132.527" viewBox="0 0 132.527 132.527">
  <g id="グループ_20515" data-name="グループ 20515" transform="translate(0 0)">
    <path id="パス_83543" data-name="パス 83543" d="M66.263,0,31.752,34.511H20.083V46.18L0,66.263,20.083,86.346V98.015H31.752l34.512,34.512,34.512-34.512h11.414V86.6l20.338-20.338L112.189,45.925V34.511H100.775Z" fill="#c7bb5d"/>
    <path id="パス_83544" data-name="パス 83544" d="M115.341,90.7l19.666-19.666L115.341,51.373V40.91H104.878L71.039,7.071,37.2,40.91H26.481V51.628L7.071,71.038l19.41,19.41v10.718H37.2l33.839,33.839,33.839-33.839h10.463Z" transform="translate(-4.775 -4.775)" fill="#231815"/>
    <path id="パス_83545" data-name="パス 83545" d="M160.536,63.464V61.258H153L129.176,37.432h0l-1.56-1.56h0l-2.1-2.1h0l-1.56-1.56h0L121.846,30.1h0l-1.56-1.56h0l-1.56,1.56h0l-2.105,2.105h0l-1.56,1.56h0l-2.1,2.1h0l-1.56,1.56h0L87.57,61.258H80.036v2.206H88.5v-.017l24.456-24.456,2.105,2.105L89.717,66.441H80.036v2.206h10.6v-.038l.018.018,25.971-25.971,2.1,2.1L91.863,71.624H80.036V73.83H92.755l.011.011.011-.011h.015v-.015l27.494-27.494L147.78,73.815v.015h.015l.011.011.011-.011h12.719V71.624H148.708L121.846,44.761l2.1-2.1,25.971,25.971.018-.018v.038h10.6V66.441h-9.681L125.51,41.1l2.105-2.105,24.456,24.456v.017Zm-40.25-31.8,2.105,2.105-2.105,2.105-2.105-2.105Zm-5.77,5.77,2.1-2.1,2.105,2.105-2.1,2.1Zm5.77,5.77-2.1-2.1,2.1-2.1,2.1,2.1Zm3.664-3.665-2.1-2.1,2.105-2.105,2.1,2.1Zm23.855,57.842-.011.011h-.015v.015L120.286,124.9,92.792,97.405V97.39h-.015l-.011-.011-.011.011H80.036V99.6H91.863l26.863,26.863-2.1,2.105L90.65,102.593l-.018.018v-.038h-10.6v2.206h9.681l25.344,25.344-2.105,2.105L88.5,107.772v-.017H80.036v2.206H87.57L111.4,133.789h0l1.56,1.559h0l2.1,2.105h0l1.56,1.56h0l2.105,2.105h0l1.56,1.56h0l1.56-1.56h0l2.105-2.105h0l1.56-1.56h0l2.1-2.105h0l1.56-1.559h0L153,109.962h7.533v-2.206h-8.464v.017l-24.456,24.456-2.105-2.105,25.344-25.344h9.681v-2.206h-10.6v.038l-.018-.018L123.95,128.564l-2.1-2.105L148.708,99.6h11.827V97.39H147.816Zm-33.29,36.409,2.105-2.105,2.1,2.105-2.105,2.105Zm5.77,5.77-2.105-2.105,2.105-2.105,2.105,2.105Zm5.77-5.77-2.1,2.1-2.105-2.105,2.1-2.105Zm-3.665-3.665-2.1,2.1-2.1-2.1,2.1-2.1Z" transform="translate(-54.051 -19.276)" fill="#c7bb5d"/>
    <path id="パス_83546" data-name="パス 83546" d="M174.6,142.306l-22.553-22.553,4.321-4.32,5.3,5.383h17.509L156.365,98.084,134.7,119.753l2.911,2.911h0l22.553,22.553-4.321,4.32-5.3-5.383H133.027l22.811,22.731,21.669-21.668-2.911-2.912Z" transform="translate(-89.838 -66.24)" fill="#fff"/>
  </g>
</svg>
