<svg id="グループ_30691" data-name="グループ 30691" xmlns="http://www.w3.org/2000/svg" xmlns:xlink="http://www.w3.org/1999/xlink" width="19.934" height="15.646" viewBox="0 0 19.934 15.646">
  <defs>
    <clipPath id="clip-path">
      <rect id="長方形_12931" data-name="長方形 12931" width="19.934" height="15.646" transform="translate(0 0)" fill="#637389"/>
    </clipPath>
  </defs>
  <g id="グループ_30681" data-name="グループ 30681" transform="translate(0 0)" clip-path="url(#clip-path)">
    <path id="パス_155757" data-name="パス 155757" d="M19.882,2.228a2.758,2.758,0,0,0-.571-1.209A2.383,2.383,0,0,0,19.124.81,2.759,2.759,0,0,0,17.169,0H2.765A2.763,2.763,0,0,0,.81.81a2.434,2.434,0,0,0-.188.208A2.726,2.726,0,0,0,.054,2.228,2.679,2.679,0,0,0,0,2.765V12.882a2.749,2.749,0,0,0,.229,1.1,2.71,2.71,0,0,0,.581.857c.062.062.123.119.19.175a2.763,2.763,0,0,0,1.764.636h14.4a2.745,2.745,0,0,0,1.765-.638,2.386,2.386,0,0,0,.19-.172,2.768,2.768,0,0,0,.584-.857v0a2.735,2.735,0,0,0,.226-1.1V2.765a2.847,2.847,0,0,0-.052-.538M1.811,1.811a1.335,1.335,0,0,1,.954-.4h14.4a1.33,1.33,0,0,1,.954.4,1.314,1.314,0,0,1,.121.142l-7.55,6.58a1.108,1.108,0,0,1-1.456,0L1.693,1.95a1,1,0,0,1,.118-.139m-.4,11.071V3.414L6.878,8.179,1.417,12.941a.4.4,0,0,1,0-.059m15.754,1.35H2.765a1.331,1.331,0,0,1-.669-.177L7.858,9.034,8.4,9.5a2.394,2.394,0,0,0,3.146,0l.538-.468,5.759,5.021a1.331,1.331,0,0,1-.669.177m1.351-1.35a.422.422,0,0,1,0,.059L13.056,8.182l5.463-4.766Z" transform="translate(0 0)" fill="#637389"/>
  </g>
</svg>
