<svg id="グループ_12564" data-name="グループ 12564" xmlns="http://www.w3.org/2000/svg" xmlns:xlink="http://www.w3.org/1999/xlink" width="163.698" height="64.272" viewBox="0 0 163.698 64.272">
  <defs>
    <clipPath id="clip-path">
      <rect id="長方形_6666" data-name="長方形 6666" width="163.698" height="64.272" fill="none"/>
    </clipPath>
  </defs>
  <path id="パス_29422" data-name="パス 29422" d="M64.456,34.986,46.867,52.575l-8.048-8.048L28.107,55.239,46.867,74l28.3-28.3Z" transform="translate(-10.895 -13.562)" fill="#fff"/>
  <rect id="長方形_6663" data-name="長方形 6663" width="5.424" height="26.53" transform="translate(13.377 45.513) rotate(-45)" fill="#8e8e8f"/>
  <rect id="長方形_6664" data-name="長方形 6664" width="5.84" height="12.299" transform="translate(28.007 25.553) rotate(-45)" fill="#8e8e8f"/>
  <path id="パス_29423" data-name="パス 29423" d="M32.136,0,0,32.136,10.712,42.848,32.136,21.424l8.7,8.7L51.545,19.409Z" fill="#fff"/>
  <path id="パス_29424" data-name="パス 29424" d="M129.434,20.7V17.684H115.541V20.7H120.7V36.189h3.582V20.7Z" transform="translate(-44.788 -6.855)" fill="#fff"/>
  <g id="グループ_12563" data-name="グループ 12563" transform="translate(0 0)">
    <g id="グループ_12562" data-name="グループ 12562" transform="translate(0 0)" clip-path="url(#clip-path)">
      <path id="パス_29425" data-name="パス 29425" d="M148.42,17.285c-5.6,0-8.677,2.9-8.677,8.167v2.659c0,5.267,3.081,8.168,8.677,8.168,5.617,0,8.71-2.9,8.71-8.168V25.452c0-5.266-3.094-8.167-8.71-8.167m5.129,10.827c0,3.487-1.679,5.182-5.132,5.182-3.426,0-5.092-1.7-5.092-5.182V25.452c0-3.487,1.666-5.182,5.092-5.182,3.453,0,5.132,1.7,5.132,5.182Z" transform="translate(-54.169 -6.7)" fill="#fff"/>
      <path id="パス_29426" data-name="パス 29426" d="M178.278,36.279c3.976,0,6.35-2,6.35-5.346,0-3.1-1.515-4.628-5.589-5.647-2.389-.6-3.772-1.254-3.772-2.846,0-1.379,1-2.17,2.74-2.17a3.9,3.9,0,0,1,3.719,1.854l2.672-1.909c-1.3-1.944-3.457-2.93-6.419-2.93-4,0-6.3,1.879-6.3,5.155,0,2.964,1.682,4.731,5.455,5.729,2.92.756,3.906,1.495,3.906,2.926,0,.821-.391,2.2-3.012,2.2a4.766,4.766,0,0,1-4.091-1.834l-2.727,1.885c1.588,2.028,3.773,2.934,7.062,2.934" transform="translate(-66.37 -6.7)" fill="#fff"/>
      <path id="パス_29427" data-name="パス 29427" d="M209.628,36.19h3.582V17.684h-3.582v7.435h-8.479V17.684h-3.582V36.19h3.582V28.1h8.479Z" transform="translate(-76.584 -6.855)" fill="#fff"/>
      <rect id="長方形_6665" data-name="長方形 6665" width="3.582" height="18.506" transform="translate(141.068 10.829)" fill="#fff"/>
      <path id="パス_29428" data-name="パス 29428" d="M255.067,36.19h3.01V17.684h-3.392v11.99l-8.233-11.99H243.47V36.19h3.391V24.365Z" transform="translate(-94.378 -6.855)" fill="#fff"/>
      <path id="パス_29429" data-name="パス 29429" d="M144.568,57.054l-3.433,7.116-3.405-7.116h-4.148l5.762,10.936v7.57h3.582v-7.57l5.762-10.936Z" transform="translate(-51.781 -22.116)" fill="#fff"/>
      <path id="パス_29430" data-name="パス 29430" d="M169.318,75.8c4.567,0,7.083-2.746,7.083-7.734V57.054h-3.582V68.1c0,3.266-1.08,4.721-3.5,4.721s-3.5-1.456-3.5-4.721V57.054h-3.582V68.1c0,6.705,4.437,7.707,7.082,7.707" transform="translate(-62.889 -22.116)" fill="#fff"/>
      <path id="パス_29431" data-name="パス 29431" d="M197.673,67.579l4.827,7.981h4.276L200,64.509l5.638-7.456h-4.231l-6.079,8.31v-8.31h-3.582V75.559h3.582V70.665Z" transform="translate(-74.328 -22.116)" fill="#fff"/>
      <path id="パス_29432" data-name="パス 29432" d="M223.7,60.066h7.869V57.054H220.118V75.559h11.451V72.574H223.7v-5.1h7.055V64.488H223.7Z" transform="translate(-85.326 -22.116)" fill="#fff"/>
      <path id="パス_29433" data-name="パス 29433" d="M124.279,72.195V57.054H120.7V72.195c0,3.083-.841,4.341-2.9,4.341h-2.252v2.985h2.5c4.2,0,6.241-2.4,6.241-7.326" transform="translate(-44.788 -22.116)" fill="#fff"/>
      <path id="パス_29434" data-name="パス 29434" d="M255.067,75.56h3.01V57.054h-3.392v11.99l-8.233-11.99H243.47V75.56h3.391V63.735Z" transform="translate(-94.378 -22.116)" fill="#fff"/>
    </g>
  </g>
</svg>
