<svg id="グループ_20568" data-name="グループ 20568" xmlns="http://www.w3.org/2000/svg" xmlns:xlink="http://www.w3.org/1999/xlink" width="239" height="30.194" viewBox="0 0 239 30.194">
  <defs>
    <clipPath id="clip-path">
      <rect id="長方形_9569" data-name="長方形 9569" width="239" height="30.194" fill="#fff"/>
    </clipPath>
  </defs>
  <g id="グループ_20567" data-name="グループ 20567" transform="translate(0 0)" clip-path="url(#clip-path)">
    <path id="パス_83683" data-name="パス 83683" d="M33.143,20.049c-3.4-.8-9.7-.833-15.339-.833-6.308,0-10.823-.128-12.52-.609a2.375,2.375,0,0,1-2.017-2.466c0-1.344.448-2.209,2.209-2.85,2.081-.769,6.148-1.347,12.456-1.347a97.951,97.951,0,0,1,16.844,1.539l.448-2.466A99.741,99.741,0,0,0,17.932,9.449c-7.044,0-11.656.832-14.218,1.825-2.5.961-3.714,2.562-3.714,5a4.176,4.176,0,0,0,2.978,4.356c2.209.736,7.685,1.089,16.107,1.089h0a90.671,90.671,0,0,1,12.136.48c2.241.448,2.85,1.473,2.85,2.818a3.092,3.092,0,0,1-2.113,3.2c-2.465,1.025-6.661,1.409-12.585,1.409A101.985,101.985,0,0,1,1.057,27.862L.64,30.392a91.915,91.915,0,0,0,18.733,1.729c6.052,0,12.04-.576,14.858-1.953a5.1,5.1,0,0,0,3.106-5.156c0-2.37-1.153-4.259-4.195-4.963" transform="translate(0 -5.383)" fill="#fff"/>
    <path id="パス_83684" data-name="パス 83684" d="M277.952,28.55h-.1c-10.117-6.02-20.2-11.976-30.291-18.06H244.94V32.265h3.2V14.2h.1c10.119,6.053,20.174,12.04,30.292,18.06h2.625V10.49h-3.2Z" transform="translate(-139.53 -5.976)" fill="#fff"/>
    <path id="パス_83685" data-name="パス 83685" d="M374.112,10.49,354.384,32.04v.225h3.845L362.68,27.4h24.944l4.483,4.867h3.842v-.225L376.225,10.49ZM385.351,24.9H364.985l6.213-6.757c1.953-2.146,3.939-4.451,3.939-4.451h.064c.256.319,1.953,2.3,3.939,4.451Z" transform="translate(-201.874 -5.976)" fill="#fff"/>
    <path id="パス_83686" data-name="パス 83686" d="M479.466,29.575V22.306l29.365,0v-2.5H479.466V13.179h30.641v-2.69H476.26V32.265H510.3v-2.69Z" transform="translate(-271.301 -5.975)" fill="#fff"/>
    <path id="パス_83687" data-name="パス 83687" d="M154.153,10.876V6.658l-3.577-2.411h-6.26L138.013,0l-6.3,4.247h-6.26l-3.577,2.411v4.218L115.609,15.1l6.264,4.221v4.219l3.577,2.41h6.26l6.3,4.248,6.3-4.248h6.257l3.58-2.413V19.318l6.263-4.221Zm-2.979-4.262V8.869l-3.345-2.255Zm0,5.109v6.749l-7.581,5.108h-11.16l-7.581-5.108V11.723l7.581-5.109h11.16ZM138.013,2.854l2.068,1.393h-4.136Zm-13.161,3.76H128.2l-3.345,2.255ZM119.845,15.1l2.028-1.367v2.734Zm5.008,8.483V21.326L128.2,23.58Zm13.161,3.76-2.068-1.393h4.136Zm13.161-3.76h-3.345l3.345-2.254Zm2.979-9.849,2.028,1.367-2.028,1.367Z" transform="translate(-65.856 0)" fill="#fff"/>
  </g>
</svg>
