<svg xmlns="http://www.w3.org/2000/svg" xmlns:xlink="http://www.w3.org/1999/xlink" width="233.885" height="29.548" viewBox="0 0 233.885 29.548">
  <defs>
    <clipPath id="clip-path">
      <rect id="長方形_9568" data-name="長方形 9568" width="233.885" height="29.548" fill="#637389"/>
    </clipPath>
  </defs>
  <g id="グループ_20565" data-name="グループ 20565" transform="translate(-728.614 60.164)">
    <g id="グループ_20564" data-name="グループ 20564" transform="translate(728.614 -60.164)" clip-path="url(#clip-path)">
      <path id="パス_83678" data-name="パス 83678" d="M32.434,19.822c-3.322-.783-9.5-.815-15.01-.815-6.173,0-10.592-.125-12.252-.6A2.324,2.324,0,0,1,3.2,16c0-1.315.438-2.162,2.162-2.789,2.037-.753,6.016-1.318,12.189-1.318A95.855,95.855,0,0,1,34.031,13.4l.439-2.413A97.607,97.607,0,0,0,17.548,9.449c-6.893,0-11.406.814-13.913,1.786C1.191,12.175,0,13.742,0,16.124a4.087,4.087,0,0,0,2.914,4.262c2.162.721,7.52,1.065,15.762,1.065h0a88.731,88.731,0,0,1,11.876.47c2.193.439,2.789,1.441,2.789,2.758a3.026,3.026,0,0,1-2.068,3.134c-2.413,1-6.518,1.379-12.315,1.379A99.8,99.8,0,0,1,1.034,27.468L.627,29.943a89.948,89.948,0,0,0,18.332,1.692c5.923,0,11.782-.564,14.54-1.912a4.992,4.992,0,0,0,3.04-5.045c0-2.319-1.128-4.168-4.1-4.857" transform="translate(0 -5.47)" fill="#637389"/>
      <path id="パス_83679" data-name="パス 83679" d="M277.246,28.164h-.094c-9.9-5.891-19.772-11.72-29.643-17.674H244.94V31.8h3.133V14.125h.094c9.9,5.924,19.742,11.783,29.644,17.674h2.569V10.49h-3.134Z" transform="translate(-141.786 -6.072)" fill="#637389"/>
      <path id="パス_83680" data-name="パス 83680" d="M373.69,10.49,354.384,31.579v.22h3.763l4.356-4.763h24.411L391.3,31.8h3.76v-.22l-19.3-21.09Zm11,14.1h-19.93l6.08-6.612c1.912-2.1,3.854-4.355,3.854-4.355h.062c.251.312,1.912,2.256,3.854,4.355Z" transform="translate(-205.138 -6.072)" fill="#637389"/>
      <path id="パス_83681" data-name="パス 83681" d="M479.4,29.167V22.053l28.736,0V19.607H479.4V13.121h29.985V10.489H476.26V31.8h33.312V29.167Z" transform="translate(-275.687 -6.072)" fill="#637389"/>
      <path id="パス_83682" data-name="パス 83682" d="M153.328,10.644V6.515l-3.5-2.359H143.7L137.533,0l-6.168,4.156h-6.126l-3.5,2.359v4.128l-6.13,4.131,6.13,4.131v4.128l3.5,2.358h6.126l6.168,4.157,6.168-4.157h6.123l3.5-2.361V18.9l6.129-4.131Zm-2.916-4.171V8.679l-3.274-2.206Zm0,5v6.6l-7.418,5H132.073l-7.418-5v-6.6l7.418-5h10.921ZM137.533,2.793l2.024,1.363H135.51Zm-12.879,3.68h3.274l-3.274,2.206Zm-4.9,8.3,1.985-1.338v2.675Zm4.9,8.3V20.869l3.274,2.206Zm12.879,3.68-2.024-1.364h4.047Zm12.879-3.68h-3.274l3.274-2.206Zm2.916-9.639,1.985,1.338-1.985,1.338Z" transform="translate(-66.921 0)" fill="#637389"/>
    </g>
  </g>
</svg>
