<?xml version="1.0" encoding="UTF-8"?>
<svg xmlns="http://www.w3.org/2000/svg" version="1.1" viewBox="0 0 100 16">
  <defs>
    <style>
      .cls-1 {
        isolation: isolate;
      }

      .cls-2 {
        fill: #fff;
      }
    </style>
  </defs>
  <!-- Generator: Adobe Illustrator 28.7.6, SVG Export Plug-In . SVG Version: 1.2.0 Build 188)  -->
  <g>
    <g id="_レイヤー_1" data-name="レイヤー_1">
      <g id="_収益物件一覧" data-name="収益物件一覧" class="cls-1">
        <g class="cls-1">
          <path class="cls-2" d="M4.8.7h1.4v14.6h-1.4v-4.1l-3.9,1.1-.3-1.5h.3c.3-.1.5-.2.8-.3V2.4h1.4v7.7l1.7-.4V.7ZM14.9,2c-.5,3.6-1.5,6.5-3,8.9,1,1.4,2.2,2.4,3.6,3.1-.2.1-.4.4-.6.6s-.4.5-.5.7c-1.4-.7-2.5-1.8-3.5-3.1-1,1.2-2.2,2.2-3.6,3-.1-.2-.3-.4-.5-.7-.2-.3-.4-.4-.6-.6,1.4-.7,2.6-1.8,3.7-3.2-1.1-1.9-1.9-4.3-2.5-7.2l1.4-.3c.5,2.4,1.1,4.4,2,6.1,1-1.8,1.8-3.8,2.2-6.2h-6.3v-1.5h7s1,.2,1,.2Z"/>
          <path class="cls-2" d="M27.7,5.2c.6.9,1.3,1.7,2.1,2.4.8.7,1.7,1.3,2.5,1.7-.2.1-.3.3-.5.6-.2.2-.4.4-.5.6-.4-.2-.8-.5-1.4-.9v3.8h2.1v1.3h-14.4v-1.3h2.2v-3.7c-.5.4-.9.7-1.3,1-.1-.2-.3-.4-.5-.6-.2-.2-.4-.4-.6-.5.9-.5,1.7-1.1,2.5-1.9s1.4-1.6,1.9-2.5h-3.8v-1.3h3.9c-.2-.4-.4-.8-.7-1.3-.3-.5-.6-.9-.9-1.3l1.3-.6c.4.4.7.9,1.1,1.5s.6,1,.8,1.4l-.8.4h4.7l-.9-.3c.3-.4.7-.9,1-1.5.3-.6.6-1.1.8-1.5l1.6.5c-.7,1.1-1.4,2.1-2,2.9h4v1.3h-4ZM29.2,9.1c-1.3-1.1-2.3-2.4-3.1-3.9h-2.7c-.8,1.4-1.7,2.7-2.9,3.9h8.7ZM22.6,13.5v-3.1h-1.6v3.1h1.6ZM25.6,13.5v-3.1h-1.6v3.1h1.6ZM26.9,13.5h1.6v-3.1h-1.6v3.1Z"/>
          <path class="cls-2" d="M40.4,8.9c-.4.1-1,.3-1.9.6v5.7h-1.4v-5.3l-2.5.8-.4-1.4c.9-.2,1.8-.5,2.9-.8v-3.4h-1.3c-.2.9-.4,1.6-.7,2.2-.2-.2-.6-.4-1.1-.7.5-1.1.8-2.8,1-5.2l1.3.2c-.1.9-.2,1.6-.3,2h1V.6h1.4v3.2h1.5v1.4h-1.5v2.9l1.7-.5.2,1.3ZM48.8,3.2c0,.4,0,.6,0,.7-.1,2.4-.2,4.4-.4,5.8-.1,1.4-.2,2.5-.4,3.2s-.3,1.2-.5,1.5c-.2.2-.3.4-.5.5-.2,0-.4.2-.7.2-.2,0-.5,0-.9,0s-.5,0-.9,0c0-.2,0-.5-.1-.7,0-.3-.2-.5-.3-.7.4,0,1,0,1.6,0s.2,0,.3,0c0,0,.2-.1.2-.2.2-.3.5-1.1.6-2.4.2-1.3.3-3.5.5-6.4h-.4c-.4,2.2-1.1,4.3-2,6.1s-1.9,3.3-3.2,4.3c-.1-.1-.3-.3-.6-.5-.2-.2-.5-.3-.7-.4,1.2-.9,2.3-2.2,3.1-3.9.9-1.7,1.5-3.6,1.9-5.7h-1.1c-.4,1.4-.9,2.8-1.6,4.1s-1.4,2.3-2.2,3c-.1-.1-.3-.3-.5-.5-.2-.2-.4-.3-.6-.4.8-.6,1.5-1.5,2.1-2.6.6-1.1,1.2-2.4,1.6-3.7h-1.1c-.5,1.2-1.1,2.2-1.7,2.9-.2-.1-.4-.3-.6-.5-.2-.2-.4-.3-.6-.4.6-.7,1.2-1.5,1.6-2.6.5-1.1.8-2.2,1.1-3.5l1.3.3c-.1.6-.4,1.4-.7,2.3h6.1Z"/>
          <path class="cls-2" d="M56,1.1c-.4,1.1-.9,2.3-1.6,3.5v10.7h-1.4V6.8c-.4.6-.8,1.1-1.2,1.6,0-.2-.2-.4-.4-.8s-.3-.6-.4-.7c.7-.7,1.4-1.7,2.1-2.8s1.2-2.2,1.6-3.4l1.4.4ZM65.7,9.8h-4.2v5.4h-1.5v-5.4h-4.4v-1.5h4.4v-3.2h-2.3c-.4,1-.7,1.7-1.1,2.3-.1,0-.3-.2-.6-.4-.3-.1-.5-.3-.7-.4.4-.6.8-1.4,1.1-2.3.3-.9.6-1.9.8-3l1.4.3c-.1.6-.3,1.3-.5,2h1.8V.8h1.5v3h3.5v1.5h-3.5v3.2h4.2v1.5Z"/>
          <path class="cls-2" d="M68,6.9h14.6v1.6h-14.6v-1.6Z"/>
          <path class="cls-2" d="M97.3,13.9c.2,0,.3,0,.4,0,0,0,.2-.2.2-.4s0-.5,0-.9c.1,0,.3.2.6.3s.5.2.7.2c0,.6-.1,1-.3,1.3-.1.3-.3.5-.6.6-.2.1-.6.2-1,.2h-2.5c-.6,0-1,0-1.3-.1-.3,0-.5-.2-.6-.5-.1-.2-.2-.5-.2-1v-1h-2.1c-.2.6-.5,1-.9,1.4-.4.4-.9.7-1.7.9-.7.2-1.7.4-2.9.5,0-.2-.1-.4-.3-.6-.1-.2-.3-.4-.4-.6,1,0,1.8-.2,2.4-.3s1.1-.3,1.4-.5c.3-.2.6-.5.7-.8h-2.2v-5.3h9.9v5.3h-2.6v1c0,.2,0,.3.1.4,0,0,.3,0,.7,0h2.2ZM92.2,5.8v.9h-6.7V1.1h6.5v.9h-2.5v.7h2.2v2.4h-2.2v.7h2.7ZM88.3,2h-1.4v.7h1.4v-.7ZM90.4,4.2v-.7h-3.5v.7h3.5ZM86.8,5.1v.7h1.4v-.7h-1.4ZM88.5,8v.7h7v-.7h-7ZM88.5,9.5v.7h7v-.7h-7ZM88.5,11v.7h7v-.7h-7ZM94.1,3.3c-.4.7-.7,1.3-1.2,1.8-.1-.1-.3-.2-.6-.4-.2-.2-.4-.3-.6-.4.4-.4.8-1,1.1-1.7.3-.7.6-1.4.8-2.1l1.3.3c-.1.5-.3.9-.4,1.3h4.5v1.2h-5.1ZM98.8,6.2h-5.2v-1.2h5.2v1.2Z"/>
        </g>
      </g>
    </g>
  </g>
</svg>