<?xml version="1.0" encoding="UTF-8"?><svg id="_レイヤー_1" xmlns="http://www.w3.org/2000/svg" xmlns:xlink="http://www.w3.org/1999/xlink" viewBox="0 0 125 56"><defs><style>.cls-1{fill:none;}.cls-2{fill:#637389;}.cls-3{fill:#99a9be;}.cls-4{clip-path:url(#clippath);}</style><clipPath id="clippath"><rect class="cls-1" x="47.24" y="10.69" width="28.76" height="16.82"/></clipPath></defs><g id="_グループ_30690"><path id="_パス_155760" class="cls-2" d="M19.93,38.45v6.86h-1.2v-5.87c-.55,1.14-1.24,2.2-2.06,3.17-.76.93-1.64,1.74-2.62,2.43v-1.46c.86-.69,1.64-1.48,2.3-2.37.65-.84,1.17-1.77,1.54-2.77h-3.82v-1.14h4.66v-1.5h1.2v1.5h1.37v1.14h-1.37ZM23.74,36.4h3.07v1.18h-3.07v-1.18ZM30.94,38.41c-.28,1.07-.75,2.08-1.39,2.99-.56.81-1.25,1.52-2.05,2.09-.58.4-1.21.72-1.87.97-.61.21-1.25.36-1.89.44v-1.24c.55-.04,1.08-.15,1.6-.32.56-.2,1.09-.5,1.56-.86,1.35-1.02,2.33-2.44,2.82-4.06h1.22ZM33.91,36.26h6.24v1.12h-6.24v-1.12ZM33.57,40.27v-1.14h7.1c0,.8-.14,1.58-.43,2.33-.25.66-.65,1.25-1.17,1.73-.46.43-.99.79-1.57,1.05-.43.21-.88.38-1.35.5-.44.11-.93.21-1.48.3v-1.22c.84-.11,1.66-.35,2.42-.72.54-.27,1.01-.64,1.4-1.1.42-.49.7-1.09.81-1.73h-5.74ZM50.46,36.08c-.3.57-.65,1.11-1.04,1.62-.39.54-.82,1.04-1.31,1.49v6.08h-1.2v-5.04c-1.12.86-2.36,1.56-3.67,2.07v-1.22c.69-.3,1.35-.65,1.99-1.05.74-.46,1.43-1.01,2.04-1.64.69-.69,1.28-1.47,1.76-2.32h1.43ZM52.92,36.4h3.07v1.18h-3.07v-1.18ZM60.12,38.41c-.28,1.07-.75,2.08-1.39,2.99-.56.81-1.25,1.52-2.05,2.09-.58.4-1.21.72-1.87.97-.61.21-1.25.36-1.89.44v-1.24c.55-.04,1.08-.15,1.6-.32.56-.2,1.09-.5,1.56-.86,1.35-1.02,2.33-2.44,2.82-4.06h1.22ZM68.18,36.07c-.14.44-.28.88-.41,1.32h4.68v7.91h-1.14v-.62h-7.31v.62h-1.08v-7.91h3.7c.1-.42.19-.86.26-1.32h-4.48v-1.06h10.61v1.06h-4.84ZM64,38.41v5.23h1.5v-5.23h-1.5ZM68.73,39.54v-1.13h-2.23v1.13h2.23ZM71.31,43.64v-5.23h-1.57v5.23h1.57ZM68.73,41.57v-1.14h-2.23v1.14h2.23ZM66.5,42.46v1.18h2.23v-1.18h-2.23ZM85.03,39.67c-.36-.31-.73-.61-1.12-.88-.47-.34-.96-.67-1.48-.99-.24.45-.58.84-.98,1.15-.49.36-1.03.63-1.61.82-.08-.16-.17-.32-.28-.47-.1-.15-.22-.29-.35-.42.66-.17,1.27-.5,1.78-.95.39-.39.67-.88.8-1.42.16-.73.25-1.48.26-2.23h1.09c-.02.87-.13,1.74-.34,2.59.57.33,1.12.67,1.67,1.03.54.36.97.67,1.28.92l-.73.85ZM78.81,34.67v.87h-3.44v-.88h3.44ZM85.58,35.32c-.35.66-.75,1.3-1.18,1.91l-.83-.33c.19-.3.36-.62.52-.94.16-.32.3-.65.42-.99l1.07.35ZM81.21,35.21c-.06.42-.17.84-.34,1.23-.14.36-.36.68-.64.95l-.85-.41c.25-.23.44-.51.57-.83.16-.36.27-.74.34-1.13l.92.18ZM79.24,36.25v.89h-4.47v-.89h4.47ZM78.84,37.88v.86h-3.52v-.86h3.52ZM83.1,41c.01.37.09.73.23,1.07.2.47.49.89.86,1.24.48.46,1.06.82,1.69,1.04-.24.3-.45.62-.65.95-.5-.19-.96-.46-1.36-.82-.35-.31-.65-.66-.9-1.06-.19-.3-.34-.62-.44-.96-.11.34-.27.66-.48.95-.28.4-.62.75-1,1.04-.46.36-.97.64-1.52.84-.09-.16-.19-.32-.29-.47-.1-.15-.22-.29-.34-.43.69-.22,1.32-.58,1.86-1.06.4-.35.72-.77.94-1.25.16-.34.24-.71.26-1.09v-1.75h1.14v1.75ZM75.32,40.36v-.88h3.52v.88h-3.52ZM83.56,42.16c.21-.32.4-.66.56-1,.2-.4.36-.76.49-1.09l1.09.36c-.39.71-.82,1.39-1.28,2.06l-.86-.32ZM79.09,42.24c.29-.24.52-.53.67-.87.19-.39.33-.8.41-1.22l.98.2c-.08.47-.22.92-.42,1.35-.18.39-.43.75-.75,1.04l-.9-.5ZM78.85,41.1v3.53h-2.58v.5h-.96v-4.03h3.54ZM77.89,42h-1.62v1.73h1.62v-1.73ZM97.46,35.12c-1.41.27-2.84.47-4.28.59-1.67.15-3.35.26-5.06.31-.01-.16-.04-.32-.08-.48-.04-.16-.09-.32-.16-.47,1.67-.07,3.3-.17,4.9-.32,1.31-.11,2.61-.29,3.89-.54l.78.91ZM88.81,40.18h-1.04v-2.48h1.81c-.09-.24-.18-.48-.29-.71-.12-.25-.25-.49-.39-.72l.97-.28c.17.24.32.49.45.76.12.24.23.49.32.74l-.65.2h2.59c-.04-.27-.11-.55-.2-.81-.09-.3-.21-.6-.34-.88l1-.22c.13.28.26.57.38.88.1.25.18.51.22.78l-1.01.25h2.39c.17-.28.34-.6.52-.95.16-.32.31-.64.44-.97l1.16.31c-.43.75-.77,1.29-1,1.62h1.88v2.48h-1.09v-1.5h-8.12v1.5ZM96.58,40.25c-.58,1.18-1.46,2.19-2.56,2.92,1.36.53,2.78.86,4.22,1-.13.15-.26.31-.36.49-.13.2-.24.39-.32.57-1.63-.2-3.21-.67-4.68-1.39-1.5.7-3.1,1.17-4.74,1.4-.08-.18-.17-.36-.28-.52-.11-.18-.23-.34-.37-.49,1.48-.15,2.93-.5,4.31-1.06-.86-.59-1.6-1.34-2.18-2.21l.22-.1h-.52v-1.03h6.3l.2-.04.76.46ZM90.81,40.86c.57.73,1.28,1.33,2.1,1.76.79-.43,1.47-1.04,1.99-1.76h-4.09ZM104.01,34.69c-.34.87-.75,1.72-1.21,2.53v8.04h-1.13v-6.3c-.32.44-.67.85-1.06,1.24-.07-.14-.17-.34-.31-.58-.11-.2-.23-.38-.37-.56.65-.63,1.21-1.34,1.69-2.11.52-.82.95-1.7,1.28-2.61l1.1.35ZM110.95,38h-1.43v5.86c.02.29-.04.59-.16.85-.13.2-.32.34-.55.41-.26.08-.54.13-.82.15-.33.03-.78.04-1.33.04h-.5c-.04-.19-.1-.37-.18-.55-.07-.19-.16-.38-.26-.56.54.02,1.05.04,1.51.04h.74c.11,0,.21-.04.3-.1.07-.07.1-.17.09-.27v-5.86h-4.7v-1.12h4.7v-2.48h1.15v2.48h1.43v1.12ZM105.98,42.49c-.48-1.01-1.03-2-1.64-2.94l.97-.46c.31.48.64.99.97,1.54.34.55.58.98.74,1.29l-1.04.56Z"/><g id="_グループ_30680"><g class="cls-4"><g id="_グループ_30679"><path id="_パス_155754" class="cls-3" d="M73.66,26s0-.05,0-.07v-13.93c0-.73-.59-1.31-1.32-1.32h-21.49c-.73,0-1.31.59-1.31,1.32v13.93s0,.05,0,.07h-2.33v.36c0,.63.51,1.15,1.15,1.15h26.46c.63,0,1.15-.51,1.15-1.15v-.36h-2.33ZM71.96,25.54h-20.7v-13.14h20.7v13.14Z"/><path id="_パス_155755" class="cls-3" d="M61.61,19.32c1.75,0,3.17-1.42,3.17-3.17s-1.42-3.17-3.17-3.17-3.17,1.42-3.17,3.17,1.42,3.17,3.17,3.17h0"/><path id="_パス_155756" class="cls-3" d="M65.67,22.37c-.24-.95-.72-1.83-1.37-2.56-.13-.11-.32-.12-.47-.03-1.36.84-3.07.84-4.43,0-.15-.09-.33-.08-.47.03-.66.73-1.13,1.61-1.37,2.56-.35,2.08,1.88,2.84,4.06,2.84s4.4-.75,4.06-2.84"/></g></g></g></g><rect class="cls-1" width="125" height="56"/></svg>