<?xml version="1.0" encoding="UTF-8"?>
<svg xmlns="http://www.w3.org/2000/svg" version="1.1" viewBox="0 0 119 17">
  <defs>
    <style>
      .cls-1 {
        isolation: isolate;
      }

      .cls-2 {
        fill: #fff;
      }
    </style>
  </defs>
  <!-- Generator: Adobe Illustrator 28.7.6, SVG Export Plug-In . SVG Version: 1.2.0 Build 188)  -->
  <g>
    <g id="_レイヤー_1" data-name="レイヤー_1">
      <g id="_メンバーシップ登録" data-name="メンバーシップ登録" class="cls-1">
        <g class="cls-1">
          <path class="cls-2" d="M1.2,14.2c1-.3,1.9-.8,2.8-1.5.9-.7,1.6-1.6,2.3-2.6-1.2-1.1-2.3-1.9-3.3-2.5v-1.8c1.5.9,2.8,1.9,4.1,2.9.4-.8.7-1.6,1-2.3.2-.7.4-1.5.6-2.4h1.7c-.2.9-.4,1.9-.7,2.7-.3.9-.7,1.9-1.3,3l1.1,1.1.3.3c.2.2.4.4.5.6v2.5c-.9-1.1-1.8-2.2-2.7-3.1-.5.7-1,1.3-1.8,2s-1.5,1.2-2.3,1.7c-.8.5-1.6.8-2.3,1v-1.7Z"/>
          <path class="cls-2" d="M13.9,4.4h4.1v1.6h-4.1v-1.6ZM23.5,7.1c-.4,1.5-1,2.8-1.9,4-.8,1.2-1.8,2.1-2.7,2.8-.9.6-1.7,1-2.5,1.3-.8.3-1.6.5-2.5.6v-1.6c.7,0,1.4-.2,2.1-.4s1.4-.6,2.1-1.2c1.7-1.3,3-3.1,3.8-5.4h1.6Z"/>
          <path class="cls-2" d="M26.8,15.6c.1-.4.4-1,.7-1.9.7-2.1,1-4.4,1-6.7v-2.9h1.6v2.9c0,1.4,0,2.7-.2,3.8-.1,1-.3,1.8-.5,2.6-.2.7-.5,1.5-.7,2.2h-1.8ZM35,15.6c-.3-.6-.6-1.2-.8-2-.6-2-.8-4.2-.8-6.6v-2.9h1.6v2.9c0,1.3.1,2.6.3,3.7.3,1.7.8,3.3,1.4,4.9h-1.7ZM33.7,1.2h1.2v2.4h-1.2V1.2ZM35.6,1.2h1.2v2.4h-1.2V1.2Z"/>
          <path class="cls-2" d="M39.7,9h6.9v1.6h-6.9v-1.6Z"/>
          <path class="cls-2" d="M49.9,4.2h3.8v1.6h-3.8v-1.6ZM59.5,7.1c-.4,1.5-1,2.8-1.9,4s-1.7,2.1-2.7,2.8c-.9.6-1.7,1-2.5,1.3-.8.3-1.6.5-2.5.6v-1.6c.8-.1,1.5-.3,2.2-.5.7-.2,1.3-.6,2-1.1,1.7-1.3,3-3.1,3.8-5.4h1.6ZM49.9,8.1h3.8v1.6h-3.8v-1.6Z"/>
          <path class="cls-2" d="M64.6,10.8h-1.3l-.8-4.7h1.2l.8,4.7ZM63.6,14.5c.9-.2,1.8-.6,2.5-1.2.8-.6,1.4-1.4,1.8-2.3.4-.8.7-1.6.9-2.3.2-.8.4-1.6.5-2.5h1.4c0,.7-.2,1.5-.3,2.2-.1.7-.4,1.4-.7,2.2-.3.8-.7,1.6-1.3,2.4-.6.8-1.3,1.5-2.2,2-.8.5-1.7.9-2.6,1v-1.4ZM67.2,10.8h-1.3l-.8-4.7h1.2l.8,4.7Z"/>
          <path class="cls-2" d="M74.1,5.9v-1.6h8.9v1.9c0,1.4-.2,2.6-.6,3.7s-1,2-1.7,2.8c-.6.7-1.2,1.2-2,1.6-1.2.6-2.4,1.1-3.6,1.3v-1.6c.7-.1,1.4-.4,2.1-.6.6-.3,1.3-.7,1.9-1.2.7-.7,1.3-1.5,1.7-2.4s.7-2.3.7-3.9h-7.4ZM81.6,1.3c.3-.3.8-.5,1.2-.5s.9.2,1.3.5.5.8.5,1.3-.2.9-.5,1.2-.8.5-1.3.5-.9-.2-1.2-.5c-.3-.3-.5-.8-.5-1.2s.2-.9.5-1.3ZM83.6,2.5c0-.2,0-.4-.2-.6s-.3-.2-.6-.2-.4,0-.6.2-.2.3-.2.6,0,.4.2.6.3.2.6.2.4,0,.6-.2.2-.3.2-.6Z"/>
          <path class="cls-2" d="M100.4,4.3c-.7.6-1.4,1.2-2.2,1.8.9.7,1.8,1.2,2.7,1.6-.2.1-.4.3-.5.6-.2.2-.3.5-.4.7-1.3-.6-2.5-1.4-3.6-2.5v.8h-5.9v-.7c-1.1,1.1-2.3,2-3.7,2.6,0-.1-.2-.3-.4-.6-.2-.2-.3-.4-.5-.5,1-.4,2-1,3-1.9-.2-.2-.5-.5-.9-.8-.3-.3-.7-.5-1-.7l.8-.8c.4.2.7.4,1.1.7.4.3.7.5.9.8.6-.6,1.1-1.2,1.4-1.9h-3.6v-1.2h4.6c0,0,1,.4,1,.4-.4,1.2-1.1,2.3-2,3.3h4.8c-1-1.1-1.8-2.4-2.5-3.9l1.3-.4c.3.6.6,1.2,1,1.8.8-.7,1.4-1.2,1.9-1.7l1.1.8c-.8.7-1.6,1.3-2.3,1.8.3.3.6.7.9,1,.8-.6,1.5-1.2,2-1.8l1.1.8ZM97,12.7c-.4.7-.7,1.4-1.1,2h4.3v1.2h-13.7v-1.2h4.1c0-.3-.2-.6-.3-1-.2-.4-.3-.7-.5-1l.9-.2h-1.8v-4.2h8.9v4.2h-1.5l.7.2ZM90.4,9.5v1.8h6v-1.8h-6ZM91.3,12.5c.2.3.4.7.6,1,.2.4.3.7.4,1l-.6.2h3.5-.5c.3-.7.7-1.3,1-2.2h-4.3Z"/>
          <path class="cls-2" d="M112.3,13c-1,.8-2,1.5-3,2.2l-.4-.7h0c-2.5.7-4.4,1.1-5.7,1.3l-.3-1.4c.5,0,1.3-.2,2.5-.4v-4.5h-2.3v-1.3h2.3v-1.5h-1.5v-.7l-.5.5c0-.1-.2-.3-.4-.5-.2-.2-.3-.3-.5-.4.7-.6,1.2-1.2,1.7-1.9s.9-1.4,1.2-2.1h1.3c.5.4,1,.9,1.5,1.4.5.5.9,1,1.2,1.4l-1,1.1h.1v1.3h-1.8v1.5h2.2v1.3h-2.2v4.3l2.1-.4v.4c.7-.4,1.6-1,3-1.9l.4,1.1ZM104.4,10.2c.1.5.3,1,.4,1.5s.2,1,.2,1.4l-1.1.3c0-.4,0-.8-.2-1.4-.1-.5-.2-1.1-.4-1.5l1-.3ZM108.4,5.5c-.2-.4-.5-.8-.9-1.3-.4-.5-.8-.9-1.2-1.3-.6,1-1.2,1.8-1.8,2.5h3.9ZM107.2,12.9c.1-.4.2-.8.4-1.4.1-.5.2-1,.3-1.4l1.1.3-.3.9c-.2.7-.4,1.3-.5,1.8l-.9-.3ZM114.7,10.9c.8,1.5,1.8,2.6,3.1,3.2-.1.1-.3.3-.5.6s-.3.5-.4.6c-1.2-.8-2.2-2-3-3.6v3.1c0,.4,0,.6-.1.8,0,.2-.2.3-.4.4-.2,0-.4.2-.7.2-.3,0-.7,0-1.2,0,0-.2,0-.4-.1-.6s-.2-.5-.2-.7c.4,0,.8,0,1.2,0,0,0,.1,0,.2,0,0,0,0,0,0-.2v-6.6h-3.4v-1.3h5.9v-1.1h-4.7v-1.2h4.7v-1.1h-5v-1.2h6.4v4.7h1.2v1.3h-3.7v.4c.2.8.5,1.5.8,2.2.3-.3.6-.6.9-1s.6-.8.8-1.1l1.2.7c-.7.8-1.4,1.5-2,2.1l-.8-.5ZM110.2,8.8c.3.3.7.7,1,1,.3.4.6.7.7,1l-1.1.7c-.1-.3-.4-.6-.7-1-.3-.4-.6-.8-1-1.1l1-.6Z"/>
        </g>
      </g>
    </g>
  </g>
</svg>