<?xml version="1.0" encoding="UTF-8"?><svg id="_レイヤー_1" xmlns="http://www.w3.org/2000/svg" xmlns:xlink="http://www.w3.org/1999/xlink" viewBox="0 0 125 56"><defs><style>.cls-1{fill:none;}.cls-2{fill:#637389;}.cls-3{fill:#99a9be;}.cls-4{clip-path:url(#clippath);}</style><clipPath id="clippath"><rect class="cls-1" x="52.37" y="9.52" width="21" height="21"/></clipPath></defs><g id="_グループ_30692"><path id="_パス_155762" class="cls-2" d="M32.8,40.78v-2.63h-3.54v1.58h-1v-2.35h4.54v-.61h-3.8v-.85h8.74v.85h-3.86v.61h4.62v2.35h-1.03v-1.58h-3.59v2.63h-1.08ZM29.82,38.69h2.44v.65h-2.44v-.65ZM34.43,38.69h2.46v.65h-2.46v-.65ZM29.58,40.54v-.65h2.69v.65h-2.69ZM34.43,40.54v-.65h2.76v.65h-2.76ZM37.19,45.52c.16,0,.32-.02.46-.1.12-.09.2-.22.22-.37.06-.28.1-.57.11-.85.14.09.29.17.44.23.16.07.33.11.5.13-.02.39-.1.76-.23,1.13-.09.24-.27.43-.49.54-.3.12-.63.17-.95.16h-2.63c-.39.01-.78-.03-1.16-.11-.23-.05-.44-.2-.56-.4-.12-.26-.18-.55-.16-.84v-.23h-2.35v.58h-1.07v-4.24h8.14v3.66h-3.65v.23c0,.11.02.22.07.32.06.08.15.13.25.14.19.03.38.04.57.04h2.5ZM32.74,41.92h-2.35v.71h2.35v-.71ZM36.36,42.63v-.71h-2.56v.71h2.56ZM30.39,44.01h2.35v-.69h-2.35v.69ZM33.81,44.01h2.56v-.69h-2.56v.69ZM48.84,39.95v1.82h2.16v4.63h-1.1v-.53h-3.16v.59h-1.07v-4.69h2.03v-1.82h-2.69v-1.06h2.69v-1.69c-.96.11-1.67.18-2.12.22-.02-.16-.06-.32-.12-.47-.05-.16-.12-.33-.2-.48.96-.08,1.91-.2,2.84-.35.77-.11,1.53-.28,2.27-.5l.78.91c-.76.21-1.52.37-2.3.5v1.86h2.7v1.06h-2.71ZM44.52,35.85v.87h-3.43v-.88h3.43ZM40.45,38.36v-.89h4.48v.89h-4.48ZM44.53,39.14v.86h-3.52v-.86h3.52ZM41.02,41.64v-.86h3.52v.86h-3.52ZM44.58,42.43v3.51h-2.63v.52h-.96v-4.04h3.59ZM49.9,44.87v-2.09h-3.16v2.09h3.16ZM43.62,43.32h-1.67v1.73h1.67v-1.73ZM56.22,39.36h-2.17v-1.1h2.17v-1.2h1.13v1.2h1.63v1.1h-1.63v1.52c.18-.03.36-.05.54-.05.73-.03,1.45.14,2.09.49.35.2.64.49.86.83.23.39.35.84.33,1.3.03.53-.08,1.05-.31,1.53-.19.34-.46.63-.79.84-.31.17-.64.3-.98.39-.37.1-.75.16-1.13.16v-1.12c.41.02.82-.06,1.19-.23.27-.13.5-.32.67-.56.16-.26.23-.56.22-.86.04-.51-.18-1.01-.58-1.32-.51-.31-1.12-.43-1.71-.35h-.11c-.1,0-.19.02-.29.05v2.47c.02.44-.09.87-.34,1.24-.32.37-.8.56-1.28.49-.32,0-.63-.08-.91-.22-.34-.17-.62-.45-.78-.8-.2-.41-.3-.86-.29-1.31,0-.39.08-.77.22-1.13.19-.4.47-.74.83-1,.43-.32.91-.55,1.42-.7v-1.68ZM60.06,37.1c.5.97.97,1.99,1.4,3.07h-1.26c-.39-1.05-.85-2.07-1.36-3.07h1.22ZM56.22,42.17c-.39.17-.73.43-.98.77-.23.29-.35.64-.36,1.01,0,.19.04.39.13.56.07.17.18.31.31.43.09.09.21.14.34.13.02.02.08.02.17,0,.1-.03.18-.08.26-.14.08-.08.13-.19.13-.3v-2.46ZM68.57,40.23h-3.32v6.24h-1.1v-10.54h4.42v4.3ZM74.04,45.05c.01.27-.03.54-.13.79-.09.19-.26.35-.46.43-.25.09-.52.14-.79.16-.33.02-.81.04-1.44.04-.03-.19-.07-.38-.14-.56-.07-.2-.15-.39-.25-.57.3.02.72.02,1.26.02h.52c.08,0,.16-.02.23-.07.05-.07.07-.15.06-.23v-4.8h-3.38v-4.31h4.52v9.12ZM72.9,36.81h-2.32v.85h2.32v-.85ZM67.51,36.82h-2.26v.84h2.26v-.84ZM65.26,39.35h2.26v-.9h-2.26v.9ZM70.59,39.36h2.32v-.91h-2.32v.91ZM71.29,44.79h-3.5v.7h-1.03v-4.3h4.52v3.6ZM70.24,42.12h-2.45v1.74h2.45v-1.74ZM82.14,35.47c.67.92,1.46,1.74,2.36,2.45.87.71,1.82,1.29,2.84,1.75-.29.3-.53.64-.73,1-.68-.35-1.33-.76-1.94-1.21v.85h-5.98v-.82c-.61.45-1.26.86-1.93,1.22-.08-.16-.18-.31-.29-.44-.12-.16-.25-.3-.39-.44,1.04-.53,2-1.2,2.87-1.98.8-.68,1.49-1.48,2.06-2.36h1.14ZM84.45,39.3c-.56-.42-1.09-.87-1.6-1.36-.45-.42-.86-.89-1.23-1.38-.35.49-.74.96-1.16,1.39-.48.49-.99.94-1.54,1.35h5.53ZM78,46.48v-4.82h7.39v4.82h-1.14v-.47h-5.16v.47h-1.09ZM84.25,42.66h-5.16v2.36h5.16v-2.36ZM89.25,40.19v-1.1h1.08l.02-1.42v-.32h1.18c-.02.32-.05.9-.07,1.74h3.14l-.05-1.74h1.12v.35l.02,1.39h1.04v1.1h-1.02v1.26c.02.5-.08,1-.29,1.45-.11.29-.32.52-.59.68-.3.14-.62.2-.95.19-.32.01-.64-.01-.96-.07-.18-.05-.3-.08-.34-.08v-1.07c.35.06.7.09,1.06.11.28.03.56-.07.76-.27.17-.3.25-.65.22-1v-1.19h-3.21c-.03.99-.04,1.73-.04,2.21,0,.3,0,.52.01.67.01.22.04.43.07.64.03.17.08.34.16.5.13.31.37.56.67.7.36.14.75.21,1.14.22.38.02.66.02.82.02.6,0,1.2-.04,1.8-.12v1.15c-.55.07-1.11.09-1.67.08-.25,0-.56,0-.92-.02-.52-.02-1.03-.12-1.53-.28-.48-.15-.89-.48-1.16-.91-.29-.57-.45-1.2-.46-1.84,0-.07-.01-.36-.01-.85v-2.18s-1.04,0-1.04,0Z"/><g id="_グループ_30684"><g class="cls-4"><g id="_グループ_30683"><path id="_パス_155758" class="cls-3" d="M66.24,21.56c-.21-.21-.55-.21-.76,0h0s-.66.66-.66.66c-.19.19-.5.21-.71.04-.59-.43-1.15-.91-1.65-1.44-.53-.51-1.01-1.06-1.44-1.65-.17-.21-.15-.52.04-.71l.66-.66c.21-.21.21-.55,0-.76h0s-1.45-1.45-1.45-1.45c-.21-.21-.55-.21-.76,0h0s-.87.87-.87.87c-.92.92.3,3.76,2.36,5.82s4.89,3.28,5.82,2.36l.87-.87c.21-.21.21-.55,0-.76,0,0,0,0,0,0l-1.44-1.44Z"/><path id="_パス_155759" class="cls-3" d="M62.92,9.71c-5.79,0-10.48,4.69-10.48,10.48s4.69,10.48,10.48,10.48,10.48-4.69,10.48-10.48-4.69-10.48-10.48-10.48h0M62.92,29.02c-4.88,0-8.84-3.96-8.84-8.84,0-4.88,3.96-8.84,8.84-8.84,4.88,0,8.84,3.96,8.84,8.84,0,4.88-3.96,8.83-8.84,8.84"/></g></g></g></g><rect class="cls-1" width="125" height="56"/></svg>