<svg xmlns="http://www.w3.org/2000/svg" width="262.933" height="45.05" viewBox="0 0 262.933 45.05">
  <path id="パス_88553" data-name="パス 88553" d="M-125.106-31.27l10.812,13.091h.212l10.706-13.091L-103.43,0h5.035V-44.732h-.265l-15.582,19.239-15.635-19.239h-.265V0h5.035ZM-90.975,0h15.052V-4.929H-85.939v-9.7h9.858v-4.611h-9.858V-39.591h10.017V-44.52H-90.975Zm27.507-31.27,10.812,13.091h.212L-41.738-31.27-41.791,0h5.035V-44.732h-.265L-52.6-25.493-68.238-44.732H-68.5V0h5.035ZM-29.336,0h7.844C-12.588,0-6.97-5.353-6.97-13.939a14.554,14.554,0,0,0-8.48-13.674A8.414,8.414,0,0,0-11-35.139c0-4.823-3.922-9.381-10.6-9.381h-7.738Zm7.95-24.91c5.512,0,9.54,5.883,9.54,11.4,0,5.406-4.028,8.957-10.123,8.957H-24.3V-24.91ZM-24.3-39.962h2.65a5.346,5.346,0,0,1,5.671,5.353c0,2.915-2.332,4.929-6.519,4.929h-1.8ZM-2.464,0H12.588V-4.929H2.571v-9.7h9.858v-4.611H2.571V-39.591H12.588V-44.52H-2.464ZM60.287-40.386V-45.05c-8.639,0-13.144,4.558-13.144,10.494,0,4.505,2.6,8.48,5.141,12.561,3.339,5.3,4.929,6.519,4.929,10.176,0,6.731-5.565,6.943-7.155,6.943C39.989-4.876,40.2-13.833,31.4-17.7A12.56,12.56,0,0,0,41.526-30.21c0-9.063-5.883-14.31-13.356-14.31H20.007V0h5.035V-15.794c3.18.053,7.42,3.657,10.6,9.063C38.4-2.173,44.176-.053,49.264-.053,54.723-.053,62.2-2.385,62.2-11.077c0-6.307-3.869-10.388-6.148-13.833-2.226-3.339-3.922-6.413-3.922-9.646C52.125-38.425,54.511-40.386,60.287-40.386Zm-35.245.424h2.809c4.558,0,8.162,2.968,8.162,9.169,0,7.261-3.074,9.7-8.533,9.7H25.042Zm0,24.168ZM68.556,0h5.035V-14.787h12.72V0h5.035V-44.52H86.311v24.963H73.591V-44.52H68.556Zm30.21,0H103.8V-44.52H98.765Zm12.508,0h5.035V-14.84h1.113c8.851,0,15.37-5.936,15.37-14.416A15.056,15.056,0,0,0,117.9-44.52h-6.625Zm5.035-39.962h1.484c5.194,0,9.487,4.558,9.487,10.812,0,6.572-4.717,9.805-10.07,9.805h-.9Z" transform="translate(130.141 45.05)" fill="#c7bb5d"/>
</svg>
