<svg xmlns="http://www.w3.org/2000/svg" width="202.354" height="45.527" viewBox="0 0 202.354 45.527">
  <path id="パス_88533" data-name="パス 88533" d="M-82.68-38.107l1.325-4.452A12.934,12.934,0,0,0-89.04-45.05,9.7,9.7,0,0,0-99-35.192c0,5.406,4.081,8.48,6.466,11.024,5.406,5.724,8.639,8.321,8.639,13.038,0,4.134-2.438,6.413-6.413,6.413A16.662,16.662,0,0,1-99.428-8l-1.431,4.876A20.325,20.325,0,0,0-90.206,0c7,0,11.289-4.187,11.289-11.024,0-7.526-5.194-11.024-10.07-16.377-2.067-2.226-5.141-4.4-5.141-7.95A4.92,4.92,0,0,1-89.2-40.545,10.936,10.936,0,0,1-82.68-38.107Zm9.063,25.175C-73.617-4.77-71.285.477-63.176.477S-52.894-4.77-52.894-12.932V-44.52h-4.929v28.673c0,6.042.159,11.236-5.353,11.236-5.565,0-5.512-5.353-5.512-11.236V-44.52h-4.929ZM-40.439-31.27l10.812,13.091h.212L-18.709-31.27-18.762,0h5.035V-44.732h-.265L-29.574-25.493-45.209-44.732h-.265V0h5.035Zm39.167,0L9.54-18.179h.212L20.458-31.27,20.405,0H25.44V-44.732h-.265L9.593-25.493-6.042-44.732h-.265V0h5.035ZM30,0H34.98a69.307,69.307,0,0,1,2.491-18.126H47.912V0l5.035.106V-23.85H53L67.946,0h5.83l-15.1-24.115A10.7,10.7,0,0,0,67.84-34.768c0-5.565-4.717-9.752-11.766-9.752H49.4C34.98-33.231,30-17.755,30,0ZM47.912-35.616v12.508H39.061C41.393-29.2,44.52-33.867,47.912-35.616Zm5.035,7.1V-39.962h2.809c4.028,0,6.572,2.067,6.572,5.088,0,3.286-2.491,6.36-6.943,6.36ZM101.495-44.52H96.3L88.457-27.136,81.09-44.52H76l9.805,23.85L76.744,0h5.194Z" transform="translate(100.859 45.05)" fill="#c7bb5d"/>
</svg>
