<?xml version="1.0" encoding="UTF-8"?><svg id="_レイヤー_1" xmlns="http://www.w3.org/2000/svg" viewBox="0 0 290 45.32"><defs><style>.cls-1{fill:#c7bb5d;}</style></defs><polygon class="cls-1" points="0 44.79 5.04 44.79 5.04 29.98 17.78 29.98 17.78 44.79 22.82 44.79 22.82 .21 17.78 .21 17.78 25.21 5.04 25.21 5.04 .21 0 .21 0 44.79"/><rect class="cls-1" x="30.25" y=".21" width="5.04" height="44.57"/><path class="cls-1" d="M41.13,22.66c0,13.32,9.34,22.66,22.29,22.66,5.78,0,11.14-1.86,14.96-5.2v4.67h5.09v-20.91h-15.97v5.09h10.88v2.44c0,4.56-7.22,8.97-14.86,8.97-9.82,0-16.87-7.32-16.87-17.72s7.06-17.72,17.67-17.72c5.84,0,10.03,2.18,12.84,5.89l4.51-2.55c-3.82-4.51-8.23-8.28-17.14-8.28-14.06,0-23.4,9.39-23.4,22.66Z"/><polygon class="cls-1" points="89.31 44.79 94.35 44.79 94.35 29.98 107.09 29.98 107.09 44.79 112.13 44.79 112.13 .21 107.09 .21 107.09 25.21 94.35 25.21 94.35 .21 89.31 .21 89.31 44.79"/><path class="cls-1" d="M138.39,30.57c.27,0,.53,0,0,0ZM138.39,4.78h1.22c4.56,0,9.76,3.24,9.76,10.08,0,7.96-4.67,10.4-10.14,10.4h-.85V4.78ZM133.35,44.79h5.04v-14.22c2.87.05,6.74,3.29,9.66,8.12,1.75,2.97,6.16,6.1,9.87,6.1v-4.88c-5.68-1.11-5.89-7.38-13.16-11.25,5.31-.9,10.14-5.84,10.14-13,0-9.82-7.48-15.44-14.96-15.44h-6.58v44.57Z"/><polygon class="cls-1" points="162.59 44.79 177.66 44.79 177.66 39.85 167.63 39.85 167.63 30.14 177.5 30.14 177.5 25.52 167.63 25.52 167.63 5.15 177.66 5.15 177.66 .21 162.59 .21 162.59 44.79"/><polygon class="cls-1" points="182.38 4.67 191.09 4.67 191.09 44.79 196.13 44.79 196.13 4.67 204.88 4.67 204.88 .21 182.38 .21 182.38 4.67"/><path class="cls-1" d="M209.55,31.84c0,8.17,2.33,13.43,10.45,13.43s10.29-5.25,10.29-13.43V.21h-4.94v28.71c0,6.05.16,11.25-5.36,11.25s-5.52-5.36-5.52-11.25V.21h-4.93v31.63Z"/><path class="cls-1" d="M242.77,30.57c.27,0,.53,0,0,0ZM242.77,4.78h1.22c4.56,0,9.76,3.24,9.76,10.08,0,7.96-4.67,10.4-10.14,10.4h-.85V4.78ZM237.73,44.79h5.04v-14.22c2.87.05,6.74,3.29,9.66,8.12,1.75,2.97,6.16,6.1,9.87,6.1v-4.88c-5.68-1.11-5.89-7.38-13.16-11.25,5.31-.9,10.14-5.84,10.14-13,0-9.82-7.48-15.44-14.96-15.44h-6.58v44.57Z"/><polygon class="cls-1" points="266.97 .16 266.97 44.79 271.85 44.79 271.85 16.66 289.68 44.79 290 44.79 290 .16 285.12 .16 285.12 27.97 267.45 .16 266.97 .16"/></svg>