<svg xmlns="http://www.w3.org/2000/svg" width="201.453" height="47.488" viewBox="0 0 201.453 47.488">
  <path id="パス_88647" data-name="パス 88647" d="M-86.734-22.1c0-7.579,5.247-12.932,12.72-12.932,7.42,0,12.72,5.353,12.72,12.932s-5.3,12.932-12.72,12.932C-81.487-9.169-86.734-14.522-86.734-22.1Zm-13.674,0c0,14.31,8.533,23.32,22.578,23.744V-3.021c-10.441,0-17.119-7.473-17.119-19.08,0-11.4,6.731-19.133,16.589-19.133v-4.611C-91.186-45.845-100.409-35.934-100.409-22.1Zm8.162,0c0,10.494,7.526,17.861,18.232,17.861,10.653,0,18.232-7.367,18.232-17.861,0-10.441-7.579-17.861-18.232-17.861C-84.72-39.962-92.246-32.542-92.246-22.1Zm42.188-22.472V0h4.876V-28.09L-27.374,0h.318V-44.573h-4.876V-16.8L-49.581-44.573Zm27.719,4.505h8.692V0h5.035V-40.068H.133V-44.52H-22.339ZM3.842,0H18.895V-4.929H8.877v-9.7h9.858v-4.611H8.877V-39.591H18.895V-44.52H3.842ZM26.314-44.573V0h4.876V-28.09L49,0h.318V-44.573H44.44V-16.8L26.792-44.573Zm27.719,4.505h8.692V0h5.035V-40.068h8.745V-44.52H54.034Zm43.248,1.7,1.325-4.187c-1.8-1.537-5.035-2.491-8.533-2.491-4.982,0-9.116,4.4-9.116,9.858,0,5.406,4.081,8.48,6.466,11.024,5.406,5.724,8.639,8.321,8.639,13.038,0,4.134-2.438,6.413-6.413,6.413A16.662,16.662,0,0,1,80.534-8L79.1-3.127A20.325,20.325,0,0,0,89.756,0c7,0,11.289-4.187,11.289-11.077,0-7.579-5.194-11.13-10.07-16.483-2.067-2.279-5.141-4.4-5.141-8a4.935,4.935,0,0,1,4.929-5.247A10.936,10.936,0,0,1,97.282-38.372Z" transform="translate(100.409 45.845)" fill="#c7bb5d"/>
</svg>
