<svg xmlns="http://www.w3.org/2000/svg" width="182.797" height="53.159" viewBox="0 0 182.797 53.159">
  <path id="パス_88534" data-name="パス 88534" d="M-89.915,0h5.035V-44.52h-5.035ZM-77.46-44.573V0h4.876V-28.09L-54.776,0h.318V-44.573h-4.876V-16.8L-76.982-44.573ZM-38.611,7c0-5.3,2.332-7.1,5.989-7.1.371,0,.742.053,1.06.053a15.038,15.038,0,0,0,1.643.318,20.44,20.44,0,0,1,5.565,2.7c3.127,2.014,6.943,5.459,12.773,5.459C-4.956,8.427-1.4,3.922-1.4-4.187H-6.122c0,5.194-1.643,7.632-6.254,7.632-3.127,0-4.4-1.166-8.162-3.5,10.123-2.279,16.854-10.759,16.854-22,0-13.3-9.328-22.684-22.472-22.684s-22.472,9.381-22.472,22.684c0,8.268,3.657,15,9.593,18.921-2.6,1.908-4.24,5.247-4.24,10.123Zm-4.505-29.044c0-10.335,7.049-17.543,16.96-17.543S-9.2-32.383-9.2-22.048c0,10.229-7,17.437-16.96,17.437C-36.067-4.611-43.116-11.819-43.116-22.048ZM3.9-12.932C3.9-4.77,6.227.477,14.336.477S24.618-4.77,24.618-12.932V-44.52H19.689v28.673c0,6.042.159,11.236-5.353,11.236-5.565,0-5.512-5.353-5.512-11.236V-44.52H3.9ZM32.038,0h5.035V-44.52H32.038ZM44.493,0h5.035V-14.2c2.862.053,6.731,3.286,9.646,8.109C60.924-3.127,65.323,0,69.033,0V-4.876c-5.671-1.113-5.883-7.367-13.144-11.236,5.3-.9,10.123-5.83,10.123-12.985,0-9.8-7.473-15.423-14.946-15.423H44.493Zm5.035-39.962h1.219A9.614,9.614,0,0,1,60.5-29.892c0,7.95-4.664,10.388-10.123,10.388h-.848Zm0,25.758Zm28.09-4.028V0h5.035V-18.232L92.882-44.52h-5.3L79.95-25.546,72.371-44.52h-5.3Z" transform="translate(89.914 44.732)" fill="#c7bb5d"/>
</svg>
