<svg xmlns="http://www.w3.org/2000/svg" width="221.858" height="45.262" viewBox="0 0 221.858 45.262">
  <path id="パス_88529" data-name="パス 88529" d="M-109.419,0h5.035V-14.84h1.113c8.851,0,15.37-5.936,15.37-14.416A15.056,15.056,0,0,0-102.794-44.52h-6.625Zm5.035-39.962h1.484c5.194,0,9.487,4.558,9.487,10.812,0,6.572-4.717,9.805-10.07,9.805h-.9ZM-83.767,0h5.035V-14.2c2.862.053,6.731,3.286,9.646,8.109C-67.337-3.127-62.937,0-59.228,0V-4.876c-5.671-1.113-5.883-7.367-13.144-11.236,5.3-.9,10.123-5.83,10.123-12.985,0-9.8-7.473-15.423-14.946-15.423h-6.572Zm5.035-39.962h1.219a9.614,9.614,0,0,1,9.752,10.07c0,7.95-4.664,10.388-10.123,10.388h-.848Zm0,25.758ZM-58.7-22.048C-58.7-8.8-49.37.53-36.226.53S-13.754-8.8-13.754-22.048c0-13.3-9.328-22.684-22.472-22.684S-58.7-35.351-58.7-22.048Zm5.512,0c0-10.441,7.049-17.755,16.96-17.755s16.96,7.314,16.96,17.755c0,10.335-7.049,17.649-16.96,17.649S-53.186-11.713-53.186-22.048ZM-8.878,0h5.035V-14.84H-2.73c8.851,0,15.37-5.936,15.37-14.416A15.056,15.056,0,0,0-2.253-44.52H-8.878Zm5.035-39.962h1.484c5.194,0,9.487,4.558,9.487,10.812,0,6.572-4.717,9.805-10.07,9.805h-.9ZM16.774,0H31.826V-4.929H21.809v-9.7h9.858v-4.611H21.809V-39.591H31.826V-44.52H16.774ZM39.246,0h5.035V-14.2c2.862.053,6.731,3.286,9.646,8.109C55.676-3.127,60.076,0,63.785,0V-4.876C58.114-5.989,57.9-12.243,50.641-16.112c5.3-.9,10.123-5.83,10.123-12.985,0-9.8-7.473-15.423-14.946-15.423H39.246Zm5.035-39.962H45.5a9.614,9.614,0,0,1,9.752,10.07c0,7.95-4.664,10.388-10.123,10.388h-.848Zm0,25.758ZM62.407-40.068H71.1V0h5.035V-40.068H84.88V-44.52H62.407ZM97.175-18.232V0h5.035V-18.232L112.439-44.52h-5.3L99.507-25.546,91.928-44.52h-5.3Z" transform="translate(109.419 44.732)" fill="#c7bb5d"/>
</svg>
