<?xml version="1.0" encoding="UTF-8"?><svg id="_レイヤー_1" xmlns="http://www.w3.org/2000/svg" viewBox="0 0 220 45.53"><defs><style>.cls-1{fill:#c7bb5d;}</style></defs><path class="cls-1" d="M18.07,6.85l1.32-4.16C17.6,1.16,14.39.21,10.91.21,5.95.21,1.84,4.58,1.84,10.01s4.06,8.43,6.43,10.96c5.37,5.69,8.59,8.27,8.59,12.96,0,4.11-2.42,6.38-6.38,6.38-3.48,0-6.96-1.74-9.06-3.27l-1.42,4.85c3,1.95,6.96,3.11,10.59,3.11,6.96,0,11.22-4.16,11.22-11.01,0-7.54-5.16-11.07-10.01-16.39-2.06-2.27-5.11-4.37-5.11-7.96,0-2.95,2-5.22,4.9-5.22,1.95,0,4.74.9,6.48,2.42Z"/><polygon class="cls-1" points="24.34 5.16 32.99 5.16 32.99 45 37.99 45 37.99 5.16 46.69 5.16 46.69 .74 24.34 .74 24.34 5.16"/><path class="cls-1" d="M82.05,32.67l5.53-17.6,5.43,17.6h-10.96ZM56.33,5.27h2.79c4.53,0,8.11,2.95,8.11,9.12s-3.06,11.22-8.48,11.22h-2.42V5.27ZM51.32,45h5.01v-13.28c6.06,4.85,11.49,5.59,19.08,5.69l-2.42,7.59h5.22l2.42-7.75h13.81v-.05l2.42,7.8h5.27L87.89,0h-.53l-10.49,32.72c-5.59-.05-11.22-.53-16.34-3.9,6.8,0,12.17-8.27,12.17-13.86,0-9.01-5.85-14.23-13.28-14.23h-8.11v44.26Z"/><polygon class="cls-1" points="104.18 5.16 112.82 5.16 112.82 45 117.83 45 117.83 5.16 126.52 5.16 126.52 .74 104.18 .74 104.18 5.16"/><polygon class="cls-1" points="130.21 45 145.17 45 145.17 40.1 135.21 40.1 135.21 30.46 145.02 30.46 145.02 25.87 135.21 25.87 135.21 5.64 145.17 5.64 145.17 .74 130.21 .74 130.21 45"/><path class="cls-1" d="M149.39,23.03c0,13.23,9.27,22.5,22.13,22.5,5.74,0,11.07-1.84,14.86-5.16v4.64h5.06v-20.76h-15.86v5.06h10.8v2.42c0,4.53-7.17,8.91-14.75,8.91-9.75,0-16.76-7.27-16.76-17.6s7.01-17.6,17.55-17.6c5.8,0,9.96,2.16,12.75,5.85l4.48-2.53c-3.79-4.48-8.17-8.22-17.02-8.22-13.96,0-23.24,9.33-23.24,22.5Z"/><polygon class="cls-1" points="204.82 26.87 204.82 45 209.83 45 209.83 26.87 220 .74 214.73 .74 207.14 19.6 199.61 .74 194.34 .74 204.82 26.87"/></svg>