<?xml version="1.0" encoding="UTF-8"?><svg id="_レイヤー_1" xmlns="http://www.w3.org/2000/svg" viewBox="0 0 202 45.69"><defs><style>.cls-1{fill:#c7bb5d;}</style></defs><polygon class="cls-1" points="0 45.22 5.03 45.22 5.03 17.21 14.88 17.21 14.88 12.44 5.03 12.44 5.03 5.14 15.04 5.14 15.04 .74 0 .74 0 45.22"/><polygon class="cls-1" points="20.07 45.22 35.11 45.22 35.11 40.29 25.1 40.29 25.1 30.6 34.95 30.6 34.95 26 25.1 26 25.1 5.67 35.11 5.67 35.11 .74 20.07 .74 20.07 45.22"/><path class="cls-1" d="M48.18,37.43h21.66l3.28,7.78h5.29L59.36,0h-.53l-19.22,45.22h5.24l3.34-7.78ZM67.72,32.46h-17.42l8.74-20.49,8.68,20.49Z"/><polygon class="cls-1" points="75.29 5.19 83.98 5.19 83.98 45.22 89.01 45.22 89.01 5.19 97.74 5.19 97.74 .74 75.29 .74 75.29 5.19"/><path class="cls-1" d="M102.4,32.3c0,8.15,2.33,13.4,10.43,13.4s10.27-5.24,10.27-13.4V.74h-4.92v28.65c0,6.04.16,11.22-5.35,11.22s-5.51-5.35-5.51-11.22V.74h-4.92v31.56Z"/><path class="cls-1" d="M135.55,31.03c.26,0,.53,0,0,0ZM135.55,5.29h1.22c4.55,0,9.74,3.23,9.74,10.06,0,7.94-4.66,10.38-10.11,10.38h-.85V5.29ZM130.52,45.22h5.03v-14.19c2.86.05,6.72,3.28,9.64,8.1,1.75,2.96,6.14,6.09,9.85,6.09v-4.87c-5.67-1.11-5.88-7.36-13.13-11.23,5.29-.9,10.11-5.82,10.11-12.97,0-9.8-7.47-15.41-14.93-15.41h-6.57v44.48Z"/><polygon class="cls-1" points="159.69 45.22 174.73 45.22 174.73 40.29 164.72 40.29 164.72 30.6 174.57 30.6 174.57 26 164.72 26 164.72 5.67 174.73 5.67 174.73 .74 159.69 .74 159.69 45.22"/><path class="cls-1" d="M198.24,6.88l1.32-4.18c-1.8-1.54-5.03-2.49-8.52-2.49-4.98,0-9.11,4.39-9.11,9.85s4.08,8.47,6.46,11.01c5.4,5.72,8.63,8.31,8.63,13.03,0,4.13-2.44,6.41-6.41,6.41-3.49,0-6.99-1.75-9.11-3.28l-1.43,4.87c3.02,1.96,6.99,3.12,10.64,3.12,6.99,0,11.28-4.18,11.28-11.07,0-7.57-5.19-11.12-10.06-16.47-2.07-2.28-5.14-4.4-5.14-8,0-2.96,2.01-5.24,4.92-5.24,1.96,0,4.77.9,6.51,2.44Z"/></svg>