<?xml version="1.0" encoding="UTF-8"?><svg id="_レイヤー_1" xmlns="http://www.w3.org/2000/svg" viewBox="0 0 100.13 102.209"><defs><style>.cls-1{fill:#af8c70;}.cls-1,.cls-2{stroke-width:0px;}.cls-2{fill:#f5695a;}</style></defs><rect class="cls-1" x="13.917" y="11.242" width="12.787" height="40.622" transform="translate(51.863 11.242) rotate(90)"/><path class="cls-2" d="M72.989,102.209c-14.437,0-27.141-9.384-27.141-30.605V30.605C45.849,9.384,58.553,0,72.989,0s27.141,9.384,27.141,30.605v40.999c0,21.221-12.705,30.605-27.141,30.605ZM62.451,70.738c0,11.26,3.176,17.035,10.539,17.035s10.539-5.775,10.539-17.035V31.471c0-11.26-3.176-17.035-10.539-17.035s-10.539,5.774-10.539,17.035v39.267Z"/><path class="cls-2" d="M4.893,89.827v-4.613h11.827v-3.092l-.196-.294H4.893v-4.613h8.833L3.225,60.285h7.655l9.226,15.605,9.226-15.605h7.655l-10.453,16.93h8.784v4.613h-11.63l-.196.294v3.092h11.826v4.613h-11.826v9.618h-6.772v-9.618H4.893Z"/><rect class="cls-1" x="14.403" y="8.015" width="11.817" height="47.075"/></svg>