<?xml version="1.0" encoding="UTF-8"?><svg id="_文字" xmlns="http://www.w3.org/2000/svg" viewBox="0 0 328.04 139.55"><defs><style>.cls-1{fill:none;stroke:#1e1e1e;stroke-miterlimit:10;stroke-width:2.6px;}.cls-2{fill:#fff;}.cls-3{fill:#646464;}.cls-4{fill:#af8c70;}</style></defs><circle class="cls-4" cx="258.27" cy="69.77" r="69.77"/><path class="cls-2" d="M225.47,33.15c-.09.12-.23.19-.44.19-.07,0-.14,0-.23-.02-1.79,1.81-4.37,3.93-6.63,5.56.19.07.46.21.56.26-.05.14-.26.28-.51.3v12.49h-1.7v-11.95c-2.47,1.74-5.67,3.63-8.86,5.19-.23-.37-.65-.95-.98-1.28,6.35-2.93,13.3-7.91,17.05-12.02l1.74,1.3Z"/><path class="cls-2" d="M229.43,33.55c2.42.77,5.21,1.98,6.93,3.16l-.88,1.46c-1.67-1.19-4.42-2.42-6.79-3.23l.74-1.4ZM229.34,49.66c8.26-2.56,13.74-7.19,16.53-13.63.49.4,1.02.7,1.51.95-2.91,6.37-8.58,11.32-16.46,13.95-.02.21-.16.44-.33.54l-1.26-1.81Z"/><path class="cls-2" d="M268.92,40.8h-7.86l.4.12c-.05.14-.21.26-.47.28-.63,4.33-2.21,8.19-7.19,10.63-.28-.3-.86-.86-1.26-1.16,4.84-2.33,6.19-5.58,6.72-9.86h-9.05v-1.56h18.7v1.56ZM266.62,34.24h-14.28v-1.56h14.28v1.56Z"/><path class="cls-2" d="M273.97,44.52v-11.3l2.21.14c-.02.21-.19.37-.56.42v10.74h-1.65ZM286.92,32.31c-.02.23-.19.35-.56.4v7.4c0,4.88-1.67,9.35-8.35,11.93-.23-.35-.81-.95-1.21-1.26,6.44-2.4,7.88-6.37,7.88-10.67v-7.93l2.23.14Z"/><path class="cls-2" d="M310.29,33.78c-.05.09-.19.16-.3.21-1.26,2.98-3.26,5.56-5.51,7.44-.35-.3-1-.72-1.42-.95,2.14-1.56,3.86-3.81,4.63-5.77h-16.65v-1.58h17.53l.26-.12,1.46.77ZM301.23,38.01c-.02.19-.23.35-.53.4-.67,5.49-2.56,10.72-7.35,13.49-.33-.28-.93-.81-1.37-1.07,4.74-2.6,6.44-7.46,7-13.07l2.26.26Z"/><path class="cls-2" d="M252.41,72.26c-.04.31-.16,1.18-.2,1.61,1.88-1.41,3.92-2.08,6.59-2.08,3.18,0,6,1.06,7.97,3.06,1.92,1.92,2.86,4.4,2.86,7.61,0,7.18-4.71,11.58-12.36,11.58-4.2,0-7.42-1.18-9.62-3.49-1.26-1.33-1.88-2.47-2.75-4.91l6.59-1.18c.35,1.1.59,1.61,1.1,2.2.98,1.22,2.51,1.84,4.47,1.84,3.61,0,6-2.32,6-5.89s-2.28-5.77-5.77-5.77c-1.77,0-3.34.55-4.43,1.53-.51.51-.75.86-1.1,1.73l-6.12-.59c.31-1.81.39-2.43.55-4.04l.9-10.13c.12-1.49.12-1.77.16-4.16,1.41.12,2.28.16,4.44.16h10.28c3.1,0,4.12-.04,5.97-.27v5.89c-1.84-.24-3.57-.31-5.89-.31h-9.14l-.51,5.61Z"/><path class="cls-2" d="M242.63,106.48c-.5-.95-1.09-1.49-2.2-1.49s-1.65.65-1.65,1.81c0,1.33.73,1.85,2.24,2.28,2.38.67,3.47,1.75,3.47,4.15,0,2.08-1.25,3.99-3.95,3.99-1.98,0-3.39-.73-4.37-2.28l1.79-1.25c.67.99,1.25,1.49,2.44,1.49,1.35,0,1.75-.85,1.75-1.85,0-1.11-.44-1.79-2.3-2.32-2.2-.62-3.41-1.85-3.41-4.21,0-2.1,1.21-3.85,3.93-3.85,1.81,0,3.14.73,3.99,2.28l-1.73,1.25Z"/><path class="cls-2" d="M253.88,103.14v2.04h-3.12v11.87h-2.34v-11.87h-3.12v-2.04h8.59Z"/><path class="cls-2" d="M254.18,103.14h2.58l2.1,5.48,2.1-5.48h2.58l-3.51,8.1v5.81h-2.34v-5.81l-3.51-8.1Z"/><path class="cls-2" d="M267.4,115.03h4.74v2.02h-7.08v-13.91h2.34v11.89Z"/><path class="cls-2" d="M280.6,103.14v2.04h-4.74v3.67h4.23v2.02h-4.23v4.17h4.74v2.02h-7.08v-13.91h7.08Z"/><circle class="cls-3" cx="69.77" cy="69.77" r="69.77"/><path class="cls-2" d="M60.42,31.2c-.02.16-.16.28-.47.33v10.32c1.7,1.56,3.6,2.88,5.46,3.72-.37.3-.86.91-1.12,1.33-1.46-.74-2.95-1.79-4.35-3.02v8.72h-1.6v-10.25c-1.44-1.49-2.74-3.14-3.74-4.86-1.44,7.46-4.65,12.42-8.81,15.07-.26-.35-.86-.91-1.26-1.14,2.46-1.49,4.58-3.74,6.14-6.81-.98-.95-2.58-2.14-3.95-2.93l.86-1.09c1.28.7,2.77,1.7,3.79,2.58.84-2.02,1.49-4.35,1.91-6.98h-4.86c-.93,2.58-2.14,4.88-3.58,6.51-.23-.3-.77-.79-1.09-1.05,2.09-2.33,3.65-6.39,4.53-10.65l1.93.47c-.05.16-.21.26-.49.26-.23,1-.49,2-.79,2.98h4.95l.3-.07,1,.42c-.05.09-.14.21-.23.28l-.21,1.33.77-.3c.74,1.33,1.72,2.65,2.84,3.88v-9.16l2.07.14Z"/><path class="cls-2" d="M83.03,49.73v.7c1.49-1.21,2.12-2.88,2.42-4.7l1.72.19c-.05.16-.19.26-.44.28-.49,2.51-1.49,5-4.7,6.4-.16-.33-.58-.84-.88-1.07.42-.16.79-.35,1.14-.56h-6.56v1.35h-1.42v-8.79c-.35.49-.72.93-1.12,1.33-.19-.3-.63-.86-.88-1.12,1.28-1.3,2.44-3.19,3.37-5.35h-3.16v-1.3h3.7c.3-.84.58-1.7.84-2.56h-1.84c-.42.84-.88,1.6-1.35,2.21-.26-.23-.79-.6-1.12-.79.93-1.16,1.81-3.12,2.33-4.95l1.77.51c-.05.14-.21.23-.46.23-.16.49-.35.98-.54,1.47h6.93v1.33h-3.93c-.09.07-.21.09-.37.07-.23.84-.51,1.67-.79,2.49h5.53v1.3h-6.05c-.37.88-.77,1.72-1.19,2.51h2.16c.3-.7.65-1.6.84-2.23l1.67.49c-.05.14-.21.21-.47.21-.16.42-.44,1-.7,1.53h3.37v1.19h-3.28v1.77h2.86v1.12h-2.86v1.79h2.86v1.14h-2.86v1.84h3.44ZM78.19,43.85v-1.77h-2.46v1.77h2.46ZM78.19,46.75v-1.79h-2.46v1.79h2.46ZM75.73,47.89v1.84h2.46v-1.84h-2.46ZM90.38,50.29c0,.51.05.6.49.6h1.37c.46,0,.56-.37.6-3.19.33.28.88.49,1.3.6-.14,3.16-.49,3.91-1.74,3.91h-1.72c-1.4,0-1.72-.42-1.72-1.93v-5.3h-5.05v-13.05h8.98v13.05h-2.51v5.3ZM85.33,33.36v2.51h6.09v-2.51h-6.09ZM85.33,37.17v2.54h6.09v-2.54h-6.09ZM85.33,41.01v2.58h6.09v-2.58h-6.09Z"/><path class="cls-2" d="M64.35,72.26c-.04.31-.16,1.18-.2,1.61,1.88-1.41,3.92-2.08,6.59-2.08,3.18,0,6,1.06,7.97,3.06,1.92,1.92,2.86,4.4,2.86,7.61,0,7.18-4.71,11.58-12.36,11.58-4.2,0-7.42-1.18-9.62-3.49-1.26-1.33-1.88-2.47-2.75-4.91l6.59-1.18c.35,1.1.59,1.61,1.1,2.2.98,1.22,2.51,1.84,4.47,1.84,3.61,0,6-2.32,6-5.89s-2.28-5.77-5.77-5.77c-1.77,0-3.34.55-4.43,1.53-.51.51-.75.86-1.1,1.73l-6.12-.59c.31-1.81.39-2.43.55-4.04l.9-10.13c.12-1.49.12-1.77.16-4.16,1.41.12,2.28.16,4.44.16h10.28c3.1,0,4.12-.04,5.97-.27v5.89c-1.84-.24-3.57-.31-5.89-.31h-9.14l-.51,5.61Z"/><path class="cls-2" d="M56.74,105.78c-.5-.95-1.09-1.49-2.2-1.49s-1.65.65-1.65,1.81c0,1.33.73,1.85,2.24,2.28,2.38.67,3.47,1.75,3.47,4.15,0,2.08-1.25,3.99-3.95,3.99-1.98,0-3.39-.73-4.37-2.28l1.79-1.25c.67.99,1.25,1.49,2.44,1.49,1.35,0,1.75-.85,1.75-1.85,0-1.11-.44-1.79-2.3-2.32-2.2-.62-3.41-1.85-3.41-4.21,0-2.1,1.21-3.85,3.93-3.85,1.81,0,3.14.73,3.99,2.28l-1.73,1.25Z"/><path class="cls-2" d="M67.99,102.44v2.04h-3.12v11.87h-2.34v-11.87h-3.12v-2.04h8.59Z"/><path class="cls-2" d="M68.29,102.44h2.58l2.1,5.48,2.1-5.48h2.58l-3.51,8.1v5.81h-2.34v-5.81l-3.51-8.1Z"/><path class="cls-2" d="M81.52,114.33h4.74v2.02h-7.08v-13.91h2.34v11.89Z"/><path class="cls-2" d="M94.72,102.44v2.04h-4.74v3.67h4.23v2.02h-4.23v4.17h4.74v2.02h-7.08v-13.91h7.08Z"/><line class="cls-1" x1="150.24" y1="52.8" x2="177.81" y2="92.17"/><line class="cls-1" x1="177.81" y1="52.8" x2="150.24" y2="92.17"/></svg>