<?xml version="1.0" encoding="UTF-8"?><svg id="_レイヤー_1" xmlns="http://www.w3.org/2000/svg" viewBox="0 0 402 171.007"><defs><style>.cls-1{fill:none;stroke:#1e1e1e;stroke-miterlimit:10;stroke-width:2.602px;}.cls-2{fill:#af8c70;}.cls-2,.cls-3,.cls-4{stroke-width:0px;}.cls-3{fill:#646464;}.cls-4{fill:#fff;}</style></defs><circle class="cls-2" cx="316.496" cy="85.503" r="85.503"/><path class="cls-4" d="M270.025,56.726c0,1.967.029,3.648.085,5.929.029.371-.114.484-.427.484-.912.057-1.938.057-2.851,0-.313,0-.427-.114-.399-.456.028-2.052.114-3.905.114-5.843v-6.641c-2.509,2.109-5.559,4.275-7.839,5.473-.143.085-.285.114-.427.114-.228,0-.399-.085-.599-.285-.656-.656-1.596-1.226-2.451-1.682,3.933-2.024,6.356-3.677,8.979-5.843,2.251-1.853,4.304-3.848,6.071-5.957.969-1.14,1.339-1.71,1.795-2.936,1.283.712,2.537,1.482,3.164,1.995.171.114.228.285.228.427,0,.228-.171.485-.399.627-.485.313-.941.741-1.71,1.568-1.112,1.34-2.166,2.451-3.335,3.592v9.435Z"/><path class="cls-4" d="M282.109,42.075c.114-.143.257-.228.399-.228.114,0,.228.057.371.143,1.454.77,3.819,2.508,5.444,4.047.171.171.257.285.257.399s-.057.228-.171.371c-.427.57-1.368,1.71-1.767,2.138-.143.143-.228.228-.342.228s-.228-.085-.371-.228c-1.71-1.767-3.763-3.392-5.815-4.646.627-.77,1.454-1.653,1.995-2.223ZM284.589,57.097c3.478-1.796,5.33-2.993,8.209-5.302,3.478-2.822,5.387-4.646,7.81-7.753.171,1.425.428,2.394.798,3.335.086.199.143.371.143.542,0,.257-.143.485-.456.855-1.511,1.767-3.962,4.048-6.556,6.043-2.366,1.853-4.76,3.449-8.608,5.586-1.283.77-1.653,1.055-1.91,1.311-.171.171-.342.285-.513.285-.143,0-.313-.114-.485-.313-.712-.798-1.596-1.967-2.28-3.164,1.454-.399,2.337-.656,3.848-1.425Z"/><path class="cls-4" d="M318.792,50.398c-.171,3.192-.57,5.102-1.682,7.268-1.14,2.223-3.192,4.304-5.017,5.387-.313.2-.599.342-.855.342-.199,0-.399-.085-.598-.285-.57-.57-1.54-1.14-2.537-1.511,2.793-1.511,4.475-2.907,5.672-5.074,1.055-1.881,1.34-3.42,1.454-6.128h-5.416c-1.425,0-2.822.086-4.275.171-.257.028-.342-.171-.371-.542-.143-.798-.228-1.881-.228-2.736,1.596.142,3.192.142,4.845.142h12.798c2.223,0,3.876-.057,5.558-.171.285,0,.313.171.313.57.028.371.028,1.824,0,2.195,0,.37-.171.484-.428.484-1.482-.057-3.449-.114-5.416-.114h-3.819ZM313.148,43.786c-1.312,0-2.452.057-4.048.114-.37,0-.456-.143-.484-.484-.085-.684-.114-1.71-.2-2.736,1.996.114,3.449.142,4.732.142h6.385c1.596,0,3.392-.029,4.817-.114.285,0,.342.171.342.542.057.684.057,1.397,0,2.081,0,.399-.057.542-.371.542-1.54-.057-3.221-.086-4.789-.086h-6.385Z"/><path class="cls-4" d="M334.381,44.213c0-1.967-.085-3.05-.313-4.161,1.197.143,2.708.313,3.534.599.342.085.485.257.485.456,0,.142-.057.285-.114.427-.256.542-.313,1.254-.313,2.708v5.758c0,1.482.057,2.594.085,3.591,0,.427-.171.57-.627.57h-2.28c-.399,0-.57-.143-.542-.484,0-.998.085-2.651.085-3.876v-5.587ZM347.806,49.543c0,4.219-.627,7.04-2.309,9.292-1.396,1.853-3.876,3.592-6.271,4.475-.228.085-.428.143-.599.143-.228,0-.428-.086-.684-.342-.684-.684-1.425-1.226-2.423-1.739,3.05-.941,5.444-2.28,6.955-4.162,1.311-1.625,1.91-3.99,1.91-7.61v-5.387c0-2.451-.057-3.363-.314-4.646,1.368.114,2.736.313,3.706.627.285.085.399.257.399.485,0,.142-.028.313-.114.456-.256.598-.256,1.34-.256,3.107v5.302Z"/><path class="cls-4" d="M359.918,44.584c-1.625,0-3.363.114-5.045.228-.342.029-.456-.171-.513-.427-.228-.798-.399-2.223-.513-3.078,1.938.143,3.506.199,5.786.199h12.228c1.197,0,1.682-.057,1.967-.171.143-.057.399-.199.542-.199.228,0,.456.171.655.399.627.542,1.169,1.14,1.71,1.796.143.171.228.342.228.513,0,.228-.143.427-.399.598-.313.228-.542.513-.77.827-1.34,2.024-3.107,3.99-5.017,5.501-.171.171-.371.257-.599.257s-.485-.114-.684-.285c-.713-.57-1.425-.884-2.366-1.168,2.28-1.71,3.677-2.936,5.102-4.988h-12.313ZM361.515,55.7c1.083-2.024,1.396-3.962,1.396-6.727,0-1.055-.057-1.71-.285-2.679,1.397.143,2.879.342,3.677.542.371.085.484.285.484.542,0,.171-.057.342-.143.513-.199.399-.228.684-.256,1.169-.085,2.765-.371,5.302-1.682,7.838-1.112,2.138-2.822,4.162-5.188,5.672-.256.171-.513.285-.798.285-.2,0-.399-.085-.57-.257-.684-.599-1.51-1.055-2.594-1.454,3.107-1.625,4.732-3.164,5.958-5.444Z"/><path class="cls-4" d="M322.206,85.239c-1.01-3.126-2.79-4.425-6.061-4.425-3.174,0-5.531,1.635-7.021,4.761-.962,1.972-1.443,3.992-1.636,6.926,1.203-1.347,1.876-1.924,3.223-2.597,1.876-.962,3.944-1.395,6.541-1.395,8.465,0,13.659,5.002,13.659,13.178,0,3.463-1.443,7.022-3.751,9.379-2.645,2.645-6.685,4.136-11.254,4.136-4.954,0-8.946-1.683-11.591-4.858-2.886-3.463-4.425-8.657-4.425-14.958,0-5.242,1.25-10.581,3.222-13.803,2.837-4.665,7.407-7.166,13.034-7.166,3.8,0,7.022.914,9.331,2.645,2.116,1.587,3.415,3.319,4.569,6.397l-7.839,1.78ZM315.857,94.858c-4.425,0-7.503,2.838-7.503,6.83,0,4.04,3.174,6.974,7.455,6.974,2.693,0,5.05-1.202,6.3-3.174.625-.962.962-2.309.962-3.848,0-4.329-2.597-6.781-7.214-6.781Z"/><path class="cls-4" d="M297.33,130.491c-.618-1.161-1.334-1.828-2.693-1.828-1.383,0-2.025.791-2.025,2.223,0,1.63.889,2.273,2.742,2.792,2.915.815,4.249,2.149,4.249,5.089,0,2.544-1.532,4.891-4.842,4.891-2.421,0-4.15-.889-5.36-2.792l2.198-1.532c.815,1.21,1.532,1.828,2.989,1.828,1.655,0,2.149-1.038,2.149-2.273,0-1.359-.543-2.198-2.816-2.841-2.692-.766-4.175-2.273-4.175-5.163,0-2.569,1.482-4.719,4.817-4.719,2.223,0,3.854.889,4.891,2.792l-2.125,1.532Z"/><path class="cls-4" d="M311.113,126.39v2.495h-3.829v14.551h-2.866v-14.551h-3.829v-2.495h10.524Z"/><path class="cls-4" d="M311.482,126.39h3.162l2.569,6.719,2.569-6.719h3.162l-4.298,9.931v7.115h-2.866v-7.115l-4.298-9.931Z"/><path class="cls-4" d="M327.686,140.966h5.806v2.47h-8.671v-17.046h2.865v14.575Z"/><path class="cls-4" d="M343.866,126.39v2.495h-5.806v4.496h5.188v2.47h-5.188v5.114h5.806v2.47h-8.671v-17.046h8.671Z"/><circle class="cls-3" cx="85.503" cy="85.503" r="85.503"/><path class="cls-4" d="M59.312,49.173c.114-.143.171-.199.257-.199.085,0,.171.057.285.171.884.77,1.682,1.511,2.508,2.451.855-1.853,1.511-3.905,1.967-6.185h-4.047c-1.226,2.622-2.822,4.959-4.846,7.154-.256.285-.427.428-.57.428s-.285-.171-.485-.57c-.371-.684-.855-1.254-1.425-1.739,2.993-2.993,4.789-6.071,5.985-10.09.257-.884.342-1.51.371-2.252,1.169.199,1.967.342,2.907.627.285.086.428.228.428.399,0,.228-.085.371-.199.485-.229.228-.342.684-.57,1.454-.171.513-.313.998-.484,1.454h2.936c.456,0,.656-.057.855-.171.171-.085.228-.114.399-.114.199,0,.513.085,1.254.77.684.599.827.827.827.998s-.114.285-.285.485l-.171.285c.855,1.396,1.824,2.594,2.851,3.648v-6.043c0-2.024-.029-3.021-.228-4.333,1.054.029,2.166.086,3.135.228.256.029.428.114.428.285,0,.199-.086.399-.143.57-.143.371-.2,1.083-.2,3.164v8.637c1.967,1.368,4.19,2.423,6.698,3.42-.427.542-.94,1.396-1.254,2.252-.2.513-.285.713-.513.713-.143,0-.342-.086-.656-.228-1.567-.741-2.964-1.511-4.275-2.395v4.104c0,3.192.057,4.817.057,4.96,0,.285-.029.313-.313.313h-2.48c-.285,0-.313-.029-.313-.313,0-.171.057-1.767.057-4.96v-6.47c-1.312-1.226-2.48-2.594-3.563-4.219-1.71,6.613-5.159,11.259-10.347,14.993-.342.256-.542.399-.684.399-.171,0-.313-.199-.627-.57-.456-.598-1.026-1.083-1.653-1.51,3.249-1.938,5.872-4.39,7.781-7.468-1.026-1.197-1.853-2.024-2.822-2.907-.114-.114-.171-.171-.171-.256s.057-.2.171-.342l1.168-1.511Z"/><path class="cls-4" d="M93.456,47.007c-2.48,0-3.307.057-3.478.057-.256,0-.285-.029-.285-.314v-1.767c0-.285.029-.314.285-.314.171,0,.998.057,3.478.057h1.454c.228-.656.456-1.368.627-2.109h-1.881c-.285.456-.655.969-1.083,1.511-.256.313-.399.456-.57.456-.143,0-.314-.114-.627-.342-.513-.342-1.083-.627-1.511-.826,1.226-1.254,1.938-2.337,2.651-3.648.228-.485.485-1.112.627-1.767.855.171,1.568.313,2.252.485.257.057.428.171.428.399,0,.171-.114.285-.313.485-.171.171-.285.399-.599,1.055h3.335c2.479,0,3.278-.057,3.449-.057.285,0,.313.029.313.314v1.653c0,.313-.028.342-.313.342-.171,0-.969-.057-3.449-.057h-.057c-.171.741-.371,1.454-.599,2.109h1.311c2.451,0,3.278-.057,3.449-.057.285,0,.313.029.313.314v1.767c0,.285-.029.314-.313.314-.171,0-.998-.057-3.449-.057h-2.223c-.428.855-.884,1.653-1.454,2.423h1.938c.143-.257.228-.485.314-.684.171-.399.285-.798.37-1.368.713.114,1.796.256,2.28.399.285.085.399.171.399.285,0,.143-.086.256-.2.342-.2.171-.285.285-.371.485l-.256.542c1.653,0,2.166-.057,2.337-.057.285,0,.313.029.313.313v1.482c0,.313-.029.342-.313.342-.171,0-.685-.057-2.452-.057h-.371v1.653c1.596,0,2.224-.057,2.366-.057.285,0,.313.029.313.313v1.425c0,.285-.029.313-.313.313-.143,0-.77-.029-2.366-.057v1.653c1.596,0,2.224-.057,2.366-.057.285,0,.313.028.313.313v1.396c0,.285-.029.314-.313.314-.143,0-.77-.029-2.366-.057v1.71c1.653,0,2.252-.057,2.423-.057.285,0,.313.029.313.342v.912c2.366-1.283,3.25-3.192,3.478-6.128-1.055.029-1.511.029-1.653.029-.285,0-.313,0-.313-.313,0-.171.057-1.226.057-3.534v-8.466c0-2.28-.057-3.363-.057-3.534,0-.285.029-.313.313-.313.2,0,.912.057,3.164.057h4.104c2.223,0,2.993-.057,3.164-.057.313,0,.342.029.342.313,0,.171-.057,1.254-.057,3.534v8.466c0,2.309.057,3.363.057,3.534,0,.313-.028.313-.342.313-.143,0-.798-.029-2.252-.029v5.102c0,.513-.028.627.085.741.143.143.313.143.684.143.484,0,.77-.057.912-.257.257-.285.285-1.112.342-3.021.598.456,1.311.77,1.824.94.542.171.542.228.513.855-.142,2.109-.484,2.993-1.026,3.477-.599.513-1.625.57-2.851.57-1.026,0-1.795-.029-2.394-.342-.485-.285-.741-.94-.741-1.881v-6.328h-1.168c-.342,4.076-1.511,6.499-4.675,8.523-.371.228-.57.342-.77.342s-.342-.171-.599-.57c-.427-.627-.77-1.026-1.14-1.311-.484,0-1.283-.028-2.537-.028h-4.019v1.368c0,.256-.028.285-.313.285h-1.967c-.285,0-.313-.029-.313-.285,0-.171.057-.713.057-2.565v-7.981l-1.055.912c-.285.228-.456.371-.599.371s-.228-.2-.342-.627c-.228-.741-.542-1.34-.827-1.739,2.167-1.425,3.763-3.05,4.875-5.074h-.456ZM96.819,53.106v-1.653h-2.423v1.653h2.423ZM96.819,56.698v-1.653h-2.423v1.653h2.423ZM96.819,60.318v-1.71h-2.423v1.71h2.423ZM106.226,41.762v2.138h5.529v-2.138h-5.529ZM111.755,48.375v-2.195h-5.529v2.195h5.529ZM111.755,50.655h-5.529v2.337h5.529v-2.337Z"/><path class="cls-4" d="M91.752,85.239c-1.01-3.126-2.79-4.425-6.061-4.425-3.174,0-5.531,1.635-7.021,4.761-.962,1.972-1.443,3.992-1.636,6.926,1.203-1.347,1.876-1.924,3.223-2.597,1.876-.962,3.944-1.395,6.541-1.395,8.465,0,13.659,5.002,13.659,13.178,0,3.463-1.443,7.022-3.751,9.379-2.645,2.645-6.685,4.136-11.254,4.136-4.954,0-8.946-1.683-11.591-4.858-2.886-3.463-4.425-8.657-4.425-14.958,0-5.242,1.25-10.581,3.222-13.803,2.837-4.665,7.407-7.166,13.034-7.166,3.8,0,7.022.914,9.331,2.645,2.116,1.587,3.415,3.319,4.569,6.397l-7.839,1.78ZM85.404,94.858c-4.425,0-7.503,2.838-7.503,6.83,0,4.04,3.174,6.974,7.455,6.974,2.693,0,5.05-1.202,6.3-3.174.625-.962.962-2.309.962-3.848,0-4.329-2.597-6.781-7.214-6.781Z"/><path class="cls-4" d="M69.537,129.631c-.618-1.161-1.334-1.828-2.693-1.828-1.383,0-2.025.791-2.025,2.223,0,1.63.889,2.273,2.742,2.792,2.915.815,4.249,2.149,4.249,5.089,0,2.544-1.532,4.891-4.842,4.891-2.421,0-4.15-.889-5.36-2.792l2.198-1.532c.815,1.21,1.532,1.828,2.989,1.828,1.655,0,2.149-1.038,2.149-2.273,0-1.359-.543-2.198-2.816-2.841-2.692-.766-4.175-2.273-4.175-5.163,0-2.569,1.482-4.719,4.817-4.719,2.223,0,3.854.889,4.891,2.792l-2.125,1.532Z"/><path class="cls-4" d="M83.32,125.53v2.495h-3.829v14.551h-2.866v-14.551h-3.829v-2.495h10.524Z"/><path class="cls-4" d="M83.689,125.53h3.162l2.569,6.719,2.569-6.719h3.162l-4.298,9.931v7.115h-2.866v-7.115l-4.298-9.931Z"/><path class="cls-4" d="M99.893,140.105h5.806v2.47h-8.671v-17.046h2.865v14.575Z"/><path class="cls-4" d="M116.073,125.53v2.495h-5.806v4.496h5.188v2.47h-5.188v5.114h5.806v2.47h-8.671v-17.046h8.671Z"/><line class="cls-1" x1="184.105" y1="64.705" x2="217.895" y2="112.952"/><line class="cls-1" x1="217.895" y1="64.705" x2="184.105" y2="112.952"/></svg>