<?xml version="1.0" encoding="UTF-8"?><svg id="_レイヤー_1" xmlns="http://www.w3.org/2000/svg" viewBox="0 0 257.695 109.621"><defs><style>.cls-1{fill:#af8c70;}.cls-1,.cls-2,.cls-3{stroke-width:0px;}.cls-2{fill:#646464;}.cls-4{fill:none;stroke:#1e1e1e;stroke-miterlimit:10;stroke-width:1.668px;}.cls-3{fill:#fff;}</style></defs><circle class="cls-1" cx="202.885" cy="54.811" r="54.811"/><path class="cls-3" d="M173.09,36.365c0,1.26.018,2.338.055,3.799.019.238-.073.311-.274.311-.584.036-1.242.036-1.826,0-.201,0-.274-.073-.256-.292.019-1.315.073-2.502.073-3.744v-4.256c-1.607,1.352-3.562,2.74-5.022,3.507-.092.055-.183.073-.274.073-.146,0-.256-.055-.384-.183-.42-.42-1.022-.785-1.57-1.078,2.521-1.297,4.073-2.356,5.753-3.744,1.443-1.187,2.758-2.466,3.891-3.817.621-.731.858-1.096,1.15-1.881.822.457,1.626.95,2.027,1.279.11.073.146.183.146.274,0,.146-.109.311-.256.402-.311.201-.603.475-1.096,1.005-.712.858-1.388,1.571-2.137,2.301v6.046Z"/><path class="cls-3" d="M180.838,26.977c.073-.091.165-.146.256-.146.073,0,.146.037.237.091.932.493,2.448,1.607,3.489,2.594.109.11.164.183.164.256s-.036.146-.109.237c-.274.365-.877,1.096-1.133,1.37-.091.091-.146.146-.219.146s-.146-.055-.237-.146c-1.097-1.132-2.411-2.173-3.727-2.977.402-.493.932-1.059,1.278-1.425ZM182.428,36.602c2.228-1.151,3.415-1.918,5.26-3.397,2.229-1.808,3.452-2.977,5.005-4.968.109.913.273,1.534.511,2.137.056.128.092.237.092.347,0,.164-.092.311-.292.548-.969,1.133-2.539,2.594-4.201,3.872-1.516,1.187-3.05,2.21-5.516,3.58-.822.493-1.06.676-1.224.84-.11.11-.22.183-.329.183-.092,0-.201-.073-.311-.201-.457-.511-1.022-1.26-1.461-2.027.932-.256,1.497-.42,2.466-.913Z"/><path class="cls-3" d="M204.351,32.31c-.109,2.046-.365,3.269-1.078,4.657-.73,1.425-2.045,2.758-3.214,3.452-.201.128-.384.219-.548.219-.128,0-.256-.055-.384-.183-.365-.365-.986-.73-1.626-.968,1.79-.968,2.868-1.863,3.635-3.251.676-1.205.858-2.192.932-3.927h-3.471c-.913,0-1.808.055-2.739.11-.164.018-.22-.11-.237-.347-.092-.511-.146-1.205-.146-1.753,1.023.091,2.046.091,3.105.091h8.2c1.425,0,2.484-.036,3.562-.11.183,0,.2.11.2.365.019.237.019,1.169,0,1.406,0,.238-.109.311-.273.311-.95-.037-2.21-.073-3.471-.073h-2.447ZM200.735,28.073c-.841,0-1.571.037-2.594.073-.237,0-.292-.091-.311-.31-.055-.438-.073-1.096-.128-1.753,1.278.073,2.21.091,3.032.091h4.091c1.023,0,2.174-.018,3.087-.073.183,0,.219.11.219.347.037.438.037.895,0,1.333,0,.256-.036.347-.237.347-.986-.037-2.063-.055-3.068-.055h-4.091Z"/><path class="cls-3" d="M214.347,28.347c0-1.26-.055-1.954-.201-2.667.767.091,1.735.201,2.265.384.22.055.311.164.311.292,0,.091-.036.183-.073.274-.164.347-.201.804-.201,1.735v3.689c0,.95.037,1.662.056,2.302,0,.274-.11.365-.402.365h-1.461c-.256,0-.365-.091-.347-.311,0-.639.055-1.698.055-2.484v-3.58ZM222.95,31.762c0,2.703-.402,4.511-1.479,5.954-.896,1.187-2.484,2.302-4.019,2.868-.146.055-.273.091-.384.091-.146,0-.273-.055-.438-.219-.438-.438-.914-.785-1.553-1.114,1.954-.603,3.488-1.461,4.456-2.667.841-1.041,1.224-2.557,1.224-4.877v-3.452c0-1.571-.036-2.155-.2-2.977.876.073,1.753.201,2.374.402.183.055.256.164.256.311,0,.091-.019.201-.073.292-.164.384-.164.858-.164,1.991v3.397Z"/><path class="cls-3" d="M230.716,28.584c-1.041,0-2.155.073-3.232.146-.219.018-.292-.109-.329-.274-.146-.511-.256-1.425-.328-1.973,1.241.092,2.246.128,3.707.128h7.836c.768,0,1.077-.036,1.261-.11.091-.036.255-.128.347-.128.146,0,.292.109.42.256.402.347.749.731,1.096,1.151.092.11.146.219.146.329,0,.146-.092.274-.256.384-.201.146-.347.329-.493.53-.858,1.297-1.991,2.557-3.215,3.525-.109.11-.237.165-.383.165-.146,0-.311-.073-.438-.183-.457-.365-.913-.566-1.517-.749,1.462-1.096,2.356-1.881,3.27-3.196h-7.891ZM231.74,35.707c.693-1.297.895-2.539.895-4.311,0-.676-.036-1.096-.183-1.717.896.091,1.845.219,2.356.347.237.055.311.183.311.347,0,.109-.037.219-.092.329-.128.256-.146.438-.164.749-.055,1.771-.237,3.397-1.077,5.023-.713,1.37-1.809,2.667-3.324,3.635-.165.11-.329.183-.512.183-.128,0-.256-.055-.365-.165-.438-.384-.968-.676-1.662-.931,1.99-1.041,3.032-2.027,3.817-3.489Z"/><path class="cls-3" d="M206.54,54.646c-.647-2.003-1.788-2.836-3.884-2.836-2.034,0-3.545,1.048-4.5,3.052-.617,1.264-.925,2.558-1.048,4.438.771-.863,1.202-1.233,2.064-1.665,1.202-.616,2.527-.894,4.192-.894,5.425,0,8.754,3.206,8.754,8.446,0,2.219-.925,4.5-2.404,6.01-1.695,1.695-4.285,2.651-7.213,2.651-3.175,0-5.733-1.079-7.429-3.113-1.849-2.219-2.835-5.548-2.835-9.586,0-3.36.801-6.781,2.064-8.846,1.819-2.99,4.747-4.593,8.354-4.593,2.435,0,4.5.586,5.979,1.695,1.356,1.017,2.188,2.127,2.928,4.099l-5.023,1.14ZM202.47,60.81c-2.835,0-4.808,1.819-4.808,4.377,0,2.589,2.034,4.469,4.777,4.469,1.726,0,3.236-.771,4.038-2.034.4-.617.616-1.479.616-2.466,0-2.774-1.665-4.346-4.624-4.346Z"/><path class="cls-3" d="M190.598,83.648c-.396-.745-.854-1.172-1.726-1.172-.888,0-1.299.507-1.299,1.426,0,1.045.57,1.457,1.758,1.79,1.869.523,2.725,1.378,2.725,3.263,0,1.631-.982,3.136-3.104,3.136-1.553,0-2.661-.57-3.438-1.79l1.41-.982c.522.776.981,1.172,1.916,1.172,1.062,0,1.378-.665,1.378-1.457,0-.871-.349-1.41-1.806-1.822-1.727-.491-2.677-1.457-2.677-3.31,0-1.647.95-3.025,3.089-3.025,1.426,0,2.471.57,3.136,1.79l-1.362.982Z"/><path class="cls-3" d="M199.434,81.019v1.6h-2.455v9.329h-1.837v-9.329h-2.455v-1.6h6.747Z"/><path class="cls-3" d="M199.669,81.019h2.027l1.647,4.308,1.647-4.308h2.027l-2.756,6.367v4.562h-1.838v-4.562l-2.756-6.367Z"/><path class="cls-3" d="M210.058,90.363h3.722v1.584h-5.56v-10.929h1.838v9.345Z"/><path class="cls-3" d="M220.43,81.019v1.6h-3.722v2.883h3.326v1.584h-3.326v3.279h3.722v1.584h-5.56v-10.929h5.56Z"/><circle class="cls-2" cx="54.811" cy="54.811" r="54.811"/><path class="cls-3" d="M38.019,31.525c.073-.091.109-.128.165-.128.055,0,.109.037.183.11.565.493,1.077.968,1.606,1.571.549-1.187.969-2.502,1.261-3.963h-2.594c-.785,1.68-1.808,3.178-3.104,4.584-.165.183-.274.274-.365.274-.092,0-.183-.11-.311-.365-.238-.438-.549-.803-.914-1.114,1.918-1.918,3.069-3.89,3.836-6.466.164-.566.22-.968.237-1.443.749.128,1.261.219,1.863.402.183.055.273.146.273.256,0,.146-.055.238-.127.311-.146.146-.22.438-.365.931-.11.329-.201.639-.311.932h1.881c.292,0,.42-.037.548-.11.109-.055.146-.073.256-.073.128,0,.329.055.804.493.438.384.529.53.529.639s-.073.183-.183.311l-.109.183c.548.895,1.169,1.662,1.826,2.338v-3.872c0-1.297-.018-1.936-.146-2.776.676.018,1.388.055,2.009.146.164.018.274.073.274.183,0,.128-.056.256-.092.365-.091.238-.128.694-.128,2.027v5.534c1.261.877,2.685,1.552,4.292,2.192-.273.347-.603.895-.804,1.443-.128.329-.183.457-.328.457-.092,0-.22-.055-.42-.146-1.005-.475-1.9-.968-2.74-1.534v2.63c0,2.046.037,3.087.037,3.178,0,.183-.019.201-.201.201h-1.589c-.183,0-.201-.018-.201-.201,0-.11.036-1.132.036-3.178v-4.146c-.84-.785-1.589-1.662-2.283-2.703-1.096,4.238-3.306,7.215-6.63,9.607-.219.164-.347.256-.438.256-.109,0-.2-.128-.401-.365-.292-.384-.657-.694-1.06-.968,2.082-1.242,3.763-2.813,4.986-4.785-.657-.767-1.188-1.297-1.809-1.863-.072-.073-.109-.11-.109-.164s.037-.128.109-.219l.749-.968Z"/><path class="cls-3" d="M59.907,30.137c-1.589,0-2.119.037-2.229.037-.164,0-.183-.018-.183-.201v-1.133c0-.183.019-.201.183-.201.109,0,.64.037,2.229.037h.932c.146-.42.292-.877.401-1.352h-1.205c-.183.292-.42.621-.694.968-.164.201-.256.292-.365.292-.091,0-.201-.073-.401-.219-.329-.219-.694-.402-.969-.53.786-.804,1.242-1.498,1.699-2.338.146-.311.311-.712.401-1.133.548.11,1.005.201,1.443.311.164.037.273.11.273.256,0,.11-.072.183-.2.311-.11.11-.183.256-.384.676h2.137c1.589,0,2.101-.036,2.21-.036.183,0,.201.018.201.201v1.059c0,.201-.019.219-.201.219-.109,0-.621-.037-2.21-.037h-.036c-.109.475-.237.931-.384,1.352h.84c1.571,0,2.101-.037,2.21-.037.183,0,.201.018.201.201v1.133c0,.183-.019.201-.201.201-.109,0-.639-.037-2.21-.037h-1.425c-.273.548-.565,1.059-.931,1.552h1.241c.092-.164.146-.311.201-.438.109-.256.183-.511.237-.877.457.073,1.151.164,1.462.256.183.055.255.11.255.183,0,.091-.055.164-.128.219-.127.11-.183.183-.237.311l-.164.347c1.06,0,1.388-.037,1.498-.037.183,0,.2.018.2.201v.95c0,.201-.018.219-.2.219-.11,0-.438-.036-1.571-.036h-.237v1.059c1.022,0,1.425-.037,1.516-.037.183,0,.201.018.201.201v.913c0,.183-.019.201-.201.201-.091,0-.493-.018-1.516-.037v1.059c1.022,0,1.425-.036,1.516-.036.183,0,.201.018.201.201v.895c0,.183-.019.201-.201.201-.091,0-.493-.018-1.516-.036v1.096c1.06,0,1.443-.036,1.553-.036.183,0,.201.018.201.219v.584c1.516-.822,2.082-2.046,2.228-3.927-.676.018-.968.018-1.059.018-.183,0-.201,0-.201-.201,0-.11.036-.785.036-2.265v-5.425c0-1.461-.036-2.155-.036-2.265,0-.183.019-.201.201-.201.127,0,.584.037,2.027.037h2.63c1.425,0,1.918-.037,2.027-.037.201,0,.219.018.219.201,0,.11-.036.804-.036,2.265v5.425c0,1.479.036,2.155.036,2.265,0,.201-.018.201-.219.201-.092,0-.512-.018-1.443-.018v3.269c0,.329-.018.402.055.475.092.091.201.091.438.091.311,0,.493-.036.585-.164.164-.183.183-.712.219-1.936.384.292.841.493,1.169.603.348.11.348.146.329.548-.092,1.352-.311,1.918-.657,2.228-.384.329-1.041.365-1.827.365-.657,0-1.15-.018-1.534-.219-.311-.183-.475-.603-.475-1.206v-4.055h-.749c-.219,2.612-.968,4.164-2.995,5.461-.237.146-.365.219-.493.219s-.22-.11-.384-.365c-.273-.402-.493-.657-.73-.84-.311,0-.822-.018-1.626-.018h-2.575v.877c0,.164-.018.183-.2.183h-1.261c-.183,0-.201-.018-.201-.183,0-.11.037-.457.037-1.644v-5.114l-.676.584c-.183.146-.293.238-.384.238-.092,0-.146-.128-.22-.402-.146-.475-.347-.858-.529-1.114,1.389-.913,2.411-1.954,3.123-3.251h-.292ZM62.062,34.045v-1.059h-1.553v1.059h1.553ZM62.062,36.347v-1.059h-1.553v1.059h1.553ZM62.062,38.666v-1.096h-1.553v1.096h1.553ZM68.089,26.776v1.37h3.543v-1.37h-3.543ZM71.632,31.013v-1.406h-3.543v1.406h3.543ZM71.632,32.475h-3.543v1.498h3.543v-1.498Z"/><path class="cls-3" d="M58.812,54.646c-.647-2.003-1.788-2.836-3.884-2.836-2.034,0-3.545,1.048-4.5,3.052-.617,1.264-.925,2.558-1.048,4.438.771-.863,1.201-1.233,2.064-1.665,1.202-.616,2.527-.894,4.192-.894,5.425,0,8.753,3.206,8.753,8.446,0,2.219-.924,4.5-2.403,6.01-1.695,1.695-4.285,2.651-7.213,2.651-3.175,0-5.733-1.079-7.429-3.113-1.849-2.219-2.835-5.548-2.835-9.586,0-3.36.801-6.781,2.064-8.846,1.819-2.99,4.747-4.593,8.354-4.593,2.435,0,4.5.586,5.979,1.695,1.356,1.017,2.188,2.127,2.928,4.099l-5.023,1.14ZM54.743,60.81c-2.835,0-4.808,1.819-4.808,4.377,0,2.589,2.034,4.469,4.777,4.469,1.726,0,3.236-.771,4.038-2.034.4-.617.616-1.479.616-2.466,0-2.774-1.665-4.346-4.624-4.346Z"/><path class="cls-3" d="M44.576,83.096c-.396-.744-.854-1.172-1.726-1.172-.888,0-1.299.507-1.299,1.425,0,1.045.57,1.457,1.758,1.79,1.869.523,2.725,1.378,2.725,3.263,0,1.631-.982,3.136-3.104,3.136-1.553,0-2.661-.57-3.438-1.79l1.41-.982c.522.776.981,1.172,1.916,1.172,1.062,0,1.378-.665,1.378-1.457,0-.871-.349-1.41-1.806-1.822-1.727-.491-2.677-1.457-2.677-3.31,0-1.647.95-3.025,3.089-3.025,1.426,0,2.471.57,3.136,1.79l-1.362.982Z"/><path class="cls-3" d="M53.412,80.467v1.6h-2.455v9.329h-1.837v-9.329h-2.455v-1.6h6.747Z"/><path class="cls-3" d="M53.647,80.467h2.027l1.647,4.308,1.647-4.308h2.027l-2.756,6.367v4.562h-1.838v-4.562l-2.756-6.367Z"/><path class="cls-3" d="M64.036,89.812h3.722v1.584h-5.56v-10.929h1.838v9.345Z"/><path class="cls-3" d="M74.408,80.467v1.6h-3.722v2.883h3.326v1.584h-3.326v3.279h3.722v1.584h-5.56v-10.929h5.56Z"/><line class="cls-4" x1="118.017" y1="41.478" x2="139.678" y2="72.406"/><line class="cls-4" x1="139.678" y1="41.478" x2="118.017" y2="72.406"/></svg>