<?xml version="1.0" encoding="UTF-8"?>
<svg id="_レイヤー_2" data-name="レイヤー 2" xmlns="http://www.w3.org/2000/svg" viewBox="0 0 283.11 41.44">
  <defs>
    <style>
      .cls-1 {
        fill: #688097;
      }

      .cls-2 {
        fill: #fff;
      }

      .cls-3 {
        fill: #c2b085;
      }

      .cls-4 {
        fill: #595757;
      }
    </style>
  </defs>
  <g id="_文字" data-name="文字">
    <g>
      <path class="cls-3" d="M133.81,35.45H0v-18.76C0,10.76,3.88,5.99,10.06,5.99h139.24l-15.48,29.46Z"/>
      <path class="cls-1" d="M149.29,5.99h133.81s0,12.83,0,18.76c0,5.93-3.88,10.7-10.06,10.7-4.2,0-139.24,0-139.24,0l15.48-29.46Z"/>
      <g>
        <path class="cls-2" d="M13.05,15.92h1.98v9.54h-1.98v-9.54Z"/>
        <path class="cls-2" d="M24.6,25.45h-1.99l-3.89-6.77v6.77h-1.86v-9.54h2.09l3.8,6.66v-6.66h1.86v9.54Z"/>
        <path class="cls-2" d="M33.38,15.92v1.69h-2.85v7.85h-2.01v-7.85h-2.87v-1.69h7.72Z"/>
        <path class="cls-2" d="M41.19,21.28h-4.63v2.45h5.28v1.71h-7.23v-9.54h6.99v1.69h-5.05v2.02h4.63v1.66Z"/>
        <path class="cls-2" d="M47.43,21.71h-2.06v3.74h-1.95v-9.54h4.68c.67.01,1.18.09,1.54.25.36.15.67.37.92.67.21.24.37.51.49.8.12.29.18.63.18,1,0,.45-.11.9-.34,1.34-.23.44-.61.75-1.13.93.44.18.75.43.93.75.18.33.27.82.27,1.49v.64c0,.44.02.73.05.89.05.25.17.43.36.54v.24h-2.19c-.06-.21-.1-.38-.13-.51-.05-.27-.08-.54-.08-.82v-.89c-.02-.61-.13-1.01-.35-1.22-.21-.2-.61-.3-1.2-.3ZM48.64,19.98c.4-.18.59-.54.59-1.07,0-.58-.19-.97-.58-1.16-.22-.11-.54-.17-.97-.17h-2.32v2.56h2.26c.45,0,.78-.05,1.01-.16Z"/>
        <path class="cls-2" d="M52.8,15.92h1.98v9.54h-1.98v-9.54Z"/>
        <path class="cls-2" d="M60.85,25.72c-1.36,0-2.4-.37-3.12-1.11-.97-.91-1.45-2.22-1.45-3.93s.48-3.06,1.45-3.93c.72-.74,1.76-1.11,3.12-1.11s2.4.37,3.12,1.11c.96.88,1.44,2.19,1.44,3.93s-.48,3.02-1.44,3.93c-.72.74-1.76,1.11-3.12,1.11ZM62.73,23.16c.46-.58.69-1.41.69-2.48s-.23-1.9-.7-2.48c-.46-.58-1.09-.88-1.88-.88s-1.42.29-1.89.87c-.47.58-.71,1.41-.71,2.48s.24,1.9.71,2.48c.47.58,1.1.87,1.89.87s1.42-.29,1.88-.87Z"/>
        <path class="cls-2" d="M70.99,21.71h-2.06v3.74h-1.95v-9.54h4.68c.67.01,1.18.09,1.54.25.36.15.67.37.92.67.21.24.37.51.49.8.12.29.18.63.18,1,0,.45-.11.9-.34,1.34-.23.44-.61.75-1.13.93.44.18.75.43.93.75s.27.82.27,1.49v.64c0,.44.02.73.05.89.05.25.17.43.36.54v.24h-2.19c-.06-.21-.1-.38-.13-.51-.05-.27-.08-.54-.08-.82v-.89c-.02-.61-.13-1.01-.35-1.22-.21-.2-.61-.3-1.2-.3ZM72.2,19.98c.4-.18.59-.54.59-1.07,0-.58-.19-.97-.58-1.16-.22-.11-.54-.17-.97-.17h-2.32v2.56h2.26c.45,0,.78-.05,1.01-.16Z"/>
        <path class="cls-2" d="M80.62,22.6c.04.42.13.78.28,1.08.15.3.35.54.6.72.24.19.52.32.84.4s.66.13,1.02.13c.42,0,.79-.05,1.1-.16.31-.11.56-.25.75-.43.19-.18.34-.39.43-.63.09-.24.14-.49.14-.75,0-.37-.08-.67-.25-.9-.17-.23-.39-.42-.66-.56-.27-.15-.58-.26-.93-.35-.35-.09-.71-.17-1.07-.26s-.72-.18-1.07-.3-.66-.27-.93-.46c-.27-.19-.49-.44-.66-.75-.17-.3-.25-.69-.25-1.16,0-.33.07-.65.21-.95.14-.31.34-.58.61-.82.27-.24.61-.43,1.01-.57.41-.14.87-.21,1.4-.21s1.01.08,1.41.23c.4.15.74.36,1,.62.27.26.46.56.6.91.13.34.2.71.2,1.1h-.86c0-.36-.06-.68-.19-.94s-.3-.48-.52-.65c-.22-.17-.47-.29-.75-.37-.28-.08-.57-.12-.87-.12-.46,0-.85.06-1.16.19-.31.13-.56.29-.75.5-.19.2-.31.43-.38.68-.07.25-.08.5-.04.74.05.31.18.56.37.74s.43.34.72.46c.28.12.59.22.93.29.34.08.69.15,1.04.24.35.08.7.18,1.03.3.33.12.62.27.88.46.26.19.46.44.62.75.15.3.23.69.23,1.15,0,.88-.3,1.57-.91,2.05-.61.49-1.47.73-2.57.73-.49,0-.95-.06-1.38-.19s-.79-.32-1.1-.58c-.31-.26-.55-.58-.72-.97s-.26-.84-.26-1.36h.87Z"/>
        <path class="cls-2" d="M88.35,25.45v-9.54h6.35v.77h-5.45v3.44h4.92v.77h-4.92v3.79h5.58v.77h-6.48Z"/>
        <path class="cls-2" d="M96.44,25.45v-9.54h.9v8.77h5.11v.77h-6.02Z"/>
        <path class="cls-2" d="M103.81,25.45v-9.54h6.35v.77h-5.45v3.44h4.92v.77h-4.92v3.79h5.58v.77h-6.48Z"/>
        <path class="cls-2" d="M118.68,18.68c-.19-.81-.53-1.39-1.03-1.74-.5-.34-1.16-.52-1.97-.52-.57,0-1.07.12-1.48.34-.42.23-.76.54-1.03.93-.27.39-.47.84-.6,1.34-.13.51-.19,1.04-.19,1.61,0,.53.05,1.05.17,1.56.11.51.29.97.55,1.37.26.4.6.73,1.03.97.43.25.98.37,1.63.37.41,0,.78-.07,1.11-.2.34-.13.63-.32.88-.55.25-.23.46-.51.64-.83s.3-.67.39-1.05h.94c-.11.46-.26.89-.46,1.31s-.47.77-.8,1.08c-.33.31-.73.55-1.21.74-.47.18-1.03.27-1.66.27-.73,0-1.36-.13-1.88-.4-.52-.27-.95-.63-1.28-1.09-.33-.46-.57-.99-.72-1.6-.15-.6-.23-1.25-.23-1.93,0-.91.11-1.68.34-2.32.23-.64.54-1.15.93-1.56s.87-.69,1.4-.87c.54-.18,1.13-.27,1.76-.27.49,0,.94.06,1.36.19.42.13.79.32,1.11.58.32.26.59.57.79.95s.35.81.43,1.3h-.93Z"/>
        <path class="cls-2" d="M120.61,15.91h6.94v.77h-3.02v8.77h-.9v-8.77h-3.02v-.77Z"/>
      </g>
      <g>
        <path class="cls-2" d="M176.65,25.45v-4.26h-3.73v4.26h-1.97v-9.54h1.97v3.64h3.73v-3.64h1.98v9.54h-1.98Z"/>
        <path class="cls-2" d="M186.12,23.49h-3.51l-.66,1.96h-2.08l3.4-9.54h2.25l3.38,9.54h-2.16l-.61-1.96ZM185.56,21.85l-1.19-3.75-1.23,3.75h2.42Z"/>
        <path class="cls-2" d="M190.1,15.92h1.99v7.82h4.72v1.71h-6.72v-9.54Z"/>
        <path class="cls-2" d="M204.96,17.6h-4.78v2.19h4.19v1.66h-4.19v4h-1.98v-9.52h6.76v1.68Z"/>
        <path class="cls-2" d="M209.66,20.7c0-.7.09-1.35.29-1.96.19-.61.47-1.14.84-1.6.37-.45.83-.81,1.38-1.08.55-.27,1.18-.4,1.89-.4s1.39.13,1.95.39c.56.26,1.03.62,1.4,1.07.38.46.66.99.85,1.6.19.61.28,1.27.28,1.97s-.09,1.34-.28,1.94-.47,1.14-.84,1.59c-.37.46-.83.81-1.39,1.08-.56.26-1.2.4-1.93.4s-1.38-.13-1.93-.4c-.56-.27-1.02-.62-1.39-1.08-.37-.45-.65-.98-.83-1.59s-.28-1.25-.28-1.94ZM214.12,24.93c.62,0,1.15-.12,1.6-.35.45-.23.81-.55,1.1-.93s.5-.84.64-1.35c.14-.51.21-1.05.21-1.6,0-.66-.08-1.26-.25-1.78-.16-.53-.4-.97-.71-1.34-.31-.37-.69-.65-1.13-.85-.44-.19-.94-.29-1.48-.29-.61,0-1.14.12-1.58.36-.45.24-.81.55-1.1.95s-.5.85-.64,1.36c-.14.51-.21,1.05-.21,1.6s.07,1.1.21,1.62c.14.51.35.96.64,1.35s.65.7,1.1.93c.45.23.98.34,1.61.34Z"/>
        <path class="cls-2" d="M221.23,21.12v4.33h-.9v-9.54h3.74c1.05,0,1.85.2,2.41.59s.83,1.03.83,1.91c0,.6-.12,1.08-.36,1.43-.24.35-.64.65-1.19.9.28.1.5.24.66.42.16.19.28.4.36.64s.13.49.15.76c.02.26.04.52.05.77,0,.36.02.66.05.9.02.24.05.43.08.58.03.15.07.27.11.35.04.08.1.15.16.19v.08h-.99c-.1-.15-.17-.37-.21-.65-.04-.28-.07-.58-.09-.89-.02-.31-.04-.61-.05-.9s-.04-.53-.07-.72c-.05-.26-.14-.46-.26-.62-.12-.15-.26-.27-.43-.35-.17-.08-.36-.13-.56-.16-.21-.03-.42-.04-.64-.04h-2.84ZM224.04,20.35c.34,0,.65-.04.93-.11.29-.07.54-.18.75-.34.21-.15.38-.35.5-.59.12-.24.19-.53.19-.86,0-.35-.06-.64-.19-.87-.13-.23-.3-.41-.52-.54-.22-.13-.46-.23-.74-.28-.28-.05-.57-.08-.87-.08h-2.86v3.67h2.81Z"/>
        <path class="cls-2" d="M229.18,25.45v-9.54h3.26c.27,0,.53,0,.78.02.26.01.51.04.76.09.25.05.49.12.72.22s.46.23.68.38c.32.23.58.51.78.84.2.33.36.68.48,1.05.12.37.2.74.25,1.11.05.38.07.72.07,1.04s-.02.64-.06.97c-.04.33-.1.65-.19.96s-.21.61-.35.9c-.15.29-.33.55-.55.79-.22.25-.46.45-.72.6-.26.15-.53.27-.82.35-.29.08-.58.14-.89.17-.31.03-.62.05-.94.05h-3.26ZM230.08,24.68h2.16c.41,0,.79-.02,1.15-.07.36-.05.72-.17,1.09-.36.32-.16.58-.38.78-.65.2-.27.36-.57.48-.89.12-.32.2-.66.25-1.01.05-.35.07-.69.07-1.02,0-.34-.02-.7-.07-1.05-.04-.36-.13-.7-.25-1.02-.12-.32-.29-.62-.5-.89-.21-.27-.49-.49-.82-.67-.28-.15-.62-.25-1.01-.29-.39-.04-.78-.07-1.18-.07h-2.16v8Z"/>
        <path class="cls-2" d="M238.75,25.45v-9.54h6.35v.77h-5.45v3.44h4.92v.77h-4.92v3.79h5.58v.77h-6.48Z"/>
        <path class="cls-2" d="M247.73,21.12v4.33h-.9v-9.54h3.74c1.05,0,1.85.2,2.41.59s.83,1.03.83,1.91c0,.6-.12,1.08-.36,1.43-.24.35-.64.65-1.19.9.28.1.5.24.66.42.16.19.28.4.36.64s.13.49.15.76c.02.26.04.52.05.77,0,.36.02.66.05.9.02.24.05.43.08.58.03.15.07.27.11.35.04.08.1.15.16.19v.08h-.99c-.1-.15-.17-.37-.21-.65-.04-.28-.07-.58-.09-.89-.02-.31-.04-.61-.05-.9s-.04-.53-.07-.72c-.05-.26-.14-.46-.26-.62-.12-.15-.26-.27-.43-.35-.17-.08-.36-.13-.56-.16-.21-.03-.42-.04-.64-.04h-2.84ZM250.54,20.35c.34,0,.65-.04.93-.11.29-.07.54-.18.75-.34.21-.15.38-.35.5-.59.12-.24.19-.53.19-.86,0-.35-.06-.64-.19-.87-.13-.23-.3-.41-.52-.54-.22-.13-.46-.23-.74-.28-.28-.05-.57-.08-.87-.08h-2.86v3.67h2.81Z"/>
      </g>
      <polygon class="cls-4" points="129.26 41.44 129.26 41.44 131.67 41.44 153.85 0 153.85 0 151.44 0 129.26 41.44"/>
    </g>
  </g>
</svg>