<?xml version="1.0" encoding="UTF-8"?><svg id="_レイヤー_1" xmlns="http://www.w3.org/2000/svg" xmlns:xlink="http://www.w3.org/1999/xlink" viewBox="0 0 213.316 198.74"><defs><style>.cls-1{fill:#1e1e1e;}.cls-1,.cls-2,.cls-3,.cls-4,.cls-5,.cls-6{stroke-width:0px;}.cls-7,.cls-8,.cls-3,.cls-9{fill:none;}.cls-7,.cls-8,.cls-9{stroke:#1e1e1e;stroke-linecap:round;}.cls-7,.cls-9{stroke-miterlimit:10;stroke-width:1.5px;}.cls-8{stroke-linejoin:round;stroke-width:2.032px;}.cls-2{fill:#040000;}.cls-4{fill:#af8c70;}.cls-9{stroke-dasharray:0 0 0 0 0 0 0 3.749;}.cls-5{fill:#646464;}.cls-10{clip-path:url(#clippath);}.cls-6{fill:#fff;}</style><clipPath id="clippath"><rect class="cls-3" x="10.002" y="18.401" width="203.313" height="180.339"/></clipPath></defs><path class="cls-6" d="M71.231,25.414L1.028,45.113l12.874,47.621c.698,2.584,3.359,4.112,5.943,3.414l65.707-17.763-14.32-52.97Z"/><path class="cls-6" d="M10.084,34.418l2.984,11.038-11.134,3.01s-5.076-11.915,8.15-14.048Z"/><path class="cls-6" d="M12.689,44.207l54.267-14.67c1.151-.311,2.336.37,2.647,1.52l13.009,48.121,2.94-.795-14.32-52.97L12.019,41.421l.67,2.786Z"/><path class="cls-7" d="M74.262,36.625l-2.771-10.25c-.143-.53-.69-.844-1.22-.701l-23.084,6.24"/><line class="cls-7" x1="77.604" y1="48.987" x2="75.252" y2="40.288"/><line class="cls-7" x1="79.012" y1="54.194" x2="78.249" y2="51.374"/><path class="cls-7" d="M13.76,92.212L1.028,45.113c-1.147-4.243,1.362-8.615,5.608-9.763l3.449-.932,13.47,49.826-6.056,1.637c-1.404.379-2.519,1.291-3.189,2.46-.67,1.166-.895,2.59-.516,3.993.758,2.805,3.646,4.464,6.451,3.705l64.346-17.395c.53-.143.844-.69.701-1.22l-5.489-20.303"/><line class="cls-7" x1="30.331" y1="36.471" x2="12.953" y2="41.169"/><path class="cls-4" d="M37.987,41.147l6.509,3.799-.556-7.515L21.585,1.63c-.495-.793-1.42-1.108-2.066-.705l-3.613,2.256c-.646.403-.769,1.373-.274,2.166l22.354,35.8Z"/><path class="cls-6" d="M15.632,5.347l22.355,35.8,6.509,3.799-.089-1.208-4.301-2.51L17.75,5.427c-.494-.794-.373-1.763.275-2.167l3.239-2.024c-.514-.491-1.221-.636-1.745-.309l-3.613,2.256c-.645.404-.768,1.373-.275,2.165Z"/><line class="cls-7" x1="23.052" y1="17.229" x2="23.862" y2="18.526"/><path class="cls-7" d="M25.277,20.792l12.71,20.355,6.509,3.799-.556-7.515L21.585,1.63c-.495-.793-1.42-1.108-2.066-.705l-3.613,2.256c-.646.403-.769,1.373-.274,2.166l5.951,9.53"/><line class="cls-7" x1="43.94" y1="37.43" x2="39.751" y2="40.046"/><line class="cls-7" x1="24.248" y1="5.894" x2="18.295" y2="9.611"/><line class="cls-7" x1="22.153" y1="7.202" x2="41.845" y2="38.738"/><line class="cls-7" x1="30.648" y1="55.311" x2="23.849" y2="57.149"/><polyline class="cls-7" points="31.031 51.284 23.002 53.455 31.598 85.252 66.896 75.71 58.3 43.912 40.269 48.787"/><polyline class="cls-7" points="42.154 67.854 38.614 54.758 37.843 51.906"/><line class="cls-7" x1="45.835" y1="81.469" x2="43.276" y2="72.003"/><line class="cls-9" x1="45.872" y1="71.302" x2="59.91" y2="67.507"/><g class="cls-10"><path class="cls-6" d="M97.089,205.971h40.864l10.718-85.077-2.345-2.68-1.34-14.403-25.121,2.345v12.393l-3.684,1.34s-22.442,55.936-19.092,86.082Z"/><path class="cls-5" d="M128.574,207.646s5.024-76.368,19.762-89.431c0,0,22.442,10.048,27.131,16.077l19.762,89.096-66.655-15.743Z"/><path class="cls-5" d="M59.91,209.321l40.864-.67s2.68-49.572,6.029-55.601c3.349-6.029,5.359-29.81,12.058-34.5l-28.806,12.058-18.087,38.854-5.024-24.116-15.743,8.039.335-3.684-11.723,6.364,20.097,53.257Z"/><path class="cls-6" d="M52.043,153.57c-.984-3.258-1.967-6.516-2.951-9.773-2.125-2.779-4.469-5.665-7.05-8.614-2.5-2.857-4.97-5.486-7.368-7.897-2.417-3.766-5.54-8.017-9.538-12.362-2.92-3.174-5.809-5.857-8.495-8.105.263-.826.526-1.651.789-2.477-.734-.82-1.468-1.64-2.202-2.46.041-.059.102-.143.179-.239.451-.561.935-.876,1.13-.994.24-.146.591-.326,1.044-.455.297-.018.73-.008,1.224.132.708.201,1.193.57,1.45.798,1.457,1.234,2.913,2.469,4.37,3.703,2.008,1.573,3.678,2.772,4.863,3.596,1.07.744,1.89,1.283,2.983,2.239,1.289,1.128,2.122,2.104,2.68,2.758,1.698,1.989,3.668,4.283,5.936,6.947,1.295.019,2.591.039,3.886.058l-3.888-11.212c-.058-.343-.104-.864.009-1.478.085-.465.234-.839.367-1.109.105-.13.536-.631,1.288-.753.606-.098,1.078.105,1.248.188.478.317,1.044.757,1.605,1.356.354.378.64.75.87,1.088.32.616.644,1.309.949,2.076.318.799.565,1.554.759,2.246.226.647.503,1.339.842,2.061.614,1.304,1.293,2.406,1.936,3.311,1.665,2.292,3.329,4.584,4.994,6.876.648,1.083,1.321,2.349,1.951,3.795.644,1.479,1.119,2.865,1.473,4.101.269.791.529,1.746.701,2.843.215,1.371.232,2.585.177,3.563.969,2.609,1.938,5.218,2.907,7.827-1.608,1.21-3.504,2.489-5.696,3.722-1.922,1.081-3.752,1.947-5.423,2.643Z"/><path class="cls-2" d="M73.179,168.142l-6.329-23.8h0c-.002-.009-.006-.017-.009-.026-.007-.024-.017-.047-.027-.071-.012-.032-.025-.063-.041-.093-.009-.016-.019-.031-.029-.046-.022-.036-.046-.071-.073-.103-.003-.004-.005-.008-.008-.011-.006-.007-.013-.012-.019-.018-.031-.034-.063-.065-.099-.093-.011-.008-.022-.016-.033-.024-.035-.026-.072-.049-.111-.069-.013-.007-.026-.012-.039-.018-.037-.017-.075-.032-.115-.043-.018-.005-.036-.009-.054-.013-.034-.008-.069-.014-.105-.017-.027-.003-.054-.003-.082-.003-.02,0-.04-.003-.06-.002h0l-3.071.189-1.775-4.873c.025-.096.038-.197.028-.302l-.349-3.837c-.003-.036-.009-.072-.017-.107-.794-3.645-2.159-7.099-4.058-10.264-1.226-2.045-2.679-3.967-4.316-5.716l-2.735-4.678-.933-2.446c-.345-1.534-1.242-4.263-3.426-5.798-.62-.436-1.909-1.342-3.28-.857-.5.177-.94.52-1.272.992-.883,1.254-.474,2.81-.174,3.947.452,1.718.999,3.464,1.625,5.19,0,0,0,0,0,.001l1.516,4.24-1.794-.067c-.113-.002-.22.018-.321.053-1.584-2.009-3.258-3.964-5.002-5.823-1.397-1.489-2.866-2.949-4.366-4.341-.019-.017-.04-.03-.06-.045-.019-.015-.035-.032-.056-.045-.006-.004-.013-.008-.02-.012-.005-.003-.009-.006-.014-.009-.091-.059-.185-.112-.278-.168-.004-.003-.007-.007-.012-.011l-5.679-4.2c-.047-.074-.102-.144-.173-.203-.104-.087-.375-.299-.776-.512-1.371-1.44-2.857-2.694-4.421-3.726-1.038-.684-2.071-1.279-3.31-1.062-.997.175-1.915.844-2.587,1.882-.154.238-.175.522-.087.77-.108.303-.047.654.191.902l1.643,1.711c-.203.289-.362.609-.461.944-.299,1.01-.028,1.861.16,2.278.005.01.011.019.016.03.008.016.017.032.026.047.02.034.041.066.064.097.008.01.015.021.023.031.035.041.072.079.113.112.002.002.003.004.005.005,5.178,4.196,9.795,8.99,13.722,14.248,1.29,1.727,2.526,3.533,3.673,5.366.002.004.006.007.009.011.036.055.076.107.125.155,2.144,2.075,4.242,4.251,6.237,6.467,2.81,3.125,5.498,6.424,7.991,9.808l1.322,4.644-9.083,7.405c-.015.012-.026.027-.041.041-.024.022-.048.044-.069.069-.018.021-.034.044-.05.067-.016.023-.033.046-.047.071-.014.025-.026.051-.037.077-.012.026-.023.051-.032.078-.009.026-.015.053-.021.08-.007.028-.013.057-.017.086-.004.028-.004.056-.005.084,0,.028-.002.056,0,.084.002.033.008.065.014.097.003.019.003.037.008.056.572,2.335,1.215,4.702,1.91,7.036,1.545,5.19,3.104,9.429,9.285,24.291,1.054,2.533,1.861,4.46,2.517,6.025.718,1.714,1.254,2.994,1.735,4.164.139.339.467.545.813.545.111,0,.224-.021.333-.066.449-.184.663-.697.479-1.146-.482-1.174-1.02-2.458-1.74-4.177-.655-1.564-1.462-3.489-2.515-6.021-6.151-14.789-7.698-18.993-9.224-24.117-.582-1.954-1.123-3.93-1.62-5.891,5.203-1.204,10.191-3.126,14.827-5.712,2.986-1.666,5.832-3.614,8.477-5.8l9.929,37.338c.105.393.46.653.848.653.075,0,.151-.009.226-.03.469-.125.748-.606.623-1.074l-3.326-12.508M25.213,109.137l-3.305-2.101c-.23-.147-.501-.168-.742-.09.149-.32.091-.701-.153-.963.31-.301.768-.626,1.395-.754.713-.146,1.334.028,1.767.229l2.862,2.117c-.184.043-.369.103-.554.198-.539.276-.976.752-1.27,1.365ZM17.734,100.93c.495-.087.99.107,2.039.799.801.528,1.58,1.121,2.333,1.771-.016.003-.032.004-.049.008-1.125.23-1.913.833-2.412,1.359l-1.028-.826-2.14-2.228c.267-.352.696-.783,1.257-.882ZM50.834,152.996s.003.007.004.01c-2.115.894-4.29,1.651-6.509,2.276l5.808-4.735.697,2.449ZM56.177,150.401c-1.215.678-2.456,1.304-3.719,1.886l-.999-3.51s0-.001,0-.002l-1.522-5.348c-.006-.02-.016-.038-.023-.057-.011-.03-.021-.059-.035-.088-.014-.029-.031-.055-.049-.082-.011-.017-.019-.036-.031-.052-2.553-3.474-5.31-6.861-8.194-10.067-1.998-2.221-4.099-4.4-6.245-6.481-1.156-1.843-2.399-3.657-3.696-5.395-3.966-5.311-8.623-10.155-13.838-14.406-.065-.207-.121-.531-.014-.891.021-.072.051-.135.08-.197l1.93,1.55c.162.13.356.194.549.194.093,0,.185-.02.274-.049-.185.394-.057.872.32,1.112l3.634,2.31c.059.109.139.209.245.288,2.545,1.907,4.884,4.093,6.954,6.498,1.719,1.997,3.268,4.164,4.603,6.443.164.279.457.434.758.434.151,0,.304-.039.443-.121.418-.245.559-.783.313-1.202-1.389-2.369-3-4.623-4.787-6.7-1.948-2.263-4.128-4.338-6.486-6.182.012-.028.025-.056.034-.086.074-.245.25-.684.605-.866.304-.155.692-.07,1.569.179.781.222,1.533.567,2.24,1.023,1.449,1.347,2.869,2.759,4.219,4.198,2.068,2.203,4.043,4.541,5.871,6.949.027.035.059.063.09.093.044.181.142.35.298.476,1.823,1.471,3.57,3.072,5.193,4.76,1.898,1.974,3.666,4.107,5.254,6.34.171.241.442.369.716.369.176,0,.354-.053.508-.163.395-.281.488-.829.207-1.224-1.638-2.304-3.462-4.504-5.419-6.54-1.597-1.661-3.313-3.237-5.1-4.696l2.01.076c.011,0,.022,0,.033,0h0s.002,0,.004,0c.052,0,.104-.006.155-.015.023-.004.044-.012.066-.017.023-.006.046-.01.069-.018.006-.002.01-.005.015-.007.034-.013.065-.029.097-.046.02-.01.04-.019.059-.031.027-.017.051-.037.076-.057.019-.015.04-.029.058-.046.023-.021.042-.046.062-.07.016-.018.033-.035.047-.055.02-.028.036-.059.053-.089.01-.018.022-.035.031-.054.013-.029.022-.059.032-.09.008-.023.018-.046.024-.07.005-.022.007-.045.011-.068.006-.034.013-.069.014-.104,0-.002,0-.004,0-.007,0-.019-.003-.038-.004-.057,0-.037-.001-.073-.007-.11-.005-.034-.016-.067-.025-.1-.006-.021-.008-.041-.015-.062l-.006-.015s0,0,0,0l-1.947-5.446s0-.001-.001-.002c0,0,0-.001,0-.002-.609-1.678-1.14-3.375-1.579-5.043-.274-1.041-.47-1.947-.088-2.488.153-.218.314-.309.421-.347.517-.182,1.276.351,1.684.638,1.729,1.215,2.456,3.53,2.735,4.802.009.042.022.084.037.124l.981,2.574c.009.022.021.042.032.063.011.022.018.046.031.068l2.818,4.82s.003.004.005.006c.032.054.069.105.114.153,1.581,1.679,2.981,3.527,4.161,5.494,1.791,2.986,3.082,6.243,3.837,9.682l.344,3.783c.005.053.015.104.029.154-.047.17-.044.354.02.532l2.582,7.089c-1.866,1.377-3.817,2.637-5.834,3.762Z"/><path class="cls-6" d="M101.668,72.338c-2.473,1.707-1.844,4.771-1.258,7.731.381,2.514,2.883,4.488,4.93,5.209,5.622,34.509,45.449,34.321,50.995-.143,6.734-1.416,6.322-16.42.887-12.165-.082-1.902.998-5.124-.575-8.231-2.205-4.359,1.075-11.241-2.963-17.332-9.379-11.985-29.692-9.604-40.44-1.926-5.275,3.648-7.237,10.09-10.906,15.143-.224,3.905-.448,7.809-.672,11.714Z"/><path class="cls-6" d="M100.308,72.83c-2.659.866-1.637,7.513-1.248,7.62,2.334,3.426,4.817,5.414,6.28,4.829.239-.096.49-.275.721-.606.134,2.467.892,10.77,7.459,18.171,6.307,7.108,14.049,8.963,16.529,9.452,14.924.06,26.184-18.519,26.915-27.661.791-.822,2.854-3.191,3.165-6.758-.12-2.414.461-4.16-1.922-5.269-.689-.16-1.64.071-2.022.742-.082-1.902.997-5.124-.575-8.231-2.205-4.359,1.075-11.241-2.963-17.332-9.379-11.985-29.692-9.604-40.44-1.926-5.275,3.648-7.237,10.09-10.906,15.143-.332,3.942-.663,7.884-.995,11.825Z"/><path class="cls-4" d="M101.668,72.338c-.665-.031-1.502,2.143-1.604,4.115.118,4.93,2.254,6.593,5.112,8.223.846,1.374,1.377,5.43,2.236,7.173.897,2.527,1.019,2.692.942,2.76-19.404-10.3-19.329-40.009-8.682-52.059,6.345-11.22,23.925-19.11,37.12-15.583,3.799,1.093,6.478,3.031,7.992,4.318,3.147.311,11.509,3.433,15.535,9.027,9.437,13.112,11.365,31.158,3.407,44.071-3.39,5.5-7.722,8.927-10.666,10.871.606-1.35,1.229-3.006,1.718-4.939.449-1.775.685-3.394.805-4.778,1.743-.504,2.787-1.398,3.283-1.893,0,0,2.491-2.486,2.299-6.507-.011-.236-.063-.903-.068-.97-.098-1.272-.15-1.916-.289-2.303-.145-.406-.401-1.119-1.108-1.534-.669-.393-1.688-.486-2.311.008-.584.463-.674,1.374-.783,2.47-.018.183-.027.338-.031.449-.024-1.182-.175-2.911-.817-4.868-.632-1.925-1.398-3.031-2.252-4.58-.969-1.759-1.642-3.566-2.989-7.182-1.168-3.136-2.549-7.331-3.762-12.464-.293,1.647-1.327,6.211-5.321,10.185-3.796,3.777-8.089,4.857-9.753,5.186-1.273.243-2.691.44-4.235.54-3.026.195-5.688-.037-7.847-.394-1.805,1.279-5.398,2.267-7.174,2.232,2.643-3.932,7.16-10.276,4.749-7.638-5.023,6.36-12.064,11.301-11.704,20.716-.699-.442-1.655-1.175-2.429-2.337-.875-1.314-.93-2.295-1.373-2.315Z"/><path class="cls-1" d="M169.113,61.659c-.875-13.253-9.045-27.042-22.416-30.669-.614-.167-1.234-.307-1.858-.429-3.014-2.495-6.616-4.225-10.484-4.889-26.356-3.579-48.342,22.805-42.057,48.175,1.9,8.884,7.58,16.777,15.377,21.435.858.526,1.642-.822.787-1.346-11.304-6.578-16.748-19.963-15.453-32.688,1.518-21.503,25.12-40.578,46.258-32.418,2.777,1.289,4.836,3.571,7.983,3.947,24.962,8.585,27.231,47.944,5.711,61.669-.831.555-.051,1.906.787,1.347,4.116-2.748,7.48-6.293,10.075-10.5,4.488-6.942,5.613-15.516,5.29-23.634Z"/><path class="cls-1" d="M121.974,75.821c.154-1.373-1.442-1.819-2.525-1.374-.889.644-1.148,1.559-.677,2.504.943.844,3.713.771,3.202-1.13Z"/><path class="cls-1" d="M129.276,89.554c.076,1.899,4.232,3.232,4.4.968-.201-.664-.886-.625-1.425-.423-.14.026.143-.013.045-.006-.512.025-.463.033-.909-.115.031.029.17.077.05.017-.29-.167-.165-.08-.382-.277-.02-.021-.107-.136-.033-.032.077.107-.013-.02-.022-.033-.056-.082-.104-.17-.147-.26-.068-.135.065.18.019.045-.053-1.18-1.83-1.093-1.594.115h0Z"/><path class="cls-1" d="M140.895,94.87c-6.202,2.375-12.774,2.104-19.044.133-4.742,1.672,8.539,3.372,9.624,3.254,1.114.28,14.089-1.834,9.42-3.387h0Z"/><path class="cls-1" d="M143.351,75.821c.154-1.373-1.443-1.819-2.525-1.374-.889.644-1.148,1.559-.677,2.504.943.844,3.713.771,3.202-1.13Z"/><path class="cls-1" d="M140.219,95.286c-.165.242-.337.479-.515.711-2.548,3.675-8.267,6.287-12.383,3.091-1.623-1.078-3.142-2.37-4.577-3.685-.738-.677-1.844.422-1.103,1.102,2.669,2.286,5.403,5.052,9.037,5.541,6.093,1.427,14.359-8.639,9.54-6.761h0Z"/><path class="cls-1" d="M113.835,68.683c-.223,0-.442-.105-.58-.301-.224-.32-.147-.761.173-.985,1.08-.757,3.347-2.037,6.396-2.1,2.587-.054,4.626.774,5.881,1.477.341.191.462.622.271.963-.191.341-.622.463-.963.271-1.101-.617-2.897-1.347-5.16-1.297-2.674.055-4.665,1.179-5.613,1.844-.124.087-.265.128-.405.128Z"/><path class="cls-1" d="M148.05,68.683c.223,0,.442-.105.58-.301.224-.32.147-.761-.173-.985-1.08-.757-3.347-2.037-6.396-2.1-2.587-.054-4.626.774-5.881,1.477-.341.191-.462.622-.271.963.191.341.622.463.963.271,1.101-.617,2.897-1.347,5.16-1.297,2.674.055,4.665,1.179,5.613,1.844.124.087.265.128.405.128Z"/><path class="cls-1" d="M155.616,83.15c-.487-.035-.912.325-.951.812-.315,3.994-2.884,24.038-22.595,26.887-18.167-1.004-24.414-17.544-25.24-27.173-.042-.487-.468-.847-.956-.805-.487.042-.847.47-.805.956.01.121.023.253.036.389-3.77-1.677-5.129-7.055-3.442-10.596.433.919,2.079,3.646,3.479,4.158.129.142.294.176.499.081.224-.015.437-.106.629-.298.067-.127.096-.256.097-.381.003-.004.006-.008.01-.012-.105-1.949-.019-3.891.247-5.808.1-.043.204-.092.321-.153,1.177-2.588,2.721-4.898,4.472-7.051-.017.076-.017.149-.009.22-.179.517.167,1.222.841,1.063,1.842-.432,3.601-1.12,5.263-2.016.039-.014.077-.028.116-.049.185-.101.364-.21.544-.317.023-.014.046-.027.07-.041.166-.099.33-.199.491-.303.213-.132.424-.266.634-.405,10.629,2.114,19.1-7.819,20.67-17.542.201-.979-1.302-1.398-1.503-.414-1.357,8.484-8.29,17.457-17.467,16.627,2.924-2.497,5.232-5.709,7.448-8.835.52-.857-.832-1.658-1.346-.787-2.86,4.034-5.875,8.237-10.31,10.659-1.033.558-2.109,1.028-3.219,1.397.975-1.601,1.95-3.202,2.926-4.803.054-.053.108-.107.163-.16.898-1.07,1.64-2.235,2.092-3.561.039-.086.063-.17.069-.252.049-.379-.201-.649-.517-.75-.009-.003-.017-.006-.026-.009-.005-.001-.01-.003-.015-.004-.312-.107-.681-.041-.902.322-.738,1.212-1.476,2.424-2.214,3.636-1.52,1.708-3.412,3.156-4.814,4.945-.298.299-1.6,2.088-2.773,3.971.126-.421.257-.841.401-1.258.328-.951-1.178-1.359-1.503-.414-.539.611-1.747,6.849-1.775,10.4-3.892-3.752-1.303-7.975-2.764-8.832-1.927-.003-1.063,4.07-.888,5.344-2.995,3.05-1.769,9.255,1.074,12.076.796.528,2.099,1.959,3.118,1.656.539,3.718,2.061,10.105,6.358,15.982,4.899,6.7,11.959,10.475,20.416,10.918.016,0,.031.001.046.001.042,0,.083-.003.124-.008,16.362-2.319,23.226-16.248,24.193-28.51.039-.487-.325-.912-.811-.951Z"/><path class="cls-1" d="M127.442,62.699c-.391,0-.717-.012-.967-.026-.406-.023-.717-.371-.694-.777.023-.406.372-.716.777-.694,1.878.107,8.416.074,13.755-4.8,3.968-3.622,5.285-8.054,5.716-10.373.074-.4.459-.664.859-.589.4.074.664.459.589.859-.465,2.501-1.886,7.28-6.171,11.192-5.052,4.612-11.089,5.209-13.865,5.209Z"/><path class="cls-1" d="M160.423,72.114c-.925-.939-2.383-1.002-3.382-.288-.112-.84-.296-1.508-.59-1.703-1.65-3.148-3.149-6.408-4.458-9.704-1.854-4.67-3.376-9.522-4.523-14.422-.093-.396-.488-.644-.885-.549-.396.093-.642.489-.55.885,1.163,4.971,2.707,9.893,4.588,14.63,1.405,3.538,3.024,7.036,4.813,10.4.173,1.723.231,3.455.159,5.185-.011,1.005,1.56,1.01,1.559,0,.028-.345.069-1.512.03-2.762.175-.042.34-.148.461-.343.03-.049.062-.096.096-.142,3.456-2.634,3.817,9.713-1.817,11.065-.876.487-.089,1.853.787,1.347,2.164-.983,4.033-2.743,4.617-5.103.428-2.728,1.104-6.264-.907-8.494Z"/><path class="cls-1" d="M118.869,85.068c-.138,0-.225-.003-.25-.005-1.508-.067-5.263-.56-7.548-3.668-1.647-2.241-1.749-4.823-1.787-5.795h0c-.053-1.343-.082-2.082.333-2.92,1.423-2.876,6.114-2.837,9.54-2.81,3.072.025,8.79.071,9.997,3.186.282.728.19,1.434.023,2.715-.15,1.151-.461,3.542-1.952,5.553-2.61,3.519-7.221,3.744-8.356,3.744ZM110.74,75.542h0c.037.93.122,3.109,1.505,4.99,1.913,2.601,5.14,3.018,6.439,3.076.2.006,4.899.181,7.371-3.152,1.265-1.707,1.533-3.765,1.677-4.871.15-1.154.205-1.636.063-2.003-.849-2.192-6.316-2.236-8.65-2.255-2.868-.024-7.204-.059-8.223,2-.238.48-.233.945-.183,2.216h0Z"/><path class="cls-1" d="M152.326,72.68c-1.423-2.876-6.112-2.837-9.54-2.81-3.072.025-8.79.071-9.997,3.186-.282.728-.19,1.435-.023,2.717.15,1.149.461,3.54,1.952,5.55,2.609,3.519,7.221,3.744,8.356,3.744.138,0,.225-.003.25-.005,1.508-.067,5.263-.56,7.548-3.668,1.647-2.241,1.749-4.823,1.787-5.795l-.728-.029.728.029c.053-1.342.082-2.081-.333-2.919ZM151.203,75.542h0c-.037.931-.122,3.109-1.505,4.99-1.913,2.601-5.14,3.018-6.44,3.076-.199.006-4.899.181-7.37-3.152-1.266-1.707-1.534-3.765-1.678-4.871-.15-1.153-.205-1.635-.063-2.003.849-2.192,6.316-2.236,8.65-2.255.318-.003.654-.005,1.002-.005,2.787,0,6.315.175,7.221,2.005.238.481.233.945.183,2.215Z"/><path class="cls-1" d="M132.976,74.54c-.07.002-.141-.007-.211-.026-.092-.025-.217-.058-.369-.091-.568-.125-1.147-.182-1.722-.17-.606.025-1.217.102-1.806.265-.393.111-.798-.12-.907-.512-.109-.392.12-.798.512-.907.699-.195,1.421-.302,2.146-.319.009,0,.017,0,.026,0,.69-.014,1.386.055,2.067.204.181.04.332.079.441.109.392.107.624.512.516.905-.088.322-.376.535-.693.543Z"/><path class="cls-1" d="M105.854,74.252c-.341,0-.647-.238-.72-.584-.084-.398.17-.789.568-.873l4.314-.913c.397-.085.789.17.873.568.084.398-.17.789-.568.873l-4.314.913c-.051.011-.103.016-.153.016Z"/><path class="cls-1" d="M155.721,73.988c-.05,0-.102-.005-.153-.016l-4.314-.913c-.398-.084-.652-.475-.568-.873.084-.398.473-.653.873-.568l4.314.913c.398.084.652.475.568.873-.073.346-.379.584-.72.584Z"/><path class="cls-8" d="M146.082,117.432s28.793,14.227,29.809,16.937c1.016,2.71,19.985,85.361,19.308,90.442-.677,5.081-19.647,32.519-19.647,32.519"/><line class="cls-8" x1="120.677" y1="109.98" x2="119.999" y2="122.174"/><line class="cls-8" x1="145.405" y1="106.931" x2="145.743" y2="119.22"/><path class="cls-8" d="M119.661,117.432s-28.115,11.517-30.486,14.227l-16.259,37.938"/><polyline class="cls-8" points="145.656 118.215 122.88 136.637 120.2 122.569"/><path class="cls-8" d="M147.206,119.781c-5.385,6.512-7.741,14.954-9.635,23.189-4.93,21.43-7.68,43.36-8.196,65.344"/><path class="cls-8" d="M119.405,118.442c-5.385,6.512-7.741,14.954-9.635,23.189-4.93,21.43-7.68,43.36-8.196,65.344"/><line class="cls-8" x1="158.049" y1="190.899" x2="163.408" y2="206.976"/><path class="cls-8" d="M158.049,154.054s1.675-18.757,13.063-20.432"/><path class="cls-8" d="M88.155,161.357c-3.535,11.915-4.564,24.566-3.001,36.895"/></g></svg>