<?xml version="1.0" encoding="UTF-8"?><svg id="_レイヤー_1" xmlns="http://www.w3.org/2000/svg" viewBox="0 0 380 73"><defs><style>.cls-1{fill:#f5695a;}.cls-1,.cls-2{stroke-width:0px;}.cls-2{fill:#fff;}</style></defs><rect class="cls-1" x="34.495" width="310.971" height="63.035"/><polygon class="cls-1" points="32.353 9.965 0 9.965 8.126 41.482 0 73 32.353 73 32.353 9.965"/><polygon class="cls-1" points="347.647 9.965 380 9.965 371.874 41.482 380 73 347.647 73 347.647 9.965"/><path class="cls-2" d="M134.536,13.757c-1.301,0-2.44.061-3.301.101-.26.02-.34-.121-.38-.402-.061-.402-.141-1.446-.181-2.028.9.101,1.961.141,3.841.141h7.142c.601,0,.82-.04,1.101-.201.12-.08.24-.121.34-.121.12,0,.24.04.34.14.521.422,1.021.904,1.36,1.386.101.14.16.261.16.401,0,.121-.06.241-.2.382-.18.18-.28.381-.46.782-.98,2.37-2.2,4.579-3.881,6.526-1.721,1.967-3.661,3.635-5.681,4.779-.181.121-.36.181-.541.181-.159,0-.34-.061-.5-.222-.46-.441-1.12-.803-1.86-1.104,2.921-1.486,4.701-2.872,6.542-5.021,1.561-1.787,2.58-3.494,3.381-5.723h-7.222ZM148.358,9.902c0,1.205-.96,2.149-2.16,2.149s-2.16-.944-2.16-2.149c0-1.245.96-2.148,2.16-2.148s2.16.943,2.16,2.148ZM145.019,9.902c0,.683.5,1.185,1.18,1.185s1.181-.502,1.181-1.185-.5-1.184-1.181-1.184-1.18.502-1.18,1.184Z"/><path class="cls-2" d="M153.355,22.833v1.185c0,.341-.08.381-.439.402-.501.02-1.081.02-1.581,0-.34-.021-.439-.061-.42-.302.021-1.044.061-2.469.061-3.995v-4.92c0-1.084.02-2.168-.04-3.333,0-.201.08-.281.22-.281,1.061.061,2.24.061,3.581.061h4.761c1.3,0,2.82,0,3.761-.04.22,0,.28.1.26.401,0,.984-.02,2.068-.02,3.253v4.798c0,1.748.06,2.731.1,3.816,0,.28-.1.341-.38.341-.601.02-1.24.02-1.841,0-.239,0-.26-.04-.26-.322v-1.065h-7.762ZM161.117,13.777h-7.781v6.927h7.781v-6.927Z"/><path class="cls-2" d="M173.217,11.428c.1-.602.2-1.385.2-2.229,1.04.222,1.601.362,2.4.663.2.061.32.222.32.402,0,.101-.04.201-.141.301-.2.262-.3.482-.399.764-.261.823-.46,1.566-.721,2.409.54-.061,1.141-.08,1.601-.08,1.86,0,2.86,1.305,2.86,3.875,0,2.169-.399,4.839-1.08,6.285-.58,1.285-1.54,1.888-2.7,1.888-.961,0-1.641-.101-2.081-.302-.24-.1-.359-.261-.359-.562-.061-.643-.101-1.205-.381-1.867.9.422,1.681.521,2.301.521.66,0,.96-.24,1.28-1.064.42-1.124.78-3.033.78-5,0-1.406-.26-1.848-1.141-1.848-.479,0-1.1.061-1.68.141-1.32,3.855-2.461,6.626-4.021,9.438-.12.261-.279.301-.52.18-.36-.18-1.141-.663-1.381-.883-.1-.101-.16-.181-.16-.302,0-.06.021-.14.08-.221,1.601-2.791,2.641-4.92,3.661-7.871-.78.121-1.42.241-1.96.341-.521.101-.841.222-1.101.322-.28.1-.521.061-.641-.261-.18-.462-.399-1.185-.62-2.068.881,0,1.761-.061,2.641-.141.841-.079,1.581-.18,2.36-.301.32-1.144.461-1.847.601-2.53ZM181.139,12.774c.14-.08.24-.04.38.1,1.36,1.285,2.581,2.952,3.32,4.88.08.18.061.281-.079.401-.341.322-1.101.804-1.501,1.005-.2.1-.4.08-.46-.161-.8-2.108-1.841-3.836-3.28-5.201.5-.341,1.08-.743,1.62-1.023ZM181.679,9.962c.1-.08.18-.061.3.04.62.481,1.341,1.285,1.9,2.149.08.121.08.221-.06.321l-.841.622c-.14.101-.239.08-.34-.06-.6-.923-1.24-1.687-2.021-2.329l1.061-.743ZM183.459,8.657c.12-.08.18-.06.3.04.74.563,1.461,1.365,1.9,2.068.08.121.101.241-.06.362l-.801.622c-.159.121-.26.06-.34-.061-.54-.863-1.18-1.626-2-2.308l1-.723Z"/><path class="cls-2" d="M190.996,19.5c.18.1.199.201.1.362-.3.462-.521,1.124-.521,1.525,0,1.265,1.301,1.888,4.741,1.888,1.94,0,3.781-.221,5.421-.582.28-.061.381,0,.421.18.1.382.279,1.466.319,1.968.021.18-.1.261-.34.301-1.86.341-3.7.482-5.861.482-4.621,0-6.881-1.446-6.881-4.056,0-.823.3-1.687,1.06-2.871.521.261,1.021.521,1.541.803ZM195.517,11.629c1.46,0,2.881-.08,4.161-.18.2-.021.28.06.3.221.08.462.16,1.024.18,1.707,0,.281-.1.402-.34.422-1.9.281-3.28.944-4.901,1.988-.159.121-.34.181-.5.181-.14,0-.279-.04-.42-.121-.4-.262-.82-.482-1.4-.643,1.04-.682,1.921-1.245,2.621-1.666-.44.061-1.061.061-1.461.061-.819,0-2.54-.121-3.681-.342-.18-.04-.26-.121-.26-.361,0-.482.04-1.065.08-1.788,1.521.362,3.44.522,5.621.522ZM200.958,9.4c.1-.08.18-.06.3.04.62.482,1.34,1.285,1.9,2.149.08.121.08.221-.06.322l-.841.622c-.14.1-.24.08-.34-.061-.601-.923-1.24-1.686-2.021-2.329l1.061-.743ZM202.738,8.095c.12-.08.18-.061.3.04.74.562,1.46,1.365,1.9,2.068.08.121.101.24-.06.361l-.801.622c-.16.121-.26.061-.34-.06-.54-.864-1.18-1.626-2-2.309l1-.722Z"/><path class="cls-2" d="M210.896,20.163c0,1.927.061,3.012.061,4.016,0,1.104-.16,1.647-.641,1.988-.439.321-.939.422-2.2.441q-.62.021-.78-.602c-.12-.563-.3-1.084-.479-1.446.479.06.939.06,1.46.06.5,0,.62-.18.62-.763v-3.955c-.3.1-.58.2-.86.28-.36.121-.58.241-.7.342-.1.08-.22.121-.32.121-.119,0-.199-.08-.239-.241-.141-.542-.261-1.245-.341-1.928.58-.08,1.121-.18,1.82-.381l.641-.18v-3.755h-.26c-1.36,0-1.761.04-1.881.04-.2,0-.22-.02-.22-.221v-1.466c0-.2.02-.221.22-.221.12,0,.521.04,1.881.04h.26v-1.065c0-1.285-.02-1.927-.14-2.851.74.02,1.34.06,2.04.14.18.02.32.1.32.221,0,.161-.08.281-.141.422-.12.241-.12.663-.12,2.028v1.105c1.181,0,1.581-.04,1.701-.04.199,0,.22.021.22.221v1.466c0,.201-.021.221-.22.221-.12,0-.521-.04-1.701-.04v3.112c.561-.221,1.141-.442,1.721-.722-.04.401-.06.843-.08,1.305,0,.663-.02.622-.6.884l-1.041.462v.964ZM215.897,18.697c-1.9,0-2.581.04-2.701.04-.2,0-.22-.021-.22-.201v-1.365c0-.222.02-.241.22-.241.12,0,.801.04,2.701.04h5.881c1.92,0,2.58-.04,2.7-.04.221,0,.24.02.24.241v1.365c0,.18-.02.201-.24.201-.12,0-.78-.04-2.7-.04h-2.16v1.908h1.78c1.4,0,1.9-.04,2.04-.04.2,0,.22.02.22.221v1.305c0,.201-.02.222-.22.222-.14,0-.64-.04-2.04-.04h-1.78v2.108c.84.14,1.8.18,2.9.2.92,0,1.761-.02,2.681-.079-.16.341-.28.782-.36,1.285-.08.663-.16.682-.74.682h-1.36c-3.74-.06-6.161-.682-7.722-2.892-.46.984-1.06,1.867-1.9,2.731-.18.18-.3.281-.399.281-.141,0-.261-.121-.461-.362-.319-.401-.7-.722-1.04-.923,1.82-1.386,2.501-3.133,2.9-4.859.101-.442.141-.804.16-1.145.641.14,1.08.241,1.641.402.26.08.38.14.38.301,0,.14-.06.221-.16.341-.08.101-.12.241-.199.522-.101.341-.181.682-.28,1.004.52.904,1.18,1.526,2,1.928v-5.1h-1.76ZM220.558,9.039c1.741,0,2.321-.04,2.44-.04.2,0,.221.02.221.24,0,.121-.04.622-.04,1.827v2.792c0,1.184.04,1.707.04,1.827,0,.201-.021.221-.221.221-.119,0-.699-.04-2.44-.04h-3.9c-1.761,0-2.341.04-2.461.04-.199,0-.22-.02-.22-.221,0-.14.04-.643.04-1.827v-2.792c0-1.205-.04-1.707-.04-1.827,0-.221.021-.24.22-.24.12,0,.7.04,2.461.04h3.9ZM215.957,10.585v1.165h5.261v-1.165h-5.261ZM221.218,13.175h-5.261v1.185h5.261v-1.185Z"/><path class="cls-2" d="M240.458,14.681c-.54.783-1.16,1.425-1.86,1.967,1.561.422,3.141.904,4.821,1.486.1.04.16.08.16.14,0,.04-.04.121-.12.222l-.801,1.064c-.16.241-.22.241-.42.161-1.801-.722-3.601-1.406-5.461-1.967-.66.322-1.36.582-2.141.783.641.02,1.2.08,1.82.14.2.021.3.121.3.221,0,.201-.1.362-.12.522-.039.201-.079.442-.079.783h5.181c1.78,0,2.4-.04,2.521-.04.22,0,.24.02.24.221v1.306c0,.201-.021.221-.24.221-.12,0-.74-.04-2.521-.04h-3.781c1.721,1.225,3.762,1.988,7.002,2.71-.32.362-.62.823-.84,1.346-.24.582-.28.562-.881.402-2.88-.884-5.021-2.009-6.721-3.696.02,2.028.08,3.474.08,3.876,0,.201-.021.221-.221.221h-1.641c-.199,0-.22-.02-.22-.221,0-.402.08-1.767.101-3.836-1.821,1.667-4.062,2.892-6.521,3.675-.221.061-.36.101-.461.101-.18,0-.26-.121-.439-.463-.24-.462-.5-.883-.84-1.224,2.88-.783,5.041-1.607,6.741-2.892h-3.441c-1.78,0-2.4.04-2.521.04-.22,0-.239-.02-.239-.221v-1.306c0-.201.02-.221.239-.221.12,0,.74.04,2.521.04h4.922c-.021-.462-.04-.964-.141-1.607-1.58.402-3.4.643-5.521.783-.501.04-.561.02-.721-.422-.2-.542-.42-.883-.66-1.185,2.94-.1,5.021-.341,6.602-.743-.601-.14-1.24-.28-1.881-.401-.14.14-.279.261-.399.361-.141.141-.181.141-.5.04l-1.141-.361c-.28-.08-.26-.222-.12-.342.34-.301.721-.703,1.061-1.044l.54-.602h-1.74c-1.82,0-2.44.04-2.561.04-.221,0-.24-.021-.24-.201v-1.225c0-.201.02-.221.24-.221.12,0,.74.04,2.561.04h2.94l.1-.161c.28-.422.521-.883.721-1.365.72.1,1.34.221,1.94.362.14.04.24.121.24.261,0,.101-.12.201-.261.281-.12.06-.32.261-.56.622h6.501c1.82,0,2.44-.04,2.561-.04.2,0,.22.02.22.221v1.225c0,.18-.02.201-.22.201-.12,0-.74-.04-2.561-.04h-1.12ZM229.575,12.391c0,.181-.02.201-.22.201h-1.601c-.22,0-.239-.02-.239-.201,0-.14.04-.28.04-1.525v-.322c0-.322-.04-.502-.04-.622,0-.201.02-.221.239-.221.12,0,.801.04,2.701.04h4.061c0-.503-.04-.984-.14-1.446.72,0,1.44.04,2.141.1.18.021.3.1.3.201,0,.14-.061.261-.12.402-.061.14-.08.381-.08.743h4.341c1.881,0,2.561-.04,2.7-.04.2,0,.221.02.221.221,0,.121-.04.301-.04.562v.382c0,1.245.04,1.406.04,1.525,0,.181-.021.201-.221.201h-1.62c-.2,0-.22-.02-.22-.201v-1.044h-12.243v1.044ZM233.957,14.681c-.221.301-.44.582-.66.823,1.08.18,2.14.401,3.181.622.7-.402,1.26-.884,1.78-1.446h-4.301Z"/><path class="cls-2" d="M251.717,21.227h-2.021l-.56-11.948h3.12l-.54,11.948ZM252.098,23.175v2.71h-2.841v-2.71h2.841Z"/><path class="cls-2" d="M64.115,41c-.46.341-.92.643-1.359.904,1.78,2.189,2.62,4.638,2.62,7.108,0,2.811-.68,3.755-3.021,3.755-.34,0-.681,0-1.04-.04q-.54-.04-.641-.542c-.14-.582-.32-1.084-.58-1.446.88.1,1.66.121,2.081.121.84,0,1.22-.241,1.22-1.928,0-.361-.02-.743-.06-1.084-2.361,1.808-4.682,3.032-7.462,4.077-.24.079-.38.14-.48.14-.16,0-.239-.121-.399-.442-.301-.562-.521-.803-.94-1.165,3.581-1.044,6.321-2.409,8.882-4.438-.12-.322-.24-.642-.4-.964-1.94,1.285-3.98,2.208-6.321,3.032-.24.08-.38.14-.479.14-.141,0-.221-.121-.381-.422-.26-.462-.56-.823-.88-1.124,3.061-.682,5.121-1.626,7.281-3.012-.18-.28-.359-.562-.58-.843-1.38.723-2.74,1.265-4.301,1.747-.58.161-.6.141-.82-.241-.319-.602-.52-.822-.92-1.184,2.641-.563,4.581-1.245,6.262-2.149h-1.041c-1.9,0-2.561.04-2.68.04-.221,0-.24-.021-.24-.241v-1.265c0-.222.02-.241.24-.241.119,0,.779.04,2.68.04h5.682c1.921,0,2.58-.04,2.7-.04.2,0,.221.02.221.241v1.265c0,.221-.021.241-.221.241-.12,0-.779-.04-2.641-.04.261,1.084.58,2.068.98,2.952.38-.362.761-.743,1.24-1.305.34-.381.641-.844.86-1.205.62.422,1.061.763,1.46,1.124.221.161.301.281.301.401,0,.161-.141.262-.261.302-.26.1-.46.381-.88.803-.6.582-1.22,1.145-1.801,1.607,1.081,1.666,2.541,3.012,4.501,4.156-.42.422-.779.823-1.08,1.386-.18.321-.26.462-.399.462-.08,0-.2-.101-.421-.241-3.38-2.49-5.221-5.883-6.381-10.442h-.101ZM68.776,36.141c1.841,0,2.501-.04,2.641-.04.2,0,.221.02.221.221,0,.121-.04.462-.04.964v.823c0,1.707.04,2.028.04,2.149,0,.201-.021.221-.221.221h-1.64c-.2,0-.221-.02-.221-.221v-2.369h-12.723v2.369c0,.201-.02.221-.22.221h-1.641c-.2,0-.22-.02-.22-.221,0-.121.04-.442.04-2.149v-.663c0-.663-.04-.983-.04-1.124,0-.201.02-.221.22-.221.141,0,.801.04,2.641.04h4.381v-.04c0-.663-.02-1.205-.14-1.707.72.02,1.46.06,2.16.121.2.02.3.1.3.18,0,.14-.06.241-.12.402-.06.16-.1.422-.1,1.004v.04h4.681Z"/><path class="cls-2" d="M77.955,40.297c3.08-1.044,5.581-1.666,7.201-1.666,3.581,0,5.881,2.168,5.881,5.321,0,2.631-1.14,4.297-3.521,5.582-1.68.944-3.24,1.265-5.081,1.666-.399.08-.56.061-.7-.322-.24-.562-.74-1.165-1.4-1.586,2.641-.442,4.062-.823,5.422-1.486,1.7-.864,2.76-2.149,2.76-3.995,0-1.888-1.22-3.052-3.44-3.052-1.8,0-4.181.723-7.222,2.068-.64.322-1.14.542-1.38.723-.28.24-.44.301-.54.301-.2,0-.36-.121-.58-.422-.36-.442-.86-1.225-1.28-2.089.88-.1,1.62-.281,3.881-1.044ZM88.817,36.04c.1-.08.18-.06.3.04.62.482,1.34,1.285,1.9,2.149.08.121.08.221-.06.322l-.841.622c-.14.1-.24.08-.34-.061-.601-.923-1.24-1.686-2.021-2.329l1.061-.743ZM90.598,34.735c.12-.08.18-.061.3.04.74.562,1.46,1.365,1.9,2.068.08.121.101.241-.06.361l-.801.622c-.16.121-.26.061-.34-.06-.54-.864-1.181-1.626-2-2.309l1-.722Z"/><path class="cls-2" d="M105.036,36.502c.1.079.16.24.16.321,0,.181-.101.302-.28.381-.24.121-.54.302-.96.703-1.721,1.547-3.921,3.615-5.462,5.221-.18.222-.26.342-.26.442,0,.121.08.221.26.362,2.601,1.887,5.302,4.076,7.442,6.325.079.101.14.181.14.262s-.04.14-.14.24c-.461.503-1.041,1.085-1.381,1.386-.12.1-.2.161-.28.161s-.14-.061-.239-.181c-2.321-2.61-4.562-4.698-7.282-6.786-.76-.582-1.06-1.024-1.06-1.687s.359-1.105.979-1.767c1.7-1.847,3.361-3.513,5.081-5.401.54-.582.841-1.004,1.08-1.506.881.521,1.641,1.044,2.201,1.526Z"/><path class="cls-2" d="M113.415,35.84c.261.1.381.221.381.401,0,.121-.04.201-.141.322-.14.161-.24.442-.359.944-.28,1.365-.44,2.791-.561,3.835-.04.723-.1,1.486-.06,2.209.439-.783.859-1.547,1.399-2.57.181.602.381.964.62,1.305.101.121.12.221.12.322,0,.161-.08.321-.199.502-.44.843-.9,1.687-1.181,2.57-.06.18-.08.362-.1.602,0,.201-.08.281-.261.322-.24.061-1.1.181-1.601.241-.14.02-.239-.121-.279-.261-.32-.864-.601-2.409-.601-4.077,0-1.345.221-2.992.48-4.999.08-.703.16-1.386.16-2.29.899.181,1.66.382,2.18.623ZM119.917,35.498c.4.101.44.201.4.542-.04.281-.04.643-.04.924.14,1.908.279,3.735.279,5.181,0,2.851-.46,5.321-1.52,6.968-.78,1.245-2.041,2.429-3.301,3.233-.141.1-.28.14-.4.14-.14,0-.26-.06-.42-.221-.44-.381-1.061-.743-1.7-.924,1.62-.903,2.601-1.626,3.4-2.69,1.16-1.587,1.681-3.233,1.681-6.406,0-1.425-.101-3.514-.24-4.799-.101-.983-.2-1.486-.42-2.189.88.04,1.7.08,2.28.241Z"/><path class="cls-2" d="M134.415,38.972c-.46,3.413-1.3,6.546-2.5,8.655-.86,1.506-1.9,2.309-3.401,2.309-1.76,0-3.54-1.888-3.54-5.161,0-1.927.819-3.775,2.26-5.221,1.681-1.687,3.801-2.57,6.502-2.57,4.801,0,7.621,2.972,7.621,6.968,0,3.735-2.101,6.084-6.161,7.31-.42.12-.6.039-.86-.362-.22-.341-.64-.804-1.4-1.265,3.381-.803,6.042-2.208,6.042-6.004,0-2.389-1.801-4.658-4.481-4.658h-.08ZM128.674,40.919c-.96,1.084-1.561,2.43-1.561,3.715,0,1.847.74,2.871,1.36,2.871.521,0,.961-.261,1.501-1.225.88-1.626,1.78-4.518,2.12-7.188-1.4.281-2.521.843-3.421,1.827Z"/><path class="cls-2" d="M149.074,35.84c-.02-.522-.04-.944-.12-1.406.681.02,1.421.06,1.98.121.181.02.301.1.301.221,0,.08-.04.161-.12.301s-.101.362-.101.764h3.841c-.02-.503-.04-.924-.12-1.386.66.021,1.44.061,2.001.121.16.02.28.08.28.221,0,.061-.04.141-.12.281s-.101.362-.101.764h2.341c1.8,0,2.4-.04,2.521-.04.2,0,.22.02.22.221v1.305c0,.201-.02.222-.22.222-.12,0-.721-.04-2.521-.04h-2.341c.021.422.04.642.04.722,0,.201-.02.221-.24.221h-1.56c-.2,0-.221-.02-.221-.221,0-.08.021-.301.021-.722h-3.821c.021.422.04.642.04.722,0,.201-.02.221-.24.221h-1.54c-.22,0-.24-.02-.24-.221,0-.08.021-.322.021-.722h-2.181c-1.78,0-2.4.04-2.521.04-.2,0-.22-.021-.22-.222v-1.305c0-.201.02-.221.22-.221.12,0,.74.04,2.521.04h2.2ZM158.597,43.489c1.86,0,2.521-.04,2.641-.04.2,0,.22.021.22.221,0,.141-.04.422-.04.823v.603c0,1.486.04,1.726.04,1.847,0,.201-.02.222-.22.222h-1.581c-.199,0-.22-.021-.22-.222v-1.847h-6.421c-.261.322-.521.642-.801.923h3.981c.2,0,.34-.02.46-.06s.2-.061.3-.061c.18,0,.32.04.9.582.52.502.6.622.6.783,0,.121-.06.241-.239.322-.2.1-.341.221-.66.542-2.581,2.61-5.321,4.076-10.242,4.839-.58.1-.58.08-.82-.422-.221-.463-.561-.944-.86-1.246,2.181-.24,3.98-.602,5.481-1.124-.54-.441-1.16-.883-1.521-1.104-.101-.061-.141-.121-.141-.161,0-.061.061-.121.2-.201l.961-.603c.22-.14.26-.14.439-.04.521.322,1.28.844,1.86,1.306.96-.502,1.801-1.084,2.541-1.787h-4.961c-.961.722-2.041,1.345-3.321,1.908-.22.1-.38.161-.5.161-.16,0-.26-.101-.44-.362-.279-.422-.6-.722-.96-1.004,2.141-.703,3.981-1.707,5.421-3.193h-4.181v1.766c0,.222-.02.241-.22.241h-1.54c-.221,0-.24-.02-.24-.241,0-.12.04-.341.04-1.787v-.462c0-.521-.04-.803-.04-.944,0-.2.02-.221.24-.221.12,0,.78.04,2.641.04h11.202ZM156.977,38.831c1.94,0,2.641-.04,2.78-.04.18,0,.2.02.2.221,0,.121-.021.422-.021,1.205v1.165c0,.783.021,1.084.021,1.205,0,.181-.021.201-.2.201-.14,0-.84-.04-2.78-.04h-7.922c-1.961,0-2.661.04-2.781.04-.199,0-.199-.02-.199-.201,0-.14.02-.422.02-1.205v-1.165c0-.783-.02-1.084-.02-1.205,0-.201,0-.221.199-.221.12,0,.82.04,2.781.04h7.922ZM150.135,41.461v-1.325h-2.061v1.325h2.061ZM154.016,41.461v-1.325h-2.08v1.325h2.08ZM157.937,40.136h-2.121v1.325h2.121v-1.325Z"/><path class="cls-2" d="M169.915,37.526c.1-.602.2-1.385.2-2.229,1.04.222,1.601.362,2.4.663.2.061.32.222.32.402,0,.101-.04.201-.141.301-.199.262-.3.482-.399.764-.261.823-.46,1.566-.721,2.409.54-.061,1.141-.08,1.601-.08,1.86,0,2.86,1.305,2.86,3.875,0,2.169-.399,4.839-1.08,6.285-.58,1.285-1.54,1.888-2.7,1.888-.961,0-1.641-.101-2.081-.302-.239-.1-.359-.261-.359-.562-.061-.643-.101-1.205-.381-1.867.9.422,1.681.521,2.301.521.66,0,.96-.24,1.28-1.064.42-1.124.78-3.033.78-5,0-1.406-.26-1.848-1.141-1.848-.479,0-1.1.061-1.68.141-1.32,3.855-2.461,6.626-4.021,9.438-.12.261-.279.301-.52.18-.36-.18-1.141-.663-1.381-.883-.1-.101-.16-.181-.16-.302,0-.06.021-.14.08-.221,1.601-2.791,2.641-4.92,3.661-7.871-.78.121-1.42.241-1.96.341-.521.101-.841.222-1.101.322-.28.1-.521.061-.641-.261-.18-.462-.399-1.185-.62-2.068.881,0,1.761-.061,2.641-.141.841-.079,1.581-.18,2.36-.301.32-1.144.461-1.847.601-2.53ZM177.837,38.872c.14-.08.24-.04.38.1,1.36,1.285,2.581,2.952,3.32,4.88.08.18.061.281-.08.401-.34.322-1.1.804-1.5,1.005-.2.1-.4.08-.46-.161-.8-2.108-1.841-3.836-3.28-5.201.5-.341,1.08-.743,1.62-1.023ZM178.377,36.06c.1-.08.18-.061.3.04.62.481,1.341,1.285,1.9,2.149.08.121.08.221-.06.321l-.841.622c-.14.101-.239.08-.34-.06-.6-.923-1.24-1.687-2.021-2.329l1.061-.743ZM180.157,34.755c.12-.08.18-.06.3.04.74.563,1.461,1.365,1.9,2.068.08.121.101.241-.06.362l-.801.622c-.159.121-.26.06-.34-.061-.54-.863-1.18-1.626-2-2.308l1-.723Z"/><path class="cls-2" d="M189.635,47.686c0,1.848.8,2.57,2.66,2.57,2.341,0,3.641-.903,3.641-2.71,0-1.124-.28-2.049-1.8-3.654.8.1,1.24,0,2.04-.121.14-.04.3-.021.42.08,1.101,1.044,1.7,2.409,1.7,3.775,0,2.852-2.32,4.698-5.761,4.698-3.541,0-5.041-1.607-5.041-4.538,0-.422.06-.984.14-1.888-1.2-.18-2-.362-2.721-.602-.14-.04-.2-.141-.22-.382-.06-.622-.08-1.245-.04-1.867,1.2.442,2.101.663,3.241.783.1-.743.26-2.048.34-2.871-1.4-.18-2.121-.301-2.881-.563-.24-.06-.32-.16-.32-.341-.02-.481-.06-1.144-.06-1.867,1.36.442,2.32.622,3.62.764.16-1.166.221-1.708.261-2.309.04-.563.04-1.145-.021-1.687.921.121,1.961.381,2.4.563.28.1.44.281.44.462,0,.14-.06.261-.16.381-.14.141-.24.402-.36.864-.1.462-.22,1.145-.319,1.887.8.061,1.62,0,2.46-.12.141,0,.2.1.2.24.021.482.021,1.045-.04,1.507,0,.221-.08.28-.32.301-.88.1-1.78.121-2.66.1-.12.703-.32,2.068-.44,2.872,1.061.02,1.881,0,2.841-.061.26-.04.32.04.32.222,0,.361-.04,1.084-.101,1.506-.02.241-.079.322-.279.322-1.001.08-2.041.08-3.061.06-.101.783-.12,1.265-.12,1.626Z"/><path class="cls-2" d="M203.895,42.687c2.461-.823,4.401-1.225,5.842-1.225,2.72,0,4.561,1.787,4.561,4.297,0,2.048-.96,3.474-2.86,4.497-1.04.582-2.44,1.145-4.142,1.325-.359.061-.52-.02-.659-.281-.221-.401-.581-.843-1.221-1.324,2.341-.362,3.44-.703,4.821-1.386,1.14-.602,1.8-1.546,1.8-2.992,0-1.425-.88-2.208-2.48-2.208-1.38,0-3.48.682-5.661,1.565-.5.222-.9.463-1.12.622-.16.141-.28.201-.4.201-.18,0-.319-.121-.52-.361-.46-.582-.761-1.285-1.08-1.948,1-.161,1.98-.422,3.12-.783Z"/><path class="cls-2" d="M223.156,35.599c.239.06.359.161.359.321,0,.281-.14.563-.14.844,0,.401.06.883.1,1.345.181,1.406.381,2.409.641,3.454,1-.543,1.721-.924,2.841-1.526.58-.341,1.06-.683,1.38-1.084.641.663,1.16,1.365,1.46,1.887.08.121.141.281.141.422,0,.201-.12.362-.4.402-.6.1-1.28.341-1.92.603-1.721.702-3.321,1.445-4.701,2.349-1.74,1.145-2.36,2.089-2.36,3.032,0,1.185.88,1.687,3.181,1.687,2.521,0,4.561-.18,6.101-.462.221-.04.32,0,.36.241.101.542.16,1.265.2,1.867.02.221-.12.321-.36.341-1.82.241-3.421.301-5.961.301-3.781,0-5.781-1.245-5.781-3.855,0-2.229,1.46-3.695,3.801-5.181-.48-1.546-.84-3.353-1.04-4.899-.141-1.065-.28-1.767-.521-2.329.96,0,1.881.06,2.621.241Z"/><path class="cls-2" d="M236.956,41.321c0,2.369-.181,4.497-.561,6.445-.32,1.687-.8,3.032-1.601,4.438-.14.262-.22.381-.319.381-.101,0-.2-.1-.4-.321-.42-.462-.98-.904-1.341-1.124.841-1.285,1.301-2.51,1.641-4.197.34-1.606.46-3.714.46-6.003,0-2.51-.04-3.655-.04-3.776,0-.2.021-.221.221-.221.12,0,.82.04,2.721.04h3.98v-.864c0-.622-.021-1.144-.12-1.626.76.021,1.42.061,2.12.121.2.02.32.08.32.201,0,.14-.04.241-.12.381s-.14.422-.14.864v.923h4.061c1.9,0,2.561-.04,2.681-.04.18,0,.2.021.2.221v1.526c0,.222-.021.241-.2.241-.12,0-.78-.04-2.681-.04h-10.882v2.43ZM246.237,44.574c.261-.121.301-.14.421.04,1.46,2.108,2.84,4.558,3.841,6.707.08.201.06.281-.181.402l-1.48.783c-.239.12-.34.06-.42-.141-.26-.602-.52-1.205-.8-1.807-2.581.462-6.041.983-9.322,1.345-.32.04-.58.121-.74.221-.12.08-.24.121-.32.121-.14,0-.22-.08-.3-.301-.16-.563-.32-1.285-.479-2.088.72.02,1.38.02,2.28-.04,1.14-2.892,1.84-5.221,2.5-7.952.141-.563.221-1.145.261-1.867.78.161,1.62.401,2.22.602.28.08.341.181.341.342,0,.14-.061.261-.181.401-.18.222-.34.502-.5,1.124-.68,2.47-1.4,4.699-2.38,7.128,1.96-.221,3.96-.481,5.741-.803-.581-1.105-1.24-2.168-1.961-3.233-.1-.161-.08-.241.16-.362l1.3-.622Z"/><path class="cls-2" d="M258.977,37.526c.1-.602.2-1.385.2-2.229,1.04.222,1.601.362,2.4.663.2.061.32.222.32.402,0,.101-.04.201-.141.301-.2.262-.3.482-.399.764-.261.823-.46,1.566-.721,2.409.54-.061,1.141-.08,1.601-.08,1.86,0,2.86,1.305,2.86,3.875,0,2.169-.399,4.839-1.08,6.285-.58,1.285-1.54,1.888-2.7,1.888-.961,0-1.641-.101-2.081-.302-.24-.1-.359-.261-.359-.562-.061-.643-.101-1.205-.381-1.867.9.422,1.681.521,2.301.521.66,0,.96-.24,1.28-1.064.42-1.124.78-3.033.78-5,0-1.406-.26-1.848-1.141-1.848-.479,0-1.1.061-1.68.141-1.32,3.855-2.461,6.626-4.021,9.438-.12.261-.279.301-.52.18-.36-.18-1.141-.663-1.381-.883-.1-.101-.16-.181-.16-.302,0-.06.021-.14.08-.221,1.601-2.791,2.641-4.92,3.661-7.871-.78.121-1.42.241-1.96.341-.521.101-.841.222-1.101.322-.28.1-.521.061-.641-.261-.18-.462-.399-1.185-.62-2.068.881,0,1.761-.061,2.641-.141.841-.079,1.581-.18,2.36-.301.32-1.144.461-1.847.601-2.53ZM266.898,38.872c.14-.08.24-.04.38.1,1.36,1.285,2.581,2.952,3.32,4.88.08.18.061.281-.079.401-.341.322-1.101.804-1.501,1.005-.2.1-.4.08-.46-.161-.8-2.108-1.841-3.836-3.28-5.201.5-.341,1.08-.743,1.62-1.023ZM267.438,36.06c.1-.08.18-.061.3.04.62.481,1.341,1.285,1.9,2.149.08.121.08.221-.06.321l-.841.622c-.14.101-.239.08-.34-.06-.6-.923-1.24-1.687-2.021-2.329l1.061-.743ZM269.219,34.755c.12-.08.18-.06.3.04.74.563,1.461,1.365,1.9,2.068.08.121.101.241-.06.362l-.801.622c-.159.121-.26.06-.34-.061-.54-.863-1.18-1.626-2-2.308l1-.723Z"/><path class="cls-2" d="M277.675,35.84c.261.1.381.221.381.401,0,.121-.04.201-.141.322-.14.161-.24.442-.359.944-.28,1.365-.44,2.791-.561,3.835-.04.723-.1,1.486-.06,2.209.439-.783.859-1.547,1.399-2.57.181.602.381.964.62,1.305.101.121.12.221.12.322,0,.161-.08.321-.199.502-.44.843-.9,1.687-1.181,2.57-.06.18-.08.362-.1.602,0,.201-.08.281-.261.322-.24.061-1.1.181-1.601.241-.14.02-.239-.121-.279-.261-.32-.864-.601-2.409-.601-4.077,0-1.345.221-2.992.48-4.999.08-.703.16-1.386.16-2.29.899.181,1.66.382,2.18.623ZM284.177,35.498c.4.101.44.201.4.542-.04.281-.04.643-.04.924.14,1.908.279,3.735.279,5.181,0,2.851-.46,5.321-1.52,6.968-.78,1.245-2.041,2.429-3.301,3.233-.141.1-.28.14-.4.14-.14,0-.26-.06-.42-.221-.44-.381-1.061-.743-1.7-.924,1.62-.903,2.601-1.626,3.4-2.69,1.16-1.587,1.681-3.233,1.681-6.406,0-1.425-.101-3.514-.24-4.799-.101-.983-.2-1.486-.42-2.189.88.04,1.7.08,2.28.241Z"/><path class="cls-2" d="M295.216,44.474c-1.381.04-2.74.04-4.121-.08-.22,0-.3-.08-.32-.341-.08-.442-.12-1.245-.12-1.708,1.48.181,3.001.222,4.501.161-.02-.763-.02-1.546-.04-2.308-1.92.06-3.36.06-4.78-.101-.221,0-.32-.08-.341-.281-.06-.502-.1-.983-.14-1.807,1.74.201,3.48.201,5.241.201,0-.743-.02-1.265-.04-1.948-.04-.462-.08-.823-.24-1.346,1.061.061,1.921.181,2.521.362.24.08.36.362.221.602-.141.281-.28.623-.301.965-.02.401-.02.682-.04,1.285,1.86-.141,3.201-.362,4.381-.603.24-.06.32,0,.341.241.08.563.1,1.105.1,1.465,0,.262-.06.302-.22.322-1.421.241-2.701.402-4.621.522,0,.803.02,1.546.02,2.268,1.521-.1,2.48-.301,3.921-.521.24-.061.301-.021.32.161.021.381.06,1.044.06,1.646,0,.201-.079.262-.3.281-1.32.222-2.24.362-3.921.482.04.923.08,1.908.141,2.831,1.92.542,3.561,1.265,5.301,2.43.2.18.2.241.14.481-.14.382-.56,1.125-.88,1.486-.08.121-.16.161-.26.161-.061,0-.141-.02-.221-.1-1.22-.965-2.46-1.667-3.98-2.29-.02,2.169-1.32,3.052-4.061,3.052-2.601,0-4.081-1.145-4.081-2.811,0-1.626,1.58-2.851,4.001-2.851.5,0,.98,0,1.92.079-.04-.883-.08-1.707-.1-2.389ZM293.495,48.53c-1.46,0-2.16.422-2.16,1.064,0,.522.6.904,1.98.904.8,0,1.54-.241,1.82-.602.16-.222.22-.563.22-1.125-.58-.14-1.3-.24-1.86-.24Z"/><path class="cls-2" d="M314.177,36.462c-.04-.583-.08-.864-.24-1.466.9.061,1.86.181,2.341.281.34.06.56.201.56.381,0,.161-.06.261-.18.462-.061.121-.12.322-.16.582-.021.262-.021.522-.04,1.285,2.16-.08,4.221-.1,6.142-.1.239,0,.279.04.3.301.02.502.02,1.024,0,1.526,0,.221-.1.281-.34.261-2.081-.06-4.021-.06-6.102-.04,0,1.225,0,2.51.02,3.735.2.543.301,1.325.301,1.988,0,2.33-.94,4.759-3.561,6.486-.341.221-.601.381-.78.381-.181,0-.4-.14-.601-.301-.46-.381-1-.643-1.521-.804,2.341-1.044,3.741-2.73,4.102-4.417-.4.582-1.221.803-1.881.803-1.58,0-2.78-1.144-2.78-3.072,0-1.867,1.4-3.012,3.021-3.012.6,0,1.2.121,1.521.402,0-.703-.021-1.385-.021-2.048-2.521.14-5.341.381-6.921.602-.44.061-.761.241-.94.241-.2,0-.28-.08-.34-.281-.16-.401-.341-1.205-.501-2.028.74.08,1.381,0,2.441-.08,1.22-.1,3.801-.261,6.201-.401-.021-.622-.021-1.124-.04-1.666ZM311.616,44.594c0,.883.56,1.365,1.28,1.365.74,0,1.36-.463,1.36-1.386,0-.823-.521-1.285-1.32-1.285-.62,0-1.32.422-1.32,1.306Z"/><path class="cls-2" d="M328.275,50.377c0,1.607-1.301,2.892-2.9,2.892s-2.901-1.285-2.901-2.892,1.301-2.892,2.901-2.892,2.9,1.285,2.9,2.892ZM323.714,50.377c0,.944.721,1.666,1.661,1.666s1.66-.722,1.66-1.666-.721-1.666-1.66-1.666-1.661.722-1.661,1.666Z"/></svg>