<?xml version="1.0" encoding="UTF-8"?><svg id="_レイヤー_1" xmlns="http://www.w3.org/2000/svg" viewBox="0 0 760 65"><defs><style>.cls-1{fill:#f5695a;}.cls-1,.cls-2{stroke-width:0px;}.cls-2{fill:#fff;}</style></defs><rect class="cls-1" x="48.99" width="661.942" height="56.127"/><polygon class="cls-1" points="44.707 8.873 0 8.873 16.252 36.936 0 65 44.707 65 44.707 8.873"/><polygon class="cls-1" points="715.293 8.873 760 8.873 743.748 36.936 760 65 715.293 65 715.293 8.873"/><path class="cls-2" d="M83.85,22.436c-1.971,0-3.7.091-5.003.151-.394.03-.515-.181-.576-.604-.091-.605-.213-2.176-.273-3.053,1.365.151,2.972.211,5.822.211h10.825c.91,0,1.243-.06,1.668-.303.182-.121.364-.181.515-.181.182,0,.364.06.515.212.788.634,1.546,1.36,2.062,2.086.151.211.243.393.243.604,0,.182-.091.363-.303.575-.273.272-.425.574-.697,1.179-1.486,3.567-3.336,6.892-5.883,9.825-2.608,2.962-5.549,5.472-8.611,7.195-.273.181-.546.272-.819.272-.242,0-.515-.091-.758-.332-.697-.665-1.698-1.21-2.82-1.663,4.427-2.237,7.126-4.323,9.916-7.558,2.365-2.691,3.912-5.26,5.125-8.616h-10.947ZM104.803,16.632c0,1.814-1.456,3.235-3.275,3.235s-3.275-1.421-3.275-3.235c0-1.874,1.456-3.234,3.275-3.234s3.275,1.42,3.275,3.234ZM99.739,16.632c0,1.028.758,1.784,1.789,1.784s1.789-.756,1.789-1.784-.758-1.784-1.789-1.784-1.789.756-1.789,1.784Z"/><path class="cls-2" d="M112.388,36.1v1.784c0,.514-.121.575-.667.605-.758.03-1.638.03-2.396,0-.515-.03-.667-.091-.637-.454.03-1.571.091-3.718.091-6.016v-7.407c0-1.632.03-3.264-.061-5.018,0-.302.121-.423.333-.423,1.607.091,3.396.091,5.428.091h7.217c1.971,0,4.276,0,5.701-.06.334,0,.425.151.394.605,0,1.481-.03,3.113-.03,4.897v7.225c0,2.63.091,4.111.151,5.744,0,.423-.151.513-.576.513-.91.031-1.88.031-2.79,0-.364,0-.394-.06-.394-.483v-1.603h-11.765ZM124.154,22.467h-11.796v10.43h11.796v-10.43Z"/><path class="cls-2" d="M142.503,18.93c.151-.907.303-2.087.303-3.356,1.577.332,2.426.545,3.639.998.303.091.485.332.485.605,0,.151-.061.302-.212.453-.303.394-.455.726-.607,1.149-.394,1.24-.697,2.358-1.092,3.628.819-.091,1.729-.121,2.426-.121,2.82,0,4.336,1.965,4.336,5.834,0,3.264-.606,7.286-1.637,9.462-.879,1.935-2.335,2.842-4.094,2.842-1.456,0-2.486-.151-3.153-.454-.364-.151-.546-.393-.546-.847-.091-.967-.152-1.813-.577-2.811,1.365.634,2.548.785,3.488.785,1.001,0,1.456-.362,1.941-1.602.637-1.693,1.182-4.565,1.182-7.527,0-2.116-.394-2.781-1.728-2.781-.728,0-1.668.091-2.548.211-2.001,5.804-3.729,9.977-6.095,14.208-.182.393-.425.453-.789.272-.546-.272-1.729-.998-2.092-1.33-.152-.151-.243-.272-.243-.454,0-.091.03-.211.122-.332,2.425-4.202,4.003-7.407,5.549-11.85-1.183.181-2.153.362-2.972.513-.789.151-1.274.333-1.668.484-.425.151-.788.091-.97-.394-.273-.695-.606-1.783-.94-3.113,1.334,0,2.669-.091,4.003-.211,1.273-.121,2.396-.272,3.578-.453.485-1.723.697-2.781.91-3.809ZM154.512,20.956c.212-.121.364-.06.576.151,2.062,1.935,3.912,4.443,5.034,7.345.122.273.091.424-.121.605-.515.484-1.668,1.209-2.274,1.512-.303.151-.606.121-.697-.243-1.213-3.174-2.79-5.774-4.973-7.829.758-.513,1.637-1.118,2.456-1.541ZM155.33,16.723c.152-.121.273-.091.455.06.94.726,2.032,1.935,2.881,3.235.121.181.121.332-.091.483l-1.274.937c-.212.151-.364.121-.515-.091-.91-1.39-1.88-2.54-3.063-3.507l1.607-1.118ZM158.029,14.758c.182-.121.273-.091.455.06,1.122.847,2.213,2.056,2.881,3.114.121.181.151.362-.091.544l-1.213.937c-.242.181-.394.091-.515-.091-.819-1.3-1.789-2.449-3.032-3.477l1.516-1.088Z"/><path class="cls-2" d="M169.465,31.082c.273.151.303.302.151.545-.455.695-.788,1.692-.788,2.297,0,1.905,1.971,2.842,7.186,2.842,2.941,0,5.731-.332,8.218-.877.425-.091.577,0,.637.272.151.575.424,2.207.485,2.962.03.273-.152.394-.515.454-2.82.513-5.61.726-8.885.726-7.004,0-10.431-2.177-10.431-6.107,0-1.239.455-2.539,1.607-4.322.789.393,1.546.786,2.335,1.209ZM176.318,19.232c2.214,0,4.367-.121,6.307-.272.303-.03.425.091.455.332.121.696.242,1.542.273,2.57,0,.423-.151.604-.515.634-2.88.424-4.973,1.421-7.429,2.993-.242.182-.515.273-.758.273-.213,0-.425-.06-.637-.182-.606-.393-1.243-.725-2.122-.967,1.577-1.028,2.911-1.873,3.972-2.509-.667.091-1.607.091-2.214.091-1.243,0-3.851-.181-5.579-.514-.273-.06-.394-.181-.394-.544,0-.726.061-1.603.121-2.691,2.305.545,5.216.786,8.521.786ZM184.566,15.876c.151-.121.273-.091.455.061.94.725,2.032,1.935,2.881,3.234.121.181.121.332-.091.483l-1.274.937c-.212.151-.364.121-.515-.091-.91-1.39-1.88-2.539-3.063-3.506l1.607-1.119ZM187.265,13.911c.182-.121.273-.091.455.06,1.122.847,2.213,2.056,2.88,3.114.122.181.152.362-.091.544l-1.213.937c-.243.181-.394.091-.515-.091-.819-1.3-1.789-2.448-3.033-3.476l1.517-1.089Z"/><path class="cls-2" d="M199.641,32.08c0,2.902.091,4.535.091,6.046,0,1.663-.242,2.479-.97,2.994-.667.483-1.425.634-3.336.664q-.94.03-1.182-.907c-.182-.847-.455-1.632-.728-2.176.728.091,1.425.091,2.213.091.758,0,.94-.272.94-1.149v-5.955c-.455.151-.879.302-1.304.423-.546.181-.879.363-1.061.514-.151.121-.333.181-.485.181-.182,0-.303-.121-.364-.362-.212-.816-.394-1.874-.515-2.902.879-.122,1.698-.273,2.76-.575l.97-.272v-5.653h-.394c-2.062,0-2.668.06-2.85.06-.303,0-.333-.03-.333-.332v-2.207c0-.302.03-.332.333-.332.182,0,.789.06,2.85.06h.394v-1.603c0-1.935-.03-2.902-.212-4.292,1.122.03,2.032.091,3.093.211.273.03.485.151.485.332,0,.243-.121.424-.212.635-.182.363-.182.998-.182,3.053v1.663c1.789,0,2.396-.06,2.577-.06.303,0,.334.03.334.332v2.207c0,.302-.03.332-.334.332-.182,0-.788-.06-2.577-.06v4.686c.849-.333,1.729-.665,2.608-1.088-.061.604-.091,1.269-.122,1.965,0,.998-.03.937-.91,1.33l-1.577.696v1.451ZM207.222,29.873c-2.881,0-3.912.06-4.094.06-.303,0-.333-.03-.333-.302v-2.056c0-.333.03-.363.333-.363.182,0,1.213.06,4.094.06h8.915c2.911,0,3.912-.06,4.094-.06.333,0,.364.03.364.363v2.056c0,.272-.03.302-.364.302-.182,0-1.183-.06-4.094-.06h-3.275v2.872h2.699c2.122,0,2.881-.06,3.093-.06.303,0,.334.03.334.332v1.965c0,.303-.03.333-.334.333-.212,0-.97-.061-3.093-.061h-2.699v3.175c1.274.211,2.729.272,4.397.302,1.394,0,2.668-.03,4.063-.121-.243.513-.425,1.179-.546,1.935-.122.998-.243,1.028-1.122,1.028h-2.062c-5.671-.091-9.339-1.028-11.705-4.353-.697,1.481-1.607,2.811-2.881,4.111-.273.272-.455.423-.606.423-.213,0-.394-.181-.698-.544-.485-.605-1.061-1.089-1.577-1.391,2.76-2.086,3.791-4.716,4.397-7.315.152-.665.213-1.21.243-1.723.97.211,1.637.362,2.486.604.394.122.576.212.576.454,0,.211-.091.332-.242.513-.122.152-.182.363-.303.786-.151.514-.273,1.028-.425,1.512.789,1.36,1.789,2.297,3.032,2.902v-7.678h-2.668ZM214.287,15.333c2.638,0,3.518-.06,3.7-.06.303,0,.334.03.334.362,0,.181-.061.937-.061,2.751v4.202c0,1.784.061,2.57.061,2.751,0,.303-.03.333-.334.333-.182,0-1.061-.06-3.7-.06h-5.913c-2.668,0-3.548.06-3.729.06-.303,0-.334-.03-.334-.333,0-.211.061-.967.061-2.751v-4.202c0-1.814-.061-2.57-.061-2.751,0-.332.03-.362.334-.362.182,0,1.061.06,3.729.06h5.913ZM207.313,17.66v1.754h7.975v-1.754h-7.975ZM215.287,21.56h-7.975v1.784h7.975v-1.784Z"/><path class="cls-2" d="M244.463,23.827c-.819,1.179-1.759,2.146-2.82,2.962,2.365.634,4.761,1.36,7.308,2.237.152.06.243.121.243.211,0,.06-.061.181-.182.333l-1.213,1.602c-.243.363-.334.363-.637.243-2.729-1.089-5.459-2.117-8.278-2.963-1.001.484-2.062.877-3.245,1.18.97.03,1.82.121,2.76.211.303.03.454.181.454.332,0,.303-.151.545-.182.786-.061.302-.121.665-.121,1.179h7.854c2.699,0,3.639-.06,3.821-.06.334,0,.364.03.364.333v1.965c0,.302-.03.332-.364.332-.182,0-1.122-.06-3.821-.06h-5.731c2.608,1.844,5.701,2.993,10.613,4.081-.485.545-.94,1.239-1.273,2.025-.364.877-.425.847-1.334.605-4.367-1.331-7.611-3.023-10.189-5.563.03,3.053.121,5.229.121,5.834,0,.302-.03.332-.334.332h-2.486c-.303,0-.333-.03-.333-.332,0-.605.121-2.66.151-5.774-2.76,2.509-6.156,4.354-9.886,5.532-.333.091-.546.151-.697.151-.273,0-.394-.181-.667-.696-.364-.695-.758-1.33-1.274-1.844,4.367-1.179,7.642-2.418,10.219-4.353h-5.216c-2.699,0-3.639.06-3.821.06-.333,0-.364-.03-.364-.332v-1.965c0-.303.03-.333.364-.333.182,0,1.122.06,3.821.06h7.46c-.03-.695-.061-1.451-.213-2.418-2.396.604-5.155.967-8.369,1.179-.758.06-.849.03-1.092-.635-.303-.816-.637-1.33-1.001-1.784,4.457-.151,7.611-.513,10.006-1.118-.91-.211-1.88-.423-2.85-.604-.212.211-.424.393-.606.544-.212.211-.273.211-.758.06l-1.729-.544c-.425-.121-.394-.333-.182-.514.515-.453,1.092-1.058,1.607-1.571l.819-.907h-2.638c-2.759,0-3.699.06-3.881.06-.333,0-.364-.03-.364-.303v-1.843c0-.303.031-.333.364-.333.182,0,1.122.06,3.881.06h4.457l.152-.242c.425-.635.788-1.33,1.092-2.056,1.092.151,2.032.332,2.941.544.213.06.364.182.364.394,0,.151-.182.302-.394.423-.182.091-.485.394-.849.937h9.855c2.759,0,3.699-.06,3.881-.06.303,0,.333.03.333.333v1.843c0,.273-.03.303-.333.303-.182,0-1.122-.06-3.881-.06h-1.698ZM227.967,20.381c0,.272-.03.302-.334.302h-2.426c-.333,0-.364-.03-.364-.302,0-.211.061-.423.061-2.297v-.484c0-.483-.061-.756-.061-.937,0-.302.03-.332.364-.332.182,0,1.213.06,4.094.06h6.156c0-.756-.061-1.482-.213-2.176,1.092,0,2.184.06,3.245.151.273.03.455.151.455.302,0,.211-.091.394-.182.605s-.121.574-.121,1.118h6.58c2.85,0,3.881-.06,4.093-.06.303,0,.334.03.334.332,0,.181-.061.454-.061.847v.575c0,1.874.061,2.116.061,2.297,0,.272-.03.302-.334.302h-2.456c-.303,0-.334-.03-.334-.302v-1.572h-18.558v1.572ZM234.608,23.827c-.334.453-.667.877-1.001,1.239,1.637.272,3.244.605,4.821.937,1.061-.605,1.91-1.33,2.699-2.176h-6.519Z"/><path class="cls-2" d="M261.538,33.682h-3.063l-.849-17.987h4.731l-.819,17.987ZM262.114,36.615v4.081h-4.306v-4.081h4.306Z"/><path class="cls-2" d="M284.102,24.16c-.697.514-1.395.967-2.062,1.36,2.699,3.296,3.972,6.984,3.972,10.701,0,4.233-1.031,5.653-4.579,5.653-.516,0-1.031,0-1.577-.06q-.818-.06-.97-.816c-.212-.877-.485-1.632-.879-2.176,1.334.151,2.517.181,3.154.181,1.274,0,1.85-.362,1.85-2.902,0-.544-.03-1.118-.091-1.632-3.578,2.72-7.096,4.564-11.311,6.136-.364.121-.576.211-.728.211-.243,0-.364-.181-.607-.664-.454-.847-.788-1.21-1.425-1.754,5.428-1.572,9.582-3.628,13.463-6.681-.182-.484-.364-.967-.606-1.452-2.941,1.935-6.034,3.326-9.582,4.565-.364.121-.576.211-.728.211-.213,0-.334-.181-.576-.634-.394-.696-.849-1.24-1.334-1.693,4.639-1.028,7.763-2.449,11.038-4.535-.273-.423-.546-.847-.879-1.269-2.092,1.088-4.155,1.905-6.52,2.63-.879.242-.91.211-1.243-.363-.485-.907-.789-1.239-1.395-1.784,4.003-.847,6.944-1.874,9.491-3.234h-1.577c-2.881,0-3.881.06-4.063.06-.334,0-.364-.03-.364-.362v-1.905c0-.333.03-.363.364-.363.182,0,1.182.06,4.063.06h8.612c2.911,0,3.912-.06,4.093-.06.303,0,.334.03.334.363v1.905c0,.332-.03.362-.334.362-.182,0-1.182-.06-4.003-.06.394,1.633.879,3.113,1.486,4.444.576-.545,1.153-1.119,1.88-1.965.515-.575.97-1.27,1.304-1.814.94.634,1.607,1.149,2.213,1.692.334.243.455.424.455.605,0,.242-.212.393-.394.454-.394.151-.698.574-1.334,1.209-.91.877-1.85,1.723-2.729,2.418,1.637,2.509,3.851,4.535,6.823,6.258-.637.634-1.182,1.239-1.637,2.086-.273.483-.394.696-.606.696-.122,0-.303-.152-.637-.363-5.124-3.749-7.914-8.857-9.673-15.719h-.151ZM291.168,16.844c2.789,0,3.79-.06,4.003-.06.303,0,.333.03.333.333,0,.181-.061.695-.061,1.451v1.24c0,2.569.061,3.053.061,3.234,0,.302-.03.332-.333.332h-2.486c-.303,0-.334-.03-.334-.332v-3.567h-19.286v3.567c0,.302-.03.332-.333.332h-2.487c-.303,0-.333-.03-.333-.332,0-.181.061-.665.061-3.234v-.999c0-.998-.061-1.481-.061-1.692,0-.303.03-.333.333-.333.213,0,1.213.06,4.003.06h6.64v-.06c0-.998-.03-1.814-.212-2.569,1.092.03,2.213.091,3.275.181.303.03.455.151.455.272,0,.211-.091.363-.182.605s-.151.634-.151,1.511v.06h7.096Z"/><path class="cls-2" d="M305.09,23.102c4.67-1.572,8.461-2.509,10.917-2.509,5.428,0,8.915,3.265,8.915,8.012,0,3.96-1.729,6.469-5.337,8.403-2.547,1.421-4.912,1.905-7.702,2.509-.606.121-.849.091-1.061-.484-.364-.847-1.122-1.753-2.122-2.388,4.003-.665,6.155-1.239,8.218-2.237,2.577-1.301,4.184-3.235,4.184-6.017,0-2.842-1.85-4.594-5.216-4.594-2.729,0-6.338,1.088-10.946,3.113-.97.483-1.729.816-2.092,1.088-.425.362-.667.453-.819.453-.303,0-.546-.181-.879-.634-.546-.665-1.304-1.844-1.941-3.144,1.334-.152,2.456-.424,5.883-1.572ZM321.556,16.693c.151-.121.273-.091.455.06.94.726,2.032,1.935,2.881,3.235.121.181.121.332-.091.483l-1.274.937c-.212.151-.364.121-.515-.091-.91-1.39-1.88-2.54-3.063-3.507l1.607-1.118ZM324.255,14.728c.182-.121.273-.091.455.06,1.122.847,2.213,2.056,2.881,3.114.121.181.151.362-.091.544l-1.213.937c-.243.181-.394.091-.515-.091-.819-1.3-1.789-2.449-3.032-3.477l1.516-1.088Z"/><path class="cls-2" d="M346.152,17.388c.151.121.243.362.243.484,0,.272-.152.453-.425.574-.364.181-.819.454-1.456,1.058-2.608,2.328-5.944,5.442-8.278,7.86-.273.333-.394.514-.394.665,0,.181.121.332.394.545,3.942,2.842,8.035,6.136,11.28,9.522.121.152.212.273.212.394s-.061.211-.212.362c-.698.756-1.577,1.633-2.092,2.086-.182.152-.303.243-.425.243s-.213-.091-.364-.273c-3.517-3.93-6.914-7.074-11.038-10.217-1.152-.877-1.607-1.542-1.607-2.54s.546-1.663,1.486-2.66c2.577-2.781,5.094-5.29,7.702-8.131.818-.877,1.273-1.512,1.637-2.267,1.334.785,2.486,1.571,3.336,2.297Z"/><path class="cls-2" d="M358.86,16.391c.394.151.576.332.576.605,0,.181-.061.302-.212.483-.213.242-.364.665-.546,1.421-.425,2.056-.667,4.202-.849,5.774-.061,1.088-.151,2.237-.091,3.325.667-1.179,1.304-2.327,2.122-3.869.273.907.576,1.451.94,1.965.151.181.182.332.182.483,0,.243-.121.484-.303.756-.667,1.27-1.365,2.54-1.789,3.869-.091.273-.121.545-.151.907,0,.303-.121.424-.394.484-.364.091-1.668.272-2.426.362-.212.03-.364-.181-.425-.393-.485-1.301-.91-3.628-.91-6.137,0-2.025.334-4.504.728-7.526.121-1.059.242-2.087.242-3.447,1.365.272,2.517.575,3.305.937ZM368.715,15.876c.607.152.667.303.607.816-.061.424-.061.967-.061,1.391.212,2.872.424,5.623.424,7.799,0,4.292-.697,8.011-2.304,10.49-1.183,1.874-3.093,3.657-5.004,4.867-.212.151-.425.211-.606.211-.212,0-.394-.091-.637-.332-.667-.575-1.607-1.119-2.578-1.391,2.456-1.36,3.942-2.448,5.155-4.051,1.759-2.389,2.547-4.867,2.547-9.643,0-2.146-.151-5.291-.364-7.225-.152-1.481-.303-2.237-.637-3.295,1.334.06,2.578.121,3.457.362Z"/><path class="cls-2" d="M390.704,21.107c-.697,5.139-1.971,9.855-3.791,13.029-1.304,2.268-2.88,3.477-5.155,3.477-2.669,0-5.367-2.842-5.367-7.769,0-2.902,1.243-5.683,3.427-7.86,2.547-2.54,5.762-3.869,9.855-3.869,7.278,0,11.553,4.473,11.553,10.49,0,5.622-3.184,9.159-9.339,11.003-.637.181-.91.06-1.304-.545-.334-.513-.97-1.209-2.122-1.905,5.124-1.209,9.158-3.325,9.158-9.038,0-3.598-2.729-7.013-6.792-7.013h-.122ZM382.001,24.039c-1.456,1.633-2.365,3.658-2.365,5.593,0,2.781,1.122,4.322,2.062,4.322.788,0,1.456-.393,2.274-1.844,1.334-2.448,2.699-6.802,3.214-10.822-2.122.423-3.821,1.269-5.185,2.751Z"/><path class="cls-2" d="M412.935,16.391c-.03-.786-.061-1.421-.182-2.116,1.031.03,2.153.091,3.002.181.273.03.455.151.455.332,0,.121-.061.243-.182.454-.121.211-.151.544-.151,1.149h5.822c-.03-.756-.061-1.39-.182-2.086,1.001.03,2.183.091,3.032.181.242.03.425.121.425.332,0,.091-.061.212-.182.424-.121.211-.151.544-.151,1.149h3.548c2.729,0,3.639-.06,3.821-.06.303,0,.334.03.334.332v1.965c0,.303-.03.333-.334.333-.182,0-1.092-.06-3.821-.06h-3.548c.03.634.061.967.061,1.088,0,.302-.03.332-.364.332h-2.365c-.303,0-.334-.03-.334-.332,0-.121.03-.454.03-1.088h-5.792c.03.634.061.967.061,1.088,0,.302-.03.332-.364.332h-2.335c-.334,0-.364-.03-.364-.332,0-.121.03-.484.03-1.088h-3.305c-2.699,0-3.639.06-3.821.06-.303,0-.333-.03-.333-.333v-1.965c0-.302.03-.332.333-.332.182,0,1.122.06,3.821.06h3.336ZM427.369,27.908c2.82,0,3.821-.06,4.003-.06.303,0,.334.03.334.332,0,.211-.061.635-.061,1.239v.907c0,2.238.061,2.6.061,2.781,0,.303-.03.333-.334.333h-2.396c-.303,0-.334-.03-.334-.333v-2.781h-9.734c-.394.484-.788.967-1.213,1.391h6.034c.303,0,.515-.03.698-.091.182-.06.303-.091.455-.091.273,0,.485.06,1.364.877.789.755.91.937.91,1.179,0,.181-.091.362-.364.483-.303.151-.516.333-1.001.816-3.912,3.93-8.066,6.136-15.526,7.286-.879.151-.879.121-1.243-.635-.334-.696-.849-1.421-1.304-1.874,3.305-.362,6.035-.907,8.309-1.693-.818-.664-1.758-1.33-2.304-1.662-.152-.092-.213-.182-.213-.243,0-.091.091-.181.303-.302l1.456-.907c.333-.211.394-.211.667-.06.789.484,1.941,1.269,2.82,1.965,1.456-.756,2.729-1.633,3.851-2.691h-7.52c-1.456,1.088-3.093,2.025-5.034,2.872-.334.151-.576.242-.758.242-.243,0-.394-.151-.667-.544-.425-.635-.91-1.088-1.456-1.512,3.245-1.058,6.035-2.569,8.218-4.807h-6.338v2.66c0,.332-.03.363-.334.363h-2.335c-.334,0-.364-.031-.364-.363,0-.181.061-.513.061-2.691v-.695c0-.786-.061-1.21-.061-1.421,0-.302.03-.332.364-.332.182,0,1.182.06,4.003.06h16.981ZM424.913,20.895c2.941,0,4.003-.06,4.215-.06.273,0,.303.03.303.332,0,.181-.03.635-.03,1.814v1.754c0,1.179.03,1.632.03,1.813,0,.273-.03.303-.303.303-.212,0-1.273-.06-4.215-.06h-12.008c-2.972,0-4.033.06-4.215.06-.303,0-.303-.03-.303-.303,0-.211.03-.634.03-1.813v-1.754c0-1.179-.03-1.633-.03-1.814,0-.302,0-.332.303-.332.182,0,1.243.06,4.215.06h12.008ZM414.542,24.855v-1.995h-3.123v1.995h3.123ZM420.424,24.855v-1.995h-3.153v1.995h3.153ZM426.368,22.86h-3.214v1.995h3.214v-1.995Z"/><path class="cls-2" d="M444.536,18.93c.151-.907.303-2.087.303-3.356,1.577.332,2.426.545,3.639.998.303.091.485.332.485.605,0,.151-.061.302-.212.453-.303.394-.455.726-.607,1.149-.394,1.24-.697,2.358-1.092,3.628.819-.091,1.729-.121,2.426-.121,2.82,0,4.336,1.965,4.336,5.834,0,3.264-.606,7.286-1.637,9.462-.879,1.935-2.335,2.842-4.094,2.842-1.456,0-2.486-.151-3.153-.454-.364-.151-.546-.393-.546-.847-.091-.967-.152-1.813-.577-2.811,1.365.634,2.548.785,3.488.785,1.001,0,1.456-.362,1.941-1.602.637-1.693,1.182-4.565,1.182-7.527,0-2.116-.394-2.781-1.728-2.781-.728,0-1.668.091-2.548.211-2.001,5.804-3.729,9.977-6.095,14.208-.182.393-.425.453-.789.272-.546-.272-1.729-.998-2.092-1.33-.152-.151-.243-.272-.243-.454,0-.091.03-.211.122-.332,2.425-4.202,4.003-7.407,5.549-11.85-1.183.181-2.153.362-2.972.513-.789.151-1.274.333-1.668.484-.425.151-.788.091-.97-.394-.273-.695-.606-1.783-.94-3.113,1.334,0,2.669-.091,4.003-.211,1.273-.121,2.396-.272,3.578-.453.485-1.723.697-2.781.91-3.809ZM456.544,20.956c.212-.121.364-.06.576.151,2.062,1.935,3.912,4.443,5.034,7.345.122.273.091.424-.121.605-.515.484-1.668,1.209-2.274,1.512-.303.151-.606.121-.697-.243-1.213-3.174-2.79-5.774-4.973-7.829.758-.513,1.637-1.118,2.456-1.541ZM457.363,16.723c.152-.121.273-.091.455.06.94.726,2.032,1.935,2.881,3.235.121.181.121.332-.091.483l-1.274.937c-.212.151-.364.121-.515-.091-.91-1.39-1.88-2.54-3.063-3.507l1.607-1.118ZM460.062,14.758c.182-.121.273-.091.455.06,1.122.847,2.213,2.056,2.881,3.114.121.181.151.362-.091.544l-1.213.937c-.242.181-.394.091-.515-.091-.819-1.3-1.789-2.449-3.032-3.477l1.516-1.088Z"/><path class="cls-2" d="M474.438,34.226c0,2.781,1.213,3.869,4.033,3.869,3.548,0,5.519-1.36,5.519-4.081,0-1.693-.425-3.083-2.729-5.502,1.213.152,1.88,0,3.093-.181.212-.06.455-.03.637.121,1.668,1.572,2.577,3.628,2.577,5.683,0,4.293-3.517,7.074-8.733,7.074-5.367,0-7.641-2.419-7.641-6.832,0-.635.091-1.482.212-2.842-1.82-.273-3.032-.545-4.124-.907-.213-.06-.303-.212-.334-.575-.091-.937-.121-1.874-.061-2.811,1.82.665,3.184.998,4.912,1.179.151-1.118.394-3.083.515-4.322-2.122-.272-3.214-.454-4.367-.847-.364-.091-.485-.242-.485-.513-.03-.726-.091-1.723-.091-2.811,2.062.664,3.517.937,5.488,1.149.243-1.754.334-2.57.394-3.477.061-.847.061-1.723-.03-2.539,1.395.181,2.972.574,3.639.846.425.152.667.424.667.696,0,.211-.091.394-.243.575-.212.211-.364.604-.546,1.3-.151.696-.334,1.723-.485,2.842,1.213.091,2.456,0,3.73-.181.212,0,.303.151.303.362.031.726.031,1.572-.061,2.268,0,.332-.121.423-.485.453-1.334.151-2.699.181-4.033.151-.182,1.058-.485,3.113-.667,4.323,1.607.03,2.85,0,4.306-.091.394-.06.485.06.485.332,0,.545-.061,1.633-.151,2.267-.03.363-.121.484-.425.484-1.516.121-3.093.121-4.639.091-.152,1.179-.182,1.905-.182,2.448Z"/><path class="cls-2" d="M496.062,26.699c3.73-1.24,6.671-1.844,8.854-1.844,4.125,0,6.914,2.691,6.914,6.469,0,3.084-1.455,5.23-4.336,6.772-1.577.877-3.7,1.723-6.277,1.995-.545.092-.788-.03-1.001-.423-.333-.605-.878-1.269-1.849-1.995,3.547-.545,5.215-1.058,7.307-2.086,1.729-.907,2.729-2.328,2.729-4.505,0-2.146-1.334-3.325-3.76-3.325-2.092,0-5.276,1.028-8.582,2.358-.758.332-1.364.696-1.698.937-.242.211-.424.302-.606.302-.273,0-.486-.181-.789-.544-.698-.877-1.152-1.935-1.637-2.932,1.516-.242,3.001-.635,4.73-1.179Z"/><path class="cls-2" d="M525.268,16.028c.364.091.545.242.545.483,0,.424-.212.847-.212,1.269,0,.605.091,1.331.151,2.026.273,2.116.577,3.627.97,5.199,1.517-.816,2.608-1.391,4.306-2.298.879-.513,1.606-1.028,2.092-1.632.97.998,1.759,2.056,2.213,2.842.121.181.212.423.212.634,0,.303-.182.545-.606.605-.91.151-1.941.514-2.911.907-2.608,1.058-5.034,2.176-7.127,3.537-2.637,1.722-3.577,3.144-3.577,4.564,0,1.784,1.334,2.54,4.821,2.54,3.821,0,6.914-.272,9.248-.696.333-.06.486,0,.546.363.151.815.242,1.905.303,2.811.03.332-.182.483-.546.513-2.759.362-5.185.454-9.036.454-5.731,0-8.763-1.874-8.763-5.804,0-3.356,2.213-5.563,5.762-7.8-.728-2.327-1.273-5.048-1.577-7.376-.212-1.603-.424-2.66-.788-3.507,1.455,0,2.85.091,3.972.363Z"/><path class="cls-2" d="M546.194,24.643c0,3.567-.274,6.772-.849,9.705-.486,2.539-1.213,4.564-2.426,6.68-.212.394-.333.575-.485.575s-.304-.151-.607-.483c-.636-.696-1.485-1.361-2.032-1.693,1.273-1.935,1.971-3.779,2.487-6.319.515-2.418.697-5.593.697-9.038,0-3.779-.061-5.502-.061-5.683,0-.302.03-.332.334-.332.182,0,1.243.06,4.124.06h6.034v-1.301c0-.937-.03-1.722-.182-2.448,1.152.03,2.153.091,3.214.181.304.03.486.121.486.302,0,.212-.061.363-.182.575-.122.211-.213.635-.213,1.3v1.391h6.156c2.881,0,3.881-.06,4.063-.06.273,0,.303.03.303.332v2.297c0,.333-.03.363-.303.363-.182,0-1.182-.06-4.063-.06h-16.496v3.657ZM560.264,29.541c.395-.182.455-.212.637.06,2.213,3.174,4.305,6.862,5.822,10.096.121.302.091.423-.273.605l-2.245,1.179c-.364.181-.515.091-.636-.211-.395-.907-.789-1.814-1.214-2.721-3.912.696-9.157,1.481-14.13,2.025-.486.06-.879.181-1.122.332-.183.121-.364.182-.486.182-.212,0-.333-.122-.454-.454-.243-.847-.486-1.935-.728-3.144,1.092.03,2.092.03,3.456-.06,1.729-4.354,2.79-7.86,3.791-11.972.213-.847.334-1.722.395-2.811,1.182.243,2.456.605,3.365.907.425.122.516.273.516.514,0,.211-.091.393-.274.605-.273.332-.515.755-.757,1.692-1.031,3.718-2.123,7.074-3.609,10.732,2.972-.332,6.004-.725,8.703-1.209-.879-1.663-1.88-3.264-2.972-4.867-.151-.242-.121-.362.242-.544l1.971-.937Z"/><path class="cls-2" d="M579.584,18.93c.151-.907.303-2.087.303-3.356,1.577.332,2.426.545,3.639.998.303.091.486.332.486.605,0,.151-.062.302-.213.453-.303.394-.454.726-.606,1.149-.395,1.24-.698,2.358-1.092,3.628.818-.091,1.728-.121,2.425-.121,2.82,0,4.337,1.965,4.337,5.834,0,3.264-.607,7.286-1.638,9.462-.879,1.935-2.335,2.842-4.093,2.842-1.456,0-2.487-.151-3.154-.454-.364-.151-.545-.393-.545-.847-.091-.967-.151-1.813-.577-2.811,1.365.634,2.548.785,3.488.785,1.001,0,1.455-.362,1.941-1.602.636-1.693,1.182-4.565,1.182-7.527,0-2.116-.394-2.781-1.729-2.781-.727,0-1.667.091-2.547.211-2.001,5.804-3.73,9.977-6.096,14.208-.182.393-.424.453-.788.272-.546-.272-1.729-.998-2.093-1.33-.151-.151-.242-.272-.242-.454,0-.091.03-.211.121-.332,2.426-4.202,4.003-7.407,5.549-11.85-1.182.181-2.153.362-2.972.513-.789.151-1.273.333-1.668.484-.424.151-.789.091-.97-.394-.273-.695-.606-1.783-.94-3.113,1.335,0,2.669-.091,4.003-.211,1.274-.121,2.396-.272,3.578-.453.486-1.723.698-2.781.91-3.809ZM591.592,20.956c.213-.121.364-.06.577.151,2.062,1.935,3.912,4.443,5.034,7.345.121.273.091.424-.121.605-.516.484-1.668,1.209-2.274,1.512-.304.151-.607.121-.698-.243-1.213-3.174-2.79-5.774-4.973-7.829.758-.513,1.638-1.118,2.456-1.541ZM592.411,16.723c.151-.121.273-.091.455.06.94.726,2.032,1.935,2.881,3.235.121.181.121.332-.091.483l-1.274.937c-.212.151-.364.121-.515-.091-.91-1.39-1.88-2.54-3.063-3.507l1.606-1.118ZM595.11,14.758c.182-.121.273-.091.454.06,1.123.847,2.214,2.056,2.881,3.114.122.181.152.362-.091.544l-1.213.937c-.242.181-.394.091-.515-.091-.819-1.3-1.789-2.449-3.033-3.477l1.517-1.088Z"/><path class="cls-2" d="M607.938,16.391c.394.151.577.332.577.605,0,.181-.061.302-.213.483-.212.242-.364.665-.545,1.421-.425,2.056-.667,4.202-.849,5.774-.061,1.088-.151,2.237-.091,3.325.667-1.179,1.304-2.327,2.122-3.869.273.907.577,1.451.94,1.965.151.181.182.332.182.483,0,.243-.121.484-.303.756-.667,1.27-1.365,2.54-1.789,3.869-.091.273-.121.545-.151.907,0,.303-.121.424-.394.484-.364.091-1.668.272-2.426.362-.212.03-.364-.181-.424-.393-.486-1.301-.91-3.628-.91-6.137,0-2.025.333-4.504.727-7.526.121-1.059.243-2.087.243-3.447,1.364.272,2.516.575,3.305.937ZM617.793,15.876c.607.152.667.303.607.816-.061.424-.061.967-.061,1.391.212,2.872.424,5.623.424,7.799,0,4.292-.698,8.011-2.304,10.49-1.182,1.874-3.093,3.657-5.003,4.867-.213.151-.425.211-.607.211-.212,0-.394-.091-.637-.332-.666-.575-1.606-1.119-2.577-1.391,2.456-1.36,3.942-2.448,5.155-4.051,1.759-2.389,2.548-4.867,2.548-9.643,0-2.146-.151-5.291-.364-7.225-.151-1.481-.303-2.237-.636-3.295,1.334.06,2.577.121,3.456.362Z"/><path class="cls-2" d="M634.534,29.389c-2.092.06-4.154.06-6.246-.121-.334,0-.455-.121-.486-.513-.121-.665-.182-1.874-.182-2.57,2.244.272,4.549.332,6.823.242-.03-1.149-.03-2.327-.061-3.476-2.911.091-5.094.091-7.247-.151-.334,0-.486-.122-.516-.424-.091-.756-.151-1.481-.212-2.721,2.638.303,5.276.303,7.945.303,0-1.119-.03-1.905-.061-2.932-.061-.696-.121-1.24-.364-2.025,1.606.091,2.911.272,3.821.544.364.121.545.545.333.907-.212.423-.425.937-.455,1.452-.03.604-.03,1.028-.061,1.935,2.82-.212,4.852-.545,6.641-.907.364-.092.486,0,.516.362.121.847.151,1.663.151,2.207,0,.394-.091.454-.334.484-2.153.362-4.093.604-7.004.786,0,1.209.03,2.327.03,3.415,2.305-.151,3.76-.453,5.943-.786.364-.091.455-.03.486.243.03.574.091,1.571.091,2.478,0,.302-.121.393-.454.424-2.001.332-3.397.544-5.944.725.062,1.391.122,2.872.213,4.263,2.911.816,5.397,1.905,8.035,3.657.303.273.303.363.212.726-.212.575-.849,1.693-1.334,2.238-.121.181-.242.242-.395.242-.091,0-.212-.03-.333-.151-1.85-1.452-3.73-2.509-6.034-3.447-.03,3.264-2.001,4.595-6.156,4.595-3.942,0-6.186-1.723-6.186-4.233,0-2.448,2.396-4.292,6.064-4.292.758,0,1.486,0,2.911.121-.061-1.33-.121-2.57-.151-3.598ZM631.927,35.496c-2.214,0-3.276.634-3.276,1.602,0,.786.91,1.361,3.002,1.361,1.213,0,2.335-.363,2.76-.907.242-.332.333-.847.333-1.693-.878-.211-1.971-.362-2.819-.362Z"/><path class="cls-2" d="M663.285,17.328c-.061-.877-.121-1.3-.364-2.207,1.364.091,2.82.272,3.548.423.515.091.849.302.849.575,0,.242-.091.393-.274.695-.091.182-.182.484-.242.877-.03.394-.03.786-.061,1.935,3.275-.121,6.399-.151,9.31-.151.364,0,.424.06.454.454.03.755.03,1.541,0,2.297,0,.332-.151.423-.515.393-3.154-.091-6.096-.091-9.249-.06,0,1.844,0,3.779.03,5.623.303.816.455,1.995.455,2.993,0,3.507-1.426,7.165-5.398,9.764-.516.333-.91.575-1.182.575s-.607-.211-.91-.454c-.698-.574-1.517-.967-2.305-1.209,3.548-1.571,5.671-4.111,6.217-6.651-.607.877-1.85,1.21-2.85,1.21-2.396,0-4.215-1.723-4.215-4.625,0-2.811,2.122-4.535,4.578-4.535.91,0,1.82.181,2.305.605,0-1.058-.03-2.086-.03-3.083-3.821.211-8.097.574-10.492.907-.667.091-1.152.362-1.426.362-.303,0-.424-.121-.515-.424-.242-.604-.516-1.813-.758-3.053,1.122.121,2.092,0,3.7-.121,1.85-.151,5.762-.393,9.401-.604-.03-.937-.03-1.693-.062-2.509ZM659.404,29.571c0,1.33.849,2.056,1.941,2.056,1.123,0,2.063-.696,2.063-2.086,0-1.24-.789-1.935-2.001-1.935-.94,0-2.002.634-2.002,1.965Z"/><path class="cls-2" d="M684.666,38.277c0,2.418-1.971,4.353-4.396,4.353s-4.397-1.935-4.397-4.353,1.971-4.354,4.397-4.354,4.396,1.935,4.396,4.354ZM677.752,38.277c0,1.42,1.092,2.509,2.517,2.509s2.516-1.088,2.516-2.509-1.092-2.509-2.516-2.509-2.517,1.088-2.517,2.509Z"/></svg>