<?xml version="1.0" encoding="UTF-8"?><svg id="_文字" xmlns="http://www.w3.org/2000/svg" viewBox="0 0 245.19 14.72"><defs><style>.cls-1{fill:#fff;}</style></defs><path class="cls-1" d="M5.46,6.99c-.02.5-.05,1.07-.1,1.66,1.2-.45,2.42-.87,3.81-.87,1.79,0,2.92.92,2.92,2.36,0,1.57-1.12,2.57-2.84,2.57-1.57,0-2.7-1-2.91-2.34-.06-.45.29-.57.52-.18.55.94,1.2,1.45,2.23,1.45,1.23,0,1.79-.71,1.79-1.62s-.82-1.49-1.86-1.49c-1.45,0-2.44.39-3.76.94-.13,1.05-.34,2.07-.63,2.75-.37.87-.76,1.33-1.28,1.33-.24,0-.6-.16-1-.5-.32-.27-.69-.58-1.16-1.02-.71-.66-.53-1.07.31-1.55.84-.48,2.02-1.07,3.01-1.49.08-.61.13-1.21.15-1.75,0-.31.02-.71.02-1.18-.71.15-1.41.24-1.94.24-.99,0-1.26-.05-1.68-.29-.61-.36-1.05-1.18-1.05-1.75,0-.37.23-.5.55-.18.65.65,1.13,1.13,2.1,1.18.44.03,1.42-.1,2-.18-.03-.82-.13-1.66-.34-2.28-.16-.47-.31-.52-.78-.74-.21-.1-.39-.21-.39-.36,0-.23.45-.58.78-.58.26,0,.55.02.92.15.32.11.45.21.53.71.08.52.13,1.13.13,1.81.15.6.44.63.79.6.36-.03.73-.13,1.07-.13.29,0,.57.13.57.44,0,.19-.08.44-.45.6-.32.15-1.1.37-1.99.58l-.03,1.1ZM4.33,9.9c-1.02.5-1.99,1.11-2.31,1.37-.18.15-.21.23,0,.44.18.18.44.31.61.37.36.13.63.11.81-.11.4-.49.69-1.24.89-2.07ZM13.59,6.25c-.16.57-.69.6-1.08.31-.78-.58-1.36-1-2.89-.94-.36.02-.44-.34-.1-.5,1.16-.55,2.62-.52,3.54.11.42.29.65.61.53,1.02Z"/><path class="cls-1" d="M22.01,3.03c-.84,1.34-2.02,2.76-3.65,3.85-.39.28-.71-.08-.39-.4,1.94-1.96,3.26-4.04,3.86-6.27.03-.18.13-.23.31-.19.57.1,1.66.5,1.68.84,0,.26-.34.36-.81.32-.18.37-.37.78-.61,1.21h6.82c.37-.53.84-1.16,1.1-1.16.34,0,1.57,1,1.57,1.42,0,.23-.31.39-.94.39h-8.94ZM26.66,12.82c.18.52,0,.81-.4.95-.32.1-.58-.03-1.05-.61-.47-.61-.97-1.13-1.45-1.58-1.37,1.31-3.05,2.36-5.28,3.12-.44.13-.63-.36-.19-.55,1.76-.87,3.39-1.88,4.7-3.25-.74-.6-1.58-1.16-2.39-1.67-.37-.23-.19-.68.23-.55,1.07.34,2.05.81,2.91,1.34.45-.6.86-1.26,1.18-2,.08-.16.18-.21.32-.16.57.18,1.44.66,1.41.99-.02.26-.36.34-.82.24-.37.55-.76,1.07-1.18,1.57,1.12.82,1.86,1.67,2.04,2.17ZM28.08,6.67c.26-.34.58-.69.79-.69.37,0,1.31.84,1.31,1.21,0,.24-.36.47-.84.61-.21,3.86,1.28,5.12,2,5.15.16,0,.27-.06.37-.21.13-.18.26-.48.37-.71.18-.34.52-.26.48.11-.02.32-.11.79-.1,1.15.02.21.23.53.24.86,0,.27-.24.42-.58.42-1.6,0-4.17-1.45-3.88-7.26h-8.4c-.21,0-.36-.06-.36-.32,0-.24.15-.32.36-.32h8.22ZM27.42,4.48c.36-.48.81-1.05,1.05-1.05.32,0,1.52.94,1.52,1.33,0,.23-.32.37-.92.37h-6.93c-.21,0-.36-.06-.36-.32,0-.24.15-.32.36-.32h5.28Z"/><path class="cls-1" d="M40.65,11.97c0,1.03.02,1.89.02,2.13,0,.37-.21.58-.71.58-.31,0-.47-.18-.47-.49,0-.27.02-1.16.05-2.23h-2.71c-.21,0-.36-.06-.36-.32,0-.24.15-.32.36-.32h2.73l.05-1.78h-1.21v.45c0,.34-.24.5-.7.5-.27,0-.42-.16-.42-.44.02-1.16.11-4.54-.05-6.09-.02-.13.1-.23.23-.19.27.03.92.28,1.24.53h.94c0-.45-.02-.9-.02-1.36h-2.68c-.21,0-.36-.07-.36-.32,0-.24.15-.32.36-.32h2.65c-.03-.79-.06-1.5-.15-1.96-.03-.14.06-.23.21-.23.97,0,1.81.1,1.81.48,0,.26-.32.42-.81.52,0,.26-.02.68-.02,1.18h1c.29-.44.63-.89.82-.89.29,0,1.16.89,1.16,1.21,0,.23-.27.32-.66.32h-2.34v1.36h1.03c.21-.29.47-.6.63-.6.28,0,1.12.63,1.12.95,0,.19-.19.32-.42.42-.03,1.05.02,4.02.02,4.59,0,.5-.24.63-.65.63-.37,0-.47-.29-.47-.55v-.21h-1.26l.02,1.78h1.57c.29-.42.63-.87.82-.87.27,0,1.16.87,1.16,1.2.02.23-.26.32-.66.32h-2.88ZM39.63,6.57c0-.44.02-1,0-1.62h-1.23c-.02.36-.03,1.07-.03,1.62h1.26ZM39.62,8.9c0-.65.02-1.18.02-1.47v-.21h-1.26v.05l.02,1.63h1.23ZM40.62,4.95l-.02,1.62h1.31v-1.62h-1.29ZM41.88,8.9l.02-1.68h-1.29l.02,1.68h1.26ZM49.41,13.31c.31-.44.69-.94.9-.94.29,0,1.36.89,1.37,1.24,0,.23-.26.34-.82.34h-8.58c-.21,0-.36-.07-.36-.32,0-.24.15-.32.36-.32h4.1c.02-.87.02-1.97,0-3.01h-2.63c-.21,0-.36-.06-.36-.32,0-.24.15-.32.36-.32h2.62c-.02-.97-.05-1.83-.11-2.29-.02-.15.08-.23.23-.23.27,0,1.83.05,1.83.47,0,.34-.34.47-.84.58v1.47h1.21c.31-.44.7-.94.91-.94.29,0,1.36.89,1.36,1.24,0,.23-.26.34-.81.34h-2.67v3.01h1.94ZM48.92,1.38c.28-.31.66-.66.79-.66.31,0,1.21.78,1.21,1.12,0,.21-.37.37-.79.47-.52,1.15-1.15,2.13-1.94,2.94.97.61,2.1,1.03,3.36,1.24.37.08.47.39-.05.55-.28.08-.4.31-.58.52-.13.16-.34.18-.61.08-1.03-.32-2.05-.91-2.92-1.65-1.05.86-2.34,1.49-3.93,1.88-.45.11-.61-.39-.18-.55,1.44-.53,2.55-1.16,3.44-1.94-.95-.97-1.66-2.13-1.96-3.35h-1.02c-.21,0-.36-.06-.36-.32,0-.24.15-.32.36-.32h5.17ZM45.42,2.03c.42,1.02,1.1,1.92,1.99,2.65.66-.74,1.16-1.62,1.58-2.65h-3.57Z"/><path class="cls-1" d="M58.26,10.42c0,1.16.42,1.62.42,2.18,0,.42-.19.65-.66.65-.65,0-1.1-1.34-1.1-2.5,0-2.88,1.26-5.06,1.26-6.66,0-.79-.32-1.16-.71-1.89-.16-.31.02-.5.39-.36.68.27,1.24.78,1.47,1.36.18.47.26.79.02,1.47-.42,1.16-.87,1.89-1.03,2.67-.06.32.05.42.31.13.49-.55,1.12-1.28,2.2-1.99,1.32-.87,2.75-1.31,4.12-1.31s2.1.52,2.1.9c0,.31-.16.45-.6.71-.58.36-1.44.86-2.04,1.21-.37.23-.66-.1-.37-.39.28-.27.61-.6.84-.86.31-.37.23-.55-.4-.57-.74-.02-2.08.27-3.3,1-1.81,1.08-2.91,2.76-2.91,4.23ZM65.32,11.09c.81,0,1.49-.06,1.97-.06.37,0,.81.08.81.53,0,.65-1.07.82-2.46.82-2.33,0-4.23-1.21-4.62-3.36-.08-.45.42-.52.57-.21.52,1.1,1.42,2.28,3.73,2.28Z"/><path class="cls-1" d="M78.57,6.99c-.02.5-.05,1.07-.1,1.66,1.2-.45,2.42-.87,3.81-.87,1.79,0,2.92.92,2.92,2.36,0,1.57-1.12,2.57-2.84,2.57-1.57,0-2.7-1-2.91-2.34-.06-.45.29-.57.52-.18.55.94,1.2,1.45,2.23,1.45,1.23,0,1.79-.71,1.79-1.62s-.82-1.49-1.86-1.49c-1.45,0-2.44.39-3.76.94-.13,1.05-.34,2.07-.63,2.75-.37.87-.76,1.33-1.28,1.33-.24,0-.6-.16-1-.5-.32-.27-.69-.58-1.16-1.02-.71-.66-.53-1.07.31-1.55.84-.48,2.02-1.07,3.01-1.49.08-.61.13-1.21.15-1.75,0-.31.02-.71.02-1.18-.71.15-1.41.24-1.94.24-.99,0-1.26-.05-1.68-.29-.61-.36-1.05-1.18-1.05-1.75,0-.37.23-.5.55-.18.65.65,1.13,1.13,2.1,1.18.44.03,1.42-.1,2-.18-.03-.82-.13-1.66-.34-2.28-.16-.47-.31-.52-.78-.74-.21-.1-.39-.21-.39-.36,0-.23.45-.58.78-.58.26,0,.55.02.92.15.32.11.45.21.53.71.08.52.13,1.13.13,1.81.15.6.44.63.79.6.36-.03.73-.13,1.07-.13.29,0,.57.13.57.44,0,.19-.08.44-.45.6-.32.15-1.1.37-1.99.58l-.03,1.1ZM77.44,9.9c-1.02.5-1.99,1.11-2.31,1.37-.18.15-.21.23,0,.44.18.18.44.31.61.37.36.13.63.11.81-.11.4-.49.69-1.24.89-2.07ZM86.7,6.25c-.16.57-.69.6-1.08.31-.78-.58-1.36-1-2.89-.94-.36.02-.44-.34-.1-.5,1.16-.55,2.62-.52,3.54.11.42.29.65.61.53,1.02Z"/><path class="cls-1" d="M92.83,7.28c0,.58.03,6.14.03,6.8,0,.37-.23.58-.74.58-.32,0-.45-.18-.45-.48,0-2.04.21-11.12-.06-13.57-.02-.1.08-.23.23-.23.21.02,1.2.34,1.58.68h2.57c.23-.31.5-.65.68-.65.31,0,1.23.69,1.23,1.05,0,.21-.28.36-.55.45-.02,1.07.02,3.51.02,4.06,0,.5-.24.61-.66.61-.39,0-.48-.29-.48-.55v-.18h-3.38v1.42ZM96.21,5.21l.02-1.49h-3.38c0,.48,0,1-.02,1.49h3.38ZM92.91,1.72c-.02.31-.03.79-.05,1.36h3.38v-1.37h-3.23l-.1.02ZM99.68,7.99c.23-.31.53-.65.71-.65.32,0,1.28.71,1.28,1.07,0,.21-.28.36-.57.47-.02.95.02,2.75.02,3.23s-.26.63-.7.63c-.39,0-.5-.29-.5-.55v-.47h-3.28v.71c0,.36-.24.5-.71.5-.29,0-.44-.15-.44-.44,0-1,.08-3.47-.07-4.86-.02-.13.1-.23.23-.21.27.03.97.29,1.36.57h2.67ZM99.94,11.08c0-.82.02-1.88.02-2.44h-3.22l-.08.02c-.02.36-.02,1.42-.02,1.73v.7h3.3ZM103.66,1.06c.26-.32.63-.71.74-.71.39,0,1.45.89,1.45,1.2,0,.21-.31.37-.65.5-.1,2.78-.06,7.48-.08,11.12,0,1.07-.86,1.47-1.47,1.47s-.26-.7-1.26-1c-.34-.11-.27-.52.03-.52.13,0,.68.06.99.06.39,0,.55-.15.58-.65.06-1.13.03-3.51.03-5.17v-1.5h-3.52v.24c0,.34-.24.5-.73.5-.28,0-.42-.16-.42-.44,0-1.08.1-4.04-.06-5.51-.02-.13.1-.23.23-.21.29.03,1.05.32,1.41.61h2.73ZM100.53,1.71c-.02.29-.02.89-.03,1.37h3.54v-1.37h-3.51ZM104.03,5.21v-1.49h-3.54l.02,1.49h3.52Z"/><path class="cls-1" d="M123.06,9.4c0,.65-.31,1.05-.81,1.05-.57,0-.58-1.03-.76-1.89-.27-1.31-.95-2.42-1.89-2.42-1.2,0-2.5,3.1-3.44,4.8-.58,1.05-.84,1.41-1.55,1.41-1.36,0-2.76-1.65-2.76-3.51,0-1.29.18-1.79.18-2.52,0-.86-.23-1.11-.97-1.97-.23-.26-.05-.49.29-.42,1.05.19,2.05,1.16,2.05,1.94,0,.82-.58,1.81-.58,2.88,0,1.49,1,2.18,1.65,2.18.45,0,.92-.76,1.41-1.5,1.52-2.33,2.5-4.07,3.83-4.07.81,0,1.45.36,2,.94.81.84,1.36,2.07,1.36,3.12Z"/><path class="cls-1" d="M142.63,6.02c-.4.16-.53.29-.68.49-.21.32-.34.42-.76.29-2.1-.7-4.35-2.5-5.72-5.22-1.52,2.44-4.07,4.85-7.24,6.4-.4.19-.66-.28-.27-.52,2.94-1.94,5.17-4.14,6.61-7.19.08-.16.18-.21.37-.18.61.11,1.42.42,1.42.69,0,.15-.13.21-.48.24,1.5,2.46,4.04,3.93,6.67,4.48.52.1.4.39.08.52ZM137.89,8.91c.26-.34.58-.71.78-.71.34,0,1.34.73,1.34,1.08,0,.21-.27.35-.57.48-.05,1.21,0,3.52.02,4.14,0,.5-.29.61-.76.61-.39,0-.52-.29-.52-.55v-.55h-5.88v.74c0,.36-.27.52-.76.52-.29,0-.45-.16-.45-.45,0-1.1.1-4.22-.06-5.7-.02-.13.1-.23.23-.21.27.02,1.07.31,1.45.6h5.19ZM132.25,6.91c-.21,0-.36-.07-.36-.32,0-.24.15-.32.36-.32h3.83c.34-.52.78-1.12,1.03-1.12.32,0,1.44.99,1.44,1.39,0,.23-.34.37-.84.37h-5.46ZM138.2,12.77c0-1.05.02-2.49.02-3.22h-5.82l-.08.02c-.03.44-.03,1.76-.03,2.08v1.12h5.91Z"/><path class="cls-1" d="M152.97,5.92c.87-.6,2.13-1.21,3.65-1.21,1.65,0,3.68.89,3.68,3.77,0,2.55-2.33,4.33-5.87,4.65-.36.03-.45-.37-.11-.47,3.17-.9,4.7-2.41,4.7-4.3,0-2.18-1.12-2.92-2.5-2.92-1.54,0-2.94.76-3.93,1.62,0,2.38-.03,5.03-.24,5.77-.16.57-.37.87-.86.87s-.53-1-.66-1.42c-.15-.52-.68-1.26-1.03-1.83-.4.58-.76,1.08-.92,1.31-.28.37-.79.87-1.31.44-.23-.19-.11-.66.23-1.08.44-.53,2.83-2.81,3.54-5.03.11-.36-.02-.37-.23-.23-.15.1-.32.24-.87.68-.65.52-1.15.74-1.5.74-.45,0-.97-.36-1.12-.81-.1-.29-.06-.53,0-.7.05-.13.13-.13.23-.08.32.16.68.44,1.05.44.24,0,1.2-.61,1.7-.92.32-.19.84-.47,1.18-.55-.03-.78-.1-1.49-.16-1.86-.1-.55-.31-.63-.63-.76-.37-.15-.73-.26-.73-.47s.37-.45.94-.45c1.21,0,1.52.19,1.52,1.07,0,.57-.06,1.75-.1,2.78.23.27.36.66.36.91v.05ZM151.58,11.08c.15-.6.23-1.76.26-3.56-.42.58-1.08,1.54-1.68,2.41.39.5.74.92,1,1.21.21.24.34.26.42-.06Z"/><path class="cls-1" d="M179.53,6.23c0,.32-.18.47-.78.47-.71,0-1.52-.26-3.09-.1-.21,1.24-.45,2.2-.79,2.86-.31.58-.74,1.03-1.15,1.03-.5,0-1.18-1.02-1.41-1.41-.11-.19,0-.37.23-.32.21.05.69.16.95.19.24.03.45.02.6-.21.26-.42.49-1.21.61-2.02-1.5.26-2.99.74-4.12,1.18.11,3.73.13,4.14,2.97,4.1,1.26-.02,1.91-.23,2.44-.23.45,0,1,.21.99.68-.02.57-1.26.76-2.57.76-1.2,0-2.07-.1-2.75-.29-1.6-.45-1.89-1.26-2.05-4.62-1.65.68-2.67,1.05-3.12,1.05-.71,0-1.36-.82-1.36-1.45,0-.24.13-.32.36-.26.18.05.79.36,1.26.36.44,0,1.71-.37,2.81-.73-.02-.94-.03-1.86-.11-2.54-.06-.58-.24-.71-.89-.99-.26-.11-.29-.27-.19-.4.13-.18.39-.36.78-.36.66,0,1.52.42,1.57.86.03.26-.03.68-.08,1.41-.03.6-.06,1.2-.06,1.68,1.24-.4,2.92-.87,4.27-1.18.1-.89.15-2,.08-2.6-.06-.53-.27-.65-.99-.99-.26-.13-.27-.32-.1-.47.18-.14.52-.26.74-.26.63,0,1.5.42,1.52.95.02.48-.11,1.84-.29,3.17,1.02-.19,1.6-.23,2.05-.23.94,0,1.66.47,1.66.89Z"/><path class="cls-1" d="M190.63,1.87c.26.45.27.69-.37,1.31-1.05,1-2.68,2.52-3.43,3.31-.37.4-.58.66-.58,1.02,0,.24.21.57.9,1.08.94.7,2.08,1.58,2.83,2.28.94.87,1.33,1.63,1.33,2.34,0,.53-.34.76-.68.76-.23,0-.44-.15-.73-.7-.34-.65-.63-1.07-1.15-1.7-.57-.68-1.89-1.89-2.57-2.49-.5-.44-.84-.89-.84-1.41,0-.57.32-1.08.89-1.76.66-.81,1.92-2.26,2.57-3.1.32-.42.42-.78.32-1.15-.08-.31-.18-.48-.21-.65-.05-.24.08-.39.4-.27.53.18,1.05.65,1.31,1.12Z"/><path class="cls-1" d="M203.02,9.32c-.5.4-1.07,1.07-1.45,1.65-.37.57-.95,1.63-1.13,1.89-.16.24-.47.55-.89.55-.29,0-.6-.26-.6-.65s.21-.74.48-1.11c.7-.94,1.49-1.99,2.13-3.09.61-1.03,1.13-2.23,1.42-2.96-.87.11-1.68.19-2.36.18-.7-.02-1.02-.11-1.36-.44-.4-.37-.68-.92-.68-1.36,0-.26.18-.36.4-.18.97.76,1.41.92,2.39.94.65.02,1.33-.06,1.96-.16.19-.6.32-1.13.37-1.44.08-.57.03-.69-.31-.89-.44-.24-.74-.32-.74-.53,0-.23.39-.42.95-.42.69,0,1.62.42,1.62.86,0,.26-.26.89-.82,2.25.79-.18,1.75-.49,2.39-.76.47-.19.92-.44,1.29-.44s.78.24.78.63c0,.31-.37.47-1.03.69-.65.23-2.58.7-3.86.92-.44,1.02-1.03,2.23-1.58,3.49,1.92-1.49,4.12-2.08,5.82-1.91.78.08,1.42.45,1.42.89s-1.29,1.33-1.97,1.66c-.36.18-.55-.02-.36-.32.15-.23.29-.48.42-.78.16-.37.06-.52-.44-.55-1.47-.1-3.12.45-4.27,1.37ZM210.92,12.92c0,.55-.92.84-2.31.84-2.34,0-4.43-.84-4.64-2.99-.03-.32.31-.4.45-.16.89,1.55,2.07,1.97,3.86,1.97.69,0,1.45-.08,1.86-.08.45,0,.78.1.78.42ZM211.16,3.39c0,.37-.27.57-.55.57-.37,0-.49-.27-.86-.71-.28-.32-.65-.66-.97-.97-.19-.19-.08-.45.19-.44,1.05.08,2.18.79,2.18,1.55ZM212.54,1.87c0,.34-.21.57-.53.57-.24,0-.4-.13-.71-.47-.36-.39-.84-.74-1.2-1-.26-.19-.15-.47.16-.47,1.03.02,2.28.55,2.28,1.37Z"/><path class="cls-1" d="M225.72,7.67c.39.66.6,1.24.6,1.76,0,.69-.4.99-.82.99-.31,0-.71-.23-1.02-.39-.66-.36-1.65-.84-3.13-.84-1.37,0-2.55.92-2.55,1.81,0,.71.57,1.03,1.5,1.15,1.15.15,2.16-.03,2.94-.03.61,0,1,.06,1,.37,0,.37-.5,1-2.62,1-1.76,0-3.94-.53-3.94-2.25,0-1.44,1.71-2.73,3.8-2.73,1.5,0,2.47.26,3.07.34.34.05.4-.06.4-.23,0-.6-.89-1.91-1.81-3.15-.86.23-1.84.37-2.92.37-1.78,0-2.97-1.15-3.3-2.42-.08-.32.18-.45.4-.29.74.53,1.75,1.66,3.46,1.66.66,0,1.24-.06,1.75-.16-.63-.94-.91-1.63-.91-2.34,0-.45.24-1.03.94-1.03.49,0,.91.31,1.42.6.55.31,1.21.61,1.84.84.48.18.73.34.73.69,0,.29-.26.58-.61.84-.44.32-1.08.68-1.87.95.68.97,1.23,1.76,1.66,2.49ZM222.68,2.51c0,.53.42,1.31.78,1.86.66-.24,1.05-.47,1.21-.61.26-.23.26-.44.02-.66-.23-.21-1.05-.68-1.45-.89-.39-.19-.55-.06-.55.31Z"/><path class="cls-1" d="M245.19,9.4c0,.65-.31,1.05-.81,1.05-.57,0-.58-1.03-.76-1.89-.27-1.31-.95-2.42-1.89-2.42-1.2,0-2.5,3.1-3.44,4.8-.58,1.05-.84,1.41-1.55,1.41-1.36,0-2.76-1.65-2.76-3.51,0-1.29.18-1.79.18-2.52,0-.86-.23-1.11-.97-1.97-.23-.26-.05-.49.29-.42,1.05.19,2.05,1.16,2.05,1.94,0,.82-.58,1.81-.58,2.88,0,1.49,1,2.18,1.65,2.18.45,0,.92-.76,1.41-1.5,1.52-2.33,2.5-4.07,3.83-4.07.81,0,1.45.36,2,.94.81.84,1.36,2.07,1.36,3.12Z"/></svg>