<?xml version="1.0" encoding="UTF-8"?><svg id="_文字" xmlns="http://www.w3.org/2000/svg" viewBox="0 0 361.78 31.8"><defs><style>.cls-1{fill:#fff;}</style></defs><path class="cls-1" d="M62.69,15.36c0,9.98-4.35,16.33-10.83,16.33s-9.34-6.53-9.34-14.8c0-11.64,5.8-16.04,11.22-16.04,6.14,0,8.96,5.89,8.96,14.5ZM52.46,3c-4.86,0-6.27,4.95-6.27,11.98,0,6.35,1.45,14.54,6.82,14.54s6.06-6.65,6.06-13.26c0-5.71-1.41-13.26-6.61-13.26Z"/><path class="cls-1" d="M85.77,16c2.43,1.32,5.03,3.16,5.03,6.91,0,4.65-4.44,8.83-9.98,8.83-6.14,0-8.7-4.52-8.7-7.72,0-2.86,1.45-3.97,1.96-4.48.6-.6,2.13-1.75,4.9-3.46-4.14-2.09-5.67-4.31-5.67-7.51,0-4.05,3.84-7.8,8.74-7.8,5.54,0,7.55,4.26,7.55,6.74,0,2.73-1.11,4.48-5.76,7.46l1.92,1.02ZM87.39,24.28c0-2.47-1.19-4.09-3.33-5.42-1.15-.68-2.47-1.45-3.75-2.13-3.07,2.35-4.82,4.01-4.82,6.74s2.3,6.4,6.7,6.4c3.37,0,5.2-2.3,5.2-5.59ZM82.57,14.3c2.77-2.22,3.88-3.8,3.88-6.14,0-3.03-2.3-5.59-5.59-5.59-3.11,0-4.44,2.3-4.44,4.82,0,2.86,1.66,4.56,3.71,5.67l2.43,1.24Z"/><path class="cls-1" d="M120.32,15.36c0,9.98-4.35,16.33-10.83,16.33s-9.34-6.53-9.34-14.8c0-11.64,5.8-16.04,11.22-16.04,6.14,0,8.96,5.89,8.96,14.5ZM110.08,3c-4.86,0-6.27,4.95-6.27,11.98,0,6.35,1.45,14.54,6.82,14.54s6.06-6.65,6.06-13.26c0-5.71-1.41-13.26-6.61-13.26Z"/><path class="cls-1" d="M150.18,15.36c0,9.98-4.35,16.33-10.83,16.33s-9.34-6.53-9.34-14.8c0-11.64,5.8-16.04,11.22-16.04,6.14,0,8.96,5.89,8.96,14.5ZM139.94,3c-4.86,0-6.27,4.95-6.27,11.98,0,6.35,1.45,14.54,6.82,14.54s6.06-6.65,6.06-13.26c0-5.71-1.41-13.26-6.61-13.26Z"/><path class="cls-1" d="M159.35,18.9c.9-.09,9.17-.26,10.45-.21.9.04,1.02.21,1.02.6,0,.55-.43,1.58-1.07,1.88-.98.43-8.96.51-10.45.47-.3,0-.73-.09-.77-.55,0-.81.34-1.79.81-2.17Z"/><path class="cls-1" d="M189.33,29.48c1.66.17,1.66,1.58-.09,1.58s-3.24-.09-5.54-.09-4.14.09-5.71.09c-1.75,0-1.79-1.41-.04-1.58,3.11-.38,3.41-.81,3.54-2.17.08-1.07.21-2.81.21-5.63V7.43c0-1.45-.08-1.75-.47-1.66-.73.17-2.13.51-3.2.64-1.24.13-1.92.17-1.92-.38,0-.51.6-.81,1.19-1.02,2.09-.81,3.84-1.58,5.25-2.52,1.71-1.11,2.26-1.62,2.64-1.66.47-.04.73.3.6.68-.21.85-.55,2.43-.55,7.63v12.54c0,2.22,0,4.61.08,5.46.13,1.71.43,1.96,4.01,2.35Z"/><path class="cls-1" d="M210.32,5.04c-.13-.13-.21-.21-.51-.21-.81,0-9.51,0-11.73.17-1.54.08-1.83,1.32-2.52,2.86-.6,1.36-1.79,1.15-1.49-.38.13-.98.72-4.27.98-5.59.13-.85.85-.94,1.28-.64.34.17.9.3,2.05.3h9.72c3.16,0,4.09-.09,5.03-.26.6-.17.98.34.6,1.15-4.22,8.4-10.92,21.84-13.86,28.19-.26.6-.51.77-.98.77-.73,0-1.62-.55-1.62-1.15,0-.81,10.79-20.85,13.05-25.21Z"/><path class="cls-1" d="M240.05,15.36c0,9.98-4.35,16.33-10.83,16.33s-9.34-6.53-9.34-14.8c0-11.64,5.8-16.04,11.22-16.04,6.14,0,8.96,5.89,8.96,14.5ZM229.81,3c-4.86,0-6.27,4.95-6.27,11.98,0,6.35,1.45,14.54,6.82,14.54s6.06-6.65,6.06-13.26c0-5.71-1.41-13.26-6.61-13.26Z"/><path class="cls-1" d="M249.22,18.9c.9-.09,9.17-.26,10.45-.21.9.04,1.02.21,1.02.6,0,.55-.43,1.58-1.07,1.88-.98.43-8.96.51-10.45.47-.3,0-.73-.09-.77-.55,0-.81.34-1.79.81-2.17Z"/><path class="cls-1" d="M267.99,29.23c-.38-.51-.47-.94-.47-1.45s.26-1.36.81-2.05c.43-.51.9-.38,1.15.21.55,1.49,2.9,3.54,6.35,3.54,3.97,0,6.35-2.69,6.35-6.48,0-3.54-1.62-5.97-7.59-7.46-2.05-.51-3.71-.68-4.65-.64-.73.04-.98-.26-.73-1.11.77-2.05,2.18-7.85,2.86-11.6.17-.85.68-1.11,1.24-.81.21.13.68.17.98.17,1.49,0,5.63,0,7.29-.09,1.15-.04,1.75-.17,2.6-1.07.9-.85,1.71-.21,1.15.85-1.62,3.11-2.94,3.41-3.37,3.5-1.75.26-6.01.26-8.15.17-.17,0-.38.17-.43.34-.38,1.66-1.15,5.16-1.54,6.52-.04.17.08.17.26.26,1.79.26,3.28.55,4.78.85,6.01,1.32,8.91,4.09,8.91,8.06,0,3.41-1.41,6.1-4.78,8.45-2.99,2.05-5.76,2.22-7.04,2.22-3.67,0-5.37-1.49-6.01-2.39Z"/><path class="cls-1" d="M304.2,29.48c1.66.17,1.66,1.58-.09,1.58s-3.24-.09-5.54-.09-4.14.09-5.71.09c-1.75,0-1.79-1.41-.04-1.58,3.11-.38,3.41-.81,3.54-2.17.08-1.07.21-2.81.21-5.63V7.43c0-1.45-.08-1.75-.47-1.66-.73.17-2.13.51-3.2.64-1.24.13-1.92.17-1.92-.38,0-.51.6-.81,1.19-1.02,2.09-.81,3.84-1.58,5.25-2.52,1.71-1.11,2.26-1.62,2.64-1.66.47-.04.73.3.6.68-.21.85-.55,2.43-.55,7.63v12.54c0,2.22,0,4.61.08,5.46.13,1.71.43,1.96,4.01,2.35Z"/><path class="cls-1" d="M330.39,15.36c0,9.98-4.35,16.33-10.83,16.33s-9.34-6.53-9.34-14.8c0-11.64,5.8-16.04,11.22-16.04,6.14,0,8.96,5.89,8.96,14.5ZM320.15,3c-4.86,0-6.27,4.95-6.27,11.98,0,6.35,1.45,14.54,6.82,14.54s6.06-6.65,6.06-13.26c0-5.71-1.41-13.26-6.61-13.26Z"/><path class="cls-1" d="M357.69,20.1c1.75,0,2.82-.08,3.46-.3.38-.09.64.08.64.38,0,.51-.34,1.54-.6,1.92-.21.34-.6.43-1.54.43h-3.41v5.67c0,1.45.04,2.17-.09,2.35-.38.55-2,.94-2.99.94-.47,0-.6-.34-.47-.81.08-.47.21-1.15.21-2.09,0-.68.09-2.26.09-6.06h-3.24c-8.02,0-9.08,0-9.64-.17-.3-.13-.47-.34-.47-.6,0-.55.38-1.19.85-1.88,2.69-3.58,9.89-13.9,12.67-17.19.38-.43.77-.72,1.32-1.11.34-.21,1.28-.9,1.79-.9.26,0,.51.3.38.77-.26.72-.43,2.13-.43,2.9v15.74h1.45ZM353,5.64c-3.41,4.35-9.04,12.71-9.77,13.82-.09.21,0,.43.26.43.64.04,1.96.17,9.51.21V5.64Z"/><path class="cls-1" d="M0,24.48h35.34V3.07H0v21.41ZM12.38,23.77h-4.38v-15.21c0-2.06,1.42-4.9,4.89-4.9h5.16v4h-4c-.77,0-1.67.51-1.67,1.41v2.65h11.54v3.99h-11.54v8.06ZM27.23,23.78h-2.15c-3.47,0-4.89-2.84-4.89-4.91v-2.22h3.74s0,2.07,0,2.07c0,.52.37,1.06,1.15,1.06h2.15v4ZM27.23,7.66h-2.15c-.78,0-1.15.54-1.15,1.06v2.07h-3.74v-2.23c0-2.06,1.42-4.9,4.89-4.9h2.15v4Z"/><path class="cls-1" d="M5.32,26.8c-.07,1.62-.45,2.54-.96,3.19-.57.73-1.53,1.39-3.02,1.68l-.42-.91c2.65-.47,3.08-1.8,3.29-3.02H.5v-.94h4.83Z"/><path class="cls-1" d="M7.33,29.89h-1v-3.28h1v3.28ZM10.21,28.99c0,2.28-1.79,2.54-3.21,2.71l-.37-.92c.41-.03,1.47-.1,2.03-.48.31-.2.53-.61.53-1.18v-2.62h1.01v2.48Z"/><rect class="cls-1" x="11.22" y="28.53" width="5.26" height="1"/><polygon class="cls-1" points="21.84 26.89 21.84 31.29 17.32 31.29 17.32 30.35 20.83 30.35 20.83 27.82 17.38 27.82 17.38 26.89 21.84 26.89"/><rect class="cls-1" x="22.93" y="28.53" width="5.27" height="1"/><path class="cls-1" d="M30.59,28.1c0,.67-.05,1.32-.18,1.97-.13.65-.41,1.27-.9,1.73l-.75-.78c.21-.2.58-.56.73-1.35.05-.25.14-.84.14-1.47v-1.49h.96v1.38ZM32.22,30.43c.2-.06.57-.19.9-.78.29-.5.37-1.03.41-1.29l.9.43c-.15.75-.46,1.48-1.02,2.01-.82.76-1.76.8-2.14.82v-5.1h.95v3.9Z"/></svg>