<?xml version="1.0" encoding="UTF-8"?><svg id="_文字" xmlns="http://www.w3.org/2000/svg" viewBox="0 0 267.34 90"><defs><style>.cls-1{fill:#8cc63f;}.cls-2{fill:#fff;}.cls-3{fill:#af8c70;}</style></defs><rect class="cls-3" x="0" y="0" width="136.83" height="61.24" rx="8.75" ry="8.75"/><path class="cls-2" d="M51.17,43.05c-.47.65-.76,1.43-.87,2.34-.09.58-.21.92-.34,1.01-.1.09-.42.15-.96.17-4.24.24-8.32.36-12.25.36s-6.75-.31-8.25-.94c-1.47-.6-2.69-1.66-3.67-3.16-.73.77-1.82,1.77-3.26,2.97-.39.35-.63.6-.74.73-.17.24-.34.36-.5.36-.19,0-.36-.15-.51-.46-.44-.81-.92-1.88-1.44-3.21.88-.42,1.56-.81,2.05-1.16.76-.49,1.64-1.21,2.63-2.17v-7.81h-1.44l-2.44.09c-.21,0-.33-.03-.38-.09-.03-.05-.05-.16-.05-.34v-2.67c0-.18.03-.29.09-.32.05-.03.16-.05.34-.05l2.44.07h1.97l2.56-.07c.18,0,.29.02.32.07.03.05.05.15.05.31l-.07,3.4v7.71c.58,1.36,1.66,2.34,3.25,2.94,1.3.42,3.46.63,6.48.63,5.32,0,10.31-.23,14.99-.7ZM19.64,18.75c-.11-.09-.17-.17-.17-.24s.11-.19.34-.36l1.78-1.28c.24-.16.4-.24.48-.24.07,0,.17.06.29.17,1.74,1.62,3.21,3.36,4.41,5.21.08.11.12.21.12.27,0,.1-.11.25-.32.43l-1.85,1.5c-.21.16-.36.24-.46.24-.11,0-.22-.08-.31-.24-1.4-2.27-2.84-4.09-4.31-5.47ZM34.13,19.16h-3.23l-3.04.09c-.18,0-.3-.02-.34-.07-.03-.05-.05-.15-.05-.32v-1.86c0-.18.03-.29.09-.32.03-.03.14-.05.31-.05l3.04.07h3.57l2.48-.07c.21,0,.33.02.38.07.03.05.05.15.05.32l-.07,2.24v1.47l.07,2.24c0,.16-.02.26-.07.29-.06.03-.18.05-.36.05l-2.48-.07h-3.54v.87c0,.66.07,1.07.22,1.21.18.16.77.24,1.78.24,1.07,0,1.71-.11,1.93-.33.12-.15.21-.67.24-1.57.63.31,1.4.59,2.31.84.42.11.63.29.63.53,0,.11-.02.31-.07.6-.13.72-.37,1.24-.73,1.57-.32.28-.85.47-1.61.56-.58.07-1.53.1-2.84.1-2.37,0-3.78-.19-4.24-.56-.56-.44-.84-1.33-.84-2.67v-1.9l-.07-1.4c0-.18.03-.29.09-.32.05-.03.16-.05.34-.05l2.26.07h3.79v-1.86ZM33.01,37.82l-4.84.07c-.18,0-.29-.03-.32-.09-.03-.05-.05-.16-.05-.34v-1.9c0-.18.02-.29.07-.32.05-.03.15-.05.31-.05l4.84.07h.46v-2.19l-4.1.07c-.21,0-.32-.02-.36-.07-.05-.06-.07-.18-.07-.36v-1.9c0-.18.03-.29.09-.32.05-.03.16-.05.34-.05l4.1.07c-.03-.74-.11-1.49-.22-2.24,1.4.08,2.47.16,3.2.24.38.05.56.17.56.36,0,.1-.07.28-.21.53-.13.23-.19.6-.19,1.11h4.44c0-.87-.07-1.61-.21-2.24,1.44.08,2.49.16,3.18.24.38.05.56.18.56.39,0,.1-.07.28-.21.53-.13.18-.19.53-.19,1.04v.07c1.18-.01,2.21-.03,3.08-.07.15,0,.38-.01.68-.03h.24c.21,0,.32.02.36.07.03.05.05.15.05.31v1.9c0,.2-.02.33-.06.37-.04.04-.16.06-.35.06-.05,0-.22,0-.51-.02-1.03-.02-2.19-.04-3.49-.05v2.19h.63l4.84-.07c.18,0,.29.02.32.07.03.05.05.15.05.31v1.9c0,.19-.02.31-.06.36-.04.05-.15.07-.32.07l-4.84-.07h-1.81c1.85,1.12,4.19,1.96,7.02,2.55-.5.55-.92,1.16-1.25,1.83-.3.58-.59.87-.87.87-.08,0-.35-.07-.82-.2-2.34-.76-4.53-1.85-6.58-3.26-.11-.08-.17-.15-.17-.22,0-.06.1-.18.29-.36l1.18-1.2h-6.78c.72.43,1.31.83,1.78,1.2.33.23.5.4.5.51,0,.18-.15.31-.46.39-.08.02-.26.13-.53.31-.26.17-.46.29-.58.36-1.18.77-2.62,1.47-4.31,2.1-.46.16-.73.24-.84.24-.22,0-.55-.26-.99-.77-.42-.52-.96-1.01-1.61-1.47,2.13-.6,3.82-1.25,5.08-1.93.46-.24.91-.55,1.37-.94h-1.44ZM36.61,35.25h4.44v-2.19h-4.44v2.19ZM45.67,19.16h-3.25l-3.01.09c-.21,0-.33-.02-.38-.07-.03-.05-.05-.15-.05-.32v-1.86c0-.18.03-.29.09-.32.05-.03.16-.05.34-.05l3.01.07h3.71l2.48-.07c.19,0,.31.02.34.07.03.05.05.15.05.32l-.07,2.24v1.47l.07,2.24c0,.23-.13.34-.39.34l-2.48-.07h-3.54v.91c0,.64.07,1.03.22,1.18.19.16.82.24,1.88.24s1.7-.09,1.9-.27c.19-.17.31-.71.34-1.62.73.39,1.51.65,2.34.8.49.08.74.26.74.55,0,.13-.02.34-.07.65-.13.71-.37,1.21-.74,1.5-.33.3-.92.5-1.76.6-.63.07-1.63.1-3.02.1-2.48,0-3.95-.19-4.41-.56-.51-.46-.77-1.34-.77-2.67v-1.9l-.07-1.4c0-.18.02-.29.07-.32.05-.03.15-.05.31-.05l2.34.07h3.78v-1.86Z"/><path class="cls-2" d="M53.48,32.96c.92-.38,1.95-1.01,3.08-1.9,1.42-1.12,3.51-2.92,6.27-5.42,1.07-.98,2.08-1.47,3.04-1.47.62,0,1.15.11,1.61.32.39.18.87.51,1.44.97,4.75,3.79,7.27,5.8,7.55,6.01,2.1,1.5,4.85,3.22,8.27,5.14.27.11.41.28.41.5,0,.08-.02.16-.07.24-.47,1.26-1.04,2.36-1.71,3.3-.17.23-.32.34-.46.34-.15,0-.31-.06-.5-.17-1.72-1-4.24-2.8-7.55-5.4-1.72-1.29-4.17-3.35-7.35-6.19-.57-.53-1.08-.8-1.54-.8-.26,0-.66.24-1.2.73l-5.88,5.76c-.58.63-1,1.14-1.25,1.54-.18.29-.39.43-.63.43s-.46-.1-.67-.31c-.8-.8-1.75-2.01-2.87-3.64ZM74.22,22.46l1.86-1.28c.07-.07.14-.1.21-.1.09,0,.2.05.32.15,1.2.92,2.3,2.18,3.31,3.76.07.09.1.18.1.26,0,.1-.07.2-.21.31l-1.47,1.08c-.1.07-.19.1-.27.1-.11,0-.22-.07-.32-.22-1.08-1.65-2.26-3-3.54-4.05ZM77.45,20.15l1.74-1.26c.09-.06.17-.09.22-.09.08,0,.18.05.31.15,1.34,1.02,2.45,2.23,3.33,3.6.07.11.1.21.1.29,0,.12-.07.24-.22.34l-1.4,1.09c-.1.07-.19.1-.27.1-.11,0-.22-.07-.31-.22-.98-1.56-2.15-2.9-3.5-4.02Z"/><path class="cls-2" d="M88.49,22.52c1.24-.05,3.1-.24,5.57-.58,9.42-1.38,16.43-2.37,21.02-2.97.08-.01.15-.02.21-.02.32,0,.5.13.53.39.23,1.01.36,2.04.39,3.09,0,.34-.22.51-.67.51-1.58.1-3.01.36-4.27.77-3.06,1.05-5.39,2.62-6.97,4.72-1.3,1.71-1.95,3.58-1.95,5.6,0,4.51,3.1,6.96,9.31,7.35.51,0,.77.18.77.53,0,1.09-.13,2.1-.39,3.01-.09.49-.31.73-.65.73-3.67,0-6.76-1.01-9.26-3.04-2.44-1.99-3.66-4.59-3.66-7.78,0-2.54.67-4.78,2-6.73,1.08-1.56,2.65-3.01,4.72-4.36v-.07c-4.12.77-8.04,1.54-11.76,2.31-1.21.29-1.94.47-2.2.56-.43.18-.69.27-.77.27-.3,0-.52-.18-.67-.53-.36-.75-.8-2.01-1.3-3.78Z"/><polygon class="cls-3" points="66.84 53.61 90.46 73.73 87.83 55.36 66.84 53.61"/><rect class="cls-1" x="130.51" y="16.27" width="136.83" height="61.24" rx="8.75" ry="8.75"/><polygon class="cls-1" points="200.5 69.88 176.88 90 179.51 71.63 200.5 69.88"/><path class="cls-2" d="M173.44,50.42h-12.99c.02,2,.49,3.54,1.4,4.61.83.97,1.98,1.45,3.43,1.45,2.06,0,3.41-1.22,4.05-3.66l4,1.16c-1.21,3.71-3.91,5.57-8.1,5.57-3.06,0-5.39-.99-6.99-2.97-1.4-1.73-2.1-4.07-2.1-7.01,0-3.33.91-5.91,2.73-7.76,1.56-1.59,3.55-2.39,5.98-2.39,2.71,0,4.85.99,6.42,2.96,1.44,1.79,2.15,4.16,2.15,7.13v.91ZM169.14,47.52c-.22-3.36-1.62-5.04-4.2-5.04-1.4,0-2.49.51-3.26,1.54-.66.88-1.04,2.05-1.14,3.5h8.61Z"/><path class="cls-2" d="M193.21,45.57l-4.27.97c-.41-2.6-1.54-3.9-3.4-3.9-2.87,0-4.31,2.28-4.31,6.83s1.43,6.87,4.31,6.87c2.03,0,3.25-1.34,3.67-4.03l4.1,1.13c-.5,2.12-1.51,3.7-3.02,4.75-1.31.91-2.93,1.37-4.85,1.37-2.92,0-5.15-1-6.7-3.01-1.35-1.75-2.02-4.09-2.02-7.01,0-3.34.89-5.92,2.67-7.74,1.54-1.58,3.55-2.37,6.05-2.37,2.21,0,4,.6,5.38,1.81,1.2,1.05,1.99,2.49,2.39,4.32Z"/><path class="cls-2" d="M204.74,39.44c2.8,0,5,1.01,6.58,3.02,1.4,1.79,2.1,4.12,2.1,6.99,0,3.31-.9,5.89-2.7,7.74-1.55,1.58-3.55,2.37-6.01,2.37-2.83,0-5.02-1.01-6.6-3.02-1.39-1.78-2.08-4.11-2.08-6.99,0-3.3.91-5.88,2.72-7.74,1.56-1.58,3.56-2.37,6-2.37ZM204.74,42.61c-2.8,0-4.2,2.29-4.2,6.87s1.39,6.9,4.17,6.9,4.2-2.3,4.2-6.9-1.39-6.87-4.17-6.87Z"/><path class="cls-2" d="M228.55,36.57c1.18-.11,2.63-.36,4.34-.75.11-.05.2-.07.26-.07.14,0,.22.11.26.34.18.85.29,1.8.32,2.84,0,.24-.14.38-.43.41-1.21.25-3.13.56-5.78.94-2.43,6.42-4.7,11.43-6.82,15.02-.14.23-.27.34-.39.34-.08,0-.22-.06-.41-.17-.98-.59-1.79-1.19-2.43-1.79-.16-.12-.24-.25-.24-.38,0-.14.06-.28.17-.43,2.59-4.27,4.61-8.34,6.07-12.2-.89.05-2.06.07-3.5.07-.71,0-1.35-.01-1.93-.03-.26,0-.43-.19-.5-.56-.14-.56-.25-1.55-.34-2.97,1.26.09,2.35.14,3.25.14,1.36,0,2.7-.06,4.03-.17.31-1.08.61-2.39.91-3.91.15-.82.22-1.77.22-2.84,2,.27,3.37.52,4.08.73.38.07.56.24.56.51,0,.24-.1.46-.31.67-.19.26-.38.7-.56,1.3-.06.19-.2.7-.43,1.52-.16.59-.3,1.08-.41,1.45ZM234.17,51.19c-.16-1.72-.26-3.73-.31-6.01-.03-.95-.13-1.77-.29-2.48,1.58.16,2.85.38,3.81.67.33.07.5.25.5.55,0,.08-.07.32-.21.73-.1.32-.15.67-.15,1.04,0,.08,0,.21.02.39,0,1.79.13,3.77.38,5.95,2.65,1.07,4.76,2.16,6.3,3.26.2.15.31.29.31.41,0,.08-.03.19-.1.32-.52,1.07-1.06,2.02-1.61,2.84-.1.16-.21.24-.32.24-.09,0-.21-.07-.34-.2-1.05-.91-2.47-1.89-4.27-2.94,0,1.81-.66,3.16-1.98,4.03-1.11.72-2.61,1.08-4.51,1.08-2.07,0-3.7-.51-4.89-1.54-1.04-.89-1.55-2.03-1.55-3.43,0-1.64.66-2.93,1.98-3.86,1.16-.83,2.66-1.25,4.49-1.25.95,0,1.86.07,2.75.21ZM234.24,54.52c-1.04-.35-1.99-.53-2.85-.53-.98,0-1.75.19-2.32.58-.52.36-.79.85-.79,1.45,0,1.12.99,1.67,2.97,1.67.99,0,1.77-.26,2.32-.79.47-.44.7-1.01.7-1.69,0-.33-.01-.56-.03-.7ZM236.31,39.9c.96-1.7,1.48-2.61,1.57-2.73.14-.22.28-.33.43-.33.08,0,.18.02.31.07,2.1.57,4.39,1.67,6.87,3.3.2.14.31.26.31.38,0,.13-.05.27-.14.43-.36.8-.85,1.66-1.47,2.6-.1.16-.21.24-.32.24-.08,0-.18-.05-.31-.14-2.73-1.86-5.15-3.13-7.25-3.81Z"/></svg>