<?xml version="1.0" encoding="UTF-8"?><svg id="_編集モード" xmlns="http://www.w3.org/2000/svg" viewBox="0 0 230 30.86"><defs><style>.cls-1{fill:#525a70;}</style></defs><path class="cls-1" d="M22.28,6.28c-.07-1.87-.15-3.77-.24-5.71.38.06.75.11,1.1.15.35.04.71.07,1.06.07s.71-.02,1.06-.07c.35-.05.72-.1,1.1-.15-.09,1.94-.17,3.84-.24,5.71-.07,1.87-.11,3.77-.11,5.71v7.58c0,1.94.04,3.85.11,5.73.07,1.88.15,3.73.24,5.55-.68-.06-1.4-.09-2.16-.09s-1.48.03-2.16.09c.09-1.82.17-3.67.24-5.55.07-1.88.11-3.79.11-5.73v-3.97c-1.59-.03-3.12-.05-4.61-.07-1.48-.01-3.02-.02-4.61-.02s-3.12,0-4.61.02c-1.48.02-3.02.04-4.61.07v3.97c0,1.94.04,3.85.11,5.73.07,1.88.15,3.73.24,5.55-.68-.06-1.4-.09-2.16-.09s-1.48.03-2.16.09c.09-1.82.17-3.67.24-5.55.07-1.88.11-3.79.11-5.73v-7.58c0-1.94-.04-3.84-.11-5.71-.07-1.87-.15-3.77-.24-5.71.38.06.75.11,1.1.15.35.04.71.07,1.06.07s.71-.02,1.06-.07c.35-.05.72-.1,1.1-.15-.09,1.94-.17,3.84-.24,5.71-.07,1.87-.11,3.77-.11,5.71v1.54c1.59.03,3.12.06,4.61.09,1.48.03,3.02.04,4.61.04s3.12-.01,4.61-.04c1.48-.03,3.02-.06,4.61-.09v-1.54c0-1.94-.04-3.84-.11-5.71Z"/><path class="cls-1" d="M52.17,6.28c-.07-1.87-.15-3.77-.24-5.71.38.06.75.11,1.1.15.35.04.71.07,1.06.07s.71-.02,1.06-.07c.35-.05.72-.1,1.1-.15-.09,1.94-.17,3.84-.24,5.71-.07,1.87-.11,3.77-.11,5.71v7.58c0,1.94.04,3.85.11,5.73.07,1.88.15,3.73.24,5.55-.68-.06-1.4-.09-2.16-.09s-1.48.03-2.16.09c.09-1.82.17-3.67.24-5.55.07-1.88.11-3.79.11-5.73v-7.58c0-1.94-.04-3.84-.11-5.71Z"/><path class="cls-1" d="M82.17,11.99c0-1.94-.04-3.84-.11-5.71-.07-1.87-.15-3.77-.24-5.71.85.06,1.69.11,2.51.15.82.04,1.66.07,2.51.07s1.69-.04,2.51-.11c.82-.07,1.66-.11,2.51-.11,1.23,0,2.41.12,3.53.35,1.12.24,2.09.63,2.93,1.17.84.54,1.5,1.26,1.98,2.14.48.88.73,1.98.73,3.31,0,1.41-.32,2.62-.95,3.64-.63,1.01-1.4,1.85-2.31,2.51-.91.66-1.89,1.18-2.93,1.54-1.04.37-1.99.61-2.84.73.35.44.84,1.06,1.45,1.85.62.79,1.31,1.67,2.07,2.62.76.96,1.56,1.96,2.38,3,.82,1.04,1.62,2.04,2.38,3,.76.96,1.48,1.83,2.16,2.62.68.79,1.22,1.4,1.63,1.81-.44-.06-.88-.09-1.32-.09h-2.6c-.44,0-.87.03-1.28.09-.44-.62-1.11-1.54-2.01-2.78-.9-1.23-1.89-2.56-2.98-3.97-1.09-1.41-2.2-2.81-3.33-4.21-1.13-1.4-2.17-2.58-3.11-3.55h-1.68v3.22c0,1.94.04,3.85.11,5.73.07,1.88.15,3.73.24,5.55-.68-.06-1.4-.09-2.16-.09s-1.48.03-2.16.09c.09-1.82.17-3.67.24-5.55.07-1.88.11-3.79.11-5.73v-7.58ZM85.79,14.51c.41.09.86.15,1.35.17.49.03,1.02.04,1.61.04.91,0,1.86-.1,2.84-.31.98-.2,1.89-.56,2.71-1.08.82-.51,1.51-1.21,2.05-2.07.54-.87.82-1.96.82-3.28,0-1.15-.21-2.09-.64-2.84-.43-.75-.98-1.34-1.65-1.79-.68-.44-1.41-.74-2.2-.9-.79-.16-1.57-.24-2.34-.24-1.03,0-1.88.02-2.56.07-.68.04-1.25.1-1.72.15-.06,1.62-.12,3.22-.18,4.81-.06,1.59-.09,3.17-.09,4.76v2.51Z"/><path class="cls-1" d="M175.74,18.47c-.29-.5-.73-1.23-1.3-2.18-.57-.95-1.21-2.01-1.89-3.17-.69-1.16-1.42-2.38-2.18-3.66-.76-1.28-1.49-2.5-2.18-3.66-.69-1.16-1.32-2.2-1.87-3.13-.56-.93-.98-1.62-1.28-2.09.41.06.82.11,1.21.15.4.04.8.07,1.21.07s.82-.02,1.21-.07c.4-.05.8-.1,1.21-.15,1.32,2.56,2.67,5.07,4.03,7.54,1.37,2.47,2.81,5.04,4.34,7.71.68-1.06,1.38-2.22,2.12-3.48.73-1.26,1.47-2.56,2.2-3.88.73-1.32,1.44-2.65,2.12-3.99.68-1.34,1.31-2.64,1.9-3.9.74.15,1.31.22,1.72.22s.98-.07,1.72-.22c-1.41,2.15-2.67,4.09-3.79,5.82-1.12,1.74-2.1,3.31-2.95,4.72-.85,1.41-1.6,2.68-2.25,3.81-.65,1.13-1.21,2.15-1.67,3.06,0,1.09,0,2.25.02,3.48.01,1.23.04,2.45.07,3.64.03,1.19.07,2.29.11,3.31.04,1.01.1,1.83.15,2.45-.68-.06-1.4-.09-2.16-.09s-1.48.03-2.16.09c.18-1.53.28-3.38.31-5.55.03-2.18.04-4.45.04-6.83Z"/><path class="cls-1" d="M148.35,27.77c-.6-1.35-1.28-2.89-2.03-4.61-.75-1.72-1.55-3.58-2.4-5.58-.85-2-1.71-4.01-2.56-6.04-.85-2.03-1.69-4.03-2.51-6.02-.82-1.98-1.59-3.83-2.29-5.53h-.84c-2.29,5.26-4.57,10.43-6.83,15.52-2.26,5.09-4.59,10.2-6.97,15.34.5-.06,1.04-.09,1.63-.09s1.13.03,1.63.09c.38-1.35.95-3.06,1.72-5.14.56-1.51,8.2-19.77,8.2-19.77,0,0,6.54,15.79,6.74,16.29.44,1.07.87,2.13,1.3,3.17.43,1.04.82,2.04,1.17,3,.35.96.63,1.77.84,2.45.41-.06.8-.09,1.17-.09h2.34c.37,0,.76.03,1.17.09-.38-.71-.88-1.73-1.48-3.09Z"/><path class="cls-1" d="M228.52,27.77c-.6-1.35-1.28-2.89-2.03-4.61-.75-1.72-1.55-3.58-2.4-5.58-.85-2-1.7-4.01-2.56-6.04-.85-2.03-1.69-4.03-2.51-6.02-.82-1.98-1.59-3.83-2.29-5.53h-.84c-2.29,5.26-4.57,10.43-6.83,15.52-2.26,5.09-4.58,10.2-6.97,15.34.5-.06,1.04-.09,1.63-.09s1.13.03,1.63.09c.38-1.35.95-3.06,1.72-5.14.56-1.51,8.2-19.77,8.2-19.77,0,0,6.54,15.79,6.74,16.29.44,1.07.87,2.13,1.3,3.17.43,1.04.82,2.04,1.17,3,.35.96.63,1.77.84,2.45.41-.06.8-.09,1.17-.09h2.34c.37,0,.76.03,1.17.09-.38-.71-.87-1.73-1.48-3.09Z"/></svg>