<?xml version="1.0" encoding="UTF-8"?><svg id="_文字" xmlns="http://www.w3.org/2000/svg" viewBox="0 0 144.07 28.25"><defs><style>.cls-1{fill:#fff;}</style></defs><path class="cls-1" d="M15.76,11.68H5.86v-2.53h9.9v2.53ZM.43,2.78v2.25h15.33v2.05H3.04v11.2h10.51c-3.44,3.07-8.35,5.33-13.55,6.93l1.73,2.35c5.35-1.86,10.77-4.79,14.02-8.23v8.8h2.92v-8.82c3.83,3.64,8.75,6.33,14.1,8.22l1.7-2.35c-4.04-1.12-9.91-3.55-13.59-6.9h10.66V7.08h-12.87v-2.05h15.36v-2.25h-15.36V.19h-2.92v2.59H.43ZM15.76,16.23H5.86v-2.59h9.9v2.59ZM28.77,11.68h-10.09v-2.53h10.09v2.53ZM28.77,16.23h-10.09v-2.59h10.09v2.59Z"/><path class="cls-1" d="M80.72,28.19h-2.93v-15.69c-1.41,1.8-2.27,2.52-3.03,3.16l-1.52-2.84c3.25-2.76,6.22-7.8,7.41-12.71l2.97.43c-.47,1.9-1.16,4.4-2.89,7.47v20.18ZM97.35,5.81c-2.06-1.4-4.45-2.73-7.12-3.82l1.81-1.99c2.24.78,4.84,2.02,7.16,3.67l-1.85,2.13ZM106.59,8.59h-9.82v6.5h8.49v2.32h-8.49v7.45h10.63v2.35h-24.47v-2.35h10.8v-7.45h-8.71v-2.32h8.71v-6.5h-9.97v-2.35h22.84v2.35Z"/><path class="cls-1" d="M138.68,10.83h-6.15v-2.31h6.15v2.31ZM132.53.21h-2.81v1.96h-7.45v2.04h7.45v2.29h-9.83v2.02h9.83v2.31h-7.45v2h7.45v2.11h-8.59v2.02h8.59v2.32h-9.83v2.05h9.83v2.77h2.81v-2.77h11.03v-2.05h-11.03v-2.32h9.7v-2.02h-9.7v-2.11h8.87v-4.31h2.35v-2.02h-2.35V2.17h-8.87V.21ZM128.38,25.12c-.69,0-2.1-.03-3.36-.18-4.95-.69-7.66-2.92-7.88-3.14,1.23-2.65,2.06-6.53,2.28-10.96h-5.89c3.03-3.12,3.83-3.97,5.85-7.21V1.42h-9.11v2.26h5.85c-1.34,2.32-3.9,5.12-5.75,6.87v2.5h6.29c-.29,3.28-.83,5.12-1.34,6.44-1.01-1.84-1.44-3.31-1.77-4.86l-2.53.52c.39,1.66,1.12,4.13,3.11,6.68-1.45,2.21-3.22,3.5-4.16,4.16l1.77,2.2c.9-.66,2.6-1.83,4.26-4.4,3.08,2.56,7.56,3.61,11.93,3.61h15.5l.62-2.32-15.68.03ZM138.68,6.5h-6.15v-2.29h6.15v2.29Z"/><path class="cls-1" d="M52.9,21.21c-2.68-1.63-4.16-3.07-4.92-3.95h5.89v-2.2h-6.25v-3.16h6.89v-2.2h-3.65c.47-1.39,1.08-4.16,1.16-4.64h1.99v-2.19h-6.4V.18h-2.79v2.69h-7.12v2.19h2.64c.61,1.53,1.01,4.31,1.08,4.64h-4.33v2.2h7.74v3.16h-7.41v2.2h6.86c-2.71,3.34-6.07,5.33-7.88,6.33l1.56,2.19c1.84-1.23,4.52-3.13,6.87-5.9v8.38h2.79v-8.49c1.26,1.47,2.23,2.38,3.68,3.55l1.6-2.11ZM44.08,9.71c-.07-.33-.47-2.95-1.05-4.64h6.29c-.15,1.18-.62,3.35-1.09,4.64h-4.15Z"/><path class="cls-1" d="M58.79,5.93l12.79-3.53L63.86.18l1.35,1.7-9.3,2.57h0s-.01,0-.01,0v9.12c0,1.15,0,3.82-1.12,7.41-.9,2.8-2.78,4.66-3.68,5.58l2.67,1.6c1.59-1.69,5.02-5.4,5.02-14.55v-1.54h4.69v16.17h3V12.08h3.87v-2.29h-11.57v-3.86Z"/></svg>