<?xml version="1.0" encoding="UTF-8"?><svg id="_レイヤー_1" xmlns="http://www.w3.org/2000/svg" viewBox="0 0 468.064 232.463"><defs><style>.cls-1{fill:none;stroke-width:14.403px;}.cls-1,.cls-2{stroke:#fff;stroke-miterlimit:10;}.cls-2{stroke-width:1.066px;}.cls-2,.cls-3{fill:#fff;}.cls-4{fill:#af8c70;}.cls-4,.cls-5,.cls-6,.cls-3{stroke-width:0px;}.cls-5{fill:#646464;}.cls-6{fill:#f5695a;}</style></defs><path class="cls-5" d="M138.953,0L0,99.423h28.541v133.04h220.825V99.423h28.541L138.953,0h0ZM329.111,0h-190.158l138.953,99.423h190.158L329.111,0h0ZM439.523,99.423h-190.158v133.04h190.158V99.423h0Z"/><polyline class="cls-3" points="138.953 17.595 235.056 86.358 235.056 99.423 235.056 218.154 42.85 218.154 42.85 99.423 42.85 86.358 138.953 17.595"/><path class="cls-3" d="M251.572,133.864h72.752v11.807h-30.098v26.44h32.759v11.973h-32.759v26.44h-12.971v-26.44h-32.759v-11.973h32.759v-26.44h-29.683v-11.807ZM267.038,147.168c2.993,5.238,6.818,16.297,8.065,20.953l-12.222,3.658c-.998-4.49-3.742-13.969-7.4-20.953l11.558-3.658ZM320.666,150.577c-.998,2.993-5.404,15.299-9.063,21.285l-11.723-3.908c3.825-6.319,6.901-15.881,8.314-20.703l12.472,3.326Z"/><path class="cls-3" d="M406.475,185.747c-1.081-1.995-1.331-2.328-3.077-5.155-1.58.166-4.822.499-11.058.831v4.656h23.364v8.481h-23.364v4.656h26.274v9.562h-61.943v-9.562h23.364v-4.656h-19.872v-8.481h19.872v-4.074c-2.827.083-16.878.582-20.038.582l-.832-9.894c3.658,0,4.074-.083,5.571-.083,1.912-3.326,2.079-3.658,2.661-4.989h-9.562v2.494c0,26.274-5.238,35.42-7.982,40.242l-11.225-8.481c4.074-7.899,6.818-15.049,6.818-31.761v-36.251h70.258v21.535h-57.869v3.076h60.779v9.146h-10.144c4.24,4.906,5.654,6.568,9.062,12.139l-11.058,5.986ZM403.565,143.177h-45.73v3.908h45.73v-3.908ZM394.751,167.621h-13.802c-1.331,2.494-1.497,2.744-2.827,4.989,3.658,0,12.139,0,18.957-.582-1.414-1.746-2.245-2.578-3.575-3.825l1.247-.582Z"/><path class="cls-2" d="M270.997,84.808c-1.574-2.959-3.4-4.659-6.862-4.659-3.526,0-5.163,2.015-5.163,5.666,0,4.155,2.267,5.792,6.988,7.114,7.429,2.078,10.829,5.477,10.829,12.969,0,6.485-3.903,12.466-12.34,12.466-6.17,0-10.577-2.266-13.662-7.114l5.603-3.903c2.078,3.085,3.903,4.659,7.618,4.659,4.218,0,5.477-2.644,5.477-5.792,0-3.463-1.385-5.603-7.177-7.24-6.862-1.952-10.64-5.792-10.64-13.158,0-6.548,3.777-12.025,12.277-12.025,5.666,0,9.821,2.266,12.465,7.114l-5.414,3.903Z"/><polygon class="cls-2" points="305.182 74.357 305.182 80.716 290.387 80.716 290.387 92.174 303.608 92.174 303.608 98.47 290.387 98.47 290.387 111.502 305.182 111.502 305.182 117.798 283.084 117.798 283.084 74.357 305.182 74.357"/><polygon class="cls-2" points="318.403 111.502 333.198 111.502 333.198 117.798 311.1 117.798 311.1 74.357 318.403 74.357 318.403 111.502"/><polygon class="cls-2" points="359.641 74.357 359.641 80.716 344.846 80.716 344.846 92.174 358.067 92.174 358.067 98.47 344.846 98.47 344.846 111.502 359.641 111.502 359.641 117.798 337.543 117.798 337.543 74.357 359.641 74.357"/><path class="cls-2" d="M383.753,87.83c-.692-5.288-2.582-7.681-6.044-7.681-4.281,0-6.359,3.777-6.359,13.158v5.54c0,9.255,2.078,13.158,6.359,13.158,3.588,0,5.289-2.392,6.044-7.681h6.925c-1.259,9.758-5.729,14.04-12.969,14.04-8.059,0-13.662-5.855-13.662-19.517v-5.54c0-13.662,5.604-19.517,13.662-19.517,6.988,0,11.773,4.596,12.969,14.04h-6.925Z"/><polygon class="cls-2" points="418.948 74.357 418.948 80.716 409.19 80.716 409.19 117.798 401.886 117.798 401.886 80.716 392.128 80.716 392.128 74.357 418.948 74.357"/><path class="cls-6" d="M68.176,188.504v-7.325h18.78v-4.909l-.312-.468h-18.469v-7.325h14.026l-16.676-26.885h12.156l14.65,24.781,14.649-24.781h12.157l-16.599,26.885h13.949v7.325h-18.469l-.312.468v4.909h18.78v7.325h-18.78v15.274h-10.754v-15.274h-18.78Z"/><rect class="cls-4" x="62.09" y="95.802" width="60.488" height="17.067"/><rect class="cls-4" x="83.536" y="72.92" width="17.595" height="62.831"/><path class="cls-1" d="M173.949,205.03c-22.531,0-42.358-14.645-42.358-47.766v-63.988c0-33.121,19.827-47.766,42.358-47.766s42.358,14.645,42.358,47.766v63.988c0,33.121-19.827,47.766-42.358,47.766ZM157.501,155.912c0,17.574,4.957,26.587,16.448,26.587s16.447-9.012,16.447-26.587v-61.285c0-17.574-4.956-26.587-16.447-26.587s-16.448,9.012-16.448,26.587v61.285Z"/><path class="cls-6" d="M173.949,205.03c-22.531,0-42.358-14.645-42.358-47.766v-63.988c0-33.121,19.827-47.766,42.358-47.766s42.358,14.645,42.358,47.766v63.988c0,33.121-19.827,47.766-42.358,47.766ZM157.501,155.912c0,17.574,4.957,26.587,16.448,26.587s16.447-9.012,16.447-26.587v-61.285c0-17.574-4.956-26.587-16.447-26.587s-16.448,9.012-16.448,26.587v61.285Z"/></svg>