<?xml version="1.0" encoding="UTF-8"?><svg id="_レイヤー_1" xmlns="http://www.w3.org/2000/svg" viewBox="0 0 553.173 154.453"><defs><style>.cls-1{fill:#f5ff00;}.cls-1,.cls-2{stroke-width:0px;}.cls-2{fill:#f5695a;}</style></defs><path class="cls-1" d="M76.304,146.971H6.042v-16.604l38.27-56.291c7.087-10.731,10.124-19.641,10.124-29.36,0-12.756-6.277-19.236-13.769-19.236-8.1,0-13.364,6.682-13.972,19.236H5.434C5.434,21.025,22.038,5.434,41.679,5.434c20.451,0,36.042,16.198,36.042,39.687,0,17.616-9.517,32.195-16.401,42.521l-26.323,39.08h41.307v20.249Z"/><path class="cls-1" d="M109.061,146.119l-16.086,13.769v-39.67h16.086v25.901Z"/><path class="cls-1" d="M112.409,50.588V7.257h69.452v18.021l-33.005,121.693h-23.69l33.41-119.263h-25.918v22.881h-20.249Z"/><path class="cls-1" d="M191.376,107.892c0-15.794,7.897-28.551,16.806-33.41-9.111-5.67-15.186-17.414-15.186-30.575,0-24.096,17.818-38.472,37.055-38.472s37.055,14.376,37.055,38.472c0,13.162-6.075,24.905-15.187,30.575,8.909,4.859,16.806,17.616,16.806,33.41,0,25.513-17.616,40.901-38.674,40.901s-38.675-15.389-38.675-40.901ZM245.44,106.474c0-14.174-7.492-21.868-15.389-21.868s-15.389,7.694-15.389,21.868c0,12.757,6.075,22.071,15.389,22.071s15.389-9.314,15.389-22.071ZM230.051,65.572c8.099,0,13.971-8.302,13.971-20.046,0-11.542-5.872-19.641-13.971-19.641s-13.972,8.099-13.972,19.641c0,11.744,5.872,20.046,13.972,20.046Z"/><path class="cls-1" d="M322.383,148.793c-20.249,0-38.067-13.161-38.067-42.927v-57.505c0-29.765,17.818-42.926,38.067-42.926s38.067,13.161,38.067,42.926v57.505c0,29.766-17.818,42.927-38.067,42.927ZM307.602,104.651c0,15.794,4.455,23.894,14.781,23.894s14.781-8.1,14.781-23.894v-55.075c0-15.794-4.455-23.894-14.781-23.894s-14.781,8.1-14.781,23.894v55.075Z"/><path class="cls-1" d="M76.304,146.971H6.042v-16.604l38.27-56.291c7.087-10.731,10.124-19.641,10.124-29.36,0-12.756-6.277-19.236-13.769-19.236-8.1,0-13.364,6.682-13.972,19.236H5.434C5.434,21.025,22.038,5.434,41.679,5.434c20.451,0,36.042,16.198,36.042,39.687,0,17.616-9.517,32.195-16.401,42.521l-26.323,39.08h41.307v20.249Z"/><path class="cls-1" d="M109.061,146.119l-16.086,13.769v-39.67h16.086v25.901Z"/><path class="cls-1" d="M112.409,50.588V7.257h69.452v18.021l-33.005,121.693h-23.69l33.41-119.263h-25.918v22.881h-20.249Z"/><path class="cls-1" d="M191.376,107.892c0-15.794,7.897-28.551,16.806-33.41-9.111-5.67-15.186-17.414-15.186-30.575,0-24.096,17.818-38.472,37.055-38.472s37.055,14.376,37.055,38.472c0,13.162-6.075,24.905-15.187,30.575,8.909,4.859,16.806,17.616,16.806,33.41,0,25.513-17.616,40.901-38.674,40.901s-38.675-15.389-38.675-40.901ZM245.44,106.474c0-14.174-7.492-21.868-15.389-21.868s-15.389,7.694-15.389,21.868c0,12.757,6.075,22.071,15.389,22.071s15.389-9.314,15.389-22.071ZM230.051,65.572c8.099,0,13.971-8.302,13.971-20.046,0-11.542-5.872-19.641-13.971-19.641s-13.972,8.099-13.972,19.641c0,11.744,5.872,20.046,13.972,20.046Z"/><path class="cls-1" d="M322.383,148.793c-20.249,0-38.067-13.161-38.067-42.927v-57.505c0-29.765,17.818-42.926,38.067-42.926s38.067,13.161,38.067,42.926v57.505c0,29.766-17.818,42.927-38.067,42.927ZM307.602,104.651c0,15.794,4.455,23.894,14.781,23.894s14.781-8.1,14.781-23.894v-55.075c0-15.794-4.455-23.894-14.781-23.894s-14.781,8.1-14.781,23.894v55.075Z"/><path class="cls-1" d="M76.304,146.971H6.042v-16.604l38.27-56.291c7.087-10.731,10.124-19.641,10.124-29.36,0-12.756-6.277-19.236-13.769-19.236-8.1,0-13.364,6.682-13.972,19.236H5.434C5.434,21.025,22.038,5.434,41.679,5.434c20.451,0,36.042,16.198,36.042,39.687,0,17.616-9.517,32.195-16.401,42.521l-26.323,39.08h41.307v20.249Z"/><path class="cls-1" d="M109.061,146.119l-16.086,13.769v-39.67h16.086v25.901Z"/><path class="cls-1" d="M112.409,50.588V7.257h69.452v18.021l-33.005,121.693h-23.69l33.41-119.263h-25.918v22.881h-20.249Z"/><path class="cls-1" d="M191.376,107.892c0-15.794,7.897-28.551,16.806-33.41-9.111-5.67-15.186-17.414-15.186-30.575,0-24.096,17.818-38.472,37.055-38.472s37.055,14.376,37.055,38.472c0,13.162-6.075,24.905-15.187,30.575,8.909,4.859,16.806,17.616,16.806,33.41,0,25.513-17.616,40.901-38.674,40.901s-38.675-15.389-38.675-40.901ZM245.44,106.474c0-14.174-7.492-21.868-15.389-21.868s-15.389,7.694-15.389,21.868c0,12.757,6.075,22.071,15.389,22.071s15.389-9.314,15.389-22.071ZM230.051,65.572c8.099,0,13.971-8.302,13.971-20.046,0-11.542-5.872-19.641-13.971-19.641s-13.972,8.099-13.972,19.641c0,11.744,5.872,20.046,13.972,20.046Z"/><path class="cls-1" d="M322.383,148.793c-20.249,0-38.067-13.161-38.067-42.927v-57.505c0-29.765,17.818-42.926,38.067-42.926s38.067,13.161,38.067,42.926v57.505c0,29.766-17.818,42.927-38.067,42.927ZM307.602,104.651c0,15.794,4.455,23.894,14.781,23.894s14.781-8.1,14.781-23.894v-55.075c0-15.794-4.455-23.894-14.781-23.894s-14.781,8.1-14.781,23.894v55.075Z"/><path class="cls-1" d="M393.601,116.383c-1.672,10.031-4.236,21.3-18.283,31.394l-6.02-9.598c8.528-5.078,15.719-13.003,15.719-32.632v-5.139h-14.66v-10.093h52.73v10.093h-28.372c-.056,2.105-.167,5.077-.167,6.13h24.247c.056,15.852-1.561,29.783-2.453,33.437-1.728,7.121-5.741,7.493-10.479,7.493h-9.142l-1.784-10.588h8.026c1.84,0,3.01,0,3.902-2.229,1.003-2.538,1.728-9.783,1.784-18.266h-15.05Z"/><path class="cls-1" d="M467.285,125.3h-29.487v22.229h-9.476v-57.276h48.383v49.165c0,4.954-.669,8.112-7.581,8.112h-9.309l-1.617-10.712h7.414c1.672,0,1.672-.929,1.672-1.981v-9.536ZM437.798,115.455h10.089v-15.109h-10.089v15.109ZM457.084,115.455h10.201v-15.109h-10.201v15.109Z"/><path class="cls-1" d="M393.601,116.383c-1.672,10.031-4.236,21.3-18.283,31.394l-6.02-9.598c8.528-5.078,15.719-13.003,15.719-32.632v-5.139h-14.66v-10.093h52.73v10.093h-28.372c-.056,2.105-.167,5.077-.167,6.13h24.247c.056,15.852-1.561,29.783-2.453,33.437-1.728,7.121-5.741,7.493-10.479,7.493h-9.142l-1.784-10.588h8.026c1.84,0,3.01,0,3.902-2.229,1.003-2.538,1.728-9.783,1.784-18.266h-15.05Z"/><path class="cls-1" d="M467.285,125.3h-29.487v22.229h-9.476v-57.276h48.383v49.165c0,4.954-.669,8.112-7.581,8.112h-9.309l-1.617-10.712h7.414c1.672,0,1.672-.929,1.672-1.981v-9.536ZM437.798,115.455h10.089v-15.109h-10.089v15.109ZM457.084,115.455h10.201v-15.109h-10.201v15.109Z"/><path class="cls-1" d="M393.601,116.383c-1.672,10.031-4.236,21.3-18.283,31.394l-6.02-9.598c8.528-5.078,15.719-13.003,15.719-32.632v-5.139h-14.66v-10.093h52.73v10.093h-28.372c-.056,2.105-.167,5.077-.167,6.13h24.247c.056,15.852-1.561,29.783-2.453,33.437-1.728,7.121-5.741,7.493-10.479,7.493h-9.142l-1.784-10.588h8.026c1.84,0,3.01,0,3.902-2.229,1.003-2.538,1.728-9.783,1.784-18.266h-15.05Z"/><path class="cls-1" d="M467.285,125.3h-29.487v22.229h-9.476v-57.276h48.383v49.165c0,4.954-.669,8.112-7.581,8.112h-9.309l-1.617-10.712h7.414c1.672,0,1.672-.929,1.672-1.981v-9.536ZM437.798,115.455h10.089v-15.109h-10.089v15.109ZM457.084,115.455h10.201v-15.109h-10.201v15.109Z"/><path class="cls-1" d="M493.616,117.072c-4.559-5.719-4.829-11.087-4.829-12.787s.27-7.068,4.829-12.787h2.563c-2.887,3.669-4.613,8.12-4.613,12.787s1.754,9.118,4.613,12.787h-2.563Z"/><path class="cls-1" d="M501.629,95.167c-1.106.188-2.104.296-3.48.432l-.621-2.617c2.239-.162,5.584-.593,8.579-1.592l1.133,2.536c-.809.27-1.43.485-3.021.81v3.561h2.887v2.59h-2.887v.647c1.349,2.239,2.779,3.642,3.588,4.452l-1.349,2.725c-.647-.863-1.268-1.672-2.239-3.777v12.059h-2.59v-11.465c-.971,2.536-1.888,4.101-3.318,6.15l-1.187-3.183c1.619-1.861,3.103-4.208,4.316-7.608h-3.912v-2.59h4.101v-3.129ZM510.451,97.46c-.485-1.268-1.268-3.049-2.293-4.775l2.779-1.133c.971,1.619,1.511,2.94,2.32,5.018l-2.131.891h5.261c.647-1.133,1.916-3.318,3.021-6.043l2.752,1.16c-.351.782-.971,2.212-2.59,4.883h2.32v9.496h-3.858v6.744c0,.513.351.566.81.566h.566c.378,0,.486-.027.675-.323.216-.378.216-.702.296-3.48l2.86.566c-.297,4.667-.351,5.827-2.536,5.827h-3.237c-1.349,0-2.185-.216-2.185-2.05v-7.851h-2.158c-.54,5.719-2.455,7.742-6.313,10.062l-1.564-2.374c3.588-1.889,4.991-3.938,5.126-7.688h-2.32v-9.496h2.401ZM510.721,99.996v4.397h8.525v-4.397h-8.525Z"/><path class="cls-1" d="M524.561,101.992h5.935v8.633c1.78,2.833,4.047,2.833,5.719,2.833h13.839l-.513,2.751h-12.706c-4.91,0-6.556-2.077-7.473-3.264-1.106,1.376-2.59,2.887-3.777,3.858l-1.402-3.291c1.295-.729,2.455-1.538,3.615-2.509v-6.312h-3.237v-2.698ZM526.773,92.037c1.942,1.403,3.345,2.617,4.937,4.532l-2.023,2.051c-1.807-2.32-3.885-3.993-4.775-4.694l1.862-1.889ZM531.332,109.492c4.154-2.482,8.039-7.904,8.929-14.244h-5.719v-2.67h8.552c.351,9.415,3.642,13.866,7.176,17.077l-1.942,2.509c-4.262-4.235-5.908-8.228-6.771-12.059-1.402,4.883-4.559,8.849-8.147,11.897l-2.077-2.509Z"/><path class="cls-1" d="M551.216,117.072c2.887-3.642,4.613-8.12,4.613-12.787s-1.727-9.146-4.613-12.787h2.563c4.37,5.449,4.829,10.71,4.829,12.787s-.458,7.338-4.829,12.787h-2.563Z"/><path class="cls-1" d="M555.809,133.482c-7.014,8.921-16.616,8.921-18.115,8.921-5.38,0-7.832-1.362-15.254-5.312-5.244-2.86-7.763-3.609-11.1-3.609-8.104,0-11.85,4.971-13.007,6.538l-4.903-4.835c1.294-1.635,3.269-4.086,7.082-6.061,3.133-1.634,7.015-2.792,11.101-2.792,5.856,0,9.806,2.18,14.846,4.972,4.835,2.656,7.355,4.018,11.373,4.018,7.559,0,11.441-4.699,13.075-6.742l4.903,4.903Z"/><path class="cls-2" d="M70.87,141.536H.607v-16.604l38.27-56.291c7.087-10.731,10.124-19.641,10.124-29.36,0-12.756-6.277-19.236-13.769-19.236-8.1,0-13.364,6.682-13.972,19.236H0C0,15.591,16.604,0,36.245,0c20.451,0,36.042,16.198,36.042,39.687,0,17.616-9.517,32.195-16.401,42.521l-26.323,39.08h41.307v20.249Z"/><path class="cls-2" d="M103.626,140.685l-16.086,13.769v-39.67h16.086v25.901Z"/><path class="cls-2" d="M106.974,45.154V1.822h69.452v18.021l-33.005,121.693h-23.69l33.41-119.263h-25.918v22.881h-20.249Z"/><path class="cls-2" d="M185.942,102.457c0-15.794,7.897-28.551,16.806-33.41-9.111-5.67-15.186-17.414-15.186-30.575,0-24.096,17.818-38.472,37.055-38.472s37.055,14.376,37.055,38.472c0,13.162-6.075,24.905-15.187,30.575,8.909,4.859,16.806,17.616,16.806,33.41,0,25.513-17.616,40.901-38.674,40.901s-38.675-15.389-38.675-40.901ZM240.005,101.039c0-14.174-7.492-21.868-15.389-21.868s-15.389,7.694-15.389,21.868c0,12.757,6.075,22.071,15.389,22.071s15.389-9.314,15.389-22.071ZM224.617,60.138c8.099,0,13.971-8.302,13.971-20.046,0-11.542-5.872-19.641-13.971-19.641s-13.972,8.099-13.972,19.641c0,11.744,5.872,20.046,13.972,20.046Z"/><path class="cls-2" d="M316.949,143.358c-20.249,0-38.067-13.161-38.067-42.927v-57.505c0-29.765,17.818-42.926,38.067-42.926s38.067,13.161,38.067,42.926v57.505c0,29.766-17.818,42.927-38.067,42.927ZM302.167,99.217c0,15.794,4.455,23.894,14.781,23.894s14.781-8.1,14.781-23.894v-55.075c0-15.794-4.455-23.894-14.781-23.894s-14.781,8.1-14.781,23.894v55.075Z"/><path class="cls-2" d="M70.87,141.536H.607v-16.604l38.27-56.291c7.087-10.731,10.124-19.641,10.124-29.36,0-12.756-6.277-19.236-13.769-19.236-8.1,0-13.364,6.682-13.972,19.236H0C0,15.591,16.604,0,36.245,0c20.451,0,36.042,16.198,36.042,39.687,0,17.616-9.517,32.195-16.401,42.521l-26.323,39.08h41.307v20.249Z"/><path class="cls-2" d="M103.626,140.685l-16.086,13.769v-39.67h16.086v25.901Z"/><path class="cls-2" d="M106.974,45.154V1.822h69.452v18.021l-33.005,121.693h-23.69l33.41-119.263h-25.918v22.881h-20.249Z"/><path class="cls-2" d="M185.942,102.457c0-15.794,7.897-28.551,16.806-33.41-9.111-5.67-15.186-17.414-15.186-30.575,0-24.096,17.818-38.472,37.055-38.472s37.055,14.376,37.055,38.472c0,13.162-6.075,24.905-15.187,30.575,8.909,4.859,16.806,17.616,16.806,33.41,0,25.513-17.616,40.901-38.674,40.901s-38.675-15.389-38.675-40.901ZM240.005,101.039c0-14.174-7.492-21.868-15.389-21.868s-15.389,7.694-15.389,21.868c0,12.757,6.075,22.071,15.389,22.071s15.389-9.314,15.389-22.071ZM224.617,60.138c8.099,0,13.971-8.302,13.971-20.046,0-11.542-5.872-19.641-13.971-19.641s-13.972,8.099-13.972,19.641c0,11.744,5.872,20.046,13.972,20.046Z"/><path class="cls-2" d="M316.949,143.358c-20.249,0-38.067-13.161-38.067-42.927v-57.505c0-29.765,17.818-42.926,38.067-42.926s38.067,13.161,38.067,42.926v57.505c0,29.766-17.818,42.927-38.067,42.927ZM302.167,99.217c0,15.794,4.455,23.894,14.781,23.894s14.781-8.1,14.781-23.894v-55.075c0-15.794-4.455-23.894-14.781-23.894s-14.781,8.1-14.781,23.894v55.075Z"/><path class="cls-2" d="M70.87,141.536H.607v-16.604l38.27-56.291c7.087-10.731,10.124-19.641,10.124-29.36,0-12.756-6.277-19.236-13.769-19.236-8.1,0-13.364,6.682-13.972,19.236H0C0,15.591,16.604,0,36.245,0c20.451,0,36.042,16.198,36.042,39.687,0,17.616-9.517,32.195-16.401,42.521l-26.323,39.08h41.307v20.249Z"/><path class="cls-2" d="M103.626,140.685l-16.086,13.769v-39.67h16.086v25.901Z"/><path class="cls-2" d="M106.974,45.154V1.822h69.452v18.021l-33.005,121.693h-23.69l33.41-119.263h-25.918v22.881h-20.249Z"/><path class="cls-2" d="M185.942,102.457c0-15.794,7.897-28.551,16.806-33.41-9.111-5.67-15.186-17.414-15.186-30.575,0-24.096,17.818-38.472,37.055-38.472s37.055,14.376,37.055,38.472c0,13.162-6.075,24.905-15.187,30.575,8.909,4.859,16.806,17.616,16.806,33.41,0,25.513-17.616,40.901-38.674,40.901s-38.675-15.389-38.675-40.901ZM240.005,101.039c0-14.174-7.492-21.868-15.389-21.868s-15.389,7.694-15.389,21.868c0,12.757,6.075,22.071,15.389,22.071s15.389-9.314,15.389-22.071ZM224.617,60.138c8.099,0,13.971-8.302,13.971-20.046,0-11.542-5.872-19.641-13.971-19.641s-13.972,8.099-13.972,19.641c0,11.744,5.872,20.046,13.972,20.046Z"/><path class="cls-2" d="M316.949,143.358c-20.249,0-38.067-13.161-38.067-42.927v-57.505c0-29.765,17.818-42.926,38.067-42.926s38.067,13.161,38.067,42.926v57.505c0,29.766-17.818,42.927-38.067,42.927ZM302.167,99.217c0,15.794,4.455,23.894,14.781,23.894s14.781-8.1,14.781-23.894v-55.075c0-15.794-4.455-23.894-14.781-23.894s-14.781,8.1-14.781,23.894v55.075Z"/><path class="cls-2" d="M388.167,110.949c-1.672,10.031-4.236,21.3-18.283,31.394l-6.02-9.598c8.528-5.078,15.719-13.003,15.719-32.632v-5.139h-14.66v-10.093h52.73v10.093h-28.372c-.056,2.105-.167,5.077-.167,6.13h24.247c.056,15.852-1.561,29.783-2.453,33.437-1.728,7.121-5.741,7.493-10.479,7.493h-9.142l-1.784-10.588h8.026c1.84,0,3.01,0,3.902-2.229,1.003-2.538,1.728-9.783,1.784-18.266h-15.05Z"/><path class="cls-2" d="M461.85,119.865h-29.487v22.229h-9.476v-57.276h48.383v49.165c0,4.954-.669,8.112-7.581,8.112h-9.309l-1.617-10.712h7.414c1.672,0,1.672-.929,1.672-1.981v-9.536ZM432.363,110.02h10.089v-15.109h-10.089v15.109ZM451.649,110.02h10.201v-15.109h-10.201v15.109Z"/><path class="cls-2" d="M388.167,110.949c-1.672,10.031-4.236,21.3-18.283,31.394l-6.02-9.598c8.528-5.078,15.719-13.003,15.719-32.632v-5.139h-14.66v-10.093h52.73v10.093h-28.372c-.056,2.105-.167,5.077-.167,6.13h24.247c.056,15.852-1.561,29.783-2.453,33.437-1.728,7.121-5.741,7.493-10.479,7.493h-9.142l-1.784-10.588h8.026c1.84,0,3.01,0,3.902-2.229,1.003-2.538,1.728-9.783,1.784-18.266h-15.05Z"/><path class="cls-2" d="M461.85,119.865h-29.487v22.229h-9.476v-57.276h48.383v49.165c0,4.954-.669,8.112-7.581,8.112h-9.309l-1.617-10.712h7.414c1.672,0,1.672-.929,1.672-1.981v-9.536ZM432.363,110.02h10.089v-15.109h-10.089v15.109ZM451.649,110.02h10.201v-15.109h-10.201v15.109Z"/><path class="cls-2" d="M388.167,110.949c-1.672,10.031-4.236,21.3-18.283,31.394l-6.02-9.598c8.528-5.078,15.719-13.003,15.719-32.632v-5.139h-14.66v-10.093h52.73v10.093h-28.372c-.056,2.105-.167,5.077-.167,6.13h24.247c.056,15.852-1.561,29.783-2.453,33.437-1.728,7.121-5.741,7.493-10.479,7.493h-9.142l-1.784-10.588h8.026c1.84,0,3.01,0,3.902-2.229,1.003-2.538,1.728-9.783,1.784-18.266h-15.05Z"/><path class="cls-2" d="M461.85,119.865h-29.487v22.229h-9.476v-57.276h48.383v49.165c0,4.954-.669,8.112-7.581,8.112h-9.309l-1.617-10.712h7.414c1.672,0,1.672-.929,1.672-1.981v-9.536ZM432.363,110.02h10.089v-15.109h-10.089v15.109ZM451.649,110.02h10.201v-15.109h-10.201v15.109Z"/><path class="cls-2" d="M488.181,111.638c-4.559-5.719-4.829-11.087-4.829-12.787s.27-7.068,4.829-12.787h2.563c-2.887,3.669-4.613,8.12-4.613,12.787s1.754,9.118,4.613,12.787h-2.563Z"/><path class="cls-2" d="M496.194,89.732c-1.106.188-2.104.296-3.48.432l-.621-2.617c2.239-.162,5.584-.593,8.579-1.592l1.133,2.536c-.809.27-1.43.485-3.021.81v3.561h2.887v2.59h-2.887v.647c1.349,2.239,2.779,3.642,3.588,4.452l-1.349,2.725c-.647-.863-1.268-1.672-2.239-3.777v12.059h-2.59v-11.465c-.971,2.536-1.888,4.101-3.318,6.15l-1.187-3.183c1.619-1.861,3.103-4.208,4.316-7.608h-3.912v-2.59h4.101v-3.129ZM505.016,92.025c-.485-1.268-1.268-3.049-2.293-4.775l2.779-1.133c.971,1.619,1.511,2.94,2.32,5.018l-2.131.891h5.261c.647-1.133,1.916-3.318,3.021-6.043l2.752,1.16c-.351.782-.971,2.212-2.59,4.883h2.32v9.496h-3.858v6.744c0,.513.351.566.81.566h.566c.378,0,.486-.027.675-.323.216-.378.216-.702.296-3.48l2.86.566c-.297,4.667-.351,5.827-2.536,5.827h-3.237c-1.349,0-2.185-.216-2.185-2.05v-7.851h-2.158c-.54,5.719-2.455,7.742-6.313,10.062l-1.564-2.374c3.588-1.889,4.991-3.938,5.126-7.688h-2.32v-9.496h2.401ZM505.286,94.561v4.397h8.525v-4.397h-8.525Z"/><path class="cls-2" d="M519.126,96.558h5.935v8.633c1.78,2.833,4.047,2.833,5.719,2.833h13.839l-.513,2.751h-12.706c-4.91,0-6.556-2.077-7.473-3.264-1.106,1.376-2.59,2.887-3.777,3.858l-1.402-3.291c1.295-.729,2.455-1.538,3.615-2.509v-6.312h-3.237v-2.698ZM521.339,86.603c1.942,1.403,3.345,2.617,4.937,4.532l-2.023,2.051c-1.807-2.32-3.885-3.993-4.775-4.694l1.862-1.889ZM525.898,104.057c4.154-2.482,8.039-7.904,8.929-14.244h-5.719v-2.67h8.552c.351,9.415,3.642,13.866,7.176,17.077l-1.942,2.509c-4.262-4.235-5.908-8.228-6.771-12.059-1.402,4.883-4.559,8.849-8.147,11.897l-2.077-2.509Z"/><path class="cls-2" d="M545.781,111.638c2.887-3.642,4.613-8.12,4.613-12.787s-1.727-9.146-4.613-12.787h2.563c4.37,5.449,4.829,10.71,4.829,12.787s-.458,7.338-4.829,12.787h-2.563Z"/><path class="cls-2" d="M550.375,128.047c-7.014,8.921-16.616,8.921-18.115,8.921-5.38,0-7.832-1.362-15.254-5.312-5.244-2.86-7.763-3.609-11.1-3.609-8.104,0-11.85,4.971-13.007,6.538l-4.903-4.835c1.294-1.635,3.269-4.086,7.082-6.061,3.133-1.634,7.015-2.792,11.101-2.792,5.856,0,9.806,2.18,14.846,4.972,4.835,2.656,7.355,4.018,11.373,4.018,7.559,0,11.441-4.699,13.075-6.742l4.903,4.903Z"/></svg>