<?xml version="1.0" encoding="UTF-8"?><svg id="_レイヤー_1" xmlns="http://www.w3.org/2000/svg" viewBox="0 0 259.524 64.669"><defs><style>.cls-1{stroke-width:0px;}.cls-1,.cls-2{fill:#af8c70;}.cls-2{stroke:#af8c70;stroke-miterlimit:10;stroke-width:1.507px;}</style></defs><path class="cls-2" d="M29.594,16.477c-2.225-4.184-4.807-6.586-9.702-6.586-4.984,0-7.298,2.848-7.298,8.01,0,5.875,3.204,8.188,9.879,10.058,10.502,2.937,15.309,7.743,15.309,18.335,0,9.167-5.518,17.623-17.445,17.623-8.722,0-14.953-3.205-19.314-10.058l7.921-5.519c2.938,4.361,5.519,6.586,10.77,6.586,5.963,0,7.744-3.738,7.744-8.188,0-4.895-1.958-7.921-10.146-10.235-9.702-2.759-15.042-8.188-15.042-18.602C2.27,8.644,7.61.9,19.626.9c8.01,0,13.885,3.205,17.623,10.058l-7.654,5.519Z"/><path class="cls-2" d="M77.925,1.702v8.989h-20.916v16.199h18.691v8.9h-18.691v18.424h20.916v8.9h-31.241V1.702h31.241Z"/><path class="cls-2" d="M96.616,54.214h20.916v8.9h-31.241V1.702h10.325v52.513Z"/><path class="cls-2" d="M154.916,1.702v8.989h-20.916v16.199h18.69v8.9h-18.69v18.424h20.916v8.9h-31.241V1.702h31.241Z"/><path class="cls-2" d="M189.005,20.749c-.979-7.477-3.649-10.858-8.545-10.858-6.052,0-8.989,5.34-8.989,18.602v7.832c0,13.084,2.938,18.602,8.989,18.602,5.073,0,7.477-3.382,8.545-10.858h9.79c-1.78,13.795-8.1,19.848-18.335,19.848-11.393,0-19.313-8.278-19.313-27.592v-7.832c0-19.314,7.92-27.592,19.313-27.592,9.88,0,16.645,6.498,18.335,19.848h-9.79Z"/><path class="cls-2" d="M238.762,1.702v8.989h-13.796v52.424h-10.325V10.691h-13.795V1.702h37.916Z"/><path class="cls-1" d="M259.524,0l-1.355,45.373h-9.25l-1.355-45.373h11.961ZM247.722,52.231h11.562v11.403h-11.562v-11.403Z"/></svg>