<svg id="レイヤー_1" data-name="レイヤー 1" xmlns="http://www.w3.org/2000/svg" viewBox="0 0 800 50"><defs><style>.cls-1{fill:none;}.cls-2{fill:#F1FF00;}.cls-3{fill:#000;}.cls-4{fill:#fff;}</style></defs><rect class="cls-1" width="800" height="50"/><rect class="cls-2" x="533.33" width="266.67" height="50"/><path class="cls-3" d="M642.94,23.72a7.32,7.32,0,0,0,1.36.09h1.27a10.85,10.85,0,0,0,1.3-.07,14.57,14.57,0,0,0-.07,1.83v3.56a2.53,2.53,0,0,0,1,1.08c.78.52,1.68.65,4.23.65a49,49,0,0,0,6.81-.37,8.06,8.06,0,0,0-.51,2l-1.88.07c-.51,0-3,0-3.88,0a19.66,19.66,0,0,1-4.25-.3,4.09,4.09,0,0,1-2.38-1.64,15.28,15.28,0,0,1-2,1.64,5.88,5.88,0,0,0-.56.44l-.82-1.94A9.26,9.26,0,0,0,645,29.13V25.47h-.93a6.05,6.05,0,0,0-1.14.09Zm1.48-6.19a24.38,24.38,0,0,1,2.94,3.06L646,22a18.7,18.7,0,0,0-2.89-3.18Zm5.16,4.19a14.6,14.6,0,0,0-1.53.08V20a14.84,14.84,0,0,0,1.55.08h.66a8.29,8.29,0,0,0-1.2-2.19l1.63-.76A12,12,0,0,1,652,19.35l-1.48.73h2.74a13.89,13.89,0,0,0,1.37-2.94l1.84.62a12.6,12.6,0,0,0-.6,1.12c-.24.44-.42.78-.68,1.2h1a9.56,9.56,0,0,0,1.49-.08v1.8c-.56-.05-1.07-.08-1.63-.08h-2.43a17,17,0,0,1-.08,1.93h3.23a9.88,9.88,0,0,0,1.53-.08V25.4c-.56,0-1.09-.08-1.69-.08H653.8A5.59,5.59,0,0,0,655.23,27a8.29,8.29,0,0,0,3.13,1.52,5.11,5.11,0,0,0-.85,1.8,8.49,8.49,0,0,1-3.22-1.77,7.32,7.32,0,0,1-1.59-1.9,5.71,5.71,0,0,1-1.57,2.05,9.05,9.05,0,0,1-2.46,1.57,4.58,4.58,0,0,0-1.19-1.62A7.74,7.74,0,0,0,650,27.31a4.71,4.71,0,0,0,1.34-2H649a15.15,15.15,0,0,0-1.58.08V23.57a15,15,0,0,0,1.58.08h2.67a14.28,14.28,0,0,0,.08-1.93Z"/><path class="cls-3" d="M663.24,31a18,18,0,0,0,.08,2h-2a19.27,19.27,0,0,0,.1-2V25.91c0-.59,0-.64,0-1.88a10.09,10.09,0,0,1-1.26,1.83,10.59,10.59,0,0,0-.78-2,12.53,12.53,0,0,0,2.58-4.37,10.06,10.06,0,0,0,.63-2.34l1.87.64c0,.17-.17.51-.34,1a18.06,18.06,0,0,1-1,2.5Zm.9-10.75a8.13,8.13,0,0,0,1.41.09h8.28a9.86,9.86,0,0,0,1.59-.1V22a14,14,0,0,0-1.59-.09h-8.28a8.64,8.64,0,0,0-1.41.09ZM666.77,33h-1.83A14.23,14.23,0,0,0,665,31.4V29a12.41,12.41,0,0,0-.07-1.46c.36,0,.82.05,1.4.05h6.44c.66,0,1.07,0,1.44-.05a11.86,11.86,0,0,0-.06,1.44v2.38a11.09,11.09,0,0,0,.08,1.6h-1.87v-.78h-5.61Zm7.4-8.64a9.87,9.87,0,0,0-1.33-.07h-6.51a8,8,0,0,0-1.21.07V22.74a7.75,7.75,0,0,0,1.21.06h6.49a10.69,10.69,0,0,0,1.35-.06Zm0,2.4a10,10,0,0,0-1.31-.07h-6.53a7.36,7.36,0,0,0-1.21.07V25.13a7.69,7.69,0,0,0,1.21.07h6.51a10.07,10.07,0,0,0,1.33-.07Zm0-7.26a15.23,15.23,0,0,0-1.67-.07h-5.73a12.35,12.35,0,0,0-1.53.07V17.86a11.29,11.29,0,0,0,1.68.1h5.44a12,12,0,0,0,1.81-.1Zm-1.79,11.1V29.16h-5.61v1.43Z"/><path class="cls-3" d="M679.08,26.54a12,12,0,0,0-1.82.11V24.79a9.61,9.61,0,0,0,1.82.1h11.13a9.73,9.73,0,0,0,1.81-.1v1.86a12.37,12.37,0,0,0-1.81-.11h-3.12v3.88c0,.41.22.48,1.63.48,1.26,0,1.65-.11,1.77-.46a6,6,0,0,0,.15-1.45V28.7a6,6,0,0,0,1.75.53c-.07,1.7-.27,2.45-.78,2.87s-1.19.51-3.37.51c-2.55,0-3-.24-3-1.46V26.54h-1.87a6.69,6.69,0,0,1-.87,3.23c-.83,1.46-1.92,2.21-4.66,3.27a7.73,7.73,0,0,0-1-1.75,11.24,11.24,0,0,0,2.58-1,3.88,3.88,0,0,0,2-2.84c0-.27.07-.44.12-.92Zm4.44-8a6.34,6.34,0,0,0-.11-1.24h2.09a7.06,7.06,0,0,0-.08,1.24v.41h4.71c.87,0,1.31,0,1.89-.07a7.64,7.64,0,0,0-.07,1.29v1.4a8.12,8.12,0,0,0,.07,1.3h-1.84V20.59H679.11v2.26h-1.85a9.42,9.42,0,0,0,.09-1.32V20.15a9.33,9.33,0,0,0-.07-1.29,18.51,18.51,0,0,0,1.85.07h4.39Zm-3.83,3.3a10.1,10.1,0,0,0,1.62.08H688a10.39,10.39,0,0,0,1.63-.08v1.82a10.26,10.26,0,0,0-1.63-.09h-6.66a10,10,0,0,0-1.62.09Z"/><path class="cls-3" d="M697.08,19.88a18.26,18.26,0,0,0-2.33.12V18c.65.06,1.33.1,2.32.1h8.68A14.67,14.67,0,0,0,707.6,18l1.16,1.31a8.08,8.08,0,0,1-.68.65,25.79,25.79,0,0,1-5.4,4.18V31c0,1.24-.63,1.67-2.52,1.67-.65,0-.87,0-2.4-.11a8.24,8.24,0,0,0-.49-2,15.18,15.18,0,0,0,2.67.25c.59,0,.76-.08.76-.4V24.08a15.74,15.74,0,0,0-.08-1.7h1.51a14.58,14.58,0,0,0,3.43-2.5Z"/><path class="cls-3" d="M631.57,25a10.91,10.91,0,0,1-11.05,10.7h-43a10.91,10.91,0,0,1-11-10.7,10.91,10.91,0,0,1,11-10.7h43A10.91,10.91,0,0,1,631.57,25Z"/><path class="cls-4" d="M576.8,27.48a1.88,1.88,0,0,0,.36,1.12,2.24,2.24,0,0,0,1.86.75c1.28,0,2-.57,2-1.53a1.3,1.3,0,0,0-.63-1.17,8.11,8.11,0,0,0-2.22-.62,4.65,4.65,0,0,1-1.93-.78,2.51,2.51,0,0,1-1-2.07c0-1.77,1.43-2.92,3.62-2.92a3.77,3.77,0,0,1,3.18,1.29,3.36,3.36,0,0,1,.62,1.48l-1.82.21a1.7,1.7,0,0,0-.38-.9,2,2,0,0,0-1.6-.61c-1.11,0-1.86.56-1.86,1.39a1.22,1.22,0,0,0,.87,1.16,11.48,11.48,0,0,0,1.79.46,5.4,5.4,0,0,1,2.08.78,2.49,2.49,0,0,1,1.06,2.19,3,3,0,0,1-.8,2.17,4.23,4.23,0,0,1-3,1,5.1,5.1,0,0,1-2.68-.67,3,3,0,0,1-1.12-1.45,3.89,3.89,0,0,1-.24-1.06Z"/><path class="cls-4" d="M588.89,29a11.46,11.46,0,0,0,.1,1.66h-1.92a11.55,11.55,0,0,0,.1-1.66V22h-1.72a13.38,13.38,0,0,0-1.75.09V20.4a13.53,13.53,0,0,0,1.74.09h5a14,14,0,0,0,1.87-.09v1.71a13.88,13.88,0,0,0-1.87-.09h-1.6Z"/><path class="cls-4" d="M600.7,30.73a11.54,11.54,0,0,0-1.65-.09h-4c-.76,0-1.11,0-1.61,0a11.11,11.11,0,0,0,.1-1.68V22.1a12.29,12.29,0,0,0-.1-1.65c.5,0,.84,0,1.61,0h3.86a14.36,14.36,0,0,0,1.64-.09v1.68a11.87,11.87,0,0,0-1.64-.09h-3.68v2.63h3.1a12.13,12.13,0,0,0,1.66-.09V26.2a10.76,10.76,0,0,0-1.66-.09h-3.11v3h3.83A12.87,12.87,0,0,0,600.7,29Z"/><path class="cls-4" d="M602.19,30.64a11.08,11.08,0,0,0,.1-1.64V22.1a12.5,12.5,0,0,0-.1-1.65c.55,0,.94,0,1.62,0h2.66a3.63,3.63,0,0,1,2.72.9,3,3,0,0,1,.79,2.2,3.29,3.29,0,0,1-.85,2.35,3.65,3.65,0,0,1-2.72.91H604V29a9.78,9.78,0,0,0,.11,1.66Zm4.22-5.25a1.61,1.61,0,0,0,1.81-1.75,1.71,1.71,0,0,0-.42-1.22,1.73,1.73,0,0,0-1.39-.46H604v3.43Z"/><path class="cls-4" d="M616.94,27.88a1.66,1.66,0,0,0,.6,1,2.41,2.41,0,0,0,1.54.5c1.27,0,2.07-.65,2.07-1.66a1.5,1.5,0,0,0-.71-1.34,3.31,3.31,0,0,0-1.47-.31,11.15,11.15,0,0,0-1.37.07V24.6a9,9,0,0,0,1.24.06c1.28,0,2-.59,2-1.57s-.6-1.38-1.68-1.38a2.13,2.13,0,0,0-1.4.4,1.88,1.88,0,0,0-.53,1l-1.82-.3A3.11,3.11,0,0,1,616.65,21a4.15,4.15,0,0,1,2.5-.7c2.13,0,3.51,1.07,3.51,2.73a2.34,2.34,0,0,1-.88,1.87,3.24,3.24,0,0,1-1.24.5,2.66,2.66,0,0,1,1.82.86A2.44,2.44,0,0,1,623,28a2.69,2.69,0,0,1-.76,1.86,4.38,4.38,0,0,1-3.14,1,4,4,0,0,1-3.24-1.21,3.39,3.39,0,0,1-.71-1.43Z"/></svg>