<svg id="レイヤー_1" data-name="レイヤー 1" xmlns="http://www.w3.org/2000/svg" viewBox="0 0 264 217"><defs><style>.cls-1{fill:#fff;}.cls-2{fill:#004021;}</style></defs><rect class="cls-1" width="264" height="217"/><path d="M30.456,59.575A8.362,8.362,0,0,1,29,61.036a4.536,4.536,0,0,0-1.1-1.114,5.853,5.853,0,0,0,2.289-2.817l1.611.3a9.329,9.329,0,0,1-.452.829h2.064a7.284,7.284,0,0,0,1.339-.076v1.175a4.836,4.836,0,0,0,1.311-2.214l1.611.256c-.24.527-.271.588-.406.874h2.967a9.476,9.476,0,0,0,1.476-.075V59.65a11.518,11.518,0,0,0-1.4-.06h-1.4a8.784,8.784,0,0,1,.572,1.024l-1.491.437a7.716,7.716,0,0,0-.707-1.461h-.844a8.352,8.352,0,0,1-.919,1.054v.3l-.015.24h4.232c.858,0,1.13-.014,1.626-.044a5.14,5.14,0,0,0-.045.933v1.054a5.939,5.939,0,0,0,.06.994H39.748V62.482H30.036v1.641h-1.6a8.583,8.583,0,0,0,.06-.994V62.105a5.441,5.441,0,0,0-.06-.963c.453.03.709.044,1.582.044h3.9v-.24a3.368,3.368,0,0,0-.045-.723h1.039a4.282,4.282,0,0,0-.693-.467l.227-.166c-.256-.015-.422-.015-.678-.015h-.994c.241.422.332.617.512.994l-1.461.5a6.651,6.651,0,0,0-.557-1.491Zm-.059,11.6a13.728,13.728,0,0,0,.09-1.672V64.078a6.046,6.046,0,0,0-.061-.994,10.218,10.218,0,0,0,1.266.06h6.144a10.25,10.25,0,0,0,1.3-.06,7.028,7.028,0,0,0-.045,1.024v1.13a8.667,8.667,0,0,0,.045,1.175c-.377-.03-.722-.046-1.234-.046H32.069v.723H38.53a9.1,9.1,0,0,0,1.234-.06,10.255,10.255,0,0,0-.06,1.25V69.8a9.658,9.658,0,0,0,.076,1.371H38.122v-.648H32.069v.648Zm1.672-5.994H37.52v-.8H32.069Zm0,4.1h6.053V68.3H32.069Z"/><path d="M45.631,59.485a6.394,6.394,0,0,0-1.131.075V57.934a8.092,8.092,0,0,0,1.372.09H48a6.592,6.592,0,0,0,1.34-.09v1.611a8.752,8.752,0,0,0-1.114-.06H47.77v2.937h.346a4.686,4.686,0,0,0,.949-.076v1.537a6.2,6.2,0,0,0-.949-.061H47.77v2.967c.632-.271.812-.346,1.475-.678l.045,1.6c-1.31.647-1.9.9-4.231,1.852l-.3.121-.407-1.7a12.947,12.947,0,0,0,1.854-.572V63.822h-.5a5.272,5.272,0,0,0-1.023.075V62.346a5.506,5.506,0,0,0,1.055.076H46.2V59.485Zm7.274,8.193H51.233a12.423,12.423,0,0,0-1.567.06V66.2a9.063,9.063,0,0,0,1.552.075h1.687V65.042H51.474c-1.009,0-1.355.015-1.808.045.032-.346.032-.346.061-1.867v-3.4a16.668,16.668,0,0,0-.075-2.018,18,18,0,0,0,2.033.075h4.157a13.136,13.136,0,0,0,1.943-.075c-.046.437-.061,1.144-.061,2.063v3.208a19.94,19.94,0,0,0,.061,2.018,15.5,15.5,0,0,0-1.642-.045H54.411v1.235h1.927a10.54,10.54,0,0,0,1.6-.075v1.551a10.792,10.792,0,0,0-1.581-.075H54.411v1.551h2.424a10.369,10.369,0,0,0,1.6-.076v1.612a12.688,12.688,0,0,0-1.7-.076H50.389a13.109,13.109,0,0,0-1.7.076V69.153a9.383,9.383,0,0,0,1.521.076h2.7Zm-1.672-8.344V60.84h1.672V59.334Zm0,2.771v1.521h1.672V62.105Zm3.178-1.265h1.747V59.334H54.411Zm0,2.786h1.747V62.105H54.411Z"/><path d="M73.44,61.458c.663,0,.933-.016,1.281-.045-.046.256-.046.256-.137,1.023-.179,1.266-.421,1.552-1.445,1.612v3.464a15.125,15.125,0,0,0,.061,1.6c-.317-.03-.979-.045-1.6-.045H70.88a10.209,10.209,0,0,0,4.112.979,7.3,7.3,0,0,0-.934,1.355,12.136,12.136,0,0,1-4.909-1.716l.828-.618H66.061l.753.618a12.328,12.328,0,0,1-4.759,1.732,6.062,6.062,0,0,0-.919-1.311,11.691,11.691,0,0,0,4.021-1.039H64.45c-.649,0-1.25.015-1.6.045.03-.271.06-.858.06-1.506V64.8c-.407.151-.618.211-1.2.391l-.12-.27a3.628,3.628,0,0,0-.6-1.07,7.484,7.484,0,0,0,3.449-1.295H62.762c-.316,0-.828.015-1.25.03a9.2,9.2,0,0,0,.874-2.741c.3.03.663.046,1.265.046h1.972c.032-.362.046-.362.046-.528h-2.44a8.579,8.579,0,0,0-1.445.075v-1.31a8.9,8.9,0,0,0,1.445.076h2.485a5.824,5.824,0,0,0-.059-.949h1.611a7.451,7.451,0,0,0-.061.949h1.687a4.171,4.171,0,0,0-.075-.949h1.641a4.482,4.482,0,0,0-.075.949h2.048a13.491,13.491,0,0,0,1.476-.076,7.768,7.768,0,0,0-.06,1.175v.6a7.065,7.065,0,0,0,.045,1.07c-.481-.03-.934-.045-1.476-.045H70.383v.527Zm-9.759-.527a3.39,3.39,0,0,1-.181.527h1.778c.075-.211.1-.3.18-.527Zm.783,3.93h7.109v-.527H64.464Zm0,1.522h7.109v-.558H64.464Zm0,1.52h7.109v-.556H64.464Zm4.428-5.346H66.3a3.382,3.382,0,0,1-.678.738h3.269Zm-1.928-1.626c-.059.225-.075.3-.135.527h2.063v-.527Zm.2-1.567c0,.211-.016.286-.032.528h1.763v-.528Zm3.222.528h1.9v-.528h-1.9Zm1.551,3.4a1.717,1.717,0,0,0-.15-.406,3.491,3.491,0,0,0,.843.135c.3,0,.362-.06.407-.467H70.383V63.3h1.551Z"/><path d="M82.935,69.139a4.21,4.21,0,0,1-.993-1.522,10.045,10.045,0,0,1-.588-3.464,8.867,8.867,0,0,1,.918-4.171,4.283,4.283,0,0,1,3.841-2.093,4.371,4.371,0,0,1,3.177,1.219,4.225,4.225,0,0,1,.995,1.521,10.149,10.149,0,0,1,.587,3.494,7.916,7.916,0,0,1-1.114,4.458,4.276,4.276,0,0,1-3.66,1.777A4.344,4.344,0,0,1,82.935,69.139Zm4.8-1.16a5.815,5.815,0,0,0,1.053-3.871,5.849,5.849,0,0,0-1.053-3.855A2.178,2.178,0,0,0,86.1,59.62a2.024,2.024,0,0,0-1.687.769,5.614,5.614,0,0,0-1,3.659,6.789,6.789,0,0,0,.769,3.585,2.4,2.4,0,0,0,3.555.346Z"/><path d="M99.8,69.3a10.9,10.9,0,0,0,.077,1.747H98.019a14.33,14.33,0,0,0,.091-1.807v-9.85a12.989,12.989,0,0,0-.061-1.445,16.242,16.242,0,0,0,1.672.06h9.156a13.868,13.868,0,0,0,1.642-.06,14.875,14.875,0,0,0-.06,1.641v9.654c0,.768-.181,1.19-.618,1.416a3.712,3.712,0,0,1-1.581.211c-.588,0-1.416-.031-2-.061a5.749,5.749,0,0,0-.467-1.626c1,.105,1.749.166,2.29.166.587,0,.677-.046.677-.407V65.268H99.8Zm3.571-9.7H99.8v4.081h3.571Zm5.39,4.081V59.605h-3.764v4.081Z"/><path d="M29.569,92.6a17.3,17.3,0,0,1-.664,4.307l-1.174-.543a12.412,12.412,0,0,0,.723-3.975ZM32.6,90.67h.618a8.358,8.358,0,0,0,1.25-.061,3.031,3.031,0,0,0-.031.573,31.384,31.384,0,0,1-.346,4.337c-.166.964-.377,1.4-.813,1.657a2.853,2.853,0,0,1-1.552.256h-.406v-.181a3.127,3.127,0,0,0-.286-1.356,5.337,5.337,0,0,0,.964.091c.5,0,.632-.105.754-.588a13.681,13.681,0,0,0,.3-3.418H29.884c-.572,0-.948.015-1.341.045a11.718,11.718,0,0,0,.061-1.476V85.911a18.107,18.107,0,0,0-.061-1.823,11.928,11.928,0,0,0,1.688.076H32.9a12.958,12.958,0,0,0,1.641-.076V85.6a7.726,7.726,0,0,0-1.265-.076H32.6v.9h.5a7.4,7.4,0,0,0,1.145-.061v1.325a8.373,8.373,0,0,0-1.145-.06h-.5v.844h.5a7.558,7.558,0,0,0,1.145-.06v1.34a8.216,8.216,0,0,0-1.145-.06h-.5Zm-2.048,1.822a22.209,22.209,0,0,1,.226,3.614l-.964.136c.03-.618.03-.873.03-1.4,0-.994-.014-1.326-.075-2.23Zm.662-6.973H30.065v.9h1.144Zm0,2.108H30.065v.844h1.144Zm-1.144,2.064v.979h1.144v-.979Zm1.445,2.726a16.462,16.462,0,0,1,.483,2.936l-.829.271A14.09,14.09,0,0,0,30.8,92.6Zm.9-.121a8.671,8.671,0,0,1,.528,2l-.708.316a10.606,10.606,0,0,0-.437-2.123Zm7.094-2.334a11.228,11.228,0,0,0,.859,3.644,6.931,6.931,0,0,0,1.656,2.47,4.25,4.25,0,0,0-1.2,1.491,10.727,10.727,0,0,1-1.928-3.373,14.337,14.337,0,0,1-.844-4.232H36.8a25.864,25.864,0,0,1-.332,4.172,11.151,11.151,0,0,1-1.144,3.418,4.253,4.253,0,0,0-1.385-.933c1.114-1.838,1.37-3.75,1.37-10.3a17.886,17.886,0,0,0-.075-2.108,12.284,12.284,0,0,0,1.717.075H39.7a11.082,11.082,0,0,0,1.641-.075,12.516,12.516,0,0,0-.059,1.626v2.53a14.941,14.941,0,0,0,.059,1.642c-.286-.03-.737-.045-1.325-.045Zm.226-1.431V85.715H36.842v1.852c-.015.317-.015.512-.015.557v.407Z"/><path d="M44.577,89.39a6.963,6.963,0,0,0,1.2.075h1.324a6.868,6.868,0,0,0,1.145-.075,15.443,15.443,0,0,0-.06,1.656v3.027a2.831,2.831,0,0,0,1.19,1.1c.6.346,1.446.451,3.719.451a46.055,46.055,0,0,0,5.572-.271,6.945,6.945,0,0,0-.451,1.748c-1.175.06-3.976.12-5.09.12-3.4,0-4.488-.331-5.709-1.717a17.533,17.533,0,0,1-2.048,1.7,1.242,1.242,0,0,0-.286.211l-.738-1.762a.947.947,0,0,1,.241-.106A10.241,10.241,0,0,0,46.624,94.1V91.031H45.616a6.048,6.048,0,0,0-1.039.075Zm1.416-5.5a18.058,18.058,0,0,1,2.62,2.755l-1.25,1.2a15.141,15.141,0,0,0-2.591-2.846Zm5.646,5.542c-.119,2.65-.557,4.1-1.656,5.587a7.963,7.963,0,0,0-1.295-1.22c1.084-1.34,1.416-2.921,1.416-6.762,0-1.1-.03-1.717-.076-2.168.346.015.377.015.467.015a23.517,23.517,0,0,0,4.865-.769,4.876,4.876,0,0,0,1.234-.481l1.236,1.43A24.934,24.934,0,0,1,51.685,86.3v1.582H56.67a11.387,11.387,0,0,0,1.551-.075v1.7c-.467-.045-.933-.075-1.49-.075h-.874v4.036a9.877,9.877,0,0,0,.091,1.611H54.139a10.132,10.132,0,0,0,.091-1.611V89.435Z"/><path d="M64.389,92.417a9.143,9.143,0,0,1-2.078,5.256c-.136-.136-.241-.226-.3-.286a7.157,7.157,0,0,0-1.16-.949,6.782,6.782,0,0,0,1.3-2.124,15.715,15.715,0,0,0,.662-5.421,15.528,15.528,0,0,0-.074-1.823c.481.031.873.045,1.581.045h7.8c.631,0,.963-.014,1.384-.045a11.207,11.207,0,0,0-.06,1.4v3.374a9.6,9.6,0,0,0,.076,1.52H71.723v-.948ZM74.57,85.835a13.489,13.489,0,0,0-1.747-.075H63.26a14.382,14.382,0,0,0-1.748.075V84.179a11.6,11.6,0,0,0,1.748.09h9.563a11.341,11.341,0,0,0,1.747-.09Zm-2.847,5.076V88.622h-7.2v1.1c0,.226,0,.437-.015.632a2.245,2.245,0,0,1-.031.347.936.936,0,0,1-.015.211Z"/><path d="M81.265,88.531a5.957,5.957,0,0,0,1.084-.045c-.03.271-.045.391-.075.662a12.682,12.682,0,0,1-1.16,4.82,4.971,4.971,0,0,0,1.611,1.1,7.726,7.726,0,0,0,2.666.5c.393.031.919.045,1.145.045,1.837,0,3.7-.075,5.136-.195a5.656,5.656,0,0,0-.407,1.671c-1.415.031-2.861.046-4.5.046-3.313,0-4.865-.467-6.371-1.9a9.863,9.863,0,0,1-1.928,2.244A6.336,6.336,0,0,0,77.4,96.092a8.994,8.994,0,0,0,1.942-2.124,9.5,9.5,0,0,1-.723-1.25c-.03-.06-.165-.3-.346-.678-.075-.135-.181-.376-.332-.662l1.341-.708a9.444,9.444,0,0,0,.8,1.9,9.469,9.469,0,0,0,.663-2.62H79.307c-.422,0-.858.015-1.22.045.934-1.521.934-1.521,1.3-2.214A13.117,13.117,0,0,0,80.33,85.7h-1.5a5.574,5.574,0,0,0-1.024.075v-1.6a5.778,5.778,0,0,0,1.069.075h1.6a6.015,6.015,0,0,0,1.084-.06l.723.979a2.986,2.986,0,0,0-.377.767,27.923,27.923,0,0,1-1.324,2.591Zm4.367-2.8H83.871a7.633,7.633,0,0,0-1.07.06V84.45a8.468,8.468,0,0,0,1.16.06h1.671a4.629,4.629,0,0,0-.075-.994h1.656a5.234,5.234,0,0,0-.074.994h2.213c.467,0,.813-.015,1.145-.045a8.741,8.741,0,0,0-.045.949v1.1a4.361,4.361,0,0,0,1.069-.09v1.4a5.392,5.392,0,0,0-1.069-.075v1.145a7.516,7.516,0,0,0,.045.9c-.391-.015-.663-.03-1.054-.03h-2.3v.858h2.334a10.667,10.667,0,0,0,1.265-.06v1.31a10.16,10.16,0,0,0-1.281-.06H87.139V92.7H90a8.059,8.059,0,0,0,1.34-.075v1.415a11.043,11.043,0,0,0-1.34-.06H87.139a6.692,6.692,0,0,0,.074,1.265H85.557a7.309,7.309,0,0,0,.075-1.265H83.463a9.662,9.662,0,0,0-1.295.06V92.628a8,8,0,0,0,1.311.075h2.153v-.889H83.84a7.413,7.413,0,0,0-1.2.076V90.564a9.642,9.642,0,0,0,1.2.06h1.792v-.858H83.8a9.3,9.3,0,0,0-.965.045V88.5a6.534,6.534,0,0,0,1.055.06h1.747v-.813H83.313a9.325,9.325,0,0,0-1.3.061V86.437a7.1,7.1,0,0,0,1.355.076h2.259Zm3.344.783V85.73H87.139v.783Zm-1.837,2.048h1.837v-.813H87.139Z"/><path d="M94.737,85.805c.332.015.5.015.572.015.271,0,.271,0,2.485-.15.843-.046,3.343-.181,7.515-.377a8.536,8.536,0,0,0,1.732-.15l.106,1.927a2.351,2.351,0,0,0-.317-.015,6.742,6.742,0,0,0-2.982.813c-1.912.994-3.041,2.5-3.041,4.022a2.529,2.529,0,0,0,2,2.455,9.181,9.181,0,0,0,2.244.391c.016,0,.151,0,.3-.015l-.272,2.048a3.18,3.18,0,0,0-.511-.09,9.063,9.063,0,0,1-3.525-.994,4.033,4.033,0,0,1-2.153-3.63,5.308,5.308,0,0,1,1.431-3.554A6.639,6.639,0,0,1,102.418,87c-1.22.181-1.807.226-5.076.467a21.93,21.93,0,0,0-2.5.3Z"/><path d="M114.58,89.043c.8.663,1.25,1.069,1.868,1.672.828.844.828.844.933.933a18.377,18.377,0,0,0,1.973-1.9,19.985,19.985,0,0,0,1.838-2.455,1.053,1.053,0,0,1,.09-.135.318.318,0,0,1,.031-.076,6.723,6.723,0,0,1-.693.03h-7.184a16.863,16.863,0,0,0-1.928.075V85.278a11,11,0,0,0,1.957.106l8.374-.016a3.955,3.955,0,0,0,1.25-.12l1.054,1.189a4.826,4.826,0,0,0-.662.889,23.29,23.29,0,0,1-4.864,5.708c.631.723,1.2,1.446,1.987,2.515l-1.581,1.265a24.869,24.869,0,0,0-2.906-3.795,24.341,24.341,0,0,0-3.013-2.907Z"/><path d="M128.474,94.465a14.351,14.351,0,0,0,4.458-1.114,10.066,10.066,0,0,0,4.473-3.69,12.616,12.616,0,0,0,1.537-3.013,6.481,6.481,0,0,0,1.6,1.476,13.218,13.218,0,0,1-4.774,5.9,16.279,16.279,0,0,1-5.738,2.259,5.346,5.346,0,0,0-.994.256Zm1.28-9.353a21.361,21.361,0,0,1,3.886,2.907l-1.3,1.642A15.814,15.814,0,0,0,128.5,86.6Z"/><path d="M145.922,87.959a21.285,21.285,0,0,1,4.006,2.048l-.933,1.7a17.632,17.632,0,0,0-4.082-2.214Zm-.677,6.747a13.794,13.794,0,0,0,4.352-.979,9.209,9.209,0,0,0,4.353-3.313,11.2,11.2,0,0,0,1.747-3.329,7.744,7.744,0,0,0,1.565,1.341A13.089,13.089,0,0,1,155,92.236c-1.913,2.2-4.473,3.539-8.177,4.277a9.92,9.92,0,0,0-1.055.241Zm1.837-10.392a24.208,24.208,0,0,1,4.006,1.943l-.965,1.657a17.649,17.649,0,0,0-4.02-2.079Z"/><path d="M164.093,96.513a9.535,9.535,0,0,0-1.355.06V94.9a6.811,6.811,0,0,0,1.355.106h5.783V92.733h-5.241a9.544,9.544,0,0,0-1.355.06V91.151a6.719,6.719,0,0,0,1.355.106h5.241V89.164h-5.631a9.819,9.819,0,0,0-1.356.06V87.552a6.877,6.877,0,0,0,1.356.106h5.933a13.236,13.236,0,0,0,1.4-.06c-.031.542-.045.918-.045,1.581v6.9a7.6,7.6,0,0,0,.059,1.145h-1.731v-.708Z"/><path d="M178.153,94.465a14.351,14.351,0,0,0,4.458-1.114,10.071,10.071,0,0,0,4.473-3.69,12.577,12.577,0,0,0,1.536-3.013,6.481,6.481,0,0,0,1.6,1.476,13.211,13.211,0,0,1-4.774,5.9,16.263,16.263,0,0,1-5.738,2.259,5.476,5.476,0,0,0-1,.256Zm1.28-9.353a21.4,21.4,0,0,1,3.886,2.907l-1.295,1.642a15.857,15.857,0,0,0-3.841-3.058Z"/><polygon class="cls-2" points="58.948 142.484 54.523 138.06 54.523 138.06 45.677 138.06 45.677 173.447 50.101 173.447 50.101 142.484 54.523 142.484 54.523 164.601 50.985 164.601 50.985 169.025 58.946 169.025 58.948 142.484 58.948 142.484 58.948 142.484"/><polygon class="cls-2" points="41.253 164.601 41.253 142.484 36.831 138.06 27.984 138.06 27.984 169.023 27.984 169.025 35.945 169.025 35.945 164.601 32.407 164.601 32.407 142.484 36.83 142.484 36.83 169.023 44.792 169.025 44.792 164.601 41.253 164.601"/><path class="cls-2" d="M81.128,146.137a6.789,6.789,0,0,1,4.749,1.591A5.5,5.5,0,0,1,87.628,152a5.212,5.212,0,0,1-1.855,4.088,6.234,6.234,0,0,1-4.279,1.521H73.87V146.137Zm.524,9.761a3.81,3.81,0,0,0,2.813-1.1,3.849,3.849,0,0,0,1.1-2.842,3.934,3.934,0,0,0-1.179-2.977,4.31,4.31,0,0,0-3.1-1.128H75.773v8.05Z"/><path class="cls-2" d="M111.077,153.9a3.325,3.325,0,0,1-1.744,2.9,8.58,8.58,0,0,1-4.74,1.156,8.746,8.746,0,0,1-4.771-1.156,3.349,3.349,0,0,1-1.742-2.9v-7.765h1.9v7.306a2.277,2.277,0,0,0,1.18,2.061,6.729,6.729,0,0,0,3.431.713,6.635,6.635,0,0,0,3.416-.713,2.279,2.279,0,0,0,1.165-2.061v-7.306h1.9Z"/><path class="cls-2" d="M131.338,146.137a3.89,3.89,0,0,1,2.793.976,3.414,3.414,0,0,1,1.028,2.6,3.233,3.233,0,0,1-1.068,2.615,4.712,4.712,0,0,1-3.115.9h-6.831v4.375h-1.9V146.137Zm-.331,5.388q2.2,0,2.2-1.775,0-1.9-2.33-1.9h-6.735v3.677Z"/><path class="cls-2" d="M78.574,165.262h-.786l-1.1-1.557H74.629v1.557h-.677v-4.078h3.215a1.4,1.4,0,0,1,1.007.347,1.226,1.226,0,0,1,.366.938,1.17,1.17,0,0,1-.3.834,1.3,1.3,0,0,1-.761.367ZM77.066,163.1q.783,0,.782-.629c0-.451-.281-.678-.844-.678H74.629V163.1Z"/><polygon class="cls-2" points="85.867 165.262 81.599 165.262 81.599 161.184 85.709 161.184 85.709 161.791 82.274 161.791 82.274 162.84 84.659 162.84 84.659 163.447 82.274 163.447 82.274 164.652 85.867 164.652 85.867 165.262"/><path class="cls-2" d="M92.43,162.143a3.985,3.985,0,0,0-1.846-.463,2.467,2.467,0,0,0-.958.146c-.22.1-.333.234-.333.4s.12.315.355.395a2.984,2.984,0,0,0,.828.125c.565.037.936.066,1.116.092a2.38,2.38,0,0,1,1.131.377.916.916,0,0,1,.367.781,1.118,1.118,0,0,1-.576,1,3.154,3.154,0,0,1-1.649.355,3.828,3.828,0,0,1-2.427-.687l.371-.488a3.925,3.925,0,0,0,2.062.584,2.445,2.445,0,0,0,1.109-.2.572.572,0,0,0,.376-.519c0-.258-.166-.434-.493-.518a10.444,10.444,0,0,0-1.4-.142,4.02,4.02,0,0,1-1.412-.27.819.819,0,0,1-.473-.8,1.02,1.02,0,0,1,.537-.906,2.94,2.94,0,0,1,1.518-.332,3.86,3.86,0,0,1,2.207.6Z"/><rect class="cls-2" x="96.113" y="161.184" width="0.673" height="4.076"/><path class="cls-2" d="M102.7,161.184a2.387,2.387,0,0,1,1.684.568,1.938,1.938,0,0,1,.623,1.518,1.843,1.843,0,0,1-.658,1.447,2.207,2.207,0,0,1-1.519.545h-2.71v-4.078Zm.186,3.468a1.363,1.363,0,0,0,1-.39,1.378,1.378,0,0,0,.391-1.012,1.4,1.4,0,0,0-.417-1.057,1.534,1.534,0,0,0-1.1-.4H100.8v2.861Z"/><polygon class="cls-2" points="112.356 165.262 108.089 165.262 108.089 161.184 112.2 161.184 112.2 161.791 108.765 161.791 108.765 162.84 111.149 162.84 111.149 163.447 108.765 163.447 108.765 164.652 112.356 164.652 112.356 165.262"/><polygon class="cls-2" points="119.972 165.262 119.131 165.262 116.021 161.918 116.021 165.262 115.342 165.262 115.342 161.184 116.185 161.184 119.298 164.527 119.298 161.184 119.972 161.184 119.972 165.262"/><path class="cls-2" d="M128.065,162.113l-.614.219a2.284,2.284,0,0,0-1.735-.662,2.122,2.122,0,0,0-1.378.437,1.434,1.434,0,0,0,0,2.223,2.214,2.214,0,0,0,1.422.422,2.186,2.186,0,0,0,1.7-.672l.578.324a2.562,2.562,0,0,1-.99.739,3.451,3.451,0,0,1-1.328.228,2.892,2.892,0,0,1-1.8-.541,2,2,0,0,1,.012-3.229,2.86,2.86,0,0,1,1.784-.544,2.779,2.779,0,0,1,2.349,1.056"/><polygon class="cls-2" points="135.434 165.262 131.167 165.262 131.167 161.184 135.276 161.184 135.276 161.791 131.843 161.791 131.843 162.84 134.229 162.84 134.229 163.447 131.843 163.447 131.843 164.652 135.434 164.652 135.434 165.262"/></svg>