<svg id="レイヤー_1" data-name="レイヤー 1" xmlns="http://www.w3.org/2000/svg" viewBox="0 0 264 217"><defs><style>.cls-1{fill:#fff;}.cls-2{fill:#231815;}</style></defs><rect class="cls-1" width="264" height="217"/><path d="M30.35,63.32h-.9a7.19,7.19,0,0,0-1.41.09V61.87a8.39,8.39,0,0,0,1.41.07h.72V60.51h-.48a8.33,8.33,0,0,0-1.32.08V59.07a7.22,7.22,0,0,0,1.32.07h.48v-.4a7.89,7.89,0,0,0-.09-1.36h1.6a6.12,6.12,0,0,0-.09,1.36v.4h.18a6.76,6.76,0,0,0,.9,0V57.74a12.54,12.54,0,0,0,1.63.09h5.91a12.05,12.05,0,0,0,1.6-.09v1.54a12.48,12.48,0,0,0-1.6-.09H37.35v1.14h3.07a9.09,9.09,0,0,0,1.24-.06c-.08.41-.08.41-.27,1.72a13.13,13.13,0,0,1-1.12,3.74A7,7,0,0,0,42,67.4a6,6,0,0,0-1,1.28A11.74,11.74,0,0,1,39.55,67a11.84,11.84,0,0,1-1.31,1.64,4,4,0,0,0-.89-1A7.73,7.73,0,0,0,37.43,69H35.92A8.49,8.49,0,0,0,36,67.69v-.35c-.69.21-1.94.54-2.77.75l-.5.15-.27-1.47a6.47,6.47,0,0,0,1-.12V59.2c-.28,0-.34,0-.52,0v1.36a6.3,6.3,0,0,0-1.2-.08h-.18v1.43h.65a4.12,4.12,0,0,0,1-.07v1.54a4.08,4.08,0,0,0-1-.09h-.56v1.54h.39a7.89,7.89,0,0,0,1-.06v1.43a5.27,5.27,0,0,0-1-.08h-.38v2.27a4.9,4.9,0,0,0,1.77.7,28.29,28.29,0,0,0,4,.22,38.28,38.28,0,0,0,4.66-.3,6,6,0,0,0-.45,1.7c-1,.05-2.92.09-4.36.09-3.4,0-4.32-.12-5.66-.78a5.61,5.61,0,0,1-2.14-1.75,11,11,0,0,1-.7,2.7,4.81,4.81,0,0,0-1.24-1,5.28,5.28,0,0,0,.63-1.81,18.61,18.61,0,0,0,.35-3.41c0-.18,0-.35,0-.59l1.31.17a5,5,0,0,0,0,.63c0,.6-.05.86-.08,1.46a4.6,4.6,0,0,0,.66.86ZM36,60.74V59.19H34.81v1.55Zm0,2.66V61.93H34.81V63.4Zm-1.19,2.95L36,66V64.59H34.81Zm2.54,1.07a6.75,6.75,0,0,0,1.42-1.64,15.8,15.8,0,0,1-1.22-3.67l1.08-.49H37.35Zm1.37-5.8a14.92,14.92,0,0,0,.78,2.65,12.24,12.24,0,0,0,.56-2.65Z"/><path d="M50.27,57.49a25.4,25.4,0,0,0,1,4.71c1-.36,1-.36,3.9-1.33a4.54,4.54,0,0,0,.57-.22l.65,1.89a37.23,37.23,0,0,0-5,1.45c-2.19.81-3.29,1.77-3.29,2.85s1,1.57,3.44,1.57a16.42,16.42,0,0,0,4.86-.62l.17,2.06a9.81,9.81,0,0,0-1.22.11,32.92,32.92,0,0,1-3.52.22,8.44,8.44,0,0,1-4.36-.82,2.85,2.85,0,0,1-1.31-2.52,3.53,3.53,0,0,1,1.34-2.69,9.26,9.26,0,0,1,2-1.29,38.78,38.78,0,0,1-1-4.08,6.78,6.78,0,0,0-.25-1Z"/><path d="M64.05,59.74c-1,.2-1.3.25-2.2.38a5.83,5.83,0,0,0-.56-1.44,16.49,16.49,0,0,0,5.8-1.45l1,1.39c-1.09.37-1.78.58-2.44.76v1.94h1.2a7.58,7.58,0,0,0,1.27-.07v1.64a7.9,7.9,0,0,0-1.3-.08H65.7a9,9,0,0,0,2.41,2.82,6.91,6.91,0,0,0-.8,1.47,8.38,8.38,0,0,1-1.76-2.41c0,.51.08,1.13.08,1.9v2.62a12,12,0,0,0,.09,1.91H63.93a14.17,14.17,0,0,0,.1-1.91V66.69c0-.6,0-1.29.08-1.8a11,11,0,0,1-1,2.12,9.49,9.49,0,0,1-1.31,1.65,8.16,8.16,0,0,0-.84-1.58,8.88,8.88,0,0,0,1.64-2,19.15,19.15,0,0,0,1.18-2.26H62.66a9,9,0,0,0-1.38.09V61.23a6.69,6.69,0,0,0,1.41.09h1.36Zm6.62-1.41a10.9,10.9,0,0,0-.09,1.82v5.69a12.8,12.8,0,0,0,.07,1.79H68.88A11.89,11.89,0,0,0,69,65.87V60.15a11.25,11.25,0,0,0-.09-1.82Zm3.58-.9a14.8,14.8,0,0,0-.11,2v9.68c0,.79-.19,1.23-.67,1.49a4.73,4.73,0,0,1-2.09.25c-.38,0-.61,0-1.12,0a6.7,6.7,0,0,0-.51-1.67,19.06,19.06,0,0,0,2,.14c.66,0,.76-.06.76-.45V59.47c0-.75,0-1.38-.09-2Z"/><path d="M80.47,69.39a15.66,15.66,0,0,0,.08,1.74H78.8a16.49,16.49,0,0,0,.09-1.91V64.9a16.53,16.53,0,0,1,0-1.7,10.23,10.23,0,0,1-1.07,1.61,6.69,6.69,0,0,0-.71-1.76,11.19,11.19,0,0,0,2.27-3.95A10.31,10.31,0,0,0,80,57.05l1.61.51a6.82,6.82,0,0,0-.3.91,17.23,17.23,0,0,1-.83,2.19Zm2.35-3.16a6.19,6.19,0,0,0-1.08.07c0-.57.06-.85.06-1.55V61.82c0-.71,0-1-.06-1.56a9.05,9.05,0,0,0,1.4.07h2.27v-1H83a10.24,10.24,0,0,0-1.46.08V57.76a13.84,13.84,0,0,0,1.7.09h6.38a14.13,14.13,0,0,0,1.71-.09v1.61a11,11,0,0,0-1.5-.08H86.94v1h2.38a8.2,8.2,0,0,0,1.37-.07,11.79,11.79,0,0,0-.06,1.61v2.82a14.1,14.1,0,0,0,.06,1.61,7.22,7.22,0,0,0-1.22-.07h-2.8a4.56,4.56,0,0,1-.75,2,9.69,9.69,0,0,0,3,.77,17.68,17.68,0,0,0,2.2.15h.49A8,8,0,0,0,91,70.82a13.94,13.94,0,0,1-6.13-1.42A9,9,0,0,1,81.47,71a5.92,5.92,0,0,0-.64-1.51,6,6,0,0,0,2.65-1,3.94,3.94,0,0,1-.51-.42c-.54-.45-.54-.45-.86-.7l1.31-.83a6,6,0,0,0,1.15.93,3.36,3.36,0,0,0,.55-1.26Zm.56-4.62v1h2c0-.51,0-.51,0-1Zm0,2.21v1.1h1.91c0-.32,0-.59.06-1.1Zm3.5,0c0,.53,0,.69-.06,1.1H89v-1.1Zm.06-2.21,0,1H89v-1Z"/><path d="M93.84,64a13.34,13.34,0,0,0,.54-3.91l1.22.15a18.9,18.9,0,0,1-.55,4.21Zm1.91,7.07a13.55,13.55,0,0,0,.11-1.89V58.74a9.41,9.41,0,0,0-.11-1.6h1.81a12.26,12.26,0,0,0-.09,1.6V69.33a14.62,14.62,0,0,0,.09,1.77Zm6.65-10.81V58.78a10.73,10.73,0,0,0-.1-1.59h1.82a9.37,9.37,0,0,0-.11,1.59v1.51h1.76a10.77,10.77,0,0,0,1.66-.09v1.67a13.86,13.86,0,0,0-1.64-.09H104v2.63h1.51a11.08,11.08,0,0,0,1.62-.08V66a11.19,11.19,0,0,0-1.64-.09H104v3.19h2a13.55,13.55,0,0,0,1.76-.09v1.7a11.51,11.51,0,0,0-1.76-.11h-6a11.39,11.39,0,0,0-1.77.11V69a13.51,13.51,0,0,0,1.77.09h2.39V65.87h-1.35a12.46,12.46,0,0,0-1.67.09V64.33l.24,0a11.22,11.22,0,0,0-1.35-.84,6.3,6.3,0,0,0,.79-1.5l-.87.42a8.49,8.49,0,0,0-.69-2.24l1-.49a13.33,13.33,0,0,1,.69,1.91,12.49,12.49,0,0,0,.65-3.47l1.61.3a3.79,3.79,0,0,0-.11.54c0,.29-.15.9-.22,1.3Zm-1.64,1.49a10.84,10.84,0,0,1-1.08,2.58c.33,0,.66,0,1.14,0h1.58V61.78Z"/><path d="M116.29,58.47c-.08.43-.18,1.05-.33,1.86l-.09.45.93,0a2.88,2.88,0,0,1,2.22.8,3.6,3.6,0,0,1,.71,2.66c0,2.59-.43,4.65-1.16,5.48a1.91,1.91,0,0,1-1.67.67,6.93,6.93,0,0,1-2.31-.45c0-.28,0-.51,0-.66a5.7,5.7,0,0,0-.15-1.28,6.31,6.31,0,0,0,2.19.6c.44,0,.68-.28.91-1a13.38,13.38,0,0,0,.39-3.43c0-1.38-.35-1.79-1.51-1.79-.31,0-.55,0-.9.05a32.64,32.64,0,0,1-3.07,8.18l-1.75-1a22.17,22.17,0,0,0,3-7.09l-.71.12-1.37.23a5.62,5.62,0,0,0-.62.15l-.18-1.78a30.59,30.59,0,0,0,3.21-.31,20.5,20.5,0,0,0,.39-3v-.27l2,.19a2.93,2.93,0,0,0-.12.47Zm4.57-.62a9.88,9.88,0,0,1,1.58,2.21l-1,.56a10.22,10.22,0,0,0-1.58-2.24Zm1.4,3a14,14,0,0,1,2.26,4.78l-1.72.86a14,14,0,0,0-2.06-4.89Zm.93-1.16a10.6,10.6,0,0,0-1.53-2.18l1-.53a9.07,9.07,0,0,1,1.56,2.12Z"/><path d="M129,59.16a14.48,14.48,0,0,0-1.85.09V57.61a17,17,0,0,0,1.86.09h10.09a18.43,18.43,0,0,0,1.89-.09v1.64a17.1,17.1,0,0,0-1.85-.09h-4.29v1.4h4c.6,0,1,0,1.48-.06a11.42,11.42,0,0,0-.06,1.49v7.38c0,.77-.11,1.07-.43,1.3a3.22,3.22,0,0,1-1.73.27c-.28,0-.34,0-1.17,0a3.77,3.77,0,0,0-.45-1.59,11.57,11.57,0,0,0,1.67.16c.4,0,.47,0,.47-.37V62h-3.77v5H136V64.09A9.4,9.4,0,0,0,136,63h1.59a8.33,8.33,0,0,0-.06,1.1v3.75a8.6,8.6,0,0,0,.06,1.16H136.1v-.62h-4v1.23h-1.49a8.6,8.6,0,0,0,.08-1.34V64.06a7,7,0,0,0-.07-1.1h1.59c0,.33-.05.64-.05,1.1V67h1.17V62h-3.77v7.34c0,.6,0,1.26.07,1.76h-1.79c.06-.58.09-1.3.09-1.93V62a13.68,13.68,0,0,0-.06-1.5,13.54,13.54,0,0,0,1.39.06h4.07v-1.4Z"/><path d="M151.09,68.71a31.51,31.51,0,0,0,2.26-7.21l1.94.56a8.76,8.76,0,0,0-.51,1.45,44.88,44.88,0,0,1-1.93,5.2h2.71a16.73,16.73,0,0,0,1.91-.09v1.8a14.27,14.27,0,0,0-1.91-.1h-9.81a14.89,14.89,0,0,0-2,.1v-1.8a17.45,17.45,0,0,0,2,.09Zm-1.43-10.26a6.45,6.45,0,0,0-.1-1.17h1.89a6,6,0,0,0-.1,1.16v1H155a12.5,12.5,0,0,0,1.94-.11v1.81a17.06,17.06,0,0,0-1.94-.09h-8.75a16.23,16.23,0,0,0-1.89.09V59.35a11.64,11.64,0,0,0,1.89.11h3.43Zm-1.94,3.19a46.18,46.18,0,0,1,1.72,5.85l-1.69.6a30.4,30.4,0,0,0-1.65-5.88Z"/><path d="M169.34,63.14c0,.06,0,.18,0,.37a4.56,4.56,0,0,1,.48,2.12,4.82,4.82,0,0,1-2.24,4.06,10.63,10.63,0,0,1-2.72,1.23,4.88,4.88,0,0,0-1.07-1.7,7.18,7.18,0,0,0,2.56-.87,3.18,3.18,0,0,0,1.74-2.2,2.47,2.47,0,0,1-2.21,1.07,2.79,2.79,0,0,1-1.74-.54,2.34,2.34,0,0,1-1-2,2.77,2.77,0,0,1,3-2.74,2.57,2.57,0,0,1,1.57.45.44.44,0,0,1,0-.18s0-.87,0-1.28c-2.15.06-3.57.11-4.23.15-2.27.17-2.27.17-2.68.23l-.06-1.79a6.62,6.62,0,0,0,.74,0c.37,0,.61,0,2.56-.08l2.36-.06,1.28,0a9,9,0,0,0-.09-1.82l1.89,0a11.54,11.54,0,0,0-.07,1.79c2.62,0,3.79,0,4.35-.1v1.73c-.56-.05-1.28-.08-2.53-.08-.36,0-.63,0-1.82,0v2.27Zm-3.07.15a1.32,1.32,0,0,0-1.4,1.21,1.19,1.19,0,0,0,1.28,1.19,1.37,1.37,0,0,0,1.47-1.36C167.62,63.7,167.1,63.29,166.27,63.29Z"/><path d="M182.15,63.64a7.36,7.36,0,0,1,3.16-.69c2.58,0,4.23,1.32,4.23,3.38a3.68,3.68,0,0,1-2,3.33,7.47,7.47,0,0,1-3.64.85,5.13,5.13,0,0,1-2.92-.69,2.14,2.14,0,0,1-.9-1.73,2.31,2.31,0,0,1,2.59-2.15,3.23,3.23,0,0,1,2.6,1.24,3.85,3.85,0,0,1,.69,1.35c1.25-.47,1.79-1.11,1.79-2.18s-1.15-1.94-3-1.94a9.33,9.33,0,0,0-6.2,2.52l-1-1.62a13.61,13.61,0,0,0,2.12-1.41,51.33,51.33,0,0,0,4.5-3.91l.27-.28h0c-.57.07-1.54.13-4.26.26a5,5,0,0,0-.72.07l-.08-1.8a13.68,13.68,0,0,0,1.78.09c1.28,0,3.11-.08,4.57-.19a2.22,2.22,0,0,0,.94-.19l.93,1.32a3.31,3.31,0,0,0-.78.62c-.76.69-1.85,1.67-2.37,2.11-.27.22-1.35,1-1.65,1.23a4.86,4.86,0,0,1-.62.39Zm.45,3.75c-.54,0-.88.27-.88.69,0,.6.67,1,1.79,1a4.09,4.09,0,0,0,.78-.06C184,67.93,183.45,67.39,182.6,67.39Z"/><path d="M29.11,92a18.43,18.43,0,0,1,1.85.94l-.76,1.23a13.77,13.77,0,0,0-2.55-1.25l.84-1.2Zm3.16,2.76a15.14,15.14,0,0,1-2,1.62l-1.06.69-.18.14-.3.19-.85-1.5a11.2,11.2,0,0,0,3.73-2.5Zm2.31-2.54a9.85,9.85,0,0,1-1.71,1.91A4.66,4.66,0,0,0,31.81,93,8.31,8.31,0,0,0,34.09,90H30a17.2,17.2,0,0,1,2.13,1l-.77,1.26A12.14,12.14,0,0,0,28.7,91l.68-1a7.69,7.69,0,0,0-1.33.08V88.62a9.81,9.81,0,0,0,1.58.08h4.26v-.65h-3a11.23,11.23,0,0,0-1.49.06V86.79a12.7,12.7,0,0,0,1.49.06h3V86.2h-3.7a11.72,11.72,0,0,0-1.55.07v-1.4a8,8,0,0,0,1.55.1H32a7.28,7.28,0,0,0-1-1.28l1.55-.35A9.34,9.34,0,0,1,33.77,85h2.09a9.78,9.78,0,0,0,1-1.55l1.69.34c-.4.53-.73.93-1,1.21h1.88a7.58,7.58,0,0,0,1.57-.1v1.4a11.35,11.35,0,0,0-1.57-.07H35.52v.65h3.29a12.59,12.59,0,0,0,1.49-.06v1.32a11.23,11.23,0,0,0-1.49-.06H35.52v.65h4.54a9.66,9.66,0,0,0,1.58-.08v1.44A9.07,9.07,0,0,0,40.06,90H34.7l.94.32a1.89,1.89,0,0,0-.12.27c-.09.2-.11.21-.17.35h4a8.06,8.06,0,0,0,1.21-.06l.81.73c-.08.11-.33.48-.41.61a7.8,7.8,0,0,1-1.77,2,5.7,5.7,0,0,0-1.3-.79,4.13,4.13,0,0,0,1.33-1.18H37a3.3,3.3,0,0,0,1.31,2.33,7.12,7.12,0,0,0,3.57,1.38A5.45,5.45,0,0,0,41,97.51a8.28,8.28,0,0,1-3.16-1.46,5.46,5.46,0,0,1-1.58-1.89,4.39,4.39,0,0,1-1.61,2.06,7.46,7.46,0,0,1-3,1.29,4.33,4.33,0,0,0-.81-1.41,6.24,6.24,0,0,0,3.59-1.63,3.34,3.34,0,0,0,.94-2.25Z"/><path d="M50.39,90A7.65,7.65,0,0,0,52,84.75,8.49,8.49,0,0,0,52,83.9a16.2,16.2,0,0,0,1.67.07h2.7A11.7,11.7,0,0,0,58,83.9,10.74,10.74,0,0,0,57.93,85c0,1.17-.15,3.08-.24,3.79a2.77,2.77,0,0,1-.59,1.67c-.28.3-.78.42-1.7.42-.21,0-.34,0-1.1,0a3.34,3.34,0,0,0-.28-1.4,6.61,6.61,0,0,0,1.26.13c.59,0,.71-.09.8-.66H52.9a6,6,0,0,1-1.47,2.35h4.3a11.6,11.6,0,0,0,1.69-.09v1.49a12.38,12.38,0,0,0-1.69-.08H52.06v.74H55a7.6,7.6,0,0,0,1.52-.08v1.51A10.69,10.69,0,0,0,55,94.68H52.06v.93H56.4a12.15,12.15,0,0,0,1.7-.09v1.55A18,18,0,0,0,56.23,97H46.45a18.34,18.34,0,0,0-1.85.09V95.52a9.49,9.49,0,0,0,1.68.09h4.14v-.93H47.71a10.94,10.94,0,0,0-1.53.08V93.25a9.65,9.65,0,0,0,1.53.08h2.71v-.74H47a10.07,10.07,0,0,0-1.69.08V91.18a12.18,12.18,0,0,0,1.69.09h4.15A4.1,4.1,0,0,0,50,90.4l.35-.32c-.86.07-1.61.12-2.23.12-1.91,0-2.45-.27-2.45-1.23V86.29a6.62,6.62,0,0,0-1,.07V84.78a9,9,0,0,0,1.43.08h1.23V84.6a8.31,8.31,0,0,0-.07-1.09H49a5.73,5.73,0,0,0-.08,1.08v.27h1a9.12,9.12,0,0,0,1.43-.08v1.58a9.56,9.56,0,0,0-1.43-.07H47.19v2c0,.36.12.41,1.14.41a14.09,14.09,0,0,0,2.06-.19Zm3-2.88c-.06.31-.08.43-.15.72h3c0-.32,0-.32.06-.72Zm3-1.75H53.55c0,.32,0,.42,0,.65H56.3Z"/><path d="M67.51,92.65c-.86,1.94-1.82,2.83-3.06,2.83-1.71,0-3-1.75-3-4.17a6.44,6.44,0,0,1,1.66-4.37,6.73,6.73,0,0,1,5.18-2.11c3.61,0,6,2.2,6,5.58A5.79,5.79,0,0,1,70.64,96a9.85,9.85,0,0,1-2.36.63,4.93,4.93,0,0,0-.92-1.76,8.14,8.14,0,0,0,3-.82,4.23,4.23,0,0,0,2.09-3.76A3.71,3.71,0,0,0,70.59,87a3.14,3.14,0,0,0-1.52-.46A21.59,21.59,0,0,1,67.51,92.65ZM65.3,87.27a5,5,0,0,0-2,4.06c0,1.23.53,2.21,1.19,2.21.5,0,1-.63,1.55-1.93a19.79,19.79,0,0,0,1.25-5.08A3.78,3.78,0,0,0,65.3,87.27Z"/><path d="M78.74,92.76c0-.62,0-.65,0-1.6a5.87,5.87,0,0,1-1,1,7.36,7.36,0,0,0-.57-1.67,9.67,9.67,0,0,0,2.22-2.36,5.5,5.5,0,0,0,.79-1.43l1.35.93c-.16.23-.24.35-.44.69-.07.14-.34.55-.79,1.22V95.7a12.5,12.5,0,0,0,.07,1.72H78.65a13.55,13.55,0,0,0,.09-1.76Zm2.62-8.43c-.18.23-.24.29-.44.56a12.62,12.62,0,0,1-2.78,2.74,6.91,6.91,0,0,0-.74-1.46A7.2,7.2,0,0,0,80,83.42Zm1.43,8.46a10.1,10.1,0,0,0-1.32.06V91.28a9.57,9.57,0,0,0,1.32.06h.68v-.09a6.83,6.83,0,0,0-.08-1.13h1.72A6.41,6.41,0,0,0,85,91.24v.1h.77a9.76,9.76,0,0,0,1.31-.06v1.57a10.12,10.12,0,0,0-1.31-.06H85v1.53a19.61,19.61,0,0,0,2.33-.47l0,1.39a46.4,46.4,0,0,1-5.46,1,5.82,5.82,0,0,0-.8.13l-.21-1.65h.19a20.32,20.32,0,0,0,2.37-.22V92.79Zm5.52-3.69a7.33,7.33,0,0,0-1,.05v.64a10.8,10.8,0,0,0-1.22-.06H82.52a11.7,11.7,0,0,0-1.28.06V88.23a11.44,11.44,0,0,0,1.26.06h1V86.77h-.54a12.3,12.3,0,0,0-1.33.06V85.27a7.81,7.81,0,0,0,1.33.07h.54v-.6a5.93,5.93,0,0,0-.09-1.13h1.74A6.55,6.55,0,0,0,85,84.78v.56h.69A7.62,7.62,0,0,0,87,85.27v1.56a12,12,0,0,0-1.31-.06H85v1.52h1a9.56,9.56,0,0,0,1,0v-.69a10.2,10.2,0,0,0,1.22.06h1.94a10,10,0,0,0,1.22-.06v1.59a11.45,11.45,0,0,0-1.22-.06v6.57a1.55,1.55,0,0,1-.41,1.24c-.27.22-.69.3-1.61.3-.21,0-.34,0-1.4,0a4.66,4.66,0,0,0-.34-1.62,14,14,0,0,0,1.74.15c.33,0,.44-.06.44-.29V89.1Zm-.9-4.77a8.27,8.27,0,0,0,1.14.08H90.1a8.73,8.73,0,0,0,1.18-.06v1.59a10.24,10.24,0,0,0-1.19-.06H88.57a7.45,7.45,0,0,0-1.16.08Z"/><path class="cls-2" d="M31,146.59a58.16,58.16,0,0,1-.18,6.45,8.51,8.51,0,0,1-2.24,5.35c-.42.44-.69.67-.81.67a.1.1,0,0,1-.09-.11s0,0,.16-.32c1.09-1.86,1.59-4.5,1.59-8.3,0-1.07,0-3.85-.09-5.09l2,.93h7l.64-1.06,1.5,1.28a.69.69,0,0,1,.29.46c0,.15-.12.3-.34.39l-.35.17c0,2,0,2.24,0,3.1a12.43,12.43,0,0,0,.86,5.48c.32-.7.5-1.13.84-2,.09-.23.12-.28.2-.28s.12.07.12.23,0,.37-.08.72c-.09.78-.16,1.63-.16,1.93a2.75,2.75,0,0,0,.33,1.32,1.06,1.06,0,0,1,.11.46.58.58,0,0,1-.63.54c-.84,0-1.68-.84-2.26-2.26s-.85-3.3-.85-6.68c0-.88,0-1.66,0-3.35Zm4.37,9.78a11.25,11.25,0,0,0,1.33-.07,2.69,2.69,0,0,0-.81-1c-.18-.14-.2-.17-.2-.22a.11.11,0,0,1,.11-.12,5,5,0,0,1,1.45.48,2.48,2.48,0,0,1,1.63,2.06.89.89,0,0,1-.82,1,.74.74,0,0,1-.72-.58,7.24,7.24,0,0,0-.38-1.11c-1.36.37-1.39.38-3.66.88l-1.1.26-.2.32a.6.6,0,0,1-.38.31.56.56,0,0,1-.42-.31l-1-1.71,1.94,0c.55,0,.66,0,1.74-.06v-2.62h-1v.9c0,.21-.44.39-1,.39-.26,0-.37-.06-.37-.21v-5l1.76.87h.64v-1.65c-.87.08-1.85.12-2.29.12s-.4,0-.4-.15,0-.09.69-.29a17.92,17.92,0,0,0,4.7-1.83L37.86,148c.15.12.21.21.21.3s-.14.21-.34.21H37.2c-.81.17-1,.2-1.82.36v1.86h.86l.52-.93,1.17,1.05a.64.64,0,0,1,.25.41c0,.11-.06.19-.2.26l-.2.11v2.73c0,.23-.43.38-1,.38-.25,0-.35-.06-.35-.23v-.71h-1Zm-1.45-3v-2.26h-1v2.26Zm1.45,0h1v-2.26h-1Zm10.08,2.82c1.33-.09,2.11-.16,3-.27v-2.32h-.61c-.64,0-1,0-1.91,0l-.13-.51c1,0,1.4.06,2,.06h.61V151.3c-.55.14-.64.16-1.14.26l-.17.31c-.11.21-.18.27-.32.27s-.24-.09-.35-.29l-.78-1.65c.4,0,.67,0,.89,0s.45,0,.81,0a19.55,19.55,0,0,0,.85-3.28h-.5c-.46,0-.86,0-1.87.05l-.18-.52,2.05.06h3.48l1-1.25,1.31,1.2a.37.37,0,0,1,.12.25c0,.14-.1.21-.27.21H50.27A23.32,23.32,0,0,1,48,150.2l.54,0c1.66,0,1.68,0,2.71-.1a3,3,0,0,0-1.1-1.47c-.09-.06-.12-.09-.12-.14s.05-.09.12-.09a5.74,5.74,0,0,1,1.24.32c1,.34,1.51,1,1.51,1.71a.85.85,0,0,1-.82.89.58.58,0,0,1-.52-.28s-.08-.23-.17-.53c-.58.2-.67.23-1.3.4v2.35h.58l1-1.3,1.24,1.24a.47.47,0,0,1,.12.26c0,.13-.09.21-.27.21H50v2.09c1-.14,1.91-.29,2.89-.46h.17c.1,0,.17,0,.17.12s-.13.2-1.33.67-2.68,1-4.55,1.63l-.14.33a.38.38,0,0,1-.35.24.37.37,0,0,1-.34-.21Zm12.68-6.83a16.49,16.49,0,0,1-1.64,5.31,8.65,8.65,0,0,0,3.67,2.06,3.69,3.69,0,0,0-1.47,1.65,10.37,10.37,0,0,1-3-2.54,9.38,9.38,0,0,1-3.41,2.32,12.22,12.22,0,0,1-2.38.71.13.13,0,0,1-.15-.13c0-.09.06-.15.2-.19a10.61,10.61,0,0,0,5-4,11.58,11.58,0,0,1-1.08-3.7c-.11.12-.31.37-.6.73a2.62,2.62,0,0,1-.78.74.13.13,0,0,1-.12-.12c0-.07,0-.14.14-.34A18.4,18.4,0,0,0,54.44,145l1.93.61a.3.3,0,0,1,.22.3.36.36,0,0,1-.22.32l-.34.13A23.8,23.8,0,0,1,55,149h2.32l1-1.25,1.28,1.21a.34.34,0,0,1,.12.26c0,.13-.09.2-.27.2Zm-3.35,0a11,11,0,0,1-.59,1,7.54,7.54,0,0,0,1.23,3.14,15.59,15.59,0,0,0,1-4.16Zm12.89,7.17a10.94,10.94,0,0,1-3.6,1.3c-.09,0-.16-.05-.16-.12s.07-.11.23-.17a13.33,13.33,0,0,0,4.55-3.1,11.68,11.68,0,0,0,2.57-4,4.66,4.66,0,0,0,.35-1.33c0-.17-.07-.24-.23-.24a13.8,13.8,0,0,0-4.82,1.17.62.62,0,0,1-.37.16,1.7,1.7,0,0,1-1-.52,1.49,1.49,0,0,1-.55-1.07c0-.28,0-.43.13-.43s0,0,.1.09a1.45,1.45,0,0,0,1.17.49,33.69,33.69,0,0,0,3.53-.43,5.47,5.47,0,0,0,2.4-.73.83.83,0,0,1,.36-.12,4.41,4.41,0,0,1,1.44.79c.43.29.53.38.53.47s-.06.2-.73.63C71.84,153.35,70.42,155.06,67.68,156.57Zm8.63-10.18a1.62,1.62,0,1,1-1.59-1.62A1.63,1.63,0,0,1,76.31,146.39Zm-2.58,0a1,1,0,1,0,1-1A1,1,0,0,0,73.73,146.39Zm12.8,2.72a1.92,1.92,0,0,0,.71-.26c.54-.33.6-.36.78-.36s.57.22,1.24.77c.35.29.47.41.47.52a.73.73,0,0,1-.22.38c-.11.11-.26.27-.43.47a25.32,25.32,0,0,0-.87,3.34c.46.36.61.55.61.83s-.14.27-.34.27-.35,0-.61-.06a4.44,4.44,0,0,0-.9-.07,21.8,21.8,0,0,0-4.12.41c0,.15,0,.26,0,.33,0,.54-.28,1-.63,1a1.3,1.3,0,0,1-1.11-1,2,2,0,0,1,0-.23,3.8,3.8,0,0,0,.06-.59,32.44,32.44,0,0,0-.48-3.9c-.15-1-.44-1.49-1-1.63-.09,0-.14-.06-.14-.12s.43-.25.83-.25a2.06,2.06,0,0,1,1.59.75c.67-.06,1.11-.11,1.28-.14l2-.27Zm-3.78,5.37c2.25-.26,2.57-.29,4-.47a34.88,34.88,0,0,0,.5-3.85c0-.2-.1-.29-.32-.29a36.28,36.28,0,0,0-4.59.67C82.48,151.75,82.56,152.4,82.75,154.48Zm15.83-2.38a.9.9,0,0,1-.94.87c-.38,0-.47-.08-.73-.54a3.53,3.53,0,0,0-2-1.77c-.13,0-.14,0-.14-.09s.5-.3,1-.3C97.31,150.27,98.58,151.12,98.58,152.1Zm-1.18,5.77c-.32,0-.81-.32-1.37-.93-.43-.46-.54-.68-.54-1.06s.11-.61.23-.61,0,0,.11.12a1.16,1.16,0,0,0,.88.42c1.1,0,3.23-1.21,5.53-3.16a22.43,22.43,0,0,0,4.11-4.37c.12-.18.15-.21.23-.21a.11.11,0,0,1,.12.12,10.53,10.53,0,0,1-1.53,2.85,21,21,0,0,1-7.24,6.51C97.68,157.81,97.57,157.87,97.4,157.87Zm3-8.72a1,1,0,0,1-1,.92c-.37,0-.5-.11-.78-.63a3.47,3.47,0,0,0-2.14-1.74c-.13,0-.15,0-.15-.09s.57-.34,1.16-.34C99.07,147.27,100.38,148.11,100.38,149.15Zm4.52-2a.68.68,0,0,1-.72.67c-.24,0-.32-.06-.52-.39a2.24,2.24,0,0,0-1.22-1.1c-.11,0-.14-.07-.14-.13s.26-.21.66-.21C104.07,146,104.9,146.45,104.9,147.12Zm2.23-.85a.68.68,0,0,1-.7.67c-.28,0-.4-.08-.55-.38a2.16,2.16,0,0,0-1.41-1.18c-.08,0-.12-.06-.12-.12s.24-.22.69-.22C106.23,145,107.13,145.58,107.13,146.27Zm4.78,9.52c.35,0,1.72-.09,3.28-.21,0-.66.06-1,.06-1.51,0-.75,0-1.42-.06-1.79a.51.51,0,0,0-.21-.41,11.47,11.47,0,0,0-1.65.33,1.3,1.3,0,0,1-.38.1c-.46,0-1-.66-1-1.23,0-.21,0-.35.08-.35l0,0a1.21,1.21,0,0,0,1,.45c.58,0,2.7-.2,3.37-.31a6.28,6.28,0,0,0,1.67-.47.5.5,0,0,1,.29-.11c.46,0,1.39.67,1.39,1a.49.49,0,0,1-.54.43,2.07,2.07,0,0,1-.32,0c-.27,0-.7,0-1,0s-.64,0-1.5,0c.35.23.49.37.49.5a.44.44,0,0,1,0,.14,9.82,9.82,0,0,0-.37,3.09c1.12-.11,1.36-.14,2.83-.32a4.28,4.28,0,0,1,.76-.26c.77.16,1.59.84,1.59,1.31a.49.49,0,0,1-.5.4,1.28,1.28,0,0,1-.37-.07,16.1,16.1,0,0,0-3.27-.32,16.47,16.47,0,0,0-4.82.65,2.21,2.21,0,0,1-.77.18c-.29,0-.48-.09-1-.47s-.51-.43-.51-.65a.59.59,0,0,1,.29-.53C110.84,155.68,111.16,155.79,111.91,155.79Zm16.23-2.94a6.2,6.2,0,0,1-1.72.82.11.11,0,0,1-.11-.11c0-.07,0-.12.2-.23a10.24,10.24,0,0,0,2.24-2.24,6.65,6.65,0,0,0,1.65-3.56.87.87,0,0,0-.56-.94c.06-.16.29-.26.59-.26a2.81,2.81,0,0,1,1.77.78,1,1,0,0,1,.36.53,5.78,5.78,0,0,1-.78,1.37,1,1,0,0,0,.21,0,6.39,6.39,0,0,0,2.49-.84.76.76,0,0,1,.38-.18c.31,0,.61.19,1.39.91.31.29.38.38.38.48s-.18.32-.68.65a14.88,14.88,0,0,1-6.13,6.51,13.85,13.85,0,0,1-3.56,1.43,3.38,3.38,0,0,1-.65.11.13.13,0,0,1-.14-.13c0-.09,0-.1.35-.21a15.47,15.47,0,0,0,5.68-4,18.08,18.08,0,0,0,2.28-3.31,2.53,2.53,0,0,0,.23-.84.2.2,0,0,0-.2-.23l-.2,0a9.88,9.88,0,0,1-1.7.27.94.94,0,0,1-.44-.12A11.93,11.93,0,0,1,128.14,152.85Zm20.37-1.91a2.53,2.53,0,0,1,1.44,1.83.94.94,0,0,1-.93.85c-.43,0-.7-.19-1.07-.79a5.76,5.76,0,0,0-2.47-2.38c0,2.85.07,4.24.15,5.74,0,.29,0,.53,0,.73,0,1-.31,1.51-.81,1.51-.28,0-.52-.17-.78-.58a2.3,2.3,0,0,1-.43-1,2,2,0,0,1,.09-.43,35.17,35.17,0,0,0,.34-6.12,12.57,12.57,0,0,0-.27-3.59c-.14-.26-.28-.32-.69-.33-.23,0-.26,0-.26-.09s0-.13.35-.29a2.52,2.52,0,0,1,1.11-.42,1.84,1.84,0,0,1,1.24.74,1.76,1.76,0,0,1,.4.68.68.68,0,0,1-.09.28c-.25.47-.31.85-.37,2.72A6.68,6.68,0,0,1,148.51,150.94ZM58.57,171.77a14.16,14.16,0,0,1-2.08,1,5,5,0,0,1-.93.32c-.07,0-.12,0-.12-.1s0-.08.18-.17a18.2,18.2,0,0,0,3.1-2.1v-1l.78.35a5.56,5.56,0,0,0,.59-.57.54.54,0,0,1-.34-.47,2.21,2.21,0,0,0-.83-1.45l-.11.1a12,12,0,0,1-2.5,2.16c-.55.35-.55.35-.61.35a.11.11,0,0,1-.1-.12s0-.07.09-.13a16.55,16.55,0,0,0,3.92-6.31l1.48.71c.19.08.29.21.29.33s-.08.23-.34.3l-.35.11-.43.66H63l.64-.78,1.18,1c.17.14.25.26.25.38s-.13.25-.41.31l-.39.07L64,167a22.05,22.05,0,0,1-3.34,3.4h3.48l.57-.81L66,170.63a.45.45,0,0,1,.2.33c0,.11,0,.15-.29.3l-.15.09v3.23a.34.34,0,0,1-.26.34c-.09,0-.72.11-.88.12a.25.25,0,0,1-.28-.25v-.63H60.14v.63c0,.18-.07.25-.28.3a3.75,3.75,0,0,1-.88.15c-.17,0-.26-.07-.26-.25V171.7Zm1.48-5.71c-.16.21-.31.42-.47.62l-.2.29c-.06.08-.13.18-.25.32l.15,0c1.06.15,1.58.54,1.67,1.27a21,21,0,0,0,2-2.53Zm.09,7.77h4.18v-3.11H60.14Zm12.14-6.78c-.7,0-1.19,0-2.22.06l-.22-.46c1.79,0,1.9.06,2.47.06h2.58v-2.85l1.63.14c.3,0,.44.13.44.32a.37.37,0,0,1-.23.32l-.34.16v1.91h2.67l1-1.25,1.23,1.07a.43.43,0,0,1,.17.3c0,.14-.11.22-.3.22H76.39v3h1.77l.5-.84,1.26,1.12c.17.16.24.26.24.4a.38.38,0,0,1-.16.3l-.21.15v3.36c0,.32-.14.45-.59.55a3.32,3.32,0,0,1-.61.09c-.21,0-.3-.09-.3-.32v-.51H73.21v.36a.33.33,0,0,1-.29.39,3.47,3.47,0,0,1-.91.15c-.22,0-.32-.1-.32-.31v-5.56l1.76.67h1.44v-3Zm.93,7h5.08v-3.62H73.21ZM87,168.59a9.29,9.29,0,0,1-1.65,5.29c-.57.79-.78,1-.91,1a.14.14,0,0,1-.11-.13.7.7,0,0,1,.1-.25,14.25,14.25,0,0,0,1.22-6.45c0-1-.05-2.27-.15-4l1.73.72h6.44l.45-.72,1.17.92a.57.57,0,0,1,.21.36.46.46,0,0,1-.15.27l-.28.11v1.13c0,.3-.09.35-.67.43l1,.86c.14.13.19.19.19.28s-.07.15-.18.15H91a13.55,13.55,0,0,1-1.47,1.64l.65,0,1.21,0,1.75-.06a3.75,3.75,0,0,0-1.3-.95c-.08,0-.11-.08-.11-.13s.06-.11.17-.11a6.88,6.88,0,0,1,1.76.45c1,.43,1.66,1.08,1.66,1.69a.65.65,0,0,1-.64.69c-.27,0-.35-.06-.71-.62a4.56,4.56,0,0,0-.5-.66c-.62.14-.94.2-1.86.34v1.62h1.36l.72-.93,1.14.84c.14.11.22.2.22.29a.15.15,0,0,1-.15.14H91.56v1.71h2.2l.9-1.09,1.18.89c.2.15.26.23.26.33a.21.21,0,0,1-.2.21H86.82l-1,0-.12-.45,1.13,0,1,0h2.28v-1.71H88.57l-1.57,0-.11-.42c.86,0,1.21,0,1.68,0h1.56V171a14.25,14.25,0,0,1-1.85.27l-.14.24c-.11.2-.16.25-.28.25s-.2-.07-.32-.34l-.62-1.25h1.89a8.35,8.35,0,0,0,.5-1.64Zm6.68-2v-1.41H87v1.41ZM87,168.25h6.41l.71-.9H94c-.21,0-.31-.09-.31-.26v-.21H87Zm17.12,4a11.89,11.89,0,0,1-3,2.16,12,12,0,0,1-1.83.74.09.09,0,0,1-.1-.1s0,0,.34-.26a11.29,11.29,0,0,0,4-4H102v.53c0,.31-.37.5-1,.5-.23,0-.34-.1-.34-.3v-4.86l1.44.64h2v-1.22h-2.55c-.74,0-1.21,0-2.32.06l-.14-.47c1.24.06,1.75.07,2.46.07h2.55v-1.95l1.58.16a.31.31,0,0,1,.3.3.35.35,0,0,1-.18.28l-.36.18v1h3l.77-1.06,1.22,1c.12.1.17.18.17.26a.21.21,0,0,1-.2.18h-4.91v1.22h2l.38-.74,1.19,1a.56.56,0,0,1,.2.34c0,.08,0,.14-.14.22l-.21.16v2.82a.34.34,0,0,1-.24.37,2.64,2.64,0,0,1-.78.14.3.3,0,0,1-.34-.31v-.53h-1.9a8.91,8.91,0,0,0,5.06,2.95,2.62,2.62,0,0,0-1.38,1.29,8.19,8.19,0,0,1-3.85-3.86v3.44c0,.24,0,.35-.21.43a1.9,1.9,0,0,1-.78.15c-.26,0-.35-.1-.35-.43ZM102,168.86h2.08v-1.24H102Zm0,1.58h2.08V169.2H102Zm3.42-1.58h2.07v-1.24h-2.07Zm0,1.58h2.07V169.2h-2.07Zm15-1.43c.12.12.17.19.17.29a.19.19,0,0,1-.21.18h-5.3l-1.52,0-.16-.43.91,0h3.26c.34-1.34.48-1.95.68-3.1h-2.86s-.4,0-.75,0l-.75,0-.18-.42.93,0c.35,0,.71,0,.75,0h1.12v-1.92l1.5.16c.19,0,.29.12.29.24s-.05.19-.24.31l-.2.15v1.06h.79l.68-.93,1,.84c.14.11.18.17.18.26s-.08.16-.2.16h-1.61l.87.51a.3.3,0,0,1,.18.23q0,.14-.18.24l-.18.1c-.36.58-.8,1.26-1.34,2h.71l.76-1Zm-4.59,5.51c0,.23-.44.41-1,.41-.2,0-.3-.08-.3-.2v-4.65l1.44.65h2.27l.44-.7,1.13,1a.45.45,0,0,1,.18.28.27.27,0,0,1-.15.22l-.19.14v2.63c0,.2-.44.38-1,.38-.25,0-.36-.07-.36-.23v-.56h-2.46Zm-.26-7.94c.8.38,1.12.82,1.12,1.5a.78.78,0,0,1-.76.88c-.39,0-.53-.21-.58-.88a2.21,2.21,0,0,0-.61-1.56.24.24,0,0,1-.06-.14.07.07,0,0,1,.08-.08A3.34,3.34,0,0,1,115.56,166.58Zm2.72,7v-2.47h-2.46v2.47Zm3.72,1.25c0,.23-.43.39-1,.39-.19,0-.28-.06-.28-.19V164.12l1.44.67h1.33l.44-.71,1.06,1.08c.14.13.19.21.19.31s-.09.19-.25.24l-.2.07-1.87,2.45a7.26,7.26,0,0,1,1.19,1,3.31,3.31,0,0,1,1,2.33,2.18,2.18,0,0,1-.85,1.81,1.24,1.24,0,0,1-.65.27c-.19,0-.28-.09-.31-.35a.56.56,0,0,0-.12-.35,1.53,1.53,0,0,0-.23-.15l-.33-.18c-.58-.25-.58-.25-.58-.33a.13.13,0,0,1,.14-.13h.11a5.91,5.91,0,0,0,.65,0c.59,0,.9-.4.9-1.15a3.85,3.85,0,0,0-1.38-2.71l1.08-3.18H122Zm-69.75-4.91H34.56v.29H52.25Zm92.38,0H126.94v.29h17.69Z"/></svg>