<svg id="レイヤー_1" data-name="レイヤー 1" xmlns="http://www.w3.org/2000/svg" viewBox="0 0 264 217"><defs><style>.cls-1{fill:#fff;}.cls-2{fill:#231815;}.cls-3{fill:#525a70;}</style></defs><rect class="cls-1" width="264" height="217"/><path class="cls-2" d="M36.688,58.383c.193-.09.223-.075.283.074a11.929,11.929,0,0,0,4.83,5.5,5.066,5.066,0,0,0-.865,1.118c-.134.224-.194.328-.283.328s-.164-.075-.313-.194A12.072,12.072,0,0,1,38.924,64c-.03.433-.03.954-.045,1.476a29.733,29.733,0,0,1-.373,4.174,1.929,1.929,0,0,1-2.221,1.833c-.373,0-.656,0-1.014-.029-.462-.03-.447-.03-.551-.522a3.092,3.092,0,0,0-.462-1.193,11.031,11.031,0,0,0,1.7.135c.626,0,.88-.239,1-.925a24.632,24.632,0,0,0,.283-3.7H34.585a7.211,7.211,0,0,1-4.531,6.321.97.97,0,0,1-.359.119c-.119,0-.164-.1-.312-.357a2.814,2.814,0,0,0-.761-.894c2.714-.985,4.025-2.565,4.309-5.189h-.179c-1.4,0-1.879.03-1.968.03-.149,0-.164-.015-.164-.164V64.032a15.99,15.99,0,0,1-1.446,1.238c-.164.12-.254.194-.328.194-.105,0-.164-.1-.313-.328a3.351,3.351,0,0,0-.835-.909,11.641,11.641,0,0,0,4.308-4.92,4.189,4.189,0,0,0,.3-.954,10.471,10.471,0,0,1,1.55.521c.164.075.208.15.208.254a.305.305,0,0,1-.119.224,1.19,1.19,0,0,0-.342.476,13.458,13.458,0,0,1-2.729,3.951c.209.015.731.03,1.879.03h4.01c1.3,0,1.789-.015,1.938-.03a15.682,15.682,0,0,1-3.205-4.725c-.06-.164-.03-.18.134-.254Z"/><path class="cls-2" d="M47.263,60.723c1.132,0,1.506-.029,1.594-.029.15,0,.164.014.164.164v1.058c0,.164-.014.179-.164.179-.088,0-.462-.03-1.594-.03h-1.3c-1.149,0-1.506.03-1.6.03-.148,0-.163-.015-.163-.179V60.858c0-.15.015-.164.163-.164.09,0,.447.029,1.6.029Zm-.06-2.042c.954,0,1.252-.03,1.342-.03.164,0,.179.015.179.164V59.8c0,.149-.015.164-.179.164-.09,0-.388-.03-1.342-.03h-.939c-.969,0-1.267.03-1.357.03-.149,0-.164-.015-.164-.164v-.984c0-.149.015-.164.164-.164.09,0,.388.03,1.357.03Zm4.085,8.542c-1.432,0-1.938.03-2.027.03-.15,0-.164-.016-.164-.149v-.745c0-.15.014-.165.164-.165.089,0,.595.03,2.027.03h.119v-.775c-.984.015-1.356.03-1.431.03-.149,0-.165-.015-.165-.164v-.671c0-.149.016-.164.165-.164.075,0,.447.03,1.431.03v-.761c-1.148.016-1.58.03-1.655.03-.148,0-.164-.014-.164-.164V62.93c0-.15.016-.164.164-.164.075,0,.507.029,1.655.029a6.674,6.674,0,0,0-.074-.879c-.269.119-.582.253-.925.372a1.31,1.31,0,0,1-.357.09c-.119,0-.164-.074-.283-.268a3.264,3.264,0,0,0-.627-.7,9,9,0,0,0,2.266-.865,1.427,1.427,0,0,0,.269-.179h-.254c-1.416,0-1.908.031-2,.031-.15,0-.164-.016-.164-.164v-.88c0-.15.014-.164.164-.164.089,0,.581.03,2,.03h1.311a4.434,4.434,0,0,0-.1-1.178c.507.015.938.044,1.43.089.135.015.224.075.224.149a.823.823,0,0,1-.089.269,2.005,2.005,0,0,0-.075.671h1.521c1.417,0,1.908-.03,2-.03.149,0,.164.014.164.164v.88c0,.148-.015.164-.164.164-.09,0-.581-.031-2-.031h-.4a7.723,7.723,0,0,0,2.684.94,3.761,3.761,0,0,0-.478.8c-.134.3-.148.283-.61.178a9.341,9.341,0,0,1-2.564-1.177c-.075-.044-.105-.075-.105-.1s.03-.074.105-.148l.447-.493H52.2l.6.433c.119.089.148.148.148.208a.19.19,0,0,1-.164.18,1.072,1.072,0,0,0-.462.178c-.223.149-.461.284-.73.433.373.015.745.044,1.059.074.119.015.178.06.178.134a.551.551,0,0,1-.059.224,1.421,1.421,0,0,0-.075.566h1.476a5.442,5.442,0,0,0-.09-1.014,12.12,12.12,0,0,1,1.342.105c.119.015.18.059.18.149a.489.489,0,0,1-.061.209,1.224,1.224,0,0,0-.089.551c1.387,0,1.73-.029,1.819-.029.149,0,.164.014.164.164v.685c0,.15-.015.164-.164.164-.089,0-.432-.03-1.819-.03v.761c1.043,0,1.447-.03,1.535-.03.15,0,.164.015.164.164v.671c0,.149-.014.164-.164.164-.088,0-.492-.015-1.535-.03v.775h.358c1.431,0,1.938-.03,2.027-.03.135,0,.149.015.149.165V67.1c0,.133-.014.149-.149.149-.074,0-.4-.016-1.207-.03a8.615,8.615,0,0,1,.864.6.278.278,0,0,1,.119.209.2.2,0,0,1-.164.194A1,1,0,0,0,57,68.49l-1.058.76A6.411,6.411,0,0,0,58.265,70.4a3.4,3.4,0,0,0-.581.923c-.12.269-.179.373-.284.373a1,1,0,0,1-.342-.119,7.081,7.081,0,0,1-3.847-4.263,7.078,7.078,0,0,1-.745.745v1.953a17.638,17.638,0,0,0,1.892-.537,6.445,6.445,0,0,0-.059.746c-.015.476-.015.476-.477.611a28.518,28.518,0,0,1-3.071.76,1.44,1.44,0,0,0-.477.134.519.519,0,0,1-.254.09c-.088,0-.148-.09-.209-.239-.119-.358-.207-.715-.312-1.132a11.808,11.808,0,0,0,1.311-.135l.314-.045V69c-.478.269-1,.522-1.551.776-.238.1-.3.1-.417-.135a3.534,3.534,0,0,0-.537-.79v.343c0,1.729.03,2.057.03,2.147,0,.148-.015.163-.164.163h-1c-.149,0-.164-.015-.164-.163V70.92H46.1v.686c0,.149-.015.164-.149.164H44.938c-.165,0-.18-.015-.18-.164,0-.089.03-.432.03-2.237v-.954c0-.938-.03-1.3-.03-1.4,0-.15.015-.164.18-.164.088,0,.4.029,1.356.029h.819c.954,0,1.268-.029,1.372-.029.149,0,.164.014.164.164,0,.089-.03.446-.03,1.147v.567a8.747,8.747,0,0,0,2.952-1.506ZM47.069,62.84c.895,0,1.162-.029,1.252-.029.164,0,.179.014.179.164v.969c0,.148-.015.164-.179.164-.09,0-.357-.031-1.252-.031h-.715c-.91,0-1.178.031-1.268.031-.148,0-.164-.016-.164-.164v-.969c0-.15.016-.164.164-.164.09,0,.358.029,1.268.029Zm0,2.013c.895,0,1.162-.031,1.252-.031.164,0,.179.016.179.164v.955c0,.149-.015.164-.179.164-.09,0-.357-.03-1.252-.03h-.715c-.91,0-1.178.03-1.268.03-.148,0-.164-.015-.164-.164v-.955c0-.148.016-.164.164-.164.09,0,.358.031,1.268.031ZM46.1,68.117v1.566h1.222V68.117Zm8.065-3.607v-.761H52.689v.761Zm0,1.714v-.775H52.689v.775Zm.328,1a5.816,5.816,0,0,0,.7,1.237,9.182,9.182,0,0,0,.94-.775,2.109,2.109,0,0,0,.357-.462Z"/><path class="cls-2" d="M62.906,66.791c-1.311,0-1.773.029-1.863.029-.148,0-.164-.014-.164-.164V65.434c0-.149.016-.164.164-.164.09,0,.552.03,1.863.03h3.742V60.32H63.712c-1.416,0-1.908.031-2,.031-.149,0-.164-.015-.164-.179V58.979c0-.164.015-.179.164-.179.09,0,.582.03,2,.03H71.4c1.416,0,1.908-.03,2-.03.15,0,.164.015.164.179v1.193c0,.164-.014.179-.164.179-.089,0-.581-.031-2-.031H68.273V65.3h3.862c1.327,0,1.774-.03,1.878-.03.149,0,.164.015.164.164v1.222c0,.15-.015.164-.164.164-.1,0-.551-.029-1.878-.029H68.273v3.22c0,1,.015,1.475.015,1.565,0,.149-.015.164-.148.164H66.783c-.149,0-.164-.015-.164-.164,0-.1.029-.566.029-1.565v-3.22Zm.582-5.919c.164-.09.194-.059.283.074A14.36,14.36,0,0,1,65.4,64.063c.045.133.045.164-.119.253l-1.013.447c-.195.09-.224.09-.284-.074a15.021,15.021,0,0,0-1.52-3.116c-.09-.12-.061-.134.134-.239Zm7.424.761a3.431,3.431,0,0,0,.283-.835,7.387,7.387,0,0,1,1.357.6c.134.075.179.134.179.209s-.03.133-.134.223a1.274,1.274,0,0,0-.343.478,18.872,18.872,0,0,1-1.371,2.28c-.15.209-.209.3-.314.3a.847.847,0,0,1-.357-.18,3.844,3.844,0,0,0-.88-.447A13.627,13.627,0,0,0,70.912,61.633Z"/><path class="cls-2" d="M87.958,66.359c-2.088.164-4.309.3-6.44.387a1.3,1.3,0,0,0-.478.074.594.594,0,0,1-.224.06c-.089,0-.164-.06-.193-.193-.074-.343-.149-.79-.209-1.223.552.015,1.059.029,1.58.029a8.479,8.479,0,0,0,.746-1.311H79.981a26.053,26.053,0,0,1-.312,3.219,10.7,10.7,0,0,1-1.282,3.773c-.119.179-.164.268-.239.268-.059,0-.134-.075-.283-.239a5,5,0,0,0-.984-.864,8,8,0,0,0,1.3-3.474,29.686,29.686,0,0,0,.328-4.934c0-2.1-.03-3.041-.03-3.131,0-.164.015-.179.149-.179.09,0,.611.03,2.058.03h6.961c1.447,0,1.968-.03,2.058-.03.149,0,.164.015.164.179,0,.09-.03.343-.03,1.028v1.149c0,.671.03.924.03,1.013,0,.15-.015.164-.164.164-.09,0-.611-.03-2.058-.03H80.012v.835h8.006c1.46,0,1.967-.029,2.056-.029.164,0,.179.014.179.164v.954c0,.148-.015.164-.179.164-.089,0-.6-.03-2.056-.03h-.463A19.185,19.185,0,0,1,89.7,66.314c.1.133.089.164-.09.283l-.761.521c-.1.076-.148.105-.193.105s-.074-.029-.119-.105Zm-6.411,4.979c-1.446,0-1.938.029-2.028.029-.148,0-.164-.014-.164-.178v-.954c0-.15.016-.165.164-.165.09,0,.582.031,2.028.031h2.474V69.086H82.8c-1.417,0-1.924.03-2.013.03-.149,0-.164-.014-.164-.164v-.894c0-.164.015-.179.164-.179.089,0,.6.029,2.013.029h1.221v-.029a5.524,5.524,0,0,0-.074-1.088c.462.015.925.044,1.4.089.178.015.3.09.3.164a.667.667,0,0,1-.088.3,1.474,1.474,0,0,0-.076.522v.044h1.73c1.431,0,1.908-.029,2-.029.164,0,.179.015.179.179v.894c0,.15-.015.164-.179.164-.09,0-.567-.03-2-.03h-1.73V70.1h2.833c1.447,0,1.953-.031,2.028-.031.149,0,.164.015.164.165v.954c0,.164-.015.178-.164.178-.075,0-.581-.029-2.028-.029ZM88.3,59.873H80.012v1.059H88.3Zm-1.834,4.905c-.119-.1-.134-.134.045-.239l.685-.357H84.29a10.375,10.375,0,0,1-.745,1.282c1.088-.045,2.265-.09,3.443-.179Z"/><path class="cls-2" d="M39.743,96.915c0,.686.03,1.326.03,1.848a1.376,1.376,0,0,1-.506,1.267,3.883,3.883,0,0,1-1.983.329c-.447,0-.463.014-.567-.462a3.184,3.184,0,0,0-.462-1.119,11.38,11.38,0,0,0,1.6.03c.327-.015.417-.134.417-.462V95.394H35.331c-1.417,0-1.893.03-1.983.03-.149,0-.164-.015-.164-.164V94.5a2.454,2.454,0,0,1-.284.149c-.327.178-.685.342-1.043.521v2.49c0,1.7.03,2.549.03,2.624,0,.149-.015.164-.179.164H30.516c-.15,0-.164-.015-.164-.164,0-.09.03-.924.03-2.609V95.857l-1.044.447a1.47,1.47,0,0,0-.492.3.361.361,0,0,1-.253.134c-.105,0-.164-.03-.224-.165a13.46,13.46,0,0,1-.492-1.445,7.685,7.685,0,0,0,1.387-.4q.558-.18,1.118-.4V91.265H29.5a15.99,15.99,0,0,1-.343,1.714c-.059.254-.09.358-.179.358a.964.964,0,0,1-.343-.149,5.293,5.293,0,0,0-.82-.3,16.185,16.185,0,0,0,.626-3.906,7.016,7.016,0,0,0-.014-.955c.387.045.835.105,1.207.179.178.045.238.09.238.18a.492.492,0,0,1-.074.238,1.7,1.7,0,0,0-.074.507l-.06.73h.716v-.835a15.762,15.762,0,0,0-.12-2.251c.566.015,1.013.045,1.536.105.148.015.238.074.238.148a.82.82,0,0,1-.09.314A6.165,6.165,0,0,0,31.857,89v.864c.82,0,1.133-.03,1.207-.03.165,0,.18.016.18.15V91.13c0,.09-.015.135-.045.149.119,0,.626.031,1.983.031H36.27V89.819h-.611c-1.327,0-1.76.03-1.849.03-.164,0-.179-.016-.179-.164V88.626c0-.149.015-.164.179-.164.089,0,.522.029,1.849.029h.611a8.509,8.509,0,0,0-.134-1.7c.581.015,1.044.06,1.565.119.15.016.238.06.238.15a.775.775,0,0,1-.088.3,3.352,3.352,0,0,0-.1,1.132h1.043c1.342,0,1.789-.029,1.879-.029.148,0,.164.015.164.164v1.059c0,.148-.016.164-.164.164-.09,0-.537-.03-1.879-.03H37.746V91.31h1.64c1.416,0,1.908-.031,1.982-.031.15,0,.164.015.164.15v1.058c0,.149-.014.164-.164.164-.074,0-.566-.03-1.982-.03h-4.2c-1.431,0-1.923.03-2.013.03-.149,0-.164-.015-.164-.164V91.429c0-.075,0-.105.03-.135-.1,0-.418-.015-1.178-.029v2.429c.433-.208.9-.417,1.372-.67,0,.283.015.656.044.984h.075c.09,0,.566.029,1.983.029h2.937a5.66,5.66,0,0,0-.105-1.192,13.01,13.01,0,0,1,1.521.164c.149.029.239.1.239.179a.477.477,0,0,1-.09.254,1.152,1.152,0,0,0-.09.6c1.1,0,1.521-.029,1.6-.029.148,0,.164.015.164.164V95.26c0,.149-.016.164-.164.164-.075,0-.492-.015-1.6-.03ZM34.9,95.871c.165-.09.209-.09.314.015a11.882,11.882,0,0,1,1.445,1.729c.09.134.075.164-.089.284l-.894.641c-.09.06-.135.089-.179.089s-.075-.045-.1-.119a9.246,9.246,0,0,0-1.372-1.863c-.1-.135-.089-.164.075-.269Z"/><path class="cls-2" d="M49.9,93.814c.821,0,1.059-.03,1.148-.03.164,0,.194.03.194.179-.03.522-.045.909-.045,1.327a18.961,18.961,0,0,1-.283,3.4,1.734,1.734,0,0,1-1.894,1.475,6.41,6.41,0,0,1-.73-.029c-.4-.045-.432-.03-.507-.478a2.751,2.751,0,0,0-.417-1.1c.6.074,1.133.134,1.431.134.447,0,.611-.194.716-.895a18.073,18.073,0,0,0,.178-2.639H47.74a8.74,8.74,0,0,1-2.207,4.682c-.134.149-.209.224-.283.224s-.134-.09-.253-.284a3.734,3.734,0,0,0-.806-.91c1.7-1.565,2.237-3.219,2.327-6.574-1.014.015-1.4.03-1.477.03-.163,0-.179-.015-.179-.164,0-.1.031-.462.031-1.327V88.909c0-.864-.031-1.222-.031-1.327,0-.148.016-.164.179-.164.09,0,.507.03,1.745.03h2.475c1.221,0,1.639-.03,1.744-.03.148,0,.164.016.164.164,0,.105-.03.463-.03,1.327v1.923c0,.865.03,1.237.03,1.327,0,.149-.016.164-.164.164-.105,0-.523-.03-1.744-.03H48.008q-.023.805-.089,1.521Zm-3.518-2.788h3.265V88.76H46.383Zm6.262-.76a15.6,15.6,0,0,0-.105-2.206c.521.014,1.014.045,1.52.1.15.015.224.074.224.164a1.363,1.363,0,0,1-.1.327,10.122,10.122,0,0,0-.045,1.6v4.114c0,1.268.03,1.879.03,1.968,0,.15-.015.164-.179.164H52.778c-.148,0-.164-.014-.164-.164,0-.089.031-.7.031-1.968Zm4.651,5.1c0,1.044.045,2.222.045,2.967s-.12,1.163-.537,1.461c-.4.283-.865.358-2.311.372-.462,0-.462,0-.566-.476a3.219,3.219,0,0,0-.478-1.119,13.027,13.027,0,0,0,1.656.075c.476,0,.655-.1.655-.581V89.1a14.538,14.538,0,0,0-.119-2.132c.537.015,1.089.045,1.61.1.149.016.238.09.238.164a.708.708,0,0,1-.1.314,5.312,5.312,0,0,0-.089,1.52Z"/><path class="cls-2" d="M71.419,90.818c.73,0,1.565-.015,2.251-.045.179-.015.194.074.209.238a7.721,7.721,0,0,1,0,1.178c-.015.194-.045.254-.254.239-.507,0-1.416-.016-2.146-.016h-.612A8.867,8.867,0,0,1,69.72,97,7.023,7.023,0,0,1,66.2,99.777a1.264,1.264,0,0,1-.417.134c-.09,0-.164-.045-.283-.164a3.438,3.438,0,0,0-1.237-.894c2.116-.657,3.264-1.416,4.024-2.639a7.209,7.209,0,0,0,.88-3.8H65.992v.537c0,.88,0,1.685.045,2.475.016.164-.089.193-.253.209a9.456,9.456,0,0,1-1.282,0c-.194-.016-.283-.045-.269-.209.045-.775.075-1.506.075-2.445v-.567H63.86c-.8,0-2,.045-2.459.075-.119,0-.164-.089-.179-.283a13.094,13.094,0,0,1-.1-1.446c.626.045,1.595.074,2.742.074h.448V89.744a10.359,10.359,0,0,0-.179-2.191,14.3,14.3,0,0,1,1.819.238c.164.03.224.105.224.209a1.009,1.009,0,0,1-.09.313,3.747,3.747,0,0,0-.1,1.431v1.088h3.205l.015-1.461a9.847,9.847,0,0,0-.135-2.042,14.005,14.005,0,0,1,1.745.253c.209.045.268.119.268.239a.807.807,0,0,1-.059.268A4.081,4.081,0,0,0,70.9,89.4v1.417Z"/><path class="cls-2" d="M85.632,96.452c0,1.03.014,1.909.045,3.1.014.193-.06.253-.224.253a12.362,12.362,0,0,1-1.491,0c-.164,0-.224-.06-.208-.238.014-1.074.059-2.043.059-3.057V93.038a25.766,25.766,0,0,1-4.1,2.863.432.432,0,0,1-.224.06.416.416,0,0,1-.313-.149,5.553,5.553,0,0,0-1.283-.88,23.959,23.959,0,0,0,4.7-3.056,24.223,24.223,0,0,0,3.175-3.116,4.315,4.315,0,0,0,.939-1.535,13.212,13.212,0,0,1,1.655,1.044.262.262,0,0,1,.119.222.423.423,0,0,1-.209.328,4.972,4.972,0,0,0-.894.821,23.617,23.617,0,0,1-1.744,1.878Z"/><path class="cls-2" d="M99.845,91.577a21.119,21.119,0,0,1,4.741,2.029c.163.088.238.193.163.387a8.708,8.708,0,0,1-.641,1.3c-.059.1-.119.164-.193.164a.227.227,0,0,1-.164-.075,16.563,16.563,0,0,0-3.921-1.908v3.3c0,.969.029,1.848.06,2.922.014.178-.06.223-.269.223a9.794,9.794,0,0,1-1.327,0c-.208,0-.283-.045-.283-.223.045-1.1.059-1.983.059-2.937V89.416a11.418,11.418,0,0,0-.148-2.206,10.977,10.977,0,0,1,1.863.238c.209.045.283.134.283.253a.8.8,0,0,1-.119.344,3.886,3.886,0,0,0-.1,1.4Z"/><path class="cls-3" d="M48.337,178.231c0,6.325.136,8.5.136,10.015,0,.744-.579,1.085-1.739,1.085-.852,0-1.159-.278-1.159-.93,0-.682.17-4.248.17-10.139V176.9H35.174a23.776,23.776,0,0,0-3,.187l-.341-1.179a25.251,25.251,0,0,0,3.342.217H45.745V163.874H36.708a22.212,22.212,0,0,0-2.864.186l-.375-1.147a29.75,29.75,0,0,0,3.239.186H56.487c1.671-1.736,1.91-1.861,2.115-1.861.238,0,.477.125,2.216,1.4.853.589.989.775.989.961s-.1.279-.443.279H48.337v12.248h9.242c1.807-1.953,2.08-2.108,2.284-2.108s.478.155,2.319,1.519c.887.651,1.057.868,1.057,1.054s-.136.31-.477.31H48.337Zm-9.412-5.8a15.1,15.1,0,0,0-2.762-6.356c-.069-.093.17-.28.272-.217,3.24,1.953,5.252,4.527,5.252,6.511a1.664,1.664,0,0,1-1.534,1.83C39.368,174.2,39.164,173.828,38.925,172.432Zm11.594,2.357a28.566,28.566,0,0,0,4.161-6.357,15.692,15.692,0,0,0,1.159-3.131c2.626,1.023,3.513,1.457,3.513,1.86,0,.372-.443.527-1.4.62a27.88,27.88,0,0,1-6.99,7.318C50.758,175.223,50.383,174.944,50.519,174.789Z"/><path class="cls-3" d="M100.414,171.781c1.262-1.488,1.5-1.613,1.7-1.613.239,0,.512.125,1.978,1.21.682.5.853.682.853.868,0,.217-.1.31-.444.31H90.7a22.736,22.736,0,0,1-3.376,4.372c3.547-.031,7.093-.124,10.64-.5a12.415,12.415,0,0,0-3.342-2.574c-.137-.092.034-.372.2-.34,4.365.961,7.229,2.635,7.229,4.65a1.229,1.229,0,0,1-1.194,1.241c-.579,0-.92-.248-1.67-1.365a10.616,10.616,0,0,0-.683-.992,121.743,121.743,0,0,1-14.8,2.016c-.274.744-.478.961-.751.961-.409,0-.546-.372-1.227-3.194a20.169,20.169,0,0,0,2.455.124h1.944a23.592,23.592,0,0,0,1.568-4.4H80.4a38.089,38.089,0,0,1-1.022,7.225,21.011,21.011,0,0,1-4.843,8.93c-.137.155-.58-.031-.477-.217a27.982,27.982,0,0,0,3.171-8.93,76.837,76.837,0,0,0,.75-12.9,49.069,49.069,0,0,0-.2-5.333,21.907,21.907,0,0,1,3.171,1.426h19.1c1.091-1.117,1.262-1.21,1.466-1.21.239,0,.409.093,1.535.993.546.4.648.558.648.775,0,.248-.136.465-.955.9v1.21c0,1.736.1,2.48.1,3.193,0,.62-.545.93-1.5.93-.819,0-1.023-.216-1.023-.961v-.217H80.567c-.034,1.147-.068,2.264-.137,3.411Zm0,15.752c1.466-1.674,1.7-1.8,1.91-1.8.239,0,.477.124,2.114,1.364.75.527.921.713.921.9,0,.217-.1.31-.443.31H81.044a16.377,16.377,0,0,0-2.319.186l-.34-1.178a15.567,15.567,0,0,0,2.83.217h8.968v-4.217H84.148a14.014,14.014,0,0,0-2.456.186l-.341-1.179a21.058,21.058,0,0,0,3,.218h5.831V181.7a15.336,15.336,0,0,0-.2-2.822c3.342.31,3.717.558,3.717.868,0,.279-.2.5-1.125.837v1.954h6.1c1.364-1.426,1.6-1.582,1.807-1.582.239,0,.512.156,1.944,1.179.682.465.853.651.853.837,0,.248-.1.341-.444.341H92.571v4.217Zm-.1-24H80.567V167.6h19.745Z"/><path class="cls-3" d="M122.073,187.812c0,.744-.477,1.085-1.569,1.085-.784,0-1.057-.31-1.057-.9,0-1.582.2-3.907.2-14.294,0-5.923-.034-8.838-.2-11.473a16.356,16.356,0,0,1,3.035,1.364h20.6c1.159-1.147,1.33-1.271,1.534-1.271.239,0,.41.124,1.6,1.054.511.434.648.62.648.806,0,.279-.171.5-.955.9v6.45c0,10.3.205,14.729.205,16.093,0,.806-.478,1.147-1.637,1.147-.785,0-1.091-.279-1.091-.93V186.6H122.073Zm21.314-23.442H122.073v21.457h21.314ZM129.064,180.4c0,.682-.478.961-1.467.961-.75,0-1.023-.217-1.023-.775,0-.744.1-2.077.1-6.264a50.4,50.4,0,0,0-.171-5.488,23.576,23.576,0,0,1,2.9,1.241h6.513c.989-1.024,1.16-1.148,1.364-1.148.239,0,.444.124,1.535.931.545.4.682.589.682.806s-.137.4-.886.868v2.139c0,3.907.1,5.923.1,6.512,0,.713-.546.993-1.5.993-.716,0-1.023-.218-1.023-.776v-1.085h-7.127Zm7.127-9.55h-7.127v7.69h7.127Z"/><path class="cls-3" d="M168.25,165.952c0,6.852-.273,10.852-.921,13.55a15.661,15.661,0,0,1-6.649,9.7c-.239.155-.546-.154-.376-.341a17.874,17.874,0,0,0,4.945-9.4,50.067,50.067,0,0,0,.717-9.892,61.572,61.572,0,0,0-.24-8c3.513.4,3.718.5,3.718.9,0,.279-.137.434-1.194.837Zm-5.013,3.627c0,5.179.068,7.473.068,8.156,0,.619-.511.9-1.3.9-.58,0-.887-.217-.887-.775,0-.527.068-2.2.068-6.946a42.444,42.444,0,0,0-.17-5.581c2.659.278,3.205.464,3.205.836,0,.249-.2.435-.989.745Zm23.871,3.845c1.16-1.116,1.364-1.24,1.569-1.24.273,0,.614.124,1.91,1.3.477.434.682.776.682.993,0,.31-.341.434-1.466.5a1.608,1.608,0,0,0-.955.4,14.866,14.866,0,0,1-1.774,1.085c-.136.093-.341-.031-.272-.186a10.35,10.35,0,0,0,.783-2.077H171.8c.1,2.046-.751,3.627-2.115,3.627a1.2,1.2,0,0,1-1.227-1.178c0-.465.2-.744.818-1.209a4.016,4.016,0,0,0,1.739-3.349c0-.155.307-.217.376-.031a11.467,11.467,0,0,1,.341,1.364Zm-6.513,6.2c0,5.4.136,8.155.136,9.023,0,.682-.511.961-1.432.961-.853,0-1.125-.216-1.125-.837,0-.775.17-3.348.17-9.147v-.806h-4.5v2.542c0,2.791.034,3.876.034,4.59,0,.744-.478,1.085-1.4,1.085-.716,0-1.091-.248-1.091-.713,0-.683.136-1.613.136-4.558a50.386,50.386,0,0,0-.17-5.086,24.243,24.243,0,0,1,2.9,1.364h4.092c-.034-1.488-.068-2.263-.17-3.193,3.274.341,3.546.4,3.546.775,0,.248-.17.4-1.125.775v1.643h4.535c1.057-.992,1.228-1.085,1.433-1.085.239,0,.409.093,1.5.93.546.4.648.559.648.745,0,.279-.137.434-.92.868v1.333c0,3.039.1,3.473.1,3.876a2.049,2.049,0,0,1-1.126,2.047,3.679,3.679,0,0,1-1.466.31c-.341,0-.477-.093-.546-.527-.136-.744-.58-1.148-2.489-1.457-.2-.062-.2-.373,0-.373,1.432.062,2.114.062,2.728.062.409,0,.546-.124.546-.434V178.82H180.6Zm-8.866-17.147a15.43,15.43,0,0,0,2.625.186h10.163c1.057-1.055,1.261-1.148,1.466-1.148s.409.093,1.5.962c.546.4.682.589.682.775,0,.217-.1.31-.989.9V165.8c0,3.1.1,4.5.1,4.962,0,.682-.409.992-1.432.992-.751,0-1.023-.248-1.023-.9V170.7H174.252a10.526,10.526,0,0,0-2.217.217l-.375-1.179a19.511,19.511,0,0,0,2.558.187h10.606v-2.915h-9.719a10.526,10.526,0,0,0-2.217.217l-.341-1.147a18.45,18.45,0,0,0,2.523.155h9.754V163.44H174.388a9.651,9.651,0,0,0-2.319.248Z"/></svg>