<?xml version="1.0" encoding="UTF-8"?><svg id="_レイヤー_2" xmlns="http://www.w3.org/2000/svg" viewBox="0 0 264 217"><defs><style>.cls-1{fill:#fff;}.cls-2{fill:#796a56;}.cls-3{fill:#e50012;}</style></defs><g id="_レイヤー_1-2"><rect class="cls-1" width="264" height="217"/><path d="M29.583,60.307h1.261c-.041.53-.088,1.095-.143,1.695-.056.601-.113,1.181-.173,1.74-.06.56-.12,1.055-.18,1.485l-1.245-.195c.06-.42.122-.9.188-1.44.064-.54.122-1.097.172-1.672.051-.575.091-1.112.12-1.613ZM29.898,60.307h2.43v-2.025h-2.984v-1.26h4.35v4.56h-3.795v-1.275ZM32.388,63.292h1.319c-.01.141-.015.255-.015.345s-.005.17-.015.24c-.061,1.23-.123,2.235-.188,3.015-.065.78-.143,1.378-.233,1.793-.09.415-.21.712-.359.893-.141.18-.29.305-.45.375-.16.069-.36.12-.6.15-.2.02-.466.032-.795.038-.33.005-.681-.003-1.051-.022-.01-.21-.052-.445-.127-.705-.075-.26-.173-.485-.293-.675.351.029.681.047.99.052s.535.007.675.007c.12,0,.22-.01.3-.03.08-.02.155-.069.226-.149.1-.11.188-.343.263-.698.074-.355.14-.89.194-1.605s.107-1.652.158-2.812v-.21ZM29.898,63.292h3.03v1.23h-3.181l.15-1.23ZM33.888,68.452c.659-.03,1.427-.072,2.302-.128.875-.055,1.798-.12,2.768-.195s1.936-.142,2.896-.203v1.29c-.931.08-1.865.158-2.806.232-.939.075-1.835.147-2.685.218-.85.07-1.615.13-2.295.18l-.18-1.395ZM34.083,59.287c.64-.03,1.38-.062,2.221-.098.84-.035,1.734-.077,2.685-.127.95-.05,1.899-.1,2.85-.15l-.015,1.2c-.89.07-1.79.138-2.7.202-.91.065-1.777.125-2.603.18-.825.055-1.572.103-2.242.143l-.195-1.35ZM34.502,61.807h7.801v4.17h-7.801v-4.17ZM36.888,56.182l1.515.375c-.21.41-.44.828-.69,1.252-.25.425-.497.833-.742,1.223-.245.39-.478.735-.697,1.035l-1.17-.375c.21-.31.428-.67.652-1.08s.438-.827.638-1.253c.199-.425.364-.817.495-1.177ZM35.792,62.992v1.815h5.146v-1.815h-5.146ZM37.683,60.142h1.35v8.565l-1.35.06v-8.625ZM39.542,57.862l1.17-.54c.301.31.605.65.915,1.02.311.37.59.738.841,1.103.249.365.449.697.6.998l-1.275.615c-.12-.29-.303-.62-.547-.99-.245-.37-.516-.748-.811-1.133-.295-.385-.592-.742-.893-1.072ZM39.888,66.757l1.154-.51c.29.36.578.742.863,1.147.284.405.542.808.772,1.208.229.4.404.765.524,1.095l-1.245.569c-.1-.33-.26-.695-.479-1.095-.221-.399-.468-.812-.743-1.237-.274-.425-.558-.817-.847-1.178Z"/><path d="M45.752,59.212c.88.101,1.72.17,2.521.21.8.041,1.555.051,2.265.03.71-.02,1.355-.06,1.936-.12.42-.05.85-.112,1.29-.188.439-.075.877-.162,1.312-.262.435-.1.847-.215,1.237-.345l.18,1.5c-.34.09-.712.178-1.117.263s-.817.16-1.237.225c-.42.065-.82.123-1.2.173-.971.11-2.05.17-3.24.18-1.19.01-2.495-.04-3.915-.149l-.03-1.516ZM48.377,64.132c-.229.36-.407.708-.532,1.042s-.188.678-.188,1.027c0,.67.293,1.16.878,1.47.585.31,1.417.47,2.497.48.79.01,1.51-.02,2.16-.09.649-.07,1.24-.16,1.77-.27l-.074,1.5c-.45.08-1.003.157-1.658.232-.654.075-1.417.107-2.287.098-.98,0-1.83-.123-2.55-.368-.721-.245-1.275-.605-1.665-1.08-.391-.475-.585-1.058-.585-1.748,0-.439.067-.87.202-1.29s.317-.865.548-1.335l1.484.33ZM51.228,58.252c-.051-.17-.11-.367-.181-.592-.069-.225-.149-.453-.239-.682l1.62-.195c.05.33.124.683.225,1.058.1.375.21.748.33,1.117.12.37.234.72.345,1.05.23.63.513,1.257.848,1.882s.647,1.133.938,1.522c.11.16.225.315.345.465.12.15.245.291.375.42l-.75,1.08c-.2-.05-.452-.095-.757-.135-.306-.04-.636-.08-.99-.12-.355-.04-.71-.075-1.065-.105-.354-.03-.678-.06-.967-.09l.104-1.245c.271.02.555.042.855.068.3.025.585.05.854.075.271.025.49.047.66.067-.2-.31-.412-.665-.638-1.065-.225-.4-.442-.817-.652-1.252s-.396-.873-.555-1.312c-.16-.42-.298-.8-.413-1.14-.115-.34-.212-.63-.292-.87Z"/><path d="M70.818,60.022c-.19.12-.393.237-.607.353-.215.115-.442.232-.683.353-.25.13-.55.282-.9.457-.35.175-.729.365-1.14.57s-.817.422-1.223.652c-.405.23-.787.46-1.147.69-.66.44-1.185.895-1.575,1.365-.39.471-.585.985-.585,1.545,0,.58.28,1.035.84,1.365.561.33,1.4.495,2.521.495.54,0,1.104-.022,1.695-.067.59-.045,1.162-.107,1.717-.188.556-.08,1.033-.175,1.433-.285l-.015,1.71c-.391.06-.835.12-1.335.18-.5.06-1.038.105-1.612.135-.575.03-1.183.045-1.823.045-.72,0-1.387-.055-2.002-.165s-1.147-.29-1.598-.54c-.45-.25-.8-.583-1.05-.998s-.375-.922-.375-1.522c0-.58.127-1.114.382-1.604.256-.49.608-.95,1.058-1.38.45-.43.97-.84,1.561-1.23.369-.25.765-.495,1.185-.735s.833-.47,1.237-.69c.405-.22.783-.42,1.133-.6s.646-.34.885-.48c.24-.14.458-.27.652-.39.195-.12.378-.255.548-.405l.825,1.365ZM63.243,57.097c.24.64.495,1.268.765,1.882.271.615.543,1.188.818,1.718.274.53.527,1,.757,1.41l-1.319.78c-.261-.43-.53-.927-.811-1.493-.28-.564-.564-1.162-.854-1.792-.29-.63-.57-1.26-.841-1.891l1.485-.615Z"/><path d="M73.997,61.507l.735-1.035c.319.12.657.27,1.013.45.354.181.692.36,1.012.54.32.18.586.355.796.525l-.766,1.14c-.2-.16-.457-.34-.772-.54-.314-.2-.65-.395-1.005-.585-.355-.189-.692-.354-1.013-.495ZM74.343,69.007c.249-.39.527-.848.832-1.372.305-.525.612-1.085.923-1.681.31-.594.6-1.177.87-1.747l1.064.855c-.24.53-.5,1.074-.78,1.635-.279.56-.564,1.109-.854,1.649-.29.54-.575,1.05-.855,1.53l-1.199-.87ZM74.897,57.412l.78-1.005c.3.12.627.268.982.442.354.175.692.355,1.012.54.32.186.58.357.78.518l-.81,1.155c-.19-.17-.44-.355-.75-.555-.311-.2-.641-.395-.99-.585-.351-.189-.686-.359-1.005-.51ZM77.417,68.467h10.561v1.245h-10.561v-1.245ZM78.647,63.847h8.385v5.28h-1.35v-4.064h-1.2v4.064h-1.095v-4.064h-1.2v4.064h-1.08v-4.064h-1.186v4.064h-1.274v-5.28ZM79.143,56.857h7.38v5.88h-7.38v-5.88ZM80.478,58.042v1.2h4.649v-1.2h-4.649ZM80.478,60.337v1.215h4.649v-1.215h-4.649Z"/><path d="M89.912,62.662c.51.17,1.035.305,1.575.405.54.1,1.077.167,1.612.202.535.035,1.043.053,1.522.053.49,0,.998-.015,1.522-.045.525-.03,1.043-.075,1.553-.135l-.045,1.41c-.46.05-.92.087-1.38.113-.46.024-.936.037-1.425.037-.9,0-1.79-.053-2.67-.157-.881-.105-1.66-.253-2.341-.442l.075-1.44ZM90.257,58.927c.431.14.905.255,1.426.345.52.09,1.05.157,1.59.202.54.045,1.045.067,1.515.067.58,0,1.125-.017,1.635-.052.511-.035.971-.083,1.381-.143l-.046,1.41c-.47.04-.935.075-1.395.105-.46.03-1,.045-1.62.045-.46,0-.958-.025-1.492-.075-.535-.05-1.067-.122-1.598-.217s-1.021-.197-1.47-.308l.074-1.38ZM95.297,56.992c-.05.23-.092.44-.127.63-.035.19-.067.375-.098.555-.03.25-.072.578-.128.982-.055.405-.117.858-.188,1.357-.069.5-.135,1.015-.194,1.545-.061.53-.12,1.047-.181,1.552-.06.505-.104.965-.135,1.38-.029.415-.045.752-.045,1.012,0,.68.197,1.21.593,1.59.395.38.997.57,1.808.57.729,0,1.357-.1,1.882-.3.525-.2.928-.48,1.208-.84.279-.36.42-.775.42-1.245,0-.51-.133-1.02-.397-1.53-.265-.51-.663-1-1.192-1.47l1.665-.345c.5.59.875,1.162,1.125,1.717s.375,1.158.375,1.807c0,.74-.213,1.39-.638,1.95s-1.018.995-1.777,1.305c-.76.31-1.66.465-2.7.465-.73,0-1.385-.115-1.965-.345-.58-.23-1.038-.595-1.373-1.095s-.502-1.165-.502-1.995c0-.31.024-.725.075-1.245.05-.52.112-1.09.188-1.71.074-.62.154-1.252.239-1.897.085-.645.16-1.255.226-1.83.064-.575.112-1.067.143-1.478.029-.3.045-.535.045-.705s-.01-.33-.03-.48l1.68.09Z"/><path d="M108.706,56.962c-.06.23-.125.508-.194.833-.07.325-.136.662-.195,1.012-.061.35-.112.688-.157,1.013s-.078.607-.098.847c.17-.34.382-.685.638-1.035.255-.35.552-.67.893-.96.34-.29.709-.524,1.109-.705s.825-.27,1.275-.27c.68,0,1.287.212,1.822.638.535.425.957,1.027,1.268,1.807.31.78.465,1.71.465,2.79,0,1.041-.155,1.95-.465,2.73-.311.78-.75,1.44-1.32,1.979-.569.54-1.25.983-2.04,1.328-.79.345-1.66.602-2.609.772l-.9-1.365c.82-.13,1.58-.312,2.28-.548.699-.234,1.31-.557,1.83-.967.52-.41.922-.936,1.207-1.575s.428-1.425.428-2.355c0-.78-.085-1.46-.255-2.04-.17-.58-.42-1.03-.75-1.35-.33-.32-.735-.479-1.215-.479-.46,0-.9.149-1.32.45s-.798.685-1.133,1.155c-.335.471-.604.975-.81,1.515s-.328,1.06-.367,1.56c-.021.25-.028.51-.023.78.006.27.033.585.083.945l-1.47.105c-.03-.28-.065-.632-.105-1.058-.04-.425-.06-.882-.06-1.373,0-.36.015-.748.045-1.163.03-.415.064-.84.104-1.275s.088-.857.143-1.267.103-.785.143-1.125c.04-.26.067-.51.083-.75.015-.24.027-.465.037-.675l1.635.075Z"/><path d="M122.461,69.802c-.31-.38-.652-.77-1.027-1.17-.375-.399-.755-.785-1.14-1.155s-.753-.7-1.103-.99l1.229-1.08c.36.29.74.627,1.141,1.012.399.385.792.78,1.178,1.185.385.405.717.777.997,1.117l-1.275,1.08Z"/><path d="M134.296,57.277h13.41v1.365h-13.41v-1.365ZM134.972,60.382h11.175v1.335h-9.795v8.459h-1.38v-9.794ZM137.536,62.767h1.215v5.52h-1.215v-5.52ZM138.166,65.962h5.715v1.245h-5.715v-1.245ZM140.191,57.697h1.395v9.015h-1.395v-9.015ZM143.102,62.767h1.274v5.25h-1.274v-5.25ZM145.621,60.382h1.396v8.25c0,.37-.048.655-.143.855-.096.199-.272.354-.532.465-.261.109-.598.175-1.013.195s-.913.025-1.493.015c-.029-.17-.092-.378-.188-.623-.095-.246-.192-.458-.292-.638.29.01.564.02.825.03.26.01.492.013.697.008s.348-.008.428-.008c.12-.01.202-.037.247-.082s.067-.123.067-.232v-8.235Z"/><path d="M153.751,59.512h1.575c-.04.81-.103,1.623-.188,2.438s-.228,1.618-.428,2.408-.487,1.547-.862,2.272-.87,1.39-1.484,1.995c-.615.605-1.388,1.137-2.318,1.597-.109-.189-.26-.397-.449-.622-.19-.225-.381-.408-.57-.548.88-.399,1.603-.872,2.167-1.417.565-.545,1.013-1.143,1.343-1.792s.578-1.33.743-2.04c.164-.71.277-1.427.337-2.153.061-.725.105-1.437.135-2.137ZM149.236,58.732h13.5v1.365h-13.5v-1.365ZM154.187,62.332h5.895v1.35h-5.895v-1.35ZM155.191,56.167h1.455v3.12h-1.455v-3.12ZM159.557,62.332h1.47c-.01.17-.018.303-.022.397-.005.096-.018.183-.037.263-.091,1.4-.19,2.542-.301,3.427-.109.885-.234,1.57-.375,2.055-.14.485-.31.832-.51,1.042-.19.21-.397.353-.622.428-.226.075-.493.128-.803.158-.28.02-.65.027-1.11.022-.46-.005-.944-.018-1.455-.038-.01-.21-.06-.445-.149-.705s-.205-.49-.346-.69c.53.04,1.033.068,1.508.083.475.015.817.022,1.027.022.17,0,.311-.013.42-.037.11-.025.21-.078.301-.158.159-.13.297-.42.412-.87s.223-1.095.322-1.935.186-1.915.255-3.225l.016-.24Z"/><path d="M170.566,56.947c-.061.29-.143.643-.248,1.058-.104.415-.257.883-.457,1.402-.17.42-.378.85-.622,1.29-.245.44-.498.84-.758,1.2.17-.1.367-.183.593-.248.225-.064.454-.114.689-.149s.447-.053.638-.053c.6,0,1.104.172,1.515.518.41.345.615.843.615,1.492v.735c0,.29.005.595.015.915.011.32.018.635.022.944.006.311.008.58.008.811h-1.425c.01-.19.02-.413.03-.668.01-.255.017-.522.022-.802.005-.28.007-.55.007-.81v-.69c-.01-.45-.145-.775-.404-.975-.261-.2-.565-.3-.915-.3-.45,0-.897.105-1.343.315s-.827.465-1.147.765c-.21.21-.428.45-.652.72-.226.271-.463.565-.713.885l-1.29-.96c.69-.65,1.275-1.27,1.755-1.86.48-.59.878-1.152,1.192-1.688.315-.535.562-1.043.743-1.522.159-.41.29-.828.39-1.253.1-.425.16-.822.18-1.192l1.561.12ZM165.196,58.462c.399.061.84.103,1.32.128.479.025.899.037,1.26.037.67,0,1.395-.015,2.175-.045.78-.03,1.567-.08,2.362-.15s1.548-.17,2.258-.3v1.395c-.53.07-1.095.135-1.695.195-.6.06-1.21.108-1.83.143-.62.035-1.215.06-1.784.075-.57.015-1.091.022-1.561.022-.21,0-.457-.002-.742-.007-.285-.005-.58-.017-.885-.038-.306-.02-.598-.035-.878-.045v-1.41ZM176.852,62.362c-.141.05-.303.105-.487.165-.186.06-.368.125-.548.195s-.345.135-.495.195c-.51.2-1.103.44-1.777.72s-1.368.605-2.077.975c-.48.25-.896.5-1.245.75-.351.25-.623.51-.817.779-.195.271-.293.565-.293.885,0,.26.06.47.18.63s.288.282.503.367.475.145.78.18c.305.035.646.053,1.027.053.6,0,1.279-.035,2.04-.105.76-.07,1.47-.165,2.13-.285l-.045,1.515c-.36.04-.78.083-1.26.128-.48.045-.973.08-1.478.104-.506.025-.983.038-1.433.038-.75,0-1.426-.07-2.025-.21s-1.075-.382-1.425-.728c-.351-.345-.525-.827-.525-1.448,0-.489.112-.932.338-1.327.225-.395.52-.752.885-1.072.365-.32.772-.615,1.223-.885.45-.271.895-.515,1.335-.735.47-.25.907-.467,1.312-.652s.785-.353,1.14-.502c.355-.15.688-.3.998-.45.26-.11.505-.217.734-.322.23-.105.46-.217.69-.337l.615,1.38Z"/><path d="M179.566,57.787h1.32v9.735h-1.32v-9.735ZM180.302,57.787h3.899v8.55h-3.899v-1.32h2.55v-5.91h-2.55v-1.32ZM184.097,61.267h8.88v1.41h-8.88v-1.41ZM187.711,56.497h1.471v13.65h-1.471v-13.65Z"/><path d="M204.57,61.402c-.16.12-.32.245-.479.375-.16.13-.296.245-.405.345-.16.141-.365.323-.614.548-.25.225-.51.465-.78.72-.27.255-.52.49-.75.705-.229.215-.399.388-.51.518.07-.01.162-.008.277.007s.213.038.293.068c.26.04.473.149.638.33s.297.42.397.72c.05.13.102.287.157.472.055.185.109.37.165.555.055.185.107.353.157.502.079.261.212.456.396.585.186.13.447.195.788.195.359,0,.715-.013,1.064-.037.35-.025.68-.062.99-.113.31-.05.585-.1.825-.15l-.09,1.575c-.211.03-.49.062-.841.097-.35.035-.71.065-1.08.09-.37.024-.685.037-.944.037-.65,0-1.169-.093-1.56-.277-.39-.186-.67-.522-.84-1.013-.05-.15-.104-.327-.165-.532-.06-.205-.117-.41-.172-.615-.056-.205-.104-.372-.143-.502-.091-.27-.21-.467-.36-.592s-.32-.188-.51-.188c-.181,0-.357.052-.533.157-.175.105-.347.243-.517.413-.11.11-.251.252-.421.427-.17.175-.357.375-.562.601-.205.225-.417.46-.637.705-.221.245-.44.495-.66.75-.221.255-.42.502-.601.743l-1.425-.99c.11-.1.242-.215.397-.345s.317-.275.487-.435c.11-.12.295-.31.556-.57.26-.26.564-.565.915-.915.35-.35.722-.725,1.117-1.125.395-.4.79-.795,1.186-1.185.395-.39.762-.757,1.102-1.103s.631-.642.87-.892c-.22.01-.479.025-.779.045-.301.02-.613.042-.938.067-.325.025-.646.053-.96.083-.315.03-.605.055-.87.075-.266.021-.493.04-.683.06-.25.01-.478.03-.683.06s-.393.06-.562.09l-.135-1.65c.17.01.372.02.607.03.234.011.482.016.742.016.16-.01.41-.022.75-.038.34-.015.728-.035,1.163-.06.435-.025.874-.053,1.319-.083s.862-.06,1.253-.09c.39-.03.705-.06.944-.09.13-.02.272-.045.427-.075.155-.03.268-.06.338-.09l.885.99ZM198.166,56.917c.41.08.883.16,1.418.24s1.085.155,1.649.225c.565.07,1.105.13,1.62.18.515.05.957.085,1.327.104l-.195,1.396c-.39-.03-.837-.073-1.342-.128-.505-.055-1.032-.117-1.582-.188-.55-.07-1.095-.145-1.635-.225s-1.041-.16-1.5-.24l.239-1.365Z"/><path d="M211.936,57.667c.189.021.393.035.607.045.215.01.412.016.593.016.149,0,.392-.003.728-.008.335-.005.715-.013,1.14-.022s.848-.022,1.268-.038.797-.032,1.133-.052c.334-.02.582-.035.742-.045.27-.021.478-.04.622-.061.146-.02.258-.045.338-.075l.825,1.08c-.15.1-.306.2-.465.3-.16.1-.32.215-.48.345-.19.14-.438.333-.742.577-.306.245-.633.516-.982.811-.351.295-.695.582-1.035.862s-.646.53-.915.75c.3-.1.6-.167.899-.203.301-.035.601-.052.9-.052.83,0,1.575.16,2.235.479.659.32,1.18.75,1.56,1.29s.57,1.165.57,1.875c0,.79-.208,1.495-.623,2.115-.415.62-1.015,1.104-1.8,1.455-.785.35-1.737.524-2.857.524-.69,0-1.295-.095-1.815-.285-.52-.19-.922-.458-1.207-.802-.285-.346-.428-.743-.428-1.193,0-.37.103-.717.308-1.042s.495-.585.87-.78.808-.292,1.298-.292c.68,0,1.247.138,1.702.413s.805.637,1.05,1.087c.245.45.378.94.397,1.47l-1.365.195c-.029-.601-.202-1.09-.517-1.47-.315-.38-.738-.57-1.268-.57-.32,0-.583.085-.788.255s-.308.37-.308.6c0,.33.168.59.503.78.335.19.768.285,1.298.285.85,0,1.574-.107,2.175-.323.6-.215,1.055-.53,1.365-.945.31-.415.465-.917.465-1.507,0-.47-.141-.89-.42-1.26-.28-.37-.666-.657-1.155-.862-.49-.205-1.05-.308-1.68-.308-.601,0-1.147.067-1.643.203s-.958.33-1.388.585c-.431.255-.853.57-1.268.945s-.843.803-1.282,1.282l-1.096-1.109c.301-.24.63-.51.99-.81s.723-.602,1.088-.908c.364-.305.71-.595,1.035-.87.324-.274.597-.502.817-.682.21-.17.465-.377.765-.623s.61-.502.93-.772c.32-.27.625-.527.915-.772s.53-.452.721-.623c-.16.01-.381.02-.66.03-.28.01-.588.022-.923.038s-.673.03-1.013.045c-.34.015-.649.03-.93.045-.28.015-.495.027-.645.037-.181.01-.368.022-.562.038-.195.015-.378.033-.548.052l-.045-1.545Z"/><path d="M28.488,94.887l3.66-11.055h2.01l3.66,11.055h-1.845l-1.785-6c-.181-.6-.355-1.207-.525-1.822s-.34-1.232-.51-1.853h-.06c-.16.63-.328,1.25-.503,1.86-.175.61-.353,1.215-.532,1.814l-1.785,6h-1.785ZM30.558,91.752v-1.38h5.16v1.38h-5.16Z"/><path d="M39.273,94.887v-11.055h1.74v9.569h4.68v1.485h-6.42Z"/><path d="M51.948,95.097c-.689,0-1.332-.127-1.928-.383-.595-.255-1.117-.627-1.567-1.117-.449-.49-.8-1.087-1.05-1.792s-.375-1.512-.375-2.422c0-.9.13-1.705.391-2.415.26-.71.614-1.312,1.064-1.808.45-.495.98-.872,1.59-1.132.61-.26,1.266-.39,1.965-.39.681,0,1.285.141,1.815.42.53.28.965.605,1.305.976l-.93,1.109c-.29-.29-.612-.527-.968-.712-.354-.185-.752-.278-1.192-.278-.64,0-1.202.17-1.688.51s-.865.82-1.14,1.44c-.275.62-.413,1.365-.413,2.235s.13,1.622.391,2.257c.26.635.63,1.123,1.109,1.462.48.34,1.045.51,1.695.51.5,0,.947-.107,1.343-.322.395-.215.757-.502,1.087-.862l.945,1.11c-.45.52-.958.917-1.522,1.193-.565.274-1.207.412-1.928.412Z"/><path d="M58.172,92.667c.22.01.485.025.795.045s.625.03.945.03h8.07v1.56h-8.011c-.3,0-.62.005-.96.015-.34.011-.62.025-.84.045v-1.695ZM58.352,84.447c.271.02.565.04.886.06.319.021.604.03.854.03h7.455c.2,0,.418-.002.652-.008.235-.005.418-.012.548-.022-.01.17-.018.373-.022.607-.005.235-.008.453-.008.652v7.755c0,.261.008.548.022.863.016.315.027.557.038.728h-1.71c0-.17.005-.382.015-.638.01-.255.015-.517.015-.788v-7.635h-7.005c-.29,0-.605.005-.945.015-.34.01-.604.025-.795.045v-1.665Z"/><path d="M72.828,93.747c.839-.13,1.614-.303,2.325-.518.71-.215,1.362-.46,1.957-.735.595-.275,1.133-.558,1.612-.848.8-.489,1.538-1.055,2.213-1.694.675-.64,1.268-1.3,1.777-1.98.51-.68.915-1.34,1.215-1.979l.915,1.635c-.359.65-.803,1.3-1.327,1.95-.525.65-1.118,1.272-1.777,1.867-.66.595-1.38,1.132-2.16,1.612-.5.31-1.048.61-1.643.9s-1.235.55-1.92.78c-.686.23-1.413.415-2.183.555l-1.004-1.545ZM74.372,83.712c.27.18.58.402.93.667.351.265.708.547,1.072.848.365.3.713.59,1.043.87.33.28.595.53.795.75l-1.185,1.215c-.19-.2-.44-.443-.75-.728-.311-.285-.643-.58-.998-.885-.354-.305-.707-.595-1.058-.87-.35-.274-.665-.507-.944-.697l1.095-1.17Z"/><path d="M94.172,83.217c-.15.22-.298.46-.442.72-.146.26-.258.465-.338.615-.31.57-.702,1.175-1.177,1.815-.476.64-1.023,1.268-1.643,1.882-.62.615-1.315,1.183-2.085,1.703l-1.32-.99c.649-.39,1.229-.805,1.74-1.245.51-.439.952-.882,1.327-1.327.375-.445.697-.873.968-1.283.27-.41.495-.78.675-1.11.09-.15.189-.357.3-.623s.195-.507.255-.728l1.74.57ZM99.137,85.527c-.08.12-.155.265-.225.435-.07.17-.135.33-.195.48-.13.48-.314,1.01-.555,1.59s-.535,1.172-.885,1.777c-.351.604-.75,1.183-1.2,1.732-.69.85-1.513,1.62-2.468,2.31-.955.69-2.133,1.305-3.532,1.845l-1.396-1.245c.97-.29,1.823-.627,2.558-1.012.735-.385,1.385-.808,1.95-1.268.564-.46,1.067-.95,1.508-1.47.38-.43.722-.907,1.027-1.432.305-.525.57-1.05.795-1.575.225-.525.377-.997.457-1.417h-5.34l.57-1.35h4.575c.21,0,.415-.012.614-.037.2-.025.37-.062.511-.113l1.229.75Z"/><path d="M105.736,83.517c-.011.15-.022.32-.038.51-.015.19-.022.39-.022.6v5.025c0,.19.008.403.022.637.016.235.027.428.038.578h-1.725c.01-.12.022-.297.038-.533.015-.234.022-.462.022-.682v-5.025c0-.14-.006-.322-.016-.548-.01-.225-.024-.412-.045-.562h1.725ZM112.696,83.397c-.011.19-.022.4-.038.63-.015.23-.022.48-.022.75v2.67c0,.85-.032,1.585-.098,2.205-.064.62-.167,1.153-.307,1.597-.141.445-.313.84-.518,1.186-.205.345-.448.672-.728.982-.32.38-.69.712-1.11.997s-.845.522-1.275.713c-.43.189-.83.35-1.199.479l-1.245-1.305c.71-.18,1.372-.425,1.987-.735.615-.31,1.152-.715,1.612-1.215.26-.31.473-.62.638-.93.165-.31.29-.655.375-1.035s.145-.814.18-1.305.053-1.065.053-1.725v-2.58c0-.27-.01-.52-.03-.75-.02-.23-.04-.44-.06-.63h1.785Z"/><path d="M117.331,88.197c.17.01.377.022.622.037.245.015.511.028.795.038.285.01.558.015.818.015h8.159c.36,0,.686-.013.976-.038s.524-.042.705-.052v1.859c-.171-.01-.41-.024-.721-.045-.31-.02-.63-.03-.96-.03h-8.159c-.41,0-.82.007-1.23.022s-.745.033-1.005.052v-1.859Z"/><path d="M135.781,93.507v-8.67c0-.24-.011-.518-.03-.833-.021-.315-.055-.597-.105-.847h1.846c-.021.24-.043.515-.067.825-.025.31-.038.595-.038.855v8.67c0,.16.005.355.016.585.01.23.024.463.045.697.02.235.039.447.06.638h-1.845c.04-.26.069-.572.09-.938.02-.365.03-.692.03-.982ZM137.041,87.072c.49.14,1.04.312,1.65.517.609.205,1.225.425,1.845.66s1.21.467,1.77.698c.561.229,1.035.44,1.426.63l-.676,1.635c-.42-.23-.893-.463-1.417-.698-.525-.235-1.062-.462-1.612-.682-.551-.22-1.083-.42-1.598-.6-.516-.18-.978-.335-1.388-.465v-1.694Z"/><path d="M147.931,84.447c.311.01.583.018.817.022.235.005.448.007.638.007h8.783c.255,0,.502-.005.742-.015-.01.2-.018.413-.022.638-.005.225-.008.442-.008.652v7.365c0,.13.003.297.008.502s.007.413.007.623.003.39.008.54.008.24.008.27h-1.635c.01-.04.015-.16.015-.36s.002-.435.008-.705c.005-.27.007-.52.007-.75v-7.26h-7.785v7.762c0,.195.003.385.008.57.005.185.01.347.016.487.005.14.007.225.007.255h-1.635c0-.03.002-.12.008-.27.005-.15.01-.325.015-.525s.01-.402.015-.607.008-.383.008-.533v-8.01c0-.24-.01-.459-.03-.66ZM157.906,92.712v1.5h-9.15v-1.5h9.15Z"/><path d="M168.631,83.577c-.149.22-.298.46-.442.72-.146.26-.258.46-.338.6-.31.58-.702,1.19-1.177,1.83-.476.64-1.022,1.265-1.643,1.875s-1.315,1.175-2.085,1.695l-1.32-.975c.65-.391,1.23-.805,1.74-1.245.51-.44.952-.883,1.327-1.328s.697-.873.968-1.283c.27-.41.495-.78.675-1.11.09-.15.189-.36.3-.63s.195-.51.255-.72l1.74.57ZM173.596,85.887c-.08.12-.155.266-.225.436-.07.17-.135.33-.195.479-.13.48-.314,1.01-.555,1.59-.24.58-.535,1.173-.885,1.778-.351.605-.75,1.182-1.2,1.732-.69.851-1.513,1.62-2.468,2.311-.955.689-2.133,1.305-3.532,1.845l-1.396-1.26c.97-.28,1.823-.612,2.558-.998.735-.385,1.385-.81,1.95-1.275.564-.465,1.067-.953,1.508-1.463.38-.43.722-.907,1.027-1.432.305-.525.57-1.05.795-1.575.225-.525.377-.998.457-1.418h-5.34l.57-1.35h4.575c.21,0,.415-.013.615-.038.199-.025.369-.062.51-.113l1.229.75ZM172.441,82.767c.13.17.27.381.42.63.149.25.295.5.435.75.14.25.26.475.36.675l-.99.42c-.15-.3-.335-.65-.555-1.05-.221-.4-.431-.74-.63-1.02l.96-.405ZM174.136,82.122c.141.19.287.41.442.66s.306.497.45.742.263.458.353.638l-.975.435c-.16-.319-.353-.675-.578-1.064-.225-.391-.442-.725-.652-1.005l.96-.405Z"/><path d="M179.161,90.057c.16-.41.317-.847.473-1.312.154-.465.297-.942.427-1.432s.243-.98.338-1.47c.095-.49.167-.96.218-1.41l1.694.345c-.029.12-.064.257-.104.413s-.078.31-.112.465c-.035.155-.062.288-.083.397-.05.24-.12.548-.21.923s-.194.775-.314,1.2c-.12.425-.248.853-.383,1.282s-.277.83-.428,1.2c-.17.47-.377.955-.622,1.455s-.503.985-.772,1.455c-.271.471-.54.9-.811,1.29l-1.635-.689c.47-.62.91-1.303,1.32-2.048.409-.745.744-1.433,1.005-2.062ZM186.556,89.592c-.149-.39-.314-.805-.495-1.245-.18-.439-.37-.882-.569-1.327-.2-.445-.396-.862-.585-1.253-.19-.39-.365-.725-.525-1.005l1.545-.51c.16.28.335.615.525,1.005.189.39.385.805.585,1.245.2.44.395.883.585,1.327.189.445.36.858.51,1.238.14.36.293.765.458,1.215s.33.913.494,1.387c.165.476.32.936.466,1.38.145.445.267.847.367,1.208l-1.725.555c-.131-.55-.283-1.125-.458-1.725-.175-.6-.362-1.2-.562-1.8s-.405-1.165-.615-1.695Z"/><path d="M204.285,85.797c-.051.13-.101.298-.15.503s-.085.377-.104.517c-.051.33-.118.678-.203,1.042-.085.365-.188.737-.308,1.118-.119.38-.257.76-.411,1.14-.155.38-.327.745-.518,1.095-.39.689-.88,1.32-1.47,1.89-.59.57-1.271,1.062-2.04,1.478-.771.415-1.605.748-2.505.998l-1.23-1.425c.29-.05.595-.12.915-.21.32-.09.615-.185.885-.285.46-.16.926-.375,1.396-.645s.91-.59,1.32-.96c.409-.37.765-.775,1.064-1.215.26-.4.482-.837.668-1.312.185-.475.337-.957.457-1.447s.205-.95.255-1.38h-7.979v2.46c0,.149.005.32.015.51s.025.35.045.48h-1.635c.02-.16.035-.34.045-.54.01-.2.015-.38.015-.54v-2.625c0-.16-.005-.36-.015-.6-.01-.24-.025-.444-.045-.615.229.02.463.038.697.052.235.015.487.022.758.022h7.92c.3,0,.535-.015.705-.045.17-.03.31-.064.419-.105l1.035.645ZM199.186,82.767c-.029.271-.052.498-.067.683-.015.186-.022.373-.022.562v2.07h-1.62v-2.07c0-.189-.005-.377-.015-.562-.01-.185-.04-.412-.09-.683h1.814Z"/><path d="M218.1,84.792c-.06.07-.135.185-.225.345-.09.16-.16.306-.21.436-.21.479-.468,1.015-.772,1.604-.306.59-.65,1.178-1.035,1.763s-.787,1.117-1.207,1.597c-.551.63-1.158,1.245-1.823,1.845-.665.6-1.367,1.152-2.107,1.657s-1.505.942-2.295,1.312l-1.215-1.275c.81-.32,1.593-.715,2.348-1.185.755-.47,1.457-.984,2.107-1.545.649-.56,1.22-1.115,1.71-1.665.34-.38.67-.802.99-1.267.319-.465.604-.932.854-1.403.25-.47.43-.899.54-1.29h-5.505c-.19,0-.397.008-.622.022-.226.016-.431.03-.615.045-.186.015-.317.022-.397.022v-1.695c.1.01.25.022.45.037.199.015.409.03.63.045.22.015.405.022.555.022h5.565c.279,0,.534-.015.765-.045.229-.03.41-.064.54-.104l.975.72ZM214.845,89.547c.4.33.82.7,1.261,1.11.439.41.869.833,1.289,1.268.421.435.812.853,1.178,1.252.365.4.673.755.923,1.065l-1.32,1.17c-.37-.5-.795-1.025-1.274-1.575-.48-.55-.99-1.103-1.53-1.658s-1.08-1.073-1.62-1.552l1.095-1.08Z"/><path class="cls-3" d="M45.972,170.903v-2.939c2.437.143,5.483.52,7.92.968v3.028c-2.294-.466-5.591-.914-7.92-1.057ZM46.222,183.07v-2.957c6.612-.466,10.752-2.348,11.414-9.587h3.19c-.645,8.852-5.788,12.293-14.604,12.543Z"/><path class="cls-3" d="M81.167,177.121v-9.425h3.118v9.425h-3.118ZM83.103,183.16v-2.777c5.824-.323,8.87-1.595,8.87-7.078v-5.609h3.136v5.627c0,7.15-4.229,9.676-12.006,9.838Z"/><path class="cls-3" d="M97.744,175.938v-2.849h15.536v2.849h-15.536Z"/><rect class="cls-3" x="28.571" y="179.773" width="9.874" height="2.813"/><rect class="cls-3" x="28.589" y="168.341" width="9.857" height="2.795"/><polygon class="cls-3" points="39.573 168.341 39.573 171.136 39.573 179.773 39.573 182.586 42.763 182.586 42.763 168.341 39.573 168.341"/><polygon class="cls-3" points="120.162 175.347 120.162 172.372 120.162 167.248 117.062 167.248 117.062 183.429 120.162 183.429 120.162 175.347"/><path class="cls-3" d="M121.29,172.58v2.989c2.928.587,6.379,1.343,9.229,2.071v-3.064c-2.735-.704-6.082-1.407-9.229-1.996Z"/><path class="cls-3" d="M68.444,170.724v-2.778h-2.294c-.52,2.563-1.9,4.39-3.62,5.466v3.01c2.706-.914,4.838-3.082,5.913-5.698Z"/><path class="cls-3" d="M69.571,167.946v2.778h5.646c-.717,5.967-4.086,9.157-10.089,9.784v2.742c8.279-.484,13.153-5.286,13.35-14.658v-.645h-8.907Z"/><path class="cls-3" d="M136.216,183.429v-15.14h15.363v15.14h-15.363ZM148.473,171.172h-9.151v9.392h9.151v-9.392Z"/><path class="cls-3" d="M171.546,184.154v-3.422c2.79-2.566,3.571-6.77,3.571-11.475v-1.413h3.181v1.358c0,8.277-2.511,12.908-6.751,14.954ZM181.515,169.219v-1.376h3.236v1.432c0,4.687.781,8.853,3.553,11.42v3.46c-4.278-2.064-6.788-6.77-6.788-14.935Z"/><path class="cls-3" d="M217.344,178.593c-2.734,2.939-6.342,4.724-9.597,5.394v-2.994c4.278-1.19,8.834-4.65,10.229-9.913h-9.262v-2.901h13.057c-.205,2.976-1.079,5.542-2.362,7.681.986,2.492,2.939,4.092,4.631,5.003v3.292c-2.957-.967-5.282-3.088-6.696-5.561Z"/><path class="cls-3" d="M159.576,171.004v-2.883h-2.362c-.558,2.66-1.971,4.557-3.757,5.673v3.125c2.809-.949,5.022-3.199,6.119-5.914Z"/><path class="cls-3" d="M169.303,166.615v1.506h-.595v-1.506h-1.841v1.506h-6.12v2.883h5.785c-.744,6.193-4.259,9.504-10.471,10.155v2.846c8.425-.502,13.466-5.319,13.819-14.73h1.283v-2.66h-1.86Z"/><polygon class="cls-3" points="192.892 172.511 192.892 169.702 189.879 169.702 189.879 176.454 192.892 176.454 192.892 172.511"/><path class="cls-3" d="M199.402,169.702v-2.455h-3.236v2.455h-2.103v2.809h8.445c-.242,5.301-3.292,8.016-8.388,8.76v2.901c8.314-.967,11.866-5.487,11.866-13.968v-.502h-6.584Z"/><path class="cls-2" d="M36.165,162.654l-5.683-7.774v7.774h-1.911v-10.893h1.96l5.569,7.562v-7.562h1.911v10.893h-1.846Z"/><path class="cls-2" d="M39.954,158.701c0-2.286,1.666-4.132,4.001-4.132,2.368,0,3.887,1.813,3.887,4.295v.408h-6.092c.131,1.192,1.029,2.172,2.515,2.172.768,0,1.682-.31,2.237-.866l.784,1.127c-.784.751-1.943,1.143-3.201,1.143-2.368,0-4.132-1.649-4.132-4.148ZM43.956,155.974c-1.47,0-2.14,1.127-2.221,2.09h4.442c-.033-.931-.67-2.09-2.221-2.09Z"/><path class="cls-2" d="M56.58,162.654l-1.829-5.781-1.829,5.781h-1.797l-2.45-7.888h1.78l1.666,5.733,1.878-5.733h1.503l1.878,5.733,1.666-5.733h1.78l-2.45,7.888h-1.796Z"/></g></svg>