<svg id="レイヤー_1" data-name="レイヤー 1" xmlns="http://www.w3.org/2000/svg" viewBox="0 0 70 26"><defs><style>.cls-1{fill:#231815;}.cls-2{fill:#fff;}</style></defs><rect class="cls-1" width="70" height="26"/><path class="cls-2" d="M7.2,16.87a10.6,10.6,0,0,1-.47,2.82l-.86-.39a8.89,8.89,0,0,0,.45-2.56ZM5.92,15.43a2.37,2.37,0,0,0,.41,0h.39l.56-.69A8.25,8.25,0,0,0,6,13.35l.55-.79.29.33a6.53,6.53,0,0,0,.8-1.54l.92.37a2.32,2.32,0,0,0-.2.34,13.11,13.11,0,0,1-.9,1.46l.41.47a11.91,11.91,0,0,0,1-1.66l.89.5a3.4,3.4,0,0,0-.32.44A24.78,24.78,0,0,1,7.8,15.41a8.86,8.86,0,0,0,1.1-.08,7,7,0,0,0-.28-.65l.72-.28a14,14,0,0,1,.76,1.85l-.81.34c0-.22-.06-.3-.1-.45l-.69.07v3a6.78,6.78,0,0,0,.06,1H7.5a6.78,6.78,0,0,0,.06-1V16.29l-.91.07a5.68,5.68,0,0,0-.63.06Zm3.73,1.25a22.46,22.46,0,0,1,.46,2.43l-.87.21a24.23,24.23,0,0,0-.37-2.45Zm1.61-2.89a6.88,6.88,0,0,1-1,1.5,3,3,0,0,0-.78-.77,5.94,5.94,0,0,0,1.14-1.9,5.59,5.59,0,0,0,.35-1.2l1.08.19A2.74,2.74,0,0,0,12,12c-.13.39-.17.51-.28.8h2.1a7.29,7.29,0,0,0,.79,0,11.38,11.38,0,0,0-.05,1.65A34.89,34.89,0,0,1,14.31,18c-.15,1.1-.33,1.62-.65,1.87a2.08,2.08,0,0,1-1.23.24c-.25,0-.55,0-.9,0A3.74,3.74,0,0,0,11.26,19a7.14,7.14,0,0,0,1.27.12c.43,0,.54-.11.65-.7a25.41,25.41,0,0,0,.31-4.59Zm.45,4a10.76,10.76,0,0,0-1.1-2.42l.83-.46a10.67,10.67,0,0,1,1.19,2.39Z"/><path class="cls-2" d="M28.22,16.59a15.14,15.14,0,0,0-1.72-.12h-.62v1.21A10.67,10.67,0,0,0,26,19.61H23.58a10.08,10.08,0,0,0,.14-2V16.47H19c-1,0-1.57,0-2.15.07V14.46c.58-.63.77-.85,1.37-1.56L22.26,8a16.56,16.56,0,0,0,1.43-1.86H26A24.06,24.06,0,0,0,25.88,9v5.56h.6a10.89,10.89,0,0,0,1.74-.12Zm-4.48-5.54c0-.8,0-1.34.08-2-.34.49-.55.76-1.16,1.5l-3.3,4h4.38Z"/><path class="cls-2" d="M32,18.51a4.77,4.77,0,0,1-1.13-1.71,11.18,11.18,0,0,1-.67-3.9,9.85,9.85,0,0,1,1.05-4.7A4.89,4.89,0,0,1,35.6,5.85a5,5,0,0,1,3.63,1.37,4.77,4.77,0,0,1,1.13,1.71A11.42,11.42,0,0,1,41,12.86a8.86,8.86,0,0,1-1.27,5,4.9,4.9,0,0,1-4.17,2A5,5,0,0,1,32,18.51Zm5.48-1.31c.77-.79,1.2-2.37,1.2-4.35a6.52,6.52,0,0,0-1.2-4.34,2.49,2.49,0,0,0-1.87-.71,2.34,2.34,0,0,0-1.93.86,6.29,6.29,0,0,0-1.13,4.12,7.52,7.52,0,0,0,.88,4,2.74,2.74,0,0,0,4.05.39Z"/><path class="cls-2" d="M51.92,12.78a5.44,5.44,0,0,0,.81,0,8.05,8.05,0,0,0-.06,1.2c-.07,3.24-.19,4.68-.46,5.33s-.63.79-1.48.79c-.21,0-.46,0-.93-.05a2.38,2.38,0,0,0-.25-1.08,5.48,5.48,0,0,0,1.2.15c.38,0,.53-.2.63-.87a32.56,32.56,0,0,0,.28-4.51h-.11a11.84,11.84,0,0,1-1,3.45A8.07,8.07,0,0,1,48,20.08a2.43,2.43,0,0,0-.81-.78,6.75,6.75,0,0,0,2.51-2.7,10.32,10.32,0,0,0,.92-2.89h-.39a7.25,7.25,0,0,1-2.59,4.17,2.31,2.31,0,0,0-.71-.83,3.83,3.83,0,0,0,1.13-1,5.94,5.94,0,0,0,1.24-2.38h-.45a6.24,6.24,0,0,1-1.15,1.68,2.82,2.82,0,0,0-.8-.73,3.94,3.94,0,0,0,.46-.46H46.6V16a9.53,9.53,0,0,0,.91-.35v1L46.6,17v2.16a9.61,9.61,0,0,0,.06,1.1H45.52a7.44,7.44,0,0,0,.06-1.1v-1.8l-.86.3a3.34,3.34,0,0,0-.52.2L44,16.67a5.79,5.79,0,0,0,1.6-.37V14.19H45.1a10.42,10.42,0,0,1-.36,1.54,3.29,3.29,0,0,0-.88-.52,5.05,5.05,0,0,0,.36-1.32,8.51,8.51,0,0,0,.13-1.34,2.82,2.82,0,0,0,0-.4l1,.1c0,.57,0,.62-.08,1h.36V12.15a4,4,0,0,0-.06-.79h1.14a4.62,4.62,0,0,0-.06.79v1.07h.23a3.34,3.34,0,0,0,.63,0v.91a5.38,5.38,0,0,0,.68-1.25,5.59,5.59,0,0,0,.43-1.47l1.12.2c-.08.2-.08.2-.31.86l-.13.35Z"/><path class="cls-2" d="M55.15,16.35c0-.33,0-.63,0-1.05a5.24,5.24,0,0,1-.81,1.11,4,4,0,0,0-.43-1.18,8.27,8.27,0,0,0,1.66-2.7A6.31,6.31,0,0,0,56,11.29l1.09.3c0,.15-.07.19-.16.43a11.64,11.64,0,0,1-.67,1.67v5.4c0,.43,0,.75,0,1.11H55.1a9.71,9.71,0,0,0,0-1.12Zm4.25-3.87a5.64,5.64,0,0,0-.07-1h1.2a4.77,4.77,0,0,0-.07,1v.88h1.21a6.72,6.72,0,0,0,1-.06V14.4c-.43,0-.72-.06-1-.06H60.46v1.78H62a8,8,0,0,0,1.08-.06v1.1A8.67,8.67,0,0,0,62,17.1H60.46v2a5.61,5.61,0,0,0,.07,1.1h-1.2a6.76,6.76,0,0,0,.07-1.1v-2H57.75a8,8,0,0,0-1.08.06v-1.1a7.7,7.7,0,0,0,1.08.06H59.4V14.34H58.07a7.12,7.12,0,0,1-.78,1.39,3.7,3.7,0,0,0-.86-.69,7.62,7.62,0,0,0,1-2,5.45,5.45,0,0,0,.3-1.21l1.06.27c-.07.22-.09.27-.17.57l-.22.66h1Z"/></svg>