<svg id="svg_catch_2_1" data-name="svg_catch_2_1" xmlns="http://www.w3.org/2000/svg" viewBox="0 0 180 91.18">
<defs><style>
#svg_catch_2_1 .fill{fill:#fff;}
.catch_sp #svg_catch_2_1 .fill,
.whats_catch #svg_catch_2_1 .fill{fill:#9F8C40;}
</style></defs>
<path class="fill" d="M39.19,70.53a11.65,11.65,0,0,1-2.76,6.92,11.63,11.63,0,0,1-2.84-6.89,11.65,11.65,0,0,1,2.76-6.93,11.64,11.64,0,0,1,2.84,6.9"/><path class="fill" d="M26.15,72a11.59,11.59,0,0,1,6.69,3.29,11.69,11.69,0,0,1-7.09,2.29,11.65,11.65,0,0,1-6.69-3.29A11.62,11.62,0,0,1,26.15,72"/><path class="fill" d="M17.09,62.68a11.65,11.65,0,0,1,6.5,3.65,11.69,11.69,0,0,1-7.21,1.9,11.66,11.66,0,0,1-6.51-3.64,11.68,11.68,0,0,1,7.22-1.91"/><path class="fill" d="M11,50.91a11.67,11.67,0,0,1,5.88,4.58,11.59,11.59,0,0,1-7.41.8,11.62,11.62,0,0,1-5.88-4.58,11.67,11.67,0,0,1,7.41-.8"/><path class="fill" d="M7.32,37.4a11.68,11.68,0,0,1,4.3,6.1,11.67,11.67,0,0,1-7.33-1.4A11.63,11.63,0,0,1,0,36a11.65,11.65,0,0,1,7.32,1.4"/><path class="fill" d="M31,64.53A11.71,11.71,0,0,1,27.28,71a11.66,11.66,0,0,1-1.79-7.24,11.65,11.65,0,0,1,3.75-6.45A11.7,11.7,0,0,1,31,64.53"/><path class="fill" d="M24.42,55.6a11.67,11.67,0,0,1-4.3,6.09A11.63,11.63,0,0,1,19,54.33a11.67,11.67,0,0,1,4.3-6.1,11.65,11.65,0,0,1,1.15,7.37"/><path class="fill" d="M19.42,45.55a11.69,11.69,0,0,1-5.78,4.71,11.67,11.67,0,0,1,.87-7.4,11.67,11.67,0,0,1,5.78-4.72,11.7,11.7,0,0,1-.87,7.41"/><path class="fill" d="M17.27,34.31A11.62,11.62,0,0,1,11,38.4a11.64,11.64,0,0,1,1.63-7.27A11.67,11.67,0,0,1,18.9,27a11.59,11.59,0,0,1-1.63,7.28"/><path class="fill" d="M12.41,25.75a11.66,11.66,0,0,1-2.3,7.09,11.65,11.65,0,0,1-3.28-6.7,11.66,11.66,0,0,1,2.3-7.09,11.65,11.65,0,0,1,3.28,6.7"/><path class="fill" d="M64,89.57l-.33,1.61C63.19,91.07,12,80,9.14,31.6l1.64-.1C13.59,78.65,63.53,89.47,64,89.57Z"/><path class="fill" d="M140.81,70.53a11.65,11.65,0,0,0,2.76,6.92,11.63,11.63,0,0,0,2.84-6.89,11.65,11.65,0,0,0-2.76-6.93,11.64,11.64,0,0,0-2.84,6.9"/><path class="fill" d="M153.85,72a11.59,11.59,0,0,0-6.69,3.29,9.93,9.93,0,0,0,13.78-1A11.62,11.62,0,0,0,153.85,72"/><path class="fill" d="M162.91,62.68a11.65,11.65,0,0,0-6.5,3.65,10,10,0,0,0,13.72-1.74,11.68,11.68,0,0,0-7.22-1.91"/><path class="fill" d="M169.05,50.91a11.67,11.67,0,0,0-5.88,4.58,9.93,9.93,0,0,0,13.29-3.78,11.67,11.67,0,0,0-7.41-.8"/><path class="fill" d="M172.68,37.4a11.68,11.68,0,0,0-4.3,6.1,11.67,11.67,0,0,0,7.33-1.4A11.63,11.63,0,0,0,180,36a11.65,11.65,0,0,0-7.32,1.4"/><path class="fill" d="M149,64.53A11.71,11.71,0,0,0,152.72,71a11.58,11.58,0,0,0,1.79-7.24,11.65,11.65,0,0,0-3.75-6.45A11.7,11.7,0,0,0,149,64.53"/><path class="fill" d="M155.58,55.6a11.67,11.67,0,0,0,4.3,6.09A11.63,11.63,0,0,0,161,54.33a11.67,11.67,0,0,0-4.3-6.1,11.65,11.65,0,0,0-1.15,7.37"/><path class="fill" d="M160.58,45.55a11.69,11.69,0,0,0,5.78,4.71,11.67,11.67,0,0,0-.87-7.4,11.67,11.67,0,0,0-5.78-4.72,11.7,11.7,0,0,0,.87,7.41"/><path class="fill" d="M162.73,34.31A11.62,11.62,0,0,0,169,38.4a11.64,11.64,0,0,0-1.63-7.27A11.67,11.67,0,0,0,161.1,27a11.59,11.59,0,0,0,1.63,7.28"/><path class="fill" d="M167.59,25.75a11.66,11.66,0,0,0,2.3,7.09,11.65,11.65,0,0,0,3.28-6.7,11.66,11.66,0,0,0-2.3-7.09,11.65,11.65,0,0,0-3.28,6.7"/><path class="fill" d="M116,89.57l.33,1.61C116.81,91.07,168,80,170.86,31.6l-1.64-.1C166.41,78.65,116.47,89.47,116,89.57Z"/><path class="fill" d="M52.68,22.37a22,22,0,0,1-5.44,7.11,18.23,18.23,0,0,1-5.68,3.19l-.47.15a2,2,0,0,1-.38.08.11.11,0,0,1-.12-.1c0-.08,0-.13.21-.2A16.17,16.17,0,0,0,45,28.78a26.62,26.62,0,0,0,4.32-8.72,24.1,24.1,0,0,1,3.92.87.66.66,0,0,1,.4.51c0,.32-.09.42-.54.7a8.57,8.57,0,0,0,3,3.65,20.14,20.14,0,0,0,7,3.09c.17.05.24.1.24.17s0,.1-.16.18a5.8,5.8,0,0,0-2.36,2.64c-.09.2-.19.28-.38.28-1.18,0-3-1.11-4.58-2.69A10.12,10.12,0,0,1,53.15,24c0-.28-.14-.86-.28-1.79ZM57.52,41.9c1.71-2.42,1.83-2.54,2.19-2.54s1.11.5,2.06,1.56c.48.53.72.88.72,1.13s-.31.5-.88.5H44.34c-1.28,0-1.47,0-2.47.05-.36-.65-.38-.7-.38-.78s.07-.1.14-.1a19.9,19.9,0,0,0,2.45.18h5.75c.07-2.26.07-2.94.07-4.88H45.22a7.71,7.71,0,0,0-1.07.08c-.38-.46-.4-.51-.4-.56a.17.17,0,0,1,.19-.17c.28,0,.66.05.85.05h5.13c0-1.18,0-3.55-.07-4.25H46.41c-.53,0-1.07,0-1.59.08-.36-.48-.38-.53-.38-.58a.18.18,0,0,1,.19-.18c.38,0,.85.05,1.09.05H54.1l.43-.63c.5-.8.69-1,.95-1a4.28,4.28,0,0,1,2.28,1.86c0,.25-.21.4-.55.4H53.82c0,.2-.07.25-.31.35s-.36.2-.38,3.9h2.21c.38-.53.71-1.08,1.07-1.64s.45-.55.71-.55c.74,0,2.52,1.64,2.52,2.31,0,.33-.34.48-1,.48H53.13c0,2.64.07,4.25.09,4.88Z"/><path class="fill" d="M84.13,22.24l.19-.27c.59-.86.74-1,1-1a4.85,4.85,0,0,1,2,1c.76.55,1,.86,1,1.18s-.12.38-.4.68l-.36.35c0,.78,0,1.41,0,1.81,0,4.12.14,12.55.21,14.51,0,.6,0,.95,0,1.25,0,.71-.1,1-.53,1.23a3.39,3.39,0,0,1-1.87.46c-.79,0-1-.23-1-1,0-.55,0-.68,0-1H71.28v.65a.91.91,0,0,1-.57.88,3.1,3.1,0,0,1-1.5.38c-.88,0-1.16-.2-1.16-.81,0-.27,0-2.51.09-4.2.08-2.86.17-10.1.17-13.22,0-.8,0-.95,0-3.79,0-.18,0-.23.12-.23a13.41,13.41,0,0,1,2.61.5,1.32,1.32,0,0,1,.88.58Zm.36,7c0-1.94,0-3.95-.08-5.93,0-.35-.11-.45-.59-.45H71.68c-.47.15-.47.17-.5,4.09l0,6c0,2,0,6.24.07,7.92H84.41Zm-4,8.27c1.07-1.68,1.28-1.91,1.61-1.91a3,3,0,0,1,1.36.9c.57.58.78.91.78,1.21s-.21.38-.62.38H73.3a11.5,11.5,0,0,0-1.31.07c-.33-.47-.35-.52-.35-.58a.17.17,0,0,1,.19-.17c.61.05,1.4.1,1.78.1H76c.07-1.51.07-1.74.1-6.06h-2a11.2,11.2,0,0,0-1.3.08c-.36-.48-.38-.53-.38-.58a.18.18,0,0,1,.19-.18c.61,0,1.42.1,1.8.1h1.66c0-1.86,0-1.91,0-4.5H73.46a11.48,11.48,0,0,0-1.3.08c-.36-.48-.38-.53-.38-.58a.17.17,0,0,1,.19-.17c.62,0,1.42.1,1.8.1h6.3l.33-.51c.71-1.08.9-1.28,1.19-1.28s.52.13,1,.5c.86.76,1.21,1.16,1.21,1.49s-.14.37-.54.37H79.5v.1c0,.21-.17.33-.55.48,0,.81,0,1,0,2.52v1.4h1.17c.26-.35.33-.47.64-.93s.5-.68.69-.68c.5,0,1.9,1.29,1.9,1.76,0,.26-.22.41-.57.41H78.9c0,1.73,0,2.21,0,6.08Zm1-2.11a1.19,1.19,0,0,1-.76-.28c-.14-.15-.16-.22-.23-.75a3.43,3.43,0,0,0-1-2,.19.19,0,0,1-.1-.15c0-.13.22-.18.65-.18,1.73,0,2.87.73,2.87,1.81A1.41,1.41,0,0,1,81.56,35.39Z"/><path class="fill" d="M99.13,3.31l-5.54.11V2c7.65,0,9.7-.76,11.91-2l.77.49c-.1,1.68-.21,3.37-.21,5V39l5.55.05v1.42h-18V39.06L99.13,39Z"/><path class="fill" d="M118.85,27.4c-1.28,1.86-3.67,4.32-4.25,4.32a.13.13,0,0,1-.12-.12,7.22,7.22,0,0,1,.61-1,41.1,41.1,0,0,0,3.48-9,50.49,50.49,0,0,0,1.37-6.9c4.57,1.25,5.27,1.54,5.27,2.25,0,.51-.18.7-1.21,1.18-.88,2-1.43,3.18-2.18,4.56.85.35,1.36.74,1.36,1.09s-.18.42-.73.7c.09,6.61.09,12.29.12,15.21,0,.76,0,1.5,0,1.76,0,.93-.09,1.22-.45,1.54a4,4,0,0,1-2.39.67c-1.13,0-1.37-.22-1.37-1.22,0-.54.15-3.2.27-8Zm18.06,13.72c2-3.14,2.4-3.59,2.85-3.59s1.28.64,2.28,1.83c.7.86.94,1.34.94,1.82s-.31.74-.85.74H126.21a24.4,24.4,0,0,0-2.7.13c-.54-.7-.57-.77-.57-.83a.22.22,0,0,1,.24-.23c.67.07,1.55.13,2,.13h6.7a108.49,108.49,0,0,0,2.61-17.41c3.82,1,5.36,1.76,5.36,2.63,0,.48-.18.67-1.27,1.09-1.54,4.9-2.88,8.56-5,13.69Zm-.33-19.18c1.79-2.79,2-3,2.34-3s1.15.67,2.27,1.8c.67.7.88,1,.88,1.34a.7.7,0,0,1-.79.65h-15.4c-.64,0-1.3,0-1.94.06-.46-.67-.49-.74-.49-.8a.23.23,0,0,1,.25-.23,13.08,13.08,0,0,0,1.78.16h4.16l-.09-5.83v-.23c0-.57,0-.7.27-.7a34.78,34.78,0,0,1,3.64.45c1,.25,1.36.51,1.36.93s-.15.57-1,1.12v4.26ZM127.09,33.3c.12-3.34-.67-6.61-1.57-7.73a.32.32,0,0,1-.1-.26c0-.06.06-.13.19-.13.63,0,2.91,2.5,3.88,4.3a12.2,12.2,0,0,1,1.69,6c0,2.31-.87,3.63-2.45,3.63-1.15,0-1.76-.9-1.76-2.63,0-.51.06-1.77.09-2.25Z"/><path class="fill" d="M51.91,56.51H50.19a6.37,6.37,0,0,0-1,.06v-.68a6,6,0,0,0,1,.06h4a6,6,0,0,0,1-.06v.68a6.1,6.1,0,0,0-1-.06h-1.7v1.58h1.87a5.82,5.82,0,0,0,.94-.06v.67a5.11,5.11,0,0,0-.94-.06H52.52V60.8a8.37,8.37,0,0,0,1.58.11c.79,0,1.46,0,2.28-.1a1.76,1.76,0,0,0-.22.68l-1.17,0a12.77,12.77,0,0,1-2.13-.08,3.54,3.54,0,0,1-3-1.83,6.56,6.56,0,0,1-1.48,2.21,1.94,1.94,0,0,0-.51-.46,5.19,5.19,0,0,0,1.32-1.73,6.13,6.13,0,0,0,.59-2.22v-.09l.68.13-.12.51c0,.23-.19.8-.26,1a3.11,3.11,0,0,0,.77,1.07,3.17,3.17,0,0,0,1,.59Zm-.14-2.76a3.23,3.23,0,0,0-.06-.61h.76a2.46,2.46,0,0,0-.07.6v.48h2.84a9.54,9.54,0,0,0,1,0,4.33,4.33,0,0,0,0,.66v.62a4.58,4.58,0,0,0,0,.69h-.63V54.78H48.79v1.37h-.64a6.73,6.73,0,0,0,0-.69v-.62a6.38,6.38,0,0,0,0-.66,9.62,9.62,0,0,0,1,0h2.64Z"/><path class="fill" d="M58.52,54.12a5.89,5.89,0,0,0-.06-.92h.68a6,6,0,0,0,0,.93v.18h1.79v-.19a5.44,5.44,0,0,0-.05-.92h.68a5.6,5.6,0,0,0-.06.93v.18a4.1,4.1,0,0,0,.81-.06v.62a5.33,5.33,0,0,0-.81,0V59a4.73,4.73,0,0,0,.77-.05v.6c-.23,0-.51,0-.89,0H58.26a4,4,0,0,0-.79.05v-.62a3.86,3.86,0,0,0,.78.05h.27V54.83h-.06a4.36,4.36,0,0,0-.84.05v-.63a4,4,0,0,0,.84.06h.06Zm1,6A5.5,5.5,0,0,1,58,61.84a1.33,1.33,0,0,0-.45-.47A3.78,3.78,0,0,0,59,59.85Zm1.36-4.31v-1H59.09v1Zm0,1.51v-1H59.09v1Zm0,1.63V57.86H59.09V59Zm-.14.86a3.61,3.61,0,0,0,.95,1,2,2,0,0,0-.45.42,5,5,0,0,1-.94-1.12Zm2.48-1.11a5.22,5.22,0,0,1-1.14,3.15,1.54,1.54,0,0,0-.48-.45,3.77,3.77,0,0,0,1-2.2c.09-.71.16-2.43.16-4.51a9.5,9.5,0,0,0,0-1.15,7.8,7.8,0,0,0,.94,0H65a7.23,7.23,0,0,0,.92,0c0,.22,0,.51,0,.94v6.56q0,.49-.27.63a1.83,1.83,0,0,1-.79.11l-.76,0a2.55,2.55,0,0,0-.16-.69,5.28,5.28,0,0,0,1.07.13c.23,0,.31-.06.31-.22V58.74Zm.09-2.33c0,1,0,1.16-.06,1.78h2V56.41Zm2-2.25H63.32v1.7h1.94Z"/><path class="fill" d="M68.35,57.5c0-.35,0-.65,0-1.2a7.19,7.19,0,0,1-1,1.51,1.92,1.92,0,0,0-.39-.53,8.86,8.86,0,0,0,1.72-3A5.58,5.58,0,0,0,69.1,53l.69.17c-.06.15-.06.15-.29.84A14.46,14.46,0,0,1,69,55.43v5.34c0,.45,0,.81,0,1.14h-.71a9.42,9.42,0,0,0,.06-1.17Zm5.26-3.14V54a5.27,5.27,0,0,0-.06-.88h.71a5.53,5.53,0,0,0-.06.9v.35h.55a6.69,6.69,0,0,0,1,0v.62a7.15,7.15,0,0,0-1,0H74.2v1.33h.87a6.27,6.27,0,0,0,1,0v.66a6,6,0,0,0-1-.06H70.5a7.31,7.31,0,0,0-1,0v-.64a5.9,5.9,0,0,0,1,0h.75V54.89h-.42a7.54,7.54,0,0,0-1,0v-.62a8.56,8.56,0,0,0,1,0h.4V54a5.52,5.52,0,0,0-.06-.88h.71a5.28,5.28,0,0,0-.06.9v.35Zm-3.27,4a5.07,5.07,0,0,0,0-.73,6.56,6.56,0,0,0,.87,0h3.08a6.28,6.28,0,0,0,.87,0,5.23,5.23,0,0,0,0,.77v2.52a7.74,7.74,0,0,0,0,1.05h-.64v-.54H70.93v.54h-.64a9.08,9.08,0,0,0,0-1Zm.59.89h3.56v-1H70.93Zm0,1.66h3.56V59.73H70.93Zm2.68-4.64V54.89H71.82v1.33Z"/><path class="fill" d="M78.2,54.28a7.7,7.7,0,0,0-.06-1.08h.72a10.24,10.24,0,0,0,0,1.09v1.45h.27a3.62,3.62,0,0,0,.78-.05v.63a6,6,0,0,0-.79,0h-.26v3.06c.41-.2.59-.28,1.1-.57l0,.6a19.52,19.52,0,0,1-2.51,1.19,3.52,3.52,0,0,0-.39.16l-.16-.67a5.67,5.67,0,0,0,1.3-.44V56.28h-.36a3.5,3.5,0,0,0-.81.06v-.66a3.4,3.4,0,0,0,.81.06h.36Zm3,6.3c0,.24.06.32.29.37A6.93,6.93,0,0,0,83,61c1.37,0,1.78-.06,1.94-.28a3,3,0,0,0,.2-1.31,1.92,1.92,0,0,0,.62.25c-.11,1.8-.29,1.92-2.82,1.92-2,0-2.41-.15-2.41-.91V57.14l-.22.07a4.49,4.49,0,0,0-.8.31l-.18-.66a3.7,3.7,0,0,0,.85-.2l.35-.11V55a6.81,6.81,0,0,0-.06-1h.73a6.65,6.65,0,0,0-.06,1v1.36l1.39-.47v-1.8a5.89,5.89,0,0,0-.06-.9h.72a6.31,6.31,0,0,0,0,.91v1.6l1.49-.5a4.94,4.94,0,0,0,.77-.3c0,1-.08,1.66-.15,2.61s-.2,1.27-.45,1.42a1.31,1.31,0,0,1-.7.14l-.43,0a2.25,2.25,0,0,0-.15-.62,3.47,3.47,0,0,0,.75.09c.23,0,.28,0,.33-.33a22.33,22.33,0,0,0,.15-2.46l-1.61.55V59a6.27,6.27,0,0,0,0,.93h-.72a6.08,6.08,0,0,0,.06-.94V56.47l-1.39.47Z"/><path class="fill" d="M88.05,54.06a5.72,5.72,0,0,0,0-1h.68a6.25,6.25,0,0,0-.05,1V55h.25a3.69,3.69,0,0,0,.63,0v.6l-.6,0h-.25A3.6,3.6,0,0,0,89.78,57a3.16,3.16,0,0,0-.36.48,4.32,4.32,0,0,1-.83-1.22c0,.54,0,1.1,0,1.57v3A7.91,7.91,0,0,0,88.69,62H88a6.53,6.53,0,0,0,.07-1.13V58.06a7.59,7.59,0,0,1,0-.85c0-.38,0-.5,0-.87a7.59,7.59,0,0,1-1.3,3,2,2,0,0,0-.4-.52A8.24,8.24,0,0,0,88,55.49h-.54a5.47,5.47,0,0,0-.67,0v-.61a3.69,3.69,0,0,0,.67,0h.63Zm5,5.52h1.1a4.2,4.2,0,0,0,.81,0v.6a4.73,4.73,0,0,0-.81-.05H93v.86H94.3a9.06,9.06,0,0,0,1,0v.62a7.73,7.73,0,0,0-1-.06H90.76v.48h-.63a5.4,5.4,0,0,0,.07-1V58.76c0-.25,0-.52,0-.77a6.3,6.3,0,0,1-.79.74,1.25,1.25,0,0,0-.39-.42A7.42,7.42,0,0,0,91.14,56h-.56a3.87,3.87,0,0,0-.82.06V55.4a4.5,4.5,0,0,0,.83.05h.84a6.21,6.21,0,0,0,.38-1h-1a7,7,0,0,1-.67.82c-.09-.14-.17-.19-.45-.35a4.06,4.06,0,0,0,1-1.22,3.12,3.12,0,0,0,.29-.71l.58.19c-.14.3-.21.44-.37.74H94a6.87,6.87,0,0,0,1-.06v.64a7.72,7.72,0,0,0-1.06,0h-1.6c-.16.43-.22.61-.38,1h2.33a6.17,6.17,0,0,0,1-.06V56a6.44,6.44,0,0,0-1-.06h-2.6a6.38,6.38,0,0,1-.69,1h1.51a3,3,0,0,0,.44-.88l.54.19a5.78,5.78,0,0,1-.4.69h1.14a6.8,6.8,0,0,0,.89,0v.61a7.85,7.85,0,0,0-.9-.05H93v.79h1.1a4.39,4.39,0,0,0,.81,0v.59a5.82,5.82,0,0,0-.81-.05H93Zm-.53-2.07H90.76v.79H92.5Zm-1.74,1.28v.79H92.5v-.79Zm0,2.15H92.5v-.86H90.76Z"/><path class="fill" d="M98.49,60.73c0,.45,0,.82.05,1.16h-.73a9.59,9.59,0,0,0,.06-1.18V57.46c0-.43,0-.73,0-1.18a8.4,8.4,0,0,1-1.09,1.5l-.07-.11a1.61,1.61,0,0,0-.36-.42,9.63,9.63,0,0,0,2-3A5.25,5.25,0,0,0,98.77,53l.7.23a5.6,5.6,0,0,0-.24.55c-.14.34-.45,1-.74,1.57Zm5.27.12c0,.64-.21.8-1.08.8-.38,0-.75,0-1.18-.06a2,2,0,0,0-.19-.66,8.88,8.88,0,0,0,1.34.11c.39,0,.48,0,.48-.25V56h-3A7.27,7.27,0,0,0,99,56v-.68a6.91,6.91,0,0,0,1,.06h3.08V54.3a7.05,7.05,0,0,0-.07-1.14h.75a9.25,9.25,0,0,0,0,1.14v1.12h.47a5.94,5.94,0,0,0,.93-.06V56c-.31,0-.62,0-.93,0h-.47Zm-3.58-4a12.52,12.52,0,0,1,1.65,2.2l-.55.42a9.68,9.68,0,0,0-1.6-2.27Z"/><path class="fill" d="M108,58.45A6.05,6.05,0,0,1,106.63,62a2.51,2.51,0,0,0-.55-.46c1.08-1.26,1.35-2.27,1.35-5.12a11.4,11.4,0,0,0,0-1.14,9.13,9.13,0,0,0,1,0H113a7.75,7.75,0,0,0,.92,0,6.83,6.83,0,0,0,0,.88v2a6,6,0,0,0,0,1h-.69v-.69Zm6.75-4.21a6.64,6.64,0,0,0-1.08-.06h-6a8.32,8.32,0,0,0-1.08.06v-.69a7.8,7.8,0,0,0,1.08.06h6a7.61,7.61,0,0,0,1.08-.06Zm-1.48,3.64v-2h-5.2v.88c0,.26,0,.87,0,1.11Z"/><path class="fill" d="M116.82,57.56a4.42,4.42,0,0,0,.61,1.47,7.73,7.73,0,0,0,.55-2.18h-.84c-.27,0-.61,0-.88,0a16.12,16.12,0,0,0,1.57-2.75h-1.16a3.39,3.39,0,0,0-.67,0v-.63a3.37,3.37,0,0,0,.68.05h.92a4.05,4.05,0,0,0,.72,0l.28.37a4.17,4.17,0,0,0-.21.4,14.83,14.83,0,0,1-1.15,2h.63a4.21,4.21,0,0,0,.77,0c0,.15,0,.15-.08.49a9.27,9.27,0,0,1-.76,2.8c.82,1,1.86,1.43,3.91,1.43,1,0,2.14-.06,3-.13a2.25,2.25,0,0,0-.2.67c-.72,0-2,0-2.7,0-2.3,0-3.3-.34-4.32-1.5a7.13,7.13,0,0,1-1.35,1.71,1.64,1.64,0,0,0-.46-.48,6.09,6.09,0,0,0,1.43-1.72,6.78,6.78,0,0,1-.66-1.26,4.41,4.41,0,0,0-.24-.54Zm4.27-3.31h-1.24a4.9,4.9,0,0,0-.7,0v-.58a3.56,3.56,0,0,0,.72,0h1.22a6.83,6.83,0,0,0,0-.74h.66a3.59,3.59,0,0,0,0,.74h1.54a6.37,6.37,0,0,0,.71,0,1.49,1.49,0,0,1,0,.17c0,.1,0,.3,0,.45V55h0a4,4,0,0,0,.73-.06v.58a4.9,4.9,0,0,0-.73,0h0v.8c0,.21,0,.46,0,.56-.31,0-.44,0-.69,0h-1.56v.83h1.56a7.53,7.53,0,0,0,.86,0v.57a7,7,0,0,0-.87,0h-1.55V59h2a5.41,5.41,0,0,0,.91-.06v.59a7.25,7.25,0,0,0-.91,0h-2v.25a5.32,5.32,0,0,0,0,.9h-.66a7.31,7.31,0,0,0,0-.89v-.26h-1.55a5.44,5.44,0,0,0-.87,0V59a5.1,5.1,0,0,0,.88.06h1.54v-.86h-1.3a6.22,6.22,0,0,0-.8,0v-.58a6.37,6.37,0,0,0,.8,0h1.3v-.83h-1.27a4.79,4.79,0,0,0-.68,0v-.58a3.33,3.33,0,0,0,.71,0h1.24v-.85h-1.62a5.46,5.46,0,0,0-.9,0V55a5.25,5.25,0,0,0,.91.06h1.61Zm2.23.79v-.79h-1.66V55Zm-1.66,1.33h1.66v-.85h-1.66Z"/><path class="fill" d="M126.1,54.76h.35l.55,0c1.16-.09,4.27-.27,5.53-.32a6.5,6.5,0,0,0,1.16-.11l.05.73a4.25,4.25,0,0,0-3,1.11,3,3,0,0,0-1.2,2.25,1.93,1.93,0,0,0,1.36,1.8,5.18,5.18,0,0,0,1.46.31h.1l-.13.79-.3-.06a5,5,0,0,1-2.1-.75,2.38,2.38,0,0,1-1.08-2,3.69,3.69,0,0,1,1.82-3,6.13,6.13,0,0,1,.92-.51,18.76,18.76,0,0,1-2.14.21,32,32,0,0,0-3.36.32Z"/><path class="fill" d="M63.48,70.49c0-.44,0-.82.05-1.27a8.13,8.13,0,0,1-1,1.48,1.24,1.24,0,0,0-.35-.56A8.75,8.75,0,0,0,64,67.33a7.36,7.36,0,0,0,.41-1.3l.64.2a17.91,17.91,0,0,1-.92,2.14v5.29a7.87,7.87,0,0,0,.07,1.13h-.76a7.16,7.16,0,0,0,.07-1.16ZM66,68.7c-.37,0-.73,0-1,0v-.68a6.6,6.6,0,0,0,1,.06h3.85a7.22,7.22,0,0,0,1-.06v.68a10.08,10.08,0,0,0-1,0H68.09v2.06h1.44a7.26,7.26,0,0,0,1-.06v.66c-.3,0-.66,0-1,0H68.09v2.52h2a7.39,7.39,0,0,0,1.06-.06v.67c-.29,0-.66,0-1.06,0H65.57c-.41,0-.78,0-1.07,0v-.67a7.53,7.53,0,0,0,1,.06h1.91V71.31H66.25c-.36,0-.71,0-1,0V70.7a7.05,7.05,0,0,0,1,.06h1.22V68.7Zm.89-2.61a12.37,12.37,0,0,1,2,1.24l-.45.5a8.19,8.19,0,0,0-1.93-1.3Z"/><path class="fill" d="M75.56,69.69c-1.17.22-1.51.28-2.65.44a2.31,2.31,0,0,0-.3-.59,23.73,23.73,0,0,0,5.06-1,4.8,4.8,0,0,0,1.09-.45l.54.53c-.22.06-.22.06-.94.31s-1.53.46-2.15.62V71l3.53-.43a7.56,7.56,0,0,0,1-.18l.07.7h-.14a6.88,6.88,0,0,0-.84.06l-3.58.44v2c0,.25,0,.33.24.4a6.88,6.88,0,0,0,1.43.08,4.49,4.49,0,0,0,1.85-.18c.23-.13.28-.39.32-1.36a1.74,1.74,0,0,0,.63.27c-.07,1-.21,1.38-.55,1.6a4.81,4.81,0,0,1-2.28.26,5.34,5.34,0,0,1-2-.19c-.27-.12-.33-.29-.33-.77v-2l-2.27.27a6.67,6.67,0,0,0-1,.19l-.08-.7h.15a6.73,6.73,0,0,0,.83-.06L75.56,71Zm.5-3a2.38,2.38,0,0,0-.07-.59h.76a2.88,2.88,0,0,0-.06.59v.46h2.88a9.37,9.37,0,0,0,1,0,4.08,4.08,0,0,0,0,.66v.64a4.2,4.2,0,0,0,0,.68h-.64V67.69H73.1v1.37h-.64a4.36,4.36,0,0,0,0-.68v-.64a4.16,4.16,0,0,0,0-.66,9.17,9.17,0,0,0,1,0h2.63Z"/><path class="fill" d="M84.42,66.15l-.15.43a13.81,13.81,0,0,1-.73,1.84v5.31c0,.42,0,.83,0,1.14h-.72a9.19,9.19,0,0,0,.06-1.17V70.51c0-.45,0-.73,0-1.18a6.62,6.62,0,0,1-1,1.5.64.64,0,0,1-.06-.1,2.32,2.32,0,0,0-.18-.28l-.15-.16a9.3,9.3,0,0,0,1.64-2.51A7.44,7.44,0,0,0,83.74,66Zm2.17,6.32a8.38,8.38,0,0,1-2.18,2.33,1.89,1.89,0,0,0-.51-.46A6.52,6.52,0,0,0,86,72.11Zm1.66-4.29V67a5,5,0,0,0,0-.81h.73a4,4,0,0,0-.06.81v1.2h.62a5.67,5.67,0,0,0,.91-.06v.68a5.84,5.84,0,0,0-.91-.06h-.62v2.4h.87a6.22,6.22,0,0,0,1-.06v.69a6.32,6.32,0,0,0-1-.06H85a6.27,6.27,0,0,0-.94.06v-.69a5.82,5.82,0,0,0,.94.06h.81v-2.4h-.48a5.58,5.58,0,0,0-.91.06v-.68a5.67,5.67,0,0,0,.91.06h.48V67a5.19,5.19,0,0,0-.06-.8h.73a5,5,0,0,0,0,.81v1.2Zm0,3v-2.4H86.39v2.4Zm.23.93a7.32,7.32,0,0,0,2.2,2.23,3.2,3.2,0,0,0-.49.53,9.41,9.41,0,0,1-2.25-2.42Z"/><path class="fill" d="M91.53,70.3a3.62,3.62,0,0,0,.46,0h.36c.4-.53.4-.53.57-.79a11.14,11.14,0,0,0-1.39-1.63l.38-.42.39.42A7.1,7.1,0,0,0,93.19,66l.61.24a3.23,3.23,0,0,0-.37.67,12.69,12.69,0,0,1-.79,1.35c.32.39.39.49.6.76a10.8,10.8,0,0,0,1.09-2l.59.3a2.79,2.79,0,0,0-.23.38c-.46.77-1.18,1.86-1.7,2.54a14.17,14.17,0,0,0,1.53-.15,5.9,5.9,0,0,0-.46-.84l.46-.21a14.58,14.58,0,0,1,.87,1.78l-.5.27c-.08-.26-.11-.34-.17-.52-.4.06-.54.07-1,.12V74a6.51,6.51,0,0,0,.06,1h-.7a6.9,6.9,0,0,0,.06-1V70.78l-1.09.07a3.32,3.32,0,0,0-.44.06Zm1.08,1.28a10,10,0,0,1-.54,2.76l-.54-.25a8.17,8.17,0,0,0,.53-2.62Zm2-.21a14,14,0,0,1,.58,2.21l-.53.15a10,10,0,0,0-.54-2.19Zm3.24-5.21A5.33,5.33,0,0,0,99.26,68a8.36,8.36,0,0,0,1.36,1,2.12,2.12,0,0,0-.35.56,8.38,8.38,0,0,1-2.74-2.76,7.55,7.55,0,0,1-2.38,2.7,1.58,1.58,0,0,0-.39-.5,6.21,6.21,0,0,0,2.42-2.81Zm-1.62,8.68h-.66a6.8,6.8,0,0,0,.06-1V71.58a5.69,5.69,0,0,0,0-.77,6.6,6.6,0,0,0,.69,0h2.8a6.47,6.47,0,0,0,.69,0,5.5,5.5,0,0,0,0,.77v2.27a7.88,7.88,0,0,0,.05,1h-.68v-.59H96.24ZM95.91,69a4,4,0,0,0,.88.06h1.75a3.94,3.94,0,0,0,.87-.06v.67a7.38,7.38,0,0,0-.9,0h-1.7a7.38,7.38,0,0,0-.9,0Zm.33,4.68h2.88V71.39H96.24Z"/><path class="fill" d="M106.09,72a4.46,4.46,0,0,0,1.27,1.22,7.18,7.18,0,0,0,2.69,1,3,3,0,0,0-.37.63,6.42,6.42,0,0,1-4.19-2.73A3.76,3.76,0,0,1,104,73.9a6.62,6.62,0,0,1-2.21.89,2.48,2.48,0,0,0-.36-.61,5.8,5.8,0,0,0,2.08-.7A3.25,3.25,0,0,0,104.9,72h-2.47a6.17,6.17,0,0,0-.9.06v-.65a5.15,5.15,0,0,0,.89.06h2.67a4.82,4.82,0,0,0,.13-.94h-1.76a4.49,4.49,0,0,0-.84,0v-.61a4.56,4.56,0,0,0,.84,0h1.81c0-.38,0-.49,0-.87h-1.88a5.85,5.85,0,0,0-.93.06v-.63a5.6,5.6,0,0,0,.93.06h1.89a3.44,3.44,0,0,0-.06-.79H106a3.39,3.39,0,0,0,0,.79h2a5.44,5.44,0,0,0,.93-.06v.63a4.93,4.93,0,0,0-.93-.06h-2c0,.31,0,.55,0,.87h1.92a4.56,4.56,0,0,0,.84,0v.61a4.56,4.56,0,0,0-.84,0h-2a7.14,7.14,0,0,1-.15.94H109a5.28,5.28,0,0,0,.9-.06V72A6.12,6.12,0,0,0,109,72Zm-.8-5.33a2.46,2.46,0,0,0-.07-.6H106a3,3,0,0,0-.06.6V67h2.87a9.29,9.29,0,0,0,1,0,4.28,4.28,0,0,0,0,.65v.58a4.3,4.3,0,0,0,0,.67h-.63V67.54h-6.85v1.33h-.65a4.38,4.38,0,0,0,0-.67v-.57a4.33,4.33,0,0,0,0-.66,9.45,9.45,0,0,0,1,0h2.67Z"/><path class="fill" d="M112.06,71.51a9.77,9.77,0,0,1-.55,2.8L111,74a7.46,7.46,0,0,0,.54-2.64ZM111,70.27a2.36,2.36,0,0,0,.36,0h.41c.38-.53.43-.59.66-1a9.67,9.67,0,0,0-1.36-1.49l.32-.46c.22.21.24.24.41.42a6.32,6.32,0,0,0,.86-1.8l.58.29a5.58,5.58,0,0,0-.39.72,10.48,10.48,0,0,1-.69,1.15c.32.35.43.46.6.68a10.47,10.47,0,0,0,.9-1.69l.56.3c-.1.13-.17.25-.35.54a22.89,22.89,0,0,1-1.48,2.26c.63,0,.83-.07,1.35-.14-.13-.28-.19-.4-.38-.74l.4-.19a8.75,8.75,0,0,1,.81,1.82l-.47.2a6.16,6.16,0,0,0-.18-.61c-.26,0-.49.08-.79.12v3.21a7.1,7.1,0,0,0,.06,1h-.68a7.1,7.1,0,0,0,.06-1V70.76l-.91.08a4.79,4.79,0,0,0-.56.07Zm2.93,1.13a12.77,12.77,0,0,1,.43,2.1l-.52.13a12,12,0,0,0-.37-2.1Zm2.46,2.42a6,6,0,0,1-2.26,1.1,2.11,2.11,0,0,0-.37-.49,5,5,0,0,0,2.19-1Zm-1.06-6.59a6.71,6.71,0,0,0-.89,0V66.7a5.67,5.67,0,0,0,.91.06h1.33a3.73,3.73,0,0,0-.06-.72h.66a3,3,0,0,0-.06.72h1.47a6.17,6.17,0,0,0,.94-.06v.57a7.11,7.11,0,0,0-.93,0h-1.48v.58h1.16a4.85,4.85,0,0,0,.88,0v.56a6.58,6.58,0,0,0-.86,0h-1.18v.63h1.71a5.84,5.84,0,0,0,.91-.06v.57a8,8,0,0,0-.91,0h-3.77a8.47,8.47,0,0,0-.94,0v-.57a5,5,0,0,0,.94.06h1.52v-.63h-1.05a7.1,7.1,0,0,0-.89,0v-.56a4.91,4.91,0,0,0,.89,0h1.05v-.58Zm.33,6.11c-.36,0-.64,0-.88,0a6.9,6.9,0,0,0,0-.89V70.74a7,7,0,0,0,0-.88c.23,0,.45,0,.86,0h2.74c.42,0,.61,0,.87,0a7.46,7.46,0,0,0,0,.91v1.66a7.8,7.8,0,0,0,0,.94c-.3,0-.51,0-.84,0Zm-.3-2.46h3.29v-.54h-3.29Zm0,1h3.29v-.57h-3.29Zm0,1h3.29v-.59h-3.29Zm2.5.57a6.39,6.39,0,0,0,2.15.93,2.1,2.1,0,0,0-.37.51,7,7,0,0,1-2.19-1.08Z"/></svg>