<?xml version="1.0" encoding="UTF-8"?><svg id="_レイヤー_1" xmlns="http://www.w3.org/2000/svg" viewBox="0 0 207.416 98.212"><defs><style>.cls-1,.cls-2{stroke-width:0px;}.cls-1,.cls-3{fill:#004ea3;}.cls-2{fill:#595757;}</style></defs><path class="cls-3" d="M45.156,74.413c.023,4.398-3.18,7.982-3.18,7.982,0,0-3.244-3.551-3.269-7.947-.024-4.398,3.18-7.98,3.18-7.98,0,0,3.247,3.544,3.269,7.945"/><path class="cls-3" d="M30.137,76.128c4.387.319,7.708,3.794,7.708,3.794,0,0-3.789,2.957-8.174,2.636-4.387-.32-7.711-3.79-7.711-3.79,0,0,3.789-2.959,8.177-2.64"/><path class="cls-3" d="M19.689,65.375c4.359.553,7.492,4.198,7.492,4.198,0,0-3.948,2.751-8.308,2.196-4.364-.555-7.497-4.201-7.497-4.201,0,0,3.948-2.749,8.312-2.194"/><path class="cls-3" d="M12.622,51.811c4.23,1.205,6.776,5.279,6.776,5.279,0,0-4.311,2.124-8.54.922-4.23-1.205-6.777-5.281-6.777-5.281,0,0,4.311-2.126,8.541-.92"/><path class="cls-3" d="M8.437,36.238c3.699,2.386,4.948,7.025,4.948,7.025,0,0-4.746.777-8.439-1.606-3.696-2.388-4.946-7.029-4.946-7.029,0,0,4.742-.773,8.437,1.61"/><path class="cls-3" d="M35.753,67.496c-.625,4.352-4.321,7.425-4.321,7.425,0,0-2.687-3.99-2.058-8.342.621-4.353,4.322-7.428,4.322-7.428,0,0,2.682,3.99,2.057,8.345"/><path class="cls-3" d="M28.139,57.207c-1,4.283-4.952,7.023-4.952,7.023,0,0-2.329-4.207-1.325-8.487.998-4.283,4.949-7.023,4.949-7.023,0,0,2.327,4.207,1.328,8.487"/><path class="cls-3" d="M22.376,45.627c-2.113,3.857-6.653,5.431-6.653,5.431,0,0-1.116-4.674,1.001-8.531,2.116-3.856,6.656-5.431,6.656-5.431,0,0,1.11,4.677-1.004,8.531"/><path class="cls-3" d="M19.904,32.678c-2.501,3.618-7.182,4.715-7.182,4.715,0,0-.62-4.765,1.882-8.381,2.502-3.619,7.181-4.717,7.181-4.717,0,0,.624,4.768-1.88,8.383"/><path class="cls-3" d="M14.299,22.811c.31,4.388-2.655,8.174-2.655,8.174,0,0-3.466-3.33-3.777-7.716-.31-4.388,2.655-8.172,2.655-8.172,0,0,3.463,3.326,3.778,7.714"/><path class="cls-1" d="M73.785,96.359l-.378,1.854c-.596-.126-59.54-12.871-62.872-68.658l1.886-.116c3.242,54.33,60.784,66.804,61.364,66.921Z"/><path class="cls-3" d="M162.26,74.413c-.022,4.398,3.181,7.982,3.181,7.982,0,0,3.244-3.551,3.269-7.947.024-4.398-3.18-7.98-3.18-7.98,0,0-3.247,3.544-3.269,7.945"/><path class="cls-3" d="M177.279,76.128c-4.387.319-7.707,3.794-7.707,3.794,0,0,3.789,2.957,8.174,2.636,4.387-.32,7.711-3.79,7.711-3.79,0,0-3.789-2.959-8.177-2.64"/><path class="cls-3" d="M187.728,65.375c-4.359.553-7.492,4.198-7.492,4.198,0,0,3.948,2.751,8.308,2.196,4.364-.555,7.496-4.201,7.496-4.201,0,0-3.948-2.749-8.312-2.194"/><path class="cls-3" d="M194.795,51.811c-4.229,1.205-6.776,5.279-6.776,5.279,0,0,4.311,2.124,8.54.922,4.23-1.205,6.776-5.281,6.776-5.281,0,0-4.312-2.126-8.541-.92"/><path class="cls-3" d="M198.979,36.238c-3.699,2.386-4.948,7.025-4.948,7.025,0,0,4.746.777,8.439-1.606,3.696-2.388,4.946-7.029,4.946-7.029,0,0-4.742-.773-8.437,1.61"/><path class="cls-3" d="M171.664,67.496c.625,4.352,4.321,7.425,4.321,7.425,0,0,2.686-3.99,2.058-8.342-.621-4.353-4.322-7.428-4.322-7.428,0,0-2.683,3.99-2.057,8.345"/><path class="cls-3" d="M179.277,57.207c1,4.283,4.952,7.023,4.952,7.023,0,0,2.329-4.207,1.325-8.487-.999-4.283-4.949-7.023-4.949-7.023,0,0-2.327,4.207-1.328,8.487"/><path class="cls-3" d="M185.04,45.627c2.114,3.857,6.653,5.431,6.653,5.431,0,0,1.116-4.674-1.001-8.531-2.116-3.856-6.656-5.431-6.656-5.431,0,0-1.109,4.677,1.004,8.531"/><path class="cls-3" d="M187.513,32.678c2.502,3.618,7.182,4.715,7.182,4.715,0,0,.62-4.765-1.882-8.381-2.502-3.619-7.181-4.717-7.181-4.717,0,0-.624,4.768,1.88,8.383"/><path class="cls-3" d="M193.117,22.811c-.31,4.388,2.655,8.174,2.655,8.174,0,0,3.466-3.33,3.778-7.716.309-4.388-2.655-8.172-2.655-8.172,0,0-3.463,3.326-3.778,7.714"/><path class="cls-1" d="M133.631,96.359l.378,1.854c.596-.126,59.539-12.871,62.872-68.658l-1.886-.116c-3.242,54.33-60.784,66.804-61.364,66.921Z"/><path class="cls-1" d="M58.515,17.78c.862.054,1.562.054,1.993.054,6.735,0,8.944-2.263,8.944-9.213,0-4.795-1.778-7.166-5.442-7.166-2.64,0-5.28,1.562-5.28,3.179,0,.485.216.755,1.294,1.401,1.185.7,1.508,1.508,1.508,2.478,0,1.724-1.239,2.856-3.125,2.856-1.993,0-3.232-1.455-3.232-3.718,0-1.778.862-3.61,2.317-4.957,1.939-1.832,4.472-2.694,7.92-2.694,7.166,0,11.691,3.448,11.691,8.782,0,5.388-3.341,8.351-10.884,9.752,3.987.27,5.98.754,8.298,2.047,3.179,1.778,4.795,4.688,4.795,8.513,0,7.004-5.711,11.422-14.763,11.422-3.825,0-6.573-.916-8.566-2.802-1.671-1.562-2.587-3.718-2.587-5.927,0-2.479,1.401-4.041,3.557-4.041,1.993,0,3.395,1.347,3.395,3.233,0,1.185-.323,1.778-1.562,2.748s-1.348,1.132-1.348,1.778c0,1.993,2.641,3.556,5.98,3.556,5.227,0,7.975-3.61,7.975-10.291,0-3.771-.809-5.818-2.909-7.489-1.886-1.455-3.771-1.94-7.543-1.94-.485,0-1.348,0-2.425.054v-1.617Z"/><path class="cls-1" d="M85.021,35.722c4.31-3.664,8.62-7.705,11.584-10.83,4.525-4.741,6.411-8.836,6.411-13.793,0-5.334-2.963-8.729-7.65-8.729-3.557,0-7.059,2.91-7.059,5.873,0,.916.485,1.347,1.778,1.455,2.748.269,3.933,1.293,3.933,3.179,0,1.94-1.509,3.34-3.663,3.34-2.587,0-4.364-2.155-4.364-5.334,0-2.263.861-4.688,2.316-6.573,2.263-2.801,5.765-4.31,10.184-4.31,7.273,0,12.23,4.256,12.23,10.506,0,2.694-.862,5.172-2.641,7.381-1.993,2.479-3.718,3.879-10.021,8.729-2.963,2.263-5.711,4.795-8.297,7.22h16.217c1.617,0,2.587-.754,2.964-2.263.27-.97.377-2.101.539-4.418h1.562l-.701,12.77h-25.322v-4.203Z"/><path class="cls-1" d="M146.085,32.545c1.921-2.883,2.697-3.807,3.215-3.807.702,0,1.996.924,3.585,2.55.628.665.887,1.035.887,1.441,0,.443-.48.776-1.22.776h-12.011c.074,3.178.222,5.913.222,8.205v.185c0,.739-.222,1.146-.776,1.441-.85.48-2.032.702-3.252.702-1.108,0-1.626-.37-1.626-1.22,0-.185,0-.48.037-.924.11-1.367.222-4.878.222-8.389h-12.528c-.851,0-1.774.037-2.624.111-.665-.813-.702-.887-.702-.961,0-.148.11-.259.296-.259.924.074,2.144.148,2.734.148h3.4c.037-4.324.073-5.1.073-6.911v-1.479c0-.48-.036-.998-.036-1.848,0-.333,0-.444.369-.444.591,0,2.218.296,3.585.702.887.259,1.404.518,1.663.85h3.844c-.037-1.108-.037-1.922-.037-2.476,0-1.663,0-3.104-.074-4.657h-5.729c-2.032,3.142-4.25,5.544-6.911,7.465-1.219.85-2.587,1.7-2.846,1.7-.147,0-.258-.111-.258-.222s.036-.222.369-.554c3.104-3.4,5.1-8.5,5.913-15.005,6.061.998,7.096,1.331,7.096,2.218,0,.517-.369.813-1.516,1.219-.554.998-.924,1.626-1.256,2.181h14.302c.592-.776,1.183-1.515,1.774-2.292.554-.776.961-1.072,1.367-1.072,1.22,0,4.324,2.698,4.324,3.733,0,.443-.407.628-1.331.628h-9.275c.036.074.036.148.036.222,0,.148-.147.296-.332.407-.518.259-.555.295-.555.739l-.074,5.765h3.216l1.257-1.774c.702-.998,1.219-1.478,1.589-1.478.443,0,1.7.776,2.92,1.811.812.702,1.182,1.183,1.182,1.589,0,.443-.479.776-1.146.776h-9.018l.111,8.205h5.544ZM131.414,24.34c-.296.148-.37.259-.444.518-.073.259-.11,3.067-.11,6.135,0,.443,0,.739.037,1.552h4.509l.037-8.205h-4.028Z"/><path class="cls-2" d="M80.263,50.361c.202.292.393.494.818.875.505.448.887.706,1.626,1.121-.168.225-.246.359-.358.617-1.223-.785-1.75-1.234-2.423-2.053-.403.617-.65.909-1.144,1.402-.527.516-.897.818-1.705,1.379-.156-.258-.235-.348-.471-.561.998-.639,1.57-1.099,2.176-1.772.314-.348.505-.617.729-1.009h.752ZM78.278,56.698c-.225,1.491-.448,2.153-1.099,3.319-.214-.235-.348-.359-.572-.505.818-1.267,1.133-2.635,1.133-4.912,0-.482-.012-.751-.045-1.054.381.034.595.045,1.088.045h2.512c.37,0,.539-.011.875-.045-.033.258-.045.482-.045.853v1.492c0,.381.012.594.045.841-.269-.022-.448-.033-.808-.033h-3.084ZM78.973,59.86v.55h-.706c.033-.269.056-.583.056-.931v-1.234c0-.438-.011-.617-.033-.886.235.022.403.034.841.034h2.355c.313,0,.516-.012.796-.045-.033.269-.045.448-.045.841v1.133c0,.37.012.65.057.92h-.707v-.382h-2.613ZM78.379,55.374c-.012.314-.022.438-.057.774h3.174v-.774h-3.117ZM81.497,54.835v-.695h-3.106v.695h3.106ZM78.783,52.334c.18.034.37.045.673.045h1.155c.313,0,.471-.011.661-.045v.628c-.179-.034-.336-.045-.616-.045h-1.223c-.314,0-.46.011-.65.045v-.628ZM78.985,59.299h2.591v-1.346h-2.591v1.346ZM84.132,51.101c-.056.28-.067.594-.067,1.223v4.284c0,.751.012.953.057,1.256h-.819c.045-.314.057-.538.057-1.256v-4.284c0-.595-.022-.92-.067-1.223h.841ZM86.51,50.372c-.057.325-.079.707-.079,1.357v7.447c0,.818-.224.987-1.323.987-.258,0-.527-.011-1.031-.045-.045-.314-.09-.482-.202-.718.471.079.931.112,1.356.112.393,0,.482-.067.482-.336v-7.436c0-.673-.022-1.009-.078-1.368h.875Z"/><path class="cls-2" d="M89.725,54.589c-.549,0-.852.011-1.2.056v-.695c.314.045.617.056,1.2.056h1.627c-.157-.438-.325-.819-.595-1.267h-1.413c-.561,0-.942.022-1.268.056v-.718c.325.045.673.067,1.245.067h.773c-.224-.393-.482-.729-.919-1.188l.639-.303c.505.606.695.897.998,1.492h.942v-.863c0-.382-.022-.695-.067-.942h.763c-.033.225-.045.482-.045.931v.875h1.188v-.875c0-.415-.011-.718-.044-.931h.762c-.045.235-.066.55-.066.942v.863h1.076c.482-.695.662-1.009.886-1.548l.685.292c-.337.572-.438.706-.841,1.256h.673c.583,0,.941-.022,1.256-.067v.718c-.325-.034-.707-.056-1.268-.056h-1.323c-.27.617-.403.908-.605,1.267h1.593c.583,0,.886-.011,1.211-.056v.695c-.348-.045-.65-.056-1.211-.056h-3.051v.819h2.355c.561,0,.908-.011,1.211-.056v.684c-.337-.045-.65-.056-1.211-.056h-2.355v.863h3.398c.639,0,.976-.022,1.278-.067v.729c-.393-.045-.774-.067-1.268-.067h-2.938c.965.909,2.558,1.604,4.452,1.94-.201.247-.303.393-.437.695-1.458-.438-1.975-.628-2.748-1.054-.673-.37-1.211-.785-1.783-1.368.033.504.045.707.045.953v.751c0,.482.022.83.067,1.167h-.808c.056-.359.067-.707.067-1.178v-.74c0-.258.011-.505.045-.942-1.1,1.144-2.165,1.75-4.217,2.411-.146-.292-.259-.438-.46-.65,1.851-.415,3.05-.987,4.16-1.985h-2.747c-.505,0-.875.022-1.268.067v-.729c.314.045.65.067,1.268.067h3.219v-.863h-2.221c-.55,0-.875.011-1.2.056v-.684c.314.045.662.056,1.2.056h2.221v-.819h-2.928ZM94.054,54.006c.247-.415.393-.729.572-1.267h-3.118c.258.538.348.74.527,1.267h2.019Z"/><path class="cls-2" d="M101.812,56.574c.235-.269.493-.583.729-.864l2.838-3.544c.382-.471.583-.751.841-1.144h.842c-.057.662-.067,1.009-.067,1.896v3.679h.426c.472,0,.763-.022,1.167-.079v.931c-.415-.056-.695-.078-1.178-.078h-.415v.964c0,.538.022.796.09,1.211h-1.021c.067-.393.089-.707.089-1.211v-.964h-3.005c-.628,0-.965.011-1.335.045v-.841ZM106.164,53.759c0-.595.011-.954.067-1.525-.235.336-.516.707-.841,1.122l-2.58,3.252h3.354v-2.849Z"/><path class="cls-2" d="M110.524,57.684c.135.37.225.527.404.718.313.348.796.527,1.413.527.808,0,1.391-.325,1.806-1.032.213-.359.393-.909.481-1.436.045-.28.079-.74.102-1.312-.157.303-.247.415-.449.628-.571.538-1.199.785-2.041.785-.83,0-1.536-.258-2.019-.74s-.763-1.223-.763-2.019c0-1.783,1.2-2.95,3.039-2.95,1.257,0,2.288.718,2.715,1.884.224.605.325,1.368.325,2.333,0,1.559-.325,2.826-.931,3.578-.562.707-1.302,1.043-2.333,1.043-.774,0-1.402-.202-1.885-.605-.313-.258-.493-.516-.785-1.11l.92-.292ZM114.517,53.737c0-1.211-.897-2.12-2.098-2.12-.74,0-1.413.359-1.783.954-.18.292-.292.74-.292,1.177,0,1.268.774,2.064,1.997,2.064,1.244,0,2.176-.886,2.176-2.075Z"/><path class="cls-2" d="M121.646,54.701c0-.247-.011-.438-.033-.662.235.022.482.034.796.034h2.434v-1.828h-2.635c-.572.953-1.11,1.615-1.862,2.288-.18-.258-.291-.37-.538-.538,1.11-.942,1.716-1.761,2.243-3.017.146-.325.225-.583.28-.819l.796.225c-.045.09-.078.168-.146.303l-.426.908h5.562c.493,0,.729-.011,1.009-.056v.763c-.28-.045-.549-.056-1.009-.056h-2.535v1.828h2.03c.46,0,.707-.011.998-.056v.74c-.291-.034-.561-.045-.986-.045h-2.042v2.198h2.826c.505,0,.819-.022,1.133-.067v.808c-.325-.045-.673-.067-1.133-.067h-2.826v1.851c0,.482.022.751.079,1.043h-.886c.056-.28.066-.527.066-1.043v-1.851h-4.048c-.46,0-.808.022-1.133.067v-.808c.325.045.639.067,1.133.067h.852v-2.209ZM124.842,56.911v-2.198h-2.467v2.198h2.467Z"/><path class="cls-2" d="M53.544,69.18h-1.985c-.482,0-.774.022-1.11.067v-.774c.303.045.617.067,1.11.067h4.643c.494,0,.808-.022,1.11-.067v.774c-.313-.044-.616-.067-1.11-.067h-1.962v1.828h2.164c.482,0,.785-.022,1.077-.067v.763c-.325-.057-.617-.067-1.077-.067h-2.164v2.49c.493.089,1.031.124,1.828.124.908,0,1.682-.034,2.624-.112-.146.28-.202.46-.247.785-.976.022-1.054.022-1.356.022-1.66,0-1.885-.012-2.456-.09-1.75-.247-2.849-.92-3.443-2.108-.46,1.065-.863,1.66-1.705,2.546-.19-.236-.269-.314-.583-.527.773-.729,1.133-1.2,1.514-1.996.382-.785.685-1.918.685-2.558v-.112l.785.157q-.034.146-.135.583c-.056.269-.225.919-.303,1.189.292.605.493.875.886,1.233.325.28.695.494,1.212.684v-4.766ZM53.376,66.006c0-.258-.022-.437-.067-.707h.875c-.056.247-.078.449-.078.695v.55h3.274c.438,0,.763-.011,1.122-.045-.034.235-.045.449-.045.763v.707c0,.336.011.561.045.796h-.729v-1.57h-7.828v1.57h-.74c.034-.247.045-.449.045-.796v-.707c0-.292-.011-.55-.045-.763.359.034.685.045,1.133.045h3.039v-.539Z"/><path class="cls-2" d="M61.157,66.432c0-.448-.022-.751-.067-1.065h.785c-.045.292-.056.628-.056,1.077v.202h2.063v-.213c0-.505-.012-.796-.057-1.065h.774c-.045.28-.067.605-.067,1.077v.202c.403,0,.729-.022.931-.067v.718c-.235-.034-.46-.045-.931-.045v4.789c.403,0,.684-.022.886-.056v.695c-.258-.022-.583-.034-1.021-.034h-3.544c-.448,0-.662.011-.908.056v-.718c.224.045.471.056.897.056h.313v-4.789h-.067c-.46,0-.751.011-.964.056v-.729c.201.044.493.067.964.067h.067v-.213ZM62.312,73.386c-.55.875-.886,1.256-1.75,1.94-.146-.235-.258-.358-.516-.538.841-.55,1.268-.998,1.683-1.75l.583.348ZM63.882,68.417v-1.167h-2.063v1.167h2.063ZM63.882,70.167v-1.178h-2.063v1.178h2.063ZM63.882,72.04v-1.301h-2.063v1.301h2.063ZM63.714,73.027c.358.527.583.763,1.099,1.155-.225.157-.325.258-.516.482-.482-.449-.74-.74-1.088-1.29l.505-.348ZM66.574,71.748c-.146,1.649-.46,2.523-1.312,3.634-.269-.325-.28-.336-.549-.516.673-.785.941-1.402,1.11-2.535.111-.819.19-2.804.19-5.204,0-.751-.012-1.009-.045-1.323.313.034.561.045,1.076.045h1.548c.517,0,.763-.011,1.065-.045-.033.258-.045.594-.045,1.088v7.559c0,.381-.101.617-.303.729-.135.078-.448.123-.908.123-.157,0-.28-.011-.886-.045-.034-.325-.067-.459-.18-.796.617.112.875.146,1.233.146.27,0,.359-.067.359-.247v-2.613h-2.355ZM66.674,69.068c-.022,1.099-.022,1.334-.066,2.052h2.321v-2.052h-2.255ZM68.929,66.477h-2.243v1.963h2.243v-1.963Z"/><path class="cls-2" d="M72.482,70.324c0-.403.011-.751.045-1.379-.46.864-.685,1.211-1.122,1.738-.146-.269-.246-.415-.448-.617.83-.92,1.48-2.052,1.974-3.421.258-.695.348-1.021.427-1.559l.785.202q-.067.168-.325.965c-.202.639-.37,1.054-.64,1.682v6.157c0,.516.022.931.056,1.312h-.818c.045-.404.067-.763.067-1.346v-3.735ZM78.549,66.702v-.427c0-.415-.022-.74-.067-1.009h.818c-.044.28-.066.605-.066,1.031v.404h.628c.471,0,.796-.012,1.121-.057v.718c-.258-.033-.55-.044-1.11-.044h-.639v1.537h.998c.481,0,.874-.022,1.133-.067v.763c-.259-.045-.651-.067-1.133-.067h-5.271c-.482,0-.796.011-1.144.056v-.74c.246.045.538.057,1.121.057h.863v-1.537h-.481c-.517,0-.853.011-1.1.044v-.718c.303.034.65.057,1.121.057h.46v-.427c0-.415-.022-.706-.067-1.009h.819c-.045.269-.067.583-.067,1.031v.404h2.063ZM74.781,71.255c0-.348-.011-.594-.045-.841.27.034.527.045.998.045h3.556c.493,0,.729-.011.998-.045-.033.235-.045.494-.045.886v2.905c0,.527.012.863.057,1.211h-.74v-.617h-4.094v.617h-.74c.033-.314.056-.673.056-1.178v-2.983ZM75.465,72.287h4.094v-1.2h-4.094v1.2ZM75.465,74.193h4.094v-1.301h-4.094v1.301ZM78.549,68.855v-1.537h-2.063v1.537h2.063Z"/><path class="cls-2" d="M83.84,66.612c0-.527-.022-.92-.067-1.245h.83c-.045.359-.067.695-.067,1.256v1.671h.314c.471,0,.684-.011.897-.056v.729c-.281-.034-.517-.045-.909-.045h-.303v3.522c.482-.225.685-.326,1.268-.651l.067.684c-1.088.605-1.626.853-2.894,1.368-.157.056-.325.135-.448.191l-.191-.774c.404-.067.695-.168,1.503-.505v-3.835h-.415c-.471,0-.65.011-.941.067v-.763c.258.056.481.067.941.067h.415v-1.682ZM87.272,73.879c0,.269.067.358.337.426.27.079.773.101,1.806.101,1.581,0,2.053-.067,2.231-.325.146-.202.225-.718.236-1.514.258.157.393.213.718.292-.135,2.075-.337,2.209-3.253,2.209-2.321,0-2.781-.168-2.781-1.043v-4.116l-.247.079c-.628.213-.673.236-.931.359l-.202-.763c.314-.033.617-.101.977-.224l.403-.134v-1.761c0-.471-.022-.819-.067-1.144h.841c-.045.337-.067.662-.067,1.11v1.57l1.604-.538v-2.075c0-.438-.022-.707-.067-1.043h.83c-.045.325-.067.65-.067,1.054v1.839l1.727-.572c.348-.112.584-.213.887-.348-.045,1.122-.09,1.907-.18,3.005-.079.998-.225,1.469-.516,1.638-.202.112-.415.157-.808.157-.102,0-.235-.011-.494-.034-.033-.292-.078-.471-.168-.706.303.067.595.101.863.101.259,0,.314-.056.37-.381.079-.415.135-1.245.18-2.837l-1.861.639v3.096c0,.449.022.751.067,1.077h-.83c.045-.314.067-.628.067-1.088v-2.849l-1.604.538v4.206Z"/><path class="cls-2" d="M95.188,66.365c0-.639-.011-.886-.056-1.155h.785c-.045.281-.057.595-.057,1.145v1.031h.28c.325,0,.517-.011.729-.045v.696c-.213-.022-.438-.034-.695-.034h-.28c.258.695.661,1.245,1.289,1.772-.179.19-.258.292-.415.549-.448-.482-.661-.796-.953-1.402.022.617.045,1.268.045,1.806v3.421c0,.594.022.998.067,1.301h-.808c.057-.336.079-.695.079-1.301v-3.174c0-.459,0-.594.033-.987.033-.437.045-.572.056-.998-.393,1.604-.763,2.467-1.491,3.477-.157-.258-.28-.426-.46-.594.808-1.009,1.368-2.266,1.75-3.869h-.628c-.325,0-.606.011-.774.045v-.707c.19.034.404.045.774.045h.729v-1.021ZM100.93,72.724h1.268c.438,0,.706-.011.931-.056v.684c-.27-.045-.55-.056-.931-.056h-1.268v.998h1.458c.527,0,.818-.011,1.155-.056v.718c-.359-.045-.729-.067-1.166-.067h-4.061v.55h-.729c.056-.325.078-.628.078-1.167v-2.501c0-.28.012-.594.034-.886-.304.336-.517.538-.909.852-.101-.179-.213-.292-.448-.482.976-.695,1.728-1.548,2.411-2.692h-.65c-.415,0-.662.011-.942.067v-.729c.247.045.505.056.953.056h.965c.19-.381.258-.538.438-1.088h-1.2c-.224.325-.381.505-.773.942-.112-.157-.202-.224-.527-.404.505-.459.773-.796,1.099-1.402.135-.235.214-.426.337-.819l.662.213c-.157.348-.236.504-.427.853h3.354c.583,0,.897-.022,1.211-.067v.74c-.358-.045-.661-.056-1.222-.056h-1.84c-.18.493-.258.695-.438,1.088h2.681c.493,0,.897-.022,1.144-.067v.74c-.269-.045-.673-.067-1.144-.067h-2.994c-.258.471-.404.684-.797,1.189h1.75c.225-.325.358-.606.505-1.021l.616.224c-.18.37-.28.527-.46.796h1.312c.438,0,.763-.022,1.032-.067v.707c-.303-.034-.65-.056-1.043-.056h-1.425v.909h1.268c.426,0,.673-.011.931-.056v.684c-.247-.034-.55-.056-.931-.056h-1.268v.909ZM100.313,70.335h-1.996v.909h1.996v-.909ZM98.317,71.815v.909h1.996v-.909h-1.996ZM98.317,74.294h1.996v-.998h-1.996v.998Z"/><path class="cls-2" d="M109.462,70.705h-2.636c-.459,0-.729.011-1.054.056v-.695c.28.045.55.056,1.076.056h2.613v-.729h-2.344c-.37,0-.673.011-.92.045.034-.258.045-.46.045-.751v-.494c0-.303-.011-.482-.045-.763.292.034.539.045.932.045h2.332v-.74h-3.252c-.516,0-.92.022-1.256.067v-.74c.303.045.628.067,1.278.067h3.229c0-.55-.011-.718-.067-1.009h.819c-.067.28-.079.437-.079,1.009h3.433c.65,0,.986-.022,1.289-.067v.74c-.37-.045-.74-.067-1.267-.067h-3.455v.74h2.58c.393,0,.639-.011.919-.045-.033.28-.044.449-.044.763v.494c0,.314.011.471.044.751-.246-.034-.549-.045-.908-.045h-2.591v.729h2.445c.65,0,.953-.011,1.256-.045-.022.235-.033.449-.033.931v.471c.639,0,.941-.011,1.188-.067v.707c-.28-.044-.595-.056-1.188-.056v.729c0,.549.022.852.067,1.121h-.729v-.46h-3.006v.931c0,.774-.224.931-1.312.931-.235,0-.438-.012-1.065-.045-.022-.281-.067-.426-.191-.707.572.079.965.112,1.392.112.403,0,.504-.056.504-.303v-.92h-2.702c-.517,0-.752.012-1.1.057v-.695c.314.044.538.056,1.077.056h2.725v-.808h-3.364c-.617,0-.92.012-1.223.056v-.707c.27.045.583.067,1.223.067h3.364v-.774ZM106.917,68.025v.83h2.546v-.83h-2.546ZM110.135,68.855h2.781v-.83h-2.781v.83ZM113.141,71.479v-.774h-3.006v.774h3.006ZM110.135,72.87h3.006v-.808h-3.006v.808Z"/><path class="cls-2" d="M117.782,69.539c-.549,0-.852.012-1.2.056v-.695c.314.045.617.056,1.2.056h1.627c-.157-.438-.325-.818-.595-1.267h-1.413c-.561,0-.942.022-1.268.056v-.718c.325.045.673.067,1.245.067h.773c-.224-.392-.482-.729-.919-1.189l.639-.303c.505.606.695.897.998,1.492h.942v-.863c0-.381-.022-.695-.067-.942h.763c-.033.225-.045.482-.045.931v.875h1.188v-.875c0-.415-.011-.718-.044-.931h.762c-.045.236-.066.55-.066.942v.863h1.076c.482-.695.662-1.009.886-1.547l.685.292c-.337.572-.438.707-.841,1.256h.673c.583,0,.941-.022,1.256-.067v.718c-.325-.034-.707-.056-1.268-.056h-1.323c-.27.617-.403.908-.605,1.267h1.593c.583,0,.886-.011,1.211-.056v.695c-.348-.044-.65-.056-1.211-.056h-3.051v.819h2.355c.561,0,.908-.011,1.211-.056v.685c-.337-.045-.65-.057-1.211-.057h-2.355v.864h3.398c.639,0,.976-.022,1.278-.067v.729c-.393-.045-.774-.067-1.268-.067h-2.938c.965.909,2.558,1.604,4.452,1.94-.201.247-.303.393-.437.695-1.458-.438-1.975-.628-2.748-1.054-.673-.37-1.211-.785-1.783-1.368.033.504.045.707.045.953v.751c0,.482.022.83.067,1.167h-.808c.056-.359.067-.707.067-1.178v-.74c0-.258.011-.504.045-.942-1.1,1.144-2.165,1.75-4.217,2.411-.146-.292-.259-.438-.46-.65,1.851-.415,3.05-.987,4.16-1.985h-2.747c-.505,0-.875.022-1.268.067v-.729c.314.044.65.067,1.268.067h3.219v-.864h-2.221c-.55,0-.875.012-1.2.057v-.685c.314.045.662.056,1.2.056h2.221v-.819h-2.928ZM122.111,68.956c.247-.415.393-.729.572-1.267h-3.118c.258.538.348.74.527,1.267h2.019Z"/><path class="cls-2" d="M130.967,72.421c.18.583.337.818.685,1.065.381.269.875.403,1.447.403,1.301,0,2.119-.673,2.119-1.738,0-1.11-.796-1.716-2.288-1.716-.313,0-.594.022-.897.056v-.886c.259.045.527.067.83.067.74,0,1.29-.168,1.638-.516.28-.27.448-.685.448-1.088,0-.965-.673-1.525-1.806-1.525-.684,0-1.177.19-1.491.594-.157.202-.235.381-.358.796l-.932-.202c.191-.572.325-.83.605-1.121.494-.539,1.257-.819,2.232-.819,1.626,0,2.658.852,2.658,2.198,0,.684-.292,1.29-.785,1.637-.292.213-.538.303-1.055.404.65.067.998.191,1.38.482.493.381.751.976.751,1.693,0,1.514-1.166,2.456-3.039,2.456-1.133,0-1.974-.314-2.513-.919-.235-.27-.369-.516-.571-1.088l.941-.235Z"/><path class="cls-2" d="M138.783,74.496c-.707,0-.875.011-1.233.056.123-.886.156-1.055.325-1.48.28-.707.751-1.324,1.458-1.929.393-.336.415-.348,1.716-1.234,1.11-.751,1.48-1.245,1.48-1.929,0-.853-.718-1.402-1.862-1.402-.74,0-1.289.247-1.626.729-.213.303-.314.572-.393,1.133l-.942-.157c.169-.808.337-1.2.707-1.615.505-.572,1.268-.863,2.254-.863,1.693,0,2.781.853,2.781,2.176,0,.572-.224,1.11-.661,1.593-.337.381-.628.594-1.907,1.446-.886.595-1.244.909-1.614,1.38-.348.459-.505.763-.64,1.301h3.578c.561,0,.941-.022,1.368-.079v.942c-.449-.045-.819-.067-1.38-.067h-3.409Z"/><path class="cls-2" d="M149.658,69.651c0-.247-.011-.438-.033-.662.235.022.482.034.796.034h2.434v-1.828h-2.635c-.572.953-1.11,1.615-1.862,2.288-.18-.258-.291-.37-.538-.539,1.11-.942,1.716-1.761,2.243-3.017.146-.325.225-.583.28-.818l.796.224c-.045.09-.078.168-.146.303l-.426.908h5.562c.493,0,.729-.011,1.009-.056v.763c-.28-.045-.549-.056-1.009-.056h-2.535v1.828h2.03c.46,0,.707-.011.998-.056v.74c-.291-.034-.561-.045-.986-.045h-2.042v2.198h2.826c.505,0,.819-.022,1.133-.067v.808c-.325-.045-.673-.067-1.133-.067h-2.826v1.851c0,.482.022.751.079,1.043h-.886c.056-.28.066-.527.066-1.043v-1.851h-4.048c-.46,0-.808.022-1.133.067v-.808c.325.045.639.067,1.133.067h.852v-2.209ZM152.854,71.86v-2.198h-2.467v2.198h2.467Z"/></svg>