<svg id="レイヤー_1" data-name="レイヤー 1" xmlns="http://www.w3.org/2000/svg" viewBox="0 0 208 105"><defs><style>.cls-1{fill:none;}.cls-2{fill:#ae9b51;}.cls-3{fill:#6c6a6a;}</style></defs><rect class="cls-1" width="208" height="105"/><path class="cls-2" d="M45.28,81.22c0,4.39-3.19,8-3.19,8s-3.25-3.55-3.27-7.94,3.18-8,3.18-8,3.26,3.54,3.28,7.94"/><path class="cls-2" d="M30.22,82.93c4.4.32,7.73,3.79,7.73,3.79s-3.8,3-8.2,2.64S22,85.57,22,85.57s3.8-3,8.2-2.64"/><path class="cls-2" d="M19.74,72.18c4.37.56,7.52,4.2,7.52,4.2s-4,2.75-8.33,2.19-7.52-4.19-7.52-4.19,4-2.75,8.33-2.2"/><path class="cls-2" d="M12.66,58.63c4.24,1.2,6.79,5.27,6.79,5.27s-4.32,2.13-8.56.93-6.8-5.28-6.8-5.28,4.33-2.13,8.57-.92"/><path class="cls-2" d="M8.46,43.07c3.71,2.38,5,7,5,7S8.66,50.87,5,48.48s-5-7-5-7,4.75-.77,8.46,1.61"/><path class="cls-2" d="M35.85,74.3c-.62,4.35-4.33,7.43-4.33,7.43s-2.69-4-2.06-8.34S33.79,66,33.79,66s2.69,4,2.06,8.33"/><path class="cls-2" d="M28.22,64c-1,4.28-5,7-5,7s-2.33-4.2-1.33-8.48,5-7,5-7,2.33,4.2,1.33,8.48"/><path class="cls-2" d="M22.44,52.45c-2.12,3.86-6.67,5.43-6.67,5.43s-1.12-4.67,1-8.53,6.68-5.42,6.68-5.42,1.11,4.67-1,8.52"/><path class="cls-2" d="M20,39.51c-2.51,3.62-7.2,4.71-7.2,4.71s-.62-4.76,1.88-8.37,7.21-4.72,7.21-4.72.62,4.77-1.89,8.38"/><path class="cls-2" d="M14.34,29.65c.31,4.38-2.66,8.17-2.66,8.17S8.2,34.49,7.89,30.11s2.66-8.17,2.66-8.17,3.47,3.32,3.79,7.71"/><path class="cls-2" d="M74,103.15,73.61,105c-.59-.13-59.7-12.86-63-68.61l1.9-.12C15.71,90.57,73.41,103,74,103.15Z"/><path class="cls-2" d="M162.72,81.22c0,4.39,3.19,8,3.19,8s3.25-3.55,3.27-7.94-3.18-8-3.18-8-3.26,3.54-3.28,7.94"/><path class="cls-2" d="M177.78,82.93c-4.4.32-7.73,3.79-7.73,3.79s3.8,3,8.2,2.64S186,85.57,186,85.57s-3.8-3-8.2-2.64"/><path class="cls-2" d="M188.26,72.18c-4.37.56-7.52,4.2-7.52,4.2s4,2.75,8.33,2.19,7.52-4.19,7.52-4.19-4-2.75-8.33-2.2"/><path class="cls-2" d="M195.34,58.63c-4.24,1.2-6.79,5.27-6.79,5.27s4.32,2.13,8.56.93,6.8-5.28,6.8-5.28-4.33-2.13-8.57-.92"/><path class="cls-2" d="M199.54,43.07c-3.71,2.38-5,7-5,7s4.76.78,8.46-1.61,5-7,5-7-4.75-.77-8.46,1.61"/><path class="cls-2" d="M172.15,74.3c.62,4.35,4.33,7.43,4.33,7.43s2.69-4,2.06-8.34S174.21,66,174.21,66s-2.69,4-2.06,8.33"/><path class="cls-2" d="M179.78,64c1,4.28,5,7,5,7s2.33-4.2,1.33-8.48-5-7-5-7-2.33,4.2-1.33,8.48"/><path class="cls-2" d="M185.56,52.45c2.12,3.86,6.67,5.43,6.67,5.43s1.12-4.67-1-8.53-6.68-5.42-6.68-5.42-1.11,4.67,1,8.52"/><path class="cls-2" d="M188,39.51c2.51,3.62,7.2,4.71,7.2,4.71s.62-4.76-1.88-8.37-7.21-4.72-7.21-4.72-.62,4.77,1.89,8.38"/><path class="cls-2" d="M193.66,29.65c-.31,4.38,2.66,8.17,2.66,8.17s3.48-3.33,3.79-7.71-2.66-8.17-2.66-8.17-3.47,3.32-3.79,7.71"/><path class="cls-2" d="M134,103.15l.38,1.85c.59-.13,59.7-12.86,63.05-68.61l-1.9-.12C192.29,90.57,134.59,103,134,103.15Z"/><path class="cls-2" d="M60.84,24.62c.87.05,1.57.05,2,.05,6.75,0,9-2.26,9-9.2,0-4.79-1.78-7.16-5.46-7.16-2.65,0-5.29,1.56-5.29,3.17,0,.49.21.76,1.29,1.4a2.64,2.64,0,0,1,1.52,2.48,2.83,2.83,0,0,1-3.14,2.85c-2,0-3.24-1.45-3.24-3.71a6.92,6.92,0,0,1,2.32-4.95c1.95-1.84,4.49-2.7,8-2.7,7.18,0,11.72,3.45,11.72,8.78S76.13,24,68.57,25.37c4,.27,6,.76,8.32,2.05a9.13,9.13,0,0,1,4.81,8.51c0,7-5.73,11.41-14.81,11.41-3.83,0-6.59-.91-8.59-2.8a8.11,8.11,0,0,1-2.59-5.92c0-2.48,1.4-4,3.56-4a3.2,3.2,0,0,1,3.41,3.23c0,1.19-.33,1.78-1.57,2.75s-1.35,1.13-1.35,1.78c0,2,2.65,3.55,6,3.55,5.24,0,8-3.61,8-10.28,0-3.77-.81-5.82-2.91-7.49-1.89-1.45-3.79-1.94-7.57-1.94-.48,0-1.35,0-2.43.06Z"/><path class="cls-2" d="M100.71,47.34c-7.83,0-13.94-8.88-13.94-20.24S92.88,6.85,100.71,6.85s14,8.78,14,20.19S108.6,47.34,100.71,47.34ZM96,42c.75,3,2.48,4.09,4.81,4.09,2.64,0,4.1-1.35,4.86-4.36.65-2.53,1.08-8,1.08-14.65s-.43-12.33-1.14-14.75c-.86-3-2.43-4.09-4.86-4.09-2.65,0-4.1,1.35-4.81,4.09s-1.13,7.81-1.13,14.65S95.31,39.48,96,42Z"/><path class="cls-2" d="M144.34,39.38c1.92-2.88,2.7-3.81,3.22-3.81.7,0,2,.93,3.59,2.55.63.67.89,1,.89,1.44s-.48.78-1.22.78h-12c.07,3.17.22,5.91.22,8.2v.18a1.4,1.4,0,0,1-.78,1.44,6.86,6.86,0,0,1-3.26.7c-1.11,0-1.63-.37-1.63-1.22,0-.18,0-.48,0-.92.11-1.37.22-4.88.22-8.38H121c-.85,0-1.77,0-2.63.11-.66-.82-.7-.89-.7-1a.26.26,0,0,1,.3-.26c.92.07,2.15.15,2.74.15h3.41c0-4.32.07-5.1.07-6.91V31c0-.48,0-1,0-1.84,0-.34,0-.45.38-.45a17.83,17.83,0,0,1,3.59.7,3.28,3.28,0,0,1,1.67.85h3.85c0-1.1,0-1.92,0-2.47,0-1.66,0-3.1-.08-4.65h-5.74a27.11,27.11,0,0,1-6.93,7.46,14.47,14.47,0,0,1-2.86,1.7.25.25,0,0,1-.26-.23c0-.11,0-.22.37-.55,3.12-3.4,5.12-8.49,5.93-15,6.08,1,7.12,1.32,7.12,2.21,0,.52-.37.81-1.52,1.22-.56,1-.93,1.62-1.26,2.18h14.34c.6-.78,1.19-1.52,1.78-2.29s1-1.07,1.37-1.07c1.23,0,4.34,2.69,4.34,3.73,0,.44-.41.63-1.34.63h-9.3a.41.41,0,0,1,0,.22c0,.15-.15.29-.33.4-.52.26-.56.3-.56.74l-.08,5.76h3.23l1.26-1.77c.7-1,1.22-1.48,1.59-1.48a7.92,7.92,0,0,1,2.93,1.81c.82.71,1.19,1.19,1.19,1.59s-.48.78-1.15.78h-9.05l.12,8.2Zm-14.72-8.2a.68.68,0,0,0-.44.51c-.08.26-.11,3.07-.11,6.13,0,.45,0,.74,0,1.56h4.53l0-8.2Z"/><path class="cls-3" d="M80.51,57.18a4.77,4.77,0,0,0,.82.87A8.42,8.42,0,0,0,83,59.18a2.65,2.65,0,0,0-.36.61,8.89,8.89,0,0,1-2.43-2A7.18,7.18,0,0,1,79,59.14a11.07,11.07,0,0,1-1.71,1.38,2,2,0,0,0-.48-.56A9.61,9.61,0,0,0,79,58.19a5.88,5.88,0,0,0,.73-1Zm-2,6.33a8.1,8.1,0,0,1-1.1,3.32,2.38,2.38,0,0,0-.58-.5A8.27,8.27,0,0,0,78,61.42a10,10,0,0,0,0-1.06,8.68,8.68,0,0,0,1.09,0h2.52a6,6,0,0,0,.87,0,7,7,0,0,0,0,.86v1.49a6.44,6.44,0,0,0,0,.84,6.34,6.34,0,0,0-.81,0Zm.7,3.16v.55h-.71a8.22,8.22,0,0,0,.06-.93V65.06c0-.44,0-.62,0-.89a6,6,0,0,0,.85,0h2.36a5.21,5.21,0,0,0,.8,0,5,5,0,0,0-.05.84v1.14a4.83,4.83,0,0,0,.06.91h-.71v-.38Zm-.6-4.48c0,.31,0,.44-.05.77h3.18v-.77Zm3.13-.54V61H78.63v.69ZM79,59.15a3,3,0,0,0,.67.05h1.16a2.94,2.94,0,0,0,.66-.05v.63a3.37,3.37,0,0,0-.61,0H79.68a3.65,3.65,0,0,0-.65,0Zm.2,7h2.6V64.77h-2.6Zm5.16-8.19a6.81,6.81,0,0,0-.07,1.22v4.28a8,8,0,0,0,.06,1.26h-.82a8.5,8.5,0,0,0,.06-1.26V59.14a8.54,8.54,0,0,0-.07-1.22Zm2.39-.73a7.64,7.64,0,0,0-.08,1.36V66c0,.82-.23,1-1.33,1-.26,0-.53,0-1,0a2.17,2.17,0,0,0-.21-.72,8.26,8.26,0,0,0,1.36.12c.4,0,.49-.07.49-.34V58.56a9,9,0,0,0-.08-1.37Z"/><path class="cls-3" d="M90,61.41a9.81,9.81,0,0,0-1.2.05v-.69a9.14,9.14,0,0,0,1.2,0h1.63A6.78,6.78,0,0,0,91,59.56H89.62c-.56,0-1,0-1.27,0v-.72A7.93,7.93,0,0,0,89.6,59h.77a5.72,5.72,0,0,0-.92-1.19l.64-.3a6.59,6.59,0,0,1,1,1.49h1V58.1a5.83,5.83,0,0,0-.07-.94h.76a7,7,0,0,0,0,.93V59h1.19v-.87a7.21,7.21,0,0,0,0-.93h.76a5.64,5.64,0,0,0-.07.94V59h1.08a6.8,6.8,0,0,0,.89-1.54l.69.29A11,11,0,0,1,96.34,59H97a8.07,8.07,0,0,0,1.26-.07v.72c-.33,0-.71,0-1.27,0H95.68a11.69,11.69,0,0,1-.61,1.26h1.6a9.58,9.58,0,0,0,1.22,0v.69a10.07,10.07,0,0,0-1.22-.05H93.61v.81H96a9.58,9.58,0,0,0,1.22,0v.68A9.88,9.88,0,0,0,96,62.8H93.61v.86H97a7.7,7.7,0,0,0,1.28-.07v.73A9.71,9.71,0,0,0,97,64.25h-3a9,9,0,0,0,4.47,1.94,2.52,2.52,0,0,0-.44.7,12.15,12.15,0,0,1-2.76-1.06,7.39,7.39,0,0,1-1.78-1.36c0,.5,0,.7,0,1v.75a7.58,7.58,0,0,0,.07,1.16h-.81a6.8,6.8,0,0,0,.07-1.17v-.74c0-.26,0-.51,0-.94a9,9,0,0,1-4.23,2.41,2.11,2.11,0,0,0-.46-.65,8.53,8.53,0,0,0,4.17-2H89.71a9.5,9.5,0,0,0-1.27.07v-.73a7.8,7.8,0,0,0,1.27.07h3.23V62.8H90.71a9.52,9.52,0,0,0-1.2.05v-.68a9.52,9.52,0,0,0,1.2,0h2.23v-.81Zm4.34-.59a5.65,5.65,0,0,0,.58-1.26H91.79a8.92,8.92,0,0,1,.53,1.26Z"/><path class="cls-3" d="M103.22,64.29a1.7,1.7,0,0,0,.69,1.06,2.48,2.48,0,0,0,1.45.4c1.31,0,2.13-.67,2.13-1.73s-.8-1.72-2.3-1.72a6.8,6.8,0,0,0-.9.06v-.89a4.35,4.35,0,0,0,.83.07,2.25,2.25,0,0,0,1.65-.52,1.52,1.52,0,0,0,.45-1.08c0-1-.68-1.53-1.81-1.53a1.76,1.76,0,0,0-1.5.6,2,2,0,0,0-.36.79l-.93-.2a2.55,2.55,0,0,1,.6-1.12,2.93,2.93,0,0,1,2.24-.82c1.63,0,2.67.85,2.67,2.2a2,2,0,0,1-.79,1.64,2.33,2.33,0,0,1-1.06.4,2.47,2.47,0,0,1,1.39.48,2.06,2.06,0,0,1,.75,1.69c0,1.52-1.17,2.46-3,2.46a3.25,3.25,0,0,1-2.52-.92,3,3,0,0,1-.57-1.09Z"/><path class="cls-3" d="M111.14,61.09a2.89,2.89,0,0,1-.09.51,2.72,2.72,0,0,1,2-.78,2.82,2.82,0,0,1,2,.76,2.61,2.61,0,0,1,.76,2,2.81,2.81,0,0,1-3,3,3,3,0,0,1-2.15-.77,3.46,3.46,0,0,1-.71-1l.93-.27a1.72,1.72,0,0,0,.35.65,2.1,2.1,0,0,0,1.6.66,2,2,0,0,0,2.11-2.14,1.89,1.89,0,0,0-2-2,2.38,2.38,0,0,0-1.48.47,1.42,1.42,0,0,0-.51.68l-.85-.08a8.3,8.3,0,0,0,.17-1.16l.25-2.53c0-.33,0-.46,0-.67s0-.2,0-.48a8.6,8.6,0,0,0,1.19.05H114a7,7,0,0,0,1.31-.09v1a8.51,8.51,0,0,0-1.31-.09h-2.64Z"/><path class="cls-3" d="M122,61.52a4.59,4.59,0,0,0,0-.66c.24,0,.49,0,.8,0h2.44V59.06h-2.64a8.87,8.87,0,0,1-1.87,2.29,1.74,1.74,0,0,0-.54-.54,7.27,7.27,0,0,0,2.25-3,4,4,0,0,0,.28-.82l.8.22-.14.31-.43.9h5.58a6.62,6.62,0,0,0,1,0v.76a5.55,5.55,0,0,0-1-.06h-2.55v1.83h2a5.49,5.49,0,0,0,1-.06v.74a9.09,9.09,0,0,0-1,0h-2v2.2h2.84a8.15,8.15,0,0,0,1.13-.07v.81a7.25,7.25,0,0,0-1.13-.07h-2.84v1.85a5.54,5.54,0,0,0,.08,1h-.88a5.59,5.59,0,0,0,.06-1V64.4h-4.06a7.25,7.25,0,0,0-1.13.07v-.81a8.38,8.38,0,0,0,1.13.07H122Zm3.2,2.21v-2.2H122.7v2.2Z"/><path class="cls-3" d="M53.69,76h-2a8.61,8.61,0,0,0-1.11.06v-.77a6.57,6.57,0,0,0,1.11.07h4.66a6.49,6.49,0,0,0,1.11-.07v.77A8.08,8.08,0,0,0,56.36,76h-2v1.82h2.17a7.51,7.51,0,0,0,1.08-.06v.76a5.63,5.63,0,0,0-1.08-.07H54.39v2.49a10.24,10.24,0,0,0,1.84.12c.91,0,1.68,0,2.63-.11a1.93,1.93,0,0,0-.25.79l-1.36,0a15,15,0,0,1-2.46-.09,4.13,4.13,0,0,1-3.46-2.11,7.35,7.35,0,0,1-1.71,2.54,2.14,2.14,0,0,0-.58-.52,6.15,6.15,0,0,0,1.52-2A7,7,0,0,0,51.24,77v-.11l.79.15c0,.15,0,.15-.13.59-.06.26-.23.91-.31,1.18a3.45,3.45,0,0,0,.89,1.24,3.87,3.87,0,0,0,1.21.68Zm-.16-3.18a4.37,4.37,0,0,0-.07-.7h.88a2.76,2.76,0,0,0-.08.69v.55h3.28c.44,0,.77,0,1.13,0a4.27,4.27,0,0,0-.05.76v.71a4.49,4.49,0,0,0,.05.79h-.74V74H50.08v1.57h-.74a4.49,4.49,0,0,0,0-.79v-.71a4.27,4.27,0,0,0,0-.76c.36,0,.69,0,1.14,0h3.05Z"/><path class="cls-3" d="M61.33,73.24a6.32,6.32,0,0,0-.07-1.06h.79A6.43,6.43,0,0,0,62,73.25v.2h2.07v-.21a7.21,7.21,0,0,0,0-1.06h.77a7.21,7.21,0,0,0-.07,1.07v.2a5.49,5.49,0,0,0,.94-.06v.71a7.09,7.09,0,0,0-.94,0v4.78a6.16,6.16,0,0,0,.89,0v.69c-.26,0-.58,0-1,0H61a4.4,4.4,0,0,0-.92.06v-.72a5.24,5.24,0,0,0,.9,0h.32V74.06h-.07a4.72,4.72,0,0,0-1,.06v-.73a5.41,5.41,0,0,0,1,.06h.07Zm1.16,7a6.45,6.45,0,0,1-1.76,1.94,1.54,1.54,0,0,0-.51-.54,4.45,4.45,0,0,0,1.68-1.75Zm1.57-5V74.06H62v1.16Zm0,1.75V75.8H62V77Zm0,1.87v-1.3H62v1.3Zm-.17,1A4.22,4.22,0,0,0,65,81a2,2,0,0,0-.52.48,5.58,5.58,0,0,1-1.09-1.29Zm2.87-1.28a5.9,5.9,0,0,1-1.32,3.63,1.72,1.72,0,0,0-.55-.51A4.33,4.33,0,0,0,66,79.14a51.25,51.25,0,0,0,.19-5.2,9.83,9.83,0,0,0,0-1.33,7.87,7.87,0,0,0,1.08,0h1.56a7.38,7.38,0,0,0,1.06,0,10.08,10.08,0,0,0,0,1.09v7.55c0,.39-.1.62-.31.73a2.08,2.08,0,0,1-.91.13l-.88,0a3.32,3.32,0,0,0-.18-.79,6.16,6.16,0,0,0,1.23.14c.27,0,.36-.07.36-.25V78.55Zm.1-2.68c0,1.1,0,1.34-.06,2.06h2.32V75.87Zm2.26-2.58H66.87v2h2.25Z"/><path class="cls-3" d="M72.69,77.13c0-.4,0-.75,0-1.38a9.23,9.23,0,0,1-1.12,1.74,2.41,2.41,0,0,0-.45-.62,10.26,10.26,0,0,0,2-3.42,7,7,0,0,0,.42-1.55l.79.2c-.07.17-.07.17-.33,1a14.87,14.87,0,0,1-.64,1.68V80.9c0,.51,0,.93.06,1.31h-.82a12.4,12.4,0,0,0,.07-1.35Zm6.08-3.62v-.43a5.5,5.5,0,0,0-.07-1h.82a7.22,7.22,0,0,0-.06,1v.4h.63a7.25,7.25,0,0,0,1.12-.06v.72a9.68,9.68,0,0,0-1.11,0h-.64v1.53h1a6.6,6.6,0,0,0,1.13-.07v.77a6.6,6.6,0,0,0-1.13-.07H75.17a7.75,7.75,0,0,0-1.15.06v-.74a7.38,7.38,0,0,0,1.13,0H76V74.13h-.48a9.82,9.82,0,0,0-1.1,0v-.72a8.45,8.45,0,0,0,1.12.06H76v-.43a7.15,7.15,0,0,0-.06-1h.82a5.57,5.57,0,0,0-.07,1v.4ZM75,78.06a6.74,6.74,0,0,0,0-.84,8.5,8.5,0,0,0,1,0h3.56a8.28,8.28,0,0,0,1,0,6.83,6.83,0,0,0,0,.88V81a8.3,8.3,0,0,0,.06,1.21h-.75V81.6h-4.1v.62h-.74c0-.32,0-.67,0-1.18Zm.69,1h4.1v-1.2h-4.1Zm0,1.91h4.1V79.7h-4.1Zm3.09-5.34V74.13H76.7v1.53Z"/><path class="cls-3" d="M84.08,73.42A9.79,9.79,0,0,0,84,72.18h.83a10,10,0,0,0-.07,1.25V75.1h.32a4.83,4.83,0,0,0,.9,0v.72a7.89,7.89,0,0,0-.91,0h-.31v3.52c.49-.23.69-.33,1.27-.65l.07.68a21.68,21.68,0,0,1-2.9,1.37l-.45.19-.19-.77a6.48,6.48,0,0,0,1.51-.51V75.73h-.42a4,4,0,0,0-.94.07V75a3.84,3.84,0,0,0,.94.07h.42Zm3.44,7.26c0,.27.06.36.34.43a8.08,8.08,0,0,0,1.81.1c1.58,0,2-.07,2.23-.33a3.14,3.14,0,0,0,.24-1.51,2,2,0,0,0,.72.29c-.13,2.08-.34,2.21-3.26,2.21-2.33,0-2.79-.17-2.79-1V76.72l-.25.07a7.56,7.56,0,0,0-.93.36l-.2-.76a4.3,4.3,0,0,0,1-.22l.41-.14V74.27a7.3,7.3,0,0,0-.07-1.14h.84a8.94,8.94,0,0,0-.06,1.11v1.57l1.61-.54V73.2a7.9,7.9,0,0,0-.07-1h.83a8.31,8.31,0,0,0-.07,1.06v1.84l1.74-.58a9,9,0,0,0,.88-.34c0,1.12-.09,1.9-.18,3s-.22,1.47-.51,1.64a1.6,1.6,0,0,1-.81.15l-.5,0a2.55,2.55,0,0,0-.17-.71,3.94,3.94,0,0,0,.87.1c.26,0,.31,0,.37-.38a21.12,21.12,0,0,0,.18-2.83l-1.87.64V78.8a8.14,8.14,0,0,0,.07,1.08h-.83a8.07,8.07,0,0,0,.07-1.09V75.94l-1.61.54Z"/><path class="cls-3" d="M95.46,73.17A7,7,0,0,0,95.4,72h.79a6.58,6.58,0,0,0-.06,1.14v1h.28a4.81,4.81,0,0,0,.73,0v.69q-.31,0-.69,0h-.29a4.16,4.16,0,0,0,1.3,1.77,2.74,2.74,0,0,0-.42.55,4.81,4.81,0,0,1-1-1.4c0,.62,0,1.27,0,1.8V81a8.32,8.32,0,0,0,.07,1.3h-.81a8.23,8.23,0,0,0,.08-1.3V77.78c0-.46,0-.59,0-1s0-.57.06-1a8.91,8.91,0,0,1-1.5,3.47,2.42,2.42,0,0,0-.46-.59,9.55,9.55,0,0,0,1.75-3.87h-.62a5.21,5.21,0,0,0-.78,0v-.7a5,5,0,0,0,.78,0h.73Zm5.75,6.36h1.28a4.51,4.51,0,0,0,.93-.06v.69a5.05,5.05,0,0,0-.93-.06h-1.28v1h1.47a7.22,7.22,0,0,0,1.15-.06v.72a8.31,8.31,0,0,0-1.16-.07H98.59v.55h-.73a6,6,0,0,0,.08-1.16v-2.5c0-.28,0-.6,0-.89a6.3,6.3,0,0,1-.92.85,1.51,1.51,0,0,0-.45-.48A8.42,8.42,0,0,0,99,75.37h-.65a4.33,4.33,0,0,0-.95.07v-.73a5.76,5.76,0,0,0,1,.06h1a6.62,6.62,0,0,0,.44-1.09H98.59a8.75,8.75,0,0,1-.77.94c-.11-.16-.2-.22-.53-.4a4.6,4.6,0,0,0,1.1-1.41,3.17,3.17,0,0,0,.34-.81l.66.21a8.48,8.48,0,0,1-.43.85h3.37a7.28,7.28,0,0,0,1.21-.07v.74a10.18,10.18,0,0,0-1.22,0h-1.85c-.18.49-.26.69-.44,1.09h2.69a7.83,7.83,0,0,0,1.15-.07v.74a7,7,0,0,0-1.15-.07h-3a8,8,0,0,1-.8,1.19h1.75a4.06,4.06,0,0,0,.51-1l.62.22a5.68,5.68,0,0,1-.46.8h1.31a5.84,5.84,0,0,0,1-.07v.71a8,8,0,0,0-1-.06h-1.43v.91h1.28a4.74,4.74,0,0,0,.93-.06v.69a5.94,5.94,0,0,0-.93-.06h-1.28Zm-.61-2.39h-2v.91h2Zm-2,1.48v.91h2v-.91Zm0,2.48h2v-1h-2Z"/><path class="cls-3" d="M109.77,77.51h-2.64a6.52,6.52,0,0,0-1.06.06v-.7a6,6,0,0,0,1.08.06h2.62V76.2h-2.35a8,8,0,0,0-.92,0,5.76,5.76,0,0,0,0-.75V75a6.23,6.23,0,0,0,0-.76,8.38,8.38,0,0,0,.93,0h2.34v-.74h-3.26a10.52,10.52,0,0,0-1.26.07v-.74a7.62,7.62,0,0,0,1.28.07h3.24a4.25,4.25,0,0,0-.07-1h.82a4.1,4.1,0,0,0-.07,1h3.44a7.76,7.76,0,0,0,1.29-.07v.74a11,11,0,0,0-1.27-.07h-3.46v.74H113a8,8,0,0,0,.92,0,6.12,6.12,0,0,0,0,.76v.49a5.86,5.86,0,0,0,0,.75,7.78,7.78,0,0,0-.91,0h-2.59v.73h2.45a9.53,9.53,0,0,0,1.26-.05,6.91,6.91,0,0,0,0,.93v.47a6.54,6.54,0,0,0,1.2-.06v.7a8.77,8.77,0,0,0-1.2,0v.73a7.17,7.17,0,0,0,.07,1.12h-.73v-.46h-3v.93c0,.77-.23.93-1.32.93-.24,0-.44,0-1.07-.05a1.83,1.83,0,0,0-.19-.7,11.12,11.12,0,0,0,1.4.11c.4,0,.5-.06.5-.3v-.92h-2.71a8.38,8.38,0,0,0-1.1,0v-.69a7.52,7.52,0,0,0,1.08,0h2.73v-.8H106.4a9.19,9.19,0,0,0-1.23,0v-.7a8.29,8.29,0,0,0,1.23.06h3.37Zm-2.55-2.68v.83h2.55v-.83Zm3.23.83h2.78v-.83h-2.78Zm3,2.62v-.77h-3v.77Zm-3,1.39h3v-.8h-3Z"/><path class="cls-3" d="M118.11,76.35a9.81,9.81,0,0,0-1.2.05v-.69a9.14,9.14,0,0,0,1.2.05h1.63a6.19,6.19,0,0,0-.59-1.26h-1.42c-.56,0-.94,0-1.27,0v-.72a8,8,0,0,0,1.25.07h.77a5.72,5.72,0,0,0-.92-1.19l.64-.3a6.59,6.59,0,0,1,1,1.49h1V73a4.87,4.87,0,0,0-.07-.94h.77a5.35,5.35,0,0,0,0,.93v.87H122V73a7.21,7.21,0,0,0,0-.93h.76a5.82,5.82,0,0,0-.06.94v.86h1.08a7.1,7.1,0,0,0,.88-1.54l.69.29a12.41,12.41,0,0,1-.84,1.25h.67a7.9,7.9,0,0,0,1.26-.07v.72c-.32,0-.71,0-1.27,0h-1.33c-.27.61-.4.9-.6,1.26h1.59a9.58,9.58,0,0,0,1.22-.05v.69a10,10,0,0,0-1.22-.05h-3.06v.81h2.37a9.41,9.41,0,0,0,1.21,0v.68a9.79,9.79,0,0,0-1.21-.05h-2.37v.86h3.41a7.7,7.7,0,0,0,1.28-.07v.73a9.61,9.61,0,0,0-1.27-.07H122.2a8.87,8.87,0,0,0,4.46,1.94,2.77,2.77,0,0,0-.44.7,11.84,11.84,0,0,1-2.75-1.06,7.25,7.25,0,0,1-1.79-1.36c0,.5,0,.7,0,1v.75a9.12,9.12,0,0,0,.07,1.16H121a6.8,6.8,0,0,0,.07-1.17v-.74c0-.26,0-.51,0-.94a9,9,0,0,1-4.22,2.41,2.13,2.13,0,0,0-.47-.65,8.61,8.61,0,0,0,4.18-2h-2.76a9.5,9.5,0,0,0-1.27.07v-.73a7.88,7.88,0,0,0,1.27.07h3.23v-.86h-2.23a9.52,9.52,0,0,0-1.2.05v-.68a9.52,9.52,0,0,0,1.2,0h2.23v-.81Zm4.34-.59A5.65,5.65,0,0,0,123,74.5H119.9a8.92,8.92,0,0,1,.53,1.26Z"/><path class="cls-3" d="M131.34,79.23a1.69,1.69,0,0,0,.68,1.06,2.48,2.48,0,0,0,1.45.4c1.31,0,2.13-.67,2.13-1.73s-.8-1.72-2.3-1.72a6.8,6.8,0,0,0-.9.06v-.89a4.39,4.39,0,0,0,.84.07,2.24,2.24,0,0,0,1.64-.52,1.52,1.52,0,0,0,.45-1.08c0-1-.68-1.53-1.81-1.53a1.76,1.76,0,0,0-1.5.6,2.17,2.17,0,0,0-.36.79l-.93-.2a2.45,2.45,0,0,1,.61-1.12,2.91,2.91,0,0,1,2.23-.82c1.64,0,2.67.85,2.67,2.2a2,2,0,0,1-.79,1.64,2.33,2.33,0,0,1-1,.4,2.44,2.44,0,0,1,1.38.48,2.06,2.06,0,0,1,.75,1.69c0,1.52-1.17,2.46-3.05,2.46a3.26,3.26,0,0,1-2.52-.92,3,3,0,0,1-.57-1.09Z"/><path class="cls-3" d="M138.9,80.67a2.74,2.74,0,0,1-.67-1,7.73,7.73,0,0,1-.43-2.59,6.58,6.58,0,0,1,.65-3,2.94,2.94,0,0,1,5.26.45,7.71,7.71,0,0,1,.42,2.6,5.86,5.86,0,0,1-.78,3.24A2.76,2.76,0,0,1,141,81.47,2.81,2.81,0,0,1,138.9,80.67Zm.66-6.7a2.27,2.27,0,0,0-.51.82,6.78,6.78,0,0,0-.35,2.26,6.26,6.26,0,0,0,.53,2.67,2.07,2.07,0,0,0,3.13.45,2.26,2.26,0,0,0,.52-.88,6.78,6.78,0,0,0,.35-2.26,6.33,6.33,0,0,0-.5-2.61,1.91,1.91,0,0,0-1.77-1A1.83,1.83,0,0,0,139.56,74Z"/><path class="cls-3" d="M150.08,76.46c0-.25,0-.44,0-.66.23,0,.48,0,.79,0h2.44V74h-2.64a8.87,8.87,0,0,1-1.87,2.29,1.74,1.74,0,0,0-.54-.54,7.19,7.19,0,0,0,2.25-3,4.85,4.85,0,0,0,.29-.82l.79.22c0,.09-.07.17-.14.31l-.43.9h5.58a6.62,6.62,0,0,0,1,0v.76a5.55,5.55,0,0,0-1-.06H154v1.83h2a5.49,5.49,0,0,0,1-.06v.74a9.09,9.09,0,0,0-1,0h-2v2.2h2.83A8.31,8.31,0,0,0,158,78.6v.81a7.47,7.47,0,0,0-1.14-.07H154v1.85a4.8,4.8,0,0,0,.08,1h-.89a5.59,5.59,0,0,0,.06-1V79.34h-4.06a7.25,7.25,0,0,0-1.13.07V78.6a8.38,8.38,0,0,0,1.13.07h.86Zm3.2,2.21v-2.2h-2.47v2.2Z"/></svg>