<?xml version="1.0" encoding="UTF-8"?><svg id="_レイヤー_2" xmlns="http://www.w3.org/2000/svg" viewBox="0 0 207.416 97.574"><defs><style>.cls-1{fill:#595757;}.cls-2{fill:#004ea3;}</style></defs><g id="_レイヤー_1-2"><path class="cls-2" d="M39.956,3.286l-4.539.108v-1.455c6.261,0,7.942-.754,9.749-1.939l.63.485c-.084,1.67-.168,3.34-.168,4.957v33.243l4.539.054v1.401h-14.75v-1.401l4.539-.054V3.286Z"/><path class="cls-2" d="M58.025,46.066c2.605-1.401,3.74-3.018,3.992-5.657-.462.323-.967.484-1.471.484-1.723,0-2.899-1.616-2.899-3.879,0-2.425,1.303-4.203,3.152-4.203,2.017,0,3.278,2.047,3.278,5.28,0,4.095-2.144,7.543-5.631,9.105l-.42-1.131Z"/><path class="cls-2" d="M68.909,35.937c3.362-3.664,6.724-7.705,9.035-10.83,3.53-4.741,5-8.836,5-13.793,0-5.334-2.311-8.729-5.967-8.729-2.773,0-5.505,2.91-5.505,5.873,0,.916.378,1.347,1.387,1.455,2.143.269,3.068,1.293,3.068,3.179,0,1.94-1.177,3.34-2.858,3.34-2.017,0-3.404-2.155-3.404-5.334,0-2.263.672-4.688,1.807-6.573,1.765-2.801,4.497-4.31,7.942-4.31,5.673,0,9.539,4.256,9.539,10.506,0,2.694-.672,5.172-2.059,7.381-1.555,2.479-2.899,3.879-7.816,8.729-2.311,2.263-4.454,4.795-6.471,7.22h12.648c1.261,0,2.017-.754,2.312-2.263.21-.97.294-2.101.42-4.418h1.219l-.546,12.77h-19.751v-4.203Z"/><path class="cls-2" d="M104.124,40.732c-6.094,0-10.842-8.89-10.842-20.259S98.03.215,104.124.215c6.135,0,10.884,8.782,10.884,20.205s-4.749,20.312-10.884,20.312ZM100.425,35.344c.588,3.017,1.933,4.095,3.74,4.095,2.059,0,3.193-1.347,3.782-4.364.504-2.533.84-8.028.84-14.655,0-6.735-.336-12.338-.882-14.763-.673-3.018-1.892-4.095-3.782-4.095-2.06,0-3.194,1.347-3.74,4.095-.546,2.802-.882,7.812-.882,14.655,0,6.896.42,12.554.924,15.032Z"/><path class="cls-2" d="M129,40.732c-6.093,0-10.842-8.89-10.842-20.259S122.908.215,129,.215c6.136,0,10.884,8.782,10.884,20.205s-4.748,20.312-10.884,20.312ZM125.303,35.344c.588,3.017,1.933,4.095,3.739,4.095,2.06,0,3.194-1.347,3.782-4.364.504-2.533.841-8.028.841-14.655,0-6.735-.337-12.338-.883-14.763-.672-3.018-1.891-4.095-3.782-4.095-2.059,0-3.193,1.347-3.74,4.095-.546,2.802-.882,7.812-.882,14.655,0,6.896.42,12.554.925,15.032Z"/><path class="cls-2" d="M152.215,25.073c3.363.554,4.693,1.515,4.693,3.4,0,1.368-.998,2.365-2.365,2.365-1.108,0-1.479-.517-1.479-1.996v-.406c0-1.479-.222-2.033-.887-2.809.074,2.254.259,15.226.259,16.372,0,.554-.185.924-.518,1.183-.628.48-1.515.739-2.365.739-1.183,0-1.626-.332-1.626-1.219,0-.333.074-1.183.074-1.663.11-3.067.259-7.022.332-10.533-1.108,1.774-2.032,3.03-3.252,4.176-.665.628-1.071.998-1.367,1.219-.147.111-.37.222-.443.222-.074,0-.111-.11-.111-.185,0-.074.074-.185.259-.48,2.033-2.957,4.028-9.831,4.583-15.744h-1.885c-.629,0-1.331.037-1.959.111-.48-.665-.518-.739-.518-.813,0-.148.111-.258.296-.258.48.037,1.108.074,1.404.074h2.846v-1.737c0-.813-.037-3.585-.074-6.542,0-.259.037-.333.186-.333.11,0,.702.074,1.071.11,2.846.259,3.991.666,3.991,1.331,0,.369-.147.554-1.108,1.108-.037,1.072-.074,4.324-.074,6.061h.48c.296-.444.443-.702.961-1.515.259-.444.592-.702.887-.702.592,0,2.144,1.811,2.144,2.513,0,.37-.259.628-.665.628h-3.807l.037,5.322ZM168.625,29.804c.702,2.144,1.552,3.585,3.511,5.285,1.589,1.405,3.844,2.772,5.691,3.548.812.333,1.108.444,1.108.591,0,.074-.037.111-.296.222-1.367.628-2.365,1.885-3.067,3.104-.222.37-.518.555-.812.555-1.146,0-3.363-2.107-4.472-4.324-1.072-2.217-1.663-4.693-2.107-8.98h-.222c.222,5.765.333,9.424.333,11.346v.48c0,.924-.037,1.146-.406,1.515-.443.48-1.59.813-2.846.813-1.035,0-1.479-.295-1.479-1.072v-.333c0-.628.111-3.695.259-6.431-1.848,2.477-4.14,4.25-7.317,5.766-1.331.628-3.326,1.293-3.732,1.293-.148,0-.259-.037-.259-.148s.073-.185.443-.37c1.108-.517,2.697-1.7,3.844-2.846,2.919-2.882,4.952-5.95,6.615-10.015h-2.255v.443c0,.85-1.257,1.516-2.809,1.516-.776,0-1.146-.259-1.146-.924l.147-5.433v-3.732c0-1.774-.037-2.735-.037-3.326,0-.185.037-.222.186-.222.554,0,1.995.295,2.956.628.628.222.813.369,1.146.739h2.255l-.037-3.696h-3.881c-1.404,0-2.846.037-4.25.148-.665-.739-.702-.813-.702-.887,0-.147.111-.258.296-.258,1.22.074,2.809.148,3.585.148h4.952c-.037-1.626-.074-4.103-.074-4.509,0-.333,0-.407.185-.407.074,0,.739.037,1.627.111,1.293.111,2.291.296,2.846.48.406.148.702.443.702.739,0,.333-.259.591-1.072,1.072v2.513h3.77c1.7-2.365,2.181-2.883,2.698-2.883.924,0,3.289,2.254,3.289,3.142,0,.332-.333.591-.776.591h-9.018v3.696h2.735c1.183-1.626,1.293-1.737,1.773-1.737.518,0,1.553.628,2.771,1.663.776.665,1.035.998,1.035,1.367,0,.185-.147.48-.998,1.146,0,.998.074,3.179.186,6.542.036.628.036,1.072.036,1.256,0,.592-.147.887-.554,1.183-.665.444-1.553.702-2.439.702-.739,0-1.257-.185-1.479-.48-.073-.111-.147-.813-.147-1.331h-2.291ZM163.857,20.343h-2.292c-.258.222-.406.443-.406.628v3.326h2.735l-.037-3.954ZM161.159,25.11v3.917h2.698l.037-3.917h-2.735ZM170.916,20.823c0-.37-.111-.48-.518-.48h-2.402v3.954h2.957l-.037-3.474ZM167.996,25.11v3.917h2.957v-3.917h-2.957Z"/><path class="cls-2" d="M45.156,73.775c.023,4.398-3.181,7.982-3.181,7.982,0,0-3.243-3.551-3.268-7.947-.025-4.398,3.18-7.98,3.18-7.98,0,0,3.247,3.545,3.269,7.945"/><path class="cls-2" d="M30.137,75.49c4.387.319,7.708,3.794,7.708,3.794,0,0-3.789,2.957-8.174,2.636-4.387-.32-7.711-3.79-7.711-3.79,0,0,3.789-2.959,8.177-2.64"/><path class="cls-2" d="M19.688,64.736c4.359.553,7.493,4.198,7.493,4.198,0,0-3.948,2.75-8.308,2.196-4.364-.555-7.497-4.201-7.497-4.201,0,0,3.948-2.749,8.312-2.194"/><path class="cls-2" d="M12.622,51.172c4.229,1.205,6.776,5.279,6.776,5.279,0,0-4.312,2.124-8.54.922-4.23-1.205-6.777-5.281-6.777-5.281,0,0,4.312-2.126,8.541-.92"/><path class="cls-2" d="M8.437,35.6c3.7,2.386,4.948,7.025,4.948,7.025,0,0-4.746.777-8.439-1.606-3.696-2.388-4.946-7.029-4.946-7.029,0,0,4.742-.774,8.437,1.61"/><path class="cls-2" d="M35.752,66.858c-.624,4.352-4.321,7.425-4.321,7.425,0,0-2.687-3.99-2.058-8.342.621-4.353,4.322-7.428,4.322-7.428,0,0,2.683,3.99,2.057,8.345"/><path class="cls-2" d="M28.139,56.569c-1,4.283-4.952,7.023-4.952,7.023,0,0-2.329-4.206-1.325-8.487.998-4.283,4.949-7.023,4.949-7.023,0,0,2.327,4.206,1.328,8.487"/><path class="cls-2" d="M22.376,44.989c-2.114,3.857-6.653,5.431-6.653,5.431,0,0-1.115-4.674,1.001-8.531,2.116-3.856,6.656-5.431,6.656-5.431,0,0,1.109,4.677-1.004,8.531"/><path class="cls-2" d="M19.903,32.04c-2.501,3.618-7.182,4.715-7.182,4.715,0,0-.62-4.765,1.881-8.381,2.503-3.619,7.181-4.717,7.181-4.717,0,0,.623,4.768-1.881,8.383"/><path class="cls-2" d="M14.299,22.172c.311,4.388-2.655,8.174-2.655,8.174,0,0-3.466-3.33-3.777-7.716-.31-4.388,2.655-8.172,2.655-8.172,0,0,3.463,3.326,3.777,7.714"/><path class="cls-2" d="M73.785,95.72l-.378,1.854c-.596-.126-59.54-12.871-62.872-68.658l1.886-.116c3.243,54.33,60.784,66.804,61.364,66.921Z"/><path class="cls-2" d="M162.26,73.775c-.022,4.398,3.181,7.982,3.181,7.982,0,0,3.244-3.551,3.268-7.947.025-4.398-3.18-7.98-3.18-7.98,0,0-3.246,3.545-3.269,7.945"/><path class="cls-2" d="M177.279,75.49c-4.387.319-7.708,3.794-7.708,3.794,0,0,3.789,2.957,8.174,2.636,4.387-.32,7.711-3.79,7.711-3.79,0,0-3.789-2.959-8.177-2.64"/><path class="cls-2" d="M187.728,64.736c-4.359.553-7.492,4.198-7.492,4.198,0,0,3.948,2.75,8.308,2.196,4.364-.555,7.497-4.201,7.497-4.201,0,0-3.948-2.749-8.312-2.194"/><path class="cls-2" d="M194.794,51.172c-4.229,1.205-6.776,5.279-6.776,5.279,0,0,4.312,2.124,8.54.922,4.23-1.205,6.777-5.281,6.777-5.281,0,0-4.312-2.126-8.541-.92"/><path class="cls-2" d="M198.98,35.6c-3.699,2.386-4.948,7.025-4.948,7.025,0,0,4.746.777,8.438-1.606,3.696-2.388,4.946-7.029,4.946-7.029,0,0-4.741-.774-8.436,1.61"/><path class="cls-2" d="M171.664,66.858c.624,4.352,4.321,7.425,4.321,7.425,0,0,2.687-3.99,2.058-8.342-.621-4.353-4.322-7.428-4.322-7.428,0,0-2.683,3.99-2.057,8.345"/><path class="cls-2" d="M179.277,56.569c1,4.283,4.952,7.023,4.952,7.023,0,0,2.329-4.206,1.325-8.487-.998-4.283-4.949-7.023-4.949-7.023,0,0-2.327,4.206-1.328,8.487"/><path class="cls-2" d="M185.04,44.989c2.114,3.857,6.653,5.431,6.653,5.431,0,0,1.116-4.674-1.001-8.531-2.115-3.856-6.656-5.431-6.656-5.431,0,0-1.109,4.677,1.004,8.531"/><path class="cls-2" d="M187.513,32.04c2.501,3.618,7.182,4.715,7.182,4.715,0,0,.62-4.765-1.882-8.381-2.502-3.619-7.181-4.717-7.181-4.717,0,0-.624,4.768,1.88,8.383"/><path class="cls-2" d="M193.117,22.172c-.311,4.388,2.655,8.174,2.655,8.174,0,0,3.466-3.33,3.778-7.716.309-4.388-2.655-8.172-2.655-8.172,0,0-3.463,3.326-3.778,7.714"/><path class="cls-2" d="M133.631,95.72l.379,1.854c.596-.126,59.54-12.871,62.871-68.658l-1.886-.116c-3.243,54.33-60.784,66.804-61.364,66.921Z"/><path class="cls-1" d="M65.734,55.594h-1.985c-.482,0-.774.022-1.11.067v-.774c.303.045.617.067,1.11.067h4.643c.493,0,.808-.022,1.11-.067v.774c-.314-.045-.617-.067-1.11-.067h-1.963v1.828h2.165c.482,0,.785-.022,1.077-.067v.763c-.325-.056-.617-.067-1.077-.067h-2.165v2.49c.494.089,1.032.123,1.828.123.909,0,1.682-.034,2.625-.112-.146.281-.202.46-.247.785-.976.022-1.055.022-1.357.022-1.66,0-1.884-.011-2.456-.09-1.75-.247-2.849-.919-3.443-2.108-.46,1.065-.864,1.66-1.705,2.546-.19-.235-.269-.314-.583-.527.774-.729,1.133-1.2,1.514-1.997.381-.785.684-1.918.684-2.557v-.112l.785.157q-.034.146-.135.583c-.056.269-.224.919-.303,1.188.292.605.494.875.886,1.234.325.28.695.494,1.211.684v-4.767ZM65.566,52.42c0-.258-.022-.438-.067-.707h.875c-.056.247-.078.449-.078.695v.549h3.274c.438,0,.763-.011,1.122-.044-.034.235-.044.449-.044.762v.707c0,.336.011.561.044.796h-.729v-1.57h-7.828v1.57h-.74c.034-.247.045-.448.045-.796v-.707c0-.291-.011-.549-.045-.762.359.034.684.044,1.133.044h3.04v-.538Z"/><path class="cls-1" d="M73.347,52.846c0-.449-.022-.751-.067-1.065h.785c-.045.292-.056.628-.056,1.077v.202h2.064v-.213c0-.505-.011-.796-.056-1.065h.774c-.045.28-.067.605-.067,1.077v.202c.404,0,.729-.022.931-.067v.718c-.235-.034-.459-.045-.931-.045v4.789c.404,0,.684-.022.886-.056v.695c-.258-.022-.583-.033-1.021-.033h-3.544c-.449,0-.662.011-.908.056v-.718c.224.045.471.056.897.056h.314v-4.789h-.067c-.459,0-.751.011-.964.056v-.729c.202.045.494.067.964.067h.067v-.213ZM74.502,59.8c-.549.875-.886,1.256-1.75,1.94-.146-.235-.258-.359-.516-.539.841-.549,1.268-.998,1.683-1.749l.583.348ZM76.072,54.831v-1.166h-2.064v1.166h2.064ZM76.072,56.581v-1.178h-2.064v1.178h2.064ZM76.072,58.454v-1.301h-2.064v1.301h2.064ZM75.904,59.44c.359.527.583.763,1.099,1.155-.224.157-.325.258-.516.482-.482-.449-.74-.74-1.088-1.29l.505-.348ZM78.764,58.162c-.146,1.648-.46,2.523-1.312,3.634-.269-.325-.28-.336-.55-.516.673-.785.942-1.402,1.11-2.535.112-.818.191-2.804.191-5.204,0-.751-.011-1.009-.045-1.323.314.034.561.044,1.077.044h1.548c.516,0,.762-.011,1.065-.044-.034.258-.045.594-.045,1.087v7.56c0,.381-.101.617-.303.729-.135.079-.449.124-.909.124-.157,0-.28-.011-.886-.045-.033-.325-.067-.459-.179-.796.617.112.875.146,1.234.146.269,0,.359-.067.359-.247v-2.613h-2.355ZM78.865,55.481c-.022,1.1-.022,1.335-.067,2.053h2.322v-2.053h-2.254ZM81.119,52.891h-2.243v1.962h2.243v-1.962Z"/><path class="cls-1" d="M84.671,56.738c0-.404.011-.751.045-1.379-.46.863-.684,1.211-1.122,1.738-.146-.269-.247-.415-.449-.617.83-.92,1.48-2.052,1.974-3.421.258-.695.348-1.021.426-1.559l.785.202q-.067.168-.325.965c-.202.639-.37,1.054-.639,1.682v6.157c0,.516.022.931.056,1.312h-.819c.045-.404.067-.763.067-1.346v-3.735ZM90.739,53.115v-.426c0-.415-.022-.74-.067-1.009h.819c-.045.28-.067.605-.067,1.032v.404h.628c.471,0,.796-.011,1.122-.056v.718c-.258-.034-.549-.044-1.11-.044h-.639v1.536h.998c.482,0,.875-.022,1.133-.067v.763c-.258-.045-.65-.067-1.133-.067h-5.271c-.482,0-.796.012-1.144.056v-.74c.247.045.539.056,1.122.056h.864v-1.536h-.482c-.516,0-.853.011-1.099.044v-.718c.303.034.65.056,1.122.056h.46v-.426c0-.415-.022-.707-.067-1.009h.819c-.045.27-.067.583-.067,1.032v.404h2.063ZM86.97,57.669c0-.348-.011-.595-.044-.841.269.034.527.045.998.045h3.555c.494,0,.729-.011.998-.045-.034.235-.045.494-.045.886v2.905c0,.527.011.864.056,1.211h-.74v-.617h-4.093v.617h-.74c.034-.314.056-.673.056-1.178v-2.983ZM87.655,58.7h4.093v-1.2h-4.093v1.2ZM87.655,60.607h4.093v-1.301h-4.093v1.301ZM90.739,55.269v-1.536h-2.063v1.536h2.063Z"/><path class="cls-1" d="M96.03,53.025c0-.527-.022-.919-.067-1.245h.83c-.044.359-.067.695-.067,1.256v1.671h.314c.471,0,.684-.011.897-.056v.729c-.28-.034-.516-.045-.908-.045h-.303v3.521c.482-.224.684-.325,1.267-.65l.067.684c-1.088.606-1.626.853-2.894,1.368-.157.056-.325.135-.449.191l-.19-.774c.404-.067.695-.168,1.503-.505v-3.835h-.415c-.471,0-.651.011-.942.067v-.763c.258.056.482.067.942.067h.415v-1.683ZM99.461,60.293c0,.27.067.359.336.426.269.079.774.101,1.806.101,1.582,0,2.052-.067,2.232-.325.146-.202.225-.718.235-1.514.258.157.393.213.718.292-.135,2.075-.336,2.209-3.252,2.209-2.321,0-2.781-.168-2.781-1.043v-4.116l-.247.079c-.628.213-.673.235-.931.359l-.202-.763c.314-.034.617-.101.976-.224l.404-.135v-1.761c0-.471-.022-.819-.067-1.144h.841c-.045.336-.067.662-.067,1.11v1.57l1.604-.539v-2.075c0-.438-.022-.707-.067-1.043h.83c-.045.325-.067.65-.067,1.054v1.839l1.727-.572c.348-.112.583-.213.886-.348-.045,1.121-.09,1.906-.18,3.005-.078.998-.224,1.469-.516,1.637-.202.112-.415.157-.808.157-.101,0-.235-.011-.493-.034-.034-.292-.078-.471-.168-.707.303.067.594.101.863.101.258,0,.314-.056.37-.381.078-.415.135-1.245.18-2.837l-1.862.639v3.096c0,.448.022.751.067,1.076h-.83c.045-.314.067-.628.067-1.088v-2.849l-1.604.539v4.206Z"/><path class="cls-1" d="M107.376,52.779c0-.639-.011-.886-.056-1.155h.785c-.045.281-.057.595-.057,1.144v1.032h.28c.325,0,.517-.011.729-.044v.695c-.213-.022-.438-.034-.695-.034h-.28c.258.695.661,1.245,1.289,1.772-.179.19-.258.292-.415.549-.448-.482-.661-.796-.953-1.402.022.617.045,1.268.045,1.806v3.421c0,.594.022.998.067,1.301h-.808c.057-.336.079-.695.079-1.301v-3.174c0-.459,0-.594.033-.987.033-.438.045-.572.056-.998-.393,1.604-.763,2.467-1.491,3.477-.157-.258-.28-.426-.46-.594.808-1.009,1.368-2.266,1.75-3.87h-.628c-.325,0-.606.012-.774.045v-.706c.19.033.404.044.774.044h.729v-1.021ZM113.119,59.138h1.268c.438,0,.706-.011.931-.056v.684c-.27-.044-.55-.056-.931-.056h-1.268v.998h1.458c.527,0,.818-.011,1.155-.056v.718c-.359-.045-.729-.067-1.166-.067h-4.061v.55h-.729c.056-.325.078-.628.078-1.167v-2.501c0-.28.012-.594.034-.886-.304.336-.517.538-.909.852-.101-.179-.213-.292-.448-.482.976-.695,1.728-1.548,2.411-2.692h-.65c-.415,0-.662.011-.942.067v-.729c.247.045.505.056.953.056h.965c.19-.381.258-.539.438-1.088h-1.2c-.224.325-.381.504-.773.942-.112-.157-.202-.224-.527-.404.505-.459.773-.796,1.099-1.402.135-.235.214-.426.337-.818l.662.213c-.157.348-.236.505-.427.853h3.354c.583,0,.897-.022,1.211-.067v.74c-.358-.045-.661-.056-1.222-.056h-1.84c-.18.493-.258.695-.438,1.088h2.681c.493,0,.897-.022,1.144-.067v.74c-.269-.045-.673-.067-1.144-.067h-2.994c-.258.471-.404.684-.797,1.189h1.75c.225-.325.358-.606.505-1.021l.616.224c-.18.37-.28.527-.46.796h1.312c.438,0,.763-.022,1.032-.067v.707c-.303-.034-.65-.056-1.043-.056h-1.425v.908h1.268c.426,0,.673-.011.931-.056v.684c-.247-.034-.55-.056-.931-.056h-1.268v.908ZM112.501,56.749h-1.996v.908h1.996v-.908ZM110.505,58.229v.908h1.996v-.908h-1.996ZM110.505,60.708h1.996v-.998h-1.996v.998Z"/><path class="cls-1" d="M119.408,60.461c0,.516.022.942.057,1.334h-.841c.044-.404.066-.774.066-1.357v-3.746c0-.494.012-.841.045-1.357-.459.774-.718,1.122-1.256,1.727l-.078-.124q-.146-.235-.415-.493c.998-1.054,1.638-2.019,2.254-3.421.292-.662.438-1.088.493-1.436l.808.258c-.078.134-.134.269-.28.639-.157.393-.516,1.167-.853,1.806v6.168ZM125.475,60.596c0,.74-.235.92-1.244.92-.438,0-.864-.022-1.357-.067-.045-.314-.09-.482-.213-.763.684.101,1.021.135,1.536.135.46,0,.561-.056.561-.292v-5.54h-3.521c-.471,0-.908.022-1.199.067v-.785c.291.045.706.067,1.166.067h3.555v-1.29c0-.527-.022-.987-.078-1.312h.863c-.045.381-.067.763-.067,1.312v1.29h.55c.449,0,.774-.022,1.065-.067v.763c-.348-.034-.706-.045-1.065-.045h-.55v5.607ZM121.36,55.986c.818.897,1.244,1.469,1.896,2.535l-.629.482c-.571-1.077-1.11-1.817-1.85-2.613l.583-.404Z"/><path class="cls-1" d="M129.522,56.76c0-.504.022-.953.056-1.469-.438.751-.673,1.099-1.199,1.705-.045-.202-.146-.359-.404-.639.92-.953,1.581-1.985,2.108-3.241.235-.583.415-1.144.472-1.503l.739.236c-.403,1.088-.493,1.301-1.054,2.467v6.09c0,.505.022.897.078,1.312h-.874c.056-.393.078-.718.078-1.346v-3.611ZM132.393,54.697c-.426,0-.841.022-1.178.056v-.785c.292.045.662.067,1.178.067h4.43c.494,0,.887-.022,1.189-.067v.785c-.325-.034-.752-.056-1.178-.056h-1.996v2.366h1.659c.46,0,.864-.022,1.167-.067v.763c-.337-.034-.752-.056-1.155-.056h-1.671v2.905h2.321c.493,0,.931-.022,1.223-.067v.773c-.337-.033-.763-.056-1.223-.056h-5.227c-.471,0-.897.022-1.233.056v-.773c.303.044.718.067,1.211.067h2.198v-2.905h-1.391c-.415,0-.818.022-1.166.056v-.763c.303.045.695.067,1.155.067h1.401v-2.366h-1.716ZM133.414,51.691c.92.482,1.425.796,2.254,1.424l-.526.572c-.685-.617-1.155-.931-2.221-1.492l.493-.505Z"/><path class="cls-1" d="M143.438,55.829c-1.346.258-1.738.326-3.051.516-.112-.303-.202-.494-.348-.684,2.288-.224,4.026-.572,5.832-1.155.695-.224.953-.325,1.256-.516l.628.617q-.258.067-1.088.348c-.684.236-1.761.539-2.479.718v1.626l4.071-.494c.426-.056.818-.135,1.11-.213l.078.808h-.168c-.247,0-.617.022-.965.067l-4.127.516v2.311c0,.292.045.381.28.46.213.067.785.101,1.648.101,1.279,0,1.885-.056,2.131-.213.259-.146.326-.448.37-1.57.326.202.382.225.718.314-.078,1.144-.235,1.592-.628,1.839-.358.236-.986.303-2.624.303-1.301,0-1.929-.056-2.266-.213-.303-.146-.381-.336-.381-.897v-2.344l-2.613.314c-.449.056-.785.123-1.122.213l-.089-.808h.179c.235,0,.617-.022.953-.067l2.692-.336v-1.559ZM144.021,52.341c0-.247-.022-.426-.079-.684h.875c-.045.247-.067.438-.067.684v.527h3.309c.482,0,.774-.011,1.133-.045-.033.235-.045.426-.045.763v.74c0,.325.012.583.045.785h-.74v-1.581h-7.839v1.581h-.74c.033-.247.045-.437.045-.785v-.74c0-.325-.012-.527-.045-.763.358.034.639.045,1.121.045h3.028v-.527Z"/><path class="cls-1" d="M75.164,66.708c-.045.135-.09.247-.168.494-.325.953-.516,1.424-.853,2.12v6.124c0,.482.022.953.056,1.312h-.83c.045-.393.067-.751.067-1.346v-3.679c0-.516.011-.841.034-1.357-.37.707-.65,1.11-1.178,1.727-.034-.056-.056-.09-.067-.123q-.112-.191-.213-.314c-.101-.112-.157-.179-.168-.19.796-.875,1.38-1.772,1.884-2.894.325-.718.583-1.581.65-2.108l.785.235ZM77.665,73.987c-.763,1.155-1.458,1.907-2.512,2.692-.202-.247-.314-.348-.594-.539,1.099-.718,1.794-1.447,2.467-2.568l.639.415ZM79.583,69.041v-1.38c0-.358-.022-.65-.067-.931h.841c-.056.292-.067.561-.067.931v1.38h.718c.449,0,.751-.022,1.043-.067v.785c-.303-.045-.605-.067-1.043-.067h-.718v2.759h1.009c.471,0,.763-.022,1.088-.067v.796c-.325-.045-.628-.067-1.088-.067h-5.518c-.459,0-.74.022-1.077.067v-.796c.292.045.606.067,1.077.067h.942v-2.759h-.561c-.437,0-.763.022-1.043.067v-.785c.292.045.606.067,1.043.067h.561v-1.391c0-.337-.022-.606-.067-.92h.83c-.045.292-.056.55-.056.931v1.38h2.153ZM79.583,72.45v-2.759h-2.153v2.759h2.153ZM79.84,73.527c.774,1.155,1.469,1.862,2.535,2.568-.202.179-.359.348-.561.617-.954-.707-1.806-1.615-2.591-2.792l.617-.393Z"/><path class="cls-1" d="M83.359,71.486c.202.022.336.022.527.022.101,0,.157,0,.415-.011q.46-.605.662-.908c-.561-.774-.976-1.256-1.604-1.873l.437-.494c.225.247.281.314.449.494.55-.909.942-1.728,1.021-2.153l.707.28q-.112.146-.426.774c-.235.471-.504.931-.908,1.559.37.449.449.561.684.875.774-1.234,1.133-1.896,1.256-2.299l.684.348c-.067.101-.146.213-.27.438-.527.886-1.357,2.142-1.951,2.927.785-.045,1.043-.067,1.761-.168-.19-.393-.269-.561-.527-.976l.527-.235c.426.751.695,1.301.998,2.052l-.572.303c-.09-.292-.124-.381-.202-.594-.459.067-.617.079-1.132.135v3.712c0,.494.022.774.067,1.122h-.807c.044-.348.067-.673.067-1.122v-3.656q-.404.034-1.256.09c-.191.011-.314.034-.505.067l-.101-.707ZM84.604,72.966c-.179,1.682-.28,2.176-.628,3.174l-.617-.28c.348-.875.516-1.705.605-3.028l.639.135ZM86.915,72.72c.292.83.459,1.469.673,2.545l-.617.18c-.146-1.032-.325-1.761-.617-2.523l.561-.202ZM90.649,66.719c.426.875.875,1.458,1.615,2.108.471.426.919.74,1.57,1.122-.157.18-.314.426-.404.65-1.458-.964-2.389-1.906-3.163-3.185-.751,1.369-1.492,2.209-2.736,3.118-.146-.269-.235-.37-.449-.572,1.29-.83,2.12-1.806,2.781-3.241h.785ZM88.787,76.723h-.762c.044-.314.067-.707.067-1.099v-2.658c0-.415-.011-.583-.044-.886.224.022.459.034.796.034h3.23c.336,0,.561-.011.785-.034-.034.28-.045.471-.045.886v2.613c0,.46.022.92.056,1.144h-.774v-.684h-3.309v.684ZM88.406,70.028c.292.056.494.067,1.01.067h2.019c.516,0,.707-.011.998-.067v.774c-.303-.045-.561-.056-1.032-.056h-1.962c-.449,0-.751.011-1.032.056v-.774ZM88.787,75.422h3.32v-2.68h-3.32v2.68Z"/><path class="cls-1" d="M100.134,73.415c.438.605.864,1.009,1.458,1.401.853.539,1.716.864,3.106,1.145-.18.224-.303.437-.426.729-2.378-.628-3.757-1.525-4.834-3.151-.37.897-.908,1.548-1.761,2.097-.751.482-1.424.751-2.546,1.032-.112-.28-.19-.403-.415-.706,1.133-.213,1.716-.415,2.4-.808.808-.471,1.301-.987,1.649-1.738h-2.849c-.404,0-.707.022-1.043.067v-.751c.292.045.561.067,1.032.067h3.073c.079-.359.112-.538.157-1.077h-2.03c-.471,0-.718.011-.976.056v-.707c.292.045.482.056.976.056h2.086c.022-.438.022-.561.034-.998h-2.165c-.471,0-.774.022-1.077.067v-.729c.292.045.583.067,1.077.067h2.176c-.011-.516-.011-.662-.067-.908h.83c-.044.202-.056.393-.056.908h2.344c.505,0,.785-.022,1.077-.067v.729c-.326-.057-.606-.067-1.077-.067h-2.355c-.011.359-.022.628-.045.998h2.22c.494,0,.673-.011.965-.056v.707c-.27-.045-.493-.056-.965-.056h-2.265c-.056.482-.079.684-.168,1.077h3.836c.471,0,.751-.022,1.043-.067v.751c-.337-.044-.628-.067-1.055-.067h-3.364ZM99.215,67.269c0-.258-.022-.437-.079-.695h.875c-.044.247-.067.438-.067.695v.427h3.297c.472,0,.763-.012,1.122-.045-.034.235-.045.459-.045.751v.662c0,.325.011.549.045.773h-.729v-1.525h-7.896v1.525h-.74c.034-.247.045-.437.045-.773v-.65c0-.303-.011-.527-.045-.763.359.033.651.045,1.133.045h3.084v-.427Z"/><path class="cls-1" d="M107.018,72.876c-.124,1.447-.281,2.221-.64,3.23l-.595-.314c.37-.897.517-1.626.617-3.04l.617.124ZM105.795,71.452c.18.022.258.022.415.022.078,0,.179,0,.471-.011.438-.606.493-.673.763-1.11-.505-.662-.853-1.043-1.57-1.716l.37-.527c.247.247.27.281.471.482.527-.819.853-1.514.987-2.075l.673.336q-.112.168-.448.83c-.19.382-.438.785-.797,1.324.37.404.494.538.685.785.572-.919.863-1.458,1.043-1.951l.65.348c-.123.157-.202.292-.403.628-.572.976-1.245,2.008-1.705,2.602.718-.045.953-.079,1.548-.157-.146-.325-.213-.46-.438-.853l.46-.225c.393.673.65,1.234.942,2.098l-.55.235c-.09-.359-.124-.471-.202-.707-.303.056-.572.09-.908.134v3.701c0,.438.022.819.067,1.144h-.785c.045-.325.067-.707.067-1.144v-3.634c-.662.067-1.01.101-1.055.101-.381.034-.448.045-.639.079l-.112-.74ZM109.171,72.753c.258.92.348,1.38.493,2.423l-.605.146c-.102-1.009-.225-1.716-.427-2.411l.539-.157ZM111.998,75.546c-.864.639-1.391.908-2.603,1.267-.112-.213-.235-.381-.426-.561,1.121-.258,1.716-.516,2.523-1.11l.505.404ZM110.786,67.953c-.471,0-.785.011-1.031.045v-.662c.303.045.605.067,1.054.067h1.525c0-.359-.022-.549-.067-.83h.763c-.056.281-.067.46-.067.83h1.693c.449,0,.774-.022,1.077-.067v.662c-.235-.034-.572-.045-1.065-.045h-1.705v.662h1.335c.493,0,.763-.011,1.01-.056v.65c-.27-.034-.539-.045-.987-.045h-1.357v.718h1.975c.437,0,.729-.022,1.043-.067v.662c-.314-.034-.651-.056-1.043-.056h-4.352c-.404,0-.785.022-1.088.056v-.662c.325.057.605.067,1.088.067h1.749v-.718h-1.211c-.449,0-.74.011-1.021.045v-.65c.235.045.538.056,1.021.056h1.211v-.662h-1.548ZM111.156,74.996c-.403,0-.729.011-1.009.034.033-.247.045-.594.045-1.032v-2.008c0-.448-.012-.718-.045-1.009.269.022.516.034.986.034h3.163c.482,0,.706-.011.998-.034-.033.269-.045.606-.045,1.043v1.917c0,.471.012.808.045,1.088-.337-.022-.583-.034-.965-.034h-3.174ZM110.82,72.159h3.79v-.628h-3.79v.628ZM110.82,73.314h3.79v-.662h-3.79v.662ZM110.82,74.48h3.79v-.673h-3.79v.673ZM113.702,75.142c.83.538,1.368.774,2.468,1.065-.157.168-.28.336-.415.594-1.055-.336-1.671-.639-2.535-1.245l.482-.415Z"/><path class="cls-1" d="M121.035,73.213c-.729-.605-1.223-.931-2.367-1.593l.527-.437c.494.303.617.392.942.605.448-.325.908-.74,1.211-1.077h-2.176c-.403,0-.718.022-.998.056.034-.292.045-.583.045-1.032v-1.693c0-.471-.011-.785-.045-1.077.292.034.64.056,1.065.056h5.652c.427,0,.774-.022,1.077-.056-.034.281-.045.583-.045,1.077v1.693c0,.46.011.751.045,1.032-.292-.045-.617-.056-1.021-.056h-2.736c-.539.572-.92.908-1.593,1.424.403.292.482.348.953.718.987-.684,1.896-1.48,2.153-1.884l.673.393q-.247.213-.751.64c-.617.527-1.145.908-2.064,1.48,1.907-.067,2.086-.079,3.566-.19-.348-.348-.481-.46-.931-.83l.505-.359c.931.763,1.458,1.278,2.231,2.187l-.526.449c-.359-.449-.482-.605-.774-.92-1.48.112-2.142.157-3.319.202v1.648c0,.438.022.785.078,1.144h-.875c.057-.37.079-.718.079-1.144v-1.615c-1.223.044-2.143.079-2.781.089-.875.012-1.01.012-1.357.067l-.135-.763c.382.056.605.067,1.57.067.382,0,.763,0,1.671-.011l.449-.292ZM120.62,74.816c-.842.808-1.402,1.189-2.636,1.817-.168-.236-.292-.37-.583-.583,1.2-.471,1.816-.852,2.602-1.626l.617.392ZM118.881,68.57h2.792v-.987h-2.792v.987ZM118.881,70.162h2.792v-1.043h-2.792v1.043ZM122.324,67.583v.987h2.928v-.987h-2.928ZM122.335,69.119v1.043h2.916v-1.043h-2.916ZM123.939,74.301c.908.819,1.47,1.167,2.748,1.682-.213.202-.337.37-.494.628-1.233-.606-1.827-1.01-2.814-1.929l.561-.381Z"/><path class="cls-1" d="M128.378,68.581c.303.045.571.067.976.067h2.702c.438,0,.718-.022.977-.067v.74c-.27-.045-.572-.056-.977-.056h-2.714c-.37,0-.65.011-.964.056v-.74ZM128.905,67.056c.27.045.505.056.909.056h1.827c.393,0,.617-.011.887-.056v.707c-.292-.034-.505-.044-.887-.044h-1.827c-.382,0-.662.011-.909.044v-.707ZM128.917,70.162c.235.034.415.045.808.045h1.996c.381,0,.55-.011.796-.045v.685c-.291-.034-.438-.045-.796-.045h-1.996c-.37,0-.55.011-.808.045v-.685ZM128.917,71.71c.224.034.403.045.808.045h1.996c.381,0,.55-.011.796-.045v.684c-.269-.034-.415-.044-.796-.044h-1.996c-.382,0-.55.011-.808.044v-.684ZM129.712,76.757h-.751c.045-.325.067-.65.067-1.077v-1.492c0-.37-.012-.628-.057-.919.247.034.427.045.785.045h2.053c.325,0,.538-.011.763-.034-.034.258-.045.471-.045.897v1.48c0,.381.022.673.067.954h-.752v-.438h-2.131v.583ZM129.702,75.579h2.153v-1.66h-2.153v1.66ZM135.297,67.919c0-.527-.022-.841-.078-1.245h.886c-.056.348-.078.763-.078,1.245v2.265h1.065c.605,0,.976-.022,1.346-.067v.807c-.415-.045-.785-.067-1.346-.067h-1.065v4.285c0,.718.022,1.177.09,1.604h-.897c.056-.449.078-.807.078-1.604v-4.285h-.986c-.494,0-.908.022-1.29.067v-.807c.348.044.729.067,1.29.067h.986v-2.265Z"/></g></svg>