<svg id="svg_catch_2_3" data-name="svg_catch_2_3" xmlns="http://www.w3.org/2000/svg" viewBox="0 0 233.512 110.567">
<defs><style>
#svg_catch_2_3 .fill{fill:#fff;}
.catch_sp #svg_catch_2_3 .fill,
.whats_catch #svg_catch_2_3 .fill{fill:#9F8C40;}
</style></defs>
<path class="fill" d="M50.837,83.773c.026,4.951-3.581,8.986-3.581,8.986s-3.651-4-3.679-8.947,3.579-8.984,3.579-8.984,3.655,3.991,3.681,8.945"/><path class="fill" d="M33.929,85.7c4.939.36,8.677,4.272,8.677,4.272s-4.265,3.328-9.2,2.966-8.681-4.266-8.681-4.266,4.266-3.332,9.206-2.972"/><path class="fill" d="M22.165,73.6c4.908.622,8.435,4.726,8.435,4.726s-4.444,3.1-9.353,2.473-8.44-4.729-8.44-4.729,4.445-3.095,9.358-2.47"/><path class="fill" d="M14.209,58.327c4.762,1.356,7.629,5.943,7.629,5.943s-4.854,2.391-9.615,1.038-7.629-5.945-7.629-5.945,4.854-2.394,9.615-1.036"/><path class="fill" d="M9.5,40.8c4.165,2.686,5.57,7.909,5.57,7.909s-5.342.875-9.5-1.808S0,38.983,0,38.983s5.338-.871,9.5,1.813"/><path class="fill" d="M40.25,75.987c-.7,4.9-4.864,8.359-4.864,8.359s-3.025-4.492-2.317-9.392,4.866-8.362,4.866-8.362,3.02,4.492,2.315,9.395"/><path class="fill" d="M31.679,64.4c-1.125,4.821-5.575,7.906-5.575,7.906s-2.622-4.735-1.491-9.555,5.571-7.906,5.571-7.906,2.62,4.735,1.495,9.555"/><path class="fill" d="M25.191,51.365c-2.379,4.344-7.49,6.115-7.49,6.115s-1.256-5.263,1.127-9.6,7.493-6.114,7.493-6.114,1.249,5.265-1.13,9.6"/><path class="fill" d="M22.408,36.787c-2.816,4.074-8.086,5.309-8.086,5.309s-.7-5.365,2.118-9.437,8.085-5.309,8.085-5.309.7,5.367-2.117,9.437"/><path class="fill" d="M16.1,25.679c.349,4.94-2.989,9.2-2.989,9.2s-3.9-3.749-4.253-8.687,2.989-9.2,2.989-9.2,3.9,3.745,4.253,8.685"/><path class="fill" d="M83.068,108.48l-.426,2.087c-.671-.142-67.03-14.491-70.782-77.3l2.123-.13C17.634,94.305,82.414,108.347,83.068,108.48Z"/><path class="fill" d="M182.675,83.773c-.026,4.951,3.581,8.986,3.581,8.986s3.651-4,3.679-8.947-3.58-8.984-3.58-8.984-3.655,3.991-3.68,8.945"/><path class="fill" d="M199.583,85.7c-4.939.36-8.678,4.272-8.678,4.272s4.266,3.328,9.2,2.966,8.681-4.266,8.681-4.266-4.266-3.332-9.206-2.972"/><path class="fill" d="M211.347,73.6c-4.908.622-8.435,4.726-8.435,4.726s4.444,3.1,9.353,2.473,8.44-4.729,8.44-4.729-4.445-3.095-9.358-2.47"/><path class="fill" d="M219.3,58.327c-4.761,1.356-7.628,5.943-7.628,5.943s4.854,2.391,9.614,1.038,7.63-5.945,7.63-5.945-4.854-2.394-9.616-1.036"/><path class="fill" d="M224.014,40.8c-4.165,2.686-5.571,7.909-5.571,7.909s5.343.875,9.5-1.808,5.568-7.914,5.568-7.914-5.338-.871-9.5,1.813"/><path class="fill" d="M193.262,75.987c.7,4.9,4.864,8.359,4.864,8.359s3.025-4.492,2.317-9.392-4.866-8.362-4.866-8.362-3.02,4.492-2.315,9.395"/><path class="fill" d="M201.832,64.4c1.126,4.821,5.575,7.906,5.575,7.906s2.622-4.735,1.492-9.555-5.572-7.906-5.572-7.906-2.619,4.735-1.5,9.555"/><path class="fill" d="M208.321,51.365c2.379,4.344,7.49,6.115,7.49,6.115s1.256-5.263-1.127-9.6-7.494-6.114-7.494-6.114-1.249,5.265,1.131,9.6"/><path class="fill" d="M211.1,36.787c2.816,4.074,8.086,5.309,8.086,5.309s.7-5.365-2.119-9.437-8.084-5.309-8.084-5.309-.7,5.367,2.117,9.437"/><path class="fill" d="M217.414,25.679c-.35,4.94,2.989,9.2,2.989,9.2s3.9-3.749,4.253-8.687-2.989-9.2-2.989-9.2-3.9,3.745-4.253,8.685"/><path class="fill" d="M150.444,108.48l.426,2.087c.671-.142,67.03-14.491,70.782-77.3l-2.123-.13C215.878,94.305,151.1,108.347,150.444,108.48Z"/><path class="fill" d="M67.089,20.016c.97.061,1.759.061,2.244.061,7.582,0,10.069-2.548,10.069-10.372,0-5.4-2-8.067-6.126-8.067-2.973,0-5.944,1.759-5.944,3.578,0,.546.242.849,1.455,1.577a2.962,2.962,0,0,1,1.7,2.79c0,1.941-1.4,3.215-3.519,3.215-2.244,0-3.638-1.637-3.638-4.185a7.8,7.8,0,0,1,2.607-5.58C68.12.971,70.97,0,74.852,0,82.92,0,88.014,3.882,88.014,9.887c0,6.065-3.76,9.4-12.252,10.978,4.489.3,6.733.849,9.341,2.305a10.286,10.286,0,0,1,5.4,9.583c0,7.885-6.43,12.859-16.619,12.859-4.307,0-7.4-1.031-9.645-3.154a9.148,9.148,0,0,1-2.911-6.672c0-2.79,1.577-4.549,4-4.549a3.586,3.586,0,0,1,3.821,3.639c0,1.334-.364,2-1.759,3.093s-1.516,1.274-1.516,2c0,2.244,2.972,4,6.732,4,5.884,0,8.978-4.064,8.978-11.585,0-4.245-.911-6.55-3.276-8.431-2.123-1.637-4.246-2.183-8.492-2.183-.546,0-1.516,0-2.729.06Z"/><path class="fill" d="M111.85,45.612C103.056,45.612,96.2,35.6,96.2,22.806S103.056,0,111.85,0c8.856,0,15.71,9.887,15.71,22.745C127.56,35.665,120.706,45.612,111.85,45.612Zm-5.337-6.066c.849,3.4,2.79,4.61,5.4,4.61,2.972,0,4.61-1.516,5.459-4.913.728-2.85,1.214-9.037,1.214-16.5,0-7.581-.486-13.89-1.275-16.619-.97-3.4-2.729-4.609-5.459-4.609-2.971,0-4.609,1.516-5.4,4.609-.789,3.154-1.275,8.795-1.275,16.5C105.178,30.388,105.785,36.756,106.513,39.546Z"/><path class="fill" d="M163.256,36.636c2.164-3.246,3.037-4.286,3.62-4.286.791,0,2.247,1.04,4.036,2.871.707.749,1,1.165,1,1.623,0,.5-.541.874-1.373.874H157.014c.083,3.578.249,6.657.249,9.237v.209a1.582,1.582,0,0,1-.874,1.622,7.674,7.674,0,0,1-3.661.791c-1.249,0-1.831-.416-1.831-1.373,0-.208,0-.541.042-1.04.124-1.54.249-5.493.249-9.446h-14.1c-.957,0-2,.041-2.955.125-.749-.916-.79-1-.79-1.082a.3.3,0,0,1,.333-.292c1.04.084,2.413.167,3.079.167h3.828c.041-4.868.083-5.742.083-7.782V27.19c0-.541-.042-1.123-.042-2.08,0-.375,0-.5.417-.5a19.512,19.512,0,0,1,4.036.791,3.631,3.631,0,0,1,1.872.957h4.327c-.041-1.248-.041-2.164-.041-2.788,0-1.872,0-3.5-.083-5.243H144.7a30.334,30.334,0,0,1-7.781,8.4,16.023,16.023,0,0,1-3.2,1.914.278.278,0,0,1-.291-.249c0-.125.042-.25.416-.624,3.5-3.829,5.742-9.571,6.658-16.894,6.824,1.123,7.989,1.5,7.989,2.5,0,.583-.417.916-1.706,1.374-.625,1.123-1.041,1.831-1.415,2.455h16.1c.666-.874,1.332-1.706,2-2.58.624-.874,1.082-1.207,1.539-1.207,1.374,0,4.869,3.038,4.869,4.2,0,.5-.458.707-1.5.707H157.929a.525.525,0,0,1,.042.25c0,.166-.167.333-.375.458-.582.291-.624.332-.624.832l-.083,6.491h3.62l1.415-2c.791-1.124,1.374-1.665,1.79-1.665A8.885,8.885,0,0,1,167,24.735c.915.791,1.331,1.332,1.331,1.789,0,.5-.541.874-1.29.874H156.889l.125,9.238ZM146.736,27.4a.772.772,0,0,0-.5.583c-.084.291-.125,3.454-.125,6.907,0,.5,0,.832.041,1.748h5.077l.041-9.238Z"/><path class="fill" d="M90.359,56.7a5.191,5.191,0,0,0,.921.984,9.1,9.1,0,0,0,1.83,1.262,2.97,2.97,0,0,0-.4.694,9.956,9.956,0,0,1-2.726-2.309,8.335,8.335,0,0,1-1.287,1.577,12.691,12.691,0,0,1-1.918,1.552,2.292,2.292,0,0,0-.53-.631,10.786,10.786,0,0,0,2.448-1.994,5.858,5.858,0,0,0,.82-1.135Zm-2.233,7.13a9.132,9.132,0,0,1-1.238,3.734A2.916,2.916,0,0,0,86.245,67c.922-1.426,1.275-2.966,1.275-5.527a9.7,9.7,0,0,0-.051-1.186,11.818,11.818,0,0,0,1.224.05H91.52a8.352,8.352,0,0,0,.985-.05,6.674,6.674,0,0,0-.051.959v1.678a6.268,6.268,0,0,0,.051.946c-.3-.025-.5-.037-.91-.037Zm.782,3.558v.618h-.8a8.465,8.465,0,0,0,.062-1.047V65.571a9.863,9.863,0,0,0-.037-1,8.5,8.5,0,0,0,.947.038h2.649a6.889,6.889,0,0,0,.9-.05,6.369,6.369,0,0,0-.051.946v1.274a6.168,6.168,0,0,0,.063,1.035h-.8v-.429Zm-.669-5.048c-.013.354-.025.493-.064.871h3.572V62.34Zm3.508-.605v-.783h-3.5v.783ZM88.693,58.92a4.008,4.008,0,0,0,.758.051h1.3a3.859,3.859,0,0,0,.744-.051v.707a3.471,3.471,0,0,0-.7-.05H89.425a3.729,3.729,0,0,0-.732.05Zm.228,7.837h2.915V65.243H88.921Zm5.792-9.224a7.056,7.056,0,0,0-.077,1.375v4.821a8.42,8.42,0,0,0,.064,1.413h-.921a9.014,9.014,0,0,0,.062-1.413V58.908a8.906,8.906,0,0,0-.075-1.375Zm2.674-.821a9.146,9.146,0,0,0-.087,1.527v8.379c0,.922-.252,1.111-1.49,1.111-.29,0-.593-.013-1.161-.051a2.426,2.426,0,0,0-.226-.807A9.358,9.358,0,0,0,95.949,67c.442,0,.543-.076.543-.379V58.252a9.406,9.406,0,0,0-.088-1.54Z"/><path class="fill" d="M101.013,61.457a9.914,9.914,0,0,0-1.35.063v-.782a9.251,9.251,0,0,0,1.35.063h1.83a7.625,7.625,0,0,0-.668-1.426h-1.59a13.411,13.411,0,0,0-1.426.063V58.63a9.727,9.727,0,0,0,1.4.076h.871a6.66,6.66,0,0,0-1.035-1.337l.72-.341a7.517,7.517,0,0,1,1.123,1.678h1.06v-.972a6.038,6.038,0,0,0-.077-1.06h.859a7.086,7.086,0,0,0-.051,1.048v.984h1.338v-.984a7.491,7.491,0,0,0-.05-1.048h.858a5.858,5.858,0,0,0-.076,1.06v.972h1.211a8.083,8.083,0,0,0,1-1.741l.77.328a12.431,12.431,0,0,1-.946,1.413h.756a9.7,9.7,0,0,0,1.414-.076v.808a13.411,13.411,0,0,0-1.426-.063h-1.489a14.257,14.257,0,0,1-.681,1.426H108.5a9.542,9.542,0,0,0,1.362-.063v.782a9.991,9.991,0,0,0-1.362-.063h-3.433v.921h2.651a9.411,9.411,0,0,0,1.362-.063v.77a9.726,9.726,0,0,0-1.362-.063h-2.651v.972h3.823a9.526,9.526,0,0,0,1.439-.076v.82a12.108,12.108,0,0,0-1.426-.076h-3.306a9.958,9.958,0,0,0,5.01,2.183,2.931,2.931,0,0,0-.492.783,13.493,13.493,0,0,1-3.092-1.187,8.272,8.272,0,0,1-2.007-1.539c.038.568.051.8.051,1.073v.845a9.611,9.611,0,0,0,.076,1.312h-.909a8.218,8.218,0,0,0,.076-1.324v-.833c0-.29.013-.568.05-1.06a10.028,10.028,0,0,1-4.744,2.713A2.618,2.618,0,0,0,99.1,66.9a9.572,9.572,0,0,0,4.682-2.234h-3.092a11.975,11.975,0,0,0-1.426.076v-.82a9.694,9.694,0,0,0,1.426.076h3.622v-.972h-2.5a9.513,9.513,0,0,0-1.349.063v-.77a9.513,9.513,0,0,0,1.349.063h2.5v-.921Zm4.871-.656a6.484,6.484,0,0,0,.644-1.426H103.02a10.382,10.382,0,0,1,.593,1.426Z"/><path class="fill" d="M114.623,63.69c.264-.3.554-.656.819-.971l3.193-3.988a14.169,14.169,0,0,0,.947-1.287h.946a20.949,20.949,0,0,0-.076,2.133v4.139h.48a8.476,8.476,0,0,0,1.312-.089v1.048a8.645,8.645,0,0,0-1.324-.089h-.468v1.086a7.219,7.219,0,0,0,.1,1.363h-1.148a7.3,7.3,0,0,0,.1-1.363V64.586h-3.382c-.706,0-1.085.013-1.5.051Zm4.895-3.167a15.367,15.367,0,0,1,.076-1.716c-.265.379-.581.795-.946,1.262l-2.9,3.66h3.772Z"/><path class="fill" d="M128.91,59.539a2.4,2.4,0,0,0-.442-.8,1.926,1.926,0,0,0-1.5-.631,2.3,2.3,0,0,0-2.183,1.565,7.077,7.077,0,0,0-.529,2.713,2.629,2.629,0,0,1,.63-.808,3,3,0,0,1,2.132-.77,2.934,2.934,0,0,1,3.168,3.155,3.083,3.083,0,0,1-3.306,3.243,3.393,3.393,0,0,1-2.284-.794,5.386,5.386,0,0,1-1.275-3.963,6.735,6.735,0,0,1,.959-3.811,3.169,3.169,0,0,1,2.663-1.375,3.346,3.346,0,0,1,1.918.529,3.224,3.224,0,0,1,1.061,1.414Zm-2.032,2.12a2.558,2.558,0,0,0-1.742.719,2.209,2.209,0,0,0-.63,1.6,2.392,2.392,0,0,0,4.353,1.35,2.723,2.723,0,0,0,.328-1.337A2.107,2.107,0,0,0,126.878,61.659Z"/><path class="fill" d="M136.952,61.583a7.05,7.05,0,0,0-.038-.744c.264.025.543.037.9.037h2.739V58.82h-2.966a10.387,10.387,0,0,1-2.095,2.574,2,2,0,0,0-.6-.606,8.224,8.224,0,0,0,2.523-3.394,4.936,4.936,0,0,0,.315-.921l.9.252c-.051.1-.089.189-.164.34l-.48,1.023h6.259a6.555,6.555,0,0,0,1.136-.064v.859a6.84,6.84,0,0,0-1.136-.063h-2.852v2.056h2.284a6.763,6.763,0,0,0,1.123-.063v.833a9.118,9.118,0,0,0-1.111-.05h-2.3v2.473h3.18a8.582,8.582,0,0,0,1.275-.075V64.9a9.175,9.175,0,0,0-1.275-.076h-3.18v2.082a5.767,5.767,0,0,0,.088,1.174h-1a5.536,5.536,0,0,0,.077-1.174V64.826h-4.556a9.165,9.165,0,0,0-1.275.076v-.908a8.808,8.808,0,0,0,1.275.075h.959Zm3.6,2.486V61.6h-2.777v2.473Z"/><path class="fill" d="M60.278,77.884H58.045a8.656,8.656,0,0,0-1.249.075v-.87a8.15,8.15,0,0,0,1.249.076h5.223a8.182,8.182,0,0,0,1.25-.076v.87a8.313,8.313,0,0,0-1.25-.075H61.06v2.057H63.5a7.521,7.521,0,0,0,1.212-.076v.858a6.761,6.761,0,0,0-1.212-.076H61.06v2.8a11.325,11.325,0,0,0,2.057.138c1.022,0,1.893-.037,2.953-.126a2.335,2.335,0,0,0-.277.884c-1.1.025-1.187.025-1.528.025a17.136,17.136,0,0,1-2.763-.1c-1.968-.278-3.205-1.035-3.874-2.373a8.537,8.537,0,0,1-1.918,2.865,2.332,2.332,0,0,0-.657-.593,6.714,6.714,0,0,0,1.705-2.246,8,8,0,0,0,.769-2.877v-.127l.884.177-.153.656c-.062.3-.251,1.035-.339,1.338a3.849,3.849,0,0,0,1,1.388,4.265,4.265,0,0,0,1.363.77Zm-.189-3.571a4.371,4.371,0,0,0-.076-.8H61a3.253,3.253,0,0,0-.089.782v.618h3.684c.493,0,.859-.012,1.262-.05a5.83,5.83,0,0,0-.05.858v.8a6.163,6.163,0,0,0,.05.9h-.819V75.65H56.227v1.767h-.833a6.009,6.009,0,0,0,.051-.9v-.8a5.674,5.674,0,0,0-.051-.858c.405.038.77.05,1.275.05h3.42Z"/><path class="fill" d="M68.85,74.792a8.06,8.06,0,0,0-.075-1.2h.883a8.065,8.065,0,0,0-.064,1.212v.227h2.323v-.24a7.2,7.2,0,0,0-.064-1.2h.871a7.668,7.668,0,0,0-.075,1.212v.227a5.34,5.34,0,0,0,1.047-.076v.808a6.967,6.967,0,0,0-1.047-.051V81.1a6.294,6.294,0,0,0,1-.063v.782c-.29-.025-.656-.038-1.148-.038H68.509a5.344,5.344,0,0,0-1.022.063v-.807a5.2,5.2,0,0,0,1.01.063h.353V75.713h-.075a5.781,5.781,0,0,0-1.086.063v-.82a5.274,5.274,0,0,0,1.086.076h.075Zm1.3,7.824A7.166,7.166,0,0,1,68.181,84.8a1.766,1.766,0,0,0-.58-.606,5.022,5.022,0,0,0,1.893-1.968Zm1.767-5.59V75.713H69.594v1.313Zm0,1.968V77.669H69.594v1.325Zm0,2.108V79.638H69.594V81.1Zm-.19,1.11a4.667,4.667,0,0,0,1.238,1.3,2.583,2.583,0,0,0-.582.543A6.385,6.385,0,0,1,71.16,82.6Zm3.218-1.439a6.763,6.763,0,0,1-1.477,4.089,1.983,1.983,0,0,0-.618-.58A4.892,4.892,0,0,0,74.1,81.43a56.891,56.891,0,0,0,.214-5.855,13.021,13.021,0,0,0-.05-1.49,9.907,9.907,0,0,0,1.211.051h1.741a9.566,9.566,0,0,0,1.2-.051,9.962,9.962,0,0,0-.051,1.225v8.5c0,.429-.113.694-.341.82A2.455,2.455,0,0,1,77,84.774c-.177,0-.316-.013-1-.051a3.445,3.445,0,0,0-.2-.9,6.917,6.917,0,0,0,1.388.164c.3,0,.4-.075.4-.277V80.773Zm.114-3.015c-.025,1.236-.025,1.5-.076,2.309H77.6V77.758ZM77.6,74.843H75.072v2.208H77.6Z"/><path class="fill" d="M81.6,79.171c0-.454.013-.845.051-1.552a9.729,9.729,0,0,1-1.262,1.956,2.584,2.584,0,0,0-.505-.694A11.419,11.419,0,0,0,82.1,75.032a7.394,7.394,0,0,0,.48-1.754l.883.227c-.076.189-.076.189-.366,1.085a18.078,18.078,0,0,1-.719,1.893v6.928c0,.58.025,1.047.063,1.476h-.921a12.667,12.667,0,0,0,.075-1.514ZM88.426,75.1v-.48a6.909,6.909,0,0,0-.076-1.135h.922a7.25,7.25,0,0,0-.076,1.161V75.1H89.9a8.932,8.932,0,0,0,1.262-.063v.807a9.875,9.875,0,0,0-1.249-.05H89.2v1.729h1.123a8.066,8.066,0,0,0,1.274-.076V78.3a8.213,8.213,0,0,0-1.274-.075H84.388a9.43,9.43,0,0,0-1.287.063v-.833a7.368,7.368,0,0,0,1.262.063h.972V75.789h-.543a10.057,10.057,0,0,0-1.237.05v-.807a11.118,11.118,0,0,0,1.262.063h.518v-.48a7.351,7.351,0,0,0-.076-1.135h.921a7.048,7.048,0,0,0-.076,1.161V75.1Zm-4.24,5.123a6.759,6.759,0,0,0-.05-.946,8.576,8.576,0,0,0,1.123.05h4a8.354,8.354,0,0,0,1.124-.05,6.812,6.812,0,0,0-.051,1v3.268A10.184,10.184,0,0,0,90.4,84.9h-.833v-.694H84.956V84.9h-.832a12.3,12.3,0,0,0,.062-1.325Zm.77,1.161h4.606v-1.35H84.956Zm0,2.145h4.606V82.061H84.956Zm3.47-6.006V75.789H86.1v1.729Z"/><path class="fill" d="M94.386,74.994a10.433,10.433,0,0,0-.075-1.4h.934a10.444,10.444,0,0,0-.076,1.414v1.88h.353a4.811,4.811,0,0,0,1.01-.063v.82a7.861,7.861,0,0,0-1.023-.05h-.34v3.962c.543-.252.77-.366,1.426-.732l.076.77a24.351,24.351,0,0,1-3.256,1.539c-.177.063-.365.152-.505.215l-.214-.871a7.1,7.1,0,0,0,1.69-.568V77.594H93.92a4.8,4.8,0,0,0-1.06.075v-.858a4.655,4.655,0,0,0,1.06.076h.466Zm3.862,8.177c0,.3.076.4.379.48a9.2,9.2,0,0,0,2.031.113c1.779,0,2.309-.076,2.512-.366a3.671,3.671,0,0,0,.264-1.7,2.3,2.3,0,0,0,.808.328c-.151,2.334-.378,2.486-3.659,2.486-2.613,0-3.13-.19-3.13-1.174V78.7l-.278.088a6.964,6.964,0,0,0-1.047.4l-.227-.858a4.854,4.854,0,0,0,1.1-.252l.454-.152V75.953a9.4,9.4,0,0,0-.075-1.287h.946a8.876,8.876,0,0,0-.076,1.249v1.767l1.8-.606V74.742a8.05,8.05,0,0,0-.075-1.174h.934a8.316,8.316,0,0,0-.076,1.186v2.07l1.943-.644a9.127,9.127,0,0,0,1-.391c-.051,1.262-.1,2.145-.2,3.382-.088,1.123-.252,1.653-.58,1.842a1.718,1.718,0,0,1-.908.177c-.115,0-.266-.013-.556-.038a2.943,2.943,0,0,0-.189-.8,4.485,4.485,0,0,0,.971.114c.29,0,.354-.063.417-.429a25.282,25.282,0,0,0,.2-3.193l-2.094.719v3.483a8.211,8.211,0,0,0,.076,1.212h-.934a8.3,8.3,0,0,0,.075-1.224V77.833l-1.8.606Z"/><path class="fill" d="M107.161,74.716a7.6,7.6,0,0,0-.063-1.3h.883a8.32,8.32,0,0,0-.062,1.287v1.161h.315a4.872,4.872,0,0,0,.82-.051V76.6a7.191,7.191,0,0,0-.783-.038h-.315a4.624,4.624,0,0,0,1.451,1.994,3.085,3.085,0,0,0-.467.618,5.454,5.454,0,0,1-1.072-1.577c.025.694.051,1.426.051,2.031v3.849a10.3,10.3,0,0,0,.075,1.464h-.908a8.77,8.77,0,0,0,.088-1.464V79.9a10.134,10.134,0,0,1,.038-1.111c.038-.492.05-.643.063-1.123a9.919,9.919,0,0,1-1.679,3.912,2.922,2.922,0,0,0-.517-.669,10.761,10.761,0,0,0,1.969-4.353h-.707a5.175,5.175,0,0,0-.871.05v-.8a4.961,4.961,0,0,0,.871.051h.82Zm6.461,7.156h1.426a5.449,5.449,0,0,0,1.047-.064v.77a6.227,6.227,0,0,0-1.047-.063h-1.426v1.123h1.64a9.237,9.237,0,0,0,1.3-.063v.808a10.255,10.255,0,0,0-1.312-.076h-4.568v.618h-.82a7.187,7.187,0,0,0,.088-1.312V80.8c0-.316.013-.669.038-1a7.5,7.5,0,0,1-1.022.959,1.8,1.8,0,0,0-.5-.543,9.592,9.592,0,0,0,2.713-3.028h-.732a4.989,4.989,0,0,0-1.059.076v-.821a5.845,5.845,0,0,0,1.072.063h1.085a6.945,6.945,0,0,0,.492-1.224h-1.35a9.38,9.38,0,0,1-.871,1.06,1.438,1.438,0,0,0-.593-.454,5.2,5.2,0,0,0,1.237-1.577,4.239,4.239,0,0,0,.379-.921l.744.239c-.177.391-.265.568-.48.959h3.774a9.075,9.075,0,0,0,1.362-.075v.832a10.313,10.313,0,0,0-1.375-.063h-2.07c-.2.555-.29.782-.491,1.224h3.015a8.182,8.182,0,0,0,1.287-.075v.833a8.475,8.475,0,0,0-1.287-.076h-3.369a8.276,8.276,0,0,1-.9,1.337h1.968a4.427,4.427,0,0,0,.569-1.148l.693.252a6,6,0,0,1-.518.9h1.477a7.176,7.176,0,0,0,1.161-.075v.8a10.579,10.579,0,0,0-1.174-.063h-1.6v1.022h1.426a5.886,5.886,0,0,0,1.047-.063v.769a7.879,7.879,0,0,0-1.047-.063h-1.426Zm-.694-2.688h-2.246v1.022h2.246Zm-2.246,1.665v1.023h2.246V80.849Zm0,2.789h2.246V82.515h-2.246Z"/><path class="fill" d="M123.229,79.6h-2.966a8.041,8.041,0,0,0-1.185.063v-.782a7.407,7.407,0,0,0,1.211.063h2.94v-.82h-2.638a7.936,7.936,0,0,0-1.034.05,6.1,6.1,0,0,0,.05-.845v-.556a6.418,6.418,0,0,0-.05-.858,8.384,8.384,0,0,0,1.047.051h2.625v-.833H119.57a10.913,10.913,0,0,0-1.414.075v-.833a9.288,9.288,0,0,0,1.438.076h3.635a5.076,5.076,0,0,0-.076-1.135h.922a4.091,4.091,0,0,0-.089,1.135h3.861a9.476,9.476,0,0,0,1.452-.076v.833a11.391,11.391,0,0,0-1.426-.075h-3.887v.833h2.9a8.056,8.056,0,0,0,1.036-.051,5.981,5.981,0,0,0-.051.858v.556a5.806,5.806,0,0,0,.051.845,7.871,7.871,0,0,0-1.023-.05h-2.915v.82h2.751a12.588,12.588,0,0,0,1.414-.05,10.018,10.018,0,0,0-.038,1.047v.53a6.4,6.4,0,0,0,1.337-.076v.8a8.64,8.64,0,0,0-1.337-.063v.82a7.515,7.515,0,0,0,.075,1.262h-.82v-.518h-3.382v1.048c0,.871-.252,1.048-1.477,1.048-.264,0-.492-.013-1.2-.051a2.069,2.069,0,0,0-.215-.8,10.962,10.962,0,0,0,1.565.126c.455,0,.568-.063.568-.34V82.691h-3.041a8.322,8.322,0,0,0-1.237.064v-.783a7.47,7.47,0,0,0,1.212.064h3.066v-.909h-3.786a9.227,9.227,0,0,0-1.375.063v-.8a8.25,8.25,0,0,0,1.375.076h3.786Zm-2.864-3.016v.934h2.864v-.934Zm3.621.934h3.13v-.934h-3.13Zm3.382,2.953V79.6h-3.382v.871Zm-3.382,1.565h3.382v-.909h-3.382Z"/><path class="fill" d="M132.6,78.288a9.729,9.729,0,0,0-1.349.063v-.783a9.086,9.086,0,0,0,1.349.063h1.83a7.588,7.588,0,0,0-.668-1.425h-1.59a13.147,13.147,0,0,0-1.426.063v-.808a9.876,9.876,0,0,0,1.4.076h.871a6.635,6.635,0,0,0-1.035-1.338l.72-.341a7.544,7.544,0,0,1,1.123,1.679h1.06v-.972a6.038,6.038,0,0,0-.077-1.06h.859a7.071,7.071,0,0,0-.051,1.047v.985h1.338v-.985a7.291,7.291,0,0,0-.051-1.047h.859a5.951,5.951,0,0,0-.076,1.06v.972h1.211a8.087,8.087,0,0,0,1-1.742l.77.329a12.611,12.611,0,0,1-.946,1.413h.756a9.847,9.847,0,0,0,1.414-.076v.808a13.147,13.147,0,0,0-1.426-.063h-1.489a14.447,14.447,0,0,1-.681,1.425h1.792a9.394,9.394,0,0,0,1.362-.063v.783a9.831,9.831,0,0,0-1.362-.063h-3.433v.921H139.3a9.559,9.559,0,0,0,1.362-.063v.77a9.726,9.726,0,0,0-1.362-.063h-2.651v.971h3.823a9.56,9.56,0,0,0,1.439-.075v.819a12.124,12.124,0,0,0-1.426-.075h-3.306a9.976,9.976,0,0,0,5.01,2.183,2.941,2.941,0,0,0-.492.782,13.547,13.547,0,0,1-3.092-1.186,8.276,8.276,0,0,1-2.007-1.54c.038.568.051.8.051,1.073v.846a9.632,9.632,0,0,0,.076,1.312h-.909a8.231,8.231,0,0,0,.076-1.325v-.833c0-.29.013-.568.05-1.06a10.02,10.02,0,0,1-4.744,2.713,2.6,2.6,0,0,0-.518-.731,9.58,9.58,0,0,0,4.682-2.234h-3.092a11.992,11.992,0,0,0-1.426.075v-.819a9.726,9.726,0,0,0,1.426.075h3.622v-.971h-2.5a9.513,9.513,0,0,0-1.349.063v-.77a9.667,9.667,0,0,0,1.349.063h2.5v-.921Zm4.871-.657a6.454,6.454,0,0,0,.644-1.425H134.6a10.371,10.371,0,0,1,.593,1.425Z"/><path class="fill" d="M147.442,81.531a1.9,1.9,0,0,0,.77,1.2,2.781,2.781,0,0,0,1.628.455c1.463,0,2.384-.757,2.384-1.956,0-1.249-.895-1.931-2.574-1.931a8.8,8.8,0,0,0-1.009.063v-1a5.328,5.328,0,0,0,.934.076,2.517,2.517,0,0,0,1.842-.581,1.737,1.737,0,0,0,.5-1.224c0-1.085-.757-1.716-2.032-1.716a1.983,1.983,0,0,0-1.678.669,2.384,2.384,0,0,0-.4.9l-1.048-.227a2.884,2.884,0,0,1,.682-1.262,3.276,3.276,0,0,1,2.511-.921c1.83,0,2.991.959,2.991,2.473a2.216,2.216,0,0,1-.884,1.843,2.6,2.6,0,0,1-1.185.454,2.7,2.7,0,0,1,1.551.542,2.31,2.31,0,0,1,.846,1.906c0,1.7-1.312,2.764-3.42,2.764a3.606,3.606,0,0,1-2.826-1.035,3.267,3.267,0,0,1-.644-1.224Z"/><path class="fill" d="M155.937,83.159A3.143,3.143,0,0,1,155.179,82a8.737,8.737,0,0,1-.479-2.915,7.387,7.387,0,0,1,.732-3.433,3.381,3.381,0,0,1,5.136-.656,3.167,3.167,0,0,1,.757,1.161,8.7,8.7,0,0,1,.479,2.928,6.589,6.589,0,0,1-.882,3.646,3.085,3.085,0,0,1-2.676,1.326A3.152,3.152,0,0,1,155.937,83.159Zm.732-7.547a2.583,2.583,0,0,0-.568.922,7.824,7.824,0,0,0-.391,2.549,7,7,0,0,0,.592,3,2.152,2.152,0,0,0,1.956,1.1,2.106,2.106,0,0,0,1.553-.593,2.481,2.481,0,0,0,.593-.985,7.824,7.824,0,0,0,.392-2.549,7.147,7.147,0,0,0-.569-2.94,2.131,2.131,0,0,0-1.981-1.148A2.054,2.054,0,0,0,156.669,75.612Z"/><path class="fill" d="M168.484,78.414a7.07,7.07,0,0,0-.038-.745c.265.025.543.038.9.038h2.739V75.65h-2.966a10.392,10.392,0,0,1-2.095,2.575,1.976,1.976,0,0,0-.605-.606,8.22,8.22,0,0,0,2.523-3.395,5.075,5.075,0,0,0,.316-.921l.9.253c-.051.1-.089.189-.164.34l-.479,1.022h6.258a6.569,6.569,0,0,0,1.136-.063v.858a6.944,6.944,0,0,0-1.136-.063h-2.852v2.057H175.2a6.866,6.866,0,0,0,1.123-.063v.833a9.084,9.084,0,0,0-1.11-.051h-2.3V80.9h3.18a8.426,8.426,0,0,0,1.275-.076v.908a9.182,9.182,0,0,0-1.275-.075h-3.18v2.082A5.69,5.69,0,0,0,173,84.913h-1a5.63,5.63,0,0,0,.076-1.174V81.657h-4.556a9.166,9.166,0,0,0-1.274.075v-.908a8.623,8.623,0,0,0,1.274.076h.959Zm3.6,2.486V78.426H169.3V80.9Z"/></svg>