<?xml version="1.0" encoding="UTF-8"?><svg id="_レイヤー_2" xmlns="http://www.w3.org/2000/svg" viewBox="0 0 361.177 141.53"><defs><style>.cls-1{fill:#fff;}.cls-2{fill:#004ea3;}</style></defs><g id="_レイヤー_1-2"><path class="cls-2" d="M39.229,72.565c-5.317,10.276-10.79,17.372-17.649,23.081-5.549,4.567-12.562,8.482-18.42,10.358-.463.163-1.002.326-1.542.489-.616.163-1.002.245-1.232.245s-.386-.163-.386-.326c0-.245.154-.408.693-.653,3.776-1.957,9.558-7.177,13.719-12.396,5.857-7.503,10.405-16.557,14.027-28.301,3.931.489,10.636,2.039,12.717,2.854.694.245,1.311,1.061,1.311,1.631,0,1.06-.309,1.386-1.772,2.284,2.081,4.812,4.855,8.237,9.634,11.826,5.472,4.16,13.873,7.83,22.736,10.032.539.163.771.326.771.571s-.077.326-.539.571c-3.083,1.631-6.166,5.139-7.631,8.564-.308.652-.616.897-1.232.897-3.854,0-9.865-3.588-14.875-8.727-4.625-4.73-7.091-9.787-8.786-17.617-.154-.897-.463-2.773-.925-5.791l-.617.408ZM54.952,135.936c5.55-7.83,5.935-8.237,7.091-8.237,1.465,0,3.622,1.631,6.705,5.057,1.542,1.713,2.312,2.854,2.312,3.67,0,1.061-1.002,1.631-2.852,1.631H12.178c-4.162,0-4.779,0-8.016.163-1.156-2.121-1.233-2.284-1.233-2.528s.231-.326.463-.326c2.157.326,5.703.571,7.938.571h18.652c.23-7.34.23-9.542.23-15.822h-15.183c-1.156,0-2.312.082-3.469.245-1.232-1.468-1.31-1.631-1.31-1.794,0-.326.23-.571.616-.571.925.082,2.158.164,2.774.164h16.647c0-3.833-.077-11.5-.23-13.784h-11.176c-1.695,0-3.469.082-5.164.245-1.156-1.55-1.233-1.713-1.233-1.876,0-.326.231-.571.617-.571,1.232.082,2.774.163,3.545.163h27.207c.616-.897,1.078-1.549,1.387-2.039,1.618-2.61,2.235-3.263,3.083-3.263,1.85,0,7.398,4.649,7.398,6.035,0,.816-.693,1.305-1.772,1.305h-11.021c-.153.652-.23.816-1.002,1.142-1.155.489-1.155.652-1.232,12.642h7.167c1.233-1.713,2.312-3.507,3.469-5.302.925-1.386,1.464-1.794,2.312-1.794,2.389,0,8.169,5.301,8.169,7.503,0,1.061-1.079,1.55-3.391,1.55h-17.727c.154,8.563.23,13.783.308,15.822h13.95Z"/><path class="cls-2" d="M141.277,72.157c.308-.408.462-.652.616-.897,1.927-2.773,2.39-3.262,3.314-3.262,1.079,0,3.313,1.142,6.396,3.344,2.467,1.794,3.314,2.772,3.314,3.833,0,.734-.386,1.224-1.311,2.202l-1.156,1.142c-.077,2.528-.077,4.567-.077,5.872,0,13.376.463,40.698.694,47.06.077,1.957.077,3.099.077,4.078,0,2.284-.309,3.181-1.696,3.997-1.541.979-3.622,1.468-6.088,1.468-2.544,0-3.237-.734-3.237-3.099,0-1.794,0-2.202.077-3.262h-42.621v2.12c0,1.305-.539,2.202-1.85,2.854-1.465.816-3.16,1.224-4.855,1.224-2.852,0-3.776-.652-3.776-2.61,0-.897.153-8.156.308-13.62.231-9.298.54-32.787.54-42.9,0-2.609,0-3.099-.154-12.315,0-.571.077-.734.385-.734,1.542,0,6.552.979,8.479,1.631,1.695.571,2.004.734,2.852,1.876h39.77ZM142.434,94.83c0-6.28-.154-12.805-.231-19.248,0-1.142-.386-1.468-1.927-1.468h-39.384c-1.542.49-1.542.571-1.619,13.294l-.077,19.574c0,6.524.077,20.227.231,25.691h42.775l.231-37.843ZM129.562,121.663c3.468-5.465,4.161-6.199,5.24-6.199.848,0,2.774,1.305,4.394,2.936,1.85,1.876,2.543,2.937,2.543,3.915,0,.815-.693,1.224-2.004,1.224h-33.604c-1.387,0-2.852.081-4.238.244-1.079-1.549-1.156-1.712-1.156-1.875,0-.326.231-.571.616-.571,2.004.163,4.548.326,5.78.326h7.708c.23-4.894.23-5.628.308-19.656h-6.474c-1.388,0-2.852.082-4.239.245-1.156-1.549-1.233-1.713-1.233-1.876,0-.326.231-.571.617-.571,2.004.164,4.624.327,5.857.327h5.395c0-6.036,0-6.199-.154-14.599h-8.246c-1.388,0-2.852.082-4.239.245-1.156-1.55-1.233-1.713-1.233-1.876,0-.326.231-.571.617-.571,2.004.163,4.624.326,5.857.326h20.424l1.079-1.631c2.312-3.507,2.929-4.159,3.854-4.159.848,0,1.695.408,3.16,1.631,2.774,2.447,3.931,3.752,3.931,4.812,0,.897-.463,1.223-1.772,1.223h-12.101v.326c0,.652-.54,1.06-1.772,1.549-.154,2.61-.154,3.263-.154,8.156v4.567h3.776c.848-1.142,1.079-1.55,2.081-3.018,1.002-1.468,1.618-2.202,2.235-2.202,1.618,0,6.165,4.159,6.165,5.709,0,.815-.693,1.305-1.85,1.305h-12.408c0,5.627,0,7.177.154,19.737h5.087ZM132.953,114.812c-1.002,0-1.927-.408-2.466-.897-.463-.489-.54-.734-.771-2.447-.308-2.365-1.464-4.567-3.236-6.362-.231-.163-.309-.326-.309-.489,0-.408.693-.571,2.081-.571,5.626,0,9.325,2.365,9.325,5.872,0,2.854-1.927,4.894-4.624,4.894Z"/><path class="cls-2" d="M206.874,10.753l-17.99.353v-4.76c24.82,0,31.483-2.468,38.646-6.346l2.499,1.587c-.333,5.464-.667,10.929-.667,16.217v108.758l17.991.177v4.583h-58.47v-4.583l17.99-.177V10.753Z"/><path class="cls-2" d="M282.896,88.873c-4.131,6.036-11.9,14.049-13.769,14.049-.196,0-.394-.208-.394-.416,0-.312.688-1.145,1.967-3.33,3.442-5.62,8.557-18.628,11.31-29.242,2.065-7.805,4.032-17.691,4.426-22.374,14.85,4.059,17.111,4.995,17.111,7.284,0,1.665-.59,2.29-3.934,3.851-2.852,6.348-4.622,10.302-7.081,14.777,2.754,1.145,4.426,2.394,4.426,3.538,0,.729-.59,1.353-2.36,2.289.295,21.438.295,39.857.394,49.327,0,2.498.099,4.891.099,5.724,0,3.018-.295,3.954-1.476,4.995-1.573,1.353-4.721,2.186-7.769,2.186-3.639,0-4.426-.729-4.426-3.955,0-1.769.491-10.406.885-26.016l.591-22.687ZM341.509,133.413c6.589-10.198,7.769-11.655,9.244-11.655,1.573,0,4.13,2.081,7.375,5.932,2.263,2.81,3.049,4.371,3.049,5.932s-.983,2.394-2.753,2.394h-51.631c-2.852,0-5.9.104-8.752.416-1.771-2.289-1.869-2.498-1.869-2.706,0-.417.296-.729.787-.729,2.164.208,5.016.417,6.393.417h21.733c4.131-17.275,6.491-32.781,8.458-56.507,12.391,3.226,17.406,5.723,17.406,8.533,0,1.561-.59,2.185-4.13,3.538-5.016,15.922-9.343,27.786-16.227,44.436h10.916ZM340.427,71.182c5.802-9.054,6.589-9.678,7.572-9.678,1.18,0,3.737,2.186,7.376,5.828,2.163,2.29,2.852,3.226,2.852,4.371,0,1.249-1.082,2.082-2.557,2.082h-49.958c-2.065,0-4.229,0-6.294.208-1.476-2.185-1.574-2.393-1.574-2.602,0-.417.296-.729.787-.729,1.967.312,4.523.521,5.803.521h13.473l-.295-18.94v-.729c0-1.873,0-2.289.885-2.289,1.771,0,10.031,1.041,11.801,1.457,3.147.833,4.426,1.665,4.426,3.018,0,1.249-.491,1.873-3.344,3.642v13.841h9.048ZM309.646,108.021c.394-10.823-2.164-21.437-5.114-25.08-.295-.416-.295-.521-.295-.833,0-.208.197-.417.59-.417,2.065,0,9.441,8.117,12.588,13.945,3.737,6.764,5.508,13.112,5.508,19.356,0,7.493-2.853,11.76-7.966,11.76-3.737,0-5.704-2.914-5.704-8.533,0-1.665.196-5.724.295-7.285l.099-2.914Z"/><path class="cls-2" d="M156.197,25.879c0,13.663-18.879,24.739-75.934,24.739S4.329,39.542,4.329,25.879,23.208,1.141,80.263,1.141s75.934,11.076,75.934,24.739Z"/><path class="cls-1" d="M43.313,11.427c-2.63.378-4.351,1.409-5.909,3.54-1.526,2.027-2.306,4.192-2.565,7.182,1.137-1.271,2.533-2.027,4.188-2.027,3.734,0,6.527,3.333,6.527,7.766,0,5.154-3.41,9.209-7.728,9.209-4.676,0-8.312-4.811-8.312-10.996,0-5.429,2.857-10.721,7.306-13.539,1.981-1.237,3.896-1.821,6.494-1.993v.859ZM38.216,21.427c-1.071,0-2.11.55-2.792,1.443-.747,1.031-1.104,2.852-1.104,5.67,0,2.852.26,4.845.812,6.048.552,1.168,1.396,1.684,2.598,1.684,1.299,0,2.111-.619,2.565-1.89.455-1.237.714-3.505.714-6.117,0-5.189-.682-6.838-2.792-6.838Z"/><path class="cls-1" d="M69.258,30.881c1.408-2.234,1.977-2.95,2.355-2.95.515,0,1.462.716,2.626,1.976.46.516.649.802.649,1.117,0,.344-.353.602-.894.602h-8.797c.054,2.463.162,4.583.162,6.358v.144c0,.573-.162.888-.568,1.117-.623.373-1.489.544-2.383.544-.812,0-1.19-.287-1.19-.945,0-.143,0-.372.027-.716.081-1.06.162-3.781.162-6.501h-9.177c-.623,0-1.299.028-1.922.086-.487-.63-.514-.688-.514-.745,0-.115.081-.201.217-.201.676.057,1.57.115,2.003.115h2.491c.026-3.351.054-3.953.054-5.356v-1.146c0-.373-.027-.773-.027-1.432,0-.258,0-.344.271-.344.433,0,1.624.229,2.625.544.649.201,1.029.401,1.219.659h2.814c-.026-.859-.026-1.49-.026-1.919,0-1.289,0-2.406-.055-3.609h-4.195c-1.489,2.435-3.113,4.296-5.062,5.785-.894.659-1.895,1.318-2.084,1.318-.108,0-.189-.086-.189-.172s.027-.172.271-.43c2.274-2.635,3.736-6.587,4.331-11.628,4.439.773,5.197,1.031,5.197,1.719,0,.401-.271.63-1.109.945-.406.773-.677,1.26-.921,1.69h10.476c.434-.602.866-1.174,1.3-1.775.406-.602.704-.831,1.002-.831.893,0,3.167,2.091,3.167,2.893,0,.344-.298.487-.975.487h-6.795c.027.057.027.115.027.172,0,.114-.108.229-.243.315-.379.201-.406.229-.406.573l-.055,4.468h2.355l.92-1.375c.515-.773.894-1.146,1.164-1.146.325,0,1.245.602,2.139,1.403.596.544.866.917.866,1.231,0,.344-.352.602-.839.602h-6.605l.082,6.358h4.06ZM58.512,24.523c-.217.115-.271.201-.325.401-.054.201-.081,2.377-.081,4.754,0,.344,0,.573.027,1.203h3.303l.026-6.358h-2.95Z"/><path class="cls-1" d="M84.627,33.889c.434.659.866.888,1.868,1.203,1.056.344,2.924.573,5.955.573,1.732,0,5.252-.143,7.877-.372,1.11-.086,2.085-.201,2.843-.315.189-.028.216-.028.271-.028.108,0,.189.028.189.143,0,.086-.027.143-.325.373-.947.716-1.488,1.976-1.786,3.15-.108.372-.298.802-1.083.859-.487.028-1.922.057-5.278.057-4.061,0-5.522-.229-7.174-.945-1.299-.573-2.49-1.776-3.654-3.981-1.056,1.317-1.922,2.32-3.059,3.695-.568.687-.812.888-1.19.888-.298,0-.542-.172-.731-.544-.487-.916-.758-1.632-1.38-3.293,1.678-.63,2.544-1.031,3.465-1.518l.054-6.931-1.516.115c-.515.029-.84.057-1.462.143-.406-.659-.406-.687-.406-.773,0-.058.055-.086.136-.086.487,0,1.137-.029,1.651-.058l1.354-.086c.677-1.002.947-1.289,1.245-1.289.352,0,.595.114,1.895,1.088.704.544.947.917.947,1.231,0,.344-.243.544-.785.945l.081,5.757ZM82.705,20.227c-.975,0-1.488-.745-1.597-1.891-.162-1.833-.649-2.778-1.191-3.208-.081-.058-.108-.115-.108-.201,0-.115.082-.143.704-.143,2.22,0,4.412,1.146,4.412,2.95,0,1.461-.812,2.492-2.22,2.492ZM98.568,30.652c1.326-1.804,1.65-2.205,2.192-2.234.73-.028,2.599,1.719,2.599,2.406,0,.344-.136.487-.866.487h-7.119c0,.773.081,1.633.081,2.12v.401c0,.516-.217.888-.704,1.088-.406.172-1.001.315-1.624.315-.92,0-1.164-.258-1.164-1.002,0-.573.081-2.32.081-2.921h-5.224c-.379,0-.785,0-1.164.058-.434-.487-.461-.544-.461-.602,0-.115.082-.201.217-.201.649.058,1.219.086,1.543.086h5.089l.027-3.208h-2.058v.258c0,.286-.054.43-.298.602-.379.258-1.028.429-1.65.429-.515,0-1.219-.057-1.219-.773,0-.602.055-1.403.081-2.435.027-1.231.055-2.435.055-4.869,0-.487-.027-.974-.027-1.46,0-.287.055-.344.244-.344.379,0,1.326.201,2.327.544.487.171.677.257.975.544h1.598l-.027-2.635h-4.683c-.379,0-.785,0-1.164.028-.434-.487-.46-.544-.46-.602,0-.114.081-.2.216-.2.785.057,1.219.086,1.543.086h4.521c0-1.117-.054-2.12-.108-3.466,0-.057.027-.086.108-.086.758,0,2.572.287,3.356.487.487.143.759.401.759.659,0,.344-.353.63-.785.945l-.055,1.461h2.762c.46-.659.812-1.146,1.082-1.489.568-.716.758-.831,1.029-.831.352,0,.92.458,1.488.974.596.573,1.11,1.146,1.11,1.518,0,.344-.325.516-1.083.516h-6.415v2.635h1.867c.162-.201.325-.43.542-.716.514-.63.676-.716.947-.716s1.488.659,2.273,1.26c.406.315.596.544.596.831,0,.258-.162.401-.596.802.081,2.034.136,3.495.189,4.354.027.43.027.831.027,1.06,0,.43-.055.602-.298.831-.46.458-1.462.773-2.409.773-.894,0-1.056-.286-1.056-.974h-2.058l.055,3.208h3.194ZM90.501,20.542c-.298.114-.405.229-.433.458-.027.144-.055.945-.055,2.377h2.085v-2.835h-1.598ZM90.014,24.007v2.807h2.085v-2.807h-2.085ZM97.404,21.201c0-.516-.027-.602-.189-.659h-1.922v2.835h2.111v-2.177ZM95.293,24.007l.026,2.807h2.085v-2.807h-2.111Z"/><path class="cls-1" d="M109.85,30.423c-.055.802-.108,1.403-.189,1.948-.136,1.002-.298,1.69-.65,2.492-.46,1.031-1.407,2.377-2.03,3.036-.216.229-.433.344-.541.344-.054,0-.081-.028-.081-.086,0-.057.027-.114.081-.2.649-1.088.894-2.807.894-6.673,0-.773,0-1.26-.055-2.349.189.029.325.057.434.086,2.084.43,2.49.573,2.49.917,0,.172-.081.287-.352.487ZM113.151,26.471c0,2.778.081,8.306.136,10.368.027.458.027.802.027.974,0,.63-.055.859-.217,1.088-.325.401-1.028.659-1.977.659-.73,0-.947-.201-.947-.745,0-.487.027-1.403.081-2.434.082-1.174.189-5.814.189-9.137-.703.229-1.082.344-2.084.659-.136.086-.298.172-.46.258-.108.058-.298.144-.46.144-.217,0-.325-.086-.379-.258-.082-.229-.487-2.062-.623-2.864,1.435.029,2.382.057,3.519.086,1.219-2.263,1.679-3.293,3.141-7.418,1.272.602,2.165,1.088,2.68,1.518.325.258.487.487.487.688,0,.315-.136.401-.947.716-.298.315-.379.43-1.191,1.432-.406.487-2.111,2.406-2.49,2.807l-.298.315h2.49v-.258c0-.257-.162-.974-.352-1.375-.136-.287-.162-.344-.162-.401,0-.058.054-.086.107-.086.298,0,.975.258,1.436.544.866.516,1.38,1.289,1.38,2.12s-.622,1.518-1.435,1.518c-.596,0-.975-.315-.975-.831v-.287l-.677.201ZM113.639,15.759c-1.083,1.231-2.246,2.377-3.086,3.208-.243.229-.487.43-.596.515.677.487,1.11,1.26,1.11,1.948,0,.974-.677,1.833-1.598,1.833-.893,0-1.326-.602-1.353-1.632-.027-1.346-.406-2.463-1.056-3.093-.082-.086-.136-.143-.136-.201,0-.057.081-.143.162-.143.406,0,.975.143,1.977.63.487-1.546.92-3.179,1.38-5.699,3.086.802,4.088,1.117,4.088,1.604,0,.286-.081.659-.894,1.031ZM119.215,26.757c0-.172.055-.229.136-.229.135,0,.379.057.622.115,2.518.573,2.87.745,2.87,1.146,0,.258-.136.43-.569.745-.189,3.208-.486,5.184-1.38,6.73-1.11,1.862-3.222,3.036-5.604,3.551-.649.144-1.354.287-1.597.287-.108,0-.189-.029-.189-.115,0-.114.107-.143.352-.229,2.192-.688,3.925-2.005,4.683-4.153.596-1.69.677-3.781.677-7.389v-.458ZM115.724,34.662c-.596,0-1.057-.258-1.327-.716-.108-.201-.135-.602-.135-.716s.026-.343.026-.544c0-.458.027-.63.027-.859,0-.601-.135-1.231-.324-1.775-.082-.201-.217-.487-.298-.602-.082-.115-.163-.229-.163-.287,0-.057.055-.086.108-.086.325,0,1.028.258,1.679.688,1.109.716,1.813,1.862,1.813,2.95,0,1.146-.731,1.947-1.407,1.947ZM127.065,17.306c1.164-1.862,1.516-2.292,1.841-2.292.649,0,2.599,1.89,2.599,2.521,0,.315-.298.487-.84.487h-6.388v3.781h1.759c1.327-1.891,1.435-2.005,1.76-2.005s.921.43,1.57,1.088c.568.573.73.859.73,1.174,0,.286-.243.429-.622.429h-10.395c-.542,0-1.11.029-1.651.086-.434-.515-.46-.573-.46-.63,0-.115.081-.201.216-.201.487.029,1.11.058,1.408.058h2.354l-.026-3.781h-3.384c-.677,0-1.408.029-2.085.086-.352-.516-.46-.659-.46-.716,0-.115.081-.201.217-.201.568.057,1.299.086,1.651.086h4.061c-.027-1.26-.027-2.521-.055-3.781,0-.114.027-.114.162-.114,1.11,0,2.788.258,3.573.544.379.143.568.344.568.573,0,.344-.216.544-.866.859l-.026,1.948h2.788ZM127.336,24.724c.622-.859,1.083-1.289,1.354-1.289.433,0,1.326.544,2.273,1.546.542.602.785.917.785,1.346,0,.688-.406,1.088-1.516,1.088-.975,0-1.813.401-2.464.917-.46.373-.541.458-.677.458-.081,0-.135-.058-.135-.144,0-.114.027-.229.081-.458.406-1.661.515-2.263.568-2.835h-9.014c.243.544.379,1.146.379,1.69,0,1.375-.84,2.463-1.922,2.463-.894,0-1.543-.602-1.543-1.489,0-.401.162-.745.568-1.146.677-.716.975-1.461.975-2.463,0-.2,0-.258-.055-.515-.026-.144-.026-.172-.026-.229,0-.086.054-.143.107-.143.271,0,.84.573,1.219,1.203h9.041ZM126.172,35.091c0,.401.217.602.758.602,1.245-.029,2.003-.229,2.599-1.088.352-.487.947-2.263,1.218-3.036.055-.172.108-.229.217-.229.081,0,.136.057.136.143s-.055.859-.055,1.49v.544c0,.43,0,.745.027.974.055.63.055.945.515,1.489.216.258.271.888.271,1.174,0,1.031-.839,1.661-1.679,1.805-.703.114-1.516.229-3.465.229-.947,0-1.759-.086-2.327-.229-1.029-.258-1.11-1.088-1.11-2.234v-6.072c0-1.346-.027-2.721-.027-4.067,0-.114.081-.2.163-.2.189,0,2.165.401,2.625.515.461.115.731.315.731.573,0,.286-.163.487-.596.773v6.845Z"/></g></svg>