<svg id="svg_catch_2_2" data-name="svg_catch_2_2" xmlns="http://www.w3.org/2000/svg" viewBox="0 0 233.512 109.848">
<defs><style>
#svg_catch_2_2 .fill{fill:#fff;}
.catch_sp #svg_catch_2_2 .fill,
.whats_catch #svg_catch_2_2 .fill{fill:#9F8C40;}
</style></defs>
<path class="fill" d="M44.981,3.7l-5.108.121V2.183c7.047,0,8.939-.849,10.974-2.183l.709.545c-.095,1.881-.189,3.761-.189,5.581V43.549l5.109.061v1.577h-16.6V43.61l5.108-.061Z"/><path class="fill" d="M65.325,51.859c2.933-1.577,4.21-3.4,4.494-6.369a2.877,2.877,0,0,1-1.656.546c-1.939,0-3.264-1.82-3.264-4.367,0-2.73,1.467-4.731,3.548-4.731,2.271,0,3.69,2.3,3.69,5.944A10.908,10.908,0,0,1,65.8,53.132Z"/><path class="fill" d="M89.214,45.854c-6.859,0-12.2-10.008-12.2-22.806S82.355.242,89.214.242c6.907,0,12.252,9.887,12.252,22.745C101.466,35.907,96.121,45.854,89.214,45.854Zm-4.162-6.065c.662,3.4,2.176,4.609,4.21,4.609,2.318,0,3.594-1.516,4.257-4.913.567-2.85.946-9.037.946-16.5,0-7.581-.379-13.889-.993-16.618-.757-3.4-2.129-4.61-4.258-4.61-2.318,0-3.595,1.516-4.21,4.61-.614,3.153-.993,8.794-.993,16.5A104.806,104.806,0,0,0,85.052,39.789Z"/><path class="fill" d="M117.222,45.854c-6.86,0-12.2-10.008-12.2-22.806S110.362.242,117.222.242c6.905,0,12.251,9.887,12.251,22.745C129.473,35.907,124.127,45.854,117.222,45.854Zm-4.163-6.065c.662,3.4,2.176,4.609,4.21,4.609,2.317,0,3.595-1.516,4.257-4.913.568-2.85.946-9.037.946-16.5,0-7.581-.378-13.889-.993-16.618-.757-3.4-2.129-4.61-4.257-4.61-2.318,0-3.6,1.516-4.21,4.61-.615,3.153-.994,8.794-.994,16.5A104.925,104.925,0,0,0,113.059,39.789Z"/><path class="fill" d="M145.228,45.854c-6.858,0-12.2-10.008-12.2-22.806S138.37.242,145.228.242c6.906,0,12.252,9.887,12.252,22.745C157.48,35.907,152.134,45.854,145.228,45.854Zm-4.162-6.065c.662,3.4,2.176,4.609,4.21,4.609,2.317,0,3.595-1.516,4.257-4.913.568-2.85.946-9.037.946-16.5,0-7.581-.378-13.889-.993-16.618-.757-3.4-2.129-4.61-4.258-4.61-2.317,0-3.595,1.516-4.209,4.61-.615,3.153-.994,8.794-.994,16.5A104.925,104.925,0,0,0,141.066,39.789Z"/><path class="fill" d="M171.368,28.223c3.786.624,5.284,1.706,5.284,3.828a2.579,2.579,0,0,1-2.663,2.663c-1.248,0-1.664-.582-1.664-2.247V32.01a3.979,3.979,0,0,0-1-3.163c.084,2.538.292,17.144.292,18.434a1.556,1.556,0,0,1-.583,1.331,4.5,4.5,0,0,1-2.663.832c-1.332,0-1.832-.374-1.832-1.373,0-.374.084-1.331.084-1.872.125-3.454.291-7.906.375-11.859a22.265,22.265,0,0,1-3.663,4.7c-.749.707-1.206,1.124-1.539,1.373a1.367,1.367,0,0,1-.5.25c-.083,0-.124-.125-.124-.208s.083-.208.291-.541c2.288-3.329,4.535-11.069,5.16-17.727H164.5a19.636,19.636,0,0,0-2.205.125c-.541-.749-.582-.832-.582-.915a.3.3,0,0,1,.332-.292c.541.042,1.249.084,1.582.084h3.2V19.235c0-.915-.042-4.036-.083-7.365,0-.291.041-.374.208-.374.125,0,.791.083,1.207.124,3.2.292,4.494.749,4.494,1.5,0,.417-.167.625-1.248,1.249-.042,1.206-.084,4.868-.084,6.824h.541c.333-.5.5-.791,1.082-1.706a1.342,1.342,0,0,1,1-.791c.665,0,2.413,2.039,2.413,2.83a.688.688,0,0,1-.749.707h-4.286Zm18.474,5.326A11.962,11.962,0,0,0,193.8,39.5a25.368,25.368,0,0,0,6.409,3.994c.916.375,1.249.5,1.249.666,0,.083-.042.125-.333.25a8.236,8.236,0,0,0-3.455,3.5,1.109,1.109,0,0,1-.915.624c-1.29,0-3.787-2.372-5.035-4.868-1.207-2.5-1.873-5.285-2.372-10.112h-.249c.249,6.492.374,10.611.374,12.775v.541c0,1.04-.042,1.29-.458,1.706a4.818,4.818,0,0,1-3.2.915c-1.165,0-1.664-.333-1.664-1.207v-.374c0-.708.125-4.161.291-7.24a20.941,20.941,0,0,1-8.238,6.491,19.353,19.353,0,0,1-4.2,1.456c-.166,0-.291-.041-.291-.166s.083-.208.5-.416a17.8,17.8,0,0,0,4.327-3.2,32.155,32.155,0,0,0,7.449-11.277h-2.539v.5c0,.957-1.414,1.706-3.162,1.706-.874,0-1.29-.291-1.29-1.04l.167-6.116V24.4c0-2-.042-3.08-.042-3.745,0-.208.042-.25.208-.25a14.123,14.123,0,0,1,3.329.707,2.5,2.5,0,0,1,1.29.833h2.538l-.042-4.161h-4.369c-1.581,0-3.2.041-4.785.166-.749-.832-.79-.915-.79-1a.3.3,0,0,1,.333-.291c1.373.083,3.162.167,4.036.167h5.575c-.041-1.831-.083-4.619-.083-5.077,0-.374,0-.457.208-.457.083,0,.832.041,1.831.124a15.462,15.462,0,0,1,3.2.541c.458.167.79.5.79.833,0,.374-.291.665-1.206,1.206v2.83h4.244c1.914-2.663,2.455-3.246,3.037-3.246,1.041,0,3.705,2.538,3.705,3.537,0,.374-.375.666-.874.666H189.135V21.94h3.079c1.332-1.831,1.457-1.956,2-1.956.583,0,1.748.707,3.121,1.872.875.749,1.166,1.124,1.166,1.54,0,.208-.166.541-1.124,1.29,0,1.124.083,3.579.208,7.365.042.708.042,1.207.042,1.415A1.4,1.4,0,0,1,197,34.8a5.052,5.052,0,0,1-2.746.791,2.077,2.077,0,0,1-1.664-.541,5.392,5.392,0,0,1-.167-1.5ZM184.475,22.9H181.9a1.078,1.078,0,0,0-.458.707v3.745h3.079Zm-3.038,5.368v4.41h3.038l.041-4.41Zm10.985-4.827c0-.417-.125-.541-.582-.541h-2.705v4.452h3.329Zm-3.287,4.827v4.41h3.329v-4.41Z"/><path class="fill" d="M50.837,83.054c.026,4.952-3.581,8.987-3.581,8.987s-3.651-4-3.679-8.947,3.579-8.984,3.579-8.984,3.656,3.99,3.681,8.944"/><path class="fill" d="M33.929,84.986c4.939.36,8.677,4.271,8.677,4.271s-4.265,3.329-9.2,2.967-8.681-4.267-8.681-4.267,4.266-3.331,9.206-2.971"/><path class="fill" d="M22.165,72.879c4.908.623,8.435,4.727,8.435,4.727s-4.444,3.1-9.353,2.472-8.44-4.728-8.44-4.728,4.445-3.095,9.358-2.471"/><path class="fill" d="M14.21,57.609c4.761,1.356,7.628,5.943,7.628,5.943s-4.854,2.391-9.614,1.038-7.63-5.945-7.63-5.945,4.854-2.394,9.616-1.036"/><path class="fill" d="M9.5,40.078c4.165,2.685,5.571,7.909,5.571,7.909s-5.343.875-9.5-1.809S0,38.265,0,38.265s5.338-.871,9.5,1.813"/><path class="fill" d="M40.25,75.268c-.7,4.9-4.864,8.36-4.864,8.36s-3.025-4.492-2.317-9.393,4.866-8.362,4.866-8.362,3.02,4.492,2.315,9.395"/><path class="fill" d="M31.68,63.684c-1.126,4.822-5.575,7.907-5.575,7.907s-2.622-4.736-1.492-9.555,5.571-7.907,5.571-7.907,2.62,4.736,1.5,9.555"/><path class="fill" d="M25.191,50.647c-2.379,4.343-7.49,6.115-7.49,6.115s-1.256-5.263,1.127-9.6,7.494-6.115,7.494-6.115,1.249,5.265-1.131,9.6"/><path class="fill" d="M22.408,36.068c-2.816,4.075-8.086,5.31-8.086,5.31s-.7-5.365,2.118-9.437,8.085-5.309,8.085-5.309.7,5.367-2.117,9.436"/><path class="fill" d="M16.1,24.96c.349,4.94-2.989,9.2-2.989,9.2s-3.9-3.75-4.253-8.687,2.989-9.2,2.989-9.2,3.9,3.744,4.253,8.684"/><path class="fill" d="M83.068,107.761l-.426,2.087c-.671-.141-67.03-14.49-70.782-77.3l2.123-.129C17.634,93.587,82.414,107.629,83.068,107.761Z"/><path class="fill" d="M182.675,83.054c-.026,4.952,3.581,8.987,3.581,8.987s3.651-4,3.679-8.947-3.58-8.984-3.58-8.984-3.655,3.99-3.68,8.944"/><path class="fill" d="M199.583,84.986c-4.939.36-8.678,4.271-8.678,4.271s4.266,3.329,9.2,2.967,8.681-4.267,8.681-4.267-4.266-3.331-9.206-2.971"/><path class="fill" d="M211.347,72.879c-4.908.623-8.435,4.727-8.435,4.727s4.444,3.1,9.353,2.472,8.44-4.728,8.44-4.728-4.445-3.095-9.358-2.471"/><path class="fill" d="M219.3,57.609c-4.761,1.356-7.628,5.943-7.628,5.943s4.854,2.391,9.614,1.038,7.63-5.945,7.63-5.945-4.854-2.394-9.616-1.036"/><path class="fill" d="M224.014,40.078c-4.165,2.685-5.571,7.909-5.571,7.909s5.343.875,9.5-1.809,5.568-7.913,5.568-7.913-5.338-.871-9.5,1.813"/><path class="fill" d="M193.262,75.268c.7,4.9,4.864,8.36,4.864,8.36s3.025-4.492,2.317-9.393-4.866-8.362-4.866-8.362-3.02,4.492-2.315,9.395"/><path class="fill" d="M201.832,63.684c1.126,4.822,5.575,7.907,5.575,7.907s2.622-4.736,1.492-9.555-5.572-7.907-5.572-7.907-2.619,4.736-1.5,9.555"/><path class="fill" d="M208.321,50.647c2.379,4.343,7.49,6.115,7.49,6.115s1.256-5.263-1.127-9.6-7.494-6.115-7.494-6.115-1.249,5.265,1.131,9.6"/><path class="fill" d="M211.1,36.068c2.816,4.075,8.086,5.31,8.086,5.31s.7-5.365-2.119-9.437-8.084-5.309-8.084-5.309-.7,5.367,2.117,9.436"/><path class="fill" d="M217.414,24.96c-.349,4.94,2.989,9.2,2.989,9.2s3.9-3.75,4.253-8.687-2.989-9.2-2.989-9.2-3.9,3.744-4.253,8.684"/><path class="fill" d="M150.444,107.761l.426,2.087c.671-.141,67.03-14.49,70.782-77.3l-2.123-.129C215.878,93.587,151.1,107.629,150.444,107.761Z"/><path class="fill" d="M74,62.589H71.769a8.654,8.654,0,0,0-1.25.076v-.871a8.055,8.055,0,0,0,1.25.076h5.224a8.05,8.05,0,0,0,1.249-.076v.871a8.287,8.287,0,0,0-1.249-.076H74.784v2.057H77.22a7.515,7.515,0,0,0,1.211-.076v.859a6.743,6.743,0,0,0-1.211-.076H74.784v2.8a11.3,11.3,0,0,0,2.057.139c1.022,0,1.893-.038,2.953-.126a2.33,2.33,0,0,0-.277.883c-1.1.026-1.187.026-1.527.026a17.152,17.152,0,0,1-2.764-.1C73.257,68.7,72.02,67.94,71.352,66.6a8.552,8.552,0,0,1-1.918,2.865,2.34,2.34,0,0,0-.656-.593,6.733,6.733,0,0,0,1.7-2.247,7.976,7.976,0,0,0,.77-2.877v-.126l.883.177c-.037.164-.037.164-.151.656-.063.3-.253,1.035-.341,1.337a3.855,3.855,0,0,0,1,1.389,4.255,4.255,0,0,0,1.363.77Zm-.19-3.571a4.3,4.3,0,0,0-.075-.8h.984a3.315,3.315,0,0,0-.088.782v.619h3.684c.493,0,.859-.013,1.263-.051a5.56,5.56,0,0,0-.051.859v.795a5.885,5.885,0,0,0,.051.9h-.821V60.356H69.951v1.767h-.833a6.009,6.009,0,0,0,.051-.9v-.795a5.7,5.7,0,0,0-.051-.859c.4.038.77.051,1.275.051h3.419Z"/><path class="fill" d="M82.574,59.5a8.042,8.042,0,0,0-.075-1.2h.883a8.205,8.205,0,0,0-.063,1.211v.227h2.322V59.5a7.338,7.338,0,0,0-.063-1.2h.87a7.645,7.645,0,0,0-.075,1.211v.227a5.429,5.429,0,0,0,1.047-.075v.807a7.141,7.141,0,0,0-1.047-.05v5.388a6.2,6.2,0,0,0,1-.063v.782c-.291-.025-.657-.037-1.149-.037H82.233a5.262,5.262,0,0,0-1.022.063v-.808a5.2,5.2,0,0,0,1.01.063h.353V60.419H82.5a5.774,5.774,0,0,0-1.086.063v-.82a5.367,5.367,0,0,0,1.086.075h.075Zm1.3,7.823A7.143,7.143,0,0,1,81.905,69.5a1.772,1.772,0,0,0-.58-.605,5.025,5.025,0,0,0,1.893-1.969Zm1.767-5.59V60.419H83.319v1.312Zm0,1.969V62.375H83.319V63.7Zm0,2.107V64.343H83.319v1.464Zm-.19,1.11a4.637,4.637,0,0,0,1.237,1.3,2.647,2.647,0,0,0-.581.543,6.411,6.411,0,0,1-1.223-1.451Zm3.218-1.438a6.771,6.771,0,0,1-1.476,4.089,2.021,2.021,0,0,0-.618-.581,4.9,4.9,0,0,0,1.249-2.852,56.891,56.891,0,0,0,.214-5.855,12.773,12.773,0,0,0-.05-1.489,10.154,10.154,0,0,0,1.211.05H90.94a9.814,9.814,0,0,0,1.2-.05,9.954,9.954,0,0,0-.051,1.224v8.506c0,.428-.113.693-.341.819a2.437,2.437,0,0,1-1.022.139c-.177,0-.315-.012-1-.05a3.4,3.4,0,0,0-.2-.9,6.985,6.985,0,0,0,1.388.164c.3,0,.4-.076.4-.278v-2.94Zm.114-3.016c-.025,1.237-.025,1.5-.076,2.309h2.612V62.463Zm2.536-2.915H88.8v2.208h2.524Z"/><path class="fill" d="M95.324,63.876c0-.454.012-.845.05-1.552a9.759,9.759,0,0,1-1.262,1.956,2.6,2.6,0,0,0-.5-.694,11.426,11.426,0,0,0,2.221-3.849,7.394,7.394,0,0,0,.48-1.754l.883.227c-.076.19-.076.19-.366,1.086a18.062,18.062,0,0,1-.719,1.892v6.929c0,.58.025,1.047.063,1.476h-.921a12.64,12.64,0,0,0,.076-1.514ZM102.15,59.8v-.48a7.028,7.028,0,0,0-.075-1.135H103a7.245,7.245,0,0,0-.076,1.16V59.8h.707a8.914,8.914,0,0,0,1.262-.064v.808a9.694,9.694,0,0,0-1.249-.05h-.72v1.729h1.123a8.066,8.066,0,0,0,1.275-.077v.859a8.089,8.089,0,0,0-1.275-.076H98.112a9.594,9.594,0,0,0-1.287.063V62.16a7.233,7.233,0,0,0,1.262.064h.972V60.5h-.543a9.857,9.857,0,0,0-1.237.05v-.808a11.071,11.071,0,0,0,1.262.064h.518v-.48a7.228,7.228,0,0,0-.076-1.135H99.9a6.935,6.935,0,0,0-.075,1.16V59.8Zm-4.24,5.123a6.759,6.759,0,0,0-.05-.946,8.758,8.758,0,0,0,1.123.05h4a8.49,8.49,0,0,0,1.123-.05,6.975,6.975,0,0,0-.05,1v3.269a10.168,10.168,0,0,0,.063,1.362h-.833v-.693H98.68v.693h-.833a12,12,0,0,0,.063-1.324Zm.77,1.161h4.606V64.734H98.68Zm0,2.145h4.606V66.766H98.68Zm3.47-6.006V60.5H99.829v1.729Z"/><path class="fill" d="M108.11,59.7a10.422,10.422,0,0,0-.075-1.4h.934a10.438,10.438,0,0,0-.076,1.413v1.88h.353a4.742,4.742,0,0,0,1.01-.063v.821a7.844,7.844,0,0,0-1.022-.051h-.341v3.963c.543-.253.77-.366,1.426-.732l.075.769a24.338,24.338,0,0,1-3.255,1.54c-.177.063-.366.151-.5.214l-.215-.87a7.132,7.132,0,0,0,1.691-.568V62.3h-.466a4.807,4.807,0,0,0-1.061.076v-.858a4.681,4.681,0,0,0,1.061.075h.466Zm3.862,8.177c0,.3.076.4.379.479a9.116,9.116,0,0,0,2.031.114c1.78,0,2.31-.076,2.512-.366a3.686,3.686,0,0,0,.265-1.7,2.324,2.324,0,0,0,.807.329c-.151,2.334-.378,2.485-3.659,2.485-2.613,0-3.13-.189-3.13-1.173V63.41l-.278.088a6.964,6.964,0,0,0-1.047.4l-.227-.859a4.86,4.86,0,0,0,1.1-.251l.454-.152V60.659a9.058,9.058,0,0,0-.076-1.287h.947a8.866,8.866,0,0,0-.076,1.249v1.766l1.805-.605V59.447a8.193,8.193,0,0,0-.075-1.174h.933a8.331,8.331,0,0,0-.076,1.187v2.069l1.943-.643a9.047,9.047,0,0,0,1-.391c-.05,1.261-.1,2.145-.2,3.381-.088,1.124-.252,1.654-.58,1.843a1.726,1.726,0,0,1-.908.177c-.114,0-.266-.013-.556-.038a2.943,2.943,0,0,0-.189-.8,4.56,4.56,0,0,0,.972.113c.29,0,.353-.063.417-.429a25.677,25.677,0,0,0,.2-3.192l-2.095.719v3.483a8.187,8.187,0,0,0,.076,1.211H113.7a8.424,8.424,0,0,0,.075-1.224v-3.2l-1.805.606Z"/><path class="fill" d="M120.885,59.422a7.649,7.649,0,0,0-.062-1.3h.883a8.307,8.307,0,0,0-.063,1.287V60.57h.315a4.893,4.893,0,0,0,.821-.05V61.3a7.453,7.453,0,0,0-.783-.038h-.316a4.612,4.612,0,0,0,1.451,1.994,3.073,3.073,0,0,0-.466.618,5.443,5.443,0,0,1-1.073-1.577c.026.694.051,1.426.051,2.032V68.18a10.309,10.309,0,0,0,.075,1.464h-.908a8.662,8.662,0,0,0,.088-1.464V64.608a10.115,10.115,0,0,1,.038-1.11c.038-.492.051-.644.063-1.123a9.939,9.939,0,0,1-1.678,3.912,2.93,2.93,0,0,0-.518-.669,10.765,10.765,0,0,0,1.969-4.354h-.707a5.141,5.141,0,0,0-.87.051V60.52a4.97,4.97,0,0,0,.87.05h.82Zm6.461,7.155h1.426a5.563,5.563,0,0,0,1.048-.063v.77a6.24,6.24,0,0,0-1.048-.063h-1.426v1.123h1.641a9.237,9.237,0,0,0,1.3-.063v.807a10.469,10.469,0,0,0-1.313-.076h-4.567v.619h-.821a7.2,7.2,0,0,0,.088-1.313V65.5c0-.315.013-.669.038-1a7.444,7.444,0,0,1-1.022.959,1.771,1.771,0,0,0-.5-.542A9.58,9.58,0,0,0,124.9,61.9h-.732a5.07,5.07,0,0,0-1.059.075v-.82a5.936,5.936,0,0,0,1.072.063h1.085a6.977,6.977,0,0,0,.492-1.224h-1.349a9.492,9.492,0,0,1-.871,1.06,1.437,1.437,0,0,0-.593-.454,5.212,5.212,0,0,0,1.236-1.578,4.169,4.169,0,0,0,.379-.921l.744.24c-.177.391-.264.568-.479.959H128.6a8.913,8.913,0,0,0,1.362-.076v.833a10.145,10.145,0,0,0-1.375-.063h-2.07c-.2.555-.29.782-.491,1.224h3.016a8.174,8.174,0,0,0,1.287-.076v.833a8.506,8.506,0,0,0-1.287-.075h-3.37a8.254,8.254,0,0,1-.9,1.337h1.969a4.416,4.416,0,0,0,.568-1.149l.693.253a6.3,6.3,0,0,1-.517.9h1.476a7.051,7.051,0,0,0,1.162-.076v.8a10.842,10.842,0,0,0-1.174-.063h-1.6v1.022h1.426a5.9,5.9,0,0,0,1.048-.063v.77a7.729,7.729,0,0,0-1.048-.063h-1.426Zm-.693-2.688h-2.246v1.022h2.246Zm-2.246,1.666v1.022h2.246V65.555Zm0,2.789h2.246V67.221h-2.246Z"/><path class="fill" d="M134.43,68.066c0,.58.025,1.06.063,1.5h-.947a12.653,12.653,0,0,0,.077-1.527V63.826c0-.555.012-.947.049-1.527a10.492,10.492,0,0,1-1.413,1.944l-.088-.139a1.951,1.951,0,0,0-.467-.556,12.455,12.455,0,0,0,2.537-3.848,6.879,6.879,0,0,0,.554-1.616l.91.291a5,5,0,0,0-.316.719c-.177.442-.581,1.312-.959,2.031Zm6.826.151c0,.833-.264,1.035-1.4,1.035-.492,0-.972-.025-1.527-.076a2.783,2.783,0,0,0-.24-.858,10.3,10.3,0,0,0,1.729.152c.517,0,.631-.063.631-.328V61.908h-3.962a9.7,9.7,0,0,0-1.351.076V61.1a9.222,9.222,0,0,0,1.313.076h4V59.725a9.548,9.548,0,0,0-.088-1.476h.971a12.085,12.085,0,0,0-.076,1.476v1.451h.619a7.678,7.678,0,0,0,1.2-.076v.858c-.391-.038-.8-.05-1.2-.05h-.619Zm-4.631-5.186a16.03,16.03,0,0,1,2.133,2.852l-.707.542a12.884,12.884,0,0,0-2.082-2.94Z"/><path class="fill" d="M145.816,63.9c0-.568.025-1.073.063-1.653a10.374,10.374,0,0,1-1.35,1.918,1.529,1.529,0,0,0-.454-.72,11.437,11.437,0,0,0,2.372-3.646,8.8,8.8,0,0,0,.53-1.692l.833.266a23.931,23.931,0,0,1-1.186,2.776V68a10.565,10.565,0,0,0,.088,1.476h-.984a9.763,9.763,0,0,0,.088-1.514Zm3.23-2.322c-.479,0-.946.025-1.325.063V60.76a8.982,8.982,0,0,0,1.325.075h4.985a9.548,9.548,0,0,0,1.338-.075v.883c-.367-.038-.846-.063-1.326-.063H151.8v2.663h1.868a9.514,9.514,0,0,0,1.313-.076v.858c-.379-.038-.846-.063-1.3-.063H151.8V68.23h2.613a9.853,9.853,0,0,0,1.376-.076v.871c-.379-.038-.859-.063-1.376-.063h-5.881c-.53,0-1.009.025-1.388.063v-.871a9.765,9.765,0,0,0,1.363.076h2.473V64.962h-1.564c-.467,0-.921.025-1.313.063v-.858a9.3,9.3,0,0,0,1.3.076h1.577V61.58ZM150.2,58.2a15.615,15.615,0,0,1,2.536,1.6l-.593.643a10.344,10.344,0,0,0-2.5-1.678Z"/><path class="fill" d="M161.48,62.854c-1.514.291-1.955.366-3.432.581a2.745,2.745,0,0,0-.391-.77,29.733,29.733,0,0,0,6.561-1.3,5.608,5.608,0,0,0,1.414-.58l.706.694c-.29.076-.29.076-1.223.391-.77.265-1.982.606-2.789.808v1.829l4.581-.555a9.919,9.919,0,0,0,1.249-.24l.089.909h-.19a9.153,9.153,0,0,0-1.086.076l-4.643.58v2.6c0,.328.05.429.315.517a8.755,8.755,0,0,0,1.856.114,5.868,5.868,0,0,0,2.4-.24c.29-.164.366-.5.416-1.767a2.159,2.159,0,0,0,.808.353c-.088,1.288-.265,1.792-.706,2.07-.405.265-1.111.341-2.954.341a7.155,7.155,0,0,1-2.548-.24c-.341-.164-.43-.379-.43-1.009V65.378l-2.94.353a9.035,9.035,0,0,0-1.262.24l-.1-.908h.2a8.942,8.942,0,0,0,1.073-.076l3.028-.379Zm.656-3.924a3.228,3.228,0,0,0-.088-.77h.985a3.941,3.941,0,0,0-.076.77v.593h3.722a12.719,12.719,0,0,0,1.275-.05,5.473,5.473,0,0,0-.05.858v.833a5.634,5.634,0,0,0,.05.883h-.832V60.268H158.3v1.779h-.833a5.823,5.823,0,0,0,.051-.883v-.833a5.556,5.556,0,0,0-.051-.858,12.469,12.469,0,0,0,1.262.05h3.407Z"/><path class="fill" d="M84.619,75.1c-.051.152-.1.278-.19.556a18.212,18.212,0,0,1-.959,2.384v6.891c0,.542.026,1.072.063,1.476H82.6a12.4,12.4,0,0,0,.075-1.515V80.757c0-.58.013-.946.038-1.527a9.1,9.1,0,0,1-1.325,1.944.822.822,0,0,1-.076-.139,1.914,1.914,0,0,0-.239-.353c-.114-.126-.177-.2-.19-.215A11.838,11.838,0,0,0,83,77.211a9.523,9.523,0,0,0,.732-2.372Zm2.814,8.19a11.024,11.024,0,0,1-2.827,3.029,2.569,2.569,0,0,0-.669-.606,8.226,8.226,0,0,0,2.776-2.89Zm2.157-5.565V76.177a6.54,6.54,0,0,0-.075-1.048h.946a5.313,5.313,0,0,0-.076,1.048v1.552h.808a7.324,7.324,0,0,0,1.174-.076v.884a7.551,7.551,0,0,0-1.174-.076h-.808v3.1h1.136a8.142,8.142,0,0,0,1.224-.076v.9a8.408,8.408,0,0,0-1.224-.075H85.312a8.341,8.341,0,0,0-1.211.075v-.9a7.627,7.627,0,0,0,1.211.076h1.061v-3.1h-.631a7.324,7.324,0,0,0-1.174.076v-.884a7.428,7.428,0,0,0,1.174.076h.631V76.164a6.962,6.962,0,0,0-.076-1.035h.933a6.551,6.551,0,0,0-.063,1.048v1.552Zm0,3.836v-3.1H87.167v3.1Zm.291,1.211a9.449,9.449,0,0,0,2.851,2.891,4.3,4.3,0,0,0-.63.693,12.342,12.342,0,0,1-2.916-3.142Z"/><path class="fill" d="M93.847,80.48a4.81,4.81,0,0,0,.593.025c.114,0,.177,0,.467-.012.517-.682.517-.682.744-1.023a14.918,14.918,0,0,0-1.8-2.107l.492-.555c.253.277.316.353.5.555a9.366,9.366,0,0,0,1.148-2.423l.8.316a4.25,4.25,0,0,0-.479.87,18.251,18.251,0,0,1-1.022,1.754c.416.505.5.631.769.985a13.629,13.629,0,0,0,1.414-2.587l.769.391c-.075.114-.164.24-.3.492-.593,1-1.527,2.41-2.2,3.294a19.148,19.148,0,0,0,1.981-.189,9.448,9.448,0,0,0-.593-1.1l.593-.265a17.609,17.609,0,0,1,1.123,2.31l-.643.341c-.1-.328-.139-.429-.227-.669-.518.075-.7.088-1.275.151v4.177a8.7,8.7,0,0,0,.076,1.262h-.909a9.357,9.357,0,0,0,.076-1.262V81.1c-.455.038-.455.038-1.414.1a4.446,4.446,0,0,0-.568.076Zm1.4,1.666a12.965,12.965,0,0,1-.707,3.571l-.694-.316a10.449,10.449,0,0,0,.681-3.407Zm2.6-.278a18.61,18.61,0,0,1,.757,2.864l-.694.2a12.248,12.248,0,0,0-.694-2.84Zm4.2-6.751a6.949,6.949,0,0,0,1.818,2.372,9.853,9.853,0,0,0,1.766,1.262,2.746,2.746,0,0,0-.454.732,10.812,10.812,0,0,1-3.558-3.584,9.715,9.715,0,0,1-3.08,3.508,2.12,2.12,0,0,0-.5-.643,8.043,8.043,0,0,0,3.129-3.647ZM99.955,86.373H99.1a9.244,9.244,0,0,0,.075-1.237v-2.99a7.438,7.438,0,0,0-.05-1,8.739,8.739,0,0,0,.9.038h3.634a8.463,8.463,0,0,0,.883-.038,7.367,7.367,0,0,0-.05,1v2.94a10.626,10.626,0,0,0,.063,1.287h-.871V85.6H99.955Zm-.43-7.534a5.3,5.3,0,0,0,1.136.076h2.272a5.16,5.16,0,0,0,1.123-.076v.871a7.393,7.393,0,0,0-1.161-.063h-2.209a7.4,7.4,0,0,0-1.161.063Zm.43,6.07h3.735V81.893H99.955Z"/><path class="fill" d="M112.73,82.65a5.9,5.9,0,0,0,1.641,1.578,9.627,9.627,0,0,0,3.5,1.287,3.259,3.259,0,0,0-.48.82c-2.676-.707-4.227-1.716-5.439-3.546a4.868,4.868,0,0,1-1.981,2.36A8.712,8.712,0,0,1,107.1,86.31a2.93,2.93,0,0,0-.467-.8,7.643,7.643,0,0,0,2.7-.909,4.189,4.189,0,0,0,1.855-1.956h-3.2a8.4,8.4,0,0,0-1.173.076v-.845a7.048,7.048,0,0,0,1.161.076h3.457a7.287,7.287,0,0,0,.177-1.212h-2.284a6.092,6.092,0,0,0-1.1.063v-.8a6.271,6.271,0,0,0,1.1.063h2.347c.025-.492.025-.631.038-1.123h-2.436a7.741,7.741,0,0,0-1.211.076v-.821a7.406,7.406,0,0,0,1.211.076h2.449a4.63,4.63,0,0,0-.076-1.022h.935a4.493,4.493,0,0,0-.064,1.022h2.638a7.306,7.306,0,0,0,1.211-.076v.821a6.664,6.664,0,0,0-1.211-.076H112.5c-.012.4-.025.707-.05,1.123h2.5a6.12,6.12,0,0,0,1.085-.063v.8a6.011,6.011,0,0,0-1.085-.063H112.4a9.6,9.6,0,0,1-.189,1.212h4.316a7.224,7.224,0,0,0,1.174-.076v.845a8.348,8.348,0,0,0-1.187-.076Zm-1.036-6.915a3.309,3.309,0,0,0-.088-.782h.985a3.965,3.965,0,0,0-.076.782v.48h3.71a12.291,12.291,0,0,0,1.262-.051,5.739,5.739,0,0,0-.05.846v.744a5.661,5.661,0,0,0,.05.871h-.821V76.909h-8.883v1.716h-.833a5.9,5.9,0,0,0,.05-.871v-.732a5.945,5.945,0,0,0-.05-.858,12.376,12.376,0,0,0,1.274.051h3.47Z"/><path class="fill" d="M120.482,82.044a12.843,12.843,0,0,1-.72,3.635l-.669-.353a9.805,9.805,0,0,0,.695-3.42Zm-1.376-1.6a3.091,3.091,0,0,0,.467.025c.089,0,.2,0,.53-.012.492-.682.556-.757.858-1.249a13.564,13.564,0,0,0-1.766-1.931l.416-.593c.277.277.3.315.53.542a8.022,8.022,0,0,0,1.11-2.334l.757.378a7.5,7.5,0,0,0-.5.934,13.725,13.725,0,0,1-.895,1.489c.416.455.556.606.769.883a12.184,12.184,0,0,0,1.174-2.195l.732.391a6.459,6.459,0,0,0-.454.707,31.56,31.56,0,0,1-1.918,2.927c.807-.05,1.073-.088,1.741-.176a8.575,8.575,0,0,0-.492-.959l.517-.253a11.63,11.63,0,0,1,1.061,2.36l-.619.265c-.1-.4-.139-.53-.227-.8-.341.063-.643.1-1.022.151v4.165a9.46,9.46,0,0,0,.076,1.287h-.884a9.46,9.46,0,0,0,.076-1.287V81.073c-.745.076-1.136.114-1.186.114a6.375,6.375,0,0,0-.719.088Zm3.8,1.464a17.064,17.064,0,0,1,.554,2.725l-.68.164a14.549,14.549,0,0,0-.48-2.712Zm3.179,3.142a7.835,7.835,0,0,1-2.927,1.426,2.249,2.249,0,0,0-.48-.631,6.642,6.642,0,0,0,2.84-1.249Zm-1.362-8.543a9.169,9.169,0,0,0-1.161.05v-.744a7.737,7.737,0,0,0,1.186.076h1.716a5.03,5.03,0,0,0-.076-.934h.859a4.046,4.046,0,0,0-.077.934h1.907a8.1,8.1,0,0,0,1.211-.076v.744a9.479,9.479,0,0,0-1.2-.05h-1.919v.745h1.5a6.4,6.4,0,0,0,1.136-.063v.731a8.6,8.6,0,0,0-1.11-.05h-1.528v.807h2.222a7.789,7.789,0,0,0,1.173-.075v.744a10.757,10.757,0,0,0-1.173-.063h-4.9a11.37,11.37,0,0,0-1.224.063V78.6a6.732,6.732,0,0,0,1.224.075h1.968v-.807H125.1a9.386,9.386,0,0,0-1.148.05v-.731a6.565,6.565,0,0,0,1.148.063h1.363v-.745Zm.416,7.925c-.454,0-.82.012-1.136.037a9.309,9.309,0,0,0,.051-1.16V81.048A9.274,9.274,0,0,0,124,79.912c.3.026.58.038,1.111.038h3.558c.543,0,.8-.012,1.123-.038a9.852,9.852,0,0,0-.05,1.173v2.159a10.52,10.52,0,0,0,.05,1.223c-.379-.025-.656-.037-1.085-.037Zm-.379-3.193h4.266V80.53h-4.266Zm0,1.3h4.266v-.745h-4.266Zm0,1.312h4.266v-.757h-4.266Zm3.243.745a8.2,8.2,0,0,0,2.777,1.2,2.829,2.829,0,0,0-.467.669,9.242,9.242,0,0,1-2.852-1.4Z"/><path class="fill" d="M136.259,82.423a16.4,16.4,0,0,0-2.662-1.792l.593-.492c.556.341.694.442,1.06.682a9.4,9.4,0,0,0,1.363-1.212h-2.448a9.172,9.172,0,0,0-1.124.063,9.519,9.519,0,0,0,.051-1.161V76.606a10.168,10.168,0,0,0-.051-1.211,10.644,10.644,0,0,0,1.2.063H140.6a11.045,11.045,0,0,0,1.212-.063,9.977,9.977,0,0,0-.051,1.211v1.905a9.452,9.452,0,0,0,.051,1.161,7.714,7.714,0,0,0-1.148-.063h-3.08a13.016,13.016,0,0,1-1.792,1.6c.455.328.543.391,1.074.808a11.07,11.07,0,0,0,2.423-2.121l.756.442c-.277.24-.277.24-.845.72a17.238,17.238,0,0,1-2.323,1.665c2.146-.076,2.348-.088,4.014-.214a11.6,11.6,0,0,0-1.048-.934l.569-.4a17.183,17.183,0,0,1,2.51,2.461l-.592.5c-.405-.5-.543-.682-.872-1.036-1.666.127-2.41.177-3.735.228v1.855a8.043,8.043,0,0,0,.089,1.287h-.984a8.384,8.384,0,0,0,.087-1.287V83.37c-1.375.05-2.41.088-3.128.1a8.953,8.953,0,0,0-1.528.075l-.151-.858a10.578,10.578,0,0,0,1.766.076c.429,0,.859,0,1.88-.013Zm-.467,1.8a10.442,10.442,0,0,1-2.964,2.044,2.491,2.491,0,0,0-.657-.656,7.486,7.486,0,0,0,2.927-1.83ZM133.836,77.2h3.143V76.088h-3.143Zm0,1.792h3.143V77.817h-3.143Zm3.874-2.9V77.2H141V76.088Zm.013,1.729v1.174H141V77.817Zm1.8,5.83a8.713,8.713,0,0,0,3.092,1.893,3.038,3.038,0,0,0-.556.707,11.045,11.045,0,0,1-3.167-2.171Z"/><path class="fill" d="M144.529,77.211a6.841,6.841,0,0,0,1.1.076h3.042a6.12,6.12,0,0,0,1.1-.076v.833a6.818,6.818,0,0,0-1.1-.063h-3.053a7.353,7.353,0,0,0-1.086.063Zm.594-1.715a5.827,5.827,0,0,0,1.021.063H148.2a5.623,5.623,0,0,0,1-.063v.8a7.5,7.5,0,0,0-1-.051h-2.057a7.4,7.4,0,0,0-1.021.051Zm.011,3.5a5.679,5.679,0,0,0,.909.051h2.247a5.677,5.677,0,0,0,.9-.051v.77a6.331,6.331,0,0,0-.9-.051h-2.247a6.085,6.085,0,0,0-.909.051Zm0,1.741a5.475,5.475,0,0,0,.909.051h2.247a5.677,5.677,0,0,0,.9-.051v.77a5.909,5.909,0,0,0-.9-.05h-2.247a6.01,6.01,0,0,0-.909.05Zm.9,5.679h-.846a8.442,8.442,0,0,0,.076-1.212V83.521a6.351,6.351,0,0,0-.063-1.035,5.712,5.712,0,0,0,.884.051h2.308a8.137,8.137,0,0,0,.859-.038,6.891,6.891,0,0,0-.051,1.009v1.666a6.527,6.527,0,0,0,.076,1.073h-.846v-.492h-2.4Zm-.013-1.325h2.423V83.218h-2.423Zm6.3-8.619a9.15,9.15,0,0,0-.088-1.4h1a9.164,9.164,0,0,0-.088,1.4v2.549h1.2a11.739,11.739,0,0,0,1.514-.076v.909a12.877,12.877,0,0,0-1.514-.076h-1.2v4.821a11.482,11.482,0,0,0,.1,1.8h-1.009a12.928,12.928,0,0,0,.088-1.8V79.773h-1.11a12.2,12.2,0,0,0-1.452.076V78.94a10.948,10.948,0,0,0,1.452.076h1.11Z"/></svg>