<svg id="レイヤー_1" data-name="レイヤー 1" xmlns="http://www.w3.org/2000/svg" viewBox="0 0 208 105"><defs><style>.cls-1{fill:none;}.cls-2{fill:#ae9b51;}.cls-3{fill:#6c6a6a;}</style></defs><rect class="cls-1" width="208" height="105"/><path class="cls-2" d="M45.28,81.22c0,4.39-3.19,8-3.19,8s-3.25-3.55-3.27-7.94,3.18-8,3.18-8,3.26,3.54,3.28,7.94"/><path class="cls-2" d="M30.22,82.93c4.4.32,7.73,3.79,7.73,3.79s-3.8,3-8.2,2.64S22,85.57,22,85.57s3.8-3,8.2-2.64"/><path class="cls-2" d="M19.74,72.18c4.37.56,7.52,4.2,7.52,4.2s-4,2.75-8.33,2.19-7.52-4.19-7.52-4.19,4-2.75,8.33-2.2"/><path class="cls-2" d="M12.66,58.63c4.24,1.2,6.79,5.27,6.79,5.27s-4.32,2.13-8.56.93-6.8-5.28-6.8-5.28,4.33-2.13,8.57-.92"/><path class="cls-2" d="M8.46,43.07c3.71,2.38,5,7,5,7S8.66,50.87,5,48.48s-5-7-5-7,4.75-.77,8.46,1.61"/><path class="cls-2" d="M35.85,74.3c-.62,4.35-4.33,7.43-4.33,7.43s-2.69-4-2.06-8.34S33.79,66,33.79,66s2.69,4,2.06,8.33"/><path class="cls-2" d="M28.22,64c-1,4.28-5,7-5,7s-2.33-4.2-1.33-8.48,5-7,5-7,2.33,4.2,1.33,8.48"/><path class="cls-2" d="M22.44,52.45c-2.12,3.86-6.67,5.43-6.67,5.43s-1.12-4.67,1-8.53,6.68-5.42,6.68-5.42,1.11,4.67-1,8.52"/><path class="cls-2" d="M20,39.51c-2.51,3.62-7.2,4.71-7.2,4.71s-.62-4.76,1.88-8.37,7.21-4.72,7.21-4.72.62,4.77-1.89,8.38"/><path class="cls-2" d="M14.34,29.65c.31,4.38-2.66,8.17-2.66,8.17S8.2,34.49,7.89,30.11s2.66-8.17,2.66-8.17,3.47,3.32,3.79,7.71"/><path class="cls-2" d="M74,103.15,73.61,105c-.59-.13-59.7-12.86-63-68.61l1.9-.12C15.71,90.57,73.41,103,74,103.15Z"/><path class="cls-2" d="M162.72,81.22c0,4.39,3.19,8,3.19,8s3.25-3.55,3.27-7.94-3.18-8-3.18-8-3.26,3.54-3.28,7.94"/><path class="cls-2" d="M177.78,82.93c-4.4.32-7.73,3.79-7.73,3.79s3.8,3,8.2,2.64S186,85.57,186,85.57s-3.8-3-8.2-2.64"/><path class="cls-2" d="M188.26,72.18c-4.37.56-7.52,4.2-7.52,4.2s4,2.75,8.33,2.19,7.52-4.19,7.52-4.19-4-2.75-8.33-2.2"/><path class="cls-2" d="M195.34,58.63c-4.24,1.2-6.79,5.27-6.79,5.27s4.32,2.13,8.56.93,6.8-5.28,6.8-5.28-4.33-2.13-8.57-.92"/><path class="cls-2" d="M199.54,43.07c-3.71,2.38-5,7-5,7s4.76.78,8.46-1.61,5-7,5-7-4.75-.77-8.46,1.61"/><path class="cls-2" d="M172.15,74.3c.62,4.35,4.33,7.43,4.33,7.43s2.69-4,2.06-8.34S174.21,66,174.21,66s-2.69,4-2.06,8.33"/><path class="cls-2" d="M179.78,64c1,4.28,5,7,5,7s2.33-4.2,1.33-8.48-5-7-5-7-2.33,4.2-1.33,8.48"/><path class="cls-2" d="M185.56,52.45c2.12,3.86,6.67,5.43,6.67,5.43s1.12-4.67-1-8.53-6.68-5.42-6.68-5.42-1.11,4.67,1,8.52"/><path class="cls-2" d="M188,39.51c2.51,3.62,7.2,4.71,7.2,4.71s.62-4.76-1.88-8.37-7.21-4.72-7.21-4.72-.62,4.77,1.89,8.38"/><path class="cls-2" d="M193.66,29.65c-.31,4.38,2.66,8.17,2.66,8.17s3.48-3.33,3.79-7.71-2.66-8.17-2.66-8.17-3.47,3.32-3.79,7.71"/><path class="cls-2" d="M134,103.15l.38,1.85c.59-.13,59.7-12.86,63.05-68.61l-1.9-.12C192.29,90.57,134.59,103,134,103.15Z"/><path class="cls-2" d="M60.87,25.76A25,25,0,0,1,54.59,34,21.63,21.63,0,0,1,48,37.63l-.55.17a2.06,2.06,0,0,1-.44.09.13.13,0,0,1-.14-.12c0-.09.06-.14.25-.23A18.7,18.7,0,0,0,52,33.14a30.31,30.31,0,0,0,5-10,27.31,27.31,0,0,1,4.53,1,.75.75,0,0,1,.47.58c0,.38-.11.49-.64.81a9.85,9.85,0,0,0,3.44,4.2,23.45,23.45,0,0,0,8.09,3.56c.2.05.28.11.28.2s0,.12-.19.2a6.67,6.67,0,0,0-2.72,3c-.11.23-.22.32-.44.32-1.37,0-3.51-1.27-5.3-3.1a11.68,11.68,0,0,1-3.13-6.25c-.05-.32-.16-1-.33-2.05Zm5.6,22.49c2-2.78,2.12-2.92,2.53-2.92s1.29.57,2.39,1.79c.55.61.82,1,.82,1.3s-.36.58-1,.58H51.24c-1.48,0-1.7,0-2.86.06-.41-.75-.44-.81-.44-.9s.09-.11.17-.11a24,24,0,0,0,2.83.2h6.64c.08-2.61.08-3.39.08-5.62H52.25a8.48,8.48,0,0,0-1.23.09c-.44-.52-.47-.58-.47-.64a.2.2,0,0,1,.22-.2c.33,0,.77.06,1,.06h5.93c0-1.36,0-4.08-.08-4.89h-4c-.61,0-1.24,0-1.84.09-.41-.55-.44-.61-.44-.67a.2.2,0,0,1,.22-.2c.44,0,1,0,1.26,0h9.69c.22-.31.38-.55.49-.72.58-.93.8-1.16,1.1-1.16.66,0,2.64,1.65,2.64,2.15,0,.28-.25.46-.63.46H62.19c0,.23-.08.29-.36.4s-.41.23-.44,4.49H64c.44-.61.82-1.25,1.23-1.88s.52-.64.83-.64c.85,0,2.91,1.88,2.91,2.66,0,.38-.39.55-1.21.55H61.39c.06,3,.09,4.9.11,5.62Z"/><path class="cls-2" d="M97.22,25.62l.22-.32c.68-1,.85-1.16,1.18-1.16a5.71,5.71,0,0,1,2.28,1.19c.88.63,1.18,1,1.18,1.36s-.14.43-.47.78l-.41.4c0,.9,0,1.62,0,2.09,0,4.74.17,14.44.25,16.7,0,.69,0,1.1,0,1.44,0,.81-.11,1.13-.61,1.42a4,4,0,0,1-2.17.52c-.9,0-1.15-.26-1.15-1.1,0-.63,0-.78,0-1.15H82.37v.75a1,1,0,0,1-.66,1A3.59,3.59,0,0,1,80,50c-1,0-1.35-.24-1.35-.93,0-.32.06-2.9.11-4.83.09-3.3.2-11.64.2-15.23,0-.92,0-1.1-.06-4.37,0-.2,0-.26.14-.26A15.81,15.81,0,0,1,82,25a1.49,1.49,0,0,1,1,.67Zm.41,8c0-2.23,0-4.54-.08-6.83,0-.4-.14-.52-.69-.52h-14c-.54.17-.54.2-.57,4.72l0,6.94c0,2.32,0,7.18.08,9.12H97.55Zm-4.58,9.52c1.23-1.94,1.48-2.2,1.86-2.2A3.53,3.53,0,0,1,96.48,42c.66.66.9,1,.9,1.39s-.24.43-.71.43h-12a12.87,12.87,0,0,0-1.51.09c-.38-.55-.41-.61-.41-.67a.2.2,0,0,1,.22-.2c.71.06,1.62.11,2.06.11H87.8c.09-1.73.09-2,.11-7h-2.3a12.62,12.62,0,0,0-1.51.09c-.41-.55-.44-.61-.44-.67a.2.2,0,0,1,.22-.2c.71.06,1.64.11,2.08.11h1.93c0-2.14,0-2.2-.06-5.18H84.89a12.87,12.87,0,0,0-1.51.09c-.41-.55-.44-.61-.44-.67a.21.21,0,0,1,.22-.2c.72.06,1.65.12,2.09.12h7.27l.39-.58c.82-1.25,1-1.48,1.37-1.48a1.86,1.86,0,0,1,1.13.58c1,.87,1.4,1.33,1.4,1.71s-.17.43-.63.43H91.87v.12c0,.23-.2.37-.64.55,0,.92,0,1.16,0,2.89v1.62h1.34c.31-.4.39-.55.75-1.07s.57-.78.79-.78c.58,0,2.2,1.48,2.2,2,0,.29-.25.46-.66.46H91.18c0,2,0,2.55,0,7Zm1.2-2.43a1.31,1.31,0,0,1-.87-.32c-.17-.17-.2-.26-.28-.86A4,4,0,0,0,92,37.31a.23.23,0,0,1-.11-.17c0-.15.25-.21.74-.21,2,0,3.32.84,3.32,2.09A1.63,1.63,0,0,1,94.25,40.75Z"/><path class="cls-2" d="M114.55,3.82l-6.41.12V2.25c8.84,0,11.22-.87,13.77-2.25l.89.56c-.12,1.94-.24,3.88-.24,5.76v38.6L129,45v1.63H108.14V45l6.41-.06Z"/><path class="cls-2" d="M137.33,31.55c-1.47,2.14-4.24,5-4.9,5a.15.15,0,0,1-.14-.15,9.39,9.39,0,0,1,.7-1.18,47.25,47.25,0,0,0,4-10.38,59.1,59.1,0,0,0,1.57-7.94c5.29,1.44,6.1,1.78,6.1,2.59,0,.59-.21.81-1.4,1.37-1,2.25-1.65,3.65-2.53,5.24,1,.41,1.58.85,1.58,1.26,0,.25-.21.48-.84.81.1,7.61.1,14.14.14,17.5,0,.89,0,1.74,0,2,0,1.07-.1,1.4-.52,1.77a4.63,4.63,0,0,1-2.77.77c-1.29,0-1.57-.25-1.57-1.4,0-.63.17-3.69.31-9.23Zm20.88,15.8c2.34-3.62,2.76-4.13,3.29-4.13s1.47.74,2.63,2.1c.8,1,1.08,1.55,1.08,2.11s-.35.85-1,.85H145.84a29.73,29.73,0,0,0-3.12.14c-.63-.81-.66-.88-.66-1a.25.25,0,0,1,.28-.25c.77.07,1.79.14,2.28.14h7.74a123.82,123.82,0,0,0,3-20c4.41,1.14,6.2,2,6.2,3,0,.55-.21.77-1.47,1.25-1.79,5.65-3.33,9.86-5.78,15.77Zm-.39-22.08c2.07-3.22,2.35-3.44,2.7-3.44s1.33.78,2.62,2.07c.78.81,1,1.15,1,1.55s-.38.74-.91.74H145.46a20.87,20.87,0,0,0-2.24.08c-.53-.78-.57-.85-.57-.93a.26.26,0,0,1,.28-.26,16.65,16.65,0,0,0,2.07.19h4.8l-.1-6.72v-.26c0-.67,0-.81.31-.81a40.1,40.1,0,0,1,4.2.51c1.12.3,1.58.59,1.58,1.07s-.18.67-1.19,1.3v4.91Zm-11,13.07c.14-3.84-.77-7.61-1.82-8.9-.11-.15-.11-.18-.11-.29s.07-.15.21-.15c.74,0,3.36,2.88,4.49,5a14,14,0,0,1,2,6.87c0,2.66-1,4.17-2.84,4.17-1.33,0-2-1-2-3,0-.59.07-2,.1-2.58Z"/><path class="cls-3" d="M60,65.07H58a7,7,0,0,0-1.12.07v-.77a8.25,8.25,0,0,0,1.12.06h4.65a8.25,8.25,0,0,0,1.12-.06v.77a6.78,6.78,0,0,0-1.12-.07h-2V66.9h2.18a6.06,6.06,0,0,0,1.07-.07v.76a6.58,6.58,0,0,0-1.07-.06H60.68V70a10.1,10.1,0,0,0,1.84.13c.91,0,1.68,0,2.63-.11a2,2,0,0,0-.25.78l-1.36,0a15,15,0,0,1-2.46-.09,4.09,4.09,0,0,1-3.45-2.1,7.85,7.85,0,0,1-1.71,2.54,2.21,2.21,0,0,0-.59-.53,6,6,0,0,0,1.52-2,7.17,7.17,0,0,0,.69-2.56V66l.78.16-.13.58c-.06.27-.23.92-.31,1.19a3.62,3.62,0,0,0,.89,1.23,3.82,3.82,0,0,0,1.22.68Zm-.17-3.17a3.49,3.49,0,0,0-.07-.71h.88a2.79,2.79,0,0,0-.08.7v.55h3.28a9.79,9.79,0,0,0,1.13,0,4.33,4.33,0,0,0,0,.76v.71a4.61,4.61,0,0,0,0,.8h-.73V63.09H56.38v1.57h-.75a4.61,4.61,0,0,0,0-.8v-.71a4.33,4.33,0,0,0,0-.76,9.86,9.86,0,0,0,1.14,0h3Z"/><path class="cls-3" d="M67.62,62.33a6.44,6.44,0,0,0-.07-1.07h.79a7.9,7.9,0,0,0-.06,1.08v.2h2.07v-.21a7.28,7.28,0,0,0,0-1.07h.77A7.61,7.61,0,0,0,71,62.34v.2a4.37,4.37,0,0,0,.93-.07v.72a5.35,5.35,0,0,0-.93,0v4.79a4.72,4.72,0,0,0,.88-.06v.7c-.25,0-.58,0-1,0H67.32a5,5,0,0,0-.91.06v-.72a4.13,4.13,0,0,0,.9.06h.31V63.14h-.07a4.55,4.55,0,0,0-1,.06v-.73a4.27,4.27,0,0,0,1,.07h.07Zm1.16,6.94A6.23,6.23,0,0,1,67,71.21a1.43,1.43,0,0,0-.51-.53,4.45,4.45,0,0,0,1.68-1.75Zm1.57-5V63.14H68.28v1.17Zm0,1.75V64.88H68.28v1.18Zm0,1.87v-1.3H68.28v1.3Zm-.16,1a4.15,4.15,0,0,0,1.1,1.15,2.36,2.36,0,0,0-.52.48,5.83,5.83,0,0,1-1.09-1.29Zm2.86-1.28a6,6,0,0,1-1.31,3.63,1.75,1.75,0,0,0-.55-.52,4.36,4.36,0,0,0,1.11-2.53,51.1,51.1,0,0,0,.19-5.2,12.6,12.6,0,0,0,0-1.32,10.1,10.1,0,0,0,1.08,0h1.55a10,10,0,0,0,1.07,0,7.52,7.52,0,0,0-.05,1.08v7.56c0,.38-.1.62-.3.73a2.2,2.2,0,0,1-.91.12l-.89,0a3.4,3.4,0,0,0-.18-.8,6.51,6.51,0,0,0,1.24.15c.27,0,.36-.07.36-.25V67.64Zm.1-2.68c0,1.1,0,1.33-.06,2.05h2.33V65Zm2.27-2.59H73.17v2h2.25Z"/><path class="cls-3" d="M79,66.21c0-.4,0-.75,0-1.37a8.36,8.36,0,0,1-1.12,1.73,2.36,2.36,0,0,0-.45-.61,10.26,10.26,0,0,0,2-3.42A6.1,6.1,0,0,0,79.85,61l.79.2a10.12,10.12,0,0,0-.32,1c-.21.63-.38,1.05-.65,1.68V70c0,.52,0,.93.06,1.31h-.82A12.05,12.05,0,0,0,79,70Zm6.08-3.62v-.42a5.62,5.62,0,0,0-.07-1h.83a5.86,5.86,0,0,0-.07,1v.4h.63a8.9,8.9,0,0,0,1.12-.05v.72a7.4,7.4,0,0,0-1.11,0h-.64v1.54h1a7.72,7.72,0,0,0,1.13-.07v.76a7.72,7.72,0,0,0-1.13-.07H81.46a7.53,7.53,0,0,0-1.14.06v-.74a6.86,6.86,0,0,0,1.12.06h.87V63.21h-.49a7.58,7.58,0,0,0-1.1,0v-.72a11.09,11.09,0,0,0,1.13.05h.46v-.42a7,7,0,0,0-.07-1h.82a6.71,6.71,0,0,0-.07,1v.4Zm-3.78,4.55a6.85,6.85,0,0,0,0-.84,6.55,6.55,0,0,0,1,0H85.8a6.46,6.46,0,0,0,1,0,5.4,5.4,0,0,0,0,.89v2.9a8.14,8.14,0,0,0,.06,1.21h-.75v-.61H82v.61h-.74c0-.31,0-.67,0-1.17Zm.69,1h4.1V67H82Zm0,1.9h4.1v-1.3H82Zm3.09-5.33V63.21H83v1.54Z"/><path class="cls-3" d="M90.37,62.5a8.38,8.38,0,0,0-.07-1.24h.83a10.58,10.58,0,0,0-.06,1.26v1.67h.31a4.54,4.54,0,0,0,.9-.06v.73a6,6,0,0,0-.91,0h-.3v3.52a14.12,14.12,0,0,0,1.27-.65l.06.69a21.67,21.67,0,0,1-2.9,1.36l-.45.19-.19-.77a6.66,6.66,0,0,0,1.51-.5V64.81H90a4,4,0,0,0-.94.07v-.76a4.48,4.48,0,0,0,.94.07h.42Zm3.44,7.27c0,.27.07.36.34.42a8.08,8.08,0,0,0,1.81.1c1.58,0,2.06-.06,2.24-.32a3.35,3.35,0,0,0,.23-1.51,2.31,2.31,0,0,0,.72.29C99,70.82,98.81,71,95.89,71c-2.33,0-2.79-.17-2.79-1V65.8l-.25.08a5.19,5.19,0,0,0-.93.36l-.2-.77a4.38,4.38,0,0,0,1-.22l.4-.13V63.36A7.53,7.53,0,0,0,93,62.21h.85a7.23,7.23,0,0,0-.07,1.11v1.57l1.61-.54V62.28a6.3,6.3,0,0,0-.07-1h.83a8.14,8.14,0,0,0-.07,1v1.84l1.74-.57a7.17,7.17,0,0,0,.89-.35c0,1.12-.09,1.91-.18,3s-.23,1.47-.52,1.64a1.56,1.56,0,0,1-.81.16l-.5,0a2.4,2.4,0,0,0-.17-.7,3.94,3.94,0,0,0,.87.1c.26,0,.32-.06.37-.38A21.49,21.49,0,0,0,98,64.15l-1.87.64v3.09A8,8,0,0,0,96.18,69h-.83a6.63,6.63,0,0,0,.07-1.09V65l-1.61.53Z"/><path class="cls-3" d="M101.75,62.26a6.16,6.16,0,0,0-.06-1.16h.79a6.71,6.71,0,0,0-.06,1.15v1h.28a3.67,3.67,0,0,0,.73-.05v.7c-.21,0-.43,0-.69,0h-.28a4,4,0,0,0,1.29,1.78,3,3,0,0,0-.42.54,4.68,4.68,0,0,1-1-1.4c0,.62,0,1.27,0,1.81V70a8.49,8.49,0,0,0,.07,1.3h-.81a7.31,7.31,0,0,0,.08-1.3V66.86c0-.46,0-.59,0-1s0-.57.06-1a8.85,8.85,0,0,1-1.5,3.47,2.88,2.88,0,0,0-.46-.59,9.63,9.63,0,0,0,1.76-3.87H101a5,5,0,0,0-.78,0v-.71a3.79,3.79,0,0,0,.78.05h.73Zm5.75,6.35h1.28a5.57,5.57,0,0,0,.93,0v.68a6.12,6.12,0,0,0-.93-.06H107.5v1H109a9.21,9.21,0,0,0,1.16-.05v.71a10.5,10.5,0,0,0-1.17-.06h-4.08v.55h-.73a6.09,6.09,0,0,0,.08-1.17v-2.5c0-.28,0-.59,0-.89a7.53,7.53,0,0,1-.91.86,1.85,1.85,0,0,0-.46-.49,8.32,8.32,0,0,0,2.42-2.69h-.65a4.87,4.87,0,0,0-.94.07v-.73a4.67,4.67,0,0,0,1,.06h1a6.27,6.27,0,0,0,.44-1.09h-1.21a7.14,7.14,0,0,1-.77.94,1.31,1.31,0,0,0-.53-.4,4.52,4.52,0,0,0,1.1-1.4,3.43,3.43,0,0,0,.34-.82l.66.21a8.5,8.5,0,0,1-.42.86h3.36a8.59,8.59,0,0,0,1.21-.07v.74a8.21,8.21,0,0,0-1.22-.06h-1.85a11.15,11.15,0,0,1-.44,1.09H109a6.63,6.63,0,0,0,1.15-.07v.74a8.37,8.37,0,0,0-1.15-.07h-3a7.09,7.09,0,0,1-.8,1.19H107a3.73,3.73,0,0,0,.5-1l.62.23a5.52,5.52,0,0,1-.46.79h1.31a7.18,7.18,0,0,0,1-.06v.7c-.3,0-.65,0-1,0H107.5v.9h1.28a5.87,5.87,0,0,0,.93,0v.68a7.75,7.75,0,0,0-.93-.05H107.5Zm-.61-2.38h-2v.9h2Zm-2,1.48v.9h2v-.9Zm0,2.47h2v-1h-2Z"/><path class="cls-3" d="M113.81,69.94a13,13,0,0,0,.06,1.33H113a10.26,10.26,0,0,0,.07-1.36V66.17c0-.49,0-.84,0-1.36a9.29,9.29,0,0,1-1.26,1.73l-.08-.12a1.79,1.79,0,0,0-.42-.5,11,11,0,0,0,2.26-3.42,6,6,0,0,0,.5-1.43l.81.26a3.68,3.68,0,0,0-.28.64c-.16.39-.52,1.16-.86,1.8Zm6.09.13c0,.74-.24.92-1.25.92a13,13,0,0,1-1.36-.07,2.47,2.47,0,0,0-.22-.76,9.36,9.36,0,0,0,1.54.13c.46,0,.57-.05.57-.29V64.47h-3.54a9.72,9.72,0,0,0-1.2.06v-.78a9,9,0,0,0,1.17.07h3.57V62.53a9,9,0,0,0-.08-1.31H120a11.91,11.91,0,0,0-.06,1.31v1.29h.55a7.64,7.64,0,0,0,1.07-.07v.76c-.35,0-.71,0-1.07,0h-.55Zm-4.13-4.61a14.14,14.14,0,0,1,1.9,2.54l-.63.48a10.92,10.92,0,0,0-1.86-2.61Z"/><path class="cls-3" d="M124.8,67.31a6.92,6.92,0,0,1-1.58,4.08,2.91,2.91,0,0,0-.64-.52c1.25-1.45,1.56-2.62,1.56-5.9,0-.6,0-.94,0-1.31.36,0,.62,0,1.12,0h5.39a10.5,10.5,0,0,0,1.07,0,9,9,0,0,0,0,1V67a8.16,8.16,0,0,0,.05,1.12h-.8v-.8Zm7.8-4.85a7.4,7.4,0,0,0-1.25-.07h-7a10.87,10.87,0,0,0-1.25.07v-.8a8.53,8.53,0,0,0,1.25.07h7a8.27,8.27,0,0,0,1.25-.07Zm-1.71,4.19V64.37h-6v1c0,.31,0,1-.06,1.28Z"/><path class="cls-3" d="M135,66.28a5.14,5.14,0,0,0,.7,1.69,8.51,8.51,0,0,0,.64-2.51h-1c-.32,0-.71,0-1,0a19.59,19.59,0,0,0,1.82-3.16h-1.35a4.4,4.4,0,0,0-.76,0v-.73a3.58,3.58,0,0,0,.78.06h1.06a5.53,5.53,0,0,0,.84,0l.32.42c-.06.1-.13.24-.24.46a17.77,17.77,0,0,1-1.33,2.3h.73a4.39,4.39,0,0,0,.89,0,3.93,3.93,0,0,0-.09.56,10.91,10.91,0,0,1-.89,3.23c1,1.21,2.16,1.65,4.52,1.65,1.11,0,2.48-.07,3.51-.16a2.43,2.43,0,0,0-.24.78c-.83,0-2.25,0-3.11,0-2.67,0-3.81-.39-5-1.73a7.93,7.93,0,0,1-1.56,2,1.75,1.75,0,0,0-.53-.55,7,7,0,0,0,1.66-2,7.5,7.5,0,0,1-.77-1.45,5.83,5.83,0,0,0-.28-.62Zm4.94-3.81h-1.44a5,5,0,0,0-.81.05v-.67a3.9,3.9,0,0,0,.84.06h1.41a8.45,8.45,0,0,0-.05-.85h.76a4.5,4.5,0,0,0-.06.85h1.78c.37,0,.62,0,.82,0,0,0,0,0,0,.19s0,.35,0,.51v.8h.06a4.19,4.19,0,0,0,.84-.07V64a6.44,6.44,0,0,0-.84,0h-.06v.92c0,.23,0,.52,0,.64a7.68,7.68,0,0,0-.8,0h-1.8v1h1.8a6.11,6.11,0,0,0,1-.06V67a9.37,9.37,0,0,0-1,0h-1.79v1h2.31a7.11,7.11,0,0,0,1.05-.07v.68a9.72,9.72,0,0,0-1.05,0h-2.31v.28a6.9,6.9,0,0,0,.06,1h-.76a9.42,9.42,0,0,0,.05-1v-.29h-1.8a7.23,7.23,0,0,0-1,0v-.69a6.62,6.62,0,0,0,1,.07h1.79V67h-1.5a8.28,8.28,0,0,0-.93,0v-.67a5.18,5.18,0,0,0,.93.06h1.5v-1h-1.47a6.3,6.3,0,0,0-.79,0v-.66a4.51,4.51,0,0,0,.82,0h1.44v-1h-1.88a5.72,5.72,0,0,0-1,.06v-.69a5.6,5.6,0,0,0,1,.07h1.86Zm2.58.91v-.91h-1.93v.91Zm-1.93,1.53h1.93v-1h-1.93Z"/><path class="cls-3" d="M145.71,63.05h.41l.64,0c1.33-.1,4.93-.3,6.38-.37a8.1,8.1,0,0,0,1.34-.12l.07.84a5.29,5.29,0,0,0-1.26.14,5.85,5.85,0,0,0-2.16,1.14,3.4,3.4,0,0,0-1.38,2.58,2.19,2.19,0,0,0,1.57,2.08,5.84,5.84,0,0,0,1.69.36h.11l-.14.9-.35-.06a5.6,5.6,0,0,1-2.43-.87A2.7,2.7,0,0,1,149,67.36a4.23,4.23,0,0,1,2.1-3.44,6.78,6.78,0,0,1,1.07-.6,22.32,22.32,0,0,1-2.47.25,34.66,34.66,0,0,0-3.88.37Z"/><path class="cls-3" d="M73.36,81.18c0-.51,0-1,0-1.47a9,9,0,0,1-1.2,1.7,1.42,1.42,0,0,0-.41-.64,10,10,0,0,0,2.12-3.24,8.43,8.43,0,0,0,.47-1.5l.74.24a20.59,20.59,0,0,1-1,2.46v6.09a10.47,10.47,0,0,0,.07,1.31h-.87a9.3,9.3,0,0,0,.08-1.34Zm2.87-2.07c-.42,0-.84,0-1.18.06v-.78a9,9,0,0,0,1.18.06h4.45a9.43,9.43,0,0,0,1.19-.06v.78c-.33,0-.75-.06-1.18-.06h-2v2.37h1.66a7.63,7.63,0,0,0,1.17-.07v.76c-.34,0-.75,0-1.16,0H78.69V85H81A8.06,8.06,0,0,0,82.24,85v.78A10.86,10.86,0,0,0,81,85.67H75.77a10.74,10.74,0,0,0-1.23.06V85a8,8,0,0,0,1.21.07H78v-2.9h-1.4c-.42,0-.82,0-1.17,0v-.76a7.49,7.49,0,0,0,1.16.07H78V79.11Zm1-3a14.3,14.3,0,0,1,2.26,1.42l-.53.58a9.18,9.18,0,0,0-2.23-1.49Z"/><path class="cls-3" d="M87.31,80.25c-1.35.25-1.74.32-3.06.51a2.27,2.27,0,0,0-.35-.68,26.45,26.45,0,0,0,5.85-1.16A4.84,4.84,0,0,0,91,78.41l.63.61c-.26.07-.26.07-1.09.35s-1.77.54-2.49.72v1.62l4.09-.49A7.89,7.89,0,0,0,93.26,81l.08.81h-.17a9.28,9.28,0,0,0-1,.06l-4.14.52v2.31c0,.29,0,.38.28.46a8.55,8.55,0,0,0,1.66.1,5.08,5.08,0,0,0,2.13-.22c.26-.14.33-.44.38-1.56a1.9,1.9,0,0,0,.72.31c-.08,1.14-.24,1.59-.63,1.84s-1,.3-2.64.3a6.64,6.64,0,0,1-2.27-.21c-.3-.15-.38-.34-.38-.9V82.49l-2.62.31a11,11,0,0,0-1.13.21l-.09-.8h.18a7.21,7.21,0,0,0,1-.07l2.7-.34Zm.58-3.49a3.14,3.14,0,0,0-.07-.68h.87a3.82,3.82,0,0,0-.06.68v.53h3.31a9.45,9.45,0,0,0,1.14-.05A5.36,5.36,0,0,0,93,78v.74a5.4,5.4,0,0,0,0,.79h-.74V78H84.48v1.58h-.75a4.49,4.49,0,0,0,0-.79V78a4.27,4.27,0,0,0,0-.76,9.27,9.27,0,0,0,1.13.05h3Z"/><path class="cls-3" d="M97.55,76.18c0,.13-.09.24-.17.49a15.52,15.52,0,0,1-.85,2.12v6.12a12.56,12.56,0,0,0,.06,1.31h-.84a9.83,9.83,0,0,0,.07-1.34V81.2c0-.52,0-.84,0-1.36a8,8,0,0,1-1.18,1.73l-.06-.12a2.83,2.83,0,0,0-.22-.32l-.17-.19a10.32,10.32,0,0,0,1.89-2.89,8.48,8.48,0,0,0,.66-2.11Zm2.51,7.27a9.55,9.55,0,0,1-2.52,2.69A2.36,2.36,0,0,0,97,85.6,7.3,7.3,0,0,0,99.42,83ZM102,78.51V77.13a6.41,6.41,0,0,0-.06-.93h.84a4.4,4.4,0,0,0-.07.93v1.38h.72a6,6,0,0,0,1-.07v.79a6.27,6.27,0,0,0-1-.07h-.72v2.76h1a8.12,8.12,0,0,0,1.1-.07v.79a8.44,8.44,0,0,0-1.1-.06H98.17a8.32,8.32,0,0,0-1.08.06v-.79a7.47,7.47,0,0,0,1.08.07h1V79.16h-.57a6,6,0,0,0-1,.07v-.79a6.06,6.06,0,0,0,1,.07h.57V77.12a6.74,6.74,0,0,0-.07-.92h.83a6.31,6.31,0,0,0-.06.93v1.38Zm0,3.41V79.16H99.82v2.76Zm.26,1.07a8.53,8.53,0,0,0,2.54,2.57,3.85,3.85,0,0,0-.56.62,11.19,11.19,0,0,1-2.6-2.8Z"/><path class="cls-3" d="M105.77,81a4.78,4.78,0,0,0,.53,0h.42c.46-.6.46-.6.66-.9a13,13,0,0,0-1.61-1.88l.44-.49c.22.25.28.31.45.49a8.17,8.17,0,0,0,1-2.15l.71.28a4.47,4.47,0,0,0-.43.78,13.48,13.48,0,0,1-.91,1.55c.37.45.45.56.69.88a11.64,11.64,0,0,0,1.26-2.3l.69.35c-.07.1-.15.21-.28.43a34.65,34.65,0,0,1-2,2.93,15.68,15.68,0,0,0,1.76-.17,9.3,9.3,0,0,0-.52-1l.52-.24a14.86,14.86,0,0,1,1,2l-.57.31c-.09-.3-.12-.39-.2-.6-.46.07-.62.08-1.14.14v3.71a8.56,8.56,0,0,0,.07,1.12h-.81a7.55,7.55,0,0,0,.07-1.12V81.5c-.41,0-.41,0-1.26.09a4.46,4.46,0,0,0-.51.07ZM107,82.43a11.36,11.36,0,0,1-.63,3.17l-.62-.28a9.18,9.18,0,0,0,.61-3Zm2.32-.24a16,16,0,0,1,.67,2.54l-.62.18a10.21,10.21,0,0,0-.62-2.52Zm3.74-6a6.28,6.28,0,0,0,1.62,2.11,8.78,8.78,0,0,0,1.58,1.12,2.31,2.31,0,0,0-.41.65,9.73,9.73,0,0,1-3.17-3.19A8.68,8.68,0,0,1,110,80a2,2,0,0,0-.45-.57,7.16,7.16,0,0,0,2.78-3.24Zm-1.87,10h-.76a9.12,9.12,0,0,0,.07-1.1V82.43a5.57,5.57,0,0,0,0-.88c.23,0,.46,0,.8,0h3.24c.34,0,.56,0,.79,0a5.42,5.42,0,0,0,0,.88V85a8.34,8.34,0,0,0,.06,1.15h-.78V85.5h-3.32Zm-.38-6.69a5.29,5.29,0,0,0,1,.06h2a5.11,5.11,0,0,0,1-.06v.77a5.86,5.86,0,0,0-1-.06h-2a6,6,0,0,0-1,.06Zm.38,5.39h3.33V82.21h-3.33Z"/><path class="cls-3" d="M122.59,82.88a5.14,5.14,0,0,0,1.47,1.4,8.51,8.51,0,0,0,3.11,1.14,3.27,3.27,0,0,0-.43.73A7.41,7.41,0,0,1,121.9,83a4.3,4.3,0,0,1-1.77,2.1,7.8,7.8,0,0,1-2.55,1,2.86,2.86,0,0,0-.42-.71,6.85,6.85,0,0,0,2.41-.8,3.74,3.74,0,0,0,1.65-1.74h-2.86a6.72,6.72,0,0,0-1,.07V82.2a6.93,6.93,0,0,0,1,.06h3.09a6.84,6.84,0,0,0,.15-1.07h-2a6.11,6.11,0,0,0-1,0v-.7a6.19,6.19,0,0,0,1,0h2.09c0-.43,0-.56,0-1h-2.17a7.9,7.9,0,0,0-1.08.06v-.72a7.51,7.51,0,0,0,1.08.06h2.18a4.66,4.66,0,0,0-.06-.91h.83a3.76,3.76,0,0,0-.06.91h2.35a7.32,7.32,0,0,0,1.08-.06v.72a6.57,6.57,0,0,0-1.08-.06h-2.36c0,.36,0,.62,0,1h2.22a6,6,0,0,0,1,0v.7a6,6,0,0,0-1,0H122.3a8.92,8.92,0,0,1-.17,1.07H126a7.08,7.08,0,0,0,1-.06V83a6.59,6.59,0,0,0-1-.07Zm-.92-6.14a2.79,2.79,0,0,0-.08-.7h.88a4.05,4.05,0,0,0-.07.7v.42h3.31c.47,0,.76,0,1.12,0a5.66,5.66,0,0,0,0,.75v.66a5.5,5.5,0,0,0,0,.77h-.73V77.78h-7.92V79.3h-.74a4.25,4.25,0,0,0,0-.77v-.65a4.33,4.33,0,0,0,0-.76c.36,0,.66,0,1.14,0h3.09Z"/><path class="cls-3" d="M129.5,82.34a11.59,11.59,0,0,1-.64,3.23l-.6-.31a8.72,8.72,0,0,0,.62-3Zm-1.23-1.42a3.1,3.1,0,0,0,.42,0h.47a13.41,13.41,0,0,0,.76-1.11,11.57,11.57,0,0,0-1.57-1.71l.37-.53.47.48a7,7,0,0,0,1-2.07l.68.33a5,5,0,0,0-.45.83,12.57,12.57,0,0,1-.8,1.33,9.36,9.36,0,0,1,.68.78,10.64,10.64,0,0,0,1.05-2l.65.35a5.19,5.19,0,0,0-.4.63,31.09,31.09,0,0,1-1.71,2.6c.72,0,1-.08,1.55-.16a7,7,0,0,0-.44-.85l.46-.23a9.94,9.94,0,0,1,1,2.1l-.55.23a7,7,0,0,0-.21-.7l-.91.13v3.7a9.15,9.15,0,0,0,.07,1.14H130a7.56,7.56,0,0,0,.07-1.14V81.48l-1.06.1a5.61,5.61,0,0,0-.64.08Zm3.39,1.3a16.69,16.69,0,0,1,.49,2.42l-.61.15a12.92,12.92,0,0,0-.42-2.41ZM134.49,85a7,7,0,0,1-2.61,1.27,1.91,1.91,0,0,0-.43-.56A6,6,0,0,0,134,84.61Zm-1.21-7.59a6.91,6.91,0,0,0-1,0v-.66a7.69,7.69,0,0,0,1.06.06h1.53a5,5,0,0,0-.07-.83h.76a4.08,4.08,0,0,0-.06.83h1.7a8.11,8.11,0,0,0,1.08-.06v.66a7.2,7.2,0,0,0-1.07,0h-1.71v.66h1.34a6.38,6.38,0,0,0,1,0v.65a6.57,6.57,0,0,0-1-.05h-1.36v.72h2a6.14,6.14,0,0,0,1-.07v.66c-.31,0-.65,0-1,0h-4.37c-.4,0-.78,0-1.09,0v-.66a5.68,5.68,0,0,0,1.09.07h1.76v-.72h-1.22a7.1,7.1,0,0,0-1,.05V78a6.53,6.53,0,0,0,1,0h1.22v-.66Zm.37,7c-.41,0-.73,0-1,0a7,7,0,0,0,.05-1v-2a7,7,0,0,0-.05-1c.27,0,.52,0,1,0h3.18c.48,0,.7,0,1,0a7.41,7.41,0,0,0-.05,1v1.92a7.87,7.87,0,0,0,.05,1.08c-.34,0-.59,0-1,0Zm-.34-2.83h3.8V81h-3.8Zm0,1.15h3.8v-.66h-3.8Zm0,1.16h3.8v-.67h-3.8Zm2.89.67a7.41,7.41,0,0,0,2.47,1.06,2.77,2.77,0,0,0-.41.59A7.91,7.91,0,0,1,135.72,85Z"/></svg>