<svg id="レイヤー_1" data-name="レイヤー 1" xmlns="http://www.w3.org/2000/svg" viewBox="0 0 346.811 62.539"><defs><style>.cls-1{fill:#1e1e1e;}</style></defs><path class="cls-1" d="M6.652,14.5c-2.029,0-2.7.042-2.824.042-.23,0-.251-.021-.251-.23V12.787c0-.209.021-.23.251-.23.125,0,.8.041,2.824.041h5.9c2.008,0,2.7-.041,2.824-.041.209,0,.229.021.229.23v1.527c0,.209-.02.23-.229.23-.126,0-.816-.042-2.824-.042H10.773v2.783h2.552c1.716,0,2.28-.042,2.406-.042.23,0,.251.021.251.23V19c0,.188-.021.209-.251.209-.126,0-.69-.042-2.406-.042H10.773v3.578a35.422,35.422,0,0,0,4.038.188c1.192,0,2.677-.084,4.058-.188a5.706,5.706,0,0,0-.4,1.5c-.084.649-.105.649-.753.712-.8.042-1.632.063-2.469.063C7.761,25,6.3,23.874,4.644,21.385a11.9,11.9,0,0,1-2.552,3.577c-.209.23-.335.356-.461.356-.1,0-.209-.126-.418-.4A4.557,4.557,0,0,0,0,23.833a9.915,9.915,0,0,0,3.766-6.611,10.093,10.093,0,0,0,.125-1.339c.69.1,1.38.251,1.987.4.293.063.4.147.4.293a.646.646,0,0,1-.188.4,1.742,1.742,0,0,0-.272.648c-.1.586-.23,1.129-.377,1.653a5.217,5.217,0,0,0,3.139,2.991V14.5ZM15.4,8.561c1.946,0,2.636-.042,2.762-.042.209,0,.23.021.23.209,0,.146-.041.5-.041,1.088v.9c0,1.863.041,2.176.041,2.3,0,.209-.021.23-.23.23H16.442c-.209,0-.229-.021-.229-.23V10.485H2.97v2.532c0,.209-.021.23-.251.23H1.024c-.209,0-.229-.021-.229-.23,0-.146.041-.439.041-2.3V10C.836,9.23.8,8.874.8,8.728c0-.188.02-.209.229-.209.147,0,.817.042,2.783.042H8.284V8.373a8.458,8.458,0,0,0-.146-1.988c.773,0,1.526.042,2.238.105.188.021.313.084.313.209a.971.971,0,0,1-.125.4,3.74,3.74,0,0,0-.084,1.256v.209Z"/><path class="cls-1" d="M23.122,25.276c-.209.146-.334.23-.46.23s-.251-.126-.46-.377A5.277,5.277,0,0,0,21.114,24.1a9.574,9.574,0,0,0,2.72-2.322,4.645,4.645,0,0,0,.5-.816,12.515,12.515,0,0,1,1.61.733c.209.1.293.188.293.313,0,.105-.062.21-.229.293-.189.105-.273.272-.461.523A13.457,13.457,0,0,1,23.122,25.276ZM24.294,20.8c-1.862,0-2.489.042-2.615.042-.209,0-.23-.021-.23-.23V19.188c0-.209.021-.23.23-.23.1,0,.523.042,1.673.042V10.9c-.92.021-1.3.042-1.38.042-.231,0-.251-.021-.251-.209V9.293c0-.209.02-.23.251-.23.084,0,.46.042,1.38.042V8.749a11.648,11.648,0,0,0-.125-2.175c.648.02,1.4.062,1.988.125.167.021.292.063.292.188a.991.991,0,0,1-.125.4,4.966,4.966,0,0,0-.105,1.443v.377h2.887v-.4a11.7,11.7,0,0,0-.126-2.176c.649.042,1.36.062,1.967.146.188.021.293.084.293.188a1.237,1.237,0,0,1-.1.4,4.9,4.9,0,0,0-.126,1.464v.377c.733-.021,1.088-.042,1.172-.042.189,0,.209.021.209.23v1.444c0,.188-.02.209-.209.209-.084,0-.439-.021-1.172-.021V19c.754-.021,1.11-.042,1.193-.042.188,0,.21.021.21.23v1.423c0,.209-.022.23-.21.23-.125,0-.753-.042-2.552-.042Zm3.87-8.284V10.9H25.277v1.611Zm0,3.221V14.167H25.277v1.569Zm0,3.264V17.389H25.277V19Zm.209,2.092a.648.648,0,0,1,.251-.126c.063,0,.1.042.168.147a12.189,12.189,0,0,0,1.778,1.82,5.85,5.85,0,0,0-1.151,1.025c-.167.209-.251.313-.356.313-.084,0-.188-.083-.355-.25A11.264,11.264,0,0,1,27.2,22.075c-.126-.188-.084-.272.083-.376Zm11.213-.9c0,.983.063,2.051.063,2.887a2.086,2.086,0,0,1-.607,1.715c-.439.356-1,.544-2.573.544-.69,0-.69,0-.816-.648a4.43,4.43,0,0,0-.564-1.486c.648.043,1.275.063,1.8.063.46,0,.648-.209.648-.732V18.77H34.168a12.862,12.862,0,0,1-1.987,6.3c-.167.271-.273.4-.377.4s-.209-.1-.418-.314a5.472,5.472,0,0,0-1.3-.983c1.778-2.3,2.238-4.247,2.238-9.958V10.757c0-2.175-.042-3.326-.042-3.451,0-.23.022-.251.231-.251.146,0,.648.041,2.154.041h2.573c1.527,0,2.029-.041,2.155-.041.209,0,.23.021.23.251,0,.125-.042,1.276-.042,3.451Zm-2.05-3.284V13.854h-3.18v.376c0,.983-.021,1.883-.062,2.678Zm-3.18-7.887v2.971h3.18V9.021Z"/><path class="cls-1" d="M44.968,17.326c0-.753,0-1.653.021-2.531a17.8,17.8,0,0,1-1.234,1.569c-.168.188-.293.293-.377.293s-.147-.126-.209-.377a6.174,6.174,0,0,0-.691-1.778,18.661,18.661,0,0,0,3.766-6.715A7.022,7.022,0,0,0,46.6,6.3a19.644,19.644,0,0,1,1.945.607c.23.1.356.168.356.314s-.063.23-.23.377c-.147.125-.231.314-.44.858-.355.961-.753,1.882-1.17,2.782v10.9c0,2.05.041,3.075.041,3.18,0,.209-.021.23-.209.23H45.136c-.189,0-.21-.021-.21-.23,0-.126.042-1.13.042-3.18Zm6.192-2.343c-2.05,0-2.761.042-2.887.042-.23,0-.251-.021-.251-.209V13.373c0-.21.021-.231.251-.231.126,0,.837.042,2.887.042h.251V10.946c-1.59.021-2.2.042-2.28.042-.209,0-.23-.021-.23-.251v-1.4c0-.23.021-.251.23-.251.084,0,.69.041,2.28.041V8.477a10.134,10.134,0,0,0-.125-1.966c.649.021,1.59.063,2.154.1.189.021.293.1.293.21a1.066,1.066,0,0,1-.125.418A4.637,4.637,0,0,0,53.5,8.5v.627h2.678V8.457a10.349,10.349,0,0,0-.125-1.967c.648.021,1.569.063,2.154.1.188.021.293.126.293.231a.986.986,0,0,1-.125.4,4.54,4.54,0,0,0-.1,1.213v.69c1.924,0,2.594-.041,2.719-.041.21,0,.231.021.231.251v1.4c0,.23-.021.251-.231.251-.125,0-.795-.042-2.719-.042v2.238h.607c2.05,0,2.74-.042,2.866-.042.23,0,.251.021.251.231v1.443c0,.188-.021.209-.251.209-.126,0-.816-.042-2.866-.042ZM49.926,25.548c-.209,0-.23-.021-.23-.23,0-.126.042-.733.042-3.661v-2.3c0-2.029-.042-2.656-.042-2.782,0-.209.021-.23.23-.23.146,0,.795.042,2.677.042h4.583c1.882,0,2.509-.042,2.656-.042.209,0,.23.021.23.23,0,.126-.042.732-.042,2.448v2.594c0,2.908.042,3.514.042,3.64,0,.188-.021.209-.23.209H58.169c-.21,0-.231-.021-.231-.209V24.5H51.809v.817c0,.209-.021.23-.251.23Zm1.883-5.963h6.129V18.121H51.809Zm6.129,3.18V21.259H51.809v1.506Zm-1.757-9.581V10.946H53.5v2.238Z"/><path class="cls-1" d="M68.907,19.042a21.877,21.877,0,0,0,2.029-.963,8.766,8.766,0,0,0-.021,1.3c.042.67.042.67-.544.963-1.3.648-2.782,1.255-4.163,1.778a2.906,2.906,0,0,0-.69.335.549.549,0,0,1-.356.146c-.126,0-.23-.063-.313-.251a18.335,18.335,0,0,1-.566-1.862,14.894,14.894,0,0,0,2.071-.523l.482-.146V13.874h-.168c-1.359,0-1.777.043-1.9.043-.209,0-.209-.021-.209-.231V12.1c0-.209,0-.23.209-.23.126,0,.544.042,1.9.042h.168V9.942a17.758,17.758,0,0,0-.168-3.076c.816.021,1.465.063,2.155.147.209.021.335.125.335.251a1.176,1.176,0,0,1-.126.418,7.053,7.053,0,0,0-.125,1.987v2.239c1.193,0,1.59-.042,1.715-.042.189,0,.209.021.209.23v1.59c0,.21-.02.231-.209.231-.125,0-.522-.043-1.715-.043Zm5.272,2.908c0,.544.1.8.4.941.293.167.942.23,3.013.23,2.259,0,2.949-.1,3.368-.439.334-.293.438-.712.5-2.364a5.9,5.9,0,0,0,1.506.669c.523.147.523.147.46.691-.188,1.82-.44,2.385-1.129,2.823-.712.482-1.716.691-4.958.691-2.846,0-3.892-.251-4.414-.586-.5-.314-.8-.941-.8-2.071V16.008c-1.068.377-1.507.565-1.674.607-.209.063-.23.042-.272-.167l-.272-1.632c-.042-.209-.021-.209.167-.272.168-.042.711-.168,2.051-.607v-2.3A21.358,21.358,0,0,0,72,8.666q1.067.03,2.008.125c.293.042.419.126.419.23a.937.937,0,0,1-.126.439,6.329,6.329,0,0,0-.125,1.988v1.8l2.007-.669V9.544a21.762,21.762,0,0,0-.167-2.97,16.432,16.432,0,0,1,2.134.167c.209.021.335.1.335.23a1.17,1.17,0,0,1-.126.418,6.592,6.592,0,0,0-.125,1.883v2.636l1.611-.544c1.966-.649,2.593-.92,2.74-.941s.23.041.23.209l-.062,2.678a20.472,20.472,0,0,1-.5,4.728c-.315,1.213-.9,1.589-1.8,1.589a4.9,4.9,0,0,1-.773-.042c-.46-.041-.46-.041-.566-.69a5.2,5.2,0,0,0-.438-1.506,4.86,4.86,0,0,0,1.108.147c.356,0,.5-.105.628-.775a19.879,19.879,0,0,0,.251-3.66l-2.427.836v3.64c0,2.092.042,3.117.042,3.243,0,.209-.021.23-.23.23H76.375c-.209,0-.231-.021-.231-.23,0-.147.042-1.151.042-3.243v-2.95l-2.007.691Z"/><path class="cls-1" d="M88.62,25.548c-.23,0-.252-.021-.252-.23,0-.314.126-4.31.147-9.1a15.5,15.5,0,0,1-1.778,4.205c-.126.209-.23.356-.314.356s-.147-.125-.209-.356a6.33,6.33,0,0,0-.711-1.589,17.455,17.455,0,0,0,2.845-6.527h-.231c-1.359,0-1.777.041-1.9.041-.209,0-.231-.02-.231-.251V10.632c0-.209.022-.23.231-.23.126,0,.544.042,1.9.042h.357V9.209a15.243,15.243,0,0,0-.168-2.8,17.984,17.984,0,0,1,2.029.147c.209.041.355.1.355.23a.884.884,0,0,1-.125.439,5.715,5.715,0,0,0-.146,1.966v1.256c1.088,0,1.464-.042,1.59-.042.188,0,.209.021.209.23V12.1c0,.231-.021.251-.209.251-.126,0-.482-.02-1.507-.041a11.6,11.6,0,0,0,2.176,3.221,7,7,0,0,0-.732,1.423c-.084.209-.146.314-.21.314s-.146-.105-.293-.314a10.965,10.965,0,0,1-1.087-2.092c.021,5.564.146,10.125.146,10.46,0,.209-.021.23-.23.23Zm4.288-6.36c-.23.188-.355.314-.46.314s-.21-.147-.4-.439a4.426,4.426,0,0,0-.963-1,13.516,13.516,0,0,0,4.247-4.686c-1.59.02-2.218.042-2.322.042-.231,0-.251-.022-.251-.231v-1.3c0-.209.02-.23.251-.23.126,0,.816.042,2.8.042h.293a12.557,12.557,0,0,0,.544-1.569H95.042a8.121,8.121,0,0,1-.8,1.046c-.209.23-.313.356-.439.356-.105,0-.23-.126-.482-.335a3.976,3.976,0,0,0-1-.67,10.184,10.184,0,0,0,2.092-3.012,4.866,4.866,0,0,0,.4-1.151c.608.105,1.152.23,1.674.356.209.063.335.125.335.293,0,.146-.062.209-.23.376a2.327,2.327,0,0,0-.418.775l-.147.293h5.167c1.8,0,2.407-.042,2.532-.042.209,0,.23.02.23.23v1.3c0,.209-.021.23-.23.23-.125,0-.733-.042-2.532-.042H98.745c-.146.544-.335,1.067-.523,1.569h3.535c2.009,0,2.7-.042,2.8-.042.23,0,.25.021.25.23v1.3c0,.209-.02.231-.25.231-.105,0-.8-.042-2.8-.042H97.489A16.263,16.263,0,0,1,96.4,15.255h2.24A7.756,7.756,0,0,0,99,14.523a5.513,5.513,0,0,0,.251-.983c.69.105,1.255.209,1.736.314.189.042.272.125.272.209a.3.3,0,0,1-.147.251.84.84,0,0,0-.271.334l-.314.607h1.109c1.694,0,2.238-.042,2.364-.042.23,0,.251.021.251.23v1.13c0,.209-.021.23-.251.23-.126,0-.67-.042-2.364-.042H100.4v1.214h.711c1.7,0,2.26-.042,2.385-.042.21,0,.231.021.231.23v1.025c0,.209-.021.23-.231.23-.125,0-.689-.042-2.385-.042H100.4V20.59h.67c1.715,0,2.281-.042,2.406-.042.209,0,.23.021.23.23v1c0,.23-.021.251-.23.251-.125,0-.691-.041-2.406-.041h-.67v1.234h1.444c1.82,0,2.448-.042,2.573-.042.188,0,.209.02.209.209V24.5c0,.231-.021.252-.209.252-.125,0-.753-.042-2.573-.042H95.732v.607c0,.209-.02.23-.23.23H93.976c-.231,0-.252-.021-.252-.23,0-.105.042-.5.042-1.82V18.414Zm5.627-1.213V16.761h-2.8v1.214Zm0,2.615V19.376h-2.8V20.59Zm0,2.636V21.992h-2.8v1.234Z"/><path class="cls-1" d="M110.048,17.41c0-.753,0-1.569.021-2.427-.461.67-.963,1.318-1.507,1.967-.167.188-.271.272-.355.272-.1,0-.167-.105-.251-.335a6.657,6.657,0,0,0-.837-1.862,19.49,19.49,0,0,0,4.2-7.112,7.573,7.573,0,0,0,.356-1.507,17.1,17.1,0,0,1,2.113.649c.229.083.334.167.334.314s-.063.23-.23.376a1.725,1.725,0,0,0-.419.837c-.376.941-.773,1.862-1.234,2.782V22.159c0,2.029.042,3.054.042,3.159,0,.209-.02.23-.229.23h-1.821c-.209,0-.23-.021-.23-.23,0-.126.042-1.13.042-3.159Zm6.736-4.331c-2.009,0-2.72.043-2.845.043-.21,0-.23-.021-.23-.231V11.239c0-.21.02-.231.23-.231.125,0,.836.042,2.845.042H121.2V9.481a19.159,19.159,0,0,0-.146-2.97c.774.021,1.548.063,2.3.146.21.021.335.126.335.23a1.1,1.1,0,0,1-.146.461,6.451,6.451,0,0,0-.147,2.07V11.05c1.8,0,2.449-.042,2.574-.042.209,0,.23.021.23.231v1.652c0,.21-.021.231-.23.231-.125,0-.774-.043-2.574-.043v5.795c0,1.465.064,2.866.064,4.017,0,1.067-.147,1.506-.69,1.945-.44.356-1.319.482-3.348.482-.649,0-.649,0-.8-.649A5.4,5.4,0,0,0,118,23.038c.816.062,1.778.1,2.406.083.586,0,.795-.188.795-.69V13.079Zm.607,7.134a.641.641,0,0,1-.251.126c-.063,0-.105-.063-.167-.189a22.635,22.635,0,0,0-2.427-4.121c-.147-.188-.126-.209.146-.376l1.318-.754c.21-.125.251-.083.4.063a21.839,21.839,0,0,1,2.531,3.975c.105.188.042.23-.187.377Z"/><path class="cls-1" d="M136.077,8.666a5.264,5.264,0,0,0-.731-1.339,14.735,14.735,0,0,1,2.531-.231c.293,0,.46.168.46.377,0,.126-.042.272-.042.4a3.7,3.7,0,0,0,.084.627c.146.544.209.732.335,1.088a32.492,32.492,0,0,0,4.267-1.109c.189-.083.293-.062.356.105.125.4.271.983.355,1.4a.319.319,0,0,1-.251.377c-1.4.439-2.677.753-4.1,1.067.188.523.461,1.171.732,1.757a24.435,24.435,0,0,0,3.808-1.088c.209-.1.313-.062.376.126a8,8,0,0,1,.377,1.381c.042.188.042.293-.167.376A25.839,25.839,0,0,1,140.931,15a15.555,15.555,0,0,0,2.741,3.619c.209.188.209.272.1.5a6.044,6.044,0,0,1-.858,1.3c-.125.147-.209.209-.334.209a.55.55,0,0,1-.293-.125,5.3,5.3,0,0,0-1.234-.67,10.2,10.2,0,0,0-3.933-.669c-1.967,0-3.117.607-3.117,1.59,0,1.36,1.778,1.8,4.978,1.8.775,0,1.548-.083,2.3-.125.209,0,.272.1.251.272a13.513,13.513,0,0,1-.419,1.9c-.062.209-.146.293-.439.314-.481.042-.984.063-1.506.063-4.812,0-7.364-1.36-7.364-3.933,0-2.239,1.924-3.64,5.188-3.64a9.686,9.686,0,0,1,3.6.523,24.2,24.2,0,0,1-1.737-2.469,49.412,49.412,0,0,1-5.732.628c-.231,0-.314-.084-.377-.293a10.535,10.535,0,0,1-.376-1.715A36.583,36.583,0,0,0,138,13.561c-.209-.439-.523-1.151-.8-1.737a36.242,36.242,0,0,1-5.083.5c-.251,0-.377-.084-.419-.293-.062-.231-.209-1.005-.334-1.674a36.909,36.909,0,0,0,5.209-.335C136.412,9.544,136.287,9.188,136.077,8.666Z"/><path class="cls-1" d="M152.276,14.878c-.377.5-.8,1-1.214,1.486-.167.188-.293.272-.376.272s-.146-.105-.23-.356a6.324,6.324,0,0,0-.69-1.8,19.022,19.022,0,0,0,3.954-6.673,6.817,6.817,0,0,0,.334-1.465,13.432,13.432,0,0,1,2.071.628c.23.1.314.167.314.314a.422.422,0,0,1-.21.377c-.146.1-.251.292-.439.836a28.149,28.149,0,0,1-1.38,3.034V22.138c0,2.05.041,3.075.041,3.18,0,.209-.02.23-.209.23h-1.8c-.188,0-.209-.021-.209-.23,0-.126.042-1.13.042-3.18Zm6.151,9.791c-2.051,0-2.783.042-2.908.042-.209,0-.231-.021-.231-.251V22.849c0-.209.022-.23.231-.23.125,0,.857.042,2.908.042h2.551v-4.33h-1.4c-1.945,0-2.615.042-2.74.042-.231,0-.251-.022-.251-.231V16.573c0-.209.02-.23.251-.23.125,0,.8.042,2.74.042h1.4V12.766h-1.966c-2.029,0-2.719.042-2.845.042-.209,0-.231-.021-.231-.23v-1.59c0-.231.022-.231.231-.231.126,0,.816.021,2.845.021h6.548c2.008,0,2.719-.021,2.845-.021.23,0,.251,0,.251.231v1.59c0,.209-.021.23-.251.23-.126,0-.837-.042-2.845-.042h-2.343v3.619h1.653c1.966,0,2.636-.042,2.761-.042.209,0,.23.021.23.23v1.569c0,.209-.021.231-.23.231-.125,0-.795-.042-2.761-.042h-1.653v4.33h2.95c2.05,0,2.761-.042,2.887-.042.209,0,.23.021.23.23V24.46c0,.23-.021.251-.23.251-.126,0-.837-.042-2.887-.042Zm1.819-18.033a.31.31,0,0,1,.44-.083,18.027,18.027,0,0,1,3.64,2.113c.105.083.167.125.167.188a.625.625,0,0,1-.146.23l-.984,1.109c-.209.251-.293.251-.46.125a16.759,16.759,0,0,0-3.639-2.239c-.106-.062-.147-.1-.147-.166s.041-.126.147-.231Z"/><path class="cls-1" d="M187.219,16.594c1.8-.209,2.405-.335,2.635-.356.209-.021.23,0,.251.21l.167,1.569c.022.209,0,.25-.209.272s-.9.062-2.7.272l-5.941.669v3.033c0,.607.125.858.586.941a11.578,11.578,0,0,0,2.238.147c1.715,0,2.615-.147,3.013-.5.334-.314.522-.879.564-2.322a6.99,6.99,0,0,0,1.652.586c.566.146.566.146.524.711a3.763,3.763,0,0,1-1.214,2.719c-.627.5-2.07.775-4.414.775a16.464,16.464,0,0,1-4-.356,2.027,2.027,0,0,1-1.172-2.05V19.46l-4.163.46c-1.8.23-2.343.314-2.615.356-.209.021-.251,0-.272-.23l-.167-1.59c-.021-.209,0-.23.23-.251.272-.021.837-.042,2.635-.251l4.352-.481V15.151c-1.276.251-2.636.481-4.079.669-.566.084-.566.084-.775-.523a4.412,4.412,0,0,0-.752-1.4,55.807,55.807,0,0,0,10-1.883,6.192,6.192,0,0,0,1.547-.67,8.458,8.458,0,0,1,1.381,1.318c.125.147.209.23.209.418,0,.126-.1.231-.355.252-.231.042-.524.1-.837.188a41.791,41.791,0,0,1-4.121,1.15v2.574Zm-.231-8.012c1.925,0,2.615-.042,2.762-.042.209,0,.229.021.229.209,0,.125-.041.5-.041,1.109v.92c0,1.883.041,2.218.041,2.344,0,.209-.02.23-.229.23h-1.736c-.231,0-.251-.021-.251-.23v-2.6H174.5v2.636c0,.23-.021.252-.23.252h-1.757c-.209,0-.231-.022-.231-.252,0-.125.042-.439.042-2.343v-.753c0-.795-.042-1.171-.042-1.318,0-.188.022-.209.231-.209.146,0,.837.042,2.761.042h4.6V8.415a8.552,8.552,0,0,0-.147-1.988c.774.021,1.506.063,2.239.126.209,0,.313.083.313.209a1.389,1.389,0,0,1-.1.4,3.4,3.4,0,0,0-.1,1.256v.167Z"/><path class="cls-1" d="M194.755,21.51a3.314,3.314,0,0,0,.272-.941,11.186,11.186,0,0,1,1.632.606c.209.084.292.168.292.273a.367.367,0,0,1-.167.313,1.5,1.5,0,0,0-.313.586,13.231,13.231,0,0,1-1.548,2.761c-.21.293-.315.419-.44.419-.1,0-.21-.084-.419-.272a4.764,4.764,0,0,0-1.234-.774A9.6,9.6,0,0,0,194.755,21.51Zm3.306-14.246c1.359,0,1.756-.042,1.9-.042.209,0,.23.021.23.23,0,.126-.042.983-.042,2.8v7.009c0,1.8.042,2.656.042,2.782,0,.209-.021.23-.23.23-.147,0-.544-.042-1.9-.042h-2.009c-1.36,0-1.779.042-1.925.042-.209,0-.23-.021-.23-.23,0-.147.042-.983.042-2.782V10.255c0-1.82-.042-2.656-.042-2.8,0-.209.021-.23.23-.23.146,0,.565.042,1.925.042Zm-2.239,1.757V11.05h2.468V9.021Zm2.468,5.648V12.7h-2.468v1.966Zm0,1.653h-2.468V18.5h2.468Zm.523,4.205c.231-.105.272-.126.377.084A14.571,14.571,0,0,0,200.3,22.7a8.456,8.456,0,0,0-1.172.962c-.125.126-.209.188-.293.188-.1,0-.209-.125-.376-.439-.293-.544-.628-1.276-.921-1.988-.083-.209-.042-.271.168-.376Zm5.105-8.18H209a1.108,1.108,0,0,0,.586-.083.619.619,0,0,1,.314-.1c.147,0,.292.084.816.649.544.565.67.753.67.92a.474.474,0,0,1-.168.335,1.36,1.36,0,0,0-.376.753,20.908,20.908,0,0,1-2.218,5.732,12.677,12.677,0,0,0,3.786,2.95,6.818,6.818,0,0,0-.941,1.464c-.167.335-.209.5-.335.5-.1,0-.23-.084-.46-.251a19.006,19.006,0,0,1-3.242-2.929,17.217,17.217,0,0,1-3.013,3.034c-.231.188-.356.271-.44.271-.125,0-.209-.146-.418-.46a4.707,4.707,0,0,0-.962-1.108,14.4,14.4,0,0,0,3.619-3.39A15.38,15.38,0,0,1,204,14.251H203.9c-.042,2.008-.168,3.724-.335,5.314a14.068,14.068,0,0,1-1.757,5.522c-.147.251-.23.4-.356.4-.1,0-.229-.084-.418-.293a6.282,6.282,0,0,0-1.318-1.067,9.372,9.372,0,0,0,1.9-5.334,56.587,56.587,0,0,0,.251-6.046c0-3.536-.042-5.1-.042-5.23,0-.209.021-.23.251-.23.125,0,.8.042,2.656.042h4.456c1.863,0,2.49-.042,2.616-.042.188,0,.209.021.209.23v1.61c0,.21-.021.231-.209.231-.126,0-.753-.042-2.616-.042h-5.271Zm1.9,1.9a16.169,16.169,0,0,0,1.57,4.477,18.42,18.42,0,0,0,1.5-4.477Z"/><path class="cls-1" d="M220.347,19.105a7.705,7.705,0,0,0-.022-1.841c.753.041,1.486.1,2.176.188.23.042.355.125.355.272a1.062,1.062,0,0,1-.125.418,6.065,6.065,0,0,0-.209,1.213c-.272,2.908-1.631,4.854-5.9,6.025a2.236,2.236,0,0,1-.481.105c-.189,0-.251-.126-.46-.5a4.684,4.684,0,0,0-1.068-1.36C218.9,22.87,220.158,21.51,220.347,19.105Zm-.691-5.523c-2.029,0-2.762.041-2.887.041-.188,0-.209-.02-.209-.23v-1.38c0-.21.021-.23.209-.23.125,0,.858.041,2.887.041h3.013v-1.4h-4.6c-1.924,0-2.573.041-2.7.041-.229,0-.251-.02-.251-.251V8.791c0-.188.022-.209.251-.209.126,0,.775.041,2.7.041h4.6V8.582a9.179,9.179,0,0,0-.168-2.2c.795.021,1.59.063,2.3.147.187.021.313.125.313.209a1.129,1.129,0,0,1-.1.418,4.7,4.7,0,0,0-.126,1.423v.041h5.1c1.925,0,2.594-.041,2.72-.041.209,0,.23.021.23.209v1.422c0,.231-.021.251-.23.251-.126,0-.8-.041-2.72-.041h-5.1v1.4h3.389c2.05,0,2.761-.041,2.866-.041.23,0,.251.02.251.23v1.38c0,.21-.021.23-.251.23-.1,0-.816-.041-2.866-.041ZM229.7,14.816c1.967,0,2.657-.042,2.8-.042.209,0,.229.021.229.209,0,.126-.041.46-.041.921v.753c0,1.59.041,1.883.041,2.008,0,.209-.02.23-.229.23h-1.694c-.21,0-.231-.021-.231-.23V16.573H217.418v2.092c0,.209-.022.23-.231.23h-1.673c-.23,0-.251-.021-.251-.23,0-.146.042-.418.042-2.008v-.628c0-.586-.042-.9-.042-1.046,0-.188.021-.209.251-.209.126,0,.837.042,2.782.042Zm-2.74,7.615c0,.481.062.586.293.669a5.118,5.118,0,0,0,1.485.126,2.884,2.884,0,0,0,1.695-.314c.335-.272.418-.837.439-1.988a7.428,7.428,0,0,0,1.506.544c.544.147.565.147.5.691a3.1,3.1,0,0,1-1,2.426c-.544.44-1.464.628-3.347.628a7.8,7.8,0,0,1-2.95-.335c-.4-.167-.773-.523-.773-1.485v-4a17,17,0,0,0-.126-2.154c.774.042,1.423.083,2.092.146.272.042.4.147.4.251a.837.837,0,0,1-.125.419,2.947,2.947,0,0,0-.084,1.025Z"/><path class="cls-1" d="M246.586,7.369A18.465,18.465,0,0,0,255.54,13.6a5.458,5.458,0,0,0-.9,1.589c-.147.377-.209.544-.377.544a1.923,1.923,0,0,1-.5-.188,24.657,24.657,0,0,1-2.867-1.485V15.59c0,.209-.02.23-.209.23-.125,0-.794-.042-2.719-.042h-1.486v2.343h2.385c2.029,0,2.72-.042,2.846-.042.229,0,.251.021.251.231V19.9c0,.21-.022.23-.251.23-.126,0-.817-.042-2.846-.042h-2.385V22.64h4.98c1.9,0,2.572-.042,2.7-.042.209,0,.231.021.231.23V24.46c0,.209-.022.23-.231.23-.126,0-.795-.042-2.7-.042H239.516c-1.925,0-2.595.042-2.72.042-.209,0-.231-.021-.231-.23V22.828c0-.209.022-.23.231-.23.125,0,.8.042,2.72.042h4.727V20.087H242.13c-2.028,0-2.719.042-2.845.042-.209,0-.23-.02-.23-.23V18.31c0-.21.021-.231.23-.231.126,0,.817.042,2.845.042h2.113V15.778H242.9c-1.925,0-2.573.042-2.7.042-.21,0-.23-.021-.23-.23V14.23a25.157,25.157,0,0,1-2.552,1.443,1.788,1.788,0,0,1-.524.189c-.146,0-.23-.147-.4-.523a4.365,4.365,0,0,0-.962-1.38c3.911-1.779,6.317-3.7,8.1-6.319a6.619,6.619,0,0,0,.795-1.506,14.5,14.5,0,0,1,2.2.44c.272.062.377.167.377.313,0,.126-.064.209-.209.314Zm1.381,6.443c1.443,0,2.155-.021,2.489-.021a18.31,18.31,0,0,1-5.02-4.707,19.769,19.769,0,0,1-4.812,4.707c.377.021,1.067.021,2.28.021Z"/><path class="cls-1" d="M258.453,25.61c-.209,0-.23-.021-.23-.23,0-.146.042-1.547.042-8.033V13.184c0-4.142-.042-5.606-.042-5.732,0-.209.021-.23.23-.23.147,0,.837.042,2.782.042H272.6c1.946,0,2.635-.042,2.782-.042.21,0,.23.021.23.23,0,.126-.042,1.59-.042,5.021v4.853c0,6.485.042,7.908.042,8.033,0,.21-.02.23-.23.23h-1.8c-.209,0-.23-.02-.23-.23v-.983H260.462v1c0,.209-.022.23-.231.23Zm2.009-3.179h12.886V9.23H260.462Zm8.451-7.8c1.674,0,2.26-.041,2.385-.041.209,0,.23.021.23.23V16.2c0,.209-.021.23-.23.23-.125,0-.711-.042-2.385-.042h-1.088v2.782h1.716c1.945,0,2.573-.042,2.7-.042.231,0,.251.021.251.23V20.8c0,.209-.02.23-.251.23-.125,0-.753-.042-2.7-.042h-5.272c-1.946,0-2.574.042-2.7.042-.23,0-.251-.021-.251-.23V19.355c0-.209.021-.23.251-.23.125,0,.753.042,2.7.042h1.443V16.385H264.9c-1.715,0-2.3.042-2.426.042-.209,0-.231-.021-.231-.23V14.816c0-.209.022-.23.231-.23.126,0,.711.041,2.426.041h.816v-2.2H264.5c-1.883,0-2.531.042-2.657.042-.188,0-.209-.021-.209-.23v-1.4c0-.209.021-.23.209-.23.126,0,.774.042,2.657.042h4.853c1.9,0,2.552-.042,2.678-.042.189,0,.209.021.209.23v1.4c0,.209-.02.23-.209.23-.126,0-.774-.042-2.678-.042h-1.527v2.2Zm1.255,1.925c.21-.1.251-.062.419.126a8.186,8.186,0,0,1,1.024,1.506c.084.167.084.209-.167.335l-.9.481c-.273.146-.314.084-.419-.146a6.636,6.636,0,0,0-.962-1.549c-.146-.167-.062-.188.167-.313Z"/><path class="cls-1" d="M299.174,23.978h-5.1l-5.808-12.36c-1.391-3-2.349-5.222-3.431-7.91H284.4c.155,2.843.216,5.686.216,8.652V23.978h-3.831V0h6.272l4.975,10.629a73.4,73.4,0,0,1,3.183,8.22h.432c-.185-2.936-.309-5.562-.309-8.776V0h3.832Z"/><path class="cls-1" d="M319.655,15.48c0,5.5-3.058,8.931-7.693,8.931s-7.663-3.338-7.663-8.838,3.09-8.929,7.693-8.929C316.565,6.644,319.655,9.98,319.655,15.48Zm-11.371.031c0,3.925,1.175,6.088,3.678,6.088s3.708-2.133,3.708-6.088c0-3.893-1.175-6.055-3.678-6.055S308.284,11.618,308.284,15.511Z"/><path class="cls-1" d="M328.427,23.978h-4.418V19.714h4.418Z"/><path class="cls-1" d="M342.392,20.98h4.419v3H334.08v-3h4.635V4.171a17.332,17.332,0,0,1-4.358,2.1l-.617-3.245a17.42,17.42,0,0,0,5.5-2.78h3.152Z"/><path class="cls-1" d="M24.772,44.917A4.6,4.6,0,0,1,29.6,41.465c2.909,0,4.791,1.695,4.791,4.017a3.469,3.469,0,0,1-3.054,3.6v.147a3.882,3.882,0,0,1,3.368,4.016c0,2.824-2.05,4.749-5.105,4.749-2.635,0-4.372-1.067-5.083-3.535l2.573-.754c.356,1.611,1.109,2.259,2.49,2.259a2.381,2.381,0,0,0,2.447-2.7c0-1.82-.857-2.887-3.095-2.887H27.722V48.243h1.109c2.092,0,2.929-.9,2.929-2.51a2.026,2.026,0,0,0-2.2-2.238,2.211,2.211,0,0,0-2.216,2.2Z"/><path class="cls-1" d="M47.285,49.665c0,5.921-1.8,8.327-5.062,8.327-3.285,0-5-2.364-5-8.284s1.82-8.243,5.042-8.243S47.285,43.766,47.285,49.665Zm-7.363.021c0,4.708.648,6.235,2.3,6.235,1.694,0,2.364-1.548,2.364-6.235,0-4.706-.649-6.15-2.322-6.15C40.633,43.536,39.922,44.959,39.922,49.686Z"/><path class="cls-1" d="M52.686,54.645c-1.841,0-2.49.041-2.616.041-.209,0-.229-.021-.229-.229V52.8c0-.188.02-.21.229-.21.126,0,.775.042,2.616.042h.5V49.708c0-1.193-.042-1.758-.042-1.883,0-.209.022-.23.251-.23.126,0,.837.041,2.867.041H58.94V44.854H54.652A19.2,19.2,0,0,1,52.2,47.846c-.209.23-.335.334-.439.334s-.209-.125-.418-.4a4.205,4.205,0,0,0-1.172-1.13,15.387,15.387,0,0,0,3.87-5.062,6.72,6.72,0,0,0,.544-1.528c.753.147,1.443.293,2.009.461.251.083.376.188.376.355s-.1.251-.251.4a2.041,2.041,0,0,0-.523.753l-.419.9h8.641c2.028,0,2.74-.042,2.865-.042.21,0,.231.021.231.23v1.548c0,.209-.021.23-.231.23-.125,0-.837-.042-2.865-.042H61.2v2.782h2.238c2.05,0,2.741-.041,2.867-.041.187,0,.209.021.209.23v1.569c0,.209-.022.23-.209.23-.126,0-.817-.042-2.867-.042H61.2v3.054h4.435c1.841,0,2.489-.042,2.615-.042.209,0,.229.022.229.21v1.653c0,.208-.02.229-.229.229-.126,0-.774-.041-2.615-.041H61.2v1.024c0,2.2.041,3.306.041,3.41,0,.21-.02.231-.229.231H59.149c-.229,0-.251-.021-.251-.231,0-.125.042-1.213.042-3.41V54.645Zm6.254-2.009V49.582H55.405v3.054Z"/><path class="cls-1" d="M77.523,40.8c1.361,0,1.988-.042,2.114-.042.188,0,.209.021.209.251,0,.125-.042.732-.042,1.987v2.594c0,1.277.042,1.862.042,1.988,0,.23-.021.251-.209.251-.126,0-.753-.042-2.114-.042H74.135v6.778c0,2.887.042,4.31.042,4.456,0,.209-.022.23-.231.23H72.168c-.209,0-.23-.021-.23-.23,0-.146.041-1.569.041-4.456V45.5c0-2.907-.041-4.372-.041-4.5,0-.23.021-.251.23-.251.146,0,.941.042,2.469.042Zm-3.388,1.569V43.6h3.619V42.365Zm3.619,2.656H74.135v1.256h3.619Zm-.8,12.783c-.209,0-.231-.021-.231-.252,0-.125.042-.69.042-3.786V51.925c0-1.841-.042-2.468-.042-2.615,0-.209.022-.23.231-.23.146,0,.648.042,2.238.042h2.824c1.59,0,2.092-.042,2.239-.042.209,0,.23.021.23.23,0,.125-.042.753-.042,2.259v2.072c0,3.033.042,3.6.042,3.7,0,.209-.021.231-.23.231H82.754c-.21,0-.231-.022-.231-.231V56.7H78.695v.857c0,.231-.021.252-.251.252Zm1.736-5.67h3.828v-1.4H78.695Zm3.828,2.971V53.641H78.695v1.464Zm6.883-2.741c0,1.465.084,3.138.084,4.163a2.271,2.271,0,0,1-.607,1.925c-.44.4-1.025.565-2.991.565-.628,0-.628.021-.753-.648a6.583,6.583,0,0,0-.5-1.528,14.35,14.35,0,0,0,1.757.1c.69,0,.857-.189.857-.816V47.783H83.82c-1.632,0-2.176.042-2.3.042-.208,0-.23-.021-.23-.251,0-.126.042-.607.042-1.841V42.846c0-1.214-.042-1.716-.042-1.841,0-.23.022-.251.23-.251.125,0,.669.042,2.3.042H86.9c1.632,0,2.2-.042,2.323-.042.209,0,.23.021.23.251,0,.125-.042.983-.042,2.761Zm-6.025-10V43.6h3.87V42.365Zm3.87,3.912V45.021h-3.87v1.256Z"/><path class="cls-1" d="M103.408,45.105c-2.553.481-4.791.921-7.029,1.381-.8.188-1,.23-1.318.335a1.238,1.238,0,0,1-.46.167.488.488,0,0,1-.4-.314,14.7,14.7,0,0,1-.774-2.259,28.726,28.726,0,0,0,3.327-.356c2.572-.376,7.175-1.067,12.572-1.778.314-.042.418.084.44.23a12.031,12.031,0,0,1,.23,1.841c0,.251-.126.314-.4.314a9.373,9.373,0,0,0-2.553.46c-3.557,1.213-5.335,3.661-5.335,6.171,0,2.7,1.925,4.163,5.565,4.394.334,0,.46.083.46.313a7.47,7.47,0,0,1-.23,1.8c-.063.313-.147.439-.4.439-3.681,0-7.718-2.113-7.718-6.464,0-2.971,1.485-4.979,4.016-6.632Zm4.142,2.26c.1-.084.188-.063.314.041a9.638,9.638,0,0,1,1.988,2.239.212.212,0,0,1-.064.335l-.878.648a.219.219,0,0,1-.356-.063,10.358,10.358,0,0,0-2.113-2.426Zm1.862-1.36c.125-.084.189-.063.314.041a8.726,8.726,0,0,1,1.987,2.156.241.241,0,0,1-.063.376l-.837.649a.215.215,0,0,1-.355-.063,9.882,9.882,0,0,0-2.092-2.406Z"/><path class="cls-1" d="M124.214,54.722h4.419v3H115.9v-3h4.635V37.913a17.341,17.341,0,0,1-4.357,2.1l-.618-3.245a17.4,17.4,0,0,0,5.5-2.781h3.152Z"/><path class="cls-1" d="M138.115,57.719l-2.317,4.82h-1.916l2.07-4.82H133.7V53.547h4.418Z"/><path class="cls-1" d="M157.271,45.854c0,8.744-2.657,12.3-7.477,12.3-4.852,0-7.386-3.491-7.386-12.236s2.689-12.174,7.447-12.174S157.271,37.14,157.271,45.854Zm-10.877.03c0,6.953.958,9.208,3.4,9.208,2.5,0,3.491-2.286,3.491-9.208,0-6.952-.958-9.084-3.43-9.084C147.445,36.8,146.394,38.9,146.394,45.884Z"/><path class="cls-1" d="M175.746,45.854c0,8.744-2.657,12.3-7.477,12.3-4.852,0-7.386-3.491-7.386-12.236s2.688-12.174,7.447-12.174S175.746,37.14,175.746,45.854Zm-10.877.03c0,6.953.958,9.208,3.4,9.208,2.5,0,3.491-2.286,3.491-9.208,0-6.952-.958-9.084-3.43-9.084C165.92,36.8,164.869,38.9,164.869,45.884Z"/><path class="cls-1" d="M194.221,45.854c0,8.744-2.658,12.3-7.478,12.3-4.851,0-7.386-3.491-7.386-12.236s2.689-12.174,7.448-12.174S194.221,37.14,194.221,45.854Zm-10.877.03c0,6.953.958,9.208,3.4,9.208,2.5,0,3.491-2.286,3.491-9.208,0-6.952-.958-9.084-3.429-9.084C184.394,36.8,183.344,38.9,183.344,45.884Z"/><path class="cls-1" d="M199.611,46.214c-1.4,0-1.82.042-1.967.042-.188,0-.208-.021-.208-.23V44.54c0-.209.02-.23.208-.23.147,0,.565.042,1.967.042h.418V42.971a15.167,15.167,0,0,0-.167-2.8,17.816,17.816,0,0,1,2.008.146c.209.042.356.1.356.23a.884.884,0,0,1-.125.44,6.032,6.032,0,0,0-.126,1.967v1.4c1.109,0,1.485-.042,1.631-.042.189,0,.209.021.209.23v1.486c0,.209-.02.23-.209.23-.146,0-.522-.021-1.589-.042a12.582,12.582,0,0,0,2.238,3.849,7.409,7.409,0,0,0-.774,1.4c-.1.23-.168.355-.23.355s-.147-.1-.273-.334A11.815,11.815,0,0,1,201.912,49c.021,5.438.147,9.748.147,10.082,0,.21-.022.231-.251.231h-1.632c-.209,0-.231-.021-.231-.231,0-.334.105-4.414.147-9.33a19.988,19.988,0,0,1-1.946,4.582c-.126.209-.23.334-.313.334s-.147-.125-.231-.376a5.022,5.022,0,0,0-.71-1.506,18.528,18.528,0,0,0,2.991-6.569Zm12.05,6.757a16.865,16.865,0,0,0,5.23,3.577,3.827,3.827,0,0,0-.879,1.36c-.125.335-.188.461-.314.461a1.1,1.1,0,0,1-.5-.231,16.445,16.445,0,0,1-4.476-4c.02,2.469.146,4.6.146,4.917,0,.209-.021.23-.23.23h-1.758c-.23,0-.251-.021-.251-.23,0-.314.146-2.406.168-4.853a15.377,15.377,0,0,1-4.623,4.121,1.264,1.264,0,0,1-.461.23c-.125,0-.209-.126-.376-.461a4.058,4.058,0,0,0-.941-1.15,14.8,14.8,0,0,0,5.375-3.975h-.334c-1.9,0-2.574.042-2.72.042-.209,0-.23-.021-.23-.209,0-.147.042-.691.042-2.009V47.636c0-1.3-.042-1.841-.042-1.987,0-.209.021-.23.23-.23.146,0,.816.042,2.72.042h1.3v-1.4h-2.049c-2.03,0-2.741.084-2.867.084-.187,0-.209-.063-.209-.272V42.448c0-.23.022-.251.209-.251.126,0,.837.042,2.867.042h2.049a14.175,14.175,0,0,0-.145-2.155c.731.021,1.443.063,2.112.147.189.021.335.146.335.251a1.011,1.011,0,0,1-.146.418,3.849,3.849,0,0,0-.126,1.339h2.552c2.03,0,2.741-.042,2.867-.042.187,0,.209.021.209.251v1.423c0,.209-.022.272-.209.272-.126,0-.837-.084-2.867-.084h-2.552v1.4h1.549c1.9,0,2.573-.042,2.718-.042.21,0,.231.021.231.23,0,.126-.042.69-.042,1.987V50.8c0,1.318.042,1.883.042,2.009,0,.188-.021.209-.231.209-.145,0-.815-.042-2.718-.042ZM208.8,48.494V46.988h-2.364v1.506Zm0,2.95V49.938h-2.364v1.506Zm1.9-4.456v1.506h2.573V46.988Zm2.573,2.95H210.7v1.506h2.573Z"/><path class="cls-1" d="M230.578,54.645c0,.229-.125.335-.4.376a11.28,11.28,0,0,1-1.485.1c-.188,0-.272-.126-.272-.335,0-.753,0-1.8.02-2.552-1.861.962-2.531,1.778-2.531,2.782,0,.879.712,1.444,2.908,1.444a35.75,35.75,0,0,0,5.209-.419c.189-.021.273.042.293.23a9.333,9.333,0,0,1,.189,1.716c.02.251-.063.4-.231.4a37.067,37.067,0,0,1-5.187.272c-3.432,0-5.251-1.025-5.251-3.452,0-2.008,1.255-3.472,4.414-5.1-.064-1.067-.315-1.485-1.256-1.443a5.056,5.056,0,0,0-2.887,1.506,28.1,28.1,0,0,0-2.092,2.28c-.1.126-.167.188-.251.188a.417.417,0,0,1-.23-.146,9.973,9.973,0,0,1-1.192-1.381.336.336,0,0,1-.083-.188c0-.084.041-.147.145-.23a21.367,21.367,0,0,0,4.373-5.189c-.983.042-2.113.063-3.348.063-.188,0-.25-.1-.292-.334-.063-.335-.147-1.109-.209-1.736a46.511,46.511,0,0,0,4.811-.021,16.073,16.073,0,0,0,.628-1.8,5.121,5.121,0,0,0,.146-1.276,13.2,13.2,0,0,1,2.385.586.376.376,0,0,1,.251.355.4.4,0,0,1-.146.314,1.629,1.629,0,0,0-.356.5c-.126.292-.23.564-.481,1.129a33.517,33.517,0,0,0,3.807-.648c.23-.042.293.021.335.209a7.035,7.035,0,0,1,.209,1.506c.021.209-.063.293-.355.335-1.569.23-3.368.46-4.9.627a21.407,21.407,0,0,1-1.569,2.322l.022.042a4.157,4.157,0,0,1,2.091-.648,2.31,2.31,0,0,1,2.552,2.259c.817-.376,2.009-.92,3.075-1.464a6.26,6.26,0,0,0,1.59-1.13,12.866,12.866,0,0,1,1.465,1.841.83.83,0,0,1,.167.461c0,.167-.1.251-.314.292a6.758,6.758,0,0,0-1.276.314c-1.359.481-2.72.941-4.5,1.674Z"/><path class="cls-1" d="M246.42,44.771v2.092h.293c1.736,0,2.3-.042,2.427-.042.188,0,.23.02.23.23a4.155,4.155,0,0,0,2.845-4c-1.59,0-2.154.042-2.28.042-.209,0-.23-.021-.23-.23V41.444c0-.209.021-.23.23-.23.126,0,.711.042,2.448.042h3.555c1.737,0,2.323-.042,2.449-.042.229,0,.271.042.271.251a11.25,11.25,0,0,0-.062,1.172,12.932,12.932,0,0,1-.565,4.56,1.925,1.925,0,0,1-1.3,1.067,8.214,8.214,0,0,1-1.777.126c-.67,0-.67,0-.774-.691a5.439,5.439,0,0,0-.4-1.38,7.816,7.816,0,0,0,1.569.146c.46,0,.732-.105.858-.4a10.5,10.5,0,0,0,.335-3.012h-2.26a6.131,6.131,0,0,1-3.242,5.5,1.432,1.432,0,0,1-.482.167c-.146,0-.23-.125-.439-.46a4.645,4.645,0,0,0-.753-.9V48.6c0,.209-.02.23-.23.23-.125,0-.691-.042-2.427-.042h-.147V51h.9c.941,0,1.317-.041,1.422-.041.209,0,.23.021.23.23v1.548c0,.188-.021.209-.23.209-.105,0-.481-.042-1.422-.042h-.9V56a12.95,12.95,0,0,0,5.251.774,63.674,63.674,0,0,0,7.929-.481,6.11,6.11,0,0,0-.586,1.632c-.125.67-.125.67-.8.711-2.134.168-4.163.231-6.484.231-2.93,0-4.749-.356-6.235-1.214a7.624,7.624,0,0,1-2.74-2.469,15.589,15.589,0,0,1-1.067,3.39c-.1.272-.189.418-.314.418-.1,0-.209-.105-.4-.293a3.314,3.314,0,0,0-1.214-1,14.436,14.436,0,0,0,1.59-6.8c0-.335,0-.753-.042-1.214a17,17,0,0,1,1.758.335c.251.063.335.1.335.251a.638.638,0,0,1-.084.293,2.729,2.729,0,0,0-.147.837c-.02.5-.042,1.025-.1,1.548a6.308,6.308,0,0,0,1.381,1.758V48.787h-1.548c-1.716,0-2.3.042-2.449.042-.188,0-.209-.021-.209-.23V47.072c0-.231.021-.251.209-.251.147,0,.733.042,2.449.042h1.317V44.771H243.6c-1.611,0-2.155.042-2.28.042-.21,0-.23-.022-.23-.23V43.076c0-.23.02-.251.23-.251.125,0,.669.042,2.28.042h.774V42.7a14.93,14.93,0,0,0-.146-2.553c.774.021,1.4.063,2.091.146.21.021.335.084.335.21a1.041,1.041,0,0,1-.1.376,5.9,5.9,0,0,0-.126,1.779v.209h.21c1.61,0,2.134-.042,2.238-.042.23,0,.251.021.251.251v1.507c0,.208-.021.23-.251.23-.1,0-.628-.042-2.238-.042Zm9.225,4.435c1.612,0,2.156-.042,2.3-.042.209,0,.231.02.231.23,0,.125-.042.627-.042,1.8v2.489c0,1.172.042,1.674.042,1.8,0,.21-.022.23-.231.23-.146,0-.69-.042-2.3-.042h-2.991c-1.632,0-2.154.042-2.28.042-.209,0-.23-.02-.23-.23,0-.146.042-.627.042-1.8V51.193c0-1.172-.042-1.653-.042-1.8,0-.21.021-.23.23-.23.126,0,.648.042,2.28.042Zm.544,1.778H252.11v2.887h4.079Z"/><path class="cls-1" d="M268.623,46.549c1.61-.252,2.782-.482,3.64-.67a3.025,3.025,0,0,0,.837-.335.8.8,0,0,1,.46-.146c.126,0,.188.042.355.146a4.924,4.924,0,0,1,1.234,1.109.785.785,0,0,1,.231.481.565.565,0,0,1-.377.482,3.178,3.178,0,0,0-.669.481c-1.548,1.464-2.406,2.343-3.808,3.849a2.591,2.591,0,0,1,.753-.1,2.381,2.381,0,0,1,2.281,2.113c.418,1.715.752,2.05,2.3,2.05a14.083,14.083,0,0,0,3.242-.376c.231-.042.335.083.377.314a10.971,10.971,0,0,1,.147,1.841c0,.209-.106.293-.377.334a18.215,18.215,0,0,1-3.075.272c-3.075,0-4.079-.815-4.519-2.887-.335-1.423-.586-2.008-1.318-2.008a2.975,2.975,0,0,0-1.966,1.046c-.941.962-2.469,2.8-3.181,3.682a.363.363,0,0,1-.292.147.4.4,0,0,1-.23-.084,11.467,11.467,0,0,1-1.465-1.277.333.333,0,0,1-.1-.209.51.51,0,0,1,.168-.334l3.953-4.017c.816-.837,1.9-2.05,4.142-4.456-1.569.419-2.97.753-4.351,1.109a8,8,0,0,0-1.13.377.947.947,0,0,1-.439.125c-.146,0-.252-.105-.356-.355a14.859,14.859,0,0,1-.837-2.344A23.274,23.274,0,0,0,268.623,46.549Zm5.836-4.477c.21.042.293.167.23.46a12.976,12.976,0,0,1-.564,1.716c-.064.167-.189.272-.356.23a32.181,32.181,0,0,1-5.836-1.758.278.278,0,0,1-.189-.376,18.549,18.549,0,0,1,.711-1.946A38.176,38.176,0,0,0,274.459,42.072Z"/><path class="cls-1" d="M291.369,48.892a6.288,6.288,0,0,1,3.326-.942,4.856,4.856,0,0,1,5.188,5.021c0,3.494-2.823,5.732-7.3,5.732-2.636,0-4.226-1.129-4.226-3.075a2.777,2.777,0,0,1,2.951-2.552,3.807,3.807,0,0,1,3.932,3.054,3.152,3.152,0,0,0,2.134-3.18,3.054,3.054,0,0,0-3.284-3.159,8.515,8.515,0,0,0-5.356,2.218c-.607.544-1.192,1.15-1.82,1.778-.146.146-.251.23-.355.23a.518.518,0,0,1-.315-.188,9.485,9.485,0,0,1-1.233-1.36c-.126-.167-.064-.314.1-.481a50.409,50.409,0,0,0,4.958-4.623c1.3-1.339,2.28-2.385,3.242-3.578-1.254.23-2.74.523-4.037.8a6.278,6.278,0,0,0-.879.251,1.55,1.55,0,0,1-.419.1.475.475,0,0,1-.46-.355,10.113,10.113,0,0,1-.732-2.26,10.049,10.049,0,0,0,1.946.042c1.276-.126,3.117-.4,4.748-.712a5.5,5.5,0,0,0,1.152-.314,1.091,1.091,0,0,1,.4-.167.75.75,0,0,1,.481.167,7.96,7.96,0,0,1,1.4,1.339.73.73,0,0,1,.23.5.553.553,0,0,1-.356.5,3.4,3.4,0,0,0-.921.669c-1.526,1.485-2.929,2.95-4.518,4.477Zm.021,5.962c-.607,0-1,.355-1,.8,0,.648.564,1.088,1.82,1.088a4.565,4.565,0,0,0,.962-.084C292.9,55.5,292.269,54.854,291.39,54.854Z"/><path class="cls-1" d="M308.174,53.682c-1.925,0-2.573.042-2.7.042-.21,0-.231-.021-.231-.23v-1.36c0-.23.021-.251.231-.251.125,0,.773.042,2.7.042h4.54a8,8,0,0,0,.146-1.276h-2.008c-2.008,0-2.72.042-2.845.042-.209,0-.231-.021-.231-.231V49.142c0-.229.022-.25.231-.25.125,0,.837.042,2.845.042h2.071V47.7H311c-1.945,0-2.636.042-2.762.042-.209,0-.229-.021-.229-.251v-1.3c0-.23.02-.251.229-.251.126,0,.817.042,2.762.042h1.9c-.02-.649-.083-1.15-.125-1.548.691.021,1.506.042,2.134.125.251.042.377.126.377.273a1.27,1.27,0,0,1-.126.438,1.678,1.678,0,0,0-.1.712h2.154c1.925,0,2.615-.042,2.741-.042.23,0,.251.021.251.251v1.3c0,.23-.021.251-.251.251-.126,0-.816-.042-2.741-.042h-2.154v1.235h2.258c2.03,0,2.7-.042,2.825-.042.23,0,.251.021.251.25V50.46c0,.21-.021.231-.251.231-.125,0-.795-.042-2.825-.042h-2.3c-.021.46-.084.879-.125,1.276h5.271c1.925,0,2.573-.042,2.7-.042.231,0,.251.021.251.251v1.36c0,.209-.02.23-.251.23-.125,0-.773-.042-2.7-.042h-4.372c1.673,2.009,4.456,2.971,7.907,3.368a5.051,5.051,0,0,0-.8,1.57c-.125.439-.188.564-.418.564a2.154,2.154,0,0,1-.461-.042,11.662,11.662,0,0,1-7.969-4.581,5.862,5.862,0,0,1-.5.732c-1.486,1.925-3.787,3.034-7.156,3.808a4.012,4.012,0,0,1-.48.083c-.168,0-.251-.146-.4-.564a4.571,4.571,0,0,0-.795-1.423c3.513-.5,6.15-1.7,7.2-3.2l.187-.314Zm11.757-11.506c1.945,0,2.635-.041,2.761-.041.209,0,.231.021.231.23,0,.1-.042.481-.042,1.046v.879c0,1.819.042,2.154.042,2.259,0,.209-.022.23-.231.23h-1.715c-.209,0-.23-.021-.23-.23V44.017H307.463v2.532c0,.209-.022.23-.251.23h-1.694c-.21,0-.231-.021-.231-.23,0-.1.042-.44.042-2.259v-.712c0-.732-.042-1.109-.042-1.213,0-.209.021-.23.231-.23.146,0,.835.041,2.76.041h4.561v-.1a8.368,8.368,0,0,0-.167-1.988c.773.021,1.548.063,2.259.126.23.021.335.1.335.188a1.2,1.2,0,0,1-.125.419,3.844,3.844,0,0,0-.106,1.255v.1Z"/><path class="cls-1" d="M332.4,46.863c.209-.084.251-.084.335.125a18.858,18.858,0,0,1,1.3,3.786c.042.21,0,.293-.251.377l-1,.377c-.272.1-.314.1-.355-.147l-.21-.921-1.151.126v5.753c0,1.925.042,2.636.042,2.74,0,.21-.02.231-.23.231h-1.59c-.209,0-.229-.021-.229-.231,0-.125.042-.815.042-2.74V50.774l-1.57.126a2.179,2.179,0,0,0-.795.167.588.588,0,0,1-.313.084c-.126,0-.21-.126-.251-.335a17.807,17.807,0,0,1-.252-1.778,10.283,10.283,0,0,0,1.591.063c.4-.523.773-1.046,1.15-1.569a23.464,23.464,0,0,0-2.7-3.075.289.289,0,0,1-.105-.188c0-.084.063-.147.147-.272l.774-1.026c.167-.209.23-.23.376-.062l.482.481a19.526,19.526,0,0,0,1.214-2.26,5.89,5.89,0,0,0,.376-1.108,16.683,16.683,0,0,1,1.736.753c.188.1.272.209.272.334a.322.322,0,0,1-.188.272,1.146,1.146,0,0,0-.4.5,31.623,31.623,0,0,1-1.778,2.866l.92,1.088c.481-.774.921-1.547,1.36-2.322a9.306,9.306,0,0,0,.586-1.318,14.5,14.5,0,0,1,1.737.774c.188.105.251.168.251.293,0,.147-.063.231-.231.335a2.735,2.735,0,0,0-.648.816c-1.088,1.715-2.155,3.305-3.159,4.6l2.071-.125a13.68,13.68,0,0,0-.5-1.276c-.084-.189-.042-.272.209-.377Zm-5.669,6.422a9.313,9.313,0,0,0,.042-1.339,15.849,15.849,0,0,1,1.611.335c.251.083.355.167.355.251a.44.44,0,0,1-.1.314,2.7,2.7,0,0,0-.167.774,23.108,23.108,0,0,1-.733,3.849c-.1.356-.167.5-.293.5-.1,0-.229-.084-.46-.251a4.774,4.774,0,0,0-1.108-.586A12.522,12.522,0,0,0,326.735,53.285Zm5.962-1.3c.251-.084.293-.063.356.146a17.891,17.891,0,0,1,.879,3.64c.042.209.042.272-.251.377l-1.046.355c-.293.1-.335.084-.356-.146a17.42,17.42,0,0,0-.753-3.766c-.063-.209-.042-.23.209-.313Zm5.272,4.916c.188.084.272.188.272.293a.307.307,0,0,1-.251.272,5.574,5.574,0,0,0-.774.4,12.643,12.643,0,0,1-3.368,1.318,2.623,2.623,0,0,1-.5.105c-.189,0-.272-.084-.418-.335a4.645,4.645,0,0,0-.817-1.067,14.487,14.487,0,0,0,3.619-1.13,3.964,3.964,0,0,0,.879-.585C337.2,56.486,337.593,56.674,337.969,56.9ZM339.957,45.4v.879h2.175c2.009,0,2.678-.042,2.8-.042.188,0,.208.021.208.23V47.6c0,.209-.02.23-.208.23-.126,0-.795-.042-2.8-.042H336.4c-1.987,0-2.677.042-2.8.042-.209,0-.23-.021-.23-.23v-1.13c0-.209.021-.23.23-.23.126,0,.816.042,2.8.042h1.569V45.4H337.2c-1.778,0-2.384.042-2.51.042-.189,0-.209-.021-.209-.23v-.962c0-.231.02-.251.209-.251.126,0,.732.042,2.51.042h.774V43.16H336.84c-1.883,0-2.531.042-2.657.042-.209,0-.231-.021-.231-.251V41.883c0-.23.022-.251.231-.251.126,0,.774.042,2.657.042h1.108a9.946,9.946,0,0,0-.126-1.59,20.447,20.447,0,0,1,2.051.147c.209.042.335.125.335.23a.727.727,0,0,1-.126.376,1.973,1.973,0,0,0-.125.837h1.631c1.883,0,2.553-.042,2.678-.042.21,0,.23.021.23.251v1.068c0,.23-.02.251-.23.251-.125,0-.8-.042-2.678-.042h-1.631v.879h1.108c1.8,0,2.365-.042,2.49-.042.209,0,.23.02.23.251v.962c0,.209-.021.23-.23.23-.125,0-.691-.042-2.49-.042Zm1.066,3.2c1.8,0,2.385-.042,2.532-.042.209,0,.23.021.23.209,0,.126-.042.691-.042,1.945v3.264c0,1.276.042,1.82.042,1.946,0,.23-.021.251-.23.251-.147,0-.733-.042-2.532-.042h-3.765c-1.779,0-2.406.042-2.531.042-.189,0-.209-.021-.209-.251,0-.126.042-.67.042-1.946V50.711c0-1.254-.042-1.8-.042-1.945,0-.188.02-.209.209-.209.125,0,.752.042,2.531.042Zm-4.56,2.175h5.355v-.836h-5.355Zm5.355,2.009v-.858h-5.355v.858Zm0,1.13h-5.355v.878h5.355ZM341,56.4c.187-.126.251-.147.46-.042a14.8,14.8,0,0,0,3.974,1.4,3.391,3.391,0,0,0-.752.941c-.209.376-.273.523-.46.523a1.621,1.621,0,0,1-.482-.125,13.229,13.229,0,0,1-3.661-1.779c-.188-.125-.188-.167.084-.355Z"/></svg>