<svg id="レイヤー_1" data-name="レイヤー 1" xmlns="http://www.w3.org/2000/svg" viewBox="0 0 131 329"><defs><style>.cls-1{fill:#fff;}</style></defs><path class="cls-1" d="M.76,97.52a46.1,46.1,0,0,0,6,.38h38.5c3.47-3.59,3.9-3.86,4.32-3.86s.79.27,4.26,2.81c1.64,1.16,1.83,1.55,1.83,1.88s-.25.55-.86.55H6.84c-1.95,0-3.41.11-5.47.28ZM8,66.77a32.83,32.83,0,0,0,5.53.38h25c3.29-3.36,3.77-3.64,4.14-3.64s.85.28,4,2.6c1.59,1.16,1.89,1.49,1.89,1.82s-.24.6-.85.6H13.59c-1.76,0-3.16.17-5,.34Z"/><path class="cls-1" d="M37.62,151.5a39.35,39.35,0,0,0,18.74,12.92.35.35,0,0,1-.07.66A3.84,3.84,0,0,0,53.13,168c-.3.72-.61.94-1.09.94a8.93,8.93,0,0,1-2.8-1.27A44.9,44.9,0,0,1,34,151.72a44,44,0,0,1-5.35-16.62c-1.34,10.22-5.23,19.38-13.87,26.39-4,3.31-8.64,5.63-13.44,7.89-.37.17-.86-.55-.49-.77,15-9.27,21.53-20,23.24-37.7a42,42,0,0,0,0-9.55c6.32.55,7.36.77,7.36,1.71,0,.5-.43.77-2.13,1.43-.06,1.49-.13,2.93-.19,4.42C29.83,138.47,32.88,145.54,37.62,151.5Z"/><path class="cls-1" d="M23.26,206.69c3.41.94,4.45,1.33,4.45,1.82s-.43.78-2.44.89c-.55.66-1.09,1.27-1.7,1.88H47.35c2.38-2.38,2.86-2.65,3.23-2.65s1,.22,3.46,1.93c1.22.88,1.46,1.21,1.46,1.6s-.18.5-.79.5H35.19a36.81,36.81,0,0,0,8.63,4.74,49.21,49.21,0,0,0,13,2.71c.31,0,.31.6,0,.66-1.58.39-2,.72-2.86,2.87a.87.87,0,0,1-.85.55,11,11,0,0,1-2.31-.49,35.62,35.62,0,0,1-8.33-3.65v2.87c0,5.63.18,8.39.18,9.17,0,1.16-.91,1.76-2.62,1.76-1.21,0-1.76-.44-1.76-1.38V231.2H16.7v1.16c0,1.16-.8,1.66-2.5,1.66-1.4,0-1.88-.39-1.88-1.49s.24-3,.24-9.72c0-1.16,0-2.21-.06-3.14A60.6,60.6,0,0,1,.58,224.3c-.43.11-.8-.66-.43-.83,6.27-2.7,12.59-6.45,17-10.81H5.75a30.28,30.28,0,0,0-4.26.33l-.61-2.16a21.8,21.8,0,0,0,4.87.45H18.46a25.68,25.68,0,0,0,3.35-4.59H13.47V207c0,1.05-.79,1.54-2.43,1.54-1.28,0-1.89-.38-1.89-1.32s.18-2.43.18-7.89a52.34,52.34,0,0,0-.3-7.18,29,29,0,0,1,4.93,2H40.91c1.64-1.6,1.94-1.82,2.31-1.82s.79.22,2.61,1.49c1,.66,1.22,1,1.22,1.33s-.18.66-1.58,1.43v2.49c0,4.91.12,7.23.12,7.89,0,1.1-.79,1.6-2.62,1.6-1.21,0-1.64-.39-1.64-1.32v-.56Zm14-17.55c.06,1,.06,1.54.06,1.82,0,1.1-.86,1.6-2.62,1.6-1.28,0-1.82-.44-1.82-1.38,0-.22.06-.77.12-2H21.74c.07,1.1.07,1.71.07,1.93,0,1.05-.92,1.6-2.5,1.6-1.4,0-1.95-.5-1.95-1.43,0-.22.07-.83.13-2.1H5.81a24,24,0,0,0-4.32.33l-.61-2.1a31.33,31.33,0,0,0,4.93.39H17.49V187a24.88,24.88,0,0,0-.25-4.31c6.15.72,6.57.83,6.57,1.55,0,.38-.36.71-2.07,1.27v2.26H33v-.55a28.84,28.84,0,0,0-.31-4.53c5.42.55,6.51.83,6.51,1.49,0,.5-.36.83-1.94,1.33v2.26h10c2.5-2.65,3-2.87,3.35-2.87s.91.22,3.65,2.1c1.33.93,1.58,1.21,1.58,1.54s-.18.61-.79.61Zm4.07,6.4H13.47v4.09H41.33Zm-27.86,9.77H41.33V201H13.47Zm24.76,13.14H16.7v4.75H38.23ZM16.7,229.82H38.23v-5.24H16.7Zm21.53-12.75a58.46,58.46,0,0,1-4.75-4.41H22.23a44.71,44.71,0,0,1-5.47,4.41Z"/><path class="cls-1" d="M34.77,259.42a7.64,7.64,0,0,1,5.62,2A5.75,5.75,0,0,1,42,265.7c0,2.76-2,5.31-5.65,6.82a32.77,32.77,0,0,1-11.28,2.05c-.54,0-.78-.1-.78-.37s.24-.3.71-.37a24.74,24.74,0,0,0,9.12-3c3.17-1.85,4.41-4.26,4.41-6.35a3.72,3.72,0,0,0-1.17-2.92,4.41,4.41,0,0,0-3.3-1.08c-1.75,0-4.48,1.28-7.54,4.77a6.18,6.18,0,0,0-1.79,3c-.2.7-.67,1-1,1a2.29,2.29,0,0,1-2-1.31A4.29,4.29,0,0,1,21,265.4c0-1.24.5-4.7.77-6.62a15.75,15.75,0,0,0,.24-2.32v-1a2.6,2.6,0,0,1,1.31-2.15,17.36,17.36,0,0,1,4.21-1.75,10.88,10.88,0,0,1-2.22-1.78,5.07,5.07,0,0,1-1.42-3.16c0-.47.07-.67.21-.67s.23.17.4.47c.71,1.18,2.59,2.09,5.15,2.76a3.48,3.48,0,0,1,2.86,2.69,1.37,1.37,0,0,1-1.28,1.57,4.8,4.8,0,0,1-1.14-.1,10.15,10.15,0,0,0-1.45-.2,9.69,9.69,0,0,0-4.17.57,1.46,1.46,0,0,0-1.05,1.18,2.64,2.64,0,0,0,.14.84,8.48,8.48,0,0,1,.57,2.38,12.85,12.85,0,0,1-.27,1.75,37.19,37.19,0,0,0-.34,4.27c0,.3.24.3.58.07s.7-.51.94-.68a34.92,34.92,0,0,1,3.6-2.25A13.45,13.45,0,0,1,34.77,259.42Z"/><path class="cls-1" d="M26.56,289.49A42.14,42.14,0,0,0,26,295.4c-.27,3.53-.41,6.59-.41,8.7,0,1.75.27,2.73.78,3.2a5.31,5.31,0,0,0,3.23.77A16.58,16.58,0,0,0,36.93,306a19.67,19.67,0,0,0,5.89-4.54c.2-.23.4-.43.6-.43a.32.32,0,0,1,.34.33,2.87,2.87,0,0,1-.44.94,19.4,19.4,0,0,1-5.85,6,15.2,15.2,0,0,1-9,2.73c-3.54,0-5.69-2.42-5.59-6.56.13-5.61.37-11.12.5-16.22,0-1.25-.2-1.78-1.27-2.22s-1.05-.37-1.05-.57.24-.44.57-.61a4.56,4.56,0,0,1,1.55-.3,5.21,5.21,0,0,1,3.23,1.51,2.34,2.34,0,0,1,1,1.72,1.66,1.66,0,0,1-.47,1.14C26.79,289.12,26.63,289.22,26.56,289.49Z"/><path class="cls-1" d="M46.25,324.8a4.19,4.19,0,1,1-4.17-4.17A4.17,4.17,0,0,1,46.25,324.8Zm-7.27,0a3.08,3.08,0,1,0,3.1-3.06A3,3,0,0,0,39,324.8Z"/><path class="cls-1" d="M104.42,30.25c0,11.26.24,15.13.24,17.83,0,1.33-1,1.93-3.1,1.93-1.52,0-2.07-.49-2.07-1.65s.31-7.57.31-18V27.88H80.94a42.81,42.81,0,0,0-5.35.33L75,26.11a44.45,44.45,0,0,0,6,.39H99.8V4.69H83.68A39.74,39.74,0,0,0,78.57,5L77.9,3a53.37,53.37,0,0,0,5.78.33H119c3-3.09,3.4-3.31,3.77-3.31s.85.22,4,2.48c1.52,1,1.77,1.38,1.77,1.72s-.19.49-.8.49H104.42V26.5H120.9c3.23-3.48,3.71-3.76,4.08-3.76s.85.28,4.13,2.71C130.7,26.61,131,27,131,27.33s-.24.55-.85.55H104.42ZM87.63,19.93A26.81,26.81,0,0,0,82.7,8.61c-.12-.16.31-.5.49-.38,5.78,3.47,9.37,8.05,9.37,11.59,0,1.76-1.1,3.25-2.74,3.25C88.42,23.07,88.06,22.41,87.63,19.93Zm20.68,4.19a50.88,50.88,0,0,0,7.42-11.31,27.59,27.59,0,0,0,2.07-5.58c4.68,1.82,6.27,2.6,6.27,3.31s-.79.94-2.5,1.11a49.79,49.79,0,0,1-12.47,13C108.74,24.9,108.07,24.4,108.31,24.12Z"/><path class="cls-1" d="M121.27,82.24c2.25-2.65,2.67-2.87,3-2.87s.91.22,3.53,2.16c1.21.88,1.52,1.21,1.52,1.54s-.18.55-.79.55H103.93a40.57,40.57,0,0,1-6,7.79c6.33-.06,12.65-.22,19-.89a22.3,22.3,0,0,0-6-4.58c-.25-.16.06-.66.36-.6,7.79,1.71,12.9,4.69,12.9,8.28a2.19,2.19,0,0,1-2.13,2.2c-1,0-1.64-.44-3-2.42a18.47,18.47,0,0,0-1.22-1.77c-7.24,1.54-13.32,2.32-26.4,3.59-.49,1.32-.85,1.71-1.34,1.71-.73,0-1-.66-2.19-5.69a35.34,35.34,0,0,0,4.38.22h3.47a41.48,41.48,0,0,0,2.8-7.84h-13a67.66,67.66,0,0,1-1.82,12.87,37.45,37.45,0,0,1-8.64,15.89c-.24.28-1,0-.85-.38A49.66,49.66,0,0,0,79.9,96.1c1-5.58,1.34-12.42,1.34-23a88.31,88.31,0,0,0-.36-9.5,39.07,39.07,0,0,1,5.65,2.54H120.6c1.94-2,2.25-2.15,2.61-2.15s.73.16,2.74,1.76c1,.72,1.16,1,1.16,1.38s-.25.83-1.71,1.6v2.16c0,3.09.19,4.41.19,5.68,0,1.11-1,1.66-2.68,1.66-1.46,0-1.83-.39-1.83-1.71v-.39H85.87c-.06,2-.13,4-.25,6.07Zm0,28.05c2.61-3,3-3.2,3.4-3.2s.86.22,3.78,2.42c1.33.94,1.64,1.27,1.64,1.61s-.18.55-.79.55H86.72a29.35,29.35,0,0,0-4.14.33L82,109.9a28,28,0,0,0,5,.39h16v-7.51H92.25a24.69,24.69,0,0,0-4.38.33l-.61-2.1a37.36,37.36,0,0,0,5.36.39H103V99.91a26.52,26.52,0,0,0-.37-5c6,.55,6.63,1,6.63,1.54s-.36.88-2,1.49v3.48h10.89c2.43-2.54,2.85-2.82,3.22-2.82s.91.28,3.47,2.1c1.21.83,1.52,1.16,1.52,1.49s-.18.61-.79.61H107.28v7.51Zm-.19-42.73H85.87v7.23h35.21Z"/><path class="cls-1" d="M107,131.34a76,76,0,0,0-9.8,3.13,5.31,5.31,0,0,0-1.28.77,1.35,1.35,0,0,1-1,.37c-.68,0-1.45-.4-2.56-1.65a4.12,4.12,0,0,1-1.25-2.42c0-.53.14-1,.34-1s.24,0,.54.34c1.18,1.21,1.45,1.34,2.46,1.31a45.13,45.13,0,0,0,5.62-1.11c4.31-1,7.67-1.92,10.23-2.65a10.71,10.71,0,0,0,1.85-.64,2.42,2.42,0,0,1,1.28-.31,8.24,8.24,0,0,1,3.1.54c.57.27,1.08.61,1.08,1.31s-.31,1.18-1.25,1.21c-.71.07-1.45,0-3.33.17a11,11,0,0,0-7.71,3.63,9.22,9.22,0,0,0-2.42,6.52,6,6,0,0,0,2.45,5,10.48,10.48,0,0,0,5.39,1.75,6.28,6.28,0,0,1,2.59.47,1.94,1.94,0,0,1,1.31,1.71c0,.91-.6,1.62-2.18,1.62a16.19,16.19,0,0,1-6.53-1.58,8.78,8.78,0,0,1-5-7.73,12,12,0,0,1,1.31-5.64,15.48,15.48,0,0,1,4.68-4.91Zm9.19,4.64a2.5,2.5,0,0,1,1.24,2,1.13,1.13,0,0,1-1.11,1.18,1.2,1.2,0,0,1-1.14-.77,12.83,12.83,0,0,0-2.12-3c-.14-.13-.37-.3-.37-.44s.07-.16.17-.2a1.57,1.57,0,0,1,.53,0A6.58,6.58,0,0,1,116.18,136Zm3.13-2.19a2.18,2.18,0,0,1,1.21,1.72,1.12,1.12,0,0,1-1,1.24,1.28,1.28,0,0,1-1.25-.74,8.58,8.58,0,0,0-2.35-2.62c-.14-.1-.41-.27-.41-.4a.21.21,0,0,1,.1-.2.89.89,0,0,1,.54,0A7,7,0,0,1,119.31,133.79Z"/><path class="cls-1" d="M112.61,160.87a.31.31,0,0,1,.3-.3,16.66,16.66,0,0,1,5.89,2.32,4.25,4.25,0,0,1,2.16,3.39,2,2,0,0,1-2,2.09,2,2,0,0,1-1.79-1.51,11.59,11.59,0,0,0-4.24-5.62C112.71,161.08,112.61,161,112.61,160.87Z"/></svg>