<svg id="レイヤー_1" data-name="レイヤー 1" xmlns="http://www.w3.org/2000/svg" viewBox="0 0 208 98"><defs><style>.cls-1{fill:#004EA3;}.cls-2{fill:#595757;}</style></defs><path class="cls-1" d="M40.069,3.3l-4.552.108V1.948c6.279,0,7.965-.757,9.777-1.948l.632.487c-.084,1.678-.169,3.355-.169,4.979V38.854l4.552.054v1.407H35.517V38.908l4.552-.054Z"/><path class="cls-1" d="M58.189,46.267c2.612-1.407,3.75-3.03,4-5.682a2.555,2.555,0,0,1-1.475.487c-1.728,0-2.908-1.623-2.908-3.9,0-2.435,1.307-4.22,3.161-4.22,2.023,0,3.287,2.055,3.287,5.3A9.735,9.735,0,0,1,58.61,47.4Z"/><path class="cls-1" d="M79.47,40.91c-6.111,0-10.873-8.929-10.873-20.347S73.359.217,79.47.217c6.152,0,10.914,8.82,10.914,20.292C90.384,32.036,85.622,40.91,79.47,40.91ZM75.761,35.5c.59,3.03,1.939,4.113,3.751,4.113,2.065,0,3.2-1.354,3.792-4.384a93.8,93.8,0,0,0,.843-14.719c0-6.764-.337-12.392-.885-14.827-.674-3.03-1.9-4.113-3.792-4.113-2.066,0-3.2,1.353-3.751,4.113A88,88,0,0,0,74.834,20.4,93.647,93.647,0,0,0,75.761,35.5Z"/><path class="cls-1" d="M104.417,40.91c-6.111,0-10.873-8.929-10.873-20.347S98.306.217,104.417.217c6.152,0,10.914,8.82,10.914,20.292C115.331,32.036,110.569,40.91,104.417,40.91ZM100.708,35.5c.59,3.03,1.938,4.113,3.751,4.113,2.064,0,3.2-1.354,3.793-4.384a93.965,93.965,0,0,0,.842-14.719c0-6.764-.337-12.392-.884-14.827-.675-3.03-1.9-4.113-3.793-4.113-2.066,0-3.2,1.353-3.751,4.113A88,88,0,0,0,99.781,20.4,93.647,93.647,0,0,0,100.708,35.5Z"/><path class="cls-1" d="M129.364,40.91c-6.11,0-10.873-8.929-10.873-20.347S123.254.217,129.364.217c6.153,0,10.914,8.82,10.914,20.292C140.278,32.036,135.517,40.91,129.364,40.91ZM125.656,35.5c.59,3.03,1.938,4.113,3.75,4.113,2.065,0,3.2-1.354,3.793-4.384a93.93,93.93,0,0,0,.843-14.719c0-6.764-.338-12.392-.885-14.827-.674-3.03-1.9-4.113-3.793-4.113-2.065,0-3.2,1.353-3.751,4.113a88.031,88.031,0,0,0-.884,14.719A93.647,93.647,0,0,0,125.656,35.5Z"/><path class="cls-1" d="M152.644,25.183c3.373.557,4.706,1.522,4.706,3.415a2.3,2.3,0,0,1-2.371,2.375c-1.112,0-1.483-.519-1.483-2v-.408a3.551,3.551,0,0,0-.889-2.821c.074,2.264.259,15.292.259,16.443a1.392,1.392,0,0,1-.519,1.188,4.007,4.007,0,0,1-2.372.742c-1.186,0-1.63-.334-1.63-1.225,0-.334.074-1.187.074-1.67.111-3.081.26-7.052.333-10.579a19.767,19.767,0,0,1-3.261,4.194c-.667.632-1.074,1-1.371,1.226a1.219,1.219,0,0,1-.445.222c-.074,0-.111-.111-.111-.186s.074-.185.259-.482c2.039-2.969,4.04-9.873,4.6-15.812h-1.89a17.446,17.446,0,0,0-1.964.111c-.482-.668-.519-.742-.519-.816a.264.264,0,0,1,.3-.26c.482.037,1.112.074,1.408.074H148.6V17.165c0-.816-.037-3.6-.074-6.57,0-.259.037-.334.186-.334.111,0,.7.075,1.074.112,2.854.26,4,.668,4,1.336,0,.371-.148.557-1.112,1.113-.037,1.077-.074,4.343-.074,6.088h.481c.3-.446.445-.705.964-1.522a1.2,1.2,0,0,1,.889-.705c.594,0,2.15,1.819,2.15,2.524a.614.614,0,0,1-.667.631h-3.817ZM169.1,29.934a10.657,10.657,0,0,0,3.521,5.308,22.544,22.544,0,0,0,5.707,3.563c.815.334,1.112.446,1.112.594,0,.074-.037.112-.3.223a7.339,7.339,0,0,0-3.076,3.117.986.986,0,0,1-.815.557c-1.148,0-3.372-2.115-4.484-4.343-1.075-2.227-1.668-4.713-2.113-9.019h-.223c.223,5.791.334,9.465.334,11.4v.483c0,.927-.037,1.151-.407,1.522a4.292,4.292,0,0,1-2.854.816c-1.038,0-1.483-.3-1.483-1.076v-.335c0-.63.112-3.711.26-6.458a18.652,18.652,0,0,1-7.338,5.79,17.178,17.178,0,0,1-3.743,1.3c-.149,0-.259-.037-.259-.149s.073-.185.444-.371a15.879,15.879,0,0,0,3.855-2.858,28.7,28.7,0,0,0,6.634-10.059h-2.262v.446c0,.853-1.26,1.521-2.816,1.521-.779,0-1.149-.26-1.149-.928l.148-5.456V21.768c0-1.782-.037-2.747-.037-3.341,0-.185.037-.222.186-.222a12.54,12.54,0,0,1,2.964.631,2.214,2.214,0,0,1,1.149.742h2.261l-.037-3.712h-3.892c-1.408,0-2.853.037-4.262.149-.667-.743-.7-.817-.7-.891a.265.265,0,0,1,.3-.26c1.223.074,2.816.148,3.595.148h4.966c-.037-1.633-.074-4.119-.074-4.528,0-.334,0-.408.185-.408.074,0,.741.037,1.631.111a13.837,13.837,0,0,1,2.854.482c.407.149.7.446.7.743,0,.334-.259.594-1.075,1.076v2.524h3.78c1.705-2.375,2.187-2.895,2.706-2.895.926,0,3.3,2.265,3.3,3.155,0,.334-.334.594-.778.594h-9.043v3.712h2.743c1.186-1.633,1.3-1.745,1.778-1.745a6.28,6.28,0,0,1,2.779,1.671c.779.668,1.038,1,1.038,1.373,0,.186-.147.482-1,1.151,0,1,.074,3.192.186,6.57.036.631.036,1.076.036,1.262a1.246,1.246,0,0,1-.555,1.187,4.5,4.5,0,0,1-2.447.706,1.848,1.848,0,0,1-1.482-.483,4.852,4.852,0,0,1-.148-1.336Zm-4.781-9.5h-2.3a.962.962,0,0,0-.408.631V24.4h2.743Zm-2.706,4.788v3.934h2.706l.037-3.934Zm9.785-4.306c0-.371-.112-.482-.519-.482h-2.409V24.4h2.965Zm-2.928,4.306v3.934h2.965V25.22Z"/><path class="cls-1" d="M45.283,74.1c.023,4.417-3.189,8.016-3.189,8.016s-3.253-3.566-3.278-7.981S42,66.117,42,66.117s3.256,3.56,3.279,7.98"/><path class="cls-1" d="M30.222,75.82c4.4.321,7.73,3.81,7.73,3.81s-3.8,2.97-8.2,2.647-7.733-3.806-7.733-3.806,3.8-2.972,8.2-2.651"/><path class="cls-1" d="M19.744,65.019c4.371.555,7.513,4.217,7.513,4.217S23.3,72,18.926,71.442s-7.518-4.219-7.518-4.219,3.959-2.761,8.336-2.2"/><path class="cls-1" d="M12.657,51.4c4.241,1.21,6.8,5.3,6.8,5.3s-4.324,2.133-8.564.926-6.8-5.3-6.8-5.3,4.324-2.135,8.565-.924"/><path class="cls-1" d="M8.46,35.756c3.71,2.4,4.962,7.056,4.962,7.056S8.663,43.593,4.96,41.2,0,34.139,0,34.139s4.755-.777,8.46,1.617"/><path class="cls-1" d="M35.853,67.15c-.627,4.37-4.333,7.458-4.333,7.458s-2.695-4.007-2.064-8.379,4.334-7.46,4.334-7.46,2.69,4.007,2.063,8.381"/><path class="cls-1" d="M28.219,56.816c-1,4.3-4.966,7.054-4.966,7.054s-2.336-4.225-1.329-8.524,4.963-7.054,4.963-7.054,2.333,4.225,1.332,8.524"/><path class="cls-1" d="M22.439,45.185c-2.12,3.875-6.672,5.455-6.672,5.455s-1.118-4.695,1-8.567,6.675-5.455,6.675-5.455,1.112,4.7-1.007,8.567"/><path class="cls-1" d="M19.96,32.179c-2.509,3.635-7.2,4.737-7.2,4.737s-.621-4.786,1.887-8.419,7.2-4.736,7.2-4.736.625,4.788-1.886,8.418"/><path class="cls-1" d="M14.339,22.27c.312,4.407-2.662,8.209-2.662,8.209S8.2,27.134,7.889,22.729s2.662-8.207,2.662-8.207,3.473,3.341,3.788,7.748"/><path class="cls-1" d="M73.993,96.138,73.613,98c-.6-.126-59.707-12.927-63.048-68.958l1.891-.116C15.707,83.493,73.411,96.02,73.993,96.138Z"/><path class="cls-1" d="M162.717,74.1c-.023,4.417,3.19,8.016,3.19,8.016s3.252-3.566,3.277-7.981S166,66.117,166,66.117s-3.256,3.56-3.279,7.98"/><path class="cls-1" d="M177.778,75.82c-4.4.321-7.73,3.81-7.73,3.81s3.8,2.97,8.2,2.647,7.733-3.806,7.733-3.806-3.8-2.972-8.2-2.651"/><path class="cls-1" d="M188.257,65.019c-4.372.555-7.514,4.217-7.514,4.217S184.7,72,189.074,71.442s7.518-4.219,7.518-4.219-3.959-2.761-8.335-2.2"/><path class="cls-1" d="M195.343,51.4c-4.241,1.21-6.795,5.3-6.795,5.3s4.324,2.133,8.564.926,6.8-5.3,6.8-5.3-4.324-2.135-8.565-.924"/><path class="cls-1" d="M199.54,35.756c-3.71,2.4-4.962,7.056-4.962,7.056s4.759.781,8.462-1.613,4.96-7.06,4.96-7.06-4.755-.777-8.46,1.617"/><path class="cls-1" d="M172.147,67.15c.627,4.37,4.333,7.458,4.333,7.458s2.7-4.007,2.064-8.379-4.334-7.46-4.334-7.46-2.69,4.007-2.063,8.381"/><path class="cls-1" d="M179.782,56.816c1,4.3,4.965,7.054,4.965,7.054s2.336-4.225,1.329-8.524-4.963-7.054-4.963-7.054-2.333,4.225-1.331,8.524"/><path class="cls-1" d="M185.561,45.185c2.12,3.875,6.672,5.455,6.672,5.455s1.119-4.695-1-8.567-6.675-5.455-6.675-5.455-1.112,4.7,1.007,8.567"/><path class="cls-1" d="M188.04,32.179c2.509,3.635,7.2,4.737,7.2,4.737s.621-4.786-1.887-8.419-7.2-4.736-7.2-4.736-.626,4.788,1.885,8.418"/><path class="cls-1" d="M193.661,22.27c-.311,4.407,2.662,8.209,2.662,8.209s3.476-3.345,3.788-7.75-2.662-8.207-2.662-8.207-3.473,3.341-3.788,7.748"/><path class="cls-1" d="M134.007,96.138l.38,1.862c.6-.126,59.707-12.927,63.049-68.958l-1.891-.116C192.293,83.493,134.59,96.02,134.007,96.138Z"/><path class="cls-2" d="M65.919,55.837h-1.99a7.648,7.648,0,0,0-1.113.067v-.777a7.212,7.212,0,0,0,1.113.068h4.656a7.236,7.236,0,0,0,1.114-.068V55.9a7.356,7.356,0,0,0-1.114-.067H66.617v1.836h2.17a6.745,6.745,0,0,0,1.08-.068v.766a6.03,6.03,0,0,0-1.08-.067h-2.17v2.5a10.07,10.07,0,0,0,1.833.124c.911,0,1.687-.034,2.632-.113a2.077,2.077,0,0,0-.247.789c-.979.023-1.058.023-1.362.023a15.16,15.16,0,0,1-2.463-.091,4.106,4.106,0,0,1-3.452-2.117,7.615,7.615,0,0,1-1.71,2.557,2.079,2.079,0,0,0-.585-.53,6,6,0,0,0,1.519-2,7.137,7.137,0,0,0,.686-2.568V56.76l.787.158c-.034.146-.034.146-.135.586-.056.27-.225.924-.3,1.194a3.455,3.455,0,0,0,.889,1.239,3.779,3.779,0,0,0,1.214.687Zm-.168-3.188a3.787,3.787,0,0,0-.068-.709h.877a3.012,3.012,0,0,0-.078.7v.552h3.284c.438,0,.765-.012,1.124-.046a5.222,5.222,0,0,0-.044.766v.71a5.518,5.518,0,0,0,.044.8h-.731V53.843h-7.85V55.42h-.742a5.363,5.363,0,0,0,.045-.8v-.71a5.083,5.083,0,0,0-.045-.766c.36.034.686.046,1.136.046h3.048Z"/><path class="cls-2" d="M73.553,53.077a7.131,7.131,0,0,0-.067-1.07h.787a7.278,7.278,0,0,0-.056,1.081v.2h2.069v-.214a6.507,6.507,0,0,0-.056-1.07h.776a6.787,6.787,0,0,0-.067,1.081v.2a4.7,4.7,0,0,0,.933-.068v.721a6.2,6.2,0,0,0-.933-.045v4.81a5.5,5.5,0,0,0,.888-.056v.7c-.259-.022-.585-.034-1.023-.034H73.25a4.7,4.7,0,0,0-.911.057v-.721a4.588,4.588,0,0,0,.9.056h.315V53.9h-.067a5,5,0,0,0-.967.057v-.733a4.64,4.64,0,0,0,.967.068h.067Zm1.159,6.984a6.4,6.4,0,0,1-1.755,1.949,1.562,1.562,0,0,0-.517-.541,4.49,4.49,0,0,0,1.687-1.757Zm1.574-4.99V53.9H74.217v1.172Zm0,1.757V55.645H74.217v1.183Zm0,1.881V57.4H74.217v1.306Zm-.168.991a4.154,4.154,0,0,0,1.1,1.161,2.332,2.332,0,0,0-.518.484,5.741,5.741,0,0,1-1.091-1.3Zm2.867-1.284a6.047,6.047,0,0,1-1.315,3.65,1.774,1.774,0,0,0-.552-.518A4.375,4.375,0,0,0,78.232,59a50.917,50.917,0,0,0,.191-5.226,11.343,11.343,0,0,0-.045-1.33,9.01,9.01,0,0,0,1.08.045H81.01a8.7,8.7,0,0,0,1.069-.045,8.9,8.9,0,0,0-.045,1.093v7.592c0,.383-.1.619-.3.732a2.181,2.181,0,0,1-.911.124c-.158,0-.281-.011-.889-.045a2.976,2.976,0,0,0-.18-.8,6.192,6.192,0,0,0,1.238.147c.269,0,.36-.068.36-.248V58.416Zm.1-2.692c-.023,1.1-.023,1.34-.068,2.061h2.329V55.724Zm2.261-2.6H79.1v1.971h2.25Z"/><path class="cls-2" d="M84.91,56.986c0-.406.011-.755.045-1.386a8.669,8.669,0,0,1-1.125,1.746,2.3,2.3,0,0,0-.45-.62,10.194,10.194,0,0,0,1.98-3.435,6.653,6.653,0,0,0,.427-1.566l.787.2c-.067.169-.067.169-.326.969a16.05,16.05,0,0,1-.641,1.689V60.77c0,.519.023.936.056,1.318h-.821a11.2,11.2,0,0,0,.068-1.351Zm6.084-3.639v-.428a6.24,6.24,0,0,0-.067-1.013h.821a6.528,6.528,0,0,0-.068,1.036v.405h.63a8.037,8.037,0,0,0,1.125-.056v.721a8.6,8.6,0,0,0-1.114-.045H91.68V55.51h1a7.265,7.265,0,0,0,1.136-.067v.766a7.12,7.12,0,0,0-1.136-.068H87.4a8.485,8.485,0,0,0-1.147.056v-.743a6.52,6.52,0,0,0,1.125.056h.866V53.967h-.484a8.722,8.722,0,0,0-1.1.045v-.721a9.869,9.869,0,0,0,1.125.056h.461v-.428a6.525,6.525,0,0,0-.068-1.013h.822a6.237,6.237,0,0,0-.068,1.036v.405Zm-3.779,4.574a6.187,6.187,0,0,0-.044-.845,7.763,7.763,0,0,0,1,.045h3.566a7.535,7.535,0,0,0,1-.045,6.353,6.353,0,0,0-.045.89v2.917a9.179,9.179,0,0,0,.057,1.217h-.743v-.62H87.9v.62h-.743a10.727,10.727,0,0,0,.056-1.183Zm.687,1.036h4.1v-1.2H87.9Zm0,1.915h4.1V59.565H87.9Zm3.092-5.362V53.967H88.925V55.51Z"/><path class="cls-2" d="M96.3,53.257a9.247,9.247,0,0,0-.067-1.25h.832A9.408,9.408,0,0,0,97,53.269v1.678h.315a4.331,4.331,0,0,0,.9-.056v.732a6.943,6.943,0,0,0-.911-.046H97v3.538c.484-.226.686-.327,1.271-.654l.068.688a21.835,21.835,0,0,1-2.9,1.374c-.158.056-.326.135-.45.191l-.191-.777A6.347,6.347,0,0,0,96.3,59.43V55.577h-.416a4.275,4.275,0,0,0-.945.068v-.766a4.163,4.163,0,0,0,.945.068H96.3Zm3.441,7.3c0,.27.068.36.338.428a8.232,8.232,0,0,0,1.811.1c1.586,0,2.058-.068,2.238-.327a3.287,3.287,0,0,0,.236-1.521,2.036,2.036,0,0,0,.72.293c-.136,2.084-.337,2.219-3.262,2.219-2.328,0-2.789-.169-2.789-1.047V56.569l-.247.078a6.2,6.2,0,0,0-.934.361l-.2-.766a4.276,4.276,0,0,0,.978-.225l.405-.136V54.113a8.186,8.186,0,0,0-.068-1.149h.844a8.012,8.012,0,0,0-.068,1.116v1.576l1.608-.54V53.032a7.109,7.109,0,0,0-.067-1.047h.832a7.5,7.5,0,0,0-.067,1.058v1.848l1.732-.575a8.136,8.136,0,0,0,.888-.349c-.045,1.126-.09,1.914-.18,3.019-.078,1-.224,1.475-.517,1.644a1.533,1.533,0,0,1-.81.158c-.1,0-.236-.011-.494-.034a2.679,2.679,0,0,0-.169-.71,4,4,0,0,0,.866.1c.259,0,.315-.057.371-.383a22.888,22.888,0,0,0,.18-2.85l-1.867.642v3.109a7.384,7.384,0,0,0,.067,1.081h-.832a7.338,7.338,0,0,0,.067-1.092V55.792l-1.608.541Z"/><path class="cls-2" d="M107.679,53.01a6.762,6.762,0,0,0-.056-1.161h.787A7.374,7.374,0,0,0,108.354,53v1.037h.281a4.31,4.31,0,0,0,.731-.046v.7a6.441,6.441,0,0,0-.7-.034h-.281a4.114,4.114,0,0,0,1.292,1.78,2.737,2.737,0,0,0-.416.552,4.9,4.9,0,0,1-.956-1.409c.023.62.046,1.273.046,1.814v3.436a9.257,9.257,0,0,0,.067,1.306h-.81a7.608,7.608,0,0,0,.08-1.306V57.639a9.31,9.31,0,0,1,.033-.992c.033-.438.045-.574.056-1a8.867,8.867,0,0,1-1.5,3.492,2.6,2.6,0,0,0-.461-.6,9.626,9.626,0,0,0,1.755-3.886h-.63a4.577,4.577,0,0,0-.776.045v-.71a4.393,4.393,0,0,0,.776.046h.731Zm5.758,6.386h1.271a4.929,4.929,0,0,0,.934-.056v.687a5.615,5.615,0,0,0-.934-.057h-1.271v1H114.9a8.173,8.173,0,0,0,1.159-.056v.721a9.258,9.258,0,0,0-1.17-.068h-4.072v.552h-.73a6.458,6.458,0,0,0,.078-1.172V58.438c0-.281.012-.6.035-.889a6.846,6.846,0,0,1-.912.856,1.59,1.59,0,0,0-.45-.484,8.54,8.54,0,0,0,2.418-2.7H110.6a4.461,4.461,0,0,0-.945.068v-.733a5.16,5.16,0,0,0,.956.057h.967a6.272,6.272,0,0,0,.439-1.093h-1.2a8.131,8.131,0,0,1-.775.946,1.3,1.3,0,0,0-.529-.405,4.642,4.642,0,0,0,1.1-1.408,3.728,3.728,0,0,0,.338-.822l.664.214c-.158.349-.237.507-.428.856h3.363a8,8,0,0,0,1.214-.068v.744a8.925,8.925,0,0,0-1.225-.057H112.7c-.18.5-.259.7-.439,1.093h2.688a7.207,7.207,0,0,0,1.147-.068v.744a7.609,7.609,0,0,0-1.147-.068h-3a7.437,7.437,0,0,1-.8,1.194H112.9a3.984,3.984,0,0,0,.506-1.025l.618.226a5.6,5.6,0,0,1-.461.8h1.316a6.223,6.223,0,0,0,1.035-.068v.711A9.151,9.151,0,0,0,114.866,57h-1.429v.912h1.271a5.226,5.226,0,0,0,.934-.056v.687a6.886,6.886,0,0,0-.934-.056h-1.271Zm-.619-2.4h-2v.912h2Zm-2,1.487V59.4h2v-.912Zm0,2.489h2v-1h-2Z"/><path class="cls-2" d="M119.744,60.725c0,.519.022.946.057,1.341h-.843a11.686,11.686,0,0,0,.066-1.363V56.941c0-.5.012-.845.045-1.364a9.374,9.374,0,0,1-1.259,1.735l-.079-.124a1.732,1.732,0,0,0-.416-.5,11.092,11.092,0,0,0,2.26-3.436,6.15,6.15,0,0,0,.495-1.442l.81.259a4.928,4.928,0,0,0-.281.642c-.158.395-.517,1.172-.855,1.814Zm6.084.136c0,.743-.236.923-1.247.923-.439,0-.867-.023-1.362-.068a2.524,2.524,0,0,0-.213-.766,9.134,9.134,0,0,0,1.54.136c.462,0,.563-.057.563-.293V55.228h-3.532a8.663,8.663,0,0,0-1.2.068v-.789a8.256,8.256,0,0,0,1.169.068h3.565v-1.3a8.444,8.444,0,0,0-.079-1.318h.866a10.735,10.735,0,0,0-.068,1.318v1.3h.552a6.876,6.876,0,0,0,1.068-.068v.766c-.348-.033-.708-.045-1.068-.045h-.552Zm-4.126-4.63a14.363,14.363,0,0,1,1.9,2.546l-.63.484a11.52,11.52,0,0,0-1.855-2.624Z"/><path class="cls-2" d="M129.887,57.008c0-.507.022-.957.055-1.476a9.223,9.223,0,0,1-1.2,1.713,1.372,1.372,0,0,0-.406-.643,10.208,10.208,0,0,0,2.115-3.255,7.965,7.965,0,0,0,.473-1.509l.741.236a20.912,20.912,0,0,1-1.057,2.478v6.117a9.471,9.471,0,0,0,.079,1.318h-.877a8.635,8.635,0,0,0,.079-1.352Zm2.879-2.073c-.427,0-.843.023-1.181.057V54.2a7.923,7.923,0,0,0,1.181.068h4.442A8.422,8.422,0,0,0,138.4,54.2v.789c-.326-.034-.754-.057-1.181-.057h-2v2.377h1.664a8.411,8.411,0,0,0,1.17-.067v.766c-.338-.034-.754-.057-1.158-.057h-1.676v2.918h2.328a8.844,8.844,0,0,0,1.226-.068v.777c-.338-.033-.765-.056-1.226-.056h-5.241c-.472,0-.9.023-1.237.056V60.8a8.743,8.743,0,0,0,1.214.068h2.2V57.954h-1.394c-.416,0-.821.023-1.169.057v-.766a8.224,8.224,0,0,0,1.158.067h1.405V54.935Zm1.023-3.018a13.781,13.781,0,0,1,2.26,1.43l-.527.575a9.228,9.228,0,0,0-2.227-1.5Z"/><path class="cls-2" d="M143.842,56.073c-1.35.26-1.743.327-3.06.519a2.448,2.448,0,0,0-.348-.688,26.447,26.447,0,0,0,5.848-1.16,4.987,4.987,0,0,0,1.26-.518l.629.62c-.258.067-.258.067-1.091.349-.685.236-1.765.54-2.485.721v1.633l4.083-.495a9.055,9.055,0,0,0,1.113-.215l.078.811H149.7a8.255,8.255,0,0,0-.968.068l-4.138.518v2.321c0,.292.045.383.281.461a7.755,7.755,0,0,0,1.653.1,5.244,5.244,0,0,0,2.137-.214c.259-.147.327-.451.371-1.577a1.949,1.949,0,0,0,.72.315c-.078,1.149-.236,1.6-.63,1.847-.359.237-.989.3-2.631.3a6.377,6.377,0,0,1-2.272-.214c-.3-.146-.382-.337-.382-.9V58.326l-2.621.315a8.166,8.166,0,0,0-1.125.214l-.089-.811h.179a8.047,8.047,0,0,0,.956-.067l2.7-.338Zm.584-3.5a2.888,2.888,0,0,0-.079-.687h.878a3.556,3.556,0,0,0-.068.687V53.1h3.318a11.325,11.325,0,0,0,1.136-.044,4.987,4.987,0,0,0-.045.765v.744a5.119,5.119,0,0,0,.045.788h-.742V53.764h-7.861v1.588h-.743a5.183,5.183,0,0,0,.045-.788V53.82a4.961,4.961,0,0,0-.045-.765,11.1,11.1,0,0,0,1.125.044h3.036Z"/><path class="cls-2" d="M75.375,67c-.045.134-.09.247-.168.5a16.362,16.362,0,0,1-.855,2.129v6.15c0,.485.022.958.056,1.318h-.832a10.98,10.98,0,0,0,.067-1.352V72.046c0-.518.012-.845.034-1.363A8.16,8.16,0,0,1,72.5,72.418a.838.838,0,0,1-.068-.124,1.656,1.656,0,0,0-.213-.316c-.1-.113-.158-.18-.169-.192a10.573,10.573,0,0,0,1.89-2.906,8.533,8.533,0,0,0,.652-2.117Zm2.508,7.31a9.825,9.825,0,0,1-2.519,2.7,2.28,2.28,0,0,0-.6-.54,7.339,7.339,0,0,0,2.474-2.58Zm1.924-4.968V67.957a5.777,5.777,0,0,0-.068-.935h.844a4.676,4.676,0,0,0-.068.935v1.385h.72a6.586,6.586,0,0,0,1.046-.067v.788A6.774,6.774,0,0,0,81.235,70h-.72v2.772h1.012a7.307,7.307,0,0,0,1.091-.068v.8a7.411,7.411,0,0,0-1.091-.068H75.994a7.374,7.374,0,0,0-1.08.068v-.8a6.858,6.858,0,0,0,1.08.068h.945V70h-.563a6.578,6.578,0,0,0-1.046.068v-.788a6.7,6.7,0,0,0,1.046.067h.563v-1.4a6.152,6.152,0,0,0-.068-.924H77.7a5.674,5.674,0,0,0-.057.935v1.385Zm0,3.425V70h-2.16v2.772Zm.258,1.081a8.441,8.441,0,0,0,2.542,2.58,3.849,3.849,0,0,0-.562.619,11,11,0,0,1-2.6-2.8Z"/><path class="cls-2" d="M83.594,71.8a4.328,4.328,0,0,0,.528.022c.1,0,.158,0,.417-.011C85,71.2,85,71.2,85.2,70.9a13.3,13.3,0,0,0-1.608-1.881l.438-.5c.226.248.282.315.45.5a8.373,8.373,0,0,0,1.024-2.163l.708.281a3.866,3.866,0,0,0-.427.778,16.3,16.3,0,0,1-.911,1.566c.371.45.45.563.686.878a12.168,12.168,0,0,0,1.26-2.309l.686.349a5.092,5.092,0,0,0-.27.439c-.529.89-1.361,2.152-1.957,2.941a16.613,16.613,0,0,0,1.766-.17,8.451,8.451,0,0,0-.529-.98l.529-.236a15.894,15.894,0,0,1,1,2.061l-.574.305c-.09-.294-.124-.383-.2-.6-.46.068-.618.079-1.135.136v3.728a7.877,7.877,0,0,0,.067,1.127h-.809a8.485,8.485,0,0,0,.067-1.127V72.35c-.405.034-.405.034-1.26.09a3.986,3.986,0,0,0-.506.067Zm1.248,1.487a11.589,11.589,0,0,1-.629,3.188l-.619-.282A9.346,9.346,0,0,0,84.2,73.15Zm2.317-.248a16.683,16.683,0,0,1,.675,2.557l-.619.18A11.01,11.01,0,0,0,86.6,73.24ZM90.9,67.011a6.207,6.207,0,0,0,1.62,2.117A8.843,8.843,0,0,0,94.1,70.255a2.455,2.455,0,0,0-.405.653,9.655,9.655,0,0,1-3.171-3.2,8.673,8.673,0,0,1-2.744,3.131,1.9,1.9,0,0,0-.45-.574,7.177,7.177,0,0,0,2.789-3.255ZM89.037,77.058h-.764a8.348,8.348,0,0,0,.067-1.1V73.285a6.623,6.623,0,0,0-.045-.89,7.586,7.586,0,0,0,.8.034h3.239a7.367,7.367,0,0,0,.788-.034,6.418,6.418,0,0,0-.045.89v2.624a9.477,9.477,0,0,0,.056,1.149h-.776v-.687H89.037Zm-.382-6.724a4.737,4.737,0,0,0,1.012.067h2.025a4.607,4.607,0,0,0,1-.067v.777a6.525,6.525,0,0,0-1.034-.056H89.69a6.538,6.538,0,0,0-1.035.056Zm.382,5.418h3.329V73.06H89.037Z"/><path class="cls-2" d="M100.416,73.735a5.269,5.269,0,0,0,1.462,1.408,8.541,8.541,0,0,0,3.116,1.149,2.858,2.858,0,0,0-.427.733,7.456,7.456,0,0,1-4.848-3.166,4.344,4.344,0,0,1-1.766,2.107A7.736,7.736,0,0,1,95.4,77a2.632,2.632,0,0,0-.416-.71,6.782,6.782,0,0,0,2.407-.811,3.735,3.735,0,0,0,1.653-1.746H96.188a7.42,7.42,0,0,0-1.046.068v-.755a6.219,6.219,0,0,0,1.034.068h3.082a6.6,6.6,0,0,0,.157-1.081H97.379a5.468,5.468,0,0,0-.978.056v-.71a5.448,5.448,0,0,0,.978.056h2.093c.022-.439.022-.563.033-1h-2.17a6.825,6.825,0,0,0-1.08.068V69.77a6.538,6.538,0,0,0,1.08.068h2.182a4.182,4.182,0,0,0-.068-.913h.832a4.138,4.138,0,0,0-.056.913h2.351a6.456,6.456,0,0,0,1.08-.068V70.5a5.87,5.87,0,0,0-1.08-.068h-2.362c-.011.36-.023.631-.045,1H102.4a5.317,5.317,0,0,0,.968-.056v.71a5.411,5.411,0,0,0-.968-.056h-2.271a8.383,8.383,0,0,1-.169,1.081H103.8a6.389,6.389,0,0,0,1.046-.068V73.8a7.374,7.374,0,0,0-1.058-.068Zm-.922-6.172a2.923,2.923,0,0,0-.079-.7h.877a3.673,3.673,0,0,0-.067.7v.428h3.306a11.25,11.25,0,0,0,1.126-.045,4.962,4.962,0,0,0-.045.754v.665a4.914,4.914,0,0,0,.045.777h-.732V68.61H96.007v1.532h-.742a5.128,5.128,0,0,0,.045-.777v-.653a5.16,5.16,0,0,0-.045-.766,11.319,11.319,0,0,0,1.136.045h3.093Z"/><path class="cls-2" d="M107.319,73.195a11.519,11.519,0,0,1-.641,3.244l-.6-.315a8.75,8.75,0,0,0,.618-3.053Zm-1.226-1.431a2.786,2.786,0,0,0,.416.022c.079,0,.18,0,.473-.01.438-.609.494-.677.764-1.116a12.115,12.115,0,0,0-1.574-1.723l.371-.529c.248.247.27.281.472.484a7.173,7.173,0,0,0,.99-2.084l.675.338a6.392,6.392,0,0,0-.45.833,12.4,12.4,0,0,1-.8,1.329c.371.406.5.541.687.789a10.9,10.9,0,0,0,1.045-1.96l.653.349a5.717,5.717,0,0,0-.405.631,27.971,27.971,0,0,1-1.71,2.614c.72-.046.956-.079,1.553-.158a7.825,7.825,0,0,0-.439-.857l.461-.225a10.449,10.449,0,0,1,.945,2.107l-.551.236c-.09-.36-.125-.473-.2-.709-.3.056-.574.09-.911.135v3.717a8.535,8.535,0,0,0,.068,1.149h-.788a8.373,8.373,0,0,0,.068-1.149v-3.65c-.664.068-1.013.1-1.058.1a5.71,5.71,0,0,0-.64.078Zm3.386,1.307a15.271,15.271,0,0,1,.494,2.433l-.607.146a13.011,13.011,0,0,0-.428-2.422Zm2.834,2.805a7.013,7.013,0,0,1-2.61,1.273,2.017,2.017,0,0,0-.427-.564,5.921,5.921,0,0,0,2.531-1.115ZM111.1,68.25a7.974,7.974,0,0,0-1.035.045V67.63a6.838,6.838,0,0,0,1.057.068h1.53a4.541,4.541,0,0,0-.068-.834h.765a3.688,3.688,0,0,0-.068.834h1.7a7.157,7.157,0,0,0,1.08-.068V68.3a8.238,8.238,0,0,0-1.069-.045h-1.71v.665h1.339a5.657,5.657,0,0,0,1.013-.057v.653a7.831,7.831,0,0,0-.99-.045h-1.362v.721h1.981a6.917,6.917,0,0,0,1.046-.067v.664a9.6,9.6,0,0,0-1.046-.056H110.9a10.1,10.1,0,0,0-1.091.056V70.12a6.017,6.017,0,0,0,1.091.067h1.754v-.721h-1.215a8.53,8.53,0,0,0-1.023.045v-.653a5.785,5.785,0,0,0,1.023.057h1.215V68.25Zm.371,7.073c-.405,0-.731.012-1.012.035a8.551,8.551,0,0,0,.045-1.037V72.305a8.484,8.484,0,0,0-.045-1.014c.269.023.517.034.989.034h3.172c.484,0,.708-.011,1-.034a8.985,8.985,0,0,0-.045,1.048v1.926a9.613,9.613,0,0,0,.045,1.093c-.338-.023-.585-.035-.968-.035Zm-.337-2.849h3.8v-.631h-3.8Zm0,1.16h3.8v-.665h-3.8Zm0,1.171h3.8V74.13h-3.8Zm2.89.665a7.281,7.281,0,0,0,2.475,1.07,2.515,2.515,0,0,0-.417.6,8.261,8.261,0,0,1-2.542-1.25Z"/><path class="cls-2" d="M121.375,73.532a14.629,14.629,0,0,0-2.373-1.6l.528-.439c.5.3.619.394.945.608a8.263,8.263,0,0,0,1.215-1.082h-2.182a8.114,8.114,0,0,0-1,.057,8.686,8.686,0,0,0,.045-1.036v-1.7a9.265,9.265,0,0,0-.045-1.081,9.464,9.464,0,0,0,1.068.056h5.669a9.837,9.837,0,0,0,1.08-.056,8.9,8.9,0,0,0-.045,1.081v1.7a8.445,8.445,0,0,0,.045,1.036,6.814,6.814,0,0,0-1.023-.057h-2.745a11.583,11.583,0,0,1-1.6,1.431c.405.293.484.35.956.721a9.839,9.839,0,0,0,2.159-1.892l.675.394c-.248.214-.248.214-.753.642a15.369,15.369,0,0,1-2.07,1.487c1.912-.068,2.092-.079,3.576-.192a10.249,10.249,0,0,0-.933-.833l.506-.36a15.241,15.241,0,0,1,2.238,2.2l-.528.45c-.36-.45-.484-.608-.776-.923-1.485.112-2.148.157-3.329.2V76a7.224,7.224,0,0,0,.078,1.149h-.877A7.286,7.286,0,0,0,121.96,76V74.377c-1.226.045-2.149.079-2.789.091a8.007,8.007,0,0,0-1.361.067l-.135-.766a9.319,9.319,0,0,0,1.574.068c.383,0,.765,0,1.676-.011Zm-.416,1.611a9.3,9.3,0,0,1-2.643,1.825,2.205,2.205,0,0,0-.585-.585,6.682,6.682,0,0,0,2.609-1.634Zm-1.743-6.273h2.8v-.992h-2.8Zm0,1.6h2.8V69.421h-2.8Zm3.452-2.591v.992H125.6v-.992Zm.012,1.543v1.048H125.6V69.421Zm1.608,5.2a7.764,7.764,0,0,0,2.756,1.69,2.724,2.724,0,0,0-.5.631,9.853,9.853,0,0,1-2.822-1.938Z"/><path class="cls-2" d="M128.74,68.88a6.14,6.14,0,0,0,.978.068h2.71a5.506,5.506,0,0,0,.979-.068v.744a6.037,6.037,0,0,0-.979-.056h-2.722a6.47,6.47,0,0,0-.966.056Zm.528-1.531a5.267,5.267,0,0,0,.911.056h1.833a5.079,5.079,0,0,0,.889-.056v.709a7.01,7.01,0,0,0-.889-.045h-1.833a6.923,6.923,0,0,0-.911.045Zm.011,3.12a5.046,5.046,0,0,0,.81.045h2a5.054,5.054,0,0,0,.8-.045v.687a5.632,5.632,0,0,0-.8-.045h-2a5.414,5.414,0,0,0-.81.045Zm0,1.554a4.867,4.867,0,0,0,.81.045h2a5.054,5.054,0,0,0,.8-.045v.687a5.366,5.366,0,0,0-.8-.045h-2a5.446,5.446,0,0,0-.81.045Zm.8,5.069h-.753a7.617,7.617,0,0,0,.067-1.081v-1.5a5.726,5.726,0,0,0-.057-.924,5.1,5.1,0,0,0,.788.045h2.058a7.055,7.055,0,0,0,.765-.034,6.285,6.285,0,0,0-.045.9v1.487a5.774,5.774,0,0,0,.068.958h-.755v-.44h-2.136Zm-.011-1.183h2.159V74.242h-2.159Zm5.611-7.693a8.189,8.189,0,0,0-.078-1.25h.888a8.094,8.094,0,0,0-.078,1.25v2.275h1.068a10.582,10.582,0,0,0,1.35-.067v.811a11.584,11.584,0,0,0-1.35-.068H136.41v4.3a10.133,10.133,0,0,0,.09,1.611h-.9a11.615,11.615,0,0,0,.078-1.611v-4.3h-.989a10.979,10.979,0,0,0-1.294.068v-.811a9.864,9.864,0,0,0,1.294.067h.989Z"/></svg>