<svg id="レイヤー_1" data-name="レイヤー 1" xmlns="http://www.w3.org/2000/svg" viewBox="0 0 134 93"><defs><style>.cls-1{fill:#c2b276;}</style></defs><polygon class="cls-1" points="134 72.33 85 80.68 98.82 91.58 75.81 82.25 12.72 93 0 18.16 106.58 0 123.37 9.76 134 72.33"/><path d="M42.33,42.94,41,42.52c1.54-4.48,2-5.74,1.31-10.23l-2.57.43-.21-1.18,2.58-.44-.51-3L43,27.88l.5,3,2.88-.49.2,1.18-2.89.49C44.44,36.92,43.87,38.46,42.33,42.94Zm9.48-10.18.2,1.18-5.43.93-.2-1.18Zm-5,6.29-.11-.65L48,38.17l.12.65c.22,1.35,1.84,1.16,3.38.9l1.74-.3.22,1.26L51.74,41C49.37,41.37,47.17,41.35,46.78,39.05ZM49,31.16l-1,.18-.46-2.74,1-.18Zm2.18-.35-1,.17-.46-2.73,1-.18Z"/><path d="M60.18,30.44l-2.77.48-.21-1.21L60,29.24l-.67-3.92,1.34-.23L61.33,29l1.13-.19a3.29,3.29,0,0,1,3.84,1.56,9.69,9.69,0,0,1,.81,2.95,9.47,9.47,0,0,1,.2,3c-.31,2.11-1.82,2.51-3.67,2.83l-.21-1.26c2.18-.37,2.38-.91,2.5-1.81a7.7,7.7,0,0,0-.18-2.55A8,8,0,0,0,65.07,31c-.39-.75-1-1.26-2.41-1l-1.14.2c.52,3.69.13,4.72-1.31,9.3l-1.28-.38C60.38,34.53,60.67,33.76,60.18,30.44Zm6.94-2.81.78-1.05c2.33,1.22,2.76,2.31,3.45,6.38L70,33.18C69.35,29.1,68.94,28.71,67.12,27.63Z"/><path d="M81,23.9a12.53,12.53,0,0,1-3.74-.66L77.67,22a12.21,12.21,0,0,0,3.29.65,19,19,0,0,0,3.33-.4l.21,1.25A22.47,22.47,0,0,1,81,23.9Zm-2,7A8.55,8.55,0,0,1,82.9,29c2-.29,3.69-.08,4.48,1.44A3.43,3.43,0,0,1,86,34.92a8.76,8.76,0,0,1-5.34,1.22L80.48,35a8,8,0,0,0,4.75-1.1,2.13,2.13,0,0,0,.91-2.75c-.57-1.16-2.25-1-3.15-.81a8.52,8.52,0,0,0-4.37,2.22l-1.35-.32,0,0a10.8,10.8,0,0,0,.47-3.51,21.22,21.22,0,0,0-.39-3.37l1.36-.23A17.32,17.32,0,0,1,79,30.88Z"/><path d="M27.66,68.07l-1.35-.83c2.76-4.31,2.71-5.87,2.16-9.31L21.56,59.1l-.26-1.54L35.72,55.1,36,56.65l-5.9,1C30.67,61.41,30.74,63.32,27.66,68.07ZM23,54.14l-.26-1.55,10-1.7L33,52.43Z"/><path d="M48.29,53.49l1.84,10.85-1.6.28L46.9,55c-1.33,1.37-3,2.88-5.39,5.16L40.42,59c6.39-5.87,9.65-8.57,9.12-11.74L51.12,47C51.48,49.13,50.68,51,48.29,53.49Z"/><path d="M64.05,46.23l.27,1.6-5.28.9-.28-1.6Zm-4.36,6.38-.26-1.55,5.29-.9L65,51.7Zm12-1.18c-1.41,4.76-2.58,8.86-8.46,9.86l-1.5.26L61.44,60,63,59.79c4.81-.82,5.71-4.22,7.1-8.78.38-1.21.64-2.29.64-2.29l1.58.43S71.81,50.92,71.66,51.43Z"/><path d="M85.34,53.7l-.77-1.27c2.75-1.61,3.1-2.32,3-3.45l-5.31.91,1.93,8.32-1.53.26-1.9-8.33-3.55.61-.24-1.38,3.44-.59-.85-3.71,1.5-.25.89,3.7,6.89-1.17.2,1.21C89.43,51,87.88,52.21,85.34,53.7Z"/><path d="M105.15,42.15l-5,.85c-.58,1.78-1.59,3.22-4,5.57L95,47.5c4.36-4.39,4.07-6.21,3.6-9l1.64-.28a10.74,10.74,0,0,1,.22,3.17l6.07-1,.24,1.4c.74,4.37-1.46,8.33-8,14.17l-1.12-1.14C103.65,49.37,105.7,45.89,105.15,42.15Z"/><path d="M117.21,48.61,115,36.68l1.71-.29,1.83,12Zm2.07,3.44-1.56.27-.31-1.77,1.57-.27Z"/></svg>