<svg id="レイヤー_1" data-name="レイヤー 1" xmlns="http://www.w3.org/2000/svg" viewBox="0 0 160 160"><defs><style>.cls-1{fill:#fff;}.cls-2{fill:#6c6a6a;}</style></defs><circle class="cls-1" cx="80" cy="80" r="80"/><path class="cls-2" d="M138.76,94c-2.87-3-6.26-4.62-9.54-6.14-1.54-.71-3.13-1.45-4.67-2.33a.89.89,0,0,0-.78-.06.91.91,0,0,0-.53.57L122,90.26a13.1,13.1,0,0,1-6.25,1.27,13.81,13.81,0,0,1-6-1.15,1,1,0,0,0-.22-.09L108.17,86a.91.91,0,0,0-1.27-.54c-1.34.68-2.72,1.29-4.05,1.87C99,89.06,95.27,90.68,92.15,94c-4.5,4.88-4.47,13.46-4.44,20.36v.83a.9.9,0,0,0,.9.9h0a.9.9,0,0,0,.89-.9v-.83c0-6.59,0-14.79,4-19.14,2.86-3,6.38-4.6,10.1-6.24,1-.45,2.11-.92,3.18-1.44L112,105a.9.9,0,0,0,1.72-.52l-3.58-12a18,18,0,0,0,5.61.82,17.69,17.69,0,0,0,5.57-.81l-3.68,12.24a.9.9,0,0,0,1.72.52l5.31-17.65c1.29.69,2.57,1.28,3.83,1.86,3.27,1.51,6.35,2.94,9,5.73,4,4.36,4,12.56,4,19.15v1a.9.9,0,0,0,.9.9h0a.89.89,0,0,0,.9-.89v-1C143.24,107.47,143.27,98.88,138.76,94Z"/><path class="cls-2" d="M142.31,116.6a1.26,1.26,0,0,1-1.25-1.26v-1c0-6.53.06-14.65-3.88-18.91-2.57-2.74-5.62-4.15-8.86-5.64-1.13-.53-2.29-1.07-3.46-1.67l-5.19,17.23a1.26,1.26,0,0,1-2.31.24,1.28,1.28,0,0,1-.09-1l3.49-11.6a21,21,0,0,1-10.12,0L114,104.37a1.26,1.26,0,0,1-2.41.72l-5.09-17c-1,.45-1.9.87-2.82,1.27-3.69,1.62-7.17,3.16-10,6.15-3.92,4.25-3.89,12.37-3.86,18.9v.83a1.26,1.26,0,0,1-2.51,0v-.82c0-7-.06-15.63,4.54-20.62,3.17-3.37,6.88-5,10.81-6.73,1.33-.59,2.7-1.19,4-1.87a1.23,1.23,0,0,1,1.06,0,1.29,1.29,0,0,1,.71.79l1.22,4.1.11,0a13.3,13.3,0,0,0,5.88,1.11,13.16,13.16,0,0,0,6-1.15l1.23-4.09a1.28,1.28,0,0,1,.74-.8,1.23,1.23,0,0,1,1.09.08c1.52.88,3.1,1.61,4.63,2.31,3.32,1.54,6.74,3.12,9.66,6.23h0c4.61,5,4.57,13.65,4.55,20.62v1A1.25,1.25,0,0,1,142.31,116.6ZM124.64,87.26a.34.34,0,0,1,.17,0c1.28.68,2.56,1.27,3.81,1.85,3.3,1.53,6.41,3,9.08,5.81,4.13,4.47,4.1,12.74,4.07,19.39v1a.54.54,0,1,0,1.08,0v-1c0-6.84,0-15.35-4.36-20.14-2.82-3-6.18-4.55-9.43-6-1.55-.72-3.15-1.46-4.69-2.36a.56.56,0,0,0-.47,0,.55.55,0,0,0-.33.35l-1.27,4.22a.37.37,0,0,1-.15.2,13.41,13.41,0,0,1-6.44,1.32,14.11,14.11,0,0,1-6.22-1.19l-.13,0a.34.34,0,0,1-.26-.24l-1.28-4.28a.54.54,0,0,0-.77-.33c-1.36.68-2.74,1.29-4.07,1.88-3.86,1.7-7.51,3.3-10.58,6.57C88,99,88,107.52,88.06,114.36v.83a.55.55,0,0,0,.55.54.54.54,0,0,0,.54-.54v-.83c0-6.65,0-14.92,4.06-19.38,2.92-3.1,6.47-4.67,10.23-6.32,1-.46,2.1-.92,3.17-1.44a.39.39,0,0,1,.3,0,.35.35,0,0,1,.19.22l5.22,17.45a.54.54,0,0,0,1-.31l-3.57-12a.36.36,0,0,1,.09-.36.35.35,0,0,1,.36-.08,17.86,17.86,0,0,0,5.5.8,17.65,17.65,0,0,0,5.46-.79.36.36,0,0,1,.36.08.34.34,0,0,1,.09.36L118,104.86a.53.53,0,0,0,0,.41.52.52,0,0,0,.32.26.54.54,0,0,0,.68-.36l5.31-17.65a.35.35,0,0,1,.21-.23A.31.31,0,0,1,124.64,87.26Z"/><path class="cls-2" d="M126.21,63.59A.89.89,0,0,0,126.8,62a11.61,11.61,0,0,0-1-.8.9.9,0,0,0-.07-.27c-.81-1.64-1.61-3.29-2.42-4.93a.69.69,0,0,0-.94-.25.7.7,0,0,0-.25.95L123.69,60l-.68-.32h0l-2.65-5a.7.7,0,0,0-1-.24.69.69,0,0,0-.24.94l1.9,3.58c-5.75-1.74-12.7-.84-16.24,2.78a.89.89,0,0,0,0,1.27.91.91,0,0,0,1.27,0c4.21-4.3,14.43-4.1,19.51.37A.88.88,0,0,0,126.21,63.59Z"/><path class="cls-2" d="M126.21,64a1.27,1.27,0,0,1-.83-.31c-5-4.37-14.91-4.58-19-.4a1.24,1.24,0,0,1-.88.38,1.25,1.25,0,0,1-.91-2.13c3.31-3.37,9.85-4.63,15.8-3.1l-1.52-2.84a1.07,1.07,0,0,1,.38-1.42,1.09,1.09,0,0,1,.83-.1,1,1,0,0,1,.61.49l1,1.84a1,1,0,0,1,.51-.89,1.09,1.09,0,0,1,.85-.1,1,1,0,0,1,.59.49L126,60.8a1.8,1.8,0,0,1,.08.21q.51.38.93.75a1.23,1.23,0,0,1,.42.86,1.24,1.24,0,0,1-.31.9A1.26,1.26,0,0,1,126.21,64Zm-11-4.4c3.92,0,8,1.19,10.67,3.55a.56.56,0,0,0,.77-.05.53.53,0,0,0,.13-.39.55.55,0,0,0-.18-.37,12.22,12.22,0,0,0-1-.78.37.37,0,0,1-.15-.25.83.83,0,0,0,0-.15L123,56.18a.22.22,0,0,0-.16-.12.33.33,0,0,0-.28,0,.35.35,0,0,0-.11.48L124,59.82a.36.36,0,0,1-.06.41.37.37,0,0,1-.41.07l-.67-.31a.37.37,0,0,1-.17-.16l-2.66-5a.27.27,0,0,0-.18-.13.36.36,0,0,0-.27,0,.35.35,0,0,0-.11.47l1.91,3.58a.35.35,0,0,1,0,.39.36.36,0,0,1-.38.12c-5.92-1.79-12.6-.66-15.89,2.69a.55.55,0,0,0-.16.38.5.5,0,0,0,.17.38.61.61,0,0,0,.38.16.55.55,0,0,0,.38-.16C108,60.61,111.5,59.55,115.18,59.55Z"/><path class="cls-2" d="M120.51,77a.94.94,0,0,1,0,.16l0,.1c0,.06,0,.11-.08.16l-.06.1,0,.05,0,0-.08.09a1.12,1.12,0,0,1-.2.18.69.69,0,0,0,0,1,.71.71,0,0,0,1,0,2.57,2.57,0,0,0,1-2.14,3.23,3.23,0,0,0-1.3-2.21.74.74,0,0,0-.49-.2.69.69,0,0,0-.49,1.17,3.7,3.7,0,0,1,.41.37l.17.19,0,0a.35.35,0,0,0,.05.08l.12.2,0,.1a1.06,1.06,0,0,1,.06.19l0,.11c0,.06,0,.12,0,.18S120.51,76.93,120.51,77Zm-.09-.6v0S120.4,76.31,120.42,76.37Z"/><path class="cls-2" d="M120.44,79.36a1,1,0,0,1-.72-.29,1.07,1.07,0,0,1-.32-.78,1,1,0,0,1,.33-.73,1.29,1.29,0,0,0,.17-.16l.23-.34.13.07h.21l-.34-.09,0-.09h0V76.7a.8.8,0,0,0-.06-.17v0c0-.09-.08-.15-.12-.21l0-.06h0a.94.94,0,0,1-.1-.12l-.06-.06a2.94,2.94,0,0,0-.37-.32.91.91,0,0,1-.33-.64,1.12,1.12,0,0,1,.29-.86,1.08,1.08,0,0,1,.75-.32,1.09,1.09,0,0,1,.71.28,3.58,3.58,0,0,1,1.43,2.45,2.93,2.93,0,0,1-1.07,2.45A1.14,1.14,0,0,1,120.44,79.36Zm.07-2.39.34.12,0,.14-.06.17a.66.66,0,0,1-.1.17l-.07.11s0,.06,0,.07l-.06.07-.07.08-.23.21a.26.26,0,0,0-.08.19.38.38,0,0,0,.09.25.37.37,0,0,0,.51,0,2.2,2.2,0,0,0,.82-1.84,2.85,2.85,0,0,0-1.16-2c-.13-.1-.19-.13-.27-.13a.36.36,0,0,0-.23.09.46.46,0,0,0-.1.32.15.15,0,0,0,.06.13,5.82,5.82,0,0,1,.45.4l.16.19s0,.06.06.07l.06.09a1.71,1.71,0,0,1,.13.23l0,.05a.19.19,0,0,1,0,.08h0l.07.21,0,.09s0,.08,0,.1a1.72,1.72,0,0,1,0,.2s0,.14,0,.16Zm0,0h0Z"/><path class="cls-2" d="M99.07,79.42a7,7,0,0,0,4.76,4.37.87.87,0,0,0,.46-1.67A5,5,0,0,1,101.55,74a1.11,1.11,0,0,0,.17-.3,4.43,4.43,0,0,0,2.38.91c2,6.87,7.46,11.08,11.66,11.08,4.77,0,9.89-4.92,11.66-11.1a4.46,4.46,0,0,0,2-.79.86.86,0,0,0,.13.2,5,5,0,0,1-2.74,8.08.87.87,0,0,0,.46,1.67,7,7,0,0,0,4.76-4.37,6.92,6.92,0,0,0-1.26-6.6.72.72,0,0,0-.22-.17,6.76,6.76,0,0,0,.36-6c-.86-2.41-3.69-2.34-3.81-2.33a.89.89,0,0,0-.86.93.91.91,0,0,0,.92.87c.08,0,1.65,0,2.06,1.13s.84,3-.27,4.53a2.59,2.59,0,0,1-2.22,1,.92.92,0,0,0-.93.68c-1.57,6.42-6.46,10.4-10.09,10.4s-8.68-4.27-10.15-10.63a.91.91,0,0,0-1-.69.9.9,0,0,0-.48.23,2.56,2.56,0,0,1-1.79-1c-1.11-1.49-.65-3.47-.27-4.53a1.58,1.58,0,0,1,1.2-1,.9.9,0,0,0-.32-1.76,19.2,19.2,0,0,1-.45-3.31l0-.19c-.37-6.55,3.23-11.21,9.63-12.48,5.61-1.1,12.83,1,14.69,6.4a29.39,29.39,0,0,1,1.57,7.87.9.9,0,1,0,1.79-.07,30.91,30.91,0,0,0-1.67-8.41c-1.73-5-8.46-9.18-16.73-7.55-5.68,1.12-11.57,5.48-11.07,14.36l0,.22a19.2,19.2,0,0,0,.6,4,3.19,3.19,0,0,0-.93,1.37,6.77,6.77,0,0,0,.33,5.91.62.62,0,0,0-.37.22A6.92,6.92,0,0,0,99.07,79.42Z"/><path class="cls-2" d="M115.76,86.09c-4.25,0-9.84-4.15-11.93-11.11a4.78,4.78,0,0,1-2-.72h0a4.84,4.84,0,0,0-.76,4.58,4.79,4.79,0,0,0,3.31,2.94,1.12,1.12,0,0,1,.83.8,1.31,1.31,0,0,1-.33,1.25,1.16,1.16,0,0,1-1.14.3,7.35,7.35,0,0,1-5-4.59h0a7.26,7.26,0,0,1,1.31-6.94.71.71,0,0,1,.15-.15,7.32,7.32,0,0,1-.17-5.88,3.61,3.61,0,0,1,.87-1.36,20.49,20.49,0,0,1-.55-3.82l0-.22c-.52-9.11,5.53-13.59,11.35-14.74,8.46-1.66,15.36,2.65,17.13,7.78a31.44,31.44,0,0,1,1.7,8.52,1.25,1.25,0,0,1-2.5.1,29.22,29.22,0,0,0-1.55-7.76c-1.8-5.21-8.82-7.26-14.29-6.18-6.21,1.23-9.7,5.75-9.34,12.11v.17a20.24,20.24,0,0,0,.39,3,1.25,1.25,0,0,1,.88,1.84,1.25,1.25,0,0,1-.75.6,1.25,1.25,0,0,0-1,.79c-.35,1-.79,2.84.23,4.19a2.17,2.17,0,0,0,1.4.88,1.18,1.18,0,0,1,.53-.21,1.25,1.25,0,0,1,1.4,1c1.44,6.19,6.23,10.35,9.81,10.35s8.22-3.87,9.75-10.12a1.26,1.26,0,0,1,1.29-.95,2.22,2.22,0,0,0,1.91-.91c1-1.35.58-3.2.23-4.19s-1.69-.9-1.69-.9a1.26,1.26,0,0,1-1.31-1.21,1.24,1.24,0,0,1,1.2-1.29,4.21,4.21,0,0,1,4.16,2.56,7.28,7.28,0,0,1-.23,6l0,0a7.25,7.25,0,0,1,1.32,6.94,7.34,7.34,0,0,1-5,4.59,1.18,1.18,0,0,1-1.15-.3,1.31,1.31,0,0,1-.33-1.25,1.14,1.14,0,0,1,.84-.8,4.69,4.69,0,0,0,2.6-7.45,4.81,4.81,0,0,1-1.67.62C125.81,81.21,120.61,86.09,115.76,86.09Zm-14-12.7a.34.34,0,0,1,.22.07,4,4,0,0,0,2.19.83.36.36,0,0,1,.31.26c2,6.78,7.28,10.83,11.32,10.83,4.6,0,9.57-4.77,11.32-10.85a.34.34,0,0,1,.3-.25,4.13,4.13,0,0,0,1.88-.73.37.37,0,0,1,.29-.06.35.35,0,0,1,.23.18,1,1,0,0,0,.09.15,5.56,5.56,0,0,1,.88,5.26,5.5,5.5,0,0,1-3.8,3.39.4.4,0,0,0-.33.3.61.61,0,0,0,.15.56.44.44,0,0,0,.46.11,6.61,6.61,0,0,0,4.51-4.14,6.53,6.53,0,0,0-1.2-6.25.21.21,0,0,0-.1-.08.37.37,0,0,1-.19-.23.38.38,0,0,1,.05-.29c1.33-2,.77-4.39.33-5.64-.8-2.22-3.43-2.09-3.46-2.09a.54.54,0,1,0,0,1.08,2.45,2.45,0,0,1,2.4,1.37c.4,1.12.89,3.24-.33,4.86a3,3,0,0,1-2.52,1.19.53.53,0,0,0-.56.41c-1.61,6.59-6.68,10.66-10.44,10.66s-9-4.38-10.5-10.9a.55.55,0,0,0-.61-.42.61.61,0,0,0-.29.14.36.36,0,0,1-.28.1,2.9,2.9,0,0,1-2-1.18c-1.22-1.62-.73-3.74-.33-4.86a2,2,0,0,1,1.44-1.23.57.57,0,0,0,.33-.26.59.59,0,0,0,.05-.41.56.56,0,0,0-.57-.39.36.36,0,0,1-.37-.27,19,19,0,0,1-.47-3.37v-.19c-.38-6.75,3.32-11.55,9.91-12.85,5.76-1.14,13.17,1.07,15.1,6.62a30.21,30.21,0,0,1,1.59,8,.53.53,0,0,0,.56.52.6.6,0,0,0,.38-.17.57.57,0,0,0,.14-.39,30.59,30.59,0,0,0-1.66-8.31c-1.68-4.85-8.24-8.91-16.32-7.32-5.53,1.09-11.27,5.34-10.78,14v.21a19.2,19.2,0,0,0,.59,3.89.34.34,0,0,1-.11.37,2.86,2.86,0,0,0-.83,1.22,6.46,6.46,0,0,0,.3,5.6.36.36,0,0,1,0,.32.33.33,0,0,1-.25.21.33.33,0,0,0-.18.11,6.41,6.41,0,0,0,3.32,10.39.45.45,0,0,0,.46-.11.61.61,0,0,0,.15-.56.41.41,0,0,0-.33-.3,5.48,5.48,0,0,1-3.8-3.39,5.56,5.56,0,0,1,.87-5.26,1.13,1.13,0,0,0,.12-.21.36.36,0,0,1,.24-.21Z"/><path class="cls-2" d="M40,72.35c2.08,7.32,7.92,11.8,12.37,11.8,5.07,0,10.5-5.24,12.37-11.82A4.56,4.56,0,0,0,68,70.5c1.71-2.27,1.08-5.08.56-6.55a3.48,3.48,0,0,0-2.08-2.09c.48-2.8,1.06-6.45,1.24-8.11a12,12,0,0,0-1.51-7.33,7.49,7.49,0,0,0-5.89-3.65.9.9,0,0,0-.22,1.78,5.66,5.66,0,0,1,4.55,2.77,10.21,10.21,0,0,1,1.28,6.24c-.17,1.63-.74,5.21-1.21,7.95h-.16a.89.89,0,0,0-.14,1.77c-.17,1-.29,1.61-.33,1.76a.9.9,0,0,0,.65,1.09.83.83,0,0,0,.22,0,.9.9,0,0,0,.87-.68c0-.16.17-.83.34-1.78a1.71,1.71,0,0,1,.7.85c.4,1.13.9,3.27-.3,4.87a2.81,2.81,0,0,1-2.41,1.14.9.9,0,0,0-.93.68c-1.68,6.87-6.92,11.12-10.81,11.12S43.1,77.79,41.52,71a.9.9,0,0,0-1-.69.88.88,0,0,0-.5.25,2.76,2.76,0,0,1-2-1.13c-1.21-1.6-.71-3.74-.3-4.87a1.62,1.62,0,0,1,.86-.94c.2,1,.36,1.75.37,1.82a.9.9,0,0,0,.88.72l.18,0a.9.9,0,0,0,.7-1.06s-1-4.93-1.4-7.48a16.65,16.65,0,0,1,.24-7.11c1.51-4.7,4.64-7.68,8.81-8.38,1.84-.31,5.29-.51,7.55,1.64a.89.89,0,1,0,1.23-1.3c-2.09-2-5.32-2.74-9.08-2.11-4.79.81-8.52,4.3-10.22,9.6a18.88,18.88,0,0,0-.31,7.92c.16,1.1.44,2.6.7,4A3.48,3.48,0,0,0,36.06,64c-.53,1.47-1.16,4.28.55,6.55A4.56,4.56,0,0,0,40,72.35Z"/><path class="cls-2" d="M52.39,84.51c-4.51,0-10.44-4.42-12.64-11.83a4.92,4.92,0,0,1-3.42-2c-1.81-2.41-1.16-5.35-.61-6.89a3.82,3.82,0,0,1,2.13-2.24c-.29-1.56-.51-2.8-.64-3.68a19.22,19.22,0,0,1,.32-8.09c1.75-5.43,5.57-9,10.5-9.84,3.88-.65,7.21.13,9.39,2.2a1.26,1.26,0,0,1,0,1.77,1.21,1.21,0,0,1-.88.39,1.27,1.27,0,0,1-.9-.34c-2.15-2-5.46-1.84-7.24-1.54-4,.67-7.06,3.56-8.53,8.12a16.29,16.29,0,0,0-.23,7c.37,2.55,1.39,7.41,1.4,7.45a1.26,1.26,0,0,1-2.46.52c0-.07-.11-.56-.26-1.3a1.29,1.29,0,0,0-.29.46c-.38,1.07-.85,3.07.25,4.54a2.44,2.44,0,0,0,1.58,1,1.22,1.22,0,0,1,.55-.23,1.26,1.26,0,0,1,1.41,1C43.41,77.54,48.55,82,52.39,82s8.82-4.15,10.46-10.84a1.28,1.28,0,0,1,1.3-1,2.43,2.43,0,0,0,2.1-1c1.11-1.47.63-3.47.25-4.54a1.26,1.26,0,0,0-.13-.26c-.09.49-.18,1-.22,1.16a1.28,1.28,0,0,1-1.53.9,1.25,1.25,0,0,1-.9-1.52s.06-.28.27-1.44a1.23,1.23,0,0,1-.68-1.06,1.26,1.26,0,0,1,1.08-1.29c.27-1.63,1-5.79,1.16-7.64a9.79,9.79,0,0,0-1.24-6A5.35,5.35,0,0,0,60,44.9a1.25,1.25,0,1,1,.31-2.48,7.77,7.77,0,0,1,6.14,3.83A12.3,12.3,0,0,1,68,53.78c-.17,1.62-.72,5.07-1.19,7.87a3.69,3.69,0,0,1,2,2.18c.55,1.54,1.2,4.48-.61,6.89A4.85,4.85,0,0,1,65,72.65C63.06,79.32,57.54,84.51,52.39,84.51Zm-1.78-44a14.13,14.13,0,0,0-2.46.22c-4.66.78-8.28,4.18-9.94,9.34a18.48,18.48,0,0,0-.3,7.77c.14.93.37,2.26.7,4a.36.36,0,0,1-.23.4,3.17,3.17,0,0,0-2,1.92c-.5,1.4-1.1,4.08.51,6.22A4.15,4.15,0,0,0,40,72a.36.36,0,0,1,.32.26c2.06,7.23,7.73,11.55,12,11.55,4.9,0,10.19-5.08,12-11.57a.34.34,0,0,1,.31-.25,4.2,4.2,0,0,0,3-1.69c1.61-2.14,1-4.82.5-6.22a3.08,3.08,0,0,0-1.87-1.88.37.37,0,0,1-.22-.39c.48-2.83,1.06-6.44,1.24-8.09a11.63,11.63,0,0,0-1.47-7.11,7.15,7.15,0,0,0-5.62-3.48.53.53,0,0,0-.6.47.54.54,0,0,0,.47.61,6,6,0,0,1,4.81,2.94,10.53,10.53,0,0,1,1.33,6.45c-.21,2-1,6.61-1.22,8a.37.37,0,0,1-.36.29h-.15a.54.54,0,0,0-.51.56.53.53,0,0,0,.44.51.36.36,0,0,1,.28.41c-.1.58-.28,1.58-.33,1.78a.54.54,0,0,0,.39.66.55.55,0,0,0,.66-.39c0-.15.16-.81.33-1.75a.35.35,0,0,1,.54-.24,2,2,0,0,1,.84,1c.43,1.2,1,3.47-.35,5.21a3.12,3.12,0,0,1-2.72,1.27.55.55,0,0,0-.56.42c-1.72,7-7.12,11.38-11.15,11.38S42.79,78,41.18,71.07a.56.56,0,0,0-.61-.41.46.46,0,0,0-.3.15.38.38,0,0,1-.29.1,3.18,3.18,0,0,1-2.22-1.27c-1.3-1.74-.78-4-.35-5.21a2,2,0,0,1,1-1.14.36.36,0,0,1,.32,0,.35.35,0,0,1,.19.25c.2,1,.35,1.74.37,1.82a.54.54,0,0,0,1.06-.22s-1-5-1.41-7.5a17.22,17.22,0,0,1,.26-7.27c1.56-4.84,4.78-7.89,9.09-8.62,1.91-.32,5.48-.52,7.85,1.73a.53.53,0,0,0,.39.15.52.52,0,0,0,.38-.17.54.54,0,0,0,0-.76A8.94,8.94,0,0,0,50.61,40.47Z"/><path class="cls-2" d="M81.09,112.32c0-6.86.06-15.4-4.64-20.26-3-3-6.51-4.58-9.92-6.09-1.6-.7-3.26-1.44-4.86-2.32a.89.89,0,0,0-.78,0,.88.88,0,0,0-.52.59l-1.64,6a1,1,0,0,0-.22.09,12.9,12.9,0,0,1-6.27,1.29,13.75,13.75,0,0,1-6.05-1.15L46,90.31,44.29,84a.9.9,0,0,0-1.3-.54c-1.55.85-3.19,1.59-4.77,2.31C34.69,87.34,31,89,28,92.07c-4.7,4.85-4.67,13.39-4.64,20.25,0,1.31,0,2.54,0,3.69a.9.9,0,0,0,.88.92h0a.9.9,0,0,0,.9-.88c0-1.17,0-2.41,0-3.73,0-6.54-.06-14.67,4.12-19C32.08,90.49,35.42,89,39,87.38c1.28-.58,2.6-1.18,3.9-1.85l5.22,19a.9.9,0,1,0,1.73-.48L46.64,92.51a18,18,0,0,0,5.6.81,17.46,17.46,0,0,0,5.87-.9L55,103.77a.9.9,0,1,0,1.73.47L61.8,85.75c1.35.69,2.7,1.29,4,1.87,3.41,1.5,6.62,2.92,9.36,5.7,4.19,4.33,4.16,12.46,4.13,19,0,1.32,0,2.56,0,3.73a.9.9,0,0,0,.89.88h0a.9.9,0,0,0,.87-.92C81.08,114.86,81.09,113.63,81.09,112.32Z"/><path class="cls-2" d="M24.25,117.28A1.23,1.23,0,0,1,23,116c0-1.13,0-2.35,0-3.64,0-7-.06-15.58,4.74-20.54,3.08-3.12,6.76-4.79,10.32-6.4,1.59-.72,3.21-1.46,4.75-2.3a1.25,1.25,0,0,1,1.81.76l1.7,6.17h0a13.3,13.3,0,0,0,5.88,1.11,12.64,12.64,0,0,0,6.08-1.23l.12-.06L60,84.1a1.25,1.25,0,0,1,1.81-.76c1.58.87,3.23,1.6,4.82,2.3,3.46,1.53,7,3.1,10,6.17,4.8,5,4.77,13.59,4.74,20.52v0c0,1.29,0,2.51,0,3.64a1.3,1.3,0,0,1-.35.9,1.21,1.21,0,0,1-.88.38h0A1.27,1.27,0,0,1,79,116.06c0-1.14,0-2.35,0-3.63v-.11c0-6.48.06-14.53-4-18.75-2.68-2.73-5.87-4.14-9.24-5.63-1.2-.53-2.42-1.06-3.64-1.67l-5,18.07a1.25,1.25,0,0,1-1.54.87,1.23,1.23,0,0,1-.75-.59,1.22,1.22,0,0,1-.12-1l3-10.7a18.94,18.94,0,0,1-5.35.71A19.52,19.52,0,0,1,47.15,93l3,10.93a1.22,1.22,0,0,1-.12,1,1.23,1.23,0,0,1-.75.59,1.25,1.25,0,0,1-1.54-.88L42.63,86.05c-1.18.59-2.37,1.13-3.52,1.65-3.51,1.59-6.83,3.09-9.57,5.87-4.08,4.22-4,12.27-4,18.75,0,1.34,0,2.57,0,3.74A1.25,1.25,0,0,1,24.25,117.28ZM61.8,85.4a.35.35,0,0,1,.17,0c1.33.68,2.67,1.27,4,1.85,3.45,1.52,6.7,2.95,9.48,5.78,4.29,4.43,4.26,12.65,4.24,19.25v.11c0,1.28,0,2.48,0,3.61a.55.55,0,0,0,.54.53.53.53,0,0,0,.4-.17.54.54,0,0,0,.15-.38c0-1.14,0-2.37,0-3.66v0c0-6.79.06-15.25-4.54-20-2.94-3-6.43-4.52-9.81-6-1.62-.72-3.28-1.45-4.89-2.34a.52.52,0,0,0-.47,0,.53.53,0,0,0-.32.35l-1.64,5.95a.36.36,0,0,1-.24.25.52.52,0,0,0-.13.06,13.43,13.43,0,0,1-6.46,1.33A14.05,14.05,0,0,1,46,90.69l-.1,0a.37.37,0,0,1-.23-.24L44,84.07a.58.58,0,0,0-.31-.36.58.58,0,0,0-.48,0c-1.56.86-3.19,1.6-4.77,2.32-3.53,1.59-7.15,3.23-10.13,6.26-4.59,4.75-4.56,13.21-4.53,20,0,1.33,0,2.56,0,3.7a.54.54,0,0,0,.15.38.5.5,0,0,0,.38.17h0a.54.54,0,0,0,.55-.53c0-1.15,0-2.38,0-3.69,0-6.63-.06-14.85,4.22-19.27,2.84-2.88,6.21-4.41,9.78-6,1.28-.57,2.59-1.17,3.88-1.83a.34.34,0,0,1,.31,0,.33.33,0,0,1,.2.23l5.22,19a.55.55,0,0,0,.67.37.51.51,0,0,0,.33-.25.54.54,0,0,0,0-.41L46.29,92.6a.38.38,0,0,1,.1-.35.37.37,0,0,1,.36-.08,17.5,17.5,0,0,0,5.49.8A17,17,0,0,0,58,92.08a.36.36,0,0,1,.37.08.35.35,0,0,1,.1.35l-3.13,11.35a.53.53,0,0,0,0,.41.57.57,0,0,0,.33.26.55.55,0,0,0,.67-.38l5.09-18.49a.36.36,0,0,1,.34-.26Z"/><path class="cls-2" d="M42.2,54a.88.88,0,0,0-.87.86.89.89,0,0,0,.87.86c5.46.62,11.86-.67,15.87-4.69a10.07,10.07,0,0,0,4.29,4.23c1,.53,1.84-1,.87-1.49a7.72,7.72,0,0,1-4-4.59.88.88,0,0,0-1.45-.38C54.13,53.32,47.7,54.64,42.2,54Z"/><path class="cls-2" d="M44.76,56.24a23.86,23.86,0,0,1-2.6-.14A1.23,1.23,0,0,1,41,54.88a1.3,1.3,0,0,1,.44-.94,1,1,0,0,1,.82-.27h0c4.93.55,11.54-.48,15.25-5.07a1.08,1.08,0,0,1,1.09-.37,1.25,1.25,0,0,1,1,.88,7.47,7.47,0,0,0,3.85,4.37,1.14,1.14,0,0,1,.45,1.6,1.2,1.2,0,0,1-1.66.51,10.73,10.73,0,0,1-4.22-4C54.34,55,49.16,56.24,44.76,56.24Zm-2.63-1.87a.38.38,0,0,0-.24.1.6.6,0,0,0-.2.42c0,.42.45.49.55.5C47,55.93,53.61,55,57.82,50.8a.34.34,0,0,1,.3-.1.36.36,0,0,1,.27.19A9.81,9.81,0,0,0,62.53,55a.5.5,0,0,0,.7-.23.44.44,0,0,0-.17-.64,8.14,8.14,0,0,1-4.2-4.81.54.54,0,0,0-.43-.36.38.38,0,0,0-.39.12c-3.89,4.81-10.75,5.9-15.88,5.32h0Z"/><path class="cls-2" d="M49.07,51.39c1-.53.1-2-.87-1.49a9.7,9.7,0,0,1-6.39,1,.89.89,0,0,0-1.07.6.88.88,0,0,0,.61,1.06A11.61,11.61,0,0,0,49.07,51.39Z"/><path class="cls-2" d="M43.66,53.09a12,12,0,0,1-2.38-.23,1.09,1.09,0,0,1-.72-.51,1.25,1.25,0,0,1-.16-1,1.23,1.23,0,0,1,1.47-.86A9.44,9.44,0,0,0,48,49.59a1.21,1.21,0,0,1,1.66.52,1.14,1.14,0,0,1-.45,1.6l-.17-.32.17.32A11.73,11.73,0,0,1,43.66,53.09Zm-2-1.9a.49.49,0,0,0-.52.36.53.53,0,0,0,.07.42.44.44,0,0,0,.25.2,11.29,11.29,0,0,0,7.49-1.09.43.43,0,0,0,.17-.63.5.5,0,0,0-.7-.23,10.2,10.2,0,0,1-6.63,1Z"/><path class="cls-2" d="M58.32,71.14l-.25.13a1.42,1.42,0,0,1-.31.15.77.77,0,0,1-.68-.16l-.5-.36c-.26-.2-.54-.4-.84-.59a2.94,2.94,0,0,0-3.32.08,3,3,0,0,0-3.46,0c-.27.18-.52.37-.76.55l-.15.12c-.73.55-1,.41-1.35.16a.92.92,0,0,0-1.09,0,.9.9,0,0,0-.29,1,4.42,4.42,0,0,0,3,3,4.55,4.55,0,0,0,4.06-.5,3.63,3.63,0,0,0,2.3.76,7.37,7.37,0,0,0,2-.31,4.46,4.46,0,0,0,2.87-3,.88.88,0,0,0-.22-1A.89.89,0,0,0,58.32,71.14ZM56.2,73.5c-1.62.44-2.42.3-3.06-.55a.9.9,0,0,0-.72-.36h0a.89.89,0,0,0-.72.37c-.59.8-1.33,1-2.94.57a1.87,1.87,0,0,1-.81-.4,3.59,3.59,0,0,0,1.19-.64l.15-.12c.23-.17.44-.33.65-.47a1.21,1.21,0,0,1,1.6.07l.18.15.12.1a.89.89,0,0,0,1.13,0l.15-.12.26-.21a1.16,1.16,0,0,1,1.42-.07c.23.14.46.31.71.49s.36.28.55.41a2.66,2.66,0,0,0,.84.4A1.87,1.87,0,0,1,56.2,73.5Z"/><path class="cls-2" d="M54.72,75.89a4,4,0,0,1-2.3-.67,5.12,5.12,0,0,1-4.14.41A4.74,4.74,0,0,1,45,72.41,1.25,1.25,0,0,1,46.91,71c.22.17.36.27.92-.16l.15-.12c.25-.19.5-.39.78-.57A3.32,3.32,0,0,1,52.42,70a3.25,3.25,0,0,1,3.51,0,9.16,9.16,0,0,1,.85.6l.5.35c.23.16.33.14.38.12A2.63,2.63,0,0,0,57.9,71l.26-.14a1.28,1.28,0,0,1,1.42.2,1.25,1.25,0,0,1,.3,1.39,4.78,4.78,0,0,1-3.11,3.16A7.56,7.56,0,0,1,54.72,75.89Zm-2.3-1.47a.4.4,0,0,1,.23.08,3.17,3.17,0,0,0,2.07.68,7.12,7.12,0,0,0,1.87-.29,4.2,4.2,0,0,0,2.64-2.75.55.55,0,0,0-.75-.69l-.24.13a2,2,0,0,1-.37.18,1.1,1.1,0,0,1-1-.21c-.18-.12-.35-.24-.51-.37s-.53-.39-.82-.57a2.56,2.56,0,0,0-2.93.08.36.36,0,0,1-.4,0,2.6,2.6,0,0,0-3.07,0c-.26.17-.5.35-.73.53l-.16.12c-.83.64-1.31.53-1.78.17a.55.55,0,0,0-.66,0,.55.55,0,0,0-.17.63,4.1,4.1,0,0,0,2.79,2.8,4.29,4.29,0,0,0,3.76-.44A.4.4,0,0,1,52.42,74.42Zm2.3-.32a2.17,2.17,0,0,1-1.87-.94.55.55,0,0,0-.43-.21.53.53,0,0,0-.43.22c-.78,1-1.81,1.06-3.31.71a2.13,2.13,0,0,1-1-.48.34.34,0,0,1-.12-.34.36.36,0,0,1,.25-.27,3.24,3.24,0,0,0,1.07-.58l.16-.12.66-.49a1.56,1.56,0,0,1,2,.09l.18.14.14.12a.54.54,0,0,0,.68,0l.14-.12.29-.22A1.52,1.52,0,0,1,55,71.53c.24.15.48.33.73.52l.55.4a2.45,2.45,0,0,0,.73.35.38.38,0,0,1,.25.27.39.39,0,0,1-.13.35,2.2,2.2,0,0,1-.82.42h0A6.17,6.17,0,0,1,54.72,74.1ZM53.2,72.51a1,1,0,0,1,.22.23c.47.61,1,.86,2.65.42L55.86,73l-.57-.41a7.07,7.07,0,0,0-.68-.48.8.8,0,0,0-1,.07l-.2.15Zm-4.44.66.08,0c1.63.38,2.13.16,2.57-.44a1.31,1.31,0,0,1,.23-.24l0,0-.12-.1-.17-.14a.86.86,0,0,0-1.18,0c-.21.13-.41.29-.63.45l-.16.13A4.29,4.29,0,0,1,48.76,73.17Z"/></svg>