<svg id="レイヤー_1" data-name="レイヤー 1" xmlns="http://www.w3.org/2000/svg" viewBox="0 0 160 160"><defs><style>.cls-1{fill:#fff;}.cls-2{fill:#6c6a6a;}</style></defs><circle class="cls-1" cx="80" cy="80" r="80"/><path class="cls-2" d="M70.68,78.54a9,9,0,1,0-8.88-9A8.94,8.94,0,0,0,70.68,78.54Zm0-14.54a5.57,5.57,0,1,1-5.47,5.56A5.52,5.52,0,0,1,70.68,64Z"/><path class="cls-2" d="M77.49,78H74.86a1.71,1.71,0,0,0-1.5.89l-2.83,5.2-2.92-5.22A1.7,1.7,0,0,0,66.12,78H63.47a8.17,8.17,0,0,0-8.12,8.21v15.54a4.13,4.13,0,0,0,4.12,4.13h44a1.71,1.71,0,1,0,0-3.42H99.2L104,90a3.42,3.42,0,0,0-3.19-4.65H85.57A8.17,8.17,0,0,0,77.49,78ZM58.77,101.74V86.2a4.75,4.75,0,0,1,4.7-4.79h1.64l3.19,5.7a2.6,2.6,0,0,0,2.26,1.31,2.56,2.56,0,0,0,2.23-1.34l3.09-5.67h1.61a4.73,4.73,0,0,1,4.62,3.89,3.43,3.43,0,0,0-3.17,2.18L74.74,98.3a4.64,4.64,0,0,0-4.07-2.43H64.43a1.71,1.71,0,0,0,0,3.42h6.24a1.26,1.26,0,0,1,1.24,1.28v.6a1.27,1.27,0,0,1-1.24,1.28H59.47A.7.7,0,0,1,58.77,101.74Zm36.76.71H76.8l5.32-13.73h18.73Z"/><path class="cls-2" d="M122.42,70.6,82.53,34.06a3.39,3.39,0,0,0-4.62,0L38.08,70.6a1.71,1.71,0,0,0,2.31,2.52l8.3-7.62V114a3.42,3.42,0,0,0,3.42,3.42h56.28a3.42,3.42,0,0,0,3.42-3.42V65.51l8.3,7.61a1.71,1.71,0,1,0,2.31-2.52Zm-14,43.35H52.11V62.37L80.22,36.58l28.17,25.8Z"/></svg>