<svg id="レイヤー_1" data-name="レイヤー 1" xmlns="http://www.w3.org/2000/svg" viewBox="0 0 40 40"><defs><style>.cls-1{fill:#ffda00;}.cls-2{fill:#004ea3;}</style></defs><path class="cls-1" d="M40,20A20,20,0,1,0,20,40,20,20,0,0,0,40,20Z"/><path class="cls-2" d="M25.718,26.251c0,.258-.12.385-.357.385H24.355q-.386,0-.386.356v3.614a.314.314,0,0,1-.355.355H20.889a.314.314,0,0,1-.356-.355V26.992a.315.315,0,0,0-.356-.356H14.639c-.237,0-.357-.127-.357-.385V23.763a1.643,1.643,0,0,1,.06-.385L20.563,9.4a.514.514,0,0,1,.5-.357h2.548c.237,0,.355.13.355.386V22.814c0,.237.129.357.386.357h1.006c.237,0,.357.128.357.384Zm-5.185-8.793a.143.143,0,0,0-.119-.149q-.089-.029-.147.09s-1.936,5.124-1.9,5.445c-.117.218-.059.327.178.327h1.629a.316.316,0,0,0,.356-.357Z"/></svg>