<svg id="レイヤー_1" data-name="レイヤー 1" xmlns="http://www.w3.org/2000/svg" viewBox="0 0 160 160"><defs><style>.cls-1{fill:#fff;}.cls-2{fill:none;}.cls-3{fill:#6c6a6a;}</style></defs><circle class="cls-1" cx="80" cy="80" r="80"/><path class="cls-2" d="M31.84,50.74l14,13s-23.7,15.8-23.7,37.32c0,0-1.22,15.11,14.65,15.11H60.65c15.88,0,14.66-15.11,14.66-15.11,0-21.52-23.7-37.32-23.7-37.32l14-13Z"/><path class="cls-3" d="M60.65,117.7H36.74c-5.24,0-9.32-1.55-12.14-4.6-4.34-4.7-4.05-11.27-4-12a35,35,0,0,1,3.85-15.51,55.13,55.13,0,0,1,8.37-12.15,73.27,73.27,0,0,1,10.63-9.75L30.82,51.82a1.48,1.48,0,0,1,1-2.56H65.56a1.49,1.49,0,0,1,1.38.94,1.47,1.47,0,0,1-.37,1.62L53.94,63.64a73.33,73.33,0,0,1,10.62,9.75,54.79,54.79,0,0,1,8.37,12.15,35.14,35.14,0,0,1,3.86,15.51c0,.78.34,7.35-4,12C70,116.15,65.89,117.7,60.65,117.7ZM35.59,52.22,46.8,62.71a1.51,1.51,0,0,1,.47,1.2A1.48,1.48,0,0,1,46.61,65,68.82,68.82,0,0,0,35,75.42a52,52,0,0,0-7.9,11.47,32.23,32.23,0,0,0-3.53,14.22v.12s-.41,6,3.22,9.87c2.24,2.41,5.58,3.63,10,3.63H60.65c4.38,0,7.73-1.22,10-3.65,3.64-4,3.21-9.8,3.21-9.85s0-.08,0-.12a32.1,32.1,0,0,0-3.53-14.22A51.89,51.89,0,0,0,62.4,75.42,69.09,69.09,0,0,0,50.78,65a1.48,1.48,0,0,1-.19-2.31L61.8,52.22Z"/><path class="cls-3" d="M41.06,88.83H31.63a.47.47,0,0,0-.47.47v1.93a.47.47,0,0,0,.47.47h3v9.15a.47.47,0,0,0,.47.47h2.47a.47.47,0,0,0,.47-.47V91.7h3a.47.47,0,0,0,.47-.47V89.3A.47.47,0,0,0,41.06,88.83Z"/><path class="cls-3" d="M50.43,89.15a.46.46,0,0,0-.44-.32h-2.9a.46.46,0,0,0-.44.32L42.7,100.7a.45.45,0,0,0,.06.42.46.46,0,0,0,.38.2h2.5a.47.47,0,0,0,.45-.34l.77-2.62h3.29l.77,2.62a.47.47,0,0,0,.45.34H54a.46.46,0,0,0,.39-.2.48.48,0,0,0,.06-.42Zm-1.08,6.48H47.66l.19-.66c.23-.74.45-1.5.66-2.26.2.76.42,1.54.65,2.26Z"/><path class="cls-3" d="M66.17,100.61,62.84,95,66,89.53a.47.47,0,0,0-.41-.7H63a.47.47,0,0,0-.42.26l-1.16,2.39c-.16.31-.31.64-.47,1h0c-.17-.35-.34-.69-.52-1l-1.23-2.38a.47.47,0,0,0-.41-.25H56a.47.47,0,0,0-.4.23.49.49,0,0,0,0,.47l3.11,5.37-3.33,5.72a.47.47,0,0,0,.41.7H58.4a.48.48,0,0,0,.42-.25l1.32-2.56c.19-.39.37-.74.54-1.1l.06.13c.17.34.33.66.5,1l1.39,2.56a.45.45,0,0,0,.41.24h2.73a.47.47,0,0,0,.41-.24A.47.47,0,0,0,66.17,100.61Z"/><path class="cls-2" d="M95.7,50.74l14,13S86,79.59,86,101.11c0,0-1.22,15.11,14.65,15.11h23.92c15.87,0,14.65-15.11,14.65-15.11,0-21.52-23.7-37.32-23.7-37.32l13.95-13Z"/><path class="cls-3" d="M124.52,117.7H100.6c-5.23,0-9.32-1.55-12.14-4.6-4.33-4.7-4-11.27-4-12a35.14,35.14,0,0,1,3.86-15.51A54.79,54.79,0,0,1,96.7,73.39a73.33,73.33,0,0,1,10.62-9.75L94.69,51.82a1.47,1.47,0,0,1-.37-1.62,1.49,1.49,0,0,1,1.38-.94h33.72a1.48,1.48,0,0,1,1,2.56L117.8,63.64a73.27,73.27,0,0,1,10.63,9.75,55.13,55.13,0,0,1,8.37,12.15,35.13,35.13,0,0,1,3.85,15.51c0,.78.34,7.35-4,12C133.84,116.15,129.76,117.7,124.52,117.7ZM99.46,52.22l11.21,10.49a1.47,1.47,0,0,1,.46,1.2,1.5,1.5,0,0,1-.65,1.11,68.65,68.65,0,0,0-11.62,10.4A51.89,51.89,0,0,0,91,86.89a32.11,32.11,0,0,0-3.54,14.22v.12s-.41,6,3.23,9.87c2.23,2.41,5.58,3.63,9.94,3.63h23.92c4.37,0,7.71-1.22,9.94-3.63,3.64-3.92,3.24-9.82,3.23-9.88v-.11a32.23,32.23,0,0,0-3.53-14.22,52,52,0,0,0-7.9-11.47A69.26,69.26,0,0,0,114.65,65a1.48,1.48,0,0,1-.66-1.11,1.51,1.51,0,0,1,.47-1.2l11.21-10.49Z"/><path class="cls-3" d="M111.43,98.87a5,5,0,0,1-1.55-.64.32.32,0,0,0-.34,0,.31.31,0,0,0-.18.29,11.71,11.71,0,0,1-.1,1.54h-.39v-3.6h1.56a.32.32,0,0,0,.32-.32V90.75a.32.32,0,0,0-.32-.32h-.91c.46-.67.93-1.43,1.28-2a.28.28,0,0,0,0-.28.32.32,0,0,0-.21-.2l-2-.6a.32.32,0,0,0-.4.19,16,16,0,0,1-1.33,2.61.28.28,0,0,0,0,.28h-1a.33.33,0,0,0,0-.22,12.38,12.38,0,0,0-1.57-2.74.32.32,0,0,0-.38-.11l-1.63.67a.36.36,0,0,0-.19.21.32.32,0,0,0,0,.27,14.42,14.42,0,0,1,1.08,1.92h-.79a.32.32,0,0,0-.33.32v1.07a.3.3,0,0,0-.26-.13H100.4V90.07a17.48,17.48,0,0,0,1.77-.55.31.31,0,0,0,.21-.22.36.36,0,0,0-.08-.3L101,87.58a.32.32,0,0,0-.36-.08,23.9,23.9,0,0,1-5.09,1.28.31.31,0,0,0-.24.18.32.32,0,0,0,0,.3,5.67,5.67,0,0,1,.52,1.33.32.32,0,0,0,.35.24c.49,0,1-.14,1.67-.24v1.1H95.78a.32.32,0,0,0-.32.32v1.73a.32.32,0,0,0,.32.32h1.63a13.82,13.82,0,0,1-2.22,3.64.33.33,0,0,0,0,.4A8,8,0,0,1,96,99.79a.33.33,0,0,0,.25.21.34.34,0,0,0,.31-.11A11.58,11.58,0,0,0,97.84,98v4.2a.33.33,0,0,0,.32.33h1.92a.32.32,0,0,0,.32-.33V101l0,0a5,5,0,0,1,1.07,1.36.33.33,0,0,0,.3.19.27.27,0,0,0,.12,0c3-1.25,3.82-3.34,4.1-6.1h.3v3.42c0,1.65.33,2.49,2.13,2.49h1.1c1.23,0,1.94-.5,2.13-3.12A.31.31,0,0,0,111.43,98.87Zm-3.31-6.19v1.47h-3.47V92.68Zm-6,1.25v1.75c-.47-.48-1.25-1.25-1.69-1.62h1.43A.3.3,0,0,0,102.12,93.93Zm-1.59,6.53a.38.38,0,0,0-.13.09V97.16a7.18,7.18,0,0,1,.39.67.33.33,0,0,0,.26.18.32.32,0,0,0,.28-.12l1.14-1.45v0h.94C103.2,98.37,102.6,99.66,100.53,100.46Z"/><path class="cls-3" d="M130,92.85a.33.33,0,0,0-.2-.24,16.4,16.4,0,0,1-7-5.21.3.3,0,0,0-.25-.12h-2a.32.32,0,0,0-.27.14,17,17,0,0,1-6.6,5.39.3.3,0,0,0-.18.24.31.31,0,0,0,.1.29,7.29,7.29,0,0,1,1.17,1.42.32.32,0,0,0,.42.13,21.54,21.54,0,0,0,2-1.14v.16a.32.32,0,0,0,.32.33h2.74v.9h-4.74a.32.32,0,0,0-.32.32v1.59a.32.32,0,0,0,.32.32h.89a.34.34,0,0,0-.17.2.35.35,0,0,0,.06.28,10.42,10.42,0,0,1,1.16,2h-2.77a.32.32,0,0,0-.32.33v1.59a.32.32,0,0,0,.32.32h14.1a.32.32,0,0,0,.32-.32v-1.59a.33.33,0,0,0-.32-.33H125.7c.31-.39.63-.84,1-1.28.16-.22.32-.45.49-.67a.31.31,0,0,0,0-.28.3.3,0,0,0-.2-.21l-.08,0h.89a.32.32,0,0,0,.33-.32V95.46a.32.32,0,0,0-.33-.32H123v-.9h2.86a.33.33,0,0,0,.33-.33V93.7a20.3,20.3,0,0,0,2.06,1.17.32.32,0,0,0,.42-.11,8.35,8.35,0,0,1,1.26-1.61A.33.33,0,0,0,130,92.85Zm-10,6.66a9.66,9.66,0,0,0-1.19-2.14h1.44v2.47h-.32A.33.33,0,0,0,120,99.51ZM119.6,92a17.23,17.23,0,0,0,2.05-2,16.23,16.23,0,0,0,2.13,2Zm3.54,7.58a.32.32,0,0,0-.06.28H123V97.37h1.49A15.78,15.78,0,0,1,123.14,99.55Z"/></svg>