<svg id="レイヤー_1" data-name="レイヤー 1" xmlns="http://www.w3.org/2000/svg" viewBox="0 0 39.999 40"><defs><style>.cls-1{fill:#ffda00;}.cls-2{fill:#004ea3;}</style></defs><path class="cls-1" d="M40,20A20,20,0,1,0,20,40,20,20,0,0,0,40,20Z" transform="translate(0)"/><path class="cls-2" d="M24.059,29.48A5.551,5.551,0,0,1,20,31.169a5.767,5.767,0,0,1-5.718-5.718V23.525a.314.314,0,0,1,.355-.355h2.726a.314.314,0,0,1,.356.355v1.926a2.282,2.282,0,0,0,4.563,0V23.969a2.107,2.107,0,0,0-.652-1.57A2.266,2.266,0,0,0,20,21.718H18.223c-.326,0-.5-.119-.5-.385v-2.7c0-.267.118-.385.355-.385H20.03A2.105,2.105,0,0,0,21.6,17.6a2.265,2.265,0,0,0,.682-1.629V14.549a2.17,2.17,0,0,0-.652-1.6A2.267,2.267,0,0,0,20,12.267a2.168,2.168,0,0,0-1.6.652,2.263,2.263,0,0,0-.681,1.63v1.9a.314.314,0,0,1-.356.355H14.637a.314.314,0,0,1-.355-.355v-1.9a5.435,5.435,0,0,1,1.689-4.029,5.687,5.687,0,0,1,8.058-.031,5.553,5.553,0,0,1,1.689,4.06v1.422A6.017,6.017,0,0,1,24.3,19.7a.361.361,0,0,0,0,.534,6.019,6.019,0,0,1,1.422,3.732v1.482A5.57,5.57,0,0,1,24.059,29.48Z" transform="translate(0)"/></svg>