<svg id="レイヤー_1" data-name="レイヤー 1" xmlns="http://www.w3.org/2000/svg" viewBox="0 0 39.999 40"><defs><style>.cls-1{fill:#ffda00;}.cls-2{fill:#004ea3;}</style></defs><path class="cls-1" d="M40,20A20,20,0,1,0,20,40,20,20,0,0,0,40,20Z" transform="translate(0)"/><path class="cls-2" d="M25.363,31.066H14.637a.315.315,0,0,1-.355-.356V28.251a.919.919,0,0,1,.148-.5l7.051-10.428a5.034,5.034,0,0,0,.8-2.874A2.027,2.027,0,0,0,20.237,12.4h-.474a2.076,2.076,0,0,0-2.044,2.045v2.133c0,.267-.118.385-.356.385H14.637c-.236,0-.355-.118-.355-.385V14.445a5.3,5.3,0,0,1,1.6-3.881,5.262,5.262,0,0,1,3.881-1.63h.474a5.236,5.236,0,0,1,3.852,1.6,5.325,5.325,0,0,1,1.629,3.91,8.39,8.39,0,0,1-1.393,4.8q-5.509,8.131-5.51,8.176c0,.148.059.208.207.208h6.341a.314.314,0,0,1,.355.355V30.71A.314.314,0,0,1,25.363,31.066Z" transform="translate(0)"/></svg>