<?xml version="1.0" encoding="UTF-8"?>
<svg id="_レイヤー_2" data-name="レイヤー 2" xmlns="http://www.w3.org/2000/svg" viewBox="0 0 201.06 295.71">
  <defs>
    <style>
      .cls-1, .cls-2 {
        fill: #262626;
      }

      .cls-3 {
        fill: #fff;
      }

      .cls-4, .cls-5, .cls-6, .cls-7, .cls-8, .cls-2, .cls-9, .cls-10 {
        fill-rule: evenodd;
      }

      .cls-4, .cls-11 {
        fill: #ffddc0;
      }

      .cls-12 {
        fill: none;
        stroke: #262626;
        stroke-linecap: round;
        stroke-linejoin: round;
        stroke-width: 1.5px;
      }

      .cls-13 {
        fill: #9b9587;
      }

      .cls-5, .cls-14 {
        fill: #fffeff;
      }

      .cls-15, .cls-6 {
        fill: #f2a37b;
      }

      .cls-7 {
        fill: #fefefe;
      }

      .cls-8 {
        fill: #fefeff;
      }

      .cls-16, .cls-9 {
        fill: #fbd28d;
      }

      .cls-17 {
        fill: #bdd08a;
      }

      .cls-18 {
        fill: #fff400;
      }

      .cls-10 {
        fill: #d7978e;
      }
    </style>
  </defs>
  <g id="illustration">
    <g>
      <g>
        <g>
          <path class="cls-3" d="m141.59,24.03c-.99-9.95-7.75-18.83-17.88-22.06-7.99-2.53-16.29-.99-22.66,3.48-6.4-4.45-14.73-5.96-22.71-3.38-10.14,3.28-16.85,12.24-17.78,22.22-9.83,3.53-16.93,12.85-17.1,23.91-.18,11.39,7.05,21.18,17.24,24.77.97,9.96,7.71,18.87,17.84,22.11,2.62.84,5.27,1.23,7.87,1.23,5.35,0,10.52-1.68,14.81-4.68,6.39,4.45,14.71,5.98,22.69,3.41,1.2-.39,2.35-.86,3.45-1.4,3.74,3.91,8.74,7.34,14.75,7.26-2.43-.63-6.41-6.9-7.24-12.82,3.87-4.15,6.31-9.51,6.85-15.2,9.94-3.53,17.04-12.96,17.17-24.01,0,0,0-.01,0-.02.19-11.43-7.07-21.25-17.31-24.82Z"/>
          <path class="cls-12" d="m141.59,24.03c-.99-9.95-7.75-18.83-17.88-22.06-7.99-2.53-16.29-.99-22.66,3.48-6.4-4.45-14.73-5.96-22.71-3.38-10.14,3.28-16.85,12.24-17.78,22.22-9.83,3.53-16.93,12.85-17.1,23.91-.18,11.39,7.05,21.18,17.24,24.77.97,9.96,7.71,18.87,17.84,22.11,2.62.84,5.27,1.23,7.87,1.23,5.35,0,10.52-1.68,14.81-4.68,6.39,4.45,14.71,5.98,22.69,3.41,1.2-.39,2.35-.86,3.45-1.4,3.74,3.91,8.74,7.34,14.75,7.26-2.43-.63-6.41-6.9-7.24-12.82,3.87-4.15,6.31-9.51,6.85-15.2,9.94-3.53,17.04-12.96,17.17-24.01,0,0,0-.01,0-.02.19-11.43-7.07-21.25-17.31-24.82Z"/>
        </g>
        <g>
          <path class="cls-1" d="m71.94,45.72c-1.08,1.75-3,4.15-5.12,5.86.86.85,1.74,1.83,2.33,2.53l-1.75,1.39c-.63-.84-1.89-2.25-2.87-3.24-.87-.88-2.4-2.23-3.3-2.88l1.59-1.27c.6.45,1.59,1.26,2.53,2.09,1.7-1.35,3.11-3.09,3.81-4.32h-7.94c-.6,0-1.41.07-1.72.11v-2.1c.39.06,1.21.13,1.72.13h8.33c.57,0,1.08-.06,1.39-.16l1.5,1.23c-.21.24-.39.43-.51.63Z"/>
          <path class="cls-1" d="m79.85,46.02c1.54-.96,3.25-2.46,4.23-3.65l1.62,1.55c-1.14,1.12-2.58,2.29-4.03,3.25v6.06c0,.66.03,1.59.13,1.96h-2.37c.06-.36.11-1.3.11-1.96v-4.8c-1.55.81-3.45,1.62-5.3,2.16l-.95-1.89c2.68-.69,4.89-1.67,6.55-2.68Z"/>
          <path class="cls-1" d="m88.65,53.16l-1.63-1.11c1-.94,2.21-2.59,2.82-3.87l1.71.8c-.69,1.34-2.08,3.3-2.89,4.18Zm6.29-9.33v1.2h3.48c.43,0,1.08-.05,1.49-.11v1.96c-.46-.03-1.05-.04-1.47-.04h-3.49v6.97c0,.87-.51,1.41-1.58,1.41-.79,0-1.68-.03-2.43-.13l-.2-1.86c.65.12,1.3.18,1.68.18s.53-.15.54-.54c.02-.55.02-5.31.02-6.01h0s-3.81-.01-3.81-.01c-.45,0-1.02.01-1.44.06v-1.98c.45.04.97.11,1.44.11h3.81v-1.2c0-.39-.08-1.05-.12-1.3h2.22c-.04.21-.13.93-.13,1.3Zm5.61,8.25l-1.75.96c-.64-1.27-1.71-3.09-2.45-4.02l1.64-.88c.76.96,1.96,2.85,2.56,3.94Z"/>
          <path class="cls-1" d="m104.79,47.69h8.05c.71,0,1.36-.06,1.75-.09v2.35c-.36-.01-1.12-.07-1.75-.07h-8.05c-.86,0-1.86.03-2.41.07v-2.35c.54.05,1.63.09,2.41.09Z"/>
          <path class="cls-1" d="m122.22,44.9c-.48,1.47-1.7,5.28-2.45,7.29,1.83-.18,3.96-.42,5.47-.6-.52-1.08-1.08-2.09-1.57-2.74l1.88-.77c1.06,1.62,2.59,4.56,3.28,6.24l-2.02.9c-.2-.51-.44-1.12-.72-1.77-2.43.28-6.97.76-8.86.96-.38.04-.93.12-1.41.18l-.34-2.19c.51,0,1.16,0,1.65-.01.12,0,.27-.01.4-.01.87-2.22,2.16-6.33,2.59-7.89.21-.76.3-1.23.36-1.74l2.38.49c-.19.45-.42,1-.64,1.67Z"/>
          <path class="cls-1" d="m135.81,44.01c1.42-.07,2.92-.21,4.25-.43l-.02,1.74c-1.42.21-3.27.33-4.89.38-.25.55-.55,1.09-.85,1.53.39-.18,1.2-.3,1.69-.3.92,0,1.67.39,2,1.15.78-.36,1.41-.61,2.03-.88.59-.26,1.11-.5,1.66-.78l.75,1.74c-.48.14-1.27.43-1.78.63-.68.27-1.53.6-2.45,1.02.01.84.04,1.95.06,2.64h-1.8c.04-.45.06-1.17.08-1.83-1.12.64-1.72,1.23-1.72,1.98,0,.82.7,1.05,2.17,1.05,1.28,0,2.94-.17,4.26-.42l-.06,1.93c-.99.13-2.84.25-4.25.25-2.36,0-4.09-.57-4.09-2.5s1.8-3.12,3.51-4c-.23-.38-.63-.51-1.05-.51-.84,0-1.77.48-2.34,1.03-.45.45-.89.99-1.4,1.65l-1.6-1.2c1.58-1.45,2.64-2.79,3.31-4.14h-.19c-.62,0-1.71-.03-2.54-.09v-1.76c.76.12,1.88.18,2.64.18h.72c.16-.6.27-1.19.3-1.73l1.98.16c-.08.38-.18.87-.38,1.5Z"/>
        </g>
        <g>
          <path class="cls-1" d="m76.13,23.95c1.07,1.53,2.71,2.94,4.27,3.67-.3.3-.56.68-.78,1.04-.63-.37-1.28-.83-1.89-1.34v.83h-4.24v-.8c-.57.49-1.2.94-1.85,1.33-.15-.28-.49-.7-.75-.95,1.69-.93,3.3-2.54,4.05-3.78h1.19Zm1.94,5.1l.95.28c-.49,1.23-1.21,2.78-1.83,4.05l-1.26-.35c.44-.86.95-1.93,1.34-2.8h-5.14v-1.12h5.73l.21-.06Zm-.66-2c-.73-.64-1.38-1.32-1.82-1.94-.43.62-1.04,1.3-1.76,1.94h3.58Z"/>
          <path class="cls-1" d="m85.03,25.48c-.06.3-.14.67-.21,1.03.34-.02.63-.04.84-.04,1.06,0,1.81.47,1.81,1.91,0,1.18-.14,2.8-.57,3.67-.33.7-.88.92-1.64.92-.38,0-.86-.07-1.2-.14l-.21-1.32c.38.11.96.21,1.22.21.34,0,.59-.1.75-.43.27-.57.41-1.78.41-2.77,0-.8-.35-.91-.97-.91-.16,0-.41.02-.7.04-.38,1.52-1.12,3.89-2.04,5.36l-1.3-.52c.97-1.31,1.66-3.33,2.03-4.7-.36.04-.68.08-.86.1-.29.05-.81.12-1.12.17l-.12-1.36c.37.03.7.01,1.07,0,.31-.01.78-.04,1.29-.09.14-.75.23-1.48.21-2.11l1.49.15c-.06.26-.13.58-.18.83Zm4.24.16l-.49.21c.6.93,1.35,2.6,1.63,3.49l-1.27.58c-.26-1.11-.97-2.87-1.68-3.75l.9-.39c-.2-.38-.45-.86-.68-1.18l.79-.33c.25.37.61,1,.8,1.37Zm1.19-.46l-.79.34c-.21-.41-.53-1-.81-1.38l.8-.32c.26.38.63,1.01.8,1.36Z"/>
          <path class="cls-1" d="m95.22,25.14c1-.14,2.02-.37,2.52-.6l.82,1.1c-.34.08-.6.15-.77.19-.49.13-1.08.24-1.68.33v1.59h2.52c.22,0,.69-.04.91-.06v1.29c-.27-.02-.61-.04-.88-.04h-2.59c-.15,1.68-.87,3.1-2.56,4.12l-1.27-.87c1.52-.7,2.32-1.77,2.51-3.25h-2.75c-.31,0-.68.02-.94.04v-1.29c.27.03.61.06.92.06h2.82v-1.42c-.96.08-2.01.11-2.68.13l-.31-1.16c.76.02,2.31,0,3.41-.16Z"/>
          <path class="cls-1" d="m103.31,26.88c.07.24.16.58.27.97,1.27-.24,2.67-.51,3.06-.6.18-.03.37-.09.51-.16l.8.57c-.42.88-1.43,2.38-2.13,3.13l-1.1-.55c.51-.46,1.21-1.31,1.48-1.8-.24.04-1.24.25-2.32.47.38,1.38.81,2.92.96,3.44.06.17.19.62.27.82l-1.36.34c-.03-.27-.1-.6-.18-.88-.15-.54-.56-2.1-.92-3.46-.84.18-1.57.33-1.87.4l-.31-1.2c.32-.03.59-.06.92-.12.14-.02.5-.08.96-.17-.1-.39-.19-.71-.26-.93-.07-.26-.17-.5-.28-.71l1.34-.32c.04.23.1.5.16.76Z"/>
          <path class="cls-1" d="m112.89,30.22c1.71-1.01,3.01-2.54,3.64-3.89l.78,1.41c-.76,1.35-2.09,2.73-3.7,3.7-1.01.61-2.3,1.17-3.71,1.41l-.84-1.32c1.56-.22,2.86-.73,3.83-1.31Zm0-3.23l-1.02,1.04c-.52-.56-1.77-1.65-2.5-2.16l.94-1c.7.47,2,1.51,2.58,2.12Z"/>
          <path class="cls-1" d="m124.85,26.31c-.34.78-.9,1.85-1.57,2.75.99.86,2.2,2.14,2.79,2.86l-1.14.99c-.65-.9-1.58-1.92-2.52-2.83-1.06,1.12-2.39,2.16-3.76,2.81l-1.03-1.08c1.61-.6,3.16-1.82,4.1-2.87.66-.75,1.27-1.74,1.49-2.45h-3.39c-.42,0-.97.06-1.18.07v-1.42c.27.04.88.07,1.18.07h3.53c.43,0,.83-.06,1.03-.13l.82.61c-.08.11-.26.42-.35.62Z"/>
          <path class="cls-1" d="m128.32,31.68c0-.53.38-.89.88-.89s.88.36.88.89-.38.88-.88.88-.88-.36-.88-.88Zm.1-5.2l-.05-1.49h1.66l-.05,1.49-.27,3.42h-1.02l-.27-3.42Z"/>
        </g>
        <g>
          <path class="cls-1" d="m80.57,73.32c.34,0,.4-.17.45-1.33.25.19.78.39,1.09.47-.13,1.58-.44,1.99-1.43,1.99h-1.32c-1.19,0-1.47-.36-1.47-1.48v-1.6h-1.21c-.21,1.59-.8,2.64-3.27,3.2-.11-.32-.43-.81-.66-1.06,2.05-.38,2.48-1.05,2.65-2.14h-1.22v-5.87h6.54v5.87h-1.63v1.59c0,.32.06.36.44.36h1.04Zm-5.24-6.16h4.18v-.62h-4.18v.62Zm0,1.58h4.18v-.62h-4.18v.62Zm0,1.59h4.18v-.62h-4.18v.62Z"/>
          <path class="cls-1" d="m84.04,67.89c.77-.24,2.81-.96,4.27-.96,1.81,0,3.23,1.04,3.23,2.89,0,2.27-2.16,3.72-5.68,3.9l-.58-1.33c2.71-.07,4.83-.85,4.83-2.59,0-.94-.65-1.66-1.85-1.66-1.47,0-3.84,1-4.88,1.45l-.57-1.4c.37-.06.87-.2,1.23-.3Z"/>
          <path class="cls-1" d="m94.58,66.7c-.25,1.11-.6,3.21-.33,4.45.13-.31.31-.79.48-1.16l.62.4c-.29.86-.56,1.87-.68,2.44-.04.15-.06.37-.06.49,0,.1,0,.27.02.41l-1.11.11c-.22-.6-.57-2-.57-3.24,0-1.64.2-3.18.32-3.99.05-.28.06-.62.07-.87l1.48.15c-.09.24-.19.6-.24.81Zm5.16-.3v1.28c.56-.04,1.09-.1,1.5-.18v1.3c-.41.05-.93.09-1.49.12v.42c0,2.36-.18,3.81-2.18,5.08l-1.15-.91c.38-.17.88-.49,1.16-.8.77-.8.93-1.69.93-3.38v-.36c-.38.01-.75.02-1.12.02-.43,0-1.05-.03-1.54-.05v-1.27c.49.07.98.11,1.51.11.36,0,.75-.01,1.13-.02-.01-.56-.02-1.08-.04-1.35-.02-.25-.07-.53-.11-.69h1.45c-.03.22-.04.46-.05.68Z"/>
          <path class="cls-1" d="m104.35,66.1c.53,0,2.67-.04,3.24-.09.41-.04.64-.07.76-.11l.65.89c-.23.15-.47.29-.7.46-.54.38-1.59,1.26-2.22,1.76.33-.08.63-.11.95-.11,1.7,0,2.99,1.06,2.99,2.52,0,1.58-1.2,2.83-3.62,2.83-1.39,0-2.44-.64-2.44-1.64,0-.81.73-1.56,1.79-1.56,1.24,0,1.99.76,2.13,1.71.55-.29.83-.75.83-1.36,0-.9-.9-1.51-2.08-1.51-1.53,0-2.53.81-3.6,2.03l-.91-.94c.71-.57,1.92-1.59,2.51-2.08.56-.46,1.6-1.3,2.09-1.73-.51.01-1.89.07-2.42.1-.27.02-.59.05-.82.08l-.04-1.3c.28.04.63.05.91.05Zm1.8,7.01c.21,0,.4,0,.58-.03-.06-.65-.43-1.07-.97-1.07-.38,0-.62.23-.62.48,0,.37.41.62,1.01.62Z"/>
          <path class="cls-1" d="m113.77,66.05c.43,0,2.3-.09,2.92-.16.32-.03.55-.08.69-.12l.79.92c-.22.13-.58.38-.79.55-.71.57-1.7,1.4-2.38,1.93,1.34-.13,2.99-.24,4.22-.24v1.18c-.96-.05-1.96-.06-2.57.02-.92.13-1.69.78-1.69,1.6s.63,1.1,1.52,1.2c.55.06,1.15.05,1.52.02l-.26,1.32c-2.57.11-4.05-.66-4.05-2.33,0-.62.35-1.24.72-1.58-.91.07-2.03.23-3.03.4l-.12-1.21c.53-.05,1.23-.14,1.75-.2.9-.59,2.2-1.72,2.82-2.27-.42.03-1.64.09-2.05.12-.25.02-.58.06-.9.09l-.06-1.28c.31.03.61.04.95.04Zm5.01,2.4l-.76.33c-.2-.44-.38-.79-.66-1.2l.74-.32c.24.36.49.79.68,1.19Zm1.15-.47l-.75.34c-.21-.43-.44-.82-.71-1.17l.73-.34c.24.33.54.8.73,1.17Z"/>
          <path class="cls-1" d="m121.53,72.87c0-.53.38-.89.88-.89s.88.36.88.89-.38.88-.88.88-.88-.36-.88-.88Zm.1-5.2l-.05-1.49h1.66l-.05,1.49-.27,3.42h-1.02l-.27-3.42Z"/>
          <path class="cls-1" d="m126.53,72.87c0-.53.38-.89.88-.89s.88.36.88.89-.38.88-.88.88-.88-.36-.88-.88Zm.1-5.2l-.05-1.49h1.66l-.05,1.49-.27,3.42h-1.02l-.27-3.42Z"/>
        </g>
      </g>
      <g>
        <g>
          <g>
            <g>
              <g>
                <path class="cls-11" d="m28.16,255.58c-.87,1.38-1.82,2.73-2.95,3.92-2.48,2.6-4.55,2.78-5.01,4.39-.41,1.45.96,2.96,1.76,4.26.6.96,1.11,2.3,1.53,4,.25,1.09.38,1.67.55,2.76.18,1.13,1.37,1.81,2.1,1.88.3.03.59-.09.61-.43.03-.27-.34.77,1.31.81,1.65.04,1.39-.79,1.39-.79.78.4,1.61.23,1.33-.62-.32-.85-1.73-1.19-2.54-3.46-.48-1.39-1.47-5.02-1.42-6.83.05-2.07,1.81-2.8,5.22-5.18l-3.9-4.71Z"/>
                <path class="cls-1" d="m30.22,276.86c-.27,0-.58-.08-.89-.24-.13-.07-.19-.24-.12-.37.07-.13.23-.19.37-.12.41.21.79.22.92.1.1-.08.06-.26.02-.39-.09-.25-.34-.47-.66-.76-.57-.51-1.35-1.22-1.88-2.7-.4-1.16-1.49-4.95-1.43-6.93.04-1.84,1.33-2.7,3.66-4.26.51-.34,1.07-.71,1.68-1.14.12-.09.3-.06.38.07.09.12.06.3-.07.38-.62.43-1.18.8-1.69,1.14-2.25,1.5-3.38,2.26-3.42,3.81-.05,1.74.9,5.3,1.4,6.73.48,1.35,1.17,1.98,1.73,2.48.35.32.66.6.81.98.19.57-.03.87-.18.99-.16.14-.39.21-.64.21Z"/>
                <path class="cls-1" d="m26.22,277.07s-.07,0-.11,0c-.86-.09-2.15-.87-2.34-2.11-.17-1.08-.3-1.65-.55-2.75-.41-1.67-.92-2.99-1.5-3.91-.15-.25-.33-.5-.51-.77-.77-1.13-1.65-2.42-1.29-3.72.27-.96,1.05-1.46,2.04-2.09.85-.54,1.9-1.22,3.03-2.41.96-1.02,1.86-2.22,2.91-3.87.08-.13.25-.17.38-.09.13.08.17.25.09.38-.66,1.05-1.7,2.6-2.98,3.96-1.18,1.24-2.27,1.94-3.14,2.5-.96.62-1.59,1.02-1.81,1.78-.29,1.05.47,2.17,1.21,3.26.18.27.36.53.52.78.61.97,1.14,2.34,1.57,4.08.25,1.11.38,1.69.55,2.79.15.96,1.19,1.59,1.85,1.65.11.01.21,0,.26-.05.02-.02.05-.05.05-.13-.02-.09-.24-.35-.39-.53-.17-.21-.37-.44-.5-.67-.08-.13-.03-.3.1-.38.13-.08.3-.03.38.1.11.19.29.4.45.6.32.38.54.65.51.93-.01.19-.09.37-.24.49-.14.12-.34.19-.56.19Z"/>
                <path class="cls-1" d="m27.27,277.44c-.23,0-.51-.12-.83-.35-.12-.09-.15-.26-.06-.38.09-.12.26-.15.38-.06.34.24.5.26.53.24,0,0,.05-.05.06-.2.03-.38-.14-.78-.35-1.29l-.07-.17c-.06-.14.01-.3.15-.36.14-.06.3,0,.36.15l.07.17c.23.55.42,1.03.39,1.54-.03.42-.22.59-.37.66-.08.04-.17.06-.26.06Z"/>
                <path class="cls-1" d="m28.06,277.51c-.2,0-.42-.1-.6-.27-.11-.11-.11-.28,0-.39.11-.11.28-.11.39,0,.09.09.19.13.24.11.04,0,.08-.07.11-.16.07-.27-.04-.62-.18-1.07-.04-.14-.09-.29-.13-.45-.04-.15.05-.3.19-.34.15-.04.3.05.34.19.04.15.08.3.13.44.15.51.28.94.18,1.38-.13.4-.37.52-.5.55-.05.01-.1.02-.15.02Z"/>
                <path class="cls-1" d="m29.13,277.48c-.32,0-.64-.23-.76-.32-.12-.09-.15-.26-.06-.38.09-.12.26-.15.38-.06.33.24.45.21.45.21,0-.01.05-.12.03-.37-.02-.29-.11-.54-.24-.92-.05-.15-.11-.31-.17-.49-.05-.14.03-.3.18-.35.14-.05.3.03.35.18.06.18.11.34.16.48.14.4.24.69.27,1.05.04.45-.06.76-.31.9-.09.05-.19.07-.28.07Z"/>
                <path class="cls-1" d="m24.18,262.48s-.04,0-.06,0c-.15-.03-.24-.18-.21-.33.2-.93.86-1.35,1.44-1.72.39-.25.75-.48.98-.84.08-.13.25-.17.38-.09.13.08.17.25.09.38-.29.47-.73.74-1.15,1.01-.56.36-1.05.67-1.2,1.38-.03.13-.14.22-.27.22Z"/>
                <path class="cls-15" d="m43.09,224.12c.44,1.49.84,2.94,1.17,4.26,1.75,7.04,4.38,17.75,3.76,20.44-1.01,4.38-6.52,8.67-11.59,10.91-5.07,2.24-8.08,4.5-8.08,4.5-2.38,1.13-5.64-2.02-4.21-3.94,0,0,2.69-6.08,6.85-11.09,3.61-4.35,4.94-2.98,4.94-2.98l3.46-31.46,3.71,9.37Z"/>
                <path class="cls-11" d="m47.89,295.24s1.26.26,1.26-.19c0-.52-.15-.89-1.04-1.63l-.22,1.82Z"/>
                <path class="cls-11" d="m49.08,295.2s1.22.15,1.26-.37c.04-.48-.33-.85-1.15-1.52l-.11,1.89Z"/>
                <path class="cls-11" d="m50.41,295.06s.7.15.78-.37c.07-.33-.22-.74-1.07-1.45l.3,1.82Z"/>
                <path class="cls-11" d="m46.15,270.04c-.52,3.78-1.11,5.89-2,7.97-1.19,2.74-2.11,3.45-2.78,5-.37.89-.07,1.41.74,2.52.85,1.11,1.85,2.08,1.93,5.26.07,3.26.37,4.04.89,4.3.52.26,2.89.63,3.08,0,.11-.33,3.3-.63,3.3-.63,0,0,.59-.04.44-.52-.19-.48-1.22-.89-1.89-1.33-.7-.44-1.37-2.22-1.41-4.08-.04-1.85-.56-4.85.22-8.78.26-1.48,1.33-4.15,2.67-7.34l-5.19-2.37Z"/>
                <g>
                  <path class="cls-1" d="m51.3,294.74c-.14,0-.26-.11-.27-.26,0-.15.11-.28.26-.29.07,0,.18-.04.21-.08,0-.01,0-.05,0-.09-.09-.22-.64-.53-1.08-.77-.24-.13-.49-.27-.7-.41-.82-.52-1.49-2.41-1.53-4.3,0-.42-.04-.89-.08-1.43-.13-1.83-.3-4.34.31-7.41.27-1.55,1.42-4.38,2.68-7.39.06-.14.22-.21.36-.15.14.06.21.22.15.36-1.25,2.98-2.39,5.78-2.65,7.28-.59,3-.42,5.47-.3,7.27.04.55.07,1.03.08,1.46.04,1.82.7,3.49,1.28,3.85.2.13.44.27.67.39.6.33,1.16.65,1.33,1.07.09.28.02.47-.06.58-.19.28-.58.31-.62.31,0,0-.01,0-.02,0Z"/>
                  <path class="cls-1" d="m46.96,295.71c-.83,0-1.84-.21-2.16-.37-.63-.31-.96-1.1-1.04-4.54-.07-2.81-.86-3.82-1.64-4.8-.08-.1-.16-.2-.24-.3-.79-1.08-1.22-1.74-.78-2.79.3-.7.64-1.22,1.03-1.82.51-.77,1.08-1.65,1.75-3.19.79-1.85,1.43-3.9,1.98-7.9.02-.15.16-.26.31-.23.15.02.25.16.23.31-.48,3.52-1.05,5.77-2.02,8.04-.68,1.58-1.27,2.48-1.79,3.27-.38.58-.71,1.08-.99,1.73-.3.72-.13,1.1.71,2.25.07.09.15.19.23.29.79,1,1.68,2.14,1.75,5.13.07,3.1.35,3.86.74,4.06.36.18,1.92.46,2.56.24.11-.04.13-.07.13-.07.06-.19-.11-.49-.41-.7-.08-.05-.16-.11-.25-.16-.38-.24-.82-.52-.96-.93-.05-.14.02-.3.16-.35.14-.05.3.02.35.16.09.23.45.47.74.66.1.06.19.12.27.18.43.3.79.82.62,1.31-.03.11-.13.28-.39.39-.23.1-.55.14-.91.14Z"/>
                  <path class="cls-1" d="m48.57,295.59c-.3,0-.6-.05-.74-.08-.15-.03-.24-.18-.21-.32.03-.15.18-.24.32-.21.37.08.79.09.93.04,0-.36-.1-.68-.94-1.38-.12-.1-.13-.27-.04-.39.1-.12.27-.13.39-.04.86.72,1.14,1.16,1.14,1.84,0,.14-.06.27-.17.37-.16.13-.42.17-.68.17Z"/>
                  <path class="cls-1" d="m49.45,295.5c-.19,0-.34-.02-.4-.02-.15-.02-.26-.15-.24-.31.02-.15.16-.26.3-.24.29.04.79.03.94-.1.04-.37-.27-.69-1.03-1.31-.12-.1-.13-.27-.04-.39.1-.12.27-.13.39-.04.81.66,1.3,1.11,1.25,1.75-.01.16-.09.3-.21.41-.24.2-.64.24-.95.24Z"/>
                  <path class="cls-1" d="m50.62,295.35c-.14,0-.25-.02-.27-.03-.15-.03-.24-.18-.21-.32.03-.15.18-.24.32-.21.09.02.3.03.4-.04.02-.02.04-.04.05-.1.07-.33-.72-.98-.98-1.2-.12-.1-.13-.27-.04-.39.1-.12.27-.13.39-.04.81.67,1.29,1.19,1.17,1.72-.02.18-.12.34-.28.45-.17.12-.39.15-.55.15Z"/>
                </g>
                <path class="cls-15" d="m55.88,210.34c-.25,1.52,1.67,12.81,1.92,17.5.25,4.69-3.01,20.72-3.01,22.73s.13,9.9-1.25,16.16-4.38,15.95-4.38,15.95c-2.96-.52-5.2-1.5-6.43-3.14,0,0,1.71-5.46,1.9-11.11.16-4.8-.76-9.09.35-14.53l-3.4-33.08,14.31-10.49Z"/>
                <path class="cls-15" d="m37.81,175.29c-4.01-2.44-2.94-4.89-2.63-6.58.31-1.69.75-7.45.75-7.45l-3.26-8.07s4.57.8,6.39,2.12c2.35-1.27,4.85-1.91,7.53-1.78l6.92-5.62s.86,6.21,0,12.72c0,0,2.92,4.2,2.9,9.21-.02,4.08-3.01,7.77-5.7,9.27l-4.63,1.32-8.27-5.14Z"/>
                <path class="cls-14" d="m48.81,154.12l3.03-2.25v5.64s-1.54-2.39-3.03-3.38Z"/>
                <path class="cls-14" d="m36.75,159.19l-1.17-3.09,2.68.78s-1.13,1.19-1.5,2.32Z"/>
                <path class="cls-11" d="m23.59,134.83s-.79,1.69-.75,2.38c.04.69,1.44.72,1.44.72l-.69-3.1Z"/>
                <path class="cls-11" d="m25.74,144.75c1.27-2.28,2.84-6.66,2.62-7.85-.44-2.43-.92-4.42-1.22-5.77-.35-1.57-.7-2.34-1-2.19-.36.15-.43.48-.31,1.35.12.87.42,3.21.42,4.85,0,.78-.11-.52-.11-.52l-.98-.52-.82.08s-.37-.91-.94-.74c-.63.19-.03,1.69.14,3.15.18,1.46.14,2.26.66,3.77.54,1.51-1.77,3.2-1.77,3.2l3.31,1.2Z"/>
                <path class="cls-1" d="m22.44,143.83c-.08,0-.17-.04-.22-.11-.09-.12-.06-.29.06-.38.02-.02,2.14-1.58,1.68-2.88-.4-1.19-.48-1.94-.57-2.9-.03-.28-.06-.59-.1-.92-.05-.43-.14-.86-.23-1.27-.22-1.06-.41-1.97.28-2.18.18-.06.37-.04.54.06.45.24.87,1,1.26,2.31.45,1.43,1.18,2.21,1.18,2.21.1.11.1.28,0,.39-.11.1-.28.1-.39,0-.03-.03-.82-.87-1.31-2.43-.47-1.57-.85-1.91-.99-1.99-.06-.03-.1-.03-.12-.02-.2.06-.02.95.1,1.54.08.41.18.87.23,1.32.04.34.07.65.1.94.09.92.16,1.65.54,2.77.6,1.68-1.77,3.43-1.87,3.51-.05.04-.11.05-.16.05Z"/>
                <path class="cls-1" d="m25.74,145.03s-.09-.01-.13-.03c-.13-.07-.18-.24-.11-.37,1.25-2.23,2.79-6.57,2.59-7.66-.33-1.84-.69-3.41-.97-4.68-.09-.4-.17-.76-.24-1.09-.33-1.5-.59-1.89-.67-1.98-.12.07-.21.22-.1,1.04.1.71.42,3.17.43,4.89,0,.85-.73,2.05-.76,2.1-.08.13-.25.17-.38.09-.13-.08-.17-.25-.09-.38.19-.31.68-1.23.68-1.81,0-1.68-.32-4.11-.42-4.81-.1-.74-.14-1.38.47-1.64.11-.05.25-.05.38,0,.24.12.58.5.99,2.38.07.33.15.69.24,1.09.29,1.27.64,2.84.98,4.7.25,1.33-1.44,5.88-2.65,8.03-.05.09-.14.14-.24.14Zm.51-15.85s0,0,0,0c0,0,0,0,0,0Z"/>
                <path class="cls-1" d="m23.59,138.2s-.04,0-.06,0c-1.14-.25-1-1.24-.92-1.84.1-.76.38-1.31.39-1.33.07-.13.23-.19.37-.12.13.07.19.23.12.37,0,0-.25.5-.34,1.16-.12.86-.02,1.11.49,1.23.15.03.24.18.21.33-.03.13-.14.21-.27.21Z"/>
                <path class="cls-1" d="m25.4,135.97c-.06,0-.12-.02-.17-.06-.15-.12-.21-.14-.24-.14-.15.04-.29-.05-.33-.2-.04-.15.06-.3.2-.34.29-.08.57.14.7.24.12.09.14.27.05.39-.05.07-.13.1-.22.1Z"/>
                <path class="cls-15" d="m22.34,158.5c2.14-3.29,5.35-14.94,5.35-14.94-.73-1.39-3.66-2.5-5.16-1.91,0,0-7.5,14.73-8.18,16.85-.88,2.76,2.62,7.91,4.86,11.61,2.13,3.53,8.58,11.64,10.15,12.95,0,0,1.13,11.68,1.44,21.01,0,0-2.76,7.93-3.44,14.44s5.01,18.1,6.33,21.35c1.32,3.26,2.76,7.95,2.76,7.95l21.15-51.82-8.28-11.79-14.84-12.93-12.13-12.78Z"/>
                <path class="cls-5" d="m50.53,198.46s4.41-5.28,7.06-2.47l-.84,5.28s-.56,4.61-.89,9.44c-.23,3.3,0,6.5-.85,9.2-.44,1.37-1.55,2.79-2.17,3.52-3.6,4.29-8.56,4.94-8.56,4.94l-5.22-16.5s-3.01-7.61-4.56-10.23c-.79-1.33-1.34-5.09.44-6.92,1.95-2.01,6.29-2.02,6.94-1.98,2.41.17,8.67,5.71,8.67,5.71Z"/>
                <path class="cls-11" d="m72.1,219.35c-.07.61-.14,1.79-.92,2.26-.78.47-2.12,1.25-2.61.24-.09-.18-.4-1.1-.4-1.1l.71-3.68,3.22,2.28Z"/>
                <path class="cls-11" d="m63.44,213.76s1.02.73,1.82,1.64c.79.9,1.51,3.52,2.35,4.6.86,1.06,1.18,2.06,1.72,2.08.52.04.64-.58.44-1.38-.17-.79-.62-1.15-.91-1.87-.08-.2.04-.52.39-.65.49-.17,2.23.75,2.63.96.99.53,2.16,1.52,3.3,2.15.76.43,1.61.75,1.88.46.58-.55-1.2-1.42-2.38-2.45-1.18-1.03-3.58-3.15-4.99-4.17-1.66-1.19-4.19-4.15-4.19-4.15l-2.06,2.77Z"/>
                <path class="cls-1" d="m69.38,222.36s-.05,0-.07,0c-.47-.02-.77-.49-1.15-1.09-.21-.33-.45-.71-.76-1.1-.44-.57-.84-1.5-1.22-2.39-.37-.87-.75-1.78-1.13-2.2-.76-.87-1.76-1.59-1.77-1.59-.12-.09-.15-.26-.06-.38.09-.12.26-.15.38-.06.04.03,1.06.76,1.87,1.68.43.49.82,1.4,1.22,2.35.37.86.75,1.76,1.14,2.27.33.41.59.82.8,1.14.28.44.52.83.72.83.11,0,.14-.03.15-.04.09-.11.15-.43,0-1-.09-.42-.27-.7-.47-1.02-.15-.24-.3-.49-.43-.81-.06-.17-.05-.37.03-.55.1-.21.28-.37.52-.46.15-.05.62-.21,2.85.98.51.27,1.05.65,1.63,1.05.55.39,1.12.79,1.68,1.09.92.53,1.47.59,1.56.51.03-.03.03-.04.03-.05-.01-.22-.72-.73-1.23-1.1-.4-.29-.8-.58-1.17-.9l-.4-.35c-1.24-1.08-3.31-2.9-4.57-3.8-1.67-1.2-4.14-4.07-4.24-4.19-.1-.11-.09-.29.03-.39.11-.1.29-.08.39.03.02.03,2.53,2.95,4.14,4.11,1.28.92,3.36,2.74,4.61,3.83l.4.35c.35.3.74.59,1.13.87.8.58,1.43,1.03,1.46,1.51,0,.12-.02.31-.2.47-.43.44-1.44.01-2.21-.43-.58-.32-1.16-.73-1.72-1.12-.56-.39-1.09-.76-1.57-1.02-1.6-.85-2.28-.99-2.42-.95-.13.05-.18.13-.2.17-.03.06-.02.1-.02.12.11.27.25.49.39.72.21.33.42.68.53,1.19.12.47.19,1.11-.12,1.48-.09.11-.26.24-.53.24Z"/>
                <path class="cls-1" d="m69.79,221.1c-.11,0-.22-.07-.26-.19-.05-.14.03-.3.17-.35.36-.12.77-.75.83-1.58.01-.15.14-.27.29-.25.15.01.27.14.25.29-.07.98-.57,1.85-1.2,2.06-.03.01-.06.01-.09.01Z"/>
                <path class="cls-1" d="m69.37,222.62c-.12,0-.24-.02-.36-.05-.3-.09-.53-.29-.68-.6-.1-.18-.36-.97-.41-1.13-.05-.14.03-.3.17-.35.14-.05.3.03.35.17.12.37.32.95.38,1.05.09.18.2.28.34.32.52.15,1.44-.4,1.88-.67.61-.37.71-1.29.77-1.9l.02-.15c.02-.15.15-.26.3-.24.15.02.26.15.24.3l-.02.15c-.07.68-.19,1.81-1.03,2.32-.63.38-1.34.77-1.96.77Z"/>
                <path class="cls-15" d="m28.41,226.27s-1.59,15.04-10.95,19.92c-1.23.64-2.39,1.1-3.49,1.43h0c-8.82,2.58-13.66-3.93-13.66-3.93,0,0,3.52.09,8.33-2.05h0c5.67-2.51,13.13-8.09,18.74-20.49l1.04,5.12Z"/>
                <path class="cls-14" d="m13.96,247.62c-8.82,2.58-13.66-3.93-13.66-3.93,0,0,3.52.09,8.33-2.05h1.88l-1.38,1.36,2.38.87-1.06,1.32,1.63.75-.44,1.07,2.33.61Z"/>
                <g>
                  <path class="cls-10" d="m42.03,156.6c-.42.57-1.62.44-1.62.44l-1.45.88s-.65,1.36-1.28,3.02c-.43,1.17-.9,2.34-.92,3.71-.05,2.34,1.12,3.66,1.12,3.66l8.09,1.8,3.98,2.02s.52.01,1.14-.27c.69-.29,1.7-1.11,2.04-1.83.68-1.36-.27-3.59-.27-3.59,0,0,.53-.65.6-1.62.09-1.27-.91-3.15-1.34-4.32-.46-1.28-1.03-2.29-1.91-3-1-.74-1.34-.94-1.34-.94,0,0-2.27-1.24-3.93-1.24s-2.92,1.27-2.92,1.27Z"/>
                  <path class="cls-4" d="m52.07,169.45s-.63-1.61-1.59-2.45c-.65-.57-1.73-2.37-2.02-3.03-.25-.66-.76-2.93-1.65-3.94-.86-.96-4.37.15-4.62.31-.94.52-1.28,3.91-1.28,3.91,0,0-.36,1.2-.63,1.84-.27.64-1.01,1.53-1.01,1.53,0,0-1.21.24-1.33.91-.12.67.27,1.88.73,2.27.46.35,1.17.54,1.17.54,0,0,.04.15.6,1.12.56.98,1.1,1.44,1.1,1.44l.29,1.61c2.04.98,3.5,2.43,4.78,4.02l3.01-1.99-.27-4.35s.47-.21.87-1.22c.4-1.02.5-1.28.5-1.28,0,0,.81-.26,1.19-.68.35-.39.16-.56.16-.56Z"/>
                  <path class="cls-1" d="m50.68,171.09c-.13,0-.24-.09-.27-.22-.03-.15.06-.29.21-.32.37-.08.91-.39,1.25-1.03.07-.13.24-.19.37-.12.13.07.19.24.12.37-.42.81-1.11,1.21-1.62,1.32-.02,0-.04,0-.06,0Z"/>
                  <path class="cls-1" d="m51.32,169.19l-.47-.28s.21-.35.32-.51c.09-.12.26-.16.38-.07.13.09.16.26.07.38-.1.15-.3.48-.3.48Z"/>
                  <path class="cls-7" d="m45.21,169.64c1.07-.05,2.1-.28,2.1-.28,0,0-.1,2.01-2.02,2.13-1.74.11-2.2-1.95-2.2-1.95,0,0,1.04.14,2.12.09Z"/>
                  <path class="cls-1" d="m39.83,171.55s-.02,0-.02,0c-.61-.05-1.66-.61-2.05-1.9-.22-.73-.09-1.47.34-1.92.36-.38.89-.5,1.47-.34.15.04.23.19.19.34-.04.15-.19.23-.34.19-.39-.1-.71-.04-.93.2-.29.3-.37.84-.21,1.38.31,1.02,1.13,1.47,1.58,1.51.15.01.26.15.25.3-.01.14-.13.25-.27.25Z"/>
                  <path class="cls-1" d="m39.09,169.75s-.23-.32-.34-.46c-.1-.12-.08-.29.04-.39.12-.1.29-.08.39.04.12.15.36.48.36.48l-.44.32Z"/>
                  <path class="cls-1" d="m45.43,175.8c-.13,0-.25-.1-.27-.23-.02-.15.08-.29.23-.31h0s1.25-.22,2.86-1.41c1.06-.8,1.39-1.44,1.64-2.04.2-.4.46-1.09.61-1.76.03-.15.18-.24.33-.21.15.03.24.18.21.33-.17.72-.45,1.45-.65,1.87-.26.62-.63,1.37-1.81,2.25-1.72,1.29-3.05,1.51-3.1,1.51-.01,0-.03,0-.04,0Z"/>
                  <path class="cls-1" d="m44.66,168.36c-.07,0-.14-.03-.2-.08-.77-.79-.5-1.17-.14-1.53.15-.15.28-.28.32-.5.09-.35-.13-.91-.23-1.18-.05-.14.02-.3.16-.35.14-.05.3.02.35.16.2.51.36,1.05.25,1.49-.07.37-.3.6-.47.77-.25.24-.3.3.15.76.11.11.1.28,0,.39-.05.05-.12.08-.19.08Z"/>
                  <path class="cls-1" d="m48.39,162.81c-.07,0-.13-.02-.19-.07-.03-.02-.61-.54-1.53-.28-.15.04-.3-.04-.34-.19-.04-.15.04-.3.19-.34,1.22-.35,2.02.38,2.05.41.11.1.12.28.01.39-.05.06-.13.09-.2.09Z"/>
                  <path class="cls-1" d="m40.8,163.08c-.07,0-.14-.03-.19-.08-.11-.1-.11-.28,0-.39.03-.03.78-.81,2.03-.49.15.04.24.19.2.33-.04.15-.18.24-.33.2-.93-.23-1.48.32-1.51.34-.05.05-.13.08-.2.08Z"/>
                  <path class="cls-2" d="m49.38,173.46s-2.11,1.91-4.03,2.03c-1.48.1-3.66-1.51-3.66-1.51,0,0,2.26,2.46,4.23,2.67,1.71.19,3.42-1.48,3.42-1.48l.04-1.71Z"/>
                  <path class="cls-1" d="m45.43,175.84s-.01,0-.02,0c-.06,0-1.39-.11-3.22-1.24-1.32-.83-1.75-1.65-2-2.14-.24-.4-.58-1.22-.8-1.94-.04-.14.04-.3.18-.34.14-.04.3.04.34.18.21.67.53,1.46.76,1.83.25.48.62,1.19,1.82,1.94,1.7,1.05,2.96,1.16,2.97,1.16.15.01.26.14.25.29-.01.14-.13.25-.27.25Z"/>
                  <path class="cls-1" d="m49.61,177.29c-.12,0-.23-.08-.27-.21-.27-1.05-.31-3.54-.31-3.65,0-.15.12-.28.27-.28.15-.02.28.12.28.27,0,.03.04,2.54.29,3.52.04.15-.05.3-.2.33-.02,0-.05,0-.07,0Z"/>
                  <path class="cls-1" d="m41.82,175.8c-.13,0-.25-.1-.27-.23l-.25-1.69c-.02-.15.08-.29.23-.31.15-.02.29.08.31.23l.25,1.69c.02.15-.08.29-.23.31-.01,0-.03,0-.04,0Z"/>
                  <path class="cls-1" d="m45.16,171.77c-1.46,0-2.16-1.4-2.33-2.16-.02-.09,0-.18.07-.25.06-.07.15-.1.24-.09.01,0,1.03.14,2.07.09h0c1.04-.04,2.04-.27,2.05-.27.08-.02.17,0,.24.06.07.06.1.14.1.22-.04.78-.56,2.28-2.28,2.39-.05,0-.1,0-.15,0Zm-1.68-1.91c.21.53.73,1.42,1.79,1.35,1.21-.08,1.59-.99,1.71-1.51-.4.07-1.07.18-1.76.21h0c-.67.03-1.33-.01-1.74-.05Zm1.73-.22h0,0Z"/>
                  <path class="cls-1" d="m38.82,167.07c-.15,0-.27-.12-.27-.26,0-.15.11-.28.26-.29.05,0,1.32-.1,1.76-2.03.1-.46.18-.9.26-1.3.36-1.88.61-3.24,2.08-3.41.15-.02.29.09.3.24.02.15-.09.29-.24.3-1.02.12-1.24,1.05-1.61,2.97-.08.41-.16.85-.26,1.32-.54,2.35-2.2,2.45-2.27,2.45,0,0,0,0-.01,0Z"/>
                  <path class="cls-1" d="m50.99,172.41c-.1,0-.19-.05-.24-.15-.07-.13-.02-.3.11-.37.59-.31.96-.75,1.08-1.28.15-.67-.11-1.48-.75-2.34-.29-.37-.58-.72-.86-1.05-1.08-1.3-2.11-2.52-2.97-5.21-.6-1.89-1.25-2.78-2-2.75-.21,0-.56.12-1.09.61-.11.1-.28.1-.39-.02-.1-.11-.1-.28.02-.39.52-.48,1.01-.74,1.44-.76,1.04-.04,1.86.95,2.55,3.13.83,2.58,1.78,3.71,2.87,5.02.28.34.58.69.87,1.07.74.99,1.04,1.95.85,2.79-.15.69-.62,1.26-1.36,1.65-.04.02-.08.03-.13.03Z"/>
                  <path class="cls-1" d="m52.89,170.77c-.06,0-.12-.02-.17-.06-.12-.09-.14-.27-.05-.39,1.2-1.52-.25-4.24-1.12-5.86-.17-.32-.32-.6-.43-.83-.55-1.12-.86-2.08-.97-3.01-.02-.15.09-.29.24-.3.15-.02.29.09.3.24.1.87.39,1.77.92,2.84.11.23.26.51.42.81.93,1.74,2.49,4.66,1.07,6.46-.05.07-.13.1-.22.1Z"/>
                  <path class="cls-1" d="m37.89,168.7c-.08,0-.16-.03-.21-.1-1.52-1.87-1.28-4.09-.44-6.84l.03-.1c.85-2.81,1.41-4.66,4-4.93.15-.02.29.09.3.24.02.15-.09.29-.24.3-2.23.23-2.69,1.76-3.53,4.54l-.03.1c-.94,3.1-.84,4.87.34,6.33.1.12.08.29-.04.39-.05.04-.11.06-.17.06Z"/>
                  <path class="cls-1" d="m52.9,166.8s-.1-.01-.14-.04c-.13-.08-.17-.25-.1-.38.9-1.53.59-2.33-.72-5.74-1.09-2.84-3.02-3.87-4.94-4.56-1.39-.49-3.14-.47-4.06.04-.36.2-.58.47-.66.79-.03.15-.18.24-.33.21-.15-.03-.24-.18-.21-.33.11-.48.43-.88.92-1.15,1.2-.67,3.18-.55,4.51-.08,2.04.73,4.09,1.83,5.26,4.88,1.36,3.52,1.72,4.46.68,6.22-.05.09-.14.13-.24.13Z"/>
                  <path class="cls-2" d="m48.42,165.64c-.02-.37-.29-.66-.58-.64-.3.01-.54.32-.53.69.02.37.29.66.58.64.3-.01.54-.32.53-.69Z"/>
                  <path class="cls-2" d="m42.93,165.84c-.02-.37-.25-.66-.58-.64-.3.01-.54.32-.53.69.02.37.25.66.58.64.33-.01.54-.32.53-.69Z"/>
                </g>
                <path class="cls-1" d="m50.72,179.38c-.1,0-.19-.05-.24-.14-.07-.13-.03-.3.11-.37,2.75-1.53,5.54-5.13,5.56-9.03.02-4.87-2.82-9.01-2.85-9.05-.04-.06-.06-.12-.05-.19.71-5.36.24-10.57.06-12.16l-6.53,5.31c-.12.1-.29.08-.39-.04-.1-.12-.08-.29.04-.39l6.92-5.62c.08-.06.18-.08.27-.04.09.04.16.12.17.22,0,.06.84,6.25.01,12.69.43.65,2.91,4.58,2.89,9.28-.02,4.11-2.95,7.9-5.84,9.51-.04.02-.09.03-.13.03Z"/>
                <path class="cls-15" d="m55.88,210.34s4.94,4.84,9.4,6.72c1.1-.13,3.23-2.57,2.93-4.13,0,0-3.52-4.74-7.99-8.31l-.06-2.17-1.11-16.53c.04-5.19-3.29-8.33-6.21-8.19l-6.5,1.82c-1.33-2.66-4.01-3.5-6.95-3.99l.26,4.8,17.94,15.64-.69,4.24-1.03,10.11Z"/>
                <path class="cls-1" d="m37.81,175.56s-.1-.01-.14-.04c-3.76-2.29-3.25-4.62-2.87-6.32.04-.19.08-.37.11-.54.29-1.56.69-6.72.74-7.36l-3.23-8.01c-.04-.09-.02-.2.04-.28.06-.08.16-.12.26-.1.19.03,4.66.83,6.5,2.17.12.09.15.26.06.38-.09.12-.26.15-.38.06-1.4-1.01-4.57-1.73-5.78-1.98l3.07,7.6s.02.08.02.12c-.02.24-.44,5.8-.76,7.48-.03.18-.07.36-.12.56-.36,1.62-.81,3.65,2.62,5.73.13.08.17.25.09.38-.05.08-.14.13-.23.13Z"/>
                <path class="cls-1" d="m38.63,156.46s-.08,0-.12-.03c-.14-.07-.19-.23-.13-.36.03-.07.85-1.71,4.39-2.47,3.5-.76,5.06,0,5.13.02.14.07.19.23.12.37-.07.14-.23.19-.37.12-.01,0-1.48-.69-4.77.02-3.24.7-4,2.16-4.01,2.17-.05.1-.15.15-.25.15Z"/>
                <path class="cls-1" d="m51.84,157.77c-.09,0-.18-.05-.23-.13-.01-.02-1.52-2.35-2.96-3.3-.07-.05-.12-.13-.12-.22,0-.09.04-.17.11-.23l3.03-2.25c.08-.06.19-.07.29-.03.09.05.15.14.15.25v5.64c0,.12-.08.23-.2.26-.03,0-.05.01-.08.01Zm-2.57-3.66c.91.7,1.77,1.79,2.3,2.51v-4.21l-2.3,1.71Z"/>
                <path class="cls-1" d="m36.75,159.46c-.11,0-.22-.07-.26-.18l-1.17-3.09c-.04-.1-.02-.21.05-.28.07-.08.18-.11.28-.08l2.68.78c.09.03.16.1.19.19.03.09,0,.19-.07.26-.01.01-1.09,1.16-1.44,2.22-.04.11-.14.19-.25.19h0Zm-.72-2.95l.74,1.95c.31-.58.72-1.12.99-1.45l-1.74-.5Z"/>
                <path class="cls-1" d="m36.44,248.09c-.12,0-.23-.08-.26-.19-.01-.05-1.45-4.72-2.75-7.93-.2-.49-.5-1.18-.85-1.98-2.13-4.86-6.09-13.9-5.49-19.51.66-6.2,3.21-13.78,3.44-14.46-.3-8.73-1.31-19.63-1.43-20.83-1.73-1.54-8.01-9.46-10.12-12.94-.25-.41-.52-.85-.79-1.29-2.19-3.55-4.91-7.97-4.09-10.54.68-2.12,7.89-16.29,8.19-16.89.03-.06.08-.11.14-.13,1.62-.63,4.7.51,5.5,2.04.03.06.04.13.02.2-.13.51-3.26,12.47-5.9,15.74-.1.12-.27.14-.39.04-.12-.1-.14-.27-.04-.39,2.44-3.02,5.45-14.21,5.77-15.43-.73-1.21-3.32-2.16-4.67-1.72-.65,1.28-7.48,14.72-8.11,16.71-.74,2.33,1.91,6.63,4.04,10.08.28.45.54.88.79,1.3,2.12,3.51,8.52,11.57,10.09,12.88.05.05.09.11.1.18.01.12,1.13,11.79,1.44,21.03,0,.03,0,.07-.02.1-.03.08-2.75,7.98-3.43,14.38-.58,5.46,3.49,14.76,5.45,19.23.37.84.66,1.5.86,1.99,1.3,3.23,2.75,7.93,2.76,7.98.04.14-.04.3-.18.34-.03,0-.05.01-.08.01Z"/>
                <path class="cls-1" d="m9.96,248.48c-6.33,0-9.83-4.57-9.88-4.64-.06-.08-.07-.2-.02-.29.05-.09.13-.15.25-.15.04,0,4.19.06,9.55-2.65,4.94-2.51,11.95-7.96,17.27-19.72.06-.14.22-.2.36-.14.14.06.2.22.14.36-5.39,11.92-12.52,17.46-17.56,20-4.35,2.2-7.86,2.61-9.2,2.68,1.43,1.61,7.11,6.87,16.46,2,9.13-4.76,10.79-19.55,10.81-19.7.02-.15.15-.26.3-.24.15.02.26.15.24.3-.02.15-1.71,15.24-11.1,20.13-2.87,1.5-5.42,2.05-7.63,2.05Z"/>
                <path class="cls-1" d="m27.28,264.74c-1.15,0-2.3-.67-3-1.53-.85-1.03-.99-2.2-.37-3.06.2-.45,2.88-6.32,6.87-11.13,2.2-2.65,3.63-3.25,4.43-3.28.6-.03.89.25.92.28.11.11.1.28,0,.39-.11.11-.28.1-.39,0,0,0-.17-.14-.55-.12-.57.04-1.84.5-3.99,3.08-4.09,4.92-6.78,10.97-6.81,11.03,0,.02-.02.04-.03.05-.49.66-.36,1.56.34,2.41.82.99,2.28,1.69,3.52,1.13.3-.22,3.3-2.39,8.11-4.51,4.81-2.13,10.44-6.39,11.44-10.72.62-2.72-2.23-14.16-3.76-20.31-.31-1.25-.7-2.68-1.17-4.25-.04-.15.04-.3.19-.34.14-.04.3.04.34.19.47,1.58.86,3.01,1.17,4.27,1.54,6.2,4.42,17.73,3.76,20.57-1.04,4.54-6.65,8.85-11.75,11.1-4.98,2.2-8,4.44-8.03,4.47-.01.01-.03.02-.05.03-.39.18-.79.27-1.2.27Zm1.08-.51h0,0Z"/>
                <path class="cls-1" d="m43.09,224.39c-.12,0-.23-.08-.26-.2-1.9-6.44-4.56-13.78-5.46-15.91-.18-.44-.54-1.07-.95-1.81-1.53-2.73-3.83-6.85-2.78-10.11.46-1.42,1.52-2.52,3.15-3.29,7.3-3.41,13.67,5.14,13.73,5.22.09.12.06.29-.06.38-.12.09-.29.06-.38-.06-.06-.08-6.16-8.27-13.06-5.05-1.49.7-2.46,1.69-2.86,2.96-.98,3.03,1.26,7.03,2.74,9.67.42.75.78,1.39.98,1.86.9,2.14,3.57,9.51,5.48,15.97.04.15-.04.3-.19.34-.03,0-.05.01-.08.01Z"/>
                <path class="cls-1" d="m49.15,282.96s-.02,0-.04,0c-2.51-.34-6.67-2.07-6.67-3.41,0-.03,0-.06.01-.08.02-.05,1.7-5.49,1.89-11.04.06-1.65-.02-3.28-.09-4.86-.14-3.02-.28-6.13.45-9.72.03-.15.17-.25.32-.21.15.03.24.18.21.32-.72,3.52-.58,6.6-.44,9.58.07,1.59.15,3.23.09,4.91-.18,5.35-1.73,10.58-1.9,11.14.1.75,3.36,2.38,5.96,2.8.46-1.49,3.07-10.05,4.31-15.71,1.28-5.82,1.26-13.21,1.25-15.63v-.47c0-.75.42-3.31.96-6.55.93-5.57,2.2-13.21,2.04-16.16-.12-2.22-.61-5.87-1.08-9.4-.52-3.93-.98-7.32-.84-8.16.02-.15.17-.25.32-.23.15.02.25.17.23.32-.12.76.34,4.28.84,8,.47,3.54.96,7.2,1.08,9.44.16,3.02-1.12,10.69-2.05,16.28-.51,3.09-.96,5.76-.96,6.46v.47c.01,2.7.04,9.87-1.26,15.75-1.36,6.2-4.36,15.88-4.39,15.98-.04.12-.14.19-.26.19Z"/>
                <path class="cls-1" d="m48.73,226.9s-.09-.01-.13-.03c-.13-.07-.18-.24-.11-.37.01-.03,1.39-2.61,1.39-5.86,0-.53.01-2.18.03-4.51.08-9.22.27-30.81-.03-32.91-.35-2.43-3.33-3.4-3.36-3.41-.14-.05-.22-.2-.18-.34.05-.14.2-.23.34-.18.14.04,3.35,1.09,3.74,3.86.31,2.14.12,22.98.04,32.99-.02,2.33-.03,3.98-.03,4.51,0,3.4-1.4,6.01-1.45,6.12-.05.09-.14.14-.24.14Z"/>
                <path class="cls-1" d="m34.93,172.24c-.09,0-.18-.05-.23-.13-2.4-3.87-12.45-13.32-12.55-13.42-.11-.1-.12-.28-.01-.39.1-.11.28-.12.39-.01.42.39,10.21,9.6,12.64,13.53.08.13.04.3-.09.38-.05.03-.09.04-.14.04Z"/>
                <path class="cls-1" d="m60.21,205.1s-.02,0-.03,0c-.15-.01-.26-.15-.25-.3.14-1.5-1.14-20.07-1.53-22.33-.59-3.36-5.76-4.52-5.81-4.53-.15-.03-.24-.18-.21-.33.03-.15.18-.24.33-.21.23.05,5.58,1.24,6.23,4.97.42,2.39,1.69,20.88,1.54,22.47-.01.14-.13.25-.27.25Z"/>
                <path class="cls-1" d="m44.27,228.65c-.13,0-.25-.09-.27-.23-.03-.15.07-.29.22-.32.05,0,5.41-1.04,9.23-5.79,2.18-2.71,2.17-7.6,2.16-11.53,0-1.71,0-3.33.17-4.55.11-.74.21-1.5.32-2.28.4-2.82.84-6.02,1.45-9.2.77-4.08-.91-6.9-2.47-8.9-.09-.12-.07-.29.05-.39.12-.09.29-.07.39.05,1.63,2.09,3.39,5.04,2.57,9.34-.6,3.17-1.05,6.36-1.44,9.18-.11.78-.22,1.54-.32,2.28-.17,1.18-.17,2.78-.16,4.47.01,4.02.02,9.02-2.28,11.88-3.96,4.92-9.33,5.95-9.56,5.99-.02,0-.03,0-.05,0Z"/>
                <path class="cls-1" d="m65.28,217.34s-.07,0-.11-.02c-4.46-1.88-9.29-6.58-9.49-6.78-.11-.11-.11-.28,0-.39.11-.11.28-.11.39,0,.05.05,4.9,4.78,9.25,6.64.48-.1,1.23-.72,1.81-1.51.6-.81.9-1.64.82-2.23-.41-.55-4.09-5.43-8.54-8.44-.13-.08-.16-.26-.07-.38.08-.13.25-.16.38-.07,4.78,3.23,8.67,8.57,8.71,8.62.02.03.04.07.05.11.14.75-.19,1.74-.91,2.71-.59.81-1.52,1.66-2.26,1.75-.01,0-.02,0-.03,0Z"/>
                <path class="cls-1" d="m69.44,219.93c-.08,0-.16-.03-.21-.1-.1-.12-.08-.29.04-.39.3-.24.33-.28.38-1.09,0-.15.14-.27.29-.26.15,0,.27.14.26.29-.05.91-.12,1.11-.58,1.48-.05.04-.11.06-.17.06Z"/>
                <path class="cls-1" d="m50.31,198.74c-.06,0-.13-.02-.18-.07-.11-.1-.13-.27-.03-.39.12-.14,2.96-3.34,5.56-3.39.83-.02,1.55.29,2.13.91.1.11.1.28-.01.39-.11.1-.28.1-.39-.01-.48-.51-1.05-.75-1.72-.74-2.36.04-5.12,3.17-5.15,3.2-.05.06-.13.09-.21.09Z"/>
                <path class="cls-1" d="m48.29,188.96c-.41,0-.7-.48-.7-1.14s.3-1.14.7-1.14.7.48.7,1.14-.3,1.14-.7,1.14Zm.02-.55h0,0Zm-.02-1.17c-.06.06-.16.26-.16.58s.1.52.16.58c.06-.06.16-.26.16-.58s-.1-.52-.16-.58Z"/>
                <path class="cls-1" d="m48.29,200.37c-.41,0-.7-.48-.7-1.14s.3-1.14.7-1.14.7.48.7,1.14-.3,1.14-.7,1.14Zm.02-.55h0,0Zm-.02-1.17c-.06.06-.16.26-.16.58s.1.52.16.58c.06-.06.16-.26.16-.58s-.1-.52-.16-.58Z"/>
                <path class="cls-1" d="m47.75,212.56c-.41,0-.7-.48-.7-1.14s.3-1.14.7-1.14.7.48.7,1.14-.3,1.14-.7,1.14Zm.02-.55h0,0Zm-.02-1.17c-.06.06-.16.26-.16.58s.1.52.16.58c.06-.06.16-.26.16-.58s-.1-.52-.16-.58Z"/>
                <path class="cls-1" d="m47.32,221.96c-.41,0-.7-.48-.7-1.14s.3-1.14.7-1.14.7.48.7,1.14-.3,1.14-.7,1.14Zm.02-.55h0,0Zm-.02-1.17c-.06.06-.16.26-.16.58s.1.52.16.58c.06-.06.16-.26.16-.58s-.1-.52-.16-.58Z"/>
                <path class="cls-15" d="m39.64,174.69l-1.02.38s-2.58-1.16-2.76-2.92c-.08-.85.06-5.03.56-8.16.55-3.35,1.5-5.67,2.38-6.98,1.72-2.51,3.53-3.31,6.19-2.33,2.67.99,5.02.54,7.25,4.97,2.23,4.43,3.78,11.57,2.79,12.98-.99,1.41-4.98,5.59-4.98,5.59l-.47-.66s3.28-3.16,3.68-6.74c.4-3.59-3.82-10.92-5.54-12.55-1.72-1.63-4.56-3.71-6.24-2.8-1.68.91-3.13,6.56-3.48,8.78-.35,2.21-1.63,7.08-1.04,8.42.59,1.33,2.65,2.03,2.65,2.03Z"/>
                <path class="cls-1" d="m46.6,179.82c-.08,0-.16-.04-.21-.1-.03-.04-2.99-3.63-5.07-4.17-2.27-.58-4.69-1.93-4.68-3.27h0c0-.91,1.29-9.86,1.73-11.11.06-.16.13-.39.21-.65.59-1.85,1.68-5.31,3.46-5.55,4.61-.63,8.86,6.95,10.05,9.29,1.5,2.94,1.92,6.25,1.08,8.43-.74,1.9-2.55,5.36-6.45,7.1-.04.02-.07.02-.11.02Zm-9.41-7.54c0,.87,1.99,2.15,4.26,2.74,2.01.52,4.6,3.45,5.22,4.19,3.59-1.69,5.28-4.92,5.98-6.71.79-2.04.38-5.18-1.05-7.98-.82-1.61-5.13-9.59-9.49-9-1.43.2-2.54,3.68-3.01,5.17-.08.27-.16.49-.22.66-.41,1.17-1.69,10.08-1.7,10.93h0Z"/>
              </g>
              <path class="cls-1" d="m26.14,134.89c-.07,0-.15-.03-.2-.09-.18-.2-.79-.51-1.2-.5-.1,0-.17.02-.2.05-.1.11-.27.12-.39.02-.11-.1-.12-.27-.02-.39.09-.11.28-.23.6-.24.57,0,1.31.35,1.61.67.1.11.1.28-.02.39-.05.05-.12.07-.19.07Z"/>
            </g>
            <path class="cls-1" d="m12.82,164.18c-.1,0-.2-.06-.25-.15-2.71-5.6-.02-10.2.01-10.24.08-.13.25-.17.38-.09.13.08.17.25.09.38-.03.04-2.57,4.39.01,9.72.07.14,0,.3-.13.37-.04.02-.08.03-.12.03Z"/>
            <path class="cls-1" d="m10.35,163.08c-.1,0-.19-.05-.24-.15-1.9-3.62-.08-7.43,0-7.59.07-.14.23-.19.37-.13.14.07.19.23.13.37-.02.04-1.77,3.73,0,7.1.07.13.02.3-.12.37-.04.02-.08.03-.13.03Z"/>
            <path class="cls-1" d="m18.21,268.81c-.09,0-.18-.05-.23-.13-2.74-4.33-.02-8.41,0-8.45.09-.12.26-.16.38-.07.12.08.16.26.07.38-.1.15-2.54,3.83,0,7.85.08.13.04.3-.09.38-.05.03-.1.04-.15.04Z"/>
            <path class="cls-1" d="m15.84,267.56c-.11,0-.21-.06-.25-.16-1.53-3.42-.05-5.8.02-5.9.08-.13.25-.16.38-.08.13.08.16.25.08.38-.06.09-1.38,2.25.02,5.38.06.14,0,.3-.14.36-.04.02-.07.02-.11.02Z"/>
          </g>
          <g>
            <g>
              <path class="cls-11" d="m98.23,197.57c-.15,1.22-1.19,2.58-2.04,3.26-.86.68-1.36,1.07-2.61,1.57-1.24.5-2.31.71-2.81,1.07s-.41.89.06.83l.89.18s.7.16.94-.09c-.15.41.12.59.59.65.47.06,1.19.03,1.66,0,.65-.03,1.22-.41,1.75-.71.8-.47,1.72-.59,2.52-.65.8-.06,3.02.27,3.56-.59.53-.89-.36-4.18-.56-6.61l-3.94,1.1Z"/>
              <path class="cls-1" d="m93.94,205.34c-.29,0-.53-.01-.73-.04-.4-.05-.65-.18-.78-.39-.11-.18-.12-.39-.03-.63.12-.33.42-.43.65-.52.2-.07.4-.14.54-.33.09-.12.26-.14.38-.05.12.09.14.26.05.38-.24.32-.56.43-.8.51-.21.07-.29.11-.32.18-.03.07-.03.13-.02.16,0,0,.07.09.39.13.35.04.9.04,1.61,0,.49-.02.95-.28,1.39-.54.08-.05.16-.09.25-.14.83-.49,1.8-.62,2.63-.69.2-.01.47,0,.78,0,.84.02,2.24.06,2.56-.46.3-.49.02-2.22-.23-3.74-.15-.91-.3-1.86-.37-2.7-.01-.15.1-.28.25-.3.15-.02.28.1.3.25.07.83.22,1.76.37,2.66.3,1.85.56,3.44.16,4.11-.49.8-1.97.76-3.05.73-.3,0-.55-.01-.73,0-.81.06-1.66.18-2.4.61-.09.05-.16.09-.24.14-.47.27-1.01.58-1.63.61-.37.02-.69.03-.98.03Z"/>
              <path class="cls-1" d="m92.63,205.01c-.52,0-.88-.05-1.07-.3-.12-.15-.14-.35-.08-.58.16-.56.86-.74.94-.76.15-.04.3.06.33.2.04.15-.06.3-.2.33-.15.04-.49.18-.54.37-.02.08-.01.11-.01.11.02.01.11.08.64.08.15,0,.27.12.27.27s-.12.27-.27.27Z"/>
              <path class="cls-1" d="m91.48,204.91c-.59,0-.78-.25-.84-.42-.08-.21-.07-.65.8-1.23.13-.08.3-.05.38.08.08.13.05.3-.08.38-.49.33-.59.55-.58.59.02.01.17.08.55.04.15-.02.29.09.3.24.02.15-.09.29-.24.3-.11.01-.2.02-.29.02Z"/>
              <path class="cls-1" d="m90.75,204.57c-.26,0-.47-.13-.56-.36-.12-.32.04-.71.42-.97.33-.23.82-.39,1.45-.59.43-.14.91-.3,1.42-.5,1.19-.48,1.67-.84,2.54-1.53.84-.67,1.81-1.97,1.94-3.08.02-.15.15-.25.31-.24.15.02.26.16.24.31-.15,1.26-1.2,2.69-2.15,3.44-.89.71-1.42,1.1-2.68,1.61-.53.21-1.02.38-1.46.52-.56.18-1.04.34-1.3.52-.21.15-.23.3-.22.33,0,0,.03.01.09,0,.15-.02.29.09.31.24.02.15-.09.29-.24.31-.04,0-.07,0-.1,0Z"/>
              <path class="cls-1" d="m101.22,199.97s-.09-.01-.13-.03c-.13-.07-.18-.24-.11-.37.34-.64.25-.92.09-1.43-.04-.11-.07-.23-.11-.35-.22-.77-.22-1.58-.22-1.61,0-.15.12-.27.27-.27h0c.15,0,.27.12.27.27,0,0,0,.77.2,1.47.03.12.07.23.1.33.17.54.33,1.01-.12,1.85-.05.09-.14.15-.24.15Z"/>
              <path class="cls-11" d="m110.44,212.72c-1.36.34-1.9-.14-1.73-.78.17-.68.75-.75,1.26-1.39.51-.65.75-2.48,1.02-4.52.27-2.04-.17-4.55-.82-7.75l4.08-1.12c.34,3.47.68,4.72.92,5.95.24,1.22.07,2.48.34,4.01.27,1.53.2,2.45.41,3.13.2.68.48,1.56.27,1.97-.24.37-.51.54-1.02.54-.37,0-.48-.27-.34-.71.03-.17.24-.37.17-.82l-.55,1.51-4.01-.02Z"/>
              <path class="cls-1" d="m115.17,213.03c-.3,0-.47-.13-.55-.24-.14-.19-.16-.47-.05-.82,0-.05.04-.12.07-.19.06-.13.12-.27.09-.5-.02-.15.08-.29.23-.31.15-.02.29.08.31.23.06.4-.05.65-.13.81-.02.04-.04.08-.04.1-.07.24-.05.34-.04.36,0,0,.04.02.11.02.39,0,.59-.11.79-.42.14-.28-.13-1.17-.29-1.7v-.04c-.12-.37-.16-.78-.2-1.31-.04-.49-.09-1.1-.23-1.85-.14-.81-.17-1.52-.19-2.22-.02-.63-.04-1.22-.15-1.79-.04-.21-.08-.42-.13-.64-.23-1.09-.51-2.45-.79-5.33-.01-.15.1-.29.25-.3.15-.02.29.1.3.25.28,2.86.56,4.2.78,5.28.05.22.09.43.13.65.12.62.14,1.23.16,1.88.02.67.04,1.37.18,2.14.14.77.19,1.4.23,1.9.04.49.07.88.17,1.2v.04c.24.77.5,1.64.25,2.13-.31.5-.69.7-1.26.7Z"/>
              <path class="cls-1" d="m113.89,213.16c-.18,0-.34-.04-.48-.13-.25-.16-.37-.45-.32-.8.02-.12.07-.23.14-.37.1-.2.23-.46.26-.78.02-.15.15-.26.3-.24.15.02.26.15.24.3-.05.42-.21.74-.32.96-.04.07-.09.17-.09.21-.03.18.04.23.07.25.14.09.46.05.8-.18.12-.09.3-.05.38.07.09.12.05.3-.07.38-.3.21-.63.32-.92.32Z"/>
              <path class="cls-1" d="m112.51,213.25c-.17,0-.33-.04-.47-.11-.24-.12-.39-.33-.41-.57-.02-.25.1-.48.23-.72.14-.25.29-.53.31-.89,0-.15.14-.27.29-.26.15,0,.27.14.26.29-.02.48-.22.84-.38,1.12-.09.16-.18.32-.17.4,0,.05.04.1.11.13.16.08.47.08.87-.17.13-.08.3-.04.38.09.08.13.04.3-.09.38-.32.2-.64.3-.93.3Z"/>
              <path class="cls-1" d="m111.05,213.18c-.31,0-.62-.1-.82-.46-.15-.31,0-.58.16-.85.14-.24.32-.55.38-.99.02-.15.16-.26.31-.23.15.02.25.16.23.31-.08.54-.29.92-.45,1.19-.06.11-.16.27-.15.32.05.1.17.31.92.04.14-.05.3.02.35.16.05.14-.02.3-.16.35-.15.06-.46.17-.78.17Z"/>
              <path class="cls-1" d="m109.63,213.11c-.52,0-.82-.16-.98-.33-.23-.23-.3-.55-.21-.91.12-.49.43-.73.73-.96.19-.15.39-.3.57-.53.46-.58.7-2.38.95-4.29v-.09c.28-2.03-.17-4.56-.8-7.66-.03-.15.07-.29.21-.32.15-.03.29.07.32.21.64,3.15,1.1,5.72.82,7.84v.09c-.29,2.07-.53,3.86-1.08,4.56-.23.29-.46.47-.67.63-.28.21-.46.35-.54.66-.04.17-.02.3.07.38.07.07.39.3,1.33.06.15-.04.3.05.33.2.04.15-.05.3-.2.33-.35.09-.63.12-.88.12Z"/>
              <path class="cls-3" d="m112.76,153.35s2.69-2.94,3.94.44c1.31,3.51-1.77,5.07-3.27,4.32l-.67-4.76Z"/>
              <path class="cls-13" d="m74.3,147.21c.12.89.72,2,1.17,3.47.57,1.67,1.5,4.57,2.96,5.41,1.46.85,2.68-.75,3.74-2.11,1.05-1.36,3.54-6.81,3.78-8.95l-6.52,2.56-1.28-2.31-3.85,1.92Z"/>
              <path class="cls-1" d="m74.83,146.53l.31.7s-.95.36-1.06,0c-.11-.34.75-.7.75-.7Z"/>
              <path class="cls-1" d="m78.03,145.81l-.64-.41s.59-.82.89-.59c.28.22-.25,1-.25,1Z"/>
              <path class="cls-11" d="m108.03,128.97c-.45-1.04-.54-1.71-1.03-2.76-.46-1.01-1.01-2.11-.34-2.18.67-.06,1.34,1.14,1.67,1.73.34.61.55,1.64.79,2.19l-1.09,1.02Z"/>
              <path class="cls-11" d="m114.03,135.92c-.85-.63-.39-3.44-.58-4.09-.54-1.77-1.48-3.27-1.79-3.47-.49-.29-.94-.41-1.23,0l-.83-.74-1.54,1.57c-.34-.49-3.17-3.75-3.84-3.22-.53.42-.02,1,.63,1.9.69.94.76.92,1.41,1.86.66.96,1.27,2.16,2.51,3.6l2.54,3.57c.88.18,1.79-.24,2.71-1Z"/>
              <path class="cls-1" d="m108.77,133.62c-.08,0-.15-.03-.21-.09-.88-1.02-1.44-1.91-1.93-2.69-.21-.33-.4-.64-.6-.93-.35-.51-.53-.73-.74-.99-.17-.21-.36-.44-.67-.87l-.18-.25c-.56-.76-1.09-1.49-.4-2.03.09-.07.24-.14.47-.11,1.15.17,3.6,3.15,3.77,3.39.09.12.06.3-.07.38-.12.09-.3.06-.38-.07-.6-.85-2.98-3.32-3.45-3.16-.23.18-.1.44.51,1.27l.18.25c.3.41.49.65.65.85.21.26.4.49.76,1.02.21.3.4.61.62.95.48.77,1.02,1.64,1.88,2.62.1.11.09.29-.03.39-.05.05-.12.07-.18.07Z"/>
              <path class="cls-1" d="m108.03,129.24c-.11,0-.21-.06-.25-.17-.22-.5-.35-.92-.48-1.32-.15-.46-.29-.89-.54-1.44l-.06-.14c-.42-.91-.78-1.69-.53-2.14.07-.12.2-.26.48-.29.86-.08,1.55,1.19,1.93,1.87.21.39.38.92.52,1.39.1.32.19.61.28.82.06.14,0,.3-.14.36-.14.06-.3,0-.36-.14-.1-.24-.2-.55-.3-.88-.14-.44-.29-.95-.48-1.28-.25-.45-.92-1.64-1.4-1.59-.04,0-.05.01-.05.01-.13.18.33,1.16.55,1.64l.06.14c.27.57.42,1.04.57,1.5.13.39.26.8.47,1.27.06.14,0,.3-.14.36-.04.02-.07.02-.11.02Z"/>
              <path class="cls-1" d="m110.38,131.7c-.49,0-1.05-.45-1.27-1.4-.03-.15.06-.3.21-.33.15-.03.29.06.33.21.17.73.57,1.01.78.97.14-.03.2-.21.16-.47-.11-.82-.4-2.19-.6-2.49-.01-.02-.02-.03-.03-.05-.07-.17-.15-.2-.18-.21-.13-.05-.33.03-.38.07-.13.07-.3.03-.37-.1-.08-.13-.03-.3.1-.37.04-.03.44-.25.84-.11.16.05.37.18.5.5.32.53.61,2.28.67,2.69.1.65-.22,1.01-.59,1.08-.05,0-.1.01-.15.01Z"/>
              <path class="cls-1" d="m111.12,131.75c-.11,0-.23-.03-.35-.08-.14-.06-.2-.22-.14-.36.06-.14.22-.2.36-.14.14.06.19.02.21,0,.16-.12.39-.73.19-2.22-.02-.15.09-.29.24-.31.15-.02.29.09.31.24.13,1,.16,2.29-.41,2.72-.12.09-.26.14-.41.14Z"/>
              <path class="cls-1" d="m114.03,136.2c-.07,0-.14-.03-.2-.08-.18-.19-.25-.71-.42-2.42-.07-.75-.15-1.52-.22-1.78-.54-1.79-1.47-3.18-1.68-3.31-.64-.38-.78-.17-.85-.07-.09.12-.26.16-.38.07-.12-.09-.16-.26-.07-.38.33-.49.87-.52,1.59-.09.41.26,1.37,1.84,1.91,3.62.09.31.16,1.04.24,1.88.07.76.18,1.9.29,2.11.09.11.08.27-.02.37-.05.05-.12.08-.19.08Zm.2-.46h0,0Z"/>
              <path class="cls-11" d="m111.06,136.66c-.79-1.31-2.6-2.73-2.49-4.57,0-.45.17-1.32.07-2.22-.09-.87-.39-1.77.12-1.78.54,0,1.08.78,1.17,1.45.11.67-.05,1.53.48,2.17.36.46.88,1.26,1.07,2.47l-.41,2.48Z"/>
              <path class="cls-1" d="m111.06,136.94c-.09,0-.18-.05-.23-.13-.22-.36-.53-.75-.86-1.15-.83-1.02-1.76-2.17-1.68-3.58,0-.14.02-.32.04-.54.04-.46.1-1.04.03-1.63-.02-.2-.05-.4-.08-.59-.09-.58-.16-1.04.06-1.31.07-.08.19-.18.4-.18.7.01,1.34.9,1.44,1.69.03.2.05.43.06.65.02.49.05,1,.36,1.38.6.76.98,1.63,1.13,2.6.02.15-.08.29-.23.31-.15.02-.29-.08-.31-.23-.14-.88-.48-1.66-1.02-2.34-.43-.51-.46-1.14-.48-1.7,0-.21-.02-.41-.05-.59-.08-.6-.54-1.22-.9-1.23-.05.09.03.55.07.86.03.2.06.41.09.62.07.65.01,1.28-.03,1.75-.02.2-.04.38-.04.5-.07,1.21.75,2.23,1.55,3.21.34.42.66.81.9,1.21.08.13.04.3-.09.38-.04.03-.09.04-.14.04Z"/>
              <path class="cls-13" d="m101.22,140s7.18,2.99,9.86,4.03c2.62,1.02,5.34.25,5.57-1.41.44-3.16-1.98-6.96-2.19-7.45-.28.72-3.46,1.56-4.4.76,0,0,.68,1.01.44,1.07-.71.16-3.18-.59-4.97-1.36l-4.32,4.36Z"/>
              <path class="cls-13" d="m107.56,142.61s3.96,4.61,5.52,12.12c1.57,7.52-2.44,24.36-2.51,24.68-.06.31,2.82,3.63,3.95,7.52.66,2.27,1.06,13.16.88,15.59.05.82-4.01,1.13-4.89.08,0,0-1.3-5.78-2.19-8.24-1.08-2.99-4.82-11.32-4.89-11.95-.06-.63-2.47-8.89-2.89-15.4-.31-4.82-.04-6.65-.04-6.65l.52,10.71-1.97,8.08s1.04,2.47,2.43,5.73c1.21,2.82,1.41,11.58,1.41,11.58.03,1.25-4.99,1.95-5.14,1.21,0,0-2.44-10.19-4.43-18.23-1.64-6.62-.87-17.26-.71-19.73.14-2.07.8-5.82-.14-6.95-.94-1.13-7.19-8.74-7.19-8.74l21.1-8.39,1.17,6.98Z"/>
              <path class="cls-13" d="m110.87,137.17s-5.03-2.49-7.4-3.9c-2.82-1.68-7.56-1.79-7.56-1.79l-11.18,4.78s-2.04.94-3.07,2.13c-1.03,1.19-2.26,9.45-2.26,9.45l3.37,5.21,3.07-7.4,25.03-8.48Z"/>
              <path class="cls-3" d="m98.91,159.94s9.86-1.64,10.35-5.95c.42-3.67-7.45-11.96-11.4-13.74-2.76-1.25-4.87-2.59-6.54-2.91-.72-.14-1.62.16-2.02.33-1.55.68-.11,5.08.89,7.94,1.01,2.91,2.97,5.62,3,7.01.02,1-.15,2.38-.27,3.73-.12,1.35,3.41,3.48,5.99,3.61h0Z"/>
              <path class="cls-13" d="m93,135.71s2.77-1.88,3.34-6.07c.59-4.43-1.98-9.69-6.58-12.39-4.81-2.82-9.12-.45-10.87,2.39-.57.92-2.28,4.33-.73,9.33,1.55,5,6.27,8.01,10.24,8.2l4.6-1.46Z"/>
              <path class="cls-13" d="m88.72,116.59c-.94-2.16.94-5.64,4.7-3.2,2.1,1.36,2.5,4.92-.88,6.05l-3.83-2.84Z"/>
              <path class="cls-13" d="m77.99,121.57c-1.32-1.93-4.02-1.57-4.35,1.23-.26,2.19.98,4.74,4.03,3.97l.32-5.19Z"/>
              <path class="cls-3" d="m89.75,117.25s.03-1.53,1.22-1.97c1.19-.44,2.09.83,2.02,1.63-.12,1.57-1.5,1.57-1.5,1.57l-1.75-1.22Z"/>
              <path class="cls-3" d="m77.52,123.09s-1.26-1.27-2.09-.73c-.66.43-.39,2.15.34,2.48.9.41,1.76-.37,1.76-.37v-1.39Z"/>
              <path class="cls-11" d="m71.74,140c-.5-.03-.69.39-.76.96-.03.37.56,2.03,1.62,3.55.39.55,1.76,1.73,2.29,2.56,1.55.15,2.48-.41,2.98-1.46l-1.26-4.15-2.48-3.06c-1.52.04-2.93.15-2.39,1.61Z"/>
              <path class="cls-11" d="m76.67,141.76c-.36-1.87-.94-3.09-1.28-4.2-.34-1.09-.42-1.67-.74-2.79-.3-1.07-.59-1.94-1.24-1.78-.83.2.28,5.09.45,5.66l2.81,3.11Z"/>
              <path class="cls-11" d="m74.3,138.7c-.85-.75-2.04-1.4-2.9-2.19-.82-.75-1.7-1.61-1.97-.99-.27.62.68,1.62,1.14,2.11.48.51,1.61,1.32,2.06,1.71l1.67-.64Z"/>
              <path class="cls-9" d="m85.93,118.23c.34,0,3.19.31,4.51,1.7,1.87,1.96,2.31,5.16,2.31,5.16l-5.18,4.37-6.85,1.09s-2.35-2.72-2.31-5.57c.02-2.24,2.27-4.65,3.37-5.36,1.75-1.11,3.71-1.38,4.15-1.39Z"/>
              <path class="cls-4" d="m80.64,130.61s.39-.29.95-.64c.56-.32,1.31-1.58,1.31-1.58,0,0,1.25-.29,1.61-1.16.36-.87-.15-2.2-.15-2.2,0,0,.9.94,1.55,1.07.78.17,1.62-.38,1.62-.38,0,0,.48.24,1.09.11.62-.12,1.15-.43,1.15-.43,0,0,.89.24,1.35.19.49-.07.62-.12,1.02-.3.37-.16.96-.01.96-.01,0,0,1,.75.85,1.75-.19,1.01-.98,1.58-.98,1.58,0,0,.14.98.13,1.99-.03,1.02-.66,2.22-.66,2.22l.35,1.08c-1.36,2.45-3.11,3.67-5.38,3.28l-.97-1.75s-1.07-.31-1.78-1c-.71-.69-1.48-1.5-1.48-1.5,0,0-.97.58-2.04-.4-.94-.96-.5-1.9-.5-1.9Z"/>
              <path class="cls-1" d="m88.46,135.87c-.41,0-.89-.03-1.44-.12-1.43-.22-2.14-.84-2.52-1.17-.64-.51-1.25-1.27-1.8-2.02-.09-.12-.07-.29.06-.38.12-.09.29-.07.38.06.54.72,1.12,1.45,1.72,1.92.37.32.98.85,2.26,1.05,1.85.31,2.89-.09,2.9-.1.14-.05.3.01.36.15.06.14-.01.3-.15.36-.03.01-.64.25-1.75.25Z"/>
              <path class="cls-8" d="m88.4,131.76c-.88.39-1.84.61-1.84.61,0,0,1.17,1.55,2.59,1.01,1.35-.51,1.01-2.59,1.01-2.59,0,0-.88.59-1.76.98Z"/>
              <path class="cls-1" d="m90.13,135.62c-.11,0-.21-.06-.25-.16-.06-.14,0-.3.14-.36.02,0,.86-.41,1.89-1.94.69-1.03.82-1.96.89-2.46.14-1.14-.24-2.59-.24-2.6-.04-.15.05-.3.19-.34.15-.04.3.05.34.19.02.06.41,1.56.26,2.78,0,0,0,.03,0,.03-.07.54-.21,1.55-.97,2.69-1.13,1.69-2.08,2.12-2.12,2.14-.04.02-.07.02-.11.02Z"/>
              <path class="cls-1" d="m87.52,137.24c-.09,0-.18-.04-.23-.12l-1.04-1.56c-.08-.13-.05-.3.08-.38.13-.08.3-.05.38.08l1.04,1.56c.08.13.05.3-.08.38-.05.03-.1.05-.15.05Z"/>
              <path class="cls-1" d="m88.16,131.06s-.06,0-.09-.02c-.14-.05-.22-.21-.16-.35.14-.37.09-.47.09-.47-.02-.03-.16-.07-.24-.09-.22-.06-.51-.13-.73-.41-.31-.4-.52-1.34-.54-1.84,0-.15.11-.28.26-.29.16-.01.28.11.29.26.02.47.22,1.27.43,1.53.1.13.26.17.43.22.2.05.46.12.58.36.11.21.09.5-.06.92-.04.11-.15.18-.26.18Z"/>
              <path class="cls-1" d="m82.7,127.55s-.1-.01-.14-.04c-.13-.08-.17-.24-.1-.37.02-.04.54-.89,1.72-.9h0c.15,0,.27.12.27.27,0,.15-.12.28-.27.28-.86,0-1.24.61-1.25.63-.05.08-.14.13-.24.13Z"/>
              <path class="cls-1" d="m87.33,125.4c-.06,0-.13-.02-.18-.07-.11-.1-.13-.27-.03-.39.79-.9,1.77-.71,1.82-.7.15.03.24.18.21.32-.03.15-.18.24-.32.21-.03,0-.72-.13-1.29.52-.05.06-.13.09-.21.09Z"/>
              <path class="cls-2" d="m86.46,135.13s2,.64,3.67-.02c1.26-.52,2.4-2.74,2.4-2.74,0,0-.86,2.95-2.4,3.92-1.34.85-3.01.18-3.01.18l-.67-1.34Z"/>
              <path class="cls-1" d="m92.78,134.16c-.12,0-.23-.08-.26-.19l-.31-.99c-.04-.14.04-.3.18-.34.14-.05.3.04.34.18l.31.99c.04.14-.04.3-.18.34-.03,0-.05.01-.08.01Z"/>
              <path class="cls-1" d="m93.01,128.81c-.08,0-.16-.04-.22-.11-.09-.12-.07-.29.05-.38.66-.51.91-1.1.79-1.85-.07-.47-.3-.83-.62-.99-.25-.12-.53-.1-.81.06-.13.08-.3.03-.37-.1s-.03-.3.1-.37c.44-.25.91-.28,1.32-.08.48.23.83.76.92,1.4.15.95-.18,1.73-1,2.36-.05.04-.11.06-.17.06Z"/>
              <path class="cls-1" d="m92.72,127.23s0,0-.01,0c-.15,0-.27-.14-.26-.29,0-.04.02-.39.24-.71.09-.12.26-.16.38-.07.13.09.16.26.07.38-.13.19-.15.43-.15.43,0,.15-.13.26-.27.26Z"/>
              <path class="cls-1" d="m82.61,133.29c-.76,0-1.37-.3-1.85-.91-.4-.54-.54-1.16-.37-1.68.15-.44.5-.77,1.01-.91.14-.04.3.04.34.19.04.15-.04.3-.19.34-.33.1-.55.29-.64.56-.11.34,0,.78.28,1.17.47.59,1.07.8,1.89.65.15-.03.29.07.32.22.03.15-.07.29-.22.32-.2.03-.39.05-.57.05Z"/>
              <path class="cls-1" d="m82.18,131.95c-.06,0-.12-.02-.17-.06,0,0-.18-.15-.42-.18-.15-.02-.25-.16-.23-.31.02-.15.16-.26.31-.23.38.06.66.28.69.3.12.1.13.27.04.39-.05.07-.13.1-.21.1Z"/>
              <path class="cls-13" d="m91.23,121.13c.64.87,1.29,2.26,1.5,3.91l-1.5-3.91Z"/>
              <path class="cls-1" d="m91.47,120.84c-.52,0-1.03-.47-1.37-.78l-.12-.11c-1.47-1.25-2.97-1.63-5.04-1.26-.85.15-1.45.37-1.93.54-.72.26-1.24.45-1.94.14-.14-.06-.2-.22-.14-.36.06-.14.22-.2.36-.14.5.22.87.09,1.53-.16.5-.18,1.12-.41,2.02-.57,2.25-.4,3.89,0,5.5,1.38l.13.12c.26.24.71.66,1.01.64.15-.01.28.11.29.26,0,.15-.11.28-.26.29-.01,0-.03,0-.04,0Z"/>
              <path class="cls-1" d="m80.68,130.82c-.07,0-.15-.03-.2-.09-.02-.02-.46-.51-1.03-1.46-.08-.13-.04-.3.09-.38.13-.08.3-.04.38.09.54.9.96,1.37.97,1.38.1.11.09.29-.02.39-.05.05-.12.07-.18.07Z"/>
              <path class="cls-1" d="m79.08,129.22c-.07,0-.14-.03-.19-.08-.11-.11-.11-.28,0-.39.13-.14-.06-.67-.18-.98-.35-.89-.53-1.74-.55-2.56-.1-2.05.99-4.04,2.99-5.44.12-.09.3-.06.38.07.09.12.06.29-.07.38-1.84,1.3-2.85,3.11-2.76,4.97.02.75.19,1.55.5,2.36.21.57.44,1.2.06,1.58-.05.05-.12.08-.2.08Z"/>
              <path class="cls-1" d="m86.31,126.44c-.2,0-.4-.03-.6-.09-1.18-.36-2.07-1.64-2.5-2.73-.06-.14.01-.3.15-.36.14-.06.3.01.36.15.48,1.21,1.33,2.16,2.15,2.4.47.14.94.06,1.39-.25.12-.09.3-.06.38.07.09.12.06.3-.07.38-.4.28-.82.42-1.26.42Z"/>
              <path class="cls-1" d="m88.22,126.16c-.91,0-1.73-.63-2.5-1.92-.08-.13-.04-.3.09-.38.13-.08.3-.04.38.09,1.14,1.89,2.06,1.81,2.81,1.48.14-.06.3,0,.36.14.06.14,0,.3-.14.36-.35.15-.68.23-1,.23Z"/>
              <path class="cls-1" d="m90.63,125.84c-.38,0-.75-.13-1.06-.37-.12-.09-.14-.27-.05-.39.09-.12.27-.14.39-.05.4.32.95.34,1.38.05.13-.08.3-.05.38.08.08.13.05.3-.08.38-.3.2-.63.29-.96.29Z"/>
              <path class="cls-1" d="m82.02,129.64c-.09,0-.17-.04-.23-.12-.09-.13-.05-.3.07-.38.91-.61,1.09-1.86.97-2.75-.02-.15.09-.29.24-.31.15-.02.29.09.31.24.14,1.04-.09,2.52-1.21,3.28-.05.03-.1.05-.15.05Z"/>
              <path class="cls-1" d="m83.8,128.18c-.11,0-.21-.07-.26-.18-.05-.14.02-.3.16-.35.26-.1.44-.26.54-.49.14-.33.2-.98-.31-2.26-.06-.14.01-.3.15-.36.14-.06.3.01.36.15.48,1.18.58,2.06.31,2.68-.16.37-.44.63-.84.78-.03.01-.07.02-.1.02Z"/>
              <path class="cls-1" d="m88.52,133.77c-1.24,0-2.14-1.17-2.18-1.23-.06-.07-.07-.17-.04-.26.03-.09.11-.15.2-.17,0,0,.94-.22,1.79-.59.85-.37,1.71-.95,1.71-.95.08-.05.18-.06.26-.02.09.04.15.11.16.21.02.09.37,2.3-1.18,2.89-.25.1-.49.14-.72.14Zm-1.45-1.25c.4.38,1.15.92,1.98.6.78-.3.88-1.28.87-1.86-.34.21-.87.51-1.41.75-.52.23-1.07.4-1.44.51Z"/>
              <path class="cls-1" d="m84.19,130.26s0,0-.01,0c-.15,0-.27-.13-.26-.29.01-.29.16-.57.41-.77.28-.22.65-.31,1-.23.15.03.24.18.21.32-.03.15-.18.24-.32.21-.19-.04-.4,0-.56.13-.12.1-.2.23-.2.36,0,.15-.13.26-.27.26Z"/>
              <path class="cls-1" d="m88.64,128.16s-.01,0-.02,0c-.15-.01-.26-.14-.25-.3.02-.29.18-.57.44-.75.29-.21.66-.28,1.01-.2.15.04.24.18.2.33-.04.15-.18.24-.33.2-.19-.05-.4,0-.56.11-.13.09-.2.22-.21.35-.01.14-.13.25-.27.25Z"/>
              <path class="cls-1" d="m81.53,151.96c-.1,0-.19-.05-.24-.14-.1-.19-2.55-4.68-3.39-6.67-.06-.14,0-.3.15-.36.14-.06.3,0,.36.15.83,1.96,3.34,6.57,3.37,6.62.07.13.02.3-.11.37-.04.02-.09.03-.13.03Z"/>
              <path class="cls-1" d="m76.67,142.03c-.13,0-.24-.09-.27-.22-.25-1.28-.6-2.25-.9-3.1-.14-.37-.26-.73-.37-1.07-.19-.62-.3-1.08-.42-1.56-.09-.37-.18-.75-.32-1.23-.32-1.13-.55-1.68-.92-1.59-.39.37.32,4.25.65,5.31.04.14-.04.3-.18.34-.14.04-.3-.04-.34-.18-.01-.04-1.19-4.68-.59-5.73.1-.18.24-.25.34-.27.94-.23,1.28.94,1.57,1.98.14.49.23.88.32,1.25.12.48.23.92.41,1.53.1.33.23.68.36,1.05.31.87.67,1.86.93,3.18.03.15-.07.29-.22.32-.02,0-.03,0-.05,0Z"/>
              <path class="cls-1" d="m72.41,139.33c-.06,0-.13-.02-.18-.07-.17-.15-.43-.33-.7-.52-.4-.28-.86-.6-1.16-.92-.53-.57-1.53-1.62-1.19-2.41.11-.25.29-.34.42-.37.5-.11,1.14.48,1.88,1.16l.11.1c.44.41.81.67,1.2.96.34.25.7.5,1.11.86.11.1.13.27.03.39-.1.11-.27.12-.39.02-.39-.34-.74-.59-1.07-.83-.39-.28-.79-.57-1.25-1l-.11-.1c-.38-.35-1.18-1.09-1.39-1.02,0,0-.01.01-.03.05-.2.46.74,1.45,1.09,1.82.26.28.7.58,1.08.85.28.2.55.38.75.56.11.1.12.27.02.39-.05.06-.13.09-.21.09Z"/>
              <path class="cls-1" d="m73.8,142.29c-.23,0-.5-.11-.75-.38-.29-.3-1.52-1.64-1.71-2.21-.18-.56.14-.92.33-1.03.13-.08.3-.03.38.09.08.13.04.29-.09.37-.04.03-.17.14-.09.39.11.34,1.02,1.42,1.59,2,.18.2.36.26.47.17.17-.14.19-.63-.28-1.21-.09-.12-.08-.29.04-.39.12-.09.29-.08.39.04.67.83.61,1.62.21,1.97-.13.11-.29.18-.47.18Z"/>
              <path class="cls-1" d="m73.39,142.89c-.67,0-1.54-.73-2.19-1.39-.11-.11-.1-.28,0-.39.11-.11.28-.1.39,0,1.05,1.07,1.67,1.27,1.86,1.22.03,0,.09-.02.13-.17.04-.15.19-.23.34-.19.15.04.23.19.2.34-.08.29-.26.49-.52.56-.07.02-.14.03-.21.03Z"/>
              <path class="cls-1" d="m79.26,156.61c-.31,0-.63-.08-.96-.28-1.5-.87-2.41-3.59-3.02-5.39l-.06-.18c-.19-.64-.41-1.21-.61-1.71-.27-.69-.5-1.28-.57-1.82-.02-.15.09-.29.24-.31.15-.02.29.09.31.24.06.47.28,1.04.54,1.69.2.51.43,1.09.62,1.74l.06.17c.55,1.62,1.46,4.32,2.78,5.09,1.15.67,2.12-.42,3.37-2.03,1.05-1.35,3.51-6.78,3.74-8.83.02-.15.15-.26.3-.24.15.02.26.15.24.3-.24,2.17-2.74,7.67-3.83,9.09-.87,1.13-1.9,2.46-3.13,2.46Z"/>
              <path class="cls-1" d="m74.89,147.34c-.09,0-.18-.04-.23-.13-.29-.45-.86-1.03-1.37-1.55-.4-.4-.74-.75-.92-1-1.07-1.53-1.71-3.26-1.67-3.73.11-.84.47-1.24,1.06-1.21.15.01.27.14.26.29,0,.15-.14.26-.29.26-.13,0-.38-.02-.48.72-.02.24.5,1.82,1.57,3.35.15.21.49.56.86.93.53.53,1.12,1.14,1.44,1.64.08.13.04.3-.08.38-.05.03-.1.04-.15.04Z"/>
              <path class="cls-1" d="m92.55,119.71c-.11,0-.22-.07-.26-.19-.05-.14.03-.3.17-.35,1.33-.44,2.14-1.32,2.29-2.47.15-1.18-.44-2.42-1.47-3.08-1.45-.94-2.74-1.04-3.63-.29-.84.71-1.13,2.1-.67,3.16.06.14,0,.3-.14.36-.14.06-.3,0-.36-.14-.56-1.29-.21-2.92.82-3.79,1.07-.91,2.63-.82,4.28.25,1.2.78,1.89,2.23,1.72,3.61-.17,1.35-1.14,2.42-2.66,2.92-.03,0-.06.01-.09.01Z"/>
              <path class="cls-1" d="m76.61,127.17c-.97,0-1.63-.37-2.05-.73-.91-.8-1.37-2.21-1.2-3.68.16-1.37.9-2.35,1.97-2.61,1.05-.26,2.18.24,2.88,1.26.09.13.05.3-.07.38-.12.09-.3.05-.38-.07-.57-.83-1.47-1.24-2.3-1.04-.84.21-1.43,1.01-1.56,2.14-.15,1.29.24,2.52,1.02,3.2.66.58,1.59.74,2.68.47.15-.04.3.05.33.2.04.15-.05.3-.2.33-.41.11-.79.15-1.13.15Z"/>
              <path class="cls-1" d="m79.43,147.87s-.03,0-.04,0c-.15-.02-.25-.16-.23-.31.12-.83,1.24-8.13,2.29-9.34,1.06-1.22,3.08-2.16,3.16-2.2.14-.06.3,0,.36.13.06.14,0,.3-.13.36-.02,0-2,.93-2.98,2.06-.81.93-1.83,6.86-2.16,9.06-.02.14-.14.23-.27.23Z"/>
              <path class="cls-1" d="m74.66,147.5c-.23,0-.37-.01-.38-.01-.15-.02-.26-.15-.24-.3.02-.15.15-.26.3-.24.12.01,3.02.28,3.55-1.96.03-.15.18-.24.33-.2.15.04.24.18.2.33-.52,2.18-2.84,2.4-3.76,2.4Z"/>
              <path class="cls-1" d="m98.7,198.31c-.65,0-1.05-.17-1.19-.52,0-.01-.01-.03-.01-.04-.02-.1-2.47-10.28-4.43-18.23-1.07-4.32-1.31-10.92-.73-19.63v-.18c.04-.44.09-.95.15-1.49.19-1.89.46-4.47-.21-5.27-.93-1.12-7.13-8.66-7.19-8.74-.1-.12-.08-.29.04-.39.12-.1.29-.08.39.04.06.08,6.26,7.62,7.19,8.74.82.98.56,3.48.34,5.68-.05.53-.11,1.04-.14,1.47v.18c-.6,8.65-.36,15.2.7,19.46,1.92,7.74,4.28,17.59,4.43,18.2.06.09.28.19.77.17,1.53-.04,3.67-.96,3.83-1.31-.02-.6-.26-8.78-1.39-11.44-1.38-3.23-2.42-5.71-2.43-5.73-.02-.05-.03-.11-.01-.17l1.97-8.08c.04-.15.18-.24.33-.2.15.04.24.18.2.33l-1.95,7.99c.19.46,1.16,2.75,2.4,5.65,1.21,2.84,1.43,11.32,1.44,11.68,0,.01,0,.02,0,.03-.08.79-2.44,1.55-3.69,1.74-.29.04-.55.07-.79.07Z"/>
              <path class="cls-3" d="m92.08,135.05c.33-.51.63-.99.82-1.4.3-.65,2.4-6.91-.75-10.62s-8.46-4.2-10.62-1.71c-2.16,2.49-2.14,6.32-.19,10.16,1.99,3.92,5.62,5.36,5.62,5.36l1.42.33c-3.97-.19-8.69-3.2-10.24-8.2-1.55-5,.17-8.41.73-9.33,1.75-2.84,6.06-5.2,10.87-2.39,4.6,2.7,7.17,7.96,6.58,12.39-.56,4.19-4.86,7.88-4.86,7.88l-2.16.14,2.78-2.61Z"/>
              <path class="cls-13" d="m77.95,123.89c1.34-.51,1.89,5.14,1.14,5.87-.75.73-1.03-1.21-1.24-1.9-.21-.69-.58-3.72.09-3.97Z"/>
              <path class="cls-3" d="m84.44,136.4s1.51,1.47,4.47,1.94l1.8-1.61-2.99.38-3.29-.71Z"/>
              <path class="cls-1" d="m110.28,137.23c-.05,0-.11-.02-.16-.05,0,0-.43-.29-1.72-.95-.67-.34-1.4-.76-2.1-1.16-1.03-.59-2.09-1.19-2.94-1.55-2.95-1.26-7.44-1.76-7.48-1.77-.15-.02-.26-.15-.24-.3.02-.15.15-.26.3-.24.19.02,4.62.52,7.64,1.81.88.38,1.96.99,3,1.58.7.4,1.43.81,2.08,1.15,1.33.68,1.76.98,1.78.99.12.09.16.26.07.38-.05.08-.14.12-.23.12Z"/>
              <path class="cls-1" d="m114.27,158.57c-.34,0-.67-.07-.96-.21-.14-.07-.19-.23-.12-.37.07-.14.23-.19.37-.12.66.33,1.68.12,2.36-.49.51-.46,1.27-1.53.54-3.48-.31-.84-.74-1.32-1.26-1.43-1.04-.2-2.21,1.06-2.22,1.07-.1.11-.28.12-.39.02-.11-.1-.12-.28-.02-.39.06-.06,1.39-1.5,2.73-1.24.72.14,1.29.74,1.67,1.77.61,1.65.36,3.14-.68,4.08-.57.51-1.31.79-2.01.79Z"/>
              <path class="cls-1" d="m88.54,137.45c-.05,0-.11,0-.16,0-.15,0-.27-.14-.26-.29,0-.15.13-.26.29-.26,1.98.11,3.42-1.96,3.43-1.98.09-.12.26-.16.38-.07.12.09.16.26.07.38-.06.09-1.55,2.22-3.75,2.22Z"/>
              <path class="cls-1" d="m91.47,137.8c-.08,0-.15-.03-.21-.1-.1-.11-.09-.29.03-.39.04-.04,4.23-3.67,4.77-7.71.6-4.48-2.11-9.57-6.44-12.11-4.89-2.87-8.96-.2-10.49,2.29-.55.89-2.23,4.19-.71,9.11,1.55,5.02,6.2,7.83,9.99,8.01.15,0,.27.14.26.29,0,.15-.13.26-.29.26-3.98-.19-8.86-3.13-10.49-8.39-1.59-5.14.18-8.62.76-9.56,1.65-2.68,6.01-5.55,11.24-2.48,4.52,2.65,7.34,7.97,6.71,12.66-.57,4.25-4.78,7.9-4.95,8.06-.05.04-.12.07-.18.07Z"/>
              <path class="cls-1" d="m100.29,161.12c-.5,0-1.33-.08-1.5-.57-.03-.09-.11-.4-.28-1.04-.52-1.99-1.74-6.66-2.43-8.04-.32-.63-1.19-2.2-2.2-4.02-2.28-4.1-4.03-7.28-4.16-7.88-.24-1.11.78-2.64,1.77-4.13.12-.19.25-.37.36-.55.08-.13.25-.16.38-.08.13.08.16.25.08.38-.12.18-.24.36-.36.55-.88,1.33-1.88,2.83-1.69,3.71.12.57,2.43,4.71,4.11,7.73,1.01,1.82,1.89,3.4,2.21,4.04.72,1.43,1.9,5.97,2.47,8.15.13.52.24.92.27,1,.07.11.63.2,1.14.19.16,0,.28.11.28.26,0,.15-.11.28-.26.28-.05,0-.12,0-.18,0Z"/>
              <path class="cls-1" d="m87.24,137.24s-.07,0-.1-.02c-.16-.07-4.03-1.65-6.04-5.61-2.01-3.97-1.51-8.62.23-10.47,1.1-1.17,2.65-1.8,4.38-1.76,2.37.06,4.85,1.36,6.65,3.48,3.47,4.09.82,10.84.79,10.91-.21.46-.54.98-.84,1.44-.08.13-.25.16-.38.08-.13-.08-.16-.25-.08-.38.29-.44.61-.94.8-1.37.46-1.02,2.2-6.89-.71-10.33-1.7-2-4.03-3.23-6.24-3.28-1.59-.04-2.96.51-3.96,1.58-1.58,1.69-2.03,6.15-.14,9.85,1.92,3.77,5.72,5.34,5.75,5.35.14.06.21.22.15.36-.04.11-.15.17-.25.17Z"/>
              <path class="cls-1" d="m88.48,138.43s-.03,0-.04,0c-3.03-.48-4.16-1.79-4.21-1.84-.1-.12-.08-.29.03-.39.12-.1.29-.08.39.03.01.01,1.07,1.21,3.88,1.66.15.02.25.16.23.31-.02.14-.14.23-.27.23Z"/>
              <path class="cls-1" d="m92.58,141.55c-.28,0-.52-.23-.7-.69-.11-.26-.33-.81.16-1.09.13-.08.27-.09.41-.04.27.09.43.41.54.67h0c.12.29.22.58.11.83-.04.09-.13.22-.32.29-.07.03-.14.04-.2.04Zm-.29-1.29s-.03.11.09.39c.13.31.21.35.21.35.02-.04-.02-.17-.11-.39h0c-.09-.22-.16-.31-.19-.35Z"/>
              <path class="cls-1" d="m95.19,146.52c-.28,0-.52-.23-.7-.69-.11-.26-.33-.81.16-1.09.13-.07.27-.09.41-.04.27.09.43.41.54.67h0c.12.29.22.58.11.83-.04.09-.13.22-.32.29-.07.03-.14.04-.2.04Zm-.29-1.29s-.02.11.09.39c.13.31.21.35.21.35.02-.04-.02-.17-.11-.39h0c-.09-.22-.16-.31-.19-.35Z"/>
              <path class="cls-1" d="m98.44,152.26c-.28,0-.52-.23-.7-.69-.11-.26-.33-.81.16-1.09.13-.08.27-.09.41-.04.27.09.43.41.54.67h0c.12.29.22.58.11.82-.04.09-.13.22-.32.29-.07.03-.14.04-.2.04Zm-.29-1.29s-.02.11.09.39c.13.31.21.35.21.35.02-.04-.02-.17-.11-.39h0c-.09-.22-.16-.31-.19-.35Z"/>
              <path class="cls-1" d="m100.1,157.26c-.28,0-.51-.23-.7-.69-.11-.26-.33-.81.16-1.09.13-.08.27-.09.41-.04.27.09.43.41.54.67,0,0,0,0,0,0,.12.29.22.58.11.82-.04.09-.13.22-.32.29-.07.03-.14.04-.2.04Zm-.29-1.29s-.02.11.09.39c.13.31.21.35.21.35.02-.04-.02-.17-.11-.39h0c-.09-.22-.16-.31-.19-.35Z"/>
              <path class="cls-11" d="m77.87,145.6c-.54-1.43-.54-3.73-2.05-4.78-.36-.27-1.14-.68-1.79-1.31-.63-.61-1.15-1.4-1.47-1.01-.32.43-.05,1.33.42,1.81.46.5,1.24.91,1.41,1.71.14.57.44,1.47,1.28,2.37l2.2,1.21Z"/>
              <path class="cls-1" d="m77.87,145.87c-.11,0-.22-.07-.26-.18-.16-.43-.28-.93-.4-1.45-.28-1.24-.57-2.52-1.56-3.2-.11-.09-.26-.18-.43-.29-.39-.25-.93-.6-1.39-1.05-.15-.14-.29-.3-.43-.45-.21-.23-.53-.57-.65-.59-.2.28.01,1.03.42,1.45.13.14.28.27.44.41.42.36.9.78,1.04,1.43.2.83.61,1.59,1.21,2.24.1.11.1.28-.01.39-.11.1-.28.1-.39-.01-.67-.72-1.12-1.56-1.34-2.49-.1-.49-.49-.82-.86-1.14-.17-.14-.34-.29-.48-.45-.55-.56-.86-1.61-.44-2.16.14-.17.29-.21.4-.21,0,0,.01,0,.02,0,.35,0,.66.34,1.05.76.13.14.27.29.41.43.43.42.92.73,1.31.99.18.12.34.22.46.31,1.15.8,1.48,2.24,1.77,3.52.11.51.22.98.37,1.38.05.14-.02.3-.16.35-.03.01-.06.02-.1.02Z"/>
              <path class="cls-1" d="m113.47,144.76c-.81,0-1.67-.16-2.49-.48-2.66-1.03-9.8-4-9.87-4.03-.14-.06-.21-.22-.15-.36.06-.14.22-.21.36-.15.07.03,7.21,3,9.86,4.03,1.56.61,3.27.59,4.34-.05.35-.2.78-.57.86-1.15.36-2.62-1.32-5.72-1.95-6.88,0-.02-.02-.03-.03-.05-.47.37-1.28.6-1.57.67-.75.19-1.66.28-2.33.11.36,1.23,1.23,4.07,1.81,5.46.06.14,0,.3-.15.36-.14.06-.3,0-.36-.15-.76-1.82-1.95-5.93-2-6.11-.03-.12.01-.24.11-.31.1-.07.23-.06.33.02.37.32,1.36.35,2.45.07.93-.23,1.45-.57,1.51-.72.04-.1.14-.17.25-.17.1,0,.21.06.26.17.02.06.1.21.2.38.66,1.21,2.4,4.42,2.01,7.22-.09.63-.48,1.16-1.12,1.55-.63.37-1.45.56-2.33.56Z"/>
              <path class="cls-1" d="m114.62,134.97c.14.31-.7.65-.7.65l-.21-.81s.69-.31.91.16Z"/>
              <path class="cls-1" d="m91.5,118.75c-.15,0-.27-.12-.27-.27s.12-.27.27-.27c.11,0,1.13-.05,1.23-1.32.03-.34-.19-.87-.61-1.19-.22-.17-.58-.33-1.05-.16-1,.37-1.04,1.71-1.04,1.72,0,.15-.13.28-.28.27-.15,0-.27-.13-.27-.28,0-.07.05-1.73,1.4-2.22.54-.2,1.1-.12,1.57.24.52.4.87,1.1.82,1.67-.11,1.44-1.21,1.82-1.77,1.82Z"/>
              <path class="cls-1" d="m76.32,125.24c-.21,0-.44-.04-.67-.15-.54-.24-.82-.98-.87-1.6-.05-.63.13-1.13.49-1.37,1.01-.65,2.38.71,2.44.77.11.11.11.28,0,.39-.11.11-.28.11-.39,0-.31-.31-1.22-1.04-1.75-.7-.18.12-.28.46-.24.86.04.53.27,1.02.55,1.14.72.33,1.45-.31,1.46-.32.11-.1.29-.09.39.02.1.11.09.28-.02.39-.03.03-.62.56-1.39.56Z"/>
              <path class="cls-1" d="m98.91,160.21s0,0-.01,0c-2.12-.1-4.65-1.44-5.7-2.63-.4-.46-.58-.88-.55-1.27.03-.34.06-.68.1-1.02.1-1,.19-1.94.17-2.68-.02-.69-.6-1.82-1.27-3.13-.59-1.14-1.25-2.44-1.72-3.79-1-2.88-1.95-5.84-1.56-7.59.03-.15.18-.24.33-.21.15.03.24.18.21.33-.36,1.62.61,4.61,1.54,7.3.46,1.31,1.11,2.59,1.69,3.72.73,1.43,1.31,2.56,1.33,3.37.02.77-.07,1.73-.17,2.74-.03.34-.07.68-.1,1.02-.02.23.13.54.42.87.95,1.08,3.36,2.35,5.31,2.44.15,0,.27.14.26.29,0,.15-.13.26-.27.26Z"/>
              <path class="cls-1" d="m98.91,160.21c-.13,0-.25-.1-.27-.23-.03-.15.08-.29.23-.32.1-.02,9.66-1.66,10.12-5.72.4-3.51-7.33-11.7-11.24-13.46-1.4-.63-2.33-1.1-3.08-1.47-1.31-.66-1.91-.96-3.26-1.23-.15-.03-.24-.17-.21-.32.03-.15.17-.24.32-.21,1.43.29,2.09.62,3.4,1.28.74.37,1.66.83,3.06,1.46,4.13,1.87,11.98,10.25,11.56,14.03-.51,4.47-10.17,6.13-10.58,6.19-.02,0-.03,0-.05,0Z"/>
              <path class="cls-1" d="m112.92,203.55c-1.06,0-2.15-.21-2.62-.77-.03-.03-.05-.07-.06-.12-.01-.06-1.31-5.79-2.18-8.2-.53-1.46-1.71-4.24-2.75-6.69-1.47-3.45-2.11-5-2.15-5.32-.01-.12-.15-.67-.32-1.37-.67-2.67-2.24-8.93-2.57-14.04-.31-4.8-.05-6.63-.03-6.71.02-.15.16-.25.31-.23.15.02.25.16.23.31,0,.02-.27,1.87.04,6.59.33,5.07,1.89,11.29,2.55,13.95.22.89.32,1.29.34,1.44.04.31,1.14,2.89,2.11,5.16,1.05,2.46,2.23,5.25,2.76,6.72.85,2.33,2.03,7.5,2.19,8.2.51.51,2.15.64,3.35.43.77-.13.99-.33,1.01-.38.18-2.39-.21-13.25-.87-15.52-.78-2.68-2.42-5.11-3.3-6.41-.57-.85-.69-1.03-.65-1.23,0-.02.02-.07.04-.17.93-4.06,3.84-17.82,2.47-24.4-1.53-7.35-5.42-11.95-5.46-12-.1-.11-.09-.29.03-.39.11-.1.29-.09.39.03.04.05,4.02,4.75,5.58,12.25,1.39,6.68-1.54,20.54-2.47,24.63-.01.04-.02.08-.02.11.06.14.31.51.56.87.9,1.33,2.57,3.81,3.37,6.57.67,2.31,1.07,13.26.89,15.67,0,.21-.11.49-.66.71-.47.19-1.27.31-2.09.31Z"/>
              <path class="cls-13" d="m87.33,117.97c.4-1.38,5.25,1.56,5.38,2.6s-1.28.87-2.13.27c-.59-.41-3.45-2.18-3.25-2.87Z"/>
            </g>
            <path class="cls-1" d="m115.33,130.5s0,0,0,0c-.15,0-.27-.13-.27-.28.07-3.77-2.99-4.36-3.12-4.38-.15-.03-.25-.17-.22-.32.03-.15.17-.25.32-.22.04,0,3.65.69,3.57,4.93,0,.15-.12.27-.27.27Z"/>
            <path class="cls-1" d="m116.41,128.3c-.15,0-.27-.12-.27-.27,0-2.36-2.51-2.91-2.53-2.91-.15-.03-.24-.18-.21-.32.03-.15.18-.24.32-.21.03,0,2.97.65,2.97,3.45,0,.15-.12.27-.27.27Z"/>
          </g>
          <g>
            <g>
              <path class="cls-11" d="m129.51,233.76s-.25,4.75-1.63,6.79c-1.08,1.56-3.4,3.84-4.09,4.48-1.6,1.47-3.86,2.37-4.23,2.44-1.13.3-2.61.57-2.08,1.43,0,0-.62.47.53,1.34,1.15.87,1.68,1.31,1.68,1.31,0,0,.15.26.67.62,1.03.76,2.17.11,3.04.04.82-.08,1.5-.14,2.63-.48,1.47-.46,2.71-2.17,4.55-3.23,1.89-1.1,3.31-.76,3.94-2.04.62-1.23.04-3.8.16-5.52.11-1.64.44-3.82,1-6.76l-6.15-.4Z"/>
              <path class="cls-1" d="m119.62,251.82c-.37,0-.77-.12-.93-.51-.1-.19-.1-.42,0-.66.29-.65,1.36-1.24,2.23-1.46.14-.04.3.05.33.2.04.15-.05.3-.2.33-.82.21-1.69.75-1.87,1.15-.05.1-.03.16,0,.2.12.28.66.19.8.15.15-.04.3.05.34.19.04.15-.05.3-.19.34-.14.04-.32.07-.51.07Z"/>
              <path class="cls-1" d="m118.7,250.91c-.38,0-.77-.16-.95-.57-.07-.14-.08-.32-.02-.49.24-.65,1.58-1.18,1.85-1.29.14-.05.3.02.35.16.05.14-.02.3-.16.35-.55.21-1.42.66-1.53.97-.01.03,0,.05,0,.06.15.33.57.25.62.24.15-.03.29.06.33.21.03.15-.06.29-.21.32-.09.02-.18.03-.27.03Z"/>
              <path class="cls-1" d="m117.94,250.23c-.38,0-.69-.2-.84-.54-.08-.16-.09-.35-.01-.53.25-.57,1.33-.89,1.55-.95.15-.04.3.05.34.19.04.15-.05.3-.19.34-.42.12-1.09.4-1.19.64-.01.03-.01.04,0,.07.07.16.19.23.36.23.16-.02.28.12.28.27,0,.15-.12.28-.27.28,0,0-.02,0-.03,0Z"/>
              <path class="cls-1" d="m117.47,249.16c-.09,0-.18-.05-.23-.13-.2-.32-.16-.58-.1-.74.23-.56,1.15-.79,2.03-1.02l.31-.08c.3-.06,2.52-.92,4.12-2.37.58-.53,2.96-2.84,4.05-4.43,1.33-1.95,1.58-6.6,1.59-6.64,0-.15.14-.27.29-.26.15,0,.27.14.26.29-.01.2-.27,4.85-1.68,6.93-1.13,1.63-3.55,3.98-4.14,4.52-1.59,1.46-3.89,2.42-4.37,2.51l-.3.08c-.65.16-1.54.39-1.66.69,0,.02-.04.09.06.24.08.13.04.3-.09.38-.05.03-.09.04-.14.04Z"/>
              <path class="cls-1" d="m133.05,241.68s-.09-.01-.13-.03c-.13-.07-.18-.24-.11-.37.32-.58.3-1.01.28-1.56-.02-.48-.04-1.03.15-1.79.04-.15.19-.23.33-.2.15.04.23.19.2.33-.18.68-.16,1.16-.14,1.63.02.58.05,1.13-.35,1.85-.05.09-.14.14-.24.14Z"/>
              <path class="cls-17" d="m150.64,134.03s-3.42,1.35-4.91,4.54c-1.49,3.19,2.24,6.95,2.68,10.8l13.22-13.39c-1.29-2.22-6.63-1.76-10.98-1.96Z"/>
              <path class="cls-11" d="m142.38,173.85c1.52.34,2.18,1.14,3.09,1.16,1.32,0,2.5-1,4.56-3.08l-1.78-3.03c-1.62,2.49-4.6,2.58-6.55,2.05-1.29-.35-2.7-1.1-4.05-1.13-1.02-.02-1.82.09-2.87.06-1.05-.03-2.82-.45-2.77.18.02.29.31,1.05.75,1.31.55.33,2.17.58,2.43.55l3.41.44,3.78,1.48Z"/>
              <path class="cls-1" d="m145.36,174.34c-1.76,0-2.8-.13-4.19-.5-.9-.24-1.66-.78-2.28-1.21-.36-.25-.67-.47-.93-.58-.46-.19-.89-.23-1.35-.27-.25-.02-.52-.04-.79-.09-.67-.12-1.34-.29-1.38-1-.01-.19.05-.36.17-.49.23-.24.64-.35,1.42-.36.17,0,.33-.02.48-.03.61-.04,1.14-.07,1.85.25.42.19.78.41,1.16.65.4.25.85.54,1.48.83.14.07.19.23.13.37-.07.14-.23.2-.37.13-.65-.31-1.12-.61-1.53-.86-.38-.24-.7-.44-1.09-.61-.59-.26-1.01-.24-1.6-.2-.16.01-.32.02-.5.03-.72.01-.96.11-1.03.19-.01.01-.03.03-.02.08.01.19.09.35.92.5.25.04.5.07.74.09.48.04.98.08,1.52.31.31.13.65.36,1.04.63.61.43,1.3.91,2.11,1.13,1.38.37,2.4.49,4.18.48h0c.15,0,.27.12.27.27,0,.15-.12.27-.27.28h-.14Z"/>
              <path class="cls-1" d="m134.86,171.54c-.54,0-1.49-.11-1.95-.49-.22-.18-.28-.39-.29-.52-.02-.22.05-.41.19-.56.35-.37,1.07-.38,1.98-.35.53.02,1.01,0,1.48-.03.44-.02.89-.04,1.39-.03.93.02,1.87.37,2.78.7.46.17.9.33,1.33.44,2.05.55,4.76.34,6.25-1.94.08-.13.25-.16.38-.08.13.08.16.25.08.38-1.65,2.52-4.62,2.77-6.85,2.17-.45-.12-.92-.29-1.38-.46-.87-.32-1.76-.64-2.61-.66-.48,0-.9.01-1.35.03-.47.02-.96.05-1.52.03-.48-.01-1.36-.04-1.57.18-.02.02-.05.06-.04.15,0,.02,0,.07.09.14.37.31,1.47.4,1.81.36.15-.02.29.09.31.24.02.15-.09.29-.24.31-.07,0-.17.01-.29.01Z"/>
              <path class="cls-1" d="m138.94,172.64s-.05,0-.08-.01c-1.44-.43-3.02-.42-4.28-.42-.93,0-1.74-.28-2.13-.74-.21-.25-.29-.55-.24-.86.03-.15.17-.25.32-.22.15.03.25.17.22.32-.03.15.01.28.12.41.28.33.96.55,1.71.55.01,0,.03,0,.04,0,1.29,0,2.89,0,4.39.45.15.04.23.2.19.34-.04.12-.14.2-.26.2Z"/>
              <path class="cls-1" d="m145.47,175.29c-.52-.02-.95-.24-1.44-.49-.46-.24-.98-.52-1.71-.68-.15-.03-.24-.18-.21-.33.03-.15.18-.24.33-.21.8.18,1.38.48,1.85.73.45.23.8.42,1.19.43,1.19,0,2.31-.93,4.36-3,.11-.11.28-.11.39,0,.11.11.11.28,0,.39-2.16,2.18-3.36,3.15-4.76,3.16Z"/>
              <path class="cls-11" d="m187.22,230.28s-1.39,4.81,0,6.85c1.08,1.56,2.99,3.77,3.68,4.41,1.6,1.47,3.86,2.37,4.23,2.44,1.13.3,2.61.57,2.08,1.43.18.62-.21,1.13-.74,1.61-1.46,2.03-3.2.15-2.53.39.67.24.92.91.4,1.27-1.03.76-2.17.11-3.04.04-.82-.08-1.5-.14-2.63-.48-1.47-.46-2.71-2.17-4.55-3.23-1.89-1.1-3.31-.76-3.94-2.04-.62-1.23.02-3.37.48-4.84.61-2.25,1.07-4.91.51-7.85h6.05Z"/>
              <path class="cls-1" d="m193.2,249.33c-.43,0-.84-.1-1.21-.19-.26-.06-.5-.12-.71-.14h-.07c-.8-.09-1.49-.15-2.62-.49-.87-.27-1.65-.94-2.47-1.65-.66-.56-1.34-1.15-2.13-1.61-.75-.44-1.42-.64-2.02-.82-.86-.26-1.61-.48-2.03-1.34-.68-1.37.03-3.66.46-5.04.54-1.98,1.08-4.66.5-7.72-.03-.15.07-.29.22-.32.15-.03.29.07.32.22.6,3.17.04,5.93-.51,7.97-.41,1.3-1.08,3.47-.5,4.64.32.65.87.81,1.7,1.06.59.18,1.33.4,2.13.87.84.49,1.54,1.09,2.22,1.67.78.67,1.52,1.3,2.28,1.54,1.07.32,1.74.39,2.51.46h.07c.25.03.51.09.79.16.69.17,1.41.34,2.06-.14.13-.09.18-.19.16-.3-.02-.16-.18-.38-.5-.49-.68-.25-1.13-.52-1.99-1.08-.13-.08-.16-.25-.08-.38.08-.13.25-.16.38-.08.82.54,1.24.79,1.87,1.02.47.17.8.53.85.93.04.32-.1.62-.39.82-.43.31-.87.42-1.3.42Z"/>
              <path class="cls-1" d="m195.07,248.34c-.19,0-.37-.03-.52-.07-.15-.04-.23-.19-.19-.34.04-.15.19-.23.34-.19.14.04.68.13.79-.13.03-.06.05-.12,0-.22-.18-.4-1.05-.94-1.87-1.15-.15-.04-.23-.19-.2-.33.04-.15.19-.23.33-.2.87.22,1.94.81,2.23,1.46.1.24.1.47,0,.68-.16.38-.55.49-.91.49Z"/>
              <path class="cls-1" d="m195.99,247.43c-.09,0-.19,0-.28-.03-.15-.03-.24-.18-.21-.33.03-.15.18-.24.33-.21.05.01.47.09.61-.23.01-.03.02-.04,0-.07-.12-.31-.98-.76-1.53-.97-.14-.05-.21-.21-.16-.35.05-.14.21-.21.35-.16.27.1,1.6.64,1.85,1.29.07.17.06.35-.03.51-.17.39-.56.55-.94.55Z"/>
              <path class="cls-1" d="m196.75,246.75s-.02,0-.03,0c-.15,0-.27-.13-.27-.28,0-.15.13-.27.27-.27,0,0,.01,0,.02,0,.16,0,.27-.07.33-.21.03-.05.02-.07.01-.09-.1-.24-.77-.52-1.19-.64-.15-.04-.23-.19-.19-.34.04-.15.19-.23.34-.19.22.06,1.3.38,1.55.95.08.18.07.37-.02.55-.14.32-.45.52-.83.52Z"/>
              <path class="cls-1" d="m197.21,245.68s-.1-.01-.14-.04c-.13-.08-.17-.25-.09-.38.09-.15.07-.22.06-.24-.12-.3-1.01-.53-1.66-.69l-.31-.08c-.46-.09-2.76-1.04-4.35-2.5-.69-.64-2.6-2.84-3.72-4.46-1.44-2.12-.1-6.88-.04-7.08.04-.15.2-.23.34-.19.15.04.23.19.19.34-.01.05-1.33,4.71-.04,6.62,1.06,1.53,2.96,3.74,3.64,4.36,1.59,1.46,3.81,2.32,4.1,2.37l.33.08c.89.23,1.81.46,2.04,1.02.06.16.1.42-.1.74-.05.08-.14.13-.23.13Z"/>
              <path class="cls-1" d="m182.55,238.89c-.1,0-.19-.05-.24-.14-.4-.72-.37-1.27-.35-1.85.02-.47.04-.95-.14-1.63-.04-.15.05-.3.2-.33.15-.04.3.05.33.2.2.75.17,1.3.15,1.79-.02.55-.04.98.28,1.56.07.13.03.3-.11.37-.04.02-.09.03-.13.03Z"/>
              <path class="cls-1" d="m121.49,252.8c-.43,0-.88-.1-1.31-.42-.28-.2-.42-.49-.38-.82.05-.41.38-.76.85-.93.63-.23,1.05-.49,1.87-1.02.13-.08.3-.05.38.08.08.13.05.3-.08.38-.84.55-1.3.83-1.99,1.08-.31.11-.47.33-.5.49-.02.12.04.22.16.3.66.49,1.37.31,2.07.14.28-.07.54-.13.79-.15h.07c.77-.08,1.44-.15,2.51-.47.76-.24,1.49-.87,2.27-1.54.68-.58,1.38-1.18,2.22-1.67.81-.47,1.54-.69,2.13-.87.83-.25,1.38-.41,1.7-1.06.36-.71.27-2,.19-3.24-.05-.75-.1-1.52-.06-2.18.1-1.57.41-3.67,1.01-6.79.03-.15.17-.25.32-.22.15.03.25.17.22.32-.59,3.1-.9,5.18-1,6.73-.04.62,0,1.37.06,2.1.09,1.32.18,2.68-.24,3.53-.42.86-1.17,1.08-2.03,1.34-.59.18-1.26.38-2.02.82-.8.46-1.48,1.05-2.14,1.61-.82.71-1.6,1.38-2.47,1.65-1.13.34-1.82.41-2.62.48h-.07c-.21.03-.46.08-.71.15-.37.09-.78.19-1.21.19Z"/>
              <path class="cls-16" d="m162.77,108.99s-3.46-8.31-4.34-8.38c-.88-.08-2.16,8.66-2.16,8.66,0,0-7.33-4.17-8.41-3.45-1.08.72,2.82,8.74,2.82,8.74,0,0-6.92,3.13-7.29,4.14-.37,1,5.25,5.44,5.25,5.44,0,0-3.76,4.08-3.94,5.71-.18,1.63,3.79,1.01,3.79,1.01l14.27-21.86Z"/>
              <path class="cls-17" d="m156.23,136.42c-1.23-.66-6.2-1.6-7.49-4.42-.86-1.9.09-11.74.85-14.56.75-2.82,3.01-7.52,6.67-8.17,3.66-.66,7.55.05,7.55.05,0,0,2.61-.18,5.47,4.39,1.07,1.72.77,3.55,1.46,5.46,1.15,3.19,4.22,6.98.34,11.39l-14.85,5.86Z"/>
              <path class="cls-11" d="m192.89,105.82s.17.9.5,1.34c.76,1.02,1.7,1.56,2.54,2.53.76.9.6,1.9,2.07,4.29l-3.6,2.39c-.22-.51-1.26-2.72-1.78-3.15-.62-.52-2.29-1.68-2.97-2.12-.46-.28-1-.51-1.44-.88-.44-.37-1.17-1.53-1.75-2.28-.44-.61-.99-1.14-1.03-1.66,0-.19.03-1.42.11-2.07.04-.3.41-1.21.76-1.68.39-.53.95-.28.83.43-.12.7-.25,1.03-.27,1.35,0,.28-.04,1,.14,1.51.15.52.47-3.44.77-3.22,1.15-1.7,2.36-1.87,2.61-.63.1.5-.31,1.62-.33,2.49l1.09,2.06.57-.23s-1.21-3.59-.42-4.04c.79-.45,1.6,3.56,1.6,3.56Z"/>
              <path class="cls-1" d="m191.3,111.28c-.09,0-.18-.05-.24-.13l-.09-.16c-.32-.53-.59-.98-1.03-1.6-.18-.23-.32-.4-.45-.56-.23-.28-.41-.51-.65-.87-.25-.37-.41-.75-.59-1.15-.07-.15-.14-.31-.21-.48-.11-.22-.22-.44-.33-.62-.29-.53-.55-.98-.29-1.37.17-.22.38-.33.63-.34.41-.02.87.25,1.39.81.39.43.61.84.81,1.2.2.37.36.66.63.86.13.1.23.18.32.26.36.29.64.51,1.55,1.1.27.17.53.31.79.44.77.4,1.49.78,2.14,1.76.08.13.05.3-.08.38-.13.08-.3.05-.38-.08-.57-.86-1.21-1.19-1.94-1.58-.27-.14-.55-.29-.83-.46-.93-.6-1.23-.84-1.6-1.13-.09-.08-.19-.16-.31-.25-.36-.27-.57-.64-.78-1.04-.18-.33-.39-.71-.73-1.1-.54-.59-.85-.64-.96-.63-.05,0-.13.02-.2.11-.06.09.14.46.32.78.11.19.23.42.35.66.08.17.15.33.22.49.17.39.32.73.54,1.07.22.34.39.54.62.82.13.16.28.34.46.58.46.64.74,1.11,1.07,1.65l.09.16c.08.13.04.3-.09.38-.04.03-.09.04-.14.04Z"/>
              <path class="cls-1" d="m198,114.25c-.09,0-.18-.05-.23-.13-.81-1.32-1.14-2.24-1.39-2.92-.2-.56-.35-.96-.66-1.34-.36-.41-.75-.76-1.13-1.09-.48-.42-.98-.86-1.42-1.45-.37-.49-.55-1.42-.55-1.46-.03-.15.07-.29.22-.32.15-.03.29.07.32.22.04.23.21.91.45,1.23.4.54.86.94,1.34,1.37.39.34.8.7,1.19,1.15.38.45.55.92.76,1.51.25.69.55,1.54,1.34,2.82.08.13.04.3-.09.38-.05.03-.09.04-.14.04Z"/>
              <path class="cls-1" d="m194.39,116.65c-.11,0-.21-.06-.25-.16-.38-.87-1.3-2.71-1.7-3.05-.62-.52-2.28-1.67-2.95-2.1-.14-.09-.3-.17-.46-.26-.34-.18-.69-.37-1.01-.64-.32-.27-.74-.86-1.18-1.48-.21-.29-.42-.59-.61-.83-.11-.15-.22-.29-.33-.43-.37-.46-.72-.9-.75-1.38-.01-.22.03-1.47.11-2.12.05-.37.46-1.33.81-1.81.25-.34.61-.48.91-.35.32.14.48.52.41.98-.06.35-.12.61-.17.82-.05.21-.09.36-.1.51,0,.27-.03.95.13,1.4.13.44,1.08,1.41,1.4,1.65.12.09.15.26.06.38-.09.12-.26.15-.38.06-.26-.19-1.41-1.28-1.6-1.92-.19-.53-.16-1.26-.15-1.58.01-.21.06-.4.11-.63.05-.2.11-.45.16-.78.04-.24-.03-.36-.08-.39-.05-.02-.16.03-.26.17-.33.44-.68,1.31-.71,1.55-.08.64-.12,1.85-.11,2.02.02.3.32.67.63,1.07.12.14.23.29.34.44.19.25.41.55.61.85.4.57.82,1.16,1.09,1.38.27.23.6.41.92.58.17.09.33.18.49.27.7.45,2.37,1.61,3.01,2.15.65.54,1.84,3.22,1.86,3.25.06.14,0,.3-.14.36-.04.02-.07.02-.11.02Z"/>
              <path class="cls-1" d="m190.67,107.41c-.11,0-.22-.07-.26-.19-.05-.14.03-.3.17-.35.64-.22,1.24-.25,1.95-.23.15,0,.27.13.27.28,0,.15-.12.28-.28.27-.67-.02-1.19,0-1.75.2-.03.01-.06.01-.09.01Z"/>
              <path class="cls-1" d="m188.1,107.59c-.1,0-.19-.05-.24-.14-.04-.08-.12-.19-.21-.34-.45-.69-.85-1.35-.87-1.82-.12-2,1.47-3.94,1.54-4.02.25-.27.52-.49.82-.46.19.02.35.14.48.36.22.33.05,1.05-.04,1.35-.06.17-.11.34-.17.5-.19.55-.41,1.16-.34,1.45.04.15-.05.3-.2.33-.14.04-.3-.05-.33-.2-.11-.45.12-1.09.36-1.77.06-.16.12-.33.17-.48.15-.52.13-.84.1-.9-.05-.09-.08-.1-.08-.1-.01,0-.1.02-.34.28-.05.06-1.51,1.84-1.4,3.63.02.37.51,1.14.78,1.56.1.16.18.28.23.37.07.13.02.3-.11.37-.04.02-.09.03-.13.03Z"/>
              <path class="cls-1" d="m191.29,107.04c-.09,0-.18-.04-.23-.12-1.1-1.66-1.22-2.23-1.08-3.44l.02-.14c.12-1.01.17-1.39,0-1.78-.02-.04-.03-.05-.03-.05-.05,0-.22.14-.25.22-.06.14-.22.2-.36.15-.14-.06-.21-.22-.15-.36.09-.22.42-.55.77-.55h0c.23,0,.42.14.52.38.23.53.17.98.04,2.06l-.02.14c-.13,1.07-.05,1.51.99,3.07.08.13.05.3-.08.38-.05.03-.1.05-.15.05Z"/>
              <path class="cls-1" d="m193.18,107.07c-.1,0-.2-.06-.25-.16-.08-.17-.16-.5-.34-1.18-.06-.23-.12-.48-.19-.76-.2-.77-.5-1.67-.68-2.06-.2-.4-.37-.49-.42-.5,0,0-.01.02-.03.05-.05.12-.02.4,0,.61.04.3.11.68.18,1.08.16.88.34,1.88.34,2.62,0,.15-.12.27-.27.27h0c-.15,0-.27-.12-.27-.27,0-.69-.18-1.67-.33-2.53-.07-.41-.15-.79-.19-1.11-.04-.34-.08-.66.03-.9.09-.23.27-.37.5-.38.19,0,.57.08.94.8.2.43.51,1.36.72,2.17.07.28.14.53.19.76.13.51.24.95.3,1.08.07.14,0,.3-.13.37-.04.02-.08.03-.12.03Z"/>
              <path class="cls-17" d="m182.55,208.9s-1.09,5.49-2.15,11.38c-1.06,5.89-.79,15.72-.79,15.72.32,1.84,7.33,1.84,7.89.33,0,0,9.67-24.59,8.63-30.96-.5-3.08-15.99-25.78-17.91-32.03-1.07-3.47-2.32-11.56-2.6-12.72s2.6-19.51,2.6-19.51l-5.64-12.11-24.17,13.9s-.16,6.86,0,11.69c.03.76.11,1.59.23,2.48.36,2.77.96,6.03.47,8.87-.02.14-.05.27-.08.41-.63,2.98-5.4,13.99-6.65,15.98-1.25,2-9.35,19.58-10.72,25.68-.48,2.12-3.68,19.56-3.31,29.99-.08,1.82,5.7,3.37,7.3,1.7,0,0,6.1-15.72,8.16-27,.66-1.21,1.82-2.43,2.55-3.64,4.4-7.29,9.6-14.58,16.56-21.9l2.68,2.33,16.93,19.42Z"/>
              <path class="cls-16" d="m170.17,166.9c-2.16,7.57-8.1,12.12-11.75,11.4-3.65-.73-9.05-5.55-9.11-9.39-.01-.82-.09-1.83-.19-2.97.49-2.84-.11-6.1-.47-8.87.02-2.14.2-4.27.66-6.18,1.81-7.52,4.75-9.25,6.33-9.77,2.89-.94,6.27-.04,8.99,3.01,3.3,3.68,7.7,15.21,5.54,22.78Z"/>
              <g>
                <path class="cls-4" d="m159.23,113.86c2.78-1.09,6.14-.39,7.82,1.19,1.03.96,1.07,3.02,1.07,3.02,0,0,.15.43.18.82.06.75.06,1.87.3,2.88.32,1.53.79,2.53.47,4.07-.38,1.78-.76,3.56-1.66,4.31-.67.61.41-.18.41-.18l.32-.32,2.6-.66c-2.21,2.56-5.53,4.81-9.12,6.99-.45-1.37-2.28-2.19-4.36-2.9l-1.56-1.18,1.69-.47-.13-5.1s-1.62-.09-2.49-1.1c-.61-.71-.53-1.71-.53-1.71,0,0,.51-7.88,4.99-9.66Z"/>
                <path class="cls-6" d="m154.18,112.94c.38-.23,1.74-1.17,2.83-1.53,1.2-.41,2.17-.29,3.71-.48,1.38-.19,2.67-.56,3.86-.02.66.31,2,1.16,2,1.16l.95-.03s.13.19.07.43c-.06.24-.28.54-.28.54,0,0,1.45.69,1.7,1.94.22,1.26-.8,3.13-.8,3.13,0,0-1.09-3.3-2.93-3.44-.72-.06-2.47-.05-3.21.72-1.15,1.16-1.19,3.24-1.64,4.07-.28.5-1.43,1.14-1.43,1.14,0,0,.07.87-1.07,1.64-.68.45-1.82.22-2.59.48-.55.16-.92.95-.92.95,0,0-.93-1.2-1.49-2.24-.56-1.03-.7-1.86-.7-1.86,0,0-.43.07-.64-.07-.21-.14-.31-.37-.31-.37,0,0,.62-.25.76-1.53.06-1.28.14-3.32,2.11-4.62Z"/>
                <path class="cls-2" d="m165.1,130.63s-.47.06-2.17-.21c-1.57-.28-3.51-1.64-3.51-1.64,0,0,2.16,2.66,3.95,3.24,1.67.55,1.79.21,1.79.21l-.06-1.6Z"/>
                <path class="cls-1" d="m157.27,132.51s-.04,0-.06,0c-.15-.03-.24-.18-.21-.33,0-.01.26-1.25,0-5.17,0-.15.1-.28.26-.29.14-.01.28.1.29.26.27,4.03,0,5.28,0,5.33-.03.13-.14.21-.27.21Z"/>
                <path class="cls-1" d="m165.25,133.18c-.14,0-.25-.1-.27-.24l-.31-2.33c-.02-.15.09-.29.24-.31.15-.02.29.09.31.24l.31,2.33c.02.15-.09.29-.24.31-.01,0-.02,0-.04,0Z"/>
                <path class="cls-1" d="m165.33,130.86c-1.43,0-3.13-.26-3.98-.62-1.44-.62-2.61-1.81-2.66-1.86-.11-.11-.1-.28,0-.39.11-.11.28-.1.39,0,.01.01,1.15,1.16,2.48,1.74,1.43.6,4.87.79,5.57.3.44-.32.9-1.22,1.25-2.46.39-1.43.51-2.48.39-3.51-.1-.73-.2-1.1-.29-1.45-.07-.28-.15-.56-.22-1.01-.07-.52-.1-1.01-.12-1.5-.01-.24-.03-.49-.05-.74v-.03c-.17-2.23-1.11-3.48-1.87-4.13-.11-.1-.13-.27-.03-.39.1-.11.27-.13.39-.03.84.72,1.88,2.09,2.06,4.5v.03c.02.25.04.5.05.75.03.5.06.96.12,1.45.06.41.13.67.21.95.1.37.2.75.3,1.52.13,1.1,0,2.22-.41,3.72-.39,1.38-.9,2.36-1.46,2.76-.39.27-1.2.38-2.13.38Z"/>
                <path class="cls-1" d="m157.08,126.61h0c-1.29-.02-2.2-.53-2.7-1.52-.39-.75-.33-1.64.15-2.2.48-.56,1.27-.71,2.16-.41.14.05.22.2.17.35-.05.14-.2.22-.35.17-.68-.23-1.24-.14-1.57.25-.34.39-.37,1.03-.08,1.59.41.82,1.12,1.2,2.21,1.22.15,0,.27.13.27.28,0,.15-.12.27-.27.27Z"/>
                <path class="cls-1" d="m156.4,124.95c-.08,0-.15-.03-.21-.09,0,0-.23-.25-.49-.36-.14-.06-.21-.22-.15-.36.06-.14.22-.21.36-.15.38.16.68.49.69.51.1.11.09.29-.03.39-.05.05-.12.07-.18.07Z"/>
                <path class="cls-1" d="m166.49,124.51c-.05,0-.1-.01-.15-.04-.13-.08-.17-.25-.09-.38.25-.4.25-.55.24-.6-.02-.07-.11-.13-.27-.23-.22-.13-.52-.32-.68-.7-.32-.76-.19-1.72-.18-1.76.02-.15.16-.25.31-.23.15.02.26.16.23.31,0,0-.11.86.14,1.48.09.22.27.32.46.44.21.13.45.27.52.57.06.27-.03.58-.31,1.02-.05.08-.14.13-.23.13Z"/>
                <path class="cls-1" d="m161.02,119.74c-.08,0-.15-.03-.21-.09-.1-.11-.09-.29.03-.39.04-.04,1.01-.87,2.54-.6.15.03.25.17.22.32-.03.15-.17.25-.32.22-1.26-.22-2.05.44-2.08.47-.05.04-.12.07-.18.07Z"/>
                <path class="cls-1" d="m166.32,118.73c-.08,0-.16-.04-.22-.11-.09-.12-.07-.29.05-.38.98-.76,1.93-.34,1.97-.32.14.06.2.23.14.36-.06.14-.22.2-.36.14-.03-.01-.7-.29-1.41.26-.05.04-.11.06-.17.06Z"/>
                <path class="cls-1" d="m154.41,124.03c-.07,0-.14-.03-.2-.08-.08-.08-1.97-2.06-2.32-4.44-.02-.15.08-.29.23-.31.15-.02.29.08.31.23.32,2.21,2.15,4.12,2.17,4.14.11.11.1.28,0,.39-.05.05-.12.08-.19.08Z"/>
                <path class="cls-1" d="m151.11,119.34c-.1,0-.2-.05-.24-.15-.07-.13-.02-.3.12-.37.63-.33.71-.84.79-1.78.07-.82.16-1.84.89-2.93,1.36-2.02,5.23-3.89,7.79-3.2.15.04.23.19.19.34-.04.15-.19.23-.34.19-2.36-.64-5.93,1.1-7.19,2.97-.65.97-.73,1.87-.8,2.67-.08.89-.16,1.73-1.09,2.22-.04.02-.08.03-.13.03Z"/>
                <path class="cls-1" d="m168.24,118.39s-.07,0-.1-.02c-.14-.06-.21-.22-.15-.36.05-.13.11-.26.16-.39.67-1.63,1.3-3.18-1.04-4.49-.13-.07-.18-.24-.11-.37.07-.13.24-.18.37-.1,2.76,1.55,1.94,3.56,1.28,5.17-.05.13-.11.26-.16.39-.04.11-.15.17-.26.17Z"/>
                <path class="cls-1" d="m158.09,120.85c-.26,0-.55-.02-.86-.07-.15-.02-.25-.16-.23-.31.02-.15.16-.25.31-.23,1.68.27,2.68-.27,3.05-1.65.5-1.87,1.01-3.47,2.08-4,.45-.22.95-.23,1.5-.01.14.06.21.22.15.36-.06.14-.22.21-.36.15-.4-.16-.74-.16-1.05,0-.93.47-1.43,2.31-1.79,3.65-.27,1.01-.98,2.12-2.81,2.12Z"/>
                <path class="cls-1" d="m165.2,115.04s-.02,0-.03,0c-.15-.02-.26-.15-.24-.31.05-.43.27-.82.59-1.05.31-.22.7-.3,1.13-.21.15.03.24.18.21.32-.03.15-.17.24-.32.21-.28-.06-.51-.02-.7.12-.2.14-.33.39-.37.67-.02.14-.14.24-.27.24Z"/>
                <path class="cls-1" d="m157.26,122.69c-.14,0-.26-.1-.27-.24-.02-.15.09-.29.24-.3.84-.1,1.09-.79,1.09-.79.05-.14.21-.22.35-.17.14.05.22.2.17.35-.01.04-.36,1.02-1.55,1.16-.01,0-.02,0-.03,0Z"/>
                <path class="cls-1" d="m163.71,113.84c-.09,0-.17-.04-.22-.12-.22-.31-.92-1.13-1.55-1.23-.15-.02-.25-.16-.23-.31.02-.15.16-.25.31-.23.99.15,1.88,1.4,1.92,1.45.09.12.06.29-.07.38-.05.03-.1.05-.16.05Z"/>
                <path class="cls-1" d="m162.07,122.63s-.07,0-.1-.02c-.14-.06-.21-.22-.15-.36.17-.41.49-.71.87-.8.32-.08.65,0,.9.21.12.1.13.27.04.39-.1.12-.27.13-.39.04-.15-.13-.31-.12-.42-.1-.21.05-.4.23-.5.48-.04.11-.15.17-.25.17Z"/>
                <path class="cls-1" d="m166.62,121.89s-.07,0-.1-.02c-.14-.06-.21-.22-.15-.36.17-.41.44-.69.77-.77.29-.07.59,0,.85.23.12.1.13.27.03.39-.1.12-.27.13-.39.04-.09-.07-.22-.15-.37-.12-.15.04-.3.2-.4.44-.04.11-.15.17-.25.17Z"/>
                <path class="cls-1" d="m165.54,127.26c-.9,0-1.61-.31-1.66-.33-.14-.06-.2-.22-.14-.36.06-.14.22-.2.36-.14.08.04,1.99.86,3.33-.47.11-.11.28-.11.39,0,.11.11.1.28,0,.39-.72.71-1.56.91-2.28.91Z"/>
              </g>
              <path class="cls-17" d="m176.59,141.11s9.9.17,13.72-.35c3.82-.52,8.71,0,10.21-4.34,1.1-3.17-1.5-23.99-1.5-23.99-1.63-1.42-6.67-.03-7.3,1.55,0,0,.78,4.2,1.1,7.2.24,2.23-.32,6.02-.74,9.78-1.2.15-11.41-2.09-15.73-3.1-1.6-.37-4.3,0-4.32.34l4.56,12.91Z"/>
              <path class="cls-1" d="m167.19,189.76c-.06,0-.13-.02-.18-.07-2.9-2.52-6.57-2.78-6.6-2.78-.15,0-.27-.14-.26-.29s.14-.26.29-.26c.16.01,3.89.27,6.93,2.91.11.1.13.27.03.39-.05.06-.13.09-.21.09Z"/>
              <path class="cls-1" d="m142.77,213.79c-.1,0-.2-.06-.25-.16-.06-.14,0-.3.14-.36,1.4-.63,3.19-3.79,4.92-6.84,1.24-2.18,2.51-4.44,3.75-5.99,2.98-3.72,11.32-13.36,11.41-13.46.1-.12.27-.13.39-.03.11.1.13.27.03.39-.08.1-8.43,9.74-11.39,13.45-1.21,1.51-2.48,3.75-3.7,5.92-1.85,3.27-3.6,6.36-5.17,7.07-.04.02-.07.02-.11.02Z"/>
              <path class="cls-1" d="m183.01,209.79c-.09,0-.17-.04-.22-.11-2.31-3.21-19.01-21.83-19.18-22.02-.1-.11-.09-.29.02-.39.11-.1.29-.09.39.02.69.77,16.89,18.83,19.22,22.06.09.12.06.29-.06.38-.05.04-.1.05-.16.05Z"/>
              <path class="cls-1" d="m148.41,149.66c-.14,0-.26-.1-.27-.24-.17-1.51-.87-3.02-1.55-4.49-1.05-2.28-2.05-4.44-1.11-6.46,1.52-3.26,4.92-4.63,5.06-4.68.14-.05.3.01.36.15.06.14-.01.3-.15.36-.03.01-3.34,1.35-4.76,4.4-.84,1.79.11,3.84,1.11,6,.7,1.51,1.42,3.06,1.6,4.66.02.15-.09.29-.24.3-.01,0-.02,0-.03,0Z"/>
              <path class="cls-1" d="m133.34,240.69c-1.1,0-2.32-.26-3.32-.69-1.28-.55-1.97-1.26-1.94-2.01-.38-10.45,2.87-28.04,3.32-30.04,1.35-6.02,9.38-23.58,10.75-25.76,1.25-2,6-13.01,6.61-15.89.03-.13.05-.27.08-.4.41-2.4.03-5.16-.31-7.59-.06-.41-.11-.81-.16-1.2-.14-1.03-.21-1.82-.24-2.5-.16-4.79,0-11.64,0-11.7,0-.15.13-.27.27-.27h0c.15,0,.27.13.27.28,0,.07-.16,6.9,0,11.67.02.66.1,1.44.23,2.45.05.39.11.79.16,1.2.35,2.47.74,5.27.31,7.76-.02.14-.05.28-.08.42-.64,3.01-5.38,14-6.68,16.07-1.36,2.17-9.34,19.62-10.68,25.59-.45,1.99-3.68,19.51-3.3,29.92-.02.5.59,1.07,1.61,1.5,1.73.74,4.26.94,5.19.06.39-1.02,6.16-16.1,8.13-26.89.03-.15.17-.25.32-.22.15.03.25.17.22.32-2.04,11.17-8.12,26.89-8.18,27.05-.01.03-.03.06-.06.09-.53.56-1.47.79-2.52.79Z"/>
              <path class="cls-1" d="m183.72,237.7c-.4,0-.78-.02-1.13-.05-.91-.09-3.05-.41-3.25-1.6,0-.01,0-.03,0-.04,0-.1-.26-9.93.79-15.78,1.04-5.82,2.14-11.33,2.15-11.38.03-.15.17-.25.32-.22.15.03.25.17.22.32-.01.05-1.1,5.56-2.15,11.37-1.01,5.66-.8,15.12-.79,15.64.11.54,1.19.98,2.76,1.13,2.13.2,4.36-.22,4.61-.87.1-.25,9.63-24.6,8.61-30.82-.22-1.36-3.7-7.05-7.38-13.07-4.44-7.27-9.48-15.51-10.52-18.92-.76-2.48-1.63-7.35-2.14-10.27-.21-1.2-.38-2.14-.46-2.47-.29-1.18,2.3-17.73,2.6-19.61.02-.15.16-.25.31-.23.15.02.25.16.23.31-1.15,7.35-2.8,18.59-2.6,19.4.08.35.24,1.25.47,2.5.52,2.9,1.38,7.76,2.13,10.2,1.03,3.35,6.04,11.56,10.47,18.8,3.87,6.33,7.21,11.8,7.45,13.27,1.04,6.37-8.25,30.09-8.64,31.1-.34.92-2.3,1.27-4.04,1.27Z"/>
              <path class="cls-1" d="m159.23,178.64c-.3,0-.59-.03-.87-.08-3.85-.76-9.27-5.77-9.33-9.65-.02-.86-.1-1.92-.18-2.95,0-.02,0-.05,0-.07.41-2.4.03-5.16-.31-7.59-.06-.41-.11-.81-.16-1.2,0-.01,0-.03,0-.04.03-2.45.24-4.49.67-6.24,1.36-5.64,3.55-9,6.51-9.96,3.16-1.03,6.63.12,9.28,3.08,3.17,3.54,7.82,15.26,5.6,23.03h0c-2.01,7.04-7.32,11.67-11.21,11.67Zm-9.83-12.69c.09,1.02.17,2.09.18,2.95.06,3.66,5.23,8.39,8.89,9.12,3.61.72,9.39-4.02,11.44-11.2h0c2.17-7.59-2.38-19.06-5.48-22.52-2.5-2.79-5.76-3.89-8.7-2.93-2.73.89-4.86,4.2-6.15,9.57-.41,1.7-.63,3.7-.65,6.1.05.38.11.78.16,1.18.34,2.46.73,5.25.31,7.72Z"/>
              <path class="cls-1" d="m146.93,131.24c-.82,0-1.73-.11-2.2-.55-.24-.23-.35-.53-.31-.88.17-1.49,3.02-4.76,3.81-5.64-1.84-1.46-5.49-4.54-5.11-5.57.37-.99,5.58-3.44,7.18-4.17-1.25-2.6-3.72-8.09-2.6-8.83,1.07-.71,6.28,2.08,8.35,3.24.11-.73.37-2.37.69-3.98.91-4.59,1.39-4.55,1.7-4.52.91.08,3.25,5.39,4.57,8.55.06.14,0,.3-.15.36-.14.06-.3,0-.36-.15-1.56-3.75-3.48-7.75-4.08-8.19-.49.53-1.34,4.62-1.89,8.4-.01.09-.07.17-.15.21-.08.04-.18.04-.26,0-3.45-1.97-7.54-3.85-8.12-3.46-.47.31.89,4.23,2.91,8.39.03.07.04.14.01.21-.03.07-.08.13-.15.16-3.35,1.52-6.94,3.42-7.14,3.98-.12.48,2.25,2.83,5.17,5.13.06.05.1.12.1.19,0,.08-.02.15-.07.21-1.03,1.12-3.73,4.29-3.87,5.55-.02.17.03.31.14.42.53.51,2.33.44,3.34.29.15-.02.29.08.31.23.02.15-.08.29-.23.31-.14.02-.83.12-1.6.12Z"/>
              <path class="cls-1" d="m192.08,131.24s-.02,0-.04,0c-.37-.05-9-1.17-12.28-2.19-3.92-1.22-5.03-1.15-6.8-.68-.15.04-.3-.05-.34-.19-.04-.15.05-.3.19-.34,1.88-.5,3.04-.58,7.1.69,3.24,1.01,12.1,2.16,12.19,2.17.15.02.26.16.24.31-.02.14-.14.24-.27.24Z"/>
              <path class="cls-1" d="m180.12,141.41c-2.02,0-3.49-.02-3.53-.02-.15,0-.27-.13-.27-.28,0-.15.12-.27.27-.27h0c.1,0,9.92.16,13.68-.35.7-.1,1.44-.16,2.16-.22,3.27-.27,6.65-.55,7.83-3.94,1.02-2.96-1.3-22.12-1.5-23.76-.69-.52-2.14-.61-3.74-.22-1.49.36-2.71,1.03-3.02,1.66.11.61.79,4.39,1.09,7.14.2,1.84-.17,5.03-.54,8.11-.25,2.09-.5,4.26-.57,5.94,0,.15-.14.27-.29.26-.15,0-.27-.13-.26-.29.07-1.71.32-3.88.57-5.99.36-3.05.73-6.21.54-7.99-.32-2.96-1.09-7.14-1.1-7.18,0-.05,0-.1.01-.15.4-1,2.1-1.73,3.43-2.06,1.88-.46,3.49-.31,4.3.4.05.04.08.11.09.17.11.85,2.6,20.92,1.49,24.11-1.29,3.73-5.01,4.04-8.3,4.31-.75.06-1.45.12-2.13.21-2.34.32-6.98.38-10.23.38Z"/>
              <path class="cls-1" d="m155.7,132.18c-.12,0-.23-.08-.26-.19-.04-.14.04-.3.18-.34l1.56-.47c.15-.04.3.04.34.18.04.14-.04.3-.18.34l-1.56.47s-.05.01-.08.01Z"/>
              <path class="cls-1" d="m167.82,129.94c-.13,0-.24-.09-.27-.21-.03-.15.06-.29.21-.33l2.93-.66c.15-.03.29.06.33.21.03.15-.06.29-.21.33l-2.93.66s-.04,0-.06,0Z"/>
              <path class="cls-17" d="m169.03,118.11l1.24-.99s-.93-5.38-3.49-6.58c-2.56-1.2-10.78-2.36-13.28.5-2.5,2.86-4.35,7.67-2.86,10.97,1.49,3.31,4.3,4.96,4.3,4.96,0,0-1.25-5.41.08-8.1,1.32-2.69,3.32-6.25,5.85-7.57,1.05-.55,2.27-.82,3.38-.54,1.56.4,2.9,1.67,3.36,2.94.78,2.17,1.43,4.4,1.43,4.4Z"/>
              <path class="cls-1" d="m159.18,180.35c-.1,0-.19-.05-.24-.14-1.89-3.34-3.23-13.51-3.42-16.82-.32-5.52-.31-24.7.01-25.66.23-.68,1.13-.82,2.39-1.01.72-.11,1.53-.23,2.4-.48,2.25-.63,10.29-6.35,11.28-9.04.58-1.59-.59-3.98-1.63-6.09-.72-1.47-1.34-2.74-1.3-3.6.06-1.19-1.35-3.84-2.89-5.46-.76-.8-1.45-1.24-1.94-1.24-5.95,0-9.03,8.75-10.08,12.51-.04.15-.19.23-.34.19-.15-.04-.23-.19-.19-.34,1.08-3.88,4.29-12.92,10.61-12.92.82,0,1.73.77,2.34,1.41,1.49,1.57,3.11,4.36,3.04,5.86-.03.72.59,1.99,1.25,3.33,1.08,2.21,2.31,4.72,1.65,6.52-1.08,2.95-9.2,8.69-11.65,9.38-.91.25-1.74.38-2.47.49-1.02.16-1.83.28-1.95.65-.26.88-.31,19.73.01,25.45.19,3.27,1.5,13.32,3.35,16.58.07.13.03.3-.1.37-.04.02-.09.04-.14.04Z"/>
              <path class="cls-1" d="m161.62,136.26c-.14,0-.25-.1-.27-.24-.12-.96-1.7-1.62-3.09-2.2-1.27-.53-2.47-1.03-2.81-1.8-.67-1.53-1.28-11.18-1.31-11.59,0-.15.11-.28.26-.29.15,0,.28.11.29.26.22,3.44.76,10.25,1.26,11.41.25.57,1.4,1.05,2.52,1.52,1.61.67,3.27,1.37,3.43,2.64.02.15-.09.29-.24.31-.01,0-.02,0-.03,0Z"/>
              <path class="cls-1" d="m156.23,136.69s-.09-.01-.13-.03c-.28-.15-.79-.32-1.39-.53-2.07-.7-5.19-1.77-6.21-4.02-.94-2.07.13-12.13.83-14.75.74-2.78,3.03-7.68,6.89-8.37,3.54-.63,7.22-.03,7.61.04.36,0,2.92.1,5.68,4.52.66,1.06.83,2.17.99,3.24.11.74.23,1.51.5,2.27.21.58.48,1.18.77,1.81,1.25,2.73,2.8,6.13-.48,9.86-.1.11-.27.12-.39.02-.11-.1-.13-.27-.03-.39,3.04-3.46,1.63-6.54.39-9.27-.29-.64-.57-1.25-.79-1.85-.29-.82-.41-1.61-.53-2.38-.16-1.07-.31-2.07-.91-3.03-2.72-4.35-5.19-4.27-5.22-4.26-.02,0-.05,0-.07,0-.04,0-3.88-.69-7.45-.05-3.59.64-5.74,5.31-6.45,7.97-.75,2.82-1.69,12.55-.86,14.38.92,2.03,3.91,3.05,5.89,3.72.65.22,1.16.39,1.48.56.13.07.18.24.11.37-.05.09-.14.14-.24.14Z"/>
              <path class="cls-1" d="m132.48,171.15s-.07,0-.1-.02c-.05-.02-.49-.2-.64-.58-.08-.19-.07-.4.03-.6.33-.68,1.7-.42,2.11-.32.15.03.24.18.2.33-.03.15-.18.24-.33.21-.68-.16-1.41-.15-1.49.02-.04.08-.03.13-.02.16.05.13.25.24.33.27.14.05.21.21.16.35-.04.11-.15.18-.26.18Z"/>
            </g>
            <path class="cls-1" d="m187.3,112.37s-.03,0-.04,0c-.15-.02-3.76-.66-5.03-5.55-.04-.15.05-.3.2-.33.15-.04.3.05.33.2,1.18,4.53,4.45,5.13,4.59,5.15.15.02.25.17.23.31-.02.13-.14.23-.27.23Z"/>
            <path class="cls-1" d="m185.84,113.32s-.06,0-.08-.01c-.11-.04-2.71-.91-4.05-4.4-.05-.14.02-.3.16-.35.14-.05.3.02.35.16,1.25,3.25,3.68,4.06,3.71,4.07.14.05.22.2.18.35-.04.12-.15.19-.26.19Z"/>
            <path class="cls-1" d="m130.87,168.43c-.1,0-.2-.06-.25-.16-.06-.14,0-.3.14-.36,4.43-2.03,7.61-.38,7.75-.31.13.07.18.24.11.37-.07.13-.24.18-.37.11-.03-.02-3.09-1.59-7.26.32-.04.02-.08.03-.11.03Z"/>
            <path class="cls-1" d="m131.88,166.4c-.11,0-.21-.07-.25-.17-.06-.14.01-.3.15-.36,3.08-1.23,5.68-.19,5.79-.15.14.06.21.22.15.36-.06.14-.22.21-.36.15-.02,0-2.51-1-5.38.15-.03.01-.07.02-.1.02Z"/>
          </g>
        </g>
        <g>
          <path class="cls-18" d="m125.89,111.71l-.12,1.56c-.11,1.44-.86,2.58-1.8,2.75l-1.03.18,1.03.18c.94.17,1.69,1.31,1.8,2.75l.12,1.57.12-1.57c.11-1.44.86-2.58,1.8-2.75l1.03-.18-1.03-.18c-.95-.17-1.69-1.31-1.8-2.75l-.12-1.56Z"/>
          <path class="cls-18" d="m160.04,82.16l-.12,1.56c-.11,1.44-.86,2.58-1.8,2.75l-1.03.18,1.03.18c.94.17,1.69,1.31,1.8,2.75l.12,1.57.12-1.57c.11-1.44.86-2.58,1.8-2.75l1.03-.18-1.03-.18c-.95-.17-1.69-1.31-1.8-2.75l-.12-1.56Z"/>
          <path class="cls-3" d="m69.05,157.72l-.12,1.56c-.11,1.44-.86,2.58-1.8,2.75l-1.03.18,1.03.18c.94.17,1.69,1.31,1.8,2.75l.12,1.57.12-1.57c.11-1.44.86-2.58,1.8-2.75l1.03-.18-1.03-.18c-.95-.17-1.69-1.31-1.8-2.75l-.12-1.56Z"/>
          <path class="cls-3" d="m1.71,162.64l-.07.91c-.06.84-.5,1.5-1.05,1.59l-.59.1.59.11c.55.1.98.76,1.05,1.59l.07.91.07-.91c.07-.83.5-1.49,1.04-1.59l.59-.11-.59-.1c-.55-.09-.98-.75-1.04-1.59l-.07-.91Z"/>
          <path class="cls-3" d="m42.97,137.66l-.07.85c-.06.78-.47,1.41-.98,1.49l-.56.1.56.1c.51.09.92.71.98,1.49l.07.85.06-.85c.06-.78.47-1.4.98-1.49l.56-.1-.56-.1c-.52-.08-.92-.71-.98-1.49l-.06-.85Z"/>
          <path class="cls-18" d="m136.23,131.48l-.07.85c-.06.78-.47,1.41-.98,1.49l-.56.1.56.1c.51.09.92.71.98,1.49l.07.85.06-.85c.06-.78.47-1.4.98-1.49l.56-.1-.56-.1c-.52-.08-.92-.71-.98-1.49l-.06-.85Z"/>
          <path class="cls-18" d="m179.23,92.07l-.07.85c-.06.78-.47,1.41-.98,1.49l-.56.1.56.1c.51.09.92.71.98,1.49l.07.85.06-.85c.06-.78.47-1.4.98-1.49l.56-.1-.56-.1c-.52-.08-.92-.71-.98-1.49l-.06-.85Z"/>
          <path class="cls-3" d="m73.67,103.42l-.07.85c-.06.78-.47,1.41-.98,1.49l-.56.1.56.1c.51.09.92.71.98,1.49l.07.85.06-.85c.06-.78.47-1.4.98-1.49l.56-.1-.56-.1c-.52-.08-.92-.71-.98-1.49l-.06-.85Z"/>
          <path class="cls-3" d="m10.63,181.58l-.11,1.53c-.11,1.41-.84,2.52-1.76,2.68l-1,.18,1,.18c.92.16,1.65,1.27,1.76,2.68l.11,1.53.12-1.53c.11-1.41.84-2.52,1.76-2.68l1-.18-1-.18c-.92-.16-1.65-1.27-1.76-2.68l-.12-1.53Z"/>
          <path class="cls-3" d="m8.19,132.15l-.11,1.53c-.11,1.41-.84,2.52-1.76,2.68l-1.01.18,1.01.18c.92.16,1.65,1.27,1.76,2.68l.11,1.53.12-1.53c.11-1.41.84-2.52,1.76-2.68l1-.18-1-.18c-.92-.16-1.65-1.27-1.76-2.68l-.12-1.53Z"/>
          <path class="cls-3" d="m63.64,120.98l-.11,1.54c-.11,1.4-.84,2.51-1.76,2.68l-1,.17,1,.18c.93.17,1.66,1.27,1.76,2.68l.11,1.53.12-1.53c.11-1.41.84-2.52,1.76-2.68l1-.18-1-.17c-.92-.17-1.65-1.28-1.76-2.68l-.12-1.54Z"/>
        </g>
      </g>
    </g>
  </g>
</svg>