<?xml version="1.0" encoding="UTF-8"?>
<svg id="_レイヤー_2" data-name="レイヤー 2" xmlns="http://www.w3.org/2000/svg" viewBox="0 0 90.23 115.72">
  <defs>
    <style>
      .cls-1 {
        fill: #ffafa9;
      }

      .cls-2, .cls-3 {
        fill: #262626;
      }

      .cls-4 {
        fill: #fff;
      }

      .cls-5, .cls-6 {
        fill: #ffddc0;
      }

      .cls-5, .cls-7, .cls-3 {
        fill-rule: evenodd;
      }

      .cls-8 {
        fill: #e0ba92;
      }

      .cls-9 {
        fill: none;
        stroke: #262626;
        stroke-linecap: round;
        stroke-linejoin: round;
      }

      .cls-10 {
        fill: #e0efca;
      }

      .cls-11 {
        fill: #fff1b6;
      }

      .cls-12 {
        fill: #ddd8ce;
      }

      .cls-13 {
        fill: #fffef0;
      }

      .cls-14 {
        fill: #e1f3f9;
      }

      .cls-7 {
        fill: #f4f4f4;
      }

      .cls-15 {
        fill: #fff400;
      }

      .cls-16 {
        fill: #bfd6e8;
      }
    </style>
  </defs>
  <g id="illustration">
    <g>
      <g>
        <g>
          <path class="cls-4" d="m79.46,14.62c-.55-5.99-4.58-11.36-10.67-13.33-4.79-1.55-9.79-.64-13.63,2.03-3.82-2.68-8.81-3.61-13.6-2.09-6.08,1.93-10.13,7.27-10.73,13.23-6.14,2.14-10.5,8.04-10.38,14.89,0,0,0,.01,0,.01.08,6.63,4.34,12.28,10.3,14.4.32,3.42,1.78,6.63,4.11,9.12-.5,3.56-2.88,7.31-4.34,7.69,3.6.05,6.61-2.01,8.85-4.36.66.32,1.35.61,2.07.84,4.79,1.54,9.78.62,13.62-2.05,2.57,1.8,5.67,2.81,8.89,2.81,1.56,0,3.15-.24,4.72-.74,6.08-1.94,10.13-7.29,10.71-13.27,6.11-2.15,10.45-8.03,10.34-14.86-.1-6.64-4.37-12.23-10.26-14.35Z"/>
          <path class="cls-9" d="m79.46,14.62c-.55-5.99-4.58-11.36-10.67-13.33-4.79-1.55-9.79-.64-13.63,2.03-3.82-2.68-8.81-3.61-13.6-2.09-6.08,1.93-10.13,7.27-10.73,13.23-6.14,2.14-10.5,8.04-10.38,14.89,0,0,0,.01,0,.01.08,6.63,4.34,12.28,10.3,14.4.32,3.42,1.78,6.63,4.11,9.12-.5,3.56-2.88,7.31-4.34,7.69,3.6.05,6.61-2.01,8.85-4.36.66.32,1.35.61,2.07.84,4.79,1.54,9.78.62,13.62-2.05,2.57,1.8,5.67,2.81,8.89,2.81,1.56,0,3.15-.24,4.72-.74,6.08-1.94,10.13-7.29,10.71-13.27,6.11-2.15,10.45-8.03,10.34-14.86-.1-6.64-4.37-12.23-10.26-14.35Z"/>
        </g>
        <g>
          <path class="cls-2" d="m45.43,24.68c-.32.09-.64.2-.97.3v3.21h-.98v-2.91c-.49.14-.94.29-1.35.4l-.26-1.02c.45-.1,1-.24,1.61-.41v-1.72h-.6c-.1.44-.21.83-.33,1.15-.16-.14-.56-.38-.76-.5.28-.71.43-1.84.51-2.9l.89.15c-.04.36-.08.71-.14,1.07h.42v-1.73h.98v1.73h.75v1.02h-.75v1.45l.83-.23.14.95Zm4.84-3.52s0,.36-.02.49c-.17,4.02-.33,5.48-.67,5.93-.21.31-.41.41-.7.47-.25.04-.63.04-1.02.03-.03-.31-.13-.75-.3-1.04.33.04.63.04.8.04.13,0,.23-.04.33-.17.23-.29.39-1.51.53-4.74h-.05c-.44,2.27-1.37,4.61-2.82,5.81-.21-.21-.58-.47-.87-.62,1.44-1.04,2.34-3.08,2.79-5.19h-.42c-.4,1.47-1.15,3.08-2.06,3.94-.2-.21-.54-.45-.82-.6.89-.7,1.59-2.03,1.99-3.34h-.46c-.26.62-.58,1.18-.93,1.61-.17-.17-.59-.47-.81-.6.71-.78,1.21-2.07,1.48-3.39l.97.18c-.09.41-.21.82-.33,1.22h3.38Z"/>
          <path class="cls-2" d="m53.82,20.13c-.24.64-.54,1.3-.88,1.92v6.12h-1.02v-4.53c-.18.23-.36.45-.54.65-.1-.27-.4-.85-.58-1.12.79-.81,1.56-2.09,2-3.37l1.02.32Zm5.46,5.02h-2.3v3.02h-1.08v-3.02h-2.43v-1.04h2.43v-1.55h-1.1c-.16.44-.36.85-.56,1.16-.2-.14-.67-.4-.93-.51.49-.7.86-1.85,1.06-2.94l1.04.22c-.07.35-.16.69-.26,1.04h.75v-1.63h1.08v1.63h1.88v1.04h-1.88v1.55h2.3v1.04Z"/>
          <path class="cls-2" d="m63.57,21.09c-.05.27-.13.6-.19.93.31-.02.57-.04.76-.04.95,0,1.63.42,1.63,1.72,0,1.06-.13,2.52-.51,3.3-.3.63-.79.83-1.48.83-.34,0-.77-.06-1.08-.13l-.19-1.19c.34.1.86.19,1.1.19.31,0,.53-.09.68-.39.24-.51.37-1.6.37-2.49,0-.72-.32-.82-.87-.82-.14,0-.37.02-.63.04-.34,1.37-1.01,3.5-1.84,4.83l-1.17-.47c.87-1.18,1.49-3,1.83-4.23-.32.04-.61.07-.77.09-.26.04-.73.11-1.01.15l-.11-1.22c.33.03.63,0,.96,0,.28,0,.7-.04,1.16-.08.13-.68.21-1.33.19-1.9l1.34.13c-.05.23-.12.52-.16.75Zm3.82.14l-.44.19c.54.84,1.22,2.34,1.47,3.14l-1.14.52c-.23-1-.87-2.58-1.51-3.38l.81-.35c-.18-.34-.41-.77-.61-1.06l.71-.3c.23.33.55.9.72,1.23Zm1.07-.41l-.71.31c-.19-.37-.48-.9-.73-1.24l.72-.29c.23.34.57.91.72,1.22Z"/>
          <path class="cls-2" d="m41.83,38.09c.31,0,.36-.15.4-1.2.23.17.7.35.98.42-.12,1.42-.4,1.79-1.29,1.79h-1.19c-1.07,0-1.32-.32-1.32-1.33v-1.44h-1.09c-.19,1.43-.72,2.38-2.94,2.88-.1-.29-.39-.73-.59-.95,1.85-.34,2.23-.95,2.39-1.93h-1.1v-5.28h5.89v5.28h-1.47v1.43c0,.29.05.32.4.32h.94Zm-4.72-5.55h3.76v-.56h-3.76v.56Zm0,1.42h3.76v-.56h-3.76v.56Zm0,1.43h3.76v-.56h-3.76v.56Z"/>
          <path class="cls-2" d="m44.95,33.19c.69-.22,2.53-.86,3.84-.86,1.63,0,2.91.94,2.91,2.6,0,2.04-1.94,3.35-5.11,3.51l-.52-1.2c2.44-.06,4.35-.77,4.35-2.33,0-.85-.59-1.49-1.67-1.49-1.32,0-3.46.9-4.39,1.31l-.51-1.26c.33-.05.78-.18,1.11-.27Z"/>
          <path class="cls-2" d="m56.01,32.03c-.06.27-.13.6-.19.93.3-.02.57-.04.76-.04.95,0,1.63.42,1.63,1.72,0,1.06-.13,2.52-.51,3.3-.3.63-.8.83-1.48.83-.35,0-.77-.06-1.08-.13l-.2-1.19c.35.1.86.19,1.11.19.3,0,.53-.09.68-.39.24-.51.36-1.6.36-2.49,0-.72-.31-.82-.87-.82-.14,0-.37.02-.62.04-.34,1.37-1.01,3.5-1.84,4.83l-1.17-.47c.87-1.18,1.49-3,1.82-4.23-.32.04-.6.07-.77.09-.25.04-.73.11-1,.15l-.11-1.22c.32.03.63,0,.96,0,.28,0,.7-.04,1.16-.07.13-.68.2-1.34.19-1.91l1.34.13c-.05.23-.12.52-.16.75Zm4.84,3.45l-1.14.53c-.23-1-.87-2.63-1.51-3.42l1.07-.46c.56.77,1.31,2.49,1.58,3.35Z"/>
          <path class="cls-2" d="m62.23,34.34c.61-.19,2.14-.7,3.23-.7,1.42,0,2.38.85,2.38,2.21,0,1.63-1.43,2.74-4.29,2.92l-.48-1.11c2.06-.05,3.57-.6,3.57-1.83,0-.68-.5-1.14-1.29-1.14-1.04,0-2.85.75-3.61,1.07l-.47-1.17c.27-.05.68-.16.95-.24Z"/>
          <path class="cls-2" d="m68.96,32.15c.75-.06,2.23-.2,3.88-.34.93-.07,1.92-.14,2.55-.15v1.15c-.48,0-1.25,0-1.73.12-1.09.29-1.9,1.46-1.9,2.53,0,1.48,1.39,2.02,2.91,2.1l-.42,1.23c-1.88-.13-3.66-1.14-3.66-3.09,0-1.3.73-2.32,1.33-2.78-.85.09-2.68.29-3.73.51l-.12-1.23c.36,0,.71-.03.89-.04Z"/>
        </g>
        <g>
          <path class="cls-2" d="m45.66,13.38c-.01,1.44.07,2.57.41,2.57.09,0,.11-.32.13-.8.14.16.32.34.46.44-.05.75-.18,1.07-.64,1.07-.88,0-1.05-1.15-1.09-2.68h-3.21v-.5l-.05.05c-.14-.12-.47-.35-.65-.45.59-.45,1.04-1.22,1.28-2.05l.74.16c-.05.15-.1.3-.15.44h3.54v.59h-3.81c-.05.1-.1.19-.16.28h3.42v.58h-3.46v-.5c-.19.31-.39.58-.61.8h3.84Zm-1.2.86c-.18.33-.39.64-.64.92.38.26.71.53.95.77l-.57.54c-.21-.23-.53-.5-.89-.77-.47.43-1.01.79-1.57,1.06-.11-.15-.37-.43-.53-.56.56-.22,1.07-.53,1.52-.91-.34-.23-.69-.44-1.01-.62l.51-.47c.31.16.66.37,1,.58.21-.24.38-.5.53-.77l.69.23Z"/>
          <path class="cls-2" d="m48.46,12.07c-.08.4-.29,1.6-.29,2.2,0,.11,0,.27.02.39.09-.2.19-.41.27-.61l.37.29c-.17.5-.37,1.15-.43,1.47-.02.09-.03.22-.03.28,0,.07,0,.16.01.25l-.7.05c-.12-.41-.23-1.15-.23-1.96,0-.9.19-1.91.25-2.37.02-.17.05-.4.06-.59l.84.07c-.05.13-.13.43-.15.53Zm1.48,2.93c0,.26.23.43.84.43.53,0,.98-.05,1.51-.16v.81c-.38.07-.86.11-1.54.11-1.03,0-1.53-.37-1.53-.98,0-.23.04-.47.1-.78l.69.07c-.05.2-.07.34-.07.5Zm2.17-3.07v.77c-.74.07-1.82.07-2.58,0v-.77c.74.1,1.93.07,2.58,0Z"/>
          <path class="cls-2" d="m56.13,11.39c0,1.13.16,3.32,2.37,4.62-.16.13-.45.44-.58.62-1.24-.75-1.88-1.88-2.21-2.96-.45,1.34-1.17,2.34-2.21,2.96-.13-.15-.47-.44-.65-.58,1.25-.63,1.96-1.79,2.29-3.36l.37.07c-.04-.23-.07-.44-.08-.65h-1.37v-.73h2.07Z"/>
          <path class="cls-2" d="m59.54,13.43c.41-.13,1.43-.47,2.15-.47.95,0,1.58.56,1.58,1.47,0,1.09-.95,1.82-2.86,1.94l-.32-.74c1.37-.04,2.38-.4,2.38-1.22,0-.45-.34-.76-.86-.76-.7,0-1.9.5-2.4.71l-.31-.78c.18-.04.46-.11.64-.16Z"/>
          <path class="cls-2" d="m66.16,11.91c-.01.07-.03.14-.05.23.34-.05.67-.11,1-.19v.75c-.36.08-.77.15-1.17.2-.05.26-.11.52-.18.77-.22.84-.62,2.06-.95,2.78l-.83-.28c.36-.6.82-1.86,1.04-2.7.04-.16.09-.33.13-.5-.14,0-.27.01-.4.01-.29,0-.52-.01-.73-.02l-.02-.75c.31.04.51.05.76.05.17,0,.35,0,.54-.02.02-.13.04-.25.05-.34.02-.22.04-.47.02-.61l.92.07c-.05.16-.1.43-.13.56Zm.72,3.26c0,.26.18.46.82.46.4,0,.82-.05,1.25-.13l-.03.77c-.34.04-.74.08-1.22.08-1.01,0-1.55-.35-1.55-.95,0-.28.06-.56.11-.8l.71.07c-.05.17-.08.37-.08.5Zm.91-2.07c.34,0,.7.02,1.06.05l-.02.72c-.3-.04-.67-.07-1.03-.07-.41,0-.78.02-1.16.06v-.7c.34-.03.77-.06,1.15-.06Z"/>
        </g>
        <g>
          <path class="cls-2" d="m44.86,45.5c-.41.31-.91.63-1.34.87.42.29.95.49,1.61.59-.16.15-.35.45-.45.65-1.49-.31-2.32-1.06-2.82-2.33h-.76v1.37c.44-.06.92-.13,1.37-.21l.04.67c-.91.16-1.89.31-2.61.43l-.17-.7c.19-.02.4-.05.64-.08v-4.2h1.55v-.58h.74v.58h1.75v2.58l.47.37Zm-3.77-2.33v.44h2.57v-.44h-2.57Zm0,1.49h2.57v-.47h-2.57v.47Zm1.5.62c.12.25.27.48.46.68.32-.19.69-.44.99-.68h-1.45Z"/>
          <path class="cls-2" d="m47.98,42.84c-.04.18-.08.4-.13.62.2-.01.38-.02.5-.02.64,0,1.08.28,1.08,1.15,0,.71-.08,1.68-.34,2.2-.2.42-.53.55-.98.55-.23,0-.52-.04-.72-.08l-.13-.79c.23.07.58.13.74.13.2,0,.35-.06.45-.26.16-.34.24-1.07.24-1.66,0-.48-.2-.55-.58-.55-.1,0-.25.01-.41.02-.23.91-.67,2.33-1.22,3.21l-.78-.31c.58-.79,1-2,1.21-2.82-.22.02-.4.05-.52.06-.17.03-.49.07-.67.1l-.07-.82c.22.02.42,0,.64,0,.19,0,.47-.02.77-.05.08-.46.13-.89.13-1.27l.89.09c-.04.16-.08.35-.11.5Zm3.23,2.3l-.76.35c-.16-.67-.58-1.75-1.01-2.28l.71-.31c.37.52.88,1.66,1.06,2.23Z"/>
          <path class="cls-2" d="m52.14,44.38c.41-.13,1.43-.47,2.15-.47.95,0,1.58.56,1.58,1.47,0,1.09-.95,1.82-2.86,1.94l-.32-.74c1.37-.04,2.38-.4,2.38-1.22,0-.45-.34-.76-.86-.76-.7,0-1.9.5-2.4.71l-.31-.78c.18-.04.46-.11.64-.16Z"/>
          <path class="cls-2" d="m58.75,42.86c-.01.07-.03.14-.05.23.34-.05.67-.11,1-.19v.75c-.36.08-.77.15-1.17.2-.05.26-.11.52-.18.77-.22.84-.62,2.06-.95,2.78l-.83-.28c.36-.6.82-1.86,1.04-2.7.04-.16.09-.33.13-.5-.14,0-.27.01-.4.01-.29,0-.52-.01-.73-.02l-.02-.75c.31.04.51.05.76.05.17,0,.35,0,.54-.02.02-.13.04-.25.05-.34.02-.22.04-.47.02-.61l.92.07c-.05.16-.1.43-.13.56Zm.72,3.26c0,.26.18.46.82.46.4,0,.82-.05,1.25-.13l-.03.77c-.34.04-.74.08-1.22.08-1.01,0-1.55-.35-1.55-.95,0-.28.06-.56.11-.8l.71.07c-.05.17-.08.37-.08.5Zm.91-2.07c.34,0,.7.02,1.06.05l-.02.72c-.3-.04-.67-.07-1.03-.07-.41,0-.78.02-1.16.06v-.7c.34-.03.77-.06,1.15-.06Z"/>
          <path class="cls-2" d="m63.52,42.22l.88.03c-.04.17-.08.47-.13.85l.22.28c-.08.11-.2.31-.31.46,0,.02,0,.04,0,.05.49-.42,1.13-.86,1.75-.86.85,0,1.36.71,1.36,1.8,0,.35-.02.67-.07.97.21.15.41.33.62.55l-.39.62c-.14-.17-.29-.32-.44-.46-.22.46-.59.73-1.19.73-.67,0-1.18-.29-1.18-.97,0-.54.46-.94,1.19-.94.24,0,.47.04.69.11.02-.2.03-.42.03-.65,0-.64-.29-1.07-.76-1.07-.54,0-1.19.53-1.67,1.07-.01.2-.02.4-.02.58,0,.49,0,1,.04,1.56,0,.11.02.32.04.46h-.83c.01-.13.02-.35.02-.44.01-.47.02-.82.02-1.32-.25.38-.55.82-.76,1.1l-.47-.65c.34-.42.94-1.21,1.28-1.72.01-.14.02-.28.03-.42-.29.04-.76.09-1.09.14l-.08-.77c.17,0,.31,0,.52,0,.17-.01.44-.04.7-.08.01-.23.02-.4.02-.46,0-.17,0-.35-.02-.54Zm2.25,4.35c.29,0,.48-.19.6-.49-.2-.1-.41-.15-.61-.15-.25,0-.47.11-.47.31,0,.24.22.33.48.33Z"/>
          <path class="cls-2" d="m68.83,46.61c0-.32.23-.53.53-.53s.53.22.53.53-.23.53-.53.53-.53-.22-.53-.53Zm.06-3.12l-.03-.89h1l-.03.89-.16,2.05h-.61l-.16-2.05Z"/>
        </g>
      </g>
      <g>
        <g>
          <path class="cls-15" d="m26.45,47.9l-.05.71c-.05.66-.39,1.18-.82,1.26l-.47.08.47.08c.43.08.77.6.82,1.25l.05.72.05-.72c.05-.66.39-1.18.82-1.25l.47-.08-.47-.08c-.43-.08-.77-.6-.82-1.26l-.05-.71Z"/>
          <path class="cls-15" d="m58.57,60.16l-.05.71c-.05.66-.39,1.18-.82,1.26l-.47.08.47.08c.43.08.77.6.82,1.25l.05.72.05-.72c.05-.66.39-1.18.82-1.25l.47-.08-.47-.08c-.43-.08-.77-.6-.82-1.26l-.05-.71Z"/>
          <path class="cls-15" d="m15.53,46.48l-.03.39c-.03.36-.21.64-.45.68l-.25.05.25.04c.23.04.42.32.45.68l.03.39.03-.39c.03-.35.21-.64.45-.68l.25-.04-.25-.05c-.23-.04-.42-.32-.45-.68l-.03-.39Z"/>
          <path class="cls-15" d="m52.83,60.23l-.03.39c-.03.36-.21.64-.45.68l-.25.05.25.04c.23.04.42.32.45.68l.03.39.03-.39c.03-.35.21-.64.45-.68l.25-.04-.25-.05c-.23-.04-.42-.32-.45-.68l-.03-.39Z"/>
          <path class="cls-15" d="m56.78,66.53l-.03.39c-.03.36-.21.64-.45.68l-.25.05.25.04c.23.04.42.32.45.68l.03.39.03-.39c.03-.35.21-.64.45-.68l.25-.04-.25-.05c-.23-.04-.42-.32-.45-.68l-.03-.39Z"/>
          <path class="cls-15" d="m9.05,59.76l-.03.39c-.03.36-.21.64-.45.68l-.25.05.25.04c.23.04.42.32.45.68l.03.39.03-.39c.03-.35.21-.64.45-.68l.25-.04-.25-.05c-.23-.04-.42-.32-.45-.68l-.03-.39Z"/>
          <path class="cls-15" d="m12.61,52.2l-.05.7c-.05.64-.38,1.15-.8,1.22l-.46.08.46.08c.42.08.76.58.8,1.22l.05.7.05-.7c.05-.64.38-1.15.8-1.22l.46-.08-.46-.08c-.42-.08-.75-.58-.8-1.22l-.05-.7Z"/>
        </g>
        <g>
          <polygon class="cls-8" points="54.75 110.93 54.27 110.57 54.75 97.11 55.79 96.74 54.75 110.93"/>
          <polygon class="cls-8" points="8.69 110.93 9.17 110.57 8.69 97.11 7.6 96.2 8.69 110.93"/>
          <polygon class="cls-8" points="6.1 72.29 6.7 71.83 56.9 71.83 57.77 72.29 6.1 72.29"/>
          <path class="cls-2" d="m57.77,72.42s-.04,0-.06-.01l-.84-.44H6.74l-.57.43c-.06.04-.14.03-.18-.03-.04-.06-.03-.14.03-.18l.6-.45s.05-.03.08-.03h50.2s.04,0,.06.01l.87.45c.06.03.09.11.05.17-.02.04-.07.07-.11.07Z"/>
          <polygon class="cls-8" points=".13 88.72 7.18 84.29 56.3 84.55 63.6 88.72 62.34 95.29 1.79 95.29 .13 88.72"/>
          <polygon class="cls-8" points="57.17 90.57 6.7 90.57 6.1 72.29 57.77 72.29 57.17 90.57"/>
          <g>
            <path class="cls-2" d="m6.58,94.22s-.05,0-.08-.03c-.06-.04-.07-.12-.02-.18l2-2.6c.04-.06.12-.07.18-.02.06.04.07.12.02.18l-2,2.6s-.06.05-.1.05Z"/>
            <path class="cls-2" d="m10.4,94.2c-.05-.04-.07-.12-.03-.18l1.7-2.59c.04-.06.11-.07.17-.04.06.04.07.11.04.17l-1.61,2.5s-.08.11-.08.11c0,0-.01.02-.02.02-.02.01-.04.02-.07.03,0,0,0,0-.01,0-.03,0-.06,0-.08-.03Z"/>
            <path class="cls-2" d="m14.3,94.19s-.07-.12-.03-.17l1.4-2.59c.03-.06.1-.08.16-.05.06.03.08.1.05.16l-1.31,2.51s-.07.11-.07.12c0,0-.01.02-.02.02-.02.02-.04.02-.07.03,0,0-.01,0-.02,0-.03,0-.06-.01-.08-.03Z"/>
            <path class="cls-2" d="m18.2,94.19s-.07-.12-.04-.17l1.1-2.58c.02-.06.09-.08.14-.06.06.02.08.09.06.14l-1.01,2.52s-.06.11-.07.12c0,0-.01.02-.02.02-.02.02-.04.02-.07.03,0,0-.01,0-.02,0-.03,0-.06-.01-.08-.03Z"/>
            <path class="cls-2" d="m22.1,94.19s-.07-.12-.05-.16l.8-2.57c.02-.06.08-.09.13-.07.06.02.09.08.07.13l-.71,2.53s-.05.11-.06.12c0,0-.02.02-.02.02-.02.02-.04.02-.07.03,0,0-.01,0-.02,0-.03,0-.06-.01-.08-.03Z"/>
            <path class="cls-2" d="m26,94.19s-.08-.12-.05-.16l.5-2.56c.01-.06.06-.09.12-.08.06,0,.09.06.08.12l-.41,2.54s-.04.11-.05.13c0,0-.02.02-.02.02-.02.02-.05.02-.07.03,0,0-.01,0-.02,0-.03,0-.06-.01-.08-.04Z"/>
            <path class="cls-2" d="m29.9,94.19s-.08-.12-.06-.15l.2-2.55c0-.06.05-.1.11-.1.06,0,.1.05.1.11l-.11,2.54s-.03.11-.04.13c0,0-.02.02-.02.02-.02.02-.05.02-.07.03,0,0-.01,0-.02,0-.03,0-.06-.01-.08-.04Z"/>
            <path class="cls-2" d="m33.8,94.18s-.08-.12-.06-.15l-.1-2.54c0-.06.04-.1.1-.11s.1.04.11.1l.19,2.55s-.02.11-.04.13c0,0-.02.02-.02.03-.02.02-.05.03-.07.03,0,0-.01,0-.02,0-.03,0-.06-.02-.08-.04Z"/>
            <path class="cls-2" d="m37.7,94.18s-.08-.12-.07-.14l-.4-2.53c0-.06.03-.11.08-.12.06,0,.11.03.12.08l.49,2.56s-.01.11-.03.14c0,0-.02.02-.03.03-.02.02-.05.03-.07.03,0,0-.01,0-.02,0-.03,0-.06-.02-.08-.04Z"/>
            <path class="cls-2" d="m41.6,94.18s-.08-.12-.07-.14l-.7-2.52c-.02-.06.02-.12.07-.13.06-.02.12.02.13.07l.79,2.57s0,.11-.02.14c0,0-.02.02-.03.03-.02.02-.05.03-.07.03,0,0-.01,0-.02,0-.03,0-.06-.02-.08-.04Z"/>
            <path class="cls-2" d="m45.5,94.18s-.09-.12-.08-.13l-1-2.51c-.02-.06,0-.12.06-.14s.12,0,.14.06l1.09,2.58s0,.11-.02.14c0,0-.02.02-.03.03-.02.02-.05.03-.07.03,0,0-.01,0-.02,0-.03,0-.06-.02-.08-.04Z"/>
            <path class="cls-2" d="m49.4,94.18s-.09-.12-.08-.13l-1.3-2.5c-.03-.06,0-.13.05-.16.06-.03.13,0,.16.05l1.39,2.59s.02.11-.01.15c0,0-.02.02-.03.03-.02.02-.05.03-.08.03,0,0-.01,0-.02,0-.03,0-.06-.02-.08-.05Z"/>
            <path class="cls-2" d="m53.3,94.18s-.09-.12-.09-.13l-1.6-2.49c-.04-.06-.02-.13.04-.17.06-.04.13-.02.17.04l1.7,2.6s.03.11,0,.15c0,0-.02.02-.03.03-.02.02-.05.03-.08.03,0,0-.01,0-.02,0-.03,0-.06-.02-.08-.05Z"/>
            <path class="cls-2" d="m57.3,94.22s-.08-.02-.1-.05l-2-2.6c-.04-.06-.03-.14.02-.18.06-.04.14-.03.18.02l2,2.6c.04.06.03.14-.02.18-.02.02-.05.03-.08.03Z"/>
          </g>
          <path class="cls-8" d="m2.31,114.69l.91-.53s-.41-12.8-.91-17.05l-1.32-1.12,1.32,18.7Z"/>
          <path class="cls-2" d="m30.55,89.19c-.07,0-.13-.06-.13-.12-.2-6.92,0-15.21,0-15.29,0-.07.06-.13.13-.13.07,0,.13.06.13.13,0,.08-.2,8.37,0,15.28,0,.07-.05.13-.12.13h0Z"/>
          <path class="cls-2" d="m54.19,89.21h0c-.07,0-.13-.06-.13-.13.1-6.92.65-15.19.65-15.28,0-.07.07-.12.14-.12.07,0,.12.07.12.14,0,.08-.56,8.35-.65,15.26,0,.07-.06.13-.13.13Z"/>
          <path class="cls-2" d="m33.51,87.17c-.07,0-.13-.06-.13-.12-.2-6.92.09-12.98.09-13.05,0-.07.07-.12.13-.12.07,0,.13.06.12.13,0,.06-.29,6.12-.09,13.03,0,.07-.05.13-.12.13h0Z"/>
          <path class="cls-2" d="m9.36,89.91s0,0,0,0c-.07,0-.13-.06-.12-.13.2-5.43,0-16.56,0-16.67,0-.07.06-.13.13-.13.07,0,.13.06.13.13,0,.11.2,11.25,0,16.69,0,.07-.06.12-.13.12Z"/>
          <path class="cls-8" d="m61.42,114.81l-.91-.53s.41-12.8.91-17.05l1.38-.91-1.38,18.49Z"/>
          <path class="cls-8" d="m7.18,96.6s.25,10.32.31,14.33h1.2s-.19-12.2-.51-14.73l-1.01.41Z"/>
          <path class="cls-8" d="m56.3,96.6s-.25,10.32-.31,14.33h-1.2s.19-12.2.51-14.73l1.01.41Z"/>
          <path class="cls-2" d="m8.69,111.06h-1.2c-.07,0-.13-.06-.13-.13-.06-3.96-.31-14.23-.31-14.33,0-.05.03-.1.08-.12l1.01-.41s.08-.01.11,0c.03.02.06.06.06.09.31,2.51.51,14.63.51,14.75,0,.03-.01.07-.04.09-.02.02-.06.04-.09.04Zm-1.07-.26h.94c-.02-1.29-.2-11.76-.49-14.42l-.77.31c.02,1.01.25,10.27.31,14.12Z"/>
          <path class="cls-2" d="m55.99,111.06h-1.2s-.07-.01-.09-.04c-.02-.02-.04-.06-.04-.09,0-.12.2-12.24.51-14.75,0-.04.03-.07.06-.09.03-.02.08-.02.11,0l1.01.41s.08.07.08.12c0,.1-.25,10.37-.31,14.33,0,.07-.06.13-.13.13Zm-1.07-.26h.94c.06-3.85.29-13.1.31-14.12l-.77-.31c-.28,2.66-.47,13.13-.49,14.42Z"/>
          <path class="cls-14" d="m39.81,64.28s1.27,4.06,3.92,4.21c2.65.16,4.51-3.47,4.51-3.47l-.65-.17c.16-.58-.77-.96-1.4-.38l-4.43-.6c-.8-.33-1.37-.37-1.4.29l-.55.11Z"/>
          <rect class="cls-8" x="1.45" y="95.29" width="60.89" height="1.82"/>
          <polygon class="cls-6" points="34.68 75.15 33.09 77.8 35.79 80.46 35.79 76.11 34.68 75.15"/>
          <path class="cls-2" d="m57.17,90.7H6.7c-.07,0-.13-.05-.13-.12l-.6-18.29s.01-.07.04-.09c.02-.02.06-.04.09-.04h51.67s.07.01.09.04c.02.02.04.06.04.09l-.6,18.29c0,.07-.06.12-.13.12Zm-50.35-.26h50.22l.59-18.03H6.23l.59,18.03Z"/>
          <path class="cls-14" d="m40.25,64.18s-4.83,1.06-5.57,1.98c-.64.79-2.43,11.09-2.79,12.26-.35,1.17.1,3.07,1.13,3.67.91.53,2.39.36,2.72-.66.16-.51.29-2.08.29-2.08,0,0-2.19.38-2.52-2.5l-1.01,1.11.94-.72,6.81-13.06Z"/>
          <path class="cls-14" d="m47.59,64.86s4.8,1.19,5.52,2.12c.62.8,2.27,10.68,2.46,12.33.14,1.21-.07,3.35-1.23,3.64-1.86.47-3.28-1.94-3.28-1.94,0,0,2.26.25,2.67-2.62l1.18.96-5.53-1.69-1.79-12.8Z"/>
          <path class="cls-1" d="m48.24,65.03s-1.8,3.57-4.7,3.57c-1.38,0-3.53-2.9-3.73-4.32l-1.03.26-3.93,1.46,1.93,4.12-.76,8.53.07,4.77,5.02,3.38s4.26.39,6.08-.11l3.88-2.65c-.04-1.07-.22-3.79-.22-3.79l-.7-6.99c.66-2.84,1.39-5.51,2.76-6.49l-4.65-1.75Z"/>
          <path class="cls-4" d="m34.85,68.6l.56-.11c.13.02.12-.03.39,0,.08,0-.09-.64,0-.63,1.63.18,5.3,1.33,6.82,2.63,0,0,3.88-1.69,7.94-.81l.28.34-8.24.96-7.75-2.39Z"/>
          <path class="cls-2" d="m35.79,79.49c-.07,0-.13-.06-.13-.13v-1.95c0-.07.06-.13.13-.13s.13.06.13.13v1.95c0,.07-.06.13-.13.13Z"/>
          <path class="cls-12" d="m46.75,107.14c.76.06,1.21.91,1.21.91.07,1.09.02,1.97.17,2.69.33,1.54.78,2.23.69,2.74.72.69-1.27,1.24-2.07,1.22-.98-.02-3.4-.81-2.52-1.7-.11-.69.53-2.1.76-3.74.08-.63-.01-1.67.21-1.65.53.07.8-.52,1.55-.47Z"/>
          <path class="cls-2" d="m46.99,114.29s-.06,0-.09,0c-1.02-.02-2.68-.6-2.8-1.28-.06-.4.09-.98.29-1.71.17-.62.36-1.31.46-2.07.03-.22.04-.49.04-.75.01-.55.03-.84.16-.95.04-.04.09-.05.15-.05.21.03.37-.06.57-.18.24-.14.54-.32.98-.28h0c.82.06,1.3.94,1.32.97,0,.02.01.03.02.05.03.4.04.76.05,1.1.02.6.03,1.12.12,1.57.15.7.32,1.21.46,1.63.17.51.28.85.23,1.16-.11.56-1.2.8-1.96.8Zm-1.77-6.56c-.05.11-.05.49-.06.75,0,.27-.01.55-.04.78-.11.77-.3,1.48-.47,2.1-.18.67-.34,1.26-.29,1.6.08.49,1.57,1.05,2.55,1.06.86.02,1.73-.26,1.79-.59.04-.24-.06-.56-.22-1.03-.14-.42-.32-.95-.47-1.66-.1-.47-.11-1-.13-1.61,0-.34-.02-.69-.04-1.06-.08-.13-.49-.77-1.1-.82h0c-.36-.03-.6.11-.83.25-.2.12-.42.25-.69.22Z"/>
          <path class="cls-2" d="m46.92,114.82c-.06,0-.11,0-.17,0-1.01-.04-2.74-.67-2.87-1.32-.1-.51.25-1.21.27-1.24.03-.06.11-.09.17-.06.06.03.09.11.06.17,0,0-.33.65-.25,1.08.09.43,1.59,1.07,2.63,1.12,1.01.04,1.91-.33,2.08-.69.05-.11-.05-.49-.18-.77-.03-.07,0-.14.07-.17.07-.03.14,0,.17.07.05.12.29.72.17.98-.23.48-1.18.84-2.16.84Z"/>
          <path class="cls-2" d="m47.32,109.13s-.04,0-.05-.01c-.34-.15-.77-.28-1.43-.11-.07.02-.14-.02-.16-.09-.02-.07.02-.14.09-.16.74-.2,1.22-.05,1.6.12.06.03.09.11.06.17-.02.05-.07.08-.12.08Z"/>
          <path class="cls-2" d="m47.35,109.94s-.04,0-.05-.01c0,0,0,0-.01,0-.07-.03-.75-.32-1.43-.1-.07.02-.14-.02-.16-.08-.02-.07.02-.14.08-.16.67-.22,1.36,0,1.6.11,0,0,.02,0,.03,0h0s.05.04.06.05c.03.05.03.11,0,.15-.02.03-.06.04-.1.04Z"/>
          <path class="cls-2" d="m47.37,110.7s-.04,0-.05-.01c0,0-.79-.36-1.54-.1-.07.02-.14-.01-.16-.08-.02-.07.01-.14.08-.16.85-.29,1.7.09,1.73.11.06.03.09.11.06.17-.02.05-.07.07-.12.07Z"/>
          <path class="cls-6" d="m40.53,106.25v1.98l1.32.2s.23-1.26,0-2.02c-.23-.76-1.32-.16-1.32-.16Z"/>
          <path class="cls-2" d="m41.98,107.79c-.06,0-.12-.04-.13-.11-.05-.27-.05-.4-.06-.56,0-.1,0-.21-.02-.38-.01-.14-.03-.25-.06-.37-.06-.28-.13-.63-.13-1.53,0-.07.06-.13.13-.13h0c.07,0,.13.06.13.13,0,.86.07,1.2.12,1.47.03.13.05.25.06.41.01.18.02.29.02.4,0,.16,0,.28.05.53.01.07-.03.14-.1.15,0,0-.01,0-.02,0Z"/>
          <path class="cls-2" d="m39.42,108.04s0,0,0,0c-.07,0-.13-.06-.12-.13.03-.68-.15-1.97-.27-2.68-.01-.07.04-.14.11-.15.07-.01.14.04.15.11.12.72.31,2.03.27,2.73,0,.07-.06.12-.13.12Z"/>
          <polygon class="cls-16" points="34.48 68.6 35.17 78.38 41.97 80.54 42.92 80.54 50.42 79.95 51.29 70.09 43.21 70.99 42.31 70.99 34.48 68.6"/>
          <path class="cls-13" d="m37.85,86.37l1.76,6.77s3.44,2.14,7.67,0c2.38-1.2,3.32-6.18,3.32-6.18l-6.82-.07-5.94-.53Z"/>
          <path class="cls-12" d="m40.53,107.26c-.76.08-1.19.94-1.19.94-.04,1.09.03,1.97-.1,2.69-.29,1.55-.72,2.25-.62,2.76-.71.71,1.3,1.21,2.1,1.16.98-.04,3.37-.9,2.48-1.76.09-.7-.59-2.08-.85-3.72-.1-.63-.03-1.67-.25-1.64-.53.09-.81-.5-1.56-.43Z"/>
          <path class="cls-2" d="m41.97,80.67s-.03,0-.04,0l-6.8-2.16c-.05-.02-.09-.06-.09-.11l-.7-9.78s.01-.08.05-.11c.03-.03.08-.03.12-.02l7.82,2.38h.88l8.07-.9s.08,0,.1.04c.03.03.04.06.04.1l-.88,9.86c0,.06-.06.11-.12.12l-7.5.59h-.96Zm.02-.26h.93l7.38-.58.85-9.6-7.92.88s0,0-.01,0h-.9s-.03,0-.04,0l-7.66-2.33.68,9.51,6.7,2.12Z"/>
          <path class="cls-6" d="m38.49,74.82c.35-.81-1.83-1.18-2.09-1.22-.71-.1-1.63-.2-1.8-.03-.23.21-.09.46-.19.7-.08.21-.31.32-.41.52-.1.2.06.39.06.59,0,.07,0,.14,0,.22-.04.12-.11.22-.12.36,0,.14.14.25.16.39.07.25-.06.55.09.79.11.15.38.23.55.26.46.04,1.95-.06,2.88-.21.37-.07.51-.22.49-.36-.01-.08-.09-.19-.28-.23l1.11-.26-.22-.62.22-.46-.46-.43Z"/>
          <path class="cls-6" d="m51.6,80.98l-.63-.69c-1.04-.23-1.38-1.05-1.38-1.05l.16.12c-.45-.34-1.15-.94-2.01-1.34-.34-.17-.43-.35-.37-.48.04-.08.13-.16.33-.14l2.46.81s-.55-.21-1.21-.43c-.65-.2-.99-.31-1.44-.49-.47-.17-.96-.41-.85-.66.11-.28.69-.09,1.11.01.42.1,1.12.33,1.7.43.57.11,1.04.21,1.09.02.08-.18-.6-.4-.74-.45-.81-.27-1.02-.28-1.87-.54-.83-.27-1.21-.49-1.13-.75.09-.38.83-.12,1.45,0,.62.11,1.65.36,2.57.7l-.12-.04c-.06-.11-.81-1.02-1.01-1.16-.37-.25-.79-.39-1.16-.59-.32-.18-.99-.42-.94-.74.02-.24.31-.26.72-.12.42.14,1.1.27,1.66.57.43.22.66.52,1.01.82.16.15.92.59,1.05,1.32l.86,1.78.71,1.02c-.34,1.2-1.01,1.9-2.03,2.08Z"/>
          <path class="cls-2" d="m62.34,97.24H1.45c-.07,0-.13-.06-.13-.13v-1.82c0-.07.06-.13.13-.13h60.89c.07,0,.13.06.13.13v1.82c0,.07-.06.13-.13.13Zm-60.76-.26h60.63v-1.57H1.57v1.57Z"/>
          <g>
            <path class="cls-2" d="m49.74,79.49s-.05,0-.08-.03c-.06-.05-.13-.1-.21-.16-.45-.35-1.06-.83-1.78-1.17-.55-.28-.47-.57-.43-.65.03-.06.14-.24.45-.22.07,0,.12.07.12.14,0,.07-.07.13-.14.12-.12,0-.19.03-.21.07-.03.06.07.19.31.31.74.35,1.37.84,1.82,1.2.07.06.14.11.21.16.06.04.07.12.02.18-.03.03-.06.05-.1.05Z"/>
            <path class="cls-2" d="m51.05,79.04s-.07-.01-.1-.04c-.05-.05-.04-.13.01-.18.09-.08.12-.22.16-.36.03-.11.05-.23.12-.34.04-.08.1-.13.15-.18.05-.04.09-.08.1-.12.02-.07,0-.13,0-.21,0-.04-.01-.09-.01-.14,0-.01,0-.02,0-.03l.05-.21c.03-.1.08-.18.12-.24.07-.1.11-.17.09-.26-.01-.08-.06-.16-.11-.24-.06-.11-.13-.23-.14-.38,0-.07.05-.13.12-.14.07,0,.13.05.14.12,0,.09.06.18.11.27.06.1.11.2.14.33.03.19-.06.33-.13.44-.04.06-.07.11-.09.17l-.04.19s0,.06.01.09c.01.09.03.19,0,.3-.03.12-.11.19-.17.25-.04.04-.08.07-.09.11,0,0,0,0,0,.01-.04.07-.07.17-.09.27-.04.17-.08.36-.24.49-.02.02-.05.03-.09.03Zm.3-.86h0,0Z"/>
            <path class="cls-2" d="m53.62,79.03s-.08-.02-.11-.06l-.71-1.02s0-.01-.01-.02l-.86-1.78s0-.02-.01-.03c-.1-.55-.6-.93-.86-1.13-.06-.05-.11-.08-.14-.11-.1-.08-.19-.17-.28-.25-.21-.2-.42-.39-.7-.54-.38-.2-.81-.32-1.2-.43-.16-.05-.32-.09-.45-.13-.29-.1-.46-.09-.52-.05-.01,0-.03.02-.03.06-.03.17.39.38.64.5.08.04.16.08.23.12.14.07.28.14.44.21.24.11.5.23.73.38.22.15.98,1.08,1.05,1.2.04.06.01.14-.05.18-.06.04-.14.01-.18-.05-.06-.1-.79-.99-.97-1.12-.22-.14-.46-.26-.69-.36-.15-.07-.31-.14-.45-.22-.06-.03-.14-.07-.22-.11-.38-.18-.84-.41-.79-.76,0-.1.06-.19.14-.25.15-.1.4-.09.75.03.12.04.27.08.43.13.38.1.85.23,1.25.45.32.17.53.37.76.58.09.08.18.17.27.25.03.03.07.06.13.1.27.21.84.63.96,1.28l.85,1.75.7,1.01c.04.06.03.14-.03.18-.02.02-.05.02-.07.02Z"/>
            <path class="cls-2" d="m50.15,78.33s-.03,0-.05,0c0,0-.55-.21-1.2-.43-.64-.2-.99-.31-1.45-.49-.71-.25-.86-.45-.92-.58-.04-.09-.04-.17,0-.26.14-.34.65-.21,1.1-.1.06.01.11.03.16.04.16.04.36.09.57.15.36.1.77.21,1.12.28l.13.02c.3.06.71.13.81.09-.04-.04-.18-.13-.61-.28h-.04c-.44-.16-.7-.23-1-.31-.24-.06-.49-.13-.86-.24-.81-.26-1.33-.52-1.22-.91.1-.42.67-.3,1.23-.18.12.03.25.05.37.08.6.11,1.64.36,2.59.71.07.02.1.1.08.17-.02.07-.1.1-.17.08-.93-.35-1.95-.59-2.55-.7-.12-.02-.25-.05-.38-.08-.39-.08-.88-.19-.92,0-.04.16.31.36,1.05.6.37.11.61.18.85.24.29.08.56.15,1.02.3h.04c.49.18.72.31.78.45.02.05.02.11,0,.16-.09.28-.52.2-1.11.09l-.13-.02c-.37-.07-.78-.18-1.15-.28-.21-.06-.4-.11-.56-.15-.05-.01-.11-.03-.16-.04-.28-.07-.75-.19-.8-.05,0,.02-.01.03,0,.06.02.06.15.22.77.44.45.17.79.28,1.44.48.66.22,1.21.43,1.22.43.07.02.1.1.08.17-.02.05-.07.08-.12.08Z"/>
          </g>
          <path class="cls-13" d="m43.99,91.13s-3.44-5.32-4.7-6.79c-1.36-1.59-4.79-1.13-5.35.49-.88,2.53,1.88,13.31,4.21,22.53,1,.4,3.7-.11,4.53-.96,0,0-.6-13.32-2-17.69l3.3,2.42Z"/>
          <path class="cls-2" d="m35.03,77.54c-.12,0-.22,0-.3-.01-.23-.04-.51-.12-.65-.31-.11-.18-.11-.37-.1-.54,0-.1,0-.2-.01-.28,0,0,0,0,0-.01,0-.04-.03-.08-.06-.13-.05-.08-.11-.17-.1-.29,0-.12.05-.21.08-.29.01-.03.03-.06.04-.09v-.2s-.01-.11-.03-.18c-.04-.13-.09-.29,0-.46.06-.11.14-.2.22-.28.08-.08.15-.15.18-.23.03-.08.04-.16.04-.25,0-.15.01-.34.19-.5.07-.07.25-.25,1.91,0,.18.03,1.82.28,2.17.91.08.15.09.32.02.48-.03.06-.1.09-.17.07-.07-.03-.09-.1-.07-.17.04-.09.04-.17,0-.26-.24-.44-1.51-.71-1.98-.78-1.51-.22-1.69-.07-1.69-.06-.09.09-.1.17-.11.32,0,.1,0,.22-.06.34-.05.13-.15.23-.24.32-.07.07-.13.13-.17.21-.04.07-.02.15.02.27.02.08.05.17.05.26v.22s-.01.02-.02.03c-.01.04-.03.09-.05.13-.03.07-.06.13-.06.2,0,.04.03.09.06.14.04.06.08.13.1.22.03.12.03.24.02.36,0,.15-.01.28.05.39.06.08.24.16.47.2.44.04,1.9-.05,2.84-.21.26-.05.39-.15.38-.21,0-.04-.06-.1-.18-.12-.07-.02-.11-.08-.1-.15.02-.07.08-.11.15-.1.31.07.37.27.38.33.01.09.01.39-.59.51-.8.14-1.99.23-2.62.23Z"/>
          <path class="cls-2" d="m38.33,75.84c-.07,0-.12-.05-.13-.12,0-.07.05-.13.12-.14h0s.5-.05.5-.34c0-.2-.49-.28-.92-.35-.13-.02-.27-.04-.4-.07-.11-.02-.23-.05-.35-.07-.56-.12-1.18-.25-1.96-.19-.07,0-.13-.05-.14-.12,0-.07.05-.13.12-.14.82-.07,1.49.08,2.04.19.12.03.24.05.35.07.13.02.26.04.39.07.59.09,1.15.18,1.14.61,0,.42-.46.57-.74.59,0,0,0,0-.01,0Z"/>
          <path class="cls-2" d="m35.24,76.78c-.12,0-.2,0-.2,0-.07,0-.13-.06-.13-.13,0-.07.06-.13.13-.13,0,0,.79,0,1.47-.03.67-.02,1.03-.03,1.51-.07.66-.04.83-.16.87-.21.02-.02.02-.03.01-.05-.02-.16-.49-.33-.99-.35-.54-.08-2.8-.15-2.82-.15-.07,0-.13-.06-.12-.13,0-.07.06-.13.13-.12.09,0,2.3.08,2.84.15.04,0,1.16.06,1.22.58.01.08-.01.17-.07.24-.14.17-.48.27-1.05.31-.48.05-.86.06-1.52.08-.48.02-1.01.03-1.29.03Z"/>
          <path class="cls-2" d="m40.24,114.42c-.75,0-1.73-.24-1.84-.76-.06-.31.04-.65.2-1.17.13-.42.29-.94.43-1.64.08-.45.09-.97.09-1.57,0-.35,0-.71.02-1.1,0-.02,0-.04.01-.05.02-.04.48-.92,1.3-1h0c.43-.04.72.12.97.26.21.12.38.21.58.17.06,0,.11,0,.15.04.13.11.15.4.18.95.01.26.02.53.06.75.12.75.32,1.44.51,2.06.22.73.39,1.3.33,1.7-.1.68-1.75,1.3-2.77,1.34-.07,0-.15,0-.22,0Zm-.84-6.2c-.02.38-.02.73-.02,1.06,0,.61,0,1.14-.1,1.61-.14.72-.3,1.24-.43,1.67-.15.48-.25.79-.2,1.04.07.33.98.61,1.8.55.98-.04,2.46-.62,2.53-1.12.05-.34-.12-.92-.32-1.59-.18-.62-.39-1.32-.51-2.09-.04-.23-.05-.51-.06-.78-.01-.26-.03-.63-.08-.75-.27.03-.49-.09-.7-.21-.23-.13-.47-.26-.82-.23-.61.06-1.01.71-1.08.84Z"/>
          <path class="cls-2" d="m40.37,114.97c-.95,0-1.85-.33-2.09-.79-.13-.27.1-.87.15-.99.03-.07.1-.1.17-.07.07.03.1.1.07.17-.12.29-.21.67-.16.78.18.35,1.09.71,2.1.64,1.04-.07,2.53-.74,2.6-1.17.06-.35-.17-.89-.27-1.07-.03-.06-.01-.14.05-.17.06-.03.14,0,.17.05.02.03.38.73.29,1.24-.12.66-1.83,1.32-2.84,1.38-.09,0-.17,0-.26,0Z"/>
          <path class="cls-2" d="m39.93,109.27s-.09-.03-.12-.07c-.03-.06,0-.14.06-.17.37-.18.85-.33,1.6-.15.07.02.11.09.09.16-.02.07-.09.11-.16.09-.67-.16-1.1-.02-1.43.13-.02,0-.04.01-.06.01Z"/>
          <path class="cls-2" d="m39.92,110.07s-.07-.01-.1-.04c-.04-.04-.04-.11-.01-.15,0-.01.03-.03.06-.04h0s.02-.01.03-.01c.23-.12.92-.35,1.6-.14.07.02.11.09.09.16-.02.07-.09.11-.16.09-.69-.21-1.36.1-1.43.13,0,0,0,0-.01,0-.02,0-.04.01-.06.01Z"/>
          <path class="cls-2" d="m39.92,110.84s-.09-.03-.12-.07c-.03-.06,0-.14.06-.17.04-.02.87-.42,1.73-.15.07.02.1.09.08.16-.02.07-.09.1-.16.08-.76-.24-1.53.13-1.54.13-.02,0-.04.01-.06.01Z"/>
          <path class="cls-13" d="m43.99,91.13s3.26-4.47,4.33-6.09c1.07-1.62,4.79-1.13,5.35.49.88,2.53-1.75,12.5-4.08,21.72-1.16,1.25-4.24.51-4.66-.14,0,0,.6-13.32,2-17.69l-2.93,1.72Z"/>
          <path class="cls-2" d="m1.79,95.41s-.07-.01-.09-.04c-.05-.05-.05-.13,0-.18l4.9-4.71c.05-.05.13-.05.18,0s.05.13,0,.18l-4.9,4.71s-.06.04-.09.04Z"/>
          <path class="cls-2" d="m61.93,95.41s-.07-.01-.09-.04l-4.76-4.71c-.05-.05-.05-.13,0-.18.05-.05.13-.05.18,0l4.76,4.71c.05.05.05.13,0,.18-.03.03-.06.04-.09.04Z"/>
          <path class="cls-2" d="m1.47,88.84s-.08-.02-.11-.06c-.04-.06-.02-.14.03-.18l5.06-3.45c.06-.04.14-.02.18.03.04.06.02.14-.03.18l-5.06,3.45s-.05.02-.07.02Z"/>
          <path class="cls-2" d="m.13,88.84s-.09-.02-.11-.06c-.04-.06-.02-.14.04-.18l6.38-3.85c.06-.04.14-.02.18.04.04.06.02.14-.04.18l-6.38,3.85s-.04.02-.07.02Z"/>
          <path class="cls-2" d="m62.26,88.84s-.05,0-.07-.02l-4.92-3.35c-.06-.04-.07-.12-.03-.18.04-.06.12-.07.18-.03l4.92,3.35c.06.04.07.12.03.18-.02.04-.07.06-.11.06Z"/>
          <path class="cls-2" d="m63.6,88.84s-.05,0-.07-.02l-6.25-3.77c-.06-.04-.08-.12-.04-.18.04-.06.12-.08.18-.04l6.25,3.77c.06.04.08.12.04.18-.02.04-.07.06-.11.06Z"/>
          <path class="cls-2" d="m39.09,107.63c-.4,0-.75-.05-.99-.14-.04-.02-.07-.05-.08-.09l-.17-.65c-2.3-9.12-4.92-19.45-4.05-21.95.25-.72,1.05-1.28,2.13-1.48,1.37-.26,2.72.11,3.44.95,1.26,1.46,3.36,4.73,3.38,4.77.04.06.02.14-.04.18-.06.04-.14.02-.18-.04-.02-.03-2.11-3.29-3.36-4.74-.66-.77-1.91-1.11-3.2-.86-.99.19-1.71.68-1.93,1.31-.85,2.43,1.76,12.73,4.05,21.81l.15.59c.96.32,3.45-.12,4.29-.91-.05-.96-.66-13.44-1.99-17.6-.02-.07.02-.14.08-.16.07-.02.14.02.16.08,1.39,4.34,2,17.59,2,17.73,0,.04-.01.07-.04.1-.67.68-2.43,1.13-3.68,1.13Z"/>
          <path class="cls-2" d="m47.59,108.06c-.17,0-.34,0-.47-.02-1.04-.09-2.05-.47-2.3-.86-.01-.02-.02-.05-.02-.08,0-.13.61-13.39,2-17.73.02-.07.09-.1.16-.08.07.02.11.09.08.16-1.34,4.18-1.95,16.76-1.99,17.62.23.28,1.09.63,2.09.71.61.05,1.71.05,2.33-.59.15-.59.3-1.18.45-1.77,2.18-8.61,4.44-17.51,3.63-19.84-.24-.69-1.14-1.22-2.31-1.37-1.25-.15-2.35.2-2.81.9-1.06,1.61-3.3,4.04-3.32,4.07-.05.05-.13.06-.18,0-.05-.05-.06-.13,0-.18.02-.02,2.24-2.44,3.29-4.04.52-.78,1.72-1.18,3.06-1.02,1.26.16,2.25.76,2.52,1.54.84,2.4-1.43,11.34-3.62,19.99-.15.6-.31,1.21-.46,1.81,0,.02-.02.04-.03.06-.55.59-1.42.72-2.09.72Z"/>
          <path class="cls-2" d="m43.36,94.12c-1,0-1.69-.07-1.7-.08-.07,0-.12-.07-.11-.14,0-.07.07-.12.14-.11.02,0,2.2.24,4.35-.13.07-.01.14.04.15.1.01.07-.03.14-.11.15-.96.17-1.93.21-2.71.21Z"/>
          <path class="cls-2" d="m34.17,82.51c-.42,0-.86-.11-1.21-.31-1.11-.65-1.56-2.62-1.19-3.82.12-.39.41-1.85.74-3.55.89-4.49,1.65-8.25,2.07-8.75.76-.94,5.45-1.98,5.64-2.02.07-.02.14.03.15.1.02.07-.03.14-.1.15-1.66.36-4.94,1.24-5.5,1.93-.41.5-1.37,5.4-2.01,8.64-.35,1.77-.63,3.18-.75,3.57-.34,1.11.09,2.95,1.07,3.53.52.3,1.23.36,1.78.15.26-.1.61-.31.75-.74.13-.4.24-1.49.27-1.9-.28.01-.89-.01-1.44-.43-.53-.4-.88-1.05-1.03-1.93l-.83.91c-.05.05-.13.06-.18,0-.05-.05-.06-.13,0-.18l1.01-1.11s.09-.05.13-.04c.05.02.08.06.09.11.11.95.43,1.63.96,2.02.65.49,1.41.37,1.41.37.04,0,.08,0,.11.03.03.03.04.07.04.11,0,.07-.13,1.6-.3,2.11-.13.42-.45.73-.9.9-.25.09-.52.14-.8.14Z"/>
          <path class="cls-2" d="m53.84,83.14c-1.66,0-2.84-1.97-2.9-2.07-.02-.04-.02-.09,0-.13s.07-.06.12-.06c.09,0,2.14.2,2.53-2.52,0-.05.04-.08.08-.1.04-.02.09,0,.13.02l1.18.96c.06.04.06.13.02.18-.05.06-.13.06-.18.02l-1.01-.82c-.4,2.18-1.92,2.48-2.52,2.51.38.55,1.57,2.05,3.01,1.69,1.03-.26,1.28-2.21,1.13-3.5-.2-1.76-1.85-11.51-2.43-12.26-.55-.71-3.8-1.67-5.45-2.08-.07-.02-.11-.09-.09-.16.02-.07.09-.11.16-.09.2.05,4.85,1.21,5.59,2.17.66.86,2.31,10.87,2.49,12.39.15,1.29-.08,3.47-1.33,3.78-.18.05-.36.07-.53.07Z"/>
          <path class="cls-2" d="m33.56,77.15s-.04,0-.06-.01c-.06-.03-.09-.11-.05-.17l.45-.86c.03-.06.11-.09.17-.05.06.03.09.11.06.17l-.45.86s-.07.07-.11.07Z"/>
          <path class="cls-2" d="m41.97,80.67s0,0,0,0c-.07,0-.13-.06-.12-.13l.34-9.55c0-.07.07-.13.13-.12.07,0,.13.06.12.13l-.34,9.55c0,.07-.06.12-.13.12Z"/>
          <path class="cls-2" d="m42.92,80.67s0,0,0,0c-.07,0-.13-.06-.12-.13l.3-9.55c0-.07.06-.13.13-.12.07,0,.13.06.12.13l-.3,9.55c0,.07-.06.12-.13.12Z"/>
          <path class="cls-2" d="m42.61,70.63s-.06-.01-.08-.03c-1.58-1.35-5.05-1.73-6.53-1.9-.26-.03-.46-.05-.59-.07l-.54.1c-.07.01-.14-.03-.15-.1-.01-.07.03-.14.1-.15l.56-.11s.03,0,.05,0c.12.02.34.04.6.07,1.49.16,4.95.55,6.61,1.91.56-.23,4.2-1.6,7.94-.79.03,0,.05.02.07.04l.28.34c.05.05.04.14-.02.18-.05.05-.14.04-.18-.02l-.25-.31c-3.95-.84-7.78.8-7.82.81-.02,0-.03.01-.05.01Z"/>
          <path class="cls-2" d="m41.02,69.73s-.04,0-.05-.01c-1.78-.81-4.38-1.52-5.05-1.69v.47c0,.07-.06.13-.13.13s-.13-.06-.13-.13v-.63s.02-.08.05-.1c.03-.02.07-.03.11-.02.03,0,3.19.8,5.25,1.75.06.03.09.11.06.17-.02.05-.07.07-.12.07Z"/>
          <path class="cls-2" d="m35.79,67.99c-.06,0-.11-.04-.12-.09-.36-1.2-.91-1.8-.92-1.81-.05-.05-.05-.13,0-.18.05-.05.13-.05.18,0,.02.03.6.65.98,1.91.02.07-.02.14-.09.16-.01,0-.02,0-.04,0Z"/>
          <path class="cls-2" d="m51.6,81.11s-.07-.01-.09-.04l-.6-.66c-1.06-.25-1.42-1.09-1.43-1.12-.03-.07,0-.14.07-.17.07-.03.14,0,.17.07.01.03.33.77,1.29.98.03,0,.05.02.07.04l.63.69c.05.05.04.13,0,.18-.02.02-.06.03-.09.03Z"/>
          <path class="cls-2" d="m51.05,70.25s-.02,0-.03,0c-.07-.02-.11-.08-.1-.15.46-2.04,1.35-3,1.85-3.39,0,0,.01,0,.01-.01.04-.05.12-.06.17-.02.03.02.05.06.05.1,0,.07-.04.1-.08.13-.38.3-1.3,1.21-1.76,3.24-.01.06-.07.1-.13.1Z"/>
          <path class="cls-2" d="m43.85,69.77c-.12,0-.25,0-.37-.02-3.03-.39-4.75-4.97-4.82-5.16-.02-.07,0-.14.08-.16.07-.02.14,0,.16.08.02.05,1.73,4.63,4.61,5,2.87.37,5.69-4.18,5.72-4.22.04-.06.12-.08.18-.04.06.04.08.12.04.18-.11.19-2.71,4.37-5.6,4.37Z"/>
          <path class="cls-2" d="m36.77,68.25c-.06,0-.11-.04-.12-.09-.35-1.26-.97-2.6-.98-2.61-.03-.06,0-.14.06-.17.06-.03.14,0,.17.06,0,.01.63,1.37.99,2.65.02.07-.02.14-.09.16-.01,0-.02,0-.03,0Z"/>
          <path class="cls-2" d="m43.9,68.63c-.06,0-.12,0-.18,0-2.71-.16-3.98-4.13-4.04-4.3-.02-.07.02-.14.08-.16.07-.02.14.02.16.08.01.04,1.28,3.97,3.81,4.12,2.53.15,4.37-3.36,4.39-3.4.03-.06.11-.09.17-.06.06.03.09.11.06.17-.08.15-1.85,3.54-4.46,3.54Z"/>
          <path class="cls-2" d="m50.28,69.73s-.02,0-.02,0c-.07-.01-.12-.08-.1-.15.31-1.66,1.57-3.09,1.94-3.28.03-.01.11-.06.19-.02.06.03.09.11.06.17-.02.05-.08.08-.13.07-.25.1-1.51,1.48-1.81,3.1-.01.06-.07.1-.13.1Z"/>
          <path class="cls-2" d="m36.09,83.55c-.07,0-.13-.06-.13-.13l-.07-4.77c0-.07.06-.13.13-.13h0c.07,0,.13.06.13.13l.07,4.77c0,.07-.06.13-.13.13h0Z"/>
          <path class="cls-2" d="m51.05,84.18c-.07,0-.13-.05-.13-.12-.04-1.06-.22-3.76-.22-3.79,0-.07.05-.13.12-.14.07,0,.13.05.14.12,0,.03.18,2.73.22,3.79,0,.07-.05.13-.12.13,0,0,0,0,0,0Z"/>
          <path class="cls-2" d="m44.32,87.08c-1.6,0-3.12-.14-3.23-.15-.07,0-.12-.07-.12-.14,0-.07.07-.12.14-.12.04,0,4.25.38,6.03-.11.07-.02.14.02.16.09.02.07-.02.14-.09.16-.73.2-1.83.26-2.9.26Z"/>
          <g>
            <path class="cls-6" d="m20.89,106.37c.02.82-.04,1.04-.06,1.74-.02.7-.3,1.84-.36,2.12-.56,2.84-1.64,3.16-1.62,3.88.02.5,1.02.94,1.84,1,.82.06,2.56-.36,2.7-.92.08-.3.04-.5,0-1-.08-.76-.2-1.96-.24-2.96-.02-.68-.08-2.64.06-3.96l-2.32.1Z"/>
            <path class="cls-13" d="m23.25,111.91c-.34,1.04-1.44,1.62-2.26,1.64-.52.02-1.04-.48-1.26-1.02l-.88,1.4s-.24.48-.16.74c.14.48,1.18.86,1.98.92.82.06,2.74-.4,2.88-.96.08-.3-.08-1-.08-1l-.22-1.72Z"/>
            <path class="cls-2" d="m20.84,115.24c-.06,0-.11,0-.16,0-.78-.06-1.93-.49-1.96-1.12,0-.32.16-.55.38-.88.36-.51.89-1.29,1.24-3.03,0-.04.02-.09.04-.16.09-.4.3-1.34.32-1.94,0-.26.02-.46.03-.65.02-.31.04-.58.03-1.08,0-.07.05-.13.13-.13.07,0,.13.05.13.13.01.52,0,.8-.03,1.11-.01.19-.03.38-.03.64-.02.62-.23,1.54-.33,1.98-.01.07-.03.12-.04.16-.35,1.79-.91,2.59-1.28,3.12-.21.3-.34.49-.34.72.01.37.88.81,1.72.87.86.06,2.46-.39,2.56-.82.06-.23.05-.39.02-.72,0-.07-.01-.15-.02-.23-.08-.8-.2-1.98-.24-2.96v-.03c-.02-.72-.08-2.64.06-3.95,0-.07.07-.12.14-.11.07,0,.12.07.11.14-.14,1.29-.08,3.2-.06,3.91v.03c.04.98.16,2.15.24,2.95,0,.09.01.17.02.24.03.35.05.54-.02.81-.16.65-1.84,1.02-2.67,1.02Z"/>
            <path class="cls-2" d="m20.81,115.72c-.05,0-.1,0-.15,0-.74-.06-1.92-.42-2.09-1.01-.09-.3.14-.78.17-.83.03-.06.11-.09.17-.06.06.03.09.11.06.17-.08.17-.2.49-.15.64.12.4,1.08.77,1.86.83.88.06,2.64-.43,2.74-.86.06-.22-.04-.75-.08-.94-.02-.07.03-.14.1-.15.07-.02.14.03.15.1.02.07.16.74.08,1.06-.16.65-2.01,1.06-2.86,1.06Z"/>
            <path class="cls-2" d="m20.96,113.68c-.59,0-1.12-.55-1.34-1.1-.03-.07,0-.14.07-.17.07-.03.14,0,.17.07.19.48.68.95,1.13.94.81-.02,1.83-.61,2.14-1.55.02-.07.09-.1.16-.08.07.02.1.09.08.16-.36,1.09-1.49,1.71-2.38,1.73-.01,0-.02,0-.04,0Z"/>
            <path class="cls-6" d="m25.31,101.76s.04,1.04.12,1.88c.08.84.3,1.68.36,1.94.56,2.84,1.64,3.16,1.62,3.88-.02.5-1.02.94-1.84,1-.82.06-2.56-.36-2.7-.92-.08-.3-.04-.5,0-1,.08-.76.2-1.96.24-2.96.02-.68.08-2.64-.06-3.96l2.26.14Z"/>
            <path class="cls-13" d="m26.57,108.05c-.2.44-.8.98-1.3,1.02-.88.06-1.9-.5-2.24-1.54l-.24,1.44s-.16.7-.08,1c.14.56,2.08,1.02,2.88.96.8-.06,1.84-.44,1.98-.92.08-.26-.16-.74-.16-.74l-.84-1.22Z"/>
            <polygon class="cls-10" points="11.12 88.55 10.54 92.63 12.49 91.16 12.62 88.4 11.12 88.55"/>
            <path class="cls-12" d="m18.13,89.55s-.78.06-1.29,1.02c-.51.96,0,17.73,0,17.73,0,0,4,.88,6.05,0l.54-4.96-5.3-13.79Z"/>
            <path class="cls-10" d="m28.19,84.29s1.52,4.51,1.62,8.47c0,0-1.02.59-2.51.32l.89-8.79Z"/>
            <path class="cls-13" d="m16.14,65.73l.74,13.54s10.31-.14,10.31-.24-.54-12.92-.54-12.92l-5.72-.82-4.79.42Z"/>
            <path class="cls-12" d="m27.82,84.34c1.82,7.63-1.25,9.51-1.25,9.51l-9.72.93c-2.27-.28-3.79-1.39-4.51-2.68-1.38-2.48-.41-5.73-.41-5.73l2.12-1.91,13.77-.12Z"/>
            <path class="cls-10" d="m26.49,81.81s.59.07.46,1.2c-.1.91-.56,1.39-1.29,1.53,0,0,3.31,0,4.06-.98.85-1.12,1.42-12.66-.48-15.78-.8-1.32-4.59-2.32-4.59-2.32l.81,11.83,1.04,4.52Z"/>
            <path class="cls-10" d="m15.53,84.75c-1.93-.14-5.52-1.74-6.18-3.28-.81-1.89,1.37-11.99,2.38-13.44,1.32-1.87,6.03-2.57,6.03-2.57,0,0,1.17,4.85.51,11.66l-.8,6.3-1.93,1.32Z"/>
            <polygon class="cls-1" points="17.46 83.42 14.77 83.42 14.06 78.21 21.6 79.05 22.41 79.05 29.54 77.66 28.4 82.45 26.91 82.27 17.46 83.42"/>
            <path class="cls-4" d="m14.55,78.21v-.53s4.83-1.59,7.7.71c0,0,1.59-.88,3.55-1.14,1.96-.26,3.28,0,3.28,0l.2.26-.44.29-6.42,1.26-7.86-.84Z"/>
            <path class="cls-2" d="m21.6,81.47c-.07,0-.13-.06-.13-.13v-2.29c0-.07.06-.13.13-.13s.13.06.13.13v2.29c0,.07-.06.13-.13.13Z"/>
            <path class="cls-6" d="m26.57,82.45c-.1-.53-.16-2.14-.27-2.79-.07-.42-.05-1.02-.45-.83-.4.19-.54,2.47-.54,2.47l1.26,1.15Z"/>
            <path class="cls-6" d="m18.01,65.7s.84,4.94,3.44,5.14c2.61.2,3.28-4.28,3.28-4.28l-.09-.86c-2.26-.73-4.47-.7-6.64,0Z"/>
            <g>
              <path class="cls-7" d="m18.13,54.77c.4-.38.98-.36,1.38-.46.48-.14.86-.24,1.5-.46.14-.04,1.32-.24,2.26.26,1.06.56,2.12,2,2.12,2,0,0,.7,1.02,1.2,2.24.36.9.54,2.02.6,2.36.14.82-.88,1.64-1.14,2.36-.08.2.12.44.02.54-.22.2-.62-.18-.62-.18,0,0-.46.64-1,.92-.54.28-1.18.18-1.18.18l-4.3.08s-.66-.02-1.12-.4c-.2-.16-.26-.58-.36-.44-.22.3-.52.24-.52.24,0,0,0-.38-.14-.5-.3-.22-.64-.34-.88-.56-.38-.34-.4-.74-.46-.92-.26-.64-.6-1.26-.24-2.16.08-.22.54-1,1.06-2.02.56-1.12,1.16-2.46,1.82-3.08Z"/>
              <path class="cls-5" d="m17.11,61.41s.12-.26.36-.5c.38-.38.52-.38,1.12-1.32.34-.52.66-1.72,1.1-2.28.24-.28.94-.56,1.32-.6.44-.04.96.08,1.3.44.34.34.46.98.5,1.32.06.48.4,1.08.4,1.08,0,0,.32.48.54.72.64.68,1.2,1.2,1.2,1.2,0,0,.14.12-.08.34-.24.2-.54.22-.54.22,0,0-.1.66-.38,1.2-.28.54-.72.98-.72.98,0,0-.1,1.8.3,2.16.62.54-5.46.34-4.84.02.48-.24.36-2.28.36-2.28,0,0-.36-.34-.6-.88-.24-.54-.34-1.16-.34-1.16l-.52-.2-.48-.46Z"/>
              <path class="cls-2" d="m21.21,65.29h0s-.73-.03-1.73-.7c-.67-.45-.91-.93-1.05-1.21v-.02c-.21-.41-.38-.95-.54-1.71-.01-.07.03-.14.1-.15.07-.01.14.03.15.1.15.73.31,1.26.51,1.65v.02c.15.28.36.7.98,1.11.93.63,1.58.66,1.59.66.07,0,.13.06.12.13,0,.07-.06.12-.13.12Z"/>
              <path class="cls-2" d="m21.23,65.29c-.07,0-.13-.06-.13-.13s.06-.13.13-.13c0,0,.56-.01,1.49-.62.67-.45.96-.92,1.07-1.17.2-.39.36-.92.51-1.65.01-.07.08-.11.15-.1.07.01.11.08.1.15-.16.76-.32,1.3-.53,1.71-.12.27-.44.79-1.16,1.27-1,.65-1.6.66-1.63.66Z"/>
              <path class="cls-2" d="m18.03,62.18s-.01,0-.02,0c-.31-.05-.72-.3-.95-.77-.03-.06,0-.14.06-.17.06-.03.14,0,.17.06.19.38.52.59.76.63.07.01.12.08.11.15,0,.06-.06.11-.13.11Z"/>
              <path class="cls-2" d="m17.77,61.24s-.08-.02-.11-.06c0,0-.12-.18-.18-.25-.04-.06-.03-.14.03-.18.06-.04.14-.03.18.03.06.08.18.26.18.27.04.06.02.14-.04.18-.02.01-.05.02-.07.02Z"/>
              <path class="cls-2" d="m24.38,62.18c-.06,0-.12-.05-.13-.11,0-.07.04-.13.11-.14.13-.01.35-.11.54-.32.05-.05.13-.06.18,0,.05.05.06.13,0,.18-.2.22-.47.37-.7.4,0,0,0,0-.01,0Z"/>
              <path class="cls-2" d="m21.25,62.67s-.06-.01-.08-.03c-.05-.05-.06-.13-.01-.18.16-.18.18-.27.17-.3,0-.04-.05-.08-.12-.14-.1-.08-.23-.2-.28-.4-.11-.42.14-1.07.25-1.28.03-.06.11-.09.17-.06.06.03.09.11.06.17-.11.22-.31.79-.23,1.11.03.12.11.19.2.27.09.08.2.17.21.32.01.14-.06.29-.24.49-.03.03-.06.04-.1.04Z"/>
              <path class="cls-2" d="m21.22,63.68c-.4,0-.8-.13-1.04-.36-.05-.05-.05-.13,0-.18.05-.05.13-.05.18,0,.37.35,1.26.41,1.7,0,.05-.05.13-.05.18,0,.05.05.05.13,0,.18-.27.25-.64.36-1.01.36Z"/>
              <path class="cls-2" d="m19.13,59.59s-.08-.02-.11-.05c-.04-.06-.03-.14.03-.18.02-.01.49-.34,1.1-.07.07.03.1.1.07.17-.03.07-.1.1-.17.07-.48-.21-.84.04-.85.05-.02.02-.05.02-.07.02Z"/>
              <path class="cls-2" d="m23.12,59.57s-.05,0-.07-.02h0s-.37-.25-.85-.03c-.06.03-.14,0-.17-.06-.03-.06,0-.14.06-.17.62-.29,1.09.04,1.11.05.06.04.07.12.03.18-.03.04-.06.05-.1.05Z"/>
              <path class="cls-3" d="m19.01,64.15s1.18.98,2.22,1c.8.02,1.94-.9,1.94-.9,0,0-1.02,1.21-2.08,1.37-.92.14-2.02-.55-2.02-.55l-.06-.92Z"/>
              <path class="cls-2" d="m18.99,65.95s-.02,0-.03,0c-.07-.01-.11-.08-.1-.15.11-.53.02-1.69.02-1.7,0-.07.05-.13.12-.14.07,0,.13.05.14.12,0,.05.1,1.2-.02,1.78-.01.06-.07.1-.13.1Z"/>
              <path class="cls-2" d="m23.32,66.01c-.06,0-.11-.04-.13-.1-.12-.57-.05-1.74-.04-1.79,0-.07.07-.13.14-.12.07,0,.12.07.12.14,0,.01-.08,1.19.04,1.72.01.07-.03.14-.1.15,0,0-.02,0-.03,0Z"/>
              <path class="cls-2" d="m17.21,62.32s-.07-.02-.1-.05c-.53-.65.08-1.27.61-1.82.18-.19.36-.36.48-.54.47-.62.7-1.22.88-1.71.22-.6.4-1.08.9-1.25.07-.02.14.01.16.08.02.07-.01.14-.08.16-.38.13-.53.54-.74,1.1-.19.51-.42,1.13-.92,1.78-.14.19-.33.38-.51.56-.59.61-.96,1.04-.6,1.48.04.05.04.14-.02.18-.02.02-.05.03-.08.03Z"/>
              <path class="cls-2" d="m25,62.72s-.04,0-.05-.01c-.06-.03-.09-.11-.06-.17.31-.67-.08-1.05-.67-1.62-.32-.31-.69-.67-1-1.14-.27-.42-.39-.83-.5-1.24-.09-.33-.18-.63-.34-.93-.24-.45-.72-.87-1.25-.81-.15.02-.32.08-.46.18-.06.04-.14.02-.18-.04-.04-.06-.02-.14.04-.18.18-.12.38-.2.57-.22.65-.07,1.23.42,1.51.95.18.32.27.66.36.98.11.38.22.78.47,1.16.29.44.64.79.96,1.09.6.58,1.12,1.08.73,1.91-.02.05-.07.07-.12.07Z"/>
              <path class="cls-2" d="m15.49,61.96s-.09-.02-.11-.06c-.73-1.26-.16-2.29.51-3.47.15-.27.31-.55.46-.85.13-.25.24-.51.36-.76.61-1.32,1.13-2.47,2.43-2.47.07,0,.13.06.13.13s-.06.13-.13.13c-1.14,0-1.61,1.02-2.2,2.32-.11.25-.23.51-.36.77-.15.3-.31.59-.47.86-.66,1.16-1.17,2.08-.51,3.21.04.06.01.14-.05.18-.02.01-.04.02-.06.02Z"/>
              <path class="cls-2" d="m26.18,63.75s-.09-.02-.11-.06c-.31-.52-.03-.87.3-1.27.21-.27.46-.57.61-1,.26-.74-.08-2.31-.83-3.81-.8-1.56-1.83-2.72-2.3-3.05-1.55-1.08-2.96-.58-3.66-.19-.06.03-.14.01-.17-.05-.03-.06-.01-.14.05-.17.75-.42,2.27-.95,3.93.21.58.4,1.63,1.69,2.38,3.14.8,1.59,1.14,3.21.85,4.02-.17.47-.44.8-.65,1.07-.33.42-.48.63-.28.98.04.06.02.14-.04.18-.02.01-.04.02-.07.02Z"/>
              <path class="cls-2" d="m18.47,64.59s-.02,0-.03,0c-.75-.16-1.06-.84-1.12-1.18-.01-.07.03-.14.1-.15.07-.01.14.03.15.1.05.28.31.85.92.98.07.01.11.08.1.15-.01.06-.07.1-.13.1Z"/>
              <path class="cls-2" d="m19.95,56.42s-.08-.02-.11-.06c-.15-.23-.2-.82.06-1.27.04-.06.11-.08.18-.05.06.04.08.11.05.18-.21.37-.16.86-.06,1,.04.06.02.14-.04.18-.02.01-.05.02-.07.02Z"/>
              <path class="cls-2" d="m23.84,64.61c-.07,0-.13-.06-.13-.13s.06-.13.13-.13c.81,0,1.4-.65,1.47-1.11.01-.07.08-.12.15-.11.07.01.12.08.11.15-.08.54-.75,1.33-1.73,1.33Z"/>
              <path class="cls-2" d="m16.97,64.09s0,0,0,0c-.07,0-.12-.07-.12-.14.03-.42-.21-.53-.54-.69-.33-.15-.74-.35-.81-.93,0-.07.04-.14.11-.14.07,0,.14.04.14.11.06.44.36.58.67.73.34.16.73.34.69.93,0,.07-.06.12-.13.12Z"/>
              <g>
                <path class="cls-2" d="m19.5,61.01c-.14,0-.28-.03-.41-.09-.06-.03-.09-.11-.06-.17.03-.06.11-.09.17-.06.21.1.46.08.75-.04.07-.03.14,0,.17.07.03.07,0,.14-.07.17-.19.08-.38.13-.55.13Z"/>
                <path class="cls-3" d="m19.3,60.93c0-.2.13-.07.29-.09.16-.02.29-.17.3.03,0,.2-.1.37-.26.39-.18.02-.32-.13-.33-.33Z"/>
              </g>
              <g>
                <path class="cls-2" d="m22.71,61.01c-.17,0-.36-.04-.55-.13-.07-.03-.09-.1-.07-.17.03-.06.1-.09.17-.07.28.12.54.14.75.04.06-.03.14,0,.17.06.03.06,0,.14-.06.17-.13.06-.27.09-.41.09Z"/>
                <path class="cls-3" d="m22.91,60.93c0-.2-.13-.07-.29-.09-.16-.02-.29-.17-.3.03s.1.37.26.39c.18.02.32-.13.33-.33Z"/>
              </g>
              <path class="cls-2" d="m19.57,63.5s-.08-.02-.1-.05c-.04-.06-.03-.14.03-.18.4-.29.49-.87.49-.87,0-.07.07-.12.14-.11.07,0,.12.07.11.14,0,.03-.1.69-.59,1.05-.02.02-.05.02-.07.02Z"/>
              <path class="cls-2" d="m22.82,63.5s-.05,0-.07-.02c-.49-.35-.59-1.02-.59-1.05,0-.07.04-.13.11-.14.07-.01.14.04.14.11,0,0,.09.58.49.87.06.04.07.12.03.18-.03.04-.06.05-.1.05Z"/>
              <g>
                <path class="cls-2" d="m18.47,61.15c-.06,0-.12-.05-.13-.11,0-.07.04-.13.11-.14l.33-.04c.07,0,.13.04.14.11,0,.07-.04.13-.11.14l-.33.04s-.01,0-.02,0Z"/>
                <path class="cls-2" d="m18.63,61.48c-.05,0-.1-.03-.12-.08-.03-.07,0-.14.07-.17l.37-.15c.07-.03.14,0,.17.07.03.07,0,.14-.07.17l-.37.15s-.03,0-.05,0Z"/>
              </g>
              <g>
                <path class="cls-2" d="m23.84,61.15s-.01,0-.02,0l-.33-.04c-.07,0-.12-.07-.11-.14,0-.07.07-.12.14-.11l.33.04c.07,0,.12.07.11.14,0,.07-.06.11-.13.11Z"/>
                <path class="cls-2" d="m23.68,61.48s-.03,0-.05,0l-.37-.15c-.07-.03-.1-.1-.07-.17.03-.07.1-.1.17-.07l.37.15c.07.03.1.1.07.17-.02.05-.07.08-.12.08Z"/>
              </g>
            </g>
            <path class="cls-6" d="m24.24,81.54s-1.89-1.22-3.07-1.99c-.61-.39-.87-.18-.61.23.18.29,2.56,2.11,2.44,2.26-.12.15-.68-.28-1.93-1.02-.38-.23-1.72-1.06-1.93-.76-.23.31.63.8,1.45,1.35.33.22,1.82,1.07,1.71,1.19-.06.09-1.81-1.17-3.03-1.69-.4-.17-.72.1-.15.55,1.09.85,2.77,1.81,2.75,2.11,0,.17-1.46-.39-2.4-.6-.3-.07-.6.17-.06.49.42.25,1.5.63,2.35,1.01,1.54.09,2.55.53,4.26-.45,0,0,.79.18.94-1.19.15-1.37-1.34-2.01-1.34-2.01l-1.37.53Z"/>
            <path class="cls-2" d="m16.54,94.86s-.01,0-.02,0c-1.82-.22-3.17-.97-4.01-2.21-1.7-2.52-.75-6.16-.71-6.31.02-.07.09-.11.16-.09.07.02.11.09.09.16,0,.04-.96,3.68.67,6.1.8,1.18,2.09,1.89,3.83,2.1.07,0,.12.07.11.14,0,.07-.06.11-.13.11Z"/>
            <path class="cls-2" d="m25.42,110.58c-.83,0-2.51-.37-2.67-1.02-.07-.27-.05-.46-.02-.81,0-.07.01-.15.02-.23.08-.8.2-1.97.24-2.95v-.02c.02-.72.08-2.62-.06-3.91,0-.07.04-.13.11-.14.07,0,.13.04.14.11.14,1.31.08,3.23.06,3.95v.03c-.04.99-.16,2.17-.24,2.97,0,.08-.01.16-.02.23-.03.33-.04.5.02.72.11.43,1.7.89,2.56.82.84-.06,1.7-.5,1.72-.88,0-.23-.13-.42-.34-.72-.37-.53-.93-1.33-1.28-3.12l-.03-.12c-.09-.35-.26-1.09-.33-1.83-.08-.83-.12-1.88-.12-1.89,0-.07.05-.13.12-.13.07,0,.13.05.13.12,0,.01.04,1.05.12,1.87.07.72.24,1.45.33,1.79l.03.13c.34,1.74.88,2.52,1.24,3.03.23.33.39.56.38.88-.03.63-1.17,1.07-1.96,1.12-.05,0-.1,0-.16,0Z"/>
            <path class="cls-10" d="m12.06,83.68s-3.12,3.7-3.37,8.01c0,.96,1.2,1.8,2.18,2.16,0,0,.15-6.49,3.19-9.39l-1.99-.78Z"/>
            <path class="cls-2" d="m25.46,111.06c-.83,0-2.71-.41-2.87-1.06-.09-.32.06-.98.08-1.06.02-.07.09-.11.15-.1.07.02.11.08.1.15-.04.19-.14.72-.08.94.11.42,1.89.93,2.74.86.78-.06,1.75-.42,1.86-.83.05-.15-.07-.48-.15-.65-.03-.06,0-.14.06-.17.06-.03.14,0,.17.06.03.05.26.53.17.83-.17.59-1.35.95-2.09,1.01-.04,0-.09,0-.14,0Z"/>
            <path class="cls-2" d="m25.14,109.2c-.87,0-1.88-.54-2.23-1.63-.02-.07.01-.14.08-.16.07-.02.14.01.16.08.33,1.01,1.33,1.5,2.11,1.45.44-.04,1.01-.54,1.19-.94.03-.06.11-.09.17-.06.06.03.09.11.06.17-.22.48-.85,1.05-1.41,1.09-.05,0-.09,0-.14,0Z"/>
            <path class="cls-2" d="m26.57,82.58c-.06,0-.11-.04-.13-.1-.05-.27-.09-.79-.13-1.34-.04-.55-.08-1.12-.14-1.45-.01-.08-.02-.16-.03-.25-.02-.19-.06-.47-.13-.51-.02,0-.06,0-.1.02-.2.1-.4,1.3-.47,2.36,0,.07-.07.12-.14.12-.07,0-.12-.07-.12-.14.03-.55.18-2.37.61-2.58.13-.06.24-.07.34-.01.19.11.23.4.26.7,0,.08.02.16.03.23.06.34.1.91.14,1.47.04.54.08,1.06.13,1.31.01.07-.03.14-.1.15,0,0-.02,0-.02,0Z"/>
            <path class="cls-2" d="m23.82,84.96c-.38,0-.75-.04-1.14-.09-.29-.03-.6-.07-.92-.09-.02,0-.03,0-.04-.01-.33-.14-.68-.29-1.03-.43-.55-.22-1.07-.43-1.34-.59-.39-.23-.38-.44-.34-.54.06-.16.27-.24.5-.19.39.08.86.23,1.28.36.31.1.68.21.89.25-.21-.21-.8-.61-1.29-.94-.46-.31-.93-.63-1.33-.95-.44-.35-.37-.59-.32-.67.1-.16.34-.2.6-.09.1.04.2.09.31.14-.38-.27-.61-.48-.65-.69-.02-.09,0-.17.06-.25.19-.27.76-.08,2.03.68l.07.04c.35.2.65.39.89.54.27.16.51.32.69.41-.27-.27-.8-.71-1.18-1.03-.61-.52-.99-.84-1.07-.97-.21-.32-.1-.49-.04-.55.15-.15.46-.1.83.14,1.18.77,3.07,1.99,3.07,1.99l-.14.22s-1.89-1.22-3.07-1.99c-.32-.21-.48-.2-.51-.18-.01.01-.01.09.07.23.07.1.58.53,1.02.91,1.44,1.22,1.53,1.34,1.41,1.5-.16.19-.42.03-1.21-.45-.24-.15-.54-.33-.88-.53l-.08-.05c-1.44-.86-1.66-.78-1.68-.75-.01.02-.02.03-.01.05.04.21.62.58,1.12.91.1.07.21.13.31.2.08.05.21.13.38.23,1.08.66,1.37.87,1.39,1.02,0,.04,0,.08-.03.12-.1.13-.19.07-1-.43-.63-.39-1.49-.92-2.18-1.22-.15-.06-.26-.04-.27-.01-.02.03.02.16.25.34.4.31.87.63,1.32.94,1.09.74,1.49,1.04,1.48,1.28,0,.04-.03.09-.07.12-.12.08-.35.02-1.23-.25-.41-.13-.88-.27-1.26-.35-.12-.03-.2.01-.2.03,0,.01.02.1.23.22.25.15.76.36,1.3.57.34.14.69.28,1.02.42.33.02.63.05.92.09,1.09.13,1.94.22,3.24-.52.06-.04.14-.01.18.05.04.06.01.14-.05.18-.88.51-1.58.64-2.26.64Z"/>
            <path class="cls-2" d="m20.41,108.82c-1.75,0-3.48-.37-3.59-.4-.06-.01-.1-.06-.1-.12-.05-1.72-.49-16.83.01-17.79.53-1.01,1.36-1.09,1.39-1.09.07,0,.13.05.14.12,0,.07-.05.13-.12.14-.03,0-.72.07-1.18.95-.4.76-.13,12.83.01,17.56.62.13,4.06.76,5.87-.01.06-.03.14,0,.17.07.03.07,0,.14-.07.17-.7.3-1.63.4-2.54.4Z"/>
            <path class="cls-2" d="m26.57,93.98s-.09-.02-.11-.06c-.04-.06-.02-.14.04-.18.03-.02,2.97-1.94,1.2-9.37-.02-.07.03-.14.1-.15.07-.02.14.03.15.1,1.82,7.64-1.18,9.57-1.31,9.65-.02.01-.04.02-.07.02Z"/>
            <path class="cls-2" d="m24.05,81.55c-.07,0-.13-.06-.13-.13,0-.07.05-.13.13-.13,0,0,.73-.02,1.21-.38.06-.04.14-.03.18.03.04.06.03.14-.03.18-.55.41-1.32.43-1.36.43,0,0,0,0,0,0Z"/>
            <path class="cls-2" d="m17.46,83.55h-2.69c-.06,0-.12-.05-.13-.11l-.71-5.22s0-.08.04-.11c.03-.03.07-.04.11-.04l7.54.84h.79l7.11-1.39s.09,0,.12.04c.03.03.04.08.03.12l-1.14,4.8c-.02.06-.08.11-.14.1l-1.49-.18c-.07,0-.12-.07-.11-.14,0-.07.07-.12.14-.11l1.37.17,1.06-4.49-6.93,1.35s-.02,0-.02,0h-.81s0,0-.01,0l-7.38-.83.68,4.94h2.58c.07,0,.13.06.13.13s-.06.13-.13.13Z"/>
            <path class="cls-2" d="m25.66,84.67c-.07,0-.12-.05-.13-.12,0-.07.04-.13.1-.14.71-.13,1.1-.6,1.19-1.42.11-.97-.33-1.06-.35-1.06-.07-.01-.12-.08-.11-.15.01-.07.07-.12.14-.11.03,0,.71.1.57,1.35-.07.63-.31,1.08-.7,1.36,1-.06,2.74-.26,3.23-.9.36-.47.75-3.42.76-7.06.01-4.12-.44-7.25-1.25-8.58-.77-1.26-4.47-2.25-4.51-2.26-.07-.02-.11-.09-.09-.16.02-.07.09-.11.16-.09.16.04,3.84,1.03,4.66,2.38,1.18,1.94,1.3,6.74,1.29,8.71-.01,3.46-.37,6.63-.82,7.22-.77,1.02-4.02,1.03-4.16,1.03Z"/>
            <path class="cls-2" d="m22.25,78.51s-.06,0-.08-.03c-2.57-2.05-6.83-.91-7.5-.71v.43c0,.07-.05.13-.12.13-.07,0-.13-.06-.13-.13v-.53c0-.06.03-.11.08-.12.2-.06,4.86-1.56,7.76.67.34-.18,1.8-.88,3.52-1.11,1.96-.26,3.26,0,3.32,0,.03,0,.06.02.08.05l.2.26c.04.06.03.14-.02.18-.06.04-.14.03-.18-.02l-.17-.22c-.25-.04-1.48-.22-3.19,0-1.91.26-3.49,1.12-3.5,1.12-.02.01-.04.02-.06.02Z"/>
            <path class="cls-2" d="m13.82,79.37s-.01,0-.02,0c-.07-.01-.12-.08-.11-.15.23-1.4.72-5.26.72-5.3,0-.07.07-.12.14-.11.07,0,.12.07.11.14,0,.04-.49,3.91-.73,5.31-.01.06-.07.11-.13.11Z"/>
            <path class="cls-2" d="m25.46,77.43c-.07,0-.13-.06-.13-.13,0-3.96-.8-11.74-.81-11.82,0-.07.04-.13.11-.14.07,0,.13.04.14.11,0,.08.81,7.87.81,11.85,0,.07-.06.13-.13.13Z"/>
            <path class="cls-2" d="m26.4,77.31s0,0,0,0c-.07,0-.12-.07-.12-.14.07-1.08-.22-3.65-.23-3.67,0-.07.04-.13.11-.14.07,0,.13.04.14.11.01.11.29,2.61.23,3.72,0,.07-.06.12-.13.12Z"/>
            <path class="cls-2" d="m21.47,71.63s-.06,0-.09-.03c-.25-.16-2.87-4.75-3.12-6.05-.01-.07.03-.14.1-.15.07-.01.14.03.15.1.23,1.18,2.56,5.28,2.97,5.83.38-.4,1.89-3.37,2.15-5.66,0-.07.07-.12.14-.11.07,0,.12.07.11.14-.26,2.38-1.91,5.7-2.34,5.9-.03.01-.05.02-.08.02Z"/>
            <path class="cls-2" d="m21.63,70.98c-.06,0-.12,0-.18,0-2.68-.21-3.53-5.04-3.56-5.25-.01-.07.04-.14.11-.15.07-.01.14.04.15.11,0,.05.85,4.84,3.33,5.04,2.46.19,3.14-4.13,3.14-4.17.01-.07.08-.12.15-.11.07.01.12.08.11.15-.03.18-.69,4.4-3.23,4.4Z"/>
            <path class="cls-2" d="m17.79,65.74c-.06,0-.11-.04-.13-.1-.01-.07.03-.14.1-.15l1.2-.24c.07-.01.14.03.15.1.01.07-.03.14-.1.15l-1.2.24s-.02,0-.03,0Z"/>
            <path class="cls-2" d="m24.65,65.83s-.02,0-.03,0l-1.36-.33c-.07-.02-.11-.09-.09-.16.02-.07.09-.11.16-.09l1.36.33c.07.02.11.09.09.16-.01.06-.07.1-.12.1Z"/>
            <path class="cls-11" d="m21.91,71.83c0,.25-.2.45-.45.45s-.45-.2-.45-.45.2-.45.45-.45.45.2.45.45Z"/>
            <path class="cls-2" d="m21.46,72.42c-.32,0-.58-.26-.58-.58s.26-.58.58-.58.58.26.58.58-.26.58-.58.58Zm0-.91c-.18,0-.32.15-.32.32s.15.32.32.32.32-.15.32-.32-.15-.32-.32-.32Z"/>
            <path class="cls-2" d="m21.18,78.67s-.04,0-.06-.01c-2.21-1.1-5.11-.63-5.14-.62-.07.01-.14-.04-.15-.11-.01-.07.04-.14.11-.15.12-.02,3.01-.49,5.3.64.06.03.09.11.06.17-.02.05-.07.07-.12.07Z"/>
            <path class="cls-2" d="m23.23,78.67c-.05,0-.1-.03-.12-.08-.03-.07,0-.14.07-.17.02,0,2.3-.9,4.4-.9.07,0,.13.06.13.13s-.06.13-.13.13c-2.06,0-4.29.87-4.31.88-.02,0-.03,0-.05,0Z"/>
            <path class="cls-2" d="m22.57,80.59s0,0-.01,0c-.07,0-.12-.07-.11-.14l.15-1.41c0-.07.07-.12.14-.11.07,0,.12.07.11.14l-.15,1.41c0,.07-.06.12-.13.12Z"/>
            <path class="cls-12" d="m12.34,87.36s6.38-5.15,7.9-5.71c1.52-.56,3.9-.51,5.02,4.2,1.11,4.71,2.23,17.87,2.23,17.87-2.05,2.37-5.69,3.91-8.46,3.92,0,0-1.91-14.09-.61-19.91l-6.08-.37Z"/>
            <path class="cls-2" d="m19.41,107.8c-.14,0-.27,0-.4-.02-.06,0-.1-.05-.11-.11-.02-.14-1.9-14.18-.61-19.95.02-.07.08-.11.15-.1.07.02.11.08.1.15-1.22,5.48.43,18.49.6,19.76,2.02.18,6.17-1.76,8.21-3.85-.08-.96-1.16-13.3-2.22-17.79-.5-2.1-1.29-3.46-2.36-4.03-.9-.49-1.85-.31-2.48-.08-1.48.54-6.97,4.97-7.03,5.02-.06.04-.14.04-.18-.02-.04-.06-.04-.14.02-.18.23-.18,5.58-4.5,7.1-5.06.98-.36,1.91-.33,2.69.09,1.14.61,1.98,2.03,2.49,4.2,1.1,4.67,2.22,17.75,2.23,17.88,0,.04,0,.07-.04.1-2.02,2.09-5.96,3.98-8.17,3.98Z"/>
            <path class="cls-2" d="m10.87,93.98s-.03,0-.04,0c-1.09-.4-2.26-1.29-2.26-2.28.25-4.31,3.37-8.05,3.4-8.09.05-.05.13-.06.18-.02.05.05.06.13.02.18-.03.04-3.09,3.72-3.34,7.93,0,.78.94,1.56,1.93,1.97.05-1.1.43-6.63,3.22-9.3.05-.05.13-.05.18,0,.05.05.05.13,0,.18-2.96,2.83-3.15,9.24-3.15,9.3,0,.04-.02.08-.06.1-.02.01-.05.02-.07.02Z"/>
            <path class="cls-2" d="m14.29,79.88s-.05,0-.07-.02l-1.09-.71c-.06-.04-.08-.12-.04-.18.04-.06.12-.08.18-.04l1.09.71c.06.04.08.12.04.18-.02.04-.07.06-.11.06Z"/>
            <path class="cls-2" d="m28.09,93.27c-.25,0-.52-.02-.81-.07-.07-.01-.12-.08-.1-.15.01-.07.08-.12.15-.1,1.21.22,2.11-.15,2.36-.27-.12-3.87-1.6-8.3-1.61-8.35-.02-.07.01-.14.08-.16.07-.02.14.01.16.08.02.05,1.53,4.58,1.63,8.5,0,.05-.02.09-.06.11-.04.02-.72.41-1.79.41Z"/>
            <path class="cls-2" d="m15.53,84.88s0,0,0,0c-1.93-.14-5.59-1.72-6.29-3.35-.83-1.95,1.33-12.04,2.4-13.57,1.33-1.9,5.92-2.59,6.11-2.62.07,0,.13.03.14.1.01.05,1.16,4.95.51,11.71,0,.07-.07.12-.14.12-.07,0-.12-.07-.12-.14.59-6.14-.31-10.73-.48-11.5-.73.12-4.67.85-5.82,2.49-.98,1.4-3.17,11.45-2.37,13.32.65,1.52,4.25,3.07,6.07,3.2.07,0,.12.07.12.14,0,.07-.06.12-.13.12Z"/>
            <path class="cls-2" d="m10.97,92.62s-.04,0-.06-.01c-.06-.03-.09-.11-.06-.17.02-.04.47-.96,1.2-1.07.07-.01.14.04.15.11.01.07-.04.14-.11.15-.6.09-1,.92-1.01.93-.02.05-.07.07-.12.07Z"/>
          </g>
          <path class="cls-7" d="m41.75,54.3c.61-.48,1.23-.87,2.02-1.01.37-.06,1.01-.1,1.41-.07.67.08,1.2.26,1.61.38.64.18.8.84.8.84,0,0,1.01.58,1.24,1.97.23,1.39-.52,3.36-.52,3.36l-7.76-.76s-.83-3.07,1.19-4.7Z"/>
          <path class="cls-5" d="m40.37,60.25s-.15-.48.02-.8c0-.02.13-.31.32-.37.25-.1.62,0,.88-.4.14-.21.34-.87.47-1.32.06-.2.22-.6.67-.88.62-.38,1.83-.41,2.63-.21.39.1,1.12.25,1.52.69.47.53.34,1.66.61,2.25.3.65.97.74.97.74,0,0,.27.71-.14,1.21-.43.52-.89.52-.89.52,0,0-.17.75-.5,1.26-.33.51-.66.8-.66.8l-.18,1.81-1.5,1.15-.85,1.81-.14-2.02-1.78-1.23.17-1.88s-.33-.37-.51-.93c-.19-.56-.26-1.29-.26-1.29l-.47-.29-.36-.6Z"/>
          <path class="cls-2" d="m41.76,64.97s-.03,0-.04,0c-.07-.02-.11-.09-.08-.16.17-.52.19-1.54.19-1.55,0-.07.06-.13.13-.13.07,0,.13.06.13.13,0,.04-.02,1.07-.2,1.62-.02.05-.07.09-.12.09Z"/>
          <path class="cls-2" d="m46.18,65.5c-.06,0-.12-.05-.13-.11-.09-.58.08-1.69.08-1.74.01-.07.08-.12.15-.11.07.01.12.08.11.15,0,.01-.16,1.12-.08,1.66.01.07-.04.14-.11.15,0,0-.01,0-.02,0Z"/>
          <path class="cls-2" d="m44.01,64.73s-.01,0-.02,0c-.03,0-.72-.1-1.65-.91-.65-.55-.83-1.09-.93-1.41-.16-.44-.27-1.03-.35-1.85,0-.07.05-.13.12-.14.07,0,.13.05.14.12.08.8.18,1.36.34,1.79.1.3.26.79.86,1.3.87.76,1.51.84,1.51.84.07,0,.12.07.11.14,0,.06-.06.11-.13.11Z"/>
          <path class="cls-2" d="m44.07,64.73s-.05,0-.06,0c-.07,0-.12-.07-.12-.14,0-.07.07-.12.14-.12,0,0,.56.04,1.54-.51.7-.4,1.05-.88,1.19-1.14.24-.39.45-.93.68-1.69.02-.07.09-.11.16-.09.07.02.11.09.09.16-.23.79-.45,1.34-.7,1.75-.15.27-.53.8-1.28,1.23-.89.5-1.46.55-1.64.55Z"/>
          <path class="cls-2" d="m41.14,61.14s-.02,0-.03,0c-.32-.07-.83-.44-.94-1.15-.06-.4.06-.78.32-.98.22-.17.5-.2.79-.07.07.03.1.1.07.17-.03.07-.1.1-.17.07-.21-.09-.39-.07-.53.04-.18.14-.27.43-.22.74.09.58.51.88.75.94.07.02.11.09.1.15-.01.06-.07.1-.13.1Z"/>
          <path class="cls-2" d="m40.99,60.18s-.09-.02-.11-.07c0,0-.1-.19-.15-.27-.04-.06-.02-.14.04-.18.06-.04.14-.02.18.04.05.09.15.27.16.28.03.06,0,.14-.05.17-.02.01-.04.02-.06.02Z"/>
          <path class="cls-2" d="m47.49,61.75c-.07,0-.13-.05-.13-.12,0-.07.05-.13.12-.13.25,0,.71-.23.91-.78.11-.29.07-.59-.08-.77-.12-.14-.3-.18-.52-.14-.07.01-.14-.03-.15-.1-.01-.07.03-.14.1-.15.31-.07.58.01.76.22.22.25.26.64.13,1.02-.24.67-.82.94-1.14.95,0,0,0,0,0,0Z"/>
          <path class="cls-2" d="m47.82,60.84s-.06,0-.08-.03c-.05-.04-.06-.13-.02-.18,0,0,.14-.17.21-.25.05-.05.13-.06.18,0,.05.05.06.13,0,.18-.06.07-.2.23-.2.24-.03.03-.06.05-.1.05Z"/>
          <path class="cls-3" d="m41.92,63.31s1.07,1.15,2.11,1.27c.79.1,2.02-.77,2.02-.77,0,0-1.29,1.34-2.36,1.42-.93.07-1.8-.96-1.8-.96l.03-.96Z"/>
          <path class="cls-2" d="m49.11,56.81s-.05,0-.07-.02c-.3-.18-.38-.53-.47-.87-.11-.43-.2-.8-.64-.89-.07-.01-.11-.08-.1-.15.01-.07.08-.11.15-.1.61.12.73.63.84,1.08.07.3.14.59.35.71.06.04.08.12.04.18-.02.04-.07.06-.11.06Z"/>
          <path class="cls-2" d="m48.37,59.85s-.03,0-.04,0c-.07-.02-.1-.1-.08-.16.03-.09.07-.18.1-.28.22-.59.46-1.25.42-2.23,0-.07.05-.13.12-.13.07,0,.13.05.13.12.04,1.03-.22,1.75-.43,2.33-.03.09-.07.19-.1.28-.02.05-.07.09-.12.09Z"/>
          <path class="cls-2" d="m41.06,54.67c-.06,0-.12-.05-.13-.11-.01-.07.04-.14.11-.15,0,0,.46-.07.89-.39,1.1-.81,2.14-1.07,3.1-.78.07.02.11.09.09.16-.02.07-.09.11-.16.09-1.32-.4-2.49.46-2.87.74-.47.35-.98.43-1,.43,0,0-.01,0-.02,0Z"/>
          <path class="cls-2" d="m47.64,54.68c-.07,0-.13-.05-.13-.12h0s-.03-.53-.56-.77c-.24-.11-.46-.14-.68-.18-.32-.05-.66-.11-.97-.4-.05-.05-.05-.13,0-.18.05-.05.13-.05.18,0,.25.24.52.28.83.33.22.04.48.08.74.2.68.31.71.97.71,1,0,.07-.05.13-.12.13h0Z"/>
          <path class="cls-2" d="m40.62,59.06c-.06,0-.12-.05-.13-.11,0-.06-.02-.14-.04-.23-.12-.75-.41-2.5.62-3.83.04-.06.12-.07.18-.02.06.04.07.12.02.18-.96,1.23-.69,2.91-.57,3.63.02.1.03.18.04.24,0,.07-.04.13-.11.14,0,0-.01,0-.02,0Z"/>
          <path class="cls-2" d="m45.89,56.44s-.05,0-.07-.02c-.06-.04-.08-.12-.04-.18.14-.23.47-.39.73-.36.07,0,.12.07.12.14,0,.07-.07.12-.14.12-.17-.02-.4.09-.49.24-.02.04-.07.06-.11.06Z"/>
          <path class="cls-2" d="m44.24,56.26s-.07-.02-.1-.05c-.26-.31-.36-1.04.07-1.42.05-.05.13-.04.18.01.05.05.04.13-.01.18-.31.27-.22.85-.04,1.06.05.05.04.14-.02.18-.02.02-.05.03-.08.03Z"/>
          <path class="cls-2" d="m43.41,56.34s-.02,0-.03,0c-.31-.09-.46-.55-.4-.92.01-.07.08-.12.15-.11.07.01.12.08.11.15-.04.29.08.59.22.63.07.02.11.09.09.16-.02.06-.07.09-.12.09Z"/>
          <path class="cls-2" d="m47.68,59.34s-.06,0-.08-.03c-.39-.31-.46-.83-.52-1.34-.07-.55-.14-1.03-.56-1.18-.07-.02-.1-.1-.08-.16.02-.07.1-.1.16-.08.57.2.65.8.73,1.39.06.46.12.93.43,1.17.06.04.06.13.02.18-.03.03-.06.05-.1.05Z"/>
          <path class="cls-2" d="m41.51,58.81s-.07-.01-.1-.04c-.05-.05-.04-.13,0-.18.24-.22.33-.58.43-.95.13-.53.28-1.13.92-1.34.07-.02.14.01.16.08.02.07-.01.14-.08.16-.51.17-.63.65-.75,1.15-.1.4-.2.81-.5,1.08-.02.02-.06.03-.09.03Z"/>
          <g>
            <path class="cls-2" d="m44.37,61.87s-.07-.01-.09-.04c-.05-.05-.05-.13,0-.18.17-.17.2-.25.2-.28,0-.04-.04-.09-.11-.15-.09-.09-.21-.22-.24-.43-.07-.43.24-1.05.37-1.26.04-.06.12-.08.18-.04.06.04.08.12.04.18-.13.21-.39.75-.34,1.08.02.13.09.2.17.29.09.09.18.19.18.34,0,.14-.09.28-.28.46-.02.02-.06.04-.09.04Z"/>
            <path class="cls-2" d="m44.41,62.87c-.46,0-.93-.18-1.18-.47-.05-.05-.04-.13.01-.18.05-.05.13-.04.18.01.33.38,1.21.53,1.69.16.06-.04.14-.03.18.02.04.06.03.14-.02.18-.24.19-.56.27-.87.27Z"/>
            <path class="cls-2" d="m43.54,58.63s-.04,0-.06-.02c-.46-.25-.84-.04-.85-.03-.06.03-.14.01-.18-.05-.03-.06-.01-.14.05-.17.02-.01.52-.29,1.11.03.06.03.09.11.05.17-.02.04-.07.07-.11.07Z"/>
            <path class="cls-2" d="m46.54,58.96s-.06-.01-.08-.03c-.01-.01-.35-.29-.84-.11-.07.02-.14-.01-.16-.08-.02-.07.01-.14.08-.16.65-.23,1.08.14,1.1.16.05.05.06.13.01.18-.03.03-.06.04-.1.04Z"/>
            <g>
              <path class="cls-2" d="m42.87,60.05c-.18,0-.35-.04-.5-.13-.06-.04-.08-.11-.05-.18.04-.06.11-.08.18-.05.2.12.45.13.75.03.07-.02.14.01.16.08.02.07-.01.14-.08.16-.16.05-.31.08-.45.08Z"/>
              <path class="cls-3" d="m42.58,59.95c.01-.2.13-.06.29-.06.16,0,.3-.14.29.06-.01.2-.13.36-.29.36-.18,0-.3-.16-.29-.36Z"/>
            </g>
            <g>
              <path class="cls-2" d="m46.07,60.36c-.2,0-.41-.06-.63-.18-.06-.03-.08-.11-.05-.17.03-.06.11-.08.18-.05.27.15.52.19.74.11.07-.02.14.01.16.08s-.01.14-.08.16c-.1.04-.21.05-.32.05Z"/>
              <path class="cls-3" d="m46.18,60.3c.03-.2-.12-.08-.28-.12-.16-.03-.27-.2-.3,0-.03.2.06.38.22.41.18.04.33-.1.36-.3Z"/>
            </g>
            <path class="cls-2" d="m42.63,62.54s-.09-.02-.11-.06c-.04-.06-.01-.14.05-.18.43-.25.57-.82.57-.82.02-.07.09-.11.15-.1.07.02.11.09.1.15,0,.03-.16.68-.69.98-.02.01-.04.02-.06.02Z"/>
            <path class="cls-2" d="m45.86,62.85s-.06-.01-.08-.03c-.46-.4-.49-1.07-.49-1.1,0-.07.05-.13.12-.13.08,0,.13.05.13.12,0,0,.03.59.4.91.05.05.06.13.01.18-.03.03-.06.04-.1.04Z"/>
          </g>
          <path class="cls-2" d="m45.07,57.82c-.68,0-1.23-.2-1.26-.21-.07-.02-.1-.1-.08-.16.02-.07.1-.1.16-.08,0,0,.81.29,1.63.16.07-.01.14.04.15.11.01.07-.04.14-.11.15-.17.03-.34.04-.5.04Z"/>
          <path class="cls-2" d="m43.19,60.81c-.59,0-1.47-.21-1.62-.44-.11-.17,0-.72.06-1.04.01-.06.07-.11.14-.1l2.25.22s.07.02.09.05c.02.03.03.07.02.1-.05.24-.22,1.02-.53,1.15-.1.04-.24.06-.41.06Zm-1.33-1.31c-.07.34-.1.67-.07.74.11.13,1.35.44,1.71.28.11-.05.26-.44.35-.82l-1.99-.19Z"/>
          <path class="cls-2" d="m46.23,61.1c-.45,0-.92-.07-1.11-.2-.27-.19-.3-.99-.3-1.23,0-.04.02-.07.04-.1.03-.02.06-.04.1-.03l2.25.21c.06,0,.11.06.12.12,0,.32,0,.88-.14,1.03-.12.13-.53.19-.96.19Zm-1.15-1.29c.02.39.09.81.18.88.33.23,1.6.16,1.74.04.04-.06.07-.38.07-.73l-1.99-.19Z"/>
          <path class="cls-2" d="m44.98,60.14s-.04,0-.07-.02c-.29-.17-.6-.2-.96-.09-.07.02-.14-.02-.16-.08-.02-.07.02-.14.09-.16.42-.13.81-.09,1.16.11.06.04.08.12.05.18-.02.04-.07.06-.11.06Z"/>
          <path class="cls-2" d="m43.21,66.44s-.04,0-.06-.02c-1.63-.9-1.85-2.07-1.86-2.12-.01-.07.03-.14.1-.15.07-.01.14.03.15.1h0s.22,1.1,1.73,1.94c.06.03.08.11.05.17-.02.04-.07.07-.11.07Z"/>
          <path class="cls-2" d="m44.91,66.61s-.08-.02-.1-.05c-.04-.06-.03-.14.03-.18.75-.56,1.34-1.1,1.69-1.58h.01c.04-.07.12-.08.18-.04.06.04.07.12.03.18h0c-.37.51-.97,1.07-1.75,1.65-.02.02-.05.03-.08.03Z"/>
          <path class="cls-2" d="m44.02,70.63c-.06,0-.11-.04-.13-.1-.01-.07.03-.14.1-.15.02,0,2.42-.47,4.53-.57.07,0,.13.05.13.12,0,.07-.05.13-.12.13-2.1.1-4.47.56-4.5.56,0,0-.02,0-.02,0Z"/>
          <path class="cls-2" d="m41.76,70.63s-.05,0-.07-.02c-1.17-.8-3.66-1.27-3.69-1.28-.07-.01-.12-.08-.1-.15.01-.07.08-.12.15-.1.1.02,2.57.49,3.78,1.32.06.04.07.12.03.18-.03.04-.07.06-.11.06Z"/>
          <polygon class="cls-14" points="45.63 67.09 46.03 68.27 46.68 66.93 45.63 67.09"/>
          <path class="cls-2" d="m43.73,68.62s-.01,0-.02,0c-.06,0-.11-.06-.11-.13,0-1.12-.05-1.84-.25-2.02-.03-.03-.07-.04-.13-.04-.21.02-.76.79-1.14,1.49-.02.04-.07.07-.11.07h0s-.09-.03-.11-.07c-.59-1.1-1.91-3.69-1.57-4.13.5-.63,1.49-.06,1.53-.03.06.04.08.11.05.18-.04.06-.11.08-.18.05,0,0-.84-.49-1.2-.03-.15.23.64,2.03,1.48,3.64.28-.49.84-1.38,1.23-1.41.13-.01.23.02.32.1.19.18.28.56.32,1.48.24-.61.62-1.37,1.05-1.42.55-.06.97.99,1.16,1.58.61-1.22,1.41-2.91,1.43-3.22.01-.13-.02-.23-.1-.29-.24-.2-.87-.08-1.08-.02-.07.02-.14-.02-.16-.09-.02-.07.02-.14.09-.16.09-.03.93-.25,1.32.07.1.08.21.24.19.51-.04.48-1.44,3.28-1.6,3.6-.02.05-.07.07-.13.07-.05,0-.1-.04-.11-.09-.2-.73-.63-1.74-.98-1.7-.36.04-.84,1.15-1.07,1.93-.02.06-.07.09-.12.09Z"/>
          <path class="cls-8" d="m1.47,88.72l1.3,25.98h-1.26c0-11.29-1.37-25.98-1.37-25.98h1.34Z"/>
          <path class="cls-2" d="m2.76,114.82h-1.26c-.07,0-.13-.06-.13-.13C1.37,103.54.01,88.87,0,88.73c0-.04,0-.07.03-.1.02-.03.06-.04.1-.04h1.34c.07,0,.13.05.13.12l1.3,25.98s-.01.07-.04.1c-.02.03-.06.04-.09.04Zm-1.14-.26h1l-1.28-25.72H.27c.14,1.53,1.35,15.16,1.36,25.72Z"/>
          <path class="cls-2" d="m2.76,114.82s-.07-.02-.1-.04c-.05-.05-.04-.13.01-.18l.41-.36c-.03-.97-.43-12.93-.91-16.98,0-.07.04-.13.11-.14.07,0,.13.04.14.11.5,4.21.91,16.94.91,17.06,0,.04-.02.08-.04.1l-.46.4s-.05.03-.08.03Z"/>
          <path class="cls-2" d="m2.76,114.82h-1.26c-.07,0-.13-.06-.13-.13C1.37,103.54.01,88.87,0,88.73c0-.04,0-.07.03-.1.02-.03.06-.04.1-.04h1.34c.07,0,.13.05.13.12l1.3,25.98s-.01.07-.04.1c-.02.03-.06.04-.09.04Zm-1.14-.26h1l-1.28-25.72H.27c.14,1.53,1.35,15.16,1.36,25.72Z"/>
          <path class="cls-8" d="m62.34,88.72l-1.38,25.98h1.26c0-11.29,1.37-25.98,1.37-25.98h-1.26Z"/>
          <path class="cls-2" d="m62.23,114.82h-1.26s-.07-.01-.09-.04c-.02-.03-.04-.06-.04-.1l1.38-25.98c0-.07.06-.12.13-.12h1.26s.07.02.1.04c.02.03.04.06.03.1-.01.15-1.37,14.81-1.37,25.96,0,.07-.06.13-.13.13Zm-1.13-.26h1c.01-10.56,1.22-24.19,1.36-25.72h-1l-1.36,25.72Z"/>
          <path class="cls-2" d="m60.96,114.82s-.06-.01-.09-.03l-.46-.41s-.04-.06-.04-.1c0-.13.41-12.85.91-17.06,0-.07.07-.12.14-.11.07,0,.12.07.11.14-.48,4.05-.88,16.02-.91,16.98l.41.37c.05.05.06.13.01.18-.03.03-.06.04-.1.04Z"/>
          <path class="cls-2" d="m62.23,114.82h-1.26s-.07-.01-.09-.04c-.02-.03-.04-.06-.04-.1l1.38-25.98c0-.07.06-.12.13-.12h1.26s.07.02.1.04c.02.03.04.06.03.1-.01.15-1.37,14.81-1.37,25.96,0,.07-.06.13-.13.13Zm-1.13-.26h1c.01-10.56,1.22-24.19,1.36-25.72h-1l-1.36,25.72Z"/>
          <path class="cls-2" d="m8.69,111.06s-.08-.02-.1-.05c-.04-.06-.03-.14.03-.18l.43-.32-.48-13.4c0-.07.05-.13.12-.13.07,0,.13.05.13.12l.48,13.46s-.02.08-.05.11l-.48.36s-.05.03-.08.03Z"/>
          <path class="cls-2" d="m54.75,111.06s-.05,0-.08-.03l-.48-.36s-.05-.07-.05-.11l.48-13.46c0-.07.06-.13.13-.12.07,0,.13.06.12.13l-.48,13.4.43.32c.06.04.07.12.03.18-.03.03-.06.05-.1.05Z"/>
          <path class="cls-2" d="m58.52,90.36c-.07,0-.13-.06-.13-.13v-2.38c0-.07.06-.13.13-.13s.13.06.13.13v2.38c0,.07-.06.13-.13.13Z"/>
          <path class="cls-2" d="m59.79,91.86h0c-.07,0-.13-.06-.13-.13l.03-2.44c0-.07.06-.13.13-.13h0c.07,0,.13.06.13.13l-.03,2.44c0,.07-.06.13-.13.13Z"/>
          <path class="cls-2" d="m3.32,92.12c-.07,0-.13-.05-.13-.12l-.1-3.23c0-.07.05-.13.12-.13.07,0,.13.05.13.12l.1,3.23c0,.07-.05.13-.12.13,0,0,0,0,0,0Z"/>
          <path class="cls-2" d="m4.49,90.7c-.07,0-.13-.06-.13-.13v-2.72c0-.07.06-.13.13-.13s.13.06.13.13v2.72c0,.07-.06.13-.13.13Z"/>
        </g>
      </g>
    </g>
  </g>
</svg>