<?xml version="1.0" encoding="UTF-8"?>
<svg id="_レイヤー_2" data-name="レイヤー 2" xmlns="http://www.w3.org/2000/svg" xmlns:xlink="http://www.w3.org/1999/xlink" viewBox="0 0 147.07 86.24">
  <defs>
    <style>
      .cls-1 {
        fill: #ffd9b9;
      }

      .cls-1, .cls-2, .cls-3, .cls-4, .cls-5, .cls-6, .cls-7, .cls-8, .cls-9, .cls-10, .cls-11, .cls-12, .cls-13, .cls-14, .cls-15 {
        fill-rule: evenodd;
      }

      .cls-16, .cls-14 {
        fill: #262626;
      }

      .cls-17, .cls-6 {
        fill: #fff;
      }

      .cls-2 {
        fill: #d2b99f;
      }

      .cls-3 {
        fill: #7f685d;
      }

      .cls-4 {
        fill: #8896b1;
      }

      .cls-5 {
        fill: #fff400;
      }

      .cls-7 {
        fill: #dfb88f;
      }

      .cls-18 {
        stroke: #262626;
        stroke-linecap: round;
        stroke-linejoin: round;
      }

      .cls-18, .cls-19 {
        fill: none;
      }

      .cls-8 {
        fill: #cfd3dc;
      }

      .cls-9 {
        fill: #796f65;
      }

      .cls-10 {
        fill: #94ad83;
      }

      .cls-11 {
        fill: #fca29e;
      }

      .cls-12 {
        fill: #eda152;
      }

      .cls-13 {
        fill: #e3974e;
      }

      .cls-20 {
        clip-path: url(#clippath);
      }

      .cls-15 {
        fill: #db534e;
      }
    </style>
    <clipPath id="clippath">
      <rect class="cls-19" x="62.69" y="19.73" width="84.38" height="56.53" transform="translate(209.76 95.99) rotate(180)"/>
    </clipPath>
  </defs>
  <g id="illustration">
    <g>
      <g class="cls-20">
        <g>
          <path class="cls-5" d="m102.02,27.72s-.42-.06-.68-.47c-.26-.4-.36-1.2-.36-1.2,0,0-.01.78-.28,1.19-.26.41-.8.43-.8.43,0,0,.48.06.75.45.27.39.33,1.2.33,1.2,0,0,.04-.73.3-1.12.26-.39.74-.49.74-.49Z"/>
          <path class="cls-5" d="m86.87,21.64s-.42-.06-.68-.47c-.26-.4-.36-1.2-.36-1.2,0,0-.01.78-.28,1.19-.26.41-.8.43-.8.43,0,0,.48.06.75.45.27.39.33,1.2.33,1.2,0,0,.04-.73.3-1.12.26-.39.74-.49.74-.49Z"/>
          <path class="cls-5" d="m78.67,30.84s-.44-.07-.72-.49c-.28-.42-.3-1.33-.3-1.33,0,0-.09.89-.37,1.32-.28.43-.84.45-.84.45,0,0,.5.07.79.47s.34,1.26.34,1.26c0,0,.04-.76.32-1.17.27-.41.77-.52.77-.52Z"/>
          <path class="cls-5" d="m139.94,41.43s-.42-.06-.68-.46c-.26-.4-.29-1.26-.29-1.26,0,0-.09.84-.35,1.25-.26.41-.8.43-.8.43,0,0,.48.06.75.45.27.38.33,1.2.33,1.2,0,0,.04-.72.3-1.11.26-.39.74-.49.74-.49Z"/>
          <path class="cls-5" d="m117.45,31.37s-.42-.06-.68-.47c-.26-.4-.36-1.2-.36-1.2,0,0-.01.78-.28,1.19-.26.41-.8.43-.8.43,0,0,.48.07.75.45.27.39.33,1.2.33,1.2,0,0,.04-.73.3-1.12.26-.39.74-.49.74-.49Z"/>
          <path class="cls-5" d="m110.2,39.29s-.32-.05-.53-.36c-.21-.31-.22-.98-.22-.98,0,0-.07.66-.27.98-.21.32-.62.34-.62.34,0,0,.37.05.58.35.21.3.26.93.26.93,0,0,.03-.56.23-.87.2-.3.57-.38.57-.38Z"/>
        </g>
        <g>
          <path class="cls-13" d="m85.94,26.81c.64-.32,1.43-.3,2.05-.33.2-.01.54-.4,1.32-.51,1.07-.15,2.4.51,3.44.96.59.26,1.27.42,1.27.42l-.36.3s.87.71,1.22,1.68c.35.97.88,2.47.88,2.47l-.67-.06s.08.54,0,.99c-.09.45-.34.81-.34.81l-.69,1.93-.36,1.11-.86,1.77.15,1.05-.62-.2-6.22-.37-.71.37.21-1-.64.27s.19-1.26-.11-2.01c-.35-.89-1.21-1.4-1.41-3.13-.06-.53.25-2.33.25-2.33l-.76.04s.57-.58.83-1.26c.37-.96.62-2.19,2.18-2.97Z"/>
          <path class="cls-8" d="m80.36,72.58l19.08.15s.53,3,.71,6.09c.18,3.09,0,6.29,0,6.29,0,0-3.9.84-8.46.96,0,0-.79-4.3-1.14-4.3-.31,0-.84,4.3-.84,4.3-4.72-.11-9.54-.96-9.54-.96,0,0-.26-3.19-.21-6.32.05-3.13.41-6.2.41-6.2Z"/>
          <path class="cls-4" d="m84.88,41.84l8.96-.05,1.96.84s4.33,1.03,5.57,2.72c1.12,1.54,2.24,4.28,2.98,6.26.79,2.1,1.17,3.41,1.17,3.41l1.43,5.19s.37,2.53-.18,3.74c-.57,1.25-1.72,1.9-2.96,2.6-2.09,1.18-4.4,1.96-4.4,1.96l.08,1.9.17,1.66-.23.63s-1.18.74-2.71,1.23c-1.88.6-4.4.99-7.05.93-2.3-.05-5.24-.53-6.98-1.13-1.9-.66-2.52-1.44-2.52-1.44l.15-1.78-.33-1.5-.15-2.71-1.2-5.21s-3.14,2.47-5,2.63c-1.68.14-2.11-1.95-2.11-3.14,0-2.44,1.24-5.5,2.53-8.75.89-2.25,1.61-4.77,3.21-6.47,1.08-1.14,3.52-1.9,5.41-2.55,1.18-.4,2.17-.97,2.17-.97Z"/>
          <path class="cls-10" d="m113.49,55.44l5.86-8.32,3.19-.55,8.57.78s3.98,1.59,4.73,2.17c1.3,1.03,1.55,3.64,1.56,5.97.02,4.85.31,11.34-.77,14.37-.41,1.16-2.92,1.51-2.92,1.51,0,0,.94,2.96,1.48,6.37.54,3.4.67,7.25.67,7.25,0,0-4.77,1.26-9.81,1.26s-10.38-1.26-10.38-1.26c0,0-.03-.66.56-4.66.46-3.12,1.34-7.91,1.68-10.03.1-.6.12-1.3.12-1.3l-1.07-4.66-1.36-.49s-2.07,3.2-3.64,3.41c-.85.11-1.52-2.14-1.71-2.88-.53-2.11,3.22-8.95,3.22-8.95Z"/>
          <path class="cls-3" d="m122.34,33.71s2.64-2.9,5.32-2.73c2.35.16,2.55,1.36,2.55,1.36,0,0,1.2.51,2.13,1.81.48.67.79,1.33,1.04,2.71.2,1.07-.27,4.62-.08,5.6.08.39.89,1.9.96,2.24.23,1.24-.37,1.79-.31,2.38.15,1.5.64,1.65.64,1.65l-3.41-1.39-8.56-.74-2.74.52s-.45-1.2.09-2.41c.56-1.26.71-2.82.71-2.82,0,0-.92-2.76-.68-3.93.39-1.86,2.35-4.25,2.35-4.25Z"/>
          <path class="cls-1" d="m84.32,33.18c.42-.48.94.21,1.66-.04.6-.21,1.03-1.49,1.03-1.49,0,0,.34-.78.67-1.22.35-.45,1-.55,1.86-.55.74,0,1.02,1.01,1.86,1.38.33.15.58.17.58.17,0,0,.24.63.76,1.08.51.45,1.3.73,1.3.73,0,0,.83.51.61,1.24-.23.74-1.02,1.1-1.02,1.1l-.56,2.2-.83,1.24s-.07,1.36.3,2.11c.37.75,1.18.89,1.18.89,0,0-1.64,3.53-3.82,3.54-1.24,0-2.85-1.22-3.84-2.19-.76-.75-1.09-1.29-1.09-1.29,0,0,1.08-.76,1.21-2.2.13-1.44-.4-2.68-.68-3.54-.25-.75-.66-.61-1.01-.94-.53-.51-.89-1.34-.13-2.22Z"/>
          <path class="cls-1" d="m124.91,35.75s1.21-1.77,3.22-1.25c2.06.53,2.95,2.51,2.87,3.45-.07.88,1.05.95.95,1.66-.17,1.16-1.31,1.33-1.31,1.33l-.41,1.2-.64,1.19s-.16,1.59,0,2.68c.11.66,1.56,1.44,1.56,1.44,0,0-2.74,1.98-4.99,1.75-2.46-.25-3.61-2.6-3.61-2.6,0,0,.93-.14,1.34-.92.42-.79.33-2.22.33-2.22l-.73-1.23-.34-1.69s-.97-.51-.95-1.41c.02-1.14.9-1.05,1.52-1.59.71-.61,1.18-1.77,1.18-1.77Z"/>
          <path class="cls-2" d="m113.2,52.2l5.95-1.52s.28,1.56.72,2.29c.68,1.11,1.71,1.69,2.43,2.99.69,1.24,1.53,4.31,1.53,4.31l1.17,1.86s.25.96.27,1.62c.04,1-.16,1.86-.35,1.86-.15,0-.02-1.1-.26-1.92-.27-.91-.89-1.54-.89-1.54l-.68.88-6.3-3.36-.27-1.45-.83-1.43.09,3.07-.9.32-1.2.61s-.03-.44.16-.66c.19-.22.6-.21.6-.21,0,0-.1-1.19-.38-2.55-.29-1.36-.77-2.9-.77-2.9l-.09-2.27Z"/>
          <path class="cls-6" d="m84.11,56.78s2.41-.44,4.54.59c.78.38,1.39.75,2.33.93,1.07.21,2.54.14,2.54.14l2.04-.65,1.08-.12,1.34-1.64s1.04-.76,1.21-.96c.76-.91.31-1.94.56-1.93.37.03,1.6,1.66,1.94,1.71.4.06,1.06.14,1.41.23.43.12,1.3.28,1.63.46.17.09,1.44-.9,1.58-.78.32.27,0,1.22.18,1.74.47,1.37.97,2.8.17,3.94-.54.77-2.79.74-2.79.74,0,0,.78.8.88,1.32.11.53-.46.78-.46.78l-.26.32-.69-.04-.62.03-1.6-1.25s-5.23,2.25-5.61,2.45c-.57.29-.62.49-.62.49l-8.61,2.47s-2.17.81-2.93.64c-2.68-.59-3.45-1.76-3.88-2.46-.36-.6-.63-.88-.63-.88,0,0-.94,2.11-.74,3.21.27,1.48,1.23,3.32,2.07,5.24.69,1.57,1.29,3.21,1.46,4.66.24,2.03-1.09,3.77-1.7,4.11-1.1.61-1.55,1.26-2.55,1.69-1.23.53-2.14.1-3.11-.01-1.14-.13-2.29-.01-2.86-.39-.62-.42-1.64-1.59-1.59-2.7.03-.75-.95-1.52-.66-2.48.38-1.27,1.54-1.78,1.99-1.81.45-.02-.33.85-.17,1.71.1.54.48,1,1.01,1.37.94.66,3.63.92,4.66-.97.31-.57.35-2.06.1-3.26-.55-2.69-2.01-5.95-1.47-8.54.44-2.12,3.05-5.53,3.05-5.53l5.77-4.58Z"/>
          <path class="cls-1" d="m117.34,59.63c-.37-.01-.72.02-1.1.13-.79.23-1.71.82-1.71.82l-.2.73s-.61-.03-.61.26c0,.29.59.91.59.91l.18,1.21s-.98-.83-1.57-1.07c-.45-.18-.59.15-.4.4.18.24,1.02,1.12,1.76,1.72.98.79,1.87,1.31,1.76,1.44-.11.12-.66-.02-1.26-.38-.74-.44-1.58-1.13-2.04-1.29-.26-.09-.39.05-.29.31.11.28.46.69.46.69,0,0-.09.16.02.5.11.35.76.97,1.22,1.3.52.37,1.75,1.03,2.66,1.33,1.26.43,2.56.36,3.72.55,1.48.25,2.68.71,2.68.71,0,0-.03-.9.09-1.65.12-.75.39-1.36.39-1.36,0,0-.76-.1-1.33-.47-.57-.37-1.32-1.65-1.32-1.65,0,0,1.49.72,2.21.69.72-.03.67-.8.67-.8,0,0,.69-.44.35-.82-.66-.73-2.67-1.68-2.56-1.95.08-.18.95-.16,1.67.03,1.17.31,2.4.92,2.65.85.39-.12.24-.34,0-.61-.38-.41-1.07-.88-1.07-.88,0,0,.18-.26-.08-.48-.26-.22-.96-.39-.96-.39l-1.73-.63s-1.68.05-3.59-.08c-.47-.03-.86-.08-1.23-.09Zm-1.46,4.37s.74.56.64.76c-.09.2-.87-.32-.9-.33-.05-.03.09-.14.11-.2.03-.05.09-.25.14-.23Z"/>
          <path class="cls-1" d="m82.95,53.03s.83-.44,1.83-.96c1.03-.54,2.25-1.17,3.91-1.03.83.07,4.98,1.58,5.65,1.88.92.42,3.37,2.27,3.65,2.55.29.28.1.62-.39.51-.66-.14-1.73-.79-1.73-.79,0,0,1.42,2.02,1.32,2.56-.11.57-1.74-1.19-1.74-1.19,0,0,.64,2.2-.31,1.52-.39-.28-1-1.47-1.62-2.29-.55-.72-1.15-1.09-1.15-1.09,0,0,.83,2.85.59,3.11-.47.5-1.58-1.74-1.76-2.57-.11-.49-.61-.48-1.11-.64-.8-.25-1.73-.52-2.14-.75-.53-.3-.88-.02-1.52.44-1.09.77-2.4,2.08-2.4,2.08,0,0-.55-.47-.81-1.31-.27-.83-.25-2.03-.25-2.03Z"/>
          <path class="cls-1" d="m82.54,64.25s1.56.55,4.71.82c.35.03,1.16-.02,1.16-.02,0,0-.65-.55-1.49-.74-.83-.2-.99-.55-1-.7-.06-.62,2.14-.11,2.74-.08.9.04,2.25,1.47,3.72,1.94,1.29.41,2.77-.13,2.77-.13,0,0,.43.63.65,1.53.22.9.24,2.07.24,2.07,0,0-2.25.38-4.65.83-1.32.25-2.64.67-3.77.71-1.1.04-2.15-.34-2.8-.52-1.21-.34-1.24-.89-1.24-.89,0,0-1.36-.25-1.33-.79,0-.1.24-.24.53-.23,1.1.05,3.63.75,3.78.19.06-.22-.86-.27-1.89-.49-1.27-.26-2.75-.7-3.11-1.12-.14-.16,0-.54.49-.51,1.26.09,4.05.91,4.47.54.13-.12-.33-.44-1.18-.71-1.04-.33-2.4-.59-2.92-.94-.8-.54.12-.75.12-.75Z"/>
          <path class="cls-6" d="m102.63,67.22l2.62-1.5s-.01,3.65-.4,5.12c-.39,1.47-1.15.75-1.15.75,0,0-.72.13-1.19-.46-.26-.32,0-.99.1-1.96.09-.79,0-1.95,0-1.95Z"/>
          <path class="cls-6" d="m111.68,46.34c.23-.17.44-1,.89-1.28.52-.31,1.28-.05,1.28-.05,0,0,1.08-.17,1.75-.08,1.55.21,3.11.64,3.11.64l.31.86.47.69.03.68s.51,1.2.34,2.11c-.17.9-.89,1.99-2.77,2.36-.64.13-2.03.51-2.74.38-1.39-.26-2-1.25-2-1.25,0,0-.72-.55-1.03-1.56-.36-1.17-.55-2.85.36-3.5Z"/>
          <path class="cls-6" d="m124.5,65.4s.66-.45,1-.07.24,1.47.24,1.47l-1.42-.19.19-1.21Z"/>
          <path class="cls-7" d="m113.66,49.29c0-.33.57-.21,1.1-.21s1.1-.04,1.1.29-.57.89-1.1.89-1.1-.64-1.1-.97Z"/>
          <path class="cls-11" d="m114.21,49.13l.55-.29.51.45s-.17.87-.43,1.16c-.26.3-.51-.12-.66-.45-.16-.33.03-.88.03-.88Z"/>
          <path class="cls-11" d="m111.5,43.83c.32-.35.76-.11,1.17.36.41.47.48.91.12,1.34-.27.33-.79.34-.79.34,0,0-.21-.54-.37-.99-.17-.48-.3-.87-.13-1.05Z"/>
          <path class="cls-11" d="m119.81,44.35c-.32-.35-.99-.07-1.4.4-.41.47-.5.87-.15,1.3.27.33.79.34.79.34,0,0,.21-.54.37-.99.17-.48.56-.87.4-1.05Z"/>
          <path class="cls-6" d="m115.41,43.21s.6-.72.75-.51c.16.21-.24.95-.24.95l-.14.55-.48-.02.1-.97Z"/>
          <path class="cls-7" d="m112.52,44.04s.68.32.96.62c.28.3.3.38.24.57-.06.2-.49.21-.49.21l-.71-1.4Z"/>
          <path class="cls-7" d="m117.23,45.33c.11-.33,1.25-.88,1.25-.88l-.36.79-.32.43s-.71.1-.57-.34Z"/>
          <path class="cls-15" d="m114,43.24c.53-.31,1.42.86,1.42.86l.5.06s1.32-.9,1.59-.6c.12.14-.31.69-.31.69l-.21,1.11s-.55-.33-1.28-.43c-.73-.1-1.65.03-1.65.03l.08-.91s-.39-.65-.14-.8Z"/>
          <path class="cls-7" d="m114.6,47.9c.19-.3.49-.54.74-.37.23.15.26.28.07.57-.19.3-.4.52-.65.36-.25-.16-.34-.26-.16-.56Z"/>
          <path class="cls-9" d="m79.52,75.93c-1.33-1.45-.78-3.58-.16-3.58s1.4,2.34,1.66,3.22c.26.87.94,3.36.31,3.36s-.49-1.54-1.82-2.99Z"/>
          <path class="cls-9" d="m77,72.9c0-.58.28-.4.59-1.05.31-.65.65-1.47.87-.21.23,1.26-.3,2.31-.72,2.31s-.75-.47-.75-1.05Z"/>
          <path class="cls-9" d="m87.77,61.19c-.69-2.06,1.58-1.88,2.36-1.12.87.84,1.56,2.88,1.56,3.42,0,1.01-1.36.72-1.36.72l-1.27-.63-2.17-.13s1.56-.19.88-2.25Z"/>
          <path class="cls-9" d="m103.8,57.81c.03-1.64,1.05-2.3,1.05-2.3,0,0,1.19-.65,1.4-.65.24,0,.04.84.17,1.41.23,1.03.69,2.14.69,2.67,0,.82-.27,1.84-.96,1.84s-2.37-1.41-2.34-2.98Z"/>
          <path class="cls-12" d="m77.92,61.9l6.12-5.02s4.34-.41,1.33,1.28c-1.31.74-4.53,1.65-3.04,3.3.78.87.79,1.91.39,2.74-.05.1-.5.2-.55.29-.09.15.2.28.08.41-.36.39-.81.67-1.29.75-2.72.46-3.05-3.76-3.05-3.76Z"/>
          <path class="cls-12" d="m99.77,56.33c0-.63,2.27-1.33,2.76.63.15.61-.43,1.09-1.23,1.09s-1.52-1.09-1.52-1.72Z"/>
          <path class="cls-12" d="m97.6,60.49c0-.43,1.45-.61,2.39-.61s2.97.46,2.97.89-1.53-.12-3.16.87c-1.42.86-2.2-.72-2.2-1.15Z"/>
          <path class="cls-12" d="m69.59,80.87c0-.49-.6-1.31-.48-2.16.13-.88,1.34-2.1,2.01-2.1.55,0-.71,1.15.07,2.25.38.54,1.42,1.15,2.2,1.31.6.12,1.02-.19,1.02.06s-.64.29-1.05.54c-.45.28-.51.89-.1,1.03,2.63.93,1,2.46-1.11,1.91-1.27-.33-2.56-1.84-2.56-2.85Z"/>
          <path class="cls-16" d="m92.8,58.02c-.08,0-.18-.02-.28-.07-.4-.17-.64-.79-.89-1.44-.26-.66-.55-1.42-.98-1.54-.55-.15-1.09-.37-1.56-.57-.85-.34-1.58-.64-1.97-.42-.25.14-1.93,1.52-3.01,2.42-.07.06-.17.05-.23-.02-.06-.07-.05-.17.02-.23.28-.23,2.7-2.26,3.06-2.46.53-.29,1.29.02,2.25.41.49.2,1,.4,1.53.55.59.16.9.96,1.2,1.73.22.56.44,1.14.72,1.26.12.05.16.04.16.04.12-.1-.09-.89-.19-1.28-.03-.12-.06-.24-.09-.35-.25-1.03-.41-1.41-1.05-2.17-.06-.07-.05-.17.02-.23.07-.06.17-.05.23.02.68.8.86,1.23,1.12,2.3.03.12.06.23.09.35.22.85.34,1.39.08,1.61-.06.05-.14.08-.23.08Z"/>
          <path class="cls-16" d="m95.41,58.29s-.02,0-.04,0c-.51-.03-1-.83-1.56-1.79-.14-.25-.26-.46-.35-.57-.47-.63-1.61-1.6-1.62-1.61-.07-.06-.08-.16-.02-.23.06-.07.16-.08.23-.02.05.04,1.19,1,1.68,1.67.1.13.22.35.37.61.32.56.92,1.6,1.29,1.62.02,0,.08,0,.09-.02.13-.2-.34-1.21-.71-2.02l-.05-.11c-.53-1.15-1.36-1.94-1.9-2.47-.07-.06-.07-.17,0-.23.06-.07.17-.07.23,0,.56.54,1.41,1.36,1.97,2.56l.05.11c.61,1.31.91,2.01.69,2.34-.05.08-.15.16-.35.16Z"/>
          <path class="cls-16" d="m96.96,58h-.01c-.81-.01-2.12-2.05-2.26-2.28-.05-.08-.03-.18.05-.23.08-.05.18-.02.23.05.52.82,1.51,2.12,1.99,2.13.08,0,.1-.02.11-.02.09-.17-.46-.99-.73-1.38-.08-.11-.15-.22-.22-.33-.5-.76-.99-1.47-1.92-2.54-.06-.07-.05-.17.02-.23.07-.06.17-.05.23.02.95,1.09,1.45,1.81,1.95,2.58.07.1.14.21.22.32.56.83.92,1.4.74,1.72-.05.09-.15.19-.39.19Z"/>
          <path class="cls-16" d="m97.81,56.18c-.73,0-1.98-.89-2.25-1.09-.07-.05-.09-.16-.03-.23.05-.07.16-.09.23-.03.71.53,1.86,1.18,2.19,1.01,0,0,.04-.02.04-.04,0,0,0-.17-.54-.56-.39-.28-.85-.62-1.4-1.01l-.71-.52c-.76-.55-5.3-2.75-7.95-2.52-.73.06-2.43,1-3.45,1.56-.49.27-.75.41-.87.45-.09.03-.18-.02-.21-.1s.02-.18.1-.21c.1-.03.43-.22.82-.43,1.11-.61,2.78-1.52,3.58-1.6,2.74-.24,7.4,2.02,8.17,2.58l.71.52c.54.39,1.01.73,1.4,1.01.47.35.69.62.67.85,0,.09-.05.21-.21.3-.08.04-.18.06-.29.06Z"/>
          <path class="cls-16" d="m93.15,65.73c-.54,0-.93-.09-1.34-.28-.34-.16-.66-.41-.98-.65-.21-.16-.41-.31-.61-.43l-.12-.08c-.5-.31-.73-.45-1.17-.53-.4-.07-.95-.12-1.43-.15-.13,0-.25-.02-.36-.03-.14-.01-.29-.04-.44-.06-.26-.04-.58-.1-.68-.03,0,0-.02.01-.02.05-.02.14.04.36.84.59l.17.05c.55.15,1.17.33,1.61.8.06.07.06.17,0,.23-.07.06-.17.06-.23,0-.38-.41-.96-.57-1.46-.71l-.17-.05c-.35-.1-1.17-.34-1.08-.95.02-.11.07-.2.16-.26.21-.15.56-.09.92-.03.14.02.28.05.41.06.11,0,.23.02.36.03.49.04,1.05.08,1.46.16.5.09.76.25,1.28.57l.12.08c.21.13.41.28.63.45.3.23.62.47.92.61.7.34,1.39.31,3.09.06.09-.01.17.05.19.14.01.09-.05.17-.14.19-.84.13-1.45.2-1.94.2Z"/>
          <path class="cls-16" d="m86.95,69.84s-.01,0-.02,0c0,0-.83-.09-1.53-.14-.49-.04-.96-.2-1.4-.35-.17-.06-.34-.12-.51-.17-.59-.18-1.3-.44-1.38-.71-.05-.18-.03-.32.06-.43.14-.16.4-.2.87-.14.25.03.57.1.92.18.43.09.87.19,1.2.22.47.04.96-.01,1.17-.08-.19-.06-.57-.11-.87-.15-.29-.04-.59-.08-.88-.14-.77-.15-1.22-.33-1.78-.55-.11-.04-.22-.09-.34-.13-.68-.26-1.26-.48-1.14-.94.03-.12.11-.22.23-.29.36-.2,1.03-.05,1.4.06.72.21,1.25.34,1.99.44.48.06,1.24.16,1.44.09-.12-.18-1.5-.56-1.97-.69-.23-.06-1.69-.54-2.13-.79-.25-.15-.37-.4-.29-.63.07-.21.32-.4.79-.33.44.07,1.17.23,1.88.4.2.05.4.09.59.14.89.2,1.58.26,2.41.29.45.02.8-.02,1.11-.05.13-.01.26-.02.37-.03.09,0,.17.06.17.16,0,.09-.07.17-.16.17-.11,0-.23.02-.36.03-.3.03-.68.06-1.15.05-.85-.03-1.55-.09-2.47-.3-.19-.04-.39-.09-.59-.14-.7-.16-1.43-.33-1.86-.39-.26-.04-.41.03-.44.11-.03.08.03.17.15.24.38.22,1.78.69,2.05.76,1.89.52,2.26.71,2.21,1.08,0,.07-.04.13-.1.18-.22.17-.79.11-1.7,0-.78-.1-1.32-.24-2.06-.45-.53-.15-.97-.19-1.15-.08-.05.03-.07.06-.07.09-.04.16.4.35.94.55.12.05.24.09.34.13.55.21.98.38,1.73.53.28.06.57.1.86.14.81.11,1.17.17,1.23.42.02.08,0,.16-.06.22-.22.26-1.14.28-1.55.24-.35-.03-.8-.13-1.24-.22-.33-.07-.65-.14-.89-.17-.47-.06-.56.01-.58.03-.01.02-.01.06,0,.12.06.09.6.32,1.16.49.18.05.35.11.53.18.45.15.87.3,1.32.34.71.06,1.54.14,1.54.14.09,0,.16.09.15.18,0,.08-.08.15-.16.15Z"/>
          <path class="cls-16" d="m87.55,70.57s-.08,0-.12,0c-.47-.02-3.98-.44-3.97-1.51,0-.09.07-.17.17-.16.09,0,.16.08.16.17,0,.59,2.59,1.14,3.65,1.18.54.02,1.12-.11,1.84-.29.33-.08.71-.17,1.12-.25,1.14-.22,2.19-.4,3.53-.63.56-.1,1.17-.2,1.84-.32.09-.01.17.04.19.13.02.09-.04.17-.13.19-.67.12-1.28.22-1.85.32-1.33.23-2.39.41-3.52.63-.4.08-.76.16-1.11.24-.7.16-1.26.3-1.81.3Z"/>
          <path class="cls-16" d="m84.95,42.16c-.06,0-.11-.03-.14-.08-.05-.08-.02-.18.06-.23.43-.26.73-.53.88-.79.28-.49.23-2.26.18-2.9,0-.09.06-.17.15-.18.09,0,.17.06.18.15.02.25.16,2.42-.22,3.09-.18.32-.52.62-1,.91-.03.02-.06.02-.08.02Z"/>
          <path class="cls-16" d="m73.39,63.82c-.27,0-.5-.05-.67-.14-1.53-.85-1.34-3.75-1.09-4.71,1.54-6.12,4.08-11.52,4.82-12.79,1.11-1.9,3.67-2.67,5.2-3.14l.05-.02c.91-.28,1.56-.51,1.95-.7.21-.1.42-.22.62-.33.56-.31.88-.48,1.11-.44.09.01.15.1.14.18-.01.09-.09.15-.18.14-.13-.02-.56.22-.91.41-.2.11-.42.23-.63.33-.4.2-1.08.44-2,.72l-.05.02c-1.48.45-3.97,1.2-5.01,2.99-.74,1.27-3.26,6.63-4.79,12.71-.29,1.13-.31,3.66.94,4.35.62.34,2.5-.15,4.77-1.73,1.4-.98,3.02-2.29,4.58-3.55l.34-.27c.34-.27.61-.49.84-.66.88-.69.88-.69.82-1.09-.01-.09.05-.17.14-.19.09-.01.17.05.19.14.08.59-.05.7-.94,1.4-.22.17-.5.39-.83.66l-.34.27c-1.56,1.27-3.18,2.58-4.6,3.57-1.71,1.2-3.39,1.9-4.44,1.9Z"/>
          <path class="cls-16" d="m73.94,57.51c-.05,0-.11-.03-.14-.08-.05-.08-.03-.18.05-.23,1.25-.8,3.38-1.78,5.09-2.56.78-.36,1.46-.67,1.92-.9.31-.16.59-.3.82-.42.93-.48,1.28-.66,1.55-.56.08.03.13.13.1.21-.03.08-.13.13-.21.1-.14-.05-.57.17-1.28.54-.23.12-.51.26-.82.42-.46.23-1.14.55-1.93.91-1.7.78-3.82,1.75-5.05,2.54-.03.02-.06.03-.09.03Z"/>
          <path class="cls-16" d="m84.26,56.68s-.04,0-.06-.01c-1.23-.5-1.47-2.74-1.39-3.69,0-.09.09-.16.18-.15.09,0,.16.09.15.18-.08.94.2,2.95,1.19,3.36.08.03.12.13.09.21-.03.06-.09.1-.15.1Z"/>
          <path class="cls-16" d="m80.09,52.43c-.08,0-.15-.06-.16-.14-.36-2.49-.85-4.23-1.56-5.49-.04-.08-.02-.18.06-.22.08-.04.18-.02.22.06.72,1.29,1.23,3.07,1.59,5.6.01.09-.05.17-.14.19,0,0-.02,0-.02,0Z"/>
          <path class="cls-16" d="m98.52,55.66s-.01,0-.02,0c-.09-.01-.15-.09-.14-.18,0-.04.47-3.79.53-6.64,0-.09.08-.16.17-.16.09,0,.16.08.16.17-.06,2.86-.53,6.63-.53,6.67-.01.08-.08.14-.16.14Z"/>
          <path class="cls-16" d="m93.69,42.16s-.04,0-.06-.01c-.58-.22-.95-.47-1.2-.8-.53-.69-.28-2.42-.27-2.49.01-.09.1-.15.19-.14.09.01.15.1.14.19-.07.46-.16,1.76.21,2.24.21.28.54.49,1.06.69.08.03.13.13.09.21-.03.07-.09.1-.15.1Z"/>
          <path class="cls-16" d="m105.53,55.26c-.07,0-.13-.04-.16-.11-1.44-4.46-3.17-8.08-3.73-9.04-.65-1.1-1.66-1.83-3.4-2.46-.2-.07-.41-.15-.63-.22-.5-.18-1.07-.38-1.81-.65-.36-.13-.7-.29-1.04-.44-.6-.27-1.17-.53-1.46-.45-.09.03-.18-.03-.2-.11-.02-.09.03-.18.11-.2.41-.12,1,.15,1.69.47.33.15.67.31,1.01.43.74.27,1.31.47,1.81.65.22.08.43.15.63.22,1.28.46,2.71,1.13,3.58,2.6.59,1.01,2.3,4.57,3.76,9.1.03.09-.02.18-.11.21-.02,0-.03,0-.05,0Z"/>
          <path class="cls-16" d="m96.12,69.59c-.75,0-.88-.54-.89-.55-.02-.09.04-.18.12-.2.09-.02.18.04.2.12,0,.01.12.43.93.25.91-.2,2.4-.67,3.55-1.12,3.73-1.44,5.86-2.79,6.51-4.12.26-.52.63-2.01.21-3.92-.02-.09.04-.18.12-.2.09-.02.18.04.2.12.44,1.99.06,3.53-.23,4.13-.69,1.41-2.88,2.81-6.69,4.28-1.17.45-2.68.93-3.6,1.13-.17.04-.31.05-.44.05Z"/>
          <path class="cls-16" d="m95.97,69.57s0,0-.01,0c-.09,0-.16-.09-.15-.18.11-1.31-.12-3.15-.87-4.09-.06-.07-.05-.17.03-.23.07-.06.17-.05.23.03.82,1.02,1.06,2.91.94,4.32,0,.09-.08.15-.16.15Z"/>
          <path class="cls-16" d="m94.78,65.54s-.05,0-.07-.01c-.08-.04-.12-.13-.08-.22.19-.42.76-.65,1.89-1.1,1-.4,2.36-.94,4.2-1.91.08-.04.18-.01.22.07s.01.18-.07.22c-1.86.98-3.23,1.52-4.23,1.92-.98.39-1.58.63-1.71.93-.03.06-.09.1-.15.1Z"/>
          <path class="cls-16" d="m90.33,75.01c-4.26,0-8.2-1.04-9.67-2.05-.71-.49-.71-.63-.6-1.38.03-.2.07-.46.1-.79.03-.33-.04-.59-.13-.93-.1-.36-.22-.81-.25-1.5-.03-.53-.05-1.18-.07-1.79,0-.09.07-.17.16-.17.09,0,.17.07.17.16.02.61.05,1.26.07,1.79.03.65.14,1.06.24,1.43.09.35.18.65.14,1.04-.03.34-.07.6-.1.8q-.1.68.46,1.06c2.5,1.72,12.28,3.52,18.36-.06.39-.23.34-.75.21-1.73-.08-.64-.19-1.44-.14-2.37,0-.09.08-.16.17-.16.09,0,.16.08.16.17-.05.89.06,1.68.14,2.31.13.99.23,1.71-.37,2.06-2.62,1.54-5.92,2.1-9.05,2.1Z"/>
          <path class="cls-16" d="m100.27,85.33h0c-.09,0-.16-.08-.16-.17.04-3.91-.2-9.24-.81-12.35-.02-.09.04-.17.13-.19.09-.02.18.04.19.13.61,3.13.85,8.49.82,12.42,0,.09-.07.16-.16.16Z"/>
          <path class="cls-16" d="m80.22,73.57s-.01,0-.02,0c-.09-.01-.15-.09-.14-.18.06-.55.11-.84.11-.85.01-.09.1-.15.19-.13.09.01.15.1.13.19,0,0-.05.29-.11.83,0,.08-.08.15-.16.15Z"/>
          <path class="cls-16" d="m80.16,85.26c-.08,0-.16-.07-.16-.15-.08-.96-.14-1.93-.18-2.89,0-.09.07-.17.16-.17.09,0,.17.07.17.16.04.95.1,1.92.18,2.87,0,.09-.06.17-.15.18,0,0,0,0-.01,0Z"/>
          <path class="cls-16" d="m89.75,86.19s-.01,0-.02,0c-.09-.01-.15-.09-.14-.18.01-.12.35-2.88.58-3.85.22-.95.54-1.57.89-2.23l.05-.09c.04-.08.14-.11.22-.07.08.04.11.14.07.22l-.05.09c-.35.66-.65,1.24-.86,2.15-.22.96-.57,3.79-.57,3.81-.01.08-.08.14-.16.14Z"/>
          <path class="cls-16" d="m91.65,86.17c-.08,0-.15-.05-.16-.13,0-.04-.72-3.64-1.07-4.47-.03-.08,0-.18.09-.21.08-.03.18,0,.21.09.36.86,1.05,4.38,1.08,4.53.02.09-.04.18-.13.19-.01,0-.02,0-.03,0Z"/>
          <path class="cls-16" d="m89.97,45.77c-1.6,0-4.83-2.71-5.24-3.71-.03-.08,0-.18.09-.21.08-.04.18,0,.21.09.37.9,3.51,3.51,4.94,3.51h0c1.08,0,3.08-2.1,3.62-3.52.03-.08.13-.13.21-.1.08.03.13.13.1.21-.58,1.54-2.71,3.73-3.93,3.73h0Z"/>
          <path class="cls-14" d="m86.13,38.14s1,1.24,1.77,1.67c.32.18,1.15.7,1.49.77.19.03.59.03,1.04-.17.72-.33,1.52-.94,1.52-.94,0,0-1.1,2.11-2.55,2.17-1.64.06-3.19-2.2-3.19-2.2l-.08-1.29Z"/>
          <path class="cls-16" d="m85.12,35.84s-.04,0-.05,0c-.41-.14-.79-.27-1.14-.98-.22-.45-.23-1.16.14-1.58.26-.3.65-.39,1.1-.25.09.03.14.12.11.2-.03.09-.12.14-.2.11-.33-.1-.59-.05-.76.15-.24.28-.28.83-.09,1.23.28.58.56.68.95.81.09.03.13.12.1.21-.02.07-.09.11-.16.11Z"/>
          <path class="cls-16" d="m85.09,34.81c-.07,0-.13-.04-.16-.11-.1-.29-.28-.41-.28-.42-.07-.05-.1-.15-.05-.23s.15-.1.22-.05c.01,0,.28.18.42.59.03.09-.02.18-.1.21-.02,0-.03,0-.05,0Z"/>
          <path class="cls-16" d="m89.7,40.71c-.07,0-.13,0-.19-.02-1.2-.21-2.97-1.49-3.47-2.32-.47-.8-.71-2.01-.72-2.07-.02-.09.04-.17.13-.19.09-.02.17.04.19.13,0,.01.23,1.21.68,1.96.45.76,2.14,1.97,3.24,2.17,1.11.2,3.15-1.93,3.46-2.89.28-.85.35-1.34.5-2.32l.02-.12c.13-.88.15-.96.31-1.75.02-.09.11-.14.19-.13.09.02.15.1.13.19-.16.79-.18.87-.31,1.74l-.02.12c-.15,1-.23,1.5-.51,2.37-.34,1.04-2.32,3.13-3.63,3.13Z"/>
          <path class="cls-16" d="m93.63,35.77c-.08,0-.14-.05-.16-.13-.02-.09.04-.18.13-.2.41-.09.82-.58.89-1.06.11-.79-.3-.86-.43-.88-.09-.01-.15-.1-.14-.19.01-.09.1-.15.19-.14.32.05.84.29.7,1.25-.09.62-.6,1.22-1.14,1.34-.01,0-.02,0-.03,0Z"/>
          <path class="cls-16" d="m89.8,36.57s-.09-.02-.12-.05c-.06-.06-.06-.17,0-.23.42-.41.4-.58.37-.63-.02-.03-.06-.08-.1-.12-.24-.27-.67-.78-.14-1.92.04-.08.14-.12.22-.08.08.04.12.14.08.22-.44.95-.14,1.3.09,1.56.05.06.1.12.13.17.23.4-.26.88-.42,1.03-.03.03-.07.05-.11.05Z"/>
          <path class="cls-14" d="m87.43,33.95c.01-.32.21-.58.44-.57.23,0,.41.28.4.6-.01.32-.21.58-.44.57-.23,0-.41-.28-.4-.6Z"/>
          <path class="cls-16" d="m88.99,32.57s-.04,0-.05,0c-.71-.25-1.34-.14-1.73,0-.09.03-.18-.02-.21-.1s.02-.18.1-.21c.45-.15,1.14-.27,1.94,0,.09.03.13.12.1.21-.02.07-.09.11-.16.11Z"/>
          <path class="cls-14" d="m91.2,34.11c.01-.32.21-.58.44-.57.23,0,.41.28.4.6,0,.16-.06.31-.14.41-.08.1-.19.16-.3.16-.23,0-.41-.28-.4-.6Z"/>
          <path class="cls-16" d="m92.57,32.68s-.05,0-.08-.02c-.49-.26-.96-.28-1.49-.04-.08.04-.18,0-.22-.08-.04-.08,0-.18.08-.22.62-.28,1.2-.27,1.78.05.08.04.11.14.07.22-.03.05-.09.09-.14.09Z"/>
          <path class="cls-16" d="m92.29,31.61s0,0-.01,0h-.03c-.27-.01-.99-.05-1.71-.77-.4-.41-.71-1.08-.89-1.48-.03-.07-.06-.13-.08-.18-.11.08-.31.35-.38.68-.02.09-.11.15-.19.13-.09-.02-.15-.1-.13-.19.09-.42.4-.91.69-.96.11-.02.22.03.27.14.03.05.07.14.12.25.17.36.47,1.02.83,1.39.4.41.8.57,1.1.63-.34-.32-.86-.89-1.06-1.69-.02-.09.03-.18.12-.2.09-.02.18.03.2.12.21.86.83,1.42,1.13,1.69.16.15.25.22.19.35-.01.03-.05.11-.17.11Zm0-.33h0,0Z"/>
          <path class="cls-16" d="m92.38,29.55s-.04,0-.06-.01c-.62-.24-1.13-.76-1.5-1.15-.18-.19-.43-.45-.52-.45,0,0,0,0-.01,0-.43,0-1.05.46-1.37,1.04-.04.08-.14.11-.22.06-.08-.04-.11-.14-.06-.22.39-.7,1.12-1.21,1.68-1.21.22,0,.43.22.75.55.37.38.83.86,1.38,1.07.08.03.13.13.09.21-.02.07-.09.11-.15.11Z"/>
          <path class="cls-16" d="m94.39,33.48c-.25,0-.61-.06-1.06-.31-.04-.02-.08-.05-.12-.07-.41-.23-.88-.49-1.38-1.54-.04-.08,0-.18.08-.22.08-.04.18,0,.22.08.45.96.85,1.18,1.24,1.39.04.02.08.05.13.07.33.19.6.25.8.27-.33-.36-.88-1.07-1.08-2.11-.02-.09.04-.17.13-.19.09-.02.17.04.19.13.27,1.39,1.22,2.16,1.23,2.17.05.04.07.1.06.16s-.05.11-.11.13c-.01,0-.13.04-.33.04Z"/>
          <path class="cls-16" d="m85.68,32.3c-.14,0-.33-.02-.4-.1-.03-.04-.05-.1-.04-.15.02-.09.09-.13.16-.16.19-.09.76-.38,1.2-1.64.03-.09.12-.13.21-.1.09.03.13.12.1.21-.32.91-.72,1.37-1.02,1.6.4-.07,1-.33,1.45-1.16.42-.78.69-1.1.96-1.11.22,0,.35.19.41.29.05.08.02.18-.05.23-.08.05-.18.02-.23-.05-.08-.13-.12-.14-.12-.14-.03,0-.21.05-.68.94-.57,1.07-1.36,1.3-1.78,1.34-.02,0-.09,0-.18,0Z"/>
          <path class="cls-16" d="m85.7,33.43c-.08,0-.16-.07-.16-.15,0-.09.06-.17.15-.18.43-.03.99-.58,1.17-1.52.02-.09.1-.15.19-.13.09.02.15.1.13.19-.22,1.11-.9,1.74-1.46,1.78,0,0,0,0-.01,0Z"/>
          <path class="cls-16" d="m92.94,27.9c-.27,0-.58-.04-.92-.16-.09-.03-.13-.12-.1-.21.03-.09.12-.13.21-.1.65.22,1.17.14,1.47.03-.21-.04-.46-.1-.66-.18-.08-.04-.18-.08-.29-.13-.8-.37-2.46-1.14-3.5-.92-.55.12-.79.52-.8.54-.05.08-.15.1-.22.06-.08-.05-.1-.15-.06-.22.01-.02.32-.55,1.02-.69,1.15-.24,2.81.53,3.7.94.11.05.21.1.29.13.28.12.72.19.91.21h.08c.06.02.12.07.14.13.02.05.02.13-.07.21-.16.15-.59.36-1.19.36Z"/>
          <path class="cls-16" d="m95.72,32c-.13,0-.35-.03-.71-.13-.09-.02-.14-.11-.11-.2.02-.09.12-.14.2-.11.13.04.27.07.38.09-.15-.21-.33-.56-.45-1.13-.26-1.27-.67-2.05-1.25-2.39-.08-.05-.11-.15-.06-.22.05-.08.15-.1.22-.06.67.39,1.13,1.24,1.41,2.61.15.74.42,1.06.52,1.16.14.13.11.23.08.29-.03.05-.06.11-.24.11Zm-.05-.14h0,0Z"/>
          <path class="cls-16" d="m94.67,33.82s-.07-.01-.1-.03c-.07-.05-.09-.16-.03-.23.54-.72.53-1.53-.02-2.7-.04-.08,0-.18.08-.22.08-.04.18,0,.22.08.6,1.28.6,2.21-.01,3.03-.03.04-.08.07-.13.07Z"/>
          <path class="cls-16" d="m94.11,33.52s-.06,0-.09-.03c-.08-.05-.1-.15-.05-.23.05-.08.15-.1.23-.05.08.05.1.15.05.23h0c-.03.05-.08.08-.14.08Z"/>
          <path class="cls-16" d="m83.29,31.23c-.11,0-.2-.01-.25-.02-.12-.03-.34-.09-.37-.24-.01-.06.01-.14.06-.18.04-.03.09-.05.14-.07.12-.05.32-.13.59-.54.14-.21.21-.44.3-.71.14-.43.31-.97.83-1.63.89-1.13,1.96-1.62,3.02-1.37.09.02.14.11.12.2-.02.09-.11.14-.2.12-1.18-.28-2.11.53-2.69,1.26-.48.61-.64,1.1-.78,1.52-.09.28-.17.54-.33.78-.19.3-.36.46-.5.55.07,0,.14,0,.22,0,.28-.04.7-.2,1.11-.75.05-.07.16-.09.23-.03.07.05.09.16.03.23-.56.75-1.17.89-1.52.89Z"/>
          <path class="cls-16" d="m88.17,29.08c-.06,0-.12-.03-.15-.09-.24-.48-.23-1,.04-1.57.04-.08.14-.12.22-.08.08.04.12.14.08.22-.23.48-.24.89-.05,1.28.04.08,0,.18-.07.22-.02.01-.05.02-.07.02Z"/>
          <path class="cls-16" d="m90.03,38.07c-.67,0-1.42-.17-1.87-.53-.07-.06-.08-.16-.03-.23.06-.07.16-.08.23-.03.63.5,1.96.59,2.56.31.08-.04.18,0,.22.08.04.08,0,.18-.08.22-.26.12-.63.18-1.03.18Z"/>
          <path class="cls-16" d="m84.88,38.68c-.06,0-.11-.03-.14-.08-.03-.05-.03-.12,0-.17.02-.03.41-.72.08-1.73-.16-.48-.39-.86-.65-1.26-.57-.91-1.17-1.85-.67-3.95.02-.09.11-.14.2-.12.09.02.14.11.12.2-.47,1.97.06,2.81.63,3.7.25.4.51.81.68,1.33.24.73.14,1.33.03,1.67.16-.07.35-.19.45-.4.04-.08.14-.12.22-.08.08.04.12.14.08.22-.28.58-.98.66-1.01.66,0,0-.01,0-.02,0Z"/>
          <path class="cls-16" d="m85.36,39.37s-.06,0-.08-.01c-.06-.02-.11-.09-.11-.16,0-.03,0-.06.02-.08,0,0,.49-.86.46-1.66,0-.09.07-.17.16-.17.09,0,.17.07.17.16.02.58-.19,1.17-.35,1.52.11-.06.24-.14.35-.27.06-.07.16-.08.23-.02.07.06.08.16.02.23-.28.32-.67.47-.87.47Z"/>
          <path class="cls-16" d="m92.97,39.55c-.23,0-.58-.1-.78-.48-.04-.08-.01-.18.07-.22.08-.04.18-.01.22.07.09.17.22.25.32.28-.08-.22-.15-.58-.1-1.07,0-.09.09-.15.18-.14.09,0,.15.09.14.18-.08.74.17,1.11.17,1.12.03.05.04.1.02.16-.02.05-.07.09-.12.1-.04,0-.08.01-.13.01Z"/>
          <path class="cls-16" d="m93.38,37.04s-.1-.02-.13-.06c-.06-.07-.04-.17.03-.23.64-.5.57-1.25.57-1.28,0-.09.06-.17.15-.18.09-.01.17.05.18.14,0,.04.1.96-.69,1.58-.03.02-.07.03-.1.03Z"/>
          <path class="cls-16" d="m103.65,59.31s-.03,0-.05,0c-.37-.11-.55-.37-.64-.51-.16.08-.47.23-.91.17-.09-.01-.15-.09-.14-.18.01-.09.09-.15.18-.14.35.04.59-.07.73-.14.09-.04.15-.08.23-.06.08.02.12.08.17.16.08.12.2.31.46.39.09.03.14.12.11.2-.02.07-.09.12-.16.12Z"/>
          <path class="cls-16" d="m101.82,57.43s0,0-.01,0c-.05,0-.11-.03-.19-.07-.16-.07-.46-.2-.99-.31-.09-.02-.15-.11-.13-.19.02-.09.11-.14.19-.13.07.02.14.03.2.05-.03-.05-.04-.1-.01-.16.04-.08.13-.12.22-.08.25.11.94.55.88.77-.02.07-.09.12-.16.12Z"/>
          <path class="cls-16" d="m105.55,58.05s-.02,0-.03,0c-.53-.1-.86-.1-1.03-.1-.1,0-.15,0-.2-.01-.08-.02-.13-.1-.11-.18.03-.23.84-.36,1.12-.37,0,0,0,0,0,0,.09,0,.16.07.16.16,0,.06-.03.11-.07.14.06.01.13.02.2.04.09.02.15.1.13.19-.02.08-.08.13-.16.13Z"/>
          <path class="cls-16" d="m103.81,61.35c-.08,0-.16-.06-.16-.15,0-.09.06-.17.15-.18.15-.01.32-.02.51-.02,1.02-.03,2.29-.07,2.58-1.42.19-.86-.28-2.19-.49-2.72v-.02c-.21-.51-.23-.82-.24-1.18,0-.12,0-.27.02-.42,0-.07.01-.17.02-.24-.1.05-.23.12-.35.19-.3.17-.65.36-.91.43-.27.07-.62-.03-1.08-.15-.34-.09-.73-.2-1.16-.26h-.05c-.91-.13-.95-.14-1.34-.38l-.04-.03c-.33-.21-.48-.42-.67-.69-.06-.09-.13-.18-.21-.29-.2-.27-.42-.43-.52-.48,0,0,0,0,0,0,.03.48-.19,1.28-.49,1.8-.05.08-.15.1-.22.06s-.1-.15-.06-.22c.27-.45.47-1.2.45-1.61-.02-.24.1-.33.18-.36.29-.11.72.33.93.6.08.11.15.21.22.3.19.27.31.43.58.61l.04.03q.32.21,1.2.33h.05c.45.07.85.18,1.2.27.39.11.72.2.91.15.22-.06.54-.24.83-.4.22-.12.41-.23.55-.28.07-.03.14-.02.2.03.13.1.11.29.08.62-.01.14-.02.27-.02.38.01.34.03.61.21,1.07v.02c.28.69.71,1.99.51,2.91-.35,1.6-1.88,1.65-2.89,1.68-.18,0-.34.01-.49.02,0,0,0,0-.01,0Z"/>
          <path class="cls-16" d="m97.13,57.29s-.06,0-.08-.02c-.08-.05-.1-.15-.06-.22.75-1.27,2.5-2.33,2.94-2.42.09-.02.17.04.19.13.02.09-.04.17-.13.19-.32.06-2,1.03-2.72,2.26-.03.05-.09.08-.14.08Z"/>
          <path class="cls-16" d="m100.17,58.13s-.07-.01-.1-.04c0,0-.65-.52-1.46-.72-.09-.02-.14-.11-.12-.2.02-.09.11-.14.2-.12.88.22,1.56.75,1.59.78.07.06.08.16.03.23-.03.04-.08.06-.13.06Z"/>
          <path class="cls-16" d="m99.91,58.65s-.05,0-.07-.02c0,0-.74-.35-1.54-.38-.09,0-.16-.08-.16-.17,0-.09.08-.16.17-.16.86.03,1.63.39,1.66.41.08.04.12.14.08.22-.03.06-.09.09-.15.09Z"/>
          <path class="cls-16" d="m107.48,59.5s-.03,0-.05,0c-.86-.26-1.85-.17-1.86-.17-.09,0-.17-.06-.18-.15,0-.09.06-.17.15-.18.04,0,1.06-.1,1.98.18.09.03.14.12.11.2-.02.07-.09.12-.16.12Z"/>
          <path class="cls-16" d="m107.47,60.65s-.07-.01-.1-.03c-.68-.52-1.71-.57-1.72-.57-.09,0-.16-.08-.16-.17,0-.09.08-.15.17-.16.05,0,1.15.05,1.91.64.07.06.09.16.03.23-.03.04-.08.06-.13.06Z"/>
          <path class="cls-16" d="m97.3,63.89c-.22,0-.45-.02-.69-.08-.09-.02-.14-.11-.12-.2.02-.09.11-.14.2-.12,1.23.29,2.33-.39,3.06-.85.25-.16.45-.28.61-.34.72-.27,1.31.2,1.56.41.12.1.23.2.34.31.15.15.3.28.46.39.1.07.31.09.39.01.07-.06.07-.25-.11-.58-.04-.08-.02-.18.06-.22.08-.04.18-.02.22.06.31.56.2.84.05.98-.2.19-.57.16-.79.02-.18-.12-.34-.27-.5-.42-.1-.1-.21-.2-.32-.29-.34-.28-.75-.53-1.23-.35-.13.05-.33.17-.55.31-.64.4-1.56.97-2.62.97Z"/>
          <path class="cls-16" d="m103.69,63.79c-.21,0-.44-.08-.55-.27-.05-.08-.02-.18.06-.22.08-.05.18-.02.22.06.05.08.21.13.35.1.09-.02.19-.06.21-.19,0-.09-.1-.49-.22-.81-.03-.09.02-.18.1-.21.09-.03.18.02.21.1.08.22.26.77.23.96-.03.24-.21.42-.47.47-.05,0-.1.01-.15.01Z"/>
          <path class="cls-16" d="m104.27,63.4c-.07,0-.13-.04-.16-.11-.03-.09.02-.18.1-.21,0,0,.22-.08.31-.26.05-.1.04-.21,0-.34-.21-.57-.92-1.39-1.97-1.84-1.36-.57-3.14-1-6.12.13-.08.03-.18-.01-.21-.09-.03-.08.01-.18.09-.21,3.08-1.18,4.95-.73,6.36-.13,1.14.48,1.92,1.39,2.15,2.03.08.22.08.42,0,.6-.15.3-.48.42-.5.42-.02,0-.03,0-.05,0Z"/>
          <path class="cls-16" d="m69.66,80.55c-.05,0-.1-.02-.13-.07-.5-.71-.66-1.46-.47-2.16.23-.86.94-1.45,1.52-1.72.27-.12.59-.24.76-.05.14.15.05.4,0,.47-.66,1.13,0,1.9.47,2.26,1.12.87,3.17,1.06,4.24.01,1.35-1.32.67-3.69-.05-6.2-.28-.98-.57-2-.76-3-.38-2.01-.13-3.86.7-5.21.13-.22.27-.44.41-.68.56-.93,1.19-1.97,1.96-3.01.05-.07.16-.09.23-.03.07.05.09.16.03.23-.76,1.02-1.39,2.07-1.94,2.99-.14.24-.28.47-.42.68-.79,1.28-1.02,3.05-.66,4.98.19.99.47,2,.75,2.97.75,2.61,1.45,5.07-.03,6.52-1.22,1.2-3.45.97-4.67.01-.91-.71-1.12-1.72-.55-2.68,0-.02.02-.05.02-.08-.04,0-.15.02-.37.12-.51.24-1.14.76-1.34,1.51-.17.61-.02,1.25.42,1.88.05.07.03.18-.04.23-.03.02-.06.03-.09.03Z"/>
          <path class="cls-16" d="m92.77,58.61c-1.28,0-2.22-.14-2.8-.42-.1-.05-.22-.11-.34-.17-1.2-.6-3.22-1.59-5.55-.97-.09.02-.18-.03-.2-.12-.02-.09.03-.18.12-.2,2.46-.65,4.54.38,5.78,1,.12.06.23.11.34.16.59.28,1.6.41,3,.38.33,0,.82-.17,1.35-.35.12-.04.23-.08.35-.12.09-.03.18.02.21.1.03.09-.02.18-.11.21-.12.04-.24.08-.35.12-.55.18-1.06.36-1.44.36-.12,0-.24,0-.36,0Z"/>
          <path class="cls-16" d="m95.71,57.89c-.08,0-.14-.05-.16-.13-.02-.09.04-.18.12-.2.27-.06.5-.09.71-.09h0c.09,0,.16.07.16.16,0,.09-.07.16-.16.17-.18,0-.39.03-.64.08-.01,0-.02,0-.04,0Z"/>
          <path class="cls-16" d="m91.65,64.06c-.09,0-.16-.07-.16-.16,0-1.08-.43-3.18-2.06-4.25-.08-.05-.1-.15-.05-.23.05-.08.15-.1.23-.05,1.74,1.14,2.21,3.38,2.21,4.52,0,.09-.07.16-.16.16Z"/>
          <path class="cls-16" d="m82.26,68.28s-.02,0-.03,0c-.9-.19-1.42-.62-1.9-1.07-.8-.75-1.55-1.98-1.84-2.75-.03-.08.01-.18.09-.21.08-.03.18.01.21.09.29.75,1.03,1.94,1.76,2.63.47.44.92.82,1.75.99.09.02.15.11.13.19-.02.08-.08.13-.16.13Z"/>
          <path class="cls-16" d="m83.88,68.37c-.09,0-.16-.07-.16-.15,0-.09.06-.17.15-.17.55-.03,1.18-.12,1.89-.25.09-.02.17.04.19.13s-.04.18-.13.19c-.72.14-1.37.23-1.93.26,0,0,0,0,0,0Z"/>
          <path class="cls-16" d="m95.53,64.86c-.05,0-.1-.02-.13-.07-.19-.26-.56-.17-1.15,0l-.14.04c-.09.03-.18-.02-.2-.11-.03-.09.02-.18.11-.2l.14-.04c.61-.18,1.18-.35,1.51.12.05.07.03.18-.04.23-.03.02-.06.03-.09.03Z"/>
          <path class="cls-16" d="m95.27,64.53c-.08,0-.14-.05-.16-.13-.06-.27-.25-.43-.54-.44-.2-.01-.45.05-.72.12-.12.03-.25.06-.38.09-.09.02-.18-.04-.19-.13-.02-.09.04-.18.13-.19.12-.03.25-.06.37-.09.29-.07.57-.15.82-.13.44.02.75.29.84.7.02.09-.04.18-.12.2-.01,0-.02,0-.04,0Z"/>
          <path class="cls-16" d="m90.49,64.41c-.07,0-.14-.05-.16-.13-.02-.09.03-.18.12-.2.38-.09.68-.14.94-.18.36-.06.63-.11.87-.21,1.04-.43,1.87-.44,2.24-.03.06.07.06.17-.01.23-.07.06-.17.06-.23-.01-.26-.29-1-.25-1.87.11-.27.11-.57.16-.94.23-.26.04-.56.1-.93.18-.01,0-.02,0-.04,0Z"/>
          <path class="cls-16" d="m102.82,71.44s-.04,0-.06-.01c-.64-.24-.58-.83-.46-1.32.15-.63.34-1.4.21-2.89,0-.09.06-.17.15-.18.09,0,.17.06.18.15.13,1.55-.06,2.34-.22,2.98-.16.66-.02.85.25.95.09.03.13.13.1.21-.02.07-.09.11-.15.11Z"/>
          <path class="cls-16" d="m103.44,71.8c-.14,0-.29-.05-.42-.14-.14-.1-.22-.23-.24-.38-.04-.33.04-.74.04-.76.02-.09.1-.15.19-.13.09.02.15.1.13.19,0,0-.07.37-.04.65,0,.07.07.12.1.15.08.06.2.09.28.07.11-.02.24-.37.31-.55.03-.07.05-.14.08-.2.04-.08.13-.12.22-.09.08.04.12.13.09.22-.02.06-.05.12-.07.19-.13.32-.27.69-.55.75-.04,0-.08.01-.12.01Z"/>
          <path class="cls-16" d="m104.09,71.93s-.07,0-.1,0c-.21-.04-.36-.19-.4-.42-.02-.09.04-.18.13-.19.09-.02.18.04.19.13.02.09.06.14.14.16.12.02.29-.05.39-.21.22-.36.39-1.12.5-2.31.09-.98.17-3.02.14-3.33,0-.09.06-.17.15-.18.09,0,.17.06.18.15.03.36-.05,2.45-.14,3.39-.12,1.26-.29,2.04-.54,2.45-.14.23-.39.37-.63.37Z"/>
          <g>
            <path class="cls-11" d="m103.25,69.83c.15.18.86.32,1.04.11.18-.21.06-.91-.38-1.06s-.82.76-.66.95Z"/>
            <path class="cls-16" d="m103.94,70.21h0c-.29,0-.68-.11-.81-.28h0c-.17-.21,0-.65.16-.89.19-.28.44-.4.68-.32.25.08.44.3.52.61.08.28.05.56-.07.71-.09.11-.25.17-.47.17Zm-.56-.48c.05.05.31.15.56.15.15,0,.21-.03.22-.05.04-.05.07-.21,0-.41-.03-.09-.11-.32-.31-.39-.07-.02-.15.01-.23.1-.19.2-.27.51-.24.59Z"/>
          </g>
          <path class="cls-16" d="m73.15,84.04c-1.02,0-1.97-.34-2.69-.98-.68-.6-1.07-1.39-1.05-2.12,0-.09.08-.16.17-.16.09,0,.16.08.16.17-.02.64.33,1.33.93,1.87.82.72,1.97,1.03,3.16.84.09-.01.17.05.19.14.01.09-.05.17-.14.19-.25.04-.49.06-.73.06Z"/>
          <path class="cls-16" d="m79.65,82.54c-.06,0-.12-.04-.15-.1-.04-.08,0-.18.08-.22,1.05-.47,2.01-1.94,1.82-4.19-.2-2.3-1.19-4.22-2.43-6.64-1.65-3.22-.97-5.13-.18-6.42.05-.08.15-.1.23-.06.08.05.1.15.06.23-.79,1.3-1.38,3.04.2,6.11,1.26,2.46,2.26,4.4,2.47,6.77.21,2.41-.86,4-2.01,4.52-.02,0-.04.01-.07.01Z"/>
          <path class="cls-16" d="m76.12,84.38c-.54,0-1.08-.11-1.57-.33-.08-.04-.12-.13-.08-.22.04-.08.13-.12.22-.08.95.42,2.09.4,2.98-.06.87-.45,1.45-1.27,1.67-2.39.02-.09.1-.15.19-.13.09.02.15.1.13.19-.31,1.53-1.17,2.27-1.84,2.61-.51.26-1.1.4-1.69.4Z"/>
          <path class="cls-16" d="m114.94,64.1c-.06,0-.11-.03-.14-.08-.05-.08-.02-.18.06-.22.01,0,.3-.18.67-.32.08-.03.18,0,.21.09.03.08,0,.18-.09.21-.35.14-.62.3-.63.3-.03.02-.06.02-.08.02Z"/>
          <path class="cls-16" d="m122.71,66.74c-.06,0-.13-.04-.15-.1-.02-.05-.05-.1-.1-.15-.15-.18-.53-.5-.89-.81-.13-.11-.25-.22-.37-.32-.07-.06-.08-.16-.02-.23.06-.07.16-.08.23-.02.11.1.24.21.37.31.37.32.76.64.93.84.07.08.12.16.15.24.03.08,0,.18-.09.21-.02,0-.04.01-.06.01Z"/>
          <path class="cls-16" d="m123.26,65.61c-.08,0-.17,0-.28-.02-.39-.06-.98-.29-1.45-.48-.23-.09-.43-.17-.57-.22-.09-.03-.13-.12-.11-.21.03-.09.12-.13.21-.11.15.05.36.13.59.23.45.18,1.02.41,1.38.46.55.08.58-.07.66-.38.01-.05.02-.1.04-.14.03-.09.12-.14.2-.11.09.03.14.12.11.2-.01.04-.02.09-.03.13-.07.29-.16.65-.75.65Z"/>
          <path class="cls-16" d="m123.84,64.83c-.05,0-.1,0-.16-.03-.38-.13-1.64-.61-2.38-1.01-.08-.04-.11-.14-.07-.22.04-.08.14-.11.22-.07.72.38,1.97.87,2.33.98.11.04.23-.05.3-.15.1-.14.12-.31.05-.4-.16-.19-.56-.43-1.1-.75-.22-.13-.45-.27-.71-.43-.44-.27-.66-.49-.71-.69-.02-.09,0-.18.05-.26.28-.42,1.87,0,2.19.08.2.06.48.17.77.29.39.16,1.21.5,1.34.39.04-.04.04-.06.04-.08-.04-.3-.97-.82-1.28-.99-.61-.33-1.11-.48-1.57-.61-.14-.04-.29-.08-.44-.13-.5-.15-1.12-.33-1.8-.4-.09,0-.16-.09-.15-.18,0-.09.09-.16.18-.15.72.08,1.35.26,1.86.42.15.05.3.09.43.13.48.13,1,.28,1.64.64.83.46,1.4.84,1.45,1.23.02.14-.03.26-.13.36-.25.24-.81.04-1.69-.32-.28-.12-.55-.22-.73-.28-.8-.22-1.7-.33-1.83-.21h0s.02.15.56.48c.26.16.49.3.71.43.6.35.99.59,1.19.83.16.2.15.52-.03.79-.13.19-.33.3-.52.3Z"/>
          <path class="cls-16" d="m124.96,61.49s-.02,0-.03,0c-.09-.02-.15-.1-.13-.19.06-.35-.44-.55-1.22-.81l-.08-.03c-.18-.06-.33-.13-.48-.19-.24-.11-.47-.21-.84-.28-.4-.08-1.1-.09-1.85-.09-.33,0-.68,0-1.01-.01-.3,0-.58-.02-.86-.03-1.01-.04-1.88-.07-2.29.07-.32.11-1.14.58-1.51.82-.08.05-.18.03-.23-.05-.05-.08-.03-.18.05-.23.36-.23,1.23-.73,1.58-.85.47-.16,1.32-.13,2.41-.09.27.01.56.02.86.03.33,0,.67.01,1,.01.76,0,1.47,0,1.91.1.4.08.66.19.9.3.14.06.28.12.45.18l.08.03c.76.26,1.55.53,1.43,1.18-.01.08-.08.14-.16.14Z"/>
          <path class="cls-16" d="m131.81,71.65c-2.88,0-7.3-.52-8.41-.96-.21-.08-.33-.31-.38-.69-.12-1.01.38-3.36.69-3.58.12-.09.27-.06.56,0,.47.1,1.34.29,3.08.29,1.93,0,3.45-.15,4.63-.46.45-.12,1.14-.3,2.16.01.09.03.14.12.11.2-.03.09-.12.14-.2.11-.93-.28-1.53-.12-1.98,0-1.21.32-2.76.47-4.72.47-1.78,0-2.67-.19-3.15-.3-.13-.03-.25-.05-.31-.05-.16.23-.74,2.53-.52,3.44.03.14.08.22.14.25,1.22.49,6.88,1.09,9.44.9,2.6-.19,3.27-.72,3.64-1.69.34-.89.72-3.05.62-8.25-.01-.6,0-1.36.02-2.24.06-3.05.14-7.23-.83-8.66-.86-1.27-2.32-1.79-3.72-2.29-1.09-.39-2.12-.75-2.88-1.44-.52-.47-.66-1.58-.41-3.39.01-.09.1-.15.18-.14.09.01.15.09.14.18-.23,1.67-.12,2.72.31,3.11.72.64,1.72,1,2.77,1.38,1.46.52,2.96,1.06,3.88,2.41,1.03,1.52.94,5.75.88,8.85-.02.88-.03,1.64-.02,2.23.11,5.26-.29,7.46-.64,8.38-.41,1.08-1.16,1.7-3.92,1.9-.34.03-.74.04-1.17.04Z"/>
          <path class="cls-16" d="m132.21,66.44s-.07-.01-.1-.04c-.07-.06-.08-.16-.03-.23.2-.26.27-.52.02-1.11-.16-.37-.11-.8-.05-1.39.05-.5.11-1.12.08-1.94-.02-.67-.07-1.28-.11-1.93-.07-1.06-.15-2.15-.15-3.56,0-.09.07-.16.16-.16s.16.07.16.16c0,1.4.08,2.48.15,3.53.05.65.09,1.27.11,1.94.03.84-.03,1.47-.09,1.98-.06.56-.1.94.03,1.23.27.63.25,1.03-.07,1.44-.03.04-.08.06-.13.06Z"/>
          <path class="cls-16" d="m133.12,65.72c-.06,0-.12-.03-.15-.09-.04-.08,0-.18.07-.22,1-.51,2.05-.35,2.75-.13.09.03.13.12.11.21-.03.09-.12.13-.21.11-.64-.2-1.6-.35-2.5.11-.02.01-.05.02-.07.02Z"/>
          <path class="cls-16" d="m131.32,55.81s-.02,0-.03,0c-.09-.01-.15-.1-.14-.19.35-2.12,1.94-4.15,2.86-4.92.07-.06.17-.05.23.02.06.07.05.17-.02.23-.75.63-2.4,2.61-2.75,4.72-.01.08-.08.14-.16.14Z"/>
          <path class="cls-16" d="m135.86,85.23s0,0,0,0c-.09,0-.16-.08-.16-.17.11-5.15-1.35-10.7-2.05-13.37v-.05c-.04-.09.01-.18.1-.2.09-.02.18.03.2.12v.05c.72,2.68,2.19,8.26,2.08,13.46,0,.09-.07.16-.16.16Z"/>
          <path class="cls-16" d="m115.59,85.19s-.01,0-.02,0c-.09,0-.16-.09-.15-.18.36-3.5.92-6.47,1.37-8.86.29-1.53.53-2.85.65-3.91,0-.04.03-.15.06-.33.12-.63.39-2.1.4-3,0-.09.07-.16.16-.16,0,0,0,0,0,0,.09,0,.16.08.16.17-.02.92-.29,2.41-.41,3.05-.03.16-.05.27-.05.3-.12,1.06-.37,2.39-.66,3.93-.45,2.38-1,5.34-1.36,8.83,0,.08-.08.15-.16.15Z"/>
          <path class="cls-16" d="m114.32,61.48s-.02,0-.03,0c-.09-.02-.15-.1-.13-.19.14-.75.44-1.19.84-1.19,0,0,0,0,0,0,.09,0,.16.07.16.16,0,.09-.07.17-.16.17-.22,0-.43.37-.53.92-.01.08-.08.14-.16.14Z"/>
          <path class="cls-16" d="m115.18,64.16c-.14,0-.26-.04-.36-.09-.43-.22-.7-.85-.7-1.62,0-.09.07-.16.16-.16s.16.07.16.16c0,.62.22,1.17.52,1.32.19.1.41.05.67-.13.07-.05.18-.04.23.04.05.07.04.18-.04.23-.25.18-.47.24-.65.24Z"/>
          <path class="cls-16" d="m111.2,63.06s-.08-.02-.11-.05c-.06-.06-.07-.17,0-.23.83-.85,1.65-1.45,2.31-1.92.21-.15.4-.29.58-.43.41-.31.76-.58,1.35-.5.09.01.15.09.14.18-.01.09-.09.15-.18.14-.46-.06-.73.15-1.11.44-.18.14-.38.28-.59.43-.65.47-1.46,1.05-2.27,1.89-.03.03-.08.05-.12.05Z"/>
          <path class="cls-16" d="m111.92,67.43c-.23,0-.46-.1-.68-.29-.74-.66-1.17-2.27-1.15-3.38.05-1.89,1.18-4.16,1.92-5.66.11-.22.21-.42.3-.6.37-.77.74-1.64.98-2.24.03-.08.13-.12.21-.09.08.03.12.13.09.21-.25.6-.62,1.48-.99,2.26-.09.18-.19.39-.3.61-.73,1.47-1.84,3.7-1.89,5.52-.03,1.17.45,2.61,1.04,3.13.18.16.36.23.54.2.34-.05.76-.27,1.24-.65.07-.06.17-.04.23.03.06.07.04.17-.03.23-.53.42-1,.66-1.4.72-.04,0-.08,0-.13,0Z"/>
          <path class="cls-16" d="m114.48,65.68s-.08-.01-.11-.04c-.07-.06-.07-.17,0-.23.09-.1.18-.19.27-.29.06-.07.16-.07.23-.01.07.06.07.16.01.23-.09.1-.18.2-.27.3-.03.03-.08.05-.12.05Z"/>
          <path class="cls-16" d="m115.49,64.52s-.07-.01-.1-.04c-.07-.06-.08-.16-.03-.23.1-.12.18-.23.26-.34l.1-.14c.05-.07.16-.09.23-.03.07.05.09.16.03.23l-.1.14c-.08.11-.17.23-.27.35-.03.04-.08.06-.13.06Z"/>
          <g>
            <path class="cls-6" d="m128.33,41.72s-.7.1-1.54.05c-.83-.05-1.47-.27-1.47-.27,0,0,.07,1.48,1.3,1.68,1.28.21,1.7-1.46,1.7-1.46Z"/>
            <path class="cls-16" d="m126.84,43.37c-.08,0-.16,0-.25-.02-1.34-.22-1.44-1.82-1.44-1.84,0-.05.02-.11.07-.14.04-.03.1-.04.15-.02,0,0,.62.22,1.42.26.8.05,1.49-.05,1.5-.05.05,0,.11.01.15.05.04.04.05.1.04.15-.14.58-.67,1.61-1.64,1.61Zm-1.32-1.64c.08.4.32,1.16,1.13,1.29.86.14,1.28-.69,1.44-1.11-.28.03-.77.06-1.31.02-.54-.03-.99-.13-1.26-.21Z"/>
          </g>
          <path class="cls-16" d="m126.69,45.22c-.47,0-.85-.22-1.18-.45-1.08-.73-1.81-1.59-2.11-2.47-.13-.39-.34-1.35-.44-2.24-.01-.09.05-.17.14-.18.09-.01.17.05.18.14.1.86.3,1.8.42,2.17.28.82.97,1.61,1.98,2.31.41.28.82.51,1.41.32.39-.13,1.72-.64,2.6-1.99.18-.28.4-.81.62-1.51.03-.09.12-.13.21-.11.09.03.13.12.11.21-.16.51-.41,1.21-.66,1.59-.94,1.43-2.36,1.98-2.77,2.12-.18.06-.36.09-.52.09Z"/>
          <path class="cls-16" d="m126.82,40.93s-.08-.01-.11-.04c-.05-.04-.51-.45-.44-.83.02-.1.08-.2.16-.32.22-.32.54-.81.11-1.86-.03-.08,0-.18.09-.21.08-.03.18,0,.21.09.5,1.21.09,1.83-.14,2.17-.05.08-.1.15-.11.19-.03.14.18.4.33.53.07.06.08.16.02.23-.03.04-.08.06-.12.06Z"/>
          <path class="cls-16" d="m125.99,37.12s-.06,0-.09-.03c-.62-.4-1.18-.2-1.46-.04-.08.04-.18.02-.22-.06-.05-.08-.02-.18.06-.22.34-.2,1.04-.45,1.8.05.08.05.1.15.05.23-.03.05-.08.07-.14.07Z"/>
          <path class="cls-14" d="m124.68,38.68c.01-.31.2-.56.43-.55.22,0,.4.27.39.58-.01.31-.2.56-.43.55-.22,0-.4-.27-.39-.58Z"/>
          <path class="cls-14" d="m129.45,43.59s-.65.53-1.33.94c-.71.42-1.31.58-1.72.47-.41-.1-2.35-1.8-2.35-1.8,0,0,1.26,2.59,2.8,2.83,1.18.18,2.57-1.39,2.57-1.39l.02-1.05Z"/>
          <path class="cls-16" d="m123.14,40.67s-.01,0-.02,0c-.54-.06-1.05-.78-1.08-1.33-.03-.53.03-1.23.9-1.28.09,0,.17.06.17.15,0,.09-.06.17-.15.17-.4.02-.63.19-.59.94.03.43.45.99.78,1.02.09,0,.16.09.15.18,0,.08-.08.15-.16.15Z"/>
          <path class="cls-16" d="m134.74,48.98s-.09-.02-.13-.06c-1.03-1.25-.82-2.13-.64-2.91.09-.4.18-.77.11-1.19-.1-.54-.3-.9-.49-1.26-.25-.46-.51-.93-.52-1.75-.01-.56.06-1.13.12-1.74.16-1.35.33-2.88-.39-4.66-.68-1.67-2.08-2.52-2.1-2.52-.08-.05-.1-.15-.06-.22.05-.08.15-.1.22-.06.06.04,1.52.91,2.24,2.68.75,1.86.57,3.43.41,4.82-.07.59-.13,1.15-.12,1.69.01.74.24,1.16.48,1.6.2.37.41.76.52,1.35.09.48-.01.91-.11,1.32-.18.77-.35,1.49.58,2.62.06.07.05.17-.02.23-.03.03-.07.04-.1.04Z"/>
          <path class="cls-16" d="m121.41,39.12c-.07,0-.14-.05-.16-.12-.02-.07-.42-1.82,2.66-3.06,1.34-.54,1.68-.86,2.48-1.88.38-.49.73-.72,1.08-.71.44.01.78.41,1.04.8.05.07.03.18-.04.23-.07.05-.18.03-.23-.04-.31-.45-.55-.65-.78-.66,0,0,0,0-.01,0-.23,0-.5.2-.8.58-.83,1.07-1.25,1.43-2.62,1.98-2.79,1.12-2.47,2.61-2.46,2.67.02.09-.03.18-.12.2-.01,0-.03,0-.04,0Z"/>
          <path class="cls-16" d="m123.25,37.93c-.06,0-.12-.03-.15-.09-.04-.08,0-.18.08-.22,1.36-.66,1.54-1.89,1.55-1.94.01-.09.09-.15.18-.14.09.01.15.09.14.18,0,.06-.21,1.45-1.73,2.2-.02.01-.05.02-.07.02Z"/>
          <path class="cls-16" d="m119.93,47.25c-.05,0-.11-.03-.14-.07-.59-.91-.23-1.88.16-2.91.35-.92.74-1.97.52-3.15-.05-.25-.14-.52-.24-.81-.28-.83-.64-1.87-.15-3.18.84-2.27,2.98-5.23,6.24-6.12,1.57-.43,2.84-.03,3.5.49.34.26.53.57.52.84,0,.09-.08.16-.17.16-.09,0-.16-.08-.16-.17,0-.16-.15-.38-.39-.58-.57-.45-1.75-.83-3.21-.43-3.14.86-5.21,3.72-6.02,5.91-.45,1.2-.13,2.14.15,2.96.1.3.2.58.25.86.24,1.27-.17,2.37-.54,3.33-.37.99-.69,1.84-.19,2.61.05.08.03.18-.05.23-.03.02-.06.03-.09.03Z"/>
          <path class="cls-16" d="m129.22,33.63c-.06,0-.12-.04-.15-.1-.22-.48-.62-1.01-1.31-.81-.09.03-.18-.02-.2-.11-.03-.09.02-.18.11-.2.71-.21,1.32.14,1.7.99.04.08,0,.18-.08.22-.02.01-.05.01-.07.01Z"/>
          <path class="cls-14" d="m128.3,38.96c.01-.31.2-.56.43-.56.22,0,.4.27.39.58-.01.31-.2.56-.43.56-.22,0-.4-.27-.39-.58Z"/>
          <path class="cls-16" d="m129.72,37.49s-.08-.01-.11-.04c-.26-.22-.8-.54-1.51-.22-.08.04-.18,0-.22-.08-.04-.08,0-.18.08-.22.91-.42,1.6.05,1.86.27.07.06.08.16.02.23-.03.04-.08.06-.12.06Z"/>
          <path class="cls-16" d="m130.69,41.06s-.02,0-.03,0c-.09,0-.16-.08-.16-.17,0-.09.08-.16.17-.16,0,0,.01,0,.02,0,.39,0,.93-.45,1.04-.88.09-.34.07-.6-.03-.77-.09-.14-.24-.22-.47-.27-.09-.02-.15-.1-.13-.19.02-.09.1-.15.19-.13.32.06.55.2.69.41.16.25.19.59.08,1.02-.13.52-.76,1.12-1.35,1.12Z"/>
          <path class="cls-16" d="m130.84,40.07s-.06,0-.09-.03c-.08-.05-.1-.15-.05-.23.17-.26.37-.36.4-.37.08-.04.18,0,.22.08.04.08,0,.18-.08.22,0,0-.14.07-.25.24-.03.05-.08.08-.14.08Z"/>
          <path class="cls-16" d="m130.98,38.26c-.09,0-.16-.07-.16-.16-.09-2.45-1.57-3.11-1.86-3.14-.09,0-.16-.09-.15-.18,0-.09.09-.16.17-.15.34.02,2.06.72,2.16,3.46,0,.09-.07.17-.16.17,0,0,0,0,0,0Z"/>
          <path class="cls-16" d="m128.95,34.09s-.05,0-.07-.02c-.08-.04-.12-.14-.08-.22.34-.75.98-1.02,1.01-1.04.08-.04.18,0,.22.09.04.08,0,.18-.09.22,0,0-.55.24-.84.87-.03.06-.09.1-.15.1Z"/>
          <path class="cls-16" d="m121.35,46.91c-.06,0-.12-.03-.15-.09-.51-1.04-.13-2.27.34-3.01.05-.08.15-.1.23-.05.08.05.1.15.05.23-.43.67-.77,1.78-.33,2.69.04.08,0,.18-.08.22-.02.01-.05.02-.07.02Z"/>
          <path class="cls-16" d="m132.34,47.83s-.04,0-.06-.01c-.08-.03-.13-.13-.09-.21.3-.78.14-1.39-.11-2.12-.07-.2-.2-.4-.33-.62-.37-.59-.84-1.31-.53-2.64.02-.09.11-.14.2-.12s.14.11.12.2c-.28,1.2.13,1.83.49,2.39.15.23.29.45.37.69.26.76.44,1.46.1,2.34-.03.07-.09.11-.15.11Z"/>
          <path class="cls-16" d="m119.57,47.32c-.08,0-.14-.05-.16-.13-.02-.09.04-.18.13-.19.4-.09.83-.17,1.24-.24,1.07-.2,2.17-.4,2.67-.72.57-.37.69-1.58.6-2.59,0-.09.06-.17.15-.18.09,0,.17.06.18.15.04.53.12,2.32-.75,2.89-.55.36-1.64.56-2.79.77-.41.08-.84.15-1.23.24-.01,0-.02,0-.03,0Z"/>
          <path class="cls-16" d="m126.72,49.37c-.36,0-.71-.04-1.06-.12-1.79-.41-2.92-1.83-3.27-2.52-.04-.08,0-.18.07-.22.08-.04.18,0,.22.07.32.64,1.37,1.96,3.05,2.35,1.61.37,3.4-.19,5.32-1.67.07-.06.17-.04.23.03.06.07.04.17-.03.23-1.6,1.23-3.12,1.84-4.54,1.84Z"/>
          <path class="cls-16" d="m114.53,60.41c-.09,0-.16-.07-.16-.15-.08-1.21-.16-1.65-.43-2.89-.14-.63-.29-1.09-.43-1.49-.12-.36-.24-.71-.32-1.09-.11-.58-.12-1.13-.13-1.77,0-.25,0-.52-.02-.8,0-.09.07-.17.16-.17.09,0,.17.07.17.16.01.29.01.55.02.81,0,.62.01,1.16.12,1.71.07.36.18.68.3,1.05.14.42.3.89.44,1.53.26,1.19.35,1.68.44,2.94,0,.09-.06.17-.15.17,0,0,0,0-.01,0Z"/>
          <path class="cls-16" d="m113.7,60.88c-.09,0-.16-.07-.16-.16,0-.36.13-.64.37-.79.26-.17.61-.16.99.02.08.04.12.14.08.22-.04.08-.14.12-.22.08-.27-.13-.51-.14-.67-.04-.14.09-.22.27-.22.51,0,.09-.07.16-.16.16Z"/>
          <path class="cls-16" d="m116.78,59.72c-.08,0-.15-.06-.16-.14-.22-1.56-.74-2.31-1.53-3.44-.13-.19-.27-.38-.41-.6-.05-.07-.03-.18.04-.23.07-.05.18-.03.23.04.14.21.28.41.41.59.82,1.17,1.36,1.95,1.59,3.59.01.09-.05.17-.14.19,0,0-.02,0-.02,0Z"/>
          <path class="cls-16" d="m117.96,59.74c-.09,0-.16-.07-.16-.16,0-.18-.01-.42-.02-.69,0-.5-.02-1.13-.07-1.62-.03-.29-.1-.55-.16-.79-.09-.35-.18-.7-.18-1.14,0-.09.07-.16.16-.16s.16.07.16.16c0,.39.08.72.17,1.06.07.26.13.53.17.84.06.51.07,1.15.07,1.65,0,.26,0,.5.02.68,0,.09-.07.17-.16.17,0,0,0,0,0,0Z"/>
          <path class="cls-16" d="m115.79,59.93c-.09,0-.16-.07-.16-.16-.03-1.91-.17-3.14-.17-3.15-.01-.09.05-.17.14-.18.09-.01.17.05.18.14,0,.01.14,1.25.17,3.18,0,.09-.07.17-.16.17,0,0,0,0,0,0Z"/>
          <path class="cls-16" d="m123.82,60.49c-.08,0-.15-.06-.16-.15-.18-1.54-.77-2.85-1.27-3.82-.4-.78-1.22-1.77-1.87-2.56-.27-.33-.51-.61-.68-.84-.2-.26-.75-1.71-.82-1.87-.03-.08,0-.18.09-.21.08-.03.18,0,.21.09.23.6.64,1.62.77,1.79.17.22.4.5.67.83.67.81,1.49,1.81,1.91,2.62.51.99,1.11,2.34,1.3,3.93.01.09-.05.17-.14.18,0,0-.01,0-.02,0Z"/>
          <path class="cls-16" d="m123.1,63.16s-.1-.02-.13-.06c-.06-.07-.04-.17.03-.23.28-.22.49-.45.61-.82.03-.09.12-.13.21-.11.09.03.13.12.11.21-.15.48-.44.75-.72.98-.03.02-.07.04-.1.04Z"/>
          <path class="cls-16" d="m119.98,59.63s0,0-.01,0c-.09,0-.16-.08-.15-.17,0-.05.09-1.16.5-1.93.04-.08.14-.11.22-.07.08.04.11.14.07.22-.38.71-.46,1.79-.46,1.8,0,.09-.08.15-.16.15Z"/>
          <path class="cls-16" d="m124.91,65.93s-.06,0-.09-.03c-.04-.02-.1-.08-.09-.2.07-1.5-.17-2.41-.93-3.46-.05-.07-.04-.18.04-.23.07-.05.18-.04.23.04.65.91.95,1.71,1,2.83.03-.24.05-.55.04-.93-.02-.45-.09-.9-.23-1.32-.03-.09.02-.18.11-.21.09-.03.18.02.21.11.15.45.23.93.24,1.41.04,1.23-.23,1.85-.42,1.96-.03.02-.07.03-.1.03Z"/>
          <path class="cls-16" d="m124.33,66.69s-.01,0-.02,0c-.09,0-.16-.09-.15-.18,0-.08.02-.17.02-.25.04-.52.09-1.12.61-1.29.09-.03.18.02.21.1.03.09-.02.18-.1.21-.3.1-.34.45-.39,1.01,0,.09-.01.17-.02.26,0,.08-.08.15-.16.15Z"/>
          <path class="cls-16" d="m125.78,66.96s-.02,0-.03,0c-.09-.02-.15-.1-.13-.19.11-.58-.02-1.27-.48-1.45-.08-.03-.12-.13-.09-.21.03-.08.13-.12.21-.09.66.27.82,1.13.68,1.82-.02.08-.08.13-.16.13Z"/>
          <path class="cls-16" d="m115.56,49.38c-.4,0-.65-.27-.78-.42-.2.15-.62.47-1.1.18-.08-.05-.1-.15-.05-.23.05-.08.15-.1.23-.05.27.17.52,0,.74-.17.08-.07.14-.11.22-.1.08,0,.13.06.19.13.18.23.42.45.87.26.08-.04.18,0,.22.09.04.08,0,.18-.09.22-.17.07-.31.1-.45.1Z"/>
          <path class="cls-14" d="m113.44,47.06c.03-.24.21-.42.4-.4s.32.23.29.48c-.03.24-.21.42-.4.4-.19-.02-.32-.23-.29-.48Z"/>
          <path class="cls-14" d="m114.31,48.23c0,.29.26.58.45.58.19,0,.46-.27.46-.56,0-.1-.11-.16-.24-.2-.27-.07-.67-.01-.67.18Z"/>
          <path class="cls-16" d="m114.5,48.35s0,0,0,0c-.09,0-.16-.08-.16-.17,0-.29.3-.47.46-.57l.04-.02c.08-.05.18-.03.23.05.05.08.03.18-.05.23l-.04.03c-.08.05-.3.19-.31.3,0,.09-.08.16-.16.16Z"/>
          <path class="cls-16" d="m114.69,50.71c-.24,0-.46-.19-.6-.51-.18-.42-.18-1.02.17-1.28.07-.05.18-.04.23.03.05.07.04.18-.03.23-.2.15-.2.58-.07.89.07.16.19.33.33.31.06-.01.12-.19.16-.35.09-.31.22-.73.63-.94.08-.04.18,0,.22.07.04.08,0,.18-.07.22-.29.15-.38.46-.47.74-.08.27-.16.54-.42.58-.03,0-.05,0-.08,0Z"/>
          <path class="cls-14" d="m116.02,47.22c.03-.24.21-.42.4-.4.19.02.32.23.29.48-.03.24-.21.42-.4.4-.19-.02-.32-.23-.29-.48Z"/>
          <path class="cls-16" d="m111.92,46.15c-.09,0-.16-.07-.16-.15-.02-.36-.11-.75-.27-1.17v-.03s-.06-.11-.09-.17c-.13-.28-.29-.64-.15-.9.07-.13.2-.21.38-.23.23-.03.85.06,1.57.65.56.45.85.96.86.98.04.08.02.18-.06.22-.08.04-.18.02-.22-.06,0,0-.28-.48-.78-.89-.66-.53-1.19-.6-1.32-.58-.05,0-.12.02-.14.06-.06.12.08.43.16.6.03.07.07.14.09.2v.02c.18.44.28.87.3,1.26,0,.09-.06.17-.15.17,0,0,0,0-.01,0Z"/>
          <path class="cls-16" d="m119.09,46.57s-.03,0-.04,0c-.09-.02-.14-.11-.12-.2,0-.03.17-.66.41-1.07.04-.07.1-.15.15-.23.12-.18.3-.43.26-.53-.02-.05-.1-.08-.15-.1-.13-.04-.68-.07-1.45.35-.59.32-.95.76-.95.76-.06.07-.16.08-.23.02-.07-.06-.08-.16-.02-.23.02-.02.4-.49,1.05-.84.84-.46,1.48-.44,1.71-.37.19.06.31.16.36.3.09.26-.11.55-.3.83-.05.07-.1.14-.14.21-.22.37-.37.97-.38.97-.02.07-.09.12-.16.12Z"/>
          <path class="cls-16" d="m113.25,45.59c-.08,0-.15-.05-.16-.13v-.06c-.08-.38-.23-1.17-1.2-1.55-.08-.03-.13-.13-.09-.21.03-.08.13-.13.21-.09,1.13.45,1.31,1.39,1.39,1.79v.06c.03.09-.03.18-.12.19-.01,0-.02,0-.03,0Z"/>
          <path class="cls-16" d="m117.82,45.93s-.06,0-.09-.02c-.08-.05-.1-.15-.05-.23.05-.08.09-.16.14-.24.33-.57.78-1.34,1.63-1.34.01,0,.02,0,.03,0,.09,0,.16.08.16.17,0,.09-.07.16-.16.16,0,0-.02,0-.03,0-.66,0-1.03.62-1.35,1.18-.05.09-.1.17-.15.25-.03.05-.08.08-.14.08Z"/>
          <path class="cls-16" d="m117.05,45.51s-.04,0-.07-.01c-1.61-.71-2.38-.47-3-.29h-.04c-.09.04-.18-.01-.2-.1-.03-.09.02-.18.11-.2h.04c.67-.22,1.51-.47,3.23.29.08.04.12.13.08.22-.03.06-.09.1-.15.1Z"/>
          <path class="cls-16" d="m115.08,44.91s-.03,0-.05,0c-.09-.02-.14-.12-.11-.2,0-.03.02-.06.02-.1.03-.15.07-.36.26-.49.14-.09.34-.11.59-.05.09.02.14.11.12.2-.02.09-.11.14-.2.12-.16-.04-.28-.03-.34,0-.07.05-.1.16-.12.28,0,.05-.02.09-.03.13-.02.07-.09.12-.16.12Z"/>
          <path class="cls-16" d="m116.99,45.37s-.07-.01-.1-.04c-.07-.06-.08-.16-.03-.23.14-.17.13-.27.12-.45,0-.09-.01-.19,0-.31,0-.15.12-.29.21-.41.04-.06.09-.11.11-.15.04-.08.04-.16.03-.18-.13-.04-.46.06-.81.27-.3.18-.67.48-.67.93,0,.09-.07.16-.16.16s-.16-.07-.16-.16c0-.47.29-.89.83-1.21.27-.16.76-.4,1.09-.3.09.03.16.09.19.18.08.18-.02.41-.04.45-.03.07-.09.14-.14.21-.05.07-.14.18-.14.23,0,.1,0,.18,0,.26.02.21.03.41-.19.68-.03.04-.08.06-.13.06Z"/>
          <path class="cls-16" d="m114.07,45.11c-.08,0-.16-.06-.16-.15-.02-.29.02-.5.06-.66.02-.09.04-.17.03-.23-.01-.08-.05-.16-.09-.24-.07-.15-.17-.33-.11-.55.04-.15.16-.25.32-.27.39-.04,1.1.4,1.43,1.04.04.08.01.18-.07.22-.08.04-.18.01-.22-.07-.28-.53-.86-.89-1.1-.86-.04,0-.04.01-.04.02-.03.1.01.18.08.32.05.1.11.21.13.35.02.11,0,.22-.04.34-.03.15-.07.32-.05.56,0,.09-.06.17-.15.18,0,0,0,0-.01,0Z"/>
          <path class="cls-16" d="m115.37,44.19c-.08,0-.15-.06-.16-.14-.07-.4-.11-.8.26-1.16.1-.1.21-.17.32-.24.21-.14.38-.24.41-.49.01-.09.1-.15.19-.14.09.01.15.1.14.19-.06.39-.32.56-.56.72-.1.06-.19.13-.27.2-.23.23-.24.46-.17.86.02.09-.04.17-.13.19,0,0-.02,0-.03,0Z"/>
          <path class="cls-16" d="m115.87,44.32c-.08,0-.15-.06-.16-.15-.05-.52.11-.75.24-.93.13-.18.22-.3.13-.71-.02-.09.04-.18.13-.19.09-.02.18.04.19.13.12.54-.04.77-.19.97-.12.17-.22.31-.18.7,0,.09-.06.17-.15.18,0,0-.01,0-.02,0Z"/>
          <path class="cls-16" d="m111.16,47.3s0,0-.01,0c-.09,0-.16-.09-.15-.18.04-.54.6-1.13,1.07-1.32.08-.03.18,0,.21.09.03.08,0,.18-.09.21-.41.16-.83.68-.86,1.04,0,.09-.08.15-.16.15Z"/>
          <path class="cls-16" d="m110.96,48.41s-.02,0-.03,0c-.09-.02-.15-.1-.13-.19.12-.6.67-.76.7-.76.09-.02.18.03.2.11.02.09-.03.18-.11.2h0s-.38.11-.46.51c-.02.08-.08.13-.16.13Z"/>
          <path class="cls-16" d="m111.2,49.54c-.06,0-.12-.03-.15-.09-.11-.22-.12-.49-.04-.73.07-.21.22-.38.42-.47.08-.04.18,0,.22.08.04.08,0,.18-.08.22-.15.07-.22.19-.25.28-.05.15-.04.33.03.47.04.08,0,.18-.07.22-.02.01-.05.02-.07.02Z"/>
          <path class="cls-16" d="m111.97,51.05s-.05,0-.08-.02c-.02,0-.44-.24-.55-.67-.07-.25-.01-.51.16-.78.05-.08.15-.1.23-.05.08.05.1.15.05.23-.12.18-.16.36-.11.52.08.29.39.47.39.47.08.04.11.14.07.22-.03.06-.09.09-.14.09Z"/>
          <path class="cls-16" d="m113.49,52.42s-.02,0-.03,0c-.75-.12-1.18-.55-1.21-1.19,0-.09.07-.17.16-.17.1,0,.17.07.17.16.02.49.34.78.94.88.09.01.15.1.14.19-.01.08-.08.14-.16.14Z"/>
          <path class="cls-16" d="m114.21,52.82s-.03,0-.04,0c-.38-.09-.84-.4-.95-.85-.02-.09.03-.18.12-.2.09-.02.18.03.2.12.08.31.42.54.71.62.09.02.14.11.12.2-.02.07-.09.12-.16.12Z"/>
          <path class="cls-16" d="m115.1,52.89s-.02,0-.03,0c-.09-.02-.15-.1-.13-.19.09-.44.8-.89,1.25-.89.09,0,.16.07.16.16s-.07.16-.16.16c-.33,0-.87.37-.92.63-.02.08-.08.13-.16.13Z"/>
          <path class="cls-16" d="m116.61,52.51c-.07,0-.13-.04-.16-.11-.03-.09.02-.18.1-.21.28-.09.51-.25.68-.47.06-.07.16-.08.23-.03.07.06.08.16.03.23-.21.26-.49.46-.84.57-.02,0-.03,0-.05,0Z"/>
          <path class="cls-16" d="m117.65,52.3c-.08,0-.15-.05-.16-.13-.02-.09.04-.18.13-.19.73-.14.77-1.06.77-1.1,0-.09.08-.16.17-.16.09,0,.16.08.16.17-.01.42-.25,1.26-1.04,1.41-.01,0-.02,0-.03,0Z"/>
          <path class="cls-16" d="m119,51.59s-.07,0-.09-.03c-.07-.05-.09-.15-.04-.23.35-.49.43-1.09.22-1.53-.04-.08,0-.18.08-.22.08-.04.18,0,.22.08.27.55.17,1.28-.24,1.87-.03.05-.08.07-.13.07Z"/>
          <path class="cls-16" d="m119.81,50.29s-.04,0-.06-.01c-.08-.03-.13-.13-.09-.21.28-.71-.27-1.3-.29-1.32-.06-.07-.06-.17,0-.23.07-.06.17-.06.23,0,.03.03.72.76.36,1.67-.03.06-.09.1-.15.1Z"/>
          <path class="cls-16" d="m119.75,48.33c-.06,0-.11-.03-.14-.09-.16-.29-.35-.37-.53-.41-.09-.02-.14-.11-.12-.2.02-.09.11-.14.2-.12.35.08.58.26.75.58.04.08.01.18-.07.22-.02.01-.05.02-.08.02Z"/>
          <path class="cls-16" d="m119.53,47.91s0,0-.01,0c-.09,0-.16-.09-.15-.18.05-.64-.31-1.12-.69-1.27-.08-.03-.13-.13-.09-.21.03-.08.13-.13.21-.09.5.19.97.81.9,1.6,0,.09-.08.15-.16.15Z"/>
          <path class="cls-16" d="m123.56,67.03s-.02,0-.03,0c-.06-.01-1.43-.32-2.06-1.18-.19-.25-.36-.56-.52-.85-.13-.23-.26-.45-.38-.64l-.07-.11c-.3-.45-.44-.65-.77-.88-.3-.21-.75-.45-1.14-.67-.1-.05-.19-.11-.28-.16-.11-.06-.23-.14-.34-.22-.19-.12-.44-.3-.54-.28,0,0-.01,0-.03.02-.07.11-.09.3.48.79l.12.11c.4.34.85.72,1.05,1.28.03.09-.02.18-.1.21-.09.03-.18-.02-.21-.1-.16-.48-.58-.83-.95-1.14l-.13-.11c-.26-.22-.86-.73-.54-1.22.06-.09.14-.14.24-.16.23-.05.51.13.79.32.11.07.22.14.32.2.09.05.18.1.28.16.4.22.85.47,1.16.69.39.27.54.5.86.97l.07.11c.13.2.26.42.4.66.16.28.33.58.5.82.57.77,1.86,1.05,1.87,1.06.09.02.14.11.13.19-.02.08-.08.13-.16.13Z"/>
          <path class="cls-16" d="m115.96,67.67s-.05,0-.07-.02c0,0-.79-.37-1.36-.69-.4-.22-.72-.53-1.04-.83-.12-.11-.24-.23-.36-.34-.42-.37-.92-.87-.89-1.12.03-.22.14-.31.22-.35.18-.09.42-.02.79.21.2.12.44.3.7.49.32.24.65.49.91.63.35.19.74.33.95.37-.15-.12-.41-.29-.62-.42-.23-.14-.46-.29-.68-.45-.58-.42-.89-.73-1.28-1.13-.07-.08-.15-.16-.24-.24-.47-.48-.88-.89-.59-1.24.08-.09.18-.15.31-.16.37-.03.83.3,1.16.58.52.45.91.76,1.49,1.12.36.22.92.57,1.14.62-.1-.23-.97-.97-1.36-1.29-.17-.14-1.21-1.1-1.47-1.47-.16-.22-.16-.49,0-.65.14-.15.43-.22.8.02.34.22.89.64,1.42,1.04.15.11.3.23.44.34.66.5,1.22.81,1.89,1.15.37.18.67.29.94.38.12.04.22.08.32.12.08.03.13.13.09.21-.03.08-.13.13-.21.09-.09-.04-.2-.07-.31-.11-.26-.09-.59-.2-.98-.4-.67-.34-1.26-.66-1.95-1.18-.14-.11-.29-.22-.44-.34-.52-.4-1.07-.81-1.4-1.03-.19-.13-.34-.13-.39-.07-.04.04-.04.13.03.24.23.33,1.22,1.24,1.42,1.41,1.38,1.16,1.62,1.45,1.44,1.75-.04.06-.09.1-.16.12-.25.06-.71-.21-1.43-.65-.61-.38-1.01-.7-1.54-1.16-.45-.39-.77-.52-.92-.5-.05,0-.07.02-.09.04-.09.11.22.44.57.8.08.08.16.16.24.24.38.39.67.69,1.23,1.09.21.15.44.3.66.44.64.4.92.59.87.83-.01.08-.06.14-.14.18-.32.15-1.18-.27-1.4-.39-.28-.16-.62-.41-.95-.66-.25-.19-.49-.36-.67-.48-.37-.23-.47-.2-.48-.19,0,0-.02.03-.03.08.03.12.39.51.78.84.13.11.25.23.37.35.31.3.61.58.97.78.57.31,1.34.68,1.35.68.08.04.12.14.08.22-.03.06-.09.09-.15.09Z"/>
          <path class="cls-16" d="m123.09,69.97s-.03,0-.05,0c-2.17-.66-2.89-.7-3.58-.73-.25-.01-.51-.02-.82-.07-1.31-.18-2.11-.38-2.75-.7-1.51-.75-3.28-1.87-3.13-2.91.01-.09.1-.15.18-.14.09.01.15.1.14.18-.09.64,1.02,1.61,2.96,2.58.61.31,1.38.5,2.65.67.3.04.54.05.79.06.71.03,1.45.07,3.66.74.09.03.14.12.11.2-.02.07-.09.12-.16.12Z"/>
          <path class="cls-14" d="m102.7,57.75c-.02.22.21.47.4.49.19.02.48-.15.5-.37,0-.07-.09-.14-.22-.18-.26-.08-.67-.09-.68.06Z"/>
        </g>
      </g>
      <g>
        <g>
          <path class="cls-17" d="m59.39,14.47c-.6-5.97-4.65-11.3-10.73-13.23-4.79-1.52-9.78-.59-13.6,2.09C31.22.65,26.22-.26,21.43,1.29c-6.08,1.97-10.11,7.34-10.67,13.33C4.87,16.74.61,22.33.5,28.97c-.11,6.84,4.23,12.71,10.34,14.86.58,5.98,4.63,11.32,10.71,13.27,1.57.5,3.16.74,4.72.74,3.21,0,6.31-1.01,8.89-2.81,3.83,2.67,8.83,3.59,13.62,2.05.72-.23,1.41-.51,2.07-.84,2.24,2.34,5.24,4.41,8.85,4.36-1.46-.38-3.85-4.14-4.34-7.69,2.32-2.49,3.78-5.7,4.11-9.12,5.96-2.12,10.22-7.78,10.3-14.4,0,0,0,0,0-.01.11-6.86-4.24-12.75-10.38-14.9Z"/>
          <path class="cls-18" d="m59.39,14.47c-.6-5.97-4.65-11.3-10.73-13.23-4.79-1.52-9.78-.59-13.6,2.09C31.22.65,26.22-.26,21.43,1.29c-6.08,1.97-10.11,7.34-10.67,13.33C4.87,16.74.61,22.33.5,28.97c-.11,6.84,4.23,12.71,10.34,14.86.58,5.98,4.63,11.32,10.71,13.27,1.57.5,3.16.74,4.72.74,3.21,0,6.31-1.01,8.89-2.81,3.83,2.67,8.83,3.59,13.62,2.05.72-.23,1.41-.51,2.07-.84,2.24,2.34,5.24,4.41,8.85,4.36-1.46-.38-3.85-4.14-4.34-7.69,2.32-2.49,3.78-5.7,4.11-9.12,5.96-2.12,10.22-7.78,10.3-14.4,0,0,0,0,0-.01.11-6.86-4.24-12.75-10.38-14.9Z"/>
        </g>
        <g>
          <path class="cls-16" d="m15.95,20c.4-.41,1.11-1.3,1.73-2.03.53-.63,1.06-.73,1.76-.07.6.57,1.3,1.29,1.84,1.87.6.64,1.52,1.64,2.21,2.38l-.99,1.06c-.6-.75-1.37-1.67-1.9-2.3-.52-.62-1.32-1.49-1.65-1.83-.29-.29-.48-.27-.74.05-.35.45-.99,1.34-1.35,1.83-.21.29-.42.6-.59.84l-1.08-1.12c.27-.22.47-.41.75-.68Zm6.01-3.43c.65,0,1.17.52,1.17,1.17s-.52,1.16-1.17,1.16-1.16-.51-1.16-1.16.51-1.17,1.16-1.17Zm0,1.74c.31,0,.58-.25.58-.57s-.26-.58-.58-.58-.57.26-.57.58.25.57.57.57Z"/>
          <path class="cls-16" d="m26.35,20.43l-1.1.41c-.15-.49-.6-1.68-.82-2.08l1.08-.39c.23.46.66,1.55.84,2.05Zm4.36-1.22c-.23.91-.61,1.85-1.22,2.64-.84,1.08-1.96,1.84-3.02,2.23l-.95-.96c.99-.26,2.24-.95,2.99-1.88.61-.76,1.04-1.96,1.15-3.09l1.26.41c-.11.29-.16.48-.22.66Zm-2.37.66l-1.08.38c-.11-.44-.5-1.53-.73-2l1.07-.35c.17.39.61,1.56.74,1.97Z"/>
          <path class="cls-16" d="m33.3,17.21c0-.32-.03-.76-.09-1.08h1.4c-.04.32-.08.71-.08,1.08v1.33c1.21.35,2.94.99,3.76,1.39l-.51,1.24c-.93-.49-2.28-1.01-3.25-1.34v2.55c0,.26.04.89.08,1.26h-1.4c.05-.36.09-.9.09-1.26v-5.18Z"/>
          <path class="cls-16" d="m42.56,18.57c.74-.43,1.52-.82,1.94-1.06.34-.2.6-.35.84-.55l.62,1.04c-.27.16-.56.32-.89.49-.56.28-1.69.8-2.51,1.33-.75.5-1.25,1.01-1.25,1.64s.62.99,1.87.99c.93,0,2.14-.13,2.94-.33l-.02,1.3c-.77.13-1.72.23-2.89.23-1.79,0-3.15-.5-3.15-2.04,0-.99.63-1.74,1.49-2.38-.41-.76-.85-1.73-1.25-2.68l1.12-.46c.34.94.77,1.8,1.13,2.49Z"/>
          <path class="cls-16" d="m51.31,23.67l-.68-1.07c.34-.04.59-.09.84-.14,1.15-.27,2.05-1.1,2.05-2.41,0-1.24-.67-2.17-1.89-2.38-.13.76-.28,1.59-.54,2.44-.54,1.82-1.31,2.93-2.3,2.93s-1.83-1.1-1.83-2.62c0-2.08,1.8-3.85,4.13-3.85s3.64,1.55,3.64,3.51-1.16,3.24-3.43,3.59Zm-2.48-2.02c.38,0,.73-.57,1.1-1.78.21-.67.38-1.43.48-2.18-1.49.31-2.29,1.62-2.29,2.61,0,.91.36,1.35.71,1.35Z"/>
        </g>
        <g>
          <path class="cls-16" d="m22.56,33.19c.35.24.8.43,1.28.53-.14.12-.32.37-.41.53-.23-.07-.44-.16-.65-.26v1.27h-.74v-.17h-2.12v.17h-.7v-1.27c-.22.12-.45.24-.71.34-.07-.17-.26-.41-.39-.52.5-.17.88-.38,1.18-.62h-1.04v-.54h1.55c.05-.07.09-.14.13-.21h-.97v-1.66h4.02v1.66h-2.32c-.04.07-.07.14-.11.21h3.14v.54h-1.13Zm-2.93-2.68h-1.34v-.56h1.34v-.3h.69v.3h1.26v-.3h.7v.3h1.37v.56h-1.37v.19h-.7v-.19h-1.26v.19h-.69v-.19Zm0,.91h2.64v-.23h-2.64v.23Zm0,.61h2.64v-.23h-2.64v.23Zm2.4,1.83h-2.12v.22h2.12v-.22Zm0,.8v-.22h-2.12v.22h2.12Zm-.04-1.23c-.07-.08-.14-.15-.21-.23h-1.6c-.07.08-.14.16-.22.23h2.03Z"/>
          <path class="cls-16" d="m25.39,32.5c.55-.4,1.14-.57,1.77-.57,1.05,0,1.66.65,1.66,1.37,0,1.09-.86,1.93-3.36,1.72l-.23-.79c1.8.25,2.75-.19,2.75-.95,0-.39-.37-.68-.89-.68-.68,0-1.29.25-1.67.71-.11.13-.17.23-.22.35l-.69-.17c.12-.59.26-1.76.3-2.51l.8.11c-.08.33-.19,1.06-.23,1.4Zm2.59-2.14l-.18.73c-.61-.08-1.94-.36-2.41-.48l.19-.72c.57.18,1.88.41,2.4.47Z"/>
          <path class="cls-16" d="m31.01,30.76c-.02.65-.07,1.99-.07,2.73,0,.61.36.8.83.8.99,0,1.62-.57,2.05-1.22l.55.66c-.38.58-1.24,1.38-2.6,1.38-.98,0-1.62-.43-1.62-1.46,0-.8.06-2.38.06-2.9,0-.28-.02-.57-.08-.81h.97c-.04.26-.07.57-.08.81Z"/>
          <path class="cls-16" d="m36.09,30.66c-.08.4-.29,1.6-.29,2.2,0,.11,0,.27.02.39.09-.2.19-.41.27-.61l.37.29c-.17.5-.37,1.15-.43,1.47-.02.09-.03.22-.03.28,0,.07,0,.16.01.25l-.7.05c-.12-.41-.23-1.15-.23-1.96,0-.9.19-1.91.25-2.37.02-.17.05-.4.06-.59l.84.07c-.05.12-.13.43-.15.53Zm1.48,2.93c0,.26.23.43.84.43.53,0,.98-.05,1.5-.16v.81c-.38.07-.86.11-1.54.11-1.03,0-1.53-.37-1.53-.98,0-.23.04-.47.1-.78l.69.07c-.05.2-.07.34-.07.5Zm2.17-3.07v.77c-.74.07-1.82.07-2.58,0v-.77c.74.1,1.93.07,2.58,0Z"/>
          <path class="cls-16" d="m45.24,33.14c-.02.26-.04.49-.06.68h.75v.62h-.85c-.06.26-.12.41-.19.51-.14.2-.31.25-.52.28-.19.03-.51.02-.83,0,0-.15-.08-.38-.17-.53.29.03.53.04.67.04.11,0,.16-.02.23-.11.03-.04.07-.1.09-.2h-2.43c-.02.12-.04.23-.06.34l-.72-.05c.09-.44.19-1,.28-1.59h-.89v-.64h.99c.05-.4.1-.79.14-1.15-.14.17-.31.35-.48.51-.14-.16-.41-.37-.59-.45.64-.52,1.05-1.19,1.28-1.77l.77.13c-.07.14-.13.29-.2.43h3.39v.64h-3.77c-.09.14-.19.28-.29.41h3.59s0,.22,0,.31c-.02.35-.03.67-.05.95h.8v.64h-.85Zm-3.1,0c-.04.23-.07.46-.1.68h.86c.03-.21.06-.44.09-.68h-.85Zm.17-1.28c-.03.21-.05.43-.08.64h.82c.02-.22.04-.43.06-.64h-.8Zm2.16,1.96c.02-.19.05-.41.07-.68h-.9c-.03.24-.05.47-.08.68h.92Zm.11-1.32c.01-.2.02-.41.04-.64h-.85c-.02.21-.04.43-.06.64h.87Z"/>
          <path class="cls-16" d="m51.4,30v5.16h-.77v-.38h-2.66v.39h-.74v-5.17h4.17Zm-3.43.72v1.29h2.66v-1.29h-2.66Zm2.66,3.34v-1.34h-2.66v1.34h2.66Z"/>
          <path class="cls-16" d="m17.46,41.67c0,.96-.13,2.35-.89,3.19-.1-.13-.37-.38-.5-.47.39-.44.58-1,.66-1.56-.22.13-.43.26-.64.38l-.2-.64c.23-.1.56-.26.9-.43,0-.16,0-.32,0-.47v-.21l-.53.24c-.03-.31-.17-.82-.32-1.21l.51-.21c.15.33.29.75.34,1.05v-1.6h1.84v-.5h.76v.5h2.14v.6h-1.72c.49.35,1.12.61,1.74.73-.13.15-.26.38-.35.55-.05-.01-.1-.03-.15-.04v1.33c0,.25-.04.37-.21.45-.17.07-.39.07-.7.07-.02-.14-.1-.33-.17-.46.19,0,.38,0,.44,0,.06,0,.08-.02.08-.07v-1.33h.53c-.26-.08-.54-.2-.8-.34v.23h-1.57v-.21c-.31.16-.65.3-.99.4-.04-.1-.12-.25-.2-.37v.4Zm-.26,2.76c.27-.2.45-.52.53-.86l.55.17c-.1.39-.26.78-.58,1.03l-.49-.34Zm.26-4.09v.75c.6-.16,1.19-.44,1.55-.75h-1.55Zm1.91,2.66c0,.21-.04.29-.17.35-.13.05-.31.05-.56.05-.02-.11-.08-.25-.13-.35.12,0,.25,0,.29,0s.06-.01.06-.06v-.13h-.59v.52h-.51v-1.77h1.61v1.38Zm-1.1-1.05v.17h.59v-.17h-.59Zm.59.63v-.17h-.59v.17h.59Zm.94,1.72c.15,0,.18-.05.2-.37.11.08.35.16.5.19-.06.53-.22.67-.63.67h-.71c-.59,0-.72-.16-.72-.65v-.56h.59v.56c0,.14.03.16.21.16h.56Zm.12-3.23c-.19-.11-.36-.23-.49-.35-.13.11-.29.23-.48.35h.97Zm-.37,3.01c-.1-.17-.35-.42-.56-.58l.43-.28c.22.15.47.38.58.55l-.46.31Zm.57-1.29h-.5v-1.17h.5v1.17Zm.63.73c.31.27.65.65.79.92l-.53.33c-.13-.27-.46-.68-.77-.96l.51-.29Z"/>
          <path class="cls-16" d="m24.27,39.51l.81-.1c.06.32.15.64.25.94.43-.07.85-.16,1.23-.28l.1.76c-.31.09-.69.16-1.07.22.17.39.38.76.53.98.1.15.22.28.32.4l-.37.54c-.34-.07-1.09-.14-1.6-.19l.06-.64c.29.02.69.06.88.07-.18-.29-.4-.68-.56-1.09-.71.05-1.54.06-2.56-.02v-.77c.89.11,1.65.13,2.29.08-.05-.14-.08-.26-.12-.37-.05-.14-.11-.35-.19-.55Zm-1.09,3.69c0,.5.45.72,1.27.72.65,0,1.18-.06,1.61-.14l-.04.76c-.34.07-.88.14-1.61.14-1.22,0-2-.48-2-1.34,0-.37.11-.71.32-1.12l.75.17c-.19.28-.29.55-.29.81Z"/>
          <path class="cls-16" d="m28.65,39.46l.88.03c-.04.17-.09.47-.13.85l.22.29c-.08.11-.2.31-.31.46,0,.04,0,.08-.01.13.47-.41,1.16-.9,1.75-.9.65,0,.94.38.94.89,0,.62-.2,1.51-.2,2.12,0,.16.08.27.23.27.22,0,.5-.16.78-.43l.1.85c-.28.26-.64.44-1.13.44-.45,0-.75-.32-.75-.9,0-.65.22-1.53.22-2.08,0-.29-.16-.44-.41-.44-.44,0-1.09.55-1.58,1.09,0,.17-.01.33-.01.49,0,.49,0,.99.04,1.56,0,.11.02.32.04.46h-.83c.01-.14.02-.35.02-.44.01-.47.02-.82.02-1.32-.25.38-.55.81-.76,1.1l-.47-.65c.34-.42.94-1.21,1.28-1.71.01-.14.02-.28.03-.43-.29.04-.76.1-1.09.14l-.08-.77c.17,0,.31,0,.52,0,.17-.01.44-.04.7-.08.01-.23.02-.4.02-.46,0-.17,0-.35-.02-.54Z"/>
          <path class="cls-16" d="m33.56,40.17c.5-.04,1.49-.13,2.58-.23.62-.05,1.28-.09,1.7-.1v.77c-.32,0-.83,0-1.15.08-.73.19-1.27.97-1.27,1.69,0,.98.92,1.34,1.94,1.4l-.28.82c-1.25-.08-2.44-.76-2.44-2.06,0-.86.49-1.55.89-1.85-.56.06-1.79.19-2.48.34l-.08-.82c.24,0,.47-.02.59-.03Z"/>
          <path class="cls-16" d="m41,39.9c0,.06,0,.15,0,.25.49-.02.99-.07,1.52-.16v.69c-.4.05-.95.1-1.53.13v.62c.61-.03,1.12-.08,1.6-.14v.71c-.55.06-1.01.1-1.59.12.01.23.02.47.04.71.76.22,1.33.62,1.68.91l-.43.67c-.32-.3-.73-.62-1.21-.83,0,.08,0,.16,0,.22,0,.51-.39.91-1.18.91-.96,0-1.46-.37-1.46-1s.56-1.03,1.48-1.03c.13,0,.25,0,.37.02-.01-.19-.02-.38-.02-.56h-.31c-.35,0-1.03-.03-1.43-.08v-.71c.38.07,1.12.11,1.44.11h.29c0-.2,0-.41,0-.62h-.22c-.38,0-1.07-.05-1.47-.11l-.02-.68c.43.07,1.12.13,1.48.13h.23v-.28c0-.11-.01-.3-.04-.41h.81c-.02.12-.03.27-.04.43Zm-1.21,4.11c.32,0,.53-.09.53-.44,0-.07,0-.15,0-.26-.16-.02-.32-.04-.49-.04-.43,0-.66.17-.66.37,0,.23.22.37.63.37Z"/>
          <path class="cls-16" d="m46.72,40s0,.11,0,.19c.61,0,1.43-.01,1.74,0v.71c-.37-.02-.92-.03-1.74-.03,0,.31,0,.64,0,.9.14.23.22.51.22.82,0,.78-.46,1.78-1.92,2.18l-.64-.64c.61-.13,1.13-.32,1.46-.68-.08.02-.17.03-.27.03-.46,0-1.03-.37-1.03-1.1,0-.68.55-1.12,1.2-1.12.08,0,.16,0,.24.02,0-.13,0-.27,0-.4-.91.01-1.84.05-2.58.09l-.02-.72c.68,0,1.77-.02,2.59-.04,0-.08,0-.14-.01-.19-.02-.25-.04-.45-.06-.52h.87c-.01.1-.04.42-.04.52Zm-1,2.81c.25,0,.47-.19.39-.72-.08-.14-.23-.21-.39-.21-.23,0-.46.16-.46.48,0,.28.22.45.46.45Z"/>
          <path class="cls-16" d="m52.3,40.6c.37.32.77.79.77,1.35,0,.5-.22,1-.5,1.46h-.16c.13-.28.38-.78.38-1.26,0-.7-.47-1.25-1.1-1.38v3.01c0,.62-.53,1.02-1.1,1.02-.28,0-.56-.15-.56-.44,0-.43.55-.83,1.04-.83.14,0,.29.03.38.08v-4.32h.15c0,.58.33,1,.7,1.32Z"/>
        </g>
      </g>
    </g>
  </g>
</svg>