<?xml version="1.0" encoding="UTF-8"?>
<svg id="_レイヤー_2" data-name="レイヤー 2" xmlns="http://www.w3.org/2000/svg" viewBox="0 0 108.19 131.16">
  <defs>
    <style>
      .cls-1 {
        fill: #262626;
      }

      .cls-2 {
        fill: #fff;
      }

      .cls-3 {
        fill: #fed094;
      }

      .cls-4 {
        fill: none;
        stroke: #262626;
        stroke-linecap: round;
        stroke-linejoin: round;
      }

      .cls-5 {
        fill: #455b6b;
      }

      .cls-6 {
        fill: #febb60;
      }

      .cls-7 {
        fill: #8e614c;
      }

      .cls-8 {
        fill: #f4b4ab;
      }

      .cls-9 {
        fill: #a7bdce;
      }

      .cls-10 {
        fill: #c48b68;
      }

      .cls-11 {
        fill: #808285;
      }

      .cls-12 {
        fill: #f4c076;
      }

      .cls-13 {
        fill: #8ca5b5;
      }

      .cls-14 {
        fill: #fff400;
      }

      .cls-15 {
        fill: #ffd6ba;
      }

      .cls-16 {
        fill: #718f5b;
      }
    </style>
  </defs>
  <g id="text">
    <g>
      <g>
        <g>
          <path class="cls-14" d="m74.51,49.54l-.06.77c-.05.71-.42,1.27-.89,1.36l-.51.09.51.09c.46.08.83.64.89,1.35l.06.77.06-.77c.05-.71.42-1.27.89-1.35l.51-.09-.51-.09c-.47-.08-.83-.64-.89-1.36l-.06-.77Z"/>
          <path class="cls-14" d="m84.71,68.53l-.06.77c-.05.71-.42,1.27-.89,1.36l-.51.09.51.09c.46.08.83.64.89,1.35l.06.77.06-.77c.05-.71.42-1.27.89-1.35l.51-.09-.51-.09c-.47-.08-.83-.64-.89-1.36l-.06-.77Z"/>
          <path class="cls-14" d="m103.84,72.65l-.06.77c-.05.71-.42,1.27-.89,1.36l-.51.09.51.09c.46.08.83.64.89,1.35l.06.77.06-.77c.05-.71.42-1.27.89-1.35l.51-.09-.51-.09c-.47-.08-.83-.64-.89-1.36l-.06-.77Z"/>
          <path class="cls-2" d="m24.18,80.02l-.06.77c-.05.71-.42,1.27-.89,1.36l-.51.09.51.09c.46.08.83.64.89,1.35l.06.77.06-.77c.05-.71.42-1.27.89-1.35l.51-.09-.51-.09c-.47-.08-.83-.64-.89-1.36l-.06-.77Z"/>
          <path class="cls-14" d="m55.01,59.38l-.06.77c-.05.71-.42,1.27-.89,1.36l-.51.09.51.09c.46.08.83.64.89,1.35l.06.77.06-.77c.05-.71.42-1.27.89-1.35l.51-.09-.51-.09c-.47-.08-.83-.64-.89-1.36l-.06-.77Z"/>
          <path class="cls-14" d="m98.97,66.02l-.03.42c-.03.39-.23.69-.48.73l-.28.05.28.05c.25.05.45.35.48.73l.03.42.03-.42c.03-.38.23-.69.48-.73l.27-.05-.27-.05c-.25-.04-.45-.35-.48-.73l-.03-.42Z"/>
          <path class="cls-14" d="m74.82,61.13l-.03.42c-.03.39-.23.69-.48.73l-.28.05.28.05c.25.05.45.35.48.73l.03.42.03-.42c.03-.38.23-.69.48-.73l.27-.05-.27-.05c-.25-.04-.45-.35-.48-.73l-.03-.42Z"/>
          <path class="cls-2" d="m48.12,78.6l-.03.42c-.03.39-.23.69-.48.73l-.27.05.27.05c.25.05.45.35.48.73l.03.42.03-.42c.03-.38.23-.69.48-.73l.27-.05-.27-.05c-.25-.04-.45-.35-.48-.73l-.03-.42Z"/>
          <path class="cls-2" d="m29.25,72.78l-.03.42c-.03.39-.23.69-.48.73l-.28.05.28.05c.25.05.45.35.48.73l.03.42.03-.42c.03-.38.23-.69.48-.73l.27-.05-.27-.05c-.25-.04-.45-.35-.48-.73l-.03-.42Z"/>
        </g>
        <g>
          <path class="cls-6" d="m105.8,127.58c-.08-.33-.3-1.48-.32-1.14-.12,2.19-1.15-.1-2.17,1.11-.09.1-.2.2-.32.23l.02.76c-.15.17-.41,1.51-.4,1.69.62.66,2.79.55,3.47-.21.18-.2.3-.55.29-.6-.11-.44-.42-1.28-.57-1.84Z"/>
          <path class="cls-6" d="m95.61,128.28c-.75.76-1.26-.52-2.5-.7-1.24,1.98-2.36,1.15-3.36,2.04-.26.45-.39.66-.26.75.12.1-.08.46,0,.5.45.23,7.17-.29,7.26-.39v-.9c.02-.29-.42-1.66-.52-1.89,0,0-.04.04-.1.1.03.04.05.05.05.05,0,0-.3.24-.56.44Z"/>
          <path class="cls-11" d="m71.02,125.68c-.2.06-.45.12-.7.11-.14,0-.32-.03-.53-.06-.46-.03-.92-.1-1.25-.18-.21-.06-.38-.1-.51-.13,0,0,.05.23,0,1.09-.04.86-.09,1.49-.2,1.89-.11.4-.3.59-.25.9.05.32.33.84.72,1.04.39.2.99.56,1.97.58.99.03,1.69.02,2.19-.17.5-.19.83-.3.95-.52.12-.22.14-.82.14-.82,0,0-.24-.41-.36-.59-.12-.18-.64-1.09-1.04-1.62-.4-.52-.53-1.14-.56-1.25-.02-.09-.06-.32-.07-.43-.09.03-.2.07-.35.12-.05.02-.1.03-.15.04Z"/>
          <path class="cls-11" d="m62.4,125.71c-.39-.05-.73-.11-.73-.11,0,0-.06.4-.23.78-.17.37-.69,1.3-.93,1.66-.24.35-.62.89-.72,1.11-.1.21-.12,1.04-.12,1.04,0,0,.25.33.82.49,0,0,.2.22.84.21.64,0,1.61.1,2.23-.06.63-.17,1.23-.39,1.48-.6.24-.21.48-.62.56-.84.08-.22-.05-.12-.19-.77-.14-.64-.2-.97-.23-1.38-.02-.41-.03-1.2-.03-1.27,0-.07.02-.54.02-.54,0,0-1.24.29-1.73.35-.35.05-.73,0-1.04-.06Z"/>
          <path class="cls-15" d="m37.64,126.06c-.29-.03-.56-.08-.77-.13,0,0-.11.44-.15.54-.05.1-.2.47-.2.47l.06.37s.49-.66.84-.7c.35-.03.78-.28,1.01-.05.12.11.38.3.62.46.21.13.44.29.44.29,0,0-.08-.6-.1-.7-.03-.1-.1-.69-.1-.69,0,0-.69.13-1.08.13-.05,0-.1,0-.16,0-.15.01-.29.01-.41,0Z"/>
          <path class="cls-15" d="m24.84,117.05c.05-.04.11-.08.15-.13.02-.05.02-.11,0-.17-.01-.02-.03-.03-.04-.05-.13-.2-.18-.36-.22-.52-.04-.08-.09-.16-.16-.22-.09-.14,0-.53-.19-.56-.13.32-.17.71-.23,1.05,0,0,0,0,0,.01-.01.08-.02.15-.04.21,0,.36.47.48.72.38Z"/>
          <path class="cls-13" d="m38.79,126.87c-.17-.1-.55-.33-.79-.29-.24.04-.26-.04-.58.17-.31.21-.59.39-.59.39l-.25.19s.16.54.03.86c-.12.31-.26.68-.32.98-.06.3-.06.8-.06.93s.38.68.6.73c.22.05,1.06.2,1.37.18.31-.02,1.02,0,1.14,0,.12-.01.69-.16.8-.33.1-.17.13-.32.11-.58-.02-.25-.06-.65-.11-.91-.05-.26-.23-.83-.35-1.18-.12-.34-.31-.69-.31-.69,0,0-.23-.15-.44-.29-.11-.07-.21-.13-.27-.17Z"/>
          <path class="cls-13" d="m25.06,116.83c-.16.39-.98.47-.96-.08.11-.63.26-1.63.29-2.12-.38-.11-1.15.13-1.41.43-1.03-.26-.44,2.22-.49,2.74-.03.83-.03,2.33.46,3.06.71,1.44,2.65.7,2.65-.68-.06-.8-.28-2.15.21-2.8,0,0-.46-.18-.76-.54Z"/>
          <path class="cls-10" d="m28.99,103.23c.41-.22.73-.85.65-1.3-.05-.16-.16-.29-.29-.4-.04-.03-.08-.05-.11-.07-.08-.04-.16-.07-.24-.09-.15,0-.31.07-.31.07,0,0-.28.25-.48.42-.15.13-.35.32-.43.41-.02.06-.02.12-.02.18.02.12.06.27.11.32.08.09.69.41.69.41,0,0-.02.01-.04.04.15.03.31.03.48,0Z"/>
          <path class="cls-10" d="m25.84,113.65c2.48.5,1.33-2.34.95-3.29.44-.08,1.61-.75,1.85-1.13.01.3.76,1.81,1.3,2.09l.02-.06c.98.43,1.8-.33,1.23-1.36-.23-.26-2.02-1.92-2.02-1.92.09-.81-1.23-3.54-1.66-4.19-.07-.02-.12-.03-.12-.03-.18.14-.39.03-.5-.12l-.17.02c-.4-.14-.91-1.21-.98-1.63.01-.14.41-.53.57-.68-.11-.32-.66-.71-.7-.74.34-.19.03-1.05-.44-.92-.69.03-.66.65-.74,1.01-.64.24-1.89.89-1.93,2.23-.03,1.08-.97,1.2.2.98.2.43,1.36,1,1.78.92v.42c-.32.44-2.35,1.73-2.1,2.35.36.97,1.63.1,2.03-.26.07.54.79,2.41,1.32,2.66-.02.68-.43,2.92,0,3.55.02-.02.03-.03.03-.03,0,0,.05.05.11.12Z"/>
          <path class="cls-16" d="m103.56,108.34c.16-.13-.13-1.09-.25-1.37-.11-.29-.16-.44-.27-.42l-.11.02s0-.18-.11-1.24c-.1-1.07-.32-2.46-.57-3.55-.25-1.08-.42-1.57-.51-1.73-.08-.16-.37-.84-.37-.84,0,0-.83.15-2.16.48-1.33.33-2.39.52-3.62.66-1.05.14-1.96.21-2.07.16-.08-.03-.35-.03-.59-.03-.62.01-1.16.02-1.44.02-.01.02-.04.01-.09,0h-.11s.02.21,0,.34c-.01.09.03.24.06.32-.03-.03-.1.03-.25.79-.21,1.12-.28,1.92-.35,2.74-.07.82-.1,1.6-.07,1.87.03.27.05.67.05.67,0,0-.4.05-.4.36,0,.31.13,1.74.13,1.74,0,0,.89.27,1.66.34.78.07,3.71.27,4.14.27.09,0,.12,0,.12,0,.42,0,.95,0,.95,0,0,0,.13.27.49.21.31-.05,1.87-.37,2.81-.64.13-.04.26-.08.4-.12.8-.28,2.37-.9,2.52-1.03Z"/>
          <path class="cls-16" d="m41.23,100.7c-3.01.86-7.56.07-10.42-.25-.11.66-.7,2.82-.71,3.7-.07.94-.17,4-.15,4.45.05.2,1.35,1.2,1.34,1.61.34,1.04-.58,1.42-1.34,1.04,0,0-.14.55-.15.58-.26.05-1.96.46-2.26.65,0,0-.15.83-.47,1-.45.26-1.03.56-1.35.05-.15.27-1.06.77-1.22.97-.23.3.22,1.75.45,2.2.18.34.88.7.86.67.8-.2,3.8-1.59,4.59-1.89.75-.24,1.11-.36,1.58-.73,1.48-.92,1.74-2.45,2.25-4.04.53-1.56,1.06-3.54,1.94-4.7-.45,1.47.28,7.67.74,9-.91,2.34-.53,8.61-.51,10.79.8.44,2.83.15,3.32-.1.12-1.84.54-9.31.54-9.31.93-1.36,1.69-10.76,1.44-15.89-.21.1-.28.13-.47.19Z"/>
          <path class="cls-15" d="m96.27,109.93c-.2,0-.66,0-1.64-.06-1.42-.09-3.26-.28-3.26-.28,0,0,.27,1.77.5,3.01.23,1.23.47,2.92.49,3.03.02.12.06.86.13,1.18.07.33.4,1.42.4,1.42l.16,1.52s.31,2.83.42,3.68c.1.86.36,2.41.35,2.65-.01.24-.47,1.38-.47,1.38,0,0,.27.23.47.32.02.01.05.02.08.04.23.13.65.43.74.51.04.04.15.09.26.13.09.03.18.06.25.07.04,0,.08,0,.1,0,.04-.02.14-.09.26-.18.03-.02.07-.05.1-.07.26-.2.56-.44.56-.44,0,0-.02-.02-.05-.05-.1-.12-.29-.41-.19-.73.13-.42.47-3.54.53-4.15.06-.61.19-1.89.24-2.6.05-.71.1-1.96-.07-2.58-.17-.62-.61-1.91-.61-1.91,0,0,.13-2.19.19-2.95.06-.76.23-2.81.23-2.81l-.06-.12s-.03,0-.12,0Z"/>
          <path class="cls-15" d="m103.3,127.54c.85-1.11,2.14.75,2.04-.68-.05-.56-.33-1.79-.74-2.07,0,0-.08-.98,0-1.37.22-1.33-.19-3.16-.53-4.67-.25-.74-.43-2.1-.93-2.22,0,0-.04-1.07.04-1.51.21-.47-.23-5.99-.29-6.33-.81.38-4.01,1.37-4.92,1.44.48,1.54,1.71,5.45,2.3,7.12-.07,1.87,2.07,6.71,2.72,8.37.03-.04-.02,2.15-.02,2.15,0,0,.26-.16.32-.23Z"/>
          <path class="cls-15" d="m106.97,102.13c-.26-.4-1.56-3.14-1.74-3.52-.18-.37-.47-.95-.47-.95l-2.05.78s.49.84.64,1.13c.15.29.63,1.15.68,1.42.05.27-.11.59-.16.69-.05.09-.23.39-.31.59-.09.2.02.68.04.86.02.17-.41,1.12-.41,1.12,0,0,.33.17.42.2.09.03.91-1.17.91-1.17,0,0,.34,2.1.54,2.29.21.2.22.32.36.24.04-.02.42.09-.04-2.36,0-.05.65,1.93.68,1.98.23.28.3.42.42.39.08-.02.06-.35.13-.37.06-.02-.53-2.15-.47-2.17,0,0,.84,2.07,1.19,1.9.34-.16-.83-2.54-.78-2.66.05-.12,1.07,1.48,1.41,1.25.45-.3-.91-1.54-.99-1.66Z"/>
          <path class="cls-12" d="m91.65,83.27c-.23-.4-.3-1.28-.33-1.57-.76-.22-1.22-1.88-.07-1.83-.06.06.23.98.48.93-.02-.12-.06-1.28.13-1.45,1.46.1,1.61-1.79,2.5-1.68-.11.63.45,2.09,1.32,1.96,1.24,1.76,1.57.05,1.16,1.71.17.09.6-.58.6-.62.18-.14.36.06.51.32.18.62-.31,1.38-.95,1.37.1-.13-1,1.86-1.09,1.87l-.02,1.2c.05,0,.77-.11.79-.11,0-.04,0-.06,0-.06.09-.03.38-.13.47-.07.19-.36.33-.78.45-1.06.04.21.19.9.06,1.2l.06.03c-.25.44.2.26.34.22,1.03.46,1.66-1.08,1.66-1.84.32.28.3,1.23.02,1.53,1.74-.57.29-2.49-.21-3.55-.52-1.79.1-4.03-1.67-5.41-1.2-1.19-4.31-2.16-5.11-.25-.72-.37-2.36,1.35-2.73,2.08-.57.97-.47,2-1,2.6-.87.78-2.21,1.47-1.07,2.85-.05-.44.27-1.36.75-1.58-.53.69-.23,2.67.9,2.49.01.1.77.38.8.32-.28-.34-.37-1.49.2-1.65-.21.48.3,1.6.82,1.81.49.18.59.2.92.22v.6s.02-1.51.02-1.51c0,0-.51-.73-.7-1.06Z"/>
          <path class="cls-15" d="m91.95,86.46c.53,1.98,4.86.87,4.63-1.07l-.7.1.02-1.2c.1-.02,1.2-2,1.09-1.87.64,0,1.13-.75.95-1.37-.15-.26-.34-.46-.51-.32,0,.04-.43.7-.6.62.41-1.65.08.05-1.16-1.71-.86.13-1.43-1.34-1.32-1.96-.88-.12-1.05,1.78-2.5,1.68-.18.17-.14,1.33-.13,1.45-.26.03-.53-.83-.48-.93-1.15-.05-.69,1.62.07,1.83-.02.95.48,1.98,1.02,2.63l-.03,1.51-.37.15c-.02.09-.05.25.01.47Z"/>
          <path class="cls-15" d="m25.72,102.03c-.02.17.46,1.14.55,1.28.1.13.43.36.43.36l.17-.02s.18.19.28.19c.09,0,.22-.07.22-.07,0,0,.05.02.12.03.09.02.23.04.31,0,.12-.05.57-.45.7-.57.02-.02.04-.04.04-.04,0,0-.61-.32-.69-.41-.05-.06-.09-.21-.11-.32-.02-.08-.02-.14-.02-.14,0,0,.02-.02.04-.05.09-.09.28-.28.43-.41.2-.17.48-.42.48-.42,0,0,.16-.07.31-.07.06,0,.12.01.17.04.02.01.05.03.07.05.03.02.07.05.11.07.11.07.24.16.3.21,0-.11.04-.37-.03-.51-.09-.19-.25-.53-.25-.53v-.21s-1.13-.12-1.13-.12c-.44.05-.74.18-.74.18l-1.15.75s-.02.02-.06.05c-.15.14-.55.54-.57.68Z"/>
          <path class="cls-15" d="m85.32,93.83c-.12-.02-.58-.09-.62-.1-.06-.01-.51-.47-.63-.57-.13-.11-.36-.34-.42-.42-.07-.09-.15-.43-.38-.42-.23,0-.51.08-.51.08,0,0-.25-.61-.58-1.28-.33-.67-.48-1.19-.49-1.22,0-.03-.15-.74-.15-.74,0,0-.35.17-.69.39-.05.03-.1.07-.16.11-.37.27-.75.61-.75.61v.83c0,.53-.07.83.04,1.15.11.32.16.44.41.91.25.47.29.83.35,1.05.06.22.07.61.12.64.05.03-.44.4-.47.43-.02.03-.15.28-.14.35.01.08.14.28.14.28,0,0-.05.15.06.23.11.08.41.18.41.18,0,0,.03.21.15.24.12.02.6-.04.77-.17.16-.13.52-.47.52-.47,0,0,.26-.12.28-.14.02-.02.1-.23.1-.23v-.15s.16.21.37.29c.21.09.52.17.66.2.14.02.23.05.41.01.18-.04.08-.16.33-.06.25.1.91.4.91.4,0,0,0-1.58-.04-1.75-.02-.07-.01-.21,0-.33,0-.1,0-.21.01-.32Z"/>
          <path class="cls-15" d="m51.99,90.12c-.2-.15-.61-.44-.85-.4.04.55-.94,2.34-1.26,2.72h-.41c-.2.09-.86.65-1.01.81-.04.02-.25,2.11-.21,2.19.11.17,1.39.08,1.44.07,0,.25.42.31.55.25.16.16.71.81,1,.95.41.17.7,0,.59-.38.32-.01.52.09.43-.4.23-.06.26-.09.25-.38.02-.15-.06-.1-.13-.25-.16-.28-.21-.27-.42-.37-.15-1.12.51-1.61.86-2.47-.02-.41,0-1.37,0-1.67,0,0-.47-.3-.84-.69Z"/>
          <path class="cls-3" d="m46.4,93.31c-.48.08-.63.06-.63.06.13-.47-.13-.38-.4-.3-.69-1.63-.41-5.75-2.19-6.7-.7-.24-1.41-.09-1.9-.55v.14c-.79,1.15-3.16,1.12-4.11,0-.36-.29-.15-.65-.15-.65,0,0,.09-.03.2-.08-3.3-.7-3.81-.86-5.48,2.95-1.23,2.98-1.85,4.06-2.85,6.53-.37,1.24-1.42,4.71-1.71,5.79l.9-.16c.29.03,1.25.13,1.53.16.17-.2.83-1.45.92-1.64-.08.3-.25,1.49.41,1.56,2.49.39,6.34.82,8.99.56,4.8-.65.98-3.03,2.41-6.74.1.4.43,1.93.92,2.26.83.62,4.61-.62,5.07-.64-.21-.07.08-2.49.13-2.62,0,0-1.58-.02-2.06.06Z"/>
          <path class="cls-8" d="m91.49,100.51c.47-.07,1.54-.04,2.03,0,1.42.2,7.06-1.23,7.85-1.3.2-.21.16-.97.11-1.36.44.96,1.11.58,1.83.17.3-.12,1.77-.68,1.77-.68.63-.38.24-1.71-.45-1.85.52-1.62-.09-1.91-1.16-3.08-1.14-1.17-2.08-4.1-2.99-5.44-.44-.49-1.31-1.41-1.38-1.48-.13.21-1.08.22-1.06.14-.14.04-.59.22-.34-.22-.18-.11-.5-.15-.7-.19l-.34.1c.18,2.21-5.03,3.27-4.7.59-.29.16-.77.26-1.48.54-.47.19-1.08.22-1.37.91-.62,1.8-.92,4.16-1.21,5.88l-.24.26c-.27-.03-.72.39-.8.58-.11-.04-1.26-.68-1.45-.52-.26.49.09,2.53.16,2.99.34.43.67.32,1.29.47,1.1.34,2.92.21,3.29-.98.12,1.26-.5,4.12,1.35,4.46Z"/>
          <path class="cls-15" d="m37.16,85.97c.95,1.12,3.33,1.15,4.12,0,0-.42-.02-2.41-.06-2.8.25-.31.3-1.9.28-2.19.74-.26.67-2.12-.31-1.66,0,.22-.29.82-.45.86-.27-2.24-.62-.5-2.18-1.68.03.11.2.67.32.7,0,0-.03,0-.08,0v.03c-.09.2-1.25-.34-1.29-.45-.13.71-.58,1.31-1.34,1.48-.12.73-.58,1.08-1.35,1.28,0,.55.6,1.23,1.22,1.12,0,0,.15.13.31.5.2.44.81.99,1.04,1.19.02.41.31.79-.36.96,0,0-.2.35.15.65Z"/>
          <path class="cls-7" d="m35.92,80.9c.03-.12.22-.62.23-.64.59-.03,1.26-1.01,1.34-1.48.15.22,1.05.47,1.37.43-.28-.23-.34-.47-.32-.79,1.38,1.4,1.96-.6,2.19,1.77.09-.05.51-.71.47-.95h.44c.31-1.49-.09-3.88-2.06-4.06.09-.03.37-.43.32-.55-.22-.03-.88.38-1.23.25-.99-.27-2.27-.42-2.8.62-2.46.53-1.34,2.44-2.92,3.25.01.07.73.06.78.04-.17.73.56,2.12,1.1,2.47l-.14.28c.35,0,1.1-.35,1.23-.64Z"/>
          <path class="cls-5" d="m72.13,95.46c-.06,0-.11,0-.16,0-.68.03-1.02,0-1.02,0,0,0,0-.1,0-.26,0-.52.02-2.23.03-2.83,0-.12,0-.29,0-.5-.8.12-1.94.24-3.18.29-.7.06-1.82.11-2.98.03-.5-.03-1-.12-1.45-.22-.61-.1-1.16-.26-1.6-.46l-.04.73.04,3.74s-1.53.06-1.89.04c-.36-.02-1.25-.05-1.54-.11-.14-.03-.62-.11-1.08-.18l.37,2.18s1.39,6.87,1.53,7.61c.14.74.72,3.9.72,3.9,0,0-.15.62-.23,1.24-.08.62,0,1.38.02,1.94.02.56.27,2.61.34,3.36.08.76.15,1.4.23,2.11.08.7.16,1.18.29,1.96.12.77.32,1.93.47,3.01.15,1.08.28,2.3.28,2.3l.56.23s.22.07.54.13c.3.06.69.1,1.03.06.04,0,.09-.01.13-.02.72-.15,2.01-.45,2.01-.45,0,0,.22-2.65.27-3.58.05-.93.11-4.43.11-4.43,0,0,.09-3.05.15-3.87.05-.82,0-2.28-.04-2.87-.05-.59-.34-2.16-.34-2.16,0,0,.13-1.07.34-1.96.2-.81.52-2.65.54-2.95.04.26.4,1.64.55,2.49.16.95.36,2.6.37,2.62,0,.03-.44,1.97-.46,3.18-.02,1.21.09,2.6.13,3.59.04.99.09,4.59.21,5.99.12,1.39.21,3.95.21,3.95,0,0,.12.04.42.12.13.03.3.08.51.13.32.08.78.15,1.25.18.45.03.9.02,1.23-.05.05,0,.11-.02.15-.04.15-.05.26-.08.35-.12.29-.11.31-.16.31-.16l.29-2.06s.38-2.57.52-3.34c.14-.77.48-3.66.61-4.97.13-1.31.25-2.51.26-3.23.01-.71-.18-2.61-.18-2.61l.34-1.85s.55-2.95.73-3.84c.17-.89.66-3.13.93-4.49.27-1.36.36-2,.44-2.5.08-.5.19-1.37.19-1.37l-.58.07c-.15.02-.3.05-.48.07-1,.13-2.04.18-2.75.2Z"/>
          <path class="cls-8" d="m62.05,78.55c-.01.15-.04.71-.08,1.42-.04.99-.09,1.98-.15,2.96-.03.62-.05,1.08-.06,1.18,0,.36-.03,2.87-.01,3.42.01.56.04,3.98.04,3.98.44.21.98.36,1.6.46,1.32.23,2.94.25,4.42.19,1.23-.06,2.38-.17,3.18-.29,0-1.03,0-2.89,0-2.89v-2.69s0-.68,0-1.37c-.09-3.83-.32-7.81-.76-11.59-.04-.29-.07-.55-.1-.74-.07-.53-.31-2.14-.34-2.35-.02-.13-.24-1.54-.42-2.64,0,0,0,0,0,0,0,.05-.01.1-.06.14-.31.23-.75.67-1.11.81-.34.13-.78.42-1.14.45,0,0-.01,0-.02,0-.2.04-.38.05-.55,0-.34-.06-.79-.22-1.25-.44-.44-.17-.85-.37-1.11-.56-.27-.19-.38-.27-.52-.4-.18-.14-.33-.27-.43-.38-.09.61-.19,1.46-.29,2.41-.09.97-.3,3.06-.37,3.78-.09.85-.45,4.63-.49,5.12Z"/>
          <path class="cls-9" d="m80.11,90.1c.33-.31,1.23-.93,1.61-1.02-.47-3.87-3.26-7.53-3.74-11.51-.05-1.31-1.87-7.25-2.42-8.46-1.09-.95-4.2-1.77-5.45-2.25.04-.16-.82-.61-.93-.54,1.83,9.74,1.98,19.16,1.78,29.04,1.13.28,4.17-.02,5.38-.39.02-.84-.37-9.26-1.11-10.32.44.56,1.25,1.54,2,2.5.46.97,1.83,2.82,2.59,3.21.04-.04.19-.17.29-.26Z"/>
          <path class="cls-9" d="m59.9,96.04c.36.01,1.89-.04,1.89-.04,0-4.06-.13-8.84.02-13.06.18-5.14.91-11.08,1.38-16.27,0,0,.13-.44-.54-.04-.82,1.31-2.5,1.63-3.65,2.06-1.7.58-1.73.49-2.32,2.15-1.13,3.54-2.1,7.64-2.95,11-.87,2.1-2.35,5.41-2.7,7.72.59.23,1.44.91,1.88,1.31.76-.13,1.95-2.25,2.47-3.01.74-1.03,1.47-1.91,2.13-2.41-1.03,2.34-.92,7.75-1.18,10.14.96.14,2.55.46,3.58.44Z"/>
          <path class="cls-2" d="m63.98,53.48c.75-.47,1.48-.01,2.25-.08.45-.42,2.08-.02,2.44.2l.05-.2c-.16-.27-.3-1.21-.73-1.55-.53-.69-2.33-1.21-2.97-.66-1.07-.31-3.28,1.87-2.08,2.78.33-.07.77-.32,1.02-.49Z"/>
          <path class="cls-2" d="m61.62,60.51c.07-.52.56-.69.99-.75.18-.38.55-.64.54-1.11,0,0,0-.02,0-.02,0,0,.01-.01.02-.02.84-1.04.36-3.25,1.88-3.6.32-.22.46.32.72.39,1.48-.68,1.77.38,2.55,1.33.28.35.37.84.74,1.09.13.09.31.15.36.3-.11.65.83.99.63,1.63,0,0,0,0,.01.01.22.05.43.17.58.34.21-1.26.4-2.54.18-3.8-.54-1.69-2.09-3.14-3.93-3.02-.65.18-1.23.09-1.88,0-1.49.15-2.86,1.23-3.63,2.46-.81,1.56.03,5,.17,5.02.02,0,.23.62.23.6-.03-.29-.2-.55-.13-.85Z"/>
          <path class="cls-15" d="m65.25,68.58c.7.27,1.45.46,1.81.44.82-.21,1.82-.73,2.31-1.41-.13-.6-.3-1.77-.67-2.69-.06-.17.11-.53.1-.71.57-.61.73-1.52.82-2.35,1.03-.3,1.67-1.64.42-2.11.17-.67-.73-.98-.64-1.62-1.24-.79-1.73-3.72-3.68-2.71-.15-.16-.28-.37-.49-.46-.4.11-.82.38-1.05.73-.41.83-.38,1.85-.87,2.66-.15.23-.19.49-.22.75-.1.94-1.34.52-1.46,1.41-.18.96.91,1.26,1.28,1.93.19.64.71,1.21.84,1.83-.02.03-.26,2.3-.59,2.85.66.75,1.11,1.08,2.1,1.46Z"/>
          <path class="cls-2" d="m65.14,62.8s.64.12,1.39.12c.75,0,1.34-.17,1.34-.17,0,0-.26,1.33-1.25,1.39-1.19.08-1.48-1.34-1.48-1.34Z"/>
          <path class="cls-2" d="m95.09,82.78s-.52.05-1.13-.01c-.61-.07-1.07-.26-1.07-.26,0,0,0,1.09.89,1.28.94.2,1.3-1.01,1.3-1.01Z"/>
          <path class="cls-2" d="m40.03,82.07s-.48.26-1.08.46c-.61.19-1.12.2-1.12.2,0,0,.46,1.04,1.39.85.98-.2.82-1.51.82-1.51Z"/>
          <g>
            <path class="cls-1" d="m68.16,60.67c.21,0,.36-.22.38-.51,0-.29-.16-.52-.37-.53-.21,0-.38.22-.38.51,0,.29.16.52.37.53Z"/>
            <path class="cls-1" d="m64.95,60.69c.21-.01.36-.24.37-.53,0-.29-.16-.52-.38-.53-.2,0-.36.24-.37.53,0,.29.16.52.38.53Z"/>
            <path class="cls-1" d="m92.87,80.9c.19.02.36-.18.39-.44.03-.26-.1-.49-.29-.51-.19-.02-.36.18-.39.44-.03.26.1.49.29.51Z"/>
            <path class="cls-1" d="m95.47,81.26c.18.02.35-.17.38-.43.03-.26-.1-.48-.28-.5-.18-.02-.35.17-.38.43-.03.26.1.48.28.5Z"/>
            <path class="cls-1" d="m92.8,82.37s-.07.08-.07.13c0,.42.21,1.27,1.02,1.44.08.02.16.03.24.03.71,0,1.12-.73,1.25-1.15.02-.05,0-.11-.03-.15-.03-.04-.09-.07-.14-.06,0,0-.51.05-1.1-.02-.58-.06-1.02-.24-1.02-.24-.05-.02-.11-.01-.15.01Zm1.14.55c.36.04.69.04.9.03-.14.31-.47.8-1.02.68-.53-.11-.69-.6-.74-.89.2.06.51.14.86.18Z"/>
            <path class="cls-1" d="m94.12,82.14s.08-.02.11-.05c.06-.06.06-.17,0-.23-.1-.1-.24-.3-.21-.39,0-.02.05-.07.08-.1.17-.18.45-.49.2-1.3-.03-.08-.12-.14-.2-.11-.09.02-.13.11-.11.2.19.64.01.84-.13.99-.06.07-.13.14-.16.24-.08.3.24.63.3.7.03.03.07.05.11.05Z"/>
            <path class="cls-1" d="m36.8,80.46c-.18.06-.25.31-.17.56.08.25.3.4.47.33.18-.06.25-.31.17-.55-.08-.25-.3-.4-.47-.34Z"/>
            <path class="cls-1" d="m39.64,80.56c.17-.06.25-.3.16-.54-.08-.24-.29-.39-.46-.33-.17.06-.24.3-.16.54.08.24.29.39.46.33Z"/>
            <path class="cls-1" d="m39.24,83.74c.89-.18,1.01-1.18.95-1.69,0-.05-.04-.1-.09-.12-.05-.03-.1-.02-.15,0,0,0-.47.26-1.05.44-.58.18-1.07.2-1.08.2-.05,0-.1.03-.13.08-.03.04-.03.1-.01.15.16.36.62.97,1.32.97.08,0,.16,0,.25-.03Zm-1.16-.87c.22-.03.54-.08.91-.19.37-.11.68-.25.89-.35,0,.35-.11.97-.7,1.09-.56.11-.92-.29-1.09-.55Z"/>
            <path class="cls-1" d="m38.12,81.17c-.03.09-.06.19-.04.29.06.31.48.47.56.5.02,0,.04.01.06.01.07,0,.13-.04.15-.11.03-.08-.01-.17-.1-.21-.14-.05-.34-.17-.36-.26,0-.02.02-.08.03-.13.07-.24.2-.63-.36-1.27-.06-.07-.16-.07-.23-.01-.07.06-.07.16-.01.23.44.5.36.75.3.95Z"/>
            <path class="cls-1" d="m24.17,101.98c-.06.07-.05.18.03.26.08.08.2.08.26.01.06-.07.05-.18-.03-.26-.08-.07-.2-.08-.26-.01Z"/>
            <path class="cls-1" d="m23.34,103.02c-.1-.05-.21-.03-.26.05-.04.08,0,.19.1.24.1.05.21.03.26-.05.04-.08,0-.19-.1-.24Z"/>
            <path class="cls-1" d="m66.86,59.56c-.08-.04-.18,0-.22.08-.48,1-.15,1.39.05,1.62.03.04.09.1.09.12.01.11-.17.31-.3.42-.07.05-.08.16-.03.23.03.04.08.06.13.06.03,0,.07-.01.1-.03.08-.06.46-.38.43-.71-.01-.12-.09-.21-.16-.3-.17-.2-.39-.45,0-1.26.04-.08,0-.18-.07-.22Z"/>
            <path class="cls-1" d="m67.45,58.63c-.08.04-.1.14-.06.22.05.08.14.1.22.06.57-.33,1.05-.09,1.28.07.03.02.06.03.09.03.05,0,.1-.02.13-.07.05-.07.03-.17-.04-.22-.24-.17-.88-.52-1.63-.09Z"/>
            <path class="cls-1" d="m62.41,60.54c-.08-.04-.17-.01-.22.07-.04.08-.01.17.06.22,0,0,.16.09.25.33.02.06.09.1.15.1.02,0,.04,0,.06-.01.08-.03.12-.12.09-.21-.14-.35-.38-.48-.4-.5Z"/>
            <path class="cls-1" d="m63.77,59.07s.08.06.12.06c.04,0,.08-.01.11-.04.25-.22.82-.45,1.39-.19.08.04.18,0,.21-.08.04-.08,0-.18-.08-.21-.66-.3-1.36-.09-1.73.24-.07.06-.07.16-.01.23Z"/>
            <path class="cls-1" d="m62.98,55.81c-.42,1.1-.79,1.69-1.43,2.23-.07.06-.07.16-.02.23.03.04.08.06.12.06.04,0,.08-.01.11-.04.67-.58,1.08-1.22,1.52-2.36.03-.08,0-.18-.09-.21-.08-.03-.18.01-.21.09Z"/>
            <path class="cls-1" d="m64.37,63.81h.01c.08,0,.15-.06.16-.15.02-.28.21-.53.4-.79.01-.01.02-.03.03-.04.11.52.57,1.48,1.55,1.48.03,0,.07,0,.1,0,1.1-.07,1.38-1.47,1.39-1.52.01-.06,0-.11-.05-.15-.04-.04-.1-.05-.15-.04,0,0-.58.16-1.3.16-.72,0-1.35-.11-1.36-.12-.02,0-.03,0-.05,0,.13-.19.24-.39.29-.63.02-.09-.04-.17-.13-.19-.09-.02-.17.04-.19.13-.05.26-.22.49-.4.73-.21.29-.43.58-.46.96,0,.09.06.17.15.17Zm2.12-.73h.03c.46,0,.86-.06,1.11-.11-.12.36-.42.97-1.03,1.01-.77.05-1.12-.62-1.25-.98.25.04.67.08,1.13.08Z"/>
            <path class="cls-1" d="m68.54,63.39c.01.08.08.13.16.13,0,0,.02,0,.03,0,.09-.01.15-.1.13-.19-.07-.37-.31-.64-.55-.91-.2-.22-.4-.43-.47-.68-.02-.09-.11-.14-.2-.11-.09.02-.14.11-.11.2.09.33.32.58.54.82.22.24.43.47.48.75Z"/>
            <path class="cls-1" d="m69.2,59.64l-.35.06c-.09.02-.15.1-.13.19.01.08.08.14.16.14,0,0,.02,0,.03,0l.35-.06c.09-.01.15-.1.13-.19-.01-.09-.1-.15-.18-.13Z"/>
            <path class="cls-1" d="m69.18,60.4s.02,0,.03,0c.08,0,.14-.05.16-.13.02-.09-.04-.17-.13-.19-.13-.02-.26-.03-.38-.01-.09.01-.15.09-.14.18,0,.09.09.15.18.14.1-.01.19,0,.29.01Z"/>
            <path class="cls-1" d="m63.65,59.87c0,.09.06.17.15.17l.35.03h.01c.08,0,.15-.06.16-.15,0-.09-.06-.17-.15-.17l-.35-.03c-.09,0-.17.06-.17.15Z"/>
            <path class="cls-1" d="m64.21,60.16c-.13,0-.26.02-.39.06-.08.03-.13.12-.1.2.02.07.08.11.15.11.02,0,.03,0,.05,0,.09-.03.18-.04.26-.04h.02c.09,0,.16-.07.16-.16,0-.09-.07-.16-.16-.16Z"/>
            <path class="cls-1" d="m64.32,57.68c.02.06.09.11.15.11.02,0,.04,0,.06-.01.3-.11.64-.15.96-.11.06,0,.12.02.18.02.19.03.38.06.58.02.14-.03.27-.08.4-.14.04-.01.07-.03.11-.05.29-.12.62-.18.93-.17.09,0,.16-.07.16-.16,0-.09-.07-.16-.16-.17-.36,0-.73.06-1.06.2-.04.01-.08.03-.12.05-.11.05-.22.09-.32.11-.15.03-.31,0-.48-.02-.07-.01-.13-.02-.2-.03-.37-.04-.75,0-1.1.13-.08.03-.13.12-.1.21Z"/>
            <path class="cls-1" d="m65.21,57.09c.12-.04.26-.02.41,0,.09,0,.18.02.27.02.09,0,.19-.01.28-.04.08-.03.14-.06.21-.1.09-.05.16-.09.23-.09.09,0,.16-.07.17-.16,0-.09-.07-.16-.16-.16-.15,0-.28.07-.39.13-.06.03-.11.06-.16.07-.12.04-.26.03-.41,0-.18-.02-.36-.04-.54.02-.08.03-.13.12-.1.2.03.09.12.13.2.1Z"/>
            <path class="cls-1" d="m63.52,127.79c-.52.16-1.1.1-1.58-.16-.08-.04-.18-.01-.22.07-.04.08-.01.17.07.22.35.19.74.28,1.13.28.23,0,.47-.03.69-.1.09-.03.13-.12.11-.2-.03-.09-.12-.13-.2-.11Z"/>
            <path class="cls-1" d="m69.66,127.79c-.08-.03-.17.02-.2.11-.03.09.02.18.11.2.22.07.46.1.69.1.39,0,.78-.1,1.13-.28.08-.04.11-.14.07-.22-.04-.08-.14-.11-.22-.07-.48.26-1.06.31-1.58.16Z"/>
            <path class="cls-1" d="m103.6,95.76c-.11.05-.22.1-.35.14l-.09.03c-.55.19-1.06.46-1.52.81-.07.05-.08.15-.03.22.03.04.08.06.13.06.03,0,.07-.01.1-.03.43-.33.91-.58,1.42-.76l.09-.03c.13-.04.27-.09.4-.16.08-.04.11-.14.07-.22-.04-.08-.14-.11-.22-.07Z"/>
            <path class="cls-1" d="m86.99,94.22c-.08.04-.12.13-.08.22.24.52.38,1.06.43,1.63,0,.09.08.15.16.15,0,0,0,0,.01,0,.09,0,.15-.09.15-.17-.05-.6-.2-1.19-.46-1.74-.04-.08-.13-.12-.21-.08Z"/>
            <path class="cls-1" d="m95.44,105.96c.02.07.09.11.15.11.02,0,.04,0,.05,0,.08-.03.13-.12.1-.21-.2-.55-.33-1.02-.43-1.46-.14-.66-.16-2.25-.16-2.26,0-.09-.07-.16-.16-.16-.09,0-.16.07-.16.16,0,.07.02,1.64.17,2.33.1.46.24.93.44,1.5Z"/>
            <path class="cls-1" d="m26.99,109.62s.08.06.12.06c.04,0,.07-.01.11-.04.07-.06.07-.16.02-.23-.38-.44-.72-.92-.99-1.44-.54-1.01-.83-2.1-.83-3.16,0-.09-.07-.16-.16-.16s-.16.07-.16.16c0,1.11.3,2.25.87,3.31.29.54.63,1.04,1.03,1.5Z"/>
            <path class="cls-1" d="m24.23,102.98c.05-.09.07-.18.03-.22-.06-.07-.23-.03-.38.1-.15.13-.22.29-.15.36.05.05.16.04.27-.02l.15.13s.07.04.11.04c.04,0,.09-.02.12-.05.06-.07.06-.17,0-.23l-.13-.12Z"/>
            <path class="cls-1" d="m45.18,93.41c-.36.4-.61.88-.71,1.41-.02.09.04.17.13.19.01,0,.02,0,.03,0,.08,0,.14-.05.16-.13.09-.47.31-.9.64-1.26.06-.07.06-.17-.01-.23-.07-.06-.17-.05-.23.01Z"/>
            <path class="cls-1" d="m38.56,128.57c-.37.04-.74.02-1.1-.07-.09-.02-.17.03-.19.12-.02.09.03.17.12.19.27.06.54.09.81.09.13,0,.26,0,.39-.02.09-.01.15-.09.14-.18,0-.09-.09-.15-.18-.14Z"/>
            <path class="cls-1" d="m32,94.86l-1.66-.41c-.09-.02-.17.03-.2.12-.02.09.03.17.12.19l1.66.41s.03,0,.04,0c.07,0,.14-.05.16-.12.02-.09-.03-.17-.12-.2Z"/>
            <path class="cls-1" d="m54.27,81.8c-.09,0-.16.09-.15.17,0,.09.08.16.17.15.74-.06,1.51.16,2.11.6.03.02.06.03.1.03.05,0,.1-.02.13-.06.05-.07.04-.17-.03-.23-.66-.49-1.51-.73-2.33-.67Z"/>
            <path class="cls-1" d="m77.6,81.11c-.81.38-1.57.87-2.26,1.44-.07.06-.08.16-.02.23.03.04.08.06.13.06.04,0,.07-.01.1-.04.67-.55,1.41-1.02,2.19-1.39.08-.04.12-.13.08-.21-.04-.08-.13-.12-.22-.08Z"/>
            <path class="cls-1" d="m108.15,103.48c-.21-.39-.41-.64-.63-.9-.11-.13-.22-.27-.34-.42-.26-.36-1.18-2.27-1.79-3.54-.2-.42-.37-.77-.48-.99.13-.04.31-.15.47-.43.26-.47.26-.83-.01-1.19-.18-.24-.45-.39-.62-.47.08-.25.23-.74.23-1.04s-.08-.43-.18-.6c-.04-.07-.1-.16-.15-.28-.2-.44-.67-.94-1.04-1.28-.3-.28-.5-.6-.73-.97-.06-.1-.13-.21-.2-.32-.32-.49-.59-1.09-1.02-2.11-.4-.95-.75-1.68-1.17-2.19-.4-.49-1.23-1.21-1.26-1.24,0,0-.02,0-.02-.01.27-.3.47-.72.56-1.15.1.55-.24.95-.26.97-.05.05-.05.14-.01.2.03.04.08.07.13.07.02,0,.04,0,.06-.01.46-.17,1.26-.77.98-1.79-.15-.55-.37-.88-.57-1.19-.18-.27-.34-.53-.46-.93,0,0-.02-.08-.02-.08-.18-.79-.22-.96-.24-2.06-.05-2.01-1.18-3.09-2.03-3.73-1.31-.99-3.45-1.35-4.63-.2-.06.06-.07.17,0,.23.06.07.16.07.23,0,1.06-1.03,3.01-.68,4.22.22.79.6,1.85,1.61,1.9,3.48.02.98.06,1.26.19,1.83.12.69.36,1.06.59,1.41.19.29.39.59.53,1.1.14.52-.07.87-.31,1.1.08-.28.1-.64-.07-1.04-.15-.34-.35-.55-.53-.73-.26-.27-.47-.48-.47-1.08,0-.09-.07-.16-.16-.16-.09,0-.16.07-.16.16,0,.73.28,1.02.56,1.31.09.09.18.18.26.29,0,0,0,0,0,0,.09.61-.24,1.42-.72,1.76-.18.13-.36.17-.54.13.21-.26.32-.64.31-1.12,0-.09-.07-.16-.16-.16-.09,0-.16.08-.16.16,0,.46-.1.79-.31.99-.05.05-.11.09-.17.12.15-.29.24-.77-.05-1.51,0-.01-.01-.02-.02-.04.01-.3-.02-.59-.08-.83-.02-.09-.11-.14-.2-.12-.09.02-.14.11-.12.19.14.56.08,1.38-.28,1.89-.08,0-.19.02-.35.04-.03-.01-.05-.02-.08-.01-.03,0-.05.02-.08.03-.07,0-.15.02-.23.03l-.22.03c-.02-.38,0-.7.03-1.03.13-.12.25-.25.37-.39.22-.27.48-.82.68-1.32.4-.02.83-.39.97-.84.11-.36.1-.61,0-.81-.08-.15-.23-.26-.43-.32.02-.08.03-.16.04-.25,0-.09-.06-.17-.15-.17-.09,0-.17.06-.17.15-.02.31-.13.52-.25.67.07-.33.11-.76-.05-1.1-.04-.08-.13-.12-.22-.08-.08.04-.12.13-.08.21.05.11.07.23.08.36-.16-.02-.55-.13-.9-.57.19-.01.36-.05.5-.09.08-.03.12-.1.11-.18-.01-.08-.08-.14-.16-.13,0,0-.72,0-.86-1.08-.01-.09-.09-.15-.18-.14-.09.01-.15.09-.14.18.08.6.32.94.57,1.12-.35,0-.78-.13-1.01-.6-.15-.3-.16-.54-.18-.79-.02-.32-.04-.65-.37-1-.06-.06-.16-.06-.23,0-.06.06-.07.16,0,.23.07.07.12.14.16.21-.38.1-.61.41-.84.74-.21.31-.43.62-.8.81-.23.12-.49.12-.7.09.34-.13.75-.4,1.08-.94.05-.08.02-.18-.05-.22-.08-.05-.18-.02-.22.05-.55.91-1.37.91-1.42.91-.08,0-.14.05-.16.12-.02.07.01.15.08.18.02.01.27.14.6.2-.14.28-.17.62-.17.9-.09-.17-.15-.4-.11-.71.01-.09-.05-.17-.14-.18-.09-.01-.17.05-.18.14,0,.03,0,.05,0,.08-.46.08-.71.43-.67.93.04.49.31.95.74,1.22,0,0,0,0,0,0,.05.47.13.92.19,1.13.13.43.39.86.78,1.27,0,.12,0,.42,0,.77-.53,0-.96-.22-1.22-.65-.33-.55-.31-1.31.05-1.89.05-.08.02-.17-.05-.22-.08-.05-.17-.02-.22.05-.14.23-.24.48-.28.74-.03.01-.05.03-.07.05-.32.4-.46.8-.42,1.18.02.14.06.27.11.37-.1-.05-.19-.12-.26-.23-.14-.21-.15-.52-.02-.9.03-.08-.02-.17-.1-.2-.08-.03-.18.02-.2.1-.13.38-.14.7-.05.96-.2,0-.37-.1-.51-.29-.36-.47-.43-1.34-.15-1.89,0,0,0,0,0,0,.11-.08.23-.14.34-.2.35-.19.71-.38.93-1.08.03-.09-.02-.18-.11-.2-.09-.02-.18.02-.2.11-.18.57-.44.71-.77.89-.23.12-.48.26-.73.54-.29.33-.38.68-.39.97-.16-.28-.25-.68.04-1.14.25-.39.53-.59.8-.79.39-.28.76-.55.91-1.31v-.04c.08-.4.26-1.35.89-2.18.85-1.12,1.65-1.62,2.38-1.47.09.02.17-.04.19-.13.02-.09-.04-.17-.13-.19-.87-.17-1.77.37-2.7,1.59-.68.9-.86,1.9-.94,2.32v.04c-.13.63-.42.84-.78,1.1-.28.2-.6.43-.89.87-.57.89,0,1.7.39,2,.03.02.06.04.1.04s.07-.01.1-.04c.06-.05.08-.13.05-.19,0,0-.22-.49.05-1-.07.56.06,1.18.37,1.58.21.27.48.42.78.42.05,0,.11,0,.16-.01.32.37.85.41.88.41h0c.07,0,.13-.04.15-.11.02-.06,0-.14-.05-.18,0,0-.27-.21-.32-.58-.02-.19.02-.39.13-.61.02.32.11.63.27.9.31.52.85.81,1.48.81h.03c0,.12,0,.25.01.37-.18.05-1.82.56-2.16.74-.07.04-.14.07-.2.11-.46.24-.82.42-.97,1.02-.12.46-1.02,4.99-1.02,5.22,0,.02,0,.11-.08.41-.02.07-.07.12-.13.14l-.3.09c-.22.07-.41.22-.53.42-.43-.22-1.19-.57-1.48-.42-.08.04-.13.12-.15.21-.15,0-.3-.05-.43-.13-.03-.02-.06-.03-.08-.03-.14-.17-.31-.32-.48-.46-.14-.12-.28-.23-.35-.33-.19-.28-.35-.45-.46-.51-.17-.09-.36-.05-.53,0,0,0,0,0,0,0-.14-.28-.5-.99-.7-1.47-.22-.51-.36-1.15-.42-1.48.03-.01.05-.02.08-.03.05-.02.09-.07.1-.12.15-.98-1.35-4.63-2.67-7.7-.14-.31-.24-.56-.26-.61-.03-.08-.19-.74-.39-1.58-1.19-4.89-2.36-9.5-2.79-10.12-.44-.62-1.49-.95-2.52-1.26-.53-.16-1.07-.33-1.49-.53-.5-.24-1.39-.64-1.56-.72-.38-.43-.71-.48-.9-.46-.15-.43-.4-1.36-.33-1.81,0,0,0,0,0-.01.24-.31.43-.64.57-.98.14-.35.23-.77.32-1.37.44-.15.96-.7,1.01-1.24.02-.25,0-.45-.06-.6.02-.02.04-.05.04-.08.43-2.19.34-3.71-.27-4.66-.43-.67-.98-1.38-1.74-1.83-.02-1.08-.8-2.36-1.94-2.56-.09-.01-.17-.02-.26-.02-.5-.29-1.04-.29-1.56,0-.01,0-.03,0-.04,0-.94.01-1.99.72-2.4,1.61-.25.55-.21,1.07.12,1.48-.45.35-.91.8-1.33,1.4-.88,1.4-.49,4.67.07,5.62.01.02.03.04.05.05.02.08.05.15.09.21.34.6.67.7,1.02.8.02,0,.03,0,.05,0,.07,0,.13-.05.15-.12.03-.09-.02-.18-.11-.2-.32-.1-.56-.17-.83-.65-.18-.32-.16-.79.03-1.03.09-.11.2-.17.35-.18h.03s.02,0,.02,0c.07,0,.14,0,.22.03.09.02.17-.03.2-.12,0-.02,0-.05,0-.07.04-.03.08-.06.12-.1.16-.15.41-.49.4-1.08.03-.05.07-.09.1-.14.17-.24.3-.47.39-.71.12-.31.2-.65.28-.98.08-.33.15-.63.26-.92.21-.53.53-.73.77-.74.19,0,.35.11.44.32.04.08.13.12.21.08.08-.04.12-.13.08-.21-.15-.33-.43-.52-.75-.5-.43.01-.83.37-1.06.94-.12.3-.2.64-.27.96-.07.32-.15.64-.27.93-.08.21-.2.42-.35.64-.3.43-.66.78-1.07,1.04-.07.05-.1.15-.05.22.03.05.08.07.14.07.03,0,.06,0,.09-.02.24-.16.47-.34.68-.55-.06.21-.17.34-.24.41-.14.13-.28.17-.36.16-.01,0-.02,0-.03,0-.24.02-.44.12-.58.31-.07.1-.13.21-.16.33-.36-1.26-.49-3.58.17-4.64,1.07-1.52,2.55-2.22,3.47-2.24.28,0,.43.06.48.12.05.07.15.08.23.03.07-.05.08-.15.03-.22-.13-.17-.39-.25-.74-.25-.12,0-.27.02-.43.05.37-.86,1.06-1.98,2.1-1.8.91.16,1.57,1.18,1.66,2.07-.64-.29-1.42-.39-2.38-.18-.09.02-.14.1-.12.19.02.09.1.14.19.12,2.2-.47,3.36.84,4.12,2.04.54.83.62,2.26.26,4.23-.12-.09-.26-.13-.37-.14,0-.04.01-.07.02-.11.06.02.12.03.19.04.09,0,.16-.07.17-.16,0-.09-.07-.16-.15-.17-.16,0-.31-.12-.48-.36-.14-.19-.26-.4-.35-.61.08.01.15.02.23.02.17,0,.34-.04.49-.12.05-.03.08-.08.09-.14,0-.06-.03-.11-.07-.14-.26-.17-.41-.43-.57-.7-.16-.28-.24-.59-.33-.91-.04-.14-.08-.29-.13-.44-.02-.05-.04-.12-.06-.2-.17-.58-.48-1.67-1.55-1.72-.09,0-.16.06-.17.15,0,.09.06.17.15.17.85.05,1.1.95,1.26,1.49.02.08.04.15.06.21.05.14.09.29.13.43.09.33.19.67.36.98.12.21.24.43.43.62-.27.03-.56-.1-.75-.26-.22-.19-.32-.36-.45-.58-.05-.08-.1-.17-.16-.27-.55-.85-.94-1.34-1.22-1.55-.22-.16-.43-.26-.63-.28-.28-.03-.55.06-.7.26-.06.07-.05.17.02.23.07.06.17.05.23-.02.08-.1.25-.16.41-.14.15.02.31.09.48.22.25.18.63.68,1.15,1.47.06.09.11.18.16.26.14.23.26.44.52.66.07.07.16.12.24.17.12.34.28.66.49.95.08.11.16.2.24.28-.04.26-.18,1.07-.27,1.76-.13,1.03-.23,1.63-.41,2.08-.36.87-1.14,1.72-2.07,2.27-.32.19-.63.28-1.13.08-.29-.11-1.28-.53-2.06-1.36-.09-.1-.41-.51-.85-1.88-.03-.09-.12-.13-.2-.1-.08.03-.13.12-.1.2.34,1.05.61,1.57.79,1.83-.01.09-.03.23-.05.46-.03.34-.12,1.16-.23,1.66-.32-.04-.81.03-.98.32-.25.44-.74.85-1.33,1.13-.42.2-.97.37-1.49.53-1.02.31-2.08.64-2.52,1.26-.63.9-3.31,11.42-3.38,12.02-.02.11-.3.8-.6,1.53-1.15,2.79-2.27,5.58-2.14,6.46,0,.05.04.1.09.12-.03.21-.11.48-.33,1.07-.19.5-.46.89-.64,1.15-.09.13-.15.21-.18.28-.13-.03-.28-.04-.42.03,0,0-.41.21-.54.37-.06.07-.13.14-.21.21-.08.07-.15.15-.21.22-.09,0-.2,0-.31,0-.56,0-1.39-.03-2.2.13-.01-.11-.06-.25-.17-.32-.11-.07-.23-.05-.32-.02-.05-.15-.14-.54-.27-1.55,0-.07-.02-.12-.02-.15-.14-.91-.35-1.89-.65-3.02l-.02-.08c-.23-.85-.46-1.72-1.55-1.96-.03,0-.07-.01-.14-.02-.3-.04-1-.15-1.39-.43.04-.93.04-2.47.04-2.66.06-.14.11-.29.15-.45.09-.34.09-.94.05-1.48.36-.19.58-.77.52-1.17-.02-.15-.08-.52-.33-.72,0-.01,0-.02,0-.03v-.03c.1-1.07.08-3.55-1.92-4.09.17-.22.19-.4.19-.43,0-.06-.02-.11-.07-.14-.05-.03-.11-.04-.16-.01,0,0-.59.27-1.19.24-.1,0-.24-.04-.39-.07-.63-.15-1.68-.4-2.46.63-.05.07-.04.17.03.23.03.02.06.03.1.03.05,0,.1-.02.13-.06.65-.86,1.51-.66,2.13-.51.17.04.32.07.45.08.36.02.71-.05.96-.12-.08.1-.21.2-.39.31-.08.04-.1.14-.06.22.05.08.14.1.22.06.1-.06.18-.11.25-.17,0,0,0,0,.01,0,1.92.37,1.95,2.72,1.86,3.75-.05,0-.1,0-.15,0,0-.28-.07-.59-.26-.9-.05-.08-.14-.1-.22-.05-.08.05-.1.14-.05.22.36.59.22,1.11.04,1.45-.03-.23-.11-.5-.27-.77.08-.03.12-.06.12-.06.06-.04.08-.1.07-.16-.01-.07-.06-.12-.12-.13,0,0-.8-.18-1.15-.85-.04-.08-.14-.11-.22-.07-.08.04-.11.14-.07.22.23.43.6.69.89.83-.15.02-.34.02-.57,0-.49-.06-.99-.49-1-.49-.04-.03-.1-.05-.15-.03-.05.01-.09.06-.11.1,0,.02-.07.26.16.53.05.06.1.12.13.17-.18-.01-.46-.08-.86-.34l-.03-.02c-.28-.18-1.13-.73-1.1-1.54,0-.09-.07-.16-.16-.17-.09,0-.16.07-.17.16-.03.79.57,1.34.98,1.64-.02.36-.14.66-.38.88-.21.2-.49.31-.74.38-.03,0-.06,0-.09.02.17-.22.3-.57.25-1.12,0-.09-.09-.16-.17-.15-.09,0-.15.09-.15.18.05.57-.12.86-.29,1,.03-.19.03-.39,0-.61-.01-.09-.1-.15-.19-.13-.09.01-.15.1-.13.18.11.69-.22,1.27-.5,1.63-.21-.17-1.04-.96-.99-2.26.13-.07.27-.16.4-.29.06-.06.06-.17,0-.23-.06-.06-.17-.06-.23,0-.23.23-.46.31-.65.32.21-.18.46-.46.61-.89l.08-.23c.29-.88.43-1.28,1.32-1.73.08-.04.11-.14.07-.22-.04-.08-.14-.11-.22-.07-1.01.51-1.19,1.04-1.48,1.92l-.08.23c-.24.7-.79.93-.82.94-.06.03-.1.08-.1.15,0,.06.04.12.1.15.01,0,.19.08.44.08.07,0,.15,0,.24-.02,0,1.36.85,2.18,1.1,2.39-.07.07-.12.12-.13.12-.05.05-.07.12-.05.19.03.06.08.1.15.1h.01c.02.12.06.25.13.4.16.35.62.7,1.02.7.04,0,.07,0,.11-.01.26.45.55.87.71,1.05.15.16.32.32.53.45.12.26.13.49.11.66-.05.02-.1.04-.14.05-.41.03-.98-.12-1.48-.25-.14-.03-.27-.07-.4-.1-1.07-.26-2.35.63-2.84,1.59-.44.88-3.58,8.12-3.71,8.43,0,0,0,.01,0,.02l-1.69,5.74c-.02.05,0,.11.03.15-.23.14-.48.32-.72.51-.04-.08-.08-.17-.14-.24-.09-.11-.2-.18-.29-.25l-.05-.03c.06-.26.13-.64-.17-.89-.24-.21-.61-.23-.9-.05-.26.16-.48.58-.51.92-.31.11-.82.34-1.25.8-.43.45-.64.99-.67,1.49-.2.07-.46.26-.59.5-.08.15-.09.31-.04.45.1.26.31.32.53.32.14,0,.27-.03.38-.05.07.11.14.21.23.29.44.45,1.12.56,1.48.59,0,.02,0,.04,0,.05-.3.36-.9,1.01-1.34,1.37l-.08.07c-.2.16-.4.32-.54.55-.16.27-.22.69.03.97.14.15.35.24.59.24.03,0,.06,0,.09,0,.23-.02.43-.11.62-.2.2-.1.46-.23.66-.4.14.73.57,1.95,1.24,2.48,0,0,0,0,0,.01,0,.03-.02.18-.04.35-.07.54-.21,1.53-.2,1.93,0,.05,0,.11,0,.16,0,.3-.01.67.18.95-.32.25-.9.73-1.06.97-.69-.06-1.19.07-1.5.39-.2-.04-.41.06-.54.25-.1.15-.14.33-.16.49-.07.56-.02,1.13.04,1.68.04.38.08.77.07,1.15,0,.08,0,.16,0,.24,0,.12,0,.25,0,.38.02.96.38,2.16,1.17,2.69.15.1.34.14.54.14.36,0,.73-.12.88-.26.16-.09.32-.22.46-.38.45-.51.41-1.21.32-1.94-.08-.63-.11-1.33.23-1.77.12,0,.24-.03.36-.11.25-.11,4.4-1.92,5.14-2.19.82-.3,1.98-1.44,2.23-2.19.03-.09.08-.26.16-.5.99-3.16,1.65-4.95,2.07-5.95-.02.95-.03,2.62.09,3.91.12,1.31.45,3.12.72,4.31-.07.28-.46,1.9-.5,3.02-.04,1.19,0,7.89,0,7.96,0,.07.05.13.11.15.01,0,.17.05.39.1-.02.15-.1.29-.17.43-.11.21-.22.43-.17.66.12.57.07,1.17-.15,1.7,0,0,0,.01,0,.02l-.06.26c-.02.11-.05.23-.06.36-.06.11-.16.38,0,.81.21.53.52.72,1.2.77.13,0,.26.02.4.03.48.04,1.02.08,1.43.08.05,0,.1,0,.15,0,.62-.02,1.04-.33,1.13-.61.07-.24-.05-1.12-.1-1.39-.03-.2-.08-.39-.13-.56-.06-.2-.14-.4-.21-.59-.12-.32-.24-.65-.31-.98-.04-.17-.07-.29-.11-.41-.07-.23-.11-.38-.1-.64.2-.07.34-.12.35-.13.06-.02.09-.08.1-.14l.58-9.46c.17-.32.41-.82.5-1.22.11-.49.46-4.38.73-7.22.07-.77.13-1.43.17-1.87.17-1.74.04-4.7,0-5.32.31-.14.74-.52.74-1.27,0-.21-.08-.58-.17-1.04-.16-.78-.36-1.74-.28-2.36.04-.28.1-.64.16-1.01.18.74.52,1.64,1.19,1.88.13.05.3.07.5.07.78,0,2.06-.3,3.43-.64.47-.12.91-.23,1.01-.23h.03c.14,0,.25-.11.31-.17.05-.05.09-.09.12-.13.04,0,.08,0,.11,0,.23,0,.46-.02.64-.06.07.11.19.18.3.2.02,0,.05,0,.07,0,.03,0,.06,0,.08,0,0,0,0,0,0,0,.02.02.46.55.95.93.16.12.32.17.45.17.1,0,.19-.03.26-.07.15-.09.23-.24.23-.4h.02c.13,0,.27-.04.36-.17.07-.1.09-.19.08-.27.05-.02.1-.06.13-.12.04-.06.06-.13.06-.22,0-.15-.05-.3-.15-.42-.1-.13-.22-.22-.33-.29l-.16-.11c.08-.15.09-.28.1-.42,0-.07,0-.15.02-.24.06-.34.14-.56.33-.86.12-.18.5-.82.5-1.33v-1s.01,0,.02,0c.47-.27.88-.63,1.2-1.07.18-.24.32-.5.46-.74.08-.14.15-.27.24-.4.2-.33.44-.65.67-.96.3-.4.67-.86,1.03-1.3.17-.21.34-.41.5-.62-.08.26-.15.49-.19.68-.35,1.42-.74,8.66-.76,8.97,0,.08.06.16.14.17,0,0,.34.05.8.11,0,.12.73,4.02,1.19,6.09.36,1.59,1,5.09,1.34,6.97.01.06.02.12.03.18-.03.27-.3,2.6-.09,4.26.07.57.14,1.26.22,2,.15,1.55.33,3.3.63,4.94.34,1.87.58,3.94.67,4.72.02.14.03.25.04.32.02.14.05.17.13.17.05.02.13.06.23.1-.19.8-.87,1.86-1.36,2.63-.43.68-.63,1-.63,1.19,0,0,0,0,0,0,0,.15-.05.45-.05.45,0,.01,0,.02,0,.03.06.7,1.31,1.12,2.45,1.17.11,0,.22,0,.32,0,1.47,0,2.8-.42,3.32-1.06.2-.25.27-.52.2-.79.01-.11,0-.2-.04-.26-.49-1.05-.42-3-.39-3.47.16-.04.27-.07.29-.08.06-.02.11-.07.12-.14,0-.02.22-1.86.31-4.68.03-1.02.05-1.94.06-2.83.03-1.61.05-3,.16-4.45.18-2.26-.34-4.97-.35-4.99,0-.02-.01-.04-.02-.06.04-.18.07-.36.1-.54.14-.83.42-2.52.59-3.62.18,1.1.45,2.8.59,3.62.03.21.08.42.12.62-.06.31-.56,2.83-.39,4.96.11,1.45.14,2.84.16,4.45.01.89.03,1.81.06,2.83.09,2.82.31,4.66.31,4.68,0,.06.05.12.11.13.01,0,.12.04.3.09.02.49.09,2.41-.39,3.45-.03.06-.05.15-.03.26,0,.01,0,.03,0,.04,0,.33.14.65.42.92.59.57,1.72.9,3.06.9.12,0,.24,0,.36,0,1.14-.05,2.39-.48,2.45-1.17,0-.01,0-.02,0-.03,0,0-.04-.3-.05-.45,0-.2-.2-.52-.62-1.19-.49-.78-1.17-1.84-1.35-2.65.09-.04.17-.08.21-.1.08,0,.1-.03.13-.17.01-.07.02-.18.04-.32.09-.78.33-2.85.67-4.72.3-1.64.47-3.4.63-4.94.07-.74.14-1.43.22-2,.21-1.67-.05-3.99-.09-4.26.01-.06.02-.11.03-.18.34-1.88.98-5.38,1.34-6.97.46-2.06,1.16-5.79,1.19-6.68.23-.03.37-.05.38-.05.08,0,.14-.08.14-.17-.02-.31-.41-7.55-.76-8.97-.05-.19-.11-.42-.19-.67.16.2.33.41.5.61.36.44.73.9,1.03,1.3.23.31.47.63.68.96.08.13.16.27.24.4.14.25.29.5.46.74.32.43.73.8,1.2,1.07,0,0,.02,0,.03.01,0,.02-.01.03-.01.05v1.39c0,.51.38,1.15.5,1.33.19.3.28.52.33.86.02.09.02.17.02.24,0,.14.02.27.1.42l-.16.11c-.11.08-.24.17-.33.3-.1.13-.15.28-.15.42,0,.08.02.16.06.21.04.06.09.1.15.12,0,.07.02.15.06.24.08.15.21.2.35.2.01,0,.03,0,.04,0,0,.11.05.2.15.26.07.04.17.06.28.06.23,0,.51-.09.73-.25.04-.03.13-.08.23-.15.26-.16.59-.35.75-.52.02-.02.02-.03.04-.04.1.03.12.05.12.05.05.06.1.09.23.12.06.01.11.03.17.04.12.03.24.06.38.08.03,0,.07,0,.11,0,.15,0,.3-.03.45-.08.04.02.73.29.95.41.09.34.37.61.73.66.37.05.63.1.76.13.53.14.98.2,1.36.2,1.02,0,1.55-.4,1.82-.73,0,.22,0,.41,0,.56v.22c.02,1.22.03,1.9.24,2.33.17.36.59.68.93.8-.09.22-.05.45-.03.55-.06.23-.39,1.63-.54,2.89-.13,1.07-.06,2.56-.02,3.21-.15.03-.33.13-.39.34-.03.1.01.71.13,1.8,0,.06.04.11.1.13.02,0,.25.1.81.21.06.42.39,2.56.56,3.3.1.46.21,1.21.29,1.82.06.44.11.81.15.98.03.15.04.29.05.45.01.23.02.52.13.95.08.32.2.65.31.92.05.47.71,6.7.92,7.72.11.56-.14,1.07-.32,1.44-.03.06-.06.12-.08.17-.04-.01-.07-.02-.07-.02-.07-.01-.14.01-.17.07,0,0-.48.75-1.1,1.13-.34.2-.74.33-1.13.46-.1.03-.2.06-.31.08-.44.11-.99.25-1.1.87,0,.05-.01.1,0,.15.01.11.05.2.1.29-.06.15-.11.39.02.53.06.06.13.15.89.15.27,0,.63-.01,1.1-.04,5.32-.29,5.41-.48,5.46-.57,0-.01.01-.02.01-.03.02-.1.01-.4,0-.57,0-.02,0-.05-.02-.06.12-.46-.13-1.15-.34-1.72-.07-.21-.14-.39-.17-.51-.01-.06-.06-.1-.11-.12-.02,0-.05,0-.07,0-.03-.1-.05-.2-.04-.29.03-.27.78-6.68.78-8.36,0-1.01-.34-1.93-.57-2.54-.1-.26-.18-.49-.19-.6-.02-.32.29-4.17.42-5.66.19,0,.38,0,.58,0,0,0,.02,0,.03,0,0,.03.01.05.01.06,0,.04.03.08.06.11.03.02.11.03.21.03.1,0,.22,0,.36-.02.18.58,1.32,4.15,1.44,4.63.1.39.49,1.38.84,2.07,0,.02,0,.03,0,.04,0,.09.13,2.17.71,3.6.46,1.12,1.55,3.89,1.98,4.97,0,0,0,0,0,0,0,.08-.01,1.86.01,2.18v.15c-.01.31-.01.32,0,.68v.05c-.21.2-.31.94-.31.94,0,.08,0,.15.01.22,0,.01-.01.02-.01.04-.02.09-.08.39-.04.54.05.21.57.49,1.43.49.27,0,.57-.03.89-.09.89-.17,1.1-.38,1.42-.69l.04-.04c.36-.35.26-.73.25-.75l-.6-1.99c-.12-.58-.26-1.18-.69-1.85-.01-.02-.03-.04-.05-.05,0-.01,0-.03-.01-.04-.14-.32-.41-.68-.43-.7.04-1.12.07-2.8-.05-3.72-.18-1.41-.79-3.65-1.05-4.14-.04-.08-.14-.11-.22-.07-.08.04-.11.14-.07.22.22.42.84,2.6,1.02,4.03.17,1.39,0,4.73,0,4.77,0,.09.06.17.15.17h0c.09,0,.16-.07.16-.15,0-.03.01-.24.02-.56.06.09.11.19.15.29.08.2.13.44.19.73.03.14.06.29.09.44.12.51.07.53-.02.57-.1.04-.21,0-.41-.1-.26-.12-.61-.28-1.05-.11-.22.09-.39.27-.52.42,0-.35,0-.93,0-1.35h0s.04,0,.06-.01c.08-.03.12-.13.09-.21-.02-.04-1.58-4.01-2.15-5.42-.38-.93-.56-2.17-.64-2.9.01.01.02.03.03.04.5.55.76.59.83.59.09,0,.17-.07.17-.16s-.07-.16-.15-.16c0,0-.2-.04-.61-.48-.29-.32-1.03-2.06-1.16-2.6-.12-.48-1.19-3.86-1.43-4.6.53-.08,1.15-.21,1.44-.28.01,0,1.25-.32,2.53-.78.23-.08.42-.16.59-.23,0,.34.05,1,.16,2.28.07.76.13,1.48.13,1.77v3.33c0,.21-.12.4-.12.4-.05.07-.03.17.05.22.03.02.06.02.09.02.05,0,.1-.02.14-.07,0,0,.17-.27.17-.58v-3.33c0-.3-.06-1.03-.13-1.8-.08-.9-.18-2.11-.15-2.4.24-.11.4-.19.51-.26.16-.09.24-.28.2-.45-.1-.45-.23-1.02-.32-1.19-.04-.07-.07-.16-.1-.26-.03-.1-.11-.18-.2-.22-.02-.01-.04-.02-.07-.02l-.18-1.92c-.03-.34-.09-.71-.16-1.08-.09-.49-.19-.97-.28-1.39-.06-.29-.12-.57-.17-.8-.16-.81-.49-1.39-.55-1.48l-.22-.54s.04-.05.05-.07c.11-.18.12-.44.1-.7.04.04.08.07.11.1.11.08.24.12.38.12.1,0,.2-.02.29-.06.03-.01.06-.03.1-.04l.37.65c.34.59.89,1.88.93,2.08,0,.01-.02.02-.02.04-.06.17-.12.32-.17.47-.15.38-.26.67-.23,1.01.05.51-.23,1.05-.32,1.23-.03.05-.04.08-.04.1-.05.15.02.33.15.44.08.07.18.11.28.11.06,0,.11-.01.17-.04.33-.17.57-.55.77-.98.01.07.02.13.04.19.06.23.1.45.14.68.04.23.08.47.15.71,0,.02,0,.04.02.06.05.2.17.73.56.73.03,0,.06,0,.09-.01.39-.07.33-.61.3-.82,0-.02,0-.05,0-.06,0,0,0-.01,0-.02.09.23.18.44.26.6.04.09.09.16.15.21.07.07.16.11.25.11.03,0,.06,0,.09-.01.14-.04.26-.16.29-.25.04-.14-.01-.46-.12-.94.09.16.17.31.25.42.07.1.19.16.31.16.04,0,.08,0,.12-.02.13-.05.27-.19.26-.44,0-.01,0-.02,0-.03-.13-.5-.3-.97-.48-1.42.17.22.39.5.66.53.01,0,.03,0,.04,0,.09,0,.18-.03.25-.09.13-.11.16-.29.08-.43Zm-45.13-49.62c-.33-.4-.23-.85-.09-1.16.29-.63.97-1.16,1.65-1.35-.54.54-.91,1.38-.9,2.12-.21.11-.43.23-.66.39h0Zm1.33-.65c-.11.03-.23.07-.34.12.04-.79.56-1.7,1.21-2.07.2-.12.49-.22.82-.17-.66.27-1.24.99-1.68,2.12Zm5.79,6.76c.21.02.45.13.4.72-.03.35-.34.72-.63.89.02-.13.04-.27.05-.41.05-.4.12-.85.18-1.2,0,0,0,0,0,0Zm35.89,69.86l-.04.04c-.3.29-.46.45-1.26.6-1.22.24-1.85-.09-1.95-.17,0-.02,0-.05,0-.09.02.02.05.04.07.06.26.17.65.25,1.08.25.54,0,1.14-.13,1.59-.39.32-.18.54-.41.67-.67,0,.08-.02.23-.17.37Zm-2.73-2.05c.12-.14.28-.34.47-.41.32-.13.56-.01.8.1.21.1.44.2.68.1.19-.08.26-.22.28-.38l.07.23s.02.07.02.11c.07.33.13.64.24.97.06.16.12.32.12.48.01.44-.32.72-.61.88-.7.4-1.84.47-2.34.15-.15-.1-.22-.22-.2-.37.01-.16.12-.59.2-.71.61.06,1.78.02,2.23-.19.08-.04.12-.13.08-.21-.04-.08-.13-.12-.22-.08-.34.16-1.34.22-1.98.17v-.02c-.02-.34-.02-.35-.02-.63.06-.04.11-.1.17-.18Zm-5.78-42.6h-.15c.06-.12.11-.24.15-.38.02.15.02.27,0,.38Zm-6.07-3.84c0-.09-.08-.16-.17-.15-.09,0-.16.08-.15.17,0,.03,0,.05,0,.08-.23-.21-.37-.5-.39-.81-.02-.22.04-.49.36-.57.08.64.53.93.55.94.03.01.06.02.08.02.03,0,.06,0,.09-.03.05-.04.08-.1.07-.16,0,0-.16-.87.16-1.31.19,0,.39-.05.58-.14.05-.02.09-.05.13-.07,0,0,0,0,0,0,.01,0,.35-.14.81.08.02,0,.05.02.07.02.06,0,.12-.03.15-.09.04-.08,0-.18-.08-.22-.2-.09-.38-.13-.53-.14.14-.15.25-.32.36-.47.22-.31.39-.56.67-.62.01.09.02.18.03.28.02.26.03.56.21.91.25.5.67.71,1.08.76.45.74,1.06.88,1.28.91-.05.34-.16.64-.16.65-.02.06-.01.12.03.17.03.03.07.05.12.05.02,0,.04,0,.06,0,.02,0,.44-.17.67-.66.12.04.2.1.25.18.06.12.06.3-.02.57-.08.28-.31.5-.52.58,0-.02.02-.05.03-.07.03-.08-.02-.18-.1-.21-.08-.03-.18.01-.2.1-.21.61-.53,1.35-.78,1.65-.73.9-1.77,1.19-2.06,1.26-.45.1-.75-.09-1.04-.31-.73-.54-1.23-1.16-1.4-1.74-.08-.27-.19-.96-.22-1.56Zm.76,5.13c0,.08.08.14.16.14,0,0,.01,0,.02,0,.09,0,.15-.09.14-.18-.03-.24-.04-.66-.05-1.06.25.16.7.36,1.28.22.43-.1.84-.34,1.14-.57.25-.11.52-.25.8-.45-.03.46,0,.95.07,1.64,0,.08.08.15.16.15h.02c.09-.01.15-.09.14-.18-.02-.2-.04-.38-.05-.54l.24-.03s.09,0,.13-.02c-.02.38-.24.78-.6,1.07-.42.33-.95.49-1.41.59-.49.11-1.11.21-1.64,0-.45-.18-.83-.68-.72-1.15.05-.02.1-.03.15-.05,0,.16.02.3.03.41Zm-21.39,5.26c-.63.07-3.23.33-4.95.36-1.7.03-3.52-.55-3.97-.7-.02-3.01-.03-6.67.05-8.37.12-2.95.29-5.18.58-7.94.2-1.91.57-5.74.74-7.49.92.92,3.37,1.59,3.67,1.6h.02c.68,0,1.78-.71,2.32-1.23.3,1.88.77,4.92.94,6.59.29,2.76.45,4.99.58,7.94.08,1.87.06,6.12.04,9.25Zm-6.24-26.57c.46.51,1.29,1.29,2.07,1.31,1.07.03,1.82-.72,2.09-1.04.1.42.22.79.27.91.01.08.09.53.19,1.2-.38.46-1.61,1.33-2.27,1.31-.29,0-3.04-.79-3.61-1.71,0,0-.01-.01-.02-.02,0-.03,0-.05,0-.08.25-.14.38-.74.54-2.3,0-.06.01-.12.02-.17.23.22.48.42.72.58Zm-29.01,15.31c.08,0,.19,0,.32-.02-.17.42-.47.67-.75.8.15-.2.32-.46.43-.77Zm1.28,3.18c-.19-.21-.57-.79-.86-1.32-.04-.08-.14-.11-.22-.07-.08.04-.11.14-.07.22,0,0,0,0,0,.01-.24-.04-.55-.26-.66-.5-.06-.13-.09-.24-.11-.34.4-.12,1.06-.45,1.3-1.29.28-.08.59-.21.83-.44.25-.24.4-.54.46-.91.48.31.84.38,1.07.38.18,0,.28-.04.3-.06.04-.02.07-.05.08-.1.01-.04,0-.09-.01-.13,0,0-.06-.1-.16-.24.2.1.43.2.67.23.31.03.57.02.76-.02.35.51.29,1.14.29,1.14,0,.07.03.13.09.16.02.01.04.02.07.02.04,0,.08-.02.12-.05,0,0,.38-.4.49-.98.26-.03.42.07.51.58.04.24-.07.56-.23.73,0-.02,0-.05,0-.07,0-.09-.09-.15-.18-.15-.09,0-.15.09-.14.18.06.64.08,1.45-.01,1.82-.28,1.12-1.1,1.81-1.34,2-.36.28-.71.23-1.07.16-.89-.18-1.6-.54-1.99-.99Zm.8.95c.45.36,1.52,1.1,2.41.91.53-.11.84-.47,1.01-.75,0,.47-.02.92-.04,1.22-.92.66-2.33.96-3.29.26-.52-.38-.67-.65-.65-.79,0-.02.02-.04.03-.06,0,.05.03.11.08.14.03.02.05.02.08.02.05,0,.11-.03.14-.08.01-.02.22-.39.12-.92.03.02.07.03.1.05Zm-7.28,15.63c.07.11.15.17.22.21-.09.36-.33,1.3-.5,2.07-.16.74-.2,1.76-.24,2.94-.02.41-.03.84-.06,1.29-.01.23-.01.55-.02.89,0,.23,0,.46,0,.69-.16-.15-.32-.31-.49-.45.01-.03.02-.05.01-.08-.14-1.11-.82-2.74-1.6-3.86.13,0,.26-.05.39-.13.16-.1.29-.25.39-.38.02-.03.03-.06.03-.09.07.02.14.02.2.02.04,0,.08,0,.12,0,.15-.02.3-.1.46-.22.3-.24.48-.55.52-.87.01-.12,0-.24-.03-.35.02-.02.04-.04.05-.07.1-.32-.08-.68-.22-.94-.05-.09-.12-.22-.12-.26.06.01.1.02.1.02.01,0,.02,0,.03,0,.06,0,.11-.03.14-.09l.47-.9c0,.22.03.41.12.55Zm-2.49,2.34c-.01-.07-.01-.14-.01-.22,0-.01,0-.03,0-.04.21-.17.42-.34.63-.51.08-.07.15-.14.21-.22.17-.01.35-.02.49.05.2.09.33.34.3.59-.02.23-.17.47-.4.65-.11.09-.21.14-.31.16-.09.01-.19,0-.31-.05-.23-.08-.44-.23-.59-.42Zm1.45-1.52c.07.13.14.28.18.42-.06-.05-.12-.1-.19-.13-.21-.09-.43-.09-.62-.07,0,0-.02-.01-.03-.01-.08-.03-.18.01-.21.09-.03.08-.1.14-.19.22-.25.21-.5.42-.76.62-.07.05-.09.15-.03.22.02.02.04.04.07.05,0,.27.06.54.16.78.03.06.09.1.15.1.02,0,.04,0,.06-.01.08-.03.12-.13.09-.21.07.04.14.08.21.12-.1.11-.19.23-.31.3-.12.07-.24.1-.34.06-.17-.06-.26-.29-.32-.5-.04-.16-.09-.32-.1-.48-.02-.32.13-.5.35-.76.08-.09.16-.19.24-.3.05-.07.03-.17-.04-.23-.07-.05-.17-.04-.22.04-.07.1-.15.19-.22.28-.23.28-.45.54-.42.99.01.19.06.38.11.55.04.16.11.33.21.47h0c-.1,0-.18-.16-.22-.25-.13-.29-.21-.63-.23-1,0-.1.17-.48.48-.92.05-.07.03-.17-.04-.22-.07-.05-.17-.03-.22.04-.17.24-.55.84-.53,1.12.02.35.09.68.2.97-.09-.07-.19-.18-.2-.27,0-.04-.02-.1-.04-.19-.05-.22-.15-.67-.1-.88.04-.06.23-.32.4-.49.06-.06.06-.16,0-.23-.02-.02-.05-.03-.08-.04.4-.3.85-.58,1.08-.71.04-.02.07-.04.09-.06.17-.03.37-.05.55-.05.28,0,.64.05.91.09,0,.02-.01.04-.01.07,0,.11.07.24.15.4Zm-3.19.62c-.1.13-.19.25-.2.29-.03.09-.04.21-.03.33-.03-.06-.05-.11-.05-.16,0-.04.04-.16.07-.22,0,0,.02-.02.02-.03.05-.07.12-.14.2-.22Zm-4.16,2.03c-.02-.06-.01-.12.03-.19.06-.12.19-.23.3-.3.02.2.06.4.13.57-.25.05-.41.04-.46-.08Zm1.53,4.02c-.16.08-.34.15-.51.17-.17.02-.32-.03-.41-.13-.13-.15-.1-.41,0-.59.11-.18.28-.32.47-.47l.08-.07c.35-.28.77-.72,1.09-1.07-.04.54-.05,1.09.01,1.64-.17.23-.6.43-.74.5Zm1.1-.24c-.14-.84-.08-1.69,0-2.49,0,0,0-.02,0-.03.05-.03.09-.08.09-.14,0-.09-.08-.16-.16-.16,0,0-.98.01-1.5-.51-.48-.48-.69-1.64.18-2.57.42-.45.95-.66,1.2-.74.02,0,.03,0,.05-.02.06-.02.1-.03.1-.03.09-.02.14-.11.12-.19-.01-.06-.06-.11-.12-.12.05-.22.2-.48.35-.57.14-.09.36-.12.52.02.12.1.12.25.09.44l-.02-.02c-.07-.05-.17-.03-.23.04-.05.07-.03.17.04.22l.36.26c.09.06.17.12.23.19.05.06.08.13.12.22l.02.04c-.13.11-.25.23-.34.35,0,0,0,0-.01,0-.08.08-.18.35-.16.48.01.12.06.21.1.3.04.09.13.2.21.32.07.1.15.2.18.27,0,0,0,0,0,.01.01.05.02.09.02.12.04.32.45.65.72.65.01,0,.02,0,.04,0,.09.1.2.15.32.16h.04c.06,0,.11,0,.15-.02.76,1.02,1.44,2.58,1.63,3.7-.05,0-.1.02-.13.06-.05.07-.04.17.03.23.31.23.6.52.88.8l.18.18c.11.1.22.21.34.31.3.27.58.51.77.83.16.26.2.55.12.78-.07.19-.23.32-.45.4-.5.16-1.1-.39-1.36-.82-.19-.32-.33-.66-.47-1.03-.06-.16-.12-.32-.19-.48-.03-.08-.13-.12-.21-.08-.08.03-.12.13-.08.21.02.05.04.1.06.16-.01,0-.03.02-.04.03-.37.44-1.27.89-1.56.89-.05,0-.1.02-.13.07-.03.04-.04.1-.02.14.3.86.49,1.59.59,2.37,0,.27-.14.55-.39.71-.29.19-.86.26-1.12-.04-.16-.2-.16-.5-.15-.8,0-.06,0-.12,0-.17,0-.38.13-1.36.2-1.89.01-.09.02-.16.03-.22.14.06.28.09.42.09.08,0,.16,0,.24-.03.09-.02.14-.11.12-.19-.02-.09-.11-.14-.19-.12-.21.05-.41,0-.61-.13-.68-.46-1.11-1.82-1.21-2.41Zm5.04,4.18s-.01,0-.02,0c-.05.01-1.23.3-2.09.59-.11-.6-.26-1.2-.48-1.86.44-.11,1.12-.49,1.51-.89.14.36.28.72.49,1.06.14.23.35.48.61.68,0,.15,0,.28,0,.41Zm-5.31,4.78c.04-.19.06-.38.08-.56,0-.03,0-.06,0-.09.09.39.23.78.42,1.05-.04.02-.08.04-.12.06-.08.05-.16.09-.23.08-.11-.01-.14-.06-.15-.08-.06-.08-.06-.23-.01-.46Zm-1.69,2.59c0-.12,0-.24,0-.36,0-.08,0-.17,0-.25,0-.4-.04-.8-.08-1.19-.06-.55-.11-1.08-.04-1.61.02-.12.04-.25.11-.35,0,0,0-.01.01-.02-.1.25-.12.53-.13.77-.03.44.12,1.53.15,1.72.05.27.05.44.05.62,0,.39,0,.82.45,2.33.06.22.16.41.28.57-.53-.53-.79-1.47-.8-2.24Zm2.49,1.98c-.29.33-.63.48-.95.41-.32-.07-.58-.37-.71-.81-.43-1.47-.43-1.87-.43-2.25,0-.18,0-.37-.05-.67-.04-.22-.17-1.26-.14-1.64.02-.29.05-.66.24-.91.21-.28.6-.4,1.16-.37-.08.29-.1.59-.13.87,0,.07-.01.14-.02.2-.02.17-.04.35-.08.53-.04.21-.09.5.06.71.08.12.21.19.38.21.02,0,.04,0,.06,0,.15,0,.27-.07.36-.12.06-.04.13-.07.16-.07.02,0,.03,0,.05,0,.15.13.31.25.48.33-.32.53-.29,1.24-.21,1.89.08.66.12,1.28-.24,1.68Zm14.94,9.43c-.05.15-.36.37-.83.38-.42.01-1.02-.03-1.55-.07-.14-.01-.27-.02-.4-.03-.48-.03-.68-.13-.82-.35.18.12.43.19.82.24.25.03.5.04.75.04.3,0,.6-.01.89-.03h.19c.2-.02.4-.04.6-.14.14-.07.26-.18.35-.32,0,.13,0,.24,0,.28Zm-.43-2.32c.07.19.14.38.2.57.05.16.1.33.12.51,0,0,0,.01,0,.02.01.11.02.22,0,.33-.03.29-.18.53-.39.64-.14.07-.3.08-.46.09h-.19c-.52.04-1.07.06-1.59,0-.76-.09-.84-.27-.94-.63-.04-.15,0-.32.04-.47l.06-.24c.2-.49.27-1.04.21-1.58.15-.06.29-.14.41-.24.26-.23.77-.56,1.24-.32.35.19.7.4,1.02.63.01.01.03.02.05.02.07.22.15.44.22.65Zm-.43-1.42c.02.09.05.18.08.3-.26-.17-.52-.33-.8-.47-.47-.25-1.04-.12-1.6.35-.07.06-.16.12-.25.16,0-.12.07-.26.15-.42.08-.15.17-.33.2-.51.28.05.62.1.94.11h.05c.41,0,.8-.07,1.11-.15,0,.25.05.42.11.64Zm2.31-20.8c-.04.44-.1,1.1-.17,1.87-.25,2.67-.62,6.71-.72,7.18-.13.59-.64,1.45-.65,1.46-.05.08-.02.18.06.22.02.01.04.02.06.02l-.55,8.93c-.07.03-.19.07-.34.11,0,0,0,0,0,0-.32.1-.78.2-1.26.19-.57,0-1.19-.16-1.44-.23,0-.91-.04-6.73,0-7.82.03-.73.21-1.7.35-2.34.05.19.1.34.14.44.03.06.09.1.15.1.02,0,.04,0,.06-.01.08-.03.12-.13.09-.21-.22-.53-.83-3.39-1.01-5.34-.17-1.82-.08-4.41-.07-4.61.17-.31.27-.43.34-.46.08.02.16-.02.19-.1.03-.08,0-.18-.09-.21-.05-.02-.13-.03-.23.01-.14.06-.3.27-.5.64,0,.01-.02.03-.02.04-.54,1.01-1.32,3.16-2.42,6.65-.07.24-.13.41-.16.49-.22.66-1.31,1.72-2.04,1.99-.77.28-4.99,2.12-5.17,2.2,0,0-.02,0-.02.01-.22.14-.49.04-.9-.36-.47-.45-.65-1.87-.53-2.13.04-.08.39-.42,1.03-.93.17.11.38.16.59.16.27,0,.54-.08.76-.21.37-.24.59-.68.53-1.09.75-.26,1.79-.52,2.05-.58-.01.51-.02.83-.02.83,0,.09.07.16.16.16.09,0,.16-.07.16-.16,0,0,.01-.57.03-1.38.17.08.34.13.52.13.1,0,.19-.02.29-.05.32-.1.55-.31.65-.59.12-.32.07-.71-.14-1.06-.22-.36-.53-.64-.83-.91-.11-.1-.22-.2-.33-.3l-.06-.05s0-.02,0-.03c.01-.31.01-.64.01-.96,0-.34,0-.65.02-.87.02-.45.04-.89.06-1.3.05-1.17.09-2.17.24-2.89.16-.76.4-1.68.49-2.05.55.15,2.52.57,7.23.69.12,0,.23,0,.34,0,1.64,0,2.64-.32,3.06-.49.04.81.14,3.52-.01,5.15Zm5.83-9.98c-1.11.27-3.17.79-3.74.58-.53-.19-.91-1.01-1.14-2.44.13-.64.24-1.17.25-1.21h-.01c.04-.13.1-.39.2-.9.07-.36.2-1,.26-1.29.09-.52.22-1.62.22-1.67,0-.09-.05-.17-.14-.18-.09-.01-.17.05-.18.14,0,.01-.13,1.14-.22,1.65-.08.49-.42,2.08-.44,2.16h.01c-.05.15-.12.48-.25,1.18-.12.59-.27,1.41-.34,1.94-.09.68.12,1.67.28,2.47.09.43.16.79.16.97,0,.82-.6,1-.63,1.01,0,0-.02,0-.02,0,0,0,0,0,0,0-.02,0-1.16.61-3.47.55-5.52-.15-7.29-.72-7.3-.72-.01,0-.02,0-.02,0,0,0-.01,0-.02,0,0,0-.09-.01-.15-.11-.1-.16-.18-.59.3-1.7l1.89-3.57s0-.02.01-.03l1.42-4.84c.02-.09-.02-.18-.11-.2-.08-.02-.18.03-.2.11l-1.42,4.83-3,5.67c-.25-.05-.83-.15-1.27-.15-.32,0-.67.06-.9.1l1.61-5.46c.13-.3,3.27-7.55,3.7-8.41.43-.85,1.57-1.64,2.47-1.42.12.03.26.06.39.1.41.11.85.22,1.25.26,0,.02,0,.04-.01.05-.06.31.2.68.77,1.11.45.33.97.47,1.51.47.8,0,1.62-.31,2.22-.77.01-.01.02-.02.03-.03,0,0,.01-.01.01-.02,0-.01,0-.02,0-.03,0-.01,0-.02,0-.03,0-.02,0-.03,0-.05.45.24,1.08.34,1.36.38.05,0,.09.01.12.02.9.19,1.09.9,1.3,1.72l.02.08c.3,1.11.51,2.09.64,2.98,0,.02,0,.07.02.14.2,1.59.32,1.77.44,1.84.06.03.12.03.18,0,.08-.04.11-.04.12-.04,0,0,.03.05.03.2v.05s.02.1.06.13c.03.02.06.03.1.03.01,0,.02,0,.04,0,.82-.19,1.68-.18,2.31-.17.06,0,.12,0,.17,0-.09.47-.31,2-.15,2.29,0,.01.01.02.02.03-.18.04-.43.1-.77.19Zm1.01-.59c0-.48.13-1.54.22-1.93.02-.07.15-.2.26-.3.08-.08.16-.16.23-.24.05-.06.28-.2.44-.28.08-.04.19-.02.29.02.12.04.25.08.37.13.03.01.08.03.1.06.02.03.01.1-.02.14-.04.05-.12.1-.23.13-.1.03-.18.04-.24.04-.07,0-.12-.04-.15-.08-.05-.07-.15-.09-.22-.04-.07.05-.09.15-.04.22,0,0,0,0,.01.01,0,.01-.02.02-.02.03-.08.2-.06.42-.03.61.06.46.16.92.3,1.36,0,.01,0,.02.01.03-.02.03-.04.06-.05.1-.33.07-.93.06-1.22,0Zm1.29-1.95s.06.02.1.02c.11.01.21,0,.29-.03-.07.08-.16.22-.16.4,0,.08.03.16.07.23-.15.19-.19.4-.16.56-.06-.25-.11-.51-.14-.76-.02-.14-.03-.29,0-.42Zm1.29.7s.05-.02.07-.03c.03.1.04.24.02.29-.05.1-.12.15-.16.16-.26.05-.55.06-.67.06-.04,0-.06,0-.07,0,0-.01-.02-.04-.02-.09,0-.05,0-.15.11-.28.04.01.09.02.13.02.03,0,.07,0,.1,0,.17-.02.34-.06.5-.13Zm-1.06.85c-.03-.1-.05-.2-.08-.31,0,.03.02.05.03.07.02.04.05.07.08.1-.02.04-.03.09-.03.14Zm.33-.02s.01-.03.02-.04c.14,0,.43-.01.7-.07.03,0,.06-.02.09-.03,0,.03,0,.05-.01.07-.01.03-.05.05-.1.08-.07.03-.15.07-.24.11-.1.04-.21.08-.31.09-.09,0-.12-.02-.13-.03-.02-.03-.04-.14-.02-.17Zm.83-1.67s.02.02.03.03c.02.12.02.28,0,.32-.06.09-.15.14-.24.17-.14.05-.28.09-.42.11-.06,0-.11,0-.14,0-.02-.01-.06-.06-.06-.11,0-.07.04-.13.1-.2.08-.03.18-.07.28-.12.16-.07.33-.14.44-.19Zm-1.05,2.28s-.06-.04-.08-.07c0-.01,0-.03,0-.05.02-.03.08-.06.12-.08.06.05.14.1.26.11-.02,0-.03.02-.05.02-.08.03-.18.08-.25.06Zm1.62,1.07c-.07.04-.2.04-.36-.08-.35-.26-.68-.62-.82-.79.09-.04.19-.09.3-.15.46.37.91.78.95.89,0,.05-.02.09-.06.12Zm.5-.48c-.04.06-.21.02-.26,0-.02,0-.04-.01-.06-.01-.21-.24-.55-.53-.85-.77.03-.03.05-.06.06-.11.02,0,.04-.02.06-.03.01,0,.03-.02.05-.02.16.11.69.47.88.69.17.18.16.2.12.25Zm.14-.65c.05.07.08.15.08.22,0,.02,0,.04,0,.04,0,0,0,0,0,0-.03-.03-.05-.06-.09-.1-.12-.13-.32-.29-.52-.44.03-.02.07-.05.11-.08l.17.12c.1.07.2.14.26.23Zm.39-3.45c0,.33-.24.83-.45,1.16-.22.34-.31.6-.38.98-.02.11-.02.2-.03.28-.01.18-.02.27-.17.44-.07.08-.12.08-.14.08-.06,0-.12-.04-.15-.07.02-.11.01-.24-.04-.38,0-.01.01-.02.02-.03.08-.15.04-.45-.04-.63.02-.02.03-.04.05-.06.1-.14.08-.46.03-.65.03-.07.06-.14.1-.21.1-.19.21-.39.2-.61,0-.09-.08-.16-.16-.16-.09,0-.16.08-.16.17,0,.14-.08.29-.16.45-.02.04-.04.08-.06.13-.05,0-.1.02-.13.03-.12.04-.31.12-.5.2,0,0,.01-.01.02-.02.13-.17.14-.39.02-.54-.07-.08-.15-.12-.23-.15-.07-.03-.13-.05-.2-.07.03-.05.08-.12.13-.19.18-.25.47-.68.68-1.22.21-.54.3-.83.34-1.05.57.27.91.54,1.4.98v1.17Zm4.57-5.34c.21-.82.78-2.45,1.24-3.76.26-.74.42-1.2.51-1.48.03.04.07.08.1.11.03.03.07.05.11.05s.08-.02.11-.05c.06-.06.06-.17,0-.23-.08-.09-.16-.18-.24-.29,0-.03-.03-.06-.06-.08-.37-.52-.66-1.23-.8-2-.18-1.01.85-4.07,1.14-4.7.28-.61.24-2.01.24-2.07,0-.09-.08-.16-.17-.16-.09,0-.16.08-.16.17,0,.01.04,1.39-.21,1.93-.28.61-1.37,3.76-1.17,4.9.14.8.45,1.55.84,2.12-.06.23-.32.96-.57,1.68-.25.71-.53,1.5-.77,2.22,0,0,0,0,0,0-.3.4-.67.86-1.03,1.3-.36.45-.74.91-1.04,1.31-.24.31-.48.64-.69.98-.08.14-.16.27-.24.41-.14.24-.28.49-.44.71-.27.36-.61.68-1,.92-.59-.54-.98-.86-1.76-1.19-.03-.99,1.36-4.36,2.12-6.2.45-1.09.61-1.49.63-1.61.06-.55,2.77-11.08,3.32-11.87.37-.53,1.38-.84,2.35-1.14.54-.17,1.09-.34,1.54-.55.27-.13.52-.29.74-.46-.12.43-.3,1.21-.44,2.48-.18,1.63-.28,9.23-.33,13.31-.01,1.29-.03,2.22-.03,2.33,0,.09.06.17.15.17h.01c.08,0,.16-.06.16-.15,0-.12.02-1.01.04-2.35.05-3.79.14-11.67.32-13.28.23-2.09.56-2.82.56-2.83.02-.04.02-.07,0-.11.11-.12.2-.25.27-.38.05-.09.24-.15.42-.17-.05.5-.57,5.94-.82,8.35-.29,2.77-.45,5.01-.58,7.97-.07,1.72-.07,5.48-.04,8.51.01,2.09.04,3.83.04,4.33-.36.03-1.31.09-2.17-.01-.92-.11-2.48-.32-2.96-.38.06-1.06.42-7.47.74-8.76Zm4.69,44.09c-1.05-.04-2-.41-2.13-.81.43.38,1.28.61,2.12.64.1,0,.19,0,.29,0,1.32,0,2.53-.38,3.13-.82-.01.02-.02.03-.03.05-.42.52-1.71,1.01-3.38.93Zm3.5-1.65s0,.1-.04.18c-.3.45-1.71,1.06-3.46.99-1.12-.05-2.06-.43-2.1-.85,0-.12.31-.6.59-1.02.5-.78,1.18-1.84,1.39-2.69.29.1.66.2,1.04.22.03,0,.07,0,.11,0,.55,0,1.44-.19,2.04-.34-.03.62-.07,2.46.43,3.52Zm5.83,1.65c-1.4.06-2.62-.25-3.19-.8-.03-.03-.06-.06-.09-.09.64.4,1.77.73,3,.73.1,0,.19,0,.29,0,.83-.03,1.68-.26,2.12-.64-.13.4-1.08.77-2.13.81Zm1.52-2.35c.27.42.57.89.57,1.01-.04.42-.98.81-2.1.86-1.75.07-3.16-.54-3.46-.99-.05-.07-.06-.13-.04-.18.49-1.05.46-2.86.43-3.5.55.14,1.38.32,2.13.32h0c.4,0,.78-.1,1.08-.21.21.85.88,1.91,1.38,2.69Zm1.79-26.55c-.36,1.6-1,5.1-1.34,6.98-.11.62-.2,1.1-.21,1.15-.02.09.03.17.12.2.01,0,.03,0,.04,0,.05,0,.09-.02.12-.05.06.88.12,2.16,0,3.16-.07.58-.14,1.27-.22,2.01-.15,1.54-.33,3.29-.63,4.92-.34,1.88-.58,3.96-.67,4.74-.01.11-.02.2-.03.26-.19.1-.79.38-1.41.39h0c-.81,0-1.74-.22-2.25-.36-.13-.04-.23-.07-.3-.09-.05-.42-.22-2.12-.3-4.55-.03-1.01-.05-1.93-.06-2.82-.02-1.62-.05-3.01-.16-4.47-.12-1.49.1-3.18.25-4.14.19.76.36,1.34.36,1.35.02.07.09.12.16.12.01,0,.03,0,.05,0,.08-.03.13-.12.11-.2,0-.01-.44-1.47-.66-2.74-.17-.97-.52-3.15-.68-4.14l-.27-4.54c0-.09-.08-.15-.17-.15-.09,0-.16.08-.15.17l.24,3.93s-.05.08-.04.13c0,0,0,0,0,0-.07.45-.54,3.42-.75,4.6-.22,1.26-.66,2.72-.66,2.74-.03.09.02.18.11.2.02,0,.03,0,.05,0,.07,0,.13-.05.15-.12,0-.01.2-.65.39-1.44.14.94.35,2.69.23,4.23-.11,1.46-.14,2.86-.16,4.47-.01.89-.03,1.81-.06,2.82-.08,2.42-.25,4.12-.3,4.55-.41.11-1.89.49-2.55.45-.62-.03-1.22-.29-1.42-.39,0-.06-.02-.14-.03-.25-.09-.78-.33-2.86-.67-4.74-.3-1.63-.47-3.38-.63-4.92-.07-.74-.14-1.43-.22-2.01-.13-1-.07-2.28,0-3.16.03.03.07.05.12.05.01,0,.03,0,.04,0,.09-.02.14-.11.12-.2-.01-.05-.1-.53-.21-1.15-.34-1.88-.98-5.38-1.34-6.98-.45-2.02-1.09-5.45-1.18-5.98.64.08,1.43.18,1.98.25.38.05.77.06,1.13.06.69,0,1.23-.06,1.26-.06.08-.01.15-.08.14-.16,0-.04-.03-1.91-.04-4.26.58.19,2.22.68,3.84.68.05,0,.09,0,.14,0,1.71-.03,4.25-.28,4.95-.35-.02,1.93-.04,3.36-.04,3.4,0,.08.06.15.14.16.03,0,.58.06,1.26.06.35,0,.75-.02,1.13-.06.69-.08,1.73-.22,2.42-.31-.05.89-.7,4.39-1.18,6.56Zm4.24-12.64c-.16-.22-.31-.47-.44-.71-.08-.14-.16-.28-.24-.41-.21-.34-.46-.67-.69-.98-.3-.4-.68-.86-1.04-1.31-.35-.44-.72-.88-1.02-1.28-.2-.64-.43-1.33-.64-1.94-.26-.78-.53-1.58-.54-1.69-.06-.74.09-1.05.3-1.48.12-.24.25-.52.36-.91.34-1.17-.97-4.48-1.16-4.91-.25-.54-.21-1.91-.21-1.93,0-.09-.07-.16-.16-.17-.09,0-.16.07-.17.16,0,.06-.04,1.47.24,2.07.27.59,1.44,3.69,1.15,4.69-.11.36-.23.63-.34.86-.21.44-.39.83-.33,1.65,0,.12.16.59.56,1.77.21.62.44,1.31.64,1.95,0,0,0,0,0,.01.18.58.35,1.11.44,1.49.32,1.28.69,7.69.74,8.76-.49.07-2.05.27-2.96.38-.86.1-1.81.04-2.17.01.02-1.25.12-9.93,0-12.84-.13-2.96-.29-5.19-.58-7.96-.19-1.77-.7-5.1-.99-6.93-.08-.53-.15-.93-.18-1.14.12,0,.32.07.57.35.05.24.27,1.44.4,2.59.16,1.41.74,7.3.77,8.08.06,1.78.24,7.76.24,7.76h.32s-.18-5.99-.24-7.78c-.03-.83-.63-6.88-.77-8.1-.1-.93-.27-1.88-.35-2.36.35.16.93.42,1.31.6.44.21,1,.38,1.54.55.97.3,1.98.61,2.35,1.14.46.66,2.06,7.22,2.74,10.02.25,1.02.37,1.52.4,1.61.02.06.09.23.27.63.68,1.57,2.7,6.25,2.66,7.43-.78.33-1.17.65-1.76,1.19-.39-.24-.73-.55-1-.92Zm1.73,3.87c-.21-.33-.45-.82-.45-1.16v-1.39c0-.06-.04-.11-.09-.14.51-.47.85-.75,1.4-1.02.07.36.21.97.42,1.47.2.47.54,1.14.69,1.45-.03.01-.06.02-.09.03-.08.03-.16.07-.23.15-.09.11-.11.26-.06.4-.1-.01-.2-.02-.28-.04-.06-.01-.13-.03-.21-.02h-.02c-.06,0-.1.01-.14.04-.06-.21-.11-.44-.11-.62,0-.09-.07-.16-.16-.16-.09,0-.16.07-.16.16,0,.29.11.68.19.95-.01.12.01.25.08.36.02.13.04.24.05.35-.03.12-.03.25.02.34,0,0,0,.01.01.02,0,.06,0,.12,0,.17-.03.11-.05.21-.04.3-.03.08-.06.13-.09.14-.04.02-.11-.02-.17-.08-.15-.17-.16-.26-.17-.44,0-.08,0-.17-.03-.28-.06-.38-.16-.64-.38-.98Zm1.91,1.69s-.04.17-.08.22c0,0-.03.03-.09.03-.09,0-.19-.05-.27-.09-.09-.04-.15-.08-.22-.11-.05-.03-.07-.05-.09-.08,0,0,0,0,0-.01.01-.06.02-.13.03-.21.19.09.4.14.61.14.03,0,.06,0,.09,0-.01.04,0,.08.01.11Zm-.43.59s0,.01-.01.02c0,0-.02,0-.03,0-.03-.03-.06-.04-.09-.05-.04-.04-.07-.09-.11-.15.03.01.06.03.09.05.04.02.09.04.13.06,0,.03,0,.05.02.08Zm.44-1.4s0,.08.03.11c.03.04.04.08.03.12-.01.06-.06.12-.09.14-.2.02-.39-.02-.57-.1-.06-.03-.1-.06-.13-.09,0-.07,0-.14-.02-.21.03-.01.06-.04.08-.07.16.05.32.09.48.1.03,0,.07,0,.1,0,.03,0,.05,0,.08,0Zm-.05-.67s.1.18.1.26c0,.03-.03.06-.05.07-.04.02-.09.02-.15.01-.14-.01-.29-.04-.43-.09-.09-.03-.18-.07-.24-.14-.01-.07-.03-.15-.04-.22.03-.01.06-.03.07-.06h0s.08,0,.12.01c.13.03.29.05.45.07.04,0,.07,0,.11.01,0,.03.02.06.05.09Zm-1.9,2.25s-.06.07-.09.1c0,0,0,0,0,0,0,0,0-.02,0-.05,0-.07.03-.15.08-.22.06-.09.17-.16.26-.23l.17-.12s.07.06.11.09c-.18.13-.39.29-.52.44Zm.13.49c-.04-.09-.05-.1.11-.27.17-.18.51-.42.69-.54l.05.09c.03.05.06.11.1.16-.2.14-.46.33-.63.52-.01,0-.02,0-.03,0-.08.04-.26.09-.29.03Zm1.34,0c-.12.07-.21.12-.26.16-.25.19-.57.22-.65.18.04-.11.4-.42.79-.69.04.01.09.02.13.02s.08,0,.12-.02c.09-.03.17-.11.21-.2.02-.05.02-.1.02-.14.14-.01.23-.08.28-.14.08-.09.22-.38.11-.57-.02-.03-.04-.05-.07-.07.08-.07.15-.18.18-.31.02-.14-.01-.27-.1-.38,0-.01-.02-.02-.03-.03.07-.07.12-.17.12-.27,0-.09-.02-.19-.06-.29.06.01.14.02.21,0,0,0,0,0,.01,0v1.39c0,.14,0,.3-.04.42-.05.17-.18.32-.3.47-.13.14-.46.33-.68.46Zm2.95-.73c-.07-.05-.17-.04-.23.03-.19.26-.52.4-.84.37-.11,0-.21-.04-.32-.07-.06-.01-.12-.03-.18-.04-.05-.01-.06-.02-.06-.02-.04-.04-.08-.08-.17-.11.05-.09.1-.18.13-.28.05-.18.05-.36.05-.52v-.57c.07.08.14.16.23.22.03.02.06.03.09.03.05,0,.1-.02.13-.07.05-.07.03-.17-.04-.23-.15-.1-.27-.26-.33-.43-.02-.04-.05-.07-.08-.09v-.31s0-.05-.02-.07c.03-.02.05-.05.07-.07.05-.07.04-.17-.04-.23-.07-.05-.17-.03-.23.04-.03.04-.09.07-.15.08-.07,0-.14,0-.24-.04-.12-.04-.19-.08-.23-.13-.03-.04-.05-.11-.02-.14.02-.02.07-.05.1-.06.07-.03.15-.06.23-.09,0,0,0,0,.01,0,.04-.01.09-.03.13-.04.1-.03.22-.05.29-.01.04.02.16.14.34.4.09.14.25.26.41.39.25.21.54.44.57.71,0,.08.08.14.16.14h.02c.09,0,.15-.09.14-.18,0,0,0-.01,0-.02.1.03.2.05.29.06,0,.55.07,1.4.14,2.03-.17-.08-.38-.17-.54-.24.08-.06.15-.14.21-.22.05-.07.04-.17-.03-.23Zm16.3,4.03s.02,0,.04,0l.14.35c-.27.13-.92.43-1.74.64-4.21,1.12-7.58.71-8.22.62-.01-.1-.01-.25.07-.36.1,0,.3,0,.52.02.41.02.97.04,1.53.04.43,0,.87-.01,1.23-.06.66-.08,2.92-.35,4.29-.72,1.19-.32,2.07-.52,2.15-.53Zm-10.3,4.67c.13-1.11.41-2.33.5-2.74.33.05,1.18.15,2.39.15,1.52,0,3.6-.16,5.93-.78.13-.04.26-.07.39-.11.03.16.3,1.63.69,2.34.37.65,1.27.67,1.63.67.06.32.1.64.13.94l.19,1.97c-.37.19-.94.49-1.23.6-2.15.83-3.59.96-4.22.97-.06-.15-.33-.83-.57-1.13-.27-.34-.68-.49-.7-.5-.08-.03-.18.01-.21.1-.03.08.01.18.1.21,0,0,.34.12.55.39.12.16.27.45.37.69-3-.01-5.4-.35-5.97-.43-.03-.48-.13-2.18,0-3.34Zm5.68,26.32c-.24.06-1.23.22-5.18.44-1.3.07-1.64.02-1.73,0,0-.01,0-.04,0-.06.11.06.23.1.36.1.02,0,.04,0,.06,0,.74,0,2.3-.12,3.34-.19.37-.03.68-.05.84-.06.78-.04,1.38-.09,2.12-.25.06-.01.12-.04.17-.06,0,.03,0,.06,0,.09Zm-.05-.47c-.04.07-.1.11-.19.13-.72.15-1.31.2-2.07.24-.16.01-.47.03-.84.06-1.07.08-2.69.2-3.38.19-.21,0-.39-.16-.41-.35,0-.03,0-.05,0-.06.07-.39.37-.5.86-.62.11-.03.23-.06.34-.09.4-.13.82-.27,1.19-.49.56-.33.99-.9,1.15-1.13.2.05.63.18.86.33.13.08.33.24.57.45.29.24.71.23.98-.03l.54-.52c.03.09.06.18.1.28.19.52.47,1.31.3,1.62Zm-.68-14.13c0,.15.09.38.21.69.22.59.55,1.48.55,2.43,0,1.66-.77,8.26-.78,8.32-.02.19.03.37.09.54l-.55.53c-.15.15-.39.15-.55.02-.26-.22-.47-.38-.6-.47-.19-.12-.46-.23-.69-.29.02-.04.04-.08.06-.12.19-.39.48-.98.35-1.64-.17-.82-.65-5.26-.84-7,.02,0,.04,0,.06-.01.08-.04.12-.13.08-.21,0,0-.35-.75-.52-1.42-.1-.4-.11-.66-.12-.89,0-.17-.01-.32-.05-.5-.04-.16-.09-.53-.15-.96-.08-.61-.19-1.37-.3-1.84-.15-.66-.45-2.57-.54-3.17.89.15,2.37.3,4.72.33-.04.54-.44,5.29-.42,5.68Zm-5.24-6.55c-.07-.72-.14-1.48-.13-1.58.02-.05.06-.08.1-.1,0,.02,0,.02,0,.03,0,.01,0,.02.01.03,0,0,.01.02.02.02,0,0,.01.01.02.02,0,0,.01.01.02.01.01,0,.02.01.03.01,0,0,0,0,.02,0,.03,0,2.69.44,6.13.45,0,0,0,0,0,0-.05.07-.07.15-.05.24.15.6.26,1.08.34,1.39-4.42,0-6.13-.43-6.51-.55Zm12.55-2.17c.05.1.16.53.29,1.11.01.04,0,.09-.05.11-.2.12-.6.32-1.37.6-1.27.46-2.48.77-2.49.77-.99.23-1.76.32-2.03.34-.04-.18-.14-.61-.39-1.61.61.01,2.13-.07,4.53-1,.33-.13.98-.47,1.35-.66,0,0,.02,0,.03,0,0,0,.01,0,.02.02.04.12.08.22.12.31Zm-1.03-4.97c.08.36.17.76.24,1.17-.34,0-1.03-.05-1.28-.51-.38-.68-.66-2.23-.66-2.25,0-.01,0-.02-.01-.03.51-.18.9-.36,1.1-.45.11.21.33.68.44,1.26.05.24.11.51.17.81Zm.19-3.8c-.12.06-.25.05-.34-.02-.17-.12-.33-.36-.49-.72-.01-.04-.02-.06-.03-.08,0-.02-.02-.04-.03-.05-.03-.06-.05-.13-.08-.2-.02-.05-.04-.1-.05-.15-.04-.11-.07-.23-.14-.34-.09-.15-.2-.27-.32-.39-.08-.08-.16-.16-.22-.25-.11-.15-.17-.33-.23-.51l-.69-1.99c-.52-1.49-1.05-3.04-1.52-4.58-.03-.08-.12-.13-.2-.11-.09.02-.13.11-.11.2.47,1.55,1,3.09,1.52,4.59l.69,1.99c.07.19.14.41.27.59.08.11.17.2.26.29.1.1.2.2.27.32.05.09.08.18.11.28.02.06.04.11.06.17.05.12.09.23.14.33.13.4.26,1.05.11,1.31-.03.06-.08.09-.15.11-.09.02-.96.22-2.17.54-1.35.36-3.59.63-4.25.71-.8.09-2,.04-2.71.01-.36-.01-.54-.02-.62-.01-.17.02-.71-.29-.89-.66-.17-.37-.18-1.02-.2-2.2v-.22c-.01-.46-.02-1.26-.03-2.14-.02-1.8-.04-3.85-.07-4.31-.05-.73-.43-1.35-.45-1.38-.05-.08-.15-.1-.22-.05-.07.05-.1.15-.05.22,0,0,.36.58.4,1.23.03.45.05,2.58.06,4.29,0,.35,0,.69.01,1-.03.02-.05.05-.07.08-.02.06-.51,1.37-3.02.71-.15-.04-.41-.08-.8-.14-.24-.04-.43-.23-.46-.48-.08-.72-.21-1.99-.16-2.53.16-.02.75.2,1.3.5,0,0,0,0,.01,0,0,0,0,0,.01,0,0,0,.02,0,.02,0,0,0,.01,0,.02,0,.02,0,.03,0,.04,0,0,0,0,0,.01,0,.02,0,.03-.02.05-.03,0,0,0,0,.01-.01.01-.01.02-.02.03-.03,0,0,0,0,0,0,0,0,0,0,0,0,0,0,0,0,0-.01.06-.18.21-.32.4-.38l.3-.09c.17-.05.31-.19.35-.37.09-.36.09-.46.09-.48.01-.19.85-4.51,1.02-5.14.12-.45.38-.59.81-.81.07-.03.13-.07.2-.11.19-.1.94-.35,1.53-.54-.03.59.43,1.13.95,1.34.27.11.55.15.83.15.36,0,.71-.06,1-.13.47-.11,1.07-.28,1.54-.65.45-.36.72-.86.73-1.36.24-.03.45-.05.47-.05h.2c-.08.14-.18.2-.19.2-.06.03-.1.1-.08.17.01.07.07.12.14.13,0,0,.03,0,.08,0,.12,0,.35-.02.58-.16.13.06.27.1.41.1.2,0,.41-.07.6-.21.02-.01.03-.03.05-.04,0,.02.02.03.04.05,0,0,.84.73,1.23,1.2.4.48.74,1.19,1.12,2.12.43,1.03.71,1.65,1.05,2.16.07.11.14.21.2.31.24.38.45.72.78,1.03.49.46.82.87.96,1.18.06.14.12.23.17.31.09.15.13.22.13.43,0,.29-.19.88-.26,1.08-.01.04-.01.09,0,.12.02.04.05.07.09.08,0,0,.4.14.61.42.19.26.19.48-.01.84-.16.29-.33.29-.33.29-.02,0-.04,0-.06,0l-.32.11c-.65.23-1.35.49-2.06.82Zm5.52,5.4s-.04.02-.05.02c-.13-.01-.34-.28-.44-.41-.03-.03-.05-.07-.07-.09-.09-.12-.17-.19-.23-.27-.1-.11-.18-.2-.31-.38-.01-.02-.03-.03-.04-.04v-.03c-.05-.08-.14-.12-.22-.09-.08.03-.12.13-.09.21l.13.3c.27.65.56,1.32.75,2.05,0,.03,0,.09-.04.11-.02,0-.05,0-.07-.02-.27-.39-.68-1.3-.87-1.81,0,0,0,0,0-.01,0,0-.01-.02-.02-.03,0,0-.01-.01-.02-.02,0,0-.02-.01-.02-.02,0,0-.02-.01-.03-.01,0,0-.02,0-.03,0-.01,0-.02,0-.04,0,0,0,0,0-.01,0,0,0-.01,0-.02,0,0,0-.01,0-.02,0,0,0,0,0-.01,0,0,0-.02.01-.03.02,0,0-.01.01-.02.02,0,0-.01.02-.02.03,0,0,0,.02-.01.03,0,0,0,.02,0,.03,0,.01,0,.02,0,.03,0,0,0,0,0,.01.03.21.12.57.21.94.11.46.29,1.21.27,1.39-.02.02-.05.04-.07.04,0,0-.01,0-.03-.02-.03-.03-.06-.07-.09-.13-.22-.46-.54-1.37-.7-1.87v-.03s-.02,0-.02-.01c0-.06-.01-.12-.02-.19-.01-.09-.09-.15-.18-.14-.09.01-.15.09-.14.18.03.31.07.54.1.74.04.29.08.53.1.9,0,.02,0,.04,0,.08.05.42-.02.46-.04.47-.15.03-.23-.24-.28-.48,0-.03-.01-.05-.02-.07-.06-.23-.1-.46-.14-.69-.04-.23-.08-.46-.15-.7-.03-.09-.04-.19-.06-.33-.02-.11-.03-.24-.06-.41,0,0,0-.01,0-.02,0-.01,0-.02-.01-.03,0-.01-.01-.02-.02-.03,0,0-.01-.01-.02-.02,0,0-.02-.01-.03-.02,0,0,0,0-.02,0,0,0,0,0-.01,0,0,0-.02,0-.03,0-.01,0-.02,0-.03,0h-.01s-.01,0-.02,0c-.01,0-.02,0-.03.01-.01,0-.02.01-.03.02,0,0-.01.01-.02.02,0,.01-.01.02-.02.03,0,0,0,0,0,.02-.21.55-.47,1.16-.84,1.35-.02.01-.06,0-.09-.03-.04-.03-.06-.07-.06-.09,0,0,.01-.02.02-.05.1-.2.42-.81.36-1.41-.03-.26.07-.51.21-.86.06-.14.12-.3.18-.48,0-.01,0-.02,0-.04,0-.01.02-.03.02-.04.08-.21-.79-2-.96-2.3l-.36-.62c.56-.24,1.12-.45,1.64-.63l.1-.04c.1.21.28.58.5,1.04.65,1.35,1.54,3.21,1.82,3.59.12.17.24.3.35.44.22.26.4.48.59.85,0,.01,0,.03,0,.03Z"/>
          </g>
        </g>
      </g>
      <g>
        <g>
          <path class="cls-2" d="m59.38,14.47c-.6-5.97-4.65-11.3-10.73-13.23-4.79-1.52-9.78-.59-13.6,2.09C31.22.65,26.22-.26,21.43,1.29c-6.08,1.97-10.11,7.34-10.67,13.33C4.87,16.74.61,22.33.5,28.97c-.11,6.84,4.23,12.71,10.34,14.86.58,5.98,4.63,11.32,10.71,13.27,1.57.5,3.16.74,4.72.74,2.56,0,5.05-.65,7.26-1.83,1.96,3.01,4.95,6.13,9.07,6.59-1.05-.42-2.37-2.77-3.01-5.43,2.9.87,6.08.9,9.18-.09,6.08-1.95,10.12-7.32,10.69-13.3,5.96-2.12,10.22-7.78,10.3-14.4,0,0,0,0,0-.01.11-6.86-4.24-12.75-10.38-14.9Z"/>
          <path class="cls-4" d="m59.38,14.47c-.6-5.97-4.65-11.3-10.73-13.23-4.79-1.52-9.78-.59-13.6,2.09C31.22.65,26.22-.26,21.43,1.29c-6.08,1.97-10.11,7.34-10.67,13.33C4.87,16.74.61,22.33.5,28.97c-.11,6.84,4.23,12.71,10.34,14.86.58,5.98,4.63,11.32,10.71,13.27,1.57.5,3.16.74,4.72.74,2.56,0,5.05-.65,7.26-1.83,1.96,3.01,4.95,6.13,9.07,6.59-1.05-.42-2.37-2.77-3.01-5.43,2.9.87,6.08.9,9.18-.09,6.08-1.95,10.12-7.32,10.69-13.3,5.96-2.12,10.22-7.78,10.3-14.4,0,0,0,0,0-.01.11-6.86-4.24-12.75-10.38-14.9Z"/>
        </g>
        <g>
          <g>
            <path class="cls-1" d="m27.16,18.23c-.5.41-1.02.77-1.55,1.12v.45c1.09-.28,2.19-.64,2.9-.98l.89.78c-1.1.43-2.5.81-3.79,1.1v.5c0,.35.11.41.77.41h1.95c.56,0,.66-.16.72-1.11.25.16.71.33,1.01.39-.15,1.33-.48,1.68-1.65,1.68h-2.12c-1.4,0-1.79-.31-1.79-1.36v-1.21c-.58.32-1.19.59-1.79.85-.15-.25-.52-.69-.75-.92,1.22-.42,2.37-1,3.42-1.69h-3.18v-1h2.84v-.88h-2.03v-.98h2.03v-1.09h1.12v1.09h1.93v.52c.35-.4.68-.82.96-1.25l1,.48c-.52.76-1.12,1.47-1.77,2.12h2.08v1h-3.21Zm-.99-1h.55c.34-.28.66-.58.95-.88h-1.5v.88Z"/>
            <path class="cls-1" d="m33.9,16.56c-.2.36-.43.73-.68,1.09v5.06h-1v-3.85c-.23.25-.47.47-.7.67-.1-.23-.39-.77-.56-1,.75-.57,1.54-1.44,2.01-2.31l.94.35Zm-.15-1.9c-.57.77-1.4,1.65-2.15,2.2-.13-.22-.4-.59-.56-.78.64-.45,1.39-1.2,1.76-1.78l.95.37Zm4.99,4.54c-.31.79-.78,1.43-1.37,1.94.65.31,1.4.53,2.24.66-.23.23-.5.64-.64.92-.95-.19-1.78-.5-2.48-.95-.75.44-1.62.76-2.55.96-.1-.27-.32-.69-.51-.91.8-.13,1.56-.37,2.21-.7-.26-.23-.5-.5-.71-.78-.27.21-.54.4-.81.56-.14-.21-.49-.6-.69-.79.77-.39,1.5-.98,2.01-1.67l-1.8.05-.09-.95c.41,0,.87,0,1.39,0,.13-.11.26-.23.39-.34-.41-.42-1.04-.93-1.58-1.28l.64-.69c.15.1.32.21.5.32.35-.41.73-.9.96-1.3l.93.48c-.39.46-.83.95-1.21,1.32.19.15.37.31.51.45.55-.53,1.06-1.1,1.45-1.59l.95.52c-.65.68-1.45,1.45-2.21,2.09l1.61-.03c-.14-.21-.3-.4-.45-.58l.83-.46c.52.59,1.12,1.4,1.37,1.97l-.9.5c-.07-.17-.17-.38-.3-.59-.59.03-1.21.05-1.79.06-.11.18-.23.36-.35.53h1.63l.17-.04.67.3Zm-3.15.55c.23.32.54.61.89.87.34-.26.63-.55.86-.88h-1.76Z"/>
            <path class="cls-1" d="m42.17,15.82c-.12.6-.43,2.4-.43,3.3,0,.17,0,.41.04.58.14-.31.28-.62.41-.92l.56.44c-.25.75-.55,1.73-.65,2.21-.03.13-.04.33-.04.42,0,.1,0,.24.02.37l-1.04.07c-.18-.62-.35-1.72-.35-2.94,0-1.35.28-2.87.38-3.57.03-.25.08-.59.09-.88l1.26.11c-.07.19-.19.64-.23.8Zm2.22,4.4c0,.4.34.64,1.26.64.8,0,1.47-.07,2.26-.23l.02,1.22c-.59.11-1.31.17-2.32.17-1.55,0-2.3-.55-2.3-1.48,0-.35.05-.71.15-1.17l1.04.1c-.07.3-.11.51-.11.76Zm3.26-4.61v1.16c-1.11.1-2.74.11-3.87,0v-1.15c1.11.15,2.9.11,3.87,0Z"/>
            <path class="cls-1" d="m20.06,27.67c-.18.17-.35.33-.53.47-.2-.19-.63-.53-.87-.7.76-.5,1.47-1.31,1.86-2.15l1.04.31c-.1.22-.22.42-.35.63h5.4v.95h-.85v1.15h1.17v.95h-1.17v1.14h1.04v.95h-7.82v-.95h1.07v-1.14h-1.21v-.95h1.21v-.65Zm-1.3,5.62c.4-.38.8-1.07,1.01-1.73l1.04.25c-.2.68-.59,1.42-1.03,1.89l-1.02-.41Zm2.24-4.97h.65v-1.15h-.65v1.15Zm0,2.1h.65v-1.14h-.65v1.14Zm1.37,1.34c.11.55.22,1.26.23,1.68l-1.04.15c0-.43-.07-1.17-.17-1.72l.99-.12Zm.84-3.44v-1.15h-.67v1.15h.67Zm-.67.95v1.14h.67v-1.14h-.67Zm1.63,2.45c.22.53.44,1.23.52,1.67l-1.07.21c-.05-.43-.26-1.16-.46-1.71l1.01-.17Zm.61-4.56h-.68v1.15h.68v-1.15Zm0,2.11h-.68v1.14h.68v-1.14Zm1.19,2.25c.41.55.91,1.31,1.13,1.8l-1.1.37c-.19-.48-.67-1.27-1.06-1.85l1.03-.32Z"/>
            <path class="cls-1" d="m30.79,31.89c-.99.35-2.07.69-2.94.97l-.24-1.09c.32-.08.68-.18,1.1-.3v-2.12h-.91v-.98h.91v-1.58h-.99v-1h2.97v1h-.96v1.58h.81v.98h-.81v1.8c.3-.09.59-.18.88-.28l.18,1.01Zm5.35.55v.97h-5.79v-.97h2.48v-.85h-1.86v-.96h1.86v-.77h-1.8v-4.19h4.7v4.19h-1.81v.77h1.91v.96h-1.91v.85h2.21Zm-4.14-5.11h.93v-.76h-.93v.76Zm0,1.61h.93v-.77h-.93v.77Zm2.72-2.37h-.89v.76h.89v-.76Zm0,1.59h-.89v.77h.89v-.77Z"/>
            <path class="cls-1" d="m40.31,26.9c.44-.08.86-.18,1.22-.29l.04,1.04c-.41.11-.97.22-1.58.32-.43,1.26-1.2,2.84-1.93,3.85l-1.09-.56c.71-.88,1.44-2.21,1.84-3.18-.16,0-.32,0-.47,0-.37,0-.74,0-1.13-.04l-.08-1.04c.39.05.86.06,1.2.06.27,0,.54,0,.82-.04.13-.5.23-1.04.24-1.5l1.24.13c-.07.29-.19.75-.32,1.23Zm2.43,2.72c0,.26.04.69.05,1.14.77.29,1.4.74,1.86,1.15l-.6.96c-.32-.29-.72-.67-1.22-.96v.09c0,.84-.46,1.49-1.74,1.49-1.12,0-2-.5-2-1.49,0-.88.74-1.56,1.99-1.56.22,0,.41.02.62.04-.04-.67-.08-1.47-.1-2.02h1.13c-.03.38,0,.76,0,1.15Zm-1.8,2.84c.62,0,.81-.34.81-.84v-.18c-.23-.05-.48-.09-.73-.09-.52,0-.86.23-.86.55,0,.33.28.56.77.56Zm1.19-4.79l.58-.89c.65.28,1.76.89,2.22,1.22l-.64.95c-.52-.41-1.55-1-2.16-1.28Z"/>
            <path class="cls-1" d="m50.17,27.04c-.59.47-1.77,1.39-2.38,1.9-.48.41-.47.51.02.94.68.57,2.39,1.92,3.3,2.81l-1.05.96c-.25-.28-.51-.57-.78-.84-.55-.57-1.87-1.69-2.69-2.39-.9-.76-.83-1.24.07-2,.71-.58,1.94-1.58,2.55-2.16.26-.26.55-.55.69-.76l1.05.93c-.28.22-.58.45-.78.62Z"/>
          </g>
          <g>
            <path class="cls-1" d="m21.38,39.46c-.34.26-.76.53-1.1.73.33.53.77.95,1.34,1.21-.16.14-.38.42-.5.62-1.07-.57-1.66-1.67-2-3.07h-.01c-.15.13-.32.24-.5.35,1.13.98,1.09,2.48.49,2.91-.22.19-.42.25-.73.25-.15,0-.34,0-.51-.01-.01-.2-.07-.49-.2-.68.23.02.42.03.58.03s.26-.02.36-.13c.14-.11.22-.35.2-.67-.65.48-1.54.93-2.29,1.19-.08-.18-.24-.44-.37-.59.86-.22,1.91-.71,2.5-1.21-.04-.07-.07-.14-.11-.21-.51.34-1.25.7-1.82.9-.08-.16-.23-.4-.36-.54.61-.14,1.4-.47,1.85-.78-.05-.05-.1-.1-.15-.14-.46.21-.95.38-1.42.51-.07-.14-.25-.42-.37-.56.64-.13,1.31-.34,1.84-.61h-.88v-.6h3.22v.6h-.68c.07.24.15.47.25.7.3-.2.62-.45.83-.65l.56.48Zm-4.38-.82h-.7v-1.34h2.16v-.47h.73v.47h2.19v1.34h-.73v-.69h-3.65v.69Z"/>
            <path class="cls-1" d="m24.53,37.7c.57-.03,1.17-.08,1.7-.17v.7c-.58.08-1.31.13-1.96.15-.1.22-.22.44-.34.61.16-.07.48-.12.68-.12.37,0,.67.16.8.46.31-.14.56-.25.81-.35.23-.1.44-.2.67-.31l.3.7c-.19.05-.51.17-.71.25-.27.11-.61.24-.98.41,0,.34.02.78.02,1.06h-.72c.02-.18.02-.47.03-.73-.45.26-.69.49-.69.79,0,.33.28.42.87.42.51,0,1.18-.07,1.7-.17l-.02.77c-.4.05-1.13.1-1.7.1-.94,0-1.64-.23-1.64-1s.72-1.25,1.4-1.6c-.09-.15-.25-.2-.42-.2-.34,0-.71.19-.94.41-.18.18-.35.4-.56.66l-.64-.48c.63-.58,1.06-1.12,1.33-1.66h-.08c-.25,0-.68-.01-1.01-.04v-.7c.31.05.75.07,1.06.07h.29c.07-.24.11-.47.12-.69l.79.07c-.03.15-.07.35-.15.6Z"/>
            <path class="cls-1" d="m30.24,37.64c-.02.1-.04.26-.07.46.43,0,.82-.04,1.1-.08l-.02.71c-.36.04-.69.06-1.17.06-.04.26-.07.55-.1.82h.04c.37,0,.82-.02,1.2-.07l-.02.71c-.34.03-.68.05-1.06.05h-.24c-.01.18-.02.33-.02.44,0,.5.31.76.89.76.84,0,1.3-.38,1.3-.88,0-.41-.22-.79-.62-1.16l.85-.18c.4.5.58.93.58,1.44,0,.91-.82,1.55-2.13,1.55-.94,0-1.61-.41-1.61-1.41,0-.14.02-.36.04-.61-.44-.04-.83-.11-1.15-.2l.04-.73c.39.13.79.2,1.18.24.04-.27.07-.55.1-.82-.41-.04-.84-.11-1.19-.22l.04-.69c.35.11.8.19,1.24.23.02-.19.04-.35.05-.49.02-.28.02-.4,0-.53l.85.05c-.05.22-.08.38-.1.53Z"/>
            <path class="cls-1" d="m33.85,37.75c.5-.04,1.49-.13,2.58-.23.62-.05,1.28-.09,1.7-.1v.77c-.32,0-.83,0-1.15.08-.73.19-1.27.97-1.27,1.69,0,.98.92,1.34,1.94,1.4l-.28.82c-1.25-.08-2.44-.76-2.44-2.06,0-.86.49-1.55.89-1.85-.56.06-1.79.19-2.48.34l-.08-.82c.24,0,.47-.02.59-.03Z"/>
            <path class="cls-1" d="m41.29,37.48c0,.06,0,.15,0,.25.49-.02.99-.07,1.52-.16v.69c-.4.05-.95.1-1.53.13v.62c.61-.03,1.12-.08,1.6-.14v.71c-.55.06-1.01.1-1.59.12.01.23.02.47.04.71.76.22,1.33.62,1.68.91l-.43.67c-.32-.3-.73-.62-1.21-.83,0,.08,0,.16,0,.22,0,.51-.39.91-1.18.91-.96,0-1.46-.37-1.46-1s.56-1.03,1.48-1.03c.13,0,.25,0,.37.02-.01-.19-.02-.38-.02-.56h-.31c-.35,0-1.03-.03-1.43-.08v-.71c.38.07,1.12.11,1.44.11h.29c0-.2,0-.41,0-.62h-.22c-.38,0-1.07-.05-1.47-.11l-.02-.68c.43.07,1.12.13,1.48.13h.23v-.28c0-.11-.01-.3-.04-.41h.81c-.02.12-.03.27-.04.43Zm-1.21,4.11c.32,0,.53-.09.53-.44,0-.07,0-.15,0-.26-.16-.02-.32-.04-.49-.04-.43,0-.66.17-.66.37,0,.23.22.37.63.37Z"/>
            <path class="cls-1" d="m45.22,37.95c-.02.65-.07,1.99-.07,2.73,0,.61.36.8.83.8.99,0,1.62-.57,2.05-1.22l.55.66c-.38.58-1.24,1.38-2.6,1.38-.98,0-1.62-.43-1.62-1.46,0-.8.06-2.38.06-2.9,0-.28-.02-.57-.08-.81h.97c-.04.26-.07.57-.08.81Z"/>
            <path class="cls-1" d="m51.29,37.69c-.01.07-.03.14-.05.23.34-.05.67-.11,1-.19v.75c-.36.08-.77.15-1.17.2-.05.26-.11.52-.18.77-.22.84-.62,2.06-.95,2.78l-.83-.28c.36-.6.82-1.86,1.04-2.7.04-.16.09-.33.13-.5-.14,0-.27.01-.4.01-.29,0-.52-.01-.73-.02l-.02-.75c.31.04.51.05.76.05.17,0,.35,0,.54-.02.02-.13.04-.25.05-.34.02-.22.04-.47.02-.61l.92.07c-.05.16-.1.43-.13.56Zm.72,3.26c0,.26.18.46.82.46.4,0,.82-.05,1.25-.13l-.03.77c-.34.04-.74.08-1.22.08-1.01,0-1.55-.35-1.55-.95,0-.28.06-.56.11-.8l.71.07c-.05.17-.08.37-.08.5Zm.91-2.07c.34,0,.7.02,1.06.05l-.02.72c-.3-.04-.67-.07-1.03-.07-.41,0-.78.02-1.16.06v-.7c.34-.03.77-.06,1.15-.06Z"/>
          </g>
        </g>
      </g>
    </g>
  </g>
</svg>