<?xml version="1.0" encoding="UTF-8"?>
<svg id="_レイヤー_2" data-name="レイヤー 2" xmlns="http://www.w3.org/2000/svg" viewBox="0 0 83.69 107.3">
  <defs>
    <style>
      .cls-1, .cls-2 {
        fill: #262626;
      }

      .cls-3, .cls-4 {
        fill: #fff;
      }

      .cls-5 {
        fill: #e96b57;
      }

      .cls-4, .cls-6, .cls-7, .cls-2, .cls-8 {
        fill-rule: evenodd;
      }

      .cls-9 {
        fill: none;
        stroke: #262626;
        stroke-linecap: round;
        stroke-linejoin: round;
      }

      .cls-6 {
        fill: #a87e5f;
      }

      .cls-10 {
        fill: #6c94a3;
      }

      .cls-11 {
        fill: #6fa897;
      }

      .cls-12 {
        fill: #6fa998;
      }

      .cls-13 {
        fill: #e5e6e5;
      }

      .cls-7, .cls-14 {
        fill: #fec97e;
      }

      .cls-15, .cls-8 {
        fill: #fdd6b8;
      }
    </style>
  </defs>
  <g id="illustration">
    <g>
      <g>
        <g>
          <path class="cls-3" d="m59.39,14.47c-.6-5.97-4.65-11.3-10.73-13.23-4.79-1.52-9.78-.59-13.6,2.09C31.22.65,26.22-.26,21.43,1.29c-6.08,1.97-10.11,7.34-10.67,13.33C4.87,16.74.61,22.33.5,28.97c-.11,6.84,4.23,12.71,10.34,14.86.58,5.98,4.63,11.32,10.71,13.27,1.57.5,3.16.74,4.72.74,3.21,0,6.31-1.01,8.89-2.81,3.83,2.67,8.83,3.59,13.62,2.05.72-.23,1.41-.51,2.07-.84,2.24,2.34,5.24,4.41,8.85,4.36-1.46-.38-3.85-4.14-4.34-7.69,2.32-2.49,3.78-5.7,4.11-9.12,5.96-2.12,10.22-7.78,10.3-14.4,0,0,0,0,0-.01.11-6.86-4.24-12.75-10.38-14.9Z"/>
          <path class="cls-9" d="m59.39,14.47c-.6-5.97-4.65-11.3-10.73-13.23-4.79-1.52-9.78-.59-13.6,2.09C31.22.65,26.22-.26,21.43,1.29c-6.08,1.97-10.11,7.34-10.67,13.33C4.87,16.74.61,22.33.5,28.97c-.11,6.84,4.23,12.71,10.34,14.86.58,5.98,4.63,11.32,10.71,13.27,1.57.5,3.16.74,4.72.74,3.21,0,6.31-1.01,8.89-2.81,3.83,2.67,8.83,3.59,13.62,2.05.72-.23,1.41-.51,2.07-.84,2.24,2.34,5.24,4.41,8.85,4.36-1.46-.38-3.85-4.14-4.34-7.69,2.32-2.49,3.78-5.7,4.11-9.12,5.96-2.12,10.22-7.78,10.3-14.4,0,0,0,0,0-.01.11-6.86-4.24-12.75-10.38-14.9Z"/>
        </g>
        <g>
          <path class="cls-1" d="m14.73,31.28c-.23.58-.51,1.17-.84,1.74v6.3h-1.02v-4.75c-.24.32-.5.59-.75.85-.1-.25-.38-.84-.56-1.09.85-.81,1.68-2.09,2.17-3.37l.99.32Zm5.44,6.77v1.01h-5.81v-1.01h2.4v-1.79h-1.9v-1.01h1.9v-1.57h-2.19v-1.01h2.56c-.44-.34-1.03-.72-1.5-.99l.71-.77c.67.35,1.58.91,2.03,1.31l-.4.45h2.06v1.01h-2.19v1.57h1.94v1.01h-1.94v1.79h2.32Z"/>
          <path class="cls-1" d="m23.11,31.79c.51,0,1.47-.04,1.89-.08.23,0,.46-.06.61-.13l.72.56c-.13.14-.23.25-.31.38-.23.39-.58,1.17-.9,1.94.7.11,1.37.32,1.95.58,0-.11.02-.21.03-.31.03-.35.03-.71,0-.98l1.18.13c-.04.6-.08,1.16-.17,1.67.38.22.7.42.96.6l-.52,1.25c-.23-.22-.5-.42-.77-.63-.4,1.02-1.08,1.81-2.29,2.44l-.95-.78c1.36-.58,1.99-1.44,2.29-2.26-.64-.35-1.36-.62-2.13-.73-.32.77-.7,1.67-1.02,2.16-.36.54-.79.79-1.4.79-.79,0-1.39-.55-1.39-1.46,0-1.4,1.27-2.46,3.08-2.54.25-.59.51-1.21.72-1.63-.36.02-1.13.05-1.55.07-.18,0-.5.04-.73.07l-.04-1.16c.24.03.55.04.75.04Zm-.79,5.42c.18,0,.31-.09.47-.31.23-.33.48-.9.73-1.47-1.01.15-1.58.77-1.58,1.33,0,.3.17.45.38.45Z"/>
          <path class="cls-1" d="m36.57,33.81c.37.51.87.94,1.49,1.18-.22.19-.52.56-.67.81-.68-.34-1.23-.92-1.63-1.61-.27.45-.67.89-1.31,1.25h2.33v3.87h-1.1v-.25h-3.9v.29h-1.04v-3.81c-.15.11-.32.22-.5.31-.14-.22-.47-.55-.71-.73.77-.37,1.21-.84,1.45-1.31h-1.26v-.85h1.53c.03-.18.04-.35.04-.51h-1.28v-.81h1.28v-.7h1.02v.7h1.08v.81h-1.08c0,.17-.02.33-.04.51h1.22v.85h-1.19c.4.3.86.63,1.12.84l-.68.72c-.23-.23-.63-.56-1.01-.86-.22.32-.5.64-.87.93h3.12c-.16-.21-.38-.44-.56-.58.72-.27,1.14-.65,1.38-1.05h-1.03v-.85h1.32c.03-.17.04-.33.04-.49v-.03h-1.22v-.81h1.22v-.7h1.03v.7h1.35v.81h-1.35v.04c0,.15,0,.31-.03.47h1.68v.85h-1.25Zm-.89,2.52h-3.9v.5h3.9v-.5Zm0,1.84v-.56h-3.9v.56h3.9Z"/>
          <path class="cls-1" d="m43.84,34.58c-.41.35-1.25,1.12-1.47,1.36.08,0,.24.03.34.06.26.08.42.28.54.61.08.24.18.58.26.82.08.28.28.42.63.42.69,0,1.31-.07,1.76-.16l-.07,1.18c-.37.07-1.3.14-1.76.14-.86,0-1.31-.19-1.54-.77-.09-.27-.2-.69-.26-.92-.1-.32-.3-.43-.48-.43-.19,0-.38.14-.59.36-.31.32-.98,1.05-1.6,1.85l-1.06-.75c.16-.14.38-.32.62-.56.46-.47,2.3-2.3,3.12-3.17-.63.02-1.71.12-2.22.16-.31.03-.58.07-.77.1l-.11-1.24c.21.02.53.04.86.03.42,0,2.47-.09,3.21-.19.17-.02.41-.06.51-.1l.66.75c-.23.16-.42.32-.58.46Zm.27-2.88l-.14,1.05c-.95-.07-2.63-.27-3.7-.45l.17-1.04c1.01.19,2.74.38,3.67.44Z"/>
          <path class="cls-1" d="m48.58,31.74c.48,0,2.4-.04,2.92-.08.37-.04.58-.06.68-.1l.59.8c-.21.14-.42.26-.63.41-.49.34-1.43,1.13-2,1.58.3-.07.57-.1.86-.1,1.53,0,2.69.95,2.69,2.27,0,1.42-1.08,2.55-3.26,2.55-1.25,0-2.2-.58-2.2-1.48,0-.73.66-1.4,1.61-1.4,1.12,0,1.79.68,1.92,1.54.5-.26.75-.68.75-1.22,0-.81-.81-1.36-1.87-1.36-1.38,0-2.28.73-3.24,1.83l-.82-.85c.64-.51,1.73-1.43,2.26-1.87.5-.41,1.44-1.17,1.88-1.56-.46,0-1.7.06-2.18.09-.24.02-.53.04-.74.07l-.04-1.17c.25.04.57.05.82.05Zm1.62,6.31c.19,0,.36,0,.52-.03-.05-.58-.39-.96-.87-.96-.34,0-.56.21-.56.43,0,.33.37.56.91.56Z"/>
          <path class="cls-1" d="m55.8,37.85c0-.48.34-.8.79-.8s.79.32.79.8-.34.79-.79.79-.79-.32-.79-.79Zm.09-4.68l-.05-1.34h1.49l-.04,1.34-.24,3.08h-.92l-.24-3.08Z"/>
        </g>
        <g>
          <path class="cls-1" d="m26.3,15.42c-.11-.18-.31-.45-.51-.7v2.26h-.7v-2.22c-.25.53-.53,1.04-.83,1.39-.07-.2-.23-.5-.35-.68.38-.4.77-1.07,1.03-1.66h-.88v-.68h1.03v-.73c-.29.05-.59.1-.87.14-.03-.16-.12-.4-.2-.55.79-.13,1.67-.34,2.19-.58l.5.55c-.28.11-.59.2-.92.29v.89h.91v.68h-.91v.14c.21.19.79.78.94.93l-.43.53Zm2.56,1.58c-.02-.16-.05-.35-.1-.55-.89.13-1.81.26-2.51.34l-.17-.75c.16-.01.35-.03.56-.05.32-1.25.64-3.03.78-4.46l.82.13c-.2,1.42-.52,3.05-.85,4.26.38-.04.79-.08,1.2-.13-.13-.43-.29-.89-.46-1.28l.68-.19c.36.79.71,1.79.8,2.45l-.76.24Z"/>
          <path class="cls-1" d="m32.36,12.25c-.01.07-.03.14-.05.23.34-.05.67-.11,1-.19v.75c-.36.08-.77.15-1.17.2-.05.26-.11.52-.18.77-.22.84-.62,2.06-.95,2.78l-.83-.28c.36-.6.82-1.86,1.04-2.7.04-.16.09-.33.13-.5-.14,0-.27.01-.4.01-.29,0-.52-.01-.73-.02l-.02-.75c.31.04.51.05.76.05.17,0,.35,0,.54-.02.02-.13.04-.25.05-.34.02-.22.04-.47.02-.61l.92.07c-.05.16-.1.43-.13.56Zm.72,3.26c0,.26.18.46.82.46.4,0,.82-.05,1.25-.13l-.03.77c-.34.04-.74.08-1.22.08-1.01,0-1.55-.35-1.55-.95,0-.28.06-.56.11-.8l.71.07c-.05.17-.08.37-.08.5Zm.91-2.07c.34,0,.7.02,1.06.05l-.02.72c-.3-.04-.67-.07-1.03-.07-.41,0-.78.02-1.16.06v-.7c.34-.03.77-.06,1.15-.06Z"/>
          <path class="cls-1" d="m37.75,12.3c-.01.05-.02.12-.04.19.68-.04,1.49-.13,2.22-.28v.71c-.61.1-1.56.22-2.37.26-.08.37-.18.75-.27,1.04.49-.27.95-.38,1.49-.38.97,0,1.61.52,1.61,1.28,0,1.35-1.3,1.84-3.24,1.62l-.21-.77c1.31.22,2.64.05,2.64-.83,0-.36-.31-.66-.89-.66-.69,0-1.3.25-1.66.7-.07.08-.11.16-.17.26l-.71-.25c.29-.56.53-1.36.68-2.02-.38,0-.73-.02-1.04-.05v-.74c.36.06.81.11,1.18.11.01-.09.02-.17.04-.25.04-.26.04-.41.03-.61l.85.04c-.07.21-.1.41-.14.61Z"/>
          <path class="cls-1" d="m43.4,12.2c-.02.1-.04.26-.07.46.43,0,.82-.04,1.1-.08l-.02.71c-.36.04-.69.06-1.17.06-.04.26-.07.55-.1.82h.04c.37,0,.82-.02,1.21-.07l-.02.71c-.34.03-.68.05-1.06.05h-.24c-.01.18-.02.33-.02.44,0,.5.31.76.89.76.84,0,1.3-.38,1.3-.88,0-.41-.22-.79-.62-1.16l.85-.18c.4.5.58.93.58,1.44,0,.91-.82,1.55-2.13,1.55-.94,0-1.61-.41-1.61-1.41,0-.14.02-.36.04-.61-.44-.04-.83-.11-1.15-.2l.04-.73c.39.13.79.2,1.18.24.04-.27.07-.55.1-.82-.41-.04-.84-.11-1.19-.22l.04-.69c.35.11.8.19,1.24.23.02-.19.04-.35.05-.49.02-.28.02-.4,0-.53l.85.05c-.05.22-.08.38-.1.53Z"/>
          <path class="cls-1" d="m16.67,24.79c.51.47,1.24.89,1.94,1.13-.17.14-.4.43-.51.62-.7-.29-1.42-.81-1.97-1.4v1.46h-.74v-1.43c-.54.58-1.24,1.06-1.93,1.36-.11-.17-.34-.46-.49-.6.68-.23,1.39-.66,1.89-1.13h-1.21v-2.29h1.75v-.34h-2.25v-.67h2.25v-.49h.74v.49h2.31v.67h-2.31v.34h1.83v2.29h-1.29Zm-2.33-1.4h1.06v-.35h-1.06v.35Zm0,.87h1.06v-.37h-1.06v.37Zm1.79-1.22v.35h1.1v-.35h-1.1Zm1.1.86h-1.1v.37h1.1v-.37Z"/>
          <path class="cls-1" d="m20.81,24.61c.22.15.71.55.85.65l-.41.51c-.1-.12-.26-.3-.44-.47v1.28h-.69v-1.21c-.23.34-.5.64-.76.85-.11-.16-.31-.39-.46-.5.39-.26.8-.71,1.08-1.16h-.91v-.6h1.06v-.46h-1.07v-.59h.55c-.02-.2-.1-.46-.18-.66l.37-.08h-.67v-.58h1.01v-.55h.69v.55h1v.58h-.62l.35.07c-.11.26-.2.5-.29.68h.61v.59h-1.04v.46h.99v.6h-.99v.05Zm-.83-2.44c.1.2.18.48.2.66l-.3.08h1.18l-.4-.08c.08-.18.17-.46.22-.66h-.91Zm4.59,1.46h-.57v2.93h-.69v-2.93h-.61c0,.89-.13,2.16-.92,2.98-.09-.16-.35-.4-.51-.49.69-.73.76-1.75.76-2.58v-2.07l.41.11c.57-.14,1.16-.33,1.53-.53l.57.52c-.53.23-1.21.42-1.84.55v.84h1.87v.66Z"/>
          <path class="cls-1" d="m30.06,22.32c-.28.47-.85,1.22-1.44,1.64l-.62-.5c.48-.29.95-.82,1.1-1.12h-3.12c-.25,0-.45.02-.73.04v-.83c.23.04.48.06.73.06h3.23c.17,0,.5-.02.61-.05l.47.44c-.07.08-.18.22-.23.31Zm-3.87,4.08l-.7-.57c.19-.07.41-.17.63-.33.76-.53.91-1.16.91-2.15,0-.19-.01-.35-.04-.54h.87c0,1.49-.03,2.71-1.66,3.59Z"/>
          <path class="cls-1" d="m32.88,22.67c.62-.38,1.3-.98,1.69-1.46l.65.62c-.46.45-1.03.92-1.61,1.3v2.42c0,.26.01.64.05.79h-.95c.02-.14.04-.52.04-.79v-1.92c-.62.32-1.38.65-2.12.86l-.38-.76c1.07-.28,1.95-.67,2.62-1.07Z"/>
          <path class="cls-1" d="m40.39,23.46c-.18.58-.44,1.16-.89,1.66-.61.67-1.37,1.08-2.14,1.29l-.59-.68c.9-.19,1.62-.58,2.07-1.05.32-.33.51-.7.62-1.04h-2.9c-.14,0-.44,0-.7.03v-.78c.25.02.51.04.7.04h2.97c.19,0,.35-.02.44-.06l.53.33c-.04.08-.09.19-.11.25Zm-3.35-1.96h2.31c.19,0,.48,0,.65-.03v.77c-.16-.01-.44-.02-.66-.02h-2.3c-.19,0-.45,0-.62.02v-.77c.17.02.42.03.62.03Z"/>
          <path class="cls-1" d="m43.64,24.72c1.03-.61,1.81-1.52,2.18-2.33l.47.85c-.46.81-1.25,1.64-2.22,2.22-.61.37-1.38.7-2.23.85l-.5-.79c.94-.13,1.71-.44,2.3-.79Zm0-1.94l-.61.62c-.31-.34-1.06-.99-1.5-1.3l.56-.6c.42.28,1.2.91,1.55,1.27Z"/>
          <path class="cls-1" d="m47.63,22.14c0-.22-.02-.51-.06-.73h.94c-.02.21-.05.47-.05.73v.88c.8.24,1.95.67,2.51.94l-.34.83c-.62-.33-1.52-.68-2.17-.89v1.7c0,.17.03.59.06.83h-.94c.04-.23.06-.6.06-.83v-3.45Zm2.94.38l-.52.23c-.17-.38-.31-.62-.53-.93l.5-.21c.17.25.41.64.55.91Zm.8-.35l-.5.25c-.19-.38-.34-.6-.56-.9l.5-.23c.17.24.43.62.56.89Z"/>
          <path class="cls-1" d="m53.28,22.01c-.08.4-.29,1.6-.29,2.2,0,.11,0,.27.02.39.09-.2.19-.41.27-.61l.37.29c-.17.5-.37,1.15-.43,1.47-.02.09-.03.22-.03.28,0,.07,0,.16.01.25l-.7.05c-.12-.41-.23-1.15-.23-1.96,0-.9.19-1.91.25-2.37.02-.17.05-.4.06-.59l.84.07c-.05.13-.13.43-.15.53Zm1.48,2.93c0,.26.23.43.84.43.53,0,.98-.05,1.51-.16v.81c-.38.07-.86.11-1.54.11-1.03,0-1.53-.37-1.53-.98,0-.23.04-.47.1-.78l.69.07c-.05.2-.07.34-.07.5Zm2.17-3.07v.77c-.74.07-1.82.07-2.58,0v-.77c.74.1,1.93.07,2.58,0Z"/>
        </g>
      </g>
      <g>
        <g>
          <path class="cls-3" d="m69.2,66.61l.06.82c.06.75.45,1.35.94,1.44l.54.09-.54.09c-.49.09-.88.68-.94,1.44l-.06.82-.06-.82c-.06-.75-.45-1.35-.94-1.44l-.54-.09.54-.09c.49-.09.89-.68.94-1.44l.06-.82Z"/>
          <path class="cls-3" d="m52.23,63.93l.06.82c.06.76.45,1.35.94,1.44l.54.09-.54.09c-.49.09-.88.68-.94,1.44l-.06.82-.06-.82c-.06-.75-.45-1.35-.94-1.44l-.54-.09.54-.09c.49-.09.89-.68.94-1.44l.06-.82Z"/>
          <path class="cls-3" d="m71.58,91.91l.06.82c.06.76.45,1.35.94,1.44l.54.09-.54.09c-.49.09-.88.68-.94,1.44l-.06.82-.06-.82c-.06-.75-.45-1.35-.94-1.44l-.54-.09.54-.09c.49-.09.89-.68.94-1.44l.06-.82Z"/>
          <path class="cls-3" d="m59.23,69.8l.03.45c.03.41.24.73.51.78l.29.05-.29.05c-.27.05-.48.37-.51.78l-.03.45-.03-.45c-.03-.41-.24-.73-.51-.78l-.29-.05.29-.05c.27-.04.48-.37.51-.78l.03-.45Z"/>
          <path class="cls-3" d="m62.21,94.63l.03.45c.03.41.24.73.51.78l.29.05-.29.05c-.27.05-.48.37-.51.78l-.03.45-.03-.45c-.03-.41-.24-.73-.51-.78l-.29-.05.29-.05c.27-.04.48-.37.51-.78l.03-.45Z"/>
          <path class="cls-3" d="m38.77,69.86l.03.45c.03.41.24.73.51.78l.29.05-.29.05c-.27.05-.48.37-.51.78l-.03.45-.03-.45c-.03-.41-.24-.73-.51-.78l-.29-.05.29-.05c.27-.04.48-.37.51-.78l.03-.45Z"/>
        </g>
        <g>
          <path class="cls-5" d="m45.47,92.05c3.36-.49,4.18-1.72,6.07-3.87.06-.02.15-.05.18-.1-2.03.17-4.09-.05-6.04-.64l-.08.02c-.6,1.01-.5,2.66-.8,4.76.2-.06.42-.12.66-.18h0Z"/>
          <path class="cls-5" d="m42.29,93.37c.13-1.56-.39-5-.13-7.04-2.14,2.36-4.41-.73-9.18,2.79-.01,0,.49,5.55,2.97,6.5,0,0,2.1-.25,4.67-1.39.45-.3,1.23-.63,1.68-.86h0Z"/>
          <path class="cls-13" d="m48.79,95.6c-.37.85-1.38,1.45-2.23,1.73-1.15-.62-3.44-1.89-4.11-3.65h1.93c.82.25,1.28.2,2.13.24.22.06,2.45.5,1.65.9.02,0,.03.02.05.03v-.04c.26.2.7.4.58.8h0Zm-3.17-8.14l.08-.02c1.95.6,4.01.81,6.04.64-2.93,3-2.47,3.1-6.93,4.25.3-2.08.22-3.86.81-4.87h0Zm32.58-5.1s-8.15,1.65-8.94,1.9c-.84.28-6.9.37-6.95.43-.04.15-.94.15-1.19.41-.92,1.33-3.26,1.87-4.9,1.75-2.94-.29-6.06-1.81-8.6-3.12-1.94.09-3.41.04-4.77.6-1.59,1.92-.29,7.02-.57,9.03-.51.29-1.44.59-1.86,1.04l-.07.03c.48.89,2.36,5.94,3.95,6.72.29.06,7.14-2.76,13.16-6.67,2.62-1.7,4.21-4.18,4.7-4.63.5-.45,6.16-1.4,7.16-1.7,1-.31,9.37-3.84,9.37-3.84.18-.66-.05-1.46-.51-1.95h0Z"/>
          <path class="cls-15" d="m48.63,95.14c-.21-.18-.19-.2-.43-.33v.04s-.02-.02-.04-.03c.8-.41-1.44-.84-1.65-.9-.85-.04-1.31.01-2.13-.23h-1.93c.32,1.29,3.61,3.85,4.4,3.56.61-.35,2.48-1.27,1.78-2.11h0Z"/>
          <path class="cls-5" d="m56.82,84.75c2.21.22,3.96.4,3.97.41-.07,0-1.79-.18-3.97-.41h0Zm-9.14-.94c.06,0,.12,0,.17,0,0,0,.33.04.89.1-.59-.06-.96-.1-.99-.1h-.07Zm13.11,1.34s.31-.1.31-.1c-.13.05-1.77,0-3.19-.76-2.5-1.35-6.5-2.85-9.33-3.38-2.12-.55-3.68,1.48-4.98,3.26.97-.23,2.49-.32,4.04-.35-.02-.01-.03-.02-.03-.02,3.74,1.84,10.01,5.08,13.53,1.39l-.34-.03h0Z"/>
          <path class="cls-5" d="m54.72,82.66c.24.11.46.28.7.4.16.08.3.17.46.24.15.07.31.14.47.13.14-.24.29-.53.22-.81-.06-.25-.2-.47-.31-.69-.08-.17-.15-.34-.23-.52-.08-.19-.17-.38-.29-.56-.06-.09-.12-.17-.2-.24-.18.53-.33,1.21-.4,1.46-.1.35-.26.51-.45.58,0,0,.01,0,.02,0h0Z"/>
          <path class="cls-3" d="m9.52,96.86s-.84-.74-1.31-.62c-.47.11-.93.91-1.34,1.49-.27.38-.39.64-.63.85-1.37,1.17-2.15,2.37-2.74,3.5-1.11,2.12.59,1.63.59,1.63l5.43-6.85h0Z"/>
          <path class="cls-14" d="m8.2,100.19s0-.02,0-.02h.08s-.05.01-.07.02h0Zm2.17-.62c.11-.66.73-1.4,1.07-1.68-.14-.07-.28-.15-.43-.23-.41-.23-.75-.43-1.1-.61-.26.07-.53.14-.82.19-.27.05-.56.06-.81.03-.18.2-.39.47-.64.82-.3.41-.78.82-1.8,1.79-.82.79-1.99,2.4-2.13,3.3-.12.77.9.61,1.65.16.49-.29.89-.63,1.3-.94,1.66-1.26,3.04-1.08,3.04-1.08.33.06.57.19.84.26.13.03.28,0,.42-.09-.27-.04-.43-.06-.44-.08-.09-.17-.34-.74-.15-1.85h0Z"/>
          <path class="cls-1" d="m5.38,100.62c-.69.81-1.41,1.92-1.52,2.59-.03.21.05.26.08.28.21.14.8.01,1.32-.29.39-.23.73-.49,1.05-.75.6-.46,1.16-.9,1.99-1.15,1.04-.32,1.56-.13,1.98.03.1.04.2.07.29.1.18.05.48-.16.66-.46.12-.19.19-.45.05-.6-.1-.1-.87-.43-2.11-.28-.66.08-1.33.47-1.86.79-.48.28-.83.49-1.09.44-.19-.04-.25-.11-.32-.22-.06-.09-.15-.22-.5-.46,0,0,0,0,0,0h0Zm-1.19,3.28c-.17,0-.33-.03-.45-.12-.13-.09-.28-.27-.22-.62.15-.98,1.39-2.63,2.18-3.4.28-.27.52-.5.73-.69.54-.51.84-.79,1.05-1.08.95-1.3,1.34-1.59,1.88-1.37.5.19.9.43,1.37.7.11.06.22.13.34.2.64.36,1.07.56,1.73.86.57.26,1.32.47,2.11.7.14.04.28.08.42.12.09.03.14.12.12.21-.03.09-.12.14-.21.12-.14-.04-.28-.08-.42-.12-.81-.23-1.57-.45-2.16-.72-.67-.3-1.11-.5-1.76-.87-.12-.07-.24-.13-.35-.2-.46-.26-.85-.49-1.33-.67-.27-.11-.51-.08-1.48,1.26-.23.31-.55.62-1.09,1.13-.21.19-.45.42-.72.69-.11.1-.22.22-.34.35.38.27.5.44.57.54q.04.06.1.07c.14.03.52-.2.85-.4.56-.33,1.26-.74,1.99-.83,1.29-.16,2.2.17,2.41.38.23.25.23.63,0,1.02-.23.38-.66.72-1.05.62-.11-.03-.22-.07-.32-.11-.41-.15-.83-.31-1.76-.02-.77.24-1.31.66-1.88,1.1-.34.26-.68.53-1.09.77-.37.22-.85.4-1.24.4h0Z"/>
          <path class="cls-1" d="m3.73,103.93c-.21,0-.46-.05-.62-.25-.26-.32-.18-.87.25-1.69.51-.98,1.3-2.27,2.78-3.55.15-.13.25-.28.39-.5.06-.1.13-.2.21-.31.07-.1.14-.2.21-.3.38-.56.78-1.15,1.23-1.26.54-.13,1.37.58,1.46.66.07.06.08.17.02.24-.06.07-.17.08-.24.02-.3-.26-.87-.65-1.15-.59-.33.08-.72.65-1.03,1.12-.07.11-.14.21-.21.31-.08.11-.14.21-.2.31-.15.23-.27.41-.45.57-1.44,1.24-2.2,2.49-2.7,3.45-.46.88-.38,1.2-.29,1.31.15.18.55.12.67.08.09-.03.19.03.21.12.03.09-.03.19-.12.21-.04.01-.21.06-.41.06h0Z"/>
          <path class="cls-1" d="m13.55,101.7s-.05,0-.07-.01c-.87-.36-1.87-.71-1.88-.71-.09-.03-.14-.13-.11-.22s.13-.14.22-.11c.01,0,1.02.35,1.9.72.09.04.13.14.09.23-.03.07-.09.11-.16.11h0Z"/>
          <path class="cls-1" d="m11.05,100.11s-.06,0-.09-.02c-.08-.05-.11-.16-.06-.24.16-.26.15-.5.15-.73,0-.5.06-.86.94-1.04.09-.02.18.04.2.14.02.09-.04.18-.13.2-.66.13-.66.32-.66.7,0,.25,0,.57-.2.91-.03.05-.09.08-.15.08h0Z"/>
          <path class="cls-1" d="m6.74,99.2c-.07,0-.14-.05-.17-.12-.03-.09.03-.19.12-.21.71-.2,1.08-.12,1.38-.06.18.04.32.07.5.03.1-.02.2-.04.31-.07.55-.12,1.31-.3,2.33-.04.09.02.15.12.13.21s-.12.15-.21.13c-.94-.23-1.65-.07-2.17.05-.12.03-.23.05-.33.07-.25.04-.45,0-.63-.04-.28-.06-.59-.12-1.21.05-.02,0-.03,0-.05,0h0Z"/>
          <path class="cls-1" d="m6.63,102.59s-.07-.01-.1-.03c-.08-.05-.1-.16-.04-.24.24-.35-.07-.97-.25-1.23-.01-.02-.02-.03-.04-.05-.05-.08-.03-.18.04-.24.08-.05.18-.04.24.04,0,0,.01.02.03.04.17.25.38.51.53.68,0-.06,0-.11,0-.17-.05-.82-.04-1,.13-1.07.22-.09.31.15.5.61.03.07.06.15.1.23.03-.15.05-.33.07-.46.07-.55.11-.8.34-.77.14.01.16.07.38.81,0,.03.02.06.03.09.08-.22.16-.51.21-.71.12-.45.15-.61.33-.62.05,0,.1.02.13.05.09.08.1.2.13.76,0,.13.02.31.03.46.1-.16.22-.36.32-.53.4-.67.42-.71.56-.7.06,0,.12.05.15.11.12.23-.08,1.28-.28,1.65-.05.08-.15.12-.23.07-.08-.05-.12-.15-.07-.23.1-.19.19-.53.23-.83-.02.04-.04.07-.06.11-.27.45-.45.75-.55.85-.06.06-.14.08-.22.05-.15-.06-.18-.21-.22-.81-.11.4-.22.72-.39.87-.04.04-.11.06-.16.04q-.11-.03-.27-.58s-.03-.09-.04-.14c0,.02,0,.03,0,.05-.09.64-.14.89-.32.95-.21.06-.31-.16-.49-.6,0,.1.01.2.01.28.03.56.04.64-.12.68-.05.01-.14.04-.34-.14.02.21-.02.42-.15.6-.03.05-.09.07-.14.07h0Z"/>
          <path class="cls-3" d="m15.3,92.68s-.52-.99-1-1.05-1.2.52-1.78.91c-.38.26-.59.46-.89.56-1.69.61-2.85,1.44-3.81,2.29-1.8,1.59-.04,1.74-.04,1.74l7.52-4.45h0Z"/>
          <path class="cls-14" d="m12.95,95.31s-.05,0-.08,0c0,0,0-.02,0-.02l.08.02h0Zm-3.87,1.93c.29-.05.56-.12.82-.19.25-.07.49-.15.73-.22,2.01-.59,3.23.08,3.23.08.29.17.46.38.68.54-.04-.06-.07-.13-.08-.21-.03-.35.06-1,.93-1.83.51-.49,1.23-.67,1.64-.73-.21-.22-.4-.45-.64-.73-.46-.56-.79-1-1.27-1.43-.32-.29-.65-.28-2.04.63-.43.28-1.02.48-2.32,1.03-1.05.44-2.72,1.52-3.17,2.32-.26.46.12.71.67.77.25.03.54.02.81-.03h0Z"/>
          <path class="cls-1" d="m12.28,96.37c.09,0,.19,0,.29,0,1.09.07,1.5.44,1.84.73.08.07.16.14.24.2.15.11.51.02.78-.19.18-.14.34-.36.26-.55-.05-.13-.66-.72-1.87-1.02-.65-.16-1.41-.03-2.02.07-.55.09-.95.16-1.18.02-.16-.1-.2-.2-.22-.32-.02-.1-.06-.26-.3-.61,0,0,0,0,0,0-.93.51-2,1.28-2.34,1.88-.1.18-.05.27-.03.29.15.21.75.3,1.33.2.45-.08.86-.2,1.25-.32.64-.19,1.25-.38,1.98-.38h0Zm2.55,1.33c-.14,0-.27-.03-.38-.11-.09-.07-.18-.14-.26-.22-.33-.29-.67-.58-1.63-.65-.8-.05-1.46.14-2.15.35-.41.12-.83.25-1.29.33-.62.11-1.4.05-1.68-.34-.09-.13-.16-.35.01-.66.49-.86,2.24-1.96,3.26-2.39.36-.15.66-.28.93-.39.69-.28,1.07-.44,1.37-.63,1.35-.88,1.82-1,2.25-.61.4.36.69.72,1.03,1.14.08.1.16.2.25.31.47.56.8.91,1.31,1.42.44.44,1.06.91,1.72,1.41.12.09.24.18.35.27.08.06.09.17.03.24s-.17.09-.24.03c-.12-.09-.24-.18-.35-.27-.67-.51-1.3-.98-1.76-1.44-.52-.52-.86-.87-1.33-1.44-.09-.11-.17-.21-.25-.31-.33-.41-.62-.76-1-1.1-.22-.2-.45-.25-1.83.64-.32.21-.74.38-1.42.66-.26.11-.57.23-.92.38-.14.06-.28.13-.44.2.26.39.31.59.34.71q.02.07.07.1c.12.07.56,0,.94-.06.64-.11,1.44-.24,2.16-.06,1.26.31,2,.95,2.11,1.22.13.31,0,.67-.36.95-.23.18-.54.32-.82.32h0Z"/>
          <path class="cls-1" d="m7.78,97.3s-.01,0-.02,0c-.08,0-.74-.08-.9-.55-.13-.39.15-.88.84-1.49.83-.73,2.02-1.66,3.87-2.32.19-.07.34-.17.54-.33.09-.07.19-.14.31-.22.1-.07.2-.14.3-.21.56-.39,1.14-.8,1.6-.73.55.07,1.07,1.03,1.13,1.14.04.08.01.19-.07.23-.08.04-.19.01-.23-.07-.18-.35-.58-.92-.87-.96-.33-.04-.9.35-1.36.67-.1.07-.21.15-.31.21-.11.08-.21.15-.3.21-.22.16-.4.29-.63.37-1.79.64-2.95,1.54-3.76,2.25-.75.66-.78.98-.74,1.12.07.22.47.3.6.31.09,0,.17.09.16.19,0,.09-.08.16-.17.16h0Z"/>
          <path class="cls-1" d="m16.11,95.33s-.07-.01-.1-.03c-.79-.55-1.52-.66-2.04-.73-.12-.02-.23-.03-.33-.05-.25-.05-.42-.16-.58-.26-.24-.15-.5-.33-1.15-.38-.1,0-.17-.09-.16-.19,0-.09.09-.17.19-.16.73.06,1.05.27,1.31.44.15.1.27.18.46.21.1.02.2.03.32.05.56.08,1.33.19,2.19.79.08.05.1.16.04.24-.03.05-.09.07-.14.07h0Z"/>
          <path class="cls-1" d="m14.2,97.09s-.1-.02-.13-.06c-.06-.07-.05-.18.02-.24.17-.14.36-.43.51-.69-.03.03-.07.05-.1.08-.41.32-.69.54-.82.59-.08.04-.16.02-.22-.03-.12-.11-.09-.26.09-.83-.25.34-.47.59-.67.67-.06.02-.12.01-.17-.02q-.09-.06-.05-.63s0-.09.01-.14c0,.01-.02.03-.02.04-.31.57-.45.78-.64.77-.22-.02-.23-.26-.24-.73-.03.1-.06.19-.09.26-.17.53-.2.61-.36.59-.05,0-.14-.02-.26-.25-.06.2-.17.38-.35.51-.08.05-.19.03-.24-.05-.05-.08-.03-.19.05-.24.41-.28.23-1.14.2-1.28,0,0,0-.02,0-.02-.02-.09.03-.18.12-.21.09-.02.18.03.21.12,0,0,0,.02.01.05.07.29.17.61.25.82.02-.05.03-.11.05-.16.25-.78.32-.95.5-.95.23,0,.24.25.25.75,0,.07,0,.17,0,.25.08-.13.16-.29.23-.4.26-.48.38-.7.59-.6.13.07.12.13.07.89,0,.03,0,.06,0,.1.16-.18.33-.42.45-.59.27-.38.36-.51.53-.46.04.01.09.05.11.09.05.1.02.23-.15.76-.04.12-.1.29-.14.44.15-.11.34-.26.49-.38.61-.48.65-.51.78-.45.06.03.09.08.1.15.03.26-.53,1.16-.86,1.44-.03.03-.07.04-.11.04h0Z"/>
          <path class="cls-15" d="m21.7,84.09c-.31-.41-.39-.94-.67-1.37-.23-.36-.6-.63-1.01-.74-.32-.09-.65-.08-.97-.15-.2-.04-.4-.12-.6-.15-.48-.08-.97.03-1.44.15.17.14.35.28.53.42,1.1.88,2.06,1.94,2.83,3.11.02.03.04.05.06.06.04,0,.07-.02.1-.04.35-.26.73-.47,1.14-.62.13-.05.43-.08.41-.26-.01-.11-.32-.32-.39-.41h0Z"/>
          <path class="cls-12" d="m22.63,81.95c-.59-.28-1.18-.41-2.13-.69-.96-.27-2.7-1.01-3.9-1.23-.89-.16-1.05.03-.99.42h0c-.1.23.17.61.79,1.02.14.1.3.2.44.32.05.04.38-.04,1.06-.11.82-.07,2.15.31,2.74.72.46.32.63,1.03.88,1.47.22.38.57.54.59.5.1-.22.2-.42.28-.63.15-.34.31-.65.35-.91.17-.41.43-.62-.14-.88h0Z"/>
          <path class="cls-1" d="m22.75,85.71c-.06,0-.11-.03-.14-.08-.09-.14-.19-.26-.29-.38-.25-.31-.49-.6-.34-.95.04-.09.14-.13.23-.09.09.04.13.14.09.23-.06.16.06.32.29.6.1.12.21.25.31.4.05.08.03.19-.05.24-.03.02-.06.03-.1.03h0Z"/>
          <path class="cls-1" d="m18.13,81.49c.89,0,2.08.38,2.63.76.36.25.55.69.72,1.08.07.16.14.32.21.44.11.19.26.32.35.38.08-.16.15-.32.21-.48.03-.07.06-.14.09-.2.22-.49.35-.8.18-.95-.27-.22-1.07-.45-1.71-.63-.24-.07-.47-.13-.66-.19-.04-.01-.19-.07-.39-.14-.56-.2-1.61-.58-2.23-.78-.91-.27-1.58-.36-1.7-.32-.06.03-.06.06-.06.08,0,.11.14.39.73.78l.04.03c.12.08.26.18.38.28.05,0,.17-.02.28-.04.17-.02.4-.06.69-.09.07,0,.15,0,.22,0h0Zm3.99,3.05c-.16,0-.52-.23-.73-.59-.08-.14-.15-.31-.23-.48-.16-.37-.32-.74-.6-.94-.53-.37-1.82-.76-2.62-.69-.28.03-.51.06-.68.09-.33.05-.43.06-.52-.01-.13-.1-.26-.2-.39-.29l-.04-.02c-.41-.27-.91-.68-.89-1.08,0-.16.1-.29.25-.37.34-.17,1.79.25,1.95.3.63.19,1.69.58,2.25.78.2.07.34.12.38.14.19.06.41.12.65.19.74.21,1.51.43,1.84.7.38.32.15.82-.09,1.35-.03.06-.06.13-.09.19-.08.21-.18.41-.29.63-.04.07-.1.1-.17.1h0Z"/>
          <path class="cls-1" d="m20.9,86.47c-.06,0-.12-.03-.15-.09-.69-1.32-1.04-1.71-1.55-2.31-.14-.16-.29-.34-.47-.55-.25-.33-1.43-1.24-1.87-1.58-.08-.06-.09-.17-.03-.24.06-.08.17-.09.24-.03.82.63,1.69,1.32,1.93,1.64.17.2.32.38.46.54.54.61.89,1.02,1.6,2.37.04.08.01.19-.07.23-.03.01-.05.02-.08.02h0Z"/>
          <path class="cls-1" d="m22.76,83.02s-.04,0-.06-.01c-.09-.03-.13-.13-.1-.22.04-.09.07-.17.11-.24.05-.11.11-.21.09-.26,0-.02-.05-.09-.25-.18-.44-.21-.87-.33-1.47-.5-.19-.05-.4-.11-.63-.18-.36-.1-.84-.27-1.35-.45-.84-.3-1.8-.64-2.53-.77-.59-.1-.73-.03-.77,0-.03.03-.03.1-.02.21.02.09-.05.18-.14.2-.09.02-.18-.05-.2-.14-.03-.15-.04-.36.11-.51.17-.17.49-.2,1.07-.1.76.14,1.73.48,2.59.79.5.18.97.35,1.33.45.23.07.44.13.63.18.62.17,1.06.3,1.53.52.24.11.37.23.43.38.06.19-.02.35-.11.53-.03.07-.07.14-.1.21-.03.07-.09.11-.16.11h0Z"/>
          <path class="cls-15" d="m29.44,82.32c-.02.24,0,.48-.04.72-.05.43-.23.84-.4,1.24-.31.73-.63,1.47-.94,2.2.66.25,1.22.73,1.57,1.35.07-.31.06-.66.25-.92.07-.1.21-.18.24-.29.03-.12.11-.21.11-.34.03-.5.47-.87.67-1.34.1-.24.14-.51.15-.77.03-.86-.18-1.72-.59-2.47-.11-.2-.4-.79-.72-.62-.25.13-.28.99-.3,1.24h0Z"/>
          <path class="cls-15" d="m72.1,75.89c-.84.2-2.55.58-3.45.89-1.06.36-3.18.56-3.18.56l.5,1.71s.66-.22,1.31-.29c.65-.07,2.04.42,2.8.38.18-.01.35-.01.51,0,0,0,.5.14.61.16.61.09.7-.71.75-1.2.05-.49-.44-.87-.69-1.09,0,0-.37.14-.15.03.56-.26,1.38-.48,2.02-.77.44-.2.85-.46.83-.67-.04-.42-1.01.09-1.85.29h0Z"/>
          <path class="cls-1" d="m71.12,79.32c-.09,0-.19,0-.3,0-.21,0-.46-.02-.73,0-.4.03-.95-.09-1.49-.2-.49-.1-1-.21-1.3-.18-.63.06-1.27.28-1.27.28-.09.03-.19-.02-.22-.11-.03-.09.02-.19.11-.22.03,0,.68-.23,1.35-.29.35-.04.87.07,1.41.18.51.11,1.04.22,1.39.19.29-.02.56,0,.77,0,.27.01.53.02.59-.05.03-.03.02-.05.02-.05-.01-.05-.11-.16-.42-.29-.21-.08-.38-.09-.57-.1-.16,0-.33-.02-.52-.07-.11-.03-.2-.1-.25-.21-.06-.11-.07-.25-.02-.38.1-.29.8-.67,1.38-.94.29-.14.64-.26,1.01-.39.35-.12.71-.24,1.02-.38.53-.24.72-.43.73-.5-.12-.04-.57.11-.87.21-.25.08-.51.17-.77.23-.15.04-.33.08-.53.13-.92.22-2.18.51-2.91.76-1.07.37-3.14.56-3.22.56-.09,0-.18-.06-.19-.16,0-.09.06-.18.16-.19.02,0,2.11-.19,3.14-.55.75-.26,2.02-.55,2.94-.77.2-.05.38-.09.53-.13.24-.06.5-.14.74-.23.55-.18.95-.32,1.17-.17.06.04.13.11.15.25.03.27-.28.56-.93.85-.33.15-.69.27-1.05.4-.36.12-.7.24-.98.37-.72.34-1.15.63-1.2.74-.01.04-.01.08,0,.1.01.02.03.03.04.03.16.04.3.05.45.06.21.01.43.02.69.13.36.15.57.33.62.53.02.09.02.22-.09.36-.12.15-.31.18-.57.18h0Z"/>
          <path class="cls-1" d="m71.15,78.61s-.04,0-.05,0c-.09-.03-.14-.13-.11-.22.06-.19-.08-.54-.41-.81-.07-.06-.09-.17-.03-.24.06-.07.17-.09.24-.03.42.34.64.83.52,1.18-.02.07-.09.12-.16.12h0Z"/>
          <path class="cls-1" d="m71.29,79.47s-.08,0-.12,0c-.12-.02-.55-.13-.63-.16-.09-.03-.15-.12-.12-.21.03-.09.12-.15.21-.12.19.05.52.14.59.15.1.02.18,0,.25-.05.23-.18.28-.71.3-.99.04-.37-.34-.69-.58-.9l-.05-.04c-.07-.06-.08-.17-.02-.24.06-.07.17-.08.24-.02l.05.04c.28.24.76.64.7,1.19-.03.36-.09.96-.43,1.23-.11.09-.25.13-.4.13h0Z"/>
          <path class="cls-1" d="m70.52,78.41c-.09,0-.17-.07-.17-.17,0-.2,0-.21-.34-.45-.08-.06-.09-.16-.04-.24s.16-.09.24-.04c.41.3.47.39.48.72,0,.1-.07.17-.17.18,0,0,0,0,0,0h0Z"/>
          <path class="cls-5" d="m63.32,77.26l3.03-.45c.25-.04.5.08.63.3.15.27.33.63.39.96.04.23.06.44.06.63,0,.29-.2.54-.49.6l-4.1.88.48-2.92h0Z"/>
          <path class="cls-1" d="m62.84,80.36c-.08,0-.15-.06-.17-.14-.02-.09.04-.18.13-.2l4.1-.88c.21-.04.35-.23.35-.43,0-.21-.02-.41-.05-.6-.06-.31-.23-.66-.37-.91-.09-.16-.27-.24-.45-.22l-3.03.45c-.09.01-.18-.05-.2-.15-.01-.09.05-.18.15-.2l3.03-.45c.32-.05.64.11.8.39.15.27.35.66.41,1.01.04.21.06.43.06.66,0,.37-.26.69-.62.77l-4.1.88s-.02,0-.04,0h0Z"/>
          <path class="cls-7" d="m55.31,77.8c.31-.34.53-.77.61-1.23.06-.35.04-.75-.17-1.04-.18-.24-.47-.39-.77-.38-.09,0-.17.02-.26,0-.08-.02-.16-.06-.23-.1-.77-.44-1.64-.65-2.51-.8-.26-.05-.51-.09-.77-.11-1.6-.14-3.18.39-4.7.91-1.39.48-2.69,1.19-4.09,1.65-.27.09-.54.18-.83.2-.61.06-1.24-.17-1.67-.61-.08.27-.14.57-.05.83.06.19.2.35.35.48.39.34.91.55,1.42.47-.38.12-.79.14-1.18.2-.57.09-.9.21-1.42.46-.28.14-.48.62-.7.84-.13.13-.31.2-.49.27-.23.09-.45.17-.68.26-.27.1-.54.21-.83.25-.42.06-1.5.01-1.57.09-.05.06-.07.14-.07.21,0,.27.2.49.41.66.32.27.7.48,1.12.55.48.09.99-.03,1.44-.22-.23.35-.55.63-.92.83-.12.06-.74.22-.84.32-.19.18.25.37.33.62.08.25.26.45.48.59.19.12.4.2.62.24.18.03.37.02.55.01,1.7-.08,3.39-.45,4.96-1.11,1.37-.57,2.57-1.53,3.91-2.18.24-.12.49-.23.75-.28.54-.11,1.1.02,1.65.01.55,0,1.17-.21,1.39-.71.01-.03.02-.05.02-.08,0-.05-.06-.08-.1-.11-.2-.14-.32-.37-.32-.61,0-.24.12-.48.31-.61.1-.07.23-.12.36-.11.11.01.21.07.31.11.45.21.97.28,1.45.18.38-.47.85-.94,1.24-1.4.15-.18.3-.36.41-.56.08-.14.14-.28.24-.39.11-.11.28-.18.42-.1.12.07.17.22.21.35.1.37.1.79.21,1.16h0Z"/>
          <path class="cls-11" d="m41.76,97.56c-.69-1.75-1.39-3.13-1.39-3.13l.07-.03s-2.91,1.02-2.82.95c-2.24.42-1.13.11-3.31.8-.93.3-1.95.73-2.89,1.02-.88.28-1.76.56-2.63.84-.39.12-1.03.4-1.42.53-3.47-1.48-10.01-3.9-10.01-3.9,0,0-.12,0-.32.03-.41.06-1.13.24-1.64.73-.87.84-.97,1.49-.93,1.83,0,.08.03.15.08.21.04.07.11.12.18.15.13.06.32.15.57.26,0,0-3.54-.11-3.54-.11-.07,0-.14.01-.19.05-.04.02-.08.05-.13.09-.34.28-.95,1.02-1.07,1.68-.19,1.11.06,1.68.15,1.85,0,.02.16.04.44.08,2.64.35,16.23,1.54,16.23,1.54,1.35.54,2.37.89,2.73.91.88.05,3.44-.93,5.66-1.85.52-.02,1.04-.06,1.56-.13.75-.1,1.72-.13,2.46-.28.88-.23.75-.19,1.65-.37.39-.08,2.12-.34,2.53-.65-.6-.6-1.49-1.79-2.01-3.12h0Z"/>
          <path class="cls-1" d="m29.98,104.13s-.05,0-.07,0c-1.45-.08-12.96-5.32-15.25-6.37-.2-.09-.34-.28-.36-.5,0-.09.06-.18.15-.19.09-.01.18.06.19.15,0,.1.07.18.16.22,1.4.64,13.71,6.26,15.13,6.34,1.09.06,4.99-1.58,7.33-2.56.94-.4,1.62-.68,1.89-.77.95-.29,2.23-.59,2.24-.59.09-.02.19.04.21.13.02.09-.04.19-.13.21-.01,0-1.28.29-2.21.58-.25.08-.96.38-1.86.75-2.46,1.04-6.16,2.59-7.41,2.59h0Z"/>
          <path class="cls-15" d="m83.49,83.06c-.05-.16-.12-.34-.22-.52-.02-.04-.04-.07-.06-.11-.06-.1-.13-.19-.21-.27-.28-.35-.59-.67-.93-.97-.08-.07-.16-.14-.27-.15-.08-.01-.16.01-.24.04-1.12.34-2.22.75-3.29,1.22l.49,1.72c.85-.03,1.28.14,2.12.32.22.05.7,0,1.08-.02.45-.03.86,0,.88-.23,0-.07-.04-.14-.13-.21.02,0,.04,0,.05-.01l-.02.04c.26-.07.26-.09.5-.21.07-.03.13-.07.18-.12.07-.08.09-.18.09-.29,0,0,0,0,0,0,0-.07-.01-.14-.03-.21h0Z"/>
          <path class="cls-1" d="m81.78,83.68c-.08,0-.15-.06-.17-.14-.02-.09.04-.18.14-.2.35-.06.99-.41,1.29-.63.08-.06.08-.08.08-.08,0,0,0-.03-.05-.09-.33-.44-.7-.84-1.11-1.2-.06-.05-.12-.1-.18-.11-.04,0-.11.01-.16.03-1.11.34-2.21.75-3.27,1.21-.09.04-.19,0-.23-.09-.04-.09,0-.19.09-.23,1.07-.47,2.19-.88,3.31-1.22.08-.02.19-.06.31-.04.15.02.26.11.35.19.43.38.82.8,1.16,1.26.05.06.13.18.12.33-.01.16-.13.26-.22.33-.33.24-1.01.62-1.43.69-.01,0-.02,0-.03,0h0Z"/>
          <path class="cls-1" d="m81.25,83.41c-.05,0-.1-.02-.13-.06-.06-.07-.05-.18.03-.24.21-.17.44-.6.46-.87,0-.09.09-.16.18-.16.09,0,.17.09.16.18-.03.36-.3.89-.58,1.12-.03.03-.07.04-.11.04h0Z"/>
          <path class="cls-1" d="m82.75,84.08c-.08,0-.15-.05-.17-.13-.02-.09.03-.19.12-.21.17-.04.21-.07.3-.12.04-.02.09-.05.17-.09.05-.02.1-.05.13-.08.04-.05.06-.13.04-.22-.02-.1-.08-.2-.14-.3-.05-.08-.02-.19.06-.24.08-.05.19-.02.24.06.07.12.15.25.18.41.04.2,0,.39-.12.52-.07.08-.16.12-.23.16-.07.03-.12.06-.16.08-.11.06-.18.09-.37.14-.01,0-.03,0-.04,0h0Z"/>
          <path class="cls-1" d="m82.46,82.81s-.04,0-.06-.01l-.77-.28c-.09-.03-.14-.13-.1-.22.03-.09.13-.14.22-.1l.77.28c.09.03.14.13.1.22-.03.07-.09.11-.16.11h0Z"/>
          <path class="cls-1" d="m81.18,84.52c-.13,0-.24,0-.33-.03-.18-.04-.33-.08-.48-.11-.55-.13-.94-.23-1.59-.2-.09,0-.18-.07-.18-.17,0-.1.07-.17.17-.18.7-.02,1.13.08,1.68.21.15.03.3.07.48.11.16.03.53.01.84,0,.07,0,.13,0,.2-.01.06,0,.13,0,.19,0,.18,0,.46-.02.53-.07-.06-.13-.73-.37-1.43-.5,0,0-.02,0-.03,0-.19-.07-.4-.21-.61-.34-.1-.06-.19-.12-.28-.17-.08-.05-.11-.15-.07-.23.05-.08.15-.11.23-.07.09.05.19.11.29.18.18.11.38.24.53.3.66.13,1.74.4,1.69.88-.03.34-.43.35-.86.37-.06,0-.12,0-.19,0-.06,0-.13,0-.19.01-.21.01-.42.03-.6.03h0Z"/>
          <path class="cls-1" d="m46.59,97.51s-.03,0-.05,0c-.12-.01-.22-.08-.29-.12-1-.62-1.97-1.3-2.89-2.03-.23-.18-.54-.7-.86-1.25-.08-.15-.16-.27-.19-.32-.05-.08-.04-.19.04-.24.08-.06.19-.04.24.04.04.06.11.18.21.35.21.37.57.99.77,1.15.91.72,1.87,1.39,2.86,2.01.05.03.11.07.15.07.05,0,.13-.03.2-.06.11-.05.21-.11.32-.16.38-.19.74-.36,1.08-.61.08-.06.01-.26,0-.29-.23-.29-.76-.79-1.08-.94-.09-.04-.12-.14-.08-.23.04-.09.14-.12.23-.08.39.18.95.72,1.21,1.04.06.08.14.28.12.47-.02.13-.08.24-.17.31-.36.27-.74.45-1.14.65-.1.05-.21.1-.32.16-.1.05-.21.1-.34.1h0Z"/>
          <path class="cls-1" d="m46.82,96.34s-.02,0-.03,0c-.09-.02-.16-.11-.14-.2.05-.27-.06-.74-.22-.96-.06-.08-.04-.18.04-.24.08-.06.18-.04.24.04.22.3.35.87.28,1.23-.02.08-.09.14-.17.14h0Z"/>
          <path class="cls-1" d="m48.51,96.15s-.09-.02-.12-.05c-.07-.07-.07-.18,0-.24.08-.08.17-.17.22-.26.04-.08.05-.16.02-.22-.02-.04-.06-.07-.1-.11-.06-.05-.11-.09-.14-.13-.08-.07-.11-.1-.26-.19-.08-.05-.11-.15-.06-.24.05-.08.15-.11.24-.06.18.1.23.15.32.23.03.03.07.07.13.12.07.06.14.12.19.21.08.16.08.36-.02.54-.07.14-.18.25-.28.35-.03.03-.08.05-.12.05h0Z"/>
          <path class="cls-1" d="m46.85,96.2c-.09,0-.16-.07-.17-.16,0-.09.06-.18.16-.19l.75-.07c.09,0,.18.06.19.16,0,.09-.06.18-.16.19l-.75.07s-.01,0-.02,0h0Z"/>
          <path class="cls-1" d="m45.69,95.36c-.08,0-.15-.05-.17-.13-.02-.09.03-.19.12-.21.09-.02.2-.06.31-.09.23-.07.47-.15.68-.17.01,0,.02,0,.03,0,.69.05,1.39-.01,1.51-.13-.06-.06-.31-.14-.49-.2-.06-.02-.12-.04-.18-.06-.06-.02-.12-.04-.18-.06-.29-.1-.65-.22-.81-.22-.18,0-.34-.01-.49-.02-.57-.01-1.01-.02-1.68-.22-.09-.03-.14-.12-.12-.21.03-.09.12-.14.21-.12.62.19,1.03.2,1.59.21.15,0,.32,0,.5.02.21,0,.56.13.9.24l.18.06c.06.02.12.04.18.06.4.13.79.24.73.58-.08.47-1.19.47-1.86.42-.17.02-.39.09-.59.15-.12.04-.23.07-.33.1-.01,0-.03,0-.04,0h0Z"/>
          <path class="cls-1" d="m27.18,103.21s-.01,0-.02,0c-.04,0-4.19-.37-8.3-.75-2.41-.22-4.34-.41-5.73-.55-2.7-.28-2.72-.31-2.78-.42-.14-.27-.35-.89-.16-1.96.14-.8.97-1.72,1.28-1.89.09-.05.18-.07.28-.07l3.54.11c.1,0,.17.08.17.18s-.08.17-.18.17l-3.54-.11s-.07,0-.11.03c-.23.13-.99.96-1.11,1.65-.16.9-.02,1.42.1,1.68.87.18,10.29,1.04,16.56,1.59.09,0,.17.09.16.19,0,.09-.08.16-.17.16h0Z"/>
          <path class="cls-6" d="m62.25,76.37s-.22-.12-.52-.12c-.25,0-.56.11-.86.05-.51-.12-.88-.42-1.45-.51-.81-.13-1.82.02-2.46.4-.46.26-.79.94-.96,1.09-.17.15-.39.05-.49.25-.12.19.17.35.05.54-.16.25-.36.92-.37,1.35,0,.18.06.81.48,1.4.43.59,1.04,1.81,1.04,1.81l6.08-2.87s1.14-.89.76-1.58c-.16-.28.16-.42.13-.62,0,0-.36-.05-.65-.38-.45-.51-.77-.81-.77-.81h0Z"/>
          <path class="cls-8" d="m60.54,84.88c-.1,0-.2-.02-.3-.04-.16-.03-.31-.07-.47-.12-.75-.2-1.48-.45-2.21-.71-.3-.11-.61-.22-.9-.35-.05-.02-.11-.05-.16-.07.15-.61.19-.89.19-.89,0,0,.48-.64.72-.87.08-.09-.26-.43-.3-.71-.04-.32.22-.66.36-.75.23-.14.68.03,1.13.09.35.05.64.08.85-.12.09-.09.54-.35.54-.35,0,0,.65-.15.93-.41.35-.33.65-.89.91-1.13.17-.15.38-.1.47-.05.43.18.49.62.5.68.09.61-.3,1.91-.16,2.46.06.24.47.31.48.58.01.22-.25.31-.38.6-.24.58-.43,1.33-.52,1.6-.23.7-.67.72-1.13.64-.17-.03-.35-.05-.5-.07,0-.01-.02-.02-.04-.02h0Z"/>
          <path class="cls-1" d="m62.5,83.39s-.03,0-.04,0c-.09-.02-.15-.11-.13-.21,0-.04.1-.41.23-.61.05-.08.12-.14.18-.21.08-.08.17-.16.17-.23,0,0,0,0,0-.01,0-.05-.02-.07-.16-.18-.06-.05-.13-.1-.2-.17-.12-.12-.27-.33-.2-.8.01-.08.03-.16.05-.24.07-.35.14-.74.16-1.18.02-.49-.21-.88-.21-.88-.05-.08-.02-.19.06-.24.08-.05.19-.02.24.06.01.02.29.48.26,1.07-.02.46-.1.87-.17,1.23-.02.08-.03.15-.04.23-.05.34.06.45.11.5.05.05.1.09.16.13.14.1.33.24.29.51-.02.19-.15.32-.27.44-.05.05-.11.11-.14.15-.07.11-.15.36-.18.49-.02.08-.09.13-.17.13h0Z"/>
          <path class="cls-1" d="m57.92,82.18s-.04,0-.05,0c-.34-.11-.82-.34-.94-.98-.07-.39.07-.78.35-.96.28-.18.65-.14,1.02.11.08.05.1.16.04.24-.05.08-.16.1-.24.04-.25-.17-.47-.21-.63-.1-.17.11-.25.36-.2.61.08.45.4.62.7.72.09.03.14.13.11.22-.02.07-.09.12-.16.12h0Z"/>
          <path class="cls-1" d="m57.83,81.4c-.07,0-.13-.04-.16-.11,0,0-.04-.1-.12-.16-.08-.06-.09-.17-.03-.24.06-.08.17-.09.24-.03.16.12.23.29.23.31.03.09-.01.19-.1.22-.02,0-.04.01-.06.01h0Z"/>
          <path class="cls-1" d="m62.33,80.15s-.07,0-.1-.03c-.35-.23-.65-.1-.66-.1-.09.04-.19,0-.23-.08-.04-.09,0-.19.08-.23.02,0,.48-.22.99.13.08.05.1.16.05.24-.03.05-.09.08-.14.08h0Z"/>
          <path class="cls-1" d="m56.69,82.81s-.03,0-.04,0c-.11-.01-.16-.1-.29-.35-.12-.25-.33-.66-.66-1.14-.85-1.22-.94-2.36-.28-3.38.05-.08.16-.1.24-.05.08.05.1.16.05.24-.59.9-.5,1.88.27,2.99.34.5.56.92.69,1.18.02.04.04.09.06.12.08-.08.23-.26.51-.71l.02-.03c.05-.08.16-.1.24-.05.08.05.11.16.05.24l-.02.03c-.42.67-.65.92-.85.92h0Z"/>
          <path class="cls-2" d="m62.06,81c.02-.17-.09-.31-.22-.32-.13-.01-.26.11-.28.27-.02.17.09.31.22.32.13.01.26-.11.28-.27h0Z"/>
          <path class="cls-1" d="m55.4,77.68c-.09,0-.17-.07-.17-.16,0-.1.07-.18.16-.18.32-.02.41-.15.6-.42.17-.24.39-.55.87-.85,1.04-.69,2.96-.54,3.84.04.08.05.1.16.05.24-.05.08-.16.1-.24.05-.78-.51-2.57-.63-3.47-.04-.42.27-.61.53-.77.76-.2.27-.38.53-.86.56,0,0,0,0-.01,0h0Z"/>
          <path class="cls-1" d="m63.73,77.74s-.01,0-.02,0c-.53-.05-.66-.22-.99-.64l-.02-.03c-.39-.5-.77-.78-1.35-.58-.09.03-.19-.02-.22-.11-.03-.09.02-.19.11-.22.82-.29,1.34.19,1.74.69l.02.03c.31.4.37.47.75.51.1,0,.16.09.16.19,0,.09-.08.16-.17.16h0Z"/>
          <path class="cls-1" d="m62.74,80.01s-.07,0-.1-.03c-.08-.05-.1-.16-.05-.24.09-.14.22-.26.35-.4.25-.26.51-.52.5-.82,0-.19-.12-.4-.36-.62-.07-.07-.07-.17,0-.24.07-.07.17-.07.24,0,.31.29.46.57.47.86,0,.44-.32.77-.6,1.07-.12.12-.24.24-.31.35-.03.05-.09.08-.14.08h0Z"/>
          <path class="cls-1" d="m59.92,80.16c-.3,0-.58-.08-.81-.21-.08-.04-.12-.15-.07-.23.05-.08.15-.12.23-.07.1.05.98.49,1.68-.36.14-.17.27-.34.39-.51.32-.44.59-.82.96-.86.19-.02.38.05.58.21.07.06.08.17.02.24-.06.07-.17.08-.24.02-.12-.1-.22-.14-.31-.13-.22.03-.45.35-.72.72-.12.17-.25.35-.4.53-.39.48-.86.65-1.3.65h0Z"/>
          <path class="cls-1" d="m59,80.66c-.09,0-.19-.01-.3-.05-.09-.03-.14-.13-.11-.22.03-.09.13-.14.22-.11.31.1.5-.07.51-.08.07-.06.18-.06.24,0,.07.07.07.17,0,.24-.01.01-.22.21-.55.21h0Z"/>
          <path class="cls-4" d="m61.42,82.91c.34.08.7.07.7.07,0,0-.23.78-.77.69-.54-.1-.58-.93-.58-.93,0,0,.31.1.65.16h0Z"/>
          <path class="cls-1" d="m60.98,82.99c.05.21.16.47.4.52.23.04.39-.18.48-.36-.13,0-.31-.03-.48-.07-.15-.03-.29-.06-.41-.09h0Zm.46.87s-.08,0-.11,0c-.67-.13-.72-1.05-.72-1.09,0-.06.02-.11.07-.14.04-.03.1-.04.16-.03,0,0,.3.09.63.16,0,0,0,0,0,0,.31.08.64.06.65.06.06,0,.11.02.14.07.03.04.05.1.03.15-.01.04-.25.83-.85.83h0Z"/>
          <path class="cls-1" d="m61.5,85.16s-.05,0-.07,0c-.65-.03-2.14-.23-2.84-.45-.09-.03-.14-.13-.11-.22.03-.09.13-.14.22-.11.67.21,2.13.41,2.75.44.32.02.45-.12.64-.64.14-.41.22-.73.31-1.12.02-.09.11-.15.21-.13.09.02.15.11.13.21-.09.4-.17.73-.32,1.16-.16.45-.36.88-.91.88h0Z"/>
          <path class="cls-1" d="m44.31,101.33s-.02,0-.02,0c-.41-.09-2.04-2.03-2.69-3.7-.67-1.72-1.35-2.99-1.35-3-.04-.08-.01-.19.07-.23.08-.05.19-.01.23.07,0,.01.69,1.3,1.37,3.04.65,1.66,2.13,3.33,2.43,3.48.57-.1,7.14-2.81,13.04-6.65,1.94-1.26,3.77-3.57,4.76-4.8.36-.45.59-.74.73-.87.07-.06.18-.06.24.01.06.07.06.18-.01.24-.11.1-.37.42-.69.82-1,1.25-2.86,3.59-4.84,4.88-5.72,3.72-12.67,6.7-13.27,6.7h0Z"/>
          <path class="cls-1" d="m62.18,90.03s-.09-.02-.13-.06c-.06-.07-.06-.18.01-.24.33-.29,2.21-.69,4.84-1.22,1.09-.22,2.04-.41,2.39-.52.93-.29,8.42-3.44,9.28-3.8.12-.54-.05-1.19-.43-1.64-.92.19-8.1,1.64-8.82,1.88-.8.26-7.04.47-7.3.48-.1,0-.18-.07-.18-.17,0-.09.07-.17.17-.18,2.23-.08,6.61-.27,7.21-.47.79-.25,8.62-1.84,8.95-1.9.06-.01.12,0,.16.05.52.55.75,1.42.55,2.12-.01.05-.05.09-.1.11-.34.14-8.39,3.54-9.39,3.84-.36.11-1.32.3-2.42.53-1.75.35-4.39.88-4.68,1.14-.03.03-.07.04-.11.04h0Z"/>
          <path class="cls-1" d="m43.34,93.92c-.36,0-.75-.05-1-.1-.15-.03-.25-.16-.24-.31,0-.04,0-.09.01-.15.03-.35.05-1.16-.07-2.56-.12-1.39-.44-5.98.73-6.61.69-.37,2.22-.56,4.81-.62.1,0,.17.07.18.17,0,.1-.07.17-.17.18-2.51.05-4.03.24-4.66.58-.73.39-.8,3.53-.55,6.28.13,1.43.1,2.25.07,2.62,0,.04,0,.08,0,.11.27.04.95.14,1.3.04l.61-.16c.1-.03.16-.1.17-.2.11-1.02.48-4.4.53-4.77.07-.46.27-.79.28-.81.05-.08.16-.11.24-.06.08.05.11.16.06.24,0,0-.17.29-.23.68-.04.29-.3,2.64-.53,4.75-.03.24-.2.44-.43.5l-.61.16c-.14.04-.31.05-.5.05h0Z"/>
          <path class="cls-1" d="m50.88,88.36c-.5,0-1.09,0-1.72-.04-1.16-.05-4.03-.76-4.15-.79-.09-.02-.15-.12-.13-.21.02-.09.12-.15.21-.13.03,0,2.96.73,4.08.78,1.93.09,3.53,0,3.55,0,.04,0,.11,0,.16.08.03.05.03.12,0,.18-.03.04-.04.07-.14.08,0,0-.02,0-.02,0-.14.02-.42.02-1.03.04-.23,0-.5,0-.81,0h0Z"/>
          <path class="cls-15" d="m54.56,82.69c.26-.03.47-.18.59-.62.08-.26.24-1.02.44-1.56.11-.28.35-.37.33-.58-.02-.25-.5-.39-.58-.61,0-.02,0-.04-.01-.05-.12-.52.19-1.4.09-1.95-.03-.11-.09-.71-.33-.93-.19-.18-.59-.08-.69.01-.23.21-.82,1.31-.82,1.31,0,0-.48.71-.72.83-.32.16-.47.24-.88.27-.41.03-.78-.18-.78-.18,0,0-.8-.25-.98.18-.14.32.26,1.02.26,1.02,0,0-.11.35-.4.84-.12.2-.2.22-.2.22,0,0-.01.1-.04.28.18.05.36.09.55.12.17.03.34.07.51.11.18.05.36.11.55.17.39.12.78.23,1.18.3.23.04.45.12.67.2.1.04.21.09.31.13.32.15.64.32.96.48h0Z"/>
          <path class="cls-1" d="m35,102.51c-.09,0-.16-.06-.17-.15-.01-.09.05-.18.15-.19.05,0,4.52-.6,6.35-.98,1.79-.38,2.36-.65,2.36-.66.09-.04.19,0,.23.08.04.09,0,.19-.08.23-.02.01-.6.29-2.45.69-1.84.39-6.33.98-6.37.99,0,0-.02,0-.02,0h0Z"/>
          <path class="cls-1" d="m54.42,82.79c-.09,0-.17-.07-.17-.17,0-.1.07-.17.17-.18.3,0,.37-.05.51-.52.13-.42.19-.73.26-1.07.02-.09.11-.16.2-.14.09.02.16.11.14.2-.06.35-.13.67-.26,1.11-.16.51-.29.76-.83.77,0,0,0,0,0,0h0Z"/>
          <path class="cls-1" d="m55.34,81.16s-.02,0-.02,0c-.09-.01-.16-.1-.15-.19,0-.04.06-.38.17-.57.04-.08.1-.15.16-.22.06-.07.14-.15.14-.21,0,0,0,0,0-.01,0-.03,0-.05-.14-.13-.07-.04-.14-.09-.21-.15,0,0,0,0-.01-.01-.11-.13-.24-.32-.2-.74.01-.08.02-.15.03-.23.05-.32.1-.69.1-1.09.01-.24-.04-.61-.23-.97-.04-.08,0-.19.08-.23.08-.04.19,0,.23.08.27.53.27,1,.26,1.14,0,.42-.05.8-.1,1.14-.01.08-.02.15-.03.22-.03.3.06.4.11.46.05.04.1.08.15.11.14.09.33.2.3.46-.01.17-.12.3-.22.41-.05.06-.1.11-.12.15,0,0,0,0,0,.01-.06.1-.11.33-.13.44-.01.09-.09.15-.17.15h0Z"/>
          <path class="cls-1" d="m51,80.24s-.03,0-.05,0c-.51-.15-.82-.44-.93-.89-.08-.34.02-.67.25-.85.25-.2.61-.21.98-.03.09.04.12.14.08.23-.04.09-.14.12-.23.08-.25-.12-.48-.13-.62-.01-.13.1-.18.3-.13.5.08.33.29.52.69.64.09.03.14.12.12.21-.02.08-.09.13-.17.13h0Z"/>
          <path class="cls-1" d="m50.89,79.51c-.07,0-.13-.04-.16-.1,0,0-.04-.09-.12-.14-.08-.05-.1-.16-.04-.24.05-.08.16-.1.24-.04.16.11.23.27.24.29.04.09,0,.19-.09.23-.02,0-.05.01-.07.01h0Z"/>
          <path class="cls-1" d="m54.96,78.06s-.05,0-.08-.02c-.33-.17-.59-.02-.6-.01-.08.05-.19.02-.24-.06-.05-.08-.03-.19.05-.24.02-.01.43-.27.94,0,.08.04.12.15.07.23-.03.06-.09.09-.15.09h0Z"/>
          <path class="cls-4" d="m54.35,80.87c.33.06.66.03.66.03,0,0-.18.74-.69.69-.51-.07-.58-.85-.58-.85,0,0,.29.06.62.13h0Z"/>
          <path class="cls-1" d="m53.95,80.97c.06.19.17.42.39.45.2.02.34-.17.42-.34-.13,0-.28-.01-.44-.04-.13-.03-.26-.05-.37-.07h0Zm.42.8s-.05,0-.08,0c-.65-.09-.73-.96-.74-1,0-.05.02-.11.06-.14.04-.04.1-.05.15-.04,0,0,.29.06.62.13.3.06.61.03.61.03.05,0,.11.02.15.06.04.04.05.1.04.15-.08.31-.33.82-.8.82h0Z"/>
          <path class="cls-1" d="m52.1,78.97c-.17,0-.33-.04-.46-.09-.09-.03-.13-.13-.1-.22.03-.09.13-.13.22-.1.64.25,1.27-.2,1.88-1.33v-.02c.4-.71.68-1.23,1.1-1.32.19-.04.39.01.59.16.08.06.09.16.04.24-.06.08-.16.09-.24.04-.18-.13-.28-.11-.31-.1-.27.06-.55.56-.87,1.15v.02c-.67,1.23-1.33,1.58-1.85,1.58h0Z"/>
          <path class="cls-1" d="m37.98,84.53c-.77,0-1.94-.35-2.25-1.71-.02-.09.04-.19.13-.21.09-.02.19.04.21.13.38,1.64,2.09,1.44,2.16,1.43,2.89-.37,4.6-1.25,6.11-2.03.44-.23.85-.44,1.29-.64.09-.04.19,0,.23.09.04.09,0,.19-.09.23-.43.19-.84.41-1.27.63-1.54.79-3.28,1.69-6.22,2.06-.09.01-.18.02-.28.02h0Z"/>
          <path class="cls-1" d="m48.94,80.96c-.09,0-.16-.07-.17-.16,0-.1.06-.18.16-.19.24-.02.5-.03.76-.03.32,0,.62-.55.7-.74.04-.09.14-.13.23-.09.09.04.13.14.09.23-.04.1-.41.95-1.02.96-.25,0-.5.01-.73.03,0,0,0,0-.01,0h0Z"/>
          <path class="cls-1" d="m41.34,77.04c-.39,0-.72-.07-1.02-.21-.35-.16-.79-.5-.97-1.21h0c-.03-.08,0-.16.06-.21.08-.06.18-.04.24.03.02.03.03.06.04.09.14.58.5.85.78.98.76.36,1.99.15,3.56-.6,6.02-2.9,9.45-1.8,10.27-1.13.07.06.08.17.02.24-.06.07-.17.08-.24.02-.77-.63-4.04-1.65-9.9,1.18-1.12.54-2.07.81-2.84.81h0Z"/>
          <path class="cls-1" d="m55.46,77.94s-.08-.02-.12-.05c-.07-.06-.07-.17,0-.24.62-.67.48-1.63.14-2.06-.12-.15-.39-.38-.75-.17-.08.05-.19.02-.24-.06-.05-.08-.02-.19.06-.24.42-.24.87-.14,1.19.26.49.61.54,1.76-.15,2.51-.03.04-.08.06-.13.06h0Z"/>
          <path class="cls-2" d="m54.8,78.95c0-.16-.1-.29-.22-.29-.12,0-.24.11-.25.27,0,.16.1.29.22.29.14.02.24-.1.25-.27h0Z"/>
          <path class="cls-1" d="m37.74,83.3c-.42,0-.77-.11-.97-.19-.09-.04-.13-.14-.09-.23.04-.09.14-.13.23-.09.26.11.78.26,1.4.09.72-.19,1.12-.7,1.26-.91.05-.08.16-.1.24-.05.08.05.1.16.05.24-.16.24-.62.83-1.46,1.06-.23.06-.45.09-.65.09h0Z"/>
          <path class="cls-1" d="m36.39,82s-.03,0-.04,0c-.67-.01-1.26-.36-1.51-.88-.04-.09,0-.19.08-.23.09-.04.19,0,.23.08.21.46.76.67,1.2.68.55.01,1.08-.23,1.48-.43.12-.06.25-.13.29-.24.04-.09.14-.13.23-.09.09.04.13.14.09.23-.09.23-.33.35-.45.41-.43.22-1,.47-1.61.47h0Z"/>
          <path class="cls-1" d="m41.48,78.2c-.75,0-1.49-.45-1.8-1.13-.04-.09,0-.19.09-.23.09-.04.19,0,.23.09.3.66,1.09,1.05,1.8.9.09-.02.18.04.21.13.02.09-.04.18-.13.21-.12.03-.25.04-.38.04h0Z"/>
          <path class="cls-1" d="m35.38,80.6c-.18,0-.37,0-.56-.02-.1,0-.17-.09-.16-.18,0-.1.09-.17.18-.16,2.17.14,2.93-.55,3.61-1.15.35-.32.69-.62,1.18-.77.58-.18,1.26-.17,1.96.03.09.03.14.12.12.21-.03.09-.12.14-.21.12-.64-.18-1.25-.19-1.76-.03-.42.13-.71.4-1.05.7-.63.57-1.4,1.26-3.3,1.26h0Z"/>
          <path class="cls-1" d="m56.8,87.14c-.63,0-1.38-.16-2.88-.56-3.43-.93-6.47-2.63-6.5-2.65-.08-.05-.11-.15-.07-.23.05-.08.15-.11.24-.07.03.02,3.03,1.7,6.42,2.62,2.56.69,2.86.65,4.18.32,2.14-.55,2.65-1.59,2.65-1.6.04-.09.14-.12.23-.09.09.04.13.14.09.23-.02.05-.56,1.2-2.88,1.79-.6.15-1,.25-1.48.25h0Z"/>
          <path class="cls-1" d="m58.64,84.71s-.03,0-.04,0c-.21-.05-.39-.14-.59-.25-.06-.03-.12-.06-.19-.1-2.5-1.25-6.48-2.83-9.29-3.37-.42-.08-.62-.12-.82-.1-1.18.08-2.5,1.16-3.93,3.2-.05.08-.16.1-.24.04-.08-.05-.1-.16-.04-.24,1.49-2.13,2.9-3.26,4.19-3.35.25-.02.48.03.9.11,2.84.54,6.85,2.14,9.38,3.4.07.03.13.07.19.1.19.1.35.18.51.22.09.02.15.11.13.21-.02.08-.09.13-.17.13h0Z"/>
          <path class="cls-1" d="m44.82,92.4c-.07,0-.14-.05-.16-.12-.03-.09.02-.19.11-.22.21-.06.43-.12.67-.18.43-.1.77-.16,1.06-.2.54-.09.93-.15,1.52-.43,1.26-.59,2.83-2.35,3.39-3.17.05-.08.16-.1.24-.04.08.05.1.16.04.24-.58.84-2.2,2.67-3.53,3.28-.63.29-1.06.36-1.61.45-.29.05-.62.1-1.04.2-.23.05-.44.11-.64.17-.02,0-.03,0-.05,0h0Z"/>
          <path class="cls-10" d="m35.32,95.7c.12-.04.25-.09.37-.13-.71-.35-1.28-.97-1.58-1.7-.19-.48-.27-.99-.42-1.48-.33-1.08-1.01-2.19-.66-3.27-1.15.63-2.3,1.26-3.45,1.89-.4.22-.8.35-1.2.47.41-.98.81-2.09,1.17-3.34.2-.69-.96-1.55-1.62-1.56-.09,0-.17.04-.21.12-.31.52-1.75,2.91-3.21,5.39-1.22,2.07-2.28,3.34-2.69,4.98-.33,1.35.73,2.1,1.51,2.16,2.74.19,5.77-1.42,12.62-3.6l-.62.08h0Z"/>
          <path class="cls-10" d="m25.41,90.55c-.17-.47-.3-.92-1.33-2.98-.18-.36-1.23-2.19-1.57-2.8-.07-.12-.2-.19-.34-.17-.27.03-.71.11-.99.3-.28.18-.53.46-.67.63-.07.09-.09.21-.05.32l2.86,7.86,2.1-3.17h0Z"/>
          <path class="cls-1" d="m27.84,93.21c-.07,0-.14-.05-.16-.12-.03-.09.02-.19.12-.21.62-.19,2.31-.74,2.68-1.05.87-.72,2.41-1.98,2.41-1.98l.22.27s-1.54,1.26-2.41,1.98c-.49.41-2.56,1.04-2.8,1.11-.02,0-.03,0-.05,0h0Z"/>
          <path class="cls-1" d="m23.31,93.88c-.07,0-.14-.04-.16-.11l-2.86-7.86c-.06-.17-.03-.35.08-.49.16-.2.42-.48.71-.67.3-.19.74-.28,1.06-.33.21-.03.41.07.51.25.32.57,1.4,2.44,1.58,2.8.94,1.88,1.14,2.43,1.29,2.87l.05.13c.03.09-.01.19-.1.22-.09.03-.19-.01-.22-.1l-.05-.13c-.15-.43-.34-.97-1.28-2.83-.14-.28-.9-1.63-1.57-2.79-.03-.06-.1-.09-.17-.08-.23.03-.66.1-.92.27-.26.17-.5.45-.63.6-.04.04-.04.1-.03.16l2.86,7.86c.03.09-.01.19-.1.22-.02,0-.04.01-.06.01h0Z"/>
          <path class="cls-1" d="m23.77,99.41c-.15,0-.31,0-.46-.02-.53-.04-1.08-.34-1.4-.79-.22-.31-.45-.83-.27-1.58.3-1.21.93-2.2,1.73-3.45.31-.49.64-1,.98-1.58,1.47-2.5,2.94-4.93,3.21-5.39.08-.13.22-.2.36-.2.49,0,1.2.41,1.56.9.23.3.3.61.23.88-1.84,6.44-4.65,8.96-4.77,9.06-.07.06-.18.06-.24-.02-.06-.07-.06-.18.02-.24.98-.86,3.21-3.82,4.66-8.9.06-.21-.06-.43-.17-.58-.3-.4-.9-.76-1.29-.76-.03,0-.05.01-.07.04-.28.46-1.74,2.89-3.21,5.38-.35.59-.67,1.1-.99,1.59-.78,1.22-1.4,2.19-1.68,3.34-.12.49-.05.94.21,1.3.32.44.82.62,1.14.65,1.85.13,3.84-.58,7.13-1.75,1.54-.54,3.28-1.16,5.43-1.85.09-.03.19.02.22.11.03.09-.02.19-.11.22-2.14.68-3.88,1.3-5.42,1.84-3.07,1.09-5.03,1.78-6.81,1.78h0Z"/>
          <path class="cls-1" d="m28.29,91.87c-.06,0-.12-.03-.15-.09-.05-.08-.02-.19.07-.23l4.69-2.58c.08-.05.19-.02.23.07.05.08.02.19-.07.23l-4.69,2.58s-.05.02-.08.02h0Z"/>
          <path class="cls-1" d="m33.01,88.95s.08.03.1.06c-.03-.04-.07-.05-.1-.06h0Zm2.94,6.84s-.04,0-.06-.01c-2.58-.99-3.08-6.61-3.08-6.66,0-.07.05-.14.12-.16,0,0,0,0,.01,0,.04-.02.13-.08.21-.13.74-.47,2.72-1.72,4.45-1.76.3,0,.63.02.99.05.65.05,1.39.11,2.1-.04.16-.04.4-.1.67-.25.18-.1.34-.23.49-.38.07-.07.18-.07.24,0,.07.07.07.18,0,.24-.17.17-.36.32-.56.44-.31.18-.59.25-.77.29-.76.17-1.53.1-2.2.05-.34-.03-.67-.05-.95-.05-1.64.04-3.62,1.3-4.28,1.71-.07.04-.12.08-.17.11.08.74.66,5.35,2.81,6.22.31-.04,2.28-.35,4.62-1.39.72-.32,1.14-.53,1.58-.77.08-.04.19-.01.23.07s.01.19-.07.23c-.45.24-.87.45-1.61.78-2.58,1.14-4.74,1.42-4.76,1.42,0,0-.01,0-.02,0h0Z"/>
          <path class="cls-1" d="m56.38,83.55s-.07,0-.09-.03c-.08-.05-.1-.16-.05-.24.13-.2.22-.43.25-.66.01-.09.1-.16.2-.14.09.01.16.1.14.2-.04.28-.15.56-.31.8-.03.05-.09.08-.14.08h0Z"/>
          <path class="cls-1" d="m30.02,99.17s-.06,0-.09-.03c-.56-.34-.99-.48-1.7-.64-.09-.02-.15-.11-.13-.21.02-.09.11-.15.21-.13.73.17,1.22.32,1.81.68.08.05.11.16.06.24-.03.05-.09.08-.15.08h0Z"/>
          <path class="cls-12" d="m30.34,85.87c.24-.44.77-.96.8-1.52.04-.72-.32-2.05-.8-2.72-.42-.55-.66-.79-.65-.85.03-.19.04-.37.05-.55.03-.74.21-1.17.46-1.2h0c.3-.27.54-.23.86.62.43,1.14.7,3.02.96,3.97.25.96.44,1.53.51,2.18.07.63-.25.51-.68.58-.24.1-.59.12-.96.17-.22.04-.45.06-.68.08-.05,0-.09-.39.12-.77h0Z"/>
          <path class="cls-1" d="m29.54,87.94s-.05,0-.07-.02c-.09-.04-.12-.14-.08-.23.07-.15.12-.3.17-.44.13-.37.26-.73.64-.78.09-.01.18.05.2.14.01.09-.05.18-.14.2-.17.02-.24.22-.37.56-.05.14-.11.31-.19.47-.03.06-.09.1-.16.1h0Z"/>
          <path class="cls-1" d="m29.88,80.77s.1.13.18.22c.11.13.26.31.43.55.53.74.88,2.1.83,2.83-.02.44-.3.83-.55,1.18-.1.15-.2.28-.27.41-.11.19-.14.38-.14.5.18-.02.35-.04.52-.07.08-.01.15-.02.22-.03.54-.06.87-.12.9-.34.05-.35-.17-1.15-.34-1.79-.07-.24-.13-.47-.18-.66,0-.04-.04-.19-.08-.41-.12-.59-.33-1.68-.49-2.31-.24-.92-.51-1.54-.6-1.62-.06-.03-.08-.02-.1-.01-.09.05-.26.32-.29,1.03v.05c-.01.15-.02.31-.04.47h0Zm.36,6.04c-.07,0-.13-.03-.17-.09-.08-.14-.07-.56.13-.93.08-.14.18-.29.29-.44.23-.32.47-.66.49-1,.04-.64-.29-1.95-.76-2.6-.17-.23-.32-.4-.42-.53-.21-.26-.28-.34-.26-.45.02-.16.03-.33.04-.49v-.04c.02-.5.12-1.13.47-1.32.14-.07.3-.07.45.03.32.21.71,1.66.75,1.83.16.64.38,1.74.5,2.33.04.21.07.36.08.4.05.19.11.41.17.65.2.75.42,1.52.35,1.94-.08.49-.63.55-1.2.62-.07,0-.14.02-.21.03-.22.04-.44.06-.69.08,0,0,0,0,0,0h0Z"/>
          <path class="cls-1" d="m27.93,86.75s-.06,0-.09-.02c-.08-.05-.11-.16-.06-.24.77-1.28.93-1.77,1.17-2.52.06-.2.14-.43.23-.69.15-.38.32-1.86.39-2.42.01-.09.1-.16.19-.15.09.01.16.1.15.19-.12,1.03-.26,2.13-.41,2.5-.09.25-.16.47-.22.67-.25.77-.41,1.29-1.2,2.6-.03.05-.09.08-.15.08h0Z"/>
          <path class="cls-1" d="m31.84,86.56c-.08,0-.16-.06-.17-.14-.02-.09.05-.18.14-.2.09-.02.18-.02.26-.03.12-.01.24-.02.27-.06.02-.02.05-.09.03-.3-.05-.48-.17-.92-.33-1.52-.05-.19-.11-.4-.17-.64-.1-.36-.2-.86-.31-1.39-.18-.88-.38-1.87-.65-2.57-.22-.55-.35-.64-.4-.65-.04-.01-.1.02-.19.1-.07.06-.18.06-.24-.02-.06-.07-.06-.18.02-.24.11-.1.29-.22.5-.17.24.06.43.32.64.87.28.73.48,1.73.66,2.62.11.52.21,1.01.31,1.37.06.23.12.44.17.63.17.62.29,1.07.35,1.57.03.27,0,.44-.1.56-.13.15-.31.17-.51.18-.07,0-.15.01-.23.03,0,0-.02,0-.03,0h0Z"/>
          <path class="cls-1" d="m9.05,105.59c-.08,0-.15-.05-.17-.13-.02-.09.03-.19.12-.21l7.71-2.03c.09-.02.19.03.21.12.02.09-.03.19-.12.21l-7.72,2.03s-.03,0-.04,0h0Z"/>
          <path class="cls-1" d="m7.8,107.3c-.08,0-.15-.05-.17-.13-.02-.09.03-.19.12-.21l7.72-2.03c.09-.02.19.03.21.12.02.09-.03.19-.12.21l-7.71,2.03s-.03,0-.04,0h0Z"/>
          <path class="cls-1" d="m34.85,77.51c-.08,0-.15-.05-.17-.13-.02-.09.03-.19.12-.21l3.86-1.01c.09-.02.19.03.21.12.02.09-.03.19-.12.21l-3.86,1.01s-.03,0-.04,0h0Z"/>
          <path class="cls-1" d="m33.6,78.66c-.08,0-.15-.05-.17-.13-.02-.09.03-.19.12-.21l3.86-1.01c.09-.02.19.03.21.12.02.09-.03.19-.12.21l-3.86,1.01s-.03,0-.04,0h0Z"/>
          <path class="cls-1" d="m28.99,98.69c-.06,0-.12-.03-.15-.09-.05-.08-.02-.19.07-.24.11-.06.27-.17.45-.29.48-.33,1.13-.78,1.81-1.01.09-.03.19.02.22.11.03.09-.02.19-.11.22-.63.21-1.26.64-1.73.96-.19.13-.35.24-.47.31-.03.02-.06.02-.08.02h0Z"/>
          <path class="cls-1" d="m29.3,97.8c.19-.08.39-.17.59-.12-.27.27-.54.53-.81.8-.09-.09-.6-.17-.55-.31.03-.1.67-.32.77-.36h0Z"/>
          <path class="cls-1" d="m22.03,96.22c-2.37-.91-4.43-1.67-4.62-1.75-.02,0-.04-.01-.07-.01-.05,0-1.28.05-2.07.81-.89.86-1.02,1.55-.98,1.98,0,.09.09.16.19.15.09,0,.16-.09.15-.19-.03-.29.05-.89.88-1.69.63-.6,1.62-.7,1.81-.71.29.11,2.3.86,4.61,1.74.03-.11.07-.22.1-.33h0Z"/>
        </g>
      </g>
    </g>
  </g>
</svg>