<?xml version="1.0" encoding="UTF-8"?>
<svg id="_レイヤー_2" data-name="レイヤー 2" xmlns="http://www.w3.org/2000/svg" viewBox="0 0 80.22 146.7">
  <defs>
    <style>
      .cls-1, .cls-2 {
        fill: #262626;
      }

      .cls-3 {
        fill: #8299ae;
      }

      .cls-4, .cls-5 {
        fill: #fff;
      }

      .cls-6, .cls-5, .cls-7, .cls-8, .cls-2 {
        fill-rule: evenodd;
      }

      .cls-6, .cls-9 {
        fill: #ffddc0;
      }

      .cls-10 {
        fill: none;
        stroke: #262626;
        stroke-linecap: round;
        stroke-linejoin: round;
      }

      .cls-7 {
        fill: #c37b7b;
      }

      .cls-11 {
        fill: #86a282;
      }

      .cls-12 {
        fill: #a2a7aa;
      }

      .cls-13 {
        fill: #cad3da;
      }

      .cls-14 {
        fill: #a8c992;
      }

      .cls-8 {
        fill: #f08c65;
      }

      .cls-15 {
        fill: #f5d192;
      }

      .cls-16 {
        fill: #8e8e8e;
      }

      .cls-17 {
        fill: #a3a3a3;
      }

      .cls-18 {
        fill: #544a3f;
      }

      .cls-19 {
        fill: #b3cba4;
      }

      .cls-20 {
        fill: #e2e7bd;
      }

      .cls-21 {
        fill: #fff400;
      }
    </style>
  </defs>
  <g id="text">
    <g>
      <g>
        <g>
          <path class="cls-4" d="m23.08,84.3l-.06.75c-.05.69-.41,1.24-.86,1.32l-.49.09.49.09c.45.08.81.63.86,1.32l.06.75.06-.75c.05-.69.41-1.24.87-1.32l.49-.09-.49-.09c-.45-.08-.81-.63-.87-1.32l-.06-.75Z"/>
          <path class="cls-21" d="m62.16,55.12l-.06.75c-.05.69-.41,1.24-.86,1.32l-.49.09.49.09c.45.08.81.63.86,1.32l.06.75.06-.75c.05-.69.41-1.24.87-1.32l.49-.09-.49-.09c-.45-.08-.81-.63-.87-1.32l-.06-.75Z"/>
          <path class="cls-21" d="m47.52,71.94l-.06.75c-.05.69-.41,1.24-.86,1.32l-.49.09.49.09c.45.08.81.63.86,1.32l.06.75.06-.75c.05-.69.41-1.24.87-1.32l.49-.09-.49-.09c-.45-.08-.81-.63-.87-1.32l-.06-.75Z"/>
          <path class="cls-4" d="m26.55,78.24l-.03.41c-.03.38-.22.67-.47.72l-.27.05.27.05c.25.04.44.34.47.72l.03.41.03-.41c.03-.37.22-.67.47-.72l.27-.05-.27-.05c-.25-.04-.44-.34-.47-.72l-.03-.41Z"/>
          <path class="cls-21" d="m57.91,57.62l-.03.41c-.03.38-.22.67-.47.72l-.27.05.27.05c.25.04.44.34.47.72l.03.41.03-.41c.03-.37.22-.67.47-.72l.27-.05-.27-.05c-.25-.04-.44-.34-.47-.72l-.03-.41Z"/>
          <path class="cls-4" d="m41.62,74.81l-.03.41c-.03.38-.22.67-.47.72l-.27.05.27.05c.25.04.44.34.47.72l.03.41.03-.41c.03-.37.22-.67.47-.72l.27-.05-.27-.05c-.25-.04-.44-.34-.47-.72l-.03-.41Z"/>
        </g>
        <g>
          <g>
            <path class="cls-18" d="m51.59,143.67s-.39.7-.29.97c.18.5,1.2,1.04,2.4,1.11,1.2.07,3.06-.48,3.24-1.06.16-.52-.16-1.34-.16-1.34l-5.19.32Z"/>
            <path class="cls-18" d="m69.83,143.67s.39.7.29.97c-.18.5-1.2,1.04-2.4,1.11-1.2.07-3.06-.48-3.24-1.06-.16-.52.16-1.34.16-1.34l5.19.32Z"/>
            <path class="cls-1" d="m53.9,145.93c-.07,0-.14,0-.21,0-1.19-.07-2.33-.61-2.55-1.22-.11-.32.21-.93.31-1.11.04-.08.15-.11.23-.07.08.04.11.15.07.23-.17.31-.32.72-.28.84.15.42,1.11.93,2.25,1,1.27.07,2.94-.51,3.07-.95.12-.38-.07-1.01-.15-1.23-.03-.09,0-.18.1-.22.09-.03.18,0,.22.1.01.04.34.88.16,1.45-.21.69-2.03,1.19-3.2,1.19Z"/>
            <path class="cls-1" d="m67.52,145.93c-1.18,0-2.99-.5-3.2-1.19-.17-.57.15-1.41.16-1.45.03-.09.13-.13.22-.1.09.03.13.13.1.22,0,0-.29.77-.15,1.23.13.43,1.8,1.02,3.07.95,1.14-.06,2.1-.58,2.25-1,.04-.12-.12-.53-.28-.84-.04-.08-.01-.18.07-.23.08-.04.18-.01.23.07.1.18.41.79.31,1.11-.22.61-1.37,1.16-2.55,1.23-.07,0-.14,0-.21,0Z"/>
            <path class="cls-1" d="m55.65,142.71s-.07-.01-.1-.04c-1.28-1.01-2.63-.09-2.64-.08-.08.05-.18.03-.23-.04-.05-.08-.03-.18.04-.23.02-.01,1.57-1.07,3.05.09.07.06.09.16.03.24-.03.04-.08.06-.13.06Z"/>
            <path class="cls-1" d="m65.77,142.71c-.05,0-.1-.02-.13-.06-.06-.07-.04-.18.03-.24,1.47-1.16,3.03-.1,3.05-.09.08.05.1.16.04.23-.05.08-.16.1-.23.04-.06-.04-1.37-.92-2.64.08-.03.02-.07.04-.1.04Z"/>
            <path class="cls-17" d="m70.75,46.05c1.08,1.88,1.93,3.84,2.7,5.83.76,1.99,1.4,4.02,1.94,6.08.54,2.05.96,4.13,1.28,6.22.33,2.09.48,4.21.59,6.31.21,4.21.27,8.43.31,12.64.04,4.21.03,8.43,0,12.64-.06,8.42-.19,16.85-.37,25.27-.18,8.42-.39,16.84-.65,25.27-.01.33-1.3.29-1.29-.03h0s0,0,0,0c.35-8.41.65-16.83.92-25.25.26-8.42.49-16.84.64-25.26.07-4.21.12-8.42.13-12.63,0-4.21-.02-8.42-.18-12.62-.09-2.1-.21-4.2-.52-6.28-.3-2.08-.7-4.15-1.21-6.2-.51-2.05-1.13-4.07-1.86-6.06-.74-1.99-1.57-3.96-2.62-5.82h0c-.03-.05,0-.11.05-.14.05-.02.12,0,.15.04Z"/>
            <path class="cls-20" d="m53.83,78.28s-1.4-2.17-.35-3.26c1.05-1.08,6.17-2.15,6.94-1.63.77.52.94.52.9,1.76-.04,1.24-7.5,3.12-7.5,3.12Z"/>
            <path class="cls-1" d="m57.59,130.99c0,.41-1.49.63-2.84.63s-3.73-.57-3.73-.98,2.45-.19,3.81-.19,2.76.12,2.76.53Z"/>
            <path class="cls-1" d="m70.44,130.62c.04.41-1.42.77-2.77.91-1.35.13-3.79-.15-3.82-.56-.04-.41,2.44-.48,3.79-.61,1.35-.13,2.76-.15,2.8.26Z"/>
            <polygon class="cls-3" points="57.02 77.31 59.45 77.31 61.12 99.73 57.86 99.87 57.02 77.31"/>
            <path class="cls-3" d="m53.11,75.8s-2.78,1.63-3.79,2.13c-1.44.72-2.23,3.18-2.64,5.03-.41,1.85-2.02,7.54-2.02,7.54l1.75.39s-1.36-.72-1.75-.39c-.39.32-1.52,1.38-1.52,1.38l3.12,4.04s1.41-.56,2.28-1.93c.55-.86,1.94-4.95,1.94-4.95l2.64-13.24Z"/>
            <path class="cls-3" d="m67.27,85.19s3.07,4.98,4.06,5.95c.98.97,2.63,1.29,4.32,1.33,1.75.05,3.19-1.41,3.19-1.41l-3.43-4.89-.82-.27s-3.66-5.71-4.71-7.28c-1.06-1.57-2.69-3.57-4.3-3.71-1.13-.1-4.26-.56-4.26-.56l5.96,10.83Z"/>
            <path class="cls-11" d="m68.95,102.56s.59,16.56.59,17.58.75,4.67.17,11.75c-1.61,1.18-3.41,1.09-5.3.36l-1.78-11.89s-2.77-10.5-2.92-12.33c-.15-1.82-.82-1.75-.82-1.75l.64.74s-1.72,10.71-1.79,12.03c-.07,1.31,0,2.63,0,5.25s-.95,7.83-.95,7.83c-1.7.67-3.37.61-5.01-.24,0,0-1.26-10.58-1.31-12.77-.05-2.19,0-15.45,0-15.45l7.99-3.94h1.9l8.6,2.83Z"/>
            <path class="cls-9" d="m75.55,87.74s-.39,2.66.44,3.33c.82.68,2.6.37,2.66-.33.06-.7-1.72-3.86-3.1-3Z"/>
            <path class="cls-20" d="m54.5,75.57c.11.39,2.02.84,2.97,1.48,0,0,.03,5.06-.02,5.82-.04.75.94,9.36.94,12.95s.12,8.49.12,8.49c0,0-5.2,1.24-8.59-1.05l.61-15.52s.15-5.16-1.31-9.47l5.29-2.7Z"/>
            <path class="cls-19" d="m56.14,78.37s.98,18.44.76,21.94c0,0-2.44.28-3.35-.01l-3.27-.16s.11-8.94.24-13.55c.13-4.61-1.39-8.55-1.39-8.55l3.8-2.14c.49,1.12,1.53,2.19,2.78,3.24l.43-.78Z"/>
            <path class="cls-20" d="m59.92,74.29c-.07.4-.5,1.96-1.39,2.69,0,0,.3,3.51.41,4.25.11.75.86,10.89,1.19,14.46.33,3.57.66,8.47.66,8.47,0,0,5.29.76,8.46-1.83l-1.86-17.07s-2.63-6.56-2.19-10.36l-5.27-.62Z"/>
            <path class="cls-11" d="m51.52,69.69c-1.67.55-2.74.79-2.89.32-.15-.46.72-1.19,2.28-1.96,1.01-.5,2.31-1.03,3.8-1.53,3.79-1.26,7.55-2.05,7.8-1.29.13.39-.74.87-2.12,1.41l-8.87,3.05Z"/>
            <g>
              <path class="cls-7" d="m51.03,64.45c.48-.73,1.02-1.36,1.82-1.8.37-.2,1.05-.47,1.5-.57.76-.15,1.38-.15,1.86-.16.76-.03,1.16.62,1.16.62,0,0,1.29.27,2.02,1.68.73,1.41.62,3.8.62,3.8l-8.62,1.91s-1.97-3.01-.37-5.48Z"/>
              <path class="cls-6" d="m51.65,71.34s-.33-.46-.26-.87c0-.02.03-.38.21-.51.24-.19.67-.22.81-.74.08-.27.06-1.06.04-1.59,0-.23.02-.72.41-1.18.53-.63,1.82-1.08,2.76-1.15.46-.03,1.29-.13,1.88.21.69.4.95,1.66,1.44,2.2.55.6,1.31.45,1.31.45,0,0,.54.67.28,1.35-.28.71-.78.87-.78.87,0,0,.08.86-.1,1.53-.18.67-.43,1.09-.43,1.09l.62,1.9-1.31,2.08v.44s-.95.05-.95.05l-.1-.44-2.68-1.18-.32-1.74s-.48-.29-.88-.82c-.4-.54-.73-1.3-.73-1.3l-.61-.14-.6-.51Z"/>
              <path class="cls-1" d="m54.76,75.96c-.09,0-.17-.07-.17-.17,0-.62-.34-1.72-.34-1.73-.03-.09.02-.18.11-.21.09-.03.18.02.21.11.01.05.35,1.16.36,1.82,0,.09-.07.17-.17.17h0Z"/>
              <path class="cls-1" d="m59.71,74.97c-.06,0-.12-.03-.15-.09-.3-.6-.52-1.85-.52-1.9-.02-.09.05-.18.14-.19.09-.02.18.05.19.14,0,.01.22,1.26.49,1.81.04.08,0,.18-.07.23-.02.01-.05.02-.08.02Z"/>
              <path class="cls-1" d="m56.82,74.92c-.35,0-.97-.06-1.8-.42-.9-.37-1.28-.89-1.51-1.19-.33-.42-.66-1.01-1.03-1.87-.04-.09,0-.18.09-.22.09-.04.18,0,.22.09.36.83.68,1.4.99,1.8.21.28.55.75,1.37,1.09,1.18.5,1.91.38,1.92.37.09-.02.18.04.2.13.02.09-.04.18-.13.2-.01,0-.12.02-.31.02Z"/>
              <path class="cls-1" d="m57.12,74.9c-.08,0-.15-.05-.16-.13-.02-.09.04-.18.13-.2,0,0,.61-.16,1.47-1.09.61-.67.81-1.31.87-1.63.12-.5.16-1.15.13-2.06,0-.09.07-.17.16-.17.09,0,.17.07.17.16.03.93-.02,1.61-.14,2.14-.07.35-.28,1.06-.95,1.79-.94,1.02-1.61,1.18-1.64,1.19-.01,0-.02,0-.04,0Z"/>
              <path class="cls-1" d="m52.69,72.06c-.38,0-1.01-.23-1.37-.92-.21-.42-.21-.87,0-1.19.18-.27.48-.4.85-.37.09,0,.16.09.15.18,0,.09-.09.16-.18.15-.24-.02-.43.06-.54.22-.14.21-.13.55.02.85.3.58.84.76,1.11.74.09,0,.17.06.18.15,0,.09-.06.17-.15.18-.02,0-.05,0-.07,0Z"/>
              <path class="cls-1" d="m52.13,71.03s-.17-.16-.26-.24c-.07-.06-.08-.17-.02-.24.06-.07.17-.08.24-.02.09.08.27.25.27.25l-.23.24Z"/>
              <path class="cls-1" d="m59.79,70.48c-.07,0-.13-.04-.16-.11-.03-.09.01-.18.1-.22.26-.09.67-.49.69-1.14.01-.34-.12-.65-.34-.78-.17-.1-.37-.09-.58.03-.08.05-.18.02-.23-.06-.05-.08-.02-.18.06-.23.32-.18.65-.2.92-.03.33.2.52.61.51,1.08-.03.82-.56,1.32-.91,1.45-.02,0-.04.01-.06.01Z"/>
              <path class="cls-1" d="m59.98,69.27l-.31-.12s.09-.23.14-.34c.04-.08.14-.12.22-.08.08.04.12.14.08.22-.05.1-.13.32-.13.32Z"/>
              <path class="cls-1" d="m56.36,71.29s-.05,0-.08-.02c-.08-.04-.11-.15-.07-.23.13-.24.12-.33.12-.36-.01-.04-.08-.07-.16-.11-.13-.07-.32-.17-.42-.39-.2-.44-.13-1.08-.06-1.35.02-.09.11-.14.2-.12.09.02.15.11.12.2-.07.27-.11.8.04,1.13.06.12.16.17.27.23.13.07.27.14.32.31.05.16,0,.35-.14.61-.03.06-.09.09-.15.09Z"/>
              <path class="cls-1" d="m56.14,72.75c-.3,0-.59-.06-.81-.18-.08-.04-.11-.15-.07-.23.04-.08.15-.11.23-.07.53.29,1.63.11,2.06-.46.06-.07.16-.09.24-.03.07.06.09.16.03.24-.37.49-1.06.73-1.68.73Z"/>
              <path class="cls-1" d="m53.29,68.38s-.08-.01-.11-.04c-.07-.06-.08-.17-.01-.24.02-.02.46-.5,1.22-.36.09.02.15.11.13.2-.02.09-.11.15-.2.13-.58-.11-.91.25-.91.26-.03.04-.08.06-.13.06Z"/>
              <path class="cls-1" d="m56.48,67.6c-.05,0-.1-.02-.13-.07-.06-.07-.04-.18.03-.24.62-.48,1.23-.23,1.26-.22.09.04.13.14.09.22-.04.09-.13.13-.22.09-.02,0-.46-.18-.92.18-.03.02-.07.03-.1.03Z"/>
              <path class="cls-2" d="m54.4,74.09s1.56.86,2.71.62c.89-.18,1.9-1.54,1.9-1.54,0,0-.92,1.9-2.05,2.36-.98.4-2.27-.4-2.27-.4l-.3-1.05Z"/>
              <path class="cls-1" d="m59.79,64.59s-.03,0-.04,0c-.37-.09-.62-.38-.87-.66-.31-.36-.61-.7-1.13-.64-.09.01-.18-.06-.19-.15-.01-.09.06-.18.15-.19.7-.08,1.09.36,1.43.75.22.25.42.49.69.55.09.02.15.11.13.2-.02.08-.09.13-.16.13Z"/>
              <path class="cls-1" d="m60.07,68.12s0,0,0,0c-.09,0-.17-.08-.17-.17,0-.11,0-.22,0-.34.02-.71.05-1.5-.33-2.54-.03-.09.01-.18.1-.22.09-.03.18.01.22.1.41,1.1.38,1.97.35,2.67,0,.11,0,.22,0,.33,0,.09-.08.17-.17.17Z"/>
              <path class="cls-1" d="m50.38,65.12c-.06,0-.12-.03-.15-.09-.04-.08,0-.18.07-.23,0,0,.47-.24.81-.72.9-1.26,1.93-1.91,3.08-1.94.09,0,.17.07.17.16,0,.09-.07.17-.16.17-1.55.04-2.5,1.36-2.81,1.8-.39.55-.91.82-.93.83-.02.01-.05.02-.08.02Z"/>
              <path class="cls-1" d="m57.47,62.81c-.07,0-.13-.04-.16-.11,0-.03-.22-.55-.86-.62-.29-.03-.54,0-.79.04-.37.06-.75.12-1.19-.09-.08-.04-.12-.14-.08-.22.04-.08.14-.12.22-.08.35.16.65.12,1,.06.26-.04.54-.08.88-.05.85.09,1.13.81,1.14.84.03.09-.01.18-.1.22-.02,0-.04.01-.06.01Z"/>
              <path class="cls-1" d="m51.45,70c-.06,0-.12-.04-.15-.1-.03-.06-.07-.14-.12-.24-.4-.77-1.33-2.56-.68-4.35.03-.09.13-.13.22-.1.09.03.13.13.1.22-.6,1.66.28,3.36.66,4.09.05.1.09.18.12.25.04.08,0,.18-.08.22-.02.01-.05.02-.07.02Z"/>
              <path class="cls-1" d="m56.2,65.32s-.03,0-.04,0c-.09-.02-.15-.11-.12-.2.08-.3.37-.6.68-.66.09-.02.18.04.2.13.02.09-.04.18-.13.2-.18.04-.38.24-.42.42-.02.08-.09.13-.16.13Z"/>
              <path class="cls-1" d="m54.36,65.71s-.06,0-.09-.03c-.4-.25-.77-1.01-.43-1.58.05-.08.15-.11.23-.06.08.05.11.15.06.23-.23.39.07.97.32,1.13.08.05.1.15.05.23-.03.05-.09.08-.14.08Z"/>
              <path class="cls-1" d="m53.49,66.09c-.36,0-.69-.45-.76-.86-.02-.09.05-.18.14-.19.09-.02.18.05.19.14.06.34.29.59.43.58.08,0,.17.07.18.16,0,.09-.07.17-.16.18,0,0-.01,0-.02,0Z"/>
              <path class="cls-1" d="m59.15,67.81s-.04,0-.06-.01c-.53-.2-.79-.74-1.05-1.27-.27-.56-.5-1.04-1-1.06-.09,0-.17-.08-.16-.17,0-.09.08-.17.17-.16.7.02,1,.64,1.29,1.25.23.49.46.95.86,1.1.09.03.13.13.1.22-.03.07-.09.11-.16.11Z"/>
              <path class="cls-1" d="m52.32,69.41s-.06,0-.08-.02c-.08-.05-.11-.15-.06-.23.18-.32.15-.73.12-1.16-.04-.62-.09-1.32.53-1.78.08-.05.18-.04.24.04.06.08.04.18-.04.24-.48.35-.44.9-.4,1.49.03.47.07.95-.16,1.35-.03.05-.09.09-.15.09Z"/>
              <path class="cls-2" d="m53.82,69.77c-.05-.22.07-.43.24-.47.18-.04.37.1.42.32.05.22-.07.43-.24.47-.17.06-.37-.1-.42-.32Z"/>
              <path class="cls-2" d="m57.19,69.04c-.05-.22.07-.43.24-.47.18-.04.37.1.42.32.05.22-.04.43-.24.47-.2.04-.37-.1-.42-.32Z"/>
            </g>
            <path class="cls-1" d="m75.51,125.2c-.07,0-.14-.05-.16-.12-3.09-10.59-.08-26.92,1.05-33.07.17-.91.29-1.57.34-1.94.09-.67-.03-1.61-.38-2.98-.02-.09.03-.18.12-.21.09-.02.18.03.21.12.37,1.43.49,2.39.39,3.11-.05.38-.17,1.04-.34,1.95-1.13,6.13-4.13,22.4-1.06,32.91.03.09-.03.18-.11.21-.02,0-.03,0-.05,0Z"/>
            <path class="cls-14" d="m50.44,66.51s-.15-2.15.14-2.67c1-1.77,5.33-2.61,6.48-2.09,1.15.52,1.86,1.84,1.86,1.84l-8.49,2.93Z"/>
            <path class="cls-1" d="m76.84,94.85c-.09,0-.16-.07-.17-.16-.26-5.94-.41-16.84-.41-17.36-1.75-7.37-1.07-14.23-.99-14.96-2.71-3.94-4.51-15.26-4.59-15.75-.01-.09.05-.18.14-.19.09-.01.18.05.19.14.02.12,1.89,11.83,4.57,15.66.02.03.03.08.03.12,0,.07-.85,7.22.98,14.93,0,.01,0,.02,0,.04,0,.11.15,11.32.41,17.37,0,.09-.07.17-.16.18,0,0,0,0,0,0Z"/>
            <path class="cls-1" d="m75.95,146.7s-.04,0-.07,0c-.39-.01-.8-.13-.79-.44,0,0,0-.02,0-.02.33-8.07.64-16.56.92-25.23.3-9.44.51-17.7.64-25.25.08-4.83.12-8.84.13-12.63,0-4.04-.01-8.36-.18-12.62-.08-1.98-.2-4.1-.52-6.26-.3-2.1-.71-4.18-1.21-6.18-.51-2.06-1.14-4.1-1.86-6.05-.88-2.34-1.7-4.18-2.61-5.79-.04-.07-.05-.14-.02-.21.02-.07.07-.13.14-.16.13-.06.29-.01.36.11,0,0,0,0,0,0,.95,1.65,1.78,3.45,2.71,5.85.75,1.96,1.4,4.01,1.94,6.09.53,2.02.96,4.12,1.28,6.24.35,2.19.49,4.43.59,6.33.21,4.27.28,8.6.31,12.65.03,3.79.03,7.81,0,12.64-.05,7.55-.17,15.82-.37,25.27-.18,8.68-.4,17.19-.65,25.27,0,.29-.39.39-.77.39Zm-.52-.44s.21.1.48.11c.27,0,.44-.05.48-.08.25-8.08.47-16.57.65-25.25.2-9.45.32-17.72.37-25.27.03-4.83.03-8.84,0-12.64-.04-4.04-.1-8.37-.31-12.63-.1-1.89-.24-4.11-.59-6.29-.32-2.11-.75-4.2-1.28-6.21-.11-.41-.22-.82-.33-1.23.11.4.22.81.32,1.22.5,2.01.91,4.1,1.21,6.22.32,2.17.44,4.31.52,6.29.17,4.26.18,8.59.18,12.63,0,3.79-.05,7.8-.13,12.63-.13,7.55-.34,15.81-.64,25.26-.27,8.67-.58,17.16-.92,25.24Zm-4.82-100.12h0s0,0,0,0c0,0,0,0,0,0Z"/>
            <g>
              <path class="cls-9" d="m79.09,87.27c.14-.17.27-.5.04-.81-.23-.31-.65-.32-.96-.21-.28.08-.86.35-1.23.55-.4.2-.76.37-.91.51-.23.21-.1.53,0,.65.14.14.36.09.36.09l2.68-.78Z"/>
              <path class="cls-9" d="m76.19,88.18c.36-.27,2.55-.85,2.93-.89.22-.02.64.27.65.65,0,.23-.17.48-.51.63-.31.11-2.17.44-2.73.37-.46-.05-.46-.68-.34-.77Z"/>
              <path class="cls-9" d="m77.19,89.96s-.62-.04-.73-.21c-.15-.22-.13-.58.22-.67.97-.24,2.65-.5,3.05-.36.33.12.41.55.21.78-.26.31-.98.47-.98.47h-1.77Z"/>
              <path class="cls-9" d="m77.68,91.44c.95-.13,1.61-.59,1.69-.7.25-.34,0-.67-.27-.72-.59-.12-1.47-.2-1.75-.09-.15.07-.75.24-.76.37-.02.11-.05.39.21.47.14.06.42.06.71.05.35-.01.76.15.76.15l-.59.48Z"/>
            </g>
            <path class="cls-12" d="m77.07,143.57c-.72.32-1.43.28-2.11-.07l.38-12.24c.73-.15,1.43-.14,2.11.07l-.38,12.24Z"/>
            <path class="cls-13" d="m79.51,126.96c-.42,1.7-2.13,2.74-3.84,2.33-1.7-.42-2.74-2.13-2.33-3.84.42-1.7,2.13-2.74,3.84-2.33,1.7.42,2.74,2.13,2.33,3.84Z"/>
            <path class="cls-1" d="m46.25,96.09c-.07,0-.13-.04-.16-.11-.03-.09,0-.18.09-.22.01,0,1.37-.56,2.2-1.86.53-.83,1.91-4.87,1.92-4.91.03-.09.12-.14.21-.11.09.03.14.13.11.21-.06.17-1.4,4.12-1.96,4.99-.89,1.4-2.3,1.97-2.36,2-.02,0-.04.01-.06.01Z"/>
            <path class="cls-1" d="m43.14,92.04s-.09-.02-.12-.05c-.06-.07-.06-.17,0-.24.05-.04,1.14-1.06,1.53-1.39.46-.38,1.69.25,1.94.37.08.04.11.15.07.23-.04.08-.15.11-.23.07-.61-.32-1.38-.57-1.56-.41-.38.32-1.5,1.36-1.51,1.37-.03.03-.07.05-.12.05Z"/>
            <path class="cls-1" d="m55.27,104.82c-1.71,0-3.77-.29-5.44-1.42-.05-.03-.08-.09-.07-.15l.61-15.52s.13-5.18-1.3-9.41c-.03-.09.02-.18.11-.21.09-.03.18.02.21.11,1.45,4.28,1.32,9.47,1.32,9.53l-.6,15.43c3,1.95,7.43,1.17,8.25,1-.02-.83-.12-5.14-.12-8.36,0-2.27-.39-6.49-.67-9.58-.16-1.8-.28-3.09-.27-3.38.04-.69.02-5.03.02-5.72-.43-.27-1.04-.51-1.57-.72-.86-.34-1.31-.53-1.39-.81-.02-.09.03-.18.12-.21.09-.02.18.03.21.12.06.14.71.4,1.19.58.59.23,1.25.49,1.71.8.05.03.07.08.07.14,0,.21.02,5.08-.02,5.83-.01.26.11,1.62.27,3.33.28,3.09.67,7.32.67,9.61,0,3.55.12,8.44.12,8.49,0,.08-.05.15-.13.17-.11.03-1.5.35-3.28.35Z"/>
            <path class="cls-19" d="m59.93,77.9s1.83,21.01,2.42,22.4c0,0,3.75.11,6.54-1.19l-1.46-13.66c-1.44-3.58-2.3-7.11-2.24-10.54l-3.88-.71-.55,4.14-.83-.44Z"/>
            <g>
              <path class="cls-1" d="m76.31,88.23c-.11,0-.26-.03-.39-.15-.1-.11-.2-.31-.19-.51,0-.15.07-.29.19-.39.14-.14.42-.28.78-.45l.17-.08c.38-.2.97-.47,1.26-.56.34-.12.85-.13,1.14.27.27.38.15.78-.05,1.01-.06.07-.17.08-.24.02-.07-.06-.08-.17-.02-.24.04-.05.24-.32.03-.6-.18-.25-.52-.23-.76-.15-.27.08-.84.34-1.21.54l-.17.09c-.3.15-.59.29-.7.4-.05.05-.08.1-.08.16,0,.1.05.21.09.26.07.07.2.04.2.04.09-.02.18.04.2.13.02.09-.04.18-.13.2-.01,0-.06.01-.13.01Z"/>
              <path class="cls-1" d="m76.72,89.13c-.08,0-.15,0-.21-.01-.26-.03-.45-.2-.52-.48-.06-.21-.04-.48.1-.59h0c.4-.3,2.65-.88,3.01-.92.16-.02.36.06.53.21.19.17.3.39.31.61,0,.33-.25.63-.62.79-.28.1-1.86.4-2.61.4Zm-.41-.82s-.03.2.04.33c.05.09.11.14.21.15.52.06,2.35-.26,2.65-.37.29-.12.4-.32.4-.47,0-.12-.07-.25-.19-.35-.12-.1-.23-.13-.27-.13-.41.04-2.48.61-2.83.84Zm-.12-.12h0,0Z"/>
              <path class="cls-1" d="m78.97,90.15c-.08,0-.15-.05-.16-.13-.02-.09.04-.18.13-.2.19-.04.71-.19.88-.41.07-.07.09-.18.06-.29-.03-.11-.1-.19-.2-.22-.32-.11-1.9.11-2.95.36-.08.02-.14.07-.16.13-.03.08-.01.19.04.28.05.05.34.12.6.13.09,0,.16.09.16.18,0,.09-.09.16-.18.16-.21-.01-.71-.06-.86-.28-.12-.17-.15-.39-.08-.58.06-.17.2-.3.4-.35.83-.2,2.66-.52,3.15-.35.21.07.36.24.41.46.06.21,0,.44-.13.59-.28.34-.99.51-1.07.52-.01,0-.02,0-.04,0Z"/>
              <path class="cls-1" d="m77.44,91.61c-1.22,0-1.78-.57-1.81-.6-.06-.07-.06-.17,0-.24.07-.06.17-.06.24,0,0,0,.58.56,1.8.49.91-.06,1.51-.56,1.57-.63.07-.09.09-.18.05-.27-.04-.09-.13-.17-.22-.19-.68-.13-1.45-.18-1.66-.1-.03.02-.1.04-.19.07-.12.04-.4.14-.48.2-.02.14.01.22.1.25,0,0,.02,0,.03,0,.1.05.4.04.64.04.38-.01.81.16.82.16.09.03.13.13.09.22-.03.09-.13.13-.22.09,0,0-.37-.15-.69-.14-.31,0-.6.01-.78-.06-.26-.08-.38-.33-.32-.66.02-.17.24-.27.69-.43.07-.03.13-.05.17-.06.35-.14,1.32-.02,1.85.08.21.04.39.19.47.39.08.2.04.41-.1.59-.13.18-.83.71-1.81.77-.09,0-.17,0-.25,0Zm-.69-1.3s0,0,0,.01c0,0,0,0,0-.01Z"/>
            </g>
            <path class="cls-1" d="m60.72,78.65s-.07-.01-.1-.04c-.53-.41-1.18-.86-1.33-.88-.02.02-.06.18-.06.33,0,.09-.08.17-.17.17h0c-.09,0-.17-.08-.17-.17,0-.29.1-.64.38-.67.22-.01.81.39,1.34.79.3-1.34.68-3.36.53-3.77-.14-.39-.5-.76-.91-.92-.22-.08-.54-.15-.88.03-.08.04-.18.01-.23-.07-.04-.08-.01-.18.07-.23.35-.19.75-.21,1.16-.05.5.19.93.63,1.1,1.12.24.69-.49,3.86-.58,4.22-.01.06-.05.1-.11.12-.02,0-.04,0-.06,0Z"/>
            <path class="cls-1" d="m55.71,79.32s-.08-.01-.11-.04c-.25-.22-2.43-2.15-2.62-2.85-.2-.74.08-1.7,1.46-2.17.09-.03.18.02.21.1.03.09-.02.18-.1.21-.98.34-1.45,1-1.24,1.77.12.43,1.41,1.7,2.35,2.54.26-.56.64-1.33.83-1.44.25-.14.53.09.69.33.05.08.03.18-.04.23-.08.05-.18.03-.23-.04-.08-.12-.21-.23-.25-.23h0c-.1.09-.49.84-.78,1.49-.02.05-.07.08-.12.1-.01,0-.02,0-.04,0Z"/>
            <path class="cls-1" d="m62.6,104.45c-1.05,0-1.78-.1-1.85-.11-.08-.01-.14-.08-.14-.16,0-.05-.33-4.93-.66-8.46-.16-1.76-.43-5.15-.66-8.14-.24-3.05-.47-5.94-.52-6.31-.11-.74-.4-4.12-.41-4.26,0-.06.02-.11.06-.14.83-.68,1.25-2.14,1.33-2.59.02-.09.1-.15.2-.14.09.02.15.1.14.2-.09.48-.52,1.97-1.38,2.74.05.54.3,3.49.4,4.16.06.39.27,3.14.52,6.34.24,2.99.5,6.38.66,8.13.29,3.2.59,7.51.65,8.33.83.09,5.32.47,8.13-1.75l-1.85-16.96c-.19-.49-2.62-6.7-2.19-10.42.01-.09.09-.16.19-.15.09.01.16.09.15.19-.43,3.71,2.15,10.21,2.18,10.28,0,.01,0,.03.01.04l1.86,17.07c0,.06-.02.11-.06.15-2.04,1.66-4.89,1.98-6.74,1.98Z"/>
            <path class="cls-1" d="m74.57,86.09c-.06,0-.11-.03-.14-.08-.04-.06-3.67-5.73-4.71-7.28-1.07-1.58-2.66-3.5-4.17-3.64-1.12-.1-4.23-.56-4.27-.56-.09-.01-.16-.1-.14-.19.01-.09.1-.16.19-.14.03,0,3.14.46,4.25.56,1.64.15,3.31,2.14,4.42,3.79,1.05,1.55,4.68,7.23,4.72,7.29.05.08.03.18-.05.23-.03.02-.06.03-.09.03Z"/>
            <path class="cls-1" d="m44.66,90.66s-.03,0-.05,0c-.09-.03-.14-.12-.12-.21.02-.06,1.61-5.71,2.02-7.53.43-1.94,1.26-4.4,2.73-5.14.99-.5,3.75-2.11,3.78-2.13.08-.05.18-.02.23.06.05.08.02.18-.06.23-.03.02-2.79,1.63-3.8,2.14-1.36.68-2.14,3.05-2.55,4.91-.41,1.83-2.01,7.49-2.03,7.55-.02.07-.09.12-.16.12Z"/>
            <path class="cls-1" d="m75.81,92.65c-.06,0-.12,0-.18,0-2.1-.06-3.55-.51-4.43-1.38-.99-.97-3.96-5.78-4.08-5.98-.05-.08-.02-.18.06-.23.08-.05.18-.02.23.05.03.05,3.07,4.98,4.03,5.92.82.81,2.2,1.23,4.2,1.29,1.65.05,2.49-.61,2.49-.62.07-.06.18-.05.24.03.06.07.05.18-.02.24-.04.03-.87.69-2.54.69Z"/>
            <path class="cls-1" d="m54.87,100.6c-.53,0-1.05-.03-1.38-.14-.09-.03-.14-.12-.11-.21.03-.09.12-.14.21-.11.74.24,2.61.07,3.14.02.18-3.78-.76-21.6-.77-21.78,0-.09.07-.17.16-.18.09,0,.17.07.18.16,0,.18.98,18.49.76,21.96,0,.08-.07.15-.15.16-.07,0-1.08.12-2.04.12Zm2.02-.29h0,0Z"/>
            <path class="cls-12" d="m77.95,107.96c-.67.32-1.29.32-1.86,0l.13-6.53c.4-.36,1.31-.39,1.73,0v6.53Z"/>
            <path class="cls-1" d="m62.6,100.47c-.15,0-.24,0-.26,0-.07,0-.12-.04-.15-.1-.59-1.39-2.35-21.59-2.43-22.45,0-.09.06-.17.15-.18.09,0,.17.06.18.15.62,7.08,1.89,20.59,2.37,22.25.65,0,3.9-.03,6.35-1.17.08-.04.18,0,.22.08.04.08,0,.18-.08.22-2.41,1.12-5.46,1.2-6.36,1.2Z"/>
            <g>
              <path class="cls-20" d="m62.3,95.23c-2.24.41-4.28.55-6.43.41l.05-2.21c2.1.2,3.81.18,6.11-.33l.28,2.12Z"/>
              <path class="cls-1" d="m57.47,95.86c-.54,0-1.07-.02-1.61-.05-.09,0-.16-.08-.16-.17l.05-2.21s.02-.09.06-.12c.03-.03.08-.05.13-.04,1.98.19,3.68.2,6.06-.33.05-.01.09,0,.13.03.04.03.06.07.07.12l.28,2.12c.01.09-.05.17-.14.19-1.71.31-3.29.47-4.86.47Zm-1.43-.38c1.99.12,3.93,0,6.07-.39l-.23-1.78c-2.26.48-3.92.48-5.8.31l-.04,1.86Z"/>
            </g>
            <g>
              <path class="cls-20" d="m61.58,88.08c-2,.37-3.82.49-5.74.37l.04-1.97c1.88.18,3.41.16,5.45-.29l.25,1.9Z"/>
              <path class="cls-1" d="m57.27,88.67c-.48,0-.96-.02-1.44-.05-.09,0-.16-.08-.16-.17l.04-1.97s.02-.09.06-.12c.04-.03.08-.05.13-.04,1.76.17,3.28.18,5.4-.29.05,0,.09,0,.13.03.04.03.06.07.07.12l.25,1.9c.01.09-.05.17-.14.19-1.53.28-2.94.42-4.34.42Zm-1.26-.37c1.76.1,3.48,0,5.38-.35l-.2-1.55c-2,.42-3.47.43-5.15.27l-.03,1.63Z"/>
            </g>
            <g>
              <path class="cls-20" d="m61.05,82.16c-1.91.35-3.65.47-5.49.35l.04-1.88c1.79.17,3.25.15,5.21-.28l.24,1.81Z"/>
              <path class="cls-1" d="m56.93,82.72c-.46,0-.91-.02-1.38-.05-.09,0-.16-.08-.16-.17l.04-1.88s.02-.09.06-.12c.03-.03.08-.05.13-.04,1.68.16,3.14.17,5.16-.28.05,0,.09,0,.13.03.04.03.06.07.07.12l.24,1.81c.01.09-.05.17-.14.19-1.46.27-2.81.4-4.15.4Zm-1.19-.37c1.68.1,3.32,0,5.13-.33l-.19-1.47c-1.9.4-3.31.41-4.9.26l-.03,1.54Z"/>
            </g>
            <path class="cls-1" d="m51.79,132.05c-.08,0-.16-.06-.17-.15-.05-.43-1.26-10.61-1.31-12.78-.05-2.17,0-15.32,0-15.46,0-.09.08-.17.17-.17h0c.09,0,.17.08.17.17,0,.13-.05,13.29,0,15.45.05,2.16,1.3,12.64,1.31,12.75.01.09-.05.18-.15.19,0,0-.01,0-.02,0Z"/>
            <path class="cls-1" d="m64.41,132.42c-.08,0-.15-.06-.17-.14l-1.77-11.88c-.14-.54-2.78-10.54-2.92-12.35-.1-1.31-.5-1.6-.64-1.6,0,0,0,0,0,0-.09,0-.17-.07-.17-.16,0-.09.06-.17.15-.18.03,0,.2-.01.4.15.33.27.54.87.61,1.75.14,1.79,2.89,12.19,2.91,12.3,0,0,0,.01,0,.02l1.78,11.89c.01.09-.05.18-.14.19,0,0-.02,0-.03,0Z"/>
            <path class="cls-1" d="m56.8,132.3s-.02,0-.03,0c-.09-.02-.15-.1-.14-.2,0-.05.95-5.22.95-7.8,0-1-.01-1.8-.02-2.51-.01-1.13-.03-1.94.02-2.76.07-1.31,1.72-11.61,1.79-12.04.01-.09.1-.15.19-.14.09.01.15.1.14.19-.02.11-1.72,10.72-1.79,12.01-.04.81-.03,1.61-.02,2.73,0,.71.02,1.51.02,2.51,0,2.61-.94,7.81-.95,7.86-.01.08-.09.14-.17.14Z"/>
            <path class="cls-1" d="m69.71,132.05s0,0-.01,0c-.09,0-.16-.09-.15-.18.45-5.5.09-8.97-.08-10.64-.05-.5-.09-.85-.09-1.09,0-1.01-.58-17.41-.59-17.57,0-.09.07-.17.16-.17.09,0,.17.07.17.16.02.68.59,16.57.59,17.59,0,.22.04.57.09,1.05.17,1.68.54,5.18.08,10.71,0,.09-.08.15-.17.15Z"/>
            <path class="cls-1" d="m76.09,143.96c-.4,0-.8-.1-1.21-.3-.06-.03-.1-.09-.09-.16l.38-12.25c0-.08.06-.14.13-.16.78-.16,1.52-.14,2.2.07.07.02.12.09.12.17l-.38,12.25c0,.06-.04.12-.1.15-.35.15-.7.23-1.05.23Zm-.96-.56c.6.27,1.18.29,1.78.06l.37-12.01c-.55-.15-1.15-.17-1.78-.05l-.37,12Zm1.94.17h0,0Z"/>
            <path class="cls-1" d="m76.43,129.55c-.27,0-.53-.03-.8-.1-.87-.21-1.6-.75-2.06-1.51-.46-.76-.6-1.66-.39-2.53.44-1.79,2.25-2.89,4.04-2.45,1.79.44,2.89,2.25,2.45,4.04-.21.87-.75,1.6-1.51,2.06-.53.32-1.12.49-1.73.49Zm0-6.35c-1.35,0-2.58.92-2.92,2.29-.19.78-.07,1.59.35,2.27.42.69,1.07,1.17,1.85,1.36,1.61.39,3.24-.6,3.63-2.2.19-.78.07-1.59-.35-2.27-.42-.69-1.07-1.17-1.85-1.36-.24-.06-.48-.09-.71-.09Z"/>
            <path class="cls-1" d="m76.42,126.88c-.05,0-.11,0-.16-.02-.36-.09-.58-.45-.49-.82.04-.17.15-.32.31-.42.15-.09.34-.12.51-.08.17.04.32.15.42.31.09.15.12.34.08.51h0c-.04.18-.15.32-.31.42-.11.06-.23.1-.35.1Zm0-1.01c-.06,0-.12.02-.17.05-.08.05-.13.12-.15.21-.04.18.07.36.25.41.09.02.18,0,.26-.04.08-.05.13-.12.15-.21h0c.02-.09,0-.18-.04-.26-.05-.08-.12-.13-.21-.15-.03,0-.05,0-.08,0Z"/>
            <path class="cls-16" d="m71.57,129.98s-.09-.04-.12-.08c-.07-.1-.05-.23.04-.3l4.86-3.63c.1-.07.23-.05.3.04.07.1.05.23-.04.3l-4.86,3.63c-.05.04-.12.05-.18.04Z"/>
            <path class="cls-14" d="m48.8,69.44l1.55-2.8c2.27-1.53,5.5-2.59,8.55-2.97l3.18,1.27c-5.19.57-9.65,2.03-13.28,4.5Z"/>
            <path class="cls-1" d="m71.62,130.16s-.06,0-.09-.01c-.09-.02-.16-.07-.22-.14-.06-.08-.09-.18-.07-.29.01-.1.07-.19.15-.25l4.86-3.63c.08-.06.18-.09.29-.07.1.01.19.07.25.15.06.08.09.18.07.29-.01.1-.07.19-.15.25l-4.86,3.63c-.07.05-.15.08-.23.08Zm4.86-4.06s-.02,0-.03,0l-4.86,3.63s-.02.02-.02.03c0,0,0,.02,0,.04,0,.01.02.02.03.02h0s.02,0,.04,0l4.86-3.63s.02-.02.02-.03c0,0,0-.02,0-.03,0-.01-.02-.02-.03-.02,0,0,0,0,0,0Z"/>
            <path class="cls-1" d="m76.99,108.37c-.34,0-.66-.09-.98-.26-.05-.03-.09-.09-.09-.15l.13-6.53s.02-.09.06-.12c.48-.44,1.49-.44,1.96,0,.03.03.05.08.05.12v6.53c0,.06-.04.12-.1.15-.36.17-.7.26-1.04.26Zm-.72-.51c.47.23.97.23,1.52,0v-6.35c-.37-.28-1.06-.24-1.39,0l-.13,6.35Zm1.69.1h0,0Z"/>
            <path class="cls-1" d="m73.14,87.21s-.08-.01-.11-.04c-.07-.06-.08-.17-.02-.24.16-.19.99-1.13,1.53-1.08.49.05.8.14.82.14.09.03.14.12.11.21-.03.09-.12.14-.21.11,0,0-.29-.09-.75-.13-.27-.02-.89.55-1.24.96-.03.04-.08.06-.13.06Z"/>
            <path class="cls-1" d="m77.55,92.16c-.24,0-.5-.03-.79-.1-1.98-.48-1.38-4.05-1.35-4.21.02-.09.1-.15.2-.14.09.02.15.1.14.2,0,.03-.58,3.42,1.09,3.82.63.15,1.12.12,1.4-.09.26-.19.28-.46.28-.47,0-.09.09-.16.18-.16.09,0,.16.08.16.18,0,.02-.03.43-.41.71-.23.17-.53.26-.9.26Z"/>
            <path class="cls-1" d="m48.99,70.39c-.12,0-.21-.02-.3-.06-.11-.05-.18-.14-.23-.27-.19-.56.61-1.29,2.36-2.17,1.06-.53,2.38-1.06,3.82-1.54.77-.26,7.58-2.48,8.01-1.18.15.46-.53.91-2.51,1.69-.09.03-.18,0-.22-.1-.03-.09,0-.18.1-.22,2.3-.9,2.33-1.22,2.31-1.27-.14-.43-2.86-.18-7.59,1.4-1.43.48-2.74,1-3.78,1.52-1.76.88-2.28,1.5-2.19,1.76.01.05.04.06.06.07.21.1.88-.12,1.72-.41.21-.07.44-.15.69-.23.09-.03.18.02.21.11.03.09-.02.18-.11.21-.25.08-.48.16-.69.23-.8.27-1.33.45-1.69.45Z"/>
            <path class="cls-1" d="m48.8,69.6s-.06,0-.08-.02c-.08-.04-.11-.15-.07-.23l1.55-2.8s.03-.04.05-.06c2.2-1.48,5.42-2.6,8.62-3,.03,0,.06,0,.08.01l3.18,1.27c.09.03.13.13.09.22-.03.09-.13.13-.22.09l-3.14-1.26c-3.12.4-6.25,1.48-8.4,2.92l-1.53,2.77c-.03.06-.09.09-.15.09Z"/>
            <path class="cls-1" d="m50.44,66.68c-.09,0-.16-.07-.17-.16-.02-.23-.14-2.22.17-2.76,1.04-1.83,5.5-2.7,6.7-2.16,1.19.53,1.91,1.85,1.94,1.91.04.08.01.18-.07.23-.08.04-.18.01-.23-.07,0-.01-.71-1.28-1.79-1.76-1.09-.49-5.32.35-6.27,2.02-.19.34-.18,1.76-.12,2.57,0,.09-.06.17-.16.18,0,0,0,0-.01,0Z"/>
            <path class="cls-9" d="m76.43,86.18s-.19-.57-.78-.4c-.4.12-.15,1.31-.21,1.73-.02.19-.04.43-.05.65-.02.3.33.49.58.31.06-.04.11-.1.17-.16.29-.36.35-1.14.3-1.63v-.49Z"/>
            <path class="cls-1" d="m75.76,88.71c-.08,0-.17-.02-.25-.06-.18-.1-.29-.29-.28-.5.01-.28.03-.5.05-.66.01-.11,0-.31,0-.51-.03-.58-.07-1.23.34-1.35.57-.17.98.26,1.11.51.04.08.01.18-.07.23-.08.04-.18.01-.23-.07-.01-.02-.27-.48-.72-.35-.15.05-.11.72-.1,1.01.01.23.03.43,0,.58-.02.15-.04.37-.05.63,0,.08.04.15.1.18.07.04.14.03.2-.01.05-.04.1-.08.14-.13.24-.3.26-.99.2-1.48-.01-.09.06-.18.15-.19.09-.01.18.06.19.15.03.29.11,1.25-.27,1.73-.06.07-.13.14-.2.19-.09.07-.2.11-.31.11Z"/>
            <path class="cls-1" d="m76.51,87.21c-.07,0-.14-.05-.16-.13-.3-1.15-.73-2.51-1.24-4.1-1.12-3.49-2.51-7.84-3.56-13.32-2.06-10.72-1.12-23.55-1.11-23.68,0-.09.09-.16.18-.16.09,0,.16.09.16.18,0,.13-.95,12.92,1.11,23.59,1.05,5.45,2.43,9.79,3.55,13.28.51,1.59.95,2.96,1.25,4.11.02.09-.03.18-.12.21-.01,0-.03,0-.04,0Z"/>
            <path class="cls-1" d="m57.96,77.74c-.18,0-.35-.05-.46-.11-.08-.04-.12-.14-.07-.23.04-.08.14-.12.23-.07.02,0,.45.22.68-.12.05-.08.16-.1.23-.04.08.05.1.16.04.23-.18.25-.42.33-.64.33Z"/>
            <path class="cls-1" d="m59.48,100.04c-.57,0-1.04-.14-1.07-.15-.09-.03-.14-.12-.11-.21s.12-.14.21-.11c0,0,.99.3,1.79,0,.09-.03.18.01.22.1.03.09-.01.18-.1.22-.31.12-.64.15-.93.15Z"/>
            <path class="cls-14" d="m57.4,131.01c-1.85.88-4.74,1.02-6.27-.29.4,2.66,1.68,6.78,1.39,9.05-.44,1.97-1.06,3.77-1.01,4.36.05.52,1.18.95,2.08,1,1.11.09,2.97-.36,3.15-1.02.2-.77-.15-2.42-.21-4.31-.02-.73.91-6.29.88-8.78Z"/>
            <path class="cls-14" d="m64.02,131.01c1.85.88,4.74,1.02,6.27-.29-.4,2.66-1.68,6.78-1.39,9.05.44,1.97,1.06,3.77,1.01,4.36-.05.52-1.18.95-2.08,1-1.11.09-2.97-.36-3.15-1.02-.2-.77.15-2.42.21-4.31.02-.73-.91-6.29-.88-8.78Z"/>
            <path class="cls-1" d="m53.86,145.3c-.1,0-.2,0-.29-.01-.9-.04-2.18-.47-2.24-1.15-.03-.38.17-1.14.46-2.19.18-.67.39-1.43.56-2.22.19-1.48-.34-3.88-.8-6-.24-1.08-.46-2.11-.59-2.98-.01-.07.02-.14.09-.17.06-.03.14-.03.19.02,1.46,1.25,4.3,1.11,6.09.27.06-.03.12-.02.17.02.05.04.08.1.07.16-.41,3.02-.9,8.02-.88,8.75.03.74.1,1.45.16,2.08.1,1,.18,1.78.05,2.28-.21.74-1.95,1.16-3.04,1.16Zm-2.5-14.19c.13.77.32,1.64.52,2.55.49,2.25,1,4.58.8,6.13-.18.81-.39,1.58-.57,2.25-.25.94-.47,1.75-.45,2.07.03.37,1,.8,1.92.84,1.18.1,2.84-.41,2.98-.9.11-.43.03-1.23-.06-2.16-.06-.63-.14-1.35-.16-2.1-.02-.72.43-5.46.84-8.51-1.79.74-4.28.84-5.83-.18Z"/>
            <path class="cls-12" d="m74,131.87c.25.75-.05.87-.73.54l-2.04-2.77.73-.54,2.05,2.77Z"/>
            <path class="cls-1" d="m67.56,145.3c-1.08,0-2.83-.41-3.04-1.15-.13-.5-.05-1.28.05-2.28.06-.63.13-1.34.16-2.08,0-.32-.14-1.6-.31-3.08-.21-1.81-.47-4.06-.57-5.69,0-.06.02-.12.07-.15.05-.03.11-.04.17-.01,1.79.85,4.63.99,6.09-.27.05-.05.13-.05.19-.02.06.03.1.1.09.17-.13.88-.35,1.9-.59,2.98-.46,2.12-.99,4.52-.8,6.01.17.77.38,1.54.56,2.21.28,1.05.49,1.8.46,2.18-.06.68-1.34,1.11-2.24,1.15-.09,0-.18.01-.28.01Zm-3.35-14.02c.11,1.59.36,3.69.55,5.39.18,1.55.32,2.78.31,3.12-.03.75-.1,1.47-.16,2.1-.09.92-.17,1.72-.06,2.16.13.49,1.8.99,2.97.89.93-.05,1.9-.47,1.93-.84.02-.32-.19-1.13-.45-2.07-.18-.67-.39-1.44-.56-2.24-.2-1.56.31-3.89.8-6.14.2-.91.39-1.78.52-2.55-1.56,1.03-4.07.92-5.85.17Z"/>
            <path class="cls-1" d="m75.72,90.81s.87.47,1.5.57c.63.1,1.49-.25,1.49-.25,0,0,.13.94-1.44.86-1.56-.07-1.56-1.18-1.56-1.18Z"/>
            <path class="cls-1" d="m73.68,132.77c-.16,0-.34-.07-.53-.25,0,0-.01-.01-.02-.02l-2.05-2.77s-.04-.08-.03-.13c0-.04.03-.08.07-.11l.73-.54c.08-.06.18-.04.24.04l2.05,2.77s.01.02.01.02c.16.32.1.69-.15.88-.08.06-.19.1-.32.1Zm-.28-.48c.15.14.3.18.4.11.1-.07.15-.25.05-.44l-1.94-2.63-.46.34,1.94,2.63Z"/>
            <path class="cls-1" d="m75.44,62.49c-.07,0-.14-.05-.16-.13-.02-.09.03-.18.12-.21l.49-.13c.09-.02.18.03.21.12.02.09-.03.18-.12.21l-.49.13s-.03,0-.04,0Z"/>
            <path class="cls-1" d="m76.42,77.48c-.06,0-.11-.03-.15-.08-.05-.08-.02-.18.06-.23l.5-.29c.08-.05.18-.02.23.06.05.08.02.18-.06.23l-.5.29s-.06.02-.08.02Z"/>
          </g>
          <g>
            <path class="cls-18" d="m37.05,143.96s.4.58.27,1.08c-.06.19-.85.52-1.54.62-.69.1-1.48.04-2.1-.06-.4-.06-.69-.12-.96-.23-.64-.29-.35-1.19-.31-1.58l4.64.17Z"/>
            <path class="cls-1" d="m43.15,145.87c-.26,0-.53-.01-.8-.05-.55-.08-1.57-.39-1.68-.73-.15-.57.27-1.2.29-1.22.05-.08.16-.09.23-.04.08.05.09.16.04.23,0,0-.36.52-.25.94.07.1.72.4,1.4.49.78.11,1.62.01,2.05-.06.39-.06.67-.11.92-.22.38-.17.33-.65.24-1.17-.02-.09-.03-.17-.04-.24,0-.09.06-.18.15-.18.09,0,.18.06.18.15,0,.06.02.13.03.22.08.46.21,1.24-.44,1.53-.29.13-.6.19-1.01.24-.3.05-.8.11-1.35.11Z"/>
            <path class="cls-4" d="m36.78,110.77s1.98.43,3.84-.06l-.07-4.96-3.65-.31-.12,5.33Z"/>
            <path class="cls-4" d="m44.41,105.41c1.93,1.6,4.19.51,3.9-1.79-.18-1.45-1.64-7.39-2.08-8.97-.77-2.74-1.68-3.06-2.86-2.99-1.88.12-2.95.87-2.95.87l-4.16.19s-1.38-.94-3.26-1.06c-1.19-.07-2.1.26-2.86,2.99-.44,1.58-1.89,7.52-2.08,8.97-.29,2.3,1.97,3.39,3.9,1.79h12.45Z"/>
            <path class="cls-1" d="m36.33,137.2c0,.32-.97.43-2.04.43s-2.14-.3-2.14-.62,1.13-.3,2.2-.3,1.98.17,1.98.49Z"/>
            <path class="cls-1" d="m41.82,137.22c0,.32.97.43,2.04.43s2.14-.3,2.14-.62-1.13-.3-2.2-.3-1.98.17-1.98.49Z"/>
            <path class="cls-18" d="m41.1,143.96s-.4.58-.27,1.08c.06.19.85.52,1.54.62.69.1,1.48.04,2.1-.06.4-.06.69-.12.96-.23.64-.29.35-1.19.31-1.58l-4.64.17Z"/>
            <path class="cls-9" d="m41.61,132.13c.1.92,1.06,6.78,1.03,7.12l2.59.18c-.02-.64.34-6.79.4-7.31h-4.02Z"/>
            <path class="cls-4" d="m42.25,136.21s1.59.56,3.17-.1l-.12,2.51-2.7-.09-.36-2.31Z"/>
            <path class="cls-9" d="m36.54,132.04c-.1.92-1.06,6.78-1.03,7.12l-2.59.18c.02-.64-.34-6.79-.4-7.31h4.02Z"/>
            <path class="cls-1" d="m30.06,106.34c-.38,0-.74-.09-1.07-.27-.82-.45-1.23-1.37-1.09-2.47.18-1.43,1.63-7.37,2.08-9,.76-2.71,1.69-3.2,3.04-3.11,1.91.12,3.29,1.05,3.34,1.09.08.05.1.16.04.23-.05.08-.16.1-.23.04-.01,0-1.37-.92-3.18-1.03-1.01-.06-1.92.11-2.69,2.87-.45,1.62-1.89,7.53-2.07,8.95-.12.95.22,1.75.92,2.13.78.43,1.82.24,2.71-.5.07-.06.18-.05.24.02.06.07.05.18-.02.24-.63.53-1.35.8-2.01.8Z"/>
            <path class="cls-19" d="m46.67,115.02s.33,7.94-.13,16.79c0,0-2.99,1.31-6.97-.26,0,0-.29-11.17-.36-11.89-.16-1.68-.99-2.3-.99-2.3l.5.63s-.25,1.25-.38,3.2c-.22,3.06-.26,10.36-.26,10.36-3.98,1.57-6.97.26-6.97.26-.35-8.42-.13-16.79-.13-16.79l5.79-4.25h3.67l6.22,4.25Z"/>
            <path class="cls-11" d="m32.76,98.51c.58-1.53.47-6.97.47-6.97l2.66.69s.68,3.19.94,5.14c.19,1.41-.14,17.91-.14,17.91,0,0-3.61.84-6.66-.66,0,0,.86-6.82,1.19-8.75l1.53-7.37Z"/>
            <path class="cls-11" d="m44.48,98.51c-.58-1.53-.47-6.97-.47-6.97-1.12.01-2.22.05-2.66.69,0,0-.68,3.19-.94,5.14-.19,1.41.14,17.91.14,17.91,0,0,3.61.84,6.66-.66,0,0-.86-6.82-1.19-8.75l-1.53-7.37Z"/>
            <path class="cls-1" d="m34.29,115.7c-1.27,0-2.85-.19-4.32-.91-.06-.03-.1-.1-.09-.17,0-.07.86-6.84,1.19-8.76.02-.09.1-.15.19-.14.09.02.15.1.14.19-.3,1.77-1.05,7.7-1.17,8.63,2.61,1.23,5.65.74,6.31.62.03-1.58.31-16.43.14-17.75-.23-1.75-.81-4.53-.92-5.05-.78-.34-1.57-.55-2.34-.63.01.98.04,5.44-.49,6.84-.03.09-.13.13-.22.1-.09-.03-.13-.13-.1-.22.57-1.48.46-6.85.46-6.9,0-.05.02-.09.05-.13.03-.03.08-.05.13-.05.9.06,1.82.3,2.72.71.05.02.08.07.1.12,0,.03.69,3.22.94,5.16.19,1.41-.13,17.26-.14,17.93,0,.08-.06.14-.13.16-.08.02-1.08.24-2.45.24Z"/>
            <path class="cls-1" d="m43.09,115.82c-1.37,0-2.37-.23-2.45-.24-.08-.02-.13-.08-.13-.16-.01-.67-.32-16.53-.14-17.93.26-1.95.72-5.43.72-5.43,0-.05.03-.09.08-.12.76-.49,1.67-.65,2.71-.48.08.01.14.08.14.16,0,.05.19,5.48.75,6.97,0,0,0,.02,0,.02l.72,3.21c.02.09-.04.18-.13.2-.09.02-.18-.04-.2-.13l-.72-3.2c-.54-1.43-.73-6.04-.77-6.93-.87-.12-1.62.02-2.27.42-.07.53-.48,3.57-.71,5.36-.17,1.31.11,16.17.14,17.75.65.13,3.69.61,6.31-.62-.12-.92-.87-6.86-1.17-8.63-.02-.09.05-.18.14-.19.09-.02.18.05.19.14.32,1.92,1.18,8.69,1.19,8.76,0,.07-.03.14-.09.17-1.47.72-3.05.91-4.32.91Z"/>
            <path class="cls-13" d="m33.68,98.79s.77-.36,3.28-.33c0,0,5.29,2.27,6.89,2.46,0,0-.02.39-.45.51l-9.73-2.63Z"/>
            <path class="cls-1" d="m46.31,106.33s-.1,0-.15,0c-.64-.03-1.28-.31-1.87-.79-.07-.06-.08-.17-.02-.24.06-.07.17-.08.24-.02.53.44,1.11.69,1.67.72.58.03,1.1-.16,1.47-.56.41-.44.58-1.07.49-1.8-.18-1.41-1.62-7.32-2.07-8.95-.64-2.29-1.35-2.81-2.23-2.87-.09,0-.16-.09-.16-.18,0-.09.09-.16.18-.16,1.2.09,1.93.99,2.53,3.11.47,1.68,1.9,7.54,2.08,9,.11.82-.1,1.56-.58,2.07-.4.43-.96.67-1.59.67Z"/>
            <path class="cls-1" d="m40.42,92.69c-.05,0-.1-.02-.14-.07-.05-.08-.04-.18.04-.23.01,0,.31-.22.87-.44.09-.03.18,0,.22.1.03.09,0,.18-.1.22-.52.2-.8.4-.8.4-.03.02-.06.03-.1.03Z"/>
            <g>
              <path class="cls-8" d="m33.99,84.28c.3-1.4.47-2.09,1.53-2.89,1.19-.91,2.16-.86,3-.86.97,0,2.16.13,2.93.91.5.5,1.23,1.29,1.36,2.33.19,1.36-.3,2.96-.3,2.96l-8.24.11s-.6-1.14-.28-2.55Z"/>
              <path class="cls-6" d="m42.94,87.66c0,.16-.04.33-.14.49,0,.01-.01.02-.02.03-.37.51-.95.64-.95.64,0,0-.04.14-.11.35,0,0,0,.01,0,.02-.07.21-.17.49-.3.77,0,.02-.01.03-.02.05-.06.12-.14.25-.23.36-.01.02-.03.04-.04.06-.31.4-.7.7-.7.7,0,0,0,.02,0,.05,0,.03,0,.06,0,.1,0,.01,0,.03,0,.05,0,.09,0,.2,0,.34,0,.06,0,.13,0,.21,0,.54.03,1.23.17,1.6-.28.61-.87,1.27-2.12,1.37-1.18.09-1.92-.7-2.34-1.41.29-.76.16-2.31.16-2.31,0,0-.08-.07-.2-.19-.02-.02-.04-.04-.05-.05-.03-.03-.07-.07-.1-.11,0,0,0-.01-.01-.02-.04-.05-.08-.09-.11-.14,0,0,0-.01-.01-.02-.11-.15-.21-.32-.29-.5-.02-.05-.04-.09-.06-.14,0,0,0,0,0-.01-.06-.14-.11-.29-.16-.43-.14-.37-.25-.67-.25-.67,0,0-.08.01-.2-.01-.24-.04-.62-.19-.88-.74-.17-.5,0-.91,0-.91,0,0,.1-.22.31-.36.03-.02.05-.03.08-.05.28-.11.5-.02.78-.15.54-.28.6-.71.73-1.32.02-.08.05-.13.1-.17h0c.06-.05.15-.07.26-.1.14-.05.31-.11.48-.29.28-.3.39-.82.82-.88.19-.03.22.39.54.71.08.08.18.15.3.21.63.32,1.45.04,1.45.04,0,0,.41.07.65.22.26.13.37.35.37.35,0,0,.32.69.86,1.12.22.17.26.11.6.17.06.01.13.04.19.07.16.08.29.19.29.19,0,0,.03.04.06.12,0,0,0,0,0,0,.06.14.13.37.13.61Z"/>
              <path class="cls-1" d="m38.41,92.22s0,0,0,0c-.03,0-.79-.03-1.88-.74-.77-.49-1.03-1.03-1.16-1.32-.24-.46-.4-1.05-.53-1.63-.02-.09.04-.18.13-.2.09-.02.18.04.2.13.13.55.28,1.13.5,1.56.13.28.35.75,1.04,1.19,1,.65,1.7.69,1.71.69.09,0,.17.08.16.17,0,.09-.08.16-.17.16Z"/>
              <path class="cls-1" d="m38.43,92.22c-.09,0-.17-.08-.17-.17s.08-.17.17-.17c.01,0,.61-.02,1.59-.64.67-.42.98-.93,1.15-1.2v-.02c.38-.61.52-1.55.53-1.56.01-.09.1-.16.19-.14.09.01.15.1.14.19,0,.04-.16,1.01-.56,1.68v.02c-.19.3-.53.85-1.26,1.31-1.09.69-1.75.7-1.77.7Z"/>
              <path class="cls-1" d="m36.23,93.39s-.02,0-.04,0c-.09-.02-.15-.11-.13-.2.12-.58.06-2.01.06-2.03,0-.09.07-.17.16-.18.1,0,.17.07.18.16,0,.06.06,1.5-.07,2.11-.02.08-.09.13-.16.13Z"/>
              <path class="cls-1" d="m38.46,88.9s-.08-.01-.11-.05c-.07-.06-.07-.17,0-.24.18-.19.18-.26.18-.27,0-.02-.07-.08-.11-.11-.11-.09-.27-.21-.32-.44-.08-.32.03-.84.14-1.11.03-.09.13-.13.22-.1.09.03.13.13.1.22-.1.26-.18.7-.12.91.03.11.11.18.2.25.1.08.23.18.24.35.01.15-.07.31-.27.52-.03.04-.08.05-.12.05Z"/>
              <path class="cls-1" d="m36.19,85.62c-.05,0-.1-.02-.14-.07-.05-.08-.04-.18.04-.24.02-.02.54-.38,1.22-.08.09.04.13.14.09.22-.04.09-.14.12-.22.09-.51-.22-.89.04-.89.05-.03.02-.06.03-.1.03Z"/>
              <path class="cls-1" d="m40.48,85.6s-.07-.01-.1-.03c-.02-.01-.39-.26-.89-.03-.08.04-.18,0-.22-.08-.04-.08,0-.18.08-.22.69-.32,1.2.04,1.23.06.08.05.09.16.04.24-.03.05-.08.07-.14.07Z"/>
              <path class="cls-2" d="m36.32,91.21s.99.88,2.14.93c.86.02,2.09-.97,2.09-.97,0,0-1.25,1.49-2.4,1.66-.99.15-1.79-.67-1.79-.67l-.04-.95Z"/>
              <path class="cls-1" d="m40.51,93.45c-.08,0-.14-.05-.16-.13-.16-.62-.09-2.04-.09-2.1,0-.09.08-.16.18-.16.09,0,.17.08.16.18,0,.01-.06,1.43.08,2,.02.09-.03.18-.12.2-.01,0-.03,0-.04,0Z"/>
              <path class="cls-1" d="m41.84,89.01c-.08,0-.14-.05-.16-.13-.02-.09.03-.18.12-.2.51-.13.81-.41.94-.87.08-.3.02-.6-.14-.77-.14-.14-.34-.18-.58-.13-.09.02-.18-.03-.2-.12-.02-.09.03-.18.12-.2.36-.09.68,0,.9.22.25.26.34.66.23,1.09-.16.59-.54.96-1.18,1.11-.01,0-.03,0-.04,0Z"/>
              <path class="cls-1" d="m42.08,88.01s-.05,0-.08-.02c-.08-.04-.12-.14-.07-.23.01-.02.11-.22.32-.35.08-.05.18-.03.23.05.05.08.03.18-.05.23-.13.08-.2.21-.2.21-.03.06-.09.09-.15.09Z"/>
              <path class="cls-5" d="m38.43,89.55c-.56,0-1.12-.11-1.12-.11,0,0,.26,1.1,1.14,1.14.84.04,1.14-1.14,1.14-1.14,0,0-.6.11-1.17.11Z"/>
              <path class="cls-1" d="m35,89.03s-.03,0-.04,0c-.64-.16-1.02-.52-1.18-1.11-.11-.43-.02-.83.23-1.09.22-.23.54-.3.9-.22.09.02.15.11.12.2-.02.09-.11.15-.2.12-.24-.06-.44-.01-.58.13-.17.17-.22.46-.14.77.12.47.42.74.94.87.09.02.15.11.12.2-.02.08-.09.13-.16.13Z"/>
              <path class="cls-1" d="m34.77,88.04c-.06,0-.12-.03-.15-.09,0,0-.07-.13-.2-.21-.08-.05-.1-.15-.05-.23.05-.08.15-.1.23-.05.21.13.31.33.32.35.04.08,0,.18-.08.23-.02.01-.05.02-.08.02Z"/>
              <path class="cls-1" d="m38.5,90.76s-.04,0-.06,0c-1-.05-1.29-1.22-1.3-1.27-.01-.06,0-.11.04-.16.04-.04.1-.06.15-.05,0,0,.55.1,1.09.1s1.13-.1,1.14-.11c.06-.01.11,0,.15.05.04.04.05.1.04.16-.01.05-.33,1.27-1.26,1.27Zm-.94-1.1c.13.29.4.74.9.76.48.03.75-.46.88-.77-.23.03-.58.07-.91.07s-.65-.03-.87-.07Z"/>
              <path class="cls-1" d="m34.2,86.87c-.07,0-.14-.05-.16-.12-.25-.9-.29-1.88-.11-2.69.02-.09.11-.15.2-.13.09.02.15.11.13.2-.17.76-.13,1.68.11,2.53.03.09-.03.18-.12.21-.02,0-.03,0-.05,0Z"/>
              <path class="cls-1" d="m33.79,83.98c-.07,0-.13-.04-.16-.11-.03-.09,0-.18.1-.22.16-.06.3-.4.38-.6.02-.06.04-.11.06-.15.56-1.22,1.38-1.91,2.76-2.29.56-.16.97-.19,1.31-.22.44-.04.69-.06.92-.33.06-.07.17-.08.24-.02.07.06.08.17.02.24-.32.37-.67.4-1.14.44-.32.03-.72.07-1.25.21-1.27.36-2.04.99-2.55,2.11-.02.04-.04.09-.06.14-.12.28-.27.67-.57.79-.02,0-.04.01-.06.01Z"/>
              <path class="cls-1" d="m42.56,86.89s-.04,0-.05,0c-.09-.03-.14-.12-.11-.21,0,0,.13-.38.21-1.05.01-.09.1-.16.19-.15.09.01.16.1.15.19-.09.7-.22,1.1-.22,1.11-.02.07-.09.12-.16.12Z"/>
              <path class="cls-1" d="m43.14,85.45s-.05,0-.07-.01c-.28-.13-.33-.54-.36-.92-.02-.56-.13-1.06-.31-1.5-.43-1.11-1.48-1.91-2.88-2.19-.09-.02-.15-.11-.13-.2.02-.09.11-.15.2-.13,1.52.3,2.66,1.18,3.12,2.39.2.47.31,1.01.33,1.61.03.48.1.61.16.63.09.04.12.14.09.22-.03.06-.09.1-.15.1Z"/>
              <path class="cls-1" d="m41.74,86.48s-.04,0-.06-.01c-.78-.31-1.04-1.2-1.05-1.23-.03-.09.03-.18.12-.21.09-.03.18.03.21.12,0,0,.23.77.85,1.01.09.03.13.13.1.22-.03.07-.09.11-.16.11Z"/>
              <path class="cls-1" d="m40.14,85.04s-.02,0-.03,0c-.9-.18-1.42-.9-1.47-1.51,0-.09.06-.17.15-.18.09,0,.17.06.18.15.03.4.38,1.04,1.2,1.21.09.02.15.11.13.2-.02.08-.09.14-.17.14Z"/>
              <path class="cls-1" d="m38.18,84.84s-.07-.01-.11-.04c-.5-.4-.57-1.18-.47-1.58.02-.09.12-.14.21-.12.09.02.14.12.12.21-.07.27-.04.91.35,1.23.07.06.08.16.02.24-.03.04-.08.06-.13.06Z"/>
              <path class="cls-1" d="m35.09,86.63c-.07,0-.13-.04-.16-.11-.03-.09.01-.18.1-.22.3-.11.38-.36.46-.61l.02-.07c.03-.09.12-.14.21-.11.09.03.14.12.11.21l-.02.06c-.08.26-.21.65-.66.82-.02,0-.04.01-.06.01Z"/>
              <path class="cls-1" d="m35.89,85.29c-.08,0-.15-.05-.16-.13-.02-.09.04-.18.13-.2.74-.17,1.09-1.05,1.09-1.06.03-.09.13-.13.22-.1.09.03.13.13.1.22-.02.04-.41,1.06-1.33,1.27-.01,0-.03,0-.04,0Z"/>
              <path class="cls-1" d="m37.16,87.51c-.05,0-.11-.02-.14-.07-.07-.1-.18-.22-.29-.22h0c-.12,0-.24.15-.27.19-.05.08-.15.1-.23.05-.08-.05-.1-.15-.05-.23.02-.03.22-.33.54-.34.21,0,.41.12.58.36.05.08.04.18-.04.23-.03.02-.06.03-.1.03Z"/>
              <path class="cls-1" d="m39.56,87.51s-.07,0-.1-.03c-.08-.05-.09-.16-.04-.23.17-.25.37-.37.58-.36.32,0,.52.3.54.34.05.08.03.18-.05.23-.08.05-.18.03-.23-.05-.03-.05-.15-.18-.27-.19-.12,0-.22.12-.3.22-.03.05-.09.07-.14.07Z"/>
            </g>
            <path class="cls-1" d="m34.14,132.5c-1.83,0-3.01-.5-3.08-.53-.06-.03-.1-.08-.1-.15-.34-8.33-.13-16.72-.13-16.8,0-.09.08-.17.17-.16.09,0,.17.08.16.17,0,.08-.21,8.39.12,16.67.53.2,3.22,1.05,6.63-.25,0-.94.05-7.43.26-10.25.14-1.94.38-3.21.39-3.22.02-.09.11-.15.2-.13.09.02.15.11.13.2,0,.01-.25,1.27-.38,3.18-.22,3.02-.25,10.27-.25,10.35,0,.07-.04.13-.11.16-1.52.6-2.89.79-4.01.79Z"/>
            <path class="cls-1" d="m43.53,132.5c-1.12,0-2.49-.19-4.01-.79-.06-.02-.1-.08-.11-.15,0-.11-.29-11.17-.36-11.88-.15-1.57-.92-2.17-.93-2.18-.07-.06-.09-.16-.03-.24.06-.07.16-.09.24-.03.04.03.89.68,1.06,2.42.07.69.32,10.55.36,11.79,3.42,1.31,6.11.45,6.64.25.45-8.7.13-16.59.12-16.67,0-.09.07-.17.16-.18.09,0,.17.07.18.16,0,.08.33,8.05-.13,16.81,0,.06-.04.12-.1.15-.08.03-1.25.53-3.08.53Zm3.01-.69h0,0Z"/>
            <path class="cls-12" d="m54.68,99.06c-2.93,3.55-5.5,3.84-6.15,4.14-.04.02-.07.03-.09.05-.86.64-1.73,1.2-4.93,2.05-3.2.85-10.09.83-13.43-1.56-1.96-1.4-3.08-3.47-3.48-4.35-.11-.23,0-.5.24-.59.89-.33,3.06-.96,5.49-.37,3.17.76,5.47,1.78,7.55,2.13,2.08.36,5.53,1.61,7.28,1.37.07-.09.13-.18.19-.28,1.08-1.75,1.53-5.16,3.29-6.61l-.18,4.7,4.23-.68Z"/>
            <path class="cls-13" d="m33.86,101.9s3.71-.91,4.56-.8c.85.11-.11,3.21-1.6,3.06-1.5-.15-3.03-1.09-3.03-1.09l.07-1.17Z"/>
            <path class="cls-13" d="m32.33,98.44s.7,2.55-2,5.47c0,0-4.24-3.76-3.76-4.79.62-1.34,5.77-.67,5.77-.67Z"/>
            <path class="cls-13" d="m54.68,99.06c-2.93,3.55-5.5,3.84-6.15,4.14.13-.46.23-.92.15-1.09-.1-.22-.79-.37-1.34-.45,1.08-1.75,1.53-5.16,3.29-6.61.27,1.62.19,3.19-.18,4.7,1.33-.37,2.68-.8,4.23-.68Z"/>
            <path class="cls-1" d="m38.84,105.99c-3.2,0-6.76-.6-8.85-2.11-2.01-1.44-3.14-3.56-3.54-4.41-.07-.15-.08-.33-.01-.48.06-.15.19-.28.35-.33.85-.32,3.09-.98,5.59-.38,1.51.36,2.83.79,3.99,1.16,1.32.42,2.46.79,3.54.97.71.12,1.57.35,2.49.58,1.66.43,3.54.92,4.67.79.47-.65.81-1.64,1.18-2.68.57-1.6,1.15-3.26,2.29-4.19.05-.04.11-.05.17-.03.06.02.1.08.1.14,0,.1.22,2.48-.13,4.47,2.21-.68,3.94-.61,4.02-.61.06,0,.12.04.15.1.03.06.02.13-.02.18-2.49,3.02-4.71,3.71-5.77,4.04-.23.07-.43.13-.5.19-.93.69-1.84,1.25-4.98,2.08-1.24.33-2.93.52-4.72.52Zm-8.56-7.62c-1.54,0-2.8.39-3.38.6-.07.03-.12.08-.15.15-.03.07-.03.14,0,.21.39.82,1.49,2.89,3.43,4.28,3.19,2.29,9.89,2.43,13.29,1.53,3.09-.82,3.96-1.35,4.87-2.02.12-.09.31-.15.6-.24,1-.31,3.05-.95,5.38-3.65-.65.01-2.12.12-3.82.68-.06.02-.12,0-.17-.03-.05-.04-.07-.1-.05-.16.33-1.56.25-3.52.2-4.31-.9.91-1.43,2.38-1.93,3.81-.39,1.09-.75,2.13-1.27,2.82-.03.04-.07.06-.11.07-1.19.17-3.06-.32-4.87-.79-.9-.24-1.76-.46-2.46-.58-1.11-.19-2.26-.56-3.59-.98-1.16-.37-2.48-.79-3.97-1.15-.7-.17-1.38-.23-2.01-.23Zm16.88,3.57h0,0Z"/>
            <path class="cls-1" d="m48.44,103.42s-.07,0-.09-.03c-.08-.05-.1-.16-.04-.23.29-.43.39-.75.28-.92-.19-.28-.95-.23-1.39-.14-.09.02-.18-.04-.2-.13-.02-.09.04-.18.13-.2.14-.03,1.37-.28,1.74.28.2.3.11.72-.28,1.3-.03.05-.09.07-.14.07Z"/>
            <path class="cls-1" d="m36.92,104.34s-.08,0-.12,0c-1.52-.15-3.04-1.08-3.1-1.12-.08-.05-.1-.15-.05-.23s.15-.1.23-.05c.02,0,1.52.93,2.96,1.07.88.08,1.63-1.22,1.73-2.13.03-.26,0-.58-.16-.6-.65-.08-3.23.49-4.5.8-.09.02-.18-.03-.2-.12-.02-.09.03-.18.12-.2.15-.04,3.75-.92,4.62-.81.35.04.52.41.45.97-.1.9-.84,2.43-1.97,2.43Z"/>
            <path class="cls-1" d="m30.21,99.67c-.07,0-.13-.04-.15-.1l-.33-.77c-.04-.09,0-.18.09-.22.09-.04.18,0,.22.09l.33.77c.04.09,0,.18-.09.22-.02,0-.04.01-.07.01Z"/>
            <path class="cls-1" d="m29.68,99.5c-.05,0-.11-.03-.14-.07-.05-.08-.03-.18.05-.23.02-.01.48-.32.94-.44.09-.02.18.03.2.12.02.09-.03.18-.12.2-.4.1-.83.39-.84.39-.03.02-.06.03-.09.03Z"/>
            <path class="cls-4" d="m35.91,136.21s-1.59.56-3.17-.1l.12,2.51,2.7-.09.36-2.31Z"/>
            <path class="cls-1" d="m29.44,100.91c-.05,0-.1-.02-.13-.07-1.04-1.38-2.75-1.55-2.77-1.56-.09,0-.16-.09-.15-.18,0-.09.09-.16.18-.15.08,0,1.88.19,3.01,1.69.06.07.04.18-.03.24-.03.02-.07.03-.1.03Z"/>
            <path class="cls-1" d="m30.32,104.08s-.08-.01-.11-.04c-.07-.06-.07-.17,0-.24,2.6-2.81,1.97-5.29,1.97-5.31-.02-.09.03-.18.12-.21.09-.02.18.03.21.12.03.11.69,2.67-2.04,5.63-.03.04-.08.05-.12.05Z"/>
            <path class="cls-1" d="m32.76,101.53s-.07-.01-.11-.04c-.07-.06-.08-.16-.03-.24.67-.83.37-1.95.37-1.97-.02-.09.03-.18.12-.21.09-.02.18.03.21.12.01.05.34,1.3-.43,2.27-.03.04-.08.06-.13.06Z"/>
            <path class="cls-1" d="m43.41,101.59c-.07,0-.14-.05-.16-.13-.02-.09.03-.18.12-.21.15-.04.23-.13.28-.2-1.74-.31-6.26-2.23-6.72-2.43-2.42-.03-3.16.31-3.17.31-.08.04-.18,0-.22-.08-.04-.08,0-.18.08-.22.03-.02.83-.38,3.35-.34.02,0,.04,0,.06.01.05.02,5.28,2.27,6.85,2.44.09,0,.15.09.15.17,0,.18-.14.55-.57.66-.01,0-.03,0-.04,0Z"/>
            <path class="cls-1" d="m38.27,95c-1.13,0-1.85-.76-2.26-1.42-.05-.08-.03-.18.05-.23.08-.05.18-.03.23.05.39.62,1.07,1.34,2.14,1.26.96-.07,1.63-.5,1.98-1.27.24-.52.23-1.01.23-1.02,0-.09.07-.17.17-.17.08,0,.17.07.17.17,0,.02,0,.57-.27,1.16-.28.61-.9,1.36-2.26,1.46-.07,0-.13,0-.19,0Z"/>
            <path class="cls-1" d="m45.23,139.6c-.09,0-.17-.07-.17-.16-.02-.68.35-6.84.4-7.33.01-.09.09-.16.19-.15.09.01.16.09.15.19-.05.47-.42,6.65-.4,7.28,0,.09-.07.17-.16.17,0,0,0,0,0,0Z"/>
            <path class="cls-1" d="m42.64,139.42s-.01,0-.02,0c-.09-.01-.16-.09-.15-.19.02-.21-.33-2.47-.59-4.13-.2-1.32-.4-2.57-.44-2.96,0-.09.06-.18.15-.19.09,0,.18.06.19.15.04.38.23,1.63.44,2.94.38,2.48.61,4.01.59,4.22,0,.09-.08.15-.17.15Z"/>
            <path class="cls-1" d="m32.92,139.6s0,0,0,0c-.09,0-.17-.08-.16-.17.02-.64-.35-6.82-.4-7.28-.01-.09.06-.18.15-.19.09-.01.18.06.19.15.05.49.42,6.65.4,7.33,0,.09-.08.16-.17.16Z"/>
            <path class="cls-1" d="m35.51,139.42c-.08,0-.16-.06-.17-.15-.02-.21.21-1.73.59-4.22.2-1.32.4-2.56.44-2.94,0-.09.09-.16.19-.15.09,0,.16.09.15.19-.04.39-.23,1.64-.44,2.96-.26,1.65-.6,3.92-.59,4.13,0,.09-.06.17-.15.18,0,0-.01,0-.02,0Z"/>
            <path class="cls-1" d="m34.56,136.6c-.5,0-1.08-.08-1.7-.34-.09-.04-.13-.13-.09-.22.04-.09.14-.13.22-.09,1.5.63,2.85.11,2.86.1.09-.03.18,0,.22.09.03.09,0,.18-.09.22-.04.01-.6.24-1.42.24Z"/>
            <path class="cls-1" d="m43.6,136.6c-.82,0-1.38-.22-1.42-.24-.09-.03-.13-.13-.09-.22.03-.09.13-.13.22-.09.01,0,1.36.53,2.86-.1.09-.04.18,0,.22.09s0,.18-.09.22c-.62.26-1.2.34-1.7.34Z"/>
            <g>
              <path class="cls-9" d="m29.62,104.17c-.16.04-.44.01-.63-.23-.19-.24-.1-.51.06-.67.13-.15.47-.44.71-.6.24-.19.46-.37.61-.41.21-.08.43.1.5.21.07.14-.01.26-.01.26l-1.22,1.45Z"/>
              <path class="cls-9" d="m30.99,102.62c-.29.14-1.24,1.35-1.36,1.58-.07.13.06.49.36.62.18.07.41.05.6-.12.16-.16.84-1.24.92-1.61.06-.31-.42-.51-.51-.46Z"/>
              <path class="cls-9" d="m32.14,103.83s.11-.4,0-.53c-.13-.17-.42-.27-.57-.08-.41.54-.99,1.53-.98,1.83.01.25.33.44.55.39.3-.06.59-.47.59-.47l.4-1.13Z"/>
              <path class="cls-9" d="m32.88,104.92c-.33.39-.54.52-.65.54-.32.05-.52-.22-.49-.41.05-.41.18-1,.33-1.14.09-.08.35-.4.46-.37.09.02.32.09.31.29.02.11-.05.29-.12.47-.09.22-.06.53-.06.53l.22.09Z"/>
            </g>
            <g>
              <path class="cls-1" d="m29.49,104.35c-.21,0-.46-.08-.64-.31-.24-.32-.14-.68.07-.9.14-.17.51-.47.73-.62l.1-.08c.22-.17.4-.31.55-.36.28-.11.58.1.69.28.1.19.03.37-.02.45-.05.08-.16.09-.24.04-.08-.05-.09-.16-.04-.24,0,0,.02-.04,0-.08-.03-.06-.18-.18-.29-.14-.11.03-.29.17-.46.31l-.11.08c-.24.17-.57.44-.68.58-.05.05-.22.25-.06.46.17.23.43.18.46.17.09-.02.18.04.2.13.02.09-.04.18-.13.2-.05.01-.1.02-.16.02Z"/>
              <path class="cls-1" d="m30.18,105.03c-.09,0-.17-.02-.26-.05-.21-.09-.37-.27-.44-.48-.05-.14-.05-.28,0-.37.12-.23,1.09-1.49,1.44-1.65.16-.07.41.05.53.15.18.14.25.32.22.5-.09.43-.8,1.53-.96,1.7-.15.14-.34.21-.52.21Zm.86-2.24c-.26.16-1.14,1.26-1.26,1.49-.02.06.07.3.27.39.14.05.3.02.42-.09.14-.14.8-1.19.87-1.52,0-.02,0-.06-.04-.11-.07-.09-.2-.14-.26-.15Z"/>
              <path class="cls-1" d="m31.07,105.61c-.13,0-.28-.05-.4-.14-.15-.11-.23-.26-.24-.42-.02-.42.74-1.57,1.01-1.94.09-.11.21-.17.35-.17h0c.18,0,.37.1.49.25.14.17.06.53.02.68-.03.09-.12.14-.21.12-.09-.03-.14-.12-.12-.21.04-.15.06-.34.04-.38-.05-.06-.15-.11-.22-.11h0s-.07.02-.08.04c-.47.62-.95,1.51-.94,1.71,0,.06.04.12.11.16.08.06.17.08.24.07.18-.04.39-.27.49-.4.05-.08.16-.09.23-.04.08.05.09.16.04.23-.03.05-.34.47-.69.54-.04,0-.07.01-.11.01Z"/>
              <path class="cls-1" d="m32.16,105.63c-.16,0-.3-.06-.41-.16-.12-.12-.19-.29-.17-.44.03-.27.16-1.03.38-1.24.03-.02.06-.05.09-.09.22-.22.37-.37.53-.32.27.06.43.23.43.44.02.15-.06.34-.14.54-.06.15-.06.38-.05.45,0,.02,0,.05,0,.07.06-.02.12-.01.17.03.07.06.08.17.02.24-.35.42-.61.46-.73.48-.04,0-.08,0-.12,0Zm.36-1.92c-.06.04-.18.16-.24.22-.04.05-.08.08-.11.11-.08.07-.22.55-.27,1.03,0,.04.02.1.07.15.04.04.12.09.23.07h.02c.09-.02.24-.04.47-.3,0,0-.01,0-.02,0-.09,0-.18-.06-.19-.15,0-.04-.03-.36.07-.61.05-.12.12-.32.11-.38,0,0,0-.02,0-.03,0-.05-.09-.09-.15-.11Zm-.03,0s0,0,0,0c0,0,0,0,0,0Z"/>
            </g>
            <g>
              <path class="cls-9" d="m47.11,105.03c.16.06.44.08.66-.14.22-.21.17-.49.04-.68-.1-.17-.4-.5-.61-.7-.21-.22-.4-.43-.54-.5-.2-.11-.44.04-.52.14-.09.12-.02.26-.02.26l.99,1.62Z"/>
              <path class="cls-9" d="m45.98,103.3c.27.18,1.03,1.52,1.11,1.76.05.14-.13.48-.44.56-.19.04-.42-.02-.58-.21-.13-.18-.65-1.35-.67-1.73-.02-.31.49-.44.58-.38Z"/>
              <path class="cls-9" d="m44.67,104.32s-.05-.42.07-.53c.16-.14.45-.2.57,0,.32.6.76,1.66.7,1.95-.05.25-.39.39-.6.3-.29-.11-.51-.55-.51-.55l-.22-1.18Z"/>
              <path class="cls-9" d="m43.77,105.3c.26.43.46.6.56.63.31.1.54-.14.55-.33.02-.42-.03-1.02-.16-1.18-.08-.09-.29-.45-.4-.43-.09,0-.33.04-.35.24-.03.1,0,.29.05.48.06.23-.02.53-.02.53l-.23.06Z"/>
            </g>
            <g>
              <path class="cls-1" d="m47.33,105.24c-.1,0-.2-.02-.28-.05-.09-.03-.13-.13-.1-.22.03-.09.13-.13.22-.1.03.01.28.1.48-.1.2-.19.05-.41.02-.46-.1-.16-.38-.48-.59-.68l-.1-.1c-.15-.16-.31-.32-.4-.37-.11-.06-.27.04-.32.09-.02.03,0,.07,0,.07.04.08.01.18-.07.23-.08.04-.18,0-.23-.07-.04-.09-.09-.27.04-.44.14-.17.47-.34.74-.18.13.07.29.23.48.43l.09.1c.19.18.51.53.63.73.17.24.22.61-.07.89-.17.16-.37.22-.55.22Z"/>
              <path class="cls-1" d="m46.53,105.81c-.22,0-.44-.1-.59-.29-.14-.19-.68-1.39-.7-1.83-.01-.18.1-.35.29-.46.14-.08.41-.16.55-.07h0c.32.21,1.09,1.6,1.18,1.85.04.1.02.24-.06.37-.11.2-.29.35-.5.41-.05.01-.11.02-.16.02Zm-.62-2.35c-.06,0-.19.04-.28.11-.05.05-.05.08-.05.11.02.34.51,1.47.64,1.64.1.12.25.18.4.15.21-.06.33-.28.32-.35-.09-.24-.79-1.46-1.03-1.66Zm.01,0h0,0Z"/>
              <path class="cls-1" d="m45.55,106.25c-.07,0-.14-.01-.2-.04-.34-.12-.57-.58-.6-.64-.04-.08,0-.18.08-.23.08-.04.18,0,.23.08.08.15.26.41.42.47.07.03.17.02.25-.03.07-.04.12-.09.13-.15.04-.2-.31-1.15-.68-1.84,0-.02-.03-.04-.07-.05-.07-.01-.17.02-.24.08-.03.04-.04.23-.02.38.01.09-.05.18-.15.19-.09.01-.18-.05-.19-.15-.02-.15-.05-.52.12-.67.14-.13.34-.2.52-.17.14.02.25.1.32.22.22.41.8,1.66.72,2.07-.03.16-.14.29-.3.38-.1.05-.22.08-.33.08Z"/>
              <path class="cls-1" d="m44.48,106.12c-.06,0-.13-.01-.2-.03-.18-.06-.41-.3-.65-.7-.05-.08-.02-.18.06-.23.05-.03.12-.03.17,0,.02-.1.04-.27.01-.4-.05-.21-.09-.42-.05-.56.03-.21.22-.34.5-.37.16-.02.29.14.47.39.03.04.05.08.07.09.23.3.2,1.29.2,1.3,0,.15-.09.3-.24.4-.1.07-.22.11-.34.11Zm-.43-.71c.22.32.34.36.34.36.11.03.19,0,.24-.03.06-.04.09-.1.09-.14.02-.49-.05-.98-.12-1.07-.02-.02-.05-.06-.08-.11-.05-.06-.14-.2-.2-.25-.07.01-.16.04-.17.09,0,.01,0,.02,0,.03-.02.06.03.27.06.39.06.26-.01.58-.02.61-.02.06-.07.11-.12.12Zm.3-1.25s0,0,0,0c0,0,0,0,0,0Z"/>
            </g>
            <path class="cls-1" d="m38.64,111.11c-1.05,0-1.84-.17-1.89-.18-.09-.02-.15-.11-.13-.2.02-.09.11-.15.2-.13.02,0,1.97.41,3.76-.06.09-.02.18.03.21.12.02.09-.03.18-.12.21-.69.18-1.4.24-2.02.24Z"/>
            <path class="cls-15" d="m42.13,141.33c-.06.48-1.15,2.36-1.07,3.13.04.37,1.02.77,1.71.81,1.54.07,2.14-.21,2.6-.39.69-.27.27-1.37.1-3.6-.02-.17.37-4.24.37-4.24-.97.73-2.76.97-3.86.2,0,0,.36,2.37.15,4.09Z"/>
            <path class="cls-15" d="m36.02,141.33c.06.48,1.15,2.36,1.07,3.13-.04.37-1.02.77-1.71.81-1.54.07-2.14-.21-2.6-.39-.69-.27-.27-1.37-.1-3.6.02-.17-.37-4.24-.37-4.24.97.73,2.76.97,3.86.2,0,0-.36,2.37-.15,4.09Z"/>
            <path class="cls-1" d="m43.26,145.45c-.15,0-.32,0-.49-.01-.72-.04-1.82-.46-1.87-.96-.05-.52.34-1.42.69-2.2.18-.41.36-.8.38-.96h0c.21-1.67-.14-4.02-.15-4.04-.01-.07.02-.13.08-.17.06-.04.13-.03.19,0,1.03.72,2.76.48,3.66-.2.05-.04.13-.04.18-.01.06.03.09.1.09.16-.15,1.6-.38,4.03-.37,4.21.05.62.12,1.15.17,1.61.15,1.2.24,1.92-.38,2.16l-.11.04c-.41.16-.95.37-2.06.37Zm-.96-4.1c-.03.21-.19.58-.4,1.06-.3.67-.71,1.6-.67,2.03.02.2.83.62,1.56.66,1.39.07,1.98-.16,2.42-.33l.11-.04c.36-.14.31-.65.16-1.8-.06-.47-.13-1-.18-1.63-.02-.15.22-2.71.34-3.92-.95.55-2.39.72-3.44.19.09.73.27,2.44.1,3.78h0Z"/>
            <path class="cls-1" d="m44.86,143.58s-.08-.01-.11-.04c-.7-.6-1.84-.5-2.54-.07-.08.05-.18.03-.23-.05-.05-.08-.02-.18.05-.23.93-.58,2.19-.53,2.93.1.07.06.08.17.02.24-.03.04-.08.06-.13.06Z"/>
            <path class="cls-1" d="m34.89,145.45c-1.12,0-1.66-.21-2.06-.37l-.11-.04c-.62-.24-.53-.96-.38-2.16.06-.46.13-.99.17-1.61,0-.18-.22-2.61-.37-4.21,0-.07.03-.13.09-.16.06-.03.13-.03.18.01.9.67,2.62.92,3.66.2.06-.04.13-.04.19,0,.06.04.09.1.08.17,0,.02-.35,2.37-.15,4.04h0c.02.16.19.55.38.96.35.79.75,1.68.69,2.2-.05.5-1.15.92-1.87.96-.18,0-.34.01-.49.01Zm-2.38-8.07c.11,1.21.35,3.76.34,3.92-.05.63-.12,1.16-.18,1.62-.15,1.15-.2,1.66.17,1.8l.11.04c.44.17,1.03.4,2.42.33.73-.04,1.53-.46,1.55-.66.04-.43-.37-1.36-.67-2.03-.21-.47-.38-.85-.4-1.06h0c-.17-1.35,0-3.06.1-3.78-1.05.53-2.49.35-3.44-.19Z"/>
            <path class="cls-1" d="m35,145.87c-.54,0-1.04-.06-1.35-.11-.4-.06-.71-.12-1-.24-.65-.3-.52-1.07-.44-1.53.01-.08.03-.16.03-.22,0-.09.09-.16.18-.15.09,0,.16.09.15.18,0,.07-.02.15-.04.24-.09.52-.13,1,.25,1.17.25.11.53.16.92.22.43.07,1.28.17,2.05.06.68-.09,1.33-.39,1.41-.51.11-.4-.25-.92-.25-.92-.05-.08-.03-.18.04-.23.08-.05.18-.03.23.04.02.03.45.65.29,1.22-.11.35-1.13.66-1.68.74-.27.04-.54.05-.8.05Z"/>
            <path class="cls-1" d="m33.29,143.58s-.1-.02-.13-.06c-.06-.07-.05-.18.02-.24.75-.63,2.01-.68,2.93-.1.08.05.1.15.05.23-.05.08-.15.1-.23.05-.7-.43-1.84-.53-2.54.07-.03.03-.07.04-.11.04Z"/>
            <path class="cls-1" d="m35.12,102.46c-.09,0-.16-.07-.17-.16,0-.09.07-.17.16-.18.01,0,1.38-.08,2.73-.42.09-.02.18.03.2.12s-.03.18-.12.2c-1.38.34-2.77.43-2.79.43,0,0,0,0,0,0Z"/>
            <path class="cls-1" d="m36.91,102.98c-.83,0-1.56-.13-1.6-.13-.09-.02-.15-.1-.14-.19.02-.09.1-.15.2-.14.01,0,1.21.21,2.25.09.09,0,.18.06.19.15.01.09-.06.18-.15.19-.25.03-.5.04-.75.04Z"/>
            <path class="cls-1" d="m36.65,103.71s-.01,0-.02,0c-.72-.09-1.59-.42-1.63-.44-.09-.03-.13-.13-.1-.22.03-.09.13-.13.22-.1,0,0,.88.33,1.55.42.09.01.16.1.15.19-.01.08-.08.15-.17.15Z"/>
            <path class="cls-1" d="m48.2,101.38s-.04,0-.06-.01c-.09-.03-.13-.13-.1-.22,0,0,.83-2.1,1.59-4.07.03-.09.13-.13.22-.1.09.03.13.13.1.22-.77,1.97-1.59,4.07-1.59,4.07-.03.07-.09.11-.16.11Z"/>
            <path class="cls-1" d="m49.46,102.39c-.07,0-.13-.04-.16-.11-.03-.09,0-.18.1-.22.02,0,2.15-.85,3.28-2.04.06-.07.17-.07.24,0,.07.06.07.17,0,.24-1.18,1.24-3.31,2.08-3.4,2.12-.02,0-.04.01-.06.01Z"/>
            <path class="cls-1" d="m49.33,101.9c-.05,0-.11-.03-.14-.07-.05-.08-.03-.18.05-.23.01,0,1.44-.97,2.18-1.7.07-.06.17-.06.24,0,.07.07.06.17,0,.24-.77.75-2.17,1.69-2.23,1.73-.03.02-.06.03-.09.03Z"/>
            <path class="cls-1" d="m48.92,101.29s-.07-.01-.11-.04c-.07-.06-.08-.16-.02-.24.41-.5.64-1.38.81-2.01.09-.32.15-.58.23-.74.04-.08.14-.12.22-.08.08.04.12.14.08.22-.06.13-.13.39-.21.68-.18.67-.42,1.58-.87,2.14-.03.04-.08.06-.13.06Z"/>
            <path class="cls-1" d="m35.39,99.47c-.08,0-.14-.05-.16-.13-.02-.09.03-.18.12-.2.04,0,.95-.24,1.72-.3.09,0,.17.06.18.15,0,.09-.06.17-.15.18-.74.06-1.65.29-1.66.29-.01,0-.03,0-.04,0Z"/>
            <path class="cls-1" d="m36.95,99.97c-.08,0-.15-.05-.16-.13-.02-.09.04-.18.13-.2,0,0,.65-.15,1.06-.4.08-.05.18-.02.23.05.05.08.02.18-.05.23-.46.28-1.13.44-1.16.44-.01,0-.02,0-.04,0Z"/>
            <path class="cls-1" d="m38.18,100.31c-.08,0-.15-.06-.16-.14-.02-.09.04-.18.13-.2,0,0,.49-.1.76-.31.07-.06.18-.04.24.03.06.07.04.18-.03.24-.33.26-.88.37-.9.38-.01,0-.02,0-.03,0Z"/>
            <path class="cls-1" d="m39.47,100.65c-.06,0-.12-.03-.15-.08-.05-.08-.02-.18.06-.23,0,0,.21-.12.47-.32.07-.06.18-.04.24.03.06.07.04.18-.03.24-.28.22-.5.34-.51.35-.03.02-.06.02-.08.02Z"/>
            <path class="cls-1" d="m42.59,101.34c-.07,0-.14-.04-.16-.12-.03-.09.02-.18.11-.21l.3-.1c.09-.03.18.02.21.11.03.09-.02.18-.11.21l-.3.1s-.04,0-.05,0Z"/>
            <path class="cls-1" d="m40.62,100.91c-.06,0-.11-.03-.14-.08-.05-.08-.02-.18.05-.23l.41-.26c.08-.05.18-.02.23.05.05.08.02.18-.05.23l-.41.26s-.06.03-.09.03Z"/>
            <path class="cls-1" d="m41.68,101.14s-.09-.02-.12-.05c-.06-.07-.06-.17,0-.24l.19-.18c.07-.06.17-.06.24,0,.06.07.06.17,0,.24l-.19.18s-.08.05-.12.05Z"/>
            <path class="cls-1" d="m40.35,102.8s-.08-.01-.11-.04c-.07-.06-.08-.17-.02-.24.07-.09.09-.14.08-.17-.02-.05-.12-.1-.18-.11-.06-.02-.11-.06-.13-.13-.01-.06,0-.13.06-.17.1-.08.22-.21.21-.32-.02-.15-.26-.29-.34-.33-.09-.04-.12-.14-.09-.22.04-.09.14-.13.22-.09.05.02.49.22.54.59.02.15-.03.3-.15.45.07.05.14.12.17.22.05.15,0,.32-.14.49-.03.04-.08.06-.13.06Z"/>
            <path class="cls-1" d="m38.23,105.39c-.08,0-.15-.06-.17-.14-.01-.09.05-.18.14-.19.07-.01.1-.04.11-.06.05-.08.03-.23.02-.28-.02-.07.01-.15.07-.19.07-.05.16-.12.17-.2,0-.08-.06-.16-.08-.18-.07-.06-.08-.17-.01-.24.06-.07.17-.08.24-.01.02.02.21.2.19.45-.01.15-.09.28-.23.39.01.11.01.29-.08.43-.05.08-.15.18-.34.21,0,0-.02,0-.03,0Z"/>
            <path class="cls-1" d="m34.2,101.08c-.08,0-.15-.06-.17-.14-.01-.09.05-.18.14-.19.07-.01.1-.04.11-.06.05-.08.03-.23.02-.28-.02-.07.01-.15.07-.19.07-.05.16-.12.17-.2,0-.09-.08-.18-.08-.18-.07-.06-.07-.17-.01-.24.06-.07.17-.07.24-.01.02.02.21.2.19.45-.01.15-.09.28-.23.39.01.11.01.29-.08.43-.05.08-.15.18-.34.21,0,0-.02,0-.03,0Z"/>
            <path class="cls-1" d="m42.95,103.33c-.06,0-.11-.03-.14-.08-.05-.08-.03-.18.05-.23.07-.05.16-.12.17-.2,0-.09-.08-.18-.08-.18-.07-.06-.07-.17-.01-.24.06-.07.17-.07.24-.01.02.02.21.2.19.45-.01.18-.12.33-.32.46-.03.02-.06.03-.09.03Z"/>
          </g>
          <g>
            <path class="cls-1" d="m33.83,81.41s-.08-.01-.11-.04l-1.16-.95c-.07-.06-.08-.17-.02-.24.06-.07.17-.08.24-.02l1.16.95c.07.06.08.17.02.24-.03.04-.08.06-.13.06Z"/>
            <path class="cls-1" d="m35.03,80.58c-.06,0-.11-.03-.14-.08l-.86-1.36c-.05-.08-.03-.18.05-.23.08-.05.18-.03.23.05l.86,1.36c.05.08.03.18-.05.23-.03.02-.06.03-.09.03Z"/>
            <path class="cls-1" d="m36.3,79.96c-.07,0-.14-.05-.16-.12l-.42-1.31c-.03-.09.02-.18.11-.21.09-.03.18.02.21.11l.42,1.31c.03.09-.02.18-.11.21-.02,0-.03,0-.05,0Z"/>
          </g>
        </g>
      </g>
      <g>
        <g>
          <path class="cls-4" d="m59.38,14.47c-.6-5.97-4.65-11.3-10.73-13.23-4.79-1.52-9.78-.59-13.6,2.09C31.22.65,26.22-.26,21.43,1.29c-6.08,1.97-10.11,7.34-10.67,13.33C4.87,16.74.61,22.33.5,28.97c-.11,6.84,4.23,12.71,10.34,14.86.58,5.98,4.63,11.32,10.71,13.27,1.57.5,3.16.74,4.72.74,2.56,0,5.05-.65,7.26-1.83,1.96,3.01,4.95,6.13,9.07,6.59-1.05-.42-2.37-2.77-3.01-5.43,2.9.87,6.08.9,9.18-.09,6.08-1.95,10.12-7.32,10.69-13.3,5.96-2.12,10.22-7.78,10.3-14.4,0,0,0,0,0-.01.11-6.86-4.24-12.75-10.38-14.9Z"/>
          <path class="cls-10" d="m59.38,14.47c-.6-5.97-4.65-11.3-10.73-13.23-4.79-1.52-9.78-.59-13.6,2.09C31.22.65,26.22-.26,21.43,1.29c-6.08,1.97-10.11,7.34-10.67,13.33C4.87,16.74.61,22.33.5,28.97c-.11,6.84,4.23,12.71,10.34,14.86.58,5.98,4.63,11.32,10.71,13.27,1.57.5,3.16.74,4.72.74,2.56,0,5.05-.65,7.26-1.83,1.96,3.01,4.95,6.13,9.07,6.59-1.05-.42-2.37-2.77-3.01-5.43,2.9.87,6.08.9,9.18-.09,6.08-1.95,10.12-7.32,10.69-13.3,5.96-2.12,10.22-7.78,10.3-14.4,0,0,0,0,0-.01.11-6.86-4.24-12.75-10.38-14.9Z"/>
        </g>
        <g>
          <g>
            <path class="cls-1" d="m18.94,26.15c-.45.42-1.21.84-1.82,1.09.23.05.47.08.74.09,1.11.05,3.31.03,4.57-.08-.12.24-.27.71-.32,1-1.14.06-3.13.08-4.26.03-1.08-.05-1.82-.31-2.36-1.01-.34.36-.69.71-1.13,1.1l-.5-1.02c.32-.23.72-.53,1.06-.84v-1.99h-.93v-.98h1.92v2.88c.24.42.64.68,1.16.81-.18-.18-.54-.49-.76-.63.59-.18,1.22-.43,1.59-.72h-1.71v-.79h1.47v-.59h-1.21v-.78h1.21v-.48h.99v.48h1.04v-.48h1.02v.48h1.23v.78h-1.23v.59h1.51v.79h-1.76c.62.3,1.33.68,1.74.97l-1.09.4c-.34-.28-.97-.69-1.57-.98l.68-.39h-2.1l.78.27Zm-3.8-3.82c-.2-.44-.74-1.09-1.2-1.54l.85-.54c.47.43,1.04,1.04,1.26,1.49l-.91.59Zm2.89-1.34h-1.7v-.68h2.6v1.74h-1.59v.19c0,.19.04.22.27.22h.69c.18,0,.22-.05.25-.35.15.12.5.22.74.27-.09.61-.33.78-.87.78h-.95c-.79,0-1.02-.21-1.02-.93v-.87h1.58v-.38Zm.64,4.1h1.04v-.59h-1.04v.59Zm2.31-4.1h-1.75v-.68h2.66v1.74h-1.61v.18c0,.2.05.23.27.23h.73c.18,0,.22-.05.25-.36.16.12.51.23.75.27-.09.62-.32.79-.89.79h-.96c-.81,0-1.02-.21-1.02-.93v-.87h1.58v-.38Z"/>
            <path class="cls-1" d="m23.74,24.45c.42-.43,1.11-1.36,1.67-2.01.62-.72,1.21-.78,1.86-.14.62.59,1.33,1.52,1.86,2.1.58.63,1.35,1.43,2.21,2.21l-.95,1.06c-.65-.61-1.4-1.51-1.96-2.19-.56-.66-1.23-1.5-1.67-1.98-.31-.35-.49-.31-.75.03-.36.45-1.01,1.33-1.4,1.85-.21.3-.41.65-.57.89l-1.08-1.12c.27-.22.49-.41.76-.7Zm6.21-1.54l-.81.35c-.26-.57-.5-1-.83-1.47l.78-.32c.26.38.65,1.03.86,1.44Zm1.23-.53l-.78.38c-.3-.57-.54-.97-.87-1.42l.77-.36c.27.36.68,1,.88,1.4Z"/>
            <path class="cls-1" d="m34.05,20.86c.48,0,2.4-.04,2.92-.08.37-.04.58-.06.68-.1l.59.8c-.21.14-.42.26-.63.41-.49.34-1.43,1.13-2,1.58.3-.07.57-.1.85-.1,1.53,0,2.69.95,2.69,2.27,0,1.42-1.08,2.55-3.26,2.55-1.25,0-2.2-.58-2.2-1.48,0-.73.66-1.4,1.61-1.4,1.12,0,1.79.68,1.92,1.54.5-.26.75-.68.75-1.22,0-.81-.81-1.36-1.87-1.36-1.38,0-2.28.73-3.24,1.83l-.82-.85c.64-.51,1.73-1.43,2.26-1.87.5-.41,1.44-1.17,1.88-1.56-.46,0-1.7.06-2.18.09-.24.02-.53.04-.74.07l-.04-1.17c.25.04.57.05.82.05Zm1.62,6.31c.19,0,.36,0,.52-.03-.05-.59-.39-.96-.87-.96-.34,0-.56.21-.56.43,0,.33.37.56.91.56Z"/>
            <path class="cls-1" d="m43.81,21.31c-.06.27-.13.6-.19.93.3-.02.57-.04.76-.04.95,0,1.63.42,1.63,1.72,0,1.06-.13,2.52-.51,3.3-.3.63-.8.83-1.48.83-.35,0-.77-.06-1.08-.13l-.2-1.19c.35.1.86.19,1.11.19.3,0,.53-.09.68-.39.24-.51.36-1.6.36-2.49,0-.72-.31-.82-.87-.82-.14,0-.37.02-.62.04-.34,1.37-1.01,3.5-1.84,4.83l-1.17-.47c.87-1.18,1.49-3,1.82-4.23-.32.04-.6.07-.77.09-.25.04-.73.11-1,.15l-.11-1.22c.32.03.63,0,.96,0,.28,0,.7-.04,1.16-.07.13-.68.2-1.34.19-1.91l1.34.13c-.05.23-.12.52-.16.75Zm4.84,3.45l-1.14.53c-.23-1-.87-2.63-1.51-3.42l1.07-.46c.56.77,1.31,2.49,1.58,3.35Z"/>
            <path class="cls-1" d="m50.85,24.34c.82-.59,1.71-.86,2.66-.86,1.58,0,2.49.97,2.49,2.06,0,1.64-1.3,2.9-5.04,2.58l-.34-1.18c2.7.37,4.13-.29,4.13-1.43,0-.59-.56-1.02-1.34-1.02-1.02,0-1.94.38-2.5,1.06-.16.2-.25.34-.33.52l-1.04-.26c.18-.88.39-2.65.45-3.76l1.21.17c-.12.5-.28,1.59-.34,2.11Zm3.89-3.21l-.27,1.1c-.91-.12-2.92-.54-3.62-.72l.29-1.08c.86.27,2.82.61,3.6.7Z"/>
          </g>
          <g>
            <path class="cls-1" d="m22.45,11.56c-.16.38-.34.78-.56,1.16v4.2h-.68v-3.17c-.16.21-.33.4-.5.56-.07-.17-.25-.56-.37-.73.57-.54,1.12-1.39,1.45-2.24l.66.22Zm3.62,4.51v.67h-3.87v-.67h1.6v-1.19h-1.27v-.67h1.27v-1.04h-1.46v-.67h1.7c-.29-.23-.68-.48-1-.66l.47-.51c.44.23,1.06.61,1.36.87l-.26.3h1.37v.67h-1.46v1.04h1.3v.67h-1.3v1.19h1.55Z"/>
            <path class="cls-1" d="m28.6,12.31c.35-.04.71-.11,1.07-.21v.72c-.35.08-.73.14-1.07.17v.79c.11.16.17.37.17.61,0,.38-.1.75-.31,1.01v.24c0,.26.07.39.77.39.3,0,.69-.04.92-.11.31-.09.44-.29.44-.6,0-.24,0-.46-.05-.74l.83.25c0,.31,0,.46-.01.7-.03.55-.19.88-.89,1.09-.27.09-.89.13-1.3.13-1.4,0-1.46-.44-1.46-.86v-.13s-.06,0-.1,0c-.44,0-.88-.31-.88-1.08,0-.71.46-1.24,1.11-1.24h.02v-.41h-.13c-.26,0-.58-.01-.98-.05l-.04-.7c.33.05.68.08.97.08h.18v-.05c0-.38-.01-.58-.06-.76h.84c-.04.17-.06.4-.06.75Zm-.51,2.11c0-.23-.11-.37-.28-.37-.24,0-.43.23-.43.59,0,.26.16.41.33.41.28,0,.38-.29.38-.63Zm3.86-1.16l-.54.55c-.32-.4-.89-.95-1.24-1.2l.5-.5c.37.23,1,.82,1.27,1.14Z"/>
            <path class="cls-1" d="m35.67,14.34c-.05.1-.11.19-.17.29h2.43s0,.16-.01.25c-.08,1.17-.18,1.65-.34,1.82-.11.14-.25.19-.4.2-.14.02-.37.02-.61.01-.01-.17-.07-.41-.16-.56.19.02.35.02.43.02.08,0,.13-.01.18-.07.08-.09.16-.4.22-1.12h-.23c-.25.67-.71,1.4-1.2,1.77-.12-.14-.32-.3-.5-.4.46-.29.86-.82,1.12-1.38h-.35c-.32.58-.88,1.17-1.4,1.5-.11-.14-.3-.32-.47-.42.44-.22.91-.64,1.22-1.09h-.35c-.22.23-.46.43-.7.59-.09-.11-.32-.32-.47-.42-.43.22-.86.43-1.23.61l-.26-.72c.2-.08.46-.18.74-.29v-1.69h-.6v-.67h.6v-1.18h.66v1.18h.56v.67h-.56v1.42l.48-.21.13.51c.22-.19.4-.4.55-.64h-.68v-.6h3.77v.6h-2.39Zm1.98-.83h-2.84v-2.03h2.84v2.03Zm-.66-1.54h-1.55v.29h1.55v-.29Zm0,.76h-1.55v.29h1.55v-.29Z"/>
            <path class="cls-1" d="m39.45,14.77c-.04.73-.16,1.59-.53,2.18-.11-.12-.41-.34-.56-.43.4-.64.43-1.58.43-2.27v-1.52h2.33v2.04h-1.66Zm1.79-2.49h-2.65v-.65h2.65v.65Zm-1.77,1.09v.76h.97v-.76h-.97Zm4.61.68h-.53v2.89h-.71v-2.89h-.7c-.05.92-.28,2.08-1.07,2.88-.1-.15-.36-.4-.53-.48.83-.85.92-2.03.92-2.92v-1.66l.49.11c.56-.16,1.12-.38,1.46-.59l.63.54c-.55.26-1.24.49-1.89.64v.78h1.93v.69Z"/>
            <path class="cls-1" d="m46.96,12.21c.57-.03,1.17-.08,1.7-.17v.7c-.58.08-1.31.13-1.96.15-.1.22-.22.44-.34.61.16-.07.48-.12.68-.12.37,0,.67.16.8.46.31-.14.56-.25.81-.35.23-.1.44-.2.67-.31l.3.7c-.19.05-.51.17-.71.25-.27.11-.61.24-.98.41,0,.34.02.78.02,1.06h-.72c.02-.18.02-.47.03-.73-.45.26-.69.49-.69.79,0,.33.28.42.87.42.51,0,1.18-.07,1.7-.17l-.02.77c-.4.05-1.13.1-1.7.1-.94,0-1.64-.23-1.64-1s.72-1.25,1.4-1.6c-.09-.15-.25-.2-.42-.2-.34,0-.71.19-.94.41-.18.18-.35.4-.56.66l-.64-.48c.63-.58,1.06-1.12,1.33-1.66h-.08c-.25,0-.68-.01-1.01-.04v-.7c.31.05.75.07,1.06.07h.29c.07-.24.11-.47.12-.69l.79.07c-.03.15-.07.35-.15.6Z"/>
          </g>
          <g>
            <path class="cls-1" d="m16.84,32.75c0,.39,0,.84.04,1.27.08.86.26,1.46.64,1.46.28,0,.52-.7.64-1.18l.6.73c-.4,1.04-.77,1.41-1.25,1.41-.66,0-1.23-.59-1.4-2.2-.06-.55-.07-1.25-.07-1.62,0-.17-.01-.43-.05-.61h.92c-.04.23-.07.58-.07.74Zm4.16,2.51l-.79.31c-.1-.97-.41-2.42-1.07-3.17l.76-.25c.57.69,1.03,2.19,1.09,3.11Z"/>
            <path class="cls-1" d="m22.27,32.84c.46-.14,1.68-.58,2.56-.58,1.09,0,1.94.62,1.94,1.73,0,1.36-1.3,2.23-3.41,2.34l-.35-.8c1.62-.04,2.9-.51,2.9-1.55,0-.56-.39-1-1.11-1-.88,0-2.3.6-2.93.87l-.34-.84c.22-.04.52-.12.74-.18Z"/>
            <path class="cls-1" d="m27.71,32.17c.5-.04,1.49-.13,2.59-.22.62-.05,1.27-.09,1.7-.11v.77c-.32,0-.83,0-1.15.08-.73.19-1.27.97-1.27,1.68,0,.99.92,1.34,1.94,1.4l-.28.82c-1.26-.08-2.45-.76-2.45-2.06,0-.86.49-1.55.89-1.85-.56.06-1.79.19-2.48.34l-.08-.82c.24,0,.47-.02.59-.03Zm3.92,1.84l-.46.2c-.15-.33-.28-.56-.47-.83l.44-.19c.15.22.37.58.48.82Zm.7-.29l-.45.22c-.16-.32-.3-.55-.49-.81l.44-.2c.15.21.38.56.5.8Z"/>
            <path class="cls-1" d="m35.08,32.04c-.02.1-.04.26-.07.46.43,0,.82-.04,1.1-.08l-.02.71c-.36.04-.69.06-1.17.06-.04.26-.07.55-.1.82h.04c.37,0,.82-.02,1.21-.07l-.02.71c-.34.03-.68.05-1.06.05h-.24c-.01.18-.02.33-.02.44,0,.5.31.76.89.76.84,0,1.3-.38,1.3-.88,0-.41-.22-.79-.62-1.16l.85-.18c.4.5.58.93.58,1.44,0,.91-.82,1.55-2.13,1.55-.94,0-1.61-.41-1.61-1.41,0-.14.02-.36.04-.61-.44-.04-.83-.11-1.15-.2l.04-.73c.39.13.79.2,1.18.24.04-.27.07-.55.1-.82-.41-.04-.84-.11-1.19-.22l.04-.69c.35.11.8.19,1.24.23.02-.19.04-.35.05-.49.02-.28.02-.4,0-.53l.85.05c-.05.22-.08.38-.1.53Z"/>
            <path class="cls-1" d="m43.91,32.24s0,.24,0,.33c-.1,2.62-.2,3.58-.46,3.89-.16.23-.32.29-.56.34-.22.03-.55.02-.88.01-.01-.21-.1-.52-.23-.73.34.03.66.03.8.03.11,0,.18-.02.25-.11.18-.18.28-1.04.37-3.08h-1.41c-.16.32-.34.6-.53.83-.12-.11-.39-.31-.57-.43v.04h-.63v.44h.83v.62h-.83v1.41c.31-.04.62-.09.94-.14l.03.63c-.87.14-1.8.28-2.49.38l-.1-.65c.28-.04.62-.08,1-.13v-1.5h-.92v-.62h.92v-.44h-.59v-.25s-.08.08-.13.12c-.1-.16-.3-.38-.44-.48.55-.45.92-1.04,1.13-1.54h.6c.38.32.86.78,1.09,1.12l-.39.43v.49c.45-.49.78-1.26.94-2.06l.73.14c-.07.31-.16.61-.26.9h1.82Zm-4.85,2.38c.1.31.2.74.23,1.01l-.5.14c-.02-.28-.12-.7-.22-1.03l.49-.13Zm1.46-1.85c-.18-.26-.47-.61-.74-.88-.16.28-.37.58-.62.88h1.35Zm-.4,2.76c.09-.26.19-.68.25-.97l.55.14c-.11.34-.23.71-.33.95l-.47-.13Zm1.85-.25c-.1-.37-.41-.93-.72-1.34l.55-.3c.32.4.65.93.77,1.29l-.61.34Z"/>
            <path class="cls-1" d="m45.54,32.74c.29-.47.81-.97,1.49-.97.83,0,1.48.82,1.48,2.13,0,1.7-1.04,2.51-2.63,2.79l-.46-.7c1.33-.2,2.27-.64,2.27-2.09,0-.92-.31-1.44-.82-1.44-.71,0-1.33,1.06-1.35,1.85-.01.16,0,.35.03.64l-.74.05c-.04-.23-.08-.6-.08-1,0-.56.08-1.3.17-1.92.03-.23.05-.47.05-.63l.82.04c-.08.29-.2.91-.24,1.25Z"/>
            <path class="cls-1" d="m51.55,32.11c-.04.18-.08.4-.13.62.2-.01.38-.02.5-.02.64,0,1.09.28,1.09,1.15,0,.71-.08,1.68-.34,2.2-.2.42-.53.55-.98.55-.23,0-.52-.04-.72-.08l-.13-.79c.23.07.58.13.73.13.2,0,.35-.06.45-.26.16-.34.25-1.07.25-1.66,0-.48-.21-.55-.58-.55-.1,0-.25.01-.42.02-.23.91-.67,2.33-1.22,3.21l-.78-.31c.58-.79,1-2,1.22-2.82-.22.02-.41.05-.52.06-.17.03-.49.07-.67.1l-.07-.82c.22.02.42,0,.64,0,.19,0,.47-.02.77-.05.08-.45.14-.89.13-1.27l.89.09c-.04.16-.08.35-.11.5Zm2.54.1l-.29.13c.36.56.81,1.56.98,2.09l-.76.35c-.16-.67-.58-1.72-1.01-2.25l.54-.23c-.12-.23-.27-.52-.41-.71l.47-.2c.15.22.37.6.48.82Zm.71-.28l-.47.2c-.13-.25-.32-.6-.49-.83l.48-.19c.16.23.38.61.48.82Z"/>
            <path class="cls-1" d="m20.63,41.77c.5-.04,1.49-.13,2.59-.22.62-.05,1.27-.09,1.7-.11v.77c-.32,0-.83,0-1.15.08-.73.19-1.27.97-1.27,1.68,0,.99.92,1.34,1.94,1.4l-.28.82c-1.26-.08-2.45-.76-2.45-2.06,0-.86.49-1.55.89-1.85-.56.06-1.79.19-2.48.34l-.08-.82c.24,0,.47-.02.59-.03Zm3.92,1.84l-.46.2c-.15-.33-.28-.56-.47-.83l.44-.19c.15.22.37.58.48.82Zm.7-.29l-.45.22c-.16-.32-.3-.55-.49-.81l.44-.2c.15.21.38.56.5.8Z"/>
            <path class="cls-1" d="m28.22,42.91c-.03-.07-.05-.14-.08-.21-.05-.14-.08-.25-.12-.35-.56.03-1.27.02-2.02-.05l-.04-.69c.71.08,1.33.11,1.88.09-.06-.19-.12-.38-.19-.59l.8-.09c.03.22.07.43.11.63.41-.05.8-.14,1.18-.26l.1.69c-.33.09-.71.17-1.1.22.03.1.06.19.09.28.03.08.07.17.1.27.49-.06.85-.16,1.15-.24l.12.71c-.28.07-.6.14-.96.19.1.19.2.38.31.53.08.11.16.2.27.31l-.37.55c-.34-.07-.98-.14-1.42-.19l.06-.57c.25.02.58.05.76.07-.13-.21-.24-.42-.34-.62-.74.05-1.7.05-2.61,0l-.04-.71c.89.08,1.7.09,2.37.05Zm-1.48,2.01c0,.44.42.62,1.21.62.57,0,1.08-.05,1.5-.13l-.04.76c-.42.07-.97.11-1.46.11-1.2,0-1.94-.35-1.96-1.21-.01-.38.12-.68.26-.97l.74.14c-.14.2-.26.41-.26.66Z"/>
            <path class="cls-1" d="m31.27,41.75c.5-.04,1.49-.13,2.58-.23.62-.05,1.28-.09,1.7-.1v.77c-.32,0-.83,0-1.15.08-.73.19-1.27.97-1.27,1.69,0,.98.92,1.34,1.94,1.4l-.28.82c-1.25-.08-2.44-.76-2.44-2.06,0-.86.49-1.55.89-1.85-.56.06-1.79.19-2.48.34l-.08-.82c.24,0,.47-.02.59-.03Z"/>
            <path class="cls-1" d="m40.51,43.12c-.15.24-.3.48-.44.67h1.25v.62h-2.21v.5h1.93v.62h-1.93v.91h-.74v-.91h-1.82v-.62h1.82v-.5h-2.17v-.62h1.23c-.07-.2-.19-.44-.3-.64l.13-.04h-1.19v-.62h2.31v-.47h-1.7v-.62h1.7v-.55h.74v.55h1.76v.62h-1.76v.47h2.36v.62h-.96Zm-1.17.67c.11-.19.23-.44.32-.67h-1.8c.13.22.26.49.31.67h1.17Z"/>
            <path class="cls-1" d="m46.21,41.72c0,.23,0,.45-.01.65.16-.01.31-.02.45-.03.17-.01.4-.02.58-.04v.74c-.1,0-.42,0-.58,0-.13,0-.29.01-.46.02-.02.46-.04.95-.09,1.2-.07.32-.22.4-.52.4-.22,0-.7-.06-.91-.09l.02-.67c.19.04.43.08.55.08s.17-.02.19-.14c.02-.16.04-.44.05-.73-.53.04-1.12.1-1.63.15,0,.55-.01,1.1,0,1.36.01.59.07.72.97.72.59,0,1.34-.07,1.79-.15l-.03.82c-.4.05-1.14.1-1.71.1-1.55,0-1.74-.32-1.77-1.36,0-.26,0-.84,0-1.4-.16.02-.3.03-.4.04-.19.02-.56.08-.72.11l-.08-.77c.17,0,.45-.01.76-.04.11-.01.26-.02.46-.04v-.61c0-.25-.02-.45-.05-.67h.85c-.03.2-.04.37-.04.62,0,.14,0,.34,0,.58.51-.05,1.09-.1,1.64-.15v-.68c0-.15-.02-.43-.04-.55h.8c-.01.1-.03.36-.04.52Z"/>
            <path class="cls-1" d="m48.34,45.44c0-.32.23-.53.53-.53s.53.22.53.53-.23.53-.53.53-.53-.22-.53-.53Zm.06-3.12l-.03-.89h1l-.03.89-.16,2.05h-.61l-.16-2.05Z"/>
          </g>
        </g>
      </g>
    </g>
  </g>
</svg>