<?xml version="1.0" encoding="UTF-8"?>
<svg id="_レイヤー_2" data-name="レイヤー 2" xmlns="http://www.w3.org/2000/svg" viewBox="0 0 204.64 279.77">
  <defs>
    <style>
      .cls-1, .cls-2 {
        fill: #262626;
      }

      .cls-3 {
        fill: #8299ae;
      }

      .cls-4, .cls-5 {
        fill: #fff;
      }

      .cls-6, .cls-5, .cls-7, .cls-8, .cls-2 {
        fill-rule: evenodd;
      }

      .cls-6, .cls-9 {
        fill: #ffddc0;
      }

      .cls-10 {
        fill: none;
        stroke: #262626;
        stroke-linecap: round;
        stroke-linejoin: round;
        stroke-width: 1.5px;
      }

      .cls-7 {
        fill: #c37b7b;
      }

      .cls-11 {
        fill: #86a282;
      }

      .cls-12 {
        fill: #a2a7aa;
      }

      .cls-13 {
        fill: #cad3da;
      }

      .cls-14 {
        fill: #a8c992;
      }

      .cls-8 {
        fill: #f08c65;
      }

      .cls-15 {
        fill: #f5d192;
      }

      .cls-16 {
        fill: #8e8e8e;
      }

      .cls-17 {
        fill: #a3a3a3;
      }

      .cls-18 {
        fill: #544a3f;
      }

      .cls-19 {
        fill: #b3cba4;
      }

      .cls-20 {
        fill: #e2e7bd;
      }

      .cls-21 {
        fill: #fff400;
      }
    </style>
  </defs>
  <g id="illustration">
    <g>
      <g>
        <g>
          <path class="cls-4" d="m118.52,28.68c-1.19-11.94-9.3-22.6-21.46-26.47-9.59-3.04-19.55-1.19-27.2,4.17C62.19,1.05,52.19-.77,42.61,2.33c-12.17,3.94-20.23,14.68-21.33,26.66C9.49,33.22.96,44.41.75,57.68c-.22,13.67,8.46,25.42,20.68,29.72,1.16,11.95,9.26,22.65,21.41,26.54,3.14,1,6.32,1.48,9.45,1.48,6.42,0,12.62-2.01,17.77-5.61,7.66,5.35,17.65,7.18,27.23,4.1,1.44-.46,2.82-1.03,4.15-1.68,4.49,4.69,10.49,8.81,17.7,8.71-2.91-.76-7.69-8.28-8.69-15.39,4.65-4.99,7.57-11.41,8.22-18.24,11.93-4.24,20.45-15.56,20.61-28.81,0,0,0-.02,0-.03.23-13.72-8.49-25.5-20.77-29.79Z"/>
          <path class="cls-10" d="m118.52,28.68c-1.19-11.94-9.3-22.6-21.46-26.47-9.59-3.04-19.55-1.19-27.2,4.17C62.19,1.05,52.19-.77,42.61,2.33c-12.17,3.94-20.23,14.68-21.33,26.66C9.49,33.22.96,44.41.75,57.68c-.22,13.67,8.46,25.42,20.68,29.72,1.16,11.95,9.26,22.65,21.41,26.54,3.14,1,6.32,1.48,9.45,1.48,6.42,0,12.62-2.01,17.77-5.61,7.66,5.35,17.65,7.18,27.23,4.1,1.44-.46,2.82-1.03,4.15-1.68,4.49,4.69,10.49,8.81,17.7,8.71-2.91-.76-7.69-8.28-8.69-15.39,4.65-4.99,7.57-11.41,8.22-18.24,11.93-4.24,20.45-15.56,20.61-28.81,0,0,0-.02,0-.03.23-13.72-8.49-25.5-20.77-29.79Z"/>
        </g>
        <g>
          <path class="cls-1" d="m37.63,51.43c-.9.85-2.41,1.67-3.64,2.18.45.11.94.16,1.48.18,2.21.11,6.63.05,9.15-.16-.23.49-.54,1.42-.63,2-2.29.13-6.27.16-8.52.05-2.16-.09-3.64-.61-4.72-2.02-.68.72-1.39,1.42-2.25,2.2l-1.01-2.03c.65-.47,1.44-1.06,2.12-1.67v-3.98h-1.85v-1.96h3.84v5.76c.49.85,1.28,1.37,2.32,1.62-.36-.36-1.08-.97-1.51-1.26,1.17-.36,2.43-.86,3.19-1.44h-3.42v-1.59h2.94v-1.19h-2.41v-1.57h2.41v-.95h1.98v.95h2.09v-.95h2.03v.95h2.47v1.57h-2.47v1.19h3.02v1.59h-3.51c1.24.59,2.66,1.37,3.48,1.94l-2.18.79c-.68-.56-1.94-1.39-3.13-1.96l1.37-.77h-4.2l1.57.54Zm-7.6-7.63c-.4-.88-1.48-2.18-2.39-3.08l1.69-1.08c.94.86,2.07,2.07,2.52,2.97l-1.82,1.19Zm5.78-2.68h-3.4v-1.35h5.2v3.48h-3.19v.38c0,.38.07.45.54.45h1.39c.36,0,.43-.11.5-.7.31.23.99.45,1.48.54-.18,1.22-.67,1.57-1.75,1.57h-1.89c-1.58,0-2.03-.41-2.03-1.85v-1.75h3.15v-.76Zm1.28,8.19h2.09v-1.19h-2.09v1.19Zm4.63-8.19h-3.49v-1.35h5.31v3.48h-3.22v.36c0,.4.09.47.54.47h1.46c.36,0,.43-.11.5-.72.32.23,1.03.45,1.49.54-.18,1.24-.65,1.58-1.78,1.58h-1.93c-1.62,0-2.03-.41-2.03-1.85v-1.75h3.15v-.76Z"/>
          <path class="cls-1" d="m47.22,48.02c.85-.86,2.21-2.72,3.35-4.02,1.24-1.44,2.41-1.57,3.73-.27,1.24,1.19,2.66,3.04,3.73,4.2,1.15,1.26,2.7,2.86,4.41,4.41l-1.89,2.12c-1.3-1.22-2.79-3.03-3.93-4.38-1.12-1.31-2.47-3.01-3.33-3.96-.61-.7-.97-.61-1.49.05-.72.9-2.02,2.66-2.79,3.69-.41.59-.83,1.3-1.13,1.78l-2.16-2.23c.54-.43.97-.83,1.51-1.4Zm12.42-3.08l-1.62.7c-.52-1.13-.99-2-1.66-2.93l1.57-.65c.52.76,1.3,2.05,1.71,2.88Zm2.47-1.06l-1.57.76c-.59-1.13-1.08-1.95-1.75-2.84l1.55-.72c.54.72,1.35,2,1.76,2.81Z"/>
          <path class="cls-1" d="m67.85,40.84c.95,0,4.81-.07,5.83-.16.74-.07,1.15-.13,1.37-.2l1.17,1.6c-.41.27-.85.52-1.26.83-.97.68-2.86,2.27-4,3.17.59-.14,1.13-.2,1.71-.2,3.06,0,5.38,1.91,5.38,4.54,0,2.85-2.16,5.1-6.52,5.1-2.5,0-4.39-1.15-4.39-2.95,0-1.46,1.31-2.81,3.22-2.81,2.23,0,3.58,1.37,3.84,3.08.99-.52,1.49-1.35,1.49-2.45,0-1.62-1.62-2.72-3.75-2.72-2.75,0-4.56,1.46-6.48,3.65l-1.64-1.69c1.28-1.03,3.46-2.86,4.52-3.75,1.01-.83,2.88-2.34,3.76-3.12-.92.02-3.4.13-4.36.18-.49.04-1.06.09-1.48.14l-.07-2.34c.5.07,1.13.09,1.64.09Zm3.24,12.62c.38,0,.72-.02,1.04-.05-.11-1.17-.77-1.93-1.75-1.93-.68,0-1.12.41-1.12.86,0,.67.74,1.12,1.82,1.12Z"/>
          <path class="cls-1" d="m87.37,41.74c-.13.54-.25,1.21-.38,1.85.59-.04,1.13-.07,1.51-.07,1.91,0,3.26.85,3.26,3.44,0,2.12-.25,5.04-1.03,6.61-.59,1.26-1.6,1.66-2.95,1.66-.7,0-1.55-.13-2.16-.25l-.4-2.38c.7.2,1.73.38,2.21.38.59,0,1.06-.18,1.35-.77.49-1.03.72-3.2.72-4.99,0-1.44-.61-1.64-1.75-1.64-.29,0-.74.04-1.24.07-.68,2.74-2.02,7-3.67,9.65l-2.34-.94c1.75-2.36,2.99-6,3.64-8.46-.65.07-1.21.14-1.55.18-.5.09-1.46.22-2,.31l-.22-2.45c.65.05,1.26.02,1.93,0,.56-.02,1.4-.07,2.32-.14.25-1.37.4-2.68.38-3.82l2.68.27c-.11.47-.23,1.04-.32,1.5Zm9.69,6.9l-2.29,1.06c-.47-2-1.75-5.26-3.02-6.84l2.14-.92c1.12,1.55,2.63,4.99,3.17,6.7Z"/>
          <path class="cls-1" d="m101.46,47.81c1.64-1.19,3.42-1.71,5.31-1.71,3.15,0,4.99,1.94,4.99,4.12,0,3.28-2.59,5.8-10.08,5.17l-.68-2.36c5.4.74,8.26-.58,8.26-2.86,0-1.17-1.12-2.03-2.68-2.03-2.03,0-3.87.76-5.01,2.12-.32.4-.5.68-.67,1.05l-2.07-.52c.36-1.76.77-5.29.9-7.53l2.41.34c-.23.99-.56,3.19-.68,4.21Zm7.78-6.43l-.54,2.2c-1.82-.23-5.83-1.08-7.24-1.44l.58-2.16c1.71.54,5.64,1.22,7.2,1.41Z"/>
        </g>
        <g>
          <path class="cls-1" d="m33.43,67.72c-.01.78,0,1.68.07,2.54.17,1.73.53,2.92,1.28,2.92.56,0,1.04-1.4,1.27-2.36l1.2,1.46c-.79,2.09-1.55,2.82-2.51,2.82-1.32,0-2.46-1.19-2.79-4.4-.12-1.1-.13-2.51-.13-3.24,0-.34-.02-.85-.1-1.22l1.85.02c-.08.43-.14,1.13-.14,1.46Zm8.32,5.02l-1.57.61c-.19-1.93-.83-4.85-2.13-6.33l1.52-.49c1.14,1.38,2.05,4.38,2.18,6.21Z"/>
          <path class="cls-1" d="m44.29,67.9c.92-.29,3.37-1.15,5.12-1.15,2.17,0,3.87,1.25,3.87,3.47,0,2.72-2.59,4.46-6.81,4.68l-.7-1.59c3.25-.08,5.79-1.02,5.79-3.11,0-1.13-.78-1.99-2.22-1.99-1.76,0-4.61,1.2-5.85,1.74l-.68-1.68c.44-.07,1.04-.24,1.48-.36Z"/>
          <path class="cls-1" d="m55.17,66.55c1.01-.08,2.99-.26,5.18-.44,1.24-.11,2.54-.18,3.39-.22v1.54c-.64.01-1.67.01-2.3.17-1.45.38-2.54,1.93-2.54,3.36,0,1.98,1.85,2.69,3.89,2.8l-.56,1.64c-2.52-.17-4.89-1.51-4.89-4.11,0-1.73.97-3.09,1.79-3.71-1.13.12-3.57.38-4.97.68l-.16-1.64c.48-.01.95-.04,1.18-.06Zm7.83,3.68l-.91.41c-.3-.66-.55-1.13-.93-1.67l.89-.37c.3.43.73,1.16.96,1.63Zm1.39-.59l-.9.43c-.32-.65-.6-1.09-.98-1.62l.88-.41c.3.42.76,1.13,1.01,1.6Z"/>
          <path class="cls-1" d="m69.92,66.29c-.04.2-.08.53-.13.92.86-.01,1.63-.08,2.19-.17l-.05,1.43c-.72.07-1.38.12-2.34.12-.07.53-.14,1.09-.2,1.63h.08c.74,0,1.63-.05,2.41-.14l-.04,1.43c-.67.06-1.37.11-2.12.11h-.48c-.02.36-.05.66-.05.88,0,1,.61,1.52,1.79,1.52,1.68,0,2.59-.77,2.59-1.75,0-.82-.44-1.58-1.24-2.33l1.69-.36c.79,1.01,1.16,1.86,1.16,2.88,0,1.81-1.63,3.11-4.26,3.11-1.88,0-3.21-.82-3.21-2.82,0-.29.04-.72.08-1.21-.88-.08-1.67-.22-2.3-.4l.08-1.45c.78.26,1.58.4,2.36.48.07-.54.14-1.1.2-1.64-.83-.08-1.68-.23-2.39-.43l.08-1.38c.7.23,1.59.38,2.47.46.04-.37.07-.7.1-.97.04-.56.04-.8.01-1.07l1.69.1c-.11.43-.16.76-.2,1.07Z"/>
          <path class="cls-1" d="m87.58,66.7s0,.48-.01.66c-.19,5.24-.4,7.16-.91,7.78-.32.46-.64.59-1.12.67-.43.06-1.09.05-1.76.02-.02-.42-.2-1.03-.47-1.45.68.06,1.32.06,1.61.06.22.01.36-.04.5-.21.36-.36.56-2.08.73-6.15h-2.82c-.31.64-.67,1.2-1.07,1.66-.24-.23-.78-.62-1.14-.85v.08h-1.26v.88h1.66v1.24h-1.66v2.83c.62-.08,1.25-.18,1.87-.28l.06,1.26c-1.74.29-3.61.55-4.99.75l-.2-1.31c.56-.07,1.25-.16,2-.25v-3.01h-1.85v-1.24h1.85v-.88h-1.18v-.49c-.08.08-.17.16-.26.24-.19-.31-.6-.77-.89-.96,1.09-.9,1.85-2.09,2.25-3.07h1.2c.77.63,1.71,1.56,2.17,2.23l-.78.85v.98c.9-.97,1.56-2.52,1.88-4.13l1.45.28c-.14.62-.32,1.22-.53,1.8h3.65Zm-9.69,4.76c.2.62.4,1.48.47,2.02l-1.01.29c-.05-.56-.24-1.4-.43-2.05l.97-.25Zm2.93-3.69c-.36-.53-.94-1.22-1.48-1.75-.32.55-.73,1.15-1.24,1.75h2.71Zm-.8,5.53c.18-.52.38-1.36.49-1.93l1.1.28c-.22.68-.46,1.42-.66,1.91l-.94-.25Zm3.71-.5c-.2-.74-.83-1.86-1.44-2.67l1.1-.6c.64.8,1.31,1.86,1.55,2.59l-1.21.68Z"/>
          <path class="cls-1" d="m90.82,67.7c.58-.94,1.62-1.94,2.97-1.94,1.67,0,2.96,1.63,2.96,4.27,0,3.39-2.07,5.01-5.25,5.59l-.91-1.39c2.66-.41,4.55-1.28,4.55-4.19,0-1.85-.62-2.88-1.63-2.88-1.42,0-2.65,2.12-2.71,3.71-.02.32-.01.71.06,1.27l-1.48.1c-.07-.47-.16-1.2-.16-2,0-1.12.17-2.6.34-3.84.06-.46.1-.94.1-1.26l1.64.07c-.17.59-.41,1.82-.48,2.49Z"/>
          <path class="cls-1" d="m102.85,66.44c-.07.36-.17.8-.25,1.24.41-.02.76-.05,1.01-.05,1.27,0,2.17.56,2.17,2.29,0,1.42-.17,3.36-.68,4.4-.4.84-1.06,1.1-1.97,1.1-.46,0-1.03-.08-1.44-.17l-.25-1.58c.46.13,1.15.25,1.46.25.41,0,.71-.12.9-.52.32-.68.49-2.13.49-3.32,0-.96-.42-1.09-1.16-1.09-.19,0-.49.02-.84.05-.46,1.82-1.34,4.66-2.45,6.43l-1.56-.62c1.16-1.57,1.99-3.99,2.43-5.64-.43.05-.82.1-1.03.12-.35.06-.97.14-1.34.2l-.14-1.63c.44.04.84.01,1.28,0,.37-.01.94-.05,1.55-.11.17-.9.28-1.77.25-2.53l1.79.18c-.07.31-.16.7-.22,1Zm5.09.19l-.59.25c.72,1.12,1.62,3.12,1.95,4.19l-1.52.7c-.31-1.33-1.16-3.44-2.02-4.5l1.08-.47c-.24-.46-.54-1.03-.82-1.41l.95-.4c.3.44.73,1.2.96,1.64Zm1.43-.55l-.95.41c-.25-.49-.64-1.2-.97-1.66l.96-.38c.31.46.76,1.21.96,1.63Z"/>
          <path class="cls-1" d="m41.01,85.75c1.01-.08,2.99-.26,5.18-.44,1.24-.11,2.54-.18,3.39-.22v1.54c-.64.01-1.67.01-2.3.17-1.45.38-2.54,1.93-2.54,3.36,0,1.98,1.85,2.69,3.89,2.8l-.56,1.64c-2.52-.17-4.89-1.51-4.89-4.11,0-1.73.97-3.09,1.79-3.71-1.13.12-3.57.38-4.97.68l-.16-1.64c.48-.01.95-.04,1.18-.06Zm7.83,3.68l-.91.41c-.3-.66-.55-1.13-.94-1.67l.89-.37c.3.43.73,1.16.96,1.63Zm1.39-.59l-.9.43c-.32-.65-.6-1.09-.98-1.62l.88-.41c.3.42.76,1.13,1.01,1.59Z"/>
          <path class="cls-1" d="m56.2,88.04c-.06-.14-.11-.29-.16-.42-.1-.28-.17-.5-.24-.71-1.13.06-2.53.04-4.04-.11l-.08-1.38c1.43.17,2.65.22,3.75.18-.12-.38-.24-.77-.38-1.19l1.61-.18c.06.43.13.85.22,1.26.83-.11,1.6-.28,2.36-.52l.19,1.38c-.66.18-1.42.34-2.21.44.06.19.12.38.18.56.06.17.13.35.2.54.98-.12,1.7-.32,2.29-.48l.24,1.42c-.55.14-1.2.28-1.92.37.2.38.41.76.62,1.07.16.23.32.41.54.61l-.73,1.1c-.67-.13-1.97-.29-2.84-.38l.12-1.14c.5.05,1.15.11,1.51.14-.25-.42-.48-.84-.67-1.25-1.48.1-3.41.1-5.22-.01l-.08-1.41c1.79.17,3.41.18,4.74.1Zm-2.96,4.02c0,.89.84,1.25,2.42,1.25,1.14,0,2.16-.1,3.01-.26l-.08,1.52c-.84.14-1.93.23-2.91.23-2.4,0-3.89-.71-3.91-2.42-.02-.77.24-1.35.52-1.93l1.49.29c-.29.4-.53.82-.53,1.33Z"/>
          <path class="cls-1" d="m62.3,85.72c1-.08,2.97-.26,5.17-.46,1.24-.1,2.55-.18,3.39-.2v1.54c-.64.01-1.67.01-2.3.16-1.45.38-2.53,1.94-2.53,3.37,0,1.97,1.85,2.69,3.87,2.79l-.56,1.64c-2.51-.17-4.88-1.52-4.88-4.11,0-1.73.97-3.09,1.77-3.71-1.13.12-3.57.38-4.97.68l-.16-1.64c.48-.01.95-.04,1.19-.06Z"/>
          <path class="cls-1" d="m80.77,88.44c-.3.48-.6.96-.88,1.34h2.51v1.24h-4.43v1.01h3.85v1.24h-3.85v1.81h-1.49v-1.81h-3.65v-1.24h3.65v-1.01h-4.34v-1.24h2.46c-.14-.4-.38-.89-.6-1.27l.25-.07h-2.39v-1.25h4.62v-.94h-3.39v-1.24h3.39v-1.09h1.49v1.09h3.53v1.24h-3.53v.94h4.71v1.25h-1.92Zm-2.34,1.34c.23-.38.46-.89.64-1.34h-3.6c.26.44.52.97.62,1.34h2.34Z"/>
          <path class="cls-1" d="m92.16,85.66c-.01.47-.01.9-.02,1.29.32-.02.62-.05.9-.06.34-.02.8-.05,1.15-.08v1.48c-.2-.01-.84,0-1.15.01-.26.01-.58.02-.92.05-.04.91-.08,1.9-.18,2.4-.13.64-.43.79-1.04.79-.43,0-1.39-.12-1.81-.18l.04-1.33c.37.08.86.16,1.1.16s.35-.05.37-.28c.05-.32.08-.88.1-1.45-1.07.08-2.24.19-3.26.3-.01,1.1-.02,2.21,0,2.72.02,1.18.13,1.44,1.93,1.44,1.18,0,2.69-.14,3.59-.3l-.06,1.63c-.8.1-2.28.19-3.42.19-3.11,0-3.48-.65-3.54-2.72-.01-.52-.01-1.68-.01-2.79-.32.04-.6.06-.8.08-.38.05-1.13.17-1.44.22l-.17-1.54c.35,0,.9-.02,1.51-.08.22-.02.53-.05.91-.08v-1.21c0-.49-.04-.9-.1-1.33h1.69c-.06.41-.07.74-.07,1.25,0,.28-.01.68-.01,1.15,1.02-.1,2.18-.2,3.27-.3v-1.36c0-.3-.05-.86-.08-1.1h1.61c-.02.19-.06.72-.07,1.04Z"/>
          <path class="cls-1" d="m96.44,93.09c0-.64.46-1.07,1.06-1.07s1.06.43,1.06,1.07-.46,1.06-1.06,1.06-1.06-.43-1.06-1.06Zm.12-6.24l-.06-1.79h1.99l-.06,1.79-.32,4.1h-1.22l-.32-4.1Z"/>
        </g>
        <g>
          <path class="cls-1" d="m44.66,18.92c-.31.77-.68,1.56-1.12,2.31v8.39h-1.36v-6.33c-.32.42-.66.79-1,1.13-.13-.33-.5-1.12-.74-1.45,1.14-1.08,2.24-2.78,2.89-4.49l1.32.43Zm7.24,9.02v1.34h-7.74v-1.34h3.19v-2.39h-2.53v-1.34h2.53v-2.09h-2.91v-1.34h3.41c-.59-.46-1.37-.96-2-1.32l.95-1.02c.89.47,2.11,1.21,2.71,1.74l-.53.6h2.75v1.34h-2.91v2.09h2.59v1.34h-2.59v2.39h3.09Z"/>
          <path class="cls-1" d="m56.94,20.42c.7-.08,1.43-.21,2.15-.42v1.44c-.71.17-1.46.28-2.15.34v1.57c.23.31.35.73.35,1.21,0,.76-.19,1.5-.62,2.03v.48c0,.52.13.78,1.55.78.6,0,1.38-.07,1.84-.22.62-.18.89-.59.89-1.2,0-.48-.01-.92-.1-1.49l1.67.5c0,.62.01.91-.02,1.4-.06,1.09-.38,1.76-1.77,2.18-.54.18-1.79.26-2.6.26-2.79,0-2.91-.89-2.91-1.73v-.25c-.06.01-.12.01-.19.01-.88,0-1.76-.62-1.76-2.16,0-1.42.91-2.48,2.22-2.48h.05v-.82h-.25c-.52,0-1.16-.02-1.96-.1l-.08-1.4c.66.1,1.37.16,1.93.16h.36v-.1c0-.76-.02-1.16-.12-1.51h1.68c-.07.35-.12.79-.12,1.5Zm-1.02,4.21c0-.47-.23-.74-.56-.74-.48,0-.86.47-.86,1.18,0,.53.31.83.66.83.55,0,.77-.59.77-1.26Zm7.71-2.31l-1.08,1.1c-.65-.79-1.79-1.9-2.47-2.4l1.01-1c.74.47,2,1.64,2.54,2.29Z"/>
          <path class="cls-1" d="m71.09,24.47c-.1.19-.22.38-.34.58h4.87s-.01.32-.02.49c-.17,2.34-.36,3.3-.68,3.65-.23.28-.49.37-.79.41-.28.04-.73.05-1.21.02-.02-.34-.14-.82-.32-1.12.38.04.7.04.85.04.17,0,.26-.02.36-.13.17-.18.31-.79.44-2.24h-.47c-.49,1.34-1.43,2.79-2.4,3.55-.24-.28-.65-.6-1.01-.79.91-.58,1.72-1.64,2.23-2.76h-.71c-.65,1.15-1.76,2.35-2.81,3.01-.23-.28-.6-.64-.94-.84.89-.44,1.81-1.28,2.45-2.17h-.71c-.44.47-.91.86-1.4,1.18-.18-.23-.64-.65-.94-.84-.86.43-1.73.86-2.46,1.22l-.53-1.44c.41-.16.91-.36,1.48-.59v-3.38h-1.2v-1.34h1.2v-2.36h1.32v2.36h1.13v1.34h-1.13v2.83l.96-.42.25,1.02c.43-.37.8-.8,1.1-1.27h-1.36v-1.2h7.54v1.2h-4.77Zm3.96-1.66h-5.67v-4.05h5.67v4.05Zm-1.32-3.07h-3.09v.58h3.09v-.58Zm0,1.51h-3.09v.58h3.09v-.58Z"/>
          <path class="cls-1" d="m78.65,25.32c-.07,1.46-.32,3.18-1.07,4.35-.23-.24-.82-.68-1.13-.85.79-1.28.85-3.15.85-4.53v-3.05h4.67v4.08h-3.32Zm3.57-4.98h-5.3v-1.3h5.3v1.3Zm-3.55,2.17v1.52h1.93v-1.52h-1.93Zm9.21,1.37h-1.07v5.78h-1.42v-5.78h-1.39c-.11,1.83-.55,4.16-2.15,5.76-.19-.3-.72-.79-1.06-.96,1.67-1.69,1.83-4.07,1.83-5.84v-3.31l.98.23c1.12-.32,2.23-.75,2.93-1.17l1.26,1.08c-1.1.53-2.48.97-3.78,1.28v1.56h3.85v1.38Z"/>
          <path class="cls-1" d="m93.68,20.2c1.14-.06,2.34-.17,3.39-.35v1.39c-1.15.17-2.63.26-3.92.3-.2.44-.44.88-.68,1.22.31-.14.96-.24,1.36-.24.73,0,1.33.31,1.6.92.62-.29,1.13-.49,1.62-.71.47-.2.89-.4,1.33-.62l.6,1.39c-.38.11-1.02.35-1.43.5-.54.22-1.22.48-1.95.82.01.67.04,1.56.05,2.11h-1.44c.04-.36.05-.94.06-1.46-.9.52-1.38.98-1.38,1.58,0,.66.56.84,1.74.84,1.02,0,2.35-.13,3.41-.34l-.05,1.55c-.79.11-2.27.2-3.39.2-1.88,0-3.27-.46-3.27-2s1.44-2.49,2.81-3.2c-.18-.3-.5-.41-.84-.41-.67,0-1.41.38-1.87.83-.36.36-.71.79-1.12,1.32l-1.28-.96c1.26-1.16,2.11-2.23,2.65-3.31h-.16c-.49,0-1.37-.02-2.03-.07v-1.4c.61.1,1.5.14,2.11.14h.58c.13-.48.22-.95.24-1.38l1.58.13c-.06.3-.14.7-.3,1.2Z"/>
        </g>
      </g>
      <g>
        <g>
          <path class="cls-21" d="m85.59,149.79l-.12,1.56c-.11,1.44-.86,2.58-1.8,2.75l-1.03.18,1.03.18c.94.17,1.69,1.31,1.8,2.75l.12,1.57.12-1.57c.11-1.44.86-2.58,1.8-2.75l1.03-.18-1.03-.18c-.95-.17-1.69-1.31-1.8-2.75l-.12-1.56Z"/>
          <path class="cls-21" d="m173.79,86.09l-.12,1.56c-.11,1.44-.86,2.58-1.8,2.75l-1.03.18,1.03.18c.94.17,1.69,1.31,1.8,2.75l.12,1.57.12-1.57c.11-1.44.86-2.58,1.8-2.75l1.03-.18-1.03-.18c-.95-.17-1.69-1.31-1.8-2.75l-.12-1.56Z"/>
          <path class="cls-21" d="m129.23,99.09l-.12,1.56c-.11,1.44-.86,2.58-1.8,2.75l-1.03.18,1.03.18c.94.17,1.69,1.31,1.8,2.75l.12,1.57.12-1.57c.11-1.44.86-2.58,1.8-2.75l1.03-.18-1.03-.18c-.95-.17-1.69-1.31-1.8-2.75l-.12-1.56Z"/>
          <path class="cls-21" d="m92.84,137.16l-.07.85c-.06.78-.47,1.41-.98,1.49l-.56.1.56.1c.51.09.92.71.98,1.49l.07.85.06-.85c.06-.78.47-1.4.98-1.49l.56-.1-.56-.1c-.52-.08-.92-.71-.98-1.49l-.06-.85Z"/>
          <path class="cls-21" d="m152.76,81.46l-.07.85c-.06.78-.47,1.41-.98,1.49l-.56.1.56.1c.51.09.92.71.98,1.49l.07.85.06-.85c.06-.78.47-1.4.98-1.49l.56-.1-.56-.1c-.52-.08-.92-.71-.98-1.49l-.06-.85Z"/>
          <path class="cls-21" d="m126.58,130.01l-.07.85c-.06.78-.47,1.41-.98,1.49l-.56.1.56.1c.51.09.92.71.98,1.49l.07.85.06-.85c.06-.78.47-1.4.98-1.49l.56-.1-.56-.1c-.52-.08-.92-.71-.98-1.49l-.06-.85Z"/>
        </g>
        <g>
          <g>
            <path class="cls-18" d="m145,273.47s-.8,1.46-.61,2.03c.38,1.04,2.5,2.17,5,2.31,2.5.14,6.37-.99,6.75-2.22.33-1.09-.33-2.78-.33-2.78l-10.81.66Z"/>
            <path class="cls-18" d="m182.98,273.47s.8,1.46.61,2.03c-.38,1.04-2.5,2.17-5,2.31-2.5.14-6.37-.99-6.75-2.22-.33-1.09.33-2.78.33-2.78l10.81.66Z"/>
            <path class="cls-1" d="m149.8,278.17c-.15,0-.29,0-.43-.01-2.47-.14-4.85-1.28-5.31-2.54-.22-.67.43-1.94.64-2.32.09-.17.31-.23.48-.14.17.09.23.31.14.48-.35.64-.67,1.5-.59,1.75.32.87,2.32,1.94,4.69,2.07,2.64.15,6.12-1.07,6.39-1.97.24-.79-.15-2.11-.32-2.55-.07-.18.02-.38.2-.45.18-.07.38.02.45.2.03.07.7,1.83.34,3.01-.44,1.44-4.23,2.48-6.68,2.48Z"/>
            <path class="cls-1" d="m178.18,278.17c-2.45,0-6.23-1.04-6.68-2.48-.36-1.19.31-2.94.34-3.02.07-.18.27-.27.45-.2.18.07.27.27.2.45,0,.02-.61,1.6-.32,2.56.28.9,3.76,2.12,6.39,1.97,2.37-.13,4.37-1.21,4.69-2.08.08-.24-.24-1.1-.59-1.74-.09-.17-.03-.38.14-.48.17-.09.38-.03.48.14.21.38.86,1.65.64,2.31-.46,1.27-2.85,2.41-5.32,2.55-.14,0-.28.01-.43.01Z"/>
            <path class="cls-1" d="m153.45,271.46c-.08,0-.15-.02-.22-.08-2.67-2.1-5.48-.18-5.51-.17-.16.11-.38.07-.49-.09-.11-.16-.07-.38.09-.49.03-.02,3.27-2.22,6.34.19.15.12.18.34.06.49-.07.09-.17.13-.28.13Z"/>
            <path class="cls-1" d="m174.53,271.46c-.1,0-.21-.05-.28-.13-.12-.15-.09-.37.06-.49,3.07-2.41,6.31-.21,6.34-.19.16.11.2.33.09.49-.11.16-.33.2-.49.09-.11-.08-2.85-1.92-5.51.16-.06.05-.14.08-.22.08Z"/>
            <path class="cls-17" d="m184.92,70.09c2.24,3.91,4.01,8,5.61,12.15,1.58,4.15,2.92,8.38,4.03,12.66,1.12,4.28,2,8.61,2.67,12.96.69,4.36,1,8.76,1.23,13.15.43,8.78.57,17.56.66,26.33.07,8.78.06,17.55,0,26.33-.12,17.55-.4,35.1-.76,52.65-.37,17.55-.81,35.09-1.35,52.64-.02.68-2.72.61-2.7-.07h0s0-.01,0-.01c.72-17.53,1.36-35.07,1.91-52.6.55-17.54,1.02-35.08,1.33-52.62.15-8.77.26-17.54.28-26.31,0-8.77-.03-17.54-.37-26.3-.18-4.38-.44-8.74-1.08-13.08-.62-4.34-1.45-8.65-2.52-12.92-1.06-4.27-2.35-8.49-3.88-12.63-1.55-4.14-3.28-8.24-5.45-12.12h0c-.06-.11-.01-.24.1-.29.11-.05.25-.01.3.09Z"/>
            <path class="cls-20" d="m149.65,137.23s-2.91-4.52-.72-6.78c2.19-2.26,12.85-4.48,14.46-3.39,1.61,1.09,1.96,1.08,1.88,3.67-.08,2.59-15.62,6.51-15.62,6.51Z"/>
            <path class="cls-1" d="m157.49,247.06c0,.85-3.1,1.32-5.92,1.32s-7.77-1.19-7.77-2.04,5.11-.39,7.93-.39,5.76.26,5.76,1.11Z"/>
            <path class="cls-1" d="m184.27,246.28c.08.85-2.95,1.61-5.76,1.89-2.81.28-7.89-.32-7.97-1.16-.08-.85,5.09-.99,7.89-1.27,2.81-.28,5.75-.31,5.84.54Z"/>
            <polygon class="cls-3" points="156.32 135.22 161.37 135.22 164.86 181.93 158.06 182.22 156.32 135.22"/>
            <path class="cls-3" d="m148.17,132.07s-5.79,3.39-7.89,4.44c-3,1.5-4.65,6.62-5.51,10.47s-4.21,15.71-4.21,15.71l3.65.82s-2.83-1.49-3.65-.82c-.82.68-3.17,2.87-3.17,2.87l6.49,8.42s2.93-1.16,4.75-4.02c1.14-1.79,4.04-10.31,4.04-10.31l5.5-27.58Z"/>
            <path class="cls-3" d="m177.65,151.64s6.4,10.38,8.45,12.4c2.05,2.02,5.48,2.68,9,2.78,3.64.1,6.64-2.93,6.64-2.93l-7.16-10.18-1.72-.56s-7.61-11.91-9.82-15.17c-2.2-3.27-5.61-7.43-8.95-7.74-2.35-.21-8.87-1.17-8.87-1.17l12.42,22.57Z"/>
            <path class="cls-11" d="m181.17,187.82s1.23,34.5,1.23,36.62,1.57,9.73.35,24.47c-3.36,2.46-7.1,2.27-11.04.76l-3.7-24.77s-5.78-21.88-6.08-25.68c-.3-3.8-1.71-3.65-1.71-3.65l1.34,1.54s-3.58,22.32-3.73,25.05c-.15,2.74,0,5.47,0,10.94s-1.98,16.31-1.98,16.31c-3.54,1.4-7.03,1.28-10.44-.51,0,0-2.63-22.04-2.73-26.6-.11-4.56,0-32.19,0-32.19l16.64-8.2h3.95l17.91,5.89Z"/>
            <path class="cls-9" d="m194.9,156.95s-.8,5.53.91,6.95c1.71,1.41,5.41.78,5.54-.69.13-1.47-3.59-8.04-6.45-6.25Z"/>
            <path class="cls-20" d="m151.05,131.58c.23.82,4.2,1.74,6.19,3.08,0,0,.05,10.55-.03,12.12-.08,1.57,1.95,19.5,1.95,26.98,0,7.48.25,17.69.25,17.69,0,0-10.83,2.59-17.9-2.18l1.26-32.34s.3-10.76-2.74-19.73l11.01-5.63Z"/>
            <path class="cls-19" d="m154.47,137.42s2.04,38.42,1.58,45.72c0,0-5.09.58-6.98-.03l-6.8-.32s.22-18.63.49-28.23c.27-9.6-2.89-17.82-2.89-17.82l7.92-4.45c1.01,2.34,3.18,4.57,5.79,6.75l.89-1.62Z"/>
            <path class="cls-20" d="m162.34,128.94c-.15.84-1.04,4.09-2.9,5.61,0,0,.63,7.3.85,8.86.23,1.56,1.79,22.68,2.47,30.13.68,7.45,1.37,17.64,1.37,17.64,0,0,11.02,1.59,17.63-3.81l-3.88-35.57s-5.47-13.67-4.56-21.58l-10.98-1.29Z"/>
            <path class="cls-11" d="m144.84,119.34c-3.48,1.14-5.7,1.65-6.02.68-.32-.97,1.5-2.47,4.75-4.09,2.11-1.05,4.81-2.15,7.92-3.19,7.89-2.63,15.72-4.27,16.25-2.68.27.81-1.54,1.81-4.43,2.94l-18.47,6.35Z"/>
            <g>
              <path class="cls-7" d="m143.84,108.44c1.01-1.53,2.12-2.84,3.8-3.75.78-.42,2.2-.98,3.12-1.18,1.57-.3,2.88-.31,3.89-.34,1.58-.06,2.42,1.29,2.42,1.29,0,0,2.69.56,4.21,3.5,1.53,2.94,1.29,7.92,1.29,7.92l-17.95,3.98c.04-.06-4.11-6.28-.77-11.42Z"/>
              <path class="cls-6" d="m145.12,122.79s-.7-.95-.55-1.81c-.01-.05.06-.79.44-1.06.49-.4,1.39-.46,1.68-1.54.16-.57.13-2.2.08-3.3-.01-.48.05-1.51.85-2.46,1.11-1.31,3.79-2.25,5.74-2.4.95-.07,2.69-.27,3.91.43,1.44.84,1.99,3.47,3.01,4.59,1.15,1.24,2.72.94,2.72.94,0,0,1.13,1.39.58,2.82-.59,1.48-1.62,1.81-1.62,1.81,0,0,.16,1.8-.2,3.19-.37,1.39-.89,2.28-.89,2.28l1.29,3.95-2.73,4.34-.02.92-1.97.11-.21-.91-5.58-2.47-.66-3.63s-1-.6-1.83-1.71c-.83-1.12-1.52-2.7-1.52-2.7l-1.27-.29-1.25-1.07Z"/>
              <path class="cls-1" d="m151.59,132.41c-.19,0-.35-.16-.35-.35-.01-1.28-.71-3.58-.72-3.6-.06-.19.05-.38.23-.44.19-.06.38.05.44.23.03.1.73,2.42.75,3.8,0,.19-.15.35-.35.35h0Z"/>
              <path class="cls-1" d="m161.9,130.34c-.13,0-.25-.07-.31-.19-.63-1.25-1.07-3.86-1.09-3.97-.03-.19.1-.37.29-.4.19-.03.37.1.41.29,0,.03.45,2.62,1.03,3.77.09.17.02.38-.16.47-.05.03-.1.04-.16.04Z"/>
              <path class="cls-1" d="m155.89,130.25c-.72,0-2.02-.13-3.75-.87-1.88-.77-2.67-1.85-3.14-2.49-.69-.87-1.37-2.11-2.15-3.89-.08-.18,0-.38.18-.46.18-.08.38,0,.46.18.75,1.72,1.41,2.92,2.07,3.75.43.59,1.15,1.57,2.85,2.26,2.47,1.04,3.98.78,3.99.78.19-.03.37.09.41.28.04.19-.09.37-.28.41-.02,0-.25.05-.64.05Z"/>
              <path class="cls-1" d="m156.51,130.2c-.16,0-.31-.11-.34-.27-.04-.19.08-.38.26-.42.01,0,1.27-.32,3.06-2.26,1.28-1.4,1.69-2.73,1.82-3.4.24-1.05.33-2.4.27-4.28,0-.19.15-.36.34-.36.19,0,.36.15.36.34.06,1.94-.03,3.36-.29,4.45-.14.73-.59,2.2-1.99,3.73-1.96,2.13-3.36,2.46-3.42,2.47-.03,0-.05,0-.08,0Z"/>
              <path class="cls-1" d="m147.28,124.27c-.8,0-2.11-.49-2.84-1.92-.45-.87-.45-1.82,0-2.48.37-.56,1-.82,1.76-.76.19.02.34.19.32.38-.02.19-.19.34-.38.32-.51-.04-.89.12-1.12.45-.3.44-.28,1.14.05,1.77.62,1.21,1.75,1.58,2.31,1.53.2-.02.36.13.38.32.02.19-.13.36-.32.38-.05,0-.1,0-.16,0Z"/>
              <path class="cls-1" d="m146.12,122.13s-.36-.34-.53-.49c-.15-.13-.16-.35-.04-.5.13-.15.35-.16.5-.04.18.16.56.52.56.52l-.49.51Z"/>
              <path class="cls-1" d="m162.08,120.98c-.14,0-.28-.09-.33-.23-.07-.18.03-.38.21-.45.53-.2,1.39-1.01,1.44-2.37.02-.71-.26-1.35-.71-1.62-.35-.21-.77-.19-1.21.07-.17.1-.38.04-.48-.13-.1-.17-.04-.38.13-.48.66-.38,1.35-.41,1.92-.06.68.41,1.09,1.27,1.05,2.25-.05,1.72-1.16,2.74-1.9,3.01-.04.01-.08.02-.12.02Z"/>
              <path class="cls-1" d="m162.47,118.47l-.66-.25s.19-.49.29-.71c.08-.18.29-.26.46-.18.18.08.26.29.18.46-.09.21-.27.67-.27.67Z"/>
              <path class="cls-1" d="m154.92,122.68c-.06,0-.11-.01-.17-.04-.17-.09-.23-.3-.14-.48.27-.5.26-.69.24-.74-.02-.08-.16-.15-.33-.24-.28-.15-.66-.35-.88-.81-.42-.92-.26-2.25-.12-2.82.05-.19.24-.3.43-.26.19.05.3.24.26.43-.14.57-.24,1.67.08,2.36.12.24.32.35.57.48.26.14.56.3.67.65.1.32,0,.72-.29,1.28-.06.12-.18.18-.31.18Z"/>
              <path class="cls-1" d="m154.48,125.71c-.63,0-1.23-.12-1.68-.37-.17-.09-.23-.31-.14-.48.09-.17.3-.23.48-.14,1.11.6,3.39.24,4.29-.96.12-.15.34-.19.49-.07.15.12.19.34.07.49-.77,1.02-2.22,1.53-3.51,1.53Z"/>
              <path class="cls-1" d="m148.54,116.62c-.08,0-.17-.03-.23-.09-.14-.13-.16-.35-.03-.5.04-.04.96-1.05,2.55-.75.19.04.32.22.28.41-.04.19-.22.32-.41.28-1.2-.22-1.89.52-1.9.53-.07.08-.17.12-.26.12Z"/>
              <path class="cls-1" d="m155.18,114.99c-.11,0-.21-.05-.28-.14-.12-.15-.09-.37.06-.49,1.3-1,2.57-.48,2.63-.46.18.08.26.28.19.46-.08.18-.28.26-.46.19-.04-.02-.96-.37-1.93.37-.06.05-.14.07-.21.07Z"/>
              <path class="cls-2" d="m150.85,128.51s3.25,1.78,5.65,1.29c1.85-.37,3.97-3.21,3.97-3.21,0,0-1.92,3.96-4.26,4.92-2.03.84-4.73-.82-4.73-.82l-.63-2.18Z"/>
              <path class="cls-1" d="m162.08,108.71s-.05,0-.08,0c-.77-.18-1.3-.79-1.8-1.37-.65-.75-1.26-1.46-2.36-1.33-.2.02-.37-.12-.39-.31-.02-.19.12-.37.31-.39,1.47-.17,2.27.75,2.97,1.57.45.52.88,1.02,1.43,1.15.19.04.31.23.26.42-.04.16-.18.27-.34.27Z"/>
              <path class="cls-1" d="m162.67,116.06s0,0,0,0c-.19,0-.35-.16-.35-.36,0-.23.01-.46.02-.7.05-1.47.11-3.14-.69-5.29-.07-.18.02-.38.21-.45.18-.07.38.02.45.21.85,2.29.79,4.1.74,5.56,0,.24-.02.47-.02.69,0,.19-.16.35-.35.35Z"/>
              <path class="cls-1" d="m142.47,109.82c-.13,0-.25-.07-.31-.19-.09-.17-.02-.38.16-.47,0,0,.98-.5,1.68-1.5,1.87-2.62,4.03-3.98,6.41-4.04.19,0,.35.15.36.34,0,.19-.15.35-.34.36-3.24.07-5.21,2.83-5.86,3.74-.81,1.15-1.89,1.7-1.94,1.72-.05.03-.1.04-.16.04Z"/>
              <path class="cls-1" d="m157.24,105.01c-.14,0-.28-.09-.33-.23-.02-.05-.45-1.14-1.79-1.29-.61-.07-1.13.01-1.65.09-.77.12-1.56.24-2.49-.19-.18-.08-.25-.29-.17-.47.08-.18.29-.25.47-.17.73.34,1.36.24,2.08.13.53-.08,1.13-.17,1.83-.1,1.78.2,2.35,1.68,2.37,1.74.07.18-.03.38-.21.45-.04.01-.08.02-.12.02Z"/>
              <path class="cls-1" d="m144.71,119.99c-.13,0-.26-.07-.32-.2-.06-.13-.15-.29-.25-.49-.83-1.6-2.76-5.33-1.41-9.07.07-.18.27-.28.45-.21.18.07.28.27.21.45-1.24,3.45.59,7,1.38,8.51.11.21.2.38.26.51.08.18,0,.38-.17.47-.05.02-.1.03-.15.03Z"/>
              <path class="cls-1" d="m154.6,110.24s-.06,0-.08-.01c-.19-.05-.3-.24-.26-.43.16-.63.78-1.24,1.41-1.39.19-.04.38.08.42.27.04.19-.08.38-.27.42-.38.08-.79.49-.88.87-.04.16-.18.27-.34.27Z"/>
              <path class="cls-1" d="m150.77,111.05c-.06,0-.13-.02-.19-.05-.82-.52-1.6-2.1-.89-3.3.1-.17.31-.22.48-.12.17.1.22.31.12.48-.49.82.14,2.01.66,2.34.16.1.21.32.11.48-.07.11-.18.16-.3.16Z"/>
              <path class="cls-1" d="m148.94,111.84c-.76,0-1.44-.94-1.58-1.8-.03-.19.1-.37.29-.4.19-.03.37.1.4.29.12.71.61,1.23.89,1.21.18,0,.36.14.37.34,0,.19-.14.36-.34.37-.01,0-.02,0-.04,0Z"/>
              <path class="cls-1" d="m160.74,115.43s-.08,0-.12-.02c-1.11-.41-1.66-1.55-2.18-2.64-.56-1.17-1.04-2.17-2.08-2.2-.19,0-.35-.17-.34-.36,0-.19.16-.35.36-.34,1.46.04,2.09,1.34,2.69,2.6.49,1.02.95,1.97,1.79,2.29.18.07.27.27.21.45-.05.14-.19.23-.33.23Z"/>
              <path class="cls-1" d="m146.51,118.77c-.06,0-.12-.01-.17-.05-.17-.1-.23-.31-.13-.48.37-.66.31-1.52.25-2.42-.09-1.29-.2-2.76,1.11-3.72.16-.11.38-.08.49.08.11.16.08.38-.08.49-.99.73-.91,1.88-.82,3.1.07.97.14,1.98-.34,2.82-.06.11-.18.18-.31.18Z"/>
              <path class="cls-2" d="m149.65,119.5c-.1-.46.14-.9.5-.98.37-.08.77.21.88.67.1.46-.14.9-.5.98-.36.13-.77-.21-.88-.67Z"/>
              <path class="cls-2" d="m156.65,117.98c-.1-.46.14-.9.5-.98.37-.08.77.21.88.67.1.46-.09.89-.5.98-.41.09-.77-.21-.88-.67Z"/>
            </g>
            <path class="cls-1" d="m194.82,234.98c-.15,0-.29-.1-.34-.25-6.44-22.06-.17-56.09,2.19-68.9.35-1.89.6-3.26.71-4.04.19-1.39-.06-3.36-.8-6.21-.05-.19.06-.38.25-.43.19-.05.38.06.43.25.77,2.98,1.02,4.98.81,6.48-.11.79-.36,2.17-.71,4.07-2.35,12.76-8.6,46.67-2.2,68.57.05.19-.05.38-.24.44-.03,0-.07.01-.1.01Z"/>
            <path class="cls-14" d="m142.59,112.72s-.31-4.48.3-5.56c2.09-3.68,11.11-5.44,13.5-4.36,2.39,1.08,3.88,3.82,3.88,3.82l-17.69,6.09Z"/>
            <path class="cls-1" d="m197.59,171.77c-.19,0-.34-.15-.35-.34-.53-12.37-.85-35.08-.86-36.17-3.64-15.36-2.23-29.64-2.07-31.17-5.64-8.22-9.4-31.8-9.56-32.81-.03-.19.1-.37.29-.4.19-.03.37.1.4.29.04.25,3.93,24.64,9.51,32.62.05.07.07.16.06.24-.02.15-1.77,15.04,2.05,31.1,0,.03,0,.05,0,.08,0,.23.32,23.59.86,36.19,0,.19-.14.36-.34.37,0,0-.01,0-.02,0Z"/>
            <path class="cls-1" d="m195.75,279.77s-.09,0-.14,0c-.81-.02-1.67-.28-1.65-.91,0-.01,0-.04,0-.05.69-16.8,1.34-34.5,1.91-52.56.62-19.67,1.05-36.88,1.32-52.61.17-10.05.26-18.41.28-26.3,0-8.41-.03-17.42-.37-26.28-.17-4.12-.42-8.55-1.08-13.04-.63-4.38-1.47-8.72-2.51-12.88-1.07-4.29-2.37-8.53-3.87-12.6-1.82-4.88-3.55-8.72-5.43-12.07-.08-.14-.09-.3-.05-.44.05-.15.16-.27.3-.34.27-.13.61-.03.76.23,0,0,0,0,0,0,1.97,3.44,3.71,7.2,5.64,12.19,1.56,4.09,2.92,8.36,4.04,12.7,1.1,4.2,2,8.58,2.68,13,.72,4.57,1.03,9.23,1.23,13.18.44,8.89.58,17.92.66,26.35.07,7.9.07,16.27,0,26.34-.11,15.73-.36,32.95-.76,52.65-.38,18.09-.84,35.8-1.35,52.64-.02.61-.82.82-1.61.82Zm-1.09-.92c.09.08.43.21,1,.22.57.01.91-.1,1-.17.52-16.82.97-34.52,1.35-52.6.41-19.69.66-36.91.76-52.64.06-10.06.06-18.42,0-26.32-.08-8.42-.22-17.44-.66-26.32-.2-3.94-.51-8.57-1.23-13.11-.68-4.4-1.57-8.75-2.66-12.93-.22-.86-.45-1.71-.69-2.56.23.84.45,1.69.66,2.54,1.05,4.19,1.9,8.55,2.53,12.95.67,4.52.92,8.98,1.09,13.11.34,8.88.38,17.89.38,26.31-.02,7.9-.11,16.26-.28,26.32-.27,15.74-.71,32.95-1.33,52.62-.57,18.06-1.22,35.75-1.91,52.58Zm-10.05-208.59h0s0,0,0,0c0,0,0,0,0,0Z"/>
            <g>
              <path class="cls-9" d="m202.28,155.97c.3-.36.56-1.03.09-1.68-.47-.65-1.35-.66-1.99-.43-.58.17-1.8.74-2.56,1.14-.83.41-1.59.77-1.9,1.07-.49.43-.22,1.1.01,1.35.3.29.76.19.76.19l5.59-1.63Z"/>
              <path class="cls-9" d="m196.25,157.87c.74-.57,5.31-1.76,6.1-1.85.46-.05,1.33.56,1.36,1.36-.01.49-.36,1.01-1.07,1.3-.65.23-4.53.92-5.68.78-.95-.11-.96-1.41-.71-1.6Z"/>
              <path class="cls-9" d="m198.33,161.58s-1.28-.08-1.52-.43c-.32-.45-.27-1.21.45-1.4,2.03-.49,5.52-1.03,6.36-.75.7.25.86,1.15.45,1.62-.53.65-2.04.98-2.04.98l-3.69-.03Z"/>
              <path class="cls-9" d="m199.35,164.65c1.98-.27,3.34-1.22,3.52-1.46.53-.7-.02-1.4-.57-1.5-1.23-.24-3.06-.42-3.64-.2-.32.14-1.56.49-1.59.77-.04.22-.11.82.44.98.28.13.88.12,1.49.11.73-.03,1.58.31,1.58.31l-1.22.99Z"/>
            </g>
            <path class="cls-12" d="m198.09,273.26c-1.5.66-2.97.58-4.41-.14l.8-25.51c1.51-.32,2.99-.3,4.41.14l-.8,25.51Z"/>
            <path class="cls-13" d="m203.15,238.65c-.87,3.55-4.45,5.72-7.99,4.85-3.55-.87-5.72-4.45-4.85-7.99.87-3.55,4.45-5.72,7.99-4.85,3.55.87,5.72,4.45,4.85,7.99Z"/>
            <path class="cls-1" d="m133.88,174.33c-.14,0-.27-.08-.33-.22-.07-.18.02-.38.2-.46.03-.01,2.85-1.16,4.59-3.88,1.11-1.74,3.97-10.15,4-10.24.06-.18.26-.28.45-.22.18.06.28.26.22.45-.12.35-2.92,8.58-4.07,10.39-1.86,2.92-4.8,4.11-4.92,4.16-.04.02-.09.02-.13.02Z"/>
            <path class="cls-1" d="m127.39,165.91c-.09,0-.19-.04-.26-.11-.13-.14-.13-.36.02-.5.1-.09,2.37-2.21,3.18-2.89.95-.79,3.53.51,4.03.78.17.09.24.3.15.47-.09.17-.3.24-.47.15-1.26-.67-2.87-1.18-3.26-.86-.8.66-3.13,2.84-3.15,2.86-.07.06-.15.09-.24.09Z"/>
            <path class="cls-1" d="m152.66,192.52c-3.55,0-7.86-.61-11.34-2.96-.1-.07-.16-.18-.15-.31l1.26-32.34c0-.1.27-10.8-2.72-19.6-.06-.18.04-.38.22-.45.18-.06.38.04.45.22,3.02,8.92,2.76,19.74,2.75,19.85l-1.25,32.14c6.24,4.07,15.48,2.43,17.19,2.08-.04-1.72-.25-10.71-.25-17.41,0-4.72-.81-13.52-1.39-19.95-.34-3.74-.59-6.44-.56-7.05.08-1.43.04-10.48.03-11.91-.89-.56-2.16-1.06-3.28-1.5-1.79-.71-2.74-1.1-2.9-1.68-.05-.19.06-.38.24-.43.18-.05.38.06.43.24.12.29,1.48.82,2.48,1.22,1.22.48,2.61,1.03,3.57,1.67.1.07.15.17.15.29,0,.43.05,10.58-.03,12.14-.03.55.23,3.37.56,6.94.59,6.44,1.4,15.26,1.4,20.01,0,7.39.25,17.58.25,17.68,0,.17-.11.31-.27.35-.23.05-3.12.73-6.84.73Z"/>
            <path class="cls-19" d="m162.36,136.45s3.82,43.78,5.04,46.66c0,0,7.8.23,13.63-2.47l-3.04-28.47c-3.01-7.46-4.8-14.8-4.67-21.95l-8.09-1.48-1.15,8.63-1.72-.92Z"/>
            <g>
              <path class="cls-1" d="m196.5,157.97c-.23,0-.55-.05-.81-.31-.22-.23-.41-.64-.39-1.06.02-.32.15-.59.39-.81.28-.28.87-.58,1.62-.94l.35-.18c.79-.42,2.02-.99,2.62-1.16.71-.26,1.77-.27,2.37.56.57.79.3,1.63-.1,2.11-.12.15-.34.17-.49.05-.15-.12-.17-.35-.05-.49.09-.1.5-.66.07-1.25-.37-.51-1.09-.49-1.59-.31-.56.16-1.74.71-2.51,1.12l-.36.18c-.63.31-1.23.61-1.45.83-.11.1-.16.2-.17.33-.01.21.11.44.19.53.14.14.42.08.43.08.19-.04.38.08.42.27.04.19-.08.37-.26.42-.03,0-.13.03-.27.03Z"/>
              <path class="cls-1" d="m197.35,159.83c-.16,0-.31,0-.43-.02-.54-.06-.94-.43-1.09-.99-.12-.43-.08-1.01.21-1.23h0c.83-.63,5.52-1.84,6.28-1.92.33-.04.75.13,1.1.44.39.35.63.81.64,1.27-.02.7-.51,1.32-1.28,1.64-.59.21-3.88.83-5.43.83Zm-.85-1.71c-.04.1-.06.42.08.68.09.18.24.29.43.31,1.09.14,4.9-.54,5.52-.76.6-.25.82-.67.83-.98,0-.24-.15-.52-.4-.74-.24-.21-.48-.28-.57-.27-.86.09-5.17,1.27-5.9,1.76Zm-.24-.26h0,0Z"/>
              <path class="cls-1" d="m202.03,161.96c-.16,0-.31-.11-.34-.28-.04-.19.08-.38.27-.42.39-.08,1.47-.4,1.84-.86.14-.16.18-.39.12-.61-.06-.22-.21-.39-.41-.46-.67-.23-3.95.22-6.16.76-.17.04-.29.14-.34.28-.06.18-.03.41.09.57.1.11.7.25,1.26.28.19.01.34.18.33.37-.01.19-.18.34-.37.33-.44-.03-1.49-.13-1.79-.58-.25-.35-.32-.82-.17-1.22.13-.36.43-.62.83-.72,1.73-.42,5.54-1.09,6.56-.74.43.15.74.5.86.95.12.44.01.92-.27,1.24-.59.72-2.06,1.05-2.23,1.09-.03,0-.05,0-.07,0Z"/>
              <path class="cls-1" d="m198.84,165.01c-2.54,0-3.71-1.19-3.77-1.24-.13-.14-.13-.36,0-.5.14-.13.36-.13.49,0,.02.02,1.2,1.17,3.74,1.01,1.89-.12,3.15-1.17,3.26-1.32.14-.19.18-.38.11-.56-.07-.19-.27-.35-.46-.39-1.42-.28-3.03-.38-3.45-.21-.07.03-.22.08-.39.15-.25.09-.83.29-.99.42-.04.3.03.46.2.51.02,0,.04.01.05.02.21.1.83.08,1.33.08.8-.03,1.68.32,1.72.34.18.07.27.28.19.46s-.28.27-.46.19c0,0-.78-.31-1.43-.29-.65.01-1.26.02-1.62-.13-.55-.17-.8-.69-.67-1.38.05-.36.5-.55,1.44-.89.15-.05.28-.1.36-.13.73-.29,2.75-.04,3.85.17.43.08.82.4.98.82.16.41.09.85-.2,1.24-.27.37-1.73,1.47-3.78,1.6-.18.01-.36.02-.53.02Zm-1.43-2.71s0,.02,0,.02c0,0,0-.02,0-.02Z"/>
            </g>
            <path class="cls-1" d="m164.02,138.01c-.08,0-.15-.03-.22-.07-1.1-.85-2.46-1.8-2.77-1.84-.04.04-.13.37-.13.69,0,.19-.16.35-.35.35h0c-.19,0-.35-.16-.35-.35,0-.61.21-1.34.8-1.39.45-.03,1.69.81,2.8,1.65.63-2.79,1.41-6.99,1.1-7.86-.29-.82-1.05-1.59-1.89-1.92-.45-.17-1.13-.3-1.83.07-.17.09-.38.03-.48-.14-.09-.17-.03-.38.14-.48.74-.4,1.57-.43,2.41-.11,1.04.4,1.94,1.32,2.3,2.34.5,1.43-1.03,8.04-1.2,8.79-.03.12-.11.21-.22.25-.04.01-.08.02-.12.02Z"/>
            <path class="cls-1" d="m153.58,139.39c-.08,0-.17-.03-.23-.09-.52-.45-5.07-4.48-5.46-5.95-.41-1.54.17-3.54,3.04-4.52.18-.06.38.03.45.22.06.18-.03.38-.22.45-2.05.7-3.01,2.08-2.59,3.68.24.9,2.93,3.54,4.89,5.29.54-1.17,1.33-2.77,1.73-2.99.52-.29,1.1.19,1.44.69.11.16.07.38-.09.49-.16.11-.38.07-.49-.09-.18-.26-.44-.48-.52-.48h0c-.21.18-1.02,1.75-1.62,3.1-.05.1-.14.18-.25.2-.02,0-.05,0-.07,0Z"/>
            <path class="cls-1" d="m167.94,191.76c-2.18,0-3.7-.21-3.86-.23-.16-.02-.29-.16-.3-.32,0-.1-.69-10.27-1.37-17.63-.34-3.66-.89-10.72-1.38-16.96-.5-6.36-.97-12.37-1.09-13.15-.23-1.55-.83-8.58-.86-8.88-.01-.12.04-.23.13-.3,1.72-1.41,2.61-4.45,2.78-5.4.03-.19.22-.32.41-.28.19.03.32.22.28.41-.18.99-1.09,4.11-2.88,5.7.1,1.13.63,7.27.84,8.66.12.8.57,6.55,1.09,13.2.49,6.23,1.04,13.29,1.38,16.95.61,6.67,1.23,15.64,1.35,17.36,1.73.19,11.08.98,16.93-3.65l-3.85-35.33c-.4-1.01-5.46-13.95-4.56-21.7.02-.19.2-.33.39-.31.19.02.33.2.31.39-.89,7.72,4.48,21.27,4.54,21.41.01.03.02.06.02.09l3.88,35.57c.01.12-.04.23-.13.31-4.25,3.47-10.18,4.12-14.04,4.12Z"/>
            <path class="cls-1" d="m192.87,153.5c-.12,0-.23-.06-.3-.16-.08-.12-7.64-11.94-9.81-15.17-2.23-3.3-5.54-7.3-8.69-7.58-2.33-.21-8.82-1.17-8.89-1.18-.19-.03-.32-.21-.3-.4.03-.19.21-.32.4-.3.06,0,6.54.96,8.85,1.17,3.43.31,6.9,4.46,9.21,7.89,2.18,3.23,9.75,15.06,9.82,15.18.1.16.06.38-.11.49-.06.04-.12.06-.19.06Z"/>
            <path class="cls-1" d="m130.55,163.04s-.06,0-.1-.01c-.19-.05-.3-.25-.24-.43.03-.12,3.36-11.9,4.21-15.69.9-4.03,2.62-9.17,5.69-10.71,2.07-1.04,7.81-4.4,7.87-4.43.17-.1.38-.04.48.13.1.17.04.38-.13.48-.06.03-5.82,3.4-7.91,4.45-2.83,1.42-4.46,6.35-5.32,10.23-.85,3.81-4.19,15.61-4.22,15.73-.04.15-.18.26-.34.26Z"/>
            <path class="cls-1" d="m195.46,167.17c-.12,0-.24,0-.37,0-4.37-.12-7.39-1.06-9.23-2.88-2.06-2.03-8.24-12.04-8.5-12.47-.1-.17-.05-.38.11-.48.16-.1.38-.05.48.11.06.1,6.4,10.37,8.4,12.33,1.72,1.69,4.58,2.56,8.76,2.68,3.44.1,5.18-1.27,5.2-1.28.15-.12.37-.1.49.05.12.15.1.37-.05.49-.07.06-1.81,1.44-5.29,1.44Z"/>
            <path class="cls-1" d="m151.84,183.74c-1.11,0-2.18-.07-2.87-.29-.18-.06-.29-.26-.23-.44.06-.18.26-.29.44-.23,1.54.5,5.43.15,6.54.04.38-7.88-1.58-45-1.6-45.38-.01-.19.14-.36.33-.37.19-.01.36.14.37.33.02.38,2.03,38.53,1.58,45.76-.01.17-.14.31-.31.33-.14.02-2.25.25-4.25.25Zm4.21-.6h0,0Z"/>
            <path class="cls-12" d="m199.92,199.07c-1.39.67-2.68.67-3.88,0l.27-13.61c.83-.76,2.72-.82,3.6,0v13.61Z"/>
            <path class="cls-1" d="m167.92,183.47c-.3,0-.49,0-.54,0-.14,0-.26-.09-.31-.21-1.22-2.91-4.91-44.98-5.06-46.77-.02-.19.13-.36.32-.38.2-.02.36.13.38.32,1.29,14.75,3.93,42.9,4.94,46.35,1.36,0,8.12-.07,13.23-2.44.18-.08.38,0,.47.17.08.18,0,.38-.17.47-5.02,2.32-11.37,2.51-13.25,2.51Z"/>
            <g>
              <path class="cls-20" d="m167.31,172.55c-4.67.85-8.91,1.15-13.4.86l.1-4.59c4.38.42,7.95.37,12.73-.69l.57,4.42Z"/>
              <path class="cls-1" d="m157.24,173.87c-1.12,0-2.23-.04-3.35-.11-.19-.01-.33-.17-.33-.36l.1-4.59c0-.1.04-.19.12-.25.07-.07.17-.1.27-.09,4.12.39,7.67.42,12.62-.68.1-.02.2,0,.28.06.08.06.13.14.15.24l.57,4.42c.02.19-.1.36-.29.39-3.57.65-6.86.97-10.13.97Zm-2.97-.79c4.14.24,8.18-.02,12.65-.81l-.48-3.71c-4.7,1-8.16,1-12.09.65l-.08,3.88Z"/>
            </g>
            <g>
              <path class="cls-20" d="m165.81,157.66c-4.17.76-7.95,1.02-11.96.76l.09-4.1c3.91.37,7.09.33,11.36-.61l.51,3.95Z"/>
              <path class="cls-1" d="m156.82,158.87c-1,0-1.99-.03-3-.1-.19-.01-.33-.17-.33-.36l.09-4.1c0-.1.04-.19.12-.25.07-.07.17-.1.27-.09,3.67.35,6.84.37,11.25-.6.1-.02.2,0,.28.06.08.06.13.14.15.24l.51,3.95c.02.19-.1.36-.29.39-3.18.58-6.12.87-9.05.87Zm-2.61-.78c3.67.21,7.25-.02,11.21-.72l-.42-3.24c-4.16.88-7.24.89-10.72.57l-.07,3.39Z"/>
            </g>
            <g>
              <path class="cls-20" d="m164.7,145.32c-3.98.73-7.6.98-11.43.73l.08-3.92c3.74.36,6.78.32,10.86-.58l.49,3.77Z"/>
              <path class="cls-1" d="m156.11,146.49c-.95,0-1.91-.03-2.87-.09-.19-.01-.33-.17-.33-.36l.08-3.92c0-.1.04-.19.12-.26.07-.06.17-.1.27-.09,3.51.34,6.53.36,10.75-.58.1-.02.2,0,.28.06.08.06.13.14.15.24l.49,3.77c.02.19-.1.36-.29.39-3.05.56-5.85.83-8.65.83Zm-2.48-.77c3.5.2,6.91-.02,10.68-.69l-.4-3.06c-3.96.84-6.9.84-10.22.54l-.07,3.2Z"/>
            </g>
            <path class="cls-1" d="m145.4,249.27c-.18,0-.33-.13-.35-.31-.11-.9-2.63-22.1-2.73-26.63-.1-4.51,0-31.93,0-32.2,0-.19.16-.35.35-.35h0c.19,0,.35.16.35.35,0,.28-.1,27.68,0,32.18.1,4.49,2.7,26.34,2.73,26.56.02.19-.11.37-.31.39-.01,0-.03,0-.04,0Z"/>
            <path class="cls-1" d="m171.7,250.03c-.17,0-.32-.13-.35-.3l-3.7-24.75c-.3-1.13-5.78-21.96-6.08-25.73-.22-2.73-1.04-3.33-1.34-3.33,0,0,0,0,0,0-.19,0-.35-.14-.36-.33-.01-.19.12-.35.3-.37.07,0,.42-.03.83.31.69.57,1.12,1.8,1.26,3.66.3,3.72,6.01,25.4,6.07,25.62,0,.01,0,.02,0,.04l3.7,24.77c.03.19-.1.37-.3.4-.02,0-.03,0-.05,0Z"/>
            <path class="cls-1" d="m155.85,249.77s-.04,0-.06,0c-.19-.03-.32-.22-.28-.41.02-.11,1.97-10.87,1.97-16.25,0-2.09-.02-3.75-.04-5.22-.03-2.34-.05-4.04.04-5.74.15-2.72,3.59-24.18,3.73-25.09.03-.19.21-.32.4-.29.19.03.32.21.29.4-.04.22-3.58,22.33-3.73,25.02-.09,1.68-.07,3.36-.04,5.69.02,1.47.04,3.14.04,5.23,0,5.44-1.96,16.27-1.98,16.37-.03.17-.18.29-.35.29Z"/>
            <path class="cls-1" d="m182.75,249.27s-.02,0-.03,0c-.19-.02-.34-.19-.32-.38.94-11.45.19-18.7-.17-22.18-.11-1.03-.18-1.78-.18-2.27,0-2.1-1.22-36.27-1.23-36.61,0-.19.14-.36.34-.36.19-.02.36.14.36.34.05,1.41,1.23,34.53,1.23,36.64,0,.45.08,1.18.18,2.19.36,3.5,1.12,10.79.17,22.31-.02.18-.17.32-.35.32Z"/>
            <path class="cls-1" d="m196.04,274.07c-.84,0-1.68-.21-2.51-.62-.12-.06-.2-.19-.19-.33l.8-25.51c0-.16.12-.3.28-.33,1.62-.34,3.16-.29,4.58.15.15.05.25.19.25.35l-.8,25.51c0,.14-.09.26-.21.31-.73.32-1.46.48-2.19.48Zm-2-1.16c1.25.57,2.47.61,3.7.12l.78-25.01c-1.16-.31-2.4-.35-3.7-.11l-.78,25Zm4.05.36h0,0Z"/>
            <path class="cls-1" d="m196.74,244.04c-.56,0-1.11-.07-1.67-.2-1.81-.44-3.33-1.56-4.3-3.15-.96-1.59-1.25-3.46-.81-5.27.91-3.73,4.69-6.02,8.42-5.11,3.73.91,6.02,4.69,5.11,8.42-.44,1.81-1.56,3.33-3.15,4.3-1.1.67-2.34,1.01-3.6,1.01Zm-.01-13.23c-2.82,0-5.38,1.92-6.08,4.77-.4,1.62-.14,3.31.73,4.74.87,1.43,2.24,2.44,3.86,2.83,3.35.82,6.75-1.24,7.57-4.59.4-1.62.14-3.31-.73-4.74-.87-1.43-2.24-2.44-3.86-2.83-.5-.12-1-.18-1.49-.18Z"/>
            <path class="cls-1" d="m196.73,238.49c-.11,0-.23-.01-.34-.04-.75-.18-1.22-.95-1.03-1.7.09-.36.32-.67.64-.87.32-.19.7-.25,1.06-.16.36.09.67.32.87.64.19.32.25.7.16,1.06h0c-.09.36-.32.67-.64.87-.22.14-.47.2-.73.2Zm0-2.11c-.13,0-.25.03-.36.1-.16.1-.27.25-.32.43-.09.38.14.76.52.85.18.04.37.02.53-.08.16-.1.27-.25.32-.43h0c.04-.18.02-.37-.08-.53-.1-.16-.25-.27-.43-.32-.06-.01-.11-.02-.17-.02Z"/>
            <path class="cls-16" d="m186.62,244.95c-.1-.02-.19-.08-.25-.17-.15-.2-.11-.48.09-.63l10.12-7.56c.2-.15.48-.11.63.09.15.2.11.48-.09.63l-10.12,7.56c-.11.08-.25.11-.38.08Z"/>
            <path class="cls-14" d="m139.17,118.81l3.23-5.84c4.73-3.18,11.47-5.39,17.81-6.19l6.63,2.65c-10.8,1.19-20.1,4.22-27.67,9.38Z"/>
            <path class="cls-1" d="m186.72,245.32c-.06,0-.13,0-.19-.02-.18-.04-.34-.15-.45-.3-.13-.17-.18-.38-.15-.59.03-.21.14-.4.31-.53l10.12-7.56c.17-.13.38-.18.59-.15.21.03.4.14.53.31.13.17.18.38.15.59-.03.21-.14.4-.31.53l-10.12,7.56c-.14.1-.31.16-.48.16Zm10.12-8.45s-.04,0-.06.02l-10.12,7.56s-.04.05-.04.06c0,.02,0,.05.02.07.02.02.04.03.05.04h0s.05,0,.08-.02l10.12-7.56s.04-.05.04-.06c0-.02,0-.05-.02-.07-.02-.03-.05-.04-.07-.04,0,0,0,0-.01,0Z"/>
            <path class="cls-1" d="m197.91,199.92c-.71,0-1.39-.18-2.04-.54-.11-.06-.18-.18-.18-.31l.27-13.61c0-.1.04-.19.11-.25,1-.91,3.1-.91,4.08,0,.07.07.11.16.11.26v13.61c0,.14-.08.26-.2.32-.74.36-1.46.53-2.16.53Zm-1.51-1.06c.99.49,2.03.48,3.17-.02v-13.22c-.77-.57-2.22-.49-2.91,0l-.26,13.23Zm3.52.21h0,0Z"/>
            <path class="cls-1" d="m189.89,155.84c-.08,0-.16-.03-.23-.08-.15-.13-.17-.35-.04-.49.33-.4,2.06-2.36,3.19-2.25,1.03.1,1.67.29,1.7.3.19.06.29.25.24.44-.06.19-.25.29-.44.24,0,0-.61-.18-1.57-.27-.57-.05-1.85,1.14-2.58,2-.07.08-.17.12-.27.12Z"/>
            <path class="cls-1" d="m199.09,166.16c-.49,0-1.04-.07-1.64-.22-4.13-.99-2.87-8.44-2.81-8.76.03-.19.21-.32.41-.29.19.03.32.22.29.41-.01.07-1.21,7.12,2.28,7.96,1.31.32,2.32.25,2.92-.19.53-.39.58-.95.58-.97.01-.19.19-.34.37-.33.19.01.34.18.33.37,0,.04-.06.9-.86,1.49-.48.35-1.1.53-1.87.53Z"/>
            <path class="cls-1" d="m139.57,120.81c-.24,0-.44-.04-.61-.12-.23-.11-.38-.3-.47-.55-.39-1.17,1.27-2.69,4.92-4.52,2.2-1.1,4.95-2.2,7.97-3.21,1.61-.54,15.79-5.17,16.7-2.46.32.95-1.1,1.9-5.23,3.52-.18.07-.38-.02-.46-.2-.07-.18.02-.38.2-.46,4.8-1.88,4.86-2.53,4.82-2.65-.3-.89-5.96-.37-15.81,2.91-2.98.99-5.71,2.09-7.88,3.17-3.66,1.83-4.75,3.12-4.57,3.67.03.09.07.13.12.15.43.22,1.83-.25,3.59-.85.44-.15.92-.31,1.44-.48.18-.06.38.04.44.22.06.18-.04.38-.22.44-.52.17-.99.33-1.44.48-1.67.56-2.78.94-3.52.94Z"/>
            <path class="cls-1" d="m139.17,119.16c-.06,0-.12-.01-.17-.04-.17-.09-.23-.31-.14-.48l3.23-5.84s.07-.09.11-.12c4.58-3.08,11.29-5.41,17.97-6.25.06,0,.12,0,.17.02l6.63,2.65c.18.07.27.28.2.46-.07.18-.28.27-.46.2l-6.54-2.62c-6.5.83-13.03,3.09-17.5,6.07l-3.19,5.77c-.06.12-.18.18-.31.18Z"/>
            <path class="cls-1" d="m142.59,113.07c-.18,0-.34-.14-.35-.33-.03-.47-.3-4.62.34-5.75,2.17-3.82,11.46-5.63,13.95-4.51,2.47,1.11,3.99,3.86,4.05,3.98.09.17.03.38-.14.48-.17.09-.38.03-.48-.14-.01-.03-1.47-2.66-3.72-3.67-2.27-1.02-11.08.74-13.05,4.22-.41.71-.37,3.67-.25,5.36.01.19-.13.36-.33.37,0,0-.02,0-.02,0Z"/>
            <path class="cls-9" d="m196.75,153.69s-.4-1.18-1.62-.82c-.84.25-.32,2.72-.44,3.6-.05.39-.08.9-.11,1.35-.03.63.69,1.03,1.2.65.12-.09.24-.2.35-.34.6-.75.73-2.38.62-3.4v-1.03Z"/>
            <path class="cls-1" d="m195.34,158.96c-.18,0-.35-.04-.52-.13-.39-.2-.61-.6-.59-1.03.03-.57.07-1.04.11-1.37.03-.23,0-.64-.02-1.07-.07-1.2-.15-2.57.7-2.82,1.18-.35,2.03.54,2.32,1.06.09.17.03.38-.14.48-.17.09-.38.03-.48-.14-.03-.05-.57-1-1.5-.73-.32.09-.24,1.5-.2,2.1.03.49.05.9.01,1.2-.04.32-.08.76-.1,1.32,0,.16.07.3.22.38.14.07.3.06.42-.03.1-.08.2-.17.28-.28.5-.62.53-2.06.42-3.09-.02-.19.12-.37.31-.39.19-.02.37.12.39.31.07.59.23,2.61-.56,3.61-.12.15-.26.29-.41.4-.19.15-.42.22-.65.22Z"/>
            <path class="cls-1" d="m196.92,155.84c-.16,0-.3-.11-.34-.26-.62-2.39-1.53-5.24-2.58-8.54-2.33-7.28-5.22-16.34-7.41-27.74-4.29-22.33-2.33-49.06-2.31-49.33.01-.19.18-.34.38-.32.19.01.34.18.32.38-.02.27-1.97,26.91,2.3,49.14,2.18,11.36,5.07,20.4,7.39,27.66,1.06,3.31,1.97,6.16,2.59,8.57.05.19-.06.38-.25.43-.03,0-.06.01-.09.01Z"/>
            <path class="cls-1" d="m158.26,136.11c-.38,0-.73-.11-.96-.22-.17-.09-.24-.3-.16-.47.09-.17.3-.24.47-.16.04.02.93.45,1.41-.24.11-.16.33-.2.49-.09.16.11.2.33.09.49-.37.53-.88.69-1.34.69Z"/>
            <path class="cls-1" d="m161.44,182.58c-1.19,0-2.17-.3-2.23-.31-.19-.06-.29-.25-.23-.44.06-.19.26-.29.44-.23.02,0,2.07.62,3.72,0,.18-.07.38.02.45.21.07.18-.02.38-.21.45-.64.24-1.32.32-1.95.32Z"/>
            <path class="cls-14" d="m157.1,247.1c-3.86,1.82-9.88,2.13-13.07-.61.82,5.55,3.5,14.13,2.89,18.84-.91,4.1-2.21,7.85-2.11,9.07.09,1.09,2.45,1.98,4.34,2.08,2.31.19,6.18-.76,6.56-2.12.42-1.61-.31-5.05-.45-8.97-.05-1.51,1.9-13.1,1.83-18.3Z"/>
            <path class="cls-14" d="m170.89,247.1c3.86,1.82,9.88,2.13,13.07-.61-.82,5.55-3.5,14.13-2.89,18.84.91,4.1,2.21,7.85,2.11,9.07-.09,1.09-2.45,1.98-4.34,2.08-2.31.19-6.18-.76-6.56-2.12-.42-1.61.31-5.05.45-8.97.05-1.51-1.9-13.1-1.83-18.3Z"/>
            <path class="cls-1" d="m149.72,276.86c-.21,0-.41,0-.6-.02-1.87-.09-4.54-.98-4.66-2.4-.06-.8.36-2.37.95-4.55.38-1.4.8-2.98,1.17-4.63.4-3.07-.7-8.08-1.67-12.5-.49-2.26-.96-4.39-1.23-6.22-.02-.15.05-.29.18-.36.13-.07.29-.05.4.04,3.04,2.61,8.96,2.32,12.69.56.12-.05.25-.04.36.03.1.08.16.2.14.33-.86,6.28-1.88,16.72-1.83,18.24.06,1.54.2,3.02.34,4.32.21,2.08.37,3.72.1,4.75-.43,1.55-4.07,2.41-6.33,2.41Zm-5.21-29.57c.27,1.61.67,3.42,1.09,5.32,1.03,4.69,2.09,9.54,1.67,12.77-.37,1.69-.8,3.28-1.18,4.69-.53,1.95-.98,3.64-.93,4.32.07.77,2.09,1.66,4.01,1.75,2.45.2,5.92-.85,6.21-1.87.24-.9.07-2.57-.12-4.49-.13-1.32-.28-2.81-.34-4.37-.05-1.49.9-11.38,1.75-17.73-3.72,1.54-8.91,1.76-12.15-.38Z"/>
            <path class="cls-12" d="m191.68,248.89c.51,1.56-.1,1.81-1.51,1.12l-4.26-5.78,1.51-1.12,4.26,5.78Z"/>
            <path class="cls-1" d="m178.26,276.86c-2.26,0-5.9-.85-6.33-2.4-.27-1.03-.11-2.67.1-4.75.13-1.31.28-2.78.34-4.32.02-.66-.29-3.32-.64-6.41-.43-3.77-.97-8.47-1.19-11.85,0-.12.05-.24.15-.31.1-.07.24-.08.35-.03,3.73,1.76,9.65,2.05,12.69-.56.11-.09.27-.11.4-.04.13.07.2.21.18.36-.27,1.83-.74,3.96-1.23,6.22-.97,4.42-2.06,9.42-1.66,12.53.36,1.61.79,3.2,1.16,4.6.59,2.18,1.01,3.76.95,4.55-.12,1.42-2.8,2.31-4.68,2.4-.18.01-.38.02-.59.02Zm-6.98-29.2c.24,3.31.74,7.69,1.15,11.24.37,3.24.67,5.8.64,6.51-.06,1.56-.21,3.06-.34,4.37-.19,1.93-.36,3.59-.12,4.5.28,1.02,3.75,2.07,6.19,1.86,1.93-.1,3.95-.98,4.02-1.76.05-.67-.4-2.36-.93-4.31-.38-1.41-.81-3-1.18-4.66-.42-3.26.64-8.11,1.67-12.8.42-1.9.81-3.71,1.09-5.32-3.26,2.14-8.47,1.92-12.2.36Z"/>
            <path class="cls-1" d="m195.26,163.34s1.81.98,3.12,1.19c1.32.22,3.11-.53,3.11-.53,0,0,.26,1.95-2.99,1.8-3.25-.15-3.24-2.47-3.24-2.47Z"/>
            <path class="cls-1" d="m191.02,250.77c-.33,0-.72-.14-1.1-.51-.01-.01-.03-.03-.04-.04l-4.26-5.78c-.06-.07-.08-.17-.06-.26.01-.09.06-.17.14-.23l1.51-1.12c.16-.12.38-.08.49.07l4.26,5.78s.02.03.03.05c.34.68.21,1.45-.31,1.83-.17.12-.4.21-.66.21Zm-.59-1c.31.29.62.38.84.22.21-.15.31-.51.11-.92l-4.03-5.47-.95.7,4.03,5.47Z"/>
            <path class="cls-1" d="m194.67,104.35c-.16,0-.3-.1-.34-.26-.05-.19.06-.38.25-.43l1.02-.27c.19-.05.38.06.43.25.05.19-.06.38-.25.43l-1.02.27s-.06.01-.09.01Z"/>
            <path class="cls-1" d="m196.73,135.57c-.12,0-.24-.06-.3-.18-.1-.17-.04-.38.13-.48l1.05-.61c.17-.1.38-.04.48.13.1.17.04.38-.13.48l-1.05.61c-.06.03-.12.05-.18.05Z"/>
          </g>
          <g>
            <path class="cls-18" d="m114.7,274.07s.84,1.2.56,2.25c-.12.4-1.77,1.08-3.21,1.28-1.44.2-3.09.08-4.37-.12-.84-.12-1.44-.24-2.01-.48-1.32-.6-.72-2.49-.64-3.29l9.67.36Z"/>
            <path class="cls-1" d="m127.4,278.06c-.55,0-1.11-.03-1.67-.11-1.14-.16-3.28-.8-3.5-1.53-.32-1.2.57-2.49.61-2.55.11-.16.33-.2.49-.09.16.11.2.33.09.49,0,.01-.74,1.09-.51,1.95.14.21,1.51.83,2.92,1.03,1.62.23,3.37.02,4.27-.12.81-.12,1.39-.23,1.92-.46.79-.36.69-1.35.51-2.43-.03-.19-.06-.36-.07-.5-.02-.19.12-.37.31-.38.19-.02.36.12.38.31.01.13.04.28.07.45.16.96.44,2.58-.91,3.19-.61.26-1.26.39-2.1.51-.63.1-1.67.23-2.81.23Z"/>
            <path class="cls-4" d="m114.15,204.93s4.13.89,7.99-.13l-.15-10.32-7.6-.65-.24,11.11Z"/>
            <path class="cls-4" d="m130.03,193.75c4.03,3.34,8.74,1.06,8.13-3.72-.38-3.03-3.41-15.41-4.33-18.69-1.6-5.7-3.5-6.38-5.97-6.23-3.92.24-6.14,1.81-6.14,1.81l-8.66.39s-2.87-1.96-6.79-2.2c-2.47-.15-4.37.53-5.97,6.23-.92,3.29-3.95,15.66-4.33,18.69-.61,4.79,4.1,7.07,8.13,3.72h25.93Z"/>
            <path class="cls-1" d="m113.21,259.99c0,.67-2.02.89-4.24.89s-4.45-.62-4.45-1.29,2.36-.62,4.58-.62,4.12.35,4.12,1.02Z"/>
            <path class="cls-1" d="m124.65,260.02c0,.67,2.02.89,4.24.89s4.45-.62,4.45-1.29-2.36-.62-4.58-.62-4.12.35-4.12,1.02Z"/>
            <path class="cls-18" d="m123.14,274.07s-.84,1.2-.56,2.25c.12.4,1.77,1.08,3.21,1.28,1.44.2,3.09.08,4.37-.12.84-.12,1.44-.24,2.01-.48,1.32-.6.72-2.49.64-3.29l-9.67.36Z"/>
            <path class="cls-9" d="m124.21,249.42c.2,1.93,2.22,14.12,2.14,14.84l5.4.38c-.04-1.32.72-14.14.84-15.22h-8.37Z"/>
            <path class="cls-4" d="m125.53,257.92s3.31,1.18,6.61-.22l-.24,5.22-5.62-.19-.75-4.81Z"/>
            <path class="cls-9" d="m113.63,249.23c-.2,1.93-2.22,14.12-2.14,14.84l-5.39.38c.04-1.32-.72-14.14-.84-15.22h8.37Z"/>
            <path class="cls-1" d="m100.13,195.69c-.79,0-1.55-.18-2.24-.56-1.71-.94-2.56-2.86-2.27-5.15.38-2.98,3.39-15.35,4.34-18.74,1.58-5.65,3.52-6.66,6.33-6.49,3.97.24,6.85,2.18,6.97,2.26.16.11.2.33.09.49-.11.16-.33.2-.49.09-.03-.02-2.84-1.91-6.62-2.14-2.11-.13-4,.23-5.61,5.98-.95,3.38-3.95,15.69-4.32,18.64-.25,1.98.46,3.64,1.92,4.44,1.63.9,3.8.5,5.64-1.03.15-.12.37-.1.49.05.12.15.1.37-.05.49-1.32,1.1-2.8,1.67-4.19,1.67Z"/>
            <path class="cls-19" d="m134.75,213.78s.69,16.54-.27,34.98c0,0-6.23,2.74-14.51-.53,0,0-.6-23.27-.75-24.77-.33-3.5-2.07-4.79-2.07-4.79l1.04,1.31s-.51,2.61-.8,6.67c-.46,6.38-.53,21.58-.53,21.58-8.28,3.27-14.51.53-14.51.53-.73-17.55-.27-34.98-.27-34.98l12.06-8.86h7.65l12.95,8.86Z"/>
            <path class="cls-11" d="m105.77,179.39c1.22-3.19.99-14.51.99-14.51l5.55,1.44s1.43,6.64,1.96,10.71c.39,2.94-.29,37.31-.29,37.31,0,0-7.52,1.75-13.87-1.37,0,0,1.79-14.21,2.47-18.23l3.19-15.35Z"/>
            <path class="cls-11" d="m130.19,179.39c-1.22-3.19-.99-14.51-.99-14.51-2.34.03-4.62.1-5.55,1.44,0,0-1.43,6.64-1.96,10.71-.39,2.94.29,37.31.29,37.31,0,0,7.52,1.75,13.87-1.37,0,0-1.79-14.21-2.47-18.23l-3.19-15.35Z"/>
            <path class="cls-1" d="m108.95,215.19c-2.64,0-5.93-.4-8.99-1.9-.13-.07-.21-.21-.19-.36.02-.14,1.8-14.26,2.47-18.25.03-.19.21-.32.4-.29.19.03.32.21.29.41-.62,3.68-2.19,16.05-2.44,17.97,5.44,2.56,11.78,1.55,13.14,1.29.06-3.29.65-34.24.29-36.98-.48-3.65-1.69-9.44-1.92-10.51-1.62-.72-3.26-1.16-4.88-1.31.03,2.05.09,11.34-1.02,14.26-.07.18-.27.27-.45.2-.18-.07-.27-.27-.2-.45,1.18-3.09.97-14.27.97-14.38,0-.1.04-.19.11-.26.07-.07.17-.1.27-.1,1.88.13,3.79.62,5.67,1.47.1.05.18.14.2.25.01.07,1.43,6.7,1.97,10.74.39,2.93-.26,35.96-.29,37.36,0,.16-.11.3-.27.34-.16.04-2.25.51-5.11.51Z"/>
            <path class="cls-1" d="m127.29,215.44c-2.86,0-4.94-.47-5.11-.51-.16-.04-.27-.17-.27-.34-.03-1.4-.68-34.43-.29-37.36.54-4.07,1.51-11.32,1.51-11.32.01-.1.07-.19.16-.25,1.59-1.02,3.49-1.35,5.64-1.01.17.03.29.17.3.34,0,.11.39,11.42,1.57,14.52,0,.02.01.03.01.05l1.5,6.69c.04.19-.08.38-.27.42-.19.04-.38-.08-.42-.27l-1.5-6.67c-1.12-2.99-1.53-12.59-1.6-14.43-1.82-.24-3.37.04-4.73.87-.15,1.1-1,7.45-1.49,11.16-.36,2.74.23,33.68.29,36.98,1.36.26,7.7,1.27,13.14-1.29-.24-1.92-1.81-14.29-2.44-17.97-.03-.19.1-.37.29-.4.19-.03.37.1.4.29.68,3.99,2.45,18.11,2.47,18.25.02.15-.06.29-.19.36-3.06,1.5-6.36,1.9-8.99,1.9Z"/>
            <path class="cls-13" d="m107.68,179.97s1.6-.76,6.83-.68c0,0,11.02,4.74,14.36,5.12,0,0-.03.82-.93,1.05l-20.27-5.49Z"/>
            <path class="cls-1" d="m134,195.68c-.1,0-.2,0-.31,0-1.33-.07-2.67-.64-3.89-1.65-.15-.12-.17-.35-.05-.49.12-.15.34-.17.49-.05,1.1.91,2.3,1.43,3.48,1.49,1.21.07,2.3-.34,3.06-1.16.85-.91,1.21-2.24,1.02-3.74-.37-2.94-3.37-15.26-4.32-18.64-1.33-4.78-2.82-5.85-4.64-5.98-.19-.01-.34-.18-.33-.38.01-.19.18-.34.38-.33,2.5.18,4.03,2.06,5.27,6.49.98,3.5,3.96,15.71,4.34,18.75.22,1.72-.21,3.25-1.2,4.31-.84.9-2.01,1.39-3.3,1.39Z"/>
            <path class="cls-1" d="m121.72,167.27c-.11,0-.22-.05-.29-.15-.11-.16-.08-.38.08-.49.03-.02.65-.46,1.82-.91.18-.07.38.02.45.2.07.18-.02.38-.2.45-1.08.42-1.66.83-1.67.83-.06.04-.13.06-.2.06Z"/>
            <g>
              <path class="cls-8" d="m108.32,149.75c.63-2.92.99-4.36,3.19-6.02,2.47-1.89,4.5-1.8,6.25-1.8,2.02,0,4.5.27,6.11,1.89,1.03,1.03,2.56,2.7,2.83,4.86.4,2.83-.63,6.16-.63,6.16l-17.17.22s-1.26-2.38-.58-5.31Z"/>
              <path class="cls-6" d="m126.97,156.77c0,.34-.09.69-.3,1.02-.02.02-.03.05-.05.07-.77,1.07-1.97,1.33-1.97,1.33,0,0-.08.29-.23.73,0,.01,0,.03-.01.04-.15.44-.36,1.03-.62,1.61-.01.03-.03.06-.04.1-.12.26-.29.51-.47.76-.03.04-.06.08-.09.12-.65.83-1.46,1.46-1.46,1.46,0,0,0,.03,0,.09,0,.05,0,.12,0,.22,0,.03,0,.06,0,.1,0,.18-.01.43-.01.7,0,.13,0,.28,0,.43,0,1.12.07,2.57.35,3.33-.58,1.28-1.81,2.65-4.42,2.85-2.45.18-4-1.46-4.88-2.94.6-1.57.34-4.82.34-4.82,0,0-.17-.15-.41-.4-.04-.04-.08-.08-.11-.11-.07-.07-.14-.15-.21-.23-.01-.01-.02-.02-.03-.03-.08-.09-.16-.2-.24-.3,0-.02-.02-.03-.03-.04-.22-.31-.44-.66-.6-1.04-.04-.1-.08-.2-.12-.3,0,0,0-.02-.01-.02-.12-.3-.24-.61-.34-.89-.29-.77-.51-1.39-.51-1.39,0,0-.17.02-.43-.02-.49-.08-1.29-.4-1.82-1.55-.36-1.03,0-1.89,0-1.89,0,0,.22-.46.64-.75.05-.04.11-.07.17-.1.59-.23,1.03-.05,1.62-.31,1.12-.59,1.26-1.48,1.53-2.74.03-.17.11-.27.22-.35h0c.13-.09.32-.14.53-.21.3-.09.65-.23,1-.61.59-.63.81-1.71,1.71-1.84.4-.07.45.81,1.13,1.49.17.17.37.32.63.45,1.3.68,3.01.09,3.01.09,0,0,.85.14,1.35.45.54.27.77.72.77.72,0,0,.67,1.44,1.8,2.34.45.36.54.23,1.26.36.13.03.27.08.39.14.34.17.6.4.6.4,0,0,.05.09.12.25,0,0,0,.01,0,.01.12.28.28.76.26,1.28Z"/>
              <path class="cls-1" d="m117.54,166.28s0,0-.01,0c-.07,0-1.65-.06-3.91-1.54-1.61-1.03-2.14-2.15-2.42-2.75-.5-.95-.83-2.2-1.1-3.4-.04-.19.07-.38.26-.42.19-.04.38.07.42.26.27,1.15.58,2.34,1.05,3.24.28.59.73,1.56,2.17,2.47,2.08,1.36,3.54,1.43,3.55,1.43.19,0,.34.17.34.36,0,.19-.16.34-.35.34Z"/>
              <path class="cls-1" d="m117.59,166.28c-.19,0-.35-.16-.35-.35s.16-.35.35-.35c.03,0,1.26-.04,3.32-1.34,1.39-.88,2.04-1.94,2.39-2.51l.02-.03c.76-1.27,1.07-3.22,1.08-3.24.03-.19.21-.32.4-.29.19.03.32.21.29.4-.01.09-.33,2.11-1.17,3.5l-.02.04c-.38.62-1.08,1.76-2.61,2.73-2.26,1.43-3.64,1.45-3.7,1.45Z"/>
              <path class="cls-1" d="m113,168.71s-.05,0-.07,0c-.19-.04-.31-.23-.27-.42.26-1.2.13-4.2.13-4.23,0-.19.14-.36.34-.37.2,0,.36.14.37.34,0,.13.13,3.12-.14,4.41-.04.16-.18.28-.34.28Z"/>
              <path class="cls-1" d="m117.63,159.36c-.09,0-.17-.03-.24-.09-.14-.13-.15-.35-.02-.5.37-.4.37-.54.37-.56,0-.05-.14-.16-.24-.24-.23-.19-.55-.44-.66-.91-.17-.66.07-1.76.28-2.32.07-.18.27-.27.45-.2.18.07.27.27.2.45-.21.55-.37,1.46-.26,1.9.06.24.23.37.42.53.21.17.47.38.5.73.02.31-.15.65-.55,1.09-.07.07-.16.11-.26.11Z"/>
              <path class="cls-1" d="m112.91,152.53c-.11,0-.22-.05-.29-.15-.11-.16-.08-.38.08-.49.05-.03,1.12-.78,2.55-.17.18.08.26.28.18.46-.08.18-.28.26-.46.18-1.07-.46-1.85.09-1.86.1-.06.04-.13.07-.2.07Z"/>
              <path class="cls-1" d="m121.86,152.48c-.07,0-.14-.02-.2-.06-.04-.02-.81-.54-1.85-.06-.18.08-.38,0-.47-.17-.08-.18,0-.38.17-.47,1.43-.66,2.51.09,2.55.12.16.11.19.33.08.49-.07.1-.18.15-.29.15Z"/>
              <path class="cls-2" d="m113.18,164.18s2.07,1.84,4.45,1.93c1.8.04,4.36-2.02,4.36-2.02,0,0-2.61,3.1-4.99,3.46-2.07.31-3.73-1.39-3.73-1.39l-.09-1.98Z"/>
              <path class="cls-1" d="m121.9,168.85c-.16,0-.3-.11-.34-.27-.32-1.29-.2-4.25-.19-4.37,0-.19.17-.34.37-.34.19,0,.34.17.34.37,0,.03-.13,2.98.17,4.17.05.19-.07.38-.26.43-.03,0-.06.01-.09.01Z"/>
              <path class="cls-1" d="m124.69,159.58c-.16,0-.3-.11-.34-.27-.05-.19.07-.38.26-.43,1.07-.27,1.69-.85,1.95-1.82.16-.63.05-1.24-.3-1.6-.29-.29-.71-.38-1.21-.26-.19.04-.38-.07-.42-.26-.05-.19.07-.38.26-.42.74-.18,1.41-.02,1.88.45.53.54.71,1.39.48,2.27-.33,1.23-1.13,1.99-2.46,2.32-.03,0-.06.01-.09.01Z"/>
              <path class="cls-1" d="m125.18,157.52c-.05,0-.11-.01-.16-.04-.17-.09-.24-.3-.16-.47.02-.05.24-.46.67-.72.16-.1.38-.05.48.11.1.16.05.38-.11.48-.27.17-.41.44-.41.45-.06.12-.19.19-.31.19Z"/>
              <path class="cls-5" d="m117.59,160.72c-1.17,0-2.34-.22-2.34-.22,0,0,.54,2.29,2.38,2.38,1.75.09,2.38-2.38,2.38-2.38,0,0-1.26.22-2.43.22Z"/>
              <path class="cls-1" d="m110.44,159.63s-.06,0-.09-.01c-1.33-.33-2.13-1.09-2.46-2.32-.23-.89-.05-1.74.48-2.27.46-.47,1.13-.63,1.88-.45.19.05.3.24.26.42-.05.19-.24.3-.42.26-.5-.12-.92-.03-1.21.26-.35.35-.46.97-.3,1.6.26.97.88,1.55,1.95,1.81.19.05.3.24.26.43-.04.16-.18.27-.34.27Z"/>
              <path class="cls-1" d="m109.94,157.56c-.13,0-.25-.07-.31-.19,0,0-.15-.28-.41-.44-.16-.1-.21-.32-.11-.48.1-.16.32-.21.48-.11.43.27.64.68.67.72.09.17.02.38-.16.47-.05.03-.1.04-.16.04Z"/>
              <path class="cls-1" d="m117.73,163.23s-.08,0-.11,0c-2.08-.1-2.68-2.55-2.71-2.65-.03-.12,0-.24.09-.32.08-.09.2-.12.32-.1.01,0,1.15.22,2.27.22s2.35-.22,2.37-.22c.12-.02.24.02.32.11.08.09.11.21.08.33-.03.11-.7,2.65-2.63,2.65Zm-1.96-2.3c.26.61.83,1.54,1.88,1.59.99.06,1.57-.95,1.84-1.6-.49.06-1.21.14-1.9.14s-1.35-.07-1.81-.14Z"/>
              <path class="cls-1" d="m108.77,155.13c-.15,0-.29-.1-.34-.26-.53-1.87-.61-3.92-.23-5.61.04-.19.23-.31.42-.27.19.04.31.23.27.42-.36,1.59-.28,3.51.22,5.27.05.19-.06.38-.24.43-.03,0-.06.01-.1.01Z"/>
              <path class="cls-1" d="m107.92,149.11c-.14,0-.27-.09-.33-.23-.07-.18.02-.38.2-.45.34-.13.62-.83.8-1.25.05-.12.09-.23.14-.32,1.16-2.55,2.88-3.98,5.76-4.78,1.16-.32,2.03-.4,2.72-.47.92-.08,1.43-.13,1.92-.69.13-.15.35-.16.5-.03.15.13.16.35.03.5-.67.76-1.39.83-2.38.92-.67.06-1.49.14-2.6.44-2.65.74-4.24,2.05-5.3,4.39-.04.08-.08.19-.12.3-.24.59-.57,1.4-1.19,1.64-.04.02-.08.02-.13.02Z"/>
              <path class="cls-1" d="m126.17,155.18s-.07,0-.11-.02c-.18-.06-.28-.26-.22-.44,0,0,.26-.8.43-2.18.02-.19.2-.33.39-.31.19.02.33.2.31.39-.18,1.46-.45,2.28-.47,2.32-.05.15-.19.24-.33.24Z"/>
              <path class="cls-1" d="m127.39,152.17s-.1,0-.14-.03c-.59-.26-.69-1.13-.75-1.92-.05-1.17-.27-2.21-.65-3.13-.89-2.31-3.07-3.97-5.99-4.56-.19-.04-.31-.22-.28-.41.04-.19.22-.31.41-.28,3.16.63,5.53,2.45,6.51,4.98.41.98.64,2.11.7,3.35.07.99.22,1.26.33,1.31.18.08.26.29.18.46-.06.13-.19.21-.32.21Z"/>
              <path class="cls-1" d="m124.47,154.32s-.09,0-.13-.02c-1.63-.64-2.17-2.49-2.19-2.57-.05-.19.06-.38.24-.43.19-.05.38.06.43.24,0,.02.47,1.6,1.77,2.11.18.07.27.27.2.46-.05.14-.19.22-.33.22Z"/>
              <path class="cls-1" d="m121.14,151.31s-.05,0-.07,0c-1.87-.37-2.96-1.87-3.07-3.15-.02-.19.13-.36.32-.38.19-.02.36.13.38.32.07.83.8,2.18,2.51,2.52.19.04.31.22.28.41-.03.17-.18.28-.34.28Z"/>
              <path class="cls-1" d="m117.05,150.91c-.08,0-.16-.03-.22-.08-1.04-.84-1.19-2.46-.97-3.29.05-.19.24-.3.43-.25.19.05.3.24.25.43-.15.56-.09,1.89.74,2.56.15.12.17.34.05.49-.07.09-.17.13-.27.13Z"/>
              <path class="cls-1" d="m110.62,154.64c-.14,0-.28-.09-.33-.23-.07-.18.03-.38.21-.45.62-.23.79-.75.96-1.26l.05-.14c.06-.18.26-.28.44-.22.18.06.28.26.22.44l-.04.13c-.17.54-.44,1.36-1.38,1.7-.04.01-.08.02-.12.02Z"/>
              <path class="cls-1" d="m112.28,151.85c-.16,0-.3-.11-.34-.27-.04-.19.07-.38.26-.42,1.54-.36,2.26-2.19,2.27-2.21.07-.18.27-.27.45-.2.18.07.27.27.2.45-.03.09-.85,2.2-2.77,2.65-.03,0-.05,0-.08,0Z"/>
              <path class="cls-1" d="m114.93,156.47c-.11,0-.22-.05-.29-.15-.15-.21-.37-.46-.61-.46h0c-.26,0-.51.31-.56.39-.1.16-.32.21-.49.1-.16-.11-.21-.32-.1-.49.05-.07.47-.69,1.13-.71.44,0,.85.25,1.21.76.11.16.07.38-.09.49-.06.04-.13.06-.2.06Z"/>
              <path class="cls-1" d="m119.92,156.47c-.07,0-.14-.02-.2-.06-.16-.11-.2-.33-.09-.49.36-.51.77-.76,1.21-.76.67.01,1.09.64,1.13.71.11.16.06.38-.1.49s-.38.06-.48-.1c-.07-.11-.31-.38-.56-.39-.24-.02-.47.25-.62.46-.07.1-.18.15-.29.15Z"/>
            </g>
            <path class="cls-1" d="m108.63,250.2c-3.82,0-6.26-1.04-6.42-1.11-.12-.05-.2-.17-.21-.31-.72-17.36-.27-34.83-.27-35,0-.19.17-.36.36-.34.19,0,.35.17.34.36,0,.17-.44,17.47.26,34.73,1.11.41,6.7,2.2,13.82-.53.01-1.97.11-15.48.53-21.36.29-4.03.8-6.68.81-6.71.04-.19.22-.31.41-.28.19.04.31.22.28.41,0,.03-.51,2.64-.8,6.62-.45,6.3-.53,21.41-.53,21.56,0,.14-.09.27-.22.32-3.16,1.25-6.02,1.64-8.36,1.64Z"/>
            <path class="cls-1" d="m128.2,250.2c-2.34,0-5.2-.39-8.36-1.64-.13-.05-.22-.18-.22-.32,0-.23-.6-23.27-.74-24.75-.31-3.28-1.91-4.53-1.93-4.54-.15-.12-.18-.34-.07-.49.12-.15.33-.19.49-.07.08.06,1.86,1.43,2.21,5.03.14,1.43.67,21.98.74,24.56,7.13,2.73,12.72.94,13.83.53.93-18.12.26-34.56.26-34.72,0-.19.14-.36.34-.37.19-.02.36.14.37.34,0,.17.68,16.77-.27,35.01,0,.13-.09.25-.21.3-.16.07-2.61,1.11-6.42,1.11Zm6.28-1.43h0,0Z"/>
            <path class="cls-12" d="m151.44,180.53c-6.1,7.4-11.46,8-12.81,8.63-.08.03-.15.07-.2.11-1.79,1.33-3.59,2.51-10.26,4.28-6.67,1.77-21.03,1.73-27.98-3.25-4.08-2.92-6.41-7.23-7.26-9.05-.22-.48,0-1.04.5-1.22,1.85-.68,6.37-2,11.44-.78,6.61,1.59,11.4,3.7,15.73,4.44,4.33.74,11.51,3.36,15.16,2.85.14-.18.27-.38.4-.59,2.25-3.65,3.2-10.75,6.86-13.77l-.38,9.79,8.82-1.43Z"/>
            <path class="cls-13" d="m108.05,186.45s7.72-1.9,9.5-1.67c1.78.23-.23,6.69-3.34,6.38-3.12-.3-6.31-2.28-6.31-2.28l.15-2.43Z"/>
            <path class="cls-13" d="m104.86,179.24s1.45,5.31-4.18,11.39c0,0-8.84-7.84-7.84-9.99,1.29-2.78,12.02-1.41,12.02-1.41Z"/>
            <path class="cls-13" d="m151.44,180.53c-6.1,7.4-11.46,8-12.81,8.63.28-.95.48-1.92.32-2.28-.21-.46-1.64-.76-2.8-.94,2.25-3.65,3.2-10.75,6.86-13.77.56,3.38.41,6.64-.38,9.79,2.78-.76,5.58-1.66,8.82-1.43Z"/>
            <path class="cls-1" d="m118.42,194.96c-6.66,0-14.07-1.26-18.44-4.39-4.18-2.99-6.55-7.42-7.37-9.19-.15-.32-.16-.68-.02-1.01.13-.32.39-.57.72-.7,1.77-.66,6.44-2.05,11.64-.79,3.14.76,5.89,1.64,8.32,2.42,2.75.88,5.12,1.64,7.38,2.03,1.49.25,3.28.72,5.18,1.22,3.46.9,7.37,1.92,9.73,1.65.97-1.36,1.7-3.41,2.46-5.58,1.18-3.33,2.41-6.78,4.76-8.73.1-.08.24-.1.36-.05.12.05.2.16.21.29.02.22.46,5.16-.27,9.31,4.6-1.42,8.22-1.27,8.37-1.27.13,0,.25.09.3.21.05.12.03.26-.05.37-5.19,6.28-9.81,7.72-12.03,8.41-.48.15-.9.28-1.04.39-1.95,1.44-3.83,2.6-10.38,4.33-2.59.69-6.1,1.08-9.83,1.08Zm-17.84-15.87c-3.21,0-5.83.81-7.04,1.26-.15.05-.26.16-.32.3-.06.14-.05.3.01.44.8,1.72,3.1,6.02,7.15,8.92,6.65,4.76,20.61,5.07,27.69,3.19,6.43-1.7,8.26-2.82,10.14-4.22.24-.18.64-.3,1.25-.49,2.09-.65,6.36-1.98,11.21-7.61-1.36.03-4.42.24-7.95,1.41-.12.04-.25.01-.34-.07-.09-.08-.14-.21-.11-.33.68-3.26.53-7.34.43-8.97-1.88,1.89-2.97,4.96-4.03,7.94-.81,2.28-1.57,4.44-2.65,5.88-.06.08-.14.12-.23.14-2.48.35-6.38-.67-10.15-1.65-1.88-.49-3.66-.95-5.12-1.2-2.31-.4-4.7-1.16-7.48-2.05-2.42-.77-5.16-1.65-8.27-2.4-1.46-.35-2.87-.49-4.19-.49Zm35.16,7.44h0,0Z"/>
            <path class="cls-1" d="m138.43,189.62c-.07,0-.14-.02-.2-.06-.16-.11-.2-.33-.09-.49.61-.89.81-1.57.58-1.91-.39-.57-1.98-.48-2.9-.28-.19.04-.38-.08-.42-.27-.04-.19.08-.38.27-.42.29-.06,2.85-.57,3.63.58.42.62.23,1.51-.58,2.7-.07.1-.18.15-.29.15Z"/>
            <path class="cls-1" d="m114.43,191.53c-.08,0-.17,0-.26-.01-3.16-.31-6.32-2.25-6.46-2.33-.16-.1-.22-.32-.11-.48.1-.16.32-.22.48-.11.03.02,3.16,1.94,6.16,2.23,1.84.17,3.39-2.55,3.6-4.44.06-.55.01-1.2-.34-1.25-1.35-.17-6.72,1.01-9.37,1.66-.19.05-.38-.07-.42-.26-.05-.19.07-.38.26-.42.32-.08,7.8-1.92,9.63-1.68.72.09,1.08.85.95,2.02-.21,1.88-1.75,5.07-4.11,5.07Z"/>
            <path class="cls-1" d="m100.45,181.79c-.14,0-.27-.08-.32-.21l-.68-1.6c-.08-.18,0-.38.18-.46.18-.08.38,0,.46.18l.68,1.6c.08.18,0,.38-.18.46-.05.02-.09.03-.14.03Z"/>
            <path class="cls-1" d="m99.36,181.44c-.11,0-.22-.05-.29-.16-.11-.16-.07-.38.1-.49.04-.03,1-.67,1.97-.91.19-.05.38.07.43.26s-.07.38-.26.43c-.84.21-1.73.81-1.74.81-.06.04-.13.06-.2.06Z"/>
            <path class="cls-4" d="m112.33,257.92s-3.31,1.18-6.61-.22l.24,5.22,5.62-.19.75-4.81Z"/>
            <path class="cls-1" d="m98.86,184.37c-.11,0-.21-.05-.28-.14-2.16-2.88-5.73-3.24-5.77-3.24-.19-.02-.34-.19-.32-.38.02-.19.19-.34.38-.32.16.01,3.92.39,6.27,3.52.12.16.09.38-.07.49-.06.05-.14.07-.21.07Z"/>
            <path class="cls-1" d="m100.68,190.98c-.09,0-.17-.03-.24-.09-.14-.13-.15-.35-.02-.5,5.41-5.85,4.11-11.01,4.1-11.06-.05-.19.06-.38.25-.43.19-.05.38.06.43.25.06.22,1.43,5.57-4.26,11.73-.07.07-.16.11-.26.11Z"/>
            <path class="cls-1" d="m105.77,185.67c-.08,0-.15-.03-.22-.08-.15-.12-.18-.34-.05-.49,1.39-1.73.78-4.07.77-4.1-.05-.19.06-.38.25-.43.19-.05.38.06.43.25.03.11.71,2.7-.9,4.72-.07.09-.17.13-.27.13Z"/>
            <path class="cls-1" d="m127.94,185.81c-.16,0-.3-.1-.34-.26-.05-.19.06-.38.25-.43.32-.08.49-.26.57-.43-3.62-.64-13.03-4.64-13.99-5.06-5.04-.06-6.59.64-6.61.65-.17.08-.38,0-.47-.17-.08-.18,0-.38.17-.47.07-.03,1.73-.79,6.99-.72.05,0,.09.01.13.03.11.05,11.01,4.72,14.26,5.09.18.02.32.18.31.36-.02.37-.28,1.14-1.19,1.38-.03,0-.06.01-.09.01Z"/>
            <path class="cls-1" d="m117.25,172.08c-2.35,0-3.85-1.59-4.71-2.97-.1-.16-.05-.38.11-.48.17-.1.38-.05.48.11.8,1.29,2.22,2.79,4.46,2.62,2.01-.15,3.39-1.04,4.12-2.64.5-1.09.49-2.11.49-2.12,0-.19.15-.35.35-.36.18,0,.35.15.36.34,0,.05.01,1.19-.55,2.43-.58,1.27-1.87,2.84-4.71,3.05-.14.01-.27.02-.4.02Z"/>
            <path class="cls-1" d="m131.74,265c-.19,0-.35-.15-.35-.34-.04-1.42.72-14.25.84-15.27.02-.19.19-.33.39-.31.19.02.33.19.31.39-.11.97-.87,13.84-.83,15.17,0,.19-.15.36-.34.36,0,0,0,0-.01,0Z"/>
            <path class="cls-1" d="m126.35,264.62s-.03,0-.04,0c-.19-.02-.33-.2-.31-.39.03-.44-.7-5.15-1.23-8.6-.43-2.76-.83-5.36-.91-6.17-.02-.19.12-.37.31-.39.2-.02.37.12.39.31.08.79.48,3.39.91,6.13.8,5.17,1.28,8.35,1.23,8.78-.02.18-.17.31-.35.31Z"/>
            <path class="cls-1" d="m106.1,265s0,0-.01,0c-.19,0-.35-.17-.34-.36.04-1.33-.73-14.2-.83-15.17-.02-.19.12-.37.31-.39.19-.02.37.12.39.31.11,1.03.88,13.85.84,15.27,0,.19-.16.34-.35.34Z"/>
            <path class="cls-1" d="m111.49,264.61c-.18,0-.33-.13-.35-.31-.05-.44.43-3.61,1.23-8.79.42-2.75.82-5.34.91-6.13.02-.19.19-.33.39-.31.19.02.33.19.31.39-.08.81-.49,3.41-.91,6.17-.53,3.45-1.26,8.17-1.23,8.6.01.19-.13.36-.32.38-.01,0-.02,0-.03,0Z"/>
            <path class="cls-1" d="m109.5,258.74c-1.03,0-2.26-.17-3.54-.71-.18-.08-.26-.28-.19-.46.08-.18.28-.26.46-.19,3.12,1.32,5.94.23,5.97.21.18-.07.38.02.46.2.07.18-.02.38-.19.46-.08.03-1.26.49-2.96.49Z"/>
            <path class="cls-1" d="m128.35,258.74c-1.7,0-2.88-.46-2.96-.49-.18-.07-.27-.28-.19-.46.07-.18.28-.27.46-.2.03.01,2.84,1.1,5.97-.21.18-.08.39,0,.46.19.08.18,0,.38-.19.46-1.28.54-2.51.71-3.54.71Z"/>
            <g>
              <path class="cls-9" d="m99.22,191.17c-.34.07-.93.02-1.32-.49-.39-.51-.2-1.07.13-1.41.27-.32.98-.91,1.47-1.26.51-.39.96-.77,1.26-.86.45-.17.9.22,1.04.44.16.28-.03.54-.03.54l-2.55,3.03Z"/>
              <path class="cls-9" d="m102.08,187.95c-.61.29-2.59,2.81-2.84,3.28-.15.28.12,1.03.74,1.3.38.15.86.1,1.25-.26.33-.34,1.76-2.58,1.91-3.36.13-.64-.86-1.06-1.07-.97Z"/>
              <path class="cls-9" d="m104.46,190.46s.24-.84.02-1.11c-.28-.35-.87-.56-1.18-.16-.85,1.13-2.07,3.18-2.04,3.8.03.52.69.92,1.15.81.63-.13,1.23-.98,1.23-.98l.83-2.36Z"/>
              <path class="cls-9" d="m106.01,192.74c-.68.81-1.13,1.09-1.35,1.12-.67.11-1.08-.46-1.03-.84.1-.86.38-2.08.69-2.38.18-.16.74-.83.96-.77.18.04.66.19.65.6.04.22-.11.6-.26.98-.19.46-.12,1.1-.12,1.1l.46.19Z"/>
            </g>
            <g>
              <path class="cls-1" d="m98.96,191.55c-.44,0-.96-.17-1.33-.65-.51-.66-.29-1.41.15-1.86.3-.35,1.07-.98,1.52-1.3l.21-.16c.47-.36.84-.65,1.16-.75.59-.23,1.21.22,1.44.59.21.39.07.77-.05.93-.11.16-.33.19-.49.08-.16-.11-.19-.33-.08-.49,0,0,.05-.09,0-.17-.07-.11-.37-.37-.6-.28-.22.07-.59.36-.96.64l-.22.17c-.5.36-1.18.92-1.42,1.21-.09.1-.46.52-.12.96.36.47.9.37.97.36.19-.04.38.08.42.27s-.08.38-.27.42c-.1.02-.22.03-.34.03Z"/>
              <path class="cls-1" d="m100.39,192.96c-.18,0-.36-.03-.54-.1-.43-.19-.77-.56-.92-1.01-.11-.3-.11-.58,0-.78.25-.47,2.28-3.1,3-3.44.33-.15.85.11,1.11.31.37.29.53.67.45,1.05-.18.89-1.67,3.19-2.01,3.54-.32.29-.71.44-1.09.44Zm1.8-4.67c-.54.33-2.38,2.62-2.63,3.11-.03.12.14.62.57.82.28.11.62.04.87-.2.29-.3,1.67-2.48,1.81-3.17.01-.05.01-.13-.08-.24-.15-.18-.42-.3-.54-.32Z"/>
              <path class="cls-1" d="m102.25,194.17c-.28,0-.58-.1-.83-.29-.3-.22-.49-.54-.51-.87-.04-.87,1.53-3.26,2.11-4.03.18-.23.43-.35.72-.36h0c.37,0,.76.2,1.01.51.3.36.13,1.11.04,1.42-.05.19-.25.3-.43.24-.19-.05-.3-.25-.24-.43.09-.31.13-.7.08-.8-.11-.13-.3-.24-.46-.24h0c-.1,0-.14.04-.17.08-.97,1.3-1.99,3.14-1.97,3.57,0,.12.09.24.22.34.16.12.36.17.5.14.37-.08.82-.56,1.02-.84.11-.16.33-.2.49-.08.16.11.2.33.09.49-.07.1-.7.97-1.44,1.12-.07.02-.15.03-.24.03Z"/>
              <path class="cls-1" d="m104.5,194.23c-.34,0-.63-.12-.86-.34-.26-.25-.4-.6-.36-.91.06-.57.33-2.14.79-2.59.06-.05.12-.11.19-.19.45-.47.77-.76,1.11-.66.56.13.9.47.9.91.04.31-.12.71-.28,1.13-.13.31-.12.79-.1.94,0,.05,0,.1-.02.14.12-.04.25-.03.35.06.15.12.17.35.04.49-.73.87-1.27.95-1.53.99-.09.01-.17.02-.25.02Zm.76-3.99c-.13.08-.38.34-.49.45-.09.1-.17.18-.22.22-.16.16-.45,1.14-.57,2.15,0,.08.04.21.15.32.09.08.24.18.48.14h.04c.19-.03.49-.08.98-.62-.01,0-.03,0-.04,0-.19.01-.37-.12-.39-.31,0-.08-.07-.75.15-1.28.1-.24.26-.66.24-.79,0-.02,0-.04,0-.06,0-.1-.18-.19-.32-.23Zm-.06-.02s0,0,.01,0c0,0,0,0-.01,0Z"/>
            </g>
            <g>
              <path class="cls-9" d="m135.65,192.98c.33.12.91.16,1.38-.29.46-.45.36-1.03.08-1.41-.22-.35-.84-1.04-1.27-1.46-.45-.46-.83-.9-1.12-1.04-.41-.24-.92.08-1.09.28-.2.26-.05.54-.05.54l2.07,3.38Z"/>
              <path class="cls-9" d="m133.31,189.36c.56.38,2.14,3.16,2.32,3.67.1.3-.27,1-.93,1.18-.4.09-.87-.03-1.2-.44-.27-.38-1.35-2.81-1.39-3.61-.04-.65,1.01-.92,1.2-.8Z"/>
              <path class="cls-9" d="m130.58,191.5s-.11-.87.14-1.1c.32-.3.95-.42,1.19.02.67,1.24,1.57,3.45,1.45,4.06-.11.51-.82.81-1.26.63-.6-.22-1.06-1.15-1.06-1.15l-.47-2.45Z"/>
              <path class="cls-9" d="m128.71,193.52c.55.9.95,1.24,1.17,1.31.64.21,1.13-.3,1.14-.68.03-.87-.07-2.12-.33-2.46-.16-.18-.61-.93-.83-.9-.18.02-.68.09-.73.49-.07.21.02.61.11,1.01.12.48-.04,1.11-.04,1.11l-.48.12Z"/>
            </g>
            <g>
              <path class="cls-1" d="m136.12,193.41c-.22,0-.42-.04-.59-.1-.18-.07-.27-.27-.2-.45.07-.18.27-.27.45-.2.06.02.58.2,1.01-.21.41-.39.11-.86.04-.95-.21-.34-.8-1-1.23-1.42l-.2-.21c-.32-.33-.64-.67-.83-.76-.23-.13-.57.08-.67.19-.05.06,0,.15,0,.15.09.17.02.38-.15.47-.17.09-.38.02-.47-.15-.09-.18-.18-.57.08-.91.29-.35.98-.7,1.55-.37.28.14.6.47,1.01.9l.19.2c.39.38,1.06,1.11,1.31,1.52.36.49.46,1.27-.14,1.85-.36.34-.78.46-1.16.46Z"/>
              <path class="cls-1" d="m134.45,194.59c-.47,0-.91-.21-1.22-.6-.29-.41-1.43-2.9-1.47-3.82-.02-.38.2-.74.6-.96.28-.16.84-.34,1.14-.14h0c.66.45,2.28,3.34,2.45,3.85.07.22.03.49-.12.77-.22.42-.61.74-1.05.86-.11.03-.23.04-.34.04Zm-1.3-4.9c-.12,0-.41.08-.58.23-.1.1-.11.17-.11.22.03.71,1.07,3.07,1.32,3.42.21.26.53.38.84.3.44-.12.69-.59.67-.73-.18-.51-1.65-3.04-2.14-3.46Zm.03,0h0,0Z"/>
              <path class="cls-1" d="m132.4,195.51c-.15,0-.3-.03-.42-.08-.7-.26-1.19-1.21-1.25-1.32-.09-.17-.02-.38.16-.47.17-.09.38-.02.47.16.16.31.53.86.87.98.14.06.35.03.52-.06.15-.08.25-.19.27-.31.08-.42-.65-2.39-1.42-3.83-.02-.03-.06-.08-.15-.1-.15-.02-.36.05-.49.17-.06.08-.08.47-.04.8.02.19-.11.37-.3.39-.19.02-.37-.11-.39-.3-.04-.31-.09-1.08.26-1.4.29-.27.71-.41,1.08-.35.29.04.52.21.66.45.46.86,1.66,3.45,1.49,4.31-.07.33-.3.61-.63.79-.21.11-.45.17-.68.17Z"/>
              <path class="cls-1" d="m130.17,195.23c-.13,0-.27-.02-.41-.07-.38-.12-.85-.63-1.36-1.46-.1-.17-.05-.38.12-.48.11-.07.24-.07.35-.01.04-.2.09-.57.02-.83-.1-.45-.2-.86-.11-1.17.07-.43.46-.71,1.05-.77.34-.05.61.29.98.82.06.08.11.16.15.2.48.63.41,2.68.41,2.7,0,.31-.2.63-.49.84-.21.15-.45.23-.71.23Zm-.9-1.49c.46.67.71.75.71.75.23.07.39,0,.49-.07.12-.09.19-.21.19-.29.04-1.02-.1-2.04-.25-2.23-.03-.04-.1-.13-.17-.23-.09-.13-.3-.42-.42-.52-.15.02-.34.08-.35.18,0,.02,0,.04-.01.06-.04.12.06.56.12.82.13.55-.03,1.2-.05,1.28-.03.13-.14.22-.26.25Zm.64-2.6s-.01,0-.02,0c0,0,.01,0,.02,0Z"/>
            </g>
            <path class="cls-1" d="m118.02,205.64c-2.18,0-3.84-.35-3.95-.37-.19-.04-.31-.23-.27-.42.04-.19.23-.31.42-.27.04,0,4.1.86,7.83-.12.19-.05.38.06.43.25.05.19-.06.38-.25.43-1.45.38-2.92.5-4.21.5Z"/>
            <path class="cls-15" d="m125.28,268.6c-.13,1.01-2.39,4.91-2.23,6.52.08.76,2.13,1.6,3.57,1.69,3.21.16,4.45-.44,5.42-.8,1.44-.56.56-2.85.2-7.5-.04-.36.77-8.83.77-8.83-2.03,1.52-5.75,2.01-8.03.42,0,0,.75,4.94.3,8.51Z"/>
            <path class="cls-15" d="m112.56,268.6c.13,1.01,2.39,4.91,2.23,6.52-.08.76-2.13,1.6-3.57,1.69-3.21.16-4.45-.44-5.42-.8-1.44-.56-.56-2.85-.2-7.5.04-.36-.77-8.83-.77-8.83,2.03,1.52,5.75,2.01,8.03.42,0,0-.75,4.94-.3,8.51Z"/>
            <path class="cls-1" d="m127.64,277.18c-.32,0-.66,0-1.03-.03-1.5-.08-3.79-.96-3.9-2-.11-1.09.72-2.95,1.44-4.59.38-.86.74-1.68.78-2.01h0c.43-3.48-.3-8.37-.3-8.41-.02-.14.04-.28.16-.35.12-.07.27-.07.39.01,2.15,1.51,5.74.99,7.62-.41.11-.08.26-.09.38-.02.12.07.19.2.18.34-.32,3.32-.78,8.4-.77,8.76.1,1.3.24,2.39.36,3.36.32,2.49.51,4-.79,4.5l-.23.09c-.85.33-1.98.76-4.3.76Zm-2-8.54c-.05.43-.4,1.21-.84,2.2-.62,1.41-1.48,3.33-1.39,4.24.04.42,1.73,1.29,3.24,1.37,2.89.14,4.13-.34,5.04-.69l.24-.09c.75-.29.64-1.36.34-3.75-.12-.97-.26-2.08-.37-3.39-.04-.32.46-5.64.7-8.16-1.99,1.14-4.98,1.5-7.17.4.19,1.51.56,5.08.21,7.88h0Z"/>
            <path class="cls-1" d="m130.98,273.28c-.08,0-.16-.03-.23-.08-1.46-1.24-3.83-1.05-5.29-.15-.17.1-.38.05-.48-.11-.1-.16-.05-.38.11-.48,1.93-1.2,4.56-1.11,6.11.21.15.13.17.35.04.49-.07.08-.17.12-.27.12Z"/>
            <path class="cls-1" d="m110.21,277.18c-2.33,0-3.45-.43-4.3-.76l-.23-.09c-1.3-.5-1.11-2.01-.79-4.5.12-.97.26-2.06.36-3.36.02-.36-.45-5.44-.77-8.77-.01-.14.06-.27.18-.34.12-.07.27-.06.38.02,1.88,1.41,5.47,1.92,7.62.41.12-.08.27-.08.39-.01.12.07.18.21.16.35,0,.05-.74,4.93-.3,8.41h0c.04.33.4,1.14.78,2,.73,1.64,1.55,3.5,1.44,4.59-.11,1.04-2.41,1.92-3.9,2-.37.02-.71.03-1.03.03Zm-4.96-16.82c.24,2.52.73,7.84.7,8.17-.1,1.3-.24,2.41-.37,3.38-.3,2.39-.41,3.46.34,3.76l.23.09c.91.35,2.15.83,5.04.69,1.51-.08,3.19-.95,3.24-1.37.09-.9-.76-2.83-1.39-4.24-.44-.99-.79-1.77-.84-2.2h0c-.35-2.8.02-6.37.21-7.88-2.19,1.1-5.18.74-7.17-.4Z"/>
            <path class="cls-1" d="m110.44,278.06c-1.13,0-2.18-.13-2.81-.23-.84-.12-1.49-.25-2.09-.51-1.36-.62-1.08-2.23-.92-3.2.03-.17.06-.33.07-.45.02-.19.19-.33.38-.31.19.02.33.19.31.38-.01.14-.04.31-.07.5-.18,1.08-.28,2.07.51,2.44.53.23,1.1.34,1.91.45.91.14,2.66.35,4.27.12,1.41-.2,2.78-.82,2.93-1.06.22-.84-.52-1.91-.52-1.92-.11-.16-.07-.38.09-.49.16-.11.38-.07.49.09.04.05.93,1.35.61,2.54-.22.74-2.36,1.38-3.5,1.54-.55.08-1.12.11-1.67.11Z"/>
            <path class="cls-1" d="m106.86,273.28c-.1,0-.2-.04-.27-.12-.13-.15-.11-.37.04-.49,1.55-1.32,4.18-1.41,6.11-.21.16.1.22.32.11.48-.1.16-.32.22-.48.11-1.45-.9-3.83-1.09-5.29.15-.07.06-.15.08-.23.08Z"/>
            <path class="cls-1" d="m110.68,187.6c-.18,0-.34-.14-.35-.33-.01-.19.14-.36.33-.37.03,0,2.87-.17,5.68-.87.19-.05.38.07.43.26.05.19-.07.38-.26.43-2.87.72-5.78.89-5.81.89,0,0-.01,0-.02,0Z"/>
            <path class="cls-1" d="m114.4,188.71c-1.73,0-3.25-.26-3.33-.28-.19-.03-.32-.22-.29-.41.03-.19.21-.32.41-.29.03,0,2.53.43,4.69.19.19-.02.37.12.39.31.02.19-.12.37-.31.39-.51.06-1.04.08-1.55.08Z"/>
            <path class="cls-1" d="m113.88,190.22s-.03,0-.05,0c-1.49-.19-3.32-.88-3.4-.91-.18-.07-.27-.27-.2-.45.07-.18.27-.27.45-.2.02,0,1.83.69,3.24.87.19.02.33.2.3.39-.02.18-.17.31-.35.31Z"/>
            <path class="cls-1" d="m137.93,185.37s-.09,0-.13-.02c-.18-.07-.27-.27-.2-.46,0,0,1.72-4.38,3.32-8.48.07-.18.27-.27.45-.2.18.07.27.27.2.45-1.6,4.11-3.32,8.49-3.32,8.49-.05.14-.19.22-.33.22Z"/>
            <path class="cls-1" d="m140.55,187.46c-.14,0-.27-.08-.33-.22-.07-.18.02-.38.2-.46.04-.02,4.49-1.78,6.83-4.24.13-.14.36-.15.5-.01.14.13.15.36.01.5-2.45,2.58-6.89,4.34-7.08,4.41-.04.02-.09.02-.13.02Z"/>
            <path class="cls-1" d="m140.29,186.46c-.11,0-.22-.05-.29-.16-.11-.16-.06-.38.1-.49.03-.02,3-2.01,4.54-3.53.14-.14.36-.13.5,0,.14.14.13.36,0,.5-1.6,1.56-4.52,3.53-4.64,3.61-.06.04-.13.06-.2.06Z"/>
            <path class="cls-1" d="m139.43,185.18c-.08,0-.16-.03-.22-.08-.15-.12-.17-.34-.05-.49.85-1.05,1.33-2.87,1.68-4.19.18-.67.32-1.21.47-1.54.08-.18.29-.25.47-.17.18.08.25.29.17.47-.13.28-.27.81-.43,1.42-.37,1.39-.87,3.29-1.81,4.46-.07.09-.17.13-.27.13Z"/>
            <path class="cls-1" d="m111.25,181.39c-.16,0-.3-.11-.34-.27-.05-.19.07-.38.25-.43.08-.02,1.97-.49,3.58-.62.19-.01.36.13.38.32.02.19-.13.36-.32.38-1.55.12-3.44.6-3.46.6-.03,0-.06.01-.09.01Z"/>
            <path class="cls-1" d="m114.5,182.42c-.16,0-.31-.11-.34-.27-.04-.19.08-.38.27-.42.01,0,1.35-.31,2.21-.84.17-.1.38-.05.48.11.1.16.05.38-.11.48-.96.59-2.36.91-2.42.92-.03,0-.05,0-.08,0Z"/>
            <path class="cls-1" d="m117.06,183.14c-.16,0-.31-.12-.34-.28-.04-.19.08-.38.27-.41,0,0,1.02-.21,1.58-.65.15-.12.37-.09.49.06.12.15.09.37-.06.49-.7.54-1.82.77-1.87.78-.02,0-.05,0-.07,0Z"/>
            <path class="cls-1" d="m119.75,183.84c-.12,0-.24-.06-.31-.18-.1-.17-.04-.38.13-.48,0,0,.43-.25.98-.67.15-.12.37-.09.49.06.12.15.09.37-.06.49-.59.46-1.04.72-1.06.73-.05.03-.11.05-.17.05Z"/>
            <path class="cls-1" d="m126.25,185.28c-.15,0-.28-.09-.33-.24-.06-.18.04-.38.22-.44l.63-.21c.18-.06.38.04.44.22.06.18-.04.38-.22.44l-.63.21s-.07.02-.11.02Z"/>
            <path class="cls-1" d="m122.14,184.37c-.12,0-.23-.06-.3-.17-.1-.16-.05-.38.11-.48l.86-.53c.16-.1.38-.05.48.11.1.16.05.38-.11.48l-.86.53c-.06.04-.12.05-.18.05Z"/>
            <path class="cls-1" d="m124.34,184.86c-.09,0-.18-.04-.25-.11-.13-.14-.13-.36,0-.5l.4-.38c.14-.14.36-.13.5,0,.13.14.13.36,0,.5l-.4.38c-.07.07-.16.1-.24.1Z"/>
            <path class="cls-1" d="m121.57,188.32c-.08,0-.16-.03-.23-.08-.15-.12-.17-.35-.04-.49.15-.18.18-.3.16-.35-.03-.1-.25-.2-.38-.24-.13-.03-.23-.13-.26-.27-.03-.13.02-.27.12-.35.22-.17.47-.43.43-.67-.04-.32-.54-.61-.71-.68-.18-.08-.26-.28-.18-.46.08-.18.28-.26.46-.18.1.04,1.02.46,1.13,1.23.04.32-.06.63-.3.94.15.11.29.26.36.46.11.32,0,.67-.29,1.03-.07.08-.17.13-.27.13Z"/>
            <path class="cls-1" d="m117.15,193.71c-.17,0-.32-.12-.35-.3-.03-.19.1-.37.29-.4.15-.02.2-.08.23-.12.11-.17.06-.48.03-.58-.04-.15.02-.31.15-.39.15-.1.34-.25.35-.42.01-.16-.13-.33-.17-.37-.14-.13-.16-.35-.03-.5.13-.14.35-.16.5-.03.05.04.45.42.4.95-.02.3-.18.58-.48.81.03.24.02.6-.17.9-.11.17-.32.38-.71.44-.02,0-.04,0-.05,0Z"/>
            <path class="cls-1" d="m108.76,184.73c-.17,0-.32-.12-.35-.3-.03-.19.1-.37.29-.4.15-.02.2-.08.23-.12.11-.17.06-.48.03-.58-.04-.15.02-.31.15-.39.15-.1.33-.25.35-.41.02-.19-.17-.37-.17-.37-.14-.13-.15-.35-.02-.49.13-.14.35-.15.49-.03.05.04.45.42.4.95-.02.3-.18.58-.48.81.03.24.02.6-.17.9-.11.17-.32.38-.71.43-.02,0-.04,0-.05,0Z"/>
            <path class="cls-1" d="m127,189.43c-.12,0-.23-.06-.3-.16-.1-.16-.06-.38.11-.48.15-.1.33-.25.35-.41.02-.19-.17-.37-.17-.37-.14-.13-.15-.35-.02-.49.13-.14.35-.15.49-.03.05.04.45.42.4.95-.03.37-.26.69-.67.95-.06.04-.12.06-.19.06Z"/>
          </g>
          <g>
            <path class="cls-1" d="m108,143.75c-.08,0-.16-.03-.22-.08l-2.41-1.98c-.15-.12-.17-.34-.05-.49.12-.15.34-.17.49-.05l2.41,1.98c.15.12.17.34.05.49-.07.08-.17.13-.27.13Z"/>
            <path class="cls-1" d="m110.49,142.03c-.12,0-.23-.06-.3-.16l-1.8-2.83c-.1-.16-.06-.38.11-.48.16-.1.38-.06.48.11l1.8,2.83c.1.16.06.38-.11.48-.06.04-.12.05-.19.05Z"/>
            <path class="cls-1" d="m113.14,140.73c-.15,0-.29-.1-.33-.24l-.87-2.72c-.06-.18.04-.38.23-.44.19-.06.38.04.44.23l.87,2.72c.06.18-.04.38-.23.44-.04.01-.07.02-.11.02Z"/>
          </g>
        </g>
      </g>
    </g>
  </g>
</svg>