<?xml version="1.0" encoding="UTF-8"?>
<svg id="_レイヤー_2" data-name="レイヤー 2" xmlns="http://www.w3.org/2000/svg" viewBox="0 0 95.77 134.06">
  <defs>
    <style>
      .cls-1 {
        fill: #262626;
      }

      .cls-2 {
        fill: #fff;
      }

      .cls-3 {
        fill: #236177;
      }

      .cls-4 {
        fill: #4e8097;
      }

      .cls-5 {
        fill: none;
        stroke: #262626;
        stroke-linecap: round;
        stroke-linejoin: round;
      }

      .cls-6 {
        fill: #598a9e;
      }

      .cls-7 {
        fill: #ffd196;
      }

      .cls-8 {
        fill: #99664a;
      }

      .cls-9 {
        fill: #e88777;
      }

      .cls-10 {
        fill: #c48b68;
      }

      .cls-11 {
        fill: #d89e64;
      }

      .cls-12 {
        fill: #f4c076;
      }

      .cls-13 {
        fill: #e26666;
      }

      .cls-14 {
        fill: #b9c583;
      }

      .cls-15 {
        fill: #745c5f;
      }

      .cls-16 {
        fill: #fff400;
      }

      .cls-17 {
        fill: #ffd6ba;
      }

      .cls-18 {
        fill: #f5c78c;
      }

      .cls-19 {
        fill: #74b0cc;
      }
    </style>
  </defs>
  <g id="text">
    <g>
      <g>
        <g>
          <path class="cls-2" d="m59.38,14.47c-.6-5.97-4.65-11.3-10.73-13.23-4.79-1.52-9.78-.59-13.6,2.09C31.22.65,26.22-.26,21.43,1.29c-6.08,1.97-10.11,7.34-10.67,13.33C4.87,16.74.61,22.33.5,28.97c-.11,6.84,4.23,12.71,10.34,14.86.58,5.98,4.63,11.32,10.71,13.27,1.57.5,3.16.74,4.72.74,2.56,0,5.05-.65,7.26-1.83,1.96,3.01,4.95,6.13,9.07,6.59-1.05-.42-2.37-2.77-3.01-5.43,2.9.87,6.08.9,9.18-.09,6.08-1.95,10.12-7.32,10.69-13.3,5.96-2.12,10.22-7.78,10.3-14.4,0,0,0,0,0-.01.11-6.86-4.24-12.75-10.38-14.89Z"/>
          <path class="cls-5" d="m59.38,14.47c-.6-5.97-4.65-11.3-10.73-13.23-4.79-1.52-9.78-.59-13.6,2.09C31.22.65,26.22-.26,21.43,1.29c-6.08,1.97-10.11,7.34-10.67,13.33C4.87,16.74.61,22.33.5,28.97c-.11,6.84,4.23,12.71,10.34,14.86.58,5.98,4.63,11.32,10.71,13.27,1.57.5,3.16.74,4.72.74,2.56,0,5.05-.65,7.26-1.83,1.96,3.01,4.95,6.13,9.07,6.59-1.05-.42-2.37-2.77-3.01-5.43,2.9.87,6.08.9,9.18-.09,6.08-1.95,10.12-7.32,10.69-13.3,5.96-2.12,10.22-7.78,10.3-14.4,0,0,0,0,0-.01.11-6.86-4.24-12.75-10.38-14.89Z"/>
        </g>
        <g>
          <g>
            <path class="cls-1" d="m24.56,15.9h1.83c2.03,0,3.29,1.06,3.29,3.31s-1.26,3.36-3.22,3.36h-1.9v-6.67Zm1.75,5.6c1.24,0,2.02-.67,2.02-2.29s-.77-2.24-2.02-2.24h-.41v4.53h.41Z"/>
            <path class="cls-1" d="m30.99,15.9h1.33v6.67h-1.33v-6.67Z"/>
            <path class="cls-1" d="m35.08,20.14l-2-4.23h1.41l.67,1.63c.19.5.37.96.58,1.48h.04c.21-.51.41-.98.59-1.48l.67-1.63h1.39l-2.01,4.23v2.44h-1.33v-2.44Z"/>
            <path class="cls-1" d="m39.46,16.35c.76-.06,2.24-.2,3.89-.33.93-.08,1.91-.14,2.55-.16v1.15c-.48,0-1.25,0-1.73.13-1.09.29-1.91,1.45-1.91,2.52,0,1.49,1.39,2.02,2.92,2.1l-.42,1.23c-1.89-.13-3.67-1.13-3.67-3.09,0-1.3.73-2.32,1.34-2.78-.85.09-2.68.29-3.73.51l-.12-1.23c.36,0,.71-.03.88-.05Zm5.88,2.76l-.68.31c-.22-.5-.41-.85-.7-1.25l.67-.28c.23.32.55.87.72,1.22Zm1.04-.44l-.67.32c-.24-.49-.45-.82-.74-1.22l.66-.31c.23.31.57.85.76,1.2Z"/>
          </g>
          <g>
            <path class="cls-1" d="m15.29,30.6v.72h-5.45v-.72h2.28v-3.1h-1.96v-.74h4.79v.74h-2.01v3.1h2.35Z"/>
            <path class="cls-1" d="m19.04,29.36c.43.86,1.18,1.43,2.36,1.66-.16.16-.37.47-.47.68-1.15-.29-1.88-.86-2.37-1.74-.35.74-1.04,1.39-2.36,1.79-.08-.19-.29-.5-.44-.66,1.33-.38,1.93-1.02,2.19-1.73h-2.05v-.74h2.22c.02-.19.02-.37.02-.55v-.41h-1.84v-.74h1.84v-.8h.77v.8h1.97v.74h-1.97v.41c0,.18,0,.36-.02.55h2.31v.74h-2.16Z"/>
            <path class="cls-1" d="m23.34,27.25c-.02.65-.07,1.99-.07,2.73,0,.61.36.8.83.8.99,0,1.62-.57,2.05-1.22l.55.66c-.38.58-1.24,1.38-2.6,1.38-.98,0-1.62-.43-1.62-1.46,0-.8.06-2.38.06-2.9,0-.28-.02-.57-.08-.81h.97c-.04.26-.07.57-.08.81Z"/>
            <path class="cls-1" d="m29.44,27.2c.29-.05.58-.12.81-.19l.02.7c-.28.07-.65.15-1.05.21-.29.84-.8,1.89-1.28,2.57l-.73-.37c.47-.59.96-1.47,1.22-2.12-.11,0-.21,0-.31,0-.25,0-.49,0-.75-.02l-.05-.7c.26.03.58.04.8.04.18,0,.36,0,.55-.02.08-.33.15-.69.16-1l.83.08c-.05.19-.13.5-.22.82Zm1.62,1.81c0,.17.02.46.04.76.52.19.94.49,1.24.77l-.4.64c-.21-.19-.48-.44-.81-.64v.06c0,.56-.31.99-1.16.99-.74,0-1.33-.33-1.33-.99,0-.59.49-1.04,1.33-1.04.14,0,.28.01.41.02-.02-.44-.05-.98-.07-1.34h.75c-.02.25,0,.5,0,.77Zm-1.2,1.89c.41,0,.54-.23.54-.56v-.12c-.16-.04-.32-.06-.49-.06-.35,0-.57.16-.57.37,0,.22.19.37.52.37Zm.79-3.19l.38-.59c.43.19,1.18.59,1.48.82l-.43.63c-.35-.28-1.03-.67-1.44-.85Z"/>
            <path class="cls-1" d="m35.34,27.01c-.04.18-.08.4-.13.62.2-.01.38-.02.5-.02.64,0,1.09.28,1.09,1.15,0,.71-.08,1.68-.34,2.2-.2.42-.53.55-.98.55-.23,0-.52-.04-.72-.08l-.13-.79c.23.07.58.13.73.13.2,0,.35-.06.45-.26.16-.34.25-1.07.25-1.66,0-.48-.21-.55-.58-.55-.1,0-.25.01-.42.02-.23.91-.67,2.33-1.22,3.21l-.78-.31c.58-.79,1-2,1.22-2.82-.22.02-.41.05-.52.06-.17.03-.49.07-.67.1l-.07-.82c.22.02.42,0,.64,0,.19,0,.47-.02.77-.05.08-.45.14-.89.13-1.27l.89.09c-.04.16-.08.35-.11.5Zm2.54.1l-.29.13c.36.56.81,1.56.98,2.09l-.76.35c-.16-.67-.58-1.72-1.01-2.25l.54-.23c-.12-.23-.27-.52-.41-.71l.47-.2c.15.22.37.6.48.82Zm.71-.28l-.47.2c-.13-.25-.32-.6-.49-.83l.48-.19c.16.23.38.61.48.82Z"/>
            <path class="cls-1" d="m40.1,28.99c.55-.4,1.14-.57,1.77-.57,1.05,0,1.66.65,1.66,1.37,0,1.09-.86,1.93-3.36,1.72l-.23-.79c1.8.25,2.75-.19,2.75-.95,0-.39-.37-.68-.89-.68-.68,0-1.29.25-1.67.71-.11.13-.17.23-.22.35l-.69-.17c.12-.59.26-1.76.3-2.51l.8.11c-.08.33-.19,1.06-.23,1.4Zm2.59-2.14l-.18.73c-.61-.08-1.94-.36-2.41-.48l.19-.72c.57.18,1.88.41,2.4.47Z"/>
            <path class="cls-1" d="m48.41,27.26c.44.32.94.72,1.2,1.03l-.63.4c-.09-.11-.22-.25-.36-.38-1.49.05-3.06.1-4.11.12l-.02-.64h.83c.11-.17.22-.35.32-.52h-1.36v-.62h2.29v-.51h.73v.51h2.29v.62h-1.19Zm.4,3.8c0,.34-.08.49-.33.58-.25.08-.6.09-1.09.09-.04-.17-.13-.41-.21-.57.29.02.67.02.76.01.11,0,.14-.03.14-.11v-.28h-2.27v.95h-.71v-3.08h3.71v2.41Zm-3-1.84v.29h2.27v-.29h-2.27Zm2.27,1.06v-.29h-2.27v.29h2.27Zm-1.54-3.03c-.13.17-.28.34-.41.5.58-.01,1.21-.02,1.84-.03-.13-.11-.26-.21-.39-.3l.29-.17h-1.32Z"/>
            <path class="cls-1" d="m50.7,27.05c.5-.04,1.49-.13,2.58-.23.62-.05,1.28-.09,1.7-.1v.77c-.32,0-.83,0-1.15.08-.73.19-1.27.97-1.27,1.68,0,.98.92,1.34,1.94,1.4l-.28.82c-1.25-.08-2.44-.76-2.44-2.06,0-.86.49-1.55.89-1.85-.56.06-1.79.19-2.48.34l-.08-.82c.24,0,.47-.02.59-.03Z"/>
            <path class="cls-1" d="m56.88,26.67c.32,0,1.6-.02,1.94-.05.25-.02.38-.04.46-.07l.39.53c-.14.09-.28.17-.42.28-.32.23-.95.76-1.33,1.06.2-.05.38-.07.57-.07,1.02,0,1.79.64,1.79,1.51,0,.95-.72,1.7-2.17,1.7-.83,0-1.46-.38-1.46-.98,0-.49.44-.94,1.07-.94.74,0,1.19.46,1.28,1.03.33-.17.5-.45.5-.82,0-.54-.54-.91-1.25-.91-.92,0-1.52.49-2.16,1.22l-.55-.56c.43-.34,1.15-.95,1.5-1.25.34-.28.96-.78,1.25-1.04-.31,0-1.13.04-1.45.06-.16.01-.35.03-.49.05l-.02-.78c.17.02.38.03.55.03Zm1.08,4.2c.13,0,.24,0,.35-.02-.04-.39-.26-.64-.58-.64-.23,0-.37.14-.37.29,0,.22.25.37.61.37Z"/>
            <path class="cls-1" d="m17.67,39.76c-.11-.18-.31-.45-.51-.7v2.26h-.7v-2.22c-.25.53-.53,1.04-.83,1.39-.07-.2-.23-.5-.35-.68.38-.4.77-1.07,1.03-1.66h-.88v-.68h1.03v-.73c-.29.05-.59.1-.87.14-.03-.16-.12-.4-.2-.55.79-.13,1.67-.34,2.19-.58l.5.55c-.28.11-.59.2-.92.29v.89h.91v.68h-.91v.14c.21.19.79.78.94.93l-.43.53Zm2.56,1.58c-.02-.16-.05-.35-.1-.55-.89.13-1.81.26-2.51.34l-.17-.75c.16-.01.35-.03.56-.05.32-1.25.64-3.03.78-4.46l.82.13c-.2,1.42-.52,3.05-.85,4.26.38-.04.79-.08,1.2-.13-.13-.43-.29-.89-.46-1.28l.68-.19c.36.79.71,1.79.8,2.45l-.76.24Z"/>
            <path class="cls-1" d="m24.42,41.09l-.45-.71c.23-.02.4-.06.56-.1.77-.18,1.37-.73,1.37-1.61,0-.83-.45-1.45-1.26-1.58-.08.51-.19,1.06-.36,1.63-.36,1.21-.88,1.95-1.53,1.95s-1.22-.73-1.22-1.75c0-1.38,1.2-2.57,2.75-2.57s2.42,1.03,2.42,2.34-.77,2.16-2.28,2.39Zm-1.65-1.34c.25,0,.49-.38.73-1.19.14-.44.25-.95.32-1.45-.99.2-1.52,1.08-1.52,1.74,0,.61.24.9.47.9Z"/>
            <path class="cls-1" d="m32.28,37.28c-.43.7-1.2,1.66-2.04,2.34.34.34.7.73.93,1.01l-.7.56c-.25-.34-.76-.9-1.14-1.3-.35-.35-.96-.89-1.32-1.15l.64-.51c.24.18.64.5,1.01.83.68-.54,1.24-1.24,1.52-1.73h-3.17c-.24,0-.56.03-.69.04v-.84c.16.02.49.05.69.05h3.33c.23,0,.43-.02.56-.07l.6.49c-.08.1-.16.17-.2.25Z"/>
            <path class="cls-1" d="m35.44,37.4c.62-.38,1.3-.98,1.69-1.46l.65.62c-.46.45-1.03.92-1.61,1.3v2.42c0,.26.01.64.05.79h-.95c.02-.14.04-.52.04-.79v-1.92c-.62.32-1.38.65-2.12.86l-.38-.76c1.07-.28,1.95-.67,2.62-1.07Z"/>
            <path class="cls-1" d="m38.96,40.26l-.65-.44c.4-.38.88-1.04,1.13-1.55l.68.32c-.28.53-.83,1.32-1.16,1.67Zm2.51-3.73v.48h1.39c.17,0,.43-.02.59-.04v.79c-.19-.01-.42-.02-.59-.02h-1.4v2.79c0,.35-.2.56-.63.56-.32,0-.67-.01-.97-.05l-.08-.74c.26.05.52.07.67.07s.21-.06.22-.22c0-.22,0-2.12,0-2.4h0s-1.52,0-1.52,0c-.18,0-.41,0-.58.02v-.79c.18.02.39.04.58.04h1.52v-.48c0-.16-.03-.42-.05-.52h.89c-.02.08-.05.37-.05.52Zm2.24,3.3l-.7.38c-.26-.51-.68-1.24-.98-1.61l.65-.35c.31.38.79,1.14,1.03,1.58Z"/>
            <path class="cls-1" d="m45.42,38.07h3.22c.28,0,.55-.02.7-.04v.94c-.14,0-.45-.03-.7-.03h-3.22c-.34,0-.74.01-.97.03v-.94c.22.02.65.04.97.04Z"/>
            <path class="cls-1" d="m52.39,36.95c-.19.59-.68,2.11-.98,2.91.73-.07,1.58-.17,2.19-.24-.21-.43-.43-.83-.63-1.1l.75-.31c.43.65,1.04,1.82,1.31,2.49l-.81.36c-.08-.2-.17-.45-.29-.71-.97.11-2.79.31-3.54.38-.15.02-.37.05-.56.07l-.14-.88c.2,0,.46,0,.66,0,.05,0,.11,0,.16,0,.35-.89.86-2.53,1.04-3.15.08-.31.12-.49.14-.7l.95.2c-.08.18-.17.4-.26.67Z"/>
          </g>
        </g>
      </g>
      <g>
        <g>
          <path class="cls-2" d="m37.66,65.04l-.06.75c-.05.69-.41,1.24-.86,1.32l-.49.09.49.09c.45.08.81.63.86,1.32l.06.75.06-.75c.05-.69.41-1.24.87-1.32l.49-.09-.49-.09c-.45-.08-.81-.63-.87-1.32l-.06-.75Z"/>
          <path class="cls-2" d="m11.06,76.32l-.03.44c-.03.4-.24.72-.5.77l-.29.05.29.05c.26.05.47.36.5.76l.03.44.03-.44c.03-.4.24-.72.5-.76l.29-.05-.29-.05c-.26-.05-.47-.36-.5-.77l-.03-.44Z"/>
          <path class="cls-16" d="m59.98,53.35l-.03.41c-.03.38-.22.67-.47.72l-.27.05.27.05c.25.04.44.34.47.71l.03.41.03-.41c.03-.37.22-.67.47-.71l.27-.05-.27-.05c-.25-.04-.44-.34-.47-.72l-.03-.41Z"/>
          <path class="cls-2" d="m37.15,74.77l-.03.41c-.03.38-.22.67-.47.72l-.27.05.27.05c.25.04.44.34.47.72l.03.41.03-.41c.03-.37.22-.67.47-.72l.27-.05-.27-.05c-.25-.04-.44-.34-.47-.72l-.03-.41Z"/>
          <path class="cls-2" d="m14.94,66.4l-.05.74c-.05.68-.4,1.21-.84,1.29l-.48.09.48.09c.44.08.79.61.84,1.29l.05.74.06-.74c.05-.67.4-1.21.85-1.29l.48-.09-.48-.09c-.44-.08-.79-.61-.85-1.29l-.06-.74Z"/>
          <path class="cls-16" d="m49.15,66.96l-.05.74c-.05.68-.4,1.21-.84,1.29l-.48.09.48.09c.44.08.79.61.84,1.29l.05.74.06-.74c.05-.67.4-1.21.85-1.29l.48-.09-.48-.09c-.44-.08-.79-.61-.85-1.29l-.06-.74Z"/>
          <path class="cls-16" d="m69.17,48.79l-.06.74c-.05.67-.4,1.21-.85,1.29l-.48.08.48.09c.44.08.79.61.85,1.29l.06.74.06-.74c.05-.68.4-1.21.84-1.29l.48-.09-.48-.08c-.44-.08-.79-.61-.84-1.29l-.06-.74Z"/>
        </g>
        <g>
          <g>
            <path class="cls-8" d="m71.32,104.73l-.45-1.5c.2-.05.41-.11.62-.2.06-.17.16-.5.28-.92l.52,1.72c-.18-.03-.35-.05-.53-.07-.25.1-.36.52-.44.97Z"/>
            <path class="cls-8" d="m80.94,132.62c.09.31-.08.64-.4.74-.06.02-.11.03-.17.03-.25,0-.49-.17-.57-.42l-6.7-22.3c.21-.68.41-1.37.62-2.05l7.22,24.01Z"/>
            <path class="cls-8" d="m67.81,88.77l1.48,4.92c-.22.74-.41,1.48-.57,2.23l-2.39-7.97c.49.27,1.01.56,1.48.82Z"/>
            <path class="cls-10" d="m63.19,91.18c.04-.23.07-.46.11-.7l.94-3.14c.09-.14.18-.28.29-.41.11.06.46.26.92.51l-3.36,11.18c.26-2.55.61-5.07,1.1-7.45Z"/>
            <path class="cls-10" d="m62.08,98.77h6.07c-.03.23-.07.47-.1.7h-6.04c.02-.23.05-.47.07-.7Z"/>
            <path class="cls-10" d="m63.92,91.94h-.51v-.7h6.33c.11.23.11.46.06.7h-5.88Z"/>
            <path class="cls-10" d="m50.52,133.01l6.86-22.82c.04.14.11.25.24.32.12.03.46.04.89.04l-.02.08c-.26-.01-.52-.04-.78-.09.01.52-.06,1.05-.21,1.55-.06.19-.13.39-.13.59,0,.14.05.27.09.4.05.16.1.32.15.48l-5.95,19.79c-.08.26-.31.42-.57.42-.06,0-.11,0-.17-.03-.31-.09-.49-.42-.4-.74Z"/>
            <path class="cls-4" d="m80.19,47.04c.19-.03.36-.18.41-.37.26.1.54.14.81.14.12,0,.26-.02.33-.12.07.27.13.54.11.82-.01.16-.06.32-.11.48-.03.08-.05.17-.08.25.18-.19.42-.32.75-.35-.03.35.26,1.67.33.77.76-.18.94-1.23,1.33-1.75.2-.43.99.94,1.16,1.49.11.28.29,0,.46,0-.03.79.47,1.91.11,2.64q.06,0,.12,0c-.08.43.17,1.23.05,1.5.2-.08.08.23.19.27.28-.08.04.55.2.52-.35.31.66,5.71-.28,5.7-.54,2.62-.52,5.29-.66,7.98-.4-1.71.04-3.15-.52-4.83-.16,1.52-.31-1.67-.43-1.82-.59.09-.37,1.63-.51,2.08-.26.05-.24-.1-.22-.3-.34.58-.03,1.7-.23,2.5.04-.3.06-.5-.05-.74.07,1.71-.64,3.02-.37.26-.28.03-.06.77-.21,1.03-.07.16-.15-.34-.22-.19-.02.16-.67-2.25-.56-4.04-.03-3.1-.14-6.13-.81-9.08-.04-.74-.22-1.95-.02-2.84-.02.03-.04.06-.06.09-.18.23-.24.12-.43-.03-.17-.13-.37-.24-.58-.3-.1-.58.17-1.2-.03-1.75Z"/>
            <polygon class="cls-13" points="82.69 93.83 80.42 86.31 78.16 93.83 82.69 93.83"/>
            <path class="cls-17" d="m57.36,112.67c0-.2.07-.4.13-.59.15-.5.23-1.03.21-1.55.26.05.52.08.78.09.59.02,1.19-.05,1.77-.18.12-.03.25-.06.37-.08.03,0,.06,0,.08,0,.04.02.05.07.05.12.02.18.08.35.19.5.09.12.22.24.22.39,0,.1-.06.19-.1.27-.18.38-.14.82-.17,1.24-.01.19-.03.68-.2.78-.21.12-2.49.17-2.92.09-.04,0-.09-.02-.12-.05-.02-.02-.03-.05-.04-.08,0-.02-.01-.04-.02-.06-.05-.16-.1-.32-.15-.48-.04-.13-.08-.26-.09-.4Z"/>
            <path class="cls-14" d="m61.33,111.05s.02-.07.05-.09c.04-.03.09-.02.14-.01.41.07.82.14,1.23.21.28.05.56.09.83.18.67.22,1.23.67,1.77,1.11.16.13.33.27.43.45.09.15.13.33.17.5.01.05.02.1,0,.15-.03.05-.09.08-.14.1-.25.09-.53.11-.79.13-.34.02-.68.03-1.03.03-.32,0-.64-.02-.95-.04-.67-.03-1.33-.05-2-.1-.18-.01-.19,0-.2-.15,0-.16.05-.34.07-.49.05-.31.1-.63.16-.94.07-.35.16-.69.27-1.03Z"/>
            <path class="cls-17" d="m51.44,83.95c-.09.1-.18.2-.25.31-.41.59-.35,1.37-.54,2.06-.11.38-.29.74-.51,1.07-.15.22-.31.43-.51.59-.2.16-.44.28-.67.39-.08.04-.17.08-.27.09-.12,0-.23-.07-.33-.14-.24-.18-.47-.38-.67-.59-.13-.14-.26-.29-.32-.48-.1-.29-.02-.62.06-.92.05-.19.1-.39.21-.55.13-.2.33-.35.5-.52.31-.31.53-.71.84-1.02.17-.17.37-.32.5-.52.06-.1.1-.21.15-.32.14-.34.33-.66.55-.95.03-.04.06-.08.1-.09.05-.02.11,0,.17,0,.13.03.26.07.39.1.17.05.35.09.51.18.23.13.44.35.52.6.09.28-.23.49-.41.69Z"/>
            <path class="cls-9" d="m64.62,66.09c.21-.14.39-.35.61-.47,1.21-.64,1.99-1.13,2.99-1.85,1.05-.76,2.2-1.38,3.21-2.19.15-.12.3-.24.42-.39.15-.19.26-.41.36-.63.27-.59,1.11-1.67.94-1.88-.16-.2.29-.8.58-1.2.16-.23.35-.44.56-.63.18-.16.36-.15.57-.25-.03.26.03.53.15.76.1.2.43.67.45.73.09.28.3.81.57,1.01.02.03.03.05.04.07.02.04.39.33.41.45.02.12-.03.25-.09.36-.11.23-.22.47-.37.68-.09.12-.19.24-.27.37-.05.1-.09.2-.16.29-.12.15-.31.24-.47.33-.2.11-.36.24-.44.45-.29.75-.38.81-.58,1.25-.07.15-.36.56-.48.67-.05.05-6.01,4.76-6.1,4.83-.18.14-.36.28-.55.41-.44-1.01-1.11-2.05-2.11-3.22-.08.02-.16.04-.24.06Z"/>
            <path class="cls-17" d="m63.66,66.73c.04.15.1.31.09.47,0,.05-.01.09-.03.14-.08.2-.21.37-.38.51-.04.03-.09.06-.13.1-.31.21-.69.29-1.07.31-.1,0-.19,0-.29,0-.04,0-.07-.02-.11-.03-.19-.05-.37-.13-.55-.22-.05-.04-.1-.07-.14-.11-.28-.23-.56-.46-.84-.69-.07-.05-.13-.11-.15-.2-.02-.08.02-.16.05-.23.23-.55.24-1.19.03-1.75-.04-.11-.09-.23-.06-.35.02-.07.06-.13.1-.19.16-.24.09-.56.15-.84.02-.12.22-.2.17-.31-.04-.1-.13-.18-.2-.27-.14-.2-.15-.47-.09-.71.03-.12.08-.25.18-.33.18-.15.45-.11.68-.04.23.06.49.13.69,0,.14-.09.21-.25.35-.35.08-.06.17-.09.25-.13.37-.19.59-.58.7-.98.11-.4.13-.81.2-1.22.02-.1.05-.22.15-.26.09-.04.2.01.29.06.2.11.36.18.45.39.1.24.23.47.33.71.13.31.17.64.26.96.1.32.28.64.59.77.12.05.28.11.28.24,0,.05-.03.1-.05.15-.27.51-.24,1.11-.18,1.68.03.25.12.61-.03.81-.07.1-.12.23-.23.29-.31.19-.77.2-1.12.32-.06.02-.13.04-.17.1-.03.03-.04.08-.05.12-.05.21-.07.43-.07.64-.12.11-.12.29-.08.45Z"/>
            <path class="cls-9" d="m49.97,81.81c.07-.23.15-.46.24-.68.12-.29.32-.62.63-.62.09,0,.19.02.28-.02.05-.03.08-.07.11-.12.32-.5,1.34-1.83,1.4-2.08.44-1.62.9-3.25,1.39-4.85.16-.51.31-1.03.51-1.52.1-.25.66-1.88.92-2.41.26-.54.69-1.03,1.27-1.19,1.12-.3,2.12-.66,3.09-1.28.05-.03.11-.07.17-.06.06.01.11.07.15.12.29.36.67.68,1.09.9.18.09.36.17.55.22.03,0,.07.02.11.03.24.05.55.05.76.01.22-.04.41-.18.6-.32.04-.03.09-.06.13-.1.18-.13.32-.3.38-.51.01-.04.02-.09.03-.14.02-.16-.05-.31-.09-.47-.04-.15-.04-.34.07-.45.12.04.23.04.35.03,1.11,1.14,1.43,2.93,1.77,4.44-1.81,0-3.49.65-5.27.88-.07-.64-.69-2.09-.74-2.21-.04-.09-.64-1.54-.89-1.64-1.35.26-.05,2.93.22,3.79-.18.12.02.48.05.66-.75.35-.52,1.45-.56,2.33-.03.16-.04.33-.07.5-.09.36-.3.63-.76.72,0,0,0,0-.01,0-.02,0-.03,0-.05,0-.06-.08-.11-.15-.17-.23-.32-.44-.15-1.11-.22-1.65-.45.64-.68,1.41-1.01,2.12-.22.48-.45,1.11-.65,1.6-.42.98-.63,1.39-1.46,2.66-.32.49-.66.91-.96,1.42-.01.03-.03.05-.02.08,0,.04.05.06.08.08.08.07.08.2.03.3-.05.1-.81,1.08-1.26,1.51-.38-.72-1.09-1.23-1.89-1.37-.09-.02-.19-.03-.26-.1-.09-.1-.07-.26-.03-.39Z"/>
            <path class="cls-10" d="m68.04,76.41c-.03-.51-.05-.99-.08-1.45l.27-.9c.09-.31.42-.49.74-.4.31.09.49.42.4.74l-1.63,5.43c-.01-.06-.02-.11-.02-.17.18-1.31.32-2.68.33-3.26Z"/>
            <path class="cls-10" d="m84.15,99.3h-11.62c.03-.12.06-.24.1-.36h11.42l.11.36Z"/>
            <path class="cls-10" d="m74.93,114.66c-.1,0-.18-.08-.18-.18s.08-.18.18-.18h13.73l.11.36h-13.84Z"/>
            <path class="cls-10" d="m77.35,122.25c-.1,0-.18-.08-.18-.18s.08-.18.18-.18h13.6l.11.36h-13.7Z"/>
            <path class="cls-10" d="m79.5,129.89c-.1,0-.18-.08-.18-.18s.08-.18.18-.18h13.74l.11.36h-13.85Z"/>
            <path class="cls-19" d="m56.88,101.01c.07-1.26.52-2.5.42-3.78-.13-.63-.51-1.24-.16-1.88.23-1.4.15-8.83.1-10.1,0-1.36-.12-2.96.61-4.04-.22-.37.08-.75.18-1.1-.1-1.4-.04-2.85-.35-4.32,1.9-.13.28-3,1.56-3.56-.03-.18-.23-.54-.05-.66-.28-.86-1.58-3.53-.22-3.79.25.1.85,1.55.89,1.64.05.12.68,1.58.74,2.21,1.77-.23,3.46-.88,5.27-.88-.35-1.55-.68-3.36-1.83-4.51.28-.07.56-.14.84-.2,3.4,3.84,3.4,8.12,2.93,13.04-.33.76.52,1.52.06,2.19,1.9,1.5,5.97,4.98,7.07,7.13.2.96.15,1.91-.02,2.85-.04.23-.09.47-.15.7-.36,1.49-.97,2.94-1.37,4.37-.62,1.83-1.27,4.8-1.89,6.72-1.2.55-2.48.14-3.72.11-.52.01.3-2.96.25-3.5.29-2.12.64-4.25,1.29-6.29.09-.46.39-.93.49-1.4.05-.24.05-.47-.06-.7-.03-.06-.06-.11-.1-.17-.54-.72.27-1.04-.12-1.12-1.32-1.25-3.47-2.07-5-3.03-1.09,1.4-1.12,3.32-1.49,5-1.11,5.88-1.49,12.09-1.47,18.05.11.47-3.78.75-4.08.41-.41-2.02-.66-7.15-.61-9.39Z"/>
            <path class="cls-17" d="m75.45,58.08c-.02-.06-.04-.12-.07-.18-.1-.24-.22-.48-.37-.69-.06-.09-.14-.19-.13-.3,0-.12.09-.21.16-.31.37-.48.54-.91.91-1.39.13-.17.29-.3.4-.48.13-.21.15-.68.23-.92.32-.97,1.03-1.54,1.65-2.35.06-.07.11-.23.19-.27.07-.04.17-.11.24-.15.12-.06.15-.08.29-.13.12-.04.2-.12.32-.13.22,0,.29.03.51.04.19,0,.77.01.61.33-.12.23-.31.2-.54.25-.08.02-.17.03-.23.08-.14.13.04.2-.09.34.27.08.34.56.39.83.03.18.03.36,0,.54-.04.29-.16.57-.28.84-.08.19-.2.41-.41.43-.07,0-.14-.01-.21,0-.2.02-.31.24-.44.4-.19.23-.47.35-.66.57-.19.22-.28.51-.38.78-.36.97-.82,2.08-1.43,2.92-.03-.01-.07-.04-.1-.06-.26-.2-.47-.73-.57-1.01Z"/>
            <path class="cls-10" d="m79.28,51.01s-.01.05,0,.07c.01.03.27.12.29.28.16-.19.93-1.63.93-1.63,0,0,.31.29.35.22.16-.14.23-.19.36-.35.02-.02.03-.04.04-.07,0-.03-1.29-.82-1.3-.81-.02.01-.15.32-.18.4-.02.06-.04.12-.09.16-.05.04.31.09.39.24.1.17-.68,1.09-.79,1.5Z"/>
            <path class="cls-12" d="m64.13,57.97c.31-.01.56.26.71.53.31.58.35,1.27.4,1.92-.28-.11-.35-.5-.6-.67-.07-.05-.15-.08-.23-.12-.26-.14-.43-.43-.7-.54-.07-.03-.16-.05-.24-.02-.11.04-.18.15-.23.26-.29.64-.29,1.43-.77,1.94-.24.26-.62.71-.95.82-.33.1-.63-.14-.96-.05-.15.04-.31.1-.39.23-.04.07-.05.16-.06.24-.02.18-.03.38.07.52.1.13.31.22.29.39,0,.12-.2.48-.2.57,0,.27-.13.55-.37.67-.24-.23-.39-.47-.6-.72s-.51-.48-.83-.45c.16.21.34.81.37,1.07.06.57.05.82.15,1.38s.09.96-.15,1.49c-.07.16-.19.51-.3.65-.05.07-.1.14-.12.22-.02.08-.02.15-.01.23,0,.15.02.31.03.46.02.39.05.79.13,1.18.09.39.24.76.49,1.07-.3-.04-.5-.32-.67-.57-.27-.41-.53-.81-.8-1.22-.01.24-.02.48-.03.72,0,.13-.01.27.04.39.05.14.17.24.26.35.02.02.03.04.04.07.01.06-.05.11-.11.11-.06,0-.12-.04-.17-.07-.23-.15-.47-.32-.58-.57-.05-.1-.07-.2-.09-.31-.08-.42-.14-.84-.17-1.26-.19.15-.4.27-.63.34.44-.92.61-1.97.46-2.98-.22-.17-.31-.48-.4-.75-.06-.19-.14-.38-.24-.57-.04-.08-.08-.15-.11-.24-.06-.17-.05-.36-.08-.54-.03-.18-.09-.36-.13-.54-.09-.4-.04-.82,0-1.23.1-.86.12-1.75.48-2.53.04-.09.09-.18.16-.25.09-.09.2-.14.31-.18.2-.08.42-.14.62-.07.26.09.4.38.63.51.18-.39.46-.74.8-.99.14-.1.3-.19.43-.31.09-.08.17-.18.27-.25.12-.08.27-.12.42-.15.31-.07.63-.15.94-.22.63-.13,1.29-.23,1.9-.03.3.1.62.1.9.24.03.01.37-.18.58-.19Z"/>
            <path class="cls-2" d="m64.92,63.21s.16.9-.51.94c-.53.03-.84-.69-.84-.69,0,0,.4-.03.77-.08.28-.05.58-.17.58-.17Z"/>
            <path class="cls-6" d="m57.99,110.58l.33-.05c-.16-1.13-.2-2.29-.24-3.32-.07-1.86-.08-3.7-.09-5.11,0-.92,0-1.87,0-2.89,0-.49,0-.99.01-1.48,0-.07,0-.15,0-.22,0-.16,0-.33.02-.47.03-.2.05-.42-.07-.67-.03-.05-.06-.1-.09-.15-.06-.1-.12-.19-.11-.28,0-.06.04-.13.07-.19.02-.03.04-.07.06-.1.06-.11.14-.24.16-.38.02-.13.02-.26.01-.39,0-.06,0-.11,0-.17,0-.36.01-.73.02-1.09.04-1.85.09-3.69.15-5.47.02-.65,0-1.31-.02-1.95-.02-.7-.05-1.42-.02-2.13,0-.17.01-.34.01-.51,0-.42.01-.86.1-1.26.06-.28.43-.7.56-.84l.06-.06v-.09c-.03-.07.04-.27.08-.42.07-.22.14-.43.11-.59-.05-.26-.04-.53-.03-.81,0-.27.01-.55-.03-.82-.03-.22-.1-.43-.16-.63-.03-.09-.06-.19-.08-.28-.17-.63-.31-1.54-.18-2.21l-.33-.07c-.18.92.09,2.04.18,2.36.03.1.06.19.09.29.06.2.12.39.15.58.04.25.03.5.03.76,0,.29-.01.59.04.88.01.07-.05.28-.1.43-.06.18-.11.35-.11.48-.15.15-.52.58-.6.95-.09.43-.1.88-.11,1.32,0,.17,0,.34-.01.5-.03.72,0,1.45.02,2.15.02.63.04,1.29.02,1.93-.06,1.78-.11,3.63-.15,5.48,0,.37-.02.73-.02,1.1,0,.06,0,.12,0,.18,0,.11,0,.22,0,.32-.01.08-.07.17-.12.26-.02.04-.04.08-.06.11-.05.09-.1.2-.11.33-.01.19.08.34.16.47.03.04.05.08.07.13.07.15.07.27.04.46-.03.18-.02.36-.02.53,0,.07,0,.14,0,.21,0,.49-.01.99-.01,1.49,0,1.02-.01,1.97,0,2.9,0,1.4.02,3.26.09,5.12.04,1.04.08,2.21.24,3.35Z"/>
            <path class="cls-2" d="m48.48,89.32c1.65,0,3,.45,3,1.01v5.83c0,.56-1.34,1.01-3,1.01s-3-.45-3-1.01v-5.83c0-.56,1.34-1.01,3-1.01Z"/>
            <path class="cls-3" d="m51.46,95.63v.63s-.52.8-1.97.84c-1.45.05-2.47-.01-2.94-.18-.47-.17-.8-.29-.94-.47-.14-.18-.1-.99-.1-.99,0,0-.3.53,1.32.75,1.62.22,2.65.19,3.46.02s1.17-.61,1.17-.61Z"/>
            <path class="cls-4" d="m50.85,91.03c-.22.08-.49.1-.73.13-.57.08-1.15.13-1.74.13-.52,0-1.05-.02-1.55-.12-.44-.09-.81-.26-1.14-.47.49-.36,1.55-.61,2.79-.61,1.3,0,2.41.27,2.86.66-.15.1-.29.22-.48.28Z"/>
            <path class="cls-17" d="m67.61,105.25c.02-.29.13-.56.19-.84.1-.39.12-.8.09-1.2.71.11,1.43.14,2.15.09.3-.02.62-.05.89.09-.04-.02-.04.27-.03.29.03.11.11.2.2.26.19.13.33.12.28.39-.03.14-.05.31-.07.49-.06.39-.09.79-.17,1.02,0,.15-.14.45-.05.58-.45.1-2.87.16-3.09.09-.13-.04-.23-.15-.29-.28-.05-.13-.07-.27-.08-.41-.02-.19-.04-.38-.02-.57Z"/>
            <path class="cls-8" d="m71.87,106.54v-.04c.19.01.39.02.59.04h-.59Z"/>
            <path class="cls-10" d="m73.06,106.7c-.05.18-.11.36-.16.53h-11.31c0-.23,0-.46.01-.7h11.51c-.02.05-.03.11-.05.16Z"/>
            <path class="cls-14" d="m74.84,104.9c.02-.07.04-.13.06-.2.24.16.47.34.69.55.31.21.88.92.46,1.2-.57.13-1.14.17-1.72.17.03-.08.05-.17.08-.25.14-.47.29-.96.44-1.46Z"/>
            <path class="cls-14" d="m71.14,105.84c.07-.23.11-.63.17-1.02,0-.03,0-.06.01-.09.07-.45.19-.87.44-.97.18.02.35.05.53.07.52.08,1.04.19,1.53.36-.02.07-.04.14-.06.21-.2.65-.39,1.31-.59,1.96-.02.07-.04.14-.06.21-.21-.01-.43-.03-.64-.04-.2-.01-.4-.03-.6-.04-.2-.01-.39-.02-.59-.02-.1,0-.15-.02-.18-.06-.08-.13.05-.43.05-.58Z"/>
            <path class="cls-10" d="m74.27,106.81h12.14l.11.36h-12.36c.04-.12.07-.24.11-.36Z"/>
            <path class="cls-10" d="m51.79,129.36h14.46c-.07.23-.14.47-.21.7h-14.28v-.7h.03Z"/>
            <path class="cls-10" d="m55.05,122.62h-.75v-.7h14.18c-.07.23-.14.47-.21.7h-13.22Z"/>
            <path class="cls-10" d="m57.5,114.48h-.85v-.7h14.28c-.07.23-.14.47-.21.7h-13.22Z"/>
            <path class="cls-10" d="m72.48,99.47c.06-.23.13-.47.19-.7h2.78c-.07.23-.14.47-.21.7h-2.75Z"/>
            <path class="cls-8" d="m81.03,84.82l14.38,47.85c.03.11.02.22-.03.32-.05.1-.14.17-.25.2-.22.07-.46-.07-.53-.28l-14.09-46.89c.14-.46.28-.92.41-1.38.05.05.09.11.11.18Z"/>
            <path class="cls-10" d="m74.76,91.94c.06-.23.11-.47.15-.7h2.8c-.07.23-.14.47-.21.7h-2.74Z"/>
            <path class="cls-8" d="m72.08,107.24h.82c-.14.46-.27.91-.41,1.37l-.41-1.37Z"/>
            <path class="cls-10" d="m65.16,133.01s.84-2.78.84-2.78c.02-.06.03-.11.05-.17.07-.23.14-.47.21-.7.67-2.22,1.34-4.47,2.03-6.74.07-.23.14-.47.21-.7.74-2.46,1.48-4.94,2.24-7.44.07-.23.14-.47.21-.7.52-1.72,1.04-3.44,1.56-5.17.14-.46.27-.91.41-1.37.78-2.58,1.56-5.18,2.33-7.77.07-.23.14-.47.21-.7.68-2.28,1.37-4.56,2.05-6.83.07-.23.14-.47.21-.7,1.75-5.82,3.48-11.58,5.16-17.18.2-.72,1.37-.4,1.13.34-.99,3.28-2.02,6.71-3.07,10.23-.14.46-.28.92-.41,1.38-2.19,7.3-4.5,14.98-6.79,22.59-.21.69-.41,1.37-.62,2.05-2.36,7.85-4.68,15.57-6.82,22.69-.21.72-1.37.4-1.13-.34Z"/>
            <path class="cls-1" d="m80.44,90.95c-.38,0-.7.31-.7.7s.31.7.7.7.7-.31.7-.7-.31-.7-.7-.7Zm0,.34c.2,0,.36.16.36.36s-.16.36-.36.36-.36-.16-.36-.36.16-.36.36-.36Z"/>
            <path class="cls-1" d="m61.24,62.82c.05.08.04.18-.04.24-.03.02-.06.03-.1.03-.05,0-.11-.03-.14-.07-.03-.04-.13-.17-.29-.18-.09,0-.16-.09-.16-.18,0-.09.09-.16.18-.16.3.02.48.23.54.32Z"/>
            <path class="cls-1" d="m64.14,61.85c-.12.02-.24-.11-.26-.29-.02-.19.06-.34.18-.36.12-.02.24.11.26.29.03.18-.05.34-.18.36Z"/>
            <path class="cls-1" d="m63.29,60.74c.19-.25.56-.43.96-.3.09.03.14.13.11.21-.03.09-.13.14-.21.11-.24-.08-.47.03-.58.19-.03.04-.08.07-.13.07-.04,0-.07-.01-.1-.04-.07-.06-.09-.16-.03-.24Z"/>
            <path class="cls-1" d="m64.86,63.05s-.28.11-.55.16c-.35.05-.74.08-.75.08-.05,0-.1.03-.13.08-.03.05-.03.1-.01.15.01.03.34.79.96.79.01,0,.03,0,.04,0,.21-.01.38-.1.5-.25.26-.32.18-.83.17-.89,0-.05-.04-.09-.08-.12-.04-.02-.1-.03-.14,0Zm-.09.39c0,.14-.03.31-.11.42-.06.07-.14.11-.25.12-.25.01-.44-.2-.55-.37.15-.01.33-.03.52-.06.14-.03.29-.07.4-.1Z"/>
            <path class="cls-1" d="m62.83,60.18c.21-.99.38-1.24.58-1.31.19-.06.34.06.44.15l.04.04c.07.06.08.17.03.24-.06.07-.17.08-.24.02l-.05-.04s-.1-.09-.12-.09c-.03.01-.16.12-.36,1.06-.19.9-.61,1.33-.98,1.54-.11.24-.27.41-.46.49-.08.03-.16.05-.25.05-.1,0-.21-.02-.31-.07-.08-.04-.12-.14-.08-.22.04-.09.14-.12.22-.08.08.03.15.05.23.03-.07,0-.13-.05-.16-.12-.02-.07,0-.14.06-.19,0,0,.27-.2.48-.51-.42.25-.84.32-1.18.32-.43,0-.74-.11-.77-.12-.07-.03-.12-.11-.11-.18.01-.08.08-.14.16-.14.07,0,1.63-.09,2.12-1.81.03-.09.12-.14.21-.12.09.03.14.12.12.21-.3,1.06-.98,1.57-1.55,1.82.37-.03.83-.18,1.25-.58,0,0,0,0,0,0,0-.06.02-.12.01-.18,0-.09.07-.17.17-.17.09,0,.17.07.17.17,0,.41-.17.77-.37,1.04.26-.2.54-.56.68-1.23Z"/>
            <path class="cls-1" d="m60.13,59.32c-.79,0-1.53.53-1.76,1.26-.02.07-.09.12-.16.12-.02,0-.03,0-.05,0-.09-.03-.14-.12-.11-.21.27-.87,1.15-1.5,2.08-1.5,0,0,.01,0,.02,0,.09,0,.17.08.17.17,0,.09-.08.17-.17.17,0,0-.01,0-.02,0Z"/>
            <path class="cls-1" d="m64.41,82.42c-.01-.09.05-.18.14-.19.09-.01.18.05.19.14.16,1.1.16,1.81,0,3.32,0,.09-.08.15-.17.15,0,0-.01,0-.02,0-.09,0-.16-.09-.15-.19.16-1.48.16-2.17,0-3.24Z"/>
            <path class="cls-1" d="m60.3,79.75c.09.03.14.12.11.21-.03.11-.07.22-.09.33.49.05.94.09,1.2.1.32.02.59.03.82.03.93.02,1.48-.04,2.56-.21.2-.03.42-.07.66-.11l.21-.03c.17-.03.33-.06.49-.09-.05-.13-.11-.26-.17-.38-.04-.08,0-.19.08-.22.09-.04.19,0,.22.08.16.35.33.72.38,1.12.02.15.02.3.03.45,0,.12,0,.2,0,.27,0,.12,0,.23,0,.43,0,.09-.08.16-.17.16-.1,0-.17-.08-.17-.17,0-.06,0-.11,0-.16-1.5.23-2.87.36-4.08.38-.09,0-.17-.07-.17-.17,0-.09.07-.17.17-.17,1.21-.02,2.58-.15,4.08-.38,0-.05,0-.11,0-.19,0-.14,0-.28-.02-.41-.01-.11-.04-.22-.07-.32-.18.03-.36.07-.55.1l-.21.03c-.24.04-.46.08-.66.11-.92.15-1.49.21-2.27.21-.11,0-.23,0-.35,0-.24,0-.51-.02-.84-.03-.25-.01-.72-.05-1.26-.11-.05.29-.08.59-.08.88.15.02.3.04.45.05.09,0,.16.09.15.18,0,.09-.08.15-.17.15,0,0-.01,0-.02,0-.14-.01-.27-.03-.41-.05,0,.11.02.22.03.33.01.09-.05.17-.13.19-.01,0-.02,0-.04,0-.07,0-.14-.05-.16-.12l-.04-.14s0-.08,0-.12c-.07-.72.02-1.45.24-2.13.03-.09.12-.14.21-.11Z"/>
            <path class="cls-1" d="m66.39,77.19c.26-1.75-.22-3.59-.24-3.66-.02-.08-.1-.13-.18-.13-1.66.12-3.3.47-4.86,1.06-.08.03-.13.12-.1.2,0,0,.2.78.3,1.7.05.43.02.73,0,1.02-.02.22-.04.43-.02.67,0,.08.07.15.15.16l.16.02s.01,0,.02,0c.06,0,.13,0,.19,0,1.52,0,3.06-.29,4.47-.84.05-.02.09-.06.1-.11l.02-.05s0-.02,0-.02Zm-.33-.1c-1.41.54-2.94.81-4.45.78,0-.16.01-.31.03-.48.03-.29.06-.62,0-1.08-.08-.71-.21-1.32-.27-1.6,1.44-.53,2.95-.85,4.48-.97.1.45.4,1.94.21,3.35Z"/>
            <path class="cls-1" d="m66.61,71.34c.17,0,.31.14.31.31s-.14.31-.31.31-.31-.14-.31-.31.14-.31.31-.31Z"/>
            <path class="cls-1" d="m60.21,72.65c.17,0,.31.14.31.31s-.14.31-.31.31-.31-.14-.31-.31.14-.31.31-.31Z"/>
            <path class="cls-1" d="m81.18,48.33s-.05,0-.07-.01c-.09-.04-.12-.14-.09-.22.17-.38.14-.84-.07-1.2-.05-.08-.02-.18.06-.23.08-.05.18-.02.23.06.26.45.3,1.03.09,1.51-.03.06-.09.1-.15.1Z"/>
            <path class="cls-1" d="m80.85,47.69c-.1,0-.17-.07-.17-.17,0-.26-.07-.51-.2-.73-.05-.08-.02-.18.07-.23.08-.05.18-.02.23.07.15.27.23.58.24.89,0,.09-.07.17-.17.17Z"/>
            <path class="cls-1" d="m45.32,90.33v5.83c0,.76,1.63,1.17,3.17,1.17s3.17-.41,3.17-1.17v-5.83c0-.55-.85-.92-1.89-1.08v-.43s-.01-.05,0-.09c0-.12.01-.31-.02-.53.04-.03.08-.06.11-.09,0,0,0,0,0,0,0,0,0,0,0,0,.57-.64.96-1.51,1.09-2.38.01-.08.02-.16.03-.24.03-.24.05-.46.13-.66.05-.14.35-.55.65-.93.04.04.1.07.16.07,0,0,0,0,.01,0,.37-.02,1.38-1.2,1.58-1.7.08-.19.07-.33-.02-.43,0,0,0,0,0,0l1.42-2.17c.05-.08.15-.25.26-.45.22-.39,1.46-2.96,2.19-4.83.12,1.5.38,3.25.55,4.26.03.18.06.36,0,.51,0,.02-.01.03-.02.05-.09.17-.12.35-.09.54v.08c.03.1.05.21.08.3-.16.28-.25.6-.26.92,0,.05.02.09.05.12-.54.57-.53,1.19-.53,1.9,0,.09,0,.18,0,.27l-.05,10.42c0,.16,0,.33.02.49.01.27.03.56,0,.81-.02.14-.07.26-.12.39-.09.24-.2.52-.09.87.03.08.06.16.09.23.02.04.04.08.06.13.17.43.14,1.14.04,1.65-.2,1.01-.38,2.74-.38,3.76,0,2.83.43,7.34.51,8.19l-6.82,22.7c-.06.19-.04.4.06.58.1.18.26.31.45.37.07.02.14.03.22.03.33,0,.63-.22.73-.54l.95-3.17h13.05l-.82,2.73c-.06.19-.04.4.06.58.1.18.26.31.45.37.07.02.14.03.22.03.33,0,.63-.22.73-.54l6.66-22.15,6.54,21.76c.1.32.4.54.73.54.07,0,.15-.01.22-.03.19-.06.35-.19.45-.37s.12-.38.06-.58l-.7-2.34h13.05l.84,2.78c.1.32.4.54.73.54.07,0,.15-.01.22-.03.19-.06.35-.19.45-.37.1-.18.12-.38.06-.58l-14.38-47.85c-.04-.12-.1-.22-.19-.31l2.99-9.96c.12-.4-.11-.83-.51-.95-.4-.12-.83.11-.95.51l-5.13,17.05h-2.39s.07-.66.07-.73c0-.22-.02-.43-.03-.64-.03-.5-.01-1.02-.19-1.5-.13-.36-.34-.69-.59-.94-.6-.6-1.15-1.18-1.69-1.74-1.59-1.66-2.97-3.1-4.71-4.27,0,0,0-.01,0-.02.14-.38.08-.54.02-.74-.03-.1-.07-.21-.09-.39,0-.06-.02-.12-.03-.17-.01-.03-.03-.06-.05-.08l1.62-5.39c.06-.19.04-.4-.06-.58-.1-.18-.26-.31-.45-.37-.36-.11-.73.06-.9.39-.15-1.66-.5-3.51-.95-4.56.35-.34,1.66-1.41,5.93-4.66.18-.14.3-.23.34-.26.62-.48,1.28-1.81,1.61-2.65.41-.09.63-.39.83-.68.07-.09.1-.17.13-.25.04-.1.08-.22.24-.43.17-.23.55-.76.18-1.35,0-.01-.02-.02-.03-.03.33-.66,1.21-2.44,1.54-3.4.36-.16.66-.52.92-.82.03-.04.06-.07.09-.1.03,0,.07.01.1.01,0,0,.01,0,.02,0,.06,0,.13-.02.2-.05.09-.04.17-.09.24-.16.1-.09.18-.2.25-.3l.17-.24c.07-.1.16-.22.2-.36.05-.16.02-.33-.07-.45.04-.07.08-.14.09-.23.03-.21-.07-.39-.15-.52.02-.06.05-.14.03-.23-.02-.08-.06-.14-.09-.18v-.02c-.1-.12-.17-.21-.36-.28.02-.01.03-.03.04-.05l.05-.09s.03,0,.04,0c.2,0,.47-.02.63-.13.07-.05.2-.2.19-.34,0-.1-.07-.19-.2-.25-.09-.05-.17-.06-.23-.06l.44-.77s.08.08.12.13c.03.04.08.07.14.07.06,0,.11-.03.14-.08.09-.13.32-.38.4-.46.06-.06.07-.16,0-.23-.02-.02-.03-.04-.05-.05.68-.67.94-1.74.64-2.65-.03-.09-.13-.14-.21-.11-.09.03-.14.13-.11.21.26.79.03,1.72-.56,2.3-.21-.19-.45-.34-.71-.46.19-.53.13-.91.04-1.39-.01-.08-.03-.16-.04-.25-.01-.09-.1-.16-.19-.14-.09.01-.15.1-.14.19.01.09.03.18.04.26.08.46.13.76-.02,1.21-.02,0-.05-.02-.07-.02-.09-.03-.18.02-.21.11,0,0-.14.44-.2.64-.03.08.01.17.09.2l.16.07s.07.03.1.05l-.62,1.09s-.07-.01-.11,0c-.3.11-.67.24-.93.52-.09.1-.17.22-.22.32-.04.07-.28.33-.45.51-.17.19-.34.37-.41.47-.51.69-.76,1.54-.9,2.01-.04.13-.08.27-.1.3-.44.5-.82,1.06-1.18,1.62-.06-.05-.13-.07-.21-.07-.4.02-.97.74-1.7,1.82l-.07.11c-.12.18-.07.37.02.53-.47.65-.89,1.36-1.24,2.12,0,.01,0,.03,0,.04-.2.1-.37.25-.49.44-.04.06-.27.32-.33.36-2.75,1.88-4.37,2.96-4.82,3.19-.11.06-.22.1-.34.16-.32.14-.65.28-.88.58-.02.02-.02.04-.03.07-.01,0-.03.02-.04.03-.07.09-.17.16-.27.2-.1.03-.21.04-.34.05-.1,0-.19.01-.29.03-.04,0-.06.03-.09.05,0-.26.03-.47.07-.53.11-.06.21-.07.37-.09.16-.02.36-.04.63-.13.43-.14.66-.33.68-.95,0-.26-.02-.54-.03-.79-.01-.25-.03-.49-.02-.64,0-.11.07-.22.14-.34.09-.15.19-.33.17-.52-.02-.24-.23-.34-.41-.43-.21-.1-.44-.21-.51-.52-.03-.13-.05-.28-.08-.43-.03-.21-.07-.43-.12-.65.24.37.24.87.23.88,0,.08.05.15.13.17.01,0,.02,0,.04,0,.07,0,.13-.04.15-.1.02-.04.46-1.07-.16-2.44-.19-.43-.43-.69-.72-.78-.25-.07-.51-.02-.8.17-.08.05-.1.16-.05.23.05.08.16.1.23.05.2-.13.37-.17.52-.13.19.06.36.26.51.59.24.52.3.99.3,1.35-.12-.26-.32-.51-.64-.64-.01,0-.03,0-.05,0-.05-.06-.1-.12-.16-.18-.07-.06-.18-.06-.24,0-.06.07-.06.17,0,.24.26.24.31.44.34.58.07.23.1.47.14.7.02.16.05.32.08.46.11.47.46.64.69.75.11.05.22.11.22.15,0,.09-.06.2-.12.32-.08.14-.17.3-.18.49,0,.17,0,.41.02.68.01.24.03.51.03.76,0,.45-.13.53-.44.63-.24.08-.41.1-.57.12-.08,0-.15.02-.22.03-.46.03-.99.04-1.28-.03,0,0,.15.28.36.51.14.15.31.28.41.35-.01.38.04.77.04.77,0,.07.03.16.04.25.02.08.03.17.04.22,0,.02,0,.03.01.04-.2.33-.57.62-.88.72-.51.16-1.04.02-1.4-.12-.38-.15-.82-.58-1.13-.96.02-.02.04-.05.04-.08.16-.83.06-1.67-.05-2.24.04-.11.07-.22.09-.31l.03-.16c.07-.36.1-.48.23-.61.24.12.52.18.81.18.09,0,.17-.08.17-.17,0-.09-.08-.17-.18-.17-.47,0-1.03-.2-1.1-.77-.02-.23,0-.39.09-.47.08-.08.23-.1.47-.08.1,0,.18-.06.18-.15,0-.09-.06-.18-.15-.18-.22-.02-.54-.02-.74.18-.15.15-.21.4-.18.74.03.3.16.53.35.7-.18.19-.22.4-.28.74l-.03.15c-.02.08-.04.18-.09.29-.08-.2-.21-.43-.38-.61-.09-.09-.23-.2-.39-.32-.24-.18-.54-.41-.73-.65-.15-.18-.22-.42-.25-.68.22.28.53.52.9.64.02,0,.04,0,.05,0,.07,0,.14-.04.16-.12.03-.09-.02-.18-.11-.21-.43-.14-.76-.48-.95-.85.24.2.55.35.9.41,0,0,.02,0,.03,0,.08,0,.15-.06.17-.14.02-.09-.05-.18-.14-.2-.32-.06-.61-.2-.81-.39-.07-.07-.17-.07-.24,0-.01.01-.02.03-.03.04-.03-.1-.05-.21-.06-.3,0-.09-.09-.16-.18-.16-.09,0-.16.09-.16.18,0,.14.04.3.1.45,0,.02-.01.04-.01.06,0,.53.04,1.08.35,1.47.05.06.1.12.16.17,0,0,0,.01,0,.02.19.52.33,1.02.43,1.48-.53-.6-1.28-1.69-1.26-3.09,0-.09-.07-.17-.17-.17-.1,0-.17.07-.17.17-.03,1.5.74,2.64,1.31,3.29-.4-.25-.88-.73-1.24-1.65-.03-.09-.13-.13-.22-.1-.09.03-.13.13-.1.22.6,1.51,1.52,1.95,1.98,2.09.13.98.05,1.76-.26,2.21.02-.22.04-.44.09-.68.02-.09-.04-.18-.14-.2-.09-.02-.18.04-.2.14-.3,1.65.04,3.01.36,3.82-.37-.45-.79-1.15-.88-2.13,0-.09-.09-.16-.18-.15-.09,0-.16.09-.15.18.02.16.04.31.07.46,0,0,0,0,0,0-.36.56-.17,1.18.05,1.59-.21-.15-.44-.4-.54-.84-.1-.45,0-.76.1-1.12.04-.14.08-.28.12-.43.08-.35.11-.75,0-1.31-.02-.09-.11-.15-.2-.13-.09.02-.15.11-.13.2.1.49.07.85,0,1.15-.12.35-.33.54-.52.64.14-.24.29-.58.35-1.02.06-.54,0-1.18-.05-1.62.32.26.59.33.62.33.01,0,.03,0,.04,0,.06,0,.11-.03.14-.08.04-.06.03-.14-.01-.2,0,0-.73-.93-.73-1.74,0-.09-.08-.17-.17-.17s-.17.08-.17.17c0,.48.21.98.41,1.35-.07-.07-.15-.15-.23-.24-.01-.02-.03-.04-.05-.06-.37-.47-.73-1.28-.79-2.67-.08-2.24.38-3.07.66-3.37.19-.2.36-.23.44-.23.23,0,.58.26.76.41-.12.33-.14.66-.02.96.03.07.09.1.16.1.02,0,.04,0,.06-.01.09-.04.13-.13.09-.22-.23-.57.31-1.45.95-1.89,1.1-.77,2.96-1.03,4.25-.61.09.03.18-.02.21-.11.03-.09-.02-.18-.11-.21-1.4-.46-3.35-.18-4.55.65-.36.25-.7.62-.91,1.02-.3-.23-.61-.43-.9-.43-.24,0-.48.12-.68.34-.39.41-.84,1.37-.75,3.62.05,1.47.45,2.35.87,2.87.04.23.21,1.23.12,1.98-.01.09-.03.17-.05.26-.32.08-.61.32-.82.68-.02.03-.04.07-.07.12-.23.37-.71,1.15-1.49,3.55l-.15.46c-.35,1.07-.83,2.54-1.01,3.4-.12.6-.25,1.23-.46,1.81-.36.49-1.12,1.53-1.41,2.18-.01,0-.02,0-.03,0-.34-.07-.63.09-.77.44-.02.05-.06.14-.11.24-.26.54-.61,1.28-.25,1.54-.07.1-.14.2-.22.31-.15.21-.31.42-.42.69-.08.16-1.32,1.57-1.79,1.99-.07.07-.12.16-.14.25-.03.21-.09.59-.1.72-.02.2,0,.43.06.6.03.09.06.16.09.21,0,0,0,0,0,.01-.02.08-.04.16-.04.24v1.56c-1.09.16-1.98.53-1.98,1.09Zm.34.55c.56.41,1.72.63,2.83.63.33,0,.67-.02.99-.06l.03,1.3c0,.09.08.16.17.16.09,0,.17-.08.16-.17l-.04-1.33c.62-.1,1.17-.28,1.5-.52v4.46c0,.35-1.08.84-2.83.84s-2.83-.49-2.83-.84v-4.46Zm2.83-1.38c.34,0,.65.02.94.05l.04,1.57c-.3.04-.63.06-.98.06-1.75,0-2.83-.49-2.83-.84s1.08-.84,2.83-.84Zm10.43-21.46c.35.38.55.88.74,1.38.04.09.07.18.11.27.14.35.58,1.74.75,2.26l.06.18c.12.37.24.74.3,1.12.01.09-.04.18-.13.2l-.8.24s-.08,0-.11-.02c-.04-.02-.06-.06-.07-.1-.08-.48-.22-.93-.35-1.37-.04-.12-.07-.24-.11-.36.04,0,.08-.02.11-.05.06-.06.07-.14.02-.21,0-.02-.81-1.32-.81-3.22.12-.09.22-.2.31-.32Zm1.06-2.95c.07.5.11,1.12-.01,1.74,0,0,0,.02,0,.02-.03,0-.07,0-.1.02-.2.12-.43.25-.65.37.09-.46.08-.99.01-1.56.04-.02.08-.05.1-.1.03-.07,0-.15-.05-.19,0,0-.04-.03-.1-.08-.08-.5-.21-1-.36-1.5.05.03.09.07.13.1.15.11.27.21.35.28.31.34.38.72.38.77,0,0,0-.04.03-.08-.03.05-.04.12-.01.17.03.06.09.09.15.09.01,0,.02,0,.03,0,.04,0,.08-.03.1-.06,0,0,0,0,0,0Zm4.17,1.9c.01-.09-.06-.18-.15-.19-.03,0-.07,0-.09.02,0-.02,0-.03,0-.04-.02-.12-.03-.24-.03-.35,0,0,.01.01.02.02.29.22.49.54.67.89.66,1.23.96,2.33,1.1,3.21-.41.07-.83.13-1.28.19-1.25.18-2.53.36-3.66.74-.21-.64-.52-1.62-.64-1.91-.04-.09-.07-.18-.11-.27-.22-.56-.44-1.14-.89-1.57,0,0,0-.01,0-.02,0,0,0,0,.01,0,.29-.15.62-.33.9-.5.22.26.74.84,1.27,1.05.27.11.64.21,1.03.21.19,0,.39-.02.59-.09.54-.17,1.2-.8,1.26-1.39Zm.54-.66c.05-.02.1-.04.15-.07l.72.81c.12.14.35.51.67,1.11.7,1.29.78,2.51.89,4.06,0,.08-.05.15-.13.17-.13.03-.4.05-.76.08-.02,0-.05,0-.07-.02-.02-.02-.03-.04-.03-.07,0-.08,0-.18,0-.28-.03-.96-.08-2.75-1.26-4.94-.15-.27-.31-.55-.53-.78.12,0,.24-.02.36-.06Zm16.1-16.56c-.25-.25-.54-.38-.85-.51h-.02c.03-.12.07-.24.11-.34.36.13.7.35.96.63-.06.06-.13.14-.2.22Zm-.51.03l-.79,1.39s-.02-.06-.04-.09l.76-1.33s.05.02.07.04Zm-.42,1.41l.05-.1c.06,0,.11,0,.14,0,.05,0,.07,0,.1.01,0,0,0,0-.01.01-.06.04-.17.06-.29.07Zm-.21,1.13c-.18.34-.44.64-.76.85-.03.02-.05.03-.07.03,0,0,0,0-.01,0,.01-.05.03-.09.04-.14.05-.17.09-.33.17-.45.04-.07.1-.13.16-.2.06-.07.12-.13.17-.21.04-.06.08-.13.11-.21.1.04.12.07.18.15l.02.02s.03.05.03.06c0,0,0,.03-.03.09Zm-.96,1.21s.07.02.11.02c.09,0,.18-.03.27-.1.28-.19.52-.43.71-.71.02.04.02.08.02.12,0,.07-.06.14-.11.21-.14.2-.28.4-.45.57-.1.1-.19.15-.27.16-.14.02-.2-.03-.23-.18,0-.04-.03-.07-.06-.1Zm.26.8s-.01-.08.01-.11c.02-.02.03-.05.03-.08,0,0,.02,0,.03,0,.2-.03.36-.16.46-.25.12-.11.22-.24.31-.36-.03.08-.08.17-.14.25l-.17.24c-.06.09-.13.18-.2.25-.05.04-.1.08-.16.1-.03.02-.06.02-.08.02-.04,0-.08-.02-.09-.05Zm-1.34,1.04c-.09,0-.16.09-.16.18,0,.06.04.11.09.14-.36.99-1.19,2.66-1.48,3.24-.19-.41-.41-.86-.55-1.16-.06-.13-.35-.56-.51-.8.01-.01.03-.02.04-.04.42-.65.86-1.33,1.38-1.92.05-.06.08-.15.16-.41.13-.44.37-1.26.84-1.9.06-.08.23-.26.39-.44.27-.29.43-.47.49-.57.05-.08.11-.18.18-.26.12-.13.27-.22.44-.29-.21.2-.38.45-.5.62-.03.05-.07.11-.09.12-.04.04-.09.12-.17.23-.04.07-.11.16-.13.19-.35.32-.65.72-.85,1.16-.04.08,0,.18.08.22.02.01.05.02.07.02.06,0,.12-.04.15-.1.18-.39.45-.76.78-1.05.04-.04.1-.11.18-.24.04-.07.11-.17.14-.19.03-.03.06-.07.12-.16.11-.15.28-.41.48-.59.05.22.01.47-.11.65-.04.06-.09.12-.15.18-.07.07-.14.15-.19.24-.11.17-.16.37-.21.55-.01.04-.02.09-.04.13-.09.33-.24.63-.43.91-.05.08-.03.18.04.23.03.02.06.03.1.03.05,0,.11-.03.14-.07.06-.09.12-.19.18-.29.04.07.09.12.15.16-.07.12-.08.27-.01.4,0,.01.01.02.02.03-.02.03-.05.06-.07.09-.28.33-.63.75-.98.78Zm-2.51,6.03c-.16-.3-1.05-2-1.65-2.61,0-.02-.02-.03-.04-.04-.04-.04-.2-.2-.14-.29l.07-.11c1.04-1.53,1.35-1.67,1.43-1.67,0,0,0,0,.01.01-.01.02-.02.03-.03.05-.03,0-.06,0-.09.03-.08.05-.1.16-.04.23.2.29.53.78.58.9.22.46.6,1.26.83,1.73.03.06.09.1.15.1.02,0,.03,0,.05-.01-.04.18-.15.34-.25.49-.18.25-.24.39-.28.51-.03.07-.04.12-.09.17-.18.26-.31.43-.51.51Zm-2.21,3c-4.11,3.13-5.47,4.24-5.92,4.66-.11-.35-.26-.7-.45-1.05-.35-.64-.58-1.02-.72-1.18l-.72-.8s.02-.02.03-.03c.02-.02.02-.04.03-.07.01,0,.02-.02.03-.03.17-.23.45-.35.75-.48.12-.05.24-.1.36-.17.7-.36,3.83-2.51,4.85-3.21.11-.08.37-.38.42-.46.09-.14.21-.25.36-.32.09.11.2.21.3.29.16.13.17.25.17.26,0,.09.08.16.17.16.09,0,.16-.07.16-.17,0-.03,0-.28-.29-.52-.11-.09-.22-.18-.29-.29,0-.01-.02-.02-.03-.03.32-.69.69-1.33,1.11-1.91.48.51,1.23,1.87,1.55,2.47-.39.99-1.03,2.21-1.55,2.61-.04.03-.16.12-.34.26Zm-5.68,15.75c.19-.03.34-.05.43-.05,0,.01,0,.03,0,.04.03.21.07.34.11.45.05.15.08.22.02.42-.03,0-.07.01-.12.02-.1.02-.2.04-.3.05-.02-.31-.07-.63-.15-.93Zm1.99-5.8l-1.21,4.02c0-.1.02-.2.03-.3.06-.6.11-1.2.16-1.78.03-.41.03-.93,0-1.5l.21-.69c.05-.18.22-.3.4-.3.04,0,.08,0,.12.02.11.03.2.11.25.2.05.1.06.21.03.32Zm2.57,28.36l.27.9c-.12-.02-.23-.03-.35-.05h-.15c-.07,0-.13.04-.16.1-.02.05-.04.1-.06.15-.05,0-.09-.02-.13-.06l-.09-.29s0-.05,0-.08c.26-.05.44-.13.52-.24,0,0,0,0,0-.01,0,0,0-.01.01-.02,0,0,0,0,0,0,0,0,0,0,0-.01.02-.07.06-.21.11-.39Zm-2.41-11.64h-.74l-.58-1.94c.11.08.22.16.33.24.34.25.68.5,1.05.72-.2.28-.26.68-.05.99Zm-6.13.58c.03.26.25.46.51.46h.11l-1.55,5.16c.19-1.38.56-3.66.93-5.62Zm2.02-4.19l-1.09,3.61h-.42c-.2,0-.37.11-.46.28.05-.28.11-.55.16-.81l.94-3.13c.07-.1.14-.2.22-.29.19.09.42.21.65.34Zm.84.48l.94,3.13h-2.51l1.04-3.44c.19.11.37.21.53.31Zm.43.25c.09.05.17.1.23.14l.42.24c.14.08.28.17.42.26l.68,2.25h-.88l-.87-2.88Zm3.07,3.58h-5.85c-.1,0-.18-.08-.18-.18s.08-.18.18-.18h5.93s0,.13-.08.36Zm-.13.34c-.1.25-.19.53-.28.84l-.25-.84h.53Zm-.45,1.45c-.13.51-.26,1.07-.39,1.65l-.93-3.09h.88l.44,1.45Zm-.53,2.35c-.18.89-.34,1.82-.47,2.69h-5.75l1.95-6.49h3.13l1.14,3.79Zm-.53,3.03c-.02.12-.04.24-.06.36h-5.75c0-.12,0-.23,0-.35h0s5.8-.01,5.8-.01Zm-.11.7c-.27,1.84-.44,3.27-.46,3.41,0,.08.04.16.12.18.06.02.13.04.21.06,0,.46-.06,1.03-.15,1.4-.04.17-.19,1.13.02,1.67-.1,0-.21,0-.31,0-.01,0-.02,0-.03,0h-5.46c.04-.69.08-1.37.12-2.04.09-1.53.18-3.1.23-4.69h5.71Zm-9.43,11.11c.07,0,.14,0,.21,0,.07,0,.13,0,.18,0,0,0,.02,0,.03,0,.53,0,1.15-.09,1.65-.18.07.28.27.66.46.79-.22.68-.34,1.43-.35,2.22-.97-.01-1.94-.02-2.88,0,0-.01-.01-.03-.02-.04-.25-.29-.23-.84-.13-1.27.11-.45.25-1.08.27-1.54.18.02.37.03.57.03Zm7.69,18.45h-13.05l1.92-6.4h13.05l-1.92,6.4Zm-11.47-6.74c-.1,0-.18-.08-.18-.18s.08-.18.18-.18h13.6l-.11.36h-13.49Zm.66-.7l2.13-7.1h13.05l-2.13,7.1h-13.05Zm1.69-7.44c-.1,0-.18-.08-.18-.18,0-.1.08-.18.18-.18h13.71l-.11.36h-13.6Zm4.4-3.17h.02c1.03.1,2.08.42,3.01.91.29.15.66.37.94.68.22.25.37.56.4.86-1.37.04-2.84.02-4.27,0-.18,0-.36,0-.54,0,0-.89.16-1.71.45-2.44Zm-.56-.64c.39-.08.67-.15.7-.16.07-.02.12-.09.13-.16.01-.92.05-1.85.09-2.77h10.2l.36,1.2-1.5,5h-4.71c-.03-.39-.2-.79-.49-1.11-.31-.35-.71-.58-1.03-.75-.97-.51-2.06-.84-3.15-.95h-.15c-.07,0-.13.04-.16.1-.01.03-.03.07-.04.1-.09-.12-.21-.34-.26-.51Zm12.75-6.15l-.61,2.01c-.41,0-.82,0-1.22-.01-.17,0-.35,0-.52,0,0-.01,0-.02,0-.04,0-.91.13-1.66.43-2.4h.02c.64.06,1.28.22,1.91.44Zm-1.1,3.67l-.18-.61h.37l-.18.61Zm-10.72-.95c0-.12.01-.24.02-.36h11.1l-.11.36h-11.01Zm6.31-3.72c.52.08,1.24.14,1.89.14.29,0,.57-.01.82-.04.03.5.22.65.44.7-.22.66-.32,1.35-.32,2.16,0,.01,0,.02,0,.03-.99,0-1.98-.01-2.94,0-.17-.18-.18-1.06-.06-1.58.09-.38.15-.94.16-1.42Zm3.87-1.23c.06-.22.13-.46.2-.73.14-.51.31-1.11.49-1.75h2.36l-1.32,4.39c-.41-.15-.84-.26-1.27-.34l-.47-1.57Zm.79-2.81c.03-.12.07-.24.1-.36h2.38l-.11.36h-2.37Zm.2-.7c.67-2.37,1.46-5.06,1.95-6.49h2.38l-1.95,6.49h-2.38Zm4.54-7.19l-.11.36h-2.36c.04-.13.08-.25.11-.36h2.37Zm5.37,2.37l-2.25-7.47.44-1.47,14.37,47.82c.03.11.02.22-.03.32-.05.1-.14.17-.25.2-.22.07-.46-.07-.53-.28,0,0-11.76-39.12-11.76-39.12Zm-5.5,28.46c-.1,0-.18-.08-.18-.18s.08-.18.18-.18h13.6l.11.36h-13.7Zm13.81.34l1.98,6.6h-13.05l-1.98-6.6h13.05Zm-13.36-1.04l-1.97-6.56h13.05l1.97,6.56h-13.05Zm-2.86-6.89c-.1,0-.18-.08-.18-.18s.08-.18.18-.18h13.73l.11.36h-13.84Zm.58-.7l-1.61-5.35.33-1.1h12.39l1.94,6.46h-13.05Zm-1.18-6.79l.11-.36h11.97l.11.36h-12.18Zm.24-.8l.41-1.37c.22.13.46.3.65.51.23.25.37.55.4.84-.48.01-.97.02-1.46.02Zm.51-1.71l1.51-5.02h7.66l2.05,6.83h-9.92s0-.01,0-.02c0-.4-.18-.82-.49-1.17-.24-.27-.53-.47-.8-.62Zm1.61-5.36l.11-.36h7.24l.11.36h-7.45Zm.21-.7l1.38-4.6h4.27l1.38,4.6h-7.03Zm2.14-7.13l1.37-4.57,2.03,6.77h-4.07l.66-2.2Zm.45,38.42c-.1,0-.18-.08-.18-.18s.08-.18.18-.18h13.74l.11.36h-13.85Zm-.39.16c.1.11.23.18.39.18h.55l.73,2.44c.03.11.02.22-.03.32-.05.1-.14.17-.25.2-.22.07-.46-.07-.53-.28l-.86-2.86Zm-4.58-15.24c.1.12.24.19.4.19h.54l1.97,6.56h-.09c-.29,0-.52.23-.52.52s.23.52.52.52h.41l1.98,6.6h-.24c-.26,0-.48.2-.51.45l-4.46-14.83Zm-1.25-4.15l.44-1.47,1.43,4.77h-.23c-.27,0-.49.2-.51.46l-1.13-3.77Zm-7.97,22.4l17.71-58.94c.05-.18.22-.3.4-.3.04,0,.08,0,.12.02.22.07.35.3.28.53,0,0-3.58,11.9-3.58,11.9,0,0-2.26,7.52-2.26,7.52l-11.88,39.51c-.07.22-.31.35-.53.28-.11-.03-.2-.11-.25-.2-.05-.1-.06-.21-.03-.32Zm.6-3.17h-13.53c-.1,0-.18-.08-.18-.18,0-.1.08-.18.18-.18h13.64l-.11.36Zm-14.12-.53l5.63-18.74s.06.02.1.04c0,.43-.15,1.07-.26,1.53-.05.22-.19.91.08,1.4-.11,0-.21,0-.32,0-.03,0-.06.01-.09.03-.25.03-.45.25-.45.51,0,.29.23.52.52.52h.1l-2.13,7.1h-.3c-.29,0-.52.23-.52.52s.23.51.51.52l-1.92,6.4h-.34c-.28,0-.52.23-.52.51s.23.52.52.52h.02l-.92,3.07c-.06.22-.31.35-.53.28-.11-.03-.2-.11-.25-.2-.05-.1-.06-.21-.03-.32l1.08-3.6v-.1h.03Zm7.3-48.02c-.4-.08-.79-.2-1.16-.36.02-.24.09-.48.21-.69.33.09.8.17,1.29.23-.03.29-.05.58-.05.87-.1-.01-.2-.03-.3-.05Zm-1.27-5.44s.06,0,.09,0c.21,0,.38-.06.52-.17.45-.36.46-1.19.47-1.98,0-.54.02-1.16.2-1.32.12.4.23.79.3,1.2.02.14.1.26.22.33.08.05.16.07.25.07.05,0,.09,0,.14-.02l.8-.24c.25-.07.41-.32.37-.58-.06-.41-.19-.8-.31-1.18l-.06-.18s-.01-.03-.02-.05c1.1-.37,2.37-.55,3.61-.72.44-.06.86-.12,1.28-.19.06.5.07.92.08,1.25,0,.11,0,.2,0,.29,0,.12.06.22.14.3.08.07.18.11.29.11,0,0,.02,0,.03,0,.27-.02.62-.05.81-.08.24-.05.41-.28.4-.52-.02-.35-.05-.68-.08-1,.37,1.7.57,3.87.47,5.07-.05.58-.1,1.18-.16,1.78-.05.58-.11,1.15-.15,1.72-.11,0-.24.03-.41.06-.05-.16-.11-.33-.18-.48-.04-.09-.14-.12-.22-.09-.09.04-.12.14-.09.22.3.7.44,1.48.4,2.24,0,.09.07.17.16.18,0,0,0,0,0,0,.09,0,.16-.07.17-.16,0-.1,0-.21,0-.31.09-.02.18-.03.28-.04,1.8,1.17,3.22,2.65,4.86,4.36.54.56,1.1,1.15,1.7,1.75.22.22.39.5.51.82.14.37.14.77.15,1.17.02.39.07.79.03,1.18-.04.41-.15.81-.29,1.2-.71,1.98-2.06,6.83-2.79,9.43-.24.85-.41,1.47-.48,1.69-.26.22-2.55.23-3.59-.04.13-1.09,1-8.14,2.08-10.83.18-.44.22-.69.15-.85-.04-.1-.14-.18-.22-.26-.04-.03-.08-.07-.1-.09-.16-.2-.09-.5.08-.68.2.03.42.05.64.05.3,0,.61-.04.89-.18.08-.04.12-.14.08-.23-.04-.08-.14-.12-.23-.08-.42.2-.94.15-1.38.1-.41-.23-.8-.52-1.18-.79-.39-.29-.8-.58-1.23-.82l-.42-.24c-.11-.06-.27-.16-.46-.27-.48-.28-1.1-.65-1.59-.9.1-.08.21-.14.33-.19.09-.03.13-.13.1-.22-.03-.09-.13-.13-.22-.1-.25.09-.45.24-.63.42-.33.34-.55.78-.72,1.17-.54,1.27-1.89,9.65-1.9,10.5-.03,1.97-.15,3.94-.26,5.84-.11,1.87-.23,3.79-.26,5.73-.38.09-1.57.37-2.47.37-.02,0-.03,0-.05,0-.05,0-.1,0-.17,0-.31,0-.88.01-1.12-.11-.07-.66-.51-5.32-.51-8.21,0-1.01.17-2.7.37-3.7.11-.52.16-1.32-.05-1.85-.02-.05-.04-.1-.06-.15-.03-.06-.06-.12-.08-.19-.07-.23,0-.42.08-.64.06-.15.11-.3.14-.47.03-.28.02-.58,0-.87,0-.17-.02-.32-.02-.47l.05-10.42c0-.09,0-.18,0-.27,0-.68,0-1.22.46-1.69,0,0,.01-.02.02-.03.36.15.73.26,1.11.34.12.02.25.04.37.06,0,.15.01.3.02.45,0,.09.08.16.17.16,0,0,0,0,.01,0,.09,0,.16-.09.16-.18-.06-.8-.03-1.5.12-2.29.02-.09-.04-.18-.14-.2-.09-.02-.18.04-.2.14-.02.13-.04.26-.06.38-.52-.07-1-.15-1.31-.24,0,0,0,0-.01,0-.01-.05-.02-.12-.03-.18v-.08c-.03-.11-.01-.22.04-.32.01-.02.02-.05.03-.07.09-.23.05-.49.02-.69-.11-.67-.27-1.66-.39-2.69Zm-3.26,3.65l-1.34,2.05c-.2-.19-.35-.27-.58-.41-.08-.05-.18-.11-.29-.18-.33-.21-.67-.37-1-.47.27-.57.92-1.48,1.26-1.94.04-.01.07-.04.09-.08,0,0,.02.02.03.02.28.14.55.31.8.51.03.03.07.04.11.04.05,0,.1-.02.13-.06.06-.07.05-.18-.03-.24-.26-.21-.55-.4-.86-.55-.02-.01-.05-.02-.07-.02.18-.56.3-1.13.42-1.69.17-.84.65-2.3,1-3.37l.15-.46c.76-2.36,1.25-3.14,1.46-3.48.03-.05.06-.09.08-.13.1-.18.23-.33.38-.42-.16.36-.36.55-.37.55-.05.05-.07.12-.04.19.03.06.09.11.16.11.18,0,.46-.07.73-.25-.05.25-.07.53,0,.86.26,1.14,1.25,1.29,1.29,1.29,0,0,.01,0,.02,0,.06,0,.12-.03.15-.09.03-.06.03-.14-.02-.19,0,0-.57-.67-.47-1.31.29.86.79,1.42,1.12,1.71.05.18.1.36.15.54,0,0-.02,0-.03,0-.39.21-.4.88-.41,1.64-.01.69-.02,1.46-.35,1.72-.11.09-.25.11-.44.09-.08-.68-.14-1.37-.16-1.96.13-.39.21-.71.23-.91,0-.09-.06-.17-.16-.18-.09,0-.17.06-.18.15-.02.19-.1.49-.22.85,0,0,0,0,0,.01-.59,1.73-2.13,4.98-2.44,5.53-.11.2-.21.36-.26.44l-.03.05Zm-2.37,3.87s-.05-.08-.08-.12c0,0,0,0,0-.01-.47-.67-1.06-1.03-1.94-1.17-.03,0-.06,0-.09.01.04-.17.14-.43.34-.85.05-.11.1-.2.12-.26.08-.2.2-.27.38-.23.41.09.84.26,1.25.52.12.07.21.13.3.18.29.17.42.25.74.58,0,.23-.62.98-1.02,1.35Zm-1.59,2.27c-.11.79-.47,1.58-.98,2.17-.03-.07-.07-.15-.12-.22.04-.04.05-.1.03-.16-.02-.07-.08-.11-.14-.12.02-.07.05-.15.08-.22.06-.16.12-.32.14-.48,0,0,0,0,0-.01.07-.06.14-.12.2-.2.06-.07.04-.18-.03-.24-.07-.06-.18-.04-.24.03-.1.14-.25.24-.41.3h-.02c-.06.02-.14.05-.2.12-.04.05-.06.1-.08.14l-.22.54c-.04.09,0,.19.09.22.02,0,.04.01.06.01.06,0,.11-.03.14-.08.03.01.06.03.08.04-.09.07-.17.14-.23.19-.17.16-.26.32-.27.48,0-.03-.02-.06-.02-.09,0-.03-.01-.06-.03-.09,0-.02,0-.07,0-.1v-1.6c0-.09-.08-.17-.17-.17s-.17.08-.17.17v1.56c-.06-.05-.1-.09-.11-.13-.04-.13-.04-.28-.04-.42,0-.17,0-.35.01-.52,0-.18.01-.36.01-.54,0-.09-.08-.17-.17-.17-.09,0-.17.08-.17.17,0,.17,0,.35-.01.52,0,.13,0,.26-.01.39,0-.02-.02-.04-.02-.07-.04-.13-.06-.32-.05-.48,0-.09.04-.34.1-.69,0-.02.01-.04.03-.05.43-.39,1.79-1.89,1.88-2.11.09-.23.23-.42.38-.61.15-.2.31-.42.41-.68.61.14,1.05.41,1.41.88-.23.29-.86,1.08-.96,1.35-.1.24-.12.5-.15.75,0,.08-.02.15-.03.23Zm-1.26,2.39c-.16.1-.33.18-.52.24,0-.01,0-.02,0-.04-.02-.09.08-.21.16-.29.08-.07.15-.13.21-.18.06.08.11.18.14.27Zm.06.76v.37c-.3-.03-.61-.05-.92-.05-.28,0-.57.01-.85.04v-1.43s.02.06.03.09c.07.22.36.41.52.47.09.24.27.31.44.31.03.02.07.04.11.04.01,0,.02,0,.04,0,.23-.05.44-.14.64-.25,0,.11,0,.22,0,.3,0,.05,0,.08,0,.11Zm1.9,1.49c0,.25-.55.57-1.51.73l-.04-1.47c.98.16,1.55.48,1.55.74Zm-5.66,5.83v-.28c.56.41,1.72.63,2.83.63s2.27-.22,2.83-.63v.28c0,.35-1.08.84-2.83.84s-2.83-.49-2.83-.84Z"/>
          </g>
          <g>
            <path class="cls-2" d="m10.68,128.06s.08-.09.13-.08c.03,0,.06.03.08.06.01.02.03.03.04.05,0,.04.18.63.35.89.16.26.49,1,.55,1.04.04.08.8,1.47,1.12,1.95.09.14.19.27.3.39,0,.01.02.03.03.04.14.16.34.25.54.32.1.03.2.06.3.09.14.05.29.1.44.13.51.11,1.04.03,1.55-.07.15-.03.31-.06.45-.14.1-.03.19-.06.29-.1.29-.11.16.31.04.44-.16.17-.39.23-.61.28-.23.05-.47.09-.7.11-.23.01-.46,0-.69,0-.41-.02-.83-.04-1.21-.18-.62-.24-1.07-.78-1.4-1.35-.33-.57-.57-1.2-.92-1.76-.11-.17-.23-.34-.33-.51-.09-.16-.17-.34-.25-.51-.08-.17-.16-.35-.19-.53-.03-.19-.01-.39.09-.55Z"/>
            <path class="cls-15" d="m14.56,132.93c-.15-.03-.29-.08-.44-.13-.04-.01-.09-.03-.13-.04-.22-.08-.45-.16-.63-.3-.04-.03-.08-.07-.11-.1-.11-.12-.21-.25-.3-.39-.32-.47-.55-1.02-.87-1.49-.02-.03-.07-.12-.13-.24-.03-.06-.07-.14-.11-.21-.2-.38-.45-.88-.55-1.04-.16-.26-.35-.85-.35-.89.01-.06.02-.12.04-.17.17-.6.59-1.09.99-1.56.02-.03.05-.06.08-.06.04,0,.07.02.1.05.25.22.48.48.78.62.28.13.61.15.92.17.27.01.54.02.81.04.29.02.24.2.24.46,0,.56-.11,1.12-.04,1.68.12.97.78,1.8,1.56,2.39.21.15.44.34.44.6,0,.17-.12.32-.27.41-.01,0-.33.13-.48.16-.51.1-1.04.17-1.55.07Z"/>
            <path class="cls-2" d="m24.03,132.23c.08-.06.19-.04.31.01.04.06.08.11.14.15.09.06.21.06.3.12.66.46,2.39.4,2.53.45.78.29,1.61.19,2.42.4.3.07,1.99.05,2.32-.02.23-.05.4-.09.56-.13.14-.01.28-.03.42-.06.11-.02.22-.06.32-.09.07-.03.2-.11.28-.1.19.02.12.35.04.45-.12.16-.32.24-.51.29-.93.28-1.92.3-2.88.23-.97-.08-1.92-.25-2.88-.36-.21-.02-.42-.05-.63-.05-.31,0-.61.02-.92-.01-.34-.03-.67-.13-1-.23-.22-.07-.45-.14-.63-.28-.1-.08-.18-.18-.21-.29-.03-.12-.07-.38.03-.45Z"/>
            <path class="cls-15" d="m29.73,133.35c-.81-.2-1.64-.11-2.42-.4-.15-.05-1.87,0-2.53-.45-.09-.06-.21-.06-.3-.12-.06-.04-.1-.09-.14-.15-.12-.17-.15-.41-.16-.63-.05-.61.38-2.23.47-2.22.6.08,1.36.25,1.96.23.46-.01.89-.22,1.35-.21.41.01.66.52.99.74.48.33.98.64,1.48.94.55.34,1.21.51,1.82.71.27.09.55.16.79.3.25.14.46.36.52.64,0,.05.01.1-.01.14-.03.06-.11.08-.17.1-.33.08-.53.14-.76.2-.16.04-.32.08-.56.13-.33.07-2.02.1-2.32.02Z"/>
            <path class="cls-19" d="m30.36,107.88c-.36,3.84-.8,7.47-1.16,11.31-.3,3.21-.42,6.68-.72,9.89-1.06.83-4.17.13-4.16,0,.11-1.2.07-2.8.09-4,.04-1.67-.15-3.42.03-5.22.06-.63.3-5.44.34-6.11,0-.16-.04-1.87-.08-3.27-.06-1.91-.21-3.85-.83-5.66-1.19,2.32-1.54,2.93-3.19,8.53-.09.32-.47,1.15-.62,1.45-.93,1.76-2.83,6.02-3.01,6.72-.55,2.25-1.43,3.39-1.84,5.66-.97.21-2.44-.12-3.3-.77.26-3.66,1.32-5.64,2.13-9.22.55-2.4,1.2-3.13,1.43-3.74.14-.38.14-2.16.19-2.56.55-4.15,1.39-8.67,2.48-12.41.98.39,1.79.59,2.82.79,1.11.21,3.03.66,4.17.67,1.2.01,1.85.07,3.05.01.58-.03,1.16-.08,1.73-.14.62-.06.77-.49.82.13.23,2.45-.16,5.49-.39,7.94Z"/>
            <path class="cls-17" d="m28.05,80.88c.05.18-.05.49-.2.59-1.01.71-2.12-.47-2.5-.76-.61-.47-.9-.65-1.63-1.49.09-.06.17-.16.25-.26.31-.42.52-1.07.59-1.26.15-.43.16-1.11.51-1.4.2.14.48.06.65-.1s.26-.4.34-.62c-.2-.17-.4-.35-.52-.57-.13-.23-.17-.51-.06-.75.11-.23.35-.38.6-.41.25-.03.51.04.73.15.2.1.39.24.61.24.17,0,.33-.08.49-.17.66-.36,1.33-.73,1.85-1.27.11-.11.29-.21.4-.32.07-.07.13-.14.21-.18.04.19.09.37.15.56.13-.07.26-.13.33-.25.09.3.11.63.06.94-.05.26-.15.52-.1.78.03.15.1.29.18.41.15.23.32.45.52.64.05.04.1.09.11.16.02.11-.08.19-.17.25-.27.21-.5.48-.6.81-.07.23-.06.48-.08.71-.04.41-.17.94-.54,1.13-.2.1-.45.03-.67.04-.28.01-1.01-.13-1.04-.11-.03.02-.17.34-.19.38-.17.3-.15.62-.21.87-.1.41-.21.73-.06,1.25Z"/>
            <path class="cls-18" d="m10.88,88.44c.21-.36.49-.67.81-.94.18-.15.37-.27.54-.43.34-.31.58-.7.87-1.05.11-.14.31-.41.49-.47,0,0,.47-.15,1.18-.38.26-.08.55-.18.86-.28,2.53-.81,6.52-2.08,6.52-2.08l2.11,4.86-3.77.89-5.4,1.28-.05-.14c-.6.17-1.28.36-1.65.39-.19.01-.39.02-.58.08-.16.05-.3.13-.46.18-.25.07-.53.05-.78.14-.22.08-.43.24-.66.2-.26-.04-.41-.33-.48-.58-.04-.15-.07-.31-.11-.46-.02-.1-.04-.2-.01-.3.01-.05.04-.1.07-.15.03-.05.07-.09.1-.13.15-.19.26-.42.38-.63Z"/>
            <path class="cls-11" d="m10.29,92.38c-.07-.23-.14-.47-.19-.71-.01-.05-.02-.1-.02-.15.08-.06.16-.12.24-.17.24-.16.58-.49.88-.51.12,0,.22.05.28.16.05.1.15.41.1.51,0,.02-.02.02-.04.03-.1.07-.16.16-.23.25l-.99.66s-.03-.04-.04-.07Z"/>
            <path class="cls-11" d="m7.07,93.79c.19-.24.48-.35.74-.52.02.04.03.07.05.1.06.12.25.55.58.15.07-.08.14-.08.23-.03-.33.22-.65.44-.97.67-.11.08-.23.16-.34.25-.06-.18-.16-.35-.28-.5-.01-.02-.03-.04-.03-.06,0-.02.01-.04.03-.05Z"/>
            <path class="cls-11" d="m9.8,93.83s.07-.05.11-.06c.05-.01.1,0,.15,0,.23.01.46-.12.57-.32.01-.03.03-.06.05-.08.02-.02.05-.03.08-.03.14-.04.28-.07.42-.11.02,0,.03,0,.04-.02.03-.03,0-.09-.04-.12-.18-.16-.36-.32-.54-.48-.05-.05-.11-.1-.18-.11-.04,0-.08,0-.11-.03,0,0,0,0,0-.01l.99-.66.3-.2,8.73-1.91,5.76-1.26-5.84,3.57-1.28.24-11.61,2.17,1.34-.89c.21.14.45.46.69.45.14,0,.28-.06.39-.14Z"/>
            <path class="cls-11" d="m10.65,89.69c-.09-.1-.21-.22-.35-.33.11-.38.48-.62.75-.93.27-.31,1.61-1.88,1.99-2.39.11-.15.28-.57.52-.38.17.14.21.61.27.81.17.51.39.99.6,1.49.22.54.43,1.1.6,1.65.02.06.04.14,0,.18-.02.02-.05.03-.08.04-.64.21-3.2.76-3.83.87-.06.01-.12.02-.18.01-.02,0-.03,0-.04,0,.1-.36,0-.77-.26-1.05Z"/>
            <path class="cls-17" d="m8.44,93.52c-.33.4-.52-.04-.58-.15-.02-.03-.03-.06-.05-.1-.07-.16-.14-.37-.13-.53.02-.36.05-.57-.01-.93-.01-.08.02-.36.02-.44,0-.12.04-.21.07-.33.06-.33.44-.69.51-1.02.01-.08.03-.16.07-.22.03-.05.06-.09.1-.14.19-.23.38-.45.57-.68.01-.01.02-.03.04-.04.03,0,.05,0,.08.02.15.06.32.03.48.05.23.03.48.18.7.35.14.11.26.22.35.33.25.28.36.68.26,1.05,0,0,0,.02,0,.02,0,.03-.02.06-.04.08-.02.03-.06.04-.09.06-.2.09-.39.22-.56.37-.05.05-.11.1-.13.17,0,.03-.01.05-.01.08,0,.05,0,.1.02.15.06.24.12.47.19.71,0,.03.02.05.04.07,0,0,0,0,0,.01.03.02.07.02.11.03.07.01.13.06.18.11.18.16.36.32.54.48.04.03.07.09.04.12-.01.01-.03.02-.04.02-.14.04-.28.07-.42.11-.03,0-.06.02-.08.03-.02.02-.04.05-.05.08-.11.2-.34.34-.57.32-.05,0-.1-.01-.15,0-.04.01-.07.04-.11.06-.11.08-.25.13-.39.14-.24.01-.49-.31-.69-.45-.02-.01-.03-.02-.05-.03-.09-.04-.16-.05-.23.03Z"/>
            <path class="cls-10" d="m31.83,72.41c.24.23.39.54.43.87.15-.49.3-1.03.1-1.5-.14-.33-.44-.58-.78-.71-.07-.03-.14-.05-.18-.11-.04-.05-.05-.13-.07-.19-.09-.39-.49-.67-.89-.64-.18.01-.36.09-.55.08-.21,0-.39-.12-.58-.21-1.18-.62-2.59-.91-3.86-.51-.22.07-.78.23-.98.37-.21.14-.35.36-.52.55-.54.63-.79,1.31-1.33,1.94.16.1.36.11.53.02.16.32.01.73.16,1.06.06.14.18.25.21.4.03.15.11.67.18.77.25.35.52.71.68,1.11.17.4.22.87.05,1.27.34-.06.65-.22.69-.57.2.06.38,0,.54-.13.16-.13.29-.47.4-.65-.27-.21-.49-.49-.57-.82-.08-.33.01-.71.27-.93.26-.22.69-.23.92.02.08.09.14.21.24.28.24.19.6.06.82-.14.09-.09.17-.19.29-.24.09-.04.18-.05.28-.07.83-.14,1.59-.67,2.01-1.39.08.12.12.25.14.39.14-.12.28-.24.41-.35,0,0,.08.35.08.39,0,.15-.02.29-.05.44-.05.26-.19.62-.12.88.16.59.88-.52.96-.72.11-.3.14-.62.08-.93Z"/>
            <path class="cls-2" d="m30.42,76.59s-.12,1.04-.81.83-.67-.97-.67-.97c0,0,.42.09.82.14.32.04.66,0,.66,0Z"/>
            <path class="cls-7" d="m31.31,83.36h8.77c.1,0,.19.08.19.17v6.57l-.81.02c.06,0,.27-.03.39-.31.05-.11.18-.84.17-.96-.01-.12-.1-.23-.22-.24-.07,0-.13.03-.19.06-.36.24-.3.88-.34.88-.17,0-.43.29-.73.37-.37.1-.78,0-.99-.06-.19-.05-.43.02-.65.14l-4.04-.22-1.74-.1v-6.14c0-.09.08-.17.19-.17Z"/>
            <path class="cls-17" d="m37.54,89.86c.21.06.62.16.99.06.3-.08.56-.37.73-.37.04,0-.01-.64.34-.88.06-.04.12-.07.19-.06.12,0,.21.12.22.24.01.12-.12.85-.17.96-.11.27-.32.3-.39.31l.81-.02h.05c.22-.62-.03-1.32.02-1.97.01-.14.2-.19.28-.07.05.08.1.16.13.24.03-.09.06-.19.13-.26.07-.07.17-.11.26-.07.05.02.08.06.11.11.09.16.09.36.05.55-.04.18-.12.36-.17.54-.08.29-.09.88-.23,1.15-.1.19-1.32,1.01-1.9,1.13-.22.05-.45.05-.67.06-.25,0-.5,0-.74-.04-.31-.07-1.11.03-1.15-.04-.02-.03.01-.37.01-.4,0-.17,0-.34,0-.51,0-.06-.02-.11-.05-.15.13-.12.31-.25.5-.35.22-.12.46-.19.65-.14Z"/>
            <rect class="cls-7" x="33.78" y="83.4" width="3.82" height="1.64"/>
            <path class="cls-14" d="m11.18,85.21c.16-.22.99-1.51,1.48-1.73,0-.07,3.82-2.62,4.27-2.82,1.16-.53,1.7-1.3,2.92-1.65.75-.21,2.08-.18,2.86-.16.42.01.84.02,1.26.03-.08.11-.16.2-.25.26.73.83,1.02,1.02,1.63,1.49.38.29,1.49,1.48,2.5.76.15-.11.25-.42.2-.59-.15-.52-.04-.84.06-1.25.04.02.09.05.13.08,1.02.75,2.68.46,3.5,1.41.34.4.53.86.54,1.39,0,.26-.04.56-.1.86h-.88c-.1,0-.19.08-.19.17v6.14l1.74.1c1.19.11,2.38.18,3.61.44.01.43,0,.87-.05,1.3-1.62.75-3.34.64-5.25.64-.01,1.47-.32,2.05-.34,3.36,0,.27-.1.76-.04,1.03.06.27.07.73.15.99.17.56.33,1.55-.21,1.94-.3.22-.88.32-1.24.38-.46.08-1.01.01-1.48.05-3.39.3-6.19-.33-9.51-1.34-.15-.05-.54-.1-.61-.24-.05-.11,0-.75.02-.9.12-.76.3-1.23.42-1.66.33-1.21.32-2.57.65-3.52l1.28-.24,5.84-3.57-.19-.92-5.42,1.17s0-.07,0-.11l3.77-.89-2.11-4.86s-3.99,1.27-6.52,2.08c-.29.08-.58.17-.86.28-.71.23-1.18.38-1.18.38-.18.06-.37.33-.49.47-.29.35-.53.75-.87,1.05-.17.15-.36.28-.54.43-.32.26-.6.58-.81.94-.13.21-.23.44-.38.63-.03.04-.07.09-.1.13-.24.02-.5-.05-.88-.18-.09-.03-.79-.02-.76-.08.66-1.23,1.47-2.31,2.43-3.63Z"/>
            <polygon class="cls-18" points="26.11 88.34 11.62 91.5 11.3 90.57 20.5 88.58 25.92 87.41 26.11 88.34"/>
            <path class="cls-1" d="m26.55,75.15s-.04,0-.06,0c-.07,0-.14-.04-.16-.11-.02-.05-.09-.22-.26-.28-.09-.03-.13-.13-.1-.22.03-.09.13-.13.22-.1.3.11.42.38.46.49.03.09-.02.18-.1.21Z"/>
            <path class="cls-1" d="m29.79,74.42c0-.2.12-.36.25-.34.13.01.23.18.23.37,0,.2-.12.36-.25.34-.13-.01-.23-.18-.23-.37Z"/>
            <path class="cls-1" d="m30.4,76.42s-.31.04-.61,0c-.39-.05-.81-.14-.81-.14-.05-.01-.1,0-.14.03s-.06.08-.06.13c0,.31.15.94.79,1.13.08.02.15.03.22.03.12,0,.24-.03.34-.1.37-.24.45-.84.46-.9,0-.05-.01-.1-.05-.14-.04-.04-.09-.05-.14-.05Zm-.19.36c-.05.16-.13.36-.27.45-.08.05-.17.06-.28.03-.35-.11-.48-.39-.53-.59.16.03.39.07.61.1.17.02.34.02.46.02Z"/>
            <path class="cls-1" d="m27.96,72.33c.07-.07.17-.07.24,0,.07.07.07.17,0,.24-.67.69-1.52.93-2.18.93-.08,0-.16,0-.23-.01-.73-.08-.99-.24-1.02-.26-.06-.04-.09-.12-.07-.19.02-.07.08-.12.16-.12.01,0,1,.01,1.47-.52.06-.07.17-.08.24-.01.07.06.08.17.01.24-.24.27-.57.42-.88.51.04,0,.07,0,.11.01.59.05,1.46-.13,2.13-.81Z"/>
            <path class="cls-1" d="m6.86,93.85l.22.62s.06.09.1.1c.02,0,.04,0,.05,0,.02,0,.04,0,.06-.01.02,0,.04.01.07.01.01,0,.02,0,.03,0l11.32-2.11c-.1.49-.18,1.01-.25,1.51-.14.96-.29,1.95-.61,2.83-.26.69-.22,1.18-.17,1.42.03.14.12.26.25.31,0,0,.02,0,.03.01-.68,2.8-1.94,8.13-2.06,8.9-.09.64-.55,3.91-.52,5.68,0,.04,0,.12,0,.2-.03.02-.05.04-.06.07-.07.14-.24.42-.34.57-.37.55-.55,1.17-.73,1.87-.3,1.16-.64,2.25-.96,3.3-.7,2.28-1.37,4.43-1.64,6.98,0,.05.01.1.04.13,0,0,.01.01.02.02-.49.49-.64.83-.84,1.36-.06-.01-.12,0-.17.06-.05.06-.09.1-.12.14-.22.24-.25.34-.12.8.08.3.37.89.58,1.32.1.2.18.37.21.44.1.25,1.24,2.22,1.71,2.61.52.44,1.25.69,1.98.69.09,0,.17,0,.26-.01,1.56-.13,1.7-.23,1.87-.44h.01c.11-.14.16-.34.14-.53-.01-.11-.05-.2-.11-.28.01-.19-.08-.4-.27-.57-.11-.1-.23-.17-.34-.24-.06-.03-.11-.07-.16-.11-.6-.42-.89-1.14-1.12-1.72-.05-.11-.09-.23-.12-.34-.04-.16-.05-.34-.06-.52,0-.09-.01-.19-.02-.28-.03-.49-.06-.87.12-1.31.03,0,.06,0,.09,0,0,0,.01,0,.02,0,.01,0,.03,0,.04-.01,0,0,.01,0,.02-.01.01,0,.02-.01.03-.02,0,0,.01-.01.02-.02,0,0,.01-.02.02-.03,0,0,0-.02,0-.03,0,0,0,0,0-.01.54-3.24,4.23-11.29,4.49-11.71.29-.45.49-.95.68-1.43l.05-.12c.33-.82.65-1.88.99-3.02.44-1.46.89-2.98,1.38-4,.25-.53.53-1.09.87-1.61.46,2.31.64,4.42.62,7.01,0,.62.12,1.15.15,1.27-.02.4-.3,5.04-.37,6.64-.1,1.94-.09,3.74-.08,5.65,0,1.07,0,2.17,0,3.29,0,.05.02.1.06.14.05.04.13.08.23.11-.03.09-.06.19-.09.3-.15.49-.34,1.1-.33,1.42,0,.1,0,.21,0,.32,0,.2,0,.36,0,.5-.05.03-.09.08-.13.14-.11.19-.12.53-.05.66.23.4,1.11.72,1.83.84.36.06.65.05.93.04.27,0,.53-.02.85.04,1.39.23,2.52.38,3.56.38h.03c.86,0,1.75,0,2.57-.35,0,0,.02,0,.02-.01l.1-.06s.03-.02.04-.03c.07-.09.13-.19.15-.29.01-.05.02-.09.01-.13,0-.2-.14-.36-.24-.47,0,0,0,0-.01,0-.15-.61-.7-.81-1.18-.99-.08-.03-.16-.06-.24-.09-.2-.08-.4-.14-.6-.19-.14-.04-.29-.08-.43-.13-.56-.2-1.07-.51-1.57-.81-.37-.22-.75-.45-1.05-.74-.12-.11-.21-.21-.27-.28.11-.05.2-.1.26-.17.02-.03.03-.06.04-.09.16-1.3.92-13.06.95-13.56.59-4.07.92-8.34,1.21-12.11.1-1.27.1-3.77.1-4.04.12-.09.2-.21.23-.36.09-.44.06-.96-.08-1.64-.15-.71-.18-1.45-.08-2.32.09-.82.15-1.81.2-2.86.3.01.59.02.87.02,1.62,0,2.87-.22,4.43-.6.07-.02.11-.07.13-.13.26.02.5,0,.73-.01.29-.02.56-.04.88,0,.14.02.29.04.44.04.03,0,.07,0,.11,0,.44-.03.82-.28,1.13-.48l.72-.47s.1-.07.15-.12c.28-.15.39-.67.53-1.43.04-.22.08-.43.12-.6.03-.1.06-.22.03-.35-.03-.18-.17-.32-.33-.33-.13-.01-.24.08-.33.18-.07-.12-.17-.21-.3-.25-.03-.01-.06-.01-.09,0v-4.26c0-.19-.16-.34-.36-.34h-7.63c0-.09-.01-.27-.02-.44,0-.14,0-.29-.02-.45-.03-.66-.37-1.26-.92-1.62-.49-.32-.99-.45-1.53-.58-.51-.13-1.04-.27-1.63-.58.09-.36.22-.84.32-.93.16-.04.31-.01.51.02.17.03.39.06.66.07.59,0,.89-.24,1.04-.86.07-.28.12-.61.16-.9.04-.24.07-.46.1-.56.04-.11.1-.15.2-.22.05-.03.09-.06.14-.09.22-.17.34-.36.34-.53-.01-.23-.18-.37-.35-.51-.18-.15-.37-.31-.42-.59.62-.28.91-.68.94-1.29,0-.11,0-.21,0-.31.11.35.06.72.06.72-.01.08.03.15.1.18.07.03.15,0,.2-.06.02-.02.38-.53.26-1.34-.1-.63-.28-1.3-1.17-1.44-.01-.27-.09-.49-.22-.62-.43-.4-1.3-.23-1.39-.21-.09.02-.15.11-.13.2.02.09.11.15.2.13.22-.05.84-.11,1.09.12.17.16.18.75-.12,1.52-.07.18-.14.32-.21.42.04-.26.07-.6.05-1.02,0-.09-.08-.17-.18-.16-.09,0-.16.08-.16.18,0,.12,0,.23,0,.34,0,0,0,.01-.01.02-.13.46-.49.89-1.08,1.33-.26.19-.57.34-.84.44.4-.37.88-.91,1.07-1.52.03-.09-.02-.18-.11-.21-.09-.03-.18.02-.21.11-.31,1.01-1.57,1.86-1.58,1.87-.07.04-.09.13-.06.2.01.03.04.06.07.08-.18.07-.4.07-.62-.08-.08-.05-.18-.03-.23.05-.05.08-.03.18.05.23.18.12.38.18.57.18.33,0,.67-.17.96-.49,0,0,0-.01,0-.02.29-.09.65-.24.97-.44,0,.04.01.07.04.1.03.04.08.06.13.06.04,0,.08-.01.11-.04.16-.14.43-.23.68-.09.08.04.18.01.23-.07.04-.08.01-.18-.07-.23-.2-.11-.44-.13-.66-.07.19-.16.35-.32.49-.49-.01.06-.03.11-.04.14-.02.09-.04.15,0,.22.03.04.07.07.12.07,0,0,0,0,.01,0,.08,0,.25-.08.44-.31.03.28,0,.56-.05.82-.03.2-.06.4-.06.61,0,.54.33.81.56,1,.12.1.22.18.23.26,0,.03-.05.14-.21.25-.04.03-.08.05-.12.08-.13.08-.27.17-.35.4-.04.12-.07.34-.11.61-.04.28-.09.6-.16.87-.11.46-.27.6-.68.6,0,0-.02,0-.02,0-.25,0-.45-.04-.62-.07-.16-.03-.3-.05-.45-.04-.46-.1-.96-.24-1.22-.39,0,0,.07.33.23.64.11.21.26.41.35.52-.05.19-.11.42-.18.69v.02c-.03.09-.16.6-.03,1.19,0,0,0,.02,0,.02,0,0,0,.01,0,.02.04.08.03.16-.04.26-.13.2-.44.36-.65.34-.88-.07-2.37-1.21-3.19-2.22.21-.26.85-1.68.91-2.37.09-.09.18-.22.24-.37.02,0,.04,0,.05,0,.16,0,.34-.06.5-.16.22-.14.38-.35.46-.59.11.06.23.1.35.13.02,0,.03,0,.05,0,.07,0,.14-.05.16-.12.03-.09-.03-.18-.12-.21-.5-.14-1.04-.52-.93-1.15.05-.25.13-.42.24-.48.11-.06.28-.04.53.06.09.03.18,0,.22-.1.03-.09,0-.18-.1-.22-.22-.09-.55-.18-.82-.04-.2.11-.34.35-.4.71-.09.52.15.94.52,1.22-.04.19-.17.37-.34.49-.09.06-.18.09-.27.1.01-.06.02-.13.03-.2,0-.09-.06-.17-.16-.18-.09,0-.17.06-.18.16-.03.4-.19.63-.32.75.03-.21.03-.56-.1-1.01-.08-.29-.23-.52-.38-.75-.17-.26-.32-.5-.39-.84.1.06.18.09.24.11.02,0,.06.02.1.02.04,0,.08,0,.11-.04.07-.06.08-.16.02-.24-.02-.03-.51-.67-.04-1.56.04-.08.01-.18-.07-.23-.08-.04-.18-.01-.23.07-.3.59-.27,1.09-.17,1.43-.15-.12-.3-.3-.35-.52-.1-.44-.02-.71.02-.82.02-.05.03-.1.02-.15,0-.04-.04-.08-.07-.1-.09-.06-.17-.01-.2,0-.12.06-.23.1-.34.1.17-.14.39-.36.56-.64.07-.1.13-.22.2-.35.29-.53.66-1.19,1.58-1.52,1.16-.4,2.62-.28,4.02.33.09.04.18,0,.22-.09.04-.09,0-.19-.09-.22-1.48-.64-3.03-.77-4.27-.33-1.04.36-1.46,1.12-1.76,1.67-.07.12-.13.24-.19.33-.2.32-.48.55-.62.67-.12.1-.18.15-.17.24,0,.05.03.1.06.13,0,0,.02.01.03.02.15.07.36.13.63.07-.03.17-.03.42.04.73.05.24.18.44.33.59.02.6.27.98.49,1.32.14.21.27.42.34.66.16.54.09.9.07,1.03,0,.03,0,.05-.01.06,0,.08.03.16.09.2.04.03.09.04.14.04.01,0,.03,0,.04,0-.13.55-.48,1.36-.68,1.74-1.04-.16-2.65-.18-3.76-.04-.17.02-.34.07-.49.16-1.02.56-6.21,3.4-7.63,4.87-.52.54-2.87,4.1-3.05,4.45-.04.08-.08.13-.12.19-.07.1-.14.2-.19.36-.01.04,0,.08.01.12-.43.6-1.15,1.8-1.15,2.35,0,.01-.01,1.17,0,1.37,0,.1.02.22.05.34l-.66.58c-.05.05-.07.12-.05.18Zm24.16-19.8c.01-.11.03-.22.04-.33.05-.38.12-.82-.03-1.28.04-.08.08-.17.12-.26.13-.34.21-.66.25-.94.57.1.74.48.85,1.15.02.11.02.21.02.31-.01-.04-.03-.07-.04-.11-.12-.27-.34-.53-.49-.59-.01,0-.02,0-.03,0,0,0,0,0,0,0-.05,0-.1.01-.13.04-.08.07-.06.16-.03.31.04.17.1.46.09.77-.02.43-.2.71-.61.93Zm-23.34,19.38c.05.13.11.24.15.28.02.02.05.05.07.07l-.57.37-.11-.31.46-.41Zm3.01.19s.04-.05.06-.08c0,0,0,0,0,0,.02,0,.05,0,.07,0,.13,0,.26-.02.39-.05.01,0,.03,0,.04-.02.09-.05.14-.12.16-.21.04-.18-.09-.35-.11-.38-.01-.02-.03-.03-.04-.04l-.52-.33s-.07-.04-.1-.07l1.06-.68,13.48-2.94-4.96,3.04-9.52,1.78Zm11.37-10.6l2.05,4.71-8.89,1.92-1.43-4.15,2.44-.73.82,2.29c.02.07.09.11.16.11.02,0,.03,0,.05,0l3.56-1.11s.08-.05.1-.09c.02-.04.02-.09,0-.14l-.9-2.2,2.03-.61Zm-2.36.71l.84,2.06-3.23,1.01-.76-2.12,3.15-.94Zm-4.82,6s-3.62.78-3.62.78c-.02,0-.04.01-.06.03l-.12.09c-.04-.2-.11-.48-.2-.7-.11-.29-.3-.56-.36-.64l2.98-3.56,1.38,4Zm-3.67,1.22l.2.59-1.01.65c-.05-.11-.08-.24-.11-.39,0-.04-.02-.1-.02-.16l.94-.69Zm14.57-3.23l.12.59-14.18,3.09-.21-.61,14.27-3.08Zm-16.99,6.26l-.8.15.53-.34c.08.07.17.14.27.19Zm-.94-2.59c0-.43.69-1.63,1.15-2.24.13,0,.31.02.47.05.09.02.5.18.78.31.06.08.21.31.31.55.1.26.18.62.22.8l-.28.21s-.05-.06-.07-.09c-.02-.03-.05-.05-.07-.08-.08-.1-.19-.25-.22-.28-.04-.05-.1-.08-.17-.06-.09.02-.15.11-.13.2.03.13.04.34.06.54.02.21.03.43.07.58.05.23.11.54.33.75.08.08.16.13.25.19l.49.32s.03.05.03.07c-.44.1-.91-.1-1.31-.31-.06-.03-.1-.06-.14-.09-.04-.05-.07-.12-.09-.19-.13-.38-.18-.8-.13-1.21.01-.09-.06-.18-.15-.19-.09-.01-.18.06-.19.15-.05.46,0,.93.14,1.36.03.1.08.22.16.31.07.08.16.13.23.16.22.12.47.24.74.31-.09.06-.22.09-.35.09-.21-.01-.42-.1-.62-.19-.25-.11-.34-.17-.44-.37-.11-.2-.15-.3-.14-.49.01-.18,0-.41,0-.63,0-.21,0-.43,0-.59,0-.09-.06-.17-.16-.18-.09,0-.17.06-.18.16-.01.18,0,.41,0,.63,0,.21,0,.43,0,.59-.02.29.07.47.18.67.16.31.35.4.61.52.09.04.19.08.29.12-.04.02-.09.03-.15.03-.36,0-.86-.45-1.02-.74-.04-.1-.05-.78-.06-1.14,0-.3-.01-.47-.02-.55-.01-.09-.1-.16-.19-.15-.09.01-.16.1-.15.19,0,.06.01.28.02.51.02.86.04,1.19.11,1.3.04.07.09.14.16.22-.02.03-.06.05-.08.07-.02-.01-.04-.04-.06-.06-.05-.07-.22-.47-.23-.75,0-.17,0-1.18,0-1.36Zm29.57-6.51h-3.48v-1.34h3.48v1.34Zm2.66-1.33v5.02c-.1-.08-.24-.14-.34-.14-.09,0-.23.04-.36.23-.08.13-.22.58-.28.8-.15.09-.43.25-.61.31-.03,0-.07,0-.12-.01-.4-.05-1.26-.15-1.82.27-.03-.03-.06-.05-.11-.05l-5.14-.44s-.01,0-.02,0c.02-.99.01-1.92,0-2.66l-.03-1.12c-.01-.54,0-1.38.14-2.2h2.2v1.51c0,.09.08.17.17.17h3.82c.09,0,.17-.08.17-.17v-1.51h2.3s.02,0,.02,0Zm.9,5.55s-.01.08-.02.12c0-.14,0-.28,0-.42,0-.1,0-.2-.02-.29,0,0,.01-.02.01-.03.02-.09.1-.21.15-.25,0,0,.02.03.02.05.01.06,0,.13-.03.21-.05.17-.08.39-.13.62Zm-4.41,2.18c-.04-.27-.05-.49-.03-.8.02-.01.05-.02.07-.05.4-.5,1.36-.38,1.72-.34.14.02.19.02.24,0,.3-.09.76-.38.78-.39.03-.02.06-.06.07-.1.09-.31.21-.69.25-.76.05-.07.08-.08.08-.08.03,0,.11.04.13.07.02.15-.15.82-.23.97-.27.27-.78.58-.78.58-.08.05-.11.15-.06.23.03.05.09.08.14.08.03,0,.06,0,.09-.02.01,0,.23-.14.45-.31h.75c.09,0,.17-.08.17-.17v-2.05c.17.1.21.4.21.64,0,.46-.02.94-.06,1.4,0,.05,0,.13-.03.16-.02.02-.06.05-.09.07l-.72.47c-.29.19-.62.4-.97.43-.15.01-.31-.01-.47-.04-.35-.05-.66-.03-.95-.01-.25.02-.49.03-.76,0Zm3.51-1.25h-.18s.11-.23.18-.44v.44Zm-8.87,1.97c.03-.71.05-1.44.07-2.14l4.95.43s-.02.04-.02.06c-.03.45-.02.72.05,1.11-1.73.41-3.08.62-5.05.53Zm-7.06,40.39c.47.36,1.21.65,1.85.71.16.02.31.02.47.02.1,0,.19,0,.29,0,.42.02.85.1,1.26.18.22.04.46.09.69.12.61.09,1.22.12,1.82.12.42,0,.83-.01,1.23-.03.64-.03,1.3-.09,1.84-.39.01.02.02.05.02.07,0,.01,0,.03,0,.05-.01.05-.03.09-.06.13l-.07.04c-.75.31-1.61.32-2.43.32h-.03c-1.01,0-2.13-.15-3.5-.37-.36-.06-.64-.05-.92-.04-.28,0-.54.02-.87-.04-.73-.13-1.45-.43-1.59-.68-.01-.04,0-.14.02-.22Zm.61-2.85c.49.1,1.19.17,1.88.17.51,0,1-.04,1.38-.12.07.09.19.23.39.42.33.31.72.55,1.11.78.51.31,1.04.63,1.63.84.15.05.3.09.44.14.2.06.38.11.57.18.08.03.17.06.25.09.46.17.9.33.98.81-.47.25-1.05.3-1.65.33-.96.05-1.98.07-2.99-.09-.22-.03-.45-.08-.68-.12-.42-.08-.86-.16-1.3-.19-.1,0-.2,0-.3-.01-.15,0-.3,0-.44-.02-.56-.05-1.24-.32-1.66-.63,0,0,0-.02,0-.04-.02-.13-.02-.42-.02-.6,0-.11,0-.22,0-.32,0-.27.19-.9.32-1.32.04-.12.07-.23.1-.31Zm-14.03-1.36c.89,1.98,2.32,4.34,2.62,4.54.52.36.93.38,1.5.41h.19c.11.02.25.02.4.02.28,0,.59-.01.78-.05.27-.05.49-.17.66-.32,0,.09-.02.2-.07.26h-.01c-.09.12-.16.21-1.64.33-.73.06-1.47-.16-1.99-.6-.42-.35-1.53-2.28-1.61-2.48-.03-.08-.11-.25-.22-.47-.19-.4-.48-1-.56-1.27-.06-.23-.08-.3-.04-.37Zm1.21-1.66c.24.22.61.51.95.61.57.16,1.24.25,1.87.25-.16.46-.13.88-.1,1.33,0,.09.01.18.02.27.01.19.02.38.07.58.03.14.09.26.14.38.25.62.56,1.39,1.25,1.87.06.04.12.08.18.12.11.07.21.13.29.21.07.06.14.15.15.25-.01.01-.03.02-.04.04-.1.16-.31.29-.57.34-.25.05-.8.05-1.09.04h-.19c-.55-.04-.88-.06-1.32-.36-.2-.15-1.55-2.3-2.48-4.36l.06-.17c.22-.61.33-.91.82-1.39Zm6.33-27.83c.36.13.74.24,1.1.34l1.32.37c.41.11.82.23,1.24.32,1.42.33,2.85.43,4.2.43.94,0,1.85-.05,2.7-.11.6-.04,1.23-.11,1.76-.34,0,.66-.02,2.72-.1,3.83-.29,3.76-.62,8.03-1.21,12.1,0,.13-.77,11.94-.94,13.5-.45.36-3.27.27-3.86-.01.01-1.09.01-2.16,0-3.2,0-1.9-.01-3.7.08-5.64.08-1.66.37-6.61.38-6.66,0-.02,0-.04,0-.06,0,0-.15-.56-.15-1.21.02-2.71-.18-4.9-.68-7.34,0-.02-.01-.03-.02-.04.19-.24.4-.46.64-.65.07-.06.08-.16.03-.24-.06-.07-.16-.08-.24-.03-.9.72-1.41,1.79-1.87,2.74-.5,1.05-.96,2.57-1.4,4.05-.34,1.12-.66,2.19-.98,2.99l-.05.12c-.19.47-.38.95-.65,1.38-.27.42-3.89,8.35-4.52,11.7-.67.03-1.43-.06-2.07-.24-.35-.1-.8-.51-1-.72.27-2.48.92-4.6,1.62-6.84.33-1.06.66-2.15.97-3.32.17-.67.35-1.26.68-1.77.03-.04.06-.1.1-.15,0,.07,0,.14,0,.21,0,.09.08.17.17.17s.17-.08.17-.17c0-.25.01-.51.02-.72,0-.16.01-.29.01-.37-.04-1.78.46-5.24.51-5.62.1-.7,1.26-5.6,2.04-8.82Zm.8-6.27l1.22-.23s.04-.01.06-.02c0,0,5.84-3.57,5.85-3.58.01,0,.02-.02.03-.02,0,0,.01-.01.02-.02,0,0,0-.02.01-.03,0,0,0-.02.01-.03,0,0,0-.02,0-.03,0-.01,0-.02,0-.04l-.19-.92s-.04-.08-.07-.11c-.04-.02-.08-.03-.13-.02l-1.45.31s0-.03-.01-.05l-2.11-4.86c-.03-.08-.12-.12-.2-.09l-.97.29c-.02-.87-.14-2.44-.46-2.93-.05-.08-.16-.1-.23-.05-.08.05-.1.16-.05.23.23.36.4,1.75.41,2.85l-6.41,1.92c-.19-.49-.96-.82-1.06-.86-.09-.04-.19,0-.22.09-.04.09,0,.18.09.22.25.11.74.38.86.65l-.55.16s0,0-.01,0c-.01,0-.02,0-.03.02,0,0-.02.01-.03.02,0,0,0,0-.01,0l-3.21,3.83c-.23-.1-.56-.23-.68-.25-.15-.03-.32-.04-.45-.05.01-.02.03-.04.04-.06.04-.06.09-.13.14-.23.19-.37,2.52-3.89,2.99-4.37,1.39-1.43,6.53-4.26,7.54-4.81.11-.06.24-.1.37-.12.99-.12,2.4-.12,3.41,0,0,.04,0,.07.03.1.84,1.15,2.52,2.48,3.59,2.57.02,0,.04,0,.06,0,.33,0,.71-.21.9-.49.13-.19.15-.39.07-.57-.09-.43-.02-.81,0-.96.6.3,1.14.44,1.63.57.53.14.99.26,1.43.54.46.3.75.8.77,1.35,0,.16.01.31.01.44,0,.2.01.34.02.43h-.63c.08-.33.17-.66.31-.95.04-.08,0-.19-.08-.22-.09-.04-.19,0-.22.08-.53,1.15-.57,2.77-.55,3.64l.03,1.12c.06,2.18-.04,5.97-.28,8.28-.1.91-.07,1.68.09,2.42.13.63.16,1.11.08,1.51-.01.07-.06.13-.12.17-.52.32-1.23.39-1.9.44-2.04.15-4.45.23-6.8-.31-.41-.09-.82-.21-1.21-.32l-1.33-.37c-.47-.13-.95-.27-1.4-.46-.03-.01-.05-.04-.05-.07-.04-.2-.07-.62.16-1.23.34-.91.49-1.92.63-2.9.08-.54.16-1.1.27-1.62Z"/>
            <path class="cls-1" d="m25.45,102.17l.4-1.67c.02-.09.11-.15.2-.13.09.02.15.11.13.2l-.4,1.67c-.11.47-.23.96-.49,1.4-.03.05-.09.08-.15.08-.03,0-.06,0-.09-.02-.08-.05-.11-.15-.06-.23.23-.39.34-.86.45-1.3Z"/>
            <path class="cls-1" d="m25.32,98.27c1.46.09,2.92-.22,4.23-.89.08-.04.18,0,.23.07.04.08,0,.18-.07.23-1.21.62-2.55.94-3.9.94-.17,0-.33,0-.5-.01-.09,0-.16-.09-.16-.18,0-.09.09-.16.18-.16Z"/>
            <path class="cls-1" d="m17.19,116.32s-.05.02-.08.02c-.06,0-.12-.03-.15-.09-.19-.37-.24-.46-.29-.55-.05-.09-.1-.18-.29-.54-.04-.08-.01-.18.07-.23.08-.04.18-.01.23.07.19.36.24.45.29.54.05.09.1.18.29.55.04.08.01.18-.07.23Z"/>
            <path class="cls-1" d="m9.18,124.32c.09.03.14.12.11.21-.36,1.22-.31,1.85.04,3.13.02.09-.03.18-.12.21-.01,0-.03,0-.04,0-.07,0-.14-.05-.16-.12-.36-1.32-.42-2.02-.04-3.31.03-.09.12-.14.21-.11Z"/>
            <path class="cls-1" d="m8.01,124.82c.09.01.16.1.15.19-.16,1.26,0,1.88.54,3.08.04.08,0,.19-.08.22-.02.01-.05.02-.07.02-.06,0-.13-.04-.15-.1-.57-1.25-.74-1.93-.57-3.26.01-.09.09-.16.19-.15Z"/>
          </g>
        </g>
      </g>
    </g>
  </g>
</svg>