<?xml version="1.0" encoding="utf-8"?>
<!-- Generator: Adobe Illustrator 27.4.1, SVG Export Plug-In . SVG Version: 6.00 Build 0)  -->
<svg version="1.1" id="_レイヤー_2" xmlns="http://www.w3.org/2000/svg" xmlns:xlink="http://www.w3.org/1999/xlink" x="0px"
	 y="0px" viewBox="0 0 172.2 104.5" style="enable-background:new 0 0 172.2 104.5;" xml:space="preserve">
<style type="text/css">
	.st0{fill:none;}
	.st1{clip-path:url(#SVGID_00000063603986238973722370000007006359203197121205_);}
	.st2{fill-rule:evenodd;clip-rule:evenodd;fill:none;}
</style>
<g id="illustration">
	<g>
		<g>
			<g>
				<path class="st0" d="M159.4,17.4c-0.7-7.2-5.5-13.6-12.8-16c-5.8-1.9-11.8-0.8-16.4,2.4c-4.6-3.2-10.6-4.3-16.3-2.5
					c-7.3,2.3-12.2,8.7-12.9,15.9c-7.4,2.6-12.6,9.6-12.5,17.9c0,0,0,0,0,0c0.1,6.9,4,13,9.7,16.1c-1.4,3.2-3.8,5.8-5.2,6
					c3.1,0.4,5.9-0.6,8.4-2.1c1.5,6,6,11.2,12.3,13.2c5.8,1.8,11.7,0.8,16.3-2.5c3.1,2.2,6.8,3.4,10.7,3.4c1.9,0,3.8-0.3,5.7-0.9
					c7.3-2.3,12.1-8.8,12.9-15.9c7.3-2.6,12.5-9.6,12.4-17.8C171.5,26.7,166.4,20,159.4,17.4L159.4,17.4z"/>
				<path class="st0" d="M159.4,17.4c-0.7-7.2-5.5-13.6-12.8-16c-5.8-1.9-11.8-0.8-16.4,2.4c-4.6-3.2-10.6-4.3-16.3-2.5
					c-7.3,2.3-12.2,8.7-12.9,15.9c-7.4,2.6-12.6,9.6-12.5,17.9c0,0,0,0,0,0c0.1,6.9,4,13,9.7,16.1c-1.4,3.2-3.8,5.8-5.2,6
					c3.1,0.4,5.9-0.6,8.4-2.1c1.5,6,6,11.2,12.3,13.2c5.8,1.8,11.7,0.8,16.3-2.5c3.1,2.2,6.8,3.4,10.7,3.4c1.9,0,3.8-0.3,5.7-0.9
					c7.3-2.3,12.1-8.8,12.9-15.9c7.3-2.6,12.5-9.6,12.4-17.8C171.5,26.7,166.4,20,159.4,17.4L159.4,17.4z"/>
			</g>
			<g>
				<path class="st0" d="M109.2,27.1c0.4,0.3,1.3,1,1.6,1.2l-0.8,0.9c-0.2-0.2-0.5-0.5-0.8-0.9v2.3h-1.3v-2.2
					c-0.4,0.6-0.9,1.2-1.4,1.5c-0.2-0.3-0.6-0.7-0.8-0.9c0.7-0.5,1.5-1.3,2-2.1H106v-1.1h1.9v-0.9h-2V24h1c0-0.4-0.2-0.8-0.3-1.2
					l0.7-0.1H106v-1.1h1.8v-1h1.3v1h1.8v1.1h-1.1l0.6,0.1c-0.2,0.5-0.4,0.9-0.5,1.2h1.1v1.1h-1.9v0.9h1.8V27L109.2,27.1L109.2,27.1
					L109.2,27.1z M107.6,22.6c0.2,0.4,0.3,0.9,0.4,1.2l-0.6,0.1h2.2l-0.7-0.1c0.1-0.3,0.3-0.8,0.4-1.2H107.6z M116.1,25.3h-1v5.4
					h-1.3v-5.4h-1.1c0,1.6-0.2,4-1.7,5.5c-0.2-0.3-0.6-0.7-0.9-0.9c1.3-1.3,1.4-3.2,1.4-4.7v-3.8l0.8,0.2c1-0.2,2.1-0.6,2.8-1l1.1,1
					c-1,0.4-2.2,0.8-3.4,1v1.5h3.4L116.1,25.3L116.1,25.3z"/>
				<path class="st0" d="M118.7,22.2c-0.3,0.4-0.6,0.7-0.9,1c-0.2-0.2-0.8-0.6-1.1-0.7c0.7-0.5,1.3-1.3,1.6-2.2l1.2,0.3
					c-0.1,0.2-0.2,0.4-0.3,0.5h2.4V22c0.4-0.5,0.8-1.1,1.1-1.7l1.2,0.3c-0.1,0.2-0.2,0.4-0.3,0.6h3.2v1h-1.9
					c0.2,0.2,0.3,0.5,0.4,0.7l-1.1,0.3c-0.1-0.3-0.3-0.7-0.6-1h-0.6c-0.3,0.4-0.6,0.7-0.9,1c-0.3-0.2-0.8-0.5-1.1-0.6
					c0.1-0.1,0.3-0.2,0.4-0.4H120c0.1,0.2,0.3,0.5,0.3,0.7l-1.1,0.3c-0.1-0.3-0.3-0.7-0.5-1C118.9,22.2,118.7,22.2,118.7,22.2z
					 M123.4,28.2c0.9,0.5,2.3,1,3.7,1.2c-0.3,0.3-0.7,0.8-0.8,1.1c-1.3-0.3-2.7-0.9-3.7-1.7v2h-1.3v-2c-1,0.8-2.4,1.4-3.7,1.8
					c-0.2-0.3-0.5-0.8-0.8-1.1c1.3-0.2,2.7-0.7,3.6-1.2H117v-1h4.3v-0.3c-0.1,0-0.1,0-0.2,0.1c-0.1-0.2-0.6-0.6-0.8-0.8
					c-1.1,0.2-2.3,0.3-3.2,0.5l-0.1-1c0.5-0.1,1-0.1,1.6-0.2v-1.1h-1.4v-0.9h3.9v0.9h-1.4v1l1.4-0.2l0,0.5c0.4-0.4,0.5-0.8,0.5-1.1
					v-1.1h4v1.9c0,0.2,0,0.3,0,0.3c0,0,0.1,0.1,0.1,0.1h0.2c0.1,0,0.1,0,0.1,0c0,0,0.1-0.1,0.1-0.2c0-0.1,0-0.4,0-0.8
					c0.2,0.2,0.6,0.4,0.8,0.5c0,0.4-0.1,0.9-0.1,1c-0.1,0.2-0.2,0.3-0.4,0.4c-0.2,0.1-0.4,0.1-0.6,0.1h-0.5c-0.3,0-0.6-0.1-0.8-0.3
					c-0.1-0.1-0.2-0.3-0.2-0.8l-0.6,0.6c-0.2-0.3-0.7-0.7-1.1-1c-0.1,0.5-0.4,0.9-0.8,1.3h0.6v0.7h4.4v1L123.4,28.2L123.4,28.2z
					 M122.9,24.2v0.3c0,0.1,0,0.3,0,0.5l0.6-0.5c0.3,0.2,0.8,0.6,1.1,0.9v-1.1C124.5,24.2,122.9,24.2,122.9,24.2z"/>
				<path class="st0" d="M133.4,30.3l-0.8-1.3c0.4,0,0.7-0.1,1-0.2c1.4-0.3,2.5-1.3,2.5-3c0-1.5-0.8-2.6-2.3-2.9
					c-0.1,0.9-0.3,2-0.7,3c-0.7,2.2-1.6,3.6-2.8,3.6s-2.2-1.3-2.2-3.2c0-2.5,2.2-4.7,5.1-4.7s4.4,1.9,4.4,4.3S136.2,29.9,133.4,30.3
					L133.4,30.3z M130.4,27.8c0.5,0,0.9-0.7,1.3-2.2c0.2-0.8,0.5-1.8,0.6-2.7c-1.8,0.4-2.8,2-2.8,3.2
					C129.5,27.3,130,27.8,130.4,27.8z"/>
				<path class="st0" d="M148.5,25.3c-0.6,0.5-1.4,1-2,1.3c0.6,1,1.4,1.8,2.4,2.2c-0.3,0.2-0.7,0.8-0.9,1.1c-2-1-3.1-3.1-3.7-5.6h0
					c-0.3,0.2-0.6,0.4-0.9,0.6c2.1,1.8,2,4.5,0.9,5.3c-0.4,0.4-0.8,0.5-1.3,0.5c-0.3,0-0.6,0-0.9,0c0-0.4-0.1-0.9-0.4-1.2
					c0.4,0,0.8,0,1.1,0s0.5,0,0.7-0.2c0.2-0.2,0.4-0.6,0.4-1.2c-1.2,0.9-2.8,1.7-4.2,2.2c-0.1-0.3-0.4-0.8-0.7-1.1
					c1.6-0.4,3.5-1.3,4.6-2.2c-0.1-0.1-0.1-0.3-0.2-0.4c-0.9,0.6-2.3,1.3-3.3,1.6c-0.1-0.3-0.4-0.7-0.7-1c1.1-0.3,2.6-0.9,3.4-1.4
					c-0.1-0.1-0.2-0.2-0.3-0.3c-0.8,0.4-1.7,0.7-2.6,0.9c-0.1-0.2-0.5-0.8-0.7-1c1.2-0.2,2.4-0.6,3.4-1.1h-1.6v-1.1h5.9v1.1h-1.2
					c0.1,0.4,0.3,0.9,0.4,1.3c0.6-0.4,1.1-0.8,1.5-1.2L148.5,25.3L148.5,25.3z M140.4,23.8h-1.3v-2.5h4v-0.9h1.3v0.9h4v2.5h-1.3
					v-1.3h-6.7L140.4,23.8L140.4,23.8z"/>
				<path class="st0" d="M151.1,28.9c0-0.6,0.4-1,1-1s1,0.4,1,1s-0.4,1-1,1S151.1,29.5,151.1,28.9z M151.2,23.2l-0.1-1.6h1.8
					l-0.1,1.6l-0.3,3.8h-1.1L151.2,23.2z"/>
			</g>
			<g>
				<path class="st0" d="M107.3,37.6c0,0.1,0,0.2,0,0.3c0.6,0,1.2-0.1,1.8-0.2v0.8c-0.5,0.1-1.1,0.1-1.8,0.2v0.7
					c0.7,0,1.3-0.1,1.9-0.2v0.8c-0.6,0.1-1.2,0.1-1.9,0.1c0,0.3,0,0.5,0.1,0.8c0.9,0.2,1.6,0.7,2,1.1l-0.5,0.8
					c-0.4-0.3-0.8-0.7-1.4-1c0,0.1,0,0.2,0,0.3c0,0.6-0.5,1.1-1.4,1.1c-1.1,0-1.7-0.4-1.7-1.2s0.7-1.2,1.7-1.2c0.2,0,0.3,0,0.4,0
					c0-0.2,0-0.4,0-0.7H106c-0.4,0-1.2,0-1.7-0.1v-0.8c0.4,0.1,1.3,0.1,1.7,0.1h0.3c0-0.2,0-0.5,0-0.7h-0.3c-0.4,0-1.2-0.1-1.7-0.1
					l0-0.8c0.5,0.1,1.3,0.2,1.7,0.2h0.3v-0.3c0-0.1,0-0.3,0-0.5h0.9C107.3,37.3,107.3,37.4,107.3,37.6L107.3,37.6z M105.9,42.4
					c0.4,0,0.6-0.1,0.6-0.5c0-0.1,0-0.2,0-0.3c-0.2,0-0.4,0-0.6,0c-0.5,0-0.8,0.2-0.8,0.4C105.2,42.3,105.4,42.4,105.9,42.4
					L105.9,42.4z"/>
				<path class="st0" d="M112.8,38c0,0.1,0,0.2-0.1,0.3c0.4-0.1,0.8-0.1,1.2-0.2v0.9c-0.4,0.1-0.9,0.2-1.4,0.2
					c-0.1,0.3-0.1,0.6-0.2,0.9c-0.3,1-0.7,2.4-1.1,3.2l-1-0.3c0.4-0.7,0.9-2.2,1.2-3.2c0.1-0.2,0.1-0.4,0.2-0.6c-0.2,0-0.3,0-0.5,0
					c-0.3,0-0.6,0-0.8,0l0-0.9c0.4,0,0.6,0.1,0.9,0.1c0.2,0,0.4,0,0.6,0c0-0.2,0.1-0.3,0.1-0.4c0-0.3,0-0.5,0-0.7l1.1,0.1
					C112.9,37.5,112.8,37.8,112.8,38z M113.6,41.8c0,0.3,0.2,0.5,1,0.5c0.5,0,0.9,0,1.5-0.1l0,0.9c-0.4,0.1-0.9,0.1-1.4,0.1
					c-1.2,0-1.8-0.4-1.8-1.1c0-0.3,0.1-0.7,0.1-0.9l0.8,0.1C113.7,41.4,113.7,41.6,113.6,41.8L113.6,41.8z M114.7,39.3
					c0.4,0,0.8,0,1.2,0.1l0,0.8c-0.3,0-0.8-0.1-1.2-0.1c-0.5,0-0.9,0-1.3,0.1v-0.8C113.8,39.4,114.3,39.4,114.7,39.3z M115.7,38.5
					l-0.6,0.2c-0.1-0.3-0.4-0.7-0.6-1l0.6-0.2C115.3,37.8,115.6,38.2,115.7,38.5L115.7,38.5z M116.6,38.1l-0.6,0.2
					c-0.2-0.3-0.4-0.7-0.6-1l0.6-0.2C116.2,37.4,116.5,37.9,116.6,38.1z"/>
				<path class="st0" d="M119.1,37.1c-0.2,0.5-0.4,0.9-0.7,1.3v4.9h-0.8v-3.7c-0.2,0.2-0.4,0.5-0.6,0.7c-0.1-0.2-0.3-0.7-0.4-0.8
					c0.7-0.6,1.3-1.6,1.7-2.6L119.1,37.1L119.1,37.1z M123.3,38.1v0.7h-4.5v-0.7H123.3z M119.2,41.1h3.7v2.2h-0.8v-0.3h-2v0.3h-0.8
					C119.2,43.4,119.2,41.1,119.2,41.1z M122.8,39.8h-3.4v-0.6h3.4V39.8z M119.3,40.1h3.4v0.7h-3.4V40.1z M122.7,37.8h-3.2v-0.7h3.2
					V37.8z M120,41.8v0.7h2v-0.7H120z"/>
				<path class="st0" d="M125.6,38.2c0,0.8-0.1,2.3-0.1,3.2c0,0.7,0.4,0.9,1,0.9c1.2,0,1.9-0.7,2.4-1.4l0.6,0.8
					c-0.4,0.7-1.4,1.6-3.1,1.6c-1.2,0-1.9-0.5-1.9-1.7c0-0.9,0.1-2.8,0.1-3.4c0-0.3,0-0.7-0.1-1h1.1
					C125.6,37.6,125.6,37.9,125.6,38.2L125.6,38.2z M128.1,39l-0.6,0.3c-0.2-0.5-0.4-0.8-0.6-1.1l0.6-0.3
					C127.7,38.1,128,38.7,128.1,39L128.1,39z M129.1,38.6l-0.6,0.3c-0.2-0.4-0.4-0.8-0.7-1.1l0.6-0.3
					C128.6,37.8,129,38.2,129.1,38.6z"/>
				<path class="st0" d="M131.5,40.2c0.6-0.5,1.3-0.7,2.1-0.7c1.2,0,1.9,0.8,1.9,1.6c0,1.3-1,2.3-3.9,2l-0.3-0.9
					c2.1,0.3,3.2-0.2,3.2-1.1c0-0.5-0.4-0.8-1-0.8c-0.8,0-1.5,0.3-1.9,0.8c-0.1,0.2-0.2,0.3-0.3,0.4l-0.8-0.2
					c0.1-0.7,0.3-2.1,0.4-2.9l0.9,0.1C131.7,39,131.5,39.8,131.5,40.2L131.5,40.2z M134.5,37.7l-0.2,0.8c-0.7-0.1-2.3-0.4-2.8-0.6
					l0.2-0.8C132.4,37.4,133.9,37.6,134.5,37.7L134.5,37.7z"/>
				<path class="st0" d="M137.9,37.1l1,0c0,0.2-0.1,0.5-0.1,1l0.3,0.3c-0.1,0.1-0.2,0.4-0.4,0.5c0,0,0,0.1,0,0.2c0.6-0.5,1.4-1,2-1
					c0.8,0,1.1,0.5,1.1,1c0,0.7-0.2,1.8-0.2,2.5c0,0.2,0.1,0.3,0.3,0.3c0.3,0,0.6-0.2,0.9-0.5l0.1,1c-0.3,0.3-0.8,0.5-1.3,0.5
					c-0.5,0-0.9-0.4-0.9-1.1c0-0.8,0.2-1.8,0.2-2.4c0-0.3-0.2-0.5-0.5-0.5c-0.5,0-1.3,0.6-1.9,1.3c0,0.2,0,0.4,0,0.6
					c0,0.6,0,1.2,0,1.8c0,0.1,0,0.4,0.1,0.5h-1c0-0.2,0-0.4,0-0.5c0-0.5,0-1,0-1.5c-0.3,0.4-0.6,1-0.9,1.3l-0.6-0.8
					c0.4-0.5,1.1-1.4,1.5-2c0-0.2,0-0.3,0-0.5c-0.3,0-0.9,0.1-1.3,0.2l-0.1-0.9c0.2,0,0.4,0,0.6,0c0.2,0,0.5,0,0.8-0.1
					c0-0.3,0-0.5,0-0.5C137.9,37.6,137.9,37.4,137.9,37.1L137.9,37.1z"/>
				<path class="st0" d="M146,38.1c0.3-0.1,0.7-0.1,0.9-0.2l0,0.8c-0.3,0.1-0.8,0.2-1.2,0.2c-0.3,1-0.9,2.2-1.5,3l-0.9-0.4
					c0.6-0.7,1.1-1.7,1.4-2.5c-0.1,0-0.2,0-0.4,0c-0.3,0-0.6,0-0.9,0l-0.1-0.8c0.3,0,0.7,0,0.9,0c0.2,0,0.4,0,0.6,0
					c0.1-0.4,0.2-0.8,0.2-1.2l1,0.1C146.2,37.4,146.1,37.8,146,38.1L146,38.1z M147.9,40.2c0,0.2,0,0.5,0,0.9
					c0.6,0.2,1.1,0.6,1.4,0.9l-0.5,0.8c-0.2-0.2-0.6-0.5-0.9-0.8v0.1c0,0.7-0.4,1.2-1.4,1.2c-0.9,0-1.6-0.4-1.6-1.2
					c0-0.7,0.6-1.2,1.6-1.2c0.2,0,0.3,0,0.5,0c0-0.5-0.1-1.1-0.1-1.6h0.9C147.9,39.7,147.9,40,147.9,40.2L147.9,40.2z M146.5,42.5
					c0.5,0,0.6-0.3,0.6-0.7v-0.1c-0.2,0-0.4-0.1-0.6-0.1c-0.4,0-0.7,0.2-0.7,0.4C145.9,42.3,146.1,42.5,146.5,42.5L146.5,42.5z
					 M147.4,38.7l0.4-0.7c0.5,0.2,1.4,0.7,1.7,1l-0.5,0.7C148.7,39.4,147.9,39,147.4,38.7L147.4,38.7z"/>
				<path class="st0" d="M151.5,38.7c0,0.5,0,1,0,1.5c0.1,1,0.3,1.7,0.8,1.7c0.3,0,0.6-0.8,0.7-1.4l0.7,0.8
					c-0.5,1.2-0.9,1.7-1.5,1.7c-0.8,0-1.4-0.7-1.6-2.6c-0.1-0.6-0.1-1.5-0.1-1.9c0-0.2,0-0.5-0.1-0.7h1.1
					C151.6,38.1,151.5,38.5,151.5,38.7L151.5,38.7z M156.4,41.6l-0.9,0.4c-0.1-1.1-0.5-2.8-1.2-3.7l0.9-0.3
					C155.8,38.8,156.3,40.5,156.4,41.6L156.4,41.6z"/>
				<path class="st0" d="M119.3,50.6c0,1.7,0.1,3,0.5,3c0.1,0,0.1-0.4,0.2-0.9c0.2,0.2,0.4,0.4,0.5,0.5c-0.1,0.9-0.2,1.2-0.8,1.2
					c-1,0-1.2-1.3-1.3-3.1h-3.8v-0.6l-0.1,0.1c-0.2-0.1-0.6-0.4-0.8-0.5c0.7-0.5,1.2-1.4,1.5-2.4l0.9,0.2c-0.1,0.2-0.1,0.3-0.2,0.5
					h4.1v0.7h-4.4c-0.1,0.1-0.1,0.2-0.2,0.3h4v0.7h-4v-0.6c-0.2,0.4-0.5,0.7-0.7,0.9L119.3,50.6L119.3,50.6z M117.9,51.6
					c-0.2,0.4-0.5,0.8-0.7,1.1c0.4,0.3,0.8,0.6,1.1,0.9l-0.7,0.6c-0.2-0.3-0.6-0.6-1-0.9c-0.6,0.5-1.2,0.9-1.8,1.2
					c-0.1-0.2-0.4-0.5-0.6-0.7c0.7-0.2,1.2-0.6,1.8-1.1c-0.4-0.3-0.8-0.5-1.2-0.7l0.6-0.5c0.4,0.2,0.8,0.4,1.2,0.7
					c0.2-0.3,0.4-0.6,0.6-0.9L117.9,51.6L117.9,51.6z"/>
				<path class="st0" d="M123.2,51.6c-0.2,0.1-0.4,0.1-0.7,0.2v1.7c0,0.4-0.1,0.6-0.3,0.7c-0.2,0.1-0.5,0.2-1,0.2
					c0-0.2-0.1-0.5-0.2-0.8c0.3,0,0.5,0,0.6,0c0.1,0,0.1,0,0.1-0.1V52l-0.7,0.2l-0.2-0.8c0.2-0.1,0.6-0.1,0.9-0.2V50H121v-0.8h0.8
					v-1.3h0.8v1.3h0.6V50h-0.6v1l0.6-0.2L123.2,51.6L123.2,51.6z M126.7,50.8v0.5h0.8v0.8h-0.8v1.4c0,0.4-0.1,0.6-0.3,0.8
					c-0.2,0.1-0.6,0.1-1.1,0.1c0-0.2-0.1-0.6-0.2-0.8c0.3,0,0.7,0,0.8,0c0.1,0,0.1,0,0.1-0.1v-1.4h-2.6v-0.8h2.6v-0.5h-2.6V50h1.7
					v-0.6h-1.4v-0.8h1.4v-0.8h0.8v0.8h1.4v0.8h-1.4V50h1.7v0.8L126.7,50.8L126.7,50.8z M124.4,52.1c0.3,0.3,0.6,0.8,0.8,1.2
					l-0.7,0.4c-0.1-0.3-0.4-0.8-0.7-1.2L124.4,52.1L124.4,52.1z"/>
				<path class="st0" d="M130.4,48.9c0,0.1,0,0.1,0,0.2c0.8,0,1.7-0.2,2.6-0.3v0.8c-0.7,0.1-1.8,0.2-2.8,0.3
					c-0.1,0.4-0.2,0.9-0.3,1.2c0.6-0.3,1.1-0.4,1.7-0.4c1.1,0,1.9,0.6,1.9,1.5c0,1.6-1.5,2.1-3.8,1.9l-0.2-0.9
					c1.5,0.2,3.1,0.1,3.1-1c0-0.4-0.4-0.8-1-0.8c-0.8,0-1.5,0.3-1.9,0.8c-0.1,0.1-0.1,0.2-0.2,0.3l-0.8-0.3c0.3-0.7,0.6-1.6,0.8-2.3
					c-0.4,0-0.9,0-1.2-0.1v-0.9c0.4,0.1,0.9,0.1,1.4,0.1c0-0.1,0-0.2,0-0.3c0-0.3,0.1-0.5,0-0.7l1,0
					C130.4,48.5,130.4,48.7,130.4,48.9L130.4,48.9z"/>
				<path class="st0" d="M134.7,49c0.6,0,1.7-0.2,3-0.3c0.7-0.1,1.5-0.1,2-0.1v0.9c-0.4,0-1,0-1.3,0.1c-0.9,0.2-1.5,1.1-1.5,2
					c0,1.2,1.1,1.6,2.3,1.6l-0.3,1c-1.5-0.1-2.9-0.9-2.9-2.4c0-1,0.6-1.8,1-2.2c-0.7,0.1-2.1,0.2-2.9,0.4l-0.1-1
					C134.3,49,134.6,49,134.7,49L134.7,49z M139.3,51.1l-0.5,0.2c-0.2-0.4-0.3-0.7-0.6-1l0.5-0.2C138.9,50.4,139.1,50.9,139.3,51.1z
					 M140.1,50.8l-0.5,0.2c-0.2-0.4-0.4-0.6-0.6-1l0.5-0.2C139.6,50.1,139.9,50.5,140.1,50.8L140.1,50.8z"/>
				<path class="st0" d="M144.4,48.8c0,0.1,0,0.1,0,0.2c0.7,0,1.7,0,2,0v0.8c-0.4,0-1.1,0-2,0c0,0.4,0,0.7,0,1
					c0.2,0.3,0.2,0.6,0.2,1c0,0.9-0.5,2.1-2.2,2.5l-0.8-0.7c0.7-0.2,1.3-0.4,1.7-0.8c-0.1,0-0.2,0-0.3,0c-0.5,0-1.2-0.4-1.2-1.3
					c0-0.8,0.6-1.3,1.4-1.3c0.1,0,0.2,0,0.3,0c0-0.2,0-0.3,0-0.5c-1.1,0-2.1,0.1-3,0.1l0-0.8c0.8,0,2.1,0,3,0c0-0.1,0-0.2,0-0.2
					c0-0.3-0.1-0.5-0.1-0.6h1C144.4,48.3,144.4,48.7,144.4,48.8L144.4,48.8z M143.2,52c0.3,0,0.6-0.2,0.5-0.8
					c-0.1-0.2-0.3-0.2-0.5-0.2c-0.3,0-0.5,0.2-0.5,0.6C142.7,51.8,142.9,52,143.2,52L143.2,52z"/>
			</g>
		</g>
		<g>
			<defs>
				<rect id="SVGID_1_" y="4" width="103" height="85.9"/>
			</defs>
			<clipPath id="SVGID_00000034802791027433033870000006526523845000939966_">
				<use xlink:href="#SVGID_1_"  style="overflow:visible;"/>
			</clipPath>
			<g style="clip-path:url(#SVGID_00000034802791027433033870000006526523845000939966_);">
				<g>
					<g>
						<path class="st2" d="M58.4,17.6c0.2,0.1,1.1-0.2,2-0.9c0.8-0.6,2.2-2.2,1.1-3.3c-0.9-0.9-2.2,0.5-2.2,0.5s-0.6-2.2-2.2-1.2
							c-0.9,0.5-0.6,2.2,0,3.4C57.5,17,58.1,17.5,58.4,17.6L58.4,17.6z"/>
						<path class="st2" d="M56.4,22.4c-0.1,0.1-0.8,0-1.5-0.2c-0.7-0.2-2-1-1.4-2c0.5-0.8,1.7-0.1,1.7-0.1s0-1.6,1.3-1.3
							c0.7,0.2,0.9,1.4,0.7,2.3C56.9,21.9,56.6,22.3,56.4,22.4L56.4,22.4z"/>
						<path class="st2" d="M59,27.2c0.1,0.1,0.7,0,1.2-0.2c0.5-0.2,1.5-0.8,1.1-1.6c-0.4-0.6-1.3-0.1-1.3-0.1s0-1.3-1-1
							c-0.6,0.1-0.7,1.1-0.5,1.8C58.6,26.8,58.8,27.1,59,27.2z"/>
					</g>
					<g>
						<path class="st0" d="M50.2,36.1c-0.4-0.4-2.4-2-5-4.3l4.4,3.7c0,0,0,0,0,0c0.2-0.2,0.3-0.5,0.4-0.8l-6.5-7.2
							c-0.7,0.6-1.5,0.8-2.3,0.3l3.9,4c-0.7-0.6-1.5-1.4-2.2-2.1c-3.4-3.4-5.5-6.2-5.5-6.2c0,0,0-0.1,0-0.1
							c-0.1-0.3-0.7-1.2-0.9-1.3c-0.2-0.1-0.4-0.5-0.6-0.7c-0.1,0-0.3,0-0.4,0c-0.3,0-0.7,0.3-0.7,0.6c-1.1-0.4-2.7-0.7-4.3-0.4
							c-0.9,0.2-1.7,0.5-2.2,0.9c-5,4.1-8.9,7.8-12,12c-0.2,0.2-1.5,2.7-1.2,4.2c0,0.2,0.1,0.3,0.3,0.4c0.5,0.4,2,1.5,5.1,2
							c1.6,0.2,6.5,0.6,6.5,0.6c-0.3-0.9-0.8-2.5-0.9-3.3c-0.2-1-0.4-2.5-0.4-2.5s-0.2-0.4-0.4-0.6c-0.1-0.2-1.5-1.6-1.7-1.7
							c-0.2-0.1-1.5-0.8-1.9-1.1s0.1-0.9,0.3-0.9c0.2,0,1.6,0.5,2.1,0.7c0.1,0,0.2,0.1,0.2,0.1l2,1.6c0.1,0.1,0.2,0.1,0.4,0
							c0.1-0.1,0.2-0.2,0.1-0.3l-0.4-2.8c0,0-1.3-1.7-1.5-2.3s-0.3-0.9,0-1.1c0.3-0.2,2.2,1.9,2.7,2.4c0.1,0.1,0.1,0.2,0.2,0.3
							l0.9,2.4c0.2,0,0.1-1.9,0.1-2.6c0-0.2,0-0.4-0.1-0.5c-0.4-0.8-1.5-3.1-1.4-3.5c0.2-0.6,0.6-0.6,1-0.2c0.2,0.3,1.6,2.5,2.1,3.2
							c0.1,0.2,0.2,0.3,0.2,0.5l0.4,2.9l0.4-3.1c0,0-0.7-2-0.9-3s0.4-1,0.8-1c0.4,0,1.8,4,1.8,4.3c0,0.3-0.3,6.3-0.4,7.8
							c0.2-0.2,0.3-0.3,0.5-0.5c0.5-0.7,1.4-1.9,1.9-2.2c0.1-0.1,0.2-0.1,0.3-0.2c0.1-0.1,0.2-0.2,0.3-0.3c0.3-0.4,0.8-0.8,1.2-1
							c0.2-0.1,0.3-0.1,0.3-0.2c0.4,0.3,0.8,0.6,1.3,0.8c5.7,3.2,8.4,5.2,8.8,4.9c0.5-0.3,1.3-0.9,2.2-1.8
							C50,36.6,50.4,36.3,50.2,36.1L50.2,36.1z"/>
						<path class="st0" d="M43.6,27.6c0.5-0.5,1-1,1.3-1.3c0.5-0.5,1.2-0.4,1.6-0.7c0.5-0.5,0-1,0-1.6c0.3-1.7,2.4-2.6,2.2-5.3
							c-0.7,1.3-2.3,1.2-3.5,0.6c0.4-0.1,0.8-0.4,1.2-0.6c-1.5,0.2-3,0.1-4.4-0.3c-0.7,0.8-1.8,0-2.6-0.3c-0.4,0.1-0.8-0.2-1.2-0.3
							c-1.7-0.1-1.3,1.5-0.8,2.5c-0.5,0.3-1,0.6-1.2,1.1c0.7,1.6,2.3,2.5,3.1,4.1c0.6,0.7,1.2,1.8,2.1,2.2c0,0,0,0.1-0.1,0.1
							C42,28.3,42.9,28.2,43.6,27.6L43.6,27.6z"/>
						<path class="st0" d="M39.2,18.3c0.8-0.2,2.8,1.2,2.4,0.3c-0.4-1,1.8,1.2,4.9,0c-0.3,0.5-0.8,0.8-1.3,1
							c1.3,0.9,2.4,0.3,3.4-0.6c0,0.3-0.1,0.6-0.1,0.9c0.3,0.4,0.5,1,0.3,1.5c3.4-1.4,1.5-6.6-1.4-7.4l1.2-0.4
							c-0.4-0.3-1.1-0.4-1.5,0c0.3-0.3,0.2-0.7,0.4-1.1c-0.3,0-0.6,0.3-0.9,0.3c0.3-0.3,0-0.8-0.1-1.2c-0.2,0.3-0.5,1.1-0.9,0.5
							c-0.4-0.7-1.5-0.6-2.2-0.9c-2.2-0.8-4.4,0.9-6.4,1.7c0.2,0.2-0.1,0.6-0.2,0.8c-2,3.5,0.5,4.7-0.9,7.3c0.3-0.2,1.4-0.5,1.2-0.9
							C36.1,18.6,38.1,17,39.2,18.3L39.2,18.3z"/>
						<path class="st0" d="M38.5,24.8c-0.1,0-0.2-0.1-0.2-0.1c-0.2-0.7-0.2-1.4-0.2-2.1c0-0.1,0.1-0.2,0.2-0.2
							c0.1,0,0.2,0.1,0.2,0.2c-0.1,0.6,0,1.3,0.1,1.9C38.7,24.6,38.7,24.8,38.5,24.8C38.5,24.8,38.5,24.8,38.5,24.8L38.5,24.8z"/>
						<path class="st0" d="M44.6,22.5c0.1-0.3,0.4-0.6,0.7-0.6C46.6,22.1,44.4,24,44.6,22.5z"/>
						<path class="st0" d="M46.7,21.6c-1-1-1.8-0.4-1.9-0.8C44.8,20,47.7,21.1,46.7,21.6z"/>
						<g>
							<path class="st0" d="M43.8,25.8c-1.7,1.9-3.1-0.3-2-1.7C41.7,24.1,43.6,25.9,43.8,25.8z"/>
							<path class="st0" d="M42.5,26.8c-1.5,0-1.6-2.5-0.7-2.9c0.3,0,0.5,0.5,1.2,1.1c0.4,0.4,0.9,0.6,0.9,0.6
								C44.3,25.9,43.3,26.7,42.5,26.8L42.5,26.8z M41.8,24.5c-0.7,1.1,0.4,2.6,1.6,1.4C42.9,25.6,42.2,24.8,41.8,24.5z"/>
						</g>
						<g>
							<path class="st0" d="M38.1,21.1c0,0-0.1,0-0.1,0c-1-0.5-1.6-1.7-1.3-2.5c0.1-0.2,0.3-0.8,1-1c0.5-0.1,1.1,0,1.7,0.5
								c0.1,0.1,0.1,0.2,0,0.3c-0.1,0.1-0.2,0.1-0.3,0c-0.5-0.4-1-0.5-1.3-0.4c-0.4,0.1-0.6,0.6-0.7,0.7c-0.2,0.5,0.3,1.5,1.1,1.9
								c0.1,0.1,0.1,0.2,0.1,0.3C38.2,21,38.2,21.1,38.1,21.1L38.1,21.1z"/>
							<path class="st0" d="M38.3,19.9c-0.1,0-0.2-0.1-0.2-0.2c0-0.1-0.1-0.4-0.2-0.5c-0.1-0.1,0-0.2,0.1-0.3c0.1-0.1,0.2,0,0.3,0.1
								c0.1,0.2,0.2,0.6,0.3,0.7C38.5,19.7,38.4,19.9,38.3,19.9C38.3,19.9,38.3,19.9,38.3,19.9z"/>
							<path class="st0" d="M42.2,28.4c-0.3,0-1.3-0.1-1.2-0.6c0.1-0.1,0.2-0.1,0.3-0.1c1.2,0.9,2.5-0.6,3.3-1.4
								c1.1-1.3,2.1-0.2,1.6-2.3c0.3-1.7,2.4-2.7,2.2-5.3c0-0.3,0.4-0.3,0.4,0c0,1.9-0.7,3-1.4,3.8c-1.7,1.8,0,1.9-0.9,3.1
								c-0.4,0.4-1,0.3-1.4,0.8C44.3,27.1,43.4,28.4,42.2,28.4L42.2,28.4z"/>
							<path class="st0" d="M41.2,19c-0.7,0-1.7-0.3-2.3-1.4c-0.1-0.1,0-0.2,0.1-0.3c0.1-0.1,0.2,0,0.3,0.1c0.7,1.2,1.9,1.2,2.3,1.1
								c0.1,0,0.2,0,0.3,0.2c0,0.1,0,0.2-0.2,0.3C41.5,19,41.4,19,41.2,19z"/>
							<path class="st0" d="M48.8,21.6c-0.5-0.1,0.2-1.1-0.3-1.5c-0.1-0.1-0.1-0.2,0-0.3c0.6-0.3,0.6,0.9,0.5,1.2c3-2,0-6.7-1.6-6.8
								c-0.3-0.1-0.2-0.5,0.1-0.4C50,14.1,52.6,20,48.8,21.6L48.8,21.6z"/>
							<path class="st0" d="M38.3,13.5c-1,0.1-2.5-1-0.9-1.1c1.3-0.2,2.5-1.4,3.9-1.6c1-0.2,2.5-0.2,4.3,1c0.2,0.2,0,0.5-0.2,0.4
								c-3.4-2.4-5-0.2-8,0.6c0.6,0.5,1.7-0.1,1.8,0.2C39.3,13.5,38.6,13.5,38.3,13.5L38.3,13.5z"/>
							<path class="st0" d="M37.8,15.4C37.8,15.4,37.8,15.4,37.8,15.4c-0.3-0.1-0.5-0.6-0.5-1c0-0.6,0.5-1.4,2.5-1.6
								c0.1,0,0.2,0.1,0.2,0.2c0,0.1-0.1,0.2-0.2,0.2c-1.2,0.2-2,0.5-2.1,1.1c-0.1,0.3,0,0.5,0.1,0.6c0.3-0.2,1-0.6,1.9-0.6
								c0.1,0,0.2,0.1,0.2,0.2s-0.1,0.2-0.2,0.2c-0.9,0-1.5,0.4-1.7,0.5C38,15.4,37.9,15.4,37.8,15.4L37.8,15.4z M37.9,15
								C37.9,15,38,15,37.9,15C38,15,38,15,37.9,15L37.9,15z"/>
							<path class="st0" d="M47.1,13.7c-0.5-0.1,0-0.7,0.1-0.9c-1.4,0.6-0.5-0.2-0.6-1c-0.2,0.3-0.5,1-0.9,0.7
								c-0.2-0.4,0.7-0.7,0.6-1.4c0.4-0.8,0.9,1,0.7,1.3c0.7-0.1,1.1,0.1,0.5,0.7c0.4-0.1,1.4-0.2,1.1,0.4c-0.1,0.1-0.2,0.1-0.3,0
								C48.2,13.4,47.5,13.6,47.1,13.7L47.1,13.7z"/>
							<path class="st0" d="M46.4,20.1c-0.4,0.1-2.2-0.5-1.4-0.9c1,0,2-0.9,1.5-2.3c0.4-1.2,1.4,2-1,2.6c1.2,0.5,3.2-0.2,3.1-1.8
								c0.1-0.5-0.5-1.2-0.1-1.5c0.5,0.1,0.4,1,0.5,1.5C49.3,19.1,47.8,20.1,46.4,20.1L46.4,20.1z"/>
							<path class="st0" d="M44.2,19.1C43.1,19,41.8,19,41,18c-0.2-0.2,0.2-0.5,0.4-0.2c1.4,1.2,3.6,0.9,5.2,0.4
								c0.1,0,0.2,0,0.3,0.1C46.7,19,44.8,19,44.2,19.1L44.2,19.1z"/>
							<path class="st0" d="M42.2,18.1c-0.3-0.1-1.2,0.1-1.2-0.4c0-0.1,0.2-0.2,0.3-0.1c1.2,0.3,2.6,0,3.5-0.9
								c0.2-0.2,0.5,0.1,0.3,0.3C44.3,17.8,43.2,18.2,42.2,18.1z"/>
							<path class="st0" d="M36.1,21.1c-0.1,0-0.2,0-0.2-0.1c-0.1-0.1-0.2-0.3,0.1-0.8c0.3-0.5,0.1-1.4,0-2.3
								c-0.1-0.6-0.2-1.2-0.2-1.7c0.2-1.5,0.6-2.5,1.3-3.3c0.1-0.1,0.2-0.1,0.3,0c0.1,0.1,0.1,0.2,0,0.3c-0.7,0.7-1.1,1.7-1.2,3.1
								c0,0.4,0.1,0.9,0.2,1.5c0.2,1,0.4,2,0,2.6c0,0.1-0.1,0.1-0.1,0.1c0.2-0.1,0.6-0.3,0.9-0.6c0.1-0.1,0.2-0.1,0.3,0
								c0.1,0.1,0.1,0.2,0,0.3C37.1,20.7,36.5,21.1,36.1,21.1L36.1,21.1z"/>
						</g>
						<path class="st0" d="M50.9,35.7c0.2,0.1,0.3,0.1,0.5,0.1c0.3,0,0.7,0.1,1.1,0.1c0.4,0,0.8-0.1,1.2,0c0.2,0.2,0.1,0.5-0.1,0.7
							c-0.2,0.2-0.5,0.2-0.7,0.2c-0.2,0-0.4,0.1-0.5,0.1c-0.1,0-0.3,0-0.4,0.1c-0.1,0.1-0.1,0.2-0.2,0.2c-0.1,0.1-0.2,0-0.3,0
							c-0.1,0-0.2-0.1-0.3-0.2c-0.3-0.2-0.6-0.3-0.9-0.4c0.1-0.1,0.1-0.3,0-0.5c-0.2-0.2-0.6-0.5-0.2-0.8
							C50.2,35.1,50.6,35.5,50.9,35.7L50.9,35.7z"/>
						<path class="st0" d="M54.8,39.9c-0.2-0.4-2.2-1.2-2.6-1.4c-0.6-0.5,1.1-0.3,1.3-0.6c0.3-0.2,0.7-0.4,0.4-0.8
							c-0.6-0.2-1.3,0.3-1.9,0.1c-0.7,0-1.2-0.7-1.9-0.7l0.1,0.2c-0.9,0.4-1.6,1.3-2.4,1.8c0,0.1,0,0.1,0,0.2l-0.1-0.1
							c0.7,1,1.9,1.7,2.4,2.9c0.2,0.3,0.7,1.2,0.9,0.5c0-0.6-0.4-1.1-0.6-1.6c0,0,0,0,0,0c1.6,2,3.3,2.6,0.9-0.3c0,0,0.1,0,0.1-0.1
							c0.5,0.3,2.8,2,2.5,0.8c-0.7-0.6-1.4-1-2-1.6c0,0,0-0.1,0-0.1l0,0C52.3,39.4,54.7,40.6,54.8,39.9L54.8,39.9z"/>
						<g>
							<path class="st0" d="M50.8,42.6c-0.1,0-0.2,0-0.3-0.1c-0.2-0.2-0.3-0.4-0.5-0.7l0-0.1c-0.5-0.8-1-1.5-1.7-2.1
								c0,0-0.1-0.1-0.2-0.1c-0.2-0.2-0.5-0.4-0.6-0.7c0-0.1,0-0.2,0.2-0.3s0.2,0,0.3,0.2c0.1,0.2,0.2,0.3,0.4,0.5
								c0,0,0.1,0.1,0.2,0.1c0.7,0.6,1.3,1.4,1.8,2.2l0,0.1c0.1,0.2,0.2,0.4,0.4,0.6c0,0,0,0,0.1,0c0,0,0,0,0,0s0,0,0,0
								c0-0.1-0.1-0.2-0.1-0.4l-0.5-1.2c0-0.1,0-0.2,0.1-0.3s0.2,0,0.3,0.1l0.5,1.2c0.1,0.2,0.1,0.3,0.2,0.5c0,0,0,0.1,0,0.1
								c0,0.2-0.1,0.3-0.3,0.4C50.9,42.6,50.8,42.6,50.8,42.6z"/>
							<g>
								<path class="st0" d="M52,37.4C52,37.4,51.9,37.4,52,37.4c-0.2,0-0.4-0.2-0.4-0.4c0-0.1,0-0.3,0.4-0.4c0.1,0,0.2,0,0.4,0
									c0.3,0,0.6-0.1,0.7-0.2l0.1-0.1c0.3-0.2,0.4-0.3,0.3-0.4c-0.5,0.1-1.1,0.2-1.8,0.2c-0.3,0-0.6-0.1-0.8-0.2
									c0,0-0.1,0-0.1-0.1c-0.2-0.2-0.7-0.4-0.9-0.4c-0.1,0-0.2,0-0.3-0.2c0-0.1,0-0.2,0.2-0.3c0.4-0.1,0.9,0.2,1.2,0.4
									c0,0,0.1,0,0.1,0.1c0.2,0.1,0.3,0.1,0.6,0.2c0.6,0,1,0,1.7-0.2c0.2,0,0.3,0,0.4,0.2c0.3,0.5-0.2,0.8-0.4,1l-0.1,0.1
									C53.1,37,52.8,37,52.4,37c-0.1,0-0.2,0-0.3,0c0,0.1,0.1,0.2,0,0.2C52.1,37.4,52.1,37.4,52,37.4L52,37.4z"/>
								<path class="st0" d="M54.5,40.4c-0.1,0-0.2,0-0.3-0.1c-0.3-0.1-0.8-0.3-1.2-0.4c-0.4-0.1-0.9-0.3-1.2-0.4
									c-0.1,0-0.2-0.2-0.1-0.3s0.2-0.2,0.3-0.1c0.3,0.1,0.8,0.3,1.2,0.4c0.4,0.1,0.9,0.3,1.2,0.4c0.1,0,0.1,0,0.2,0
									c-0.1-0.1-0.2-0.1-0.3-0.2l-2.1-1.1c-0.1,0-0.3-0.1-0.3-0.3c0-0.1,0-0.3,0.4-0.4c0.1,0,0.2,0,0.4,0c0.3,0,0.6-0.1,0.7-0.2
									l0.1-0.1c0.3-0.2,0.4-0.3,0.3-0.4c-0.5,0.1-1.1,0.2-1.8,0.2c-0.3,0-0.6-0.1-0.8-0.2c0,0-0.1,0-0.1-0.1
									c-0.2-0.2-0.7-0.4-0.9-0.4c-0.1,0-0.2,0-0.3-0.2c0-0.1,0-0.2,0.2-0.3c0.4-0.1,0.9,0.2,1.2,0.4c0,0,0.1,0,0.1,0.1
									C51.6,37,51.7,37,52,37c0.6,0,1,0,1.7-0.2c0.2,0,0.3,0,0.4,0.2c0.3,0.5-0.2,0.8-0.4,1l-0.1,0.1c-0.2,0.2-0.6,0.2-0.9,0.2
									c-0.1,0-0.2,0-0.3,0l2,1c0.2,0.1,0.4,0.2,0.5,0.4c0,0,0.1,0.1,0.1,0.2c0,0.1,0,0.2,0,0.3c-0.1,0.1-0.2,0.2-0.3,0.2
									C54.6,40.4,54.6,40.4,54.5,40.4L54.5,40.4z"/>
								<path class="st0" d="M53.7,41.6c-0.1,0-0.3,0-0.5-0.1c-0.5-0.2-1.1-0.6-1.6-1c-0.2-0.1-0.4-0.2-0.5-0.3
									c-0.1-0.1-0.1-0.2-0.1-0.3s0.2-0.1,0.3-0.1c0.2,0.1,0.3,0.2,0.5,0.3c0.5,0.3,1.1,0.7,1.6,0.9c0.3,0.1,0.4,0.1,0.4,0.1
									s0,0,0,0c-0.3-0.3-0.7-0.5-1-0.8c-0.3-0.3-0.7-0.5-1-0.8c-0.1-0.1-0.1-0.2,0-0.3c0.1-0.1,0.2-0.1,0.3,0
									c0.3,0.3,0.7,0.5,1,0.8c0.3,0.3,0.7,0.5,1,0.8c0.2,0.1,0.2,0.4,0.1,0.6C54,41.5,53.9,41.6,53.7,41.6L53.7,41.6z"/>
								<path class="st0" d="M52.3,42.4c-0.1,0-0.2,0-0.3-0.1l-0.9-0.7c-0.2-0.1-0.4-0.3-0.5-0.5c-0.1-0.1-0.1-0.1-0.2-0.2
									c-0.1-0.1-0.2-0.2-0.3-0.3c-0.1-0.1-0.1-0.2,0-0.3c0.1-0.1,0.2-0.1,0.3,0c0.2,0.1,0.2,0.3,0.3,0.4c0,0.1,0.1,0.1,0.1,0.2
									c0.1,0.2,0.3,0.3,0.5,0.4l0.9,0.7c0-0.1-0.1-0.2-0.2-0.3l-1.2-1.6c-0.1-0.1-0.1-0.2,0-0.3c0.1-0.1,0.2-0.1,0.3,0l1.2,1.6
									c0.1,0.1,0.3,0.4,0.2,0.7c0,0.1-0.1,0.2-0.2,0.2C52.5,42.4,52.4,42.5,52.3,42.4L52.3,42.4z"/>
							</g>
						</g>
						<path class="st0" d="M31.5,64.7c0.2,0.7,0.8,1.4,1.5,1.7c0.2,0.1,0.4,0.2,0.7,0.2c0.2,0,0.4-0.1,0.6-0.2
							c1.4-0.8,2.8-1.8,4.1-2.8c0.2-0.2,0.5-0.4,0.4-0.7c-0.1-0.4-0.5-0.5-0.9-0.5c-1.2-0.1-2.8,0-3.8,0L31.5,64.7L31.5,64.7z"/>
						<g>
							<path class="st0" d="M39.2,63.1c0-0.1-0.1-0.2-0.2-0.3c0,0,0,0-0.1,0c0,0-0.1-0.1-0.1-0.1c-0.1-0.2-0.3-0.5-1.1-0.5
								c-0.7,0-1.5,0-2.2,0c-0.6,0-1.2,0-1.6,0c-0.1,0-0.2,0.1-0.2,0.2s0.1,0.2,0.2,0.2c0.5,0,1,0,1.6,0c0.8,0,1.6,0,2.2,0
								c0.2,0,0.7,0.1,0.7,0.3c0,0.1-0.1,0.3-0.3,0.5c-1.3,1-2.6,2-4,2.8c-0.2,0.1-0.3,0.2-0.5,0.2c-0.2,0-0.3,0-0.6-0.2
								c-0.6-0.3-1.1-0.9-1.4-1.6c0-0.1-0.2-0.2-0.3-0.1c-0.1,0-0.2,0.2-0.1,0.3c0.3,0.8,0.8,1.4,1.6,1.8c0.1,0.1,0.2,0.1,0.4,0.2
								c0,0.1,0,0.2,0.1,0.2c0.1,0.1,0.2,0.2,0.4,0.2c0,0,0,0,0,0c0.2,0,0.5-0.1,1-0.4c1.7-0.9,2.4-1.5,2.9-2
								c0.1-0.1,0.1-0.1,0.2-0.2C39,63.8,39.2,63.4,39.2,63.1L39.2,63.1z"/>
							<path class="st0" d="M34.6,63.8c-0.1,0-0.2-0.1-0.2-0.2c-0.1-0.4-0.1-0.9,0.1-1.4c0-0.1,0.2-0.2,0.3-0.1
								c0.1,0,0.2,0.2,0.1,0.3c-0.1,0.3-0.1,0.7,0,1.1C34.8,63.7,34.8,63.8,34.6,63.8C34.6,63.8,34.6,63.8,34.6,63.8L34.6,63.8z"/>
							<path class="st0" d="M35.6,63.6c-0.1,0-0.2-0.1-0.2-0.2c-0.1-0.4,0-0.8,0.1-1.1c0.1-0.1,0.2-0.1,0.3-0.1
								c0.1,0.1,0.1,0.2,0.1,0.3c-0.1,0.2-0.2,0.5-0.1,0.8C35.8,63.5,35.8,63.6,35.6,63.6C35.6,63.6,35.6,63.6,35.6,63.6L35.6,63.6z
								"/>
						</g>
						<path class="st0" d="M27.1,41.9C27,41.9,27,42,26.9,42c-3.8-0.8-8.1-0.6-11.4-2.8c-0.9,5.7,3.5,9.8,7.8,13.8
							c0.1,0.1,0.8,3.4,3.9,7.9c1.2,1.8,3.4,3.9,3.4,3.9c1.3-0.1,3.2-2.5,3.2-2.5c-0.7-2.1-4.4-8-4-10.1c2.4,1.1,3.4,3.9,5.5,5.4
							c0.1-0.6-0.2-1.1-0.5-1.6C32,51.5,29.5,46.6,27.1,41.9L27.1,41.9z"/>
						<g>
							<path class="st0" d="M27,42C27,42,27,42,27,42c-2.2-0.1-4.3-0.3-6.4-0.7c-3.1-0.5-4.6-1.6-5.2-2c-0.2-0.1-0.3-0.3-0.3-0.5
								c-0.3-1.5,1.1-4.2,1.2-4.3c2.9-3.9,6.5-7.5,12-12.1c0.5-0.4,1.2-0.7,2.2-0.9c3.1-0.6,5.6,0.9,6.1,1.2c1.4,0.9,2.1,1.8,3,3
								c0.8,1,1.7,2.2,3.4,3.9c2.3,2.3,4.6,4.2,5.9,5.3c0.7,0.6,1.2,1,1.3,1.2c0.3,0.4-0.1,0.7-0.5,1.1l-0.2,0.2
								c-1,0.9-1.8,1.5-2.2,1.8c-0.3,0.2-0.9-0.1-3.3-1.5c-1.4-0.8-3.3-2-5.7-3.4c-0.7-0.4-1.3-0.9-2-1.4c-0.8-0.6-1.7-1.3-3-2.1
								c-0.1-0.1-0.1-0.2-0.1-0.3c0.1-0.1,0.2-0.1,0.3-0.1c1.4,0.9,2.3,1.6,3.1,2.2c0.7,0.6,1.3,1,2,1.4c2.5,1.4,4.4,2.5,5.8,3.4
								c1.4,0.9,2.5,1.5,2.8,1.5c0.4-0.3,1.2-0.9,2.2-1.7l0.2-0.2c0.2-0.2,0.5-0.5,0.5-0.5c-0.1-0.2-0.6-0.5-1.3-1.1
								c-1.3-1.1-3.6-3-6-5.3c-1.7-1.7-2.7-3-3.5-3.9c-0.9-1.2-1.6-2-2.9-2.9c-0.3-0.2-2.8-1.8-5.8-1.1c-1,0.2-1.6,0.5-2.1,0.8
								c-5.5,4.5-9.1,8.1-11.9,12c-0.1,0.2-1.5,2.6-1.2,4c0,0.1,0.1,0.2,0.2,0.3c0.5,0.4,2,1.5,5,1.9c2,0.3,4.1,0.5,6.2,0.6
								c0.1,0,0.1,0,0.2,0l0.1,0c0.1,0,0.1,0.2,0.1,0.2C27.2,41.9,27.1,42,27,42L27,42z"/>
							<path class="st0" d="M30.6,65c-0.1,0-0.1,0-0.1-0.1c0,0-2.2-2.1-3.4-3.9c-2.6-3.8-3.5-6.7-3.8-7.7c0-0.1-0.1-0.2-0.1-0.3
								C23,53,22.9,53,22.8,52.8c-0.1-0.1-0.4-0.3-0.9-0.8c-2.8-2.7-4.4-4.3-5.5-6.3c-0.5-1-1.9-5.3-1.2-6.6
								c0.1-0.1,0.2-0.1,0.3-0.1s0.1,0.2,0.1,0.3c-0.6,0.9,0.6,5,1.2,6.1c1,2,2.7,3.6,5.4,6.2c0.5,0.5,0.8,0.7,0.9,0.8
								c0.1,0.1,0.2,0.2,0.4,0.4c0,0,0.1,0.1,0.2,0.4c0.3,1,1.2,3.8,3.8,7.5c1.1,1.6,2.9,3.4,3.3,3.8c1-0.1,2.3-1.6,2.9-2.3
								c-0.2-0.5-0.8-1.9-1.5-3.3c-1.4-2.8-2.4-4.9-2.4-5.5c0-0.1,0.1-0.2,0.2-0.2s0.2,0.1,0.2,0.2c0,0.6,1.3,3.2,2.4,5.3
								c0.8,1.6,1.4,2.9,1.6,3.4c0,0.1,0,0.1,0,0.2C33.9,62.6,32,65,30.6,65L30.6,65L30.6,65z"/>
							<path class="st0" d="M29.1,56.3C29.1,56.3,29.1,56.3,29.1,56.3c-0.2-0.1-0.2-0.2-0.2-0.3c0.9-2.2,0.8-3.6,0.7-4.3
								c-0.3-1.4-1.1-4.1-1.7-6.3c-0.5-1.9-0.8-3-0.9-3.2c0-0.1,0.1-0.2,0.2-0.2c0.1,0,0.2,0.1,0.2,0.2c0,0.2,0.4,1.6,0.9,3.2
								c0.6,2.2,1.4,4.8,1.7,6.3c0.3,1.2,0,2.8-0.7,4.5C29.3,56.3,29.2,56.3,29.1,56.3L29.1,56.3z"/>
							<path class="st0" d="M49.6,35.8c0,0-0.1,0-0.1,0c-0.1-0.1-0.1-0.2,0-0.3l0,0c0.1-0.2,0.3-0.4,0.3-0.6l-6.4-7.1
								c-0.1-0.1-0.1-0.2,0-0.3s0.2-0.1,0.3,0l6.5,7.2c0.1,0.1,0.1,0.2,0,0.2c-0.1,0.3-0.3,0.6-0.5,0.8l0,0
								C49.8,35.7,49.7,35.8,49.6,35.8L49.6,35.8z"/>
							<path class="st0" d="M35.6,58.1c0,0-0.1,0-0.2-0.1c-0.2-0.2-0.4-0.4-0.6-0.6c-0.7-0.7-1.4-1.3-2-2.2
								c-0.1-0.1-0.2-0.2-0.3-0.4c-0.3-0.5-0.7-0.9-1.1-1.3c-0.2-0.2-0.4-0.4-0.6-0.6c-0.4-0.4-0.9-0.7-1.2-1.3
								c-0.1-0.1,0-0.2,0.1-0.3c0.1-0.1,0.2,0,0.3,0.1c0.3,0.5,0.6,0.8,1.1,1.2c0.2,0.2,0.5,0.4,0.7,0.6c0.4,0.4,0.8,0.9,1.1,1.4
								c0.1,0.1,0.2,0.2,0.3,0.3c0.7,0.8,1.3,1.4,2,2.1c0.2,0.2,0.4,0.4,0.6,0.6c0.1,0.1,0.1,0.2,0,0.3
								C35.7,58.1,35.6,58.1,35.6,58.1L35.6,58.1z"/>
							<path class="st0" d="M36.1,21.7c-0.1,0-0.1,0-0.2-0.1c-0.1-0.1-0.1-0.2,0-0.3c0.2-0.2,0.3-0.4,0.4-0.6c0-0.1,0.2-0.1,0.3-0.1
								s0.2,0.2,0.1,0.3c-0.1,0.2-0.3,0.5-0.5,0.7C36.2,21.7,36.2,21.7,36.1,21.7L36.1,21.7z"/>
							<path class="st0" d="M37.6,23.8c-0.1,0-0.2,0-0.2-0.1c-0.4-0.8-1-1.5-1.7-2c0,0,0,0,0,0c0,0,0,0-0.1,0
								c-0.1,0-0.2,0.1-0.3,0.2c-0.3,0.2-0.6,0.3-1,0.3c-0.1,0-0.2-0.1-0.2-0.2c0-0.1,0.1-0.2,0.2-0.2c0.3,0,0.5-0.1,0.8-0.2
								c0.1-0.1,0.2-0.1,0.3-0.2c0.1,0,0.2-0.1,0.3-0.1c0.1,0,0.2,0.1,0.2,0.1c0.7,0.6,1.3,1.3,1.7,2.1
								C37.8,23.6,37.8,23.7,37.6,23.8C37.6,23.8,37.6,23.8,37.6,23.8L37.6,23.8z"/>
						</g>
						<path class="st0" d="M31.4,25.4c-1.9-0.5,0.2,4,0.1,4l-0.4,3.1c-0.1-0.4-0.3-3.1-0.6-3.4c-0.7-0.8-2.4-4.8-3-3
							c-0.2,0.6,1.4,3,1.5,4c0,0.7,0,2.6-0.1,2.6L28,30.3c-0.4-0.7-2.5-2.8-2.9-2.7c-0.9,0.6,1.5,3.1,1.5,3.4l0.4,2.8
							c0,0.3-0.3,0.5-0.5,0.3c-0.1-0.1-2.2-1.8-2.3-1.8c-0.5-0.2-1.9-0.7-2.1-0.7c-0.3,0-0.8,0.6-0.3,0.9c0.4,0.4,1.7,1,1.9,1.1
							c0.2,0.1,1.6,1.4,1.7,1.7c0.6,0.9,0.4,1.4,0.7,3.1c0.6,4.3,8,17.3,11.6,23.2l2-9.9l0-0.1c0.5,0.1,0.9,1.6,1.4,1
							c0.4-0.3,0.3-0.9,0.7-1.3c0.7-0.8-1.4-2.4-1.8-3.1c-1.2-1.2-6.1-7.8-6.2-8.1c1.1-1.1,0.8-1.8,1.5-3.2c0.3-0.6,1.9-1.6,1.5-2
							c-1.6-1.4-3.4,2-4,2.5c0.1-1.5,0.4-7.4,0.4-7.8C33.2,29.4,31.8,25.5,31.4,25.4L31.4,25.4z"/>
						<path class="st0" d="M67.2,56.6c-0.1,0-0.3,0.1-0.3,0.2c0.1,0.1,0.3,0.1,0.4,0.1c0.3,0,0.6,0,0.9,0c0.2,0,0.3,0,0.5-0.1
							c0.1,0,0.2-0.1,0.4-0.2c0.8-0.5,1.5-1,2.2-1.5c-0.1-0.1-0.2-0.3-0.3-0.4c-0.1-0.2,0-0.3-0.2-0.2c-0.3,0.2-0.5,0.5-0.8,0.7
							c-0.6,0.4-1.2,0.8-1.8,1C68,56.4,67.6,56.5,67.2,56.6z"/>
						<path class="st0" d="M52.9,104.5h26.3c-0.5-3.8-0.7-5.2-1.8-7.3c-0.5,0.4-0.9,0.6-1.3,1.1c-0.3,0.5-1.3,1.1-1.8,1.3
							c-1.8,0.9-3,1.5-5,1.7c-1.6,0.1-3,0-4.5-0.1c-1.4-0.1-3-0.2-4.4-0.3c-1.9-0.2-4.6-1-6.5-1.1C53,99.7,53.1,103.5,52.9,104.5
							L52.9,104.5z"/>
						<path class="st0" d="M51.1,69.5C49.3,71.4,50,75,51,77c0.9,1.9,0.7,3.5,0.6,5.5c0,2.3,0.4,4.5,0.7,6.8
							c-0.1-0.8,0.2-1.5,0.1-4.3c-0.2-3.7,0.2-7.4,0.5-11.1c-0.1-0.9,0.7-3.8,0.8-4.4L51.1,69.5L51.1,69.5z"/>
						<path class="st0" d="M72.5,63.2c1.8-1.3,1.4-4,0.2-5.5c-0.5-0.7-1.1-1.4-1.3-2.2c-0.8,0.2-1.4,0.9-2.1,1.3
							c-0.6,0-3.3,0.3-6,0.6c0.1-0.8,0.5-1.6,0.5-2.4c-0.4,0-11.7,1.1-16.1,1.8c-0.4,0-0.3-0.4-0.7-0.4s-0.4,0.8-0.8,0.1
							c-0.8-1.3-3.8-5.6-3.8-5.6s-1.3,1.5-1.5,2.3l-1-1.7c-0.6,1.7-3.1,13.2-1.9,14.3c4.3,3.4,8.6,3.7,15.6,3.7
							c-1.9,9.1-0.9,22.6-2.2,29.7c0,0,6.3,1.7,14.8,2.2c8.5,0.5,11.4-4.8,11.4-4.8c-0.4-1.1-4-9.5-3.9-10.4
							c-0.4-0.7-1.1-0.7-1.1-1.4c0-0.7,0.9-5.5,2-10.6C75.8,69,75.8,62,75.8,62C74.9,62.8,73.7,63.2,72.5,63.2z"/>
						<path class="st0" d="M51.9,85.9l-0.6-8l-0.7-1.8c0,0-1.5,11.2-2.1,14.2s-0.7,4.6-0.7,4.6s1.7,0.2,2.2,0.4
							c0.6,0.2,1.7,0.4,1.7,0.4L51.9,85.9L51.9,85.9z"/>
						<path class="st0" d="M35.8,34.6c0,0-0.1,0-0.1,0c-0.1-0.1-0.1-0.2,0-0.3l0,0c0.4-0.5,0.9-1,1.5-1.3c0.1,0,0.2,0,0.2,0.1
							s0,0.2-0.1,0.2c-0.5,0.3-1,0.8-1.4,1.3l0,0C36,34.5,35.9,34.6,35.8,34.6z"/>
						<path class="st0" d="M69.5,56.9c-0.1,0-0.1,0-0.2-0.1c-0.1-0.1,0-0.2,0.1-0.2c0.9-0.4,1.4-0.8,1.9-1.2c0.1,0,0.2-0.1,0.3-0.1
							c0.1,0,0.1,0,0.2,0.1c0.1,0.1,0,0.2-0.1,0.3c-0.1,0-0.1,0-0.2,0l0,0C71.1,56,70.5,56.4,69.5,56.9
							C69.6,56.9,69.5,56.9,69.5,56.9L69.5,56.9z"/>
						<g>
							<path class="st0" d="M56.3,72.2c0,0.4-0.2,0.7-0.5,0.7s-0.5-0.3-0.5-0.7s0.2-0.7,0.5-0.7S56.3,71.8,56.3,72.2z"/>
							<path class="st0" d="M55,81.1c0,0.4-0.2,0.7-0.5,0.7s-0.5-0.3-0.5-0.7s0.2-0.7,0.5-0.7S55,80.7,55,81.1z"/>
							<path class="st0" d="M54.2,94.2c0,0.4-0.2,0.7-0.5,0.7s-0.5-0.3-0.5-0.7s0.2-0.7,0.5-0.7S54.2,93.8,54.2,94.2z"/>
							<path class="st0" d="M55.5,75.9c0,0.4-0.2,0.7-0.5,0.7s-0.5-0.3-0.5-0.7s0.2-0.7,0.5-0.7S55.5,75.5,55.5,75.9z"/>
							<path class="st0" d="M54.9,87.1c0,0.4-0.2,0.7-0.5,0.7s-0.5-0.3-0.5-0.7s0.2-0.7,0.5-0.7S54.9,86.7,54.9,87.1z"/>
						</g>
						<path class="st0" d="M52.9,104.5C52.9,104.5,52.8,104.5,52.9,104.5c-0.1,0-0.2-0.1-0.2-0.2l0.7-4.6c0-0.1,0.1-0.2,0.2-0.2
							c0.1,0,0.2,0.1,0.2,0.2l-0.7,4.6C53.1,104.4,53,104.5,52.9,104.5L52.9,104.5z"/>
						<path class="st0" d="M39.8,51.9c-0.1,0-0.1,0-0.2-0.1c-0.3-0.3-6.7-8.7-6.9-10.5c0-0.2,0.2-0.4,0.8-1.2c0.3-0.3,0.8-0.9,0.8-1
							c0-0.1,0-0.1,0.1-0.2c0.1-0.5,0.4-1.4,0.7-2c0.1-0.3,0.5-0.5,0.8-0.9c0.3-0.3,0.8-0.8,0.7-0.9c-0.1-0.1-0.3-0.2-0.6-0.2
							c-0.4,0-0.9,0.2-1.2,0.5c-0.6,0.6-1.6,2-1.6,2c0,0,0,0,0,0l-0.6,0.5c-0.1,0.1-0.2,0.1-0.3,0s-0.1-0.2,0-0.3l0.5-0.5
							c0.1-0.2,1-1.5,1.7-2c0.4-0.4,1-0.6,1.5-0.6c0.4,0,0.7,0.1,0.9,0.3c0.4,0.4-0.2,1-0.8,1.5c-0.3,0.3-0.6,0.5-0.7,0.7
							c-0.3,0.5-0.5,1.4-0.6,1.8c0,0.1,0,0.2-0.1,0.2c-0.1,0.2-0.4,0.6-0.9,1.2c-0.3,0.3-0.7,0.8-0.7,0.9c0.2,1.5,4.9,7.9,6.8,10.3
							c0.1,0.1,0.1,0.2,0,0.3C39.9,51.9,39.9,51.9,39.8,51.9L39.8,51.9z"/>
						<path class="st0" d="M37.8,61.8c-0.1,0-0.1,0-0.2-0.1c-2.2-3-10.2-18.7-10.5-19.4c-0.3-0.7-1-2.9-1.1-3.9
							c-0.1-0.9-0.3-2.2-0.4-2.5c-0.1-0.1-0.2-0.4-0.3-0.6s-1.5-1.5-1.6-1.6c0,0-1.5-0.7-1.9-1.1c-0.2-0.2-0.3-0.4-0.2-0.7
							c0.1-0.3,0.4-0.6,0.6-0.6c0.1,0,0.3,0,2.2,0.7c0.1,0,0.2,0.1,0.3,0.2l2,1.6c0,0,0.1,0,0.1,0c0,0,0-0.1,0-0.1L26.5,31
							c-0.2-0.3-1.3-1.7-1.5-2.2c-0.2-0.3-0.5-1.1,0.1-1.4c0.2-0.1,0.5-0.2,3,2.5c0.1,0.1,0.2,0.2,0.2,0.3l0.6,1.6c0-0.4,0-1,0-1.7
							c0-0.1,0-0.3-0.1-0.4c-1.6-3.2-1.4-3.5-1.4-3.6c0.2-0.4,0.4-0.6,0.6-0.6c0.2,0,0.5,0.1,0.7,0.3c0.2,0.3,1.5,2.4,2.1,3.2
							c0.1,0.2,0.2,0.4,0.2,0.6l0.2,1.2l0.2-1.4c-0.1-0.3-0.7-2.1-0.8-3c-0.1-0.5,0-0.8,0.2-1c0.2-0.3,0.6-0.2,0.9-0.2
							c0.1,0,0.4,0,1.2,2.2c0.3,0.8,0.8,2.1,0.8,2.3c0,0.3-0.4,7.5-0.4,7.8c0,0.1-0.1,0.2-0.2,0.2c-0.1,0-0.2-0.1-0.2-0.2
							c0.2-2.6,0.4-7.5,0.4-7.8c0-0.4-1.3-3.7-1.6-4.1c-0.2,0-0.4,0-0.5,0.1c-0.1,0.1-0.1,0.3-0.1,0.6c0.2,1,0.8,3,0.8,3
							c0,0,0,0.1,0,0.1l-0.4,3.1c0,0.1-0.1,0.2-0.2,0.2c-0.1,0-0.2-0.1-0.2-0.2l-0.4-2.9c0-0.2-0.1-0.3-0.2-0.5
							c-1.1-1.8-1.9-3-2.1-3.2c-0.1-0.1-0.2-0.2-0.3-0.2c-0.1,0-0.2,0.1-0.3,0.3c0,0.2,0.4,1.3,1.4,3.3c0.1,0.2,0.1,0.4,0.1,0.6
							c0,2.8-0.1,2.8-0.3,2.8c-0.1,0-0.2,0-0.2-0.1l-0.9-2.4c0-0.1-0.1-0.1-0.1-0.2c-1.4-1.5-2.2-2.2-2.5-2.4
							c-0.1,0.1-0.1,0.2,0.1,0.8c0.2,0.5,1.5,2.2,1.5,2.2c0,0,0,0.1,0,0.1l0.4,2.8c0,0.2-0.1,0.4-0.2,0.5c-0.2,0.1-0.4,0.1-0.6,0
							l-2-1.6c-0.1,0-0.1-0.1-0.2-0.1c-1.2-0.5-1.9-0.7-2-0.7c0,0-0.2,0.1-0.3,0.3c0,0.1,0,0.2,0.1,0.2c0.4,0.3,1.5,0.9,1.9,1.1
							c0.2,0.1,1.7,1.5,1.8,1.8c0.1,0.2,0.4,0.6,0.4,0.6c0,0,0,0.1,0,0.1c0,0,0.2,1.5,0.4,2.5c0.2,1,0.8,3.1,1.1,3.8
							c0.3,0.7,8.4,16.5,10.5,19.3c0.1,0.1,0,0.2,0,0.3C37.9,61.8,37.9,61.8,37.8,61.8L37.8,61.8z"/>
						<path class="st0" d="M55.2,69.7c-4,0-9.3-0.1-11.1-0.6c-2.3-0.6-5.3-2.6-6.2-3.2c-0.2-0.2-0.3-0.4-0.4-0.7c0-0.8,0-3,0.6-6.8
							c0.3-1.8,1.6-6.9,1.6-7.1c0-0.1,0.1-0.1,0.2-0.2c0.1,0,0.2,0,0.2,0.1l6.1,8c0.1-0.1,0.2-0.1,0.2-0.2c0.4-0.1,0.7,0.1,0.9,0.3
							c1.1-0.2,7.8-1.2,10.5-1.7c2.9-0.4,11.6-1.3,11.7-1.3c0.1,0,0.2,0.1,0.2,0.2c0,0.1-0.1,0.2-0.2,0.2c-0.1,0-8.8,0.9-11.7,1.3
							c-2.9,0.4-10.5,1.7-10.6,1.7c-0.1,0-0.2,0-0.2-0.1c0,0-0.2-0.3-0.4-0.2c0,0-0.1,0.1-0.2,0.2c0,0.1-0.1,0.1-0.2,0.1
							c-0.1,0-0.2,0-0.2-0.1l-6-7.9c-0.3,1.3-1.3,5.2-1.5,6.6c-0.6,3.8-0.6,6-0.6,6.8c0,0.1,0.1,0.2,0.2,0.3
							c0.9,0.6,3.8,2.6,6.1,3.1c2.7,0.6,13.2,0.6,15.4,0.5c2.3-0.1,6.8-0.7,6.8-0.7c0.1,0,0.2,0.1,0.2,0.2c0,0.1-0.1,0.2-0.2,0.2
							c0,0-4.5,0.6-6.8,0.7C58.8,69.6,57.2,69.7,55.2,69.7L55.2,69.7z"/>
						<path class="st0" d="M47.5,57c0,0-0.1,0-0.1,0l-0.4-0.3c-0.2,0-0.3,0.1-0.3,0.2c0,0.1-0.1,0.1-0.2,0.2c-0.1,0-0.2,0-0.2-0.1
							l-3.9-5.7c-0.2,0.2-0.4,0.5-0.7,1c-0.1,0.2-0.4,0.9-0.4,0.9c0,0.1-0.2,0.2-0.3,0.1s-0.2-0.2-0.1-0.3c0,0,0.3-0.7,0.4-0.9
							c0.5-1,1-1.3,1-1.3c0.1-0.1,0.2,0,0.3,0.1l3.9,5.7c0,0,0.1-0.1,0.2-0.1c0.2-0.1,0.3-0.1,0.5,0c0,0,0,0,0.1,0l0.4,0.3
							c0.8-0.1,6.2-1,9.5-1.3c3.6-0.4,6.6-0.5,6.6-0.5c0.1,0,0.2,0.1,0.2,0.2s-0.1,0.2-0.2,0.2c0,0-3,0.1-6.6,0.5S47.5,57,47.5,57
							C47.5,57,47.5,57,47.5,57L47.5,57z"/>
						<path class="st0" d="M42.1,51C42,51,42,51,41.9,51l-8.2-10.6c-0.1-0.1-0.1-0.2,0-0.3s0.2-0.1,0.3,0l8.2,10.6
							c0.1,0.1,0.1,0.2,0,0.3C42.2,51,42.1,51,42.1,51L42.1,51z"/>
						<path class="st0" d="M51.8,95.1c-0.1,0-0.2-0.1-0.2-0.2c0-0.1,0-4.8,0.1-6.8c0.1-1.9-0.5-9.5-0.6-10.1
							c-2.8-6.1-0.3-8.6-0.2-8.7c0.1-0.1,0.2-0.1,0.3,0c0.1,0.1,0.1,0.2,0,0.3c0,0-2.4,2.4,0.3,8.2c0,0,0,0.1,0,0.1
							c0,0.3,0.6,8.2,0.6,10.2c-0.1,2-0.1,6.8-0.1,6.8C52,95,51.9,95.1,51.8,95.1z"/>
						<path class="st0" d="M67.2,101.6c-0.3,0-0.7,0-1.1,0c-8.4-0.5-14.7-2.2-14.8-2.2c-0.1,0-0.2-0.1-0.2-0.2
							c0-0.1,1.2-11.4,0.9-13.9c-0.2-2.6,0.3-11.6,1.2-15.9c0-0.1,0.1-0.2,0.3-0.2s0.2,0.1,0.2,0.3c-0.9,4.2-1.5,13.2-1.2,15.7
							c0.2,2.4-0.8,12.2-0.9,13.8c1.1,0.3,7,1.7,14.5,2.1c7.7,0.4,10.7-3.9,11.2-4.6l-3.5-8.8c-0.2-0.4-0.3-0.9-0.3-1.3
							c0-0.1,0-0.1,0-0.2c-0.1-0.3-0.3-0.4-0.5-0.6c-0.3-0.2-0.6-0.4-0.6-0.9c0-0.7,0.9-5.5,2-10.6c1.1-5,1.2-12,1.2-12.1
							c0-0.1,0.1-0.2,0.2-0.2s0.2,0.1,0.2,0.2c0,0.1-0.1,7.1-1.2,12.2c-1.2,5.1-2,9.9-2,10.6c0,0.3,0.1,0.4,0.4,0.6
							c0.2,0.2,0.5,0.3,0.7,0.7c0.1,0.1,0.1,0.2,0.1,0.3c0,0.4,0.1,0.8,0.3,1.2l3.6,8.9c0,0.1,0,0.1,0,0.2S75,101.6,67.2,101.6
							L67.2,101.6z"/>
						<path class="st0" d="M51.7,95.9C51.7,95.9,51.7,95.9,51.7,95.9c-0.1,0-1.2-0.2-1.8-0.4c-0.5-0.2-2.2-0.4-2.2-0.4
							c-0.1,0-0.2-0.1-0.2-0.2c0-0.1,0.1-1.6,0.7-4.6c0.6-3,2.1-14.1,2.1-14.2c0-0.1,0.1-0.2,0.2-0.2c0.1,0,0.2,0.1,0.2,0.2
							c0,0.1-1.5,11.2-2.1,14.2c-0.5,2.3-0.7,3.8-0.7,4.4c0.5,0.1,1.6,0.2,2.1,0.4c0.5,0.2,1.7,0.4,1.7,0.4c0.1,0,0.2,0.1,0.2,0.2
							C52,95.8,51.9,95.9,51.7,95.9L51.7,95.9z"/>
						<path class="st0" d="M79.2,104.4c-0.1,0-0.2-0.1-0.2-0.2c0,0-0.4-3.5-0.7-4.5c-0.2-1.1-1.1-2.8-1.1-2.8
							c-0.1-0.1,0-0.2,0.1-0.3c0.1-0.1,0.2,0,0.3,0.1c0,0.1,0.9,1.8,1.2,2.9c0.3,1.1,0.6,4.4,0.7,4.6
							C79.4,104.3,79.3,104.4,79.2,104.4L79.2,104.4L79.2,104.4z"/>
						<path class="st0" d="M45.6,63.9c-0.1,0-0.2-0.1-0.2-0.2c-0.1-1.3-0.1-2.8,0.7-4.2c0.1-0.1,0.2-0.1,0.3-0.1
							c0.1,0.1,0.1,0.2,0.1,0.3c-0.7,1.2-0.7,2.7-0.6,3.9C45.8,63.8,45.7,63.9,45.6,63.9C45.6,63.9,45.6,63.9,45.6,63.9z"/>
						<path class="st0" d="M85.4,56.8c-0.2-1.1,0.1-2.2,0.3-3.3c1.3-4.2-3.5-4.8-5-7.8c-0.2-0.4-0.7-2.1-0.5-3.8
							c1.7-6.9-7.9-10.2-14.1-8.9c-1.3-1-2.4-0.6-3.3,1c-1.8,3.2-1,5.7-1,5.7S62,37,64,36.4l0.1-0.1c0.8,0.1,1.6-1.4,2.3-0.7
							c1.4,2.1,0.6,5.6,3.2,6.8c0.1,2.2,2.9,0.3,4.1,1.2c2,1.4-1.8,3.5-2.2,3.6c0,0.1-0.1,0.3-0.1,0.4c0,0-0.1,0-0.1,0
							c-0.5,2.8-0.5,5.7,0.4,8.4c1.4,2.2,3.5,5,0.9,7.2c1.6,0,3.5-0.7,4-2.4c0.2,1.9,1.6,3.9,3.6,3.8c-2.1-1.3-1.2-4.2-0.7-6.2
							c0.1,0,0.2,0,0.3,0c0.7,1,1.1,2.8,0.3,3.7c1.8-0.2,2.2-2.3,1.9-3.8c0,0,0.1,0,0.1,0c-0.1,1.9,0.4,4.1,2.4,4.8
							c-1.3-1.8,0.3-3.8-0.2-5.7c0,0,0,0,0.1-0.1c0.7,1.1,2.4,2.1,3.5,1.2C86.7,58.9,85.7,57.9,85.4,56.8L85.4,56.8z"/>
						<path class="st0" d="M73.1,43.1c-0.7-0.2-1.4,0.4-2.2,0.4c-1.4-0.2-2.6-2.8-3.4-3.8l0.3,0.5c-0.8-1,0-6.1-2.3-4.7
							c-0.2,0.1-0.8,0.3-0.8,0.5c0,0,0,0,0,0c-1.6,1.3-1.4,2.9-2,4.4c-0.6,1.7-2.4,1.3-2.5,2.1c-0.1,0.7,0.6,1.4,0.6,2.2
							c0.1,1.3-1.5,5.1,0.7,5.7c0.6,0.3,2.7,0.4,2.7,1.1c-0.1,1.9,0.1,4.1-1.2,5.7c2.5,0.1,4.6-0.4,6.8-1.7c1-0.6,1.4-1.8,1.1-3.5
							c-0.3-1.3,0.3-4.7,0.5-4.8C73.4,47.1,75.5,44.2,73.1,43.1L73.1,43.1z M64.7,36C64.7,36,64.7,36,64.7,36
							C64.7,36,64.7,36,64.7,36L64.7,36z"/>
						<path class="st2" d="M64.2,41c0.2-0.4,0.6-0.6,0.9-0.4c0.2,0.2,0.3,0.6,0.1,1c-0.2,0.4-0.6,0.6-0.9,0.4
							C63.9,41.8,63.9,41.4,64.2,41z"/>
						<path class="st0" d="M66.5,40c-0.1,0-0.1,0-0.2-0.1c-0.3-0.5-0.9-0.9-1.7-0.7c-0.1,0-0.2,0-0.3-0.2s0-0.2,0.2-0.3
							c0.9-0.2,1.7,0.3,2.1,0.9c0.1,0.1,0,0.2-0.1,0.3C66.6,39.9,66.5,40,66.5,40L66.5,40z"/>
						<g>
							<path class="st0" d="M62.1,45.5c0,0-0.6,2.2,1,2.5c1.3,0.2,2.3-1.5,2.3-1.5s-1-0.2-1.9-0.4C62.8,45.9,62.1,45.5,62.1,45.5
								L62.1,45.5z"/>
							<path class="st0" d="M63.4,48.2c-0.1,0-0.2,0-0.2,0c-0.5-0.1-0.8-0.3-1-0.7c-0.5-0.8-0.2-2-0.2-2.1s0.1-0.1,0.1-0.1
								c0.1,0,0.1,0,0.2,0c0,0,0.7,0.4,1.4,0.5c0.9,0.2,1.9,0.4,1.9,0.4c0.1,0,0.1,0.1,0.2,0.1c0,0.1,0,0.1,0,0.2
								C65.6,46.6,64.7,48.2,63.4,48.2L63.4,48.2z M62.3,45.8c-0.1,0.4-0.1,1,0.2,1.5c0.2,0.2,0.4,0.4,0.8,0.5
								c0.9,0.1,1.6-0.7,1.9-1.2c-0.4-0.1-1-0.2-1.6-0.3C63,46.1,62.5,45.9,62.3,45.8L62.3,45.8z"/>
						</g>
						<path class="st2" d="M61.4,50.3c0,0,3.9,0.9,5.4,0.6c0,0-0.4,0.7-1,1.2c-0.6,0.5-1.4,1-1.4,1l-0.1-1.5L61.4,50.3z"/>
						<g>
							<g>
								<path class="st0" d="M71,47.4c-0.2,0-0.3,0-0.5,0c-0.1,0-0.2-0.1-0.2-0.2c0-0.1,0.1-0.2,0.2-0.2c1.4,0.1,2.9-0.4,3.2-1.8
									c0.1-0.7,0.1-1.1-0.1-1.4s-0.6-0.4-1.3-0.4c-0.1,0-0.2-0.1-0.2-0.2c0-0.1,0.1-0.2,0.2-0.2c0.8,0,1.3,0.2,1.7,0.5
									c0.3,0.4,0.4,0.9,0.2,1.7C73.9,46.7,72.4,47.4,71,47.4L71,47.4z"/>
								<path class="st0" d="M71.5,45.7c0,0-0.1,0-0.1,0c-0.1-0.1-0.1-0.2,0-0.3c0.2-0.2,0.6-0.6,1.3-0.6c0.1,0,0.2,0.1,0.2,0.2
									c0,0.1-0.1,0.2-0.2,0.2c-0.5,0-0.8,0.3-0.9,0.5C71.6,45.7,71.6,45.7,71.5,45.7L71.5,45.7z"/>
								<path class="st0" d="M70.7,42.8C70.7,42.8,70.7,42.8,70.7,42.8c0,0-3-0.3-3.5-4.6c-0.2-2.2-0.6-2.8-0.8-2.9
									c-0.1-0.1-0.3,0.1-0.5,0.2c0,0-0.1,0.1-0.1,0.1c-0.1,0.1-0.2,0-0.3-0.1c-0.1-0.1,0-0.2,0.1-0.3c0,0,0.1,0,0.1-0.1
									c0.3-0.2,0.6-0.4,0.9-0.3c0.4,0.2,0.7,0.7,1,3.3c0.3,2.7,1.6,3.7,2.4,4c-0.6-0.7-1.4-2-1.3-3.4c0-0.1,0.1-0.2,0.2-0.2
									c0.1,0,0.2,0.1,0.2,0.2c-0.2,2,1.6,3.6,1.7,3.6c0.1,0.1,0.1,0.2,0.1,0.2C70.9,42.8,70.8,42.8,70.7,42.8L70.7,42.8z"/>
								<path class="st0" d="M73.4,41.8c-1.2,0-3-0.3-4.5-2.1c-0.1-0.1-0.1-0.2,0-0.3s0.2-0.1,0.3,0c1.5,1.7,3.2,2,4.3,1.9
									c-1.4-0.5-3.8-1.9-4.4-5.3c0-0.1,0.1-0.2,0.2-0.2c0.1,0,0.2,0.1,0.2,0.2c0.8,4.6,5,5.2,5.1,5.2c0.1,0,0.2,0.1,0.2,0.2
									c0,0.1-0.1,0.2-0.2,0.2C74.7,41.6,74.2,41.8,73.4,41.8L73.4,41.8z"/>
								<path class="st0" d="M70.9,43.7c-0.2,0-0.5-0.1-0.7-0.2c-0.4-0.2-0.8-0.7-1-1.3c0-0.1,0-0.2,0.1-0.3c0.1,0,0.2,0,0.3,0.1
									c0.2,0.5,0.4,0.9,0.8,1c0.3,0.1,0.6,0.2,0.9,0c0.1,0,0.2,0,0.3,0.1s0,0.2-0.1,0.3C71.2,43.7,71,43.7,70.9,43.7L70.9,43.7z"
									/>
								<path class="st0" d="M61.8,39.9c-0.1,0-0.2-0.1-0.2-0.2c0-0.1-0.9-2.7,1-5.9c0.5-1,1.2-1.5,1.9-1.7c0.6-0.1,1.2,0.1,1.8,0.6
									c0.1,0.1,0.1,0.2,0,0.3c-0.1,0.1-0.2,0.1-0.3,0c-0.5-0.4-1-0.6-1.4-0.5C64,32.7,63.4,33.2,63,34c-1,1.8-1.2,3.4-1.1,4.5
									c0.3-0.9,0.9-1.9,2-2.3c0.1,0,0.2,0,0.3,0.2c0,0.1,0,0.2-0.2,0.3c-1.8,0.5-2,3-2,3.1C62,39.8,61.9,39.9,61.8,39.9
									C61.8,39.9,61.8,39.9,61.8,39.9L61.8,39.9z"/>
								<path class="st0" d="M63,57.6c0,0-0.1,0-0.1,0c-0.1-0.1-0.1-0.2,0-0.3c0.6-0.8,0.6-1.2,0.7-1.8c0-0.2,0.1-0.5,0.2-0.9
									c0.4-1.5,0.4-3,0.2-3.1c-0.3-0.2-0.6-0.3-1-0.4c-0.4-0.1-0.9-0.2-1.5-0.5c-1-0.4-1.5-0.9-1.3-2.3c0.1-0.7,0.2-1.3,0.3-2
									c0.1-0.6,0.2-1.2,0.2-1.6c0-0.3-0.1-0.7-0.3-1c-0.2-0.4-0.4-0.8-0.3-1.2c0.1-0.5,0.5-0.6,1-0.8c0.6-0.2,1.2-0.5,1.5-1.3
									c0.1-0.3,0.2-0.7,0.3-1.1c0.2-0.6,0.3-1.2,0.5-1.8c0.2-0.5,0.4-1,1.2-1.7c0.1-0.1,0.2-0.1,0.3,0c0.1,0.1,0.1,0.2,0,0.3
									c-0.8,0.6-1,1.1-1.1,1.5c-0.2,0.6-0.4,1.2-0.5,1.8c-0.1,0.4-0.2,0.8-0.3,1.1c-0.4,1.1-1.2,1.4-1.8,1.6
									c-0.4,0.2-0.7,0.3-0.7,0.5c-0.1,0.3,0.1,0.6,0.2,1c0.2,0.4,0.3,0.8,0.3,1.2s-0.1,1-0.2,1.7c-0.1,0.6-0.2,1.3-0.3,1.9
									c-0.1,1.2,0.3,1.5,1.1,1.9c0.6,0.3,1,0.4,1.4,0.4c0.4,0.1,0.8,0.2,1.2,0.5c0.6,0.4,0.2,2.9,0,3.6C64.1,55,64,55.3,64,55.5
									c-0.1,0.6-0.2,1.1-0.8,2C63.1,57.5,63,57.6,63,57.6L63,57.6z"/>
							</g>
							<path class="st0" d="M72.6,63.4C72.6,63.4,72.5,63.4,72.6,63.4c-0.2,0-0.2-0.1-0.3-0.2s0-0.2,0.1-0.2
								c0.7-0.5,1.2-1.5,1.1-2.5c0-0.9-0.4-1.8-1-2.7c-0.1-0.1-0.2-0.3-0.3-0.4c-0.3-0.4-0.6-0.8-0.8-1.3c-0.2-0.7-0.4-1.5-0.5-2.1
								c-0.1-0.7-0.2-1.4-0.2-2.2c-0.1-1.8,0.1-3.4,0.5-4.7c0-0.1,0.2-0.2,0.3-0.1c0.1,0,0.2,0.2,0.1,0.3c-0.4,1.3-0.6,2.8-0.5,4.6
								c0,0.7,0.1,1.4,0.2,2.1c0.1,0.6,0.2,1.4,0.5,2c0.2,0.4,0.4,0.8,0.8,1.2c0.1,0.1,0.2,0.3,0.3,0.4c0.7,1,1.1,2,1.1,3
								c0,0.9-0.3,1.8-0.9,2.5c0.7-0.1,1.3-0.3,1.8-0.6c0.8-0.5,1.2-0.8,1.4-1.6c0-0.1,0.2-0.2,0.3-0.2c0.1,0,0.2,0.2,0.2,0.3
								c-0.2,0.9-0.8,1.4-1.6,1.9C74.4,63.2,73.6,63.4,72.6,63.4L72.6,63.4z"/>
							<path class="st0" d="M86.8,59.2c-0.6,0-1.2-0.2-1.7-0.6c-0.8-0.5-1.3-1.4-1.5-2.3c-0.1-0.3-0.1-0.5-0.1-0.8
								c-0.1-0.5-0.1-0.9-0.3-1.3c-0.5-1-1.7-1.3-2.8-1.6c-0.1,0-0.2-0.1-0.2-0.3s0.1-0.2,0.3-0.2c1.2,0.3,2.6,0.7,3.1,1.8
								c0.2,0.5,0.3,1,0.4,1.5c0,0.2,0.1,0.5,0.1,0.8c0.2,0.8,0.7,1.5,1.4,2c0.4,0.3,0.9,0.5,1.4,0.5h0c-0.1,0-0.2-0.1-0.4-0.2
								c-0.6-0.4-1.1-1-1.2-1.8c-0.2-1,0-2,0.2-2.9c0-0.2,0.1-0.3,0.1-0.5c0.2-0.9,0.3-2.2-0.3-3.1c-0.3-0.4-0.8-0.8-1.2-1.1l-0.1,0
								c-1.3-1-2.6-2-3.4-3.4c-0.2-0.4-0.8-2.1-0.5-4c0,0,0,0,0,0c0,0,0.8-3.6-2-6c-2.6-2.2-7.3-3.4-10.7-2.6c-0.1,0-0.2,0-0.3-0.2
								c0-0.1,0.1-0.2,0.2-0.3c3.6-0.8,8.3,0.4,11.1,2.7c2.9,2.6,2.2,6.2,2.1,6.5c-0.2,1.7,0.3,3.4,0.5,3.7c0.7,1.3,1.9,2.3,3.2,3.3
								l0.1,0c0.5,0.3,0.9,0.7,1.3,1.2c0.7,1.1,0.6,2.5,0.4,3.4c0,0.2-0.1,0.3-0.1,0.5c-0.2,0.9-0.4,1.8-0.2,2.7
								c0.1,0.6,0.5,1.2,1,1.5c0.2,0.2,0.6,0.3,1.1,0.2c0.1,0,0.2,0,0.2,0.1c0.1,0.1,0,0.2-0.1,0.3C87.6,59.1,87.2,59.2,86.8,59.2
								L86.8,59.2z"/>
							<path class="st0" d="M80,64.8c-0.9,0-1.9-0.4-2.6-1.2c-0.6-0.7-1-1.6-1.2-2.7c0-0.1,0-0.2,0-0.3c0-0.3-0.1-0.5-0.2-0.8
								c-0.2-0.5-0.5-0.8-0.8-1.2c-0.4-0.5-0.8-1-0.9-1.7c0-0.1,0.1-0.2,0.2-0.2c0.1,0,0.2,0.1,0.2,0.2c0.1,0.6,0.4,1,0.8,1.5
								c0.3,0.4,0.7,0.8,0.9,1.4c0.1,0.3,0.1,0.6,0.2,0.9c0,0.1,0,0.2,0,0.3c0.1,1,0.5,1.9,1.1,2.5c0.5,0.5,1.1,0.9,1.7,1
								c-0.8-0.8-1-2.2-0.9-3.2c0.1-0.5,0.2-1.1,0.4-1.6c0.2-0.8,0.4-1.5,0.3-2.3c-0.1-0.6-0.3-1-0.3-1c-0.1-0.1,0-0.2,0.1-0.3
								c0.1-0.1,0.2,0,0.3,0.1c0,0,0.3,0.5,0.3,1.2c0.1,0.8-0.1,1.7-0.4,2.4c-0.1,0.5-0.3,1-0.3,1.5c-0.1,1.2,0.1,2.7,1.2,3.3
								c0.1,0.1,0.1,0.1,0.1,0.2c0,0.1-0.1,0.2-0.2,0.2C80.1,64.8,80,64.8,80,64.8L80,64.8z"/>
							<path class="st0" d="M84.5,63.4C84.5,63.4,84.4,63.4,84.5,63.4c-1.2-0.5-2.1-1.5-2.4-2.7c-0.3,0.8-1,1.6-2,1.7
								c-0.1,0-0.2,0-0.2-0.1c0-0.1,0-0.2,0-0.2c0.7-1,0.3-2.8-0.5-3.7c-0.1-0.1-0.1-0.2,0-0.3s0.2-0.1,0.3,0c0.8,1,1.3,2.7,0.8,3.8
								c0.6-0.2,1.1-0.9,1.2-1.5c0.2-0.8,0.1-1.8,0-2.6c0-0.1,0.1-0.2,0.2-0.2c0.1,0,0.2,0,0.3,0.1c0.2,0.5,0.2,1.1,0.2,1.6
								c0,0.3,0,0.6,0.1,0.9c0.1,1,0.7,1.9,1.5,2.4c-0.2-0.6-0.3-1.2-0.2-1.8c0-0.2,0.1-0.4,0.2-0.6c0.1-0.2,0.1-0.3,0.1-0.5
								c0.1-0.6,0.1-1.5,0-2.3c0-0.1,0.1-0.2,0.2-0.2c0.1,0,0.2,0.1,0.2,0.2c0,0.3,0.2,1.6,0,2.5c0,0.2-0.1,0.4-0.1,0.6
								c-0.1,0.2-0.1,0.4-0.2,0.6c-0.1,0.7,0,1.5,0.5,2.1c0.1,0.1,0.1,0.2,0,0.3C84.7,63.4,84.6,63.4,84.5,63.4L84.5,63.4z"/>
							<path class="st0" d="M78.2,53.8c-0.1,0-0.2,0-0.2-0.1c-0.5-1.1-1.2-1.8-1.8-2.5c-1.1-1.1-2.1-2.2-2-4.7
								c0-0.1,0.1-0.2,0.2-0.2c0.1,0,0.2,0.1,0.2,0.2c0,2.3,0.9,3.3,1.9,4.4c0.7,0.7,1.3,1.4,1.9,2.6C78.4,53.6,78.4,53.7,78.2,53.8
								C78.3,53.8,78.2,53.8,78.2,53.8L78.2,53.8z"/>
						</g>
						<path class="st0" d="M65.6,57.3c-0.1,0-0.2-0.1-0.2-0.2c0-0.1,0.1-0.2,0.2-0.2c0.7-0.1,2.7-0.9,3.6-1.4
							c0.2-0.1,0.4-0.3,0.7-0.5c0.4-0.3,0.8-0.5,1.2-0.7c0.1,0,0.2,0,0.3,0.1s0,0.2-0.1,0.3c-0.4,0.2-0.8,0.4-1.1,0.7
							c-0.2,0.2-0.5,0.3-0.7,0.5C68.5,56.5,66.4,57.2,65.6,57.3C65.7,57.4,65.7,57.4,65.6,57.3L65.6,57.3z"/>
					</g>
				</g>
			</g>
		</g>
	</g>
</g>
</svg>
