<?xml version="1.0" encoding="UTF-8"?>
<svg id="_レイヤー_2" data-name="レイヤー 2" xmlns="http://www.w3.org/2000/svg" viewBox="0 0 206.98 251.18">
  <defs>
    <style>
      .cls-1 {
        fill: #262626;
      }

      .cls-2 {
        fill: #fff;
      }

      .cls-3 {
        fill: none;
        stroke: #262626;
        stroke-linecap: round;
        stroke-linejoin: round;
        stroke-width: 1.5px;
      }

      .cls-4 {
        fill: #236177;
      }

      .cls-5 {
        fill: #4e8097;
      }

      .cls-6 {
        fill: #598a9e;
      }

      .cls-7 {
        fill: #ffd196;
      }

      .cls-8 {
        fill: #99664a;
      }

      .cls-9 {
        fill: #e88777;
      }

      .cls-10 {
        fill: #c48b68;
      }

      .cls-11 {
        fill: #d89e64;
      }

      .cls-12 {
        fill: #f4c076;
      }

      .cls-13 {
        fill: #e26666;
      }

      .cls-14 {
        fill: #b9c583;
      }

      .cls-15 {
        fill: #745c5f;
      }

      .cls-16 {
        fill: #ffd6ba;
      }

      .cls-17 {
        fill: #f5c78c;
      }

      .cls-18 {
        fill: #74b0cc;
      }
    </style>
  </defs>
  <g id="illustration">
    <g>
      <g>
        <g>
          <path class="cls-2" d="m85.9,107.39l-.12,1.56c-.11,1.44-.86,2.58-1.8,2.75l-1.03.18,1.03.18c.94.17,1.69,1.31,1.8,2.75l.12,1.57.12-1.57c.11-1.44.86-2.58,1.8-2.75l1.03-.18-1.03-.18c-.95-.17-1.69-1.31-1.8-2.75l-.12-1.56Z"/>
          <path class="cls-2" d="m30.49,130.88l-.07.91c-.06.84-.5,1.5-1.05,1.59l-.59.1.59.11c.55.1.98.76,1.05,1.59l.07.91.07-.91c.07-.83.5-1.49,1.04-1.59l.59-.11-.59-.1c-.55-.09-.98-.75-1.04-1.59l-.07-.91Z"/>
          <path class="cls-2" d="m128.2,76.23l-.07.85c-.06.78-.47,1.41-.98,1.49l-.56.1.56.1c.51.09.92.71.98,1.49l.07.85.06-.85c.06-.78.47-1.4.98-1.49l.56-.1-.56-.1c-.52-.08-.92-.71-.98-1.49l-.06-.85Z"/>
          <path class="cls-2" d="m84.86,127.64l-.07.85c-.06.78-.47,1.41-.98,1.49l-.56.1.56.1c.51.09.92.71.98,1.49l.07.85.06-.85c.06-.78.47-1.4.98-1.49l.56-.1-.56-.1c-.52-.08-.92-.71-.98-1.49l-.06-.85Z"/>
          <path class="cls-2" d="m38.58,110.22l-.11,1.53c-.11,1.41-.84,2.52-1.76,2.68l-1,.18,1,.18c.92.16,1.65,1.27,1.76,2.68l.11,1.53.12-1.53c.11-1.41.84-2.52,1.76-2.68l1-.18-1-.18c-.92-.16-1.65-1.27-1.76-2.68l-.12-1.53Z"/>
          <path class="cls-2" d="m109.85,111.39l-.11,1.53c-.11,1.41-.84,2.52-1.76,2.68l-1.01.18,1.01.18c.92.16,1.65,1.27,1.76,2.68l.11,1.53.12-1.53c.11-1.41.84-2.52,1.76-2.68l1-.18-1-.18c-.92-.16-1.65-1.27-1.76-2.68l-.12-1.53Z"/>
          <path class="cls-2" d="m151.56,73.54l-.11,1.54c-.11,1.4-.84,2.51-1.76,2.68l-1,.17,1,.18c.93.17,1.66,1.27,1.76,2.68l.11,1.53.12-1.53c.11-1.41.84-2.52,1.76-2.68l1.01-.18-1.01-.17c-.92-.17-1.65-1.28-1.76-2.68l-.12-1.54Z"/>
        </g>
        <g>
          <g>
            <path class="cls-8" d="m156.05,190.07l-.94-3.12c.42-.1.85-.23,1.29-.42.13-.35.34-1.03.58-1.91l1.08,3.59c-.37-.06-.73-.1-1.1-.15-.52.22-.75,1.08-.91,2.02Z"/>
            <path class="cls-8" d="m176.08,248.17c.2.65-.17,1.34-.83,1.53-.12.04-.24.05-.36.05-.53,0-1.02-.34-1.18-.88l-13.96-46.45c.43-1.42.86-2.85,1.29-4.28l15.04,50.02Z"/>
            <path class="cls-8" d="m148.73,156.82l3.08,10.25c-.46,1.54-.85,3.08-1.18,4.64l-4.99-16.6c1.01.56,2.1,1.16,3.09,1.71Z"/>
            <path class="cls-10" d="m139.1,161.84c.08-.47.15-.96.23-1.45l1.97-6.54c.18-.3.38-.59.59-.86.23.13.95.54,1.92,1.07l-7,23.3c.53-5.3,1.28-10.56,2.3-15.51Z"/>
            <path class="cls-10" d="m136.78,177.65h12.65c-.07.48-.14.97-.21,1.46h-12.58c.04-.49.09-.97.14-1.46Z"/>
            <path class="cls-10" d="m140.62,163.43h-1.06v-1.46h13.2c.23.48.23.96.13,1.46h-12.26Z"/>
            <path class="cls-10" d="m112.71,248.98l14.29-47.55c.09.28.23.52.5.66.26.06.96.09,1.85.07l-.05.17c-.55-.02-1.09-.08-1.63-.19.03,1.09-.12,2.19-.45,3.24-.13.4-.28.81-.26,1.24,0,.28.09.56.18.83.1.34.21.67.31,1.01l-12.39,41.23c-.16.53-.65.88-1.18.88-.12,0-.24-.02-.36-.05-.65-.2-1.02-.88-.82-1.53Z"/>
            <path class="cls-5" d="m174.52,69.89c.4-.06.75-.38.85-.77.54.2,1.12.3,1.7.29.25,0,.54-.04.69-.25.14.56.27,1.13.23,1.7-.03.34-.12.67-.22.99-.05.17-.11.35-.17.53.37-.41.88-.67,1.57-.72-.07.74.54,3.48.69,1.61,1.59-.37,1.96-2.57,2.77-3.65.41-.9,2.06,1.96,2.41,3.11.23.59.6,0,.96.02-.05,1.65.98,3.99.23,5.5q.12,0,.24-.02c-.16.9.35,2.56.11,3.12.42-.16.16.47.4.56.59-.17.09,1.16.41,1.07-.73.66,1.37,11.9-.58,11.87-1.12,5.46-1.08,11.02-1.37,16.62-.83-3.56.08-6.56-1.09-10.07-.34,3.16-.66-3.48-.89-3.8-1.24.18-.78,3.4-1.06,4.34-.54.1-.5-.21-.46-.63-.71,1.2-.05,3.54-.48,5.21.08-.63.13-1.04-.11-1.55.14,3.56-1.34,6.29-.77.55-.58.05-.12,1.6-.44,2.15-.15.33-.3-.71-.45-.39-.03.33-1.4-4.68-1.16-8.42-.05-6.46-.28-12.78-1.68-18.92-.09-1.54-.45-4.06-.04-5.92-.04.06-.09.13-.13.19-.36.47-.5.25-.89-.06-.36-.28-.77-.49-1.21-.63-.21-1.2.36-2.49-.05-3.64Z"/>
            <polygon class="cls-13" points="179.72 167.37 175.01 151.7 170.3 167.37 179.72 167.37"/>
            <path class="cls-16" d="m126.96,206.62c-.01-.42.14-.83.26-1.24.32-1.05.47-2.14.45-3.24.54.11,1.08.17,1.63.19,1.23.05,2.48-.11,3.68-.38.26-.06.51-.12.77-.17.06,0,.12-.02.17.01.08.04.09.15.1.25.03.37.17.74.4,1.04.19.25.46.5.45.81,0,.2-.12.39-.21.57-.38.79-.28,1.71-.35,2.59-.03.39-.05,1.41-.41,1.63-.43.26-5.19.35-6.08.19-.09-.02-.18-.04-.24-.1-.04-.05-.07-.11-.08-.17-.01-.04-.03-.09-.04-.14-.1-.34-.21-.67-.31-1.01-.08-.27-.17-.55-.18-.83Z"/>
            <path class="cls-14" d="m135.23,203.24c.02-.07.05-.15.11-.19.08-.06.19-.04.28-.03.85.14,1.71.29,2.56.43.58.1,1.16.2,1.72.38,1.39.45,2.56,1.39,3.69,2.31.34.27.68.55.9.93.19.32.27.68.35,1.04.02.1.04.22,0,.31-.05.11-.18.17-.3.21-.53.18-1.1.24-1.66.28-.71.05-1.42.07-2.14.06-.66,0-1.33-.04-1.99-.07-1.39-.07-2.78-.11-4.17-.21-.37-.02-.4,0-.41-.32-.01-.32.1-.7.15-1.02.1-.66.21-1.31.34-1.96.15-.73.33-1.45.55-2.15Z"/>
            <path class="cls-16" d="m114.62,146.79c-.19.21-.37.41-.53.64-.85,1.23-.73,2.86-1.13,4.3-.22.8-.61,1.54-1.07,2.23-.3.46-.65.89-1.07,1.24-.42.34-.91.58-1.39.82-.18.09-.36.18-.56.18-.26,0-.49-.15-.69-.3-.5-.37-.97-.78-1.4-1.24-.28-.29-.54-.61-.67-.99-.21-.61-.05-1.28.12-1.91.11-.4.21-.8.43-1.15.27-.42.68-.73,1.04-1.08.65-.65,1.11-1.48,1.76-2.12.36-.35.78-.66,1.04-1.09.13-.21.21-.44.31-.66.3-.71.69-1.38,1.15-1.99.06-.08.12-.16.21-.19.11-.04.23-.01.35.02.27.07.54.15.81.22.36.1.73.2,1.06.38.47.26.92.73,1.08,1.26.19.59-.48,1.03-.85,1.44Z"/>
            <path class="cls-9" d="m142.08,109.57c.45-.29.8-.72,1.28-.97,2.52-1.34,4.14-2.36,6.22-3.86,2.19-1.58,4.57-2.88,6.68-4.56.31-.25.62-.51.88-.81.32-.39.53-.86.74-1.32.57-1.23,2.31-3.49,1.95-3.92-.34-.41.61-1.66,1.2-2.49.34-.48.73-.92,1.17-1.32.37-.34.74-.32,1.2-.53-.07.54.07,1.1.32,1.58.21.42.9,1.39.94,1.52.19.59.63,1.69,1.18,2.11.03.06.06.11.09.15.05.08.82.7.86.93.05.26-.07.52-.18.75-.23.49-.46.97-.78,1.41-.18.26-.4.49-.55.77-.11.2-.19.41-.33.59-.24.31-.65.5-.98.69-.41.23-.75.5-.92.94-.61,1.56-.78,1.69-1.2,2.61-.15.32-.74,1.16-.99,1.4-.11.1-12.51,9.91-12.71,10.07-.38.3-.76.59-1.15.86-.92-2.1-2.3-4.28-4.39-6.72-.17.04-.33.08-.5.12Z"/>
            <path class="cls-16" d="m140.09,110.9c.08.32.21.64.18.97,0,.1-.03.19-.05.28-.16.41-.44.77-.78,1.06-.09.06-.18.13-.27.2-.65.43-1.45.61-2.23.65-.2.01-.41,0-.61,0-.08-.02-.15-.03-.22-.05-.39-.11-.77-.27-1.14-.47-.1-.08-.2-.15-.3-.23-.58-.48-1.17-.96-1.75-1.43-.14-.11-.28-.24-.32-.41-.03-.16.04-.33.1-.49.47-1.15.5-2.48.07-3.65-.09-.23-.19-.48-.13-.72.04-.14.13-.27.21-.39.34-.49.19-1.16.31-1.75.05-.25.45-.41.35-.64-.09-.22-.28-.37-.41-.57-.29-.43-.3-.99-.18-1.49.06-.26.17-.52.37-.69.38-.32.94-.22,1.42-.09.48.13,1.02.27,1.44,0,.29-.18.45-.53.73-.73.16-.11.34-.18.52-.27.77-.39,1.23-1.2,1.46-2.03.23-.83.26-1.7.42-2.54.04-.21.11-.46.31-.54.2-.09.42.02.61.13.41.24.76.37.93.81.21.51.49.98.7,1.49.27.64.34,1.34.55,2,.21.66.59,1.33,1.22,1.6.25.11.58.22.59.49,0,.11-.06.21-.11.31-.56,1.05-.5,2.32-.38,3.5.05.52.25,1.27-.05,1.7-.15.2-.26.48-.47.61-.66.4-1.61.41-2.33.66-.13.04-.27.09-.35.2-.05.07-.08.16-.1.25-.11.44-.16.89-.15,1.34-.24.23-.24.61-.16.93Z"/>
            <path class="cls-9" d="m111.56,142.32c.14-.48.3-.95.49-1.42.25-.61.66-1.29,1.31-1.3.19,0,.4.05.57-.04.1-.06.17-.15.23-.25.66-1.04,2.78-3.82,2.92-4.32.91-3.37,1.88-6.76,2.89-10.11.32-1.07.65-2.14,1.07-3.17.21-.51,1.37-3.91,1.91-5.03.55-1.12,1.44-2.15,2.64-2.47,2.33-.62,4.41-1.37,6.44-2.66.11-.07.23-.14.35-.12.13.02.22.14.3.24.6.75,1.4,1.41,2.28,1.87.37.19.75.35,1.14.47.07.02.14.04.22.05.5.1,1.14.11,1.59.03.47-.09.86-.38,1.24-.67.09-.07.18-.14.27-.2.38-.27.66-.63.78-1.06.03-.09.05-.18.05-.28.03-.33-.1-.65-.18-.97-.08-.32-.08-.7.16-.94.25.09.49.09.73.06,2.31,2.38,2.97,6.1,3.69,9.25-3.77,0-7.28,1.35-10.98,1.83-.14-1.33-1.44-4.36-1.55-4.61-.08-.19-1.34-3.2-1.86-3.41-2.82.54-.11,6.1.47,7.89-.37.25.05,1,.11,1.38-1.56.73-1.08,3.01-1.16,4.86-.06.33-.09.69-.14,1.03-.19.75-.63,1.32-1.59,1.49,0,0-.02,0-.03,0-.03,0-.07,0-.1.01-.12-.16-.23-.31-.35-.47-.67-.91-.31-2.32-.47-3.44-.95,1.33-1.42,2.94-2.09,4.42-.46,1.01-.93,2.32-1.36,3.34-.87,2.04-1.31,2.89-3.04,5.53-.67,1.02-1.38,1.9-1.99,2.96-.03.05-.06.11-.05.17.02.08.1.12.17.17.17.15.17.42.06.62-.11.2-1.69,2.25-2.63,3.15-.8-1.49-2.27-2.56-3.94-2.85-.19-.03-.4-.06-.54-.21-.2-.21-.14-.54-.06-.81Z"/>
            <path class="cls-10" d="m149.21,131.08c-.06-1.05-.11-2.05-.16-3.01l.56-1.87c.2-.65.88-1.02,1.53-.83.65.2,1.02.88.83,1.53l-3.4,11.32c-.03-.12-.04-.24-.05-.35.38-2.73.67-5.57.69-6.79Z"/>
            <path class="cls-10" d="m182.77,178.76h-24.22c.07-.25.13-.5.2-.75h23.79l.23.75Z"/>
            <path class="cls-10" d="m163.55,210.75c-.21,0-.38-.17-.38-.38s.17-.38.38-.38h28.61l.23.75h-28.83Z"/>
            <path class="cls-10" d="m168.59,226.57c-.21,0-.38-.17-.38-.38s.17-.38.38-.38h28.32l.23.75h-28.55Z"/>
            <path class="cls-10" d="m173.08,242.48c-.21,0-.38-.17-.38-.38s.17-.38.38-.38h28.62l.23.75h-28.84Z"/>
            <path class="cls-18" d="m125.96,182.33c.14-2.64,1.08-5.22.87-7.87-.28-1.31-1.06-2.59-.34-3.92.47-2.92.3-18.39.2-21.05.02-2.82-.26-6.16,1.27-8.42-.46-.78.17-1.56.37-2.29-.21-2.92-.09-5.94-.72-9,3.96-.27.58-6.25,3.25-7.43-.06-.38-.48-1.13-.11-1.38-.58-1.79-3.29-7.35-.47-7.89.52.21,1.77,3.22,1.86,3.41.11.25,1.41,3.28,1.55,4.61,3.7-.48,7.21-1.83,10.98-1.83-.73-3.22-1.41-7-3.82-9.39.58-.14,1.16-.28,1.74-.43,7.08,8,7.08,16.93,6.1,27.17-.68,1.58,1.08,3.16.13,4.57,3.96,3.12,12.43,10.37,14.73,14.85.41,2,.32,3.98-.03,5.94-.09.49-.19.97-.31,1.46-.75,3.1-2.03,6.13-2.86,9.1-1.29,3.81-2.65,10-3.94,14-2.5,1.15-5.17.29-7.74.23-1.09.03.63-6.17.51-7.3.61-4.42,1.34-8.84,2.69-13.11.18-.96.81-1.95,1.02-2.91.11-.49.1-.98-.13-1.46-.06-.12-.12-.24-.21-.35-1.12-1.51.56-2.16-.25-2.33-2.75-2.61-7.22-4.32-10.41-6.31-2.27,2.92-2.34,6.91-3.1,10.43-2.31,12.24-3.1,25.19-3.07,37.61.23.98-7.87,1.57-8.49.86-.86-4.21-1.37-14.9-1.27-19.55Z"/>
            <path class="cls-16" d="m164.65,92.89c-.04-.13-.09-.25-.14-.37-.2-.51-.45-.99-.76-1.44-.13-.19-.28-.4-.27-.63,0-.25.19-.45.34-.64.78-1,1.13-1.89,1.91-2.89.28-.36.6-.62.84-1,.27-.43.32-1.42.48-1.91.66-2.02,2.14-3.2,3.44-4.89.12-.15.23-.47.39-.56.15-.09.35-.22.5-.3.25-.13.32-.16.6-.26.26-.09.41-.26.67-.27.45-.01.6.07,1.05.09.4.02,1.61.03,1.28.7-.24.48-.64.41-1.13.52-.17.04-.35.06-.47.18-.29.27.08.43-.19.71.56.16.72,1.16.81,1.73.06.37.06.75,0,1.12-.09.61-.34,1.18-.58,1.75-.17.4-.42.85-.85.89-.14.01-.29-.02-.43,0-.42.05-.65.51-.92.84-.39.47-.98.73-1.38,1.19-.4.46-.58,1.06-.8,1.63-.76,2.03-1.71,4.33-2.98,6.08-.07-.03-.14-.07-.21-.13-.55-.42-.98-1.52-1.18-2.11Z"/>
            <path class="cls-10" d="m172.61,78.16s-.02.1,0,.15c.02.06.56.24.61.59.34-.4,1.94-3.4,1.94-3.4,0,0,.65.6.73.46.32-.29.48-.4.75-.74.03-.04.07-.09.07-.14,0-.06-2.68-1.71-2.71-1.69-.04.02-.31.66-.37.83-.04.12-.09.25-.2.32-.1.07.64.19.81.49.2.35-1.42,2.27-1.64,3.12Z"/>
            <path class="cls-12" d="m141.06,92.66c.65-.03,1.17.54,1.47,1.11.64,1.22.74,2.64.82,4.01-.59-.23-.72-1.03-1.24-1.39-.15-.1-.31-.16-.47-.25-.54-.3-.89-.89-1.47-1.13-.15-.06-.33-.1-.49-.05-.24.07-.38.31-.48.54-.6,1.34-.61,2.97-1.6,4.05-.49.54-1.29,1.49-1.98,1.7-.7.21-1.3-.29-2.01-.1-.31.08-.65.21-.81.49-.09.15-.11.33-.13.5-.04.37-.07.78.15,1.08.21.28.64.46.61.81-.02.25-.41,1.01-.41,1.19,0,.56-.27,1.15-.77,1.4-.5-.47-.82-.98-1.25-1.51-.43-.53-1.05-1-1.74-.95.34.44.72,1.69.77,2.24.12,1.2.11,1.7.32,2.89.2,1.19.18,2-.32,3.1-.15.34-.4,1.06-.62,1.36-.1.14-.21.29-.26.45-.04.16-.03.32-.02.48.02.32.04.65.06.97.05.82.1,1.65.28,2.45.18.8.49,1.59,1.02,2.22-.63-.08-1.05-.66-1.39-1.19-.55-.85-1.1-1.69-1.66-2.54-.02.5-.04.99-.06,1.49-.01.28-.02.56.08.82.11.28.34.5.55.73.04.04.07.08.08.14.03.12-.11.23-.24.24-.13,0-.24-.07-.35-.14-.47-.32-.97-.66-1.21-1.18-.09-.2-.14-.43-.19-.65-.17-.87-.29-1.75-.35-2.63-.39.32-.84.56-1.32.7.92-1.91,1.26-4.11.95-6.21-.47-.36-.65-.99-.83-1.56-.13-.41-.3-.8-.5-1.18-.08-.16-.17-.32-.23-.49-.12-.36-.11-.75-.16-1.13-.06-.38-.2-.75-.28-1.13-.18-.84-.09-1.71,0-2.56.2-1.8.25-3.64,1.01-5.28.09-.18.18-.37.32-.51.18-.18.42-.28.66-.38.41-.16.88-.3,1.29-.15.54.19.83.78,1.32,1.07.37-.8.95-1.54,1.67-2.06.3-.21.62-.4.89-.64.19-.17.36-.37.57-.52.26-.17.57-.25.88-.32.65-.15,1.31-.31,1.97-.45,1.31-.28,2.69-.48,3.97-.07.63.2,1.29.21,1.88.51.06.03.77-.39,1.21-.41Z"/>
            <path class="cls-2" d="m142.7,103.57s.33,1.87-1.06,1.95c-1.11.06-1.74-1.43-1.74-1.43,0,0,.83-.05,1.6-.17.59-.11,1.21-.35,1.21-.35Z"/>
            <path class="cls-6" d="m128.27,202.26l.7-.1c-.33-2.35-.42-4.77-.5-6.91-.15-3.87-.17-7.72-.18-10.64,0-1.92,0-3.9.02-6.03,0-1.03.02-2.06.03-3.09,0-.15,0-.3,0-.46,0-.33-.01-.68.03-.98.06-.42.11-.87-.15-1.39-.05-.11-.12-.21-.18-.31-.13-.22-.25-.4-.24-.58,0-.12.08-.27.16-.4.04-.07.08-.14.12-.21.14-.23.29-.5.34-.78.05-.26.04-.54.03-.8,0-.12,0-.24,0-.35.01-.76.03-1.52.05-2.28.08-3.86.18-7.69.31-11.41.04-1.36,0-2.74-.05-4.07-.05-1.46-.1-2.96-.03-4.43.02-.35.02-.7.03-1.06.01-.88.03-1.8.21-2.62.13-.59.89-1.46,1.18-1.75l.13-.13-.03-.18c-.03-.15.11-.57.2-.87.15-.47.28-.91.22-1.23-.1-.54-.09-1.1-.07-1.69.01-.56.03-1.14-.06-1.71-.07-.46-.21-.89-.34-1.32-.06-.19-.12-.39-.18-.58-.36-1.31-.65-3.2-.37-4.6l-.69-.14c-.38,1.91.2,4.25.38,4.92.06.2.12.41.18.61.13.42.25.81.32,1.22.08.51.07,1.03.05,1.58-.02.6-.03,1.22.08,1.84.03.15-.11.58-.2.89-.12.37-.22.72-.23,1.01-.3.32-1.09,1.22-1.26,1.99-.19.89-.21,1.84-.22,2.76,0,.35-.01.7-.03,1.04-.07,1.5-.02,3.02.03,4.49.05,1.32.09,2.69.05,4.02-.12,3.72-.22,7.56-.31,11.41-.02.76-.03,1.52-.05,2.28,0,.12,0,.25,0,.38,0,.23.02.47-.02.66-.03.16-.14.36-.25.55-.05.08-.09.16-.13.24-.1.18-.22.41-.23.69-.02.39.17.71.34.99.05.09.11.17.15.26.15.3.15.55.09.97-.06.37-.05.74-.04,1.11,0,.15,0,.29,0,.43-.01,1.03-.02,2.06-.03,3.09-.02,2.13-.02,4.11-.02,6.03,0,2.93.03,6.78.18,10.66.08,2.16.17,4.6.51,6.99Z"/>
            <path class="cls-2" d="m108.46,157.97c3.45,0,6.24.94,6.24,2.09v12.14c0,1.16-2.79,2.09-6.24,2.09s-6.24-.94-6.24-2.09v-12.14c0-1.16,2.8-2.09,6.24-2.09Z"/>
            <path class="cls-4" d="m114.67,171.11v1.31s-1.08,1.66-4.1,1.76c-3.02.1-5.15-.02-6.12-.37-.97-.34-1.67-.61-1.97-.98-.3-.37-.2-2.06-.2-2.06,0,0-.62,1.1,2.75,1.56,3.37.46,5.51.41,7.21.05,1.7-.35,2.44-1.27,2.44-1.27Z"/>
            <path class="cls-5" d="m113.39,161.53c-.46.16-1.02.21-1.53.28-1.19.16-2.4.27-3.62.27-1.09,0-2.2-.03-3.24-.26-.91-.2-1.7-.54-2.38-.99,1.01-.75,3.23-1.27,5.81-1.27,2.71,0,5.02.57,5.95,1.38-.32.2-.61.45-1,.58Z"/>
            <path class="cls-16" d="m148.32,191.15c.05-.6.26-1.17.4-1.75.2-.82.26-1.67.18-2.5,1.48.23,2.99.29,4.48.19.63-.05,1.3-.11,1.85.19-.09-.05-.08.56-.07.61.07.23.23.42.43.55.4.26.69.26.58.81-.06.3-.11.65-.14,1.01-.12.81-.2,1.64-.35,2.12,0,.32-.29.94-.11,1.21-.94.21-5.97.32-6.43.19-.28-.08-.49-.32-.6-.59-.11-.27-.14-.56-.17-.85-.04-.4-.08-.79-.04-1.19Z"/>
            <path class="cls-8" d="m157.18,193.83l-.02-.08c.42.02.84.05,1.26.08h-1.23Z"/>
            <path class="cls-10" d="m159.67,194.18c-.11.37-.22.74-.34,1.11h-23.57c0-.48.02-.97.03-1.46h23.97c-.03.11-.07.23-.1.34Z"/>
            <path class="cls-14" d="m163.37,190.43c.04-.14.08-.28.12-.42.51.33.99.7,1.44,1.15.65.44,1.84,1.92.95,2.49-1.18.26-2.38.35-3.59.35.05-.18.11-.35.16-.53.29-.97.6-1.99.92-3.05Z"/>
            <path class="cls-14" d="m155.67,192.38c.15-.49.22-1.32.35-2.12,0-.06.02-.13.03-.19.15-.94.39-1.8.91-2.02.37.05.74.09,1.1.15,1.09.17,2.16.39,3.18.74-.04.15-.09.3-.13.45-.41,1.36-.82,2.72-1.23,4.09-.04.15-.09.3-.13.45-.44-.03-.89-.06-1.33-.09-.42-.03-.84-.05-1.26-.08-.41-.02-.82-.04-1.22-.05-.2.02-.32-.03-.38-.13-.17-.27.11-.89.11-1.21Z"/>
            <path class="cls-10" d="m162.17,194.39h25.3l.23.75h-25.75c.08-.25.15-.51.23-.75Z"/>
            <path class="cls-10" d="m115.36,241.38h30.12c-.15.49-.29.97-.44,1.46h-29.75v-1.46h.06Z"/>
            <path class="cls-10" d="m122.15,227.33h-1.55v-1.46h29.54c-.15.49-.29.97-.44,1.46h-27.55Z"/>
            <path class="cls-10" d="m127.25,210.38h-1.76v-1.46h29.75c-.15.49-.29.97-.44,1.46h-27.55Z"/>
            <path class="cls-10" d="m158.46,179.11c.13-.49.26-.98.39-1.46h5.78c-.15.49-.29.97-.44,1.46h-5.74Z"/>
            <path class="cls-8" d="m176.27,148.59l29.96,99.68c.07.23.04.46-.07.67-.11.21-.3.36-.52.43-.46.14-.96-.14-1.1-.59l-29.36-97.68c.29-.96.58-1.92.86-2.87.1.1.18.22.22.37Z"/>
            <path class="cls-10" d="m163.2,163.43c.12-.48.22-.97.31-1.46h5.83c-.15.49-.29.97-.44,1.46h-5.71Z"/>
            <path class="cls-8" d="m157.62,195.29h1.72c-.29.95-.57,1.9-.86,2.85l-.86-2.85Z"/>
            <path class="cls-10" d="m143.19,248.98s1.74-5.8,1.74-5.8c.04-.12.07-.24.11-.35.15-.48.29-.97.44-1.46,1.39-4.62,2.8-9.31,4.22-14.04.15-.48.29-.97.44-1.46,1.54-5.12,3.09-10.29,4.66-15.5.15-.48.29-.97.44-1.46,1.08-3.58,2.16-7.18,3.24-10.78.29-.95.57-1.9.86-2.85,1.62-5.38,3.24-10.78,4.86-16.18.15-.49.29-.97.44-1.46,1.43-4.75,2.85-9.49,4.27-14.22.15-.49.29-.97.44-1.46,3.64-12.12,7.25-24.13,10.75-35.78.43-1.5,2.85-.84,2.36.71-2.05,6.83-4.2,13.97-6.41,21.31-.29.95-.57,1.91-.86,2.87-4.57,15.21-9.38,31.2-14.14,47.05-.43,1.43-.86,2.85-1.29,4.28-4.91,16.35-9.75,32.45-14.21,47.27-.44,1.51-2.85.83-2.36-.71Z"/>
            <path class="cls-1" d="m175.03,161.35c-.8,0-1.45.65-1.45,1.45s.65,1.45,1.45,1.45,1.45-.65,1.45-1.45-.65-1.45-1.45-1.45Zm0,.7c.41,0,.75.34.75.75s-.34.75-.75.75-.75-.34-.75-.75.34-.75.75-.75Z"/>
            <path class="cls-1" d="m135.03,102.75c.11.16.07.38-.09.49-.06.04-.13.06-.2.06-.11,0-.22-.05-.29-.15-.06-.08-.27-.35-.6-.38-.19-.01-.34-.18-.32-.38.01-.19.18-.34.38-.32.62.05.99.49,1.12.67Z"/>
            <path class="cls-1" d="m141.07,100.75c-.25.05-.5-.24-.55-.61-.05-.4.12-.71.37-.76.25-.05.5.24.55.61.07.37-.1.7-.37.76Z"/>
            <path class="cls-1" d="m139.3,98.42c.4-.51,1.17-.9,2-.62.18.06.28.26.22.45-.06.18-.26.28-.45.22-.5-.17-.97.07-1.22.39-.07.09-.17.14-.28.14-.08,0-.15-.02-.22-.07-.15-.12-.18-.34-.06-.49Z"/>
            <path class="cls-1" d="m142.57,103.25s-.59.23-1.14.34c-.73.11-1.55.17-1.55.17-.11,0-.22.07-.28.17-.06.1-.07.22-.02.32.03.07.72,1.64,2,1.64.03,0,.05,0,.08,0,.44-.03.8-.2,1.04-.51.53-.67.37-1.73.35-1.85-.02-.1-.08-.19-.17-.25-.09-.05-.2-.06-.3-.02Zm-.19.81c0,.29-.05.65-.23.87-.12.15-.29.23-.53.25-.51.03-.91-.41-1.15-.77.3-.03.69-.07,1.07-.13.3-.06.6-.14.83-.22Z"/>
            <path class="cls-1" d="m138.36,97.25c.43-2.07.8-2.59,1.21-2.74.39-.13.7.13.93.32l.09.07c.15.12.17.34.05.5-.12.15-.34.17-.49.05l-.1-.08c-.08-.07-.21-.18-.24-.19-.05.03-.34.25-.75,2.21-.39,1.87-1.27,2.77-2.04,3.2-.22.5-.56.85-.97,1.02-.17.07-.34.1-.52.1-.21,0-.43-.05-.64-.14-.18-.08-.26-.29-.18-.47.08-.18.29-.26.47-.18.16.07.32.1.47.07-.15,0-.28-.1-.32-.25-.04-.14,0-.3.13-.39,0,0,.55-.41,1-1.06-.88.51-1.76.66-2.47.66-.9,0-1.54-.24-1.59-.26-.16-.06-.25-.22-.22-.38.03-.16.17-.29.33-.29.14,0,3.4-.2,4.42-3.76.05-.19.25-.3.44-.24.19.05.3.25.24.43-.63,2.2-2.04,3.27-3.22,3.79.78-.07,1.72-.37,2.61-1.21,0,0,.01,0,.02-.01.02-.12.03-.24.03-.37,0-.19.15-.35.35-.36.2,0,.35.16.36.35,0,.85-.36,1.6-.77,2.16.55-.41,1.12-1.17,1.41-2.55Z"/>
            <path class="cls-1" d="m132.73,95.46c-1.65,0-3.19,1.1-3.67,2.62-.05.15-.19.25-.34.25-.03,0-.07,0-.11-.02-.19-.06-.29-.26-.23-.44.57-1.81,2.39-3.12,4.34-3.12.01,0,.03,0,.04,0,.19,0,.35.16.35.36,0,.19-.16.35-.35.35-.01,0-.02,0-.04,0Z"/>
            <path class="cls-1" d="m141.64,143.6c-.03-.19.1-.37.3-.4.19-.03.37.1.4.3.33,2.28.34,3.77,0,6.92-.02.18-.17.31-.35.31-.01,0-.02,0-.04,0-.19-.02-.33-.19-.31-.39.33-3.08.33-4.53,0-6.74Z"/>
            <path class="cls-1" d="m133.08,138.03c.18.06.29.26.23.44-.07.22-.14.45-.19.68,1.02.11,1.96.18,2.51.21.67.04,1.23.06,1.72.07,1.94.04,3.09-.07,5.33-.43.42-.07.87-.14,1.38-.22l.44-.07c.35-.06.69-.12,1.02-.18-.11-.27-.23-.53-.35-.79-.08-.18,0-.39.17-.47.18-.08.39,0,.47.17.34.73.68,1.49.8,2.34.04.32.05.63.05.95,0,.24,0,.42.01.57,0,.25.02.47,0,.89,0,.19-.16.34-.35.34-.21,0-.36-.17-.35-.36,0-.13,0-.24,0-.33-3.13.48-5.98.75-8.51.79-.2,0-.35-.15-.36-.35,0-.19.15-.35.35-.36,2.52-.04,5.37-.31,8.5-.8,0-.11,0-.23,0-.39,0-.3-.01-.58-.05-.86-.03-.23-.08-.45-.15-.67-.37.07-.75.14-1.15.2l-.44.07c-.51.08-.96.16-1.38.22-1.91.3-3.1.45-4.72.45-.23,0-.48,0-.73,0-.5-.01-1.07-.03-1.74-.07-.52-.03-1.51-.11-2.62-.22-.11.6-.16,1.22-.16,1.83.3.04.61.08.94.11.19.02.34.19.32.38-.02.18-.17.32-.35.32-.01,0-.02,0-.03,0-.29-.03-.57-.06-.85-.1.02.23.04.47.07.7.03.18-.09.35-.27.39-.03,0-.05,0-.07,0-.15,0-.29-.1-.34-.25l-.08-.29c-.02-.08-.02-.17.02-.24-.14-1.49.03-3.02.5-4.45.06-.18.26-.29.44-.23Z"/>
            <path class="cls-1" d="m145.76,132.69c.53-3.65-.46-7.47-.5-7.63-.04-.16-.2-.27-.36-.26-3.47.24-6.87.98-10.13,2.2-.17.06-.26.24-.22.42,0,.02.42,1.63.63,3.53.1.9.04,1.52-.02,2.12-.04.46-.08.89-.05,1.4.01.17.14.3.31.32l.33.04s.02,0,.04,0c.13,0,.27,0,.4,0,3.16,0,6.37-.6,9.32-1.75.1-.04.18-.12.21-.23l.03-.11s0-.03.01-.05Zm-.68-.2c-2.93,1.12-6.13,1.68-9.27,1.63,0-.33.03-.65.06-1,.06-.6.12-1.29.02-2.26-.16-1.48-.44-2.76-.57-3.33,3.01-1.1,6.15-1.78,9.34-2.03.21.94.83,4.04.43,6.97Z"/>
            <path class="cls-1" d="m146.22,120.5c.36,0,.65.29.65.65s-.29.65-.65.65-.65-.29-.65-.65.29-.65.65-.65Z"/>
            <path class="cls-1" d="m132.9,123.23c.36,0,.65.29.65.65s-.29.65-.65.65-.65-.29-.65-.65.29-.65.65-.65Z"/>
            <path class="cls-1" d="m176.57,72.57s-.09,0-.14-.03c-.18-.08-.26-.28-.18-.46.35-.8.29-1.76-.15-2.51-.1-.17-.04-.38.13-.48.17-.1.38-.04.48.13.55.94.62,2.14.18,3.14-.06.13-.19.21-.32.21Z"/>
            <path class="cls-1" d="m175.9,71.24c-.2,0-.36-.15-.36-.34-.01-.53-.15-1.06-.41-1.53-.09-.17-.03-.38.14-.48.17-.09.38-.03.48.14.31.57.49,1.21.5,1.85,0,.19-.15.36-.34.36Z"/>
            <path class="cls-1" d="m101.87,160.06v12.14c0,1.59,3.4,2.45,6.59,2.45s6.59-.86,6.59-2.45v-12.14c0-1.14-1.76-1.91-3.95-2.25l-.02-.89s0-.11,0-.18c.01-.25.03-.65-.04-1.1.08-.06.16-.12.23-.19,0,0,0-.01.01-.02,0,0,.01,0,.02-.01,1.18-1.34,2.01-3.14,2.27-4.95.02-.16.04-.33.06-.49.06-.49.11-.95.27-1.38.11-.28.73-1.14,1.36-1.95.08.09.2.14.33.14,0,0,.01,0,.02,0,.78-.03,2.88-2.5,3.29-3.53.16-.39.14-.69-.05-.89,0,0,0,0-.01-.01l2.95-4.53c.1-.17.3-.52.54-.93.46-.81,3.05-6.17,4.56-10.06.24,3.11.8,6.77,1.15,8.87.06.37.13.75,0,1.06-.01.03-.03.06-.04.09-.18.35-.24.74-.18,1.12l.03.16c.03.22.07.44.14.63-.33.58-.53,1.24-.55,1.91,0,.1.03.19.1.25-1.12,1.18-1.11,2.47-1.1,3.96,0,.18,0,.37,0,.56l-.11,21.72c0,.33.02.68.04,1.03.03.57.06,1.16,0,1.68-.04.28-.14.55-.24.82-.2.51-.42,1.08-.19,1.81.05.17.13.32.2.47.04.09.08.17.12.26.35.89.29,2.37.07,3.45-.43,2.11-.79,5.7-.79,7.84,0,5.9.89,15.3,1.06,17.05l-14.21,47.28c-.12.41-.08.83.12,1.21.2.37.53.64.94.77.15.04.3.07.46.07.69,0,1.32-.46,1.52-1.13l1.99-6.61h27.18l-1.71,5.7c-.12.41-.08.83.12,1.21.2.37.53.64.94.77.15.04.3.07.46.07.69,0,1.32-.46,1.52-1.13l13.87-46.15,13.63,45.33c.2.66.82,1.13,1.52,1.13.15,0,.31-.02.46-.07.4-.12.74-.39.94-.77.2-.37.24-.8.12-1.21l-1.47-4.88h27.18l1.74,5.79c.2.66.82,1.13,1.52,1.13.15,0,.31-.02.46-.07.4-.12.74-.39.94-.77.2-.37.24-.8.12-1.21l-29.96-99.68c-.08-.25-.21-.46-.39-.64l6.23-20.74c.25-.84-.22-1.72-1.06-1.97-.84-.25-1.72.22-1.97,1.06l-10.68,35.53h-4.98c.1,0,.15-1.38.15-1.52,0-.45-.04-.89-.06-1.34-.06-1.05-.03-2.13-.39-3.13-.28-.76-.7-1.44-1.22-1.96-1.24-1.24-2.4-2.45-3.52-3.63-3.31-3.46-6.2-6.46-9.81-8.91,0-.01.02-.02.02-.04.29-.79.17-1.13.04-1.53-.07-.21-.15-.44-.2-.8-.02-.12-.03-.24-.07-.36-.02-.07-.05-.12-.1-.17l3.37-11.23c.12-.41.08-.83-.12-1.21-.2-.37-.53-.64-.94-.77-.75-.22-1.53.13-1.87.8-.32-3.45-1.04-7.32-1.98-9.5.74-.7,3.45-2.94,12.35-9.71.38-.29.63-.48.72-.55,1.3-1.01,2.66-3.78,3.36-5.51.86-.19,1.3-.8,1.73-1.41.14-.19.2-.36.26-.52.08-.21.17-.45.5-.9.35-.47,1.16-1.58.37-2.82-.02-.03-.05-.05-.07-.07.69-1.38,2.52-5.08,3.2-7.07.75-.32,1.38-1.08,1.92-1.71.06-.07.12-.14.18-.21.07.02.14.03.21.03.01,0,.03,0,.04,0,.13,0,.27-.04.42-.11.18-.08.35-.19.5-.33.22-.19.38-.43.52-.63l.36-.51c.15-.22.32-.46.41-.76.09-.34.03-.69-.15-.94.08-.14.16-.3.18-.48.06-.43-.15-.82-.32-1.09.05-.13.09-.3.06-.48-.03-.16-.12-.29-.18-.38l-.03-.04c-.18-.26-.33-.43-.73-.59.04-.03.07-.06.09-.1l.11-.2s.05,0,.08,0c.42,0,.97-.05,1.32-.28.15-.09.43-.41.4-.7-.02-.22-.15-.39-.41-.52-.2-.1-.35-.12-.48-.12l.92-1.6c.09.09.17.18.25.28.07.09.17.14.29.14.12,0,.22-.06.28-.16.18-.28.66-.79.83-.96.13-.13.14-.34.02-.47-.03-.04-.07-.07-.1-.11,1.41-1.4,1.96-3.63,1.33-5.52-.06-.18-.26-.28-.45-.22-.18.06-.28.26-.22.45.55,1.64.07,3.58-1.16,4.8-.44-.39-.95-.72-1.48-.97.4-1.11.26-1.9.09-2.89-.03-.17-.06-.34-.09-.53-.03-.19-.21-.32-.4-.29-.19.03-.32.21-.29.4.03.19.06.37.09.54.17.95.28,1.59-.05,2.52-.05-.02-.09-.03-.14-.05-.18-.05-.38.05-.43.23,0,0-.29.91-.42,1.34-.05.17.03.35.19.42l.33.14c.07.03.14.06.21.09l-1.3,2.27c-.07-.02-.15-.03-.23,0-.62.22-1.4.5-1.94,1.08-.2.21-.34.45-.46.66-.09.15-.57.68-.93,1.06-.36.39-.7.76-.86.97-1.06,1.43-1.59,3.22-1.87,4.18-.08.26-.16.56-.2.62-.92,1.04-1.71,2.21-2.47,3.37-.13-.1-.28-.15-.45-.14-.84.03-2.02,1.54-3.54,3.78l-.15.23c-.26.38-.15.78.05,1.1-.98,1.34-1.85,2.83-2.57,4.43-.01.03-.02.06-.02.09-.41.21-.76.52-1.01.91-.08.12-.56.67-.69.76-5.72,3.92-9.1,6.16-10.04,6.65-.22.12-.46.22-.7.32-.67.29-1.36.59-1.84,1.21-.03.04-.05.09-.06.14-.03.02-.05.04-.08.07-.14.19-.35.34-.57.42-.21.07-.45.09-.7.1-.2.01-.4.03-.61.07-.07.01-.13.06-.18.11,0-.55.06-.97.14-1.1.22-.12.44-.15.76-.19.33-.04.75-.09,1.31-.27.89-.28,1.38-.68,1.41-1.97,0-.55-.03-1.13-.06-1.64-.03-.52-.06-1.01-.04-1.34.01-.22.15-.46.29-.71.18-.32.39-.68.35-1.09-.04-.49-.47-.7-.85-.89-.45-.22-.91-.44-1.07-1.09-.06-.27-.11-.58-.16-.91-.07-.44-.14-.89-.25-1.35.49.77.49,1.82.49,1.83,0,.17.11.31.28.35.03,0,.05,0,.08,0,.14,0,.26-.08.32-.21.04-.09.96-2.23-.34-5.08-.4-.9-.9-1.45-1.5-1.62-.51-.15-1.07-.04-1.66.35-.16.11-.21.32-.1.49.11.16.32.21.49.1.41-.27.77-.35,1.08-.26.4.12.75.53,1.06,1.24.49,1.08.63,2.05.63,2.81-.25-.54-.66-1.06-1.33-1.33-.03-.01-.06-.01-.1-.02-.1-.12-.21-.24-.34-.37-.14-.13-.36-.13-.5.02-.13.14-.13.36.02.5.53.5.64.92.72,1.21.14.49.21.98.29,1.46.05.34.1.66.17.96.24.98.96,1.33,1.45,1.56.23.11.45.22.46.32.02.19-.12.43-.26.68-.17.3-.36.63-.38,1.03-.01.36.01.85.04,1.41.03.5.06,1.07.06,1.59-.02.93-.27,1.1-.92,1.31-.5.16-.86.21-1.18.24-.16.02-.31.04-.46.07-.96.06-2.07.09-2.67-.07,0,0,.31.58.76,1.05.29.31.64.58.86.73-.02.79.09,1.6.09,1.61.02.14.06.34.09.53.03.18.07.35.08.45,0,.03.02.06.03.09-.43.68-1.2,1.3-1.83,1.49-1.07.33-2.17.05-2.91-.25-.79-.32-1.71-1.21-2.36-1.99.04-.05.07-.1.09-.17.34-1.74.13-3.49-.11-4.66.09-.23.15-.45.19-.64l.06-.32c.14-.75.2-1.01.48-1.27.5.26,1.09.38,1.68.38.19,0,.35-.16.35-.35,0-.19-.16-.35-.37-.35-.98,0-2.15-.42-2.28-1.61-.04-.48.02-.82.18-.98.16-.16.48-.21.98-.17.2.02.36-.12.38-.32.02-.19-.12-.36-.32-.38-.46-.04-1.12-.05-1.55.37-.32.32-.45.83-.38,1.55.07.62.34,1.1.73,1.45-.37.4-.45.83-.58,1.55l-.06.32c-.03.17-.09.39-.18.6-.17-.42-.44-.89-.78-1.26-.19-.2-.48-.42-.81-.67-.5-.38-1.12-.86-1.52-1.35-.31-.37-.45-.87-.52-1.41.47.58,1.1,1.08,1.88,1.34.04.01.07.02.11.02.15,0,.28-.09.33-.24.06-.18-.04-.38-.22-.44-.89-.3-1.58-1-1.97-1.76.5.42,1.16.72,1.88.85.02,0,.04,0,.06,0,.17,0,.32-.12.35-.29.03-.19-.09-.37-.29-.41-.68-.12-1.28-.41-1.69-.82-.14-.14-.36-.14-.5,0-.03.03-.04.06-.06.09-.07-.22-.11-.43-.12-.63-.01-.19-.18-.34-.38-.33-.19.01-.34.18-.33.38.02.3.09.62.2.94-.01.04-.03.08-.03.12,0,1.11.08,2.25.74,3.05.1.12.22.24.34.36,0,.01,0,.03,0,.04.39,1.08.68,2.11.9,3.08-1.11-1.25-2.68-3.52-2.63-6.43,0-.19-.15-.35-.35-.36-.21,0-.35.15-.36.35-.05,3.12,1.55,5.51,2.74,6.85-.83-.53-1.84-1.53-2.59-3.44-.07-.18-.28-.27-.46-.2-.18.07-.27.28-.2.46,1.24,3.14,3.17,4.07,4.12,4.35.27,2.04.1,3.66-.55,4.6.04-.46.09-.93.18-1.41.03-.19-.09-.37-.28-.41-.19-.03-.37.09-.41.28-.62,3.44.09,6.27.75,7.96-.78-.93-1.64-2.4-1.84-4.44-.02-.19-.19-.34-.38-.32-.19.02-.34.19-.32.38.03.34.09.66.15.96,0,0-.01.01-.02.02-.75,1.17-.35,2.45.1,3.32-.45-.31-.92-.84-1.12-1.74-.21-.93-.01-1.58.22-2.32.09-.28.17-.58.25-.9.16-.72.23-1.57,0-2.74-.04-.19-.22-.31-.42-.27-.19.04-.31.22-.27.42.21,1.02.15,1.76.02,2.4-.24.72-.68,1.11-1.08,1.33.3-.5.6-1.21.72-2.13.13-1.13,0-2.46-.11-3.37.67.54,1.23.68,1.29.69.03,0,.05,0,.08,0,.12,0,.23-.06.3-.16.08-.13.07-.29-.02-.41-.02-.02-1.53-1.94-1.53-3.62,0-.19-.16-.35-.35-.35s-.35.16-.35.35c0,1,.44,2.03.86,2.81-.16-.14-.32-.3-.48-.5-.03-.05-.06-.09-.1-.12-.77-.98-1.53-2.67-1.64-5.55-.17-4.67.79-6.4,1.38-7.02.39-.41.74-.48.92-.48.48,0,1.2.55,1.58.85-.24.69-.29,1.38-.04,1.99.06.14.19.22.33.22.04,0,.09,0,.13-.03.18-.07.27-.28.19-.46-.48-1.18.65-3.02,1.98-3.94,2.29-1.59,6.17-2.15,8.85-1.27.18.06.38-.04.44-.22.06-.18-.04-.38-.22-.44-2.91-.96-6.99-.37-9.48,1.36-.76.53-1.45,1.3-1.9,2.13-.63-.48-1.28-.89-1.88-.89-.49,0-.99.26-1.42.7-.81.86-1.74,2.86-1.57,7.53.11,3.06.94,4.89,1.81,5.98.09.49.43,2.55.26,4.13-.02.19-.06.36-.1.53-.66.16-1.28.67-1.7,1.41-.04.07-.09.15-.15.25-.48.78-1.49,2.4-3.11,7.4l-.31.96c-.73,2.24-1.73,5.3-2.1,7.09-.26,1.26-.53,2.55-.96,3.77-.76,1.02-2.33,3.19-2.94,4.54-.02,0-.05-.01-.07-.02-.72-.15-1.31.2-1.6.92-.04.11-.13.29-.23.5-.54,1.13-1.26,2.66-.52,3.21-.14.22-.29.42-.45.64-.32.43-.66.88-.88,1.44-.17.33-2.76,3.27-3.73,4.14-.15.14-.25.32-.29.53-.07.45-.19,1.23-.21,1.5-.03.42.02.9.13,1.26.06.19.12.32.18.43,0,0-.01.02-.01.02-.05.16-.08.33-.08.5l-.02,3.24c-2.26.32-4.12,1.1-4.12,2.27Zm.7,1.14c1.16.85,3.57,1.31,5.89,1.31.69,0,1.39-.04,2.07-.12l.07,2.7c0,.19.16.34.36.34.19,0,.35-.17.34-.36l-.07-2.78c1.3-.21,2.43-.58,3.12-1.09v9.29c0,.73-2.24,1.74-5.89,1.74s-5.89-1.02-5.89-1.74v-9.29Zm5.89-2.88c.71,0,1.36.04,1.96.11l.09,3.26c-.62.07-1.3.12-2.05.12-3.65,0-5.89-1.01-5.89-1.74s2.24-1.74,5.89-1.74Zm21.74-44.71c.72.78,1.14,1.84,1.53,2.87.07.19.15.38.22.57.29.72,1.22,3.62,1.57,4.71l.12.38c.25.76.5,1.55.62,2.34.03.19-.09.37-.28.43l-1.68.49c-.08.02-.17.01-.24-.03-.07-.05-.12-.12-.14-.2-.17-.99-.45-1.94-.73-2.86-.07-.25-.15-.5-.22-.76.08,0,.16-.04.22-.1.12-.12.14-.3.05-.44-.02-.03-1.69-2.75-1.69-6.72.24-.19.46-.41.64-.67Zm2.21-6.14c.15,1.04.23,2.34-.02,3.63,0,.02,0,.03,0,.05-.07,0-.14,0-.2.04-.42.26-.9.53-1.36.78.18-.95.17-2.07.03-3.25.09-.03.17-.11.2-.2.06-.14,0-.31-.11-.4,0,0-.08-.06-.21-.17-.17-1.03-.44-2.09-.76-3.13.09.07.19.15.28.21.31.24.57.44.72.59.64.7.79,1.49.8,1.61,0,0,0-.08.06-.16-.06.11-.08.25-.02.36.06.11.18.18.31.18.02,0,.04,0,.07,0,.08-.02.16-.06.21-.13,0,0,0,0,0,0Zm8.69,3.95c.02-.19-.12-.37-.31-.39-.07,0-.14.01-.19.04,0-.03-.01-.06-.01-.09-.03-.25-.06-.5-.07-.73.01.01.02.03.04.04.61.45,1.01,1.13,1.4,1.85,1.38,2.56,2,4.85,2.28,6.7-.86.14-1.73.27-2.66.4-2.6.37-5.28.75-7.63,1.54-.43-1.33-1.09-3.38-1.34-3.99-.07-.19-.15-.37-.22-.56-.45-1.16-.91-2.37-1.85-3.28,0-.01,0-.02.01-.03,0,0,.02,0,.02,0,.61-.32,1.28-.69,1.87-1.05.45.54,1.55,1.75,2.64,2.19.57.23,1.32.45,2.15.45.4,0,.81-.05,1.23-.18,1.12-.35,2.49-1.66,2.63-2.89Zm1.12-1.38c.11-.04.21-.09.31-.14l1.51,1.69c.25.28.72,1.06,1.4,2.32,1.45,2.68,1.62,5.23,1.84,8.45.01.17-.1.32-.27.36-.27.06-.83.11-1.58.16-.05,0-.1-.01-.14-.05-.04-.03-.06-.08-.06-.14,0-.17-.01-.37-.02-.59-.06-2-.16-5.72-2.63-10.3-.31-.57-.64-1.15-1.1-1.63.24-.02.49-.05.74-.13Zm33.55-34.5c-.51-.51-1.13-.79-1.78-1.07l-.04-.02c.07-.23.15-.49.22-.69.75.28,1.45.73,2.01,1.31-.12.13-.27.3-.41.47Zm-1.07.06l-1.65,2.89c-.02-.06-.04-.12-.08-.2l1.59-2.77s.09.05.14.08Zm-.87,2.93l.11-.2c.12.01.22.01.3.01.1,0,.14,0,.21.02,0,0-.02.02-.02.02-.12.08-.35.12-.6.15Zm-.43,2.36c-.37.71-.92,1.33-1.59,1.78-.06.04-.11.06-.15.07,0,0-.02-.01-.03-.02.03-.09.05-.19.08-.28.09-.35.18-.68.36-.95.09-.14.21-.27.34-.41.12-.14.25-.28.36-.44.09-.13.17-.28.23-.43.2.08.25.15.37.32l.03.04s.07.09.07.12c0,.01,0,.05-.07.19Zm-1.99,2.51c.07.03.15.04.23.04.18,0,.38-.07.57-.2.58-.4,1.08-.9,1.48-1.48.03.09.05.18.04.26-.02.14-.13.29-.22.43-.29.41-.59.84-.94,1.19-.22.21-.4.32-.56.34-.3.04-.42-.06-.47-.37-.01-.09-.06-.16-.12-.21Zm.53,1.67c-.03-.07-.02-.17.03-.22.04-.05.06-.11.07-.17.02,0,.03,0,.05,0,.42-.06.75-.33.96-.53.24-.24.46-.49.65-.76-.06.17-.17.35-.29.51l-.36.51c-.14.19-.26.37-.42.51-.1.09-.21.16-.33.21-.07.03-.13.05-.17.05-.08,0-.16-.05-.19-.11Zm-2.78,2.16c-.19.01-.34.18-.33.38,0,.13.09.23.2.29-.76,2.05-2.49,5.55-3.09,6.74-.41-.85-.85-1.78-1.15-2.42-.13-.28-.73-1.17-1.05-1.66.03-.02.06-.05.08-.08.88-1.36,1.79-2.77,2.87-4,.11-.12.17-.32.33-.86.27-.92.78-2.63,1.76-3.96.13-.18.48-.55.81-.91.55-.6.9-.98,1.02-1.18.1-.17.22-.37.38-.54.24-.27.57-.46.91-.61-.43.42-.79.94-1.03,1.29-.07.1-.15.22-.18.25-.08.09-.19.24-.36.49-.09.14-.23.34-.28.39-.74.67-1.35,1.5-1.78,2.41-.08.18,0,.39.17.47.05.02.1.03.15.03.13,0,.26-.08.32-.2.38-.82.94-1.58,1.62-2.19.09-.08.2-.24.38-.51.09-.14.23-.34.28-.39.06-.06.12-.15.25-.34.22-.32.59-.85,1-1.24.11.46.03.98-.24,1.36-.09.12-.19.24-.31.37-.14.15-.28.31-.41.5-.23.36-.34.76-.45,1.15-.02.09-.05.18-.07.27-.2.68-.5,1.32-.9,1.9-.11.16-.07.38.09.49.06.04.13.06.2.06.11,0,.22-.05.29-.15.13-.2.26-.4.37-.61.08.14.19.25.32.32-.14.26-.16.57-.03.83.01.02.03.04.04.06-.05.06-.1.12-.15.18-.59.7-1.32,1.56-2.04,1.62Zm-5.24,12.57c-.33-.63-2.19-4.16-3.43-5.43-.02-.03-.04-.07-.07-.09-.09-.08-.42-.42-.3-.6l.16-.23c2.16-3.19,2.81-3.49,2.99-3.47,0,.01.02.02.03.02-.02.03-.04.07-.07.11-.06,0-.13.02-.18.05-.16.11-.2.33-.09.49.41.6,1.1,1.63,1.21,1.87.46.96,1.25,2.62,1.72,3.61.06.13.19.2.32.2.03,0,.07-.01.1-.02-.08.37-.3.71-.53,1.02-.38.52-.5.82-.59,1.06-.05.14-.09.24-.18.36-.38.54-.65.89-1.07,1.06Zm-4.59,6.26c-8.56,6.52-11.39,8.83-12.33,9.7-.24-.73-.54-1.45-.94-2.19-.73-1.34-1.2-2.12-1.49-2.45l-1.49-1.68s.04-.05.06-.07c.03-.04.05-.09.06-.14.02-.02.05-.03.07-.06.36-.48.94-.73,1.56-.99.25-.11.5-.22.75-.34,1.45-.76,7.97-5.23,10.11-6.69.24-.16.77-.79.88-.96.19-.29.45-.52.75-.67.19.24.41.43.63.61.33.27.35.53.35.54.01.19.17.34.36.34.19,0,.34-.16.34-.35,0-.06-.02-.59-.61-1.08-.23-.19-.45-.38-.61-.6-.02-.02-.04-.04-.06-.06.66-1.43,1.44-2.77,2.32-3.99,1,1.06,2.57,3.9,3.22,5.15-.81,2.06-2.14,4.6-3.23,5.44-.08.07-.34.26-.71.54Zm-11.83,32.81c.39-.07.72-.11.9-.11,0,.03,0,.06.01.09.06.44.15.72.23.94.1.3.16.46.04.87-.07.01-.14.03-.24.04-.21.04-.41.07-.62.11-.05-.65-.15-1.3-.31-1.94Zm4.14-12.08l-2.52,8.38c.02-.21.04-.41.06-.62.12-1.25.23-2.49.33-3.71.07-.86.07-1.93.01-3.12l.43-1.44c.11-.38.46-.63.84-.63.08,0,.17.01.25.04.23.07.41.22.52.43.11.21.14.44.07.67Zm5.36,59.08l.56,1.88c-.24-.03-.48-.07-.72-.1h-.3c-.14,0-.27.08-.32.21-.04.11-.08.21-.12.32-.09-.02-.19-.04-.27-.13l-.18-.6c0-.05,0-.11-.01-.17.53-.11.92-.27,1.08-.5,0,0,.01-.02.02-.03,0-.01.02-.02.02-.04,0,0,0-.01,0-.02,0,0,.01-.02.01-.03.05-.15.13-.43.24-.81Zm-5.01-24.26h-1.54l-1.22-4.05c.23.17.46.33.69.5.7.51,1.42,1.04,2.18,1.5-.42.59-.54,1.42-.11,2.05Zm-12.76,1.21c.06.53.51.95,1.07.95h.23l-3.23,10.76c.4-2.87,1.18-7.62,1.94-11.71Zm4.21-8.74l-2.26,7.53h-.88c-.41,0-.77.23-.95.57.11-.58.22-1.15.33-1.69l1.96-6.51c.14-.21.28-.42.45-.61.4.19.87.44,1.36.71Zm1.74,1l1.96,6.53h-5.23l2.16-7.18c.39.22.77.44,1.11.65Zm.89.53c.19.11.36.21.49.28l.87.49c.29.17.58.35.87.53l1.41,4.69h-1.84l-1.8-6Zm6.4,7.45h-12.18c-.21,0-.38-.17-.38-.38s.17-.38.38-.38h12.35c0,.07,0,.28-.17.75Zm-.27.7c-.2.52-.39,1.11-.59,1.75l-.53-1.75h1.11Zm-.94,3.02c-.28,1.06-.55,2.22-.81,3.43l-1.94-6.45h1.84l.91,3.02Zm-1.1,4.89c-.37,1.86-.7,3.79-.99,5.61h-11.98l4.06-13.52h6.53l2.38,7.9Zm-1.1,6.32c-.04.25-.08.5-.12.75h-11.99c0-.24.01-.48.02-.73v-.03h12.09Zm-.22,1.46c-.57,3.83-.92,6.81-.95,7.1-.02.17.08.32.24.38.13.04.28.08.44.12,0,.96-.12,2.15-.31,2.93-.09.36-.39,2.36.03,3.47-.21,0-.43,0-.65.01-.02,0-.04,0-.06.01h-11.38c.08-1.43.16-2.85.24-4.26.19-3.19.38-6.47.48-9.77h11.9Zm-19.64,23.14c.14,0,.29,0,.43,0,.14,0,.27,0,.38,0,.02,0,.04,0,.06,0,1.11,0,2.39-.18,3.44-.38.16.58.57,1.37.96,1.65-.47,1.42-.72,2.97-.73,4.63-2.02-.03-4.04-.04-5.99,0-.01-.03-.03-.06-.05-.09-.53-.6-.48-1.76-.26-2.65.23-.94.52-2.24.56-3.21.37.04.77.05,1.19.05Zm16.03,38.43h-27.18l4.01-13.34h27.18l-4.01,13.34Zm-23.89-14.04c-.21,0-.38-.17-.38-.38s.17-.38.38-.38h28.34l-.23.75h-28.11Zm1.37-1.46l4.45-14.8h27.18l-4.45,14.8h-27.18Zm3.51-15.5c-.2,0-.37-.17-.37-.37,0-.22.17-.38.37-.38h28.55l-.23.75h-28.33Zm9.17-6.61h.03c2.15.22,4.33.87,6.27,1.9.6.32,1.37.77,1.95,1.41.46.51.76,1.17.83,1.8-2.85.08-5.92.03-8.89-.01-.37,0-.74-.01-1.12-.02.01-1.85.33-3.56.93-5.09Zm-1.18-1.34c.82-.17,1.4-.32,1.45-.34.15-.04.26-.18.26-.34.03-1.93.1-3.85.19-5.76h21.25l.75,2.5-3.13,10.43h-9.8c-.06-.81-.42-1.65-1.01-2.31-.65-.73-1.49-1.22-2.14-1.57-2.02-1.07-4.29-1.76-6.57-1.98h-.3c-.14,0-.27.08-.32.21-.03.07-.05.14-.08.21-.18-.24-.43-.71-.53-1.06Zm26.57-12.8l-1.26,4.2c-.85,0-1.7-.02-2.55-.02-.36,0-.72,0-1.09-.01,0-.02,0-.05,0-.08,0-1.9.28-3.45.89-4.99h.03c1.33.13,2.68.45,3.97.91Zm-2.3,7.65l-.38-1.28h.77l-.38,1.28Zm-22.34-1.98c.01-.25.03-.5.04-.75h23.12l-.23.75h-22.93Zm13.14-7.75c1.09.18,2.58.3,3.94.3.61,0,1.19-.03,1.71-.08.06,1.05.46,1.35.92,1.46-.45,1.38-.67,2.81-.67,4.49,0,.02,0,.05,0,.07-2.06-.02-4.13-.03-6.12,0-.35-.37-.38-2.21-.12-3.29.2-.8.32-1.96.33-2.96Zm8.07-2.57c.13-.45.27-.96.42-1.52.3-1.06.64-2.3,1.02-3.64h4.93l-2.75,9.14c-.86-.3-1.75-.54-2.64-.71l-.98-3.27Zm1.64-5.86c.07-.25.14-.5.21-.75h4.95l-.23.75h-4.94Zm.41-1.46c1.4-4.93,3.03-10.55,4.07-13.52h4.96l-4.06,13.52h-4.97Zm9.47-14.97l-.23.75h-4.93c.09-.27.16-.52.22-.75h4.93Zm11.18,4.94l-4.68-15.57.92-3.06,29.94,99.62c.07.23.04.46-.07.67-.11.21-.3.36-.52.43-.46.14-.96-.14-1.1-.59,0,0-24.5-81.5-24.5-81.5Zm-11.46,59.3c-.21,0-.38-.17-.38-.38s.17-.38.38-.38h28.32l.23.75h-28.55Zm28.76.7l4.13,13.75h-27.18l-4.13-13.75h27.18Zm-27.83-2.16l-4.1-13.66h27.18l4.1,13.66h-27.18Zm-5.97-14.36c-.21,0-.38-.17-.38-.38s.17-.38.38-.38h28.61l.23.75h-28.83Zm1.21-1.46l-3.35-11.15.69-2.29h25.8l4.04,13.45h-27.18Zm-2.45-14.15l.23-.75h24.93l.23.75h-25.38Zm.5-1.67l.86-2.86c.46.28.95.62,1.35,1.07.47.53.77,1.15.83,1.75-.99.03-2.01.04-3.04.04Zm1.07-3.56l3.14-10.46h15.95l4.28,14.23h-20.68s0-.03,0-.04c0-.84-.37-1.7-1.03-2.43-.5-.56-1.11-.97-1.66-1.3Zm3.35-11.16l.23-.75h15.08l.23.75h-15.53Zm.44-1.46l2.88-9.58h8.9l2.88,9.58h-14.65Zm4.47-14.86l2.86-9.52,4.24,14.1h-8.47l1.38-4.58Zm.93,80.04c-.21,0-.38-.17-.38-.38s.17-.38.38-.38h28.62l.23.75h-28.84Zm-.81.33c.2.23.49.37.81.37h1.14l1.53,5.08c.07.23.04.46-.07.67-.11.21-.3.36-.52.43-.46.14-.96-.14-1.1-.59l-1.79-5.96Zm-9.54-31.75c.2.24.49.4.83.4h1.13l4.1,13.66h-.2c-.6,0-1.08.48-1.08,1.08s.48,1.08,1.08,1.08h.84l4.13,13.75h-.49c-.55,0-1,.41-1.07.94l-9.29-30.9Zm-2.6-8.64l.92-3.06,2.99,9.93h-.48c-.56,0-1.01.43-1.07.97l-2.36-7.84Zm-16.6,46.66l36.91-122.79c.11-.38.46-.63.84-.63.08,0,.17.01.25.04.46.14.73.63.59,1.1,0,0-7.45,24.8-7.45,24.8,0,0-4.71,15.67-4.71,15.67l-24.74,82.32c-.14.45-.64.73-1.1.59-.23-.07-.41-.22-.52-.43-.11-.21-.14-.44-.07-.67Zm1.25-6.6h-28.18c-.2,0-.37-.17-.37-.37,0-.22.17-.38.37-.38h28.41l-.23.75Zm-29.42-1.1l11.74-39.05c.06.03.13.05.2.07,0,.89-.31,2.23-.54,3.18-.11.46-.39,1.9.17,2.92-.22,0-.45,0-.67.02-.07,0-.13.03-.19.07-.53.07-.94.51-.94,1.06,0,.6.48,1.09,1.07,1.09h.2l-4.45,14.8h-.63c-.6,0-1.08.48-1.08,1.08s.48,1.07,1.06,1.08l-4.01,13.34h-.7c-.59,0-1.07.48-1.07,1.07s.48,1.09,1.07,1.09h.05l-1.93,6.4c-.14.45-.64.73-1.1.59-.23-.07-.41-.22-.52-.43-.11-.21-.14-.44-.07-.67l2.25-7.5v-.21h.06Zm15.21-100.04c-.83-.17-1.64-.42-2.41-.76.03-.5.19-1,.44-1.43.69.19,1.67.35,2.69.49-.06.6-.1,1.2-.1,1.8-.21-.03-.42-.06-.62-.1Zm-2.64-11.34c.06,0,.12,0,.18,0,.43,0,.79-.12,1.09-.36.93-.75.96-2.47.99-4.13.02-1.13.04-2.41.42-2.76.25.84.49,1.65.63,2.51.05.28.21.53.46.68.16.1.34.15.53.15.09,0,.19-.01.28-.04l1.68-.49c.52-.15.85-.67.78-1.2-.12-.85-.39-1.67-.65-2.45l-.12-.37s-.02-.07-.03-.1c2.3-.76,4.95-1.14,7.51-1.51.93-.13,1.8-.26,2.66-.4.12,1.04.15,1.92.17,2.59,0,.22.01.43.02.6.01.24.12.47.3.63.17.15.37.23.6.23.02,0,.04,0,.06,0,.56-.04,1.3-.09,1.68-.17.51-.11.86-.58.83-1.09-.05-.72-.1-1.41-.16-2.08.76,3.55,1.19,8.06.98,10.56-.1,1.21-.21,2.45-.33,3.7-.11,1.2-.22,2.41-.32,3.58-.23.02-.51.06-.85.12-.11-.34-.23-.68-.37-1.01-.08-.18-.28-.26-.46-.18-.18.08-.26.28-.18.46.63,1.46.92,3.08.84,4.67,0,.19.14.36.33.37,0,0,.01,0,.02,0,.19,0,.34-.15.35-.33.01-.22.02-.43.01-.65.19-.03.38-.07.58-.09,3.75,2.44,6.71,5.52,10.12,9.09,1.12,1.18,2.29,2.39,3.53,3.64.45.45.82,1.04,1.06,1.7.28.78.29,1.61.32,2.43.04.82.14,1.64.06,2.46-.08.86-.31,1.69-.6,2.5-1.47,4.13-4.3,14.23-5.82,19.66-.49,1.76-.85,3.05-.99,3.51-.53.47-5.31.48-7.48-.08.27-2.27,2.09-16.96,4.33-22.56.37-.92.46-1.45.32-1.77-.09-.21-.29-.38-.46-.53-.08-.07-.17-.14-.21-.19-.33-.41-.18-1.04.16-1.42.42.05.87.1,1.34.1.63,0,1.27-.09,1.86-.38.17-.09.25-.3.16-.47-.08-.17-.29-.25-.47-.16-.87.43-1.96.32-2.87.2-.85-.48-1.66-1.08-2.45-1.65-.81-.6-1.66-1.21-2.56-1.72l-.87-.49c-.23-.13-.56-.33-.96-.56-.99-.59-2.29-1.36-3.31-1.87.21-.16.44-.29.69-.39.18-.07.27-.27.21-.45-.07-.18-.27-.27-.45-.21-.52.19-.95.5-1.31.88-.69.7-1.15,1.62-1.49,2.43-1.12,2.65-3.94,20.1-3.97,21.88-.06,4.11-.3,8.21-.54,12.18-.23,3.89-.47,7.91-.54,11.94-.8.2-3.27.76-5.15.76-.03,0-.07,0-.11,0-.1,0-.22,0-.34,0-.65,0-1.82.02-2.32-.24-.14-1.38-1.07-11.09-1.07-17.11,0-2.1.36-5.63.78-7.7.22-1.09.32-2.76-.11-3.85-.04-.1-.09-.2-.14-.3-.06-.13-.12-.26-.16-.39-.15-.49,0-.87.18-1.34.12-.3.24-.62.29-.99.07-.58.04-1.2,0-1.8-.02-.35-.04-.67-.03-.98l.11-21.72c0-.19,0-.38,0-.56,0-1.42-.02-2.53.95-3.52.02-.02.02-.04.03-.05.75.3,1.52.54,2.31.7.26.05.51.09.77.13,0,.31.02.62.05.93.01.18.17.33.35.33,0,0,.02,0,.03,0,.19-.01.34-.18.32-.38-.13-1.66-.05-3.13.24-4.77.03-.19-.09-.37-.28-.41-.19-.04-.37.09-.41.28-.05.27-.09.54-.13.8-1.08-.15-2.09-.32-2.73-.51,0,0-.02,0-.03-.01-.03-.11-.05-.25-.07-.38l-.03-.16c-.04-.23,0-.46.11-.68.03-.05.05-.1.07-.15.2-.49.11-1.01.04-1.44-.23-1.39-.55-3.46-.81-5.61Zm-6.79,7.6l-2.79,4.27c-.42-.39-.73-.57-1.2-.86-.17-.1-.37-.22-.61-.37-.69-.43-1.39-.76-2.08-.99.57-1.19,1.92-3.09,2.62-4.04.08-.03.15-.09.19-.18.02.02.04.03.06.04.59.29,1.15.64,1.66,1.06.07.05.14.08.22.08.1,0,.2-.04.27-.13.12-.15.1-.37-.05-.49-.55-.45-1.16-.83-1.8-1.14-.05-.02-.1-.03-.15-.03.38-1.16.63-2.35.87-3.51.36-1.75,1.35-4.79,2.08-7.01l.31-.96c1.59-4.91,2.6-6.55,3.03-7.24.07-.11.12-.2.17-.27.22-.38.49-.68.79-.87-.34.75-.76,1.14-.77,1.14-.11.1-.15.25-.09.39.05.14.18.22.33.22.37,0,.96-.14,1.51-.51-.11.52-.15,1.1,0,1.79.53,2.39,2.6,2.69,2.69,2.7.02,0,.03,0,.05,0,.13,0,.25-.07.31-.18.07-.13.05-.29-.04-.4-.01-.02-1.18-1.4-.97-2.73.61,1.78,1.65,2.95,2.34,3.57.1.38.21.76.32,1.13-.02,0-.04,0-.06.02-.82.44-.84,1.82-.86,3.42-.02,1.43-.05,3.05-.72,3.59-.22.18-.53.24-.92.18-.16-1.43-.29-2.85-.34-4.09.27-.81.45-1.47.48-1.9.02-.19-.13-.36-.32-.38-.19-.01-.36.13-.38.32-.03.39-.2,1.02-.46,1.78,0,0,0,.02,0,.02-1.22,3.61-4.44,10.38-5.09,11.53-.23.41-.43.75-.53.92l-.06.11Zm-4.94,8.05c-.06-.09-.11-.18-.17-.26,0,0-.01-.01-.01-.02-.98-1.39-2.22-2.14-4.05-2.44-.06,0-.12,0-.18.02.09-.35.3-.9.72-1.78.11-.23.2-.42.25-.54.16-.41.42-.56.8-.49.86.18,1.74.54,2.61,1.09.24.15.44.27.62.38.6.36.88.53,1.54,1.22-.02.49-1.29,2.04-2.12,2.82Zm-3.31,4.73c-.23,1.65-.98,3.28-2.04,4.51-.06-.15-.15-.31-.25-.45.08-.09.11-.21.07-.33-.04-.14-.16-.23-.29-.24.05-.15.1-.3.16-.46.12-.33.25-.68.29-1.01,0-.01,0-.02,0-.03.15-.12.29-.26.41-.41.12-.15.09-.38-.07-.49-.15-.12-.38-.09-.49.07-.22.28-.52.5-.86.62h-.03c-.12.05-.29.11-.42.25-.09.1-.14.21-.17.29l-.46,1.13c-.07.18.01.39.19.46.04.02.09.03.13.03.11,0,.22-.06.29-.16.06.03.12.06.17.09-.19.14-.36.28-.48.41-.35.34-.54.67-.56,1-.02-.05-.03-.11-.05-.19-.01-.07-.02-.12-.06-.18-.02-.04-.02-.14-.02-.21v-3.34c0-.19-.16-.35-.35-.35s-.35.16-.35.35v3.25c-.12-.1-.21-.19-.23-.26-.08-.26-.09-.57-.09-.87,0-.36.01-.73.03-1.09.01-.37.03-.75.03-1.12,0-.19-.16-.35-.35-.35-.19,0-.35.16-.35.35,0,.36-.01.73-.03,1.09-.01.26-.02.53-.02.81-.02-.04-.03-.09-.05-.14-.09-.28-.12-.67-.1-1,.01-.18.09-.71.21-1.45,0-.05.03-.09.06-.11.91-.81,3.72-3.94,3.91-4.4.19-.48.49-.87.79-1.28.32-.43.64-.87.86-1.42,1.27.29,2.2.86,2.94,1.82-.48.6-1.79,2.26-2.01,2.81-.2.51-.26,1.04-.32,1.55-.02.16-.04.32-.06.47Zm-2.62,4.97c-.33.21-.7.38-1.08.49,0-.03,0-.05,0-.08-.04-.19.16-.44.34-.61.16-.15.31-.27.45-.37.13.18.22.37.29.56Zm.12,1.59l.02.77c-.64-.07-1.29-.11-1.94-.11-.59,0-1.19.03-1.77.09v-2.98c.03.07.04.13.06.2.15.47.76.84,1.08.98.2.49.57.64.92.65.06.05.14.08.22.08.03,0,.05,0,.08,0,.47-.11.92-.29,1.34-.52.01.24,0,.46,0,.62,0,.1,0,.17,0,.23Zm3.97,3.11c0,.52-1.15,1.19-3.14,1.52l-.08-3.06c2.04.33,3.22,1.01,3.22,1.54Zm-11.78,12.14v-.57c1.16.85,3.57,1.31,5.89,1.31s4.73-.45,5.89-1.31v.57c0,.73-2.24,1.74-5.89,1.74s-5.89-1.01-5.89-1.74Z"/>
          </g>
          <g>
            <path class="cls-2" d="m29.69,238.67c.06-.1.16-.19.27-.17.07.01.13.07.17.13.03.03.05.07.08.1-.02.09.38,1.31.72,1.86.34.55,1.02,2.09,1.15,2.18.08.16,1.66,3.07,2.33,4.06.19.28.39.57.63.81.02.03.04.06.06.09.28.34.71.52,1.12.66.21.07.42.13.63.18.3.1.6.2.91.26,1.07.22,2.17.06,3.24-.14.32-.06.64-.13.93-.28.2-.06.4-.13.59-.21.61-.24.33.65.08.92-.32.34-.81.48-1.27.58-.48.11-.97.19-1.47.22-.48.03-.96,0-1.45-.01-.85-.04-1.72-.08-2.52-.38-1.29-.49-2.23-1.62-2.92-2.82-.69-1.19-1.18-2.5-1.92-3.66-.22-.36-.47-.7-.68-1.07-.2-.34-.36-.7-.52-1.06-.16-.36-.32-.72-.39-1.11-.07-.39-.03-.81.19-1.14Z"/>
            <path class="cls-15" d="m37.78,248.83c-.31-.06-.61-.16-.91-.26-.09-.03-.18-.06-.27-.09-.46-.16-.93-.33-1.32-.63-.08-.07-.16-.14-.23-.21-.24-.24-.44-.53-.63-.81-.67-.98-1.15-2.12-1.82-3.11-.04-.06-.14-.25-.28-.5-.07-.13-.15-.28-.23-.44-.41-.79-.94-1.83-1.15-2.18-.34-.55-.74-1.77-.72-1.86.02-.12.05-.24.08-.36.36-1.24,1.23-2.27,2.07-3.26.05-.06.1-.12.18-.12.08,0,.15.05.21.1.52.46,1,.99,1.63,1.29.59.28,1.27.32,1.92.35.56.03,1.13.04,1.69.09.6.05.51.42.51.96,0,1.17-.23,2.34-.08,3.51.26,2.02,1.62,3.75,3.24,4.98.43.32.92.71.91,1.24,0,.36-.25.67-.56.85-.03.02-.69.26-1.01.32-1.07.2-2.17.36-3.24.14Z"/>
            <path class="cls-2" d="m57.52,247.36c.17-.13.4-.09.64.02.08.12.18.22.3.3.18.13.43.11.62.24,1.37.96,4.97.83,5.28.94,1.63.6,3.36.41,5.05.83.62.15,4.15.1,4.84-.05.48-.1.83-.18,1.16-.27.29-.03.58-.06.87-.12.23-.05.45-.12.67-.2.15-.06.41-.24.58-.22.4.05.25.72.08.94-.25.33-.66.49-1.06.61-1.93.58-3.99.63-6.01.47-2.01-.16-4-.52-6.01-.76-.43-.05-.87-.1-1.31-.11-.64-.02-1.28.03-1.91-.03-.71-.07-1.41-.28-2.09-.48-.46-.14-.93-.28-1.31-.58-.2-.16-.38-.37-.44-.61-.06-.25-.14-.79.06-.94Z"/>
            <path class="cls-15" d="m69.4,249.69c-1.69-.42-3.42-.22-5.05-.83-.31-.11-3.9.02-5.28-.94-.18-.13-.43-.12-.62-.24-.12-.08-.22-.19-.3-.3-.24-.36-.3-.86-.34-1.3-.11-1.27.8-4.65.97-4.63,1.25.17,2.83.52,4.09.49.96-.02,1.86-.46,2.81-.43.85.03,1.37,1.08,2.05,1.55,1.01.69,2.05,1.32,3.09,1.97,1.14.71,2.52,1.06,3.8,1.49.56.19,1.14.34,1.65.63.51.29.97.75,1.08,1.33.02.1.03.21-.02.3-.07.12-.22.17-.36.2-.69.17-1.11.29-1.59.41-.33.09-.67.17-1.16.27-.69.14-4.22.2-4.84.05Z"/>
            <path class="cls-18" d="m70.7,196.63c-.74,8-1.67,15.56-2.41,23.57-.62,6.68-.87,13.91-1.49,20.6-2.2,1.72-8.69.27-8.67,0,.22-2.5.14-5.82.19-8.33.07-3.48-.31-7.13.06-10.87.13-1.3.62-11.34.7-12.72.02-.34-.08-3.9-.17-6.81-.12-3.98-.44-8.01-1.72-11.78-2.49,4.83-3.21,6.1-6.65,17.77-.2.66-.98,2.4-1.3,3.01-1.93,3.66-5.9,12.55-6.26,14-1.15,4.68-2.98,7.06-3.84,11.8-2.03.45-5.08-.24-6.87-1.61.55-7.62,2.74-11.75,4.44-19.21,1.14-5,2.51-6.53,2.98-7.79.3-.79.29-4.49.4-5.33,1.14-8.64,2.9-18.07,5.17-25.86,2.04.81,3.73,1.24,5.88,1.64,2.32.44,6.32,1.37,8.68,1.39,2.5.02,3.85.15,6.35.03,1.21-.06,2.41-.17,3.61-.28,1.29-.12,1.6-1.02,1.72.26.48,5.11-.34,11.44-.82,16.53Z"/>
            <path class="cls-16" d="m65.9,140.38c.11.37-.1,1.01-.41,1.24-2.1,1.49-4.41-.98-5.21-1.59-1.27-.97-1.88-1.36-3.39-3.09.19-.13.36-.33.53-.55.64-.87,1.09-2.22,1.23-2.61.32-.89.33-2.31,1.06-2.92.41.28,1,.13,1.35-.21.36-.34.54-.83.7-1.29-.42-.35-.83-.72-1.09-1.2-.26-.47-.36-1.07-.13-1.56.22-.48.73-.78,1.25-.85.52-.07,1.05.08,1.52.32.41.21.81.5,1.27.5.36,0,.7-.17,1.01-.35,1.38-.75,2.78-1.51,3.86-2.65.23-.24.6-.43.83-.66.14-.14.27-.29.45-.37.09.39.19.78.32,1.16.26-.15.55-.26.69-.53.2.63.24,1.32.12,1.97-.1.54-.31,1.08-.22,1.62.05.31.2.59.37.86.3.49.67.94,1.08,1.34.1.09.2.19.22.32.03.22-.17.39-.35.53-.56.43-1.05,1.01-1.24,1.69-.14.48-.12.99-.17,1.49-.08.85-.35,1.95-1.12,2.35-.41.21-.94.06-1.41.08-.58.03-2.1-.28-2.16-.24-.07.04-.36.72-.4.79-.35.62-.32,1.29-.45,1.82-.21.84-.43,1.53-.12,2.6Z"/>
            <path class="cls-17" d="m30.13,156.13c.44-.74,1.02-1.4,1.69-1.95.37-.3.77-.57,1.12-.89.71-.64,1.2-1.47,1.8-2.2.24-.29.64-.86,1.01-.98,0,0,.98-.31,2.47-.79.54-.17,1.14-.37,1.8-.57,5.28-1.68,13.59-4.34,13.59-4.34l4.4,10.13-7.85,1.86-11.24,2.66-.1-.29c-1.25.36-2.67.75-3.44.81-.41.03-.82.05-1.2.17-.33.1-.63.28-.96.37-.53.15-1.1.11-1.62.29-.46.16-.9.5-1.38.42-.55-.09-.86-.68-1.01-1.22-.09-.32-.15-.64-.22-.97-.04-.2-.08-.42-.03-.62.03-.11.09-.21.15-.31.07-.1.14-.19.22-.28.32-.4.54-.87.8-1.31Z"/>
            <path class="cls-11" d="m28.89,164.35c-.15-.49-.28-.98-.4-1.47-.02-.1-.05-.21-.04-.32.16-.13.33-.25.5-.36.51-.34,1.21-1.03,1.84-1.06.26-.01.46.1.58.33.11.2.31.85.22,1.07-.01.03-.05.05-.07.07-.2.14-.34.33-.49.52l-2.06,1.37s-.06-.09-.08-.15Z"/>
            <path class="cls-11" d="m22.19,167.28c.39-.49,1.01-.74,1.54-1.08.03.07.07.14.1.21.13.24.52,1.16,1.2.32.14-.17.3-.16.47-.07-.68.45-1.36.91-2.03,1.39-.24.17-.47.34-.7.52-.13-.38-.33-.73-.58-1.05-.03-.04-.06-.08-.06-.13,0-.04.03-.08.05-.11Z"/>
            <path class="cls-11" d="m27.87,167.37c.07-.05.14-.11.22-.13.1-.03.2-.01.3,0,.48.02.96-.25,1.18-.67.03-.06.06-.12.11-.16.05-.04.11-.06.17-.07.29-.08.58-.15.88-.23.03,0,.07-.02.09-.04.07-.07,0-.19-.08-.25-.38-.34-.75-.67-1.13-1.01-.11-.1-.23-.2-.38-.23-.08-.01-.17,0-.23-.05,0,0-.01-.02-.02-.02l2.06-1.37.63-.42,18.2-3.97,11.99-2.62-12.17,7.45-2.67.5-24.2,4.51,2.79-1.86c.43.29.94.96,1.44.93.29-.02.58-.12.82-.28Z"/>
            <path class="cls-11" d="m29.65,158.75c-.19-.22-.45-.46-.73-.68.23-.8,1.01-1.3,1.56-1.93.56-.64,3.36-3.92,4.14-4.98.22-.3.59-1.19,1.09-.79.35.28.43,1.27.57,1.7.36,1.05.82,2.07,1.25,3.1.47,1.13.89,2.28,1.26,3.45.04.13.08.29-.02.39-.04.05-.11.07-.17.09-1.34.44-6.68,1.58-7.97,1.82-.12.02-.25.04-.37.03-.04,0-.06,0-.08,0,.21-.75-.02-1.6-.54-2.18Z"/>
            <path class="cls-16" d="m25.03,166.72c-.68.84-1.08-.08-1.2-.32-.03-.06-.07-.13-.1-.21-.15-.34-.28-.77-.26-1.1.05-.74.09-1.19-.02-1.93-.03-.17.04-.74.04-.91,0-.25.09-.44.14-.69.13-.69.93-1.45,1.06-2.13.03-.16.06-.32.14-.47.05-.1.13-.2.21-.29.39-.47.79-.94,1.18-1.41.03-.03.05-.06.09-.07.05-.02.11.01.16.03.31.13.67.07,1.01.11.47.06,1,.37,1.46.73.28.22.54.46.73.68.52.58.75,1.42.54,2.18,0,.02,0,.03-.01.05-.02.06-.04.12-.08.17-.05.06-.12.09-.19.12-.42.2-.81.45-1.16.76-.11.1-.22.21-.27.35-.02.06-.02.11-.02.17,0,.11.02.21.04.32.12.49.25.99.4,1.47.02.05.04.11.08.15,0,0,.01.02.02.02.06.05.15.04.23.05.15.03.27.13.38.23.38.34.75.67,1.13,1.01.08.07.15.18.08.25-.02.02-.06.03-.09.04-.29.08-.58.15-.88.23-.06.02-.12.03-.17.07-.05.04-.08.1-.11.16-.22.42-.7.7-1.18.67-.1,0-.21-.02-.3,0-.08.03-.15.08-.22.13-.24.17-.52.27-.82.28-.5.03-1.01-.64-1.44-.93-.04-.02-.07-.05-.11-.06-.18-.09-.34-.1-.47.07Z"/>
            <path class="cls-10" d="m73.78,122.73c.49.48.81,1.13.89,1.81.31-1.02.62-2.15.2-3.13-.29-.69-.92-1.21-1.62-1.49-.14-.05-.28-.11-.38-.22-.09-.11-.11-.26-.14-.41-.19-.8-1.02-1.4-1.84-1.34-.38.03-.76.19-1.14.17-.43-.02-.82-.25-1.21-.45-2.46-1.29-5.39-1.89-8.04-1.05-.47.15-1.63.49-2.03.76-.43.3-.73.74-1.07,1.14-1.13,1.3-1.65,2.73-2.77,4.04.32.2.75.22,1.09.05.34.67.03,1.53.34,2.21.13.29.37.53.44.84.07.3.22,1.4.37,1.61.53.74,1.08,1.47,1.43,2.31.35.84.47,1.81.11,2.65.72-.13,1.36-.47,1.43-1.19.42.13.79,0,1.12-.28.34-.27.61-.98.84-1.35-.56-.43-1.02-1.02-1.18-1.71-.16-.69.03-1.48.57-1.93s1.44-.48,1.92.04c.18.19.3.43.5.59.49.39,1.24.13,1.7-.3.19-.18.36-.39.6-.51.18-.09.38-.11.58-.15,1.73-.3,3.31-1.39,4.19-2.9.16.25.26.53.3.82.29-.25.58-.49.86-.74.01-.01.16.73.16.8,0,.31-.05.61-.11.91-.1.53-.4,1.28-.25,1.83.33,1.23,1.84-1.08,1.99-1.49.23-.61.3-1.29.17-1.94Z"/>
            <path class="cls-2" d="m70.84,131.45s-.25,2.16-1.69,1.73c-1.43-.43-1.4-2.01-1.4-2.01,0,0,.88.19,1.72.29.67.09,1.37-.01,1.37-.01Z"/>
            <path class="cls-7" d="m72.68,145.55h18.26c.22,0,.4.16.4.36v13.68l-1.69.03c.13,0,.57-.07.81-.64.09-.23.38-1.75.35-2-.03-.24-.21-.49-.46-.5-.14,0-.27.05-.39.13-.75.49-.63,1.82-.72,1.82-.35,0-.9.6-1.52.77-.77.21-1.63,0-2.06-.13-.39-.11-.89.04-1.35.29l-8.41-.47-3.62-.2v-12.8c0-.2.18-.36.4-.36Z"/>
            <path class="cls-16" d="m85.66,159.09c.44.13,1.3.34,2.06.13.62-.17,1.17-.77,1.52-.77.09,0-.03-1.33.72-1.82.12-.08.25-.14.39-.13.25.01.43.26.46.5.03.24-.26,1.77-.35,2-.24.57-.68.63-.81.64l1.69-.03h.11c.45-1.3-.07-2.74.05-4.1.03-.3.41-.4.59-.15.11.16.2.33.27.51.06-.19.13-.39.27-.54.14-.15.36-.23.54-.15.1.05.17.13.23.23.2.34.2.76.11,1.14-.08.38-.24.74-.35,1.12-.17.6-.19,1.84-.49,2.39-.21.4-2.76,2.1-3.95,2.35-.46.1-.93.11-1.4.12-.52.01-1.04.02-1.55-.09-.65-.14-2.31.06-2.39-.08-.04-.06.02-.77.02-.84,0-.35-.01-.71-.02-1.06,0-.12-.03-.23-.11-.32.26-.24.64-.52,1.03-.73.46-.25.96-.4,1.35-.29Z"/>
            <rect class="cls-7" x="77.83" y="145.64" width="7.96" height="3.42"/>
            <path class="cls-14" d="m30.76,149.4c.34-.46,2.05-3.14,3.09-3.6,0-.15,7.97-5.45,8.9-5.88,2.41-1.11,3.54-2.71,6.09-3.44,1.56-.45,4.34-.38,5.96-.34.87.02,1.75.04,2.62.06-.16.22-.34.41-.53.55,1.51,1.73,2.12,2.12,3.39,3.09.8.61,3.11,3.08,5.21,1.59.32-.22.52-.87.41-1.24-.31-1.08-.09-1.76.12-2.6.09.04.18.1.27.16,2.12,1.56,5.58.95,7.3,2.94.72.83,1.1,1.8,1.13,2.89.02.55-.09,1.17-.21,1.78h-1.83c-.22,0-.4.16-.4.36v12.8l3.62.2c2.47.24,4.95.37,7.52.91.03.9,0,1.8-.1,2.7-3.38,1.56-6.97,1.32-10.95,1.34-.03,3.05-.67,4.28-.7,7,0,.57-.21,1.58-.09,2.14.12.56.16,1.52.32,2.07.35,1.17.69,3.22-.43,4.04-.62.45-1.83.67-2.58.8-.96.17-2.1.02-3.07.11-7.05.63-12.9-.69-19.8-2.79-.32-.1-1.13-.2-1.27-.5-.1-.23,0-1.55.05-1.88.25-1.58.63-2.56.88-3.46.69-2.52.66-5.36,1.36-7.33l2.67-.5,12.17-7.45-.4-1.92-11.29,2.44c0-.08,0-.16,0-.23l7.85-1.86-4.4-10.13s-8.31,2.65-13.59,4.34c-.61.16-1.2.36-1.8.57-1.49.48-2.46.79-2.47.79-.37.12-.78.69-1.01.98-.6.73-1.1,1.55-1.8,2.2-.35.32-.75.59-1.12.89-.67.55-1.24,1.21-1.69,1.95-.26.44-.48.91-.8,1.31-.07.09-.15.18-.22.28-.51.04-1.05-.1-1.84-.38-.18-.06-1.65-.04-1.58-.17,1.38-2.57,3.07-4.81,5.06-7.57Z"/>
            <polygon class="cls-17" points="61.85 155.92 31.66 162.51 31 160.57 50.16 156.43 61.45 154 61.85 155.92"/>
            <path class="cls-1" d="m62.76,128.44s-.08.02-.12.02c-.15,0-.28-.09-.33-.24-.04-.11-.18-.46-.53-.59-.18-.07-.28-.27-.21-.45.07-.18.27-.28.45-.21.62.23.87.79.95,1.02.06.18-.03.38-.22.45Z"/>
            <path class="cls-1" d="m69.52,126.92c.01-.41.26-.74.53-.71.27.02.48.37.47.78-.01.41-.26.74-.53.71s-.48-.37-.47-.78Z"/>
            <path class="cls-1" d="m70.79,131.1s-.65.09-1.27.01c-.81-.1-1.68-.29-1.69-.29-.1-.02-.21,0-.29.07-.08.07-.13.16-.13.27-.01.64.31,1.95,1.65,2.36.16.05.31.07.46.07.26,0,.5-.07.72-.21.78-.51.94-1.74.96-1.88.01-.11-.03-.22-.1-.29-.08-.08-.19-.11-.3-.1Zm-.39.74c-.1.34-.27.76-.56.94-.17.11-.35.13-.59.05-.74-.22-1-.82-1.09-1.23.34.06.81.15,1.27.2.35.05.7.05.97.03Z"/>
            <path class="cls-1" d="m65.69,122.58c.14-.14.36-.14.5,0,.14.14.14.36,0,.5-1.39,1.43-3.17,1.93-4.53,1.93-.17,0-.33,0-.48-.02-1.52-.17-2.07-.5-2.13-.54-.13-.09-.19-.25-.14-.4.05-.15.17-.25.34-.25.02,0,2.09.02,3.06-1.08.13-.15.35-.16.5-.03.15.13.16.35.03.5-.49.56-1.18.88-1.82,1.06.08.01.16.02.24.03,1.23.11,3.05-.27,4.44-1.7Z"/>
            <path class="cls-1" d="m21.75,167.41l.46,1.29c.04.1.12.18.22.21.04.01.08.02.11.02.05,0,.09-.01.13-.03.04.02.09.03.14.03.02,0,.04,0,.06,0l23.58-4.4c-.21,1.03-.37,2.1-.52,3.14-.29,2-.6,4.06-1.28,5.9-.53,1.44-.45,2.47-.36,2.95.06.29.25.53.52.65.02,0,.04.01.06.02-1.41,5.83-4.05,16.94-4.28,18.53-.19,1.33-1.15,8.14-1.07,11.83,0,.09,0,.24-.01.41-.05.03-.1.08-.13.14-.14.29-.51.87-.72,1.19-.76,1.15-1.14,2.44-1.52,3.9-.63,2.41-1.33,4.68-2.01,6.88-1.46,4.75-2.85,9.24-3.41,14.55-.01.1.02.2.09.27,0,0,.02.02.05.05-1.03,1.02-1.34,1.73-1.75,2.83-.12-.03-.26.01-.35.12-.1.12-.18.21-.25.29-.45.5-.53.7-.26,1.67.17.62.77,1.86,1.2,2.76.2.42.37.78.43.92.2.52,2.58,4.63,3.56,5.45,1.09.91,2.6,1.43,4.12,1.43.18,0,.36,0,.54-.02,3.24-.27,3.54-.47,3.9-.91l.02-.03c.22-.27.34-.69.3-1.07-.02-.22-.1-.42-.22-.57.02-.4-.17-.83-.55-1.18-.22-.2-.47-.36-.71-.51-.12-.07-.23-.14-.34-.22-1.25-.87-1.85-2.37-2.34-3.58-.09-.23-.19-.48-.25-.71-.09-.34-.11-.72-.13-1.07-.01-.2-.02-.39-.04-.58-.07-1.01-.13-1.82.26-2.74.06,0,.12,0,.18,0,.01,0,.02,0,.04-.01.03,0,.06-.01.08-.02.02,0,.03-.02.05-.03.02-.01.04-.03.06-.04.01-.01.02-.03.04-.04.01-.02.03-.04.04-.06,0-.02.01-.04.02-.05,0-.01,0-.02.01-.03,1.13-6.74,8.8-23.52,9.36-24.39.6-.94,1.01-1.98,1.41-2.98l.1-.26c.68-1.7,1.35-3.92,2.06-6.28.92-3.05,1.86-6.2,2.88-8.33.53-1.1,1.1-2.28,1.82-3.36.95,4.81,1.34,9.22,1.3,14.61-.01,1.3.25,2.39.32,2.65-.05.83-.62,10.5-.78,13.82-.2,4.05-.19,7.8-.18,11.78,0,2.22.01,4.52-.02,6.85,0,.11.05.21.14.28.1.08.27.16.48.23-.05.18-.12.39-.19.63-.31,1.02-.7,2.29-.69,2.96,0,.21,0,.43,0,.66,0,.42,0,.76,0,1.04-.1.07-.19.16-.26.29-.23.4-.25,1.11-.1,1.37.49.84,2.31,1.5,3.8,1.76.76.13,1.36.11,1.95.09.56-.02,1.1-.04,1.77.07,2.89.47,5.26.78,7.41.78h.07c1.8,0,3.66-.01,5.36-.73.02,0,.03-.02.05-.02l.21-.13s.06-.04.08-.07c.15-.18.26-.39.31-.61.02-.1.03-.19.03-.28-.01-.42-.3-.75-.49-.97,0,0-.02-.01-.02-.02-.31-1.28-1.45-1.69-2.47-2.06-.17-.06-.34-.12-.5-.19-.41-.16-.83-.28-1.24-.4-.29-.09-.6-.17-.89-.27-1.17-.41-2.23-1.05-3.26-1.68-.76-.46-1.55-.94-2.18-1.54-.25-.24-.43-.44-.56-.59.24-.1.42-.22.54-.35.04-.05.07-.12.08-.18.33-2.72,1.91-27.22,1.98-28.26,1.24-8.48,1.92-17.38,2.52-25.23.2-2.65.22-7.86.22-8.41.25-.18.42-.45.48-.75.18-.92.13-2-.17-3.42-.31-1.48-.37-3.01-.17-4.83.18-1.7.32-3.78.42-5.95.63.03,1.24.04,1.81.04,3.37,0,5.97-.46,9.23-1.25.14-.03.24-.14.26-.27.54.04,1.04,0,1.52-.02.6-.04,1.18-.08,1.83.02.29.04.6.09.91.09.07,0,.15,0,.22,0,.91-.07,1.71-.59,2.36-1.01l1.5-.98c.1-.06.22-.14.32-.26.59-.31.82-1.39,1.1-2.97.08-.46.16-.9.25-1.24.05-.21.12-.46.07-.73-.07-.38-.35-.66-.69-.69-.27-.02-.5.16-.68.38-.16-.25-.36-.43-.63-.53-.06-.02-.12-.02-.18-.01v-8.87c0-.39-.34-.71-.75-.71h-15.9c-.02-.19-.03-.57-.04-.92,0-.28-.02-.6-.03-.93-.06-1.37-.78-2.63-1.92-3.38-1.02-.66-2.07-.93-3.18-1.22-1.07-.27-2.17-.56-3.4-1.21.19-.76.45-1.74.66-1.94.33-.07.64-.02,1.06.05.36.06.8.13,1.38.15,1.24.02,1.85-.5,2.16-1.8.14-.59.25-1.27.34-1.87.07-.49.15-.96.21-1.16.07-.23.2-.31.43-.45.09-.06.19-.12.29-.2.46-.35.71-.74.71-1.11-.02-.48-.38-.77-.73-1.06-.38-.31-.77-.64-.87-1.23,1.3-.59,1.9-1.42,1.95-2.68,0-.22,0-.44-.01-.65.24.72.13,1.49.13,1.5-.02.16.07.31.22.38.15.06.32.01.42-.12.03-.04.8-1.11.54-2.78-.21-1.31-.59-2.71-2.43-2.99-.03-.57-.18-1.01-.46-1.29-.89-.83-2.7-.48-2.9-.44-.19.04-.31.23-.27.42.04.19.23.31.42.27.45-.09,1.75-.23,2.28.26.35.34.38,1.57-.25,3.17-.15.37-.3.66-.44.88.09-.53.15-1.25.1-2.12-.01-.19-.18-.34-.37-.33-.19.01-.34.18-.33.37.01.25.02.48.01.71,0,.02-.02.03-.02.05-.28.96-1.01,1.86-2.24,2.76-.54.4-1.18.7-1.76.91.84-.77,1.82-1.9,2.22-3.18.06-.19-.05-.38-.23-.44-.19-.06-.38.05-.44.23-.65,2.11-3.26,3.87-3.29,3.89-.14.09-.19.27-.13.42.03.07.08.13.14.17-.38.14-.82.15-1.29-.17-.16-.11-.38-.07-.49.09-.11.16-.07.38.09.49.38.25.78.38,1.19.38.69,0,1.4-.35,2-1.03,0-.01.01-.02.02-.04.61-.2,1.36-.49,2.03-.92,0,.08.03.15.08.22.07.08.17.12.26.12.08,0,.17-.03.23-.09.33-.3.9-.47,1.43-.19.17.09.38.03.48-.15.09-.17.03-.38-.15-.48-.42-.22-.91-.27-1.37-.15.39-.33.73-.67,1.01-1.02-.03.12-.06.22-.08.3-.05.18-.09.31.01.46.06.09.16.14.26.15,0,0,.01,0,.02,0,.18,0,.53-.18.91-.64.06.58-.02,1.16-.1,1.72-.06.41-.12.84-.12,1.26.01,1.13.68,1.68,1.17,2.08.25.21.46.38.47.54,0,.07-.11.28-.43.52-.08.06-.16.11-.24.16-.27.17-.57.36-.72.83-.08.25-.15.7-.24,1.27-.09.59-.19,1.26-.33,1.82-.22.96-.56,1.26-1.41,1.26-.02,0-.03,0-.05,0-.53-.01-.93-.08-1.28-.14-.33-.06-.63-.1-.94-.09-.96-.22-2-.5-2.53-.81,0,0,.15.7.48,1.33.23.44.54.85.72,1.08-.11.39-.23.87-.37,1.43v.04c-.06.19-.33,1.25-.07,2.49,0,.02.01.03.02.05,0,.01,0,.02,0,.03.08.16.05.34-.08.54-.27.41-.91.74-1.36.71-1.84-.14-4.93-2.51-6.65-4.63.44-.54,1.77-3.51,1.9-4.94.19-.2.37-.46.51-.78.04,0,.07.01.11.01.34,0,.71-.12,1.05-.34.45-.3.79-.73.95-1.22.24.11.48.21.73.28.03,0,.06.01.1.01.15,0,.29-.1.34-.26.05-.19-.06-.38-.24-.43-1.04-.29-2.17-1.09-1.95-2.4.1-.53.27-.87.49-.99.22-.12.58-.09,1.1.11.18.07.38-.02.46-.2.07-.18-.02-.39-.2-.46-.46-.18-1.14-.38-1.7-.07-.42.24-.7.72-.84,1.48-.18,1.09.32,1.96,1.09,2.54-.09.4-.34.78-.71,1.02-.19.12-.38.19-.56.21.03-.13.05-.27.06-.42.02-.19-.13-.36-.32-.38-.2-.01-.36.13-.38.32-.06.83-.4,1.32-.66,1.56.05-.45.07-1.17-.22-2.1-.17-.6-.48-1.09-.79-1.56-.35-.53-.68-1.05-.82-1.75.2.11.37.19.49.23.05.02.13.04.21.04.08,0,.16-.02.24-.08.15-.12.17-.34.05-.49-.04-.05-1.06-1.39-.09-3.26.09-.17.02-.38-.15-.47-.17-.09-.39-.02-.47.15-.63,1.22-.56,2.26-.34,2.98-.31-.26-.61-.62-.72-1.09-.21-.93-.04-1.47.04-1.7.03-.11.06-.2.04-.31-.02-.09-.07-.16-.15-.21-.18-.12-.34-.03-.41,0-.25.13-.48.21-.71.22.35-.3.8-.75,1.17-1.33.14-.21.28-.46.43-.73.61-1.11,1.37-2.49,3.28-3.16,2.41-.84,5.47-.59,8.38.68.18.08.39,0,.46-.18.08-.18,0-.39-.18-.46-3.08-1.34-6.32-1.59-8.9-.7-2.17.76-3.04,2.33-3.67,3.48-.14.26-.27.5-.4.69-.42.66-.99,1.14-1.3,1.4-.25.21-.37.3-.36.5,0,.11.05.21.13.28.02.02.04.03.06.04.3.15.75.28,1.31.14-.05.36-.07.87.08,1.51.11.5.38.91.69,1.23.05,1.25.56,2.04,1.01,2.74.29.45.56.87.7,1.37.34,1.12.2,1.87.14,2.15-.01.06-.02.11-.02.13-.02.17.05.32.19.42.08.06.18.09.29.09.03,0,.06,0,.09-.01-.26,1.15-.99,2.84-1.42,3.63-2.17-.33-5.52-.37-7.83-.08-.36.04-.71.15-1.02.33-2.13,1.16-12.93,7.09-15.89,10.15-1.08,1.12-5.97,8.55-6.35,9.28-.08.16-.16.27-.25.4-.14.2-.28.41-.39.75-.03.08-.01.17.02.25-.89,1.25-2.39,3.76-2.4,4.89,0,.02-.03,2.44-.01,2.86,0,.21.05.45.11.7l-1.37,1.22c-.11.1-.15.25-.1.38Zm50.33-41.24c.02-.22.05-.46.09-.7.11-.8.24-1.7-.05-2.66.08-.17.17-.35.25-.55.28-.7.45-1.36.51-1.95,1.19.21,1.54.99,1.77,2.39.04.23.05.44.04.64-.03-.07-.05-.15-.09-.22-.25-.56-.71-1.1-1.01-1.22-.02,0-.04-.01-.07-.02,0,0-.01,0-.02,0-.1,0-.2.02-.28.09-.17.15-.13.34-.06.65.08.36.21.95.18,1.61-.04.9-.41,1.47-1.26,1.93Zm-48.63,40.38c.11.28.22.5.31.58.05.05.1.1.15.15l-1.2.77-.23-.65.96-.85Zm6.27.39c.04-.05.09-.11.12-.16,0,0,0-.01,0-.02.05,0,.1,0,.14,0,.27,0,.54-.03.8-.11.03,0,.05-.02.08-.03.18-.1.29-.26.33-.44.07-.37-.18-.72-.23-.79-.02-.03-.05-.06-.09-.08l-1.09-.7c-.07-.05-.14-.09-.21-.14l2.22-1.43,28.09-6.13-10.33,6.33-19.83,3.7Zm23.68-22.09l4.27,9.81-18.52,4-2.98-8.65,5.08-1.52,1.71,4.78c.05.14.19.23.33.23.03,0,.07,0,.1-.02l7.42-2.31c.09-.03.17-.1.21-.19.04-.09.05-.19,0-.28l-1.87-4.59,4.24-1.27Zm-4.91,1.47l1.75,4.3-6.73,2.09-1.58-4.43,6.56-1.96Zm-10.04,12.49s-7.53,1.63-7.54,1.63c-.05.01-.09.03-.13.06l-.25.18c-.09-.41-.23-.99-.41-1.46-.23-.61-.63-1.17-.75-1.34l6.21-7.41,2.87,8.33Zm-7.64,2.54l.42,1.22-2.1,1.35c-.1-.23-.17-.5-.24-.81-.02-.09-.04-.2-.05-.32l1.96-1.44Zm30.36-6.72l.26,1.23-29.54,6.45-.43-1.26,29.72-6.42Zm-35.39,13.05l-1.66.31,1.1-.71c.18.15.36.28.56.4Zm-1.96-5.41c.01-.9,1.45-3.39,2.41-4.68.27.02.64.05.97.11.19.03,1.04.38,1.63.64.12.17.45.65.64,1.14.21.55.38,1.3.45,1.66l-.59.43c-.05-.06-.1-.12-.15-.18-.05-.05-.09-.11-.14-.16-.16-.21-.4-.52-.45-.59-.08-.11-.21-.16-.35-.13-.19.04-.31.23-.27.42.06.28.09.71.12,1.12.03.44.07.89.14,1.21.1.47.24,1.12.68,1.56.16.16.34.27.51.39l1.03.66s.05.1.07.14c-.92.22-1.89-.2-2.72-.64-.12-.06-.22-.12-.28-.19-.09-.09-.15-.25-.2-.4-.27-.8-.37-1.67-.27-2.52.02-.19-.12-.37-.31-.39-.19-.02-.37.12-.39.31-.11.96,0,1.94.3,2.83.07.21.17.45.34.64.15.17.34.27.48.34.46.24.99.49,1.55.64-.2.12-.45.2-.73.18-.43-.02-.87-.21-1.29-.39-.52-.22-.7-.35-.92-.76-.22-.42-.32-.62-.29-1.01.03-.38.02-.85.01-1.3,0-.44-.02-.89,0-1.24.01-.19-.13-.36-.33-.38-.19-.01-.36.13-.38.33-.03.38-.02.85-.01,1.3,0,.44.02.89,0,1.24-.04.61.15.97.37,1.39.34.64.72.84,1.26,1.08.19.08.4.17.61.24-.09.05-.19.07-.32.07-.75-.02-1.78-.94-2.13-1.55-.07-.21-.11-1.62-.12-2.37-.01-.62-.02-.98-.04-1.14-.02-.19-.2-.33-.39-.31-.19.02-.33.2-.31.39.02.13.03.59.04,1.07.04,1.79.08,2.47.22,2.71.08.14.19.3.33.46-.05.05-.12.11-.17.14-.04-.03-.09-.08-.13-.12-.11-.14-.45-.98-.47-1.57-.01-.36,0-2.45.01-2.82Zm61.61-13.55h-7.25v-2.8h7.25v2.8Zm5.55-2.78v10.45c-.21-.17-.5-.29-.72-.29-.19,0-.48.09-.74.48-.18.26-.46,1.22-.58,1.66-.3.19-.89.53-1.28.65-.05,0-.14-.01-.25-.03-.83-.1-2.63-.32-3.78.55-.06-.06-.13-.1-.22-.11l-10.72-.92s-.02,0-.03,0c.03-2.06.03-4-.01-5.54l-.06-2.33c-.03-1.12,0-2.88.3-4.59h4.59v3.15c0,.19.16.35.35.35h7.96c.19,0,.35-.16.35-.35v-3.15h4.8s.04.01.05.02Zm1.87,11.55c-.01.07-.03.16-.04.24,0-.3.02-.59.02-.89,0-.22-.02-.41-.04-.6,0-.02.02-.04.03-.06.05-.18.21-.44.31-.53.02.02.04.05.04.1.02.12-.02.28-.06.43-.09.36-.18.81-.26,1.29Zm-9.18,4.54c-.09-.56-.11-1.03-.06-1.68.05-.02.1-.05.14-.1.84-1.03,2.83-.79,3.58-.7.28.03.39.05.49.02.63-.18,1.58-.79,1.62-.82.07-.05.12-.12.15-.2.18-.65.43-1.45.53-1.58.09-.14.16-.17.17-.17.06,0,.22.09.28.15.04.32-.32,1.71-.47,2.01-.56.56-1.62,1.2-1.63,1.21-.17.1-.22.32-.12.48.07.11.18.17.3.17.06,0,.13-.02.18-.05.03-.02.47-.29.95-.64h1.56c.19,0,.35-.16.35-.35v-4.27c.36.2.44.83.44,1.34,0,.97-.04,1.95-.12,2.91,0,.11-.02.26-.07.34-.04.05-.12.1-.2.15l-1.5.98c-.61.39-1.29.84-2.03.9-.32.02-.65-.03-.98-.08-.73-.11-1.37-.07-1.98-.03-.53.03-1.03.06-1.58,0Zm7.3-2.6h-.36c.09-.09.23-.47.36-.93v.93Zm-18.47,4.1c.06-1.48.11-2.99.14-4.45l10.32.89s-.03.08-.04.13c-.07.93-.05,1.5.11,2.32-3.6.86-6.42,1.29-10.52,1.11Zm-14.72,84.14c.98.75,2.53,1.36,3.85,1.49.33.03.65.04.97.05.2,0,.4,0,.6.02.88.05,1.77.22,2.62.38.47.09.95.18,1.43.25,1.27.19,2.55.25,3.8.25.87,0,1.73-.03,2.56-.07,1.32-.06,2.71-.18,3.83-.82.02.05.04.1.04.15,0,.03,0,.06-.01.1-.02.1-.07.19-.13.27l-.14.09c-1.57.66-3.35.66-5.07.67h-.07c-2.11,0-4.45-.31-7.3-.78-.74-.12-1.33-.1-1.91-.08-.58.02-1.12.04-1.8-.08-1.53-.26-3.01-.9-3.31-1.42-.02-.08,0-.3.04-.47Zm1.28-5.94c1.01.22,2.49.35,3.91.35,1.06,0,2.09-.08,2.88-.25.14.18.39.49.81.88.69.65,1.51,1.15,2.3,1.64,1.06.65,2.16,1.31,3.4,1.74.31.11.62.2.92.29.41.12.8.23,1.18.38.17.07.35.13.52.19.96.35,1.88.68,2.05,1.69-.97.53-2.18.63-3.44.69-2,.09-4.14.14-6.22-.18-.47-.07-.95-.16-1.41-.25-.88-.17-1.79-.34-2.72-.39-.21-.01-.41-.02-.62-.02-.32,0-.62-.02-.92-.04-1.17-.11-2.57-.66-3.45-1.31,0-.02-.01-.04-.02-.09-.05-.28-.04-.87-.03-1.25,0-.23,0-.46,0-.68,0-.56.4-1.87.66-2.74.08-.25.14-.47.2-.66Zm-29.23-2.84c1.85,4.12,4.82,9.04,5.45,9.47,1.08.74,1.94.79,3.12.85l.39.02c.22.01.51.02.83.02.58,0,1.23-.03,1.63-.11.55-.11,1.03-.35,1.37-.67.02.19-.04.41-.14.53l-.03.03c-.18.22-.33.4-3.42.66-1.52.13-3.07-.34-4.15-1.25-.88-.74-3.2-4.75-3.36-5.16-.07-.17-.24-.52-.45-.97-.4-.83-1-2.08-1.16-2.64-.13-.48-.17-.62-.09-.78Zm2.52-3.45c.5.46,1.27,1.07,1.98,1.27,1.2.33,2.59.52,3.89.53-.33.96-.27,1.84-.2,2.77.01.18.03.37.04.56.02.39.04.8.15,1.21.07.28.18.55.28.8.52,1.29,1.18,2.9,2.59,3.89.12.08.25.16.37.24.22.14.44.27.61.43.15.13.29.32.32.51-.03.02-.06.05-.08.09-.21.34-.64.59-1.19.7-.52.1-1.68.11-2.28.07l-.39-.02c-1.15-.06-1.84-.1-2.76-.73-.41-.32-3.23-4.79-5.17-9.09l.13-.34c.47-1.28.69-1.9,1.71-2.9Zm13.18-57.99c.76.28,1.53.49,2.29.7l2.75.77c.85.24,1.71.48,2.57.68,2.95.68,5.93.9,8.76.9,1.97,0,3.86-.11,5.62-.24,1.26-.09,2.56-.23,3.67-.71,0,1.37-.04,5.67-.21,7.98-.6,7.84-1.28,16.73-2.52,25.21-.02.28-1.61,24.88-1.97,28.13-.94.75-6.8.56-8.03-.02.03-2.27.02-4.51.02-6.67-.01-3.96-.02-7.71.17-11.74.17-3.45.78-13.77.78-13.87,0-.04,0-.08-.01-.12,0-.01-.32-1.16-.31-2.52.04-5.64-.38-10.21-1.42-15.28,0-.03-.02-.06-.04-.08.39-.5.83-.96,1.32-1.36.15-.12.18-.34.05-.49-.12-.15-.34-.17-.49-.05-1.87,1.5-2.94,3.74-3.89,5.71-1.04,2.18-2,5.36-2.92,8.43-.7,2.34-1.37,4.55-2.04,6.22l-.1.26c-.39.97-.79,1.98-1.35,2.86-.56.87-8.11,17.39-9.41,24.37-1.4.06-2.99-.12-4.32-.49-.73-.2-1.67-1.06-2.09-1.5.57-5.17,1.93-9.58,3.36-14.25.68-2.21,1.38-4.49,2.02-6.91.36-1.39.72-2.63,1.43-3.69.06-.09.13-.2.21-.32,0,.15,0,.3,0,.45,0,.19.16.35.35.35s.35-.16.35-.35c0-.52.03-1.06.05-1.5.02-.34.03-.61.03-.77-.08-3.72.95-10.91,1.07-11.72.21-1.45,2.63-11.67,4.25-18.38Zm1.66-13.06l2.54-.47s.08-.02.12-.05c0,0,12.17-7.45,12.18-7.46.02-.01.04-.03.06-.05.01-.01.03-.03.04-.04.01-.02.02-.04.03-.06,0-.02.02-.04.02-.06,0-.02,0-.04,0-.06,0-.02,0-.05,0-.08l-.4-1.92c-.02-.09-.07-.17-.15-.22-.08-.05-.17-.07-.27-.05l-3.02.65s0-.07-.02-.11l-4.4-10.13c-.07-.16-.25-.25-.42-.2l-2.01.6c-.04-1.82-.29-5.08-.96-6.11-.11-.16-.32-.21-.49-.1-.16.11-.21.32-.1.49.48.74.83,3.65.85,5.93l-13.36,4c-.39-1.02-2-1.71-2.2-1.79-.18-.07-.39.01-.46.19-.07.18.01.39.19.46.53.22,1.54.79,1.8,1.34l-1.14.34s-.02.01-.03.01c-.02,0-.04.02-.06.03-.02.01-.04.03-.05.04,0,0-.02.01-.03.02l-6.69,7.98c-.48-.2-1.17-.48-1.42-.53-.32-.06-.67-.09-.94-.11.03-.04.06-.08.09-.13.09-.13.19-.28.29-.48.4-.78,5.25-8.1,6.23-9.11,2.89-2.98,13.6-8.87,15.72-10.02.24-.13.5-.21.77-.25,2.07-.26,4.99-.25,7.09,0,0,.07.01.15.06.21,1.74,2.39,5.24,5.18,7.49,5.35.04,0,.08,0,.12,0,.68,0,1.49-.43,1.88-1.02.26-.39.31-.81.15-1.19-.18-.9-.05-1.7.02-2.01,1.25.63,2.38.93,3.39,1.19,1.1.29,2.06.53,2.98,1.13.95.62,1.55,1.67,1.6,2.82.01.33.02.64.03.92.01.42.02.7.04.9h-1.31c.16-.7.36-1.37.64-1.97.08-.18,0-.39-.17-.47-.18-.08-.39,0-.47.17-1.1,2.39-1.19,5.77-1.14,7.58l.06,2.33c.12,4.54-.07,12.43-.58,17.25-.2,1.89-.14,3.49.19,5.05.28,1.32.33,2.32.17,3.14-.03.15-.12.27-.25.35-1.08.66-2.55.82-3.97.92-4.25.32-9.27.49-14.17-.65-.85-.2-1.7-.43-2.53-.66l-2.77-.77c-.97-.27-1.98-.55-2.92-.96-.05-.02-.09-.07-.11-.14-.08-.41-.15-1.29.33-2.57.7-1.91,1.01-4.01,1.31-6.04.17-1.13.34-2.29.57-3.38Z"/>
            <path class="cls-1" d="m60.47,184.74l.83-3.48c.05-.19.23-.31.42-.26.19.05.31.23.26.42l-.83,3.48c-.23.98-.48,2-1.01,2.91-.07.11-.18.17-.3.17-.06,0-.12-.02-.18-.05-.17-.1-.22-.31-.13-.48.48-.82.71-1.78.93-2.72Z"/>
            <path class="cls-1" d="m60.21,176.62c3.05.18,6.09-.46,8.8-1.85.17-.09.39-.02.47.15.09.17.02.39-.15.47-2.52,1.29-5.3,1.96-8.12,1.96-.35,0-.7,0-1.04-.03-.19-.01-.34-.18-.33-.37s.18-.34.37-.33Z"/>
            <path class="cls-1" d="m43.26,214.21c-.05.03-.11.04-.16.04-.13,0-.25-.07-.31-.19-.4-.76-.5-.95-.6-1.14-.1-.19-.2-.38-.59-1.13-.09-.17-.03-.38.15-.48.17-.09.38-.02.48.15.4.75.5.94.6,1.13.1.19.2.38.6,1.14.09.17.03.38-.15.48Z"/>
            <path class="cls-1" d="m26.59,230.89c.19.06.29.25.24.44-.76,2.55-.64,3.86.08,6.52.05.19-.06.38-.25.43-.03,0-.06.01-.09.01-.15,0-.3-.1-.34-.26-.75-2.76-.88-4.21-.08-6.9.06-.19.25-.29.44-.24Z"/>
            <path class="cls-1" d="m24.15,231.93c.19.02.33.2.3.39-.34,2.63-.02,3.91,1.12,6.42.08.18,0,.39-.17.47-.05.02-.1.03-.15.03-.13,0-.26-.08-.32-.21-1.18-2.6-1.54-4.02-1.18-6.8.02-.19.19-.32.39-.3Z"/>
          </g>
        </g>
      </g>
      <g>
        <g>
          <path class="cls-2" d="m98.89,24.03c-.99-9.95-7.75-18.83-17.88-22.06-7.99-2.53-16.29-.99-22.66,3.48-6.4-4.45-14.73-5.96-22.71-3.38-10.14,3.28-16.85,12.24-17.78,22.22C8.03,27.81.93,37.13.75,48.19c-.18,11.39,7.05,21.18,17.24,24.77.97,9.96,7.71,18.87,17.84,22.11,2.62.84,5.27,1.23,7.87,1.23,5.35,0,10.52-1.68,14.81-4.68,6.39,4.45,14.71,5.98,22.69,3.41,1.2-.39,2.35-.86,3.45-1.4,3.74,3.91,8.74,7.34,14.75,7.26-2.43-.63-6.41-6.9-7.24-12.82,3.87-4.16,6.31-9.51,6.85-15.2,9.94-3.53,17.04-12.96,17.17-24.01,0,0,0-.01,0-.02.19-11.43-7.07-21.25-17.31-24.82Z"/>
          <path class="cls-3" d="m98.89,24.03c-.99-9.95-7.75-18.83-17.88-22.06-7.99-2.53-16.29-.99-22.66,3.48-6.4-4.45-14.73-5.96-22.71-3.38-10.14,3.28-16.85,12.24-17.78,22.22C8.03,27.81.93,37.13.75,48.19c-.18,11.39,7.05,21.18,17.24,24.77.97,9.96,7.71,18.87,17.84,22.11,2.62.84,5.27,1.23,7.87,1.23,5.35,0,10.52-1.68,14.81-4.68,6.39,4.45,14.71,5.98,22.69,3.41,1.2-.39,2.35-.86,3.45-1.4,3.74,3.91,8.74,7.34,14.75,7.26-2.43-.63-6.41-6.9-7.24-12.82,3.87-4.16,6.31-9.51,6.85-15.2,9.94-3.53,17.04-12.96,17.17-24.01,0,0,0-.01,0-.02.19-11.43-7.07-21.25-17.31-24.82Z"/>
        </g>
        <g>
          <path class="cls-1" d="m38.98,23.87h3.04c3.39,0,5.49,1.77,5.49,5.52s-2.1,5.59-5.37,5.59h-3.17v-11.11Zm2.91,9.33c2.07,0,3.36-1.11,3.36-3.81s-1.29-3.74-3.36-3.74h-.69v7.54h.69Z"/>
          <path class="cls-1" d="m49.69,23.87h2.22v11.11h-2.22v-11.11Z"/>
          <path class="cls-1" d="m56.51,30.92l-3.33-7.05h2.35l1.11,2.71c.32.83.61,1.61.96,2.46h.06c.34-.85.67-1.63.99-2.46l1.11-2.71h2.31l-3.34,7.05v4.06h-2.22v-4.06Z"/>
          <path class="cls-1" d="m67.57,24.62c1.26-.1,3.73-.33,6.48-.55,1.55-.13,3.18-.23,4.24-.27l.02,1.92c-.81.02-2.1.02-2.9.21-1.81.48-3.18,2.41-3.18,4.2,0,2.47,2.31,3.36,4.86,3.5l-.7,2.05c-3.15-.21-6.12-1.89-6.12-5.14,0-2.16,1.22-3.87,2.23-4.63-1.41.15-4.47.48-6.21.85l-.19-2.05c.6-.02,1.18-.04,1.47-.08Zm9.79,4.6l-1.14.51c-.38-.83-.69-1.41-1.17-2.08l1.11-.46c.38.54.92,1.46,1.2,2.04Zm1.74-.73l-1.12.54c-.41-.81-.75-1.37-1.23-2.03l1.09-.51c.38.53.95,1.41,1.26,2Z"/>
        </g>
        <g>
          <path class="cls-1" d="m25.41,51.95v1.2h-9.09v-1.2h3.81v-5.17h-3.27v-1.24h7.99v1.24h-3.36v5.17h3.92Z"/>
          <path class="cls-1" d="m31.66,49.88c.71,1.44,1.96,2.39,3.94,2.77-.27.27-.62.78-.78,1.13-1.91-.48-3.13-1.43-3.95-2.9-.58,1.23-1.73,2.32-3.94,2.98-.13-.31-.48-.84-.73-1.1,2.22-.63,3.22-1.7,3.65-2.88h-3.42v-1.23h3.7c.03-.31.04-.61.04-.91v-.69h-3.06v-1.23h3.06v-1.33h1.28v1.33h3.29v1.23h-3.29v.69c0,.3,0,.6-.03.91h3.85v1.23h-3.61Z"/>
          <path class="cls-1" d="m38.81,46.37c-.04,1.08-.12,3.32-.12,4.56,0,1.01.6,1.34,1.38,1.34,1.65,0,2.7-.95,3.42-2.04l.91,1.1c-.64.96-2.06,2.3-4.34,2.3-1.64,0-2.7-.72-2.7-2.43,0-1.34.1-3.97.1-4.83,0-.47-.04-.95-.13-1.35l1.61.02c-.06.42-.11.93-.13,1.33Z"/>
          <path class="cls-1" d="m48.98,46.29c.49-.09.96-.2,1.35-.32l.04,1.16c-.46.12-1.08.25-1.75.35-.48,1.4-1.33,3.15-2.14,4.28l-1.21-.62c.79-.98,1.6-2.45,2.04-3.53-.18,0-.35,0-.52,0-.41,0-.82,0-1.25-.04l-.09-1.16c.43.05.96.07,1.33.07.3,0,.6,0,.91-.04.14-.55.25-1.15.27-1.67l1.38.14c-.08.32-.21.83-.36,1.37Zm2.7,3.02c0,.29.04.77.06,1.27.86.32,1.56.82,2.07,1.28l-.67,1.07c-.35-.32-.8-.74-1.35-1.07v.1c0,.93-.51,1.65-1.93,1.65-1.24,0-2.22-.55-2.22-1.65,0-.98.82-1.73,2.21-1.73.24,0,.46.02.69.04-.04-.74-.09-1.63-.11-2.24h1.25c-.03.42-.01.84,0,1.28Zm-2,3.15c.69,0,.9-.38.9-.93v-.2c-.26-.06-.53-.1-.81-.1-.58,0-.95.26-.95.61,0,.37.31.62.86.62Zm1.32-5.32l.64-.99c.72.31,1.96.99,2.47,1.36l-.71,1.05c-.58-.46-1.72-1.11-2.4-1.42Z"/>
          <path class="cls-1" d="m58.81,45.97c-.06.3-.14.67-.21,1.03.34-.02.63-.04.84-.04,1.06,0,1.81.47,1.81,1.91,0,1.18-.14,2.8-.57,3.67-.33.7-.88.92-1.64.92-.38,0-.86-.07-1.2-.14l-.21-1.32c.38.11.96.21,1.22.21.34,0,.59-.1.75-.43.27-.57.41-1.78.41-2.77,0-.8-.35-.91-.97-.91-.16,0-.41.02-.7.04-.38,1.52-1.12,3.89-2.04,5.36l-1.3-.52c.97-1.31,1.66-3.33,2.03-4.7-.36.04-.68.08-.86.1-.29.05-.81.12-1.12.17l-.12-1.36c.37.03.7,0,1.07,0,.31,0,.78-.04,1.29-.09.14-.75.23-1.48.21-2.11l1.49.15c-.06.26-.13.58-.18.83Zm4.24.16l-.49.21c.6.93,1.35,2.6,1.63,3.49l-1.27.58c-.26-1.11-.97-2.87-1.68-3.75l.9-.39c-.2-.38-.45-.86-.68-1.18l.79-.33c.25.37.61,1,.8,1.37Zm1.19-.46l-.79.34c-.21-.41-.53-1-.81-1.38l.8-.32c.26.38.63,1.01.8,1.36Z"/>
          <path class="cls-1" d="m66.75,49.27c.91-.66,1.9-.95,2.95-.95,1.75,0,2.77,1.08,2.77,2.29,0,1.82-1.44,3.22-5.6,2.87l-.38-1.31c3,.41,4.59-.32,4.59-1.59,0-.65-.62-1.13-1.49-1.13-1.13,0-2.15.42-2.78,1.18-.18.22-.28.38-.37.58l-1.15-.29c.2-.98.43-2.94.5-4.18l1.34.19c-.13.55-.31,1.77-.38,2.34Zm4.32-3.57l-.3,1.22c-1.01-.13-3.24-.6-4.02-.8l.32-1.2c.95.3,3.13.68,4,.78Z"/>
          <path class="cls-1" d="m80.6,46.39c.73.53,1.56,1.2,2,1.71l-1.05.67c-.15-.19-.36-.41-.6-.64-2.49.09-5.1.16-6.85.2l-.03-1.07,1.39-.02c.19-.27.37-.57.53-.85h-2.27v-1.04h3.82v-.85h1.22v.85h3.82v1.04h-1.98Zm.67,6.34c0,.56-.14.81-.55.96-.41.14-1,.15-1.81.15-.06-.29-.22-.68-.35-.95.48.03,1.12.03,1.27.02.18,0,.23-.05.23-.19v-.46h-3.79v1.58h-1.19v-5.13h6.19v4.02Zm-5-3.06v.48h3.79v-.48h-3.79Zm3.79,1.77v-.48h-3.79v.48h3.79Zm-2.57-5.05c-.22.28-.46.57-.69.84.97-.02,2.01-.03,3.06-.05-.22-.18-.44-.35-.65-.5l.48-.29h-2.2Z"/>
          <path class="cls-1" d="m84.41,46.04c.83-.07,2.48-.22,4.31-.38,1.03-.08,2.13-.15,2.83-.17v1.28c-.53.01-1.39.01-1.92.13-1.21.32-2.11,1.62-2.11,2.81,0,1.64,1.54,2.24,3.23,2.33l-.47,1.37c-2.09-.14-4.07-1.27-4.07-3.43,0-1.44.81-2.58,1.48-3.09-.94.1-2.98.32-4.14.57l-.13-1.37c.4,0,.79-.03.99-.05Z"/>
          <path class="cls-1" d="m94.71,45.4c.53,0,2.67-.04,3.24-.09.41-.04.64-.07.76-.11l.65.89c-.23.15-.47.29-.7.46-.54.38-1.59,1.26-2.22,1.76.33-.08.63-.11.95-.11,1.7,0,2.99,1.06,2.99,2.52,0,1.58-1.2,2.83-3.62,2.83-1.39,0-2.44-.64-2.44-1.64,0-.81.73-1.56,1.79-1.56,1.24,0,1.99.76,2.13,1.71.55-.29.83-.75.83-1.36,0-.9-.9-1.51-2.08-1.51-1.53,0-2.53.81-3.6,2.03l-.91-.94c.71-.57,1.92-1.59,2.51-2.08.56-.46,1.6-1.3,2.09-1.73-.51,0-1.89.07-2.42.1-.27.02-.59.05-.82.08l-.04-1.3c.28.04.63.05.91.05Zm1.8,7.01c.21,0,.4-.01.58-.03-.06-.65-.43-1.07-.97-1.07-.38,0-.62.23-.62.48,0,.37.41.62,1.01.62Z"/>
          <path class="cls-1" d="m29.37,67.21c-.19-.3-.52-.75-.85-1.16v3.77h-1.17v-3.7c-.41.89-.89,1.74-1.38,2.31-.12-.33-.39-.84-.58-1.14.63-.67,1.29-1.78,1.71-2.76h-1.47v-1.13h1.72v-1.22c-.49.09-.98.17-1.45.23-.05-.26-.2-.67-.34-.91,1.31-.21,2.78-.56,3.66-.97l.84.91c-.46.18-.99.34-1.54.48v1.48h1.51v1.13h-1.51v.24c.35.32,1.32,1.3,1.56,1.55l-.71.89Zm4.27,2.63c-.03-.27-.09-.59-.16-.92-1.49.22-3.02.43-4.18.57l-.28-1.25c.27-.02.59-.05.93-.08.54-2.08,1.07-5.05,1.3-7.44l1.36.22c-.33,2.36-.87,5.09-1.42,7.1.64-.07,1.32-.14,2-.22-.22-.72-.49-1.48-.77-2.14l1.14-.32c.6,1.31,1.18,2.99,1.34,4.08l-1.26.4Z"/>
          <path class="cls-1" d="m40.61,69.44l-.75-1.19c.38-.04.66-.1.93-.16,1.28-.3,2.28-1.22,2.28-2.68,0-1.38-.75-2.41-2.1-2.64-.14.85-.31,1.77-.6,2.71-.6,2.02-1.46,3.26-2.55,3.26s-2.03-1.22-2.03-2.91c0-2.31,2-4.28,4.59-4.28s4.04,1.72,4.04,3.9-1.29,3.6-3.81,3.99Zm-2.75-2.24c.42,0,.81-.63,1.22-1.98.23-.74.42-1.59.53-2.42-1.65.34-2.54,1.8-2.54,2.9,0,1.01.4,1.5.79,1.5Z"/>
          <path class="cls-1" d="m53.71,63.09c-.72,1.17-2,2.77-3.41,3.91.57.57,1.16,1.22,1.55,1.69l-1.17.93c-.42-.56-1.26-1.5-1.91-2.16-.58-.59-1.6-1.49-2.2-1.92l1.06-.85c.4.3,1.06.84,1.69,1.39,1.13-.9,2.07-2.06,2.54-2.88h-5.29c-.4,0-.94.05-1.15.07v-1.4c.26.04.81.09,1.15.09h5.55c.38,0,.72-.04.93-.11l1,.82c-.14.16-.26.29-.34.42Z"/>
          <path class="cls-1" d="m58.98,63.29c1.03-.64,2.17-1.64,2.82-2.43l1.08,1.03c-.76.75-1.72,1.53-2.69,2.17v4.04c0,.44.02,1.06.09,1.31h-1.58c.04-.24.07-.87.07-1.31v-3.2c-1.03.54-2.3,1.08-3.53,1.44l-.63-1.26c1.79-.46,3.26-1.11,4.37-1.79Z"/>
          <path class="cls-1" d="m64.85,68.05l-1.09-.74c.67-.63,1.47-1.73,1.88-2.58l1.14.53c-.46.89-1.39,2.2-1.93,2.79Zm4.19-6.22v.8h2.32c.29,0,.72-.03.99-.07v1.31c-.31-.02-.7-.03-.98-.03h-2.33v4.65c0,.58-.34.94-1.05.94-.53,0-1.12-.02-1.62-.09l-.13-1.24c.43.08.87.12,1.12.12s.35-.1.36-.36c0-.37,0-3.54,0-4.01h0s-2.54,0-2.54,0c-.3,0-.68,0-.96.04v-1.32c.3.03.65.07.96.07h2.54v-.8c0-.26-.05-.7-.08-.87h1.48c-.03.14-.09.62-.09.87Zm3.74,5.5l-1.17.64c-.43-.85-1.14-2.06-1.63-2.68l1.09-.59c.51.64,1.31,1.9,1.71,2.63Z"/>
          <path class="cls-1" d="m75.61,64.4h5.37c.47,0,.91-.04,1.17-.06v1.57c-.24-.01-.75-.05-1.17-.05h-5.37c-.57,0-1.24.02-1.61.05v-1.57c.36.03,1.09.06,1.61.06Z"/>
          <path class="cls-1" d="m87.23,62.54c-.32.98-1.13,3.52-1.63,4.86,1.22-.12,2.64-.28,3.65-.4-.35-.72-.72-1.39-1.05-1.83l1.25-.51c.71,1.08,1.73,3.04,2.19,4.16l-1.35.6c-.13-.34-.29-.75-.48-1.18-1.62.19-4.65.51-5.91.64-.25.03-.62.08-.94.12l-.23-1.46c.34,0,.77,0,1.1,0,.08,0,.18-.01.27-.01.58-1.48,1.44-4.22,1.73-5.26.14-.51.2-.82.24-1.16l1.59.33c-.13.3-.28.67-.43,1.11Z"/>
        </g>
      </g>
    </g>
  </g>
</svg>