<?xml version="1.0" encoding="UTF-8"?>
<svg id="_レイヤー_2" data-name="レイヤー 2" xmlns="http://www.w3.org/2000/svg" viewBox="0 0 239.34 254.06">
  <defs>
    <style>
      .cls-1 {
        fill: #ffafa9;
      }

      .cls-2, .cls-3 {
        fill: #262626;
      }

      .cls-4 {
        fill: #fff;
      }

      .cls-5, .cls-6 {
        fill: #ffddc0;
      }

      .cls-5, .cls-7, .cls-3 {
        fill-rule: evenodd;
      }

      .cls-8 {
        fill: none;
        stroke: #262626;
        stroke-linecap: round;
        stroke-linejoin: round;
        stroke-width: 1.5px;
      }

      .cls-9 {
        fill: #e0ba92;
      }

      .cls-10 {
        fill: #e0efca;
      }

      .cls-11 {
        fill: #fff1b6;
      }

      .cls-12 {
        fill: #ddd8ce;
      }

      .cls-13 {
        fill: #fffef0;
      }

      .cls-14 {
        fill: #e1f3f9;
      }

      .cls-7 {
        fill: #f4f4f4;
      }

      .cls-15 {
        fill: #fff400;
      }

      .cls-16 {
        fill: #bfd6e8;
      }
    </style>
  </defs>
  <g id="illustration">
    <g>
      <g>
        <g>
          <path class="cls-15" d="m157.78,101.83l-.12,1.56c-.11,1.44-.86,2.58-1.8,2.75l-1.03.18,1.03.18c.94.17,1.69,1.31,1.8,2.75l.12,1.57.12-1.57c.11-1.44.86-2.58,1.8-2.75l1.03-.18-1.03-.18c-.95-.17-1.69-1.31-1.8-2.75l-.12-1.56Z"/>
          <path class="cls-15" d="m211.23,105.56l-.12,1.56c-.11,1.44-.86,2.58-1.8,2.75l-1.03.18,1.03.18c.94.17,1.69,1.31,1.8,2.75l.12,1.57.12-1.57c.11-1.44.86-2.58,1.8-2.75l1.03-.18-1.03-.18c-.95-.17-1.69-1.31-1.8-2.75l-.12-1.56Z"/>
          <path class="cls-15" d="m236.39,142.57l-.12,1.56c-.11,1.44-.86,2.58-1.8,2.75l-1.03.18,1.03.18c.94.17,1.69,1.31,1.8,2.75l.12,1.57.12-1.57c.11-1.44.86-2.58,1.8-2.75l1.03-.18-1.03-.18c-.95-.17-1.69-1.31-1.8-2.75l-.12-1.56Z"/>
          <path class="cls-15" d="m69.53,170.78l-.12,1.56c-.11,1.44-.86,2.58-1.8,2.75l-1.03.18,1.03.18c.94.17,1.69,1.31,1.8,2.75l.12,1.57.12-1.57c.11-1.44.86-2.58,1.8-2.75l1.03-.18-1.03-.18c-.95-.17-1.69-1.31-1.8-2.75l-.12-1.56Z"/>
          <path class="cls-15" d="m167.25,124.48l-.07.85c-.06.78-.47,1.41-.98,1.49l-.56.1.56.1c.51.09.92.71.98,1.49l.07.85.06-.85c.06-.78.47-1.4.98-1.49l.56-.1-.56-.1c-.52-.08-.92-.71-.98-1.49l-.06-.85Z"/>
          <path class="cls-15" d="m213.96,130.15l-.07.85c-.06.78-.47,1.41-.98,1.49l-.56.1.56.1c.51.09.92.71.98,1.49l.07.85.06-.85c.06-.78.47-1.4.98-1.49l.56-.1-.56-.1c-.52-.08-.92-.71-.98-1.49l-.06-.85Z"/>
          <path class="cls-15" d="m89.75,158.04l-.07.85c-.06.78-.47,1.41-.98,1.49l-.56.1.56.1c.51.09.92.71.98,1.49l.07.85.06-.85c.06-.78.47-1.4.98-1.49l.56-.1-.56-.1c-.52-.08-.92-.71-.98-1.49l-.06-.85Z"/>
          <path class="cls-15" d="m100.08,130.84l-.11,1.54c-.11,1.4-.84,2.51-1.76,2.68l-1,.17,1,.18c.93.17,1.66,1.27,1.76,2.68l.11,1.53.12-1.53c.11-1.41.84-2.52,1.76-2.68l1.01-.18-1.01-.17c-.92-.17-1.65-1.28-1.76-2.68l-.12-1.54Z"/>
        </g>
        <g>
          <polygon class="cls-9" points="211.71 243.56 210.66 242.77 211.71 213.25 213.98 212.43 211.71 243.56"/>
          <polygon class="cls-9" points="110.69 243.56 111.75 242.77 110.69 213.25 108.31 211.25 110.69 243.56"/>
          <polygon class="cls-9" points="105.01 158.81 106.32 157.82 216.42 157.82 218.33 158.81 105.01 158.81"/>
          <path class="cls-2" d="m218.33,159.09s-.09-.01-.13-.03l-1.85-.96h-109.93l-1.24.94c-.12.09-.3.07-.39-.06-.09-.12-.07-.3.06-.39l1.31-.99s.11-.06.17-.06h110.09s.09.01.13.03l1.91.99c.14.07.19.24.12.38-.05.1-.15.15-.25.15Z"/>
          <polygon class="cls-9" points="91.92 194.84 107.37 185.13 215.1 185.7 231.1 194.84 228.34 209.25 95.57 209.25 91.92 194.84"/>
          <polygon class="cls-9" points="217.01 198.92 106.32 198.92 105.01 158.81 218.33 158.81 217.01 198.92"/>
          <g>
            <path class="cls-2" d="m106.06,206.92c-.06,0-.12-.02-.17-.06-.12-.09-.15-.27-.05-.4l4.38-5.71c.1-.12.27-.15.4-.05.12.09.15.27.05.4l-4.38,5.71c-.06.07-.14.11-.22.11Z"/>
            <path class="cls-2" d="m114.44,206.86c-.11-.09-.15-.27-.07-.39l3.72-5.69c.08-.12.25-.16.37-.08.12.08.16.25.08.37l-3.5,5.45s-.2.28-.2.29c0,.01-.02.02-.03.03-.04.04-.09.06-.15.07-.02,0-.03,0-.05,0-.06,0-.12-.02-.17-.06Z"/>
            <path class="cls-2" d="m122.99,206.85c-.1-.08-.16-.28-.08-.38l3.07-5.66c.07-.12.22-.17.34-.11.12.07.17.22.11.34l-2.84,5.47s-.17.28-.19.3c0,.01-.02.02-.03.03-.04.04-.1.06-.15.07-.02,0-.03,0-.05,0-.06,0-.12-.02-.17-.07Z"/>
            <path class="cls-2" d="m131.54,206.85c-.09-.07-.17-.28-.09-.38l2.41-5.64c.05-.12.19-.18.32-.13.12.05.18.19.13.32l-2.19,5.49s-.15.28-.17.3c0,.01-.02.02-.03.03-.04.04-.1.06-.15.07-.02,0-.03,0-.05,0-.06,0-.12-.03-.17-.07Z"/>
            <path class="cls-2" d="m140.1,206.85c-.09-.07-.17-.28-.11-.37l1.76-5.62c.04-.12.17-.19.29-.16.12.04.19.17.16.29l-1.53,5.51s-.13.28-.16.31c0,.01-.02.02-.03.03-.04.04-.1.06-.15.07-.02,0-.03,0-.05,0-.06,0-.12-.03-.17-.07Z"/>
            <path class="cls-2" d="m148.65,206.84c-.08-.06-.18-.29-.12-.36l1.1-5.59c.02-.12.14-.21.26-.18.12.02.21.14.18.26l-.87,5.53s-.11.28-.14.32c0,.01-.02.02-.03.03-.05.04-.1.06-.16.07-.02,0-.03,0-.05,0-.06,0-.12-.03-.17-.08Z"/>
            <path class="cls-2" d="m157.2,206.84c-.07-.05-.19-.29-.14-.36l.45-5.57c0-.12.11-.22.24-.21.12,0,.22.11.21.24l-.22,5.56c.04.05-.08.28-.13.32,0,.01-.02.02-.03.03-.05.04-.1.06-.16.07-.02,0-.03,0-.05,0-.06,0-.12-.03-.17-.08Z"/>
            <path class="cls-2" d="m165.75,206.83c-.06-.04-.19-.29-.15-.35l-.21-5.54c0-.12.09-.23.21-.24.12,0,.23.09.24.21l.44,5.58c.05.06-.06.27-.11.33,0,.01-.02.02-.03.03-.05.04-.1.06-.16.07-.02,0-.03,0-.05,0-.06,0-.12-.03-.17-.08Z"/>
            <path class="cls-2" d="m174.31,206.83s-.2-.29-.17-.34l-.86-5.52c-.02-.12.06-.24.18-.26.12-.02.24.06.26.18l1.09,5.6c.05.07-.04.27-.1.33-.01.01-.02.02-.03.03-.05.04-.1.06-.16.06-.02,0-.03,0-.05,0-.06,0-.12-.04-.17-.09Z"/>
            <path class="cls-2" d="m182.86,206.83s-.21-.3-.18-.34l-1.52-5.5c-.04-.12.03-.25.16-.29.12-.04.25.03.29.16l1.75,5.62c.06.08-.02.27-.08.34-.01.01-.02.02-.03.03-.05.04-.11.06-.16.06-.02,0-.03,0-.05,0-.06,0-.13-.04-.17-.09Z"/>
            <path class="cls-2" d="m191.41,206.82s-.22-.3-.19-.33l-2.17-5.47c-.05-.12,0-.27.13-.32s.27,0,.32.13l2.41,5.64c.07.09,0,.27-.06.35-.01.01-.02.02-.03.03-.05.04-.11.06-.17.06-.02,0-.03,0-.05,0-.06,0-.13-.04-.17-.09Z"/>
            <path class="cls-2" d="m199.96,206.82s-.22-.3-.21-.32l-2.83-5.45c-.07-.12-.02-.28.11-.34.12-.07.28-.02.34.11l3.06,5.67c.07.09.03.27-.05.35-.01.01-.02.02-.03.03-.05.04-.11.06-.17.06-.02,0-.03,0-.05,0-.06-.01-.13-.04-.17-.1Z"/>
            <path class="cls-2" d="m208.51,206.81s-.23-.31-.22-.31l-3.49-5.43c-.08-.12-.04-.29.08-.37.12-.08.29-.04.37.08l3.72,5.69c.08.1.05.27-.03.36-.01.01-.02.02-.03.03-.05.04-.11.06-.17.06-.02,0-.03,0-.05,0-.07-.01-.13-.05-.17-.1Z"/>
            <path class="cls-2" d="m217.29,206.92c-.08,0-.17-.04-.22-.11l-4.38-5.71c-.09-.12-.07-.3.05-.4.12-.09.3-.07.4.05l4.38,5.71c.09.12.07.3-.05.4-.05.04-.11.06-.17.06Z"/>
          </g>
          <path class="cls-9" d="m96.7,251.81l2-1.16s-.89-28.06-2-37.4l-2.89-2.45,2.89,41.01Z"/>
          <path class="cls-2" d="m158.63,195.88c-.15,0-.28-.12-.28-.27-.44-15.17,0-33.35,0-33.53,0-.16.14-.28.29-.28.16,0,.28.13.28.29,0,.18-.44,18.35,0,33.5,0,.16-.12.29-.27.29h0Z"/>
          <path class="cls-2" d="m210.47,195.93h0c-.16,0-.28-.13-.28-.29.21-15.17,1.42-33.32,1.44-33.5.01-.16.14-.27.3-.26.16.01.27.14.26.3-.01.18-1.22,18.32-1.43,33.47,0,.15-.13.28-.28.28Z"/>
          <path class="cls-2" d="m165.13,191.44c-.15,0-.28-.12-.28-.27-.44-15.17.19-28.48.2-28.61,0-.16.15-.27.3-.27.16,0,.28.14.27.3,0,.13-.64,13.42-.2,28.56,0,.16-.12.29-.27.29h0Z"/>
          <path class="cls-2" d="m112.17,197.47s0,0-.01,0c-.16,0-.28-.14-.27-.29.44-11.91,0-36.31,0-36.56,0-.16.12-.28.28-.29.14,0,.28.12.29.28,0,.25.44,24.66,0,36.59,0,.15-.13.27-.28.27Z"/>
          <path class="cls-9" d="m226.33,252.07l-2-1.16s.89-28.06,2-37.4l3.02-2-3.02,40.56Z"/>
          <path class="cls-9" d="m107.37,212.14s.55,22.63.69,31.42h2.63s-.42-26.76-1.12-32.31l-2.2.89Z"/>
          <path class="cls-9" d="m215.1,212.14s-.55,22.63-.69,31.42h-2.63s.42-26.76,1.12-32.31l2.2.89Z"/>
          <path class="cls-2" d="m110.69,243.84h-2.63c-.15,0-.28-.12-.28-.28-.14-8.69-.68-31.2-.69-31.42,0-.12.07-.22.18-.27l2.2-.89c.08-.03.17-.03.25.02.08.04.13.12.14.21.69,5.51,1.11,32.08,1.12,32.34,0,.08-.03.15-.08.2-.05.05-.13.08-.2.08Zm-2.35-.56h2.07c-.05-2.84-.45-25.79-1.07-31.63l-1.68.68c.05,2.22.54,22.52.68,30.95Z"/>
          <path class="cls-2" d="m214.41,243.84h-2.63c-.08,0-.15-.03-.2-.08-.05-.05-.08-.13-.08-.2,0-.27.43-26.84,1.12-32.34.01-.09.06-.16.14-.21.08-.04.17-.05.25-.02l2.2.89c.11.04.18.15.18.27,0,.23-.55,22.73-.69,31.42,0,.15-.13.28-.28.28Zm-2.34-.56h2.07c.14-8.44.63-28.74.68-30.95l-1.68-.68c-.62,5.84-1.02,28.79-1.07,31.63Z"/>
          <path class="cls-14" d="m178.94,141.26s2.79,8.89,8.6,9.24c5.81.34,9.89-7.6,9.89-7.6l-1.43-.37c.35-1.28-1.69-2.11-3.08-.82l-9.71-1.33c-1.75-.73-2.99-.8-3.08.64l-1.2.25Z"/>
          <rect class="cls-9" x="94.81" y="209.25" width="133.54" height="4"/>
          <polygon class="cls-6" points="167.69 165.1 164.2 170.9 170.13 176.74 170.13 167.19 167.69 165.1"/>
          <path class="cls-2" d="m217.01,199.2h-110.69c-.15,0-.28-.12-.28-.27l-1.31-40.1c0-.08.03-.15.08-.21.05-.05.13-.09.2-.09h113.32c.08,0,.15.03.2.09.05.05.08.13.08.21l-1.31,40.1c0,.15-.13.27-.28.27Zm-110.41-.56h110.14l1.3-39.54h-112.73l1.3,39.54Z"/>
          <path class="cls-14" d="m179.91,141.04s-10.59,2.33-12.22,4.33c-1.41,1.73-5.33,24.33-6.11,26.88-.78,2.56.22,6.74,2.48,8.06,2,1.16,5.24.79,5.96-1.45.36-1.11.64-4.57.64-4.57,0,0-4.8.84-5.53-5.48l-2.22,2.44,2.06-1.57,14.93-28.65Z"/>
          <path class="cls-14" d="m196,142.52s10.53,2.61,12.1,4.65c1.36,1.76,4.99,23.42,5.4,27.04.3,2.65-.16,7.34-2.7,7.99-4.08,1.04-7.19-4.26-7.19-4.26,0,0,4.96.55,5.85-5.76l2.59,2.11-12.12-3.71-3.93-28.07Z"/>
          <path class="cls-1" d="m197.43,142.89s-3.94,7.84-10.31,7.84c-3.03,0-7.73-6.36-8.18-9.47l-2.26.57-8.63,3.2,4.23,9.03-1.67,18.71.16,10.47,11,7.42s9.34.85,13.33-.24l8.5-5.81c-.08-2.35-.48-8.31-.48-8.31l-1.54-15.33c1.45-6.23,3.04-12.08,6.04-14.23l-10.2-3.83Z"/>
          <path class="cls-4" d="m168.06,150.73l1.22-.24c.28.05.25-.07.85,0,.18.02-.21-1.41,0-1.39,3.58.4,11.63,2.93,14.96,5.78,0,0,8.52-3.7,17.41-1.78l.62.75-18.07,2.12-17-5.23Z"/>
          <path class="cls-2" d="m170.13,174.6c-.16,0-.28-.13-.28-.28v-4.27c0-.16.13-.28.28-.28s.28.13.28.28v4.27c0,.16-.13.28-.28.28Z"/>
          <path class="cls-12" d="m194.16,235.24c1.66.12,2.66,1.99,2.66,1.99.16,2.39.05,4.32.38,5.9.72,3.38,1.71,4.88,1.51,6.01,1.59,1.52-2.78,2.71-4.54,2.67-2.15-.04-7.45-1.78-5.53-3.73-.24-1.52,1.17-4.59,1.66-8.2.18-1.39-.03-3.66.45-3.61,1.17.16,1.74-1.15,3.41-1.02Z"/>
          <path class="cls-2" d="m194.69,250.93c-.06,0-.13,0-.19,0-2.24-.04-5.88-1.32-6.13-2.81-.14-.88.21-2.15.65-3.75.37-1.35.79-2.88,1.02-4.53.06-.48.08-1.08.09-1.65.03-1.2.06-1.84.34-2.09.09-.08.21-.12.32-.11.46.06.81-.14,1.25-.4.52-.31,1.18-.69,2.15-.62h0c1.79.13,2.85,2.05,2.89,2.13.02.04.03.07.03.12.06.87.08,1.66.1,2.42.04,1.32.07,2.45.27,3.44.32,1.53.7,2.66,1.01,3.57.38,1.12.62,1.86.5,2.54-.23,1.22-2.63,1.75-4.3,1.75Zm-3.87-14.38c-.1.25-.12,1.08-.13,1.64-.01.59-.03,1.2-.1,1.72-.23,1.69-.66,3.24-1.03,4.61-.4,1.48-.75,2.76-.63,3.51.18,1.08,3.44,2.29,5.59,2.33,1.88.05,3.79-.58,3.92-1.28.1-.54-.13-1.22-.48-2.26-.31-.92-.69-2.08-1.03-3.64-.21-1.03-.25-2.19-.28-3.54-.02-.74-.04-1.5-.09-2.33-.17-.29-1.07-1.69-2.41-1.79h0c-.79-.06-1.31.25-1.82.54-.45.26-.91.54-1.51.49Z"/>
          <path class="cls-2" d="m194.53,252.09c-.13,0-.25,0-.38,0-2.22-.1-6-1.47-6.29-2.9-.22-1.12.56-2.66.59-2.73.07-.14.24-.19.38-.12.14.07.19.24.12.38,0,.01-.72,1.44-.54,2.36.19.95,3.48,2.35,5.76,2.45,2.22.1,4.19-.72,4.57-1.51.11-.24-.12-1.07-.38-1.7-.06-.14,0-.31.15-.37.14-.06.31,0,.37.15.11.26.64,1.57.38,2.16-.51,1.05-2.58,1.85-4.73,1.85Z"/>
          <path class="cls-2" d="m195.42,239.61s-.08,0-.11-.02c-.74-.33-1.68-.62-3.14-.23-.15.04-.31-.05-.34-.2-.04-.15.05-.3.2-.34,1.62-.43,2.69-.11,3.51.26.14.06.21.23.14.37-.05.1-.15.17-.26.17Z"/>
          <path class="cls-2" d="m195.47,241.38s-.08,0-.12-.03c0,0-.02,0-.03-.01-.16-.07-1.64-.71-3.14-.23-.15.05-.31-.03-.35-.18-.05-.15.03-.31.18-.35,1.48-.47,2.99-.02,3.51.24.02,0,.04.01.06.02h0c.07.05.11.08.13.1.07.1.06.24-.02.34-.05.06-.14.1-.22.1Z"/>
          <path class="cls-2" d="m195.51,243.05s-.08,0-.12-.03c-.02,0-1.73-.79-3.38-.22-.15.05-.31-.03-.36-.17-.05-.15.03-.31.17-.36,1.86-.64,3.72.2,3.8.24.14.07.2.23.14.37-.05.1-.15.16-.26.16Z"/>
          <path class="cls-6" d="m180.52,233.29v4.35l2.9.44s.51-2.76,0-4.43c-.51-1.68-2.9-.36-2.9-.36Z"/>
          <path class="cls-2" d="m183.71,236.67c-.14,0-.25-.1-.28-.23-.1-.59-.11-.87-.12-1.24,0-.22-.02-.47-.04-.84-.02-.3-.07-.54-.13-.82-.13-.62-.29-1.39-.29-3.35,0-.16.13-.28.28-.28h0c.16,0,.28.13.28.28,0,1.89.15,2.63.27,3.23.06.28.12.55.14.89.03.39.04.64.05.87.01.36.02.61.11,1.16.03.15-.08.3-.23.33-.02,0-.03,0-.05,0Z"/>
          <path class="cls-2" d="m178.08,237.22s0,0-.01,0c-.16,0-.28-.14-.27-.3.07-1.48-.34-4.32-.59-5.87-.02-.15.08-.3.23-.32.15-.03.3.08.32.23.25,1.58.67,4.46.59,5.99,0,.15-.13.27-.28.27Z"/>
          <polygon class="cls-16" points="167.24 150.73 168.77 172.19 183.68 176.91 185.76 176.91 202.2 175.62 204.12 154 186.41 155.97 184.42 155.97 167.24 150.73"/>
          <path class="cls-13" d="m174.65,189.7l3.87,14.85s7.55,4.7,16.83,0c5.22-2.64,7.29-13.54,7.29-13.54l-14.97-.14-13.02-1.17Z"/>
          <path class="cls-12" d="m180.53,235.51c-1.66.17-2.61,2.05-2.61,2.05-.09,2.4.06,4.32-.23,5.9-.63,3.39-1.59,4.93-1.36,6.05-1.55,1.56,2.85,2.64,4.61,2.55,2.15-.1,7.4-1.96,5.43-3.87.2-1.53-1.28-4.56-1.87-8.16-.22-1.39-.06-3.66-.54-3.6-1.17.19-1.77-1.1-3.43-.94Z"/>
          <path class="cls-2" d="m183.68,177.19s-.06,0-.09-.01l-14.91-4.73c-.11-.03-.19-.13-.2-.25l-1.53-21.45c0-.09.03-.18.11-.24.07-.06.17-.08.26-.05l17.14,5.22h1.92l17.7-1.97c.08,0,.17.02.23.08.06.06.09.14.08.23l-1.93,21.63c-.01.14-.12.25-.26.26l-16.44,1.29h-2.1Zm.04-.56h2.03l16.18-1.27,1.87-21.05-17.38,1.93s-.02,0-.03,0h-1.98s-.06,0-.08-.01l-16.79-5.11,1.49,20.85,14.69,4.66Z"/>
          <path class="cls-6" d="m176.04,164.37c.78-1.78-4.01-2.58-4.57-2.67-1.56-.23-3.57-.43-3.95-.06-.5.45-.19,1-.42,1.54-.18.47-.68.7-.89,1.14-.21.44.13.86.14,1.3,0,.16-.01.32-.02.47-.09.26-.24.48-.26.79-.01.32.3.55.35.86.15.54-.13,1.21.2,1.72.24.34.83.5,1.22.57,1.02.09,4.28-.12,6.32-.47.82-.16,1.12-.48,1.07-.79-.03-.18-.19-.41-.61-.5l2.44-.57-.47-1.36.47-1.02-1.01-.94Z"/>
          <path class="cls-6" d="m204.79,177.88l-1.39-1.51c-2.28-.5-3.03-2.31-3.03-2.31l.35.27c-.98-.75-2.53-2.05-4.4-2.94-.75-.37-.94-.77-.81-1.05.08-.17.29-.34.72-.32l5.4,1.78s-1.2-.45-2.65-.94c-1.43-.45-2.17-.68-3.16-1.06-1.03-.36-2.11-.89-1.86-1.46.24-.6,1.52-.19,2.44.02.92.22,2.47.71,3.72.95,1.26.23,2.28.46,2.4.04.18-.39-1.31-.87-1.63-.98-1.77-.6-2.24-.61-4.09-1.18-1.81-.59-2.65-1.07-2.49-1.64.21-.83,1.82-.26,3.17-.02,1.35.24,3.62.8,5.63,1.54l-.27-.09c-.13-.23-1.77-2.24-2.21-2.54-.81-.54-1.72-.85-2.54-1.29-.71-.39-2.17-.92-2.06-1.62.04-.53.67-.58,1.59-.27.91.31,2.42.59,3.65,1.25.93.49,1.46,1.14,2.21,1.79.36.33,2.02,1.29,2.3,2.9l1.89,3.9,1.56,2.24c-.74,2.63-2.21,4.17-4.45,4.55Z"/>
          <path class="cls-2" d="m228.34,213.53H94.81c-.16,0-.28-.13-.28-.28v-4c0-.16.13-.28.28-.28h133.54c.16,0,.28.13.28.28v4c0,.16-.13.28-.28.28Zm-133.25-.56h132.97v-3.44H95.09v3.44Z"/>
          <g>
            <path class="cls-2" d="m200.72,174.6c-.06,0-.12-.02-.17-.06-.14-.11-.29-.23-.45-.35-.98-.76-2.32-1.81-3.9-2.56-1.21-.61-1.03-1.24-.95-1.42.06-.12.3-.53,1-.48.16,0,.27.14.26.3,0,.16-.15.28-.3.26-.27-.02-.41.07-.45.15-.06.14.15.42.68.68,1.63.77,3,1.84,4,2.62.16.13.31.24.45.35.12.09.15.27.05.4-.06.07-.14.11-.22.11Z"/>
            <path class="cls-2" d="m203.6,173.61c-.08,0-.16-.03-.21-.1-.1-.12-.09-.29.02-.4.2-.18.27-.47.35-.79.06-.25.12-.51.25-.74.08-.17.21-.29.33-.4.1-.1.19-.18.21-.26.04-.15.02-.29,0-.46-.01-.1-.03-.2-.03-.3,0-.02,0-.05,0-.07l.11-.46c.06-.21.17-.39.27-.54.15-.23.24-.38.21-.56-.03-.18-.13-.35-.24-.54-.13-.24-.29-.5-.32-.83-.01-.16.1-.29.25-.31.16-.01.29.1.31.25.02.2.13.4.24.6.12.22.25.44.3.72.07.41-.13.72-.29.97-.08.13-.16.25-.2.37l-.1.41c0,.07.01.14.02.2.03.19.06.41,0,.66-.06.25-.24.42-.38.55-.09.08-.17.16-.21.23,0,0,0,.02-.01.03-.1.16-.14.37-.2.59-.09.37-.18.78-.52,1.08-.05.05-.12.07-.19.07Zm.66-1.89h0,0Z"/>
            <path class="cls-2" d="m209.24,173.61c-.09,0-.18-.04-.23-.12l-1.56-2.24s-.02-.02-.02-.04l-1.89-3.9s-.02-.05-.02-.08c-.21-1.21-1.31-2.04-1.89-2.49-.14-.1-.24-.18-.32-.25-.21-.18-.42-.37-.61-.56-.47-.44-.91-.86-1.54-1.19-.83-.45-1.79-.71-2.63-.95-.36-.1-.7-.19-.98-.29-.64-.22-1.01-.21-1.15-.12-.03.02-.06.05-.07.14-.06.38.86.83,1.41,1.1.18.09.36.17.5.25.3.16.62.31.96.46.53.25,1.09.5,1.6.84.48.33,2.14,2.36,2.3,2.63.08.13.03.31-.1.38-.13.08-.31.03-.39-.1-.13-.21-1.74-2.18-2.13-2.45-.48-.32-1.01-.56-1.52-.8-.33-.15-.67-.31-.99-.48-.14-.08-.3-.16-.48-.24-.82-.4-1.85-.9-1.72-1.67.01-.22.12-.42.31-.54.33-.22.89-.2,1.64.06.27.09.6.18.95.28.83.23,1.86.51,2.74.99.7.37,1.17.81,1.66,1.28.19.18.39.36.6.55.06.06.16.13.28.22.6.45,1.84,1.39,2.1,2.8l1.86,3.84,1.54,2.22c.09.13.06.3-.07.39-.05.03-.1.05-.16.05Z"/>
            <path class="cls-2" d="m201.63,172.08s-.07,0-.1-.02c-.01,0-1.22-.46-2.64-.94-1.39-.44-2.17-.68-3.17-1.07-1.56-.55-1.9-.99-2.02-1.27-.08-.19-.08-.38,0-.57.3-.75,1.42-.47,2.41-.22.12.03.24.06.35.09.35.08.78.2,1.25.33.79.22,1.68.47,2.46.61l.28.05c.66.12,1.55.29,1.78.19-.09-.09-.38-.28-1.34-.61l-.09-.03c-.97-.33-1.54-.48-2.19-.65-.52-.14-1.07-.28-1.89-.53-1.78-.58-2.91-1.13-2.68-1.99.23-.92,1.48-.65,2.69-.39.27.06.54.12.81.17,1.32.24,3.6.79,5.68,1.56.15.05.22.22.17.36-.05.15-.22.22-.36.17-2.04-.76-4.28-1.3-5.58-1.53-.27-.05-.55-.11-.83-.17-.86-.19-1.92-.42-2.02-.02-.1.34.68.78,2.3,1.31.81.25,1.35.39,1.86.52.64.17,1.24.32,2.23.66l.09.03c1.08.37,1.57.65,1.71.96.05.12.05.24,0,.35-.2.61-1.14.44-2.44.19l-.28-.05c-.8-.15-1.71-.4-2.51-.62-.46-.13-.89-.25-1.22-.33-.12-.03-.24-.06-.36-.09-.61-.15-1.63-.41-1.75-.1-.02.04-.03.07,0,.12.05.13.33.48,1.69.96.99.38,1.72.61,3.15,1.06,1.44.49,2.65.94,2.66.95.15.05.22.22.16.36-.04.11-.15.18-.26.18Z"/>
          </g>
          <path class="cls-13" d="m188.1,200.14s-7.54-11.66-10.31-14.89c-2.99-3.48-10.5-2.47-11.73,1.08-1.93,5.55,4.13,29.2,9.24,49.41,2.19.87,8.12-.25,9.94-2.1,0,0-1.31-29.22-4.38-38.8l7.24,5.3Z"/>
          <path class="cls-2" d="m168.45,170.33c-.27,0-.49,0-.66-.02-.5-.08-1.13-.27-1.42-.68-.25-.39-.23-.81-.21-1.19,0-.23.02-.45-.03-.62,0,0,0-.02,0-.03-.01-.08-.07-.18-.14-.28-.1-.17-.23-.37-.22-.63.01-.26.1-.46.18-.64.03-.06.06-.12.08-.19l.02-.43c0-.11-.04-.25-.09-.4-.09-.28-.2-.64-.02-1.01.12-.25.31-.43.48-.61.17-.16.32-.32.4-.51.08-.18.08-.36.09-.55.01-.33.02-.74.41-1.09.15-.14.55-.54,4.18-.01.41.06,3.98.62,4.75,2,.19.33.2.7.04,1.06-.06.14-.23.21-.37.15-.14-.06-.21-.23-.15-.37.09-.2.08-.38-.02-.56-.54-.97-3.31-1.56-4.34-1.71-3.31-.48-3.7-.15-3.72-.13-.21.19-.22.38-.23.7,0,.23-.02.48-.13.75-.11.29-.33.51-.52.7-.15.15-.29.29-.37.45-.08.16-.03.33.05.59.05.17.11.37.12.57l-.02.49s0,.05-.01.07c-.03.1-.07.19-.11.28-.07.15-.12.28-.13.44,0,.09.06.19.13.31.08.13.18.29.21.47.07.26.06.53.04.78-.01.32-.03.62.12.85.13.18.52.35,1.03.44.96.09,4.17-.12,6.23-.47.58-.11.86-.32.84-.47-.01-.09-.12-.21-.39-.27-.15-.03-.25-.18-.22-.34.03-.15.18-.25.34-.22.69.15.81.6.83.73.03.2.03.86-1.3,1.11-1.76.3-4.36.49-5.75.49Z"/>
          <path class="cls-2" d="m175.69,166.61c-.15,0-.27-.11-.28-.26-.01-.16.1-.29.26-.3h0s1.1-.1,1.1-.74c.01-.45-1.07-.61-2.02-.76-.29-.05-.58-.09-.87-.15-.25-.05-.5-.1-.77-.16-1.22-.26-2.6-.55-4.31-.41-.16.01-.29-.1-.3-.26-.01-.16.1-.29.26-.3,1.79-.14,3.28.17,4.47.43.26.06.52.11.76.16.28.05.57.1.85.14,1.3.2,2.53.39,2.5,1.33,0,.91-1.01,1.24-1.61,1.29,0,0-.02,0-.02,0Z"/>
          <path class="cls-2" d="m168.92,168.67c-.27,0-.44,0-.44,0-.16,0-.28-.13-.28-.29,0-.16.13-.29.28-.28.02,0,1.74.02,3.23-.06,1.46-.04,2.27-.07,3.32-.16,1.45-.1,1.81-.36,1.9-.47.03-.04.04-.07.03-.11-.04-.36-1.07-.72-2.16-.77-1.18-.17-6.14-.33-6.19-.33-.16,0-.28-.14-.27-.29,0-.16.14-.28.29-.27.21,0,5.04.17,6.23.34.08,0,2.55.13,2.67,1.26.03.18-.02.37-.15.53-.3.37-1.05.59-2.29.68-1.06.1-1.88.13-3.34.17-1.05.05-2.21.06-2.82.06Z"/>
          <path class="cls-2" d="m179.88,251.22c-1.65,0-3.79-.53-4.03-1.67-.14-.68.1-1.43.45-2.56.29-.92.64-2.06.93-3.6.18-.99.19-2.12.2-3.44,0-.76.01-1.55.05-2.42,0-.04.01-.08.03-.12.04-.08,1.05-2.02,2.85-2.19h0c.94-.09,1.57.26,2.13.57.46.25.82.46,1.28.38.13-.02.24.02.34.1.29.24.33.88.39,2.09.03.58.05,1.17.13,1.65.26,1.65.71,3.17,1.11,4.51.47,1.6.85,2.86.72,3.74-.22,1.5-3.84,2.85-6.08,2.94-.16.01-.32.02-.49.02Zm-1.84-13.59c-.04.83-.04,1.6-.05,2.33,0,1.34-.02,2.5-.21,3.54-.3,1.57-.66,2.73-.95,3.66-.33,1.05-.54,1.74-.43,2.27.15.72,2.14,1.33,3.94,1.2,2.16-.09,5.39-1.37,5.55-2.45.1-.76-.27-2.03-.71-3.5-.4-1.36-.86-2.9-1.13-4.58-.08-.51-.11-1.12-.13-1.71-.03-.56-.06-1.39-.17-1.64-.6.06-1.08-.2-1.54-.46-.51-.28-1.03-.57-1.8-.5-1.34.13-2.2,1.55-2.37,1.84Z"/>
          <path class="cls-2" d="m180.18,252.41c-2.08,0-4.07-.73-4.58-1.74-.28-.59.22-1.91.33-2.17.06-.14.22-.22.37-.16.14.06.22.22.16.37-.25.64-.46,1.47-.34,1.71.4.78,2.38,1.55,4.6,1.41,2.28-.15,5.54-1.61,5.71-2.57.14-.77-.38-1.96-.59-2.35-.07-.14-.02-.31.12-.38.14-.07.31-.02.38.12.03.06.84,1.59.65,2.71-.26,1.44-4.01,2.89-6.23,3.03-.19.01-.38.02-.56.02Z"/>
          <path class="cls-2" d="m179.2,239.91c-.11,0-.21-.06-.26-.16-.07-.14,0-.31.13-.38.82-.39,1.87-.73,3.5-.33.15.04.24.19.21.34-.04.15-.19.25-.34.21-1.46-.35-2.4-.05-3.13.3-.04.02-.08.03-.12.03Z"/>
          <path class="cls-2" d="m179.19,241.68c-.08,0-.16-.03-.21-.09-.08-.09-.09-.23-.03-.34.01-.02.06-.06.13-.1h0s.04-.02.06-.03c.51-.27,2.02-.76,3.51-.32.15.04.23.2.19.35-.04.15-.2.23-.35.19-1.51-.45-2.98.22-3.13.29,0,0-.02,0-.03.01-.04.02-.08.03-.13.03Z"/>
          <path class="cls-2" d="m179.18,243.36c-.1,0-.2-.06-.25-.16-.07-.14-.01-.31.13-.38.08-.04,1.91-.92,3.79-.32.15.05.23.21.18.36-.05.15-.21.23-.35.18-1.66-.53-3.36.28-3.37.29-.04.02-.08.03-.12.03Z"/>
          <path class="cls-13" d="m188.1,200.14s7.15-9.79,9.5-13.35c2.34-3.56,10.5-2.47,11.73,1.08,1.93,5.55-3.85,27.41-8.96,47.63-2.55,2.74-9.3,1.12-10.23-.32,0,0,1.31-29.22,4.38-38.8l-6.42,3.76Z"/>
          <path class="cls-2" d="m95.57,209.53c-.07,0-.15-.03-.2-.09-.11-.11-.1-.29,0-.4l10.75-10.33c.11-.11.29-.1.4,0,.11.11.1.29,0,.4l-10.75,10.33c-.05.05-.12.08-.2.08Z"/>
          <path class="cls-2" d="m227.45,209.53c-.07,0-.14-.03-.2-.08l-10.44-10.33c-.11-.11-.11-.29,0-.4.11-.11.29-.11.4,0l10.44,10.33c.11.11.11.29,0,.4-.06.06-.13.08-.2.08Z"/>
          <path class="cls-2" d="m94.85,195.12c-.09,0-.18-.04-.23-.12-.09-.13-.05-.3.07-.39l11.09-7.56c.13-.09.3-.05.39.07.09.13.05.3-.07.39l-11.09,7.56s-.1.05-.16.05Z"/>
          <path class="cls-2" d="m91.92,195.12c-.1,0-.19-.05-.24-.14-.08-.13-.04-.31.1-.39l13.99-8.45c.13-.08.31-.04.39.1.08.13.04.31-.1.39l-13.99,8.45s-.1.04-.15.04Z"/>
          <path class="cls-2" d="m228.18,195.12c-.05,0-.11-.02-.16-.05l-10.8-7.36c-.13-.09-.16-.26-.07-.39.09-.13.26-.16.39-.07l10.8,7.36c.13.09.16.26.07.39-.05.08-.14.12-.23.12Z"/>
          <path class="cls-2" d="m231.12,195.12s-.1-.01-.15-.04l-13.7-8.27c-.13-.08-.18-.25-.1-.39.08-.13.25-.18.39-.1l13.7,8.27c.13.08.18.25.1.39-.05.09-.15.14-.24.14Z"/>
          <path class="cls-2" d="m177.37,236.32c-.87,0-1.64-.1-2.17-.31-.08-.03-.15-.11-.17-.19l-.36-1.43c-5.05-19.99-10.78-42.65-8.87-48.14.55-1.58,2.29-2.8,4.66-3.25,3.01-.57,5.97.24,7.55,2.08,2.76,3.21,7.36,10.38,7.41,10.46.08.13.05.31-.09.39-.13.08-.31.05-.39-.09-.05-.07-4.63-7.22-7.36-10.39-1.45-1.68-4.2-2.43-7.02-1.89-2.17.41-3.75,1.49-4.24,2.88-1.86,5.34,3.85,27.91,8.89,47.82l.33,1.29c2.11.71,7.58-.27,9.42-2-.1-2.1-1.44-29.48-4.36-38.61-.05-.15.03-.31.18-.35.15-.05.31.03.35.18,3.05,9.51,4.38,38.59,4.39,38.88,0,.08-.03.15-.08.21-1.47,1.5-5.33,2.48-8.07,2.48Z"/>
          <path class="cls-2" d="m195.99,237.27c-.38,0-.74-.02-1.04-.05-2.27-.2-4.49-1.03-5.05-1.88-.03-.05-.05-.11-.05-.17.01-.29,1.35-29.36,4.39-38.88.05-.15.21-.23.35-.18.15.05.23.21.18.35-2.94,9.17-4.27,36.76-4.36,38.63.5.62,2.39,1.37,4.57,1.56,1.33.12,3.75.1,5.11-1.3.33-1.29.66-2.59.99-3.89,4.79-18.88,9.74-38.4,7.96-43.51-.52-1.5-2.51-2.68-5.06-3-2.73-.34-5.16.44-6.17,1.98-2.33,3.53-7.23,8.87-7.28,8.92-.1.12-.28.12-.4.02-.11-.11-.12-.28-.02-.4.05-.05,4.92-5.36,7.22-8.85,1.13-1.72,3.77-2.6,6.71-2.23,2.76.34,4.93,1.67,5.52,3.37,1.83,5.27-3.14,24.87-7.95,43.83-.34,1.32-.67,2.65-1,3.96-.01.05-.03.09-.07.12-1.2,1.29-3.12,1.57-4.59,1.57Z"/>
          <path class="cls-2" d="m186.72,206.69c-2.18,0-3.71-.16-3.74-.17-.15-.02-.27-.16-.25-.31.02-.15.15-.26.31-.25.05,0,4.82.52,9.53-.29.15-.03.3.08.33.23.03.15-.08.3-.23.33-2.11.36-4.23.46-5.95.46Z"/>
          <path class="cls-2" d="m166.56,181.24c-.93,0-1.88-.23-2.65-.68-2.43-1.42-3.41-5.74-2.61-8.38.26-.84.89-4.06,1.63-7.78,1.94-9.85,3.63-18.09,4.53-19.2,1.67-2.05,11.94-4.33,12.38-4.43.15-.03.3.06.34.21.03.15-.06.3-.21.34-3.63.8-10.82,2.71-12.06,4.24-.89,1.09-3.01,11.84-4.42,18.95-.77,3.89-1.38,6.97-1.64,7.84-.74,2.43.2,6.48,2.36,7.73,1.13.66,2.71.8,3.91.33.58-.22,1.34-.68,1.64-1.62.28-.87.52-3.28.6-4.17-.62.03-1.95-.03-3.17-.94-1.17-.88-1.93-2.3-2.25-4.23l-1.82,2c-.1.12-.28.12-.4.02-.12-.1-.12-.28-.02-.4l2.22-2.44c.07-.08.19-.11.3-.08.11.03.18.13.19.24.24,2.08.95,3.57,2.1,4.44,1.43,1.07,3.08.8,3.1.8.09-.01.17.01.24.07.06.06.1.14.09.23-.01.14-.29,3.51-.66,4.63-.29.91-.98,1.6-1.97,1.98-.54.21-1.14.31-1.75.31Z"/>
          <path class="cls-2" d="m209.72,182.62c-3.64,0-6.23-4.33-6.35-4.53-.05-.09-.05-.21,0-.3.06-.09.16-.14.27-.13.19.02,4.7.43,5.54-5.52.01-.1.08-.19.18-.22.09-.04.2-.02.28.04l2.59,2.11c.12.1.14.28.04.4-.1.12-.28.14-.4.04l-2.21-1.8c-.88,4.78-4.2,5.44-5.53,5.51.83,1.21,3.44,4.5,6.6,3.7,2.25-.57,2.81-4.84,2.48-7.68-.44-3.87-4.06-25.24-5.34-26.9-1.2-1.55-8.34-3.66-11.95-4.55-.15-.04-.24-.19-.21-.34.04-.15.19-.24.34-.21.43.11,10.64,2.66,12.26,4.76,1.45,1.88,5.08,23.84,5.45,27.18.32,2.84-.18,7.6-2.91,8.29-.39.1-.78.15-1.15.15Z"/>
          <path class="cls-2" d="m165.23,169.48s-.09-.01-.13-.03c-.14-.07-.19-.24-.12-.38l.98-1.89c.07-.14.24-.19.38-.12.14.07.19.24.12.38l-.98,1.89c-.05.1-.15.15-.25.15Z"/>
          <path class="cls-2" d="m183.68,177.19s0,0-.01,0c-.16,0-.28-.14-.27-.29l.74-20.95c0-.16.15-.28.29-.27.16,0,.28.14.27.29l-.74,20.95c0,.15-.13.27-.28.27Z"/>
          <path class="cls-2" d="m185.76,177.19s0,0,0,0c-.16,0-.28-.14-.27-.29l.65-20.95c0-.16.13-.28.29-.27.16,0,.28.14.27.29l-.65,20.95c0,.15-.13.27-.28.27Z"/>
          <path class="cls-2" d="m185.09,155.17c-.07,0-.13-.02-.18-.07-3.45-2.96-11.07-3.8-14.32-4.16-.56-.06-1.01-.11-1.3-.16l-1.17.23c-.15.03-.3-.07-.33-.22-.03-.15.07-.3.22-.33l1.22-.24s.07,0,.1,0c.27.04.74.1,1.32.16,3.26.36,10.85,1.2,14.49,4.18,1.23-.5,9.21-3.5,17.42-1.73.06.01.12.05.16.1l.62.75c.1.12.08.3-.04.4-.12.1-.3.08-.4-.04l-.56-.67c-8.66-1.83-17.06,1.75-17.14,1.79-.04.02-.07.02-.11.02Z"/>
          <path class="cls-2" d="m181.6,153.2s-.08,0-.12-.03c-3.89-1.79-9.61-3.32-11.07-3.7v1.02c0,.16-.13.28-.28.28s-.28-.13-.28-.28v-1.39c0-.09.04-.17.11-.22.07-.05.16-.07.24-.05.07.02,6.99,1.75,11.52,3.83.14.06.2.23.14.37-.05.1-.15.16-.26.16Z"/>
          <path class="cls-2" d="m170.13,149.39c-.12,0-.23-.08-.27-.2-.78-2.64-2-3.96-2.01-3.97-.11-.11-.1-.29.01-.4.11-.11.29-.1.4.01.05.06,1.32,1.42,2.15,4.2.04.15-.04.31-.19.35-.03,0-.05.01-.08.01Z"/>
          <path class="cls-2" d="m204.79,178.16c-.08,0-.15-.03-.21-.09l-1.33-1.45c-2.33-.55-3.11-2.38-3.14-2.46-.06-.14,0-.31.15-.37.14-.06.31,0,.37.15.03.07.73,1.69,2.83,2.14.06.01.11.04.15.08l1.39,1.51c.11.11.1.29-.02.4-.05.05-.12.07-.19.07Z"/>
          <path class="cls-2" d="m203.6,154.34s-.04,0-.06,0c-.15-.03-.25-.18-.21-.34,1-4.47,2.97-6.57,4.06-7.43.01-.01.02-.02.03-.03.09-.11.26-.13.38-.04.07.05.12.13.12.22,0,.14-.09.22-.18.29-.83.65-2.86,2.66-3.86,7.11-.03.13-.15.22-.27.22Z"/>
          <path class="cls-2" d="m187.8,153.3c-.27,0-.54-.02-.82-.05-6.65-.85-10.41-10.9-10.57-11.32-.05-.15.02-.31.17-.36.15-.05.31.02.36.17.04.1,3.8,10.15,10.11,10.96,6.29.8,12.48-9.16,12.54-9.26.08-.13.26-.17.39-.09.13.08.17.25.09.39-.25.41-5.94,9.58-12.27,9.58Z"/>
          <path class="cls-2" d="m172.28,149.97c-.12,0-.24-.08-.27-.21-.78-2.77-2.13-5.7-2.14-5.73-.07-.14,0-.31.14-.37.14-.07.31,0,.37.14.01.03,1.38,3.01,2.17,5.82.04.15-.05.31-.2.35-.03,0-.05.01-.08.01Z"/>
          <path class="cls-2" d="m187.9,150.79c-.13,0-.26,0-.39-.01-5.93-.35-8.73-9.06-8.85-9.43-.05-.15.04-.31.18-.35.15-.05.31.04.35.18.03.09,2.8,8.71,8.35,9.04,5.56.33,9.59-7.37,9.63-7.45.07-.14.24-.19.38-.12.14.07.19.24.12.38-.17.32-4.06,7.77-9.77,7.77Z"/>
          <path class="cls-2" d="m201.9,153.2s-.03,0-.05,0c-.15-.03-.25-.18-.23-.33.69-3.64,3.43-6.77,4.26-7.2.06-.03.25-.13.43-.04.14.07.2.23.14.38-.05.11-.17.18-.29.16-.55.21-3.31,3.24-3.98,6.81-.03.14-.14.23-.28.23Z"/>
          <path class="cls-2" d="m170.77,183.52c-.15,0-.28-.12-.28-.28l-.16-10.47c0-.16.12-.28.28-.29h0c.15,0,.28.12.28.28l.16,10.47c0,.16-.12.28-.28.29h0Z"/>
          <path class="cls-2" d="m203.6,184.89c-.15,0-.28-.12-.28-.27-.08-2.32-.47-8.24-.48-8.3-.01-.16.11-.29.26-.3.15-.01.29.11.3.26,0,.06.4,5.99.48,8.32,0,.16-.12.29-.27.29,0,0,0,0,0,0Z"/>
          <path class="cls-2" d="m188.82,191.26c-3.5,0-6.85-.3-7.08-.32-.15-.01-.27-.15-.26-.31.01-.15.15-.27.31-.26.09,0,9.33.83,13.23-.23.15-.04.31.05.35.2.04.15-.05.31-.2.35-1.6.44-4.01.57-6.35.57Z"/>
          <g>
            <path class="cls-6" d="m137.45,233.57c.04,1.8-.09,2.28-.13,3.81-.04,1.53-.66,4.03-.79,4.64-1.23,6.22-3.59,6.92-3.55,8.5.04,1.1,2.23,2.06,4.03,2.19,1.8.13,5.61-.79,5.92-2.02.18-.66.09-1.1,0-2.19-.18-1.67-.44-4.29-.53-6.49-.04-1.49-.18-5.78.13-8.68l-5.08.22Z"/>
            <path class="cls-13" d="m142.62,245.7c-.74,2.28-3.15,3.55-4.95,3.59-1.14.04-2.28-1.05-2.76-2.23l-1.93,3.07s-.53,1.05-.35,1.62c.31,1.05,2.59,1.88,4.34,2.02,1.8.13,6-.88,6.31-2.1.18-.66-.18-2.19-.18-2.19l-.48-3.77Z"/>
            <path class="cls-2" d="m137.34,253.01c-.13,0-.24,0-.35-.01-1.72-.13-4.24-1.07-4.29-2.46-.02-.69.34-1.21.84-1.93.78-1.12,1.96-2.82,2.71-6.64.02-.09.05-.21.08-.35.2-.88.67-2.95.7-4.24.02-.58.05-1.01.07-1.42.05-.68.09-1.27.06-2.38,0-.16.12-.28.28-.29.15,0,.29.12.29.28.03,1.14-.01,1.76-.06,2.43-.03.41-.06.83-.07,1.4-.04,1.35-.5,3.38-.72,4.35-.03.14-.06.26-.08.34-.77,3.93-2,5.68-2.8,6.85-.45.65-.75,1.08-.74,1.59.03.81,1.94,1.78,3.77,1.92,1.88.14,5.39-.86,5.62-1.8.13-.5.1-.86.04-1.59-.01-.15-.03-.32-.04-.51-.18-1.75-.44-4.33-.53-6.5v-.06c-.05-1.58-.17-5.78.13-8.66.02-.16.16-.27.31-.25.15.02.27.16.25.31-.3,2.84-.18,7.01-.13,8.58v.06c.09,2.14.34,4.72.53,6.46.02.19.03.36.04.52.07.76.11,1.19-.05,1.78-.35,1.42-4.03,2.24-5.86,2.24Z"/>
            <path class="cls-2" d="m137.28,254.06c-.12,0-.23,0-.33-.01-1.63-.12-4.21-.91-4.59-2.22-.2-.65.31-1.71.37-1.83.07-.14.24-.2.38-.13.14.07.2.24.13.38-.18.37-.44,1.08-.33,1.41.26.89,2.37,1.69,4.09,1.82,1.93.14,5.78-.95,6.02-1.89.13-.49-.08-1.65-.18-2.06-.03-.15.06-.3.21-.34.15-.04.3.06.34.21.04.16.36,1.62.17,2.33-.36,1.43-4.4,2.32-6.27,2.32Z"/>
            <path class="cls-2" d="m137.6,249.58c-1.29,0-2.46-1.2-2.95-2.41-.06-.14.01-.31.15-.37.14-.06.31.01.37.15.42,1.04,1.48,2.09,2.49,2.06,1.78-.04,4.02-1.33,4.69-3.4.05-.15.21-.23.36-.18.15.05.23.21.18.36-.78,2.4-3.27,3.74-5.21,3.79-.03,0-.05,0-.08,0Z"/>
            <path class="cls-6" d="m147.14,223.44s.09,2.28.26,4.12c.18,1.84.66,3.68.79,4.25,1.23,6.22,3.59,6.92,3.55,8.5-.04,1.1-2.23,2.06-4.03,2.19-1.8.13-5.61-.79-5.92-2.02-.18-.66-.09-1.1,0-2.19.18-1.67.44-4.29.53-6.49.04-1.49.18-5.78-.13-8.68l4.95.31Z"/>
            <path class="cls-13" d="m149.9,237.24c-.44.96-1.75,2.15-2.85,2.24-1.93.13-4.16-1.1-4.91-3.37l-.53,3.16s-.35,1.53-.18,2.19c.31,1.23,4.56,2.23,6.31,2.1,1.75-.13,4.03-.96,4.34-2.02.18-.57-.35-1.62-.35-1.62l-1.84-2.67Z"/>
            <polygon class="cls-10" points="116.03 194.47 114.75 203.42 119.03 200.19 119.3 194.14 116.03 194.47"/>
            <path class="cls-12" d="m131.4,196.68s-1.71.13-2.82,2.24c-1.11,2.11,0,38.88,0,38.88,0,0,8.78,1.92,13.27,0l1.18-10.88-11.62-30.24Z"/>
            <path class="cls-10" d="m153.46,185.13s3.34,9.9,3.56,18.56c0,0-2.23,1.29-5.51.7l1.95-19.27Z"/>
            <path class="cls-13" d="m127.03,144.43l1.63,29.7s22.62-.3,22.62-.52-1.19-28.32-1.19-28.32l-12.55-1.79-10.51.93Z"/>
            <path class="cls-12" d="m152.65,185.25c4,16.74-2.75,20.85-2.75,20.85l-21.32,2.04c-4.97-.61-8.31-3.05-9.88-5.87-3.03-5.44-.89-12.57-.89-12.57l4.66-4.19,30.19-.26Z"/>
            <path class="cls-10" d="m149.74,179.7s1.28.16,1,2.64c-.23,1.99-1.22,3.05-2.84,3.35,0,0,7.27,0,8.9-2.15,1.86-2.45,3.11-27.77-1.05-34.61-1.76-2.9-10.05-5.08-10.05-5.08l1.78,25.95,2.27,9.9Z"/>
            <path class="cls-10" d="m125.69,186.14c-4.22-.3-12.11-3.82-13.55-7.18-1.78-4.15,2.99-26.3,5.22-29.48,2.89-4.11,13.22-5.63,13.22-5.63,0,0,2.56,10.64,1.11,25.58l-1.76,13.81-4.24,2.9Z"/>
            <polygon class="cls-1" points="129.93 183.24 124.03 183.24 122.46 171.79 139.01 173.64 140.79 173.64 156.41 170.59 153.92 181.11 150.65 180.71 129.93 183.24"/>
            <path class="cls-4" d="m123.54,171.79v-1.15s10.59-3.48,16.89,1.55c0,0,3.48-1.92,7.78-2.5,4.3-.58,7.18,0,7.18,0l.44.57-.96.63-14.08,2.75-17.25-1.85Z"/>
            <path class="cls-2" d="m139.01,178.95c-.16,0-.28-.13-.28-.28v-5.03c0-.16.13-.28.28-.28s.28.13.28.28v5.03c0,.16-.13.28-.28.28Z"/>
            <path class="cls-6" d="m149.9,181.11c-.22-1.17-.34-4.68-.59-6.11-.16-.91-.11-2.24-.99-1.82-.88.42-1.19,5.42-1.19,5.42l2.77,2.52Z"/>
            <path class="cls-6" d="m131.14,144.37s1.83,10.83,7.55,11.28c5.72.44,7.19-9.39,7.19-9.39l-.19-1.89c-4.96-1.61-9.81-1.53-14.55,0Z"/>
            <g>
              <path class="cls-7" d="m131.39,120.41c.88-.83,2.15-.79,3.02-1.01,1.05-.31,1.88-.53,3.29-1.01.31-.09,2.89-.53,4.95.57,2.32,1.23,4.64,4.38,4.64,4.38,0,0,1.53,2.23,2.63,4.91.79,1.97,1.18,4.43,1.31,5.17.31,1.8-1.93,3.59-2.5,5.17-.18.44.26.96.04,1.18-.48.44-1.36-.39-1.36-.39,0,0-1.01,1.4-2.19,2.02s-2.59.39-2.59.39l-9.42.18s-1.45-.04-2.45-.88c-.44-.35-.57-1.27-.79-.96-.48.66-1.14.53-1.14.53,0,0,0-.83-.31-1.1-.66-.48-1.4-.74-1.93-1.23-.83-.74-.88-1.62-1.01-2.02-.57-1.4-1.31-2.76-.53-4.73.18-.48,1.18-2.19,2.32-4.43,1.23-2.45,2.54-5.39,3.99-6.75Z"/>
              <path class="cls-5" d="m129.16,134.96s.26-.57.79-1.1c.83-.83,1.14-.83,2.45-2.89.74-1.14,1.45-3.77,2.41-5,.53-.61,2.06-1.23,2.89-1.31.96-.09,2.1.18,2.85.96.74.74,1.01,2.15,1.1,2.89.13,1.05.88,2.37.88,2.37,0,0,.7,1.05,1.18,1.58,1.4,1.49,2.63,2.63,2.63,2.63,0,0,.31.26-.18.74-.53.44-1.18.48-1.18.48,0,0-.22,1.45-.83,2.63-.61,1.18-1.58,2.15-1.58,2.15,0,0-.22,3.94.66,4.73,1.36,1.18-11.96.74-10.6.04,1.05-.53.79-5,.79-5,0,0-.79-.74-1.31-1.93-.53-1.18-.75-2.54-.75-2.54l-1.14-.44-1.05-1.01Z"/>
              <path class="cls-2" d="m138.14,143.48s0,0,0,0c-.06,0-1.6-.06-3.79-1.54-1.48-.98-2-2.03-2.31-2.65l-.02-.04c-.45-.9-.82-2.09-1.16-3.75-.03-.15.07-.3.22-.33.15-.03.3.07.33.22.33,1.61.69,2.76,1.12,3.61l.02.04c.31.61.77,1.53,2.12,2.44,2.04,1.38,3.48,1.44,3.49,1.44.16,0,.28.14.27.29,0,.15-.13.27-.28.27Z"/>
              <path class="cls-2" d="m138.19,143.48c-.16,0-.28-.13-.28-.28s.13-.28.28-.28c.02,0,1.24-.03,3.27-1.36,1.46-.98,2.1-2.02,2.35-2.56.43-.86.79-2.01,1.12-3.62.03-.15.18-.25.33-.22.15.03.25.18.22.33-.34,1.66-.71,2.85-1.16,3.75-.27.58-.97,1.73-2.55,2.78-2.19,1.43-3.52,1.45-3.57,1.45Z"/>
              <path class="cls-2" d="m131.18,136.64s-.03,0-.04,0c-.67-.1-1.58-.67-2.09-1.69-.07-.14-.01-.31.13-.38.14-.07.31-.01.38.13.42.84,1.14,1.3,1.67,1.38.15.02.26.17.24.32-.02.14-.14.24-.28.24Z"/>
              <path class="cls-2" d="m130.61,134.58c-.09,0-.18-.04-.23-.13,0,0-.26-.39-.39-.56-.09-.12-.07-.3.06-.39.12-.09.3-.07.39.06.13.18.39.57.4.58.09.13.05.3-.08.39-.05.03-.1.05-.16.05Z"/>
              <path class="cls-2" d="m145.11,136.64c-.14,0-.26-.11-.28-.25-.02-.15.09-.29.25-.31.28-.03.76-.23,1.18-.7.1-.11.28-.12.4-.02.12.1.12.28.02.4-.45.49-1.02.82-1.54.88-.01,0-.02,0-.03,0Z"/>
              <path class="cls-2" d="m138.23,137.73c-.07,0-.13-.02-.18-.07-.12-.1-.13-.28-.03-.4.34-.4.39-.58.38-.66,0-.09-.1-.18-.26-.31-.22-.19-.51-.44-.62-.89-.24-.92.31-2.35.55-2.82.07-.14.24-.2.38-.13s.2.24.13.38c-.24.49-.69,1.73-.51,2.43.06.27.24.43.43.59.2.17.44.37.46.7.02.3-.14.63-.52,1.07-.06.06-.13.1-.21.1Z"/>
              <path class="cls-2" d="m138.17,139.93c-.89,0-1.76-.29-2.29-.79-.11-.11-.12-.29,0-.4.11-.11.29-.12.4,0,.81.77,2.76.9,3.73,0,.11-.11.29-.1.4.01.11.11.1.29-.01.4-.58.55-1.41.79-2.22.79Z"/>
              <path class="cls-2" d="m133.59,130.97c-.09,0-.18-.04-.23-.12-.09-.13-.06-.3.07-.39.04-.03,1.06-.74,2.42-.16.14.06.21.23.15.37-.06.14-.23.21-.37.15-1.06-.45-1.84.08-1.87.1-.05.03-.11.05-.16.05Z"/>
              <path class="cls-2" d="m142.35,130.93c-.06,0-.11-.02-.16-.05h0s-.81-.55-1.87-.06c-.14.07-.31,0-.37-.14-.07-.14,0-.31.14-.37,1.36-.63,2.39.08,2.43.11.13.09.16.27.07.39-.06.08-.14.12-.23.12Z"/>
              <path class="cls-3" d="m133.32,140.96s2.59,2.15,4.86,2.19c1.75.04,4.25-1.97,4.25-1.97,0,0-2.23,2.65-4.56,3-2.02.31-4.43-1.2-4.43-1.2l-.13-2.02Z"/>
              <path class="cls-2" d="m133.28,144.92s-.04,0-.06,0c-.15-.03-.25-.18-.22-.33.25-1.17.04-3.7.04-3.73-.01-.16.1-.29.26-.3.15-.02.29.1.3.26,0,.11.22,2.64-.05,3.9-.03.13-.15.22-.28.22Z"/>
              <path class="cls-2" d="m142.79,145.05c-.13,0-.25-.09-.28-.22-.27-1.25-.1-3.83-.09-3.93.01-.16.14-.28.3-.26.16.01.27.14.26.3,0,.03-.17,2.6.08,3.78.03.15-.06.3-.22.33-.02,0-.04,0-.06,0Z"/>
              <path class="cls-2" d="m129.38,136.95c-.08,0-.16-.04-.22-.1-1.17-1.43.17-2.79,1.34-3.99.4-.41.78-.8,1.06-1.18,1.03-1.35,1.53-2.69,1.93-3.76.49-1.32.88-2.37,1.97-2.74.15-.05.31.03.36.18.05.15-.03.31-.18.36-.84.29-1.17,1.17-1.63,2.4-.41,1.11-.93,2.49-2.01,3.9-.3.41-.71.83-1.11,1.23-1.3,1.33-2.1,2.27-1.31,3.24.1.12.08.3-.04.4-.05.04-.12.06-.18.06Z"/>
              <path class="cls-2" d="m146.47,137.82s-.08,0-.12-.03c-.14-.07-.2-.23-.14-.37.68-1.47-.18-2.29-1.48-3.55-.71-.69-1.52-1.46-2.18-2.49-.6-.92-.85-1.83-1.1-2.71-.2-.72-.39-1.39-.75-2.04-.53-.98-1.58-1.91-2.75-1.79-.34.04-.69.18-1.01.39-.13.09-.3.05-.39-.08-.09-.13-.05-.3.08-.39.39-.26.83-.43,1.26-.48,1.43-.15,2.69.93,3.31,2.07.39.7.6,1.44.8,2.16.24.84.48,1.71,1.03,2.55.63.97,1.41,1.73,2.1,2.39,1.32,1.27,2.45,2.36,1.6,4.19-.05.1-.15.16-.26.16Z"/>
              <path class="cls-2" d="m125.61,136.16c-.1,0-.19-.05-.24-.14-1.61-2.77-.34-5.01,1.13-7.61.34-.6.69-1.21,1.01-1.86.28-.56.53-1.12.78-1.67,1.33-2.9,2.48-5.41,5.34-5.41.16,0,.28.13.28.28s-.13.28-.28.28c-2.5,0-3.52,2.24-4.83,5.08-.25.55-.51,1.12-.79,1.69-.34.66-.69,1.29-1.03,1.89-1.44,2.55-2.57,4.56-1.13,7.05.08.13.03.31-.1.39-.04.03-.09.04-.14.04Z"/>
              <path class="cls-2" d="m149.05,140.1c-.1,0-.19-.05-.24-.14-.67-1.13-.06-1.9.65-2.79.47-.59,1-1.25,1.34-2.18.58-1.61-.17-5.05-1.83-8.37-1.76-3.42-4-5.97-5.04-6.69-3.4-2.36-6.49-1.28-8.03-.42-.14.08-.31.03-.38-.11-.08-.14-.03-.31.11-.38,1.65-.92,4.97-2.08,8.62.45,1.28.89,3.58,3.71,5.22,6.9,1.75,3.5,2.49,7.04,1.85,8.81-.37,1.02-.96,1.76-1.43,2.35-.73.91-1.06,1.39-.61,2.15.08.13.04.31-.1.39-.05.03-.09.04-.14.04Z"/>
              <path class="cls-2" d="m132.14,141.94s-.04,0-.06,0c-1.64-.35-2.32-1.85-2.45-2.59-.03-.15.08-.3.23-.33.15-.03.3.08.33.23.11.62.67,1.85,2.02,2.14.15.03.25.18.22.33-.03.13-.15.22-.28.22Z"/>
              <path class="cls-2" d="m135.38,124.02c-.09,0-.18-.04-.23-.13-.33-.5-.45-1.8.12-2.79.08-.14.25-.18.38-.1.14.08.18.25.1.38-.46.81-.35,1.88-.14,2.2.09.13.05.3-.08.39-.05.03-.1.05-.16.05Z"/>
              <path class="cls-2" d="m143.93,141.99c-.16,0-.28-.13-.28-.28s.13-.28.28-.28c1.77,0,3.07-1.42,3.23-2.43.02-.15.17-.26.32-.24.15.02.26.17.24.32-.18,1.19-1.64,2.91-3.78,2.91Z"/>
              <path class="cls-2" d="m128.85,140.85s-.01,0-.02,0c-.16,0-.27-.14-.26-.3.06-.92-.47-1.17-1.19-1.51-.72-.34-1.61-.76-1.78-2.03-.02-.15.09-.3.24-.32.15-.02.3.09.32.24.13.97.78,1.28,1.47,1.6.75.35,1.59.75,1.52,2.05,0,.15-.13.27-.28.27Z"/>
              <g>
                <path class="cls-2" d="m134.4,134.09c-.32,0-.62-.06-.9-.19-.14-.07-.2-.23-.14-.37.07-.14.23-.2.37-.14.47.21,1.02.18,1.64-.09.14-.06.31,0,.37.14.06.14,0,.31-.14.37-.42.19-.83.28-1.2.28Z"/>
                <path class="cls-3" d="m133.96,133.92c-.02-.45.28-.16.63-.2.35-.04.63-.38.65.07.02.45-.21.82-.56.85-.39.05-.7-.28-.71-.73Z"/>
              </g>
              <g>
                <path class="cls-2" d="m141.43,134.08c-.38,0-.78-.09-1.2-.28-.14-.06-.21-.23-.14-.37.06-.14.23-.21.37-.14.62.27,1.17.3,1.64.09.14-.06.31,0,.37.14.07.14,0,.31-.14.37-.28.13-.58.19-.9.19Z"/>
                <path class="cls-3" d="m141.88,133.91c.02-.45-.28-.16-.63-.2-.35-.04-.63-.38-.65.07-.02.45.21.82.56.85.39.05.7-.28.72-.73Z"/>
              </g>
              <path class="cls-2" d="m134.56,139.55c-.09,0-.17-.04-.23-.12-.09-.13-.06-.3.07-.39.88-.63,1.07-1.9,1.07-1.91.02-.15.16-.26.32-.24.15.02.26.16.24.32,0,.06-.22,1.52-1.3,2.29-.05.04-.11.05-.16.05Z"/>
              <path class="cls-2" d="m141.67,139.55c-.06,0-.11-.02-.16-.05-1.09-.78-1.29-2.23-1.3-2.29-.02-.15.09-.3.24-.32.15-.02.3.09.32.24,0,.01.19,1.28,1.07,1.91.13.09.16.27.07.39-.06.08-.14.12-.23.12Z"/>
              <g>
                <path class="cls-2" d="m132.14,134.38c-.14,0-.26-.1-.28-.25-.02-.15.09-.3.25-.31l.72-.09c.15-.02.3.09.31.25.02.15-.09.3-.25.31l-.72.09s-.02,0-.03,0Z"/>
                <path class="cls-2" d="m132.5,135.11c-.11,0-.22-.07-.26-.18-.06-.14.01-.31.16-.37l.82-.33c.15-.06.31.01.37.16.06.14-.01.31-.16.37l-.82.33s-.07.02-.1.02Z"/>
              </g>
              <g>
                <path class="cls-2" d="m143.93,134.38s-.02,0-.03,0l-.72-.09c-.15-.02-.26-.16-.25-.31.02-.15.16-.26.31-.25l.72.09c.15.02.26.16.25.31-.02.14-.14.25-.28.25Z"/>
                <path class="cls-2" d="m143.57,135.11s-.07,0-.1-.02l-.82-.33c-.14-.06-.22-.22-.16-.37.06-.14.22-.21.37-.16l.82.33c.14.06.22.22.16.37-.04.11-.15.18-.26.18Z"/>
              </g>
            </g>
            <path class="cls-6" d="m144.8,179.11s-4.15-2.69-6.73-4.36c-1.33-.86-1.91-.39-1.35.5.4.63,5.61,4.63,5.35,4.95-.26.32-1.48-.61-4.24-2.23-.84-.5-3.77-2.32-4.24-1.66-.5.68,1.39,1.76,3.19,2.95.72.48,3.99,2.34,3.74,2.6-.14.19-3.97-2.56-6.64-3.71-.87-.38-1.57.23-.33,1.2,2.38,1.86,6.08,3.97,6.03,4.62-.02.38-3.2-.86-5.26-1.32-.67-.15-1.32.38-.14,1.08.93.55,3.28,1.39,5.16,2.21,3.37.2,5.6,1.16,9.33-.99,0,0,1.73.4,2.05-2.61.32-3.01-2.94-4.4-2.94-4.4l-3,1.17Z"/>
            <path class="cls-2" d="m127.91,208.33s-.02,0-.03,0c-3.99-.49-6.95-2.12-8.79-4.85-3.73-5.52-1.65-13.51-1.55-13.85.04-.15.2-.24.35-.2.15.04.24.19.2.35-.02.08-2.11,8.08,1.48,13.39,1.75,2.59,4.57,4.14,8.39,4.61.15.02.26.16.25.31-.02.14-.14.25-.28.25Z"/>
            <path class="cls-2" d="m147.38,242.79c-1.83,0-5.5-.82-5.86-2.24-.16-.59-.12-1.01-.05-1.77.01-.15.03-.32.04-.51.18-1.76.44-4.33.53-6.47v-.05c.05-1.57.17-5.74-.13-8.58-.02-.15.1-.29.25-.31.15-.02.29.1.31.25.3,2.88.18,7.08.13,8.66v.06c-.09,2.17-.34,4.75-.53,6.51-.01.18-.03.35-.04.51-.06.72-.1,1.09.04,1.58.24.94,3.74,1.94,5.62,1.81,1.83-.13,3.74-1.1,3.77-1.92.01-.5-.29-.93-.74-1.58-.81-1.16-2.03-2.92-2.8-6.85l-.06-.26c-.19-.77-.57-2.39-.73-4.01-.17-1.83-.26-4.11-.26-4.14,0-.16.12-.29.27-.29.16-.01.29.12.29.27,0,.02.09,2.29.26,4.1.15,1.59.53,3.17.72,3.93l.07.28c.75,3.82,1.93,5.52,2.72,6.65.5.72.86,1.24.84,1.93-.06,1.39-2.57,2.34-4.29,2.46-.11,0-.22.01-.35.01Z"/>
            <path class="cls-10" d="m118.09,183.8s-6.84,8.11-7.39,17.56c0,2.11,2.63,3.95,4.78,4.74,0,0,.33-14.23,6.99-20.59l-4.37-1.7Z"/>
            <path class="cls-2" d="m147.46,243.84c-1.83,0-5.94-.91-6.29-2.33-.19-.7.14-2.16.17-2.32.03-.15.19-.25.34-.21.15.03.25.19.21.34-.09.41-.31,1.57-.18,2.06.23.93,4.14,2.03,6.02,1.9,1.72-.13,3.83-.93,4.09-1.81.1-.34-.15-1.05-.33-1.42-.07-.14-.01-.31.13-.38.14-.07.31-.01.38.13.06.12.57,1.17.37,1.83-.38,1.3-2.96,2.09-4.59,2.21-.09,0-.2.01-.31.01Z"/>
            <path class="cls-2" d="m146.77,239.77c-1.9,0-4.11-1.19-4.9-3.58-.05-.15.03-.31.18-.36.15-.05.31.03.36.18.73,2.22,2.92,3.3,4.62,3.18.97-.08,2.2-1.18,2.61-2.07.06-.14.23-.2.37-.14.14.06.2.23.14.37-.48,1.06-1.86,2.3-3.08,2.4-.1,0-.2.01-.3.01Z"/>
            <path class="cls-2" d="m149.9,181.39c-.13,0-.25-.09-.28-.23-.11-.59-.2-1.74-.29-2.95-.09-1.21-.18-2.46-.31-3.17-.03-.17-.05-.36-.07-.54-.05-.41-.12-1.02-.29-1.12-.04-.02-.12,0-.23.04-.44.21-.88,2.85-1.03,5.18,0,.16-.15.27-.3.26-.16,0-.27-.14-.26-.3.07-1.21.39-5.2,1.35-5.65.28-.13.53-.14.74-.03.42.23.5.87.58,1.54.02.18.04.35.07.51.13.74.22,2,.31,3.23.09,1.19.17,2.32.28,2.88.03.15-.07.3-.22.33-.02,0-.04,0-.05,0Z"/>
            <path class="cls-2" d="m143.86,186.61c-.83,0-1.65-.09-2.5-.19-.64-.07-1.31-.15-2.03-.19-.03,0-.07,0-.1-.02-.72-.32-1.5-.63-2.26-.93-1.21-.48-2.35-.94-2.94-1.3-.86-.51-.84-.96-.75-1.18.14-.35.6-.52,1.1-.41.85.19,1.89.51,2.8.79.68.21,1.49.46,1.94.55-.46-.47-1.75-1.34-2.82-2.07-1-.68-2.04-1.39-2.93-2.08-.97-.76-.81-1.29-.69-1.48.22-.36.75-.44,1.31-.2.22.09.44.2.67.31-.84-.59-1.34-1.06-1.43-1.52-.04-.2,0-.38.12-.54.42-.6,1.67-.18,4.44,1.49l.16.1c.76.45,1.42.85,1.94,1.17.59.36,1.13.69,1.5.89-.6-.58-1.75-1.56-2.59-2.26-1.34-1.13-2.17-1.84-2.36-2.13-.45-.71-.21-1.07-.08-1.2.34-.33,1-.22,1.82.31,2.58,1.68,6.73,4.36,6.73,4.36l-.31.47s-4.15-2.69-6.73-4.36c-.69-.45-1.06-.44-1.12-.39-.02.02-.03.19.16.49.15.23,1.26,1.17,2.25,2,3.16,2.67,3.36,2.94,3.09,3.28-.34.43-.93.07-2.66-1-.53-.32-1.18-.72-1.94-1.17l-.17-.1c-3.16-1.9-3.63-1.7-3.69-1.64-.03.04-.03.07-.03.11.08.46,1.35,1.28,2.47,2,.22.15.45.29.68.44.17.11.47.29.83.51,2.38,1.44,3,1.9,3.05,2.24.01.09-.01.19-.07.26-.21.28-.41.16-2.2-.95-1.38-.86-3.27-2.03-4.77-2.68-.32-.14-.56-.09-.6-.03-.04.07.05.35.56.74.87.68,1.9,1.38,2.9,2.06,2.38,1.62,3.28,2.28,3.24,2.81,0,.1-.06.19-.14.25-.26.18-.78.05-2.7-.54-.91-.28-1.93-.59-2.76-.77-.25-.06-.43.03-.45.07,0,.02.05.21.51.49.55.33,1.67.78,2.86,1.26.74.3,1.51.61,2.23.92.71.04,1.37.12,2.01.19,2.38.27,4.26.49,7.12-1.15.14-.08.31-.03.39.1.08.14.03.31-.1.39-1.93,1.11-3.47,1.41-4.96,1.41Z"/>
            <path class="cls-2" d="m136.39,238.94c-3.85,0-7.63-.82-7.87-.87-.13-.03-.22-.14-.22-.27-.11-3.77-1.08-36.9.03-39.02,1.17-2.22,2.97-2.39,3.05-2.39.16-.01.29.1.3.26.01.16-.1.29-.26.3-.07,0-1.58.16-2.6,2.09-.88,1.67-.28,28.15.03,38.51,1.37.27,8.91,1.67,12.88-.03.14-.06.31,0,.37.15.06.14,0,.31-.15.37-1.55.66-3.56.88-5.57.88Z"/>
            <path class="cls-2" d="m149.9,206.38c-.1,0-.19-.05-.24-.14-.08-.13-.04-.31.09-.39.07-.04,6.51-4.25,2.62-20.54-.04-.15.06-.3.21-.34.15-.04.3.06.34.21,4,16.75-2.59,20.98-2.88,21.16-.05.03-.1.04-.15.04Z"/>
            <path class="cls-2" d="m144.37,179.12c-.15,0-.28-.12-.28-.27,0-.16.12-.28.27-.29.02,0,1.59-.05,2.65-.84.13-.09.3-.07.39.06.09.12.07.3-.06.39-1.21.9-2.9.95-2.97.95,0,0,0,0,0,0Z"/>
            <path class="cls-2" d="m129.93,183.52h-5.91c-.14,0-.26-.1-.28-.24l-1.57-11.44c-.01-.09.02-.17.08-.24.06-.06.15-.09.23-.08l16.54,1.85h1.73l15.59-3.05c.09-.02.19.01.26.08.07.07.09.17.07.26l-2.49,10.52c-.03.14-.17.24-.31.21l-3.26-.4c-.15-.02-.26-.16-.25-.31.02-.15.16-.26.31-.25l3.01.37,2.33-9.85-15.19,2.97s-.04,0-.05,0h-1.78s-.02,0-.03,0l-16.19-1.81,1.48,10.84h5.66c.16,0,.28.13.28.28s-.13.28-.28.28Z"/>
            <path class="cls-2" d="m147.9,185.98c-.15,0-.27-.11-.28-.26-.01-.15.09-.28.23-.3,1.55-.29,2.4-1.31,2.61-3.11.24-2.14-.72-2.32-.76-2.33-.15-.03-.26-.17-.24-.32.02-.15.16-.26.31-.24.06,0,1.56.23,1.25,2.95-.16,1.38-.67,2.37-1.54,2.98,2.2-.13,6.02-.56,7.09-1.98.79-1.04,1.65-7.51,1.67-15.49.03-9.04-.97-15.89-2.74-18.81-1.68-2.77-9.8-4.94-9.89-4.96-.15-.04-.24-.19-.2-.34.04-.15.19-.24.34-.2.34.09,8.42,2.25,10.22,5.21,2.59,4.26,2.84,14.78,2.83,19.1-.03,7.59-.81,14.54-1.79,15.83-1.69,2.23-8.82,2.26-9.12,2.26Z"/>
            <path class="cls-2" d="m140.43,172.47c-.06,0-.12-.02-.18-.06-5.64-4.51-14.97-1.99-16.44-1.56v.94c.01.16-.11.28-.27.29-.16-.01-.28-.12-.29-.28v-1.15c-.01-.12.06-.23.18-.27.44-.14,10.66-3.42,17.02,1.48.75-.39,3.94-1.94,7.71-2.44,4.29-.58,7.16-.02,7.28,0,.07.01.13.05.17.1l.44.57c.1.12.07.3-.05.4-.12.09-.3.07-.4-.05l-.38-.49c-.54-.09-3.24-.48-6.99.02-4.19.56-7.64,2.45-7.68,2.47-.04.02-.09.04-.14.04Z"/>
            <path class="cls-2" d="m121.94,174.34s-.03,0-.05,0c-.15-.03-.26-.17-.23-.32.51-3.06,1.58-11.53,1.59-11.62.02-.15.16-.26.32-.24.15.02.26.16.24.31-.01.09-1.08,8.57-1.59,11.64-.02.14-.14.24-.28.24Z"/>
            <path class="cls-2" d="m147.47,170.08c-.16,0-.28-.13-.28-.28,0-8.69-1.76-25.75-1.78-25.92-.02-.15.1-.29.25-.31.16-.02.29.1.31.25.02.17,1.78,17.26,1.78,25.98,0,.16-.13.28-.28.28Z"/>
            <path class="cls-2" d="m149.52,169.82s-.01,0-.02,0c-.16,0-.27-.14-.26-.3.14-2.37-.49-8-.49-8.05-.02-.15.09-.29.25-.31.15-.02.29.09.31.25.03.23.64,5.73.5,8.15,0,.15-.13.27-.28.27Z"/>
            <path class="cls-2" d="m138.73,157.38c-.07,0-.13-.02-.19-.06-.54-.36-6.3-10.42-6.84-13.26-.03-.15.07-.3.22-.33.15-.03.3.07.33.22.5,2.59,5.61,11.59,6.52,12.79.84-.87,4.15-7.39,4.7-12.4.02-.15.16-.27.31-.25.15.02.27.16.25.31-.58,5.21-4.18,12.49-5.13,12.94-.06.03-.12.04-.17.04Z"/>
            <path class="cls-2" d="m139.07,155.94c-.13,0-.27,0-.4-.02-5.87-.46-7.73-11.06-7.81-11.51-.03-.15.08-.3.23-.33.15-.03.3.08.33.23.02.11,1.86,10.62,7.3,11.04,5.39.42,6.88-9.05,6.89-9.15.02-.15.17-.26.32-.24.15.02.26.17.24.32-.06.4-1.51,9.65-7.09,9.65Z"/>
            <path class="cls-2" d="m130.65,144.46c-.13,0-.25-.09-.28-.23-.03-.15.07-.3.22-.33l2.63-.53c.15-.03.3.07.33.22s-.07.3-.22.33l-2.63.53s-.04,0-.06,0Z"/>
            <path class="cls-2" d="m145.69,144.65s-.04,0-.07,0l-2.97-.72c-.15-.04-.24-.19-.21-.34.04-.15.19-.24.34-.21l2.97.72c.15.04.24.19.21.34-.03.13-.15.22-.27.22Z"/>
            <path class="cls-11" d="m139.68,157.82c0,.55-.44.99-.99.99s-.99-.44-.99-.99.44-.99.99-.99.99.44.99.99Z"/>
            <path class="cls-2" d="m138.69,159.09c-.7,0-1.28-.57-1.28-1.28s.57-1.28,1.28-1.28,1.28.57,1.28,1.28-.57,1.28-1.28,1.28Zm0-1.99c-.39,0-.71.32-.71.71s.32.71.71.71.71-.32.71-.71-.32-.71-.71-.71Z"/>
            <path class="cls-2" d="m138.08,172.81s-.08,0-.13-.03c-4.86-2.41-11.21-1.37-11.27-1.36-.15.03-.3-.08-.33-.23-.03-.15.08-.3.23-.33.27-.05,6.59-1.08,11.62,1.41.14.07.2.24.13.38-.05.1-.15.16-.25.16Z"/>
            <path class="cls-2" d="m142.58,172.81c-.11,0-.22-.07-.26-.18-.06-.14.01-.31.16-.37.05-.02,5.04-1.96,9.65-1.96.16,0,.28.13.28.28s-.13.28-.28.28c-4.51,0-9.4,1.91-9.45,1.92-.03.01-.07.02-.1.02Z"/>
            <path class="cls-2" d="m141.14,177.03s-.02,0-.03,0c-.15-.02-.27-.16-.25-.31l.33-3.1c.02-.15.16-.27.31-.25.16.02.27.16.25.31l-.33,3.1c-.02.14-.14.25-.28.25Z"/>
            <path class="cls-12" d="m118.7,191.88s13.99-11.29,17.33-12.51c3.33-1.22,8.55-1.11,11,9.22,2.44,10.33,4.89,39.18,4.89,39.18-4.49,5.2-12.48,8.57-18.55,8.59,0,0-4.19-30.89-1.33-43.66l-13.33-.82Z"/>
            <path class="cls-2" d="m134.2,236.69c-.31,0-.6-.02-.88-.05-.13-.02-.23-.12-.24-.24-.04-.31-4.16-31.09-1.33-43.76.03-.15.18-.25.34-.21s.25.18.21.34c-2.69,12.01.94,40.54,1.31,43.34,4.43.39,13.53-3.86,18.01-8.44-.18-2.11-2.54-29.17-4.87-39.01-1.09-4.61-2.83-7.58-5.18-8.85-1.98-1.07-4.06-.68-5.45-.17-3.25,1.19-15.29,10.91-15.41,11.01-.12.1-.3.08-.4-.04-.1-.12-.08-.3.04-.4.5-.4,12.24-9.87,15.57-11.1,2.15-.79,4.19-.72,5.91.21,2.5,1.34,4.33,4.44,5.46,9.21,2.42,10.23,4.87,38.93,4.89,39.22,0,.08-.02.16-.08.22-4.43,4.58-13.07,8.73-17.91,8.73Z"/>
            <path class="cls-2" d="m115.47,206.38s-.07,0-.1-.02c-2.39-.88-4.96-2.83-4.96-5.01.56-9.44,7.39-17.66,7.46-17.74.1-.12.28-.13.4-.03.12.1.13.28.03.4-.07.08-6.78,8.15-7.33,17.39,0,1.71,2.07,3.42,4.23,4.32.11-2.41.94-14.54,7.06-20.39.11-.11.29-.1.4,0,.11.11.1.29,0,.4-6.5,6.21-6.9,20.26-6.9,20.4,0,.09-.05.18-.12.23-.05.03-.1.05-.16.05Z"/>
            <path class="cls-2" d="m122.97,175.48c-.05,0-.11-.01-.15-.05l-2.39-1.55c-.13-.08-.17-.26-.08-.39.08-.13.26-.17.39-.08l2.39,1.55c.13.08.17.26.08.39-.05.08-.14.13-.24.13Z"/>
            <path class="cls-2" d="m153.24,204.83c-.55,0-1.14-.05-1.77-.16-.15-.03-.26-.17-.23-.33.03-.15.17-.25.33-.23,2.66.48,4.63-.33,5.17-.59-.26-8.48-3.5-18.21-3.54-18.31-.05-.15.03-.31.18-.36.15-.05.31.03.36.18.03.1,3.35,10.04,3.57,18.65,0,.1-.05.2-.14.25-.08.04-1.58.9-3.92.9Z"/>
            <path class="cls-2" d="m125.69,186.42s-.01,0-.02,0c-4.23-.3-12.26-3.78-13.79-7.35-1.83-4.27,2.91-26.41,5.25-29.75,2.92-4.16,12.98-5.68,13.41-5.75.15-.02.28.07.32.21.03.11,2.55,10.86,1.12,25.67-.01.16-.15.27-.31.25-.16-.01-.27-.15-.25-.31,1.3-13.46-.68-23.53-1.05-25.23-1.61.27-10.24,1.86-12.77,5.47-2.15,3.07-6.95,25.1-5.2,29.2,1.43,3.34,9.31,6.73,13.31,7.01.16.01.27.15.26.3-.01.15-.13.26-.28.26Z"/>
            <path class="cls-2" d="m115.69,203.41s-.08,0-.12-.03c-.14-.07-.2-.24-.13-.38.04-.09,1.03-2.1,2.63-2.36.15-.03.3.08.32.23.02.15-.08.3-.23.32-1.31.21-2.2,2.02-2.21,2.04-.05.1-.15.16-.25.16Z"/>
          </g>
          <path class="cls-7" d="m183.18,119.38c1.33-1.06,2.69-1.9,4.44-2.22.81-.14,2.22-.23,3.1-.14,1.48.19,2.63.56,3.53.82,1.41.4,1.76,1.84,1.76,1.84,0,0,2.21,1.27,2.71,4.31.5,3.04-1.15,7.37-1.15,7.37l-17.01-1.68s-1.82-6.73,2.62-10.31Z"/>
          <path class="cls-5" d="m180.17,132.43s-.34-1.05.04-1.76c0-.04.28-.68.69-.81.55-.21,1.36,0,1.93-.87.31-.45.76-1.91,1.03-2.89.13-.43.48-1.32,1.46-1.93,1.36-.84,4-.89,5.77-.46.86.21,2.46.54,3.33,1.51,1.03,1.16.75,3.64,1.33,4.93.66,1.43,2.13,1.61,2.13,1.61,0,0,.6,1.55-.3,2.66-.95,1.14-1.96,1.13-1.96,1.13,0,0-.38,1.64-1.1,2.76-.72,1.12-1.44,1.75-1.44,1.75l-.4,3.96-3.29,2.52-1.86,3.97-.3-4.42-3.9-2.7.36-4.13s-.71-.82-1.12-2.04c-.41-1.23-.56-2.83-.56-2.83l-1.04-.63-.8-1.31Z"/>
          <path class="cls-2" d="m183.21,142.77s-.06,0-.09-.01c-.15-.05-.23-.21-.18-.35.36-1.14.41-3.38.41-3.4,0-.16.13-.28.29-.28.16,0,.28.13.28.29,0,.09-.05,2.34-.44,3.56-.04.12-.15.2-.27.2Z"/>
          <path class="cls-2" d="m192.92,143.93c-.14,0-.26-.1-.28-.24-.19-1.28.17-3.71.18-3.81.02-.15.17-.26.32-.24.15.02.26.17.24.32,0,.02-.36,2.45-.18,3.64.02.15-.08.3-.24.32-.01,0-.03,0-.04,0Z"/>
          <path class="cls-2" d="m188.15,142.24s-.02,0-.04,0c-.06,0-1.59-.22-3.62-1.98-1.43-1.22-1.81-2.39-2.04-3.09-.36-.97-.6-2.26-.77-4.05-.01-.15.1-.29.25-.31.16-.01.29.1.31.25.17,1.74.4,2.99.75,3.92.21.65.57,1.73,1.88,2.84,1.91,1.66,3.31,1.85,3.32,1.85.15.02.26.16.24.32-.02.14-.14.25-.28.25Z"/>
          <path class="cls-2" d="m188.29,142.24c-.07,0-.11,0-.12,0-.15-.02-.27-.15-.25-.31.01-.15.15-.27.31-.25.02,0,1.23.08,3.38-1.12,1.54-.87,2.3-1.93,2.61-2.49.52-.86.99-2.04,1.48-3.72.04-.15.2-.24.35-.19.15.04.23.2.19.35-.51,1.73-1,2.95-1.54,3.84-.33.6-1.15,1.76-2.82,2.7-1.96,1.1-3.21,1.2-3.59,1.2Z"/>
          <path class="cls-2" d="m181.86,134.37s-.04,0-.06,0c-.69-.16-1.82-.97-2.06-2.52-.14-.88.13-1.71.7-2.15.48-.37,1.09-.43,1.73-.16.14.06.21.23.15.37-.06.14-.23.21-.37.15-.45-.19-.85-.16-1.17.08-.4.31-.59.95-.49,1.62.2,1.27,1.11,1.94,1.63,2.06.15.04.25.19.21.34-.03.13-.15.22-.27.22Z"/>
          <path class="cls-2" d="m181.53,132.27c-.1,0-.2-.05-.25-.15,0,0-.22-.41-.33-.59-.08-.13-.04-.31.09-.39.13-.08.31-.04.39.09.12.19.34.6.35.62.07.14.02.31-.12.38-.04.02-.09.03-.13.03Z"/>
          <path class="cls-2" d="m195.77,135.7c-.15,0-.28-.12-.28-.27,0-.16.12-.29.27-.29.54-.02,1.56-.5,2-1.71.23-.64.16-1.3-.17-1.68-.26-.3-.65-.4-1.13-.3-.15.03-.3-.07-.33-.22-.03-.15.07-.3.22-.33.68-.14,1.28.03,1.67.48.47.55.58,1.41.27,2.24-.54,1.48-1.79,2.06-2.51,2.08,0,0,0,0-.01,0Z"/>
          <path class="cls-2" d="m196.49,133.7c-.06,0-.13-.02-.18-.06-.12-.1-.14-.28-.04-.4.01-.02.31-.38.46-.54.1-.12.28-.12.4-.02.12.1.12.28.02.4-.14.15-.43.51-.44.52-.06.07-.14.1-.22.1Z"/>
          <path class="cls-3" d="m183.58,139.14s2.36,2.52,4.62,2.78c1.74.21,4.43-1.69,4.43-1.69,0,0-2.84,2.94-5.19,3.11-2.04.16-3.94-2.09-3.94-2.09l.07-2.11Z"/>
          <path class="cls-2" d="m199.32,124.86s-.1-.01-.15-.04c-.65-.4-.84-1.17-1.03-1.91-.23-.94-.43-1.75-1.41-1.95-.15-.03-.25-.18-.22-.33.03-.15.18-.25.33-.22,1.33.27,1.61,1.38,1.85,2.37.16.66.32,1.29.77,1.57.13.08.18.25.09.39-.05.09-.15.14-.24.14Z"/>
          <path class="cls-2" d="m197.72,131.53s-.06,0-.09-.02c-.15-.05-.23-.21-.17-.36.07-.2.14-.4.22-.62.47-1.29,1.01-2.75.92-4.89,0-.16.11-.29.27-.29.15,0,.29.11.29.27.09,2.26-.49,3.84-.95,5.11-.08.21-.15.41-.22.61-.04.12-.15.19-.27.19Z"/>
          <path class="cls-2" d="m181.68,120.18c-.14,0-.26-.1-.28-.24-.02-.15.08-.3.24-.32.01,0,1.02-.16,1.94-.85,2.4-1.77,4.69-2.34,6.79-1.7.15.05.23.2.19.35-.04.15-.2.23-.35.19-2.9-.88-5.46,1-6.29,1.62-1.04.77-2.15.95-2.19.95-.01,0-.03,0-.04,0Z"/>
          <path class="cls-2" d="m196.12,120.2c-.15,0-.28-.12-.28-.27h0s-.07-1.16-1.23-1.69c-.52-.24-1.01-.32-1.49-.4-.71-.12-1.44-.24-2.12-.87-.11-.11-.12-.28-.01-.4.11-.11.29-.12.4-.01.56.52,1.15.62,1.83.73.49.08,1.05.17,1.63.44,1.49.68,1.56,2.12,1.56,2.19,0,.16-.12.29-.27.29,0,0,0,0-.01,0Z"/>
          <path class="cls-2" d="m180.71,129.81c-.14,0-.26-.1-.28-.25-.02-.13-.04-.3-.08-.51-.27-1.64-.9-5.49,1.36-8.39.1-.12.27-.15.4-.05.12.1.14.27.05.4-2.11,2.7-1.51,6.38-1.25,7.95.03.21.06.39.08.53.02.15-.09.3-.25.31-.01,0-.02,0-.04,0Z"/>
          <path class="cls-2" d="m192.27,124.05c-.05,0-.1-.01-.15-.04-.13-.08-.17-.26-.09-.39.31-.5,1.02-.85,1.61-.79.16.01.27.15.25.31-.01.15-.15.27-.31.25-.38-.04-.87.21-1.07.53-.05.09-.15.13-.24.13Z"/>
          <path class="cls-2" d="m188.65,123.66c-.08,0-.16-.03-.22-.1-.57-.69-.79-2.28.16-3.11.12-.1.3-.09.4.03.1.12.09.3-.03.4-.69.6-.47,1.87-.1,2.33.1.12.08.3-.04.4-.05.04-.12.06-.18.06Z"/>
          <path class="cls-2" d="m186.83,123.84s-.05,0-.08-.01c-.67-.19-1-1.21-.88-2.01.02-.15.17-.26.32-.24.15.02.26.17.24.32-.1.63.18,1.3.47,1.38.15.04.24.2.19.35-.04.12-.15.21-.27.21Z"/>
          <path class="cls-2" d="m196.19,130.42c-.06,0-.12-.02-.18-.06-.85-.68-1-1.83-1.15-2.94-.16-1.21-.3-2.25-1.23-2.58-.15-.05-.22-.21-.17-.36.05-.15.21-.22.36-.17,1.26.45,1.43,1.76,1.6,3.04.13,1,.27,2.04.94,2.57.12.1.14.27.04.4-.06.07-.14.11-.22.11Z"/>
          <path class="cls-2" d="m182.66,129.25c-.08,0-.15-.03-.21-.09-.1-.12-.1-.29.02-.4.53-.48.73-1.26.93-2.09.29-1.16.62-2.47,2.02-2.93.15-.05.31.03.36.18.05.15-.03.31-.18.36-1.11.36-1.37,1.42-1.65,2.53-.22.87-.44,1.78-1.1,2.37-.05.05-.12.07-.19.07Z"/>
          <g>
            <path class="cls-2" d="m188.95,135.97c-.07,0-.15-.03-.2-.09-.11-.11-.1-.29,0-.4.38-.36.44-.54.44-.62,0-.09-.09-.19-.23-.34-.2-.21-.47-.49-.53-.94-.15-.94.54-2.31.82-2.75.08-.13.26-.17.39-.09.13.08.17.26.09.39-.29.46-.85,1.65-.74,2.37.04.28.2.45.38.63.19.19.4.41.39.74,0,.3-.2.62-.62,1.02-.05.05-.12.08-.19.08Z"/>
            <path class="cls-2" d="m189.04,138.17c-1.02,0-2.04-.4-2.58-1.02-.1-.12-.09-.3.03-.4.12-.1.3-.09.4.03.73.84,2.66,1.16,3.72.35.12-.1.3-.07.4.05.1.12.07.3-.05.4-.53.41-1.22.59-1.9.59Z"/>
            <path class="cls-2" d="m187.12,128.87s-.09-.01-.14-.03c-1.01-.55-1.84-.1-1.87-.08-.13.08-.31.03-.38-.11-.08-.13-.03-.31.1-.38.05-.03,1.13-.64,2.43.07.14.07.19.25.11.38-.05.09-.15.15-.25.15Z"/>
            <path class="cls-2" d="m193.7,129.59c-.07,0-.13-.02-.18-.07-.03-.03-.76-.63-1.85-.24-.15.05-.31-.03-.36-.17-.05-.15.03-.31.17-.36,1.41-.5,2.37.31,2.41.35.12.1.13.28.03.4-.06.06-.13.1-.21.1Z"/>
            <g>
              <path class="cls-2" d="m185.66,131.98c-.4,0-.77-.1-1.11-.29-.13-.08-.18-.25-.1-.39.08-.13.25-.18.39-.1.44.26,1,.28,1.64.07.15-.05.31.03.36.18.05.15-.03.31-.18.36-.35.12-.68.17-1,.17Z"/>
              <path class="cls-3" d="m185,131.76c.03-.45.29-.13.64-.13.35,0,.66-.31.64.13-.03.45-.29.79-.64.8-.4.01-.67-.35-.64-.8Z"/>
            </g>
            <g>
              <path class="cls-2" d="m192.67,132.66c-.44,0-.91-.13-1.39-.4-.14-.08-.18-.25-.11-.38s.25-.18.38-.11c.59.33,1.14.41,1.62.24.15-.05.31.03.36.17.05.15-.03.31-.17.36-.23.08-.46.12-.7.12Z"/>
              <path class="cls-3" d="m192.91,132.52c.06-.44-.26-.18-.61-.25-.35-.07-.59-.43-.65,0-.06.44.13.83.48.9.39.09.72-.22.78-.66Z"/>
            </g>
            <path class="cls-2" d="m185.12,137.43c-.1,0-.19-.05-.24-.14-.08-.13-.03-.31.1-.39.95-.55,1.25-1.79,1.25-1.8.04-.15.19-.25.34-.21.15.04.25.19.21.34-.01.06-.36,1.49-1.52,2.16-.04.03-.09.04-.14.04Z"/>
            <path class="cls-2" d="m192.2,138.11c-.07,0-.13-.02-.19-.07-1.01-.88-1.07-2.35-1.08-2.41,0-.16.11-.29.27-.29.16-.01.29.11.29.27,0,.01.06,1.29.88,2.01.12.1.13.28.03.4-.06.06-.13.1-.21.1Z"/>
          </g>
          <path class="cls-2" d="m190.47,127.08c-1.49,0-2.7-.43-2.76-.45-.15-.05-.22-.21-.17-.36.05-.15.21-.22.36-.17.02,0,1.78.63,3.57.34.16-.02.3.08.32.23.02.15-.08.3-.23.32-.37.06-.74.08-1.09.08Z"/>
          <path class="cls-2" d="m186.35,133.65c-1.29,0-3.23-.47-3.55-.97-.23-.37-.02-1.59.13-2.28.03-.14.16-.23.3-.22l4.93.48c.08,0,.15.05.2.11.05.06.07.14.05.22-.1.52-.49,2.23-1.16,2.52-.21.09-.53.13-.91.13Zm-2.91-2.88c-.15.76-.22,1.47-.15,1.62.24.3,2.95.97,3.75.62.24-.1.56-.97.76-1.81l-4.36-.43Z"/>
          <path class="cls-2" d="m193.03,134.27c-.98,0-2.01-.15-2.43-.44-.6-.41-.65-2.17-.66-2.69,0-.08.03-.16.09-.21.06-.05.14-.08.22-.07l4.93.46c.14.01.25.13.26.27.02.71,0,1.94-.3,2.26-.26.28-1.16.41-2.11.41Zm-2.52-2.82c.03.86.19,1.77.4,1.92.72.49,3.51.35,3.81.1.09-.13.15-.84.15-1.61l-4.36-.41Z"/>
          <path class="cls-2" d="m190.28,132.18s-.1-.01-.14-.04c-.63-.37-1.31-.44-2.09-.2-.15.05-.31-.04-.35-.19-.05-.15.04-.31.19-.35.93-.29,1.79-.2,2.55.25.13.08.18.25.1.39-.05.09-.15.14-.24.14Z"/>
          <path class="cls-2" d="m186.41,145.99s-.09-.01-.14-.04c-3.58-1.97-4.07-4.53-4.09-4.64-.03-.15.07-.3.23-.33.16-.03.3.07.33.23h0s.48,2.42,3.8,4.24c.14.08.19.25.11.38-.05.09-.15.15-.25.15Z"/>
          <path class="cls-2" d="m190.13,146.36c-.09,0-.17-.04-.23-.11-.09-.13-.07-.3.06-.39,1.66-1.22,2.94-2.42,3.71-3.47l.02-.03c.09-.12.27-.15.4-.06.12.09.15.27.06.39l-.02.03c-.81,1.09-2.13,2.33-3.83,3.58-.05.04-.11.06-.17.06Z"/>
          <path class="cls-2" d="m188.18,155.17c-.13,0-.25-.09-.28-.23-.03-.15.07-.3.22-.33.05-.01,5.3-1.02,9.94-1.25.14,0,.29.11.3.27,0,.16-.11.29-.27.3-4.6.22-9.81,1.23-9.86,1.24-.02,0-.04,0-.05,0Z"/>
          <path class="cls-2" d="m183.21,155.17c-.06,0-.11-.02-.16-.05-2.56-1.76-8.03-2.8-8.08-2.81-.15-.03-.25-.18-.23-.33.03-.15.17-.26.33-.23.23.04,5.64,1.07,8.3,2.9.13.09.16.26.07.39-.05.08-.14.12-.23.12Z"/>
          <polygon class="cls-14" points="191.71 147.42 192.57 150.02 194.01 147.07 191.71 147.42"/>
          <path class="cls-2" d="m187.53,150.78s-.03,0-.04,0c-.14-.02-.24-.14-.24-.28-.02-2.45-.12-4.04-.55-4.43-.08-.07-.16-.09-.28-.08-.47.04-1.66,1.72-2.5,3.26-.05.09-.14.15-.25.15h0c-.1,0-.2-.06-.25-.15-1.28-2.4-4.19-8.09-3.44-9.05,1.09-1.39,3.27-.12,3.36-.07.13.08.18.25.1.39-.08.13-.25.18-.39.1-.02-.01-1.85-1.07-2.63-.07-.32.52,1.4,4.45,3.25,7.98.62-1.07,1.85-3.03,2.69-3.1.28-.02.51.05.7.23.43.39.62,1.24.7,3.24.52-1.33,1.35-3,2.31-3.1,1.21-.14,2.13,2.18,2.54,3.46,1.34-2.69,3.08-6.39,3.13-7.05.02-.29-.05-.5-.22-.64-.54-.44-1.9-.19-2.38-.05-.15.04-.31-.05-.35-.2-.04-.15.05-.31.19-.35.21-.06,2.03-.55,2.89.16.22.18.47.52.42,1.12-.08,1.06-3.16,7.2-3.51,7.9-.05.1-.16.16-.28.15-.12-.01-.21-.09-.24-.21-.44-1.6-1.38-3.82-2.14-3.74-.79.09-1.85,2.52-2.35,4.22-.04.12-.15.2-.27.2Z"/>
          <path class="cls-9" d="m94.85,194.84l2.84,56.97h-2.77c0-24.76-3.01-56.97-3.01-56.97h2.93Z"/>
          <path class="cls-2" d="m97.7,252.09h-2.77c-.16,0-.28-.13-.28-.28,0-24.46-2.97-56.62-3-56.94,0-.08.02-.16.07-.22.05-.06.13-.09.21-.09h2.93c.15,0,.27.12.28.27l2.84,56.97c0,.08-.02.15-.08.21-.05.06-.13.09-.2.09Zm-2.49-.56h2.19l-2.81-56.4h-2.36c.3,3.36,2.96,33.23,2.98,56.4Z"/>
          <path class="cls-2" d="m97.7,252.09c-.08,0-.16-.03-.21-.1-.1-.12-.09-.3.03-.4l.9-.78c-.07-2.12-.94-28.35-1.99-37.24-.02-.15.09-.3.25-.31.15-.02.3.09.31.25,1.1,9.24,1.99,37.14,2,37.42,0,.08-.03.17-.1.22l-1,.87c-.05.05-.12.07-.18.07Z"/>
          <path class="cls-2" d="m97.7,252.09h-2.77c-.16,0-.28-.13-.28-.28,0-24.46-2.97-56.62-3-56.94,0-.08.02-.16.07-.22.05-.06.13-.09.21-.09h2.93c.15,0,.27.12.28.27l2.84,56.97c0,.08-.02.15-.08.21-.05.06-.13.09-.2.09Zm-2.49-.56h2.19l-2.81-56.4h-2.36c.3,3.36,2.96,33.23,2.98,56.4Z"/>
          <path class="cls-9" d="m228.34,194.84l-3.02,56.97h2.77c0-24.76,3.01-56.97,3.01-56.97h-2.76Z"/>
          <path class="cls-2" d="m228.1,252.09h-2.77c-.08,0-.15-.03-.2-.09s-.08-.13-.08-.21l3.02-56.97c0-.15.13-.27.28-.27h2.76c.08,0,.16.03.21.09.05.06.08.14.07.22-.03.32-3,32.47-3,56.94,0,.16-.13.28-.28.28Zm-2.47-.56h2.19c.02-23.17,2.67-53.04,2.98-56.4h-2.18l-2.99,56.4Z"/>
          <path class="cls-2" d="m225.33,252.09c-.07,0-.13-.02-.19-.07l-1-.89c-.06-.06-.1-.14-.09-.22,0-.28.9-28.18,2-37.42.02-.15.16-.27.31-.25.15.02.27.16.25.31-1.06,8.89-1.93,35.14-1.99,37.24l.9.81c.12.1.13.28.02.4-.06.06-.13.09-.21.09Z"/>
          <path class="cls-2" d="m228.1,252.09h-2.77c-.08,0-.15-.03-.2-.09s-.08-.13-.08-.21l3.02-56.97c0-.15.13-.27.28-.27h2.76c.08,0,.16.03.21.09.05.06.08.14.07.22-.03.32-3,32.47-3,56.94,0,.16-.13.28-.28.28Zm-2.47-.56h2.19c.02-23.17,2.67-53.04,2.98-56.4h-2.18l-2.99,56.4Z"/>
          <path class="cls-2" d="m110.69,243.84c-.09,0-.17-.04-.23-.11-.09-.12-.07-.3.06-.39l.94-.7-1.05-29.38c0-.16.12-.29.27-.29.16-.01.29.12.29.27l1.06,29.52c0,.09-.04.18-.11.24l-1.06.79c-.05.04-.11.06-.17.06Z"/>
          <path class="cls-2" d="m211.71,243.84c-.06,0-.12-.02-.17-.06l-1.06-.79c-.07-.06-.12-.14-.11-.24l1.06-29.52c0-.16.14-.29.29-.27.16,0,.28.14.27.29l-1.05,29.38.94.7c.12.09.15.27.06.39-.06.07-.14.11-.23.11Z"/>
          <path class="cls-2" d="m219.97,198.45c-.16,0-.28-.13-.28-.28v-5.21c0-.16.13-.28.28-.28s.28.13.28.28v5.21c0,.16-.13.28-.28.28Z"/>
          <path class="cls-2" d="m222.75,201.74h0c-.16,0-.28-.13-.28-.28l.06-5.35c0-.15.13-.28.28-.28h0c.16,0,.28.13.28.29l-.06,5.35c0,.15-.13.28-.28.28Z"/>
          <path class="cls-2" d="m98.92,202.31c-.15,0-.28-.12-.28-.27l-.22-7.07c0-.16.12-.29.27-.29.16-.02.29.12.29.27l.22,7.07c0,.16-.12.29-.27.29,0,0,0,0,0,0Z"/>
          <path class="cls-2" d="m101.47,199.2c-.16,0-.28-.13-.28-.28v-5.96c0-.16.13-.28.28-.28s.28.13.28.28v5.96c0,.16-.13.28-.28.28Z"/>
        </g>
      </g>
      <g>
        <g>
          <path class="cls-4" d="m118.52,28.68c-1.19-11.94-9.3-22.6-21.46-26.47-9.59-3.04-19.55-1.19-27.2,4.17C62.19,1.05,52.19-.77,42.61,2.33c-12.17,3.94-20.23,14.68-21.33,26.66C9.49,33.22.96,44.41.75,57.68c-.22,13.67,8.46,25.42,20.68,29.72,1.16,11.95,9.26,22.65,21.41,26.54,3.14,1,6.32,1.48,9.45,1.48,6.42,0,12.62-2.01,17.77-5.61,7.66,5.35,17.65,7.18,27.23,4.1,1.44-.46,2.82-1.03,4.15-1.68,4.49,4.69,10.49,8.81,17.7,8.71-2.91-.76-7.69-8.28-8.69-15.39,4.65-4.99,7.57-11.41,8.22-18.24,11.93-4.24,20.45-15.56,20.61-28.81,0,0,0-.02,0-.03.23-13.72-8.49-25.5-20.77-29.79Z"/>
          <path class="cls-8" d="m118.52,28.68c-1.19-11.94-9.3-22.6-21.46-26.47-9.59-3.04-19.55-1.19-27.2,4.17C62.19,1.05,52.19-.77,42.61,2.33c-12.17,3.94-20.23,14.68-21.33,26.66C9.49,33.22.96,44.41.75,57.68c-.22,13.67,8.46,25.42,20.68,29.72,1.16,11.95,9.26,22.65,21.41,26.54,3.14,1,6.32,1.48,9.45,1.48,6.42,0,12.62-2.01,17.77-5.61,7.66,5.35,17.65,7.18,27.23,4.1,1.44-.46,2.82-1.03,4.15-1.68,4.49,4.69,10.49,8.81,17.7,8.71-2.91-.76-7.69-8.28-8.69-15.39,4.65-4.99,7.57-11.41,8.22-18.24,11.93-4.24,20.45-15.56,20.61-28.81,0,0,0-.02,0-.03.23-13.72-8.49-25.5-20.77-29.79Z"/>
        </g>
        <g>
          <g>
            <path class="cls-2" d="m50.7,47.52c-.65.18-1.28.4-1.94.59v6.41h-1.96v-5.82c-.97.29-1.87.58-2.7.79l-.52-2.04c.9-.2,2-.49,3.22-.83v-3.44h-1.21c-.2.88-.41,1.66-.67,2.3-.32-.27-1.12-.76-1.51-.99.56-1.42.86-3.67,1.03-5.8l1.78.31c-.07.72-.16,1.42-.27,2.14h.85v-3.46h1.96v3.46h1.49v2.03h-1.49v2.9l1.66-.47.29,1.89Zm9.69-7.04s-.02.72-.04.97c-.34,8.03-.67,10.97-1.35,11.87-.41.61-.81.81-1.4.94-.5.09-1.26.09-2.03.05-.05-.61-.27-1.49-.59-2.09.67.07,1.26.07,1.6.07.27,0,.45-.07.67-.34.45-.58.77-3.02,1.06-9.49h-.09c-.88,4.54-2.74,9.22-5.64,11.61-.41-.41-1.15-.94-1.75-1.24,2.88-2.07,4.68-6.16,5.58-10.37h-.85c-.79,2.94-2.3,6.16-4.12,7.89-.4-.41-1.08-.9-1.64-1.21,1.78-1.4,3.19-4.07,3.98-6.68h-.92c-.52,1.24-1.15,2.36-1.85,3.22-.34-.34-1.19-.94-1.62-1.21,1.42-1.57,2.41-4.14,2.95-6.79l1.94.36c-.18.83-.41,1.64-.67,2.43h6.77Z"/>
            <path class="cls-2" d="m67.48,38.41c-.49,1.28-1.08,2.59-1.76,3.84v12.24h-2.03v-9.06c-.36.45-.72.9-1.08,1.3-.2-.54-.79-1.69-1.15-2.23,1.58-1.62,3.12-4.18,4-6.73l2.03.65Zm10.91,10.05h-4.61v6.05h-2.16v-6.05h-4.86v-2.09h4.86v-3.1h-2.2c-.32.88-.72,1.69-1.12,2.32-.4-.29-1.33-.79-1.86-1.03.97-1.4,1.71-3.69,2.12-5.89l2.07.43c-.14.7-.32,1.39-.52,2.07h1.49v-3.26h2.16v3.26h3.76v2.09h-3.76v3.1h4.61v2.09Z"/>
            <path class="cls-2" d="m86.97,40.34c-.11.54-.25,1.21-.38,1.85.61-.04,1.13-.07,1.51-.07,1.91,0,3.26.85,3.26,3.44,0,2.12-.25,5.04-1.03,6.61-.59,1.26-1.58,1.66-2.95,1.66-.68,0-1.55-.13-2.16-.25l-.38-2.38c.68.2,1.73.38,2.2.38.61,0,1.06-.18,1.35-.77.49-1.03.74-3.2.74-4.99,0-1.44-.63-1.64-1.75-1.64-.29,0-.74.04-1.26.07-.68,2.74-2.02,7-3.67,9.65l-2.34-.94c1.75-2.36,2.99-6,3.66-8.46-.65.07-1.22.14-1.55.18-.52.09-1.46.22-2.02.31l-.22-2.45c.67.05,1.26.02,1.93,0,.56-.02,1.4-.07,2.32-.16.25-1.35.41-2.66.38-3.8l2.68.27c-.11.47-.23,1.04-.32,1.49Zm7.63.29l-.88.38c1.08,1.67,2.43,4.68,2.94,6.28l-2.29,1.04c-.47-2-1.75-5.17-3.02-6.75l1.62-.7c-.36-.68-.81-1.55-1.22-2.12l1.42-.59c.45.67,1.1,1.8,1.44,2.47Zm2.14-.83l-1.42.61c-.38-.74-.95-1.8-1.46-2.48l1.44-.58c.47.68,1.13,1.82,1.44,2.45Z"/>
            <path class="cls-2" d="m43.5,77.33c.61,0,.72-.31.81-2.4.45.34,1.4.7,1.96.85-.23,2.84-.79,3.58-2.57,3.58h-2.38c-2.14,0-2.65-.65-2.65-2.67v-2.88h-2.18c-.38,2.86-1.44,4.75-5.89,5.76-.2-.58-.77-1.46-1.19-1.91,3.69-.68,4.47-1.89,4.77-3.85h-2.2v-10.57h11.78v10.57h-2.93v2.86c0,.58.11.65.79.65h1.87Zm-9.43-11.09h7.53v-1.12h-7.53v1.12Zm0,2.84h7.53v-1.12h-7.53v1.12Zm0,2.86h7.53v-1.12h-7.53v1.12Z"/>
            <path class="cls-2" d="m49.73,67.53c1.39-.43,5.06-1.73,7.69-1.73,3.26,0,5.82,1.87,5.82,5.2,0,4.09-3.89,6.7-10.23,7.02l-1.04-2.4c4.88-.13,8.7-1.53,8.7-4.66,0-1.69-1.17-2.99-3.33-2.99-2.65,0-6.91,1.8-8.79,2.61l-1.03-2.52c.67-.11,1.57-.36,2.21-.54Z"/>
            <path class="cls-2" d="m71.85,65.21c-.13.54-.25,1.21-.38,1.85.59-.04,1.13-.07,1.51-.07,1.91,0,3.26.85,3.26,3.44,0,2.12-.25,5.04-1.03,6.61-.59,1.26-1.6,1.66-2.95,1.66-.7,0-1.55-.13-2.16-.25l-.4-2.38c.7.2,1.73.38,2.21.38.59,0,1.06-.18,1.35-.77.49-1.03.72-3.21.72-4.99,0-1.44-.61-1.64-1.75-1.64-.29,0-.74.04-1.24.07-.68,2.74-2.02,7-3.67,9.65l-2.34-.94c1.75-2.36,2.99-6,3.64-8.46-.65.07-1.21.14-1.55.18-.5.09-1.46.22-2,.31l-.22-2.45c.65.05,1.26.02,1.93,0,.56-.02,1.4-.07,2.32-.14.25-1.37.4-2.68.38-3.82l2.68.27c-.11.47-.23,1.04-.32,1.49Zm9.69,6.9l-2.29,1.06c-.47-2-1.75-5.26-3.02-6.84l2.14-.92c1.12,1.55,2.63,4.99,3.17,6.7Z"/>
            <path class="cls-2" d="m84.3,69.84c1.22-.38,4.29-1.4,6.46-1.4,2.84,0,4.75,1.69,4.75,4.41,0,3.26-2.86,5.47-8.59,5.83l-.95-2.21c4.12-.11,7.15-1.21,7.15-3.66,0-1.35-1.01-2.29-2.58-2.29-2.09,0-5.69,1.49-7.22,2.14l-.94-2.34c.54-.11,1.37-.32,1.91-.49Z"/>
            <path class="cls-2" d="m97.75,65.46c1.49-.13,4.47-.4,7.76-.68,1.85-.14,3.83-.27,5.1-.31l.02,2.3c-.97.02-2.52.02-3.47.23-2.18.58-3.8,2.92-3.8,5.06,0,2.95,2.77,4.03,5.82,4.2l-.85,2.47c-3.76-.25-7.33-2.29-7.33-6.18,0-2.59,1.46-4.65,2.67-5.56-1.69.18-5.37.58-7.45,1.03l-.23-2.47c.72-.02,1.42-.05,1.78-.09Z"/>
          </g>
          <g>
            <path class="cls-2" d="m51.16,22.2c-.02,2.88.13,5.15.83,5.15.18-.01.23-.64.25-1.61.28.32.64.68.92.89-.11,1.5-.36,2.13-1.28,2.13-1.75,0-2.1-2.29-2.17-5.36h-6.43v-1l-.11.1c-.28-.24-.95-.7-1.29-.9,1.19-.9,2.09-2.45,2.55-4.1l1.49.31c-.1.3-.19.6-.3.89h7.09v1.19h-7.62c-.1.19-.2.38-.31.56h6.84v1.15h-6.92v-1.01c-.37.61-.78,1.15-1.21,1.61h7.68Zm-2.4,1.71c-.36.66-.78,1.28-1.27,1.85.76.53,1.43,1.07,1.89,1.54l-1.14,1.08c-.42-.47-1.06-1.01-1.77-1.55-.95.86-2.03,1.57-3.13,2.11-.22-.3-.74-.85-1.06-1.12,1.12-.43,2.15-1.06,3.03-1.81-.68-.46-1.38-.88-2.01-1.24l1.02-.94c.62.32,1.32.73,2,1.16.42-.48.77-1,1.06-1.55l1.38.46Z"/>
            <path class="cls-2" d="m56.75,19.59c-.16.8-.58,3.2-.58,4.4,0,.23.01.54.05.78.18-.41.37-.83.54-1.22l.74.59c-.34,1-.73,2.3-.86,2.94-.04.18-.06.44-.06.56,0,.13.01.32.02.49l-1.39.1c-.24-.83-.47-2.29-.47-3.92,0-1.8.37-3.83.5-4.75.04-.34.11-.79.12-1.17l1.68.14c-.1.25-.25.85-.3,1.07Zm2.96,5.86c0,.53.46.85,1.68.85,1.07,0,1.96-.1,3.01-.31l.02,1.62c-.78.14-1.74.23-3.09.23-2.06,0-3.06-.73-3.06-1.97,0-.47.07-.95.2-1.56l1.38.13c-.1.4-.14.68-.14,1.01Zm4.34-6.14v1.55c-1.48.13-3.65.14-5.16,0v-1.54c1.48.2,3.86.14,5.16-.01Z"/>
            <path class="cls-2" d="m72.09,18.22c0,2.27.32,6.64,4.74,9.25-.31.25-.9.88-1.15,1.25-2.48-1.5-3.75-3.77-4.41-5.91-.9,2.69-2.34,4.68-4.43,5.92-.26-.3-.94-.89-1.31-1.16,2.49-1.26,3.92-3.57,4.58-6.73l.73.13c-.08-.46-.13-.89-.17-1.3h-2.73v-1.45h4.15Z"/>
            <path class="cls-2" d="m78.92,22.31c.82-.25,2.85-.94,4.31-.94,1.9,0,3.17,1.13,3.17,2.94,0,2.17-1.91,3.65-5.72,3.89l-.64-1.48c2.75-.07,4.76-.8,4.76-2.44,0-.9-.67-1.52-1.72-1.52-1.39,0-3.79,1-4.81,1.43l-.62-1.56c.36-.07.91-.22,1.27-.32Z"/>
            <path class="cls-2" d="m92.16,19.26c-.02.13-.06.29-.1.46.67-.1,1.34-.23,2-.38v1.5c-.72.17-1.54.3-2.34.4-.11.52-.23,1.04-.36,1.54-.43,1.68-1.24,4.13-1.91,5.55l-1.67-.56c.72-1.2,1.63-3.72,2.07-5.4.08-.32.18-.66.25-1.01-.28.01-.54.02-.79.02-.58,0-1.03-.02-1.45-.05l-.04-1.5c.61.07,1.02.1,1.51.1.35,0,.71-.01,1.08-.04.05-.26.08-.49.11-.68.05-.44.07-.94.04-1.21l1.83.14c-.1.32-.2.86-.25,1.13Zm1.44,6.51c0,.53.36.92,1.64.92.8,0,1.63-.1,2.49-.25l-.06,1.54c-.67.08-1.49.17-2.45.17-2.02,0-3.11-.7-3.11-1.91,0-.55.12-1.13.22-1.61l1.43.14c-.1.34-.17.73-.17,1Zm1.82-4.14c.68,0,1.4.04,2.11.11l-.04,1.44c-.6-.07-1.33-.14-2.06-.14-.82,0-1.56.04-2.31.12v-1.4c.67-.06,1.54-.12,2.3-.12Z"/>
          </g>
          <g>
            <path class="cls-2" d="m49.56,95.05c-.82.62-1.81,1.26-2.69,1.74.84.58,1.91.97,3.21,1.19-.31.3-.71.9-.9,1.3-2.99-.62-4.64-2.12-5.65-4.65h-1.52v2.75c.89-.12,1.83-.26,2.75-.42l.08,1.33c-1.82.32-3.78.61-5.22.85l-.35-1.39c.38-.05.8-.1,1.27-.17v-8.41h3.11v-1.15h1.48v1.15h3.49v5.16l.94.73Zm-7.54-4.65v.89h5.15v-.89h-5.15Zm0,2.97h5.15v-.95h-5.15v.95Zm3,1.25c.24.5.54.96.91,1.36.65-.38,1.38-.88,1.98-1.36h-2.89Z"/>
            <path class="cls-2" d="m55.8,89.72c-.08.36-.17.8-.25,1.23.4-.02.76-.05,1.01-.05,1.27,0,2.17.56,2.17,2.29,0,1.42-.17,3.36-.68,4.4-.4.84-1.07,1.1-1.97,1.1-.47,0-1.03-.08-1.44-.17l-.26-1.58c.47.13,1.15.25,1.48.25.4,0,.71-.12.9-.52.32-.68.48-2.13.48-3.32,0-.96-.41-1.09-1.16-1.09-.19,0-.49.02-.83.05-.46,1.82-1.34,4.67-2.45,6.43l-1.56-.62c1.16-1.57,1.99-3.99,2.42-5.64-.43.05-.8.1-1.03.12-.34.06-.97.14-1.33.2l-.14-1.63c.43.04.84.01,1.28,0,.37-.01.94-.05,1.55-.1.17-.91.26-1.79.25-2.54l1.79.18c-.07.31-.16.7-.22,1Zm6.45,4.59l-1.52.71c-.31-1.33-1.16-3.5-2.02-4.56l1.43-.61c.74,1.03,1.75,3.32,2.11,4.46Z"/>
            <path class="cls-2" d="m64.11,92.8c.82-.25,2.85-.94,4.31-.94,1.9,0,3.17,1.13,3.17,2.94,0,2.17-1.91,3.65-5.72,3.89l-.64-1.48c2.75-.07,4.76-.8,4.76-2.43,0-.9-.67-1.52-1.72-1.52-1.39,0-3.79,1-4.81,1.43l-.62-1.56c.36-.07.91-.22,1.27-.32Z"/>
            <path class="cls-2" d="m77.34,89.76c-.02.13-.06.29-.1.46.67-.1,1.34-.23,2-.38v1.5c-.72.17-1.54.3-2.34.4-.11.52-.23,1.04-.36,1.54-.43,1.68-1.24,4.13-1.91,5.55l-1.67-.56c.72-1.2,1.63-3.72,2.07-5.4.08-.32.18-.66.25-1.01-.28.01-.54.02-.79.02-.58,0-1.03-.02-1.45-.05l-.04-1.5c.61.07,1.02.1,1.51.1.35,0,.71-.01,1.08-.04.05-.26.08-.49.11-.68.05-.44.07-.94.04-1.21l1.83.14c-.1.32-.2.86-.25,1.13Zm1.44,6.51c0,.53.36.92,1.64.92.8,0,1.63-.1,2.49-.25l-.06,1.54c-.67.08-1.49.17-2.45.17-2.02,0-3.11-.7-3.11-1.91,0-.55.12-1.13.22-1.61l1.43.14c-.1.34-.17.73-.17,1Zm1.82-4.14c.68,0,1.4.04,2.11.11l-.04,1.44c-.6-.07-1.33-.14-2.06-.14-.82,0-1.56.04-2.31.12v-1.4c.67-.06,1.54-.12,2.3-.12Z"/>
            <path class="cls-2" d="m86.87,88.47l1.75.06c-.07.34-.17.95-.26,1.7l.44.56c-.16.22-.41.61-.61.92,0,.04,0,.07-.01.11.97-.84,2.27-1.71,3.49-1.71,1.7,0,2.72,1.41,2.72,3.6,0,.7-.04,1.34-.13,1.93.42.3.83.66,1.24,1.1l-.78,1.25c-.28-.34-.58-.65-.88-.92-.43.91-1.18,1.45-2.38,1.45-1.34,0-2.36-.59-2.36-1.94,0-1.08.92-1.87,2.38-1.87.48,0,.94.07,1.38.22.04-.41.06-.84.06-1.31,0-1.28-.59-2.15-1.51-2.15-1.08,0-2.39,1.07-3.35,2.15-.02.4-.04.79-.04,1.15,0,.98,0,1.99.07,3.12.01.22.05.65.08.92h-1.66c.02-.26.04-.7.04-.89.02-.94.04-1.63.05-2.64-.5.76-1.1,1.63-1.52,2.19l-.94-1.31c.68-.84,1.88-2.42,2.57-3.43.02-.28.05-.56.06-.84-.59.07-1.51.18-2.18.28l-.16-1.54c.35.01.62.01,1.04-.01.35-.02.88-.08,1.39-.16.02-.46.05-.79.05-.92,0-.35.01-.71-.05-1.08Zm4.5,8.71c.58,0,.96-.37,1.2-.98-.4-.19-.82-.3-1.22-.3-.49,0-.94.23-.94.62,0,.48.44.66.96.66Z"/>
            <path class="cls-2" d="m97.5,97.25c0-.64.46-1.07,1.06-1.07s1.06.43,1.06,1.07-.46,1.06-1.06,1.06-1.06-.43-1.06-1.06Zm.12-6.24l-.06-1.79h1.99l-.06,1.79-.32,4.1h-1.22l-.32-4.1Z"/>
          </g>
        </g>
      </g>
    </g>
  </g>
</svg>