<?xml version="1.0" encoding="UTF-8"?>
<svg id="_レイヤー_2" data-name="レイヤー 2" xmlns="http://www.w3.org/2000/svg" viewBox="0 0 167.95 172.25">
  <defs>
    <style>
      .cls-1, .cls-2 {
        fill: #262626;
      }

      .cls-3, .cls-4 {
        fill: #fff;
      }

      .cls-5 {
        fill: none;
        stroke: #262626;
        stroke-linecap: round;
        stroke-linejoin: round;
        stroke-width: 1.5px;
      }

      .cls-6 {
        fill: #e96b57;
      }

      .cls-4, .cls-7, .cls-8, .cls-2, .cls-9 {
        fill-rule: evenodd;
      }

      .cls-7 {
        fill: #a87e5f;
      }

      .cls-10 {
        fill: #6c94a3;
      }

      .cls-11 {
        fill: #6fa897;
      }

      .cls-12 {
        fill: #6fa998;
      }

      .cls-13 {
        fill: #e5e6e5;
      }

      .cls-8, .cls-14 {
        fill: #fec97e;
      }

      .cls-15, .cls-9 {
        fill: #fdd6b8;
      }

      .cls-16 {
        fill: #fff400;
      }
    </style>
  </defs>
  <g id="illustration">
    <g>
      <g>
        <g>
          <path class="cls-3" d="m150.09,24.28c-.92-9.98-7.64-18.94-17.78-22.22-7.98-2.58-16.32-1.07-22.71,3.38-6.37-4.47-14.68-6.01-22.66-3.48-10.13,3.22-16.89,12.11-17.88,22.06-10.23,3.57-17.5,13.39-17.31,24.82,0,0,0,.02,0,.02.13,11.04,7.24,20.47,17.17,24.01.54,5.7,2.97,11.05,6.85,15.2-.83,5.93-4.81,12.19-7.24,12.82,6.01.08,11.01-3.35,14.75-7.26,1.1.54,2.25,1.01,3.45,1.4,7.98,2.57,16.31,1.04,22.69-3.41,4.29,3,9.46,4.68,14.81,4.68,2.6,0,5.26-.4,7.87-1.23,10.13-3.24,16.88-12.15,17.84-22.11,10.19-3.59,17.42-13.38,17.24-24.77-.17-11.06-7.28-20.38-17.1-23.91Z"/>
          <path class="cls-5" d="m150.09,24.28c-.92-9.98-7.64-18.94-17.78-22.22-7.98-2.58-16.32-1.07-22.71,3.38-6.37-4.47-14.68-6.01-22.66-3.48-10.13,3.22-16.89,12.11-17.88,22.06-10.23,3.57-17.5,13.39-17.31,24.82,0,0,0,.02,0,.02.13,11.04,7.24,20.47,17.17,24.01.54,5.7,2.97,11.05,6.85,15.2-.83,5.93-4.81,12.19-7.24,12.82,6.01.08,11.01-3.35,14.75-7.26,1.1.54,2.25,1.01,3.45,1.4,7.98,2.57,16.31,1.04,22.69-3.41,4.29,3,9.46,4.68,14.81,4.68,2.6,0,5.26-.4,7.87-1.23,10.13-3.24,16.88-12.15,17.84-22.11,10.19-3.59,17.42-13.38,17.24-24.77-.17-11.06-7.28-20.38-17.1-23.91Z"/>
        </g>
        <g>
          <path class="cls-1" d="m75.46,52.05c-.39.96-.86,1.95-1.4,2.89v10.5h-1.69v-7.92c-.4.52-.83.99-1.25,1.41-.16-.42-.63-1.4-.93-1.82,1.42-1.35,2.8-3.48,3.61-5.61l1.65.54Zm9.06,11.28v1.68h-9.67v-1.68h3.99v-2.99h-3.17v-1.68h3.17v-2.61h-3.65v-1.68h4.26c-.73-.57-1.71-1.2-2.5-1.65l1.19-1.28c1.11.59,2.64,1.52,3.39,2.17l-.66.75h3.43v1.68h-3.64v2.61h3.24v1.68h-3.24v2.99h3.87Z"/>
          <path class="cls-1" d="m89.42,52.9c.86,0,2.45-.08,3.15-.13.38-.02.77-.11,1.02-.21l1.2.93c-.21.23-.39.42-.51.63-.39.65-.96,1.95-1.5,3.22,1.17.18,2.28.54,3.25.96.02-.18.03-.34.05-.51.04-.58.04-1.18,0-1.63l1.96.22c-.06,1.01-.14,1.94-.29,2.78.63.36,1.17.71,1.6,1l-.87,2.08c-.39-.36-.82-.71-1.29-1.05-.66,1.69-1.8,3.01-3.81,4.06l-1.59-1.3c2.26-.98,3.32-2.4,3.81-3.76-1.06-.58-2.26-1.04-3.55-1.22-.54,1.27-1.17,2.77-1.69,3.6-.6.9-1.32,1.32-2.34,1.32-1.32,0-2.31-.91-2.31-2.43,0-2.32,2.11-4.09,5.13-4.23.42-.99.86-2.01,1.2-2.71-.6.03-1.89.07-2.58.12-.3.01-.83.06-1.22.12l-.07-1.94c.4.04.91.08,1.24.08Zm-1.32,9.03c.3,0,.51-.15.78-.52.39-.56.8-1.5,1.21-2.45-1.68.25-2.62,1.28-2.62,2.22,0,.5.29.75.63.75Z"/>
          <path class="cls-1" d="m111.86,56.26c.61.85,1.45,1.56,2.47,1.96-.38.31-.87.93-1.12,1.35-1.14-.57-2.05-1.53-2.71-2.69-.45.75-1.12,1.48-2.17,2.09h3.88v6.45h-1.83v-.42h-6.49v.48h-1.74v-6.34c-.25.18-.54.36-.83.52-.24-.36-.78-.92-1.18-1.21,1.27-.62,2.01-1.39,2.41-2.19h-2.1v-1.41h2.55c.04-.3.07-.59.07-.86h-2.13v-1.35h2.13v-1.17h1.7v1.17h1.8v1.35h-1.8c0,.29-.03.56-.06.86h2.04v1.41h-1.98c.66.49,1.42,1.05,1.86,1.4l-1.14,1.2c-.38-.38-1.05-.93-1.68-1.43-.36.54-.83,1.06-1.45,1.54h5.2c-.27-.35-.63-.73-.93-.96,1.2-.45,1.9-1.08,2.29-1.75h-1.71v-1.41h2.2c.05-.29.06-.56.06-.81v-.04h-2.04v-1.35h2.04v-1.17h1.71v1.17h2.25v1.35h-2.25v.08c0,.25-.01.51-.04.78h2.81v1.41h-2.09Zm-1.49,4.2h-6.49v.84h6.49v-.84Zm0,3.06v-.93h-6.49v.93h6.49Z"/>
          <path class="cls-1" d="m123.98,57.55c-.69.58-2.09,1.87-2.44,2.27.13-.02.4.05.57.1.43.14.7.46.9,1.02.14.4.3.97.44,1.36.14.47.46.71,1.05.71,1.16,0,2.19-.12,2.94-.27l-.12,1.96c-.62.12-2.16.22-2.94.22-1.43,0-2.19-.31-2.57-1.29-.15-.45-.33-1.15-.43-1.53-.16-.53-.5-.72-.79-.72-.31,0-.63.24-.99.6-.51.52-1.63,1.75-2.67,3.07l-1.77-1.24c.27-.23.63-.54,1.03-.93.77-.78,3.84-3.84,5.21-5.28-1.05.03-2.85.19-3.71.27-.52.05-.97.12-1.29.16l-.18-2.07c.34.03.88.06,1.44.04.7,0,4.11-.15,5.35-.32.29-.03.69-.1.85-.17l1.1,1.25c-.39.27-.71.54-.98.77Zm.45-4.8l-.24,1.75c-1.57-.12-4.38-.45-6.16-.75l.28-1.74c1.68.31,4.56.63,6.12.73Z"/>
          <path class="cls-1" d="m131.87,52.83c.79,0,4-.06,4.86-.13.62-.06.96-.1,1.14-.16l.98,1.34c-.35.23-.71.44-1.05.69-.81.57-2.38,1.89-3.33,2.64.5-.12.94-.16,1.42-.16,2.55,0,4.48,1.59,4.48,3.78,0,2.37-1.8,4.24-5.43,4.24-2.09,0-3.66-.96-3.66-2.46,0-1.21,1.09-2.34,2.68-2.34,1.86,0,2.98,1.14,3.19,2.57.83-.44,1.25-1.12,1.25-2.04,0-1.35-1.35-2.27-3.12-2.27-2.29,0-3.79,1.21-5.4,3.04l-1.37-1.41c1.06-.85,2.88-2.38,3.77-3.12.84-.69,2.4-1.95,3.13-2.59-.77.01-2.84.1-3.63.15-.4.03-.88.08-1.23.12l-.06-1.95c.42.06.94.07,1.37.07Zm2.7,10.51c.31,0,.6-.01.87-.05-.09-.97-.65-1.6-1.46-1.6-.57,0-.93.35-.93.72,0,.55.62.93,1.52.93Z"/>
          <path class="cls-1" d="m143.9,63c0-.79.57-1.33,1.32-1.33s1.32.54,1.32,1.33-.57,1.32-1.32,1.32-1.32-.54-1.32-1.32Zm.15-7.8l-.07-2.23h2.49l-.08,2.23-.4,5.13h-1.53l-.41-5.13Z"/>
        </g>
        <g>
          <path class="cls-1" d="m94.74,25.61c-.19-.3-.52-.75-.85-1.16v3.77h-1.17v-3.7c-.41.89-.89,1.74-1.38,2.31-.12-.33-.39-.84-.58-1.14.63-.67,1.29-1.78,1.71-2.76h-1.47v-1.13h1.72v-1.22c-.49.09-.98.17-1.45.23-.05-.26-.2-.67-.34-.91,1.31-.21,2.78-.56,3.66-.97l.84.91c-.46.18-.99.34-1.54.48v1.48h1.51v1.13h-1.51v.24c.35.32,1.32,1.3,1.56,1.55l-.71.89Zm4.27,2.63c-.03-.27-.09-.59-.16-.92-1.49.22-3.02.43-4.18.57l-.28-1.25c.27-.02.59-.05.93-.08.54-2.08,1.07-5.05,1.3-7.44l1.36.22c-.33,2.36-.87,5.09-1.42,7.1.64-.07,1.32-.14,2-.22-.22-.72-.49-1.48-.77-2.14l1.14-.32c.6,1.31,1.18,2.99,1.34,4.08l-1.26.4Z"/>
          <path class="cls-1" d="m104.84,20.33c-.02.11-.05.24-.08.38.56-.08,1.12-.19,1.67-.32v1.25c-.6.14-1.28.25-1.95.33-.09.43-.19.87-.3,1.28-.36,1.4-1.03,3.44-1.59,4.63l-1.39-.47c.6-1,1.36-3.1,1.73-4.5.07-.27.15-.55.21-.84-.23.01-.45.02-.66.02-.48,0-.86-.02-1.21-.04l-.03-1.25c.51.06.85.08,1.26.08.29,0,.59-.01.9-.03.04-.22.07-.41.09-.57.04-.37.06-.78.03-1.01l1.53.12c-.08.27-.17.72-.21.94Zm1.2,5.43c0,.44.3.77,1.37.77.67,0,1.36-.08,2.08-.21l-.05,1.28c-.56.07-1.24.14-2.04.14-1.68,0-2.59-.58-2.59-1.59,0-.46.1-.94.18-1.34l1.19.12c-.08.28-.14.61-.14.83Zm1.52-3.45c.57,0,1.17.03,1.76.09l-.03,1.2c-.5-.06-1.11-.12-1.72-.12-.68,0-1.3.03-1.93.1v-1.17c.56-.05,1.28-.1,1.92-.1Z"/>
          <path class="cls-1" d="m113.82,20.42c-.02.09-.04.2-.06.31,1.14-.06,2.49-.21,3.7-.47l.02,1.19c-1.04.17-2.63.36-3.97.43-.14.61-.3,1.25-.45,1.74.81-.45,1.59-.63,2.48-.63,1.62,0,2.69.86,2.69,2.14,0,2.25-2.17,3.06-5.4,2.71l-.35-1.29c2.19.36,4.4.09,4.4-1.38,0-.6-.51-1.1-1.49-1.1-1.15,0-2.17.41-2.77,1.17-.11.14-.18.27-.28.44l-1.18-.42c.48-.93.88-2.26,1.14-3.36-.63,0-1.22-.04-1.73-.09v-1.24c.6.1,1.35.18,1.96.19.02-.15.04-.29.06-.41.06-.43.07-.68.05-1.01l1.42.06c-.11.35-.17.69-.24,1.02Z"/>
          <path class="cls-1" d="m123.24,20.25c-.03.17-.07.44-.11.77.72-.01,1.36-.07,1.83-.14l-.04,1.19c-.6.06-1.15.1-1.95.1-.06.44-.12.91-.17,1.36h.07c.62,0,1.36-.04,2.01-.12l-.03,1.19c-.56.05-1.14.09-1.77.09h-.4c-.02.3-.04.55-.04.73,0,.83.51,1.27,1.49,1.27,1.4,0,2.16-.64,2.16-1.46,0-.68-.37-1.32-1.03-1.94l1.41-.3c.66.84.97,1.55.97,2.4,0,1.51-1.36,2.59-3.55,2.59-1.57,0-2.68-.68-2.68-2.35,0-.24.03-.6.07-1.01-.73-.07-1.39-.18-1.92-.33l.07-1.21c.65.22,1.32.33,1.97.4.06-.45.12-.92.17-1.37-.69-.07-1.4-.19-1.99-.36l.07-1.15c.58.19,1.33.32,2.06.38.03-.31.06-.58.08-.81.03-.47.03-.67.01-.89l1.41.08c-.09.36-.13.63-.17.89Z"/>
          <path class="cls-1" d="m78.7,41.23c.85.78,2.07,1.49,3.23,1.88-.28.24-.66.72-.85,1.03-1.17-.49-2.37-1.35-3.28-2.33v2.43h-1.23v-2.38c-.9.96-2.06,1.77-3.22,2.26-.19-.29-.56-.76-.82-1,1.14-.39,2.32-1.1,3.15-1.89h-2.02v-3.82h2.91v-.57h-3.76v-1.11h3.76v-.82h1.23v.82h3.85v1.11h-3.85v.57h3.05v3.82h-2.15Zm-3.89-2.34h1.76v-.59h-1.76v.59Zm0,1.45h1.76v-.61h-1.76v.61Zm2.99-2.04v.59h1.84v-.59h-1.84Zm1.84,1.43h-1.84v.61h1.84v-.61Z"/>
          <path class="cls-1" d="m85.59,40.93c.36.25,1.19.91,1.42,1.09l-.69.85c-.16-.2-.44-.5-.73-.78v2.13h-1.15v-2.01c-.39.56-.84,1.06-1.27,1.41-.18-.26-.52-.65-.77-.84.65-.43,1.34-1.18,1.8-1.93h-1.52v-1h1.76v-.77h-1.79v-.98h.92c-.04-.33-.16-.76-.3-1.1l.61-.14h-1.12v-.97h1.68v-.91h1.15v.91h1.66v.97h-1.03l.58.11c-.18.43-.34.83-.48,1.13h1.01v.98h-1.74v.77h1.65v1h-1.65v.08Zm-1.38-4.07c.17.34.3.8.34,1.1l-.5.14h1.96l-.66-.14c.13-.3.29-.76.37-1.1h-1.51Zm7.66,2.43h-.95v4.89h-1.15v-4.89h-1.02c-.01,1.49-.22,3.6-1.54,4.97-.15-.26-.58-.67-.85-.81,1.15-1.22,1.27-2.92,1.27-4.3v-3.46l.69.19c.95-.23,1.94-.55,2.55-.88l.95.87c-.88.39-2.02.7-3.07.92v1.4h3.12v1.1Z"/>
          <path class="cls-1" d="m101,37.12c-.47.78-1.42,2.04-2.4,2.74l-1.04-.83c.8-.49,1.58-1.37,1.84-1.86h-5.21c-.42,0-.75.03-1.22.07v-1.39c.38.06.8.1,1.22.1h5.39c.28,0,.83-.03,1.02-.09l.79.74c-.11.13-.3.37-.39.52Zm-6.46,6.81l-1.17-.95c.32-.11.68-.28,1.05-.55,1.27-.88,1.51-1.94,1.51-3.58,0-.31-.02-.58-.07-.9h1.45c0,2.48-.05,4.52-2.77,5.98Z"/>
          <path class="cls-1" d="m105.72,37.69c1.03-.64,2.17-1.64,2.82-2.43l1.08,1.03c-.76.75-1.72,1.53-2.69,2.17v4.04c0,.44.02,1.06.09,1.31h-1.58c.04-.24.07-.87.07-1.31v-3.2c-1.03.54-2.3,1.08-3.53,1.44l-.63-1.26c1.79-.46,3.26-1.11,4.37-1.79Z"/>
          <path class="cls-1" d="m118.23,39.02c-.3.97-.73,1.94-1.48,2.77-1.01,1.12-2.29,1.8-3.57,2.16l-.99-1.13c1.5-.31,2.7-.97,3.46-1.75.54-.55.85-1.17,1.03-1.73h-4.83c-.24,0-.74,0-1.16.05v-1.3c.42.03.85.06,1.16.06h4.95c.32,0,.59-.04.73-.1l.89.55c-.07.13-.15.31-.19.42Zm-5.58-3.27h3.85c.31,0,.8,0,1.08-.05v1.29c-.27-.02-.74-.03-1.1-.03h-3.83c-.32,0-.75.01-1.04.03v-1.29c.28.04.7.05,1.04.05Z"/>
          <path class="cls-1" d="m123.65,41.12c1.71-1.01,3.01-2.54,3.64-3.89l.78,1.41c-.76,1.35-2.09,2.73-3.7,3.7-1.01.61-2.3,1.17-3.71,1.41l-.84-1.32c1.56-.22,2.86-.73,3.83-1.31Zm0-3.23l-1.02,1.04c-.52-.56-1.77-1.65-2.5-2.16l.94-1c.7.47,2,1.51,2.58,2.12Z"/>
          <path class="cls-1" d="m130.3,36.81c0-.36-.03-.85-.1-1.21h1.56c-.04.35-.09.79-.09,1.21v1.46c1.33.4,3.26,1.11,4.18,1.56l-.56,1.39c-1.04-.55-2.54-1.13-3.62-1.49v2.83c0,.28.05.98.1,1.39h-1.57c.06-.39.1-1,.1-1.39v-5.75Zm4.9.63l-.87.39c-.29-.63-.51-1.03-.88-1.55l.84-.35c.28.42.68,1.06.91,1.51Zm1.34-.58l-.84.41c-.32-.63-.56-1-.93-1.5l.83-.39c.29.4.71,1.03.94,1.48Z"/>
          <path class="cls-1" d="m139.71,36.6c-.13.67-.48,2.67-.48,3.67,0,.19,0,.45.04.65.15-.34.31-.69.45-1.02l.62.49c-.28.83-.61,1.92-.72,2.45-.03.15-.05.37-.05.47,0,.11,0,.27.02.41l-1.16.08c-.2-.69-.39-1.91-.39-3.27,0-1.5.31-3.19.42-3.96.03-.28.09-.66.1-.98l1.4.12c-.08.21-.21.71-.25.89Zm2.47,4.89c0,.44.38.71,1.4.71.89,0,1.63-.08,2.51-.26l.02,1.35c-.65.12-1.45.19-2.58.19-1.72,0-2.55-.61-2.55-1.64,0-.39.06-.79.17-1.3l1.15.11c-.08.33-.12.57-.12.84Zm3.62-5.12v1.29c-1.23.11-3.04.12-4.3,0v-1.28c1.23.17,3.22.12,4.3-.01Z"/>
        </g>
      </g>
      <g>
        <g>
          <path class="cls-16" d="m27.72,94.4l-.12,1.56c-.11,1.44-.86,2.58-1.8,2.75l-1.03.18,1.03.18c.94.17,1.69,1.31,1.8,2.75l.12,1.57.12-1.57c.11-1.44.86-2.58,1.8-2.75l1.03-.18-1.03-.18c-.95-.17-1.69-1.31-1.8-2.75l-.12-1.56Z"/>
          <path class="cls-16" d="m60.19,89.27l-.12,1.56c-.11,1.44-.86,2.58-1.8,2.75l-1.03.18,1.03.18c.94.17,1.69,1.31,1.8,2.75l.12,1.57.12-1.57c.11-1.44.86-2.58,1.8-2.75l1.03-.18-1.03-.18c-.95-.17-1.69-1.31-1.8-2.75l-.12-1.56Z"/>
          <path class="cls-16" d="m23.17,142.81l-.12,1.56c-.11,1.44-.86,2.58-1.8,2.75l-1.03.18,1.03.18c.94.17,1.69,1.31,1.8,2.75l.12,1.57.12-1.57c.11-1.44.86-2.58,1.8-2.75l1.03-.18-1.03-.18c-.95-.17-1.69-1.31-1.8-2.75l-.12-1.56Z"/>
          <path class="cls-16" d="m46.8,100.5l-.07.85c-.06.78-.47,1.41-.98,1.49l-.56.1.56.1c.51.09.92.71.98,1.49l.07.85.06-.85c.06-.78.47-1.4.98-1.49l.56-.1-.56-.1c-.52-.08-.92-.71-.98-1.49l-.06-.85Z"/>
          <path class="cls-16" d="m41.11,148.01l-.07.85c-.06.78-.47,1.41-.98,1.49l-.56.1.56.1c.51.09.92.71.98,1.49l.07.85.06-.85c.06-.78.47-1.4.98-1.49l.56-.1-.56-.1c-.52-.08-.92-.71-.98-1.49l-.06-.85Z"/>
          <path class="cls-16" d="m85.93,100.62l-.07.85c-.06.78-.47,1.41-.98,1.49l-.56.1.56.1c.51.09.92.71.98,1.49l.07.85.06-.85c.06-.78.47-1.4.98-1.49l.56-.1-.56-.1c-.52-.08-.92-.71-.98-1.49l-.06-.85Z"/>
        </g>
        <g>
          <path class="cls-6" d="m73.11,143.07c-6.42-.93-7.99-3.29-11.62-7.4-.11-.03-.29-.09-.35-.19,3.88.32,7.82-.09,11.54-1.23l.15.05c1.14,1.94.96,5.1,1.53,9.11-.38-.12-.8-.23-1.26-.34h0Z"/>
          <path class="cls-6" d="m79.2,145.59c-.24-2.99.75-9.56.25-13.46,4.08,4.52,8.44-1.39,17.57,5.34.03,0-.94,10.62-5.67,12.43,0,0-4.02-.49-8.93-2.66-.86-.58-2.34-1.21-3.21-1.65h0Z"/>
          <path class="cls-13" d="m66.77,149.87c-.23-.75.62-1.15,1.12-1.52l-.02.08s.06-.03.09-.05c-1.53-.78,2.75-1.61,3.16-1.73,1.63-.07,2.51.03,4.07-.44h3.69c-1.27,3.36-5.65,5.78-7.85,6.97-1.63-.53-3.57-1.68-4.27-3.31h0Zm6.07-15.58c1.14,1.92.99,5.34,1.56,9.31-8.52-2.21-7.65-2.4-13.25-8.13,3.88.32,7.82-.09,11.54-1.23l.15.05h0Zm-62.33-9.75c-.89.95-1.33,2.48-.98,3.74,0,0,16.02,6.75,17.93,7.34,1.91.59,12.75,2.41,13.7,3.26.95.85,3.99,5.59,9,8.85,11.52,7.5,24.63,12.88,25.17,12.77,3.04-1.5,6.65-11.17,7.56-12.86l-.13-.05c-.79-.86-2.59-1.44-3.56-1.99-.54-3.84,1.96-13.6-1.09-17.28-2.6-1.07-5.41-.98-9.12-1.14-4.87,2.5-10.84,5.41-16.45,5.97-3.13.23-7.61-.81-9.36-3.35-.49-.49-2.21-.5-2.28-.78-.09-.12-11.68-.3-13.29-.83-1.51-.48-17.09-3.63-17.09-3.63h0Z"/>
          <path class="cls-15" d="m67.07,148.99c.4-.34.37-.38.82-.64l-.02.08s.06-.03.09-.05c-1.53-.78,2.75-1.61,3.16-1.73,1.63-.07,2.51.03,4.07-.44h3.69c-.62,2.46-6.9,7.36-8.42,6.82-1.16-.67-4.75-2.42-3.41-4.04h0Z"/>
          <path class="cls-6" d="m51.42,129.11c-4.16.43-7.46.77-7.59.78.02-.01,3.36-.35,7.59-.78h0Zm17.48-1.79h-.13c-.05.02-.76.09-1.89.21,1.07-.11,1.7-.19,1.7-.2.08,0,.21,0,.32,0h0Zm-25.07,2.57l-.65.07c6.73,7.06,18.72.86,25.88-2.65,0,0-.02.01-.06.03,2.98.06,5.87.23,7.73.66-2.48-3.4-5.48-7.29-9.53-6.24-5.41,1.03-13.06,3.9-17.85,6.47-2.71,1.46-5.87,1.56-6.11,1.46,0,0,.58.2.58.2h0Z"/>
          <path class="cls-6" d="m55.42,125.12c-.47.22-.88.53-1.35.76-.3.15-.58.32-.88.47-.28.14-.59.26-.91.25-.28-.46-.55-1.01-.43-1.55.11-.48.39-.89.6-1.32.16-.32.29-.66.44-.99.16-.37.33-.73.55-1.07.11-.17.23-.33.38-.47.35,1.01.64,2.32.77,2.79.19.67.49.98.85,1.12-.01,0-.02.01-.03.02h0Z"/>
          <path class="cls-3" d="m141.89,152.28s1.6-1.41,2.5-1.19c.9.22,1.78,1.75,2.56,2.85.51.72.75,1.22,1.21,1.62,2.61,2.24,4.11,4.53,5.24,6.69,2.13,4.06-1.12,3.13-1.12,3.13l-10.39-13.1h0Z"/>
          <path class="cls-14" d="m144.42,158.65s-.09-.04-.14-.06l.16.02s-.01.03-.02.04h0Zm-4.14-1.2c.37,2.13-.11,3.21-.28,3.54-.02.03-.32.08-.84.15.27.16.55.24.8.17.5-.13.96-.38,1.6-.5,0,0,2.64-.35,5.82,2.07.79.6,1.55,1.24,2.49,1.79,1.44.86,3.38,1.16,3.16-.31-.26-1.73-2.51-4.81-4.08-6.32-1.94-1.87-2.86-2.64-3.44-3.43-.49-.67-.89-1.19-1.23-1.57-.48.05-1.03.03-1.55-.06-.55-.1-1.07-.23-1.58-.37-.67.34-1.32.73-2.1,1.17-.29.16-.56.31-.82.45.64.54,1.82,1.95,2.04,3.21h0Z"/>
          <path class="cls-1" d="m149.8,159.46s0,0-.01.01c-.67.45-.84.71-.95.88-.13.2-.26.35-.62.42-.51.1-1.17-.3-2.09-.84-1.02-.6-2.29-1.35-3.56-1.51-2.37-.29-3.86.34-4.04.53-.27.29-.13.78.09,1.15.34.57.92.97,1.26.88.18-.05.37-.12.56-.19.8-.3,1.8-.67,3.79-.05,1.58.49,2.66,1.33,3.8,2.21.63.48,1.27.99,2.02,1.43.98.58,2.11.84,2.52.56.05-.03.21-.14.15-.54-.2-1.3-1.59-3.41-2.9-4.96h0Zm2.27,6.27c-.74,0-1.66-.34-2.37-.76-.78-.46-1.44-.98-2.08-1.48-1.09-.85-2.12-1.64-3.59-2.1-1.77-.55-2.58-.25-3.36.04-.2.07-.41.15-.62.21-.74.2-1.56-.45-2-1.18-.44-.75-.44-1.48,0-1.95.39-.41,2.13-1.04,4.6-.73,1.4.17,2.74.96,3.81,1.59.64.38,1.37.81,1.63.76q.12-.02.19-.14c.13-.2.35-.52,1.08-1.03-.22-.25-.44-.47-.64-.67-.54-.51-.99-.94-1.39-1.32-1.03-.97-1.66-1.56-2.09-2.16-1.85-2.55-2.3-2.61-2.83-2.4-.91.35-1.66.79-2.53,1.29-.21.12-.43.25-.66.38-1.24.7-2.09,1.09-3.37,1.67-1.14.51-2.59.93-4.13,1.38-.27.08-.54.16-.81.23-.18.05-.36-.05-.41-.22-.05-.17.05-.36.22-.41.27-.08.54-.16.81-.24,1.52-.44,2.95-.85,4.05-1.34,1.27-.57,2.1-.95,3.32-1.64.23-.13.45-.26.66-.38.89-.52,1.67-.96,2.62-1.33,1.05-.41,1.79.13,3.6,2.63.4.55.97,1.09,2.01,2.07.4.37.85.8,1.39,1.32,1.53,1.47,3.89,4.63,4.18,6.5.1.67-.18,1.02-.43,1.19-.23.15-.52.22-.85.22h0Z"/>
          <path class="cls-1" d="m152.97,165.8c.41,0,.89-.1,1.19-.48.5-.61.34-1.67-.48-3.23-.98-1.88-2.48-4.35-5.32-6.79-.29-.25-.48-.54-.75-.95-.12-.18-.25-.38-.4-.6-.13-.18-.26-.38-.39-.58-.73-1.08-1.48-2.2-2.36-2.41-1.03-.25-2.62,1.11-2.79,1.27-.14.12-.15.33-.03.47.12.14.33.15.47.03.57-.5,1.67-1.25,2.2-1.12.62.15,1.37,1.25,1.97,2.13.14.2.27.4.4.59.15.21.28.41.39.58.29.44.51.79.87,1.09,2.76,2.37,4.21,4.77,5.16,6.6.88,1.69.72,2.29.55,2.51-.28.34-1.04.22-1.29.15-.17-.05-.36.05-.41.23-.05.18.05.36.23.41.07.02.4.11.79.11h0Z"/>
          <path class="cls-1" d="m134.19,161.54s.09,0,.13-.03c1.66-.7,3.58-1.35,3.6-1.36.17-.06.26-.25.21-.42-.06-.17-.25-.26-.42-.21-.02,0-1.96.67-3.64,1.37-.17.07-.25.26-.18.43.05.13.18.2.3.2h0Z"/>
          <path class="cls-1" d="m138.96,158.49c.06,0,.12-.02.17-.05.16-.09.21-.3.11-.45-.3-.49-.3-.95-.29-1.4,0-.95-.12-1.65-1.79-1.98-.18-.04-.35.08-.39.26-.04.18.08.35.26.39,1.27.26,1.27.61,1.26,1.33,0,.49,0,1.09.39,1.74.06.1.17.16.28.16h0Z"/>
          <path class="cls-1" d="m147.22,156.75c.14,0,.28-.09.32-.24.05-.18-.05-.36-.23-.41-1.35-.39-2.06-.24-2.64-.12-.34.07-.61.13-.96.07-.18-.03-.38-.08-.6-.13-1.06-.24-2.5-.57-4.45-.08-.18.04-.28.22-.24.4.04.18.22.29.4.24,1.8-.45,3.16-.14,4.15.09.23.05.43.1.63.13.48.09.85,0,1.21-.07.53-.11,1.13-.24,2.32.1.03,0,.06.01.09.01h0Z"/>
          <path class="cls-1" d="m147.43,163.24c.06,0,.13-.02.19-.06.15-.1.19-.31.08-.46-.47-.67.14-1.85.47-2.36.02-.03.05-.07.07-.1.1-.15.07-.35-.08-.46-.15-.1-.35-.07-.46.07,0,0-.02.03-.05.07-.33.47-.72.98-1.02,1.3,0-.11.01-.21.02-.32.09-1.57.07-1.91-.25-2.04-.41-.17-.6.28-.96,1.16-.05.13-.12.29-.19.44-.05-.28-.1-.62-.13-.87-.14-1.05-.2-1.52-.65-1.47-.27.03-.31.14-.73,1.55-.02.06-.04.12-.05.18-.16-.42-.3-.98-.4-1.37-.22-.87-.3-1.16-.63-1.18-.09,0-.19.03-.26.09-.17.15-.19.39-.25,1.46-.01.25-.03.59-.05.88-.19-.3-.43-.7-.62-1.02-.77-1.28-.81-1.36-1.08-1.33-.12.01-.23.09-.29.2-.23.44.16,2.44.54,3.16.09.16.29.22.45.13.16-.09.22-.29.13-.45-.2-.37-.36-1.02-.45-1.58.04.07.08.14.12.21.51.85.86,1.43,1.05,1.62.12.12.27.16.42.1.28-.11.35-.41.41-1.54.21.77.43,1.37.75,1.66.08.08.2.11.31.07q.2-.06.52-1.1c.02-.08.05-.17.08-.26,0,.03,0,.06.01.09.16,1.23.26,1.7.62,1.81.4.12.58-.3.94-1.15,0,.19-.02.38-.03.53-.06,1.07-.07,1.23.24,1.31.1.03.26.07.64-.26-.03.4.04.8.28,1.15.06.09.17.14.27.14h0Z"/>
          <path class="cls-3" d="m130.84,144.27s.99-1.89,1.91-2.01c.92-.12,2.29.99,3.41,1.75.73.49,1.13.87,1.7,1.08,3.24,1.16,5.46,2.76,7.29,4.37,3.44,3.03.07,3.32.07,3.32l-14.38-8.51h0Z"/>
          <path class="cls-14" d="m135.33,149.31l.15-.04s0,.03,0,.05c-.05,0-.1,0-.15,0h0Zm7.4,3.69c.52.09,1.07.11,1.55.06,1.05-.12,1.79-.59,1.29-1.48-.87-1.52-4.07-3.59-6.07-4.44-2.48-1.05-3.62-1.44-4.44-1.97-2.66-1.73-3.3-1.75-3.9-1.2-.92.83-1.54,1.67-2.42,2.74-.44.54-.82.96-1.22,1.39.78.12,2.16.46,3.13,1.4,1.66,1.6,1.85,2.85,1.78,3.51-.01.15-.07.28-.14.4.41-.3.75-.69,1.3-1.03,0,0,2.34-1.27,6.17-.15.46.13.92.28,1.39.41.5.14,1.02.27,1.58.37h0Z"/>
          <path class="cls-1" d="m136.6,151.34c1.4,0,2.56.35,3.79.72.76.23,1.54.47,2.4.61,1.12.19,2.27.03,2.55-.38.04-.05.14-.2-.06-.56-.65-1.14-2.7-2.62-4.48-3.59,0,0,0,.01-.01.02-.46.66-.53.97-.57,1.17-.05.24-.11.42-.43.61-.44.27-1.2.14-2.25-.03-1.17-.2-2.62-.44-3.86-.13-2.32.57-3.48,1.7-3.59,1.95-.15.36.16.78.49,1.05.52.41,1.2.58,1.5.37.15-.11.3-.24.46-.38.64-.56,1.44-1.27,3.52-1.4.19-.01.37-.02.55-.02h0Zm-4.87,2.55c-.53,0-1.12-.25-1.56-.6-.68-.54-.94-1.22-.69-1.82.22-.52,1.62-1.73,4.04-2.33,1.37-.34,2.9-.08,4.13.12.73.12,1.57.26,1.8.12q.1-.06.13-.2c.05-.23.14-.61.64-1.35-.3-.15-.58-.28-.84-.39-.69-.29-1.27-.53-1.77-.73-1.31-.54-2.1-.86-2.72-1.27-2.64-1.71-3.08-1.61-3.5-1.23-.72.66-1.27,1.33-1.91,2.11-.15.19-.31.39-.48.59-.91,1.1-1.56,1.77-2.55,2.76-.88.88-2.09,1.79-3.36,2.76-.22.17-.45.34-.67.51-.14.11-.35.08-.46-.06-.11-.15-.08-.35.06-.46.23-.17.45-.34.68-.51,1.26-.95,2.45-1.85,3.29-2.7.98-.98,1.62-1.64,2.51-2.72.17-.2.33-.4.48-.59.65-.8,1.21-1.49,1.97-2.18.83-.75,1.72-.52,4.3,1.16.57.37,1.3.67,2.61,1.21.5.21,1.09.45,1.78.74,1.95.82,5.29,2.93,6.23,4.58.34.59.2,1.01.02,1.26-.52.74-2.02.85-3.2.65-.89-.15-1.7-.4-2.47-.63-1.32-.4-2.57-.78-4.1-.68-1.85.12-2.5.69-3.13,1.24-.16.14-.33.29-.51.42-.21.15-.46.22-.73.22h0Z"/>
          <path class="cls-1" d="m145.22,153.11s.02,0,.03,0c.14-.01,1.42-.15,1.72-1.05.25-.75-.28-1.68-1.6-2.85-1.59-1.4-3.87-3.18-7.4-4.44-.36-.13-.64-.33-1.04-.62-.18-.13-.37-.27-.59-.42-.19-.12-.38-.26-.57-.4-1.07-.75-2.17-1.52-3.06-1.4-1.06.14-2.04,1.97-2.15,2.18-.08.16-.02.36.14.45.16.09.36.02.45-.14.35-.67,1.11-1.76,1.66-1.83.64-.09,1.73.68,2.6,1.29.2.14.4.28.58.4.22.15.4.28.57.4.42.31.76.55,1.2.71,3.42,1.22,5.64,2.95,7.18,4.31,1.43,1.26,1.5,1.88,1.41,2.14-.14.42-.89.58-1.15.6-.18.02-.32.18-.3.36.01.17.16.3.33.3h0Z"/>
          <path class="cls-1" d="m129.28,149.35c.07,0,.13-.02.19-.06,1.52-1.06,2.9-1.26,3.91-1.4.23-.03.44-.06.63-.1.48-.09.8-.3,1.11-.5.45-.29.97-.63,2.2-.73.18-.02.32-.18.3-.36-.02-.18-.17-.32-.36-.3-1.4.12-2.01.52-2.5.84-.29.19-.52.34-.87.4-.18.03-.39.06-.6.1-1.07.15-2.54.37-4.19,1.52-.15.1-.19.31-.08.46.06.09.17.14.27.14h0Z"/>
          <path class="cls-1" d="m132.94,152.71c.09,0,.18-.04.25-.11.12-.14.1-.35-.03-.47-.32-.27-.7-.83-.98-1.32.06.05.13.1.19.15.78.61,1.31,1.02,1.56,1.14.15.07.31.05.43-.06.23-.2.18-.5-.17-1.59.47.65.89,1.13,1.29,1.28.11.04.23.03.32-.04q.17-.12.09-1.21c0-.08-.01-.18-.02-.28.01.03.03.05.04.08.59,1.09.85,1.49,1.23,1.47.41-.03.44-.49.46-1.41.06.18.12.36.16.5.33,1.02.38,1.17.69,1.14.1-.01.27-.03.5-.48.11.38.32.73.67.97.15.1.36.06.46-.09.1-.15.06-.36-.09-.46-.79-.54-.45-2.17-.38-2.44,0-.02,0-.03.01-.05.04-.18-.06-.35-.24-.4-.18-.04-.35.06-.4.23,0,0-.01.04-.02.09-.14.56-.33,1.17-.48,1.58-.03-.1-.07-.2-.1-.3-.48-1.49-.61-1.81-.96-1.82-.44,0-.46.47-.49,1.43,0,.14,0,.32-.02.48-.15-.24-.31-.55-.44-.77-.5-.93-.73-1.35-1.13-1.14-.24.13-.24.24-.13,1.71,0,.06,0,.12.01.19-.3-.34-.63-.8-.86-1.13-.52-.73-.69-.98-1.01-.88-.08.03-.17.1-.21.18-.1.2-.04.43.29,1.45.08.24.18.56.26.84-.29-.22-.65-.5-.94-.73-1.17-.92-1.25-.98-1.48-.86-.11.06-.18.16-.2.29-.06.49,1.02,2.22,1.64,2.75.06.05.14.08.22.08h0Z"/>
          <path class="cls-15" d="m118.6,127.85c.58-.78.75-1.81,1.29-2.62.45-.68,1.15-1.2,1.94-1.41.6-.17,1.24-.16,1.85-.3.38-.08.76-.22,1.14-.29.92-.16,1.85.07,2.75.29-.33.28-.68.54-1.01.81-2.1,1.69-3.94,3.71-5.42,5.96-.03.05-.07.1-.12.12-.07.02-.14-.03-.2-.07-.66-.5-1.4-.91-2.19-1.19-.24-.09-.82-.15-.78-.49.02-.2.61-.61.75-.79h0Z"/>
          <path class="cls-12" d="m116.82,123.75c1.13-.54,2.26-.78,4.07-1.32,1.83-.51,5.16-1.94,7.46-2.35,1.71-.3,2.01.05,1.88.79h-.02c.19.44-.33,1.17-1.51,1.95-.27.19-.57.39-.85.62-.09.09-.73-.08-2.04-.22-1.58-.13-4.1.6-5.24,1.38-.89.61-1.21,1.98-1.69,2.81-.41.72-1.09,1.04-1.13.96-.2-.41-.38-.8-.54-1.2-.28-.65-.59-1.25-.67-1.73-.32-.78-.82-1.18.27-1.69h0Z"/>
          <path class="cls-1" d="m116.59,130.94c.11,0,.21-.05.28-.15.17-.26.36-.5.55-.72.48-.59.93-1.14.65-1.82-.07-.17-.26-.25-.43-.18-.17.07-.25.26-.18.43.12.3-.12.62-.55,1.15-.18.23-.39.48-.58.77-.1.15-.06.36.09.46.06.04.12.05.18.05h0Z"/>
          <path class="cls-1" d="m125.42,122.88c.14,0,.28,0,.43.02.56.06,1,.12,1.32.17.21.03.43.06.54.07.25-.2.51-.38.74-.54l.07-.05c1.13-.75,1.42-1.29,1.41-1.49,0-.03,0-.09-.12-.15-.22-.08-1.51.1-3.25.62-1.19.37-3.2,1.09-4.27,1.48-.4.14-.67.24-.75.27-.37.12-.8.24-1.26.37-1.23.35-2.76.78-3.27,1.21-.32.27-.08.87.34,1.81.06.12.11.25.17.38.12.31.26.61.41.92.19-.12.47-.35.68-.72.14-.24.27-.54.4-.85.33-.75.69-1.6,1.39-2.07,1.06-.73,3.33-1.45,5.03-1.45h0Zm-7.64,5.84h0c-.14,0-.26-.07-.33-.2-.21-.43-.39-.82-.55-1.21-.05-.12-.11-.25-.16-.37-.46-1.01-.89-1.97-.17-2.58.62-.52,2.1-.94,3.52-1.34.45-.13.88-.25,1.24-.36.08-.02.34-.12.73-.26,1.08-.39,3.1-1.12,4.31-1.49.31-.09,3.08-.9,3.74-.58.3.15.47.41.48.71.04.76-.9,1.55-1.69,2.07l-.07.05c-.25.17-.51.35-.75.55-.17.15-.36.12-.99.03-.32-.05-.75-.11-1.29-.17-1.54-.12-4,.62-5.02,1.32-.54.37-.85,1.09-1.15,1.79-.14.33-.28.64-.44.92-.4.7-1.08,1.14-1.39,1.14h0Z"/>
          <path class="cls-1" d="m120.13,132.4c.12,0,.23-.06.29-.18,1.32-2.53,1.98-3.28,2.97-4.41.26-.3.56-.64.9-1.05.48-.63,2.73-2.37,3.57-3.02.14-.11.17-.32.06-.46-.11-.14-.32-.17-.46-.06-1.56,1.21-3.22,2.53-3.68,3.14-.32.39-.62.73-.88,1.03-1.02,1.17-1.7,1.94-3.06,4.54-.08.16-.02.36.14.45.05.03.1.04.15.04h0Z"/>
          <path class="cls-1" d="m116.56,125.8s.08,0,.12-.02c.17-.07.25-.26.19-.43-.07-.17-.14-.32-.21-.46-.1-.21-.2-.41-.17-.5.02-.04.09-.17.47-.34.84-.39,1.67-.63,2.82-.95.37-.1.77-.22,1.21-.35.69-.19,1.61-.52,2.58-.86,1.61-.57,3.44-1.22,4.84-1.48,1.12-.2,1.4-.06,1.47.01.06.06.07.19.03.4-.03.18.09.35.27.38.18.03.35-.09.38-.27.05-.28.08-.69-.21-.98-.33-.33-.94-.39-2.05-.19-1.46.27-3.31.93-4.95,1.51-.96.34-1.86.66-2.54.85-.44.13-.84.24-1.21.35-1.18.33-2.03.57-2.92.99-.46.22-.72.44-.81.72-.12.35.03.67.2,1.01.06.13.13.26.19.41.05.13.18.21.31.21h0Z"/>
          <path class="cls-15" d="m103.79,124.47c.03.46.01.92.07,1.38.1.83.43,1.6.76,2.37.6,1.41,1.2,2.81,1.8,4.22-1.26.48-2.34,1.41-3.01,2.57-.14-.59-.12-1.27-.47-1.76-.14-.19-.4-.34-.47-.56-.07-.23-.2-.4-.21-.64-.05-.96-.9-1.67-1.28-2.56-.2-.46-.26-.98-.28-1.48-.07-1.64.34-3.3,1.14-4.73.22-.39.77-1.51,1.39-1.19.48.25.54,1.9.57,2.38h0Z"/>
          <path class="cls-15" d="m22.18,112.16c1.61.39,4.88,1.12,6.61,1.71,2.03.69,6.09,1.06,6.09,1.06l-.96,3.27s-1.26-.42-2.51-.55c-1.25-.13-3.91.81-5.35.72-.35-.02-.68-.02-.98-.01,0,0-.96.27-1.17.3-1.18.17-1.35-1.36-1.44-2.3-.09-.94.85-1.66,1.33-2.08,0,0,.71.26.29.07-1.07-.5-2.64-.92-3.87-1.47-.84-.38-1.62-.88-1.58-1.28.08-.8,1.94.17,3.55.56h0Z"/>
          <path class="cls-1" d="m24.06,118.73c.18,0,.37,0,.58-.02.41-.02.88-.04,1.4,0,.77.05,1.82-.17,2.84-.38.94-.2,1.92-.4,2.49-.34,1.2.12,2.42.53,2.44.53.17.06.36-.03.42-.21.06-.17-.03-.36-.21-.42-.05-.02-1.31-.43-2.58-.56-.67-.07-1.66.13-2.69.35-.98.2-1.99.41-2.67.37-.56-.04-1.06-.01-1.47,0-.52.02-1.01.04-1.13-.09-.05-.06-.04-.09-.04-.1.02-.09.22-.31.79-.55.39-.16.72-.18,1.1-.2.31-.02.63-.03,1-.13.2-.05.38-.2.48-.39.11-.22.13-.47.04-.73-.19-.55-1.54-1.28-2.63-1.8-.56-.26-1.22-.49-1.93-.74-.66-.23-1.35-.47-1.94-.73-1.01-.46-1.37-.83-1.39-.95.22-.08,1.09.21,1.66.4.48.16.98.33,1.48.45.29.07.63.15,1.01.24,1.76.41,4.16.98,5.57,1.46,2.05.7,6,1.06,6.17,1.08.18.02.34-.12.36-.3.02-.18-.12-.34-.3-.36-.04,0-4.04-.37-6.02-1.05-1.43-.49-3.86-1.06-5.63-1.48-.38-.09-.72-.17-1.01-.24-.47-.11-.95-.27-1.42-.43-1.05-.35-1.81-.6-2.25-.32-.11.07-.26.22-.28.48-.05.52.54,1.06,1.78,1.62.62.28,1.32.52,2,.76.69.24,1.34.46,1.87.71,1.38.65,2.21,1.21,2.29,1.42.03.08.03.14,0,.2-.02.04-.05.06-.07.06-.31.08-.58.1-.87.11-.4.02-.82.04-1.32.25-.69.29-1.09.62-1.18,1.01-.04.17-.04.42.18.68.24.28.6.35,1.09.35h0Z"/>
          <path class="cls-1" d="m24,117.37s.07,0,.1-.02c.17-.06.27-.24.21-.42-.12-.35.15-1.03.79-1.55.14-.11.16-.32.05-.46-.11-.14-.32-.16-.46-.05-.81.65-1.22,1.58-1,2.26.05.14.17.23.31.23h0Z"/>
          <path class="cls-1" d="m23.73,119.01c.07,0,.15,0,.23-.02.22-.03,1.05-.26,1.21-.3.18-.05.28-.23.23-.41-.05-.18-.23-.28-.4-.23-.36.1-.99.26-1.13.28-.2.03-.35,0-.48-.11-.43-.34-.53-1.35-.58-1.9-.07-.71.64-1.31,1.12-1.71l.1-.08c.14-.12.15-.33.04-.47-.12-.14-.33-.15-.47-.03l-.09.08c-.54.46-1.44,1.23-1.34,2.28.07.69.18,1.84.83,2.35.22.17.47.26.76.26h0Z"/>
          <path class="cls-1" d="m25.21,116.98c.18,0,.32-.14.33-.32.01-.38.01-.4.65-.87.15-.11.18-.31.07-.46-.11-.15-.31-.18-.46-.07-.78.57-.9.76-.92,1.38,0,.18.14.33.32.34,0,0,0,0,.01,0h0Z"/>
          <path class="cls-6" d="m38.98,114.78l-5.8-.86c-.48-.07-.96.16-1.2.58-.29.51-.64,1.21-.75,1.84-.08.43-.11.85-.11,1.2,0,.56.39,1.04.93,1.15l7.84,1.68-.92-5.59h0Z"/>
          <path class="cls-1" d="m39.9,120.71c.15,0,.29-.11.32-.26.04-.18-.08-.35-.25-.39l-7.84-1.68c-.39-.08-.68-.43-.67-.83,0-.4.04-.79.1-1.14.11-.59.45-1.27.71-1.73.17-.3.52-.47.86-.42l5.8.86c.18.03.35-.1.37-.28.03-.18-.1-.35-.28-.37l-5.8-.86c-.61-.09-1.23.21-1.53.74-.29.51-.66,1.26-.79,1.94-.07.39-.11.82-.12,1.26,0,.71.5,1.33,1.19,1.48l7.84,1.68s.05,0,.07,0h0Z"/>
          <path class="cls-8" d="m54.29,115.81c-.6-.65-1.01-1.48-1.16-2.36-.12-.68-.07-1.43.33-1.98.34-.46.9-.74,1.47-.72.17,0,.33.03.5,0,.16-.03.3-.12.44-.2,1.46-.84,3.14-1.24,4.8-1.54.49-.09.98-.17,1.48-.21,3.07-.28,6.09.74,9,1.74,2.66.91,5.15,2.28,7.82,3.16.52.17,1.04.34,1.58.39,1.17.12,2.38-.33,3.2-1.17.15.52.27,1.08.09,1.6-.12.36-.39.66-.67.91-.74.65-1.74,1.06-2.71.89.73.23,1.51.26,2.26.38,1.1.17,1.72.4,2.72.88.54.26.92,1.18,1.34,1.6.26.25.6.38.93.51.43.17.86.33,1.3.5.52.2,1.04.4,1.59.48.8.12,2.86.02,3,.18.1.11.14.26.14.41,0,.51-.39.94-.78,1.26-.62.51-1.34.92-2.14,1.06-.93.16-1.89-.05-2.75-.42.45.66,1.06,1.21,1.76,1.59.23.12,1.41.43,1.6.61.36.34-.48.71-.63,1.18-.15.48-.5.87-.92,1.14-.36.23-.77.39-1.19.45-.35.05-.71.04-1.06.03-3.26-.15-6.49-.87-9.49-2.13-2.63-1.1-4.92-2.93-7.48-4.18-.46-.22-.94-.43-1.44-.53-1.03-.21-2.1.03-3.15.02-1.05-.01-2.24-.39-2.66-1.36-.02-.05-.04-.1-.03-.16.02-.09.11-.15.18-.2.38-.26.62-.71.62-1.17,0-.46-.23-.91-.6-1.18-.2-.14-.44-.23-.68-.2-.21.02-.4.13-.59.22-.86.41-1.85.53-2.78.35-.73-.89-1.63-1.79-2.37-2.69-.28-.34-.57-.69-.78-1.08-.14-.26-.26-.54-.47-.75-.21-.21-.54-.34-.81-.2-.24.13-.33.41-.41.67-.2.71-.2,1.52-.4,2.23h0Z"/>
          <path class="cls-11" d="m80.22,153.62c1.31-3.35,2.66-5.98,2.66-5.98l-.13-.05c-.03-.09,5.58,1.94,5.4,1.82,4.28.8,2.17.2,6.33,1.53,1.79.57,3.74,1.39,5.52,1.96,1.68.53,3.36,1.07,5.04,1.6.74.24,1.97.76,2.71,1.01,6.64-2.84,19.15-7.47,19.15-7.47,0,0,.24,0,.61.07.78.12,2.16.46,3.13,1.4,1.66,1.6,1.85,2.85,1.78,3.51-.01.15-.07.28-.14.4-.09.13-.2.23-.35.29-.25.11-.62.28-1.09.5,0,0,6.77-.21,6.77-.21.13,0,.26.03.37.09.07.04.15.1.25.18.64.54,1.82,1.95,2.04,3.21.37,2.13-.11,3.21-.28,3.54-.02.03-.32.08-.84.15-5.04.68-31.05,2.95-31.05,2.95-2.59,1.03-4.54,1.71-5.23,1.75-1.68.09-6.57-1.79-10.83-3.54-1-.04-1.99-.12-2.98-.25-1.44-.19-3.29-.25-4.71-.54-1.68-.44-1.44-.36-3.15-.7-.75-.15-4.06-.64-4.84-1.24,1.14-1.15,2.85-3.43,3.84-5.97h0Z"/>
          <path class="cls-1" d="m102.76,166.18s.09,0,.14,0c2.78-.15,24.79-10.18,29.17-12.19.38-.17.64-.54.68-.96.02-.18-.11-.34-.3-.36-.18-.02-.34.11-.36.3-.02.19-.13.34-.3.42-2.68,1.23-26.22,11.98-28.94,12.13-2.08.12-9.55-3.03-14.01-4.91-1.8-.76-3.1-1.3-3.62-1.46-1.82-.56-4.26-1.12-4.29-1.13-.18-.04-.35.07-.39.25-.04.18.07.35.25.4.02,0,2.44.56,4.24,1.11.49.15,1.84.72,3.56,1.44,4.71,1.98,11.79,4.96,14.17,4.96h0Z"/>
          <path class="cls-15" d="m.4,125.88c.09-.3.23-.66.42-.99.03-.07.07-.14.12-.2.12-.19.26-.37.41-.52.54-.67,1.13-1.29,1.78-1.86.15-.13.31-.27.51-.29.15-.02.31.02.45.07,2.14.66,4.24,1.43,6.3,2.33l-.95,3.28c-1.63-.06-2.46.26-4.05.61-.41.09-1.33,0-2.07-.03-.86-.05-1.64-.01-1.68-.43-.01-.14.08-.27.25-.4-.03,0-.07-.02-.1-.02l.04.07c-.5-.13-.49-.18-.96-.41-.13-.06-.25-.13-.35-.23-.13-.15-.18-.35-.17-.55,0,0,0,0,0-.01-.01-.14.02-.28.06-.41H.4Z"/>
          <path class="cls-1" d="m3.67,127.06c.16,0,.29-.11.32-.27.03-.18-.09-.35-.26-.38-.67-.12-1.89-.79-2.47-1.21-.14-.11-.16-.15-.16-.15,0-.01.01-.06.1-.18.62-.84,1.34-1.61,2.12-2.3.11-.1.23-.2.34-.21.08-.01.2.02.31.06,2.12.65,4.23,1.43,6.26,2.31.17.07.36,0,.43-.17.07-.17,0-.36-.17-.43-2.06-.9-4.19-1.68-6.33-2.34-.16-.05-.37-.11-.6-.08-.28.04-.5.21-.68.37-.82.72-1.56,1.53-2.21,2.4-.09.12-.26.35-.23.63.03.3.24.49.42.63.63.46,1.93,1.18,2.74,1.33.02,0,.04,0,.06,0h0Z"/>
          <path class="cls-1" d="m4.69,126.54c.1,0,.19-.04.26-.12.11-.14.09-.35-.05-.46-.4-.33-.83-1.16-.87-1.67-.01-.18-.17-.32-.35-.3-.18.01-.32.17-.31.35.05.7.57,1.7,1.11,2.14.06.05.13.07.21.07h0Z"/>
          <path class="cls-1" d="m1.81,127.82c.15,0,.28-.1.32-.24.05-.18-.06-.36-.23-.4-.32-.09-.4-.13-.58-.22-.08-.04-.18-.1-.32-.16-.1-.05-.19-.09-.25-.15-.08-.09-.11-.25-.07-.41.04-.2.16-.39.27-.58.09-.16.04-.36-.11-.45-.16-.09-.36-.04-.45.11-.13.22-.28.48-.35.78-.08.38,0,.75.23,1,.13.14.3.23.45.3.13.06.22.11.3.15.22.11.34.17.72.27.03,0,.06.01.09.01h0Z"/>
          <path class="cls-1" d="m2.36,125.4s.08,0,.11-.02l1.48-.54c.17-.06.26-.25.2-.42s-.25-.26-.42-.2l-1.48.54c-.17.06-.26.25-.2.42.05.13.18.22.31.22h0Z"/>
          <path class="cls-1" d="m4.82,128.68c.25,0,.47-.01.63-.05.34-.07.64-.15.92-.21,1.05-.25,1.8-.43,3.05-.39.18,0,.33-.14.34-.32s-.14-.33-.32-.34c-1.33-.05-2.17.15-3.22.41-.28.07-.58.14-.91.21-.3.07-1.02.02-1.6-.02-.13,0-.25-.02-.37-.02-.12,0-.25-.01-.36-.02-.35-.02-.88-.04-1-.13.12-.25,1.41-.71,2.73-.96.02,0,.04,0,.06-.02.37-.14.77-.4,1.17-.64.19-.12.37-.23.53-.32.16-.09.22-.29.13-.45-.09-.16-.29-.22-.45-.13-.17.1-.36.22-.56.34-.34.21-.72.45-1.02.57-1.26.24-3.33.77-3.24,1.68.07.64.83.68,1.64.71.12,0,.23.01.36.02.12,0,.24.01.37.02.4.03.81.05,1.16.05h0Z"/>
          <path class="cls-1" d="m70.98,153.51s.07,0,.1,0c.23-.03.42-.14.56-.23,1.91-1.18,3.76-2.49,5.52-3.88.45-.35,1.03-1.33,1.64-2.39.16-.28.3-.53.37-.62.1-.15.07-.35-.08-.46-.15-.11-.35-.07-.46.08-.08.12-.22.35-.4.67-.41.71-1.09,1.9-1.47,2.2-1.74,1.38-3.58,2.67-5.46,3.84-.09.06-.2.13-.29.13-.1.01-.24-.05-.38-.12-.21-.1-.41-.2-.61-.3-.73-.36-1.42-.69-2.07-1.17-.16-.12-.03-.49.02-.55.45-.55,1.45-1.51,2.07-1.8.16-.08.24-.27.16-.44-.08-.16-.27-.23-.44-.16-.74.35-1.81,1.38-2.31,1.98-.12.15-.28.53-.23.9.03.25.15.45.33.59.7.52,1.42.87,2.18,1.24.2.1.4.19.61.3.19.09.41.19.65.19h0Z"/>
          <path class="cls-1" d="m70.53,151.28s.04,0,.06,0c.18-.03.3-.21.26-.38-.1-.51.11-1.42.42-1.84.11-.15.07-.35-.07-.46-.15-.11-.35-.08-.46.07-.41.56-.66,1.66-.53,2.35.03.16.17.27.32.27h0Z"/>
          <path class="cls-1" d="m67.31,150.92c.09,0,.17-.03.24-.1.13-.13.13-.34,0-.47-.16-.16-.32-.32-.41-.49-.08-.15-.09-.31-.04-.42.04-.07.12-.14.2-.21.12-.1.2-.18.27-.24.15-.14.22-.2.5-.36.16-.09.21-.29.12-.45-.09-.16-.29-.21-.45-.12-.34.19-.44.28-.62.45-.06.06-.14.13-.25.22-.13.11-.26.23-.35.41-.16.3-.14.68.03,1.03.14.27.35.48.54.66.06.06.15.09.23.09h0Z"/>
          <path class="cls-1" d="m70.47,151.01c.17,0,.31-.13.33-.3.02-.18-.12-.34-.3-.36l-1.43-.13c-.18-.02-.34.12-.36.3-.02.18.12.34.3.36l1.43.13s.02,0,.03,0h0Z"/>
          <path class="cls-1" d="m72.71,149.4c.15,0,.28-.1.32-.25.05-.18-.06-.36-.24-.4-.17-.04-.38-.11-.59-.18-.44-.14-.9-.28-1.29-.32-.02,0-.04,0-.06,0-1.32.09-2.66-.02-2.88-.24.11-.12.6-.27.93-.38.11-.04.23-.07.35-.11.11-.04.23-.08.35-.12.55-.18,1.24-.41,1.55-.43.34-.01.65-.02.94-.03,1.08-.03,1.94-.05,3.22-.43.17-.05.27-.24.22-.41-.05-.17-.24-.27-.41-.22-1.19.36-1.97.38-3.04.4-.29,0-.6.01-.95.03-.4.02-1.08.24-1.73.46l-.35.12c-.11.04-.23.07-.34.11-.77.24-1.5.47-1.4,1.11.14.9,2.28.89,3.56.8.33.04.75.17,1.13.29.22.07.44.14.63.19.03,0,.06.01.08.01h0Z"/>
          <path class="cls-1" d="m108.11,164.43s.02,0,.03,0c.08,0,8.02-.7,15.88-1.43,4.62-.43,8.3-.78,10.96-1.05,5.17-.53,5.2-.59,5.31-.8.27-.52.67-1.7.31-3.75-.27-1.53-1.86-3.29-2.46-3.62-.17-.09-.35-.14-.54-.13l-6.76.21c-.18,0-.33.16-.32.34,0,.18.16.33.34.32l6.76-.21c.07,0,.14.01.2.05.45.25,1.9,1.83,2.13,3.16.3,1.71.03,2.72-.19,3.21-1.67.35-19.68,2-31.68,3.05-.18.02-.32.18-.3.36.01.17.16.3.33.3h0Z"/>
          <path class="cls-7" d="m41.03,113.09s.43-.23,1-.23c.48-.01,1.08.21,1.64.1.97-.22,1.68-.8,2.78-.97,1.54-.25,3.49.04,4.71.76.88.49,1.52,1.8,1.83,2.09.32.29.74.09.94.48.23.36-.32.67-.09,1.03.3.48.68,1.76.7,2.59,0,.35-.11,1.55-.92,2.68-.82,1.14-2,3.46-2,3.46l-11.63-5.49s-2.18-1.71-1.45-3.03c.3-.54-.3-.8-.24-1.19,0,0,.69-.1,1.24-.73.86-.98,1.48-1.55,1.48-1.55h0Z"/>
          <path class="cls-9" d="m44.28,129.36c.19,0,.38-.05.57-.09.3-.06.6-.14.89-.22,1.43-.39,2.84-.86,4.23-1.36.58-.21,1.16-.42,1.73-.66.1-.04.2-.09.3-.13-.29-1.16-.36-1.71-.36-1.71,0,0-.92-1.22-1.38-1.66-.15-.18.5-.82.57-1.37.07-.61-.41-1.27-.68-1.44-.44-.28-1.31.06-2.16.18-.66.1-1.23.15-1.62-.23-.18-.17-1.02-.67-1.02-.67,0,0-1.24-.29-1.77-.79-.67-.64-1.25-1.7-1.75-2.16-.32-.29-.72-.19-.91-.1-.83.34-.94,1.18-.96,1.31-.17,1.17.58,3.65.3,4.7-.11.46-.9.6-.91,1.11-.02.42.47.59.72,1.15.46,1.11.82,2.54,1,3.07.45,1.33,1.29,1.38,2.17,1.23.32-.06.67-.1.96-.13.02-.02.04-.04.08-.04h0Z"/>
          <path class="cls-1" d="m40.55,126.51s.05,0,.07,0c.18-.04.29-.22.25-.4-.02-.08-.19-.79-.44-1.16-.1-.15-.23-.27-.35-.39-.16-.15-.32-.31-.33-.44,0,0,0-.02,0-.02-.01-.09.04-.14.3-.34.12-.09.26-.19.38-.32.23-.23.51-.63.39-1.52-.03-.15-.06-.3-.09-.46-.13-.67-.28-1.42-.31-2.25-.03-.93.41-1.68.41-1.68.09-.16.04-.36-.11-.45-.16-.09-.36-.04-.45.11-.02.04-.55.91-.51,2.05.03.88.18,1.66.32,2.36.03.15.06.3.08.44.09.65-.11.86-.2.95-.09.09-.2.17-.3.25-.27.2-.64.47-.56.97.04.36.3.61.52.83.1.1.2.2.27.29.14.2.28.68.34.94.04.15.17.26.32.26h0Z"/>
          <path class="cls-1" d="m49.31,124.19s.07,0,.1-.02c.66-.22,1.56-.65,1.79-1.88.14-.75-.14-1.49-.68-1.84-.54-.35-1.24-.27-1.94.21-.15.1-.19.31-.08.46.1.15.31.19.46.09.47-.33.9-.4,1.21-.2.32.21.48.68.39,1.17-.16.87-.77,1.18-1.35,1.37-.17.06-.27.24-.21.42.05.14.17.23.31.23h0Z"/>
          <path class="cls-1" d="m49.48,122.7c.13,0,.26-.08.31-.21,0,0,.08-.18.23-.31.14-.11.17-.32.06-.46-.11-.14-.32-.17-.46-.06-.3.23-.43.56-.45.59-.07.17.02.36.19.43.04.01.08.02.12.02h0Z"/>
          <path class="cls-1" d="m40.87,120.31c.06,0,.13-.02.18-.06.67-.45,1.25-.2,1.25-.19.17.08.36,0,.44-.16.08-.17,0-.36-.16-.44-.04-.02-.92-.42-1.9.24-.15.1-.19.31-.09.46.06.09.17.15.27.15h0Z"/>
          <path class="cls-1" d="m51.67,125.4s.05,0,.08,0c.22-.03.3-.2.55-.68.24-.47.63-1.26,1.27-2.17,1.62-2.34,1.79-4.52.53-6.46-.1-.15-.3-.2-.46-.1-.15.1-.2.3-.1.46,1.12,1.72.95,3.6-.52,5.73-.66.95-1.07,1.77-1.31,2.25-.04.08-.08.16-.12.23-.15-.15-.45-.5-.99-1.36l-.03-.05c-.1-.15-.3-.2-.45-.1-.15.1-.2.3-.1.45l.03.05c.81,1.29,1.24,1.76,1.63,1.76h0Z"/>
          <path class="cls-2" d="m41.38,121.94c-.03-.32.17-.59.42-.62.25-.02.5.21.53.52.03.32-.17.59-.42.62-.25.02-.5-.21-.53-.52h0Z"/>
          <path class="cls-1" d="m54.13,115.59c.17,0,.32-.14.33-.31.01-.18-.13-.34-.31-.35-.6-.04-.79-.29-1.15-.79-.33-.47-.75-1.04-1.66-1.62-2-1.32-5.66-1.04-7.35.08-.15.1-.19.3-.09.46.1.15.3.19.46.09,1.49-.98,4.91-1.21,6.63-.07.8.51,1.16,1.01,1.48,1.45.37.52.73,1.01,1.64,1.07,0,0,.01,0,.02,0h0Z"/>
          <path class="cls-1" d="m38.18,115.71s.02,0,.03,0c1.01-.1,1.26-.43,1.89-1.22l.05-.06c.75-.95,1.47-1.5,2.58-1.11.17.06.36-.03.42-.2.06-.17-.03-.36-.2-.42-1.57-.55-2.56.36-3.32,1.32l-.05.06c-.6.77-.71.9-1.44.97-.18.02-.31.18-.3.36.02.17.16.3.33.3h0Z"/>
          <path class="cls-1" d="m40.08,120.03c.06,0,.13-.02.18-.06.15-.1.19-.31.09-.46-.18-.26-.41-.51-.67-.77-.48-.49-.98-1-.96-1.56,0-.37.23-.76.69-1.19.13-.12.14-.33.01-.47-.13-.13-.33-.14-.47-.01-.59.56-.88,1.1-.9,1.65-.02.84.6,1.47,1.15,2.04.23.24.45.46.59.67.06.09.17.15.27.15h0Z"/>
          <path class="cls-1" d="m45.48,120.33c.58,0,1.12-.16,1.56-.39.16-.09.22-.29.13-.45-.09-.16-.29-.22-.45-.14-.19.1-1.88.94-3.21-.68-.27-.33-.51-.66-.74-.98-.61-.84-1.13-1.57-1.84-1.65-.37-.04-.73.09-1.11.41-.14.12-.16.33-.04.47.12.14.33.16.47.04.23-.19.42-.28.6-.26.42.05.87.67,1.38,1.38.24.33.48.67.77,1.01.75.91,1.65,1.24,2.48,1.24h0Z"/>
          <path class="cls-1" d="m47.23,121.29c.17,0,.37-.03.58-.1.17-.06.27-.24.21-.42-.06-.17-.25-.27-.42-.21-.59.2-.95-.13-.97-.15-.13-.12-.34-.12-.47,0-.13.13-.13.33,0,.46.02.02.41.4,1.06.4h0Z"/>
          <path class="cls-4" d="m42.6,125.6c-.66.16-1.33.13-1.33.13,0,0,.43,1.49,1.47,1.33,1.04-.2,1.11-1.77,1.11-1.77,0,0-.59.19-1.25.31h0Z"/>
          <path class="cls-1" d="m43.45,125.74c-.22.06-.49.12-.78.18-.33.08-.65.11-.91.13.18.34.49.75.92.68.46-.09.67-.6.76-.99h0Zm-.87,1.66c-1.15,0-1.6-1.51-1.62-1.58-.03-.1,0-.21.06-.3.07-.08.17-.13.27-.13,0,0,.64.03,1.24-.12,0,0,0,0,.02,0,.63-.12,1.21-.3,1.21-.3.1-.03.21-.01.3.05.09.07.13.17.13.28,0,.07-.1,1.84-1.38,2.08-.08.01-.15.02-.22.02h0Z"/>
          <path class="cls-1" d="m42.47,129.9s.09,0,.13,0c1.25-.06,4.09-.45,5.43-.87.17-.05.27-.24.22-.41-.05-.17-.24-.27-.41-.22-1.28.4-4.08.79-5.27.84-.61.04-.87-.23-1.22-1.23-.26-.78-.42-1.4-.59-2.14-.04-.18-.22-.29-.39-.25-.18.04-.29.22-.25.39.17.77.33,1.41.61,2.21.3.85.69,1.68,1.75,1.68h0Z"/>
          <path class="cls-1" d="m75.35,160.82s.03,0,.04,0c.79-.17,3.89-3.89,5.14-7.08,1.29-3.29,2.57-5.72,2.59-5.74.09-.16.02-.36-.14-.45-.16-.09-.36-.02-.45.14-.01.02-1.32,2.48-2.62,5.81-1.24,3.18-4.08,6.37-4.65,6.66-1.09-.19-13.67-5.37-24.94-12.71-3.7-2.41-7.22-6.82-9.11-9.19-.68-.86-1.14-1.43-1.4-1.66-.14-.12-.34-.11-.47.03-.12.14-.11.34.03.47.22.2.7.81,1.32,1.58,1.91,2.4,5.47,6.87,9.26,9.33,10.94,7.12,24.24,12.82,25.38,12.82h0Z"/>
          <path class="cls-1" d="m41.15,139.21c.09,0,.18-.04.25-.11.12-.14.11-.34-.03-.47-.63-.56-4.23-1.32-9.25-2.34-2.09-.42-3.9-.79-4.57-.99-1.77-.55-16.1-6.57-17.74-7.26-.23-1.03.1-2.28.82-3.13,1.76.36,15.49,3.14,16.87,3.59,1.53.49,13.47.91,13.97.93.18,0,.33-.14.34-.32,0-.18-.14-.33-.32-.34-4.27-.15-12.64-.53-13.79-.9-1.51-.48-16.49-3.51-17.13-3.64-.11-.02-.23.01-.31.1-1,1.06-1.43,2.72-1.06,4.05.03.1.1.18.19.21.65.28,16.05,6.76,17.96,7.35.7.21,2.52.58,4.63,1.01,3.34.67,8.4,1.69,8.94,2.18.06.06.14.08.22.08h0Z"/>
          <path class="cls-1" d="m77.19,146.65c.68,0,1.44-.1,1.92-.19.29-.05.48-.31.45-.6,0-.08-.02-.17-.03-.3-.05-.68-.1-2.21.14-4.89.24-2.66.84-11.44-1.4-12.65-1.31-.7-4.24-1.08-9.21-1.18-.19,0-.33.14-.34.32,0,.18.14.33.32.34,4.8.1,7.71.46,8.91,1.1,1.4.75,1.53,6.75,1.06,12.01-.24,2.73-.19,4.31-.14,5,0,.08.01.15.02.21-.52.08-1.81.26-2.48.08l-1.17-.31c-.18-.05-.31-.2-.33-.38-.21-1.96-.91-8.41-1.02-9.12-.14-.88-.52-1.51-.53-1.54-.09-.16-.3-.21-.45-.11-.16.09-.21.3-.11.45,0,0,.33.56.45,1.3.09.55.58,5.06,1.02,9.09.05.45.38.84.82.95l1.17.31c.27.07.6.1.95.1h0Z"/>
          <path class="cls-1" d="m62.78,136.01c.96,0,2.08-.02,3.29-.07,2.21-.1,7.71-1.46,7.94-1.52.18-.04.28-.22.24-.4-.04-.18-.22-.28-.4-.24-.06.01-5.66,1.4-7.81,1.5-3.69.17-6.76-.01-6.79-.02-.08,0-.22.01-.3.16-.06.1-.07.23,0,.34.05.08.08.13.27.16,0,0,.03,0,.03,0,.27.03.81.05,1.98.07.43,0,.96.02,1.56.02h0Z"/>
          <path class="cls-15" d="m55.73,125.17c-.49-.07-.9-.35-1.14-1.18-.15-.5-.46-1.96-.84-2.99-.21-.53-.67-.72-.63-1.11.04-.48.95-.74,1.11-1.17.01-.03.02-.07.03-.1.24-.99-.37-2.68-.16-3.73.05-.21.17-1.36.63-1.77.37-.35,1.13-.15,1.32.02.44.4,1.57,2.5,1.57,2.5,0,0,.91,1.36,1.37,1.58.62.3.89.46,1.68.51.78.05,1.48-.35,1.48-.35,0,0,1.54-.47,1.88.35.27.62-.5,1.95-.5,1.95,0,0,.22.68.77,1.61.23.38.38.43.38.43,0,0,.02.2.07.53-.34.09-.7.16-1.05.23-.32.06-.65.13-.97.21-.35.1-.7.22-1.04.32-.74.23-1.49.44-2.26.58-.44.08-.87.22-1.28.39-.2.08-.39.16-.58.25-.62.29-1.22.62-1.84.92h0Z"/>
          <path class="cls-1" d="m93.15,163.08c.16,0,.3-.12.33-.29.02-.18-.1-.35-.28-.37-.09-.01-8.65-1.14-12.14-1.88-3.43-.73-4.51-1.25-4.52-1.26-.16-.08-.36-.01-.44.15-.08.16-.02.36.15.44.04.02,1.14.56,4.68,1.31,3.51.75,12.1,1.88,12.19,1.89.01,0,.03,0,.04,0h0Z"/>
          <path class="cls-1" d="m56,125.37c.18,0,.33-.14.33-.32,0-.18-.14-.33-.32-.34-.58-.01-.7-.09-.98-1-.25-.81-.37-1.4-.49-2.04-.03-.18-.2-.3-.38-.27-.18.03-.3.2-.27.38.12.66.24,1.28.51,2.12.3.98.55,1.44,1.6,1.47,0,0,0,0,0,0h0Z"/>
          <path class="cls-1" d="m54.25,122.23s.03,0,.05,0c.18-.03.31-.19.28-.37-.01-.07-.11-.72-.33-1.09-.08-.16-.2-.29-.31-.42-.12-.14-.26-.29-.26-.4,0,0,0-.02,0-.02,0-.06.01-.09.26-.25.13-.08.27-.17.4-.29,0,0,.01-.01.02-.02.22-.24.46-.62.38-1.41-.02-.15-.04-.3-.06-.44-.09-.62-.19-1.31-.19-2.09-.02-.46.08-1.17.43-1.86.08-.16.02-.36-.14-.44-.16-.08-.36-.02-.44.14-.52,1.02-.52,1.92-.5,2.17,0,.81.1,1.53.19,2.17.02.15.04.29.06.42.05.57-.11.77-.21.88-.09.08-.19.14-.29.21-.26.17-.62.39-.57.87.02.33.24.57.43.79.09.11.18.2.23.29,0,0,0,.01.01.02.12.19.21.62.25.85.02.16.16.28.33.28h0Z"/>
          <path class="cls-1" d="m62.53,120.48s.06,0,.09-.01c.98-.28,1.56-.83,1.78-1.7.15-.65-.03-1.28-.48-1.63-.48-.38-1.16-.4-1.88-.05-.16.08-.23.28-.15.44.08.16.28.23.44.15.48-.23.91-.24,1.18-.02.25.2.34.57.25.97-.15.63-.56,1-1.31,1.22-.18.05-.28.23-.23.41.04.15.17.24.32.24h0Z"/>
          <path class="cls-1" d="m62.76,119.09c.13,0,.25-.07.3-.2,0,0,.08-.17.23-.27.15-.1.19-.31.08-.46-.1-.15-.31-.19-.46-.08-.3.21-.44.51-.45.55-.07.17,0,.36.17.43.04.02.09.03.13.03h0Z"/>
          <path class="cls-1" d="m54.97,116.31c.05,0,.1-.01.15-.04.63-.33,1.12-.04,1.14-.03.15.09.36.05.45-.11.1-.15.05-.35-.1-.45-.03-.02-.82-.51-1.8,0-.16.09-.22.28-.14.45.06.11.17.18.29.18h0Z"/>
          <path class="cls-4" d="m56.13,121.68c-.62.12-1.26.06-1.26.06,0,0,.34,1.42,1.33,1.31.98-.14,1.12-1.62,1.12-1.62,0,0-.56.12-1.19.24h0Z"/>
          <path class="cls-1" d="m56.89,121.87c-.2.04-.44.09-.7.14-.3.06-.6.08-.84.08.15.32.42.69.8.64.41-.06.63-.51.74-.87h0Zm-.8,1.53c-.91,0-1.39-.97-1.54-1.57-.02-.1,0-.21.07-.29.07-.08.17-.12.28-.11,0,0,.6.05,1.16-.06.62-.12,1.18-.24,1.18-.24.1-.02.21,0,.29.08.08.07.12.17.11.28,0,.07-.17,1.74-1.41,1.92-.05,0-.1,0-.15,0h0Z"/>
          <path class="cls-1" d="m60.43,118.06c.32,0,.62-.07.89-.17.17-.07.25-.26.19-.43-.07-.17-.26-.25-.43-.19-1.23.47-2.44-.38-3.6-2.55l-.02-.03c-.75-1.36-1.29-2.35-2.09-2.52-.36-.08-.74.02-1.13.31-.15.11-.18.32-.07.46.11.15.32.18.46.07.34-.25.53-.21.59-.19.51.11,1.04,1.08,1.66,2.2l.02.03c1.27,2.36,2.52,3.02,3.53,3.02h0Z"/>
          <path class="cls-1" d="m87.45,128.69c1.46,0,3.7-.66,4.31-3.27.04-.18-.07-.35-.25-.4-.18-.04-.36.07-.4.25-.73,3.13-3.99,2.75-4.13,2.74-5.52-.7-8.8-2.39-11.69-3.88-.84-.43-1.63-.84-2.46-1.22-.17-.08-.36,0-.44.16s0,.36.16.44c.81.37,1.6.78,2.43,1.2,2.94,1.51,6.27,3.23,11.91,3.94.16.02.35.03.54.03h0Z"/>
          <path class="cls-1" d="m66.49,121.86c.17,0,.31-.13.33-.3.01-.18-.12-.34-.3-.36-.47-.04-.95-.06-1.45-.06-.62,0-1.19-1.06-1.34-1.42-.07-.17-.26-.25-.43-.18-.17.07-.25.26-.18.43.08.19.78,1.82,1.95,1.83.48,0,.95.03,1.4.06,0,0,.02,0,.03,0h0Z"/>
          <path class="cls-1" d="m81.02,114.35c.74,0,1.39-.13,1.94-.39.66-.31,1.52-.96,1.85-2.32v-.02c.05-.13.01-.29-.1-.37-.14-.11-.35-.08-.46.06-.04.06-.06.11-.07.18-.27,1.1-.96,1.63-1.49,1.88-1.46.69-3.81.29-6.8-1.16-11.52-5.55-18.08-3.45-19.64-2.17-.14.12-.16.32-.05.46.12.14.32.16.46.05,1.47-1.21,7.73-3.15,18.94,2.25,2.14,1.03,3.96,1.55,5.43,1.55h0Z"/>
          <path class="cls-1" d="m54,116.08c.08,0,.16-.03.22-.09.13-.12.14-.33.02-.47-1.19-1.28-.92-3.11-.26-3.94.24-.3.74-.73,1.43-.33.16.09.36.04.45-.12.09-.16.04-.36-.12-.45-.79-.46-1.66-.27-2.27.49-.93,1.17-1.03,3.37.29,4.8.06.07.15.11.24.11h0Z"/>
          <path class="cls-2" d="m55.28,118.01c-.02-.3.18-.55.42-.56.24-.01.46.22.48.52.02.3-.18.55-.42.56-.27.04-.46-.19-.48-.52h0Z"/>
          <path class="cls-1" d="m87.9,126.33c.81,0,1.47-.21,1.86-.36.17-.07.25-.26.18-.43-.07-.17-.26-.25-.43-.18-.49.2-1.49.49-2.67.17-1.38-.37-2.14-1.35-2.41-1.75-.1-.15-.3-.19-.46-.09-.15.1-.19.3-.09.46.31.47,1.19,1.59,2.79,2.02.44.12.86.16,1.24.16h0Z"/>
          <path class="cls-1" d="m90.49,123.85s.05,0,.08,0c1.29-.02,2.42-.68,2.88-1.69.08-.17,0-.36-.16-.44-.16-.08-.36,0-.44.16-.41.88-1.45,1.29-2.3,1.3-1.06.02-2.07-.43-2.84-.83-.23-.12-.47-.26-.56-.45-.07-.17-.26-.25-.43-.18-.17.07-.25.26-.18.43.18.44.62.67.86.79.82.42,1.9.91,3.08.91h0Z"/>
          <path class="cls-1" d="m80.75,116.57c1.43,0,2.85-.86,3.45-2.17.08-.17,0-.36-.16-.44-.17-.08-.36,0-.44.16-.57,1.26-2.08,2.01-3.43,1.72-.18-.04-.35.07-.39.25-.04.18.07.35.25.39.24.05.48.08.72.08h0Z"/>
          <path class="cls-1" d="m92.41,121.16c.34,0,.7-.01,1.08-.04.18-.01.32-.17.31-.35-.01-.18-.17-.32-.35-.31-4.14.27-5.61-1.04-6.9-2.2-.68-.61-1.32-1.18-2.25-1.48-1.1-.35-2.4-.33-3.76.05-.18.05-.28.23-.23.41.05.18.23.28.41.23,1.23-.35,2.4-.37,3.38-.06.8.25,1.36.76,2.01,1.34,1.21,1.08,2.68,2.41,6.31,2.41h0Z"/>
          <path class="cls-1" d="m51.46,133.67c1.2,0,2.65-.31,5.51-1.08,6.56-1.77,12.37-5.03,12.43-5.07.16-.09.21-.29.12-.45-.09-.16-.29-.21-.45-.12-.06.03-5.8,3.25-12.28,5-4.9,1.32-5.46,1.25-8,.6-4.1-1.05-5.06-3.04-5.07-3.06-.08-.16-.27-.24-.44-.16-.17.07-.24.27-.17.43.04.09,1.06,2.29,5.51,3.43,1.14.29,1.91.47,2.83.47h0Z"/>
          <path class="cls-1" d="m47.93,129.04s.05,0,.08,0c.4-.09.74-.27,1.13-.48.11-.06.23-.12.36-.18,4.79-2.39,12.39-5.42,17.76-6.44.81-.15,1.18-.22,1.56-.19,2.26.15,4.79,2.21,7.52,6.12.1.15.31.19.46.08.15-.1.19-.31.08-.46-2.85-4.08-5.55-6.24-8.02-6.4-.48-.03-.92.05-1.73.2-5.44,1.03-13.11,4.09-17.94,6.5-.13.07-.25.13-.37.19-.37.19-.66.35-.98.42-.18.04-.29.22-.24.4.04.15.17.25.32.25h0Z"/>
          <path class="cls-1" d="m74.37,143.73c.14,0,.27-.09.31-.23.05-.17-.04-.36-.22-.41-.4-.12-.82-.24-1.28-.34-.82-.19-1.46-.3-2.03-.39-1.04-.17-1.79-.29-2.91-.82-2.41-1.12-5.41-4.5-6.48-6.06-.1-.15-.31-.19-.46-.09-.15.1-.19.31-.09.46,1.1,1.61,4.21,5.11,6.74,6.28,1.2.56,2.03.7,3.08.87.56.09,1.19.2,1.99.38.44.1.85.21,1.23.33.03.01.07.01.1.01h0Z"/>
          <path class="cls-10" d="m92.53,150.06c-.24-.08-.47-.17-.71-.25,1.36-.67,2.45-1.86,3.02-3.26.37-.91.52-1.9.8-2.84.63-2.08,1.93-4.19,1.27-6.25,2.2,1.21,4.4,2.41,6.6,3.62.76.42,1.52.67,2.29.9-.79-1.87-1.55-4-2.24-6.39-.38-1.32,1.83-2.97,3.11-2.98.17,0,.32.08.41.23.6.99,3.35,5.56,6.15,10.3,2.34,3.96,4.36,6.38,5.14,9.53.64,2.58-1.4,4.02-2.89,4.13-5.24.36-11.04-2.71-24.15-6.89l1.19.16h0Z"/>
          <path class="cls-10" d="m111.5,140.2c.33-.91.58-1.77,2.55-5.71.34-.68,2.35-4.2,3.01-5.35.13-.23.38-.36.64-.32.51.06,1.36.22,1.9.57.53.35,1.01.88,1.27,1.21.14.17.18.41.1.62l-5.46,15.03-4.01-6.06h0Z"/>
          <path class="cls-1" d="m106.84,145.3c.14,0,.27-.09.32-.23.05-.17-.05-.36-.22-.41-1.18-.36-4.41-1.42-5.12-2-1.67-1.37-4.61-3.79-4.61-3.79l-.42.51s2.94,2.42,4.61,3.79c.94.78,4.9,1.99,5.35,2.12.03,0,.06.01.1.01h0Z"/>
          <path class="cls-1" d="m115.51,146.58c.13,0,.26-.08.31-.22l5.46-15.03c.12-.32.06-.68-.16-.94-.31-.39-.8-.92-1.35-1.28-.57-.37-1.42-.54-2.04-.62-.39-.05-.77.14-.97.49-.62,1.08-2.67,4.67-3.02,5.36-1.8,3.6-2.18,4.65-2.47,5.5l-.09.24c-.06.17.03.36.2.42.17.06.36-.03.42-.2l.09-.25c.29-.83.66-1.86,2.44-5.42.27-.54,1.73-3.11,3-5.33.06-.11.19-.18.32-.16.45.06,1.27.2,1.76.52.5.33.97.86,1.2,1.15.07.08.09.2.05.3l-5.47,15.03c-.06.17.03.36.2.42.04.01.08.02.11.02h0Z"/>
          <path class="cls-1" d="m114.63,157.14c.29,0,.59,0,.88-.03,1.01-.07,2.06-.66,2.67-1.5.43-.59.87-1.6.51-3.03-.57-2.31-1.78-4.2-3.3-6.59-.6-.94-1.22-1.91-1.88-3.03-2.82-4.78-5.61-9.42-6.15-10.3-.15-.24-.42-.39-.7-.39-.95.01-2.29.79-2.99,1.73-.43.58-.58,1.16-.43,1.68,3.53,12.31,8.89,17.14,9.12,17.33.14.12.35.11.47-.03.12-.14.11-.35-.03-.47-1.87-1.64-6.14-7.31-8.92-17.02-.11-.4.11-.82.33-1.1.57-.77,1.73-1.45,2.47-1.46.06,0,.1.02.12.07.53.88,3.33,5.53,6.14,10.3.66,1.12,1.29,2.1,1.89,3.05,1.49,2.34,2.67,4.19,3.22,6.4.23.94.09,1.8-.41,2.48-.61.84-1.56,1.19-2.19,1.23-3.53.24-7.34-1.11-13.64-3.34-2.94-1.04-6.27-2.22-10.38-3.53-.17-.06-.36.04-.41.21-.06.17.04.36.21.41,4.1,1.31,7.42,2.49,10.36,3.53,5.88,2.08,9.61,3.41,13.03,3.41h0Z"/>
          <path class="cls-1" d="m105.99,142.72c.12,0,.23-.06.29-.17.09-.16.03-.36-.13-.45l-8.97-4.93c-.16-.09-.36-.03-.45.13-.09.16-.03.36.13.45l8.97,4.93c.05.03.1.04.16.04h0Z"/>
          <path class="cls-1" d="m96.96,137.14c-.07.01-.14.04-.19.11.05-.06.12-.1.19-.11h0Zm-5.62,13.09s-.03,0-.04,0c-.04,0-4.16-.52-9.1-2.71-1.4-.62-2.22-1.03-3.07-1.48-.16-.09-.22-.29-.14-.45.09-.16.28-.22.45-.14.84.45,1.64.85,3.03,1.46,4.46,1.98,8.24,2.57,8.83,2.65,4.11-1.68,5.22-10.49,5.37-11.9-.09-.05-.2-.12-.33-.2-1.25-.79-5.05-3.19-8.18-3.27-.54-.01-1.16.04-1.81.09-1.29.11-2.76.23-4.21-.09-.35-.08-.88-.22-1.47-.56-.39-.23-.75-.51-1.08-.84-.13-.13-.13-.34,0-.47.13-.13.34-.13.47,0,.28.29.6.54.94.73.51.29.98.42,1.28.49,1.36.3,2.77.18,4.02.08.67-.06,1.31-.11,1.89-.09,3.31.09,7.09,2.48,8.51,3.37.16.1.33.21.41.25,0,0,.01,0,.02,0,.13.04.23.17.23.31,0,.1-.95,10.85-5.89,12.75-.04.01-.08.02-.12.02h0Z"/>
          <path class="cls-1" d="m52.26,126.81c.06,0,.13-.02.18-.05.15-.1.19-.31.09-.46-.25-.38-.42-.81-.48-1.26-.03-.18-.19-.3-.38-.28-.18.03-.3.2-.28.38.08.54.28,1.07.59,1.53.06.1.17.15.28.15h0Z"/>
          <path class="cls-1" d="m102.67,156.69c.06,0,.12-.02.17-.05,1.06-.66,1.9-.92,3.26-1.23.18-.04.29-.22.25-.39-.04-.18-.22-.29-.39-.25-1.4.32-2.33.61-3.46,1.31-.15.1-.2.3-.11.45.06.1.17.16.28.16h0Z"/>
          <path class="cls-12" d="m102.05,131.26c-.46-.85-1.47-1.83-1.53-2.9-.08-1.37.6-3.91,1.53-5.2.79-1.05,1.27-1.51,1.24-1.63-.05-.36-.07-.72-.09-1.04-.06-1.41-.41-2.24-.88-2.3v-.02c-.56-.49-1.02-.42-1.65,1.2-.83,2.18-1.33,5.77-1.84,7.6-.48,1.83-.85,2.92-.98,4.17-.13,1.2.47.98,1.31,1.11.46.19,1.13.24,1.83.33.43.07.85.11,1.31.16.09,0,.17-.74-.23-1.47h0Z"/>
          <path class="cls-1" d="m103.6,135.2s.1-.01.14-.03c.16-.08.24-.27.16-.44-.13-.29-.24-.57-.33-.84-.26-.71-.5-1.39-1.22-1.5-.18-.03-.35.1-.37.28-.03.18.1.35.28.38.32.05.47.42.7,1.07.1.27.21.59.36.9.06.12.17.19.3.19h0Z"/>
          <path class="cls-1" d="m102.95,121.49c-.04-.31-.06-.63-.08-.91v-.09c-.06-1.36-.38-1.88-.55-1.97-.03-.01-.08-.04-.19.02-.18.15-.7,1.35-1.15,3.1-.3,1.21-.72,3.3-.94,4.42-.08.41-.14.7-.16.78-.09.38-.21.81-.34,1.27-.34,1.23-.76,2.76-.66,3.42.07.42.7.52,1.73.64.13.02.27.03.42.05.32.06.65.09,1,.13,0-.22-.06-.58-.27-.95-.13-.24-.32-.51-.52-.79-.47-.66-1.01-1.42-1.05-2.26-.08-1.4.58-4.01,1.59-5.41.34-.45.62-.79.83-1.04.14-.17.28-.34.34-.42h0Zm-.68,11.56s-.01,0-.02,0c-.48-.04-.9-.09-1.32-.16-.13-.02-.27-.03-.4-.05-1.1-.13-2.14-.26-2.3-1.19-.13-.8.28-2.28.67-3.7.12-.45.24-.88.33-1.25.02-.08.07-.36.15-.76.22-1.13.64-3.23.95-4.46.08-.32.82-3.1,1.44-3.5.29-.17.59-.19.85-.05.67.36.86,1.57.89,2.52v.08c.02.3.04.61.09.93.04.22-.09.37-.49.86-.2.25-.48.58-.81,1.02-.9,1.25-1.54,3.75-1.46,4.98.04.65.49,1.29.93,1.91.21.29.41.57.56.85.4.71.41,1.51.25,1.78-.07.11-.18.18-.32.18h0Z"/>
          <path class="cls-1" d="m106.68,132.93c.06,0,.12-.02.17-.05.16-.09.21-.3.11-.45-1.48-2.44-1.78-3.39-2.24-4.83-.12-.38-.26-.82-.43-1.31-.29-.73-.62-3.56-.74-4.62-.02-.18-.19-.31-.37-.29-.18.02-.31.18-.29.37.23,1.97.5,4.07.78,4.78.17.48.3.91.42,1.29.47,1.48.78,2.46,2.3,4.97.06.1.17.16.28.16h0Z"/>
          <path class="cls-1" d="m99.19,132.57c.16,0,.3-.11.32-.27.03-.18-.09-.35-.27-.38-.18-.03-.35-.04-.5-.06-.23-.02-.46-.04-.52-.11-.03-.04-.09-.16-.05-.58.09-.92.32-1.75.64-2.9.1-.37.21-.77.33-1.22.19-.69.39-1.65.59-2.66.34-1.67.73-3.57,1.24-4.91.41-1.06.68-1.23.77-1.25.08-.02.2.04.36.18.14.12.35.11.47-.03.12-.14.11-.35-.03-.47-.22-.19-.55-.43-.95-.33-.45.11-.82.61-1.23,1.66-.53,1.39-.92,3.31-1.27,5.01-.2,1-.4,1.94-.59,2.62-.12.45-.23.85-.33,1.21-.33,1.18-.56,2.04-.66,3.01-.05.51,0,.84.2,1.07.24.29.6.32.97.35.14.01.29.02.44.05.02,0,.04,0,.06,0h0Z"/>
          <path class="cls-1" d="m142.78,168.97c.15,0,.28-.1.32-.25.05-.18-.06-.36-.24-.4l-14.76-3.88c-.18-.05-.36.06-.4.24-.05.18.06.36.24.4l14.76,3.88s.06.01.08.01h0Z"/>
          <path class="cls-1" d="m145.19,172.25c.15,0,.28-.1.32-.25.05-.18-.06-.36-.24-.4l-14.76-3.88c-.18-.05-.36.06-.4.24-.05.18.06.36.24.4l14.76,3.88s.06.01.08.01h0Z"/>
          <path class="cls-1" d="m93.44,115.26c.15,0,.28-.1.32-.25.05-.18-.06-.36-.24-.4l-7.38-1.94c-.18-.05-.36.06-.4.24-.05.18.06.36.24.4l7.38,1.94s.06.01.08.01h0Z"/>
          <path class="cls-1" d="m95.83,117.46c.15,0,.28-.1.32-.25.05-.18-.06-.36-.24-.4l-7.38-1.94c-.18-.05-.36.06-.4.24-.05.18.06.36.24.4l7.38,1.94s.06.01.08.01h0Z"/>
          <path class="cls-1" d="m104.64,155.78c.12,0,.23-.06.29-.17.09-.16.03-.36-.13-.45-.21-.12-.51-.32-.85-.56-.91-.63-2.17-1.49-3.47-1.92-.17-.06-.36.04-.42.21-.06.17.04.36.21.42,1.21.4,2.42,1.23,3.3,1.84.36.25.66.46.9.59.05.03.11.04.16.04h0Z"/>
          <path class="cls-1" d="m104.05,154.07c-.36-.16-.75-.33-1.13-.23.51.51,1.03,1.01,1.54,1.52.17-.18,1.14-.33,1.06-.6-.06-.19-1.28-.61-1.47-.69h0Z"/>
          <path class="cls-1" d="m117.95,151.06c4.53-1.75,8.47-3.2,8.84-3.34.04-.01.08-.02.13-.02.1,0,2.45.1,3.96,1.55,1.7,1.64,1.96,2.96,1.88,3.78-.02.18-.18.31-.36.3-.18-.02-.31-.18-.3-.36.05-.55-.09-1.7-1.68-3.24-1.2-1.16-3.1-1.34-3.46-1.37-.55.2-4.41,1.64-8.82,3.34-.06-.21-.12-.43-.18-.64h0Z"/>
        </g>
      </g>
    </g>
  </g>
</svg>