<?xml version="1.0" encoding="UTF-8"?>
<svg id="_レイヤー_2" data-name="レイヤー 2" xmlns="http://www.w3.org/2000/svg" xmlns:xlink="http://www.w3.org/1999/xlink" viewBox="0 0 251.01 202.08">
  <defs>
    <style>
      .cls-1 {
        fill: #ffd9b9;
      }

      .cls-1, .cls-2, .cls-3, .cls-4, .cls-5, .cls-6, .cls-7, .cls-8, .cls-9, .cls-10, .cls-11, .cls-12, .cls-13, .cls-14 {
        fill-rule: evenodd;
      }

      .cls-15, .cls-13 {
        fill: #262626;
      }

      .cls-16, .cls-5 {
        fill: #fff;
      }

      .cls-2 {
        fill: #d2b99f;
      }

      .cls-17 {
        stroke: #262626;
        stroke-linecap: round;
        stroke-linejoin: round;
        stroke-width: 1.5px;
      }

      .cls-17, .cls-18 {
        fill: none;
      }

      .cls-3 {
        fill: #7f685d;
      }

      .cls-4 {
        fill: #8896b1;
      }

      .cls-6 {
        fill: #dfb88f;
      }

      .cls-7 {
        fill: #cfd3dc;
      }

      .cls-8 {
        fill: #796f65;
      }

      .cls-9 {
        fill: #94ad83;
      }

      .cls-10 {
        fill: #fca29e;
      }

      .cls-11 {
        fill: #eda152;
      }

      .cls-12 {
        fill: #e3974e;
      }

      .cls-19 {
        clip-path: url(#clippath);
      }

      .cls-14 {
        fill: #db534e;
      }
    </style>
    <clipPath id="clippath">
      <rect class="cls-18" x="75.23" y="63.51" width="175.78" height="117.78" transform="translate(326.24 244.8) rotate(180)"/>
    </clipPath>
  </defs>
  <g id="illustration">
    <g>
      <g class="cls-19">
        <g>
          <g>
            <path class="cls-5" d="m157.16,80.16s-.87-.13-1.42-.97c-.55-.84-.75-2.5-.75-2.5,0,0-.03,1.63-.58,2.48-.55.85-1.67.9-1.67.9,0,0,1,.14,1.57.94.56.81.69,2.51.69,2.51,0,0,.09-1.51.63-2.33.54-.82,1.54-1.03,1.54-1.03Z"/>
            <path class="cls-5" d="m125.59,67.48s-.87-.13-1.42-.97c-.55-.84-.75-2.5-.75-2.5,0,0-.03,1.63-.58,2.48-.55.85-1.67.9-1.67.9,0,0,1,.14,1.57.94.56.81.69,2.51.69,2.51,0,0,.09-1.51.63-2.33.54-.82,1.54-1.03,1.54-1.03Z"/>
            <path class="cls-5" d="m110.19,95s-.91-.14-1.49-1.02c-.58-.88-.63-2.76-.63-2.76,0,0-.19,1.85-.77,2.74-.58.89-1.75.94-1.75.94,0,0,1.05.14,1.64.99.59.84.72,2.63.72,2.63,0,0,.09-1.59.66-2.44.56-.86,1.61-1.08,1.61-1.08Z"/>
            <path class="cls-5" d="m236.16,96.27s-.87-.13-1.41-.97c-.55-.84-.6-2.63-.6-2.63,0,0-.18,1.76-.73,2.61-.55.85-1.66.9-1.66.9,0,0,1,.13,1.56.94.56.8.68,2.5.68,2.5,0,0,.09-1.51.62-2.32.53-.81,1.53-1.02,1.53-1.02Z"/>
            <path class="cls-5" d="m189.31,87.77s-.87-.13-1.42-.97c-.55-.84-.75-2.5-.75-2.5,0,0-.03,1.63-.58,2.48-.55.85-1.67.9-1.67.9,0,0,1,.14,1.57.94.56.81.69,2.51.69,2.51,0,0,.09-1.51.63-2.33.54-.82,1.54-1.03,1.54-1.03Z"/>
            <path class="cls-5" d="m151.9,96.43s-.68-.1-1.1-.75c-.43-.65-.47-2.05-.47-2.05,0,0-.14,1.37-.57,2.03-.43.66-1.29.7-1.29.7,0,0,.78.1,1.22.73.44.63.53,1.95.53,1.95,0,0,.07-1.17.49-1.81.42-.64,1.2-.8,1.2-.8Z"/>
            <path class="cls-5" d="m174.21,104.26s-.68-.1-1.1-.75c-.43-.65-.47-2.05-.47-2.05,0,0-.14,1.37-.57,2.03-.43.66-1.29.7-1.29.7,0,0,.78.1,1.22.73.44.63.53,1.95.53,1.95,0,0,.07-1.18.49-1.81.42-.64,1.2-.8,1.2-.8Z"/>
          </g>
          <g>
            <path class="cls-12" d="m123.66,78.26c1.33-.67,2.98-.62,4.27-.69.41-.02,1.13-.84,2.74-1.06,2.22-.31,5.01,1.06,7.16,2.01,1.22.54,2.64.88,2.64.88l-.76.63s1.8,1.48,2.53,3.51c.73,2.02,1.84,5.14,1.84,5.14l-1.41-.13s.16,1.12-.02,2.05-.71,1.69-.71,1.69l-1.45,4.02-.75,2.32-1.8,3.69.31,2.2-1.3-.42-12.95-.77-1.49.78.43-2.09-1.33.57s.39-2.63-.23-4.19c-.73-1.85-2.53-2.92-2.93-6.53-.12-1.1.51-4.86.51-4.86l-1.58.08s1.18-1.2,1.72-2.63c.76-1.99,1.3-4.57,4.54-6.19Z"/>
            <path class="cls-7" d="m112.03,173.62l39.75.31s1.1,6.25,1.47,12.69c.37,6.45,0,13.1,0,13.1,0,0-8.12,1.75-17.62,2,0,0-1.64-8.96-2.38-8.96-.64,0-1.75,8.96-1.75,8.96-9.84-.22-19.88-2-19.88-2,0,0-.54-6.65-.43-13.17s.85-12.93.85-12.93Z"/>
            <path class="cls-4" d="m121.45,109.57l18.67-.1,4.08,1.75s9.03,2.14,11.6,5.67c2.34,3.22,4.67,8.91,6.22,13.03,1.65,4.38,2.44,7.09,2.44,7.09l2.99,10.82s.77,5.27-.38,7.79c-1.18,2.61-3.58,3.96-6.16,5.42-4.35,2.46-9.17,4.08-9.17,4.08l.17,3.96.36,3.46-.47,1.3s-2.45,1.53-5.66,2.56c-3.92,1.26-9.16,2.05-14.69,1.93-4.8-.1-10.91-1.1-14.54-2.35-3.96-1.37-5.25-3.01-5.25-3.01l.32-3.71-.69-3.12-.31-5.64-2.49-10.84s-6.53,5.14-10.41,5.47c-3.5.3-4.39-4.07-4.39-6.54,0-5.09,2.57-11.46,5.27-18.24,1.86-4.68,3.35-9.94,6.69-13.48,2.25-2.38,7.32-3.95,11.28-5.3,2.45-.84,4.53-2.02,4.53-2.02Z"/>
            <path class="cls-9" d="m181.05,137.9l12.21-17.34,6.66-1.14,17.85,1.63s8.3,3.3,9.85,4.52c2.72,2.14,3.24,7.58,3.26,12.44.04,10.1.64,23.63-1.6,29.94-.86,2.41-6.08,3.15-6.08,3.15,0,0,1.96,6.17,3.08,13.26,1.12,7.09,1.4,15.1,1.4,15.1,0,0-9.93,2.62-20.45,2.62s-21.62-2.62-21.62-2.62c0,0-.06-1.38,1.18-9.71.96-6.49,2.78-16.48,3.51-20.89.2-1.24.25-2.7.25-2.7l-2.23-9.7-2.82-1.01s-4.31,6.67-7.58,7.11c-1.78.24-3.17-4.45-3.56-6-1.11-4.39,6.71-18.65,6.71-18.65Z"/>
            <path class="cls-3" d="m199.49,92.63s5.51-6.05,11.09-5.68c4.9.33,5.32,2.84,5.32,2.84,0,0,2.49,1.06,4.43,3.77,1,1.4,1.64,2.77,2.16,5.64.41,2.24-.57,9.63-.16,11.67.16.81,1.86,3.96,1.99,4.66.49,2.59-.78,3.72-.65,4.96.32,3.12,1.34,3.44,1.34,3.44l-7.1-2.89-17.84-1.54-5.72,1.08s-.94-2.5.18-5.02c1.17-2.63,1.47-5.88,1.47-5.88,0,0-1.92-5.75-1.41-8.19.81-3.88,4.9-8.84,4.9-8.84Z"/>
            <path class="cls-1" d="m120.28,91.53c.87-1,1.96.44,3.46-.09,1.24-.44,2.14-3.11,2.14-3.11,0,0,.7-1.64,1.4-2.54.73-.95,2.07-1.14,3.87-1.15,1.53,0,2.13,2.1,3.87,2.88.69.31,1.21.36,1.21.36,0,0,.51,1.31,1.57,2.26,1.07.95,2.7,1.53,2.7,1.53,0,0,1.74,1.06,1.27,2.59-.48,1.55-2.13,2.29-2.13,2.29l-1.17,4.58-1.73,2.59s-.15,2.83.62,4.39c.77,1.56,2.47,1.86,2.47,1.86,0,0-3.41,7.35-7.97,7.38-2.58.02-5.93-2.55-8-4.57-1.59-1.55-2.27-2.69-2.27-2.69,0,0,2.24-1.59,2.51-4.58.27-2.99-.82-5.59-1.42-7.38-.52-1.56-1.38-1.27-2.1-1.95-1.11-1.05-1.86-2.8-.28-4.62Z"/>
            <path class="cls-1" d="m204.85,96.89s2.52-3.68,6.71-2.61c4.29,1.1,6.15,5.23,5.98,7.19-.15,1.83,2.19,1.98,1.98,3.45-.35,2.42-2.72,2.77-2.72,2.77l-.86,2.49-1.34,2.48s-.34,3.31.02,5.58c.22,1.39,3.24,2.99,3.24,2.99,0,0-5.7,4.12-10.39,3.65-5.12-.52-7.52-5.42-7.52-5.42,0,0,1.93-.28,2.8-1.92.87-1.64.7-4.63.7-4.63l-1.53-2.57-.71-3.53s-2.02-1.06-1.98-2.93c.05-2.37,1.88-2.19,3.17-3.31,1.49-1.28,2.46-3.68,2.46-3.68Z"/>
            <path class="cls-2" d="m180.46,131.16l12.4-3.16s.58,3.25,1.51,4.76c1.42,2.3,3.56,3.52,5.06,6.22,1.44,2.59,3.18,8.97,3.18,8.97l2.44,3.87s.51,2,.57,3.38c.08,2.09-.33,3.87-.72,3.87-.3,0-.05-2.28-.55-3.99-.55-1.89-1.86-3.21-1.86-3.21l-1.42,1.83-13.13-7-.56-3.03-1.73-2.98.18,6.4-1.88.66-2.49,1.27s-.05-.92.34-1.37c.4-.45,1.24-.44,1.24-.44,0,0-.2-2.48-.8-5.32-.6-2.84-1.6-6.03-1.6-6.03l-.19-4.72Z"/>
            <path class="cls-5" d="m119.84,140.7s5.01-.91,9.45,1.24c1.63.79,2.89,1.56,4.86,1.95,2.22.43,5.29.3,5.29.3l4.25-1.36,2.24-.25,2.79-3.42s2.17-1.58,2.51-2c1.58-1.89.65-4.05,1.16-4.01.76.06,3.34,3.46,4.04,3.56.83.12,2.22.28,2.94.48.91.25,2.71.58,3.39.96.35.19,3.01-1.87,3.28-1.63.66.57,0,2.54.38,3.62.97,2.85,2.02,5.84.35,8.21-1.13,1.6-5.81,1.54-5.81,1.54,0,0,1.62,1.66,1.84,2.76.22,1.09-.96,1.62-.96,1.62l-.54.66-1.44-.08-1.29.06-3.33-2.61s-10.9,4.7-11.68,5.1c-1.18.61-1.29,1.03-1.29,1.03l-17.93,5.15s-4.52,1.68-6.11,1.34c-5.59-1.22-7.19-3.66-8.07-5.13-.75-1.25-1.32-1.84-1.32-1.84,0,0-1.95,4.39-1.53,6.69.56,3.09,2.57,6.92,4.32,10.92,1.44,3.27,2.68,6.69,3.04,9.7.5,4.23-2.27,7.86-3.54,8.57-2.29,1.27-3.24,2.63-5.3,3.52-2.56,1.1-4.46.2-6.48-.02-2.38-.26-4.76-.02-5.96-.82-1.3-.87-3.43-3.31-3.32-5.63.07-1.55-1.97-3.16-1.37-5.16.79-2.65,3.2-3.71,4.15-3.76.95-.05-.69,1.78-.36,3.56.21,1.12,1,2.08,2.11,2.86,1.95,1.38,7.56,1.91,9.7-2.02.65-1.19.73-4.29.22-6.78-1.14-5.6-4.2-12.39-3.07-17.78.92-4.41,6.36-11.52,6.36-11.52l12.03-9.54Z"/>
            <path class="cls-1" d="m189.08,146.62c-.77-.02-1.5.04-2.3.27-1.65.48-3.56,1.7-3.56,1.7l-.41,1.51s-1.27-.07-1.28.54c-.01.61,1.24,1.9,1.24,1.9l.38,2.52s-2.05-1.73-3.28-2.23c-.94-.39-1.24.31-.83.84.37.49,2.13,2.33,3.67,3.58,2.03,1.64,3.89,2.73,3.66,2.99-.23.26-1.37-.05-2.63-.79-1.55-.91-3.3-2.36-4.26-2.68-.54-.18-.81.1-.61.64.22.59.95,1.44.95,1.44,0,0-.18.33.04,1.05.23.73,1.58,2.02,2.54,2.71,1.09.78,3.65,2.14,5.54,2.78,2.62.89,5.33.75,7.75,1.16,3.08.52,5.59,1.47,5.59,1.47,0,0-.07-1.87.18-3.44.25-1.57.82-2.84.82-2.84,0,0-1.58-.21-2.78-.98-1.19-.77-2.75-3.44-2.75-3.44,0,0,3.11,1.5,4.61,1.44,1.5-.06,1.4-1.66,1.4-1.66,0,0,1.44-.92.73-1.7-1.38-1.52-5.56-3.49-5.33-4.05.16-.38,1.98-.33,3.47.07,2.43.64,4.99,1.92,5.51,1.77.82-.24.5-.71-.01-1.27-.79-.85-2.23-1.82-2.23-1.82,0,0,.37-.54-.18-.99-.55-.45-2-.82-2-.82l-3.61-1.31s-3.49.11-7.48-.16c-.98-.07-1.8-.17-2.57-.19Zm-3.03,9.09c.1.05,1.54,1.16,1.34,1.57-.2.41-1.81-.66-1.88-.7-.11-.05.18-.3.24-.41.05-.11.19-.52.3-.47Z"/>
            <path class="cls-1" d="m117.42,132.87s1.74-.91,3.8-2c2.15-1.13,4.7-2.44,8.14-2.15,1.74.15,10.38,3.28,11.77,3.92,1.93.88,7.01,4.73,7.61,5.31.61.58.22,1.29-.82,1.07-1.37-.29-3.61-1.65-3.61-1.65,0,0,2.95,4.2,2.74,5.34-.22,1.19-3.61-2.48-3.61-2.48,0,0,1.33,4.58-.64,3.16-.81-.58-2.08-3.07-3.38-4.77-1.15-1.5-2.39-2.27-2.39-2.27,0,0,1.73,5.93,1.22,6.47-.99,1.04-3.3-3.62-3.68-5.34-.22-1.02-1.26-1-2.31-1.33-1.66-.53-3.61-1.08-4.47-1.57-1.1-.62-1.84-.03-3.17.91-2.28,1.61-5,4.34-5,4.34,0,0-1.14-.99-1.7-2.72-.55-1.74-.51-4.23-.51-4.23Z"/>
            <path class="cls-1" d="m116.57,156.26s3.25,1.14,9.81,1.7c.73.06,2.41-.04,2.41-.04,0,0-1.36-1.14-3.1-1.55-1.74-.41-2.06-1.15-2.09-1.46-.13-1.29,4.45-.23,5.71-.18,1.87.08,4.68,3.06,7.74,4.03,2.69.86,5.77-.27,5.77-.27,0,0,.89,1.31,1.36,3.18.46,1.87.5,4.3.5,4.3,0,0-4.68.8-9.69,1.74-2.75.52-5.5,1.39-7.85,1.47-2.3.07-4.48-.7-5.82-1.07-2.52-.7-2.59-1.85-2.59-1.85,0,0-2.84-.52-2.78-1.64.01-.21.49-.5,1.11-.48,2.29.1,7.57,1.57,7.88.4.12-.45-1.79-.57-3.95-1.02-2.65-.55-5.72-1.46-6.48-2.34-.29-.34-.01-1.12,1.02-1.05,2.63.18,8.43,1.9,9.31,1.13.28-.24-.68-.93-2.45-1.49-2.16-.69-5.01-1.23-6.08-1.95-1.66-1.12.26-1.57.26-1.57Z"/>
            <path class="cls-5" d="m158.43,162.44l5.46-3.13s-.03,7.61-.83,10.67c-.81,3.05-2.39,1.55-2.39,1.55,0,0-1.51.27-2.47-.95-.53-.68,0-2.06.22-4.08.18-1.64.01-4.06.01-4.06Z"/>
            <path class="cls-5" d="m177.28,118.94c.49-.35.91-2.09,1.86-2.66,1.08-.64,2.68-.1,2.68-.1,0,0,2.24-.36,3.64-.17,3.24.44,6.48,1.33,6.48,1.33l.64,1.78.97,1.44.05,1.42s1.06,2.51.71,4.39c-.35,1.88-1.85,4.15-5.76,4.93-1.33.26-4.22,1.07-5.7.79-2.89-.54-4.16-2.6-4.16-2.6,0,0-1.49-1.16-2.14-3.25-.76-2.44-1.15-5.93.75-7.3Z"/>
            <path class="cls-5" d="m203.99,158.65s1.37-.94,2.08-.15c.71.79.5,3.07.5,3.07l-2.97-.39.39-2.53Z"/>
            <path class="cls-6" d="m181.41,125.08c0-.68,1.18-.44,2.3-.44s2.3-.08,2.3.6-1.18,1.86-2.3,1.86-2.3-1.34-2.3-2.02Z"/>
            <path class="cls-10" d="m182.55,124.75l1.15-.59,1.07.94s-.35,1.8-.9,2.43c-.55.62-1.06-.25-1.38-.94-.33-.69.07-1.83.07-1.83Z"/>
            <path class="cls-10" d="m176.9,113.72c.66-.73,1.58-.24,2.43.74.85.98.99,1.91.26,2.8-.57.69-1.65.71-1.65.71,0,0-.43-1.13-.76-2.05-.36-1-.62-1.82-.27-2.2Z"/>
            <path class="cls-10" d="m194.22,114.8c-.66-.73-2.07-.16-2.92.83-.85.98-1.05,1.82-.31,2.71.57.69,1.65.71,1.65.71,0,0,.43-1.13.76-2.05.36-1,1.17-1.81.82-2.19Z"/>
            <path class="cls-5" d="m185.06,112.42s1.24-1.5,1.56-1.07c.32.44-.49,1.99-.49,1.99l-.3,1.14-.99-.05.22-2.01Z"/>
            <path class="cls-6" d="m179.03,114.15s1.41.66,2,1.29c.58.62.63.79.5,1.19-.13.41-1.02.43-1.02.43l-1.47-2.91Z"/>
            <path class="cls-6" d="m188.84,116.85c.23-.69,2.6-1.83,2.6-1.83l-.76,1.64-.67.9s-1.49.2-1.18-.71Z"/>
            <path class="cls-14" d="m182.11,112.48c1.11-.66,2.96,1.79,2.96,1.79l1.04.12s2.76-1.88,3.31-1.26c.25.28-.64,1.43-.64,1.43l-.44,2.32s-1.15-.69-2.67-.9c-1.53-.21-3.44.05-3.44.05l.16-1.9s-.81-1.35-.28-1.66Z"/>
            <path class="cls-6" d="m183.38,122.2c.39-.62,1.03-1.12,1.54-.77.47.31.53.57.14,1.19-.39.62-.83,1.08-1.36.75-.53-.33-.72-.55-.33-1.17Z"/>
            <path class="cls-8" d="m110.27,180.59c-2.77-3.02-1.62-7.46-.33-7.46s2.91,4.88,3.46,6.7c.55,1.82,1.95,6.99.66,6.99s-1.02-3.2-3.79-6.23Z"/>
            <path class="cls-8" d="m105.03,174.29c0-1.21.58-.84,1.24-2.18s1.35-3.06,1.82-.44c.47,2.62-.63,4.81-1.49,4.81s-1.57-.98-1.57-2.18Z"/>
            <path class="cls-8" d="m127.48,149.88c-1.43-4.29,3.29-3.91,4.93-2.34,1.81,1.75,3.25,6.01,3.25,7.12,0,2.11-2.84,1.49-2.84,1.49l-2.64-1.32-4.52-.26s3.26-.4,1.83-4.69Z"/>
            <path class="cls-8" d="m160.87,142.85c.06-3.41,2.19-4.8,2.19-4.8,0,0,2.47-1.34,2.91-1.34.51,0,.09,1.76.35,2.93.49,2.15,1.43,4.46,1.43,5.57,0,1.71-.56,3.84-2,3.84s-4.94-2.94-4.88-6.2Z"/>
            <path class="cls-11" d="m106.94,151.37l12.76-10.47s9.04-.86,2.78,2.68c-2.74,1.55-9.43,3.44-6.33,6.88,1.63,1.8,1.64,3.98.82,5.71-.1.2-1.03.42-1.15.61-.2.32.41.59.16.86-.74.82-1.69,1.39-2.68,1.56-5.67.96-6.35-7.84-6.35-7.84Z"/>
            <path class="cls-11" d="m152.47,139.75c0-1.31,4.73-2.77,5.74,1.31.31,1.27-.9,2.27-2.57,2.27s-3.17-2.27-3.17-3.57Z"/>
            <path class="cls-11" d="m147.95,148.42c0-.89,3.02-1.28,4.97-1.28s6.2.96,6.2,1.85-3.18-.25-6.59,1.82c-2.95,1.79-4.57-1.5-4.57-2.39Z"/>
            <path class="cls-11" d="m89.59,190.87c0-1.03-1.25-2.73-1-4.5.27-1.84,2.79-4.38,4.18-4.38,1.15,0-1.47,2.39.14,4.7.79,1.13,2.96,2.4,4.59,2.74,1.25.26,2.13-.4,2.13.13s-1.33.6-2.19,1.13c-.95.59-1.06,1.86-.21,2.15,5.48,1.94,2.08,5.12-2.32,3.97-2.64-.69-5.33-3.83-5.33-5.94Z"/>
            <path class="cls-15" d="m137.94,143.28c-.17,0-.37-.05-.58-.14-.83-.36-1.33-1.64-1.86-3-.54-1.38-1.15-2.95-2.04-3.2-1.15-.32-2.27-.78-3.26-1.18-1.76-.71-3.29-1.33-4.1-.89-.52.28-4.03,3.17-6.26,5.04-.14.12-.36.1-.48-.04-.12-.14-.1-.36.04-.48.57-.48,5.63-4.71,6.37-5.12,1.1-.6,2.68.04,4.69.85,1.02.41,2.07.84,3.19,1.15,1.22.34,1.87,2.01,2.49,3.61.45,1.17.92,2.38,1.49,2.62.26.11.34.08.34.08.24-.2-.18-1.86-.39-2.67-.06-.25-.13-.5-.19-.74-.52-2.14-.85-2.94-2.18-4.52-.12-.14-.1-.36.04-.48.14-.12.36-.1.48.04,1.41,1.67,1.78,2.57,2.32,4.8.06.24.12.49.18.73.46,1.78.71,2.9.17,3.36-.13.11-.29.17-.48.17Z"/>
            <path class="cls-15" d="m143.39,143.84s-.05,0-.07,0c-1.05-.06-2.09-1.72-3.24-3.72-.29-.51-.55-.96-.73-1.2-.98-1.32-3.36-3.34-3.39-3.36-.14-.12-.16-.34-.04-.48.12-.14.34-.16.48-.04.1.08,2.47,2.09,3.49,3.47.2.27.47.73.77,1.26.67,1.17,1.92,3.34,2.69,3.38.05,0,.16,0,.19-.04.28-.41-.7-2.52-1.48-4.21l-.1-.23c-1.11-2.39-2.82-4.04-3.96-5.14-.14-.13-.14-.35,0-.48.13-.14.35-.14.48,0,1.17,1.13,2.94,2.83,4.1,5.34l.1.23c1.27,2.73,1.9,4.19,1.43,4.89-.11.16-.32.34-.72.34Z"/>
            <path class="cls-15" d="m146.62,143.24h-.02c-1.69-.03-4.41-4.27-4.71-4.75-.1-.16-.05-.37.11-.47.16-.1.37-.05.47.11,1.07,1.71,3.15,4.42,4.15,4.43.16,0,.22-.03.22-.04.19-.36-.96-2.06-1.51-2.88-.16-.24-.32-.47-.46-.68-1.04-1.58-2.05-3.06-4.01-5.3-.12-.14-.11-.36.03-.48s.36-.11.48.03c1.98,2.27,3.01,3.77,4.06,5.37.14.21.29.44.45.67,1.17,1.73,1.91,2.91,1.55,3.59-.1.18-.32.4-.81.4Z"/>
            <path class="cls-15" d="m148.38,139.45c-1.53,0-4.12-1.86-4.69-2.28-.15-.11-.18-.33-.07-.48.11-.15.33-.18.48-.07,1.48,1.09,3.87,2.47,4.56,2.09.01,0,.08-.05.09-.08,0-.01,0-.35-1.12-1.18-.81-.59-1.78-1.29-2.91-2.11l-1.49-1.07c-1.58-1.14-11.03-5.73-16.57-5.24-1.52.13-5.07,2.08-7.19,3.24-1.02.56-1.56.85-1.81.94-.18.06-.37-.03-.44-.21-.06-.18.03-.37.21-.44.21-.07.9-.45,1.71-.9,2.31-1.26,5.8-3.18,7.46-3.32,5.7-.51,15.41,4.2,17.03,5.37l1.49,1.07c1.13.82,2.1,1.52,2.91,2.11.99.72,1.43,1.28,1.4,1.77-.01.19-.1.45-.44.63-.17.09-.37.13-.6.13Z"/>
            <path class="cls-15" d="m138.68,159.34c-1.12,0-1.94-.18-2.79-.59-.7-.34-1.38-.85-2.04-1.35-.44-.33-.86-.65-1.26-.9l-.26-.16c-1.04-.64-1.52-.94-2.44-1.11-.83-.15-1.97-.24-2.98-.32-.26-.02-.51-.04-.74-.06-.29-.02-.61-.08-.91-.13-.54-.09-1.21-.2-1.41-.05-.01.01-.04.03-.05.1-.05.29.09.74,1.76,1.22l.36.1c1.14.32,2.43.68,3.36,1.66.13.14.12.35-.01.48-.14.13-.35.12-.48-.01-.8-.84-1.99-1.18-3.05-1.47l-.36-.1c-.73-.21-2.45-.7-2.25-1.99.04-.23.15-.42.32-.54.43-.31,1.16-.19,1.92-.07.29.05.59.1.85.12.23.02.48.04.74.06,1.03.08,2.19.17,3.05.33,1.05.19,1.59.53,2.68,1.2l.26.16c.43.26.86.59,1.32.94.63.48,1.28.97,1.92,1.28,1.47.7,2.89.65,6.44.12.19-.02.36.1.39.29.03.19-.1.36-.29.39-1.76.26-3.02.41-4.04.41Z"/>
            <path class="cls-15" d="m125.75,167.9s-.02,0-.04,0c-.02,0-1.72-.18-3.2-.3-1.03-.08-1.99-.41-2.92-.74-.36-.12-.71-.25-1.07-.36-1.22-.37-2.71-.93-2.87-1.47-.11-.37-.07-.67.12-.9.29-.34.83-.43,1.81-.3.53.07,1.2.22,1.91.37.89.19,1.81.4,2.49.45.98.08,1.99-.03,2.44-.17-.39-.12-1.19-.24-1.8-.32-.6-.08-1.23-.17-1.82-.29-1.6-.32-2.53-.68-3.71-1.14-.23-.09-.46-.18-.71-.28-1.41-.54-2.63-1-2.38-1.97.07-.26.23-.47.48-.6.75-.42,2.16-.11,2.92.12,1.5.44,2.6.72,4.15.92,1,.13,2.59.33,3.01.19-.26-.37-3.12-1.17-4.09-1.44-.47-.13-3.53-1.14-4.43-1.65-.53-.31-.77-.84-.61-1.32.15-.43.66-.83,1.65-.69.92.14,2.45.49,3.92.83.42.1.83.19,1.23.28,1.85.42,3.29.54,5.01.6.94.03,1.67-.04,2.31-.1.28-.03.54-.05.78-.06.19-.01.35.14.36.32,0,.19-.14.35-.32.36-.23.01-.48.04-.75.06-.63.06-1.41.13-2.39.1-1.76-.06-3.24-.19-5.14-.62-.4-.09-.82-.19-1.23-.28-1.46-.34-2.98-.69-3.87-.82-.54-.08-.85.06-.91.24-.06.16.07.36.3.5.8.46,3.7,1.43,4.27,1.59,3.93,1.09,4.7,1.47,4.61,2.24-.02.15-.09.27-.22.37-.46.36-1.65.22-3.55-.02-1.62-.21-2.76-.49-4.29-.94-1.1-.32-2.01-.39-2.4-.18-.11.06-.14.13-.15.18-.09.34.83.72,1.96,1.15.25.1.49.19.72.28,1.14.45,2.05.8,3.59,1.11.58.12,1.19.2,1.78.28,1.68.24,2.43.36,2.56.87.04.16,0,.33-.11.46-.46.55-2.38.58-3.24.5-.72-.06-1.67-.27-2.58-.47-.7-.15-1.36-.3-1.85-.36-.98-.13-1.17.03-1.2.06-.03.04-.03.13.01.26.13.18,1.24.66,2.42,1.01.37.11.73.24,1.1.36.93.32,1.81.63,2.75.7,1.49.12,3.2.3,3.22.3.19.02.32.19.3.38-.02.18-.17.31-.34.31Z"/>
            <path class="cls-15" d="m127.01,169.43c-.09,0-.17,0-.25,0-.99-.04-8.3-.91-8.27-3.14,0-.19.15-.35.35-.34.19,0,.34.16.34.35-.02,1.23,5.4,2.37,7.61,2.45,1.12.04,2.32-.24,3.84-.6.69-.16,1.48-.35,2.33-.51,2.37-.47,4.57-.84,7.35-1.32,1.18-.2,2.44-.42,3.84-.66.19-.03.36.09.4.28.03.19-.09.36-.28.4-1.4.25-2.67.46-3.85.66-2.78.48-4.98.85-7.33,1.32-.84.17-1.58.34-2.3.51-1.46.34-2.63.62-3.77.62Z"/>
            <path class="cls-15" d="m121.59,110.24c-.12,0-.23-.06-.29-.17-.1-.16-.04-.37.12-.47.9-.54,1.52-1.1,1.84-1.65.59-1.03.47-4.71.38-6.04-.01-.19.13-.35.32-.37.19-.02.35.13.37.32.04.51.34,5.04-.47,6.43-.38.66-1.08,1.3-2.08,1.9-.06.03-.12.05-.18.05Z"/>
            <path class="cls-15" d="m97.51,155.37c-.56,0-1.04-.1-1.4-.3-3.18-1.77-2.79-7.82-2.28-9.82,3.21-12.74,8.49-24,10.05-26.65,2.32-3.95,7.65-5.57,10.83-6.53l.11-.03c1.89-.57,3.26-1.07,4.07-1.47.43-.21.87-.45,1.29-.68,1.16-.64,1.84-.99,2.32-.93.19.03.32.2.29.38-.03.19-.2.32-.38.29-.28-.04-1.18.45-1.9.85-.43.23-.87.47-1.31.69-.84.41-2.25.92-4.17,1.51l-.11.03c-3.09.94-8.26,2.51-10.44,6.23-1.55,2.64-6.78,13.81-9.98,26.47-.6,2.36-.64,7.62,1.95,9.06,1.28.71,5.2-.31,9.93-3.61,2.93-2.04,6.29-4.77,9.54-7.4l.7-.57c.7-.57,1.28-1.02,1.74-1.38,1.83-1.43,1.82-1.44,1.71-2.27-.03-.19.1-.36.29-.39.19-.03.36.1.39.29.18,1.24-.11,1.46-1.96,2.91-.46.36-1.03.81-1.73,1.37l-.7.57c-3.26,2.64-6.63,5.37-9.58,7.43-3.57,2.49-7.07,3.95-9.25,3.95Z"/>
            <path class="cls-15" d="m98.66,142.22c-.11,0-.22-.06-.29-.16-.1-.16-.06-.37.1-.47,2.6-1.67,7.04-3.7,10.61-5.34,1.63-.75,3.04-1.39,3.99-1.88.66-.33,1.22-.62,1.71-.88,1.93-1,2.66-1.38,3.22-1.16.18.07.27.26.2.44-.07.18-.26.27-.44.2-.28-.1-1.18.36-2.67,1.13-.49.25-1.05.55-1.71.88-.96.49-2.38,1.14-4.02,1.89-3.55,1.63-7.97,3.65-10.53,5.29-.06.04-.12.05-.18.05Z"/>
            <path class="cls-15" d="m120.15,140.48s-.09,0-.13-.03c-2.56-1.05-3.06-5.72-2.89-7.69.02-.19.18-.33.37-.31.19.02.33.18.31.37-.16,1.96.41,6.15,2.47,7,.17.07.26.27.19.45-.05.13-.18.21-.32.21Z"/>
            <path class="cls-15" d="m111.48,131.64c-.17,0-.31-.12-.34-.29-.75-5.19-1.78-8.82-3.24-11.43-.09-.16-.03-.37.13-.47.16-.09.37-.03.47.13,1.5,2.69,2.56,6.39,3.32,11.67.03.19-.1.36-.29.39-.02,0-.03,0-.05,0Z"/>
            <path class="cls-15" d="m149.88,138.37s-.03,0-.04,0c-.19-.02-.32-.19-.3-.38,0-.08.99-7.9,1.11-13.83,0-.19.16-.34.35-.33.19,0,.34.16.33.35-.12,5.96-1.1,13.82-1.11,13.9-.02.17-.17.3-.34.3Z"/>
            <path class="cls-15" d="m139.81,110.24s-.08,0-.12-.02c-1.21-.47-1.98-.98-2.5-1.67-1.09-1.44-.58-5.03-.56-5.19.03-.19.2-.32.39-.29.19.03.32.2.29.39-.14.96-.34,3.67.43,4.67.44.58,1.12,1.02,2.2,1.44.18.07.26.27.2.44-.05.14-.18.22-.32.22Z"/>
            <path class="cls-15" d="m164.47,137.53c-.14,0-.28-.09-.33-.24-3-9.3-6.6-16.82-7.77-18.83-1.34-2.29-3.47-3.82-7.09-5.12-.43-.15-.86-.3-1.32-.47-1.05-.37-2.23-.79-3.77-1.35-.75-.27-1.47-.6-2.16-.92-1.25-.57-2.44-1.11-3.04-.94-.18.05-.37-.05-.42-.23-.05-.18.05-.37.23-.42.85-.24,2.09.32,3.52.97.68.31,1.39.64,2.11.9,1.54.56,2.72.98,3.77,1.35.46.16.89.31,1.32.47,2.67.96,5.65,2.35,7.45,5.42,1.24,2.11,4.78,9.53,7.83,18.97.06.18-.04.37-.22.43-.03.01-.07.02-.11.02Z"/>
            <path class="cls-15" d="m144.86,167.39c-1.57,0-1.84-1.13-1.85-1.15-.04-.18.08-.37.26-.41.18-.04.37.08.41.26,0,.03.26.89,1.95.52,1.89-.42,5-1.39,7.4-2.32,7.77-3.01,12.21-5.82,13.57-8.58.53-1.09,1.31-4.19.43-8.16-.04-.18.08-.37.26-.41.18-.04.37.08.41.26.92,4.15.13,7.36-.49,8.61-1.44,2.93-6,5.85-13.94,8.92-2.43.94-5.58,1.93-7.5,2.35-.35.08-.65.11-.92.11Z"/>
            <path class="cls-15" d="m144.55,167.35s-.02,0-.03,0c-.19-.02-.33-.18-.31-.37.23-2.73-.24-6.56-1.82-8.52-.12-.15-.09-.36.05-.48.15-.12.36-.09.48.05,1.7,2.12,2.21,6.06,1.97,9.01-.01.18-.16.31-.34.31Z"/>
            <path class="cls-15" d="m142.08,158.95s-.09,0-.14-.03c-.17-.08-.25-.28-.17-.45.4-.88,1.58-1.36,3.94-2.3,2.07-.83,4.92-1.96,8.76-3.98.17-.09.37-.02.46.14.09.17.02.37-.14.46-3.87,2.03-6.73,3.17-8.82,4.01-2.05.82-3.29,1.31-3.57,1.94-.06.13-.18.2-.31.2Z"/>
            <path class="cls-15" d="m132.79,178.67c-8.87,0-17.08-2.17-20.14-4.27-1.48-1.01-1.48-1.3-1.25-2.87.06-.42.14-.95.21-1.64.07-.69-.08-1.23-.27-1.93-.2-.75-.45-1.68-.52-3.12-.05-1.1-.11-2.47-.16-3.73,0-.19.14-.35.33-.35.19,0,.35.14.35.33.05,1.26.1,2.63.16,3.72.07,1.36.3,2.22.5,2.97.2.73.37,1.36.29,2.17-.07.7-.15,1.24-.21,1.67q-.21,1.41.96,2.21c5.2,3.58,25.58,7.32,38.26-.13.8-.47.7-1.56.43-3.61-.18-1.34-.4-3.01-.3-4.93,0-.19.17-.34.36-.32.19,0,.33.17.32.36-.09,1.86.12,3.49.29,4.81.27,2.07.47,3.57-.76,4.29-5.46,3.21-12.34,4.38-18.85,4.38Z"/>
            <path class="cls-15" d="m153.51,200.18h0c-.19,0-.34-.16-.34-.35.08-8.15-.42-19.26-1.69-25.73-.04-.19.08-.36.27-.4.19-.04.36.08.4.27,1.28,6.52,1.77,17.69,1.7,25.87,0,.19-.15.34-.34.34Z"/>
            <path class="cls-15" d="m111.74,175.68s-.03,0-.04,0c-.19-.02-.32-.19-.3-.38.13-1.15.23-1.75.23-1.77.03-.19.21-.32.39-.28.19.03.31.21.28.39,0,0-.1.61-.23,1.74-.02.17-.17.3-.34.3Z"/>
            <path class="cls-15" d="m111.62,200.03c-.18,0-.33-.14-.34-.31-.17-2-.29-4.03-.38-6.02,0-.19.14-.35.33-.36.19,0,.35.14.36.33.08,1.98.21,4,.38,5.99.02.19-.12.35-.31.37,0,0-.02,0-.03,0Z"/>
            <path class="cls-15" d="m131.6,201.96s-.03,0-.04,0c-.19-.02-.32-.19-.3-.38.03-.24.73-5.99,1.2-8.02.46-1.99,1.14-3.28,1.85-4.64l.1-.19c.09-.17.29-.23.46-.14.17.09.23.29.14.46l-.1.19c-.72,1.38-1.35,2.57-1.79,4.48-.46,1.99-1.18,7.89-1.19,7.95-.02.17-.17.3-.34.3Z"/>
            <path class="cls-15" d="m135.55,201.93c-.16,0-.3-.11-.33-.28-.01-.08-1.5-7.58-2.22-9.31-.07-.17,0-.37.18-.45.17-.07.37.01.45.18.75,1.79,2.2,9.12,2.26,9.44.04.19-.08.36-.27.4-.02,0-.04,0-.07,0Z"/>
            <path class="cls-15" d="m132.06,117.75c-3.34,0-10.06-5.65-10.93-7.73-.07-.17,0-.37.18-.45.17-.07.37,0,.45.18.78,1.86,7.32,7.31,10.29,7.31h.01c2.26-.01,6.43-4.39,7.55-7.34.07-.18.26-.27.44-.2.18.07.27.26.2.44-1.22,3.2-5.65,7.76-8.18,7.78h-.02Z"/>
            <path class="cls-13" d="m124.06,101.86s2.08,2.58,3.69,3.48c.67.37,2.39,1.47,3.1,1.6.39.07,1.23.07,2.17-.36,1.5-.69,3.17-1.96,3.17-1.96,0,0-2.3,4.4-5.32,4.51-3.42.12-6.65-4.59-6.65-4.59l-.16-2.68Z"/>
            <path class="cls-15" d="m121.95,97.07s-.07,0-.11-.02c-.85-.29-1.65-.56-2.37-2.03-.45-.93-.47-2.42.29-3.3.54-.63,1.35-.81,2.3-.53.18.05.28.25.23.43-.06.18-.25.28-.43.23-.69-.21-1.22-.1-1.58.32-.5.59-.59,1.74-.19,2.56.59,1.21,1.17,1.41,1.97,1.69.18.06.27.26.21.43-.05.14-.18.23-.32.23Z"/>
            <path class="cls-15" d="m121.89,94.93c-.14,0-.28-.09-.32-.23-.2-.61-.58-.86-.59-.87-.16-.1-.2-.31-.1-.47.1-.16.31-.2.47-.1.02.02.59.38.87,1.23.06.18-.04.37-.22.43-.04.01-.07.02-.11.02Z"/>
            <path class="cls-15" d="m131.5,107.21c-.14,0-.27-.01-.4-.03-2.5-.44-6.19-3.1-7.22-4.84-.99-1.66-1.47-4.2-1.49-4.3-.03-.19.09-.36.27-.4.19-.03.36.09.4.27,0,.03.48,2.52,1.41,4.08.94,1.58,4.45,4.11,6.75,4.51,2.31.41,6.55-4.02,7.2-6.02.58-1.77.73-2.79,1.04-4.83l.04-.25c.28-1.82.31-2,.65-3.66.04-.18.22-.3.4-.27.18.04.3.22.27.4-.34,1.64-.37,1.81-.65,3.62l-.04.25c-.32,2.07-.48,3.12-1.07,4.94-.71,2.18-4.84,6.51-7.57,6.51Z"/>
            <path class="cls-15" d="m139.68,96.92c-.16,0-.3-.11-.33-.27-.04-.18.08-.37.26-.41.86-.19,1.7-1.2,1.85-2.21.24-1.64-.62-1.79-.9-1.83-.19-.03-.31-.21-.28-.39.03-.19.21-.31.39-.28.67.11,1.76.6,1.46,2.6-.19,1.29-1.26,2.54-2.38,2.78-.02,0-.05,0-.07,0Z"/>
            <path class="cls-15" d="m131.71,98.6c-.09,0-.18-.03-.24-.1-.13-.14-.13-.35,0-.48.88-.86.83-1.21.76-1.32-.04-.07-.12-.16-.21-.26-.49-.57-1.4-1.62-.29-3.99.08-.17.28-.24.45-.16.17.08.24.28.16.45-.92,1.97-.28,2.72.19,3.26.11.12.21.24.28.36.48.83-.54,1.82-.88,2.15-.07.06-.15.1-.24.1Z"/>
            <path class="cls-13" d="m126.77,93.14c.03-.67.44-1.2.92-1.18.48.02.85.58.83,1.25-.03.67-.44,1.2-.92,1.18-.48-.02-.85-.58-.83-1.25Z"/>
            <path class="cls-15" d="m130.02,90.25s-.07,0-.11-.02c-1.49-.51-2.79-.29-3.61,0-.18.06-.37-.04-.43-.21s.04-.37.21-.43c.93-.31,2.38-.56,4.05.01.18.06.27.26.21.43-.05.14-.18.23-.32.23Z"/>
            <path class="cls-13" d="m134.63,93.47c.03-.67.44-1.2.92-1.18.48.02.85.58.83,1.25-.01.34-.12.64-.29.85-.17.21-.39.34-.63.33-.48-.02-.85-.58-.83-1.25Z"/>
            <path class="cls-15" d="m137.47,90.48c-.05,0-.11-.01-.16-.04-1.02-.55-2-.57-3.1-.07-.17.08-.37,0-.45-.17-.08-.17,0-.37.17-.45,1.29-.59,2.5-.56,3.71.09.17.09.23.3.14.46-.06.11-.18.18-.3.18Z"/>
            <path class="cls-15" d="m136.89,88.26s-.02,0-.03,0h-.06c-.57-.03-2.07-.1-3.56-1.61-.83-.85-1.48-2.25-1.86-3.09-.07-.15-.13-.27-.17-.37-.22.16-.65.73-.79,1.42-.04.18-.22.3-.4.27-.18-.04-.3-.22-.27-.4.18-.87.83-1.91,1.44-2,.24-.04.45.07.57.28.06.11.14.29.25.51.34.75.99,2.13,1.73,2.89.83.85,1.67,1.18,2.29,1.31-.7-.67-1.79-1.86-2.2-3.53-.05-.18.07-.37.25-.41.18-.05.37.07.41.25.44,1.78,1.73,2.95,2.35,3.52.34.31.52.47.41.73-.02.05-.11.23-.36.23Zm0-.68h0,0Z"/>
            <path class="cls-15" d="m137.07,83.98s-.08,0-.12-.02c-1.3-.49-2.35-1.59-3.12-2.39-.38-.39-.9-.93-1.07-.94,0,0-.01,0-.02,0-.91,0-2.18.97-2.86,2.17-.09.16-.3.22-.47.13-.16-.09-.22-.3-.13-.47.82-1.45,2.33-2.52,3.49-2.52.45,0,.89.46,1.55,1.15.77.79,1.72,1.78,2.87,2.22.18.07.26.26.2.44-.05.14-.18.22-.32.22Z"/>
            <path class="cls-15" d="m141.26,92.15c-.51,0-1.28-.12-2.21-.65-.08-.05-.17-.09-.25-.14-.86-.47-1.84-1.01-2.87-3.21-.08-.17,0-.37.17-.45.17-.08.37,0,.45.17.93,2,1.77,2.46,2.58,2.9.09.05.17.1.26.15.69.39,1.26.52,1.66.55-.7-.74-1.83-2.23-2.24-4.39-.04-.19.09-.36.27-.4.18-.04.36.09.4.27.56,2.89,2.55,4.51,2.57,4.53.1.08.14.2.12.33-.02.12-.11.22-.23.26-.02,0-.27.09-.69.09Z"/>
            <path class="cls-15" d="m123.12,89.7c-.3,0-.69-.04-.84-.22-.07-.08-.1-.21-.08-.31.04-.19.19-.26.34-.34.39-.2,1.58-.8,2.51-3.41.06-.18.26-.27.44-.21.18.06.27.26.21.44-.67,1.9-1.5,2.85-2.12,3.33.83-.14,2.09-.68,3.01-2.42.87-1.63,1.45-2.3,2-2.32.47-.02.72.4.85.6.1.16.05.37-.11.47-.16.1-.37.05-.47-.11-.17-.28-.24-.28-.24-.28-.06,0-.44.11-1.42,1.96-1.18,2.22-2.83,2.71-3.71,2.8-.04,0-.19.02-.37.02Z"/>
            <path class="cls-15" d="m123.15,92.05c-.18,0-.33-.14-.34-.31-.01-.19.13-.35.31-.37.9-.07,2.05-1.2,2.43-3.16.04-.19.21-.31.4-.27.19.04.31.22.27.4-.45,2.31-1.88,3.62-3.05,3.71,0,0-.02,0-.03,0Z"/>
            <path class="cls-15" d="m138.24,80.54c-.57,0-1.21-.09-1.91-.33-.18-.06-.27-.25-.21-.43.06-.18.25-.27.43-.21,1.36.46,2.43.29,3.07.06-.44-.08-.96-.2-1.37-.38-.17-.08-.37-.17-.61-.28-1.66-.77-5.12-2.37-7.28-1.92-1.14.24-1.66,1.08-1.68,1.12-.1.16-.31.22-.47.12-.16-.1-.22-.3-.12-.47.03-.05.67-1.14,2.13-1.44,2.39-.5,5.85,1.1,7.71,1.97.23.11.43.2.6.27.58.26,1.5.39,1.89.45l.16.02c.13.02.26.13.29.25.03.11.03.27-.15.45-.33.32-1.23.76-2.49.76Z"/>
            <path class="cls-15" d="m144.04,89.08c-.28,0-.73-.07-1.47-.28-.18-.05-.29-.24-.24-.42.05-.18.24-.29.42-.24.27.08.55.14.79.19-.32-.44-.69-1.18-.93-2.34-.54-2.65-1.39-4.28-2.61-4.99-.16-.09-.22-.3-.12-.47.09-.16.3-.22.47-.12,1.4.81,2.36,2.59,2.94,5.44.31,1.55.87,2.2,1.09,2.41.28.26.22.49.16.6-.06.1-.13.23-.5.23Zm-.1-.3h0,0Z"/>
            <path class="cls-15" d="m141.84,92.87c-.07,0-.14-.02-.2-.07-.15-.11-.18-.33-.07-.48,1.12-1.5,1.11-3.18-.04-5.62-.08-.17,0-.37.16-.45.17-.08.37,0,.45.16,1.26,2.66,1.25,4.61-.03,6.32-.07.09-.17.14-.27.14Z"/>
            <path class="cls-15" d="m140.68,92.23c-.07,0-.13-.02-.19-.06-.16-.1-.2-.32-.1-.47.1-.16.32-.2.48-.1.16.1.2.31.1.47h0c-.07.11-.17.16-.28.16Z"/>
            <path class="cls-15" d="m118.13,87.46c-.23,0-.41-.03-.53-.05-.26-.05-.7-.19-.77-.5-.03-.13.03-.3.13-.38.09-.07.18-.11.28-.15.25-.1.67-.26,1.22-1.13.28-.44.44-.92.62-1.47.29-.9.65-2.01,1.73-3.39,1.86-2.36,4.09-3.38,6.29-2.86.18.04.3.23.25.41-.04.18-.23.3-.41.25-2.47-.58-4.4,1.1-5.6,2.62-1.01,1.28-1.33,2.28-1.62,3.17-.19.57-.36,1.12-.69,1.63-.4.62-.76.96-1.05,1.15.14,0,.29,0,.46-.02.58-.08,1.45-.41,2.3-1.56.11-.15.33-.18.48-.07.15.11.18.33.07.48-1.17,1.57-2.43,1.85-3.17,1.85Z"/>
            <path class="cls-15" d="m128.31,82.99c-.13,0-.25-.07-.31-.19-.5-1.01-.47-2.08.09-3.26.08-.17.28-.24.46-.16.17.08.24.28.16.46-.47,1-.5,1.85-.09,2.67.08.17.02.37-.15.46-.05.02-.1.04-.15.04Z"/>
            <path class="cls-15" d="m132.18,101.72c-1.39,0-2.95-.36-3.9-1.11-.15-.12-.17-.33-.06-.48.12-.15.33-.17.48-.06,1.31,1.03,4.08,1.22,5.34.64.17-.08.37,0,.45.17.08.17,0,.37-.17.45-.55.25-1.32.38-2.15.38Z"/>
            <path class="cls-15" d="m121.44,102.99c-.12,0-.23-.06-.29-.16-.07-.11-.07-.25,0-.36.03-.06.85-1.5.17-3.61-.32-1-.82-1.79-1.35-2.62-1.2-1.9-2.43-3.86-1.39-8.23.04-.18.23-.3.41-.25.18.04.3.23.25.41-.97,4.1.13,5.85,1.31,7.71.53.83,1.07,1.7,1.42,2.78.5,1.53.29,2.77.06,3.48.34-.14.73-.39.94-.83.08-.17.29-.24.46-.16.17.08.24.29.16.46-.59,1.21-2.04,1.37-2.1,1.38-.01,0-.02,0-.03,0Z"/>
            <path class="cls-15" d="m122.45,104.43c-.07,0-.12,0-.17-.02-.13-.05-.24-.19-.24-.34,0-.06.02-.12.05-.17.01-.02,1.02-1.79.97-3.47,0-.19.14-.35.33-.35.19,0,.35.14.35.33.04,1.22-.4,2.43-.72,3.16.23-.12.5-.3.72-.56.12-.14.34-.16.48-.04.14.12.16.34.04.48-.57.67-1.4.98-1.81.98Z"/>
            <path class="cls-15" d="m138.31,104.8c-.48,0-1.2-.2-1.63-1-.09-.17-.03-.37.14-.46.17-.09.37-.03.46.14.19.35.45.52.68.59-.16-.46-.32-1.21-.21-2.23.02-.19.19-.32.38-.3.19.02.32.19.3.38-.17,1.55.35,2.32.36,2.33.07.1.08.22.04.33-.04.11-.14.19-.25.21-.07.01-.16.02-.26.02Z"/>
            <path class="cls-15" d="m139.16,99.57c-.1,0-.2-.05-.27-.13-.12-.15-.09-.36.06-.48,1.34-1.04,1.19-2.6,1.18-2.67-.02-.19.12-.36.3-.38.19-.02.36.11.38.3,0,.08.21,2-1.44,3.28-.06.05-.14.07-.21.07Z"/>
            <path class="cls-15" d="m160.56,145.96s-.06,0-.1-.01c-.76-.23-1.14-.78-1.33-1.06-.34.17-.97.47-1.9.36-.19-.02-.32-.19-.3-.38.02-.19.2-.32.38-.3.74.09,1.23-.15,1.53-.3.18-.09.32-.16.49-.11.17.04.25.17.36.33.17.26.43.65.97.81.18.05.28.24.23.43-.04.15-.18.24-.33.24Z"/>
            <path class="cls-15" d="m156.73,142.06s-.02,0-.03,0c-.11-.01-.22-.06-.41-.14-.33-.15-.95-.42-2.06-.65-.18-.04-.3-.22-.26-.41.04-.18.22-.3.41-.26.15.03.29.06.42.1-.06-.09-.08-.22-.03-.33.08-.17.28-.25.45-.17.52.23,1.96,1.14,1.84,1.61-.04.15-.18.26-.34.26Z"/>
            <path class="cls-15" d="m164.51,143.35s-.04,0-.07,0c-1.11-.22-1.79-.21-2.15-.2-.2,0-.32,0-.43-.03-.16-.05-.26-.21-.24-.38.07-.48,1.75-.75,2.32-.76,0,0,0,0,0,0,.19,0,.34.15.34.34,0,.12-.06.23-.15.29.14.02.28.05.43.08.19.04.31.22.27.4-.03.16-.17.28-.34.28Z"/>
            <path class="cls-15" d="m160.88,150.21c-.18,0-.33-.13-.34-.31-.02-.19.12-.35.31-.37.32-.03.68-.04,1.06-.05,2.13-.06,4.77-.14,5.38-2.96.39-1.8-.58-4.56-1.02-5.66l-.02-.05c-.41-1.06-.46-1.71-.49-2.45,0-.26.02-.57.04-.87.01-.15.03-.35.04-.51-.21.11-.47.25-.74.4-.63.36-1.35.76-1.89.9-.56.14-1.3-.06-2.24-.32-.71-.19-1.51-.41-2.41-.53h-.1c-1.91-.27-1.98-.28-2.78-.8l-.09-.06c-.69-.45-.99-.87-1.4-1.45-.13-.18-.27-.38-.44-.6-.43-.56-.87-.9-1.08-.99,0,0,0,.01,0,.02.07.99-.39,2.68-1.02,3.75-.1.16-.31.22-.47.12-.16-.1-.22-.31-.12-.47.55-.94.99-2.51.93-3.36-.04-.51.22-.68.37-.74.6-.23,1.5.68,1.94,1.26.18.23.32.43.45.62.4.56.64.89,1.22,1.27l.09.06q.67.44,2.5.69h.1c.94.14,1.77.37,2.5.57.81.22,1.51.41,1.89.31.46-.12,1.13-.49,1.72-.83.46-.26.85-.48,1.14-.58.14-.05.29-.03.41.06.26.2.23.61.17,1.29-.02.28-.05.57-.04.79.02.7.07,1.27.44,2.22l.02.05c.57,1.44,1.46,4.15,1.05,6.06-.72,3.34-3.91,3.43-6.03,3.49-.37.01-.72.02-1.02.05,0,0-.02,0-.03,0Z"/>
            <path class="cls-15" d="m146.98,141.76c-.06,0-.12-.02-.17-.05-.16-.1-.22-.3-.12-.47,1.56-2.65,5.21-4.86,6.12-5.04.19-.03.36.09.4.27.03.19-.09.36-.27.4-.67.13-4.16,2.15-5.66,4.71-.06.11-.18.17-.3.17Z"/>
            <path class="cls-15" d="m153.3,143.5c-.07,0-.15-.02-.21-.07-.01-.01-1.36-1.08-3.05-1.49-.18-.05-.3-.23-.25-.41.05-.18.23-.29.41-.25,1.83.45,3.25,1.57,3.31,1.62.15.12.17.33.05.48-.07.08-.17.13-.27.13Z"/>
            <path class="cls-15" d="m152.75,144.6s-.1-.01-.15-.03c-.02,0-1.55-.72-3.2-.79-.19,0-.34-.17-.33-.36,0-.19.16-.33.36-.33,1.8.07,3.4.82,3.47.85.17.08.24.28.16.45-.06.12-.18.2-.31.2Z"/>
            <path class="cls-15" d="m168.54,146.36s-.07,0-.1-.01c-1.8-.54-3.85-.35-3.87-.35-.19.02-.36-.12-.37-.31-.02-.19.12-.35.31-.37.09,0,2.21-.21,4.13.38.18.05.28.25.23.43-.04.15-.18.24-.33.24Z"/>
            <path class="cls-15" d="m168.52,148.76c-.07,0-.15-.02-.21-.07-1.41-1.08-3.57-1.19-3.59-1.19-.19,0-.34-.17-.33-.36,0-.19.16-.32.36-.33.1,0,2.39.11,3.97,1.33.15.11.18.33.06.48-.07.09-.17.13-.27.13Z"/>
            <path class="cls-15" d="m147.32,155.51c-.46,0-.94-.05-1.43-.17-.18-.04-.3-.23-.25-.41.04-.18.23-.3.41-.25,2.56.61,4.86-.82,6.38-1.76.52-.32.93-.58,1.27-.71,1.5-.57,2.72.42,3.24.84.25.2.49.43.71.64.32.31.63.59.95.81.22.14.64.18.81.03.14-.13.15-.51-.24-1.21-.09-.16-.03-.37.13-.46.17-.09.37-.03.46.13.65,1.17.41,1.75.1,2.04-.42.39-1.2.34-1.65.04-.38-.25-.72-.57-1.05-.88-.22-.21-.44-.42-.67-.61-.71-.58-1.57-1.11-2.57-.74-.28.1-.68.36-1.15.65-1.34.83-3.24,2.02-5.47,2.02Z"/>
            <path class="cls-15" d="m160.65,155.29c-.44,0-.91-.17-1.14-.56-.1-.16-.04-.37.12-.47.16-.1.37-.04.47.12.1.17.44.26.73.2.18-.04.4-.13.43-.4.02-.18-.22-1.02-.45-1.69-.06-.18.03-.37.21-.43.18-.06.37.03.43.21.16.47.53,1.6.48,2-.07.5-.43.87-.98.98-.1.02-.21.03-.32.03Z"/>
            <path class="cls-15" d="m161.85,154.49c-.14,0-.28-.09-.32-.23-.06-.18.04-.37.22-.43.01,0,.46-.17.64-.53.1-.2.09-.43,0-.71-.44-1.2-1.92-2.9-4.11-3.83-2.82-1.19-6.55-2.08-12.75.28-.18.07-.37-.02-.44-.2-.07-.18.02-.37.2-.44,6.43-2.45,10.31-1.51,13.25-.27,2.38,1,3.99,2.89,4.49,4.22.17.45.16.87-.02,1.24-.3.63-1.01.87-1.04.88-.04.01-.07.02-.11.02Z"/>
            <path class="cls-15" d="m89.74,190.22c-.11,0-.21-.05-.28-.15-1.04-1.48-1.38-3.03-.98-4.49.48-1.79,1.95-3.03,3.16-3.59.55-.26,1.23-.5,1.59-.1.29.32.1.83.01.98-1.38,2.35.02,3.96.98,4.7,2.33,1.82,6.6,2.22,8.84.03,2.8-2.75,1.39-7.69-.11-12.91-.59-2.04-1.19-4.16-1.58-6.25-.79-4.19-.26-8.04,1.47-10.86.28-.45.56-.93.86-1.42,1.16-1.93,2.48-4.11,4.08-6.27.11-.15.33-.18.48-.07.15.11.18.33.07.48-1.58,2.13-2.89,4.3-4.05,6.22-.3.5-.59.97-.87,1.42-1.64,2.67-2.13,6.35-1.38,10.37.39,2.06.99,4.16,1.57,6.19,1.55,5.43,3.02,10.55-.07,13.59-2.55,2.5-7.18,2.02-9.74.02-1.9-1.48-2.33-3.57-1.14-5.59.02-.04.04-.11.05-.16-.09,0-.32.04-.77.25-1.07.49-2.37,1.58-2.79,3.14-.34,1.28-.05,2.6.88,3.92.11.15.07.37-.08.48-.06.04-.13.06-.2.06Z"/>
            <path class="cls-15" d="m137.88,144.51c-2.66,0-4.62-.29-5.83-.87-.22-.1-.45-.22-.71-.35-2.51-1.24-6.7-3.32-11.57-2.03-.18.05-.37-.06-.42-.24-.05-.18.06-.37.24-.42,5.12-1.36,9.45.79,12.05,2.07.25.12.48.24.7.34,1.22.58,3.33.85,6.26.8.69-.01,1.72-.36,2.8-.72.24-.08.49-.16.74-.25.18-.06.37.04.43.22.06.18-.04.37-.22.43-.25.08-.49.16-.73.24-1.14.38-2.21.74-3.01.76-.25,0-.5,0-.74,0Z"/>
            <path class="cls-15" d="m144.02,143.01c-.16,0-.3-.11-.33-.27-.04-.18.08-.37.26-.41.56-.12,1.04-.19,1.47-.19h0c.19,0,.34.15.34.34,0,.19-.15.34-.34.34-.38,0-.82.06-1.33.17-.02,0-.05,0-.07,0Z"/>
            <path class="cls-15" d="m135.55,155.87c-.19,0-.34-.15-.34-.34,0-2.24-.9-6.62-4.29-8.85-.16-.1-.2-.32-.1-.47.1-.16.31-.2.47-.1,3.63,2.38,4.6,7.04,4.6,9.42,0,.19-.15.34-.34.34Z"/>
            <path class="cls-15" d="m115.99,164.65s-.05,0-.07,0c-1.88-.4-2.95-1.29-3.97-2.24-1.67-1.56-3.22-4.12-3.84-5.74-.07-.18.02-.37.2-.44.18-.07.37.02.44.2.6,1.57,2.14,4.04,3.67,5.48.98.92,1.93,1.7,3.64,2.07.18.04.3.22.26.41-.03.16-.18.27-.33.27Z"/>
            <path class="cls-15" d="m119.37,164.84c-.18,0-.33-.14-.34-.32-.01-.19.13-.35.32-.36,1.14-.07,2.46-.24,3.94-.52.18-.03.36.09.4.27.04.19-.09.36-.27.4-1.5.29-2.86.47-4.03.54,0,0-.01,0-.02,0Z"/>
            <path class="cls-15" d="m143.64,157.53c-.11,0-.21-.05-.28-.14-.39-.55-1.16-.35-2.4.01l-.29.09c-.18.05-.37-.05-.42-.23-.05-.18.05-.37.23-.42l.29-.09c1.26-.38,2.46-.73,3.15.25.11.15.07.37-.08.48-.06.04-.13.06-.2.06Z"/>
            <path class="cls-15" d="m143.09,156.85c-.16,0-.3-.11-.33-.27-.12-.56-.53-.89-1.13-.92-.42-.02-.94.11-1.5.25-.26.07-.53.13-.79.19-.18.04-.37-.08-.4-.26-.04-.18.08-.37.26-.4.26-.05.51-.12.76-.18.61-.16,1.18-.3,1.7-.27.91.05,1.57.6,1.76,1.46.04.18-.08.37-.26.41-.02,0-.05,0-.07,0Z"/>
            <path class="cls-15" d="m133.14,156.59c-.16,0-.3-.11-.33-.27-.04-.18.07-.37.26-.41.78-.18,1.41-.29,1.97-.38.76-.13,1.31-.22,1.81-.43,2.16-.89,3.9-.91,4.67-.06.13.14.12.36-.02.48-.14.13-.36.12-.48-.02-.55-.61-2.08-.51-3.9.23-.57.23-1.18.34-1.95.47-.55.09-1.16.2-1.93.38-.03,0-.05,0-.08,0Z"/>
            <path class="cls-15" d="m158.82,171.24s-.08,0-.12-.02c-1.32-.49-1.21-1.73-.96-2.76.32-1.31.71-2.91.44-6.02-.02-.19.12-.35.31-.37.19-.02.35.12.37.31.27,3.22-.13,4.88-.45,6.22-.33,1.37-.04,1.77.53,1.98.18.07.27.26.2.44-.05.14-.18.22-.32.22Z"/>
            <path class="cls-15" d="m160.11,171.99c-.3,0-.61-.1-.87-.28-.28-.2-.46-.48-.5-.78-.08-.7.08-1.54.09-1.57.04-.19.21-.3.4-.27.19.04.31.22.27.4,0,0-.15.77-.08,1.36.02.15.14.26.22.31.18.12.41.19.58.15.23-.05.5-.76.65-1.15.06-.14.11-.28.16-.41.07-.17.28-.25.45-.18.17.07.25.28.18.45-.05.12-.1.25-.16.39-.26.67-.56,1.44-1.14,1.57-.08.02-.17.03-.26.03Z"/>
            <path class="cls-15" d="m161.48,172.26c-.07,0-.14,0-.2-.02-.44-.08-.75-.39-.84-.86-.04-.18.08-.37.27-.4.18-.04.37.08.4.27.04.19.14.3.29.33.24.04.61-.11.82-.44.47-.75.8-2.32,1.03-4.81.19-2.03.35-6.29.29-6.93-.02-.19.12-.35.31-.37.19-.02.35.12.37.31.07.74-.11,5.1-.29,7.06-.24,2.63-.6,4.26-1.13,5.11-.29.47-.82.77-1.32.77Z"/>
            <g>
              <path class="cls-10" d="m159.71,167.88c.3.37,1.8.67,2.17.22.37-.45.13-1.9-.79-2.2-.91-.3-1.7,1.58-1.38,1.98Z"/>
              <path class="cls-15" d="m161.16,168.67h-.01c-.61,0-1.41-.22-1.7-.57h0c-.35-.43-.02-1.34.33-1.85.41-.59.92-.83,1.42-.67.51.17.91.63,1.09,1.26.17.59.11,1.17-.15,1.48-.19.23-.52.35-.98.35Zm-1.17-1c.11.11.64.31,1.16.31.32,0,.44-.07.47-.1.08-.1.14-.43.02-.85-.06-.2-.23-.67-.65-.8-.15-.05-.31.02-.49.21-.39.41-.56,1.07-.51,1.24Z"/>
            </g>
            <path class="cls-15" d="m97.01,197.5c-2.12,0-4.11-.71-5.61-2.04-1.41-1.24-2.22-2.89-2.18-4.42,0-.19.16-.34.35-.33.19,0,.34.16.33.35-.04,1.33.69,2.78,1.95,3.89,1.71,1.51,4.11,2.15,6.58,1.76.19-.03.36.1.39.28.03.19-.1.36-.28.39-.51.08-1.02.12-1.52.12Z"/>
            <path class="cls-15" d="m110.55,194.36c-.13,0-.26-.08-.31-.2-.08-.17,0-.37.17-.45,2.18-.97,4.19-4.05,3.78-8.73-.42-4.79-2.47-8.79-5.07-13.84-3.45-6.71-2.02-10.68-.38-13.38.1-.16.31-.21.47-.12.16.1.21.31.12.47-1.64,2.71-2.87,6.34.41,12.72,2.63,5.12,4.71,9.17,5.14,14.1.44,5.02-1.79,8.34-4.19,9.41-.05.02-.09.03-.14.03Z"/>
            <path class="cls-15" d="m103.19,198.19c-1.12,0-2.25-.23-3.28-.69-.17-.08-.25-.28-.17-.45.08-.17.28-.25.45-.17,1.97.88,4.35.84,6.2-.12,1.81-.93,3.02-2.66,3.48-4.97.04-.18.22-.3.4-.27.19.04.31.22.27.4-.64,3.2-2.44,4.73-3.84,5.45-1.07.55-2.29.83-3.52.83Z"/>
            <path class="cls-15" d="m184.08,155.95c-.12,0-.23-.06-.29-.17-.1-.16-.04-.37.12-.47.03-.01.63-.37,1.4-.68.18-.07.37.02.44.19.07.18-.02.37-.19.44-.72.29-1.3.63-1.3.63-.05.03-.11.05-.17.05Z"/>
            <path class="cls-15" d="m200.26,161.44c-.13,0-.26-.08-.32-.21-.04-.1-.11-.21-.21-.32-.32-.37-1.11-1.04-1.86-1.68-.27-.23-.53-.45-.77-.66-.14-.12-.16-.34-.03-.48.12-.14.34-.16.48-.03.24.21.5.43.76.65.78.66,1.58,1.34,1.94,1.76.14.16.25.33.32.5.07.17,0,.37-.18.45-.04.02-.09.03-.13.03Z"/>
            <path class="cls-15" d="m201.42,159.08c-.17,0-.36-.01-.58-.05-.82-.12-2.04-.61-3.02-1-.48-.19-.9-.36-1.19-.46-.18-.06-.28-.25-.22-.43.06-.18.25-.28.43-.22.32.1.74.27,1.24.47.95.38,2.13.85,2.87.96,1.14.17,1.21-.15,1.37-.8.02-.1.05-.2.08-.3.05-.18.24-.29.42-.23.18.05.29.24.23.42-.03.09-.05.18-.07.27-.15.61-.33,1.36-1.56,1.36Z"/>
            <path class="cls-15" d="m202.63,157.47c-.11,0-.22-.02-.33-.05-.78-.26-3.41-1.27-4.96-2.1-.17-.09-.23-.3-.14-.46.09-.17.3-.23.46-.14,1.49.79,4.11,1.8,4.85,2.05.24.08.48-.11.62-.32.2-.3.25-.65.11-.83-.33-.41-1.16-.89-2.3-1.57-.45-.27-.95-.56-1.48-.89-.91-.56-1.38-1.02-1.47-1.45-.04-.19,0-.38.1-.53.59-.88,3.9,0,4.56.18.42.12.99.35,1.6.6.82.34,2.51,1.03,2.79.82.08-.08.08-.13.08-.18-.09-.63-2.03-1.7-2.67-2.05-1.27-.7-2.31-1.01-3.27-1.27-.29-.08-.59-.17-.92-.27-1.04-.31-2.32-.69-3.75-.84-.19-.02-.32-.19-.3-.38.02-.19.19-.33.38-.3,1.49.16,2.81.55,3.88.87.32.1.62.19.91.26,1,.27,2.09.59,3.42,1.33,1.73.95,2.91,1.75,3.02,2.56.04.28-.06.55-.28.76-.52.51-1.68.08-3.53-.68-.58-.24-1.14-.47-1.52-.58-1.66-.46-3.55-.68-3.81-.45h0s.05.31,1.17,1.01c.54.33,1.03.62,1.47.89,1.25.74,2.07,1.23,2.48,1.73.34.42.31,1.09-.07,1.65-.28.41-.68.63-1.07.63Z"/>
            <path class="cls-15" d="m204.95,150.5s-.04,0-.06,0c-.19-.03-.31-.21-.28-.39.13-.74-.92-1.15-2.53-1.7l-.16-.05c-.38-.13-.7-.27-1-.4-.51-.22-.98-.43-1.75-.59-.84-.17-2.3-.18-3.85-.19-.69,0-1.41,0-2.09-.03-.62-.02-1.22-.04-1.79-.06-2.1-.08-3.92-.15-4.77.14-.66.22-2.38,1.21-3.15,1.7-.16.1-.37.05-.47-.11-.1-.16-.05-.37.11-.47.75-.47,2.55-1.52,3.3-1.77.98-.33,2.76-.27,5.02-.18.57.02,1.17.04,1.78.06.68.02,1.39.02,2.08.03,1.58,0,3.07.02,3.98.2.83.17,1.37.41,1.88.63.29.13.59.26.95.38l.16.05c1.59.54,3.22,1.09,2.99,2.46-.03.17-.17.28-.34.28Z"/>
            <path class="cls-15" d="m219.23,171.67c-5.99,0-15.2-1.08-17.52-2-.43-.17-.69-.64-.78-1.44-.25-2.1.79-7,1.44-7.46.25-.18.56-.12,1.17.02.97.21,2.79.6,6.42.6,4.02,0,7.18-.31,9.65-.95.95-.25,2.37-.62,4.49.02.18.05.28.25.23.43-.05.18-.24.28-.43.23-1.93-.58-3.2-.26-4.12-.02-2.53.66-5.74.98-9.82.98-3.71,0-5.57-.4-6.57-.62-.26-.06-.53-.11-.64-.11-.33.48-1.55,5.28-1.08,7.17.07.28.17.47.29.51,2.55,1.01,14.34,2.26,19.66,1.87,5.42-.4,6.8-1.49,7.58-3.52.71-1.86,1.51-6.35,1.29-17.2-.02-1.24,0-2.83.04-4.67.13-6.36.3-15.06-1.72-18.04-1.79-2.64-4.82-3.72-7.76-4.76-2.27-.81-4.41-1.57-6.01-3-1.09-.98-1.37-3.3-.86-7.07.03-.19.2-.32.38-.29.19.03.32.2.29.38-.47,3.49-.25,5.66.64,6.47,1.49,1.34,3.57,2.08,5.78,2.87,3.04,1.08,6.18,2.2,8.09,5.02,2.14,3.16,1.97,11.99,1.84,18.44-.04,1.84-.07,3.42-.04,4.65.22,10.96-.61,15.54-1.34,17.45-.86,2.24-2.41,3.53-8.17,3.95-.72.05-1.54.08-2.44.08Z"/>
            <path class="cls-15" d="m220.06,160.82c-.07,0-.15-.02-.21-.07-.15-.12-.17-.33-.06-.48.42-.54.57-1.09.05-2.3-.33-.76-.24-1.66-.11-2.89.11-1.04.24-2.34.18-4.03-.05-1.39-.14-2.67-.24-4.02-.15-2.2-.31-4.47-.31-7.41,0-.19.15-.34.34-.34s.34.15.34.34c0,2.91.16,5.17.31,7.36.09,1.36.18,2.64.24,4.04.06,1.74-.07,3.07-.18,4.13-.12,1.18-.2,1.95.06,2.55.56,1.31.52,2.15-.14,2.99-.07.09-.17.13-.27.13Z"/>
            <path class="cls-15" d="m221.95,159.32c-.12,0-.24-.07-.3-.19-.09-.17-.02-.37.15-.46,2.08-1.06,4.27-.73,5.73-.27.18.06.28.25.22.43-.06.18-.25.28-.43.22-1.34-.43-3.34-.73-5.21.22-.05.03-.1.04-.15.04Z"/>
            <path class="cls-15" d="m218.19,138.67s-.04,0-.06,0c-.19-.03-.31-.21-.28-.39.73-4.43,4.04-8.64,5.96-10.25.14-.12.36-.1.48.04.12.14.1.36-.04.48-1.56,1.31-5,5.44-5.73,9.84-.03.17-.17.29-.34.29Z"/>
            <path class="cls-15" d="m227.65,199.97s0,0,0,0c-.19,0-.34-.16-.33-.35.23-10.73-2.81-22.29-4.28-27.85l-.03-.11c-.05-.18.06-.37.24-.42.18-.05.37.06.42.24l.03.11c1.47,5.59,4.54,17.21,4.3,28.04,0,.19-.16.33-.34.33Z"/>
            <path class="cls-15" d="m185.42,199.88s-.02,0-.04,0c-.19-.02-.32-.19-.3-.38.76-7.29,1.92-13.48,2.85-18.45.6-3.19,1.11-5.95,1.36-8.14,0-.08.05-.32.12-.68.24-1.31.8-4.37.84-6.24,0-.19.16-.34.34-.34,0,0,0,0,0,0,.19,0,.34.16.34.35-.03,1.92-.61,5.03-.85,6.35-.06.33-.1.56-.11.63-.25,2.22-.77,4.98-1.37,8.19-.93,4.96-2.09,11.13-2.84,18.4-.02.18-.17.31-.34.31Z"/>
            <path class="cls-15" d="m182.78,150.49s-.04,0-.06,0c-.19-.03-.31-.21-.28-.4.28-1.57.93-2.47,1.76-2.48,0,0,0,0,0,0,.19,0,.34.15.34.34,0,.19-.15.34-.34.35-.46,0-.89.76-1.1,1.92-.03.17-.17.28-.34.28Z"/>
            <path class="cls-15" d="m184.58,156.07c-.3,0-.55-.08-.75-.18-.89-.46-1.46-1.78-1.46-3.37,0-.19.15-.34.34-.34s.34.15.34.34c0,1.29.45,2.43,1.09,2.76.39.2.86.11,1.4-.27.15-.11.37-.07.48.08.11.15.07.37-.08.48-.53.37-.98.5-1.36.5Z"/>
            <path class="cls-15" d="m176.29,153.79c-.09,0-.17-.03-.24-.1-.14-.13-.14-.35,0-.48,1.72-1.77,3.44-3.01,4.82-4.01.44-.31.84-.61,1.21-.89.85-.65,1.58-1.21,2.82-1.04.19.02.32.2.29.38-.02.19-.19.32-.38.29-.96-.13-1.53.31-2.31.91-.37.28-.78.58-1.22.9-1.36.98-3.05,2.2-4.73,3.93-.07.07-.16.1-.25.1Z"/>
            <path class="cls-15" d="m177.78,162.88c-.48,0-.96-.2-1.41-.6-1.55-1.37-2.45-4.72-2.39-7.05.1-3.94,2.45-8.66,4-11.79.23-.46.44-.88.62-1.26.77-1.59,1.53-3.42,2.04-4.66.07-.17.27-.26.45-.19.17.07.26.27.19.45-.51,1.26-1.28,3.09-2.06,4.7-.18.38-.39.8-.62,1.27-1.53,3.07-3.84,7.72-3.93,11.5-.06,2.45.93,5.43,2.16,6.52.37.33.75.47,1.12.42.71-.1,1.58-.56,2.59-1.36.15-.12.36-.09.48.06.12.15.09.36-.06.48-1.11.87-2.09,1.37-2.91,1.5-.09.01-.18.02-.26.02Z"/>
            <path class="cls-15" d="m183.11,159.24c-.08,0-.17-.03-.23-.09-.14-.13-.14-.35-.01-.48.19-.2.38-.41.56-.61.13-.14.34-.15.48-.03.14.13.15.34.03.48-.19.21-.38.42-.57.62-.07.07-.16.11-.25.11Z"/>
            <path class="cls-15" d="m185.23,156.81c-.07,0-.15-.02-.21-.07-.15-.12-.17-.33-.05-.48.21-.26.37-.49.54-.72l.21-.29c.11-.15.33-.18.48-.07.15.11.18.33.07.48l-.21.28c-.17.23-.34.47-.56.74-.07.08-.17.13-.27.13Z"/>
            <g>
              <path class="cls-5" d="m211.96,109.32s-1.47.21-3.2.11c-1.73-.1-3.05-.57-3.05-.57,0,0,.16,3.08,2.71,3.51,2.68.44,3.54-3.05,3.54-3.05Z"/>
              <path class="cls-15" d="m208.88,112.75c-.16,0-.33-.01-.51-.04-2.79-.46-2.99-3.79-2.99-3.83,0-.11.05-.22.14-.29.09-.07.21-.09.32-.05.01,0,1.3.45,2.96.55,1.67.1,3.11-.11,3.13-.11.11-.02.23.02.3.11.08.08.11.2.08.31-.3,1.22-1.39,3.35-3.42,3.35Zm-2.76-3.41c.16.83.68,2.41,2.36,2.69,1.8.3,2.67-1.43,3-2.31-.59.06-1.6.12-2.73.05-1.12-.07-2.07-.28-2.62-.43Z"/>
            </g>
            <path class="cls-15" d="m208.56,116.62c-.98,0-1.77-.46-2.45-.93-2.24-1.53-3.76-3.31-4.4-5.15-.28-.81-.71-2.82-.92-4.66-.02-.19.11-.36.3-.38.19-.02.36.11.38.3.2,1.8.61,3.74.88,4.52.59,1.7,2.02,3.36,4.14,4.8.85.58,1.71,1.06,2.93.66.81-.26,3.58-1.34,5.42-4.14.38-.57.84-1.69,1.3-3.15.06-.18.25-.28.43-.22.18.06.28.25.22.43-.34,1.07-.85,2.52-1.38,3.32-1.96,2.99-4.92,4.13-5.78,4.41-.38.12-.74.18-1.08.18Z"/>
            <path class="cls-15" d="m208.83,107.69c-.08,0-.16-.03-.22-.08-.11-.09-1.05-.93-.91-1.73.04-.22.17-.42.33-.66.45-.67,1.13-1.69.22-3.88-.07-.17.01-.37.19-.45.17-.07.37.01.45.19,1.04,2.52.18,3.82-.29,4.52-.11.16-.21.32-.23.4-.05.3.38.83.68,1.1.14.12.16.34.04.48-.07.08-.16.12-.26.12Z"/>
            <path class="cls-15" d="m207.1,99.73c-.06,0-.13-.02-.19-.06-1.3-.84-2.47-.41-3.05-.08-.16.09-.37.04-.47-.13-.09-.16-.04-.37.13-.47.72-.41,2.16-.94,3.76.1.16.1.2.31.1.47-.07.1-.18.16-.29.16Z"/>
            <path class="cls-13" d="m204.37,102.99c.02-.65.42-1.17.89-1.15.47.01.83.56.81,1.21-.02.65-.42,1.17-.89,1.15-.47-.01-.83-.56-.81-1.21Z"/>
            <path class="cls-13" d="m214.3,113.23s-1.35,1.11-2.77,1.96c-1.48.88-2.72,1.2-3.58.99-.86-.22-4.89-3.76-4.89-3.76,0,0,2.63,5.39,5.84,5.89,2.46.39,5.34-2.89,5.34-2.89l.04-2.19Z"/>
            <path class="cls-15" d="m201.16,107.13s-.02,0-.04,0c-1.13-.12-2.18-1.62-2.25-2.77-.06-1.1.06-2.57,1.87-2.67.18-.01.35.13.36.32.01.19-.13.35-.32.36-.82.05-1.32.39-1.22,1.95.05.9.94,2.05,1.63,2.13.19.02.32.19.31.37-.02.18-.17.31-.34.31Z"/>
            <path class="cls-15" d="m225.33,124.44c-.1,0-.2-.04-.26-.12-2.15-2.61-1.72-4.44-1.34-6.06.2-.83.38-1.61.23-2.47-.21-1.13-.62-1.89-1.02-2.61-.52-.95-1.06-1.93-1.09-3.64-.02-1.18.12-2.36.26-3.62.32-2.81.69-6-.81-9.7-1.41-3.47-4.34-5.24-4.37-5.26-.16-.1-.22-.31-.12-.47.1-.16.31-.22.47-.12.13.08,3.16,1.9,4.66,5.59,1.57,3.86,1.19,7.14.86,10.04-.14,1.23-.28,2.4-.26,3.53.03,1.54.5,2.41,1,3.33.42.78.86,1.58,1.09,2.82.18,1-.03,1.89-.23,2.75-.38,1.6-.74,3.11,1.2,5.46.12.15.1.36-.05.48-.06.05-.14.08-.22.08Z"/>
            <path class="cls-15" d="m197.56,103.9c-.15,0-.29-.1-.33-.26-.04-.15-.87-3.79,5.53-6.37,2.78-1.12,3.51-1.78,5.16-3.92.79-1.02,1.53-1.51,2.24-1.48.92.03,1.61.86,2.17,1.67.11.16.07.37-.09.48-.16.11-.37.07-.48-.09-.64-.94-1.14-1.36-1.62-1.38,0,0-.02,0-.03,0-.48,0-1.03.41-1.66,1.21-1.73,2.22-2.6,2.99-5.45,4.13-5.81,2.34-5.15,5.44-5.12,5.57.04.18-.07.37-.25.41-.03,0-.05,0-.08,0Z"/>
            <path class="cls-15" d="m201.4,101.44c-.13,0-.25-.07-.31-.19-.08-.17-.01-.37.16-.46,2.84-1.38,3.22-3.94,3.23-4.05.03-.19.2-.32.38-.29.19.02.32.2.29.38-.02.12-.43,3.03-3.61,4.58-.05.02-.1.03-.15.03Z"/>
            <path class="cls-15" d="m194.47,120.84c-.11,0-.22-.05-.29-.16-1.23-1.9-.47-3.92.34-6.05.72-1.92,1.55-4.1,1.08-6.57-.1-.52-.29-1.09-.49-1.69-.59-1.74-1.33-3.9-.32-6.63,1.75-4.72,6.21-10.89,13-12.74,3.28-.89,5.92-.06,7.29,1.03.7.55,1.1,1.19,1.08,1.76,0,.19-.16.34-.35.33-.19,0-.34-.16-.33-.35,0-.34-.31-.8-.82-1.2-1.19-.93-3.66-1.73-6.69-.9-6.55,1.78-10.85,7.75-12.54,12.32-.93,2.5-.26,4.45.32,6.17.21.62.41,1.21.52,1.78.5,2.65-.36,4.93-1.11,6.94-.77,2.06-1.44,3.84-.4,5.44.1.16.06.37-.1.47-.06.04-.12.05-.19.05Z"/>
            <path class="cls-15" d="m213.83,92.47c-.13,0-.25-.07-.31-.2-.46-1-1.3-2.11-2.73-1.69-.18.05-.37-.05-.42-.23-.05-.18.05-.37.23-.42,1.49-.43,2.75.3,3.55,2.07.08.17,0,.37-.17.45-.05.02-.09.03-.14.03Z"/>
            <path class="cls-13" d="m211.9,103.56c.02-.66.42-1.18.89-1.16.47.01.83.56.81,1.22-.02.66-.42,1.18-.89,1.16-.47-.02-.83-.56-.81-1.22Z"/>
            <path class="cls-15" d="m214.86,100.51c-.08,0-.16-.03-.22-.08-.54-.46-1.66-1.13-3.14-.46-.17.08-.37,0-.45-.17-.08-.17,0-.37.17-.45,1.89-.87,3.33.1,3.87.56.14.12.16.34.04.48-.07.08-.16.12-.26.12Z"/>
            <path class="cls-15" d="m216.88,107.95s-.05,0-.07,0c-.19,0-.34-.17-.33-.35,0-.19.16-.34.35-.33.01,0,.03,0,.04,0,.81,0,1.93-.94,2.16-1.82.18-.7.16-1.24-.07-1.59-.18-.29-.5-.47-.98-.55-.19-.03-.31-.21-.27-.4.03-.19.21-.31.4-.27.67.12,1.15.41,1.43.86.33.52.39,1.24.16,2.13-.28,1.08-1.58,2.34-2.82,2.34Z"/>
            <path class="cls-15" d="m217.2,105.88c-.06,0-.13-.02-.18-.05-.16-.1-.21-.31-.1-.47.35-.54.78-.74.82-.76.17-.08.37,0,.45.18.07.17,0,.37-.17.45-.01,0-.29.14-.52.5-.07.1-.18.16-.29.16Z"/>
            <path class="cls-15" d="m217.48,102.12c-.18,0-.33-.14-.34-.33-.19-5.1-3.28-6.48-3.88-6.55-.19-.02-.33-.18-.31-.37.02-.19.18-.33.36-.31.7.05,4.29,1.51,4.51,7.2,0,.19-.14.35-.33.35,0,0,0,0-.01,0Z"/>
            <path class="cls-15" d="m213.27,93.43s-.1-.01-.14-.03c-.17-.08-.25-.28-.17-.45.72-1.55,2.05-2.13,2.1-2.16.17-.07.37,0,.45.18.07.17,0,.37-.18.45-.01,0-1.15.51-1.75,1.81-.06.13-.18.2-.31.2Z"/>
            <path class="cls-15" d="m197.44,120.14c-.13,0-.25-.07-.31-.19-1.06-2.17-.28-4.74.72-6.28.1-.16.31-.2.47-.1.16.1.2.31.1.47-.9,1.39-1.61,3.7-.68,5.61.08.17.01.37-.16.46-.05.02-.1.04-.15.04Z"/>
            <path class="cls-15" d="m220.32,122.05s-.08,0-.12-.02c-.18-.07-.26-.27-.2-.44.62-1.62.28-2.9-.23-4.41-.14-.42-.41-.84-.69-1.29-.78-1.22-1.74-2.74-1.1-5.51.04-.18.23-.3.41-.26.18.04.3.23.26.41-.58,2.49.27,3.82,1.01,4.99.31.48.6.94.76,1.43.54,1.58.92,3.04.22,4.87-.05.14-.18.22-.32.22Z"/>
            <path class="cls-15" d="m193.72,120.99c-.16,0-.3-.11-.33-.27-.04-.18.08-.37.26-.41.84-.18,1.73-.35,2.59-.5,2.22-.41,4.52-.83,5.56-1.51,1.19-.78,1.43-3.3,1.25-5.4-.02-.19.12-.35.31-.37.19-.01.35.12.37.31.09,1.11.25,4.84-1.56,6.03-1.16.75-3.42,1.17-5.81,1.61-.86.16-1.75.32-2.57.5-.02,0-.05,0-.07,0Z"/>
            <path class="cls-15" d="m208.61,125.26c-.75,0-1.48-.08-2.2-.25-3.74-.86-6.09-3.81-6.81-5.25-.08-.17-.02-.37.15-.46.17-.08.37-.02.46.15.67,1.34,2.86,4.09,6.35,4.89,3.35.77,7.08-.4,11.08-3.47.15-.12.36-.09.48.06.11.15.09.36-.06.48-3.33,2.56-6.5,3.84-9.45,3.84Z"/>
            <path class="cls-15" d="m183.22,148.26c-.18,0-.33-.14-.34-.32-.17-2.51-.34-3.44-.9-6.02-.28-1.3-.61-2.27-.9-3.11-.26-.76-.5-1.47-.66-2.28-.24-1.21-.25-2.36-.26-3.69,0-.53-.01-1.08-.03-1.67,0-.19.14-.35.33-.35.19-.01.35.14.35.33.02.6.03,1.15.03,1.69.01,1.3.02,2.42.25,3.57.15.76.37,1.42.63,2.19.29.87.63,1.85.92,3.19.54,2.48.73,3.5.91,6.12.01.19-.13.35-.32.36,0,0-.02,0-.02,0Z"/>
            <path class="cls-15" d="m181.49,149.24c-.19,0-.34-.15-.34-.34,0-.75.28-1.33.77-1.65.55-.35,1.28-.33,2.06.04.17.08.24.28.16.45-.08.17-.28.24-.45.16-.56-.26-1.07-.29-1.4-.08-.3.19-.46.56-.46,1.07,0,.19-.15.34-.34.34Z"/>
            <path class="cls-15" d="m187.92,146.82c-.17,0-.31-.12-.34-.29-.45-3.25-1.55-4.81-3.2-7.17-.27-.39-.56-.8-.86-1.25-.11-.16-.07-.37.09-.47.16-.11.37-.07.47.09.3.44.59.85.86,1.24,1.71,2.44,2.84,4.06,3.31,7.47.03.19-.1.36-.29.39-.02,0-.03,0-.05,0Z"/>
            <path class="cls-15" d="m190.38,146.87c-.18,0-.33-.14-.34-.32-.02-.38-.03-.87-.04-1.44-.02-1.05-.04-2.35-.15-3.38-.06-.6-.2-1.14-.33-1.66-.18-.72-.37-1.47-.37-2.37,0-.19.15-.34.34-.34s.34.15.34.34c0,.82.17,1.49.35,2.2.14.54.28,1.1.35,1.75.12,1.07.14,2.39.15,3.45,0,.55.02,1.04.03,1.42,0,.19-.14.35-.32.36,0,0-.01,0-.02,0Z"/>
            <path class="cls-15" d="m185.84,147.26c-.19,0-.34-.15-.34-.34-.07-3.98-.35-6.54-.36-6.56-.02-.19.11-.36.3-.38.19-.02.36.11.38.3,0,.03.29,2.61.36,6.62,0,.19-.15.34-.34.35,0,0,0,0,0,0Z"/>
            <path class="cls-15" d="m202.58,148.42c-.17,0-.32-.13-.34-.3-.38-3.2-1.61-5.93-2.64-7.95-.83-1.63-2.53-3.69-3.9-5.34-.57-.68-1.05-1.28-1.41-1.75-.41-.55-1.57-3.55-1.7-3.9-.07-.18.02-.37.2-.44.18-.07.37.02.44.2.48,1.25,1.34,3.38,1.61,3.73.35.46.83,1.05,1.39,1.72,1.39,1.68,3.11,3.77,3.98,5.47,1.06,2.07,2.32,4.87,2.71,8.18.02.19-.11.36-.3.38-.01,0-.03,0-.04,0Z"/>
            <path class="cls-15" d="m201.07,153.99c-.1,0-.2-.04-.27-.13-.12-.15-.09-.36.06-.48.59-.47,1.03-.93,1.27-1.71.06-.18.25-.28.43-.22.18.06.28.25.22.43-.32.99-.91,1.56-1.5,2.03-.06.05-.14.07-.21.07Z"/>
            <path class="cls-15" d="m194.57,146.64s-.02,0-.02,0c-.19-.01-.33-.18-.32-.36,0-.1.18-2.42,1.04-4.02.09-.17.3-.23.46-.14.17.09.23.3.14.46-.79,1.47-.96,3.72-.96,3.75-.01.18-.16.32-.34.32Z"/>
            <path class="cls-15" d="m204.84,159.75c-.07,0-.14-.02-.2-.05-.08-.05-.2-.16-.19-.41.15-3.13-.36-5.02-1.93-7.22-.11-.15-.08-.37.08-.48.15-.11.37-.07.48.08,1.36,1.89,1.97,3.57,2.07,5.89.07-.51.11-1.14.08-1.93-.03-.94-.19-1.87-.47-2.76-.06-.18.04-.37.22-.43.18-.06.37.04.43.22.3.95.47,1.94.51,2.94.09,2.55-.48,3.86-.87,4.08-.07.04-.14.06-.21.06Z"/>
            <path class="cls-15" d="m203.64,161.34s-.02,0-.04,0c-.19-.02-.32-.19-.3-.38.02-.17.03-.35.05-.52.09-1.09.19-2.33,1.28-2.69.18-.06.37.04.43.22.06.18-.04.37-.22.43-.62.21-.72.93-.82,2.1-.01.18-.03.36-.05.53-.02.18-.17.31-.34.31Z"/>
            <path class="cls-15" d="m206.66,161.91s-.04,0-.07,0c-.19-.04-.31-.22-.27-.4.24-1.21-.03-2.64-1-3.03-.18-.07-.26-.27-.19-.44.07-.18.27-.26.44-.19,1.38.55,1.7,2.36,1.42,3.8-.03.16-.18.28-.34.28Z"/>
            <path class="cls-15" d="m185.37,125.29c-.84,0-1.36-.55-1.62-.87-.41.32-1.3.98-2.28.37-.16-.1-.21-.31-.11-.47.1-.16.31-.21.47-.11.56.35,1.09,0,1.54-.35.18-.14.3-.23.46-.22.18.01.27.13.39.28.39.47.87.94,1.81.54.17-.07.37,0,.45.18.07.17,0,.37-.18.45-.34.15-.65.21-.93.21Z"/>
            <path class="cls-13" d="m180.95,120.45c.06-.5.44-.88.83-.83.4.04.67.49.6.99-.06.5-.44.88-.83.83-.4-.04-.67-.49-.6-.99Z"/>
            <path class="cls-13" d="m182.77,122.88c.02.61.54,1.21.94,1.2.4-.01.97-.56.95-1.16,0-.2-.22-.34-.5-.41-.56-.15-1.4-.03-1.39.38Z"/>
            <path class="cls-15" d="m183.17,123.14s0,0,0,0c-.19,0-.34-.16-.33-.35.02-.6.63-.98.96-1.18l.08-.05c.16-.1.37-.06.47.1.1.16.06.37-.1.47l-.09.06c-.17.11-.63.39-.64.62,0,.19-.16.33-.34.33Z"/>
            <path class="cls-15" d="m183.55,128.05c-.51,0-.97-.39-1.26-1.07-.38-.89-.38-2.12.36-2.67.15-.11.37-.08.48.07.11.15.08.37-.07.48-.42.31-.41,1.21-.14,1.86.14.33.4.7.68.65.13-.02.24-.4.34-.74.19-.64.45-1.53,1.32-1.96.17-.08.37-.02.46.15.08.17.02.37-.15.46-.61.3-.8.96-.97,1.55-.16.55-.33,1.12-.88,1.22-.06,0-.11.01-.17.01Z"/>
            <path class="cls-13" d="m186.33,120.77c.06-.5.44-.88.83-.83.4.04.67.49.6.99-.06.5-.44.88-.83.83-.4-.04-.67-.49-.6-.99Z"/>
            <path class="cls-15" d="m177.77,118.56c-.18,0-.33-.14-.34-.32-.05-.75-.24-1.57-.56-2.43l-.02-.06c-.04-.1-.09-.22-.16-.36-.27-.59-.61-1.33-.32-1.87.15-.27.41-.43.79-.48.47-.07,1.76.13,3.28,1.35,1.16.93,1.77,2,1.8,2.05.09.16.03.37-.13.47-.16.09-.37.04-.47-.13,0,0-.58-1-1.63-1.85-1.38-1.11-2.48-1.24-2.76-1.2-.11.01-.24.05-.29.13-.13.24.17.9.34,1.26.07.16.14.3.18.41l.02.05c.35.92.56,1.81.61,2.63.01.19-.13.35-.32.36,0,0-.01,0-.02,0Z"/>
            <path class="cls-15" d="m192.71,119.43s-.06,0-.08-.01c-.18-.05-.29-.23-.25-.41.01-.06.35-1.37.86-2.22.09-.15.2-.31.32-.48.26-.38.61-.89.54-1.11-.03-.1-.21-.17-.31-.2-.27-.09-1.42-.15-3.02.72-1.22.67-1.98,1.57-1.99,1.58-.12.15-.34.17-.48.05-.15-.12-.17-.33-.05-.48.03-.04.84-1.01,2.19-1.75,1.75-.96,3.09-.92,3.56-.77.39.13.64.34.74.63.19.55-.23,1.14-.63,1.72-.1.15-.21.3-.29.44-.46.76-.78,2.02-.78,2.03-.04.16-.18.26-.33.26Z"/>
            <path class="cls-15" d="m180.54,117.37c-.16,0-.3-.11-.33-.28l-.02-.13c-.15-.79-.46-2.43-2.48-3.22-.18-.07-.26-.27-.19-.44.07-.18.27-.26.44-.19,2.36.93,2.74,2.89,2.9,3.73l.02.12c.04.19-.08.36-.27.4-.02,0-.05,0-.07,0Z"/>
            <path class="cls-15" d="m190.08,118.1c-.06,0-.12-.02-.18-.05-.16-.1-.21-.31-.11-.47.1-.16.2-.33.3-.51.68-1.18,1.62-2.79,3.39-2.79.02,0,.04,0,.06,0,.19,0,.34.16.33.35,0,.19-.16.33-.34.33-.02,0-.04,0-.06,0-1.39,0-2.14,1.3-2.8,2.45-.11.18-.21.36-.31.52-.06.11-.18.16-.29.16Z"/>
            <path class="cls-15" d="m188.48,117.21s-.09,0-.14-.03c-3.35-1.47-4.96-.99-6.25-.6l-.09.03c-.18.05-.37-.05-.43-.23-.05-.18.05-.37.23-.43l.09-.03c1.4-.42,3.14-.95,6.72.63.17.08.25.28.18.45-.06.13-.18.2-.31.2Z"/>
            <path class="cls-15" d="m184.37,115.96s-.06,0-.09-.01c-.18-.05-.29-.24-.23-.42.02-.06.03-.13.05-.21.06-.32.15-.76.54-1.01.3-.19.7-.23,1.23-.11.18.04.3.22.26.41-.04.18-.23.3-.41.26-.33-.07-.57-.07-.71.02-.15.1-.2.34-.25.57-.02.09-.04.18-.06.26-.04.15-.18.25-.33.25Z"/>
            <path class="cls-15" d="m188.36,116.93c-.07,0-.15-.02-.21-.07-.15-.12-.17-.33-.05-.48.28-.35.27-.55.24-.95-.01-.18-.03-.39-.01-.64.02-.31.24-.6.44-.86.09-.12.18-.24.22-.32.07-.16.09-.33.07-.37-.28-.08-.95.13-1.69.57-.63.37-1.39,1.01-1.39,1.93,0,.19-.15.34-.34.34s-.34-.15-.34-.34c0-.99.6-1.86,1.73-2.52.56-.33,1.59-.84,2.26-.62.19.06.33.19.4.37.16.38-.04.84-.08.93-.07.14-.18.29-.29.44-.11.14-.29.38-.3.49-.01.21,0,.38.01.55.03.44.06.86-.39,1.42-.07.08-.17.13-.27.13Z"/>
            <path class="cls-15" d="m182.26,116.38c-.18,0-.32-.13-.34-.31-.05-.59.05-1.04.12-1.37.04-.19.08-.36.06-.47-.02-.16-.11-.33-.19-.5-.15-.3-.35-.68-.22-1.15.08-.32.33-.52.67-.56.81-.08,2.29.84,2.98,2.17.09.17.02.37-.15.46-.17.09-.37.02-.46-.15-.58-1.11-1.79-1.85-2.3-1.8-.07,0-.08.02-.08.05-.05.2.03.39.17.66.1.21.22.44.26.72.03.23-.02.45-.07.71-.07.32-.15.68-.11,1.17.02.19-.12.35-.31.37-.01,0-.02,0-.03,0Z"/>
            <path class="cls-15" d="m184.97,114.47c-.16,0-.31-.12-.34-.28-.15-.84-.22-1.66.55-2.41.21-.2.44-.35.67-.5.44-.28.78-.51.86-1.02.03-.19.2-.32.39-.29.19.03.32.2.29.39-.12.81-.67,1.17-1.16,1.49-.21.13-.4.26-.57.42-.49.47-.5.96-.35,1.8.03.19-.09.36-.28.4-.02,0-.04,0-.06,0Z"/>
            <path class="cls-15" d="m186.02,114.74c-.17,0-.32-.13-.34-.31-.11-1.08.23-1.56.5-1.94.26-.37.45-.63.27-1.47-.04-.18.08-.37.26-.41.19-.04.37.08.41.26.24,1.14-.09,1.6-.39,2.01-.25.35-.47.65-.38,1.47.02.19-.12.36-.3.38-.01,0-.02,0-.04,0Z"/>
            <path class="cls-15" d="m176.21,120.94s-.02,0-.03,0c-.19-.02-.33-.18-.31-.37.09-1.13,1.24-2.35,2.22-2.75.17-.07.37.01.44.19.07.17-.01.37-.19.44-.85.34-1.74,1.42-1.8,2.17-.01.18-.16.31-.34.31Z"/>
            <path class="cls-15" d="m175.78,123.25s-.04,0-.07,0c-.18-.04-.31-.22-.27-.4.25-1.25,1.4-1.58,1.45-1.59.18-.05.37.06.42.24.05.18-.06.37-.24.42h0s-.8.24-.96,1.07c-.03.16-.18.27-.33.27Z"/>
            <path class="cls-15" d="m176.29,125.61c-.13,0-.25-.07-.31-.19-.23-.45-.26-1.02-.09-1.51.15-.44.46-.79.88-.99.17-.08.37,0,.45.16.08.17,0,.37-.16.45-.31.15-.45.4-.52.59-.11.32-.09.69.05.98.08.17.02.37-.15.46-.05.02-.1.04-.15.04Z"/>
            <path class="cls-15" d="m177.89,128.75c-.05,0-.11-.01-.16-.04-.04-.02-.92-.5-1.15-1.4-.14-.53-.03-1.07.32-1.62.1-.16.31-.21.47-.1s.21.31.1.47c-.25.38-.33.75-.24,1.08.16.6.81.97.82.97.17.09.23.3.14.46-.06.11-.18.18-.3.18Z"/>
            <path class="cls-15" d="m181.06,131.62s-.04,0-.06,0c-1.57-.26-2.47-1.14-2.52-2.48,0-.19.14-.35.33-.36.2,0,.35.14.36.33.04,1.01.7,1.63,1.95,1.84.19.03.31.21.28.39-.03.17-.17.29-.34.29Z"/>
            <path class="cls-15" d="m182.56,132.45s-.06,0-.08-.01c-.79-.2-1.75-.84-1.98-1.78-.05-.18.07-.37.25-.41.18-.05.37.07.41.25.16.64.87,1.13,1.48,1.28.18.05.29.23.25.41-.04.16-.18.26-.33.26Z"/>
            <path class="cls-15" d="m184.4,132.6s-.04,0-.07,0c-.19-.04-.31-.22-.27-.4.18-.92,1.67-1.86,2.6-1.86.19,0,.34.15.34.34s-.15.34-.34.34c-.68,0-1.82.77-1.93,1.31-.03.16-.18.27-.33.27Z"/>
            <path class="cls-15" d="m187.56,131.79c-.14,0-.28-.09-.32-.23-.06-.18.04-.37.22-.43.59-.2,1.07-.52,1.42-.97.12-.15.33-.17.48-.05.15.12.17.33.05.48-.44.55-1.03.95-1.74,1.19-.04.01-.07.02-.11.02Z"/>
            <path class="cls-15" d="m189.72,131.37c-.16,0-.3-.11-.34-.28-.04-.19.08-.36.27-.4,1.52-.29,1.6-2.21,1.61-2.29,0-.19.16-.34.35-.33.19,0,.34.16.33.35-.03.88-.52,2.62-2.16,2.94-.02,0-.04,0-.07,0Z"/>
            <path class="cls-15" d="m192.54,129.88c-.07,0-.14-.02-.2-.06-.15-.11-.19-.32-.08-.48.72-1.03.9-2.28.45-3.2-.08-.17-.01-.37.16-.46.17-.08.37-.01.46.16.55,1.14.36,2.66-.5,3.89-.07.09-.17.15-.28.15Z"/>
            <path class="cls-15" d="m194.22,127.17s-.08,0-.13-.02c-.18-.07-.26-.27-.19-.44.59-1.48-.56-2.7-.61-2.75-.13-.14-.13-.35.01-.48.14-.13.35-.13.48,0,.06.06,1.5,1.59.75,3.48-.05.13-.18.22-.32.22Z"/>
            <path class="cls-15" d="m194.1,123.1c-.12,0-.24-.07-.3-.18-.32-.6-.72-.77-1.11-.86-.18-.04-.3-.23-.25-.41.04-.18.23-.3.41-.25.72.17,1.2.54,1.55,1.2.09.17.03.37-.14.46-.05.03-.11.04-.16.04Z"/>
            <path class="cls-15" d="m193.64,122.22s-.02,0-.03,0c-.19-.02-.33-.18-.31-.37.11-1.32-.64-2.33-1.44-2.64-.18-.07-.26-.27-.19-.44.07-.18.27-.26.44-.19,1.04.4,2.01,1.68,1.87,3.34-.01.18-.16.31-.34.31Z"/>
            <path class="cls-15" d="m202.03,162.05s-.05,0-.07,0c-.12-.03-2.97-.66-4.3-2.46-.39-.53-.75-1.16-1.09-1.77-.27-.48-.53-.94-.8-1.34l-.15-.23c-.62-.93-.91-1.35-1.61-1.84-.63-.44-1.55-.95-2.37-1.4-.21-.11-.41-.22-.59-.33-.24-.13-.48-.29-.71-.45-.39-.26-.91-.62-1.13-.57-.01,0-.03,0-.06.05-.14.22-.2.63,1,1.65l.26.22c.83.7,1.77,1.49,2.18,2.67.06.18-.03.37-.21.43-.18.06-.37-.03-.43-.21-.34-1-1.21-1.72-1.97-2.37l-.26-.22c-.54-.46-1.79-1.53-1.12-2.54.12-.18.29-.3.49-.34.49-.1,1.05.28,1.65.68.22.15.45.3.66.42.18.1.38.21.59.32.83.46,1.77.97,2.43,1.43.8.56,1.13,1.05,1.79,2.02l.15.23c.28.42.55.89.83,1.38.33.59.68,1.21,1.05,1.7,1.18,1.6,3.87,2.19,3.9,2.2.18.04.3.22.26.41-.03.16-.18.27-.33.27Z"/>
            <path class="cls-15" d="m186.19,163.39s-.1-.01-.15-.03c-.02,0-1.64-.78-2.84-1.44-.83-.46-1.51-1.1-2.16-1.72-.25-.24-.5-.47-.76-.7-.88-.77-1.92-1.81-1.85-2.34.06-.45.28-.64.46-.73.38-.18.87-.05,1.65.44.41.26.92.63,1.45,1.03.67.5,1.36,1.02,1.9,1.32.72.4,1.53.68,1.98.77-.3-.25-.86-.6-1.3-.88-.47-.3-.96-.61-1.41-.93-1.22-.88-1.85-1.53-2.66-2.35-.16-.16-.32-.32-.49-.5-.98-.99-1.83-1.85-1.24-2.58.16-.19.38-.31.65-.33.77-.07,1.73.62,2.41,1.21,1.08.93,1.89,1.58,3.11,2.33.75.46,1.93,1.19,2.37,1.28-.2-.48-2.03-2.01-2.83-2.69-.35-.29-2.52-2.28-3.07-3.06-.33-.47-.34-1.01,0-1.36.3-.31.89-.46,1.67.05.72.46,1.86,1.33,2.96,2.17.31.24.62.47.92.7,1.38,1.05,2.53,1.69,3.94,2.39.77.38,1.4.6,1.96.79.24.08.47.16.67.24.18.07.26.27.19.44-.07.18-.27.26-.44.19-.2-.08-.41-.15-.64-.23-.55-.19-1.23-.42-2.04-.82-1.41-.7-2.63-1.38-4.05-2.46-.3-.23-.61-.46-.92-.7-1.09-.83-2.22-1.7-2.91-2.14-.4-.26-.7-.26-.81-.15-.08.08-.09.27.07.49.49.68,2.54,2.58,2.95,2.93,2.87,2.41,3.38,3.02,3,3.64-.07.12-.19.2-.34.24-.52.13-1.47-.44-2.97-1.36-1.27-.79-2.11-1.45-3.21-2.41-.94-.81-1.61-1.08-1.91-1.05-.1,0-.15.05-.18.08-.19.23.46.92,1.2,1.66.18.18.34.34.49.5.78.8,1.4,1.44,2.57,2.28.44.31.91.62,1.37.91,1.33.84,1.91,1.23,1.82,1.73-.03.16-.13.29-.29.36-.66.31-2.47-.55-2.91-.8-.58-.33-1.29-.86-1.98-1.37-.52-.39-1.01-.76-1.4-1-.77-.48-.97-.41-.99-.4-.02,0-.05.06-.07.17.07.25.82,1.06,1.62,1.76.26.23.52.48.78.72.65.62,1.27,1.2,2.02,1.62,1.18.65,2.79,1.41,2.8,1.42.17.08.24.28.16.46-.06.12-.18.2-.31.2Z"/>
            <path class="cls-15" d="m201.05,168.18s-.07,0-.1-.02c-4.53-1.38-6.02-1.45-7.47-1.52-.52-.02-1.06-.05-1.71-.14-2.73-.37-4.39-.8-5.73-1.47-3.14-1.57-6.83-3.9-6.53-6.07.03-.19.2-.32.38-.29.19.03.32.2.29.38-.18,1.34,2.12,3.35,6.16,5.37,1.27.64,2.87,1.04,5.52,1.4.63.08,1.13.11,1.65.13,1.49.07,3.03.14,7.64,1.54.18.05.28.25.23.43-.04.15-.18.24-.33.24Z"/>
            <path class="cls-13" d="m158.57,142.72c-.03.46.43.98.83,1.01.4.03,1.01-.31,1.04-.77.01-.15-.19-.28-.46-.37-.55-.17-1.39-.18-1.41.13Z"/>
          </g>
        </g>
      </g>
      <g>
        <g>
          <path class="cls-16" d="m98.89,24.03c-.99-9.95-7.75-18.83-17.88-22.06-7.99-2.53-16.29-.99-22.66,3.48-6.4-4.45-14.73-5.96-22.71-3.38-10.14,3.28-16.85,12.24-17.78,22.22C8.03,27.81.93,37.13.75,48.19c-.18,11.39,7.05,21.18,17.24,24.77.97,9.96,7.71,18.87,17.84,22.11,2.62.84,5.27,1.23,7.87,1.23,5.35,0,10.52-1.68,14.81-4.68,6.39,4.45,14.71,5.98,22.69,3.41,1.2-.39,2.35-.86,3.45-1.4,3.74,3.91,8.74,7.34,14.75,7.26-2.43-.63-6.41-6.9-7.24-12.82,3.87-4.15,6.31-9.51,6.85-15.2,9.94-3.53,17.04-12.96,17.17-24.01,0,0,0-.01,0-.02.19-11.43-7.07-21.25-17.31-24.82Z"/>
          <path class="cls-17" d="m98.89,24.03c-.99-9.95-7.75-18.83-17.88-22.06-7.99-2.53-16.29-.99-22.66,3.48-6.4-4.45-14.73-5.96-22.71-3.38-10.14,3.28-16.85,12.24-17.78,22.22C8.03,27.81.93,37.13.75,48.19c-.18,11.39,7.05,21.18,17.24,24.77.97,9.96,7.71,18.87,17.84,22.11,2.62.84,5.27,1.23,7.87,1.23,5.35,0,10.52-1.68,14.81-4.68,6.39,4.45,14.71,5.98,22.69,3.41,1.2-.39,2.35-.86,3.45-1.4,3.74,3.91,8.74,7.34,14.75,7.26-2.43-.63-6.41-6.9-7.24-12.82,3.87-4.15,6.31-9.51,6.85-15.2,9.94-3.53,17.04-12.96,17.17-24.01,0,0,0-.01,0-.02.19-11.43-7.07-21.25-17.31-24.82Z"/>
        </g>
        <g>
          <path class="cls-15" d="m26.5,33.25c.67-.69,1.84-2.16,2.88-3.39.88-1.05,1.77-1.21,2.94-.12,1,.94,2.16,2.14,3.06,3.12,1,1.06,2.54,2.73,3.69,3.96l-1.65,1.77c-1-1.25-2.28-2.79-3.16-3.83-.87-1.03-2.2-2.49-2.74-3.04-.48-.48-.79-.45-1.23.09-.58.75-1.65,2.23-2.25,3.04-.34.48-.7,1-.98,1.4l-1.8-1.86c.45-.36.78-.69,1.25-1.14Zm10.02-5.71c1.08,0,1.95.87,1.95,1.95s-.87,1.93-1.95,1.93-1.94-.85-1.94-1.93.86-1.95,1.94-1.95Zm0,2.9c.52,0,.96-.42.96-.94s-.44-.96-.96-.96-.94.43-.94.96.42.94.94.94Z"/>
          <path class="cls-15" d="m43.83,33.97l-1.83.69c-.25-.81-1-2.81-1.36-3.46l1.8-.65c.38.77,1.1,2.58,1.4,3.42Zm7.26-2.02c-.39,1.51-1.02,3.07-2.04,4.39-1.4,1.8-3.27,3.06-5.02,3.72l-1.57-1.6c1.65-.44,3.73-1.58,4.98-3.14,1.02-1.27,1.74-3.27,1.92-5.15l2.1.68c-.18.48-.27.79-.36,1.1Zm-3.94,1.09l-1.8.63c-.18-.73-.84-2.55-1.22-3.33l1.79-.58c.29.65,1.02,2.6,1.23,3.29Z"/>
          <path class="cls-15" d="m55.42,28.6c0-.52-.04-1.27-.15-1.8h2.34c-.06.52-.14,1.18-.14,1.8v2.22c2.01.59,4.89,1.65,6.27,2.32l-.85,2.07c-1.54-.81-3.79-1.68-5.41-2.23v4.24c0,.44.08,1.49.14,2.1h-2.34c.09-.6.15-1.5.15-2.1v-8.62Z"/>
          <path class="cls-15" d="m70.84,30.87c1.23-.72,2.54-1.37,3.24-1.77.57-.33,1-.59,1.4-.91l1.04,1.74c-.45.27-.93.53-1.48.81-.93.46-2.82,1.33-4.19,2.22-1.25.82-2.09,1.68-2.09,2.73s1.04,1.65,3.12,1.65c1.54,0,3.57-.23,4.9-.56l-.03,2.16c-1.27.23-2.86.38-4.81.38-2.98,0-5.25-.82-5.25-3.4,0-1.65,1.05-2.9,2.49-3.96-.69-1.28-1.41-2.88-2.09-4.47l1.88-.77c.57,1.56,1.27,3,1.88,4.16Z"/>
          <path class="cls-15" d="m85.44,39.37l-1.12-1.79c.57-.06.99-.15,1.39-.24,1.92-.45,3.42-1.83,3.42-4.02,0-2.07-1.12-3.62-3.15-3.96-.21,1.27-.46,2.65-.9,4.06-.9,3.03-2.19,4.89-3.82,4.89s-3.04-1.83-3.04-4.36c0-3.46,3-6.42,6.88-6.42s6.06,2.58,6.06,5.85-1.93,5.4-5.71,5.99Zm-4.12-3.36c.63,0,1.21-.94,1.83-2.97.35-1.11.63-2.38.8-3.63-2.48.51-3.81,2.7-3.81,4.35,0,1.52.6,2.25,1.19,2.25Z"/>
        </g>
        <g>
          <path class="cls-15" d="m37.52,55.23c.58.4,1.34.71,2.13.89-.24.2-.54.61-.69.88-.38-.11-.74-.26-1.09-.44v2.11h-1.23v-.28h-3.53v.28h-1.17v-2.11c-.36.21-.75.4-1.19.57-.12-.28-.43-.68-.65-.87.83-.28,1.47-.63,1.97-1.03h-1.73v-.9h2.58c.08-.12.15-.24.21-.36h-1.61v-2.76h6.71v2.76h-3.87c-.06.12-.11.24-.18.36h5.23v.9h-1.89Zm-4.88-4.47h-2.23v-.94h2.23v-.5h1.15v.5h2.1v-.5h1.17v.5h2.28v.94h-2.28v.31h-1.17v-.31h-2.1v.31h-1.15v-.31Zm0,1.51h4.41v-.38h-4.41v.38Zm0,1.02h4.41v-.38h-4.41v.38Zm4,3.05h-3.53v.36h3.53v-.36Zm0,1.33v-.37h-3.53v.37h3.53Zm-.06-2.05c-.12-.13-.24-.25-.35-.39h-2.67c-.12.14-.24.26-.36.39h3.38Z"/>
          <path class="cls-15" d="m42.23,54.09c.91-.66,1.9-.95,2.95-.95,1.75,0,2.77,1.08,2.77,2.29,0,1.82-1.44,3.22-5.6,2.87l-.38-1.31c3,.41,4.59-.32,4.59-1.59,0-.65-.62-1.13-1.49-1.13-1.13,0-2.15.42-2.78,1.18-.18.22-.28.38-.37.58l-1.15-.29c.2-.98.43-2.94.5-4.18l1.34.19c-.13.55-.31,1.77-.38,2.34Zm4.32-3.57l-.3,1.22c-1.01-.13-3.24-.6-4.02-.8l.32-1.2c.95.3,3.13.68,4,.78Z"/>
          <path class="cls-15" d="m51.61,51.19c-.04,1.08-.12,3.32-.12,4.56,0,1.01.6,1.34,1.38,1.34,1.65,0,2.7-.95,3.42-2.04l.91,1.1c-.64.96-2.06,2.3-4.34,2.3-1.64,0-2.7-.72-2.7-2.43,0-1.34.1-3.97.1-4.83,0-.47-.04-.95-.13-1.35l1.61.02c-.06.42-.11.93-.13,1.33Z"/>
          <path class="cls-15" d="m60.07,51.02c-.13.67-.48,2.67-.48,3.67,0,.19,0,.45.04.65.15-.34.31-.69.45-1.02l.62.49c-.28.83-.61,1.92-.72,2.45-.03.15-.05.37-.05.47,0,.11,0,.27.02.41l-1.16.08c-.2-.69-.39-1.91-.39-3.27,0-1.5.31-3.19.42-3.96.03-.28.09-.66.1-.98l1.4.12c-.08.21-.21.71-.25.89Zm2.47,4.89c0,.44.38.71,1.4.71.89,0,1.63-.08,2.51-.26l.02,1.35c-.65.12-1.45.19-2.58.19-1.72,0-2.55-.61-2.55-1.64,0-.39.06-.79.17-1.3l1.15.11c-.08.33-.12.57-.12.84Zm3.62-5.12v1.29c-1.23.11-3.04.12-4.3,0v-1.28c1.23.17,3.22.12,4.3-.01Z"/>
          <path class="cls-15" d="m75.32,55.16c-.03.43-.07.81-.1,1.13h1.25v1.04h-1.41c-.1.43-.2.69-.32.85-.24.33-.51.42-.87.47-.32.05-.85.04-1.38,0,0-.25-.13-.63-.28-.88.48.05.88.06,1.11.06.18,0,.27-.04.38-.18.05-.06.11-.17.15-.33h-4.05c-.03.2-.07.39-.1.56l-1.2-.08c.15-.73.31-1.66.46-2.65h-1.49v-1.07h1.65c.09-.66.17-1.31.23-1.92-.24.29-.51.58-.8.85-.23-.27-.69-.61-.99-.75,1.06-.87,1.75-1.99,2.13-2.95l1.28.21c-.11.24-.22.48-.34.71h5.66v1.06h-6.29c-.15.23-.32.46-.49.68h5.98s-.01.37-.01.52c-.03.59-.05,1.11-.08,1.59h1.33v1.07h-1.41Zm-5.17,0c-.06.39-.12.77-.17,1.13h1.43c.05-.35.1-.73.15-1.13h-1.41Zm.29-2.14c-.05.35-.09.71-.14,1.07h1.37c.04-.36.07-.72.1-1.07h-1.33Zm3.6,3.27c.04-.31.08-.69.11-1.13h-1.5c-.05.4-.09.78-.14,1.13h1.53Zm.18-2.2c.02-.33.04-.69.06-1.07h-1.41c-.03.35-.06.71-.1,1.07h1.45Z"/>
          <path class="cls-15" d="m85.59,49.92v8.6h-1.28v-.63h-4.44v.65h-1.23v-8.62h6.95Zm-5.72,1.2v2.15h4.44v-2.15h-4.44Zm4.44,5.57v-2.24h-4.44v2.24h4.44Z"/>
          <path class="cls-15" d="m29.02,69.37c0,1.6-.21,3.92-1.48,5.32-.16-.22-.61-.64-.83-.78.65-.73.96-1.66,1.1-2.6-.36.22-.71.43-1.06.63l-.33-1.07c.39-.17.93-.44,1.5-.72.01-.27.01-.53.01-.78v-.34l-.88.4c-.05-.52-.28-1.36-.54-2.01l.85-.35c.25.55.48,1.25.57,1.75v-2.66h3.06v-.83h1.26v.83h3.57v1h-2.87c.81.59,1.87,1.02,2.9,1.21-.21.25-.44.64-.59.92-.08-.02-.16-.05-.25-.07v2.21c0,.42-.06.62-.35.75-.28.12-.65.12-1.17.12-.04-.23-.17-.55-.29-.77.32.01.63.01.74,0,.1-.01.13-.03.13-.12v-2.21h.89c-.43-.14-.9-.33-1.34-.56v.38h-2.62v-.36c-.51.27-1.09.51-1.65.67-.07-.16-.2-.41-.33-.62v.66Zm-.43,4.61c.45-.33.75-.87.88-1.43l.91.29c-.17.65-.43,1.3-.97,1.71l-.82-.57Zm.43-6.82v1.25c1-.26,1.98-.74,2.59-1.25h-2.59Zm3.19,4.43c0,.34-.06.48-.29.58-.21.09-.52.09-.94.09-.03-.18-.13-.41-.21-.58.2,0,.42,0,.49,0s.1-.02.1-.1v-.22h-.99v.86h-.85v-2.95h2.69v2.31Zm-1.84-1.75v.28h.99v-.28h-.99Zm.99,1.05v-.29h-.99v.29h.99Zm1.57,2.87c.25,0,.3-.08.33-.61.19.13.58.27.84.32-.1.89-.37,1.12-1.05,1.12h-1.19c-.98,0-1.2-.26-1.2-1.08v-.94h.98v.93c0,.23.05.26.35.26h.94Zm.2-5.39c-.31-.18-.6-.38-.82-.58-.22.19-.49.39-.8.58h1.62Zm-.62,5.02c-.17-.28-.58-.7-.93-.97l.72-.47c.36.25.78.63.97.92l-.76.52Zm.95-2.15h-.84v-1.95h.84v1.95Zm1.05,1.22c.51.45,1.08,1.08,1.32,1.54l-.89.55c-.22-.45-.77-1.13-1.28-1.6l.85-.49Z"/>
          <path class="cls-15" d="m40.37,65.77l1.35-.16c.1.53.25,1.07.42,1.57.72-.11,1.42-.27,2.05-.46l.16,1.26c-.51.15-1.15.27-1.78.36.29.65.64,1.27.89,1.63.17.25.36.47.54.67l-.62.9c-.56-.11-1.82-.24-2.66-.31l.1-1.06c.49.04,1.15.1,1.46.12-.3-.48-.66-1.14-.94-1.81-1.19.09-2.56.1-4.27-.04l-.02-1.28c1.5.18,2.78.21,3.84.14-.08-.23-.14-.44-.2-.61-.08-.23-.19-.59-.32-.92Zm-1.81,6.15c0,.84.75,1.2,2.12,1.2,1.09,0,1.97-.1,2.68-.24l-.07,1.26c-.57.11-1.47.24-2.69.24-2.04,0-3.33-.8-3.33-2.24,0-.61.19-1.18.53-1.86l1.25.29c-.32.47-.49.91-.49,1.35Z"/>
          <path class="cls-15" d="m47.67,65.68l1.46.05c-.06.28-.15.79-.22,1.41l.37.48c-.14.18-.34.51-.51.77,0,.07,0,.14-.02.22.79-.69,1.94-1.5,2.91-1.5,1.08,0,1.57.64,1.57,1.48,0,1.04-.33,2.51-.33,3.54,0,.26.13.45.38.45.37,0,.84-.26,1.3-.72l.16,1.41c-.46.43-1.07.74-1.88.74-.75,0-1.25-.54-1.25-1.51,0-1.08.36-2.55.36-3.46,0-.49-.26-.74-.68-.74-.74,0-1.82.92-2.64,1.82-.01.28-.02.55-.02.81,0,.82,0,1.66.06,2.6.01.18.04.54.07.77h-1.38c.02-.23.03-.58.03-.74.02-.78.03-1.36.04-2.2-.42.63-.91,1.36-1.26,1.83l-.79-1.09c.57-.7,1.57-2.02,2.14-2.86.02-.23.04-.47.05-.71-.49.06-1.26.16-1.82.24l-.13-1.28c.29,0,.52,0,.87-.01.29-.02.73-.07,1.16-.13.02-.38.04-.66.04-.77,0-.29.01-.59-.04-.9Z"/>
          <path class="cls-15" d="m55.85,66.86c.83-.07,2.48-.22,4.31-.38,1.03-.08,2.13-.15,2.83-.17v1.28c-.53.01-1.39.01-1.92.13-1.21.32-2.11,1.62-2.11,2.81,0,1.64,1.54,2.24,3.23,2.33l-.47,1.37c-2.09-.14-4.07-1.27-4.07-3.43,0-1.44.81-2.58,1.48-3.09-.94.1-2.98.32-4.14.57l-.13-1.37c.4,0,.79-.03.99-.05Z"/>
          <path class="cls-15" d="m68.25,66.41c0,.1,0,.25,0,.41.82-.04,1.65-.12,2.53-.27v1.15c-.67.08-1.58.17-2.55.22v1.03c1.01-.05,1.86-.13,2.67-.24v1.18c-.91.1-1.69.17-2.65.2.02.38.04.79.07,1.19,1.26.36,2.22,1.03,2.8,1.51l-.72,1.12c-.54-.5-1.22-1.03-2.02-1.39,0,.14,0,.26,0,.37,0,.85-.65,1.51-1.97,1.51-1.6,0-2.44-.61-2.44-1.67s.93-1.72,2.47-1.72c.21,0,.42.01.62.03-.02-.31-.03-.63-.04-.93h-.52c-.58,0-1.72-.05-2.38-.13v-1.18c.64.12,1.87.19,2.4.19h.48c0-.33,0-.69.01-1.03h-.37c-.63,0-1.79-.09-2.45-.18l-.03-1.14c.72.12,1.86.22,2.47.22h.39v-.47c0-.19-.02-.5-.06-.69h1.35c-.03.2-.05.45-.06.71Zm-2.02,6.86c.53,0,.88-.15.88-.73,0-.11,0-.25-.01-.43-.27-.04-.54-.07-.82-.07-.71,0-1.1.28-1.1.62,0,.38.36.61,1.05.61Z"/>
          <path class="cls-15" d="m77.78,66.59c0,.08,0,.19-.01.31,1.01,0,2.38-.02,2.9,0v1.18c-.61-.03-1.54-.05-2.9-.05,0,.51.01,1.06.01,1.5.24.38.36.85.36,1.37,0,1.3-.76,2.96-3.2,3.64l-1.07-1.06c1.01-.21,1.89-.54,2.44-1.14-.14.03-.29.05-.45.05-.77,0-1.72-.62-1.72-1.84,0-1.13.91-1.87,2-1.87.14,0,.27.01.4.03,0-.22,0-.45-.01-.67-1.51.02-3.07.08-4.3.15l-.03-1.21c1.14,0,2.96-.04,4.32-.06-.01-.13-.01-.23-.02-.31-.03-.41-.07-.75-.1-.87h1.45c-.02.16-.06.7-.07.86Zm-1.67,4.68c.42,0,.79-.32.65-1.2-.14-.23-.38-.35-.65-.35-.39,0-.77.27-.77.8,0,.46.37.75.77.75Z"/>
          <path class="cls-15" d="m87.08,67.59c.61.53,1.29,1.31,1.29,2.25,0,.84-.36,1.67-.84,2.44h-.26c.22-.46.63-1.3.63-2.1,0-1.16-.79-2.08-1.83-2.31v5.02c0,1.04-.88,1.7-1.83,1.7-.46,0-.93-.25-.93-.74,0-.71.91-1.38,1.73-1.38.23,0,.48.05.63.13v-7.21h.25c0,.96.55,1.67,1.16,2.2Z"/>
        </g>
      </g>
    </g>
  </g>
</svg>