<?xml version="1.0" encoding="UTF-8"?>
<svg id="_レイヤー_2" data-name="レイヤー 2" xmlns="http://www.w3.org/2000/svg" viewBox="0 0 128.09 79.82">
  <defs>
    <style>
      .cls-1 {
        fill: #cfb592;
      }

      .cls-2, .cls-3 {
        fill: #262626;
      }

      .cls-4 {
        fill: #c06860;
      }

      .cls-5 {
        fill: #9f715d;
      }

      .cls-5, .cls-6, .cls-3, .cls-7 {
        fill-rule: evenodd;
      }

      .cls-8, .cls-6 {
        fill: #fff;
      }

      .cls-9 {
        fill: none;
        stroke: #262626;
        stroke-linecap: round;
        stroke-linejoin: round;
      }

      .cls-10 {
        fill: #b69d78;
      }

      .cls-11 {
        fill: #fbb269;
      }

      .cls-12 {
        fill: #998265;
      }

      .cls-13 {
        fill: #c5aa80;
      }

      .cls-14 {
        fill: #f47e69;
      }

      .cls-15 {
        fill: #fecc92;
      }

      .cls-16 {
        fill: #f69059;
      }

      .cls-17 {
        fill: #fec97e;
      }

      .cls-18, .cls-7 {
        fill: #fdd6b8;
      }

      .cls-19 {
        fill: #b1c387;
      }

      .cls-20 {
        fill: #fff400;
      }
    </style>
  </defs>
  <g id="illustration">
    <g>
      <g>
        <g>
          <path class="cls-8" d="m59.38,14.47c-.6-5.97-4.65-11.3-10.73-13.23-4.79-1.52-9.78-.59-13.6,2.09C31.22.65,26.22-.26,21.43,1.29c-6.08,1.97-10.11,7.34-10.67,13.33C4.87,16.74.61,22.33.5,28.97c-.11,6.84,4.23,12.71,10.34,14.86.58,5.98,4.63,11.32,10.71,13.27,1.57.5,3.16.74,4.72.74,3.21,0,6.31-1.01,8.89-2.81,3.83,2.67,8.83,3.59,13.62,2.05.72-.23,1.41-.52,2.07-.84,2.24,2.34,5.24,4.41,8.85,4.36-1.46-.38-3.85-4.14-4.34-7.69,2.32-2.49,3.78-5.7,4.11-9.12,5.96-2.12,10.22-7.78,10.3-14.4,0,0,0,0,0-.01.11-6.86-4.24-12.75-10.38-14.9Z"/>
          <path class="cls-9" d="m59.38,14.47c-.6-5.97-4.65-11.3-10.73-13.23-4.79-1.52-9.78-.59-13.6,2.09C31.22.65,26.22-.26,21.43,1.29c-6.08,1.97-10.11,7.34-10.67,13.33C4.87,16.74.61,22.33.5,28.97c-.11,6.84,4.23,12.71,10.34,14.86.58,5.98,4.63,11.32,10.71,13.27,1.57.5,3.16.74,4.72.74,3.21,0,6.31-1.01,8.89-2.81,3.83,2.67,8.83,3.59,13.62,2.05.72-.23,1.41-.52,2.07-.84,2.24,2.34,5.24,4.41,8.85,4.36-1.46-.38-3.85-4.14-4.34-7.69,2.32-2.49,3.78-5.7,4.11-9.12,5.96-2.12,10.22-7.78,10.3-14.4,0,0,0,0,0-.01.11-6.86-4.24-12.75-10.38-14.9Z"/>
        </g>
        <g>
          <path class="cls-2" d="m19.91,19.04c0,1.42-.14,3.62-.99,4.98-.2-.18-.67-.5-.92-.59.77-1.27.84-3.11.84-4.38v-2.27h3.17v-1.13h1.12v1.13h3.25v1.03h-6.46v1.24Zm5.55,5.01c-.07-.23-.17-.5-.31-.77-1.9.15-3.92.3-5.31.38l-.1-1.11c.32,0,.67-.03,1.05-.04.45-1.21.94-2.94,1.18-4.3l1.22.24c-.35,1.36-.82,2.86-1.25,4,.86-.04,1.8-.08,2.73-.13-.31-.58-.69-1.16-1.05-1.67l1-.43c.77,1.03,1.62,2.39,1.94,3.33l-1.11.5Z"/>
          <path class="cls-2" d="m28.97,17.91c0,.58,0,1.26.05,1.91.13,1.3.4,2.19.96,2.19.42,0,.78-1.05.95-1.77l.9,1.1c-.59,1.57-1.16,2.12-1.88,2.12-.99,0-1.85-.89-2.1-3.3-.09-.83-.1-1.88-.1-2.43,0-.25-.02-.64-.07-.92l1.39.02c-.06.32-.11.85-.11,1.1Zm6.25,3.77l-1.18.46c-.14-1.45-.62-3.64-1.6-4.75l1.14-.37c.86,1.04,1.54,3.29,1.64,4.66Z"/>
          <path class="cls-2" d="m39.67,16.88c-.06.27-.13.6-.19.93.3-.02.57-.04.76-.04.95,0,1.63.42,1.63,1.72,0,1.06-.13,2.52-.51,3.3-.3.63-.8.83-1.48.83-.35,0-.77-.06-1.08-.12l-.2-1.19c.35.1.86.19,1.11.19.3,0,.53-.09.68-.39.24-.51.36-1.6.36-2.49,0-.72-.31-.82-.87-.82-.14,0-.37.02-.62.04-.34,1.37-1.01,3.5-1.84,4.83l-1.17-.47c.87-1.18,1.49-3,1.82-4.23-.32.04-.6.07-.77.09-.25.05-.73.11-1,.15l-.11-1.22c.32.03.63,0,.96,0,.28,0,.7-.04,1.16-.07.13-.68.2-1.34.19-1.91l1.34.13c-.05.23-.12.52-.16.75Zm4.84,3.45l-1.14.53c-.23-1-.87-2.63-1.51-3.42l1.07-.46c.56.77,1.31,2.49,1.58,3.35Z"/>
          <path class="cls-2" d="m46.71,19.92c.82-.59,1.71-.85,2.66-.85,1.58,0,2.49.97,2.49,2.06,0,1.64-1.3,2.9-5.04,2.58l-.34-1.18c2.7.37,4.13-.29,4.13-1.43,0-.58-.56-1.02-1.34-1.02-1.02,0-1.94.38-2.5,1.06-.16.2-.25.34-.33.52l-1.04-.26c.18-.88.39-2.65.45-3.76l1.21.17c-.12.49-.28,1.59-.34,2.11Zm3.89-3.21l-.27,1.1c-.91-.12-2.92-.54-3.62-.72l.29-1.08c.86.27,2.82.61,3.6.7Z"/>
        </g>
        <g>
          <path class="cls-2" d="m22.46,34.41c.3.05.62.07.96.07.27,0,1.17,0,1.52,0-.1.16-.22.49-.25.69h-1.31c-1.19,0-2.13-.21-2.76-1.11-.2.47-.46.89-.82,1.19-.12-.14-.37-.36-.53-.46.67-.53.95-1.54,1.04-2.38l.74.08c-.04.26-.1.53-.17.79.21.44.51.72.86.9v-2.02h-2.27v-.67h2.27v-.58h-1.74v-.65h1.74v-.61h.73v.61h1.85v.65h-1.85v.58h2.31v.67h-2.31v.72h1.91v.64h-1.91v.89Z"/>
          <path class="cls-2" d="m26.47,31.15c.29-.47.81-.97,1.49-.97.83,0,1.48.82,1.48,2.13,0,1.7-1.04,2.51-2.63,2.79l-.46-.7c1.33-.2,2.27-.64,2.27-2.09,0-.92-.31-1.44-.82-1.44-.71,0-1.33,1.06-1.36,1.85-.01.16,0,.35.03.64l-.74.05c-.04-.23-.08-.6-.08-1,0-.56.08-1.3.17-1.92.03-.23.05-.47.05-.63l.82.04c-.08.29-.2.91-.24,1.25Z"/>
          <path class="cls-2" d="m35.41,29.84v5.4h-.78v-.32h-3.6v.32h-.74v-5.4h5.13Zm-.78,4.41v-3.68h-3.6v3.68h3.6Zm-.58-2.97v2.28h-2.45v-2.28h2.45Zm-.72.62h-1.06v1.04h1.06v-1.04Z"/>
          <path class="cls-2" d="m36.72,32.02c.41-.12,1.43-.47,2.15-.47.95,0,1.58.56,1.58,1.47,0,1.08-.95,1.82-2.86,1.94l-.32-.74c1.37-.04,2.38-.4,2.38-1.22,0-.45-.34-.76-.86-.76-.7,0-1.89.5-2.4.71l-.31-.78c.18-.04.46-.11.64-.16Z"/>
          <path class="cls-2" d="m41.2,30.57c.5-.04,1.49-.13,2.58-.23.62-.05,1.28-.09,1.7-.1v.77c-.32,0-.83,0-1.15.08-.73.19-1.27.97-1.27,1.69,0,.98.92,1.34,1.94,1.4l-.28.82c-1.25-.08-2.44-.76-2.44-2.06,0-.86.49-1.55.89-1.85-.56.06-1.79.19-2.48.34l-.08-.82c.24,0,.47-.02.59-.03Z"/>
          <path class="cls-2" d="m48.05,30.45c-.02.1-.04.26-.07.46.43,0,.82-.04,1.1-.08l-.02.71c-.36.04-.69.06-1.17.06-.04.26-.07.55-.1.82h.04c.37,0,.82-.02,1.21-.07l-.02.71c-.34.03-.68.05-1.06.05h-.24c-.01.18-.02.33-.02.44,0,.5.31.76.89.76.84,0,1.3-.38,1.3-.88,0-.41-.22-.79-.62-1.16l.85-.18c.4.5.58.93.58,1.44,0,.91-.82,1.55-2.13,1.55-.94,0-1.61-.41-1.61-1.41,0-.14.02-.36.04-.61-.44-.04-.83-.11-1.15-.2l.04-.73c.39.13.79.2,1.18.24.04-.27.07-.55.1-.82-.41-.04-.84-.11-1.19-.22l.04-.69c.35.11.8.19,1.24.23.02-.19.04-.35.05-.49.02-.28.02-.4,0-.53l.85.05c-.05.22-.08.38-.1.53Z"/>
          <path class="cls-2" d="m22.62,41.59c.4,1.17,1.12,2.11,2.24,2.57-.18.15-.41.47-.53.67-1.09-.51-1.78-1.38-2.25-2.54-.32,1-.97,1.94-2.24,2.55-.11-.2-.32-.46-.53-.61,1.37-.61,1.94-1.61,2.18-2.64h-2.06v-.74h2.18c.06-.56.05-1.11.06-1.6h.78c0,.49-.01,1.04-.07,1.6h2.36v.74h-2.11Z"/>
          <path class="cls-2" d="m29.07,41.02c-.07.97-.23,1.78-.73,2.42.61.37,1.41.61,2.45.71-.15.16-.34.49-.43.68-1.1-.14-1.93-.42-2.57-.86-.47.34-1.1.62-1.97.81-.07-.19-.26-.47-.42-.64.8-.16,1.39-.39,1.81-.68-.5-.53-.85-1.22-1.11-2.1l.68-.17c.2.73.51,1.31.97,1.76.38-.5.52-1.15.56-1.94h-2.87v-.7h2.89c0-.31,0-.63,0-.98h.78c0,.34,0,.66-.01.98h1.64v.7h-1.66Z"/>
          <path class="cls-2" d="m34.56,42.47c.43.86,1.18,1.43,2.36,1.66-.16.16-.37.47-.47.68-1.15-.29-1.88-.86-2.37-1.74-.35.74-1.04,1.39-2.36,1.79-.08-.19-.29-.5-.44-.66,1.33-.38,1.93-1.02,2.19-1.73h-2.05v-.74h2.22c.02-.19.02-.37.02-.55v-.41h-1.84v-.74h1.84v-.8h.77v.8h1.97v.74h-1.97v.41c0,.18,0,.36-.02.55h2.31v.74h-2.16Z"/>
          <path class="cls-2" d="m39.65,40.17c-.01.07-.03.14-.05.22.34-.05.68-.11,1.01-.19v.75c-.36.08-.77.15-1.17.2-.05.26-.11.53-.18.77-.22.84-.62,2.06-.95,2.78l-.83-.28c.36-.61.82-1.86,1.04-2.7.04-.16.08-.34.13-.5-.14,0-.27.01-.4.01-.29,0-.52-.01-.73-.02l-.02-.75c.31.04.5.05.76.05.17,0,.35,0,.54-.02.02-.13.04-.25.05-.34.02-.22.04-.47.02-.61l.92.07c-.05.17-.11.44-.13.57Zm.73,3.25c0,.26.18.46.82.46.4,0,.82-.04,1.25-.12l-.03.76c-.34.05-.74.09-1.22.09-1.01,0-1.55-.35-1.55-.95,0-.28.05-.57.1-.8l.72.07c-.05.17-.08.37-.08.5Zm.91-2.06c.34,0,.7.02,1.06.05l-.02.72c-.3-.04-.67-.08-1.03-.08-.41,0-.78.02-1.16.07v-.7c.34-.04.76-.06,1.15-.06Zm.89-.76l-.48.21c-.12-.25-.31-.61-.47-.83l.47-.2c.15.22.37.6.47.82Zm.72-.28l-.47.2c-.13-.25-.32-.6-.49-.83l.47-.19c.16.22.38.61.49.82Z"/>
          <path class="cls-2" d="m46.03,40.21c0,.14,0,.28,0,.44.48,0,1.18-.03,1.68-.09l.02.71c-.5.04-1.21.07-1.7.08.01.36.04.84.07,1.28.76.22,1.41.64,1.82,1.03l-.46.71c-.34-.34-.79-.7-1.33-.94,0,.08,0,.15,0,.21,0,.53-.27,1.04-1.28,1.04-.86,0-1.56-.28-1.56-1.1,0-.62.53-1.12,1.64-1.12.12,0,.24,0,.35.02-.02-.47-.04-.98-.04-1.3,0-.37,0-.72,0-.98-.01-.29-.03-.55-.07-.7h.91c-.03.17-.05.47-.05.7Zm-1.23,3.74c.38,0,.52-.17.52-.57,0-.05,0-.13,0-.21-.16-.02-.32-.04-.49-.04-.47,0-.75.16-.75.42,0,.29.31.4.73.4Z"/>
          <path class="cls-2" d="m49.17,43.85c0-.32.23-.53.53-.53s.53.22.53.53-.23.53-.53.53-.53-.22-.53-.53Zm.06-3.12l-.03-.89h1l-.03.89-.16,2.05h-.61l-.16-2.05Z"/>
        </g>
      </g>
      <g>
        <g>
          <path class="cls-20" d="m126.67,41.46l-.06.75c-.05.69-.41,1.24-.86,1.32l-.49.09.49.09c.45.08.81.63.86,1.32l.06.75.06-.75c.05-.69.41-1.24.87-1.32l.49-.09-.49-.09c-.45-.08-.81-.63-.87-1.32l-.06-.75Z"/>
          <path class="cls-20" d="m84.53,31.91l-.06.75c-.05.69-.41,1.24-.86,1.32l-.49.09.49.09c.45.08.81.63.86,1.32l.06.75.06-.75c.05-.69.41-1.24.87-1.32l.49-.09-.49-.09c-.45-.08-.81-.63-.87-1.32l-.06-.75Z"/>
          <path class="cls-20" d="m112.45,27.67l-.06.75c-.05.69-.41,1.24-.86,1.32l-.49.09.49.09c.45.08.81.63.86,1.32l.06.75.06-.75c.05-.69.41-1.24.87-1.32l.49-.09-.49-.09c-.45-.08-.81-.63-.87-1.32l-.06-.75Z"/>
          <path class="cls-20" d="m116.93,37.99l-.03.41c-.03.38-.22.67-.47.72l-.27.05.27.05c.25.04.44.34.47.72l.03.41.03-.41c.03-.37.22-.67.47-.72l.27-.05-.27-.05c-.25-.04-.44-.34-.47-.72l-.03-.41Z"/>
          <path class="cls-20" d="m74.79,37.42l-.03.41c-.03.38-.22.67-.47.72l-.27.05.27.05c.25.04.44.34.47.72l.03.41.03-.41c.03-.37.22-.67.47-.72l.27-.05-.27-.05c-.25-.04-.44-.34-.47-.72l-.03-.41Z"/>
        </g>
        <g>
          <path class="cls-4" d="m90.55,68.82s-.75.29-1.45.49l1.45-.49h0Z"/>
          <path class="cls-4" d="m87.41,69.62c.2-.14.58-.17,1.28-.34.17-.05.39-.23.39.06,0,.28-.23.56-.01.87.15.22.36.32.5.44l.02-.02c.32.04.51.27.58.4.16.33-.47.65-.7,1.19-.26.61-.28,1.05-.38,1.58-.15.75-.17,1.22-.48,1.34-.1.03.17-.1.1-.17-.05-.05-.56-.14-.62-.22-.11-.18-.22-.44-.33-.81-.31-.96-.3-2.03-.36-2.64-.07-.89-.24-1.5,0-1.68h0Z"/>
          <path class="cls-4" d="m90.17,70.89c.26-.17.99-.38.99-.38l-.99.38h0Z"/>
          <path class="cls-4" d="m87.56,69.52s-.63-.06-.85.11c-.21.17-.06.93.04,1.34.09.41.23.59.24,1.05,0,.41.18,1.37.41,2.04.33.97.71,1.29,1.24,1.03l-1.08-5.58h0Z"/>
          <path class="cls-4" d="m89.89,71.55c0-.14-.31-.32-.39-.37l.39.37h0Z"/>
          <path class="cls-4" d="m89.61,71.87c-.15-.13-.16-.16-.32-.25l.32.25h0Z"/>
          <path class="cls-4" d="m89.41,72.28c-.09-.14-.2-.19-.33-.28l.33.28h0Z"/>
          <path class="cls-4" d="m89.27,72.67c-.19-.21-.37-.21-.37-.21l.37.21h0Z"/>
          <path class="cls-2" d="m89.83,70.85c-.01.1-.09.22-.22.41-.09.14-.19.29-.28.45-.12.24-.19.44-.25.6-.09.26-.16.47-.4.5-.2.02-.33-.06-.48-.16-.11-.07-.24-.15-.44-.23-.07-.03-.1-.11-.08-.17.03-.07.11-.1.18-.08.23.09.37.18.49.26.14.09.2.13.3.12.06,0,.09-.07.18-.32.06-.17.13-.38.26-.64.09-.18.2-.35.29-.48.07-.1.15-.23.17-.28-.03-.06-.11-.11-.2-.18-.12-.09-.27-.19-.39-.37-.17-.26-.11-.5-.05-.69.02-.09.05-.17.05-.25,0,0,0-.01,0-.02-.03,0-.06.02-.08.03-.04.02-.09.04-.14.05-.25.06-.46.11-.63.14-.3.06-.5.1-.61.18-.12.09-.07.48-.02.93.02.19.05.4.07.63.01.13.02.29.03.45.04.6.09,1.42.32,2.16.11.35.21.59.31.76.05.03.22.08.32.1.11.03.17.05.21.06.06-.14.1-.36.16-.67.02-.12.04-.25.07-.38.02-.13.04-.25.06-.37.06-.39.12-.77.33-1.25.11-.26.29-.46.45-.63.19-.21.3-.35.26-.44-.01-.02-.08-.15-.22-.24h0Zm-1.24,4.43c-.08,0-.11-.05-.12-.07-.03-.06-.02-.11.03-.17-.02,0-.04-.01-.05-.02-.28-.08-.41-.12-.47-.2-.12-.19-.23-.46-.35-.84-.25-.77-.3-1.61-.34-2.23,0-.16-.02-.31-.03-.44-.02-.23-.04-.44-.07-.62-.07-.6-.12-1,.13-1.18.15-.11.38-.15.71-.22.18-.04.37-.08.61-.14.03,0,.07-.03.1-.04.1-.05.24-.1.35-.03.11.07.11.21.12.26,0,.11-.03.22-.05.33-.05.2-.08.32.02.47.09.13.21.22.32.3.03.02.06.04.08.06,0,0,.01,0,.02,0,.34.04.57.27.68.47.13.27-.08.5-.29.74-.14.16-.31.35-.4.56-.19.45-.25.81-.31,1.18-.02.12-.04.24-.06.37-.03.14-.05.26-.07.38-.1.56-.17.93-.51,1.07-.02,0-.04.01-.06.01h0Z"/>
          <path class="cls-2" d="m90.17,71.02s.05,0,.07-.02c.2-.13.76-.31.96-.37.07-.02.11-.1.09-.17-.02-.07-.1-.11-.17-.09-.03,0-.75.22-1.03.4-.06.04-.08.12-.04.19.03.04.07.06.11.06h0Z"/>
          <path class="cls-2" d="m88.31,75.32c.12,0,.26-.03.39-.1.07-.03.09-.11.06-.18-.03-.07-.11-.09-.18-.06-.16.08-.3.09-.42.04-.23-.09-.43-.42-.63-1-.22-.68-.4-1.62-.4-2,0-.32-.07-.52-.14-.72-.04-.11-.07-.22-.1-.36-.2-.78-.16-1.15-.09-1.2.12-.09.51-.1.75-.08.07,0,.14-.05.15-.12,0-.07-.05-.14-.12-.15-.11-.01-.7-.05-.94.14-.21.16-.21.66,0,1.48.03.15.07.26.11.38.06.19.12.36.12.64,0,.46.2,1.43.41,2.08.23.67.48,1.03.79,1.16.08.03.16.05.25.05h0Z"/>
          <path class="cls-2" d="m89.88,71.68s0,0,.01,0c.07,0,.13-.07.12-.15-.01-.17-.2-.31-.4-.44-.02-.01-.03-.02-.04-.03-.06-.04-.14-.03-.19.03-.04.06-.03.14.03.19.01,0,.03.02.05.04.22.15.27.21.28.24,0,.07.06.12.13.12h0Z"/>
          <path class="cls-2" d="m89.61,72s.08-.02.1-.05c.05-.06.04-.14-.01-.19-.04-.04-.07-.06-.1-.09-.07-.06-.12-.11-.24-.18-.06-.04-.15-.01-.18.05s-.01.15.05.18c.1.06.13.09.19.15.03.03.06.06.1.09.03.02.06.03.09.03h0Z"/>
          <path class="cls-2" d="m89.41,72.42s.05,0,.07-.02c.06-.04.09-.12.05-.18-.08-.14-.19-.2-.29-.26-.03-.02-.06-.04-.09-.06-.06-.04-.15-.03-.19.03-.04.06-.03.15.03.19.03.02.07.04.1.06.09.05.15.09.19.17.03.04.07.07.12.07h0Z"/>
          <path class="cls-2" d="m89.27,72.8s.06-.01.09-.03c.06-.05.06-.14.01-.19-.22-.25-.44-.26-.47-.26-.07,0-.14.06-.14.14,0,.07.06.14.13.14,0,0,.12,0,.27.17.03.03.06.04.1.04h0Z"/>
          <path class="cls-2" d="m90.77,71.79c.28,0,.55-.26.64-.47.07-.12.8-.57,1.25-.78.17-.08,4.29-2.01,4.96-2.89.7-.92.39-1.64-.04-2.3-.46-.69-2.43-3.18-2.66-3.46-.26-.32-.96-.46-1.03-.48-.07-.01-.14.03-.16.11-.01.07.03.14.11.16.19.04.71.18.88.38.22.27,2.2,2.77,2.65,3.44.45.67.62,1.24.05,1.98-.63.83-4.82,2.79-4.86,2.81-.16.07-1.25.64-1.38.92-.07.15-.29.33-.42.31-.01,0-.03,0-.05,0-.91-.14-1.44-.47-1.57-.97-.19-.72.14-1.47.25-1.68,0-.01.01-.02.02-.03.23-.16,1.41-.99,2.3-1.34,1.01-.39,1.71-.77,1.72-.77.04-.02.07-.06.07-.11,0-.05-.01-.09-.05-.12-.04-.03-3.75-3.03-4.49-4.37-.72-1.32-.56-2.48-.56-2.49.01-.07-.04-.14-.11-.15-.07-.01-.14.04-.15.11,0,.05-.18,1.26.59,2.66.68,1.24,3.66,3.71,4.39,4.32-.27.13-.81.39-1.51.66-.92.36-2.13,1.21-2.36,1.37-.05.03-.08.08-.11.13-.12.23-.49,1.06-.27,1.87.17.61.77,1,1.79,1.17h.05s.05.01.07.01h0Z"/>
          <path class="cls-18" d="m93.59,75.85c-.05.08-.11.16-.19.21-.07.04-.15.06-.22.07-.07.01-.15.03-.22.04-.1.02-.21.04-.31.02-.17-.03-.3-.17-.44-.26-.02,0-.03-.02-.04-.04,0-.01,0-.02,0-.04.01-.1.02-.19.04-.29.36,0,.71,0,1.07-.03.09,0,.39-.08.46-.01.08.09-.09.26-.13.33h0Z"/>
          <path class="cls-16" d="m91.64,75.11c.32-1.5.64-3.21.96-4.7l4.11-2.21c-.18.84-.47,1.66-.87,2.42-.08.15-.94,2.43-1.01,3.22-.04.41.06.86-.16,1.2-.24.37-.73.45-1.16.5-.6.07-1.24.12-1.76-.16-.05-.02-.09-.05-.11-.1-.02-.05-.01-.1,0-.16h0Z"/>
          <path class="cls-2" d="m92.74,75.72c.25,0,.51-.02.79-.06.47-.05.99-.14,1.26-.56.18-.28.17-.6.17-.9,0-.12,0-.24,0-.36.07-.76.93-3.04.99-3.16.41-.77.71-1.6.89-2.45.02-.07-.03-.14-.1-.16-.07-.01-.14.03-.16.1-.17.83-.46,1.63-.86,2.38-.09.17-.95,2.45-1.02,3.27-.01.13,0,.26,0,.38,0,.28,0,.55-.13.76-.2.32-.65.39-1.06.44-.64.07-1.21.11-1.68-.15-.04-.02-.05-.03-.05-.04,0-.01,0-.06,0-.07.16-.75.32-1.56.48-2.35.16-.79.32-1.6.48-2.35.02-.07-.03-.14-.1-.16-.07-.02-.14.03-.16.1-.16.75-.32,1.56-.48,2.35-.16.79-.32,1.6-.48,2.35-.01.06-.03.15,0,.24.04.08.11.13.17.17.32.18.68.23,1.05.23h0Z"/>
          <path class="cls-4" d="m92.15,75.52c-.01-.15.02-.37.02.41l-.02-.41h0Z"/>
          <path class="cls-4" d="m92.03,76.32c0-.19-.12-.45.17-.38.28.07.49.38.86.26.26-.09.42-.27.57-.37v-.03c.12-.3.39-.43.55-.47.37-.07.51.65.99,1.03.53.43.97.57,1.47.82.71.36,1.17.51,1.2.86,0,.11-.05-.2-.14-.15-.06.04-.29.52-.39.55-.21.06-.5.1-.9.11-1.04.04-2.11-.26-2.73-.38-.9-.17-1.57-.18-1.68-.48-.08-.24,0-.62.02-1.37h0Z"/>
          <path class="cls-4" d="m91.95,77.53s-.23.61-.13.87c.11.26.91.32,1.35.33.43.02.65-.06,1.11.06.41.11,1.42.2,2.15.17,1.06-.06,1.49-.34,1.38-.95l-5.86-.49h0Z"/>
          <path class="cls-4" d="m94.62,75.77c-.14-.03-.4.22-.48.28l.48-.28h0Z"/>
          <path class="cls-4" d="m94.86,76.14c-.17.11-.21.12-.34.25l.34-.25h0Z"/>
          <path class="cls-4" d="m95.22,76.45c-.17.04-.24.15-.37.25l.37-.25h0Z"/>
          <path class="cls-4" d="m95.57,76.7c-.27.13-.32.31-.32.31l.32-.31h0Z"/>
          <path class="cls-2" d="m92.17,76.07s0,0,0,0c.07,0,.13-.07.13-.14l-.02-.41c0-.07-.07-.13-.14-.13-.07,0-.13.07-.13.14l.02.41c0,.07.06.13.13.13h0Z"/>
          <path class="cls-2" d="m97.26,78.33s.14-.2.19-.29c.06-.1.1-.16.13-.2-.12-.1-.33-.21-.63-.35-.11-.05-.23-.11-.36-.18-.12-.06-.23-.11-.35-.16-.38-.17-.73-.34-1.15-.67-.22-.18-.37-.41-.51-.62-.16-.25-.26-.4-.37-.38-.02,0-.17.04-.31.16.1.04.2.15.35.33.11.13.23.27.38.41.2.19.39.31.53.41.24.16.42.29.38.54-.03.21-.15.31-.29.43-.1.09-.22.19-.35.37-.04.06-.13.07-.19.03-.06-.04-.07-.13-.03-.19.15-.2.28-.32.39-.41.13-.12.19-.17.2-.27.01-.07-.04-.12-.27-.27-.15-.1-.34-.24-.56-.44-.15-.14-.29-.3-.4-.43-.08-.1-.19-.22-.24-.25-.07.01-.15.08-.24.15-.12.1-.27.22-.48.29-.3.1-.52-.03-.7-.14-.08-.05-.16-.1-.24-.12-.01,0-.02,0-.03,0,0,.03,0,.07.01.1,0,.05.01.1.01.16,0,.26-.02.49-.04.67-.02.32-.04.53,0,.66.05.15.46.21.93.28.19.03.41.06.65.11.13.02.29.06.45.09.61.13,1.44.31,2.25.28.38,0,.65-.04.85-.1h0Zm-1.02.37c-.78,0-1.56-.17-2.13-.29-.16-.04-.32-.07-.45-.09-.23-.04-.45-.08-.64-.11-.62-.1-1.03-.16-1.14-.46-.06-.18-.05-.42-.02-.77.01-.19.03-.4.03-.65,0-.03,0-.08-.01-.12-.02-.12-.04-.26.07-.35.1-.09.24-.05.29-.04.11.03.21.09.31.15.18.11.3.17.48.11.16-.05.28-.15.39-.24.03-.02.06-.05.08-.07,0,0,0-.01,0-.02.14-.32.43-.49.66-.55.3-.06.47.21.66.5.12.19.26.41.45.55.39.32.73.47,1.09.64.12.05.23.11.36.17.13.06.25.12.36.18.53.26.88.43.92.8,0,.13-.08.15-.11.16-.07.01-.12-.01-.16-.08-.01.02-.02.04-.03.06-.15.26-.23.37-.33.41-.22.07-.52.1-.93.11-.06,0-.12,0-.18,0h0Z"/>
          <path class="cls-2" d="m96.11,79.1c.12,0,.23,0,.34,0,.73-.04,1.16-.18,1.38-.46.13-.17.18-.39.13-.65-.01-.07-.08-.12-.16-.11-.07.01-.12.08-.11.16.03.19.01.33-.07.44-.16.2-.54.32-1.18.35-.74.03-1.72-.06-2.11-.16-.32-.09-.53-.08-.76-.07-.12,0-.24.01-.38,0-.83-.02-1.2-.16-1.23-.25-.06-.15.04-.54.13-.78.03-.07,0-.15-.08-.17s-.15,0-.17.08c-.04.11-.25.68-.13.97.1.26.6.4,1.47.42.16,0,.28,0,.41,0,.21,0,.4-.02.68.06.39.11,1.19.18,1.85.18h0Z"/>
          <path class="cls-2" d="m94.14,76.19s.06,0,.08-.03c.01,0,.03-.02.05-.04.21-.18.29-.22.32-.22.07.01.14-.03.16-.11.02-.07-.03-.14-.11-.16-.17-.03-.37.12-.55.28-.02.01-.03.03-.04.04-.06.05-.07.13-.02.19.03.03.07.05.11.05h0Z"/>
          <path class="cls-2" d="m94.52,76.52s.07-.01.09-.04c.08-.08.12-.11.2-.15.03-.02.07-.04.12-.08.06-.04.08-.12.04-.19-.04-.06-.12-.08-.19-.04-.05.03-.08.05-.11.07-.09.05-.14.09-.25.19-.05.05-.05.14,0,.19.03.03.06.04.1.04h0Z"/>
          <path class="cls-2" d="m94.85,76.84s.06-.01.09-.03c.03-.03.06-.05.09-.08.08-.07.13-.12.23-.15.07-.02.12-.09.1-.17-.02-.07-.09-.12-.17-.1-.16.04-.25.13-.34.21-.03.02-.05.05-.08.07-.06.05-.07.13-.02.19.03.03.07.05.1.05h0Z"/>
          <path class="cls-2" d="m95.25,77.14c.06,0,.11-.04.13-.1,0,0,.04-.12.24-.22.07-.03.09-.11.06-.18-.03-.07-.11-.09-.18-.06-.31.15-.38.37-.39.39-.02.07.02.15.09.17.01,0,.02,0,.04,0h0Z"/>
          <path class="cls-11" d="m97.06,73.47c.2-.82.19-1.34.38-1.9.13-.37.67-.44,1.05-.75.08-.06.11,0,.07.21-.02.13-.14.4-.1.53.08.25.41.26.55.4.16-.14.26-.12.44-.09.36.03.7.36.49.66-.54.79-.99,1.83-1.03,2.55-.04.72.57,1.11.1,1.63-.06.06-.18.13-.39-.03-.15-.11-.07-.48-.41-.57-.36-.1-.63.13-.94-.04-.45-.26-.74-.57-.73-.78.04-.53.36-1.12.52-1.81h0Z"/>
          <path class="cls-11" d="m97.85,71.19s-.66.1-.89.44c-.22.36-.28,1.08-.24,1.45.04.38.11.39-.05.92-.25.83-.74,1.37-.21,1.87.36.34,1.65,1.09,2.32,1.21.3.06.42-.43.4-.61l-1.32-5.27h0Z"/>
          <path class="cls-11" d="m98.94,74.61c-.12-.1-.68-.4-.86-.34l.86.34h0Z"/>
          <path class="cls-11" d="m99.12,74.05c-.26-.26-.75-.34-.75-.34l.75.34h0Z"/>
          <path class="cls-11" d="m99.31,73.57c-.12-.13-.55-.36-.76-.33l.76.33h0Z"/>
          <path class="cls-11" d="m99.54,73.03c-.11-.18-.46-.33-.67-.31l.67.31h0Z"/>
          <path class="cls-2" d="m99.27,71.99s-.06,0-.08.02c.02.07.02.16-.02.28-.06.15-.15.31-.25.49-.09.16-.19.35-.3.57-.14.31-.23.51-.4.95-.14.37-.38.38-.61.39-.13,0-.27.01-.44.08-.07.03-.15,0-.18-.08-.03-.07,0-.15.07-.18.21-.09.39-.09.53-.1.21,0,.29-.01.36-.22.17-.45.26-.66.4-.97.11-.24.22-.42.31-.59.1-.18.18-.32.23-.46.04-.11.04-.13-.17-.21-.15-.06-.35-.15-.42-.36-.04-.13.01-.3.06-.45.01-.04.02-.08.03-.11-.12.07-.23.13-.34.18-.24.12-.44.21-.5.39-.1.29-.14.57-.19.9-.04.28-.09.6-.19.99-.07.3-.17.57-.26.83-.12.34-.24.66-.26.95,0,.02.07.21,1.09.81.12.07.17.06.27.04.1-.02.23-.05.43.01.29.08.32.27.34.38,0,.05.01.07.03.08.03.02.04.03.06.04,0,0,.01-.02.02-.02.21-.23.16-.4.03-.74-.09-.23-.19-.48-.17-.81.04-.79.56-1.89,1.06-2.62.05-.07.05-.14.02-.21-.06-.13-.23-.23-.41-.25,0,0,0,0,0,0h-.01c-.06-.01-.1-.02-.14-.02h0Zm-.36,4.95c-.08,0-.16-.05-.25-.11-.1-.07-.12-.18-.13-.26-.02-.09-.02-.13-.15-.17-.13-.04-.21-.02-.3,0-.12.02-.25.05-.46-.07-1.25-.73-1.23-.95-1.22-1.06.02-.33.14-.67.27-1.03.09-.26.19-.52.25-.8.09-.37.14-.69.18-.96.05-.34.09-.63.2-.94.1-.28.37-.42.64-.55.16-.08.32-.16.46-.27.11-.08.19-.04.22-.02.11.07.09.22.06.36,0,.05-.03.12-.05.18-.03.08-.07.24-.06.29.03.09.12.13.26.2.05.02.1.04.16.08.17-.1.3-.08.45-.06h0c.27.03.52.18.62.4.08.16.06.33-.04.48-.57.84-.97,1.84-1.01,2.48-.01.26.07.48.15.69.12.32.25.65-.09,1.02,0,0,0,.01-.01.02-.02.03-.06.09-.14.1-.01,0-.02,0-.03,0h0Z"/>
          <path class="cls-2" d="m98.82,77.21c.1,0,.19-.04.26-.11.18-.17.24-.5.22-.66-.01-.07-.08-.12-.15-.11-.07.01-.12.08-.11.15.02.1-.04.33-.14.43-.04.04-.07.04-.1.03-.63-.11-1.89-.84-2.25-1.18-.31-.3-.21-.58.02-1.13.07-.18.16-.38.23-.6.13-.42.12-.54.08-.76,0-.06-.02-.12-.03-.21-.03-.35.03-1.04.22-1.36.15-.23.62-.35.79-.37.07-.01.12-.08.11-.15-.01-.07-.08-.13-.15-.11-.03,0-.73.11-.98.5-.24.4-.3,1.15-.27,1.53,0,.09.02.16.03.22.03.19.04.26-.07.64-.06.21-.14.4-.22.58-.22.53-.41.99.04,1.43.39.37,1.71,1.12,2.39,1.25.03,0,.05,0,.08,0h0Z"/>
          <path class="cls-2" d="m98.94,74.75s.08-.02.11-.05c.05-.06.03-.14-.02-.19-.06-.05-.7-.45-.99-.36-.07.02-.11.1-.09.17.02.07.1.11.17.09.1-.03.58.19.74.31.02.02.05.03.08.03h0Z"/>
          <path class="cls-2" d="m99.12,74.18s.07-.01.1-.04c.05-.05.05-.14,0-.19-.29-.29-.8-.38-.83-.38-.07-.01-.14.04-.16.11-.01.07.04.14.11.16,0,0,.45.08.68.3.03.03.06.04.1.04h0Z"/>
          <path class="cls-2" d="m99.31,73.71s.07-.01.09-.04c.05-.05.05-.14,0-.19-.13-.14-.6-.41-.88-.37-.07.01-.12.08-.11.16.01.07.08.12.16.11.14-.02.53.17.64.29.03.03.06.04.1.04h0Z"/>
          <path class="cls-2" d="m99.54,73.17s.05,0,.07-.02c.06-.04.08-.12.05-.19-.14-.24-.55-.4-.8-.38-.07,0-.13.07-.12.14s.07.13.14.12c.18-.01.47.12.55.25.03.04.07.07.12.07h0Z"/>
          <path class="cls-19" d="m98.8,70.6c.27-.3.61-.55.94-.78.37-.25.43-.48.5-.94.07-.44.22-.88.44-1.27.03-.05.06-.11.11-.15.12-.1.3-.07.46-.04,1,.22,1.99.52,2.95.9.42.17.71.2.59.68-.05.21-.13.42-.21.63-.37,1.02-.96,2.56-2.11,2.92-.83.26-3.2.34-3.2.34,0,0-.8-.57-.85-.9-.05-.33,0-.99.38-1.41h0Z"/>
          <path class="cls-2" d="m99.27,73.04s0,0,0,0c.1,0,2.4-.08,3.24-.34,1.61-.5,2.46-3.81,2.49-3.95.02-.07-.03-.15-.1-.16-.07-.02-.15.03-.16.1,0,.03-.84,3.3-2.31,3.75-.74.23-2.79.32-3.12.33-.31-.22-.73-.6-.76-.78-.05-.32,0-.93.34-1.3.36-.4,1.03-.83,1.04-.83.06-.04.08-.12.04-.19-.04-.06-.12-.08-.19-.04-.03.02-.71.45-1.09.88-.43.47-.46,1.2-.41,1.52.05.37.76.89.9.99.02.02.05.02.08.02h0Z"/>
          <path class="cls-2" d="m100.24,71.48c.07,0,.13-.06.14-.13,0-.04.02-.88-.18-1.41-.13-.34.17-1.5.39-2.15.02-.07-.01-.15-.09-.17-.07-.02-.15.01-.17.09-.06.18-.59,1.79-.38,2.33.18.48.16,1.3.16,1.3,0,.07.06.14.13.14,0,0,0,0,0,0h0Z"/>
          <path class="cls-11" d="m111.83,76.86c.31.01.6.29.96.08.26-.15.38-.38.52-.52l-.02-.03c.07-.35.34-.55.49-.61.38-.15.68.57,1.27.87.66.34,1.15.39,1.73.55.82.22,1.34.28,1.45.64.03.11-.1-.2-.18-.13-.06.06-.2.61-.29.67-.21.11-.5.21-.92.31-1.09.27-2.28.18-2.96.2-.99.01-1.69.15-1.87-.14-.14-.24-.14-.66-.28-1.45-.04-.2-.22-.45.1-.43h0Z"/>
          <path class="cls-11" d="m111.91,78.58s-.11.7.06.95c.17.25,1.03.14,1.5.06.46-.07.67-.21,1.19-.18.46.03,1.54-.1,2.31-.29,1.1-.29,1.5-.68,1.24-1.3l-6.29.77h0Z"/>
          <path class="cls-11" d="m114.34,76.15c-.15,0-.38.32-.45.41l.45-.41h0Z"/>
          <path class="cls-11" d="m114.68,76.49c-.15.15-.2.17-.31.34l.31-.34h0Z"/>
          <path class="cls-11" d="m115.13,76.74c-.17.08-.22.21-.34.35l.34-.35h0Z"/>
          <path class="cls-11" d="m115.55,76.92c-.25.2-.27.39-.27.39l.27-.39h0Z"/>
          <path class="cls-2" d="m114.08,78.75c.1,0,.2,0,.3,0,.67,0,1.59.01,2.43-.19.4-.09.68-.19.88-.29.04-.05.11-.25.14-.35.04-.13.07-.2.09-.24-.15-.08-.4-.15-.75-.24-.13-.03-.27-.07-.42-.11-.14-.04-.27-.07-.4-.1-.43-.1-.84-.19-1.36-.46-.27-.14-.48-.35-.67-.54-.22-.23-.37-.37-.49-.32-.02.01-.19.09-.3.26.12,0,.25.11.46.27.14.11.31.24.49.35.26.16.48.25.65.32.28.12.5.21.52.47.01.22-.09.36-.21.51-.08.11-.19.25-.29.47-.03.07-.11.1-.18.06-.07-.03-.1-.11-.06-.18.12-.24.23-.4.32-.52.11-.15.16-.22.16-.34,0-.08-.09-.13-.35-.24-.18-.08-.41-.17-.69-.34-.19-.12-.37-.25-.51-.36-.11-.09-.25-.2-.31-.22-.08.03-.14.11-.23.22-.1.13-.23.29-.44.41-.29.17-.55.08-.76,0-.1-.03-.19-.07-.28-.07-.02,0-.03,0-.04,0,0,.03.02.08.04.11.02.05.04.1.05.16.05.28.08.52.11.71.05.34.08.57.15.7.09.15.54.13,1.05.1.21-.01.45-.02.71-.03.06,0,.13,0,.2,0h0Zm-1.43.32c-.37,0-.63-.05-.75-.25-.1-.18-.14-.43-.19-.8-.03-.19-.06-.42-.11-.69,0-.04-.02-.08-.04-.12-.04-.12-.09-.26,0-.37.08-.11.23-.1.28-.1.13,0,.24.05.35.09.19.07.35.12.54.02.16-.09.26-.22.36-.34.03-.03.05-.06.08-.09,0,0,0-.01,0-.02.07-.37.34-.61.57-.71.3-.12.54.12.79.38.17.17.36.37.6.49.49.25.88.34,1.3.44.13.03.27.06.41.1.15.04.29.08.41.11.61.15,1.02.26,1.13.63.03.12-.05.17-.07.18-.09.04-.15-.03-.18-.07-.01.03-.02.06-.03.09-.11.3-.16.44-.26.5-.22.12-.52.22-.95.32-.88.21-1.81.21-2.5.2-.18,0-.35,0-.49,0-.25,0-.49.02-.7.03-.2.01-.38.02-.54.02h0Z"/>
          <path class="cls-2" d="m112.55,79.82c.25,0,.56-.03.94-.1.17-.02.3-.06.43-.09.22-.06.41-.11.73-.09.51.03,1.6-.11,2.35-.3.75-.2,1.18-.45,1.34-.77.1-.21.1-.44,0-.71-.03-.07-.11-.1-.18-.07-.07.03-.1.11-.07.18.08.19.08.35.02.48-.12.25-.51.46-1.17.63-.77.2-1.83.31-2.26.29-.36-.02-.58.04-.81.1-.12.03-.25.06-.41.09-.89.16-1.3.09-1.36,0-.1-.15-.07-.6-.03-.85.01-.07-.04-.14-.11-.15-.07-.01-.14.04-.15.11-.01.08-.11.76.08,1.05.1.14.33.22.69.22h0Z"/>
          <path class="cls-2" d="m113.9,76.69s.08-.02.1-.05c.01-.01.03-.03.04-.05.19-.24.27-.3.3-.3.07,0,.13-.06.13-.14s-.06-.13-.14-.13c-.18,0-.35.2-.51.41-.02.02-.03.04-.04.05-.05.06-.04.14.02.19.03.02.06.03.09.03h0Z"/>
          <path class="cls-2" d="m114.37,76.96s.09-.02.11-.06c.07-.11.11-.14.18-.21.03-.03.07-.06.11-.11.05-.05.05-.14,0-.19-.05-.05-.14-.05-.19,0-.04.04-.08.07-.11.1-.08.07-.13.12-.22.25-.04.06-.02.15.04.19.02.02.05.02.07.02h0Z"/>
          <path class="cls-2" d="m114.79,77.22s.08-.02.11-.05c.03-.04.05-.07.08-.1.07-.09.11-.16.21-.21.07-.03.09-.11.06-.18-.03-.07-.11-.09-.18-.06-.16.08-.23.19-.31.29-.02.03-.04.06-.07.09-.05.06-.04.14.02.19.02.02.05.03.08.03h0Z"/>
          <path class="cls-2" d="m115.28,77.45c.07,0,.13-.05.13-.13,0,0,.02-.14.21-.29.06-.05.07-.13.02-.19-.05-.06-.13-.07-.19-.02-.29.23-.32.46-.32.49,0,.07.05.14.13.14,0,0,0,0,0,0h0Z"/>
          <path class="cls-19" d="m110.23,68.3l3.04-1.77s.75.81.85,1.54c.09.72,0,7.51,0,7.51l.03.2c-.23.33-.46.66-.69.99-.1.15-.21.3-.37.38-.24.13-.53.06-.81.05-.12,0-.24,0-.36-.03-.12-.03-.23-.09-.3-.19-.06-.1.02-.4.02-.4,0-1.25-.87-2.46-1.2-4.02-.33-1.56-.22-4.26-.22-4.26h0Z"/>
          <path class="cls-2" d="m112.72,77.37c.15,0,.29-.02.43-.09.19-.1.31-.28.41-.42l.69-.99s.03-.06.02-.09l-.02-.19c0-.39.09-6.8,0-7.52-.1-.76-.85-1.58-.88-1.61-.05-.05-.14-.06-.19,0-.05.05-.06.14,0,.19,0,0,.73.79.81,1.46.09.71,0,7.42,0,7.49,0,0,0,.01,0,.02l.02.15-.66.95c-.09.12-.19.27-.32.34-.16.08-.36.07-.57.04-.06,0-.11-.01-.17-.01-.03,0-.06,0-.09,0-.09,0-.17,0-.25-.02-.1-.02-.17-.07-.21-.13-.01-.03,0-.18.03-.29,0-.01,0-.02,0-.04,0-.73-.28-1.44-.59-2.2-.23-.58-.47-1.18-.61-1.85-.32-1.53-.19-4.02-.19-4.05,0-.07-.05-.14-.13-.14-.07,0-.14.05-.14.13,0,.1-.13,2.55.19,4.12.15.69.39,1.3.63,1.9.29.72.56,1.4.57,2.08-.03.11-.08.35,0,.48.07.13.21.22.38.26.1.02.2.03.29.03.03,0,.06,0,.09,0,.05,0,.1,0,.16.01.09,0,.19.02.29.02h0Z"/>
          <path class="cls-1" d="m68.46,58.13c-.13-.21-.09-.53.19-.65l5.49-2.38h.03s-3.58-8.6-3.58-8.6c-.04-.1-.04-.2,0-.28l-.07-.04.37-.46c.16-.2.41-.3.67-.27l7.33.94c.58.09,1.09.42,1.41.91,1.44,2.18,5.45,8.27,5.53,8.64l-1.23-.79c.54.85.9,1.46.92,1.56l3.52.86v.49l-20.19.75c-.39.01-.57-.42-.39-.69h0Z"/>
          <path class="cls-1" d="m94.82,60.63l-1.02-.2,15.47-8.18c1.91-1.01,4.11-1.31,6.22-.85l5.42,1.19c1.15.25,1.69,1.33,1.51,2.3.15.8-.18,1.69-1.06,2.13l-13.85,6.85-13.72-2.69,1.02-.54h0Z"/>
          <path class="cls-2" d="m70.53,46.05c.11-.14.29-.21.47-.19l7.59,1.17c.61.1,1.16.45,1.51.97,2.49,3.77,5.47,8.33,5.55,8.68.02.07-.03.14-.1.16-.01,0-.02,0-.03,0-.06,0-.12-.04-.13-.1-.08-.28-2.19-3.57-5.51-8.59-.3-.46-.78-.76-1.32-.85l-7.59-1.17c-.08-.01-.16.02-.22.09-.05.07-.06.15-.03.23l3.59,8.63s0,0-.01,0c0,0-.02,0-.03,0-.04.02-.08.05-.13.08,0,0,0,0,0,0-.02.01-.04.02-.06.03l-3.6-8.65c-.07-.17-.04-.36.07-.5h0Z"/>
          <path class="cls-2" d="m85.91,56.07s.02,0,.03,0c.07-.02.12-.08.1-.16-.07-.35-3.06-4.92-5.54-8.68-.34-.52-.89-.87-1.51-.97l-7.33-.94c-.3-.04-.6.08-.79.32l-.37.46c-.05.06-.04.14.02.19.06.05.14.04.19-.02l.37-.46c.13-.16.34-.24.54-.22l7.33.94c.54.08,1.02.39,1.32.85,3.32,5.02,5.43,8.32,5.51,8.59.02.06.07.1.13.1h0Z"/>
          <path class="cls-2" d="m87.7,57.49l-13.54-2.25-5.45,2.37c-.17.07-.2.24-.18.35.03.11.12.25.31.24l18.86-.7h0Zm-18.87.97c-.32,0-.51-.22-.56-.45-.05-.23.03-.53.33-.66l5.48-2.38s.05-.01.08,0l14.89,2.48c.07.01.12.07.11.14s-.06.12-.13.13l-20.19.75s-.02,0-.03,0h0Z"/>
          <path class="cls-2" d="m68.83,58.96s.01,0,.02,0l20.19-.75c.07,0,.13-.07.13-.14,0-.07-.07-.13-.14-.13l-20.19.75c-.15,0-.23-.13-.28-.24-.12-.28-.09-.6-.03-.66.05-.05.05-.14,0-.19-.05-.05-.14-.05-.19,0-.18.19-.16.66-.02.96.11.26.3.4.52.4h0Z"/>
          <path class="cls-2" d="m113.54,51.33c-1.46,0-2.91.35-4.21,1.04l-15.13,8,13.3,2.6,13.81-6.83c.86-.42,1.08-1.24,1.01-1.86-.08-.62-.49-1.36-1.43-1.57l-5.42-1.19c-.63-.14-1.28-.21-1.92-.21h0Zm-6.02,11.93s-.02,0-.03,0l-13.72-2.69c-.06-.01-.1-.06-.11-.11,0-.06.02-.11.07-.14l15.47-8.18c1.93-1.02,4.18-1.33,6.31-.86l5.42,1.19c.88.19,1.53.9,1.64,1.8.11.9-.34,1.74-1.15,2.14l-13.85,6.85s-.04.01-.06.01h0Z"/>
          <path class="cls-2" d="m107.52,63.99s.04,0,.06-.01l13.85-6.85c.87-.43,1.2-1.47,1.14-2.26,0-.07-.07-.13-.15-.12-.07,0-.13.07-.12.15.06.72-.26,1.64-.99,1.99l-13.81,6.83-13.67-2.68c-.07-.01-.14.03-.16.11-.01.07.03.14.11.16l13.72,2.69s.02,0,.03,0h0Z"/>
          <path class="cls-13" d="m91.21,50.07l26.58,4.48-10.34,4.28v10.86l-26.68-6.24c-.23-.05-.39-.25-.39-.49v-8.89l10.82-4.01h0Z"/>
          <path class="cls-1" d="m74.04,68.97l13.85-6.85,13.72,2.69v.74l-15.47,8.18c-1.91,1.01-4.11,1.31-6.22.85l-5.42-1.19c-1.15-.25-1.69-1.33-1.51-2.3-.15-.8.18-1.69,1.06-2.13h0Z"/>
          <path class="cls-13" d="m117.8,54.55v9.82c0,.09-.05.17-.13.21l-10.21,5.11v-10.86l10.34-4.28h0Z"/>
          <path class="cls-2" d="m97.72,67.49c.12-.04.24-.08.35-.14l9.42,2.21c.07.02.12.09.1.16-.01.06-.07.1-.13.1-.01,0-.02,0-.03,0l-9.81-2.3s.07-.02.1-.04h0Z"/>
          <path class="cls-2" d="m80.31,53.97s.07-.04.11-.03l27.06,4.76c.07.01.12.08.11.16-.01.07-.08.12-.16.11l-26.9-4.73v8.73c0,.17.12.32.28.35l3.18.74s0,0,0,0c-.1.08-.23.12-.35.16-.02,0-.03.01-.05.02l-2.83-.66c-.29-.07-.49-.32-.49-.62v-8.89s.02-.08.05-.1h0Z"/>
          <path class="cls-2" d="m81.87,74.92c1.5,0,2.99-.36,4.34-1.08l15.47-8.18s.07-.07.07-.12v-.74c0-.07-.06-.14-.13-.14s-.14.06-.14.14v.66l-15.39,8.14c-1.88.99-4.06,1.29-6.13.84l-5.42-1.19c-.93-.2-1.35-.94-1.43-1.56v-1.22c0-.07-.06-.14-.14-.14s-.14.06-.14.14v1.23s0,.01,0,.02c.11.9.75,1.6,1.64,1.8l5.42,1.19c.65.14,1.32.21,1.98.21h0Z"/>
          <path class="cls-2" d="m101.21,64.87l-13.3-2.6-13.81,6.83c-.86.42-1.08,1.24-1.01,1.86.08.62.49,1.36,1.43,1.57l5.42,1.19c2.08.45,4.25.16,6.13-.84l15.13-8h0Zm-19.34,9.32c-.66,0-1.32-.07-1.98-.21l-5.42-1.19c-.88-.19-1.53-.9-1.64-1.8-.11-.9.34-1.74,1.15-2.14l13.85-6.85s.06-.02.09-.01l13.72,2.69c.06.01.1.06.11.11s-.02.11-.07.14l-15.47,8.18c-1.34.71-2.83,1.08-4.34,1.08h0Z"/>
          <path class="cls-2" d="m117.66,54.75l-10.07,4.17v10.55l10.01-5.01s.06-.05.06-.09v-9.62h0Zm-10.2,15.07s-.05,0-.07-.02c-.04-.02-.06-.07-.06-.11v-10.86c0-.05.03-.1.08-.12l10.34-4.28s.09-.01.13.01c.04.03.06.07.06.11v9.82c0,.14-.08.27-.21.33l-10.21,5.11s-.04.01-.06.01h0Z"/>
          <path class="cls-2" d="m80.4,54.21s.03,0,.05,0l10.78-4,19.67,3.32c.07.01.14-.04.16-.11.01-.07-.04-.14-.11-.16l-19.7-3.32s-.05,0-.07,0l-10.82,4.01c-.07.03-.11.1-.08.17.02.05.07.09.13.09h0Z"/>
          <path class="cls-2" d="m88.04,53.39c-.64.15-1.01.34-1.01.55,0,.53,2.53.95,5.66.95s5.66-.43,5.66-.95c0-.22-.44-.42-1.18-.58l-9.12.04h0Z"/>
          <path class="cls-17" d="m88.12,38.73c-.22.09-.42.22-.62.35-.21.14-.42.28-.62.41-.21.14-.41.27-.59.44-.19.18-.34.39-.49.6-.42.59-.83,1.2-1.09,1.87-.12.3-.21.63-.42.88-.21.25-.56.42-.86.29-.02.29.11.58.33.76.23.18.54.24.82.16-.12,0-.19.18-.13.28.06.11.2.15.32.16.32.03.65-.14.82-.41.08.21.23.4.42.53-.11-.33.05-.69.25-.98.67-1,1.76-1.65,2.47-2.62.37-.49.62-1.06.88-1.62.07-.15.38-.61.34-.76-.04-.16-.39-.29-.53-.35-.42-.17-.88-.17-1.3,0h0Z"/>
          <path class="cls-17" d="m87.41,43.52c.17.06.36.11.52.03.14-.06.22-.2.29-.33.33-.59.66-1.18.99-1.77.03-.05.06-.11.11-.15,0,.05,0,.1,0,.15,0,.41.08.82.23,1.21.08.21.19.4.33.57.13.17.28.32.43.47,0,0,0,.01,0,.02-.26.36-.41.81-.39,1.25-.26.04-.55-.11-.66-.35-.29.14-.65.27-.93.09-.09-.05-.15-.13-.22-.2-.15-.15-.34-.26-.49-.41-.15-.15-.26-.37-.21-.58h0Z"/>
          <path class="cls-2" d="m88.73,44.93c.07,0,.14,0,.22-.03.35-.1.63-.42.82-.97.02-.07-.01-.15-.08-.17-.07-.02-.15.01-.17.08-.15.44-.37.71-.62.79-.26.08-.48-.06-.48-.06-.06-.05-.14-.04-.19.02-.05.06-.04.14.02.19.04.04.24.15.49.15h0Z"/>
          <path class="cls-2" d="m88.18,44.5c.2,0,.4-.07.58-.2.06-.05.07-.13.03-.19-.05-.06-.13-.07-.19-.03-.18.14-.39.18-.6.12-.21-.06-.37-.22-.44-.43-.02-.07-.1-.11-.17-.08-.07.02-.11.1-.08.17.1.29.33.51.62.6.09.03.18.04.27.04h0Z"/>
          <path class="cls-2" d="m89.95,45.05s.01,0,.02,0c.07-.01.12-.08.11-.16-.15-.92.48-1.48,1.28-2.19.76-.68,1.63-1.45,1.98-2.72.02-.07-.02-.15-.09-.17-.07-.02-.15.02-.17.09-.33,1.2-1.16,1.94-1.9,2.59-.8.71-1.55,1.37-1.37,2.44.01.07.07.11.13.11h0Z"/>
          <path class="cls-2" d="m87.71,43.68s.07,0,.1,0c.52-.09.88-.83.98-1.06l.07-.18c.31-.74.66-1.57,1.53-2.53.81-.88,2.5-1.58,3.01-1.25.24.16.37.36.37.36.04.06.12.08.19.04.06-.04.08-.12.04-.19,0-.01-.16-.25-.45-.45-.69-.44-2.5.37-3.35,1.29-.9,1-1.28,1.89-1.58,2.61l-.07.18c-.16.38-.47.85-.77.9-.14.02-.29-.04-.44-.21-.05-.06-.14-.06-.19,0-.06.05-.06.14,0,.19.18.2.38.3.58.3h0Z"/>
          <path class="cls-14" d="m82.96,51.78c0-.29.02-.65.03-.95,0-.32.08-.64.15-.96.1-.48.22-.98.53-1.36.37-.45.97-.66,1.54-.78.33-.07,1.25-.37,1.56-.44.11-.06.25-.09.38-.12,1.07-.24,2.13-.49,3.18-.82.07-.02.16-.04.21.02.24-.14.52-.2.8-.21,1.03-.03,2.04.52,3.06.43l-.4.05c.55.15,2.34.37,2.53.47.66-.04,1.69.8,2.21,1.13-.04.32-.32.55-.59.73-.19.13-.4.25-.62.31.02.07.04.13.06.2.07.24.12.5.23.72-.46.53-.95,1.05-1.33,1.65-.02.04-.04.07-.07.11-.08.91-.18,1.92-.26,2.83-.5.18-1.05.17-1.57.14-.26-.01-.51-.03-.77-.04-.25,0-.5,0-.75.01-.59.03-1.18.07-1.78.07-.29,0-.58-.02-.88-.05-.3-.03-.6-.09-.9-.14-.49-.08-.99-.15-1.48-.28.01-1.02.02-1.8.02-1.8-.08-.73-.17-1.54-.13-2.32-.79.28-2.5.29-2.5.29.05.07-.03.22-.05.3-.21,1.02-.32,2.02-.53,3.04-.02.11-.1.2-.07.31,0,.02.02.04.03.06-.23.18-.02.45-.99.11-.28-.1-.59-.06-.86-.18.14-.86,0-1.58,0-2.55h0Z"/>
          <path class="cls-18" d="m91.13,43.85c-.71-.12-1.12-1.53-.03-1.7.65.37,1.3-.18,1.69-.52.32.14,1.28.09,1.57-.21.57.29,1.38.01,1.49-.74.13-.33.28-.24.38.2.14.63.52,1.01.52,1.01-.1.35-.12.92-.16,1.5-.04.5-.09,1.01-.22,1.4-.23.71-1.32,2.19-2.18,1.74-.06.23.11.84.42,1.61.59,1.48-1.69.99-2.39.39-.52-.75-2.27-2.49-1.64-2.25.64.23.52-.91.53-1.46,0-.03.01-.2.02-.4.01-.27.02-.57,0-.57h0Z"/>
          <path class="cls-17" d="m89.87,43.23c-.14-.17-.25-.37-.33-.57-.15-.39-.23-.79-.23-1.21,0-.05,0-.1,0-.15,0-.16.02-.32.04-.47.02-.2.05-.41.09-.6.08-.34.21-.66.38-.96.12-.22.25-.44.42-.62,0,0,.84-.85,2.07-1.03,1.21-.19,2.82.3,2.82.3,0,0,.33.15.52.16.29.06.57.14.91.51.49.53.86,1.75.84,2.28-.03,1.2-.35,1.58-.35,1.58,0,0-.04.49-.16.69-.08.15-.22.23-.29.26.04-.58.06-1.15.16-1.5,0,0-.38-.37-.52-1.01-.1-.45-.25-.54-.38-.2-.11.75-.92,1.02-1.49.74-.29.29-1.25.35-1.57.21-.39.34-1.03.9-1.69.52-1.09.17-.68,1.58.03,1.7.03,0,.02.31,0,.57l-.22-.09s-.15-.07-.34-.29c-.09-.09-.18-.21-.27-.31,0,0,0-.02,0-.03,0,0,0-.01,0-.02-.14-.16-.3-.31-.43-.47h0Z"/>
          <path class="cls-2" d="m94.58,46.71c.16,0,.3-.02.43-.08.35-.17.7-.57.84-.73.5-.6.73-1.23.77-1.62.04-.27.05-.53.06-.78,0-.15.01-.3.02-.45.03-.27.06-.51.1-.78l.02-.14s.02-.09.02-.14c0-.04.01-.08.02-.12.02-.07-.03-.14-.1-.16-.07-.01-.14.03-.16.1-.01.05-.02.09-.02.14,0,.04-.01.08-.02.11,0,0,0,.01,0,.02l-.02.14c-.04.26-.08.52-.1.79-.01.16-.02.31-.02.46,0,.24-.02.49-.06.75-.04.34-.25.93-.72,1.48-.26.32-.54.56-.75.66-.43.19-1.32-.13-1.93-.54-.49-.31-.76-.64-1-1.02-.04-.06-.12-.08-.19-.04-.06.04-.08.12-.04.19.26.42.55.76,1.08,1.1.52.34,1.22.64,1.77.64h0Z"/>
          <path class="cls-2" d="m91.35,44.03c.06,0,.11-.04.13-.1.02-.07-.02-.15-.09-.17-.44-.12-.69-.35-.79-.72-.06-.22,0-.47.16-.61.15-.14.37-.16.63-.07.07.03.15,0,.17-.08.03-.07,0-.15-.08-.17-.47-.18-.77,0-.9.12-.23.21-.33.56-.24.88.12.47.44.77.98.91.01,0,.02,0,.04,0h0Z"/>
          <path class="cls-2" d="m91.21,43.24s.04,0,.06-.01c.07-.03.1-.11.07-.18,0-.02-.08-.18-.24-.29-.06-.04-.15-.03-.19.04-.04.06-.03.15.04.19.1.07.15.17.15.17.02.05.07.08.12.08h0Z"/>
          <path class="cls-3" d="m94.11,46.57s-.35-.12-.95-.43c-.57-.28-1.23-1.07-1.23-1.07,0,0,.59,1.25,1.2,1.66.58.4.97.28.97.28v-.44h0Z"/>
          <path class="cls-2" d="m94.31,48.01s.08-.02.1-.05c.05-.06.04-.14-.02-.19-.23-.19-.16-.74-.11-1.11v-.05c.02-.07-.04-.14-.11-.15-.07,0-.14.04-.15.12v.05c-.06.45-.14,1.06.2,1.35.03.02.06.03.09.03h0Z"/>
          <path class="cls-2" d="m95.27,44.43s.07-.01.1-.04c.36-.37.23-.55.06-.72-.07-.07-.13-.13-.15-.22-.04-.23.09-.62.15-.75.03-.07,0-.15-.07-.18-.07-.03-.15,0-.18.07,0,.02-.22.54-.16.9.03.18.14.29.22.37.11.11.13.13-.07.34-.05.05-.05.14,0,.19.03.03.06.04.09.04h0Z"/>
          <path class="cls-2" d="m94.59,41.53s.09-.02.11-.06c.04-.06.02-.15-.04-.19-.44-.27-.96-.04-.98-.03-.07.03-.1.11-.07.18.03.07.11.1.18.07,0,0,.41-.18.72.01.02.01.05.02.07.02h0Z"/>
          <path class="cls-2" d="m96.68,41.65s.07-.01.1-.04c.05-.05.05-.14,0-.19-.01-.01-.29-.26-.86-.09-.07.02-.11.1-.09.17.02.07.1.11.17.09.41-.12.59.03.6.04.03.02.06.03.09.03h0Z"/>
          <path class="cls-3" d="m94.23,42.82c.02-.19-.09-.36-.24-.38-.15-.02-.29.12-.32.33-.02.19.09.36.24.38.17,0,.29-.12.32-.33h0Z"/>
          <path class="cls-3" d="m96.26,42.93c.02-.19-.09-.36-.24-.38-.15-.02-.29.12-.32.33-.02.19.09.36.24.38.15.02.29-.14.32-.33h0Z"/>
          <path class="cls-2" d="m91.93,43.15s.03,0,.05,0c.07-.03.1-.11.08-.17-.21-.53-.02-.66.34-.91.31-.22.7-.49.91-1.12.02-.07-.01-.15-.09-.17-.07-.02-.15.01-.17.09-.18.54-.51.78-.81.98-.37.26-.72.51-.44,1.23.02.05.07.09.13.09h0Z"/>
          <path class="cls-2" d="m91.09,44.49s.1-.03.12-.07c.03-.07,0-.15-.06-.18-.17-.09-.74-.53-1.12-1.09-.51-.73-.72-1.55-.61-2.36.24-1.69,1.48-2.92,3.09-3.06,1.65-.14,2.58.35,2.59.35.07.04.15.01.18-.05.04-.07.01-.15-.05-.18-.04-.02-1-.53-2.74-.38-1.73.15-3.07,1.47-3.33,3.29-.12.88.1,1.77.65,2.55.4.59,1,1.07,1.23,1.18.02,0,.04.01.06.01h0Z"/>
          <path class="cls-2" d="m94.95,41.65c.35,0,.64-.17.84-.49.33-.54.31-1.41.07-1.8-.04-.06-.12-.08-.19-.05-.06.04-.08.12-.05.19.17.28.21,1.04-.08,1.52-.15.26-.37.38-.65.36-.08,0-.14.05-.14.13,0,.07.05.14.13.14.02,0,.04,0,.07,0h0Z"/>
          <path class="cls-2" d="m93.46,41.81c.34,0,.67-.11.95-.32.42-.3.69-.77.73-1.28,0-.07-.05-.14-.12-.15-.07,0-.14.05-.15.12-.04.43-.27.83-.62,1.08-.33.24-.71.32-1.09.23-.07-.02-.15.03-.16.1-.02.07.03.15.1.16.12.03.24.04.35.04h0Z"/>
          <path class="cls-2" d="m96.92,43.26s.09-.02.11-.06c.18-.26.19-.63.04-1.02-.09-.22-.22-.38-.34-.53-.21-.27-.41-.52-.45-1.08,0-.07-.07-.13-.15-.12-.07,0-.13.07-.12.15.05.64.3.95.51,1.22.11.15.22.28.3.46.06.14.17.51,0,.77-.04.06-.03.15.04.19.02.02.05.02.08.02h0Z"/>
          <path class="cls-2" d="m97.23,42.17s.08-.02.11-.06c.39-.55.23-2.03-.33-3.05-.38-.7-.89-1.06-1.43-1.04-.07,0-.13.07-.13.14,0,.07.07.13.14.13.57-.03.98.55,1.17.9.51.93.68,2.3.35,2.76-.04.06-.03.15.03.19.02.02.05.03.08.03h0Z"/>
          <path class="cls-2" d="m84.76,45.08c.07,0,.14,0,.22-.03.35-.1.63-.42.82-.97.02-.07-.01-.15-.08-.17-.07-.02-.15.01-.17.08-.15.44-.37.71-.62.79-.26.08-.48-.06-.48-.06-.06-.05-.14-.04-.19.02-.05.06-.04.14.02.19.04.04.24.15.49.15h0Z"/>
          <path class="cls-2" d="m84.22,44.65c.2,0,.4-.07.58-.2.06-.05.07-.13.03-.19-.05-.06-.13-.07-.19-.03-.18.14-.39.18-.6.12-.21-.06-.37-.22-.44-.43-.02-.07-.1-.11-.17-.08-.07.02-.11.1-.08.17.1.29.33.51.62.6.09.03.18.04.27.04h0Z"/>
          <path class="cls-2" d="m85.99,45.2s.01,0,.02,0c.07-.01.12-.08.11-.16-.15-.91.51-1.47,1.34-2.18.8-.68,1.71-1.45,2.06-2.74.02-.07-.02-.15-.09-.17-.07-.02-.15.02-.17.09-.33,1.2-1.2,1.95-1.97,2.6-.83.7-1.61,1.37-1.43,2.43.01.07.07.11.13.11h0Z"/>
          <path class="cls-2" d="m83.74,43.83s.07,0,.1,0c.52-.09.88-.83.98-1.06l.07-.18c.31-.74.66-1.57,1.53-2.54.81-.88,2.5-1.58,3.01-1.25.24.16.37.36.37.36.04.06.12.08.19.04.06-.04.08-.12.04-.19,0-.01-.16-.25-.45-.45-.69-.44-2.5.37-3.35,1.29-.9,1-1.28,1.89-1.58,2.61l-.07.17c-.16.38-.47.85-.77.9-.15.02-.29-.04-.44-.21-.05-.06-.14-.06-.19,0-.06.05-.06.14,0,.19.18.2.38.3.58.3h0Z"/>
          <path class="cls-2" d="m88.08,54.62c.07,0,.13-.06.14-.13,0-.37-.04-1.24-.09-2.08-.04-.78-.08-1.59-.08-1.92,0-.07-.06-.14-.13-.14-.07,0-.14.06-.14.13,0,.35.04,1.12.08,1.94.04.84.09,1.7.09,2.06,0,.07.06.14.13.14h0Z"/>
          <path class="cls-2" d="m100.89,49.01c.06,0,.11-.04.13-.1.02-.07-.02-.15-.09-.17-.02,0-2.02-.63-2.53-.88-.12-.06-.26-.14-.41-.23-.49-.28-1.09-.64-1.82-.74-.13-.02-1.86-.31-1.88-.31-.07-.01-.14.04-.16.11-.01.07.04.14.11.16.07.01,1.75.29,1.89.31.68.1,1.26.43,1.72.71.15.09.3.18.43.24.54.26,2.49.87,2.57.9.01,0,.03,0,.04,0h0Z"/>
          <path class="cls-2" d="m93.98,49.2c.35,0,.59-.11.71-.34.34-.61-.39-1.79-.47-1.92-.04-.06-.12-.08-.19-.04-.06.04-.08.12-.04.19.2.32.68,1.25.46,1.65-.07.13-.23.2-.47.2-2.19,0-3.22-2.56-3.23-2.59-.03-.07-.11-.1-.18-.08-.07.03-.1.11-.08.18.04.11,1.11,2.76,3.48,2.76h0Z"/>
          <path class="cls-2" d="m90.94,46.71c.06,0,.12-.04.13-.1.15-.58.17-2.38.17-2.45,0-.07-.06-.14-.13-.14-.08,0-.14.06-.14.13,0,.02-.02,1.84-.16,2.39-.02.07.03.15.1.16.01,0,.02,0,.03,0h0Z"/>
          <path class="cls-2" d="m92.42,55.03s.09,0,.13,0h.13c2,0,5.79-.23,5.79-1.09,0-.3-.41-.52-1.29-.72l-.06.26c1.06.23,1.07.45,1.07.45,0,.08-.28.33-1.54.54-1.06.18-2.47.28-3.98.28h-.14c-.17,0-.33,0-.48,0-.74-.03-2.22-.13-2.93-.21-1.39-.14-1.97-.47-1.97-.61,0,0,.01-.2.91-.41l-.06-.26c-.76.18-1.12.4-1.12.68,0,.6,1.69.82,2.21.88.72.07,2.2.18,2.95.21.12,0,.24,0,.37,0h0Z"/>
          <path class="cls-2" d="m99.91,54.98c0,.53,2.53.95,5.66.95s5.66-.43,5.66-.95-2.53-.95-5.66-.95-5.66.43-5.66.95h0Z"/>
          <path class="cls-15" d="m98.36,48.36c.47-.01,2.27-.8,2.76-.91,1.19-.27,2.39-.49,3.6-.64.22-.03.44-.05.66-.04.14,0,.28.03.41.06,1.48.26,2.9.65,4.33,1.13.45.15.91.31,1.36.46.08.03.16.06.24.1.08.06.15.14.2.23.4.61.49,1.41.23,2.09-.16.42-.49.82-.93.92-.15.03-.3.03-.45.03,0,.74,0,1.63.03,2.22.02.28-.01.78-.07,1.39,0,0-.01,0-.02,0-.55.24-1.16.32-1.76.38-.3.03-.59.05-.89.08-.31.03-.62.07-.94.1-.68.06-1.37.09-2.06.07-.68-.02-1.36-.08-2.04-.2-.61-.11-1.23-.23-1.85-.23-.02-.2.05-.45.1-.6.28-1.03.11-2.6.08-2.89-.22.05-.44.12-.61.11-.3,0-.59.08-.89.08s-.63-.11-.76-.39c-.02-.04-.03-.09-.01-.13.02-.06.09-.08.15-.09.23-.06.45-.11.68-.17-.05-.62-.11-1.24-.33-1.82s-.64-1.11-1.22-1.34h0Z"/>
          <path class="cls-18" d="m94.53,57.45c.32-1.35.38-2.76.17-4.14-.05-.3-.11-.61-.11-.91,0-.34.04-.68.1-1.01.08-.51.17-1.04.47-1.45.36-.5.97-.75,1.56-.92.39-.11,1.55-.57,1.7-.58.16-.02.29.11.41.22.53.48.89,1.16.95,1.87.03.34.15,1.01.15,1.01-.67.41-2.51.74-2.59.84-.05.07-.07.17-.08.26-.16,1.08-.37,1.91-.53,2.99-.02.12-.09.21-.06.33.03.08.24.26.28.34.51.85.86,1.2,1.4,1.61.05.04.1.08.11.13.02.1-.1.18-.21.19-.21.03-.35.06-.62-.1-.27-.16-.59-.19-.89-.29-.2.67-.28,1.39-.23,2.09.02.24.05.48-.03.71-.08.22-.31.42-.54.36.02.12.04.24,0,.35-.04.11-.17.2-.28.15-.04-.02-.07-.05-.1-.09.02.05.03.1,0,.12-.04.03-.09.04-.14.02-.05-.02-.09-.05-.12-.09-.03-.03-.05-.07-.08-.11-.03-.05-.05-.11-.07-.17-.07-.21-.14-.42-.22-.63-.11-.15-.23-.31-.34-.46-.07-.1-.14-.2-.17-.31-.06-.24.06-.48.07-.72.01-.24-.08-.47-.1-.7-.03-.31.05-.62.13-.92h0Z"/>
          <path class="cls-7" d="m109.37,49.5c0,.13-.04.28-.14.37-.17.15-.43.1-.64.02-.54-.19-1.06-.44-1.55-.73-.43-.26-.84-.56-1.16-.96-.31-.39-.52-.88-.51-1.39.66-.22,1.42-.14,2.02.2.49.28.88.72,1.33,1.06.43.33.69.86.65,1.42h0Z"/>
          <path class="cls-18" d="m112.03,50.99c.11-.21.19-.43.21-.67.03-.26-.02-.52-.09-.77-.09-.37-.22-.75-.43-1.08.53.19,1.04.42,1.26.65.57.58,2.12,4.94,2.12,4.94l-2.36-.5s-.19-.37-.47-.86c-.29-.49-.42-1.06-.42-1.06l-.09-.19c.09-.15.18-.31.26-.46h0Z"/>
          <path class="cls-2" d="m97.24,52.67s.03,0,.05,0c.78-.31,2.43-.94,2.45-.94.07-.03.1-.1.08-.17-.03-.07-.1-.1-.17-.08-.02,0-1.67.64-2.45.95-.07.03-.1.11-.08.18.02.05.07.09.13.09h0Z"/>
          <path class="cls-2" d="m110.74,55.41c.07,0,.13-.05.13-.12.06-.62.08-1.05.06-1.3-.07-1.14,0-3.48,0-3.5,0-.07-.06-.14-.13-.14-.07,0-.14.06-.14.13,0,.02-.07,2.37,0,3.52.01.23,0,.65-.06,1.26,0,.07.05.14.12.15,0,0,0,0,.01,0h0Z"/>
          <path class="cls-2" d="m101.16,55.61c.05,0,.1-.03.12-.08.34-.69.2-3.35.2-3.47,0-.07-.07-.13-.14-.13-.07,0-.13.07-.13.14.04.75.08,2.81-.17,3.33-.03.07,0,.15.06.18.02,0,.04.01.06.01h0Z"/>
          <path class="cls-2" d="m96.67,56.1c.07,0,.13-.05.13-.12,0,0,.04-.36.18-.84.14-.51.38-3.52.39-3.65,0-.07-.05-.14-.12-.15-.07,0-.14.05-.15.12-.08,1.08-.27,3.21-.38,3.6-.14.5-.19.87-.19.88,0,.07.04.14.12.15,0,0,.01,0,.02,0h0Z"/>
          <path class="cls-2" d="m110.8,51.97s.01,0,.02,0c0,0,.59-.1,1.06-.18.52-.1.87-.57.89-.59.04-.06.03-.14-.03-.19-.06-.04-.14-.03-.19.03,0,0-.31.4-.72.48-.46.09-1.05.18-1.05.18-.07.01-.12.08-.11.15.01.07.07.11.13.11h0Z"/>
          <path class="cls-5" d="m110.97,39.75c-.79-.44-.78-.35-1.9-.53-.43-.06-.96-.11-1.55-.03-.62.08-1.26.29-1.53.53-.71.63-.97,1.75-.97,1.75,0,0-.48.77-.24,1.87.24,1.1,1.18,2.53,1.18,2.53l5.89-2.45s.98-.27.88-1.15c-.05-.51-.28-.91-.57-1.29-.49-.71-.41-.77-1.2-1.23h0Z"/>
          <path class="cls-7" d="m111.56,45.1c-.02.43-.05.83-.27,1.38-.18.43-.66,1.08-1.19,1.5-.53.42-1.13.15-1.13.15,0,0-.32,1.12.02,1.41.11.1.24.2.38.29-.09.05-.18.1-.27.15-.16.08-.33.09-.5.06-.36-.07-.72-.2-1.04-.38-.31-.17-.6-.38-.82-.65-.21-.25-.37-.53-.56-.79-.14-.19-.29-.38-.47-.53.27-1.13.33-2.48.33-2.48,0,0-.72-.28-.75-1.06-.04-.66.72-.63.72-.63,0,0,.44.13.79.09.28-.02.68-.42.85-.73.12-.2.3-.23.3-.23l.9-.1s.34.12.66.15c.31.03.63-.04.63-.04,0,0,.31.19.68.21.26,0,.57-.12.74-.22.26-.17.31.2.33.22.11.25-.03.62-.03.62,0,0-.28,1.28-.3,1.61h0Z"/>
          <path class="cls-2" d="m109.44,48.36c.13,0,.25-.02.36-.06.36-.15.75-.54.9-.7.54-.58.81-1.21.88-1.6.06-.27.08-.53.11-.79.01-.15.03-.3.05-.45.04-.27.09-.52.15-.79l.03-.14s0,0,0-.01c0,0,0-.03.02-.07.06-.2.18-.63.09-.99-.02-.07-.09-.12-.16-.1-.07.02-.12.09-.1.16.07.29-.04.69-.09.85-.02.05-.02.08-.03.11l-.03.14c-.06.27-.11.52-.15.8-.02.16-.04.32-.05.47-.02.25-.05.5-.1.76-.06.34-.31.93-.81,1.47-.29.31-.59.54-.8.63-.45.17-1.34-.21-1.94-.66-.49-.35-.74-.69-.96-1.1-.04-.07-.12-.09-.18-.05-.07.04-.09.12-.05.18.25.44.52.81,1.04,1.19.53.4,1.27.75,1.84.75h0Z"/>
          <path class="cls-2" d="m106.22,45.44c.06,0,.11-.04.13-.09.02-.07-.01-.15-.09-.17-.44-.15-.69-.4-.76-.78-.05-.25.03-.49.18-.61.13-.11.31-.12.51-.04.07.03.15,0,.18-.07.03-.07,0-.15-.07-.18-.29-.12-.57-.1-.78.07-.24.19-.35.53-.28.88.1.49.4.81.94.99.01,0,.03,0,.04,0h0Z"/>
          <path class="cls-2" d="m106.11,44.63s.03,0,.05,0c.07-.03.1-.1.08-.17,0-.02-.07-.18-.23-.3-.06-.05-.14-.03-.19.02-.05.06-.03.14.02.19.1.07.14.18.14.19.02.05.07.09.13.09h0Z"/>
          <path class="cls-3" d="m108.88,48.2s-.35-.14-.94-.49c-.56-.32-1.19-1.16-1.19-1.16,0,0,.53,1.3,1.13,1.76.57.44.98.34.98.34l.03-.45h0Z"/>
          <path class="cls-2" d="m105.57,47.21s.09-.02.11-.06c.37-.55.46-1.53.46-1.57,0-.07-.05-.14-.12-.15-.08,0-.14.05-.15.12,0,0-.08.95-.41,1.44-.04.06-.03.15.04.19.02.02.05.02.08.02h0Z"/>
          <path class="cls-2" d="m109.01,49.67s.07-.01.1-.04c.05-.05.05-.14,0-.19-.22-.21-.12-.77-.05-1.14v-.05c.02-.07-.03-.14-.1-.16-.07-.01-.14.04-.16.11v.05c-.09.45-.21,1.07.12,1.38.03.02.06.04.09.04h0Z"/>
          <path class="cls-2" d="m110.16,45.93s.07-.01.09-.04c.38-.35.27-.54.11-.72-.06-.07-.12-.14-.14-.24-.03-.24.12-.59.18-.7.03-.07,0-.15-.06-.18-.07-.03-.15,0-.18.06-.01.02-.25.49-.21.86.02.19.13.3.2.39.11.12.13.14-.09.34-.05.05-.06.14,0,.19.03.03.06.04.1.04h0Z"/>
          <path class="cls-2" d="m109.65,43.08s.08-.02.11-.06c.04-.06.03-.15-.03-.19-.43-.3-.97-.09-.99-.08-.07.03-.1.11-.08.18.03.07.11.1.18.08,0,0,.43-.16.74.05.02.02.05.02.08.02h0Z"/>
          <path class="cls-2" d="m111.78,43.41s.07-.01.09-.04c.05-.05.05-.14,0-.19-.01-.01-.28-.28-.87-.14-.07.02-.12.09-.1.16.02.07.09.12.16.1.42-.1.6.06.61.07.03.03.06.04.1.04h0Z"/>
          <path class="cls-3" d="m109.2,44.38c.04-.19-.07-.37-.22-.4-.15-.03-.31.11-.34.31-.04.19.07.37.22.4.17.02.33-.12.34-.31h0Z"/>
          <path class="cls-3" d="m111.27,44.6c.04-.19-.07-.37-.22-.4s-.31.11-.34.31c-.04.19.07.37.22.4.16.02.31-.13.34-.31h0Z"/>
          <path class="cls-6" d="m109.72,46.3c-.38-.05-.76-.2-.76-.2,0,0,.02.84.58.96.63.13.94-.76.94-.76,0,0-.39.05-.77,0h0Z"/>
          <path class="cls-2" d="m110.27,46.45c-.15,0-.36,0-.57-.02-.22-.03-.43-.09-.59-.14.04.22.15.57.45.64.34.07.58-.25.7-.48h0Zm-.6.76c-.05,0-.1,0-.16-.02-.66-.15-.69-1.05-.69-1.09,0-.04.02-.09.06-.11.04-.03.08-.03.13-.02,0,0,.38.14.74.19.35.05.73,0,.73,0,.05,0,.09.01.12.05.03.04.04.09.02.13-.01.04-.31.86-.94.86h0Z"/>
          <path class="cls-2" d="m106.66,43.8s.02,0,.03,0c.86-.2.99-.81.99-.84.01-.07-.03-.14-.11-.16-.07-.01-.14.03-.16.11,0,.02-.11.46-.79.62-.07.02-.12.09-.1.16.01.06.07.1.13.1h0Z"/>
          <path class="cls-2" d="m108.15,42.79c.35,0,.97-.08,1.2-.57.03-.07,0-.15-.07-.18-.07-.03-.15,0-.18.07-.24.52-1.17.4-1.18.4-.07,0-.14.04-.15.12,0,.07.04.14.12.15.01,0,.11.01.26.01h0Z"/>
          <path class="cls-2" d="m109.72,42.8c.67,0,1.18-.41,1.34-.85.03-.07,0-.15-.08-.17-.07-.03-.15,0-.17.08-.11.3-.52.72-1.19.67-.08,0-.14.05-.14.12s.05.14.12.14c.04,0,.08,0,.12,0h0Z"/>
          <path class="cls-2" d="m111.23,42.98s.04,0,.06-.02c.36-.2.55-.53.53-.95,0-.07-.07-.13-.14-.13-.07,0-.13.07-.13.14.01.32-.12.55-.39.7-.07.04-.09.12-.05.18.02.04.07.07.12.07h0Z"/>
          <path class="cls-2" d="m105.95,45.92s.03,0,.04,0c.07-.02.11-.1.09-.17-.06-.22-.22-.47-.39-.75-.5-.8-1.18-1.9-.53-3.51.03-.07,0-.15-.07-.18-.07-.03-.15,0-.18.07-.71,1.74.05,2.95.55,3.76.17.27.31.5.36.68.02.06.07.1.13.1h0Z"/>
          <path class="cls-2" d="m105.17,41.23c.07,0,.13-.05.13-.12.09-.94.84-1.53,2.21-1.77.21-.04.41-.05.61-.07.34-.03.64-.05.85-.18.06-.04.08-.12.05-.19-.04-.06-.12-.08-.19-.05-.16.09-.42.12-.73.14-.19.01-.42.03-.64.07-1.51.26-2.33.94-2.44,2.01,0,.07.05.14.12.15,0,0,0,0,.01,0h0Z"/>
          <path class="cls-2" d="m112.08,41.06s.03,0,.05,0c.07-.03.1-.1.08-.17-.25-.64-1.27-1.67-2.96-1.69-.08,0-.14.06-.14.13,0,.07.06.14.13.14,1.48.02,2.47.89,2.71,1.51.02.05.07.09.13.09h0Z"/>
          <path class="cls-2" d="m112.18,43.42s.04,0,.06-.01c.34-.16.55-.41.63-.72.17-.7-.41-1.5-.43-1.54-.04-.06-.13-.07-.19-.03-.06.04-.07.13-.03.19,0,0,.53.73.39,1.31-.06.24-.22.41-.48.54-.07.03-.1.11-.06.18.02.05.07.08.12.08h0Z"/>
          <path class="cls-2" d="m111.59,51.79s.07-.01.09-.04c.47-.44.75-1.08.74-1.73,0-.64-.3-1.28-.78-1.71-.06-.05-.14-.04-.19.01-.05.06-.04.14.01.19.43.38.69.94.69,1.51,0,.57-.24,1.14-.65,1.52-.05.05-.06.14,0,.19.03.03.06.04.1.04h0Z"/>
          <path class="cls-2" d="m99.66,52.51c.09,0,.14-.04.17-.07.17-.18.19-.45.18-.68-.02-.51-.09-1.02-.2-1.51-.08-.34-.2-.79-.44-1.18-.25-.41-.61-.69-1-.81-.07-.02-.15.02-.17.09-.02.07.02.15.09.17.33.1.63.35.85.7.22.36.34.77.41,1.1.11.48.17.97.19,1.47,0,.18,0,.36-.09.47-.12-.01-.45-.31-.46-.42,0-.07-.08-.13-.15-.12-.07,0-.13.08-.12.15.03.22.39.56.62.64.04.01.08.02.12.02h0Z"/>
          <path class="cls-2" d="m99.73,52.48s.02,0,.03,0c.92-.18,2.46-.43,2.69-.38.07.02.14-.03.16-.1.02-.07-.03-.14-.1-.16-.35-.08-2.39.3-2.8.38-.07.01-.12.08-.11.16.01.06.07.11.13.11h0Z"/>
          <path class="cls-2" d="m115.11,54.08s.03,0,.05,0c.07-.03.11-.1.08-.17-.06-.17-1.57-4.26-2.15-4.86-.59-.6-2.86-1.16-2.96-1.18-.07-.02-.15.03-.16.1-.02.07.03.15.1.16.02,0,2.29.56,2.83,1.11.45.46,1.66,3.59,2.09,4.76.02.05.07.09.13.09h0Z"/>
          <path class="cls-2" d="m112.75,53.7s.04,0,.06-.01c.07-.03.09-.12.06-.18,0,0-.19-.38-.48-.87-.27-.46-.41-1.02-.41-1.02-.02-.07-.09-.12-.16-.1-.07.02-.12.09-.1.16,0,.02.15.6.44,1.1.28.48.47.85.47.85.02.05.07.07.12.07h0Z"/>
          <path class="cls-2" d="m108.87,50.18h0c.31,0,.47-.14.55-.26.28-.43-.06-1.23-.09-1.32-.03-.07-.11-.1-.18-.07s-.1.11-.07.18c.09.21.29.8.12,1.06-.06.09-.16.14-.32.14h0c-1.07,0-2.13-.78-3.15-2.32l-.04-.07c-.22-.33-.2-.58-.19-.59,0-.07-.04-.14-.12-.15-.07,0-.14.04-.15.11,0,.01-.05.36.24.78l.04.06c1.07,1.62,2.21,2.44,3.37,2.44h0Z"/>
          <path class="cls-2" d="m96.1,61.24c.22,0,.38-.2.45-.38.18-.46.15-.67.11-.96-.02-.13-.04-.28-.05-.49-.01-.41,0-.98.15-1.47.18.03.23.06.59.22.06.03.13.07.2.11.22.13.47.27.74.15.14-.06.26-.19.29-.33.03-.1,0-.19-.05-.27-.05-.07-.11-.1-.17-.13-.27-.13-.45-.31-.67-.52-.05-.04-.09-.09-.14-.13-.12-.12-.22-.32-.32-.51-.14-.29-.28-.56-.51-.61-.07-.02-.14.03-.16.1-.02.07.03.14.1.16.11.02.23.26.33.46.11.21.22.44.38.58.05.04.09.09.14.13.22.22.43.42.74.57.02.01.06.03.07.05,0,0,.01.01,0,.04-.01.05-.08.12-.14.15-.14.06-.28-.01-.5-.13-.07-.04-.15-.08-.22-.12-.45-.2-.46-.21-.77-.26-.07-.01-.13.03-.15.09-.19.55-.21,1.21-.2,1.67,0,.22.03.38.05.52.04.28.06.43-.09.82-.04.11-.13.22-.22.21-.04,0-.05-.04-.05-.23,0-.04,0-.09,0-.13l-.08-.93c-.06-.7-.11-.89-.11-.89-.02-.07-.09-.12-.16-.1-.07.02-.12.09-.1.16,0,0,.04.18.1.85l.08.93s0,.08,0,.12c0,.17.01.46.29.49.01,0,.03,0,.04,0h0Z"/>
          <path class="cls-2" d="m94.83,60.56s.05,0,.07-.02c.06-.04.08-.12.05-.19-.12-.2-.18-.26-.22-.3-.03-.03-.04-.04-.09-.23-.06-.19-.06-.4-.06-.61,0-.98.11-1.97.32-2.93l.06-.25s0-.02,0-.03c0-.05,0-1.3-.13-2.04-.12-.67-.29-2.67.33-3.82.52-.96,5.06-2.32,7.05-2.79.9-.21,3.35-.51,3.38-.51.07,0,.13-.08.12-.15,0-.07-.08-.13-.15-.12-.1.01-2.49.3-3.41.52-.06.02-6.49,1.57-7.23,2.93-.64,1.17-.51,3.12-.36,3.99.12.67.13,1.83.13,1.98l-.05.23c-.21.98-.32,1.98-.33,2.98,0,.23,0,.47.07.69.07.23.09.27.16.33.03.03.08.08.18.25.03.04.07.07.12.07h0Z"/>
          <path class="cls-2" d="m95.9,61.66c.06,0,.12-.02.17-.07.13-.13.14-.41.14-.49,0-.07-.06-.14-.14-.14s-.14.06-.14.14c0,.11-.02.24-.05.29-.04,0-.05-.02-.05-.03-.03-.05-.05-.13-.06-.21-.03-.18-.13-.5-.21-.78-.06-.19-.11-.37-.12-.43-.02-.12-.05-.7-.05-1.06,0-.07-.06-.13-.14-.13-.07,0-.13.06-.13.14,0,.09.02.91.06,1.1.01.08.07.25.13.46.08.26.17.58.21.75.02.09.04.2.09.29.06.1.16.16.29.17,0,0,0,0,0,0h0Z"/>
          <path class="cls-2" d="m95.47,61.66c.07,0,.14-.03.19-.08.12-.13.11-.37.11-.41,0-.07-.07-.13-.14-.13-.07,0-.13.07-.13.14,0,.08-.01.19-.04.21-.04,0-.07-.02-.08-.03-.03-.05-.05-.12-.06-.18-.04-.17-.14-.46-.23-.72-.06-.16-.12-.34-.13-.39-.02-.11-.05-.78-.06-1.17,0-.07-.06-.13-.14-.13-.07,0-.13.06-.13.14,0,.11.03,1.05.06,1.22.02.07.06.21.14.43.08.24.19.53.22.69.02.08.04.19.1.28.04.07.13.15.3.15,0,0,0,0,0,0h0Z"/>
          <path class="cls-10" d="m105.35,60.15l-.14,1.78s.03.09.08.09l14.59,1.03s.09-.03.09-.08l.14-1.42s-.03-.09-.08-.09l-14.59-1.38s-.09.03-.09.08h0Z"/>
          <path class="cls-2" d="m119.97,61.59l-14.49-1.37-.13,1.67,14.49,1.02.13-1.32h0Zm-.08,1.59s-.01,0-.02,0l-14.59-1.03c-.06,0-.11-.03-.15-.08-.04-.04-.06-.1-.05-.16l.14-1.78c0-.06.03-.11.08-.15.04-.04.1-.06.16-.05l14.59,1.38c.12,0,.21.11.2.24l-.14,1.42c0,.06-.03.11-.08.15-.04.03-.09.05-.14.05h0Z"/>
          <path class="cls-12" d="m111.88,61.77c0,.91.69,1.65,1.54,1.65s1.54-.74,1.54-1.65-.69-1.65-1.54-1.65-1.54.74-1.54,1.65h0Z"/>
          <path class="cls-2" d="m113.42,60.26c-.77,0-1.4.68-1.4,1.51s.63,1.51,1.4,1.51,1.4-.68,1.4-1.51-.63-1.51-1.4-1.51h0Zm0,3.3c-.92,0-1.67-.8-1.67-1.78s.75-1.78,1.67-1.78,1.67.8,1.67,1.78-.75,1.78-1.67,1.78h0Z"/>
          <path class="cls-2" d="m105.57,56.07c2,0,5.79-.23,5.79-1.09,0-.15-.1-.28-.31-.39-.05-.03-.1-.05-.16-.08-.07-.03-.15,0-.18.07-.03.07,0,.15.07.18.05.02.09.04.13.06.13.08.17.13.17.16,0,.08-.28.33-1.54.54-1.06.18-2.47.28-3.98.28s-2.92-.1-3.98-.28c-1.24-.21-1.53-.45-1.54-.54.03-.06.32-.26,1.28-.49.07-.02.12-.09.1-.16-.02-.07-.09-.12-.16-.1-1.49.35-1.49.65-1.49.74,0,.86,3.79,1.09,5.79,1.09h0Z"/>
          <path class="cls-2" d="m117.8,54.68c.06,0,.12-.05.13-.11.01-.07-.04-.14-.11-.16l-6.88-1.16c-.07-.01-.14.04-.16.11-.01.07.04.14.11.16l6.88,1.16s.02,0,.02,0h0Z"/>
          <polygon class="cls-2" points="78.03 65.63 70.15 63.86 78.03 65.63 78.03 65.63"/>
          <path class="cls-2" d="m78.03,65.76c.06,0,.12-.04.13-.11.02-.07-.03-.15-.1-.16l-7.89-1.77c-.07-.02-.14.03-.16.1-.02.07.03.15.1.16l7.89,1.77s.02,0,.03,0h0Z"/>
          <polygon class="cls-2" points="75.49 65.63 67.61 63.86 75.49 65.63 75.49 65.63"/>
          <path class="cls-2" d="m75.49,65.76c.06,0,.12-.04.13-.11.02-.07-.03-.15-.1-.16l-7.89-1.77c-.07-.02-.15.03-.16.1-.02.07.03.15.1.16l7.89,1.77s.02,0,.03,0h0Z"/>
          <path class="cls-6" d="m94.91,44.77c-.38-.05-.76-.2-.76-.2,0,0,.02.84.58.96.63.13.94-.76.94-.76,0,0-.39.05-.76,0h0Z"/>
          <path class="cls-2" d="m95.45,44.92c-.15,0-.36,0-.57-.02-.22-.03-.43-.09-.59-.14.04.22.15.57.45.64.34.07.58-.25.7-.48h0Zm-.6.76c-.05,0-.1,0-.16-.02-.66-.15-.69-1.05-.69-1.09,0-.04.02-.09.06-.11.04-.03.08-.03.13-.02,0,0,.38.14.74.19.35.05.73,0,.73,0,.05,0,.09.01.12.05.03.04.04.09.02.13-.01.04-.31.86-.94.86h0Z"/>
          <path class="cls-18" d="m82.55,57.18c.02-.22-.05-.45-.06-.67-.01-.3.09-.59.17-.87.12-.4.22-.81.29-1.22.27.11.56.17.85.18.36,0,.79.05,1.07-.12.06.08.15.15.16.2.18.8.75,1.19,1.24,1.61.04.04.09.08.09.13.01.1-.11.16-.21.17-.2.02-.34.04-.58-.13-.24-.17-.55-.22-.83-.33-.23.63-.34,1.3-.33,1.98,0,.23.02.46-.07.67-.09.21-.28.55-.49.49.01.11-.02.06-.06.16-.05.1-.17.18-.27.13-.04-.02-.07-.05-.09-.09.02.05.02.1,0,.12-.04.03-.09.03-.14.02-.04-.02-.08-.05-.11-.09-.03-.03-.05-.07-.07-.11-.02-.05-.04-.11-.06-.16-.06-.2-.11-.4-.17-.61-.1-.15-.2-.3-.3-.46-.06-.1-.13-.19-.15-.31-.05-.23.08-.45.11-.68h0Z"/>
          <path class="cls-2" d="m84.87,54.61s.05,0,.07-.02c.06-.04.08-.11.05-.18,0-.02-.05-.18.06-.67.11-.48.55-3.32.57-3.44.01-.07-.04-.14-.11-.15-.07-.01-.14.04-.15.11,0,.03-.46,2.95-.56,3.42-.14.62-.07.81-.03.87.03.04.07.06.11.06h0Z"/>
          <path class="cls-2" d="m83.89,59.4c.2,0,.36-.18.44-.35.2-.43.18-.63.16-.91-.01-.13-.02-.27-.02-.47.01-.39.06-.93.22-1.38.16.04.22.07.54.24.06.03.12.07.18.11.2.13.44.28.7.18.14-.05.26-.17.3-.3.03-.09.02-.18-.03-.26-.04-.07-.1-.1-.16-.13-.24-.14-.41-.32-.61-.53-.04-.04-.08-.09-.12-.13-.13-.14-.22-.37-.3-.57-.09-.22-.15-.38-.27-.44-.07-.03-.15,0-.18.06-.03.07,0,.15.06.18.04.03.1.18.14.29.08.21.18.47.35.65.04.04.08.09.12.13.2.22.39.43.67.58.02.01.05.03.07.05,0,0,0,.01,0,.03-.02.05-.08.1-.14.13-.13.05-.26-.03-.46-.16-.07-.04-.13-.09-.2-.12-.41-.22-.42-.22-.72-.29-.07-.02-.13.02-.16.08-.21.51-.27,1.15-.28,1.59,0,.21,0,.37.02.49.02.26.03.41-.13.77-.05.1-.14.2-.21.19-.03,0-.04-.04-.03-.21,0-.04,0-.08,0-.13l-.02-.89c-.02-.66-.05-.84-.05-.86-.01-.07-.08-.12-.16-.11-.07.01-.12.08-.11.16,0,0,.03.18.05.81l.02.89s0,.07,0,.11c0,.16-.01.44.26.49.02,0,.04,0,.06,0h0Z"/>
          <path class="cls-2" d="m82.71,58.68s.04,0,.06-.02c.07-.03.09-.12.06-.18-.1-.19-.15-.25-.19-.3-.02-.03-.03-.04-.08-.22-.05-.19-.04-.38-.03-.59.06-.93.22-1.87.47-2.77l.07-.23s0-.02,0-.03c0-.05.07-1.24-.01-1.95-.08-.65-.13-2.55.53-3.61.55-.89,4.94-1.92,6.86-2.26.07-.01.12-.08.11-.16s-.08-.12-.16-.11c-.06.01-6.27,1.13-7.05,2.39-.67,1.08-.66,2.95-.57,3.79.08.65.02,1.75.01,1.89l-.06.22c-.26.92-.42,1.87-.48,2.82-.01.22-.02.44.03.67.05.22.07.26.13.33.03.03.07.08.15.24.02.05.07.07.12.07h0Z"/>
          <path class="cls-2" d="m83.67,59.79c.06,0,.11-.02.15-.06.13-.12.16-.38.16-.46,0-.07-.05-.14-.13-.14-.08,0-.14.05-.14.13,0,.1-.04.22-.06.26-.03,0-.04-.02-.04-.03-.03-.05-.04-.13-.04-.2-.02-.18-.1-.48-.16-.75-.04-.18-.08-.35-.09-.42-.01-.12,0-.67,0-1.01,0-.07-.06-.14-.13-.14-.07,0-.14.06-.14.13,0,.09-.03.87,0,1.05,0,.08.05.24.1.44.06.25.13.56.15.72.01.09.02.19.07.29.05.1.15.17.28.18,0,0,.01,0,.02,0h0Z"/>
          <path class="cls-2" d="m83.27,59.77c.06,0,.12-.02.17-.07.13-.12.13-.35.13-.39,0-.07-.06-.13-.14-.13-.07,0-.14.06-.14.14,0,.07-.02.16-.04.19-.03,0-.06-.01-.07-.03-.03-.04-.04-.11-.05-.18-.03-.17-.11-.45-.18-.7-.05-.16-.09-.33-.1-.38-.02-.11,0-.74.01-1.12,0-.07-.06-.14-.13-.14-.07,0-.14.06-.14.13,0,.1-.03,1,0,1.17.01.07.05.2.11.41.07.23.15.52.17.67.01.08.03.18.08.27.04.07.12.15.29.16,0,0,.02,0,.02,0h0Z"/>
          <path class="cls-2" d="m84.3,54.78c.2,0,.51-.04.67-.21.05-.05.05-.14,0-.19-.05-.05-.14-.05-.19,0-.09.1-.35.14-.54.13-.05,0-.1,0-.15,0-.37-.02-.72-.04-.91-.23-.05-.05-.14-.05-.19,0-.05.05-.05.14,0,.19.26.25.66.28,1.08.3.05,0,.1,0,.15,0,.03,0,.05,0,.09,0h0Z"/>
          <path class="cls-2" d="m85.43,50.82s0,0,0,0c.08,0,1.92-.13,2.29-.21.13-.03.27-.05.41-.08.61-.11,1.29-.23,1.85-.59.06-.04.08-.12.04-.19-.04-.06-.12-.08-.19-.04-.52.33-1.17.45-1.76.55-.14.03-.28.05-.42.08-.35.07-2.24.2-2.26.2-.07,0-.13.07-.13.14,0,.07.06.13.13.13h0Z"/>
          <path class="cls-2" d="m90.39,46.51s.01,0,.02,0l.56-.06c.07,0,.13-.08.12-.15,0-.07-.07-.13-.15-.12l-.56.06c-.07,0-.13.08-.12.15,0,.07.07.12.13.12h0Z"/>
        </g>
      </g>
    </g>
  </g>
</svg>