<?xml version="1.0" encoding="UTF-8"?>
<svg id="_レイヤー_2" data-name="レイヤー 2" xmlns="http://www.w3.org/2000/svg" viewBox="0 0 95.98 128.34">
  <defs>
    <style>
      .cls-1, .cls-2 {
        fill: #262626;
      }

      .cls-3, .cls-4 {
        fill: #fff;
      }

      .cls-5 {
        fill: #ffddc0;
      }

      .cls-5, .cls-6, .cls-4, .cls-7, .cls-8, .cls-9, .cls-10, .cls-11, .cls-12, .cls-13, .cls-2, .cls-14, .cls-15 {
        fill-rule: evenodd;
      }

      .cls-6 {
        fill: #fff400;
      }

      .cls-16 {
        fill: none;
        stroke: #262626;
        stroke-linecap: round;
        stroke-linejoin: round;
      }

      .cls-7 {
        fill: #79b6e1;
      }

      .cls-8 {
        fill: #ffaf35;
      }

      .cls-9 {
        fill: #e85944;
      }

      .cls-10 {
        fill: #a9826f;
      }

      .cls-11 {
        fill: #999bdf;
      }

      .cls-12 {
        fill: #daa56e;
      }

      .cls-13 {
        fill: #dbd9ff;
      }

      .cls-14 {
        fill: #ffbd64;
      }

      .cls-15 {
        fill: #ff7f49;
      }
    </style>
  </defs>
  <g id="illustration">
    <g>
      <g>
        <g>
          <path class="cls-3" d="m85.21,14.62c-.55-5.99-4.58-11.36-10.67-13.33-4.79-1.55-9.79-.64-13.63,2.03-3.82-2.68-8.81-3.61-13.6-2.09-6.08,1.93-10.13,7.27-10.73,13.23-6.14,2.14-10.5,8.04-10.38,14.9,0,0,0,.01,0,.01.08,6.63,4.34,12.28,10.3,14.4.32,3.42,1.78,6.63,4.11,9.12-.5,3.56-2.88,7.31-4.34,7.69,3.6.05,6.61-2.01,8.85-4.36.66.32,1.35.61,2.07.84,4.79,1.54,9.78.62,13.62-2.05,2.57,1.8,5.67,2.81,8.89,2.81,1.56,0,3.15-.24,4.72-.74,6.08-1.94,10.13-7.29,10.71-13.27,6.11-2.15,10.45-8.03,10.34-14.86-.1-6.64-4.37-12.23-10.26-14.35Z"/>
          <path class="cls-16" d="m85.21,14.62c-.55-5.99-4.58-11.36-10.67-13.33-4.79-1.55-9.79-.64-13.63,2.03-3.82-2.68-8.81-3.61-13.6-2.09-6.08,1.93-10.13,7.27-10.73,13.23-6.14,2.14-10.5,8.04-10.38,14.9,0,0,0,.01,0,.01.08,6.63,4.34,12.28,10.3,14.4.32,3.42,1.78,6.63,4.11,9.12-.5,3.56-2.88,7.31-4.34,7.69,3.6.05,6.61-2.01,8.85-4.36.66.32,1.35.61,2.07.84,4.79,1.54,9.78.62,13.62-2.05,2.57,1.8,5.67,2.81,8.89,2.81,1.56,0,3.15-.24,4.72-.74,6.08-1.94,10.13-7.29,10.71-13.27,6.11-2.15,10.45-8.03,10.34-14.86-.1-6.64-4.37-12.23-10.26-14.35Z"/>
        </g>
        <g>
          <path class="cls-1" d="m42.4,32.8c-.16-.23-.39-.5-.66-.79-.4.66-.9,1.17-1.53,1.56-.14-.27-.41-.66-.61-.86.58-.31,1.04-.78,1.39-1.44-.15-.14-.31-.28-.46-.41l-.07.28-.85-.5c.18-.72.38-1.69.57-2.71h-.6v-.97h.77c.11-.62.2-1.22.28-1.78l1.02.09c-.09.53-.19,1.11-.3,1.69h.75l.18-.02.61.06c-.07,1.67-.29,2.98-.66,4.02.35.33.66.66.86.94l-.68.86Zm-1.24-4.89c-.13.63-.26,1.26-.39,1.85.21.16.41.34.63.52.23-.68.37-1.47.45-2.37h-.69Zm6.76,2.85c-.37.34-.83.68-1.22.94.35.41.79.74,1.33.95-.23.21-.54.63-.69.92-.74-.35-1.28-.88-1.69-1.58l.1.9c-.97.23-2.01.45-2.82.62l-.27-1c.19-.04.41-.07.64-.11v-6.18h1.49v-1.06h1.06v1.06h1.53v3.92h-1.51c.1.31.22.6.37.87.33-.27.69-.58.93-.83l.76.58Zm-3.61-3.62v.6h2.03v-.6h-2.03Zm2.03,2.08v-.61h-2.03v.61h2.03Zm-2.03,2.99c.43-.08.88-.16,1.32-.26-.3-.52-.52-1.13-.69-1.81h-.63v2.07Z"/>
          <path class="cls-1" d="m51.8,28.09c.74-.43,1.52-.82,1.94-1.06.34-.2.6-.35.84-.55l.62,1.04c-.27.16-.56.32-.89.49-.56.28-1.69.8-2.51,1.33-.75.5-1.25,1.01-1.25,1.64s.62.99,1.87.99c.93,0,2.14-.14,2.94-.33l-.02,1.3c-.77.13-1.72.23-2.89.23-1.79,0-3.15-.5-3.15-2.04,0-.99.63-1.74,1.5-2.38-.42-.77-.85-1.73-1.25-2.68l1.12-.46c.34.94.77,1.8,1.13,2.49Z"/>
          <path class="cls-1" d="m64.39,28.69v1.16h-8.28v-1.16h8.28Z"/>
          <path class="cls-1" d="m66.2,30.56c-.08.86-.28,1.75-.53,2.32-.18-.13-.57-.3-.78-.38.26-.53.39-1.33.46-2.09l.86.14Zm5.37-1.94c-.21.23-.42.45-.66.66h2.04v4.29h-1.04v-.37h-1.83v.36h-.97v-3c-.16.09-.32.18-.5.26-.1-.18-.32-.44-.52-.64l-.27.13c-.03-.14-.07-.31-.13-.5l-.44.04v3.73h-.92v-3.66l-1.25.1-.11-.93.65-.04c.14-.16.27-.34.41-.53-.25-.4-.67-.89-1.03-1.26l.52-.72c.06.06.13.13.21.19.25-.5.5-1.1.65-1.56l.93.32c-.31.62-.68,1.33-1.02,1.84.11.12.21.24.29.35.31-.5.6-1.02.81-1.46l.87.4c-.5.76-1.11,1.65-1.67,2.37l.77-.05c-.09-.2-.18-.4-.28-.58l.76-.31c.31.53.61,1.21.76,1.7.59-.32,1.13-.7,1.62-1.13h-1.94v-.91h1.52v-.77h-1.23v-.89h1.23v-.89h.99v.89h1.07v.53c.23-.4.41-.82.57-1.25l.94.3c-.29.76-.64,1.45-1.08,2.08h1.15v.91h-1.86Zm-3.49,1.76c.22.5.41,1.15.46,1.58l-.79.26c-.05-.44-.22-1.11-.41-1.62l.75-.23Zm3.83-.23h-1.83v.64h1.83v-.64Zm0,2.16v-.68h-1.83v.68h1.83Zm-1.12-4.6h.3c.2-.24.39-.5.56-.77h-.86v.77Z"/>
          <path class="cls-1" d="m76.13,26.68c-.12.6-.43,2.4-.43,3.3,0,.17,0,.41.04.59.14-.31.28-.62.41-.92l.56.44c-.25.75-.55,1.73-.65,2.21-.03.13-.04.33-.04.42,0,.1,0,.24.02.37l-1.04.07c-.18-.62-.35-1.72-.35-2.94,0-1.35.28-2.87.38-3.57.03-.25.08-.59.09-.88l1.26.11c-.07.19-.19.64-.23.8Zm2.22,4.4c0,.4.34.64,1.26.64.8,0,1.47-.07,2.26-.23l.02,1.22c-.59.11-1.31.17-2.32.17-1.55,0-2.3-.55-2.3-1.48,0-.35.05-.71.15-1.17l1.04.1c-.07.3-.11.51-.11.76Zm3.26-4.61v1.16c-1.11.1-2.74.11-3.87,0v-1.15c1.11.15,2.9.11,3.87,0Z"/>
        </g>
        <g>
          <path class="cls-1" d="m49.17,16.8v.54h.61v.66h-.61v1.25c0,.36-.06.55-.3.67-.25.11-.58.12-1.03.12-.02-.2-.12-.51-.22-.71.3.01.62.01.72.01.1,0,.13-.02.13-.1v-1.24h-1.25c.26.26.58.63.72.89l-.57.37c-.12-.26-.43-.65-.68-.94l.52-.32h-.73v-.32c-.17.05-.35.11-.53.17v2.2h-.65v-2c-.32.1-.63.19-.9.26l-.17-.68c.29-.07.67-.16,1.07-.27v-1.1h-.4c-.06.29-.14.55-.22.76-.11-.09-.37-.25-.5-.32.19-.48.29-1.22.34-1.93l.59.1c-.02.24-.05.48-.09.72h.28v-1.12h.65v1.12h.5v.56h1.32v-.51h-1.06v-.65h1.06v-.53h.71v.53h1.1v.65h-1.1v.51h1.36v.66h-.66Zm-.7,0h-2.13v-.55h-.4v.92l.55-.16.05.32h1.92v-.54Z"/>
          <path class="cls-1" d="m55.83,18.68h-1.73c.59.29,1.24.64,1.61.88l-.66.48c-.37-.27-1.02-.67-1.61-.97l.43-.4h-1.78l.56.37c-.47.37-1.23.78-1.85,1.01-.14-.15-.38-.38-.56-.52.59-.2,1.3-.56,1.69-.86h-1.69v-.67h.59v-2.86h1.24v-.71h.67v.71h.57v-.71h.68v.71h1.29v2.86h.54v.67Zm-4.3-2.87v.74h.55v-.74h-.55Zm0,2.2h.55v-.8h-.55v.8Zm1.22-2.2v.74h.57v-.74h-.57Zm.57,1.4h-.57v.8h.57v-.8Zm.68-1.4v.74h.58v-.74h-.58Zm0,2.2h.58v-.8h-.58v.8Z"/>
          <path class="cls-1" d="m58.75,15.32c.57-.03,1.17-.08,1.7-.17v.7c-.58.08-1.31.13-1.96.15-.1.22-.22.44-.34.61.16-.07.48-.12.68-.12.37,0,.67.16.8.46.31-.14.56-.25.81-.35.23-.1.44-.2.67-.31l.3.7c-.19.05-.51.17-.71.25-.27.11-.61.24-.98.41,0,.34.02.78.02,1.06h-.72c.02-.18.02-.47.03-.73-.45.26-.69.49-.69.79,0,.33.28.42.87.42.51,0,1.17-.07,1.7-.17l-.02.77c-.4.05-1.13.1-1.7.1-.94,0-1.64-.23-1.64-1s.72-1.25,1.4-1.6c-.09-.15-.25-.2-.42-.2-.34,0-.71.19-.94.41-.18.18-.35.4-.56.66l-.64-.48c.63-.58,1.05-1.12,1.33-1.66h-.08c-.25,0-.68-.01-1.01-.04v-.7c.31.05.75.07,1.06.07h.29c.07-.24.11-.47.12-.69l.79.07c-.03.15-.07.35-.15.6Z"/>
          <path class="cls-1" d="m65.97,17.86c-.05.37-.15.73-.33,1.04.55.26,1.24.43,2.05.5-.15.16-.34.45-.42.64-.81-.1-1.49-.31-2.05-.63-.29.26-.7.49-1.23.64-.09-.16-.3-.44-.44-.59.48-.11.83-.26,1.09-.46-.29-.25-.53-.55-.74-.89l.58-.18c.14.23.34.44.56.62.12-.22.19-.44.22-.68h-1.34v-1.75h1.38v-.42h-1.5v-.55c-.11.23-.23.46-.36.69v4.24h-.68v-3.22c-.16.2-.32.4-.49.56-.07-.17-.26-.56-.38-.73.57-.54,1.13-1.39,1.45-2.24l.66.22c-.05.13-.11.25-.16.38h1.46v-.55h.71v.55h1.59v.65h-1.59v.42h1.43v1.75h-1.46Zm-.67-.58v-.59h-.74v.59h.74Zm.71-.59v.59h.74v-.59h-.74Z"/>
          <path class="cls-1" d="m68.67,16.83c.41-.13,1.43-.47,2.15-.47.95,0,1.58.56,1.58,1.47,0,1.09-.95,1.82-2.86,1.94l-.32-.74c1.37-.04,2.38-.4,2.38-1.22,0-.45-.34-.76-.86-.76-.7,0-1.89.5-2.4.71l-.31-.78c.18-.04.46-.11.64-.16Z"/>
          <path class="cls-1" d="m73.15,15.38c.5-.04,1.49-.13,2.58-.23.62-.05,1.28-.09,1.7-.1v.77c-.32,0-.83,0-1.15.08-.73.19-1.27.97-1.27,1.69,0,.98.92,1.34,1.94,1.4l-.28.82c-1.25-.08-2.44-.76-2.44-2.06,0-.86.49-1.55.89-1.85-.56.06-1.79.19-2.48.34l-.08-.82c.24,0,.47-.02.59-.03Z"/>
        </g>
        <g>
          <path class="cls-1" d="m43.41,42.78c.22.15.71.55.85.65l-.41.51c-.1-.12-.26-.3-.44-.47v1.28h-.69v-1.21c-.23.34-.5.64-.76.85-.11-.16-.31-.39-.46-.5.39-.26.8-.71,1.08-1.16h-.91v-.6h1.06v-.46h-1.07v-.59h.55c-.02-.2-.1-.46-.18-.66l.37-.08h-.67v-.58h1.01v-.55h.69v.55h1v.58h-.62l.35.07c-.11.26-.2.5-.29.68h.61v.59h-1.04v.46h.99v.6h-.99v.05Zm-.83-2.44c.1.2.18.48.2.66l-.3.08h1.17l-.4-.08c.08-.18.17-.46.22-.66h-.91Zm4.59,1.46h-.57v2.93h-.69v-2.93h-.61c0,.89-.13,2.16-.92,2.98-.09-.16-.35-.4-.51-.49.69-.73.76-1.75.76-2.58v-2.07l.41.11c.57-.14,1.16-.33,1.53-.53l.57.52c-.53.23-1.21.42-1.84.55v.84h1.87v.66Z"/>
          <path class="cls-1" d="m53.09,43.9v.7h-5.39v-.7h2.31v-1.21h-1.62v-.69h1.62v-1.06h-1.24c-.17.33-.36.64-.56.87-.14-.11-.46-.33-.64-.43.47-.5.86-1.33,1.06-2.15l.74.16c-.08.29-.18.57-.28.85h.92v-1.08h.75v1.08h2.02v.7h-2.02v1.06h1.79v.69h-1.79v1.21h2.33Z"/>
          <path class="cls-1" d="m54.73,42.06c-.25-.17-.76-.46-1.12-.65l.38-.53c.33.16.86.42,1.13.58l-.4.59Zm-1.03,2.16c.32-.45.78-1.19,1.14-1.89l.52.48c-.32.63-.7,1.31-1.06,1.89l-.6-.49Zm1.29-3.8c-.23-.18-.74-.46-1.09-.66l.4-.52c.34.17.86.43,1.12.6l-.43.58Zm2.66,1.17v.76h1.22v2.39h-.68v-.22h-1.8v.25h-.65v-2.42h1.22v-.76h-1.6v-.68h1.6v-.7c-.39.06-.79.1-1.16.14-.03-.17-.13-.45-.21-.61,1.02-.1,2.15-.3,2.81-.56l.55.56c-.38.14-.83.26-1.3.35v.82h1.52v.68h-1.52Zm.54,1.4h-1.8v.88h1.8v-.88Z"/>
          <path class="cls-1" d="m62.65,44.53l-.45-.71c.23-.02.4-.06.56-.1.77-.18,1.37-.73,1.37-1.61,0-.83-.45-1.45-1.26-1.58-.08.51-.19,1.06-.36,1.63-.36,1.21-.88,1.95-1.53,1.95s-1.22-.73-1.22-1.75c0-1.39,1.2-2.57,2.75-2.57s2.42,1.03,2.42,2.34-.77,2.16-2.28,2.39Zm-1.65-1.34c.25,0,.49-.38.73-1.19.14-.44.25-.95.32-1.45-.99.2-1.52,1.08-1.52,1.74,0,.61.24.9.47.9Z"/>
          <path class="cls-1" d="m71.03,43.74h-2.4v1.03h-.73v-1.03h-2.32v-.64h2.32v-.37h-.42v-1.79c-.08.08-.16.16-.24.22-.12-.13-.37-.35-.53-.48l-.31.43c-.2-.15-.61-.36-.92-.49l.37-.48c.3.11.72.29.94.44l-.02.02c.47-.37.9-.91,1.15-1.46l.69.2c-.07.15-.15.3-.24.44h.58c.1-.21.2-.43.26-.62l.78.13c-.1.17-.2.34-.31.49h1.11v.56h-1.23v.28h1.02v.49h-1.02v.28h1.03v.49h-1.03v.28h1.37v.56h-2.3v.37h2.4v.64Zm-3.8-2.16c-.34.43-.72.87-1.1,1.28l-.5-.53c.33-.28.8-.76,1.21-1.22l.38.47Zm-.4-1.41c-.19-.17-.61-.39-.91-.52l.37-.49c.31.11.72.31.94.46l-.39.54Zm2.05.18h-.7v.28h.7v-.28Zm0,.77h-.7v.28h.7v-.28Zm-.7,1.04h.7v-.28h-.7v.28Z"/>
          <path class="cls-1" d="m77.1,41.43h-3.22v.71c0,.78-.09,1.93-.6,2.65-.1-.12-.37-.35-.5-.43v.41h-.68v-3c-.12.18-.25.35-.37.49-.05-.17-.23-.58-.34-.77.48-.56.92-1.43,1.19-2.31l.66.2c-.13.38-.28.78-.46,1.16v3.8c.42-.64.46-1.55.46-2.21v-1.31h3.87v.61Zm-3.05-1.79v-.44h.66v.44h.89v-.44h.67v.44h.8v.61h-.8v.4h-.67v-.4h-.89v.4h-.66v-.4h-.85v-.61h.85Zm2.91,4.52c0,.27-.04.41-.2.51-.16.09-.38.1-.69.1-.01-.16-.08-.38-.16-.54.17,0,.32,0,.38,0,.05,0,.07-.01.07-.07v-.31h-.57v.9h-.56v-.9h-.54v.91h-.59v-3.03h2.87v2.43Zm-2.28-1.92v.34h.54v-.34h-.54Zm.54,1.13v-.33h-.54v.33h.54Zm.56-1.13v.34h.57v-.34h-.57Zm.57,1.13v-.33h-.57v.33h.57Z"/>
          <path class="cls-1" d="m78.27,43.77c0-.32.23-.53.53-.53s.53.22.53.53-.23.53-.53.53-.53-.22-.53-.53Zm.06-3.12l-.03-.89h1l-.03.89-.16,2.05h-.61l-.16-2.05Z"/>
        </g>
      </g>
      <g>
        <g>
          <path class="cls-4" d="m9.52,64.86h3.83s1.73,2.77,2.73,7.45c1,4.69,1.26,11.3,1.26,11.3,0,0-1.05.42-2.33.47-1.28.05-2.79-.28-2.79-.28,0,0-.01-4.35-.69-9.09-.67-4.74-2.01-9.86-2.01-9.86Z"/>
          <path class="cls-15" d="m5.83,64.13s1.15.54,2.04,1.51c.94,1.04,1.64,2.56,2.5,3.83,1.76,2.61,3.35,3.6,3.35,3.6l.29.39.22.2.64-.23.83.3h.74s-1.54-5.79-1.54-5.79l1.84-4.18s.18-.15,1.27.83c.34.31.76.96,1.3,1.46.52.48,1.61,1.27,2.26,1.88.18.17.45.52.62.69.19.18.8-.18.98,0,.24.23.81.23,1.44.37,2.34.51,6.49.65,6.49.65l.24,1.85-5.49.73s-2.04.24-3.93-.19c-1.88-.43-3.61-1.52-3.61-1.52l-.05,3.19,4.25-.38s.27.31.38.89c.12.57.09,1.41.09,1.41l-4.33,1.16,1.43,8.4.22,2.95s-1.39,1.26-2.02,1.33c-.39.04-.62-2.47-.89-5.33-.17-1.81-.26-3.6-.39-4.97-.1-1.11-.26-1.98-.26-1.98,0,0-.44.06-1.03.14-.9.12-2.11.25-2.41.1-.58-.3-1.5-.76-1.5-.76,0,0,.49,4.28.36,7.51-.07,1.79-.24,3.69-.53,4.66-.23.78-.56.8-.69.84-.92.36-2.88.06-4.29-.44-.91-.32-1.51-.62-1.77-1.24-.2-.48.07-1.44.24-2.34.38-1.96,1.13-4.43,1.33-6.57.03-.32-.18-1.21-.16-1.53.02-.29.28-.58.3-.86.07-1.12-.21-.85-.77-2.29-.6-1.54-1.48-4.79-1.6-6.12-.23-2.57,1.6-4.17,1.6-4.17Z"/>
          <path class="cls-10" d="m11.94,52.76c.44.12,1.06.4,1.42.49,1.45.34,2.02,1.31,2.02,1.31,0,0,.51.74.91,2.5.3,1.31.56,3.27.45,5.47-.09,1.84-1.02,2.29-.79,3.55.18.96,1.35,2.11,1.49,2.79.25,1.26-.5,1.51-.5,1.51,0,0-.08.21-.26.4-.18.19-.45.35-.45.35,0,0,.41-1.39-.09-2.18-.61-.96-2.18-1.43-2.59-2.29-.31-.65-.05-1.92-.05-1.92l-4.03.09s.29.43.66.83c.43.47.98.97,1.35,1.8.42.94-.04,1.94.05,2.68.06.49.72.93.72.93l-.72-.03s-.4-.4-1.03-1.29c-.6-.85-1.42-2.17-2.27-3.27-.84-1.09-2.22-1.73-2.51-2.93-.31-1.26.43-2.06.7-3.54.2-1.1-.13-2.09.13-3.24.25-1.12,1.09-2.42,1.67-3.06,1.16-1.28,2.85-1.19,3.71-.95Z"/>
          <path class="cls-12" d="m61.97,81.03l.13-1.01s.91-.7,1.46-.84c.55-.13.74.3.74.3,0,0,1.04-.31,2.23.54,1.19.85,2.54,2.85,2.54,2.85,0,0,.12.54.11,1.16-.01.71-.15,1.54.08,2.24.43,1.31,1.65,1.83,1.65,1.83l-1.08.07s.71.97.82,1.97c.11,1-.38,2.02-.38,2.02l-.21-.27s-.36.82-.81,1.23c-.45.41-.99.43-.99.43,0,0,.99-.9.69-1.95-.27-.96-1.83-2.02-1.97-2.99-.31-2.04.04-3.23.04-3.23,0,0-.3.31-.78.52-.48.2-1.15.3-1.15.3l-.47.22-2.65-5.38Z"/>
          <path class="cls-5" d="m9.32,60.91s-.66-.17-.88-.66c-.15-.34-.3-1.03.09-1.34.2-.15.67-.05,1.06-.08.29-.02,1.31-.3,1.89-.95.94-1.05,1.53-2.66,1.93-2.53.51.17,1.28.26,1.58.69.28.4.02,1.21,0,1.91-.02.77.06,1.62-.05,2.37-.05.35-.21.62-.32.95-.57,1.71-1.92,1.61-1.92,1.61l.49.76.3,1.07s-.3.84-.97,1.04c-.93.27-2.39-.17-2.95-1.03-.64-.98-.26-3.83-.26-3.83Z"/>
          <path class="cls-5" d="m62.08,81.04c.65-.84.82-.91,1.15-.98.47-.1.96.06.96.06,0,0-.1.7.05,1.36.15.67.56,1.3.56,1.3,0,0-.08.34-.08.65-.01.91,1.44,1.09,1.31,1.65-.19.83-1.36.62-1.36.62l-.02,1.09s-1.65-.52-2.58-1.01c-.92-.49-1.46-.83-1.46-.83,0,0-.06-1.08.14-1.66.1-.28.56-.86.7-1.11.18-.33.42-.87.63-1.14Z"/>
          <path class="cls-5" d="m50.87,76.69s-.62-.35-.58-.57c.06-.33,1.07-.21,1.39,0,.29.19.62.62.62.62,0,0,.42-.05.61.2.26.35.32,1.05.44,1.38.41,1.17,1.68,2.34,1.68,2.34l-.73.46-.44.78-1.99-2.43.41-1.29-.39.07-.14-.2s-.22.26-.38.17-.23-.52-.23-.52c0,0-.23,0-.3-.24-.07-.25.03-.76.03-.76Z"/>
          <path class="cls-5" d="m51.18,80.48l1.42,1.38-.47.5-.56,1.03-.68-.66s.01-.7.09-1.26c.07-.56.2-.99.2-.99Z"/>
          <path class="cls-5" d="m59.13,121.27s.45.06.91.08.95,0,.95,0v1.2s-.51.15-.51.15l-.73.05-.28-.58-.39-.19.04-.71Z"/>
          <path class="cls-5" d="m67.23,121.9l1.78-.08v.97s-.5.29-.5.29c0,0-.14-.45-.43-.59-.29-.14-.73.02-.73.02l-.12-.6Z"/>
          <path class="cls-5" d="m7.27,118l1.52.23.86-.1s-.08,1.35.09,2.75c.18,1.4.62,2.84.62,2.84,0,0-.13,1.17-1.83.67-1.69-.5-1.53-3.86-1.53-3.86l.27-2.53Z"/>
          <path class="cls-5" d="m14.67,117.65l1.4.16,1.13-.1s-.33,1.53.58,2.72,3.08,2.02,3.08,2.02c0,0-2.2.4-3.63-.09-.84-.29-1.52-1.09-2.04-1.58-.36-.34-.71-.47-.71-.47l.19-2.66Z"/>
          <path class="cls-5" d="m22.67,73.56s1.04-.28,2.44-.94c1.11-.52,2.54-1.49,3.3-1.21.39.14,1.62,1.39,1.67,1.72.02.15-.12.2-.33.14-.32-.09-.76-.34-.76-.34l-.34,1.28-.74.67s-.17.58-.41.41c-.32-.23-.13-.98-.29-1.22-.23-.35-.73-.16-.73-.16l-1.08.7-1.36.32-.96.24-.39-1.62Z"/>
          <path class="cls-5" d="m31.15,69.95s.82.14,2.39-.32c.86-.25,1.3-.49,1.89-.56.49-.06,1.2.03,1.2.03,0,0,.53,1.89-.1,1.78-.27-.05-.69-1.03-.69-1.03l-.99.57-1.85.9-1.83-.93-.03-.45Z"/>
          <path class="cls-4" d="m57.36,124.45l2.48-.04,1.33.54s.06.76-.18.91c-.27.16-.98.09-1.56.22-.76.16-1.37.41-1.98.53-.69.13-1.36.12-1.83-.1-.27-.12-.34-.55-.15-.81.46-.63,1.9-1.24,1.9-1.24Z"/>
          <path class="cls-4" d="m66.4,125.77l2.89-1.61s.22.44.12.77c-.19.58-.76,1.24-.79,1.57-.05.51-.18,1.09-.38,1.47-.11.2-2.26.58-2.87-.09-.37-.41.05-.89.47-1.37.26-.3.56-.74.56-.74Z"/>
          <path class="cls-11" d="m5.93,88.95s3.49,1.45,5.32.61c1.01-.46.93-5.71.93-5.71,0,0,1.32.23,2.59.2,1.28-.03,2.55-.48,2.55-.48,0,0,.11,2.02.29,3.69.1.93.13,1.63.39,2.08.18.32,1.5-.35,1.5-.35,0,0,.12,6.68-.36,13.77-.19,2.83-.71,4.4-.98,6.85-.41,3.69-.57,7.72-.57,7.72,0,0-.82.48-1.63.46-.81-.02-1.62-.52-1.62-.52,0,0-.03-1.58-.12-3.43-.09-1.73-.25-3.65-.27-5.85-.02-2.46.28-4.64.26-6.53-.03-2.4-.89-5.73-.89-5.73l-.5,7s-.33,1.5-.68,2.96c-.36,1.46-.74,2.88-.74,2.88l-1.5,9.23s-.71.38-1.46.34c-.74-.04-1.52-.51-1.52-.51,0,0,.06-1.29.06-3.25,0-1.73-.07-3.99.06-6.03.17-2.6.92-4.64.83-6.3-.17-3.47-.96-5.83-1.39-8.18-.46-2.51-.56-4.9-.56-4.9Z"/>
          <path class="cls-4" d="m57.31,89.07s-2.17-1.25-3.88-2.79c-.74-.67-1.7-1.48-1.84-2.12-.13-.59.44-1.74.86-2.21.32-.36.54-.28.54-.28l.8.68s.15-.77.53-1.23c.59-.7,1.12-.52,1.12-.52,0,0,2.66,2.41,5.33,4.25,1.8,1.25,3.78,1.62,4.65,2.62.31.36.34,1.26.35,1.66.05,1.08-.2,2.41-.43,3.61-.21,1.14-.4,2.16-.52,3.1-.13.96.19,2.2.19,2.2,0,0,.25.99-.21,1.29-.73.47-3.07.91-4.54.73-.87-.1-3.05-.31-3.53-1.19-.06-.12-.2-.3-.2-.4-.01-.29.23-.49.15-.96-.13-.75.36-1.46.35-2.19-.04-1.69.07-3.02.15-4.17.08-1.13.14-2.09.14-2.09Z"/>
          <path class="cls-8" d="m67.72,81.31l.65-.97.96-.44-.12.89-.35.88s.51.14,1,.26c.4.1.79.16.7.28-.12.14-.95.49-1.62.58-.51.07-.92-.1-.92-.1l-.29-1.38Z"/>
          <path class="cls-7" d="m56.77,99.14s2.31.91,4.37.94c2.05.03,3.85-.82,3.85-.82,0,0,.53,1.59.94,4.21.31,1.97.42,4.62.86,7.03.4,2.17,1.42,3.74,1.81,5.59.61,2.92.51,5.62.51,5.62,0,0-.54.27-1.15.27-.61,0-1.29-.27-1.29-.27,0,0-.18-1.77-1.48-5.17-.5-1.32-1-1.98-1.64-3.4-.55-1.24-1.04-2.79-1.45-3.8-.33-.82-.64-1.24-.64-1.24,0,0-.24,1.44-.27,3.77-.02,1.41.27,2.83.31,4.56.05,2.29-.14,4.76-.14,4.76,0,0-.8.2-1.45.16-.66-.05-1.17-.35-1.17-.35,0,0-.21-2.05-.62-5.01-.35-2.49-.9-5.7-1.13-8.2-.49-5.47-.21-8.66-.21-8.66Z"/>
          <path class="cls-8" d="m58.63,121.97c.22-.08.55,0,.78.07.12.04.34.7.34.7l1.2-.17.16,2.44-.05.45-1.52.17-1.64.37s-.2-.54-.46-.85c-.26-.3-.58-.37-.58-.37,0,0,.98-.52,1.46-1.33.27-.47-.09-1.34.3-1.48Z"/>
          <path class="cls-8" d="m67.13,122.71s.41-.34.76-.28c.35.06.63.53.63.53l.53-.12.23,1.31-.72,2.69s-.4-.41-.98-.58c-.59-.16-1.38-.16-1.38-.16,0,0,.59-.83.82-1.67.23-.85.11-1.71.11-1.71Z"/>
          <path class="cls-13" d="m6.96,122.24s.5,1.56,1.35,1.97c.43.21,1.01.27,1.42.13.4-.13.65-.45.65-.45l.77.89.27.95s.13.82-1.19.9c-.97.06-1.99.04-2.61-.19-1.47-.55-.73-2.32-.73-2.32l.08-1.88Z"/>
          <path class="cls-13" d="m14.51,120.3s.3.07.75.49c.38.35.89,1.13,1.61,1.37.73.24,1.5.37,2.24.42.74.05,1.74-.12,1.74-.12,0,0,1.08.32,1.57.78.44.42.34.97-.24,1.21-.68.27-2.23.06-3.53-.12-1.06-.15-1.95-.27-1.95-.27,0,0-.82,0-1.51-.05-.53-.03-.96-.01-1.01-.47-.1-1.06.34-3.23.34-3.23Z"/>
          <path class="cls-9" d="m43.62,80.1s-.31-.6-.45-1.22c-.14-.62-.13-1.25-.13-1.25l3.12-1.55s.51,1.02,1.32.97c1.16-.07,1.91-.98,1.91-.98l1.43.76s-.02.38.04.6c.06.22.2.29.2.29l.27.54.34-.21.24.15.42-.13s.05.38-.26,1c-.31.62-.97,1.47-.97,1.47,0,0-.46,4.28.34,7.65.8,3.37,2.85,5.82,2.85,5.82,0,0-.64,2.05-3.21,3.02-.97.37-1.85,0-2.57-.12-.59-.09-1.12.09-1.12.09,0,0,.06.78-.42,1.03-.87.46-2.62.63-3.86.49-.69-.08-1.12-.08-1.41-.59-.63-1.14-.55-5.06.03-8.97.66-4.45,1.88-8.87,1.88-8.87Z"/>
          <path class="cls-14" d="m26.12,74.14l.63-.34.49.28s.08.97.25,1.16c.17.19.43-.42.43-.42l.87-.86.23-1.03s.56.3.85.32c.16,0,.18-.17.11-.32-.18-.4-1.67-1.59-1.67-1.59l1.41-1.22s1.22.58,2.25.34c1.04-.23,1.9-1.28,1.9-1.28l2.04.63s-.05.44.42.99c.35.41.57-.63.57-.63l.98.45s1.27,3.01,2.43,5.92c.49,1.22,1.45,2.66,1.5,3.47.06,1.02-2.86,1.55-2.86,1.55,0,0,.78,2.72,1.2,4.32.4,1.53.48,1.91-.94,2.82-1.5.96-4.59,1.75-7.25,1.57-2.48-.16-4.59-1.27-4.59-1.27l.3-1.42.34-2.67-3.31-3,1.03-3.78.38-4Z"/>
          <path class="cls-4" d="m32.6,73.39l.5.18.63.72.72.27-.46.68-.44.18.17,3.16-.62.13.18-1.57-.26-1.79s-.13.79-.31,1.47c-.18.68-.42,1.23-.42,1.23l-.5-.29s.56-1.25.73-1.92c.17-.67-.04-.76-.04-.76l-.3.46-.37.08-.57-.67s.58-.44.93-.83c.34-.39.44-.73.44-.73Z"/>
          <path class="cls-4" d="m25.05,82.53s.61.54,1.51.71c.9.17,2.08-.04,2.08-.04l.37,1.56h-.56s-.91.13-.91.13l-.66-.42-1.03.28-.49-.04-.72-.75-.47-.17.88-1.26Z"/>
          <path class="cls-4" d="m27.36,89.25s.8.39,1.81.63c1.5.36,3.62.61,5.58.34,1.98-.27,3.66-.93,4.67-1.64.66-.46,1.03-1.11,1.03-1.11,0,0,.26.39.78.77.52.39,1.3.78,1.3.78,0,0-.37.39-.95.68-.27.14-1.28.21-1.62.38-.26.12-.7.89-.96,1.02-.81.39-1.72-.22-2.45-.03-.48.12-.86.71-1.23.98-.35.24-.7.17-.98.12-.64-.1-1.64-.65-2.27-.67-.58-.02-.92.17-1.36.33-.49.19-1.05.35-1.46.31-.68-.07-.97-.85-.97-.85l-.73-.27-1.33-.23,1.15-1.54Z"/>
          <path class="cls-4" d="m38.99,81.64s.83-.16,1.46-.4c.63-.24,1.07-.55,1.07-.55l.97,1.11-.26.09-.45.32.02.41-.62.22-.96-.1-.77.55-.46-1.64Z"/>
          <path class="cls-1" d="m27.6,75.45s-.03,0-.04,0c-.33-.04-.34-.42-.35-.6,0-.03,0-.06,0-.07,0-.05-.01-.11-.02-.18-.04-.43-.1-.61-.37-.61-.35,0-.6.19-.89.4-.2.14-.4.29-.66.4-.33.14-.72.21-1.1.27-.36.06-.69.12-.97.23-.07.03-.16,0-.19-.08-.03-.07,0-.16.08-.19.31-.13.68-.19,1.03-.25.36-.06.73-.12,1.03-.25.23-.1.42-.23.6-.37.3-.22.62-.44,1.05-.45.57-.02.62.54.66.87,0,.06.01.11.02.16,0,.03,0,.06,0,.1,0,.1.01.32.1.33.05-.04.14-.16.18-.69,0-.03,0-.07.01-.12.02-.17.05-.47.03-.67-.03-.26-.61-.5-.89-.57-.08-.02-.12-.1-.1-.18.02-.08.1-.12.18-.1.11.03,1.04.3,1.1.82.02.23,0,.54-.03.73,0,.04,0,.08-.01.11-.04.49-.12.76-.27.88-.06.05-.12.07-.19.07Z"/>
          <path class="cls-1" d="m27.98,74.97c-.06,0-.11-.04-.13-.09-.03-.07.01-.16.09-.18.26-.09.53-.96.47-1.5-.04-.38-.8-.68-1.07-.76-.08-.02-.12-.1-.1-.18.02-.08.1-.12.18-.1.12.04,1.2.37,1.27,1.01.06.58-.22,1.64-.66,1.8-.02,0-.03,0-.05,0Z"/>
          <path class="cls-1" d="m28.3,74.61c-.07,0-.13-.05-.14-.12-.01-.08.04-.15.12-.16.05,0,.13-.08.2-.18.23-.34.41-1.05.3-1.52-.08-.34-.39-.47-.64-.58-.1-.04-.18-.08-.24-.12-.06-.05-.08-.14-.03-.2.05-.06.13-.08.2-.03.04.03.11.06.19.1.28.12.69.31.8.78.13.57-.08,1.35-.34,1.74-.12.18-.25.28-.39.3,0,0-.02,0-.02,0Z"/>
          <path class="cls-1" d="m22.74,73.69c-.08,0-.14-.06-.14-.14,0-.08.06-.14.14-.14.52,0,1.38-.46,2.15-.85.2-.11.4-.21.58-.3l.21-.1c.87-.43,1.85-.92,2.46-.89.57.03,1.14.65,1.52,1.06.07.07.13.14.18.2.31.31.42.6.3.79-.05.07-.2.23-.6.09-.18-.06-.57-.37-.65-.43-.06-.05-.07-.14-.02-.2.05-.06.14-.07.2-.02.18.14.47.35.57.39.18.06.26.04.27.03,0-.02,0-.16-.26-.43-.06-.06-.12-.12-.19-.2-.35-.38-.87-.94-1.32-.96-.53-.03-1.52.47-2.31.86l-.21.1c-.18.09-.38.19-.58.3-.79.41-1.68.88-2.27.88h0Z"/>
          <path class="cls-1" d="m14.11,77.61c-.37,0-.69-.03-.94-.09-1.3-.34-5.06-3.65-7.79-6.53-.05-.06-.05-.15,0-.2.06-.05.15-.05.2,0,2.72,2.86,6.45,6.13,7.66,6.45.8.21,2.73-.02,4.19-.32,4.75-.99,5.35-1.32,5.42-1.4.07-.12-.01-.99-.22-1.64-.12-.4-.22-.45-.22-.45-.08-.01-.56.06-1.02.13-.6.09-1.42.21-2.23.28-1.49.14-3.09.12-3.36.06-.13-.03-.27-.08-.4-.14-.17-.07-.35-.14-.51-.15-.09,0-.18.03-.28.08-.17.07-.37.16-.59.02-.15-.09-.21-.21-.27-.32-.06-.11-.12-.22-.29-.35-.14-.11-.26-.2-.38-.29-.55-.41-.99-.73-2.1-2.13-.55-.7-1.04-1.47-1.52-2.2-.63-.99-1.23-1.92-1.8-2.38-.06-.05-.07-.14-.02-.2.05-.06.14-.07.2-.02.61.49,1.19,1.39,1.87,2.44.47.73.95,1.48,1.5,2.18,1.08,1.37,1.5,1.68,2.04,2.08.12.09.25.18.39.29.21.16.29.31.36.44.06.1.09.16.18.22.08.05.16.03.32-.04.12-.05.26-.11.41-.1.2.01.4.09.59.17.13.05.25.1.36.12.21.05,1.74.07,3.27-.07.8-.07,1.59-.19,2.22-.28.77-.11,1.04-.15,1.15-.12.12.04.23.17.32.41.22.54.44,1.8.27,2.11-.07.12-.23.41-5.61,1.53-.86.18-2.3.41-3.38.41Z"/>
          <path class="cls-1" d="m13.55,75.35s-.02,0-.03,0c-.08-.02-.13-.09-.11-.17v-.03c.08-.35.17-.74.44-1.02.05-.06.14-.06.2,0,.06.05.06.14,0,.2-.21.22-.29.56-.36.89v.03c-.02.07-.08.11-.15.11Z"/>
          <path class="cls-1" d="m31.16,70.58s0,0-.01,0c-.08,0-.14-.08-.13-.16.04-.47-.02-.63-.05-.65-.08-.02-.72-.07-1.39-.11-.61-.04-1.38-.1-2.11-.16-1.65-.14-3.41-.49-3.61-.53-.13-.03-.27-.08-.4-.14-.17-.07-.35-.14-.51-.15-.08,0-.18.03-.28.08-.17.07-.37.16-.59.02-.15-.09-.21-.21-.27-.32-.06-.11-.12-.22-.29-.35-.74-.58-1.94-1.64-2.95-2.71-.72-.77-1.38-1.29-1.95-1.56-.07-.03-.1-.12-.07-.19.03-.07.12-.1.19-.07.6.28,1.29.83,2.03,1.62,1,1.06,2.19,2.12,2.92,2.69.21.16.29.31.36.44.05.1.09.16.18.22.08.05.16.03.32-.04.12-.05.26-.11.41-.1.2.01.4.09.59.17.13.05.25.1.36.12.19.04,1.93.39,3.57.53.73.06,1.49.12,2.1.16.91.06,1.35.09,1.46.13.22.07.31.38.25.95,0,.07-.07.13-.14.13Z"/>
          <path class="cls-1" d="m24.67,72.36c-1.23,0-2.44-.07-3.27-.32-1.56-.48-3.16-1.43-3.17-1.44-.07-.04-.09-.13-.05-.2.04-.07.13-.09.2-.05.02,0,1.59.94,3.11,1.41,1.06.33,2.78.33,4.34.29.08,0,.14.06.15.14,0,.08-.06.14-.14.15-.38,0-.77.02-1.16.02Z"/>
          <path class="cls-1" d="m9.96,89.99c-.55,0-1.1-.08-1.45-.15-1.54-.29-3.72-1.09-3.77-1.98-.04-.79.47-3.2.96-5.53.29-1.38.56-2.68.67-3.4.04-.26-.02-.44-.08-.64-.06-.2-.13-.41-.1-.7.02-.25.1-.4.17-.51.07-.13.13-.22.1-.46-.05-.45-.22-.83-.41-1.25-.12-.26-.24-.53-.33-.82-.1-.33-.21-.68-.33-1.04-.45-1.4-.96-2.99-1.2-4.54-.29-1.87.14-3.25,1.54-4.93.05-.06.14-.07.2-.02.06.05.07.14.02.2-1.36,1.63-1.76,2.9-1.48,4.7.24,1.53.75,3.11,1.19,4.5.12.36.23.71.33,1.04.08.27.2.53.32.79.19.42.38.84.44,1.34.03.32-.06.49-.14.63-.06.11-.12.21-.13.4-.02.23.03.4.09.59.07.22.14.45.09.77-.1.73-.38,2.03-.67,3.42-.46,2.21-.99,4.71-.95,5.46.03.55,1.71,1.37,3.53,1.71,1.52.28,2.61.14,2.84-.37.48-1.07,1.05-5.83.29-12.47,0-.08.05-.15.13-.16.08,0,.15.05.16.13.77,6.7.18,11.52-.31,12.62-.24.53-.97.68-1.7.68Z"/>
          <path class="cls-1" d="m18.31,73.76c-.08,0-.14-.06-.14-.14-.03-.52-.02-1.17,0-2.07v-.51c.01-.52-.12-1.06-.25-1.63-.16-.67-.33-1.36-.26-2.04,0-.08.08-.14.16-.13.08,0,.14.08.13.16-.06.63.1,1.3.25,1.95.14.56.27,1.15.27,1.7v.51c-.02.89-.03,1.54,0,2.05,0,.08-.06.15-.13.15,0,0,0,0,0,0Z"/>
          <path class="cls-1" d="m18.39,89.59c-.39,0-.54-.24-.59-.39-.18-.51-.4-3.35-.62-6.35-.18-2.41-.35-4.69-.49-5.52-.01-.08.04-.15.12-.16.08-.01.15.04.16.12.14.84.31,3.12.5,5.54.21,2.72.44,5.8.61,6.28.02.06.09.25.47.19.69-.12,1.62-.92,1.62-1.28,0-1.54-.18-2.77-.71-5.7-.1-.55-.21-1.1-.32-1.67-.23-1.18-.48-2.4-.66-3.71-.01-.08.04-.15.12-.16.08-.01.15.04.16.12.18,1.3.42,2.52.65,3.69.11.56.22,1.12.32,1.67.54,2.95.72,4.2.72,5.76,0,.58-1.13,1.43-1.86,1.56-.07.01-.14.02-.2.02Z"/>
          <path class="cls-1" d="m16.36,73.84c-.07,0-.13-.05-.14-.11-.44-2.12-.92-3.99-1.48-5.73-.02-.08.02-.16.09-.18.08-.02.16.02.18.09.56,1.75,1.04,3.63,1.49,5.76.02.08-.03.15-.11.17,0,0-.02,0-.03,0Z"/>
          <path class="cls-1" d="m8.66,118.33c-.09,0-.18,0-.26,0-.79-.05-1.59-.33-1.6-.83,0-.29,0-.63.02-1.11.02-.82.06-1.93.03-3.71,0-.2,0-.42-.01-.64-.03-1.71-.07-3.83.23-5.33l.15-.73c.35-1.7.55-2.73.53-4.23-.02-1.34-.41-3.19-.85-5.33-.12-.57-.24-1.15-.36-1.75-.43-2.19-.67-4.05-.72-5.71,0-.08.06-.14.14-.15.08,0,.14.06.15.14.05,1.64.28,3.5.71,5.66.12.6.24,1.18.36,1.75.45,2.16.83,4.02.86,5.39.03,1.53-.18,2.57-.53,4.29l-.15.73c-.29,1.47-.25,3.66-.22,5.27,0,.22,0,.44.01.64.03,1.79,0,2.95-.03,3.73-.01.47-.02.81-.02,1.09,0,.26.61.51,1.33.56.66.05,1.37-.1,1.43-.45.05-.27.1-.68.16-1.2.16-1.25.4-3.14.83-5.42.09-.49.18-.93.25-1.32.35-1.88.53-2.83,1.1-4.71.6-2,.66-3.03.9-7.34.03-.53.06-1.1.1-1.74v-.05c.08-1.36.26-4.55.94-6.2.03-.07.11-.11.19-.08.07.03.11.11.08.19-.67,1.61-.85,4.87-.92,6.1v.05c-.04.63-.07,1.21-.1,1.74-.24,4.34-.29,5.37-.91,7.41-.56,1.87-.74,2.81-1.09,4.68-.07.39-.16.83-.25,1.32-.43,2.27-.67,4.15-.83,5.4-.07.52-.12.93-.16,1.21-.09.52-.79.7-1.46.7Z"/>
          <path class="cls-1" d="m14.47,84.24c-.8,0-1.61-.1-2.29-.33-.07-.03-.12-.11-.09-.18.03-.07.11-.11.18-.09,1.52.51,3.83.33,5.02-.15.07-.03.16,0,.19.08.03.07,0,.16-.08.19-.72.29-1.82.48-2.93.48Z"/>
          <path class="cls-1" d="m14.76,88.17s0,0,0,0c-.08,0-.14-.07-.14-.15.08-1.48.06-2.86.03-3.77,0-.08.06-.14.14-.15.07,0,.14.06.15.14.03.91.04,2.3-.03,3.79,0,.08-.07.14-.14.14Z"/>
          <path class="cls-1" d="m16.05,117.96s-.04,0-.07,0c-.86-.01-1.75-.25-1.79-.75-.03-.37-.04-.89-.06-1.68-.02-.81-.05-1.92-.11-3.41-.02-.45-.05-.96-.08-1.49-.09-1.47-.19-3.13-.09-4.4l.04-.47c.16-2.01.25-3.23.11-4.88-.15-1.76-.81-5.13-.82-5.17-.02-.08.04-.15.11-.17.08-.02.15.04.17.11,0,.03.67,3.42.82,5.2.14,1.68.04,2.97-.11,4.93l-.04.47c-.1,1.25,0,2.9.09,4.36.03.53.06,1.04.08,1.49.06,1.48.09,2.6.11,3.41.02.78.03,1.3.06,1.66.02.23.63.48,1.51.49.85,0,1.48-.21,1.51-.52.04-.37.06-.93.09-1.71.05-1.14.11-2.71.28-4.69.19-2.21.34-3,.54-4.1.07-.36.14-.76.23-1.26.33-1.91.42-3.85.67-9.02l.04-.8c.14-2.83.03-6.44.03-6.47,0-.08.06-.14.14-.15.08,0,.14.06.15.14,0,.04.1,3.65-.03,6.5l-.04.8c-.25,5.19-.34,7.13-.68,9.06-.09.5-.16.9-.23,1.26-.21,1.09-.36,1.88-.54,4.07-.17,1.97-.23,3.53-.27,4.68-.03.78-.05,1.35-.1,1.73-.06.58-.93.78-1.74.78Z"/>
          <path class="cls-1" d="m9.44,126.24c-.93,0-2.13-.18-2.47-.74-.29-.49-.25-.9-.2-1.34.02-.18.04-.36.04-.56,0-.79,0-1.47-.02-2.33,0-.47.05-.93.12-1.47.07-.52.15-1.11.18-1.85,0-.08.07-.14.15-.14.08,0,.14.07.14.15-.03.75-.11,1.34-.18,1.87-.07.52-.13.97-.12,1.42.02.86.02,1.54.02,2.34,0,.22-.02.41-.04.59-.05.42-.08.75.16,1.16.28.47,1.62.67,2.7.58.74-.06,1.13-.24,1.19-.37.15-.38-.03-.63-.37-1.04-.18-.21-.38-.46-.51-.75-.42-.93-.82-3.02-.79-5.57,0-.08.07-.14.14-.14.08,0,.14.07.14.15-.03,2.5.37,4.57.77,5.45.12.26.3.48.47.69.32.38.64.78.42,1.33-.16.39-.96.52-1.43.55-.15.01-.32.02-.5.02Z"/>
          <path class="cls-1" d="m9.44,126.82c-.43,0-.86-.04-1.25-.12-.39-.08-1.08-.26-1.29-.62-.32-.53-.25-1.04-.16-1.69.03-.2.06-.41.08-.64,0-.08.08-.14.16-.13.08,0,.14.08.13.16-.02.24-.05.46-.08.65-.08.62-.15,1.06.12,1.5.11.19.54.37,1.1.48.98.19,2.35.16,2.95-.28.17-.12.12-.36.01-.75-.02-.07-.04-.15-.06-.22-.02-.08.03-.15.11-.17.08-.02.15.03.17.11.02.07.04.14.06.21.1.38.22.8-.12,1.05-.43.32-1.17.45-1.93.45Z"/>
          <path class="cls-1" d="m20.82,124.27s-.08,0-.12,0c-1.19-.01-2.27-.24-3.52-.49h-.03c-.46-.1-.93-.11-1.35-.12-.74-.01-1.38-.03-1.63-.49-.18-.33-.11-.82.02-1.63.13-.83.32-2.09.34-3.9,0-.08.06-.14.14-.14h0c.08,0,.14.07.14.14-.02,1.83-.21,3.1-.34,3.94-.12.75-.19,1.2-.05,1.45.18.32.71.33,1.39.34.43,0,.92.02,1.41.12h.03c1.24.26,2.31.48,3.47.49.89.01,1.52-.1,1.69-.3.03-.04.04-.07.03-.12-.07-.35-.86-.7-1.69-1.06-.33-.14-.66-.29-1-.45-1.19-.58-2.13-1.13-2.58-2.46-.15-.45-.12-1.72-.12-1.77,0-.08.07-.14.14-.14,0,0,0,0,0,0,.08,0,.14.07.14.15,0,.35,0,1.34.11,1.68.41,1.23,1.27,1.72,2.43,2.29.33.16.66.31.99.45.98.43,1.76.77,1.86,1.27.03.13,0,.26-.09.36-.22.27-.82.4-1.79.4Z"/>
          <path class="cls-1" d="m20.8,124.71s-.09,0-.13,0c-.99-.01-1.92-.19-2.91-.38-.21-.04-.42-.08-.64-.12-.45-.08-1-.1-1.48-.11-.86-.02-1.35-.05-1.49-.29-.22-.37-.12-1.1-.11-1.18.01-.08.08-.13.16-.12.08.01.13.08.12.16-.03.2-.07.76.07,1,.07.12.76.14,1.26.15.49.01,1.05.03,1.53.11.22.04.43.08.64.12.98.19,1.9.36,2.86.37,1.02.01,1.62-.11,1.79-.37.07-.11.06-.25-.02-.43-.03-.07,0-.16.07-.19.07-.03.16,0,.19.07.12.27.12.51,0,.71-.22.34-.83.51-1.9.51Z"/>
          <path class="cls-1" d="m12.87,63c-.99,0-2.43-.71-2.97-1.4-.05-.06-.04-.15.02-.2.06-.05.15-.04.2.02.57.73,2.27,1.5,3.11,1.25.67-.21,1.27-1.22,1.51-2.11.12-.43.11-.91.1-1.5,0-.3-.01-.63,0-1.01,0-.27.03-.51.05-.75.02-.27.04-.53.04-.77,0-.19-.04-.36-.08-.52-.02-.08.02-.16.09-.18.08-.02.16.02.18.09.06.18.09.38.1.59.01.26-.01.52-.04.8-.02.23-.04.47-.05.73,0,.37,0,.7,0,1,.01.62.02,1.11-.11,1.58-.26.94-.9,2.07-1.71,2.31-.13.04-.28.06-.44.06Z"/>
          <path class="cls-1" d="m13.5,60.59s-.06,0-.08-.02c-.07-.04-.08-.13-.04-.2l.02-.03c.16-.23.22-.34,0-.53-.49-.45-.1-1.34-.08-1.38.03-.07.12-.1.19-.07.07.03.1.12.07.19-.09.21-.26.79.02,1.06.4.37.18.69.03.9l-.02.03s-.07.06-.12.06Z"/>
          <path class="cls-2" d="m12.4,59.34c.01-.23-.12-.42-.29-.43-.17,0-.32.17-.33.4-.01.23.12.42.29.43.17,0,.32-.17.33-.4Z"/>
          <path class="cls-1" d="m13.88,57.85s-.09-.02-.11-.06c-.05-.06-.04-.15.03-.2.38-.29.74-.4,1.06-.33.08.02.13.09.11.17-.02.08-.09.13-.17.11-.24-.05-.52.04-.83.28-.03.02-.06.03-.09.03Z"/>
          <path class="cls-1" d="m11.26,58.56s-.07-.01-.1-.04c-.05-.06-.05-.15,0-.2.38-.36.97-.54,1.46-.43.08.02.13.09.11.17-.02.08-.09.13-.17.11-.41-.09-.89.05-1.2.35-.03.03-.06.04-.1.04Z"/>
          <path class="cls-1" d="m13.01,61.6c-.22,0-.45-.04-.66-.14-.07-.03-.1-.12-.07-.19.03-.07.12-.1.19-.07.54.25,1.18.06,1.47-.25.05-.06.14-.06.2,0,.06.05.06.14,0,.2-.24.26-.68.45-1.14.45Z"/>
          <path class="cls-2" d="m12.22,62.78l-.99-.33-1.06-.76s.38,1.05.9,1.44,1.02.51,1.02.51l.14-.86Z"/>
          <path class="cls-1" d="m12.02,64.52s0,0,0,0c-.08,0-.14-.07-.13-.15,0-.04.06-.97.23-1.54.02-.08.1-.12.18-.1.08.02.12.1.1.18-.16.54-.21,1.46-.21,1.47,0,.08-.07.13-.14.13Z"/>
          <path class="cls-2" d="m14.54,58.77c.01-.23-.1-.42-.26-.43-.15,0-.29.17-.3.4-.01.23.1.42.26.43.15,0,.29-.17.3-.4Z"/>
          <path class="cls-1" d="m9.41,60.99s-.02,0-.02,0c-.85-.14-1.11-.66-1.25-1.14-.09-.31-.03-.76.26-1.03.2-.18.58-.34,1.26-.06.07.03.11.11.08.19-.03.07-.11.11-.19.08-.43-.17-.76-.17-.96.01-.2.18-.25.51-.18.74.12.39.3.82,1.03.94.08.01.13.09.12.16-.01.07-.07.12-.14.12Z"/>
          <path class="cls-1" d="m9.38,60.12s-.09-.02-.12-.06c0,0-.12-.18-.29-.23-.07-.02-.12-.11-.09-.18.03-.08.11-.12.18-.09.26.09.43.34.44.35.04.07.03.15-.04.2-.02.02-.05.02-.08.02Z"/>
          <path class="cls-1" d="m15.41,59.15s-.04,0-.06-.01c-.07-.03-.1-.12-.07-.19.38-.77.36-1.73-.04-2.43-.27-.48-.67-.77-1.13-.81-.08,0-.14-.08-.13-.16s.08-.14.16-.13c.55.05,1.04.4,1.35.95.45.8.47,1.83.05,2.7-.02.05-.08.08-.13.08Z"/>
          <path class="cls-2" d="m15.1,56.05s.3.06.41.51c.11.45.17.62.01,1.09-.16.46-.64.77-.64.77l.22-2.37Z"/>
          <path class="cls-1" d="m10.02,58.73c-.05,0-.09,0-.09,0-.08-.01-.13-.08-.12-.16.01-.08.08-.13.16-.12.04,0,1.01.1,2-1.38.33-.49.54-.87.69-1.14.34-.62.46-.84,1.1-.55.07.03.1.12.07.19-.03.07-.12.1-.19.07q-.4-.18-.73.43c-.15.28-.36.66-.7,1.16-.93,1.39-1.88,1.5-2.18,1.5Z"/>
          <path class="cls-1" d="m12.25,71.33c-.26,0-.57-.08-.91-.34-.06-.05-.08-.14-.03-.2.05-.06.14-.08.2-.03.2.15.39.23.55.26-.28-.11-.54-.32-.65-.69-.09-.3-.05-.65,0-1.07.06-.51.14-1.1-.06-1.66-.2-.58-.58-.98-.99-1.4-.4-.41-.82-.84-1.04-1.47-.46-1.27-.18-3.24-.17-3.33.01-.08.08-.13.16-.12.08.01.13.08.12.16,0,.02-.28,1.99.15,3.19.21.57.58.96.98,1.37.41.42.83.86,1.05,1.5.22.63.14,1.24.07,1.79-.05.38-.09.71-.01.95.23.73,1.17.59,1.18.59.06,0,.12.02.15.08.03.06.01.13-.03.17,0,0-.28.25-.73.25Z"/>
          <path class="cls-1" d="m7.04,65.49s-.07-.01-.09-.04l-.04-.03c-.75-.65-1.34-1.16-1.4-2.33-.04-.68.15-1.18.36-1.75.12-.32.25-.66.35-1.07.19-.72.16-1.23.13-1.78-.03-.59-.06-1.19.17-2.09.36-1.36,1.35-2.75,2.4-3.38.96-.57,2.23-.62,3-.41.43.11.73.3.87.55.04.07.01.16-.05.19-.07.04-.16.01-.19-.05-.1-.17-.34-.32-.7-.41-.74-.2-1.93-.13-2.78.38-.98.59-1.94,1.94-2.28,3.21-.22.85-.19,1.43-.17,2,.03.54.06,1.1-.14,1.86-.11.43-.24.79-.36,1.1-.21.56-.38,1.01-.34,1.63.06,1.05.58,1.5,1.3,2.13l.04.03c.06.05.07.14.01.2-.03.03-.07.05-.11.05Z"/>
          <path class="cls-1" d="m10.52,69.79s-.02,0-.03,0c-.08-.02-.13-.09-.11-.17.2-.97-.13-1.94-.89-2.65-.06-.05-.06-.14,0-.2.05-.06.14-.06.2,0,.84.78,1.19,1.85.97,2.92-.01.07-.07.11-.14.11Z"/>
          <path class="cls-1" d="m9.24,58.01c-.84,0-1.39-.31-1.43-.33-.06-.03-.09-.1-.06-.17.02-.06.08-.1.15-.1.07,0,1.75.17,2.99-1.54.05-.06.14-.08.2-.03.06.05.08.14.03.2-.82,1.13-1.83,1.5-2.51,1.61.53.11,1.35.12,2.28-.37.07-.04.16,0,.19.06.04.07,0,.16-.06.19-.67.35-1.29.47-1.8.47Z"/>
          <path class="cls-1" d="m13.77,55.05c-.07,0-.13-.05-.14-.12,0,0-.09-.46-.45-.97-.05-.06-.03-.15.04-.2.06-.05.15-.03.2.04.4.57.5,1.06.5,1.08.01.08-.04.15-.11.17,0,0-.02,0-.03,0Z"/>
          <path class="cls-1" d="m16.23,71.26s-.09-.02-.12-.06c-.03-.05-.03-.1,0-.15.02-.03.48-.88-.08-2-.24-.49-.64-.7-1.1-.94-.45-.24-.97-.51-1.35-1.11-.37-.58-.32-1.14-.28-1.68.06-.7.12-1.42-.73-2.3-.05-.06-.05-.15,0-.2s.15-.05.2,0c.94.97.87,1.8.81,2.52-.04.51-.08,1,.24,1.5.34.54.8.78,1.24,1.01.46.24.94.49,1.22,1.07.4.81.33,1.5.22,1.9.21-.19.45-.6.36-1.48,0-.08.05-.15.13-.16.08,0,.15.05.16.13.18,1.76-.84,1.94-.89,1.95,0,0-.02,0-.02,0Z"/>
          <path class="cls-1" d="m17.01,70.45c-.06,0-.12-.04-.14-.11-.02-.08.03-.15.1-.17.11-.03.21-.13.28-.28.13-.28.18-.8-.08-1.35-.15-.32-.36-.59-.56-.86-.3-.4-.62-.82-.74-1.39-.19-.88-.01-1.22.22-1.66.18-.35.39-.75.47-1.59.16-1.68-.05-4.46-.5-6.46-.56-2.51-2.1-3.23-2.83-3.26-.08,0-.14-.07-.14-.15,0-.08.07-.14.15-.14.81.03,2.5.8,3.1,3.48.45,2.03.67,4.85.51,6.55-.09.89-.32,1.34-.51,1.69-.22.41-.36.69-.19,1.46.11.5.39.88.69,1.28.21.28.42.56.59.91.25.53.29,1.15.09,1.59-.11.23-.27.39-.47.44-.01,0-.02,0-.04,0Z"/>
          <path class="cls-1" d="m11.98,65.99c-.95,0-2.06-.59-2.62-1.25-.05-.06-.04-.15.02-.2.06-.05.15-.04.2.02.6.71,1.93,1.33,2.82,1.1.49-.13.79-.5.9-1.1.01-.08.09-.13.17-.12.08.01.13.09.12.17-.16.9-.69,1.22-1.1,1.33-.16.04-.32.06-.49.06Z"/>
          <path class="cls-1" d="m9.2,124.61c-.7,0-1.47-.35-1.83-1.07-.33-.66-.48-1.81-.47-3.5,0-.08.06-.14.14-.14h0c.08,0,.14.07.14.14-.02,1.64.13,2.74.44,3.37.38.75,1.33,1.03,1.99.85.18-.05.59-.2.57-.61,0-.08.06-.15.14-.15.08,0,.15.06.15.14.02.43-.27.76-.78.9-.16.04-.32.06-.49.06Z"/>
          <path class="cls-1" d="m19.59,122.72c-1.21,0-2.73-.25-3.32-.76-.32-.27-.57-.54-.78-.77-.34-.37-.61-.66-.99-.81-.07-.03-.11-.11-.08-.19.03-.07.11-.11.19-.08.44.18.74.5,1.1.88.21.23.46.49.76.75.76.65,3.45.85,4.38.56.08-.02.16.02.18.09.02.08-.02.16-.09.18-.31.1-.79.15-1.32.15Z"/>
          <path class="cls-1" d="m67.84,122.12c-.44,0-1.25-.06-1.33-.49-.17-1.05-.61-2.61-.95-3.74-.33-1.11-.9-2.18-1.35-3.04-.22-.42-.41-.78-.52-1.05-.41-1-1.5-3.64-2.24-5.83-.08-.23-.14-.44-.21-.64-.3-.96-.52-1.65-1.22-2.57-.05-.06-.03-.15.03-.2.06-.05.15-.03.2.03.72.96.96,1.71,1.26,2.65.06.2.13.41.21.64.73,2.18,1.82,4.82,2.23,5.81.11.26.3.62.51,1.03.46.87,1.03,1.96,1.37,3.09.34,1.13.79,2.71.96,3.77,0,.06.12.14.41.2.73.14,1.74-.03,1.83-.17.09-.76-.2-3.61-.37-4.64-.34-1.95-.86-3.16-1.25-4.05-.08-.18-.15-.34-.21-.49-.39-.96-.79-3.12-.9-4.46-.07-.8-.29-3.18-.47-4.35-.23-1.6-.52-2.64-.98-4.21-.02-.08.02-.16.1-.18.08-.02.16.02.18.1.46,1.58.75,2.63.99,4.24.17,1.18.4,3.57.47,4.37.11,1.32.5,3.44.88,4.38.06.15.13.31.21.49.39.9.92,2.14,1.27,4.12.16.94.48,3.88.37,4.73-.05.42-1.17.46-1.39.46-.03,0-.06,0-.09,0Z"/>
          <path class="cls-1" d="m60.36,121.53c-.21,0-.39-.01-.43-.02-.49-.04-1.31-.16-1.34-.6-.02-.27-.29-2.71-.51-4.28-.15-1.07-.31-2.1-.47-3.19-.1-.65-.2-1.32-.31-2.03-.36-2.39-.54-4.23-.67-6.79-.16-3.16,0-5.65,0-5.68,0-.08.07-.14.15-.13.08,0,.14.07.13.15,0,.02-.16,2.5,0,5.64.13,2.54.31,4.38.66,6.76.11.71.21,1.38.31,2.03.17,1.09.32,2.12.47,3.19.22,1.58.49,4.03.51,4.3,0,.04.08.13.35.21.75.23,1.94.13,2.05-.01.09-.41.18-2.63.12-4.84-.03-1.07-.11-1.84-.18-2.53-.04-.43-.08-.8-.1-1.17-.11-2.17.24-4.84.25-4.86.01-.08.08-.13.16-.12.08.01.13.08.12.16,0,.03-.35,2.67-.25,4.81.02.37.05.74.1,1.16.07.69.15,1.47.18,2.55.06,2.13-.02,4.43-.13,4.92-.07.3-.73.36-1.19.36Z"/>
          <path class="cls-1" d="m56.6,126.44c-.53,0-1.14-.09-1.3-.44-.19-.43.36-.75,1.13-1.19.22-.13.45-.26.7-.41l.07-.04c.4-.25.96-.59,1.15-1.35.06-.25.06-.46.06-.63,0-.2,0-.38.13-.49.09-.08.22-.11.43-.09.6.05.79.58.88.8.01.04.02.07.03.08.04.07.01.16-.06.19-.07.04-.16.01-.19-.06-.02-.03-.03-.07-.05-.12-.1-.28-.24-.58-.63-.61-.16-.01-.2.01-.21.02-.03.03-.03.16-.03.28,0,.18,0,.42-.07.7-.23.87-.86,1.26-1.28,1.52l-.07.04c-.25.15-.49.29-.7.42-.56.32-1.09.63-1.01.82.12.28,1.16.33,1.72.21.39-.08.77-.19,1.14-.3.43-.13.84-.25,1.21-.3.15-.02.3-.03.45-.05.54-.05.87-.09.89-.33.01-.15,0-.36-.04-.65-.06-.63-.14-1.58-.06-3.07,0-.08.08-.14.15-.14.08,0,.14.07.14.15-.08,1.48,0,2.41.06,3.03.03.31.05.53.04.7-.04.5-.6.55-1.15.6-.14.01-.29.02-.43.04-.35.05-.75.17-1.17.29-.37.11-.76.22-1.16.31-.14.03-.43.06-.74.06Z"/>
          <path class="cls-1" d="m59.24,121.87l-.29-.02s.02-.35.02-.55c0-.08.07-.14.15-.14.08,0,.14.07.14.14,0,.2-.02.56-.02.56Z"/>
          <path class="cls-1" d="m56.59,126.81c-.51,0-1.1-.08-1.33-.4-.09-.13-.17-.36.02-.69.04-.07.13-.09.19-.05.07.04.09.13.05.19-.14.25-.07.35-.04.38.25.34,1.41.31,1.83.22.39-.08.77-.19,1.14-.3.43-.13.84-.25,1.21-.3.18-.02.36-.04.55-.05.27-.02.83-.07.83-.17,0-.22-.03-.38-.04-.5,0-.06-.01-.11-.02-.15,0-.08.05-.15.13-.15.08,0,.15.05.15.13,0,.04,0,.09.02.14.02.13.03.29.04.52.02.38-.5.42-1.09.47-.18.01-.36.03-.53.05-.35.05-.75.17-1.17.29-.37.11-.76.22-1.16.31-.11.02-.42.06-.79.06Z"/>
          <path class="cls-1" d="m57.92,126.2c-.07,0-.13-.05-.14-.13-.03-.28-.14-.45-.23-.59-.07-.11-.13-.21-.11-.32.02-.13.17-.22.44-.39.24-.15.58-.36.85-.63.48-.48.68-.92.84-1.33.11-.28.36-.27.58-.26.22,0,.47.02.73-.17.07-.05.15-.03.2.04.05.07.03.15-.04.2-.35.24-.67.23-.91.22-.23,0-.28,0-.31.08-.17.42-.38.91-.91,1.43-.3.3-.65.51-.9.67-.11.07-.25.16-.3.2.01.02.04.07.07.11.09.15.23.37.27.72,0,.08-.05.15-.13.16,0,0-.01,0-.02,0Z"/>
          <path class="cls-1" d="m57.87,125.03s-.07-.01-.1-.04c-.22-.23-.57-.29-.58-.29-.08-.01-.13-.09-.12-.16.01-.08.08-.13.16-.12.02,0,.45.07.74.37.05.06.05.15,0,.2-.03.03-.06.04-.1.04Z"/>
          <path class="cls-1" d="m58.52,124.57s-.08-.02-.11-.05c-.09-.11-.41-.2-.62-.22-.08,0-.13-.08-.12-.16,0-.08.08-.13.16-.12.1.01.61.09.81.33.05.06.04.15-.02.2-.03.02-.06.03-.09.03Z"/>
          <path class="cls-1" d="m59.03,124.07s-.05,0-.08-.02l-.08-.06c-.2-.14-.31-.21-.58-.22-.08,0-.14-.07-.14-.15,0-.08.07-.14.14-.14,0,0,0,0,0,0,.36,0,.53.12.74.27l.08.06c.07.04.08.13.04.2-.03.04-.07.06-.12.06Z"/>
          <path class="cls-1" d="m59.41,123.38s-.03,0-.04,0c0,0-.5-.15-.86-.18-.08,0-.14-.08-.13-.15,0-.08.08-.14.15-.13.39.03.89.18.92.19.08.02.12.1.1.18-.02.06-.08.1-.14.1Z"/>
          <path class="cls-1" d="m67.35,122.62c-.07,0-.13-.05-.14-.12l-.07-.5c-.01-.08.04-.15.12-.16.08-.01.15.04.16.12l.07.5c.01.08-.04.15-.12.16,0,0-.01,0-.02,0Z"/>
          <path class="cls-1" d="m66.91,127.94c-.4,0-.79-.05-1.07-.11-.42-.1-.63-.24-.65-.43-.03-.31.15-.49.38-.75.15-.16.34-.37.54-.67.31-.45.71-1.18.83-1.76.11-.52.11-.99.1-1.39,0-.18.09-.35.27-.45.26-.16.62-.16.9-.01.25.14.4.39.4.71,0,.08-.06.14-.14.15,0,0,0,0,0,0-.08,0-.14-.06-.14-.14,0-.22-.09-.38-.25-.47-.18-.1-.44-.1-.61,0-.06.04-.13.1-.13.2,0,.42,0,.9-.11,1.46-.13.62-.55,1.39-.87,1.86-.22.32-.41.53-.57.7-.23.25-.32.36-.31.54.03.07.43.23,1.17.27.76.04,1.4-.09,1.53-.32.18-.3.21-.48.3-1.03l.02-.12c.08-.49.27-.97.43-1.39.05-.14.1-.27.15-.39.11-.31.02-.64-.06-.94-.03-.11-.06-.21-.08-.31-.06-.35-.09-.76-.09-1.32,0-.08.06-.14.14-.14h0c.08,0,.14.06.14.14,0,.53.03.94.09,1.26.02.09.04.18.07.28.09.32.2.72.06,1.11-.04.12-.1.25-.15.39-.16.41-.34.87-.42,1.33l-.02.12c-.09.56-.13.79-.34,1.13-.21.35-.86.47-1.51.47Z"/>
          <path class="cls-1" d="m66.98,128.34s-.02,0-.04,0c-.61,0-1.59-.12-1.78-.44-.25-.42.07-.83.08-.85.05-.06.14-.07.2-.03.06.05.07.14.03.2,0,.01-.21.28-.06.53.06.1.69.3,1.54.3.67,0,1.17-.12,1.29-.32.12-.19.12-.31.14-.56.01-.14.03-.32.07-.56.07-.4.31-.79.53-1.13.14-.21.27-.42.31-.57.08-.3-.09-.85-.16-1.03-.03-.07,0-.16.08-.19.07-.03.16,0,.19.08.01.03.3.76.17,1.21-.05.19-.19.4-.34.64-.2.32-.43.67-.49,1.02-.04.22-.05.39-.06.53-.02.25-.03.44-.18.69-.24.4-1.04.46-1.51.46Z"/>
          <path class="cls-1" d="m68.48,126.92c-.06,0-.11-.04-.13-.09-.09-.24-.24-.34-.39-.43-.14-.08-.29-.18-.31-.38-.02-.22.05-.41.15-.68.06-.16.13-.34.19-.58.18-.63.25-1.21.25-1.45,0-.24.23-.37.41-.47.09-.05.18-.1.21-.15.05-.06.14-.07.2-.02.06.05.07.14.02.2-.07.09-.18.15-.3.22-.12.07-.27.15-.27.23,0,.22-.06.82-.26,1.52-.07.25-.14.45-.2.61-.09.24-.15.4-.13.55,0,.06.05.09.18.17.16.1.38.24.5.57.03.07-.01.16-.09.18-.02,0-.03,0-.05,0Z"/>
          <path class="cls-1" d="m67.76,126.1s-.03,0-.04,0c-.25-.08-.98-.25-1.28-.12-.07.03-.16,0-.19-.07-.03-.07,0-.16.07-.19.46-.21,1.38.07,1.48.11.08.02.12.1.09.18-.02.06-.08.1-.14.1Z"/>
          <path class="cls-1" d="m67.91,125.34s-.03,0-.05,0c-.19-.07-.73-.23-1-.1-.07.03-.16,0-.19-.07-.03-.07,0-.16.07-.19.43-.2,1.14.06,1.22.09.07.03.11.11.08.18-.02.06-.08.09-.13.09Z"/>
          <path class="cls-1" d="m68.12,124.67s-.04,0-.06-.01c-.24-.11-.7-.25-.91-.15-.07.03-.16,0-.19-.07-.03-.07,0-.16.07-.19.4-.19,1.08.12,1.16.15.07.03.1.12.07.19-.02.05-.08.08-.13.08Z"/>
          <path class="cls-1" d="m68.22,123.99s-.03,0-.04,0c-.25-.08-.71-.18-.89-.13-.08.02-.16-.02-.18-.09-.02-.08.02-.16.09-.18.32-.1.99.1,1.06.13.08.02.12.1.09.18-.02.06-.08.1-.14.1Z"/>
          <path class="cls-1" d="m61.32,100.22c-2.32,0-4.42-.75-4.73-1.26-.25-.4-.18-.62-.11-.87.05-.17.11-.37.07-.69-.05-.4.02-.6.11-.85.1-.28.23-.65.26-1.54,0-.28.01-.61.02-.97.03-1.76.08-4.41.54-6.08.02-.08.1-.12.18-.1.08.02.12.1.1.18-.45,1.64-.5,4.27-.53,6.01,0,.36-.01.69-.02.98-.03.93-.17,1.33-.27,1.63-.08.24-.14.39-.09.72.05.38-.02.62-.08.81-.07.22-.1.35.08.63.36.57,4.4,1.86,7.57.58.63-.25.61-.44.55-.95-.01-.12-.03-.25-.03-.39,0-.03-.02-.1-.04-.18-.11-.41-.36-1.36-.08-2.83l.1-.55c.36-1.88.9-4.72.68-6.3-.13-.93-.88-1.22-2.01-1.66-.86-.34-1.92-.75-3.05-1.59-1.39-1.03-2.96-2.36-3.99-3.25-.46-.4-.83-.71-1.04-.87-.22-.18-.58-.01-.83.2-.54.45-.91,1.29-.59,1.91.59,1.11,3.98,5.21,9.15,7.88.07.04.1.12.06.19-.04.07-.12.1-.19.06-5.23-2.7-8.67-6.87-9.27-8-.41-.77.03-1.74.66-2.26.43-.36.89-.44,1.19-.2.21.17.58.48,1.05.88,1.03.88,2.59,2.21,3.98,3.23,1.1.81,2.14,1.22,2.98,1.55,1.18.46,2.04.8,2.19,1.89.23,1.62-.3,4.38-.68,6.39l-.1.55c-.27,1.41-.03,2.28.08,2.7.03.11.05.19.05.24,0,.14.02.26.03.37.06.53.1.91-.73,1.24-1.01.41-2.13.57-3.19.57Z"/>
          <path class="cls-1" d="m68.03,82.58c-.08,0-.14-.06-.14-.14,0-.08.06-.14.14-.14.07,0,.14-.11.15-.24,0-.05,0-.24-.16-.26-.08-.01-.13-.09-.12-.16.01-.08.09-.13.16-.12.26.04.42.27.4.57-.02.25-.18.5-.43.5h0Z"/>
          <path class="cls-1" d="m68.34,82.13c-.07,0-.14-.06-.14-.13,0-.08.05-.15.13-.15.25-.02.61-.72.73-1.1.05-.15.11-.41.16-.62-.08.05-.19.1-.31.15-.52.19-.85.54-1.02,1.1-.02.08-.1.12-.18.09-.08-.02-.12-.1-.09-.18.2-.64.59-1.06,1.19-1.29.25-.09.38-.2.46-.26.05-.04.11-.08.18-.07.04,0,.08.04.1.08.06.13-.21,1.04-.22,1.08,0,.01-.41,1.27-.98,1.31,0,0,0,0,0,0Z"/>
          <path class="cls-1" d="m68.78,83.01c-.28,0-.57-.1-.84-.41-.05-.06-.05-.15.01-.2.06-.05.15-.05.2.01.41.47.82.32,1.33.14l.1-.04c.26-.09.51-.19.71-.28-.07-.01-.16-.03-.26-.06-.12-.03-.24-.08-.35-.12-.32-.13-.63-.25-1.04-.07-.07.03-.16,0-.19-.08-.03-.07,0-.16.08-.19.52-.22.91-.07,1.26.07.11.04.21.08.32.11.2.05.34.07.44.08.12.01.24.02.3.14.02.04.02.08,0,.12-.06.15-1.16.54-1.17.54l-.1.03c-.26.09-.53.19-.81.19Z"/>
          <path class="cls-1" d="m68.73,82.47c-.17,0-.37-.03-.5-.13-.06-.05-.08-.14-.03-.2.05-.06.14-.08.2-.03.12.09.44.08.61.04.08-.02.15.04.17.11.02.08-.03.15-.11.17-.03,0-.17.03-.34.03Z"/>
          <path class="cls-1" d="m54.97,80.73s-.07-.01-.09-.03c-.98-.85-1.4-1.58-1.55-1.95-.16-.36-.26-.78-.35-1.12-.07-.26-.15-.59-.21-.65-.07-.06-.29-.08-.59-.02-.28.06-.41.16-.43.2-.09.19.01.75.15.9.04-.05.08-.18.08-.28,0-.06.03-.38.19-.47.06-.03.13-.04.19,0,.17.09.22.19.24.47,0,.06,0,.13,0,.21,0,.25,0,.59.17,1.01.03.07,0,.16-.08.19-.07.03-.16,0-.19-.08-.19-.47-.19-.86-.19-1.12,0-.07,0-.13,0-.18,0-.08-.01-.13-.02-.16-.01.05-.02.1-.02.16,0,.12-.07.47-.27.55-.04.02-.16.05-.28-.07-.24-.22-.36-.93-.22-1.24.1-.22.47-.32.63-.36.14-.03.61-.12.83.08.12.1.19.34.3.8.09.35.18.74.33,1.07.12.27.51,1,1.48,1.85.06.05.07.14.01.2-.03.03-.07.05-.11.05Z"/>
          <path class="cls-1" d="m51.4,78.38s-.05,0-.08-.01c-.16-.05-.26-.23-.28-.51-.01-.2.07-.81.25-1.04.16-.21.46-.19.72-.17.12,0,.22.01.31,0,.08-.01.15.04.16.12.01.08-.04.15-.12.16-.11.02-.24,0-.37,0-.19-.01-.41-.03-.48.06-.12.15-.2.67-.19.85.01.17.06.25.08.26,0,0,.05-.01.16-.14.05-.06.14-.07.2-.03.06.05.07.14.02.2-.13.17-.26.25-.38.25Z"/>
          <path class="cls-1" d="m51.07,77.82s-.09-.01-.12-.03c-.16-.07-.24-.28-.25-.44-.03-.29.12-.74.33-1.01.13-.16.28-.25.43-.27.16-.02.36.12.68.34.12.08.24.17.34.23.07.04.09.13.05.2-.04.07-.13.09-.2.05-.11-.07-.24-.16-.36-.24-.15-.11-.41-.29-.49-.29-.09.01-.18.1-.24.17-.19.23-.29.61-.27.8.01.11.06.2.09.21,0,0,0,0,.02-.01.07-.04.15-.03.2.04.04.07.03.15-.04.2-.07.05-.13.06-.18.06Z"/>
          <path class="cls-1" d="m52.37,76.85s-.06,0-.08-.03c-.24-.17-.36-.33-.45-.46-.12-.17-.17-.24-.43-.24-.15,0-.3-.01-.44-.03-.22-.02-.49-.04-.56.02,0,0-.01.01-.02.05,0,0,.02.06.1.13.1.08.28.17.46.15.08-.01.15.04.16.12.01.08-.04.15-.12.16-.28.04-.55-.09-.7-.22-.12-.11-.19-.23-.18-.34,0-.13.06-.22.11-.26.16-.14.43-.12.77-.09.14.01.28.02.42.03.41,0,.53.18.66.36.08.12.18.25.38.39.06.04.08.13.04.2-.03.04-.07.06-.12.06Z"/>
          <path class="cls-1" d="m65.1,85.9c-.2,0-.4-.05-.6-.15-.07-.04-.1-.12-.06-.19.04-.07.12-.1.19-.06.53.27.91.03,1.09-.14.13-.12.19-.31.16-.47-.04-.17-.16-.29-.37-.36-.07-.03-.11-.11-.09-.18.03-.07.11-.11.18-.09.3.1.49.3.55.57.06.26-.04.55-.24.74-.24.22-.52.34-.81.34Z"/>
          <path class="cls-1" d="m65.05,85.29c-.05,0-.11-.03-.13-.08-.03-.07,0-.16.07-.19.05-.02.28-.12.47-.05.07.03.11.11.08.18-.03.07-.11.11-.18.08-.05-.02-.18.01-.25.04-.02,0-.04.01-.06.01Z"/>
          <path class="cls-1" d="m62.75,86.1s-.1,0-.14,0c-.08,0-.14-.07-.14-.15,0-.08.07-.14.15-.14.09,0,.18,0,.27,0,.38-.02.62-.08.88-.25.07-.04.15-.02.2.04.04.07.02.15-.04.2-.35.22-.66.28-1.02.29-.05,0-.1,0-.15,0Z"/>
          <path class="cls-1" d="m60.62,84.91c-.07,0-.13-.05-.14-.12-.06-.47-.02-1.05.1-1.44.12-.4.31-.65.59-1.03.06-.09.13-.18.21-.29.12-.17.25-.38.37-.59.11-.19.21-.36.3-.49.21-.3.54-.57.79-.77.43-.34.95-.27.97-.27.08.01.13.08.12.16-.01.08-.09.13-.16.12,0,0-.42-.06-.75.21-.24.19-.54.45-.74.72-.08.11-.18.28-.29.46-.12.21-.25.43-.38.61-.08.11-.15.2-.21.29-.27.37-.44.6-.54.95-.11.36-.14.89-.09,1.32.01.08-.04.15-.12.16,0,0-.01,0-.02,0Z"/>
          <path class="cls-1" d="m61.97,83.39c-.06,0-.11-.03-.13-.09,0-.02-.21-.53.06-.66.07-.03.14-.04.2-.05.09,0,.17-.02.27-.08.09-.06.17-.27.2-.4.02-.08.1-.12.17-.1.08.02.12.1.1.17-.01.04-.11.41-.31.56-.16.12-.3.13-.41.14-.03,0-.06,0-.08.01,0,.05.01.2.06.31.03.07,0,.16-.08.19-.02,0-.04.01-.05.01Z"/>
          <path class="cls-1" d="m64.2,82.69c-.06,0-.11-.03-.13-.09-.13-.29-.31-.47-.59-.56-.08-.02-.12-.1-.09-.18.02-.08.1-.12.18-.09.35.11.61.34.77.72.03.07,0,.16-.07.19-.02,0-.04.01-.06.01Z"/>
          <path class="cls-1" d="m62.77,81.56c-.05,0-.1-.03-.13-.07-.06-.11-.22-.28-.46-.25-.08.01-.15-.05-.16-.12-.01-.08.05-.15.12-.16.34-.04.62.17.74.4.04.07.01.16-.06.19-.02.01-.05.02-.07.02Z"/>
          <path class="cls-2" d="m63.56,83.09c.08-.16.04-.34-.08-.4-.12-.06-.28.03-.36.19-.08.16-.04.34.08.4.12.06.28-.03.36-.19Z"/>
          <path class="cls-2" d="m62.21,82.2c.08-.16.06-.34-.05-.39-.11-.06-.26.03-.35.19-.08.16-.06.34.05.39.11.06.26-.03.35-.19Z"/>
          <g>
            <path class="cls-4" d="m62.66,84.3s-.31-.09-.74-.35c-.34-.21-.53-.48-.53-.48,0,0-.39.87.16,1.14.54.26,1.11-.31,1.11-.31Z"/>
            <path class="cls-1" d="m61.85,84.82c-.12,0-.24-.02-.37-.08-.66-.32-.24-1.29-.22-1.33.02-.05.06-.08.12-.08.05,0,.1.02.13.06,0,0,.18.25.49.44.4.25.7.34.7.34.05.01.09.05.1.1.01.05,0,.1-.04.14-.02.02-.43.42-.91.42Zm-.41-1.08c-.06.24-.11.6.16.73.28.14.58,0,.77-.14-.14-.06-.32-.15-.53-.28-.17-.11-.31-.22-.4-.32Z"/>
          </g>
          <path class="cls-1" d="m64.61,86.62s-.06,0-.09-.03c-.06-.05-.07-.14-.03-.2.23-.3.58-.36.95-.42,0,0,.02,0,.03,0,.52-.05,1.76-.37,2.21-2.28.25-1.06.13-2.04-.35-2.75-.48-.72-1.31-1.18-2.48-1.38-.08-.01-.13-.09-.12-.16.01-.08.09-.13.16-.12,1.24.21,2.14.71,2.67,1.5.52.77.65,1.83.39,2.97-.5,2.15-2.01,2.46-2.46,2.5-.34.06-.62.1-.79.32-.03.04-.07.06-.11.06Z"/>
          <path class="cls-1" d="m65.24,83.49s-.08-.02-.1-.05c-.06-.07-1.58-1.73-1.03-3.57.02-.08.1-.12.18-.1.08.02.12.1.1.18-.51,1.68.95,3.28.96,3.3.05.06.05.15,0,.2-.03.03-.06.04-.1.04Z"/>
          <path class="cls-1" d="m66.22,83.94s-.08-.02-.11-.05c-.73-.85-.76-2.02-.67-2.51.01-.08.09-.13.17-.11.08.01.13.09.11.17-.1.52-.01,1.56.6,2.27.05.06.04.15-.02.2-.03.02-.06.03-.09.03Z"/>
          <path class="cls-1" d="m65.2,84.34s-.04,0-.06-.01c-.41-.19-.71-.81-.49-1.61.02-.08.1-.12.18-.1.08.02.12.1.1.18-.2.72.09,1.15.34,1.27.07.03.1.12.07.19-.02.05-.08.08-.13.08Z"/>
          <path class="cls-1" d="m61.83,81.72s-.04,0-.05-.01c-.07-.03-.11-.11-.08-.19.11-.27.12-.52.14-.76.02-.3.03-.59.23-.86.12-.17.9-.74,1.46-.89.52-.14.8.21.95.4.05.06.04.15-.02.2-.06.05-.15.04-.2-.02h0c-.18-.23-.34-.39-.66-.3-.51.13-1.23.67-1.3.78-.15.21-.16.44-.18.72-.01.25-.03.54-.16.85-.02.06-.08.09-.13.09Z"/>
          <path class="cls-1" d="m64.6,86.86c-.07,0-.14-.06-.14-.13-.01-.18-.02-.45.04-.71.02-.08.09-.13.17-.11.08.02.13.09.11.17-.05.22-.04.46-.03.62,0,.08-.05.15-.13.15,0,0,0,0-.01,0Z"/>
          <path class="cls-1" d="m70.33,88.32c-.43,0-.94-.14-1.38-.67-.05-.06-.04-.15.02-.2.06-.05.15-.04.2.02.48.59,1.07.62,1.47.55-.47-.18-1.17-.59-1.49-1.4-.21-.54-.17-1.28-.13-1.99.04-.68.07-1.32-.12-1.64-.04-.07-.02-.16.05-.2.07-.04.16-.02.2.05.23.39.2,1.07.16,1.8-.04.69-.07,1.39.11,1.87.43,1.11,1.72,1.36,1.73,1.36.06.01.11.06.12.12,0,.06-.02.12-.08.15,0,0-.37.18-.85.18Z"/>
          <path class="cls-1" d="m68.13,93.7c-.14,0-.23-.02-.24-.02-.06-.01-.11-.07-.11-.13,0-.06.04-.12.1-.14.05-.02,1.22-.41.99-1.59-.12-.58-.44-.92-.82-1.31-.19-.2-.39-.4-.57-.65l-.02-.03c-.29-.4-1.19-1.62-.47-4.56.02-.08.1-.12.17-.11.08.02.12.1.11.17-.68,2.81.12,3.91.43,4.32l.02.03c.17.23.36.43.54.62.39.41.76.79.89,1.45.16.8-.23,1.3-.6,1.59.26-.08.57-.25.87-.59.54-.61.37-1.62.37-1.63-.01-.06.02-.13.08-.15.06-.03.13-.01.17.04,0,.01.23.28.29.67,0,.05.01.09.01.14.13-.36.25-.87.21-1.52-.09-1.19-.87-2.09-.88-2.1-.05-.06-.05-.15.01-.2.06-.05.15-.05.2.01.03.04.85.98.95,2.27.1,1.46-.55,2.29-.58,2.32-.04.05-.11.07-.17.04-.06-.03-.09-.09-.08-.16,0,0,.05-.22.06-.46-.06.31-.18.65-.43.93-.57.65-1.18.75-1.5.75Z"/>
          <path class="cls-1" d="m69.32,90.25s-.05,0-.08-.02c-1.79-1.15-1.82-3.01-1.82-3.08,0-.08.06-.14.14-.14h0c.08,0,.14.06.14.14,0,.02.03,1.78,1.69,2.84.07.04.09.13.04.2-.03.04-.07.07-.12.07Z"/>
          <path class="cls-1" d="m63.03,91.71c-.08,0-.14-.06-.14-.14s.06-.14.14-.14c1.01,0,1.56-1.14,1.96-2.25.03-.07.11-.11.18-.09.07.03.11.11.09.18-.44,1.2-1.04,2.43-2.23,2.43Z"/>
          <path class="cls-1" d="m60,103.42c-.06,0-.12-.04-.14-.11-.16-.68-.27-2.46-.17-3.17.01-.08.08-.13.16-.12.08.01.13.08.12.16-.1.67.02,2.42.17,3.06.02.08-.03.15-.11.17-.01,0-.02,0-.03,0Z"/>
          <path class="cls-1" d="m43.05,78.61s-.02,0-.03,0l-.1-.02c-.42-.08-.55-.11-.54-.27,0-.12.11-.17.29-.25.08-.04.19-.09.24-.13.07-.06.17-.04.23.03.06.07.04.17-.03.23-.03.03-.07.05-.11.07l.09.02c.09.02.15.11.13.19-.02.08-.08.13-.16.13Z"/>
          <path class="cls-1" d="m49.24,76.36s-.04,0-.06-.01c-.87-.35-1.32-.47-1.46-.46-.12,0-.44.08-1.28.46-.08.04-.18,0-.22-.08-.04-.08,0-.18.08-.22.68-.3,1.15-.47,1.4-.48.3-.02,1.04.25,1.61.48.08.03.12.13.09.22-.03.06-.09.1-.15.1Z"/>
          <path class="cls-1" d="m52.33,78.72c-.08,0-.15-.06-.16-.13-.02-.09.04-.18.13-.19.12-.02.36-.03.65-.04.06,0,.13,0,.21,0-.07-.03-.13-.06-.19-.09-.32-.16-.52-.26-.6-.33-.07-.06-.08-.16-.02-.23.06-.07.16-.08.23-.02.05.04.33.18.54.28.64.32.72.36.71.51-.01.19-.16.2-.87.22-.24,0-.5.01-.59.03-.01,0-.02,0-.03,0Zm1.2-.16h0,0Z"/>
          <path class="cls-1" d="m47.78,75.83c-.09,0-.16-.07-.16-.16-.02-.66.21-.93.4-1.16.13-.15.23-.27.26-.49.03-.21-.04-.38-.18-.45-.13-.07-.3-.02-.44.12-.06.06-.17.06-.23,0-.06-.06-.06-.17,0-.23.24-.24.55-.31.82-.18.27.13.4.44.36.79-.04.32-.2.5-.33.66-.18.21-.34.4-.32.93,0,.09-.07.17-.16.17,0,0,0,0,0,0Z"/>
          <path class="cls-1" d="m47.67,77.24c-.14,0-.26-.02-.38-.05-.73-.18-1.2-.82-1.24-1-.02-.09.03-.18.12-.2.09-.02.17.03.2.11.05.11.46.67,1.08.78.59.11,1.2-.2,1.83-.91.06-.07.16-.07.23-.01.07.06.08.16.02.23-.72.82-1.36,1.04-1.85,1.04Z"/>
          <path class="cls-1" d="m50.83,76.95s-.05,0-.08-.02c-.28-.15-.43-.24-.55-.31-.1-.06-.17-.1-.29-.16-.06-.03-.12-.07-.19-.11-.23-.14-.39-.22-.53-.15-.08.04-.18,0-.22-.07-.04-.08,0-.18.07-.22.32-.16.61.02.85.16.06.03.11.07.17.09.12.06.21.11.31.17.12.07.26.16.54.3.08.04.11.14.07.22-.03.06-.09.09-.15.09Z"/>
          <path class="cls-1" d="m44.22,98.81c-.62,0-1.17-.06-1.5-.15-.34-.09-.82-.29-1.06-.52-.33-.32-.36-3.57-.36-3.6,0-1.36.03-2.99.22-4.81,0-.09.09-.16.18-.15.09,0,.16.09.15.18-.19,1.81-.21,3.43-.21,4.78,0,1.12.13,3.16.27,3.38.18.18.6.36.9.43.85.21,2.93.26,4.04-.42.51-.31.46-.49.4-.66-.03-.1-.07-.22,0-.35.07-.12.22-.18.51-.22.4-.06,1.02.07,1.51.17.18.04.34.07.48.09.75.12,1.09.17,2.47-.61,1.28-.73,1.8-2.01,1.87-2.33-.02-.06-.14-.23-.27-.41-.31-.44-.83-1.17-1.5-2.4-1.16-2.14-1.53-5.48-1.56-6.95-.04-2.08.07-3.42.35-3.96.05-.1.12-.2.21-.32.14-.2.32-.47.53-.88.32-.64.4-1.02.3-1.57-.02-.09.04-.18.13-.19.09-.02.18.04.19.13.11.62.03,1.07-.33,1.77-.22.44-.41.72-.55.92-.08.12-.14.21-.18.29-.17.34-.37,1.28-.32,3.8.03,1.44.39,4.71,1.52,6.8.66,1.22,1.18,1.94,1.48,2.37.26.37.36.51.33.65-.07.34-.61,1.75-2.04,2.57-1.41.81-1.84.78-2.68.65-.14-.02-.31-.06-.49-.09-.47-.1-1.05-.22-1.4-.17-.17.02-.24.05-.27.07,0,.02.01.05.02.07.07.21.19.6-.54,1.05-.75.45-1.85.6-2.79.6Zm9.86-4.78h0,0Z"/>
          <path class="cls-1" d="m41.83,88.66s-.02,0-.02,0c-.09-.01-.15-.1-.14-.19.03-.19.06-.38.09-.58.54-3.33,1.58-7.22,1.68-7.54.05-.16-.04-.38-.15-.66-.06-.15-.12-.31-.18-.49-.15-.49-.29-1.32-.19-1.56.1-.23.47-.4,1.12-.67.35-.15.75-.32,1.06-.5l.23-.14c.64-.39.99-.6,1.27-.35.07.06.07.17,0,.23-.06.07-.17.07-.23,0-.09-.09-.42.11-.87.39l-.23.14c-.33.2-.74.37-1.1.52-.38.16-.89.38-.94.5-.04.11.02.75.2,1.33.05.17.11.32.17.47.13.33.24.61.16.88-.09.31-1.13,4.18-1.67,7.49-.03.19-.06.38-.09.57-.01.08-.08.14-.16.14Z"/>
          <path class="cls-1" d="m47.35,97.21c-.07,0-.14-.05-.16-.12-.71-2.37-.88-4.57-.97-8.31,0-.09.07-.17.16-.17h0c.09,0,.16.07.16.16.09,3.72.26,5.9.96,8.23.03.09-.02.18-.11.21-.02,0-.03,0-.05,0Z"/>
          <path class="cls-1" d="m43.61,80.49s-.03,0-.05,0c-.09-.03-.14-.12-.11-.2.11-.38.71-2.36,1.86-3.93.05-.07.16-.09.23-.04.07.05.09.16.04.23-1.12,1.53-1.7,3.46-1.81,3.83-.02.07-.09.12-.16.12Z"/>
          <path class="cls-1" d="m51.08,80.92s-.05,0-.08-.02c-.91-.49-1.18-1.91-.83-4.34.01-.09.1-.15.19-.14.09.01.15.1.14.19-.33,2.24-.11,3.59.66,4,.08.04.11.14.07.22-.03.06-.09.09-.15.09Z"/>
          <path class="cls-1" d="m53.8,82.07s-.09-.02-.12-.06l-.17-.23c-.42-.57-1.11-1.52-1.45-1.9-.06-.07-.13-.13-.22-.2-.06-.05-.08-.14-.03-.2.05-.06.14-.08.2-.03.1.08.18.15.26.24.35.39,1.05,1.35,1.47,1.92l.17.23c.05.06.03.15-.03.2-.03.02-.06.03-.08.03Z"/>
          <path class="cls-1" d="m57.27,89.22s-.05,0-.07-.02c-2.51-1.48-5-3.89-5.47-4.54-.52-.72-.13-1.83.46-2.56.16-.2.57-.65.88-.51.15.06.58.49.76.67.06.06.06.15,0,.2-.06.06-.15.06-.2,0-.27-.27-.6-.58-.67-.61-.05-.02-.28.09-.58.47-.49.63-.84,1.59-.42,2.17.46.64,2.91,3,5.38,4.46.07.04.09.13.05.2-.03.05-.07.07-.12.07Z"/>
          <path class="cls-1" d="m52.57,81.95s-.07-.01-.1-.04c-.53-.53-1.2-1.2-1.35-1.38-.05-.06-.04-.15.02-.2.06-.05.15-.04.2.02.11.13.58.61,1.33,1.36.06.06.06.15,0,.2-.03.03-.06.04-.1.04Z"/>
          <path class="cls-1" d="m51.62,83.57s-.08-.02-.11-.05c-.15-.17-.5-.57-.63-.72-.05-.06-.04-.15.02-.2.06-.05.15-.04.2.02.13.15.51.59.63.72.05.06.05.15-.01.2-.03.02-.06.04-.09.04Z"/>
          <path class="cls-1" d="m28.41,71.57s-.1-.02-.13-.06c-.06-.07-.05-.17.03-.23,1.06-.85,3.11-2.38,3.4-2.42.24-.03,2.19.48,2.27.5.09.02.14.11.12.2-.02.09-.11.14-.2.12-1.23-.32-2.04-.49-2.16-.49h0c-.18.06-1.71,1.14-3.23,2.35-.03.02-.07.04-.1.04Z"/>
          <path class="cls-1" d="m31.69,69.09c-.09,0-.16-.07-.16-.15-.04-.51-.22-.65-.44-.82-.21-.16-.45-.34-.53-.81-.1-.59.3-1.04.73-1.17.46-.14.89.09,1.09.57.04.08,0,.18-.09.22-.08.04-.18,0-.22-.09-.14-.33-.4-.47-.7-.39-.3.09-.57.41-.5.79.06.34.21.46.41.6.25.19.53.4.57,1.06,0,.09-.06.17-.15.18,0,0,0,0-.01,0Z"/>
          <path class="cls-1" d="m31.74,71.63c-.88,0-1.72-.5-2.12-1.3-.04-.08,0-.18.07-.22.08-.04.18,0,.22.07.39.78,1.27,1.23,2.14,1.1.91-.14,1.53-.86,1.7-1.97.01-.09.1-.15.19-.14.09.01.15.1.14.19-.19,1.24-.93,2.08-1.97,2.25-.12.02-.24.03-.36.03Z"/>
          <path class="cls-1" d="m39.05,81.81c-.09,0-.16-.07-.16-.16,0-.09.07-.17.16-.17,1.17-.05,2.23-.62,2.54-1.11.1-.16.12-.3.06-.43-.16-.37-.33-.73-.54-1.14-.43-.88-.96-1.99-1.76-3.97-.4-.99-.67-1.85-.88-2.54-.2-.66-.37-1.17-.52-1.39-.1-.14-.39-.36-1.16-.63-.09-.03-.13-.12-.1-.21.03-.09.12-.13.21-.1.69.25,1.12.49,1.31.75.19.26.34.75.57,1.49.21.68.48,1.53.87,2.51.8,1.97,1.33,3.07,1.75,3.95.2.42.38.78.54,1.15.1.23.07.49-.09.74-.41.66-1.64,1.22-2.81,1.27,0,0,0,0,0,0Z"/>
          <path class="cls-1" d="m28.16,71.51s-.09-.02-.13-.06c-.06-.07-.05-.17.02-.23.74-.62,1.43-1.12,1.64-1.23.24-.14.49-.03.77.09.38.16.86.37,1.62.17.69-.18.95-.44,1.26-.73.1-.1.21-.21.34-.32.2-.17.48-.07.91.08.17.06.37.13.61.2.08.02.18.05.3.08.12.03.27.07.42.11.09.02.14.12.12.2-.02.09-.12.14-.2.12-.15-.04-.3-.08-.42-.11-.12-.03-.22-.06-.3-.08-.24-.07-.46-.14-.62-.2-.27-.09-.53-.18-.59-.13-.12.1-.22.2-.32.3-.31.3-.63.61-1.4.82-.86.23-1.45-.02-1.83-.19-.24-.1-.39-.16-.48-.11-.19.11-.87.6-1.59,1.2-.03.03-.07.04-.11.04Z"/>
          <path class="cls-1" d="m27.66,83.53c-.31,0-.63-.03-.92-.06-.97-.11-1.71-.69-1.99-1.18-.11-.19-.14-.36-.09-.48.1-.24.44-1.32.81-3.13.16-.77.24-1.74.32-2.67.06-.71.12-1.38.21-1.93.01-.09.1-.15.19-.14.09.01.15.1.14.19-.09.54-.14,1.2-.2,1.91-.08.95-.17,1.93-.33,2.71-.34,1.67-.7,2.87-.83,3.19,0,.01.01.12.14.29.26.36.85.81,1.67.9,1.31.15,1.91-.03,2.02-.24.03-.08.04-.61.05-1.16.03-1.29.08-3.46.44-5.44.02-.09.1-.15.19-.13.09.02.15.1.13.19-.36,1.96-.41,4.11-.44,5.39-.02.9-.03,1.19-.09,1.3-.19.36-.78.47-1.42.47Z"/>
          <path class="cls-1" d="m32.96,90.5c-2.9,0-5.22-.94-5.57-1.22-.22-.18-.11-.66.04-1.22.02-.08.04-.14.05-.17.16-.85.28-1.9.35-2.95,0-.09.08-.16.17-.15.09,0,.16.08.15.17-.06,1.07-.19,2.13-.35,2.99,0,.04-.03.11-.05.2-.14.51-.19.8-.14.88.37.29,4,1.7,7.88.88,3.45-.73,4.73-1.87,4.77-2.69.01-.23-.3-1.4-.71-2.88-.19-.72-.42-1.53-.65-2.43-1.08-4.1-1.67-6.87-1.79-8.46,0-.09.06-.17.15-.18.09,0,.17.06.18.15.12,1.55.72,4.37,1.78,8.4.24.9.46,1.72.65,2.43.5,1.82.73,2.71.72,2.98-.03.58-.59,2.04-5.03,2.99-.89.19-1.77.27-2.6.27Z"/>
          <path class="cls-1" d="m29.25,75.6c-.07,0-.14-.05-.16-.12,0,0-.18-.61-.6-1.22-.05-.08-.03-.18.04-.23.08-.05.18-.03.23.04.44.65.63,1.29.64,1.32.03.09-.02.18-.11.2-.02,0-.03,0-.05,0Z"/>
          <path class="cls-1" d="m32.76,73.43c-.9,0-3.16-2.62-3.28-2.88-.04-.08,0-.18.08-.22.08-.04.18,0,.22.08.14.29,2.39,2.76,2.99,2.69.16-.02.7-.34,1.1-3.58.01-.09.09-.15.18-.14.09.01.15.09.14.18-.46,3.75-1.16,3.84-1.38,3.87-.02,0-.03,0-.05,0Z"/>
          <path class="cls-1" d="m31.97,75.75s-.08,0-.11-.01c-.22-.05-.39-.25-.53-.4-.03-.04-.06-.07-.09-.1,0,0-.02-.01-.03-.02-.05-.03-.22-.14-.15-.32.02-.07.08-.11.18-.16.26-.15.88-.5,1.22-1.45.03-.09.13-.13.21-.1.03.01.05.03.07.05.04-.02.09-.03.13-.02,0,0,0,0,0,0,.07-.06.17-.05.23.02.09.11.18.26.26.41.09.16.18.32.27.4.18.17.44.26.61.32.1.03.17.06.22.09.1.07.11.19.03.37-.14.3-.55.82-.94.72-.31-.08-.55-.65-.72-1.19-.08.35-.19.68-.25.83-.21.46-.44.58-.63.58Zm-.52-.76s.01,0,.02.02c.03.03.07.07.1.11.11.12.25.27.37.3.03,0,.07,0,.14-.04.3-.25.49-1.18.56-1.67-.37.79-.92,1.14-1.19,1.29Zm1.56-1.32c.1.51.44,1.49.64,1.54.04,0,.1-.01.17-.06.17-.12.33-.34.39-.47-.02,0-.04-.01-.06-.02-.2-.07-.5-.16-.74-.39-.12-.11-.22-.3-.32-.48-.02-.04-.05-.08-.07-.13Z"/>
          <path class="cls-1" d="m32.26,78.19c-.13,0-.28-.09-.45-.2-.03-.02-.05-.03-.07-.04-.04-.02-.07-.06-.08-.1-.02-.07,0-.11.03-.17.06-.12.25-.47.43-1.08.21-.72.55-2.04.5-2.8,0-.09.06-.17.15-.18.09,0,.17.06.18.15,0,.09,0,.18,0,.28.07.02.12.08.12.16,0,.96-.01,1.71-.2,2.58-.18.84-.35,1.31-.52,1.37-.03.01-.06.02-.09.02Zm-.23-.45c.05.03.13.08.19.1.06-.11.19-.43.33-1.12.08-.36.12-.7.15-1.05-.09.38-.18.73-.26,1-.15.53-.32.88-.41,1.06Z"/>
          <path class="cls-1" d="m33.26,78.88c-.1,0-.2-.02-.26-.07-.07-.07-.06-.14-.03-.33.04-.27.12-.83.09-1.69-.05-1.19-.05-1.23-.1-1.53-.02-.11-.04-.25-.07-.5-.01-.09.05-.17.14-.18.09-.01.17.05.18.14.01.1.02.19.03.26,0,0,.02,0,.02,0,.09-.02.18.04.2.12.33,1.42.42,3.28.36,3.57-.02.11-.13.14-.19.16,0,0-.21.06-.39.06Zm.11-2.47c0,.11,0,.23.01.36.04.9-.05,1.48-.09,1.76,0,0,0,.01,0,.02.07,0,.16-.02.23-.03.01-.28-.02-1.16-.15-2.1Z"/>
          <path class="cls-1" d="m34.55,92.41c-.69,0-1.26-.28-1.73-.51-.19-.09-.36-.18-.52-.24-.28-.1-.72.08-1.19.26-.47.19-1,.41-1.53.41-.7,0-.99-.32-1.27-.62-.15-.16-.3-.33-.53-.48-.28-.18-.75-.18-1.09-.18-.36,0-.57,0-.64-.19-.06-.17.12-.33.21-.41.38-.32.58-.69.74-.99.1-.19.19-.36.31-.48.07-.06.17-.06.23,0,.06.07.06.17,0,.23-.08.08-.16.23-.25.4-.16.3-.39.72-.81,1.09,0,0,0,0,0,0,.07,0,.15,0,.23,0,.38,0,.9,0,1.26.23.27.17.44.36.6.53.27.3.47.52,1.02.52.47,0,.94-.19,1.41-.38.53-.21,1.02-.42,1.42-.27.18.07.36.16.56.25.52.25,1.1.54,1.84.46.42-.05.69-.33.98-.63.35-.37.75-.78,1.42-.56.24.08,1.31.16,1.56.12.35-.06.48-.26.63-.53.2-.33.44-.74,1.24-.74.01,0,.02,0,.04,0,.91,0,1.43-.46,1.61-.68-.76-.31-1.45-.87-1.99-1.63-.05-.07-.04-.18.04-.23.07-.05.18-.04.23.04.53.75,1.21,1.29,1.95,1.56.05.02.07.03.1.06.03.03.08.11.03.24-.11.26-.78.98-1.98.98h-.04c-.61,0-.77.27-.95.58-.17.28-.36.6-.86.68-.3.05-1.43-.04-1.72-.13-.45-.15-.7.08-1.08.48-.3.32-.64.67-1.18.73-.1.01-.2.02-.29.02Z"/>
          <path class="cls-1" d="m27.64,85.09c-.05,0-.11,0-.16-.02-.16-.04-.27-.13-.36-.22-.07-.07-.13-.12-.21-.14-.06-.01-.17,0-.26.01-.03,0-.06,0-.08.01-.14.02-.26.06-.39.11-.28.1-.6.21-.99-.01-.18-.11-.3-.27-.42-.42-.07-.1-.14-.19-.23-.26l-.04-.04c-.07-.06-.14-.13-.21-.15,0,0-.02,0-.04,0-.12-.01-.17-.02-.22-.09-.03-.04-.03-.09-.02-.14.02-.06.06-.1.15-.19.18-.19.57-.58.69-1.09.02-.09.11-.14.2-.12.09.02.14.11.12.2-.13.52-.47.92-.69,1.15.09.05.17.12.24.18l.04.04c.11.09.19.2.27.31.1.14.2.26.32.34.26.15.45.08.71-.01.14-.05.29-.1.46-.12h.07c.11-.03.26-.05.38-.02.16.04.26.13.35.22.07.07.13.12.21.14.14.03.32-.02.5-.07.14-.04.29-.08.43-.09.03,0,.08,0,.15.01.04,0,.13.01.2.02-.11-.23-.31-.67-.31-1.35,0-.09.07-.16.16-.16s.16.07.16.16c0,.64.19,1.03.29,1.23.06.13.12.24.04.34-.1.12-.29.11-.58.08-.04,0-.08,0-.1,0-.11,0-.23.04-.36.08-.16.04-.33.09-.49.09Zm-3.46-1.31h0,0Z"/>
          <path class="cls-1" d="m39.48,83.41c-.08,0-.15-.06-.16-.14-.02-.09.04-.18.13-.19.22-.04.32-.16.44-.28.11-.12.23-.26.44-.26.1,0,.21.02.33.05.22.05.46.1.74.03.17-.05.18-.11.21-.25.02-.13.06-.3.23-.42.13-.09.28-.17.42-.22-.19-.13-.47-.38-.77-1.03-.04-.08,0-.18.08-.22.08-.04.18,0,.22.08.34.72.61.88.76.96.08.05.18.1.21.23.01.04,0,.09-.02.13-.05.08-.13.1-.29.14h-.04c-.13.06-.27.13-.39.21-.06.04-.08.1-.1.21-.03.16-.08.41-.45.51-.35.09-.67.03-.9-.03-.1-.02-.19-.04-.26-.04-.06,0-.1.04-.2.15-.12.14-.29.33-.62.39,0,0-.02,0-.03,0Zm2.97-1.57h0,0Z"/>
          <path class="cls-1" d="m31.24,70.12c-.09,0-.16-.07-.16-.16s.07-.16.16-.16c.69,0,1.37-.06,1.93-.16.09-.02.18.04.19.13.02.09-.04.18-.13.19-.58.11-1.29.17-1.99.17Z"/>
          <path class="cls-1" d="m36.57,71.05s-.07,0-.1,0c-.09-.01-.53-.15-.74-1.35-.02-.09.04-.18.13-.19.09-.01.17.04.19.13.14.81.39,1.06.47,1.08.04,0,.09,0,.11-.01.02-.02.09-.13,0-.59-.03-.16-.05-.3-.06-.42-.05-.39-.07-.45-.28-.5-.38-.08-1.35-.02-1.8.31-.07.05-.18.04-.23-.03-.05-.07-.04-.18.03-.23.55-.4,1.63-.46,2.06-.37.46.09.5.41.54.78.01.12.03.25.06.39.09.45.06.73-.09.89-.06.06-.15.12-.3.12Z"/>
        </g>
        <g>
          <path class="cls-6" d="m59.48,76.62c-.11-.31-.3-1.41-.3-1.41,0,0-.19,1.19-.25,1.44-.06.22-.89.35-.89.35,0,0,.81.12.89.36.09.24.3,1.56.3,1.56,0,0,.21-1.29.27-1.56.06-.25.88-.38.88-.38,0,0-.81-.12-.9-.37Z"/>
          <path class="cls-6" d="m66.86,72.69c-.11-.31-.3-1.41-.3-1.41,0,0-.19,1.19-.25,1.44-.06.22-.89.35-.89.35,0,0,.81.12.89.36.09.24.3,1.56.3,1.56,0,0,.21-1.29.27-1.56.06-.25.88-.38.88-.38,0,0-.81-.12-.9-.37Z"/>
          <path class="cls-6" d="m75.23,85.68c-.11-.31-.3-1.41-.3-1.41,0,0-.19,1.19-.25,1.44-.06.22-.89.35-.89.35,0,0,.81.12.89.36.09.24.3,1.56.3,1.56,0,0,.21-1.29.27-1.56.06-.25.88-.38.88-.38,0,0-.81-.12-.9-.37Z"/>
          <path class="cls-6" d="m21.22,56.98c-.13-.34-.33-1.55-.33-1.55,0,0-.21,1.31-.28,1.58-.07.25-.98.39-.98.39,0,0,.89.14.98.39.09.26.33,1.72.33,1.72,0,0,.24-1.41.3-1.71.06-.28.97-.41.97-.41,0,0-.89-.14-.99-.4Z"/>
          <path class="cls-6" d="m26.6,63.37c-.11-.31-.3-1.41-.3-1.41,0,0-.19,1.19-.25,1.44-.06.22-.89.35-.89.35,0,0,.81.12.89.36.08.23.3,1.56.3,1.56,0,0,.21-1.29.27-1.56.06-.25.88-.38.88-.38,0,0-.81-.12-.9-.37Z"/>
          <path class="cls-6" d="m39.11,65.4c-.11-.31-.3-1.41-.3-1.41,0,0-.19,1.19-.25,1.44-.06.22-.89.35-.89.35,0,0,.81.12.89.36.08.24.3,1.56.3,1.56,0,0,.21-1.29.27-1.56.06-.25.88-.38.88-.38,0,0-.81-.12-.9-.37Z"/>
          <path class="cls-6" d="m1.45,63.52c-.11-.31-.3-1.41-.3-1.41,0,0-.19,1.19-.25,1.44-.06.22-.89.35-.89.35,0,0,.81.12.89.36.08.24.3,1.56.3,1.56,0,0,.21-1.29.27-1.56.06-.25.88-.38.88-.38,0,0-.81-.12-.9-.37Z"/>
          <path class="cls-6" d="m23.97,92.27c-.11-.29-.29-1.33-.29-1.33,0,0-.18,1.12-.24,1.36-.06.21-.84.33-.84.33,0,0,.76.12.84.34.08.22.28,1.47.28,1.47,0,0,.2-1.21.26-1.47.05-.24.83-.35.83-.35,0,0-.76-.12-.85-.34Z"/>
        </g>
      </g>
    </g>
  </g>
</svg>