<?xml version="1.0" encoding="UTF-8"?>
<svg id="_レイヤー_2" data-name="レイヤー 2" xmlns="http://www.w3.org/2000/svg" viewBox="0 0 96.51 156.12">
  <defs>
    <style>
      .cls-1, .cls-2 {
        fill: #262626;
      }

      .cls-3 {
        fill: #fff;
      }

      .cls-4, .cls-5, .cls-6, .cls-7, .cls-8, .cls-2, .cls-9, .cls-10 {
        fill-rule: evenodd;
      }

      .cls-4, .cls-11 {
        fill: #ffddc0;
      }

      .cls-12 {
        fill: #9b9587;
      }

      .cls-13 {
        fill: none;
        stroke: #262626;
        stroke-linecap: round;
        stroke-linejoin: round;
      }

      .cls-5, .cls-14 {
        fill: #fffeff;
      }

      .cls-15, .cls-6 {
        fill: #f2a37b;
      }

      .cls-7 {
        fill: #fefefe;
      }

      .cls-8 {
        fill: #fefeff;
      }

      .cls-16, .cls-9 {
        fill: #fbd28d;
      }

      .cls-17 {
        fill: #bdd08a;
      }

      .cls-18 {
        fill: #fff400;
      }

      .cls-10 {
        fill: #d7978e;
      }
    </style>
  </defs>
  <g id="text">
    <g>
      <g>
        <g>
          <path class="cls-3" d="m63.19,14.47c-.6-5.97-4.65-11.3-10.73-13.23-4.79-1.52-9.78-.59-13.6,2.09-3.84-2.67-8.84-3.58-13.63-2.03-6.08,1.97-10.11,7.34-10.67,13.33-5.9,2.12-10.16,7.71-10.26,14.35-.11,6.84,4.23,12.71,10.34,14.86.58,5.98,4.63,11.32,10.71,13.27,1.57.5,3.16.74,4.72.74,3.21,0,6.31-1.01,8.89-2.81,3.83,2.67,8.83,3.59,13.62,2.05.72-.23,1.41-.52,2.07-.84,2.24,2.34,5.24,4.41,8.85,4.36-1.46-.38-3.85-4.14-4.34-7.69,2.32-2.49,3.78-5.7,4.11-9.12,5.96-2.12,10.22-7.78,10.3-14.4,0,0,0,0,0-.01.11-6.86-4.24-12.75-10.38-14.89Z"/>
          <path class="cls-13" d="m63.19,14.47c-.6-5.97-4.65-11.3-10.73-13.23-4.79-1.52-9.78-.59-13.6,2.09-3.84-2.67-8.84-3.58-13.63-2.03-6.08,1.97-10.11,7.34-10.67,13.33-5.9,2.12-10.16,7.71-10.26,14.35-.11,6.84,4.23,12.71,10.34,14.86.58,5.98,4.63,11.32,10.71,13.27,1.57.5,3.16.74,4.72.74,3.21,0,6.31-1.01,8.89-2.81,3.83,2.67,8.83,3.59,13.62,2.05.72-.23,1.41-.52,2.07-.84,2.24,2.34,5.24,4.41,8.85,4.36-1.46-.38-3.85-4.14-4.34-7.69,2.32-2.49,3.78-5.7,4.11-9.12,5.96-2.12,10.22-7.78,10.3-14.4,0,0,0,0,0-.01.11-6.86-4.24-12.75-10.38-14.89Z"/>
        </g>
        <g>
          <path class="cls-1" d="m21.4,27.48c-.65,1.05-1.8,2.49-3.07,3.52.51.51,1.04,1.1,1.4,1.52l-1.05.84c-.38-.5-1.13-1.35-1.72-1.94-.52-.53-1.44-1.34-1.98-1.73l.95-.77c.36.27.95.76,1.52,1.25,1.02-.81,1.86-1.85,2.29-2.59h-4.76c-.36,0-.85.05-1.04.06v-1.26c.23.04.73.08,1.04.08h5c.34,0,.65-.04.84-.1l.9.74c-.13.14-.23.26-.31.38Z"/>
          <path class="cls-1" d="m26.15,27.66c.93-.58,1.95-1.48,2.54-2.19l.97.93c-.68.68-1.55,1.38-2.42,1.95v3.64c0,.4.02.95.08,1.18h-1.42c.04-.22.06-.78.06-1.18v-2.88c-.93.49-2.07.97-3.18,1.3l-.57-1.13c1.61-.41,2.93-1,3.93-1.61Z"/>
          <path class="cls-1" d="m31.43,31.95l-.98-.67c.6-.57,1.32-1.56,1.69-2.32l1.03.48c-.41.8-1.25,1.98-1.74,2.51Zm3.77-5.6v.72h2.09c.26,0,.65-.03.89-.06v1.18c-.28-.02-.63-.03-.88-.03h-2.1v4.19c0,.52-.31.85-.95.85-.48,0-1.01-.02-1.46-.08l-.12-1.12c.39.07.78.11,1.01.11s.32-.09.32-.32c0-.33,0-3.19,0-3.61h0s-2.29,0-2.29,0c-.27,0-.61,0-.86.04v-1.19c.27.03.59.06.86.06h2.29v-.72c0-.23-.04-.63-.07-.78h1.33c-.03.13-.08.56-.08.78Zm3.37,4.95l-1.05.58c-.39-.77-1.03-1.85-1.47-2.41l.98-.53c.46.58,1.18,1.71,1.54,2.37Z"/>
          <path class="cls-1" d="m41.11,28.66h4.83c.42,0,.82-.04,1.05-.05v1.41c-.22,0-.68-.04-1.05-.04h-4.83c-.51,0-1.12.02-1.45.04v-1.41c.32.03.98.05,1.45.05Z"/>
          <path class="cls-1" d="m51.57,26.99c-.29.88-1.02,3.17-1.47,4.38,1.1-.11,2.38-.25,3.29-.36-.31-.65-.65-1.25-.95-1.65l1.13-.46c.64.97,1.56,2.74,1.97,3.75l-1.22.54c-.12-.31-.26-.68-.43-1.06-1.46.17-4.19.46-5.32.58-.23.03-.56.07-.85.11l-.21-1.31c.31,0,.69,0,.99,0,.07,0,.16,0,.24,0,.52-1.33,1.3-3.8,1.56-4.74.13-.46.18-.74.22-1.04l1.43.3c-.12.27-.25.6-.39,1Z"/>
          <path class="cls-1" d="m59.72,26.46c.86-.05,1.76-.13,2.55-.26v1.04c-.86.13-1.97.2-2.94.22-.15.33-.33.66-.51.92.23-.11.72-.18,1.02-.18.55,0,1,.23,1.2.69.47-.22.85-.37,1.22-.53.35-.15.67-.3,1-.47l.45,1.04c-.29.08-.77.26-1.07.38-.41.16-.92.36-1.47.61,0,.5.03,1.17.04,1.58h-1.08c.03-.27.04-.7.04-1.1-.68.39-1.04.74-1.04,1.19,0,.5.42.63,1.31.63.77,0,1.76-.1,2.56-.25l-.04,1.16c-.59.08-1.7.15-2.55.15-1.41,0-2.46-.34-2.46-1.5s1.08-1.87,2.11-2.4c-.13-.23-.38-.31-.63-.31-.5,0-1.06.29-1.4.62-.27.27-.53.59-.84.99l-.96-.72c.95-.87,1.58-1.67,1.99-2.48h-.12c-.37,0-1.03-.02-1.52-.05v-1.05c.46.07,1.13.11,1.58.11h.43c.1-.36.16-.71.18-1.04l1.19.1c-.05.23-.11.52-.23.9Z"/>
        </g>
        <g>
          <path class="cls-1" d="m23.91,14.42c.64.92,1.62,1.76,2.56,2.2-.18.18-.34.41-.47.62-.38-.22-.77-.5-1.13-.8v.5h-2.54v-.48c-.34.29-.72.56-1.11.8-.09-.17-.29-.42-.45-.57,1.01-.56,1.98-1.52,2.43-2.27h.71Zm1.16,3.06l.57.17c-.29.74-.73,1.67-1.1,2.43l-.76-.21c.26-.52.57-1.16.8-1.68h-3.08v-.67h3.44l.13-.04Zm-.4-1.2c-.44-.38-.83-.79-1.09-1.16-.26.37-.62.78-1.06,1.16h2.15Z"/>
          <path class="cls-1" d="m29.26,15.34c-.04.18-.08.4-.13.62.2-.01.38-.02.5-.02.64,0,1.09.28,1.09,1.15,0,.71-.08,1.68-.34,2.2-.2.42-.53.55-.98.55-.23,0-.52-.04-.72-.08l-.13-.79c.23.07.58.13.73.13.2,0,.35-.06.45-.26.16-.34.25-1.07.25-1.66,0-.48-.21-.55-.58-.55-.1,0-.25.01-.42.02-.23.91-.67,2.33-1.22,3.21l-.78-.31c.58-.79,1-2,1.22-2.82-.22.02-.41.05-.52.06-.17.03-.49.07-.67.1l-.07-.82c.22.02.42,0,.64,0,.19,0,.47-.02.77-.05.08-.45.14-.89.13-1.27l.89.09c-.04.16-.08.35-.11.5Zm2.54.1l-.29.13c.36.56.81,1.56.98,2.09l-.76.35c-.16-.67-.58-1.72-1.01-2.25l.54-.23c-.12-.23-.27-.52-.41-.71l.47-.2c.15.22.37.6.48.82Zm.71-.28l-.47.2c-.13-.25-.32-.6-.49-.83l.48-.19c.16.23.38.61.48.82Z"/>
          <path class="cls-1" d="m35.37,15.13c.6-.08,1.21-.22,1.51-.36l.49.66c-.2.05-.36.09-.46.11-.29.08-.65.14-1.01.2v.95h1.51c.13,0,.41-.02.55-.04v.77c-.16-.01-.37-.02-.53-.02h-1.55c-.09,1.01-.52,1.86-1.54,2.47l-.76-.52c.91-.42,1.39-1.06,1.51-1.95h-1.65c-.19,0-.41.01-.56.02v-.77c.16.02.37.04.55.04h1.69v-.85c-.58.05-1.21.07-1.61.08l-.19-.7c.46.01,1.39,0,2.04-.1Z"/>
          <path class="cls-1" d="m40.22,16.18c.04.14.1.35.16.58.76-.14,1.6-.31,1.84-.36.11-.02.22-.05.31-.1l.48.34c-.25.53-.86,1.43-1.28,1.88l-.66-.33c.31-.28.73-.79.89-1.08-.14.02-.74.15-1.39.28.23.83.49,1.75.58,2.06.04.1.11.37.16.49l-.82.2c-.02-.16-.06-.36-.11-.53-.09-.32-.34-1.26-.55-2.07-.5.11-.94.2-1.12.24l-.19-.72c.19-.02.35-.04.55-.07.08-.01.3-.05.58-.1-.06-.23-.11-.43-.16-.56-.04-.16-.1-.3-.17-.43l.8-.19c.02.14.06.3.1.46Z"/>
          <path class="cls-1" d="m45.97,18.18c1.03-.61,1.81-1.52,2.18-2.33l.47.85c-.46.81-1.25,1.64-2.22,2.22-.61.37-1.38.7-2.23.85l-.5-.79c.94-.13,1.71-.44,2.3-.79Zm0-1.94l-.61.62c-.31-.34-1.06-.99-1.5-1.3l.56-.6c.42.28,1.2.91,1.55,1.27Z"/>
          <path class="cls-1" d="m53.15,15.84c-.2.47-.54,1.11-.94,1.65.59.52,1.32,1.28,1.67,1.72l-.68.59c-.39-.54-.95-1.15-1.51-1.7-.64.67-1.43,1.3-2.25,1.68l-.62-.65c.97-.36,1.9-1.09,2.46-1.72.4-.45.76-1.04.89-1.47h-2.03c-.25,0-.58.04-.71.04v-.85c.16.02.53.04.71.04h2.12c.26,0,.5-.04.62-.08l.49.37c-.05.07-.16.25-.21.37Z"/>
          <path class="cls-1" d="m55.23,19.06c0-.32.23-.53.53-.53s.53.22.53.53-.23.53-.53.53-.53-.22-.53-.53Zm.06-3.12l-.03-.89h1l-.03.89-.16,2.05h-.61l-.16-2.05Z"/>
        </g>
        <g>
          <path class="cls-1" d="m26.58,44.04c.2,0,.24-.1.27-.8.15.11.47.23.65.28-.08.95-.26,1.19-.86,1.19h-.79c-.71,0-.88-.22-.88-.89v-.96h-.73c-.13.95-.48,1.58-1.96,1.92-.07-.19-.26-.49-.4-.64,1.23-.23,1.49-.63,1.59-1.28h-.73v-3.52h3.92v3.52h-.98v.95c0,.19.04.22.26.22h.62Zm-3.14-3.69h2.51v-.37h-2.51v.37Zm0,.95h2.51v-.37h-2.51v.37Zm0,.95h2.51v-.37h-2.51v.37Z"/>
          <path class="cls-1" d="m28.66,40.78c.46-.14,1.69-.58,2.56-.58,1.09,0,1.94.62,1.94,1.73,0,1.36-1.3,2.23-3.41,2.34l-.35-.8c1.62-.04,2.9-.51,2.9-1.55,0-.56-.39-1-1.11-1-.88,0-2.3.6-2.93.87l-.34-.84c.22-.04.52-.12.74-.18Z"/>
          <path class="cls-1" d="m34.98,40.07c-.15.67-.36,1.92-.2,2.67.08-.19.19-.47.29-.7l.37.24c-.17.52-.34,1.12-.41,1.46-.02.09-.04.22-.04.29,0,.06,0,.16.01.25l-.67.07c-.13-.36-.34-1.2-.34-1.94,0-.98.12-1.91.19-2.39.03-.17.04-.37.04-.52l.89.09c-.05.14-.11.36-.14.49Zm3.09-.18v.77c.34-.02.65-.06.9-.11v.78c-.25.03-.56.05-.89.07v.25c0,1.42-.11,2.29-1.31,3.05l-.69-.55c.23-.1.53-.29.7-.48.46-.48.56-1.01.56-2.03v-.22c-.23,0-.45.01-.67.01-.26,0-.63-.02-.92-.03v-.76c.29.04.59.07.91.07.22,0,.45,0,.68-.01,0-.34-.01-.65-.02-.81-.01-.15-.04-.32-.07-.41h.87c-.02.13-.02.28-.03.41Z"/>
          <path class="cls-1" d="m40.84,39.71c.32,0,1.6-.02,1.94-.05.25-.02.38-.04.46-.07l.39.53c-.14.09-.28.17-.42.28-.32.23-.95.76-1.33,1.06.2-.05.38-.07.57-.07,1.02,0,1.79.64,1.79,1.51,0,.95-.72,1.7-2.17,1.7-.83,0-1.46-.38-1.46-.98,0-.49.44-.94,1.07-.94.74,0,1.19.46,1.28,1.03.33-.17.5-.45.5-.82,0-.54-.54-.91-1.25-.91-.92,0-1.52.49-2.16,1.22l-.55-.56c.43-.34,1.15-.95,1.5-1.25.34-.28.96-.78,1.25-1.04-.31,0-1.13.04-1.45.06-.16.01-.35.03-.49.05l-.02-.78c.17.02.38.03.55.03Zm1.08,4.2c.13,0,.24,0,.35-.02-.04-.39-.26-.64-.58-.64-.23,0-.37.14-.37.29,0,.22.25.37.61.37Z"/>
          <path class="cls-1" d="m46.5,39.68c.26,0,1.38-.05,1.75-.1.19-.02.33-.05.41-.07l.47.55c-.13.08-.35.23-.47.33-.43.34-1.02.84-1.43,1.16.8-.08,1.79-.14,2.53-.14v.71c-.58-.03-1.18-.04-1.54.01-.55.08-1.01.47-1.01.96s.38.66.91.72c.33.04.69.03.91.01l-.16.79c-1.54.07-2.43-.4-2.43-1.4,0-.37.21-.74.43-.95-.55.04-1.22.14-1.82.24l-.07-.73c.32-.03.74-.08,1.05-.12.54-.35,1.32-1.03,1.69-1.36-.25.02-.98.05-1.23.07-.15.01-.35.04-.54.05l-.04-.77c.19.02.37.02.57.02Zm3,1.44l-.46.2c-.12-.26-.23-.47-.4-.72l.44-.19c.14.22.29.47.41.71Zm.69-.28l-.45.2c-.13-.26-.26-.49-.43-.7l.44-.2c.14.2.32.48.44.7Z"/>
          <path class="cls-1" d="m51.15,43.77c0-.32.23-.53.53-.53s.53.22.53.53-.23.53-.53.53-.53-.22-.53-.53Zm.06-3.12l-.03-.89h1l-.03.89-.16,2.05h-.61l-.16-2.05Z"/>
          <path class="cls-1" d="m54.15,43.77c0-.32.23-.53.53-.53s.53.22.53.53-.23.53-.53.53-.53-.22-.53-.53Zm.06-3.12l-.03-.89h1l-.03.89-.16,2.05h-.61l-.16-2.05Z"/>
        </g>
      </g>
      <g>
        <g>
          <g>
            <g>
              <g>
                <path class="cls-11" d="m13.52,136.86c-.42.66-.87,1.31-1.41,1.88-1.19,1.25-2.18,1.34-2.4,2.11-.2.7.46,1.42.85,2.05.29.46.53,1.1.74,1.92.12.52.18.8.26,1.33.09.54.66.87,1.01.9.15.01.28-.04.29-.21.02-.13-.16.37.63.39.79.02.67-.38.67-.38.37.19.77.11.64-.3-.15-.41-.83-.57-1.22-1.66-.23-.67-.7-2.41-.68-3.28.02-.99.87-1.34,2.51-2.48l-1.87-2.26Z"/>
                <path class="cls-1" d="m14.5,147.08c-.13,0-.28-.04-.43-.12-.06-.03-.09-.11-.06-.18.03-.06.11-.09.18-.06.19.1.38.1.44.05.05-.04.03-.12,0-.19-.05-.12-.16-.23-.31-.36-.27-.25-.65-.59-.9-1.3-.19-.56-.71-2.38-.69-3.33.02-.88.64-1.3,1.76-2.04.24-.16.51-.34.81-.55.06-.04.14-.03.18.03.04.06.03.14-.03.18-.3.21-.57.39-.81.55-1.08.72-1.62,1.08-1.64,1.83-.02.84.43,2.54.67,3.23.23.65.56.95.83,1.19.17.15.32.29.39.47.09.27-.02.42-.09.48-.08.07-.18.1-.31.1Z"/>
                <path class="cls-1" d="m12.59,147.18s-.03,0-.05,0c-.41-.04-1.03-.42-1.13-1.01-.08-.52-.14-.79-.26-1.32-.2-.8-.44-1.43-.72-1.88-.07-.12-.16-.24-.24-.37-.37-.54-.79-1.16-.62-1.78.13-.46.51-.7.98-1.01.41-.26.91-.59,1.46-1.16.46-.49.89-1.06,1.4-1.86.04-.06.12-.08.18-.04.06.04.08.12.04.18-.32.5-.81,1.25-1.43,1.9-.57.6-1.09.93-1.51,1.2-.46.3-.76.49-.87.85-.14.5.23,1.04.58,1.56.09.13.17.25.25.38.29.47.55,1.12.75,1.96.12.53.18.81.27,1.34.07.46.57.76.89.79.05,0,.1,0,.12-.02,0,0,.02-.02.02-.06,0-.04-.11-.17-.18-.25-.08-.1-.18-.21-.24-.32-.04-.06-.02-.14.05-.18.06-.04.14-.02.18.05.05.09.14.19.22.29.15.18.26.31.24.45,0,.09-.05.18-.11.24-.07.06-.16.09-.27.09Z"/>
                <path class="cls-1" d="m13.09,147.36c-.11,0-.24-.06-.4-.17-.06-.04-.07-.12-.03-.18.04-.06.12-.07.18-.03.16.12.24.12.26.12,0,0,.02-.03.03-.1.01-.18-.07-.38-.17-.62l-.03-.08c-.03-.07,0-.14.07-.17.07-.03.14,0,.17.07l.03.08c.11.26.2.49.19.74-.01.2-.11.28-.18.32-.04.02-.08.03-.12.03Z"/>
                <path class="cls-1" d="m13.47,147.39c-.1,0-.2-.05-.29-.13-.05-.05-.05-.13,0-.19.05-.05.13-.05.19,0,.04.04.09.06.11.05.02,0,.04-.03.05-.08.03-.13-.02-.3-.08-.51-.02-.07-.04-.14-.06-.22-.02-.07.02-.14.09-.16.07-.02.14.02.16.09.02.07.04.14.06.21.07.24.14.45.09.66-.06.19-.18.25-.24.26-.02,0-.05,0-.07,0Z"/>
                <path class="cls-1" d="m13.98,147.37c-.15,0-.31-.11-.36-.15-.06-.04-.07-.13-.03-.18.04-.06.13-.07.18-.03.16.12.21.1.22.1,0,0,.03-.06.01-.18-.01-.14-.05-.26-.12-.44-.02-.07-.05-.15-.08-.24-.02-.07.02-.14.08-.17.07-.02.14.02.17.08.03.09.05.16.08.23.07.19.12.33.13.51.02.22-.03.36-.15.43-.04.02-.09.03-.13.03Z"/>
                <path class="cls-1" d="m11.6,140.17s-.02,0-.03,0c-.07-.02-.12-.09-.1-.16.1-.45.41-.65.69-.83.19-.12.36-.23.47-.4.04-.06.12-.08.18-.04.06.04.08.12.04.18-.14.22-.35.36-.55.49-.27.17-.5.32-.58.66-.01.06-.07.1-.13.1Z"/>
                <path class="cls-15" d="m20.69,121.76c.21.72.4,1.41.56,2.04.84,3.38,2.1,8.52,1.81,9.81-.48,2.1-3.13,4.16-5.56,5.24-2.44,1.08-3.88,2.16-3.88,2.16-1.14.54-2.71-.97-2.02-1.89,0,0,1.29-2.92,3.29-5.33,1.73-2.09,2.37-1.43,2.37-1.43l1.66-15.1,1.78,4.5Z"/>
                <path class="cls-11" d="m22.99,155.9s.6.12.6-.09c0-.25-.07-.43-.5-.78l-.11.87Z"/>
                <path class="cls-11" d="m23.56,155.88s.59.07.6-.18c.02-.23-.16-.41-.55-.73l-.05.91Z"/>
                <path class="cls-11" d="m24.2,155.81s.34.07.37-.18c.04-.16-.11-.36-.52-.69l.14.87Z"/>
                <path class="cls-11" d="m22.15,143.8c-.25,1.81-.53,2.83-.96,3.82-.57,1.32-1.01,1.65-1.33,2.4-.18.43-.04.68.36,1.21.41.53.89,1,.93,2.53.04,1.57.18,1.94.43,2.06.25.12,1.39.3,1.48,0,.05-.16,1.58-.3,1.58-.3,0,0,.28-.02.21-.25-.09-.23-.59-.43-.91-.64-.34-.21-.66-1.07-.68-1.96s-.27-2.33.11-4.22c.12-.71.64-1.99,1.28-3.52l-2.49-1.14Z"/>
                <g>
                  <path class="cls-1" d="m24.62,155.66c-.07,0-.13-.05-.13-.12,0-.07.05-.14.12-.14.04,0,.09-.02.1-.04,0,0,0-.02,0-.04-.04-.11-.31-.25-.52-.37-.12-.06-.23-.13-.34-.2-.39-.25-.72-1.16-.73-2.06,0-.2-.02-.43-.04-.69-.06-.88-.14-2.08.15-3.56.13-.74.68-2.1,1.29-3.55.03-.07.11-.1.17-.07.07.03.1.11.07.17-.6,1.43-1.15,2.77-1.27,3.49-.29,1.44-.2,2.63-.14,3.49.02.26.03.49.04.7.02.87.34,1.67.61,1.85.1.06.21.13.32.19.29.16.56.31.64.52.04.14,0,.22-.03.28-.09.13-.28.15-.3.15,0,0,0,0,0,0Z"/>
                  <path class="cls-1" d="m22.54,156.12c-.4,0-.88-.1-1.04-.18-.3-.15-.46-.53-.5-2.18-.03-1.35-.41-1.83-.78-2.3-.04-.05-.08-.1-.11-.14-.38-.52-.58-.83-.37-1.34.14-.33.31-.58.5-.87.24-.37.52-.79.84-1.53.38-.89.69-1.87.95-3.79,0-.07.08-.12.15-.11.07,0,.12.08.11.15-.23,1.69-.5,2.77-.97,3.86-.33.76-.61,1.19-.86,1.57-.18.28-.34.52-.47.83-.14.35-.06.53.34,1.08.03.05.07.09.11.14.38.48.81,1.03.84,2.46.03,1.49.17,1.85.35,1.95.17.09.92.22,1.23.12.05-.02.06-.04.06-.04.03-.09-.06-.23-.2-.33-.04-.03-.08-.05-.12-.08-.18-.12-.39-.25-.46-.45-.02-.07.01-.14.08-.17.07-.02.14.01.17.08.04.11.22.22.36.32.05.03.09.06.13.08.21.14.38.39.3.63-.02.05-.06.14-.19.19-.11.05-.27.07-.44.07Z"/>
                  <path class="cls-1" d="m23.31,156.07c-.15,0-.29-.03-.35-.04-.07-.01-.12-.08-.1-.16.01-.07.08-.12.16-.1.18.04.38.04.45.02,0-.18-.05-.32-.45-.66-.06-.05-.06-.13-.02-.19.05-.06.13-.06.19-.02.41.34.55.56.55.88,0,.07-.03.13-.08.18-.08.06-.2.08-.33.08Z"/>
                  <path class="cls-1" d="m23.73,156.02c-.09,0-.16,0-.19-.01-.07,0-.12-.07-.11-.15,0-.07.07-.12.15-.12.14.02.38.01.45-.05.02-.18-.13-.33-.5-.63-.06-.05-.06-.13-.02-.19.05-.06.13-.06.19-.02.39.32.62.53.6.84,0,.08-.04.14-.1.19-.11.09-.31.11-.46.11Z"/>
                  <path class="cls-1" d="m24.3,155.95c-.07,0-.12,0-.13-.01-.07-.01-.12-.08-.1-.16.01-.07.08-.12.16-.1.04,0,.14.01.19-.02.01,0,.02-.02.03-.05.03-.16-.34-.47-.47-.57-.06-.05-.06-.13-.02-.19.05-.06.13-.06.19-.02.39.32.62.57.56.82-.01.09-.06.17-.13.22-.08.06-.19.07-.27.07Z"/>
                </g>
                <path class="cls-15" d="m26.82,115.15c-.12.73.8,6.15.92,8.4.12,2.25-1.44,9.95-1.44,10.91s.06,4.75-.6,7.76c-.66,3.01-2.1,7.66-2.1,7.66-1.42-.25-2.5-.72-3.09-1.5,0,0,.82-2.62.91-5.33.08-2.3-.36-4.37.17-6.98l-1.63-15.88,6.87-5.03Z"/>
                <path class="cls-15" d="m18.15,98.32c-1.92-1.17-1.41-2.34-1.26-3.16.15-.81.36-3.58.36-3.58l-1.56-3.87s2.19.39,3.07,1.02c1.13-.61,2.33-.92,3.62-.85l3.32-2.7s.41,2.98,0,6.11c0,0,1.4,2.01,1.39,4.42,0,1.96-1.44,3.73-2.74,4.45l-2.22.63-3.97-2.47Z"/>
                <path class="cls-14" d="m23.43,88.16l1.46-1.08v2.71s-.74-1.15-1.46-1.62Z"/>
                <path class="cls-14" d="m17.64,90.59l-.56-1.48,1.29.37s-.54.57-.72,1.11Z"/>
                <path class="cls-11" d="m11.32,78.9s-.38.81-.36,1.14c.02.33.69.35.69.35l-.33-1.49Z"/>
                <path class="cls-11" d="m12.36,83.66c.61-1.09,1.36-3.2,1.26-3.77-.21-1.17-.44-2.12-.59-2.77-.17-.75-.34-1.12-.48-1.05-.17.07-.21.23-.15.65.06.42.2,1.54.2,2.33,0,.37-.05-.25-.05-.25l-.47-.25-.39.04s-.18-.44-.45-.35c-.3.09-.02.81.07,1.51.08.7.07,1.09.31,1.81.26.73-.85,1.54-.85,1.54l1.59.58Z"/>
                <path class="cls-1" d="m10.77,83.22s-.08-.02-.11-.05c-.04-.06-.03-.14.03-.18.01,0,1.03-.76.8-1.38-.19-.57-.23-.93-.27-1.39-.01-.14-.03-.28-.05-.44-.02-.21-.07-.41-.11-.61-.1-.51-.19-.95.13-1.04.09-.03.18-.02.26.03.22.12.42.48.61,1.11.21.69.57,1.06.57,1.06.05.05.05.14,0,.19-.05.05-.14.05-.19,0-.02-.02-.4-.42-.63-1.17-.23-.75-.41-.92-.48-.95-.03-.02-.05-.01-.06,0-.1.03-.01.46.05.74.04.19.09.42.11.63.02.16.03.31.05.45.04.44.08.79.26,1.33.29.81-.85,1.65-.9,1.68-.02.02-.05.03-.08.03Z"/>
                <path class="cls-1" d="m12.36,83.8s-.04,0-.06-.02c-.06-.04-.09-.12-.05-.18.6-1.07,1.34-3.16,1.24-3.68-.16-.88-.33-1.64-.47-2.24-.04-.19-.08-.37-.12-.52-.16-.72-.28-.91-.32-.95-.06.03-.1.11-.05.5.05.34.2,1.52.2,2.35,0,.41-.35.98-.36,1.01-.04.06-.12.08-.18.04-.06-.04-.08-.12-.04-.18.09-.15.33-.59.32-.87,0-.81-.16-1.97-.2-2.31-.05-.36-.07-.66.23-.79.06-.03.12-.03.18,0,.12.06.28.24.48,1.14.03.16.07.33.12.52.14.61.31,1.37.47,2.25.12.64-.69,2.82-1.27,3.86-.02.04-.07.07-.12.07Zm.25-7.61s0,0,0,0c0,0,0,0,0,0Z"/>
                <path class="cls-1" d="m11.32,80.52s-.02,0-.03,0c-.55-.12-.48-.6-.44-.88.05-.36.18-.63.19-.64.03-.06.11-.09.18-.06.06.03.09.11.06.18,0,0-.12.24-.16.56-.06.41,0,.53.24.59.07.02.12.09.1.16-.01.06-.07.1-.13.1Z"/>
                <path class="cls-1" d="m12.19,79.45s-.06,0-.08-.03c-.07-.06-.1-.07-.11-.07-.07.02-.14-.02-.16-.09s.03-.14.1-.16c.14-.04.27.07.34.12.06.04.07.13.02.18-.03.03-.06.05-.1.05Z"/>
                <path class="cls-15" d="m10.72,90.26c1.03-1.58,2.57-7.17,2.57-7.17-.35-.67-1.75-1.2-2.48-.92,0,0-3.6,7.07-3.92,8.09-.42,1.32,1.26,3.8,2.33,5.57,1.02,1.69,4.12,5.59,4.87,6.22,0,0,.54,5.61.69,10.08,0,0-1.32,3.81-1.65,6.93s2.41,8.69,3.04,10.25c.63,1.56,1.32,3.82,1.32,3.82l10.15-24.87-3.98-5.66-7.12-6.2-5.82-6.13Z"/>
                <path class="cls-5" d="m24.26,109.44s2.12-2.54,3.39-1.18l-.4,2.54s-.27,2.21-.43,4.53c-.11,1.58,0,3.12-.41,4.41-.21.66-.75,1.34-1.04,1.69-1.73,2.06-4.11,2.37-4.11,2.37l-2.51-7.92s-1.44-3.65-2.19-4.91c-.38-.64-.64-2.45.21-3.32.93-.96,3.02-.97,3.33-.95,1.15.08,4.16,2.74,4.16,2.74Z"/>
                <path class="cls-11" d="m34.61,119.47c-.03.29-.07.86-.44,1.08-.38.23-1.02.6-1.25.11-.05-.09-.19-.53-.19-.53l.34-1.77,1.54,1.1Z"/>
                <path class="cls-11" d="m30.45,116.79s.49.35.87.79c.38.43.72,1.69,1.13,2.21.41.51.57.99.83,1,.25.02.31-.28.21-.66-.08-.38-.3-.55-.44-.9-.04-.1.02-.25.19-.31.23-.08,1.07.36,1.26.46.48.25,1.04.73,1.58,1.03.36.21.77.36.9.22.28-.26-.58-.68-1.14-1.17-.57-.5-1.72-1.51-2.4-2-.8-.57-2.01-1.99-2.01-1.99l-.99,1.33Z"/>
                <path class="cls-1" d="m33.3,120.92s-.02,0-.04,0c-.23,0-.37-.23-.55-.52-.1-.16-.22-.34-.37-.53-.21-.27-.4-.72-.58-1.15-.18-.42-.36-.85-.54-1.06-.37-.42-.85-.76-.85-.77-.06-.04-.07-.12-.03-.18.04-.06.12-.07.18-.03.02.01.51.37.9.81.21.24.39.67.59,1.13.18.42.36.84.55,1.09.16.2.28.39.38.55.13.21.25.4.34.4.05,0,.07-.01.07-.02.04-.05.07-.21,0-.48-.04-.2-.13-.34-.22-.49-.07-.12-.15-.23-.21-.39-.03-.08-.03-.18.01-.26.05-.1.14-.18.25-.22.07-.03.3-.1,1.37.47.25.13.51.31.78.51.26.19.54.38.8.52.44.25.71.28.75.25.02-.02.02-.02.02-.02,0-.11-.34-.35-.59-.53-.19-.14-.39-.28-.56-.43l-.19-.17c-.59-.52-1.59-1.39-2.19-1.82-.8-.57-1.99-1.95-2.04-2.01-.05-.06-.04-.14.01-.19.06-.05.14-.04.19.01.01.01,1.21,1.42,1.99,1.97.61.44,1.61,1.32,2.21,1.84l.19.17c.17.15.36.28.54.42.38.28.68.49.7.73,0,.06,0,.15-.09.23-.21.21-.69,0-1.06-.2-.28-.15-.56-.35-.83-.54-.27-.19-.52-.37-.76-.49-.77-.41-1.1-.48-1.16-.45-.06.02-.09.06-.1.08-.01.03-.01.05,0,.06.05.13.12.24.19.35.1.16.2.33.26.57.06.23.09.54-.06.71-.05.05-.13.11-.25.11Z"/>
                <path class="cls-1" d="m33.5,120.31c-.05,0-.11-.03-.12-.09-.02-.07.01-.14.08-.17.17-.06.37-.36.4-.76,0-.07.07-.13.14-.12.07,0,.13.07.12.14-.03.47-.27.89-.57.99-.01,0-.03,0-.04,0Z"/>
                <path class="cls-1" d="m33.3,121.04c-.06,0-.12,0-.17-.02-.14-.04-.25-.14-.33-.29-.05-.09-.17-.47-.2-.54-.02-.07.01-.14.08-.17.07-.02.14.01.17.08.06.18.15.45.18.51.04.09.09.13.17.16.25.07.69-.19.9-.32.29-.18.34-.62.37-.91v-.07c.02-.07.08-.12.15-.12.07,0,.12.07.12.15v.07c-.04.32-.1.87-.5,1.11-.3.18-.64.37-.94.37Z"/>
                <path class="cls-15" d="m13.64,122.79s-.76,7.22-5.26,9.56c-.59.31-1.15.53-1.68.68h0c-4.23,1.24-6.56-1.89-6.56-1.89,0,0,1.69.04,4-.98h0c2.72-1.2,6.3-3.88,8.99-9.84l.5,2.46Z"/>
                <path class="cls-14" d="m6.7,133.04c-4.23,1.24-6.56-1.89-6.56-1.89,0,0,1.69.04,4-.98h.9l-.66.65,1.14.42-.51.63.78.36-.21.51,1.12.29Z"/>
                <g>
                  <path class="cls-10" d="m20.17,89.35c-.2.28-.78.21-.78.21l-.69.42s-.31.65-.61,1.45c-.21.56-.43,1.12-.44,1.78-.02,1.12.54,1.76.54,1.76l3.88.87,1.91.97s.25,0,.55-.13c.33-.14.81-.53.98-.88.33-.66-.13-1.72-.13-1.72,0,0,.25-.31.29-.78.05-.61-.44-1.51-.64-2.07-.22-.61-.49-1.1-.92-1.44-.48-.35-.64-.45-.64-.45,0,0-1.09-.59-1.89-.59s-1.4.61-1.4.61Z"/>
                  <path class="cls-4" d="m24.99,95.52s-.3-.77-.76-1.18c-.31-.27-.83-1.14-.97-1.45-.12-.32-.36-1.41-.79-1.89-.41-.46-2.1.07-2.22.15-.45.25-.61,1.88-.61,1.88,0,0-.17.58-.3.89-.13.31-.48.73-.48.73,0,0-.58.11-.64.44-.06.32.13.9.35,1.09.22.17.56.26.56.26,0,0,.02.07.29.54.27.47.53.69.53.69l.14.77c.98.47,1.68,1.17,2.29,1.93l1.44-.96-.13-2.09s.23-.1.42-.59.24-.62.24-.62c0,0,.39-.12.57-.33.17-.19.08-.27.08-.27Z"/>
                  <path class="cls-1" d="m24.32,96.3c-.06,0-.12-.04-.13-.1-.02-.07.03-.14.1-.16.18-.04.44-.19.6-.5.03-.06.11-.09.18-.06.06.03.09.11.06.18-.2.39-.53.58-.78.63,0,0-.02,0-.03,0Z"/>
                  <path class="cls-1" d="m24.63,95.39l-.23-.14s.1-.17.15-.24c.04-.06.12-.08.18-.03.06.04.08.12.03.18-.05.07-.15.23-.15.23Z"/>
                  <path class="cls-7" d="m21.7,95.61c.52-.02,1.01-.13,1.01-.13,0,0-.05.96-.97,1.02-.83.05-1.05-.93-1.05-.93,0,0,.5.07,1.02.05Z"/>
                  <path class="cls-1" d="m19.12,96.53s0,0-.01,0c-.29-.03-.8-.29-.99-.91-.11-.35-.04-.71.16-.92.17-.18.43-.24.7-.17.07.02.11.09.09.16s-.09.11-.16.09c-.19-.05-.34-.02-.45.09-.14.14-.18.4-.1.66.15.49.54.71.76.72.07,0,.13.07.12.14,0,.07-.06.12-.13.12Z"/>
                  <path class="cls-1" d="m18.76,95.66s-.11-.15-.17-.22c-.05-.06-.04-.14.02-.19.06-.05.14-.04.19.02.06.07.17.23.17.23l-.21.16Z"/>
                  <path class="cls-1" d="m21.8,98.57c-.06,0-.12-.05-.13-.11-.01-.07.04-.14.11-.15h0s.6-.1,1.37-.68c.51-.38.67-.69.79-.98.09-.19.22-.52.29-.85.02-.07.09-.11.16-.1.07.02.11.09.1.16-.08.34-.21.7-.31.9-.12.3-.3.66-.87,1.08-.83.62-1.46.72-1.49.73,0,0-.01,0-.02,0Z"/>
                  <path class="cls-1" d="m21.44,95s-.07-.01-.09-.04c-.37-.38-.24-.56-.07-.74.07-.07.14-.14.16-.24.04-.17-.06-.44-.11-.57-.03-.07,0-.14.08-.17.07-.03.14,0,.17.08.09.25.17.5.12.72-.03.18-.14.29-.23.37-.12.12-.15.14.07.37.05.05.05.14,0,.19-.03.03-.06.04-.09.04Z"/>
                  <path class="cls-1" d="m23.23,92.33s-.06-.01-.09-.03c-.01-.01-.29-.26-.73-.14-.07.02-.14-.02-.16-.09-.02-.07.02-.14.09-.16.59-.17.97.18.98.2.05.05.06.13,0,.19-.03.03-.06.04-.1.04Z"/>
                  <path class="cls-1" d="m19.59,92.46s-.07-.01-.09-.04c-.05-.05-.05-.13,0-.19.02-.02.38-.39.98-.24.07.02.11.09.1.16-.02.07-.09.11-.16.1-.45-.11-.71.15-.72.16-.03.03-.06.04-.09.04Z"/>
                  <path class="cls-2" d="m23.7,97.44s-1.01.92-1.93.97c-.71.05-1.76-.73-1.76-.73,0,0,1.08,1.18,2.03,1.28.82.09,1.64-.71,1.64-.71l.02-.82Z"/>
                  <path class="cls-1" d="m21.81,98.58s0,0,0,0c-.03,0-.67-.05-1.54-.6-.63-.4-.84-.79-.96-1.03-.11-.19-.28-.59-.39-.93-.02-.07.02-.14.09-.16.07-.02.14.02.16.09.1.32.26.7.36.88.12.23.3.57.87.93.82.51,1.42.56,1.42.56.07,0,.13.07.12.14,0,.07-.06.12-.13.12Z"/>
                  <path class="cls-1" d="m23.81,99.28c-.06,0-.11-.04-.13-.1-.13-.5-.15-1.7-.15-1.75,0-.07.06-.13.13-.13.07,0,.13.06.13.13,0,.01.02,1.22.14,1.69.02.07-.02.14-.09.16-.01,0-.02,0-.03,0Z"/>
                  <path class="cls-1" d="m20.07,98.57c-.06,0-.12-.05-.13-.11l-.12-.81c-.01-.07.04-.14.11-.15.07-.01.14.04.15.11l.12.81c.01.07-.04.14-.11.15,0,0-.01,0-.02,0Z"/>
                  <path class="cls-1" d="m21.68,96.63c-.7,0-1.04-.67-1.12-1.04,0-.04,0-.09.03-.12.03-.03.07-.05.11-.04,0,0,.5.07.99.04h0c.5-.02.98-.13.99-.13.04,0,.08,0,.11.03.03.03.05.07.05.11-.02.37-.27,1.09-1.09,1.15-.02,0-.05,0-.07,0Zm-.8-.92c.1.25.35.68.86.65.58-.04.76-.47.82-.72-.19.03-.51.08-.85.1h0c-.32.01-.64,0-.84-.02Zm.83-.11h0,0Z"/>
                  <path class="cls-1" d="m18.63,94.38c-.07,0-.13-.06-.13-.13,0-.07.05-.13.13-.14.02,0,.63-.05.85-.97.05-.22.09-.43.13-.63.17-.9.3-1.56,1-1.64.07,0,.14.04.15.12,0,.07-.04.14-.12.15-.49.06-.6.5-.77,1.42-.04.2-.08.41-.13.64-.26,1.13-1.06,1.18-1.09,1.18h0Z"/>
                  <path class="cls-1" d="m24.48,96.94s-.09-.03-.12-.07c-.03-.06,0-.14.05-.18.28-.15.46-.36.52-.62.07-.32-.05-.71-.36-1.12-.14-.18-.28-.35-.41-.51-.52-.62-1.01-1.21-1.43-2.5-.29-.91-.6-1.33-.96-1.32-.1,0-.27.06-.53.29-.05.05-.14.05-.19,0-.05-.05-.05-.14,0-.19.25-.23.48-.35.69-.36.5-.02.89.46,1.22,1.5.4,1.24.85,1.78,1.38,2.41.14.16.28.33.42.52.36.47.5.94.41,1.34-.07.33-.3.6-.65.79-.02.01-.04.02-.06.02Z"/>
                  <path class="cls-1" d="m25.39,96.15s-.06,0-.08-.03c-.06-.05-.07-.13-.02-.19.58-.73-.12-2.03-.54-2.81-.08-.15-.15-.29-.21-.4-.26-.54-.41-1-.46-1.45,0-.07.04-.14.12-.15.07,0,.14.04.15.12.05.42.19.85.44,1.36.05.11.12.24.2.39.45.84,1.2,2.24.51,3.1-.03.03-.06.05-.1.05Z"/>
                  <path class="cls-1" d="m18.19,95.16s-.08-.02-.1-.05c-.73-.9-.61-1.96-.21-3.28v-.05c.42-1.35.69-2.24,1.94-2.37.07,0,.14.05.14.12,0,.07-.05.14-.12.14-1.07.11-1.29.85-1.7,2.18v.05c-.47,1.49-.42,2.34.15,3.04.05.06.04.14-.02.19-.02.02-.05.03-.08.03Z"/>
                  <path class="cls-1" d="m25.39,94.25s-.05,0-.07-.02c-.06-.04-.08-.12-.05-.18.43-.73.28-1.12-.35-2.76-.52-1.36-1.45-1.86-2.37-2.19-.67-.23-1.5-.23-1.95.02-.17.1-.28.22-.31.38-.02.07-.09.12-.16.1-.07-.02-.12-.09-.1-.16.05-.23.2-.42.44-.55.58-.32,1.53-.26,2.16-.04.98.35,1.96.88,2.53,2.34.65,1.69.83,2.14.33,2.98-.02.04-.07.06-.11.06Z"/>
                  <path class="cls-2" d="m23.24,93.69c0-.18-.14-.31-.28-.31-.14,0-.26.15-.25.33,0,.18.14.31.28.31.14,0,.26-.15.25-.33Z"/>
                  <path class="cls-2" d="m20.61,93.78c0-.18-.12-.32-.28-.31-.14,0-.26.15-.25.33s.12.32.28.31c.16,0,.26-.15.25-.33Z"/>
                </g>
                <path class="cls-1" d="m24.34,100.29s-.09-.02-.12-.07c-.04-.06-.01-.14.05-.18,1.32-.74,2.66-2.46,2.67-4.34.01-2.34-1.35-4.32-1.37-4.34-.02-.03-.03-.06-.02-.09.34-2.57.11-5.07.03-5.84l-3.13,2.55c-.06.05-.14.04-.19-.02-.05-.06-.04-.14.02-.19l3.32-2.7s.09-.04.13-.02c.04.02.08.06.08.1,0,.03.41,3,0,6.09.21.31,1.4,2.2,1.39,4.45,0,1.97-1.42,3.79-2.8,4.56-.02.01-.04.02-.06.02Z"/>
                <path class="cls-15" d="m26.82,115.15s2.37,2.33,4.51,3.23c.53-.06,1.55-1.23,1.41-1.98,0,0-1.69-2.28-3.84-3.99l-.03-1.04-.53-7.94c.02-2.49-1.58-4-2.98-3.93l-3.12.88c-.64-1.28-1.92-1.68-3.33-1.91l.12,2.3,8.61,7.51-.33,2.03-.49,4.85Z"/>
                <path class="cls-1" d="m18.15,98.45s-.05,0-.07-.02c-1.81-1.1-1.56-2.22-1.38-3.03.02-.09.04-.18.05-.26.14-.75.33-3.23.36-3.53l-1.55-3.84s-.01-.09.02-.13c.03-.04.08-.06.13-.05.09.02,2.23.4,3.12,1.04.06.04.07.12.03.18-.04.06-.12.07-.18.03-.67-.49-2.19-.83-2.78-.95l1.47,3.65s.01.04,0,.06c0,.11-.21,2.78-.36,3.59-.02.09-.04.17-.06.27-.17.78-.39,1.75,1.26,2.75.06.04.08.12.04.18-.02.04-.07.06-.11.06Z"/>
                <path class="cls-1" d="m18.54,89.28s-.04,0-.06-.01c-.06-.03-.09-.11-.06-.17.02-.03.41-.82,2.11-1.19,1.68-.36,2.43,0,2.46.01.07.03.09.11.06.18-.03.07-.11.09-.18.06,0,0-.71-.33-2.29.01-1.56.34-1.92,1.04-1.92,1.04-.02.05-.07.07-.12.07Z"/>
                <path class="cls-1" d="m24.89,89.91s-.09-.02-.11-.06c0-.01-.73-1.13-1.42-1.58-.04-.02-.06-.06-.06-.11,0-.04.02-.08.05-.11l1.46-1.08s.09-.03.14-.01c.04.02.07.07.07.12v2.71c0,.06-.04.11-.09.13-.01,0-.02,0-.04,0Zm-1.23-1.76c.43.34.85.86,1.1,1.2v-2.02l-1.1.82Z"/>
                <path class="cls-1" d="m17.64,90.73c-.05,0-.1-.03-.12-.08l-.56-1.48s0-.1.03-.14c.03-.04.09-.05.13-.04l1.29.37s.08.05.09.09c.01.04,0,.09-.03.13,0,0-.52.56-.69,1.06-.02.05-.07.09-.12.09h0Zm-.35-1.42l.36.94c.15-.28.35-.54.48-.69l-.83-.24Z"/>
                <path class="cls-1" d="m17.49,133.27c-.06,0-.11-.04-.13-.09,0-.02-.7-2.27-1.32-3.81-.09-.23-.24-.57-.41-.95-1.02-2.33-2.92-6.67-2.64-9.36.31-2.98,1.54-6.61,1.65-6.94-.14-4.19-.63-9.42-.69-10-.83-.74-3.85-4.54-4.86-6.21-.12-.2-.25-.41-.38-.62-1.05-1.7-2.36-3.83-1.96-5.06.32-1.02,3.79-7.82,3.93-8.11.01-.03.04-.05.07-.06.78-.3,2.26.24,2.64.98.02.03.02.06.01.09-.06.24-1.57,5.99-2.83,7.55-.05.06-.13.07-.19.02-.06-.05-.07-.13-.02-.19,1.17-1.45,2.61-6.82,2.77-7.4-.35-.58-1.59-1.04-2.24-.83-.31.62-3.59,7.07-3.89,8.02-.36,1.12.92,3.18,1.94,4.84.13.21.26.42.38.62,1.02,1.69,4.09,5.55,4.84,6.18.03.02.04.05.05.09,0,.06.54,5.66.69,10.09,0,.02,0,.03,0,.05-.01.04-1.32,3.83-1.65,6.9-.28,2.62,1.68,7.08,2.62,9.23.18.4.32.72.41.96.63,1.55,1.32,3.81,1.33,3.83.02.07-.02.14-.09.16-.01,0-.03,0-.04,0Z"/>
                <path class="cls-1" d="m4.78,133.45c-3.04,0-4.72-2.2-4.74-2.23-.03-.04-.03-.09-.01-.14s.06-.07.12-.07c.02,0,2.01.03,4.58-1.27,2.37-1.2,5.74-3.82,8.29-9.47.03-.07.11-.1.17-.07.07.03.1.11.07.17-2.59,5.72-6.01,8.38-8.43,9.6-2.09,1.06-3.77,1.25-4.42,1.29.69.77,3.41,3.3,7.9.96,4.38-2.28,5.18-9.39,5.19-9.46,0-.07.07-.12.14-.12.07,0,.12.07.12.14,0,.07-.82,7.31-5.33,9.66-1.38.72-2.6.98-3.66.98Z"/>
                <path class="cls-1" d="m13.09,141.26c-.55,0-1.1-.32-1.44-.73-.41-.5-.47-1.06-.18-1.47.1-.22,1.38-3.03,3.3-5.34,1.06-1.27,1.74-1.56,2.13-1.58.29-.01.43.12.44.14.05.05.05.14,0,.19-.05.05-.14.05-.19,0,0,0-.08-.07-.26-.06-.27.02-.88.24-1.91,1.48-1.96,2.36-3.25,5.26-3.27,5.29,0,0,0,.02-.01.03-.23.32-.17.75.16,1.16.39.48,1.1.81,1.69.54.14-.1,1.58-1.15,3.89-2.17,2.31-1.02,5.01-3.07,5.49-5.15.3-1.3-1.07-6.8-1.81-9.75-.15-.6-.34-1.29-.56-2.04-.02-.07.02-.14.09-.16.07-.02.14.02.16.09.22.76.41,1.45.56,2.05.74,2.97,2.12,8.51,1.81,9.87-.5,2.18-3.19,4.25-5.64,5.33-2.39,1.06-3.84,2.13-3.85,2.14,0,0-.01,0-.02.01-.19.09-.38.13-.57.13Zm.52-.25h0,0Z"/>
                <path class="cls-1" d="m20.69,121.89c-.06,0-.11-.04-.13-.09-.91-3.09-2.19-6.62-2.62-7.64-.09-.21-.26-.52-.46-.87-.73-1.31-1.84-3.29-1.34-4.85.22-.68.73-1.21,1.51-1.58,3.51-1.64,6.56,2.47,6.59,2.51.04.06.03.14-.03.18-.06.04-.14.03-.18-.03-.03-.04-2.96-3.97-6.27-2.42-.72.33-1.18.81-1.37,1.42-.47,1.45.6,3.37,1.31,4.64.2.36.37.67.47.89.43,1.03,1.71,4.57,2.63,7.67.02.07-.02.14-.09.16-.01,0-.03,0-.04,0Z"/>
                <path class="cls-1" d="m23.59,150s-.01,0-.02,0c-1.21-.16-3.2-.99-3.2-1.64,0-.01,0-.03,0-.04,0-.03.82-2.63.91-5.3.03-.79,0-1.58-.04-2.33-.07-1.45-.14-2.94.22-4.66.01-.07.08-.12.16-.1.07.01.12.08.1.16-.34,1.69-.28,3.17-.21,4.6.03.76.07,1.55.04,2.35-.09,2.57-.83,5.08-.91,5.35.05.36,1.61,1.14,2.86,1.34.22-.72,1.47-4.83,2.07-7.54.61-2.8.6-6.34.6-7.5v-.23c0-.36.2-1.59.46-3.14.45-2.67,1.06-6.34.98-7.76-.06-1.07-.29-2.82-.52-4.51-.25-1.89-.47-3.52-.4-3.92.01-.07.08-.12.15-.11.07.01.12.08.11.15-.06.36.17,2.05.4,3.84.23,1.7.46,3.46.52,4.53.08,1.45-.54,5.13-.98,7.82-.25,1.48-.46,2.76-.46,3.1v.22c0,1.3.02,4.74-.6,7.56-.66,2.98-2.09,7.62-2.11,7.67-.02.06-.07.09-.13.09Z"/>
                <path class="cls-1" d="m23.39,123.1s-.04,0-.06-.02c-.06-.03-.09-.11-.05-.18,0-.01.67-1.25.67-2.81,0-.25,0-1.05.02-2.17.04-4.43.13-14.79-.02-15.8-.17-1.16-1.6-1.63-1.61-1.64-.07-.02-.11-.1-.09-.17.02-.07.1-.11.17-.09.07.02,1.61.52,1.8,1.85.15,1.03.06,11.03.02,15.84,0,1.12-.02,1.91-.02,2.16,0,1.63-.67,2.89-.7,2.94-.02.04-.07.07-.12.07Z"/>
                <path class="cls-1" d="m16.77,96.86s-.09-.02-.11-.06c-1.15-1.86-5.98-6.39-6.02-6.44-.05-.05-.06-.13,0-.19.05-.05.13-.06.19,0,.2.19,4.9,4.61,6.07,6.49.04.06.02.14-.04.18-.02.01-.05.02-.07.02Z"/>
                <path class="cls-1" d="m28.9,112.63s0,0-.01,0c-.07,0-.13-.07-.12-.14.07-.72-.55-9.63-.74-10.72-.28-1.61-2.76-2.17-2.79-2.17-.07-.02-.12-.09-.1-.16.02-.07.09-.12.16-.1.11.02,2.68.6,2.99,2.38.2,1.15.81,10.02.74,10.79,0,.07-.06.12-.13.12Z"/>
                <path class="cls-1" d="m21.25,123.94c-.06,0-.12-.04-.13-.11-.01-.07.03-.14.11-.15.03,0,2.59-.5,4.43-2.78,1.05-1.3,1.04-3.65,1.03-5.54,0-.82,0-1.6.08-2.18.05-.35.1-.72.15-1.09.19-1.35.41-2.89.69-4.42.37-1.96-.44-3.31-1.18-4.27-.04-.06-.03-.14.02-.18.06-.04.14-.03.18.02.78,1,1.63,2.42,1.23,4.48-.29,1.52-.5,3.05-.69,4.4-.05.37-.1.74-.15,1.09-.08.57-.08,1.33-.08,2.15,0,1.93.01,4.33-1.09,5.7-1.9,2.36-4.48,2.86-4.59,2.88,0,0-.02,0-.02,0Z"/>
                <path class="cls-1" d="m31.33,118.5s-.03,0-.05-.01c-2.14-.9-4.46-3.16-4.55-3.25-.05-.05-.05-.13,0-.19.05-.05.13-.05.19,0,.02.02,2.35,2.29,4.44,3.19.23-.05.59-.35.87-.73.29-.39.43-.79.39-1.07-.2-.27-1.96-2.61-4.1-4.05-.06-.04-.08-.12-.04-.18.04-.06.12-.08.18-.04,2.29,1.55,4.16,4.11,4.18,4.14.01.02.02.03.02.05.07.36-.09.83-.44,1.3-.29.39-.73.8-1.08.84,0,0-.01,0-.02,0Z"/>
                <path class="cls-1" d="m33.33,119.75s-.08-.02-.1-.05c-.05-.06-.04-.14.02-.19.14-.12.16-.13.18-.52,0-.07.07-.13.14-.12.07,0,.13.07.12.14-.02.44-.06.53-.28.71-.02.02-.05.03-.08.03Z"/>
                <path class="cls-1" d="m24.15,109.58s-.06-.01-.09-.03c-.05-.05-.06-.13-.01-.19.06-.07,1.42-1.6,2.67-1.63.4,0,.74.14,1.02.44.05.05.05.14,0,.19-.05.05-.14.05-.19,0-.23-.24-.5-.36-.83-.36-1.13.02-2.46,1.52-2.47,1.54-.03.03-.06.04-.1.04Z"/>
                <path class="cls-1" d="m23.18,104.89c-.2,0-.34-.23-.34-.55s.14-.55.34-.55.34.23.34.55-.14.55-.34.55Zm0-.26h0,0Zm0-.56s-.07.12-.07.28.05.25.07.28c.03-.03.08-.12.08-.28s-.05-.25-.08-.28Z"/>
                <path class="cls-1" d="m23.18,110.36c-.2,0-.34-.23-.34-.54s.14-.55.34-.55.34.23.34.55-.14.54-.34.54Zm0-.26h0,0Zm0-.56s-.07.12-.07.28.05.25.07.28c.03-.03.08-.12.08-.28s-.05-.25-.08-.28Z"/>
                <path class="cls-1" d="m22.92,116.21c-.2,0-.34-.23-.34-.55s.14-.55.34-.55.34.23.34.55-.14.55-.34.55Zm0-.26h0,0Zm0-.56s-.07.12-.07.28.05.25.07.28c.03-.03.07-.12.07-.28s-.05-.25-.07-.28Z"/>
                <path class="cls-1" d="m22.71,120.72c-.2,0-.34-.23-.34-.55s.14-.55.34-.55.34.23.34.55-.14.55-.34.55Zm0-.26h0,0Zm0-.56s-.08.12-.08.28.05.25.08.28c.03-.03.07-.12.07-.28s-.05-.25-.07-.28Z"/>
                <path class="cls-15" d="m19.03,98.03l-.49.18s-1.24-.55-1.32-1.4c-.04-.41.03-2.42.27-3.92.26-1.61.72-2.72,1.14-3.35.82-1.21,1.69-1.59,2.97-1.12,1.28.47,2.41.26,3.48,2.38,1.07,2.13,1.81,5.55,1.34,6.23s-2.39,2.68-2.39,2.68l-.22-.32s1.57-1.51,1.77-3.24c.19-1.72-1.83-5.24-2.66-6.03-.83-.78-2.19-1.78-2.99-1.34-.8.44-1.5,3.15-1.67,4.21-.17,1.06-.78,3.4-.5,4.04.28.64,1.27.98,1.27.98Z"/>
                <path class="cls-1" d="m22.37,100.5s-.08-.02-.1-.05c-.01-.02-1.44-1.74-2.43-2-1.09-.28-2.25-.93-2.24-1.57h0c0-.43.62-4.73.83-5.33.03-.08.06-.18.1-.31.28-.89.81-2.55,1.66-2.66,2.21-.3,4.25,3.34,4.83,4.46.72,1.41.92,3,.52,4.05-.35.91-1.23,2.57-3.1,3.41-.02,0-.04.01-.05.01Zm-4.52-3.62c0,.42.95,1.03,2.05,1.31.96.25,2.21,1.66,2.51,2.01,1.72-.81,2.54-2.36,2.87-3.22.38-.98.18-2.48-.51-3.83-.39-.77-2.46-4.6-4.55-4.32-.69.09-1.22,1.77-1.44,2.48-.04.13-.08.24-.1.32-.2.56-.81,4.84-.82,5.25h0Z"/>
              </g>
              <path class="cls-1" d="m12.55,78.93s-.07-.01-.1-.04c-.09-.1-.38-.24-.57-.24-.05,0-.08,0-.09.03-.05.05-.13.06-.19.01-.05-.05-.06-.13-.01-.19.05-.05.13-.11.29-.11.27,0,.63.17.77.32.05.05.05.14,0,.19-.03.02-.06.03-.09.03Z"/>
            </g>
            <path class="cls-1" d="m6.16,92.99s-.1-.03-.12-.07c-1.3-2.69,0-4.89,0-4.92.04-.06.12-.08.18-.04.06.04.08.12.05.18-.01.02-1.23,2.11,0,4.67.03.07,0,.14-.06.18-.02,0-.04.01-.06.01Z"/>
            <path class="cls-1" d="m4.97,92.46s-.09-.03-.12-.07c-.91-1.74-.04-3.57,0-3.64.03-.07.11-.09.18-.06.07.03.09.11.06.18,0,.02-.85,1.79,0,3.41.03.06,0,.14-.06.18-.02.01-.04.02-.06.02Z"/>
            <path class="cls-1" d="m8.74,143.21s-.09-.02-.11-.06c-1.32-2.08-.01-4.04,0-4.06.04-.06.12-.08.18-.03.06.04.08.12.03.18-.05.07-1.22,1.84,0,3.77.04.06.02.14-.04.18-.02.01-.05.02-.07.02Z"/>
            <path class="cls-1" d="m7.6,142.61c-.05,0-.1-.03-.12-.08-.73-1.64-.02-2.78,0-2.83.04-.06.12-.08.18-.04.06.04.08.12.04.18-.03.04-.66,1.08.01,2.58.03.07,0,.14-.07.17-.02,0-.04.01-.05.01Z"/>
          </g>
          <g>
            <g>
              <path class="cls-11" d="m47.15,109.01c-.07.58-.57,1.24-.98,1.56-.41.33-.65.51-1.25.75-.6.24-1.11.34-1.35.51-.24.17-.2.43.03.4l.43.09s.34.08.45-.04c-.07.2.06.28.28.31s.57.01.8,0c.31-.01.58-.2.84-.34.38-.23.82-.28,1.21-.31s1.45.13,1.71-.28c.26-.43-.17-2.01-.27-3.17l-1.89.53Z"/>
              <path class="cls-1" d="m45.09,112.75c-.14,0-.26,0-.35-.02-.19-.02-.31-.08-.38-.19-.05-.08-.06-.19-.02-.3.06-.16.2-.21.31-.25.1-.03.19-.07.26-.16.04-.06.13-.07.18-.02.06.04.07.13.02.18-.12.15-.27.21-.38.25-.1.03-.14.05-.15.09-.01.03-.02.06,0,.07,0,0,.03.04.18.06.17.02.43.02.77,0,.24-.01.45-.14.67-.26.04-.02.08-.05.12-.07.4-.24.86-.3,1.26-.33.1,0,.23,0,.37,0,.4.01,1.07.03,1.23-.22.14-.24,0-1.06-.11-1.79-.07-.44-.14-.89-.18-1.3,0-.07.05-.14.12-.14.07,0,.14.05.14.12.03.4.11.84.18,1.28.14.89.27,1.65.08,1.97-.24.38-.95.36-1.46.35-.14,0-.27,0-.35,0-.39.03-.8.08-1.15.29-.04.02-.08.04-.12.07-.23.13-.48.28-.78.29-.18.01-.33.02-.47.02Z"/>
              <path class="cls-1" d="m44.46,112.59c-.25,0-.42-.02-.52-.14-.06-.07-.07-.17-.04-.28.08-.27.41-.36.45-.36.07-.02.14.03.16.1.02.07-.03.14-.1.16-.07.02-.23.09-.26.18,0,.04,0,.05,0,.05,0,0,.06.04.31.04.07,0,.13.06.13.13s-.06.13-.13.13Z"/>
              <path class="cls-1" d="m43.91,112.54c-.28,0-.37-.12-.4-.2-.04-.1-.04-.31.38-.59.06-.04.14-.02.18.04.04.06.02.14-.04.18-.24.16-.28.26-.28.28,0,0,.08.04.26.02.07,0,.14.04.15.12,0,.07-.04.14-.12.15-.05,0-.1,0-.14,0Z"/>
              <path class="cls-1" d="m43.56,112.38c-.13,0-.23-.06-.27-.17-.06-.15.02-.34.2-.47.16-.11.39-.19.69-.28.21-.07.44-.14.68-.24.57-.23.8-.4,1.22-.74.4-.32.87-.95.93-1.48,0-.07.07-.12.15-.11.07,0,.12.07.11.15-.07.61-.57,1.29-1.03,1.65-.43.34-.68.53-1.28.77-.25.1-.49.18-.7.25-.27.09-.5.16-.62.25-.1.07-.11.15-.11.16,0,0,.01,0,.04,0,.07,0,.14.04.15.11,0,.07-.04.14-.11.15-.02,0-.03,0-.05,0Z"/>
              <path class="cls-1" d="m48.59,110.17s-.04,0-.06-.02c-.06-.03-.09-.11-.05-.18.16-.31.12-.44.04-.69-.02-.05-.03-.11-.05-.17-.1-.37-.1-.76-.1-.78,0-.07.06-.13.13-.13h0c.07,0,.13.06.13.13,0,0,0,.37.09.7.02.06.03.11.05.16.08.26.16.49-.06.89-.02.04-.07.07-.12.07Z"/>
              <path class="cls-11" d="m53.01,116.29c-.65.16-.91-.07-.83-.38.08-.33.36-.36.6-.67.24-.31.36-1.19.49-2.17.13-.98-.08-2.19-.39-3.72l1.96-.54c.16,1.66.33,2.27.44,2.85.11.59.03,1.19.16,1.92.13.73.1,1.17.2,1.5.1.33.23.75.13.95-.11.18-.24.26-.49.26-.18,0-.23-.13-.16-.34.02-.08.11-.18.08-.39l-.26.73h-1.92Z"/>
              <path class="cls-1" d="m55.28,116.44c-.15,0-.22-.06-.26-.12-.07-.09-.08-.23-.03-.4,0-.03.02-.06.04-.09.03-.06.06-.13.04-.24-.01-.07.04-.14.11-.15.07-.01.14.04.15.11.03.19-.03.31-.06.39,0,.02-.02.04-.02.05-.04.12-.02.16-.02.17,0,0,.02.01.05.01.19,0,.28-.05.38-.2.07-.13-.06-.56-.14-.82v-.02c-.06-.18-.08-.38-.1-.63-.02-.24-.04-.53-.11-.89-.07-.39-.08-.73-.09-1.06,0-.3-.02-.58-.07-.86-.02-.1-.04-.2-.06-.31-.11-.52-.24-1.17-.38-2.56,0-.07.05-.14.12-.14.07,0,.14.05.14.12.13,1.37.27,2.02.38,2.53.02.11.04.21.06.31.06.3.07.59.08.9.01.32.02.66.09,1.03.07.37.09.67.11.91.02.24.04.42.08.57v.02c.12.37.24.78.12,1.02-.15.24-.33.33-.61.33Z"/>
              <path class="cls-1" d="m54.67,116.5c-.09,0-.17-.02-.23-.06-.12-.08-.18-.22-.15-.38,0-.06.04-.11.07-.18.05-.1.11-.22.13-.38,0-.07.07-.13.15-.12.07,0,.12.07.12.15-.02.2-.1.36-.15.46-.02.04-.04.08-.04.1-.01.09.02.11.03.12.07.04.22.03.38-.08.06-.04.14-.03.18.03.04.06.03.14-.03.18-.15.1-.3.15-.44.15Z"/>
              <path class="cls-1" d="m54.01,116.54c-.08,0-.16-.02-.23-.05-.11-.06-.19-.16-.2-.27-.01-.12.05-.23.11-.34.07-.12.14-.26.15-.42,0-.07.07-.13.14-.13.07,0,.13.06.13.14-.01.23-.11.4-.18.54-.04.08-.08.15-.08.19,0,.02.02.05.05.06.08.04.22.04.42-.08.06-.04.14-.02.18.04.04.06.02.14-.04.18-.15.09-.31.14-.45.14Z"/>
              <path class="cls-1" d="m53.31,116.51c-.15,0-.3-.05-.39-.22-.07-.15,0-.28.08-.41.07-.12.15-.26.18-.47.01-.07.08-.12.15-.11.07.01.12.08.11.15-.04.26-.14.44-.22.57-.03.05-.08.13-.07.15.03.05.08.15.44.02.07-.02.14,0,.17.08.03.07,0,.14-.08.17-.07.03-.22.08-.37.08Z"/>
              <path class="cls-1" d="m52.62,116.48c-.25,0-.39-.08-.47-.16-.11-.11-.14-.26-.1-.43.06-.24.21-.35.35-.46.09-.07.19-.14.28-.26.22-.28.33-1.14.46-2.06v-.05c.14-.97-.08-2.19-.38-3.68-.01-.07.03-.14.1-.16.07-.02.14.03.16.1.31,1.51.53,2.75.39,3.76v.05c-.14.99-.25,1.85-.52,2.19-.11.14-.22.22-.32.3-.13.1-.22.17-.26.32-.02.08-.01.14.03.18.04.04.19.14.64.03.07-.02.14.03.16.1.02.07-.03.14-.1.16-.17.04-.3.06-.42.06Z"/>
              <path class="cls-3" d="m54.13,87.79s1.29-1.41,1.89.21c.63,1.68-.85,2.43-1.57,2.07l-.32-2.29Z"/>
              <path class="cls-12" d="m35.67,84.84c.06.43.35.96.56,1.67.27.8.72,2.19,1.42,2.6s1.29-.36,1.79-1.01c.51-.65,1.7-3.27,1.81-4.29l-3.13,1.23-.61-1.11-1.85.92Z"/>
              <path class="cls-1" d="m35.92,84.52l.15.33s-.45.17-.51,0c-.05-.16.36-.33.36-.33Z"/>
              <path class="cls-1" d="m37.45,84.17l-.31-.2s.28-.4.43-.28c.13.11-.12.48-.12.48Z"/>
              <path class="cls-11" d="m51.85,76.09c-.22-.5-.26-.82-.49-1.33-.22-.48-.49-1.02-.16-1.05.32-.03.64.55.8.83.16.29.26.79.38,1.05l-.52.49Z"/>
              <path class="cls-11" d="m54.73,79.42c-.41-.3-.18-1.65-.28-1.96-.26-.85-.71-1.57-.86-1.66-.24-.14-.45-.19-.59,0l-.4-.35-.74.75c-.16-.23-1.52-1.8-1.85-1.55-.26.2,0,.48.3.91.33.45.36.44.67.89.32.46.61,1.04,1.21,1.73l1.22,1.71c.42.09.86-.11,1.3-.48Z"/>
              <path class="cls-1" d="m52.21,78.32s-.07-.02-.1-.05c-.42-.49-.69-.92-.93-1.29-.1-.16-.19-.31-.29-.45-.17-.24-.25-.35-.35-.47-.08-.1-.17-.21-.32-.42l-.09-.12c-.27-.37-.52-.71-.19-.97.04-.03.11-.07.22-.05.55.08,1.73,1.51,1.81,1.63.04.06.03.14-.03.18-.06.04-.14.03-.18-.03-.29-.41-1.43-1.59-1.66-1.52-.11.09-.05.21.25.61l.09.12c.15.2.23.31.31.41.1.13.19.24.36.49.1.14.19.3.3.46.23.37.49.79.9,1.26.05.05.04.14-.01.19-.02.02-.06.03-.09.03Z"/>
              <path class="cls-1" d="m51.85,76.22c-.05,0-.1-.03-.12-.08-.1-.24-.17-.44-.23-.63-.07-.22-.14-.43-.26-.69l-.03-.07c-.2-.44-.38-.81-.25-1.03.03-.06.1-.12.23-.14.41-.04.75.57.93.9.1.19.18.44.25.67.05.15.09.29.13.39.03.07,0,.14-.07.17-.07.03-.14,0-.17-.07-.05-.11-.1-.26-.14-.42-.07-.21-.14-.45-.23-.62-.12-.22-.44-.79-.67-.76-.02,0-.03,0-.03,0-.06.08.16.56.26.79l.03.07c.13.28.2.5.27.72.06.19.12.38.22.61.03.07,0,.14-.07.17-.02,0-.03.01-.05.01Z"/>
              <path class="cls-1" d="m52.98,77.4c-.24,0-.51-.22-.61-.67-.02-.07.03-.14.1-.16.07-.02.14.03.16.1.08.35.27.48.38.46.07-.01.1-.1.08-.22-.05-.39-.19-1.05-.29-1.2,0,0,0-.02-.01-.02-.03-.08-.07-.1-.09-.1-.06-.02-.16.02-.18.03-.06.04-.14.01-.18-.05-.04-.06-.02-.14.05-.18.02-.01.21-.12.4-.05.07.03.18.09.24.24.15.25.29,1.09.32,1.29.05.31-.11.49-.29.52-.02,0-.05,0-.07,0Z"/>
              <path class="cls-1" d="m53.34,77.42c-.05,0-.11-.01-.17-.04-.07-.03-.1-.11-.07-.17.03-.07.11-.1.17-.07.07.03.09.01.1,0,.08-.06.19-.35.09-1.06,0-.07.04-.14.11-.15.07,0,.14.04.15.11.06.48.08,1.1-.2,1.31-.06.04-.13.07-.2.07Z"/>
              <path class="cls-1" d="m54.73,79.56s-.07-.01-.09-.04c-.09-.09-.12-.34-.2-1.16-.03-.36-.07-.73-.11-.85-.26-.86-.7-1.53-.8-1.59-.31-.18-.37-.08-.41-.03-.04.06-.12.08-.18.03-.06-.04-.08-.12-.03-.18.16-.23.42-.25.76-.04.2.13.66.88.92,1.74.04.15.08.5.12.9.04.36.09.91.14,1.01.04.05.04.13-.01.18-.03.02-.06.04-.09.04Zm.1-.22h0,0Z"/>
              <path class="cls-11" d="m53.31,79.78c-.38-.63-1.25-1.31-1.2-2.19,0-.22.08-.63.03-1.06-.04-.42-.19-.85.06-.85.26,0,.52.37.56.7.06.32-.02.74.23,1.04.17.22.42.6.52,1.18l-.2,1.19Z"/>
              <path class="cls-1" d="m53.31,79.91s-.09-.02-.11-.06c-.11-.18-.25-.36-.41-.55-.4-.49-.84-1.04-.8-1.72,0-.07,0-.15.02-.26.02-.22.05-.5.02-.78-.01-.1-.03-.19-.04-.28-.04-.28-.08-.5.03-.63.03-.04.09-.09.19-.09.34,0,.64.43.69.81.02.1.02.21.03.31.01.24.02.48.17.66.29.36.47.78.54,1.25.01.07-.04.14-.11.15-.07.01-.14-.04-.15-.11-.07-.42-.23-.8-.49-1.12-.21-.25-.22-.55-.23-.82,0-.1,0-.2-.02-.28-.04-.29-.26-.59-.43-.59-.02.04.01.26.04.41.02.1.03.2.04.3.03.31,0,.62-.02.84,0,.1-.02.18-.02.24-.03.58.36,1.07.75,1.54.16.2.32.39.43.58.04.06.02.14-.04.18-.02.01-.04.02-.07.02Z"/>
              <path class="cls-12" d="m48.58,81.38s3.45,1.43,4.74,1.93c1.26.49,2.57.12,2.68-.68.21-1.52-.95-3.34-1.05-3.58-.14.35-1.66.75-2.11.36,0,0,.33.49.21.51-.34.08-1.53-.28-2.39-.65l-2.07,2.1Z"/>
              <path class="cls-12" d="m51.63,82.64s1.9,2.21,2.65,5.82c.75,3.61-1.17,11.7-1.2,11.85-.03.15,1.35,1.74,1.89,3.61.32,1.09.51,6.32.42,7.48.02.39-1.92.54-2.35.04,0,0-.62-2.77-1.05-3.95-.52-1.43-2.32-5.43-2.35-5.73-.03-.3-1.18-4.27-1.39-7.39-.15-2.31-.02-3.19-.02-3.19l.25,5.14-.95,3.88s.5,1.18,1.17,2.75c.58,1.36.68,5.56.68,5.56.01.6-2.39.94-2.47.58,0,0-1.17-4.89-2.13-8.75-.79-3.18-.42-8.28-.34-9.47.07-.99.38-2.8-.07-3.34-.45-.54-3.45-4.19-3.45-4.19l10.13-4.03.56,3.35Z"/>
              <path class="cls-12" d="m53.22,80.02s-2.41-1.19-3.55-1.87c-1.35-.81-3.63-.86-3.63-.86l-5.37,2.3s-.98.45-1.47,1.02c-.5.57-1.09,4.53-1.09,4.53l1.62,2.5,1.48-3.55,12.01-4.07Z"/>
              <path class="cls-3" d="m47.48,90.95s4.73-.79,4.97-2.86c.2-1.76-3.58-5.74-5.47-6.6-1.33-.6-2.34-1.25-3.14-1.4-.34-.07-.78.08-.97.16-.74.33-.05,2.44.43,3.81.49,1.4,1.42,2.7,1.44,3.36.01.48-.07,1.14-.13,1.79-.06.65,1.64,1.67,2.87,1.73h0Z"/>
              <path class="cls-12" d="m44.64,79.32s1.33-.9,1.6-2.92c.29-2.12-.95-4.65-3.16-5.95-2.31-1.35-4.38-.22-5.22,1.14-.27.44-1.1,2.08-.35,4.48.74,2.4,3.01,3.85,4.91,3.94l2.21-.7Z"/>
              <path class="cls-12" d="m42.59,70.15c-.45-1.04.45-2.71,2.26-1.54,1.01.65,1.2,2.36-.42,2.9l-1.84-1.36Z"/>
              <path class="cls-12" d="m37.44,72.53c-.63-.93-1.93-.75-2.09.59-.12,1.05.47,2.27,1.94,1.9l.15-2.49Z"/>
              <path class="cls-3" d="m43.08,70.46s.02-.74.59-.95c.57-.21,1,.4.97.78-.06.75-.72.75-.72.75l-.84-.59Z"/>
              <path class="cls-3" d="m37.21,73.27s-.6-.61-1-.35c-.32.2-.19,1.03.16,1.19.43.2.84-.18.84-.18v-.66Z"/>
              <path class="cls-11" d="m34.43,81.38c-.24-.02-.33.19-.37.46-.02.18.27.98.78,1.7.19.27.85.83,1.1,1.23.75.07,1.19-.2,1.43-.7l-.61-1.99-1.19-1.47c-.73.02-1.41.07-1.15.77Z"/>
              <path class="cls-11" d="m36.8,82.23c-.17-.9-.45-1.48-.61-2.02-.16-.52-.2-.8-.35-1.34-.15-.51-.28-.93-.6-.86-.4.1.13,2.44.22,2.72l1.35,1.49Z"/>
              <path class="cls-11" d="m35.67,80.76c-.41-.36-.98-.67-1.39-1.05-.39-.36-.82-.77-.95-.47-.13.3.32.78.55,1.02.23.25.77.63.99.82l.8-.31Z"/>
              <path class="cls-9" d="m41.24,70.93c.16,0,1.53.15,2.16.81.9.94,1.11,2.48,1.11,2.48l-2.49,2.1-3.29.52s-1.13-1.31-1.11-2.67c0-1.08,1.09-2.23,1.62-2.57.84-.53,1.78-.66,1.99-.67Z"/>
              <path class="cls-4" d="m38.7,76.87s.19-.14.45-.31c.27-.16.63-.76.63-.76,0,0,.6-.14.77-.56.17-.42-.07-1.06-.07-1.06,0,0,.43.45.74.51.38.08.78-.18.78-.18,0,0,.23.11.52.05.3-.06.55-.21.55-.21,0,0,.43.12.65.09.24-.03.3-.06.49-.14.18-.08.46,0,.46,0,0,0,.48.36.41.84-.09.49-.47.76-.47.76,0,0,.07.47.06.95-.02.49-.31,1.07-.31,1.07l.17.52c-.65,1.18-1.49,1.76-2.58,1.58l-.46-.84s-.51-.15-.86-.48c-.34-.33-.71-.72-.71-.72,0,0-.47.28-.98-.19-.45-.46-.24-.91-.24-.91Z"/>
              <path class="cls-1" d="m42.46,79.4c-.2,0-.43-.02-.69-.06-.69-.1-1.03-.4-1.21-.56-.31-.24-.6-.61-.87-.97-.04-.06-.03-.14.03-.18.06-.04.14-.03.18.03.26.34.54.69.82.92.18.16.47.41,1.08.5.89.15,1.38-.04,1.39-.05.07-.03.14,0,.17.07s0,.14-.07.17c-.02,0-.31.12-.84.12Z"/>
              <path class="cls-8" d="m42.43,77.43c-.42.19-.88.29-.88.29,0,0,.56.74,1.24.48.65-.25.48-1.24.48-1.24,0,0-.42.28-.84.47Z"/>
              <path class="cls-1" d="m43.26,79.28c-.05,0-.1-.03-.12-.08-.03-.07,0-.14.07-.17,0,0,.41-.2.91-.93.33-.5.39-.94.42-1.18.07-.55-.11-1.24-.12-1.25-.02-.07.02-.14.09-.16s.14.02.16.09c0,.03.2.75.12,1.34,0,0,0,.01,0,.01-.04.26-.1.75-.47,1.29-.54.81-1,1.02-1.02,1.03-.02,0-.04.01-.05.01Z"/>
              <path class="cls-1" d="m42.01,80.06s-.08-.02-.11-.06l-.5-.75c-.04-.06-.02-.14.04-.18.06-.04.14-.02.18.04l.5.75c.04.06.02.14-.04.18-.02.02-.05.02-.07.02Z"/>
              <path class="cls-1" d="m42.32,77.09s-.03,0-.05,0c-.07-.03-.1-.1-.08-.17.07-.18.04-.22.04-.23,0-.01-.08-.03-.11-.04-.1-.03-.25-.06-.35-.2-.15-.19-.25-.64-.26-.88,0-.07.05-.13.13-.14.08,0,.13.05.14.13.01.23.11.61.2.73.05.06.12.08.21.1.1.03.22.06.28.17.05.1.04.24-.03.44-.02.05-.07.09-.12.09Z"/>
              <path class="cls-1" d="m39.7,75.41s-.05,0-.07-.02c-.06-.04-.08-.12-.05-.18.01-.02.26-.43.82-.43h0c.07,0,.13.06.13.13,0,.07-.06.13-.13.13-.41,0-.59.29-.6.3-.02.04-.07.06-.11.06Z"/>
              <path class="cls-1" d="m41.92,74.37s-.06-.01-.09-.03c-.05-.05-.06-.13-.01-.19.38-.43.85-.34.87-.34.07.01.12.08.1.16-.01.07-.08.12-.15.1-.02,0-.35-.06-.62.25-.03.03-.06.04-.1.04Z"/>
              <path class="cls-2" d="m41.5,79.05s.96.31,1.76-.01c.6-.25,1.15-1.31,1.15-1.31,0,0-.41,1.41-1.15,1.88-.64.41-1.45.08-1.45.08l-.32-.64Z"/>
              <path class="cls-1" d="m44.54,78.58c-.06,0-.11-.04-.13-.09l-.15-.47c-.02-.07.02-.14.09-.16.07-.02.14.02.16.09l.15.47c.02.07-.02.14-.09.16-.01,0-.03,0-.04,0Z"/>
              <path class="cls-1" d="m44.64,76.01s-.08-.02-.1-.05c-.04-.06-.03-.14.02-.18.32-.24.44-.53.38-.89-.03-.22-.14-.4-.3-.48-.12-.06-.25-.05-.39.03-.06.04-.14.01-.18-.05-.04-.06-.01-.14.05-.18.21-.12.44-.13.63-.04.23.11.4.36.44.67.07.46-.09.83-.48,1.13-.02.02-.05.03-.08.03Z"/>
              <path class="cls-1" d="m44.5,75.25s0,0,0,0c-.07,0-.13-.07-.13-.14,0-.02.01-.19.12-.34.04-.06.12-.08.18-.03.06.04.08.12.03.18-.06.09-.07.2-.07.21,0,.07-.06.13-.13.13Z"/>
              <path class="cls-1" d="m39.65,78.16c-.36,0-.66-.14-.89-.44-.19-.26-.26-.56-.18-.81.07-.21.24-.37.48-.44.07-.02.14.02.16.09.02.07-.02.14-.09.16-.16.05-.26.14-.31.27-.06.17,0,.37.13.56.23.28.52.38.91.31.07-.01.14.04.15.11.01.07-.04.14-.11.15-.09.02-.18.02-.27.02Z"/>
              <path class="cls-1" d="m39.45,77.52s-.06,0-.08-.03c0,0-.09-.07-.2-.09-.07-.01-.12-.08-.11-.15.01-.07.08-.12.15-.11.18.03.32.13.33.14.06.05.06.13.02.19-.03.03-.06.05-.1.05Z"/>
              <path class="cls-12" d="m43.79,72.33c.31.42.62,1.08.72,1.88l-.72-1.88Z"/>
              <path class="cls-1" d="m43.91,72.19c-.25,0-.49-.23-.66-.38l-.06-.05c-.7-.6-1.43-.78-2.42-.6-.41.07-.69.18-.92.26-.35.13-.6.22-.93.07-.07-.03-.1-.11-.07-.17s.11-.1.17-.07c.24.11.42.04.74-.08.24-.09.54-.19.97-.27,1.08-.19,1.87,0,2.64.66l.06.06c.13.12.34.31.48.31.07,0,.13.05.14.13,0,.07-.05.13-.13.14,0,0-.01,0-.02,0Z"/>
              <path class="cls-1" d="m38.73,76.98s-.07-.01-.1-.04c0,0-.22-.24-.5-.7-.04-.06-.02-.14.05-.18.06-.04.14-.02.18.05.26.43.46.66.46.66.05.05.04.14,0,.19-.03.02-.06.03-.09.03Z"/>
              <path class="cls-1" d="m37.96,76.21s-.07-.01-.09-.04c-.05-.05-.05-.13,0-.19.06-.06-.03-.32-.08-.47-.17-.43-.25-.84-.26-1.23-.05-.98.48-1.94,1.43-2.61.06-.04.14-.03.18.03.04.06.03.14-.03.18-.88.62-1.37,1.49-1.32,2.39,0,.36.09.74.24,1.13.1.28.21.57.03.76-.03.03-.06.04-.09.04Z"/>
              <path class="cls-1" d="m41.43,74.87c-.1,0-.19-.01-.29-.04-.57-.17-.99-.79-1.2-1.31-.03-.07,0-.14.07-.17.07-.03.14,0,.17.07.23.58.64,1.04,1.03,1.15.23.07.45.03.67-.12.06-.04.14-.03.18.03.04.06.03.14-.03.18-.19.13-.4.2-.6.2Z"/>
              <path class="cls-1" d="m42.34,74.74c-.44,0-.83-.3-1.2-.92-.04-.06-.02-.14.04-.18.06-.04.14-.02.18.04.55.91.99.87,1.35.71.07-.03.14,0,.17.07.03.07,0,.14-.07.17-.17.07-.33.11-.48.11Z"/>
              <path class="cls-1" d="m43.5,74.59c-.18,0-.36-.06-.51-.18-.06-.05-.07-.13-.02-.18.05-.06.13-.07.19-.02.19.15.45.16.66.03.06-.04.14-.02.18.04.04.06.02.14-.04.18-.14.09-.3.14-.46.14Z"/>
              <path class="cls-1" d="m39.37,76.41s-.08-.02-.11-.06c-.04-.06-.03-.14.04-.18.44-.29.52-.89.47-1.32,0-.07.04-.14.11-.15.07,0,.14.04.15.11.07.5-.05,1.21-.58,1.57-.02.02-.05.02-.07.02Z"/>
              <path class="cls-1" d="m40.22,75.71c-.05,0-.1-.03-.12-.08-.03-.07,0-.14.08-.17.13-.05.21-.12.26-.23.07-.16.1-.47-.15-1.08-.03-.07,0-.14.07-.17.07-.03.14,0,.17.07.23.57.28.99.15,1.29-.08.18-.21.3-.4.38-.02,0-.03,0-.05,0Z"/>
              <path class="cls-1" d="m42.49,78.39c-.59,0-1.03-.56-1.05-.59-.03-.04-.03-.08-.02-.12.02-.04.05-.07.09-.08,0,0,.45-.1.86-.28.41-.18.82-.45.82-.46.04-.03.08-.03.13-.01.04.02.07.05.08.1,0,.05.18,1.11-.57,1.39-.12.05-.24.07-.35.07Zm-.7-.6c.19.18.55.44.95.29.38-.14.42-.61.42-.89-.16.1-.42.25-.68.36-.25.11-.51.19-.69.24Z"/>
              <path class="cls-1" d="m40.41,76.71s0,0,0,0c-.07,0-.13-.06-.13-.14,0-.14.08-.27.2-.37.14-.11.31-.15.48-.11.07.01.12.08.1.16-.01.07-.08.12-.16.1-.09-.02-.19,0-.27.06-.06.05-.09.11-.1.17,0,.07-.06.13-.13.13Z"/>
              <path class="cls-1" d="m42.55,75.7s0,0-.01,0c-.07,0-.13-.07-.12-.14.01-.14.09-.27.21-.36.14-.1.32-.14.49-.09.07.02.11.09.1.16-.02.07-.09.11-.16.1-.09-.02-.19,0-.27.05-.06.04-.1.1-.1.17,0,.07-.06.12-.13.12Z"/>
              <path class="cls-1" d="m39.14,87.12s-.09-.02-.12-.07c-.05-.09-1.22-2.25-1.63-3.2-.03-.07,0-.14.07-.17.07-.03.14,0,.17.07.4.94,1.6,3.16,1.62,3.18.03.06.01.14-.05.18-.02.01-.04.02-.06.02Z"/>
              <path class="cls-1" d="m36.8,82.36c-.06,0-.12-.04-.13-.11-.12-.61-.29-1.08-.43-1.49-.06-.18-.13-.35-.18-.52-.09-.3-.15-.52-.2-.75-.04-.18-.09-.36-.15-.59-.15-.54-.27-.81-.44-.76-.19.18.16,2.04.31,2.55.02.07-.02.14-.09.16-.07.02-.14-.02-.16-.09,0-.02-.57-2.25-.28-2.75.05-.09.12-.12.16-.13.45-.11.61.45.76.95.07.24.11.42.16.6.06.23.11.44.2.73.05.16.11.33.17.5.15.42.32.89.44,1.53.01.07-.03.14-.1.15,0,0-.02,0-.03,0Z"/>
              <path class="cls-1" d="m34.76,81.06s-.06-.01-.09-.03c-.08-.07-.2-.16-.33-.25-.19-.13-.41-.29-.56-.44-.26-.27-.73-.78-.57-1.16.05-.12.14-.16.2-.18.24-.05.55.23.9.56l.05.05c.21.2.39.32.58.46.17.12.34.24.53.41.05.05.06.13.01.19-.05.05-.13.06-.19.01-.19-.16-.35-.28-.51-.4-.19-.13-.38-.27-.6-.48l-.05-.05c-.18-.17-.57-.52-.67-.49,0,0,0,0-.01.02-.09.22.35.69.52.87.13.13.33.28.52.41.14.09.27.18.36.27.05.05.06.13.01.19-.03.03-.06.04-.1.04Z"/>
              <path class="cls-1" d="m35.43,82.48c-.11,0-.24-.05-.36-.18-.14-.14-.73-.79-.82-1.06-.09-.27.06-.44.16-.49.06-.04.14-.02.18.05.04.06.02.14-.04.18-.02.01-.08.07-.04.19.06.16.49.68.76.96.09.09.17.12.22.08.08-.07.09-.3-.13-.58-.05-.06-.04-.14.02-.19s.14-.04.19.02c.32.4.29.78.1.95-.06.05-.14.08-.23.08Z"/>
              <path class="cls-1" d="m35.23,82.77c-.32,0-.74-.35-1.05-.67-.05-.05-.05-.14,0-.19s.14-.05.19,0c.5.51.8.61.89.58.01,0,.04-.01.06-.08.02-.07.09-.11.16-.09.07.02.11.09.09.16-.04.14-.13.24-.25.27-.03,0-.07.01-.1.01Z"/>
              <path class="cls-1" d="m38.04,89.36c-.15,0-.3-.04-.46-.13-.72-.42-1.16-1.72-1.45-2.59l-.03-.08c-.09-.31-.2-.58-.29-.82-.13-.33-.24-.62-.27-.87,0-.07.04-.14.11-.15.07,0,.14.04.15.11.03.23.14.5.26.81.1.25.2.52.3.84l.03.08c.26.78.7,2.07,1.33,2.44.55.32,1.02-.2,1.62-.97.5-.65,1.69-3.25,1.79-4.24,0-.07.07-.12.15-.12.07,0,.12.07.12.15-.11,1.04-1.32,3.68-1.84,4.36-.42.54-.91,1.18-1.5,1.18Z"/>
              <path class="cls-1" d="m35.95,84.9s-.09-.02-.11-.06c-.14-.22-.41-.5-.66-.74-.19-.19-.35-.36-.44-.48-.51-.74-.82-1.56-.8-1.79.05-.4.22-.6.51-.58.07,0,.13.07.12.14,0,.07-.07.13-.14.12-.06,0-.18-.01-.23.35-.01.11.24.87.76,1.61.07.1.24.27.41.45.25.26.54.55.69.79.04.06.02.14-.04.18-.02.01-.05.02-.07.02Z"/>
              <path class="cls-1" d="m44.42,71.64c-.06,0-.11-.03-.12-.09-.02-.07.01-.14.08-.17.64-.21,1.03-.63,1.1-1.19.07-.57-.21-1.16-.71-1.48-.7-.45-1.32-.5-1.74-.14-.4.34-.54,1.01-.32,1.51.03.07,0,.14-.07.17-.07.03-.14,0-.17-.07-.27-.62-.1-1.4.4-1.82.51-.44,1.26-.39,2.05.12.58.37.91,1.07.83,1.73-.08.65-.55,1.16-1.28,1.4-.01,0-.03,0-.04,0Z"/>
              <path class="cls-1" d="m36.77,75.23c-.47,0-.78-.18-.98-.35-.44-.38-.66-1.06-.58-1.77.08-.66.43-1.13.95-1.25.5-.12,1.05.11,1.38.61.04.06.03.14-.03.18-.06.04-.14.03-.18-.03-.27-.4-.71-.6-1.1-.5-.4.1-.68.48-.75,1.03-.07.62.11,1.21.49,1.54.32.28.76.36,1.28.22.07-.02.14.02.16.1.02.07-.02.14-.1.16-.2.05-.38.07-.54.07Z"/>
              <path class="cls-1" d="m38.13,85.16s-.01,0-.02,0c-.07-.01-.12-.08-.11-.15.06-.4.59-3.9,1.1-4.48.51-.59,1.48-1.04,1.52-1.06.07-.03.14,0,.17.06.03.07,0,.14-.06.17,0,0-.96.44-1.43.99-.39.45-.88,3.29-1.04,4.35,0,.07-.07.11-.13.11Z"/>
              <path class="cls-1" d="m35.83,84.98c-.11,0-.18,0-.18,0-.07,0-.12-.07-.12-.14,0-.07.07-.12.14-.12.06,0,1.45.14,1.71-.94.02-.07.09-.11.16-.1.07.02.11.09.1.16-.25,1.04-1.36,1.15-1.81,1.15Z"/>
              <path class="cls-1" d="m47.38,109.37c-.31,0-.5-.08-.57-.25,0,0,0-.01,0-.02-.01-.05-1.18-4.94-2.13-8.75-.51-2.07-.63-5.24-.35-9.42v-.09c.02-.21.05-.45.07-.71.09-.91.22-2.14-.1-2.53-.45-.54-3.42-4.16-3.45-4.19-.05-.06-.04-.14.02-.19.06-.05.14-.04.19.02.03.04,3,3.66,3.45,4.19.39.47.27,1.67.16,2.73-.03.26-.05.5-.06.7v.09c-.29,4.15-.17,7.3.34,9.34.92,3.71,2.06,8.44,2.13,8.74.03.04.14.09.37.08.73-.02,1.76-.46,1.84-.63,0-.29-.12-4.22-.67-5.49-.66-1.55-1.16-2.74-1.17-2.75-.01-.03-.01-.05,0-.08l.95-3.88c.02-.07.09-.11.16-.1.07.02.11.09.1.16l-.94,3.84c.09.22.56,1.32,1.15,2.71.58,1.36.69,5.43.69,5.6,0,0,0,.01,0,.02-.04.38-1.17.75-1.77.84-.14.02-.27.03-.38.03Z"/>
              <path class="cls-3" d="m44.2,79c.16-.24.3-.48.39-.67.14-.31,1.15-3.31-.36-5.1-1.51-1.78-4.06-2.02-5.1-.82s-1.03,3.03-.09,4.88c.96,1.88,2.7,2.57,2.7,2.57l.68.16c-1.91-.09-4.17-1.53-4.91-3.94-.74-2.4.08-4.04.35-4.48.84-1.36,2.91-2.5,5.22-1.14,2.21,1.29,3.44,3.82,3.16,5.95-.27,2.01-2.33,3.78-2.33,3.78l-1.04.07,1.33-1.25Z"/>
              <path class="cls-12" d="m37.42,73.65c.65-.24.91,2.47.55,2.82-.36.35-.49-.58-.59-.91-.1-.33-.28-1.78.04-1.91Z"/>
              <path class="cls-3" d="m40.53,79.66s.72.7,2.15.93l.87-.77-1.43.18-1.58-.34Z"/>
              <path class="cls-1" d="m52.94,80.06s-.05,0-.07-.02c0,0-.21-.14-.83-.46-.32-.16-.67-.36-1.01-.56-.49-.28-1-.57-1.41-.75-1.41-.6-3.57-.85-3.59-.85-.07,0-.12-.07-.12-.15s.07-.13.15-.12c.09,0,2.22.25,3.67.87.42.18.94.47,1.44.76.34.19.68.39,1,.55.64.33.85.47.86.48.06.04.07.12.03.18-.03.04-.07.06-.11.06Z"/>
              <path class="cls-1" d="m54.85,90.3c-.16,0-.32-.03-.46-.1-.07-.03-.09-.11-.06-.18.03-.07.11-.09.18-.06.32.16.81.06,1.13-.24.25-.22.61-.73.26-1.67-.15-.41-.35-.64-.61-.68-.5-.1-1.06.51-1.07.52-.05.05-.13.06-.19,0-.05-.05-.06-.13,0-.19.03-.03.67-.72,1.31-.6.35.07.62.35.8.85.29.79.18,1.51-.33,1.96-.27.25-.63.38-.96.38Z"/>
              <path class="cls-1" d="m42.5,80.16s-.05,0-.08,0c-.07,0-.13-.07-.13-.14,0-.07.06-.13.14-.13.95.05,1.64-.94,1.65-.95.04-.06.12-.08.18-.03.06.04.08.12.03.18-.03.04-.74,1.06-1.8,1.06Z"/>
              <path class="cls-1" d="m43.91,80.32s-.07-.02-.1-.05c-.05-.06-.04-.14.01-.19.02-.02,2.03-1.76,2.29-3.7.29-2.15-1.01-4.6-3.09-5.82-2.35-1.38-4.3-.1-5.04,1.1-.26.43-1.07,2.01-.34,4.37.75,2.41,2.98,3.76,4.8,3.84.07,0,.13.07.13.14,0,.07-.06.12-.14.13-1.91-.09-4.25-1.5-5.03-4.03-.76-2.47.09-4.14.37-4.59.79-1.29,2.88-2.66,5.39-1.19,2.17,1.27,3.52,3.83,3.22,6.08-.27,2.04-2.29,3.79-2.38,3.87-.02.02-.06.03-.09.03Z"/>
              <path class="cls-1" d="m48.14,91.52c-.24,0-.64-.04-.72-.27-.02-.04-.05-.19-.13-.5-.25-.96-.84-3.2-1.17-3.86-.15-.3-.57-1.06-1.06-1.93-1.09-1.97-1.94-3.5-2-3.78-.12-.53.37-1.27.85-1.98.06-.09.12-.18.17-.26.04-.06.12-.08.18-.04s.08.12.04.18c-.06.09-.12.18-.18.26-.42.64-.9,1.36-.81,1.78.06.27,1.16,2.26,1.97,3.71.49.87.91,1.63,1.06,1.94.34.69.91,2.86,1.19,3.91.06.25.12.44.13.48.03.05.3.1.55.09.08,0,.13.05.14.13,0,.07-.05.13-.13.14-.03,0-.06,0-.09,0Z"/>
              <path class="cls-1" d="m41.88,80.06s-.03,0-.05,0c-.08-.03-1.93-.79-2.9-2.69-.97-1.9-.72-4.14.11-5.03.53-.56,1.27-.86,2.1-.84,1.14.03,2.33.65,3.19,1.67,1.66,1.96.39,5.2.38,5.24-.1.22-.26.47-.4.69-.04.06-.12.08-.18.04-.06-.04-.08-.12-.04-.18.14-.21.29-.45.38-.66.22-.49,1.06-3.31-.34-4.96-.81-.96-1.93-1.55-3-1.58-.76-.02-1.42.24-1.9.76-.76.81-.97,2.95-.07,4.73.92,1.81,2.74,2.56,2.76,2.57.07.03.1.1.07.17-.02.05-.07.08-.12.08Z"/>
              <path class="cls-1" d="m42.47,80.63s-.01,0-.02,0c-1.45-.23-2-.86-2.02-.88-.05-.06-.04-.14.02-.19.06-.05.14-.04.19.02,0,0,.51.58,1.86.79.07.01.12.08.11.15-.01.06-.07.11-.13.11Z"/>
              <path class="cls-1" d="m44.44,82.13c-.13,0-.25-.11-.34-.33-.05-.13-.16-.39.08-.52.06-.04.13-.04.2-.02.13.04.21.2.26.32h0c.06.14.11.28.05.4-.02.04-.06.1-.15.14-.03.01-.07.02-.1.02Zm-.14-.62s-.01.05.04.19c.06.15.1.17.1.17,0-.02-.01-.08-.05-.19h0c-.04-.11-.08-.15-.09-.17Z"/>
              <path class="cls-1" d="m45.69,84.51c-.13,0-.25-.11-.34-.33-.05-.13-.16-.39.08-.52.06-.04.13-.04.2-.02.13.04.21.2.26.32h0c.06.14.11.28.05.4-.02.04-.06.1-.15.14-.03.01-.07.02-.1.02Zm-.14-.62s-.01.05.04.19c.06.15.1.17.1.17,0-.02-.01-.08-.05-.19h0c-.04-.11-.08-.15-.09-.17Z"/>
              <path class="cls-1" d="m47.25,87.27c-.13,0-.25-.11-.34-.33-.05-.13-.16-.39.08-.52.06-.04.13-.04.2-.02.13.04.21.2.26.32h0c.06.14.11.28.05.4-.02.04-.06.1-.15.14-.03.01-.07.02-.1.02Zm-.14-.62s-.01.05.04.19c.06.15.1.17.1.17,0-.02-.01-.08-.05-.19h0c-.04-.11-.08-.15-.09-.17Z"/>
              <path class="cls-1" d="m48.05,89.67c-.13,0-.25-.11-.34-.33-.05-.13-.16-.39.08-.52.06-.04.13-.04.2-.02.13.04.21.2.26.32,0,0,0,0,0,0,.06.14.11.28.05.4-.02.04-.06.1-.15.14-.03.01-.07.02-.1.02Zm-.14-.62s-.01.05.04.19c.06.15.1.17.1.17,0-.02-.01-.08-.05-.19h0c-.04-.11-.08-.15-.09-.17Z"/>
              <path class="cls-11" d="m37.38,84.07c-.26-.69-.26-1.79-.99-2.3-.17-.13-.55-.33-.86-.63-.3-.29-.55-.67-.71-.48-.16.21-.03.64.2.87.22.24.59.44.68.82.06.27.21.71.61,1.14l1.06.58Z"/>
              <path class="cls-1" d="m37.38,84.2c-.05,0-.1-.03-.12-.09-.08-.21-.13-.45-.19-.7-.13-.59-.27-1.21-.75-1.54-.05-.04-.12-.09-.21-.14-.19-.12-.45-.29-.67-.51-.07-.07-.14-.14-.21-.22-.1-.11-.26-.28-.31-.28-.09.14,0,.49.2.7.06.07.13.13.21.2.2.17.43.37.5.69.1.4.29.76.58,1.07.05.05.05.14,0,.19-.05.05-.14.05-.19,0-.32-.35-.54-.75-.64-1.2-.05-.23-.24-.39-.41-.55-.08-.07-.16-.14-.23-.22-.26-.27-.41-.77-.21-1.04.07-.08.14-.1.19-.1,0,0,0,0,0,0,.17,0,.32.16.51.37.06.07.13.14.2.21.21.2.44.35.63.47.09.06.16.1.22.15.55.38.71,1.08.85,1.69.06.24.11.47.18.66.03.07,0,.14-.08.17-.02,0-.03,0-.05,0Z"/>
              <path class="cls-1" d="m54.47,83.67c-.39,0-.8-.08-1.19-.23-1.27-.49-4.7-1.92-4.74-1.94-.07-.03-.1-.11-.07-.17.03-.07.1-.1.17-.07.03.01,3.46,1.44,4.73,1.93.75.29,1.57.28,2.08-.02.17-.1.37-.27.41-.55.17-1.26-.63-2.74-.94-3.3,0,0,0-.02-.01-.02-.23.18-.62.29-.76.32-.36.09-.8.14-1.12.05.17.59.59,1.95.87,2.62.03.07,0,.14-.07.17-.07.03-.14,0-.17-.07-.37-.88-.94-2.85-.96-2.93-.02-.06,0-.12.06-.15.05-.03.11-.03.16.01.18.15.65.17,1.18.04.45-.11.7-.27.73-.35.02-.05.07-.08.12-.08.05,0,.1.03.12.08.01.03.05.1.09.18.32.58,1.15,2.12.97,3.47-.04.3-.23.56-.54.74-.3.18-.7.27-1.12.27Z"/>
              <path class="cls-1" d="m55.02,78.97c.07.15-.34.31-.34.31l-.1-.39s.33-.15.44.07Z"/>
              <path class="cls-1" d="m43.92,71.18c-.07,0-.13-.06-.13-.13s.06-.13.13-.13c.05,0,.54-.02.59-.63.01-.16-.09-.42-.29-.57-.11-.08-.28-.16-.5-.08-.48.18-.5.82-.5.83,0,.07-.06.13-.13.13-.07,0-.13-.06-.13-.13,0-.03.02-.83.67-1.07.26-.1.53-.06.75.11.25.19.42.53.39.8-.05.69-.58.87-.85.87Z"/>
              <path class="cls-1" d="m36.63,74.3c-.1,0-.21-.02-.32-.07-.26-.12-.39-.47-.42-.77-.02-.3.06-.54.24-.66.48-.31,1.14.34,1.17.37.05.05.05.13,0,.19-.05.05-.14.05-.19,0-.15-.15-.59-.5-.84-.33-.09.06-.13.22-.12.42.02.25.13.49.26.55.35.16.7-.15.7-.15.05-.05.14-.04.19,0,.05.05.05.14,0,.19-.02.01-.3.27-.67.27Z"/>
              <path class="cls-1" d="m47.48,91.09s0,0,0,0c-1.02-.05-2.23-.69-2.73-1.26-.19-.22-.28-.42-.26-.61.01-.16.03-.33.05-.49.05-.48.09-.93.08-1.28,0-.33-.29-.87-.61-1.5-.28-.55-.6-1.17-.82-1.82-.48-1.38-.94-2.8-.75-3.65.02-.07.09-.12.16-.1.07.02.12.09.1.16-.17.78.29,2.22.74,3.5.22.63.53,1.24.81,1.79.35.69.63,1.23.64,1.62,0,.37-.04.83-.08,1.32-.02.16-.03.33-.05.49,0,.11.06.26.2.42.45.52,1.61,1.13,2.55,1.17.07,0,.13.07.13.14,0,.07-.06.13-.13.13Z"/>
              <path class="cls-1" d="m47.48,91.09c-.06,0-.12-.05-.13-.11-.01-.07.04-.14.11-.15.05,0,4.64-.79,4.86-2.74.19-1.68-3.52-5.62-5.39-6.46-.67-.3-1.12-.53-1.48-.71-.63-.31-.92-.46-1.57-.59-.07-.01-.12-.08-.1-.16.01-.07.08-.12.15-.1.68.14,1,.3,1.63.61.36.18.8.4,1.47.7,1.98.9,5.75,4.92,5.55,6.73-.24,2.15-4.88,2.94-5.08,2.97,0,0-.01,0-.02,0Z"/>
              <path class="cls-1" d="m54.2,111.88c-.51,0-1.03-.1-1.26-.37-.01-.02-.02-.04-.03-.06,0-.03-.63-2.78-1.05-3.94-.25-.7-.82-2.03-1.32-3.21-.7-1.66-1.01-2.4-1.03-2.55,0-.06-.07-.32-.16-.66-.32-1.28-1.07-4.29-1.23-6.74-.15-2.3-.02-3.18-.02-3.22.01-.07.08-.12.15-.11.07.01.12.08.11.15,0,0-.13.9.02,3.16.16,2.43.91,5.42,1.22,6.69.11.43.15.62.16.69.02.15.55,1.39,1.01,2.48.5,1.18,1.07,2.52,1.33,3.22.41,1.12.97,3.6,1.05,3.94.24.24,1.03.31,1.61.21.37-.06.48-.16.48-.18.09-1.15-.1-6.36-.42-7.45-.37-1.29-1.16-2.45-1.58-3.08-.27-.41-.33-.5-.31-.59,0,0,0-.04.02-.08.44-1.95,1.84-8.55,1.18-11.71-.74-3.53-2.6-5.74-2.62-5.76-.05-.06-.04-.14.01-.19.06-.05.14-.04.19.01.02.02,1.93,2.28,2.68,5.88.67,3.21-.74,9.86-1.19,11.82,0,.02,0,.04-.01.05.03.07.15.24.27.42.43.64,1.23,1.83,1.62,3.15.32,1.11.51,6.36.43,7.52,0,.1-.05.24-.32.34-.23.09-.61.15-1,.15Z"/>
              <path class="cls-12" d="m41.92,70.81c.19-.66,2.52.75,2.58,1.25s-.61.42-1.02.13c-.28-.2-1.66-1.05-1.56-1.38Z"/>
            </g>
            <path class="cls-1" d="m55.36,76.82s0,0,0,0c-.07,0-.13-.06-.13-.13.03-1.81-1.43-2.09-1.5-2.1-.07-.01-.12-.08-.11-.15.01-.07.08-.12.15-.11.02,0,1.75.33,1.71,2.37,0,.07-.06.13-.13.13Z"/>
            <path class="cls-1" d="m55.88,75.77c-.07,0-.13-.06-.13-.13,0-1.13-1.2-1.4-1.22-1.4-.07-.01-.12-.08-.1-.16.01-.07.09-.12.16-.1.01,0,1.43.31,1.43,1.66,0,.07-.06.13-.13.13Z"/>
          </g>
          <g>
            <g>
              <path class="cls-11" d="m62.17,126.39s-.12,2.28-.78,3.26c-.52.75-1.63,1.84-1.97,2.15-.77.7-1.85,1.14-2.03,1.17-.54.14-1.25.28-1,.68,0,0-.3.23.25.65.55.42.81.63.81.63,0,0,.07.13.32.3.49.37,1.04.05,1.46.02.39-.04.72-.07,1.26-.23.7-.22,1.3-1.04,2.18-1.55.91-.53,1.59-.37,1.89-.98.3-.59.02-1.82.08-2.65.05-.79.21-1.83.48-3.25l-2.95-.19Z"/>
              <path class="cls-1" d="m57.42,135.06c-.18,0-.37-.06-.45-.25-.05-.09-.05-.2,0-.31.14-.31.65-.59,1.07-.7.07-.02.14.02.16.09.02.07-.02.14-.09.16-.39.1-.81.36-.9.55-.02.05-.01.08,0,.1.06.13.32.09.38.07.07-.02.14.02.16.09.02.07-.02.14-.09.16-.07.02-.15.03-.24.03Z"/>
              <path class="cls-1" d="m56.97,134.62c-.18,0-.37-.08-.46-.27-.04-.07-.04-.15,0-.23.12-.31.76-.57.89-.62.07-.03.14,0,.17.08.03.07,0,.14-.08.17-.26.1-.68.32-.73.46,0,.02,0,.02,0,.03.07.16.27.12.3.12.07-.01.14.03.16.1.02.07-.03.14-.1.16-.04,0-.09.01-.13.01Z"/>
              <path class="cls-1" d="m56.61,134.29c-.18,0-.33-.1-.4-.26-.04-.08-.04-.17,0-.26.12-.27.64-.43.74-.46.07-.02.14.02.16.09.02.07-.02.14-.09.16-.2.06-.52.19-.57.31,0,.01,0,.02,0,.04.03.08.09.11.17.11.08,0,.13.06.13.13,0,.07-.06.13-.13.13,0,0,0,0-.01,0Z"/>
              <path class="cls-1" d="m56.39,133.78s-.09-.02-.11-.06c-.09-.15-.08-.28-.05-.35.11-.27.55-.38.98-.49l.15-.04c.14-.03,1.21-.44,1.98-1.14.28-.26,1.42-1.37,1.95-2.13.64-.94.76-3.17.76-3.19,0-.07.07-.13.14-.12.07,0,.13.07.12.14,0,.09-.13,2.33-.81,3.32-.54.78-1.7,1.91-1.98,2.17-.76.7-1.87,1.16-2.1,1.2l-.14.04c-.31.08-.74.19-.8.33,0,.01-.02.04.03.12.04.06.02.14-.04.18-.02.01-.05.02-.07.02Z"/>
              <path class="cls-1" d="m63.87,130.19s-.04,0-.06-.02c-.06-.04-.09-.12-.05-.18.15-.28.15-.49.14-.75,0-.23-.02-.5.07-.86.02-.07.09-.11.16-.09.07.02.11.09.09.16-.08.32-.07.56-.07.78.01.28.02.54-.17.89-.02.04-.07.07-.12.07Z"/>
              <path class="cls-17" d="m72.31,78.52s-1.64.65-2.36,2.18c-.71,1.53,1.08,3.34,1.29,5.19l6.34-6.43c-.62-1.07-3.18-.85-5.27-.94Z"/>
              <path class="cls-11" d="m68.34,97.63c.73.16,1.05.55,1.48.56.63,0,1.2-.48,2.19-1.48l-.86-1.45c-.78,1.19-2.21,1.24-3.14.99-.62-.17-1.3-.53-1.94-.54-.49,0-.87.04-1.38.03-.51-.01-1.35-.22-1.33.09,0,.14.15.5.36.63.27.16,1.04.28,1.17.26l1.64.21,1.81.71Z"/>
              <path class="cls-1" d="m69.78,97.87c-.85,0-1.34-.06-2.01-.24-.43-.12-.8-.37-1.09-.58-.17-.12-.32-.23-.45-.28-.22-.09-.43-.11-.65-.13-.12-.01-.25-.02-.38-.04-.32-.06-.64-.14-.66-.48,0-.09.02-.17.08-.23.11-.12.31-.17.68-.17.08,0,.16,0,.23-.01.29-.02.55-.04.89.12.2.09.38.2.56.31.19.12.41.26.71.4.07.03.09.11.06.18-.03.07-.11.09-.18.06-.31-.15-.54-.29-.74-.41-.18-.11-.34-.21-.52-.29-.28-.13-.49-.11-.77-.1-.08,0-.15,0-.24.01-.35,0-.46.05-.5.09,0,0-.01.02-.01.04,0,.09.04.17.44.24.12.02.24.03.36.04.23.02.47.04.73.15.15.06.31.17.5.3.29.2.63.44,1.01.54.66.18,1.15.24,2.01.23h0c.07,0,.13.06.13.13,0,.07-.06.13-.13.13h-.07Z"/>
              <path class="cls-1" d="m64.73,96.52c-.26,0-.72-.05-.94-.24-.11-.09-.13-.19-.14-.25,0-.1.02-.2.09-.27.17-.18.51-.18.95-.17.26,0,.49,0,.71-.01.21-.01.43-.02.67-.02.45.01.9.18,1.33.33.22.08.43.16.64.21.98.27,2.29.16,3-.93.04-.06.12-.08.18-.04.06.04.08.12.04.18-.79,1.21-2.22,1.33-3.29,1.04-.22-.06-.44-.14-.66-.22-.42-.15-.85-.31-1.25-.32-.23,0-.43,0-.65.02-.23.01-.46.02-.73.02-.23,0-.65-.02-.75.09-.01.01-.02.03-.02.07,0,0,0,.03.04.07.18.15.71.19.87.17.07,0,.14.04.15.11,0,.07-.04.14-.11.15-.03,0-.08,0-.14,0Z"/>
              <path class="cls-1" d="m66.69,97.05s-.03,0-.04,0c-.69-.2-1.45-.2-2.05-.2-.45,0-.84-.14-1.02-.36-.1-.12-.14-.26-.11-.41.01-.07.08-.12.15-.11s.12.08.11.15c-.01.07,0,.14.06.2.13.16.46.26.82.26,0,0,.01,0,.02,0,.62,0,1.39,0,2.11.21.07.02.11.09.09.16-.02.06-.07.09-.13.09Z"/>
              <path class="cls-1" d="m69.82,98.32c-.25,0-.45-.11-.69-.24-.22-.12-.47-.25-.82-.33-.07-.02-.12-.09-.1-.16.02-.07.09-.12.16-.1.38.09.66.23.89.35.21.11.38.2.57.21.57,0,1.11-.45,2.09-1.44.05-.05.13-.05.19,0,.05.05.05.13,0,.19-1.04,1.05-1.61,1.51-2.28,1.52Z"/>
              <path class="cls-11" d="m89.86,124.72s-.67,2.31,0,3.29c.52.75,1.43,1.81,1.77,2.12.77.7,1.85,1.14,2.03,1.17.54.14,1.25.28,1,.68.08.3-.1.54-.36.78-.7.97-1.54.07-1.21.19.32.12.44.44.19.61-.49.37-1.04.05-1.46.02-.39-.04-.72-.07-1.26-.23-.7-.22-1.3-1.04-2.18-1.55-.91-.53-1.59-.37-1.89-.98-.3-.59,0-1.62.23-2.32.29-1.08.51-2.36.24-3.77h2.9Z"/>
              <path class="cls-1" d="m92.74,133.86c-.21,0-.4-.05-.58-.09-.12-.03-.24-.06-.34-.07h-.04c-.38-.04-.72-.07-1.26-.24-.42-.13-.79-.45-1.19-.79-.32-.27-.64-.55-1.02-.77-.36-.21-.68-.31-.97-.39-.41-.12-.77-.23-.97-.64-.33-.66.02-1.76.22-2.42.26-.95.52-2.24.24-3.71-.01-.07.03-.14.1-.15.07-.01.14.03.15.1.29,1.52.02,2.85-.25,3.83-.2.63-.52,1.67-.24,2.23.15.31.42.39.81.51.28.09.64.19,1.02.42.4.23.74.52,1.06.8.37.32.73.62,1.09.74.51.15.83.19,1.2.22h.03c.12.01.25.04.38.08.33.08.68.16.99-.07.06-.04.09-.09.08-.15-.01-.08-.09-.18-.24-.23-.33-.12-.54-.25-.95-.52-.06-.04-.08-.12-.04-.18.04-.06.12-.08.18-.04.39.26.6.38.9.49.23.08.38.25.41.45.02.15-.05.3-.19.39-.2.15-.42.2-.62.2Z"/>
              <path class="cls-1" d="m93.63,133.39c-.09,0-.18-.01-.25-.03-.07-.02-.11-.09-.09-.16.02-.07.09-.11.16-.09.07.02.33.06.38-.06.01-.03.02-.06,0-.11-.09-.19-.5-.45-.9-.55-.07-.02-.11-.09-.09-.16.02-.07.09-.11.16-.09.42.11.93.39,1.07.7.05.11.05.23,0,.33-.07.18-.26.24-.44.24Z"/>
              <path class="cls-1" d="m94.08,132.95s-.09,0-.13-.01c-.07-.01-.12-.08-.1-.16s.09-.12.16-.1c.02,0,.23.04.29-.11,0-.01,0-.02,0-.04-.06-.15-.47-.36-.74-.46-.07-.03-.1-.1-.08-.17.03-.07.1-.1.17-.08.13.05.77.31.89.62.03.08.03.17-.01.24-.08.19-.27.27-.45.27Z"/>
              <path class="cls-1" d="m94.44,132.62s0,0-.01,0c-.07,0-.13-.06-.13-.13,0-.07.06-.13.13-.13,0,0,0,0,.01,0,.08,0,.13-.03.16-.1.01-.02.01-.03,0-.04-.05-.12-.37-.25-.57-.31-.07-.02-.11-.09-.09-.16.02-.07.09-.11.16-.09.1.03.63.18.74.46.04.09.03.18-.01.26-.07.15-.22.25-.4.25Z"/>
              <path class="cls-1" d="m94.66,132.11s-.05,0-.07-.02c-.06-.04-.08-.12-.04-.18.05-.07.03-.11.03-.12-.06-.14-.49-.25-.8-.33l-.15-.04c-.22-.04-1.32-.5-2.09-1.2-.33-.31-1.25-1.36-1.79-2.14-.69-1.02-.05-3.3-.02-3.4.02-.07.09-.11.16-.09.07.02.11.09.09.16,0,.02-.64,2.26-.02,3.18.51.74,1.42,1.79,1.75,2.09.76.7,1.83,1.11,1.97,1.14l.16.04c.43.11.87.22.98.49.03.08.05.2-.05.35-.02.04-.07.06-.11.06Z"/>
              <path class="cls-1" d="m87.62,128.85s-.09-.02-.12-.07c-.19-.34-.18-.61-.17-.89,0-.22.02-.46-.07-.78-.02-.07.02-.14.09-.16.07-.02.14.02.16.09.09.36.08.62.07.86-.01.26-.02.47.14.75.04.06.01.14-.05.18-.02.01-.04.02-.06.02Z"/>
              <path class="cls-1" d="m58.31,135.53c-.21,0-.42-.05-.63-.2-.14-.09-.2-.24-.18-.39.03-.19.18-.37.41-.45.3-.11.51-.23.9-.49.06-.04.14-.02.18.04.04.06.02.14-.04.18-.4.26-.63.4-.95.52-.15.05-.23.16-.24.23,0,.06.02.1.08.14.32.23.66.15.99.07.13-.03.26-.06.38-.07h.03c.37-.04.69-.07,1.2-.23.36-.11.72-.42,1.09-.74.32-.28.66-.57,1.06-.8.39-.23.74-.33,1.02-.42.4-.12.66-.2.81-.51.17-.34.13-.96.09-1.56-.02-.36-.05-.73-.03-1.04.05-.76.2-1.76.48-3.26.01-.07.08-.12.15-.1s.12.08.1.15c-.28,1.49-.43,2.48-.48,3.23-.02.3,0,.66.03,1.01.04.63.09,1.29-.12,1.69-.2.41-.56.52-.97.64-.28.09-.61.18-.97.39-.38.22-.71.5-1.03.77-.4.34-.77.66-1.18.79-.54.16-.87.19-1.26.23h-.04c-.1.01-.22.04-.34.07-.18.04-.37.09-.58.09Z"/>
              <path class="cls-16" d="m78.13,66.5s-1.66-3.99-2.08-4.02c-.42-.04-1.04,4.16-1.04,4.16,0,0-3.52-2-4.04-1.66-.52.35,1.35,4.19,1.35,4.19,0,0-3.32,1.5-3.5,1.98-.18.48,2.52,2.61,2.52,2.61,0,0-1.8,1.96-1.89,2.74-.09.78,1.82.48,1.82.48l6.85-10.49Z"/>
              <path class="cls-17" d="m74.99,79.66c-.59-.32-2.98-.77-3.59-2.12-.41-.91.05-5.64.41-6.99.36-1.35,1.44-3.61,3.2-3.92,1.76-.32,3.62.02,3.62.02,0,0,1.25-.09,2.62,2.11.52.82.37,1.7.7,2.62.55,1.53,2.02,3.35.16,5.47l-7.13,2.81Z"/>
              <path class="cls-11" d="m92.59,64.98s.08.43.24.65c.36.49.82.75,1.22,1.21.36.43.29.91.99,2.06l-1.73,1.15c-.11-.25-.6-1.3-.85-1.51-.3-.25-1.1-.81-1.43-1.02-.22-.13-.48-.24-.69-.42-.21-.18-.56-.73-.84-1.09-.21-.29-.48-.55-.49-.8,0-.09.01-.68.05-.99.02-.14.2-.58.36-.8.19-.26.45-.13.4.2-.06.34-.12.49-.13.65,0,.13-.02.48.07.72.07.25.22-1.65.37-1.54.55-.82,1.13-.9,1.25-.3.05.24-.15.78-.16,1.19l.52.99.28-.11s-.58-1.72-.2-1.94c.38-.21.77,1.71.77,1.71Z"/>
              <path class="cls-1" d="m91.82,67.6s-.09-.02-.11-.06l-.05-.08c-.15-.25-.28-.47-.5-.77-.09-.11-.15-.19-.22-.27-.11-.14-.2-.24-.31-.42-.12-.18-.2-.36-.28-.55-.03-.07-.07-.15-.1-.23-.05-.11-.11-.21-.16-.3-.14-.25-.26-.47-.14-.66.08-.1.18-.16.3-.16.2,0,.42.12.67.39.19.21.29.4.39.58.1.18.17.32.3.42.06.05.11.09.16.12.17.14.31.25.74.53.13.08.26.15.38.21.37.19.72.38,1.03.84.04.06.02.14-.04.18-.06.04-.14.02-.18-.04-.27-.41-.58-.57-.93-.76-.13-.07-.26-.14-.4-.22-.45-.29-.59-.4-.77-.54-.05-.04-.09-.07-.15-.12-.18-.13-.27-.31-.38-.5-.09-.16-.19-.34-.35-.53-.26-.28-.41-.31-.46-.3-.02,0-.06,0-.1.05-.03.04.07.22.16.37.05.09.11.2.17.32.04.08.07.16.11.23.08.19.16.35.26.51.11.16.19.26.3.4.06.08.13.16.22.28.22.31.36.53.51.79l.05.08c.04.06.02.14-.05.18-.02.01-.04.02-.07.02Z"/>
              <path class="cls-1" d="m95.04,69.02s-.09-.02-.11-.06c-.39-.63-.55-1.08-.66-1.4-.1-.27-.17-.46-.32-.64-.17-.2-.36-.36-.54-.52-.23-.2-.47-.41-.68-.7-.18-.23-.26-.68-.27-.7-.01-.07.03-.14.1-.15.07-.01.14.03.15.1.02.11.1.44.22.59.19.26.41.45.64.66.19.17.38.34.57.55.18.22.26.44.36.72.12.33.27.74.64,1.35.04.06.02.14-.04.18-.02.01-.05.02-.07.02Z"/>
              <path class="cls-1" d="m93.31,70.17c-.05,0-.1-.03-.12-.08-.18-.42-.62-1.3-.82-1.46-.3-.25-1.09-.8-1.41-1.01-.07-.04-.14-.08-.22-.12-.16-.09-.33-.18-.49-.31-.15-.13-.35-.41-.57-.71-.1-.14-.2-.28-.29-.4-.05-.07-.11-.14-.16-.21-.18-.22-.34-.43-.36-.66,0-.11.01-.71.05-1.02.02-.18.22-.64.39-.87.12-.16.29-.23.44-.17.16.07.23.25.19.47-.03.17-.06.29-.08.39-.02.1-.04.17-.05.24,0,.13-.02.46.06.67.06.21.52.68.67.79.06.04.07.13.03.18-.04.06-.13.07-.18.03-.13-.09-.68-.61-.77-.92-.09-.25-.08-.61-.07-.76,0-.1.03-.19.05-.3.02-.1.05-.21.08-.37.02-.12-.01-.17-.04-.18-.03-.01-.08.01-.12.08-.16.21-.33.63-.34.74-.04.31-.06.89-.05.97,0,.15.15.32.3.51.06.07.11.14.16.21.09.12.2.27.3.41.19.27.39.56.52.66.13.11.29.2.44.28.08.04.16.09.23.13.34.22,1.14.77,1.44,1.03.31.26.89,1.55.89,1.56.03.07,0,.14-.07.17-.02,0-.03.01-.05.01Z"/>
              <path class="cls-1" d="m91.52,65.74c-.05,0-.11-.03-.12-.09-.02-.07.01-.14.08-.17.3-.1.59-.12.93-.11.07,0,.13.06.13.14,0,.07-.06.13-.14.13-.32,0-.57,0-.84.1-.01,0-.03,0-.04,0Z"/>
              <path class="cls-1" d="m90.29,65.83s-.09-.02-.12-.07c-.02-.04-.06-.09-.1-.16-.21-.33-.41-.65-.42-.88-.06-.96.71-1.89.74-1.93.12-.13.25-.24.39-.22.09.01.17.07.23.17.11.16.02.51-.02.65-.03.08-.06.16-.08.24-.09.26-.2.56-.16.7.02.07-.03.14-.1.16-.07.02-.14-.03-.16-.1-.05-.22.06-.52.17-.85.03-.08.06-.16.08-.23.07-.25.06-.4.05-.43-.02-.04-.04-.05-.04-.05,0,0-.05.01-.16.13-.02.03-.72.88-.67,1.74,0,.18.25.55.38.75.05.07.09.14.11.18.04.06.01.14-.05.18-.02.01-.04.02-.06.02Z"/>
              <path class="cls-1" d="m91.82,65.56s-.08-.02-.11-.06c-.53-.8-.59-1.07-.52-1.65v-.07c.07-.48.09-.66,0-.86,0-.02-.01-.02-.01-.02-.03,0-.11.07-.12.1-.03.07-.11.1-.17.07s-.1-.1-.07-.17c.05-.11.2-.26.37-.26h0c.11,0,.2.07.25.18.11.26.08.47.02.99v.07c-.07.51-.03.73.47,1.48.04.06.02.14-.04.18-.02.01-.05.02-.07.02Z"/>
              <path class="cls-1" d="m92.73,65.57s-.1-.03-.12-.08c-.04-.08-.08-.24-.16-.57-.03-.11-.06-.23-.09-.36-.1-.37-.24-.8-.33-.99-.1-.19-.18-.24-.2-.24,0,0,0,0-.01.03-.03.06,0,.19,0,.3.02.14.05.33.09.52.08.42.17.9.17,1.26,0,.07-.06.13-.13.13h0c-.07,0-.13-.06-.13-.13,0-.33-.09-.8-.16-1.21-.04-.2-.07-.38-.09-.53-.02-.16-.04-.32.02-.43.04-.11.13-.18.24-.18.09,0,.27.04.45.39.1.21.25.65.35,1.04.03.13.07.25.09.36.06.25.12.46.14.52.03.07,0,.14-.06.18-.02,0-.04.01-.06.01Z"/>
              <path class="cls-17" d="m87.62,114.46s-.52,2.64-1.03,5.46c-.51,2.83-.38,7.55-.38,7.55.15.88,3.52.88,3.79.16,0,0,4.64-11.8,4.14-14.86-.24-1.48-7.68-12.37-8.6-15.38-.51-1.67-1.11-5.55-1.25-6.11-.14-.56,1.25-9.36,1.25-9.36l-2.71-5.81-11.6,6.67s-.08,3.29,0,5.61c.01.36.06.76.11,1.19.17,1.33.46,2.89.23,4.26-.01.07-.02.13-.04.2-.3,1.43-2.59,6.71-3.19,7.67-.6.96-4.49,9.4-5.14,12.33-.23,1.02-1.77,9.39-1.59,14.39-.04.88,2.74,1.62,3.5.82,0,0,2.93-7.55,3.92-12.96.32-.58.87-1.17,1.22-1.75,2.11-3.5,4.61-7,7.95-10.51l1.29,1.12,8.13,9.32Z"/>
              <path class="cls-16" d="m81.68,94.29c-1.04,3.63-3.89,5.82-5.64,5.47-1.75-.35-4.34-2.66-4.37-4.51,0-.39-.04-.88-.09-1.42.23-1.36-.05-2.93-.23-4.26.01-1.03.09-2.05.32-2.97.87-3.61,2.28-4.44,3.04-4.69,1.39-.45,3.01-.02,4.32,1.44,1.59,1.77,3.7,7.3,2.66,10.93Z"/>
              <g>
                <path class="cls-4" d="m76.43,68.84c1.34-.52,2.95-.19,3.75.57.49.46.51,1.45.51,1.45,0,0,.07.2.09.39.03.36.03.9.14,1.38.15.73.38,1.21.23,1.95-.18.86-.37,1.71-.8,2.07-.32.29.2-.09.2-.09l.15-.15,1.25-.32c-1.06,1.23-2.66,2.31-4.38,3.35-.21-.66-1.1-1.05-2.09-1.39l-.75-.57.81-.23-.06-2.45s-.78-.04-1.2-.53c-.29-.34-.25-.82-.25-.82,0,0,.25-3.78,2.4-4.64Z"/>
                <path class="cls-6" d="m74.01,68.39c.18-.11.84-.56,1.36-.74.58-.2,1.04-.14,1.78-.23.66-.09,1.28-.27,1.85,0,.32.15.96.56.96.56l.46-.02s.06.09.03.21c-.03.12-.13.26-.13.26,0,0,.69.33.82.93.1.6-.38,1.5-.38,1.5,0,0-.52-1.58-1.41-1.65-.35-.03-1.19-.02-1.54.35-.55.56-.57,1.55-.79,1.95-.13.24-.68.55-.68.55,0,0,.03.42-.51.78-.33.22-.87.11-1.24.23-.26.08-.44.45-.44.45,0,0-.45-.58-.71-1.07-.27-.5-.34-.89-.34-.89,0,0-.21.04-.31-.03-.1-.07-.15-.18-.15-.18,0,0,.3-.12.36-.74.03-.61.07-1.59,1.02-2.22Z"/>
                <path class="cls-2" d="m79.25,76.89s-.23.03-1.04-.1c-.76-.13-1.69-.79-1.69-.79,0,0,1.03,1.28,1.9,1.56.8.26.86.1.86.1l-.03-.77Z"/>
                <path class="cls-1" d="m75.49,77.79s-.02,0-.03,0c-.07-.02-.12-.09-.1-.16,0,0,.12-.6,0-2.48,0-.07.05-.14.12-.14.07,0,.14.05.14.12.13,1.94,0,2.53,0,2.56-.01.06-.07.1-.13.1Z"/>
                <path class="cls-1" d="m79.32,78.11c-.06,0-.12-.05-.13-.11l-.15-1.12c0-.07.04-.14.11-.15.07,0,.14.04.15.11l.15,1.12c0,.07-.04.14-.11.15,0,0-.01,0-.02,0Z"/>
                <path class="cls-1" d="m79.36,76.99c-.69,0-1.5-.13-1.91-.3-.69-.3-1.25-.87-1.27-.89-.05-.05-.05-.14,0-.19s.14-.05.19,0c0,0,.55.55,1.19.83.69.29,2.34.38,2.67.14.21-.15.43-.59.6-1.18.19-.69.25-1.19.19-1.68-.05-.35-.09-.53-.14-.7-.03-.13-.07-.27-.1-.48-.03-.25-.05-.49-.06-.72,0-.12-.01-.24-.02-.36v-.02c-.08-1.07-.53-1.67-.9-1.98-.06-.05-.06-.13-.01-.19.05-.06.13-.06.19-.01.4.35.9,1,.99,2.16v.02c.01.12.02.24.02.36.01.24.03.46.06.7.03.2.06.32.1.45.05.18.09.36.14.73.06.53,0,1.06-.2,1.79-.18.66-.43,1.13-.7,1.33-.19.13-.58.18-1.02.18Z"/>
                <path class="cls-1" d="m75.4,74.96h0c-.62,0-1.05-.25-1.29-.73-.19-.36-.16-.79.07-1.05.23-.27.61-.34,1.04-.2.07.02.11.1.08.17s-.1.11-.17.08c-.33-.11-.59-.07-.75.12-.16.19-.18.5-.04.76.2.39.54.58,1.06.58.07,0,.13.06.13.13,0,.07-.06.13-.13.13Z"/>
                <path class="cls-1" d="m75.07,74.16s-.07-.02-.1-.04c0,0-.11-.12-.23-.17-.07-.03-.1-.1-.07-.17.03-.07.1-.1.17-.07.18.08.33.24.33.24.05.05.04.14-.01.19-.02.02-.06.03-.09.03Z"/>
                <path class="cls-1" d="m79.92,73.95s-.05,0-.07-.02c-.06-.04-.08-.12-.04-.18.12-.19.12-.27.11-.29,0-.03-.05-.06-.13-.11-.11-.06-.25-.15-.33-.33-.15-.36-.09-.83-.09-.85.01-.07.08-.12.15-.11.07,0,.12.08.11.15,0,0-.05.41.07.71.04.1.13.16.22.21.1.06.22.13.25.27.03.13-.02.28-.15.49-.03.04-.07.06-.11.06Z"/>
                <path class="cls-1" d="m77.29,71.66s-.07-.02-.1-.05c-.05-.05-.04-.14.01-.19.02-.02.49-.42,1.22-.29.07.01.12.08.11.15s-.08.12-.15.11c-.6-.11-.98.21-1,.23-.02.02-.06.03-.09.03Z"/>
                <path class="cls-1" d="m79.83,71.17s-.08-.02-.1-.05c-.04-.06-.03-.14.02-.18.47-.36.93-.16.95-.15.07.03.1.11.07.17-.03.07-.11.1-.17.07-.02,0-.34-.14-.68.12-.02.02-.05.03-.08.03Z"/>
                <path class="cls-1" d="m74.12,73.72s-.07-.01-.09-.04c-.04-.04-.95-.99-1.11-2.13-.01-.07.04-.14.11-.15.07-.01.14.04.15.11.15,1.06,1.03,1.98,1.04,1.99.05.05.05.14,0,.19-.03.02-.06.04-.09.04Z"/>
                <path class="cls-1" d="m72.53,71.47s-.09-.03-.12-.07c-.03-.06,0-.14.06-.18.3-.16.34-.4.38-.85.04-.39.08-.88.43-1.4.65-.97,2.51-1.87,3.74-1.53.07.02.11.09.09.16-.02.07-.09.11-.16.09-1.13-.31-2.85.53-3.45,1.43-.31.46-.35.9-.38,1.28-.04.43-.07.83-.52,1.06-.02.01-.04.01-.06.01Z"/>
                <path class="cls-1" d="m80.76,71.01s-.03,0-.05,0c-.07-.03-.1-.1-.07-.17.02-.06.05-.13.08-.19.32-.78.62-1.53-.5-2.15-.06-.04-.09-.12-.05-.18.04-.06.12-.09.18-.05,1.32.74.93,1.71.61,2.48-.03.06-.05.12-.08.19-.02.05-.07.08-.12.08Z"/>
                <path class="cls-1" d="m75.88,72.19c-.13,0-.26-.01-.41-.04-.07-.01-.12-.08-.11-.15.01-.07.08-.12.15-.11.81.13,1.29-.13,1.47-.79.24-.9.48-1.66,1-1.92.22-.11.46-.11.72,0,.07.03.1.1.07.17-.03.07-.1.1-.17.07-.19-.08-.36-.08-.51,0-.45.22-.69,1.11-.86,1.75-.13.48-.47,1.02-1.35,1.02Z"/>
                <path class="cls-1" d="m79.29,69.4s-.01,0-.02,0c-.07,0-.12-.07-.11-.15.03-.21.13-.39.28-.5.15-.11.34-.14.54-.1.07.01.12.08.1.16-.01.07-.08.12-.16.1-.13-.03-.25,0-.34.06-.09.07-.16.19-.18.32,0,.07-.06.12-.13.12Z"/>
                <path class="cls-1" d="m75.48,73.08c-.07,0-.12-.05-.13-.12,0-.07.04-.14.12-.15.41-.05.52-.38.52-.38.02-.07.1-.11.17-.08.07.02.11.1.08.17,0,.02-.17.49-.74.56,0,0-.01,0-.02,0Z"/>
                <path class="cls-1" d="m78.58,68.82s-.08-.02-.11-.06c-.1-.15-.44-.54-.74-.59-.07-.01-.12-.08-.11-.15.01-.07.08-.12.15-.11.48.07.9.67.92.7.04.06.03.14-.03.18-.02.02-.05.02-.08.02Z"/>
                <path class="cls-1" d="m77.79,73.04s-.03,0-.05-.01c-.07-.03-.1-.1-.07-.17.08-.2.24-.34.42-.38.15-.04.31,0,.43.1.06.05.06.13.02.19-.05.06-.13.06-.19.02-.07-.06-.15-.06-.2-.05-.1.03-.19.11-.24.23-.02.05-.07.08-.12.08Z"/>
                <path class="cls-1" d="m79.98,72.69s-.03,0-.05,0c-.07-.03-.1-.1-.07-.17.08-.2.21-.33.37-.37.14-.03.28,0,.41.11.06.05.06.13.02.19-.05.06-.13.06-.19.02-.04-.03-.11-.07-.18-.06-.07.02-.14.1-.19.21-.02.05-.07.08-.12.08Z"/>
                <path class="cls-1" d="m79.46,75.27c-.43,0-.77-.15-.8-.16-.07-.03-.1-.11-.07-.17.03-.07.11-.1.17-.07.04.02.95.41,1.6-.22.05-.05.14-.05.19,0,.05.05.05.14,0,.19-.35.34-.75.44-1.1.44Z"/>
              </g>
              <path class="cls-17" d="m84.76,81.92s4.75.08,6.58-.17c1.83-.25,4.18,0,4.9-2.08.53-1.52-.72-11.51-.72-11.51-.78-.68-3.2-.02-3.5.74,0,0,.37,2.02.53,3.46.12,1.07-.16,2.89-.35,4.7-.58.07-5.48-1-7.55-1.49-.77-.18-2.07,0-2.07.16l2.19,6.2Z"/>
              <path class="cls-1" d="m80.25,105.27s-.06-.01-.09-.03c-1.39-1.21-3.15-1.33-3.17-1.33-.07,0-.13-.07-.12-.14s.07-.13.14-.12c.08,0,1.87.13,3.32,1.4.06.05.06.13.01.19-.03.03-.06.05-.1.05Z"/>
              <path class="cls-1" d="m68.53,116.8c-.05,0-.1-.03-.12-.08-.03-.07,0-.14.07-.17.67-.3,1.53-1.82,2.36-3.28.59-1.05,1.21-2.13,1.8-2.87,1.43-1.79,5.44-6.42,5.48-6.46.05-.06.13-.06.19-.01.06.05.06.13.01.19-.04.05-4.04,4.67-5.47,6.45-.58.73-1.19,1.8-1.78,2.84-.89,1.57-1.73,3.05-2.48,3.39-.02,0-.04.01-.05.01Z"/>
              <path class="cls-1" d="m87.84,114.88s-.08-.02-.11-.05c-1.11-1.54-9.13-10.48-9.21-10.57-.05-.05-.04-.14.01-.19.05-.05.14-.04.19.01.33.37,8.11,9.04,9.22,10.59.04.06.03.14-.03.18-.02.02-.05.03-.08.03Z"/>
              <path class="cls-1" d="m71.24,86.02c-.07,0-.12-.05-.13-.12-.08-.72-.42-1.45-.74-2.15-.51-1.1-.98-2.13-.53-3.1.73-1.56,2.36-2.22,2.43-2.25.07-.03.14,0,.17.07.03.07,0,.14-.07.17-.02,0-1.6.65-2.29,2.11-.4.86.05,1.84.53,2.88.33.72.68,1.47.77,2.24,0,.07-.04.14-.12.15,0,0-.01,0-.02,0Z"/>
              <path class="cls-1" d="m64,129.71c-.53,0-1.11-.13-1.59-.33-.62-.26-.95-.61-.93-.97-.18-5.01,1.38-13.46,1.59-14.42.65-2.89,4.5-11.32,5.16-12.37.6-.96,2.88-6.24,3.17-7.63.01-.06.03-.13.04-.19.2-1.15.01-2.48-.15-3.64-.03-.2-.05-.39-.08-.58-.07-.49-.1-.87-.11-1.2-.08-2.3,0-5.59,0-5.62,0-.07.06-.13.13-.13h0c.07,0,.13.06.13.13,0,.03-.08,3.31,0,5.6.01.32.05.69.11,1.18.02.19.05.38.08.58.17,1.19.35,2.53.15,3.72-.01.07-.02.13-.04.2-.31,1.45-2.58,6.72-3.21,7.71-.65,1.04-4.49,9.42-5.13,12.28-.22.95-1.76,9.36-1.59,14.36-.01.24.28.51.77.72.83.36,2.05.45,2.49.03.19-.49,2.96-7.73,3.9-12.91.01-.07.08-.12.15-.11.07.01.12.08.11.15-.98,5.36-3.9,12.91-3.93,12.98,0,.02-.02.03-.03.04-.26.27-.71.38-1.21.38Z"/>
              <path class="cls-1" d="m88.19,128.28c-.19,0-.37,0-.54-.02-.44-.04-1.46-.2-1.56-.77,0,0,0-.01,0-.02,0-.05-.12-4.77.38-7.57.5-2.8,1.03-5.44,1.03-5.46.01-.07.08-.12.15-.1.07.01.12.08.1.15,0,.03-.53,2.67-1.03,5.46-.49,2.72-.38,7.26-.38,7.51.05.26.57.47,1.32.54,1.02.1,2.09-.11,2.21-.42.05-.12,4.62-11.81,4.13-14.79-.11-.65-1.78-3.38-3.54-6.27-2.13-3.49-4.55-7.44-5.05-9.08-.36-1.19-.78-3.53-1.03-4.93-.1-.57-.18-1.03-.22-1.19-.14-.57,1.1-8.51,1.25-9.41.01-.07.08-.12.15-.11.07.01.12.08.11.15-.55,3.53-1.34,8.92-1.25,9.31.04.17.12.6.22,1.2.25,1.39.66,3.72,1.02,4.9.49,1.61,2.9,5.55,5.02,9.02,1.86,3.04,3.46,5.67,3.58,6.37.5,3.06-3.96,14.45-4.15,14.93-.17.44-1.11.61-1.94.61Z"/>
              <path class="cls-1" d="m76.43,99.93c-.14,0-.28-.01-.42-.04-1.85-.37-4.45-2.77-4.48-4.63,0-.41-.05-.92-.09-1.42,0-.01,0-.02,0-.03.2-1.15.01-2.47-.15-3.64-.03-.2-.05-.39-.08-.58,0,0,0-.01,0-.02.01-1.18.12-2.16.32-3,.65-2.71,1.7-4.32,3.13-4.78,1.52-.49,3.18.06,4.45,1.48,1.52,1.7,3.75,7.33,2.69,11.06h0c-.96,3.38-3.51,5.6-5.38,5.6Zm-4.72-6.09c.04.49.08,1,.09,1.42.03,1.76,2.51,4.03,4.27,4.38,1.73.34,4.51-1.93,5.49-5.38h0c1.04-3.65-1.14-9.15-2.63-10.81-1.2-1.34-2.76-1.87-4.18-1.41-1.31.43-2.33,2.02-2.95,4.59-.2.82-.3,1.78-.31,2.93.02.18.05.37.08.57.16,1.18.35,2.52.15,3.71Z"/>
              <path class="cls-1" d="m70.53,77.18c-.39,0-.83-.05-1.05-.27-.12-.11-.17-.26-.15-.42.08-.72,1.45-2.28,1.83-2.71-.88-.7-2.64-2.18-2.45-2.67.18-.48,2.68-1.65,3.44-2-.6-1.25-1.79-3.88-1.25-4.24.51-.34,3.01,1,4.01,1.56.05-.35.18-1.14.33-1.91.44-2.21.67-2.18.82-2.17.44.04,1.56,2.59,2.19,4.1.03.07,0,.14-.07.17-.07.03-.14,0-.17-.07-.75-1.8-1.67-3.72-1.96-3.93-.24.25-.64,2.22-.91,4.03,0,.04-.03.08-.07.1-.04.02-.09.02-.12,0-1.66-.94-3.62-1.85-3.9-1.66-.23.15.43,2.03,1.4,4.03.02.03.02.07,0,.1-.01.03-.04.06-.07.08-1.61.73-3.33,1.64-3.43,1.91-.06.23,1.08,1.36,2.48,2.46.03.02.05.06.05.09,0,.04,0,.07-.03.1-.49.54-1.79,2.06-1.86,2.66,0,.08.01.15.07.2.25.24,1.12.21,1.6.14.07-.01.14.04.15.11.01.07-.04.14-.11.15-.07.01-.4.06-.77.06Z"/>
              <path class="cls-1" d="m92.2,77.18s-.01,0-.02,0c-.18-.02-4.32-.56-5.89-1.05-1.88-.59-2.42-.55-3.26-.33-.07.02-.14-.02-.16-.09-.02-.07.02-.14.09-.16.9-.24,1.46-.28,3.41.33,1.55.48,5.81,1.04,5.85,1.04.07,0,.12.08.11.15,0,.07-.07.11-.13.11Z"/>
              <path class="cls-1" d="m86.46,82.06c-.97,0-1.68-.01-1.7-.01-.07,0-.13-.06-.13-.13,0-.07.06-.13.13-.13h0s4.76.08,6.56-.17c.33-.05.69-.08,1.04-.1,1.57-.13,3.19-.27,3.76-1.89.49-1.42-.62-10.62-.72-11.4-.33-.25-1.03-.29-1.79-.1-.71.17-1.3.5-1.45.8.05.29.38,2.11.52,3.43.1.88-.08,2.41-.26,3.89-.12,1-.24,2.04-.27,2.85,0,.07-.07.13-.14.13-.07,0-.13-.06-.13-.14.03-.82.16-1.86.27-2.87.17-1.47.35-2.98.26-3.83-.15-1.42-.52-3.43-.53-3.45,0-.02,0-.05,0-.07.19-.48,1.01-.83,1.65-.99.9-.22,1.68-.15,2.07.19.02.02.04.05.04.08.05.41,1.25,10.04.72,11.57-.62,1.79-2.41,1.94-3.98,2.07-.36.03-.7.06-1.02.1-1.12.15-3.35.18-4.91.18Z"/>
              <path class="cls-1" d="m74.74,77.63c-.06,0-.11-.04-.13-.09-.02-.07.02-.14.09-.16l.75-.23c.07-.02.14.02.16.09.02.07-.02.14-.09.16l-.75.23s-.03,0-.04,0Z"/>
              <path class="cls-1" d="m80.55,76.55c-.06,0-.11-.04-.13-.1-.02-.07.03-.14.1-.16l1.4-.32c.07-.02.14.03.16.1.02.07-.03.14-.1.16l-1.4.32s-.02,0-.03,0Z"/>
              <path class="cls-17" d="m81.14,70.88l.59-.47s-.45-2.58-1.68-3.16c-1.23-.58-5.18-1.13-6.37.24-1.2,1.37-2.09,3.68-1.37,5.27.72,1.59,2.06,2.38,2.06,2.38,0,0-.6-2.6.04-3.89.64-1.29,1.59-3,2.81-3.64.5-.26,1.09-.39,1.62-.26.75.19,1.39.8,1.61,1.41.37,1.04.68,2.11.68,2.11Z"/>
              <path class="cls-1" d="m76.41,100.75s-.09-.02-.11-.07c-.91-1.6-1.55-6.49-1.64-8.07-.15-2.65-.15-11.86,0-12.32.11-.33.54-.39,1.15-.49.34-.05.73-.11,1.15-.23,1.08-.3,4.94-3.05,5.41-4.34.28-.76-.28-1.91-.78-2.92-.35-.71-.64-1.32-.63-1.73.03-.57-.65-1.85-1.38-2.62-.37-.38-.7-.59-.93-.59-2.86,0-4.34,4.2-4.84,6.01-.02.07-.09.11-.16.09-.07-.02-.11-.09-.09-.16.52-1.86,2.06-6.2,5.09-6.2.4,0,.83.37,1.12.68.72.75,1.49,2.09,1.46,2.81-.02.34.28.95.6,1.6.52,1.06,1.11,2.26.79,3.13-.52,1.42-4.41,4.17-5.59,4.5-.43.12-.83.18-1.18.24-.49.07-.88.13-.94.31-.13.42-.15,9.47,0,12.22.09,1.57.72,6.39,1.61,7.96.04.06.01.14-.05.18-.02.01-.04.02-.06.02Z"/>
              <path class="cls-1" d="m77.58,79.59c-.07,0-.12-.05-.13-.12-.06-.46-.82-.78-1.49-1.06-.61-.25-1.19-.5-1.35-.87-.32-.73-.62-5.37-.63-5.56,0-.07.05-.14.12-.14.07,0,.14.05.14.12.1,1.65.36,4.92.61,5.47.12.27.67.5,1.21.73.77.32,1.57.66,1.64,1.27,0,.07-.04.14-.11.15,0,0-.01,0-.02,0Z"/>
              <path class="cls-1" d="m74.99,79.79s-.04,0-.06-.02c-.13-.07-.38-.16-.67-.25-.99-.34-2.49-.85-2.98-1.93-.45-.99.06-5.82.4-7.08.36-1.34,1.45-3.69,3.31-4.02,1.7-.3,3.47-.01,3.66.02.17,0,1.4.05,2.73,2.17.32.51.4,1.04.47,1.56.05.36.11.72.24,1.09.1.28.23.56.37.87.6,1.31,1.34,2.94-.23,4.73-.05.05-.13.06-.19.01-.05-.05-.06-.13-.01-.19,1.46-1.66.78-3.14.19-4.45-.14-.31-.27-.6-.38-.89-.14-.39-.2-.77-.25-1.14-.08-.51-.15-.99-.44-1.45-1.31-2.09-2.49-2.05-2.5-2.05-.01,0-.02,0-.03,0-.02,0-1.86-.33-3.58-.02-1.72.31-2.76,2.55-3.1,3.83-.36,1.35-.81,6.02-.41,6.9.44.98,1.88,1.46,2.83,1.79.31.11.56.19.71.27.06.03.09.11.05.18-.02.04-.07.07-.12.07Z"/>
              <path class="cls-1" d="m63.59,96.34s-.03,0-.05,0c-.02,0-.24-.1-.31-.28-.04-.09-.03-.19.02-.29.16-.33.82-.2,1.01-.15.07.02.11.09.1.16-.02.07-.09.11-.16.1-.33-.08-.68-.07-.72.01-.02.04-.01.06,0,.08.02.06.12.12.16.13.07.03.1.1.08.17-.02.05-.07.08-.12.08Z"/>
            </g>
            <path class="cls-1" d="m89.9,68.12s-.01,0-.02,0c-.07-.01-1.8-.32-2.42-2.66-.02-.07.02-.14.09-.16.07-.02.14.02.16.09.57,2.18,2.14,2.46,2.2,2.47.07.01.12.08.11.15-.01.06-.07.11-.13.11Z"/>
            <path class="cls-1" d="m89.2,68.58s-.03,0-.04,0c-.05-.02-1.3-.44-1.94-2.11-.03-.07,0-.14.08-.17.07-.03.14,0,.17.08.6,1.56,1.77,1.95,1.78,1.95.07.02.11.1.08.17-.02.06-.07.09-.13.09Z"/>
            <path class="cls-1" d="m62.82,95.03c-.05,0-.1-.03-.12-.08-.03-.07,0-.14.07-.17,2.13-.97,3.65-.18,3.72-.15s.09.11.05.18c-.03.06-.11.09-.18.05-.01,0-1.48-.76-3.48.15-.02,0-.04.01-.05.01Z"/>
            <path class="cls-1" d="m63.3,94.06c-.05,0-.1-.03-.12-.08-.03-.07,0-.14.07-.17,1.48-.59,2.73-.09,2.78-.07.07.03.1.1.07.17-.03.07-.1.1-.17.07-.01,0-1.21-.48-2.58.07-.02,0-.03,0-.05,0Z"/>
          </g>
        </g>
        <g>
          <path class="cls-18" d="m60.43,67.8l-.06.75c-.05.69-.41,1.24-.86,1.32l-.49.09.49.09c.45.08.81.63.86,1.32l.06.75.06-.75c.05-.69.41-1.24.87-1.32l.49-.09-.49-.09c-.45-.08-.81-.63-.87-1.32l-.06-.75Z"/>
          <path class="cls-18" d="m76.82,53.62l-.06.75c-.05.69-.41,1.24-.86,1.32l-.49.09.49.09c.45.08.81.63.86,1.32l.06.75.06-.75c.05-.69.41-1.24.87-1.32l.49-.09-.49-.09c-.45-.08-.81-.63-.87-1.32l-.06-.75Z"/>
          <path class="cls-18" d="m33.15,89.89l-.06.75c-.05.69-.41,1.24-.86,1.32l-.49.09.49.09c.45.08.81.63.86,1.32l.06.75.06-.75c.05-.69.41-1.24.87-1.32l.49-.09-.49-.09c-.45-.08-.81-.63-.87-1.32l-.06-.75Z"/>
          <path class="cls-3" d="m.82,92.25l-.03.44c-.03.4-.24.72-.5.77l-.29.05.29.05c.26.05.47.36.5.76l.03.44.03-.44c.03-.4.24-.72.5-.76l.29-.05-.29-.05c-.26-.05-.47-.36-.5-.77l-.03-.44Z"/>
          <path class="cls-18" d="m20.63,80.26l-.03.41c-.03.38-.22.67-.47.72l-.27.05.27.05c.25.04.44.34.47.72l.03.41.03-.41c.03-.37.22-.67.47-.72l.27-.05-.27-.05c-.25-.04-.44-.34-.47-.72l-.03-.41Z"/>
          <path class="cls-18" d="m65.39,77.29l-.03.41c-.03.38-.22.67-.47.72l-.27.05.27.05c.25.04.44.34.47.72l.03.41.03-.41c.03-.37.22-.67.47-.72l.27-.05-.27-.05c-.25-.04-.44-.34-.47-.72l-.03-.41Z"/>
          <path class="cls-18" d="m86.03,58.38l-.03.41c-.03.38-.22.67-.47.72l-.27.05.27.05c.25.04.44.34.47.72l.03.41.03-.41c.03-.37.22-.67.47-.72l.27-.05-.27-.05c-.25-.04-.44-.34-.47-.72l-.03-.41Z"/>
          <path class="cls-18" d="m35.36,63.82l-.03.41c-.03.38-.22.67-.47.72l-.27.05.27.05c.25.04.44.34.47.72l.03.41.03-.41c.03-.37.22-.67.47-.72l.27-.05-.27-.05c-.25-.04-.44-.34-.47-.72l-.03-.41Z"/>
          <path class="cls-3" d="m5.1,101.34l-.05.74c-.05.68-.4,1.21-.84,1.29l-.48.09.48.09c.44.08.79.61.84,1.29l.05.74.06-.74c.05-.67.4-1.21.85-1.29l.48-.09-.48-.09c-.44-.08-.79-.61-.85-1.29l-.06-.74Z"/>
          <path class="cls-3" d="m3.93,77.62l-.05.74c-.05.68-.4,1.21-.84,1.29l-.48.09.48.09c.44.08.79.61.84,1.29l.05.74.06-.74c.05-.67.4-1.21.85-1.29l.48-.09-.48-.09c-.44-.08-.79-.61-.85-1.29l-.06-.74Z"/>
          <path class="cls-18" d="m30.55,72.25l-.06.74c-.05.67-.4,1.21-.85,1.29l-.48.08.48.09c.44.08.79.61.85,1.29l.06.74.06-.74c.05-.68.4-1.21.84-1.29l.48-.09-.48-.08c-.44-.08-.79-.61-.84-1.29l-.06-.74Z"/>
        </g>
      </g>
    </g>
  </g>
</svg>