<?xml version="1.0" encoding="UTF-8"?>
<svg id="_レイヤー_2" data-name="レイヤー 2" xmlns="http://www.w3.org/2000/svg" viewBox="0 0 105.34 143.52">
  <defs>
    <style>
      .cls-1 {
        fill: #ffce7e;
      }

      .cls-2, .cls-3 {
        fill: #262626;
      }

      .cls-4, .cls-5 {
        fill: #fff;
      }

      .cls-6, .cls-5, .cls-7, .cls-3 {
        fill-rule: evenodd;
      }

      .cls-6, .cls-8 {
        fill: #ffddc0;
      }

      .cls-9 {
        fill: #efb868;
      }

      .cls-10 {
        fill: none;
        stroke: #262626;
        stroke-linecap: round;
        stroke-linejoin: round;
      }

      .cls-7 {
        fill: #c37b7b;
      }

      .cls-11 {
        fill: #f2a590;
      }

      .cls-12 {
        fill: #cc8979;
      }

      .cls-13 {
        fill: #fff400;
      }

      .cls-14 {
        fill: #c9a38a;
      }

      .cls-15 {
        fill: #6c96a3;
      }
    </style>
  </defs>
  <g id="illustration">
    <g>
      <g>
        <g>
          <path class="cls-13" d="m20,67.29l-.06.75c-.05.69-.41,1.24-.86,1.32l-.49.09.49.09c.45.08.81.63.86,1.32l.06.75.06-.75c.05-.69.41-1.24.87-1.32l.49-.09-.49-.09c-.45-.08-.81-.63-.87-1.32l-.06-.75Z"/>
          <path class="cls-13" d="m8.74,82.96l-.06.75c-.05.69-.41,1.24-.86,1.32l-.49.09.49.09c.45.08.81.63.86,1.32l.06.75.06-.75c.05-.69.41-1.24.87-1.32l.49-.09-.49-.09c-.45-.08-.81-.63-.87-1.32l-.06-.75Z"/>
          <path class="cls-13" d="m37.58,99.38l-.06.75c-.05.69-.41,1.24-.86,1.32l-.49.09.49.09c.45.08.81.63.86,1.32l.06.75.06-.75c.05-.69.41-1.24.87-1.32l.49-.09-.49-.09c-.45-.08-.81-.63-.87-1.32l-.06-.75Z"/>
          <path class="cls-13" d="m58.28,72.17l-.06.75c-.05.69-.41,1.24-.86,1.32l-.49.09.49.09c.45.08.81.63.86,1.32l.06.75.06-.75c.05-.69.41-1.24.87-1.32l.49-.09-.49-.09c-.45-.08-.81-.63-.87-1.32l-.06-.75Z"/>
          <path class="cls-13" d="m62.69,75.65l-.03.44c-.03.4-.24.72-.5.77l-.29.05.29.05c.26.05.47.36.5.76l.03.44.03-.44c.03-.4.24-.72.5-.76l.29-.05-.29-.05c-.26-.05-.47-.36-.5-.77l-.03-.44Z"/>
          <path class="cls-13" d="m14.89,76.76l-.03.41c-.03.38-.22.67-.47.72l-.27.05.27.05c.25.04.44.34.47.71l.03.41.03-.41c.03-.37.22-.67.47-.71l.27-.05-.27-.05c-.25-.04-.44-.34-.47-.72l-.03-.41Z"/>
          <path class="cls-13" d="m41.46,75.36l-.03.41c-.03.38-.22.67-.47.71l-.27.05.27.05c.25.04.44.34.47.72l.03.41.03-.41c.03-.37.22-.67.47-.72l.27-.05-.27-.05c-.25-.04-.44-.34-.47-.71l-.03-.41Z"/>
          <path class="cls-13" d="m65.14,82.75l-.05.74c-.05.68-.4,1.21-.84,1.29l-.48.09.48.09c.44.08.79.61.84,1.29l.05.74.06-.74c.05-.67.4-1.21.85-1.29l.48-.09-.48-.09c-.44-.08-.79-.61-.85-1.29l-.06-.74Z"/>
        </g>
        <g>
          <g>
            <path class="cls-8" d="m47.07,96.58c-.55.08-1.09.15-1.64.23l-1.37,1.43c.06-.3.03-.62,0-.93,0-.09-.06-.09-.11-.16-.06-.1-.39-.24-.48-.3-.74-.46-1.09-1.11-1.54-1.85-.17-.28-.32-.58-.51-.85-.21-.29-.47-.55-.72-.8-.42-.41-.85-.83-1.33-1.16-.23-.16-.48-.3-.7-.48-.59-.49-.88-1.23-1.25-1.9-.51-.94-1.2-1.79-2.02-2.48-.18-.15-.78-.76-.95-.92-.31-.3-.63-.6-.97-.85-.02,0-.04,0-.06,0-.09-.08-.18-.15-.26-.22-.05-.03-.1-.06-.14-.09-.04-.03-.09-.05-.13-.07-.07-.03-.15-.06-.24-.09-.13-.04-.25-.09-.37-.13-.33-.07-.67-.08-1.01-.01,0,.01,0,.02,0,.04h.03c-.02.08-.04.16-.05.24-.03.37-.06.75-.09,1.12-.1,1.17-.36,2.53-.23,3.72.07.34.21.67.38.98.08.12.17.25.25.4,0,.01.01.02.02.04.15.21.31.42.48.62.12.08.24.16.34.27,0,0,0,0,0,0,.04.02.08.05.12.07.17-.47.3-.95.39-1.43.04.07.05,0,.09.07-.02,0-.03.07-.05.08.84.73,1.8,1.31,2.64,2.04.67.57,1.34,1.15,1.95,1.78.32.32.62.66.96.96.42.38.92.57,1.4.87,1.08.68,2.16,1.43,3.31,1.98.08.04.17.08.26.09.01.04.09.22.5.2.42-.02.82-.27,1.16-.56.34-.29.65-.63,1.02-.88.36-.24.77-.38,1.12-.65.06-.05.13-.11.13-.2,0-.17-.2-.21-.35-.19Z"/>
            <path class="cls-8" d="m44.67,96.01c-.18.34-.19.9-.45,1.18-.04.05-.24-.11-.26-.05-.02.06-.02.12-.03.18-.05.68-.58,1-.43,1.66.98-.16,1.32-.27,2.05-.99.19-.18,1.04.7,1.23-.54-.25,0-.49.15-.62.37.05.15.1.31.2.43.1.12.27.19.4.13,0,.17.13.31.29.34.15.03.31-.07.37-.23.04.26.39.33.59.19.2-.14.29-.41.37-.65.13-.4.26-.79.34-1.2.04-.19.07-.4,0-.58-.07-.19-.24-.31-.39-.44-.39-.35-.67-.82-.8-1.35-.03-.12-.05-.25-.12-.36-.14-.22-.42-.28-.66-.28-.31,0-.83.04-1.08.27-.19.18-.45.05-.43.29.03.27.36.68.15.85-.3.25-.53.42-.73.79Z"/>
            <g>
              <path class="cls-15" d="m54.39,101.65c-1.62.32-3.29.57-4.91.25-.67-.13-1.29-.28-1.94-.41-.02,0-.03,0-.05-.01,0,.11.02.22.03.32l-.05-.07c.03.14.07.27.1.41.06.36.15.71.24,1.04.62,2.74,1.05,5.45,1.98,9.5.63,2.75.88,5.01,1.32,8.07.04.25.26.44.51.43.86-.04,2.05-.43,2.27-.51l.09-2.35-.07,5.11c.93.52,2.08.6,3.08.22.15-.06.3-.13.4-.26.09-.13-.02-.56,0-.72.33-3.36.46-6.84.43-10.22.28-.9.37-2,.45-2.76.37-3.25.58-6.4.53-9.32,0-.16,0-.33-.04-.48-1.16,1.13-2.81,1.46-4.38,1.77Z"/>
              <path class="cls-9" d="m61.33,94.02c-.03-.64-.06-1.27-.13-1.91-.1-.86-.28-1.7-.47-2.55-.29-1.36-.71-2.62-1-3.98-.09-.4-.18-.82-.44-1.14-.44-.56-1.23-.66-1.92-.82-.71-.15-1.55-.58-2.28-.98,0-.07-.02-.14-.06-.19-.05-.06-.13-.07-.21-.08-.06,0-.12,0-.18,0,0,0,0,0-.01,0,0,0,0,0-.01,0-.07-.04-.14-.08-.2-.12,0,0,.02.05.06.14-.11.03-.23.07-.34.11-.05,0-.1.01-.15,0-1.02-.12-2.06.03-3.08.17-.11.02-.22.03-.32.08-.12.06-.21.16-.29.27-.04.04-.07.09-.11.13-.03-.03-.06-.06-.08-.09,0,0-.21-.59-.22-.6-.33.07-.41.44-.92.54-.86.16-2.03.71-2.61,1.49-.38.51-.54,1.31-.74,1.93-.54,1.68-1.07,3.39-1.43,5.12-.06.3-.13.63-.13.94,0,.85.68,1.7,1.08,2.34l.44-.93c.5-.26,1.1-.33,1.65-.22-.12-.52-.15-1.43.01-1.95.19-.6.48-1.41.67-2.01.16.03.24.45.34.78.05.42.05.84.02,1.26-.03.53-.12,1.05-.22,1.57-.05.27-.11.54-.18.81-.04.19-.18.47-.15.66.05.34.48.72.61,1.07.15.41.21.86.16,1.29,0,.05-.01.11-.02.17l-.98.35c-.27,1.11-.38,2.26-.31,3.39.01.2.14.36.33.42.02,0,.03.01.05.01.65.13,1.27.28,1.94.41,1.62.32,3.29.07,4.91-.25,1.57-.31,3.22-.64,4.38-1.77.07-.07.14-.14.2-.21.09-.11.12-.26.05-.39-.29-.6-1.46-4.18-1.67-5.16.06-.45.18-1.17.39-2.36.1-.55.07-1.14.06-1.73.1.2.24.54.25.58.12.47.25.93.38,1.4.23.84.45,1.68.65,2.52.17.74.38,2.19.5,2.94l.59,1.64c.26.06.53.12.8.1.27-.03.54-.17.66-.41,0,0-.23-3.4-.3-4.77Zm-7.34-11.47c-.12.04-.25.06-.38.06l.38-.06Z"/>
            </g>
            <g>
              <path class="cls-8" d="m2.95,94.23s-.05-.02-.08-.02c-.18-.05-.37-.08-.56-.09l-.33.13c.36-.06.63-.08.97-.02Z"/>
              <path class="cls-8" d="m.7,94.74c-.56.25-.63.48-.3.55.23.05,1.05-.25,1.23-.34l-.93-.22Z"/>
              <path class="cls-8" d="m1.08,95.2c-.46.65.1.62.44.42.29-.17.81-.52.81-.52l-1.25.1Z"/>
              <path class="cls-8" d="m1.61,95.64c.37.43.95-.14,1.33-.31l-1.33.31Z"/>
              <path class="cls-8" d="m3.23,94.27c-.16-.05-.32-.1-.48-.13-.62-.12-1.28.07-1.75.49-.08.07-.15.15-.15.25,0,.21.33.31.32.53,0,.03-.01.07,0,.1.01.04.06.07.1.09.09.04.18.05.28.06.04,0,.08,0,.12.02.03.02.05.05.07.07.05.05.13.05.2.04.22-.02.44-.08.63-.2.13-.08.24-.17.38-.23.34-.14.74-.02,1.1-.13.18-.06.7-.4.38-.58-.17-.09-.39-.13-.57-.18-.2-.06-.41-.13-.61-.19Z"/>
            </g>
            <path class="cls-4" d="m33.97,131.75c-.58.04-.92-.13-1.21-.62-.44-.75-.31-1.71-.34-2.54,0-.33.08-.53.14-.85.05-.29.08-.64.11-.93,0-.12-.13-.36-.1-.48.05-.19.15-.03.31-.08-.01-.2-.07-.39-.06-.59,0-.2.08-.41.26-.51.1-.05.22-.06.34-.05.07,0,.14.02.21.05.15.07.25.23.38.33.17.12.33-.57.35-.7.05-.32.01-.65-.09-.95,0-.03-.02-.06,0-.08.02-.03.07-.03.1-.02.16.05.26.23.4.32.07.05.15.1.21.16.13.13.23.29.29.46.21.52.24,1.13.27,1.68.07,1.05.1,2.1.15,3.15.06,1.2-.92,2.18-1.74,2.25Z"/>
            <path class="cls-12" d="m36.21,119.03c.85-.73,1.75-1.49,2.85-1.75.05-.01.12-.02.17,0,.06.03.08.11.08.17.01.23-.14.44-.29.62-.44.49-.99.85-1.59,1.11-.3.13-.62.24-.94.32-.18.05-.76.26-.9.11.12-.22.43-.42.62-.58Z"/>
            <g>
              <g>
                <path class="cls-8" d="m21.09,89.97c.11-1.03.23-2.07.58-3.04.1-.28.15-.96.41-1.14-.62.04-1.18.14-1.94.55-.18.09-.71.59-1.4,1.27h.03c-.62.63-1.17,1.33-1.82,1.94-.29.27-.59.52-.85.82-.12.14-.23.28-.35.42-.15.17-.33.33-.5.48-.32.29-.65.57-.97.86-.19.17-.73.49-.73.8-.73.35-1.52.59-2.29.82-.5.15-.99.31-1.49.47-.47.15-.94.27-1.4.45-.43.17-.86.34-1.3.48-.39.12-.81.21-1.23.19-.58-.03-1.11-.28-1.62-.54l-.37.08c-.91-.42-1.46-.58-2.17-.62-.71-.04-1.39-.11-1.43.1-.06.29.68.42.82.44.71.13.9.13,1.57.37.28.1,1.15.45,1.33.66.13.15.02.29-.18.28-.33,0-1.66-.27-1.77.19-.05.24.84.32,1.89.58.19.05.71.16,1.15.26.53.12,1.08.15,1.62.09,4.17-.42,8.23-1.98,11.6-4.48.45-.33.89-.68,1.38-.95.14-.06.27-.12.41-.19.05-.02.1-.04.14-.07.08-.03.16-.06.24-.08l-.15.03c.1-.05.2-.12.28-.2.08-.08.15-.18.21-.28.08-.12.17-.25.26-.37.02-.11.05-.23.06-.35-.04-.1-.03-.21-.02-.32Z"/>
                <path class="cls-8" d="m30.37,123.2c-.67-.05-1.31-.44-1.98-.4.14.5.44.96.84,1.3.49.41,1.1.63,1.68.9.68.32,1.31.73,1.94,1.14-.03-.27-.05-.57.11-.79.12-.16.32-.25.52-.23.2.02.38.15.46.33.03.06.07.14.13.12.04-.01.05-.05.07-.09.12-.41.21-.83.27-1.25,0-.03,0-.06,0-.08,0-.04-.04-.06-.06-.09-.44-.43-.85-.88-1.23-1.37-.06-.07-.18-.33-.27-.36,0,0-.01,0-.02,0-.57.44-1.2.77-1.91.84-.18.03-.35.04-.53.03Z"/>
                <path class="cls-8" d="m23.59,124.4c-.02.05-.02.13,0,.25.18,1.14.64,2.63.96,3.75.77,2.51,1.41,5.05,2.39,7.48.66-.25,1.36-.01,1.9.38.79-.01.64-1.08.47-1.61-.28-2.24-.2-4.53-.59-6.78-.13-1.07-.27-2.17-.76-3.14-.34-.52-.47-1.13-.33-1.74-1.33.49-2.74,1.66-4.03,1.41Z"/>
                <path class="cls-11" d="m28.76,101.91c-2.77.77-5.02.48-6.03-.5l-.4.04c-1.3,3.67-1.66,7.63-1.34,11.5l.07.41c.06,1.86-.82,6.53-1.04,8.39-.02.17,1.27,2.12,3.52,2.63.02,0,.04,0,.05,0,1.3.26,2.71-.92,4.03-1.41.58-.22,1.15-.3,1.69-.07.57.24,1.09.31,1.58.26.71-.07,1.34-.4,1.91-.84.98-.75,1.78-1.83,2.5-2.49,1.08-.99,2.54-2.45,4-2.55-1.15-1.1-3.29-5.38-3.9-6.85-.19-.45-.34-.92-.49-1.39-.31-.98-1.64-5.95-3.19-8.47l-.24-.39c-.6.63-2,1.51-2.72,1.71Z"/>
                <path class="cls-1" d="m22.07,84.03c-.29-.56-.27-.91-.28-1.36,0-.35-.06-.87-.06-.87l-.23-1.48.21-.4s.22-.77.32-1.01c.1-.24.22-.79.29-.91.09-.16,1.46-.21,1.76-.12.5.16,1.27,1.92,1.31,1.97.37.38.53.63,1.17.9.64.25,1.2,0,1.2,0,0,0,.9-.19.99.54.03.21.01.52-.16.79-.21.32-.61.51-.61.51l.22.63s-.06.92.22,1.97c.02.03.05.05.11.05.15,0,.3-.02.45-.04.27-.04.54-.09.8-.15.53-.12,1.06-.26,1.61-.29.34-.02.6.09.89.21.12.05.24.09.37.13.09.03.17.05.24.09.1.04.19.1.28.16.09.06.17.13.26.22.02,0,.04,0,.06,0,.22.03.57.09.83.15.42.11.83.03,1.26.11.53.1,1.34-.16,1.75-.52.23-.2.28-.24.51-.44.57-.49,1.45-.93,2.13-.57.02-.32-.19-.51-.45-.7-.26-.19-.59-.25-.9-.3-.14-.02-.32-.26-.27-.4.29.01.59.02.86-.08.27-.1.5-.36.49-.65-.47.13-1,.05-1.41-.21.69.08,1.39-.52,1.42-1.21-.61.38-1.83.4-2.34-.23-.48-.6-1.01-.63-1.72-.63.35-.2.76-.3,1.16-.26,0-.53-.49-.96-1.01-1.08-.52-.12-1.06,0-1.57.13-.51.14-1.03.3-1.56.26-.53-.04-1.03-.27-1.48-.55-.47-.29-.9-.64-1.29-1.03-.35-.35-.66-.74-1.06-1.03-.4-.29-.92-.46-1.39-.3-.25-.58-.96-.8-1.59-.83-1.23-.05-2.44.44-3.34,1.29-.28-.23-.71-.1-.99.13-.59.49-.76,1.31-.89,2.07-.16.9-.31,1.83-.15,2.73.05.28.13.55.18.83.06.34.07.69.2,1,.16.38.49.66.71,1.02.22.35.29.87-.02,1.14.27.18.56.28.92.29.28,0,.56,0,.85-.02-.16-.15-.83-.78-1.29-1.65Z"/>
                <g>
                  <path class="cls-4" d="m31.31,98.72c.15-1.88.79-4.17,1.24-6.21-.05-.05-.1-.11-.15-.16,0,0,0,0,0,0-.1-.11-.22-.19-.34-.27-.17-.2-.33-.4-.48-.62-.1-.14-.19-.28-.27-.43-.17-.31-.3-.63-.38-.98-.01-.06-.03-.13-.04-.19-.15-.99.16-2.15.22-3.15.03-.5.06-1,.15-1.49.02-.08.03-.16.05-.25h-.03s-.38.04-.38.04c.1-.02.19-.03.29-.05-.33.01-.65.04-.98.09-.11.53-.27,2.18-.69,3.34-.1.28-.21.53-.34.73-.37.58-.99,1.07-1.68,1.41-1.41.68-3.17.72-3.97-.46-.1-.15-.19-.31-.25-.5-.21-.58-.45-.72-.33-1.37.07-.41.15-.84.22-1.22,0,0-.02,0-.03,0,.08-.43.16-.85.24-1.28-.08.12-1.14-.02-1.3.09-.27.18-.32.86-.42,1.14-.35.97-.47,2.01-.58,3.04-.01.11-.02.22.02.32-.02.12-.04.23-.06.35-.06.26-.13.53-.21.78,0,.01,0,.03,0,.04.05,1.22-.01,2.57.26,3.6.14.55.38,1.07.56,1.61.56,1.61.6,2.84.72,4.54l.02-.24c.09.16.21.3.34.44,1.01.98,3.26,1.27,6.03.5.72-.2,1.67-.63,2.27-1.26.16-.17.3-.36.4-.57,0,0-.17-.67-.12-1.37Z"/>
                  <path class="cls-8" d="m23.4,85.71s-.1.55-.23,1.26c-.07.39-.15.82-.22,1.22-.12.65.13.8.33,1.37.07.19.15.35.25.5.8,1.18,2.55,1.15,3.97.46.69-.34,1.3-.83,1.68-1.41.13-.2.24-.45.34-.73.41-1.16.58-2.81.69-3.34-.13-.09-1.3.24-1.68.18-.05,0-.09-.03-.11-.05-.28-1.05-.22-1.97-.22-1.97l-.22-.63s.4-.18.61-.51c.18-.26.2-.58.16-.79-.09-.73-.99-.54-.99-.54,0,0-.57.25-1.2,0-.64-.27-.79-.51-1.17-.9-.04-.06-.82-1.81-1.31-1.97-.3-.1-1.67-.05-1.76.12-.07.12-.19.67-.29.91-.1.24-.3.99-.32,1.01l-.21.4.23,1.48s.05.52.06.87c0,.45,0,.8.28,1.36.46.87,1.13,1.5,1.29,1.65,0,0,.01.01.02.02.01.01.02.02.02.02Z"/>
                </g>
              </g>
              <path class="cls-2" d="m24.02,85.99c-.15,0-.28-.02-.4-.07-.4-.18-.8-.6-1-.83-.59-.68-.87-1.4-.94-1.85-.06-.31-.08-.6-.09-.89-.01-.17-.02-.34-.04-.51-.04-.3-.08-.58-.14-.88l-.03-.15c-.02-.05-.02-.1-.03-.16,0-.04-.01-.08-.02-.13-.03-.11.04-.22.15-.24.11-.02.22.04.24.15.01.06.02.11.03.16,0,.05.01.09.02.11,0,0,0,.02,0,.03l.03.16c.05.3.1.59.14.91.02.18.03.36.04.53.02.29.03.56.09.85.06.38.31,1.04.85,1.65.3.35.62.62.86.72.43.18,1.48-.26,2.3-.79.47-.31.63-.53.85-.88.06-.09.18-.12.27-.07h0c.1.06.13.18.07.28-.23.38-.43.64-.97,1-.16.11-1.4.89-2.28.89Z"/>
              <path class="cls-2" d="m27.75,82.85c-.09,0-.17-.06-.19-.14-.03-.11.03-.22.14-.25.49-.15.75-.4.85-.81.06-.26,0-.51-.17-.65-.13-.11-.31-.13-.52-.05-.1.04-.22-.01-.26-.12-.04-.1.01-.22.11-.26.34-.13.68-.09.93.12.27.24.39.63.3,1.04-.13.56-.5.92-1.13,1.11-.02,0-.04,0-.06,0Z"/>
              <path class="cls-2" d="m27.9,81.94s-.05,0-.08-.02c-.1-.04-.15-.16-.11-.26,0-.02.09-.22.28-.35.09-.07.22-.04.28.05.06.09.04.22-.05.28-.1.07-.15.18-.15.18-.03.08-.11.12-.19.12Z"/>
              <path class="cls-3" d="m24.24,85.79s.86-.21,1.54-.57c.64-.33,1.34-1.21,1.34-1.21,0,0-.64,1.44-1.33,1.93-.65.47-1.43.39-1.43.39l-.11-.54Z"/>
              <path class="cls-2" d="m28.72,86.4s-.1-.02-.13-.05c-.46-.42-.58-3.25-.58-3.28,0-.11.09-.2.2-.2.11,0,.2.09.2.2,0,.5.21,2.76.45,2.99.08.08.08.2,0,.28-.04.04-.09.06-.15.06Z"/>
              <path class="cls-2" d="m24.15,87.51c-.06,0-.11-.02-.15-.07-.07-.08-.07-.21.02-.28.23-.21.14-.84.08-1.23v-.06c-.03-.11.05-.21.16-.23.11-.02.21.06.23.17v.06c.09.52.2,1.23-.2,1.59-.04.03-.09.05-.13.05Z"/>
              <path class="cls-2" d="m23.21,83.18c-.05,0-.1-.02-.14-.06-.45-.44-.28-.69-.09-.88.07-.07.13-.14.15-.23.05-.36-.1-.72-.24-.96-.06-.1-.02-.22.07-.28.1-.06.22-.02.28.07.24.42.35.84.29,1.22-.04.22-.16.36-.26.45-.03.03-.08.08-.08.1,0,0,0,.06.17.22.08.08.08.21,0,.28-.04.04-.09.06-.14.06Z"/>
              <path class="cls-2" d="m24.89,80.12s-.07,0-.11-.03c-.02-.01-.37-.22-.84,0-.1.05-.22,0-.27-.1-.05-.1,0-.22.1-.27.68-.31,1.2,0,1.22.02.09.06.12.18.06.28-.04.06-.1.09-.17.09Z"/>
              <path class="cls-2" d="m21.52,80.28c-.06,0-.12-.03-.16-.07-.07-.09-.06-.21.03-.28.02-.01.43-.34,1.03-.13.1.04.16.15.12.26-.04.1-.15.16-.26.12-.38-.14-.62.05-.63.06-.04.03-.08.04-.13.04Z"/>
              <g>
                <path class="cls-5" d="m23.71,83.59c.48-.05.96-.2.96-.2,0,0-.11.96-.8,1.08-.77.13-1.09-.88-1.09-.88,0,0,.45.05.93,0Z"/>
                <path class="cls-2" d="m23.74,84.69c-.65,0-1.03-.66-1.15-1.03-.02-.06,0-.14.04-.19.04-.05.11-.08.18-.07,0,0,.44.05.89,0,.46-.05.92-.19.92-.19.07-.02.14,0,.19.04s.08.11.07.18c0,.05-.14,1.11-.97,1.26-.06,0-.11.01-.17.01Zm-.64-.87c.13.23.38.52.73.46.31-.06.48-.36.56-.6-.18.04-.42.09-.66.12-.23.02-.46.03-.63.02Z"/>
              </g>
              <path class="cls-2" d="m26.97,80.98c-.81,0-1.61-.76-2.06-1.58-.11-.19-.2-.36-.29-.53-.23-.44-.43-.81-.61-.85-.08-.02-.2.03-.35.14-.09.07-.21.05-.28-.04-.07-.09-.05-.21.04-.28.25-.19.47-.26.68-.22.36.08.57.47.88,1.06.08.16.18.33.28.52.46.83,1.29,1.6,2.02,1.32.1-.04.22.01.26.12.04.1-.01.22-.12.26-.15.06-.3.08-.46.08Z"/>
              <path class="cls-2" d="m22.76,76.39c-.06,0-.11-.02-.15-.07-.07-.08-.06-.21.02-.28.85-.72,3.71-1.62,4.75-.51.08.08.07.21,0,.28-.08.08-.21.07-.28,0-.82-.88-3.46-.08-4.2.54-.04.03-.08.05-.13.05Z"/>
              <path class="cls-2" d="m20.57,82.15c-.08,0-.16-.05-.19-.13-.45-1.13-.12-3.47.32-4.49.29-.68.6-1.06.97-1.19.3-.1.62-.05,1,.17.1.05.13.18.08.27-.05.1-.18.13-.27.08-.27-.15-.49-.2-.67-.14-.26.09-.5.4-.73.96-.4.94-.72,3.16-.32,4.18.04.1,0,.22-.11.26-.02,0-.05.01-.07.01Z"/>
              <path class="cls-2" d="m21.67,85.6c-.05,0-.1-.02-.14-.06-.08-.08-.08-.2,0-.28.37-.38.18-.63-.24-1.11-.26-.29-.54-.62-.62-1.03-.18-.9.3-1.97.62-2.68.05-.11.1-.21.13-.3.19-.48.33-.95.47-1.44.05-.17.1-.34.15-.52.04-.14.21-.63.6-.74.15-.04.38-.05.65.18.09.07.1.2.02.28-.07.09-.2.1-.28.02-.11-.09-.2-.12-.27-.1-.12.04-.25.23-.33.47-.05.18-.1.35-.15.52-.14.51-.28.98-.48,1.49-.04.09-.09.2-.14.31-.28.62-.75,1.67-.6,2.44.06.3.3.58.53.84.39.44.87.99.23,1.66-.04.04-.09.06-.15.06Z"/>
              <path class="cls-3" d="m22.11,81.38c-.03-.19.07-.37.21-.38.13-.03.28.12.31.31.03.19-.07.37-.21.38-.13.03-.28-.12-.31-.31Z"/>
              <path class="cls-3" d="m24.31,81.22c-.01-.19.09-.38.25-.39s.3.14.31.33c.01.19-.09.38-.25.39-.15.01-.28-.14-.31-.33Z"/>
            </g>
            <path class="cls-2" d="m25.79,102.55c-1.51,0-2.71-.4-3.35-1.15-.02,0-.05.02-.07.01-.11,0-.19-.08-.2-.19l-.03-.41c-.1-1.47-.18-2.63-.68-4.08-.06-.18-.13-.36-.2-.54-.13-.35-.27-.71-.37-1.08-.21-.79-.22-1.76-.24-2.69,0-.33-.01-.67-.03-1,0-.11.08-.21.19-.21.11,0,.21.08.21.19.01.33.02.68.03,1.01.02.91.03,1.85.23,2.59.09.35.22.7.35,1.04.07.18.14.37.21.56.52,1.5.6,2.69.7,4.18v.06s.02.02.02.02c.74,1.3,3.27,1.64,6.14.84.9-.25,2.08-.83,2.51-1.65-.05-.2-.15-.76-.11-1.36.11-1.45.51-3.13.9-4.75.26-1.1.51-2.14.67-3.09.02-.11.12-.18.23-.17.11.02.18.12.17.23-.16.96-.41,2.01-.67,3.11-.38,1.61-.78,3.27-.89,4.69-.05.65.11,1.29.11,1.3.01.05,0,.09-.01.14-.46.98-1.75,1.64-2.8,1.93-1.08.3-2.11.45-3.02.45Z"/>
            <path class="cls-2" d="m27.28,137.04c-.08,0-.16-.05-.19-.13-1.75-4.68-3.15-9.35-3.75-12.49-.02-.11.05-.21.16-.24.11-.02.21.05.24.16.6,3.12,1.99,7.76,3.73,12.42.04.1-.01.22-.12.26-.02,0-.05.01-.07.01Z"/>
            <path class="cls-2" d="m29.49,136.49c-.1,0-.19-.07-.2-.17-.11-.81-.21-2.02-.29-3.18-.09-1.16-.18-2.36-.29-3.16-.08-.55-.13-1.08-.18-1.6-.13-1.34-.25-2.61-.79-3.88l-.03-.07c-.07-.16-.14-.32-.19-.5-.04-.16-.07-.47-.08-.71,0-.08-.01-.15-.02-.2-.01-.11.07-.21.18-.22.11-.01.21.07.22.18,0,.05.01.13.02.21.01.2.04.51.07.63.04.15.1.29.17.44l.03.08c.56,1.32.69,2.62.82,4,.05.52.1,1.05.17,1.59.11.81.21,2.02.29,3.18.09,1.16.18,2.36.29,3.16.02.11-.06.21-.17.23,0,0-.02,0-.03,0Z"/>
            <path class="cls-2" d="m23.97,124.64c-.16,0-.32-.02-.48-.05-2.29-.52-3.71-2.53-3.67-2.85.07-.57.2-1.39.34-2.34.33-2.11.74-4.73.7-6.01l-.07-.4s0-.01,0-.02c-.35-4.2.11-8.1,1.35-11.59.04-.1.15-.16.26-.12.1.04.16.15.12.26-1.22,3.44-1.67,7.28-1.33,11.41l.07.4s0,.02,0,.03c.04,1.31-.37,3.97-.7,6.1-.14.93-.27,1.73-.34,2.29.12.32,1.34,1.98,3.36,2.44.83.19,1.76-.3,2.66-.77,1.05-.55,2.14-1.12,3.15-.69,2.13.91,3.59-.7,4.88-2.11.31-.34.61-.66.89-.92.08-.07.16-.15.25-.23.99-.92,2.21-2.04,3.48-2.32-1.21-1.43-3.08-5.18-3.68-6.63-.19-.46-.34-.94-.49-1.4-.05-.14-.11-.37-.2-.67-.5-1.68-1.66-5.63-2.97-7.76-.06-.09-.03-.22.07-.28.09-.06.22-.03.28.07,1.34,2.18,2.52,6.16,3.02,7.86.09.29.15.51.2.66.14.45.29.92.48,1.37.62,1.49,2.74,5.71,3.86,6.78.06.06.08.14.05.21-.03.07-.1.13-.17.13-1.28.09-2.58,1.3-3.63,2.27-.09.08-.17.16-.25.23-.27.25-.56.56-.86.9-1.31,1.44-2.95,3.23-5.34,2.21-.84-.36-1.79.14-2.81.67-.81.42-1.64.86-2.46.86Z"/>
            <path class="cls-2" d="m57.73,113.38s-.03,0-.04,0c-.11-.02-.18-.13-.15-.24.62-2.75.92-6.53,1.01-8.03.15-2.33.23-4.11.14-5.23,0-.11.07-.21.18-.22.11,0,.21.07.22.18.1,1.14.02,2.94-.14,5.29-.1,1.51-.39,5.32-1.02,8.1-.02.09-.1.16-.2.16Z"/>
            <path class="cls-2" d="m49.8,112.88c-.09,0-.17-.06-.2-.16-.52-2.28-.89-4.15-1.22-5.8-.36-1.84-.68-3.43-1.1-5.14-.03-.11.04-.22.15-.24.11-.03.22.04.24.15.43,1.72.74,3.31,1.11,5.16.33,1.65.7,3.52,1.21,5.79.02.11-.04.22-.15.24-.02,0-.03,0-.05,0Z"/>
            <path class="cls-2" d="m60.16,99.33c-.08,0-.16-.05-.19-.14-.9-2.64-1.94-7.1-2.28-9.74-.01-.11.06-.21.17-.23.11-.01.21.06.23.17.33,2.62,1.37,7.04,2.26,9.66.04.11-.02.22-.13.26-.02,0-.04.01-.06.01Z"/>
            <path class="cls-2" d="m51.09,102.25c-.55,0-1.1-.04-1.64-.15-.36-.07-.7-.15-1.05-.22-.3-.06-.59-.13-.89-.19-.3-.06-.52-.31-.53-.62-.07-1.16.04-2.32.32-3.45.03-.11.14-.17.24-.15.11.03.17.14.15.24-.27,1.09-.37,2.21-.31,3.33,0,.12.09.22.21.25.3.06.6.13.9.19.34.07.69.15,1.04.22,1.63.33,3.35.04,4.83-.25,1.64-.32,3.34-.66,4.47-1.91.04-.04.05-.11.02-.16-.3-.62-1.08-3.33-1.3-4.34-.02-.11.05-.22.15-.24.11-.02.22.05.24.15.21.98.98,3.67,1.27,4.25.1.2.07.44-.08.61-1.22,1.36-3.06,1.72-4.69,2.04-1.03.2-2.18.4-3.35.4Z"/>
            <path class="cls-2" d="m51.94,122.86c-.1,0-.19-.08-.2-.18-.02-.18-.03-.36-.04-.54-.01-.31-.02-.64-.12-.91-.04-.11.02-.22.13-.26.11-.04.22.02.26.13.11.33.12.68.14,1.02,0,.18.01.35.03.51.01.11-.07.21-.18.22,0,0-.02,0-.02,0Z"/>
            <path class="cls-2" d="m53.97,125.1s-.03,0-.05,0c-.11-.03-.17-.14-.15-.24.09-.33.09-.51.11-.91,0-.08,0-.16.01-.25,0-.11.1-.19.21-.19.11,0,.2.1.19.21,0,.09,0,.18-.01.25-.02.41-.03.61-.13.99-.02.09-.11.15-.19.15Z"/>
            <path class="cls-2" d="m53.63,113.38s-.02,0-.02,0c-.11-.01-.19-.11-.18-.22.09-.76.1-3.69.1-3.72,0-.11.09-.2.2-.2.11,0,.2.09.2.2,0,.12,0,2.98-.1,3.76-.01.1-.1.18-.2.18Z"/>
            <path class="cls-2" d="m36.81,79.83c-.08,0-.16-.05-.19-.13-.34-.93-1.45-1.05-2.1-.91-.19.04-.38.09-.56.14-.54.15-1.1.3-1.68.22-.85-.12-1.53-.7-2.08-1.25-.08-.08-.16-.16-.23-.24-.45-.46-.92-.95-1.5-1.21-.1-.05-.15-.17-.1-.27.05-.1.17-.15.27-.1.64.3,1.14.8,1.62,1.29.08.08.15.16.23.23.5.51,1.12,1.04,1.85,1.14.5.07.99-.07,1.52-.21.19-.05.39-.1.58-.15.68-.15,2.1-.1,2.56,1.16.04.1-.01.22-.12.26-.02,0-.05.01-.07.01Z"/>
            <path class="cls-2" d="m38.52,81.24c-.36,0-.68-.08-.95-.25-.15-.09-.29-.21-.42-.32-.12-.1-.23-.19-.36-.27-.31-.19-.69-.28-1.05-.23-.25.03-.49.12-.75.21-.33.12-.67.24-1.05.24-.11,0-.2-.09-.2-.2,0-.11.09-.2.2-.2.31,0,.6-.11.91-.22.27-.1.54-.19.84-.23.46-.06.92.05,1.31.29.15.09.27.2.4.3.13.1.25.2.38.28.46.28,1.15.25,1.84-.09.1-.05.22,0,.27.1.05.1,0,.22-.1.27-.43.21-.87.31-1.27.31Z"/>
            <path class="cls-2" d="m35.67,86.02c-.88,0-2.04-.19-2.46-.46-.09-.06-.12-.18-.06-.28.06-.09.18-.12.28-.06.47.3,2.39.51,2.95.32.57-.2,1.07-.56,1.57-.96l.02-.02c.29-.23.59-.46.96-.58.46-.15.94-.05,1.22.24.08.08.08.21,0,.28s-.21.08-.28,0c-.2-.21-.55-.22-.8-.13-.3.1-.57.31-.84.51l-.02.02c-.53.41-1.05.8-1.68,1.02-.19.07-.49.1-.84.1Z"/>
            <path class="cls-2" d="m39.94,84.04s-.08-.01-.11-.03c-.27-.17-.55-.35-.85-.42-.37-.08-.77,0-1.14.11-.07.02-.13.04-.2.06-.35.1-.7.21-1.08.22-.55.01-1.03-.2-1.28-.57-.06-.09-.04-.22.05-.28.09-.06.22-.04.28.05.21.3.62.4.93.39.32,0,.64-.1.98-.2.07-.02.13-.04.2-.06.42-.12.88-.22,1.34-.11.37.08.69.29.98.48.09.06.12.19.06.28-.04.06-.1.09-.17.09Z"/>
            <path class="cls-2" d="m38.47,83.22c-.14,0-.28-.02-.41-.05-.11-.03-.17-.14-.15-.24.03-.11.14-.17.24-.15.52.13,1.11-.09,1.42-.52.06-.09.19-.11.28-.05.09.06.11.19.05.28-.33.46-.88.73-1.44.73Z"/>
            <path class="cls-2" d="m38.28,82.22c-.08,0-.17,0-.25-.02-.11-.02-.19-.12-.17-.23.02-.11.12-.19.23-.17.47.06.96-.11,1.29-.45.08-.08.2-.08.28,0,.08.08.08.2,0,.28-.36.38-.87.59-1.39.59Z"/>
            <path class="cls-2" d="m25.66,91.12c-.1,0-.2,0-.3,0-.18,0-1.13-.02-1.81-.75-.57-.6-.81-1.51-.71-2.7.03-.45.13-.88.22-1.29.05-.24.1-.47.14-.69.02-.11.12-.18.23-.17.11.02.18.12.17.23-.04.23-.09.47-.14.71-.09.4-.18.81-.21,1.23-.08,1.07.12,1.87.61,2.39.57.61,1.37.63,1.52.63,0,0,.01,0,.02,0,2.13.1,3.72-1.02,4.05-2.85.22-1.22.36-2.16.42-2.8.01-.11.11-.19.22-.18.11.01.19.11.18.22-.06.65-.2,1.6-.42,2.83-.35,1.96-1.97,3.19-4.17,3.19Z"/>
            <path class="cls-2" d="m32.54,92.75s-.08-.01-.11-.03c-1.21-.78-1.79-1.9-1.77-3.43.01-1.14.14-2.19.27-3.31.04-.34.08-.68.12-1.03.01-.11.11-.19.22-.18.11.01.19.11.18.22-.04.35-.08.69-.12,1.03-.13,1.11-.25,2.15-.26,3.26-.01,1.38.5,2.39,1.59,3.09.09.06.12.18.06.28-.04.06-.1.09-.17.09Z"/>
            <path class="cls-2" d="m35.3,120.05c-.07,0-.14-.04-.18-.11-.05-.1-.01-.22.09-.27.37-.19.86-.3,1.32-.41.25-.06.49-.11.69-.17.74-.23,1.7-1.01,1.86-1.51.05-.14,0-.2,0-.21-.06-.09-.04-.22.05-.28.09-.07.22-.04.28.05.08.11.15.3.06.58-.23.68-1.35,1.52-2.13,1.76-.22.07-.46.12-.72.18-.44.1-.9.2-1.23.37-.03.02-.06.02-.09.02Z"/>
            <path class="cls-2" d="m22.92,121.44c-.1,0-.19-.08-.2-.18-.07-.68-.78-3.53-1.3-5.61-.26-1.06-.47-1.9-.55-2.25-.02-.11.05-.22.15-.24.11-.02.22.05.24.15.07.34.29,1.21.54,2.23.55,2.21,1.23,4.95,1.31,5.66.01.11-.07.21-.18.22,0,0-.01,0-.02,0Z"/>
            <path class="cls-2" d="m32.87,126.42c-.05,0-.11-.02-.15-.06-.35-.36-2.39-1.38-3.15-1.74-.83-.46-1.14-.87-1.33-1.79-.02-.11.05-.22.16-.24.11-.02.22.05.24.16.17.8.4,1.11,1.12,1.51.28.13,2.8,1.34,3.26,1.82.08.08.07.21,0,.28-.04.04-.09.06-.14.06Z"/>
            <path class="cls-2" d="m34.33,124.27s-.07,0-.1-.03c-.33-.2-.58-.54-.84-.9-.2-.28-.4-.56-.67-.82-.08-.08-.08-.21,0-.28.08-.08.21-.08.28,0,.29.28.51.59.71.87.25.34.46.64.72.79.1.06.13.18.07.28-.04.06-.1.1-.17.1Z"/>
            <path class="cls-2" d="m32.97,126.4c-.07,0-.14-.04-.18-.1-.16-.29-.17-.64-.02-.92.16-.3.5-.48.83-.44.36.04.69.48.71.81,0,.11-.08.21-.19.21-.11,0-.21-.08-.21-.19,0-.17-.22-.42-.36-.44-.16-.02-.34.08-.42.23-.08.15-.08.36.02.52.06.1.02.22-.08.27-.03.02-.07.03-.1.03Z"/>
            <path class="cls-2" d="m34.11,125.76c-.05,0-.11-.02-.14-.06-.08-.08-.08-.21,0-.28.02-.02.04-.09.05-.13,0-.04.02-.07.03-.1.01-.04.02-.07.03-.11v-.03c.2-.84.12-1.09.06-1.16-.08-.08-.07-.21,0-.28.08-.08.21-.07.28,0,.29.3.18.94.05,1.53v.03c-.02.05-.03.1-.05.15,0,.02-.01.05-.02.07-.03.1-.06.23-.16.32-.04.04-.09.06-.14.06Z"/>
            <path class="cls-2" d="m32.83,126.43c-.15,0-.31-.07-.41-.18-.07-.08-.07-.21.02-.28.08-.07.21-.07.28.02.03.03.08.05.13.05.11-.02.21.06.23.17.02.11-.06.21-.17.23-.03,0-.05,0-.08,0Z"/>
            <path class="cls-2" d="m27.51,120.51c-.09,0-.17-.06-.19-.14-.61-2.03-.92-4.13-.9-6.24,0-.11.09-.2.2-.2.11,0,.2.09.2.2-.01,2.08.28,4.14.88,6.12.03.11-.03.22-.13.25-.02,0-.04,0-.06,0Z"/>
            <path class="cls-2" d="m55.69,115.01c-.1,0-.19-.08-.2-.19,0-.11.08-.21.19-.22.91-.07,1.67-.67,1.85-1.48.02-.11.13-.18.24-.15.11.02.18.13.15.24-.22.97-1.13,1.71-2.22,1.79,0,0,0,0-.01,0Z"/>
            <path class="cls-2" d="m58.89,92.21c-.08,0-.15-.04-.18-.12-.04-.1,0-.22.1-.27.52-.23,1.09-.44,1.77-.44.11,0,.2.09.2.2s-.09.2-.2.2c-.64,0-1.16.21-1.61.4-.03.01-.05.02-.08.02Z"/>
            <g>
              <path class="cls-2" d="m6.15,97.44c-.38,0-.76-.04-1.14-.12-.61-.13-1-.22-1.16-.26-.29-.07-.58-.13-.83-.18-.73-.15-1.05-.22-1.17-.42-.04-.07-.06-.15-.04-.22.12-.54,1.06-.44,1.68-.37.1.01.19.02.25.02-.21-.15-.8-.41-1.19-.55-.53-.19-.75-.23-1.18-.3-.1-.02-.22-.04-.35-.06-.51-.09-.8-.22-.92-.4-.06-.09-.08-.18-.06-.28.07-.36.59-.33,1.37-.28.09,0,.18.01.27.02.73.04,1.3.2,2.24.63.1.05.15.17.1.27-.05.1-.17.15-.27.1-.9-.41-1.42-.56-2.1-.6-.09,0-.18-.01-.27-.02-.3-.02-.69-.04-.89-.02.08.05.25.11.58.17.14.03.26.04.36.06.44.08.69.12,1.25.32.01,0,1.16.42,1.41.72.11.12.13.27.07.4-.07.14-.22.22-.41.22-.07,0-.18-.01-.32-.03-.79-.09-1.09-.05-1.2,0,.16.07.54.14.85.21.25.05.54.11.84.18.15.04.55.12,1.15.25.51.11,1.03.14,1.56.09,4.17-.42,8.15-1.96,11.5-4.44.07-.05.15-.11.22-.16.62-.46,1.25-.94,2.02-1.16.11-.03.22.03.25.14.03.11-.03.22-.14.25-.69.19-1.3.65-1.89,1.09-.07.06-.15.11-.22.17-3.41,2.53-7.46,4.1-11.7,4.52-.18.02-.36.03-.55.03Z"/>
              <path class="cls-2" d="m6.39,95.61c-.54,0-1.09-.26-1.68-.53-.35-.16-.72-.33-1.1-.46-.75-.25-1.06-.26-1.6-.17-.11.02-.21-.06-.23-.17-.02-.11.06-.21.17-.23.61-.1.97-.09,1.79.19.41.14.78.31,1.15.48.61.29,1.14.53,1.62.49.37-.14,4.59-1.77,6.43-2.41.24-.08.49-.17.69-.32.11-.08.93-.92,1.79-1.81,2.29-2.34,4.22-4.3,4.63-4.52.99-.53,1.65-.56,2.5-.59.3-.01.61-.03.98-.06.11-.01.21.07.22.18.01.11-.07.21-.18.22-.38.04-.71.05-1,.07-.82.04-1.42.06-2.32.55-.39.21-2.98,2.86-4.53,4.45-1.13,1.16-1.72,1.76-1.84,1.85-.25.18-.54.28-.8.37-1.91.66-6.4,2.39-6.44,2.41-.02,0-.03.01-.05.01-.06,0-.12.01-.18.01Z"/>
              <path class="cls-2" d="m.46,95.49s-.07,0-.1,0c-.29-.06-.35-.22-.36-.31-.02-.22.18-.42.62-.62.1-.05.22,0,.27.1.05.1,0,.22-.1.27-.16.07-.25.13-.31.17.2,0,.85-.22,1.07-.32.1-.05.22,0,.27.09.05.1,0,.22-.09.27-.08.04-.87.36-1.26.36Z"/>
              <path class="cls-2" d="m1.11,95.95c-.13,0-.24-.04-.32-.12-.15-.17-.11-.42.13-.74.06-.09.19-.11.28-.05.09.07.11.19.05.28-.08.12-.12.19-.13.23.07,0,.19-.03.31-.1.28-.16.79-.51.79-.52.09-.06.22-.04.28.05.06.09.04.22-.05.28-.02.01-.52.36-.82.53-.15.09-.34.15-.51.15Z"/>
              <path class="cls-2" d="m1.93,96c-.17,0-.33-.06-.47-.23-.07-.08-.06-.21.02-.28.08-.07.21-.06.28.02.14.17.34.08.75-.17.12-.07.23-.14.34-.19.1-.04.22,0,.26.11.04.1,0,.22-.11.26-.08.04-.18.1-.29.16-.22.14-.52.32-.8.32Z"/>
            </g>
            <path class="cls-2" d="m20.85,91.87s0,0,0,0c-.11,0-.2-.1-.19-.21.09-1.98.68-3.99,1.03-5.19.08-.29.16-.54.21-.74.03-.11.14-.17.25-.14.11.03.17.14.14.25-.05.2-.13.46-.21.75-.37,1.26-.93,3.16-1.01,5.09,0,.11-.09.19-.2.19Z"/>
            <path class="cls-2" d="m54.4,114.08c-.09,0-.18-.07-.2-.16-.52-2.58-1.04-7.22-1.08-9.74,0-.11.09-.2.2-.2.11,0,.2.09.2.2.04,2.49.55,7.1,1.07,9.66.02.11-.05.22-.16.24-.01,0-.03,0-.04,0Z"/>
            <path class="cls-2" d="m54.03,114.66c-.1,0-.19-.08-.2-.18-.04-.36-.12-.73-.19-1.05-.07-.33-.13-.59-.12-.76,0-.11.09-.2.2-.2.11,0,.2.09.2.2,0,.13.06.4.12.68.07.34.15.72.19,1.09.01.11-.07.21-.18.22,0,0-.01,0-.02,0Z"/>
            <path class="cls-8" d="m52.1,122.21c.43-.19.98-.02,1.22.38.14-.1.28-.2.42-.31.03-.03.07-.05.09-.09.02-.04.02-.09.02-.14-.03-.47-.06-.94-.08-1.42-.49.32-1.06.28-1.57.51-.48.22-.02,1.03-.09,1.06Z"/>
            <g>
              <path class="cls-14" d="m53.53,125.94c.08-.49.51-1,.68-1.34.16-.32.02-.67-.12-1.03h0c-.04-.15-.09-.35-.14-.62-.11-.59.11-.84-.15-.9h-.08c-.06.05-.1.11-.13.16-.06.08-.12.18-.2.24-.1.07-.2.06-.31,0-.06-.03-.12-.08-.17-.12-.05-.04-.1-.09-.16-.11-.08-.04-.17-.05-.26-.07-.09-.01-.17,0-.24.03l-.26.02c-.23.14-.19.2-.15.43l-.04.13c.02.11.02.26.02.3,0,.23-.02.47-.04.7,0,.07-.01.15-.03.22-.04.2-.13.4-.22.59-.18.36-.42.71-.6,1.07-.07.13-.13.26-.22.39,0,.01-.02.02-.03.04l-.07.21s.03-.04.04-.06c-.1.15-.17.27-.21.37-.5.84.41,1.25.87,1.33.6.1,1.95-.16,2.12-.54.16-.38.07-1.09.13-1.44Z"/>
              <g>
                <path class="cls-2" d="m51.61,127.84c-.09,0-.17,0-.24-.02-.52-.1-1.25-.53-1.2-1.14.02-.21.16-.42.37-.74.21-.32.5-.75.77-1.34.07-.15.25-.84.31-1.33.04-.35,0-.54-.02-.68-.04-.23-.05-.39.26-.58.1-.06.22-.02.28.07.06.1.02.22-.07.28-.05.03-.08.05-.08.06,0,.02,0,.06.02.1.03.15.07.39.02.81-.07.52-.25,1.25-.34,1.44-.28.62-.58,1.07-.8,1.4-.16.24-.3.44-.31.55-.03.3.45.63.87.71.46.09,1.63-.22,1.73-.45.08-.19.17-.8.22-1.16.02-.11.03-.21.04-.28.02-.11.12-.18.23-.17.11.02.18.12.17.23-.01.07-.02.17-.04.27-.08.56-.16,1.05-.25,1.27-.2.45-1.33.7-1.94.7Z"/>
                <path class="cls-2" d="m51.59,128.14c-.13,0-.25,0-.34-.02-.31-.05-.9-.27-1.11-.72-.09-.19-.14-.51.1-.92.06-.1.18-.13.28-.07.1.06.13.18.07.28-.12.21-.15.39-.08.54.13.28.56.45.81.5.61.11,1.8-.19,1.9-.42.09-.2.09-.57.09-.87,0-.19,0-.38.02-.52.06-.38.3-.76.49-1.06.08-.13.16-.24.2-.34.11-.23.02-.5-.13-.87-.04-.1,0-.22.11-.26.1-.04.22,0,.26.11.14.35.32.79.12,1.2-.06.12-.14.24-.23.38-.18.28-.39.6-.43.9-.02.11-.02.28-.02.46,0,.35,0,.75-.12,1.03-.19.44-1.29.68-2,.68Z"/>
                <path class="cls-2" d="m53.48,126.76c-.07,0-.15-.04-.18-.11-.11-.22-.34-.29-.57-.36-.19-.06-.38-.11-.46-.28-.05-.1-.05-.21,0-.33.39-1.1.49-2.53.51-2.8.02-.32.23-.45.39-.55.13-.08.27-.16.39-.35.06-.09.18-.12.28-.06.09.06.12.18.06.28-.17.27-.38.39-.52.48-.16.1-.19.12-.2.23-.02.28-.12,1.76-.53,2.91,0,0,0,0,0,.01.04.02.14.05.21.07.25.07.63.18.81.57.05.1,0,.22-.09.27-.03.01-.06.02-.09.02Z"/>
                <path class="cls-2" d="m50.58,126.47s-.08-.01-.12-.04c-.09-.06-.11-.19-.05-.28.25-.36.5-.41.67-.45q.12-.03.14-.09c.13-.42.54-1.95.67-2.63.03-.14.03-.21.03-.24-.08-.06-.16-.14-.2-.32-.03-.11.04-.22.15-.24.11-.03.22.04.25.15.02.07.03.08.05.09.19.13.19.29.13.64-.13.7-.54,2.24-.68,2.68-.09.29-.3.33-.44.36-.14.03-.27.06-.43.28-.04.06-.1.09-.16.09Z"/>
                <path class="cls-2" d="m53.15,122.75c-.07,0-.14-.04-.18-.1-.1-.18-.45-.35-.63-.3-.04,0-.09.03-.1.13,0,.11-.11.19-.22.18-.11,0-.19-.11-.18-.22.02-.26.17-.44.41-.49.35-.08.88.17,1.07.5.05.1.02.22-.08.27-.03.02-.07.03-.1.03Z"/>
                <path class="cls-2" d="m53,123.49c-.05,0-.1-.02-.14-.06-.11-.11-.47-.14-.7-.09-.11.02-.22-.05-.24-.15s.05-.22.15-.24c.28-.06.82-.06,1.07.2.08.08.08.21,0,.28-.04.04-.09.06-.14.06Z"/>
                <path class="cls-2" d="m52.95,124.07c-.05,0-.1-.02-.14-.06-.09-.09-.58-.14-.85-.08-.11.02-.22-.05-.24-.15-.02-.11.05-.22.15-.24.25-.05.96-.07,1.22.19.08.08.08.21,0,.28-.04.04-.09.06-.14.06Z"/>
                <path class="cls-2" d="m52.88,124.7c-.05,0-.1-.02-.14-.06-.1-.1-.62-.16-.88-.1-.11.02-.22-.05-.24-.15-.02-.11.05-.22.15-.24.24-.05.98-.06,1.25.22.08.08.08.21,0,.28-.04.04-.09.06-.14.06Z"/>
                <path class="cls-2" d="m52.77,125.29c-.05,0-.1-.02-.14-.06-.1-.1-.62-.16-.88-.1-.11.02-.22-.05-.24-.15-.02-.11.05-.22.15-.24.24-.05.98-.06,1.25.22.08.08.08.21,0,.28-.04.04-.09.06-.14.06Z"/>
                <path class="cls-2" d="m52.62,125.91c-.05,0-.1-.02-.14-.06-.1-.1-.69-.17-.95-.12-.11.02-.22-.05-.24-.15-.02-.11.05-.22.15-.24.28-.06,1.06-.03,1.32.23.08.08.08.21,0,.28-.04.04-.09.06-.14.06Z"/>
              </g>
            </g>
            <path class="cls-8" d="m54.01,124.51c-.02.18.08.34.19.49.04.06.09.13.16.16.09.04.2,0,.28-.07.08-.06.13-.15.2-.23.28-.31.79-.39,1.15-.18.07.04.15.1.24.08-.01-.34.03-.67.12-1-.35.19-.77.24-1.17.18-.2-.03-.71-.31-.87-.24-.15.07-.28.64-.3.8Z"/>
            <g>
              <path class="cls-2" d="m33.56,131.55c-.33,0-.6-.11-.82-.34-.37-.39-.54-1.08-.5-2.06.02-.44.04-.83.05-1.17.03-.72.06-1.29.06-1.87,0-.11.09-.2.2-.2.11,0,.2.09.2.2,0,.59-.03,1.16-.07,1.89-.02.34-.03.73-.05,1.17-.04.85.1,1.46.38,1.76.14.14.31.22.53.22.37,0,.74-.17,1.04-.48.39-.41.61-.99.59-1.55-.09-2.48-.25-4.04-.5-4.76-.07-.2-.25-.4-.45-.49-.1-.04-.19-.05-.24-.03-.1.05-.22,0-.27-.1s0-.22.1-.27c.16-.07.36-.06.57.03.31.13.57.42.67.73.25.76.42,2.35.52,4.87.03.67-.24,1.36-.7,1.85-.38.39-.85.6-1.33.6Z"/>
              <path class="cls-2" d="m33.83,131.96c-.54,0-.91-.27-1.15-.84-.04-.1,0-.22.11-.26.1-.04.22,0,.26.11.22.51.5.59.78.59h0c.34,0,.77-.23,1.11-.6.41-.44.64-.98.61-1.49-.03-.55-.05-1.04-.07-1.48-.13-2.95-.18-3.59-.96-3.91-.1-.04-.15-.16-.11-.26.04-.1.16-.15.26-.11,1.04.43,1.08,1.32,1.2,4.26.02.44.04.93.07,1.48.03.62-.23,1.27-.72,1.78-.43.45-.95.72-1.4.73h0Z"/>
            </g>
            <path class="cls-2" d="m35.39,128.87c-.06,0-.11-.02-.15-.07-.07-.08-.2-.13-.4-.15h-.02c-.1-.01-.22-.02-.33-.09-.28-.16-.29-.49-.3-.73v-.04c-.02-.43-.09-.84-.21-1.58-.03-.16-.06-.34-.09-.54-.02-.11.06-.21.17-.23.11-.02.21.06.23.17.03.2.06.38.09.54.12.76.19,1.18.21,1.62v.04c0,.16.02.34.1.39.04.02.1.03.17.03h.02c.2.02.48.07.67.29.07.08.06.21-.02.28-.04.03-.08.05-.13.05Z"/>
            <path class="cls-2" d="m32.47,129.27s-.04,0-.06,0c-.11-.03-.16-.15-.13-.25.07-.23.23-.43.44-.55l.04-.02s.06-.03.07-.05c.03-.03,0-.15,0-.21-.04-.25-.03-.64-.03-1.02,0-.34,0-.68-.02-.9-.01-.11.07-.21.18-.22.11-.01.21.07.22.18.03.25.03.59.02.95,0,.36,0,.73.03.96.02.14.05.36-.09.53-.06.07-.12.1-.18.14l-.03.02c-.12.07-.22.19-.26.33-.03.09-.11.14-.19.14Z"/>
            <path class="cls-2" d="m32.86,128.12c-.07,0-.14-.04-.18-.11-.05-.1-.02-.22.08-.27.57-.31,1.44-.52,1.98-.06.09.07.1.2.02.28-.07.09-.2.1-.28.02-.36-.3-1.03-.16-1.53.11-.03.02-.06.02-.1.02Z"/>
            <path class="cls-2" d="m32.87,127.55c-.06,0-.13-.03-.17-.09-.06-.09-.04-.22.05-.28.47-.32,1.47-.53,1.92-.13.08.07.09.2.02.28s-.2.09-.28.02c-.25-.23-1.04-.09-1.42.17-.03.02-.07.03-.11.03Z"/>
            <path class="cls-2" d="m32.86,126.96c-.06,0-.13-.03-.17-.08-.05-.08-.05-.18.01-.25.03-.03.07-.05.11-.06.19-.07,1.22-.45,1.73-.31.11.03.17.14.14.25-.03.11-.14.17-.25.14-.3-.08-1.07.14-1.5.31-.02,0-.05.01-.07.02,0,0,0,0,0,0Z"/>
            <g>
              <g>
                <path class="cls-8" d="m61.96,100.98c-.03-.34-.36-1.44-.49-1.96-.18.06-.37.11-.56.12-.23.01-.46-.02-.69-.07-.05.46-.3,1.07-.27,1.41.03.38.11.73.12,1.14,0,.41-.04.75.16.79s.28-.18.34-.36c.1-.3.04-.91.1-1.22.04-.22.21-.38.39-.15.18.24.23.56.22.93-.01.37-.03.66-.12.8-.08.13-.18.24-.27.36l.22-.41c-.27.43-.63.5-.81.62-.2.13-.33.32-.29.47.04.14.22.11.52,0l.03-.06c0,.09,0,.19.08.26.13.13.33-.15.58-.39.25-.25.49-.53.56-.76.06-.23.22-1.15.18-1.51Z"/>
                <path class="cls-8" d="m60.72,102.29c-.19.14-.36.18-.61.12-.1-.02-.33-.03-.38.12-.05.15.12.36.6.42l.39-.66Z"/>
                <path class="cls-8" d="m60.08,102.3l-.04-.39s-.21-.07-.27.05c-.11.23.31.34.31.34Z"/>
              </g>
              <g>
                <path class="cls-2" d="m60.72,103.88c-.08,0-.16-.03-.22-.09-.16-.16-.19-.41-.07-.67.09-.2.22-.37.35-.53.08-.1.15-.19.21-.29.07-.12.09-.53.09-.7.01-.37-.04-.63-.18-.8,0,0,0,0-.01-.01,0,.02-.02.04-.03.08-.02.12-.03.32-.03.5,0,.27-.01.55-.07.74-.05.16-.18.57-.57.49-.33-.07-.33-.42-.32-.77,0-.07,0-.14,0-.21,0-.25-.04-.48-.07-.71-.02-.14-.04-.28-.05-.42-.02-.23.04-.48.1-.75.05-.21.1-.43.1-.63,0-.11.1-.2.21-.2.11,0,.2.1.19.21,0,.24-.06.48-.11.7-.05.23-.1.45-.09.62.01.14.03.27.05.41.03.24.06.48.07.75,0,.08,0,.15,0,.22,0,.13,0,.29.02.36.02-.02.05-.08.09-.21.04-.14.05-.4.05-.63,0-.21,0-.42.04-.57.04-.22.17-.38.33-.42.09-.02.26-.02.42.19.25.33.27.76.26,1.06-.01.44-.04.73-.15.9-.07.12-.16.22-.24.33-.12.14-.22.28-.29.44-.02.05-.04.11-.04.15.05-.05.11-.11.16-.16.05-.05.1-.11.15-.16.36-.36.47-.56.5-.67.07-.25.21-1.12.18-1.44-.02-.2-.17-.72-.3-1.18-.08-.3-.16-.58-.21-.76-.03-.11.04-.22.15-.24.11-.03.22.04.24.15.04.17.12.45.2.74.14.49.29,1.01.31,1.24.04.4-.13,1.36-.19,1.58-.06.23-.26.51-.61.86-.05.05-.1.1-.14.15-.17.19-.31.33-.49.34,0,0,0,0,0,0Z"/>
                <path class="cls-2" d="m60.33,103.15s-.01,0-.02,0c-.35-.04-.61-.16-.72-.34-.07-.11-.09-.23-.05-.34.09-.27.42-.3.62-.26.19.05.31.02.47-.1.1-.08.31-.49.45-.82.04-.1.16-.15.26-.11.1.04.15.16.11.26-.08.19-.35.8-.57.98-.25.2-.5.25-.81.18-.04-.01-.1,0-.13,0,.04.04.15.12.42.15.11.01.19.11.18.22-.01.1-.1.18-.2.18Z"/>
                <path class="cls-2" d="m60.66,101.85c-.05,0-.1-.02-.14-.06-.08-.08-.08-.21,0-.28.1-.1.16-.28.23-.46.01-.04.03-.08.04-.12.04-.1.15-.16.26-.12.1.04.16.16.12.26l-.04.11c-.08.23-.16.45-.32.61-.04.04-.09.06-.14.06Z"/>
                <path class="cls-2" d="m60.08,102.5s-.03,0-.05,0c-.06-.02-.34-.1-.44-.31-.05-.1-.04-.21,0-.31.09-.2.33-.22.52-.15.11.04.16.15.12.26-.02.06-.06.1-.12.12,0,0,.01,0,.02,0,.11.03.17.14.14.25-.02.09-.11.15-.19.15Z"/>
                <path class="cls-2" d="m60.17,103.75c-.06,0-.12-.01-.18-.04-.08-.04-.14-.11-.17-.2-.07-.23.08-.5.37-.69.06-.04.12-.07.18-.1.22-.1.49-.23.68-.67.04-.1.16-.15.26-.11.1.04.15.16.11.26-.25.57-.64.76-.87.87-.06.03-.1.05-.14.07-.1.07-.16.14-.19.19.05,0,.12-.03.24-.07.1-.04.22.01.26.12.04.1-.01.22-.12.26-.17.06-.32.11-.44.11Z"/>
              </g>
            </g>
            <g>
              <path class="cls-7" d="m54.92,76.26c.02.16-.22.39-.22.39,0,0,.05.33-.04.77-.09.44-.32.99-.32.99l-1.34.37-4.63-.83s-.75-.66-.67-.97c0-.06-.02-.54.21-.82.19-.23-.19-.45.15-.59.34-.13.48-.45.76-.74.41-.44,1.12-.43,1.12-.43,0,0,1.57-.57,2.9-.2.46.13.85.35,1.17.7.21.23.38.6.5.88.1.21.38.31.4.49Z"/>
              <path class="cls-6" d="m48.72,79.44s.03.44.04.73c.02.35.07.73.32,1.18.19.36.54.67.8.9.33.26.08.36.08.36,0,0,.13.23.2.43.17.3.37.57.64.79.66.55,1.6.55,2.38.25.36-.14.68-.37.98-.62.15-.13.26-.61.38-.76.03-.04.06-.08.08-.12-.09-.09-.16-.19-.22-.29-.41-.74-.52-2.48-.52-2.48,0,0,.41-.23.54-.58.09-.25-.06-.6-.12-.75-.15-.35-1-.1-1-.1,0,0-.55.07-.93-.17-.17-.11-.31-.27-.31-.27,0,0-.41-.09-.64-.34-.28-.31-.62-.98-.89-1.13-.22-.11-.23-.2-.5-.21-.54,0-1.17.24-1.39.61-.27.47-.18,1.12-.18,1.12l.25,1.44Z"/>
              <path class="cls-2" d="m50.65,82.82c-.12,0-.23-.02-.33-.06-.33-.14-.67-.47-.85-.66-.48-.53-.78-1.09-.84-1.52-.05-.35-.06-.57-.08-.76,0-.14-.02-.27-.04-.43-.02-.17-.06-.33-.11-.5-.03-.12-.06-.24-.09-.36v-.02c-.13-.73-.08-1.34.16-1.81.05-.1.17-.14.27-.09.1.05.14.17.09.27-.2.39-.24.92-.13,1.56v.02c.03.11.05.23.08.34.04.17.09.35.12.54.02.18.03.32.04.46.01.19.02.39.07.72.05.35.32.84.74,1.3.25.27.52.48.7.56.3.13,1.09-.18,1.82-.71.43-.3.53-.49.74-.87l.35.19c-.22.39-.36.65-.86,1-.21.15-1.17.82-1.89.82Z"/>
              <path class="cls-2" d="m53.67,80.06c-.08,0-.16-.05-.19-.14-.03-.11.02-.22.13-.25.38-.13.58-.33.65-.66.04-.21-.03-.42-.17-.51-.14-.09-.32-.05-.53.09-.09.06-.22.04-.28-.05-.06-.09-.04-.22.05-.28.34-.25.7-.28.98-.11.28.18.42.55.35.93-.09.48-.4.79-.92.96-.02,0-.04.01-.06.01Z"/>
              <path class="cls-2" d="m53.76,79.32s-.05,0-.07-.01c-.1-.04-.15-.16-.11-.26,0-.02.08-.19.24-.31.09-.07.21-.05.28.04.07.09.05.21-.04.28-.07.05-.1.14-.11.14-.03.08-.11.13-.19.13Z"/>
              <path class="cls-3" d="m50.85,82.6s.7-.19,1.24-.5c.52-.29,1.07-1.03,1.07-1.03,0,0-.45,1.18-1,1.61-.52.4-1.21.4-1.21.4l-.11-.48Z"/>
              <path class="cls-2" d="m49.94,80.43s-.1-.02-.14-.05c-.38-.35-.27-.58-.1-.77.06-.07.1-.11.11-.17.03-.29-.1-.57-.22-.75-.06-.09-.03-.22.06-.28.09-.06.22-.03.28.06.22.34.31.7.27,1.02-.03.2-.14.32-.21.4-.02.02-.04.04-.05.06,0,.02.04.06.13.14.08.08.09.2.01.28-.04.04-.09.06-.15.06Z"/>
              <path class="cls-2" d="m50.42,77.94c-.07,0-.15-.04-.18-.11-.05-.1,0-.22.09-.27.6-.3,1.1-.07,1.12-.06.1.05.15.17.1.27-.05.1-.16.15-.27.1-.02,0-.36-.15-.78.06-.03.01-.06.02-.09.02Z"/>
              <path class="cls-2" d="m48.51,78.21c-.06,0-.11-.02-.15-.07-.07-.08-.07-.21.02-.28.01-.01.36-.31.87-.14.11.03.16.15.13.25-.03.11-.15.16-.25.13-.29-.1-.48.06-.48.06-.04.03-.09.05-.13.05Z"/>
              <path class="cls-3" d="m48.98,79.08c-.03-.16.05-.31.16-.32.11-.03.23.09.26.25.03.16-.05.31-.16.32-.11.03-.23-.09-.26-.25Z"/>
              <path class="cls-3" d="m50.75,78.89c-.02-.16.07-.31.19-.32.13-.01.25.1.26.26.02.16-.07.31-.19.32-.11.01-.23-.11-.26-.26Z"/>
              <path class="cls-2" d="m54.38,78.6s-.07,0-.1-.02c-.1-.05-.13-.18-.08-.27,0,0,.48-.89.32-1.68-.02-.11.05-.22.16-.24.11-.02.22.05.24.16.19.94-.34,1.92-.36,1.96-.04.07-.11.1-.18.1Z"/>
              <path class="cls-2" d="m55.05,76.42s-.02,0-.03,0c-.47-.07-.61-.42-.76-.76-.12-.29-.26-.61-.6-.87-.68-.52-2.23-.73-3-.23-.09.06-.22.04-.28-.06-.06-.09-.04-.22.06-.28.94-.62,2.66-.37,3.46.24.43.32.6.72.73,1.03.14.33.21.48.44.51.11.02.19.12.17.23-.01.1-.1.17-.2.17Z"/>
              <path class="cls-2" d="m47.9,75.79c-.1,0-.19-.08-.2-.18-.01-.11.07-.21.18-.22.35-.03.39-.09.69-.47l.02-.03c.34-.43.69-.69,1.42-.71.11,0,.2.09.21.2,0,.11-.09.2-.2.2-.57.01-.83.2-1.11.55l-.02.03c-.32.4-.45.57-.97.62,0,0-.01,0-.02,0Z"/>
              <path class="cls-2" d="m48.42,78.2c-.06,0-.11-.02-.15-.07-.06-.07-.12-.14-.18-.2-.44-.49-.99-1.1-.12-2.04.08-.08.2-.09.28-.01.08.08.09.2.01.28-.62.68-.33,1.01.12,1.5.06.07.13.14.19.21.07.09.06.21-.02.28-.04.03-.08.05-.13.05Z"/>
              <path class="cls-2" d="m52.13,78.12c-.39,0-.73-.2-.98-.58-.26-.41-.69-1.08-1.07-1.14-.07-.01-.18,0-.33.12-.08.07-.21.06-.28-.02-.07-.08-.06-.21.02-.28.2-.17.42-.24.65-.21.52.08.94.67,1.35,1.32.1.16.43.65,1.25.22.1-.05.22-.02.27.08.05.1.02.22-.08.27-.28.15-.55.23-.79.23Z"/>
              <path class="cls-2" d="m48.98,76.77c-.08,0-.15-.04-.18-.12-.04-.08-.1-.14-.16-.16-.06-.02-.13,0-.2.04-.09.06-.22.03-.28-.06-.06-.09-.03-.22.06-.28.22-.14.41-.12.54-.09.18.05.33.19.41.38.05.1,0,.22-.1.27-.03.01-.05.02-.08.02Z"/>
              <path class="cls-2" d="m52.86,78.56c-.34,0-.55-.2-.56-.21-.08-.08-.08-.21,0-.28s.21-.08.28,0c.01.01.17.15.44.06.11-.04.22.02.25.13s-.02.22-.13.25c-.11.04-.21.05-.3.05Z"/>
              <path class="cls-2" d="m49.57,75.89s-.04,0-.06,0c-.11-.03-.17-.14-.13-.25.02-.07.21-.65.59-.84.1-.05.22,0,.27.09.05.1,0,.22-.09.27-.18.09-.33.41-.39.6-.03.09-.11.14-.19.14Z"/>
              <g>
                <path class="cls-5" d="m50.32,80.75c.39-.05.78-.19.78-.19,0,0-.07.79-.63.91-.63.12-.91-.69-.91-.69,0,0,.37.03.76-.02Z"/>
                <path class="cls-2" d="m50.35,81.69c-.54,0-.87-.53-.98-.84-.02-.06-.01-.14.03-.19.04-.05.11-.08.17-.08,0,0,.35.03.72-.02.37-.05.74-.18.74-.18.06-.02.14-.01.19.03s.08.11.08.18c0,.04-.09.94-.79,1.09-.06.01-.11.02-.17.02Zm-.45-.7c.11.17.29.34.54.29.21-.04.33-.24.4-.42-.14.04-.31.07-.48.1-.16.02-.32.03-.46.03Z"/>
              </g>
              <path class="cls-2" d="m54.46,82.53c-.07,0-.13-.03-.17-.1-.36-.59-.56-2.15-.56-2.22-.01-.11.06-.21.17-.22.11-.01.21.06.22.18.05.43.25,1.63.51,2.06.06.09.03.22-.07.28-.03.02-.07.03-.1.03Z"/>
              <path class="cls-2" d="m50.9,83.55s-.04,0-.06,0c-.11-.03-.17-.15-.13-.25.02-.08.04-.21-.03-.62-.02-.11.05-.21.16-.23.11-.02.21.05.23.16.07.42.08.63.02.81-.03.09-.11.14-.19.14Z"/>
            </g>
            <path class="cls-2" d="m60.82,99.44c-.25,0-.49-.06-.71-.11-.11-.03-.18-.13-.15-.24.03-.11.13-.18.24-.15.24.06.5.12.73.09.21-.02.39-.12.47-.26-.03-.46-.23-3.45-.29-4.72-.03-.62-.06-1.27-.13-1.89-.1-.85-.28-1.7-.46-2.53-.15-.68-.28-1.25-.42-1.79-.13-.55-.27-1.12-.42-1.8-.09-.41-.34-1.17-.56-1.45-.39-.49-1.24-.75-2.13-1.03l-.3-.09c-.81-.25-1.3-.4-2.09-.86-.1-.06-.13-.18-.07-.28.06-.1.18-.13.28-.07.75.44,1.22.58,2,.83l.3.09c.95.3,1.85.58,2.32,1.16.3.38.57,1.27.64,1.61.15.68.28,1.24.42,1.79.13.55.27,1.12.42,1.8.18.84.37,1.7.47,2.57.08.64.11,1.29.14,1.92.06,1.36.29,4.73.3,4.77,0,.03,0,.07-.02.1-.14.28-.45.49-.82.53-.05,0-.11,0-.16,0Z"/>
            <g>
              <path class="cls-4" d="m30.01,138.34l-.17-.81h0c-.03-.2-.15-.9-.28-1.55-.02.03-.04.05-.06.08-.12.13-.3.2-.47.25-.13.03-.25.05-.38.06.12-.51-.66-.62-1.01-.62-.19,0-.39.02-.54.14-.22.17-.26.48-.27.76,0,.03,0,.07.01.1.03.05.09.06.13.08.01,0,.03.01.04.02l-.07.03c-.18.8-.49,1.59-.67,2.01-.52,1.25-1.44,1.73-1.56,2.62,0,.02,0,.03,0,.05h0c-.56.98.63,1.66,1.37,1.75.58.07,1.85-.3,2.51-.95.73-.73.22-1,.64-2.43.2-.67.87-.76.79-1.58Z"/>
              <path class="cls-2" d="m26.2,143.04c-.06,0-.11,0-.16,0-.5-.06-.99-.34-1.29-.72-.2-.27-.29-.55-.25-.83.07-.52.39-.91.72-1.33.29-.36.62-.77.86-1.34.12-.28.47-1.14.66-1.98.02-.11.13-.18.24-.15.11.02.18.13.15.24-.19.87-.56,1.76-.68,2.05-.26.62-.61,1.06-.91,1.44-.32.4-.58.72-.63,1.13-.03.21.08.41.17.53.23.3.63.52,1.02.57.52.06,1.5-.33,2.18-.88.35-.28.4-.59.48-1.16.05-.35.12-.79.29-1.34.08-.28.21-.48.32-.67.18-.29.32-.52.28-.95-.02-.1-.19-1.12-.34-1.91-.02-.11.05-.21.16-.24.11-.02.22.05.24.16.16.83.34,1.92.35,1.93,0,0,0,0,0,.01.06.58-.14.9-.34,1.21-.11.18-.21.35-.28.57-.16.52-.22.95-.27,1.29-.09.6-.16,1.04-.63,1.42-.72.58-1.68.97-2.32.97Z"/>
              <path class="cls-2" d="m26.22,143.52c-.06,0-.13,0-.18-.01-.57-.07-1.3-.43-1.58-.98-.17-.34-.15-.71.06-1.07.06-.1.18-.13.27-.07.1.06.13.18.07.27-.14.25-.16.47-.05.69.2.4.8.7,1.27.76.52.06,1.73-.29,2.34-.9.37-.36.37-.57.38-.98,0-.31.02-.74.21-1.37.1-.32.28-.53.45-.71.22-.24.37-.41.34-.79l-.17-.8c-.02-.11.05-.22.16-.24.11-.02.22.05.24.16l.17.81s0,.01,0,.02c.05.57-.21.86-.44,1.11-.15.16-.29.32-.36.55-.17.58-.18.96-.19,1.27-.01.43-.02.77-.5,1.25-.62.61-1.78,1.02-2.49,1.02Z"/>
              <path class="cls-2" d="m28.86,141.45c-.1,0-.18-.07-.2-.17-.07-.42-.28-.47-.54-.53-.17-.04-.37-.08-.47-.26-.08-.13-.09-.31-.02-.54.08-.29.18-.57.29-.86.09-.26.19-.53.28-.83.09-.31.17-.75.24-1.1.05-.3.1-.53.14-.65.08-.22.23-.32.37-.4.13-.08.26-.16.37-.39.05-.1.17-.15.27-.1.1.05.15.17.1.27-.16.35-.37.48-.53.57-.12.07-.16.1-.19.18-.03.09-.08.34-.12.6-.07.36-.15.82-.25,1.15-.09.3-.19.58-.28.85-.1.29-.2.56-.28.84-.05.18-.02.22-.02.23.02.03.13.06.22.07.28.06.74.17.85.86.02.11-.06.21-.17.23-.01,0-.02,0-.03,0Z"/>
              <path class="cls-2" d="m25.32,140.58s-.08-.01-.11-.04c-.09-.06-.11-.19-.05-.28.18-.27.39-.31.55-.35.15-.03.22-.05.31-.3l.03-.09c.14-.39.46-1.3.63-1.95.15-.58.08-.93.08-.94-.02-.11.04-.22.15-.24.11-.02.22.04.24.15,0,.02.1.45-.08,1.13-.18.67-.5,1.59-.64,1.98l-.03.09c-.15.43-.37.51-.61.56-.12.03-.21.05-.3.18-.04.06-.1.09-.17.09Z"/>
              <path class="cls-2" d="m26.96,137.02c-.1,0-.19-.08-.2-.18-.04-.51.02-.85.2-1.05.13-.15.32-.23.57-.25.53-.03,1.31.28,1.42.94.02.11-.06.21-.17.23-.11.02-.21-.06-.23-.17-.06-.4-.62-.62-1-.6-.18.01-.25.07-.29.11-.1.12-.14.37-.11.76,0,.11-.07.21-.18.22,0,0-.01,0-.02,0Z"/>
              <path class="cls-2" d="m28.71,137.59s-.07,0-.1-.02c-.62-.34-1.13-.29-1.63-.2-.11.02-.21-.05-.23-.16-.02-.11.05-.21.16-.23.53-.09,1.16-.16,1.9.24.1.05.13.18.08.27-.04.07-.11.1-.18.1Z"/>
              <path class="cls-2" d="m28.55,138.42s-.08-.01-.12-.04c-.32-.23-1.26-.39-1.57-.27-.1.04-.22-.01-.26-.11-.04-.1.01-.22.11-.26.47-.18,1.55.03,1.95.31.09.06.11.19.05.28-.04.06-.1.08-.16.08Z"/>
              <path class="cls-2" d="m28.12,139.09s-.07,0-.1-.03c-.46-.27-.83-.34-1.36-.24-.11.02-.21-.05-.23-.16-.02-.11.05-.21.16-.23.62-.11,1.08-.03,1.63.29.1.06.13.18.07.28-.04.06-.1.1-.17.1Z"/>
              <path class="cls-2" d="m27.84,139.74s-.05,0-.08-.02c-.48-.2-.86-.26-1.31-.18-.11.02-.21-.05-.23-.16-.02-.11.05-.21.16-.23.53-.09.99-.03,1.54.2.1.04.15.16.11.26-.03.08-.11.12-.19.12Z"/>
            </g>
            <path class="cls-14" d="m54.12,127.77l-.19-1.63s.02.07.03.11c.2.9.18,1.41.18,1.95,0,.5-.15,1.12.14,1.34.44.31,1.61.53,2.6.42.87-.1,1.32-.29,1.39-.53.06-.24-.13-.66-.27-.84-.2-.31-.53-.63-.81-1.05-.4-.59-.68-1.63-.73-2.17-.03-.33-.07-.26-.15-.26.01-.41-.26-.5-.77-.48-.5.03-.73.31-.77.42-.16.07-.33.16-.49.09-.29-.13-.26-.5-.31-.25-.05.19-.09.47-.11.7,0,0-.24.6-.23,1.11.02.36.31.67.48,1.06Z"/>
            <g>
              <path class="cls-2" d="m56.31,125.33s0,0,0,0c-.11,0-.2-.1-.19-.21,0-.15-.04-.19-.05-.2-.07-.07-.24-.09-.51-.08-.41.02-.57.24-.59.29-.03.11-.14.17-.25.14-.11-.03-.17-.14-.14-.25.06-.21.37-.55.96-.58.29-.02.62,0,.82.19.12.12.18.29.17.5,0,.11-.09.19-.2.19Z"/>
              <path class="cls-2" d="m55.64,129.78s-.09,0-.13,0c-.49-.07-.75-.14-.99-.23-.58-.24-.58-.7-.58-1.24v-.05c0-.07,0-.13,0-.2,0-.47,0-.96-.17-1.75,0-.04-.02-.08-.04-.12-.04-.11-.08-.24-.08-.4,0,0,0,0,0-.01.02-.26.07-.66.13-.91.01-.07.04-.22.2-.23.15-.02.21.12.23.17.03.08.07.15.15.18.07.03.2-.03.31-.08.17-.08.39-.18.57-.02.15.15.15.43.15.81,0,.24,0,.51.04.73.07.47.14.79.19,1,.01.04.02.09.03.12.09.41-.16.51-.34.58-.13.05-.28.11-.46.28-.08.08-.21.07-.28-.01-.08-.08-.07-.21.01-.28.23-.21.44-.3.58-.36.04-.02.09-.03.11-.05,0-.01,0-.03-.01-.07l-.03-.12c-.05-.22-.13-.55-.2-1.03-.04-.26-.04-.54-.04-.8,0-.17,0-.39-.02-.49-.04.01-.09.04-.13.06-.17.08-.41.19-.64.09-.04-.02-.07-.03-.1-.05-.03.18-.05.36-.06.5,0,.09.03.17.06.26.02.06.04.11.05.16.19.84.19,1.35.18,1.84v.25c0,.55.01.73.33.86.21.08.44.14.9.21.19.03.31-.05.49-.16.17-.1.36-.22.63-.24.37-.02.57.16.71.29.03.03.08.07.1.08.35-.1.46-.2.48-.23.02-.24-.22-.52-.49-.86-.01-.01-.02-.03-.04-.04-.01,0-.02-.02-.03-.03-.17-.18-.27-.19-.38-.19-.11,0-.31-.01-.43-.26-.22-.46-.52-1.82-.57-2.35-.02-.28-.02-.39.1-.46.03-.02.11-.06.21,0,.05,0,.12,0,.18.05.09.07.12.2.14.4.05.52.31,1.53.69,2.08.14.21.29.39.44.57.33.4.62.75.58,1.17-.03.24-.29.43-.78.56-.21.06-.36-.07-.47-.17-.12-.1-.21-.2-.41-.18-.17,0-.3.09-.45.18-.17.1-.36.22-.62.22Z"/>
              <path class="cls-2" d="m56.34,130.19c-.85,0-1.76-.19-2.18-.48-.31-.24-.28-.69-.25-1.12,0-.13.02-.26.02-.38,0-.11.09-.2.2-.2s.2.09.2.2c0,.13,0,.27-.02.41-.02.31-.05.67.09.77.37.26,1.51.48,2.45.38,1.13-.13,1.21-.38,1.21-.38.04-.14-.1-.49-.24-.66-.07-.09-.06-.21.03-.28.09-.07.21-.06.28.03.14.17.41.67.31,1.02-.09.35-.6.57-1.56.68-.18.02-.37.03-.56.03Z"/>
              <path class="cls-2" d="m54.12,127.97c-.08,0-.15-.04-.18-.12-.06-.12-.13-.24-.2-.36-.14-.24-.29-.49-.3-.77-.02-.55.23-1.17.24-1.2.04-.1.16-.15.26-.11.1.04.15.16.11.26,0,0-.23.57-.21,1.03,0,.18.12.37.25.58.08.13.15.26.22.4.05.1,0,.22-.1.27-.03.01-.06.02-.08.02Z"/>
              <path class="cls-2" d="m55.21,125.84c-.06,0-.11-.02-.15-.07-.07-.08-.06-.21.02-.28.27-.23.97-.25,1.24-.13.1.04.15.16.1.26-.04.1-.16.15-.26.1-.18-.08-.7-.04-.82.07-.04.03-.08.05-.13.05Z"/>
              <path class="cls-2" d="m55.26,126.44c-.06,0-.11-.02-.15-.07-.07-.08-.06-.21.02-.28.26-.23.95-.25,1.23-.15.1.04.16.15.12.26-.04.1-.15.16-.26.12-.17-.06-.71-.03-.83.08-.04.03-.08.05-.13.05Z"/>
              <path class="cls-2" d="m55.37,127.03c-.06,0-.11-.02-.15-.07-.07-.08-.06-.21.02-.28.26-.22,1-.28,1.29-.16.1.04.15.16.1.26-.04.1-.16.15-.26.1-.17-.07-.75-.01-.87.09-.04.03-.09.05-.13.05Z"/>
              <path class="cls-2" d="m55.5,127.63c-.06,0-.11-.02-.15-.07-.07-.08-.06-.21.02-.28.26-.22,1-.28,1.29-.16.1.04.15.16.1.26-.04.1-.16.15-.26.1-.17-.07-.75-.01-.87.09-.04.03-.08.05-.13.05Z"/>
            </g>
            <g>
              <g>
                <path class="cls-2" d="m43.93,99.26c-.43,0-.69-.19-.76-.25l-3.7-2.26c-.61-.37-1.25-.76-1.81-1.24-.46-.39-.87-.83-1.28-1.25-.08-.09-.17-.18-.25-.26-.71-.74-1.87-1.7-2.81-2.47-.29-.23-.56-.46-.79-.65-.09-.07-.1-.2-.02-.28.07-.09.2-.1.28-.02.24.2.5.42.79.65.95.78,2.13,1.74,2.85,2.51.08.09.17.18.25.27.39.42.8.85,1.24,1.22.54.45,1.16.83,1.76,1.2l3.72,2.27s.02.02.03.03c0,0,.19.17.55.15.31-.01.64-.18,1.03-.51.11-.1.23-.2.34-.3.22-.21.45-.42.71-.59.17-.11.35-.21.53-.3.21-.11.41-.21.59-.34.01-.01.02-.02.03-.03-.02,0-.06,0-.1,0l-1.64.23c-.11.02-.21-.06-.23-.17-.02-.11.06-.21.17-.23l1.64-.23c.14-.02.33,0,.46.12.08.07.12.17.12.29,0,.19-.16.31-.21.35-.21.16-.43.27-.65.38-.17.09-.33.17-.49.27-.23.15-.44.34-.66.55-.11.1-.23.21-.35.31-.47.4-.87.59-1.28.61-.02,0-.04,0-.06,0Z"/>
                <path class="cls-2" d="m44,97.37c-.11,0-.22-.04-.33-.13-.84-.56-1.38-1.35-1.9-2.11-.38-.55-.77-1.13-1.28-1.61-.27-.26-.57-.49-.86-.72-.42-.33-.86-.67-1.21-1.08-.36-.41-.69-.97-1.02-1.51-.19-.32-.38-.62-.55-.87-.97-1.41-1.85-2.21-2.71-2.98-.19-.17-.38-.35-.57-.53-.46-.44-1.38-.77-2.01-.73-.86.05-1.35.16-1.74.24-.49.1-.82.17-1.44.04-.11-.02-.18-.13-.15-.24.02-.11.13-.18.24-.15.54.12.8.06,1.27-.04.38-.08.91-.19,1.79-.25.73-.05,1.77.33,2.31.84.19.18.38.35.57.52.87.79,1.77,1.61,2.77,3.05.18.27.37.57.57.89.32.52.65,1.07.98,1.45.33.39.73.7,1.16,1.03.3.23.61.48.9.75.53.51.94,1.1,1.33,1.67.53.77,1.02,1.49,1.8,2.01,0,0,0,0,.01,0,.06.05.09.05.09.05.06-.01.18-.24.24-.36.03-.06.07-.13.11-.19.13-.22.25-.44.37-.67.09-.18.31-.59.7-.56.11,0,.19.11.18.22,0,.11-.11.19-.22.18-.05,0-.15.05-.31.35-.12.22-.25.45-.38.68-.04.06-.07.12-.1.18-.14.26-.27.51-.51.56-.03,0-.06,0-.08,0Z"/>
              </g>
              <path class="cls-2" d="m47.17,98.88c-.2,0-.4-.1-.53-.28-.06-.09-.04-.22.05-.28.09-.06.22-.04.28.05.06.09.19.13.28.08.1-.05.22-.01.27.08.05.1.01.22-.08.27-.09.05-.18.07-.28.07Z"/>
              <path class="cls-2" d="m45.43,95.34c-.09,0-.19-.03-.27-.09-.12-.09-.21-.24-.23-.39-.03-.2.03-.42.18-.63.26-.38.69-.64,1.15-.69.43-.04.89.1,1.26.38.09.07.1.19.04.28-.07.09-.19.1-.28.04-.29-.22-.64-.33-.97-.3-.34.03-.66.22-.86.51-.06.09-.13.22-.11.35,0,.05.04.1.07.12.01,0,.03.01.03.01.11-.02.21.06.23.17.02.11-.06.21-.17.23-.02,0-.05,0-.07,0Z"/>
              <g>
                <path class="cls-2" d="m47.3,92.18s-.03,0-.04,0c-.11-.02-.18-.13-.15-.24.15-.68,1.29-3.7,1.34-3.83.04-.1.16-.16.26-.12.1.04.16.16.12.26-.01.03-1.17,3.12-1.32,3.78-.02.09-.1.16-.2.16Z"/>
                <path class="cls-2" d="m47.73,98.96c-.11,0-.23-.03-.33-.07s-.14-.17-.09-.27c.05-.1.17-.14.27-.09.14.07.32.03.37-.08.3-.6.67-1.6.54-1.94-.11-.28-.48-.86-.75-1.29-.14-.21-.25-.39-.33-.52-.05-.09-.09-.18-.11-.27-.07-.3-.11-.47-.12-.53-.15-.82-.09-1.72-.08-1.91-.1-.39-.26-.66-.48-.79-.23-.14-.45-.08-.46-.08-.11.03-.22-.04-.25-.14-.03-.11.03-.22.14-.25.02,0,.38-.1.76.12.33.19.56.55.69,1.08,0,.02,0,.04,0,.06,0,0-.08.99.07,1.83,0,.03.03.13.12.51.01.05.04.11.07.16.07.12.18.3.32.5.3.46.67,1.04.79,1.36.24.64-.47,2.1-.55,2.27-.11.23-.35.33-.58.33Z"/>
                <path class="cls-2" d="m46.59,98.62c-.06,0-.12,0-.19-.03-.1-.03-.39-.2-.44-.41-.02-.11.05-.22.16-.24.1-.02.2.04.23.14.03.04.13.11.18.13.02,0,.04,0,.07,0,.06-.19.18-.6.23-1.09.01-.11.11-.19.22-.18.11.01.19.11.18.22-.08.75-.29,1.3-.3,1.32-.03.07-.1.12-.18.13h-.04s-.08,0-.12,0Z"/>
                <path class="cls-2" d="m47.37,98.83s-.06,0-.09-.02c-.1-.05-.14-.17-.08-.27.14-.26.42-1.07.5-1.78.01-.11.11-.19.22-.18.11.01.19.11.18.22-.08.74-.37,1.59-.55,1.92-.04.07-.11.11-.18.11Z"/>
                <path class="cls-2" d="m46.16,98.34c-.1,0-.19-.08-.2-.19-.02-.32.07-.62.07-.63.03-.11.14-.17.25-.13.11.03.17.15.13.25,0,0-.07.24-.05.48,0,.11-.07.21-.19.22,0,0-.01,0-.02,0Z"/>
                <path class="cls-2" d="m45.56,96.82c-.1,0-.19-.07-.2-.17-.01-.09-.03-.17-.05-.25-.08-.33-.04-.5,0-.68.04-.18.09-.37.04-.83-.04-.11-.12-.23-.25-.38-.07-.08-.06-.21.02-.28.08-.07.21-.07.28.02.18.2.28.37.34.54,0,.01,0,.03,0,.04.06.54,0,.79-.04.99-.04.16-.06.26,0,.49.02.1.04.2.06.3.01.11-.06.21-.17.23,0,0-.02,0-.03,0Z"/>
                <path class="cls-2" d="m46.07,98.33c-.19,0-.38-.08-.51-.2-.08-.08-.08-.21,0-.28.08-.08.21-.08.28,0,.06.06.16.09.23.08.11,0,.2.09.2.2,0,.11-.09.2-.2.2h0Z"/>
                <path class="cls-2" d="m48.63,96.58c-.06,0-.11-.02-.15-.07-.08-.1-.12-.09-.28-.06-.09.02-.2.03-.34.02-.12-.01-.24-.08-.35-.14-.1-.06-.22-.12-.28-.1-.18.07-.32.02-.43-.01-.11-.03-.21-.07-.4-.03-.11.02-.21-.05-.23-.16-.02-.11.05-.21.16-.23.28-.05.46,0,.58.05.1.03.13.04.17.02.23-.09.46.04.62.13.07.04.15.08.19.09.08,0,.15,0,.23-.02.17-.03.41-.07.64.19.07.08.07.21-.02.28-.04.03-.09.05-.13.05Z"/>
                <path class="cls-2" d="m45.13,95.03c-.07,0-.13-.03-.17-.1-.07-.12-.15-.24-.23-.37-.39-.59-.87-1.33-.87-2.08,0-.32.07-.65.13-.94v-.04c.18-.84.45-1.66.7-2.46.28-.86.56-1.76.73-2.66.07-.39.29-1.36.77-2.01.41-.55,1.63-1.14,2.95-1.74.36-.17.68-.31.79-.38.09-.06.22-.03.28.06.06.09.03.22-.06.28-.13.09-.43.22-.84.41-.9.41-2.41,1.09-2.79,1.61-.43.58-.63,1.48-.7,1.84-.17.93-.46,1.83-.74,2.71-.25.79-.51,1.6-.68,2.42v.04c-.06.27-.13.58-.13.86,0,.63.43,1.29.81,1.86.09.13.17.26.24.38.06.1.03.22-.07.28-.03.02-.07.03-.1.03Z"/>
              </g>
            </g>
            <path class="cls-2" d="m52.37,84.45c-.99,0-2.2-.76-2.67-1.69-.05-.1-.01-.22.09-.27.1-.05.22-.01.27.09.41.81,1.54,1.51,2.38,1.47.78-.03,1.53-.8,1.96-1.56,0-.04,0-.07,0-.1v-.02s0-.04-.02-.05c-.08-.07-.09-.2-.02-.28.07-.08.2-.09.28-.02.11.1.17.24.16.39v.03c.02.05.02.12-.01.17-.44.82-1.31,1.8-2.34,1.84-.03,0-.05,0-.08,0Z"/>
            <path class="cls-2" d="m50.56,113.97c-.06,0-.11-.02-.15-.07-.09-.1-.17-.17-.25-.25-.23-.2-.44-.39-.56-.93-.02-.11.04-.22.15-.24.11-.02.22.04.24.15.09.41.23.53.43.72.09.08.19.17.29.28.07.08.06.21-.02.28-.04.03-.09.05-.13.05Z"/>
            <path class="cls-2" d="m47.73,94.73s-.03,0-.05,0c-.11-.03-.17-.14-.14-.25.27-1.03.53-2.66.46-4.13,0-.11.08-.21.19-.21.11,0,.21.08.21.19.07,1.52-.19,3.19-.47,4.25-.02.09-.11.15-.19.15Z"/>
            <path class="cls-2" d="m57.1,97.4s-.02,0-.03,0c-.11-.01-.19-.11-.17-.23.3-2.33.79-6.76.79-10.2,0-.11.09-.2.2-.2s.2.09.2.2c0,3.46-.5,7.91-.8,10.25-.01.1-.1.18-.2.18Z"/>
            <path class="cls-2" d="m51.63,121.37h-.01c-.35,0-.65-.26-.7-.6-.15-1.13-.25-2.05-.33-2.87-.16-1.53-.28-2.74-.69-4.52-.02-.11.04-.22.15-.24.11-.02.22.04.24.15.41,1.8.54,3.02.7,4.56.08.81.18,1.73.33,2.85.02.15.15.25.3.25h0c1.52,0,2.14-.46,2.14-.46.09-.07.21-.05.28.03.07.09.05.21-.03.28-.03.02-.71.55-2.39.55Z"/>
            <path class="cls-2" d="m55.65,124.1c-.6,0-1.17-.15-1.71-.45-.1-.05-.13-.18-.08-.27.05-.1.18-.13.27-.08.84.47,1.81.52,2.79.15.11-.04.23-.1.3-.18.02-.06,0-.24-.02-.34-.01-.12-.03-.22-.02-.29.33-3.41.47-6.57.44-9.92,0-.11.09-.2.2-.2.11,0,.2.09.2.2.03,3.37-.11,6.54-.44,9.97,0,.04,0,.13.02.21.03.24.05.47-.05.61-.13.18-.32.27-.49.33-.48.18-.96.27-1.42.27Z"/>
            <path class="cls-2" d="m53.91,123.63c-.11,0-.2-.09-.2-.19-.11-3.22.05-6.92.19-10.18l.03-.75c0-.11.1-.2.21-.19.11,0,.2.1.19.21l-.03.75c-.14,3.26-.31,6.95-.19,10.15,0,.11-.08.2-.19.21,0,0,0,0,0,0Z"/>
            <path class="cls-2" d="m56.23,124.96s-.03,0-.04,0c-.11-.02-.18-.13-.15-.24.04-.2.07-.32.1-.44.03-.12.05-.24.1-.45.02-.11.13-.18.24-.15.11.02.18.13.15.24-.04.2-.07.32-.1.44-.03.12-.05.24-.1.44-.02.09-.1.16-.2.16Z"/>
          </g>
          <path class="cls-2" d="m45.62,95.59c-.76-.85-1.14-1.88-1.46-2.87-.19-.57-.09-1.26.29-2.05.29-.59,1.18-3.34,1.28-4.13.12-1.01.41-1.7.89-2.16.26-.25.58-.43.89-.6.44-.24.81-.42,1.17-.59.36-.17.73-.35,1.16-.59l.06.12c-.44.24-.81.42-1.17.59-.36.17-.73.35-1.16.59-.3.17-.62.34-.87.58-.46.44-.73,1.1-.85,2.08-.1.8-1,3.57-1.29,4.17-.37.75-.47,1.41-.29,1.94.32.97.7,1.98,1.44,2.82l-.1.09Z"/>
          <path class="cls-2" d="m53.92,125.28c-.06,0-.12-.03-.16-.08-.03-.04-.11-.15.13-1,.03-.12.02-.25,0-.4,0-.08-.02-.15-.02-.22,0-.11.08-.21.19-.21.11,0,.21.08.21.19,0,.06.01.13.02.2.02.17.04.37-.01.56-.1.37-.15.66-.15.73.01.07-.01.15-.08.2-.04.03-.08.04-.12.04Z"/>
          <path class="cls-2" d="m38.02,127.66s-.03,0-.04,0c-.11-.02-.18-.13-.16-.24.27-1.27-.02-3.78-.55-4.71-.05-.1-.02-.22.08-.27s.22-.02.27.08c.57,1.01.88,3.62.59,4.99-.02.09-.1.16-.2.16Z"/>
          <path class="cls-2" d="m39,126.32s-.02,0-.02,0c-.11-.01-.19-.11-.18-.22.16-1.37-.51-3.96-.97-4.64-.06-.09-.04-.22.05-.28.09-.06.22-.04.28.05.56.81,1.2,3.54,1.04,4.91-.01.1-.1.18-.2.18Z"/>
        </g>
      </g>
      <g>
        <g>
          <path class="cls-4" d="m92.52,17.44c-.66-7.19-5.5-13.63-12.8-16-5.75-1.86-11.75-.77-16.35,2.43C58.79.66,52.81-.45,47.05,1.38c-7.29,2.32-12.16,8.72-12.88,15.88-7.37,2.57-12.6,9.64-12.46,17.87,0,0,0,.01,0,.02.1,7.95,5.21,14.74,12.36,17.29.39,4.1,2.14,7.95,4.93,10.94-.6,4.27-3.46,8.78-5.21,9.23,4.32.06,7.93-2.41,10.62-5.23.79.39,1.62.73,2.49,1.01,5.75,1.85,11.74.75,16.34-2.46,3.09,2.16,6.81,3.37,10.66,3.37,1.87,0,3.78-.28,5.67-.89,7.29-2.33,12.15-8.75,12.85-15.92,7.33-2.58,12.54-9.63,12.41-17.83-.12-7.96-5.24-14.68-12.31-17.21Z"/>
          <path class="cls-10" d="m92.52,17.44c-.66-7.19-5.5-13.63-12.8-16-5.75-1.86-11.75-.77-16.35,2.43C58.79.66,52.81-.45,47.05,1.38c-7.29,2.32-12.16,8.72-12.88,15.88-7.37,2.57-12.6,9.64-12.46,17.87,0,0,0,.01,0,.02.1,7.95,5.21,14.74,12.36,17.29.39,4.1,2.14,7.95,4.93,10.94-.6,4.27-3.46,8.78-5.21,9.23,4.32.06,7.93-2.41,10.62-5.23.79.39,1.62.73,2.49,1.01,5.75,1.85,11.74.75,16.34-2.46,3.09,2.16,6.81,3.37,10.66,3.37,1.87,0,3.78-.28,5.67-.89,7.29-2.33,12.15-8.75,12.85-15.92,7.33-2.58,12.54-9.63,12.41-17.83-.12-7.96-5.24-14.68-12.31-17.21Z"/>
        </g>
        <g>
          <path class="cls-2" d="m39.98,22.65l.62-.84c.4.39.88.68,1.49.68.68,0,1.13-.32,1.13-.88,0-.63-.39-1.02-1.84-1.02v-.95c1.22,0,1.62-.41,1.62-.96,0-.5-.32-.8-.89-.8-.48,0-.86.23-1.26.59l-.68-.81c.58-.5,1.22-.83,2-.83,1.29,0,2.16.63,2.16,1.75,0,.7-.41,1.19-1.11,1.47v.04c.75.2,1.32.75,1.32,1.6,0,1.19-1.07,1.88-2.34,1.88-1.05,0-1.76-.4-2.23-.93Z"/>
          <path class="cls-2" d="m47.45,18.85c-.48.34-1,.65-1.52.9-.13-.26-.41-.67-.63-.9,1.53-.67,2.96-1.95,3.64-3.02h1.12c.95,1.32,2.39,2.35,3.81,2.85-.27.28-.5.67-.69.98-.5-.23-1.02-.53-1.51-.87v.71h-4.2v-.66Zm-1.59,1.4h7.45v.99h-4.03c-.26.53-.56,1.09-.83,1.59.86-.03,1.79-.06,2.71-.1-.28-.32-.59-.65-.88-.92l.95-.5c.8.7,1.64,1.64,2.06,2.31l-1,.6c-.09-.17-.22-.36-.36-.56-2.12.12-4.34.21-5.87.28l-.14-1.04,1.36-.04c.24-.5.5-1.1.68-1.63h-2.09v-.99Zm5.41-1.73c-.69-.52-1.31-1.11-1.73-1.67-.39.55-.96,1.13-1.65,1.67h3.38Z"/>
          <path class="cls-2" d="m59.17,20.33c-.07.14-.16.29-.25.43h3.65s0,.24-.02.37c-.13,1.76-.27,2.48-.51,2.74-.17.21-.37.28-.59.31-.21.03-.55.04-.91.02-.02-.25-.11-.61-.24-.84.29.03.52.03.64.03.13,0,.2-.02.27-.1.13-.13.23-.59.33-1.68h-.35c-.37,1.01-1.07,2.1-1.8,2.66-.18-.21-.49-.45-.76-.59.68-.43,1.29-1.23,1.67-2.07h-.53c-.49.86-1.32,1.76-2.11,2.26-.17-.21-.45-.48-.7-.63.67-.33,1.36-.96,1.84-1.63h-.53c-.33.35-.68.65-1.05.88-.14-.17-.48-.49-.7-.63-.65.32-1.3.65-1.85.92l-.4-1.08c.31-.12.68-.27,1.11-.44v-2.54h-.9v-1.01h.9v-1.77h.99v1.77h.85v1.01h-.85v2.12l.72-.32.19.77c.32-.28.6-.6.83-.95h-1.02v-.9h5.66v.9h-3.58Zm2.97-1.24h-4.26v-3.04h4.26v3.04Zm-.99-2.3h-2.32v.43h2.32v-.43Zm0,1.13h-2.32v.43h2.32v-.43Z"/>
          <path class="cls-2" d="m71.4,16.12v8.1h-1.17v-.48h-5.41v.48h-1.12v-8.1h7.7Zm-1.17,6.63v-5.53h-5.41v5.53h5.41Zm-.87-4.47v3.42h-3.67v-3.42h3.67Zm-1.08.94h-1.58v1.56h1.58v-1.56Z"/>
          <path class="cls-2" d="m73.36,19.4c.61-.19,2.14-.7,3.23-.7,1.42,0,2.38.85,2.38,2.21,0,1.63-1.43,2.74-4.29,2.92l-.48-1.11c2.06-.05,3.57-.6,3.57-1.83,0-.68-.5-1.14-1.29-1.14-1.04,0-2.85.75-3.61,1.07l-.47-1.17c.27-.05.68-.16.95-.24Z"/>
          <path class="cls-2" d="m80.08,17.21c.75-.06,2.23-.2,3.88-.34.93-.07,1.92-.13,2.55-.15v1.15c-.48,0-1.25,0-1.73.12-1.09.29-1.9,1.46-1.9,2.53,0,1.48,1.39,2.02,2.91,2.1l-.42,1.23c-1.88-.13-3.66-1.14-3.66-3.09,0-1.3.73-2.32,1.33-2.78-.85.09-2.68.29-3.73.51l-.12-1.23c.36,0,.71-.03.89-.04Z"/>
          <path class="cls-2" d="m31.12,28.78h1.57l2.14,6.67h-1.4l-.47-1.71h-2.16l-.47,1.71h-1.35l2.13-6.67Zm-.03,3.93h1.58l-.2-.73c-.21-.69-.39-1.46-.58-2.18h-.04c-.17.73-.37,1.49-.57,2.18l-.2.73Z"/>
          <path class="cls-2" d="m35.5,30.41h1.08l.1.68h.03c.42-.44.89-.8,1.55-.8.72,0,1.14.32,1.39.88.46-.49.95-.88,1.6-.88,1.07,0,1.57.76,1.57,2.03v3.14h-1.32v-2.98c0-.78-.22-1.05-.7-1.05-.29,0-.61.19-.97.57v3.47h-1.31v-2.98c0-.78-.23-1.05-.71-1.05-.29,0-.61.19-.96.57v3.47h-1.32v-5.04Z"/>
          <path class="cls-2" d="m43.93,34.08c0-1.08.87-1.65,2.91-1.86-.03-.5-.24-.87-.86-.87-.47,0-.92.21-1.39.48l-.48-.87c.59-.37,1.31-.67,2.11-.67,1.28,0,1.94.77,1.94,2.22v2.94h-1.08l-.09-.54h-.04c-.44.38-.95.67-1.52.67-.9,0-1.49-.64-1.49-1.49Zm2.91-.04v-1.02c-1.23.15-1.65.5-1.65.95,0,.4.28.57.67.57s.66-.18.98-.5Z"/>
          <path class="cls-2" d="m49.16,34.74l2.26-3.29h-2.01v-1.04h3.66v.71l-2.26,3.29h2.34v1.04h-3.99v-.71Z"/>
          <path class="cls-2" d="m53.67,32.93c0-1.67,1.16-2.65,2.42-2.65s2.42.97,2.42,2.65-1.16,2.65-2.42,2.65-2.42-.97-2.42-2.65Zm3.49,0c0-.95-.39-1.57-1.07-1.57s-1.07.62-1.07,1.57.39,1.57,1.07,1.57,1.07-.61,1.07-1.57Z"/>
          <path class="cls-2" d="m59.62,30.41h1.08l.1.67h.03c.44-.43.95-.79,1.64-.79,1.09,0,1.56.76,1.56,2.03v3.14h-1.32v-2.98c0-.78-.22-1.05-.71-1.05-.41,0-.68.2-1.04.57v3.47h-1.32v-5.04Z"/>
          <path class="cls-2" d="m72.23,29.26l-.45.2.19,1.05c-.2.02-.56.07-.83.11-.37.05-1.05.16-1.8.28.09.46.19.95.28,1.44.81-.14,1.55-.25,1.95-.33.35-.07.68-.15.92-.22l.24,1.19c-.24.02-.61.08-.95.14-.43.07-1.16.19-1.95.31.14.73.27,1.34.32,1.62.06.27.15.59.23.88l-1.3.23c-.04-.34-.07-.65-.13-.92-.05-.25-.15-.87-.3-1.63-.93.15-1.77.3-2.16.37-.39.07-.69.13-.9.18l-.25-1.2c.24,0,.65-.06.94-.1.41-.06,1.25-.2,2.17-.34-.1-.49-.19-.98-.28-1.44-.79.13-1.49.24-1.76.29-.29.05-.52.11-.83.19l-.24-1.24c.29-.02.56-.04.84-.06.32-.04,1.01-.14,1.78-.26-.07-.38-.14-.68-.16-.82-.05-.26-.12-.48-.18-.68l1.27-.21c.03.18.05.49.1.69.02.13.07.43.15.84.76-.13,1.44-.23,1.76-.3.16-.03.35-.07.51-.11-.18-.35-.41-.79-.62-1.09l.71-.3c.23.33.55.9.72,1.23Zm1.07-.41l-.71.32c-.19-.38-.48-.9-.73-1.24l.71-.3c.24.34.58.91.73,1.22Z"/>
          <path class="cls-2" d="m80.34,30.08c-.21.88-.6,2.28-1.35,3.28-.82,1.08-2.02,1.97-3.62,2.48l-.98-1.07c1.78-.42,2.8-1.21,3.53-2.12.59-.75.94-1.77,1.05-2.54h-4.2c-.41,0-.84.02-1.07.04v-1.27c.27.03.78.07,1.08.07h4.16c.18,0,.47,0,.71-.07l.88.57c-.08.18-.15.44-.2.63Z"/>
          <path class="cls-2" d="m82.84,29.41c0-.32-.03-.77-.09-1.08h1.4c-.04.31-.08.71-.08,1.08v1.33c1.21.35,2.93.99,3.76,1.4l-.51,1.24c-.93-.49-2.28-1.01-3.25-1.34v2.55c0,.26.04.89.08,1.26h-1.4c.05-.36.09-.9.09-1.26v-5.18Z"/>
          <path class="cls-2" d="m95.56,31.93c.48.51,1.05.94,1.71,1.22-.23.2-.55.6-.7.88-.38-.19-.73-.41-1.05-.68-.1,1.53-.22,2.22-.47,2.49-.21.23-.42.31-.71.34-.26.04-.7.04-1.17.02,0-.31-.13-.73-.31-1,.41.03.77.04.95.04.15,0,.23-.02.32-.1.13-.13.22-.55.29-1.49h-1.41c-.24,1.22-.84,2.1-2.8,2.6-.1-.27-.37-.7-.59-.92,1.58-.33,2.06-.9,2.27-1.68h-1.34v-.33c-.33.26-.7.5-1.11.7-.14-.25-.45-.67-.66-.87.68-.31,1.23-.73,1.7-1.22h-1.48v-.96h2.21c.14-.23.27-.47.39-.72h-2.02v-.95h.97c-.13-.32-.35-.73-.56-1.05l.89-.32c.29.39.58.92.7,1.27l-.29.11h.67c.16-.49.28-.99.37-1.49l1.13.19c-.1.44-.22.88-.35,1.31h1.25l-.13-.05c.23-.38.52-.95.68-1.38l1.06.31c-.22.4-.46.79-.66,1.11h1.24v.95h-2.08c.11.25.23.49.37.72h2.21v.96h-1.49Zm-.73.76c-.21-.23-.4-.49-.58-.76h-2.4c-.19.27-.39.52-.61.76h3.59Zm-2.06-2.44c-.1.24-.22.49-.33.72h1.28c-.11-.23-.21-.47-.3-.72h-.65Z"/>
          <path class="cls-2" d="m42.45,46.65l.62-.84c.4.39.88.68,1.49.68.68,0,1.13-.32,1.13-.88,0-.63-.39-1.02-1.84-1.02v-.95c1.22,0,1.62-.41,1.62-.96,0-.5-.32-.8-.89-.8-.48,0-.86.23-1.26.59l-.68-.81c.58-.5,1.22-.83,2-.83,1.29,0,2.16.63,2.16,1.75,0,.7-.41,1.19-1.11,1.47v.04c.75.2,1.32.75,1.32,1.6,0,1.19-1.07,1.88-2.34,1.88-1.05,0-1.76-.4-2.23-.93Z"/>
          <path class="cls-2" d="m47.99,48.64c.7-.26,1.09-.73,1.08-1.23h-.08c-.43,0-.83-.28-.83-.78,0-.48.39-.78.85-.78.61,0,.95.49.95,1.31,0,1.05-.61,1.85-1.7,2.21l-.28-.72Z"/>
          <path class="cls-2" d="m50.84,44.17c0-2.2.89-3.34,2.26-3.34s2.25,1.15,2.25,3.34-.88,3.4-2.25,3.4-2.26-1.2-2.26-3.4Zm3.26,0c0-1.8-.42-2.3-1-2.3s-1.01.5-1.01,2.3.43,2.37,1.01,2.37,1-.56,1-2.37Z"/>
          <path class="cls-2" d="m56.14,44.17c0-2.2.89-3.34,2.26-3.34s2.25,1.15,2.25,3.34-.88,3.4-2.25,3.4-2.26-1.2-2.26-3.4Zm3.26,0c0-1.8-.42-2.3-1-2.3s-1.01.5-1.01,2.3.43,2.37,1.01,2.37,1-.56,1-2.37Z"/>
          <path class="cls-2" d="m61.44,44.17c0-2.2.89-3.34,2.26-3.34s2.25,1.15,2.25,3.34-.88,3.4-2.25,3.4-2.26-1.2-2.26-3.4Zm3.26,0c0-1.8-.42-2.3-1-2.3s-1.01.5-1.01,2.3.43,2.37,1.01,2.37,1-.56,1-2.37Z"/>
          <path class="cls-2" d="m74.68,46.97c0,.58-.13.88-.5,1.05-.36.18-.9.2-1.7.2-.05-.3-.23-.79-.39-1.07.51.04,1.1.03,1.28.03.17,0,.23-.06.23-.22v-2.18h-5.44v3.44h-1.08v-7.83h7.6v6.58Zm-6.52-3.25h2.12v-2.27h-2.12v2.27Zm5.44,0v-2.27h-2.25v2.27h2.25Z"/>
          <path class="cls-2" d="m81.53,39.92c.57,1.14,1.69,2.45,2.67,3.21-.29.23-.7.66-.91.96-.19-.17-.38-.37-.58-.58v.06c-.1,2.72-.21,3.78-.52,4.16-.23.29-.47.38-.82.42-.31.04-.83.04-1.36.03-.02-.32-.16-.77-.35-1.08.5.04.96.05,1.19.05.16,0,.26-.02.36-.13.18-.19.28-.99.36-2.87h-1.77c-.23,1.73-.81,3.27-3.14,4.14-.14-.31-.45-.75-.71-.99,2.03-.66,2.5-1.84,2.68-3.15h-1.52v-.63c-.23.24-.48.46-.72.65-.2-.24-.66-.68-.92-.86,1.13-.76,2.12-2,2.66-3.37l1.15.33c-.44,1.04-1.07,2.03-1.78,2.84h4.86c-.71-.83-1.39-1.82-1.88-2.76l1.05-.42Z"/>
          <path class="cls-2" d="m52.71,56.14c0-2.2,1.42-3.48,3.2-3.48.96,0,1.63.41,2.06.86l-.7.85c-.33-.32-.71-.56-1.31-.56-1.11,0-1.88.86-1.88,2.3s.67,2.32,1.98,2.32c.31,0,.64-.09.83-.25v-1.31h-1.18v-1.09h2.37v3.01c-.45.44-1.23.8-2.16.8-1.81,0-3.2-1.21-3.2-3.43Z"/>
          <path class="cls-2" d="m59.49,52.78h4.09v1.12h-2.75v1.54h2.34v1.12h-2.34v1.78h2.85v1.12h-4.19v-6.67Z"/>
          <path class="cls-2" d="m66.35,53.89h-1.87v-1.12h5.1v1.12h-1.89v5.55h-1.33v-5.55Z"/>
          <path class="cls-2" d="m71.29,58.74c0-.48.34-.8.79-.8s.79.32.79.8-.34.79-.79.79-.79-.32-.79-.79Zm.09-4.68l-.05-1.34h1.49l-.05,1.34-.24,3.08h-.92l-.24-3.08Z"/>
        </g>
      </g>
    </g>
  </g>
</svg>