<?xml version="1.0" encoding="UTF-8"?>
<svg id="_レイヤー_2" data-name="レイヤー 2" xmlns="http://www.w3.org/2000/svg" viewBox="0 0 146.85 102.72">
  <defs>
    <style>
      .cls-1 {
        fill: #ffce7e;
      }

      .cls-2, .cls-3 {
        fill: #262626;
      }

      .cls-4 {
        fill: #678ca0;
      }

      .cls-5 {
        fill: #f08c65;
      }

      .cls-6, .cls-7 {
        fill: #fff;
      }

      .cls-8 {
        fill: #8ab3dd;
      }

      .cls-7, .cls-3 {
        fill-rule: evenodd;
      }

      .cls-9 {
        fill: none;
        stroke: #262626;
        stroke-linecap: round;
        stroke-linejoin: round;
      }

      .cls-10 {
        fill: #b58d7c;
      }

      .cls-11 {
        fill: #fffb99;
      }

      .cls-12 {
        fill: #ffddc0;
      }

      .cls-13 {
        fill: #ff866e;
      }

      .cls-14 {
        fill: #5c696f;
      }

      .cls-15 {
        fill: #b75555;
      }
    </style>
  </defs>
  <g id="illustration">
    <g>
      <g>
        <g>
          <path class="cls-6" d="m134.03,17.44c-.66-7.19-5.5-13.63-12.8-16-5.75-1.86-11.75-.77-16.35,2.43-4.59-3.22-10.57-4.33-16.32-2.5-7.29,2.32-12.16,8.72-12.88,15.88-7.37,2.57-12.6,9.64-12.46,17.87,0,0,0,.01,0,.02.08,6.61,3.63,12.4,8.93,15.64-.72,4.14-3.44,8.37-5.13,8.81,3.61.05,6.71-1.66,9.2-3.86,1.64,5.79,6.04,10.68,12.19,12.66,5.75,1.85,11.74.75,16.34-2.46,3.09,2.16,6.81,3.37,10.66,3.37,1.87,0,3.78-.29,5.67-.89,7.29-2.33,12.15-8.75,12.85-15.92,7.33-2.58,12.54-9.63,12.41-17.83-.12-7.96-5.24-14.68-12.31-17.21Z"/>
          <path class="cls-9" d="m134.03,17.44c-.66-7.19-5.5-13.63-12.8-16-5.75-1.86-11.75-.77-16.35,2.43-4.59-3.22-10.57-4.33-16.32-2.5-7.29,2.32-12.16,8.72-12.88,15.88-7.37,2.57-12.6,9.64-12.46,17.87,0,0,0,.01,0,.02.08,6.61,3.63,12.4,8.93,15.64-.72,4.14-3.44,8.37-5.13,8.81,3.61.05,6.71-1.66,9.2-3.86,1.64,5.79,6.04,10.68,12.19,12.66,5.75,1.85,11.74.75,16.34-2.46,3.09,2.16,6.81,3.37,10.66,3.37,1.87,0,3.78-.29,5.67-.89,7.29-2.33,12.15-8.75,12.85-15.92,7.33-2.58,12.54-9.63,12.41-17.83-.12-7.96-5.24-14.68-12.31-17.21Z"/>
        </g>
        <g>
          <path class="cls-2" d="m80.08,29.19h3.89v1.03h-3.89v-1.03Zm3.55,7.87h-2.04v.44h-1.07v-3.75h3.1v3.31Zm-.02-5.34h-3.05v-1h3.05v1Zm-3.05.51h3.05v.98h-3.05v-.98Zm3.03-3.52h-2.96v-.99h2.96v.99Zm-1.99,6.06v1.26h.96v-1.26h-.96Zm8.68-4.3v2.07h-1.22v-.98h-3.82v.98h-1.18v-2.07h1.32c-.07-.32-.18-.71-.3-1.01l.09-.02h-.97v-1.1h2.33v-.95h1.31v.95h2.32v1.1h-1.01l.19.04c-.16.35-.32.71-.45.99h1.39Zm-.35,4.97c0,.52-.08.84-.41,1.02s-.73.21-1.3.21c-.03-.35-.21-.82-.34-1.13.3,0,.62,0,.72,0,.11,0,.14-.03.14-.13v-1.5h-.96v3.74h-1.21v-3.74h-.86v2.67h-1.2v-3.81h2.06v-.95h1.21v.95h2.15v2.65Zm-3.63-6.01c.14.34.25.74.31,1.02h-.05s1.23.01,1.23.01l-.13-.03c.11-.29.24-.67.33-1h-1.69Z"/>
          <path class="cls-2" d="m98.17,29.18c-.03.14-.07.28-.1.42,1.73.4,2.87,1.79,2.87,3.72,0,2.33-1.66,3.66-3.95,4.02l-.84-1.28c2.41-.2,3.37-1.44,3.37-2.82,0-1.22-.68-2.13-1.78-2.43-.38,1.28-.87,2.54-1.5,3.5.2.23.4.46.6.66l-1.11.88c-.13-.14-.26-.29-.37-.43-.74.8-1.35,1.17-2.17,1.17-.91,0-1.75-.77-1.75-2.19,0-1.25.63-2.6,1.63-3.48-.11-.3-.2-.59-.3-.89-.12-.4-.24-.75-.44-1.14l1.44-.45c.07.36.15.73.24,1.06.05.21.12.44.2.67.84-.42,1.65-.63,2.5-.66.04-.19.08-.36.1-.53.05-.32.09-.79.09-1.04l1.52.14c-.09.3-.19.84-.25,1.11Zm-4.81,5.98c.4,0,.8-.34,1.21-.84-.35-.54-.7-1.29-1.02-2.11-.52.6-.81,1.38-.81,2.07,0,.54.23.88.63.88Zm2.05-2.04c.4-.71.73-1.56.98-2.38-.67.08-1.25.31-1.77.62.25.68.53,1.32.79,1.76Z"/>
          <path class="cls-2" d="m106.42,29.34c.54-.1,1.06-.22,1.49-.35l.04,1.28c-.51.13-1.19.28-1.93.38-.53,1.54-1.46,3.46-2.35,4.71l-1.33-.68c.87-1.08,1.76-2.7,2.24-3.88-.2.01-.39.01-.57.01-.45,0-.9-.01-1.38-.04l-.1-1.28c.47.05,1.06.08,1.46.08.33,0,.66,0,1-.04.15-.61.27-1.27.3-1.84l1.52.15c-.09.35-.23.91-.4,1.51Zm2.97,3.32c.01.32.04.85.07,1.4.95.35,1.72.9,2.28,1.41l-.74,1.18c-.39-.35-.88-.81-1.49-1.18v.11c0,1.02-.56,1.82-2.12,1.82-1.36,0-2.44-.61-2.44-1.82,0-1.08.9-1.9,2.43-1.9.26,0,.51.02.76.04-.04-.81-.1-1.79-.12-2.46h1.38c-.03.46-.01.92,0,1.41Zm-2.2,3.46c.76,0,.99-.42.99-1.02v-.22c-.29-.06-.58-.11-.89-.11-.64,0-1.04.29-1.04.67,0,.41.34.68.95.68Zm1.45-5.85l.7-1.09c.79.34,2.16,1.09,2.72,1.5l-.78,1.15c-.64-.51-1.89-1.22-2.64-1.56Z"/>
          <path class="cls-2" d="m118.48,29.52c-.71.57-2.17,1.69-2.9,2.32-.58.51-.57.63.02,1.14.82.69,2.92,2.34,4.04,3.43l-1.29,1.18c-.31-.34-.63-.69-.96-1.02-.67-.69-2.29-2.07-3.29-2.93-1.1-.94-1.01-1.52.09-2.44.87-.7,2.38-1.92,3.11-2.64.32-.32.67-.67.85-.94l1.29,1.13c-.34.26-.7.55-.96.76Z"/>
          <path class="cls-2" d="m121.63,29.07c.91-.08,2.73-.24,4.74-.42,1.13-.09,2.34-.17,3.11-.19v1.41c-.58.01-1.53.01-2.11.14-1.33.35-2.32,1.78-2.32,3.09,0,1.8,1.69,2.46,3.55,2.56l-.52,1.51c-2.3-.15-4.48-1.4-4.48-3.77,0-1.58.89-2.84,1.63-3.4-1.03.11-3.28.35-4.55.63l-.14-1.51c.44-.01.87-.03,1.09-.05Z"/>
          <path class="cls-2" d="m87.79,44.16c-.01.25-.01.52-.01.8.88-.01,2.17-.05,3.08-.17l.04,1.31c-.92.08-2.22.13-3.11.15.02.66.07,1.54.12,2.35,1.4.41,2.59,1.18,3.34,1.88l-.85,1.31c-.63-.63-1.45-1.28-2.43-1.73.01.14.01.28.01.38,0,.98-.5,1.9-2.34,1.9-1.57,0-2.86-.52-2.86-2.01,0-1.14.98-2.06,3-2.06.22,0,.44,0,.65.03-.03-.86-.08-1.79-.08-2.38,0-.67,0-1.32-.01-1.79-.02-.54-.05-1.01-.12-1.29h1.66c-.06.32-.09.86-.1,1.29Zm-2.25,6.87c.7,0,.96-.31.96-1.04,0-.1,0-.23-.01-.39-.29-.04-.59-.08-.9-.08-.86,0-1.38.3-1.38.77,0,.54.56.74,1.33.74Z"/>
          <path class="cls-2" d="m96.63,43.91c-.08.33-.15.74-.23,1.13.36-.02.69-.04.92-.04,1.17,0,1.99.52,1.99,2.1,0,1.3-.15,3.08-.63,4.04-.36.77-.98,1.01-1.8,1.01-.43,0-.95-.08-1.32-.15l-.24-1.45c.43.12,1.06.23,1.35.23.36,0,.65-.11.83-.47.3-.63.44-1.96.44-3.05,0-.88-.37-1-1.07-1-.18,0-.45.02-.76.04-.42,1.67-1.23,4.28-2.24,5.9l-1.43-.57c1.07-1.44,1.83-3.66,2.22-5.17-.4.04-.74.09-.95.11-.31.06-.89.13-1.22.19l-.13-1.5c.4.03.77.01,1.18,0,.34-.01.86-.04,1.42-.09.15-.84.24-1.64.23-2.33l1.64.16c-.07.29-.14.64-.2.91Zm5.92,4.21l-1.4.65c-.29-1.22-1.07-3.21-1.85-4.18l1.31-.56c.68.95,1.61,3.05,1.94,4.09Z"/>
          <path class="cls-2" d="m104.25,46.74c.75-.23,2.62-.86,3.95-.86,1.74,0,2.9,1.04,2.9,2.7,0,1.99-1.75,3.35-5.25,3.56l-.58-1.35c2.52-.06,4.37-.74,4.37-2.23,0-.83-.62-1.4-1.57-1.4-1.28,0-3.48.91-4.41,1.31l-.57-1.43c.33-.07.84-.2,1.17-.3Z"/>
          <path class="cls-2" d="m116.38,43.95c-.02.12-.05.26-.09.42.62-.09,1.23-.21,1.84-.35v1.38c-.66.15-1.41.27-2.14.36-.1.47-.21.96-.33,1.41-.4,1.54-1.13,3.78-1.75,5.09l-1.53-.52c.66-1.1,1.5-3.41,1.9-4.95.08-.3.16-.61.23-.92-.25,0-.5.02-.73.02-.53,0-.95-.02-1.33-.04l-.03-1.38c.56.07.94.09,1.39.09.32,0,.65-.01.99-.03.04-.24.08-.45.1-.63.04-.41.07-.86.03-1.11l1.68.13c-.09.3-.19.79-.23,1.04Zm1.32,5.97c0,.48.33.85,1.51.85.74,0,1.5-.09,2.29-.23l-.06,1.41c-.62.08-1.36.15-2.24.15-1.85,0-2.85-.64-2.85-1.75,0-.51.11-1.03.2-1.47l1.31.13c-.09.31-.15.67-.15.91Zm1.67-3.8c.63,0,1.29.03,1.94.1l-.03,1.32c-.55-.07-1.22-.13-1.89-.13-.75,0-1.43.03-2.12.11v-1.29c.62-.05,1.41-.11,2.11-.11Z"/>
          <path class="cls-2" d="m123.95,50.82c0-.58.42-.98.97-.98s.97.4.97.98-.42.97-.97.97-.97-.4-.97-.97Zm.11-5.72l-.05-1.64h1.83l-.05,1.64-.3,3.76h-1.12l-.3-3.76Z"/>
        </g>
        <g>
          <path class="cls-2" d="m91.15,17.35c-.5.82-1.4,1.94-2.39,2.74.4.4.81.85,1.08,1.18l-.82.65c-.29-.39-.88-1.05-1.34-1.51-.41-.41-1.12-1.04-1.54-1.35l.74-.6c.28.21.74.59,1.18.97.79-.63,1.45-1.44,1.78-2.02h-3.71c-.28,0-.66.04-.8.05v-.98c.18.03.57.06.8.06h3.89c.27,0,.5-.03.65-.08l.7.57c-.1.11-.18.2-.24.29Z"/>
          <path class="cls-2" d="m94.84,17.49c.72-.45,1.52-1.15,1.97-1.7l.76.72c-.53.53-1.21,1.07-1.88,1.52v2.83c0,.31.01.74.06.92h-1.11c.03-.17.05-.61.05-.92v-2.24c-.72.38-1.61.76-2.47,1.01l-.44-.88c1.25-.32,2.28-.78,3.06-1.25Z"/>
          <path class="cls-2" d="m98.94,20.82l-.76-.52c.47-.44,1.03-1.21,1.32-1.81l.8.37c-.32.62-.97,1.54-1.35,1.95Zm2.93-4.36v.56h1.62c.2,0,.5-.02.69-.05v.92c-.22-.01-.49-.02-.69-.02h-1.63v3.26c0,.41-.24.66-.74.66-.37,0-.78-.01-1.13-.06l-.09-.87c.3.06.61.08.78.08s.25-.07.25-.25c0-.26,0-2.48,0-2.81h0s-1.78,0-1.78,0c-.21,0-.48,0-.67.03v-.92c.21.02.46.05.67.05h1.78v-.56c0-.18-.03-.49-.06-.61h1.04c-.02.1-.06.43-.06.61Zm2.62,3.85l-.82.45c-.3-.6-.8-1.44-1.14-1.88l.76-.41c.36.45.92,1.33,1.2,1.84Z"/>
          <path class="cls-2" d="m106.48,18.26h3.76c.33,0,.64-.03.82-.04v1.1c-.17,0-.53-.04-.82-.04h-3.76c-.4,0-.87.01-1.13.04v-1.1c.25.02.76.04,1.13.04Z"/>
          <path class="cls-2" d="m114.61,16.96c-.22.69-.79,2.47-1.14,3.4.85-.08,1.85-.2,2.56-.28-.25-.5-.5-.97-.74-1.28l.88-.36c.5.76,1.21,2.13,1.53,2.91l-.95.42c-.09-.24-.2-.53-.34-.83-1.13.13-3.26.36-4.14.45-.18.02-.43.06-.66.08l-.16-1.02c.24,0,.54,0,.77,0,.06,0,.13,0,.19,0,.41-1.04,1.01-2.96,1.21-3.68.1-.36.14-.57.17-.81l1.11.23c-.09.21-.2.47-.3.78Z"/>
          <path class="cls-2" d="m120.95,16.55c.67-.04,1.37-.1,1.98-.2v.81c-.67.1-1.53.15-2.29.18-.12.26-.26.51-.4.71.18-.08.56-.14.79-.14.43,0,.78.18.93.54.36-.17.66-.29.95-.41.27-.12.52-.23.78-.36l.35.81c-.22.06-.59.2-.83.29-.32.13-.71.28-1.14.48,0,.39.02.91.03,1.23h-.84c.02-.21.03-.55.04-.85-.53.3-.81.57-.81.92,0,.38.33.49,1.02.49.59,0,1.37-.08,1.99-.2l-.03.9c-.46.06-1.32.12-1.98.12-1.1,0-1.91-.27-1.91-1.17s.84-1.46,1.64-1.87c-.11-.18-.29-.24-.49-.24-.39,0-.83.22-1.09.48-.21.21-.41.46-.65.77l-.75-.56c.74-.68,1.23-1.3,1.55-1.93h-.09c-.29,0-.8-.01-1.18-.04v-.82c.36.06.88.08,1.23.08h.34c.08-.28.13-.55.14-.8l.92.08c-.04.18-.08.41-.18.7Z"/>
        </g>
      </g>
      <g>
        <g>
          <g>
            <g>
              <path class="cls-14" d="m56.04,82.55c.28-.5.64-.95.91-1.46.28-.54.46-1.13.63-1.71.53-1.79,1.07-3.64.89-5.5-.09-.92-.31-1.28-.6-2.16-.37-1.12-1.09-1.81-1.77-2.78-.14-.2-.91-.69-1.07-.88-.65.95-.74,1.05-1.69,1.66-.6.39-1.24.72-1.88,1.05-.68.35-1.37.68-2.08.98-1.4.58-2.85.98-4.36,1.11-.04,0-.09,0-.14.01-.28.02-.58.03-.83-.08-.05-.02-.11-.05-.16-.09-.32-.23-.45-.65-.57-1-.18-.5-.39-1.02-.73-1.44-.29-.35-.66-.59-1.05-.81-.01,0-.03-.02-.04-.03,0,0-.02.02-.03.03-.08.08-.16.16-.22.24-.05.07-.06.09-.08.16,0,.03,0,.06,0,.08.04.09-.01.16-.08.18,0,.02-.01.04-.03.06-.12.13-.3.18-.46.22-.25.07-.51.1-.77.13-.51.06-1.02.1-1.53.16-.18.02-.36.05-.53.09-.33.09-.63.23-.94.37-.25.11-.5.21-.78.21-.34,0-.61-.17-.88-.36-.53-.37-1.03-.8-1.5-1.24-.71.4-1.49.66-2.26.9-.22.46-.48.92-.59,1.41-.05.21-.07.42-.05.63,0,.08.02.16.04.25.02.1-.06.18-.15.15-.52-.11-1.07-.2-1.59-.37.08.37.16.75.24,1.12.54,2.11,1.22,5,1.28,6.4,0,.19.02.37.03.55.01.06.02.13.03.19,0,.04.02.08.02.13h-.03s0,0,0,0c.02.16.03.32.04.48,1.67,1.33,5.24,3.86,8.89,4.46,5,.82,13.5,2.94,13.5,2.94l-1.87-.66c.32.08.65.16.97.23.17.04.36.08.52.04.16.16.29.29.39.39.53.54,2.07-.24,2.6-.53.8-.43,1.5-1.04,2.03-1.77.07-.09.13-.19.14-.3,0-.11-.04-.22-.09-.32-.56-1.19-1.14-2.38-1.74-3.55Z"/>
              <path class="cls-8" d="m42.81,70.14c.37.47.59,1.03.79,1.58.11.3.23.7.54.84.15.07.33.08.5.08.28,0,.56-.03.84-.07,1.49-.18,2.94-.65,4.31-1.26.69-.31,1.37-.65,2.03-1,.59-.32,1.18-.64,1.73-1.02.82-.56,1.61-1.24,2.17-2.07-.6-.62-1.32-1.11-2.15-1.34-.96-.26-1.99-.15-2.98-.04-.8.09-1.42.35-2.2.22-.11-.05-.28-.12-.48-.21-.06.04-.12.07-.18.1-.24.14-.5.27-.75.4-1.27.65-2.55,1.26-3.79,1.96-.51.29-1.03.59-1.49.95.41.23.8.5,1.1.87Z"/>
              <path class="cls-4" d="m69.38,89.55c-.15.12-.17-.03-.34-.21-.14-.14-.46-.33-.89-.55-.45-.18-.91-.35-1.26-.47-.36-.13-.64-.23-.79-.3l.07-.13c-.16-.07-.32-.14-.48-.21.11.14.23.27.34.4.19.23.36.47.46.76.19.54.42,1.15.34,1.73-.04.31-.15.6-.25.89-.09.28-.19.55-.33.81-.28.55-.73,1.03-1.18,1.45-.31.29-.66.64-1.08.76.13.24.23.45.31.62.09.18.17.32.26.44l.09-.07v.02c.1.15.21.31.32.47.03.02.05.04.08.07.13.11.36.1.63.02.09.18.19.36.29.52.98-.23,1.86-.86,2.4-1.71.1-.16.19-.32.27-.48.38-.73.74-1.48.94-2.28.13-.5.2-1.01.18-1.53,0-.19-.08-1.3-.4-1.04Z"/>
              <path class="cls-14" d="m33.91,69.64c.5.48,1.04.93,1.62,1.3.25.16.52.22.81.14.28-.07.53-.21.79-.33.43-.19.86-.27,1.32-.32.49-.05.98-.09,1.47-.15.21-.03.42-.06.63-.11.12-.03.26-.06.35-.16.01-.01.03-.02.04-.03-.05-.18.05-.36.18-.52.12-.14.27-.27.38-.35.49-.39,1.04-.71,1.59-1.02.67-.38,1.35-.73,2.03-1.07.62-.31,1.23-.62,1.85-.93.22-.11.44-.23.65-.35-2.16-.93-7.44-3.1-10.18-3.31-2.77-.22-3.82.77-4.32,2.14-.5,1.37.27,4.35.27,4.35,0,0,.19.19.51.51.05.05.09.09.14.15-.04.03-.09.05-.13.08Z"/>
              <g>
                <path class="cls-8" d="m53.72,53.33c-.22-1.46-.52-3.15-1.03-4.12-.08-.14-.16-.27-.24-.38-.09-.11-.19-.22-.29-.32,0,0-.01-.01-.02-.02,0,0-.01-.01-.02-.02-1.23-1.18-3.22-1.72-4.96-2.36-.09-.01-.18-.03-.28-.04-.14-.1-.28-.19-.42-.26-.4-.19-.78-.33-1.13-.46-.01.02-.02.04-.03.05-.02,0-.04-.02-.06-.02-.07.18-.15.35-.24.52-.12.2-.22.39-.32.57-.14.36-.3.71-.48,1.05-.28.5-.64.93-1.05,1.31-.45.55-.97,1.05-1.6,1.3-1.07.43-2.31.47-3.39.04-1-.4-1.72-1.2-2.24-2.12-.26-.47-.5-.96-.73-1.44-.15-.34-.3-.69-.39-1.05-.5.29-1.03.57-1.64.71,0,0-.02,0-.03,0,0,0-.02,0-.03.01-1.67.76-3.34,1.48-3.68,1.62-.58.35-1.09.76-1.47,1.26-.06.08-.12.18-.18.29.29.51.55,1.15.8,1.95.7,3.08,4.68,14.05,1.84,17.52,0,0,.02.01.03.02-.16.26-.29.54-.47.78-.21.28-.44.55-.68.81-.16.24-.33.49-.5.74,0,.05.03.11.04.16.09.27.18.54.27.81.02.06.04.12.08.17.07.08.19.1.3.12.44.07.88.2,1.29.38,0-.05,0-.11,0-.16-.02-.22,0-.43.05-.63.05-.54.14-1.07.33-1.57.17-.45.45-.87.81-1.18.43.05.87.07,1.29.07.21,0,.42,0,.62,0-.32-.32-.51-.51-.51-.51,0,0-.77-2.98-.27-4.35.5-1.37,1.56-2.35,4.32-2.14,2.74.21,8.02,2.38,10.18,3.31-.21.12-.43.24-.65.35-.61.32-1.23.62-1.85.93-.68.35-1.36.7-2.03,1.07-.55.31-1.1.63-1.59,1.02-.11.09-.26.21-.38.35.12,0,.24,0,.36,0,0,0,.02-.02.03-.03.02,0,.03.02.04.03.22,0,.44,0,.67,0,.15.14.34.31.57.55.74.74,1.13,2.14,1.27,2.78.25.11.56.1.83.08,1.16-.32,3.42-.87,5.26-1.59,3.13-1.23,4.81-2.88,5.42-4,.14-.25.22-.48.25-.66.23-1.34-2.1-13.3-2.1-13.3Z"/>
                <path class="cls-12" d="m43.27,44.22c-.5-.58-.54-2.33-.54-2.33,0,0,.7-.54,1.2-1.25.5-.71.76-1.62.76-1.62,0,0,.07,0,.18,0-.01-.26-.02-.68,0-1.03.03-.66.1-1.19-.14-1.97-.37-1.29-1.44-2.12-2.07-3.24-.47-.81-.69-1.53-1.33-1.67-.25-.06-.82.12-1.35.19-.58.07-1.18.04-1.53.25-.91.6-1.04,2.39-1.6,3.38-.76,1.36-1.81,1.91-1.81,1.91,0,0,.24.35.5.58.28.24.61.4.61.4,0,0,.08.93.27,1.62.22.69.59,1.2.59,1.2l.1.53s-.12,3.15-.74,3.5c-.05.06-.1.11-.16.13-.08.03-.16.06-.25.1-.15.08-.32.17-.5.26-.08.05-.17.1-.25.14.05.01.09.03.13.06.02.02.04.06.04.09,0,.03-.01.07-.04.09-.02.02-.06.04-.09.04-.03,0-.06-.01-.08-.03,0,0,0,0,0,0-.01,0-.02,0-.04,0-.03,0-.06,0-.09,0,.11.42.3.82.48,1.2.24.5.48,1.01.78,1.47.56.9,1.35,1.59,2.38,1.86,1.08.28,2.21.12,3.2-.39.45-.23.87-.52,1.25-.86.42-.38.78-.82,1.05-1.31.19-.34.34-.69.48-1.05.15-.4.29-.8.41-1.21-.75-.28-1.36-.51-1.82-1.03Z"/>
                <path class="cls-5" d="m35.48,45.16c.18-.09.35-.18.5-.26.16-.08.3-.16.41-.23.62-.35.74-3.5.74-3.5l-.1-.53s-.36-.51-.59-1.2c-.19-.69-.27-1.62-.27-1.62,0,0-.32-.16-.61-.4-.26-.24-.5-.58-.5-.58,0,0,1.05-.55,1.81-1.91.56-.99.69-2.78,1.6-3.38.34-.21.95-.19,1.53-.25.53-.07,1.1-.26,1.35-.19.64.14.86.86,1.33,1.67.63,1.12,1.69,1.95,2.07,3.24.24.78.17,1.32.14,1.97-.03.35-.02.77,0,1.03,0,.14.01.23.01.23l-.65,1.44-1.2,1.25s.05,1.25.45,2.33c.12.36,1.14.57,2.96,1.53.15.08.29.17.43.27.09.01.18.03.28.04.43.07.86.16,1.28.28.36.11.76.25,1.09.47-.3-.94-.84-1.88-1.15-2.91-.58-1.89-.36-4.36-.34-4.5.53-2.86-.08-7.34-.77-8.81-.61-1.26-2.69-3.29-4.29-3.77-1.3-.38-2.43.11-3.28.42-.55.21-1.01.24-1.3.26-.84.06-1.68.75-2.36,1.72-1.06,1.47-1.75,3.39-1.75,3.39,0,0-.75,1.77-1.45,3.54-.64,1.52-1.2,2.97-1.29,3.62-.18,1.15.32,2.54-.19,3.74-.42.98-1.04,1.35-1.7,1.98-.03.02-.29,2.38-.29,2.38,0,0,.02,0,.06-.03.34-.15,2.02-.87,3.68-1.62.86-.39,1.71-.79,2.37-1.12Z"/>
              </g>
              <path class="cls-12" d="m58.89,87.52c.01.73,2.4,1.33,2.66,1.68.82,1.06.56,1.7,1.62,3.31.39.57.82,1.11,1.23,1.64.06-.04.11-.09.16-.13,2.13-1.56,2.71-4.44.73-6.35-1.52-.65-3.04-1.31-3.59-1.74-1.17-.87-1.54-.91-2.56-1.24-.63-.2-1.65-.83-2.33-1.28.06.15.13.3.19.45.25.59.46,1.19.68,1.8.17.47.22.95.04,1.41.07-.08.13-.17.19-.25.34.28.67.51.97.72Z"/>
              <path class="cls-4" d="m64.41,94.14c-.41-.53-.84-1.07-1.23-1.64-1.06-1.6-.81-2.25-1.62-3.31-.26-.35-1.41-.86-2.35-1.28l.24,1.68c.08.16.17.31.26.46.51.81,1.17,1.51,1.8,2.22.71.8,1.39,1.65,1.66,2.71.25,1.01-.01,2.18-.88,2.81-.47.34-1.41.49-1.98.57l.59,1.48c.9,1.89,2.83,2.98,3.77,2.46.59-.36,1.96-2.49,1.33-5.42-.19-.9-.85-1.79-1.58-2.74Z"/>
              <path class="cls-12" d="m63.15,94.98c-.26-1.06-.95-1.91-1.66-2.71-.63-.71-1.29-1.41-1.8-2.22-.09-.15-.18-.31-.26-.46-.33-.65-.53-1.34-.54-2.08-.31-.21-.63-.44-.97-.72-.06.09-.12.17-.19.25-.38.46-.88.82-1.39,1.11-.39.22-.79.43-1.2.61-.26.11-.54.2-.81.32,1.27,1.47,2.66,3.23,3.62,4.86.6,1.03,1.44,2.81,2.25,4.45.16,0,.32-.02.48-.04.57-.07,1.13-.23,1.6-.57.87-.63,1.13-1.8.88-2.81Z"/>
              <path class="cls-12" d="m41.79,74.23c.49-.47,2.29-1.37,2.29-1.37l-.71-1.93-1-1.32s-1.09.45-2.18.7c-1.09.25-1.79.18-2.56.37-.72.17-1.36.5-1.99.86-.51-.46-1.06-.96-1.55-1.38-.43-.52-.92-1.27-1.51-.88-.65.42-1.09.94-1.46,1.59-.2.34-.4,1.03-.39,1.42,0,.33.16.65.32.94.23.45.47.9.7,1.35-.38.11-.79.26-1.07.44-.34.22-.42.61-.09.73.17.08.54.03.81,0,.41-.04.81-.09,1.17-.15.15.16.31.33.48.51-.08.02-.15.05-.21.06-.68.14-2.21.34-2.22.76-.01.42.37.51,1.19.47.13,0,.25-.01.38-.02.62.33,1.62.46,2.31.36.15.18.29.34.41.47-.13.11-.22.26,0,.45.07.06.22.07.41.04,1.19,1.45,2.24,2.87,2.55,2.8.52-.09.44-.47-1.05-2.54-.11-.14-.23-.34-.37-.56.19-.07.38-.15.55-.23.05.06.1.11.15.17.64.73,1.77,2.35,2.03,2.68.19.24.91,1.27,1.27,1,.11-.08.11-.26.04-.5l.14.29c.87.32.78-.43,0-2.09-.48-1.01-.19-.45-.19-.45.54.66.85,1.3,1.25,1.02.41-.24-.44-1.46-.73-1.9-.32-.55-.93-1.35-1.51-2.07.02-.01.03-.03.05-.04l.74.79c.12-.34-.03-.75-.29-1.2.39-.36,1.23-1.06,1.86-1.65Z"/>
            </g>
            <g>
              <path class="cls-2" d="m69.25,89.13c-.38-.39-1.64-.95-3.67-1.82-1.55-.67-3.16-1.36-3.71-1.78-1.06-.79-1.5-.93-2.29-1.17-.11-.03-.23-.07-.35-.11-.96-.31-2.94-1.71-2.96-1.72-.13-.09-.32-.06-.41.07-.09.13-.06.32.07.41.08.06,2.07,1.47,3.12,1.81.13.04.25.08.36.11.75.23,1.13.35,2.11,1.08.6.47,2.17,1.14,3.83,1.86,1.48.63,3.15,1.35,3.47,1.68.53.55-.27,3.18-1.03,4.46-.53.84-1.54,1.58-2.19,1.78.06.19.12.37.18.56.78-.25,1.91-1.06,2.51-2.03.65-1.09,1.88-4.22.95-5.18Z"/>
              <path class="cls-2" d="m70.12,89.66c-.21-.66-1.52-1.17-3.08-1.73-.33-.12-.62-.22-.74-.28-.15-.07-.32-.01-.39.13-.07.15-.01.32.13.4.15.08.44.18.81.31.77.27,2.58.91,2.72,1.35.3.96-.59,3.44-1.32,4.59-.45.74-1.48,1.78-2.42,1.9.1.17.19.36.25.55,1.14-.24,2.2-1.37,2.67-2.14.69-1.1,1.78-3.81,1.38-5.08Z"/>
              <path class="cls-2" d="m67.06,89.89c-.06-1.11-1.06-2.28-2.68-3.11-.14-.07-.32-.02-.4.13-.07.14-.02.32.13.4,1.68.87,2.32,1.92,2.36,2.62.08,1.18-1.13,3.16-2.06,3.73-.06.03-.14.08-.22.11.06.08.12.16.18.23.06.08.14.16.21.24.05-.02.09-.05.14-.07,1.11-.67,2.44-2.87,2.34-4.27Z"/>
              <g>
                <path class="cls-2" d="m39.32,78.91c-.36-.53-.77-1.08-1.14-1.57-.14.14-.28.28-.42.42.36.47.74.99,1.07,1.48,1.15,1.71,1.38,2.31,1.4,2.53-.11-.06-.33-.25-.77-.81l-.08-.1c-.09-.1-.28-.37-.51-.68-.46-.64-1.1-1.51-1.54-2.01l-.03-.03c-.16.12-.33.23-.5.33l.09.1c.42.47,1.04,1.33,1.5,1.96.24.33.43.59.52.71l.07.09c.3.4.82,1.08,1.31,1.08.1,0,.21-.03.31-.1.49-.36.17-1.21-1.29-3.37Z"/>
                <path class="cls-2" d="m31.42,74.59c.19-.06.38-.13.57-.19-.13-.22-.23-.44-.35-.71-.14-.31-.3-.67-.56-1.14-.08-.14-.26-.2-.4-.12-.14.08-.2.26-.12.4.25.45.4.8.54,1.1.11.23.2.44.31.65Z"/>
                <path class="cls-2" d="m34.84,78.48s0-.02.01-.03c.06-.16.15-.29.26-.41-.05-.06-.11-.13-.17-.2-.22.06-.44.1-.66.13.22.26.41.48.54.64,0-.04,0-.09.02-.13Z"/>
                <path class="cls-2" d="m37.04,78.81c-.08-.1-.15-.2-.22-.3-.17.12-.35.21-.55.25.09.12.18.25.29.4.31.43,1.23,1.71,1.28,2.07-.26-.14-.99-1.05-1.59-1.79-.19-.24-.39-.49-.6-.74-.16.09-.34.17-.53.18-.03,0-.06,0-.09,0,.26.32.52.63.76.93,1.19,1.48,1.64,2.02,2.01,2.02.03,0,.06,0,.09-.01.1-.02.38-.07.5-.34.16-.39-.13-.96-1.36-2.67Z"/>
                <path class="cls-2" d="m37.8,81.23s-.01,0-.02,0c0,0,.01,0,.02,0Z"/>
                <path class="cls-2" d="m40.88,79.61c-.49-1.04-1.16-2.02-1.83-2.9-.14.14-.28.28-.43.41.64.83,1.27,1.76,1.73,2.74.59,1.25.61,1.64.6,1.74-.03,0-.1-.01-.22-.06-.15-.06-.32.02-.38.17-.06.15.02.32.17.38.16.06.31.09.44.09.18,0,.32-.06.42-.17.31-.33.17-1.01-.5-2.41Z"/>
                <path class="cls-2" d="m41.26,78.35l-.06-.09c-.34-.59-.99-1.43-1.59-2.17-.03.03-.07.06-.1.09-.09.07-.18.14-.27.21-.03.02-.07.04-.1.07.59.73,1.23,1.56,1.56,2.12l.07.11c.61.91.73,1.27.72,1.4-.11-.02-.35-.34-.51-.55-.1-.13-.21-.28-.32-.42-.1-.13-.29-.14-.42-.04-.13.1-.14.29-.04.42.11.14.21.27.31.4.29.38.6.8.98.8.11,0,.22-.04.34-.12.12-.07.2-.19.24-.33.1-.46-.34-1.18-.8-1.88Z"/>
                <path class="cls-2" d="m40.12,75.64c-.08.09-.15.18-.24.26-.06.06-.13.11-.19.16.21.37.34.7.25.92-.06.15.02.32.17.38.03.01.07.02.1.02.12,0,.23-.07.28-.19.17-.47-.04-.99-.37-1.54Z"/>
                <path class="cls-2" d="m35.77,71.26s-.06-.05-.08-.08c-1.06-.95-2.15-1.94-2.7-2.26-.14-.08-.32-.03-.4.11-.08.14-.03.32.11.4.48.27,1.53,1.22,2.48,2.08.2-.08.4-.16.6-.26Z"/>
              </g>
              <path class="cls-2" d="m41.24,70.05c-.15,0-.28-.11-.29-.26-.01-.14-.03-.32,0-.5.06-.26.32-.54.67-.55.17,0,.3.13.3.29,0,.16-.13.3-.29.3-.05,0-.09.06-.1.09-.02.09,0,.2,0,.31.02.16-.1.31-.26.32-.01,0-.02,0-.03,0Z"/>
              <path class="cls-2" d="m41.32,69.2c-.09.13-.21.48-.11.64.1.15.46.07.6-.06.39-.36-.34-.8-.49-.57Z"/>
              <path class="cls-2" d="m33.38,69.47s-.08,0-.11-.02c-1.07-.45-2.29-.93-2.49-.97-.15,0-.28-.13-.28-.29,0-.16.13-.3.29-.3.07,0,.27,0,2.71,1.01.15.06.22.24.16.39-.05.11-.16.18-.27.18Zm-2.6-.99s.01,0,.02,0c0,0-.01,0-.02,0Z"/>
              <path class="cls-2" d="m31.05,73.62c-.2,0-.4-.12-.51-.32-.09-.17-.1-.34-.11-.49-.02-.96.19-1.83.6-2.51.5-.82,1.3-1.38,2.16-1.5.16-.02.31.09.33.25.02.16-.09.31-.25.33-.68.1-1.33.55-1.73,1.22-.36.59-.54,1.35-.52,2.19,0,.08,0,.17.03.22.15-.01.29.08.33.23.04.16-.06.32-.21.36-.04.01-.08.02-.12.02Z"/>
              <path class="cls-2" d="m30.92,73.56s-.04,0-.06,0c-.22-.04-.4-.15-.56-.24l-.05-.03c-.67-.38-1.39-.64-2.15-.77-.16-.03-.27-.18-.24-.34.03-.16.18-.27.34-.24.82.15,1.61.43,2.33.84l.05.03c.14.08.27.15.39.18.16.03.26.19.23.35-.03.14-.15.24-.29.24Z"/>
              <path class="cls-3" d="m42.22,36.37c.04-.28.27-.48.49-.45.23.03.39.28.36.56-.04.28-.27.48-.49.45-.23-.03-.39-.28-.36-.57Z"/>
              <path class="cls-2" d="m45.94,40.61s-.08,0-.12-.03c-1.49-.69-1.53-2.01-1.45-3.19.09-1.29-.3-2-.6-2.43-.16-.23-.36-.44-.58-.66-.3-.3-.6-.61-.8-.99-.17-.31-.29-.6-.4-.86-.13-.31-.24-.58-.39-.76-.27-.36-.57-.53-1.13-.21-.14.08-.32.03-.4-.11-.08-.14-.03-.32.11-.4.75-.42,1.38-.3,1.89.37.19.25.31.54.46.89.1.25.22.52.38.81.16.31.42.57.7.85.23.23.47.47.65.74.35.49.81,1.32.7,2.8-.09,1.29.06,2.13,1.11,2.61.15.07.21.24.14.39-.05.11-.16.17-.27.17Z"/>
              <path class="cls-2" d="m40,50.76s-.06,0-.08,0c-3.75-.09-5.28-4.92-5.34-5.12-.05-.16.04-.32.2-.37.16-.05.32.04.37.2.01.05,1.47,4.63,4.79,4.7.02,0,.05,0,.07,0,3.13,0,4.84-4.88,4.86-4.93.05-.15.22-.24.37-.18.15.05.24.22.18.37-.07.22-1.86,5.33-5.41,5.33Z"/>
              <path class="cls-2" d="m49.47,65.51c-.16,0-.3-.13-.3-.3,0-.01,0-1.48.12-3.09.11-1.48-.49-4.43-.96-6.06-.44-1.52.26-3.96.29-4.06.05-.16.21-.25.37-.2.16.05.25.21.2.37,0,.02-.68,2.38-.29,3.73.45,1.55,1.11,4.63.98,6.27-.12,1.58-.12,3.03-.12,3.04,0,.16-.13.3-.3.3h0Z"/>
              <path class="cls-2" d="m31.94,68.6c-.15,0-.27-.11-.29-.26,0-.04-.58-4.43-.85-5.94-.18-1-.03-2.41.12-3.78.08-.77.16-1.51.17-2.06,0-1.46-.82-3.57-.83-3.59-.06-.15.01-.32.17-.38.15-.06.32.01.38.17.04.09.88,2.23.87,3.81,0,.59-.08,1.33-.17,2.12-.14,1.26-.29,2.69-.13,3.61.27,1.52.85,5.92.85,5.96.02.16-.09.31-.25.33-.01,0-.03,0-.04,0Z"/>
              <path class="cls-2" d="m56.1,82.77c-.07,0-.14-.03-.2-.08-.12-.11-.13-.3-.02-.42.02-.02,1.71-1.93,2.24-6.22.52-4.28-2.85-7.48-3-7.62-.12-.07-.18-.21-.14-.35.05-.16.21-.24.37-.19.22.07,3.91,3.62,3.35,8.22-.55,4.5-2.31,6.47-2.39,6.55-.06.06-.14.1-.22.1Z"/>
              <path class="cls-2" d="m53.1,89.33s-.05,0-.07,0c-.08-.02-8.55-2.13-13.48-2.94-5.04-.83-8.88-4.55-9.05-4.71-.12-.11-.12-.3,0-.42.11-.12.3-.12.42,0,.04.04,3.88,3.75,8.73,4.55,4.96.81,13.44,2.92,13.53,2.94.16.04.25.2.21.36-.03.13-.15.22-.29.22Z"/>
              <path class="cls-2" d="m39.87,30.37c-.16,0-.29-.13-.29-.29v-.1c0-.29-.01-.57-.42-1.15-.09-.13-.06-.32.07-.41.13-.09.32-.06.41.07.51.73.52,1.15.52,1.48v.09c0,.16-.12.3-.28.3,0,0,0,0,0,0Z"/>
              <path class="cls-2" d="m34.28,37.35c-.12,0-.24-.08-.28-.2-.05-.15.03-.32.18-.37.41-.14.85-.42,1.31-.82.61-.54,1.06-1.29,1.31-2.17.36-1.36,1.02-3.12,2.54-2.76.16.04.26.2.22.36-.04.16-.2.26-.36.22-.48-.12-1.2,0-1.83,2.34-.28.99-.8,1.84-1.49,2.46-.52.45-1.03.77-1.51.93-.03.01-.06.02-.1.02Z"/>
              <path class="cls-2" d="m34.04,33.32s-.06,0-.09-.01c-.16-.05-.24-.22-.19-.37,1.23-3.8,2.86-5.67,4.98-5.7.17,0,.3.13.3.29,0,.16-.13.3-.29.3-1.84.03-3.29,1.76-4.43,5.29-.04.12-.16.2-.28.2Z"/>
              <path class="cls-2" d="m49.32,46.98c-.12,0-.24-.08-.28-.2-.14-.44-.33-.85-.52-1.28-.31-.67-.62-1.37-.81-2.26-.35-1.7-.23-2.83-.12-3.91.03-.28.06-.57.08-.86.07-1.02.07-3.27-.17-5.08-.26-1.87-.81-3.81-2.99-5.33-1.17-.81-3.36-1.48-4.39-.6-.12.11-.31.09-.42-.03-.11-.12-.09-.31.03-.42,1.32-1.12,3.83-.33,5.11.56,2.37,1.66,2.96,3.83,3.23,5.74.26,1.96.25,4.23.17,5.2-.02.3-.05.59-.08.88-.11,1.04-.23,2.12.11,3.73.17.83.48,1.49.77,2.14.2.43.4.87.55,1.34.05.16-.04.32-.19.37-.03,0-.06.01-.09.01Z"/>
              <path class="cls-2" d="m33.56,33.94c-.15-.06-.32.01-.38.17-.21.52-.43,1.04-.65,1.55-.82,1.91-1.6,3.72-1.42,5.53.19,1.88-.34,2.55-.63,2.91-.04.04-.07.08-.08.11-.36.44-1.18,2.4-1.58,3.44-.17.21-.25.58-.27.69.09-.06.18-.12.27-.18.2-.13.41-.26.62-.38,0-.02-.01-.04-.02-.05.43-1.09,1.17-2.81,1.45-3.15.02-.03.05-.06.08-.1.31-.39.97-1.22.76-3.33-.16-1.66.58-3.4,1.38-5.24.22-.51.45-1.04.66-1.57.06-.15-.01-.32-.17-.38Z"/>
              <path class="cls-2" d="m37.34,41.17c-.01-.16-.16-.28-.32-.27-.16.01-.28.16-.27.32,0,.02.14,1.68,0,2.42-.18.89-1.52,1.44-2.93,2.03l-.44.18c-.4.17-.81.33-1.24.5-1.68.65-3.41,1.32-4.41,2.63-.02.02-.03.05-.05.07.13.17.25.36.36.54.05-.09.1-.18.16-.26.9-1.17,2.55-1.81,4.15-2.43.42-.16.85-.33,1.26-.5l.44-.18c1.56-.65,3.04-1.26,3.28-2.46.16-.83.02-2.52.02-2.59Z"/>
              <path class="cls-2" d="m35.73,36.8c-.11,0-.21-.06-.26-.16l-.11-.22c-.08-.14-.02-.32.12-.4.14-.08.32-.02.4.12l.11.22c.08.14.02.32-.12.4-.04.02-.09.03-.14.03Z"/>
              <path class="cls-2" d="m40.43,38.84c-.08,0-.16-.03-.22-.1-.11-.12-.1-.31.03-.42.25-.22.26-.31.26-.31,0-.02-.07-.1-.11-.14-.13-.15-.32-.35-.35-.69-.1-.78.61-1.83.62-1.84.09-.13.28-.17.41-.08.13.09.17.28.08.41-.18.27-.57,1.01-.52,1.45.01.14.08.23.2.36.12.14.28.31.26.57-.01.23-.16.45-.46.72-.06.05-.13.07-.2.07Z"/>
              <path class="cls-2" d="m40.6,40.5c-.8,0-1.61-.31-2.02-.78-.11-.12-.1-.31.03-.42.12-.11.31-.1.42.03.48.55,1.79.81,2.53.34.14-.09.32-.05.41.09.09.14.05.32-.09.41-.36.23-.81.34-1.27.34Z"/>
              <path class="cls-2" d="m39.46,34.08c-.05,0-.1-.01-.15-.04-.59-.35-1.09-.1-1.11-.09-.14.07-.32.02-.4-.13-.07-.14-.02-.32.12-.4.03-.02.81-.42,1.68.11.14.08.19.26.1.4-.06.09-.15.14-.25.14Z"/>
              <path class="cls-2" d="m43.69,34.7c-.07,0-.14-.03-.2-.08-.02-.02-.44-.38-1.09-.18-.16.05-.32-.04-.37-.19-.05-.16.04-.32.19-.37.99-.31,1.64.28,1.67.31.12.11.12.3.01.42-.06.06-.14.09-.22.09Z"/>
              <path class="cls-3" d="m36.91,41s1.48,1.61,2.94,1.83c1.13.18,2.91-.9,2.91-.9,0,0-1.9,1.73-3.43,1.75-1.33.02-2.28-1.13-2.28-1.13l-.14-1.55Z"/>
              <path class="cls-2" d="m39.79,43.15s-.03,0-.05,0c-.04,0-1.06-.18-2.36-1.35-.89-.78-1.14-1.52-1.29-1.96v-.03c-.23-.63-.36-1.44-.44-2.55-.01-.16.11-.3.27-.32.16-.01.3.11.32.27.07,1.05.2,1.82.4,2.4v.03c.15.41.36,1.03,1.13,1.71,1.17,1.04,2.06,1.2,2.07,1.21.16.03.27.18.24.34-.02.14-.15.25-.29.25Z"/>
              <path class="cls-2" d="m39.95,43.16c-.1,0-.16,0-.17,0-.16-.02-.28-.17-.25-.33.02-.16.17-.27.33-.25.02,0,.78.08,2.16-.58,1-.49,1.49-1.09,1.69-1.4.31-.43.56-1.02.8-1.59l.55.23c-.26.61-.52,1.23-.86,1.7-.23.35-.79,1.05-1.92,1.6-1.2.57-2,.64-2.33.64Z"/>
              <path class="cls-2" d="m35.9,38.11s-.04,0-.07,0c-.39-.09-.92-.47-1.2-1.11-.07-.15,0-.32.15-.39.15-.07.32,0,.39.15.21.48.59.72.79.77.16.04.26.19.22.35-.03.14-.15.23-.29.23Z"/>
              <path class="cls-3" d="m38.07,35.81c.04-.28.24-.49.49-.45.23.03.39.28.36.57-.04.28-.27.48-.49.45-.25-.03-.39-.28-.36-.57Z"/>
              <path class="cls-2" d="m58.9,87.99c-.06,0-.12-.02-.17-.05-.39-.27-.56-.45-.7-.62-.09-.1-.17-.19-.3-.3-.13-.1-.14-.29-.04-.42.1-.13.29-.14.42-.04.17.14.27.25.36.36.14.15.26.3.6.52.13.09.17.28.08.41-.06.08-.15.13-.24.13Z"/>
              <path class="cls-2" d="m60.19,98.7c-.11,0-.22-.06-.27-.17-.15-.31-.3-.62-.46-.93-.67-1.37-1.3-2.67-1.78-3.5-1.85-3.13-2.52-3.83-3.46-4.71-.12-.11-.12-.3-.01-.42.11-.12.3-.12.42-.01.97.91,1.66,1.63,3.56,4.84.49.85,1.13,2.16,1.81,3.54.12.25.25.5.37.76.75-.06,1.3-.24,1.73-.55.81-.59.97-1.68.77-2.5-.25-1.02-.95-1.87-1.59-2.58l-.25-.28c-.56-.62-1.13-1.26-1.59-1.98-.55-.87-.83-1.77-.85-2.69,0-.16.13-.3.29-.3.16,0,.3.13.3.29.01.81.27,1.61.76,2.39.43.68.99,1.3,1.53,1.91l.25.28c.68.77,1.44,1.69,1.72,2.83.3,1.21-.1,2.47-1,3.12-.73.53-1.63.64-2.24.67,0,0-.01,0-.02,0Z"/>
              <path class="cls-2" d="m63.76,102.01c-.18,0-.36-.03-.57-.09-1.08-.31-2.26-1.37-2.65-2.13-.16-.32-.33-.66-.5-1.01-.04-.09-.04-.19,0-.28.05-.09.14-.14.23-.15.67-.05,1.19-.17,1.63-.4.79-.41,1.29-1.25,1.29-2.21,0-1.52-1.06-2.7-2.08-3.83-.37-.41-.75-.84-1.08-1.27-.46-.62-1.24-1.84-1.33-3.11,0-.11.05-.22.15-.27.1-.06.22-.05.31.01.14.09.28.18.42.26.46.28.94.56,1.24,1.13.1.2.2.4.3.61.34.69.7,1.41,1.31,2.21l.33.43c1.7,2.24,2.91,3.89,2.99,4.72.31,3.03-.64,4.77-1.35,5.21-.19.12-.41.17-.66.17Zm-3-3.11c.11.21.21.42.31.62.33.65,1.38,1.57,2.28,1.83.22.06.53.11.75-.02.38-.23,1.38-1.58,1.07-4.65-.07-.73-1.69-2.86-2.87-4.42l-.32-.43c-.65-.84-1.02-1.59-1.37-2.31-.1-.2-.2-.4-.3-.59-.2-.38-.52-.6-.9-.82.18.69.56,1.45,1.11,2.19.31.41.66.81,1.04,1.23,1.1,1.22,2.24,2.48,2.23,4.23,0,1.18-.62,2.23-1.61,2.74-.41.21-.87.35-1.42.42Z"/>
              <path class="cls-2" d="m66.27,96.82c-.23-1.05-1.01-2.05-1.84-3.12-.34-.44-.7-.89-1.01-1.36-.53-.79-.72-1.35-.89-1.84-.17-.48-.32-.94-.75-1.48-.24-.33-.69-.56-1.35-.86.05.1.11.2.16.3.09.16.17.33.26.49.02.04.04.07.06.11.18.11.32.21.39.32.37.47.5.85.66,1.32.18.52.38,1.11.95,1.97.33.48.69.94,1.04,1.39.79,1.01,1.53,1.97,1.73,2.88.62,2.89-.77,4.84-1.19,5.1-.22.12-.55.12-.93,0-.78-.25-1.84-1.07-2.44-2.33-.07-.15-.25-.21-.39-.14-.15.07-.21.25-.14.39.6,1.25,1.69,2.29,2.79,2.64.24.08.48.12.69.12.26,0,.5-.06.71-.17.7-.43,2.12-2.69,1.47-5.73Z"/>
              <path class="cls-2" d="m60.65,98.8c-.06,0-.12,0-.17,0-.16-.01-.28-.15-.27-.32.01-.16.15-.28.32-.27.68.05,1.44-.31,1.99-.93.53-.6.76-1.31.63-1.96-.2-1.02-.95-1.92-1.82-2.96-1.06-1.27-2.25-2.71-2.71-4.72-.04-.16.06-.32.22-.35.16-.04.32.06.35.22.43,1.88,1.58,3.26,2.59,4.48.88,1.06,1.71,2.06,1.95,3.23.16.83-.12,1.73-.77,2.46-.63.72-1.49,1.13-2.31,1.13Z"/>
              <path class="cls-2" d="m36.01,71.13c-1.16-1.18-2.1-2.12-2.35-2.38-.11-.47-.68-2.94-.25-4.1.4-1.09,1.18-2.17,4.02-1.95,3.41.27,10.2,3.33,10.26,3.36.15.07.32,0,.39-.15.07-.15,0-.32-.15-.39-.28-.13-6.95-3.14-10.46-3.41-2.5-.2-3.97.55-4.62,2.33-.53,1.44.22,4.4.26,4.52.01.05.04.1.08.13.03.03,1.02,1.03,2.31,2.34.17-.11.34-.22.52-.32Z"/>
              <path class="cls-2" d="m58.05,85.98c-2.35-5.05-4.74-9.16-7.3-12.58-.44-.6-.93-1.18-1.45-1.74-.11-.12-.3-.13-.42-.02-.12.11-.13.3-.02.42.5.54.98,1.11,1.41,1.69,2.53,3.39,4.9,7.47,7.24,12.48.03.05.06.14.06.17,0,.04-.06.12-.09.16-.49.69-1.16,1.27-1.93,1.69-1.36.74-2.06.77-2.25.58-1.09-1.1-10.68-10.79-11.31-11.53-.18-.21-.81-.87-1.66-1.74-.17.11-.33.23-.49.34.87.9,1.53,1.58,1.71,1.79.64.75,10.25,10.46,11.34,11.56.18.18.43.27.76.27.54,0,1.27-.25,2.19-.75.85-.46,1.58-1.1,2.13-1.86.06-.09.18-.25.2-.45.01-.19-.06-.35-.11-.47Z"/>
              <path class="cls-2" d="m44.08,68c-.05,0-.11-.01-.16-.05-2.27-1.45-4.06-2.11-4.08-2.11-.15-.06-.23-.23-.18-.38.06-.15.22-.23.38-.18.07.03,1.86.68,4.19,2.17.14.09.18.27.09.41-.06.09-.15.14-.25.14Z"/>
              <g>
                <path class="cls-2" d="m32.99,74.11c-.44,0-.78-.11-.91-.37-.08-.16-.1-.34-.04-.51.1-.28.41-.51.98-.74.59-.2,1.17-.42,1.96-.89.8-.48,1.62-.97,2.58-1.19.38-.1.74-.13,1.13-.16.43-.04.87-.08,1.43-.21,1.05-.25,2.12-.68,2.13-.69.15-.06.32,0,.39.16.06.15,0,.32-.16.39-.05.02-1.12.46-2.22.72-.6.14-1.08.18-1.51.22-.38.03-.7.06-1.04.15-.88.21-1.62.65-2.42,1.12-.84.5-1.45.73-2.06.94-.55.22-.63.37-.64.39,0,0,0,0,0,.03.11.07.68.14,1.65-.18.16-.05.32.03.37.19.05.15-.03.32-.19.37-.49.16-1.01.27-1.44.27Z"/>
                <path class="cls-2" d="m31.47,77.71c-.43,0-.76-.06-.96-.26-.13-.13-.2-.31-.19-.52.02-.55.88-.75,2.09-.97.14-.03.27-.05.37-.07.06-.01.12-.03.19-.05-.44.09-.96.16-1.55.22h-.12c-.36.05-.64.06-.84-.03-.21-.08-.36-.26-.38-.49-.03-.28.14-.57.43-.76.39-.25,1.03-.47,1.95-.68.36-.08.78-.28,1.14-.45l.18-.08c.46-.23.87-.56,1.35-.95.28-.23.57-.46.91-.71.13-.1.32-.07.41.07.1.13.07.32-.07.41-.33.24-.62.47-.89.69-.51.41-.95.76-1.47,1.02l-.18.09c-.39.18-.84.39-1.26.49-1.06.23-1.55.45-1.77.6-.13.08-.17.17-.17.2,0,0,0,0,.02,0,.09.04.4,0,.55,0h.13c1.11-.12,1.98-.29,2.51-.5.07-.02.18-.08.32-.14.95-.42,1.26-.52,1.48-.37.1.07.15.18.14.3-.07.58-2.51,1.62-2.92,1.7-.11.02-.24.05-.38.07-.39.07-1.41.26-1.6.44,0,.02,0,.04.02.05.05.04.22.11.87.08.13,0,.27-.01.4-.02.65-.03,1.27-.06,1.65-.22.24-.11,2.08-1.01,2.33-1.21.13-.1.31-.08.41.05.1.13.08.31-.05.41-.34.26-2.3,1.21-2.46,1.28-.48.2-1.15.23-1.86.26-.13,0-.26.01-.39.02-.12,0-.24.01-.35.01Z"/>
                <path class="cls-2" d="m35.14,79.02c-.19,0-.35-.04-.45-.12-.21-.19-.24-.38-.23-.51.02-.16.11-.29.21-.38-.04,0-.07.02-.1.02-.81.13-1.92-.04-2.58-.41-.14-.08-.19-.26-.12-.4.08-.14.26-.19.4-.12.54.3,1.52.45,2.2.34.3-.05.94-.33,1.52-.58,1.02-.44,1.44-.61,1.68-.54.12.03.21.13.23.25.02.1.06.41-1.12,1.02-.25.14-.62.3-.94.45-.25.11-.5.22-.59.28,0,0-.03.02-.05.03-.06.03-.1.06-.13.08.36.03,1.66-.39,2.15-.73.55-.39,1.87-1.47,2.48-2.04.17-.16.42-.38.71-.63.37-.32.79-.68,1.14-1.01.78-.75,1.45-1.15,2.4-1.44.16-.05.32.04.37.2.05.16-.04.32-.2.37-.86.26-1.45.61-2.17,1.3-.36.34-.79.71-1.16,1.03-.29.25-.54.46-.7.61-.64.6-1.97,1.69-2.55,2.1-.38.27-1.68.83-2.44.83Z"/>
              </g>
              <path class="cls-2" d="m44.35,73.32c-.1,0-.21-.03-.3-.08-.14-.08-.25-.22-.29-.39-.13-.56-.5-1.93-1.19-2.63-.58-.58-.86-.79-.97-.87-.11-.08-.18-.2-.17-.34,0-.13.08-.26.19-.32.73-.42,5.69-3.1,7.75-3.76,2.35-.75,3.43-.05,3.48-.02.14.09.17.27.08.41-.09.14-.27.17-.41.08,0,0-.93-.56-2.97.09-1.85.59-6.11,2.86-7.37,3.56.21.18.48.43.81.75.77.77,1.18,2.16,1.35,2.91.29-.08.71-.2,1.25-.34,1.26-.33,2.98-.79,4.45-1.37,3.69-1.45,5.33-3.49,5.49-4.43.16-.94-1.17-8.41-2.1-13.19-.19-1.24-.54-3.53-1.22-4.38-.94-1.14-2.61-1.72-4.23-2.29-.42-.15-.86-.3-1.28-.46l-.44-.17c-1.58-.59-3.08-1.15-3.37-2.34-.19-.83-.13-2.01-.13-2.06,0-.16.15-.29.31-.28.16,0,.29.15.28.31,0,.01-.06,1.14.11,1.89.21.88,1.57,1.39,3,1.92l.45.17c.41.16.82.3,1.26.45,1.7.59,3.45,1.2,4.5,2.47.72.9,1.07,2.87,1.34,4.65.24,1.22,2.33,12.04,2.1,13.4-.19,1.11-1.91,3.33-5.86,4.88-1.51.59-3.25,1.06-4.52,1.39-.51.13-.94.25-1.21.34-.06.02-.12.03-.18.03Z"/>
            </g>
          </g>
          <g>
            <g>
              <path class="cls-15" d="m21.24,37.96c-1.09-3.1-1.68-3.71-3.79-3.58-.33-1.5-3.36-1.36-4.86-.73-1.31.56-2.92,1.58-3.78,4.13-.89,2.65-3.96,8.96-.28,11.01.11.06.22.12.33.17l.55-.09,1.08-.17s.06,0,.08-.01l.87-.14.22-.03.16-.03c-.19-.21-.51-.6-.75-1.12-.37-.81-.54-1.74-.54-1.74l-.33-.17s.46-.97,1.03-1.58c.53-.61.97-1.61,1.11-2.06.32-.85.5-2.23.88-3.23.14-.36.14-.66.98-.74.45-.04,1.26-.03,1.96.11.6.12,1.11.35,1.25.74.51,1.38.89,2.57.89,2.57,0,0,.46.59.89,1.01.61.62,1.21.19,1.21.19,0,0,.99.04,1.04.88,0,.54.11,1.14-.48,1.6-.56.46-1.04.47-1.04.47,0,0-.13,1-.54,1.81-.29.58-.52.88-.63,1l.24-.04c.45-.16,1.32-.45,2.04-.55,1.89-1.97,1.02-7.47.24-9.68Z"/>
              <path class="cls-12" d="m18.97,48.19c-.19.07-.31.11-.31.11.45-.19,1.38-2.82,1.24-2.89,1.6.01,2.32-2.85.49-2.96-.71.65-1.82-.83-2.1-1.2,0,0-.38-1.2-.89-2.57-.38-.91-2.47-.9-3.2-.85-1.55.04-1.3,3.03-1.86,3.97-.05.77-2,3.14-2.13,3.65,0,0,.33.17.33.17-.07.28.86,2.73,1.47,3.04-.63-.05-1.59-.1-2.18.25,1.26,2.05,4.17,5.41,6.7,5.45,3.34-2.78,3.66-2.59,5.44-6.66-.77-.35-2.37.28-3,.47Z"/>
              <path class="cls-10" d="m16.37,77.19l.35-.49s.04-.03.06-.05c0-.01,0-.03,0-.04l5.84-8.06,3.77-5.21s-.12-7.43-2.97-7.92c-1.17-.2-2.18-.12-3.01.24-1.23.53-2.06,1.66-2.36,3.4-.12.68-.49,3.43-.91,6.65-.05-.1-.08-.19-.09-.25-.01-.11-.04-.21-.08-.31l.19.03s-1.9-7.27-2.59-8.34c-1.01-1.57-2.08-2.08-4.57-1.48-.47.11-.88.45-1.26.92-1.08,1.38-1.77,3.94-2.13,5.66-.1.49-.18.92-.23,1.23-.06.33-.08.53-.08.53l.16.02c.06.46.16,1,.44,1.49.43.74,2.15,4.07,2.68,5.09.1.19.08.42-.04.6-.04.05-.08.11-.13.17.04-.02.07-.04.11-.06.57,1.46,2.83,5.4,3.76,7.09.6-.17,1.27-.36,1.89-.54.16-.07.32-.14.48-.21,0,.03,0,.05,0,.08.26-.08.51-.15.73-.21Z"/>
              <path class="cls-12" d="m21.48,87.36c-1.07-1.92-2.2-3.03-4.29-4.2-.33.39-1.16,1.35-1.48,1.72,1.13-1.54,2.8-4.36,3.27-4.84.77-.82,7.45-6.72,7.45-6.72l-.41.17c.12-.1.23-.2.34-.31-2.08-.56-2.54-2.62-3.55-4.21-.79.49-1.17,1.41-1.67,2.2-1.63,1.97-3.13,4.08-4.76,6.03-.99.29-2.1.61-3.09.89-.93-1.69-3.19-5.63-3.76-7.09-1.49,1.75-2.03,2.65-4.49,3.35,1.46,2.06,2.92,4.11,4.38,6.17-.21.81-.95,1.69-.91,2.57.13.48.75.15,1.07-.35-.12,1,.68.81.68,1.29-.14.39.12,1.17.65,1.08.55,0-.29,1.51,1.56,1.11-.09.06.57.93,1.6.46h-.02c.29.95,1.69,3.5,2.1,4.14.22.93,1.59,1.49,2.19,1.15l-.17-.21c.55.48,1.96.38,2.46.14.14-.07.26-.18.35-.34l-.43-.62c.15.18,1.44,1.47,1.59.33-.09-1.05-.9-1.91-1.57-3.12l1.32,1.95c1.29-.06-.31-2.11-.41-2.72Zm-7.12-.9h-.01s.01,0,.02,0h0Z"/>
              <path class="cls-6" d="m24.14,93.24h-.04c.14.25.25.49.3.76.07.36-.29.81-.89,1.27-.46.34-.96-.42-1.98.01-1,.39-1.04,1.24-1.75,1.41-1.08.24-1.9.16-2.4.13-.49-.05-.75-.33-.94-.9.1.73.32,1.61,1.18,1.73.48.1.93.08,1.63-.02,1.03-.16,2.48-.47,3.59-.96,1.11-.49,2.18-1.15,2.22-1.86.05-.68-.91-1.58-.91-1.58Z"/>
              <path class="cls-6" d="m14.48,98.42c-.5-.04-1.32-.08-2.36-.47-.69-.27-.6-1.11-1.54-1.64-.95-.57-1.55.11-1.96-.29-.53-.53-.82-1.03-.7-1.38.09-.26.23-.49.4-.7l-.04-.02s-1.08.76-1.12,1.44c-.06.71.9,1.5,1.93,2.15,1.03.65,2.41,1.16,3.42,1.46.68.2,1.12.28,1.61.25.86,0,1.2-.83,1.41-1.54-.26.53-.56.77-1.05.75Z"/>
              <path class="cls-13" d="m17.37,96.82c.5.03,1.32.11,2.4-.13.72-.17.75-1.02,1.75-1.41,1.02-.43,1.52.33,1.98-.01.6-.45.96-.9.89-1.27-.05-.27-.15-.52-.3-.75-.45-.74-1.27-1.34-1.95-2-.02.17-.1.31-.27.44-.34.28-1.32-.77-1.33-.77l.43.62c-.08.16-.21.27-.35.33-.35.21-1.65.28-2.14.05-.09-.04-.2-.11-.32-.19l.17.21c-.25.2-.93.06-1.48-.19-.2-.09-.61-.64-.71-.96,0,0-.55-.96-1.01-1.77-.11-.08-.15-.17-.18-.05-.01.09,0,.2.04.34.26.39.51.79.75,1.2.24.41.49.83.83,1.17.24.24.52.42.83.55-.08.17-.16.35-.23.56-.38,1.02-.66,1.9-.89,2.63.04.19.09.36.13.5.18.56.44.85.94.9Z"/>
              <path class="cls-13" d="m17.19,92.78c.08-.21.16-.39.23-.56-.31-.13-.59-.3-.83-.55-.34-.34-.59-.76-.83-1.17-.23-.41-.49-.8-.75-1.2-.01-.02-.03-.04-.04-.07-.22-.33-.43-.68-.56-1.05-.08.01-.14.03-.19.07-.2.13-.35.61-.35.61,0,0-.3.12-.34.18-.15.26-.51.8-.68,1.02-.64.78-1.75,1.71-1.75,1.71-.84.76-2.1,1.32-2.79,2.16-.18.21-.32.44-.4.7-.12.35.17.85.7,1.38.41.4,1.01-.28,1.96.29.94.53.85,1.37,1.54,1.64,1.03.39,1.86.43,2.36.47.49.02.79-.22,1.05-.75.24-.49.46-1.24.77-2.26.23-.73.51-1.61.89-2.63Z"/>
              <path class="cls-1" d="m27.42,72.95c.33-.41.77-.97,1.24-1.58,0,0,0,.02.02.06.04-.06.08-.11.12-.17.17-.25.34-.5.5-.74.47-.71.88-1.34,1.12-1.6,2.84-3.48-1.13-14.44-1.84-17.52-.25-.8-.51-1.43-.8-1.95-1.22-2.16-2.9-2.05-5.83-1.69-1.75,4.03-2.13,3.88-5.42,6.62-2.53-.04-5.43-3.39-6.7-5.44.02-.02.04-.03.07-.05-.29-.02-.74,0-1.03.07-1.11-.33-2.45-.29-3.59.17-1.15.46-2.11,1.35-2.42,2.72-.45,2.12-1.06,6.78-1.12,9.09-.06,2.3-.58,6.56.03,8.12.07.13.15.29.23.49.71,1.68,1.79,5.44,2.91,4.63.02.03.04.05.06.08,1.43-.28,3.6-2.05,4.57-3.37.13-.18.14-.4.04-.6-.83-1.9-2.87-4.78-3.12-6.58l-.16-.02s.14-.72-.02-.87c.73-1.98,1.1-4.86,2.46-6.54,1.75-1.97,4.97-1.31,5.83.56.69,1.07,2.59,8.34,2.59,8.34l-.19-.03c.08.2.06.35.17.56.42-3.22.79-5.97.91-6.65.51-2.99,2.6-4.12,5.37-3.64,2.85.49,2.97,7.92,2.97,7.92l-3.77,5.21c.04.2.02.2.13.45.02,0,.03-.02.05-.03.94,1.59,1.68,3.53,3.55,4.21-.02.02-.04.04-.06.06.05.03.09.06.13.08.26.14.61-.03.99-.38Z"/>
              <path class="cls-10" d="m14.08,86.66c-.07.04-.13.06-.19.08-1.22.24-1.4-.54-1.4-.54,0,0-.83.31-1.24-.3-.12-.17-.12-.35-.09-.51.04-.15-.08-.31-.24-.3-.19,0-.4-.05-.54-.27-.17-.27-.16-.58-.11-.81.03-.15-.07-.29-.22-.33-.18-.05-.38-.21-.46-.69-.01-.08-.01-.18,0-.28h-.01c-.33.52-.94.82-1.06.35-.09-.34.19-.94.35-1.24.24-.46.39-.89.56-1.33-.25-.35-.49-.7-.74-1.04-1.2-1.69-2.4-3.38-3.6-5.08-.01.06-.02.13-.03.19l-.3-.09s-1.34,5.94-1.21,7.85c.13,1.91,1.62,5.1,4.39,5.75,2.77.65,5.97.8,5.97.8l.68-.9c-.24-.61-.18-.7-.5-1.3h.02Z"/>
              <path class="cls-10" d="m30.64,80.83c-.01-.18-.02-.36-.03-.55-.07-1.4-.75-4.29-1.28-6.4-.32-1.24-.59-2.22-.65-2.46-.01-.04-.02-.06-.02-.06-.47.61-.91,1.18-1.24,1.58-.07.09-.13.17-.19.24-.19.24-.53.3-.8.14,0,0-6.67,5.91-7.45,6.72-.44.47-1.79,3.11-1.79,3.11.69.41,1.92,1.23,2.18,1.45.73.64,1.05,1.2,1.65,2.01.21.28.35.52.46.75l.34.2s4.73.29,7.05-1.64c2.02-1.68,1.93-2.92,1.79-4.77,0,0,0,0,0-.01,0-.1-.01-.2-.02-.31Z"/>
            </g>
            <g>
              <g>
                <path class="cls-2" d="m21.9,90.37c-.17,0-.3-.13-.3-.3,0-.16.13-.29.3-.29.12,0,.19-.02.2-.05.04-.06.03-.32-.25-.86-.2-.36-.32-.66-.43-.93-.15-.38-.29-.71-.62-1.16-.15-.2-.28-.39-.41-.56-.38-.53-.68-.94-1.2-1.4-.23-.19-1.44-1.01-2.13-1.42-.14-.08-.19-.26-.11-.4.08-.14.26-.19.4-.11.7.41,1.94,1.25,2.22,1.48.58.51.92.97,1.3,1.51.12.17.25.35.4.55.38.51.54.89.7,1.29.11.26.21.53.4.86.35.66.43,1.13.24,1.45-.09.15-.29.33-.7.33Z"/>
                <path class="cls-2" d="m21.68,92.07c-.44,0-.91-.49-1.3-.9l-.03-.03c-.45-.52-1.75-2.2-1.8-2.27-.1-.13-.08-.31.05-.41.13-.1.31-.08.41.05.01.02,1.34,1.73,1.77,2.23l.02.02c.19.2.77.8.88.71.23-.18.25-.39-.18-1.2-.4-.75-1.67-2.79-2.11-3.41-.09-.13-.06-.32.07-.41.13-.09.32-.06.41.07.45.64,1.74,2.71,2.15,3.47.31.58.74,1.38.04,1.94-.12.1-.25.15-.38.15Z"/>
                <path class="cls-2" d="m20.31,92.25c-.17,0-.34-.04-.5-.12-.87-.43-2.33-2.22-2.39-2.29-.1-.13-.08-.31.04-.42.13-.1.31-.08.42.04.4.49,1.57,1.82,2.2,2.14.21.11.51.07.66-.2.08-.14.26-.2.4-.12.14.08.2.26.12.4-.2.36-.56.57-.94.57Z"/>
                <path class="cls-2" d="m19,92.35c-.18,0-.38-.04-.62-.16-.41-.18-1.22-.86-1.84-1.45-.12-.11-.12-.3,0-.42.11-.12.3-.12.42-.01.67.64,1.39,1.21,1.68,1.34.36.17.54.11.86-.08.14-.08.32-.03.4.11.08.14.03.32-.11.4-.24.14-.48.26-.78.26Z"/>
                <path class="cls-2" d="m17.77,92.46c-.43,0-.91-.25-1.41-.74-.48-.48-1.38-2.04-1.85-3.11-.26-.57-.34-.85-.41-1.08-.06-.21-.11-.37-.3-.72-.08-.14-.02-.32.12-.4.14-.08.32-.02.4.12.22.41.28.6.35.83.06.21.14.47.38,1.01.49,1.1,1.35,2.55,1.73,2.93.86.84,1.22.55,1.39.41.13-.1.31-.08.41.05s.08.31-.05.41c-.24.19-.49.29-.76.29Z"/>
              </g>
              <path class="cls-2" d="m7.08,65.8s-.03,0-.05,0c-.16-.03-.27-.18-.24-.34.07-.42.14-1,.22-1.61.14-1.11.31-2.37.49-3.14.04-.16.2-.26.35-.22.16.04.26.2.22.35-.17.74-.33,1.98-.47,3.08-.08.61-.15,1.2-.22,1.62-.02.15-.15.25-.29.25Z"/>
              <path class="cls-2" d="m25.53,64.78c-.17,0-.3-.14-.3-.3.03-1.42-.08-2.74-.19-3.97-.01-.16.1-.31.27-.32.16-.02.31.1.32.27.11,1.25.22,2.59.2,4.04,0,.16-.13.29-.3.29Z"/>
              <path class="cls-2" d="m13.45,87.08c-.61,0-.96-.27-1.14-.53-.35.06-.95.07-1.32-.47-.14-.2-.19-.44-.14-.69-.31,0-.56-.15-.73-.41-.18-.28-.23-.64-.15-1.02-.25-.05-.57-.26-.68-.9-.18-1.04,1.41-3.38,1.59-3.65.09-.13.28-.17.41-.08.13.09.17.28.08.41-.63.92-1.6,2.61-1.49,3.21.04.26.13.42.24.45.31.08.5.37.44.67-.03.17-.05.4.07.59.04.07.11.14.28.14.16,0,.32.06.42.19.11.13.15.31.11.47-.03.15,0,.23.04.28.28.4.87.2.9.19.08-.03.17-.02.24.02.07.04.13.11.15.19.01.05.17.49,1.06.32.7-.14,2.49-2.92,3.56-4.58.62-.97,1.12-1.74,1.39-2.02.77-.82,7.19-6.5,7.46-6.74.12-.11.31-.1.42.03.11.12.1.31-.03.42-.07.06-6.67,5.91-7.43,6.71-.23.25-.74,1.03-1.32,1.94-1.7,2.64-3.06,4.67-3.94,4.84-.18.04-.34.05-.49.05Z"/>
              <g>
                <path class="cls-2" d="m14.45,87.9c-.15.01-.27.05-.37.12-.28.17-.43.64-.47.78-.05.16.04.32.2.37.16.05.32-.04.37-.2.06-.19.17-.41.24-.46.05-.03.16-.04.32-.01-.09-.2-.18-.4-.28-.6Z"/>
                <path class="cls-2" d="m14.21,95.59c.19.18.38.34.46.7.04.16.19.26.35.22.16-.04.26-.2.22-.35-.12-.53-.42-.8-.63-1-.28-.26-.41-.38.12-1.23.37-.59.81-1.42,1.19-2.15.12-.23.25-.47.36-.68-.13-.17-.26-.34-.39-.51-.12.22-.28.51-.49.92-.38.72-.81,1.54-1.17,2.11-.73,1.18-.47,1.56-.02,1.98Z"/>
                <path class="cls-2" d="m17.23,91.95c-.1.21-.21.45-.31.73-.46,1.24-.78,2.27-1.03,3.09-.56,1.82-.76,2.39-1.38,2.36h-.1c-.5-.05-1.24-.1-2.17-.45-.22-.09-.33-.26-.5-.56-.19-.33-.44-.75-.99-1.06-.62-.37-1.12-.29-1.49-.23-.27.04-.35.05-.41-.02-.55-.55-.69-.91-.63-1.08.14-.43.46-.78.86-1.1.04,0,.07-.02.11-.04.66-.38,1-.29,1.31-.21.3.08.68.17,1.08-.33.15-.2.37-.44.62-.73.69-.79,1.63-1.88,2.08-2.82.28-.55.02-.77-.1-.84-.28-.16-.71,0-.86.25-.16.27-.5.79-.65.98-.62.75-1.71,1.66-1.73,1.68-.34.31-.77.59-1.18.87-.87.58-1.77,1.18-2.09,2.11-.15.45.11,1.02.77,1.68.29.28.63.23.93.18.32-.05.65-.11,1.09.16.42.24.6.55.78.85.18.32.37.64.8.81,1.01.38,1.84.44,2.33.48h.11s.06.01.09.01c1.04,0,1.33-.95,1.89-2.78.25-.81.56-1.83,1.02-3.05.11-.29.22-.53.32-.74-.2-.04-.39-.11-.56-.2Zm-5.93.06s1.12-.94,1.78-1.73c-.43.59-.94,1.17-1.35,1.65-.25.29-.47.55-.64.75-.16.2-.2.19-.47.12-.09-.02-.18-.05-.29-.06.34-.23.69-.47.97-.73Z"/>
                <path class="cls-2" d="m13.9,99.52c-.45,0-.88-.1-1.47-.27-.65-.19-2.27-.73-3.49-1.49-1.45-.91-2.13-1.7-2.07-2.42.05-.79,1.12-1.57,1.25-1.66.13-.09.32-.06.41.07.09.13.06.32-.07.41-.37.27-.97.83-1,1.22-.04.46.62,1.14,1.79,1.88,1.16.73,2.72,1.24,3.34,1.43.62.18,1.04.27,1.51.23.74,0,1.01-.8,1.24-1.68.04-.16.08-.29.11-.41.05-.15.22-.24.37-.19.15.05.24.22.19.37-.03.1-.07.23-.1.37-.2.79-.55,2.11-1.79,2.12-.08,0-.15,0-.23,0Z"/>
                <path class="cls-2" d="m15.74,91.33c-.09,0-.18-.04-.23-.11-.57-.74-1.67-.98-1.68-.98-.16-.03-.26-.19-.23-.35.03-.16.19-.26.35-.23.05.01,1.32.28,2.03,1.2.1.13.08.31-.05.41-.05.04-.12.06-.18.06Z"/>
                <path class="cls-2" d="m15.26,92.32c-.09,0-.18-.04-.23-.11-.58-.75-1.86-1.06-1.88-1.06-.16-.04-.26-.2-.22-.36.04-.16.2-.26.36-.22.06.01,1.5.36,2.21,1.28.1.13.08.31-.05.41-.05.04-.12.06-.18.06Z"/>
                <path class="cls-2" d="m14.66,93.34c-.09,0-.18-.04-.23-.11-.58-.76-2.07-1.19-2.09-1.19-.16-.05-.25-.21-.2-.37.05-.16.21-.25.37-.2.07.02,1.69.49,2.39,1.4.1.13.08.31-.05.41-.05.04-.12.06-.18.06Z"/>
                <path class="cls-2" d="m14.07,94.39c-.09,0-.17-.04-.23-.11-.6-.73-2.29-1.22-2.3-1.22-.16-.04-.25-.21-.2-.36.04-.16.21-.25.36-.2.08.02,1.89.54,2.6,1.42.1.13.08.31-.04.42-.05.04-.12.07-.19.07Z"/>
              </g>
              <g>
                <path class="cls-2" d="m8.79,83.6s-.06,0-.1,0c-.23-.04-.4-.2-.47-.44-.09-.33.03-.79.37-1.45.18-.35.31-.68.44-1.03.14-.36.28-.73.49-1.12.17-.32.35-.56.57-.74.39-.32.89-.43,1.33-.53,1.08-.25,2.17-.61,3.23-.97.46-.15.92-.31,1.37-.45.12-.04.22-.1.3-.18,1.09-1.09,4.91-6.14,6.1-8.05.75-1.21,2.28-3.24,3.4-4.73.56-.75,1.14-1.52,1.23-1.68.04-.11.15-.2.27-.2.16,0,.3.13.3.29,0,.15,0,.16-1.34,1.94-1.11,1.48-2.63,3.5-3.37,4.69-1.2,1.94-5.07,7.05-6.18,8.16-.15.15-.33.26-.54.33-.45.14-.91.3-1.36.45-1.07.36-2.18.73-3.28.99-.4.09-.81.18-1.09.41-.16.13-.29.31-.42.55-.19.36-.32.7-.46,1.06-.13.35-.27.71-.47,1.08-.36.71-.34.97-.32,1.03,0,0,0,0,0,.01.09,0,.34-.15.52-.44.09-.14.27-.18.41-.09.14.09.18.27.09.41-.23.36-.63.71-1.03.71Z"/>
                <path class="cls-2" d="m16.14,54.69s-.06,0-.09-.02c-.06-.02-1.42-.48-2.86-1.5-1.44-1.02-3.45-3.86-3.54-3.98-.09-.13-.06-.32.07-.41.13-.09.32-.06.41.07.02.03,2.04,2.87,3.4,3.84,1.11.79,2.19,1.23,2.57,1.37,1.11-.76,3.71-2.62,4.26-3.36.69-.93,1.37-2.9,1.38-2.92.05-.15.22-.24.38-.18.15.05.24.22.18.38-.03.08-.72,2.08-1.46,3.08-.74,1.01-4.37,3.48-4.52,3.58-.05.03-.11.05-.17.05Z"/>
                <path class="cls-2" d="m13.05,78.16c-.11,0-.21-.06-.26-.16l-3.51-6.99c-.07-.15-.01-.32.13-.4.15-.07.32-.01.4.13l3.51,6.99c.07.15.01.32-.13.4-.04.02-.09.03-.13.03Z"/>
                <path class="cls-2" d="m9.27,80.53c-.09,0-.18-.04-.24-.12-1.5-2.06-3.96-5.4-4.25-5.7-.1-.08-.15-.21-.1-.33.05-.15.22-.23.38-.18.11.04.23.08,4.45,5.87.1.13.07.32-.06.41-.05.04-.11.06-.17.06Z"/>
                <path class="cls-2" d="m22.52,87.87c-.41,0-.67-.01-.71-.02-.16,0-.29-.15-.28-.31,0-.16.15-.28.31-.28.05,0,4.64.26,6.84-1.57,1.9-1.58,1.82-2.69,1.69-4.52-.02-.28-.04-.57-.06-.88-.11-2.29-1.92-8.79-1.94-8.86-.04-.16.05-.32.2-.36.16-.04.32.05.36.2.08.27,1.85,6.63,1.96,8.99.01.3.04.59.05.86.13,1.88.23,3.24-1.9,5.01-1.85,1.54-5.11,1.73-6.54,1.73Z"/>
                <path class="cls-2" d="m20.65,86.35c-.06,0-.11-.02-.17-.05-.13-.09-.17-.28-.08-.41.01-.02,1.07-1.58,1.92-3.72.87-2.17,2.94-8.08,2.96-8.14.05-.15.22-.23.38-.18.15.05.23.22.18.38-.02.06-2.1,5.98-2.97,8.16-.88,2.2-1.94,3.77-1.98,3.84-.06.08-.15.13-.24.13Z"/>
              </g>
              <path class="cls-2" d="m15.92,77.23s-.02,0-.03,0c-.16-.02-.28-.16-.26-.33.07-.65,1.82-16.03,2.14-17.9.52-3,2.6-4.42,5.71-3.88,3.05.53,3.21,7.89,3.22,8.21,0,.16-.13.3-.29.3-.16,0-.3-.13-.3-.29-.03-2-.59-7.27-2.72-7.64-2.79-.48-4.57.73-5.03,3.4-.32,1.85-2.12,17.7-2.14,17.86-.02.15-.14.26-.29.26Z"/>
              <path class="cls-2" d="m26.75,73.71c-.16,0-.32-.04-.47-.13-.53-.32-1.53-.99-2.21-1.8-.99-1.18-1.65-2.81-1.67-2.88-.06-.15.01-.32.17-.38.15-.06.32.01.38.17,0,.02.65,1.61,1.58,2.72.63.75,1.57,1.38,2.07,1.68.14.08.31.05.41-.07.66-.82,2.29-2.88,3.17-4.25l.16-.25q.92-1.42.66-4.91v-.11c-.29-3.82-2.03-9.72-2.68-11.94l-.02-.07c-.49-1.66-1.19-2.76-2.09-3.26-.67-.37-1.56-.46-3.1-.29-1.58.17-2.09.14-2.11.14-.16-.01-.29-.15-.27-.32.01-.16.15-.29.31-.27,0,0,.49.03,2-.14,1.67-.18,2.67-.08,3.45.36,1.03.58,1.83,1.79,2.36,3.61l.02.07c.66,2.24,2.41,8.18,2.69,12.06v.11c.28,3.61.28,3.68-.75,5.27l-.16.25c-.9,1.39-2.54,3.47-3.2,4.3-.18.22-.44.34-.71.34Z"/>
              <g>
                <path class="cls-2" d="m15.29,50.48s-1.13-.03-2.67-1.03c-1.05-.67-1.43-1.4-1.65-1.83v-.03c-.38-.68-.61-1.56-.8-2.34-.04-.16.06-.32.22-.36s.32.06.36.22c.19.8.41,1.61.73,2.2l.02.03c.21.41.53,1.02,1.45,1.61,1.4.91,2.35.93,2.36.93.16,0,.29.14.29.3,0,.16-.13.29-.3.29Z"/>
                <path class="cls-2" d="m15.32,50.48c-.16,0-.29-.13-.3-.29,0-.16.13-.3.29-.3.02,0,.83-.04,2.17-.95.96-.66,1.36-1.4,1.56-1.76.49-.88.68-2.21.68-2.23.02-.16.17-.27.33-.25.16.02.27.17.25.33,0,.06-.2,1.45-.75,2.43-.2.36-.67,1.22-1.74,1.96-1.51,1.03-2.45,1.05-2.49,1.06h0Z"/>
                <path class="cls-2" d="m12.06,50.98s-.04,0-.06,0c-.16-.03-.26-.19-.23-.35.15-.78-.05-1.95-.05-1.96-.03-.16.08-.31.24-.34.16-.03.31.08.34.24,0,.05.22,1.29.05,2.17-.03.14-.15.24-.29.24Z"/>
                <path class="cls-2" d="m10.42,45.87c-.07,0-.13-.02-.16-.03-.16,0-.28-.13-.28-.29,0-.16.13-.3.29-.3.08,0,.14.02.17.03.16,0,.28.13.28.29,0,.16-.13.3-.29.3h0Z"/>
                <path class="cls-2" d="m15.26,45.64c-.07,0-.14-.03-.2-.08-.12-.11-.13-.3-.01-.42.21-.23.22-.31.22-.32-.01-.01-.09-.07-.14-.11-.16-.13-.39-.3-.47-.61-.19-.65.2-1.62.36-1.91.08-.14.26-.2.4-.12.14.08.2.26.12.4-.16.3-.43,1.07-.31,1.47.03.12.12.2.26.31.16.12.35.27.37.53.02.23-.1.46-.38.76-.06.06-.14.09-.22.09Z"/>
                <g>
                  <path class="cls-7" d="m15.13,46.49c-.87.02-1.72-.12-1.72-.12,0,0,.42,1.59,1.74,1.62,1.26.04,1.69-1.68,1.69-1.68,0,0-.87.17-1.71.18Z"/>
                  <path class="cls-2" d="m15.2,48.29s-.03,0-.05,0c-1.53-.04-2-1.77-2.02-1.84-.03-.1,0-.2.07-.27.07-.07.17-.11.27-.09,0,0,.83.13,1.67.12.81-.01,1.65-.17,1.66-.17.1-.02.2.01.27.09.07.07.1.18.07.27-.02.08-.48,1.91-1.93,1.91Zm-1.33-1.57c.21.41.61.95,1.29.97.64.02,1.04-.58,1.23-1.02-.34.05-.8.1-1.26.11-.47,0-.93-.03-1.26-.06Z"/>
                </g>
                <path class="cls-2" d="m12,41.18c-.09,0-.18-.04-.24-.12-.1-.13-.07-.31.06-.41.03-.02.77-.56,1.76-.15.15.06.22.23.16.38-.06.15-.23.22-.38.16-.67-.28-1.17.07-1.19.08-.05.04-.11.06-.17.06Z"/>
                <path class="cls-2" d="m18.01,41.05c-.06,0-.11-.02-.17-.05-.02-.02-.52-.33-1.18-.01-.15.07-.32.01-.39-.14-.07-.15-.01-.32.14-.39.98-.47,1.74.04,1.77.06.13.09.17.28.08.41-.06.08-.15.13-.24.13Z"/>
                <path class="cls-3" d="m11.95,48.71s1.8,1.44,3.36,1.45c1.2,0,2.89-1.4,2.89-1.4,0,0-1.71,2.11-3.3,2.37-1.38.23-2.85-1.03-2.85-1.03l-.11-1.38Z"/>
                <path class="cls-2" d="m18.43,51.12c-.13,0-.26-.09-.29-.23-.2-.88-.05-2.27-.04-2.33.02-.16.17-.28.33-.26.16.02.28.16.26.33,0,.01-.15,1.35.03,2.13.04.16-.06.32-.22.35-.02,0-.04,0-.07,0Z"/>
                <path class="cls-2" d="m19.27,42.59s-.09,0-.13-.03c-.04-.02-.93-.48-1.29-1.57-.1-.33-.18-.66-.26-.98-.27-1.12-.46-1.76-1.18-1.8-.16,0-.29-.15-.28-.31,0-.16.14-.29.31-.28,1.2.06,1.46,1.18,1.72,2.25.07.31.15.62.25.93.27.85.98,1.22.99,1.22.14.07.2.25.13.4-.05.1-.16.16-.26.16Z"/>
                <path class="cls-2" d="m11.22,48.86c-.41,0-.78-.17-1.05-.5-.7-.83-.69-2.46.03-3.54.21-.32.42-.6.61-.88.77-1.06,1.38-1.9,1.78-4.05.3-1.61.71-2.46,1.32-2.73.56-.25,1.15.02,1.61.29.14.08.19.26.1.4-.08.14-.26.19-.4.1-.49-.29-.82-.37-1.06-.26-.4.18-.73.96-.99,2.3-.43,2.28-1.1,3.21-1.88,4.29-.19.27-.39.55-.6.86-.62.94-.55,2.27-.07,2.84.27.32.64.38,1.1.17.15-.07.32,0,.39.15.07.15,0,.32-.15.39-.25.11-.5.17-.74.17Z"/>
                <path class="cls-2" d="m9.4,48.39c-.07,0-.13-.02-.19-.07-1.91-1.59-.33-5.44.27-6.89l.06-.14c.37-.88.56-1.62.6-2.32,0-.16.14-.29.31-.28.16,0,.29.15.28.31-.04.77-.25,1.57-.64,2.52l-.05.13c-.55,1.34-2.01,4.9-.44,6.21.12.1.14.29.04.42-.06.07-.14.11-.23.11Z"/>
                <path class="cls-2" d="m20.72,48.19c-.09,0-.18-.04-.24-.12-.1-.13-.07-.32.06-.41,2.01-1.51,1.33-7.14.42-9.6-.09-.23-.16-.44-.24-.65-.67-1.84-1.01-2.76-2.6-2.83-.16,0-.29-.14-.28-.31,0-.16.15-.28.31-.28,1.99.09,2.44,1.33,3.13,3.22.08.21.15.42.24.65.84,2.26,1.84,8.43-.62,10.28-.05.04-.12.06-.18.06Z"/>
                <path class="cls-2" d="m9.83,49.23s-.01,0-.02,0c-1.21-.09-2.1-.55-2.64-1.37-1.47-2.26.1-6.64,1.04-9.25.12-.35.24-.66.32-.92.93-2.74,2.69-3.77,3.94-4.3,1.23-.52,3.3-.68,4.41-.1.46.24.76.6.85,1.04.03.16-.07.32-.23.35-.16.03-.32-.07-.35-.23-.06-.27-.24-.48-.55-.64-.95-.49-2.82-.33-3.9.12-1.14.49-2.77,1.44-3.62,3.95-.09.26-.2.58-.33.93-.84,2.35-2.41,6.71-1.1,8.73.44.67,1.15,1.03,2.18,1.1.16.01.28.15.27.32-.01.16-.14.27-.29.27Z"/>
                <path class="cls-2" d="m16.29,36.87s-.05,0-.08-.01c-.16-.04-.25-.21-.21-.36.26-.94,1.13-1.33,1.17-1.35.15-.07.32,0,.39.15.07.15,0,.32-.15.39-.01,0-.66.31-.84.97-.04.13-.15.22-.28.22Z"/>
                <path class="cls-2" d="m19.99,45.77c-.13,0-.25-.09-.28-.22-.04-.16.05-.32.21-.36.7-.19,1.08-.56,1.24-1.19.1-.43,0-.85-.26-1.06-.25-.2-.62-.19-1.04.01-.15.07-.32,0-.39-.14-.07-.15,0-.32.14-.39.63-.31,1.24-.28,1.67.06.44.36.62.99.46,1.66-.21.85-.75,1.38-1.66,1.63-.03,0-.05.01-.08.01Z"/>
                <path class="cls-2" d="m20.3,44.38s-.09,0-.13-.03c-.15-.07-.21-.25-.14-.39.02-.03.16-.32.46-.52.14-.09.32-.05.41.09.09.14.05.32-.09.41-.16.1-.25.28-.25.28-.05.1-.16.16-.27.16Z"/>
                <path class="cls-3" d="m12.46,43.02c0-.3.17-.54.44-.55.24,0,.46.23.46.53,0,.3-.17.54-.44.55-.24,0-.46-.23-.46-.53Z"/>
                <path class="cls-3" d="m16.91,42.94c0-.3.17-.54.44-.55.24,0,.46.23.46.53,0,.3-.17.54-.44.55-.27,0-.46-.23-.46-.53Z"/>
              </g>
              <path class="cls-2" d="m19.96,48.78c-.14,0-.26-.09-.29-.23-.21-.96.23-1.44.56-1.79l.08-.09c.11-.12.3-.13.42-.02.12.11.13.3.02.42l-.08.09c-.3.32-.56.6-.41,1.26.04.16-.07.32-.23.35-.02,0-.04,0-.06,0Z"/>
              <path class="cls-2" d="m4.53,74.6c-.07,0-.14,0-.21-.02-.24-.04-.73-.12-2.82-5.44-.48-1.21-.31-3.83-.17-6.14.05-.77.1-1.5.11-2.09.06-2.33.68-7.05,1.12-9.14.49-2.29,2.35-2.94,4.1-3.27.66-.13,1.29-.08,1.99,0,.16.02.28.16.26.32-.02.16-.16.28-.32.26-.67-.07-1.23-.11-1.82,0-1.64.31-3.22.87-3.63,2.82-.44,2.06-1.05,6.73-1.11,9.03-.02.6-.06,1.34-.11,2.12-.14,2.13-.3,4.79.13,5.88,1.44,3.68,2.18,4.91,2.39,5.07.41.04,1.53-.29,3-1.42,1-.77,1.59-1.51,1.86-1.88.06-.08.07-.2.02-.29-.37-.71-2.23-4.32-2.67-5.08-.34-.59-.54-1.28-.7-1.83-.08-.28-.15-.53-.22-.68-.07-.15,0-.32.15-.39.15-.07.32,0,.39.15.09.19.16.45.25.75.15.52.34,1.17.65,1.7.43.75,2.17,4.09,2.69,5.1.15.29.13.64-.06.9-.28.4-.92,1.19-1.98,2-1.25.96-2.5,1.55-3.28,1.55Z"/>
              <path class="cls-2" d="m13.24,89.21s-.01,0-.02,0c-.03,0-2.61-.2-5.37-.84-2.92-.68-4.48-3.99-4.62-6.01-.13-1.93,1.16-7.69,1.22-7.94.04-.16.19-.26.35-.22.16.04.26.19.22.35-.01.06-1.33,5.92-1.21,7.77.13,1.92,1.65,4.89,4.16,5.48,2.71.63,5.25.83,5.28.83.16.01.28.15.27.32-.01.16-.14.27-.29.27Z"/>
              <path class="cls-2" d="m17.17,65.47c-.13,0-.25-.09-.29-.22-.52-2.01-2.01-7.41-2.55-8.26-.88-1.36-1.78-1.95-4.26-1.35-2,.48-3.19,6-3.48,8.08-.02.16-.17.27-.33.25-.16-.02-.27-.17-.25-.33.04-.32,1.12-7.91,3.93-8.58,2.47-.59,3.75-.17,4.89,1.61.71,1.1,2.55,8.13,2.62,8.43.04.16-.05.32-.21.36-.02,0-.05,0-.07,0Z"/>
              <path class="cls-2" d="m24.34,93.03c-.12-.11-.31-.11-.42.01-.11.12-.11.3.01.42.33.31.84.96.82,1.35-.03.45-.77,1.04-2.04,1.6-1.25.55-2.87.84-3.51.94-.64.09-1.08.12-1.55.02-.72-.11-.87-.93-.97-1.83-.02-.16-.03-.3-.06-.42-.02-.09-.08-.16-.16-.2-.11.34-.22.67-.34,1.01.11.81.35,1.87,1.41,2.03.24.05.47.08.72.08.3,0,.62-.03,1.02-.09.66-.1,2.35-.4,3.66-.98,1.57-.7,2.35-1.39,2.39-2.1.06-.79-.89-1.72-1-1.82Z"/>
              <path class="cls-2" d="m21.19,91.42s-.01.07-.05.09c-.22.14-.47.24-.73.26-.12,0-.24-.02-.35-.06-.32.14-.65.24-.96.4-.05.03-.1.01-.14-.02-.08.02-.13-.05-.13-.12-.02,0-.03,0-.05,0-.22.11-.43.24-.59.39-.12.11-.13.3-.02.42.06.06.14.1.22.1.07,0,.14-.03.2-.08.69-.64,2.44-.88,2.45-.88.16-.02.27-.17.25-.33,0-.07-.05-.13-.1-.18Z"/>
              <path class="cls-2" d="m17.71,92.21s.04.08.05.12c.4.92.26,1.02-.06,1.23-.24.16-.57.39-.77.9-.06.15.02.32.17.38.15.06.32-.02.38-.17.13-.34.33-.48.55-.62.5-.34.82-.68.28-1.93-.2.03-.41.05-.61.09Z"/>
              <path class="cls-2" d="m24.68,93.95c-.18-.98-.99-1.69-1.77-2.39-.15-.13-.3-.27-.45-.41-.09.17-.21.34-.36.47.06.05-.83.05-.86.05-.2.13-.1.18-.23.19-.04,0-.06.04-.03.07.31.36.8.48,1.07.45.31-.03.66-.07,1.26.4.03.02.07.04.1.05.35.38.61.77.69,1.22.03.17-.16.51-.78.97-.07.05-.15.04-.41-.04-.35-.11-.84-.26-1.5.02-.6.23-.9.61-1.14.92-.21.27-.35.43-.57.48-.97.22-1.71.17-2.21.13h-.1c-.46-.05-.64-.38-.83-1.27-.01.06-.03.13-.04.19-.05.2-.1.39-.18.58-.03.07-.07.15-.11.22.22.53.54.82,1.11.87h.1c.2.02.46.04.76.04.45,0,1-.04,1.62-.18.44-.11.68-.4.9-.69.22-.27.44-.56.9-.73.47-.2.79-.1,1.1,0,.29.09.62.19.94-.05.75-.57,1.09-1.09,1-1.55Z"/>
            </g>
          </g>
        </g>
        <g>
          <path class="cls-11" d="m27.74,32.27c-.11-.29-.27-1.28-.27-1.28,0,0-.17,1.08-.23,1.31-.06.2-.81.32-.81.32,0,0,.73.11.81.32.08.21.27,1.41.27,1.41,0,0,.2-1.17.24-1.41.05-.23.81-.33.81-.33,0,0-.75-.12-.82-.33Z"/>
          <path class="cls-11" d="m48.92,23.09c-.09-.24-.23-1.06-.23-1.06,0,0-.14.89-.19,1.08-.05.16-.67.26-.67.26,0,0,.6.09.67.26.06.18.23,1.17.23,1.17,0,0,.16-.97.2-1.17.04-.19.67-.28.67-.28,0,0-.62-.1-.68-.28Z"/>
          <path class="cls-11" d="m10.74,27.63c-.14-.38-.36-1.7-.36-1.7,0,0-.22,1.44-.3,1.74-.08.26-1.07.43-1.07.43,0,0,.97.14,1.07.43.1.28.36,1.88.36,1.88,0,0,.26-1.56.32-1.88.06-.3,1.07-.45,1.07-.45,0,0-.99-.16-1.09-.45Z"/>
          <path class="cls-11" d="m2.68,27.63c-.11-.31-.29-1.35-.29-1.35,0,0-.18,1.14-.24,1.38-.06.21-.85.34-.85.34,0,0,.77.11.85.34.08.23.29,1.49.29,1.49,0,0,.21-1.24.26-1.49.05-.24.85-.35.85-.35,0,0-.79-.13-.87-.35Z"/>
          <path class="cls-11" d="m53.72,24.39c-.11-.31-.29-1.35-.29-1.35,0,0-.18,1.14-.24,1.38-.06.21-.85.34-.85.34,0,0,.77.11.85.34.08.23.29,1.49.29,1.49,0,0,.21-1.24.26-1.49.05-.24.85-.35.85-.35,0,0-.79-.13-.87-.35Z"/>
          <path class="cls-11" d="m54.14,37.55c-.11-.31-.29-1.35-.29-1.35,0,0-.18,1.14-.24,1.38-.06.21-.85.34-.85.34,0,0,.77.11.85.34.08.22.29,1.49.29,1.49,0,0,.21-1.24.26-1.49.05-.24.85-.35.85-.35,0,0-.79-.13-.87-.35Z"/>
          <path class="cls-11" d="m30.57,27.5c-.11-.31-.29-1.35-.29-1.35,0,0-.18,1.14-.24,1.38-.06.21-.85.34-.85.34,0,0,.77.11.85.34.08.22.29,1.49.29,1.49,0,0,.21-1.24.26-1.49.05-.24.85-.35.85-.35,0,0-.79-.13-.87-.35Z"/>
          <path class="cls-11" d="m1.38,34.99c-.11-.31-.29-1.35-.29-1.35,0,0-.18,1.14-.24,1.38-.06.21-.85.34-.85.34,0,0,.77.11.85.34.08.23.29,1.49.29,1.49,0,0,.21-1.24.26-1.49.05-.24.85-.35.85-.35,0,0-.79-.13-.87-.35Z"/>
        </g>
      </g>
    </g>
  </g>
</svg>