<?xml version="1.0" encoding="UTF-8"?>
<svg id="_レイヤー_2" data-name="レイヤー 2" xmlns="http://www.w3.org/2000/svg" viewBox="0 0 181.74 287.4">
  <defs>
    <style>
      .cls-1 {
        fill: #ffce7e;
      }

      .cls-2, .cls-3 {
        fill: #262626;
      }

      .cls-4 {
        fill: #f08c65;
      }

      .cls-5 {
        fill: #fff;
      }

      .cls-6, .cls-7 {
        fill: #ffddc0;
      }

      .cls-6, .cls-3 {
        fill-rule: evenodd;
      }

      .cls-8 {
        fill: #d9946c;
      }

      .cls-9 {
        fill: none;
        stroke: #262626;
        stroke-linecap: round;
        stroke-linejoin: round;
        stroke-width: 1.5px;
      }

      .cls-10 {
        fill: #d7956f;
      }

      .cls-11 {
        fill: #4a8f9e;
      }

      .cls-12 {
        fill: #fff400;
      }

      .cls-13 {
        fill: #ffd599;
      }
    </style>
  </defs>
  <g id="illustration">
    <g>
      <g>
        <g>
          <path class="cls-12" d="m15.63,165.87l-.12,1.56c-.11,1.44-.86,2.58-1.8,2.75l-1.03.18,1.03.18c.94.17,1.69,1.31,1.8,2.75l.12,1.57.12-1.57c.11-1.44.86-2.58,1.8-2.75l1.03-.18-1.03-.18c-.95-.17-1.69-1.31-1.8-2.75l-.12-1.56Z"/>
          <path class="cls-12" d="m72.15,135.06l-.12,1.56c-.11,1.44-.86,2.58-1.8,2.75l-1.03.18,1.03.18c.94.17,1.69,1.31,1.8,2.75l.12,1.57.12-1.57c.11-1.44.86-2.58,1.8-2.75l1.03-.18-1.03-.18c-.95-.17-1.69-1.31-1.8-2.75l-.12-1.56Z"/>
          <path class="cls-12" d="m11.47,114.32l-.12,1.56c-.11,1.44-.86,2.58-1.8,2.75l-1.03.18,1.03.18c.94.17,1.69,1.31,1.8,2.75l.12,1.57.12-1.57c.11-1.44.86-2.58,1.8-2.75l1.03-.18-1.03-.18c-.95-.17-1.69-1.31-1.8-2.75l-.12-1.56Z"/>
          <path class="cls-12" d="m50.42,98.29l-.12,1.56c-.11,1.44-.86,2.58-1.8,2.75l-1.03.18,1.03.18c.94.17,1.69,1.31,1.8,2.75l.12,1.57.12-1.57c.11-1.44.86-2.58,1.8-2.75l1.03-.18-1.03-.18c-.95-.17-1.69-1.31-1.8-2.75l-.12-1.56Z"/>
          <path class="cls-12" d="m1.6,140.18l-.07.85c-.06.78-.47,1.41-.98,1.49l-.56.1.56.1c.51.09.92.71.98,1.49l.07.85.06-.85c.06-.78.47-1.4.98-1.49l.56-.1-.56-.1c-.52-.08-.92-.71-.98-1.49l-.06-.85Z"/>
          <path class="cls-12" d="m73.15,154.79l-.07.85c-.06.78-.47,1.41-.98,1.49l-.56.1.56.1c.51.09.92.71.98,1.49l.07.85.06-.85c.06-.78.47-1.4.98-1.49l.56-.1-.56-.1c-.52-.08-.92-.71-.98-1.49l-.06-.85Z"/>
          <path class="cls-12" d="m40.8,103.5l-.07.85c-.06.78-.47,1.41-.98,1.49l-.56.1.56.1c.51.09.92.71.98,1.49l.07.85.06-.85c.06-.78.47-1.4.98-1.49l.56-.1-.56-.1c-.52-.08-.92-.71-.98-1.49l-.06-.85Z"/>
        </g>
        <g>
          <path class="cls-13" d="m53.1,158.94c-3.18-5.12-9.14-7.91-12.32-13.19-.62-.85.98-.94,1.49-1.18-6.76-7.56-4.74-1.98-12.58-6.04-2.95,4.13-5.75,5.96-5.75,5.96-.91,2.99,2.2,10.92,4.85,18.05,2.14,5.77,3.84,11.2,4.02,11.66-.43.63-.89,1.4-.67,2.19l-2.59,5.81c.26,1.51,18.8,4.01,26.24.52,0,0-.62-5.59-.17-12.08,4.41.28,8.08-2.87,7.4-7.65l-9.92-4.04Z"/>
          <g>
            <g>
              <path class="cls-4" d="m26.8,160.38c-1.8-1.71-4.63-1.54-6.95-2.44-10.37-5.06-4.25-16.78,1.46-24.61,4.9-6.74,1.49-10.74,5.97-15.72,1.97-2.19,6.34-3.84,9.32-3.18,2.32.52,5.81,2.72,5.81,2.72,3.37-.74,3.64,5.49,3.79,7.97.08,2.08-1.89,3.36-2.95,4.94-.58-1.64,1.08-3.1.79-4.61-1.67-1.52-.93-4.32-2.47-5.81-.72-.26-1.39.75-2.14.59-1.94-1.06-2.47,2.28-3.34,3.47-2.06,5.02-6.94.19-8.09,3.84,0,1.2,1.55,1.67,2.27,2.63,1.73,3.55.1,8.2-2.54,10.9-1.25,1.24-3.18,2.47-3.76,4.12-.63,4.03,1.09,8.66,2.96,12.2.9.97,1.87,3.05-.13,2.99Z"/>
              <path class="cls-4" d="m38.38,137.44c-.14.04-.3.09-.38.22-.04.07-.06.15-.07.24-.07.45-.14.91-.21,1.36-.04.26-.08.53,0,.79.09.27.29.48.5.68,1.1,1.08,2.2,2.16,3.3,3.23.41.41,1.06.83,1.51.46.11-.09-.59-3.18-.62-3.54-.1-1.22-.1-2.45.01-3.66.06-.61.14-1.22.25-1.82.06-.33.49-1.4.27-1.68-.43-.55-1.47,1.39-1.77,1.74-.75.88-1.67,1.63-2.78,1.98Z"/>
              <g>
                <path class="cls-6" d="m29.75,130.2s.07-.01.12,0c.53.16.81.69.97,1.19.19.62.24,1.3.24,1.95-.01,1.52-.67,2.88-.96,4.34-.1.52-.13.96.26,1.36.34.34.8.55,1.25.71,1.06.37,2.18.52,3.29.65,1.01.12,2.01.23,3.02.24-.63-.77,0-3.24,0-3.24h1.02s2.59-1.69,3.77-3.85c.64-1.23.62-2.04.65-2.97.01-.76.14-1.9.14-1.9l.54-3.23-.44-.88c-.04-.09-.51-1.69-.68-2.22-.22-.53-.9-2.19-.9-2.19,0,0-.66-.81-1.11-.55-.98.65-1.76.21-2.41.42-1.09.34-2.86,4.2-2.96,4.33-.83.83-1.16,1.36-2.57,1.93-1.4.53-2.63-.03-2.63-.03,0,0-1.96-.44-2.17,1.16-.08.46-.04,1.14.34,1.72.37.58,1,.95,1.23,1.07Z"/>
                <path class="cls-2" d="m38.45,137.79c-1.93,0-4.65-1.76-5-1.99-1.34-.92-1.71-1.55-2.33-2.6-.12-.21-.06-.49.16-.61.21-.12.48-.06.61.15.6,1.01.9,1.52,2.06,2.32,1.76,1.17,4.06,2.15,5.01,1.76.5-.22,1.2-.8,1.87-1.56,1.18-1.33,1.75-2.76,1.87-3.58.13-.64.17-1.24.21-1.87.03-.38.05-.76.1-1.15.09-.7.2-1.32.32-1.98l.06-.35s0-.04.02-.06c.02-.07.04-.16.05-.25.02-.11.04-.22.07-.34.06-.24.3-.38.54-.33.24.06.39.3.33.54-.02.1-.04.2-.06.28-.02.13-.04.24-.07.34l-.06.33c-.12.65-.23,1.26-.32,1.93-.04.37-.07.74-.09,1.1-.04.63-.09,1.28-.22,1.96-.15.96-.78,2.53-2.09,4.01-.45.51-1.33,1.41-2.19,1.79-.26.11-.55.15-.86.15Z"/>
                <path class="cls-2" d="m30.34,130.82s-.09,0-.13-.02c-1.37-.42-2.17-1.22-2.44-2.44-.19-.89.07-1.76.67-2.27.54-.45,1.28-.54,2.03-.25.23.09.34.35.25.58-.09.23-.35.34-.58.25-.45-.18-.84-.14-1.13.1-.35.29-.5.84-.38,1.4.2.9.76,1.45,1.83,1.78.23.07.37.32.3.56-.06.19-.24.31-.43.31Z"/>
                <path class="cls-2" d="m30.02,128.88c-.17,0-.34-.1-.41-.27,0-.01-.11-.25-.32-.4-.2-.15-.24-.42-.1-.62s.42-.24.62-.1c.41.3.6.73.61.78.09.23-.02.49-.24.58-.06.02-.11.03-.17.03Z"/>
                <path class="cls-3" d="m37.68,138.52s-1.71.17-3.12-.87c-1.49-1.09-2.87-4.25-2.87-4.25,0,0,1.51,1.94,2.9,2.68,1.47.79,3.35,1.27,3.35,1.27l-.26,1.17Z"/>
                <path class="cls-2" d="m39.81,131.64c-.12,0-.23-.05-.32-.14-.17-.18-.16-.46.01-.63.35-.34.37-.47.37-.47-.01-.03-.11-.14-.18-.21-.2-.21-.48-.51-.55-.99-.11-.84.12-1.76.66-2.67.13-.21.4-.28.61-.15.21.13.28.4.15.61-.31.51-.65,1.29-.54,2.09.03.2.16.34.32.5.51.54.67,1.08-.22,1.93-.09.08-.2.12-.31.12Z"/>
                <path class="cls-2" d="m36.15,124.91c-.15,0-.3-.08-.38-.21-.13-.21-.06-.48.14-.61.05-.03,1.2-.73,2.68-.03.22.11.32.37.21.59-.11.22-.37.32-.59.21-1.02-.49-1.8-.04-1.83-.02-.07.04-.15.06-.23.06Z"/>
                <path class="cls-2" d="m44,125.33c-.1,0-.2-.03-.29-.1-.02-.01-.55-.43-1.37-.14-.23.08-.49-.04-.57-.27-.08-.23.04-.49.27-.57,1.32-.47,2.21.27,2.25.3.19.16.21.44.05.63-.09.1-.21.16-.34.16Z"/>
                <path class="cls-2" d="m32.1,126.76c-.34,0-.68-.06-1.02-.19-.23-.09-.34-.35-.25-.58.09-.23.35-.34.58-.25,1.59.62,3.41-1.03,4.43-2.83.23-.41.44-.78.63-1.13.7-1.28,1.16-2.13,1.95-2.3.45-.09.93.07,1.48.49.19.15.23.43.08.62-.15.19-.43.23-.62.08-.32-.25-.57-.36-.75-.32-.39.08-.84.9-1.35,1.85-.19.35-.4.74-.64,1.15-1.01,1.78-2.75,3.41-4.51,3.41Z"/>
                <path class="cls-2" d="m22.62,159.17c-2.13,0-4.69-1.3-5.94-2.72-1.36-1.54-2.28-3.51-2.66-5.68-.99-5.72,2.18-10.52,5.24-15.16,1.53-2.32,2.98-4.51,3.93-6.81.55-1.42.71-2.86.87-4.26.34-3,.69-6.09,5.05-8.69.21-.13.48-.06.61.15.13.21.06.48-.15.61-3.98,2.37-4.28,4.99-4.62,8.03-.16,1.45-.34,2.95-.93,4.49-.99,2.38-2.53,4.71-4.02,6.97-2.97,4.5-6.03,9.15-5.1,14.52.35,2.01,1.19,3.82,2.45,5.24,1.24,1.41,4.13,2.74,5.99,2.35.24-.05.48.1.53.34.05.24-.1.48-.34.53-.29.06-.59.09-.91.09Z"/>
                <path class="cls-2" d="m41.36,116.85c-.1,0-.21-.04-.29-.11-1.6-1.37-7.34-3.17-9.15-1.27-.17.18-.45.19-.63.02-.18-.17-.19-.45-.02-.63,2.29-2.41,8.54-.38,10.38,1.21.19.16.21.44.05.63-.09.1-.21.15-.34.15Z"/>
                <path class="cls-2" d="m45.94,127.21s-.04,0-.06,0c-.24-.03-.42-.25-.39-.5.47-3.64.38-4.95-.49-7.02-.51-1.23-1.02-1.93-1.58-2.12-.39-.14-.87-.05-1.46.28-.22.12-.49.04-.61-.17-.12-.22-.04-.49.17-.61.82-.46,1.54-.57,2.19-.34.82.29,1.49,1.12,2.11,2.62,1,2.37,1.01,3.88.55,7.47-.03.22-.22.39-.44.39Z"/>
                <path class="cls-2" d="m44.37,126.92c-.17,0-.34-.1-.41-.27-.1-.22-.19-.44-.28-.63-.11-.25-.21-.48-.29-.67-.44-1.1-.73-2.15-1.03-3.26-.1-.37-.21-.75-.32-1.13-.15-.54-.44-.95-.7-1.04-.16-.05-.36.02-.59.21-.19.16-.47.13-.63-.06-.16-.19-.13-.47.06-.63.6-.49,1.1-.48,1.42-.38.84.26,1.2,1.32,1.29,1.64.11.39.22.77.32,1.14.3,1.09.58,2.11,1,3.17.08.18.17.4.28.65.09.2.18.42.28.64.1.23,0,.49-.23.58-.06.02-.12.04-.18.04Z"/>
                <path class="cls-3" d="m41.51,128.43c-.3-.02-.52-.42-.45-.84s.39-.74.69-.67c.3.02.52.42.45.84-.03.42-.35.74-.69.67Z"/>
                <path class="cls-3" d="m36.29,128.08c-.34-.02-.56-.42-.53-.85.03-.42.35-.74.69-.71.34.03.56.42.53.85-.07.42-.39.74-.69.71Z"/>
              </g>
              <path class="cls-2" d="m31.05,130.86c-.04-.24-.26-.41-.51-.37-.24.04-.41.26-.37.51.25,1.67.43,3.62-.11,5.4-.72,2.35-2.61,4.18-4.43,5.94-.25.24-.5.48-.74.72-1.83,1.8-4.25,4.57-4.09,7.84.05.97.33,1.99.83,3.03.5,1.03,1.16,1.97,1.97,2.79.24.24.49.47.74.7.43.4.84.78,1.19,1.21.12.15.25.34.38.57-.53-.37-1.14-.57-1.72-.76-.51-.16-.99-.32-1.4-.57-.46-.29-.83-.72-1.06-1.21-.1-.22-.36-.32-.59-.22-.22.1-.32.37-.22.59.29.65.79,1.22,1.4,1.6.51.32,1.06.49,1.6.67.58.19,1.13.36,1.57.69.34.26.61.62.76,1.02.04.17.17.31.35.35.03,0,.06,0,.08,0,.17,0,.32-.1.4-.25,0-.02.01-.04.02-.06,0-.02.02-.03.02-.05,0-.02,0-.03,0-.05,0-.01,0-.03,0-.04.19-1.22-.48-2.29-.9-2.82-.39-.49-.84-.91-1.28-1.31-.24-.22-.48-.44-.7-.67-.74-.75-1.34-1.61-1.8-2.55-.45-.93-.7-1.83-.74-2.68-.14-2.91,2.12-5.48,3.83-7.16.24-.24.49-.47.73-.71,1.91-1.84,3.88-3.75,4.66-6.32.59-1.95.4-4.02.14-5.79Z"/>
              <path class="cls-2" d="m43,144.94c-.18,0-.35-.11-.41-.28-1.17-3-.58-9.44.71-12.98.08-.23.34-.35.57-.27.23.08.35.34.27.57-1.21,3.32-1.8,9.57-.71,12.35.09.23-.02.49-.25.58-.05.02-.11.03-.16.03Z"/>
            </g>
            <g>
              <path class="cls-5" d="m38.34,134.48c1.68.29,2.39-1.9,2.39-1.9-.05.19-4.16-.26-4.13-.48,0,0,.23,2.1,1.73,2.38Z"/>
              <path class="cls-2" d="m38.64,134.95c-.12,0-.25-.01-.38-.03-1.63-.3-2.02-2.2-2.09-2.67-.02-.06-.02-.13-.01-.21.03-.22.22-.39.45-.38.11,0,.21.04.28.11.52.17,3.11.46,3.64.41.09-.05.21-.06.32-.03.23.07.37.3.31.54,0,.03-.02.06-.03.09-.29.82-1.13,2.18-2.5,2.18Zm-.22-.91c.77.13,1.3-.48,1.6-.98-.21-.01-.45-.03-.74-.06-.74-.07-1.52-.17-2.06-.26.18.52.53,1.17,1.21,1.3Z"/>
            </g>
          </g>
          <g>
            <path class="cls-7" d="m27.6,271.87s.52-5.3,1.11-9.98c-2.96.4-5.92.13-8.63-.47.03,4,.99,10.85,1.1,11.64.03,1.03-.09,1.93-.31,2.83.06-.03.13-.05.19-.09.45-.24.82-.59,1.21-.93.35-.31.72-.63,1.16-.82.37-.16.79-.22,1.19-.22.85,0,1.74.24,2.47.69.4.25.65.69,1.06.91-.35-1.26-.63-2.56-.54-3.56Z"/>
            <path class="cls-10" d="m29.63,279.94c-.09-.63-.76-2.24-1.31-3.98-.08-.02-.16-.04-.23-.07-.43-.18-.67-.53-1.01-.82-.63-.55-1.65-.79-2.47-.79-.42,0-.84.07-1.2.28-.44.25-.8.61-1.19.94-.46.4-.95.69-1.49.9-.49,1.76-1.26,3.68-1.8,6.8-.05.3-.1.62-.02.91.13.44.52.74.92.97,2.8,1.63,7.2,1.14,9.19.16,2.02-1,.91-3.18.6-5.29Z"/>
            <path class="cls-2" d="m30.33,281.2c-.1-.44-.2-.89-.27-1.33-.06-.4-.31-1.1-.62-1.98-.62-1.74-1.55-4.36-1.41-5.99.01-.12.53-5.37,1.11-9.96.03-.24-.14-.47-.39-.5-.25-.03-.47.14-.5.39-.58,4.63-1.11,9.94-1.11,9.99-.16,1.83.77,4.45,1.46,6.37.29.8.53,1.49.58,1.81.07.47.18.94.28,1.39.41,1.79.58,2.84-.64,3.44-1.89.93-6.09,1.42-8.77-.14-.41-.24-.64-.47-.71-.71-.06-.2-.01-.47.03-.71.39-2.21.88-3.8,1.32-5.19.6-1.9,1.07-3.41.92-5.49,0-.09-.6-8.91-.62-11.57,0-.24-.2-.44-.45-.44-.25,0-.44.2-.44.45.02,2.68.6,11.25.62,11.62.14,1.91-.29,3.28-.88,5.16-.45,1.42-.95,3.04-1.35,5.31-.06.32-.12.71,0,1.11.18.62.73,1,1.12,1.23,1.4.81,3.14,1.13,4.8,1.13,1.89,0,3.69-.41,4.81-.96,1.9-.94,1.48-2.79,1.11-4.43Z"/>
            <path class="cls-2" d="m20.86,276.77c-.16,0-.32-.09-.4-.24-.11-.22-.02-.49.2-.6.36-.18.67-.5.98-.84.23-.25.47-.5.76-.72,1.39-1.08,3.59-.98,5.02.22.25.21.47.44.68.67.12.13.24.25.36.37.18.17.18.45,0,.63-.17.18-.45.18-.63,0-.13-.13-.26-.26-.39-.4-.2-.22-.4-.42-.61-.6-1.12-.94-2.83-1.03-3.9-.2-.23.18-.44.4-.66.63-.36.38-.73.77-1.23,1.02-.06.03-.13.05-.2.05Z"/>
            <path class="cls-2" d="m24.58,287.4c-1.63,0-3.01-.34-3.93-.65-.83-.28-2.14-.86-2.32-1.28-.22-.51-.17-1.08.12-1.49.15-.2.42-.24.62-.1.2.15.24.42.1.62-.1.13-.12.35-.05.55.59.48,5.48,2.98,10.65.1.21-.12.29-.55.15-.81-.12-.22-.03-.49.18-.6.22-.12.49-.03.6.18.34.63.19,1.62-.5,2.01-2,1.11-3.95,1.47-5.62,1.47Z"/>
          </g>
          <g>
            <path class="cls-7" d="m55.73,272.18c-.13.04.06-6.8.35-14.51-3.11,1.05-6.37,1.79-9.67,1.6,1.9,12.22,1.84,13.06,1.84,13.06-.53.33-1.14,3.79-1.12,4.29,2.16.64,4.21,1.93,6.43,1.01,1.08-.25.9-3.5,1.91-3.98.62-.22.23-.98.27-1.47Z"/>
            <path class="cls-2" d="m55.8,273.57c-.19,0-.36-.12-.42-.31-.31-.97-.27-5.82.12-15.74,0-.24.21-.43.44-.43.26.01.46.22.45.46-.37,9.41-.43,14.6-.16,15.43.07.23-.05.48-.29.56-.05.01-.09.02-.14.02Z"/>
            <g>
              <path class="cls-8" d="m70.43,282.93c.12-.2.19-.43.18-.66-.06-.68-.71-.99-1.3-1.2-2.12-.76-4.34-1.21-6.45-2.01-.81-.31-2.69-1.56-4.45-3.63-.6-.71-.94-1.78-1.84-2.04-.17-.05-.35-.06-.52-.04-.46.4-.76.93-1.02,1.51-.28.63-.5,1.29-.9,1.86-.43.63-1.02,1.06-1.72,1.35-1.65.68-4.33-1.06-4.33-1.06-.06-.01-.98-.56-1.04-.58-.29,1.14-.69,3.65-.53,4.92l.37,1.57-.21.15c-.26.19-.18.63.07.83.25.2,5.97.12,5.97.12.68-.07,2.03-.27,2.71-.29,1.42-.04,2.98.67,4.37.93,1.22.23,9.15.34,10.49-.58.28-.19.39-.84.28-1.16h-.13Z"/>
              <path class="cls-2" d="m46.87,283.38c-.19,0-.36-.12-.42-.31-.51-1.61-.66-3.32-.43-4.82.13-.82.43-1.58.73-2.31.09-.23.18-.45.27-.68.32-.85.72-3.25.78-3.57,0-3.09-.6-7-1.49-11.94-.04-.24.12-.47.36-.52.24-.04.47.12.52.36.9,5,1.5,8.97,1.5,12.13,0,.02,0,.05,0,.07-.02.11-.46,2.79-.83,3.78-.09.23-.18.47-.28.7-.29.72-.57,1.4-.68,2.11-.21,1.35-.06,2.96.4,4.42.07.23-.06.48-.29.56-.04.01-.09.02-.13.02Z"/>
              <path class="cls-2" d="m65.61,284.35c-2.8,0-5.6-.27-8.34-.81l-.24-.05c-.79-.16-1.54-.31-2.29-.26-.32.02-.64.08-.98.14-.3.05-.6.11-.91.14-.48.05-.96.03-1.42.02l-4.56-.15c-.25,0-.44-.21-.43-.46,0-.24.21-.43.44-.43.01,0,4.57.15,4.57.15.46.01.89.03,1.32-.01.28-.03.55-.08.84-.13.35-.06.71-.13,1.08-.15.86-.06,1.71.11,2.52.27l.24.05c3.56.7,7.2.94,10.82.71.53-.03,1.03-.08,1.41-.31.3-.18.56-.57.46-.89-.11-.33-.56-.53-.98-.69-.99-.36-2.03-.65-3.04-.94-1.13-.32-2.29-.65-3.42-1.07-.86-.32-2.8-1.59-4.64-3.76-.16-.18-.31-.42-.47-.67-.5-.78-.92-1.36-1.43-1.26-.38.07-.52.64-.66,1.38-.05.25-.09.49-.16.69-.47,1.45-1.51,2.41-2.93,2.71-1.24.26-4.98-1.16-5.69-1.79-.18-.16-.2-.44-.04-.63.16-.19.44-.2.63-.04.59.52,4.04,1.78,4.92,1.59,1.1-.23,1.89-.97,2.26-2.12.05-.15.09-.36.13-.58.15-.8.36-1.89,1.36-2.08,1.14-.22,1.84.86,2.35,1.65.14.22.28.43.4.57,1.72,2.03,3.53,3.22,4.27,3.5,1.09.41,2.24.74,3.35,1.05,1.02.29,2.07.59,3.1.95.59.21,1.29.55,1.52,1.25.26.78-.23,1.56-.85,1.93-.56.33-1.18.4-1.82.44-.9.06-1.81.08-2.71.08Z"/>
              <path class="cls-2" d="m64.49,285.45c-2.5,0-4.9-.23-5.48-.34-.6-.11-1.09-.3-1.57-.48-.67-.25-1.25-.48-2.01-.45-.41.01-1.35.14-2.11.24-.46.06-.87.12-1.12.14-.01,0-.03,0-.04,0-5.32,0-5.56-.2-5.7-.31-.25-.2-.4-.53-.4-.86,0-.28.14-.53.35-.68.2-.14.48-.1.62.1.14.19.1.46-.08.6,0,.02.01.06.03.1.52.09,2.96.15,5.15.15.25-.03.64-.08,1.07-.13.82-.11,1.74-.23,2.2-.25.93-.03,1.66.24,2.35.5.44.17.9.34,1.42.44,1.27.24,9.07.8,10.84-.5.09-.08.18-.49.12-.66-.08-.23.05-.49.28-.56.23-.08.49.05.56.28.16.49,0,1.34-.44,1.66-1.06.78-3.61,1-6.05,1Z"/>
            </g>
          </g>
          <path class="cls-11" d="m55.92,184.93c0-.14-.02-.27-.02-.41-.03-.51-.06-1.01-.09-1.48,0-.11-.01-.22-.02-.32h-.76c-.22.14-.46.26-.7.35-.02,0-.05.02-.07.03-.41.16-.84.26-1.27.32,0,0-.02,0-.03,0-.02,0-.04,0-.06,0-.02,0-.03,0-.04,0-.06,0-.11-.04-.14-.09-1.33.33-2.68.57-4.05.74-2.51.3-5.02.28-7.51.07-.03,0-.05,0-.08,0-.03.03-.08.05-.13.05-.18,0-.35,0-.53-.02-.47-.03-.94-.09-1.41-.15-.04,0-.07-.02-.1-.04-.04-.02-.06-.05-.08-.09-2.6-.33-5.19-.83-7.76-1.36h-.79s-1.09-.01-1.09-.01c0,0-4.41,5.5-5.89,19.95-1.48,14.46-14.65,54.32-14.65,54.32,0,0,4.98,3.2,11.43,4.62,2.7.59,5.66.87,8.63.47,1.21-.16,2.43-.44,3.62-.85,1.05-.37,2.16-.59,3.32-.71,1.38-.32,2.75-.71,4.15-.97.72-.13,1.45-.23,2.19-.26.78-.03,1.55.03,2.32.08.7.04,1.4.08,2.09.1.73.02,1.45.03,2.18,0,1.36-.06,2.71-.29,4.03-.6,1.17-.28,2.32-.61,3.46-.99.12-.04.25-.08.37-.12.61-.21,1.2-.45,1.82-.61.61-.17,1.22-.3,1.85-.36,2.01-.2,2.95-.23,3.35-.2-.2-2-3.75-23.2-5.19-41.08-.94-11.64-1.9-22.82-2.37-30.36Z"/>
          <path class="cls-2" d="m27.38,262.25c-9.51,0-18.47-4.81-18.94-5.06-.19-.1-.28-.33-.21-.53.13-.4,13.17-39.98,14.63-54.22,1.48-14.42,5.8-19.96,5.99-20.18.15-.19.43-.22.63-.07.19.15.22.43.07.63-.04.05-4.35,5.6-5.8,19.72-1.4,13.61-13.24,50.02-14.56,54.05,2.2,1.11,14.94,7.18,25.27,3.7,5.5-1.86,7.42-1.73,9.63-1.59.72.05,1.47.1,2.39.07,1.92-.04,5.01-.35,11.92-2.39,2.39-.71,3.75-.74,4.52-.58-.94-6.56-7.21-51.21-7.21-70.14,0-.18,0-.37.02-.58.03-.69.07-1.46-.27-1.86-.16-.19-.14-.47.05-.63.19-.16.47-.14.63.05.58.67.53,1.68.49,2.49,0,.19-.02.37-.02.54,0,20.28,7.24,70.31,7.31,70.81.03.21-.09.4-.28.48-.18.07-.38.02-.5-.13-.06-.05-.91-.64-4.48.41-7.01,2.07-10.17,2.38-12.15,2.43-.96.02-1.73-.03-2.47-.08-2.12-.14-3.96-.25-9.29,1.54-2.4.81-4.9,1.13-7.36,1.13Z"/>
          <path class="cls-2" d="m27.61,207.51s-.05,0-.07,0c-.24-.04-.41-.27-.37-.51.33-1.96.63-3.93.92-5.83,1.24-8.08,2.32-15.06,4.69-18.17.15-.2.43-.23.62-.08.2.15.23.43.08.62-2.23,2.93-3.34,10.14-4.51,17.77-.29,1.91-.6,3.88-.93,5.84-.04.22-.23.37-.44.37Z"/>
          <path class="cls-2" d="m39.52,199.55c-.23,0-.42-.17-.44-.4-.45-4.87-.35-9.8.3-14.65.03-.24.26-.41.5-.38.24.03.41.26.38.5-.64,4.78-.74,9.65-.29,14.45.02.25-.16.46-.4.48-.01,0-.03,0-.04,0Z"/>
          <path class="cls-2" d="m53.39,221.94c-.25,0-.45-.21-.45-.45,0-.25.47-25.36-1.75-34.29-.06-.24.09-.48.32-.54.24-.06.48.09.54.32,2.25,9.04,1.79,33.48,1.77,34.52,0,.24-.2.44-.45.44Z"/>
          <path class="cls-2" d="m42.11,144.94c-.11,0-.22-.04-.3-.12-.49-.45-1.2-1.12-1.91-1.78-.7-.66-1.41-1.33-1.9-1.78-.2-.19-.46-.42-.59-.77-.12-.34-.09-.67-.06-.94l.24-2.3c.03-.24.24-.42.49-.4.24.03.42.24.4.49l-.24,2.3c-.02.19-.04.4,0,.54.05.14.21.29.36.42.49.45,1.2,1.12,1.91,1.78.7.66,1.41,1.33,1.9,1.78.18.17.19.45.03.63-.09.1-.21.14-.33.14Z"/>
          <g>
            <g>
              <path class="cls-7" d="m46.07,145.69c-.3-.51-.84-.67-1.32-.36-1.48-.3-3.18-1.3-4.58.02,1.59,1.25,2.73,3.13,4.21,4.54.18-2.73,2.8-3.03,1.69-4.21Z"/>
              <g>
                <g>
                  <path class="cls-5" d="m56.75,139.45c-.54-.63-1.25-1.02-2.04-1.22-.15.49-.51.87-1.38,1.23-2.53.62-1.25,3.1-3.63,2.82-.59-.17-2,.2-1.98-.69-.06-.29-.2-.54-.37-.76-.75.83-1.27,1.79-1.41,2.83-.15.93-.73,1.55-.05,2.2.21.2.49.47.36.73-4.61,3.44,3.46,7.65,5.35,10.53,2.32,2.37,4.61,4.77,6.98,7.09.2.24.5.3.78.16,11.03-2.12-.12-19.09-2.61-24.93Z"/>
                  <path class="cls-1" d="m49.47,128.7c1.55-.2,3.29.43,3.79,2.04.02.19.04.36.07.52.29.52.54,1.07.79,1.59.62.18,2.48.8,2.23-.39-.17-5.07-5.69-8.24-10.1-5.56-1.9,1.59-1.99,2.16-1.28,2.29,1.21-.62,3.11-.43,4.51-.48Z"/>
                  <path class="cls-7" d="m49.7,142.28c2.39.28,1.1-2.2,3.63-2.82.87-.35,1.23-.74,1.38-1.23.15-.47.11-1.02.16-1.72.58-.58,1.72-.79,1.72-1.84-.3-2.56-2.72-.14-3.27-3.4-.03-.16-.05-.33-.07-.52-.49-1.61-2.23-2.24-3.79-2.04-1.4.05-3.31-.14-4.51.48-.77.4-1.26,1.12-1.14,2.45.96,2.39-1.11,5.04.82,7.04.63.91,2.02,1.31,2.71,2.16.18.22.31.46.37.76-.02.88,1.38.51,1.98.69Z"/>
                </g>
                <g>
                  <path class="cls-2" d="m54.66,136.99s-.06,0-.09,0c-.25,0-.44-.22-.43-.46,0-.25.22-.44.46-.43.62.02,1.05-.32,1.24-.52.29-.31.44-.72.4-1.05-.04-.33-.17-.57-.36-.65-.19-.08-.46-.02-.74.18-.2.14-.48.1-.62-.1-.14-.2-.1-.48.1-.62.54-.39,1.13-.48,1.62-.27.48.21.81.71.89,1.36.07.6-.16,1.26-.62,1.76-.48.52-1.14.81-1.84.81Z"/>
                  <path class="cls-2" d="m55.09,135.6c-.08,0-.16-.02-.24-.07-.2-.13-.27-.4-.14-.6.02-.04.23-.36.68-.58.22-.11.49-.02.59.21.11.22.02.49-.21.59-.21.1-.31.24-.31.25-.09.13-.23.2-.38.2Z"/>
                  <path class="cls-2" d="m47.64,136.54c-.07,0-.13-.01-.2-.05-.5-.25-.78-.83-.64-1.36.06-.22.16-.37.24-.49.08-.11.13-.19.15-.33.04-.21-.07-.58-.14-.76-.09-.23.02-.49.24-.58.23-.09.49.01.58.24.03.07.29.71.19,1.25-.06.33-.2.53-.3.68-.06.09-.1.14-.12.21-.03.12.05.27.17.34.22.11.31.37.2.6-.08.16-.24.25-.4.25Z"/>
                  <path class="cls-2" d="m45.13,132.45c-.16,0-.32-.09-.4-.24-.11-.22-.02-.49.2-.6.26-.13.68-.28,1.23-.23.24.02.43.24.41.48-.02.24-.23.43-.48.41-.33-.03-.59.06-.75.14-.06.03-.13.05-.2.05Z"/>
                  <path class="cls-2" d="m49.11,131.76c-.16,0-.32-.09-.4-.25-.11-.22-.02-.49.2-.6.66-.33,1.71-.2,2.11-.05.23.08.35.34.27.57-.08.23-.34.35-.57.27-.24-.09-1.04-.17-1.41.01-.06.03-.13.05-.2.05Z"/>
                  <path class="cls-2" d="m56.49,134.26s-.09,0-.14-.02c-.23-.07-.36-.33-.29-.56.24-.76-.05-3.41-1.41-4.75-.18-.17-.18-.45,0-.63.17-.18.45-.18.63,0,1.63,1.6,1.99,4.58,1.64,5.66-.06.19-.24.31-.42.31Z"/>
                  <path class="cls-2" d="m48.57,141.61c-.71,0-1.42-.16-2.12-.54-1.3-.7-2.79-2.07-3.06-3.82-.11-.71-.02-1.37.06-2.01.06-.43.11-.83.11-1.25,0-.36-.03-.71-.05-1.09-.08-1.1-.16-2.24.37-3.35.11-.22.37-.32.59-.21.22.11.32.37.21.59-.43.89-.36,1.87-.29,2.9.03.38.05.76.06,1.15,0,.48-.06.93-.12,1.37-.08.6-.16,1.18-.07,1.76.22,1.43,1.54,2.6,2.6,3.17,2.31,1.24,4.99-.4,6.5-2.46.15-.2.42-.24.62-.1.2.15.24.42.09.62-1.3,1.77-3.38,3.25-5.52,3.25Z"/>
                  <path class="cls-2" d="m43.96,130.94c-.24,0-.44-.19-.45-.44-.07-3.22,3.28-4.72,4.82-4.91,4.71-.57,5.93,1.62,5.98,1.71.12.22.03.49-.18.6-.21.11-.48.04-.6-.18-.02-.04-1.07-1.74-5.09-1.25-1.29.16-4.1,1.38-4.04,4,0,.25-.19.45-.44.45h0Z"/>
                  <path class="cls-2" d="m55.59,133.84c-1.38,0-2.25-.67-2.38-1.82-.13-1.14-.82-2.15-1.84-2.71-.68-.37-1.97-.21-3.01-.08-.46.06-.9.11-1.27.12-.17,0-.32,0-.47,0-.93,0-1.32.01-2.04.71-.18.17-.46.17-.63-.01-.17-.18-.17-.46,0-.63.97-.94,1.64-.95,2.65-.96.14,0,.29,0,.45,0,.33,0,.74-.06,1.18-.11,1.23-.15,2.62-.32,3.54.18,1.28.69,2.14,1.96,2.3,3.39.03.25.12,1.03,1.49,1.03.25,0,.44.2.44.45,0,.25-.2.44-.45.44Z"/>
                  <path class="cls-2" d="m54.82,138.49c-.24,0-.43-.19-.44-.43,0-.11-.04-1.13.23-1.69.11-.22.37-.31.6-.21.22.11.31.37.21.6-.12.25-.15.89-.14,1.26.01.25-.18.45-.42.46,0,0-.01,0-.02,0Z"/>
                  <path class="cls-2" d="m52.76,140.01c-.09.15-.18.31-.32.42-.19.16-.44.24-.69.3-.45.11-.92.2-1.38.25.1-.13.24-.22.37-.3,1-.63,1.76-1.45,2.65-2.2.21.26-.48,1.26-.64,1.53Z"/>
                  <path class="cls-3" d="m45.48,134.26c-.03-.34.17-.65.41-.65.24-.03.48.24.51.58.03.34-.17.65-.41.65-.27.03-.48-.21-.51-.58Z"/>
                  <path class="cls-3" d="m49.57,133.8c0-.34.21-.65.48-.65s.51.27.51.62-.21.65-.48.65-.51-.27-.51-.62Z"/>
                </g>
              </g>
              <path class="cls-2" d="m49.05,142.8c-.28,0-.55-.03-.79-.11-.72-.23-1.14-.79-1.19-1.58-.01-.25.17-.46.42-.47.24-.01.46.17.47.42.02.42.2.66.57.78.83.26,2.17-.24,2.45-.59.15-.19.43-.22.63-.07.19.15.22.43.07.63-.43.54-1.6.99-2.62.99Z"/>
              <path class="cls-2" d="m50.36,150.62c-.22,0-.41-.16-.44-.38-.23-1.45-.48-3.63-.1-5.77.38-2.12,1.35-3.95,2.74-5.16l.16-.14c.68-.6,1.13-.99,2.19-1.13.24-.03.47.14.5.39.03.24-.14.47-.39.5-.79.1-1.08.35-1.71.91l-.17.15c-1.23,1.08-2.1,2.73-2.45,4.65-.27,1.53-.24,3.28.1,5.48.04.24-.13.47-.37.51-.02,0-.05,0-.07,0Z"/>
              <path class="cls-2" d="m52.05,156.4c-.81,0-1.58-.25-2.16-.47-.23-.09-.35-.34-.26-.57.09-.23.34-.35.57-.26.71.27,1.75.59,2.64.28.83-.28,1.53-1.1,2.08-2.42.96-2.3,1.24-4.92.78-7.37-.04-.24.12-.47.36-.52.24-.05.47.11.52.36.48,2.62.19,5.42-.84,7.88-.65,1.57-1.53,2.55-2.62,2.92-.36.12-.73.17-1.09.17Z"/>
              <path class="cls-2" d="m45.66,146.1c-.23,0-.43-.18-.44-.42-.05-.87.32-2.64,1.52-4.98.11-.22.38-.31.6-.19.22.11.31.38.19.6-1.11,2.19-1.46,3.81-1.42,4.53.01.25-.17.46-.42.47,0,0-.02,0-.03,0Z"/>
              <path class="cls-2" d="m44.7,150.11c-.23,0-.42-.17-.44-.4-.04-.41.05-.79.15-1.15.1-.35.25-.8.52-1.22.29-.45.67-.78,1.09-.95.72-.29,1.32.24,1.75.62.15.13.29.26.43.35.76.51,1.55,1.05,2.28,1.65.19.16.21.44.06.63-.16.19-.44.22-.63.06-.69-.58-1.46-1.1-2.21-1.6-.18-.12-.36-.28-.52-.42-.37-.33-.63-.54-.83-.46-.32.13-.55.4-.68.61-.2.32-.33.69-.41.99-.08.27-.15.55-.12.8.03.24-.15.46-.4.49-.02,0-.03,0-.05,0Z"/>
              <path class="cls-2" d="m43.04,148.31c-.21,0-.4-.15-.44-.36-.11-.59.11-1.23.58-1.62,0,0,.01-.01.03-.02v-.05c.13-.38.47-.66.86-.7.03,0,.07,0,.1,0,.02-.03.04-.06.06-.08.41-.51,1.17-.49,1.66-.18.43.27.69.71.89,1.06.12.21.05.48-.16.61-.21.12-.48.05-.61-.16-.16-.28-.35-.59-.6-.75-.17-.11-.41-.11-.5,0l-.03.04c-.06.08-.15.21-.31.29-.15.07-.28.08-.37.08h-.05s-.08.04-.09.07c-.02.08-.04.17-.09.26-.07.12-.16.19-.21.24-.23.2-.34.5-.29.78.05.24-.11.47-.35.52-.03,0-.06,0-.08,0Z"/>
              <path class="cls-2" d="m44.57,146.01c-.08,0-.16-.02-.23-.06-1.57-.95-2.73-1.04-3.45-.27-.17.18-.45.19-.63.02-.18-.17-.19-.45-.02-.63.72-.77,2.1-1.38,4.56.12.21.13.28.4.15.61-.08.14-.23.21-.38.21Z"/>
              <path class="cls-2" d="m53.22,159.09c-.14,0-.28-.07-.36-.19-.14-.2-.09-.48.11-.62,1.34-.94,2.98-1.42,4.62-1.33.25.01.43.22.42.47-.01.25-.22.43-.47.42-1.44-.08-2.88.34-4.05,1.16-.08.05-.17.08-.26.08Z"/>
            </g>
            <path class="cls-2" d="m59.3,144.26c-.18,0-.34-.11-.41-.28-.91-2.27-1.92-3.97-4.13-5.45-.2-.14-.26-.41-.12-.62.14-.2.41-.26.62-.12,2.38,1.61,3.5,3.5,4.45,5.86.09.23-.02.49-.25.58-.05.02-.11.03-.17.03Z"/>
            <path class="cls-2" d="m59.07,164.71c-.25,0-.45-.2-.45-.45s.2-.45.45-.45c2.83,0,4.45-2.03,4.69-3.48.27-1.61-.06-3.25-.43-4.65-.32-1.21-.71-2.42-1.16-3.58-.09-.23.02-.49.25-.58.23-.09.49.02.58.25.47,1.2.87,2.44,1.19,3.68.39,1.49.75,3.25.44,5.03-.28,1.63-2.04,4.22-5.57,4.22Z"/>
            <path class="cls-2" d="m47.76,138.44c-.4,0-.79-.09-1.09-.26-.21-.12-.29-.39-.17-.61.12-.21.39-.29.61-.17.17.1.42.16.69.15.11,0,.23-.01.36-.04.33-.06.62-.18.82-.32.2-.15.48-.1.62.1.15.2.1.48-.1.62-.31.23-.72.39-1.19.48-.18.03-.34.05-.5.05-.02,0-.04,0-.06,0Z"/>
            <path class="cls-2" d="m45.56,145.16c-.3,0-.77-.03-1.26-.07-.65-.05-1.38-.1-1.69-.07-.25.02-.46-.16-.48-.4-.02-.24.16-.46.4-.48.38-.03,1.12.02,1.83.07.49.04,1.01.07,1.25.07.25-.02.45.19.46.43,0,.25-.19.45-.43.46-.02,0-.05,0-.08,0Z"/>
          </g>
          <path class="cls-2" d="m35.93,140.85c-.75,0-1.56-.05-2.36-.19-1.56-.27-2.93-.87-3.97-1.73-.19-.16-.21-.44-.06-.63.16-.19.44-.22.63-.06.91.76,2.14,1.29,3.55,1.53,1.44.25,2.9.18,4.02.09.25-.02.46.16.48.41.02.25-.16.46-.41.48-.56.04-1.2.08-1.88.08Z"/>
          <g>
            <path class="cls-5" d="m56.02,174.8c1.4-.34,2.6-1.4,3.12-2.73.02-.05.04-.11.02-.17-.02-.05-.07-.09-.11-.12-.44-.32-.78-.78-.94-1.31-.02-.07-.05-.15-.11-.19-.06-.03-.13-.02-.19,0-.56.1-1.11.2-1.67.3-.65.12-.58.26-.51.89.03.28.32,3.33.4,3.33Z"/>
            <path class="cls-5" d="m55.96,174.84c-.16-1.31-.33-2.63-.49-3.94l-7.12-3.16c.52,3.17,1.31,6.3,2.34,9.35,1.86.41,3.86.48,5.55-.4.06-.66-.2-1.19-.29-1.85Z"/>
            <g>
              <g>
                <path class="cls-5" d="m60.41,174.83l-3.45,3.24.55.84c.42-.15,3.07-2.22,3.4-2.68.15-.2.3-.42.28-.67-.03-.38-.44-.59-.79-.73Z"/>
                <g>
                  <path class="cls-5" d="m48.22,182.59l-.22.12c.15.32.26.82.61.87.79.11,4.73-1.04,6.5-2.6.22-.2,1.22-.7,1.48-.88.26-.18,1.12-.55.84-1.28-.14-.36-.13-.57-.46-.74l-.07.04c-.06.09-.12.19-.14.32-.91,1.39-6.51,4.59-8.53,4.16Z"/>
                  <path class="cls-4" d="m60.25,174.38c-.2-.75-1.05-1.16-1.29-1.89-.85,1.01-1.95,1.81-3.16,2.31.15.66.73,1.42.46,2.09,0-.02-5.37.43-5.37.43-.5,1.46-2.06,2.08-3.07,3.12-.6,1.37-.33,1.99.4,2.15,2.02.43,7.62-2.77,8.53-4.16.02-.13.08-.23.14-.32.3-.43.95-.52,1.32-.92.6-.99,2.4-1.37,2.05-2.81Z"/>
                </g>
                <path class="cls-2" d="m48.72,184.02c-.07,0-.13,0-.18-.01-.53-.07-.73-.58-.86-.91-.03-.07-.06-.14-.09-.2-.11-.22-.01-.49.21-.59.22-.11.49-.01.59.21.04.08.07.17.11.26.05.11.13.33.19.37.62.08,4.41-1.01,6.12-2.51.15-.14.46-.31.95-.58.22-.12.48-.27.57-.33.04-.03.1-.07.17-.11.47-.28.59-.44.51-.65-.03-.08-.06-.16-.08-.23-.07-.21-.07-.22-.17-.26-.22-.11-.31-.38-.2-.6.11-.22.38-.31.6-.2.44.22.53.52.62.79.02.06.04.12.06.19.36.98-.54,1.52-.88,1.73-.05.03-.09.05-.12.07-.13.09-.37.22-.65.38-.26.15-.7.39-.8.47-1.71,1.5-5.43,2.72-6.68,2.72Z"/>
                <path class="cls-2" d="m56.82,178.51c-.18,0-.35-.11-.42-.3-.08-.23.04-.49.27-.57.54-.19,2.87-2.09,3.08-2.51.09-.18.12-.34.08-.43-.02-.04-.06-.09-.1-.15l-.05-.07c-.06-.09-.13-.18-.2-.27-.29-.39-.62-.83-.74-1.32-.06-.24.09-.48.33-.54.24-.06.48.09.54.33.07.3.35.67.59.99.08.1.15.2.22.3l.04.06c.06.09.14.19.2.32.15.34.11.75-.1,1.18-.36.71-2.96,2.73-3.58,2.95-.05.02-.1.03-.15.03Z"/>
                <path class="cls-2" d="m57.52,179.35c-.18,0-.36-.11-.42-.3-.08-.23.04-.49.27-.57.41-.17,2.92-2.15,3.19-2.52.07-.1.2-.27.19-.37,0-.05-.06-.17-.51-.36-.23-.09-.34-.35-.25-.58.09-.23.35-.34.58-.25.28.11,1.01.41,1.07,1.11.04.42-.21.76-.36.97-.39.53-3.09,2.65-3.62,2.84-.05.02-.1.03-.15.03Z"/>
                <path class="cls-2" d="m56.16,175.12c-.23,0-.43-.18-.44-.42-.01-.25.17-.46.42-.47.66-.04,2.2-1.57,2.62-2.15-.02-.03-.05-.06-.08-.09-.29-.34-.72-.86-.93-1.52-.07-.23.06-.48.29-.56.24-.08.48.06.56.29.16.49.52.93.76,1.22.22.26.35.42.35.65,0,.02,0,.04,0,.06-.08.6-2.34,2.93-3.53,3,0,0-.02,0-.03,0Z"/>
                <path class="cls-2" d="m48.12,183.14c-.18,0-.31-.02-.39-.08-.2-.15-.32-.35-.39-.48-.41-.78-.36-1.75.12-2.41.26-.36.62-.6.94-.82l.08-.05c.73-.5,1.62-1.19,1.99-2.14.09-.23.35-.34.58-.25.23.09.34.35.25.58-.46,1.19-1.48,1.99-2.32,2.56l-.08.05c-.28.19-.55.37-.72.61-.28.39-.3.98-.05,1.47.02.04.04.07.06.1.73-.06,3.88-.92,5.05-1.74l.42-.3c.49-.35,1-.7,1.53-1.02,1.17-.69,1.18-1.02,1.18-1.16,0-.19-.1-.35-.28-.61-.08-.12-.16-.24-.24-.37-.12-.22-.04-.49.17-.61.22-.12.49-.04.61.17.06.1.13.2.19.3.21.3.44.64.43,1.12,0,.51-.21,1.09-1.62,1.92-.5.3-.99.64-1.47.98l-.43.3c-.97.67-4.38,1.87-5.63,1.87Z"/>
              </g>
              <path class="cls-2" d="m53.14,177.82c-.79,0-1.64-.1-2.54-.3-.15-.03-.28-.14-.33-.29-1.04-3.06-1.84-6.23-2.36-9.42-.04-.24.12-.47.37-.51.24-.04.47.12.51.37.5,3.06,1.26,6.1,2.24,9.04,1.92.39,3.49.29,4.77-.3-.01-.25-.07-.49-.14-.76-.06-.24-.12-.48-.15-.75l-.49-3.94c-.03-.24.14-.47.39-.5.25-.03.47.14.5.39l.49,3.94c.03.22.08.43.13.65.1.4.2.81.16,1.29-.01.15-.1.29-.24.36-.95.49-2.06.74-3.31.74Z"/>
            </g>
          </g>
          <path class="cls-2" d="m55.36,171.08c-1.15,0-7.29-2.73-10.81-5.74-.49-.42-1.19-1.01-2.02-1.71-8.01-6.76-15.52-13.29-16.21-15.27-.08-.23.04-.49.28-.57.23-.08.49.04.57.28.7,2.02,11.38,11.03,15.94,14.88.83.7,1.53,1.29,2.02,1.71,3.55,3.05,9.49,5.53,10.23,5.53,1.16,0,3.46-.22,4.72-1.02.21-.13.41-.28.6-.44,1.2-1.03,1.89-2.61,1.89-4.32v-1.43c0-.25.2-.45.45-.45s.45.2.45.45v1.43c0,1.97-.8,3.79-2.2,4.99-.22.19-.45.36-.7.52-1.77,1.13-4.86,1.16-5.2,1.16Z"/>
          <path class="cls-2" d="m44.46,184.93c-2.54,0-4.6-.25-6.08-.44l-.42-.05c-7.17-.87-8.54-1.79-8.68-1.89-.16-.13-.22-.35-.14-.53l2.54-5.68c-.09-.62.03-1.21.35-1.71l.3-.48c-.55-1.67-4.41-13.45-6.69-18.55-2.49-5.59-2.13-10.24-2.11-10.44.02-.25.24-.43.48-.41.24.02.43.24.41.48,0,.05-.35,4.63,2.04,10,2.45,5.51,6.74,18.7,6.78,18.84.04.13.02.26-.05.37l-.41.65c-.22.35-.3.77-.21,1.17.02.09.02.22-.02.31l-2.42,5.42c.68.28,2.7.93,7.93,1.56l.43.05c3.26.4,9.33,1.15,17.17-1.31.24-.07.48.06.56.29.07.23-.06.48-.29.56-4.44,1.39-8.32,1.78-11.46,1.78Z"/>
          <path class="cls-2" d="m55.79,183.17s-.07,0-.11-.01c-.24-.06-.38-.3-.32-.54.06-.25.04-.5,0-.79-.03-.33-.07-.71.03-1.11.06-.24.31-.38.54-.32.24.06.38.3.32.54-.06.25-.04.5,0,.79.03.33.07.71-.03,1.11-.05.2-.23.33-.43.33Z"/>
          <path class="cls-2" d="m59.07,164.96c-.11,0-.22-.04-.31-.13-.08-.08-8.13-7.89-11.96-11.89-2.9-3.02-6.98-7.31-8.85-9.29-.89-.94-1.91-1.67-3.04-2.18-2.79-1.27-5.48-1.09-6.6-.66-.23.09-.49-.03-.57-.26-.09-.23.03-.49.26-.58,1.52-.58,4.44-.62,7.29.68,1.23.56,2.35,1.36,3.31,2.38,1.87,1.97,5.95,6.26,8.85,9.28,3.82,3.99,11.86,11.79,11.94,11.87.18.17.18.45,0,.63-.09.09-.2.14-.32.14Z"/>
          <g>
            <path class="cls-7" d="m59.22,144.63c-.36.82-1.64,5.53.45,3.71-.17.69.57,1.44,1.26,1.27-.19.53.02,1.53.74,1.27-.22,1.5,1.4.31,1.75-.3.4-.58.07-1.11-.27-1.56.39-.75,0-1.84-.93-1.91.15-1.33-.49-1.59-1.15-2.56-.42-1.23-1.5-1.11-1.86.08Z"/>
            <path class="cls-2" d="m59.14,149.32c-.16,0-.33-.05-.46-.1-.34-.15-.56-.45-.6-.82-.06-.5.69-3.92,1.01-4.75.03-.07.07-.14.14-.19.24-.2.56-.28.89-.24.37.05.73.25.95.54.33.44.42,1.05.25,1.69-.06.24-1.26,3.39-1.82,3.77-.1.07-.23.1-.35.1Zm.73-5.21c-.34,1.01-.92,3.84-.91,4.19,0,.06.05.09.09.11.33-.5,1.28-2.72,1.4-3.18.1-.37.06-.71-.1-.93-.08-.1-.21-.18-.35-.19-.04,0-.09,0-.14,0Z"/>
            <path class="cls-2" d="m61.5,151.58c-.26,0-.52-.1-.76-.3-.57-.45-.21-1.74-.21-1.76.08-.23.33-.36.56-.29.23.08.36.33.29.56-.07.22-.09.66-.05.81.05.04.09.06.13.07.2-.2.65-.9,1.15-1.86.06-.12.13-.24.16-.35.04-.11.06-.24.06-.39,0-.13-.01-.22-.04-.28-.05-.1-.18-.18-.29-.17-.24.02-.46-.17-.48-.41-.02-.25.17-.46.41-.47.49-.03.97.25,1.16.7.08.19.12.4.12.66,0,.24-.04.46-.11.66-.06.18-.14.34-.22.48-1.18,2.27-1.57,2.31-1.78,2.34-.04,0-.08,0-.12,0Z"/>
            <path class="cls-2" d="m62.13,152.4c-.15,0-.31-.06-.44-.16-.28-.22-.45-.61-.43-1.01.01-.25.22-.43.46-.43.25.01.44.22.43.46,0,.06,0,.11.02.15.48-.4.91-.8.99-1.29.05-.26-.02-.55-.17-.76-.14-.2-.09-.48.11-.62.2-.14.48-.09.62.11.29.41.4.93.32,1.43-.16.9-.92,1.51-1.42,1.91-.06.05-.17.14-.32.18-.06.02-.11.02-.17.02Z"/>
            <path class="cls-2" d="m60.5,150.3c-.13,0-.29-.04-.47-.18-.29-.23-.62-.74-.62-1.12-.01-.58.18-1.25.3-1.7.04-.14.09-.32.1-.38.03-.24.24-.43.49-.4.24.02.42.24.4.48-.01.13-.06.3-.13.53-.11.39-.28.99-.27,1.44.01.08.13.28.22.38.04-.04.1-.12.17-.26.36-.67.65-1.39.94-2.09.1-.25.2-.5.2-.73-.01-.34-.34-.66-.68-.66-.25,0-.45-.2-.45-.45s.2-.45.45-.45c.83,0,1.55.7,1.57,1.52.01.41-.14.79-.26,1.09-.29.72-.6,1.47-.98,2.18-.1.19-.35.65-.83.76-.04,0-.09.02-.14.02Z"/>
          </g>
        </g>
      </g>
      <g>
        <g>
          <path class="cls-5" d="m160.47,28.99c-1.11-11.98-9.16-22.72-21.33-26.66-9.58-3.1-19.58-1.28-27.25,4.05-7.64-5.36-17.61-7.21-27.2-4.17-12.16,3.87-20.27,14.53-21.46,26.47-12.28,4.29-20.99,16.07-20.77,29.79,0,.01,0,.02,0,.03.16,13.25,8.68,24.57,20.61,28.81.65,6.83,3.57,13.26,8.22,18.24-.99,7.11-5.77,14.62-8.69,15.39,7.21.1,13.21-4.02,17.7-8.71,1.32.65,2.7,1.21,4.15,1.68,9.58,3.08,19.57,1.25,27.23-4.1,5.15,3.6,11.35,5.61,17.77,5.61,3.12,0,6.31-.48,9.45-1.48,12.16-3.89,20.25-14.59,21.41-26.54,12.22-4.3,20.9-16.05,20.68-29.72-.21-13.27-8.73-24.46-20.52-28.69Z"/>
          <path class="cls-9" d="m160.47,28.99c-1.11-11.98-9.16-22.72-21.33-26.66-9.58-3.1-19.58-1.28-27.25,4.05-7.64-5.36-17.61-7.21-27.2-4.17-12.16,3.87-20.27,14.53-21.46,26.47-12.28,4.29-20.99,16.07-20.77,29.79,0,.01,0,.02,0,.03.16,13.25,8.68,24.57,20.61,28.81.65,6.83,3.57,13.26,8.22,18.24-.99,7.11-5.77,14.62-8.69,15.39,7.21.1,13.21-4.02,17.7-8.71,1.32.65,2.7,1.21,4.15,1.68,9.58,3.08,19.57,1.25,27.23-4.1,5.15,3.6,11.35,5.61,17.77,5.61,3.12,0,6.31-.48,9.45-1.48,12.16-3.89,20.25-14.59,21.41-26.54,12.22-4.3,20.9-16.05,20.68-29.72-.21-13.27-8.73-24.46-20.52-28.69Z"/>
        </g>
        <g>
          <path class="cls-2" d="m85.37,37.68c1.19-.92,1.96-2.45,2.32-4.02l1.93.61c-.41,1.75-1.12,3.51-2.45,4.61l-1.8-1.21Zm5.24-10.55c-1.24.77-2.65,1.46-4.03,1.98-.25-.54-.76-1.37-1.19-1.85,2.92-.95,5.74-2.81,7.15-4.54h2.21c1.98,2.11,4.77,3.6,7.53,4.36-.49.56-.97,1.33-1.31,1.96-1.28-.47-2.72-1.17-4.03-1.96v1.04h-6.32v-.99Zm8.82,2.61c-.65,1.39-1.85,3.17-2.83,4.34-.41-.32-1.15-.77-1.66-1.01.56-.65,1.12-1.51,1.57-2.32h-8.61v-1.8h9.76l.34-.09,1.42.88Zm-4.25,7.6c.63,0,.76-.23.83-1.91.41.34,1.31.67,1.89.79-.25,2.41-.81,3.03-2.52,3.03h-2.57c-2.18,0-2.7-.59-2.7-2.47v-2.92h2.12v2.9c0,.5.13.58.83.58h2.12Zm-2.75-5.71c1.24.56,2.74,1.51,3.48,2.3l-1.46,1.51c-.65-.77-2.12-1.8-3.37-2.41l1.35-1.4Zm3.57-5.17c-.88-.61-1.66-1.26-2.25-1.89-.56.63-1.3,1.28-2.14,1.89h4.39Zm2.9,6.93c1.3,1.21,2.72,2.88,3.26,4.16l-1.91,1.19c-.47-1.24-1.82-3.02-3.11-4.3l1.76-1.04Z"/>
          <path class="cls-2" d="m110.28,33.16v4.57c0,.77-.11,1.21-.61,1.48-.49.27-1.1.29-1.98.29-.07-.47-.29-1.15-.52-1.6.49.02.99.02,1.15.02.18,0,.23-.05.23-.22v-4.54h-1.87v-6.54h1.6c.05-.45.13-.94.18-1.39h-2.47v5.11c0,2.7-.18,6.55-1.3,8.95-.31-.32-1.1-.9-1.51-1.1.94-2.2.99-5.38.99-7.83v-6.97h7.94v1.84h-1.62c-.14.49-.29.95-.43,1.39h2.11v6.54h-1.89Zm-1.96,1.06c-.25,1.39-.7,2.84-1.24,3.8-.32-.25-1.04-.61-1.44-.79.54-.85.9-2.11,1.1-3.33l1.58.32Zm2.16-6.12h-2.16v1.1h2.16v-1.1Zm-2.16,3.56h2.16v-1.1h-2.16v1.1Zm3.06,5.55c-.16-.72-.56-1.96-.95-2.88l1.35-.49c.41.9.88,2.09,1.04,2.83l-1.44.54Zm4.59-.11c-.85.92-2.21,1.89-3.31,2.43-.32-.38-.92-.94-1.33-1.3,1.1-.49,2.34-1.42,2.97-2.16l1.67,1.03Zm-.92-10.64c.07-.41.13-.85.16-1.26h-2.77v-1.8h7.63v1.8h-2.77c-.13.43-.25.86-.38,1.26h2.75v9.52h-6.75v-9.52h2.12Zm2.75,1.57h-3.08v1.15h3.08v-1.15Zm0,2.61h-3.08v1.15h3.08v-1.15Zm0,2.63h-3.08v1.17h3.08v-1.17Zm.25,2.83c.81.68,1.91,1.66,2.45,2.32l-1.6,1.08c-.49-.67-1.55-1.69-2.38-2.43l1.53-.97Z"/>
          <path class="cls-2" d="m130.66,38.79l-1.35-2.14c.68-.07,1.19-.18,1.67-.29,2.3-.54,4.1-2.2,4.1-4.83,0-2.48-1.35-4.34-3.78-4.75-.25,1.53-.56,3.19-1.08,4.88-1.08,3.64-2.63,5.87-4.59,5.87s-3.66-2.2-3.66-5.24c0-4.16,3.6-7.71,8.26-7.71s7.27,3.1,7.27,7.02-2.32,6.48-6.86,7.18Zm-4.95-4.03c.76,0,1.46-1.13,2.2-3.57.41-1.33.76-2.86.95-4.36-2.97.61-4.57,3.24-4.57,5.22,0,1.82.72,2.7,1.42,2.7Z"/>
          <path class="cls-2" d="m76.31,52.36c-1.3,2.11-3.6,4.99-6.14,7.04,1.03,1.03,2.09,2.2,2.79,3.04l-2.11,1.67c-.76-1.01-2.27-2.7-3.44-3.89-1.04-1.06-2.88-2.68-3.96-3.46l1.91-1.53c.72.54,1.91,1.51,3.04,2.5,2.03-1.62,3.73-3.71,4.57-5.19h-9.52c-.72,0-1.69.09-2.07.13v-2.52c.47.07,1.46.16,2.07.16h9.99c.68,0,1.3-.07,1.67-.2l1.8,1.48c-.25.29-.47.52-.61.76Z"/>
          <path class="cls-2" d="m85.8,52.72c1.85-1.15,3.91-2.95,5.08-4.38l1.94,1.85c-1.37,1.35-3.1,2.75-4.84,3.91v7.27c0,.79.04,1.91.16,2.36h-2.84c.07-.43.13-1.57.13-2.36v-5.76c-1.85.97-4.14,1.94-6.36,2.59l-1.13-2.27c3.22-.83,5.87-2,7.87-3.22Z"/>
          <path class="cls-2" d="m96.36,61.29l-1.96-1.33c1.21-1.13,2.65-3.11,3.38-4.64l2.05.95c-.83,1.6-2.5,3.96-3.48,5.02Zm7.54-11.2v1.44h4.18c.52,0,1.3-.05,1.78-.13v2.36c-.56-.04-1.26-.05-1.76-.05h-4.19v8.37c0,1.04-.61,1.69-1.89,1.69-.95,0-2.02-.04-2.92-.16l-.23-2.23c.77.14,1.57.22,2.02.22s.63-.18.65-.65c.02-.67.02-6.37.02-7.22v-.02h-4.57c-.54,0-1.22.02-1.73.07v-2.38c.54.05,1.17.13,1.73.13h4.57v-1.44c0-.47-.09-1.26-.14-1.57h2.66c-.05.25-.16,1.12-.16,1.57Zm6.73,9.9l-2.11,1.15c-.77-1.53-2.05-3.71-2.93-4.83l1.96-1.06c.92,1.15,2.36,3.42,3.08,4.74Z"/>
          <path class="cls-2" d="m115.73,54.72h9.67c.85,0,1.64-.07,2.11-.11v2.83c-.43-.02-1.35-.09-2.11-.09h-9.67c-1.03,0-2.23.04-2.9.09v-2.83c.65.05,1.96.11,2.9.11Z"/>
          <path class="cls-2" d="m136.65,51.37c-.58,1.76-2.03,6.34-2.94,8.75,2.2-.22,4.75-.5,6.57-.72-.63-1.3-1.3-2.5-1.89-3.29l2.25-.92c1.28,1.94,3.12,5.47,3.94,7.49l-2.43,1.08c-.23-.61-.52-1.35-.86-2.12-2.92.34-8.37.92-10.64,1.15-.45.05-1.12.14-1.69.22l-.41-2.63c.61,0,1.39,0,1.98-.02.14,0,.32-.02.49-.02,1.04-2.66,2.59-7.6,3.11-9.47.25-.92.36-1.48.43-2.09l2.86.59c-.23.54-.5,1.21-.77,2Z"/>
          <path class="cls-2" d="m152.76,50.34c-.11.54-.25,1.21-.38,1.85.61-.04,1.13-.07,1.51-.07,1.91,0,3.26.85,3.26,3.44,0,2.12-.25,5.04-1.03,6.61-.59,1.26-1.58,1.66-2.95,1.66-.68,0-1.55-.13-2.16-.25l-.38-2.38c.68.2,1.73.38,2.2.38.61,0,1.06-.18,1.35-.77.49-1.03.74-3.21.74-4.99,0-1.44-.63-1.64-1.75-1.64-.29,0-.74.04-1.26.07-.68,2.74-2.02,7-3.67,9.65l-2.34-.94c1.75-2.36,2.99-6,3.66-8.46-.65.07-1.22.14-1.55.18-.52.09-1.46.22-2.02.31l-.22-2.45c.67.05,1.26.02,1.93,0,.56-.02,1.4-.07,2.32-.16.25-1.35.41-2.66.38-3.8l2.68.27c-.11.47-.23,1.04-.32,1.49Zm7.63.29l-.88.38c1.08,1.67,2.43,4.68,2.94,6.28l-2.29,1.04c-.47-2-1.75-5.17-3.02-6.75l1.62-.7c-.36-.68-.81-1.55-1.22-2.12l1.42-.59c.45.67,1.1,1.8,1.44,2.47Zm2.14-.83l-1.42.61c-.38-.74-.95-1.8-1.46-2.48l1.44-.58c.47.68,1.13,1.82,1.44,2.45Z"/>
          <path class="cls-2" d="m86.67,80.69h-4.23v8.82h-2.23v-8.82h-3.91v4.25h-3.84v1.39h-2v-11.83h5.83v4.07h3.91v-5.55h2.23v5.55h4.23v2.12Zm-12.42-4.21h-1.78v6.48h1.78v-6.48Z"/>
          <path class="cls-2" d="m91.6,77.27c-.02,1.17,0,2.52.11,3.82.25,2.59.79,4.38,1.93,4.38.85,0,1.57-2.11,1.91-3.55l1.8,2.2c-1.19,3.13-2.32,4.23-3.76,4.23-1.98,0-3.69-1.78-4.2-6.61-.18-1.66-.2-3.76-.2-4.86,0-.5-.04-1.28-.14-1.84l2.77.04c-.13.65-.22,1.69-.22,2.2Zm12.5,7.54l-2.36.92c-.29-2.9-1.24-7.27-3.21-9.51l2.29-.74c1.71,2.07,3.08,6.57,3.28,9.33Z"/>
          <path class="cls-2" d="m114.75,74.66c-.02.18-.02.45-.02.74,1.48-.07,2.97-.22,4.56-.49l-.02,2.07c-1.19.14-2.83.31-4.57.4v1.85c1.82-.09,3.35-.23,4.81-.43l-.02,2.12c-1.62.18-3.02.31-4.75.36.04.68.07,1.42.13,2.14,2.27.65,4,1.85,5.04,2.72l-1.3,2.02c-.97-.9-2.2-1.85-3.64-2.5.02.25.02.47.02.67,0,1.53-1.17,2.72-3.55,2.72-2.88,0-4.39-1.1-4.39-3.01s1.67-3.1,4.45-3.1c.38,0,.76.02,1.12.05-.04-.56-.05-1.13-.07-1.67h-.94c-1.04,0-3.1-.09-4.29-.23l-.02-2.12c1.17.22,3.38.34,4.34.34h.86c0-.59,0-1.24.02-1.85h-.67c-1.13,0-3.22-.16-4.41-.32l-.05-2.05c1.3.22,3.35.4,4.45.4h.7v-.85c0-.34-.04-.9-.11-1.24h2.43c-.05.36-.09.81-.11,1.28Zm-3.64,12.35c.95,0,1.58-.27,1.58-1.31,0-.2,0-.45-.02-.77-.49-.07-.97-.13-1.48-.13-1.28,0-1.98.5-1.98,1.12,0,.68.65,1.1,1.89,1.1Z"/>
          <path class="cls-2" d="m126.54,76.06c-.07,1.94-.22,5.98-.22,8.21,0,1.82,1.08,2.41,2.48,2.41,2.97,0,4.86-1.71,6.16-3.67l1.64,1.98c-1.15,1.73-3.71,4.14-7.81,4.14-2.95,0-4.86-1.3-4.86-4.38,0-2.41.18-7.15.18-8.7,0-.85-.07-1.71-.23-2.43l2.9.04c-.11.76-.2,1.67-.23,2.4Z"/>
          <path class="cls-2" d="m144.76,75.27c-.04.2-.09.43-.14.68,1.01-.14,2.02-.34,3.01-.58v2.25c-1.08.25-2.3.45-3.51.59-.16.77-.34,1.57-.54,2.3-.65,2.52-1.85,6.19-2.86,8.34l-2.5-.85c1.08-1.8,2.45-5.58,3.11-8.1.13-.49.27-.99.38-1.51-.41.02-.81.04-1.19.04-.86,0-1.55-.04-2.18-.07l-.05-2.25c.92.11,1.53.14,2.27.14.52,0,1.06-.02,1.62-.05.07-.4.13-.74.16-1.03.07-.67.11-1.4.05-1.82l2.75.22c-.14.49-.31,1.3-.38,1.69Zm2.16,9.78c0,.79.54,1.39,2.47,1.39,1.21,0,2.45-.14,3.75-.38l-.09,2.3c-1.01.13-2.23.25-3.67.25-3.02,0-4.66-1.04-4.66-2.86,0-.83.18-1.69.32-2.41l2.14.22c-.14.5-.25,1.1-.25,1.49Zm2.74-6.21c1.03,0,2.11.05,3.17.16l-.05,2.16c-.9-.11-2-.22-3.1-.22-1.22,0-2.34.05-3.48.18v-2.11c1.01-.09,2.3-.18,3.46-.18Z"/>
        </g>
      </g>
    </g>
  </g>
</svg>