<?xml version="1.0" encoding="UTF-8"?>
<svg id="_レイヤー_2" data-name="レイヤー 2" xmlns="http://www.w3.org/2000/svg" viewBox="0 0 110.27 110.68">
  <defs>
    <style>
      .cls-1 {
        fill: #ffce7e;
      }

      .cls-2, .cls-3 {
        fill: #262626;
      }

      .cls-4 {
        fill: #f08c65;
      }

      .cls-5 {
        fill: #fff;
      }

      .cls-6, .cls-7 {
        fill: #ffddc0;
      }

      .cls-6, .cls-3 {
        fill-rule: evenodd;
      }

      .cls-8 {
        fill: #d9946c;
      }

      .cls-9 {
        fill: none;
        stroke: #262626;
        stroke-linecap: round;
        stroke-linejoin: round;
      }

      .cls-10 {
        fill: #d7956f;
      }

      .cls-11 {
        fill: #4a8f9e;
      }

      .cls-12 {
        fill: #fff400;
      }

      .cls-13 {
        fill: #ffd599;
      }
    </style>
  </defs>
  <g id="illustration">
    <g>
      <g>
        <g>
          <path class="cls-12" d="m7.5,52.35l-.06.75c-.05.69-.41,1.24-.86,1.32l-.49.09.49.09c.45.08.81.63.86,1.32l.06.75.06-.75c.05-.69.41-1.24.87-1.32l.49-.09-.49-.09c-.45-.08-.81-.63-.87-1.32l-.06-.75Z"/>
          <path class="cls-12" d="m34.63,37.56l-.06.75c-.05.69-.41,1.24-.86,1.32l-.49.09.49.09c.45.08.81.63.86,1.32l.06.75.06-.75c.05-.69.41-1.24.87-1.32l.49-.09-.49-.09c-.45-.08-.81-.63-.87-1.32l-.06-.75Z"/>
          <path class="cls-12" d="m5.51,27.61l-.06.75c-.05.69-.41,1.24-.86,1.32l-.49.09.49.09c.45.08.81.63.86,1.32l.06.75.06-.75c.05-.69.41-1.24.87-1.32l.49-.09-.49-.09c-.45-.08-.81-.63-.87-1.32l-.06-.75Z"/>
          <path class="cls-12" d="m24.73,24.63l-.06.75c-.05.69-.41,1.24-.86,1.32l-.49.09.49.09c.45.08.81.63.86,1.32l.06.75.06-.75c.05-.69.41-1.24.87-1.32l.49-.09-.49-.09c-.45-.08-.81-.63-.87-1.32l-.06-.75Z"/>
          <path class="cls-12" d="m.77,40.01l-.03.41c-.03.38-.22.67-.47.72l-.27.05.27.05c.25.04.44.34.47.72l.03.41.03-.41c.03-.37.22-.67.47-.72l.27-.05-.27-.05c-.25-.04-.44-.34-.47-.72l-.03-.41Z"/>
          <path class="cls-12" d="m35.11,47.03l-.03.41c-.03.38-.22.67-.47.71l-.27.05.27.05c.25.04.44.34.47.72l.03.41.03-.41c.03-.37.22-.67.47-.72l.27-.05-.27-.05c-.25-.04-.44-.34-.47-.71l-.03-.41Z"/>
          <path class="cls-12" d="m19.58,22.41l-.03.41c-.03.38-.22.67-.47.72l-.27.05.27.05c.25.04.44.34.47.71l.03.41.03-.41c.03-.37.22-.67.47-.71l.27-.05-.27-.05c-.25-.04-.44-.34-.47-.72l-.03-.41Z"/>
        </g>
        <g>
          <path class="cls-13" d="m25.49,49.02c-1.52-2.46-4.39-3.8-5.91-6.33-.3-.41.47-.45.71-.57-3.24-3.63-2.28-.95-6.04-2.9-1.42,1.98-2.76,2.86-2.76,2.86-.44,1.43,1.05,5.24,2.33,8.67,1.03,2.77,1.84,5.38,1.93,5.59-.21.3-.43.67-.32,1.05l-1.24,2.79c.12.72,9.03,1.93,12.6.25,0,0-.3-2.69-.08-5.8,2.12.13,3.88-1.38,3.55-3.67l-4.76-1.94Z"/>
          <g>
            <g>
              <path class="cls-4" d="m12.86,49.71c-.86-.82-2.22-.74-3.34-1.17-4.98-2.43-2.04-8.05.7-11.81,2.35-3.23.72-5.15,2.87-7.55.95-1.05,3.05-1.85,4.48-1.52,1.12.25,2.79,1.31,2.79,1.31,1.62-.36,1.75,2.63,1.82,3.82.04,1-.91,1.61-1.42,2.37-.28-.78.52-1.49.38-2.21-.8-.73-.45-2.08-1.19-2.79-.34-.13-.67.36-1.03.28-.93-.51-1.18,1.1-1.6,1.66-.99,2.41-3.33.09-3.88,1.84,0,.57.74.8,1.09,1.26.83,1.7.05,3.93-1.22,5.23-.6.59-1.53,1.18-1.81,1.98-.3,1.94.52,4.16,1.42,5.86.43.47.9,1.46-.06,1.44Z"/>
              <path class="cls-4" d="m18.42,38.7c-.07.02-.14.04-.18.1-.02.03-.03.07-.03.11-.03.22-.07.44-.1.65-.02.13-.04.26,0,.38.04.13.14.23.24.33.53.52,1.06,1.04,1.58,1.55.2.19.51.4.72.22.05-.04-.28-1.53-.3-1.7-.05-.58-.05-1.17,0-1.76.03-.29.07-.58.12-.87.03-.16.23-.67.13-.81-.21-.26-.7.67-.85.84-.36.42-.8.78-1.34.95Z"/>
              <g>
                <path class="cls-6" d="m14.28,35.23s.03,0,.06,0c.26.08.39.33.46.57.09.3.12.62.11.93,0,.73-.32,1.38-.46,2.08-.05.25-.06.46.12.65.16.16.39.26.6.34.51.18,1.05.25,1.58.31.48.06.97.11,1.45.11-.3-.37,0-1.55,0-1.55h.49s1.24-.81,1.81-1.85c.31-.59.3-.98.31-1.42,0-.37.07-.91.07-.91l.26-1.55-.21-.42s-.25-.81-.33-1.06c-.1-.25-.43-1.05-.43-1.05,0,0-.32-.39-.53-.26-.47.31-.84.1-1.16.2-.52.16-1.37,2.02-1.42,2.08-.4.4-.56.65-1.23.93-.67.26-1.26-.01-1.26-.01,0,0-.94-.21-1.04.55-.04.22-.02.55.16.83.18.28.48.46.59.51Z"/>
                <path class="cls-2" d="m18.46,38.87c-.93,0-2.23-.85-2.4-.96-.64-.44-.82-.74-1.12-1.25-.06-.1-.03-.23.07-.29.1-.06.23-.03.29.07.29.49.43.73.99,1.11.85.56,1.95,1.03,2.4.85.24-.11.58-.39.9-.75.56-.64.84-1.33.9-1.72.06-.31.08-.59.1-.9.01-.18.03-.37.05-.55.04-.33.1-.63.16-.95l.03-.17s0-.02,0-.03c.01-.03.02-.07.03-.12,0-.05.02-.11.03-.16.03-.11.14-.18.26-.16.11.03.18.14.16.26-.01.05-.02.09-.03.14-.01.06-.02.12-.04.16l-.03.16c-.06.31-.11.61-.15.93-.02.18-.03.35-.04.53-.02.3-.04.61-.11.94-.07.46-.38,1.22-1,1.93-.22.24-.64.68-1.05.86-.12.05-.26.07-.41.07Z"/>
                <path class="cls-2" d="m14.56,35.52s-.04,0-.06,0c-.66-.2-1.04-.59-1.17-1.17-.09-.43.03-.85.32-1.09.26-.22.61-.26.97-.12.11.04.16.17.12.28-.04.11-.17.16-.28.12-.22-.09-.4-.07-.54.05-.17.14-.24.41-.18.67.1.43.37.7.88.85.11.03.18.15.14.27-.03.09-.11.15-.2.15Z"/>
                <path class="cls-2" d="m14.41,34.59c-.08,0-.16-.05-.2-.13,0,0-.05-.12-.15-.19-.1-.07-.12-.2-.05-.3.07-.1.2-.12.3-.05.2.14.29.35.3.37.04.11,0,.23-.12.28-.03.01-.05.02-.08.02Z"/>
                <path class="cls-3" d="m18.08,39.22s-.82.08-1.5-.42c-.72-.52-1.38-2.04-1.38-2.04,0,0,.73.93,1.39,1.29.71.38,1.61.61,1.61.61l-.12.56Z"/>
                <path class="cls-2" d="m19.11,35.92c-.06,0-.11-.02-.15-.07-.08-.08-.08-.22,0-.3.17-.16.18-.23.18-.23,0-.02-.05-.07-.08-.1-.1-.1-.23-.24-.26-.47-.05-.4.06-.84.32-1.28.06-.1.19-.13.29-.07.1.06.13.19.07.29-.15.25-.31.62-.26,1,.01.1.08.16.15.24.25.26.32.52-.11.93-.04.04-.09.06-.15.06Z"/>
                <path class="cls-2" d="m17.35,32.69c-.07,0-.14-.04-.18-.1-.06-.1-.03-.23.07-.29.02-.01.58-.35,1.29-.01.11.05.15.18.1.28-.05.11-.18.15-.28.1-.49-.23-.86-.02-.88,0-.03.02-.07.03-.11.03Z"/>
                <path class="cls-2" d="m21.12,32.89s-.1-.02-.14-.05c0,0-.27-.21-.66-.07-.11.04-.23-.02-.27-.13-.04-.11.02-.23.13-.27.63-.22,1.06.13,1.08.14.09.08.1.21.03.3-.04.05-.1.08-.16.08Z"/>
                <path class="cls-2" d="m15.41,33.57c-.16,0-.33-.03-.49-.09-.11-.04-.16-.17-.12-.28.04-.11.17-.16.28-.12.76.3,1.64-.49,2.13-1.36.11-.19.21-.38.3-.54.33-.62.55-1.02.94-1.1.22-.05.45.03.71.23.09.07.11.21.04.3-.07.09-.21.11-.3.04-.15-.12-.27-.17-.36-.15-.19.04-.4.43-.65.89-.09.17-.19.35-.31.55-.48.85-1.32,1.64-2.17,1.64Z"/>
                <path class="cls-2" d="m10.86,49.13c-1.02,0-2.25-.63-2.85-1.3-.65-.74-1.09-1.68-1.27-2.73-.47-2.75,1.05-5.05,2.51-7.28.73-1.11,1.43-2.17,1.89-3.27.26-.68.34-1.37.42-2.04.16-1.44.33-2.92,2.42-4.17.1-.06.23-.03.29.07.06.1.03.23-.07.29-1.91,1.14-2.05,2.4-2.22,3.85-.08.7-.16,1.42-.45,2.16-.48,1.14-1.21,2.26-1.93,3.34-1.42,2.16-2.89,4.39-2.45,6.97.17.96.57,1.83,1.17,2.52.59.67,1.98,1.31,2.88,1.13.12-.02.23.05.25.17.02.12-.05.23-.17.25-.14.03-.28.04-.44.04Z"/>
                <path class="cls-2" d="m19.85,28.82s-.1-.02-.14-.05c-.77-.66-3.52-1.52-4.39-.61-.08.09-.22.09-.3,0-.09-.08-.09-.22,0-.3,1.1-1.16,4.1-.18,4.98.58.09.08.1.21.02.3-.04.05-.1.07-.16.07Z"/>
                <path class="cls-2" d="m22.05,33.79s-.02,0-.03,0c-.12-.01-.2-.12-.18-.24.22-1.75.18-2.38-.23-3.37-.24-.59-.49-.92-.76-1.02-.19-.07-.42-.02-.7.13-.1.06-.23.02-.29-.08-.06-.1-.02-.23.08-.29.4-.22.74-.27,1.05-.16.4.14.72.54,1.01,1.26.48,1.14.49,1.86.26,3.59-.01.11-.11.19-.21.19Z"/>
                <path class="cls-2" d="m21.3,33.65c-.08,0-.16-.05-.2-.13-.05-.11-.09-.21-.13-.3-.05-.12-.1-.23-.14-.32-.21-.53-.35-1.03-.5-1.57-.05-.18-.1-.36-.15-.54-.07-.26-.21-.46-.34-.5-.08-.02-.17.01-.28.1-.09.08-.23.06-.3-.03-.08-.09-.06-.23.03-.3.29-.24.53-.23.68-.18.4.12.58.63.62.79.05.19.1.37.15.55.14.52.28,1.01.48,1.52.04.09.08.19.13.31.04.1.09.2.14.31.05.11,0,.23-.11.28-.03.01-.06.02-.08.02Z"/>
                <path class="cls-3" d="m19.92,34.38c-.14-.01-.25-.2-.21-.4.04-.2.19-.35.33-.32.14.01.25.2.21.4-.01.2-.17.35-.33.32Z"/>
                <path class="cls-3" d="m17.42,34.21c-.16-.01-.27-.2-.26-.41.02-.2.17-.35.33-.34.16.01.27.2.26.41-.04.2-.19.35-.33.34Z"/>
              </g>
              <path class="cls-2" d="m14.9,35.54c-.02-.12-.13-.2-.24-.18-.12.02-.2.13-.18.24.12.8.21,1.74-.05,2.59-.34,1.13-1.25,2-2.13,2.85-.12.12-.24.23-.36.34-.88.86-2.04,2.2-1.96,3.76.02.47.16.96.4,1.45.24.49.56.94.94,1.34.11.12.23.23.35.34.21.19.4.37.57.58.06.07.12.16.18.27-.26-.18-.55-.27-.83-.36-.24-.08-.47-.15-.67-.27-.22-.14-.4-.34-.51-.58-.05-.11-.18-.16-.28-.11-.11.05-.16.18-.11.28.14.31.38.59.67.77.24.15.51.24.77.32.28.09.54.17.75.33.16.12.29.3.37.49.02.08.08.15.17.17.01,0,.03,0,.04,0,.08,0,.15-.05.19-.12,0,0,0-.02.01-.03,0,0,0-.02,0-.03,0,0,0-.01,0-.02,0,0,0-.01,0-.02.09-.58-.23-1.1-.43-1.36-.19-.23-.4-.44-.61-.63-.11-.11-.23-.21-.34-.32-.35-.36-.64-.77-.87-1.23-.22-.45-.34-.88-.36-1.29-.07-1.4,1.02-2.63,1.84-3.44.12-.11.23-.23.35-.34.92-.88,1.86-1.8,2.24-3.03.28-.93.19-1.93.07-2.78Z"/>
              <path class="cls-2" d="m20.64,42.3c-.09,0-.17-.05-.2-.14-.56-1.44-.28-4.53.34-6.23.04-.11.16-.17.27-.13.11.04.17.16.13.27-.58,1.6-.86,4.59-.34,5.93.04.11-.01.23-.12.28-.03,0-.05.01-.08.01Z"/>
            </g>
            <g>
              <path class="cls-5" d="m18.4,37.28c.81.14,1.15-.91,1.15-.91-.02.09-2-.13-1.98-.23,0,0,.11,1.01.83,1.14Z"/>
              <path class="cls-2" d="m18.55,37.51c-.06,0-.12,0-.18-.02-.78-.15-.97-1.06-1-1.28,0-.03-.01-.06,0-.1.02-.11.11-.19.22-.18.05,0,.1.02.14.05.25.08,1.49.22,1.75.2.05-.02.1-.03.15-.01.11.03.18.15.15.26,0,.01,0,.03-.01.04-.14.4-.54,1.05-1.2,1.05Zm-.11-.44c.37.06.63-.23.77-.47-.1,0-.22-.02-.36-.03-.36-.03-.73-.08-.99-.13.09.25.25.56.58.62Z"/>
            </g>
          </g>
          <g>
            <path class="cls-7" d="m13.25,103.23s.25-2.55.53-4.79c-1.42.19-2.84.06-4.14-.22.02,1.92.47,5.21.53,5.59.02.49-.04.93-.15,1.36.03-.01.06-.03.09-.04.22-.12.4-.28.58-.45.17-.15.35-.3.56-.39.18-.08.38-.11.57-.11.41,0,.84.12,1.18.33.19.12.31.33.51.44-.17-.61-.3-1.23-.26-1.71Z"/>
            <path class="cls-10" d="m14.22,107.1c-.04-.3-.36-1.07-.63-1.91-.04-.01-.07-.02-.11-.03-.21-.09-.32-.25-.48-.4-.3-.26-.79-.38-1.18-.38-.2,0-.4.03-.58.13-.21.12-.39.29-.57.45-.22.19-.46.33-.72.43-.23.85-.6,1.77-.86,3.27-.03.14-.05.3,0,.44.06.21.25.35.44.46,1.35.78,3.45.55,4.41.07.97-.48.44-1.53.29-2.54Z"/>
            <path class="cls-2" d="m14.56,107.71c-.05-.21-.1-.43-.13-.64-.03-.19-.15-.53-.3-.95-.3-.83-.74-2.09-.68-2.87,0-.06.26-2.58.53-4.78.01-.12-.07-.22-.19-.24-.12-.01-.22.07-.24.19-.28,2.22-.53,4.77-.53,4.79-.08.88.37,2.14.7,3.06.14.39.26.72.28.87.03.23.08.45.13.67.19.86.28,1.36-.31,1.65-.9.45-2.92.68-4.21-.07-.2-.12-.31-.22-.34-.34-.03-.1,0-.23.01-.34.18-1.06.42-1.82.63-2.49.29-.91.51-1.64.44-2.63,0-.04-.29-4.28-.3-5.55,0-.12-.1-.21-.22-.21-.12,0-.21.1-.21.22.01,1.29.29,5.4.3,5.58.07.92-.14,1.57-.42,2.48-.21.68-.46,1.46-.65,2.55-.03.15-.06.34,0,.53.09.3.35.48.54.59.67.39,1.5.54,2.31.54.91,0,1.77-.2,2.31-.46.91-.45.71-1.34.53-2.13Z"/>
            <path class="cls-2" d="m10.01,105.58c-.08,0-.15-.04-.19-.12-.05-.11-.01-.23.09-.29.18-.09.32-.24.47-.4.11-.12.23-.24.36-.35.67-.52,1.72-.47,2.41.11.12.1.23.21.33.32.06.06.11.12.17.18.08.08.09.22,0,.3-.08.08-.22.09-.3,0-.06-.06-.12-.13-.19-.19-.1-.1-.19-.2-.29-.29-.54-.45-1.36-.49-1.87-.09-.11.09-.21.19-.31.3-.17.18-.35.37-.59.49-.03.02-.06.02-.1.02Z"/>
            <path class="cls-2" d="m11.8,110.68c-.78,0-1.44-.16-1.89-.31-.4-.14-1.03-.41-1.11-.61-.11-.25-.08-.52.06-.71.07-.1.2-.12.3-.05.1.07.12.2.05.3-.05.06-.06.17-.02.26.28.23,2.63,1.43,5.11.05.1-.06.14-.26.07-.39-.06-.1-.02-.23.09-.29.1-.06.23-.02.29.09.16.3.09.78-.24.97-.96.54-1.89.71-2.7.71Z"/>
          </g>
          <g>
            <path class="cls-7" d="m26.75,103.38c-.06.02.03-3.26.17-6.96-1.49.5-3.06.86-4.64.77.91,5.87.88,6.27.88,6.27-.26.16-.55,1.82-.54,2.06,1.04.31,2.02.93,3.08.49.52-.12.43-1.68.91-1.91.3-.11.11-.47.13-.7Z"/>
            <path class="cls-2" d="m26.79,104.04c-.09,0-.17-.06-.2-.15-.15-.46-.13-2.79.06-7.56,0-.12.1-.21.21-.21.13,0,.22.1.21.22-.18,4.52-.2,7.01-.08,7.41.04.11-.03.23-.14.27-.02,0-.04,0-.06,0Z"/>
            <g>
              <path class="cls-8" d="m33.8,108.54c.06-.1.09-.2.08-.32-.03-.33-.34-.48-.62-.58-1.02-.37-2.08-.58-3.09-.96-.39-.15-1.29-.75-2.14-1.74-.29-.34-.45-.85-.88-.98-.08-.02-.17-.03-.25-.02-.22.19-.37.45-.49.73-.13.3-.24.62-.43.89-.21.3-.49.51-.83.65-.79.33-2.08-.51-2.08-.51-.03,0-.47-.27-.5-.28-.14.55-.33,1.75-.25,2.36l.18.75-.1.07c-.13.09-.09.3.03.4.12.1,2.86.06,2.86.06.33-.03.97-.13,1.3-.14.68-.02,1.43.32,2.1.45.59.11,4.39.16,5.04-.28.13-.09.19-.4.14-.56h-.06Z"/>
              <path class="cls-2" d="m22.5,108.75c-.09,0-.18-.06-.2-.15-.24-.77-.32-1.59-.2-2.32.06-.39.21-.76.35-1.11.04-.11.09-.22.13-.33.15-.41.35-1.56.37-1.71,0-1.48-.29-3.36-.71-5.73-.02-.12.06-.23.17-.25.12-.02.23.06.25.17.43,2.4.72,4.31.72,5.82,0,.01,0,.02,0,.03,0,.05-.22,1.34-.4,1.81-.04.11-.09.22-.13.34-.14.34-.27.67-.33,1.01-.1.65-.03,1.42.19,2.12.04.11-.03.23-.14.27-.02,0-.04,0-.06,0Z"/>
              <path class="cls-2" d="m31.49,109.22c-1.34,0-2.69-.13-4.01-.39l-.12-.02c-.38-.08-.74-.15-1.1-.12-.15,0-.31.04-.47.07-.14.03-.29.05-.44.07-.23.02-.46.02-.68,0l-2.19-.07c-.12,0-.21-.1-.21-.22,0-.12.1-.21.21-.21,0,0,2.19.07,2.19.07.22,0,.43.01.63,0,.13-.01.26-.04.4-.06.17-.03.34-.06.52-.07.42-.03.82.05,1.21.13l.12.02c1.71.34,3.46.45,5.2.34.25-.02.49-.04.68-.15.14-.09.27-.27.22-.43-.05-.16-.27-.26-.47-.33-.48-.17-.97-.31-1.46-.45-.54-.15-1.1-.31-1.64-.52-.41-.15-1.34-.76-2.22-1.81-.07-.09-.15-.2-.22-.32-.24-.37-.44-.66-.69-.61-.18.04-.25.31-.32.66-.02.12-.04.23-.08.33-.23.7-.73,1.16-1.4,1.3-.6.13-2.39-.56-2.73-.86-.09-.08-.1-.21-.02-.3.08-.09.21-.1.3-.02.28.25,1.94.85,2.36.76.53-.11.91-.46,1.09-1.02.02-.07.04-.17.06-.28.07-.38.17-.91.65-1,.55-.11.88.41,1.13.79.07.11.13.21.19.27.82.97,1.69,1.55,2.05,1.68.52.2,1.07.35,1.61.5.49.14,1,.28,1.49.46.28.1.62.26.73.6.12.37-.11.75-.41.92-.27.16-.56.19-.87.21-.43.03-.87.04-1.3.04Z"/>
              <path class="cls-2" d="m30.95,109.75c-1.2,0-2.35-.11-2.63-.17-.29-.05-.52-.14-.75-.23-.32-.12-.6-.23-.97-.21-.2,0-.65.07-1.01.11-.22.03-.42.06-.54.07,0,0-.01,0-.02,0-2.56,0-2.67-.09-2.73-.15-.12-.1-.19-.26-.19-.41,0-.13.06-.25.17-.33.1-.07.23-.05.3.05.07.09.05.22-.04.29,0,.01,0,.03.01.05.25.04,1.42.07,2.47.07.12-.01.31-.04.51-.06.39-.05.84-.11,1.06-.12.45-.01.8.12,1.13.24.21.08.43.16.68.21.61.11,4.35.38,5.2-.24.04-.04.09-.23.06-.32-.04-.11.02-.23.13-.27.11-.04.23.02.27.13.08.23,0,.64-.21.8-.51.37-1.73.48-2.9.48Z"/>
            </g>
          </g>
          <path class="cls-11" d="m26.84,61.5c0-.07,0-.13-.01-.2-.01-.25-.03-.48-.04-.71,0-.05,0-.1,0-.15h-.36c-.11.07-.22.12-.34.17-.01,0-.02.01-.03.02-.2.08-.4.12-.61.15,0,0,0,0-.01,0,0,0-.02,0-.03,0,0,0-.01,0-.02,0-.03,0-.05-.02-.07-.04-.64.16-1.29.28-1.94.35-1.21.14-2.41.13-3.61.04-.01,0-.02,0-.04,0-.02.01-.04.02-.06.02-.08,0-.17,0-.25,0-.23-.01-.45-.04-.68-.07-.02,0-.03,0-.05-.02-.02-.01-.03-.02-.04-.04-1.25-.16-2.49-.4-3.72-.65h-.38s-.52,0-.52,0c0,0-2.12,2.64-2.83,9.58-.71,6.94-7.03,26.07-7.03,26.07,0,0,2.39,1.54,5.49,2.22,1.3.28,2.72.42,4.14.22.58-.08,1.17-.21,1.74-.41.5-.18,1.04-.28,1.6-.34.66-.15,1.32-.34,1.99-.46.35-.06.7-.11,1.05-.13.37-.02.74.02,1.12.04.33.02.67.04,1.01.05.35.01.7.01,1.05,0,.65-.03,1.3-.14,1.94-.29.56-.13,1.11-.29,1.66-.48.06-.02.12-.04.18-.06.29-.1.58-.21.87-.3.29-.08.59-.14.89-.17.96-.1,1.41-.11,1.61-.09-.1-.96-1.8-11.14-2.49-19.72-.45-5.59-.91-10.95-1.14-14.57Z"/>
          <path class="cls-2" d="m13.14,98.61c-4.56,0-8.87-2.31-9.09-2.43-.09-.05-.13-.16-.1-.25.06-.19,6.32-19.19,7.02-26.03.71-6.92,2.78-9.58,2.87-9.69.07-.09.21-.11.3-.03.09.07.11.21.03.3-.02.03-2.09,2.69-2.78,9.46-.67,6.53-6.35,24.01-6.99,25.94,1.05.53,7.17,3.45,12.13,1.78,2.64-.89,3.56-.83,4.62-.76.35.02.71.05,1.15.04.92-.02,2.41-.17,5.72-1.15,1.15-.34,1.8-.36,2.17-.28-.45-3.15-3.46-24.58-3.46-33.66,0-.09,0-.18,0-.28.02-.33.03-.7-.13-.89-.08-.09-.07-.22.02-.3.09-.08.22-.07.3.02.28.32.25.81.24,1.2,0,.09,0,.18,0,.26,0,9.74,3.47,33.75,3.51,33.99.01.1-.04.19-.13.23-.09.03-.18,0-.24-.06-.03-.02-.44-.31-2.15.2-3.36.99-4.88,1.14-5.83,1.16-.46.01-.83-.01-1.19-.04-1.02-.07-1.9-.12-4.46.74-1.15.39-2.35.54-3.53.54Z"/>
          <path class="cls-2" d="m13.25,72.33s-.02,0-.04,0c-.12-.02-.2-.13-.18-.25.16-.94.3-1.88.44-2.8.6-3.88,1.11-7.23,2.25-8.72.07-.09.21-.11.3-.04.09.07.11.21.04.3-1.07,1.41-1.6,4.87-2.17,8.53-.14.92-.29,1.86-.44,2.81-.02.1-.11.18-.21.18Z"/>
          <path class="cls-2" d="m18.97,68.52c-.11,0-.2-.08-.21-.19-.22-2.34-.17-4.71.14-7.03.02-.12.12-.2.24-.18.12.02.2.12.18.24-.31,2.3-.35,4.63-.14,6.94.01.12-.08.22-.19.23,0,0-.01,0-.02,0Z"/>
          <path class="cls-2" d="m25.63,79.26c-.12,0-.22-.1-.21-.22,0-.12.23-12.17-.84-16.46-.03-.11.04-.23.16-.26.11-.03.23.04.26.16,1.08,4.34.86,16.07.85,16.57,0,.12-.1.21-.21.21Z"/>
          <path class="cls-2" d="m20.21,42.3c-.05,0-.1-.02-.14-.06-.24-.22-.58-.54-.91-.86-.34-.32-.68-.64-.91-.85-.1-.09-.22-.2-.28-.37-.06-.16-.04-.32-.03-.45l.12-1.1c.01-.12.12-.2.23-.19.12.01.2.12.19.23l-.12,1.1c0,.09-.02.19,0,.26.03.07.1.14.17.2.24.22.58.54.91.86.34.32.68.64.91.85.09.08.09.22.01.3-.04.05-.1.07-.16.07Z"/>
          <g>
            <g>
              <path class="cls-7" d="m22.11,42.66c-.14-.24-.4-.32-.63-.17-.71-.15-1.52-.62-2.2.01.76.6,1.31,1.5,2.02,2.18.09-1.31,1.35-1.45.81-2.02Z"/>
              <g>
                <g>
                  <path class="cls-5" d="m27.24,39.66c-.26-.3-.6-.49-.98-.59-.07.23-.24.42-.66.59-1.21.3-.6,1.49-1.74,1.36-.28-.08-.96.09-.95-.33-.03-.14-.09-.26-.18-.36-.36.4-.61.86-.68,1.36-.07.44-.35.74-.02,1.05.1.1.24.22.17.35-2.21,1.65,1.66,3.67,2.57,5.05,1.11,1.14,2.21,2.29,3.35,3.4.09.12.24.15.38.08,5.29-1.02-.06-9.16-1.25-11.97Z"/>
                  <path class="cls-1" d="m23.75,34.51c.75-.1,1.58.21,1.82.98,0,.09.02.17.03.25.14.25.26.51.38.76.3.09,1.19.39,1.07-.19-.08-2.43-2.73-3.95-4.85-2.67-.91.76-.96,1.04-.61,1.1.58-.3,1.49-.21,2.17-.23Z"/>
                  <path class="cls-7" d="m23.85,41.02c1.15.13.53-1.06,1.74-1.36.42-.17.59-.36.66-.59.07-.22.05-.49.08-.83.28-.28.83-.38.82-.88-.14-1.23-1.31-.07-1.57-1.63-.01-.08-.02-.16-.03-.25-.24-.77-1.07-1.08-1.82-.98-.67.03-1.59-.07-2.17.23-.37.19-.6.54-.55,1.18.46,1.15-.53,2.42.39,3.38.3.44.97.63,1.3,1.03.09.1.15.22.18.36,0,.42.66.25.95.33Z"/>
                </g>
                <g>
                  <path class="cls-2" d="m26.24,38.48s-.03,0-.04,0c-.12,0-.21-.1-.21-.22,0-.12.1-.21.22-.21.3.01.5-.15.59-.25.14-.15.21-.34.19-.51-.02-.16-.08-.27-.17-.31-.09-.04-.22,0-.36.09-.1.07-.23.05-.3-.05-.07-.1-.05-.23.05-.3.26-.19.54-.23.78-.13.23.1.39.34.43.65.04.29-.08.6-.3.85-.23.25-.55.39-.88.39Z"/>
                  <path class="cls-2" d="m26.44,37.82s-.08-.01-.11-.03c-.1-.06-.13-.19-.07-.29.01-.02.11-.17.33-.28.11-.05.23,0,.29.1.05.11,0,.23-.1.29-.1.05-.15.12-.15.12-.04.06-.11.1-.18.1Z"/>
                  <path class="cls-2" d="m22.87,38.27s-.06,0-.09-.02c-.24-.12-.37-.4-.31-.65.03-.11.08-.18.12-.24.04-.05.06-.09.07-.16.02-.1-.03-.28-.07-.37-.04-.11,0-.23.12-.28.11-.04.23,0,.28.12.01.03.14.34.09.6-.03.16-.09.26-.14.33-.03.04-.05.07-.06.1-.01.06.02.13.08.16.11.05.15.18.1.29-.04.08-.11.12-.19.12Z"/>
                  <path class="cls-2" d="m21.66,36.3c-.08,0-.15-.04-.19-.12-.05-.11-.01-.23.09-.29.12-.06.33-.13.59-.11.12,0,.2.11.19.23-.01.12-.11.2-.23.19-.16-.01-.28.03-.36.07-.03.02-.06.02-.1.02Z"/>
                  <path class="cls-2" d="m23.57,35.97c-.08,0-.15-.04-.19-.12-.05-.11-.01-.23.1-.29.32-.16.82-.09,1.01-.03.11.04.17.16.13.27-.04.11-.16.17-.27.13-.11-.04-.5-.08-.68,0-.03.02-.06.02-.1.02Z"/>
                  <path class="cls-2" d="m27.12,37.17s-.04,0-.07-.01c-.11-.04-.17-.16-.14-.27.12-.36-.02-1.64-.68-2.28-.08-.08-.09-.22,0-.3.08-.08.22-.09.3,0,.78.77.95,2.2.79,2.72-.03.09-.11.15-.2.15Z"/>
                  <path class="cls-2" d="m23.31,40.7c-.34,0-.68-.08-1.02-.26-.63-.34-1.34-.99-1.47-1.84-.05-.34-.01-.66.03-.97.03-.21.05-.4.05-.6,0-.17-.01-.34-.03-.52-.04-.53-.08-1.08.18-1.61.05-.11.18-.15.29-.1.11.05.15.18.1.29-.21.43-.17.9-.14,1.39.01.18.03.37.03.55,0,.23-.03.45-.06.66-.04.29-.08.56-.03.85.11.69.74,1.25,1.25,1.52,1.11.59,2.39-.19,3.12-1.18.07-.1.2-.12.3-.05.1.07.12.2.05.3-.62.85-1.62,1.56-2.65,1.56Z"/>
                  <path class="cls-2" d="m21.1,35.58c-.12,0-.21-.09-.21-.21-.03-1.55,1.58-2.27,2.31-2.36,2.26-.28,2.85.78,2.87.82.06.1.02.23-.09.29-.1.06-.23.02-.29-.09-.01-.02-.52-.84-2.45-.6-.62.08-1.97.66-1.94,1.92,0,.12-.09.22-.21.22h0Z"/>
                  <path class="cls-2" d="m26.68,36.97c-.66,0-1.08-.32-1.14-.88-.06-.55-.39-1.03-.88-1.3-.32-.18-.95-.1-1.44-.04-.22.03-.43.05-.61.06-.08,0-.15,0-.22,0-.45,0-.63,0-.98.34-.08.08-.22.08-.3,0-.08-.08-.08-.22,0-.3.47-.45.79-.45,1.27-.46.07,0,.14,0,.22,0,.16,0,.36-.03.57-.06.59-.07,1.26-.16,1.7.09.61.33,1.03.94,1.1,1.63.01.12.06.49.72.5.12,0,.21.1.21.21,0,.12-.1.21-.21.21Z"/>
                  <path class="cls-2" d="m26.32,39.21c-.11,0-.21-.09-.21-.2,0-.05-.02-.54.11-.81.05-.11.18-.15.29-.1.11.05.15.18.1.29-.06.12-.07.43-.07.6,0,.12-.09.22-.2.22,0,0,0,0,0,0Z"/>
                  <path class="cls-2" d="m25.32,39.93c-.04.07-.09.15-.15.2-.09.08-.21.11-.33.14-.22.05-.44.09-.66.12.05-.06.11-.1.18-.15.48-.3.85-.7,1.27-1.06.1.12-.23.6-.31.74Z"/>
                  <path class="cls-3" d="m21.83,37.18c-.02-.16.08-.31.2-.31.12-.02.23.12.25.28s-.08.31-.2.31c-.13.02-.23-.1-.25-.28Z"/>
                  <path class="cls-3" d="m23.8,36.95c0-.16.1-.31.23-.31s.25.13.25.3-.1.31-.23.31-.25-.13-.25-.3Z"/>
                </g>
              </g>
              <path class="cls-2" d="m23.55,41.27c-.14,0-.27-.02-.38-.05-.35-.11-.55-.38-.57-.76,0-.12.08-.22.2-.23.12,0,.22.08.23.2.01.2.1.32.27.37.4.13,1.04-.11,1.17-.28.07-.09.21-.11.3-.03.09.07.11.21.03.3-.21.26-.77.48-1.26.48Z"/>
              <path class="cls-2" d="m24.17,45.03c-.1,0-.19-.08-.21-.18-.11-.7-.23-1.74-.05-2.77.18-1.02.65-1.9,1.31-2.48l.08-.07c.33-.29.54-.48,1.05-.54.12-.01.22.07.24.19.01.12-.07.22-.19.24-.38.05-.52.17-.82.44l-.08.07c-.59.52-1.01,1.31-1.17,2.23-.13.74-.12,1.57.05,2.63.02.12-.06.23-.18.24-.01,0-.02,0-.03,0Z"/>
              <path class="cls-2" d="m24.98,47.8c-.39,0-.76-.12-1.04-.22-.11-.04-.17-.17-.12-.28.04-.11.17-.17.28-.12.34.13.84.28,1.27.14.4-.14.74-.53,1-1.16.46-1.11.59-2.36.38-3.54-.02-.12.06-.23.17-.25.12-.02.23.06.25.17.23,1.26.09,2.6-.4,3.78-.31.75-.74,1.23-1.26,1.4-.17.06-.35.08-.52.08Z"/>
              <path class="cls-2" d="m21.92,42.86c-.11,0-.21-.09-.21-.2-.02-.42.16-1.27.73-2.39.05-.11.18-.15.29-.09.11.05.15.18.09.29-.54,1.05-.7,1.83-.68,2.17,0,.12-.08.22-.2.23,0,0,0,0-.01,0Z"/>
              <path class="cls-2" d="m21.46,44.78c-.11,0-.2-.08-.21-.19-.02-.19.02-.38.07-.55.05-.17.12-.39.25-.58.14-.22.32-.37.53-.46.35-.14.63.11.84.3.07.06.14.13.21.17.37.25.74.5,1.09.79.09.08.1.21.03.3-.08.09-.21.1-.3.03-.33-.28-.7-.53-1.06-.77-.09-.06-.17-.13-.25-.2-.18-.16-.3-.26-.4-.22-.16.06-.26.19-.33.29-.1.15-.16.33-.2.47-.04.13-.07.26-.06.39.01.12-.07.22-.19.23,0,0-.01,0-.02,0Z"/>
              <path class="cls-2" d="m20.66,43.92c-.1,0-.19-.07-.21-.17-.05-.29.05-.59.28-.78,0,0,0,0,.01-.01v-.03c.06-.18.22-.32.41-.34.02,0,.03,0,.05,0,.01-.01.02-.03.03-.04.2-.24.56-.24.8-.09.21.13.33.34.43.51.06.1.03.23-.08.29-.1.06-.23.03-.29-.08-.08-.13-.17-.29-.29-.36-.08-.05-.2-.05-.24,0v.02s-.09.1-.16.14c-.07.04-.14.04-.18.04h-.02s-.04.02-.04.04c-.01.04-.02.08-.04.12-.03.06-.07.09-.1.11-.11.09-.16.24-.14.38.02.12-.05.23-.17.25-.01,0-.03,0-.04,0Z"/>
              <path class="cls-2" d="m21.39,42.81s-.08,0-.11-.03c-.75-.46-1.31-.5-1.66-.13-.08.09-.22.09-.3.01-.09-.08-.09-.22-.01-.3.35-.37,1.01-.66,2.19.06.1.06.13.19.07.29-.04.07-.11.1-.18.1Z"/>
              <path class="cls-2" d="m25.54,49.09c-.07,0-.13-.03-.17-.09-.07-.1-.04-.23.05-.3.64-.45,1.43-.68,2.22-.64.12,0,.21.11.2.23,0,.12-.11.21-.23.2-.69-.04-1.38.16-1.95.56-.04.03-.08.04-.12.04Z"/>
            </g>
            <path class="cls-2" d="m28.46,41.97c-.08,0-.16-.05-.2-.13-.44-1.09-.92-1.9-1.98-2.62-.1-.07-.12-.2-.06-.3.07-.1.2-.12.3-.06,1.14.77,1.68,1.68,2.14,2.81.04.11,0,.23-.12.28-.03.01-.05.02-.08.02Z"/>
            <path class="cls-2" d="m28.35,51.79c-.12,0-.21-.1-.21-.21s.1-.21.21-.21c1.36,0,2.13-.98,2.25-1.67.13-.77-.03-1.56-.2-2.23-.15-.58-.34-1.16-.56-1.72-.04-.11.01-.23.12-.28.11-.04.23.01.28.12.22.58.42,1.17.57,1.77.19.71.36,1.56.21,2.41-.13.78-.98,2.02-2.67,2.02Z"/>
            <path class="cls-2" d="m22.93,39.18c-.19,0-.38-.04-.52-.13-.1-.06-.14-.19-.08-.29.06-.1.19-.14.29-.08.08.05.2.07.33.07.05,0,.11,0,.17-.02.16-.03.3-.09.4-.16.1-.07.23-.05.3.05.07.1.05.23-.05.3-.15.11-.35.19-.57.23-.09.02-.16.02-.24.03,0,0-.02,0-.03,0Z"/>
            <path class="cls-2" d="m21.87,42.41c-.14,0-.37-.02-.61-.03-.31-.02-.66-.05-.81-.03-.12.01-.22-.08-.23-.19-.01-.12.08-.22.19-.23.18-.02.54,0,.88.03.24.02.48.03.6.03.12,0,.22.09.22.21,0,.12-.09.22-.21.22-.01,0-.02,0-.04,0Z"/>
          </g>
          <path class="cls-2" d="m17.25,40.34c-.36,0-.75-.02-1.13-.09-.75-.13-1.41-.42-1.9-.83-.09-.08-.1-.21-.03-.3.08-.09.21-.1.3-.03.44.37,1.03.62,1.7.74.69.12,1.39.09,1.93.04.12-.01.22.08.23.2s-.08.22-.2.23c-.27.02-.58.04-.9.04Z"/>
          <g>
            <path class="cls-5" d="m26.89,56.64c.67-.17,1.25-.67,1.5-1.31.01-.03.02-.05.01-.08,0-.03-.03-.04-.05-.06-.21-.15-.38-.38-.45-.63-.01-.03-.02-.07-.05-.09-.03-.02-.06-.01-.09,0-.27.05-.53.1-.8.15-.31.06-.28.12-.25.43.01.14.15,1.6.19,1.6Z"/>
            <path class="cls-5" d="m26.86,56.65c-.08-.63-.16-1.26-.23-1.89l-3.42-1.51c.25,1.52.63,3.03,1.12,4.49.89.2,1.85.23,2.66-.19.03-.32-.1-.57-.14-.89Z"/>
            <g>
              <g>
                <path class="cls-5" d="m28.99,56.65l-1.65,1.55.27.4c.2-.07,1.47-1.07,1.63-1.29.07-.1.14-.2.13-.32-.02-.18-.21-.28-.38-.35Z"/>
                <g>
                  <path class="cls-5" d="m23.14,60.37l-.11.06c.07.15.12.39.29.42.38.05,2.27-.5,3.12-1.25.11-.09.59-.33.71-.42.13-.09.54-.26.4-.62-.07-.17-.06-.27-.22-.35l-.03.02s-.06.09-.07.15c-.44.67-3.12,2.2-4.09,2Z"/>
                  <path class="cls-4" d="m28.92,56.43c-.09-.36-.51-.56-.62-.91-.41.48-.93.87-1.52,1.11.07.32.35.68.22,1,0,0-2.58.21-2.58.21-.24.7-.99,1-1.47,1.5-.29.66-.16.96.19,1.03.97.21,3.66-1.33,4.09-2,.01-.06.04-.11.07-.15.14-.2.46-.25.63-.44.29-.47,1.15-.66.98-1.35Z"/>
                </g>
                <path class="cls-2" d="m23.38,61.06s-.06,0-.09,0c-.25-.04-.35-.28-.41-.44-.01-.03-.03-.07-.04-.1-.05-.11,0-.23.1-.29.11-.05.23,0,.29.1.02.04.04.08.05.13.02.06.06.16.09.18.3.04,2.12-.49,2.94-1.2.07-.06.22-.15.46-.28.11-.06.23-.13.27-.16.02-.01.05-.03.08-.05.23-.14.28-.21.24-.31-.02-.04-.03-.08-.04-.11-.03-.1-.03-.1-.08-.13-.11-.05-.15-.18-.1-.29.05-.11.18-.15.29-.1.21.1.26.25.3.38,0,.03.02.06.03.09.17.47-.26.73-.42.83-.02.01-.04.03-.06.04-.06.04-.18.11-.31.18-.13.07-.34.19-.38.23-.82.72-2.6,1.31-3.21,1.31Z"/>
                <path class="cls-2" d="m27.27,58.41c-.09,0-.17-.05-.2-.14-.04-.11.02-.23.13-.27.26-.09,1.38-1,1.48-1.2.04-.09.06-.17.04-.21,0-.02-.03-.04-.05-.07l-.03-.03s-.06-.09-.1-.13c-.14-.19-.3-.4-.36-.63-.03-.11.04-.23.16-.26.11-.03.23.04.26.16.03.15.17.32.28.48.04.05.07.1.1.14l.02.03s.07.09.09.16c.07.16.05.36-.05.57-.17.34-1.42,1.31-1.72,1.42-.02,0-.05.01-.07.01Z"/>
                <path class="cls-2" d="m27.61,58.82c-.09,0-.17-.05-.2-.14-.04-.11.02-.23.13-.27.2-.08,1.4-1.03,1.53-1.21.03-.05.1-.13.09-.18,0-.02-.03-.08-.25-.17-.11-.04-.16-.17-.12-.28.04-.11.17-.16.28-.12.13.05.48.2.51.53.02.2-.1.37-.17.46-.19.25-1.48,1.27-1.74,1.36-.02,0-.05.01-.07.01Z"/>
                <path class="cls-2" d="m26.96,56.79c-.11,0-.21-.09-.21-.2,0-.12.08-.22.2-.23.32-.02,1.06-.76,1.26-1.03-.01-.01-.02-.03-.04-.04-.14-.16-.35-.41-.45-.73-.04-.11.03-.23.14-.27.11-.04.23.03.27.14.08.24.25.45.37.58.11.13.17.2.17.31,0,0,0,.02,0,.03-.04.29-1.12,1.41-1.69,1.44,0,0,0,0-.01,0Z"/>
                <path class="cls-2" d="m23.1,60.64c-.09,0-.15-.01-.19-.04-.1-.07-.15-.17-.19-.23-.2-.38-.17-.84.06-1.15.13-.17.3-.29.45-.39l.04-.03c.35-.24.78-.57.96-1.03.04-.11.17-.16.28-.12.11.04.16.17.12.28-.22.57-.71.95-1.11,1.23l-.04.03c-.14.09-.26.18-.35.29-.14.19-.14.47-.02.71.01.02.02.04.03.05.35-.03,1.86-.44,2.42-.83l.2-.14c.24-.17.48-.34.73-.49.56-.33.57-.49.57-.55,0-.09-.05-.17-.13-.29-.04-.06-.08-.12-.11-.18-.06-.1-.02-.23.08-.29.1-.06.23-.02.29.08.03.05.06.1.09.14.1.14.21.31.21.54,0,.24-.1.52-.78.92-.24.14-.48.31-.71.47l-.21.14c-.46.32-2.1.9-2.7.9Z"/>
              </g>
              <path class="cls-2" d="m25.51,58.08c-.38,0-.79-.05-1.22-.14-.07-.02-.13-.07-.16-.14-.5-1.47-.88-2.99-1.13-4.52-.02-.12.06-.23.18-.25.12-.02.23.06.25.18.24,1.47.6,2.93,1.08,4.34.92.19,1.67.14,2.29-.14,0-.12-.03-.24-.07-.37-.03-.11-.06-.23-.07-.36l-.23-1.89c-.01-.12.07-.22.19-.24.12-.02.22.07.24.19l.23,1.89c.01.11.04.21.06.31.05.19.09.39.07.62,0,.07-.05.14-.11.17-.46.24-.99.35-1.59.35Z"/>
            </g>
          </g>
          <path class="cls-2" d="m26.57,54.85c-.55,0-3.5-1.31-5.19-2.76-.24-.2-.57-.48-.97-.82-3.85-3.25-7.45-6.38-7.78-7.33-.04-.11.02-.23.13-.27.11-.04.23.02.27.13.33.97,5.46,5.29,7.65,7.14.4.34.73.62.97.82,1.71,1.46,4.55,2.65,4.91,2.65.56,0,1.66-.1,2.27-.49.1-.06.2-.14.29-.21.58-.5.91-1.25.91-2.07v-.68c0-.12.1-.21.21-.21s.21.1.21.21v.68c0,.95-.39,1.82-1.06,2.4-.11.09-.22.17-.33.25-.85.54-2.33.56-2.5.56Z"/>
          <path class="cls-2" d="m21.34,61.49c-1.22,0-2.21-.12-2.92-.21l-.2-.02c-3.44-.42-4.1-.86-4.16-.91-.08-.06-.11-.17-.06-.26l1.22-2.73c-.04-.3.02-.58.17-.82l.14-.23c-.26-.8-2.12-6.46-3.21-8.9-1.2-2.69-1.02-4.92-1.02-5.01.01-.12.11-.21.23-.19.12,0,.2.11.2.23,0,.02-.17,2.22.98,4.8,1.18,2.65,3.24,8.98,3.26,9.04.02.06.01.13-.02.18l-.2.31c-.11.17-.14.37-.1.56,0,.04,0,.11-.01.15l-1.16,2.6c.33.14,1.3.45,3.81.75l.2.02c1.57.19,4.48.55,8.24-.63.11-.04.23.03.27.14s-.03.23-.14.27c-2.13.67-3.99.86-5.5.86Z"/>
          <path class="cls-2" d="m26.78,60.65s-.04,0-.05,0c-.11-.03-.18-.15-.15-.26.03-.12.02-.24,0-.38-.02-.16-.04-.34.01-.53.03-.11.15-.18.26-.15.11.03.18.15.15.26-.03.12-.02.24,0,.38.02.16.04.34-.01.53-.02.1-.11.16-.21.16Z"/>
          <path class="cls-2" d="m28.35,51.91c-.05,0-.11-.02-.15-.06-.04-.04-3.9-3.79-5.74-5.71-1.39-1.45-3.35-3.51-4.25-4.46-.43-.45-.92-.8-1.46-1.05-1.34-.61-2.63-.52-3.17-.32-.11.04-.23-.01-.28-.12-.04-.11.01-.23.12-.28.73-.28,2.13-.3,3.5.33.59.27,1.13.65,1.59,1.14.9.95,2.86,3.01,4.25,4.46,1.83,1.91,5.69,5.66,5.73,5.7.08.08.09.22,0,.3-.04.04-.1.06-.15.06Z"/>
          <g>
            <path class="cls-7" d="m28.43,42.15c-.17.39-.79,2.66.22,1.78-.08.33.27.69.61.61-.09.26,0,.73.36.61-.1.72.67.15.84-.15.19-.28.04-.53-.13-.75.19-.36,0-.88-.45-.92.07-.64-.24-.76-.55-1.23-.2-.59-.72-.53-.89.04Z"/>
            <path class="cls-2" d="m28.38,44.4c-.08,0-.16-.02-.22-.05-.16-.07-.27-.22-.29-.39-.03-.24.33-1.88.49-2.28.01-.03.04-.07.07-.09.12-.09.27-.13.43-.12.18.02.35.12.46.26.16.21.2.51.12.81-.03.11-.61,1.63-.88,1.81-.05.03-.11.05-.17.05Zm.35-2.5c-.16.49-.44,1.85-.44,2.01,0,.03.02.04.04.05.16-.24.61-1.31.67-1.53.05-.18.03-.34-.05-.45-.04-.05-.1-.09-.17-.09-.02,0-.04,0-.07,0Z"/>
            <path class="cls-2" d="m29.52,45.49c-.12,0-.25-.05-.37-.14-.27-.22-.1-.84-.1-.84.04-.11.16-.17.27-.14.11.04.17.16.14.27-.03.11-.05.32-.02.39.02.02.05.03.06.03.09-.09.31-.43.55-.89.03-.06.06-.12.08-.17.02-.05.03-.12.03-.19,0-.06,0-.1-.02-.14-.02-.05-.08-.09-.14-.08-.12,0-.22-.08-.23-.2,0-.12.08-.22.2-.23.24-.02.46.12.56.33.04.09.06.19.06.32,0,.11-.02.22-.05.32-.03.09-.07.16-.1.23-.57,1.09-.75,1.11-.85,1.12-.02,0-.04,0-.06,0Z"/>
            <path class="cls-2" d="m29.82,45.88c-.07,0-.15-.03-.21-.08-.14-.11-.21-.29-.21-.49,0-.12.11-.21.22-.2.12,0,.21.1.2.22,0,.03,0,.05,0,.07.23-.19.44-.38.48-.62.02-.12,0-.26-.08-.37-.07-.1-.04-.23.05-.3.1-.07.23-.04.3.05.14.2.19.45.15.68-.08.43-.44.72-.68.92-.03.02-.08.07-.15.09-.03,0-.05.01-.08.01Z"/>
            <path class="cls-2" d="m29.04,44.87c-.06,0-.14-.02-.23-.09-.14-.11-.3-.36-.3-.54,0-.28.08-.6.14-.81.02-.07.04-.16.05-.18.01-.12.11-.2.23-.19.12.01.2.11.19.23,0,.06-.03.14-.06.26-.05.19-.13.47-.13.69,0,.04.06.13.11.18.02-.02.05-.06.08-.13.17-.32.31-.67.45-1.01.05-.12.1-.24.09-.35,0-.16-.16-.32-.33-.32-.12,0-.21-.1-.21-.21s.1-.21.21-.21c.4,0,.74.33.76.73,0,.2-.07.38-.13.52-.14.35-.29.71-.47,1.05-.05.09-.17.31-.4.36-.02,0-.04,0-.07,0Z"/>
          </g>
        </g>
      </g>
      <g>
        <g>
          <path class="cls-5" d="m99.5,14.62c-.55-5.99-4.58-11.36-10.67-13.33-4.79-1.55-9.79-.64-13.63,2.03-3.82-2.68-8.81-3.61-13.6-2.09-6.08,1.93-10.13,7.27-10.73,13.23-6.14,2.14-10.5,8.04-10.38,14.89,0,0,0,.01,0,.01.06,5.13,2.63,9.67,6.55,12.44-.44,3.61-2.88,7.48-4.36,7.87,3.39.05,6.24-1.77,8.44-3.94,1.17,5.16,4.96,9.59,10.36,11.33,4.79,1.54,9.78.62,13.62-2.05,2.57,1.8,5.67,2.81,8.89,2.81,1.56,0,3.15-.24,4.72-.74,6.08-1.94,10.13-7.29,10.71-13.27,6.11-2.15,10.45-8.03,10.34-14.86-.1-6.64-4.37-12.23-10.26-14.35Z"/>
          <path class="cls-9" d="m99.5,14.62c-.55-5.99-4.58-11.36-10.67-13.33-4.79-1.55-9.79-.64-13.63,2.03-3.82-2.68-8.81-3.61-13.6-2.09-6.08,1.93-10.13,7.27-10.73,13.23-6.14,2.14-10.5,8.04-10.38,14.89,0,0,0,.01,0,.01.06,5.13,2.63,9.67,6.55,12.44-.44,3.61-2.88,7.48-4.36,7.87,3.39.05,6.24-1.77,8.44-3.94,1.17,5.16,4.96,9.59,10.36,11.33,4.79,1.54,9.78.62,13.62-2.05,2.57,1.8,5.67,2.81,8.89,2.81,1.56,0,3.15-.24,4.72-.74,6.08-1.94,10.13-7.29,10.71-13.27,6.11-2.15,10.45-8.03,10.34-14.86-.1-6.64-4.37-12.23-10.26-14.35Z"/>
        </g>
        <g>
          <path class="cls-2" d="m61.96,19.8c.59-.46.98-1.22,1.16-2.01l.96.31c-.21.87-.56,1.76-1.22,2.3l-.9-.6Zm2.62-5.28c-.62.39-1.32.73-2.02.99-.13-.27-.38-.68-.59-.93,1.46-.48,2.87-1.4,3.57-2.27h1.11c.99,1.05,2.39,1.8,3.76,2.18-.24.28-.49.67-.66.98-.64-.23-1.36-.59-2.02-.98v.52h-3.16v-.5Zm4.41,1.31c-.32.69-.93,1.58-1.41,2.17-.21-.16-.58-.39-.83-.5.28-.32.56-.76.78-1.16h-4.3v-.9h4.88l.17-.05.71.44Zm-2.12,3.8c.31,0,.38-.12.41-.95.21.17.66.33.95.4-.13,1.21-.41,1.51-1.26,1.51h-1.29c-1.09,0-1.35-.3-1.35-1.23v-1.46h1.06v1.45c0,.25.06.29.41.29h1.06Zm-1.38-2.85c.62.28,1.37.76,1.74,1.15l-.73.76c-.32-.39-1.06-.9-1.68-1.21l.67-.7Zm1.78-2.58c-.44-.31-.83-.63-1.13-.95-.28.31-.65.64-1.07.95h2.2Zm1.45,3.47c.65.6,1.36,1.44,1.63,2.08l-.95.59c-.23-.62-.91-1.51-1.56-2.15l.88-.52Z"/>
          <path class="cls-2" d="m74.41,17.54v2.29c0,.39-.05.6-.31.74-.24.14-.55.14-.99.14-.04-.23-.14-.58-.26-.8.24,0,.5,0,.58,0,.09,0,.12-.03.12-.11v-2.27h-.94v-3.27h.8c.03-.23.06-.47.09-.69h-1.23v2.56c0,1.35-.09,3.28-.65,4.47-.15-.16-.55-.45-.76-.55.47-1.1.5-2.69.5-3.92v-3.48h3.97v.92h-.81c-.07.24-.14.48-.22.69h1.05v3.27h-.95Zm-.98.53c-.13.69-.35,1.42-.62,1.9-.16-.13-.52-.31-.72-.4.27-.42.45-1.05.55-1.67l.79.16Zm1.08-3.06h-1.08v.55h1.08v-.55Zm-1.08,1.78h1.08v-.55h-1.08v.55Zm1.53,2.77c-.08-.36-.28-.98-.48-1.44l.68-.24c.21.45.44,1.04.52,1.41l-.72.27Zm2.3-.05c-.42.46-1.11.95-1.66,1.21-.16-.19-.46-.47-.67-.65.55-.24,1.17-.71,1.49-1.08l.84.51Zm-.46-5.32c.04-.21.06-.42.08-.63h-1.39v-.9h3.82v.9h-1.39c-.06.22-.13.43-.19.63h1.38v4.76h-3.38v-4.76h1.06Zm1.38.78h-1.54v.58h1.54v-.58Zm0,1.31h-1.54v.58h1.54v-.58Zm0,1.31h-1.54v.58h1.54v-.58Zm.13,1.41c.41.34.95.83,1.22,1.16l-.8.54c-.24-.33-.77-.85-1.19-1.22l.76-.49Z"/>
          <path class="cls-2" d="m84.6,20.36l-.68-1.07c.34-.04.59-.09.84-.14,1.15-.27,2.05-1.1,2.05-2.41,0-1.24-.68-2.17-1.89-2.38-.13.77-.28,1.59-.54,2.44-.54,1.82-1.31,2.93-2.3,2.93s-1.83-1.1-1.83-2.62c0-2.08,1.8-3.85,4.13-3.85s3.64,1.55,3.64,3.51-1.16,3.24-3.43,3.59Zm-2.48-2.02c.38,0,.73-.57,1.1-1.78.21-.67.38-1.43.48-2.18-1.49.31-2.29,1.62-2.29,2.61,0,.91.36,1.35.71,1.35Z"/>
          <path class="cls-2" d="m57.43,26.64c-.65,1.05-1.8,2.49-3.07,3.52.51.51,1.05,1.1,1.4,1.52l-1.05.84c-.38-.5-1.13-1.35-1.72-1.94-.52-.53-1.44-1.34-1.98-1.73l.95-.77c.36.27.95.76,1.52,1.25,1.02-.81,1.86-1.85,2.29-2.59h-4.76c-.36,0-.85.04-1.04.06v-1.26c.23.04.73.08,1.04.08h5c.34,0,.65-.04.84-.1l.9.74c-.13.14-.23.26-.31.38Z"/>
          <path class="cls-2" d="m62.17,26.82c.93-.58,1.95-1.48,2.54-2.19l.97.93c-.68.68-1.55,1.38-2.42,1.95v3.64c0,.4.02.95.08,1.18h-1.42c.04-.22.06-.78.06-1.18v-2.88c-.93.49-2.07.97-3.18,1.3l-.57-1.13c1.61-.41,2.94-1,3.93-1.61Z"/>
          <path class="cls-2" d="m67.45,31.11l-.98-.67c.6-.57,1.32-1.56,1.69-2.32l1.03.48c-.41.8-1.25,1.98-1.74,2.51Zm3.77-5.6v.72h2.09c.26,0,.65-.03.89-.06v1.18c-.28-.02-.63-.03-.88-.03h-2.1v4.19c0,.52-.31.85-.95.85-.48,0-1.01-.02-1.46-.08l-.12-1.12c.39.07.78.11,1.01.11s.32-.09.32-.32c0-.33,0-3.19,0-3.61h0s-2.29,0-2.29,0c-.27,0-.61,0-.86.04v-1.19c.27.03.59.06.86.06h2.29v-.72c0-.23-.05-.63-.07-.78h1.33c-.03.13-.08.56-.08.78Zm3.37,4.95l-1.05.58c-.39-.77-1.03-1.85-1.47-2.41l.98-.53c.46.58,1.18,1.71,1.54,2.37Z"/>
          <path class="cls-2" d="m77.13,27.82h4.83c.42,0,.82-.04,1.05-.05v1.41c-.22,0-.68-.04-1.05-.04h-4.83c-.51,0-1.12.02-1.45.04v-1.41c.32.03.98.05,1.45.05Z"/>
          <path class="cls-2" d="m87.59,26.15c-.29.88-1.02,3.17-1.47,4.38,1.1-.11,2.38-.25,3.29-.36-.31-.65-.65-1.25-.95-1.65l1.13-.46c.64.97,1.56,2.74,1.97,3.75l-1.22.54c-.12-.31-.26-.68-.43-1.06-1.46.17-4.19.46-5.32.58-.22.03-.56.07-.85.11l-.21-1.31c.31,0,.69,0,.99,0,.07,0,.16,0,.24,0,.52-1.33,1.3-3.8,1.56-4.74.13-.46.18-.74.22-1.04l1.43.3c-.12.27-.25.6-.39,1Z"/>
          <path class="cls-2" d="m95.65,25.64c-.05.27-.13.6-.19.93.31-.02.57-.04.76-.04.95,0,1.63.42,1.63,1.72,0,1.06-.13,2.52-.51,3.3-.3.63-.79.83-1.48.83-.34,0-.77-.06-1.08-.13l-.19-1.19c.34.1.86.19,1.1.19.31,0,.53-.09.67-.39.24-.51.37-1.6.37-2.49,0-.72-.32-.82-.87-.82-.14,0-.37.02-.63.04-.34,1.37-1.01,3.5-1.84,4.83l-1.17-.47c.87-1.18,1.49-3,1.83-4.23-.32.04-.61.07-.77.09-.26.05-.73.11-1.01.15l-.11-1.22c.33.03.63,0,.96,0,.28,0,.7-.04,1.16-.08.13-.68.21-1.33.19-1.9l1.34.14c-.05.23-.12.52-.16.75Zm3.82.14l-.44.19c.54.84,1.21,2.34,1.47,3.14l-1.14.52c-.23-1-.87-2.58-1.51-3.38l.81-.35c-.18-.34-.41-.77-.61-1.06l.71-.3c.23.33.55.9.72,1.23Zm1.07-.41l-.71.31c-.19-.37-.48-.9-.73-1.24l.72-.29c.23.34.57.91.72,1.22Z"/>
          <path class="cls-2" d="m62.61,40.31h-2.12v4.41h-1.12v-4.41h-1.95v2.12h-1.92v.69h-1v-5.91h2.92v2.03h1.95v-2.77h1.12v2.77h2.12v1.06Zm-6.21-2.11h-.89v3.24h.89v-3.24Z"/>
          <path class="cls-2" d="m65.07,38.6c0,.59,0,1.26.05,1.91.13,1.3.4,2.19.96,2.19.42,0,.78-1.05.95-1.77l.9,1.1c-.59,1.57-1.16,2.12-1.88,2.12-.99,0-1.85-.89-2.1-3.3-.09-.83-.1-1.88-.1-2.43,0-.25-.02-.64-.07-.92l1.39.02c-.06.32-.11.85-.11,1.1Zm6.25,3.77l-1.18.46c-.14-1.45-.62-3.64-1.6-4.75l1.14-.37c.86,1.04,1.54,3.29,1.64,4.66Z"/>
          <path class="cls-2" d="m76.65,37.29c0,.09,0,.23,0,.37.74-.04,1.49-.11,2.28-.24v1.04c-.6.07-1.42.15-2.3.2v.93c.91-.04,1.67-.12,2.4-.22v1.06c-.82.09-1.52.15-2.39.18.02.34.04.71.06,1.07,1.13.32,2,.93,2.52,1.36l-.65,1.01c-.49-.45-1.1-.93-1.82-1.25,0,.13,0,.23,0,.33,0,.77-.59,1.36-1.77,1.36-1.44,0-2.2-.55-2.2-1.5s.84-1.55,2.22-1.55c.19,0,.38,0,.56.03-.02-.28-.03-.57-.04-.84h-.47c-.52,0-1.55-.04-2.14-.12v-1.06c.58.11,1.68.17,2.16.17h.43c0-.3,0-.62,0-.93h-.33c-.57,0-1.61-.08-2.21-.16l-.03-1.03c.65.11,1.67.2,2.22.2h.35v-.42c0-.17-.02-.45-.05-.62h1.21c-.03.18-.04.41-.05.64Zm-1.82,6.18c.48,0,.79-.14.79-.66,0-.1,0-.23,0-.39-.24-.04-.49-.06-.74-.06-.64,0-.99.25-.99.56,0,.34.32.55.95.55Z"/>
          <path class="cls-2" d="m82.54,38c-.04.97-.11,2.99-.11,4.1,0,.91.54,1.21,1.24,1.21,1.49,0,2.43-.86,3.08-1.84l.82.99c-.58.86-1.85,2.07-3.91,2.07-1.48,0-2.43-.65-2.43-2.19,0-1.21.09-3.57.09-4.35,0-.42-.04-.86-.12-1.22l1.45.02c-.05.38-.1.84-.12,1.2Z"/>
          <path class="cls-2" d="m91.65,37.6c-.02.1-.04.22-.07.34.5-.07,1.01-.17,1.5-.29v1.13c-.54.13-1.15.22-1.76.3-.08.39-.17.78-.27,1.15-.32,1.26-.93,3.1-1.43,4.17l-1.25-.42c.54-.9,1.22-2.79,1.56-4.05.06-.24.13-.5.19-.76-.21,0-.41.02-.59.02-.43,0-.77-.02-1.09-.04l-.03-1.13c.46.05.77.07,1.13.07.26,0,.53,0,.81-.03.04-.2.06-.37.08-.51.04-.33.05-.7.03-.91l1.38.11c-.07.24-.15.65-.19.85Zm1.08,4.89c0,.4.27.69,1.23.69.6,0,1.22-.07,1.87-.19l-.05,1.15c-.5.06-1.12.13-1.84.13-1.51,0-2.33-.52-2.33-1.43,0-.41.09-.85.16-1.21l1.07.11c-.07.25-.13.55-.13.75Zm1.37-3.11c.51,0,1.05.03,1.58.08l-.03,1.08c-.45-.05-1-.11-1.55-.11-.61,0-1.17.03-1.74.09v-1.05c.5-.04,1.15-.09,1.73-.09Z"/>
        </g>
      </g>
    </g>
  </g>
</svg>