<?xml version="1.0" encoding="UTF-8"?>
<svg id="_レイヤー_2" data-name="レイヤー 2" xmlns="http://www.w3.org/2000/svg" viewBox="0 0 198.58 294.9">
  <defs>
    <style>
      .cls-1 {
        fill: #ffce7e;
      }

      .cls-2, .cls-3 {
        fill: #262626;
      }

      .cls-4 {
        fill: #678ca0;
      }

      .cls-5 {
        fill: #f08c65;
      }

      .cls-6, .cls-7 {
        fill: #fff;
      }

      .cls-8 {
        fill: none;
        stroke: #262626;
        stroke-linecap: round;
        stroke-linejoin: round;
        stroke-width: 1.5px;
      }

      .cls-9 {
        fill: #8ab3dd;
      }

      .cls-7, .cls-3 {
        fill-rule: evenodd;
      }

      .cls-10 {
        fill: #b58d7c;
      }

      .cls-11 {
        fill: #fffb99;
      }

      .cls-12 {
        fill: #ffddc0;
      }

      .cls-13 {
        fill: #ff866e;
      }

      .cls-14 {
        fill: #5c696f;
      }

      .cls-15 {
        fill: #b75555;
      }
    </style>
  </defs>
  <g id="illustration">
    <g>
      <g>
        <g>
          <path class="cls-6" d="m177.3,28.99c-1.11-11.98-9.16-22.72-21.33-26.66-9.58-3.1-19.58-1.28-27.25,4.05-7.64-5.36-17.61-7.21-27.2-4.17-12.16,3.87-20.27,14.53-21.46,26.47-12.28,4.29-20.99,16.07-20.77,29.79,0,.01,0,.02,0,.03.16,13.25,8.68,24.57,20.61,28.81.65,6.83,3.57,13.26,8.22,18.24-.99,7.11-5.77,14.62-8.69,15.39,7.21.1,13.21-4.02,17.7-8.71,1.32.65,2.7,1.21,4.15,1.68,9.58,3.08,19.57,1.25,27.23-4.1,5.15,3.6,11.35,5.61,17.77,5.61,3.12,0,6.31-.48,9.45-1.48,12.16-3.89,20.25-14.58,21.41-26.54,12.22-4.3,20.9-16.05,20.68-29.72-.21-13.27-8.73-24.46-20.52-28.69Z"/>
          <path class="cls-8" d="m177.3,28.99c-1.11-11.98-9.16-22.72-21.33-26.66-9.58-3.1-19.58-1.28-27.25,4.05-7.64-5.36-17.61-7.21-27.2-4.17-12.16,3.87-20.27,14.53-21.46,26.47-12.28,4.29-20.99,16.07-20.77,29.79,0,.01,0,.02,0,.03.16,13.25,8.68,24.57,20.61,28.81.65,6.83,3.57,13.26,8.22,18.24-.99,7.11-5.77,14.62-8.69,15.39,7.21.1,13.21-4.02,17.7-8.71,1.32.65,2.7,1.21,4.15,1.68,9.58,3.08,19.57,1.25,27.23-4.1,5.15,3.6,11.35,5.61,17.77,5.61,3.12,0,6.31-.48,9.45-1.48,12.16-3.89,20.25-14.58,21.41-26.54,12.22-4.3,20.9-16.05,20.68-29.72-.21-13.27-8.73-24.46-20.52-28.69Z"/>
        </g>
        <g>
          <path class="cls-2" d="m88.13,48.79h6.37v1.69h-6.37v-1.69Zm5.82,12.87h-3.33v.72h-1.75v-6.14h5.08v5.42Zm-.04-8.73h-4.99v-1.64h4.99v1.64Zm-4.99.83h4.99v1.6h-4.99v-1.6Zm4.95-5.76h-4.84v-1.62h4.84v1.62Zm-3.26,9.92v2.07h1.57v-2.07h-1.57Zm14.21-7.04v3.39h-2v-1.6h-6.25v1.6h-1.93v-3.39h2.16c-.11-.52-.29-1.17-.49-1.66l.14-.04h-1.58v-1.8h3.82v-1.55h2.14v1.55h3.8v1.8h-1.66l.31.07c-.27.58-.52,1.15-.74,1.62h2.27Zm-.58,8.14c0,.85-.13,1.37-.67,1.67-.54.31-1.19.34-2.12.34-.05-.58-.34-1.35-.56-1.86.49.02,1.01.02,1.17.02.18,0,.23-.05.23-.22v-2.45h-1.57v6.12h-1.98v-6.12h-1.4v4.38h-1.96v-6.23h3.37v-1.55h1.98v1.55h3.51v4.34Zm-5.94-9.83c.23.56.41,1.21.5,1.67l-.07.02h2.02l-.22-.05c.18-.47.4-1.1.54-1.64h-2.77Z"/>
          <path class="cls-2" d="m117.74,48.77c-.05.23-.11.45-.16.68,2.83.65,4.7,2.94,4.7,6.09,0,3.82-2.72,6-6.46,6.57l-1.37-2.09c3.94-.32,5.51-2.36,5.51-4.61,0-2-1.12-3.49-2.92-3.98-.63,2.09-1.42,4.16-2.45,5.73.32.38.65.76.99,1.08l-1.82,1.44c-.22-.23-.43-.47-.61-.7-1.21,1.31-2.21,1.91-3.55,1.91-1.49,0-2.86-1.26-2.86-3.58,0-2.05,1.03-4.25,2.66-5.69-.18-.49-.32-.97-.49-1.46-.2-.65-.4-1.22-.72-1.87l2.36-.74c.11.59.25,1.19.4,1.73.09.34.2.72.32,1.1,1.37-.68,2.7-1.03,4.09-1.08.07-.31.13-.59.16-.86.09-.52.14-1.3.14-1.71l2.48.23c-.14.49-.31,1.37-.41,1.82Zm-7.87,9.79c.65,0,1.31-.56,1.98-1.37-.58-.88-1.15-2.11-1.67-3.46-.85.99-1.33,2.27-1.33,3.38,0,.88.38,1.44,1.03,1.44Zm3.35-3.35c.65-1.15,1.19-2.56,1.6-3.89-1.1.12-2.05.5-2.9,1.01.41,1.12.86,2.16,1.3,2.88Z"/>
          <path class="cls-2" d="m131.24,49.04c.88-.16,1.73-.36,2.43-.58l.07,2.09c-.83.22-1.94.45-3.15.63-.86,2.52-2.39,5.67-3.85,7.71l-2.18-1.12c1.42-1.76,2.88-4.41,3.67-6.36-.32.02-.63.02-.94.02-.74,0-1.48-.02-2.25-.07l-.16-2.09c.77.09,1.73.13,2.39.13.54,0,1.08-.02,1.64-.07.25-.99.45-2.07.49-3.01l2.48.25c-.14.58-.38,1.49-.65,2.47Zm4.86,5.44c.02.52.07,1.39.11,2.29,1.55.58,2.81,1.48,3.73,2.3l-1.21,1.93c-.63-.58-1.44-1.33-2.43-1.93v.18c0,1.67-.92,2.97-3.48,2.97-2.23,0-4-.99-4-2.97,0-1.76,1.48-3.12,3.98-3.12.43,0,.83.04,1.24.07-.07-1.33-.16-2.93-.2-4.03h2.25c-.05.76-.02,1.51,0,2.3Zm-3.6,5.67c1.24,0,1.62-.68,1.62-1.67v-.36c-.47-.11-.95-.18-1.46-.18-1.04,0-1.71.47-1.71,1.1,0,.67.56,1.12,1.55,1.12Zm2.38-9.58l1.15-1.78c1.3.56,3.53,1.78,4.45,2.45l-1.28,1.89c-1.04-.83-3.1-2-4.32-2.56Z"/>
          <path class="cls-2" d="m150.97,49.33c-1.17.94-3.55,2.77-4.75,3.8-.95.83-.94,1.03.04,1.87,1.35,1.13,4.77,3.83,6.61,5.62l-2.11,1.93c-.5-.56-1.03-1.13-1.57-1.67-1.1-1.13-3.75-3.39-5.38-4.79-1.8-1.53-1.66-2.48.14-4,1.42-1.15,3.89-3.15,5.1-4.32.52-.52,1.1-1.1,1.39-1.53l2.11,1.85c-.56.43-1.15.9-1.57,1.24Z"/>
          <path class="cls-2" d="m156.12,48.59c1.49-.13,4.47-.4,7.76-.68,1.85-.14,3.84-.27,5.1-.31l.02,2.3c-.97.02-2.52.02-3.47.23-2.18.58-3.8,2.92-3.8,5.06,0,2.95,2.77,4.03,5.82,4.2l-.85,2.47c-3.76-.25-7.33-2.29-7.33-6.18,0-2.59,1.46-4.65,2.66-5.56-1.69.18-5.37.58-7.45,1.03l-.23-2.47c.72-.02,1.42-.05,1.78-.09Z"/>
          <path class="cls-2" d="m100.75,72.73c-.02.41-.02.85-.02,1.31,1.44-.02,3.55-.09,5.04-.27l.07,2.14c-1.51.13-3.64.22-5.1.25.04,1.08.11,2.52.2,3.85,2.29.67,4.23,1.93,5.47,3.08l-1.39,2.14c-1.03-1.03-2.38-2.09-3.98-2.83.02.23.02.45.02.63,0,1.6-.81,3.12-3.84,3.12-2.57,0-4.68-.85-4.68-3.29,0-1.87,1.6-3.37,4.92-3.37.36,0,.72.02,1.06.05-.05-1.4-.13-2.93-.13-3.89,0-1.1,0-2.16-.02-2.94-.04-.88-.09-1.66-.2-2.11h2.72c-.09.52-.14,1.4-.16,2.11Zm-3.69,11.24c1.15,0,1.57-.5,1.57-1.71,0-.16,0-.38-.02-.63-.47-.07-.97-.13-1.48-.13-1.4,0-2.25.49-2.25,1.26,0,.88.92,1.21,2.18,1.21Z"/>
          <path class="cls-2" d="m115.22,72.34c-.13.54-.25,1.21-.38,1.85.59-.04,1.13-.07,1.51-.07,1.91,0,3.26.85,3.26,3.44,0,2.12-.25,5.04-1.03,6.61-.59,1.26-1.6,1.66-2.95,1.66-.7,0-1.55-.12-2.16-.25l-.4-2.38c.7.2,1.73.38,2.21.38.59,0,1.06-.18,1.35-.77.49-1.03.72-3.21.72-4.99,0-1.44-.61-1.64-1.75-1.64-.29,0-.74.04-1.24.07-.68,2.74-2.02,7-3.67,9.65l-2.34-.94c1.75-2.36,2.99-6,3.64-8.46-.65.07-1.21.14-1.55.18-.5.09-1.46.22-2,.31l-.22-2.45c.65.05,1.26.02,1.93,0,.56-.02,1.4-.07,2.32-.14.25-1.37.4-2.68.38-3.82l2.68.27c-.11.47-.23,1.05-.32,1.5Zm9.69,6.9l-2.29,1.06c-.47-2-1.75-5.26-3.02-6.84l2.14-.92c1.12,1.55,2.63,4.99,3.17,6.7Z"/>
          <path class="cls-2" d="m127.68,76.97c1.22-.38,4.29-1.41,6.46-1.41,2.84,0,4.75,1.69,4.75,4.41,0,3.26-2.86,5.47-8.59,5.83l-.95-2.21c4.12-.11,7.15-1.21,7.15-3.65,0-1.35-1.01-2.29-2.57-2.29-2.09,0-5.69,1.49-7.22,2.14l-.94-2.34c.54-.11,1.37-.32,1.91-.49Z"/>
          <path class="cls-2" d="m147.53,72.39c-.04.2-.09.43-.14.68,1.01-.14,2.02-.34,3.01-.58v2.25c-1.08.25-2.3.45-3.51.59-.16.77-.34,1.57-.54,2.3-.65,2.52-1.85,6.19-2.86,8.34l-2.5-.85c1.08-1.8,2.45-5.58,3.11-8.1.13-.49.27-.99.38-1.51-.41.02-.81.04-1.19.04-.86,0-1.55-.04-2.18-.07l-.05-2.25c.92.11,1.53.14,2.27.14.52,0,1.06-.02,1.62-.05.07-.4.13-.74.16-1.03.07-.67.11-1.4.05-1.82l2.75.22c-.14.49-.31,1.3-.38,1.69Zm2.16,9.78c0,.79.54,1.39,2.47,1.39,1.21,0,2.45-.14,3.75-.38l-.09,2.3c-1.01.13-2.23.25-3.67.25-3.02,0-4.66-1.04-4.66-2.86,0-.83.18-1.69.32-2.41l2.14.22c-.14.5-.25,1.1-.25,1.49Zm2.74-6.21c1.03,0,2.11.05,3.17.16l-.05,2.16c-.9-.11-2-.22-3.1-.22-1.22,0-2.34.05-3.48.18v-2.11c1.01-.09,2.3-.18,3.46-.18Z"/>
          <path class="cls-2" d="m159.92,83.65c0-.96.68-1.6,1.58-1.6s1.58.65,1.58,1.6-.68,1.58-1.58,1.58-1.58-.65-1.58-1.58Zm.18-9.36l-.09-2.68h2.99l-.09,2.68-.49,6.16h-1.84l-.49-6.16Z"/>
        </g>
        <g>
          <path class="cls-2" d="m105.17,28.64c-.86,1.4-2.4,3.32-4.09,4.69.68.68,1.39,1.46,1.86,2.03l-1.4,1.12c-.5-.67-1.51-1.8-2.29-2.59-.7-.71-1.92-1.79-2.64-2.3l1.27-1.02c.48.36,1.27,1.01,2.03,1.67,1.36-1.08,2.48-2.47,3.05-3.45h-6.34c-.48,0-1.13.06-1.38.08v-1.68c.31.05.97.11,1.38.11h6.66c.46,0,.86-.05,1.12-.13l1.2.98c-.17.19-.31.35-.41.5Z"/>
          <path class="cls-2" d="m111.5,28.88c1.24-.77,2.6-1.97,3.38-2.91l1.3,1.24c-.91.9-2.06,1.84-3.23,2.6v4.85c0,.53.02,1.27.11,1.57h-1.9c.05-.29.08-1.04.08-1.57v-3.84c-1.24.65-2.76,1.29-4.23,1.73l-.76-1.51c2.15-.55,3.91-1.33,5.24-2.15Z"/>
          <path class="cls-2" d="m118.54,34.59l-1.31-.89c.8-.75,1.76-2.07,2.25-3.09l1.37.64c-.55,1.07-1.67,2.64-2.31,3.35Zm5.02-7.46v.96h2.78c.35,0,.86-.04,1.19-.08v1.57c-.37-.02-.84-.04-1.18-.04h-2.79v5.58c0,.7-.41,1.13-1.26,1.13-.64,0-1.34-.02-1.94-.11l-.16-1.49c.52.1,1.04.14,1.34.14s.42-.12.43-.43c.01-.44.01-4.25.01-4.81h0s-3.05-.01-3.05-.01c-.36,0-.82.01-1.15.05v-1.58c.36.04.78.08,1.15.08h3.05v-.96c0-.31-.06-.84-.1-1.04h1.77c-.04.17-.11.74-.11,1.04Zm4.49,6.6l-1.4.77c-.52-1.02-1.37-2.47-1.96-3.21l1.31-.71c.61.77,1.57,2.28,2.05,3.15Z"/>
          <path class="cls-2" d="m131.45,30.21h6.44c.56,0,1.09-.05,1.4-.07v1.88c-.29-.01-.9-.06-1.4-.06h-6.44c-.68,0-1.49.02-1.93.06v-1.88c.43.04,1.31.07,1.93.07Z"/>
          <path class="cls-2" d="m145.4,27.98c-.38,1.18-1.36,4.22-1.96,5.83,1.46-.14,3.17-.34,4.38-.48-.42-.86-.86-1.67-1.26-2.19l1.5-.61c.85,1.29,2.07,3.65,2.63,4.99l-1.62.72c-.16-.41-.35-.9-.58-1.42-1.94.23-5.58.61-7.09.77-.3.04-.74.1-1.13.14l-.28-1.75c.41,0,.92,0,1.32-.01.1,0,.22-.01.32-.01.7-1.77,1.73-5.06,2.07-6.31.17-.61.24-.98.29-1.39l1.91.4c-.16.36-.34.8-.52,1.33Z"/>
          <path class="cls-2" d="m156.27,27.27c1.14-.06,2.34-.17,3.39-.35v1.39c-1.15.17-2.63.26-3.92.3-.2.44-.44.88-.68,1.22.31-.14.96-.24,1.36-.24.73,0,1.33.31,1.6.92.62-.29,1.13-.49,1.62-.71.47-.2.89-.4,1.33-.62l.6,1.39c-.38.11-1.02.35-1.43.5-.54.22-1.22.48-1.95.82.01.67.04,1.56.05,2.11h-1.44c.04-.36.05-.93.06-1.46-.9.52-1.38.98-1.38,1.58,0,.66.56.84,1.74.84,1.02,0,2.35-.13,3.41-.34l-.05,1.55c-.79.11-2.27.2-3.39.2-1.88,0-3.27-.46-3.27-2s1.44-2.49,2.81-3.2c-.18-.3-.5-.41-.84-.41-.67,0-1.42.38-1.87.83-.36.36-.71.79-1.12,1.32l-1.28-.96c1.26-1.16,2.11-2.23,2.65-3.31h-.16c-.49,0-1.37-.02-2.03-.07v-1.4c.61.1,1.5.14,2.11.14h.58c.13-.48.22-.95.24-1.38l1.58.13c-.06.3-.14.7-.3,1.2Z"/>
        </g>
      </g>
      <g>
        <g>
          <g>
            <g>
              <path class="cls-14" d="m116.75,252.87c.59-1.03,1.34-1.98,1.89-3.04.59-1.12.96-2.35,1.32-3.57,1.11-3.74,2.22-7.59,1.85-11.47-.19-1.91-.64-2.67-1.25-4.5-.78-2.34-2.27-3.77-3.68-5.78-.29-.41-1.89-1.45-2.22-1.82-1.36,1.98-1.54,2.2-3.52,3.47-1.26.8-2.59,1.5-3.91,2.19-1.42.74-2.86,1.42-4.34,2.04-2.91,1.2-5.94,2.05-9.08,2.32-.09,0-.19.02-.29.02-.57.04-1.2.06-1.73-.17-.11-.05-.22-.11-.33-.18-.66-.47-.93-1.35-1.19-2.08-.37-1.05-.81-2.13-1.52-2.99-.6-.72-1.37-1.24-2.19-1.69-.03-.02-.06-.04-.09-.05-.02.02-.04.04-.05.05-.17.16-.34.32-.46.5-.09.14-.13.2-.16.33-.02.06,0,.13.02.17.09.18-.03.34-.18.38,0,.05-.02.09-.06.13-.24.26-.63.37-.96.46-.52.14-1.07.21-1.6.28-1.06.13-2.12.2-3.18.33-.37.04-.75.1-1.11.19-.68.18-1.31.48-1.95.77-.51.23-1.05.45-1.62.44-.7,0-1.27-.35-1.82-.74-1.11-.78-2.15-1.66-3.13-2.59-1.47.84-3.09,1.37-4.71,1.88-.47.97-1,1.92-1.23,2.94-.1.43-.14.87-.1,1.32.01.17.04.34.07.52.04.2-.12.37-.32.32-1.08-.23-2.23-.42-3.3-.77.18.78.34,1.56.51,2.34,1.12,4.4,2.53,10.42,2.67,13.33.02.39.04.77.07,1.14.02.13.05.27.07.4.01.09.03.18.05.26l-.07-.03s0,.02,0,.03c.03.33.06.67.09,1,3.48,2.77,10.92,8.05,18.52,9.29,10.42,1.71,28.13,6.12,28.13,6.12l-3.9-1.37c.67.16,1.35.32,2.02.49.35.08.74.16,1.08.07.33.33.6.61.8.81,1.11,1.12,4.31-.51,5.42-1.1,1.66-.9,3.12-2.16,4.22-3.7.14-.19.27-.4.29-.64.02-.23-.08-.46-.18-.67-1.16-2.48-2.37-4.95-3.63-7.4Z"/>
              <path class="cls-9" d="m89.19,227.01c.78.97,1.23,2.14,1.64,3.3.22.62.47,1.45,1.12,1.75.32.15.69.16,1.04.16.59,0,1.17-.07,1.75-.14,3.11-.36,6.13-1.36,8.98-2.63,1.44-.64,2.85-1.35,4.24-2.09,1.23-.66,2.45-1.33,3.61-2.12,1.7-1.17,3.35-2.58,4.51-4.31-1.24-1.29-2.76-2.32-4.48-2.79-2.01-.55-4.14-.32-6.21-.08-1.66.19-2.95.74-4.57.47-.24-.11-.58-.26-1-.44-.12.07-.24.15-.37.22-.51.29-1.03.56-1.56.83-2.64,1.36-5.32,2.63-7.9,4.09-1.06.6-2.14,1.22-3.1,1.98.85.48,1.67,1.04,2.28,1.81Z"/>
              <path class="cls-4" d="m144.54,267.45c-.31.25-.34-.06-.71-.44-.29-.3-.95-.69-1.85-1.14-.93-.38-1.89-.72-2.62-.98-.75-.27-1.34-.48-1.64-.62l.14-.28c-.33-.14-.66-.29-1-.43.22.29.49.56.71.84.4.48.75.99.96,1.58.4,1.13.87,2.39.71,3.61-.08.64-.31,1.25-.52,1.86-.19.58-.41,1.15-.69,1.69-.59,1.14-1.52,2.15-2.45,3.02-.65.61-1.38,1.33-2.25,1.59.27.5.48.94.64,1.29.19.38.36.67.54.92l.19-.14.02.04c.19.31.4.66.64.98.06.05.11.09.17.14.26.22.74.21,1.32.03.18.37.39.74.61,1.09,2.04-.48,3.88-1.78,5-3.55.21-.33.39-.66.57-1.01.8-1.52,1.53-3.08,1.96-4.74.27-1.04.41-2.11.37-3.19-.02-.4-.16-2.71-.82-2.18Z"/>
              <path class="cls-14" d="m70.64,225.98c1.05.99,2.16,1.94,3.37,2.71.52.33,1.08.45,1.68.3.58-.15,1.11-.45,1.65-.68.9-.39,1.79-.57,2.75-.68,1.02-.11,2.04-.18,3.06-.32.44-.06.88-.13,1.31-.24.24-.06.55-.13.73-.33.03-.03.06-.05.09-.06-.1-.38.1-.76.38-1.09.25-.3.57-.55.8-.73,1.03-.82,2.18-1.49,3.32-2.13,1.39-.78,2.81-1.51,4.23-2.23,1.28-.65,2.57-1.28,3.85-1.95.46-.24.91-.48,1.36-.73-4.5-1.94-15.5-6.45-21.21-6.9-5.76-.45-7.97,1.6-9.01,4.45-1.04,2.86.55,9.06.55,9.06,0,0,.39.4,1.05,1.07.09.1.19.2.3.3-.09.06-.18.11-.27.17Z"/>
              <g>
                <path class="cls-9" d="m111.93,191.99c-.47-3.04-1.07-6.57-2.14-8.59-.16-.3-.33-.57-.51-.8-.19-.23-.4-.45-.61-.66-.01-.01-.03-.03-.04-.04-.01-.01-.03-.02-.04-.03-2.57-2.45-6.71-3.57-10.34-4.91-.19-.03-.38-.06-.58-.09-.29-.21-.58-.39-.88-.55-.83-.39-1.62-.69-2.34-.96-.02.04-.04.07-.07.11-.04-.02-.08-.03-.12-.05-.15.37-.32.72-.5,1.08-.24.42-.46.81-.66,1.2-.29.75-.62,1.48-1.01,2.19-.58,1.03-1.32,1.95-2.19,2.73-.94,1.15-2.01,2.18-3.32,2.71-2.23.9-4.81.98-7.06.09-2.08-.83-3.59-2.51-4.66-4.43-.54-.98-1.05-1.99-1.51-3.01-.32-.7-.63-1.43-.82-2.19-1.04.6-2.15,1.19-3.41,1.47-.02,0-.04,0-.06.01-.02,0-.04.02-.06.02-3.47,1.57-6.96,3.08-7.67,3.38-1.2.73-2.27,1.57-3.07,2.62-.13.18-.25.38-.37.6.6,1.07,1.15,2.4,1.67,4.06,1.47,6.42,9.74,29.26,3.84,36.5.01.02.03.03.05.04-.33.54-.61,1.13-.97,1.62-.44.59-.92,1.14-1.42,1.68-.34.5-.69,1.03-1.05,1.54.02.11.05.22.09.33.19.56.37,1.12.56,1.68.04.12.09.25.17.35.15.17.4.21.63.25.92.14,1.83.41,2.68.8,0-.11.01-.22.02-.33-.04-.46,0-.89.1-1.32.11-1.12.29-2.23.7-3.27.36-.93.94-1.81,1.69-2.46.9.11,1.81.15,2.68.15.43,0,.87,0,1.3,0-.66-.67-1.05-1.07-1.05-1.07,0,0-1.59-6.2-.55-9.06,1.04-2.86,3.24-4.9,9.01-4.45,5.71.45,16.71,4.96,21.21,6.9-.45.26-.9.5-1.36.73-1.28.66-2.56,1.3-3.85,1.95-1.42.72-2.84,1.45-4.23,2.23-1.14.64-2.29,1.31-3.32,2.13-.23.18-.55.44-.8.73.25,0,.49,0,.74,0,.02-.02.04-.04.05-.05.03.02.06.04.09.05.46,0,.93,0,1.39.01.31.28.7.65,1.19,1.14,1.54,1.54,2.34,4.45,2.65,5.79.53.23,1.16.21,1.73.17,2.43-.67,7.12-1.81,10.97-3.32,6.51-2.56,10.02-6.01,11.29-8.32.29-.52.46-.99.53-1.37.48-2.79-4.37-27.71-4.37-27.71Z"/>
                <path class="cls-12" d="m90.15,173.02c-1.03-1.22-1.12-4.85-1.12-4.85,0,0,1.47-1.12,2.5-2.6,1.04-1.48,1.59-3.38,1.59-3.38,0,0,.15,0,.38-.02-.02-.54-.04-1.42.02-2.15.06-1.37.21-2.49-.29-4.11-.78-2.68-3-4.42-4.3-6.75-.97-1.69-1.43-3.19-2.77-3.49-.52-.13-1.71.25-2.81.4-1.22.14-2.47.09-3.19.53-1.9,1.24-2.17,4.98-3.34,7.04-1.58,2.84-3.77,3.99-3.77,3.99,0,0,.5.73,1.03,1.22.59.5,1.27.83,1.27.83,0,0,.16,1.94.57,3.37.47,1.44,1.22,2.5,1.22,2.5l.21,1.11s-.25,6.56-1.55,7.28c-.11.13-.22.23-.34.27-.17.06-.34.13-.52.21-.31.17-.66.35-1.04.54-.17.1-.35.2-.52.3.1.02.19.06.27.13.05.05.08.12.08.18,0,.07-.03.14-.07.19-.04.05-.12.08-.18.08-.06,0-.12-.02-.17-.06,0,0,0,0-.02,0-.02,0-.05-.01-.07-.02-.06,0-.13,0-.19,0,.23.87.63,1.71,1.01,2.51.5,1.04,1.01,2.09,1.62,3.07,1.17,1.87,2.8,3.32,4.97,3.88,2.25.58,4.61.26,6.67-.8.94-.49,1.82-1.09,2.6-1.8.87-.79,1.62-1.7,2.19-2.73.39-.7.72-1.44,1.01-2.19.32-.83.6-1.67.85-2.52-1.56-.57-2.84-1.06-3.79-2.15Z"/>
                <path class="cls-5" d="m73.92,174.97c.38-.19.73-.37,1.04-.54.33-.17.62-.33.85-.47,1.3-.73,1.55-7.29,1.55-7.29l-.21-1.11s-.76-1.06-1.22-2.5c-.41-1.43-.57-3.37-.57-3.37,0,0-.67-.33-1.27-.83-.53-.49-1.03-1.22-1.03-1.22,0,0,2.19-1.14,3.77-3.99,1.18-2.06,1.44-5.8,3.34-7.04.72-.44,1.97-.39,3.19-.53,1.1-.15,2.29-.53,2.81-.4,1.34.3,1.8,1.8,2.77,3.49,1.3,2.33,3.53,4.07,4.3,6.75.5,1.62.35,2.74.29,4.11-.06.73-.04,1.61-.02,2.15.01.3.02.49.02.49l-1.36,2.99-2.5,2.6s.1,2.6.93,4.86c.26.75,2.37,1.18,6.17,3.19.31.16.6.35.89.55.19.03.38.06.58.09.9.14,1.79.32,2.66.58.75.22,1.59.51,2.28.98-.63-1.97-1.75-3.92-2.39-6.07-1.21-3.94-.76-9.08-.72-9.38,1.1-5.96-.16-15.29-1.61-18.36-1.26-2.63-5.61-6.86-8.95-7.85-2.71-.78-5.06.22-6.83.88-1.14.45-2.1.5-2.71.53-1.75.12-3.5,1.57-4.91,3.59-2.21,3.06-3.64,7.06-3.64,7.06,0,0-1.57,3.68-3.03,7.38-1.32,3.18-2.51,6.19-2.69,7.54-.38,2.4.67,5.3-.39,7.79-.87,2.04-2.18,2.82-3.55,4.13-.07.05-.6,4.96-.6,4.96,0,0,.05-.02.13-.06.71-.31,4.2-1.81,7.67-3.38,1.78-.81,3.56-1.64,4.95-2.33Z"/>
              </g>
              <path class="cls-12" d="m122.69,263.22c.03,1.52,5.01,2.76,5.54,3.49,1.7,2.2,1.17,3.55,3.38,6.89.81,1.18,1.72,2.32,2.57,3.42.12-.09.23-.18.34-.27,4.43-3.25,5.64-9.25,1.52-13.24-3.17-1.36-6.34-2.73-7.48-3.63-2.44-1.82-3.2-1.9-5.33-2.58-1.32-.42-3.43-1.73-4.85-2.67.13.31.27.62.4.93.53,1.23.96,2.49,1.41,3.75.35.98.47,1.98.07,2.95.14-.17.28-.35.4-.53.71.57,1.39,1.06,2.03,1.5Z"/>
              <path class="cls-4" d="m134.18,277.02c-.85-1.1-1.76-2.23-2.57-3.42-2.21-3.34-1.68-4.69-3.38-6.89-.53-.73-2.93-1.78-4.9-2.66l.49,3.49c.17.33.34.65.54.96,1.06,1.69,2.44,3.14,3.75,4.63,1.48,1.66,2.9,3.44,3.45,5.64.52,2.1-.02,4.53-1.84,5.85-.98.71-2.93,1.03-4.12,1.18l1.22,3.08c1.87,3.93,5.9,6.22,7.86,5.12,1.23-.76,4.08-5.18,2.78-11.29-.4-1.87-1.77-3.74-3.29-5.7Z"/>
              <path class="cls-12" d="m131.56,278.77c-.55-2.2-1.97-3.98-3.45-5.64-1.32-1.48-2.69-2.94-3.75-4.63-.2-.31-.38-.64-.54-.96-.69-1.35-1.1-2.8-1.13-4.32-.64-.43-1.32-.92-2.03-1.5-.12.18-.26.36-.4.53-.79.95-1.82,1.7-2.9,2.32-.81.46-1.65.9-2.51,1.27-.55.23-1.13.42-1.69.66,2.64,3.05,5.55,6.74,7.55,10.12,1.25,2.15,3,5.85,4.69,9.28.33-.02.67-.05,1-.09,1.2-.15,2.36-.48,3.33-1.19,1.82-1.32,2.36-3.75,1.84-5.85Z"/>
              <path class="cls-12" d="m87.06,235.55c1.02-.99,4.76-2.86,4.76-2.86l-1.47-4.02-2.07-2.75s-2.26.94-4.54,1.46c-2.28.53-3.73.37-5.32.77-1.5.35-2.84,1.04-4.15,1.79-1.06-.96-2.2-2-3.23-2.88-.89-1.09-1.91-2.64-3.15-1.84-1.35.87-2.27,1.95-3.05,3.3-.41.71-.83,2.15-.82,2.97.01.7.34,1.34.66,1.96.48.94.97,1.88,1.46,2.82-.79.23-1.65.54-2.23.91-.72.46-.87,1.27-.19,1.53.36.16,1.13.05,1.69,0,.85-.08,1.68-.19,2.45-.32.31.33.65.69.99,1.07-.16.05-.31.09-.43.12-1.42.29-4.61.7-4.64,1.58-.03.88.77,1.06,2.49.98.26-.01.53-.03.78-.04,1.29.68,3.38.96,4.81.76.32.37.61.7.85.99-.26.22-.45.55,0,.94.14.12.45.14.86.09,2.48,3.01,4.67,5.99,5.31,5.84,1.09-.19.92-.98-2.18-5.29-.22-.3-.49-.7-.78-1.17.41-.15.8-.31,1.15-.48.11.11.21.23.32.35,1.34,1.52,3.68,4.9,4.24,5.58.4.5,1.9,2.64,2.66,2.09.23-.17.23-.53.08-1.04l.29.6c1.81.68,1.62-.89-.02-4.36-1-2.11-.39-.94-.39-.94,1.12,1.37,1.78,2.7,2.6,2.12.85-.51-.91-3.04-1.52-3.96-.67-1.15-1.95-2.82-3.15-4.31.03-.03.07-.06.1-.09l1.54,1.66c.26-.7-.07-1.56-.61-2.5.8-.76,2.57-2.21,3.88-3.44Z"/>
            </g>
            <g>
              <path class="cls-2" d="m144.27,266.59c-.78-.81-3.41-1.97-7.64-3.79-3.24-1.39-6.59-2.82-7.72-3.71-2.22-1.65-3.13-1.93-4.77-2.44-.23-.07-.47-.15-.74-.23-2.01-.64-6.12-3.56-6.17-3.59-.28-.2-.66-.13-.86.14-.2.28-.13.66.14.86.18.12,4.31,3.06,6.51,3.76.27.09.52.16.75.23,1.57.48,2.35.73,4.39,2.25,1.25.98,4.52,2.38,7.98,3.87,3.08,1.32,6.57,2.82,7.24,3.51,1.11,1.16-.56,6.62-2.15,9.3-1.09,1.75-3.2,3.3-4.56,3.71.12.39.26.78.38,1.17,1.63-.51,3.97-2.21,5.24-4.23,1.35-2.26,3.91-8.79,1.99-10.79Z"/>
              <path class="cls-2" d="m146.08,267.68c-.43-1.38-3.16-2.45-6.43-3.6-.69-.25-1.29-.46-1.55-.58-.3-.15-.67-.02-.82.28-.15.31-.02.67.28.82.32.16.92.37,1.68.64,1.61.57,5.38,1.9,5.66,2.81.63,1.99-1.23,7.17-2.74,9.57-.93,1.53-3.08,3.71-5.04,3.95.2.36.4.75.52,1.16,2.38-.5,4.59-2.86,5.56-4.46,1.44-2.28,3.7-7.93,2.87-10.58Z"/>
              <path class="cls-2" d="m139.72,268.16c-.13-2.32-2.21-4.74-5.58-6.47-.3-.15-.67-.04-.83.27-.16.3-.04.67.27.83,3.5,1.8,4.83,4,4.91,5.46.18,2.45-2.35,6.58-4.29,7.77-.12.07-.29.16-.46.22.12.16.24.33.37.49.13.17.29.33.44.5.09-.05.19-.09.29-.15,2.31-1.41,5.09-5.98,4.88-8.89Z"/>
              <g>
                <path class="cls-2" d="m81.92,245.28c-.74-1.1-1.6-2.26-2.38-3.27-.29.3-.58.59-.88.87.74.97,1.54,2.06,2.24,3.09,2.4,3.56,2.87,4.82,2.93,5.27-.23-.12-.69-.51-1.6-1.7l-.16-.21c-.18-.22-.58-.78-1.05-1.42-.97-1.33-2.29-3.15-3.21-4.19l-.06-.07c-.33.25-.68.48-1.04.68l.19.21c.87.98,2.17,2.78,3.12,4.09.5.69.9,1.23,1.09,1.47l.14.18c.63.83,1.71,2.24,2.72,2.24.22,0,.43-.07.64-.22,1.03-.74.35-2.52-2.69-7.03Z"/>
                <path class="cls-2" d="m65.45,236.28c.4-.13.79-.27,1.19-.39-.27-.46-.48-.93-.72-1.47-.29-.66-.63-1.4-1.17-2.38-.16-.3-.54-.41-.83-.24-.3.16-.41.54-.24.83.51.94.84,1.66,1.12,2.3.22.49.41.92.65,1.36Z"/>
                <path class="cls-2" d="m72.59,244.38s.01-.05.02-.07c.12-.33.32-.61.55-.85-.11-.13-.23-.27-.36-.42-.45.12-.92.2-1.38.28.46.54.86,1,1.13,1.33,0-.09.01-.18.04-.26Z"/>
                <path class="cls-2" d="m77.17,245.07c-.16-.22-.31-.43-.46-.63-.35.25-.73.43-1.14.53.18.26.38.53.6.83.65.9,2.56,3.57,2.67,4.31-.54-.29-2.07-2.19-3.3-3.72-.4-.5-.82-1.02-1.25-1.54-.34.18-.71.36-1.1.38-.06,0-.13,0-.19-.02.54.66,1.08,1.32,1.58,1.95,2.48,3.08,3.43,4.21,4.19,4.21.06,0,.12,0,.18-.02.2-.03.8-.14,1.03-.71.33-.81-.27-2-2.82-5.56Z"/>
                <path class="cls-2" d="m78.75,250.13s-.02,0-.03,0c.01,0,.02,0,.03,0Z"/>
                <path class="cls-2" d="m85.16,246.75c-1.03-2.17-2.41-4.22-3.82-6.04-.3.29-.59.58-.9.85,1.34,1.74,2.64,3.67,3.61,5.72,1.23,2.61,1.28,3.41,1.24,3.63-.07,0-.21-.03-.45-.11-.32-.12-.67.04-.79.36-.12.32.04.67.36.79.34.13.65.19.91.19.36,0,.66-.12.88-.36.64-.69.35-2.1-1.04-5.03Z"/>
                <path class="cls-2" d="m85.95,244.11l-.13-.19c-.71-1.22-2.06-2.98-3.32-4.53-.06.05-.14.13-.2.18-.18.15-.37.3-.56.44-.07.05-.14.09-.21.14,1.23,1.52,2.56,3.24,3.24,4.42l.15.23c1.26,1.9,1.52,2.64,1.5,2.92-.22-.03-.73-.71-1.06-1.15-.21-.28-.43-.57-.68-.87-.21-.26-.6-.3-.87-.09-.26.22-.3.6-.09.87.23.28.45.57.64.83.6.8,1.26,1.68,2.03,1.68.23,0,.46-.08.71-.25.25-.15.43-.39.49-.69.22-.96-.71-2.46-1.67-3.91Z"/>
                <path class="cls-2" d="m83.59,238.48c-.16.19-.32.38-.51.55-.13.12-.27.22-.41.33.43.76.7,1.45.53,1.92-.12.32.05.67.36.79.07.03.14.04.21.04.25,0,.49-.15.58-.4.36-.99-.09-2.07-.77-3.22Z"/>
                <path class="cls-2" d="m74.53,229.36c-.06-.05-.12-.1-.17-.16-2.2-1.99-4.47-4.04-5.62-4.7-.29-.17-.67-.07-.84.23-.17.29-.07.67.23.84.99.57,3.18,2.53,5.17,4.33.42-.16.84-.33,1.24-.54Z"/>
              </g>
              <path class="cls-2" d="m85.92,226.83c-.31,0-.58-.23-.61-.55-.03-.3-.07-.67.02-1.04.12-.55.68-1.13,1.39-1.14.35,0,.62.27.63.6,0,.34-.27.62-.6.63-.1,0-.2.13-.21.18-.04.18-.02.41,0,.64.04.34-.21.64-.55.68-.02,0-.04,0-.07,0Z"/>
              <path class="cls-2" d="m86.08,225.06c-.18.28-.45,1-.23,1.33.21.32.95.15,1.25-.13.81-.75-.71-1.67-1.02-1.19Z"/>
              <path class="cls-2" d="m69.54,225.62c-.08,0-.16-.02-.24-.05-2.23-.94-4.77-1.94-5.19-2.02-.32-.02-.58-.28-.58-.6,0-.34.26-.62.6-.63.14,0,.57-.01,5.64,2.11.31.13.46.49.33.8-.1.24-.33.38-.57.38Zm-5.41-2.07s.02,0,.03,0c0,0-.02,0-.03,0Z"/>
              <path class="cls-2" d="m64.68,234.27c-.42,0-.83-.25-1.06-.66-.19-.34-.21-.71-.22-1.02-.05-1.99.39-3.8,1.26-5.24,1.03-1.7,2.71-2.87,4.49-3.12.33-.05.65.19.69.52.05.34-.19.65-.52.69-1.42.2-2.77,1.15-3.61,2.54-.75,1.23-1.12,2.82-1.08,4.57,0,.17.01.36.07.46.31-.03.61.17.68.47.08.33-.12.66-.45.75-.09.02-.17.03-.26.03Z"/>
              <path class="cls-2" d="m64.42,234.14s-.08,0-.12-.01c-.45-.09-.83-.31-1.17-.5l-.1-.06c-1.4-.78-2.91-1.32-4.48-1.61-.33-.06-.56-.38-.49-.71.06-.33.38-.56.71-.49,1.71.31,3.35.9,4.86,1.75l.11.06c.28.16.55.31.81.37.33.07.55.39.48.73-.06.29-.32.49-.6.49Z"/>
              <path class="cls-3" d="m87.95,156.65c.08-.59.55-1,1.02-.94.47.06.82.59.74,1.18-.08.59-.55,1-1.02.94s-.82-.59-.74-1.18Z"/>
              <path class="cls-2" d="m95.71,165.5c-.09,0-.18-.02-.26-.06-3.11-1.45-3.19-4.19-3.02-6.65.19-2.69-.62-4.17-1.25-5.05-.33-.49-.76-.92-1.22-1.38-.62-.62-1.25-1.26-1.67-2.07-.34-.64-.6-1.25-.83-1.78-.27-.64-.51-1.2-.8-1.59-.57-.75-1.19-1.11-2.36-.44-.29.17-.67.06-.84-.23-.17-.3-.06-.67.23-.84,1.56-.88,2.88-.63,3.95.76.39.51.65,1.13.96,1.85.22.51.46,1.09.78,1.69.33.65.88,1.2,1.46,1.78.48.48.97.98,1.35,1.55.73,1.02,1.68,2.75,1.47,5.84-.19,2.68.13,4.43,2.31,5.45.31.14.44.51.3.82-.1.22-.33.36-.56.36Z"/>
              <path class="cls-2" d="m83.33,186.63c-.06,0-.12,0-.18,0-7.81-.18-10.99-10.24-11.12-10.67-.1-.32.08-.67.41-.77.33-.1.67.08.77.41.03.1,3.06,9.64,9.98,9.8.05,0,.1,0,.14,0,6.53,0,10.08-10.17,10.12-10.27.11-.32.46-.49.78-.38.32.11.49.46.38.78-.16.46-3.87,11.1-11.27,11.1Z"/>
              <path class="cls-2" d="m103.06,217.37c-.34,0-.61-.28-.61-.61,0-.03,0-3.09.26-6.43.23-3.08-1.03-9.23-2-12.62-.91-3.17.54-8.25.61-8.46.09-.33.44-.51.76-.42.33.09.51.44.42.76-.01.05-1.42,4.95-.6,7.78.93,3.24,2.3,9.64,2.04,13.05-.25,3.29-.25,6.31-.25,6.34,0,.34-.28.61-.61.61h0Z"/>
              <path class="cls-2" d="m66.54,223.82c-.3,0-.57-.23-.61-.54-.01-.09-1.2-9.23-1.77-12.36-.38-2.08-.06-5.03.25-7.87.18-1.61.34-3.14.35-4.3.02-3.05-1.71-7.43-1.73-7.48-.12-.32.03-.67.34-.8.32-.12.67.03.8.34.07.19,1.83,4.66,1.81,7.94,0,1.23-.18,2.78-.36,4.43-.29,2.63-.61,5.61-.27,7.52.57,3.17,1.77,12.33,1.78,12.42.04.34-.19.65-.53.69-.03,0-.05,0-.08,0Z"/>
              <path class="cls-2" d="m116.87,253.33c-.15,0-.3-.05-.42-.16-.25-.23-.27-.62-.04-.87.03-.04,3.57-4.02,4.66-12.96,1.09-8.92-5.93-15.59-6.24-15.86-.25-.14-.37-.44-.28-.72.1-.32.45-.5.77-.4.47.15,8.14,7.55,6.98,17.13-1.14,9.37-4.82,13.47-4.97,13.64-.12.13-.29.2-.45.2Z"/>
              <path class="cls-2" d="m110.63,266.99s-.1,0-.15-.02c-.18-.04-17.8-4.43-28.08-6.11-10.49-1.72-18.51-9.48-18.85-9.81-.24-.24-.25-.63,0-.87.24-.24.63-.25.87,0,.08.08,8.09,7.82,18.18,9.48,10.33,1.7,28,6.09,28.18,6.14.33.08.53.42.45.75-.07.28-.32.47-.6.47Z"/>
              <path class="cls-2" d="m83.06,144.15c-.33,0-.6-.26-.61-.6v-.21c-.01-.61-.02-1.18-.87-2.4-.19-.28-.12-.66.15-.86.28-.19.66-.12.86.15,1.06,1.53,1.08,2.39,1.09,3.08v.19c.01.34-.25.62-.59.63,0,0-.01,0-.02,0Z"/>
              <path class="cls-2" d="m71.41,158.7c-.26,0-.49-.16-.58-.42-.11-.32.06-.67.38-.78.86-.29,1.78-.87,2.73-1.7,1.27-1.13,2.22-2.69,2.74-4.52.76-2.83,2.13-6.51,5.28-5.75.33.08.53.41.45.74-.08.33-.41.53-.74.45-1.01-.24-2.5,0-3.81,4.88-.58,2.07-1.66,3.83-3.11,5.12-1.08.94-2.14,1.6-3.15,1.94-.07.02-.13.03-.2.03Z"/>
              <path class="cls-2" d="m70.92,150.31c-.06,0-.13,0-.19-.03-.32-.1-.5-.45-.4-.77,2.55-7.92,5.95-11.8,10.38-11.87.34,0,.62.27.62.61,0,.34-.27.62-.61.62-3.83.05-6.85,3.66-9.22,11.01-.08.26-.33.43-.59.43Z"/>
              <path class="cls-2" d="m102.76,178.77c-.26,0-.5-.17-.59-.43-.29-.92-.68-1.76-1.09-2.66-.64-1.4-1.3-2.85-1.69-4.71-.74-3.54-.49-5.89-.25-8.15.06-.59.13-1.18.17-1.79.16-2.13.15-6.82-.36-10.58-.55-3.89-1.69-7.93-6.22-11.11-2.45-1.7-6.99-3.07-9.15-1.24-.26.22-.65.19-.87-.07-.22-.26-.19-.65.07-.87,2.75-2.33,7.98-.68,10.65,1.17,4.93,3.45,6.17,7.98,6.74,11.95.54,4.08.51,8.81.36,10.84-.05.62-.11,1.22-.17,1.83-.23,2.17-.47,4.42.23,7.77.36,1.73.99,3.11,1.6,4.45.41.89.83,1.81,1.14,2.8.1.32-.07.67-.4.77-.06.02-.13.03-.19.03Z"/>
              <path class="cls-2" d="m69.91,151.59c-.32-.12-.67.03-.8.35-.43,1.09-.9,2.18-1.35,3.23-1.72,3.98-3.34,7.74-2.96,11.52.39,3.91-.72,5.31-1.31,6.05-.07.09-.14.18-.18.23-.75.92-2.45,4.99-3.3,7.17-.36.44-.52,1.21-.55,1.43.19-.13.37-.26.57-.37.42-.28.86-.54,1.29-.79-.01-.04-.02-.08-.04-.11.89-2.26,2.43-5.85,3.01-6.57.05-.06.1-.13.16-.21.65-.82,2.01-2.53,1.57-6.94-.34-3.46,1.22-7.08,2.87-10.91.46-1.06.93-2.16,1.37-3.26.12-.32-.03-.67-.35-.8Z"/>
              <path class="cls-2" d="m77.79,166.66c-.03-.34-.32-.59-.66-.56-.34.03-.59.33-.56.66,0,.03.29,3.49-.02,5.05-.38,1.86-3.16,3.01-6.11,4.23l-.93.39c-.83.35-1.68.68-2.59,1.03-3.49,1.35-7.1,2.75-9.19,5.48-.03.05-.06.1-.1.15.27.36.52.74.75,1.13.1-.2.21-.38.33-.54,1.88-2.44,5.32-3.78,8.66-5.07.87-.34,1.77-.69,2.62-1.05l.92-.38c3.25-1.35,6.32-2.62,6.84-5.12.34-1.73.05-5.25.04-5.39Z"/>
              <path class="cls-2" d="m74.44,157.55c-.22,0-.43-.12-.54-.33l-.24-.45c-.16-.3-.04-.67.26-.83.3-.16.67-.04.83.26l.24.45c.16.3.04.67-.26.83-.09.05-.19.07-.29.07Z"/>
              <path class="cls-2" d="m84.23,161.8c-.17,0-.34-.07-.46-.21-.22-.25-.2-.64.05-.87.53-.47.55-.65.55-.65-.01-.05-.15-.2-.24-.3-.28-.31-.66-.74-.73-1.43-.2-1.62,1.27-3.81,1.28-3.84.19-.28.57-.35.85-.16.28.19.35.57.16.85-.38.57-1.19,2.11-1.08,3.01.03.29.18.47.42.74.26.29.58.65.55,1.19-.03.48-.33.94-.96,1.5-.12.1-.26.15-.41.15Z"/>
              <path class="cls-2" d="m84.59,165.27c-1.66,0-3.35-.65-4.21-1.62-.22-.25-.2-.64.06-.87.25-.22.64-.2.87.06,1,1.14,3.74,1.69,5.27.7.28-.18.67-.1.85.18.18.29.1.67-.18.85-.76.49-1.69.7-2.64.7Z"/>
              <path class="cls-2" d="m82.2,151.88c-.11,0-.22-.03-.31-.09-1.22-.73-2.27-.21-2.31-.19-.3.15-.67.03-.83-.27-.16-.3-.04-.67.26-.82.07-.04,1.68-.87,3.51.23.29.17.39.55.21.84-.12.19-.32.3-.53.3Z"/>
              <path class="cls-2" d="m91.01,153.19c-.15,0-.3-.05-.42-.16-.04-.04-.91-.79-2.27-.37-.33.1-.67-.08-.77-.4-.1-.32.08-.67.4-.77,2.07-.64,3.41.59,3.47.64.25.23.26.62.03.87-.12.13-.28.19-.45.19Z"/>
              <path class="cls-3" d="m76.89,166.31s3.08,3.35,6.14,3.82c2.34.37,6.06-1.88,6.06-1.88,0,0-3.96,3.6-7.14,3.65-2.76.05-4.76-2.35-4.76-2.35l-.3-3.24Z"/>
              <path class="cls-2" d="m82.9,170.78s-.07,0-.1,0c-.09-.01-2.2-.38-4.92-2.8-1.85-1.63-2.37-3.16-2.69-4.08l-.02-.06c-.45-1.31-.73-3-.9-5.3-.02-.34.23-.63.57-.66.34-.02.63.23.66.57.16,2.2.42,3.78.83,4.99l.02.06c.29.85.73,2.14,2.34,3.55,2.43,2.16,4.29,2.51,4.31,2.51.33.06.56.38.5.71-.05.3-.31.51-.6.51Z"/>
              <path class="cls-2" d="m83.23,170.8c-.21,0-.33-.01-.35-.02-.34-.05-.57-.35-.53-.69.05-.34.36-.57.69-.53.03,0,1.63.16,4.5-1.21,2.09-1.02,3.1-2.27,3.52-2.92.64-.9,1.16-2.13,1.67-3.32l1.14.47c-.53,1.26-1.08,2.56-1.78,3.54-.47.74-1.64,2.19-4.01,3.34-2.49,1.19-4.16,1.34-4.85,1.34Z"/>
              <path class="cls-2" d="m74.79,160.29s-.09,0-.14-.02c-.82-.19-1.91-.97-2.5-2.31-.14-.31,0-.67.31-.81.31-.14.67,0,.81.31.44,1,1.23,1.51,1.65,1.6.33.08.54.41.46.74-.06.28-.32.48-.6.48Z"/>
              <path class="cls-3" d="m79.3,155.49c.08-.59.49-1.01,1.02-.94.47.06.82.59.74,1.18-.08.59-.55,1-1.02.94-.53-.07-.82-.59-.74-1.18Z"/>
              <path class="cls-2" d="m122.7,264.21c-.12,0-.24-.03-.35-.11-.82-.56-1.16-.95-1.47-1.29-.19-.21-.35-.39-.62-.62-.26-.22-.3-.6-.08-.87.22-.26.6-.3.87-.08.34.28.55.52.76.75.28.32.55.62,1.24,1.09.28.19.35.57.16.85-.12.17-.31.27-.51.27Z"/>
              <path class="cls-2" d="m125.39,286.52c-.23,0-.45-.13-.55-.34-.32-.64-.63-1.3-.95-1.95-1.39-2.86-2.71-5.57-3.72-7.29-3.86-6.53-5.25-7.98-7.2-9.8-.25-.23-.26-.62-.03-.87.23-.25.62-.26.87-.03,2.03,1.9,3.47,3.4,7.42,10.08,1.03,1.77,2.36,4.49,3.76,7.38.26.53.51,1.05.77,1.57,1.56-.13,2.71-.5,3.6-1.14,1.69-1.23,2.03-3.5,1.6-5.21-.52-2.12-1.98-3.89-3.31-5.38l-.51-.57c-1.16-1.29-2.35-2.62-3.3-4.13-1.14-1.81-1.73-3.7-1.77-5.6,0-.34.26-.62.6-.63.34,0,.62.26.63.6.03,1.68.56,3.35,1.58,4.97.9,1.42,2.06,2.72,3.18,3.97l.52.58c1.43,1.6,2.99,3.51,3.59,5.9.63,2.53-.21,5.14-2.07,6.5-1.53,1.11-3.39,1.33-4.66,1.4-.01,0-.02,0-.03,0Z"/>
              <path class="cls-2" d="m132.83,293.41c-.36,0-.76-.06-1.18-.18-2.25-.64-4.71-2.85-5.52-4.44-.34-.67-.69-1.38-1.05-2.1-.09-.18-.08-.4.02-.58.1-.18.29-.29.49-.31,1.4-.1,2.48-.36,3.39-.83,1.65-.85,2.68-2.61,2.68-4.61,0-3.17-2.2-5.62-4.33-7.99-.77-.86-1.57-1.74-2.24-2.64-.96-1.28-2.59-3.83-2.76-6.48-.02-.23.1-.46.31-.57.2-.12.45-.11.65.02.29.2.59.37.88.54.97.57,1.97,1.17,2.58,2.35.22.42.42.84.63,1.26.71,1.45,1.45,2.94,2.74,4.61l.68.9c3.54,4.66,6.06,8.09,6.22,9.83.64,6.3-1.33,9.95-2.81,10.86-.4.24-.85.36-1.37.36Zm-6.24-6.47c.22.44.44.87.65,1.29.69,1.36,2.87,3.28,4.75,3.81.46.13,1.11.23,1.57-.05.78-.48,2.88-3.3,2.23-9.69-.14-1.52-3.51-5.96-5.98-9.21l-.68-.89c-1.36-1.76-2.12-3.31-2.86-4.81-.21-.42-.41-.83-.62-1.24-.41-.79-1.09-1.24-1.88-1.72.37,1.43,1.17,3.03,2.31,4.55.64.85,1.38,1.68,2.17,2.55,2.29,2.54,4.66,5.17,4.65,8.81,0,2.46-1.29,4.64-3.35,5.7-.85.44-1.81.72-2.96.87Z"/>
              <path class="cls-2" d="m138.07,282.59c-.47-2.18-2.1-4.28-3.83-6.5-.71-.92-1.45-1.86-2.11-2.83-1.1-1.66-1.49-2.81-1.85-3.82-.35-1-.68-1.95-1.55-3.09-.49-.68-1.44-1.17-2.81-1.8.11.21.22.42.33.63.18.34.36.68.54,1.02.04.08.09.15.13.22.38.22.66.44.82.66.76.99,1.03,1.77,1.37,2.75.38,1.09.8,2.32,1.99,4.11.69,1,1.44,1.96,2.16,2.89,1.64,2.11,3.19,4.1,3.6,6,1.29,6.03-1.61,10.09-2.48,10.62-.46.26-1.15.26-1.93.01-1.62-.52-3.82-2.22-5.08-4.86-.15-.31-.51-.44-.82-.29-.31.15-.44.51-.29.82,1.24,2.61,3.53,4.77,5.82,5.5.51.16.99.24,1.44.24.55,0,1.05-.12,1.49-.36,1.46-.9,4.41-5.61,3.06-11.94Z"/>
              <path class="cls-2" d="m126.34,286.73c-.12,0-.24,0-.36-.01-.34-.02-.59-.32-.57-.66.02-.34.31-.59.66-.57,1.42.1,3.01-.64,4.15-1.93,1.1-1.24,1.58-2.73,1.32-4.08-.42-2.12-1.98-4-3.79-6.17-2.2-2.65-4.69-5.64-5.65-9.84-.08-.33.13-.66.46-.74.33-.08.66.13.74.46.89,3.91,3.28,6.79,5.39,9.33,1.84,2.21,3.57,4.3,4.05,6.72.34,1.73-.25,3.6-1.61,5.13-1.32,1.49-3.09,2.35-4.8,2.35Z"/>
              <path class="cls-2" d="m75.01,229.09c-2.42-2.45-4.37-4.43-4.9-4.96-.23-.97-1.41-6.13-.53-8.54.82-2.26,2.47-4.51,8.38-4.05,7.1.55,21.24,6.94,21.38,7.01.31.14.67,0,.81-.31.14-.31,0-.67-.31-.81-.59-.27-14.48-6.54-21.8-7.11-5.22-.41-8.28,1.14-9.63,4.86-1.09,3,.47,9.16.53,9.42.03.11.08.2.16.28.06.06,2.12,2.15,4.82,4.88.36-.23.71-.45,1.08-.66Z"/>
              <path class="cls-2" d="m120.94,260.01c-4.91-10.51-9.88-19.08-15.2-26.21-.93-1.24-1.94-2.46-3.02-3.63-.23-.25-.62-.27-.87-.04-.25.23-.27.62-.04.87,1.05,1.14,2.03,2.32,2.94,3.53,5.27,7.05,10.2,15.56,15.07,25.99.05.11.13.28.13.36,0,.08-.13.25-.18.32-1.03,1.43-2.42,2.65-4.02,3.51-2.83,1.53-4.29,1.61-4.69,1.21-2.27-2.3-22.26-22.49-23.57-24.02-.37-.43-1.7-1.82-3.46-3.63-.35.23-.69.47-1.03.71,1.82,1.87,3.19,3.3,3.56,3.73,1.34,1.57,21.35,21.79,23.63,24.09.37.38.9.57,1.57.57,1.12,0,2.65-.52,4.57-1.56,1.76-.95,3.29-2.3,4.43-3.88.13-.18.37-.52.41-.95.03-.4-.12-.73-.24-.98Z"/>
              <path class="cls-2" d="m91.84,222.56c-.11,0-.23-.03-.33-.1-4.74-3.02-8.46-4.39-8.49-4.41-.32-.12-.48-.47-.37-.79.12-.32.47-.49.79-.37.16.06,3.87,1.42,8.74,4.52.29.18.37.56.19.85-.12.18-.32.28-.52.28Z"/>
              <g>
                <path class="cls-2" d="m68.73,235.27c-.91,0-1.62-.22-1.89-.77-.18-.34-.21-.71-.08-1.06.22-.59.85-1.06,2.05-1.54,1.22-.42,2.43-.88,4.08-1.86,1.66-.99,3.37-2.01,5.37-2.48.79-.2,1.55-.27,2.35-.34.89-.08,1.81-.16,2.97-.43,2.2-.51,4.42-1.42,4.44-1.43.32-.13.67.02.8.33.13.31-.02.67-.33.8-.09.04-2.34.96-4.63,1.5-1.24.29-2.25.38-3.14.46-.79.07-1.47.13-2.17.31-1.82.43-3.38,1.36-5.03,2.34-1.75,1.05-3.03,1.52-4.29,1.96-1.14.46-1.3.76-1.33.82,0,0,0,.02,0,.05.23.14,1.41.29,3.43-.37.32-.11.67.07.78.39.11.32-.07.67-.39.78-1.02.34-2.11.55-3.01.55Z"/>
                <path class="cls-2" d="m65.56,242.79c-.9,0-1.58-.12-2.01-.54-.28-.28-.42-.64-.4-1.09.03-1.15,1.83-1.56,4.35-2.02.29-.05.55-.1.78-.15.11-.02.25-.06.4-.11-.92.18-2,.33-3.22.45l-.26.02c-.76.07-1.33.11-1.75-.08-.45-.17-.74-.55-.79-1.02-.06-.58.29-1.19.9-1.59.8-.52,2.14-.98,4.07-1.41.75-.18,1.62-.58,2.39-.94l.37-.17c.95-.47,1.82-1.17,2.82-1.97.59-.47,1.19-.96,1.91-1.47.27-.2.66-.14.86.14.2.28.14.66-.14.86-.69.5-1.28.97-1.86,1.44-1.06.85-1.97,1.58-3.06,2.12l-.39.18c-.82.38-1.75.82-2.63,1.02-2.21.49-3.22.94-3.68,1.24-.26.17-.34.36-.35.42,0,0,.02,0,.04.02.2.08.84.02,1.15-.01l.26-.02c2.32-.23,4.13-.58,5.22-1.01.14-.05.38-.16.67-.29,1.98-.88,2.63-1.09,3.08-.78.2.14.31.37.3.62-.14,1.21-5.24,3.38-6.08,3.55-.23.05-.5.1-.8.15-.82.15-2.94.53-3.34.92,0,.04.01.08.03.1.09.09.46.24,1.8.17.28-.01.55-.03.83-.04,1.36-.06,2.64-.11,3.43-.45.5-.22,4.33-2.11,4.86-2.51.27-.21.66-.16.86.11.21.27.16.66-.11.86-.7.54-4.8,2.53-5.12,2.67-1,.42-2.39.49-3.87.55-.27.01-.54.02-.82.04-.25.01-.49.02-.72.02Z"/>
                <path class="cls-2" d="m73.22,245.52c-.4,0-.73-.07-.93-.25-.45-.39-.51-.79-.48-1.05.04-.34.23-.6.44-.79-.08.02-.15.03-.21.04-1.69.27-4-.09-5.37-.85-.3-.16-.41-.54-.24-.83.16-.3.54-.41.83-.24,1.12.62,3.17.94,4.58.71.62-.1,1.97-.68,3.16-1.2,2.13-.92,2.99-1.26,3.51-1.13.24.06.44.28.48.52.03.21.13.86-2.32,2.13-.53.3-1.29.63-1.95.93-.51.23-1.04.46-1.23.58-.02.01-.05.03-.1.06-.13.07-.22.13-.27.17.75.06,3.47-.8,4.48-1.52,1.14-.81,3.9-3.06,5.17-4.26.35-.33.88-.79,1.49-1.31.77-.67,1.65-1.43,2.38-2.11,1.62-1.56,3.02-2.4,5.01-3,.32-.09.67.09.77.41.1.33-.09.67-.41.77-1.8.54-3.02,1.27-4.51,2.71-.76.71-1.64,1.48-2.42,2.15-.6.52-1.12.97-1.45,1.28-1.32,1.25-4.11,3.52-5.3,4.37-.79.56-3.51,1.74-5.09,1.74Z"/>
              </g>
              <path class="cls-2" d="m92.39,233.64c-.21,0-.43-.06-.62-.16-.3-.17-.52-.47-.6-.81-.26-1.16-1.03-4.03-2.48-5.48-1.21-1.21-1.79-1.66-2.02-1.81-.24-.16-.37-.42-.36-.7,0-.28.16-.53.4-.67,1.51-.88,11.85-6.46,16.15-7.84,4.89-1.57,7.16-.1,7.25-.04.28.19.36.57.17.85-.19.28-.57.36-.85.17-.01,0-1.93-1.18-6.19.19-3.85,1.23-12.73,5.96-15.35,7.42.45.37,1.01.89,1.68,1.57,1.61,1.61,2.45,4.5,2.81,6.07.6-.18,1.48-.41,2.6-.71,2.62-.7,6.2-1.65,9.28-2.86,7.69-3.02,11.1-7.27,11.44-9.23.34-1.96-2.43-17.51-4.37-27.49-.4-2.59-1.13-7.36-2.53-9.13-1.95-2.37-5.44-3.58-8.82-4.76-.88-.31-1.8-.63-2.66-.96l-.93-.35c-3.3-1.24-6.41-2.4-7.01-4.88-.4-1.73-.27-4.18-.26-4.28.02-.34.31-.59.65-.58.34.02.6.31.58.65,0,.02-.13,2.38.23,3.93.45,1.84,3.26,2.89,6.25,4.01l.94.35c.85.33,1.71.63,2.62.95,3.54,1.23,7.19,2.51,9.37,5.15,1.49,1.88,2.22,5.99,2.79,9.69.5,2.54,4.86,25.09,4.37,27.91-.4,2.32-3.98,6.94-12.2,10.16-3.14,1.23-6.76,2.2-9.41,2.9-1.06.28-1.97.52-2.53.7-.12.04-.25.06-.38.06Z"/>
            </g>
          </g>
          <g>
            <g>
              <path class="cls-15" d="m44.26,159.98c-2.28-6.47-3.49-7.73-7.9-7.45-.68-3.12-7.01-2.83-10.12-1.52-2.74,1.18-6.09,3.3-7.88,8.6-1.86,5.52-8.25,18.67-.58,22.93.22.12.45.24.69.35l1.14-.18,2.25-.35c.06,0,.12-.02.17-.03l1.81-.28.46-.07.34-.05c-.4-.45-1.05-1.26-1.56-2.34-.78-1.68-1.13-3.62-1.13-3.62l-.7-.36c-.06,0,.97-2.02,2.14-3.3,1.11-1.27,2.01-3.36,2.31-4.3.66-1.77,1.05-4.66,1.83-6.74.3-.76.29-1.38,2.04-1.54.94-.08,2.63-.07,4.08.23,1.25.26,2.32.73,2.59,1.53,1.05,2.87,1.85,5.36,1.85,5.36,0,0,.96,1.24,1.85,2.1,1.28,1.29,2.51.4,2.51.4,0,0,2.07.09,2.16,1.84.02,1.13.23,2.38-1.01,3.34-1.17.96-2.18.98-2.18.98,0,0-.28,2.07-1.13,3.78-.6,1.22-1.08,1.83-1.31,2.08l.49-.08c.94-.34,2.76-.94,4.25-1.14,3.94-4.1,2.12-15.56.5-20.17Z"/>
              <path class="cls-12" d="m39.51,181.29c-.39.14-.64.24-.64.24.94-.39,2.87-5.88,2.58-6.02,3.33.03,4.83-5.94,1.02-6.16-1.48,1.35-3.8-1.73-4.37-2.5,0,0-.79-2.49-1.85-5.36-.79-1.89-5.15-1.87-6.67-1.77-3.23.09-2.72,6.31-3.87,8.28-.1,1.61-4.16,6.54-4.45,7.6,0,0,.7.36.7.36-.15.58,1.79,5.69,3.05,6.34-1.31-.1-3.32-.22-4.54.53,2.62,4.27,8.69,11.27,13.95,11.34,6.95-5.79,7.62-5.4,11.33-13.88-1.61-.73-4.93.58-6.26.99Z"/>
              <path class="cls-10" d="m34.11,241.7l.74-1.02s.09-.06.13-.1c0-.03,0-.05,0-.08l12.16-16.8,7.86-10.86s-.26-15.49-6.19-16.51c-2.43-.42-4.54-.24-6.27.5-2.57,1.1-4.29,3.46-4.92,7.08-.25,1.43-1.01,7.15-1.89,13.86-.1-.21-.18-.39-.19-.52-.03-.23-.09-.44-.17-.66l.39.05s-3.95-15.14-5.39-17.38c-2.11-3.28-4.34-4.33-9.53-3.08-.97.23-1.84.94-2.62,1.92-2.25,2.87-3.68,8.2-4.44,11.78-.22,1.03-.38,1.91-.49,2.55-.12.69-.17,1.09-.17,1.09l.34.05c.13.97.32,2.09.91,3.11.89,1.53,4.48,8.47,5.58,10.6.21.4.17.87-.09,1.24-.08.11-.16.23-.26.36.08-.05.15-.09.24-.13,1.19,3.04,5.89,11.26,7.83,14.78,1.25-.35,2.64-.75,3.93-1.13.34-.14.67-.29,1-.44,0,.05-.01.11-.02.16.55-.16,1.06-.31,1.52-.45Z"/>
              <path class="cls-12" d="m44.76,262.89c-2.23-4.01-4.59-6.31-8.93-8.75-.69.8-2.41,2.81-3.08,3.59,2.36-3.2,5.84-9.08,6.8-10.07,1.61-1.7,15.51-14.01,15.51-14.01l-.86.35c.25-.2.48-.42.71-.65-4.33-1.17-5.28-5.45-7.4-8.78-1.65,1.01-2.44,2.94-3.47,4.58-3.39,4.11-6.52,8.5-9.92,12.55-2.06.61-4.36,1.28-6.43,1.86-1.95-3.52-6.65-11.74-7.83-14.78-3.11,3.64-4.24,5.52-9.36,6.97,3.04,4.28,6.08,8.56,9.12,12.85-.43,1.69-1.99,3.51-1.89,5.35.27,1,1.55.31,2.24-.74-.25,2.08,1.41,1.68,1.42,2.69-.29.82.24,2.43,1.35,2.26,1.14-.01-.61,3.15,3.26,2.31-.19.13,1.2,1.93,3.33.96l-.03.02c.6,1.95,3.52,7.26,4.38,8.59.47,1.93,3.3,3.1,4.57,2.39l-.36-.45c1.15,1,4.08.79,5.13.29.29-.14.55-.37.72-.7l-.9-1.28c.31.38,2.99,3.06,3.31.69-.19-2.18-1.88-3.98-3.27-6.51l2.76,4.06c2.69-.12-.64-4.4-.86-5.66Zm-14.83-1.87l-.03.02s.02-.02.04-.03h0Z"/>
              <path class="cls-6" d="m50.29,275.14l-.09.02c.3.49.52,1.01.62,1.57.14.76-.6,1.7-1.85,2.64-.96.71-1.99-.88-4.13.02-2.09.82-2.16,2.58-3.65,2.93-2.25.5-3.96.34-5,.28-1.03-.09-1.57-.69-1.95-1.87.21,1.52.67,3.35,2.45,3.61,1.01.22,1.93.17,3.4-.03,2.15-.33,5.16-.97,7.47-2,2.32-1.03,4.53-2.39,4.62-3.86.1-1.41-1.89-3.3-1.89-3.3Z"/>
              <path class="cls-6" d="m30.17,285.94c-1.03-.08-2.75-.16-4.91-.98-1.43-.56-1.25-2.32-3.2-3.42-1.98-1.19-3.23.23-4.08-.61-1.11-1.11-1.71-2.14-1.46-2.87.18-.54.47-1.02.84-1.46l-.09-.04s-2.24,1.59-2.34,3c-.12,1.47,1.88,3.13,4.03,4.48,2.15,1.34,5.03,2.41,7.12,3.04,1.42.41,2.33.59,3.36.51,1.79,0,2.51-1.73,2.93-3.21-.54,1.1-1.16,1.61-2.19,1.56Z"/>
              <path class="cls-13" d="m36.19,282.6c1.03.07,2.75.23,5-.28,1.49-.36,1.57-2.12,3.65-2.93,2.13-.9,3.17.68,4.13-.02,1.25-.94,2-1.88,1.85-2.64-.1-.56-.32-1.07-.62-1.57-.93-1.53-2.64-2.8-4.07-4.16-.04.35-.21.65-.55.92-.71.58-2.76-1.6-2.76-1.61l.9,1.28c-.18.33-.43.56-.72.7-.73.43-3.43.59-4.46.11-.18-.08-.41-.22-.67-.4l.36.45c-.53.42-1.94.12-3.09-.39-.42-.19-1.27-1.33-1.48-2,0,0-1.15-2.01-2.1-3.68-.24-.18-.32-.35-.37-.11-.03.19.01.42.09.7.54.82,1.07,1.64,1.55,2.49.49.86,1.01,1.73,1.72,2.43.5.5,1.09.88,1.73,1.14-.16.35-.33.73-.49,1.16-.8,2.13-1.38,3.96-1.85,5.49.09.4.18.74.28,1.05.38,1.18.92,1.78,1.95,1.87Z"/>
              <path class="cls-13" d="m35.82,274.19c.16-.44.33-.82.49-1.16-.64-.26-1.23-.63-1.73-1.14-.71-.71-1.23-1.57-1.72-2.43-.49-.85-1.02-1.67-1.55-2.49-.03-.05-.06-.09-.09-.14-.45-.69-.89-1.41-1.17-2.19-.16.02-.29.07-.39.14-.43.27-.73,1.28-.73,1.28,0,0-.62.24-.7.37-.32.54-1.05,1.67-1.41,2.12-1.34,1.62-3.66,3.55-3.66,3.55-1.75,1.59-4.37,2.75-5.81,4.5-.36.44-.66.92-.84,1.46-.25.73.36,1.76,1.46,2.87.85.84,2.1-.59,4.08.61,1.95,1.1,1.77,2.86,3.2,3.42,2.16.81,3.88.9,4.91.98,1.03.05,1.65-.45,2.19-1.56.51-1.03.95-2.59,1.61-4.71.47-1.53,1.06-3.35,1.85-5.49Z"/>
              <path class="cls-1" d="m57.12,232.86c.68-.85,1.6-2.03,2.58-3.3,0,0,.01.05.04.13.08-.12.17-.24.25-.35.36-.52.71-1.04,1.05-1.54.98-1.48,1.83-2.79,2.33-3.33,5.91-7.24-2.36-30.08-3.83-36.5-.51-1.66-1.06-2.99-1.67-4.06-2.53-4.5-6.03-4.27-12.14-3.52-3.65,8.4-4.44,8.08-11.29,13.8-5.27-.08-11.32-7.06-13.95-11.34.04-.03.09-.07.14-.09-.61-.04-1.54,0-2.15.15-2.32-.68-5.11-.6-7.49.35-2.4.96-4.39,2.81-5.04,5.66-.94,4.42-2.21,14.13-2.33,18.93-.12,4.8-1.2,13.66.07,16.91.15.27.31.61.48,1.02,1.48,3.49,3.73,11.33,6.06,9.66.04.06.08.11.12.17,2.98-.59,7.5-4.27,9.52-7.01.26-.37.3-.84.09-1.24-1.72-3.95-5.98-9.96-6.5-13.7l-.34-.05s.29-1.5-.03-1.82c1.52-4.12,2.3-10.12,5.13-13.62,3.65-4.11,10.36-2.74,12.15,1.16,1.44,2.23,5.39,17.38,5.39,17.38l-.39-.05c.17.42.12.73.36,1.17.88-6.7,1.65-12.43,1.89-13.86,1.06-6.23,5.43-8.59,11.19-7.59,5.93,1.02,6.19,16.51,6.19,16.51l-7.86,10.86c.07.42.04.42.27.93.03-.02.06-.05.1-.07,1.96,3.31,3.5,7.35,7.4,8.78-.04.04-.08.08-.13.12.1.06.19.12.28.18.55.3,1.27-.06,2.06-.79Z"/>
              <path class="cls-10" d="m29.33,261.44c-.14.08-.28.13-.4.16-2.55.5-2.93-1.12-2.93-1.12,0,0-1.72.64-2.59-.62-.25-.36-.26-.74-.18-1.07.07-.32-.16-.64-.49-.63-.39.02-.83-.1-1.13-.57-.35-.56-.33-1.2-.23-1.69.06-.32-.15-.6-.46-.68-.37-.09-.79-.44-.95-1.43-.03-.17-.03-.37,0-.58l-.02.02c-.68,1.07-1.95,1.69-2.21.72-.19-.71.4-1.95.72-2.58.49-.96.81-1.86,1.17-2.77-.52-.73-1.03-1.45-1.55-2.18-2.5-3.53-5.01-7.05-7.51-10.58-.03.13-.05.27-.07.4l-.62-.2s-2.8,12.38-2.52,16.36c.27,3.98,3.38,10.62,9.15,11.97,5.77,1.35,12.43,1.67,12.43,1.67l1.42-1.88c-.49-1.28-.37-1.45-1.05-2.71l.03-.02Z"/>
              <path class="cls-10" d="m63.84,249.28c-.02-.37-.05-.75-.07-1.14-.14-2.91-1.55-8.93-2.67-13.33-.66-2.59-1.22-4.62-1.36-5.12-.02-.08-.04-.13-.04-.13-.97,1.28-1.9,2.45-2.58,3.3-.14.18-.28.35-.4.5-.4.5-1.11.63-1.66.29,0,0-13.9,12.3-15.51,14.01-.92.97-3.72,6.48-3.72,6.48,1.44.85,4,2.57,4.53,3.02,1.53,1.33,2.18,2.5,3.45,4.18.44.58.72,1.08.95,1.55l.71.41s9.85.6,14.68-3.42c4.2-3.49,4.01-6.09,3.74-9.93,0,0,0-.02,0-.03-.02-.21-.03-.42-.04-.64Z"/>
            </g>
            <g>
              <g>
                <path class="cls-2" d="m45.62,269.17c-.35,0-.62-.28-.62-.62,0-.34.28-.61.61-.61.25,0,.39-.05.42-.1.08-.13.07-.67-.52-1.79-.42-.75-.67-1.37-.89-1.93-.32-.79-.6-1.48-1.3-2.41-.31-.42-.59-.8-.85-1.17-.79-1.1-1.41-1.96-2.51-2.92-.47-.39-3-2.1-4.44-2.95-.29-.17-.39-.55-.22-.84.17-.29.55-.39.84-.22,1.47.86,4.04,2.6,4.62,3.08,1.22,1.05,1.91,2.02,2.71,3.14.26.36.53.73.83,1.14.8,1.06,1.12,1.85,1.46,2.69.22.55.45,1.11.83,1.8.73,1.38.89,2.36.49,3.01-.19.32-.6.69-1.46.69Z"/>
                <path class="cls-2" d="m45.17,272.71c-.92,0-1.89-1.02-2.71-1.88l-.06-.07c-.94-1.09-3.64-4.58-3.75-4.73-.21-.27-.16-.65.11-.86.27-.21.66-.16.86.11.03.04,2.79,3.61,3.69,4.65l.04.05c.39.41,1.6,1.68,1.84,1.47.48-.38.52-.81-.38-2.5-.83-1.55-3.48-5.81-4.4-7.11-.2-.28-.13-.66.15-.86.28-.19.66-.13.86.15.93,1.33,3.62,5.65,4.47,7.24.65,1.21,1.54,2.87.07,4.04-.26.21-.53.3-.8.3Z"/>
                <path class="cls-2" d="m42.31,273.07c-.35,0-.7-.08-1.04-.25-1.81-.9-4.86-4.62-4.99-4.78-.21-.26-.18-.65.09-.86.26-.22.65-.17.87.09.83,1.02,3.27,3.8,4.58,4.45.45.22,1.06.15,1.37-.42.16-.3.54-.41.83-.25.3.16.41.53.25.83-.41.76-1.16,1.18-1.96,1.18Z"/>
                <path class="cls-2" d="m39.58,273.28c-.38,0-.8-.09-1.29-.32-.85-.38-2.54-1.79-3.83-3.02-.25-.23-.26-.62-.02-.87s.62-.25.87-.02c1.39,1.32,2.89,2.52,3.5,2.79.76.36,1.13.22,1.79-.16.29-.17.67-.07.84.22.17.29.07.67-.22.84-.5.29-1,.54-1.63.54Z"/>
                <path class="cls-2" d="m37.03,273.52c-.9,0-1.89-.51-2.94-1.54-1-1-2.86-4.25-3.86-6.48-.53-1.19-.71-1.77-.85-2.24-.13-.45-.23-.77-.63-1.51-.16-.3-.05-.67.25-.83.3-.16.67-.05.83.25.45.85.58,1.26.72,1.73.13.43.29.98.79,2.09,1.02,2.29,2.81,5.31,3.6,6.11,1.78,1.74,2.54,1.14,2.9.86.27-.21.65-.17.86.1.21.27.17.65-.1.86-.5.4-1.03.59-1.59.59Z"/>
              </g>
              <path class="cls-2" d="m14.74,217.97s-.07,0-.1,0c-.34-.05-.56-.37-.51-.7.14-.87.3-2.07.46-3.34.3-2.31.64-4.94,1.01-6.53.08-.33.41-.54.74-.46.33.08.54.41.46.74-.36,1.54-.69,4.13-.99,6.41-.17,1.28-.32,2.49-.47,3.38-.05.3-.31.52-.61.52Z"/>
              <path class="cls-2" d="m53.19,215.85c-.35,0-.62-.29-.61-.63.06-2.95-.17-5.71-.4-8.28-.03-.34.22-.64.56-.67.34-.03.64.22.67.56.24,2.6.46,5.4.41,8.41,0,.34-.28.6-.61.6Z"/>
              <path class="cls-2" d="m28.02,262.31c-1.27,0-2.01-.56-2.37-1.11-.72.13-1.97.15-2.75-.99-.29-.42-.39-.91-.3-1.43-.64-.02-1.18-.32-1.51-.86-.37-.59-.47-1.33-.31-2.13-.53-.1-1.19-.53-1.42-1.88-.37-2.17,2.93-7.05,3.31-7.6.19-.28.58-.35.85-.16.28.19.35.57.16.86-1.32,1.92-3.33,5.43-3.11,6.69.09.54.27.88.5.94.65.16,1.04.77.91,1.4-.07.34-.1.84.15,1.24.09.15.23.3.58.28.34-.01.66.13.88.4.22.27.31.64.23.99-.07.3.02.48.09.58.58.84,1.82.41,1.87.39.17-.06.35-.05.5.04.15.08.27.23.31.4.03.09.35,1.03,2.21.66,1.46-.29,5.19-6.08,7.41-9.55,1.3-2.02,2.33-3.62,2.89-4.21,1.61-1.7,14.98-13.54,15.55-14.04.25-.23.64-.2.87.05.23.25.2.64-.05.87-.14.12-13.9,12.31-15.47,13.97-.49.51-1.54,2.14-2.75,4.03-3.53,5.5-6.38,9.73-8.21,10.09-.37.07-.71.11-1.02.11Z"/>
              <g>
                <path class="cls-2" d="m30.1,264.01c-.3.03-.57.1-.78.25-.58.36-.9,1.33-.99,1.62-.1.33.09.67.41.76.33.1.67-.09.76-.41.11-.39.35-.85.49-.95.1-.06.34-.07.67-.03-.19-.42-.36-.84-.57-1.24Z"/>
                <path class="cls-2" d="m29.61,280.03c.4.37.78.71.95,1.45.08.33.4.53.74.46.33-.08.54-.41.46-.74-.26-1.11-.87-1.67-1.32-2.08-.59-.54-.86-.78.24-2.56.78-1.24,1.69-2.96,2.48-4.49.25-.48.52-.98.75-1.43-.28-.35-.55-.71-.82-1.07-.25.45-.58,1.07-1.02,1.92-.79,1.5-1.68,3.2-2.44,4.4-1.53,2.46-.98,3.26-.03,4.12Z"/>
                <path class="cls-2" d="m35.9,272.45c-.21.44-.43.93-.65,1.52-.97,2.59-1.62,4.72-2.14,6.43-1.16,3.79-1.59,4.98-2.88,4.92l-.22-.02c-1.03-.08-2.59-.2-4.51-.92-.46-.18-.69-.54-1.05-1.16-.41-.7-.91-1.56-2.06-2.21-1.3-.78-2.34-.61-3.1-.48-.56.09-.73.1-.86-.03-1.14-1.14-1.43-1.91-1.31-2.24.3-.89.95-1.62,1.79-2.3.08-.01.15-.04.23-.08,1.38-.79,2.09-.61,2.72-.45.63.16,1.42.36,2.25-.69.32-.41.77-.92,1.29-1.52,1.43-1.65,3.4-3.91,4.33-5.87.58-1.15.04-1.61-.21-1.76-.58-.33-1.47,0-1.8.52-.33.56-1.04,1.64-1.35,2.04-1.28,1.55-3.55,3.46-3.6,3.49-.71.64-1.6,1.24-2.47,1.81-1.82,1.2-3.69,2.45-4.34,4.4-.32.94.22,2.12,1.61,3.51.6.59,1.31.48,1.93.37.67-.11,1.36-.22,2.28.33.87.49,1.25,1.14,1.62,1.77.38.66.78,1.34,1.67,1.69,2.09.79,3.83.92,4.86,1l.23.02c.07,0,.13,0,.19,0,2.17,0,2.77-1.97,3.94-5.79.52-1.7,1.16-3.81,2.12-6.36.22-.6.45-1.1.67-1.53-.41-.08-.8-.23-1.16-.42Zm-12.34.13c.1-.08,2.34-1.96,3.71-3.6-.89,1.22-1.95,2.45-2.82,3.44-.53.61-.99,1.14-1.33,1.57-.33.42-.42.4-.98.26-.18-.05-.38-.1-.61-.13.72-.48,1.43-.98,2.03-1.53Z"/>
                <path class="cls-2" d="m28.96,288.22c-.93,0-1.83-.2-3.06-.55-1.35-.41-4.73-1.52-7.27-3.11-3.03-1.9-4.44-3.55-4.31-5.05.11-1.64,2.34-3.27,2.59-3.45.28-.2.66-.13.86.14.2.28.13.66-.14.86-.77.55-2.03,1.73-2.08,2.54-.08.95,1.28,2.38,3.74,3.91,2.41,1.51,5.68,2.58,6.97,2.97,1.29.37,2.17.56,3.14.49,1.55,0,2.1-1.66,2.58-3.5.08-.32.16-.61.24-.84.11-.32.46-.5.78-.39.32.11.5.46.39.78-.07.21-.14.47-.21.76-.43,1.65-1.14,4.4-3.72,4.42-.16.01-.32.02-.47.02Z"/>
                <path class="cls-2" d="m32.79,271.16c-.18,0-.37-.08-.49-.24-1.19-1.54-3.49-2.04-3.51-2.04-.33-.07-.55-.39-.48-.73.07-.33.39-.55.73-.48.11.02,2.76.59,4.23,2.5.21.27.16.65-.11.86-.11.09-.24.13-.38.13Z"/>
                <path class="cls-2" d="m31.79,273.23c-.18,0-.37-.08-.49-.24-1.2-1.56-3.88-2.21-3.91-2.22-.33-.08-.53-.41-.46-.74.08-.33.41-.53.74-.46.13.03,3.13.76,4.6,2.66.21.27.16.65-.11.86-.11.09-.24.13-.38.13Z"/>
                <path class="cls-2" d="m30.54,275.34c-.18,0-.37-.08-.49-.24-1.22-1.57-4.32-2.48-4.35-2.49-.33-.09-.52-.43-.42-.76.09-.33.43-.52.76-.42.14.04,3.53,1.03,4.99,2.92.21.27.16.65-.11.86-.11.09-.24.13-.38.13Z"/>
                <path class="cls-2" d="m29.32,277.54c-.18,0-.35-.08-.48-.23-1.24-1.52-4.76-2.54-4.8-2.55-.33-.09-.52-.43-.42-.76.09-.33.43-.52.76-.42.16.05,3.93,1.13,5.41,2.95.22.26.18.65-.09.87-.11.09-.25.14-.39.14Z"/>
              </g>
              <g>
                <path class="cls-2" d="m18.31,255.05c-.07,0-.14,0-.2-.02-.48-.07-.84-.41-.97-.93-.18-.68.06-1.64.77-3.02.37-.73.64-1.42.92-2.14.29-.75.59-1.52,1.01-2.33.35-.66.74-1.16,1.2-1.53.82-.66,1.85-.89,2.76-1.1,2.24-.51,4.52-1.28,6.72-2.02.96-.32,1.91-.64,2.86-.94.25-.08.46-.2.63-.38,2.27-2.28,10.23-12.78,12.7-16.78,1.57-2.52,4.75-6.76,7.08-9.85,1.17-1.56,2.38-3.16,2.57-3.5.08-.24.31-.41.57-.42.34,0,.62.27.63.6,0,.32,0,.34-2.79,4.05-2.31,3.07-5.48,7.29-7.02,9.76-2.51,4.04-10.57,14.69-12.88,17-.31.31-.69.54-1.13.68-.94.3-1.89.62-2.84.94-2.23.75-4.54,1.53-6.83,2.05-.83.19-1.68.38-2.27.86-.33.26-.61.64-.88,1.14-.39.75-.67,1.46-.95,2.21-.28.72-.57,1.47-.97,2.26-.76,1.48-.71,2.01-.67,2.14,0,.01,0,.02,0,.03.19-.02.7-.31,1.09-.92.18-.29.56-.37.85-.19.29.18.37.56.19.85-.47.75-1.32,1.49-2.15,1.49Z"/>
                <path class="cls-2" d="m33.63,194.82c-.07,0-.13-.01-.19-.03-.12-.04-2.97-1-5.95-3.12-2.99-2.13-7.19-8.03-7.37-8.28-.2-.28-.13-.66.15-.86.28-.2.66-.13.86.15.04.06,4.25,5.98,7.08,7.99,2.31,1.64,4.57,2.56,5.34,2.85,2.31-1.59,7.72-5.46,8.86-7,1.43-1.94,2.86-6.04,2.88-6.08.11-.32.46-.49.78-.38.32.11.49.46.38.78-.06.18-1.51,4.32-3.05,6.41-1.55,2.1-9.1,7.25-9.42,7.47-.1.07-.22.11-.35.11Z"/>
                <path class="cls-2" d="m27.19,243.73c-.23,0-.44-.12-.55-.34l-7.31-14.56c-.15-.3-.03-.67.27-.83.3-.15.67-.03.83.27l7.31,14.56c.15.3.03.67-.27.83-.09.04-.18.07-.28.07Z"/>
                <path class="cls-2" d="m19.31,248.67c-.19,0-.38-.09-.5-.25-3.13-4.3-8.26-11.26-8.85-11.87-.21-.16-.3-.44-.21-.7.11-.32.46-.49.78-.37.23.08.49.17,9.27,12.22.2.27.14.66-.13.86-.11.08-.24.12-.36.12Z"/>
                <path class="cls-2" d="m46.91,263.95c-.85,0-1.39-.03-1.48-.04-.34-.02-.6-.31-.58-.65.02-.34.31-.59.65-.58.1,0,9.67.53,14.25-3.28,3.96-3.29,3.79-5.6,3.52-9.42-.04-.58-.08-1.18-.12-1.83-.23-4.77-4.01-18.31-4.05-18.45-.09-.33.1-.67.43-.76.32-.09.67.1.76.43.16.56,3.85,13.81,4.09,18.72.03.63.07,1.23.11,1.8.28,3.92.48,6.75-3.96,10.45-3.86,3.21-10.64,3.59-13.63,3.59Z"/>
                <path class="cls-2" d="m43.02,260.79c-.12,0-.24-.03-.34-.11-.28-.19-.35-.57-.16-.85.02-.03,2.22-3.3,4.01-7.76,1.81-4.51,6.12-16.83,6.17-16.95.11-.32.46-.49.78-.38.32.11.49.46.38.78-.04.12-4.37,12.46-6.19,17-1.84,4.59-4.04,7.86-4.13,7.99-.12.18-.31.27-.51.27Z"/>
              </g>
              <path class="cls-2" d="m33.16,241.79s-.05,0-.07,0c-.34-.04-.58-.34-.54-.68.15-1.36,3.8-33.4,4.47-37.28,1.08-6.25,5.42-9.2,11.9-8.09,6.36,1.09,6.69,16.45,6.7,17.1,0,.34-.27.62-.6.62-.33.02-.62-.26-.62-.6-.07-4.17-1.23-15.14-5.68-15.91-5.8-1-9.52,1.52-10.48,7.08-.66,3.85-4.42,36.88-4.45,37.21-.04.31-.3.55-.61.55Z"/>
              <path class="cls-2" d="m55.73,234.45c-.34,0-.68-.09-.98-.28-1.11-.68-3.18-2.06-4.6-3.76-2.07-2.46-3.43-5.86-3.49-6-.13-.32.03-.67.34-.8.31-.13.67.03.8.34.01.03,1.35,3.36,3.29,5.66,1.31,1.56,3.26,2.86,4.31,3.5.28.17.65.11.86-.15,1.37-1.71,4.77-6,6.6-8.86l.34-.52q1.91-2.96,1.38-10.22l-.02-.23c-.59-7.95-4.21-20.25-5.57-24.87l-.04-.14c-1.02-3.47-2.48-5.75-4.35-6.8-1.39-.78-3.26-.95-6.45-.6-3.3.36-4.34.3-4.39.29-.34-.02-.59-.32-.57-.66.02-.34.32-.6.65-.57.01,0,1.03.06,4.17-.29,3.47-.38,5.56-.16,7.19.75,2.15,1.21,3.81,3.74,4.92,7.52l.04.14c1.37,4.66,5.02,17.05,5.61,25.13l.02.23c.56,7.53.57,7.67-1.57,10.98l-.34.52c-1.86,2.9-5.29,7.23-6.68,8.96-.37.46-.92.71-1.48.71Z"/>
              <g>
                <path class="cls-2" d="m31.85,186.06c-.1,0-2.35-.05-5.57-2.14-2.18-1.4-2.97-2.91-3.44-3.82l-.03-.06c-.77-1.41-1.25-3.26-1.64-4.88-.08-.33.12-.66.45-.74.33-.08.66.12.74.45.4,1.66.86,3.36,1.53,4.59l.04.07c.44.85,1.11,2.13,3.02,3.35,2.93,1.9,4.89,1.94,4.91,1.94.34,0,.61.28.61.62,0,.34-.28.61-.61.61Z"/>
                <path class="cls-2" d="m31.91,186.06c-.33,0-.61-.27-.61-.6,0-.34.26-.62.6-.63.04,0,1.73-.09,4.52-1.98,1.99-1.38,2.84-2.93,3.25-3.67,1.03-1.84,1.41-4.61,1.41-4.64.05-.34.36-.57.69-.53.34.05.57.35.53.69-.02.12-.42,3.03-1.56,5.07-.42.76-1.4,2.54-3.63,4.09-3.16,2.14-5.11,2.2-5.19,2.2h-.01Z"/>
                <path class="cls-2" d="m25.12,187.1s-.08,0-.12-.01c-.33-.07-.55-.39-.48-.72.32-1.63-.1-4.05-.11-4.08-.06-.33.16-.65.5-.71.33-.06.65.16.71.5.02.11.46,2.68.1,4.53-.06.29-.31.5-.6.5Z"/>
                <path class="cls-2" d="m21.71,176.46c-.15,0-.27-.04-.34-.06-.32-.02-.58-.28-.59-.6,0-.34.26-.62.6-.63.16,0,.29.04.35.06.32.02.58.28.59.6,0,.34-.26.62-.6.63h-.02Z"/>
                <path class="cls-2" d="m31.8,175.97c-.15,0-.3-.05-.42-.16-.25-.23-.26-.62-.03-.87.44-.48.46-.65.46-.66-.02-.02-.19-.15-.3-.23-.34-.26-.81-.62-.98-1.28-.4-1.35.42-3.37.74-3.97.16-.3.53-.41.83-.25.3.16.41.53.25.83-.34.63-.89,2.23-.64,3.06.07.25.25.41.55.64.32.25.73.56.77,1.11.04.48-.2.97-.79,1.59-.12.13-.29.2-.45.2Z"/>
                <g>
                  <path class="cls-7" d="m31.53,177.74c-1.82.03-3.58-.25-3.58-.25,0,0,.87,3.31,3.63,3.39,2.63.08,3.51-3.51,3.51-3.51,0,0-1.81.34-3.57.37Z"/>
                  <path class="cls-2" d="m31.67,181.49s-.07,0-.11,0c-3.18-.09-4.17-3.69-4.21-3.84-.05-.2,0-.42.14-.57.14-.15.35-.23.55-.19.02,0,1.74.28,3.47.24,1.68-.03,3.44-.36,3.46-.36.21-.04.42.03.56.18.14.15.2.37.15.57-.04.16-1.01,3.98-4.02,3.98Zm-2.77-3.26c.43.85,1.27,1.99,2.69,2.03,1.34.04,2.16-1.21,2.57-2.12-.7.1-1.67.2-2.63.22-.98.02-1.94-.05-2.63-.13Z"/>
                </g>
                <path class="cls-2" d="m25,166.68c-.19,0-.38-.09-.5-.25-.2-.27-.14-.65.13-.85.06-.05,1.6-1.16,3.67-.32.31.13.47.49.34.8-.13.31-.49.46-.8.34-1.41-.57-2.43.14-2.47.17-.11.08-.23.11-.36.11Z"/>
                <path class="cls-2" d="m37.53,166.41c-.12,0-.24-.03-.34-.11-.05-.03-1.09-.69-2.46-.03-.31.15-.67.02-.82-.28-.15-.31-.02-.67.28-.82,2.04-.99,3.62.07,3.69.12.28.19.35.58.16.85-.12.17-.31.27-.51.27Z"/>
                <path class="cls-3" d="m24.9,182.37s3.75,3.01,7.01,3.01c2.51.02,6.03-2.92,6.03-2.92,0,0-3.56,4.39-6.87,4.94-2.87.49-5.93-2.16-5.93-2.16l-.24-2.88Z"/>
                <path class="cls-2" d="m38.39,187.4c-.28,0-.53-.19-.6-.48-.43-1.83-.11-4.73-.09-4.85.04-.34.35-.58.68-.54.34.04.58.34.54.68,0,.03-.31,2.81.07,4.43.08.33-.13.66-.46.74-.05.01-.09.02-.14.02Z"/>
                <path class="cls-2" d="m40.15,169.62c-.09,0-.18-.02-.27-.06-.08-.04-1.95-.99-2.68-3.27-.22-.69-.38-1.37-.54-2.03-.56-2.34-.95-3.67-2.46-3.75-.34-.02-.6-.31-.58-.65.02-.34.3-.6.65-.58,2.49.14,3.05,2.45,3.59,4.69.15.64.31,1.3.52,1.94.57,1.77,2.04,2.53,2.06,2.54.3.15.42.52.27.82-.11.22-.32.34-.55.34Z"/>
                <path class="cls-2" d="m23.38,182.68c-.85,0-1.62-.35-2.2-1.04-1.46-1.74-1.44-5.12.06-7.38.44-.67.87-1.26,1.28-1.83,1.6-2.22,2.87-3.97,3.71-8.44.63-3.36,1.48-5.11,2.76-5.69,1.16-.53,2.4.05,3.35.61.29.17.39.55.22.84-.17.29-.55.39-.84.22-1.03-.61-1.71-.78-2.21-.55-.83.38-1.53,1.99-2.05,4.8-.9,4.74-2.3,6.69-3.93,8.93-.4.56-.82,1.14-1.25,1.78-1.29,1.95-1.14,4.73-.15,5.91.56.66,1.33.78,2.3.36.31-.14.67,0,.81.32.14.31,0,.67-.32.81-.53.23-1.05.35-1.53.35Z"/>
                <path class="cls-2" d="m19.59,181.7c-.14,0-.28-.05-.39-.14-3.97-3.32-.68-11.34.56-14.35l.12-.28c.77-1.84,1.17-3.38,1.25-4.84.02-.34.3-.6.65-.58.34.02.6.31.58.65-.09,1.61-.51,3.27-1.34,5.24l-.11.28c-1.15,2.79-4.19,10.2-.91,12.94.26.22.3.61.08.87-.12.15-.3.22-.47.22Z"/>
                <path class="cls-2" d="m43.17,181.3c-.19,0-.37-.08-.49-.25-.2-.27-.15-.66.12-.86,4.19-3.15,2.78-14.86.88-20-.18-.47-.34-.93-.5-1.36-1.39-3.83-2.1-5.76-5.41-5.9-.34-.01-.6-.3-.59-.64.01-.34.31-.59.64-.59,4.14.18,5.08,2.78,6.51,6.71.16.43.32.88.5,1.35,1.74,4.71,3.84,17.55-1.29,21.41-.11.08-.24.12-.37.12Z"/>
                <path class="cls-2" d="m20.48,183.45s-.03,0-.04,0c-2.53-.18-4.38-1.14-5.49-2.85-3.07-4.71.2-13.83,2.16-19.27.26-.72.49-1.37.67-1.91,1.93-5.7,5.61-7.85,8.22-8.97,2.57-1.08,6.86-1.42,9.18-.22.96.5,1.58,1.25,1.78,2.17.07.33-.14.66-.47.73-.33.07-.66-.14-.73-.47-.12-.57-.5-1-1.14-1.34-1.98-1.03-5.88-.69-8.14.26-2.38,1.02-5.76,2.99-7.53,8.23-.18.55-.42,1.2-.68,1.93-1.76,4.89-5.03,13.98-2.29,18.18.91,1.39,2.4,2.15,4.55,2.3.34.02.59.32.57.66-.02.32-.29.57-.61.57Z"/>
                <path class="cls-2" d="m33.93,157.7c-.05,0-.11,0-.16-.02-.33-.09-.52-.43-.43-.76.54-1.96,2.36-2.78,2.43-2.82.31-.14.67,0,.81.31.14.31,0,.67-.31.81-.03.01-1.37.64-1.75,2.02-.08.27-.32.45-.59.45Z"/>
                <path class="cls-2" d="m41.64,176.24c-.27,0-.52-.18-.59-.46-.09-.33.11-.66.43-.75,1.46-.39,2.25-1.16,2.58-2.49.22-.9,0-1.77-.53-2.21-.51-.41-1.28-.4-2.16.02-.31.15-.67.02-.82-.29-.15-.31-.02-.67.29-.82,1.31-.64,2.58-.59,3.47.13.92.74,1.29,2.07.96,3.46-.44,1.77-1.57,2.88-3.46,3.39-.05.01-.11.02-.16.02Z"/>
                <path class="cls-2" d="m42.28,173.34c-.09,0-.18-.02-.27-.06-.3-.15-.43-.51-.29-.82.03-.07.33-.67.96-1.08.28-.19.67-.1.85.18.18.28.1.67-.18.85-.34.22-.52.58-.52.58-.11.22-.33.34-.55.34Z"/>
                <path class="cls-3" d="m25.95,170.51c-.01-.63.36-1.13.92-1.14.5,0,.95.49.96,1.11.01.63-.36,1.13-.92,1.14-.5,0-.95-.49-.96-1.11Z"/>
                <path class="cls-3" d="m35.22,170.35c-.01-.63.36-1.13.92-1.14.5,0,.95.49.96,1.11.01.63-.36,1.13-.92,1.14-.56,0-.95-.49-.96-1.11Z"/>
              </g>
              <path class="cls-2" d="m41.57,182.51c-.28,0-.54-.2-.6-.48-.44-2,.49-2.99,1.16-3.72l.17-.18c.23-.25.62-.27.87-.04.25.23.27.62.04.87l-.18.19c-.62.67-1.16,1.26-.86,2.62.07.33-.14.66-.47.73-.04,0-.09.01-.13.01Z"/>
              <path class="cls-2" d="m9.43,236.32c-.15,0-.29-.01-.43-.03-.49-.08-1.52-.25-5.87-11.32-.99-2.53-.65-7.98-.34-12.78.1-1.61.2-3.13.23-4.36.12-4.85,1.41-14.69,2.34-19.04,1.02-4.77,4.89-6.12,8.54-6.82,1.38-.26,2.69-.16,4.14,0,.34.04.58.34.55.68-.04.34-.33.59-.68.55-1.4-.15-2.56-.24-3.78,0-3.42.65-6.7,1.81-7.56,5.87-.92,4.3-2.19,14.02-2.31,18.82-.03,1.26-.13,2.79-.23,4.41-.28,4.45-.63,9.98.26,12.26,3.01,7.66,4.53,10.23,4.99,10.57.86.09,3.18-.6,6.25-2.96,2.08-1.6,3.32-3.14,3.87-3.91.13-.18.14-.41.04-.6-.77-1.49-4.65-8.99-5.57-10.57-.72-1.24-1.13-2.66-1.47-3.81-.17-.59-.32-1.09-.46-1.42-.14-.31,0-.67.31-.81.31-.14.67,0,.81.31.18.4.34.94.52,1.57.32,1.08.71,2.43,1.35,3.54.91,1.57,4.51,8.53,5.6,10.62.31.6.26,1.33-.13,1.88-.59.83-1.92,2.48-4.12,4.17-2.61,2.01-5.21,3.23-6.83,3.23Z"/>
              <path class="cls-2" d="m27.59,266.75s-.03,0-.05,0c-.05,0-5.44-.41-11.19-1.76-6.08-1.42-9.33-8.32-9.62-12.53-.28-4.03,2.42-16.03,2.54-16.54.07-.33.4-.54.74-.46.33.07.54.4.46.74-.03.12-2.77,12.33-2.51,16.18.27,4,3.44,10.19,8.67,11.42,5.65,1.32,10.95,1.72,11,1.73.34.03.59.32.57.66-.02.32-.29.57-.61.57Z"/>
              <path class="cls-2" d="m35.76,217.29c-.27,0-.52-.18-.59-.46-1.09-4.19-4.18-15.43-5.31-17.2-1.83-2.84-3.7-4.05-8.87-2.82-4.18,1-6.65,12.5-7.25,16.84-.05.34-.36.57-.69.52-.34-.05-.57-.36-.52-.69.09-.67,2.34-16.47,8.18-17.87,5.14-1.23,7.81-.36,10.19,3.35,1.47,2.29,5.31,16.93,5.47,17.55.09.33-.11.66-.44.75-.05.01-.1.02-.16.02Z"/>
              <path class="cls-2" d="m50.71,274.69c-.25-.23-.64-.22-.87.02-.23.25-.22.64.02.87.69.65,1.76,2,1.7,2.82-.05.95-1.6,2.16-4.25,3.34-2.6,1.16-5.98,1.75-7.31,1.96-1.34.19-2.24.25-3.22.03-1.49-.22-1.81-1.93-2.02-3.82-.04-.33-.07-.63-.11-.87-.04-.19-.16-.34-.32-.43-.22.7-.45,1.4-.7,2.1.22,1.68.74,3.9,2.94,4.22.51.11.99.16,1.5.16.63,0,1.3-.07,2.12-.18,1.38-.21,4.89-.83,7.63-2.05,3.27-1.45,4.9-2.89,4.98-4.38.12-1.65-1.85-3.58-2.08-3.79Z"/>
              <path class="cls-2" d="m44.15,271.35c0,.07-.03.15-.11.2-.46.28-.98.51-1.53.53-.25.01-.49-.04-.72-.12-.66.29-1.36.5-2,.84-.11.06-.22.03-.29-.04-.17.04-.28-.1-.28-.24-.04,0-.07,0-.11.01-.46.24-.89.51-1.23.82-.25.23-.27.62-.04.87.12.13.29.2.45.2.15,0,.3-.05.42-.16,1.44-1.33,5.07-1.84,5.11-1.84.34-.05.57-.36.53-.69-.02-.15-.1-.27-.2-.37Z"/>
              <path class="cls-2" d="m36.89,272.99c.04.09.07.17.11.26.84,1.92.54,2.12-.12,2.57-.5.34-1.19.81-1.6,1.87-.12.32.03.67.35.8.32.12.67-.04.8-.35.27-.7.7-.99,1.15-1.3,1.05-.72,1.7-1.43.57-4.03-.42.06-.85.1-1.26.18Z"/>
              <path class="cls-2" d="m51.43,276.62c-.37-2.03-2.05-3.53-3.68-4.98-.31-.28-.62-.56-.93-.85-.18.36-.44.7-.75.99.12.11-1.73.1-1.8.11-.41.26-.21.38-.49.4-.07,0-.12.09-.07.15.65.76,1.66,1,2.22.94.65-.07,1.38-.15,2.63.83.07.05.14.09.21.11.73.79,1.27,1.61,1.44,2.54.07.34-.32,1.06-1.62,2.03-.15.11-.32.08-.86-.09-.74-.23-1.74-.55-3.12.03-1.24.49-1.87,1.27-2.37,1.91-.45.56-.72.89-1.2,1-2.01.45-3.57.34-4.61.28h-.2c-.95-.1-1.34-.79-1.72-2.66-.03.13-.06.26-.09.39-.1.41-.22.82-.38,1.21-.07.16-.14.31-.22.46.45,1.1,1.12,1.7,2.32,1.81h.21c.42.04.95.08,1.58.08.93,0,2.07-.08,3.38-.37.92-.22,1.41-.84,1.88-1.44.45-.57.92-1.16,1.87-1.53.98-.41,1.64-.2,2.29,0,.6.19,1.29.4,1.97-.1,1.57-1.18,2.27-2.27,2.09-3.24Z"/>
            </g>
          </g>
        </g>
        <g>
          <path class="cls-11" d="m57.79,148.11c-.22-.6-.57-2.66-.57-2.66,0,0-.35,2.25-.48,2.73-.13.41-1.68.67-1.68.67,0,0,1.52.22,1.68.67.16.44.57,2.95.57,2.95,0,0,.41-2.44.51-2.95.1-.48,1.68-.7,1.68-.7,0,0-1.55-.25-1.71-.7Z"/>
          <path class="cls-11" d="m101.92,129c-.18-.5-.47-2.2-.47-2.2,0,0-.29,1.86-.39,2.26-.1.34-1.39.55-1.39.55,0,0,1.26.18,1.39.55.13.37.47,2.44.47,2.44,0,0,.34-2.02.42-2.44.08-.39,1.39-.58,1.39-.58,0,0-1.29-.21-1.42-.58Z"/>
          <path class="cls-11" d="m22.38,138.46c-.3-.8-.76-3.55-.76-3.55,0,0-.46,3-.63,3.63-.17.55-2.24.89-2.24.89,0,0,2.03.3,2.24.89.21.59.76,3.92.76,3.92,0,0,.55-3.25.68-3.92.13-.63,2.24-.93,2.24-.93,0,0-2.07-.34-2.28-.93Z"/>
          <path class="cls-11" d="m5.59,138.46c-.23-.64-.6-2.81-.6-2.81,0,0-.37,2.38-.5,2.88-.13.44-1.77.7-1.77.7,0,0,1.61.23,1.77.7.17.47.6,3.11.6,3.11,0,0,.44-2.58.54-3.11.1-.5,1.77-.74,1.77-.74,0,0-1.64-.27-1.81-.74Z"/>
          <path class="cls-11" d="m111.91,131.71c-.23-.64-.6-2.81-.6-2.81,0,0-.37,2.38-.5,2.88-.13.44-1.77.7-1.77.7,0,0,1.61.23,1.77.7.17.47.6,3.11.6,3.11,0,0,.44-2.58.54-3.11.1-.5,1.77-.74,1.77-.74,0,0-1.64-.27-1.81-.74Z"/>
          <path class="cls-11" d="m112.78,159.12c-.23-.64-.6-2.81-.6-2.81,0,0-.37,2.38-.5,2.88-.13.44-1.77.7-1.77.7,0,0,1.61.23,1.77.7.17.47.6,3.11.6,3.11,0,0,.44-2.58.54-3.11.1-.5,1.77-.74,1.77-.74,0,0-1.64-.27-1.81-.74Z"/>
          <path class="cls-11" d="m63.68,138.19c-.23-.64-.6-2.81-.6-2.81,0,0-.37,2.38-.5,2.88-.13.44-1.77.7-1.77.7,0,0,1.61.23,1.77.7.17.47.6,3.11.6,3.11,0,0,.44-2.58.54-3.11.1-.5,1.77-.74,1.77-.74,0,0-1.64-.27-1.81-.74Z"/>
          <path class="cls-11" d="m2.88,153.78c-.23-.64-.6-2.81-.6-2.81,0,0-.37,2.38-.5,2.88-.13.44-1.77.7-1.77.7,0,0,1.61.23,1.77.7.17.47.6,3.11.6,3.11,0,0,.44-2.58.54-3.11.1-.5,1.77-.74,1.77-.74,0,0-1.64-.27-1.81-.74Z"/>
        </g>
      </g>
    </g>
  </g>
</svg>