<?xml version="1.0" encoding="UTF-8"?>
<svg id="_レイヤー_2" data-name="レイヤー 2" xmlns="http://www.w3.org/2000/svg" viewBox="0 0 234.76 287.06">
  <defs>
    <style>
      .cls-1, .cls-2, .cls-3 {
        fill: #262626;
      }

      .cls-4 {
        fill: #617b8e;
      }

      .cls-5, .cls-6 {
        fill: #fff;
      }

      .cls-7 {
        fill: none;
        stroke-width: 1.5px;
      }

      .cls-7, .cls-3 {
        stroke: #262626;
        stroke-linecap: round;
        stroke-linejoin: round;
      }

      .cls-6, .cls-2 {
        fill-rule: evenodd;
      }

      .cls-8 {
        fill: #efcb7b;
      }

      .cls-9 {
        fill: #76afca;
      }

      .cls-10 {
        fill: #c48b68;
      }

      .cls-11 {
        fill: #eac268;
      }

      .cls-12 {
        fill: #8cb1bf;
      }

      .cls-13 {
        fill: #ffd6ba;
      }

      .cls-14 {
        fill: #f2c85f;
      }

      .cls-3 {
        stroke-width: .27px;
      }
    </style>
  </defs>
  <g id="illustration">
    <g>
      <g>
        <g>
          <path class="cls-5" d="m213.48,28.99c-1.11-11.98-9.16-22.72-21.33-26.66-9.58-3.1-19.58-1.28-27.25,4.05-7.64-5.36-17.61-7.22-27.2-4.17-12.16,3.87-20.27,14.53-21.46,26.47-12.28,4.29-20.99,16.07-20.77,29.79,0,.01,0,.02,0,.03.16,13.25,8.68,24.57,20.61,28.81.65,6.83,3.57,13.26,8.22,18.24-.99,7.11-5.77,14.62-8.69,15.39,7.21.1,13.21-4.02,17.7-8.71,1.32.65,2.7,1.21,4.15,1.68,9.58,3.08,19.57,1.25,27.23-4.1,5.15,3.6,11.35,5.61,17.77,5.61,3.12,0,6.31-.48,9.45-1.48,12.16-3.89,20.25-14.59,21.41-26.54,12.22-4.3,20.9-16.05,20.68-29.72-.21-13.27-8.73-24.46-20.52-28.69Z"/>
          <path class="cls-7" d="m213.48,28.99c-1.11-11.98-9.16-22.72-21.33-26.66-9.58-3.1-19.58-1.28-27.25,4.05-7.64-5.36-17.61-7.22-27.2-4.17-12.16,3.87-20.27,14.53-21.46,26.47-12.28,4.29-20.99,16.07-20.77,29.79,0,.01,0,.02,0,.03.16,13.25,8.68,24.57,20.61,28.81.65,6.83,3.57,13.26,8.22,18.24-.99,7.11-5.77,14.62-8.69,15.39,7.21.1,13.21-4.02,17.7-8.71,1.32.65,2.7,1.21,4.15,1.68,9.58,3.08,19.57,1.25,27.23-4.1,5.15,3.6,11.35,5.61,17.77,5.61,3.12,0,6.31-.48,9.45-1.48,12.16-3.89,20.25-14.59,21.41-26.54,12.22-4.3,20.9-16.05,20.68-29.72-.21-13.27-8.73-24.46-20.52-28.69Z"/>
        </g>
        <g>
          <path class="cls-1" d="m130.45,45.15c.65.45,2.14,1.64,2.56,1.96l-1.24,1.53c-.29-.36-.79-.9-1.31-1.4v3.83h-2.07v-3.62c-.7,1.01-1.51,1.91-2.29,2.54-.32-.47-.94-1.17-1.39-1.51,1.17-.77,2.41-2.12,3.24-3.48h-2.74v-1.8h3.17v-1.39h-3.22v-1.76h1.66c-.07-.59-.29-1.37-.54-1.98l1.1-.25h-2.02v-1.75h3.02v-1.64h2.07v1.64h2.99v1.75h-1.85l1.04.2c-.32.77-.61,1.49-.86,2.03h1.82v1.76h-3.13v1.39h2.97v1.8h-2.97v.14Zm-2.48-7.33c.31.61.54,1.44.61,1.98l-.9.25h3.53l-1.19-.25c.23-.54.52-1.37.67-1.98h-2.72Zm13.79,4.38h-1.71v8.8h-2.07v-8.8h-1.84c-.02,2.68-.4,6.48-2.77,8.95-.27-.47-1.04-1.21-1.53-1.46,2.07-2.2,2.29-5.26,2.29-7.74v-6.23l1.24.34c1.71-.41,3.49-.99,4.59-1.58l1.71,1.57c-1.58.7-3.64,1.26-5.53,1.66v2.52h5.62v1.98Z"/>
          <path class="cls-1" d="m146.04,37.23c-.45.63-.94,1.19-1.4,1.62-.4-.34-1.24-.92-1.73-1.17,1.08-.86,2.09-2.2,2.63-3.53l2,.54c-.13.29-.27.58-.43.86h4.02v1.33c.72-.77,1.33-1.75,1.71-2.74l2.03.49c-.13.31-.27.61-.43.92h5.22v1.67h-3.15c.29.4.54.79.68,1.1l-1.82.52c-.18-.43-.58-1.08-.99-1.62h-.99c-.45.63-.94,1.19-1.42,1.62-.43-.32-1.37-.81-1.87-1.03.23-.18.47-.38.7-.59h-2.52c.23.41.45.83.56,1.13l-1.73.5c-.13-.45-.45-1.08-.77-1.64h-.29Zm7.78,9.69c1.55.9,3.85,1.58,6.03,1.89-.45.45-1.06,1.3-1.37,1.82-2.18-.47-4.43-1.46-6.09-2.77v3.2h-2.07v-3.24c-1.64,1.31-3.91,2.34-6.1,2.86-.31-.5-.88-1.31-1.31-1.75,2.11-.34,4.34-1.08,5.85-2.02h-5.51v-1.67h7.08v-.45c-.11.05-.22.09-.34.14-.23-.36-.9-1.03-1.31-1.33-1.87.29-3.71.56-5.17.79l-.23-1.69c.76-.09,1.67-.22,2.68-.36v-1.82h-2.27v-1.48h6.46v1.48h-2.25v1.55l2.23-.32.05.88c.63-.58.76-1.22.76-1.87v-1.8h6.59v3.17c0,.31-.02.49.04.54.04.07.09.09.16.09h.29c.09,0,.16,0,.22-.05.05-.04.11-.14.14-.36.04-.2.05-.67.07-1.24.32.29.95.58,1.39.74-.05.68-.13,1.42-.23,1.71-.13.32-.32.56-.59.7-.25.13-.65.18-.95.18h-.88c-.45,0-.94-.13-1.24-.43-.23-.25-.36-.54-.4-1.22l-1.03.92c-.36-.47-1.08-1.13-1.75-1.67-.18.77-.59,1.53-1.39,2.14h1.03v1.08h7.13v1.67h-5.71Zm-.94-6.55v.45c0,.25-.02.49-.04.74l.9-.77c.58.41,1.28.94,1.76,1.4v-1.82h-2.63Z"/>
          <path class="cls-1" d="m170.18,50.39l-1.35-2.14c.68-.07,1.19-.18,1.67-.29,2.3-.54,4.1-2.2,4.1-4.83,0-2.48-1.35-4.34-3.78-4.75-.25,1.53-.56,3.19-1.08,4.88-1.08,3.64-2.63,5.87-4.59,5.87s-3.66-2.2-3.66-5.24c0-4.16,3.6-7.71,8.26-7.71s7.27,3.1,7.27,7.02-2.32,6.48-6.86,7.18Zm-4.95-4.03c.76,0,1.46-1.13,2.2-3.56.41-1.33.76-2.86.95-4.36-2.97.61-4.57,3.24-4.57,5.22,0,1.82.72,2.7,1.42,2.7Z"/>
          <path class="cls-1" d="m194.79,42.18c-1.03.77-2.27,1.58-3.31,2.18.99,1.58,2.32,2.86,4.02,3.62-.47.41-1.15,1.26-1.49,1.85-3.21-1.71-4.99-5.02-6.01-9.22h-.04c-.45.38-.95.72-1.49,1.04,3.39,2.95,3.26,7.44,1.48,8.73-.67.58-1.26.76-2.2.76-.45.02-1.01,0-1.53-.04-.04-.59-.22-1.46-.61-2.05.68.05,1.26.09,1.73.09s.79-.05,1.08-.38c.41-.32.67-1.06.59-2.02-1.96,1.44-4.63,2.79-6.88,3.57-.25-.54-.72-1.31-1.12-1.78,2.59-.65,5.73-2.12,7.51-3.64-.11-.22-.22-.43-.34-.63-1.53,1.03-3.75,2.11-5.46,2.7-.23-.47-.68-1.21-1.08-1.62,1.82-.43,4.21-1.42,5.56-2.34-.14-.14-.29-.29-.45-.43-1.37.63-2.84,1.15-4.27,1.53-.22-.41-.76-1.26-1.1-1.67,1.93-.38,3.93-1.01,5.51-1.82h-2.63v-1.8h9.67v1.8h-2.05c.2.72.45,1.42.74,2.09.9-.61,1.85-1.35,2.5-1.96l1.67,1.44Zm-13.16-2.45h-2.11v-4.02h6.48v-1.4h2.2v1.4h6.59v4.02h-2.2v-2.07h-10.96v2.07Z"/>
          <path class="cls-1" d="m199.03,48.12c0-.95.68-1.6,1.58-1.6s1.59.65,1.59,1.6-.68,1.58-1.59,1.58-1.58-.65-1.58-1.58Zm.18-9.36l-.09-2.68h2.99l-.09,2.68-.49,6.16h-1.84l-.49-6.16Z"/>
        </g>
        <g>
          <path class="cls-1" d="m125.59,61.94c-.01.12-.01.3-.01.49.98-.05,1.98-.14,3.03-.32v1.38c-.8.1-1.89.2-3.06.26v1.24c1.21-.06,2.23-.16,3.2-.29v1.41c-1.09.12-2.03.2-3.18.24.02.46.05.95.08,1.43,1.51.43,2.66,1.24,3.36,1.81l-.86,1.34c-.65-.6-1.46-1.24-2.42-1.67.01.17.01.31.01.44,0,1.02-.78,1.81-2.36,1.81-1.92,0-2.93-.73-2.93-2s1.12-2.06,2.96-2.06c.25,0,.5.01.74.04-.02-.37-.04-.76-.05-1.12h-.62c-.7,0-2.06-.06-2.85-.16v-1.42c.77.14,2.24.23,2.88.23h.58c0-.4,0-.83.01-1.24h-.44c-.76,0-2.15-.11-2.94-.22l-.04-1.37c.86.14,2.23.26,2.96.26h.47v-.56c0-.23-.02-.6-.07-.83h1.62c-.04.24-.06.54-.07.85Zm-2.42,8.23c.64,0,1.06-.18,1.06-.88,0-.13,0-.3-.01-.52-.32-.05-.65-.08-.98-.08-.85,0-1.32.34-1.32.74,0,.46.43.73,1.26.73Z"/>
          <path class="cls-1" d="m135.04,62.49c-.02.13-.06.29-.1.44.67-.1,1.35-.23,2.01-.38v1.5c-.72.17-1.54.3-2.34.4-.11.52-.23,1.06-.36,1.55-.44,1.68-1.24,4.13-1.91,5.55l-1.67-.56c.72-1.21,1.63-3.72,2.07-5.4.08-.32.17-.67.25-1.01-.28.01-.54.02-.79.02-.59,0-1.03-.02-1.45-.05l-.04-1.5c.61.07,1.01.1,1.51.1.35,0,.71-.01,1.08-.04.05-.26.08-.49.11-.68.05-.44.07-.94.04-1.22l1.83.14c-.1.34-.22.88-.26,1.14Zm1.45,6.5c0,.53.36.92,1.64.92.8,0,1.63-.08,2.5-.24l-.06,1.52c-.68.1-1.49.18-2.45.18-2.02,0-3.11-.7-3.11-1.91,0-.56.11-1.14.2-1.61l1.44.13c-.1.35-.17.73-.17,1Zm1.82-4.13c.68,0,1.4.04,2.11.11l-.04,1.44c-.6-.07-1.33-.16-2.06-.16-.83,0-1.56.04-2.31.13v-1.4c.67-.07,1.52-.12,2.3-.12Zm1.77-1.52l-.96.42c-.24-.49-.61-1.21-.94-1.67l.95-.4c.3.44.73,1.2.95,1.64Zm1.44-.55l-.95.41c-.25-.5-.64-1.2-.97-1.66l.95-.38c.32.44.77,1.21.97,1.63Z"/>
          <path class="cls-1" d="m145.79,61.08c-.31.77-.68,1.56-1.12,2.31v8.4h-1.36v-6.33c-.32.42-.66.79-1,1.13-.13-.34-.5-1.12-.74-1.45,1.14-1.08,2.24-2.78,2.89-4.49l1.32.43Zm7.23,1.71v1.15h-7.68v-1.15h7.68Zm-6.92,5.14h6.26v3.84h-1.44v-.44h-3.45v.48h-1.37v-3.87Zm6.09-2.3h-5.9v-1.1h5.9v1.1Zm-5.9.6h5.85v1.12h-5.85v-1.12Zm5.68-4.03h-5.49v-1.12h5.49v1.12Zm-4.51,6.84v1.18h3.45v-1.18h-3.45Z"/>
          <path class="cls-1" d="m156.98,62.94c-.06,1.3-.16,3.97-.16,5.47,0,1.21.73,1.61,1.67,1.61,1.98,0,3.23-1.15,4.1-2.46l1.09,1.33c-.78,1.15-2.48,2.75-5.22,2.75-1.97,0-3.23-.86-3.23-2.9,0-1.61.11-4.76.11-5.79,0-.58-.05-1.15-.14-1.62l1.93.02c-.07.5-.13,1.12-.16,1.6Zm4.38,1.3l-1.07.47c-.36-.77-.67-1.34-1.1-1.96l1.04-.44c.34.5.86,1.38,1.13,1.93Zm1.64-.71l-1.04.5c-.38-.76-.71-1.31-1.15-1.91l1.03-.48c.35.49.9,1.34,1.16,1.88Z"/>
          <path class="cls-1" d="m167.11,66.35c1.09-.79,2.28-1.14,3.54-1.14,2.1,0,3.32,1.3,3.32,2.75,0,2.18-1.73,3.86-6.72,3.44l-.46-1.57c3.6.49,5.5-.38,5.5-1.91,0-.78-.74-1.35-1.79-1.35-1.36,0-2.58.5-3.33,1.41-.22.26-.34.46-.44.7l-1.38-.35c.24-1.18.52-3.53.6-5.01l1.61.23c-.16.66-.37,2.12-.46,2.81Zm5.18-4.28l-.36,1.46c-1.21-.16-3.89-.72-4.82-.96l.38-1.44c1.14.36,3.75.82,4.8.94Z"/>
          <path class="cls-1" d="m178.13,61.06l1.75.06c-.07.34-.18.95-.26,1.69l.44.58c-.17.22-.41.61-.61.92-.01.08-.01.17-.02.26.95-.83,2.33-1.8,3.49-1.8,1.3,0,1.88.77,1.88,1.77,0,1.25-.4,3.01-.4,4.25,0,.31.16.54.46.54.44,0,1.01-.31,1.56-.86l.19,1.69c-.55.52-1.28.89-2.25.89-.9,0-1.5-.65-1.5-1.81,0-1.3.43-3.06.43-4.15,0-.59-.31-.89-.82-.89-.89,0-2.18,1.1-3.17,2.18-.01.34-.02.66-.02.97,0,.98,0,1.99.07,3.12.01.22.05.65.08.92h-1.66c.02-.28.04-.7.04-.89.02-.94.04-1.63.05-2.64-.5.76-1.09,1.63-1.51,2.19l-.95-1.31c.68-.84,1.88-2.42,2.57-3.43.02-.28.05-.56.06-.85-.59.07-1.51.19-2.18.29l-.16-1.54c.35.01.62.01,1.04-.01.35-.02.88-.08,1.39-.16.02-.46.05-.79.05-.92,0-.35.01-.71-.05-1.08Z"/>
          <path class="cls-1" d="m192.03,62.77c.59-.11,1.15-.24,1.62-.38l.05,1.39c-.55.14-1.29.3-2.1.42-.58,1.68-1.6,3.78-2.57,5.13l-1.45-.74c.95-1.18,1.92-2.94,2.45-4.23-.22.01-.42.01-.62.01-.49,0-.98-.01-1.5-.05l-.11-1.39c.52.06,1.15.08,1.6.08.36,0,.72-.01,1.09-.05.17-.66.3-1.38.32-2l1.66.17c-.1.38-.25,1-.43,1.64Zm3.24,3.62c.01.35.05.92.07,1.52,1.03.38,1.87.98,2.48,1.54l-.8,1.28c-.42-.38-.96-.89-1.62-1.28v.12c0,1.12-.61,1.98-2.31,1.98-1.49,0-2.66-.66-2.66-1.98,0-1.18.98-2.07,2.65-2.07.29,0,.55.02.83.05-.05-.89-.11-1.96-.13-2.69h1.5c-.04.5-.01,1.01,0,1.54Zm-2.4,3.78c.83,0,1.08-.46,1.08-1.12v-.24c-.31-.07-.64-.12-.97-.12-.7,0-1.14.31-1.14.73,0,.44.37.74,1.03.74Zm1.58-6.38l.77-1.19c.86.37,2.35,1.19,2.96,1.63l-.85,1.26c-.7-.55-2.06-1.33-2.88-1.7Z"/>
          <path class="cls-1" d="m201.47,63.67c-.01.78,0,1.68.07,2.54.17,1.73.53,2.91,1.28,2.91.56,0,1.04-1.4,1.27-2.36l1.2,1.46c-.79,2.09-1.55,2.82-2.51,2.82-1.32,0-2.46-1.19-2.79-4.4-.12-1.1-.13-2.51-.13-3.24,0-.34-.02-.85-.1-1.22l1.85.02c-.08.43-.14,1.13-.14,1.46Zm8.32,5.03l-1.57.61c-.19-1.93-.83-4.85-2.13-6.33l1.52-.49c1.14,1.38,2.05,4.38,2.18,6.21Z"/>
          <path class="cls-1" d="m146.29,84.48c-.02,2.88.13,5.14.83,5.14.18-.01.23-.64.25-1.61.28.32.64.68.92.89-.11,1.5-.36,2.13-1.28,2.13-1.75,0-2.1-2.29-2.17-5.36h-6.43v-1l-.11.1c-.28-.24-.95-.7-1.29-.9,1.19-.9,2.09-2.45,2.55-4.1l1.49.31c-.1.3-.19.6-.3.89h7.09v1.19h-7.62c-.1.19-.2.38-.31.56h6.84v1.15h-6.92v-1.01c-.37.61-.78,1.15-1.21,1.61h7.68Zm-2.4,1.72c-.36.66-.78,1.28-1.27,1.85.76.53,1.43,1.07,1.9,1.54l-1.14,1.08c-.42-.47-1.06-1.01-1.77-1.55-.95.86-2.03,1.57-3.13,2.11-.22-.3-.74-.85-1.06-1.12,1.12-.43,2.15-1.06,3.03-1.81-.68-.46-1.38-.88-2.01-1.24l1.02-.94c.62.32,1.32.73,2,1.16.42-.48.77-1,1.06-1.55l1.38.46Z"/>
          <path class="cls-1" d="m152.95,86.2c-.37.11-.74.23-1.13.34v2.91c0,.66-.12,1.01-.49,1.24-.35.23-.88.28-1.64.26-.04-.35-.19-.94-.37-1.32.44.02.85.02,1,.01.14,0,.2-.05.2-.2v-2.53l-1.24.36-.31-1.37c.43-.11.96-.24,1.55-.38v-2.1h-1.36v-1.32h1.36v-2.25h1.31v2.25h1.02v1.32h-1.02v1.76l.95-.26.18,1.28Zm5.95-1.37v.95h1.32v1.3h-1.32v2.45c0,.72-.13,1.07-.6,1.28-.43.2-1.08.23-1.93.23-.06-.4-.24-.96-.41-1.34.54.02,1.16.02,1.34.01.19,0,.24-.04.24-.2v-2.42h-4.41v-1.3h4.41v-.95h-4.52v-1.3h2.97v-1.04h-2.46v-1.3h2.46v-1.31h1.35v1.31h2.42v1.3h-2.42v1.04h2.95v1.3h-1.4Zm-3.98,2.29c.5.6,1.1,1.45,1.34,2.04l-1.21.7c-.22-.59-.77-1.46-1.26-2.1l1.13-.64Z"/>
          <path class="cls-1" d="m165.15,81.65c-.02.11-.05.24-.07.37,1.37-.07,2.99-.25,4.44-.56l.02,1.43c-1.25.2-3.15.43-4.76.52-.17.73-.36,1.5-.54,2.09.97-.54,1.91-.76,2.97-.76,1.94,0,3.23,1.03,3.23,2.57,0,2.7-2.6,3.67-6.48,3.25l-.42-1.55c2.63.43,5.28.11,5.28-1.65,0-.72-.61-1.32-1.79-1.32-1.38,0-2.6.49-3.32,1.4-.13.17-.22.32-.34.53l-1.42-.5c.58-1.12,1.06-2.71,1.37-4.03-.76-.01-1.46-.05-2.07-.11v-1.49c.72.12,1.62.22,2.35.23.02-.18.05-.35.07-.49.07-.52.08-.82.06-1.21l1.7.07c-.13.42-.2.83-.29,1.22Z"/>
          <path class="cls-1" d="m172.59,81.7c1.01-.08,2.99-.26,5.18-.44,1.24-.11,2.54-.18,3.39-.22v1.54c-.64.01-1.67.01-2.3.17-1.45.38-2.54,1.93-2.54,3.36,0,1.98,1.85,2.69,3.89,2.79l-.56,1.64c-2.52-.17-4.89-1.51-4.89-4.11,0-1.73.97-3.09,1.79-3.71-1.13.12-3.57.38-4.97.68l-.16-1.64c.48-.01.95-.04,1.18-.06Zm7.83,3.68l-.91.41c-.3-.66-.55-1.13-.94-1.67l.89-.37c.3.43.73,1.16.96,1.63Zm1.39-.59l-.9.43c-.32-.65-.6-1.09-.98-1.62l.88-.41c.3.42.76,1.13,1.01,1.6Z"/>
          <path class="cls-1" d="m189.15,81.35c0,.1,0,.23-.01.37,1.21,0,2.85-.02,3.48-.01v1.42c-.73-.04-1.85-.06-3.48-.06,0,.61.01,1.27.01,1.8.29.46.43,1.02.43,1.64,0,1.56-.91,3.55-3.84,4.37l-1.28-1.27c1.21-.25,2.27-.65,2.93-1.37-.17.04-.35.06-.54.06-.92,0-2.06-.74-2.06-2.21,0-1.35,1.09-2.24,2.4-2.24.17,0,.32.01.48.04,0-.26,0-.54-.01-.8-1.81.02-3.68.1-5.16.18l-.04-1.45c1.37,0,3.55-.05,5.18-.07-.01-.16-.01-.28-.02-.37-.04-.49-.08-.9-.12-1.04h1.74c-.02.19-.07.84-.08,1.03Zm-2,5.61c.5,0,.95-.38.78-1.44-.17-.28-.46-.42-.78-.42-.47,0-.92.32-.92.96,0,.55.44.9.92.9Z"/>
        </g>
      </g>
      <g>
        <g>
          <path class="cls-6" d="m90.41,106.11c.45.15,2.33-.53,4.05-1.95,1.58-1.28,4.5-4.58,2.25-6.83-1.95-1.88-4.65,1.13-4.65,1.13,0,0-1.28-4.5-4.5-2.48-1.8,1.13-1.2,4.58,0,6.98,1.05,1.95,2.25,3,2.85,3.15Z"/>
          <path class="cls-6" d="m86.35,116.17c-.3.23-1.73.07-3.23-.45-1.35-.53-4.13-2.18-3-4.2.98-1.73,3.45-.23,3.45-.23,0,0-.07-3.38,2.63-2.7,1.5.38,1.8,2.93,1.43,4.8-.23,1.58-.9,2.55-1.28,2.78Z"/>
          <path class="cls-6" d="m91.68,126.15c.22.15,1.35.07,2.48-.38,1.05-.45,3.23-1.73,2.33-3.3-.75-1.35-2.7-.15-2.7-.15,0,0,.08-2.63-2.03-2.1-1.2.3-1.43,2.25-1.13,3.75.23,1.2.75,1.95,1.05,2.18Z"/>
        </g>
        <g>
          <path class="cls-5" d="m73.45,144.7c-.75-.88-5.08-4.06-10.45-8.93l9.2,7.76s.05-.06.07-.1c.37-.49.67-1.03.91-1.59l-13.58-14.99c-1.35,1.27-3.23,1.61-4.8.66l8.2,8.25c-1.5-1.36-3.07-2.84-4.67-4.45-7.09-7.1-11.46-12.94-11.43-12.96.07-.03.06-.12.05-.19-.14-.7-1.51-2.46-1.87-2.69-.5-.31-.81-1.05-1.31-1.37-.13-.08-.61,0-.76-.01-.53-.06-1.51.64-1.54,1.3-2.36-.86-5.54-1.5-8.95-.78-1.94.41-3.48.94-4.5,1.77-10.49,8.56-18.43,16.14-24.93,25.07-.32.45-3.2,5.7-2.54,8.69.07.34.28.63.54.85,1.04.86,4.26,3.1,10.58,4.08,3.41.52,13.47,1.2,13.62,1.16-.68-1.96-1.62-5.22-1.9-6.87-.34-2.03-.75-5.19-.75-5.19,0,0-.48-.75-.75-1.28-.27-.53-3.2-3.28-3.61-3.49-.41-.2-3.07-1.57-3.95-2.32-.89-.75.14-1.84.68-1.91.46-.06,3.43,1.09,4.35,1.46.18.07.35.17.51.29l4.25,3.42c.22.17.53.18.76.03.22-.14.34-.39.31-.64l-.85-5.93s-2.66-3.54-3.2-4.7c-.54-1.16-.68-1.91,0-2.28.6-.33,4.63,3.95,5.63,5.04.15.16.26.35.34.56l1.8,5.07c.33-.06.3-3.93.28-5.42,0-.38-.09-.74-.26-1.08-.79-1.6-3.17-6.51-2.88-7.19.53-1.27,1.36-1.16,1.98-.41.51.62,3.36,5.13,4.33,6.67.21.34.35.72.41,1.11l.84,5.98.76-6.47s-1.43-4.22-1.77-6.33c-.34-2.11.82-2.04,1.63-1.98.82.07,3.75,8.24,3.75,8.93,0,.6-.72,13.19-.89,16.18.32-.36.68-.69.99-1.07,1.16-1.42,3.01-3.96,3.9-4.49.22-.13.48-.2.69-.36.25-.18.43-.44.62-.68.69-.88,1.57-1.6,2.55-2.13.32-.17.53-.23.64-.35.88.65,1.73,1.24,2.67,1.76,11.93,6.64,17.46,10.83,18.29,10.25,1.04-.73,2.67-1.9,4.6-3.68,1.01-.93,1.83-1.57,1.43-2.04Z"/>
          <path class="cls-13" d="m59.59,126.85c1.05-.98,2.04-1.99,2.73-2.65,1.04-1.01,2.48-.75,3.24-1.48,1.03-.98-.08-2.17,0-3.25.6-3.5,5.01-5.36,4.67-11.11-1.54,2.67-4.83,2.49-7.34,1.33.88-.29,1.7-.74,2.43-1.31-3.07.33-6.2.12-9.2-.59-1.51,1.61-3.85-.07-5.5-.55-.93.13-1.67-.45-2.52-.72-3.46-.26-2.64,3.21-1.59,5.25-.93.61-1.98,1.34-2.46,2.36,1.47,3.28,4.79,5.26,6.4,8.5,1.27,1.54,2.47,3.72,4.35,4.68-.02.02-.1.12-.12.14,1.58,1.02,3.53.71,4.92-.59Z"/>
          <path class="cls-11" d="m50.51,107.61c1.71-.42,5.74,2.57,5.02.63-.83-2.08,3.66,2.57,10.13-.03-.65.97-1.65,1.7-2.77,2.02,2.63,1.84,4.95.64,7.11-1.26-.07.62-.15,1.25-.25,1.87.56.88.93,1.99.7,3.01,7.06-2.95,3.08-13.66-2.98-15.47l2.59-.84c-.89-.65-2.33-.93-3.12.01.64-.61.45-1.43.82-2.19-.66-.08-1.22.55-1.88.63.66-.71,0-1.68-.23-2.44-.34.71-1.09,2.24-1.82.98-.85-1.41-3.11-1.28-4.53-1.92-4.68-1.66-9.09,1.93-13.31,3.52.34.53-.22,1.14-.53,1.69-4.25,7.2,1.08,9.72-1.81,15.21.6-.34,2.96-1.01,2.45-1.9-2.16-2.92,1.95-6.31,4.39-3.53Z"/>
          <path class="cls-1" d="m49.06,121.08c-.19,0-.37-.13-.43-.32-.42-1.38-.53-2.82-.32-4.29.03-.25.26-.42.51-.38.25.03.42.26.38.51-.19,1.34-.09,2.65.29,3.91.07.24-.06.49-.3.56-.04.01-.09.02-.13.02Z"/>
          <path class="cls-1" d="m61.66,116.39c.21-.64.87-1.2,1.49-1.25,2.68.42-1.84,4.2-1.49,1.25Z"/>
          <path class="cls-1" d="m66.11,114.36c-2.09-1.97-3.76-.84-4.04-1.75.13-1.61,6.08.78,4.04,1.75Z"/>
          <g>
            <path class="cls-5" d="m60.06,123.23c-3.48,3.85-6.37-.63-4.19-3.62-.15.06,3.75,3.72,4.19,3.62Z"/>
            <path class="cls-3" d="m57.35,125.19c-3.15-.04-3.28-5.11-1.5-6.03.63.1,1.06,1.1,2.52,2.34.81.74,1.89,1.32,1.91,1.33.87.59-1.22,2.23-2.93,2.35Zm-1.38-4.81c-1.37,2.24.83,5.52,3.36,2.95-1.06-.57-2.63-2.14-3.36-2.95Z"/>
          </g>
          <g>
            <path class="cls-1" d="m48.19,113.41c-.07,0-.15-.02-.22-.06-1.98-1.11-3.33-3.6-2.78-5.11.18-.49.74-1.68,2.01-2.06,1.05-.31,2.24.03,3.55,1.01.2.15.24.43.09.63-.15.2-.43.24-.63.09-1.07-.8-2-1.09-2.76-.87-.91.27-1.32,1.22-1.42,1.51-.37,1,.66,3.06,2.38,4.02.22.12.29.4.17.61-.08.15-.24.23-.39.23Z"/>
            <path class="cls-1" d="m48.56,110.86c-.2,0-.38-.13-.43-.33-.06-.22-.26-.85-.44-1.15-.13-.21-.07-.49.14-.62.21-.13.49-.07.62.14.29.46.52,1.3.55,1.39.07.24-.08.49-.32.55-.04.01-.08.02-.12.02Z"/>
            <path class="cls-1" d="m56.72,128.51c-.73-.05-2.68-.26-2.42-1.31.14-.21.41-.27.62-.13,2.58,1.83,5.14-1.24,6.82-2.9,2.36-2.71,4.43-.39,3.37-4.72.55-3.63,5.07-5.55,4.67-11.08-.01-.58.91-.59.9,0,0,3.88-1.49,6.21-2.94,7.99-3.59,3.72-.08,3.87-1.94,6.37-.92.85-2,.7-2.93,1.62-1.71,1.48-3.6,4.26-6.14,4.18Z"/>
            <path class="cls-1" d="m54.64,109.09c-1.52,0-3.57-.71-4.86-2.9-.13-.21-.06-.49.16-.62.21-.13.49-.06.62.16,1.51,2.56,4.02,2.58,4.86,2.37.24-.06.49.09.55.33.06.24-.09.49-.33.55-.29.07-.63.11-.99.11Z"/>
            <path class="cls-1" d="m70.4,114.4c-1.13-.3.33-2.4-.58-3.14-.17-.18-.17-.46,0-.64,1.25-.54,1.29,1.86,1.13,2.54,6.21-4.24.09-13.92-3.32-14.21-.57-.1-.41-1,.17-.89,5.19.78,10.63,13.04,2.59,16.33Z"/>
            <path class="cls-1" d="m48.7,97.52c-1.98.18-5.18-2.09-1.85-2.27,2.82-.51,5.3-2.89,8.16-3.32,2.17-.37,5.15-.47,8.93,2.14.48.32-.03,1.08-.51.74-7.1-4.91-10.42-.38-16.61,1.35,1.29,1.01,3.48-.19,3.77.52.13.88-1.38.76-1.89.84Z"/>
            <path class="cls-1" d="m47.65,101.52c-.07,0-.14-.02-.21-.06-.44-.23-.88-1.13-.82-2.01.08-1.26,1.07-2.87,5.29-3.42.25-.03.47.14.5.39.03.25-.14.47-.39.5-2.54.33-4.12,1.12-4.44,2.24-.16.55,0,1.06.16,1.32.6-.4,2.04-1.27,4.04-1.19.25,0,.44.22.43.47,0,.25-.22.44-.47.43-1.88-.07-3.15.8-3.63,1.13-.14.09-.29.2-.46.2Zm.2-.86s.06.03.09.05c-.03-.02-.06-.04-.09-.05h0Z"/>
            <path class="cls-1" d="m66.92,98c-.99-.2-.03-1.41.24-1.9-2.86,1.25-.99-.47-1.23-2.04-.31.58-1.07,2.09-1.85,1.47-.35-.75,1.53-1.53,1.25-3.02.92-1.72,1.86,1.99,1.44,2.75,1.53-.3,2.32.22,1.02,1.52.86-.29,2.91-.45,2.37.74-.17.18-.46.18-.64,0-.2-.26-1.62.14-2.61.48Z"/>
            <path class="cls-1" d="m65.47,111.29c-.77.19-4.61-1.06-2.91-1.96,2.09-.11,4.26-1.79,3.2-4.72.79-2.56,2.93,4.24-2,5.43,2.57,1.05,6.71-.43,6.39-3.72.21-.97-1.04-2.47-.22-3.15,1.08.18.89,2.17,1.12,3.11.41,2.89-2.75,5.11-5.58,5.01Z"/>
            <path class="cls-1" d="m60.88,109.14c-2.28-.16-4.91-.14-6.54-2.1-.32-.49.45-.98.76-.48,2.85,2.46,7.48,1.89,10.82.75.23-.09.49.03.58.26-.3,1.44-4.28,1.45-5.62,1.58Z"/>
            <path class="cls-1" d="m56.75,107.25c-.72-.13-2.41.17-2.45-.82.06-.24.31-.38.55-.32,2.53.67,5.39-.06,7.29-1.85.42-.41,1.05.26.62.66-1.6,1.51-3.81,2.34-6.01,2.34Z"/>
            <path class="cls-1" d="m44.04,113.48c-.2,0-.38-.05-.52-.16-.29-.22-.48-.68.22-1.61.7-.94.28-2.99-.09-4.81-.27-1.31-.52-2.55-.41-3.47.4-3.1,1.3-5.29,2.82-6.91.17-.18.46-.19.64-.02.18.17.19.46.02.64-1.38,1.48-2.2,3.51-2.58,6.41-.1.77.14,1.94.39,3.17.43,2.1.88,4.27-.07,5.53-.09.12-.16.22-.2.3.45-.12,1.31-.59,1.91-1.34.16-.19.44-.22.63-.07.19.16.22.44.07.63-.66.81-1.97,1.7-2.83,1.7Z"/>
          </g>
          <path class="cls-13" d="m74.86,143.72c.34.15.71.2,1.07.25.73.1,1.47.2,2.2.15.81-.05,1.63-.28,2.42-.09.37.38.2,1.06-.2,1.4-.4.34-.96.43-1.48.51-.37.06-.75.12-1.12.17-.29.04-.59.1-.81.3-.13.13-.22.31-.37.41-.2.13-.48.1-.69,0-.22-.11-.39-.28-.58-.44-.55-.44-1.23-.71-1.93-.77.3-.2.19-.68-.05-.94-.39-.43-1.33-1.07-.52-1.63.7-.49,1.47.42,2.06.68Z"/>
          <path class="cls-13" d="m82.96,152.64c-.32-.82-4.66-2.51-5.37-2.99-1.29-1.08,2.25-.66,2.63-1.22.58-.42,1.39-.85.89-1.65-1.23-.34-2.63.57-4.01.26-1.38.07-2.59-1.55-3.92-1.39l.2.32c-1.82.92-3.31,2.75-5.05,3.85-.05.14-.03.28.02.41l-.2-.13c1.39,2.12,3.94,3.55,5.04,6.01.31.64,1.4,2.44,1.92,1.09-.11-1.2-.91-2.25-1.31-3.38.01,0,.02,0,.04,0,3.24,4.05,6.89,5.33,1.81-.58.06-.05.13-.09.18-.14.97.57,5.9,4.16,5.17,1.64-1.35-1.18-2.89-2.13-4.25-3.3,0-.06.02-.12.03-.17l.07.11c1.05.04,5.97,2.73,6.12,1.27Z"/>
          <g>
            <path class="cls-1" d="m74.56,158.12c-.25,0-.49-.09-.69-.27-.43-.39-.72-.9-1-1.39l-.08-.14c-.95-1.64-2.16-3.1-3.6-4.33-.11-.09-.21-.18-.32-.26-.48-.39-.98-.79-1.17-1.52-.06-.24.08-.49.32-.55.24-.06.49.08.55.32.11.45.44.71.86,1.04.11.09.23.18.34.28,1.52,1.3,2.79,2.84,3.79,4.57l.08.14c.25.43.5.88.83,1.18.05.04.1.03.12.02.05-.02.05-.05.05-.06,0-.03,0-.06,0-.09-.01-.25-.13-.51-.25-.77l-1.12-2.5c-.1-.23,0-.49.23-.6.23-.1.49,0,.6.23l1.12,2.5c.14.32.3.67.32,1.09,0,.07,0,.13,0,.2-.03.37-.27.69-.62.83-.12.05-.25.07-.37.07Z"/>
            <g>
              <path class="cls-1" d="m77.14,147.39c-.07,0-.14-.02-.21-.05-.14-.07-.55-.28-.56-.73,0-.2.07-.67.88-.83.22-.04.48-.07.75-.09.54-.05,1.22-.12,1.51-.33l.18-.13c.67-.46.76-.61.62-.86-1.15.28-2.3.52-3.69.41-.67-.05-1.18-.19-1.6-.45-.08-.05-.17-.1-.26-.16-.51-.31-1.46-.9-1.92-.8-.24.05-.48-.1-.54-.34-.05-.24.1-.48.34-.54.81-.18,1.84.45,2.59.91.09.06.18.11.25.15.3.18.69.28,1.21.32,1.16.09,2.15-.08,3.47-.4.34-.08.7.06.88.36.67,1.08-.31,1.77-.84,2.14l-.17.12c-.48.35-1.26.42-1.94.49-.22.02-.43.04-.6.07.11.13.14.33.05.49-.08.16-.24.24-.4.24Z"/>
              <path class="cls-1" d="m82.43,153.6c-.24,0-.46-.07-.64-.12-.73-.23-1.65-.54-2.55-.84-.89-.3-1.82-.61-2.53-.83-.24-.07-.37-.33-.3-.56.07-.24.33-.37.56-.3.73.23,1.65.54,2.55.84.89.3,1.82.61,2.53.83.14.04.3.09.41.08-.14-.15-.35-.3-.62-.44l-4.47-2.2c-.14-.07-.56-.29-.57-.74,0-.2.07-.67.88-.83.22-.04.48-.07.75-.09.54-.05,1.22-.12,1.51-.33l.18-.13c.67-.46.76-.61.62-.86-1.15.28-2.3.51-3.69.41-.67-.05-1.18-.19-1.6-.45-.08-.05-.17-.1-.26-.16-.51-.31-1.47-.9-1.92-.8-.24.05-.48-.1-.54-.34-.05-.24.1-.48.34-.54.82-.18,1.84.45,2.59.91.09.06.18.11.25.15.3.18.69.28,1.21.32,1.16.09,2.15-.08,3.47-.4.34-.08.7.06.88.36.67,1.08-.31,1.77-.84,2.14l-.17.12c-.48.35-1.26.42-1.94.49-.19.02-.38.04-.53.06l4.26,2.1c.43.22.75.47.98.76.08.1.13.2.16.31.05.2.02.42-.1.61-.13.21-.35.37-.6.43-.09.02-.18.03-.27.03Z"/>
              <path class="cls-1" d="m80.6,156.07c-.28,0-.65-.08-1.12-.29-.95-.43-2.24-1.25-3.37-1.98-.41-.26-.79-.5-1.11-.7-.21-.13-.28-.41-.15-.62.13-.21.41-.28.62-.15.33.2.71.45,1.12.71,1.05.67,2.36,1.51,3.26,1.92.66.3.86.19.86.19,0-.01,0-.07-.03-.09-.67-.58-1.41-1.12-2.13-1.65-.73-.53-1.48-1.08-2.18-1.69-.19-.16-.21-.45-.04-.64.16-.19.45-.21.64-.04.67.58,1.41,1.12,2.12,1.64.73.54,1.49,1.09,2.2,1.71.3.26.44.83.17,1.25-.12.19-.37.42-.86.42Z"/>
              <path class="cls-1" d="m77.89,157.82c-.19,0-.42-.07-.69-.28l-1.88-1.47c-.38-.3-.77-.6-1.1-1-.12-.15-.23-.3-.33-.46-.17-.25-.34-.49-.54-.66-.19-.15-.23-.44-.07-.63.16-.19.44-.23.63-.07.31.25.52.55.73.85.09.14.19.27.29.4.26.32.62.6.96.87l1.85,1.45c-.05-.17-.19-.37-.33-.56l-2.56-3.32c-.15-.2-.12-.48.08-.63.2-.15.48-.12.63.08l2.56,3.32c.22.29.68.88.49,1.55-.06.2-.17.36-.32.46-.09.06-.22.12-.39.12Z"/>
            </g>
          </g>
          <path class="cls-4" d="m34.42,204.18c.53,1.52,1.62,2.83,3.02,3.61.44.24.93.44,1.42.4.42-.04.81-.25,1.18-.46,2.99-1.7,5.83-3.67,8.47-5.88.46-.38.95-.88.85-1.47-.14-.76-1.11-.96-1.88-1-2.43-.12-5.82.04-8.02-.02l-5.05,4.82Z"/>
          <g>
            <path class="cls-1" d="m50.52,200.88c-.02-.25-.16-.45-.39-.57-.05-.03-.11-.04-.16-.05-.05-.09-.13-.16-.22-.21-.18-.47-.71-1.06-2.23-1.13-1.39-.07-3.06-.04-4.68-.02-1.23.02-2.4.03-3.35,0-.25,0-.46.19-.46.44,0,.25.19.46.44.46.97.03,2.14.01,3.38,0,1.61-.02,3.27-.04,4.63.02.41.02,1.37.12,1.46.63.05.28-.17.61-.69,1.04-2.62,2.19-5.45,4.15-8.41,5.83-.36.2-.68.37-1,.4-.32.03-.69-.08-1.16-.34-1.3-.73-2.33-1.95-2.82-3.36-.08-.24-.34-.36-.57-.28-.23.08-.36.34-.28.57.56,1.62,1.74,3.02,3.23,3.85.23.13.53.28.87.37.03.17.1.32.23.46.2.22.51.36.82.37.01,0,.03,0,.04,0,.48,0,1.1-.29,2-.8,3.53-1.98,5.02-3.21,6.11-4.11.15-.13.3-.25.44-.36,2.39-1.93,2.84-2.69,2.79-3.23Z"/>
            <path class="cls-1" d="m40.86,202.42c-.2,0-.38-.13-.44-.34-.24-.92-.2-1.93.12-2.83.08-.23.34-.36.58-.27.23.08.36.34.27.58-.26.73-.29,1.55-.1,2.3.06.24-.08.49-.32.55-.04,0-.08.01-.11.01Z"/>
            <path class="cls-1" d="m42.99,201.96c-.2,0-.38-.14-.44-.34-.2-.79-.09-1.66.3-2.38.12-.22.39-.3.61-.18.22.12.3.39.18.61-.28.52-.36,1.15-.22,1.72.06.24-.09.49-.33.55-.04,0-.07.01-.11.01Z"/>
          </g>
          <path class="cls-12" d="m25.28,156.71c-.13.07-.27.15-.4.22-7.9-1.65-16.93-1.22-23.84-5.79-1.85,11.77,7.2,20.31,16.35,28.74.22.25,1.7,7.15,8.17,16.48,2.58,3.73,7.08,8.11,7.08,8.11,2.76-.12,6.68-5.25,6.68-5.25-1.52-4.39-9.09-16.66-8.31-21.05,4.93,2.28,7.16,8.11,11.55,11.2.25-1.18-.46-2.32-1.12-3.33-5.99-9.4-11.04-19.53-16.16-29.34Z"/>
          <g>
            <path class="cls-1" d="m25.02,156.9s-.02,0-.02,0c-4.5-.23-9.01-.69-13.4-1.37-6.39-.98-9.68-3.25-10.8-4.18-.36-.3-.6-.68-.69-1.1-.7-3.19,2.31-8.64,2.61-9.05,5.97-8.2,13.45-15.72,25.01-25.15.99-.81,2.48-1.4,4.69-1.86,6.36-1.33,11.72,1.86,12.73,2.51,2.97,1.92,4.38,3.7,6.32,6.17,1.6,2.02,3.59,4.54,7.17,8.13,4.87,4.88,9.56,8.71,12.36,11,1.47,1.2,2.44,2,2.79,2.41.63.75-.18,1.49-1.13,2.35l-.34.31c-2.04,1.89-3.8,3.12-4.65,3.72-.68.48-1.87-.21-6.8-3.21-2.89-1.76-6.84-4.16-11.97-7.02-1.5-.83-2.77-1.82-4.25-2.96-1.64-1.27-3.49-2.7-6.3-4.48-.21-.13-.27-.41-.14-.62.13-.21.41-.27.62-.14,2.84,1.8,4.8,3.31,6.37,4.53,1.51,1.16,2.7,2.08,4.14,2.89,5.14,2.86,9.1,5.28,11.99,7.04,2.94,1.79,5.28,3.21,5.84,3.21.85-.59,2.56-1.8,4.52-3.61l.34-.32c.43-.39,1.03-.94,1.04-1.13-.29-.32-1.29-1.14-2.67-2.27-2.81-2.3-7.52-6.15-12.42-11.06-3.62-3.62-5.62-6.16-7.24-8.21-1.96-2.49-3.26-4.13-6.11-5.97-.59-.38-5.91-3.67-12.06-2.39-2.06.43-3.43.96-4.3,1.68-11.5,9.38-18.93,16.85-24.85,24.98-.27.37-3.09,5.49-2.46,8.33.06.28.25.48.39.6,1.06.88,4.19,3.03,10.36,3.98,4.21.65,8.52,1.1,12.83,1.33.13-.08.29-.1.44-.03l.21.1c.19.09.3.31.25.52-.05.2-.23.34-.44.34Z"/>
            <path class="cls-1" d="m32.65,204.92c-.12,0-.23-.05-.31-.13-.05-.04-4.56-4.45-7.14-8.17-5.42-7.82-7.36-13.93-8-15.93-.07-.24-.15-.46-.18-.55-.31-.34-.4-.43-.65-.64-.28-.24-.75-.65-1.88-1.75-5.74-5.57-9.21-8.92-11.39-13.2-1.06-2.07-4.03-11.12-2.43-13.66.13-.21.41-.27.62-.14.21.13.27.41.14.62-1.23,1.96,1.32,10.51,2.47,12.77,2.12,4.14,5.54,7.46,11.22,12.96,1.12,1.08,1.57,1.48,1.84,1.72.27.24.39.34.77.76.1.11.15.25.33.84.63,1.98,2.53,7.99,7.88,15.69,2.27,3.27,6.09,7.11,6.88,7.9,2-.27,4.86-3.41,6-4.86-.43-1.15-1.77-3.9-3.19-6.8-2.88-5.87-4.92-10.13-5.01-11.39-.02-.25.17-.46.42-.48.25-.02.46.17.48.42.09,1.18,2.77,6.66,4.92,11.06,1.6,3.27,2.98,6.1,3.32,7.14.04.14.02.29-.07.41-.17.22-4.07,5.3-7.01,5.42,0,0-.01,0-.02,0Z"/>
            <path class="cls-1" d="m29.51,186.74c-.06,0-.11-.01-.17-.03-.23-.09-.34-.36-.25-.59,1.9-4.63,1.7-7.58,1.41-8.93-.64-2.97-2.2-8.55-3.46-13.04-1.12-3.99-1.76-6.27-1.79-6.74-.02-.25.17-.47.41-.49.25-.02.47.17.49.41.03.4.87,3.39,1.76,6.56,1.26,4.5,2.83,10.1,3.47,13.1.54,2.51.02,5.87-1.45,9.46-.07.17-.24.28-.42.28Z"/>
            <path class="cls-1" d="m72.2,143.96c-.09,0-.18-.03-.26-.09-.2-.15-.25-.42-.1-.62l.07-.1c.29-.39.53-.8.74-1.24l-13.39-14.77c-.17-.18-.15-.47.03-.64.18-.17.47-.15.64.03l13.58,14.99c.12.13.15.31.08.48-.25.6-.57,1.17-.96,1.69l-.05.07c-.09.12-.24.19-.38.19Z"/>
            <path class="cls-1" d="m42.9,190.53c-.11,0-.22-.04-.31-.13-.44-.42-.87-.82-1.28-1.2-1.53-1.43-2.85-2.66-4.24-4.5-.19-.25-.37-.49-.55-.74-.7-.94-1.41-1.9-2.23-2.74-.43-.45-.89-.84-1.33-1.21-.88-.75-1.79-1.53-2.42-2.71-.12-.22-.03-.49.19-.61.22-.12.49-.03.61.19.54,1.03,1.35,1.71,2.2,2.44.46.39.94.8,1.4,1.27.85.88,1.59,1.87,2.3,2.83.18.25.36.49.55.73,1.34,1.78,2.64,2.99,4.14,4.39.41.38.84.78,1.29,1.21.18.17.19.46.01.64-.09.09-.21.14-.33.14Z"/>
            <path class="cls-1" d="m44.09,114.58c-.12,0-.23-.04-.32-.13-.18-.18-.18-.46,0-.64.38-.38.69-.8.91-1.24.11-.22.38-.31.6-.2.22.11.31.38.2.6-.26.53-.63,1.02-1.08,1.47-.09.09-.2.13-.32.13Z"/>
            <path class="cls-1" d="m47.13,118.97c-.16,0-.31-.08-.39-.23-.9-1.59-2.06-3.01-3.44-4.21-.01-.01-.04-.04-.07-.05-.03.01-.09.03-.12.05-.24.11-.47.23-.68.35-.59.32-1.2.66-2.04.63-.25,0-.44-.22-.43-.47,0-.25.22-.45.47-.43.6.02,1.03-.22,1.58-.52.23-.13.47-.26.74-.38.16-.07.4-.18.67-.13.23.05.39.18.48.27,1.46,1.27,2.69,2.76,3.63,4.45.12.22.05.49-.17.61-.07.04-.15.06-.22.06Z"/>
          </g>
          <path class="cls-13" d="m34.21,122.39c-3.92-.94.44,8.39.14,8.31,0,0-.76,6.47-.76,6.47-.22-.88-.66-6.45-1.24-7.09-1.43-1.59-4.89-9.94-6.31-6.26-.34,1.17,2.81,6.26,3.14,8.27.02,1.49.05,5.36-.28,5.42l-1.8-5.07c-.84-1.38-5.22-5.72-5.97-5.59-1.88,1.23,3.12,6.53,3.2,6.98,0,0,.85,5.93.85,5.93.08.57-.63.97-1.07.61-.2-.13-4.67-3.85-4.76-3.72-.93-.37-3.9-1.53-4.35-1.46-.54.08-1.57,1.17-.68,1.91.89.75,3.54,2.11,3.95,2.32.41.2,3.34,2.96,3.61,3.49,1.25,1.86.79,2.83,1.5,6.47,1.29,8.92,16.72,36.01,24.25,48.28l4.18-20.57-.07-.14c1,.17,1.88,3.27,2.95,2.08.87-.73.66-1.81,1.47-2.62,1.41-1.62-2.97-4.92-3.81-6.53-2.46-2.61-12.71-16.36-12.93-16.88,2.31-2.22,1.65-3.66,3.05-6.56.68-1.29,3.93-3.27,3.06-4.22-3.39-2.85-7.1,4.22-8.44,5.28.18-3.11.88-15.32.89-16.18,0-.68-2.93-8.86-3.75-8.93Z"/>
          <path class="cls-14" d="m108.91,187.42c-.27.09-.57.19-.73.43.22.18.54.19.82.19.63,0,1.26,0,1.89-.02.36,0,.73-.02,1.07-.13.28-.09.53-.23.78-.38,1.61-.96,3.16-2,4.65-3.13-.23-.25-.42-.55-.54-.86-.14-.35-.05-.7-.43-.49-.58.32-1.1.96-1.64,1.36-1.15.86-2.39,1.59-3.69,2.19-.71.33-1.44.61-2.19.85Z"/>
          <path class="cls-9" d="m78.96,287.06h54.76c-.99-7.96-1.49-10.86-3.72-15.32-1.09.95-1.92,1.2-2.77,2.37-.71.96-2.73,2.2-3.8,2.74-3.65,1.83-6.3,3.2-10.36,3.57-3.23.29-6.17.05-9.4-.2-2.99-.24-6.27-.43-9.26-.71-4.01-.38-9.52-2.04-13.53-2.35-1.64-.13-1.45,7.92-1.93,9.91Z"/>
          <path class="cls-9" d="m75.37,214.16c-3.83,3.96-2.37,11.41-.4,15.61,1.83,3.91,1.44,7.27,1.25,11.51,0,4.73.83,9.43,1.37,14.13-.19-1.64.51-3.05.16-8.97-.47-7.76.45-15.45,1.04-23.21-.29-1.98,1.39-7.84,1.62-9.15l-5.03.08Z"/>
          <path class="cls-8" d="m119.81,201.12c3.64-2.77,2.91-8.23.36-11.54-1.08-1.42-2.28-2.83-2.63-4.64-1.61.41-2.94,1.8-4.31,2.75-1.16.11-6.79.67-12.53,1.28.26-1.66.98-3.38,1.13-5.05-.84-.05-24.33,2.21-33.6,3.66-.86-.1-.65-.77-1.5-.87-.86-.1-.91,1.59-1.68.28-1.59-2.7-7.95-11.68-7.95-11.68,0,0-2.68,3.02-3.02,4.79l-2.19-3.54c-1.2,3.62-6.45,27.58-4.02,29.9,9.07,7.08,17.94,7.78,32.53,7.62-3.89,18.9-1.91,47.17-4.5,61.91,0,0,13.07,3.47,30.75,4.5,17.68,1.02,23.75-10.01,23.75-10.01-.75-2.22-8.36-19.7-8.12-21.66-.75-1.43-2.25-1.43-2.23-2.86.02-1.43,1.82-11.44,4.23-22.07,2.4-10.63,2.53-25.31,2.53-25.31-1.83,1.69-4.48,2.62-7,2.54Z"/>
          <path class="cls-14" d="m76.93,248.32l-1.2-16.64-1.5-3.77s-3.03,23.35-4.39,29.62c-1.36,6.27-1.5,9.57-1.5,9.57,0,0,3.48.37,4.67.78,1.19.41,3.61.84,3.61.84l.32-20.41Z"/>
          <path class="cls-1" d="m43.48,141.45c-.09,0-.19-.03-.26-.11-.15-.15-.16-.39-.01-.54l.04-.04c.92-.96,1.96-2.05,3.07-2.75.18-.11.41-.06.53.12.11.18.06.41-.12.53-1.03.65-2.04,1.7-2.93,2.63l-.04.04c-.08.08-.18.12-.28.12Z"/>
          <path class="cls-1" d="m113.62,188c-.15,0-.28-.08-.35-.22-.09-.2-.01-.43.18-.53,1.81-.89,2.97-1.72,4-2.48.1-.07.35-.23.62-.18.15.03.28.11.36.24.12.18.07.43-.11.55-.12.08-.27.09-.39.02,0,0-.01,0-.02.01-1.06.79-2.24,1.63-4.12,2.55-.06.03-.11.04-.17.04Z"/>
          <g>
            <path class="cls-1" d="m86.1,219.87c0,.83-.46,1.5-1.02,1.5s-1.02-.67-1.02-1.5.46-1.5,1.02-1.5,1.02.67,1.02,1.5Z"/>
            <path class="cls-1" d="m83.51,238.44c0,.83-.46,1.5-1.02,1.5s-1.02-.67-1.02-1.5.46-1.5,1.02-1.5,1.02.67,1.02,1.5Z"/>
            <path class="cls-1" d="m81.81,265.61c0,.83-.46,1.5-1.02,1.5s-1.02-.67-1.02-1.5.46-1.5,1.02-1.5,1.02.67,1.02,1.5Z"/>
            <path class="cls-1" d="m84.54,227.63c0,.83-.46,1.5-1.02,1.5s-1.02-.67-1.02-1.5.46-1.5,1.02-1.5,1.02.67,1.02,1.5Z"/>
            <path class="cls-1" d="m83.17,250.86c0,.83-.46,1.5-1.02,1.5s-1.02-.67-1.02-1.5.46-1.5,1.02-1.5,1.02.67,1.02,1.5Z"/>
          </g>
          <path class="cls-1" d="m78.97,287.05s-.04,0-.06,0c-.25-.04-.42-.26-.38-.51l1.44-9.57c.04-.25.26-.42.51-.38.25.04.42.26.38.51l-1.44,9.57c-.03.22-.23.39-.45.39Z"/>
          <path class="cls-1" d="m51.81,177.54c-.13,0-.27-.06-.36-.17-.57-.74-13.93-18.06-14.28-21.99-.03-.39.32-.85,1.74-2.5.63-.73,1.59-1.84,1.68-2.13.03-.12.07-.27.12-.46.26-1.02.75-2.92,1.35-4.06.29-.56.93-1.15,1.6-1.78.57-.54,1.77-1.66,1.52-1.92-.25-.27-.68-.43-1.21-.44-.91-.03-1.91.35-2.56.96-1.25,1.18-3.33,4.13-3.35,4.16-.02.03-.04.05-.07.08l-1.16,1.04c-.19.17-.47.15-.64-.04-.17-.19-.15-.47.04-.64l1.12-1c.27-.39,2.19-3.07,3.44-4.25.83-.79,2.06-1.25,3.22-1.21.78.03,1.43.29,1.84.73.85.92-.38,2.07-1.57,3.19-.59.55-1.2,1.13-1.42,1.55-.55,1.04-1.02,2.88-1.27,3.86-.05.19-.09.35-.12.48-.12.45-.79,1.23-1.86,2.48-.55.64-1.38,1.59-1.52,1.9.4,3.17,10.29,16.53,14.09,21.45.15.2.12.48-.08.63-.08.06-.18.09-.28.09Z"/>
          <path class="cls-1" d="m47.63,198.11c-.14,0-.27-.06-.36-.18-4.6-6.2-21.36-38.89-21.99-40.39-.6-1.44-1.99-5.98-2.34-8.08-.3-1.81-.67-4.56-.74-5.11-.13-.22-.49-.79-.72-1.23-.23-.43-3.02-3.07-3.42-3.29-.03-.01-3.04-1.53-4.04-2.37-.44-.37-.6-.89-.45-1.42.2-.69.86-1.22,1.36-1.29.17-.02.61-.08,4.58,1.49.23.09.43.21.62.36l4.25,3.42c.06.05.16.05.24,0,.07-.04.11-.13.1-.21l-.83-5.8c-.43-.58-2.67-3.59-3.18-4.69-.34-.71-1.04-2.2.19-2.87.35-.19.94-.51,6.18,5.13.19.21.34.45.43.71l1.19,3.35c.03-.85.04-2.02.02-3.53,0-.31-.08-.61-.21-.89-3.28-6.64-3-7.31-2.89-7.57.38-.92.91-1.18,1.28-1.23.51-.07,1.03.18,1.46.71.51.63,3.22,4.9,4.36,6.71.25.39.41.83.47,1.29l.35,2.51.34-2.89c-.22-.66-1.44-4.34-1.76-6.31-.15-.96-.04-1.63.35-2.06.5-.54,1.26-.48,1.76-.44.31.02.83.07,2.56,4.52.64,1.65,1.6,4.34,1.6,4.86,0,.69-.86,15.57-.89,16.2-.01.25-.22.44-.48.42-.25-.01-.44-.23-.42-.48.31-5.35.89-15.62.89-16.15-.06-.86-2.63-7.76-3.41-8.48-.4-.03-.77-.03-.95.16-.18.2-.23.66-.12,1.3.33,2.05,1.74,6.22,1.75,6.26.02.06.03.13.02.2l-.76,6.47c-.03.23-.22.4-.44.4-.23,0-.42-.17-.45-.39l-.84-5.98c-.05-.33-.16-.65-.34-.93-2.36-3.74-3.97-6.22-4.3-6.62-.22-.27-.45-.42-.64-.39-.19.03-.4.27-.57.66-.03.45.84,2.77,2.86,6.85.2.4.3.83.31,1.27.08,5.74-.23,5.8-.66,5.87-.22.04-.43-.09-.5-.29l-1.8-5.07c-.05-.15-.13-.28-.24-.4-2.87-3.09-4.66-4.67-5.18-4.89-.16.13-.28.44.28,1.64.52,1.1,3.13,4.59,3.15,4.62.05.06.07.13.09.21l.85,5.93c.05.44-.15.86-.51,1.09-.39.25-.91.23-1.28-.06l-4.26-3.43c-.12-.09-.25-.17-.39-.23-2.48-.98-3.89-1.43-4.15-1.43-.11.02-.5.29-.6.65-.05.19,0,.33.17.48.77.65,3.1,1.88,3.86,2.26.51.25,3.5,3.09,3.81,3.69.26.51.72,1.24.73,1.24.04.06.06.12.07.18,0,.03.41,3.18.75,5.18.34,2.01,1.71,6.51,2.29,7.89.62,1.47,17.49,34.27,21.88,40.2.15.2.11.48-.09.63-.08.06-.17.09-.27.09Z"/>
          <path class="cls-1" d="m83.77,214.55c-8.29,0-19.32-.24-23.2-1.16-4.82-1.14-11.14-5.31-12.95-6.55-.45-.31-.72-.81-.74-1.35-.05-1.6-.04-6.19,1.18-14.23.57-3.72,3.28-14.35,3.39-14.8.04-.17.18-.3.35-.33.17-.03.34.03.45.17l12.69,16.77c.14-.16.31-.3.5-.36.83-.28,1.46.21,1.79.65,2.21-.35,16.27-2.59,21.78-3.43,5.97-.91,24.21-2.69,24.4-2.71.24-.02.47.16.49.4.02.25-.16.47-.4.49-.18.02-18.4,1.79-24.35,2.7-5.96.91-21.91,3.45-22.07,3.47-.19.03-.39-.07-.47-.24-.03-.07-.36-.66-.88-.49-.07.04-.25.28-.35.49-.07.14-.21.23-.36.25-.15.01-.31-.05-.4-.18l-12.51-16.53c-.68,2.71-2.68,10.75-3.15,13.8-1.21,7.97-1.22,12.49-1.17,14.06,0,.26.14.49.35.64,1.79,1.23,7.98,5.32,12.65,6.42,5.62,1.33,27.55,1.2,32.06,1.01,4.83-.2,14.06-1.51,14.16-1.53.24-.04.47.14.51.38.04.25-.14.47-.38.51-.09.01-9.38,1.33-14.25,1.54-1.56.06-4.99.12-9.1.12Z"/>
          <path class="cls-1" d="m67.73,188.12c-.09,0-.19-.03-.27-.09l-.85-.62c-.37-.09-.53.21-.6.4-.05.16-.2.28-.37.3-.17.03-.34-.05-.43-.19l-8.2-11.94c-.32.32-.86.94-1.46,2.04-.26.49-.88,1.85-.88,1.87-.1.23-.37.33-.6.23-.23-.1-.33-.37-.23-.6.03-.06.63-1.41.91-1.93,1.1-2.02,2.06-2.63,2.1-2.65.2-.13.47-.07.61.13l8.1,11.8c.09-.09.2-.17.32-.23.31-.16.68-.18,1.06-.05.04.01.09.04.12.06l.77.56c1.58-.25,12.88-2.03,19.86-2.79,7.49-.81,13.66-1.04,13.72-1.04.23-.02.46.19.47.43,0,.25-.19.46-.43.47-.06,0-6.2.23-13.66,1.04-7.46.81-19.88,2.79-20,2.81-.02,0-.05,0-.07,0Z"/>
          <path class="cls-1" d="m56.49,175.77c-.13,0-.27-.06-.36-.17l-17.17-22.17c-.15-.2-.12-.48.08-.63.2-.15.48-.12.63.08l17.17,22.17c.15.2.12.48-.08.63-.08.06-.18.09-.28.09Z"/>
          <path class="cls-1" d="m76.76,267.56c-.25,0-.45-.2-.45-.45,0-.1.03-10.03.16-14.22.13-4-1.09-19.82-1.19-21.09-5.84-12.73-.58-17.82-.36-18.03.18-.17.47-.16.64.02.17.18.16.47-.02.64-.06.05-5,4.94.59,17.07.02.05.04.1.04.15.05.7,1.33,17.07,1.19,21.27-.13,4.17-.16,14.09-.16,14.19,0,.25-.2.45-.45.45Z"/>
          <path class="cls-1" d="m108.91,281.01c-.74,0-1.49-.02-2.28-.07-17.52-1.01-30.71-4.48-30.84-4.51-.21-.06-.36-.26-.33-.48.02-.24,2.45-23.72,1.94-28.93-.53-5.41.56-24.14,2.56-33.04.05-.24.3-.4.54-.34.24.05.4.3.34.54-1.95,8.65-3.06,27.52-2.55,32.75.49,4.99-1.57,25.52-1.9,28.72,2.26.56,14.49,3.47,30.28,4.39,15.93.92,22.34-8.21,23.22-9.6l-7.35-18.31c-.34-.85-.54-1.78-.59-2.78,0-.13-.03-.24-.07-.32-.28-.54-.69-.84-1.09-1.14-.56-.42-1.2-.9-1.19-1.93.02-1.45,1.8-11.39,4.24-22.16,2.37-10.46,2.52-25.07,2.52-25.21,0-.25.21-.43.45-.45.25,0,.45.21.45.45,0,.15-.16,14.85-2.55,25.4-2.39,10.54-4.2,20.6-4.22,21.98,0,.55.26.78.83,1.2.44.33.98.73,1.35,1.45.1.19.16.42.17.69.05.9.23,1.74.53,2.49l7.44,18.52c.05.13.04.27-.02.38-.06.11-5.87,10.31-21.9,10.31Z"/>
          <path class="cls-1" d="m76.61,269.18s-.05,0-.08,0c-.1-.02-2.47-.44-3.68-.86-1.13-.39-4.53-.76-4.57-.76-.24-.03-.41-.23-.4-.47,0-.14.15-3.41,1.51-9.65,1.34-6.18,4.36-29.35,4.39-29.58.03-.25.26-.42.51-.39.25.03.42.26.39.5-.03.23-3.05,23.44-4.4,29.66-1.07,4.9-1.38,8.01-1.46,9.08.98.12,3.36.42,4.34.76,1.14.39,3.52.82,3.54.82.24.04.41.28.36.52-.04.22-.23.37-.44.37Z"/>
          <path class="cls-1" d="m133.73,287c-.23,0-.42-.17-.45-.4,0-.08-.82-7.21-1.35-9.46-.53-2.22-2.33-5.75-2.35-5.79-.11-.22-.03-.49.19-.61.22-.11.49-.03.61.19.08.15,1.87,3.66,2.43,5.99.55,2.3,1.34,9.26,1.37,9.58.03.25-.15.47-.4.5-.02,0-.03,0-.05,0Z"/>
          <path class="cls-1" d="m63.75,202.61c-.24,0-.43-.18-.45-.42-.17-2.75-.14-5.94,1.35-8.67.12-.22.39-.3.61-.18.22.12.3.39.18.61-1.38,2.53-1.4,5.56-1.24,8.18.02.25-.17.46-.42.48,0,0-.02,0-.03,0Z"/>
          <path class="cls-10" d="m146.8,187.68c-.51-2.29.15-4.65.59-6.95,2.62-8.68-7.25-9.93-10.33-16.28-.42-.77-1.49-4.3-1.02-8,3.47-14.35-16.4-21.3-29.45-18.48-2.72-2.17-5.04-1.2-6.95,2.19-3.82,6.58-2.03,11.97-2.03,11.97,0,0,.44-5.59,4.47-6.79l.15-.24c1.62.22,3.29-2.85,4.87-1.52,2.87,4.29,1.28,11.73,6.57,14.15.18,4.61,6.12.59,8.5,2.47,4.19,2.85-3.76,7.34-4.65,7.47-.09.27-.16.55-.24.82-.06,0-.11,0-.17,0-1.04,5.82-1.02,11.87.79,17.56,2.88,4.49,7.38,10.49,1.93,15.06,3.32,0,7.38-1.41,8.38-4.91.4,3.88,3.32,8.03,7.55,7.83-4.38-2.75-2.6-8.78-1.43-12.9.21,0,.43-.02.65-.02,1.52,2.16,2.2,5.77.73,7.79,3.64-.34,4.6-4.79,4.03-7.85.05,0,.1,0,.16-.01-.09,3.96.81,8.45,4.92,10.1-2.71-3.64.56-7.84-.38-11.9.03-.04.07-.08.09-.13,1.4,2.31,4.91,4.29,7.28,2.43-2.28.56-4.48-1.58-4.98-3.87Z"/>
          <path class="cls-13" d="m121.04,159.21c-1.39-.41-3.03.77-4.48.85-2.87-.52-5.41-5.79-7.12-7.9l.7.93c-1.72-2.11-.09-12.73-4.78-9.86-.49.15-1.62.55-1.74,1.04-.04.04-.07.06-.08.06-3.32,2.71-2.93,6.06-4.13,9.25-1.2,3.46-4.97,2.63-5.28,4.38-.28,1.43,1.25,2.93,1.18,4.55.17,2.71-3.2,10.7,1.55,11.89,1.24.54,5.65.83,5.59,2.26-.17,3.97.22,8.55-2.44,11.81,5.29.18,9.64-.92,14.22-3.59q3.28-1.91,2.21-7.18c-.53-2.62.72-9.76,1.07-10.03,4.16-.21,8.66-6.12,3.53-8.46Zm-17.43-14.8s.01-.02.02-.03c0,.02,0,.04,0,.06l-.03-.03Z"/>
          <path class="cls-2" d="m102.48,154.84c.46-.83,1.33-1.24,1.86-.9.53.34.63,1.24.13,2.12-.46.83-1.33,1.24-1.86.9-.58-.38-.65-1.32-.13-2.12Z"/>
          <path class="cls-1" d="m107.35,152.65c-.15,0-.3-.07-.38-.21-.63-.99-1.93-1.82-3.44-1.47-.24.06-.48-.09-.54-.34-.06-.24.09-.48.34-.54,1.94-.46,3.61.61,4.41,1.86.13.21.07.49-.14.62-.07.05-.16.07-.24.07Z"/>
          <g>
            <path class="cls-5" d="m98.22,164.22s-1.28,4.63,2.18,5.17c2.77.41,4.73-3.16,4.73-3.16,0,0-2.07-.34-3.97-.82-1.45-.42-2.94-1.18-2.94-1.18Z"/>
            <path class="cls-3" d="m100.85,169.87c-.17,0-.34-.01-.52-.04-.97-.15-1.71-.61-2.19-1.35-1.09-1.69-.39-4.28-.36-4.39.04-.13.13-.24.25-.29.12-.05.27-.05.39.01.01,0,1.47.75,2.86,1.15,1.84.47,3.9.81,3.92.81.14.02.27.12.33.25.06.13.06.29,0,.41-.08.15-1.91,3.43-4.68,3.43Zm-2.31-5c-.13.76-.25,2.18.37,3.13.34.52.85.83,1.56.94,1.81.27,3.28-1.47,3.92-2.39-.77-.14-2.1-.4-3.34-.71-.97-.28-1.93-.7-2.51-.96Z"/>
          </g>
          <path class="cls-2" d="m96.8,174.2s8.08,1.82,11.18,1.34c0,0-.93,1.37-2.16,2.46-1.31,1.13-2.94,1.97-2.94,1.97l-.19-3.21-5.9-2.57Z"/>
          <g>
            <g>
              <path class="cls-1" d="m116.79,168.12c-.33,0-.66-.02-.99-.05-.25-.02-.43-.25-.4-.49.02-.25.25-.43.49-.4,2.85.29,6-.78,6.64-3.82.26-1.37.16-2.31-.3-2.87-.46-.56-1.34-.82-2.77-.82-.25,0-.45-.2-.45-.45,0-.25.2-.45.45-.45,1.72,0,2.82.37,3.46,1.15.64.78.8,1.97.49,3.62-.68,3.23-3.67,4.59-6.63,4.59Z"/>
              <path class="cls-1" d="m117.76,164.68c-.1,0-.21-.04-.29-.11-.19-.16-.21-.45-.05-.64.34-.39,1.28-1.3,2.65-1.27.25,0,.45.21.44.46,0,.25-.2.45-.46.44-1.02-.03-1.75.72-1.94.95-.09.1-.22.16-.34.16Z"/>
              <path class="cls-1" d="m116.08,158.67s-.02,0-.03,0c-.06,0-6.32-.54-7.31-9.5-.51-4.67-1.15-5.9-1.6-6.1-.26-.12-.68.18-1.09.46-.09.06-.17.12-.26.18-.21.14-.49.08-.62-.13-.14-.21-.08-.49.13-.62.08-.05.16-.11.25-.17.59-.4,1.26-.86,1.98-.53.75.34,1.52,1.41,2.12,6.82.62,5.6,3.31,7.6,5.03,8.31-1.22-1.46-2.97-4.12-2.64-7.16.03-.25.25-.42.5-.4.25.03.43.25.4.5-.44,4.06,3.42,7.53,3.46,7.57.14.13.19.33.12.51-.07.17-.23.28-.42.28Z"/>
              <path class="cls-1" d="m121.79,156.52c-2.48,0-6.27-.7-9.41-4.3-.16-.19-.14-.47.04-.64.19-.16.47-.14.64.04,3.07,3.52,6.73,4.08,8.98,4.02-2.91-1.08-7.83-3.92-9.13-11.02-.04-.24.12-.48.36-.52.25-.05.48.12.52.36,1.75,9.57,10.46,10.88,10.55,10.9.21.03.37.2.39.42.01.21-.12.41-.33.46-.03,0-1.06.28-2.62.28Z"/>
              <path class="cls-1" d="m116.49,160.51c-.5,0-.99-.12-1.44-.35-.93-.48-1.64-1.41-2.03-2.7-.07-.24.06-.49.3-.56.24-.07.49.06.56.3.32,1.05.87,1.8,1.58,2.17.57.29,1.23.32,1.9.1.24-.08.49.05.57.28.08.24-.05.49-.28.57-.39.13-.78.2-1.16.2Z"/>
              <path class="cls-1" d="m97.6,152.58c-.19,0-.37-.12-.43-.31-.08-.23-1.81-5.65,2.07-12.34,1.15-2.05,2.46-3.23,3.88-3.51,1.2-.23,2.45.17,3.74,1.19.19.16.23.44.07.63-.16.19-.44.23-.63.07-1.07-.85-2.08-1.19-3-1.01-1.15.23-2.25,1.26-3.27,3.07-2.19,3.77-2.48,7.16-2.36,9.28.58-1.78,1.79-4.02,4.28-4.76.24-.07.49.06.56.3.07.24-.07.49-.3.56-3.68,1.09-4.14,6.34-4.15,6.39-.02.21-.18.39-.39.41-.02,0-.04,0-.05,0Z"/>
              <path class="cls-1" d="m100.04,189.37c-.09,0-.18-.03-.26-.08-.2-.14-.25-.42-.11-.63,1.17-1.67,1.3-2.46,1.53-3.77.09-.51.18-1.08.36-1.8.75-3.11.75-6.17.36-6.51-.63-.46-1.25-.59-2.1-.78-.81-.18-1.81-.4-3.14-.98-2.04-.87-3.03-1.86-2.8-4.86.13-1.36.35-2.8.55-4.07.2-1.31.39-2.55.44-3.39.03-.67-.29-1.38-.59-2.06-.37-.82-.75-1.67-.58-2.55.18-.99,1.1-1.33,2.09-1.69,1.21-.45,2.59-.96,3.21-2.75.22-.69.42-1.46.63-2.27.31-1.22.64-2.49,1.12-3.74.37-1,.91-2.19,2.54-3.45.2-.15.48-.12.63.08.15.2.12.48-.08.63-1.56,1.2-1.97,2.32-2.24,3.05-.47,1.21-.78,2.45-1.09,3.65-.21.83-.41,1.62-.65,2.34-.77,2.2-2.49,2.84-3.75,3.31-.91.34-1.43.55-1.51,1.01-.12.61.19,1.29.51,2.02.35.78.71,1.58.67,2.47-.05.89-.23,2.09-.45,3.48-.19,1.26-.41,2.69-.54,4.02-.2,2.61.57,3.24,2.26,3.96,1.25.55,2.17.75,2.98.93.89.2,1.65.36,2.44.93,1.25.9.31,6.11-.01,7.45-.16.69-.26,1.24-.34,1.74-.23,1.34-.39,2.31-1.68,4.14-.09.12-.23.19-.37.19Z"/>
            </g>
            <path class="cls-1" d="m119.96,201.57c-.05,0-.1,0-.15,0-.19,0-.36-.13-.42-.31-.06-.18,0-.39.16-.5,1.5-1.12,2.4-3.12,2.35-5.24-.04-1.85-.76-3.81-2.08-5.67-.21-.29-.43-.58-.66-.87-.65-.84-1.33-1.72-1.69-2.77-.48-1.39-.79-3.03-1.01-4.31-.25-1.48-.41-3-.48-4.52-.18-3.78.19-7,1.11-9.84.08-.24.33-.37.57-.29.24.08.37.33.29.57-.89,2.74-1.24,5.85-1.07,9.52.07,1.49.23,2.97.47,4.41.21,1.24.51,2.84.97,4.17.31.91.95,1.72,1.56,2.51.23.3.46.6.68.9,1.42,2,2.2,4.14,2.25,6.17.05,1.94-.62,3.8-1.78,5.13,1.43-.13,2.75-.54,3.85-1.2,1.57-.93,2.49-1.74,2.89-3.32.06-.24.31-.39.55-.33.24.06.39.31.33.55-.47,1.88-1.57,2.85-3.3,3.88-1.51.9-3.36,1.37-5.36,1.37Z"/>
            <path class="cls-1" d="m149.64,192.72c-1.23,0-2.52-.48-3.5-1.21-1.56-1.15-2.71-2.9-3.16-4.78-.13-.55-.21-1.11-.28-1.65-.13-.99-.26-1.92-.69-2.73-1.05-1.99-3.61-2.72-5.93-3.24-.24-.05-.4-.3-.34-.54.05-.24.3-.4.54-.34,2.52.57,5.3,1.37,6.53,3.7.5.95.64,2.01.78,3.03.07.52.14,1.06.26,1.56.4,1.68,1.43,3.24,2.82,4.27.84.62,1.93,1.04,2.95,1.04h.03c-.25-.1-.5-.22-.75-.38-1.25-.78-2.23-2.18-2.56-3.67-.45-2.03-.03-4.09.38-6.08.07-.35.14-.7.21-1.05.35-1.85.67-4.54-.64-6.48-.61-.91-1.55-1.6-2.46-2.27l-.15-.11c-2.81-2.07-5.45-4.17-7.04-7.12-.44-.82-1.56-4.44-1.07-8.27,0-.02,0-.04.01-.05.02-.07,1.77-7.43-4.14-12.56-5.45-4.64-15.25-7.03-22.32-5.44-.24.05-.48-.1-.54-.34-.05-.24.1-.48.34-.54,7.44-1.67,17.37.75,23.11,5.64,6.14,5.33,4.56,12.89,4.43,13.43-.45,3.64.63,7.06.98,7.71,1.49,2.78,4.06,4.81,6.78,6.82l.15.11c.97.72,1.97,1.45,2.68,2.49,1.49,2.21,1.16,5.14.78,7.15-.07.35-.14.71-.21,1.07-.39,1.9-.79,3.86-.38,5.71.28,1.26,1.1,2.45,2.15,3.1.52.32,1.34.66,2.28.43.21-.05.42.05.51.24.09.19.05.41-.11.55-.69.58-1.55.82-2.42.82Z"/>
            <path class="cls-1" d="m135.45,204.5c-1.93,0-3.9-.94-5.31-2.56-1.26-1.44-2.09-3.4-2.4-5.67-.03-.18-.05-.37-.07-.55-.07-.59-.14-1.15-.31-1.68-.31-.94-.96-1.74-1.64-2.58-.86-1.07-1.76-2.17-1.94-3.6-.03-.25.14-.47.39-.5.24-.03.47.14.5.39.15,1.17.93,2.13,1.75,3.15.7.87,1.43,1.77,1.8,2.86.21.61.28,1.25.35,1.86.02.18.04.36.07.54.29,2.09,1.04,3.89,2.19,5.2.96,1.1,2.2,1.84,3.48,2.13-1.65-1.76-2.04-4.52-1.79-6.77.12-1.12.44-2.23.75-3.3.47-1.63.91-3.16.72-4.72-.15-1.21-.62-2.09-.62-2.1-.12-.22-.03-.49.19-.61.22-.12.49-.04.61.18.02.04.54,1.02.72,2.41.22,1.74-.27,3.44-.75,5.08-.3,1.03-.61,2.1-.72,3.15-.27,2.44.26,5.53,2.55,6.85.17.1.26.3.21.5-.05.19-.22.33-.41.34-.1,0-.21,0-.31,0Z"/>
            <path class="cls-1" d="m144.79,201.6c-.06,0-.12-.01-.18-.04-2.33-1.02-4.14-3.18-4.78-5.64-.62,1.66-2.1,3.33-4.13,3.44-.18,0-.34-.08-.42-.23-.08-.15-.07-.34.03-.48,1.46-2,.6-5.81-1.11-7.76-.16-.19-.15-.47.04-.64.19-.16.47-.15.64.04,1.74,1.98,2.66,5.54,1.66,7.98,1.31-.49,2.23-1.83,2.57-3.07.49-1.75.22-3.69-.03-5.41-.03-.23.11-.44.33-.5.22-.06.45.06.53.27.43,1.11.46,2.28.48,3.41.01.63.02,1.28.11,1.9.28,2.02,1.45,3.9,3.11,5.09-.46-1.16-.6-2.44-.38-3.68.08-.46.21-.91.33-1.34.11-.38.21-.73.28-1.1.24-1.19.25-3.02.04-4.9-.03-.25.15-.47.4-.5.25-.03.47.15.5.4.08.74.33,3.28-.05,5.18-.08.4-.19.79-.3,1.17-.12.43-.24.83-.31,1.25-.27,1.54.09,3.16,1,4.43.12.17.11.39-.02.54-.09.11-.22.17-.35.17Z"/>
            <path class="cls-1" d="m131.74,181.49c-.17,0-.33-.1-.41-.26-1.03-2.25-2.41-3.71-3.73-5.13-2.21-2.36-4.29-4.59-4.21-9.84,0-.25.22-.44.46-.44.25,0,.45.21.44.46-.08,4.88,1.8,6.88,3.96,9.21,1.37,1.47,2.8,2.99,3.89,5.37.1.23,0,.49-.22.6-.06.03-.13.04-.19.04Z"/>
          </g>
          <path class="cls-1" d="m105.55,188.92c-.21,0-.4-.15-.44-.36-.05-.24.11-.48.36-.53,1.41-.27,5.61-1.83,7.43-2.94.48-.29.94-.62,1.43-.98.78-.56,1.59-1.14,2.47-1.55.23-.1.49,0,.6.22.1.23,0,.49-.22.6-.8.37-1.58.93-2.32,1.46-.48.34-.98.7-1.48,1.01-1.92,1.18-6.22,2.76-7.73,3.06-.03,0-.06,0-.09,0Z"/>
        </g>
      </g>
    </g>
  </g>
</svg>