<?xml version="1.0" encoding="UTF-8"?>
<svg id="_レイヤー_2" data-name="レイヤー 2" xmlns="http://www.w3.org/2000/svg" viewBox="0 0 273.8 280.83">
  <defs>
    <style>
      .cls-1 {
        fill: #ffce7e;
      }

      .cls-2, .cls-3 {
        fill: #262626;
      }

      .cls-4, .cls-5 {
        fill: #fff;
      }

      .cls-6, .cls-5, .cls-7, .cls-3 {
        fill-rule: evenodd;
      }

      .cls-6, .cls-8 {
        fill: #ffddc0;
      }

      .cls-9 {
        fill: #efb868;
      }

      .cls-7 {
        fill: #c37b7b;
      }

      .cls-10 {
        fill: #f2a590;
      }

      .cls-11 {
        fill: none;
        stroke: #000;
        stroke-linecap: round;
        stroke-linejoin: round;
        stroke-width: 1.5px;
      }

      .cls-12 {
        fill: #cc8979;
      }

      .cls-13 {
        fill: #231815;
      }

      .cls-14 {
        fill: #fff400;
      }

      .cls-15 {
        fill: #c9a38a;
      }

      .cls-16 {
        fill: #6c96a3;
      }
    </style>
  </defs>
  <g id="text">
    <g>
      <g>
        <g>
          <path class="cls-14" d="m50.48,104.41l-.12,1.56c-.11,1.44-.86,2.58-1.8,2.75l-1.03.18,1.03.18c.94.17,1.69,1.31,1.8,2.75l.12,1.57.12-1.57c.11-1.44.86-2.58,1.8-2.75l1.03-.18-1.03-.18c-.95-.17-1.69-1.31-1.8-2.75l-.12-1.56Z"/>
          <path class="cls-14" d="m16.58,146.78l-.12,1.56c-.11,1.44-.86,2.58-1.8,2.75l-1.03.18,1.03.18c.94.17,1.69,1.31,1.8,2.75l.12,1.57.12-1.57c.11-1.44.86-2.58,1.8-2.75l1.03-.18-1.03-.18c-.95-.17-1.69-1.31-1.8-2.75l-.12-1.56Z"/>
          <path class="cls-14" d="m86.83,187.44l-.12,1.56c-.11,1.44-.86,2.58-1.8,2.75l-1.03.18,1.03.18c.94.17,1.69,1.31,1.8,2.75l.12,1.57.12-1.57c.11-1.44.86-2.58,1.8-2.75l1.03-.18-1.03-.18c-.95-.17-1.69-1.31-1.8-2.75l-.12-1.56Z"/>
          <path class="cls-14" d="m118.38,114.32l-.12,1.56c-.11,1.44-.86,2.58-1.8,2.75l-1.03.18,1.03.18c.94.17,1.69,1.31,1.8,2.75l.12,1.57.12-1.57c.11-1.44.86-2.58,1.8-2.75l1.03-.18-1.03-.18c-.95-.17-1.69-1.31-1.8-2.75l-.12-1.56Z"/>
          <path class="cls-14" d="m140.17,149.43l-.07.91c-.06.84-.5,1.5-1.05,1.59l-.59.1.59.11c.55.1.98.76,1.05,1.59l.07.91.07-.91c.07-.83.5-1.49,1.04-1.59l.59-.11-.59-.1c-.55-.09-.98-.75-1.04-1.59l-.07-.91Z"/>
          <path class="cls-14" d="m31.44,126.28l-.07.85c-.06.78-.47,1.41-.98,1.49l-.56.1.56.1c.51.09.92.71.98,1.49l.07.85.06-.85c.06-.78.47-1.4.98-1.49l.56-.1-.56-.1c-.52-.08-.92-.71-.98-1.49l-.06-.85Z"/>
          <path class="cls-14" d="m85.11,126.18l-.07.85c-.06.78-.47,1.41-.98,1.49l-.56.1.56.1c.51.09.92.71.98,1.49l.07.85.06-.85c.06-.78.47-1.4.98-1.49l.56-.1-.56-.1c-.52-.08-.92-.71-.98-1.49l-.06-.85Z"/>
          <path class="cls-14" d="m151.91,178.06l-.11,1.53c-.11,1.41-.84,2.52-1.76,2.68l-1.01.18,1.01.18c.92.16,1.65,1.27,1.76,2.68l.11,1.53.12-1.53c.11-1.41.84-2.52,1.76-2.68l1-.18-1-.18c-.92-.16-1.65-1.27-1.76-2.68l-.12-1.53Z"/>
        </g>
        <g>
          <g>
            <path class="cls-8" d="m102.29,178.84c-1.19.16-2.37.33-3.56.49l-2.97,3.1c.13-.66.08-1.35,0-2.03-.02-.19-.13-.19-.23-.36-.12-.21-.84-.52-1.04-.64-1.6-1-2.37-2.4-3.34-4.02-.37-.62-.69-1.27-1.1-1.85-.45-.64-1.02-1.19-1.57-1.74-.92-.9-1.84-1.8-2.9-2.52-.51-.34-1.05-.64-1.52-1.04-1.27-1.06-1.91-2.68-2.71-4.13-1.11-2.05-2.61-3.88-4.39-5.38-.38-.32-1.69-1.65-2.06-2.01-.68-.65-1.36-1.3-2.11-1.86-.04,0-.09-.01-.13-.01-.2-.18-.38-.34-.57-.47-.1-.07-.21-.13-.31-.19-.09-.05-.19-.1-.29-.15-.16-.07-.33-.13-.52-.19-.29-.08-.55-.19-.8-.29-.71-.16-1.45-.18-2.19-.03,0,.03,0,.05,0,.08h.07c-.04.17-.08.35-.11.53-.07.81-.14,1.63-.2,2.44-.21,2.55-.78,5.5-.51,8.08.16.75.45,1.46.82,2.13.18.27.37.54.54.86.01.03.03.05.04.08.32.47.67.91,1.05,1.34.26.17.53.34.74.58,0,0,0,0,.01.01.08.05.17.1.26.14.37-1.01.65-2.06.85-3.12.09.15.11.01.2.16-.04.02-.07.15-.11.17,1.83,1.58,3.9,2.85,5.74,4.43,1.45,1.25,2.9,2.5,4.24,3.87.69.7,1.35,1.44,2.08,2.1.92.82,2.01,1.23,3.05,1.89,2.34,1.48,4.7,3.12,7.2,4.31.18.09.37.17.57.2.02.08.19.47,1.09.44.92-.04,1.77-.58,2.51-1.22.74-.63,1.42-1.37,2.22-1.91.79-.52,1.68-.83,2.44-1.41.14-.1.28-.24.29-.43.02-.37-.44-.46-.75-.42Z"/>
            <path class="cls-8" d="m97.07,177.59c-.4.73-.41,1.96-.97,2.56-.09.1-.52-.23-.57-.1-.05.12-.05.26-.06.39-.11,1.47-1.25,2.18-.92,3.61,2.13-.36,2.86-.6,4.46-2.16.4-.4,2.25,1.52,2.67-1.17-.54,0-1.06.32-1.35.81.1.33.21.67.43.93.22.26.58.42.88.28.02.36.29.68.62.74.33.06.68-.16.8-.49.1.56.84.72,1.28.41.44-.31.64-.89.81-1.42.28-.86.56-1.73.75-2.62.09-.41.16-.86,0-1.25-.16-.41-.53-.68-.85-.96-.84-.75-1.46-1.79-1.74-2.93-.07-.27-.12-.54-.26-.77-.3-.48-.9-.61-1.44-.61-.67,0-1.81.09-2.35.58-.41.38-.99.1-.93.62.06.59.78,1.47.34,1.84-.65.55-1.15.91-1.59,1.72Z"/>
            <g>
              <path class="cls-16" d="m118.21,189.85c-3.52.69-7.15,1.25-10.67.54-1.45-.29-2.8-.6-4.22-.89-.04,0-.07-.02-.1-.03.01.23.04.47.07.7l-.11-.15c.07.3.15.59.22.89.14.78.33,1.55.53,2.27,1.34,5.96,2.29,11.85,4.3,20.64,1.36,5.97,1.92,10.9,2.86,17.54.08.55.56.95,1.12.92,1.87-.08,4.46-.94,4.93-1.1l.19-5.12-.14,11.1c2.02,1.12,4.53,1.3,6.69.49.33-.12.66-.28.86-.56.2-.28-.04-1.22,0-1.57.71-7.3,1.01-14.87.94-22.21.61-1.97.8-4.35.98-5.99.8-7.07,1.26-13.91,1.16-20.26,0-.34-.02-.71-.08-1.05-2.52,2.45-6.11,3.17-9.51,3.84Z"/>
              <path class="cls-9" d="m133.28,173.28c-.06-1.38-.13-2.77-.29-4.14-.22-1.86-.62-3.7-1.01-5.54-.64-2.96-1.53-5.69-2.17-8.65-.19-.87-.39-1.78-.95-2.48-.97-1.21-2.67-1.44-4.18-1.77-1.55-.34-3.38-1.25-4.96-2.14-.01-.15-.03-.3-.13-.4-.11-.12-.29-.16-.45-.18-.13-.02-.27-.02-.4,0,0,0-.02,0-.02,0,0,0-.02,0-.02,0-.15-.09-.3-.17-.44-.26,0,0,.05.11.13.31-.25.06-.5.15-.75.24-.11.02-.21.02-.32.01-2.22-.25-4.47.06-6.68.38-.24.03-.49.07-.7.18-.26.13-.45.36-.64.58-.08.1-.16.19-.24.29-.06-.07-.13-.13-.18-.2-.01-.02-.47-1.29-.47-1.31-.72.15-.88.96-2,1.17-1.87.36-4.4,1.53-5.66,3.23-.83,1.11-1.18,2.86-1.6,4.19-1.17,3.65-2.32,7.36-3.1,11.13-.13.64-.29,1.36-.29,2.03.01,1.84,1.49,3.69,2.34,5.09l.96-2.02c1.08-.56,2.4-.71,3.58-.48-.26-1.14-.32-3.12.03-4.23.41-1.31,1.05-3.07,1.46-4.37.35.07.53.97.73,1.7.1.91.11,1.82.05,2.73-.07,1.15-.25,2.29-.48,3.41-.12.59-.25,1.18-.39,1.76-.09.4-.38,1.02-.33,1.43.1.74,1.04,1.56,1.32,2.32.33.89.46,1.86.34,2.81-.01.12-.03.24-.05.36l-2.12.76c-.59,2.41-.82,4.9-.67,7.38.02.42.31.78.71.91.03.01.07.02.1.03,1.42.29,2.77.6,4.22.89,3.52.7,7.15.15,10.67-.54,3.4-.67,6.99-1.39,9.51-3.84.15-.15.3-.3.44-.45.21-.23.25-.56.11-.84-.64-1.3-3.18-9.08-3.63-11.22.14-.97.39-2.55.85-5.13.21-1.2.16-2.48.13-3.75.21.44.53,1.18.55,1.25.27,1.01.54,2.03.82,3.04.49,1.82.97,3.64,1.4,5.48.38,1.6.82,4.77,1.09,6.39l1.27,3.55c.57.14,1.16.27,1.74.21.58-.06,1.18-.37,1.43-.9,0,0-.51-7.38-.65-10.37Zm-15.94-24.92c-.27.08-.54.14-.82.13l.82-.13Z"/>
            </g>
            <g>
              <path class="cls-8" d="m6.41,173.73c-.06-.02-.12-.04-.18-.05-.4-.11-.8-.18-1.21-.2l-.72.29c.79-.13,1.36-.16,2.11-.03Z"/>
              <path class="cls-8" d="m1.52,174.82c-1.21.55-1.38,1.04-.65,1.2.51.11,2.29-.54,2.68-.73l-2.03-.47Z"/>
              <path class="cls-8" d="m2.35,175.82c-1.01,1.4.21,1.36.96.92.63-.37,1.75-1.14,1.75-1.14l-2.71.22Z"/>
              <path class="cls-8" d="m3.5,176.79c.8.93,2.06-.31,2.89-.67l-2.89.67Z"/>
              <path class="cls-8" d="m7.02,173.81c-.35-.11-.69-.22-1.05-.29-1.34-.25-2.78.15-3.8,1.06-.16.15-.33.33-.32.55,0,.46.72.68.7,1.14,0,.07-.03.15,0,.22.03.09.12.15.21.19.19.08.4.12.6.12.09,0,.18,0,.25.04.06.04.1.1.16.15.12.1.28.1.44.09.48-.04.95-.18,1.36-.43.27-.16.52-.37.82-.49.74-.31,1.62-.04,2.39-.28.39-.12,1.53-.87.82-1.25-.36-.19-.85-.27-1.25-.4-.44-.14-.88-.28-1.32-.42Z"/>
            </g>
            <path class="cls-4" d="m73.82,255.26c-1.25.09-2.01-.29-2.62-1.34-.95-1.63-.68-3.71-.73-5.52-.02-.72.18-1.14.3-1.85.11-.63.18-1.38.23-2.02.02-.27-.27-.78-.21-1.05.1-.41.32-.06.68-.18-.03-.43-.14-.86-.13-1.29.01-.43.18-.9.57-1.1.22-.12.48-.13.73-.11.16.01.31.04.45.11.33.16.53.5.83.71.37.26.72-1.25.76-1.52.11-.69.03-1.4-.19-2.06-.02-.06-.04-.12,0-.17.04-.07.15-.07.23-.04.34.12.55.49.86.69.16.1.32.22.46.35.29.28.49.62.64.99.46,1.14.51,2.45.59,3.66.15,2.28.21,4.57.33,6.85.13,2.61-1.99,4.75-3.78,4.88Z"/>
            <path class="cls-12" d="m78.68,227.62c1.86-1.59,3.81-3.23,6.18-3.8.12-.03.25-.05.36,0,.13.07.18.23.18.38.02.51-.3.96-.64,1.34-.95,1.06-2.15,1.85-3.45,2.42-.66.29-1.34.51-2.03.69-.39.1-1.64.56-1.96.24.25-.48.93-.91,1.35-1.27Z"/>
            <g>
              <g>
                <path class="cls-8" d="m45.82,164.46c.25-2.24.5-4.5,1.26-6.61.22-.6.33-2.09.9-2.48-1.35.09-2.57.3-4.22,1.19-.39.21-1.55,1.29-3.05,2.76l.07-.03c-1.34,1.4-2.55,2.93-3.96,4.25-.62.59-1.29,1.14-1.85,1.78-.26.3-.49.62-.76.91-.33.37-.71.71-1.09,1.04-.7.62-1.41,1.25-2.11,1.87-.41.36-1.59,1.07-1.59,1.73-1.59.75-3.29,1.27-4.97,1.78-1.08.33-2.16.68-3.23,1.02-1.02.32-2.05.59-3.05.97-.94.36-1.87.75-2.83,1.04-.86.26-1.77.46-2.67.41-1.26-.06-2.41-.61-3.53-1.17l-.8.17c-1.98-.91-3.17-1.25-4.72-1.34-1.55-.08-3.02-.24-3.12.22-.13.63,1.48.91,1.78.96,1.54.28,1.95.28,3.41.81.6.22,2.5.98,2.89,1.43.28.33.04.63-.39.62-.72-.01-3.61-.59-3.84.41-.12.52,1.82.7,4.11,1.26.41.1,1.53.35,2.51.56,1.16.25,2.34.32,3.52.2,9.07-.91,17.89-4.31,25.21-9.74.97-.72,1.94-1.49,3-2.07.3-.14.59-.27.89-.41.1-.05.21-.1.31-.15.17-.06.35-.12.53-.17l-.32.07c.22-.12.42-.25.6-.43.18-.18.32-.4.46-.61.18-.27.37-.54.56-.8.05-.25.1-.5.14-.75-.09-.21-.07-.46-.04-.69Z"/>
                <path class="cls-8" d="m66,236.69c-1.47-.11-2.84-.95-4.31-.86.31,1.1.95,2.1,1.82,2.83,1.06.89,2.39,1.37,3.64,1.96,1.47.7,2.84,1.59,4.21,2.48-.06-.59-.1-1.24.24-1.72.25-.35.7-.55,1.13-.51.43.04.83.33,1,.72.06.13.15.29.28.25.08-.02.12-.12.14-.2.25-.89.45-1.8.58-2.72,0-.06.02-.12,0-.18-.02-.08-.08-.13-.14-.19-.96-.92-1.86-1.92-2.67-2.98-.13-.16-.4-.71-.59-.77-.01,0-.03,0-.04,0-1.24.96-2.61,1.67-4.15,1.83-.38.06-.77.08-1.15.05Z"/>
                <path class="cls-8" d="m51.27,239.29c-.04.11-.05.28,0,.54.39,2.49,1.39,5.72,2.09,8.14,1.67,5.45,3.07,10.97,5.2,16.26,1.44-.54,2.95-.03,4.13.83,1.72-.03,1.39-2.36,1.03-3.5-.61-4.87-.44-9.85-1.29-14.73-.28-2.33-.58-4.73-1.66-6.82-.75-1.14-1.03-2.45-.72-3.78-2.89,1.07-5.95,3.62-8.77,3.06Z"/>
                <path class="cls-10" d="m62.49,190.41c-6.02,1.68-10.9,1.04-13.1-1.08l-.87.08c-2.83,7.97-3.6,16.57-2.9,25l.16.9c.13,4.05-1.79,14.18-2.27,18.24-.04.37,2.76,4.61,7.64,5.72.04,0,.08.01.12.02,2.82.56,5.88-1.99,8.77-3.06,1.27-.47,2.5-.65,3.67-.16,1.24.53,2.38.68,3.44.57,1.54-.16,2.91-.87,4.15-1.83,2.13-1.64,3.87-3.98,5.42-5.41,2.34-2.15,5.53-5.32,8.7-5.55-2.51-2.4-7.15-11.68-8.49-14.89-.41-.98-.73-2-1.06-3.01-.68-2.14-3.56-12.92-6.94-18.41l-.53-.86c-1.3,1.37-4.35,3.29-5.91,3.72Z"/>
                <path class="cls-1" d="m47.96,151.55c-.63-1.23-.59-1.99-.62-2.96,0-.76-.12-1.89-.12-1.89l-.51-3.22.45-.87s.48-1.68.7-2.2c.22-.52.48-1.72.63-1.98.19-.35,3.18-.46,3.83-.25,1.08.35,2.76,4.17,2.86,4.29.81.83,1.14,1.36,2.53,1.95,1.39.54,2.62,0,2.62,0,0,0,1.96-.42,2.15,1.17.07.46.03,1.14-.35,1.71-.46.71-1.32,1.1-1.32,1.1l.47,1.36s-.13,2,.49,4.28c.04.06.12.1.24.12.33-.02.66-.04.99-.08.59-.08,1.17-.2,1.75-.33,1.16-.26,2.31-.56,3.5-.64.74-.05,1.31.2,1.94.45.25.1.51.2.8.29.19.06.36.12.52.19.22.1.41.21.6.34.19.13.37.29.57.47.04,0,.08,0,.13.01.49.06,1.25.19,1.79.33.92.24,1.81.07,2.75.24,1.16.21,2.92-.34,3.8-1.12.5-.44.6-.53,1.1-.96,1.24-1.06,3.16-2.01,4.64-1.23.04-.7-.41-1.11-.98-1.52-.57-.41-1.27-.53-1.97-.65-.31-.05-.69-.56-.58-.86.63.03,1.28.05,1.86-.18.59-.23,1.1-.77,1.08-1.4-1.02.28-2.16.11-3.07-.45,1.51.16,3.01-1.12,3.08-2.63-1.32.83-3.97.87-5.08-.5-1.05-1.3-2.19-1.38-3.75-1.36.75-.45,1.65-.64,2.52-.55-.02-1.15-1.06-2.08-2.18-2.35-1.12-.26-2.29,0-3.4.29-1.11.3-2.24.65-3.39.56-1.15-.08-2.23-.59-3.21-1.2-1.02-.64-1.96-1.39-2.8-2.25-.75-.76-1.43-1.61-2.3-2.24-.87-.62-2.01-1-3.03-.66-.55-1.25-2.09-1.74-3.46-1.8-2.68-.11-5.31.96-7.26,2.8-.61-.49-1.54-.22-2.14.28-1.28,1.07-1.64,2.86-1.93,4.5-.34,1.96-.68,3.98-.32,5.94.11.61.29,1.2.39,1.81.13.73.15,1.5.45,2.18.36.83,1.07,1.44,1.55,2.21.47.77.64,1.89-.05,2.48.59.39,1.22.62,2,.62.61,0,1.23-.01,1.86-.04-.36-.32-1.8-1.7-2.81-3.59Z"/>
                <g>
                  <path class="cls-4" d="m68.04,183.48c.32-4.09,1.71-9.05,2.7-13.49-.11-.12-.22-.24-.33-.35,0,0,0,0-.01-.01-.21-.23-.48-.41-.74-.58-.37-.43-.73-.87-1.05-1.34-.21-.3-.4-.62-.58-.94-.37-.67-.65-1.38-.82-2.13-.03-.14-.06-.28-.08-.42-.33-2.16.35-4.67.47-6.85.06-1.09.12-2.18.32-3.24.03-.18.07-.36.11-.54h-.07s-.84.09-.84.09c.21-.03.42-.07.63-.1-.71.03-1.42.09-2.12.19-.23,1.16-.59,4.74-1.49,7.27-.21.6-.46,1.14-.74,1.58-.81,1.26-2.14,2.32-3.65,3.05-3.07,1.49-6.89,1.57-8.62-1.01-.22-.32-.4-.68-.55-1.08-.45-1.25-.99-1.57-.73-2.98.16-.89.33-1.82.49-2.66-.02,0-.04,0-.06.01.18-.93.35-1.85.53-2.78-.17.27-2.48-.04-2.82.19-.58.4-.69,1.88-.91,2.48-.76,2.12-1.02,4.38-1.26,6.61-.03.23-.05.48.04.69-.04.25-.09.5-.14.75-.12.57-.28,1.14-.45,1.71,0,.03-.01.06-.02.09.11,2.66-.03,5.58.56,7.83.31,1.2.82,2.33,1.23,3.5,1.21,3.49,1.31,6.18,1.56,9.87l.04-.52c.2.34.45.66.75.95,2.2,2.12,7.08,2.76,13.1,1.08,1.56-.43,3.64-1.36,4.93-2.73.36-.38.66-.79.87-1.23,0,0-.38-1.45-.26-2.97Z"/>
                  <path class="cls-8" d="m50.85,155.21s-.22,1.2-.5,2.73c-.15.84-.33,1.77-.49,2.66-.26,1.41.28,1.73.73,2.98.15.4.33.76.55,1.08,1.73,2.57,5.55,2.49,8.62,1.01,1.51-.73,2.83-1.79,3.65-3.05.28-.43.52-.98.74-1.58.9-2.53,1.26-6.11,1.5-7.27-.29-.2-2.82.52-3.65.38-.12-.02-.2-.06-.24-.12-.61-2.28-.49-4.28-.49-4.28l-.47-1.36s.86-.39,1.32-1.1c.38-.57.42-1.25.35-1.71-.19-1.59-2.15-1.17-2.15-1.17,0,0-1.23.54-2.62,0-1.39-.58-1.72-1.11-2.53-1.95-.09-.12-1.78-3.94-2.86-4.29-.65-.21-3.64-.1-3.83.25-.15.26-.41,1.46-.63,1.98-.22.52-.66,2.15-.7,2.2l-.45.87.51,3.22s.12,1.13.12,1.89c.02.97-.01,1.73.62,2.96,1.01,1.88,2.45,3.26,2.81,3.59.02.02.03.02.04.04.03.03.04.04.04.04Z"/>
                </g>
              </g>
              <path class="cls-2" d="m52.2,155.81c-.32,0-.61-.05-.87-.16-.86-.39-1.73-1.29-2.17-1.8-1.28-1.48-1.9-3.05-2.04-4.02-.12-.66-.16-1.31-.2-1.94-.02-.36-.04-.74-.08-1.1-.08-.66-.18-1.27-.3-1.92l-.06-.33c-.03-.11-.05-.22-.07-.34-.01-.09-.03-.18-.05-.28-.06-.24.09-.47.33-.53.24-.05.47.09.53.33.03.12.05.24.07.34.02.1.03.19.05.25,0,.02.01.04.01.06l.06.35c.11.66.22,1.28.3,1.97.04.39.06.78.09,1.15.04.63.07,1.22.19,1.84.12.83.68,2.25,1.84,3.59.66.76,1.36,1.34,1.86,1.57.94.39,3.23-.56,5-1.72,1.01-.68,1.37-1.15,1.84-1.91.13-.2.39-.27.6-.15h0c.21.12.28.4.15.61-.51.82-.94,1.4-2.1,2.18-.35.23-3.05,1.94-4.96,1.94Z"/>
              <path class="cls-2" d="m60.31,148.99c-.19,0-.36-.12-.42-.31-.07-.23.06-.48.3-.54,1.07-.32,1.63-.86,1.84-1.76.12-.55-.02-1.11-.37-1.4-.29-.25-.68-.28-1.12-.11-.23.09-.48-.02-.57-.25-.09-.23.02-.48.25-.57.75-.29,1.48-.19,2.01.26.6.51.84,1.38.65,2.26-.28,1.22-1.08,2-2.45,2.41-.04.01-.08.02-.12.02Z"/>
              <path class="cls-2" d="m60.64,147.02c-.06,0-.11-.01-.17-.03-.22-.09-.33-.35-.23-.57.02-.05.21-.47.62-.76.2-.14.47-.1.61.1.14.2.1.47-.1.61-.21.15-.32.39-.32.39-.07.17-.23.27-.4.27Z"/>
              <path class="cls-3" d="m52.69,155.38s1.87-.46,3.34-1.23c1.39-.72,2.91-2.64,2.91-2.64,0,0-1.4,3.13-2.89,4.2-1.41,1.02-3.11.84-3.11.84l-.24-1.17Z"/>
              <path class="cls-2" d="m62.41,156.7c-.1,0-.21-.04-.29-.11-1-.92-1.26-7.07-1.26-7.13,0-.24.19-.44.43-.44.24,0,.44.19.44.43,0,1.09.46,5.99.98,6.49.17.17.18.44.02.62-.09.09-.2.14-.32.14Z"/>
              <path class="cls-2" d="m52.48,159.13c-.12,0-.24-.05-.33-.15-.16-.18-.14-.46.04-.62.51-.45.3-1.84.18-2.66l-.02-.13c-.04-.24.13-.46.37-.5.24-.04.46.13.5.37l.02.13c.17,1.13.4,2.68-.46,3.45-.08.07-.19.11-.29.11Z"/>
              <path class="cls-2" d="m50.43,149.72c-.11,0-.22-.04-.31-.12-.97-.95-.61-1.49-.2-1.92.16-.16.29-.3.32-.51.11-.79-.22-1.56-.52-2.08-.12-.21-.05-.48.16-.6.21-.12.48-.05.6.16.53.91.75,1.83.63,2.65-.08.49-.35.77-.56.98-.07.07-.17.17-.18.21,0,0,.01.13.36.47.17.17.18.45,0,.62-.09.09-.2.13-.31.13Z"/>
              <path class="cls-2" d="m54.09,143.06c-.08,0-.16-.02-.23-.07-.04-.02-.8-.47-1.82,0-.22.1-.48,0-.58-.21s0-.48.21-.58c1.47-.68,2.61.02,2.66.05.2.13.27.4.14.6-.08.13-.23.2-.37.2Z"/>
              <path class="cls-2" d="m46.77,143.41c-.13,0-.25-.06-.34-.16-.15-.19-.12-.46.06-.61.04-.03.93-.75,2.23-.28.23.08.34.33.26.56-.08.23-.33.34-.56.26-.82-.3-1.36.11-1.38.13-.08.06-.18.09-.27.09Z"/>
              <g>
                <path class="cls-5" d="m51.53,150.6c1.05-.11,2.08-.43,2.08-.43,0,0-.24,2.09-1.75,2.35-1.67.28-2.36-1.91-2.36-1.91,0,0,.98.11,2.03,0Z"/>
                <path class="cls-2" d="m51.58,152.98c-1.4,0-2.24-1.43-2.5-2.24-.04-.14-.01-.29.08-.41.09-.11.24-.17.39-.16,0,0,.95.1,1.93,0,.99-.1,1.99-.41,2-.41.14-.04.3-.01.41.08.11.09.17.24.15.39-.01.1-.3,2.41-2.1,2.73-.12.02-.24.03-.36.03Zm-1.38-1.9c.29.51.82,1.13,1.59,1,.68-.12,1.04-.78,1.22-1.31-.4.09-.91.2-1.44.25-.51.05-1,.06-1.38.05Z"/>
              </g>
              <path class="cls-2" d="m58.61,144.93c-1.76,0-3.49-1.65-4.48-3.44-.23-.41-.43-.79-.62-1.14-.5-.95-.94-1.77-1.33-1.85-.18-.04-.43.07-.75.31-.19.15-.47.11-.61-.08-.15-.19-.11-.47.08-.61.54-.42,1.02-.57,1.47-.47.79.17,1.24,1.02,1.92,2.3.18.35.38.72.61,1.13,1,1.81,2.8,3.47,4.39,2.86.23-.09.48.03.57.25.09.23-.03.48-.25.57-.33.13-.66.18-.99.18Z"/>
              <path class="cls-2" d="m49.47,134.96c-.12,0-.25-.05-.33-.16-.16-.18-.13-.46.05-.62,1.84-1.56,8.07-3.52,10.32-1.11.16.18.16.45-.02.62-.18.16-.45.15-.62-.02-1.79-1.91-7.52-.17-9.12,1.18-.08.07-.18.1-.28.1Z"/>
              <path class="cls-2" d="m44.71,147.47c-.17,0-.34-.1-.41-.28-.97-2.46-.26-7.53.7-9.75.62-1.48,1.3-2.3,2.12-2.58.65-.22,1.36-.1,2.17.36.21.12.28.39.16.6-.12.21-.39.28-.6.16-.58-.33-1.06-.43-1.46-.29-.56.19-1.08.88-1.59,2.1-.88,2.04-1.57,6.86-.69,9.09.09.22-.02.48-.25.57-.05.02-.11.03-.16.03Z"/>
              <path class="cls-2" d="m47.1,154.96c-.11,0-.22-.04-.3-.12-.17-.17-.18-.44-.01-.62.8-.83.4-1.37-.52-2.42-.55-.63-1.18-1.34-1.35-2.23-.4-1.95.66-4.28,1.36-5.83.11-.24.21-.46.29-.65.42-1.04.71-2.06,1.02-3.13.11-.37.21-.75.33-1.13.09-.31.46-1.36,1.3-1.61.32-.1.82-.11,1.41.39.19.16.21.43.05.62-.16.19-.43.21-.62.05-.23-.19-.43-.27-.59-.22-.27.08-.55.49-.71,1.03-.11.38-.22.76-.33,1.13-.31,1.1-.61,2.14-1.05,3.23-.08.2-.19.42-.3.68-.61,1.36-1.64,3.62-1.3,5.3.13.66.65,1.25,1.15,1.83.84.96,1.89,2.15.5,3.6-.09.09-.2.13-.32.13Z"/>
              <path class="cls-3" d="m48.05,145.8c-.07-.42.16-.81.45-.83.29-.06.61.26.68.67.07.42-.16.81-.45.83-.29.06-.61-.26-.68-.67Z"/>
              <path class="cls-3" d="m52.84,145.45c-.03-.42.2-.82.54-.84.34-.02.65.3.68.72.03.42-.2.82-.54.84-.34.02-.61-.3-.68-.72Z"/>
            </g>
            <path class="cls-2" d="m56.05,191.8c-3.27,0-5.89-.86-7.28-2.5-.05.02-.1.04-.16.03-.23,0-.42-.18-.44-.41l-.06-.89c-.21-3.19-.38-5.72-1.48-8.87-.14-.4-.29-.79-.44-1.18-.29-.76-.59-1.54-.8-2.35-.45-1.72-.48-3.81-.52-5.84-.01-.72-.03-1.46-.06-2.17-.01-.24.18-.45.42-.46.24,0,.45.18.46.42.03.72.04,1.47.06,2.19.03,1.97.07,4.01.49,5.63.2.76.49,1.52.77,2.26.15.39.31.8.45,1.21,1.13,3.26,1.3,5.84,1.52,9.09v.13s.03.03.04.05c1.61,2.82,7.1,3.57,13.35,1.83,1.95-.54,4.52-1.8,5.46-3.59-.1-.43-.34-1.66-.23-2.95.25-3.15,1.12-6.8,1.96-10.32.57-2.39,1.11-4.65,1.45-6.71.04-.24.26-.4.5-.36.24.04.4.26.36.5-.35,2.08-.89,4.36-1.46,6.77-.83,3.49-1.69,7.11-1.94,10.19-.11,1.42.24,2.81.25,2.82.03.1.02.21-.03.3-1.01,2.13-3.8,3.56-6.08,4.2-2.35.65-4.58.97-6.56.97Z"/>
            <path class="cls-2" d="m59.29,266.77c-.18,0-.34-.11-.41-.28-3.8-10.17-6.85-20.31-8.15-27.13-.05-.24.11-.47.35-.51.24-.04.47.11.51.35,1.3,6.78,4.33,16.87,8.11,26.99.08.23-.03.48-.26.56-.05.02-.1.03-.15.03Z"/>
            <path class="cls-2" d="m64.1,265.56c-.21,0-.4-.16-.43-.38-.25-1.77-.45-4.39-.64-6.92-.19-2.52-.39-5.13-.63-6.86-.17-1.19-.28-2.36-.38-3.49-.28-2.92-.54-5.67-1.71-8.42l-.07-.16c-.15-.34-.3-.7-.41-1.08-.1-.35-.14-1.02-.18-1.55-.01-.17-.02-.32-.03-.43-.02-.24.15-.45.39-.48.24-.02.45.15.48.39.01.12.02.27.03.45.03.44.08,1.11.15,1.38.09.32.22.63.36.96l.07.16c1.23,2.87,1.49,5.7,1.77,8.68.11,1.12.22,2.28.38,3.45.25,1.77.45,4.39.64,6.92.19,2.52.39,5.13.63,6.86.03.24-.13.46-.37.49-.02,0-.04,0-.06,0Z"/>
            <path class="cls-2" d="m52.09,239.81c-.35,0-.69-.04-1.03-.11-4.98-1.14-8.07-5.49-7.98-6.2.15-1.25.43-3.02.75-5.08.71-4.58,1.6-10.27,1.52-13.06l-.15-.87s0-.03,0-.04c-.76-9.12.23-17.59,2.93-25.18.08-.23.33-.35.56-.27.23.08.35.33.27.56-2.65,7.47-3.62,15.81-2.88,24.8l.16.88s0,.04,0,.06c.09,2.86-.81,8.62-1.53,13.25-.31,2.01-.59,3.76-.73,4.98.26.69,2.9,4.31,7.3,5.31,1.8.41,3.82-.65,5.78-1.68,2.28-1.2,4.64-2.43,6.85-1.49,4.62,1.97,7.8-1.51,10.61-4.58.68-.74,1.32-1.44,1.93-2.01.18-.16.36-.33.54-.5,2.16-2,4.79-4.43,7.56-5.04-2.62-3.11-6.7-11.26-8.01-14.41-.42-1-.75-2.04-1.07-3.05-.1-.31-.25-.81-.43-1.45-1.08-3.66-3.6-12.23-6.46-16.87-.13-.21-.06-.48.14-.6.21-.13.48-.06.6.14,2.92,4.74,5.47,13.39,6.56,17.08.19.63.33,1.12.43,1.43.31.99.64,2.01,1.04,2.98,1.35,3.24,5.95,12.41,8.38,14.74.12.12.17.3.11.46-.06.16-.21.28-.38.29-2.77.2-5.61,2.82-7.89,4.93-.19.17-.37.34-.54.5-.59.54-1.22,1.23-1.88,1.95-2.85,3.12-6.4,7.01-11.6,4.8-1.82-.77-3.9.31-6.1,1.46-1.76.92-3.57,1.87-5.35,1.87Z"/>
            <path class="cls-2" d="m125.45,215.34s-.06,0-.1-.01c-.24-.05-.38-.29-.33-.52,1.36-5.97,1.99-14.2,2.2-17.46.33-5.07.5-8.94.3-11.36-.02-.24.16-.45.4-.47.24-.02.45.16.47.4.21,2.47.03,6.38-.29,11.49-.21,3.28-.85,11.57-2.22,17.6-.05.2-.23.34-.43.34Z"/>
            <path class="cls-2" d="m108.22,214.25c-.2,0-.38-.14-.43-.34-1.13-4.95-1.93-9.02-2.64-12.61-.79-4-1.47-7.45-2.4-11.17-.06-.23.08-.47.32-.53.24-.06.47.08.53.32.94,3.74,1.62,7.2,2.41,11.21.71,3.59,1.51,7.65,2.64,12.59.05.24-.09.47-.33.52-.03,0-.07.01-.1.01Z"/>
            <path class="cls-2" d="m130.74,184.81c-.18,0-.35-.11-.41-.3-1.96-5.73-4.22-15.43-4.95-21.17-.03-.24.14-.46.38-.49.24-.03.46.14.49.38.72,5.69,2.97,15.3,4.91,20.99.08.23-.04.48-.27.56-.05.02-.09.02-.14.02Z"/>
            <path class="cls-2" d="m111.02,191.15c-1.19,0-2.39-.1-3.57-.33-.78-.16-1.53-.32-2.28-.48-.64-.14-1.29-.28-1.94-.41-.65-.13-1.12-.68-1.16-1.34-.15-2.53.08-5.05.69-7.51.06-.23.29-.38.53-.32.23.06.38.29.32.53-.58,2.37-.81,4.81-.66,7.25.02.26.21.48.46.54.66.13,1.31.27,1.96.41.74.16,1.49.32,2.26.48,3.54.71,7.28.09,10.5-.54,3.57-.7,7.26-1.43,9.71-4.16.09-.1.11-.24.05-.36-.66-1.34-2.36-7.23-2.83-9.44-.05-.24.1-.47.34-.52.24-.05.47.1.52.34.45,2.12,2.13,7.97,2.76,9.24.22.44.15.96-.18,1.33-2.64,2.95-6.65,3.74-10.19,4.44-2.25.44-4.74.88-7.27.88Z"/>
            <path class="cls-2" d="m112.88,235.95c-.22,0-.41-.16-.43-.39-.05-.38-.06-.78-.08-1.17-.03-.68-.05-1.38-.25-1.97-.08-.23.05-.48.28-.55.23-.08.48.05.55.28.24.71.27,1.48.3,2.22.01.39.03.75.07,1.1.03.24-.14.46-.38.49-.02,0-.04,0-.05,0Z"/>
            <path class="cls-2" d="m117.29,240.82s-.07,0-.11-.01c-.23-.06-.38-.3-.32-.53.19-.73.2-1.12.25-1.97,0-.17.02-.35.03-.55.01-.24.21-.42.46-.41.24.01.43.22.41.46-.01.2-.02.38-.03.55-.04.89-.06,1.33-.27,2.14-.05.2-.23.33-.42.33Z"/>
            <path class="cls-2" d="m116.55,215.34s-.03,0-.05,0c-.24-.03-.41-.25-.38-.49.2-1.65.21-8.01.21-8.07,0-.24.2-.44.44-.44.24,0,.44.2.44.44,0,.26-.02,6.47-.22,8.18-.03.22-.22.39-.43.39Z"/>
            <path class="cls-2" d="m79.99,142.44c-.18,0-.34-.11-.41-.29-.75-2.01-3.14-2.28-4.56-1.98-.4.09-.82.2-1.22.31-1.18.32-2.39.65-3.65.47-1.85-.25-3.32-1.52-4.52-2.72-.17-.17-.34-.34-.51-.51-.99-1.01-2.01-2.05-3.26-2.63-.22-.1-.32-.36-.22-.58.1-.22.36-.32.58-.22,1.4.64,2.48,1.75,3.52,2.81.17.17.33.34.5.51,1.1,1.1,2.43,2.26,4.02,2.47,1.08.15,2.16-.14,3.3-.45.41-.11.84-.23,1.27-.32,1.48-.32,4.55-.21,5.57,2.52.08.23-.03.48-.26.56-.05.02-.1.03-.15.03Z"/>
            <path class="cls-2" d="m83.71,145.49c-.77,0-1.48-.18-2.07-.53-.34-.2-.63-.45-.92-.69-.26-.22-.51-.42-.78-.59-.67-.42-1.5-.6-2.28-.51-.54.07-1.07.26-1.63.46-.72.26-1.46.53-2.27.53-.25,0-.44-.2-.44-.44,0-.24.2-.44.44-.44.66,0,1.3-.23,1.98-.47.58-.21,1.18-.42,1.82-.5.99-.12,2,.11,2.85.64.32.2.6.43.87.65.27.23.53.44.82.61,1,.6,2.49.54,4-.19.22-.1.48-.01.58.21.1.22.01.48-.21.58-.94.45-1.9.68-2.77.68Z"/>
            <path class="cls-2" d="m77.52,155.89c-1.9,0-4.43-.42-5.34-1-.2-.13-.26-.4-.13-.6.13-.2.4-.26.6-.13,1.02.65,5.2,1.11,6.4.7,1.24-.43,2.32-1.23,3.4-2.08l.04-.03c.63-.49,1.28-1,2.09-1.26,1-.32,2.03-.12,2.65.52.17.17.16.45-.01.62-.17.17-.45.16-.62-.01-.43-.45-1.19-.47-1.75-.29-.66.21-1.25.67-1.82,1.12l-.04.03c-1.15.9-2.29,1.74-3.66,2.21-.42.14-1.07.21-1.83.21Z"/>
            <path class="cls-2" d="m86.79,151.58c-.08,0-.16-.02-.24-.07-.58-.38-1.19-.77-1.84-.92-.8-.18-1.67,0-2.48.24-.14.04-.28.08-.43.12-.75.22-1.53.45-2.35.47-1.19.03-2.23-.43-2.78-1.23-.14-.2-.08-.47.11-.61.2-.14.47-.09.61.11.45.66,1.34.87,2.03.85.7-.02,1.39-.22,2.12-.44.14-.04.29-.09.43-.13.92-.26,1.92-.47,2.91-.25.81.18,1.51.64,2.13,1.04.2.13.26.4.13.61-.08.13-.22.2-.37.2Z"/>
            <path class="cls-2" d="m83.6,149.79c-.3,0-.6-.04-.89-.11-.23-.06-.38-.3-.32-.53.06-.23.3-.38.53-.32,1.12.29,2.42-.19,3.08-1.14.14-.2.41-.24.61-.11.2.14.24.41.11.61-.71,1-1.91,1.59-3.12,1.59Z"/>
            <path class="cls-2" d="m83.18,147.63c-.18,0-.36-.01-.54-.04-.24-.03-.41-.25-.37-.49.03-.24.25-.41.49-.37,1.02.14,2.09-.24,2.8-.99.17-.18.44-.18.62-.02.18.17.18.44.02.62-.77.82-1.9,1.29-3.02,1.29Z"/>
            <path class="cls-2" d="m55.77,166.96c-.21,0-.43,0-.64-.02-.39,0-2.45-.05-3.94-1.64-1.23-1.31-1.75-3.28-1.55-5.86.08-.97.28-1.9.48-2.8.12-.52.23-1.02.31-1.5.04-.24.26-.4.5-.36.24.04.4.26.36.5-.08.51-.2,1.01-.31,1.55-.19.87-.39,1.77-.46,2.68-.18,2.32.26,4.07,1.32,5.19,1.24,1.33,2.97,1.37,3.31,1.36,0,0,.03,0,.04,0,4.63.23,8.08-2.21,8.8-6.2.48-2.65.78-4.69.91-6.08.02-.24.23-.42.48-.4.24.02.42.23.4.48-.13,1.41-.44,3.48-.92,6.15-.77,4.26-4.29,6.93-9.06,6.93Z"/>
            <path class="cls-2" d="m70.73,170.5c-.08,0-.16-.02-.24-.07-2.62-1.7-3.88-4.14-3.85-7.46.03-2.47.29-4.76.58-7.18.09-.74.17-1.48.25-2.23.03-.24.24-.41.48-.39.24.03.41.24.39.48-.08.76-.17,1.5-.25,2.24-.28,2.4-.55,4.67-.57,7.09-.03,3,1.1,5.2,3.45,6.72.2.13.26.4.13.61-.08.13-.22.2-.37.2Z"/>
            <path class="cls-2" d="m76.72,229.84c-.16,0-.31-.09-.39-.24-.11-.21-.03-.48.19-.59.81-.42,1.86-.66,2.88-.89.55-.12,1.06-.24,1.5-.38,1.6-.5,3.69-2.18,4.05-3.27.1-.31.02-.43-.01-.47-.14-.2-.1-.47.1-.61.2-.14.47-.1.61.1.17.24.33.65.13,1.25-.49,1.48-2.93,3.3-4.62,3.83-.47.15-1.01.27-1.57.4-.96.22-1.96.44-2.67.81-.06.03-.13.05-.2.05Z"/>
            <path class="cls-2" d="m49.8,232.86c-.22,0-.41-.17-.43-.39-.16-1.49-1.7-7.67-2.82-12.19-.58-2.31-1.03-4.14-1.19-4.88-.05-.24.1-.47.34-.52.24-.05.47.1.52.34.16.73.63,2.64,1.18,4.85,1.19,4.8,2.68,10.76,2.84,12.31.03.24-.15.46-.39.48-.02,0-.03,0-.05,0Z"/>
            <path class="cls-2" d="m71.44,243.69c-.12,0-.23-.05-.32-.14-.75-.79-5.2-3-6.85-3.79-1.8-.99-2.47-1.9-2.89-3.88-.05-.24.1-.47.34-.52.24-.05.47.1.52.34.37,1.74.87,2.42,2.43,3.28.6.28,6.08,2.92,7.08,3.96.17.17.16.45-.01.62-.08.08-.19.12-.3.12Z"/>
            <path class="cls-2" d="m74.6,239c-.08,0-.15-.02-.22-.06-.72-.43-1.25-1.17-1.82-1.96-.43-.6-.88-1.22-1.45-1.78-.17-.17-.17-.45,0-.62.17-.17.45-.17.62,0,.62.61,1.11,1.29,1.54,1.89.54.74,1,1.39,1.56,1.72.21.12.27.39.15.6-.08.14-.23.21-.38.21Z"/>
            <path class="cls-2" d="m71.65,243.63c-.15,0-.3-.08-.38-.22-.36-.62-.37-1.38-.05-1.99.35-.65,1.09-1.04,1.79-.95.78.1,1.51,1.05,1.55,1.77.01.24-.17.45-.41.46-.24.01-.45-.17-.46-.41-.02-.36-.47-.91-.78-.95-.35-.04-.74.17-.92.5-.18.34-.16.78.04,1.14.12.21.05.48-.16.6-.07.04-.14.06-.22.06Z"/>
            <path class="cls-2" d="m74.12,242.25c-.11,0-.23-.04-.31-.13-.17-.17-.16-.45,0-.62.04-.04.08-.2.1-.29.02-.08.04-.15.06-.22.03-.08.05-.16.06-.24v-.06c.44-1.84.27-2.36.13-2.51-.17-.18-.16-.45.02-.62.18-.17.45-.16.62.02.62.66.4,2.04.1,3.31v.05c-.04.11-.07.22-.1.33-.02.05-.03.11-.05.16-.06.22-.13.5-.34.7-.09.08-.19.12-.3.12Z"/>
            <path class="cls-2" d="m71.34,243.7c-.34,0-.67-.14-.89-.4-.16-.18-.15-.46.03-.62.18-.16.46-.15.62.03.07.08.18.11.28.1.24-.03.46.13.5.37.03.24-.13.46-.37.5-.05,0-.11.01-.16.01Z"/>
            <path class="cls-2" d="m59.78,230.84c-.19,0-.36-.12-.42-.31-1.33-4.4-1.99-8.97-1.96-13.57,0-.24.2-.43.44-.43.24,0,.44.2.43.44-.03,4.51.61,8.99,1.92,13.31.07.23-.06.48-.29.55-.04.01-.09.02-.13.02Z"/>
            <path class="cls-2" d="m121.03,218.89c-.23,0-.42-.18-.44-.41-.02-.24.16-.45.4-.47,1.98-.14,3.63-1.46,4.03-3.21.05-.24.28-.38.52-.33.24.05.38.29.33.52-.48,2.12-2.46,3.72-4.82,3.89-.01,0-.02,0-.03,0Z"/>
            <path class="cls-2" d="m127.98,169.33c-.17,0-.33-.1-.4-.26-.1-.22,0-.48.22-.58,1.12-.49,2.36-.95,3.84-.95.24,0,.44.2.44.44s-.2.44-.44.44c-1.38,0-2.53.45-3.49.87-.06.03-.12.04-.18.04Z"/>
            <g>
              <path class="cls-2" d="m13.36,180.71c-.83,0-1.66-.09-2.47-.26-1.33-.29-2.18-.48-2.52-.56-.64-.15-1.25-.28-1.79-.39-1.58-.32-2.28-.49-2.55-.9-.09-.15-.12-.32-.09-.49.27-1.18,2.31-.96,3.66-.81.22.02.41.05.55.05-.45-.33-1.75-.9-2.58-1.2-1.15-.41-1.62-.49-2.57-.65-.23-.04-.48-.08-.77-.13-1.1-.2-1.73-.47-2-.87-.13-.19-.17-.4-.13-.61.16-.78,1.28-.71,2.99-.6.19.01.39.02.59.03,1.59.09,2.82.43,4.88,1.38.22.1.32.36.22.58-.1.22-.36.32-.58.22-1.95-.89-3.1-1.22-4.56-1.3-.2-.01-.4-.02-.59-.03-.66-.04-1.51-.09-1.93-.04.17.1.53.25,1.26.38.31.05.55.1.78.14.96.16,1.49.25,2.72.69.03,0,2.52.91,3.07,1.56.23.27.29.59.16.87-.14.3-.49.49-.89.48-.16,0-.4-.03-.69-.06-1.72-.19-2.37-.1-2.6.02.36.15,1.17.31,1.85.45.55.11,1.17.24,1.82.4.33.08,1.19.27,2.5.55,1.11.24,2.25.3,3.38.19,9.06-.91,17.7-4.25,24.99-9.66.16-.12.32-.24.48-.36,1.34-1.01,2.73-2.05,4.39-2.51.23-.06.47.07.54.3.07.23-.07.47-.3.54-1.5.42-2.82,1.41-4.1,2.37-.16.12-.32.24-.48.36-7.42,5.5-16.21,8.9-25.42,9.83-.4.04-.79.06-1.19.06Z"/>
              <path class="cls-2" d="m13.89,176.73c-1.17,0-2.37-.56-3.64-1.16-.77-.36-1.56-.73-2.4-1.01-1.62-.54-2.29-.57-3.48-.37-.24.04-.46-.12-.5-.36-.04-.24.12-.46.36-.5,1.32-.21,2.11-.18,3.89.41.89.29,1.7.67,2.49,1.04,1.33.62,2.48,1.16,3.51,1.06.79-.31,9.97-3.85,13.97-5.23.52-.18,1.06-.36,1.5-.68.23-.17,2.01-2,3.89-3.92,4.97-5.09,9.16-9.35,10.06-9.83,2.14-1.14,3.59-1.21,5.42-1.29.66-.03,1.34-.06,2.13-.14.24-.03.46.15.48.39.02.24-.15.46-.39.48-.82.08-1.54.12-2.18.14-1.79.08-3.08.14-5.05,1.19-.86.46-6.49,6.22-9.85,9.67-2.45,2.51-3.74,3.83-4.01,4.02-.55.4-1.18.61-1.73.8-4.15,1.43-13.9,5.2-14,5.24-.03.01-.07.02-.11.03-.13.02-.26.02-.39.02Z"/>
              <path class="cls-2" d="m1,176.47c-.08,0-.15,0-.21-.02-.63-.13-.76-.48-.78-.68-.05-.47.39-.91,1.34-1.34.22-.1.48,0,.58.22.1.22,0,.48-.22.58-.34.15-.54.28-.67.37.44,0,1.85-.47,2.33-.7.22-.1.48-.01.58.21.1.22.01.48-.21.58-.18.09-1.9.78-2.75.78Z"/>
              <path class="cls-2" d="m2.42,177.45c-.28,0-.53-.08-.7-.27-.33-.36-.24-.91.28-1.61.14-.2.41-.24.61-.1.2.14.24.41.1.61-.18.25-.25.41-.28.5.14,0,.41-.06.67-.21.61-.36,1.71-1.11,1.72-1.12.2-.14.47-.09.61.11.14.2.09.47-.11.61-.05.03-1.14.79-1.78,1.16-.33.19-.74.33-1.11.33Z"/>
              <path class="cls-2" d="m4.19,177.57c-.36,0-.71-.13-1.02-.49-.16-.18-.14-.46.05-.62.18-.16.46-.14.62.05.31.36.73.18,1.64-.37.26-.16.51-.31.75-.42.22-.09.48,0,.57.23.1.22,0,.48-.23.57-.18.08-.4.21-.63.36-.48.3-1.12.69-1.74.69Z"/>
            </g>
            <path class="cls-2" d="m45.32,168.6s-.01,0-.02,0c-.24-.01-.43-.21-.42-.46.19-4.31,1.47-8.67,2.23-11.28.18-.63.34-1.17.46-1.6.06-.23.3-.37.53-.31.23.06.37.3.31.53-.12.44-.28.99-.46,1.63-.8,2.74-2.02,6.87-2.2,11.07-.01.24-.2.42-.44.42Z"/>
            <path class="cls-2" d="m118.22,216.85c-.2,0-.39-.14-.43-.35-1.13-5.61-2.25-15.7-2.35-21.16,0-.24.19-.44.43-.45.24,0,.44.19.45.43.09,5.42,1.2,15.43,2.33,21,.05.24-.11.47-.34.52-.03,0-.06,0-.09,0Z"/>
            <path class="cls-2" d="m117.43,218.13c-.22,0-.41-.17-.43-.39-.09-.78-.26-1.58-.41-2.29-.15-.72-.27-1.28-.27-1.66,0-.24.2-.44.44-.44.24,0,.44.2.44.44,0,.28.12.86.25,1.47.15.73.33,1.56.42,2.38.03.24-.15.46-.39.48-.02,0-.03,0-.05,0Z"/>
            <path class="cls-8" d="m113.21,234.52c.92-.41,2.13-.04,2.65.83.3-.22.61-.44.91-.67.08-.06.15-.11.2-.2.05-.09.04-.2.03-.3-.06-1.03-.12-2.05-.18-3.08-1.07.69-2.31.61-3.41,1.11-1.05.47-.05,2.23-.2,2.3Z"/>
            <g>
              <path class="cls-15" d="m116.33,242.64c.17-1.07,1.11-2.17,1.47-2.91.35-.69.05-1.46-.27-2.24l-.02.02c-.08-.34-.19-.78-.3-1.37-.24-1.28.24-1.83-.32-1.96h-.18c-.12.1-.21.24-.29.34-.13.18-.25.38-.44.52-.21.15-.44.14-.67.02-.14-.07-.26-.17-.38-.26-.1-.08-.21-.19-.34-.24-.17-.08-.38-.11-.57-.15-.19-.02-.37,0-.52.06l-.56.05c-.51.3-.42.44-.33.94l-.1.28c.05.24.03.57.03.64,0,.51-.03,1.01-.09,1.52-.02.16-.03.32-.07.48-.1.44-.28.87-.49,1.27-.4.79-.91,1.54-1.31,2.33-.15.29-.29.58-.48.84-.02.03-.04.05-.06.08l-.16.46s.06-.08.09-.12c-.21.32-.37.58-.45.81-1.08,1.83.9,2.72,1.9,2.9,1.29.23,4.24-.34,4.6-1.17.36-.83.16-2.38.28-3.13Z"/>
              <g>
                <path class="cls-2" d="m112.17,246.77c-.2,0-.38-.01-.51-.04-1.12-.21-2.72-1.15-2.61-2.48.04-.45.35-.91.81-1.6.46-.69,1.09-1.63,1.67-2.91.14-.32.54-1.83.67-2.88.1-.77.02-1.18-.03-1.48-.09-.5-.1-.86.57-1.25.21-.12.48-.05.6.15.12.21.05.48-.15.6-.11.07-.16.11-.18.13,0,.05.02.14.03.21.06.32.15.85.04,1.75-.14,1.14-.55,2.71-.74,3.13-.61,1.35-1.26,2.33-1.74,3.04-.35.52-.65.96-.67,1.19-.06.65.97,1.37,1.9,1.54,1,.19,3.53-.47,3.76-.98.18-.4.37-1.73.48-2.53.03-.24.06-.45.09-.61.04-.24.26-.4.5-.36.24.04.4.26.36.5-.02.15-.05.36-.09.59-.18,1.23-.34,2.28-.55,2.76-.43.98-2.9,1.53-4.21,1.53Z"/>
                <path class="cls-2" d="m112.11,247.42c-.28,0-.53-.02-.74-.05-.68-.12-1.96-.58-2.41-1.57-.19-.42-.31-1.1.22-1.99.12-.21.39-.28.6-.15.21.12.28.39.15.6-.27.46-.33.84-.17,1.18.28.61,1.21.98,1.76,1.08,1.33.23,3.91-.42,4.12-.91.19-.45.2-1.25.2-1.89,0-.42,0-.82.05-1.13.13-.83.65-1.64,1.07-2.3.17-.27.34-.53.44-.74.25-.5.04-1.09-.28-1.88-.09-.22.02-.48.24-.57.23-.09.48.02.57.24.31.76.69,1.71.25,2.6-.12.25-.3.53-.49.82-.39.61-.84,1.31-.94,1.96-.04.24-.04.6-.04.99,0,.76,0,1.63-.27,2.24-.41.96-2.8,1.48-4.34,1.48Z"/>
                <path class="cls-2" d="m116.22,244.42c-.16,0-.32-.09-.39-.25-.24-.49-.74-.63-1.23-.78-.42-.12-.82-.24-1-.6-.11-.21-.11-.45-.02-.72.84-2.39,1.07-5.49,1.11-6.08.04-.71.5-.98.86-1.2.29-.17.59-.35.85-.77.13-.2.4-.26.6-.13.2.13.26.4.13.6-.38.59-.82.86-1.14,1.05-.36.21-.42.27-.44.5-.04.62-.27,3.82-1.15,6.32,0,.01,0,.02,0,.03.09.05.3.11.45.16.54.16,1.36.4,1.77,1.23.11.22.02.48-.2.59-.06.03-.13.04-.19.04Z"/>
                <path class="cls-2" d="m109.91,243.78c-.09,0-.18-.03-.25-.08-.2-.14-.25-.41-.11-.61.54-.77,1.09-.89,1.46-.97q.26-.06.3-.19c.28-.9,1.17-4.24,1.45-5.72.06-.31.07-.46.07-.53-.17-.12-.34-.3-.44-.69-.06-.23.08-.47.32-.53.23-.06.47.08.53.32.04.16.07.18.11.21.41.27.41.63.27,1.39-.29,1.53-1.18,4.87-1.47,5.81-.19.63-.65.72-.95.79-.3.06-.58.12-.93.62-.09.12-.22.19-.36.19Z"/>
                <path class="cls-2" d="m115.5,235.71c-.15,0-.3-.08-.38-.22-.22-.38-.97-.75-1.37-.66-.09.02-.19.06-.21.29-.02.24-.24.42-.48.4-.24-.02-.42-.23-.4-.47.05-.57.38-.96.9-1.07.77-.16,1.92.37,2.32,1.09.12.21.04.48-.17.6-.07.04-.14.06-.21.06Z"/>
                <path class="cls-2" d="m115.17,237.32c-.11,0-.23-.04-.31-.13-.24-.24-1.03-.31-1.52-.2-.24.05-.47-.1-.52-.33s.1-.47.33-.52c.6-.13,1.77-.13,2.33.44.17.17.17.45,0,.62-.09.08-.2.13-.31.13Z"/>
                <path class="cls-2" d="m115.06,238.57c-.11,0-.23-.04-.31-.13-.2-.21-1.25-.31-1.84-.18-.23.05-.47-.1-.52-.34-.05-.24.1-.47.34-.52.54-.12,2.08-.16,2.65.42.17.17.17.45,0,.62-.09.08-.2.13-.31.13Z"/>
                <path class="cls-2" d="m114.91,239.94c-.11,0-.23-.04-.31-.13-.21-.22-1.34-.35-1.91-.23-.23.05-.47-.1-.52-.34-.05-.24.1-.47.34-.52.51-.11,2.13-.13,2.72.47.17.17.17.45,0,.62-.09.08-.2.13-.31.13Z"/>
                <path class="cls-2" d="m114.68,241.22c-.11,0-.23-.04-.31-.13-.21-.22-1.34-.35-1.91-.23-.23.05-.47-.1-.52-.34-.05-.24.1-.47.34-.52.51-.11,2.13-.14,2.72.47.17.17.17.45,0,.62-.09.08-.2.13-.31.13Z"/>
                <path class="cls-2" d="m114.36,242.56c-.11,0-.23-.04-.31-.13-.21-.22-1.5-.38-2.06-.26-.24.05-.47-.1-.52-.34-.05-.24.1-.47.34-.52.6-.13,2.3-.08,2.87.5.17.17.17.45,0,.62-.09.08-.2.13-.31.13Z"/>
              </g>
            </g>
            <path class="cls-8" d="m117.37,239.52c-.05.39.18.75.41,1.06.1.14.2.28.35.34.2.08.44,0,.61-.15.17-.14.29-.33.44-.49.62-.67,1.72-.84,2.51-.38.16.09.33.21.51.17-.03-.73.06-1.46.25-2.16-.77.41-1.68.52-2.54.39-.43-.06-1.54-.67-1.9-.51-.32.14-.6,1.4-.64,1.73Z"/>
            <g>
              <path class="cls-2" d="m72.94,254.82c-.71,0-1.31-.25-1.78-.74-.8-.84-1.17-2.34-1.08-4.47.04-.97.08-1.8.11-2.55.07-1.57.13-2.8.14-4.06,0-.24.2-.43.44-.43.24,0,.44.2.44.44,0,1.28-.07,2.52-.14,4.1-.04.75-.07,1.58-.11,2.55-.08,1.85.21,3.17.83,3.82.3.31.68.47,1.15.47.81,0,1.61-.37,2.26-1.05.85-.88,1.33-2.14,1.28-3.37-.2-5.39-.55-8.77-1.08-10.34-.15-.44-.54-.86-.99-1.06-.21-.09-.41-.12-.53-.07-.22.1-.48,0-.58-.22-.1-.22,0-.48.22-.58.35-.16.79-.13,1.24.06.67.29,1.24.91,1.46,1.58.55,1.65.92,5.11,1.12,10.58.05,1.46-.52,2.96-1.53,4.01-.82.85-1.84,1.31-2.89,1.31Z"/>
              <path class="cls-2" d="m73.52,255.72c-1.17,0-1.98-.59-2.5-1.82-.09-.22.01-.48.23-.57.22-.09.48.01.57.23.47,1.12,1.09,1.28,1.69,1.28h.02c.74,0,1.66-.5,2.42-1.3.9-.95,1.38-2.13,1.33-3.23-.06-1.19-.1-2.26-.15-3.22-.28-6.42-.39-7.8-2.08-8.5-.22-.09-.33-.35-.24-.57.09-.22.35-.33.57-.24,2.26.94,2.34,2.87,2.62,9.27.04.96.09,2.03.15,3.21.07,1.34-.51,2.75-1.57,3.87-.93.98-2.07,1.57-3.05,1.58h-.02Z"/>
            </g>
            <path class="cls-2" d="m76.91,249.01c-.12,0-.25-.05-.33-.15-.15-.18-.42-.28-.87-.32h-.05c-.21-.03-.48-.05-.73-.19-.6-.35-.63-1.06-.65-1.58v-.09c-.04-.93-.19-1.82-.45-3.43-.06-.36-.12-.75-.19-1.18-.04-.24.13-.46.36-.5.24-.04.46.12.5.36.07.43.13.82.19,1.18.27,1.65.41,2.55.45,3.53v.09c.02.35.03.75.22.86.08.05.22.06.37.07h.05c.43.05,1.05.16,1.45.63.16.18.13.46-.05.62-.08.07-.18.1-.28.1Z"/>
            <path class="cls-2" d="m70.57,249.88s-.09,0-.14-.02c-.23-.07-.36-.32-.28-.55.16-.49.51-.93.95-1.2l.09-.05c.06-.03.13-.07.15-.1.06-.07.02-.32,0-.46-.08-.55-.07-1.4-.07-2.21,0-.73.01-1.48-.05-1.96-.03-.24.14-.46.38-.49.24-.03.46.14.49.38.06.53.06,1.28.05,2.07,0,.78-.01,1.59.06,2.08.05.31.12.78-.2,1.15-.12.14-.27.23-.39.29l-.07.04c-.27.16-.47.42-.57.72-.06.18-.23.3-.42.3Z"/>
            <path class="cls-2" d="m71.42,247.38c-.16,0-.31-.08-.38-.23-.12-.21-.04-.48.17-.59,1.25-.68,3.12-1.12,4.3-.14.18.16.21.43.05.62-.16.19-.43.21-.62.05-.78-.66-2.23-.36-3.32.23-.07.04-.14.05-.21.05Z"/>
            <path class="cls-2" d="m71.42,246.14c-.14,0-.28-.07-.36-.19-.14-.2-.08-.47.12-.61,1.02-.69,3.2-1.16,4.17-.29.18.16.19.44.03.62-.16.18-.44.19-.62.03-.55-.49-2.26-.2-3.09.36-.08.05-.16.08-.25.08Z"/>
            <path class="cls-2" d="m71.42,244.85c-.14,0-.28-.07-.36-.18-.12-.17-.1-.39.03-.55.06-.07.15-.12.24-.14.42-.16,2.65-.98,3.76-.68.23.06.37.3.31.54-.06.23-.3.37-.54.31-.65-.18-2.33.3-3.27.67-.05.02-.1.03-.16.03,0,0,0,0-.01,0Z"/>
            <g>
              <g>
                <path class="cls-8" d="m134.66,188.4c-.07-.73-.77-3.12-1.05-4.26-.4.14-.8.23-1.23.25-.51.03-1.01-.05-1.5-.16-.11,1-.65,2.31-.58,3.07.07.82.24,1.59.25,2.49.01.9-.09,1.62.35,1.71.44.09.62-.39.74-.77.21-.65.08-1.98.22-2.66.1-.48.46-.84.85-.32.4.52.5,1.22.47,2.02-.03.8-.07,1.44-.27,1.74-.17.28-.38.53-.58.79l.47-.89c-.59.92-1.38,1.09-1.76,1.34-.44.29-.72.7-.63,1.01.09.31.48.25,1.13,0l.07-.13c-.02.19,0,.41.17.56.29.29.71-.32,1.25-.85.54-.53,1.07-1.15,1.21-1.66.14-.51.48-2.5.4-3.28Z"/>
                <path class="cls-8" d="m131.95,191.25c-.41.3-.79.38-1.32.26-.22-.05-.72-.06-.83.27s.26.79,1.31.9l.84-1.43Z"/>
                <path class="cls-8" d="m130.56,191.26l-.09-.84s-.46-.16-.58.1c-.23.5.67.74.67.74Z"/>
              </g>
              <g>
                <path class="cls-2" d="m131.97,194.71c-.18,0-.34-.07-.47-.2-.35-.34-.4-.88-.15-1.45.19-.44.48-.8.75-1.15.17-.21.33-.41.46-.62.16-.26.19-1.15.2-1.53.03-.81-.1-1.36-.38-1.74,0-.01-.02-.02-.02-.03-.02.04-.04.1-.06.17-.05.26-.06.69-.07,1.09-.01.59-.02,1.19-.16,1.61-.11.34-.4,1.24-1.24,1.07-.72-.14-.71-.92-.71-1.68,0-.15,0-.3,0-.46,0-.54-.08-1.05-.14-1.53-.04-.3-.08-.61-.11-.92-.05-.51.08-1.05.21-1.62.1-.45.21-.92.23-1.36,0-.24.21-.43.45-.42.24,0,.43.21.42.45-.02.52-.13,1.03-.25,1.53-.12.5-.23.98-.19,1.35.03.3.06.58.11.88.07.51.14,1.04.15,1.64,0,.17,0,.33,0,.48,0,.27,0,.63.04.79.05-.05.11-.17.2-.46.1-.3.11-.86.12-1.36,0-.47.02-.91.09-1.25.1-.48.37-.82.73-.91.19-.04.55-.05.9.41.55.71.58,1.65.56,2.3-.03.95-.09,1.58-.33,1.96-.16.25-.34.48-.52.71-.25.31-.49.61-.64.95-.05.11-.08.23-.08.33.11-.1.25-.25.35-.36.1-.11.21-.23.33-.34.79-.78,1.03-1.23,1.09-1.46.15-.54.46-2.44.39-3.12-.05-.44-.37-1.56-.65-2.55-.18-.64-.36-1.25-.45-1.65-.05-.24.09-.47.33-.52.24-.05.47.09.52.33.09.38.26.97.44,1.6.31,1.07.63,2.19.68,2.71.09.88-.28,2.95-.41,3.44-.14.5-.57,1.11-1.32,1.86-.11.11-.21.22-.31.32-.38.4-.68.72-1.07.73,0,0-.01,0-.01,0Z"/>
                <path class="cls-2" d="m131.1,193.11s-.03,0-.05,0c-.76-.08-1.32-.34-1.57-.74-.15-.23-.19-.49-.1-.74.2-.6.92-.66,1.35-.56.42.1.68.04,1.01-.22.21-.17.68-1.06.98-1.78.09-.22.35-.33.57-.23.22.09.33.35.23.57-.17.4-.76,1.75-1.25,2.13-.55.44-1.08.55-1.76.39-.09-.02-.21-.02-.29,0,.08.09.32.25.91.32.24.03.41.24.39.48-.02.22-.21.39-.43.39Z"/>
                <path class="cls-2" d="m131.83,190.29c-.11,0-.22-.04-.31-.12-.17-.17-.18-.45,0-.62.21-.21.35-.6.5-1,.03-.08.06-.17.09-.26.08-.23.34-.34.56-.26.23.08.34.34.26.56l-.09.25c-.18.5-.35.97-.69,1.32-.09.09-.2.13-.31.13Z"/>
                <path class="cls-2" d="m130.56,191.69s-.08,0-.11-.02c-.12-.03-.74-.22-.96-.68-.1-.21-.1-.45,0-.67.2-.43.71-.47,1.12-.33.23.08.35.33.27.56-.04.13-.14.22-.26.26.01,0,.03,0,.04.01.23.06.37.3.31.54-.05.2-.23.32-.42.32Z"/>
                <path class="cls-2" d="m130.76,194.41c-.14,0-.27-.03-.38-.08-.18-.09-.3-.24-.37-.44-.15-.49.17-1.08.81-1.5.12-.08.26-.14.4-.21.47-.23,1.06-.51,1.47-1.46.1-.22.35-.32.58-.23.22.1.32.35.23.58-.54,1.25-1.39,1.66-1.9,1.9-.12.06-.23.11-.3.15-.22.14-.35.3-.41.4.1-.02.26-.07.52-.16.22-.08.48.03.56.25.09.23-.03.48-.25.56-.37.14-.69.24-.96.24Z"/>
              </g>
            </g>
            <g>
              <path class="cls-7" d="m119.36,134.67c.03.34-.47.84-.47.84,0,0,.1.72-.08,1.67-.19.95-.7,2.15-.7,2.15l-2.91.8-10.06-1.81s-1.63-1.44-1.45-2.12c.02-.14-.04-1.17.45-1.78.4-.49-.4-.97.33-1.28.74-.28,1.05-.97,1.65-1.61.88-.95,2.44-.93,2.44-.93,0,0,3.42-1.23,6.31-.43,1,.29,1.84.76,2.54,1.53.46.51.82,1.31,1.08,1.91.22.46.83.68.86,1.06Z"/>
              <path class="cls-6" d="m105.87,141.58s.06.97.08,1.59c.04.76.15,1.58.7,2.57.42.79,1.18,1.45,1.75,1.95.71.56.18.78.18.78,0,0,.29.5.45.93.37.65.81,1.25,1.39,1.72,1.44,1.19,3.49,1.2,5.17.54.79-.31,1.49-.8,2.14-1.34.33-.27.57-1.32.83-1.66.06-.09.12-.18.18-.27-.19-.21-.36-.41-.47-.62-.88-1.61-1.13-5.38-1.13-5.38,0,0,.89-.5,1.16-1.26.19-.54-.12-1.31-.26-1.64-.32-.77-2.17-.21-2.17-.21,0,0-1.2.15-2.01-.36-.37-.24-.68-.59-.68-.59,0,0-.89-.19-1.39-.73-.62-.67-1.35-2.13-1.93-2.45-.47-.23-.49-.44-1.08-.45-1.18,0-2.55.52-3.03,1.33-.6,1.03-.39,2.43-.39,2.43l.54,3.14Z"/>
              <path class="cls-2" d="m110.08,148.94c-.26,0-.5-.04-.71-.13-.72-.3-1.46-1.03-1.84-1.44-1.04-1.16-1.7-2.36-1.83-3.3-.11-.76-.14-1.23-.16-1.65-.02-.31-.03-.58-.08-.93-.05-.36-.14-.71-.23-1.08-.07-.26-.13-.52-.18-.79v-.05c-.29-1.59-.17-2.91.34-3.93.11-.22.37-.3.59-.2.22.11.3.37.2.59-.43.85-.52,1.99-.27,3.39v.04c.06.24.12.49.18.74.09.38.19.76.25,1.17.05.39.07.69.09,1,.02.42.05.85.16,1.57.1.77.71,1.82,1.61,2.83.55.59,1.12,1.05,1.53,1.22.65.27,2.36-.39,3.97-1.55.93-.66,1.16-1.07,1.62-1.89l.77.42c-.48.85-.79,1.41-1.87,2.18-.46.33-2.55,1.78-4.1,1.78Z"/>
              <path class="cls-2" d="m116.64,142.93c-.18,0-.35-.12-.42-.3-.08-.23.05-.48.28-.55.84-.28,1.27-.72,1.41-1.43.09-.46-.06-.91-.38-1.11-.3-.19-.7-.12-1.15.2-.2.14-.47.1-.61-.1-.14-.2-.1-.47.1-.61.74-.53,1.52-.62,2.13-.23.61.39.92,1.2.77,2.01-.21,1.03-.86,1.72-2,2.09-.05.02-.09.02-.14.02Z"/>
              <path class="cls-2" d="m116.83,141.31c-.05,0-.11-.01-.16-.03-.22-.09-.33-.34-.25-.56.02-.04.17-.41.51-.68.19-.15.47-.11.61.08.15.19.11.47-.08.61-.15.12-.23.3-.23.3-.07.17-.23.27-.41.27Z"/>
              <path class="cls-3" d="m110.51,148.45s1.52-.42,2.7-1.09c1.12-.63,2.32-2.23,2.32-2.23,0,0-.97,2.55-2.16,3.5-1.13.87-2.62.87-2.62.87l-.24-1.05Z"/>
              <path class="cls-2" d="m108.53,143.74c-.11,0-.21-.04-.3-.12-.83-.77-.6-1.26-.22-1.68.13-.14.21-.24.23-.38.07-.62-.22-1.23-.47-1.64-.13-.2-.07-.47.14-.6.2-.13.47-.07.6.14.47.75.67,1.51.59,2.21-.05.43-.29.69-.45.86-.04.04-.09.1-.11.13.02.04.08.14.27.31.18.16.19.44.03.62-.09.09-.2.14-.32.14Z"/>
              <path class="cls-2" d="m109.57,138.33c-.16,0-.32-.09-.39-.24-.11-.22-.02-.48.2-.59,1.3-.64,2.4-.16,2.44-.13.22.1.32.36.22.58-.1.22-.36.32-.58.22-.04-.02-.79-.33-1.7.12-.06.03-.13.05-.19.05Z"/>
              <path class="cls-2" d="m105.43,138.9c-.12,0-.24-.05-.33-.15-.16-.18-.14-.46.04-.62.03-.03.78-.67,1.9-.3.23.08.35.32.28.55-.08.23-.32.35-.55.28-.64-.21-1.04.12-1.05.12-.08.07-.19.11-.29.11Z"/>
              <path class="cls-3" d="m106.45,140.79c-.07-.34.11-.67.35-.69.24-.06.5.19.57.54.07.34-.11.67-.35.69-.24.06-.5-.19-.57-.54Z"/>
              <path class="cls-3" d="m110.3,140.39c-.03-.34.14-.67.42-.7.28-.03.54.23.57.57.03.34-.14.67-.42.7-.24.02-.51-.23-.57-.57Z"/>
              <path class="cls-2" d="m118.17,139.76c-.07,0-.14-.02-.21-.05-.21-.12-.29-.38-.17-.59.01-.02,1.04-1.94.69-3.66-.05-.24.1-.47.34-.52.24-.05.47.1.52.34.42,2.04-.73,4.16-.78,4.25-.08.15-.23.23-.38.23Z"/>
              <path class="cls-2" d="m119.63,135.01s-.04,0-.06,0c-1.01-.14-1.34-.9-1.65-1.64-.26-.62-.56-1.32-1.31-1.89-1.48-1.14-4.84-1.59-6.52-.49-.2.13-.47.08-.61-.13-.13-.2-.08-.47.13-.61,2.05-1.34,5.79-.81,7.53.53.94.7,1.3,1.56,1.59,2.24.31.72.46,1.05.96,1.12.24.03.41.25.37.49-.03.22-.22.38-.43.38Z"/>
              <path class="cls-2" d="m104.1,133.65c-.22,0-.41-.17-.44-.4-.02-.24.15-.45.39-.48.75-.07.85-.2,1.5-1.02l.05-.06c.73-.93,1.51-1.51,3.08-1.54.25,0,.44.19.45.43,0,.24-.19.44-.43.45-1.24.02-1.81.44-2.41,1.21l-.05.06c-.7.88-.98,1.24-2.11,1.35-.01,0-.03,0-.04,0Z"/>
              <path class="cls-2" d="m105.22,138.89c-.12,0-.25-.05-.33-.16-.13-.15-.26-.3-.39-.44-.96-1.06-2.15-2.38-.25-4.44.16-.18.44-.19.62-.03.18.16.19.44.03.62-1.36,1.47-.71,2.19.26,3.26.14.15.28.31.41.46.16.18.13.46-.05.62-.08.07-.18.1-.28.1Z"/>
              <path class="cls-2" d="m113.28,138.72c-.86,0-1.59-.42-2.13-1.26-.56-.88-1.5-2.35-2.33-2.47-.15-.02-.39-.02-.71.25-.18.16-.46.13-.62-.05-.16-.18-.13-.46.05-.62.44-.37.91-.53,1.41-.45,1.13.17,2.03,1.45,2.93,2.87.23.35.92,1.42,2.71.47.21-.11.48-.03.59.18.11.21.03.48-.18.59-.62.33-1.2.49-1.73.49Z"/>
              <path class="cls-2" d="m106.45,135.79c-.17,0-.33-.1-.4-.26-.08-.18-.21-.31-.35-.35-.13-.04-.28,0-.44.09-.2.13-.48.07-.6-.14-.13-.2-.07-.47.14-.6.48-.3.9-.27,1.16-.19.39.12.72.42.9.83.1.22,0,.48-.22.58-.06.03-.12.04-.18.04Z"/>
              <path class="cls-2" d="m114.87,139.67c-.74,0-1.19-.44-1.21-.46-.17-.17-.17-.45,0-.62.17-.17.45-.17.62,0,.03.03.38.33.96.14.23-.08.48.05.55.28.08.23-.05.48-.28.55-.24.08-.45.11-.65.11Z"/>
              <path class="cls-2" d="m107.72,133.86s-.09,0-.13-.02c-.23-.07-.36-.31-.29-.55.04-.14.45-1.41,1.29-1.82.22-.11.48-.02.59.2.11.22.02.48-.2.59-.38.19-.72.89-.84,1.29-.06.19-.23.31-.42.31Z"/>
              <g>
                <path class="cls-5" d="m109.37,144.43c.86-.12,1.7-.4,1.7-.4,0,0-.15,1.71-1.37,1.97-1.36.27-1.98-1.51-1.98-1.51,0,0,.8.06,1.66-.05Z"/>
                <path class="cls-2" d="m109.42,146.46c-1.16,0-1.89-1.16-2.12-1.83-.05-.14-.02-.29.07-.41.09-.12.23-.18.38-.17,0,0,.77.06,1.57-.05.8-.11,1.6-.38,1.61-.38.14-.05.29-.02.41.07.12.09.18.24.17.38,0,.08-.19,2.04-1.72,2.36-.12.02-.25.04-.36.04Zm-.98-1.52c.25.36.64.73,1.17.63.46-.1.72-.52.86-.91-.3.08-.67.16-1.04.21-.36.05-.7.07-.99.07Z"/>
              </g>
              <path class="cls-2" d="m118.35,148.29c-.15,0-.29-.07-.37-.21-.78-1.28-1.21-4.68-1.23-4.82-.03-.24.14-.46.38-.49.24-.03.46.14.49.38.12.93.54,3.55,1.1,4.47.13.21.06.48-.15.6-.07.04-.15.06-.23.06Z"/>
              <path class="cls-2" d="m110.61,150.51s-.09,0-.13-.02c-.23-.07-.36-.32-.29-.55.05-.17.08-.45-.08-1.35-.04-.24.12-.46.36-.51.24-.04.46.12.51.36.16.91.17,1.37.05,1.76-.06.19-.23.31-.42.31Z"/>
            </g>
            <path class="cls-2" d="m132.18,185.04c-.54,0-1.07-.12-1.54-.24-.24-.06-.38-.29-.33-.53.06-.24.29-.38.53-.33.53.13,1.08.26,1.59.2.45-.05.84-.26,1.03-.56-.07-.99-.51-7.51-.64-10.25-.06-1.35-.13-2.75-.29-4.11-.22-1.84-.62-3.7-1-5.49-.32-1.48-.62-2.71-.9-3.9-.29-1.19-.59-2.43-.91-3.91-.19-.9-.74-2.54-1.23-3.14-.85-1.07-2.68-1.63-4.63-2.24l-.65-.2c-1.76-.54-2.82-.87-4.54-1.88-.21-.12-.28-.39-.16-.6.12-.21.39-.28.6-.16,1.63.95,2.65,1.27,4.35,1.8l.66.2c2.07.64,4.03,1.25,5.05,2.53.66.83,1.24,2.75,1.4,3.5.32,1.47.62,2.7.9,3.89.29,1.19.59,2.43.91,3.91.39,1.82.8,3.69,1.02,5.58.16,1.39.23,2.81.29,4.18.14,2.95.64,10.28.65,10.36,0,.07,0,.15-.04.22-.29.62-.97,1.06-1.78,1.14-.12.01-.23.02-.35.02Z"/>
            <g>
              <path class="cls-4" d="m65.22,269.59l-.37-1.76h-.01c-.08-.44-.33-1.96-.6-3.37-.04.06-.08.11-.13.16-.27.28-.65.44-1.02.54-.27.07-.55.11-.83.14.25-1.11-1.44-1.36-2.19-1.35-.41,0-.85.04-1.18.3-.48.37-.56,1.04-.6,1.64,0,.07,0,.15.03.22.06.1.19.13.29.17.03.01.06.03.08.05l-.15.07c-.38,1.73-1.08,3.46-1.46,4.38-1.13,2.72-3.12,3.77-3.39,5.7,0,.03,0,.07,0,.1h-.01c-1.22,2.13,1.37,3.61,2.98,3.81,1.26.15,4.02-.66,5.45-2.07,1.6-1.58.47-2.17,1.4-5.28.43-1.45,1.9-1.66,1.73-3.44Z"/>
              <path class="cls-2" d="m56.95,279.8c-.12,0-.23,0-.34-.02-1.08-.13-2.16-.73-2.8-1.56-.44-.58-.63-1.2-.55-1.81.16-1.13.84-1.98,1.56-2.88.63-.79,1.35-1.68,1.86-2.92.25-.61,1.03-2.48,1.43-4.3.05-.24.29-.38.52-.33.24.05.38.29.33.52-.42,1.9-1.22,3.82-1.48,4.45-.56,1.35-1.32,2.3-1.98,3.13-.7.88-1.26,1.57-1.38,2.46-.06.46.17.88.38,1.15.5.64,1.36,1.13,2.21,1.23,1.13.13,3.25-.72,4.74-1.91.75-.6.86-1.29,1.05-2.53.12-.77.27-1.72.62-2.92.18-.6.46-1.05.7-1.45.39-.63.69-1.12.61-2.07-.03-.21-.41-2.43-.75-4.14-.05-.24.11-.47.34-.51.24-.05.47.11.51.34.36,1.8.75,4.16.75,4.19,0,.01,0,.02,0,.03.12,1.26-.31,1.96-.73,2.63-.24.39-.46.75-.61,1.24-.34,1.14-.48,2.06-.6,2.8-.2,1.31-.35,2.26-1.37,3.08-1.56,1.25-3.65,2.11-5.04,2.11Z"/>
              <path class="cls-2" d="m56.99,280.83c-.14,0-.27,0-.4-.02-1.25-.15-2.83-.93-3.43-2.12-.37-.73-.33-1.54.12-2.32.12-.21.39-.28.6-.16.21.12.28.39.16.6-.31.53-.34,1.02-.1,1.5.44.88,1.75,1.53,2.75,1.65,1.12.13,3.75-.62,5.09-1.95.79-.79.81-1.23.83-2.12.02-.68.05-1.6.46-2.98.21-.7.62-1.14.98-1.53.47-.51.81-.88.74-1.71l-.36-1.74c-.05-.24.1-.47.34-.52.24-.05.47.1.52.34l.37,1.76s0,.03,0,.05c.12,1.24-.46,1.86-.96,2.41-.32.35-.63.69-.78,1.19-.38,1.26-.4,2.09-.42,2.75-.03.94-.05,1.68-1.09,2.72-1.34,1.33-3.86,2.21-5.41,2.21Z"/>
              <path class="cls-2" d="m62.72,276.34c-.21,0-.4-.15-.43-.37-.14-.91-.6-1.01-1.18-1.14-.37-.08-.8-.18-1.03-.57-.17-.29-.19-.67-.05-1.18.18-.63.39-1.24.62-1.88.2-.57.41-1.16.6-1.79.2-.68.38-1.63.52-2.4.12-.64.21-1.15.3-1.42.17-.49.5-.69.8-.87.29-.18.57-.34.8-.85.1-.22.36-.32.58-.22.22.1.32.36.22.58-.35.76-.81,1.04-1.15,1.24-.25.15-.36.22-.42.4-.07.2-.17.73-.27,1.29-.14.79-.32,1.77-.54,2.5-.2.66-.41,1.26-.62,1.84-.22.62-.43,1.21-.6,1.82-.11.38-.05.49-.05.5.04.06.29.12.47.16.6.14,1.61.36,1.85,1.86.04.24-.13.46-.36.5-.02,0-.05,0-.07,0Z"/>
              <path class="cls-2" d="m55.02,274.45c-.09,0-.17-.03-.25-.08-.2-.14-.25-.41-.11-.61.4-.58.85-.68,1.19-.75.32-.07.49-.11.68-.66l.07-.2c.3-.84,1-2.82,1.37-4.23.33-1.26.17-2.03.17-2.04-.05-.23.09-.47.33-.52.23-.05.47.09.52.32,0,.04.22.97-.17,2.47-.38,1.45-1.09,3.45-1.39,4.3l-.07.19c-.33.94-.81,1.11-1.32,1.23-.27.06-.45.1-.65.4-.08.12-.22.19-.36.19Z"/>
              <path class="cls-2" d="m58.6,266.71c-.23,0-.42-.17-.44-.4-.09-1.11.05-1.84.44-2.29.29-.33.69-.51,1.24-.54,1.15-.06,2.86.61,3.08,2.04.04.24-.13.46-.36.5-.24.04-.46-.13-.5-.36-.14-.87-1.36-1.35-2.17-1.3-.4.02-.55.15-.63.24-.22.26-.3.81-.23,1.64.02.24-.16.45-.4.47-.01,0-.02,0-.04,0Z"/>
              <path class="cls-2" d="m62.39,267.96c-.07,0-.14-.02-.21-.05-1.35-.74-2.45-.62-3.55-.43-.24.04-.47-.12-.51-.36-.04-.24.12-.47.36-.51,1.16-.2,2.53-.35,4.12.52.21.12.29.38.17.59-.08.15-.23.23-.38.23Z"/>
              <path class="cls-2" d="m62.05,269.75c-.09,0-.18-.03-.25-.08-.7-.5-2.74-.84-3.41-.58-.23.09-.48-.02-.57-.25-.09-.22.02-.48.25-.57,1.02-.4,3.36.06,4.24.68.2.14.24.41.1.61-.09.12-.22.18-.36.18Z"/>
              <path class="cls-2" d="m61.1,271.21c-.07,0-.15-.02-.22-.06-1.01-.59-1.8-.73-2.95-.53-.24.04-.46-.12-.51-.36-.04-.24.12-.47.36-.51,1.35-.24,2.35-.06,3.54.64.21.12.28.39.16.6-.08.14-.23.22-.38.22Z"/>
              <path class="cls-2" d="m60.5,272.62c-.06,0-.12-.01-.17-.04-1.04-.44-1.86-.56-2.84-.38-.24.04-.47-.12-.51-.36-.04-.24.12-.46.36-.51,1.15-.2,2.15-.07,3.34.44.22.1.33.35.23.57-.07.17-.23.27-.4.27Z"/>
            </g>
            <path class="cls-15" d="m117.61,246.62l-.42-3.54c.03.08.05.16.07.24.44,1.95.39,3.06.39,4.24,0,1.09-.32,2.42.31,2.91.95.67,3.5,1.15,5.64.91,1.89-.21,2.87-.64,3.01-1.15.14-.51-.28-1.42-.6-1.82-.44-.66-1.15-1.38-1.75-2.27-.88-1.27-1.47-3.54-1.58-4.73-.06-.72-.16-.56-.32-.57.02-.89-.57-1.1-1.68-1.04-1.09.06-1.58.66-1.67.92-.34.16-.72.35-1.06.2-.63-.27-.56-1.09-.67-.55-.11.42-.2,1.03-.25,1.52,0,.02-.52,1.31-.49,2.42.04.79.67,1.45,1.05,2.3Z"/>
            <g>
              <path class="cls-2" d="m122.37,241.3s-.01,0-.02,0c-.24,0-.43-.21-.42-.45.01-.32-.08-.41-.11-.44-.15-.14-.52-.2-1.11-.17-.89.05-1.24.51-1.29.63-.07.23-.31.36-.54.3-.23-.07-.37-.31-.3-.54.13-.45.81-1.19,2.08-1.25.63-.03,1.34-.01,1.77.42.26.26.39.63.37,1.1,0,.24-.2.42-.44.42Z"/>
              <path class="cls-2" d="m120.92,250.98c-.09,0-.19,0-.29-.02-1.07-.15-1.63-.31-2.16-.51-1.27-.53-1.27-1.53-1.27-2.69v-.12c0-.14,0-.29,0-.43,0-1.03.01-2.09-.38-3.81-.02-.08-.05-.17-.08-.27-.08-.23-.18-.52-.18-.86,0,0,0-.02,0-.03.04-.57.15-1.44.29-1.99.03-.15.09-.47.44-.51.34-.04.46.26.51.36.07.17.15.32.32.4.14.06.44-.07.67-.18.36-.17.86-.4,1.24-.03.33.32.33.93.33,1.77,0,.52,0,1.1.08,1.59.14,1.02.31,1.71.42,2.17.02.1.05.18.06.26.21.89-.34,1.11-.74,1.27-.27.11-.61.25-1,.61-.18.16-.45.15-.62-.03-.16-.18-.15-.45.03-.62.51-.47.96-.65,1.27-.77.08-.03.19-.08.24-.11,0-.03,0-.07-.02-.15l-.06-.25c-.11-.47-.29-1.19-.44-2.24-.1-.56-.09-1.18-.09-1.73,0-.36,0-.84-.04-1.06-.08.03-.2.08-.28.12-.37.17-.88.41-1.39.19-.08-.03-.15-.07-.21-.11-.06.38-.1.78-.13,1.09,0,.19.06.37.13.57.04.12.08.24.1.35.41,1.82.41,2.93.4,4.01v.54c0,1.2.03,1.59.71,1.87.47.17.97.31,1.96.46.41.06.68-.11,1.06-.34.37-.23.78-.48,1.38-.51.79-.04,1.24.36,1.53.62.07.06.16.15.21.17.75-.21,1.01-.43,1.04-.49.05-.51-.47-1.14-1.07-1.87-.03-.03-.05-.06-.08-.09-.03-.02-.05-.04-.07-.06-.37-.4-.6-.41-.83-.42-.25-.01-.67-.03-.92-.57-.47-1-1.12-3.96-1.23-5.11-.04-.62-.05-.84.21-1,.07-.04.24-.12.46-.02.1,0,.25,0,.4.11.2.16.26.43.29.87.1,1.12.68,3.32,1.5,4.51.31.45.63.85.95,1.24.72.88,1.35,1.64,1.26,2.54-.05.52-.62.93-1.69,1.23-.46.13-.78-.16-1.02-.37-.25-.23-.47-.43-.9-.4-.37.02-.65.19-.97.39-.37.23-.78.48-1.35.48Z"/>
              <path class="cls-2" d="m122.44,251.88c-1.85,0-3.83-.42-4.73-1.05-.67-.52-.6-1.5-.54-2.44.02-.28.04-.56.04-.82,0-.24.2-.44.44-.44s.44.2.44.44c0,.29-.02.59-.04.88-.05.68-.1,1.46.19,1.68.81.57,3.27,1.05,5.32.82,2.46-.28,2.64-.83,2.64-.83.08-.3-.22-1.06-.51-1.43-.15-.19-.12-.46.07-.62.19-.15.46-.12.62.07.3.37.88,1.45.68,2.21-.21.76-1.31,1.24-3.39,1.47-.39.04-.79.07-1.21.07Z"/>
              <path class="cls-2" d="m117.61,247.06c-.17,0-.33-.1-.4-.26-.12-.27-.28-.53-.43-.78-.31-.52-.63-1.05-.66-1.68-.04-1.2.5-2.55.52-2.61.09-.22.34-.33.57-.24.22.09.33.35.24.57,0,.01-.49,1.23-.46,2.25.02.4.26.8.54,1.26.16.27.33.56.48.87.1.22,0,.48-.22.58-.06.03-.12.04-.18.04Z"/>
              <path class="cls-2" d="m119.99,242.42c-.12,0-.24-.05-.33-.15-.16-.18-.14-.46.04-.62.58-.5,2.11-.54,2.7-.28.22.1.32.35.23.58-.1.22-.35.32-.58.23-.39-.17-1.53-.08-1.78.14-.08.07-.18.11-.29.11Z"/>
              <path class="cls-2" d="m120.09,243.73c-.12,0-.24-.05-.33-.15-.16-.18-.14-.46.04-.62.57-.49,2.07-.55,2.68-.32.23.08.34.34.26.56-.08.23-.34.34-.56.26-.38-.14-1.54-.07-1.8.16-.08.07-.18.11-.29.11Z"/>
              <path class="cls-2" d="m120.34,245c-.12,0-.24-.05-.33-.15-.16-.18-.14-.46.04-.62.56-.48,2.17-.62,2.81-.34.22.1.32.35.23.58-.1.22-.35.32-.58.23-.37-.16-1.62-.03-1.89.2-.08.07-.18.11-.29.11Z"/>
              <path class="cls-2" d="m120.62,246.3c-.12,0-.24-.05-.33-.15-.16-.18-.14-.46.04-.62.56-.48,2.17-.62,2.81-.34.22.1.32.35.23.58-.1.22-.35.32-.58.23-.37-.16-1.62-.03-1.89.2-.08.07-.18.11-.29.11Z"/>
            </g>
            <g>
              <g>
                <path class="cls-2" d="m95.46,184.65c-.93,0-1.49-.41-1.65-.54l-8.05-4.92c-1.33-.81-2.71-1.66-3.94-2.69-1-.84-1.9-1.8-2.77-2.72-.18-.19-.36-.38-.54-.57-1.53-1.62-4.07-3.7-6.11-5.37-.62-.51-1.21-.99-1.72-1.42-.19-.16-.21-.43-.05-.62.16-.18.43-.21.62-.05.51.43,1.09.91,1.71,1.41,2.06,1.69,4.62,3.79,6.19,5.45.18.19.36.38.54.58.85.91,1.73,1.85,2.69,2.65,1.18.99,2.53,1.81,3.83,2.61l8.07,4.94s.05.04.07.06c.01.01.42.36,1.19.33.68-.03,1.39-.38,2.25-1.11.25-.21.49-.44.73-.66.48-.45.98-.91,1.54-1.28.37-.25.76-.45,1.14-.64.46-.23.89-.46,1.28-.75.03-.02.05-.04.07-.06-.05-.01-.13-.02-.21,0l-3.56.49c-.24.03-.46-.13-.49-.37-.03-.24.13-.46.37-.49l3.56-.49c.3-.04.73,0,1,.25.17.16.26.38.25.62-.02.42-.36.68-.47.76-.45.34-.94.59-1.41.83-.37.19-.72.37-1.06.59-.5.33-.95.75-1.42,1.19-.24.23-.5.46-.76.68-1.01.86-1.9,1.28-2.78,1.32-.04,0-.09,0-.13,0Z"/>
                <path class="cls-2" d="m95.63,180.54c-.23,0-.47-.09-.71-.28-1.82-1.22-2.99-2.93-4.13-4.59-.83-1.2-1.68-2.45-2.78-3.5-.58-.56-1.24-1.07-1.88-1.57-.91-.71-1.86-1.45-2.64-2.36-.77-.9-1.51-2.11-2.22-3.28-.42-.69-.82-1.34-1.2-1.9-2.11-3.05-4.03-4.8-5.89-6.48-.42-.38-.83-.75-1.24-1.14-1.01-.95-3-1.67-4.37-1.59-1.86.12-2.92.34-3.78.52-1.07.23-1.78.37-3.13.08-.24-.05-.39-.29-.33-.52.05-.24.28-.39.52-.33,1.17.26,1.74.14,2.76-.08.83-.18,1.97-.42,3.9-.54,1.59-.1,3.84.72,5.02,1.82.41.38.82.76,1.23,1.13,1.89,1.72,3.85,3.49,6.02,6.63.4.58.8,1.24,1.23,1.94.69,1.14,1.41,2.32,2.13,3.16.73.84,1.6,1.52,2.52,2.24.65.51,1.33,1.04,1.95,1.63,1.16,1.11,2.04,2.4,2.89,3.64,1.14,1.67,2.22,3.24,3.91,4.37,0,0,.02.01.03.02.13.1.19.1.19.1.13-.03.38-.51.52-.77.07-.14.15-.28.23-.42.28-.48.55-.97.81-1.45.21-.38.68-1.28,1.52-1.21.24.02.42.23.4.47-.02.24-.23.42-.47.4-.11,0-.32.11-.67.75-.26.49-.54.98-.82,1.47-.08.13-.15.27-.22.4-.3.57-.59,1.1-1.12,1.22-.06.01-.12.02-.18.02Z"/>
              </g>
              <path class="cls-2" d="m102.51,183.84c-.44,0-.88-.21-1.14-.6-.14-.2-.09-.47.11-.61.2-.14.47-.09.61.11.14.2.42.28.62.17.21-.11.48-.03.59.18.11.21.03.48-.18.59-.19.1-.4.15-.6.15Z"/>
              <path class="cls-2" d="m98.74,176.13c-.2,0-.41-.07-.59-.2-.27-.2-.45-.52-.5-.85-.06-.44.07-.91.38-1.37.56-.83,1.5-1.39,2.5-1.49.93-.09,1.92.21,2.73.83.19.15.23.42.08.61-.15.19-.42.23-.61.08-.63-.48-1.4-.72-2.11-.65-.75.07-1.44.49-1.86,1.11-.13.2-.28.49-.24.76.01.1.08.21.15.27.03.02.06.03.07.03.24-.04.46.12.5.36.04.24-.12.46-.36.5-.05,0-.1.01-.15.01Z"/>
              <g>
                <path class="cls-2" d="m102.79,169.27s-.06,0-.1-.01c-.24-.05-.38-.29-.33-.52.34-1.49,2.8-8.05,2.91-8.33.09-.23.34-.34.56-.26.23.09.34.34.26.56-.03.07-2.55,6.78-2.87,8.21-.05.2-.23.34-.43.34Z"/>
                <path class="cls-2" d="m103.72,184.01c-.25,0-.5-.06-.71-.16-.22-.11-.31-.37-.2-.59.11-.22.37-.31.59-.2.29.14.7.06.81-.17.65-1.31,1.45-3.49,1.17-4.22-.24-.62-1.05-1.88-1.64-2.79-.29-.46-.55-.85-.71-1.13-.11-.19-.19-.39-.24-.59-.16-.65-.24-1.03-.26-1.15-.32-1.78-.2-3.73-.17-4.14-.22-.85-.57-1.43-1.05-1.72-.5-.3-.98-.18-1-.18-.23.06-.47-.08-.53-.31-.06-.23.07-.47.3-.53.03,0,.83-.22,1.66.26.71.42,1.21,1.21,1.49,2.34.01.05.01.09.01.14,0,.02-.18,2.14.15,3.98.01.06.06.28.25,1.11.03.12.08.24.15.35.15.26.4.65.69,1.09.65,1,1.45,2.25,1.72,2.96.53,1.38-1.02,4.57-1.2,4.92-.25.5-.76.73-1.27.73Z"/>
                <path class="cls-2" d="m101.24,183.26c-.13,0-.27-.01-.41-.06-.21-.07-.86-.43-.95-.89-.05-.24.1-.47.34-.52.22-.05.44.09.51.3.06.08.29.24.38.27.04.01.09.02.15.01.14-.42.4-1.3.51-2.38.02-.24.24-.42.48-.39.24.02.42.24.39.48-.17,1.63-.63,2.82-.65,2.87-.06.16-.21.27-.38.28h-.1c-.08.01-.17.02-.26.02Z"/>
                <path class="cls-2" d="m102.95,183.73c-.07,0-.14-.02-.21-.05-.21-.11-.29-.38-.18-.59.3-.56.92-2.33,1.09-3.86.03-.24.24-.41.48-.39.24.03.41.24.39.48-.18,1.61-.81,3.46-1.19,4.18-.08.15-.23.23-.39.23Z"/>
                <path class="cls-2" d="m100.3,182.66c-.23,0-.42-.17-.44-.4-.05-.69.15-1.35.15-1.37.07-.23.31-.36.55-.29.23.07.36.32.29.55,0,0-.16.52-.12,1.05.02.24-.16.45-.4.47-.01,0-.02,0-.03,0Z"/>
                <path class="cls-2" d="m99,179.36c-.22,0-.4-.16-.43-.38-.03-.19-.06-.38-.11-.55-.18-.71-.09-1.09,0-1.48.09-.38.19-.81.08-1.81-.08-.24-.26-.5-.54-.83-.16-.18-.14-.46.04-.62.18-.16.46-.14.62.04.39.44.61.8.73,1.17,0,.03.01.06.02.08.14,1.18,0,1.72-.09,2.16-.08.35-.13.56,0,1.07.05.21.09.43.12.65.03.24-.14.46-.38.49-.02,0-.04,0-.06,0Z"/>
                <path class="cls-2" d="m100.11,182.63c-.42,0-.83-.16-1.1-.44-.17-.17-.17-.45,0-.62.17-.17.45-.17.62,0,.14.14.34.19.49.18.24,0,.44.19.44.43,0,.24-.19.44-.43.44h-.01Z"/>
                <path class="cls-2" d="m105.68,178.84c-.12,0-.24-.05-.33-.15-.18-.21-.27-.19-.6-.14-.2.03-.44.08-.73.04-.27-.03-.51-.17-.75-.3-.21-.12-.48-.27-.61-.22-.39.15-.7.05-.94-.02-.24-.07-.46-.14-.86-.07-.24.04-.46-.12-.51-.36-.04-.24.12-.46.36-.51.61-.11.99.01,1.27.1.22.07.27.08.37.04.51-.2,1,.08,1.35.28.15.08.33.18.41.19.17.02.32,0,.49-.04.38-.06.89-.15,1.4.42.16.18.14.46-.04.62-.08.07-.19.11-.29.11Z"/>
                <path class="cls-2" d="m98.08,175.45c-.15,0-.29-.07-.37-.21-.15-.25-.33-.52-.51-.8-.84-1.28-1.88-2.88-1.89-4.52,0-.69.15-1.41.28-2.05l.02-.08c.38-1.82.96-3.62,1.51-5.35.6-1.88,1.22-3.82,1.59-5.78.16-.84.64-2.96,1.68-4.37.89-1.2,3.54-2.47,6.4-3.77.79-.36,1.48-.67,1.71-.82.2-.13.47-.07.61.13.13.2.07.47-.13.61-.29.19-.94.48-1.83.89-1.96.89-5.23,2.38-6.06,3.5-.93,1.26-1.38,3.22-1.52,4.01-.38,2.01-1.01,3.98-1.62,5.88-.55,1.71-1.12,3.48-1.49,5.26l-.02.08c-.12.59-.26,1.27-.26,1.86,0,1.38.93,2.79,1.75,4.04.19.29.37.56.52.82.13.21.06.48-.15.6-.07.04-.15.06-.23.06Z"/>
              </g>
            </g>
            <path class="cls-2" d="m113.82,152.47c-2.16,0-4.78-1.65-5.81-3.68-.11-.22-.02-.48.19-.59.21-.11.48-.02.59.19.89,1.75,3.34,3.27,5.17,3.2,1.69-.07,3.33-1.73,4.26-3.39-.01-.09,0-.16,0-.22v-.04s-.01-.08-.04-.1c-.18-.16-.2-.43-.04-.62.16-.18.43-.2.62-.04.24.21.37.53.34.84v.07c.04.12.03.26-.02.37-.95,1.79-2.84,3.91-5.07,4-.06,0-.12,0-.18,0Z"/>
            <path class="cls-2" d="m109.88,216.62c-.12,0-.24-.05-.33-.15-.19-.21-.37-.38-.55-.54-.49-.44-.96-.85-1.21-2.03-.05-.24.1-.47.33-.52.24-.05.47.1.52.33.2.9.49,1.16.94,1.56.19.17.4.36.63.62.16.18.14.46-.04.62-.08.07-.19.11-.29.11Z"/>
            <path class="cls-2" d="m103.74,174.82s-.07,0-.11-.01c-.23-.06-.37-.3-.31-.53.58-2.24,1.14-5.78.99-8.98-.01-.24.17-.45.42-.46.24-.02.45.17.46.42.16,3.3-.42,6.94-1.02,9.24-.05.2-.23.33-.42.33Z"/>
            <path class="cls-2" d="m124.08,180.61s-.04,0-.06,0c-.24-.03-.41-.25-.38-.49.64-5.07,1.72-14.7,1.72-22.16,0-.24.2-.44.44-.44s.44.2.44.44c0,7.51-1.08,17.18-1.73,22.27-.03.22-.22.38-.43.38Z"/>
            <path class="cls-2" d="m112.2,232.71h-.02c-.77,0-1.42-.57-1.52-1.31-.33-2.46-.54-4.46-.72-6.23-.34-3.32-.61-5.95-1.5-9.81-.05-.24.09-.47.33-.52.24-.05.47.09.52.33.89,3.92,1.17,6.56,1.51,9.92.18,1.76.39,3.75.72,6.2.04.32.32.55.66.55h.02c3.31,0,4.64-1,4.66-1.01.19-.15.46-.11.61.08.15.19.12.46-.07.61-.06.05-1.55,1.2-5.2,1.2Z"/>
            <path class="cls-2" d="m120.93,238.64c-1.3,0-2.55-.32-3.71-.97-.21-.12-.29-.38-.17-.6.12-.21.38-.29.6-.17,1.83,1.02,3.93,1.13,6.06.32.24-.09.51-.21.65-.39.03-.13-.01-.52-.04-.74-.03-.25-.06-.47-.04-.64.72-7.42,1.03-14.27.95-21.56,0-.24.19-.44.43-.44.24,0,.44.19.44.43.08,7.33-.23,14.21-.95,21.66,0,.08.02.28.04.45.06.52.12,1.01-.11,1.33-.27.38-.69.58-1.06.72-1.04.39-2.08.59-3.09.59Z"/>
            <path class="cls-2" d="m117.17,237.61c-.23,0-.43-.19-.44-.42-.25-6.99.11-15.03.42-22.13l.07-1.62c.01-.24.22-.43.46-.42.24.01.43.22.42.46l-.07,1.62c-.31,7.08-.67,15.1-.42,22.06,0,.24-.18.44-.42.45,0,0-.01,0-.02,0Z"/>
            <path class="cls-2" d="m122.21,240.51s-.06,0-.09-.01c-.24-.05-.39-.29-.33-.52.1-.44.15-.7.21-.96.06-.26.11-.52.21-.97.05-.24.28-.39.52-.33.24.05.39.29.33.52-.1.44-.15.7-.21.97-.06.26-.11.52-.21.96-.04.2-.23.34-.43.34Z"/>
          </g>
          <path class="cls-2" d="m99.15,176.68c-1.64-1.86-2.47-4.09-3.18-6.23-.41-1.25-.2-2.74.64-4.45.63-1.28,2.57-7.26,2.77-8.97.27-2.2.88-3.69,1.93-4.69.57-.55,1.27-.93,1.94-1.31.95-.53,1.76-.91,2.55-1.29.78-.37,1.58-.76,2.53-1.28l.14.26c-.95.53-1.76.91-2.55,1.29-.78.37-1.58.76-2.53,1.28-.66.36-1.34.74-1.88,1.26-1,.96-1.59,2.39-1.84,4.52-.21,1.73-2.16,7.77-2.8,9.06-.8,1.63-1.01,3.05-.62,4.23.7,2.1,1.52,4.31,3.12,6.13l-.22.19Z"/>
          <path class="cls-2" d="m117.17,241.2c-.13,0-.27-.06-.35-.18-.06-.08-.25-.33.27-2.17.07-.25.03-.55,0-.87-.02-.16-.04-.33-.05-.49-.01-.24.17-.45.42-.46.24,0,.45.17.46.42,0,.14.02.28.04.42.05.37.1.79-.02,1.22-.23.8-.32,1.42-.33,1.59.03.16-.03.33-.17.43-.08.06-.17.09-.26.09Z"/>
          <path class="cls-2" d="m82.62,246.38s-.06,0-.09,0c-.24-.05-.39-.28-.34-.52.58-2.76-.05-8.21-1.19-10.23-.12-.21-.04-.48.17-.6.21-.12.48-.04.6.17,1.24,2.2,1.91,7.87,1.28,10.84-.04.21-.23.35-.43.35Z"/>
          <path class="cls-2" d="m84.75,243.46s-.03,0-.05,0c-.24-.03-.41-.25-.38-.49.35-2.97-1.11-8.61-2.12-10.08-.14-.2-.09-.47.11-.61.2-.14.47-.09.61.11,1.22,1.76,2.62,7.69,2.27,10.68-.03.22-.22.39-.43.39Z"/>
        </g>
      </g>
      <g>
        <g>
          <path class="cls-4" d="m247.98,35.24c-1.35-14.63-11.19-27.75-26.05-32.56-11.7-3.78-23.91-1.56-33.28,4.95-9.33-6.55-21.51-8.81-33.21-5.1-14.85,4.72-24.75,17.75-26.21,32.32-15,5.24-25.64,19.63-25.36,36.38,0,.01,0,.03,0,.03.2,16.18,10.6,30,25.17,35.18.76,8.08,4.14,15.69,9.5,21.7-1.3,6.67-4.42,12.68-6.98,13.79,5.72-.81,10.47-3.72,14.34-7.46,2.8,1.85,5.89,3.37,9.24,4.45,11.7,3.77,23.9,1.53,33.26-5,6.29,4.4,13.86,6.86,21.7,6.86,3.82,0,7.7-.58,11.54-1.8,14.85-4.75,24.73-17.81,26.15-32.41,14.93-5.25,25.53-19.6,25.26-36.3-.25-16.21-10.67-29.87-25.07-35.04Z"/>
          <path class="cls-11" d="m247.98,35.24c-1.35-14.63-11.19-27.75-26.05-32.56-11.7-3.78-23.91-1.56-33.28,4.95-9.33-6.55-21.51-8.81-33.21-5.1-14.85,4.72-24.75,17.75-26.21,32.32-15,5.24-25.64,19.63-25.36,36.38,0,.01,0,.03,0,.03.2,16.18,10.6,30,25.17,35.18.76,8.08,4.14,15.69,9.5,21.7-1.3,6.67-4.42,12.68-6.98,13.79,5.72-.81,10.47-3.72,14.34-7.46,2.8,1.85,5.89,3.37,9.24,4.45,11.7,3.77,23.9,1.53,33.26-5,6.29,4.4,13.86,6.86,21.7,6.86,3.82,0,7.7-.58,11.54-1.8,14.85-4.75,24.73-17.81,26.15-32.41,14.93-5.25,25.53-19.6,25.26-36.3-.25-16.21-10.67-29.87-25.07-35.04Z"/>
        </g>
        <g>
          <path class="cls-13" d="m141.88,42.77l1.24-1.67c.79.77,1.76,1.37,2.97,1.37,1.35,0,2.27-.65,2.27-1.76,0-1.26-.77-2.03-3.67-2.03v-1.91c2.45,0,3.24-.81,3.24-1.93,0-1.01-.65-1.6-1.78-1.6-.95,0-1.73.45-2.52,1.19l-1.35-1.62c1.15-1.01,2.43-1.66,4-1.66,2.57,0,4.32,1.26,4.32,3.49,0,1.4-.83,2.38-2.21,2.93v.09c1.49.4,2.65,1.49,2.65,3.2,0,2.38-2.14,3.76-4.68,3.76-2.11,0-3.53-.79-4.47-1.85Z"/>
          <path class="cls-13" d="m156.82,35.18c-.95.68-2,1.3-3.04,1.8-.25-.52-.81-1.33-1.26-1.8,3.06-1.35,5.92-3.91,7.27-6.03h2.23c1.91,2.65,4.77,4.7,7.62,5.71-.54.56-1.01,1.33-1.39,1.96-.99-.47-2.03-1.06-3.02-1.75v1.42h-8.41v-1.31Zm-3.19,2.81h14.89v1.98h-8.07c-.52,1.06-1.12,2.18-1.66,3.19,1.73-.05,3.58-.13,5.42-.2-.56-.65-1.17-1.3-1.76-1.84l1.89-.99c1.6,1.4,3.28,3.28,4.12,4.63l-2,1.21c-.18-.34-.43-.72-.72-1.12-4.23.23-8.68.41-11.74.56l-.29-2.09,2.72-.09c.49-1.01.99-2.2,1.37-3.26h-4.18v-1.98Zm10.82-3.46c-1.39-1.04-2.63-2.21-3.46-3.33-.77,1.1-1.93,2.27-3.3,3.33h6.75Z"/>
          <path class="cls-13" d="m180.26,38.15c-.14.29-.32.58-.5.86h7.31s-.02.49-.04.74c-.25,3.51-.54,4.95-1.03,5.47-.34.41-.74.56-1.19.61-.41.05-1.1.07-1.82.04-.04-.5-.22-1.22-.49-1.67.58.05,1.04.05,1.28.05.25,0,.4-.04.54-.2.25-.27.47-1.19.67-3.37h-.7c-.74,2.02-2.14,4.2-3.6,5.33-.36-.41-.97-.9-1.51-1.19,1.37-.86,2.57-2.47,3.35-4.14h-1.06c-.97,1.73-2.65,3.53-4.21,4.52-.34-.41-.9-.95-1.4-1.26,1.33-.67,2.72-1.93,3.67-3.26h-1.06c-.67.7-1.37,1.3-2.11,1.76-.27-.34-.95-.97-1.4-1.26-1.3.65-2.59,1.3-3.69,1.84l-.79-2.16c.61-.23,1.37-.54,2.21-.88v-5.08h-1.8v-2.02h1.8v-3.55h1.98v3.55h1.69v2.02h-1.69v4.25l1.44-.63.38,1.53c.65-.56,1.21-1.21,1.66-1.91h-2.03v-1.8h11.33v1.8h-7.17Zm5.94-2.48h-8.52v-6.09h8.52v6.09Zm-1.98-4.61h-4.64v.86h4.64v-.86Zm0,2.27h-4.64v.86h4.64v-.86Z"/>
          <path class="cls-13" d="m204.73,29.72v16.2h-2.34v-.95h-10.82v.95h-2.23v-16.2h15.39Zm-2.34,13.25v-11.06h-10.82v11.06h10.82Zm-1.75-8.93v6.84h-7.35v-6.84h7.35Zm-2.16,1.87h-3.17v3.11h3.17v-3.11Z"/>
          <path class="cls-13" d="m208.65,36.27c1.22-.38,4.29-1.4,6.46-1.4,2.84,0,4.75,1.69,4.75,4.41,0,3.26-2.86,5.47-8.59,5.83l-.95-2.21c4.12-.11,7.15-1.21,7.15-3.65,0-1.35-1.01-2.29-2.58-2.29-2.09,0-5.69,1.49-7.22,2.14l-.94-2.34c.54-.11,1.37-.32,1.91-.49Z"/>
          <path class="cls-13" d="m222.09,31.9c1.49-.13,4.47-.4,7.76-.68,1.85-.14,3.84-.27,5.1-.31l.02,2.3c-.97.02-2.52.02-3.48.23-2.18.58-3.8,2.92-3.8,5.06,0,2.95,2.77,4.03,5.82,4.2l-.85,2.47c-3.76-.25-7.33-2.29-7.33-6.18,0-2.59,1.46-4.65,2.66-5.56-1.69.18-5.37.58-7.45,1.03l-.23-2.47c.72-.02,1.42-.05,1.78-.09Z"/>
          <path class="cls-13" d="m124.17,56.03h3.13l4.29,13.34h-2.79l-.94-3.42h-4.32l-.94,3.42h-2.7l4.27-13.34Zm-.05,7.85h3.17l-.4-1.46c-.41-1.39-.77-2.92-1.15-4.36h-.09c-.34,1.46-.74,2.97-1.13,4.36l-.4,1.46Z"/>
          <path class="cls-13" d="m132.94,59.29h2.16l.2,1.35h.05c.85-.88,1.78-1.6,3.1-1.6,1.44,0,2.29.65,2.77,1.76.92-.97,1.89-1.76,3.2-1.76,2.14,0,3.13,1.51,3.13,4.05v6.28h-2.65v-5.96c0-1.57-.45-2.11-1.4-2.11-.58,0-1.22.38-1.94,1.13v6.93h-2.63v-5.96c0-1.57-.47-2.11-1.42-2.11-.58,0-1.22.38-1.93,1.13v6.93h-2.65v-10.08Z"/>
          <path class="cls-13" d="m149.79,66.64c0-2.16,1.75-3.29,5.82-3.73-.05-.99-.49-1.75-1.73-1.75-.94,0-1.84.41-2.77.95l-.95-1.75c1.19-.74,2.63-1.33,4.21-1.33,2.56,0,3.87,1.53,3.87,4.45v5.89h-2.16l-.18-1.08h-.07c-.88.76-1.89,1.33-3.04,1.33-1.8,0-2.99-1.28-2.99-2.99Zm5.82-.07v-2.03c-2.47.31-3.3.99-3.3,1.89,0,.79.56,1.13,1.33,1.13s1.31-.36,1.96-.99Z"/>
          <path class="cls-13" d="m160.24,67.95l4.52-6.57h-4.02v-2.09h7.31v1.42l-4.52,6.57h4.68v2.09h-7.98v-1.42Z"/>
          <path class="cls-13" d="m169.28,64.33c0-3.35,2.32-5.29,4.84-5.29s4.84,1.94,4.84,5.29-2.32,5.29-4.84,5.29-4.84-1.94-4.84-5.29Zm6.99,0c0-1.89-.77-3.13-2.14-3.13s-2.14,1.24-2.14,3.13.77,3.13,2.14,3.13,2.14-1.22,2.14-3.13Z"/>
          <path class="cls-13" d="m181.18,59.29h2.16l.2,1.33h.05c.88-.86,1.91-1.58,3.28-1.58,2.18,0,3.11,1.51,3.11,4.05v6.28h-2.65v-5.96c0-1.57-.43-2.11-1.42-2.11-.83,0-1.35.4-2.09,1.13v6.93h-2.65v-10.08Z"/>
          <path class="cls-13" d="m206.38,57.01l-.9.4.38,2.11c-.4.04-1.12.14-1.66.22-.74.11-2.11.32-3.6.56.18.92.38,1.91.56,2.88,1.62-.27,3.1-.5,3.91-.67.7-.14,1.37-.31,1.84-.43l.49,2.38c-.49.04-1.22.16-1.91.27-.86.14-2.32.38-3.91.63.29,1.46.54,2.68.65,3.24.13.54.31,1.19.47,1.76l-2.59.47c-.09-.68-.14-1.3-.25-1.84-.09-.5-.31-1.75-.59-3.26-1.85.31-3.55.59-4.32.74-.77.14-1.39.25-1.8.36l-.5-2.39c.49-.02,1.3-.13,1.87-.2.83-.13,2.5-.4,4.34-.68-.2-.97-.38-1.96-.56-2.88-1.58.25-2.97.49-3.53.58-.58.11-1.04.22-1.66.38l-.49-2.48c.58-.04,1.12-.07,1.67-.13.63-.07,2.02-.27,3.56-.52-.14-.76-.27-1.35-.32-1.64-.11-.52-.23-.95-.36-1.37l2.54-.41c.05.36.11.97.2,1.39.04.25.14.86.31,1.67,1.51-.25,2.88-.47,3.53-.59.32-.05.7-.14,1.03-.22-.36-.7-.83-1.58-1.24-2.18l1.42-.59c.45.67,1.1,1.8,1.44,2.47Zm2.14-.83l-1.42.63c-.38-.76-.95-1.8-1.46-2.48l1.42-.59c.49.68,1.15,1.82,1.46,2.45Z"/>
          <path class="cls-13" d="m222.6,58.64c-.41,1.76-1.21,4.56-2.7,6.55-1.64,2.16-4.03,3.94-7.24,4.97l-1.96-2.14c3.57-.85,5.6-2.41,7.06-4.23,1.19-1.49,1.87-3.55,2.11-5.08h-8.39c-.81,0-1.67.04-2.14.07v-2.54c.54.05,1.57.14,2.16.14h8.32c.36,0,.94-.02,1.42-.14l1.76,1.13c-.16.36-.31.88-.4,1.26Z"/>
          <path class="cls-13" d="m227.62,57.29c0-.63-.05-1.53-.18-2.16h2.81c-.07.63-.16,1.42-.16,2.16v2.67c2.41.7,5.87,1.98,7.53,2.79l-1.03,2.48c-1.86-.97-4.56-2.02-6.5-2.68v5.1c0,.52.09,1.78.16,2.52h-2.81c.11-.72.18-1.8.18-2.52v-10.35Z"/>
          <path class="cls-13" d="m253.06,62.34c.95,1.03,2.11,1.87,3.42,2.43-.47.4-1.1,1.21-1.4,1.76-.76-.38-1.46-.83-2.11-1.35-.2,3.06-.45,4.45-.94,4.99-.41.45-.85.61-1.42.68-.52.07-1.4.07-2.34.04-.02-.61-.27-1.46-.63-2,.81.05,1.55.07,1.91.07.31,0,.47-.04.65-.2.25-.25.43-1.1.58-2.99h-2.83c-.49,2.45-1.67,4.2-5.6,5.2-.2-.54-.74-1.4-1.19-1.84,3.15-.67,4.12-1.8,4.54-3.37h-2.68v-.67c-.67.52-1.4.99-2.21,1.4-.29-.5-.9-1.33-1.31-1.75,1.35-.63,2.47-1.46,3.4-2.43h-2.95v-1.93h4.43c.29-.47.54-.94.77-1.44h-4.03v-1.89h1.94c-.25-.65-.7-1.46-1.12-2.11l1.78-.65c.58.77,1.15,1.84,1.4,2.54l-.58.22h1.33c.32-.97.56-1.98.74-2.99l2.25.38c-.2.88-.43,1.76-.7,2.61h2.5l-.27-.09c.45-.76,1.04-1.91,1.35-2.75l2.12.63c-.43.79-.92,1.58-1.31,2.21h2.48v1.89h-4.16c.22.5.47.97.74,1.44h4.41v1.93h-2.97Zm-1.46,1.51c-.41-.47-.81-.97-1.15-1.51h-4.81c-.38.54-.77,1.04-1.22,1.51h7.18Zm-4.12-4.88c-.2.49-.43.97-.67,1.44h2.56c-.22-.47-.41-.94-.59-1.44h-1.3Z"/>
          <path class="cls-13" d="m146.83,92.77l1.24-1.67c.79.77,1.76,1.37,2.97,1.37,1.35,0,2.27-.65,2.27-1.76,0-1.26-.77-2.03-3.67-2.03v-1.91c2.45,0,3.24-.81,3.24-1.93,0-1.01-.65-1.6-1.78-1.6-.95,0-1.73.45-2.52,1.19l-1.35-1.62c1.15-1.01,2.43-1.66,4-1.66,2.57,0,4.32,1.26,4.32,3.49,0,1.4-.83,2.38-2.21,2.93v.09c1.49.4,2.65,1.49,2.65,3.2,0,2.38-2.14,3.76-4.68,3.76-2.11,0-3.53-.79-4.47-1.85Z"/>
          <path class="cls-13" d="m157.91,96.77c1.4-.52,2.18-1.46,2.16-2.47h-.16c-.86,0-1.66-.56-1.66-1.57,0-.95.77-1.57,1.71-1.57,1.22,0,1.91.97,1.91,2.61,0,2.11-1.22,3.71-3.4,4.43l-.56-1.44Z"/>
          <path class="cls-13" d="m163.6,87.82c0-4.39,1.78-6.68,4.52-6.68s4.5,2.3,4.5,6.68-1.76,6.81-4.5,6.81-4.52-2.39-4.52-6.81Zm6.52,0c0-3.6-.85-4.61-2-4.61s-2.02,1.01-2.02,4.61.86,4.74,2.02,4.74,2-1.12,2-4.74Z"/>
          <path class="cls-13" d="m174.2,87.82c0-4.39,1.78-6.68,4.52-6.68s4.5,2.3,4.5,6.68-1.76,6.81-4.5,6.81-4.52-2.39-4.52-6.81Zm6.52,0c0-3.6-.85-4.61-2-4.61s-2.02,1.01-2.02,4.61.86,4.74,2.02,4.74,2-1.12,2-4.74Z"/>
          <path class="cls-13" d="m184.81,87.82c0-4.39,1.78-6.68,4.52-6.68s4.5,2.3,4.5,6.68-1.76,6.81-4.5,6.81-4.52-2.39-4.52-6.81Zm6.52,0c0-3.6-.85-4.61-2-4.61s-2.02,1.01-2.02,4.61.86,4.74,2.02,4.74,2-1.12,2-4.74Z"/>
          <path class="cls-13" d="m211.29,93.42c0,1.17-.25,1.76-1.01,2.11-.72.36-1.8.4-3.4.4-.11-.59-.47-1.58-.77-2.14,1.03.07,2.2.05,2.56.05.34-.02.47-.13.47-.43v-4.36h-10.88v6.88h-2.16v-15.66h15.2v13.16Zm-13.04-6.5h4.25v-4.54h-4.25v4.54Zm10.88,0v-4.54h-4.5v4.54h4.5Z"/>
          <path class="cls-13" d="m224.98,79.32c1.13,2.29,3.39,4.9,5.35,6.41-.58.45-1.4,1.31-1.82,1.93-.38-.34-.76-.74-1.15-1.15v.13c-.2,5.44-.41,7.56-1.04,8.32-.45.58-.94.76-1.64.85-.61.09-1.66.09-2.72.05-.04-.65-.32-1.55-.7-2.16.99.07,1.93.09,2.38.09.32,0,.52-.04.72-.25.36-.38.56-1.98.72-5.74h-3.55c-.45,3.46-1.62,6.54-6.28,8.28-.27-.61-.9-1.49-1.42-1.98,4.07-1.31,5.01-3.67,5.37-6.3h-3.04v-1.26c-.47.49-.95.92-1.44,1.3-.4-.49-1.31-1.35-1.84-1.73,2.25-1.51,4.23-4,5.31-6.73l2.3.67c-.88,2.07-2.14,4.05-3.56,5.67h9.72c-1.42-1.66-2.77-3.64-3.76-5.53l2.11-.85Z"/>
          <path class="cls-13" d="m167.35,112.77c0-4.39,2.84-6.97,6.39-6.97,1.93,0,3.26.83,4.12,1.71l-1.4,1.69c-.67-.63-1.42-1.12-2.63-1.12-2.21,0-3.76,1.73-3.76,4.59s1.33,4.64,3.96,4.64c.63,0,1.28-.18,1.66-.5v-2.63h-2.36v-2.18h4.74v6.01c-.9.88-2.47,1.6-4.32,1.6-3.62,0-6.39-2.41-6.39-6.86Z"/>
          <path class="cls-13" d="m180.92,106.03h8.17v2.23h-5.51v3.08h4.68v2.23h-4.68v3.57h5.71v2.23h-8.37v-13.34Z"/>
          <path class="cls-13" d="m194.63,108.27h-3.75v-2.23h10.19v2.23h-3.78v11.11h-2.66v-11.11Z"/>
          <path class="cls-13" d="m204.52,117.95c0-.95.68-1.6,1.58-1.6s1.58.65,1.58,1.6-.68,1.58-1.58,1.58-1.58-.65-1.58-1.58Zm.18-9.36l-.09-2.68h2.99l-.09,2.68-.49,6.16h-1.84l-.49-6.16Z"/>
        </g>
      </g>
    </g>
  </g>
</svg>