<svg id="レイヤー_1" data-name="レイヤー 1" xmlns="http://www.w3.org/2000/svg" viewBox="0 0 56 155"><defs><style>.cls-1{fill:#00bc00;}.cls-2{fill:none;stroke:#fff;stroke-miterlimit:10;}.cls-3{fill:#fff;}</style></defs><path class="cls-1" d="M56,0H10A10.029,10.029,0,0,0,0,10V145a10.029,10.029,0,0,0,10,10H56"/><polyline class="cls-2" points="26.367 132.822 29.633 136.088 26.367 139.355"/><circle class="cls-2" cx="28" cy="136.088" r="7"/><path class="cls-3" d="M26.953,20.015c-.5.14-1,.308-1.513.462v4.987H23.914V20.939c-.757.225-1.457.449-2.1.617l-.407-1.583c.7-.154,1.555-.378,2.508-.644V16.653h-.939a12.74,12.74,0,0,1-.518,1.793,12.012,12.012,0,0,0-1.177-.77,17.521,17.521,0,0,0,.8-4.511l1.386.238c-.056.561-.126,1.107-.21,1.667h.659V12.381H25.44V15.07H26.6v1.583H25.44v2.255l1.289-.364Zm7.536-5.477s-.014.56-.028.756c-.266,6.248-.518,8.531-1.05,9.231a1.536,1.536,0,0,1-1.093.729,8.015,8.015,0,0,1-1.583.042,4.653,4.653,0,0,0-.462-1.625,11.373,11.373,0,0,0,1.247.056.585.585,0,0,0,.518-.266c.35-.448.6-2.354.826-7.382h-.07c-.686,3.529-2.129,7.172-4.384,9.035a6.2,6.2,0,0,0-1.359-.967c2.241-1.611,3.642-4.791,4.343-8.068h-.659a14.162,14.162,0,0,1-3.208,6.135,5.921,5.921,0,0,0-1.274-.939,10.864,10.864,0,0,0,3.1-5.2h-.715a10.4,10.4,0,0,1-1.443,2.507,9.505,9.505,0,0,0-1.26-.939,11.592,11.592,0,0,0,2.3-5.28l1.513.28c-.14.644-.323,1.275-.518,1.891Z"/><path class="cls-3" d="M26,26.927a23.6,23.6,0,0,1-1.372,2.984v9.525H23.045V32.39c-.28.35-.56.7-.84,1.008a11.432,11.432,0,0,0-.9-1.736,14.842,14.842,0,0,0,3.11-5.239Zm8.489,7.816H30.9V39.45h-1.68V34.743H25.44V33.118h3.783V30.709H27.514a9.924,9.924,0,0,1-.869,1.807,10.773,10.773,0,0,0-1.443-.8,12.867,12.867,0,0,0,1.653-4.581l1.611.337c-.112.546-.252,1.078-.406,1.61h1.163V26.549H30.9v2.535h2.928v1.625H30.9v2.409h3.586Z"/><path class="cls-3" d="M34.461,45.872v1.807H21.574V45.872Z"/><path class="cls-3" d="M32.556,66.021c.434,0,.532-.154.589-1.134a4.885,4.885,0,0,0,1.372.518c-.154,1.512-.56,1.905-1.807,1.905H30.665c-1.666,0-2.073-.393-2.073-1.653v-.631H27.065c-.406,1.415-1.47,2.116-4.875,2.438a3.78,3.78,0,0,0-.714-1.261c2.718-.154,3.572-.462,3.908-1.177H23.577V60.25h8.867v4.776H30.217v.617c0,.336.1.378.672.378ZM28.242,59.9H22.205V54.815h5.813v.938h-2V56.2h1.807v1.344a7.914,7.914,0,0,0,1.6-3.179l1.485.322a9.027,9.027,0,0,1-.35,1.037h3.8v1.288h-4.37a8.76,8.76,0,0,1-.953,1.485,7.854,7.854,0,0,0-1.2-.812v.77H26.015v.5h2.227Zm-4.553-4.147V56.2h1v-.449Zm2.676,1.331H23.689v.49h2.676Zm-2.676,1.877h1v-.5h-1Zm1.457,2.62h5.646v-.449H25.146Zm0,1.274h5.646v-.448H25.146Zm0,1.3h5.646V63.7H25.146Zm4.216-4.637v-1.26h4.651v1.26Z"/><path class="cls-3" d="M25.062,69.277a10.209,10.209,0,0,0-.308,1.2,34.936,34.936,0,0,0-.658,5.211,6.352,6.352,0,0,0,.056.882c.182-.476.406-.938.6-1.4l.841.686a31.147,31.147,0,0,0-.967,3.236,3.727,3.727,0,0,0-.084.63c0,.14.014.378.028.575l-1.541.084a15.8,15.8,0,0,1-.546-4.315,41.27,41.27,0,0,1,.56-5.631,12.907,12.907,0,0,0,.14-1.331ZM33.411,79.5a15.591,15.591,0,0,0-1.667-1.373c-.084,1.289-.813,2.214-2.648,2.214-1.863,0-3.039-.785-3.039-2.214,0-1.386,1.162-2.325,3.011-2.325a6.3,6.3,0,0,1,.9.056c-.042-.826-.1-1.821-.112-2.773-.322,0-.645.014-.953.014-.8,0-1.568-.029-2.381-.084V71.393a22.214,22.214,0,0,0,2.381.126c.308,0,.631,0,.939-.014,0-.658,0-1.191-.014-1.485a5.3,5.3,0,0,0-.1-.9h1.947a8.3,8.3,0,0,0-.084.868c-.014.308-.028.813-.028,1.4a18.639,18.639,0,0,0,2.115-.323v1.7c-.658.1-1.373.181-2.129.237.028,1.3.1,2.382.154,3.307a8.834,8.834,0,0,1,2.633,1.751Zm-3.39-2.213a4.013,4.013,0,0,0-1.079-.154c-.77,0-1.288.308-1.288.8,0,.561.546.8,1.26.8.841,0,1.107-.434,1.107-1.232Z"/><path class="cls-3" d="M25.328,88.993a5.44,5.44,0,0,0-.238,1.387c0,.854.827,1.485,2.774,1.485a19.565,19.565,0,0,0,4.776-.532l.014,1.905a20.524,20.524,0,0,1-4.72.462c-3.11,0-4.679-1.051-4.679-2.9a8.525,8.525,0,0,1,.28-1.961Zm-1.162-5.757a34.387,34.387,0,0,0,3.7.168c1.33,0,2.9-.084,3.936-.2v1.835c-.939.07-2.633.154-3.922.154-1.429,0-2.606-.055-3.712-.14Z"/><path class="cls-3" d="M32.01,98.4a54,54,0,0,1-5.421.575c-.182.784-.378,1.583-.574,2.213a6.558,6.558,0,0,1,3.361-.854c2.2,0,3.657,1.176,3.657,2.913,0,3.054-2.942,4.16-7.341,3.684l-.476-1.751c2.984.476,5.981.126,5.981-1.891,0-.8-.7-1.471-2.03-1.471a4.613,4.613,0,0,0-3.741,1.6,2.71,2.71,0,0,0-.392.588l-1.611-.574A21.046,21.046,0,0,0,24.936,99c-.84-.014-1.639-.056-2.3-.126v-1.7a18.246,18.246,0,0,0,2.619.266c.056-.266.084-.505.112-.7a7.851,7.851,0,0,0,.07-1.359l1.934.07c-.155.49-.239.952-.337,1.387l-.112.56a34.48,34.48,0,0,0,5.057-.644Z"/><path class="cls-3" d="M25.342,114.907a6.557,6.557,0,0,1,3.978-1.289c2.382,0,3.768,1.471,3.768,3.11,0,2.494-1.961,4.384-7.606,3.894l-.518-1.779c4.077.574,6.233-.42,6.233-2.157,0-.882-.84-1.527-2.045-1.527a4.825,4.825,0,0,0-3.754,1.6,4.014,4.014,0,0,0-.5.785l-1.569-.379A48.936,48.936,0,0,0,24,111.489l1.835.252C25.65,112.5,25.426,114.123,25.342,114.907Zm.407-5.9a42.279,42.279,0,0,0,5.435,1.051l-.407,1.68c-1.373-.2-4.412-.826-5.463-1.092Z"/><path class="cls-3" d="M26.953,20.015c-.5.14-1,.308-1.513.462v4.987H23.914V20.939c-.757.225-1.457.449-2.1.617l-.407-1.583c.7-.154,1.555-.378,2.508-.644V16.653h-.939a12.74,12.74,0,0,1-.518,1.793,12.012,12.012,0,0,0-1.177-.77,17.521,17.521,0,0,0,.8-4.511l1.386.238c-.056.561-.126,1.107-.21,1.667h.659V12.381H25.44V15.07H26.6v1.583H25.44v2.255l1.289-.364Zm7.536-5.477s-.014.56-.028.756c-.266,6.248-.518,8.531-1.05,9.231a1.536,1.536,0,0,1-1.093.729,8.015,8.015,0,0,1-1.583.042,4.653,4.653,0,0,0-.462-1.625,11.373,11.373,0,0,0,1.247.056.585.585,0,0,0,.518-.266c.35-.448.6-2.354.826-7.382h-.07c-.686,3.529-2.129,7.172-4.384,9.035a6.2,6.2,0,0,0-1.359-.967c2.241-1.611,3.642-4.791,4.343-8.068h-.659a14.162,14.162,0,0,1-3.208,6.135,5.921,5.921,0,0,0-1.274-.939,10.864,10.864,0,0,0,3.1-5.2h-.715a10.4,10.4,0,0,1-1.443,2.507,9.505,9.505,0,0,0-1.26-.939,11.592,11.592,0,0,0,2.3-5.28l1.513.28c-.14.644-.323,1.275-.518,1.891Z"/><path class="cls-3" d="M26,26.927a23.6,23.6,0,0,1-1.372,2.984v9.525H23.045V32.39c-.28.35-.56.7-.84,1.008a11.432,11.432,0,0,0-.9-1.736,14.842,14.842,0,0,0,3.11-5.239Zm8.489,7.816H30.9V39.45h-1.68V34.743H25.44V33.118h3.783V30.709H27.514a9.924,9.924,0,0,1-.869,1.807,10.773,10.773,0,0,0-1.443-.8,12.867,12.867,0,0,0,1.653-4.581l1.611.337c-.112.546-.252,1.078-.406,1.61h1.163V26.549H30.9v2.535h2.928v1.625H30.9v2.409h3.586Z"/><path class="cls-3" d="M34.461,45.872v1.807H21.574V45.872Z"/><path class="cls-3" d="M32.556,66.021c.434,0,.532-.154.589-1.134a4.885,4.885,0,0,0,1.372.518c-.154,1.512-.56,1.905-1.807,1.905H30.665c-1.666,0-2.073-.393-2.073-1.653v-.631H27.065c-.406,1.415-1.47,2.116-4.875,2.438a3.78,3.78,0,0,0-.714-1.261c2.718-.154,3.572-.462,3.908-1.177H23.577V60.25h8.867v4.776H30.217v.617c0,.336.1.378.672.378ZM28.242,59.9H22.205V54.815h5.813v.938h-2V56.2h1.807v1.344a7.914,7.914,0,0,0,1.6-3.179l1.485.322a9.027,9.027,0,0,1-.35,1.037h3.8v1.288h-4.37a8.76,8.76,0,0,1-.953,1.485,7.854,7.854,0,0,0-1.2-.812v.77H26.015v.5h2.227Zm-4.553-4.147V56.2h1v-.449Zm2.676,1.331H23.689v.49h2.676Zm-2.676,1.877h1v-.5h-1Zm1.457,2.62h5.646v-.449H25.146Zm0,1.274h5.646v-.448H25.146Zm0,1.3h5.646V63.7H25.146Zm4.216-4.637v-1.26h4.651v1.26Z"/><path class="cls-3" d="M25.062,69.277a10.209,10.209,0,0,0-.308,1.2,34.936,34.936,0,0,0-.658,5.211,6.352,6.352,0,0,0,.056.882c.182-.476.406-.938.6-1.4l.841.686a31.147,31.147,0,0,0-.967,3.236,3.727,3.727,0,0,0-.084.63c0,.14.014.378.028.575l-1.541.084a15.8,15.8,0,0,1-.546-4.315,41.27,41.27,0,0,1,.56-5.631,12.907,12.907,0,0,0,.14-1.331ZM33.411,79.5a15.591,15.591,0,0,0-1.667-1.373c-.084,1.289-.813,2.214-2.648,2.214-1.863,0-3.039-.785-3.039-2.214,0-1.386,1.162-2.325,3.011-2.325a6.3,6.3,0,0,1,.9.056c-.042-.826-.1-1.821-.112-2.773-.322,0-.645.014-.953.014-.8,0-1.568-.029-2.381-.084V71.393a22.214,22.214,0,0,0,2.381.126c.308,0,.631,0,.939-.014,0-.658,0-1.191-.014-1.485a5.3,5.3,0,0,0-.1-.9h1.947a8.3,8.3,0,0,0-.084.868c-.014.308-.028.813-.028,1.4a18.639,18.639,0,0,0,2.115-.323v1.7c-.658.1-1.373.181-2.129.237.028,1.3.1,2.382.154,3.307a8.834,8.834,0,0,1,2.633,1.751Zm-3.39-2.213a4.013,4.013,0,0,0-1.079-.154c-.77,0-1.288.308-1.288.8,0,.561.546.8,1.26.8.841,0,1.107-.434,1.107-1.232Z"/><path class="cls-3" d="M25.328,88.993a5.44,5.44,0,0,0-.238,1.387c0,.854.827,1.485,2.774,1.485a19.565,19.565,0,0,0,4.776-.532l.014,1.905a20.524,20.524,0,0,1-4.72.462c-3.11,0-4.679-1.051-4.679-2.9a8.525,8.525,0,0,1,.28-1.961Zm-1.162-5.757a34.387,34.387,0,0,0,3.7.168c1.33,0,2.9-.084,3.936-.2v1.835c-.939.07-2.633.154-3.922.154-1.429,0-2.606-.055-3.712-.14Z"/><path class="cls-3" d="M32.01,98.4a54,54,0,0,1-5.421.575c-.182.784-.378,1.583-.574,2.213a6.558,6.558,0,0,1,3.361-.854c2.2,0,3.657,1.176,3.657,2.913,0,3.054-2.942,4.16-7.341,3.684l-.476-1.751c2.984.476,5.981.126,5.981-1.891,0-.8-.7-1.471-2.03-1.471a4.613,4.613,0,0,0-3.741,1.6,2.71,2.71,0,0,0-.392.588l-1.611-.574A21.046,21.046,0,0,0,24.936,99c-.84-.014-1.639-.056-2.3-.126v-1.7a18.246,18.246,0,0,0,2.619.266c.056-.266.084-.505.112-.7a7.851,7.851,0,0,0,.07-1.359l1.934.07c-.155.49-.239.952-.337,1.387l-.112.56a34.48,34.48,0,0,0,5.057-.644Z"/><path class="cls-3" d="M25.342,114.907a6.557,6.557,0,0,1,3.978-1.289c2.382,0,3.768,1.471,3.768,3.11,0,2.494-1.961,4.384-7.606,3.894l-.518-1.779c4.077.574,6.233-.42,6.233-2.157,0-.882-.84-1.527-2.045-1.527a4.825,4.825,0,0,0-3.754,1.6,4.014,4.014,0,0,0-.5.785l-1.569-.379A48.936,48.936,0,0,0,24,111.489l1.835.252C25.65,112.5,25.426,114.123,25.342,114.907Zm.407-5.9a42.279,42.279,0,0,0,5.435,1.051l-.407,1.68c-1.373-.2-4.412-.826-5.463-1.092Z"/></svg>