<?xml version="1.0" encoding="UTF-8"?>
<svg id="_レイヤー_2" data-name="レイヤー 2" xmlns="http://www.w3.org/2000/svg" viewBox="0 0 630 100">
  <defs>
    <style>
      .cls-1 {
        fill: #fff;
      }

      .cls-2 {
        fill: #b43c81;
      }

      .cls-3 {
        fill: #ff3278;
      }

      .cls-4 {
        fill: none;
        stroke: #fff;
        stroke-miterlimit: 10;
        stroke-width: 3px;
      }
    </style>
  </defs>
  <g id="text">
    <g>
      <rect class="cls-3" y="0" width="630" height="100" rx="50" ry="50"/>
      <path class="cls-2" d="m50,100h530c27.61,0,50-22.39,50-50H0c0,27.61,22.39,50,50,50Z"/>
      <g>
        <path class="cls-1" d="m151.12,43.72c-.66.63-1.29,1.22-1.95,1.72-.73-.69-2.31-1.95-3.2-2.58,2.77-1.82,5.38-4.82,6.83-7.89l3.83,1.12c-.36.79-.79,1.55-1.29,2.31h19.8v3.46h-3.1v4.22h4.29v3.5h-4.29v4.19h3.83v3.5h-28.68v-3.5h3.93v-4.19h-4.42v-3.5h4.42v-2.38Zm-4.75,20.59c1.45-1.39,2.94-3.93,3.7-6.34l3.79.92c-.73,2.51-2.15,5.21-3.76,6.93l-3.73-1.52Zm8.22-18.22h2.38v-4.22h-2.38v4.22Zm0,7.69h2.38v-4.19h-2.38v4.19Zm5.02,4.92c.4,2.01.79,4.62.83,6.17l-3.83.56c0-1.58-.26-4.29-.63-6.3l3.63-.43Zm3.07-12.61v-4.22h-2.44v4.22h2.44Zm-2.44,3.5v4.19h2.44v-4.19h-2.44Zm5.97,8.98c.79,1.95,1.62,4.52,1.91,6.14l-3.93.76c-.2-1.58-.96-4.26-1.68-6.27l3.7-.63Zm2.24-16.7h-2.51v4.22h2.51v-4.22Zm0,7.72h-2.51v4.19h2.51v-4.19Zm4.36,8.25c1.48,2.01,3.33,4.79,4.16,6.6l-4.03,1.35c-.69-1.75-2.44-4.65-3.89-6.77l3.76-1.19Z"/>
        <path class="cls-1" d="m192.77,58.41c-.5-1.06-1.42-2.77-2.38-4.29v11.58h-3.63v-11.65c-1.06,3.07-2.38,6.14-3.8,8.12-.33-1.19-1.19-2.97-1.78-4.06,1.65-2.01,3.33-5.55,4.36-8.55h-3.76v-3.66h4.98v-10.79h3.63v10.79h4.88v3.66h-4.88v.23c.96.96,4.09,4.65,4.79,5.58l-2.41,3.04Zm-9.54-13.1c-.07-2.05-.73-5.25-1.49-7.62l2.74-.73c.86,2.38,1.52,5.51,1.68,7.56l-2.94.79Zm12.64-7.79c-.86,2.64-1.82,5.78-2.64,7.69l-2.48-.69c.66-2.08,1.45-5.41,1.82-7.72l3.3.73Zm12.81,19.34v8.91h-3.7v-8.25l-9.21,1.65-.59-3.66,9.8-1.75v-18.81h3.7v18.15l3.37-.63.59,3.66-3.96.73Zm-11.29-11.98c1.91,1.02,4.36,2.61,5.55,3.8l-1.98,3.13c-1.09-1.22-3.5-2.97-5.41-4.12l1.85-2.81Zm4.79-1.19c-1.02-1.29-3.3-3.07-5.12-4.29l1.88-2.64c1.85,1.09,4.19,2.77,5.25,3.99l-2.01,2.94Z"/>
        <path class="cls-1" d="m219.96,40.12c2.77-.23,8.22-.73,14.26-1.22,3.4-.3,7-.5,9.34-.59l.03,4.22c-1.78.03-4.62.03-6.37.46-3.99,1.06-7,5.31-7,9.24,0,5.45,5.08,7.39,10.69,7.69l-1.55,4.52c-6.93-.46-13.47-4.16-13.47-11.32,0-4.75,2.67-8.52,4.92-10.2-3.1.33-9.84,1.06-13.66,1.88l-.43-4.52c1.32-.03,2.61-.1,3.23-.16Zm21.55,10.13l-2.51,1.12c-.83-1.82-1.52-3.1-2.57-4.59l2.44-1.02c.83,1.19,2.01,3.2,2.64,4.49Zm3.83-1.62l-2.48,1.19c-.89-1.78-1.65-3-2.71-4.46l2.41-1.12c.83,1.16,2.08,3.1,2.77,4.39Z"/>
        <path class="cls-1" d="m262.07,39c-.03.73-.07,1.52-.1,2.34,2.18-.26,4.36-.69,6.07-1.19l.1,4.09c-1.88.43-4.16.76-6.3,1.02-.03.99-.03,2.01-.03,2.97v1.22c2.24-.56,4.52-.86,6.34-.86,5.08,0,9.08,2.64,9.08,7.2,0,3.89-2.05,6.83-7.29,8.15-1.52.33-2.97.43-4.32.53l-1.52-4.26c1.48,0,2.9-.03,4.06-.23,2.67-.5,4.79-1.82,4.79-4.22,0-2.24-1.98-3.56-4.85-3.56-2.05,0-4.19.33-6.2.92.07,2.61.13,5.18.13,6.3,0,4.09-1.45,5.18-3.63,5.18-3.2,0-7.72-2.77-7.72-6.27,0-2.87,3.3-5.88,7.36-7.62-.03-.79-.03-1.58-.03-2.34v-2.77c-.63.03-1.22.07-1.75.07-2.21,0-3.5-.03-4.62-.16l-.07-3.99c1.95.23,3.37.26,4.55.26.59,0,1.25-.03,1.91-.07.03-1.15.03-2.11.03-2.67,0-.69-.13-2.31-.23-2.9h4.55c-.1.59-.23,2.01-.3,2.87Zm-4.95,21.09c.59,0,1.06-.26,1.06-1.39,0-.83-.03-2.34-.1-4.13-2.01,1.09-3.37,2.44-3.37,3.6,0,1.02,1.55,1.91,2.41,1.91Zm22.77-15.74l-1.98,3.37c-1.58-1.35-5.91-3.83-7.95-4.82l1.82-3.2c2.54,1.22,6.37,3.4,8.12,4.65Z"/>
        <path class="cls-1" d="m312.66,39.36v19.54h-4.09v-1.58h-7.33v8.45h-4.12v-8.45h-7.16v1.75h-3.93v-19.7h11.09v-4.42h4.12v4.42h11.42Zm-22.71,3.76v3.33h7.16v-3.33h-7.16Zm7.16,10.43v-3.5h-7.16v3.5h7.16Zm4.12-10.43v3.33h7.33v-3.33h-7.33Zm7.33,10.43v-3.5h-7.33v3.5h7.33Z"/>
        <path class="cls-1" d="m328.04,41.14c-.13,3.56-.4,10.96-.4,15.05,0,3.33,1.98,4.42,4.55,4.42,5.45,0,8.91-3.14,11.29-6.73l3,3.63c-2.11,3.17-6.8,7.59-14.32,7.59-5.41,0-8.91-2.38-8.91-8.02,0-4.42.33-13.1.33-15.94,0-1.55-.13-3.14-.43-4.46l5.31.07c-.2,1.39-.36,3.07-.43,4.39Z"/>
        <path class="cls-1" d="m358.86,58.14c1.35,2.21,3.83,3.1,7.26,3.23,3.86.16,11.29.07,15.68-.26-.43.92-1.02,2.84-1.22,3.96-3.96.2-10.59.26-14.52.1-4.06-.17-6.77-1.09-8.91-3.66-1.45,1.29-2.9,2.58-4.72,3.96l-1.91-4.09c1.42-.83,3.07-1.91,4.52-3.04v-6.96h-3.8v-3.6h7.62v10.36Zm-2.28-14.82c-1.02-1.58-3.37-3.76-5.31-5.21l2.9-2.38c1.98,1.39,4.39,3.43,5.51,4.98l-3.1,2.61Zm12.58.07c-.13-1.09-.26-2.21-.36-3.33h-5.74v-3.7h9.08c.49,9.34,2.48,17.29,9.34,20.73-.92.66-2.34,2.05-3.07,3-4.06-2.41-6.47-6.2-7.92-10.83-1.65,4.72-4.16,8.35-7.76,10.86-.59-.76-2.11-2.28-3.04-2.97,4.62-2.74,7.16-7.66,8.19-13.96l1.29.2Z"/>
        <path class="cls-1" d="m394.96,38.11c1.88,0,5.38-.16,6.93-.3.83-.03,1.68-.23,2.24-.46l2.64,2.05c-.46.5-.86.92-1.12,1.39-.86,1.42-2.11,4.29-3.3,7.1,2.57.4,5.02,1.19,7.16,2.11.03-.4.07-.76.1-1.12.1-1.29.1-2.61,0-3.6l4.32.5c-.13,2.21-.3,4.26-.63,6.11,1.39.79,2.57,1.55,3.53,2.21l-1.91,4.59c-.86-.79-1.82-1.55-2.84-2.31-1.45,3.73-3.96,6.63-8.38,8.94l-3.5-2.87c4.98-2.15,7.29-5.28,8.38-8.28-2.34-1.29-4.98-2.28-7.82-2.67-1.19,2.81-2.57,6.11-3.73,7.92-1.32,1.98-2.9,2.9-5.15,2.9-2.9,0-5.08-2.01-5.08-5.35,0-5.12,4.65-9.01,11.29-9.31.92-2.18,1.88-4.42,2.64-5.97-1.32.07-4.16.17-5.68.26-.66.03-1.82.13-2.67.26l-.16-4.26c.89.1,2.01.16,2.74.16Zm-2.9,19.87c.66,0,1.12-.33,1.72-1.16.86-1.22,1.75-3.3,2.67-5.38-3.7.56-5.78,2.81-5.78,4.88,0,1.09.63,1.65,1.39,1.65Z"/>
        <path class="cls-1" d="m439.64,39.16c0,.26,0,.63-.03,1.02,3.33,0,7.86-.07,9.57-.03l-.03,3.89c-1.98-.1-5.05-.17-9.54-.17,0,1.68.03,3.5.03,4.95.79,1.25,1.19,2.81,1.19,4.52,0,4.29-2.51,9.77-10.56,12.01l-3.53-3.5c3.33-.69,6.24-1.78,8.05-3.76-.46.1-.96.16-1.49.16-2.54,0-5.68-2.05-5.68-6.07,0-3.73,3-6.17,6.6-6.17.46,0,.89.03,1.32.1,0-.73,0-1.49-.03-2.21-4.98.07-10.13.26-14.19.5l-.1-3.99c3.76,0,9.77-.13,14.26-.2-.03-.43-.03-.76-.07-1.02-.1-1.35-.23-2.48-.33-2.87h4.79c-.07.53-.2,2.31-.23,2.84Zm-5.51,15.45c1.39,0,2.61-1.06,2.15-3.96-.46-.76-1.25-1.16-2.15-1.16-1.29,0-2.54.89-2.54,2.64,0,1.52,1.22,2.48,2.54,2.48Z"/>
        <path class="cls-1" d="m461.42,37.94c1.75,0,8.81-.13,10.69-.3,1.35-.13,2.11-.23,2.51-.36l2.15,2.94c-.76.49-1.55.96-2.31,1.52-1.78,1.25-5.25,4.16-7.33,5.81,1.09-.26,2.08-.36,3.14-.36,5.61,0,9.87,3.5,9.87,8.32,0,5.21-3.96,9.34-11.95,9.34-4.59,0-8.05-2.11-8.05-5.41,0-2.67,2.41-5.15,5.91-5.15,4.09,0,6.57,2.51,7.03,5.64,1.82-.96,2.74-2.47,2.74-4.49,0-2.97-2.97-4.98-6.87-4.98-5.05,0-8.35,2.67-11.88,6.7l-3-3.1c2.34-1.88,6.34-5.25,8.28-6.86,1.85-1.52,5.28-4.29,6.9-5.71-1.68.03-6.24.23-7.99.33-.89.07-1.95.16-2.71.26l-.13-4.29c.92.13,2.08.17,3,.17Zm5.94,23.14c.69,0,1.32-.03,1.91-.1-.2-2.15-1.42-3.53-3.2-3.53-1.25,0-2.05.76-2.05,1.58,0,1.22,1.35,2.05,3.33,2.05Z"/>
      </g>
      <polyline class="cls-4" points="537.02 36 551.02 50 537.02 64"/>
    </g>
  </g>
</svg>