<?xml version="1.0" encoding="UTF-8"?>
<svg id="_レイヤー_2" data-name="レイヤー 2" xmlns="http://www.w3.org/2000/svg" viewBox="0 0 117.3 23">
  <defs>
    <style>
      .cls-1 {
        fill: #e50012;
      }

      .cls-2 {
        fill: #231815;
      }
    </style>
  </defs>
  <g id="text">
    <g>
      <path class="cls-2" d="m12.83,9.52H4.77v-2.06h8.06v2.06ZM.35,2.26v1.84h12.48v1.66H2.47v9.12h8.56c-2.8,2.51-6.79,4.34-11.03,5.64l1.41,1.91c4.36-1.52,8.77-3.9,11.42-6.69v7.16h2.38v-7.18c3.12,2.97,7.12,5.15,11.48,6.69l1.38-1.91c-3.3-.91-8.06-2.89-11.06-5.62h8.68V5.76h-10.48v-1.66h12.5v-1.84h-12.5V.15h-2.38v2.11H.35Zm12.48,10.96H4.77v-2.11h8.06v2.11Zm10.59-3.7h-8.21v-2.06h8.21v2.06Zm0,3.7h-8.21v-2.11h8.21v2.11Z"/>
      <path class="cls-2" d="m65.72,22.95h-2.39v-12.77c-1.15,1.47-1.85,2.06-2.47,2.58l-1.24-2.31c2.65-2.26,5.06-6.35,6.03-10.35l2.41.35c-.38,1.54-.94,3.58-2.35,6.08v16.43Zm13.54-18.22c-1.68-1.15-3.62-2.23-5.8-3.11l1.47-1.62c1.82.64,3.95,1.64,5.83,2.99l-1.5,1.74Zm7.53,2.26h-8v5.29h6.92v1.89h-6.92v6.05h8.65v1.92h-19.92v-1.92h8.8v-6.05h-7.09v-1.89h7.09v-5.29h-8.12v-1.92h18.6v1.92Z"/>
      <path class="cls-2" d="m112.92,8.83h-5.01v-1.89h5.01v1.89ZM107.91.17h-2.29v1.6h-6.06v1.67h6.06v1.86h-8v1.65h8v1.89h-6.06v1.62h6.06v1.72h-7v1.64h7v1.89h-8v1.67h8v2.25h2.29v-2.25h8.98v-1.67h-8.98v-1.89h7.89v-1.64h-7.89v-1.72h7.22v-3.51h1.91v-1.65h-1.91V1.77h-7.22V.17Zm-3.38,20.28c-.56,0-1.71-.03-2.74-.15-4.03-.57-6.24-2.38-6.42-2.55,1-2.16,1.67-5.32,1.85-8.93h-4.79c2.47-2.55,3.12-3.23,4.77-5.88v-1.79h-7.42v1.84h4.77c-1.09,1.89-3.18,4.17-4.68,5.59v2.03h5.12c-.24,2.67-.68,4.17-1.09,5.25-.82-1.5-1.17-2.7-1.44-3.96l-2.06.42c.32,1.35.91,3.36,2.53,5.44-1.18,1.8-2.62,2.85-3.39,3.38l1.44,1.79c.73-.54,2.12-1.5,3.48-3.58,2.5,2.09,6.15,2.94,9.71,2.94h12.62l.5-1.89-12.77.03Zm8.39-15.16h-5.01v-1.86h5.01v1.86Z"/>
      <path class="cls-1" d="m35.89,7.9c-.06-.27-.38-2.4-.85-3.78h5.12c-.12.95-.5,2.72-.89,3.78h-3.38Zm7.18,9.37c-2.18-1.33-3.39-2.5-4.01-3.21h4.81v-1.79h-5.09v-2.57h5.62v-1.79h-2.97c.39-1.13.88-3.39.94-3.78h1.62v-1.79h-5.21V.15h-2.26v2.19h-5.8v1.79h2.15c.5,1.25.82,3.51.88,3.78h-3.53v1.79h6.3v2.57h-6.04v1.79h5.6c-2.21,2.72-4.95,4.34-6.42,5.15l1.27,1.79c1.5-1.01,3.68-2.55,5.6-4.81v6.82h2.26v-6.91c1.03,1.2,1.82,1.94,3,2.89l1.3-1.72Zm2.44-13.64v7.43c0,.93,0,3.12-.91,6.04-.73,2.28-2.26,3.8-3,4.53l2.18,1.3c1.29-1.38,4.09-4.39,4.09-11.85v-1.25h3.82v13.16h2.44v-13.16h3.15v-1.86h-9.42V3.63h-2.35Z"/>
      <polygon class="cls-1" points="46 5.34 58.28 1.95 51.99 .15 53.1 1.53 45.52 3.63 46 5.34"/>
    </g>
  </g>
</svg>