<?xml version="1.0" encoding="UTF-8"?>
<svg id="_レイヤー_2" data-name="レイヤー 2" xmlns="http://www.w3.org/2000/svg" viewBox="0 0 39 122">
  <defs>
    <style>
      .cls-1 {
        fill: #fff;
      }

      .cls-2 {
        fill: none;
        stroke: #fff;
        stroke-miterlimit: 10;
        stroke-width: .8px;
      }

      .cls-3 {
        fill: #00bc00;
      }
    </style>
  </defs>
  <g id="text">
    <g>
      <path class="cls-3" d="m39,0H6C2.7,0,0,2.7,0,6v110c0,3.3,2.7,6,6,6h33"/>
      <g>
        <g>
          <polyline class="cls-2" points="18.33 105.74 20.67 108.07 18.33 110.4"/>
          <circle class="cls-2" cx="19.5" cy="108.07" r="5"/>
        </g>
        <g>
          <g>
            <path class="cls-1" d="m18.68,16.3c-.4.11-.78.24-1.19.36v3.92h-1.2v-3.55c-.59.18-1.14.35-1.65.48l-.32-1.24c.55-.12,1.22-.3,1.97-.51v-2.1h-.74c-.12.54-.25,1.01-.41,1.41-.2-.16-.68-.46-.92-.61.34-.87.53-2.24.63-3.54l1.09.19c-.04.44-.1.87-.16,1.31h.52v-2.11h1.2v2.11h.91v1.24h-.91v1.77l1.01-.29.18,1.15Zm5.92-4.3s-.01.44-.02.59c-.21,4.91-.41,6.7-.83,7.25-.25.37-.5.49-.86.57-.31.05-.77.05-1.24.03-.03-.37-.16-.91-.36-1.28.41.04.77.04.98.04.17,0,.27-.04.41-.21.27-.35.47-1.85.65-5.8h-.06c-.54,2.77-1.67,5.63-3.44,7.1-.25-.25-.7-.57-1.07-.76,1.76-1.27,2.86-3.76,3.41-6.34h-.52c-.48,1.79-1.41,3.76-2.52,4.82-.24-.25-.66-.55-1-.74,1.09-.86,1.95-2.49,2.43-4.08h-.56c-.32.76-.7,1.44-1.13,1.97-.21-.21-.73-.57-.99-.74.87-.96,1.47-2.53,1.8-4.15l1.19.22c-.11.51-.25,1-.41,1.49h4.14Z"/>
            <path class="cls-1" d="m17.93,21.73c-.3.78-.66,1.58-1.08,2.34v7.48h-1.24v-5.53c-.22.28-.44.55-.66.79-.12-.33-.48-1.03-.7-1.36.97-.99,1.9-2.55,2.44-4.11l1.24.4Zm6.67,6.14h-2.82v3.7h-1.32v-3.7h-2.97v-1.28h2.97v-1.89h-1.34c-.2.54-.44,1.03-.68,1.42-.24-.18-.81-.48-1.13-.63.59-.86,1.05-2.26,1.3-3.6l1.27.26c-.09.43-.2.85-.32,1.27h.91v-1.99h1.32v1.99h2.3v1.28h-2.3v1.89h2.82v1.28Z"/>
            <path class="cls-1" d="m24.57,36.62v1.42h-10.12v-1.42h10.12Z"/>
            <path class="cls-1" d="m23.08,52.45c.34,0,.42-.12.46-.89.25.16.76.34,1.08.41-.12,1.19-.44,1.5-1.42,1.5h-1.61c-1.31,0-1.63-.31-1.63-1.3v-.5h-1.2c-.32,1.11-1.16,1.66-3.83,1.91-.08-.29-.34-.75-.56-.99,2.13-.12,2.81-.36,3.08-.92h-1.43v-3.75h6.96v3.75h-1.75v.48c0,.26.08.3.53.3h1.31Zm-3.39-4.81h-4.74v-3.98h4.57v.73h-1.57v.35h1.42v1.06c.56-.63,1.01-1.56,1.25-2.5l1.17.25c-.08.27-.16.55-.28.81h2.98v1.01h-3.43c-.23.44-.48.85-.75,1.17-.21-.19-.66-.48-.95-.64v.61h-1.42v.4h1.75v.74Zm-3.58-3.26v.35h.78v-.35h-.78Zm2.1,1.05h-2.1v.39h2.1v-.39Zm-2.1,1.47h.78v-.4h-.78v.4Zm1.14,2.06h4.43v-.35h-4.43v.35Zm0,1h4.43v-.35h-4.43v.35Zm0,1.02h4.43v-.36h-4.43v.36Zm3.31-3.64v-.99h3.65v.99h-3.65Z"/>
            <path class="cls-1" d="m17.17,54.92c-.09.22-.22.77-.26.97-.16.72-.52,3.09-.52,4.18,0,.21.01.46.04.68.14-.37.32-.74.48-1.1l.67.54c-.31.89-.66,1.98-.78,2.57-.03.14-.05.39-.05.5,0,.12,0,.3.01.45l-1.22.09c-.22-.75-.43-1.99-.43-3.45,0-1.62.32-3.65.45-4.49.04-.3.1-.72.1-1.07l1.51.13Zm5.26-.12c-.03.22-.06.47-.07.7-.01.23-.03.64-.03,1.12.58-.07,1.16-.14,1.67-.25v1.35c-.52.07-1.09.13-1.68.17.02,1.05.08,1.91.12,2.64.9.37,1.58.92,2.09,1.39l-.74,1.16c-.45-.43-.88-.79-1.31-1.08-.07,1.02-.66,1.76-2.11,1.76s-2.42-.64-2.42-1.76.94-1.86,2.4-1.86c.24,0,.48.01.7.04-.03-.66-.07-1.45-.08-2.21-.26,0-.52.01-.77.01-.64,0-1.24-.02-1.88-.07v-1.29c.62.07,1.23.1,1.88.1.25,0,.51,0,.76-.01-.01-.53-.01-.96-.02-1.19,0-.18-.03-.51-.07-.73h1.55Zm-1.32,6.5c-.29-.08-.57-.12-.87-.12-.6,0-1.02.25-1.02.66,0,.45.43.64,1,.64.66,0,.89-.35.89-.99v-.19Z"/>
            <path class="cls-1" d="m17.19,71.61c0,.68.65,1.18,2.2,1.18,1.45,0,2.84-.15,3.78-.43v1.53c-.92.22-2.22.36-3.73.36-2.46,0-3.72-.83-3.72-2.3,0-.63.14-1.16.23-1.56l1.4.12c-.09.4-.17.74-.17,1.1Zm2.2-5.52c1.07,0,2.3-.07,3.12-.15v1.44c-.75.05-2.09.12-3.11.12-1.13,0-2.07-.06-2.95-.11v-1.43c.8.09,1.8.13,2.94.13Z"/>
            <path class="cls-1" d="m18.82,76.6c-.02.1-.04.21-.07.33,1.23-.07,2.68-.23,3.99-.51l.03,1.3c-1.12.19-2.85.4-4.29.46-.15.65-.32,1.33-.5,1.86.89-.47,1.73-.67,2.68-.67,1.74,0,2.9.94,2.9,2.31,0,2.43-2.33,3.31-5.83,2.94l-.37-1.41c2.37.38,4.75.1,4.75-1.49,0-.65-.56-1.19-1.62-1.19-1.24,0-2.34.45-2.98,1.28-.11.14-.2.28-.3.47l-1.29-.45c.52-1,.95-2.44,1.23-3.63-.68-.01-1.32-.06-1.86-.1v-1.35c.65.11,1.46.2,2.11.21.02-.16.05-.31.07-.44.06-.46.07-.73.04-1.08l1.54.05c-.11.39-.18.75-.26,1.1Z"/>
            <path class="cls-1" d="m17.38,90.86c.97-.7,2.05-1.03,3.17-1.03,1.9,0,3,1.18,3,2.48,0,1.97-1.57,3.49-6.05,3.1l-.41-1.42c3.23.45,4.94-.34,4.94-1.72,0-.7-.66-1.21-1.61-1.21-1.21,0-2.3.46-2.98,1.28-.21.23-.32.4-.4.62l-1.27-.3c.22-1.06.47-3.18.55-4.51l1.45.2c-.15.59-.33,1.9-.41,2.52Zm4.65-3.86l-.33,1.33c-1.09-.14-3.49-.65-4.33-.86l.35-1.3c1.02.31,3.37.73,4.31.83Z"/>
          </g>
          <g>
            <path class="cls-1" d="m18.68,16.3c-.4.11-.78.24-1.19.36v3.92h-1.2v-3.55c-.59.18-1.14.35-1.65.48l-.32-1.24c.55-.12,1.22-.3,1.97-.51v-2.1h-.74c-.12.54-.25,1.01-.41,1.41-.2-.16-.68-.46-.92-.61.34-.87.53-2.24.63-3.54l1.09.19c-.04.44-.1.87-.16,1.31h.52v-2.11h1.2v2.11h.91v1.24h-.91v1.77l1.01-.29.18,1.15Zm5.92-4.3s-.01.44-.02.59c-.21,4.91-.41,6.7-.83,7.25-.25.37-.5.49-.86.57-.31.05-.77.05-1.24.03-.03-.37-.16-.91-.36-1.28.41.04.77.04.98.04.17,0,.27-.04.41-.21.27-.35.47-1.85.65-5.8h-.06c-.54,2.77-1.67,5.63-3.44,7.1-.25-.25-.7-.57-1.07-.76,1.76-1.27,2.86-3.76,3.41-6.34h-.52c-.48,1.79-1.41,3.76-2.52,4.82-.24-.25-.66-.55-1-.74,1.09-.86,1.95-2.49,2.43-4.08h-.56c-.32.76-.7,1.44-1.13,1.97-.21-.21-.73-.57-.99-.74.87-.96,1.47-2.53,1.8-4.15l1.19.22c-.11.51-.25,1-.41,1.49h4.14Z"/>
            <path class="cls-1" d="m17.93,21.73c-.3.78-.66,1.58-1.08,2.34v7.48h-1.24v-5.53c-.22.28-.44.55-.66.79-.12-.33-.48-1.03-.7-1.36.97-.99,1.9-2.55,2.44-4.11l1.24.4Zm6.67,6.14h-2.82v3.7h-1.32v-3.7h-2.97v-1.28h2.97v-1.89h-1.34c-.2.54-.44,1.03-.68,1.42-.24-.18-.81-.48-1.13-.63.59-.86,1.05-2.26,1.3-3.6l1.27.26c-.09.43-.2.85-.32,1.27h.91v-1.99h1.32v1.99h2.3v1.28h-2.3v1.89h2.82v1.28Z"/>
            <path class="cls-1" d="m24.57,36.62v1.42h-10.12v-1.42h10.12Z"/>
            <path class="cls-1" d="m23.08,52.45c.34,0,.42-.12.46-.89.25.16.76.34,1.08.41-.12,1.19-.44,1.5-1.42,1.5h-1.61c-1.31,0-1.63-.31-1.63-1.3v-.5h-1.2c-.32,1.11-1.16,1.66-3.83,1.91-.08-.29-.34-.75-.56-.99,2.13-.12,2.81-.36,3.08-.92h-1.43v-3.75h6.96v3.75h-1.75v.48c0,.26.08.3.53.3h1.31Zm-3.39-4.81h-4.74v-3.98h4.57v.73h-1.57v.35h1.42v1.06c.56-.63,1.01-1.56,1.25-2.5l1.17.25c-.08.27-.16.55-.28.81h2.98v1.01h-3.43c-.23.44-.48.85-.75,1.17-.21-.19-.66-.48-.95-.64v.61h-1.42v.4h1.75v.74Zm-3.58-3.26v.35h.78v-.35h-.78Zm2.1,1.05h-2.1v.39h2.1v-.39Zm-2.1,1.47h.78v-.4h-.78v.4Zm1.14,2.06h4.43v-.35h-4.43v.35Zm0,1h4.43v-.35h-4.43v.35Zm0,1.02h4.43v-.36h-4.43v.36Zm3.31-3.64v-.99h3.65v.99h-3.65Z"/>
            <path class="cls-1" d="m17.17,54.92c-.09.22-.22.77-.26.97-.16.72-.52,3.09-.52,4.18,0,.21.01.46.04.68.14-.37.32-.74.48-1.1l.67.54c-.31.89-.66,1.98-.78,2.57-.03.14-.05.39-.05.5,0,.12,0,.3.01.45l-1.22.09c-.22-.75-.43-1.99-.43-3.45,0-1.62.32-3.65.45-4.49.04-.3.1-.72.1-1.07l1.51.13Zm5.26-.12c-.03.22-.06.47-.07.7-.01.23-.03.64-.03,1.12.58-.07,1.16-.14,1.67-.25v1.35c-.52.07-1.09.13-1.68.17.02,1.05.08,1.91.12,2.64.9.37,1.58.92,2.09,1.39l-.74,1.16c-.45-.43-.88-.79-1.31-1.08-.07,1.02-.66,1.76-2.11,1.76s-2.42-.64-2.42-1.76.94-1.86,2.4-1.86c.24,0,.48.01.7.04-.03-.66-.07-1.45-.08-2.21-.26,0-.52.01-.77.01-.64,0-1.24-.02-1.88-.07v-1.29c.62.07,1.23.1,1.88.1.25,0,.51,0,.76-.01-.01-.53-.01-.96-.02-1.19,0-.18-.03-.51-.07-.73h1.55Zm-1.32,6.5c-.29-.08-.57-.12-.87-.12-.6,0-1.02.25-1.02.66,0,.45.43.64,1,.64.66,0,.89-.35.89-.99v-.19Z"/>
            <path class="cls-1" d="m17.19,71.61c0,.68.65,1.18,2.2,1.18,1.45,0,2.84-.15,3.78-.43v1.53c-.92.22-2.22.36-3.73.36-2.46,0-3.72-.83-3.72-2.3,0-.63.14-1.16.23-1.56l1.4.12c-.09.4-.17.74-.17,1.1Zm2.2-5.52c1.07,0,2.3-.07,3.12-.15v1.44c-.75.05-2.09.12-3.11.12-1.13,0-2.07-.06-2.95-.11v-1.43c.8.09,1.8.13,2.94.13Z"/>
            <path class="cls-1" d="m18.82,76.6c-.02.1-.04.21-.07.33,1.23-.07,2.68-.23,3.99-.51l.03,1.3c-1.12.19-2.85.4-4.29.46-.15.65-.32,1.33-.5,1.86.89-.47,1.73-.67,2.68-.67,1.74,0,2.9.94,2.9,2.31,0,2.43-2.33,3.31-5.83,2.94l-.37-1.41c2.37.38,4.75.1,4.75-1.49,0-.65-.56-1.19-1.62-1.19-1.24,0-2.34.45-2.98,1.28-.11.14-.2.28-.3.47l-1.29-.45c.52-1,.95-2.44,1.23-3.63-.68-.01-1.32-.06-1.86-.1v-1.35c.65.11,1.46.2,2.11.21.02-.16.05-.31.07-.44.06-.46.07-.73.04-1.08l1.54.05c-.11.39-.18.75-.26,1.1Z"/>
            <path class="cls-1" d="m17.38,90.86c.97-.7,2.05-1.03,3.17-1.03,1.9,0,3,1.18,3,2.48,0,1.97-1.57,3.49-6.05,3.1l-.41-1.42c3.23.45,4.94-.34,4.94-1.72,0-.7-.66-1.21-1.61-1.21-1.21,0-2.3.46-2.98,1.28-.21.23-.32.4-.4.62l-1.27-.3c.22-1.06.47-3.18.55-4.51l1.45.2c-.15.59-.33,1.9-.41,2.52Zm4.65-3.86l-.33,1.33c-1.09-.14-3.49-.65-4.33-.86l.35-1.3c1.02.31,3.37.73,4.31.83Z"/>
          </g>
        </g>
      </g>
    </g>
  </g>
</svg>