<?xml version="1.0" encoding="UTF-8"?>
<svg id="_レイヤー_2" data-name="レイヤー 2" xmlns="http://www.w3.org/2000/svg" viewBox="0 0 363.66 38.24">
  <defs>
    <style>
      .cls-1 {
        fill: #251e1c;
      }
    </style>
  </defs>
  <g id="text">
    <g>
      <g>
        <path class="cls-1" d="m59.76,18.06c0-10.61,4.05-16.24,10.47-16.24s10.47,5.68,10.47,16.24-4,16.46-10.47,16.46-10.47-5.85-10.47-16.46Zm16.11,0c0-9.06-2.33-12.23-5.63-12.23s-5.63,3.17-5.63,12.23,2.33,12.45,5.63,12.45,5.63-3.39,5.63-12.45Z"/>
        <path class="cls-1" d="m84.79,25.89c0-4,2.82-6.69,5.81-8.27v-.18c-2.42-1.72-4.36-4.05-4.36-7.35,0-5.02,3.96-8.27,9.24-8.27,5.63,0,9.15,3.48,9.15,8.45,0,3.26-2.29,5.94-4.27,7.39v.22c2.86,1.67,5.46,3.92,5.46,8.14,0,4.8-4.22,8.49-10.47,8.49s-10.56-3.61-10.56-8.62Zm16.24,0c0-3.74-3.56-5.02-7.97-6.82-2.2,1.54-3.78,3.7-3.78,6.34,0,3.21,2.68,5.46,6.16,5.46s5.59-1.94,5.59-4.97Zm-.66-15.31c0-2.9-1.8-5.1-4.97-5.1-2.64,0-4.62,1.76-4.62,4.62,0,3.39,3.08,4.88,6.69,6.29,1.89-1.76,2.9-3.7,2.9-5.81Z"/>
        <path class="cls-1" d="m109.92,18.06c0-10.61,4.05-16.24,10.47-16.24s10.47,5.68,10.47,16.24-4,16.46-10.47,16.46-10.47-5.85-10.47-16.46Zm16.11,0c0-9.06-2.33-12.23-5.63-12.23s-5.63,3.17-5.63,12.23,2.33,12.45,5.63,12.45,5.63-3.39,5.63-12.45Z"/>
        <path class="cls-1" d="m135,18.06c0-10.61,4.05-16.24,10.47-16.24s10.47,5.68,10.47,16.24-4,16.46-10.47,16.46-10.47-5.85-10.47-16.46Zm16.11,0c0-9.06-2.33-12.23-5.63-12.23s-5.63,3.17-5.63,12.23,2.33,12.45,5.63,12.45,5.63-3.39,5.63-12.45Z"/>
        <path class="cls-1" d="m160.08,19.64h11.62v3.74h-11.62v-3.74Z"/>
        <path class="cls-1" d="m177.5,29.76h7.08V8.11h-5.81v-3.21c3.04-.53,5.19-1.32,7.04-2.46h3.83v27.33h6.34v4.18h-18.48v-4.18Z"/>
        <path class="cls-1" d="m216.18,6.7h-15.23V2.43h20.86v3.08c-7.44,9.29-8.8,16.15-9.33,28.43h-5.19c.57-11.44,2.77-18.7,8.89-27.24Z"/>
        <path class="cls-1" d="m225.94,18.06c0-10.61,4.05-16.24,10.47-16.24s10.47,5.68,10.47,16.24-4,16.46-10.47,16.46-10.47-5.85-10.47-16.46Zm16.11,0c0-9.06-2.33-12.23-5.63-12.23s-5.63,3.17-5.63,12.23,2.33,12.45,5.63,12.45,5.63-3.39,5.63-12.45Z"/>
        <path class="cls-1" d="m251.02,19.64h11.62v3.74h-11.62v-3.74Z"/>
        <path class="cls-1" d="m265.85,30.2l2.42-3.3c1.85,1.85,4.18,3.48,7.57,3.48,3.65,0,6.42-2.46,6.42-6.47s-2.46-6.34-6.16-6.34c-2.07,0-3.3.62-5.19,1.85l-2.46-1.58.97-15.4h16.41v4.27h-12.01l-.75,8.32c1.41-.7,2.68-1.1,4.44-1.1,5.41,0,9.86,3.04,9.86,9.81s-5.24,10.78-10.91,10.78c-5.1,0-8.32-2.07-10.61-4.31Z"/>
        <path class="cls-1" d="m293.53,29.76h7.08V8.11h-5.81v-3.21c3.04-.53,5.19-1.32,7.04-2.46h3.83v27.33h6.34v4.18h-18.48v-4.18Z"/>
        <path class="cls-1" d="m316.89,18.06c0-10.61,4.05-16.24,10.47-16.24s10.47,5.68,10.47,16.24-4,16.46-10.47,16.46-10.47-5.85-10.47-16.46Zm16.11,0c0-9.06-2.33-12.23-5.63-12.23s-5.63,3.17-5.63,12.23,2.33,12.45,5.63,12.45,5.63-3.39,5.63-12.45Z"/>
        <path class="cls-1" d="m354.82,25.58h-14.04v-3.39l12.89-19.76h5.9v19.23h4.09v3.92h-4.09v8.36h-4.75v-8.36Zm0-3.92v-7.97c0-1.76.13-4.58.22-6.34h-.18c-.79,1.58-1.67,3.08-2.6,4.71l-6.38,9.59h8.93Z"/>
      </g>
      <g>
        <path class="cls-1" d="m0,0v29.49h48.67V0H0Zm17.04,28.49h-6.03V7.55c0-2.84,1.95-6.74,6.74-6.74h7.1v5.51h-5.5c-1.07,0-2.31.7-2.31,1.94v3.64h15.9v5.5h-15.9v11.09Zm20.45.03h-2.95c-4.79,0-6.75-3.91-6.75-6.75v-3.06h5.15s0,2.84,0,2.84c0,.71.51,1.47,1.58,1.47h2.96v5.5Zm0-22.2h-2.96c-1.08,0-1.58.74-1.58,1.46v2.84h-5.15v-3.08c0-2.84,1.96-6.74,6.75-6.74h2.95v5.51Z"/>
        <path class="cls-1" d="m7.33,31.36c-.09,2.23-.62,3.49-1.32,4.39-.78,1.01-2.1,1.91-4.17,2.31l-.58-1.26c3.66-.64,4.25-2.47,4.53-4.15H.69v-1.29h6.64Z"/>
        <path class="cls-1" d="m10.09,35.61h-1.38v-4.51h1.38v4.51Zm3.96-1.24c0,3.14-2.46,3.5-4.42,3.73l-.5-1.26c.57-.05,2.01-.16,2.79-.66.43-.28.74-.84.74-1.63v-3.59h1.38v3.41Z"/>
        <rect class="cls-1" x="15.45" y="33.74" width="7.25" height="1.37"/>
        <polygon class="cls-1" points="30.07 31.48 30.07 37.54 23.85 37.54 23.85 36.25 28.69 36.25 28.69 32.76 23.93 32.76 23.93 31.48 30.07 31.48"/>
        <rect class="cls-1" x="31.57" y="33.74" width="7.25" height="1.37"/>
        <path class="cls-1" d="m42.12,33.15c0,.91-.07,1.82-.25,2.72-.19.9-.57,1.75-1.24,2.37l-1.03-1.06c.29-.27.78-.77.99-1.85.07-.34.21-1.16.21-2.02v-2.06h1.31v1.92Zm2.25,3.19c.27-.09.77-.25,1.25-1.07.4-.68.5-1.42.56-1.78l1.24.6c-.21,1.04-.64,2.04-1.41,2.77-1.12,1.04-2.43,1.1-2.94,1.12v-7.02h1.3v5.37Z"/>
      </g>
    </g>
  </g>
</svg>