<svg id="レイヤー_1" data-name="レイヤー 1" xmlns="http://www.w3.org/2000/svg" viewBox="0 0 452.662 25.31"><defs><style>.cls-1{fill:#525a70;}</style></defs><path class="cls-1" d="M7.416.949l.32.33L4.188,4.847,7.736,8.4l-.32.33L3.868,5.207.33,8.725,0,8.4,3.549,4.847,0,1.279.33.949,3.868,4.5ZM1.77,4.837a.762.762,0,0,1-.76.77.777.777,0,0,1-.77-.77.761.761,0,0,1,.77-.759A.759.759,0,0,1,1.77,4.837ZM4.628,7.756a.775.775,0,0,1-.76.769A.771.771,0,0,1,3.8,6.986h.029c.01.01.01.01.021.01l.019-.01A.762.762,0,0,1,4.628,7.756Zm.01-5.807a.761.761,0,0,1-.76.769.765.765,0,1,1,0-1.529A.76.76,0,0,1,4.638,1.949Zm2.848,2.9a.76.76,0,1,1-.759-.759A.759.759,0,0,1,7.486,4.847Z"/><path class="cls-1" d="M12.879,3.968a2.376,2.376,0,0,0-.81-.15,1.477,1.477,0,0,0-1.229.609,1.646,1.646,0,0,0-.37,1V7.466a7.809,7.809,0,0,0,.07,1.119h-.9A9.3,9.3,0,0,0,9.71,7.456V4.328A7.387,7.387,0,0,0,9.641,3.2h.829v.57a2.908,2.908,0,0,1-.01.3,1.744,1.744,0,0,1,.55-.61,1.99,1.99,0,0,1,1.2-.35,4.592,4.592,0,0,1,.89.09Z"/><path class="cls-1" d="M17.558,7.876a2.608,2.608,0,0,1-.919.609,2.956,2.956,0,0,1-1.04.2c-1.1,0-1.769-.57-1.769-1.519a1.685,1.685,0,0,1,1.429-1.639,8.156,8.156,0,0,1,2.3-.26V4.688c0-.68-.43-1.03-1.259-1.03a1.64,1.64,0,0,0-1.24.43,1.419,1.419,0,0,0-.31.579L13.97,4.5a1.971,1.971,0,0,1,.559-.889,2.517,2.517,0,0,1,1.759-.57c1.319,0,2,.56,2,1.639V7.486a6.492,6.492,0,0,0,.08,1.1h-.809Zm0-2.019a6.169,6.169,0,0,0-2.209.29,1.06,1.06,0,0,0-.76,1.029c0,.55.41.9,1.059.9a2.259,2.259,0,0,0,1.6-.71,1.09,1.09,0,0,0,.31-.86Z"/><path class="cls-1" d="M24.037,8.1a4.661,4.661,0,0,1,.029-.489,2.228,2.228,0,0,1-2.028,1.079c-1.539,0-2.478-1.059-2.478-2.8,0-1.709.959-2.8,2.458-2.8a2.291,2.291,0,0,1,2.048,1.06L24.057,4a3.026,3.026,0,0,1-.03-.53V2.129a7.831,7.831,0,0,0-.07-1.14h.88a8.01,8.01,0,0,0-.07,1.13V7.436a7.652,7.652,0,0,0,.07,1.149h-.8ZM20.349,5.867a2.614,2.614,0,0,0,.41,1.559,1.649,1.649,0,0,0,1.339.6,1.922,1.922,0,0,0,1.919-2.169,2.208,2.208,0,0,0-.56-1.589,1.927,1.927,0,0,0-1.359-.53C21.009,3.738,20.349,4.538,20.349,5.867Z"/><path class="cls-1" d="M29.507.65a17.393,17.393,0,0,0,.75,3.308c.59-.24.869-.35,2.418-.89a5.513,5.513,0,0,0,.639-.259l.3.759a22.989,22.989,0,0,0-3.009.97c-1.709.679-2.448,1.339-2.448,2.168,0,.91.77,1.26,2.729,1.26a9.923,9.923,0,0,0,2.858-.34l.079.829a5.183,5.183,0,0,0-.739.06,20.031,20.031,0,0,1-2.209.13,6.8,6.8,0,0,1-2.219-.27,1.659,1.659,0,0,1-1.239-1.639,2.163,2.163,0,0,1,.89-1.7,6.192,6.192,0,0,1,1.309-.809,20.264,20.264,0,0,1-.729-2.8,3.43,3.43,0,0,0-.17-.63Z"/><path class="cls-1" d="M38.357.929a14.269,14.269,0,0,0-.769,4.688c0,.35.019.939.04,1.4,0,.08,0,.1.01.28v.19l.04.01a8.784,8.784,0,0,1,.59-1.759,1.5,1.5,0,0,0,.08-.2l.489.23a8.621,8.621,0,0,0-.859,2.838,1.145,1.145,0,0,0,.019.2l-.709.07c-.011-.09-.02-.14-.06-.37a15.9,15.9,0,0,1-.28-2.968,16.929,16.929,0,0,1,.52-4.108,4.792,4.792,0,0,0,.11-.63Zm1.009,1.86a6.975,6.975,0,0,0,1.8.159c.39,0,.659-.01,1.069-.03-.009-.939-.009-.939-.009-1.7A2.185,2.185,0,0,0,42.2.81h.749a10.393,10.393,0,0,0-.069,1.569c0,.11,0,.269.01.489a6.773,6.773,0,0,0,1.729-.37l.03.68c-.02,0-.02,0-.7.14a9.533,9.533,0,0,1-1.059.16c.01.989.03,1.5.11,2.829a7.193,7.193,0,0,1,1.669.979c.12.08.14.1.25.17l-.31.7a5.419,5.419,0,0,0-1.419-1.039.642.642,0,0,1-.1-.06A.7.7,0,0,0,43,7a1.435,1.435,0,0,1,.02.26,1.715,1.715,0,0,1-.12.679,1.707,1.707,0,0,1-1.669.84c-1.16,0-1.889-.549-1.889-1.419,0-.83.789-1.419,1.9-1.419a2.821,2.821,0,0,1,1.11.2c-.03-.21-.07-1.15-.1-2.609-.45.02-.76.03-1.14.03-.409,0-.779-.01-1.128-.03a2.635,2.635,0,0,0-.321-.02,1.479,1.479,0,0,0-.17-.01.452.452,0,0,0-.1-.01h-.04Zm1.919,3.747c-.779,0-1.289.33-1.289.83s.46.809,1.159.809a1.376,1.376,0,0,0,1.02-.349,1.168,1.168,0,0,0,.19-.78c0-.07-.01-.3-.01-.3A2.58,2.58,0,0,0,41.285,6.536Z"/><path class="cls-1" d="M49.686,3.968a2.376,2.376,0,0,0-.81-.15,1.478,1.478,0,0,0-1.23.609,1.646,1.646,0,0,0-.37,1V7.466a7.8,7.8,0,0,0,.071,1.119h-.9a9.109,9.109,0,0,0,.07-1.129V4.328a7.248,7.248,0,0,0-.07-1.13h.829v.57c0,.08,0,.23-.009.3a1.742,1.742,0,0,1,.549-.61,1.993,1.993,0,0,1,1.2-.35,4.59,4.59,0,0,1,.889.09Z"/><path class="cls-1" d="M54.364,7.876a2.6,2.6,0,0,1-.919.609,2.952,2.952,0,0,1-1.04.2c-1.1,0-1.768-.57-1.768-1.519a1.685,1.685,0,0,1,1.428-1.639,8.162,8.162,0,0,1,2.3-.26V4.688c0-.68-.429-1.03-1.259-1.03a1.643,1.643,0,0,0-1.24.43,1.407,1.407,0,0,0-.309.579l-.78-.17a1.98,1.98,0,0,1,.56-.889,2.517,2.517,0,0,1,1.759-.57c1.319,0,2,.56,2,1.639V7.486a6.39,6.39,0,0,0,.08,1.1h-.81Zm0-2.019a6.174,6.174,0,0,0-2.209.29A1.06,1.06,0,0,0,51.4,7.176c0,.55.41.9,1.059.9a2.261,2.261,0,0,0,1.6-.71,1.093,1.093,0,0,0,.309-.86Z"/><path class="cls-1" d="M60.844,8.1a4.661,4.661,0,0,1,.029-.489,2.229,2.229,0,0,1-2.028,1.079c-1.539,0-2.479-1.059-2.479-2.8,0-1.709.959-2.8,2.458-2.8a2.293,2.293,0,0,1,2.049,1.06L60.863,4a3.129,3.129,0,0,1-.029-.53V2.129a7.974,7.974,0,0,0-.07-1.14h.88a8.006,8.006,0,0,0-.071,1.13V7.436a7.64,7.64,0,0,0,.071,1.149h-.8ZM57.155,5.867a2.621,2.621,0,0,0,.41,1.559,1.652,1.652,0,0,0,1.339.6,1.922,1.922,0,0,0,1.919-2.169,2.207,2.207,0,0,0-.559-1.589,1.927,1.927,0,0,0-1.36-.53C57.815,3.738,57.155,4.538,57.155,5.867Z"/><path class="cls-1" d="M64.1.989v.89h-.97V.989ZM64.055,3.2a7.163,7.163,0,0,0-.07,1.13V7.456a7.859,7.859,0,0,0,.07,1.129h-.9a8.666,8.666,0,0,0,.071-1.129V4.328a7.32,7.32,0,0,0-.071-1.13Z"/><path class="cls-1" d="M69.133,7.876a2.608,2.608,0,0,1-.919.609,2.952,2.952,0,0,1-1.04.2c-1.1,0-1.769-.57-1.769-1.519a1.685,1.685,0,0,1,1.429-1.639,8.156,8.156,0,0,1,2.3-.26V4.688c0-.68-.43-1.03-1.259-1.03a1.64,1.64,0,0,0-1.24.43,1.419,1.419,0,0,0-.31.579l-.779-.17a1.98,1.98,0,0,1,.559-.889,2.519,2.519,0,0,1,1.759-.57c1.32,0,2,.56,2,1.639V7.486a6.492,6.492,0,0,0,.08,1.1h-.809Zm0-2.019a6.169,6.169,0,0,0-2.209.29,1.06,1.06,0,0,0-.76,1.029c0,.55.41.9,1.06.9a2.257,2.257,0,0,0,1.6-.71,1.09,1.09,0,0,0,.31-.86Z"/><path class="cls-1" d="M71.385,8.585a6.464,6.464,0,0,0,.08-1.129V4.328a6.862,6.862,0,0,0-.08-1.13h.829v.68a2.68,2.68,0,0,1-.03.43A2.171,2.171,0,0,1,74.2,3.1a1.8,1.8,0,0,1,1.6.75A2.038,2.038,0,0,1,76.082,5V7.466a6.9,6.9,0,0,0,.069,1.119h-.9a7.9,7.9,0,0,0,.07-1.129V5.127c0-.9-.429-1.379-1.219-1.379a1.74,1.74,0,0,0-1.429.79,2.134,2.134,0,0,0-.46.989V7.456a8.05,8.05,0,0,0,.07,1.129Z"/><path class="cls-1" d="M81.472,5.987c-.58,1.319-1.17,1.919-1.889,1.919-.95,0-1.659-1.04-1.659-2.439a4.162,4.162,0,0,1,1.049-2.759A4.175,4.175,0,0,1,82.2,1.379a3.866,3.866,0,0,1,2.748.99,3.343,3.343,0,0,1,.97,2.438,3.64,3.64,0,0,1-2.288,3.448,7.736,7.736,0,0,1-1.52.46,1.578,1.578,0,0,0-.349-.669,6,6,0,0,0,1.669-.47,3.017,3.017,0,0,0,1.768-2.8A2.633,2.633,0,0,0,83.61,2.269a2.873,2.873,0,0,0-1.159-.25A15.024,15.024,0,0,1,81.472,5.987ZM80.242,2.5a3.457,3.457,0,0,0-1.629,2.979c0,.959.42,1.7.959,1.7.42,0,.821-.47,1.25-1.449a13.73,13.73,0,0,0,.909-3.7A3.168,3.168,0,0,0,80.242,2.5Z"/><path class="cls-1" d="M95.929,1.489c-.05.08-.05.08-.22.37A10.09,10.09,0,0,1,94.29,3.838a9.077,9.077,0,0,0,2.528,1.429,2.245,2.245,0,0,0-.339.61,11.3,11.3,0,0,1-2.589-1.63A11.364,11.364,0,0,1,91.9,5.667c.17.01.37.02.78.02H95c.42,0,.61-.01.819-.02a6.286,6.286,0,0,0-.029.859V8.355a6.43,6.43,0,0,0,.05,1.04h-.67v-.56H92.521V9.4h-.66a8.112,8.112,0,0,0,.05-1.04V6.536a8.323,8.323,0,0,0-.03-.859c-.19.1-.27.14-.52.26a1.837,1.837,0,0,0-.36-.5V7.026a6.989,6.989,0,0,0,.061,1h-.6v-.5h-2.15v.889h-.619a7.875,7.875,0,0,0,.06-1.059V1.819a8.279,8.279,0,0,0-.04-.949c.12.01.43.02.939.029h1.44c.46,0,.739-.009.939-.029-.019.2-.03.519-.03.919V3.038A6.224,6.224,0,0,0,92.49,1.289,4.233,4.233,0,0,0,92.96.16l.62.21c-.059.11-.1.21-.24.51-.04.1-.06.139-.11.239h1.519a4.711,4.711,0,0,0,.82-.05ZM88.312,3.878h.8V1.449h-.8Zm0,3.1H89.1V4.408h-.791Zm1.34-3.1h.81V1.449h-.81Zm0,3.1h.81V4.408h-.81ZM91,5.417A9.2,9.2,0,0,0,93.47,3.838,7.43,7.43,0,0,1,92.421,2.4a7.258,7.258,0,0,1-1,1.1,2.352,2.352,0,0,0-.42-.42ZM92.521,8.3h2.648V6.226H92.521Zm.41-6.646c-.071.12-.09.16-.16.27a5.678,5.678,0,0,0,1.088,1.529,6.857,6.857,0,0,0,1.26-1.8Z"/><path class="cls-1" d="M100.581,7.8a1.5,1.5,0,1,1-1.5-1.5A1.5,1.5,0,0,1,100.581,7.8Zm-2.429,0a.93.93,0,1,0,.93-.93A.934.934,0,0,0,98.152,7.8Z"/><path class="cls-1" d="M109.821,2.8a6.026,6.026,0,0,0,1.27,1.948,2.079,2.079,0,0,0-.361.57,7.063,7.063,0,0,1-.979-1.709c.03.839.04,1.169.04,1.739V8.495a5.549,5.549,0,0,0,.061.94h-.741a4.6,4.6,0,0,0,.071-.93V5.547c0-.5.009-.89.049-1.809a8.808,8.808,0,0,1-1.409,3.2,2.349,2.349,0,0,0-.42-.58A8.9,8.9,0,0,0,109.071,2.8h-.809a2.884,2.884,0,0,0-.619.049V2.209a3.186,3.186,0,0,0,.679.05h.85V1.149a4.848,4.848,0,0,0-.061-.829h.741a4.731,4.731,0,0,0-.061.839v1.1h.39a3.17,3.17,0,0,0,.66-.05v.639a3.319,3.319,0,0,0-.65-.049Zm2.349.159c-.44,0-.76.02-1.079.05V2.319a7.4,7.4,0,0,0,1.079.06h3.108a7.363,7.363,0,0,0,1.07-.06v.689a8.411,8.411,0,0,0-1.079-.05h-1.49V5.177h1.129a7.8,7.8,0,0,0,1.07-.05v.68a8.252,8.252,0,0,0-1.07-.05h-1.129V8.315h1.7a9.038,9.038,0,0,0,1.088-.06v.71a9.269,9.269,0,0,0-1.088-.06H111.61a8.951,8.951,0,0,0-1.069.06v-.71a8.527,8.527,0,0,0,1.079.06h1.52V5.757h-.85a10.744,10.744,0,0,0-1.079.05v-.68a8.039,8.039,0,0,0,1.079.05h.85V2.958Zm1.959-.819A10.235,10.235,0,0,0,112.22.86l.389-.46a12.823,12.823,0,0,1,1.9,1.219Z"/><path class="cls-1" d="M121.71,5.987c-.58,1.319-1.17,1.919-1.889,1.919-.95,0-1.659-1.04-1.659-2.439a4.162,4.162,0,0,1,1.049-2.759,4.178,4.178,0,0,1,3.228-1.329,3.864,3.864,0,0,1,2.748.99,3.343,3.343,0,0,1,.97,2.438,3.64,3.64,0,0,1-2.288,3.448,7.745,7.745,0,0,1-1.519.46,1.59,1.59,0,0,0-.35-.669,6,6,0,0,0,1.669-.47,3.015,3.015,0,0,0,1.768-2.8,2.633,2.633,0,0,0-1.588-2.508,2.878,2.878,0,0,0-1.16-.25A15.024,15.024,0,0,1,121.71,5.987ZM120.48,2.5a3.458,3.458,0,0,0-1.628,2.979c0,.959.419,1.7.959,1.7.419,0,.82-.47,1.25-1.449a13.768,13.768,0,0,0,.909-3.7A3.169,3.169,0,0,0,120.48,2.5Z"/><path class="cls-1" d="M129.22,8.175c0,.59.009.93.04,1.24h-.71a8.222,8.222,0,0,0,.06-1.23v-3.1c0-.52.01-1,.04-1.469a7.1,7.1,0,0,1-.929,1.479.9.9,0,0,1-.071-.12,1.11,1.11,0,0,0-.2-.289l-.06-.061c-.02-.01-.04-.05-.08-.079A8.323,8.323,0,0,0,128.67,2.4a9.249,9.249,0,0,0,.7-2.079l.64.18c-.051.12-.1.269-.17.489a16.985,16.985,0,0,1-.62,1.65ZM130.6,3.8a5.259,5.259,0,0,0,1.269-1.09l.41.49a8.365,8.365,0,0,1-1.679,1.21V6.7c0,.27.05.32.36.32.4,0,.47-.05.54-.38a7.709,7.709,0,0,0,.1-1.169,1.883,1.883,0,0,0,.529.32c-.12,1.589-.25,1.789-1.149,1.789-.83,0-.95-.1-.95-.75V2.4a5.308,5.308,0,0,0-.05-.95h.67a6.475,6.475,0,0,0-.05.95Zm3.079,4.078a7.051,7.051,0,0,1-2.15,1.529,2.252,2.252,0,0,0-.439-.52,4.731,4.731,0,0,0,2.079-1.369Zm-.93-6.607a5.112,5.112,0,0,0-.979.06V.65a5.158,5.158,0,0,0,1,.06h2.938a5.977,5.977,0,0,0,1-.06v.679a5.313,5.313,0,0,0-.979-.06h-1.14a7.963,7.963,0,0,1-.41,1.1h1.189a6.48,6.48,0,0,0,.91-.04c-.02.24-.03.519-.03.9V6.456c0,.36.01.62.03.94-.25-.02-.53-.03-.86-.03h-2.179c-.329,0-.569.01-.859.03.02-.32.03-.59.03-.91V3.268a8.024,8.024,0,0,0-.04-.929c.28.02.46.03.869.03h.351a7.154,7.154,0,0,0,.39-1.1Zm.239,2.579h2.669v-.97h-2.669Zm0,1.469h2.669V4.358h-2.669Zm0,1.529h2.669V5.827h-2.669Zm2.159.7a5.148,5.148,0,0,0,1.889,1.3,3.323,3.323,0,0,0-.419.56A7.5,7.5,0,0,1,134.667,7.9Z"/><path class="cls-1" d="M138.79,2.179c.239.02.409.03.749.03a19.742,19.742,0,0,0,2.369-.14,13.217,13.217,0,0,0-.6-1.369l.749-.13a8.268,8.268,0,0,0,.53,1.409,12.643,12.643,0,0,0,2.668-.66l.06.65c-.889.24-1.959.47-2.518.56.149.329.419.859.569,1.129a10.158,10.158,0,0,0,2.289-.62l.08.67c-.17.04-.21.04-.54.13-.7.18-1.2.29-1.569.36a11.655,11.655,0,0,0,1.47,1.988l-.59.42a2.732,2.732,0,0,0-1.1-.38,10.093,10.093,0,0,0-1.309-.089c-1.44,0-2.369.449-2.369,1.139,0,.659.759,1.019,2.129,1.019a6.732,6.732,0,0,0,2.958-.669l.14.779a5.823,5.823,0,0,0-.6.17,8.7,8.7,0,0,1-2.558.37,4.033,4.033,0,0,1-2.059-.42,1.4,1.4,0,0,1-.75-1.239c0-1.08,1.15-1.729,3.049-1.729a6.009,6.009,0,0,1,2.019.29,9.194,9.194,0,0,1-1.07-1.539,20.82,20.82,0,0,1-3.508.289c-.479.02-.519.02-.7.04l-.019-.659a7.745,7.745,0,0,0,.8.03,19.881,19.881,0,0,0,3.147-.25c-.26-.49-.319-.6-.569-1.139a21.458,21.458,0,0,1-2.7.18,5.865,5.865,0,0,0-.62.029Z"/><path class="cls-1" d="M149.309,3.328c-.07,3.238-.289,4.418-1.11,5.927a2,2,0,0,0-.529-.49,5.317,5.317,0,0,0,.71-1.809,23.569,23.569,0,0,0,.3-4.617,11.722,11.722,0,0,0-.04-1.22c.319.03.639.05,1.029.05H152.3V.88a3.267,3.267,0,0,0-.06-.65h.74a3.816,3.816,0,0,0-.05.65v.289h2.738a7.018,7.018,0,0,0,1.09-.06v.66a7.394,7.394,0,0,0-1.039-.05h-6.4l-.01,1.07h1.819v-.16a4.084,4.084,0,0,0-.04-.66h.689a4.5,4.5,0,0,0-.04.65v.17h2.32v-.16a6.248,6.248,0,0,0-.04-.66h.689a3.985,3.985,0,0,0-.04.67v.15h1.2a5.093,5.093,0,0,0,.909-.051v.64a5.213,5.213,0,0,0-.909-.05h-1.2v.98a5.319,5.319,0,0,0,.03.6,5.282,5.282,0,0,0-.649-.02h-2.23a5.887,5.887,0,0,0-.719.02,5.859,5.859,0,0,0,.03-.6v-.98Zm6.216,2.7c-.12.13-.17.179-.339.379a9.032,9.032,0,0,1-1.62,1.46,8.872,8.872,0,0,0,3.259.829,2.475,2.475,0,0,0-.3.66,9.286,9.286,0,0,1-3.538-1.139A10.85,10.85,0,0,1,149.359,9.4a1.99,1.99,0,0,0-.28-.62,10.187,10.187,0,0,0,3.358-.909,6.173,6.173,0,0,1-1.609-1.68,6.1,6.1,0,0,0-.989.051v-.62a6,6,0,0,0,1.009.05h3.629a6.2,6.2,0,0,0,.689-.03Zm-4,.159A4.421,4.421,0,0,0,153,7.546a6.642,6.642,0,0,0,1.6-1.36Zm.21-1.808h2.32V3.328h-2.32Z"/><path class="cls-1" d="M162.727.36a6.86,6.86,0,0,0,1.649,1.809,10.516,10.516,0,0,0,2.738,1.639,2.585,2.585,0,0,0-.4.63A14.01,14.01,0,0,1,163.9,2.6a8.46,8.46,0,0,1-1.54-1.68,9.266,9.266,0,0,1-2.1,2.189,11.579,11.579,0,0,1-2.118,1.3,1.767,1.767,0,0,0-.42-.57A10.436,10.436,0,0,0,160.437,2.1,7.317,7.317,0,0,0,161.978.36ZM159.238,9.3a7.248,7.248,0,0,0,.061-.98V6.107a6.289,6.289,0,0,0-.05-.92,5.284,5.284,0,0,0,.779.04h4.688a5.293,5.293,0,0,0,.779-.04,6.044,6.044,0,0,0-.05.92V8.315a6.95,6.95,0,0,0,.06.98h-.72v-.58h-4.827V9.3Zm.72-1.17h4.827V5.837h-4.827Zm.07-4.727a5.1,5.1,0,0,0,.789.04h3.1a5.971,5.971,0,0,0,.84-.04v.68a6.156,6.156,0,0,0-.84-.04h-3.108a5.751,5.751,0,0,0-.78.04Z"/><path class="cls-1" d="M169.648,1.569a7.243,7.243,0,0,0-.07,1.189,17.023,17.023,0,0,0,.26,3.109c.22,1.019.63,1.709,1.01,1.709.179,0,.349-.17.5-.5a7.186,7.186,0,0,0,.52-1.709,3.222,3.222,0,0,0,.589.57c-.489,1.749-.949,2.418-1.658,2.418-.561,0-1.08-.559-1.42-1.519a15.015,15.015,0,0,1-.539-4.687c-.011-.38-.011-.41-.03-.59Zm4.828.53A8.651,8.651,0,0,1,175.9,4.378a9.527,9.527,0,0,1,.75,2.668l-.71.29a8.815,8.815,0,0,0-2.079-4.927Z"/><path class="cls-1" d="M181.137,1.919A4.206,4.206,0,0,0,181.616.55l.8.14a2.128,2.128,0,0,0-.26.539c-.13.32-.26.59-.309.68a1.7,1.7,0,0,1,.21-.01,14.048,14.048,0,0,0,3.147-.38l.061.68a3.1,3.1,0,0,0-.4.05,32,32,0,0,1-3.3.259,7.324,7.324,0,0,1-.9,1.42c-.1.12-.3.35-.34.38-.07.05-.12.09-.13.1s-.01.009-.01.009v.01a.077.077,0,0,0,.02.03c.36-.279.36-.279.46-.349a2.658,2.658,0,0,1,1.509-.49A1.213,1.213,0,0,1,183.5,4.727c.73-.289,1.3-.5,1.739-.659a2.187,2.187,0,0,0,.68-.29l.32.7a16.569,16.569,0,0,0-2.669.88,6.018,6.018,0,0,1,.021.61c0,.13,0,.35-.011.549-.01.22-.01.36-.01.45a2.072,2.072,0,0,0,.021.36l-.68.01a14.373,14.373,0,0,0,.06-1.439,2.628,2.628,0,0,0-.01-.3c-1.359.64-1.879,1.109-1.879,1.709,0,.66.619.949,2.028.949a8.4,8.4,0,0,0,2.669-.389l.09.769a3.886,3.886,0,0,0-.4.05,15.5,15.5,0,0,1-2.429.2c-1.789,0-2.659-.51-2.659-1.539A2.067,2.067,0,0,1,181.4,5.767a7.763,7.763,0,0,1,1.49-.8c-.08-.55-.32-.789-.789-.789a3.76,3.76,0,0,0-2.23,1.059,3.321,3.321,0,0,0-.769.83l-.56-.56a9.927,9.927,0,0,0,2.239-2.859l.09-.15a1.108,1.108,0,0,1-.19.02c-.159,0-1.1-.02-1.469-.029h-.16a1.969,1.969,0,0,0-.22.009l.01-.689a13.976,13.976,0,0,0,2.139.11Z"/><path class="cls-1" d="M190.807,6.416a12.023,12.023,0,0,1-2.379,1.33,2.306,2.306,0,0,0-.4-.57,8.979,8.979,0,0,0,3.608-2.169h-2.408a8.488,8.488,0,0,0-1.11.06V4.388a5.952,5.952,0,0,0,1.11.059h2.948V3.478h-2.069a7.42,7.42,0,0,0-1.019.04v-.64a7.6,7.6,0,0,0,1.019.04h2.069V1.979h-2.589a7.225,7.225,0,0,0-1.06.05v-.66a7.145,7.145,0,0,0,1.08.06h2.569V1.2a4.66,4.66,0,0,0-.06-.869h.73a4.192,4.192,0,0,0-.061.869v.23h2.749a7.451,7.451,0,0,0,1.1-.06v.66a7.6,7.6,0,0,0-1.08-.05h-2.769v.939H195a8.139,8.139,0,0,0,1.059-.04v.64A8.039,8.039,0,0,0,195,3.478h-2.219v.969h3.129A7.083,7.083,0,0,0,197,4.388v.679a8.473,8.473,0,0,0-1.089-.06h-2.789a5.893,5.893,0,0,0,1.04,1.619,8.029,8.029,0,0,0,1.469-1.4l.58.39a2.526,2.526,0,0,0-.2.19,14.669,14.669,0,0,1-1.45,1.239A7.6,7.6,0,0,0,197.213,8.6a2.661,2.661,0,0,0-.43.6A7.525,7.525,0,0,1,192.5,5.007h-.11a8.631,8.631,0,0,1-.97.93V8.275c.81-.18,1.239-.3,2.259-.6v.609c-1.3.37-2.229.6-3.708.89-.16.04-.34.08-.47.12l-.17-.7a9.641,9.641,0,0,0,1.48-.19Z"/><path class="cls-1" d="M200.816.85a15.276,15.276,0,0,0-.129,2.108c-.041,1.2-.071,2.559-.071,3.009,0,.12.01.369.021.6a1.574,1.574,0,0,0,.469,1.2,1.886,1.886,0,0,0,1.249.389,2.87,2.87,0,0,0,2.679-1.739,5.886,5.886,0,0,0,.489-1.569,2.864,2.864,0,0,0,.72.48A6.1,6.1,0,0,1,205.134,7.6a3.5,3.5,0,0,1-2.819,1.249,2.367,2.367,0,0,1-1.878-.7,2.776,2.776,0,0,1-.55-2.048c0-.67.009-.92.09-4.068.009-.3.009-.49.009-.65a2.961,2.961,0,0,0-.04-.529Z"/><path class="cls-1" d="M208.667,6.656a10.231,10.231,0,0,1,2.009,2.119l-.56.53a9.971,9.971,0,0,0-1.969-2.179Z"/><path class="cls-1" d="M222.005.64a2.709,2.709,0,0,0-.28.509A9.918,9.918,0,0,1,218.576,4.9a2.213,2.213,0,0,0-.489-.539,8.24,8.24,0,0,0,2.738-2.929,3.213,3.213,0,0,0,.43-1.049Zm-.97,3.888a8.223,8.223,0,0,0-1.029.059V3.878a7.67,7.67,0,0,0,1.039.06h3.288a7.566,7.566,0,0,0,1.05-.05,4.412,4.412,0,0,0-.04.709,12.734,12.734,0,0,1-.449,4.1c-.17.3-.411.4-.991.4-.329,0-.679-.02-1.308-.08a2.859,2.859,0,0,0-.16-.71,7.685,7.685,0,0,0,1.409.17c.319,0,.429-.06.5-.249a14.234,14.234,0,0,0,.329-3.7h-2.328a5.7,5.7,0,0,1-.78,2.628,5.864,5.864,0,0,1-2.519,2.179,2.09,2.09,0,0,0-.44-.56,5.086,5.086,0,0,0,2.519-2.189,4.832,4.832,0,0,0,.54-2.058ZM224.144.4a4.009,4.009,0,0,0,.379.839,8.342,8.342,0,0,0,2.949,3.109,2.461,2.461,0,0,0-.47.609A10.114,10.114,0,0,1,223.634.939c-.05-.089-.111-.2-.16-.279Z"/><path class="cls-1" d="M229.574,7.756c-.079.27-.1.349-.22.709l-.7-.08a21.44,21.44,0,0,0,.99-3.847h-.44a7.381,7.381,0,0,0-1.01.059V3.908a7.108,7.108,0,0,0,1.01.06h.529a22.862,22.862,0,0,0,.29-2.849c0-.06,0-.12-.009-.239a4.869,4.869,0,0,0,.729.039h4.707a5.717,5.717,0,0,0,.83-.039,5.223,5.223,0,0,0-.07.669l-.01.3-.09,1.629c-.009.09-.009.17-.03.49h.34a7.108,7.108,0,0,0,1.01-.06V4.6a7.089,7.089,0,0,0-1.01-.059h-.38c-.09,1.009-.189,1.968-.31,2.648h.46a4.792,4.792,0,0,0,.87-.05v.67a5.271,5.271,0,0,0-.88-.05h-.549c-.261,1.379-.431,1.569-1.43,1.569-.349,0-.76-.02-1.159-.05a2.061,2.061,0,0,0-.18-.67,8.936,8.936,0,0,0,1.329.11c.3,0,.47-.07.56-.21a2.717,2.717,0,0,0,.22-.749Zm.731-3.218c-.17,1-.311,1.678-.561,2.648h5.348c.12-.73.2-1.389.309-2.648Zm5.146-.57c.07-1.1.08-1.23.12-2.479h-4.887c-.1,1.159-.13,1.359-.3,2.479Zm-2.288,2.918a8.3,8.3,0,0,0-1.689-1.709l.509-.37a10.819,10.819,0,0,1,1.69,1.609Zm.39-3.138a7.85,7.85,0,0,0-1.669-1.629l.5-.37a11.894,11.894,0,0,1,1.669,1.529Z"/><path class="cls-1" d="M238.625,3.158a20.538,20.538,0,0,0,2.209-.26,12.329,12.329,0,0,0,.3-2.119V.65l.8.089a6.148,6.148,0,0,0-.19.96c-.04.25-.13.71-.21,1.139a5.826,5.826,0,0,1,.59-.029,1.91,1.91,0,0,1,1.439.419,2.017,2.017,0,0,1,.49,1.609,6.884,6.884,0,0,1-.67,3.438,1.044,1.044,0,0,1-.98.47,3.754,3.754,0,0,1-1.508-.39A2.338,2.338,0,0,0,240.913,8a1.908,1.908,0,0,0-.029-.39,3.73,3.73,0,0,0,1.489.46c.25,0,.439-.16.569-.48a7.735,7.735,0,0,0,.42-2.779c0-1.059-.3-1.4-1.229-1.4a5.742,5.742,0,0,0-.72.05A19.428,19.428,0,0,1,239.255,8.9l-.68-.4a14.759,14.759,0,0,0,2.139-4.977,12.994,12.994,0,0,0-2.009.36Zm6.566-.919a9.14,9.14,0,0,1,2.089,3.538l-.639.36A8.44,8.44,0,0,0,244.6,2.549Zm.45-1.7a7.553,7.553,0,0,1,1.029,1.549l-.5.3A7.7,7.7,0,0,0,245.142.8Zm1.13-.54A8.066,8.066,0,0,1,247.8,1.549l-.5.29A7.237,7.237,0,0,0,246.28.27Z"/><path class="cls-1" d="M253.212,3.418a7.967,7.967,0,0,0,1.629,3.218,7.069,7.069,0,0,0,2.709,1.949,2.811,2.811,0,0,0-.441.67,7.839,7.839,0,0,1-4.2-4.937,6.234,6.234,0,0,1-1.949,3.588,7.807,7.807,0,0,1-2.158,1.359,2.076,2.076,0,0,0-.43-.61A6.3,6.3,0,0,0,251,6.906a6.144,6.144,0,0,0,1.39-3.488h-2.719a6.076,6.076,0,0,0-1.1.07v-.78a6.077,6.077,0,0,0,1.119.071h2.759c.03-.48.04-.79.04-1.18a7.492,7.492,0,0,0-.07-1.089h.82a5.9,5.9,0,0,0-.07,1.039c-.01.51-.02.8-.05,1.23h3.028a6.175,6.175,0,0,0,1.11-.071v.78a6.527,6.527,0,0,0-1.1-.07Z"/><path class="cls-1" d="M259.5,2.179c.239.02.409.03.749.03a19.742,19.742,0,0,0,2.369-.14,12.887,12.887,0,0,0-.6-1.369l.749-.13a8.371,8.371,0,0,0,.531,1.409,12.643,12.643,0,0,0,2.668-.66l.06.65c-.889.24-1.959.47-2.518.56.149.329.419.859.569,1.129a10.175,10.175,0,0,0,2.289-.62l.08.67c-.17.04-.21.04-.54.13-.7.18-1.2.29-1.569.36a11.655,11.655,0,0,0,1.47,1.988l-.59.42a2.732,2.732,0,0,0-1.1-.38,10.106,10.106,0,0,0-1.309-.089c-1.44,0-2.369.449-2.369,1.139,0,.659.759,1.019,2.129,1.019a6.732,6.732,0,0,0,2.958-.669l.14.779a5.823,5.823,0,0,0-.6.17,8.7,8.7,0,0,1-2.558.37,4.033,4.033,0,0,1-2.059-.42,1.4,1.4,0,0,1-.75-1.239c0-1.08,1.15-1.729,3.049-1.729a6.009,6.009,0,0,1,2.019.29,9.194,9.194,0,0,1-1.07-1.539,20.83,20.83,0,0,1-3.508.289c-.479.02-.519.02-.7.04l-.019-.659a7.736,7.736,0,0,0,.8.03,19.918,19.918,0,0,0,3.149-.25c-.261-.49-.32-.6-.57-1.139a21.458,21.458,0,0,1-2.7.18,5.847,5.847,0,0,0-.62.029Z"/><path class="cls-1" d="M270.243,1.569a7.132,7.132,0,0,0-.07,1.189,17.113,17.113,0,0,0,.26,3.109c.219,1.019.629,1.709,1.009,1.709.18,0,.35-.17.5-.5a7.139,7.139,0,0,0,.521-1.709,3.19,3.19,0,0,0,.589.57c-.489,1.749-.949,2.418-1.658,2.418-.561,0-1.081-.559-1.42-1.519a14.984,14.984,0,0,1-.539-4.687,5.6,5.6,0,0,0-.031-.59Zm4.827.53A8.629,8.629,0,0,1,276.5,4.378a9.56,9.56,0,0,1,.75,2.668l-.71.29a8.822,8.822,0,0,0-2.079-4.927Z"/><path class="cls-1" d="M279.593,8.925a4.036,4.036,0,0,0-.09-.76,19.116,19.116,0,0,1-.17-2.478,20.18,20.18,0,0,1,.529-4.388,4.455,4.455,0,0,0,.1-.54l.769.121a9.4,9.4,0,0,0-.41,1.539,16.6,16.6,0,0,0-.349,3.338c0,.24.009.48.019.709.011.25.011.25.011.5,0,.09.01.17.01.55l.029.01a2.507,2.507,0,0,0,.11-.38,14.2,14.2,0,0,1,.58-1.579l.48.24a9.848,9.848,0,0,0-.909,2.958.636.636,0,0,0,.009.12Zm7.446-.719a5.863,5.863,0,0,0-1.31-.97c-.2-.12-.2-.12-.219-.12-.111-.05-.111-.05-.16-.07a1.248,1.248,0,0,1,.019.28,1.766,1.766,0,0,1-.13.73,1.763,1.763,0,0,1-1.688.769c-1.12,0-1.839-.54-1.839-1.379s.789-1.4,1.938-1.4a2.968,2.968,0,0,1,1.06.179c-.021-.139-.05-.779-.07-1.908-.53.02-.76.03-1.19.03-.449,0-.689-.01-1.419-.05a1.541,1.541,0,0,0-.21-.01h-.08l.021-.67a6.955,6.955,0,0,0,1.659.14c.329,0,.72-.01,1.2-.03-.01-.52-.01-.67-.01-.79,0-.18,0-.379.02-.819-.39.02-.64.03-1.02.03-.409,0-.819-.01-1.2-.04-.359-.02-.41-.02-.6-.02l.03-.66a7.379,7.379,0,0,0,1.709.14,12.962,12.962,0,0,0,3.347-.38l.021.65-.57.09c-.36.07-.669.11-1.07.15-.009.34-.019.54-.019.829v.78a7.421,7.421,0,0,0,1.749-.34l.019.66a2.419,2.419,0,0,0-.279.05,13.174,13.174,0,0,1-1.479.21c.02,1.169.03,1.489.07,2.118a7.457,7.457,0,0,1,1.728.94,2.031,2.031,0,0,0,.271.19Zm-3.349-1.58c-.819,0-1.319.31-1.319.82,0,.489.45.79,1.19.79.789,0,1.159-.32,1.159-1,0-.08-.01-.42-.02-.43A2.916,2.916,0,0,0,283.69,6.626Z"/><path class="cls-1" d="M292.021.72a18.222,18.222,0,0,0,.75,3.308c.549-.23.879-.36,2.418-.89a4.524,4.524,0,0,0,.64-.27l.3.76a26.449,26.449,0,0,0-3.009.969c-1.709.69-2.448,1.35-2.448,2.179,0,.9.769,1.26,2.728,1.26a9.921,9.921,0,0,0,2.859-.34l.08.829a2.61,2.61,0,0,0-.3.01l-.1.01-.339.04a20.041,20.041,0,0,1-2.208.13,6.788,6.788,0,0,1-2.219-.27,1.659,1.659,0,0,1-1.24-1.639,2.163,2.163,0,0,1,.889-1.7,6.2,6.2,0,0,1,1.31-.819A20.173,20.173,0,0,1,291.4,1.5a4.13,4.13,0,0,0-.17-.639ZM295.4.57a7.99,7.99,0,0,1,1.03,1.549l-.51.3A7.761,7.761,0,0,0,294.9.83Zm1.12-.55a7.942,7.942,0,0,1,1.039,1.559l-.5.28A8.4,8.4,0,0,0,296.039.29Z"/><path class="cls-1" d="M300.231,8.175c0,.59.01.93.04,1.24h-.709a8.359,8.359,0,0,0,.06-1.23v-3.1c0-.52.01-1,.04-1.469a7.059,7.059,0,0,1-.93,1.479,1,1,0,0,1-.07-.12,1.11,1.11,0,0,0-.2-.289c-.021-.021-.04-.041-.061-.061s-.04-.05-.08-.079a8.351,8.351,0,0,0,1.36-2.149,9.351,9.351,0,0,0,.7-2.079l.639.18c-.05.12-.1.269-.169.489a16.756,16.756,0,0,1-.621,1.65ZM301.61,3.8a5.282,5.282,0,0,0,1.27-1.09l.41.49a8.4,8.4,0,0,1-1.68,1.21V6.7c0,.27.051.32.361.32.4,0,.469-.05.54-.38a7.612,7.612,0,0,0,.1-1.169,1.888,1.888,0,0,0,.53.32c-.12,1.589-.25,1.789-1.15,1.789-.829,0-.949-.1-.949-.75V2.4a5.406,5.406,0,0,0-.05-.95h.67a6.458,6.458,0,0,0-.051.95Zm3.079,4.078A7.046,7.046,0,0,1,302.54,9.4a2.277,2.277,0,0,0-.439-.52,4.731,4.731,0,0,0,2.079-1.369Zm-.929-6.607a5.129,5.129,0,0,0-.98.06V.65a5.17,5.17,0,0,0,1,.06h2.939a5.985,5.985,0,0,0,1-.06v.679a5.325,5.325,0,0,0-.98-.06H305.6a7.948,7.948,0,0,1-.411,1.1h1.19a6.48,6.48,0,0,0,.91-.04c-.02.24-.03.519-.03.9V6.456c0,.36.01.62.03.94-.25-.02-.53-.03-.86-.03h-2.179c-.329,0-.569.01-.859.03.02-.32.03-.59.03-.91V3.268a8.024,8.024,0,0,0-.04-.929c.28.02.46.03.869.03h.351a7.041,7.041,0,0,0,.389-1.1ZM304,3.848h2.669v-.97H304Zm0,1.469h2.669V4.358H304Zm0,1.529h2.669V5.827H304Zm2.159.7a5.131,5.131,0,0,0,1.889,1.3,3.219,3.219,0,0,0-.419.56A7.5,7.5,0,0,1,305.679,7.9Z"/><path class="cls-1" d="M309.8,2.179c.239.02.409.03.749.03a19.742,19.742,0,0,0,2.369-.14A13.119,13.119,0,0,0,312.32.7l.749-.13a8.371,8.371,0,0,0,.531,1.409,12.643,12.643,0,0,0,2.668-.66l.06.65c-.89.24-1.959.47-2.518.56.149.329.419.859.569,1.129a10.175,10.175,0,0,0,2.289-.62l.08.67c-.17.04-.21.04-.54.13-.7.18-1.2.29-1.569.36a11.7,11.7,0,0,0,1.469,1.988l-.589.42a2.732,2.732,0,0,0-1.1-.38,10.109,10.109,0,0,0-1.31-.089c-1.439,0-2.368.449-2.368,1.139,0,.659.759,1.019,2.129,1.019a6.732,6.732,0,0,0,2.958-.669l.14.779a5.823,5.823,0,0,0-.6.17,8.7,8.7,0,0,1-2.558.37,4.033,4.033,0,0,1-2.059-.42A1.4,1.4,0,0,1,310,7.286c0-1.08,1.149-1.729,3.049-1.729a6,6,0,0,1,2.018.29A9.255,9.255,0,0,1,314,4.308a20.83,20.83,0,0,1-3.508.289c-.479.02-.519.02-.7.04l-.02-.659a7.772,7.772,0,0,0,.8.03,19.9,19.9,0,0,0,3.148-.25c-.26-.49-.32-.6-.57-1.139a21.427,21.427,0,0,1-2.7.18,5.847,5.847,0,0,0-.62.029Z"/><path class="cls-1" d="M319.1,3.158a20.538,20.538,0,0,0,2.209-.26,12.412,12.412,0,0,0,.3-2.119V.65l.8.089a6.317,6.317,0,0,0-.189.96c-.04.25-.13.71-.21,1.139a5.8,5.8,0,0,1,.59-.029,1.91,1.91,0,0,1,1.439.419,2.017,2.017,0,0,1,.489,1.609,6.873,6.873,0,0,1-.67,3.438,1.042,1.042,0,0,1-.979.47,3.754,3.754,0,0,1-1.509-.39A2.222,2.222,0,0,0,321.39,8a1.845,1.845,0,0,0-.03-.39,3.733,3.733,0,0,0,1.49.46c.25,0,.439-.16.569-.48a7.757,7.757,0,0,0,.42-2.779c0-1.059-.3-1.4-1.23-1.4a5.74,5.74,0,0,0-.719.05A19.4,19.4,0,0,1,319.731,8.9l-.679-.4a14.759,14.759,0,0,0,2.138-4.977,12.971,12.971,0,0,0-2.008.36Zm6.566-.919a9.153,9.153,0,0,1,2.089,3.538l-.64.36a8.43,8.43,0,0,0-2.039-3.588Zm.449-1.7a7.512,7.512,0,0,1,1.029,1.549l-.5.3A7.664,7.664,0,0,0,325.618.8Zm1.13-.54a8.066,8.066,0,0,1,1.029,1.549l-.5.29A7.269,7.269,0,0,0,326.757.27Z"/><path class="cls-1" d="M331.56,2.039c-.06.15-.121.28-.23.58a9.035,9.035,0,0,1-1.869,3.2,2.133,2.133,0,0,0-.58-.49,6.875,6.875,0,0,0,1.629-2.419,5.672,5.672,0,0,0,.36-1.129Zm5.027,3.008c-.05.06-.05.06-.14.18-.04.06-.04.06-.27.39a8.451,8.451,0,0,1-2.489,2.419,11.308,11.308,0,0,1-3.868,1.409,1.926,1.926,0,0,0-.4-.67,10.313,10.313,0,0,0,3.8-1.259A6.692,6.692,0,0,0,335.957,4.6ZM333.858.34a6.644,6.644,0,0,0-.059,1.009V5.327c0,.61-.21.76-1.08.76-.28,0-.659-.02-1.049-.05a2.075,2.075,0,0,0-.15-.7,6.418,6.418,0,0,0,1.139.14c.37,0,.46-.04.46-.22V1.349a5.866,5.866,0,0,0-.06-1.009Zm2.089,1.389a4.82,4.82,0,0,0,.57,1.209A6.321,6.321,0,0,0,338.1,4.657a3.09,3.09,0,0,0-.49.57,8.988,8.988,0,0,1-1.239-1.349,8.4,8.4,0,0,1-.859-1.459c-.13-.24-.151-.27-.221-.39Z"/><path class="cls-1" d="M342.548.65a3.136,3.136,0,0,0-.16.639c-.071.34-.13.58-.27,1.09a8.323,8.323,0,0,0,1.789-.33l.03.689-.35.061a12.212,12.212,0,0,1-1.639.209,18.617,18.617,0,0,1-1.109,2.919c-.24.479-.33.649-.71,1.309-.09.14-.15.26-.2.34l-.679-.4a8.917,8.917,0,0,0,.959-1.559,14.879,14.879,0,0,0,1.039-2.579c-.249.01-.589.02-.739.02-.17,0-.51-.01-.659-.01-.111-.01-.191-.01-.221-.01h-.13l.011-.689a6.307,6.307,0,0,0,1.189.08c.2,0,.53-.01.719-.01a10.294,10.294,0,0,0,.34-1.879ZM347.3,8.4a5.74,5.74,0,0,0-1.749-1.359,2.073,2.073,0,0,1,.02.32c0,1.029-.679,1.6-1.9,1.6-1.2,0-1.949-.56-1.949-1.449a1.416,1.416,0,0,1,.929-1.269,2.922,2.922,0,0,1,1.18-.22,3.333,3.333,0,0,1,1.01.149c-.051-.649-.07-1.119-.07-1.369a4.039,4.039,0,0,1,.1-.969l.68.07a3.063,3.063,0,0,0-.13.929,11.9,11.9,0,0,0,.11,1.519,7.192,7.192,0,0,1,1.959,1.21,1.012,1.012,0,0,0,.18.16Zm-3.518-1.789c-.849,0-1.389.35-1.389.9,0,.51.479.819,1.269.819.86,0,1.249-.339,1.249-1.089,0-.12-.019-.43-.019-.43A2.967,2.967,0,0,0,343.777,6.616ZM347.285,3.9a10.813,10.813,0,0,0-2.648-1.359l.37-.56A13.85,13.85,0,0,1,347.645,3.3Z"/><path class="cls-1" d="M350.719,1.569a7.111,7.111,0,0,0-.071,1.189,17.113,17.113,0,0,0,.26,3.109c.22,1.019.63,1.709,1.01,1.709.18,0,.35-.17.5-.5a7.14,7.14,0,0,0,.52-1.709,3.222,3.222,0,0,0,.589.57c-.489,1.749-.949,2.418-1.658,2.418-.56,0-1.08-.559-1.42-1.519a15.046,15.046,0,0,1-.539-4.687c-.011-.38-.011-.41-.03-.59Zm4.827.53a8.681,8.681,0,0,1,1.429,2.279,9.594,9.594,0,0,1,.75,2.668l-.71.29a8.829,8.829,0,0,0-2.079-4.927Z"/><path class="cls-1" d="M362.037,5.107c-.649.54-.949,1-.949,1.469s.29.79.849.98a6.368,6.368,0,0,0,1.83.2,9.477,9.477,0,0,0,3-.38l.089.819a3.062,3.062,0,0,0-.339.051,16.408,16.408,0,0,1-2.7.229,7.037,7.037,0,0,1-2.3-.31,1.591,1.591,0,0,1-1.14-1.509,2.629,2.629,0,0,1,1.149-1.929Zm-1.05-3.648a11.435,11.435,0,0,0,2.659.24,10.932,10.932,0,0,0,2.529-.21l.05.66a14.225,14.225,0,0,0-2.519,1.519l-.51-.41a15.355,15.355,0,0,1,1.329-.829c.111-.06.131-.07.25-.13.071-.04.09-.04.191-.1a7.9,7.9,0,0,1-1.51.13,19.525,19.525,0,0,1-2.2-.13,2.349,2.349,0,0,0-.33-.03Z"/><path class="cls-1" d="M372.526.65a17.471,17.471,0,0,0,.75,3.308c.59-.24.87-.35,2.418-.89a5.469,5.469,0,0,0,.64-.259l.3.759a22.989,22.989,0,0,0-3.009.97c-1.709.679-2.448,1.339-2.448,2.168,0,.91.769,1.26,2.728,1.26a9.926,9.926,0,0,0,2.859-.34l.079.829a5.183,5.183,0,0,0-.74.06,20.015,20.015,0,0,1-2.208.13,6.792,6.792,0,0,1-2.219-.27,1.658,1.658,0,0,1-1.24-1.639,2.163,2.163,0,0,1,.89-1.7,6.228,6.228,0,0,1,1.31-.809,20.246,20.246,0,0,1-.73-2.8,3.345,3.345,0,0,0-.17-.63Z"/><path class="cls-1" d="M382.326,1.919a4.241,4.241,0,0,0,.48-1.369l.8.14a2.182,2.182,0,0,0-.259.539c-.13.32-.26.59-.31.68a1.7,1.7,0,0,1,.21-.01,14.051,14.051,0,0,0,3.148-.38l.06.68a3.082,3.082,0,0,0-.4.05,32,32,0,0,1-3.3.259,7.374,7.374,0,0,1-.9,1.42c-.1.12-.3.35-.339.38a1.306,1.306,0,0,0-.13.1c0,.009-.01.009-.01.009v.01a.091.091,0,0,0,.019.03c.361-.279.361-.279.46-.349a2.661,2.661,0,0,1,1.509-.49,1.214,1.214,0,0,1,1.32,1.109c.729-.289,1.3-.5,1.739-.659a2.213,2.213,0,0,0,.68-.29l.32.7a16.537,16.537,0,0,0-2.669.88c.02.26.02.36.02.61,0,.13,0,.35-.01.549-.01.22-.01.36-.01.45a2.174,2.174,0,0,0,.02.36l-.679.01c.029-.22.059-.83.059-1.439a2.918,2.918,0,0,0-.009-.3c-1.36.64-1.879,1.109-1.879,1.709,0,.66.619.949,2.028.949a8.408,8.408,0,0,0,2.669-.389l.09.769a3.9,3.9,0,0,0-.4.05,15.5,15.5,0,0,1-2.428.2c-1.789,0-2.66-.51-2.66-1.539a2.066,2.066,0,0,1,1.02-1.579,7.749,7.749,0,0,1,1.489-.8c-.08-.55-.319-.789-.789-.789a3.755,3.755,0,0,0-2.229,1.059,3.309,3.309,0,0,0-.77.83l-.559-.56a9.961,9.961,0,0,0,2.239-2.859l.09-.15a1.12,1.12,0,0,1-.191.02c-.159,0-1.1-.02-1.469-.029h-.16a1.952,1.952,0,0,0-.219.009l.009-.689a13.986,13.986,0,0,0,2.139.11Z"/><path class="cls-1" d="M392.046,5A8.573,8.573,0,0,1,389.9,8.455a2.552,2.552,0,0,0-.57-.459,6.868,6.868,0,0,0,2.079-3.249Zm-1.509-1.119a7.686,7.686,0,0,0-1.04.06V3.2a7.236,7.236,0,0,0,1.05.06h6.467a7.408,7.408,0,0,0,1.048-.06v.74a7.649,7.649,0,0,0-1.039-.06h-2.838V8.355c0,.65-.2.8-1.089.8-.39,0-.91-.02-1.32-.06a2.327,2.327,0,0,0-.17-.69,8.607,8.607,0,0,0,1.429.13c.41,0,.481-.04.481-.25V3.878Zm6.526-2.219a8.021,8.021,0,0,0-1.049-.06h-4.558a8.3,8.3,0,0,0-1.039.06V.929a7.332,7.332,0,0,0,1.05.06h4.556a7.472,7.472,0,0,0,1.04-.06Zm-.879,3.078a9.433,9.433,0,0,0,1.369,2.319,6.674,6.674,0,0,0,.79.83,2.946,2.946,0,0,0-.56.519A10.82,10.82,0,0,1,395.594,5Z"/><path class="cls-1" d="M402.006.85a15.031,15.031,0,0,0-.13,2.108c-.04,1.2-.07,2.559-.07,3.009,0,.12.009.369.02.6a1.571,1.571,0,0,0,.47,1.2,1.882,1.882,0,0,0,1.249.389,2.872,2.872,0,0,0,2.679-1.739,5.959,5.959,0,0,0,.489-1.569,2.829,2.829,0,0,0,.72.48,6.085,6.085,0,0,1-1.11,2.269,3.5,3.5,0,0,1-2.818,1.249,2.368,2.368,0,0,1-1.879-.7,2.78,2.78,0,0,1-.55-2.048c0-.67.01-.92.09-4.068.01-.3.01-.49.01-.65a3.057,3.057,0,0,0-.04-.529Z"/><path class="cls-1" d="M409.856,2.049h.36c.14,0,.261-.01.57-.03,1.19-.09,4.388-.27,5.677-.33a6.709,6.709,0,0,0,1.189-.11l.06.75a4.63,4.63,0,0,0-1.119.13,5.072,5.072,0,0,0-1.919,1.009,3.055,3.055,0,0,0-1.23,2.309,1.96,1.96,0,0,0,1.4,1.849,5.108,5.108,0,0,0,1.5.319h.1l-.13.81c-.109-.02-.149-.03-.309-.06a5.058,5.058,0,0,1-2.159-.769,2.436,2.436,0,0,1-1.11-2.039,3.789,3.789,0,0,1,1.87-3.069,6.64,6.64,0,0,1,.95-.529,19.2,19.2,0,0,1-2.2.219,29.341,29.341,0,0,0-3.448.33Z"/><path class="cls-1" d="M421.136,1.569a7.111,7.111,0,0,0-.071,1.189,17.2,17.2,0,0,0,.26,3.109c.22,1.019.63,1.709,1.01,1.709.18,0,.35-.17.5-.5a7.14,7.14,0,0,0,.52-1.709,3.222,3.222,0,0,0,.589.57c-.489,1.749-.949,2.418-1.658,2.418-.56,0-1.08-.559-1.42-1.519a15.046,15.046,0,0,1-.539-4.687c-.011-.38-.011-.41-.03-.59Zm4.827.53a8.681,8.681,0,0,1,1.429,2.279,9.594,9.594,0,0,1,.75,2.668l-.71.29a8.829,8.829,0,0,0-2.079-4.927Z"/><path class="cls-1" d="M437.342,8.545A8.082,8.082,0,0,0,435.3,7.116c-.17-.09-.4-.19-.67-.3a2.875,2.875,0,0,1,.02.36,1.731,1.731,0,0,1-.25,1.089,2.011,2.011,0,0,1-1.689.63,2.6,2.6,0,0,1-1.549-.4,1.3,1.3,0,0,1-.54-1.049c0-.66.52-1.179,1.4-1.379a4.353,4.353,0,0,1,1.039-.1,4.442,4.442,0,0,1,.9.08c-.01-.03-.01-.03-.01-.12a.8.8,0,0,1-.01-.11c-.009-.09-.009-.3-.019-.59-.011-.13-.011-.32-.021-.58-.359.01-.859.02-1.179.02-.6,0-1.07-.02-1.689-.07-.11-.01-.19-.01-.25-.01h-.08l.01-.659a12.261,12.261,0,0,0,2.289.16c.26,0,.609,0,.89-.01l-.021-1.37c-.289.01-.449.01-.68.01-.729,0-1.539-.03-2.438-.1a1.207,1.207,0,0,0-.18-.01.8.8,0,0,0-.139.01l.009-.68a12.412,12.412,0,0,0,2.559.2c.2,0,.54-.01.869-.01a7.8,7.8,0,0,0-.05-1.439h.77a11.127,11.127,0,0,0-.07,1.409,14.072,14.072,0,0,0,2.958-.41l.05.68c-.17.01-.17.01-.689.08a20.535,20.535,0,0,1-2.319.239c.01.82.01.82.02,1.35a12.068,12.068,0,0,0,2.769-.41l.04.69c-.13.01-.23.02-.581.07-.689.109-1.478.189-2.218.239.02.56.02.56.06,1.53A8.721,8.721,0,0,1,437.4,7.616a3.539,3.539,0,0,0,.34.23Zm-3.379-1.889a3.659,3.659,0,0,0-1.019-.11c-.99,0-1.639.36-1.639.89s.5.829,1.369.829a1.441,1.441,0,0,0,1.1-.33,1.3,1.3,0,0,0,.2-.9Z"/><path class="cls-1" d="M444.562,1.2a3.261,3.261,0,0,0-.04-.579h.75a8.3,8.3,0,0,0-.049,1.249v.11c1.888-.01,2.658-.03,2.988-.07v.71a17.762,17.762,0,0,0-1.909-.05c-.151,0-.26,0-1.07.02V4.567a2.865,2.865,0,0,1,.24,1.18,3.217,3.217,0,0,1-1.339,2.608,6.37,6.37,0,0,1-1.579.81,2.2,2.2,0,0,0-.44-.63,5.142,5.142,0,0,0,1.619-.749,2.592,2.592,0,0,0,1.12-2.109,1.4,1.4,0,0,1-.27.489,1.67,1.67,0,0,1-2.9-1.039,1.662,1.662,0,0,1,1.768-1.649,1.531,1.531,0,0,1,1.159.45c-.009-.14-.009-.18-.009-.55,0-.04-.01-.14-.01-.26V2.6c-2.009.04-4.029.139-4.7.249l-.031-.729c.18.01.25.01.4.01.29,0,.29,0,1.9-.06.959-.04,1.739-.06,2.419-.08Zm-.429,3.009a1.279,1.279,0,0,0-.67-.16A1.057,1.057,0,0,0,442.354,5.1a.966.966,0,0,0,1.029.99,1.121,1.121,0,0,0,1.17-1.18A.722.722,0,0,0,444.133,4.208Z"/><path class="cls-1" d="M452.662,7.8a1.5,1.5,0,1,1-1.5-1.5A1.5,1.5,0,0,1,452.662,7.8Zm-2.429,0a.93.93,0,1,0,.93-.93A.934.934,0,0,0,450.233,7.8Z"/><path class="cls-1" d="M7.416,16.734l.32.33L4.188,20.632,7.736,24.18l-.32.33L3.868,20.992.33,24.51,0,24.18l3.549-3.548L0,17.064l.33-.33,3.538,3.548ZM1.77,20.622a.762.762,0,0,1-.76.77.777.777,0,0,1-.77-.77.765.765,0,0,1,1.53,0ZM4.628,23.54a.775.775,0,0,1-.76.77A.771.771,0,0,1,3.8,22.771h.029c.01.01.01.01.021.01l.019-.01A.762.762,0,0,1,4.628,23.54Zm.01-5.806a.762.762,0,0,1-.76.769.777.777,0,0,1-.77-.769.769.769,0,0,1,.77-.76A.76.76,0,0,1,4.638,17.734Zm2.848,2.9a.76.76,0,1,1-.759-.76A.759.759,0,0,1,7.486,20.632Z"/><path class="cls-1" d="M10.261,18.723a4,4,0,0,0-.72.05v-.66a3.8,3.8,0,0,0,.72.05h.559v-.949a5.745,5.745,0,0,0-.06-1.01h.729a5.506,5.506,0,0,0-.059,1v.959h.46a3.488,3.488,0,0,0,.589-.04v.64a3.613,3.613,0,0,0-.6-.04h-.45v1.8c.309-.12.489-.2.949-.4v.58c-.38.17-.48.21-.949.4V24.38c0,.56-.22.71-1.01.71-.21,0-.47-.01-.73-.03a2.089,2.089,0,0,0-.149-.62,5.956,5.956,0,0,0,.919.07c.29,0,.36-.06.36-.29V21.341c-.41.15-.5.18-.729.26-.16.06-.351.13-.521.2l-.149-.649a6.569,6.569,0,0,0,1.4-.41V18.723Zm2.758,3.628a4.264,4.264,0,0,0-.02-.51,6.287,6.287,0,0,1-.92.73,1.364,1.364,0,0,0-.39-.47,5.494,5.494,0,0,0,2.179-2.259h-.109c-.391,0-.66.01-.9.03.02-.27.03-.519.03-.849V17.414c0-.33-.01-.59-.03-.84a7.9,7.9,0,0,0,.94.04h2.858a7.555,7.555,0,0,0,.949-.04,8.013,8.013,0,0,0-.04.82v1.659a7.02,7.02,0,0,0,.04.819c-.269-.02-.57-.03-.96-.03H14.488a5.565,5.565,0,0,1-.44.77h3.318a7.348,7.348,0,0,0,.77-.03c-.02.1-.02.2-.06.919a17.671,17.671,0,0,1-.32,2.819c-.15.62-.38.76-1.19.76a9.145,9.145,0,0,1-.928-.051,2.011,2.011,0,0,0-.141-.619,7.124,7.124,0,0,0,1.08.1c.34,0,.489-.08.569-.3a15.442,15.442,0,0,0,.321-3.068H13.658c-.17.209-.269.31-.47.519h.441a3.764,3.764,0,0,0-.04.67,8.829,8.829,0,0,0,2.528-.75l.33.48a12.408,12.408,0,0,1-2.858.78v.53c0,.219.2.269,1.189.269.839,0,1.089-.05,1.179-.22a1.928,1.928,0,0,0,.15-.739,1.819,1.819,0,0,0,.539.25,1.579,1.579,0,0,1-.289.919c-.22.25-.54.31-1.659.31-1.479,0-1.679-.08-1.679-.68Zm.46-4.378h3.488v-.829H13.479Zm0,1.36h3.488v-.86H13.479Z"/><path class="cls-1" d="M27.966,19.8c-.05.11-.06.15-.21.59a10.651,10.651,0,0,1-1.15,2.549,4.439,4.439,0,0,0,.6,1.139c.16.21.33.36.391.36.04,0,.119-.11.159-.25A5.229,5.229,0,0,0,28,22.971a1.929,1.929,0,0,0,.529.41c-.21,1.239-.479,1.759-.9,1.759-.439,0-.959-.59-1.429-1.6a7.422,7.422,0,0,1-1.739,1.709,1.8,1.8,0,0,0-.529-.419A6.779,6.779,0,0,0,25.947,22.9a14.435,14.435,0,0,1-.609-4.188H20.391a6.822,6.822,0,0,0-.991.06v-.64a6.45,6.45,0,0,0,.991.06H21.97v-.7H20.86a5.005,5.005,0,0,0-.87.05v-.61a5,5,0,0,0,.87.05h1.11v-.19a2.421,2.421,0,0,0-.061-.66h.68a2.6,2.6,0,0,0-.06.66v.19h1.15a4.866,4.866,0,0,0,.859-.05v.61a4.935,4.935,0,0,0-.859-.05h-1.15v.7h2.788c-.009-.5-.019-.889-.019-1.179a5.547,5.547,0,0,0-.061-.79h.73a5.494,5.494,0,0,0-.06,1.09c0,.3,0,.479.01.879h1.409a6.4,6.4,0,0,0,.989-.06v.64a6.687,6.687,0,0,0-.989-.06h-1.4a14.521,14.521,0,0,0,.44,3.528,7.845,7.845,0,0,0,.949-2.649Zm-3.907-.349a4.809,4.809,0,0,0,.849-.05v.569a5.093,5.093,0,0,0-.849-.05h-1.49v.57H23.8a6.173,6.173,0,0,0,.829-.04,4.522,4.522,0,0,0-.04.68v1.219a4.522,4.522,0,0,0,.04.68,6.566,6.566,0,0,0-.829-.04h-1.23v.559H23.9a6.611,6.611,0,0,0,.85-.04v.57a6.344,6.344,0,0,0-.779-.04h-1.4v.35a4.879,4.879,0,0,0,.05.8H21.97a5.108,5.108,0,0,0,.05-.8v-.35H20.33a5.207,5.207,0,0,0-.869.05V23.5a5.063,5.063,0,0,0,.869.05h1.69v-.559H20.86a6.482,6.482,0,0,0-.83.04,5,5,0,0,0,.04-.68V21.132a5.1,5.1,0,0,0-.04-.68,6.19,6.19,0,0,0,.83.04h1.16v-.57H20.561a5.366,5.366,0,0,0-.871.05V19.4a5.226,5.226,0,0,0,.871.05H22.02a5.185,5.185,0,0,0-.05-.54h.639c-.03.25-.03.32-.04.54ZM22.02,20.932h-1.4v.579h1.4Zm0,1h-1.4v.62h1.4Zm2.028-.42v-.579H22.569v.579Zm0,1.04v-.62H22.569v.62Zm3.448-4.6a5.548,5.548,0,0,0-1.169-1.26l.44-.28a5.806,5.806,0,0,1,1.17,1.2Z"/><path class="cls-1" d="M33.488,18.153a3.554,3.554,0,0,0,.67-.04v.6a3.807,3.807,0,0,0-.679-.04H32.5a3.886,3.886,0,0,0,1.22.98,1.928,1.928,0,0,0-.39.479,3.882,3.882,0,0,1-1.2-1.3,4.808,4.808,0,0,1,.04.58v.559a1.933,1.933,0,0,0,.04.42H31.56a1.84,1.84,0,0,0,.04-.41v-.559a4.5,4.5,0,0,1,.04-.58,5.485,5.485,0,0,1-1.879,1.969,1.84,1.84,0,0,0-.44-.48A5.673,5.673,0,0,0,30.8,19.193a3.7,3.7,0,0,0,.4-.52h-.92a4.075,4.075,0,0,0-.789.05V18.1a4.185,4.185,0,0,0,.81.05h1.3V16.814a3.577,3.577,0,0,0-.05-.67h.67a3.381,3.381,0,0,0-.051.67v1.339Zm-.269,6.337a6.575,6.575,0,0,0-1.09-.69,6.118,6.118,0,0,1-2.418,1.33,2.029,2.029,0,0,0-.32-.55,5.72,5.72,0,0,0,2.2-1.06c-.45-.21-.72-.319-1.529-.619a8.785,8.785,0,0,0,.71-1.08H30.16a3.324,3.324,0,0,0-.709.05v-.629a3.162,3.162,0,0,0,.709.05h.89a4.489,4.489,0,0,0,.3-.79l.6.14c-.13.33-.17.43-.269.65H33.5a3.051,3.051,0,0,0,.7-.05v.629a3.435,3.435,0,0,0-.719-.05h-.19a3.922,3.922,0,0,1-.76,1.53,8.537,8.537,0,0,1,1.039.589ZM30.3,16.344a7.024,7.024,0,0,1,.749,1.32l-.54.219a5.05,5.05,0,0,0-.719-1.309Zm1.109,5.477c-.16.28-.261.43-.51.82.539.21.73.28,1.11.46a3.222,3.222,0,0,0,.679-1.28Zm2.578-5.257a7.53,7.53,0,0,1-.869,1.429l-.5-.249a4.753,4.753,0,0,0,.829-1.43Zm4.468,2.119a4.043,4.043,0,0,0-.85-.05,9.066,9.066,0,0,1-.339,2.179,6.627,6.627,0,0,1-.78,1.8A6.2,6.2,0,0,0,38.706,24.5a2.608,2.608,0,0,0-.37.62,7.035,7.035,0,0,1-2.219-1.979A7.853,7.853,0,0,1,33.578,25.2a1.966,1.966,0,0,0-.409-.559A6.463,6.463,0,0,0,35.757,22.6a7.748,7.748,0,0,1-1.029-2.938A5.833,5.833,0,0,1,34,20.822a1.541,1.541,0,0,0-.5-.39,6.757,6.757,0,0,0,1.229-2.159,7.734,7.734,0,0,0,.509-2.149l.68.15a6.193,6.193,0,0,0-.18.63c-.13.49-.2.77-.33,1.159h2.119a4.567,4.567,0,0,0,.93-.06Zm-3.259-.05c-.04.09-.04.11-.09.22a8.637,8.637,0,0,0,1.01,3.178,6.958,6.958,0,0,0,.75-2.239,6.893,6.893,0,0,0,.119-1.159Z"/><path class="cls-1" d="M40.34,20.612c0-.51.011-.69.04-1.209a7.794,7.794,0,0,1-.919,1.449,2.769,2.769,0,0,0-.4-.55,8.408,8.408,0,0,0,1.659-2.8,5.883,5.883,0,0,0,.38-1.41l.689.18c-.069.19-.1.28-.189.54a12.35,12.35,0,0,1-.65,1.659v5.5c0,.48.02.83.05,1.17h-.72a9.949,9.949,0,0,0,.06-1.2Zm1.6,4.577a9.732,9.732,0,0,0,.05-1.229V19.553a7.549,7.549,0,0,0-.059-1.05h.709a9.951,9.951,0,0,0-.05,1.069V24.05h4.718A6.681,6.681,0,0,0,48.326,24v.68a7.71,7.71,0,0,0-1.029-.06H42.589v.569Zm1.02-7.475a8.042,8.042,0,0,0-.93.04v-.64a5.982,5.982,0,0,0,.96.05h2.019c.059-.4.07-.55.109-1l.651.04c-.081.49-.1.63-.161.96h1.9a4.626,4.626,0,0,0,.93-.06v.66a6.281,6.281,0,0,0-.89-.05H45.5c-.09.4-.09.4-.22.949h1.539c.4,0,.651-.01.871-.03-.021.26-.031.41-.031.949v2.909c0,.39.01.58.031.85-.34-.021-.56-.031-.88-.031H44.478c-.33,0-.549.01-.87.031.021-.23.031-.49.031-.81V19.493l-.01-.38v-.18a2.29,2.29,0,0,0-.03-.3c.25.02.469.03.839.03h.24c.11-.42.16-.63.23-.949Zm1.249,2.308h2.879v-.849H44.208Zm0,1.37h2.879v-.86H44.208Zm0,1.409h2.879v-.9H44.208Z"/><path class="cls-1" d="M51.55,16.714a14.236,14.236,0,0,0-.77,4.688c0,.349.02.939.04,1.4,0,.08,0,.1.01.28v.189l.04.01a8.891,8.891,0,0,1,.59-1.759,1.294,1.294,0,0,0,.08-.2l.489.23a8.65,8.65,0,0,0-.859,2.839,1.145,1.145,0,0,0,.019.2l-.709.07c-.009-.09-.02-.14-.06-.37a15.9,15.9,0,0,1-.279-2.969,16.965,16.965,0,0,1,.519-4.107,4.892,4.892,0,0,0,.111-.63Zm1.009,1.859a6.919,6.919,0,0,0,1.8.16c.39,0,.66-.01,1.07-.03-.01-.939-.01-.939-.01-1.7a2.31,2.31,0,0,0-.03-.41h.749a10.224,10.224,0,0,0-.07,1.569c0,.11,0,.27.01.49a6.816,6.816,0,0,0,1.73-.37l.029.68c-.02,0-.02,0-.7.14a9.56,9.56,0,0,1-1.06.16c.01.989.03,1.5.11,2.828a7.232,7.232,0,0,1,1.669.98c.121.08.14.1.25.169l-.31.7A5.374,5.374,0,0,0,56.377,22.9a.642.642,0,0,1-.1-.06.7.7,0,0,0-.09-.06,1.435,1.435,0,0,1,.02.26,1.464,1.464,0,0,1-1.789,1.519c-1.159,0-1.889-.55-1.889-1.419,0-.83.789-1.42,1.9-1.42a2.816,2.816,0,0,1,1.109.2c-.029-.21-.069-1.149-.1-2.608-.45.02-.759.03-1.139.03-.409,0-.779-.01-1.129-.03a2.622,2.622,0,0,0-.32-.02,1.489,1.489,0,0,0-.17-.01.459.459,0,0,0-.1-.01h-.04Zm1.919,3.748c-.78,0-1.29.33-1.29.83s.46.809,1.16.809a1.374,1.374,0,0,0,1.019-.35,1.164,1.164,0,0,0,.191-.779c0-.07-.01-.3-.01-.3A2.583,2.583,0,0,0,54.478,22.321Z"/><path class="cls-1" d="M59.851,22.441a10.176,10.176,0,0,1,2.008,2.119l-.559.53a9.973,9.973,0,0,0-1.969-2.179Z"/><path class="cls-1" d="M71.569,20.022H70.46a5.226,5.226,0,0,0-1,.06V19.4a5.882,5.882,0,0,0,1,.06h1.06v-1.34h-.8a5.612,5.612,0,0,0-.9.05v-.649a4.98,4.98,0,0,0,.9.05h.8v-.42a5.007,5.007,0,0,0-.06-.98h.72a4.8,4.8,0,0,0-.061.98v.42h.7a4.89,4.89,0,0,0,.91-.05v.649a5.826,5.826,0,0,0-.91-.05h-.7v1.34h.81a5.564,5.564,0,0,0,.969-.06v.679a5.823,5.823,0,0,0-.96-.06h-.779v1.41h.82a4.987,4.987,0,0,0,.83-.05v.659a4.765,4.765,0,0,0-.84-.06h-.81V23.84a6.431,6.431,0,0,0,3.139.44,21.784,21.784,0,0,0,3.348-.16,2.079,2.079,0,0,0-.23.72c-.92.04-1.35.05-2.738.05-2.429,0-3.349-.18-4.189-.82a3.424,3.424,0,0,1-1.009-1.229,7.551,7.551,0,0,1-.78,2.208,1.59,1.59,0,0,0-.559-.379,6.867,6.867,0,0,0,.96-3.648,4.207,4.207,0,0,0-.021-.45l.65.09a2.77,2.77,0,0,0-.04.38c-.02.489-.05.759-.089,1.1a3.8,3.8,0,0,0,.968,1.279Zm6.2-1.149a7.666,7.666,0,0,0,.04,1.069,8.822,8.822,0,0,0-1.11-.04h-1.76v2.609c0,.19.01.25.071.3.08.08.34.11.889.11a12.248,12.248,0,0,0,1.349-.06c.271-.05.36-.18.42-.56a8.073,8.073,0,0,0,.061-1.129,2.846,2.846,0,0,0,.619.28,4,4,0,0,1-.27,1.639c-.18.319-.63.419-1.969.419a3.622,3.622,0,0,1-1.46-.159c-.259-.121-.329-.28-.329-.73v-2.2a8.166,8.166,0,0,0-.049-1.119,7.794,7.794,0,0,0,1.018.04h1.859V17.334H75.157a6.936,6.936,0,0,0-.969.05V16.7a6.4,6.4,0,0,0,1,.06H76.8a5.8,5.8,0,0,0,1.01-.05,7.4,7.4,0,0,0-.04.99Z"/><path class="cls-1" d="M80.15,18.723a3.7,3.7,0,0,0-.7.05v-.65a3.643,3.643,0,0,0,.7.05h.48v-1a6.977,6.977,0,0,0-.06-.989h.73a6.962,6.962,0,0,0-.05.989v1h.38a2.609,2.609,0,0,0,.619-.05v.64a3.82,3.82,0,0,0-.609-.04h-.39v2.009c.35-.17.479-.24.909-.49v.6c-.42.24-.579.33-.909.5V24.4c0,.54-.2.71-.84.71-.189,0-.43-.01-.76-.03a2.3,2.3,0,0,0-.149-.62,6.465,6.465,0,0,0,.85.07c.21,0,.279-.05.279-.22V21.641c-.3.14-.44.2-.63.27-.209.09-.359.16-.47.21l-.159-.64a7.351,7.351,0,0,0,1.259-.469V18.723Zm5.9,1.669a6.858,6.858,0,0,0,.38,1.629,6.743,6.743,0,0,0,1.459-1.179l.44.44a14.686,14.686,0,0,1-1.669,1.239,5.015,5.015,0,0,0,1.789,1.959,2.244,2.244,0,0,0-.43.58,6.508,6.508,0,0,1-1.759-2.069,7.785,7.785,0,0,1-.779-2.6h-.81V23.96a12.117,12.117,0,0,0,1.459-.5l.01.59a18.5,18.5,0,0,1-2.729.84c-.179.05-.2.06-.4.119l-.2-.669a5.91,5.91,0,0,0,1.25-.22V20.392h-.83a12.182,12.182,0,0,1-.24,2.329,6.739,6.739,0,0,1-.91,2.3c-.08-.069-.08-.069-.269-.249-.05-.04-.121-.09-.27-.19.939-1.479,1.129-2.6,1.129-6.836a10.117,10.117,0,0,0-.04-1.12c.32.03.689.05,1.069.05h3.508a6.658,6.658,0,0,0,.98-.06v.67a5.621,5.621,0,0,0-.95-.05H83.289v.789l-.04,1.829H87.4a5.811,5.811,0,0,0,.97-.06v.65a5.223,5.223,0,0,0-.92-.05Zm1.669-1.549a3.553,3.553,0,0,0-.709-.05H84.488a3.638,3.638,0,0,0-.66.04v-.64a3.561,3.561,0,0,0,.67.04h2.488a3.727,3.727,0,0,0,.73-.05Z"/><path class="cls-1" d="M94.288,22.191a4.659,4.659,0,0,0,1.3,1.249,7.6,7.6,0,0,0,2.767,1.02,2.58,2.58,0,0,0-.378.65A6.628,6.628,0,0,1,93.668,22.3,3.851,3.851,0,0,1,92.1,24.17a6.9,6.9,0,0,1-2.27.92,2.336,2.336,0,0,0-.369-.63,6.062,6.062,0,0,0,2.139-.72,3.317,3.317,0,0,0,1.468-1.549H90.53a6.582,6.582,0,0,0-.929.06v-.67a5.432,5.432,0,0,0,.92.06h2.738a5.872,5.872,0,0,0,.139-.959H91.59a4.86,4.86,0,0,0-.87.05V20.1a4.915,4.915,0,0,0,.87.05h1.858c.021-.39.021-.5.031-.889H91.55a6.185,6.185,0,0,0-.96.06v-.65a5.916,5.916,0,0,0,.96.06h1.938a3.585,3.585,0,0,0-.059-.809h.739a3.584,3.584,0,0,0-.05.809h2.089a5.848,5.848,0,0,0,.96-.06v.65a5.275,5.275,0,0,0-.96-.06h-2.1c-.009.319-.02.559-.04.889h1.979a4.79,4.79,0,0,0,.859-.05v.63a4.784,4.784,0,0,0-.859-.05H94.028a7.263,7.263,0,0,1-.15.959H97.3a5.567,5.567,0,0,0,.929-.06v.67a6.553,6.553,0,0,0-.94-.06Zm-.819-5.477a2.622,2.622,0,0,0-.071-.62h.78a3.258,3.258,0,0,0-.06.62v.38h2.939a9.759,9.759,0,0,0,1-.04,4.554,4.554,0,0,0-.04.67v.589a4.494,4.494,0,0,0,.04.69h-.65v-1.36H90.37V19h-.659a4.714,4.714,0,0,0,.04-.69v-.579a4.749,4.749,0,0,0-.04-.68,9.829,9.829,0,0,0,1.009.04h2.749Z"/><path class="cls-1" d="M100.19,21.941a9.1,9.1,0,0,1-.509,2.6l-.48-.25a7.275,7.275,0,0,0,.539-2.439Zm1.69-1.049h.449a5.729,5.729,0,0,0,.88-.04c-.021.18-.021.27-.04.58a13.073,13.073,0,0,1-.42,3.2c-.16.369-.38.49-.85.49a6.155,6.155,0,0,1-.8-.06,1.792,1.792,0,0,0-.1-.62,3.291,3.291,0,0,0,.89.13.4.4,0,0,0,.429-.37,16.774,16.774,0,0,0,.29-2.808H100.55c-.289,0-.579.01-.789.03.019-.26.03-.54.03-.89V17.4a8.4,8.4,0,0,0-.04-.96,5.8,5.8,0,0,0,.919.05h1.649a4.916,4.916,0,0,0,.869-.05v.61a4.561,4.561,0,0,0-.819-.05h-.489v.95h.269a4.367,4.367,0,0,0,.78-.05v.579a4.436,4.436,0,0,0-.78-.05h-.269v.93h.269a5.214,5.214,0,0,0,.78-.04v.569a4.3,4.3,0,0,0-.78-.05h-.269ZM101.34,17h-1v.95h1Zm0,1.429h-1v.93h1Zm-1,1.409v1.05h1v-1.05Zm.53,2.059a16.431,16.431,0,0,1,.08,1.729c0,.07,0,.24-.01.43l-.5.07c.031-.54.04-.82.04-1.249,0-.36-.009-.52-.03-.91Zm.609-.05a9.587,9.587,0,0,1,.281,1.809l-.45.12a9.985,9.985,0,0,0-.21-1.839Zm.6-.11a5.976,5.976,0,0,1,.32,1.34l-.379.14a5.639,5.639,0,0,0-.281-1.38Zm4.068.51a4.463,4.463,0,0,0,.54.92,4.573,4.573,0,0,0,1.979,1.489,2.581,2.581,0,0,0-.38.569,5.413,5.413,0,0,1-2.549-2.688,4.31,4.31,0,0,1-2.4,2.668,1.856,1.856,0,0,0-.42-.509,3.688,3.688,0,0,0,2.318-2.449h-.9a5.634,5.634,0,0,0-.76.04,4.611,4.611,0,0,0,.04-.71V20.442a5.274,5.274,0,0,0-.04-.7,5.365,5.365,0,0,0,.79.04h1.1c.01-.119.01-.259.01-.259,0-.05,0-.17-.01-.34v-.3h-.521a4.6,4.6,0,0,0-.8.05v-.6a5.782,5.782,0,0,0,.8.04h1.68a5.46,5.46,0,0,0,.779-.04v.6a4.392,4.392,0,0,0-.8-.05h-.579v.9H107.2a5.431,5.431,0,0,0,.8-.04,4.808,4.808,0,0,0-.04.7v1.139a4.215,4.215,0,0,0,.04.71,6.065,6.065,0,0,0-.75-.04ZM106,16.185a4.355,4.355,0,0,0,.92,1.019,6.469,6.469,0,0,0,1.749,1.079,1.822,1.822,0,0,0-.34.56,8.192,8.192,0,0,1-1.519-1,6.66,6.66,0,0,1-1.14-1.169,7.317,7.317,0,0,1-2.349,2.189,1.844,1.844,0,0,0-.349-.51,5.97,5.97,0,0,0,2.358-2.168Zm-1.819,4.107v1.469h1.17a10.555,10.555,0,0,0,.109-1.469Zm1.84,0a10.361,10.361,0,0,1-.111,1.469h1.48V20.292Z"/><path class="cls-1" d="M111.6,16.754a14.029,14.029,0,0,0-.42,1.6,14.77,14.77,0,0,0-.3,3.128c0,.78.02,1.37.06,1.9a9.264,9.264,0,0,1,.65-1.949l.479.229a8.706,8.706,0,0,0-.809,2.749v.15l-.72.06c-.019-.16-.03-.21-.06-.4a14.311,14.311,0,0,1-.259-2.828,16.519,16.519,0,0,1,.449-3.958,5.425,5.425,0,0,0,.14-.8Zm2.548,4.018a2.319,2.319,0,0,0-.75,1.469c0,.74.63,1.1,1.919,1.1a6.575,6.575,0,0,0,2.3-.35l.1.769c-.13.01-.15.02-.35.05a10.3,10.3,0,0,1-2.049.2,2.776,2.776,0,0,1-2.288-.76,1.409,1.409,0,0,1-.3-.919,2.76,2.76,0,0,1,.87-1.859Zm-1.269-2.959a6.741,6.741,0,0,0,1.7.15,10.781,10.781,0,0,0,2.679-.269l.05.709c-.021,0-.25.03-.69.09a16.877,16.877,0,0,1-2.149.13,13.3,13.3,0,0,1-1.6-.1Z"/><path class="cls-1" d="M124.148,16.374a7.273,7.273,0,0,0-.06,1.32c0,.22,0,.329.02,1.039a9.934,9.934,0,0,0,2.928-.38l.091.74a5.562,5.562,0,0,0-.6.07,17.265,17.265,0,0,1-2.409.22c.03.969.08,1.938.13,2.578a8.639,8.639,0,0,1,2.669,1.42,4.866,4.866,0,0,0,.459.309l-.47.7a4.394,4.394,0,0,0-1.039-.87,10.21,10.21,0,0,0-1.349-.769,1.942,1.942,0,0,1-.24-.11,2.857,2.857,0,0,1,.04.43,1.782,1.782,0,0,1-.25,1.009,2.11,2.11,0,0,1-1.779.69c-1.289,0-2.079-.56-2.079-1.48,0-.959.93-1.579,2.349-1.579a4.311,4.311,0,0,1,.87.09c.05.01.05.02.09.02.019,0,.019,0,.049.02a.306.306,0,0,0-.009-.09v-.06c-.08-1.149-.151-3.078-.161-4.507a4.527,4.527,0,0,0-.049-.81Zm-1.6,5.967c-1.02,0-1.639.36-1.639.939a.678.678,0,0,0,.15.43,1.611,1.611,0,0,0,1.2.4,1.684,1.684,0,0,0,1.109-.33.926.926,0,0,0,.24-.749,5.066,5.066,0,0,0-.03-.55A3.4,3.4,0,0,0,122.549,22.341Z"/><path class="cls-1" d="M131.24,16.984a4.612,4.612,0,0,0,.94.06c.829,0,2.158-.06,3.057-.13a1.027,1.027,0,0,0,.481-.11l.419.55a1.846,1.846,0,0,0-.51.42,25.633,25.633,0,0,1-3.288,2.838l.02.03a5.066,5.066,0,0,1,2.449-.62c1.669,0,2.738.82,2.738,2.1,0,1.559-1.449,2.589-3.668,2.589-1.409,0-2.219-.52-2.219-1.44a1.3,1.3,0,0,1,1.449-1.169,2.014,2.014,0,0,1,1.65.82,2.857,2.857,0,0,1,.46.959c1.049-.29,1.6-.9,1.6-1.749,0-.959-.8-1.529-2.148-1.529a6.414,6.414,0,0,0-4.208,1.709l-.449-.64a11.084,11.084,0,0,0,1.4-1.019c1.069-.85,2.649-2.239,3.338-2.918l.14-.14.04-.04.04-.04-.021-.02a.4.4,0,0,0-.09.01c-.319.06-1.518.13-3.038.18a4.972,4.972,0,0,0-.54.05Zm1.879,5.687c-.5,0-.809.24-.809.619a.681.681,0,0,0,.4.61,2.55,2.55,0,0,0,1.119.23,3.6,3.6,0,0,0,.73-.07C134.338,23.151,133.838,22.671,133.119,22.671Z"/><path class="cls-1" d="M140.48,16.724a4.843,4.843,0,0,0,.83.05h.629a5.694,5.694,0,0,0,.83-.05,16.388,16.388,0,0,0-.09,1.659V23.24a6.38,6.38,0,0,0,.08,1.13h-.949a6.4,6.4,0,0,0,.08-1.13V17.454h-.54a6.055,6.055,0,0,0-.87.06Z"/><path class="cls-1" d="M146.381,17.174c-.02-.73-.02-.73-.03-.86a4.843,4.843,0,0,0,.78.03h.989a3.385,3.385,0,0,0,.65-.04l.349.37a2.337,2.337,0,0,0-.16.38,16.788,16.788,0,0,1-1.029,2.329,3.664,3.664,0,0,1,.8,1.269,3.1,3.1,0,0,1,.23,1.129,1.13,1.13,0,0,1-.439,1.05,2.113,2.113,0,0,1-.91.13c-.04,0-.06,0-.29-.01a1.332,1.332,0,0,0-.12-.61,4.44,4.44,0,0,0,.55.05.814.814,0,0,0,.46-.09c.11-.08.16-.26.16-.53a2.829,2.829,0,0,0-.141-.859,3.5,3.5,0,0,0-.949-1.449,12.879,12.879,0,0,0,1.09-2.559h-1.38V23.84a10.752,10.752,0,0,0,.051,1.309h-.72a10.315,10.315,0,0,0,.06-1.319Zm3.049-.08a6.992,6.992,0,0,0-.061-1.01h.69a6.766,6.766,0,0,0-.06,1v.29h.909a3.348,3.348,0,0,0,.8-.06v.659a5.258,5.258,0,0,0-.8-.049H150V19.5a13.714,13.714,0,0,0,1.709-.49v.54a18.525,18.525,0,0,1-2.3.639c-.189.04-.309.07-.47.11l-.149-.609a4.183,4.183,0,0,0,.64-.081Zm3.967,3.748a6.429,6.429,0,0,0,.95-.04,7.508,7.508,0,0,0-.04.979V24.12a8.254,8.254,0,0,0,.059,1.049h-.679V24.72h-3.539v.42h-.659a6.118,6.118,0,0,0,.06-.98v-2.4a8.4,8.4,0,0,0-.04-.949c.29.02.51.03.97.03h.669a2.755,2.755,0,0,0,.39-.87l.67.15c-.011.01-.05.09-.22.39-.06.1-.1.17-.2.33Zm-3.249,1.619h3.539V21.382h-3.539Zm0,1.709h3.539V23h-3.539Zm2.48-5c0,.26.109.3.849.3a1.81,1.81,0,0,0,.78-.08c.12-.08.139-.22.149-.99a1.941,1.941,0,0,0,.56.21c-.029,1.279-.15,1.4-1.4,1.4-1.3,0-1.509-.09-1.509-.659V17.094a8.186,8.186,0,0,0-.06-1.01h.689a6.675,6.675,0,0,0-.059.98v.579a5.617,5.617,0,0,0,1.749-1.009l.4.51c-.08.04-.24.13-.36.2a10.671,10.671,0,0,1-1.788.859Z"/><path class="cls-1" d="M160,21.771c-.58,1.32-1.17,1.919-1.889,1.919-.95,0-1.659-1.039-1.659-2.438a4.058,4.058,0,0,1,4.278-4.088,3.872,3.872,0,0,1,2.748.989,3.35,3.35,0,0,1,.969,2.439,3.641,3.641,0,0,1-2.288,3.448,7.745,7.745,0,0,1-1.519.46,1.589,1.589,0,0,0-.35-.67,6.023,6.023,0,0,0,1.669-.469,3.017,3.017,0,0,0,1.769-2.8,2.636,2.636,0,0,0-1.589-2.509,2.873,2.873,0,0,0-1.159-.25A15.042,15.042,0,0,1,160,21.771Zm-1.229-3.488a3.456,3.456,0,0,0-1.629,2.979c0,.959.42,1.7.959,1.7.42,0,.82-.47,1.25-1.45a13.749,13.749,0,0,0,.909-3.7A3.151,3.151,0,0,0,158.77,18.283Z"/><path class="cls-1" d="M168.17,18.583a6.045,6.045,0,0,0,1.269,1.949,2.1,2.1,0,0,0-.36.57,7.082,7.082,0,0,1-.979-1.709c.03.839.04,1.169.04,1.739V24.28a5.547,5.547,0,0,0,.06.939h-.74a4.6,4.6,0,0,0,.07-.929V21.331c0-.5.01-.889.05-1.808a8.816,8.816,0,0,1-1.409,3.2,2.349,2.349,0,0,0-.42-.58,8.923,8.923,0,0,0,1.669-3.558h-.81a2.821,2.821,0,0,0-.619.05v-.64a3.2,3.2,0,0,0,.68.05h.85V16.934a4.861,4.861,0,0,0-.061-.83h.74a4.757,4.757,0,0,0-.06.84v1.1h.389a3.158,3.158,0,0,0,.66-.05v.64a3.235,3.235,0,0,0-.649-.05Zm2.349.16c-.44,0-.76.02-1.08.05V18.1a7.414,7.414,0,0,0,1.08.06h3.108a7.348,7.348,0,0,0,1.069-.06v.69a8.4,8.4,0,0,0-1.079-.05h-1.489v2.219h1.129a7.771,7.771,0,0,0,1.069-.05v.679a8.226,8.226,0,0,0-1.069-.05h-1.129V24.1h1.7a9.055,9.055,0,0,0,1.089-.06v.71a9.286,9.286,0,0,0-1.089-.06h-3.868a8.939,8.939,0,0,0-1.069.06v-.71a8.527,8.527,0,0,0,1.079.06h1.519V21.541h-.849a10.713,10.713,0,0,0-1.079.05v-.679a8.021,8.021,0,0,0,1.079.05h.849V18.743Zm1.959-.819a10.262,10.262,0,0,0-1.91-1.28l.39-.459a12.784,12.784,0,0,1,1.9,1.219Z"/><path class="cls-1" d="M184.167,25.239a6.724,6.724,0,0,1-1.39-2.148,6.551,6.551,0,0,1,0-4.918,6.724,6.724,0,0,1,1.39-2.148h.889a6.328,6.328,0,0,0-1.519,2.068,6.239,6.239,0,0,0,0,5.078,6.328,6.328,0,0,0,1.519,2.068Z"/><path class="cls-1" d="M186.73,22.521a1.508,1.508,0,0,0,.611.949,2.2,2.2,0,0,0,1.289.36c1.159,0,1.889-.6,1.889-1.549,0-.989-.71-1.529-2.04-1.529a7.009,7.009,0,0,0-.8.05v-.79a4.265,4.265,0,0,0,.74.06,2,2,0,0,0,1.459-.46,1.372,1.372,0,0,0,.4-.969c0-.859-.6-1.359-1.608-1.359a1.57,1.57,0,0,0-1.329.529,1.877,1.877,0,0,0-.32.71l-.83-.18a2.275,2.275,0,0,1,.539-1,2.6,2.6,0,0,1,1.99-.73c1.449,0,2.368.76,2.368,1.959a1.757,1.757,0,0,1-.7,1.459,2.054,2.054,0,0,1-.94.36,2.145,2.145,0,0,1,1.23.43,1.833,1.833,0,0,1,.67,1.509c0,1.349-1.04,2.189-2.709,2.189a2.858,2.858,0,0,1-2.24-.82,2.6,2.6,0,0,1-.508-.969Z"/><path class="cls-1" d="M192.722,24.37a7.654,7.654,0,0,0,.069-1.13V20.112a7.373,7.373,0,0,0-.069-1.129h.809v.55c0,.049-.01.17-.02.359a2.012,2.012,0,0,1,.38-.5,1.94,1.94,0,0,1,1.409-.52,1.614,1.614,0,0,1,1.289.51,1.315,1.315,0,0,1,.31.579,1.963,1.963,0,0,1,1.849-1.089,1.727,1.727,0,0,1,1.459.61,2.031,2.031,0,0,1,.34,1.3V23.25a7.027,7.027,0,0,0,.07,1.12h-.9a6.17,6.17,0,0,0,.069-1.13V20.882c0-.95-.35-1.359-1.149-1.359a1.5,1.5,0,0,0-1.259.729,2.141,2.141,0,0,0-.33,1.03V23.25a6.944,6.944,0,0,0,.07,1.12h-.9a7.178,7.178,0,0,0,.069-1.13V20.882c0-.88-.4-1.359-1.119-1.359a1.565,1.565,0,0,0-1.31.759,2.24,2.24,0,0,0-.329,1V23.24a7.968,7.968,0,0,0,.07,1.13Z"/><path class="cls-1" d="M201.7,25.239a6.232,6.232,0,0,0,1.52-2.068,6.25,6.25,0,0,0,0-5.078,6.232,6.232,0,0,0-1.52-2.068h.89a6.715,6.715,0,0,1,1.388,2.148,6.526,6.526,0,0,1,0,4.918,6.715,6.715,0,0,1-1.388,2.148Z"/><path class="cls-1" d="M215.879,21.771c-.58,1.32-1.17,1.919-1.889,1.919-.95,0-1.659-1.039-1.659-2.438a4.058,4.058,0,0,1,4.277-4.088,3.868,3.868,0,0,1,2.748.989,3.347,3.347,0,0,1,.97,2.439,3.64,3.64,0,0,1-2.289,3.448,7.712,7.712,0,0,1-1.518.46,1.6,1.6,0,0,0-.35-.67,6.033,6.033,0,0,0,1.669-.469,3.018,3.018,0,0,0,1.768-2.8,2.636,2.636,0,0,0-1.588-2.509,2.882,2.882,0,0,0-1.16-.25A15,15,0,0,1,215.879,21.771Zm-1.23-3.488a3.457,3.457,0,0,0-1.628,2.979c0,.959.419,1.7.958,1.7.42,0,.821-.47,1.25-1.45a13.71,13.71,0,0,0,.91-3.7A3.158,3.158,0,0,0,214.649,18.283Z"/><path class="cls-1" d="M223.2,22.841a5.2,5.2,0,0,1-.97,2.469,1.977,1.977,0,0,0-.489-.48,5.215,5.215,0,0,0,.94-3.578,8.582,8.582,0,0,0-.04-.97,6.327,6.327,0,0,0,.929.05h5.717a5.423,5.423,0,0,0,.919-.05v.6a5.651,5.651,0,0,0-.909-.05H223.29v.32a11.621,11.621,0,0,1-.05,1.209h6.307a5.33,5.33,0,0,0,.89-.05v.58a5.47,5.47,0,0,0-.9-.05h-2.759a2.834,2.834,0,0,0,.98.959,5.258,5.258,0,0,0,1.149-.879l.52.339a11.02,11.02,0,0,1-1.18.79,8.381,8.381,0,0,0,2.559.6,2.03,2.03,0,0,0-.34.589c-2.288-.349-3.708-1.129-4.3-2.4h-1.12V24.33c.66-.12.91-.17,1.59-.34l.019.55a24.236,24.236,0,0,1-2.388.479c-.56.091-.7.121-.98.18l-.149-.649h.109a8.943,8.943,0,0,0,1.189-.12V22.841Zm.45-5.927a5.6,5.6,0,0,0-.91.05v-.61a5.871,5.871,0,0,0,.93.05h5.308a5.859,5.859,0,0,0,.928-.05v.61a5.659,5.659,0,0,0-.909-.05h-2.438v.59H229.7a5.494,5.494,0,0,0,.88-.05,3.94,3.94,0,0,0-.04.739v.43a5.234,5.234,0,0,0,.05.82h-.649v-1.48h-3.378v1.16a5.086,5.086,0,0,0,.049.859h-.719a5.5,5.5,0,0,0,.06-.859v-1.16H222.69v1.48h-.659a5.322,5.322,0,0,0,.06-.81v-.44a5.208,5.208,0,0,0-.04-.739,5.539,5.539,0,0,0,.889.05h3.009v-.59Zm-.339,1.519a5.289,5.289,0,0,0,.649.03h.72a5.355,5.355,0,0,0,.639-.03v.47a3.733,3.733,0,0,0-.639-.04h-.72a3.779,3.779,0,0,0-.649.04Zm0,.92a5.519,5.519,0,0,0,.649.03h.71a5.624,5.624,0,0,0,.64-.03v.46a5.372,5.372,0,0,0-.64-.031h-.71a5.275,5.275,0,0,0-.649.031Zm.668,1.958a4.922,4.922,0,0,0,.871.051h3.8a5.051,5.051,0,0,0,.87-.051v.57a5.193,5.193,0,0,0-.879-.05h-3.779a5.063,5.063,0,0,0-.88.05Zm5.368-2.408a3.746,3.746,0,0,0-.64-.04H227.8a3.726,3.726,0,0,0-.65.04v-.47a5.319,5.319,0,0,0,.65.03h.909a5.247,5.247,0,0,0,.64-.03Zm0,.91a5.466,5.466,0,0,0-.64-.031H227.8a5.533,5.533,0,0,0-.65.031v-.46a5.67,5.67,0,0,0,.65.03h.909a5.723,5.723,0,0,0,.64-.03Z"/><path class="cls-1" d="M233.3,19.113c-.07,3.238-.289,4.417-1.11,5.926a2.015,2.015,0,0,0-.529-.489,5.325,5.325,0,0,0,.71-1.809,23.581,23.581,0,0,0,.3-4.618,11.712,11.712,0,0,0-.04-1.219c.319.03.64.05,1.029.05h2.628v-.29a3.253,3.253,0,0,0-.059-.649h.739a3.8,3.8,0,0,0-.05.649v.29h2.738a7.009,7.009,0,0,0,1.09-.06v.66a7.394,7.394,0,0,0-1.039-.05h-6.4l-.011,1.069h1.819v-.16a4.07,4.07,0,0,0-.04-.659h.69a4.338,4.338,0,0,0-.04.649v.17h2.319v-.16a6.227,6.227,0,0,0-.04-.659h.689a3.972,3.972,0,0,0-.04.669v.15h1.2a5.226,5.226,0,0,0,.91-.05v.64a5.234,5.234,0,0,0-.91-.05h-1.2v.979a5.338,5.338,0,0,0,.03.6,5.291,5.291,0,0,0-.65-.02h-2.228a5.9,5.9,0,0,0-.72.02,5.879,5.879,0,0,0,.03-.6v-.979Zm6.217,2.7c-.121.13-.17.18-.34.38a9.054,9.054,0,0,1-1.619,1.459,8.843,8.843,0,0,0,3.258.83,2.441,2.441,0,0,0-.3.66A9.263,9.263,0,0,1,236.979,24a10.813,10.813,0,0,1-3.628,1.179,2,2,0,0,0-.281-.619,10.174,10.174,0,0,0,3.359-.91,6.143,6.143,0,0,1-1.61-1.679,6.246,6.246,0,0,0-.989.05V21.4a6,6,0,0,0,1.01.05h3.628a6.2,6.2,0,0,0,.689-.03Zm-4,.16a4.407,4.407,0,0,0,1.469,1.36,6.642,6.642,0,0,0,1.6-1.36Zm.21-1.809h2.319V19.113h-2.319Z"/><path class="cls-1" d="M247.238,17.454a3.943,3.943,0,0,0-.74.959,12.84,12.84,0,0,0-2.238,5.957h-.949a13.083,13.083,0,0,1,1.209-3.988,16.234,16.234,0,0,1,1.8-2.9H243.07a7.674,7.674,0,0,0-1.129.07V16.7a7.826,7.826,0,0,0,1.139.07h3a8.716,8.716,0,0,0,1.159-.05Z"/><path class="cls-1" d="M249.73,19.133a15.288,15.288,0,0,1,2.54,1.309l-.39.67a11.137,11.137,0,0,0-2.549-1.37Zm-.259,4.567a8.661,8.661,0,0,0,2.688-.619,6.586,6.586,0,0,0,3-2.229,7.419,7.419,0,0,0,1.2-2.239,2.989,2.989,0,0,0,.62.53,7.833,7.833,0,0,1-3.848,4.307,11.423,11.423,0,0,1-2.528.86c-.161.03-.34.07-.54.11a2.292,2.292,0,0,0-.39.11Zm1.039-6.956A14.848,14.848,0,0,1,252.989,18l-.41.67a10.486,10.486,0,0,0-2.459-1.319Z"/><path class="cls-1" d="M259.7,22.191a30.3,30.3,0,0,1,6.387,1.669l-.279.73a17.084,17.084,0,0,0-3.389-1.12,30.111,30.111,0,0,0-3.019-.609Zm.78-2.808a31.8,31.8,0,0,1,4.927,1.169l-.26.72a23.351,23.351,0,0,0-4.957-1.22Zm.18-2.729a31.421,31.421,0,0,1,5.037,1.1l-.26.729a25.683,25.683,0,0,0-5.067-1.159Z"/><path class="cls-1" d="M275.3,23.84a4.124,4.124,0,0,0,.9-.06v.73a5.523,5.523,0,0,0-.91-.05h-4.9a5.4,5.4,0,0,0-.911.05v-.73a4.2,4.2,0,0,0,.9.06h3.039c.229-1.069.459-2.538.55-3.438H271.3a4.47,4.47,0,0,0-.88.04v-.72a5.233,5.233,0,0,0,.89.06h2.678a1.008,1.008,0,0,0,.47-.07l.33.29a1.853,1.853,0,0,0-.16.7c-.23,1.589-.31,2.089-.52,3.138Z"/><path class="cls-1" d="M281.02,16.754a6.155,6.155,0,0,0-.05.889l-.031,6.027a7.55,7.55,0,0,0,2.86-1,6.052,6.052,0,0,0,2.248-2.4,2.547,2.547,0,0,0,.55.63,7.522,7.522,0,0,1-5.507,3.488,2.512,2.512,0,0,0-.58.15l-.4-.5a1.909,1.909,0,0,0,.071-.649l.019-5.727v-.37a5.169,5.169,0,0,0-.03-.54Z"/><path class="cls-1" d="M288.761,20.182a7.067,7.067,0,0,0,1.239.06h5.808a7.88,7.88,0,0,0,1.209-.05V21a11.452,11.452,0,0,0-1.22-.04H290a10.914,10.914,0,0,0-1.239.04Z"/><path class="cls-1" d="M299.73,19.133a15.288,15.288,0,0,1,2.54,1.309l-.39.67a11.137,11.137,0,0,0-2.549-1.37Zm-.259,4.567a8.661,8.661,0,0,0,2.688-.619,6.586,6.586,0,0,0,3-2.229,7.419,7.419,0,0,0,1.2-2.239,2.989,2.989,0,0,0,.62.53,7.833,7.833,0,0,1-3.848,4.307,11.423,11.423,0,0,1-2.528.86c-.161.03-.34.07-.54.11a2.292,2.292,0,0,0-.39.11Zm1.039-6.956A14.848,14.848,0,0,1,302.989,18l-.41.67a10.486,10.486,0,0,0-2.459-1.319Z"/><path class="cls-1" d="M310.91,24.47a4.465,4.465,0,0,0-.87.04v-.7a5.137,5.137,0,0,0,.87.06h3.838V21.991h-3.519a4.4,4.4,0,0,0-.859.04v-.68a4.865,4.865,0,0,0,.87.061h3.508V19.673H311.01a4.626,4.626,0,0,0-.869.039v-.689a4.956,4.956,0,0,0,.869.06h3.718c.32,0,.5-.01.679-.02-.01.26-.01.42-.01.769V24.35a3.154,3.154,0,0,0,.04.62h-.689v-.5Z"/><path class="cls-1" d="M319.3,23.56a8.7,8.7,0,0,0,2.908-.769,7.552,7.552,0,0,0,4.078-4.448,2.011,2.011,0,0,0,.609.59,8.765,8.765,0,0,1-3.047,3.818,10.1,10.1,0,0,1-3.729,1.489,5.292,5.292,0,0,0-.6.16Zm.639-6.2a12.983,12.983,0,0,1,2.41,1.879l-.521.619a11.046,11.046,0,0,0-2.378-1.958Z"/><path class="cls-1" d="M329.9,17.074a7.7,7.7,0,0,0-1.048.06v-.72a7.456,7.456,0,0,0,1.058.06H335.9a7.586,7.586,0,0,0,1.06-.06v.72a7.741,7.741,0,0,0-1.05-.06h-2.728v3.708h3.108a5.758,5.758,0,0,0,1.069-.07v.75a5.784,5.784,0,0,0-1.089-.07h-3.088V24.15a7.607,7.607,0,0,0,.07,1.089h-.82a7.755,7.755,0,0,0,.07-1.089V21.392h-2.978a6.069,6.069,0,0,0-1.1.07v-.75a6.016,6.016,0,0,0,1.09.07H332.5V17.074Zm.161.48a13.455,13.455,0,0,1,1.289,2.438l-.63.32a11.128,11.128,0,0,0-1.23-2.489Zm6.2.279a9.91,9.91,0,0,1-1.419,2.6l-.6-.3a7.686,7.686,0,0,0,1.409-2.588Z"/><path class="cls-1" d="M339.681,17.184a6.95,6.95,0,0,0-.06-.97h.749a5.3,5.3,0,0,0-.059.95v1.679h.219a3.77,3.77,0,0,0,.789-.05v.66a5.666,5.666,0,0,0-.8-.04h-.21v2.968a13.23,13.23,0,0,0,1.209-.63l.03.63a17.769,17.769,0,0,1-2.559,1.179c-.179.07-.36.14-.5.2L338.3,23.1a7.82,7.82,0,0,0,1.379-.45V19.413h-.44a4.045,4.045,0,0,0-.87.06v-.69a4.045,4.045,0,0,0,.87.06h.44Zm3.228,1.069a7.691,7.691,0,0,1-1.309,1.919.449.449,0,0,1-.08-.11,1.208,1.208,0,0,0-.4-.34,5.937,5.937,0,0,0,1.419-2.128,6.236,6.236,0,0,0,.46-1.52l.689.18c-.04.1-.059.15-.12.34-.109.34-.24.68-.389,1.06h2.978c.72-.02.72-.02.9-.04a4.807,4.807,0,0,0-.04.789,30.783,30.783,0,0,1-.281,4.867c-.159.89-.34,1.34-.6,1.52a1.627,1.627,0,0,1-.86.16,10.717,10.717,0,0,1-1.169-.08,2.031,2.031,0,0,0-.179-.7,7.973,7.973,0,0,0,1.428.17c.38,0,.52-.14.65-.65a24.89,24.89,0,0,0,.37-5.437Zm2.769,3.538a21.907,21.907,0,0,1-3.189,1.6,1.532,1.532,0,0,0-.26.129l-.259-.7a3.739,3.739,0,0,0,.579-.17,14.661,14.661,0,0,0,3.018-1.489Zm-3.2-2.069a4.045,4.045,0,0,0,.87.06h1.2a4.06,4.06,0,0,0,.83-.06v.67a5.924,5.924,0,0,0-.82-.04h-1.219a3.992,3.992,0,0,0-.86.06Z"/><path class="cls-1" d="M349.36,20.612c0-.51.011-.69.04-1.209a7.743,7.743,0,0,1-.919,1.449,2.769,2.769,0,0,0-.4-.55,8.391,8.391,0,0,0,1.659-2.8,5.79,5.79,0,0,0,.38-1.41l.69.18c-.07.19-.1.28-.19.54a12.336,12.336,0,0,1-.649,1.659v5.5c0,.48.019.83.05,1.17h-.72a9.976,9.976,0,0,0,.059-1.2Zm1.6,4.577a9.732,9.732,0,0,0,.05-1.229V19.553a7.528,7.528,0,0,0-.06-1.05h.709a10.22,10.22,0,0,0-.05,1.069V24.05h4.718a6.7,6.7,0,0,0,1.02-.05v.68a7.726,7.726,0,0,0-1.03-.06h-4.708v.569Zm1.019-7.475a8.035,8.035,0,0,0-.929.04v-.64a5.982,5.982,0,0,0,.96.05h2.018c.06-.4.071-.55.11-1l.65.04c-.08.49-.1.63-.16.96h1.9a4.615,4.615,0,0,0,.929-.06v.66a6.281,6.281,0,0,0-.89-.05h-2.048c-.09.4-.09.4-.22.949h1.539c.4,0,.65-.01.87-.03-.02.26-.03.41-.03.949v2.909c0,.39.01.58.03.85-.34-.021-.56-.031-.88-.031H353.5c-.329,0-.549.01-.869.031.02-.23.03-.49.03-.81V19.493l-.01-.38v-.18a2.127,2.127,0,0,0-.03-.3c.25.02.47.03.84.03h.239c.111-.42.16-.63.231-.949Zm1.25,2.308h2.878v-.849h-2.878Zm0,1.37h2.878v-.86h-2.878Zm0,1.409h2.878v-.9h-2.878Z"/><path class="cls-1" d="M358.791,17.813c.19.01.29.01.36.01.14,0,.26-.01.57-.03.559-.039.619-.049,1.848-.119l1.57-.1c1.229-.07,1.359-.08,1.689-.09l.569-.02a6.754,6.754,0,0,0,1.19-.11l.059.739a4.192,4.192,0,0,0-1.119.14,4.915,4.915,0,0,0-1.919,1,3.055,3.055,0,0,0-1.229,2.308,1.961,1.961,0,0,0,1.4,1.85,5.154,5.154,0,0,0,1.5.319h.1l-.13.81c-.11-.02-.131-.03-.311-.06a5.04,5.04,0,0,1-2.158-.77,2.417,2.417,0,0,1-1.109-2.039,3.805,3.805,0,0,1,1.868-3.068,6.6,6.6,0,0,1,.95-.53,20.441,20.441,0,0,1-2.2.22,33.255,33.255,0,0,0-3.448.33Zm6.687,1.49a7.594,7.594,0,0,1,1.029,1.549l-.51.3a7.035,7.035,0,0,0-1.019-1.589Zm1.128-.55a8.086,8.086,0,0,1,1.031,1.559l-.5.28a7.908,7.908,0,0,0-1.02-1.569Z"/><path class="cls-1" d="M373.4,16.984a3.272,3.272,0,0,0-.04-.58h.75a8.33,8.33,0,0,0-.049,1.25v.11c1.888-.01,2.658-.03,2.988-.07V18.4a17.762,17.762,0,0,0-1.909-.05c-.151,0-.26,0-1.07.02v1.979a2.864,2.864,0,0,1,.24,1.179,3.218,3.218,0,0,1-1.339,2.609,6.37,6.37,0,0,1-1.579.81,2.2,2.2,0,0,0-.44-.63,5.129,5.129,0,0,0,1.619-.75,2.586,2.586,0,0,0,1.119-2.108,1.4,1.4,0,0,1-.269.489,1.67,1.67,0,0,1-2.9-1.039,1.662,1.662,0,0,1,1.768-1.649,1.536,1.536,0,0,1,1.159.449c-.01-.14-.01-.179-.01-.549,0-.04-.009-.14-.009-.26v-.52c-2.009.04-4.029.14-4.7.25l-.03-.729c.18.01.25.01.4.01.29,0,.29,0,1.9-.061.959-.04,1.739-.06,2.419-.079Zm-.429,3.008a1.279,1.279,0,0,0-.67-.16,1.059,1.059,0,0,0-1.11,1.05.966.966,0,0,0,1.03.989,1.12,1.12,0,0,0,1.17-1.179A.724.724,0,0,0,372.969,19.992Z"/><path class="cls-1" d="M381.439,23.58a1.5,1.5,0,1,1-1.5-1.5A1.5,1.5,0,0,1,381.439,23.58Zm-2.428,0a.93.93,0,1,0,.929-.929A.934.934,0,0,0,379.011,23.58Z"/></svg>