<svg id="レイヤー_1" data-name="レイヤー 1" xmlns="http://www.w3.org/2000/svg" viewBox="0 0 459.418 26.391"><defs><style>.cls-1{fill:#525a70;}</style></defs><path class="cls-1" d="M241.668,1.871a11.682,11.682,0,0,0-1.4.072V1.055a11.125,11.125,0,0,0,1.4.072h7.771a11.33,11.33,0,0,0,1.391-.072v.888a11.751,11.751,0,0,0-1.391-.072h-3.766V3.238A25.8,25.8,0,0,1,249.931,5.7l-.468.743a18.036,18.036,0,0,0-2.542-1.679,13.273,13.273,0,0,0-1.248-.659V9.751a8.721,8.721,0,0,0,.084,1.415h-1a8.938,8.938,0,0,0,.084-1.415V1.871Z"/><path class="cls-1" d="M257.549,5a6.161,6.161,0,0,0,1.115-.06v.8a7.645,7.645,0,0,0-1.091-.06h-4.018a6.813,6.813,0,0,0-1.139.06v-.8a6.9,6.9,0,0,0,1.151.06h2.59a9.912,9.912,0,0,0,.864-2.387l.732.252A12.364,12.364,0,0,1,256.865,5Zm-.157-3.262a6.5,6.5,0,0,0,1.116-.06v.792a6.171,6.171,0,0,0-1.1-.06h-3.586a6.387,6.387,0,0,0-1.08.06V1.679a6.5,6.5,0,0,0,1.115.06h1.452V1.3a4.568,4.568,0,0,0-.072-.911h.9a5.061,5.061,0,0,0-.072.923v.432ZM253.986,11.2h-.8a8.119,8.119,0,0,0,.047-1.08V7.688A9.3,9.3,0,0,0,253.2,6.68c.252.024.528.036.947.036h2.843a7.233,7.233,0,0,0,.875-.036,6.191,6.191,0,0,0-.036,1v2.578a6.733,6.733,0,0,0,.049.948h-.8v-.744h-3.083Zm.2-8.564a9.232,9.232,0,0,1,.8,1.991l-.695.24a8.5,8.5,0,0,0-.78-1.991Zm-.2,7.149h3.1v-2.4h-3.1Zm9.26-8.552a10.213,10.213,0,0,0-.492,1.068,23.958,23.958,0,0,1-1.236,2.374,5.607,5.607,0,0,1,1.356,1.883,4.164,4.164,0,0,1,.359,1.679,1.448,1.448,0,0,1-.611,1.344,2.4,2.4,0,0,1-1.079.18,9.683,9.683,0,0,1-1-.048,2.361,2.361,0,0,0-.155-.8,6.161,6.161,0,0,0,1.163.12c.683,0,.911-.216.911-.852a3.709,3.709,0,0,0-.4-1.631,4.932,4.932,0,0,0-1.427-1.739,17.568,17.568,0,0,0,1.62-3.346h-2.387V9.99a7.514,7.514,0,0,0,.084,1.332h-.912A9.507,9.507,0,0,0,259.12,10V1.847c0-.36-.012-.7-.048-1.1.312.024.539.035.959.035h1.932a5.709,5.709,0,0,0,.923-.047Z"/><path class="cls-1" d="M265.1,3.742c.431-.012,1.678-.156,2.65-.312a14.658,14.658,0,0,0,.36-2.543V.732l.959.108a7.248,7.248,0,0,0-.227,1.151c-.061.348-.145.791-.252,1.367a6.974,6.974,0,0,1,.707-.036,2.292,2.292,0,0,1,1.727.5,2.42,2.42,0,0,1,.588,1.931,8.278,8.278,0,0,1-.8,4.126,1.255,1.255,0,0,1-1.176.563,4.507,4.507,0,0,1-1.811-.468,2.592,2.592,0,0,0,.024-.419,2.389,2.389,0,0,0-.035-.48,4.474,4.474,0,0,0,1.786.552q.45,0,.684-.576a9.284,9.284,0,0,0,.5-3.334c0-1.272-.359-1.679-1.474-1.679a6.89,6.89,0,0,0-.864.06,22.662,22.662,0,0,1-1.811,5.085c-.156.288-.408.768-.78,1.439l-.815-.48a11.541,11.541,0,0,0,1.247-2.17,19.746,19.746,0,0,0,1.319-3.8c-1.031.156-1.607.251-1.714.275a6.881,6.881,0,0,0-.7.156Zm7.88-1.1a10.87,10.87,0,0,1,2.506,4.246l-.767.444a9.829,9.829,0,0,0-2.447-4.306Z"/><path class="cls-1" d="M279.992,3.034a10.26,10.26,0,0,0-.275,1.319c-.288,1.739-.312,1.823-.348,2.1a1.446,1.446,0,0,1-.048.276l.024.012a3.361,3.361,0,0,1,.372-.36,5.938,5.938,0,0,1,3.466-1.031c1.955,0,3.214.911,3.214,2.315a2.565,2.565,0,0,1-1.08,2.063,4.981,4.981,0,0,1-2.986.791,9.961,9.961,0,0,1-2.1-.216c-.227-.06-.227-.06-.959-.239a1.9,1.9,0,0,0,.012-.229,2.773,2.773,0,0,0-.084-.743,8.513,8.513,0,0,0,3.059.6c1.978,0,3.238-.792,3.238-2.015,0-.984-.864-1.559-2.327-1.559a5.8,5.8,0,0,0-3.358,1.043,2.086,2.086,0,0,0-.48.492l-.936-.024c.037-.216.048-.324.1-.708.12-.912.336-2.3.5-3.31a3.92,3.92,0,0,0,.084-.636ZM280.52.947a14.464,14.464,0,0,0,4.066,1.332l-.336.839a18.757,18.757,0,0,1-2.339-.683,13.311,13.311,0,0,1-1.835-.756Z"/><path class="cls-1" d="M291.568,7.484a15.708,15.708,0,0,1-1.355,2.938c-.12.2-.12.2-.18.312-.012.024-.048.084-.12.192a2.146,2.146,0,0,0-.107.192l-.684-.648a9.6,9.6,0,0,0,1.858-3.49ZM289.59,3.418a11.261,11.261,0,0,1,1.967,1.463l-.445.636a9.032,9.032,0,0,0-1.955-1.535Zm.552-2.95A9.53,9.53,0,0,1,292.024,2.1l-.5.587a8.158,8.158,0,0,0-1.871-1.679Zm5.276,2.566a11.485,11.485,0,0,0-1.463-.959l.527-.42a14.929,14.929,0,0,1,1.4,1,10.9,10.9,0,0,0,1.714-1.2h-3.92a8.65,8.65,0,0,0-1.26.06V.744a7.685,7.685,0,0,0,1.247.071h3.61a11.275,11.275,0,0,0,1.188-.036l.384.408a3.555,3.555,0,0,1-.264.24,11.439,11.439,0,0,1-2.255,1.595l.012.012h1.967a8.505,8.505,0,0,0,.995-.048,5.855,5.855,0,0,0-.048.816V5.961a5.721,5.721,0,0,0,.048.9c-.324-.024-.528-.036-.959-.036h-2.411a5.235,5.235,0,0,1-.144.864h2.627a7.864,7.864,0,0,0,1.043-.048c-.012.132-.012.132-.048.492-.132,1.522-.324,2.3-.66,2.6a1.212,1.212,0,0,1-.9.228c-.407,0-.815-.024-1.283-.06a2.572,2.572,0,0,0-.155-.768,9.526,9.526,0,0,0,1.379.132c.324,0,.443-.06.54-.264a5.243,5.243,0,0,0,.3-1.655H295.55a5.517,5.517,0,0,1-3.741,2.8,2.411,2.411,0,0,0-.468-.708,7.183,7.183,0,0,0,2.326-.935,3.235,3.235,0,0,0,1.092-1.152h-1.715a7.767,7.767,0,0,0-1.176.072V7.628a10.508,10.508,0,0,0,1.188.06h1.991a4.815,4.815,0,0,0,.168-.864h-1.752c-.444,0-.863.012-1.1.036a7.259,7.259,0,0,0,.048-.947V3.9a6.458,6.458,0,0,0-.048-.912,8.3,8.3,0,0,0,1.1.048Zm-2.326,1.559h2.266V3.622h-2.266Zm0,1.632h2.266V5.193h-2.266Zm2.95-1.632h2.519V3.622h-2.519Zm0,1.632h2.519V5.193h-2.519Z"/><path class="cls-1" d="M302.557,2.614c.287.024.491.037.9.037a23.914,23.914,0,0,0,2.843-.168,15.6,15.6,0,0,0-.72-1.643l.9-.156a10.02,10.02,0,0,0,.636,1.691,15.173,15.173,0,0,0,3.2-.792l.072.779c-1.068.289-2.351.564-3.022.672.18.4.5,1.032.684,1.356a12.2,12.2,0,0,0,2.746-.744l.1.8c-.2.048-.252.048-.648.156-.84.216-1.439.348-1.883.432a14.091,14.091,0,0,0,1.763,2.387l-.707.5a3.274,3.274,0,0,0-1.319-.455,12.132,12.132,0,0,0-1.572-.108c-1.727,0-2.842.54-2.842,1.367,0,.792.912,1.224,2.554,1.224a8.083,8.083,0,0,0,3.55-.8l.168.935a6.988,6.988,0,0,0-.72.2,10.439,10.439,0,0,1-3.07.444,4.843,4.843,0,0,1-2.471-.5,1.675,1.675,0,0,1-.9-1.487c0-1.295,1.38-2.075,3.658-2.075a7.211,7.211,0,0,1,2.423.348,10.987,10.987,0,0,1-1.283-1.847,24.982,24.982,0,0,1-4.21.348c-.575.024-.623.024-.84.048l-.024-.792a9.318,9.318,0,0,0,.959.036,23.892,23.892,0,0,0,3.779-.3c-.312-.587-.384-.719-.684-1.367a25.508,25.508,0,0,1-3.238.216,6.525,6.525,0,0,0-.743.036Z"/><path class="cls-1" d="M318.485,1.547A4.784,4.784,0,0,0,318.4.456h.972a5.427,5.427,0,0,0-.084,1.091V4.581h3.154V2.315a6.37,6.37,0,0,0-.048-.876h.9a5.919,5.919,0,0,0-.06.912V4.737c0,.24.012.408.024.612-.24-.012-.516-.024-.743-.024h-3.227v4.39h3.574V7.436A6.493,6.493,0,0,0,322.8,6.4h.911a6.663,6.663,0,0,0-.06,1.068v2.71a6.118,6.118,0,0,0,.071,1.008h-.863v-.72h-7.8v.72H314.2a6.308,6.308,0,0,0,.072-1.008V7.544a6.663,6.663,0,0,0-.06-1.068h.912a6.016,6.016,0,0,0-.061,1.02V9.715h3.418V5.325h-3c-.216,0-.491.012-.743.024.012-.228.023-.408.023-.612V2.362a8.492,8.492,0,0,0-.059-.923h.9a6.16,6.16,0,0,0-.048.888V4.581h2.926Z"/><path class="cls-1" d="M329.03,1.019a18.5,18.5,0,0,0-.156,2.531c-.048,1.439-.084,3.07-.084,3.61,0,.144.012.444.024.72a1.885,1.885,0,0,0,.564,1.439,2.262,2.262,0,0,0,1.5.468A3.444,3.444,0,0,0,334.091,7.7a7.132,7.132,0,0,0,.588-1.883,3.385,3.385,0,0,0,.863.575,7.28,7.28,0,0,1-1.331,2.723,4.2,4.2,0,0,1-3.382,1.5,2.847,2.847,0,0,1-2.255-.839,3.342,3.342,0,0,1-.659-2.459c0-.8.012-1.1.107-4.881.012-.36.012-.588.012-.78a3.691,3.691,0,0,0-.048-.636Z"/><path class="cls-1" d="M338.769,2.842a8.271,8.271,0,0,0,1.5.108c.241,0,.373,0,.72-.024a11.719,11.719,0,0,0,.264-2.207l.948.1a11.346,11.346,0,0,0-.216,1.14c-.06.384-.1.552-.156.911a9.891,9.891,0,0,0,2.159-.407l.06.827c-.1.012-.1.012-.336.06a17.524,17.524,0,0,1-2.027.288c-.18.947-.516,2.3-.839,3.394a31.953,31.953,0,0,1-1.379,3.658l-.876-.372a24.171,24.171,0,0,0,2.255-6.632c-.241.012-.384.012-.828.012-.419,0-.528,0-1-.024h-.047a1.8,1.8,0,0,0-.2.012ZM344.131,7.2a3.9,3.9,0,0,0-.36.456,1.444,1.444,0,0,0-.3.851c0,.72.732,1.1,2.1,1.1a8.909,8.909,0,0,0,2.651-.408l.084.9c-.132.024-.132.024-.529.084a12,12,0,0,1-2.134.2c-1.967,0-2.987-.611-2.987-1.8,0-.539.168-.911.8-1.727Zm3.706-2.075a12.044,12.044,0,0,0-1.415-.084,10.438,10.438,0,0,0-3,.408l-.084-.816a13.626,13.626,0,0,1,3.178-.395c.228,0,.408,0,1.308.035Z"/><path class="cls-1" d="M354.675,3.826c-.1.24-.108.288-.252.744a10.262,10.262,0,0,1-3.573,5.289,2.74,2.74,0,0,0-.672-.6,7.926,7.926,0,0,0,1.99-1.871,8.789,8.789,0,0,0,1.584-3.214h-1.98a6.93,6.93,0,0,0-1.139.072V3.37a7.172,7.172,0,0,0,1.164.06h1.283a7.606,7.606,0,0,0,1.14-.048Zm5.673-.876a3.712,3.712,0,0,0-.336.372c-.287.336-1.1,1.164-1.547,1.571-.336.3-.336.3-1.02.84a11.085,11.085,0,0,0,1.415,1.715A8.737,8.737,0,0,0,361.2,9.127a2.738,2.738,0,0,0-.636.756,10.265,10.265,0,0,1-2.578-2.195A10.608,10.608,0,0,1,356.63,5.7a7.951,7.951,0,0,1-.636-1.523c.072,1.043.1,1.7.1,2.338v3.551c0,.755-.24.959-1.091.959a14.539,14.539,0,0,1-1.524-.084,2.387,2.387,0,0,0-.191-.828,8.789,8.789,0,0,0,1.607.168c.335,0,.408-.06.408-.348V1.739a8.015,8.015,0,0,0-.084-1.211h.947a6.382,6.382,0,0,0-.1,1.2v.827a7.525,7.525,0,0,0,1.008,2.567,9.939,9.939,0,0,0,2.53-2.759Z"/><path class="cls-1" d="M362.82,3.79a24.616,24.616,0,0,0,2.652-.312,14.882,14.882,0,0,0,.359-2.543V.779l.959.108a7.5,7.5,0,0,0-.228,1.152c-.047.3-.156.851-.252,1.367a7.008,7.008,0,0,1,.708-.036,2.289,2.289,0,0,1,1.727.5,2.418,2.418,0,0,1,.588,1.931,8.258,8.258,0,0,1-.8,4.125,1.251,1.251,0,0,1-1.175.564,4.515,4.515,0,0,1-1.811-.468,2.669,2.669,0,0,0,.024-.431,2.214,2.214,0,0,0-.036-.468,4.486,4.486,0,0,0,1.787.552q.45,0,.684-.576a9.3,9.3,0,0,0,.5-3.334c0-1.272-.361-1.679-1.476-1.679a6.877,6.877,0,0,0-.863.06,23.322,23.322,0,0,1-2.591,6.524l-.815-.48a17.714,17.714,0,0,0,2.566-5.972,15.625,15.625,0,0,0-2.41.431Zm7.88-1.1a10.986,10.986,0,0,1,2.507,4.246l-.768.432a10.129,10.129,0,0,0-2.446-4.306Zm.54-2.038a9.112,9.112,0,0,1,1.235,1.859l-.6.359A9.256,9.256,0,0,0,370.641.959ZM372.6,0a9.719,9.719,0,0,1,1.235,1.859l-.6.348A8.65,8.65,0,0,0,372.008.324Z"/><path class="cls-1" d="M375.92,1.631a4.992,4.992,0,0,0-1.032.072V.887a5.305,5.305,0,0,0,1.067.072h2.016A5.363,5.363,0,0,0,378.99.887v.792a7.678,7.678,0,0,0-.983-.048h-.768a11.368,11.368,0,0,1-.828,2.974h1.38a5.725,5.725,0,0,0,.731-.035,6.316,6.316,0,0,0-.036.947V9.391a7.963,7.963,0,0,0,.048,1.007H377.8V9.691h-1.38v1.247h-.791a7.168,7.168,0,0,0,.072-1.163V7.052c.012-.588.023-1.019.035-1.283a5.819,5.819,0,0,1-.839,1.415,2.828,2.828,0,0,0-.431-.684,8.316,8.316,0,0,0,1.558-2.806,8.639,8.639,0,0,0,.48-2.063Zm.5,7.424h1.38V5.241h-1.38Zm3.85-6.572a7.709,7.709,0,0,0-1.055.059V1.751a5.646,5.646,0,0,0,1.055.06h.707c.013-.288.025-.468.025-.684a4.027,4.027,0,0,0-.061-.779h.852a4.668,4.668,0,0,0-.06.743c-.011.252-.024.444-.036.72h1.151a8.312,8.312,0,0,0,.984-.048c-.024.3-.036.468-.036.875V4.761c0,.216.072.252.456.252.479,0,.611-.036.672-.2a7.56,7.56,0,0,0,.095-1.523,2.037,2.037,0,0,0,.672.24c-.084,2.027-.168,2.159-1.439,2.159-.924,0-1.163-.144-1.163-.66V2.483h-1.463a6.3,6.3,0,0,1-.456,1.619,4.64,4.64,0,0,1-1.991,2.182,1.68,1.68,0,0,0-.48-.611,3.782,3.782,0,0,0,1.763-1.727,4.387,4.387,0,0,0,.431-1.463Zm-.108,5.432a6.913,6.913,0,0,0-1.151.072V7.16a6.419,6.419,0,0,0,1.151.072h1.547V6.32a6.679,6.679,0,0,0-.071-.983h.887a6.194,6.194,0,0,0-.072.983v.912h1.978a6.837,6.837,0,0,0,1.176-.072v.827a7.006,7.006,0,0,0-1.151-.072h-2V10.05a9.42,9.42,0,0,0,.072,1.248h-.887a9.72,9.72,0,0,0,.071-1.26V7.915Z"/><path class="cls-1" d="M388.694,1.9a10.045,10.045,0,0,0-1.427.084V1.091a8.347,8.347,0,0,0,1.416.084h7.448a8.654,8.654,0,0,0,1.4-.084v.888a10.021,10.021,0,0,0-1.4-.084h-4.487a10.784,10.784,0,0,1-1.331,3.058h5.134a7.876,7.876,0,0,0,1.187-.06,9.291,9.291,0,0,0-.06,1.176V9.81A8.806,8.806,0,0,0,396.646,11h-.863V10.23h-5.554v.756h-.863A8.771,8.771,0,0,0,389.45,9.8V7.076c0-.348,0-.66.025-.923a9.886,9.886,0,0,1-2.244,2.362,1.928,1.928,0,0,0-.54-.7,9.924,9.924,0,0,0,3.023-3.275,9.723,9.723,0,0,0,1.092-2.65Zm1.535,7.628H395.8V5.661h-5.566Z"/><path class="cls-1" d="M403.28,1.835a4.412,4.412,0,0,0-.155.816c-.5,3.418-1.476,5.72-3.166,7.483a2.649,2.649,0,0,0-.768-.623,7.735,7.735,0,0,0,1.739-2.375,13.912,13.912,0,0,0,1.235-4.162,9.485,9.485,0,0,0,.12-1.127,1.326,1.326,0,0,0-.012-.192Zm3.322-.18a14.547,14.547,0,0,0,.552,2.878,10.6,10.6,0,0,0,2.723,4.954,2.575,2.575,0,0,0-.743.671,14.4,14.4,0,0,1-3.263-7.532,5.1,5.1,0,0,0-.156-.791Zm3.7.432A1.362,1.362,0,1,1,408.941.732,1.346,1.346,0,0,1,410.3,2.087Zm-2.219,0a.858.858,0,1,0,.863-.852A.857.857,0,0,0,408.078,2.087Z"/><path class="cls-1" d="M421.069,1.439a2.716,2.716,0,0,0-.528.5,20.989,20.989,0,0,1-2.807,2.41v5.11a7.932,7.932,0,0,0,.061,1.271h-1.044a6.249,6.249,0,0,0,.072-1.247V4.929a18.726,18.726,0,0,1-4.63,2.1,2.735,2.735,0,0,0-.467-.8,16.9,16.9,0,0,0,6.225-3.107,10.076,10.076,0,0,0,2.29-2.266Z"/><path class="cls-1" d="M427.308,1.3a6.044,6.044,0,0,0-.073,1.032c-.1,3.25-.191,4.137-.647,5.349a7.327,7.327,0,0,1-2.075,2.962,2.224,2.224,0,0,0-.719-.648,5.927,5.927,0,0,0,2.026-2.758,16.357,16.357,0,0,0,.54-5.145,5.338,5.338,0,0,0-.048-.852Zm2.974-.132a4.652,4.652,0,0,0-.072,1.056l-.072,7.244a5.551,5.551,0,0,0,2.231-1.391,5.946,5.946,0,0,0,1.415-2.4,3.326,3.326,0,0,0,.672.7,6.82,6.82,0,0,1-2.411,3.083,7.969,7.969,0,0,1-1.715.875c-.216.084-.216.084-.384.144a2.057,2.057,0,0,0-.276.132l-.48-.552a2,2,0,0,0,.084-.815l.073-7.016a4.815,4.815,0,0,0-.048-1.068Z"/><path class="cls-1" d="M438.6,1.163a16.871,16.871,0,0,0-.5,1.919,17.721,17.721,0,0,0-.36,3.754c0,.936.024,1.643.072,2.279a11.084,11.084,0,0,1,.78-2.339l.575.276a10.451,10.451,0,0,0-.972,3.3v.18l-.863.072c-.024-.192-.036-.252-.072-.48a17.179,17.179,0,0,1-.312-3.394,19.828,19.828,0,0,1,.54-4.749,6.682,6.682,0,0,0,.168-.96Zm3.058,4.822a2.784,2.784,0,0,0-.9,1.763c0,.887.756,1.319,2.3,1.319a7.885,7.885,0,0,0,2.758-.42l.12.924c-.156.012-.179.024-.419.06a12.37,12.37,0,0,1-2.459.24,3.332,3.332,0,0,1-2.747-.912,1.7,1.7,0,0,1-.359-1.1,3.314,3.314,0,0,1,1.043-2.231Zm-1.523-3.55a8.145,8.145,0,0,0,2.039.179,12.871,12.871,0,0,0,3.214-.323l.059.851c-.023,0-.3.036-.827.108a20.229,20.229,0,0,1-2.579.156,15.952,15.952,0,0,1-1.918-.12Z"/><path class="cls-1" d="M450.627,1.367c.359,0,.6-.012.888-.036a7.834,7.834,0,0,0-.037,1.14V7.676a7.625,7.625,0,0,0,.037,1.127h-.756V8.227h-1.488V9.475h-.8a10.592,10.592,0,0,0,.072-1.332V2.483a11.054,11.054,0,0,0-.048-1.152c.288.024.564.036.936.036Zm-1.356,6.177h1.488V2.063h-1.488Zm9.44-3.035a2.959,2.959,0,0,0-.24.552,12.885,12.885,0,0,1-1.919,3.358,9.277,9.277,0,0,0,2.866,2.075,2.4,2.4,0,0,0-.468.756,10.919,10.919,0,0,1-2.9-2.279,10.025,10.025,0,0,1-3.394,2.219,3.2,3.2,0,0,0-.54-.66,8.874,8.874,0,0,0,3.478-2.1,8.616,8.616,0,0,1-1-1.643,10.457,10.457,0,0,1-.78-2.59,11.948,11.948,0,0,1-1.247,4.761,9.031,9.031,0,0,1-1.668,2.219,3.119,3.119,0,0,0-.611-.588,7.122,7.122,0,0,0,2.219-3.3,17.1,17.1,0,0,0,.683-3.67c.036-.444.036-.444.073-1.991H453a7.356,7.356,0,0,0-1.152.06V.863a8.662,8.662,0,0,0,1.236.072h3.238a8.918,8.918,0,0,0,1.115-.048c-.047.156-.084.312-.144.612-.192.936-.4,1.751-.648,2.651h.756a5.408,5.408,0,0,0,.936-.048ZM454,1.631a13.445,13.445,0,0,0,.708,3.682A8.291,8.291,0,0,0,456.1,7.868a10.217,10.217,0,0,0,1.655-3.047h-1.308c-.371,0-.491,0-.755.012a26.746,26.746,0,0,0,.816-3.2Z"/><path class="cls-1" d="M241.716,22.232a16.1,16.1,0,0,0,1.726-.7V16.127a8.177,8.177,0,0,0-.084-1.259h.924a8.093,8.093,0,0,0-.084,1.259v8.251a8.059,8.059,0,0,0,.084,1.248h-.924a7.937,7.937,0,0,0,.084-1.248v-2.11c-1.067.455-1.5.623-2.7,1.043-.216.072-.276.1-.5.18l-.179-.792c.455-.1.623-.144.911-.228V17.23a8.152,8.152,0,0,0-.084-1.247h.912a7.924,7.924,0,0,0-.084,1.247Zm7.939-6.573a7.083,7.083,0,0,0,.888-.048c-.013.06-.013.06-.156,1.02a19.437,19.437,0,0,1-.744,2.9,12.779,12.779,0,0,1-1.368,2.782,9.565,9.565,0,0,0,2.915,2.579,2.934,2.934,0,0,0-.479.756,11.809,11.809,0,0,1-2.9-2.675,11.71,11.71,0,0,1-2.988,2.723,1.966,1.966,0,0,0-.5-.7,9.752,9.752,0,0,0,3.034-2.675,10.591,10.591,0,0,1-1.307-2.866,14.66,14.66,0,0,1-.575-3.094,5,5,0,0,0-.828.06V15.6a6.607,6.607,0,0,0,1.044.06Zm-3.442.708a13.081,13.081,0,0,0,.492,2.746,9.364,9.364,0,0,0,1.115,2.543,13.1,13.1,0,0,0,1.811-5.289Z"/><path class="cls-1" d="M253.319,17.554a5.268,5.268,0,0,0,.924.06,27.978,27.978,0,0,0,3.574-.252c-.179-.408-.372-.887-.588-1.427-.131-.312-.2-.48-.311-.7l.947-.132a3.825,3.825,0,0,0,.348,1.08,10.276,10.276,0,0,0,.431,1.055,14.086,14.086,0,0,0,2.9-.755l.12.851c-.252.048-.348.072-.708.168-.719.192-.863.228-1.618.372l-.408.084a22.08,22.08,0,0,0,2.159,3.49l-.8.456a2.4,2.4,0,0,0-.828-.492,6.492,6.492,0,0,0-2.1-.312,4.246,4.246,0,0,0-2.278.5,1.36,1.36,0,0,0-.647,1.115,1.2,1.2,0,0,0,.455.936,4.06,4.06,0,0,0,2.338.551,7.907,7.907,0,0,0,3.407-.767l.131.923a9.934,9.934,0,0,1-3.526.648,4.4,4.4,0,0,1-3.118-.9,1.93,1.93,0,0,1-.539-1.319,2.244,2.244,0,0,1,1.354-1.955,5.114,5.114,0,0,1,2.328-.444,5.985,5.985,0,0,1,2.482.432,14.5,14.5,0,0,1-1.439-2.351c-.132-.251-.132-.275-.2-.395a35.282,35.282,0,0,1-4.27.312,2.659,2.659,0,0,0-.468.036Z"/><path class="cls-1" d="M264.4,22.424a18.452,18.452,0,0,0,2.111-2.028c.011-.479.036-1.235.072-2.29a12.222,12.222,0,0,0-1.883.168l-.048-.828a2.423,2.423,0,0,0,.371.024c.037,0,.565-.036,1.572-.1.036-.911.048-1.451.048-1.607a4.693,4.693,0,0,0-.037-.6l.949.012a13.732,13.732,0,0,0-.145,2.135.769.769,0,0,0,.24-.06l.312.372a4.145,4.145,0,0,0-.611.744,2.023,2.023,0,0,1-.012.3c-.013.24-.013.24-.024.8a.613.613,0,0,1-.012.108c0,.1-.013.12-.013.192l.025.012a8.475,8.475,0,0,1,1.523-1.4,4.813,4.813,0,0,1,2.71-1.319,1.3,1.3,0,0,1,1.4,1.4,7.983,7.983,0,0,1-.275,1.75,13.124,13.124,0,0,0-.516,2.843c0,.552.252.852.72.852a1.444,1.444,0,0,0,1.018-.66,4.906,4.906,0,0,0,.684-1.379,3.939,3.939,0,0,0,.552.815,5.928,5.928,0,0,1-.743,1.188,2.067,2.067,0,0,1-1.656.863,1.381,1.381,0,0,1-1.4-1.619,11.634,11.634,0,0,1,.456-2.794,9,9,0,0,0,.3-1.8.608.608,0,0,0-.66-.648,3.417,3.417,0,0,0-1.811.816,19.336,19.336,0,0,0-2.314,2.038v2.591a18.593,18.593,0,0,0,.036,1.991H266.4a10.254,10.254,0,0,0,.084-1.979c0-1.4,0-1.4.035-1.943H266.5a1.333,1.333,0,0,1-.216.288c-.179.2-.179.2-.588.66-.131.143-.3.335-.5.563a2.543,2.543,0,0,0-.312.384Z"/><path class="cls-1" d="M278.4,15.839a5.537,5.537,0,0,0,1.127.072c1,0,2.591-.072,3.67-.156a1.227,1.227,0,0,0,.576-.132l.5.66a2.232,2.232,0,0,0-.611.5,30.843,30.843,0,0,1-3.945,3.406l.023.036a6.076,6.076,0,0,1,2.939-.744c2,0,3.286.983,3.286,2.519,0,1.871-1.74,3.106-4.4,3.106-1.691,0-2.663-.624-2.663-1.727a1.558,1.558,0,0,1,1.74-1.4,2.416,2.416,0,0,1,1.979.983,3.439,3.439,0,0,1,.552,1.151c1.259-.347,1.919-1.079,1.919-2.1,0-1.152-.96-1.835-2.579-1.835a7.69,7.69,0,0,0-5.049,2.051l-.54-.768a13.458,13.458,0,0,0,1.678-1.223c1.285-1.02,3.179-2.687,4.006-3.5.073-.071.073-.071.168-.168,0,0,.025-.023.048-.047l.049-.048-.024-.024a.476.476,0,0,0-.109.012c-.384.072-1.822.156-3.645.216a6.166,6.166,0,0,0-.648.059Zm2.255,6.824c-.6,0-.971.288-.971.744a.815.815,0,0,0,.479.731,3.063,3.063,0,0,0,1.344.276,4.312,4.312,0,0,0,.875-.084C282.117,23.239,281.517,22.663,280.654,22.663Z"/><path class="cls-1" d="M291.814,23.755a1.8,1.8,0,1,1-1.8-1.8A1.8,1.8,0,0,1,291.814,23.755Zm-2.914,0a1.116,1.116,0,1,0,1.116-1.116A1.121,1.121,0,0,0,288.9,23.755Z"/><path class="cls-1" d="M.456,4.339a12.744,12.744,0,0,1,1.894,1.4l-.467.624A8.59,8.59,0,0,0,0,4.891ZM2.3,8.357a14.011,14.011,0,0,1-1.176,2.8c-.132.227-.2.371-.24.431a2.785,2.785,0,0,0-.156.276l-.659-.6a9.214,9.214,0,0,0,1.643-3.37ZM.887,1.377a8.651,8.651,0,0,1,1.739,1.5l-.515.564A7.323,7.323,0,0,0,.384,1.893ZM3.5,8.093c0-.516.012-.8.036-1.355a5.273,5.273,0,0,1-.972,1.307A2,2,0,0,0,2.087,7.4,5.592,5.592,0,0,0,3.13,6.258,8.576,8.576,0,0,0,4.545,3.44l.768.287c-.072.156-.072.156-.2.432A16.269,16.269,0,0,1,4.233,5.85V10.7a11.686,11.686,0,0,0,.073,1.379H3.43A10.72,10.72,0,0,0,3.5,10.66ZM6.248,2a3.566,3.566,0,0,0-.06-.815h.876a3.577,3.577,0,0,0-.06.8V2.54H9.847a9.072,9.072,0,0,0,1.091-.072v.8c-.456-.036-.78-.06-1.067-.06H3.97a10.579,10.579,0,0,0-1.068.06v-.8A8.259,8.259,0,0,0,3.97,2.54H6.248ZM10.4,4.951c-.084.228-.108.312-.264.8A10.846,10.846,0,0,1,8.239,9.436a9.013,9.013,0,0,0,3.047,1.835A3.314,3.314,0,0,0,10.83,12,10.276,10.276,0,0,1,7.784,9.964,9.708,9.708,0,0,1,5.157,12a2.03,2.03,0,0,0-.528-.648A8.179,8.179,0,0,0,7.292,9.448,9.354,9.354,0,0,1,5.757,7.242c-.24.335-.324.443-.66.863a1.8,1.8,0,0,0-.539-.5A8.975,8.975,0,0,0,6.081,5.443,6.925,6.925,0,0,0,6.74,3.524l.768.2c-.048.133-.048.133-.192.516-.024.06-.036.084-.132.336H9.1a5.42,5.42,0,0,0,.9-.048ZM6.92,5.215a12.64,12.64,0,0,1-.756,1.4A9.066,9.066,0,0,0,7.736,8.933,9.9,9.9,0,0,0,9.547,5.215Zm1.1,2.3A5,5,0,0,0,6.9,6.174l.48-.432A7.587,7.587,0,0,1,8.515,7.014Z"/><path class="cls-1" d="M14.55,2.348a6.932,6.932,0,0,0-.073-1.055h.9a5.528,5.528,0,0,0-.072,1.055v8.66a5.52,5.52,0,0,0,.072,1.067h-.9a7.441,7.441,0,0,0,.073-1.115V7.877c-.372.252-.78.5-1.1.7-.408.228-.7.4-.851.492L12.247,8.3a12.181,12.181,0,0,0,2.3-1.211ZM13.1,2.912a12.029,12.029,0,0,1,.875,2.566l-.7.288a9.815,9.815,0,0,0-.84-2.6Zm6.524,2.351a12.725,12.725,0,0,0,1.1,3.178,7.145,7.145,0,0,0,2.5,2.806,2.835,2.835,0,0,0-.564.744,8.383,8.383,0,0,1-2.579-3.2,9.281,9.281,0,0,1-.852-2.627,9.7,9.7,0,0,1-1.019,3.274,7.173,7.173,0,0,1-2.122,2.495,2.229,2.229,0,0,0-.54-.66A5.935,5.935,0,0,0,17.4,9.341,9.048,9.048,0,0,0,18.64,5.263H17a8.46,8.46,0,0,0-1.2.072V4.507a8.039,8.039,0,0,0,1.187.072H18.7c.036-.816.048-1.079.048-2.327a4.877,4.877,0,0,0-.072-.9H19.6a8.839,8.839,0,0,0-.084,1.355c-.024.864-.036,1.247-.084,1.871h2.53a7.767,7.767,0,0,0,1.176-.072v.828a7.64,7.64,0,0,0-1.152-.072Zm2.242-1.188A9.22,9.22,0,0,0,20.234,2.1l.564-.383A12.03,12.03,0,0,1,22.465,3.62Z"/><path class="cls-1" d="M26.57,6.822c0-.672,0-.828.024-1.463A9.655,9.655,0,0,1,25.07,7.373a4.393,4.393,0,0,0-.515-.7,11.234,11.234,0,0,0,2.711-4.042A5.408,5.408,0,0,0,27.674,1.2l.886.252c-.047.12-.047.12-.251.671-.108.276-.516,1.236-.959,2.231v6.285c0,.467.023.959.072,1.451h-.936A14.216,14.216,0,0,0,26.57,10.6Zm4.041,3.622c0,.419.181.48,1.572.48,1.367,0,1.823-.072,2-.288a5.259,5.259,0,0,0,.409-2.195,2.734,2.734,0,0,0,.791.372,5.472,5.472,0,0,1-.564,2.351c-.3.395-.887.5-2.686.5-2,0-2.315-.144-2.315-1.079V2.636a11.35,11.35,0,0,0-.072-1.3h.936a9.324,9.324,0,0,0-.073,1.3V6.03a16.229,16.229,0,0,0,2.1-1.379,8.5,8.5,0,0,0,1.715-1.667l.7.636c-.168.143-.168.143-.731.659a19.145,19.145,0,0,1-3.779,2.627Z"/><path class="cls-1" d="M41.731,8.009c-.7,1.583-1.4,2.3-2.266,2.3-1.14,0-1.991-1.247-1.991-2.927a4.993,4.993,0,0,1,1.259-3.31,5.01,5.01,0,0,1,3.874-1.6,4.64,4.64,0,0,1,3.3,1.188,4.011,4.011,0,0,1,1.163,2.926,4.367,4.367,0,0,1-2.746,4.138,9.278,9.278,0,0,1-1.823.551,1.9,1.9,0,0,0-.42-.8,7.175,7.175,0,0,0,2-.564,3.621,3.621,0,0,0,2.123-3.358A3.16,3.16,0,0,0,44.3,3.548a3.448,3.448,0,0,0-1.391-.3A17.965,17.965,0,0,1,41.731,8.009ZM40.257,3.823A4.147,4.147,0,0,0,38.3,7.4c0,1.151.5,2.038,1.151,2.038.5,0,.983-.563,1.5-1.739A16.5,16.5,0,0,0,42.044,3.26,3.8,3.8,0,0,0,40.257,3.823Z"/><path class="cls-1" d="M53.5,4.651c-.1.24-.107.288-.252.744a10.256,10.256,0,0,1-3.573,5.289,2.74,2.74,0,0,0-.672-.6,7.908,7.908,0,0,0,1.99-1.871A8.766,8.766,0,0,0,52.576,5H50.6a6.944,6.944,0,0,0-1.14.072V4.2a7.179,7.179,0,0,0,1.164.06H51.9a7.606,7.606,0,0,0,1.14-.048Zm5.673-.875a3.823,3.823,0,0,0-.336.371c-.287.336-1.1,1.164-1.547,1.571-.336.3-.336.3-1.019.84a10.926,10.926,0,0,0,1.415,1.715,8.693,8.693,0,0,0,2.338,1.679,2.751,2.751,0,0,0-.635.756,10.23,10.23,0,0,1-2.578-2.2,10.58,10.58,0,0,1-1.356-1.991A7.924,7.924,0,0,1,54.818,5c.073,1.043.1,1.7.1,2.339v3.55c0,.755-.239.959-1.091.959a14.507,14.507,0,0,1-1.523-.084,2.411,2.411,0,0,0-.192-.828,8.789,8.789,0,0,0,1.607.168c.336,0,.408-.06.408-.347V2.564a7.9,7.9,0,0,0-.084-1.211h.947a6.391,6.391,0,0,0-.095,1.2V3.38A7.5,7.5,0,0,0,55.9,5.946a9.977,9.977,0,0,0,2.531-2.758Z"/><path class="cls-1" d="M63.36,3.692c0,4.005-.36,6.08-1.391,7.975a2.706,2.706,0,0,0-.672-.576c.983-1.715,1.283-3.5,1.283-7.615a12.587,12.587,0,0,0-.06-1.583,12.7,12.7,0,0,0,1.463.06H70.5a8.334,8.334,0,0,0,1.343-.072v.863a9.354,9.354,0,0,0-1.343-.06H63.36Zm3.789,3.022h-1.87a9.065,9.065,0,0,0-1.223.072V5.91a7.422,7.422,0,0,0,1.223.084h1.87V4.351a7.628,7.628,0,0,0-.083-1.2h.959a7.536,7.536,0,0,0-.084,1.2V5.994h2.328a7.048,7.048,0,0,0,1.222-.084v.876a8.935,8.935,0,0,0-1.222-.072H67.941v3.934H70.7a9.4,9.4,0,0,0,1.32-.072v.887a8.878,8.878,0,0,0-1.308-.084H64.439a8.864,8.864,0,0,0-1.307.084v-.887a9.484,9.484,0,0,0,1.3.072h2.721Z"/><path class="cls-1" d="M74.048,3.26c.228.012.347.012.431.012.168,0,.313-.012.684-.036.672-.048.744-.06,2.22-.144l1.883-.12c1.474-.084,1.63-.1,2.026-.108l.683-.024A8.1,8.1,0,0,0,83.4,2.708l.072.888a5.025,5.025,0,0,0-1.343.167,5.891,5.891,0,0,0-2.3,1.2,3.663,3.663,0,0,0-1.475,2.77,2.352,2.352,0,0,0,1.679,2.219,6.138,6.138,0,0,0,1.8.384h.12l-.156.971c-.132-.024-.156-.036-.372-.072a6.026,6.026,0,0,1-2.59-.923A2.9,2.9,0,0,1,77.5,7.865a4.563,4.563,0,0,1,2.243-3.682,7.76,7.76,0,0,1,1.14-.635,24.617,24.617,0,0,1-2.639.263,39.913,39.913,0,0,0-4.138.4Zm8.023,1.787a9.1,9.1,0,0,1,1.236,1.859l-.612.36a8.407,8.407,0,0,0-1.223-1.907Zm1.356-.66a9.7,9.7,0,0,1,1.235,1.871l-.6.336a9.49,9.49,0,0,0-1.224-1.883Z"/><path class="cls-1" d="M90.205,4.651c-.1.24-.107.288-.252.744a10.262,10.262,0,0,1-3.573,5.289,2.722,2.722,0,0,0-.672-.6A7.929,7.929,0,0,0,87.7,8.213,8.764,8.764,0,0,0,89.282,5H87.3a6.922,6.922,0,0,0-1.139.072V4.2a7.158,7.158,0,0,0,1.163.06H88.61a7.606,7.606,0,0,0,1.14-.048Zm5.673-.875a3.823,3.823,0,0,0-.336.371c-.287.336-1.1,1.164-1.547,1.571-.336.3-.336.3-1.02.84a10.987,10.987,0,0,0,1.416,1.715,8.693,8.693,0,0,0,2.338,1.679,2.751,2.751,0,0,0-.635.756,10.23,10.23,0,0,1-2.578-2.2A10.58,10.58,0,0,1,92.16,6.522,7.924,7.924,0,0,1,91.524,5c.073,1.043.1,1.7.1,2.339v3.55c0,.755-.239.959-1.091.959a14.507,14.507,0,0,1-1.523-.084,2.388,2.388,0,0,0-.192-.828,8.789,8.789,0,0,0,1.607.168c.336,0,.408-.06.408-.347V2.564a7.9,7.9,0,0,0-.084-1.211h.947a6.391,6.391,0,0,0-.095,1.2V3.38A7.5,7.5,0,0,0,92.6,5.946a9.977,9.977,0,0,0,2.531-2.758Z"/><path class="cls-1" d="M98.35,4.615A24.588,24.588,0,0,0,101,4.3a14.886,14.886,0,0,0,.359-2.542V1.605l.959.108a7.4,7.4,0,0,0-.227,1.151c-.048.3-.157.852-.252,1.367a6.979,6.979,0,0,1,.708-.036,2.288,2.288,0,0,1,1.726.5,2.42,2.42,0,0,1,.588,1.931,8.267,8.267,0,0,1-.8,4.126,1.253,1.253,0,0,1-1.175.563,4.51,4.51,0,0,1-1.812-.467,2.575,2.575,0,0,0,.025-.432,2.156,2.156,0,0,0-.037-.468,4.486,4.486,0,0,0,1.788.552q.448,0,.683-.576a9.3,9.3,0,0,0,.5-3.334c0-1.271-.36-1.679-1.476-1.679a6.888,6.888,0,0,0-.863.06A23.292,23.292,0,0,1,99.106,11.5l-.815-.48a17.685,17.685,0,0,0,2.566-5.972,15.758,15.758,0,0,0-2.41.431Zm7.88-1.1a10.975,10.975,0,0,1,2.507,4.245l-.767.432a10.141,10.141,0,0,0-2.447-4.306Zm.54-2.039a9.118,9.118,0,0,1,1.236,1.859l-.6.36a9.2,9.2,0,0,0-1.235-1.907Zm1.356-.648a9.673,9.673,0,0,1,1.235,1.859l-.6.348a8.686,8.686,0,0,0-1.224-1.883Z"/><path class="cls-1" d="M111.785,2.7a9.842,9.842,0,0,0-.071-1.331h.887a10,10,0,0,0-.072,1.343V4.5h.336a4.518,4.518,0,0,0,.959-.06v.78a7.471,7.471,0,0,0-.97-.048h-.325V8.933c.516-.24.732-.348,1.356-.7l.071.732a23.2,23.2,0,0,1-3.094,1.463c-.168.06-.347.144-.479.2l-.2-.828a6.752,6.752,0,0,0,1.606-.54v-4.1h-.443a4.555,4.555,0,0,0-1.008.072V4.423a4.428,4.428,0,0,0,1.008.072h.443Zm3.671,7.772c0,.288.071.384.359.456a8.718,8.718,0,0,0,1.931.108c1.692,0,2.2-.072,2.387-.348a3.5,3.5,0,0,0,.252-1.619,2.2,2.2,0,0,0,.767.311c-.143,2.219-.359,2.363-3.477,2.363-2.484,0-2.975-.18-2.975-1.115v-4.4l-.264.084a6.712,6.712,0,0,0-1,.384l-.215-.816a4.637,4.637,0,0,0,1.044-.24l.431-.144V3.608a8.714,8.714,0,0,0-.072-1.224h.9a8.537,8.537,0,0,0-.071,1.188V5.251l1.715-.576V2.456a7.7,7.7,0,0,0-.072-1.115h.887a7.969,7.969,0,0,0-.072,1.127V4.435l1.848-.612a8.533,8.533,0,0,0,.947-.371c-.048,1.2-.1,2.038-.192,3.214-.084,1.067-.24,1.571-.552,1.751a1.641,1.641,0,0,1-.864.168c-.107,0-.251-.012-.527-.036a2.794,2.794,0,0,0-.18-.756,4.283,4.283,0,0,0,.923.108c.277,0,.336-.06.4-.408a24.14,24.14,0,0,0,.192-3.034l-1.991.684v3.31a7.842,7.842,0,0,0,.072,1.151H117.1a7.937,7.937,0,0,0,.072-1.163V5.4l-1.715.575Z"/><path class="cls-1" d="M125.8,8.525a14.366,14.366,0,0,1-2.855,1.595,2.733,2.733,0,0,0-.479-.684,10.77,10.77,0,0,0,4.329-2.6H123.9a10.209,10.209,0,0,0-1.332.072V6.09a7.127,7.127,0,0,0,1.332.072h3.538V5h-2.483a8.907,8.907,0,0,0-1.223.048V4.279a9.15,9.15,0,0,0,1.223.048h2.483V3.2h-3.106a8.65,8.65,0,0,0-1.272.06V2.468a8.557,8.557,0,0,0,1.295.072h3.083V2.264a5.6,5.6,0,0,0-.072-1.043h.875a5.132,5.132,0,0,0-.071,1.043V2.54h3.3a8.915,8.915,0,0,0,1.319-.072V3.26a9.11,9.11,0,0,0-1.3-.06h-3.322V4.327h2.662a9.783,9.783,0,0,0,1.271-.048v.768A9.662,9.662,0,0,0,130.833,5h-2.662V6.162h3.754a8.31,8.31,0,0,0,1.307-.072v.816a10.181,10.181,0,0,0-1.307-.072h-3.347a7.129,7.129,0,0,0,1.248,1.943A9.7,9.7,0,0,0,131.589,7.1l.695.467a2.9,2.9,0,0,0-.239.228,17.406,17.406,0,0,1-1.739,1.487,9.1,9.1,0,0,0,3.177,1.859,3.22,3.22,0,0,0-.515.72,9.026,9.026,0,0,1-5.145-5.025h-.132a10.267,10.267,0,0,1-1.164,1.115v2.807c.972-.216,1.488-.36,2.711-.72v.732c-1.559.443-2.675.719-4.449,1.067-.192.048-.408.1-.564.144l-.2-.84a11.669,11.669,0,0,0,1.775-.227Z"/><path class="cls-1" d="M137.42,1.988a17.085,17.085,0,0,0-.5,1.919,17.729,17.729,0,0,0-.359,3.754c0,.936.023,1.643.071,2.279a11.084,11.084,0,0,1,.78-2.339l.575.276a10.452,10.452,0,0,0-.971,3.3v.18l-.864.072c-.024-.192-.036-.252-.072-.48a17.246,17.246,0,0,1-.311-3.394,19.777,19.777,0,0,1,.54-4.749,6.988,6.988,0,0,0,.168-.96Zm3.059,4.822a2.781,2.781,0,0,0-.9,1.763c0,.887.756,1.319,2.3,1.319a7.891,7.891,0,0,0,2.759-.42l.12.924c-.156.012-.18.024-.42.06a12.37,12.37,0,0,1-2.459.24,3.33,3.33,0,0,1-2.746-.912,1.7,1.7,0,0,1-.36-1.1,3.314,3.314,0,0,1,1.043-2.231Zm-1.524-3.55a8.146,8.146,0,0,0,2.039.18,12.864,12.864,0,0,0,3.214-.324l.059.851q-.034,0-.827.108a20.229,20.229,0,0,1-2.579.156,15.964,15.964,0,0,1-1.918-.12Z"/><path class="cls-1" d="M147.28,3.428c0-.588-.011-.936-.048-1.332a8.879,8.879,0,0,0,1.02.037h.815c.516,0,.72-.013,1.008-.037a10.971,10.971,0,0,0-.036,1.308V8.777a10.818,10.818,0,0,0,.036,1.271h-.744v-.84H148v1.344h-.792a15.051,15.051,0,0,0,.072-1.775ZM148,8.537h1.331V2.792H148Zm5.205,2.207a7.477,7.477,0,0,1-2.927,1.367,2.007,2.007,0,0,0-.468-.66,5.926,5.926,0,0,0,2.807-1.139ZM151.3,4.255a4.2,4.2,0,0,0-.984.072V3.6a5.6,5.6,0,0,0,1,.059h.612V3.476a3.118,3.118,0,0,0-.048-.6h.779a2.962,2.962,0,0,0-.048.6v.179h2.9V3.476a3.039,3.039,0,0,0-.048-.6h.767a3.019,3.019,0,0,0-.047.612v.167h.5a6.2,6.2,0,0,0,1.222-.071v.743a9.316,9.316,0,0,0-1.222-.072h-.5v.072a4.573,4.573,0,0,0,.047.624h-.767a3.3,3.3,0,0,0,.048-.624V4.255h-2.9v.06a3.217,3.217,0,0,0,.048.624h-.779a3.553,3.553,0,0,0,.048-.624v-.06Zm.78-1.787a8.962,8.962,0,0,0-1.2.048V1.8a6.487,6.487,0,0,0,1.223.072h1.524a2.669,2.669,0,0,0-.061-.684h.828a2.12,2.12,0,0,0-.072.684h1.619A8.262,8.262,0,0,0,157.2,1.8v.719a9.855,9.855,0,0,0-1.235-.048H154.32v.156a3.9,3.9,0,0,0,.048.684h-.791a3.869,3.869,0,0,0,.048-.7V2.468Zm.144,7.676c-.4,0-.8.012-1.26.036.036-.372.06-.768.06-1.211V6.4a10.25,10.25,0,0,0-.047-1.187,9.854,9.854,0,0,0,1.21.036h3.707a10.543,10.543,0,0,0,1.223-.036,9.849,9.849,0,0,0-.048,1.175V8.981c0,.444.024.851.06,1.211-.408-.036-.779-.048-1.272-.048Zm-.493-3.466h4.63V5.862h-4.63Zm0,1.4h4.63v-.8h-4.63Zm0,1.451h4.63V8.681h-4.63Zm3.467.8a8.089,8.089,0,0,0,2.95,1.115,3.324,3.324,0,0,0-.431.66,9,9,0,0,1-3.023-1.319Z"/><path class="cls-1" d="M160.439,3.44c.287.024.492.036.9.036a23.705,23.705,0,0,0,2.843-.168,15.6,15.6,0,0,0-.72-1.643l.9-.156A9.988,9.988,0,0,0,165,3.2a15.173,15.173,0,0,0,3.2-.792l.071.78c-1.067.288-2.35.563-3.021.672.18.4.5,1.031.684,1.355a12.212,12.212,0,0,0,2.746-.744l.095.8c-.2.048-.252.048-.647.156-.84.215-1.439.348-1.883.431a14.012,14.012,0,0,0,1.763,2.387l-.707.5a3.259,3.259,0,0,0-1.32-.456,12.116,12.116,0,0,0-1.571-.108c-1.727,0-2.843.54-2.843,1.367,0,.792.913,1.224,2.555,1.224a8.083,8.083,0,0,0,3.55-.8l.168.936a6.546,6.546,0,0,0-.72.2,10.439,10.439,0,0,1-3.07.444,4.84,4.84,0,0,1-2.471-.5,1.675,1.675,0,0,1-.9-1.487c0-1.295,1.38-2.075,3.658-2.075a7.211,7.211,0,0,1,2.423.348,10.985,10.985,0,0,1-1.284-1.847,24.957,24.957,0,0,1-4.209.348c-.576.024-.623.024-.84.048L160.4,5.6c.264.023.48.035.959.035a23.9,23.9,0,0,0,3.779-.3c-.312-.588-.384-.72-.684-1.368a25.508,25.508,0,0,1-3.238.216,6.548,6.548,0,0,0-.744.036Z"/><path class="cls-1" d="M176.368,2.372a4.784,4.784,0,0,0-.084-1.091h.972a5.44,5.44,0,0,0-.084,1.091V5.407h3.154V3.14a6.531,6.531,0,0,0-.048-.876h.9a5.919,5.919,0,0,0-.06.912V5.563c0,.239.012.407.024.611-.24-.012-.516-.024-.744-.024h-3.226v4.39h3.574V8.261a6.343,6.343,0,0,0-.06-1.031h.912a6.642,6.642,0,0,0-.06,1.067v2.711a6.005,6.005,0,0,0,.071,1.007h-.863V11.3h-7.8v.72h-.863a6.3,6.3,0,0,0,.072-1.007V8.369A6.782,6.782,0,0,0,172.1,7.3h.912a6.016,6.016,0,0,0-.061,1.02V10.54h3.418V6.15h-3c-.216,0-.491.012-.743.024.012-.228.023-.408.023-.611V3.188a8.494,8.494,0,0,0-.059-.924h.9a6.16,6.16,0,0,0-.048.888V5.407h2.926Z"/><path class="cls-1" d="M186.913,1.844a18.5,18.5,0,0,0-.156,2.531c-.048,1.439-.084,3.07-.084,3.61,0,.144.012.444.024.72a1.883,1.883,0,0,0,.564,1.439,2.262,2.262,0,0,0,1.5.468,3.445,3.445,0,0,0,3.214-2.087,7.1,7.1,0,0,0,.587-1.883,3.365,3.365,0,0,0,.864.575,7.28,7.28,0,0,1-1.331,2.723,4.2,4.2,0,0,1-3.382,1.5,2.842,2.842,0,0,1-2.255-.839,3.342,3.342,0,0,1-.659-2.459c0-.8.012-1.1.107-4.881.012-.36.012-.588.012-.78a3.691,3.691,0,0,0-.048-.636Z"/><path class="cls-1" d="M197.432,2.7a9.816,9.816,0,0,0-.072-1.331h.888a9.838,9.838,0,0,0-.072,1.343V4.5h.336a4.524,4.524,0,0,0,.959-.06v.78a7.478,7.478,0,0,0-.971-.048h-.324V8.933c.515-.24.731-.348,1.355-.7l.071.732a23.244,23.244,0,0,1-3.093,1.463c-.168.06-.348.144-.48.2l-.2-.828a6.756,6.756,0,0,0,1.607-.54v-4.1h-.444a4.56,4.56,0,0,0-1.008.072V4.423a4.439,4.439,0,0,0,1.008.072h.444Zm3.67,7.772c0,.288.072.384.36.456a8.712,8.712,0,0,0,1.931.108c1.691,0,2.195-.072,2.386-.348a3.482,3.482,0,0,0,.252-1.619,2.207,2.207,0,0,0,.768.311c-.144,2.219-.36,2.363-3.478,2.363-2.483,0-2.974-.18-2.974-1.115v-4.4l-.264.084a6.616,6.616,0,0,0-1,.384l-.216-.816a4.624,4.624,0,0,0,1.044-.24l.432-.144V3.608a8.7,8.7,0,0,0-.073-1.224h.9a8.522,8.522,0,0,0-.072,1.188V5.251l1.715-.576V2.456a7.558,7.558,0,0,0-.072-1.115h.888a7.969,7.969,0,0,0-.072,1.127V4.435l1.847-.612a8.533,8.533,0,0,0,.947-.371c-.047,1.2-.095,2.038-.192,3.214-.084,1.067-.239,1.571-.552,1.751a1.637,1.637,0,0,1-.863.168c-.107,0-.252-.012-.527-.036a2.757,2.757,0,0,0-.181-.756,4.292,4.292,0,0,0,.924.108c.276,0,.336-.06.4-.408a24.056,24.056,0,0,0,.193-3.034l-1.991.684v3.31a7.842,7.842,0,0,0,.072,1.151h-.888a7.8,7.8,0,0,0,.072-1.163V5.4L201.1,5.97Z"/><path class="cls-1" d="M208.168,4.711a3.874,3.874,0,0,0,.516.036c.144,0,.419-.012.6-.024.036-.528.049-.851.049-1.367A9.216,9.216,0,0,0,209.271,2a6.752,6.752,0,0,0,1.128.06h.276a3.76,3.76,0,0,0,.36-1.007l.707.18c-.1.228-.288.611-.395.827h.672A7.169,7.169,0,0,0,213.073,2a7.029,7.029,0,0,0-.048.948V4.327l.54-.1v.576l-.54.084V7.134c0,.671-.191.815-1.079.815-.059,0-.059,0-.36-.012-.251-.012-.264-.012-.419-.012a1.925,1.925,0,0,0-.156-.659,6.009,6.009,0,0,0,1.008.084c.275,0,.335-.049.335-.312V5c-.372.06-.48.072-.959.132V6.162a4.024,4.024,0,0,0,.047.756h-.683a4.171,4.171,0,0,0,.048-.756V5.2c-.36.048-.4.048-.912.1a4.713,4.713,0,0,1-1.115,2.914,2.048,2.048,0,0,0-.588-.516,3.538,3.538,0,0,0,1.032-2.338c-.6.06-.8.084-.959.107Zm1.416,4.653a6.982,6.982,0,0,0-.061-1.043c.48.036.792.048,1.224.048H216.4c.456,0,.709-.012,1.176-.048a5.491,5.491,0,0,0-.06.936v1.786h.528a4.972,4.972,0,0,0,.959-.059v.755a11.559,11.559,0,0,0-1.2-.06h-8.348c-.5,0-.887.024-1.283.06v-.755a5.189,5.189,0,0,0,.924.059h.492ZM210,2.624c0,1.044-.012,1.427-.048,2.063.828-.072,1.548-.144,2.4-.264v-1.8Zm.3,8.419h1.7V9.005h-1.7Zm1.067-6.728a5.838,5.838,0,0,0-1-1.187l.443-.324a8,8,0,0,1,1.008,1.139Zm1.3,6.728h1.7V9.005h-1.7Zm5.612-6.128a4.985,4.985,0,0,1-.311.42,6.424,6.424,0,0,1-1.379,1.343,7.509,7.509,0,0,0,2.4.875,2.16,2.16,0,0,0-.372.66c-.179-.06-.323-.108-.42-.144a8.024,8.024,0,0,1-2.182-1.007,7.767,7.767,0,0,1-2.3.935,1.868,1.868,0,0,0-.443-.563,7.805,7.805,0,0,0,2.218-.768,4.459,4.459,0,0,1-1.259-1.523c-.192.012-.252.012-.408.024V4.5a6.78,6.78,0,0,0,.936.048h2.255a4.074,4.074,0,0,0,.827-.048Zm-3.141-2.723a2.443,2.443,0,0,1-.456,1.6,2.012,2.012,0,0,1-.7.551,1.529,1.529,0,0,0-.468-.492,1.63,1.63,0,0,0,.744-.6,2.316,2.316,0,0,0,.24-1.224,4.466,4.466,0,0,0-.025-.467,6.649,6.649,0,0,0,.756.036h1.188a6.231,6.231,0,0,0,.779-.036,2.959,2.959,0,0,0-.048.635V3.284c0,.144.037.168.241.168a2.713,2.713,0,0,1,.287.012h.036a1.149,1.149,0,0,0,.479-.1c.109-.072.145-.336.145-1.008a1.73,1.73,0,0,0,.636.228c-.037.744-.1,1.032-.277,1.2a1.448,1.448,0,0,1-1,.251c-.768,0-.924-.024-1.079-.144-.1-.072-.12-.156-.12-.359V2.192ZM214.9,5.131a4.183,4.183,0,0,0,1.14,1.2,5.828,5.828,0,0,0,1.272-1.2Zm.132,5.912h1.764V9.005h-1.764Z"/><path class="cls-1" d="M.539,18.655a11.594,11.594,0,0,1,2.075,1.559l-.455.672A9.266,9.266,0,0,0,.084,19.207Zm2.087,3.958a21.216,21.216,0,0,1-1.5,3.166,1.312,1.312,0,0,0-.1.18,2.111,2.111,0,0,1-.144.24l-.072.144L.12,25.719A10.934,10.934,0,0,0,2,22.145Zm-1.5-6.86a10.91,10.91,0,0,1,2,1.667l-.48.623a8.965,8.965,0,0,0-2-1.763Zm3.022,2.626v2.027H3.37a7.533,7.533,0,0,0,.048-.9v-.96a6.546,6.546,0,0,0-.048-.9c.408.036.828.048,1.331.048H6.3c.013-.432.024-.708.024-1.14a5.232,5.232,0,0,0-.035-.827h.9a5.672,5.672,0,0,0-.108,1.1c-.024.432-.036.576-.048.864h2.2c.54,0,.947-.024,1.331-.06-.024.252-.036.539-.036.839v1.08a6.219,6.219,0,0,0,.048.863H9.774V18.379H6.968A11.782,11.782,0,0,1,5.637,23.3a8.367,8.367,0,0,1-2.783,2.986,2.627,2.627,0,0,0-.6-.612c2.362-1.379,3.658-3.754,3.981-7.292Zm3.563,6.7c0,.311.108.359.887.359,1.02,0,1.14-.036,1.248-.311a7.283,7.283,0,0,0,.2-2.1,2.155,2.155,0,0,0,.732.311c-.06,1.536-.192,2.219-.492,2.507-.24.228-.6.288-1.583.288-1.547,0-1.751-.108-1.751-.888V20.9c0-.6,0-.7-.024-1.067h.839a6.85,6.85,0,0,0-.059,1.079Z"/><path class="cls-1" d="M13.667,17.1a11.705,11.705,0,0,0-1.4.072V16.28a11.136,11.136,0,0,0,1.4.072h7.771a11.348,11.348,0,0,0,1.392-.072v.888a11.781,11.781,0,0,0-1.392-.072H17.673v1.367a25.91,25.91,0,0,1,4.258,2.459l-.468.743a17.965,17.965,0,0,0-2.543-1.678,13.454,13.454,0,0,0-1.247-.66v5.649a8.721,8.721,0,0,0,.084,1.415h-1a8.938,8.938,0,0,0,.084-1.415V17.1Z"/><path class="cls-1" d="M27.91,17.528a5.1,5.1,0,0,0,.576-1.643l.959.167a2.6,2.6,0,0,0-.311.648c-.157.384-.313.708-.372.816a2.026,2.026,0,0,1,.252-.012,16.875,16.875,0,0,0,3.778-.456l.071.815a3.95,3.95,0,0,0-.479.061,38.718,38.718,0,0,1-3.958.311,8.807,8.807,0,0,1-1.079,1.7c-.121.144-.361.42-.409.456a1.866,1.866,0,0,0-.155.12c0,.012-.013.012-.013.012v.012a.1.1,0,0,0,.025.036c.431-.336.431-.336.552-.42a3.186,3.186,0,0,1,1.81-.587A1.454,1.454,0,0,1,30.74,20.9c.876-.348,1.56-.6,2.087-.792a2.638,2.638,0,0,0,.817-.348l.383.84a19.922,19.922,0,0,0-3.2,1.056,7.25,7.25,0,0,1,.025.731c0,.156,0,.42-.012.66-.013.264-.013.432-.013.539a2.505,2.505,0,0,0,.025.432l-.816.012a17.233,17.233,0,0,0,.072-1.727,3.153,3.153,0,0,0-.012-.36c-1.631.768-2.255,1.332-2.255,2.051,0,.792.744,1.14,2.435,1.14a10.041,10.041,0,0,0,3.2-.468l.108.923a4.708,4.708,0,0,0-.479.06,18.614,18.614,0,0,1-2.915.24c-2.147,0-3.19-.611-3.19-1.847a2.48,2.48,0,0,1,1.223-1.895,9.307,9.307,0,0,1,1.787-.959c-.1-.66-.384-.948-.948-.948a4.507,4.507,0,0,0-2.674,1.271,3.944,3.944,0,0,0-.923,1l-.672-.672a11.945,11.945,0,0,0,2.687-3.43l.107-.18a1.318,1.318,0,0,1-.228.024c-.191,0-1.319-.024-1.762-.036H25.4a2.113,2.113,0,0,0-.263.012l.011-.827a16.8,16.8,0,0,0,2.568.132Z"/><path class="cls-1" d="M38.8,20.31H37.464a6.267,6.267,0,0,0-1.2.072v-.815a7.053,7.053,0,0,0,1.2.072h1.271V18.032h-.96a6.746,6.746,0,0,0-1.079.059v-.779a5.953,5.953,0,0,0,1.079.06h.96v-.5a6,6,0,0,0-.072-1.175h.863a5.929,5.929,0,0,0-.072,1.175v.5h.84a5.874,5.874,0,0,0,1.092-.06v.779a7.023,7.023,0,0,0-1.092-.059h-.84v1.607h.972a6.663,6.663,0,0,0,1.163-.072v.815a7,7,0,0,0-1.151-.072H39.5V22h.983a5.964,5.964,0,0,0,1-.06v.792a5.7,5.7,0,0,0-1.007-.072H39.5v2.231c.779.408,1.618.527,3.766.527a26.13,26.13,0,0,0,4.017-.192,2.471,2.471,0,0,0-.275.864c-1.1.048-1.619.06-3.286.06-2.915,0-4.019-.216-5.026-.983a4.1,4.1,0,0,1-1.212-1.476,9.042,9.042,0,0,1-.935,2.651,1.916,1.916,0,0,0-.671-.456,8.245,8.245,0,0,0,1.151-4.378c0-.275-.012-.383-.024-.539l.779.108a3.491,3.491,0,0,0-.048.456c-.023.587-.059.911-.107,1.319A4.559,4.559,0,0,0,38.8,24.388Zm7.435-1.379a9.594,9.594,0,0,0,.048,1.283,10.544,10.544,0,0,0-1.331-.048h-2.11V23.3c0,.227.012.3.084.36.1.095.407.131,1.067.131a14.734,14.734,0,0,0,1.619-.072c.324-.059.432-.216.5-.671a9.73,9.73,0,0,0,.072-1.356,3.315,3.315,0,0,0,.744.336,4.8,4.8,0,0,1-.325,1.967c-.215.384-.755.5-2.362.5a4.3,4.3,0,0,1-1.751-.192c-.312-.144-.4-.336-.4-.876V20.79a9.774,9.774,0,0,0-.06-1.343,9.4,9.4,0,0,0,1.224.048h2.23V17.084H43.1a8.292,8.292,0,0,0-1.162.06v-.816a7.659,7.659,0,0,0,1.2.072h1.93a7.057,7.057,0,0,0,1.211-.059,9.258,9.258,0,0,0-.048,1.187Z"/><path class="cls-1" d="M51.706,21.354c-.779.647-1.139,1.2-1.139,1.763s.348.947,1.019,1.175a7.638,7.638,0,0,0,2.2.24,11.369,11.369,0,0,0,3.6-.456l.108.984a3.356,3.356,0,0,0-.408.06,19.55,19.55,0,0,1-3.238.275,8.48,8.48,0,0,1-2.758-.371,1.912,1.912,0,0,1-1.367-1.811A3.148,3.148,0,0,1,51.1,20.9Zm-1.259-4.378a13.7,13.7,0,0,0,3.191.288,13.109,13.109,0,0,0,3.034-.252l.059.792a17.046,17.046,0,0,0-3.022,1.823l-.611-.492a18.611,18.611,0,0,1,1.594-1c.132-.071.157-.084.3-.155.084-.049.108-.049.229-.121a9.4,9.4,0,0,1-1.812.156,23.484,23.484,0,0,1-2.639-.156,2.925,2.925,0,0,0-.4-.035Z"/><path class="cls-1" d="M66.165,16.664a4.024,4.024,0,0,0-.048-.7h.9a9.909,9.909,0,0,0-.06,1.5V17.6c2.267-.012,3.189-.036,3.586-.084v.851a21.316,21.316,0,0,0-2.291-.06c-.18,0-.312,0-1.283.024v2.375a3.434,3.434,0,0,1,.288,1.415,3.857,3.857,0,0,1-1.608,3.13,7.624,7.624,0,0,1-1.9.972,2.6,2.6,0,0,0-.528-.756,6.141,6.141,0,0,0,1.944-.9,3.108,3.108,0,0,0,1.343-2.531,1.681,1.681,0,0,1-.324.588,2,2,0,0,1-3.478-1.247A2,2,0,0,1,64.834,19.4a1.845,1.845,0,0,1,1.391.539c-.012-.168-.012-.215-.012-.659,0-.048-.012-.168-.012-.312v-.624c-2.411.048-4.834.168-5.637.3l-.036-.875c.216.011.3.011.48.011.347,0,.347,0,2.278-.071,1.152-.048,2.087-.072,2.9-.1Zm-.516,3.61a1.529,1.529,0,0,0-.8-.192,1.269,1.269,0,0,0-1.331,1.26,1.159,1.159,0,0,0,1.235,1.187,1.344,1.344,0,0,0,1.4-1.415A.869.869,0,0,0,65.649,20.274Z"/><path class="cls-1" d="M75.814,24.58a1.8,1.8,0,1,1-1.8-1.8A1.8,1.8,0,0,1,75.814,24.58Zm-2.914,0a1.116,1.116,0,1,0,1.116-1.115A1.12,1.12,0,0,0,72.9,24.58Z"/></svg>