<svg id="レイヤー_1" data-name="レイヤー 1" xmlns="http://www.w3.org/2000/svg" viewBox="0 0 380 268"><defs><style>.cls-1{fill:#ebebeb;}.cls-2{fill:#868686;}.cls-3{fill:#fff;}</style></defs><rect class="cls-1" width="380" height="124"/><rect class="cls-2" width="380" height="41"/><path class="cls-3" d="M136.87,22.51a2.55,2.55,0,0,0-.38.36,17.65,17.65,0,0,1-4.31,3.59,26.18,26.18,0,0,0,9.41,2.08,4.22,4.22,0,0,0-.7,1.53,31.66,31.66,0,0,1-5.46-1,21.29,21.29,0,0,1-4.67-1.81A30.52,30.52,0,0,1,121,30.14a4,4,0,0,0-.81-1.41,29.53,29.53,0,0,0,9.15-2.3A15.16,15.16,0,0,1,126,23.56a17.71,17.71,0,0,1-4.55,2.85,3.57,3.57,0,0,0-1-1.15,17.63,17.63,0,0,0,4.88-2.84A11.91,11.91,0,0,0,127.56,20c-1-.12-1.25-.36-1.25-1.15V17a8.92,8.92,0,0,0-.12-1.72h1.6a8.22,8.22,0,0,0-.12,1.57V18.4c0,.21,0,.29.27.36a13.67,13.67,0,0,0,2.35.12c2.46,0,3.44-.05,3.73-.22s.53-.57.7-1.72a3.28,3.28,0,0,0,1.26.67c-.57,2.44-.67,2.49-5.19,2.49-.84,0-1.06,0-1.65,0-.7.94-.89,1.15-1.27,1.61h6a11.51,11.51,0,0,0,2.11-.12Zm-11.93-9.35a10.52,10.52,0,0,0-1-2.08c-.14,0-.84,0-2.16.05a4.6,4.6,0,0,0-.59-1.31h1.26a106.15,106.15,0,0,0,11.69-.7,19.24,19.24,0,0,0,4.69-.93L140,9.55c-1.7.31-2.82.5-3.35.58l1.34.38c-.88,1.62-1.05,1.91-1.53,2.65h1.89c1.22,0,2,0,2.71-.09a14,14,0,0,0-.1,1.79v1.39a10,10,0,0,0,.12,1.5H139.5V14.43H122.17v3.4h-1.56a13.21,13.21,0,0,0,.12-1.7V14.81a13,13,0,0,0-.1-1.77,22,22,0,0,0,3,.12Zm-3.75,6.94a8.5,8.5,0,0,0,2.92-4.26l1.24.6a13.14,13.14,0,0,1-3.09,4.71Zm9.26-6.94a11.91,11.91,0,0,0-1-2.32c-1.77.1-3.07.17-4.1.2a12,12,0,0,1,1.06,2.12ZM127,22.85a13,13,0,0,0,3.71,2.91,13.31,13.31,0,0,0,3.83-2.91ZM132.11,18A14.9,14.9,0,0,0,129,15.63l.83-.89A18.22,18.22,0,0,1,133.06,17ZM135,13.16a11.77,11.77,0,0,0,1.5-3c-1.84.26-3.25.41-5.67.6a14.84,14.84,0,0,1,1.05,2.41Zm4.26,7.8a19.16,19.16,0,0,0-3.59-4.59l1.07-.74a25.76,25.76,0,0,1,3.71,4.42Z"/><path class="cls-3" d="M147.35,13.09a16.63,16.63,0,0,1-2.22,3.52A3.13,3.13,0,0,0,144,15.55a12.22,12.22,0,0,0,3.19-6,6.07,6.07,0,0,0,.21-1.32l1.63.26c-.14.39-.19.58-.4,1.3A15.37,15.37,0,0,1,148,11.7h4.34a12.9,12.9,0,0,0,2.34-.14v1.65c-.74-.07-1.53-.12-2.34-.12h-1.54c0,2.58,0,2.87-.16,4.47h2a15,15,0,0,0,2.28-.14v1.67a15.55,15.55,0,0,0-2.28-.14h-2.15c-.07.55-.1.84-.2,1.41a14.5,14.5,0,0,0,4.55,5.45,4.87,4.87,0,0,0-.95,1.44,19,19,0,0,1-4-5.07,12.56,12.56,0,0,1-4.78,6.88,4.43,4.43,0,0,0-1.2-1.24c3.28-2.32,4.67-4.71,5.15-8.87h-2.18a14.76,14.76,0,0,0-2.54.14V17.42a14.66,14.66,0,0,0,2.59.14h2.27c.1-1.31.12-1.81.14-4.47Zm9.85,16.07h-1.66a20.35,20.35,0,0,0,.15-2.73V13.16a20,20,0,0,0-.15-2.51,12.85,12.85,0,0,0,2.16.12h4.79a12.93,12.93,0,0,0,2.15-.12,19.06,19.06,0,0,0-.12,2.51V26.27a22.6,22.6,0,0,0,.15,2.89H163v-1.7H157.2Zm0-3.09H163V12.16H157.2Z"/><path class="cls-3" d="M175.17,25.05a14.25,14.25,0,0,1-5.53,4.61,4.9,4.9,0,0,0-1.17-1.15,11.84,11.84,0,0,0,3.11-1.77,10.49,10.49,0,0,0,2.35-2.46Zm4.41,2.75a12.21,12.21,0,0,0,.17,2.39h-1.87a12.76,12.76,0,0,0,.17-2.39V23.3h-6.23c-1,0-1.63,0-2.37.07a13.67,13.67,0,0,0,.12-2.34V13a11.14,11.14,0,0,0-.14-2.15h1.77a12.81,12.81,0,0,0-.12,2.13v9h15.78a15.28,15.28,0,0,0,2.35-.12v1.6a14,14,0,0,0-2.33-.14h-7.3Zm6.73-9.64a12.56,12.56,0,0,0,.12,2.25,23.91,23.91,0,0,0-2.51-.1h-7.57a24.36,24.36,0,0,0-2.47.1,20.07,20.07,0,0,0,.1-2.32V11.35a19.73,19.73,0,0,0-.1-2.16,19.54,19.54,0,0,0,2.61.12H184a18.18,18.18,0,0,0,2.44-.12,13.25,13.25,0,0,0-.12,2.25Zm-10.9-5.55h9.44v-2h-9.44Zm0,3.23h9.44v-2h-9.44Zm0,3.25h9.44V17h-9.44Zm8.27,5.22a16.08,16.08,0,0,0,3.23,2.75,14.44,14.44,0,0,0,2.63,1.38,5.57,5.57,0,0,0-1.1,1.25,18.9,18.9,0,0,1-6-4.62Z"/><path class="cls-3" d="M202.42,11.44a17.78,17.78,0,0,0-2.47.15V9.89a18.43,18.43,0,0,0,2.49.14h16.31a18.64,18.64,0,0,0,2.49-.14v1.7a17.78,17.78,0,0,0-2.47-.15h-5.53V15H217a25.27,25.27,0,0,0,2.85-.12,26.78,26.78,0,0,0-.14,2.94v9.21a20.16,20.16,0,0,0,.14,2.84h-1.65V28.2H203v1.7h-1.66a17.78,17.78,0,0,0,.15-2.89V17.85a26.08,26.08,0,0,0-.15-2.94,23.84,23.84,0,0,0,2.81.12h3.32c0-.84,0-1.34,0-2.13V11.44Zm.6,5V26.77h15.11V16.41h-4.89v4.36c0,.5.17.57,1.18.57,1.31,0,1.55-.05,1.67-.41a5.87,5.87,0,0,0,.12-1.77,3.73,3.73,0,0,0,1.32.46,5.2,5.2,0,0,1-.41,2.39c-.33.53-1,.69-2.68.69-2.13,0-2.63-.28-2.63-1.48V16.41h-2.95a10.18,10.18,0,0,1-1.32,4.91,7.42,7.42,0,0,1-3.06,2.89,4,4,0,0,0-1.1-1.17,6.54,6.54,0,0,0,2.92-2.49,9.13,9.13,0,0,0,1.1-4.14Zm6-3.56c0,.86,0,1.37,0,2.18h2.85V11.44H209Z"/><path class="cls-3" d="M234.07,17.56a12,12,0,0,0,2.23-.12v1.61a14.21,14.21,0,0,0-2.18-.12h-8a13.23,13.23,0,0,0-2.28.12V17.44a13.35,13.35,0,0,0,2.3.12h5.17A20.1,20.1,0,0,0,233,12.8l1.46.51a24.66,24.66,0,0,1-1.77,4.25Zm-.31-6.5a12.58,12.58,0,0,0,2.23-.12v1.58a12,12,0,0,0-2.21-.12h-7.16a12.24,12.24,0,0,0-2.15.12V10.94a12.51,12.51,0,0,0,2.23.12h2.89v-.89a9.54,9.54,0,0,0-.14-1.81h1.8a9.62,9.62,0,0,0-.15,1.84v.86ZM227,29.92h-1.61a14.3,14.3,0,0,0,.1-2.15V22.92a18.1,18.1,0,0,0-.07-2,18.73,18.73,0,0,0,1.89.07h5.67a14.08,14.08,0,0,0,1.75-.07,12.65,12.65,0,0,0-.07,2V28a12.1,12.1,0,0,0,.1,1.88h-1.61V28.44H227Zm.41-17.07a18.72,18.72,0,0,1,1.6,4l-1.39.48a16.74,16.74,0,0,0-1.56-4ZM227,27.1h6.18V22.32H227Zm18.49-17a20.54,20.54,0,0,0-1,2.13A48.25,48.25,0,0,1,242,16.92a11.1,11.1,0,0,1,2.7,3.75,8.25,8.25,0,0,1,.72,3.35,2.89,2.89,0,0,1-1.22,2.68,4.78,4.78,0,0,1-2.16.36c-.64,0-1.26,0-2-.1a4.79,4.79,0,0,0-.31-1.6,12.87,12.87,0,0,0,2.32.24c1.36,0,1.82-.43,1.82-1.7a7.33,7.33,0,0,0-.79-3.25,9.86,9.86,0,0,0-2.85-3.47,34.72,34.72,0,0,0,3.23-6.67h-4.76v17a15.18,15.18,0,0,0,.16,2.65h-1.82a18.07,18.07,0,0,0,.15-2.63V11.27c0-.71,0-1.38-.1-2.2.62,0,1.08.08,1.92.08h3.85a11.52,11.52,0,0,0,1.85-.1Z"/><path d="M29.62,62.25a14,14,0,0,0,3.75.32l.5,0c0-.48,0-.48.1-1.5,0-.22.06-1,.06-1.14a2.12,2.12,0,0,0,0-.3l1.56.1a13.3,13.3,0,0,0-.42,2.8,30.83,30.83,0,0,0,7.63-1.12l.08,1.4-.7.1a56.17,56.17,0,0,1-7.09.8c-.12,1.7-.12,1.7-.14,2.68a10.57,10.57,0,0,1,3-.4c.42,0,.66,0,1.16.06a7.54,7.54,0,0,0,.49-1.8l1.38.42c-.06.12-.28.66-.62,1.6,2.76.64,4.3,2.34,4.3,4.68a5.15,5.15,0,0,1-3.14,4.63,11.07,11.07,0,0,1-4.09,1.14,4.17,4.17,0,0,0-.64-1.35,9.43,9.43,0,0,0,3-.54c2.18-.76,3.44-2.22,3.44-4s-1.14-2.92-3.3-3.48a18.18,18.18,0,0,1-3.81,6c-1.54,1.6-3.07,2.42-4.47,2.42S29,74.49,29,72.71c0-2.46,1.74-4.7,4.65-6,0-1.46,0-1.56.12-3H33l-2.7-.1a3.25,3.25,0,0,0-.36,0,2.07,2.07,0,0,0-.32,0Zm1.92,7.4a4.72,4.72,0,0,0-1.22,3c0,1.1.58,1.82,1.44,1.82a3.65,3.65,0,0,0,2.31-1,28.29,28.29,0,0,1-.4-5.42A7.07,7.07,0,0,0,31.54,69.65Zm3.67,3a2.17,2.17,0,0,1,.38-.52,18.06,18.06,0,0,0,3.06-5c-.64,0-.74,0-1,0a9,9,0,0,0-2.78.46,33.64,33.64,0,0,0,.22,4.58,1.32,1.32,0,0,1,0,.28v.22Z"/><path d="M63.59,75.68a15.75,15.75,0,0,0-4.09-2.87c-.34-.18-.8-.38-1.34-.6a5.75,5.75,0,0,1,0,.72,3.47,3.47,0,0,1-.5,2.18,4,4,0,0,1-3.38,1.27,5.22,5.22,0,0,1-3.11-.8,2.63,2.63,0,0,1-1.08-2.11c0-1.32,1-2.36,2.8-2.76a8.8,8.8,0,0,1,2.09-.2,8.9,8.9,0,0,1,1.8.16c0-.06,0-.06,0-.24a1.59,1.59,0,0,1,0-.22c0-.18,0-.6,0-1.18,0-.26,0-.64,0-1.16-.72,0-1.72,0-2.36,0-1.21,0-2.15,0-3.39-.14-.22,0-.38,0-.5,0h-.16l0-1.32a24.59,24.59,0,0,0,4.59.32c.52,0,1.22,0,1.78,0l0-2.74c-.58,0-.9,0-1.36,0-1.46,0-3.09-.06-4.89-.2a2.43,2.43,0,0,0-.36,0,1.63,1.63,0,0,0-.28,0l0-1.36a24.89,24.89,0,0,0,5.13.4l1.74,0a15.66,15.66,0,0,0-.1-2.88h1.54a22.32,22.32,0,0,0-.14,2.82A28.21,28.21,0,0,0,63.87,62l.1,1.36c-.34,0-.34,0-1.38.16a41.49,41.49,0,0,1-4.65.48c0,1.64,0,1.64,0,2.7a24.15,24.15,0,0,0,5.55-.82l.08,1.38c-.26,0-.46,0-1.16.14-1.38.22-3,.38-4.45.48,0,1.12,0,1.12.12,3.06a17.44,17.44,0,0,1,5.59,2.92,6.84,6.84,0,0,0,.68.46Zm-6.77-3.79a7.34,7.34,0,0,0-2-.22c-2,0-3.29.72-3.29,1.78s1,1.66,2.75,1.66a2.89,2.89,0,0,0,2.2-.66,2.62,2.62,0,0,0,.4-1.8Z"/><path d="M76,60.93a9.85,9.85,0,0,0-.14-1.7h1.6a8.45,8.45,0,0,0-.14,1.7v1.22h6.29A14.08,14.08,0,0,0,85.91,62v1.44a14.51,14.51,0,0,0-2.27-.12H70.26a16,16,0,0,0-2.22.12V62a14.39,14.39,0,0,0,2.24.14H76Zm0,4.5a9.55,9.55,0,0,0-.1-1.58h1.5a10.13,10.13,0,0,0-.1,1.6v.64h4.75A17.54,17.54,0,0,0,84,66a12.88,12.88,0,0,0-.08,1.62v5.76c0,1.3-.4,1.65-2,1.65-.82,0-1.16,0-2.08-.09a4.15,4.15,0,0,0-.35-1.34,16,16,0,0,0,2.35.2c.64,0,.8-.12.8-.56v-6H77.31v8a14.66,14.66,0,0,0,.14,2.19H75.87A15.8,15.8,0,0,0,76,75.19v-8H71.26v6a15.61,15.61,0,0,0,.12,2.16H69.8a16.43,16.43,0,0,0,.12-2.16v-5.6A13.85,13.85,0,0,0,69.84,66a17.46,17.46,0,0,0,1.92.08H76Z"/><path d="M88.89,71.89a20.19,20.19,0,0,1,4,4.25L91.79,77.2a19.8,19.8,0,0,0-3.94-4.37Z"/><path d="M122,71.05a2.2,2.2,0,0,0-.32.3,14.47,14.47,0,0,1-3.61,3A22.1,22.1,0,0,0,126,76.1a3.58,3.58,0,0,0-.58,1.28,26,26,0,0,1-4.57-.84A17.6,17.6,0,0,1,116.93,75a25.46,25.46,0,0,1-8.13,2.42,3.27,3.27,0,0,0-.68-1.18,24.4,24.4,0,0,0,7.65-1.93,13.3,13.3,0,0,1-2.87-2.4,15,15,0,0,1-3.8,2.38,3,3,0,0,0-.84-1A14.71,14.71,0,0,0,112.34,71a10.12,10.12,0,0,0,1.91-2c-.83-.1-1-.3-1-1V66.47a7.87,7.87,0,0,0-.1-1.44h1.35a6.56,6.56,0,0,0-.1,1.32v1.26c0,.18,0,.24.22.3a11.25,11.25,0,0,0,2,.1,11,11,0,0,0,3.13-.18c.32-.14.44-.48.58-1.44a2.86,2.86,0,0,0,1.06.56c-.48,2-.56,2.08-4.35,2.08-.7,0-.88,0-1.38,0-.58.78-.74,1-1.06,1.34h5a9.23,9.23,0,0,0,1.77-.1Zm-10-7.82a9.34,9.34,0,0,0-.84-1.74l-1.8,0a3.94,3.94,0,0,0-.5-1.1H110a89.76,89.76,0,0,0,9.78-.58,16.38,16.38,0,0,0,3.92-.78l1,1.14c-1.42.26-2.36.42-2.8.48L123,61c-.74,1.36-.88,1.6-1.28,2.22h1.58a22.2,22.2,0,0,0,2.27-.08,11.51,11.51,0,0,0-.08,1.5v1.16a8.25,8.25,0,0,0,.1,1.26h-1.31V64.29h-14.5v2.84h-1.3a10.79,10.79,0,0,0,.1-1.42v-1.1a12,12,0,0,0-.08-1.48,18.94,18.94,0,0,0,2.46.1ZM108.92,69a7,7,0,0,0,2.44-3.56l1,.5a11,11,0,0,1-2.58,3.94Zm7.75-5.8a10.07,10.07,0,0,0-.88-1.94c-1.48.08-2.57.14-3.43.16a10.54,10.54,0,0,1,.88,1.78Zm-2.86,8.1a11,11,0,0,0,3.1,2.44,11.3,11.3,0,0,0,3.21-2.44Zm4.24-4.06a12.3,12.3,0,0,0-2.58-2l.7-.74a15.34,15.34,0,0,1,2.68,1.88Zm2.39-4a9.91,9.91,0,0,0,1.26-2.52c-1.54.22-2.73.34-4.75.5a11.92,11.92,0,0,1,.88,2ZM124,69.75a15.89,15.89,0,0,0-3-3.84l.9-.62A21.74,21.74,0,0,1,125,69Z"/><path d="M130.15,61.79a15.45,15.45,0,0,0-2.06.12V60.49a14.55,14.55,0,0,0,2.08.12h13.64a15,15,0,0,0,2.09-.12v1.42a15.72,15.72,0,0,0-2.07-.12H139.2v3h3.11a20.08,20.08,0,0,0,2.38-.1,21.24,21.24,0,0,0-.12,2.46v7.7a16.11,16.11,0,0,0,.12,2.39h-1.38V75.81H130.65v1.43h-1.38a15.12,15.12,0,0,0,.12-2.43V67.15a22.75,22.75,0,0,0-.12-2.46,18.76,18.76,0,0,0,2.34.1h2.79c0-.7,0-1.12,0-1.78V61.79Zm.5,4.16v8.66h12.64V66H139.2v3.64c0,.42.15.48,1,.48,1.1,0,1.3,0,1.4-.34a5.1,5.1,0,0,0,.1-1.48,3.28,3.28,0,0,0,1.1.38,4.33,4.33,0,0,1-.34,2c-.28.44-.82.58-2.24.58C138.42,71.21,138,71,138,70V66h-2.46a8.52,8.52,0,0,1-1.1,4.1,6.18,6.18,0,0,1-2.57,2.42,3.32,3.32,0,0,0-.92-1,5.57,5.57,0,0,0,2.45-2.08,7.54,7.54,0,0,0,.92-3.46Zm5-3c0,.72,0,1.14,0,1.82H138v-3h-2.34Z"/><path d="M156.13,60.93a9.85,9.85,0,0,0-.14-1.7h1.6a8.45,8.45,0,0,0-.14,1.7v1.22h6.29A14.08,14.08,0,0,0,166,62v1.44a14.51,14.51,0,0,0-2.27-.12H150.38a16,16,0,0,0-2.22.12V62a14.39,14.39,0,0,0,2.24.14h5.73Zm0,4.5a9.55,9.55,0,0,0-.1-1.58h1.5a10.13,10.13,0,0,0-.1,1.6v.64h4.75a17.54,17.54,0,0,0,1.9-.08,12.88,12.88,0,0,0-.08,1.62v5.76c0,1.3-.4,1.65-2,1.65-.82,0-1.16,0-2.08-.09a4.15,4.15,0,0,0-.35-1.34,16,16,0,0,0,2.35.2c.64,0,.8-.12.8-.56v-6h-5.25v8a14.66,14.66,0,0,0,.14,2.19H156a15.8,15.8,0,0,0,.14-2.19v-8h-4.75v6a15.61,15.61,0,0,0,.12,2.16h-1.58a16.43,16.43,0,0,0,.12-2.16v-5.6A13.85,13.85,0,0,0,150,66a17.46,17.46,0,0,0,1.92.08h4.25Z"/><path d="M169,71.89a20.19,20.19,0,0,1,4,4.25l-1.12,1.06A19.8,19.8,0,0,0,168,72.83Z"/><path d="M191,61.45c-.8.22-1.18.3-2.3.52a4.66,4.66,0,0,0-.56-1.08,17.24,17.24,0,0,0,4.68-1.26,3.88,3.88,0,0,0,.79-.48l.8,1-.64.3a13.24,13.24,0,0,1-1.59.62v3.3H193a8.46,8.46,0,0,0,1.45-.08v1.26a9.65,9.65,0,0,0-1.49-.08h-.74A8.37,8.37,0,0,0,194.25,69a3.78,3.78,0,0,0-.68,1,9.32,9.32,0,0,1-1.51-3c.06.94.1,2.08.1,3.06v5a14.73,14.73,0,0,0,.12,2.3h-1.42a18.46,18.46,0,0,0,.12-2.28V70.47c0-.78.06-2.32.12-3.22a14.88,14.88,0,0,1-2.62,5.58,3.72,3.72,0,0,0-.72-1.12,15.37,15.37,0,0,0,3.06-6.22h-1a10.16,10.16,0,0,0-1.64.1v-1.3a10.12,10.12,0,0,0,1.66.1H191Zm14.33-1.1a54.5,54.5,0,0,1-10.58,1.82,3.58,3.58,0,0,0-.5-1.16,38.45,38.45,0,0,0,8.53-1.22,10.25,10.25,0,0,0,1.58-.54Zm-9,6.58a8.87,8.87,0,0,0-.1,1.66V75.7a8.74,8.74,0,0,0,.1,1.66h-1.4a10.09,10.09,0,0,0,.1-1.72v-7a9.55,9.55,0,0,0-.1-1.66Zm.46-.62a13.62,13.62,0,0,0-1.56-3.38l1-.44a17,17,0,0,1,1.62,3.32Zm1.46,2.22a11.32,11.32,0,0,0-.08-1.56,13,13,0,0,0,1.73.08h3.7a14.79,14.79,0,0,0,1.83-.08,12,12,0,0,0-.08,1.64v6.66a13.91,13.91,0,0,0,.1,2.07h-1.29v-1h-4.74v1h-1.27a13.44,13.44,0,0,0,.1-2Zm1.63-2.5a15.16,15.16,0,0,0-1.19-3.48l1.11-.36A16.79,16.79,0,0,1,201,65.67Zm-.46,5h4.74V68.19h-4.74Zm0,4.18h4.74V72.15h-4.74Zm2.84-9.18a14.69,14.69,0,0,0,2.18-4.58l1.19.56a24,24,0,0,1-2.33,4.48Z"/><path d="M209.13,64.35a18.78,18.78,0,0,1,3.48,2.6l-.78,1.14a15.41,15.41,0,0,0-3.46-2.8Zm3.62,6.46A33.19,33.19,0,0,1,210.21,76l-.54.94-1.16-1a16.87,16.87,0,0,0,3.2-5.86Zm-2.46-11.22a18.77,18.77,0,0,1,3.37,2.72l-.83,1.06a15.51,15.51,0,0,0-3.36-2.88Zm10.52,7.92a13.12,13.12,0,0,0,1.32,3.92A11.41,11.41,0,0,0,226,75.88,5,5,0,0,0,225,77a15,15,0,0,1-5.52-9.53h-3.15a20.9,20.9,0,0,1-.88,5.5,11.8,11.8,0,0,1-2.15,4.07,3.33,3.33,0,0,0-1.06-.94,9.65,9.65,0,0,0,2-3.55c.68-2.16,1-5,1-9.38,0-1.2,0-2.12-.1-3,.64.06,1.22.08,2.22.08h5.45a20,20,0,0,0,2.14-.08,18.86,18.86,0,0,0-.1,2.16v3.08a17.08,17.08,0,0,0,.1,2.14,18.28,18.28,0,0,0-2-.08Zm2.72-1.14V61.45h-7.05v1.26c0,1.14,0,2.1-.08,3.66Z"/><path d="M236.25,60.93a9.85,9.85,0,0,0-.14-1.7h1.6a8.45,8.45,0,0,0-.14,1.7v1.22h6.29a14.08,14.08,0,0,0,2.29-.14v1.44a14.42,14.42,0,0,0-2.27-.12H230.5a16,16,0,0,0-2.22.12V62a14.39,14.39,0,0,0,2.24.14h5.73Zm0,4.5a9.55,9.55,0,0,0-.1-1.58h1.5a10.13,10.13,0,0,0-.1,1.6v.64h4.75a17.54,17.54,0,0,0,1.9-.08,12.88,12.88,0,0,0-.08,1.62v5.76c0,1.3-.4,1.65-2,1.65-.82,0-1.16,0-2.08-.09a4.4,4.4,0,0,0-.34-1.34,15.78,15.78,0,0,0,2.34.2c.64,0,.8-.12.8-.56v-6h-5.25v8a14.66,14.66,0,0,0,.14,2.19h-1.58a15.8,15.8,0,0,0,.14-2.19v-8H231.5v6a15.61,15.61,0,0,0,.12,2.16H230a16.43,16.43,0,0,0,.12-2.16v-5.6a13.85,13.85,0,0,0-.08-1.64,17.46,17.46,0,0,0,1.92.08h4.25Z"/><path d="M249.13,71.89a20.49,20.49,0,0,1,4,4.25L252,77.2a19.8,19.8,0,0,0-3.94-4.37Z"/><path d="M286,68.87a18.08,18.08,0,0,0-2.65-.14H271a18.78,18.78,0,0,0-2.66.14V67.21a18.23,18.23,0,0,0,2.66.14h12.34a17.55,17.55,0,0,0,2.65-.14Z"/><path d="M296.44,60.43a5.53,5.53,0,0,0-.14-1.26h1.58a5,5,0,0,0-.14,1.24v.68h5.91a18.9,18.9,0,0,0,2-.08,8.71,8.71,0,0,0-.08,1.36v1.44a9.27,9.27,0,0,0,.08,1.4h-1.31v-3h-14.1v3h-1.32a9.56,9.56,0,0,0,.08-1.42V62.37a8.88,8.88,0,0,0-.08-1.36,19,19,0,0,0,2,.08h5.49Zm-2.58,8.26a17.21,17.21,0,0,0-2.15.08,10.56,10.56,0,0,0,.08-1.58v-1.8a14.58,14.58,0,0,0-.06-1.52,13.31,13.31,0,0,0,1.93.1H301a13.24,13.24,0,0,0,1.92-.1,9.48,9.48,0,0,0-.08,1.54v1.78a10.06,10.06,0,0,0,.08,1.58,19.79,19.79,0,0,0-2.14-.08h-3c-.26.74-.58,1.54-.86,2.14h5.47a16.34,16.34,0,0,0,1.92-.08,12.5,12.5,0,0,0-.1,1.88v2.78a13.65,13.65,0,0,0,.12,1.91h-1.38v-1H291.73v1h-1.38a14.07,14.07,0,0,0,.12-1.91V72.63a12.18,12.18,0,0,0-.1-1.88,16.62,16.62,0,0,0,1.9.08h3.29a14.49,14.49,0,0,0,.84-2.14Zm-2.13,6.54h11.16v-3.3H291.73ZM293,67.65h8.58V65H293Z"/><path d="M316.37,60.93a9.85,9.85,0,0,0-.14-1.7h1.6a8.45,8.45,0,0,0-.14,1.7v1.22H324a14,14,0,0,0,2.29-.14v1.44a14.42,14.42,0,0,0-2.27-.12H310.62a16,16,0,0,0-2.22.12V62a14.39,14.39,0,0,0,2.24.14h5.73Zm0,4.5a9.55,9.55,0,0,0-.1-1.58h1.5a10.13,10.13,0,0,0-.1,1.6v.64h4.75a17.54,17.54,0,0,0,1.9-.08,12.88,12.88,0,0,0-.08,1.62v5.76c0,1.3-.4,1.65-2,1.65-.82,0-1.16,0-2.08-.09a4.4,4.4,0,0,0-.34-1.34,15.78,15.78,0,0,0,2.34.2c.64,0,.8-.12.8-.56v-6h-5.25v8a14.66,14.66,0,0,0,.14,2.19h-1.58a15.8,15.8,0,0,0,.14-2.19v-8h-4.75v6a15.61,15.61,0,0,0,.12,2.16h-1.58a16.43,16.43,0,0,0,.12-2.16v-5.6A13.85,13.85,0,0,0,310.2,66a17.46,17.46,0,0,0,1.92.08h4.25Z"/><path d="M329.25,71.89a20.49,20.49,0,0,1,4,4.25l-1.13,1.06a19.8,19.8,0,0,0-3.94-4.37Z"/><path d="M33.91,94.43a18.1,18.1,0,0,1,2.94,2.14,24.54,24.54,0,0,0,3.87-4.26h-6a22.14,22.14,0,0,1-5.49,4.54,3.37,3.37,0,0,0-.84-1,18.71,18.71,0,0,0,4.94-3.84,11.71,11.71,0,0,0,2.23-3.18l1.36.52c-.92,1.3-.92,1.3-1.3,1.8H40a15.76,15.76,0,0,0,1.86-.1l.72.86a9.91,9.91,0,0,0-.68.86,29.17,29.17,0,0,1-6.45,6.38h7.35a9.51,9.51,0,0,0,1.44-.08,9.5,9.5,0,0,0-.1,1.6v4.85a11.5,11.5,0,0,0,.12,1.78H42.9v-1.12H34.53v1.12H33.12a13.09,13.09,0,0,0,.12-1.78v-4.85a32.51,32.51,0,0,1-4.46,2.34,3.63,3.63,0,0,0-.8-1.18,27.29,27.29,0,0,0,7.89-4.5A14.64,14.64,0,0,0,33,95.15Zm.62,10.66H42.9v-4.74H34.53Z"/><path d="M56,90.89a7.77,7.77,0,0,0-.12-1.74h1.62a8.23,8.23,0,0,0-.14,1.74v2.16h6.19a14.7,14.7,0,0,0,2.09-.12v1.44c-.69-.06-1.33-.1-2.09-.1H57.34v4.18h4.49a9.92,9.92,0,0,0,1.48-.08,9.76,9.76,0,0,0-.1,1.62v5.39a12.53,12.53,0,0,0,.12,1.84H61.87V106h-10v1.24H50.41a13.76,13.76,0,0,0,.12-1.84V100a13,13,0,0,0-.1-1.62,9.92,9.92,0,0,0,1.48.08H56V94.27H50.27a15.31,15.31,0,0,0-2.1.1V92.93a14.86,14.86,0,0,0,2.1.12H56Zm-4.11,13.9h10V99.65h-10Z"/><path d="M71,96.81a37.11,37.11,0,0,1-.66,5.66,14.7,14.7,0,0,1-1.7,4.51,5,5,0,0,0-1.09-1A11.51,11.51,0,0,0,69,102.57a45,45,0,0,0,.84-10.24,23.91,23.91,0,0,0-.1-2.48,18.62,18.62,0,0,0,2.42.1H82.64a14,14,0,0,0,2.06-.1,10.47,10.47,0,0,0-.06,1.36V93a7.8,7.8,0,0,0,.06,1.26c-.78,0-1.36-.06-2-.06H71.1l0,1.54H83a15.68,15.68,0,0,0,2.34-.1v1.28a16.62,16.62,0,0,0-2.28-.1H76.75a22.11,22.11,0,0,1-1.4,2.38c2.82-.1,3.36-.12,6.19-.38-.52-.44-.84-.68-1.7-1.32l1-.54a28.43,28.43,0,0,1,3.84,3.42l-1,.64c-.58-.66-.74-.82-1.18-1.3-2.76.26-5.55.46-9.94.7a3.81,3.81,0,0,0-.74.08l-.22-1.28a3.09,3.09,0,0,0,.7.06l1.75,0a16.24,16.24,0,0,0,1.4-2.42Zm11.4,5.46a12.24,12.24,0,0,0,2.1-.1v1.28a14.79,14.79,0,0,0-2.1-.1h-4v2.25h4.85a15.8,15.8,0,0,0,2.49-.1v1.32a19.43,19.43,0,0,0-2.57-.12H72.76a18.28,18.28,0,0,0-2.42.12V105.5a14.69,14.69,0,0,0,2.34.1h4.55v-2.25H74a14.51,14.51,0,0,0-2.11.1v-1.28a12.44,12.44,0,0,0,2.13.1h3.22a8.85,8.85,0,0,0-.1-1.68h1.44a9,9,0,0,0-.1,1.68Zm1-9.16V91.05H71.12v2.06Z"/><path d="M96,90.93a9.85,9.85,0,0,0-.14-1.7h1.6a8.45,8.45,0,0,0-.14,1.7v1.22h6.29a14.08,14.08,0,0,0,2.29-.14v1.44a14.51,14.51,0,0,0-2.27-.12H90.29a16,16,0,0,0-2.22.12V92a14.39,14.39,0,0,0,2.24.14H96Zm0,4.5a9.55,9.55,0,0,0-.1-1.58h1.5a10.13,10.13,0,0,0-.1,1.6v.64h4.75A17.54,17.54,0,0,0,104,96a12.88,12.88,0,0,0-.08,1.62v5.76c0,1.3-.4,1.65-2,1.65-.82,0-1.16,0-2.08-.09a4.15,4.15,0,0,0-.35-1.34,16,16,0,0,0,2.35.2c.64,0,.8-.12.8-.56v-6H97.34v8a14.66,14.66,0,0,0,.14,2.19H95.9a15.8,15.8,0,0,0,.14-2.19v-8H91.29v6a15.61,15.61,0,0,0,.12,2.16H89.83a16.43,16.43,0,0,0,.12-2.16v-5.6A13.85,13.85,0,0,0,89.87,96a17.46,17.46,0,0,0,1.92.08H96Z"/><path d="M110.12,91.79a15.45,15.45,0,0,0-2.06.12V90.49a14.55,14.55,0,0,0,2.08.12h13.64a15,15,0,0,0,2.09-.12v1.42a15.72,15.72,0,0,0-2.07-.12h-4.63v3h3.11a20.08,20.08,0,0,0,2.38-.1,21.24,21.24,0,0,0-.12,2.46v7.7a16.11,16.11,0,0,0,.12,2.39h-1.38v-1.43H110.62v1.43h-1.38a15.12,15.12,0,0,0,.12-2.43V97.15a22.75,22.75,0,0,0-.12-2.46,18.76,18.76,0,0,0,2.34.1h2.79c0-.7,0-1.12,0-1.78V91.79Zm.5,4.16v8.66h12.64V96h-4.09v3.64c0,.42.15.48,1,.48,1.1,0,1.3,0,1.4-.34a5.1,5.1,0,0,0,.1-1.48,3.28,3.28,0,0,0,1.1.38,4.33,4.33,0,0,1-.34,2c-.28.44-.82.58-2.24.58-1.79,0-2.21-.24-2.21-1.24V96h-2.46a8.52,8.52,0,0,1-1.1,4.1,6.18,6.18,0,0,1-2.57,2.42,3.32,3.32,0,0,0-.92-1,5.57,5.57,0,0,0,2.45-2.08,7.54,7.54,0,0,0,.92-3.46Zm5-3c0,.72,0,1.14,0,1.82H118v-3h-2.34Z"/><path d="M137.54,102.67h5.37a14.6,14.6,0,0,0,2.35-.12v1.56a18.68,18.68,0,0,0-2.33-.1H131a18.26,18.26,0,0,0-2.3.1v-1.56a14.26,14.26,0,0,0,2.32.12h5V93.81h-3.49a18.22,18.22,0,0,0-2.32.1V92.37a14.54,14.54,0,0,0,2.34.12h8.8a14.54,14.54,0,0,0,2.34-.12v1.54a18.22,18.22,0,0,0-2.32-.1h-3.87Z"/><path d="M153.39,90.43a9.47,9.47,0,0,0-.09,1.66v5.38a9.19,9.19,0,0,0,.09,1.66h-1.67a12.13,12.13,0,0,0,.08-1.68V92.11a11.76,11.76,0,0,0-.08-1.68Zm8.87,0a8.93,8.93,0,0,0-.1,1.74v2.36a22.54,22.54,0,0,1-.5,6.1,7.63,7.63,0,0,1-3.81,4.45,15.75,15.75,0,0,1-3.64,1.44,3.68,3.68,0,0,0-.85-1.39,11.62,11.62,0,0,0,3.81-1.36,6,6,0,0,0,3.21-4.22,24.87,24.87,0,0,0,.28-5.1V92.19a11.12,11.12,0,0,0-.08-1.76Z"/><path d="M177.4,94.59a7.25,7.25,0,0,0-.08,1.4c-.06,3.34-.62,5.32-2,7a10.94,10.94,0,0,1-5.13,3.47,4,4,0,0,0-.92-1.35,9.4,9.4,0,0,0,3.66-1.84c2.13-1.7,2.91-3.74,2.91-7.64a5.28,5.28,0,0,0-.08-1.08Zm7.92-2.52a4,4,0,0,0-.49.8,12,12,0,0,1-5.85,5.7,3.93,3.93,0,0,0-1-1.14,8.62,8.62,0,0,0,3.17-1.9,10.61,10.61,0,0,0,2.24-3H172a19.31,19.31,0,0,0-2.36.1V91.11a14.66,14.66,0,0,0,2.38.14h10.76c1.34,0,1.34,0,1.7-.14Z"/><rect class="cls-1" y="142" width="380" height="126"/><rect class="cls-2" y="142" width="380" height="41"/><path class="cls-3" d="M136.87,164.51a2.55,2.55,0,0,0-.38.36,17.65,17.65,0,0,1-4.31,3.59,26.18,26.18,0,0,0,9.41,2.08,4.22,4.22,0,0,0-.7,1.53,31.66,31.66,0,0,1-5.46-1,21.29,21.29,0,0,1-4.67-1.81,30.52,30.52,0,0,1-9.72,2.89,4,4,0,0,0-.81-1.41,29.53,29.53,0,0,0,9.15-2.3,15.16,15.16,0,0,1-3.43-2.87,17.71,17.71,0,0,1-4.55,2.85,3.57,3.57,0,0,0-1-1.15,17.63,17.63,0,0,0,4.88-2.84,11.91,11.91,0,0,0,2.28-2.42c-1-.12-1.25-.36-1.25-1.15V159a8.92,8.92,0,0,0-.12-1.72h1.6a8.22,8.22,0,0,0-.12,1.57v1.51c0,.21,0,.29.27.36a13.67,13.67,0,0,0,2.35.12c2.46,0,3.44,0,3.73-.22s.53-.57.7-1.72a3.28,3.28,0,0,0,1.26.67c-.57,2.44-.67,2.49-5.19,2.49-.84,0-1.06,0-1.65,0-.7.94-.89,1.15-1.27,1.61h6a11.51,11.51,0,0,0,2.11-.12Zm-11.93-9.35a10.52,10.52,0,0,0-1-2.08c-.14,0-.84,0-2.16,0a4.6,4.6,0,0,0-.59-1.31h1.26a106.15,106.15,0,0,0,11.69-.7,19.24,19.24,0,0,0,4.69-.93l1.15,1.36c-1.7.31-2.82.5-3.35.58l1.34.38c-.88,1.62-1.05,1.91-1.53,2.65h1.89c1.22,0,2,0,2.71-.09a14,14,0,0,0-.1,1.79v1.39a10,10,0,0,0,.12,1.5H139.5v-3.32H122.17v3.4h-1.56a13.21,13.21,0,0,0,.12-1.7v-1.32a13,13,0,0,0-.1-1.77,22,22,0,0,0,3,.12Zm-3.75,6.94a8.5,8.5,0,0,0,2.92-4.26l1.24.6a13.14,13.14,0,0,1-3.09,4.71Zm9.26-6.94a11.91,11.91,0,0,0-1-2.32c-1.77.1-3.07.17-4.1.2a12,12,0,0,1,1.06,2.12ZM127,164.85a13,13,0,0,0,3.71,2.91,13.31,13.31,0,0,0,3.83-2.91Zm5.08-4.86a14.9,14.9,0,0,0-3.09-2.36l.83-.89a18.22,18.22,0,0,1,3.21,2.25Zm2.85-4.83a11.77,11.77,0,0,0,1.5-3c-1.84.26-3.25.41-5.67.6a14.84,14.84,0,0,1,1.05,2.41Zm4.26,7.8a19.16,19.16,0,0,0-3.59-4.59l1.07-.74a25.76,25.76,0,0,1,3.71,4.42Z"/><path class="cls-3" d="M147.35,155.09a16.63,16.63,0,0,1-2.22,3.52,3.13,3.13,0,0,0-1.18-1.06,12.22,12.22,0,0,0,3.19-6,6,6,0,0,0,.21-1.32l1.63.26c-.14.39-.19.58-.4,1.3a15.37,15.37,0,0,1-.63,1.88h4.34a12.9,12.9,0,0,0,2.34-.14v1.65c-.74-.07-1.53-.12-2.34-.12h-1.54c0,2.58,0,2.87-.16,4.47h2a15,15,0,0,0,2.28-.14v1.67a15.55,15.55,0,0,0-2.28-.14h-2.15c-.07.55-.1.84-.2,1.41a14.5,14.5,0,0,0,4.55,5.45,4.87,4.87,0,0,0-.95,1.44,19,19,0,0,1-4-5.07,12.56,12.56,0,0,1-4.78,6.88,4.43,4.43,0,0,0-1.2-1.24c3.28-2.32,4.67-4.71,5.15-8.87h-2.18a14.76,14.76,0,0,0-2.54.14v-1.67a14.66,14.66,0,0,0,2.59.14h2.27c.1-1.31.12-1.81.14-4.47Zm9.85,16.07h-1.66a20.35,20.35,0,0,0,.15-2.73V155.16a20,20,0,0,0-.15-2.51,12.85,12.85,0,0,0,2.16.12h4.79a12.93,12.93,0,0,0,2.15-.12,19.06,19.06,0,0,0-.12,2.51v13.11a22.6,22.6,0,0,0,.15,2.89H163v-1.7H157.2Zm0-3.09H163V154.16H157.2Z"/><path class="cls-3" d="M175.17,167.05a14.25,14.25,0,0,1-5.53,4.61,4.9,4.9,0,0,0-1.17-1.15,11.84,11.84,0,0,0,3.11-1.77,10.49,10.49,0,0,0,2.35-2.46Zm4.41,2.75a12.21,12.21,0,0,0,.17,2.39h-1.87a12.76,12.76,0,0,0,.17-2.39v-4.5h-6.23c-1,0-1.63,0-2.37.07a13.67,13.67,0,0,0,.12-2.34v-8a11.14,11.14,0,0,0-.14-2.15h1.77a12.81,12.81,0,0,0-.12,2.13v9h15.78a15.28,15.28,0,0,0,2.35-.12v1.6a14,14,0,0,0-2.33-.14h-7.3Zm6.73-9.64a12.56,12.56,0,0,0,.12,2.25,23.91,23.91,0,0,0-2.51-.1h-7.57a24.36,24.36,0,0,0-2.47.1,20.07,20.07,0,0,0,.1-2.32v-6.74a19.73,19.73,0,0,0-.1-2.16,19.54,19.54,0,0,0,2.61.12H184a18.18,18.18,0,0,0,2.44-.12,13.25,13.25,0,0,0-.12,2.25Zm-10.9-5.55h9.44v-2h-9.44Zm0,3.23h9.44v-2h-9.44Zm0,3.25h9.44V159h-9.44Zm8.27,5.22a16.08,16.08,0,0,0,3.23,2.75,14.44,14.44,0,0,0,2.63,1.38,5.57,5.57,0,0,0-1.1,1.25,18.9,18.9,0,0,1-6-4.62Z"/><path class="cls-3" d="M209.65,152.56a11.42,11.42,0,0,0-.17-2.32h1.85a11.88,11.88,0,0,0-.17,2.32h7.61a12.46,12.46,0,0,0,2.47-.17v1.7a18,18,0,0,0-2.47-.15h-7.61v2.47h6.46a17.42,17.42,0,0,0,2.16-.1,16.38,16.38,0,0,0-.1,2v11.45c0,1.51-.55,1.92-2.63,1.92-.77,0-1.56-.05-2.49-.12a4.11,4.11,0,0,0-.41-1.56,15.55,15.55,0,0,0,2.85.26c.91,0,1.15-.12,1.15-.62v-11.9h-15v11.81a14.72,14.72,0,0,0,.12,2.46h-1.79a17.36,17.36,0,0,0,.14-2.53V158.37a18,18,0,0,0-.09-2.06,18.22,18.22,0,0,0,2.18.1h5.91v-2.47h-7.16a16.55,16.55,0,0,0-2.44.15v-1.7a15,15,0,0,0,2.44.17Zm1.77,8.84a12.6,12.6,0,0,0,1.89-3.27l1.44.43A21.58,21.58,0,0,1,213,161.4h1.82a11.81,11.81,0,0,0,2.1-.12v1.53a14,14,0,0,0-2.1-.12H211v2.56h3.54a12,12,0,0,0,2.11-.12v1.51a12.55,12.55,0,0,0-2.11-.12H211v2.08a19.33,19.33,0,0,0,.12,2.7h-1.7a21.59,21.59,0,0,0,.12-2.68v-2.1H206.7a13.48,13.48,0,0,0-2.17.12v-1.51a12.88,12.88,0,0,0,2.2.12h2.85v-2.56h-3.23a13.19,13.19,0,0,0-2.09.12v-1.53a12.36,12.36,0,0,0,2.16.12Zm-3.95-3.32a24.57,24.57,0,0,1,1.56,2.65l-1.22.53a14.67,14.67,0,0,0-1.58-2.63Z"/><path class="cls-3" d="M234.07,159.56a12,12,0,0,0,2.23-.12V161a16,16,0,0,0-2.18-.11h-8a14.62,14.62,0,0,0-2.28.11v-1.6a13.35,13.35,0,0,0,2.3.12h5.17A20.1,20.1,0,0,0,233,154.8l1.46.51a24.66,24.66,0,0,1-1.77,4.25Zm-.31-6.5a12.58,12.58,0,0,0,2.23-.12v1.58a12,12,0,0,0-2.21-.12h-7.16a12.24,12.24,0,0,0-2.15.12v-1.58a12.51,12.51,0,0,0,2.23.12h2.89v-.89a9.54,9.54,0,0,0-.14-1.81h1.8a9.62,9.62,0,0,0-.15,1.84v.86ZM227,171.92h-1.61a14.3,14.3,0,0,0,.1-2.15v-4.85a18.1,18.1,0,0,0-.07-2,18.73,18.73,0,0,0,1.89.07h5.67a14.08,14.08,0,0,0,1.75-.07,12.65,12.65,0,0,0-.07,2V170a12.1,12.1,0,0,0,.1,1.88h-1.61v-1.48H227Zm.41-17.07a18.72,18.72,0,0,1,1.6,4l-1.39.48a16.74,16.74,0,0,0-1.56-4ZM227,169.1h6.18v-4.78H227Zm18.49-17a20.54,20.54,0,0,0-1,2.13,48.25,48.25,0,0,1-2.46,4.74,11.1,11.1,0,0,1,2.7,3.75,8.25,8.25,0,0,1,.72,3.35,2.89,2.89,0,0,1-1.22,2.68,4.78,4.78,0,0,1-2.16.36c-.64,0-1.26,0-2-.1a4.79,4.79,0,0,0-.31-1.6,12.87,12.87,0,0,0,2.32.24c1.36,0,1.82-.43,1.82-1.7a7.33,7.33,0,0,0-.79-3.25,9.86,9.86,0,0,0-2.85-3.47,34.72,34.72,0,0,0,3.23-6.67h-4.76v17a15.18,15.18,0,0,0,.16,2.65h-1.82a18.07,18.07,0,0,0,.15-2.63V153.27c0-.71,0-1.38-.1-2.2.62.05,1.08.08,1.92.08h3.85a11.52,11.52,0,0,0,1.85-.1Z"/><path d="M34,203.79a15.51,15.51,0,0,0-2.07.12v-1.42a14.61,14.61,0,0,0,2.09.12H47.66a14.75,14.75,0,0,0,2.08-.12v1.42a15.45,15.45,0,0,0-2.06-.12H43.05v3h3.11a20.08,20.08,0,0,0,2.38-.1,21.24,21.24,0,0,0-.12,2.46v7.7a16.11,16.11,0,0,0,.12,2.39H47.16v-1.42H34.5v1.42H33.11a15.06,15.06,0,0,0,.12-2.42v-7.67a22.75,22.75,0,0,0-.12-2.46,18.94,18.94,0,0,0,2.35.1h2.78c0-.7,0-1.12,0-1.78v-1.22Zm.5,4.16v8.66H47.14V208H43.05v3.64c0,.42.14.48,1,.48,1.1,0,1.3,0,1.4-.34a4.58,4.58,0,0,0,.11-1.48,3.28,3.28,0,0,0,1.1.38,4.33,4.33,0,0,1-.34,2c-.28.44-.82.58-2.25.58-1.78,0-2.2-.24-2.2-1.24v-4H39.38a8.52,8.52,0,0,1-1.1,4.1,6.15,6.15,0,0,1-2.56,2.42,3.32,3.32,0,0,0-.92-1,5.48,5.48,0,0,0,2.44-2.08,7.54,7.54,0,0,0,.92-3.46Zm5-3c0,.72,0,1.14,0,1.82h2.38v-3H39.5Z"/><path d="M55,206.63a36,36,0,0,1-.74,8.42,13.41,13.41,0,0,1-1.67,4.19,4,4,0,0,0-1.06-1c1.78-2.87,2.23-5.63,2.23-14.11,0-.92,0-1.6-.08-2.2.68.06,1.3.08,2.42.08H66.67a18.29,18.29,0,0,0,2.1-.08c0,.48-.06.94-.06,1.54v1.76c0,.6,0,1,.06,1.48-.62,0-1.16-.06-2-.06Zm12.5-1.12v-2.4H55v2.4Zm-7.07,4c-1.39.22-2.49.38-4.13.54a4.4,4.4,0,0,0-.54-1.06,37.34,37.34,0,0,0,8.63-1.44A7.14,7.14,0,0,0,66,207l.94,1-.62.18c-1.65.48-3,.8-4.67,1.14v1.84l4.67-.58a12.78,12.78,0,0,0,1.92-.36l.1,1.32h-.24a16,16,0,0,0-1.7.14l-4.75.58v2l5.71-.68a12,12,0,0,0,1.9-.36l.12,1.32a16.28,16.28,0,0,0-1.94.12l-5.79.7v1.75c0,.8.3.88,3.34.88,2.07,0,2.87-.08,3.15-.32s.42-1,.52-2.31a3.56,3.56,0,0,0,1.22.44c-.22,1.81-.46,2.51-1,2.89s-1.48.44-4,.44c-4,0-4.54-.2-4.54-1.76v-1.85l-3.25.38c-.6.08-1.3.2-1.92.34l-.1-1.3a15.41,15.41,0,0,0,1.94-.14l3.33-.4v-2l-2.87.36c-.78.1-1.26.18-1.92.32l-.1-1.28a14.75,14.75,0,0,0,2-.14l2.93-.36Z"/><path d="M80,202.93a9.85,9.85,0,0,0-.14-1.7h1.6a8.45,8.45,0,0,0-.14,1.7v1.22h6.29A13.94,13.94,0,0,0,89.9,204v1.44a14.36,14.36,0,0,0-2.26-.12H74.26a16,16,0,0,0-2.23.12V204a14.44,14.44,0,0,0,2.25.14H80Zm0,4.5a9.55,9.55,0,0,0-.1-1.58h1.5a10.13,10.13,0,0,0-.1,1.6v.64h4.75A17.54,17.54,0,0,0,88,208a12.88,12.88,0,0,0-.08,1.62v5.76c0,1.3-.4,1.65-2,1.65-.83,0-1.17,0-2.09-.08a4.47,4.47,0,0,0-.34-1.35,15.8,15.8,0,0,0,2.35.2c.64,0,.8-.12.8-.56v-6H81.31v8a14.66,14.66,0,0,0,.14,2.19H79.87a15.8,15.8,0,0,0,.14-2.19v-8H75.26v6a15.77,15.77,0,0,0,.12,2.17H73.79a15,15,0,0,0,.13-2.17v-5.6a11.92,11.92,0,0,0-.09-1.64,17.78,17.78,0,0,0,1.93.08H80Z"/><path d="M92.88,213.89a20,20,0,0,1,4,4.25l-1.12,1.06a20.06,20.06,0,0,0-4-4.37Z"/><path d="M114.38,212a17.73,17.73,0,0,0-2.27.12v-1.34a13.52,13.52,0,0,0,2.27.12H127.7a17.33,17.33,0,0,0,2.24-.12v1.34a18.22,18.22,0,0,0-2.24-.12h-8.58a13.75,13.75,0,0,1-1.66,1.8H126a10.43,10.43,0,0,0,1.86-.1,17.45,17.45,0,0,0-.1,1.8v2a15.39,15.39,0,0,0,.12,1.82h-1.38v-.94H117.3v.92h-1.36a10.8,10.8,0,0,0,.12-1.78V215a17.07,17.07,0,0,1-3.47,2.05,3.49,3.49,0,0,0-.74-1.09,13,13,0,0,0,4-2.1,11.61,11.61,0,0,0,1.88-1.84Zm-.46-9.12a11.75,11.75,0,0,0-1.43.08v-1.22a14.91,14.91,0,0,0,1.59.1h4.72a9.17,9.17,0,0,0,1.55-.1V203a11.43,11.43,0,0,0-1.41-.08h-1.88v2h1.44a8,8,0,0,0,1.25-.08V206a8.65,8.65,0,0,0-1.25-.08h-1.44v2.2c1.1-.16,1.66-.26,3.09-.54v1c-2.27.44-4.81.86-6.78,1.1a9.41,9.41,0,0,0-1,.16l-.2-1.28h.36c.48,0,2-.14,3.35-.3V206h-1.62a9.25,9.25,0,0,0-1.35.08v-1.16a8.9,8.9,0,0,0,1.35.08h1.62v-2Zm3.38,14.43h9.18v-2.45H117.3Zm6.33-14.73a7,7,0,0,0,.7-1.68l1.27.2a8.74,8.74,0,0,1-.69,1.48h2.21a9.88,9.88,0,0,0,1.86-.1,11.57,11.57,0,0,0-.08,1.8v3.48c0,.9,0,1.38,0,1.76-.58,0-1,0-1.7,0h-4.53a12.45,12.45,0,0,0-1.8.08,14.66,14.66,0,0,0,.08-1.84v-3.42a13,13,0,0,0-.08-1.82,10,10,0,0,0,1.78.1Zm-1.48,2.82h5.59v-1.8h-5.59Zm0,3h5.59v-2h-5.59Z"/><path d="M140.2,203.05a9.61,9.61,0,0,0-.14-1.94h1.54a10,10,0,0,0-.14,1.94h6.37a10.45,10.45,0,0,0,2.06-.14v1.42a15.67,15.67,0,0,0-2.06-.12h-6.37v2.06h5.41a14.35,14.35,0,0,0,1.8-.08,13.49,13.49,0,0,0-.08,1.68v9.59c0,1.26-.46,1.6-2.2,1.6-.64,0-1.31,0-2.09-.1a3.49,3.49,0,0,0-.34-1.3,13,13,0,0,0,2.39.22c.76,0,1-.11,1-.53v-10H134.79v9.88a11.89,11.89,0,0,0,.1,2.07h-1.51a13.91,13.91,0,0,0,.12-2.13v-9.3a14.61,14.61,0,0,0-.08-1.72,15.42,15.42,0,0,0,1.83.08h4.95v-2.06h-6a14.58,14.58,0,0,0-2.05.12v-1.42a12.62,12.62,0,0,0,2.05.14Zm1.48,7.4a10.73,10.73,0,0,0,1.58-2.74l1.2.36a16.94,16.94,0,0,1-1.5,2.38h1.52a10.31,10.31,0,0,0,1.77-.1v1.28a11.28,11.28,0,0,0-1.77-.1h-3.12v2.14h3a10.53,10.53,0,0,0,1.77-.1v1.26a11,11,0,0,0-1.77-.1h-3v1.74a16.9,16.9,0,0,0,.1,2.27H140a17.31,17.31,0,0,0,.1-2.25v-1.76h-2.41a11.81,11.81,0,0,0-1.82.1v-1.26a11.17,11.17,0,0,0,1.84.1h2.39v-2.14h-2.71a10.43,10.43,0,0,0-1.74.1v-1.28a10.63,10.63,0,0,0,1.8.1Zm-3.31-2.78a22.43,22.43,0,0,1,1.31,2.22l-1,.44a11.65,11.65,0,0,0-1.32-2.2Z"/><path d="M160.13,202.93a9.85,9.85,0,0,0-.14-1.7h1.6a8.45,8.45,0,0,0-.14,1.7v1.22h6.29A13.94,13.94,0,0,0,170,204v1.44a14.36,14.36,0,0,0-2.26-.12H154.38a16,16,0,0,0-2.23.12V204a14.44,14.44,0,0,0,2.25.14h5.73Zm0,4.5a9.55,9.55,0,0,0-.1-1.58h1.5a10.13,10.13,0,0,0-.1,1.6v.64h4.75a17.54,17.54,0,0,0,1.9-.08,12.88,12.88,0,0,0-.08,1.62v5.76c0,1.3-.4,1.65-2,1.65-.83,0-1.17,0-2.09-.08a4.47,4.47,0,0,0-.34-1.35,15.8,15.8,0,0,0,2.35.2c.64,0,.8-.12.8-.56v-6h-5.25v8a14.66,14.66,0,0,0,.14,2.19H160a15.8,15.8,0,0,0,.14-2.19v-8h-4.75v6a15.77,15.77,0,0,0,.12,2.17h-1.58a16.7,16.7,0,0,0,.12-2.17v-5.6A13.85,13.85,0,0,0,154,208a17.46,17.46,0,0,0,1.92.08h4.25Z"/><path d="M173,213.89a20,20,0,0,1,4,4.25l-1.12,1.06a20.06,20.06,0,0,0-3.95-4.37Z"/><path d="M193.15,203.83a15.12,15.12,0,0,0-.08-1.76,16.8,16.8,0,0,0,2,.08h12.34a13.56,13.56,0,0,0,1.8-.08,15.34,15.34,0,0,0-.08,1.82V217.7c0,1.1-.54,1.42-2.4,1.42a17.37,17.37,0,0,1-2.15-.12,4.62,4.62,0,0,0-.32-1.28,14.35,14.35,0,0,0,2.65.24c.72,0,.94-.11.94-.48V203.29H194.44v14a11.47,11.47,0,0,0,.1,2H193a13.86,13.86,0,0,0,.12-2Zm8.88,3.72a12.93,12.93,0,0,0,1.84-3.72l1.2.44a16.22,16.22,0,0,1-1.82,3.28h1.94a10.43,10.43,0,0,0,1.79-.1v1.3a11.16,11.16,0,0,0-1.79-.1h-3.54v5.54h2.82v-2.66a11.63,11.63,0,0,0-.08-1.58h1.33a10.12,10.12,0,0,0-.1,1.66v3a13.84,13.84,0,0,0,.08,1.73h-1.23v-1.05h-6.61v1.82h-1.24a12.66,12.66,0,0,0,.1-2v-3.52a10.73,10.73,0,0,0-.1-1.66h1.32a11.39,11.39,0,0,0-.08,1.6v2.64h2.61v-5.54h-3.35a11.5,11.5,0,0,0-1.82.1v-1.3a11.19,11.19,0,0,0,1.82.1Zm-3.69-3.64a16.24,16.24,0,0,1,1.63,2.88l-1.11.46a11.59,11.59,0,0,0-1.62-2.86Z"/><path d="M215.29,203.59a16.54,16.54,0,0,0-.12-2.1h1.42a16.43,16.43,0,0,0-.12,2.08v11.62h1.32v-8.74a18.91,18.91,0,0,0-.1-2H219a13.47,13.47,0,0,0-.1,2v2.38h9.5a11.25,11.25,0,0,0,2-.12v1.36a9.49,9.49,0,0,0-1.6-.12v8c0,1.22-.38,1.46-2.24,1.46l-1.61,0a4.45,4.45,0,0,0-.32-1.28,13.89,13.89,0,0,0,2.15.16c.66,0,.78-.08.78-.51V210h-8.62v5.12c0,.86,0,1.75.08,2.16h-1.2v-.91H214v2h-1.27a15.94,15.94,0,0,0,.12-2.13v-9.68a16.26,16.26,0,0,0-.1-2h1.35a14.45,14.45,0,0,0-.1,2v8.72h1.34Zm10,.8a4.75,4.75,0,0,0,1.46,1.6,7,7,0,0,0,3,1.3,3.9,3.9,0,0,0-.64,1.14,8.32,8.32,0,0,1-3.4-1.88,4.79,4.79,0,0,1-1.27-1.58,5.76,5.76,0,0,1-1.72,2.18,7.62,7.62,0,0,1-2.5,1.28,3.52,3.52,0,0,0-.77-1.06c2.39-.68,3.37-1.42,4-3H221.6a11.38,11.38,0,0,0-1.8.1v-1.28a11.51,11.51,0,0,0,1.82.12h2.08a8.55,8.55,0,0,0,.08-1.18,4.53,4.53,0,0,0-.06-.84h1.38c0,.16,0,.2-.1,1,0,.42-.06.62-.12,1h2.63a14.13,14.13,0,0,0,2-.12v1.28c-.66-.06-1.32-.1-2-.1Zm.38,10.3c0,.76,0,1.22.06,1.63a13.64,13.64,0,0,0-1.57-.07h-2.48v1.21h-1.2a12.52,12.52,0,0,0,.08-1.67V213c0-.68,0-1-.06-1.6a15.54,15.54,0,0,0,1.6.06h2a15.77,15.77,0,0,0,1.61-.06c0,.42-.06.88-.06,1.62Zm-4,.56h2.86v-2.82h-2.86Z"/><path d="M240.25,202.93a9.85,9.85,0,0,0-.14-1.7h1.6a8.45,8.45,0,0,0-.14,1.7v1.22h6.29a13.94,13.94,0,0,0,2.28-.14v1.44a14.36,14.36,0,0,0-2.26-.12H234.5a16,16,0,0,0-2.23.12V204a14.44,14.44,0,0,0,2.25.14h5.73Zm0,4.5a9.55,9.55,0,0,0-.1-1.58h1.5a10.13,10.13,0,0,0-.1,1.6v.64h4.75a17.54,17.54,0,0,0,1.9-.08,12.88,12.88,0,0,0-.08,1.62v5.76c0,1.3-.4,1.65-2,1.65-.83,0-1.17,0-2.09-.08a4.47,4.47,0,0,0-.34-1.35,15.9,15.9,0,0,0,2.35.2c.64,0,.8-.12.8-.56v-6h-5.25v8a14.66,14.66,0,0,0,.14,2.19h-1.58a15.8,15.8,0,0,0,.14-2.19v-8H235.5v6a15.77,15.77,0,0,0,.12,2.17H234a16.7,16.7,0,0,0,.12-2.17v-5.6a13.85,13.85,0,0,0-.08-1.64,17.46,17.46,0,0,0,1.92.08h4.25Z"/><path d="M253.12,213.89a20,20,0,0,1,4,4.25L256,219.2a20.06,20.06,0,0,0-3.95-4.37Z"/><path d="M278.28,217.84a7.78,7.78,0,0,0-1.08-1.5l1.14-.45a11.74,11.74,0,0,1,1.19,2h3.54a8,8,0,0,0,1.08-2l1.19.46a11,11,0,0,1-1,1.49H288a16.54,16.54,0,0,0,2.1-.12v1.34a12.38,12.38,0,0,0-2.1-.14H274.56a13.41,13.41,0,0,0-2.21.14v-1.34a18.65,18.65,0,0,0,2.21.12Zm11.62-6.79a16.37,16.37,0,0,0-2.22-.12H274.74a15.45,15.45,0,0,0-2.15.12v-1.3a12,12,0,0,0,2.15.14h12.94a12.69,12.69,0,0,0,2.22-.14Zm-3.48-8.5a16.79,16.79,0,0,0,2.18-.1,10.56,10.56,0,0,0-.08,1.58v3.12a10.39,10.39,0,0,0,.08,1.58,21.08,21.08,0,0,0-2.12-.08H276.12a17.37,17.37,0,0,0-2.12.08,10.56,10.56,0,0,0,.08-1.58V204a11.08,11.08,0,0,0-.08-1.58,16.65,16.65,0,0,0,2.16.1h2.26a7.21,7.21,0,0,0-.12-1.62h1.43a6.9,6.9,0,0,0-.14,1.52v.1h3.18a7.21,7.21,0,0,0-.12-1.62h1.42a7.63,7.63,0,0,0-.14,1.62ZM275,213.39a7.17,7.17,0,0,0-.1-1.4,19.2,19.2,0,0,0,2.32.1h8.08a18.69,18.69,0,0,0,2.28-.1,6.93,6.93,0,0,0-.1,1.4v1.1a7.2,7.2,0,0,0,.1,1.38c-.68-.06-1.32-.08-2.24-.08h-8.16a21.32,21.32,0,0,0-2.28.08,7.33,7.33,0,0,0,.1-1.38Zm.32-9.86v1.54h3.14v-1.54Zm0,2.46v1.72h3.14V206Zm1,8.82h9.94v-1.74h-9.94Zm3.35-9.74h3.18v-1.54h-3.18Zm0,2.64h3.18V206h-3.18Zm4.34-2.64h3.39v-1.54h-3.39Zm0,2.64h3.39V206h-3.39Z"/><path d="M307.85,219.1v-1.22h-13.2v1.22h-1.41a19.94,19.94,0,0,0,.12-2.33V204.35c0-.74,0-1.36-.1-2a20.81,20.81,0,0,0,2.31.1H307a20.37,20.37,0,0,0,2.28-.1,15,15,0,0,0-.1,2v12.42a19.46,19.46,0,0,0,.12,2.33Zm-13.2-9.75h5.75v-5.74h-5.75Zm0,7.36h5.75v-6.22h-5.75Zm7-7.36h6.19v-5.74h-6.19Zm0,7.36h6.19v-6.22h-6.19Z"/><path d="M320.37,202.93a9.85,9.85,0,0,0-.14-1.7h1.6a8.45,8.45,0,0,0-.14,1.7v1.22H328a13.94,13.94,0,0,0,2.28-.14v1.44a14.36,14.36,0,0,0-2.26-.12H314.62a16.13,16.13,0,0,0-2.23.12V204a14.53,14.53,0,0,0,2.25.14h5.73Zm0,4.5a9.55,9.55,0,0,0-.1-1.58h1.5a10.13,10.13,0,0,0-.1,1.6v.64h4.75a17.54,17.54,0,0,0,1.9-.08,12.88,12.88,0,0,0-.08,1.62v5.76c0,1.3-.4,1.65-2,1.65-.82,0-1.17,0-2.09-.08a4.47,4.47,0,0,0-.34-1.35,15.9,15.9,0,0,0,2.35.2c.64,0,.8-.12.8-.56v-6h-5.25v8a14.66,14.66,0,0,0,.14,2.19h-1.58a15.8,15.8,0,0,0,.14-2.19v-8h-4.75v6a15.77,15.77,0,0,0,.12,2.17h-1.58a16.7,16.7,0,0,0,.12-2.17v-5.6a13.85,13.85,0,0,0-.08-1.64,17.46,17.46,0,0,0,1.92.08h4.25Z"/><path d="M333.24,213.89a20,20,0,0,1,4,4.25l-1.12,1.06a19.81,19.81,0,0,0-3.95-4.37Z"/><path d="M34.78,242.13a11.75,11.75,0,0,0-2.91-2.36l.84-.88a18.3,18.3,0,0,1,2.93,2.22Zm2.46-9.7a11.14,11.14,0,0,0-.08-1.26h1.36a7.39,7.39,0,0,0-.08,1.26v.2h4.73v-.2a11.83,11.83,0,0,0-.06-1.26h1.36a7.39,7.39,0,0,0-.08,1.26v.2h3.39a13.64,13.64,0,0,0,2-.12v1.32a15,15,0,0,0-2-.12H44.39a6.41,6.41,0,0,0,.08,1.18H43.11a10.06,10.06,0,0,0,.06-1.18H38.44a7.56,7.56,0,0,0,.08,1.32H37.16a8.17,8.17,0,0,0,.08-1.32H34.12a15.08,15.08,0,0,0-2,.12v-1.32a13.7,13.7,0,0,0,2,.12h3.12ZM36.44,244a30.71,30.71,0,0,1-3.23,4.93l-1.08-1a16.18,16.18,0,0,0,3.41-4.85Zm-.8-5.62A13.28,13.28,0,0,0,32.77,236l.78-.88a15.56,15.56,0,0,1,2.91,2.28ZM38.92,247a12.26,12.26,0,0,0,.12,2.2H37.6a14.7,14.7,0,0,0,.12-2.2v-6a17.09,17.09,0,0,0-.08-2.16,14.41,14.41,0,0,0,2.07.1h2.56v-1.46H38.74a13.13,13.13,0,0,0-2,.12v-1.28a13.13,13.13,0,0,0,2,.12h3.53a9.87,9.87,0,0,0-.12-1.42h1.4a9.59,9.59,0,0,0-.12,1.42H47.8a12.73,12.73,0,0,0,1.92-.12v1.28a12.87,12.87,0,0,0-2-.12H43.43V239h3a12.66,12.66,0,0,0,2.14-.1c0,.38-.06.58-.06.76s0,.84,0,1.68v6.29c0,1.1-.36,1.36-1.84,1.36-.4,0-.7,0-1.35,0a5,5,0,0,0-.26-1.18,10.86,10.86,0,0,0,1.75.13c.4,0,.5-.1.5-.51v-1.85H43.43v1.43a14.7,14.7,0,0,0,.12,2.2h-1.4a15.07,15.07,0,0,0,.12-2.2v-1.43H38.92Zm3.35-5.27V240H38.92v1.74Zm0,2.84v-1.88H38.92v1.88Zm5-2.84V240H43.43v1.74Zm0,2.84v-1.88H43.43v1.88Zm.16-8.2a9,9,0,0,0-2.33-1.48l.85-.68a15.31,15.31,0,0,1,2.26,1.36Z"/><path d="M55.09,235.33c0-.38,0-1.06,0-2.06h-1.2a10.45,10.45,0,0,0-1.45.08v-1.26a7.32,7.32,0,0,0,1.53.1h4.4a14.55,14.55,0,0,0,1.49,0,6.54,6.54,0,0,0-.06,1.16v2a4.05,4.05,0,0,0,1-.08v1.24a4.49,4.49,0,0,0-1-.08v2.1a6.55,6.55,0,0,0,.06,1.18l-.4,0-1,0h-2.8a12.43,12.43,0,0,1-.66,1.88h3.72a7,7,0,0,0,1.29-.08,9,9,0,0,0-.06,1.46v4a10.8,10.8,0,0,0,.1,1.7H58.75v-.82H55.31v1.38H54c.06-.54.12-1.18.12-1.64v-2.35c0-.48,0-1.22.08-1.94a16.24,16.24,0,0,1-1.89,2.92,3.56,3.56,0,0,0-.8-1,13.5,13.5,0,0,0,3-5.52h-.64l-1.39.06v-1.22a7.11,7.11,0,0,0,1.34.08h.93c.12-.72.22-1.38.28-2.16H53.36a8.85,8.85,0,0,0-1.68.1v-1.28a9.11,9.11,0,0,0,1.68.1Zm.22,11.4h3.44v-4.12H55.31Zm.86-10.32c-.1.94-.16,1.4-.28,2.16h2.8v-2.16Zm2.52-1.08v-2.06H56.33c0,1.4,0,1.4-.08,2.06Zm7-.2a16.65,16.65,0,0,0,1.82-4l1.26.44a21.75,21.75,0,0,1-1.86,3.52h1.14a9.68,9.68,0,0,0,1.78-.1v1.34a10.28,10.28,0,0,0-1.74-.1H65.87V239h1.72a8.77,8.77,0,0,0,1.78-.1v1.32a12.5,12.5,0,0,0-1.74-.1H65.87v3.08h2.52a12.46,12.46,0,0,0,1.82-.1v1.38a11.87,11.87,0,0,0-1.78-.12H65.87v2.88A13,13,0,0,0,66,249.4H64.48a16.26,16.26,0,0,0,.12-2.13v-2.88H62.22a8.63,8.63,0,0,0-1.64.1v-1.36a9.27,9.27,0,0,0,1.66.1H64.6v-3.08H63a7.94,7.94,0,0,0-1.58.1v-1.32A8.18,8.18,0,0,0,63,239h1.6v-2.76H62.88a10.58,10.58,0,0,0-1.66.1V235a8.87,8.87,0,0,0,1.66.1Zm-2.49-.28a13.5,13.5,0,0,0-1.46-3.22l1.12-.42a18.21,18.21,0,0,1,1.48,3.2Z"/><path d="M80,232.93a9.85,9.85,0,0,0-.14-1.7h1.6a8.45,8.45,0,0,0-.14,1.7v1.22h6.29A13.94,13.94,0,0,0,89.9,234v1.44a14.36,14.36,0,0,0-2.26-.12H74.26a16,16,0,0,0-2.23.12V234a14.44,14.44,0,0,0,2.25.14H80Zm0,4.5a9.55,9.55,0,0,0-.1-1.58h1.5a10.13,10.13,0,0,0-.1,1.6v.64h4.75A17.54,17.54,0,0,0,88,238a12.88,12.88,0,0,0-.08,1.62v5.76c0,1.3-.4,1.65-2,1.65-.83,0-1.17,0-2.09-.08a4.47,4.47,0,0,0-.34-1.35,15.8,15.8,0,0,0,2.35.2c.64,0,.8-.12.8-.56v-6H81.31v8a14.66,14.66,0,0,0,.14,2.19H79.87a15.8,15.8,0,0,0,.14-2.19v-8H75.26v6a15.77,15.77,0,0,0,.12,2.17H73.79a15,15,0,0,0,.13-2.17v-5.6a11.92,11.92,0,0,0-.09-1.64,17.78,17.78,0,0,0,1.93.08H80Z"/><path d="M92.88,243.89a20,20,0,0,1,4,4.25l-1.12,1.06a20.06,20.06,0,0,0-4-4.37Z"/><path d="M118,247.84a7.78,7.78,0,0,0-1.08-1.5l1.14-.45a11.08,11.08,0,0,1,1.18,2h3.55a8,8,0,0,0,1.08-2l1.18.46a10.15,10.15,0,0,1-1,1.49h3.65a16.54,16.54,0,0,0,2.1-.12v1.34a12.38,12.38,0,0,0-2.1-.14H114.32a13.41,13.41,0,0,0-2.21.14v-1.34a18.65,18.65,0,0,0,2.21.12Zm11.62-6.79a16.37,16.37,0,0,0-2.22-.12H114.5a15.35,15.35,0,0,0-2.15.12v-1.3a11.88,11.88,0,0,0,2.15.14h12.94a12.69,12.69,0,0,0,2.22-.14Zm-3.48-8.5a16.79,16.79,0,0,0,2.18-.1,10.56,10.56,0,0,0-.08,1.58v3.12a10.39,10.39,0,0,0,.08,1.58,21.08,21.08,0,0,0-2.12-.08H115.88a17.37,17.37,0,0,0-2.12.08,10.56,10.56,0,0,0,.08-1.58V234a11.08,11.08,0,0,0-.08-1.58,16.65,16.65,0,0,0,2.16.1h2.26a7.21,7.21,0,0,0-.12-1.62h1.43a6.31,6.31,0,0,0-.15,1.52v.1h3.19a7.21,7.21,0,0,0-.12-1.62h1.42a7.63,7.63,0,0,0-.14,1.62Zm-11.46,10.84a7.17,7.17,0,0,0-.1-1.4,19.2,19.2,0,0,0,2.32.1H125a18.77,18.77,0,0,0,2.29-.1,6.93,6.93,0,0,0-.1,1.4v1.1a7.2,7.2,0,0,0,.1,1.38c-.68-.06-1.32-.08-2.25-.08H116.9a21.32,21.32,0,0,0-2.28.08,7.33,7.33,0,0,0,.1-1.38Zm.32-9.86v1.54h3.14v-1.54Zm0,2.46v1.72h3.14V236Zm1,8.82h9.94v-1.74H116Zm3.34-9.74h3.19v-1.54h-3.19Zm0,2.64h3.19V236h-3.19Zm4.35-2.64h3.39v-1.54h-3.39Zm0,2.64h3.39V236h-3.39Z"/><path d="M134.47,233.27a12,12,0,0,0-.1-2.06h1.38a13.06,13.06,0,0,0-.1,2v1.86h.42a7.75,7.75,0,0,0,1.3-.08v1.22a12.79,12.79,0,0,0-1.28-.06h-.38a8.79,8.79,0,0,0,2.22,3.76,5.2,5.2,0,0,0-.74,1,11.27,11.27,0,0,1-1.62-3c.06,1.8.08,2.44.08,3.22v6a16.47,16.47,0,0,0,.12,2.33h-1.42a16.87,16.87,0,0,0,.12-2.33v-5.6c0-1,0-1.28.18-3.46a16.28,16.28,0,0,1-2.37,6.24,4,4,0,0,0-.8-1.08,14.54,14.54,0,0,0,2.14-4.36,19.29,19.29,0,0,0,.69-2.64h-.95a8.35,8.35,0,0,0-1.38.08V235a8.35,8.35,0,0,0,1.38.08h1.11Zm13.22,1.24a14.05,14.05,0,0,0,2.06-.12v1.22c-.6-.06-1.32-.1-2-.1h-2a9.07,9.07,0,0,0,4.44,2.34,4.63,4.63,0,0,0-.74,1,12.65,12.65,0,0,1-2.66-1.3V239c0,.44,0,.88,0,1.32-.36,0-.78,0-1.36,0h-4.13c-.58,0-1,0-1.36,0a3.05,3.05,0,0,1,0-.36c0-.16,0-.54,0-1v-1.26a11.36,11.36,0,0,1-2,1.26,4.41,4.41,0,0,0-.74-.88,9.4,9.4,0,0,0,3.69-2.56h-1.48a9.8,9.8,0,0,0-1.73.1v-1.22a11.11,11.11,0,0,0,1.81.12h2.14a7.88,7.88,0,0,0,.7-1.36c-1.52.1-2.76.18-3.87.22a3.44,3.44,0,0,0-.5-1.06c.4,0,.72,0,.9,0a31.44,31.44,0,0,0,8.88-1.14l.84,1a9.46,9.46,0,0,0-1,.22,40,40,0,0,1-4,.6,11.25,11.25,0,0,1-.74,1.48Zm-10,14.87a20.43,20.43,0,0,0,.1-2.25V243c0-.9,0-1.32-.06-1.8a12.77,12.77,0,0,0,1.77.08h7.83a10.53,10.53,0,0,0,1.9-.1,16.31,16.31,0,0,0-.08,1.86v4.87c0,1.06-.36,1.3-1.9,1.3-.6,0-.82,0-1.78,0a4.65,4.65,0,0,0-.29-1.24,16.83,16.83,0,0,0,2.19.16c.5,0,.6-.08.6-.5v-5.29h-9v4.86a14.21,14.21,0,0,0,.1,2.23Zm3-4.71a12.52,12.52,0,0,0-.06-1.36,8.38,8.38,0,0,0,1.32.06h2.88a8.49,8.49,0,0,0,1.31-.06,6.86,6.86,0,0,0-.06,1.34v1a8.58,8.58,0,0,0,0,1.25,9,9,0,0,0-1.17,0h-3.24v1h-1.08a14.15,14.15,0,0,0,.06-1.5Zm1.46-9.16a8.59,8.59,0,0,1-1.28,1.44h5a8.73,8.73,0,0,1-1.51-1.44Zm-1.1,3.8h4.65v-1.44H141.1Zm.68,6.62h3.3v-1.62h-3.3Z"/><path d="M160.13,232.93a9.85,9.85,0,0,0-.14-1.7h1.6a8.45,8.45,0,0,0-.14,1.7v1.22h6.29A13.94,13.94,0,0,0,170,234v1.44a14.36,14.36,0,0,0-2.26-.12H154.38a16,16,0,0,0-2.23.12V234a14.44,14.44,0,0,0,2.25.14h5.73Zm0,4.5a9.55,9.55,0,0,0-.1-1.58h1.5a10.13,10.13,0,0,0-.1,1.6v.64h4.75a17.54,17.54,0,0,0,1.9-.08,12.88,12.88,0,0,0-.08,1.62v5.76c0,1.3-.4,1.65-2,1.65-.83,0-1.17,0-2.09-.08a4.47,4.47,0,0,0-.34-1.35,15.8,15.8,0,0,0,2.35.2c.64,0,.8-.12.8-.56v-6h-5.25v8a14.66,14.66,0,0,0,.14,2.19H160a15.8,15.8,0,0,0,.14-2.19v-8h-4.75v6a15.77,15.77,0,0,0,.12,2.17h-1.58a16.7,16.7,0,0,0,.12-2.17v-5.6A13.85,13.85,0,0,0,154,238a17.46,17.46,0,0,0,1.92.08h4.25Z"/><path d="M173,243.89a20,20,0,0,1,4,4.25l-1.12,1.06a20.06,20.06,0,0,0-3.95-4.37Z"/><path d="M207.7,249.1v-1.22H194.5v1.22h-1.41a19.94,19.94,0,0,0,.12-2.33V234.35c0-.74,0-1.36-.1-2a20.81,20.81,0,0,0,2.31.1H206.8a20.37,20.37,0,0,0,2.28-.1,15,15,0,0,0-.1,2v12.42a19.46,19.46,0,0,0,.12,2.33Zm-13.2-9.75h5.75v-5.74H194.5Zm0,7.36h5.75v-6.22H194.5Zm7-7.36h6.19v-5.74h-6.19Zm0,7.36h6.19v-6.22h-6.19Z"/><path d="M221.24,235.47a12.43,12.43,0,0,0,.78-2.16h-6.67v1.44c0,7.92-.56,11.26-2.35,14.33a4.59,4.59,0,0,0-1-1.06c1.6-2.73,2.07-5.59,2.07-12.75a26.4,26.4,0,0,0-.1-3.2,21,21,0,0,0,2.42.1h11.16a13.76,13.76,0,0,0,2.22-.12v1.36a14.84,14.84,0,0,0-2.18-.1h-4.25a14.31,14.31,0,0,1-.8,2.16h3.63a19.27,19.27,0,0,0,2.16-.08,12.88,12.88,0,0,0-.1,1.94v3.56a12.85,12.85,0,0,0,.1,2c-.62-.06-1.28-.08-2.14-.08h-2.87v4.91c0,1.24-.4,1.46-2.64,1.46a16,16,0,0,1-1.63-.08,5.12,5.12,0,0,0-.32-1.31,13,13,0,0,0,2.49.23c.7,0,.84-.06.84-.44v-4.77h-2.77c-.78,0-1.44,0-2.1.08a20.31,20.31,0,0,0,.08-2.06v-3.36a19.64,19.64,0,0,0-.08-2,20.41,20.41,0,0,0,2.1.08Zm-1.5,8.62a16,16,0,0,1-3.63,4.53,3.36,3.36,0,0,0-1-.89,11.79,11.79,0,0,0,3.44-4.18Zm-1.27-5.6H227v-1.94h-8.54Zm0,3.22H227v-2.16h-8.54Zm7.74,1.84a15,15,0,0,0,3.9,4,4.78,4.78,0,0,0-1,1,18.15,18.15,0,0,1-4-4.43Z"/><path d="M240.25,232.93a9.85,9.85,0,0,0-.14-1.7h1.6a8.45,8.45,0,0,0-.14,1.7v1.22h6.29a13.94,13.94,0,0,0,2.28-.14v1.44a14.36,14.36,0,0,0-2.26-.12H234.5a16,16,0,0,0-2.23.12V234a14.44,14.44,0,0,0,2.25.14h5.73Zm0,4.5a9.55,9.55,0,0,0-.1-1.58h1.5a10.13,10.13,0,0,0-.1,1.6v.64h4.75a17.54,17.54,0,0,0,1.9-.08,12.88,12.88,0,0,0-.08,1.62v5.76c0,1.3-.4,1.65-2,1.65-.83,0-1.17,0-2.09-.08a4.47,4.47,0,0,0-.34-1.35,15.9,15.9,0,0,0,2.35.2c.64,0,.8-.12.8-.56v-6h-5.25v8a14.66,14.66,0,0,0,.14,2.19h-1.58a15.8,15.8,0,0,0,.14-2.19v-8H235.5v6a15.77,15.77,0,0,0,.12,2.17H234a16.7,16.7,0,0,0,.12-2.17v-5.6a13.85,13.85,0,0,0-.08-1.64,17.46,17.46,0,0,0,1.92.08h4.25Z"/></svg>