<svg id="レイヤー_1" data-name="レイヤー 1" xmlns="http://www.w3.org/2000/svg" viewBox="0 0 365.89 101.3"><defs><style>.cls-1{fill:none;stroke:#f53402;stroke-miterlimit:10;stroke-width:0.65px;}.cls-2{fill:#f53402;}</style></defs><rect class="cls-1" x="0.49" y="0.32" width="101.73" height="29.31"/><path class="cls-2" d="M27,9.88A10.39,10.39,0,0,0,26.87,8H28.8a10.08,10.08,0,0,0-.1,1.89v2.17h.41A4.87,4.87,0,0,0,30.27,12v1.76a8.66,8.66,0,0,0-1.17-.07h-.4v4.4c.68-.32.86-.4,1.54-.77l.07,1.7c-1.45.77-2.84,1.47-4,2a5.53,5.53,0,0,0-.77.35l-.48-1.89A11.77,11.77,0,0,0,27,18.79V13.66h-.41a6.68,6.68,0,0,0-1.29.1V12a6.83,6.83,0,0,0,1.27.08H27Zm5.71,6.37a18.1,18.1,0,0,0-2,.06,15.71,15.71,0,0,0,.08-2.07V10.68a16.69,16.69,0,0,0-.1-2.23,18.79,18.79,0,0,0,2.26.09h4.56a15.71,15.71,0,0,0,2.25-.09c-.05.48-.06,1.18-.06,2.28v3.35c0,1.17,0,1.72.06,2.22A16.6,16.6,0,0,0,38,16.25H36v1.44h2a15,15,0,0,0,1.85-.08v1.72c-.56,0-1.16-.08-1.84-.08H36V21h2.56a18.84,18.84,0,0,0,2-.08v1.81a15.4,15.4,0,0,0-2-.1h-7c-.8,0-1.46,0-2,.08V20.91a18.62,18.62,0,0,0,2,.08h2.75V19.25H32.53c-.75,0-1.23,0-1.83.07V17.61a13.83,13.83,0,0,0,1.81.08h1.76V16.25Zm-.23-6.16V11.7h1.82V10.09Zm0,3v1.65h1.82V13.11ZM36,11.7h2V10.09H36Zm0,3.06h2V13.11H36Z"/><path class="cls-2" d="M51.61,20.58a35.1,35.1,0,0,0,2.49-7.95l2.14.62a8.28,8.28,0,0,0-.56,1.59,50.09,50.09,0,0,1-2.13,5.74h3a19.93,19.93,0,0,0,2.1-.1v2a15.06,15.06,0,0,0-2.1-.12H45.72a15.65,15.65,0,0,0-2.15.12v-2a20.55,20.55,0,0,0,2.15.1ZM50,9.27A7,7,0,0,0,49.92,8H52a6.4,6.4,0,0,0-.12,1.28v1.13h4A14.8,14.8,0,0,0,58,10.26v2a17.94,17.94,0,0,0-2.14-.1H46.26a17.43,17.43,0,0,0-2.1.1v-2a14.1,14.1,0,0,0,2.1.12H50ZM47.9,12.78a52.61,52.61,0,0,1,1.89,6.45l-1.86.67a33.77,33.77,0,0,0-1.82-6.49Z"/><path class="cls-2" d="M63.55,10a15.44,15.44,0,0,0-.1-1.91h1.9A12.42,12.42,0,0,0,65.26,10V12.1h.36A5.67,5.67,0,0,0,66.73,12v1.74a7.49,7.49,0,0,0-1.16-.07h-.31v4.51c.64-.3.82-.38,1.57-.76l0,1.76a27.85,27.85,0,0,1-4.1,1.84c-.46.18-.61.25-.86.36l-.35-1.9a9,9,0,0,0,2-.6V13.71h-.38a7.53,7.53,0,0,0-1.3.08V12a6.35,6.35,0,0,0,1.3.08h.38Zm6,10.57c0,.33.12.45.48.51a13.18,13.18,0,0,0,2.26.12c2,0,2.5-.09,2.75-.43a3.83,3.83,0,0,0,.3-2,8.22,8.22,0,0,0,1.81.55c-.2,3.32-.55,3.55-5.28,3.55-3.35,0-4.08-.32-4.08-1.78v-5.7l-.33.1a7.6,7.6,0,0,0-1,.38L66,14a9.41,9.41,0,0,0,1.6-.36l.15,0V11.36a9.81,9.81,0,0,0-.1-1.76h2a12.1,12.1,0,0,0-.1,1.69V13.1l1.61-.52V9.7A12.94,12.94,0,0,0,71,8H73a15.06,15.06,0,0,0-.1,1.69v2.32l2.39-.74a10.06,10.06,0,0,0,1.36-.5c0,.73,0,.84-.08,1.74a30.7,30.7,0,0,1-.37,4.56c-.21.95-.66,1.23-1.87,1.23a6.51,6.51,0,0,1-.78,0,4.8,4.8,0,0,0-.45-1.7,4.75,4.75,0,0,0,.93.13c.41,0,.51-.07.58-.42.08-.54.15-1.57.2-3.18l-1.91.6v4.13a13.21,13.21,0,0,0,.1,1.66H71a13.9,13.9,0,0,0,.08-1.71V14.29l-1.61.52Z"/><rect class="cls-1" x="108.29" y="0.32" width="210.26" height="29.31"/><path class="cls-2" d="M124.28,8.45a3.29,3.29,0,0,0-.13.52c0,.21-.05.3-.1.56s0,.35-.28,1.59c-.07.37-.07.4-.12.62.48,0,.71-.05,1-.05a3.2,3.2,0,0,1,2.45.88,4,4,0,0,1,.78,2.93c0,2.85-.48,5.13-1.27,6a2.1,2.1,0,0,1-1.84.75,8,8,0,0,1-2.56-.49c0-.33,0-.56,0-.73a6.22,6.22,0,0,0-.16-1.4,7,7,0,0,0,2.42.64c.48,0,.75-.31,1-1.13A15,15,0,0,0,126,15.4c0-1.52-.38-2-1.69-2-.34,0-.59,0-1,.05a32.51,32.51,0,0,1-1,3.6,35.65,35.65,0,0,1-2,4.66l-.25.5-.13.28L118,21.46a18.72,18.72,0,0,0,1.72-3.12,28.08,28.08,0,0,0,1.61-4.7,29.4,29.4,0,0,0-3,.54l-.2-2c.62,0,2.62-.2,3.53-.33a26.23,26.23,0,0,0,.44-3.35V8.22Zm5.49,2.13A16,16,0,0,1,133.19,17l-1.89,1A15.19,15.19,0,0,0,130,14.24a10.62,10.62,0,0,0-1.91-2.83Z"/><path class="cls-2" d="M135.69,11.69a13,13,0,0,0,1.94-.33,25.86,25.86,0,0,1,6.6-.95c3.28,0,5.42,1.84,5.42,4.66A5.9,5.9,0,0,1,146,20.38c-1.51.74-2.8,1-5.84,1.37a7,7,0,0,0-.84-2.13,14.36,14.36,0,0,0,5.45-1,4.62,4.62,0,0,0,2.51-2.46,3.8,3.8,0,0,0,.18-1.18,2.44,2.44,0,0,0-1.26-2.15A4.31,4.31,0,0,0,144,12.4a23.51,23.51,0,0,0-6.54,1.18,6.4,6.4,0,0,0-1.32.46Z"/><path class="cls-2" d="M153.08,10.31l.63,0c.3,0,.3,0,2.73-.17.93-.05,3.69-.2,8.28-.41a9.81,9.81,0,0,0,1.91-.17l.11,2.12h-.34a7.46,7.46,0,0,0-3.29.89c-2.1,1.1-3.35,2.76-3.35,4.43a2.78,2.78,0,0,0,2.21,2.7,10,10,0,0,0,2.47.44l.33,0-.3,2.26a3.17,3.17,0,0,0-.56-.1,10.13,10.13,0,0,1-3.88-1.1,4.42,4.42,0,0,1-2.37-4,5.84,5.84,0,0,1,1.57-3.91,7.35,7.35,0,0,1,2.31-1.66c-1.35.2-2,.25-5.59.52a22.25,22.25,0,0,0-2.76.33Z"/><path class="cls-2" d="M170.82,12.05a19.66,19.66,0,0,1,3,2l-1,1.5a17.21,17.21,0,0,0-3-2.21Zm3.1,5.62A26.36,26.36,0,0,1,172,22.14c-.2.36-.23.39-.33.58a2.43,2.43,0,0,0-.17.3l-1.59-1.38a5.34,5.34,0,0,0,.83-1.13,19.52,19.52,0,0,0,1.69-3.9ZM171.73,8a17.56,17.56,0,0,1,2.85,2.12l-1.13,1.45a16.24,16.24,0,0,0-2.83-2.29Zm4.83,2.07a14.48,14.48,0,0,0-1.81.1V8.35a13.94,13.94,0,0,0,1.84.1H183a15.76,15.76,0,0,0,1.58,0,10.52,10.52,0,0,0-.07,1.2c0,1.14-.17,2.73-.28,3.53C184,14.61,183.56,15,181.9,15c-.5,0-1.13,0-1.93-.11a4.94,4.94,0,0,0-.44-1.73,14.52,14.52,0,0,0,2.13.23c.47,0,.68-.11.77-.43a15.43,15.43,0,0,0,.28-2.84h-3.07a6.19,6.19,0,0,1-1.09,3.07A7.08,7.08,0,0,1,176.61,15a9.17,9.17,0,0,1-1.55.78,4.74,4.74,0,0,0-1.17-1.46c2.62-.94,3.69-2.11,3.91-4.2Zm.29,13H175a13.13,13.13,0,0,0,.08-1.74v-4a13.22,13.22,0,0,0-.06-1.58,8.78,8.78,0,0,0,1.32.07h6.61a9.33,9.33,0,0,0,1.39-.07c0,.33-.07,1-.07,1.58v3.94c0,.7,0,.93.09,1.83h-1.88v-.9h-5.61Zm0-2.47h5.62V17.51h-5.62Z"/><path class="cls-2" d="M194.43,11.45c.46-.11.75-.18,1.41-.31,0-.33,0-.33,0-.91a8.66,8.66,0,0,0-.1-2h2.09a20.73,20.73,0,0,0-.08,2.65c.4,0,.63-.05,1-.05,2.34,0,3.88,1.34,3.88,3.38a3.75,3.75,0,0,1-1.34,2.89,4.65,4.65,0,0,1-3.07,1,8.36,8.36,0,0,1-2.57-.46,7.46,7.46,0,0,0-.3-2,6.4,6.4,0,0,0,2.66.64,3.3,3.3,0,0,0,1.87-.55,1.7,1.7,0,0,0,.68-1.41c0-1-.81-1.65-2.21-1.65a16.58,16.58,0,0,0-5,1c1,3.6,1.11,3.92,2.1,8.07a5.57,5.57,0,0,0,.25.79l-2.19.5a61.33,61.33,0,0,0-2-8.82c-.22.09-.25.09-.83.29a19.47,19.47,0,0,0-2.14.85l-.65-1.94a9.35,9.35,0,0,0,1.51-.43c.68-.23.82-.27,1.61-.52a17.09,17.09,0,0,0-1.13-3.08l2.06-.58a11.18,11.18,0,0,0,.58,2c.13.41.2.63.35,1.17Z"/><path class="cls-2" d="M206.5,11.94a17.84,17.84,0,0,1,3,2.15l-1.07,1.54a14,14,0,0,0-3-2.3Zm2.95,5.72a25.74,25.74,0,0,1-2.37,5.39l-1.61-1.43a16.4,16.4,0,0,0,2.47-5ZM209,11.6A15.75,15.75,0,0,0,206,9.23L207.16,8a17.51,17.51,0,0,1,2.7,2V8.5a14.2,14.2,0,0,0,2,.1h7a15.36,15.36,0,0,0,2-.1v1.89a8.7,8.7,0,0,0-1.19-.06V21.26c0,1.32-.58,1.74-2.44,1.74-.33,0-1.26-.05-1.86-.1a5.57,5.57,0,0,0-.46-1.78,14.17,14.17,0,0,0,2.11.17c.74,0,.84-.05.84-.46V10.33h-6c-.74,0-1.39,0-1.9.08Zm6,.4a11.47,11.47,0,0,0,1.3-.05,10.39,10.39,0,0,0-.07,1.38v4.15a10,10,0,0,0,.07,1.37c-.4,0-.68-.05-1.3-.05h-2.62v1.43h-1.77a15.14,15.14,0,0,0,.08-1.69V13.31a11,11,0,0,0-.06-1.36,11.78,11.78,0,0,0,1.31.05Zm-2.62,5.19h2.11v-3.6h-2.11Z"/><path class="cls-2" d="M224.12,11a13.14,13.14,0,0,0,2.22.15h.76a20.34,20.34,0,0,0,.32-2.54,1.85,1.85,0,0,0,0-.3l2.19.2a11.66,11.66,0,0,0-.26,1.29c0,.2-.07.43-.12.73,0,.09-.05.22-.1.52a15.35,15.35,0,0,0,2.84-.5l.08,1.91h-.15l-.38.07a22.36,22.36,0,0,1-2.72.35,54.39,54.39,0,0,1-2.89,9.77l-2.09-.82a35.46,35.46,0,0,0,3-8.89h-1.71c-.23,0-.53,0-.66,0a2,2,0,0,0-.31,0Zm8.23,6.42c-.67.85-.87,1.25-.87,1.84,0,.85.83,1.28,2.49,1.28a12.72,12.72,0,0,0,3.77-.61l.15,2c-.3,0-.39,0-.82.12a18.2,18.2,0,0,1-3.08.28,6.85,6.85,0,0,1-3.34-.66,2.42,2.42,0,0,1-1.17-2,4.75,4.75,0,0,1,1.22-2.89Zm4.92-2.17a17.79,17.79,0,0,0-2.09-.12,17.28,17.28,0,0,0-4.38.5l-.15-1.84a21.15,21.15,0,0,1,4.95-.53c.49,0,.88,0,1.64,0Zm-2.73-6.5a10.91,10.91,0,0,1,1.74,2.44l-1.16.61a11.19,11.19,0,0,0-1.75-2.47Zm2.57,2a11.94,11.94,0,0,0-1.7-2.41l1.12-.58a9.49,9.49,0,0,1,1.72,2.34Z"/><path class="cls-2" d="M241.91,14.29a8.56,8.56,0,0,0,1.72-.31,23.37,23.37,0,0,1,5.13-.7c1.89,0,3.17.55,3.91,1.69a3.73,3.73,0,0,1,.62,2.14c0,2.21-1.56,4-4.2,4.83a16.69,16.69,0,0,1-3.6.63,5.16,5.16,0,0,0-.71-1.89H245a14.5,14.5,0,0,0,2.35-.25,5.81,5.81,0,0,0,2.77-1.13,2.66,2.66,0,0,0,1.18-2.24c0-1.29-1-2-2.72-2a18.34,18.34,0,0,0-4.36.65,11.13,11.13,0,0,0-1.93.56Z"/><path class="cls-2" d="M257.94,10.82a13.14,13.14,0,0,0,2.22.15h.77a20.06,20.06,0,0,0,.31-2.54c0-.07,0-.17,0-.3l2.18.2a10.59,10.59,0,0,0-.31,1.59c-.08.47-.1.57-.17.95a14,14,0,0,0,2.84-.5l.08,1.91-.53.08a22.29,22.29,0,0,1-2.72.35c-.18,1-.6,2.79-1,4.29a55.74,55.74,0,0,1-1.85,5.49l-2.09-.81a35.64,35.64,0,0,0,3-8.92l-.22,0h-1l-.53,0c-.3,0-.53,0-.67,0a2,2,0,0,0-.31,0Zm8.23,6.44a2.71,2.71,0,0,0-.86,1.82c0,.85.83,1.28,2.48,1.28a12.67,12.67,0,0,0,3.77-.61l.15,2c-.3,0-.43.05-.81.11a19.34,19.34,0,0,1-3.09.27,6.78,6.78,0,0,1-3.33-.66,2.39,2.39,0,0,1-1.18-2,4.63,4.63,0,0,1,1.23-2.87Zm4.92-2.17A15.87,15.87,0,0,0,269,15a18.07,18.07,0,0,0-4.37.48l-.15-1.82a21.12,21.12,0,0,1,4.94-.53h1.64Z"/><path class="cls-2" d="M281.55,18.09a9.57,9.57,0,0,1-2,1.41,3.73,3.73,0,0,0-.63-.88,31.09,31.09,0,0,1-3.3,1.74l-.21.13a1,1,0,0,0-.17.09l-.41-1.94a12.32,12.32,0,0,0,1.87-.67V13.58h-.48a7.83,7.83,0,0,0-1.3.08V11.89a8.27,8.27,0,0,0,1.31.08h.47V9.91a12.59,12.59,0,0,0-.1-1.84h1.92a11.51,11.51,0,0,0-.1,1.86v2h.3a7,7,0,0,0,1.18-.07v1.74a8.57,8.57,0,0,0-1.16-.06h-.32v3.56c.45-.23.58-.31,1.12-.61v1.14a6.44,6.44,0,0,0,2-1.67h-.37a12,12,0,0,0-1.54.08V14.42a8.67,8.67,0,0,0,1.56.09h7.25a11.67,11.67,0,0,0,1.72-.1v1.66a15.84,15.84,0,0,0-1.7-.07h-5.08a6.09,6.09,0,0,1-.45.68h5.28c.81,0,1.13,0,1.61-.05a8.59,8.59,0,0,0-.07,1,14.29,14.29,0,0,1-.68,4.51c-.33.76-.86,1-2.32,1-.45,0-.75,0-1.4-.05a4.08,4.08,0,0,0-.44-1.53,12.13,12.13,0,0,1-2.74,1.83,4.58,4.58,0,0,0-1.19-1.26,10.17,10.17,0,0,0,3-1.79,7.73,7.73,0,0,0,1.73-2.21h-1a9.94,9.94,0,0,1-4.59,3.63A4.19,4.19,0,0,0,279,20.46a8.74,8.74,0,0,0,3.85-2.37Zm.5-4.28a11.93,11.93,0,0,0-1.53.07,14.77,14.77,0,0,0,.07-1.61V9.85a12.64,12.64,0,0,0-.07-1.51,12.88,12.88,0,0,0,1.68.08H287a13.63,13.63,0,0,0,1.77-.08,13.08,13.08,0,0,0-.07,1.64v2.29a12.59,12.59,0,0,0,.07,1.59c-.35,0-.85,0-1.51,0Zm.25-3.23H287v-.7H282.3Zm0,1.89H287v-.68H282.3Zm5.06,5.62A9.45,9.45,0,0,1,285,21.34a11.39,11.39,0,0,0,1.7.13c.62,0,.8-.16.95-.88a19,19,0,0,0,.28-2.5Z"/><path class="cls-2" d="M300.17,15.92c0,.73,0,.91,0,1.32l-1.62,0h-2.75a11.62,11.62,0,0,1-1.48,5.91,5.26,5.26,0,0,0-1.48-1.32c1-1.75,1.31-3.45,1.31-7.92a19.89,19.89,0,0,0-.08-2.31c.55,0,1,0,1.76,0h2.69c.76,0,1.16,0,1.67,0,0,.35-.05.85-.05,1.49Zm-6.7-7.37a11.75,11.75,0,0,0,1.79.09h3.58a10.71,10.71,0,0,0,1.81-.09v1.86a10.63,10.63,0,0,0-1.72-.08h-3.77a11.17,11.17,0,0,0-1.69.08Zm5,7.08V13.18h-2.59v1.19c0,.63,0,.78,0,1.26Zm4.55-.94a15.91,15.91,0,0,1-.73,4.53,9.13,9.13,0,0,1-1.45,2.68,11.21,11.21,0,0,1-1.06,1.25,5.29,5.29,0,0,0-1.37-1.38,7.58,7.58,0,0,0,2.35-3.66,23.38,23.38,0,0,0,.53-6.14c0-1.56,0-2.07-.06-2.62A15.64,15.64,0,0,0,307.4,8l1,1.69a7.09,7.09,0,0,0-.77.21,24.56,24.56,0,0,1-4.52,1V13h3.76a8.66,8.66,0,0,0,1.61-.1v1.92a10.15,10.15,0,0,0-1.46-.08h-.25v6.57a10.65,10.65,0,0,0,.1,1.79h-1.95a14.65,14.65,0,0,0,.09-1.81V14.69Z"/><rect class="cls-1" x="0.32" y="36.53" width="136.53" height="29.31"/><path class="cls-2" d="M17.62,49.89a11.41,11.41,0,0,0,7,7.49,6.86,6.86,0,0,0-1.21,1.91,13.49,13.49,0,0,1-4.1-3,12.48,12.48,0,0,1-2.5-4,10.11,10.11,0,0,1-2.7,4.45,12.33,12.33,0,0,1-4,2.6A6.52,6.52,0,0,0,9,57.55a12,12,0,0,0,2.69-1.41,8.44,8.44,0,0,0,3.73-6.25H11.45A13.13,13.13,0,0,0,9.38,50V47.9a13.68,13.68,0,0,0,2.09.11h4.07c0-.83,0-1.09,0-2a10.61,10.61,0,0,0-.11-1.65h2.19a13,13,0,0,0-.12,1.94c0,.68,0,1.06,0,1.67H21.9A14.29,14.29,0,0,0,24,47.9V50a15.27,15.27,0,0,0-2.07-.11Z"/><path class="cls-2" d="M28.23,46.73a13.68,13.68,0,0,0,1.59.07,30.14,30.14,0,0,0,3.42-.18c-.05-.13-.05-.13-.18-.43l-.66-1.51,2.07-.28a9.81,9.81,0,0,0,.68,2,27.93,27.93,0,0,0,4.48-1l.16,1.76-.56.11c-1.11.27-2.95.63-3.47.7.27.61.37.83.65,1.36,1.43-.3,2.19-.47,2.29-.48a8.42,8.42,0,0,0,1.57-.48l.17,1.8c-.32,0-.66.12-1,.22-.68.17-1.22.28-1.62.36l-.61.14a16.38,16.38,0,0,0,2.22,3l-1.46,1a8.91,8.91,0,0,0-3.82-.68,6.34,6.34,0,0,0-2.78.46,1.21,1.21,0,0,0-.72,1,1.12,1.12,0,0,0,.72,1,6.52,6.52,0,0,0,2.37.36A12.94,12.94,0,0,0,38.8,56l.3,2a7.89,7.89,0,0,0-1.08.25,16.06,16.06,0,0,1-4.25.57,7.46,7.46,0,0,1-4-.82,2.66,2.66,0,0,1-1.28-2.27,2.79,2.79,0,0,1,1.39-2.31,7.48,7.48,0,0,1,3.87-.82,11.58,11.58,0,0,1,2.87.34,9.42,9.42,0,0,1-1.28-1.85,47.9,47.9,0,0,1-6.42.44l-.68,0-.07-1.8a10.86,10.86,0,0,0,1.71.06,33.63,33.63,0,0,0,4.7-.31,6.16,6.16,0,0,1-.3-.62c-.17-.34-.22-.44-.35-.74a40.78,40.78,0,0,1-4.45.23c-.69,0-.78,0-1.12,0Z"/><path class="cls-2" d="M50.25,44.51A8,8,0,0,0,50,45.62c-.09.4-.17.73-.35,1.46a13.78,13.78,0,0,0,2.65-.46l.05,1.91a2.39,2.39,0,0,0-.53.08c-.6.1-1.61.21-2.64.3a31.44,31.44,0,0,1-1.82,4.81c-.38.81-.53,1.11-1.16,2.27-.22.4-.22.4-.32.6L44,55.52a14.56,14.56,0,0,0,1.6-2.65A25.53,25.53,0,0,0,47.13,49h-1.7l-.88,0V47.05a11.12,11.12,0,0,0,2.24.15c.19,0,.48,0,.84,0a16.91,16.91,0,0,0,.5-2.88ZM57.77,58a9.85,9.85,0,0,0-2.54-2.06c0,.15,0,.27,0,.33A2.64,2.64,0,0,1,54.55,58a3.83,3.83,0,0,1-2.76.93c-2.19,0-3.61-1.1-3.61-2.79s1.47-2.85,3.58-2.85a7.84,7.84,0,0,1,1.54.15c0-.76-.08-1.41-.08-1.91a8.64,8.64,0,0,1,.13-1.67l1.93.1a5.35,5.35,0,0,0-.2,1.67,16.9,16.9,0,0,0,.15,2.27,10.49,10.49,0,0,1,2.62,1.53,5.1,5.1,0,0,1,.58.45,2.51,2.51,0,0,0,.25.23Zm-5.89-3c-1.08,0-1.78.45-1.78,1.15s.6,1.07,1.63,1.07,1.67-.46,1.67-1.39c0-.17,0-.56,0-.56A4.17,4.17,0,0,0,51.88,54.91Zm6-4.59A20,20,0,0,0,53.07,48l1-1.6a25.42,25.42,0,0,1,4.67,2.22Z"/><path class="cls-2" d="M62.68,48.14a17.59,17.59,0,0,1,3,2.16l-1.08,1.54a13.64,13.64,0,0,0-3-2.3Zm3,5.73a25.68,25.68,0,0,1-2.38,5.39l-1.6-1.43a16.72,16.72,0,0,0,2.47-5Zm-.5-6.06a15.5,15.5,0,0,0-2.94-2.37l1.15-1.28a19.51,19.51,0,0,1,2.7,2V44.71a14.2,14.2,0,0,0,2,.1h7a15.53,15.53,0,0,0,2-.1V46.6a10.52,10.52,0,0,0-1.19-.07V57.47c0,1.32-.58,1.74-2.44,1.74-.33,0-1.26-.05-1.86-.1A5.5,5.5,0,0,0,71,57.33a14.16,14.16,0,0,0,2.1.17c.75,0,.85,0,.85-.47V46.53H68c-.74,0-1.39,0-1.91.09Zm6,.4c.62,0,.9,0,1.3-.05a10.29,10.29,0,0,0-.07,1.38v4.14a10.09,10.09,0,0,0,.07,1.38c-.4,0-.68-.05-1.3-.05H68.52v1.43H66.75a15.14,15.14,0,0,0,.08-1.69V49.52a10.77,10.77,0,0,0-.07-1.36c.4,0,.72.05,1.31.05ZM68.52,53.4h2.11V49.8H68.52Z"/><path class="cls-2" d="M86.83,54.18c-1,2.14-2,3.12-3.37,3.12-1.89,0-3.25-1.92-3.25-4.59A7.1,7.1,0,0,1,82,47.88a7.44,7.44,0,0,1,5.71-2.32c4,0,6.57,2.42,6.57,6.15a6.41,6.41,0,0,1-4,6.19,11.12,11.12,0,0,1-2.61.69,5.29,5.29,0,0,0-1-1.94,8.77,8.77,0,0,0,3.3-.91,4.66,4.66,0,0,0,2.31-4.15,4.13,4.13,0,0,0-2-3.68,3.69,3.69,0,0,0-1.68-.5A23.74,23.74,0,0,1,86.83,54.18Zm-2.44-5.94a5.56,5.56,0,0,0-2.26,4.48c0,1.36.58,2.44,1.31,2.44.55,0,1.11-.7,1.71-2.12a22.06,22.06,0,0,0,1.38-5.61A4.21,4.21,0,0,0,84.39,48.24Z"/><path class="cls-2" d="M97.68,50.47a8.38,8.38,0,0,0,1.33.08h1.46a8.26,8.26,0,0,0,1.26-.08,16.85,16.85,0,0,0-.07,1.82v3.33A3.11,3.11,0,0,0,103,56.84c.67.38,1.6.49,4.1.49a50.67,50.67,0,0,0,6.14-.3,7.43,7.43,0,0,0-.5,1.93c-1.29.06-4.38.13-5.61.13-3.75,0-4.94-.36-6.28-1.89a19.52,19.52,0,0,1-2.26,1.87,1.2,1.2,0,0,0-.31.24l-.82-1.94a1.51,1.51,0,0,1,.27-.12,11.85,11.85,0,0,0,2.24-1.59V52.27H98.83a6.37,6.37,0,0,0-1.15.09Zm1.56-6.06a19.64,19.64,0,0,1,2.89,3l-1.38,1.32a17.1,17.1,0,0,0-2.85-3.13Zm6.22,6.11c-.13,2.91-.61,4.51-1.82,6.15a8.64,8.64,0,0,0-1.43-1.34c1.19-1.48,1.56-3.22,1.56-7.45,0-1.21,0-1.89-.08-2.39l.51,0a25.88,25.88,0,0,0,5.36-.85,5.73,5.73,0,0,0,1.36-.53l1.36,1.58a27.74,27.74,0,0,1-6.77,1.36v1.74H111a11.73,11.73,0,0,0,1.71-.09V50.6c-.52-.05-1-.08-1.64-.08h-1V55a11.92,11.92,0,0,0,.1,1.78h-2a11,11,0,0,0,.1-1.78V50.52Z"/><path class="cls-2" d="M125.77,45.74a25.48,25.48,0,0,0-2,1.82c-.84.78-2,1.71-4,3.19-.51.38-.63.51-.63.69s0,.29,1.5,1.38a55.83,55.83,0,0,1,5.22,4.33,4,4,0,0,0,.48.41l-1.71,1.73A15.3,15.3,0,0,0,122.49,57a54.51,54.51,0,0,0-4.28-3.54c-1.1-.84-1.39-1.29-1.39-2a2,2,0,0,1,.54-1.35,12.22,12.22,0,0,1,1.46-1.19,38.22,38.22,0,0,0,3.83-3.23,8.25,8.25,0,0,0,1.21-1.38Z"/><rect class="cls-1" x="0.46" y="71.66" width="238.43" height="29.31"/><path class="cls-2" d="M5.64,85.58A7,7,0,0,0,7,85.66H8.13a8.73,8.73,0,0,0,1.26-.06,11.17,11.17,0,0,0-.07,1.79V91a2.33,2.33,0,0,0,.75.88,2.88,2.88,0,0,0,1.09.5,12.78,12.78,0,0,0,2.66.23,56.23,56.23,0,0,0,7.36-.33,6.4,6.4,0,0,0-.5,1.89c-1.57.07-3.93.1-6.23.1-2.51,0-3.52-.13-4.43-.56a4,4,0,0,1-1.54-1.3,28.22,28.22,0,0,1-2.36,2l-.81-1.89A8.67,8.67,0,0,0,7.6,90.86V87.29H6.77a6.83,6.83,0,0,0-1.13.08Zm1.43-6.15a18.74,18.74,0,0,1,2.82,3L8.51,83.81a16.11,16.11,0,0,0-2.79-3.15ZM19.44,84.6a5.33,5.33,0,0,0,1-.06A11.2,11.2,0,0,0,20.42,86v4.71c0,.59-.15.93-.55,1.12a3.7,3.7,0,0,1-1.71.22H17.09a6.56,6.56,0,0,0-.4-1.54,12.71,12.71,0,0,0,1.42.11c.48,0,.62-.06.62-.26V86.06H12.11v4.36a10.44,10.44,0,0,0,.07,1.46H10.35a10.73,10.73,0,0,0,.07-1.46V85.86a10.52,10.52,0,0,0-.07-1.32,5.93,5.93,0,0,0,1.11.06V81.19a12.93,12.93,0,0,0-.06-1.51,14.45,14.45,0,0,0,1.59.06h4.84a11.88,11.88,0,0,0,1.59-.06,11,11,0,0,0-.06,1.51V84.6Zm-1.67,4.66a4.56,4.56,0,0,0,.05.95c-.47,0-.67,0-1,0H14.48v.55H13a8.8,8.8,0,0,0,0-.95V87.6c0-.34,0-.56,0-1a6.36,6.36,0,0,0,1,.05H16.8a4.7,4.7,0,0,0,1-.05,5.74,5.74,0,0,0-.05.94Zm-3.39-6A8.82,8.82,0,0,0,14.33,82c.33,0,.81,0,1.33,0h2v-.81H13.14V84.6h1.24Zm.1,5.59h1.79V88H14.48Zm3.2-4.28V83.36H16V84.6Z"/><path class="cls-2" d="M30.46,80.77a8.13,8.13,0,0,0-.1-1.48h2.13a6.55,6.55,0,0,0-.12,1.48v.93h3.57a12.5,12.5,0,0,0,1.84-.1v1.92a16,16,0,0,0-1.84-.09H32.37v2.42H37a16.05,16.05,0,0,0,2-.1v1.94a16.57,16.57,0,0,0-2-.1H31.47A24.84,24.84,0,0,1,29,92c2.21-.19,4.1-.4,5.77-.68A19.1,19.1,0,0,0,33,89.08l1.59-.88a37.86,37.86,0,0,1,4,5.08L36.8,94.47c-.5-.86-.65-1.13-.95-1.59A78.31,78.31,0,0,1,26.53,94a10.12,10.12,0,0,0-1.34.15l-.42-2.07h.65c.28,0,.46,0,1.38,0a26.71,26.71,0,0,0,2.53-4.49H26.05a16.69,16.69,0,0,0-2,.1V85.75a15.94,15.94,0,0,0,2,.1h4.41V83.43h-3.3a16.14,16.14,0,0,0-1.84.09V81.6a12.68,12.68,0,0,0,1.84.1h3.3Z"/><path class="cls-2" d="M43.49,93.69a6.44,6.44,0,0,0-.08-.78A28.35,28.35,0,0,1,43,88a31.83,31.83,0,0,1,.68-6.48,12.8,12.8,0,0,0,.25-1.54l2.19.23a22.9,22.9,0,0,0-1.05,5,29.25,29.25,0,0,0-.25,3.66c0,.37,0,.5,0,.91a15.87,15.87,0,0,1,.86-2.18L47,88.1a13.72,13.72,0,0,0-1.48,5,4.43,4.43,0,0,0,0,.45Zm7.07-6.55a3.76,3.76,0,0,0-1.18,2.39c0,.94.91,1.44,2.64,1.44A11.54,11.54,0,0,0,56,90.34l.17,2.11a4.08,4.08,0,0,0-.68.1,21.05,21.05,0,0,1-3.43.31c-2.06,0-3.39-.46-4.12-1.44a2.83,2.83,0,0,1-.49-1.63,5.38,5.38,0,0,1,1.52-3.41Zm-2.74-5.49a11.92,11.92,0,0,0,3.07.27,18.17,18.17,0,0,0,4.51-.45l.1,2-1.18.15a28.21,28.21,0,0,1-3.55.2,19.91,19.91,0,0,1-3-.18Z"/><path class="cls-2" d="M60.32,83.46a15.44,15.44,0,0,1,2.64,2l-1.1,1.48a11.76,11.76,0,0,0-2.65-2.12Zm2.44,5.84a20.78,20.78,0,0,1-2,5.07l-1.47-1.26a12.39,12.39,0,0,0,2-4.84Zm-2-9.94a11.39,11.39,0,0,1,2.51,2.11l-1.18,1.34a10.59,10.59,0,0,0-2.52-2.22Zm13.39,5.38a11.57,11.57,0,0,0-.4,1.21,14.24,14.24,0,0,1-2.45,4.91,9.87,9.87,0,0,0,3.78,1.77,5.9,5.9,0,0,0-.83,1.82,12.38,12.38,0,0,1-4.11-2.3A14,14,0,0,1,67,94.49,4.44,4.44,0,0,0,65.91,93a11.28,11.28,0,0,0,3-2,15.31,15.31,0,0,1-1.59-2.11c-.18.23-.32.38-.62.71a3.4,3.4,0,0,0-1-1.24v4.34a13.83,13.83,0,0,0,.09,1.88H63.9A14.07,14.07,0,0,0,64,92.6V89.88c0-.6,0-.83,0-1.56a5.4,5.4,0,0,1-1,1.26,4.66,4.66,0,0,0-1-1.74,10.36,10.36,0,0,0,2.55-3.44,7.92,7.92,0,0,0,.75-1.79l1.76.6c-.18.4-.2.41-.32.68a18.84,18.84,0,0,1-1.16,2.17v2.09a13,13,0,0,0,2.49-3.93,7.44,7.44,0,0,0,.45-1.57l1.76.39-.15.4c0,.12-.1.23-.17.43h2.06a6.77,6.77,0,0,0,1.16-.06Zm-6.44-4.5a4.24,4.24,0,0,0-.08-1h2a4.18,4.18,0,0,0-.09,1v.62H73a15.65,15.65,0,0,0,1.69-.1v1.79A13.51,13.51,0,0,0,73,82.45H65.08c-.6,0-1.13,0-1.66.08V80.74a12.11,12.11,0,0,0,1.73.1h2.58Zm1.71,5.18a14.82,14.82,0,0,1-1.13,2A13.45,13.45,0,0,0,70,89.74a10.85,10.85,0,0,0,2.12-4.32Zm.91,3A7.63,7.63,0,0,0,68.88,87L69.81,86a7.82,7.82,0,0,1,1.49,1.31Z"/><path class="cls-2" d="M80.56,80.9a8.78,8.78,0,0,0-.1-1.62h2a10.68,10.68,0,0,0-.09,1.62v12a10.74,10.74,0,0,0,.09,1.63h-2a13.84,13.84,0,0,0,.1-1.84V89.11c-.58.42-1.32.92-1.94,1.28l-.41.3-.78-1.91a14.21,14.21,0,0,0,3.13-1.69Zm-1.42.48A17.24,17.24,0,0,1,80.45,85l-1.56.76a14.49,14.49,0,0,0-1.26-3.63Zm9.48,3.89A16.31,16.31,0,0,0,90,89.21a9.21,9.21,0,0,0,1.76,2.44,14.23,14.23,0,0,0,1.37,1.13,6,6,0,0,0-1.21,1.72,10,10,0,0,1-3-3.46,12.51,12.51,0,0,1-1.23-3.12A12.82,12.82,0,0,1,86.53,91a9.87,9.87,0,0,1-2.85,3.45,4.73,4.73,0,0,0-1.21-1.59,8.72,8.72,0,0,0,2.94-3.52,13.17,13.17,0,0,0,1.07-4.06H84.66a12.83,12.83,0,0,0-1.77.1V83.52a12.17,12.17,0,0,0,1.77.1h1.92c0-1.67.07-2.63.07-2.88a7.5,7.5,0,0,0-.1-1.41h2c0,.1,0,.43-.08,1,0,.36,0,.36,0,.89s0,1.08,0,2l0,.41h2.76a11.78,11.78,0,0,0,1.75-.1v1.85a12.28,12.28,0,0,0-1.74-.1Zm2.24-1.89a10.61,10.61,0,0,0-1.94-2.87l1.33-.9a15.07,15.07,0,0,1,2,2.84Z"/><path class="cls-2" d="M98.35,87.85c0-.58,0-.74,0-1.85a18.8,18.8,0,0,1-1.71,2.15,8.23,8.23,0,0,0-.88-2,14.25,14.25,0,0,0,2.32-3,12.77,12.77,0,0,0,1.68-4.11l1.94.56c-.15.33-.22.52-.37.92-.38,1.06-.45,1.21-1.19,2.88V92.4c0,.68,0,1.42.1,2.12h-2a18.63,18.63,0,0,0,.11-2.15Zm6.57,4c0,.45.3.55,1.63.55,1.49,0,2.09-.1,2.3-.37s.38-1,.47-3a8.08,8.08,0,0,0,1.79.64c-.14,2.06-.37,3.16-.77,3.65s-1.42.82-4.11.82-3.18-.29-3.18-1.79V81.38a17.06,17.06,0,0,0-.1-2H105a14.79,14.79,0,0,0-.1,2v3.7a14.32,14.32,0,0,0,4.53-3.56L110.89,83l-.36.3a25.68,25.68,0,0,1-5.61,3.88Z"/><path class="cls-2" d="M121,89.31c-1,2.14-2,3.12-3.37,3.12-1.89,0-3.25-1.92-3.25-4.59A7.11,7.11,0,0,1,116.23,83a7.42,7.42,0,0,1,5.7-2.32c4,0,6.57,2.42,6.57,6.15a6.39,6.39,0,0,1-4,6.19,11,11,0,0,1-2.61.7,5.33,5.33,0,0,0-1-2,8.59,8.59,0,0,0,3.3-.91,4.62,4.62,0,0,0,2.31-4.14,4.11,4.11,0,0,0-2-3.69,3.57,3.57,0,0,0-1.68-.49A23.75,23.75,0,0,1,121,89.31Zm-2.44-5.93a5.55,5.55,0,0,0-2.26,4.47c0,1.36.59,2.44,1.32,2.44.54,0,1.11-.69,1.7-2.12a21.85,21.85,0,0,0,1.38-5.61A4.16,4.16,0,0,0,118.58,83.38Z"/><path class="cls-2" d="M135.26,86.13h-1.54a13.28,13.28,0,0,0-1.8.08V84.44a13.13,13.13,0,0,0,1.81.1h1.33V82.88h-1a10.73,10.73,0,0,0-1.66.08V81.25a10.17,10.17,0,0,0,1.64.09h1v-.49a8.28,8.28,0,0,0-.1-1.51h1.92a9.61,9.61,0,0,0-.08,1.51v.49h.86a8.78,8.78,0,0,0,1.58-.09V83a10.35,10.35,0,0,0-1.58-.08h-.86v1.66h1a11,11,0,0,0,1.67-.1v1.77a11.46,11.46,0,0,0-1.61-.08H137V88h1a9.3,9.3,0,0,0,1.42-.08v1.77a7,7,0,0,0-1.42-.1h-1V92a11.24,11.24,0,0,0,4,.47,38.94,38.94,0,0,0,6.4-.33,6.54,6.54,0,0,0-.5,1.95l-1.69.07-3.63,0a24.43,24.43,0,0,1-4-.27,5.32,5.32,0,0,1-3.7-2.47,12.27,12.27,0,0,1-1.08,3,4.75,4.75,0,0,0-1.44-1.21,11.49,11.49,0,0,0,1.42-5.87c0-.29,0-.35,0-.52l1.69.3c0,.32,0,.32-.15,1.53,0,.25-.05.53-.1.94a4.92,4.92,0,0,0,1,1.31Zm6.55,3.08a.7.7,0,0,0,.08.43,1.73,1.73,0,0,0,.9.17,7.59,7.59,0,0,0,2-.17c.49-.18.53-.29.54-2.32a8.22,8.22,0,0,0,1.69.62,6.1,6.1,0,0,1-.46,2.8,1.35,1.35,0,0,1-1,.6,15.53,15.53,0,0,1-2.57.18c-1.49,0-2.24-.13-2.59-.43s-.33-.58-.33-1.43v-3.5c0-.81,0-1.33-.06-1.86a13.26,13.26,0,0,0,1.65.07h2.69V81.78h-2.8a11,11,0,0,0-1.66.09v-1.8a12.38,12.38,0,0,0,1.79.1h2.75a10.91,10.91,0,0,0,1.75-.08,12.23,12.23,0,0,0-.07,1.61v2.57a10.19,10.19,0,0,0,.07,1.74c-.47,0-.85-.05-1.85-.05h-2.5Z"/><path class="cls-2" d="M154.47,87.49c-1,.86-1.5,1.56-1.5,2.27,0,1.08,1.21,1.54,4,1.54a18,18,0,0,0,5.21-.69l.18,2.27c-.28,0-.38,0-.73.07a28.52,28.52,0,0,1-4.48.36,11.65,11.65,0,0,1-4.14-.55A2.84,2.84,0,0,1,150.89,90c0-1.26.65-2.35,2.14-3.6ZM152,80.67a21.69,21.69,0,0,0,5,.42,20.67,20.67,0,0,0,4.38-.32l.06,1.86A31.17,31.17,0,0,0,157,85.38l-1.45-1.14c.87-.55,1.68-1,2.44-1.48a17.64,17.64,0,0,1-2.49.13,27.53,27.53,0,0,1-3-.19,3.91,3.91,0,0,0-.62,0Z"/><path class="cls-2" d="M166.76,85.63a8.56,8.56,0,0,0,1.72-.31,23.37,23.37,0,0,1,5.13-.7c1.89,0,3.17.55,3.91,1.69a3.73,3.73,0,0,1,.62,2.14c0,2.21-1.56,4-4.2,4.83a16.69,16.69,0,0,1-3.6.63,5.35,5.35,0,0,0-.71-1.89h.25a14.5,14.5,0,0,0,2.35-.25A5.86,5.86,0,0,0,175,90.64a2.66,2.66,0,0,0,1.18-2.24c0-1.29-1-2-2.72-2a18.27,18.27,0,0,0-4.36.65,11.13,11.13,0,0,0-1.93.56Z"/><path class="cls-2" d="M182.79,82.16a13.14,13.14,0,0,0,2.22.15h.77a22.1,22.1,0,0,0,.31-2.54,1.85,1.85,0,0,0,0-.3l2.19.2a10.59,10.59,0,0,0-.31,1.59c-.08.47-.1.57-.17,1a14,14,0,0,0,2.84-.5l.08,1.91-.53.08a22.29,22.29,0,0,1-2.72.35c-.18,1-.6,2.79-1,4.29a53.79,53.79,0,0,1-1.86,5.49L182.48,93a35.24,35.24,0,0,0,3-8.92l-.21,0h-1l-.53,0c-.3,0-.54,0-.67,0a2,2,0,0,0-.31,0ZM191,88.6c-.67.83-.87,1.24-.87,1.82,0,.85.83,1.28,2.49,1.28a12.67,12.67,0,0,0,3.77-.61l.15,2c-.3,0-.43.05-.82.11a19.14,19.14,0,0,1-3.08.27,6.78,6.78,0,0,1-3.33-.66,2.39,2.39,0,0,1-1.18-2,4.66,4.66,0,0,1,1.22-2.87Zm4.92-2.17a15.87,15.87,0,0,0-2.09-.12,18.21,18.21,0,0,0-4.38.48L189.33,85a21.12,21.12,0,0,1,4.94-.53h1.64Z"/><path class="cls-2" d="M206.23,81.27a14.71,14.71,0,0,0-.11-1.94h2.16a12.69,12.69,0,0,0-.12,1.94v3h3.3a17.82,17.82,0,0,0,2.14-.1v1.94c-.65-.06-1.26-.1-2.14-.1h-3.3v6h4.34c.95,0,1.73,0,2.33-.1v2a19.34,19.34,0,0,0-2.33-.12H202.22a19.82,19.82,0,0,0-2.37.12v-2c.61.06,1.38.1,2.37.1h4V86h-3a21.44,21.44,0,0,0-2.15.1V84.17a18.12,18.12,0,0,0,2.15.1h3Z"/><path class="cls-2" d="M219.76,81.3a13.68,13.68,0,0,0-.1-1.91h1.91a12.18,12.18,0,0,0-.1,1.93v2.12h.36a5.79,5.79,0,0,0,1.12-.06v1.74a7.49,7.49,0,0,0-1.16-.07h-.32v4.51c.65-.3.83-.38,1.58-.76l0,1.76A28.33,28.33,0,0,1,219,92.4c-.47.18-.61.25-.86.36l-.35-1.9a8.84,8.84,0,0,0,2-.6V85.05h-.38a7.33,7.33,0,0,0-1.29.08V83.36a6.18,6.18,0,0,0,1.29.08h.38Zm6,10.57c0,.33.11.45.48.51a13,13,0,0,0,2.25.12c2,0,2.51-.09,2.76-.43a3.87,3.87,0,0,0,.29-2,9.19,9.19,0,0,0,1.81.55c-.2,3.32-.54,3.55-5.27,3.55-3.35,0-4.08-.32-4.08-1.78v-5.7l-.33.1a8.41,8.41,0,0,0-1,.38l-.41-1.81a9.51,9.51,0,0,0,1.61-.36l.15,0V82.7a10.84,10.84,0,0,0-.1-1.76h2a12.1,12.1,0,0,0-.1,1.69v1.81l1.61-.52V81a11.17,11.17,0,0,0-.09-1.66h1.93a13,13,0,0,0-.1,1.69v2.32l2.38-.74a10.26,10.26,0,0,0,1.37-.5c0,.73,0,.84-.09,1.74a31.21,31.21,0,0,1-.36,4.56c-.22,1-.67,1.23-1.88,1.23a6.68,6.68,0,0,1-.78,0,5,5,0,0,0-.44-1.7,4.77,4.77,0,0,0,.92.13c.42,0,.52-.07.59-.42.08-.54.14-1.57.19-3.18l-1.9.6V89.2a11.55,11.55,0,0,0,.1,1.66h-1.93a12,12,0,0,0,.09-1.71V85.63l-1.61.52Z"/><rect class="cls-1" x="143.18" y="36.53" width="222.39" height="29.31"/><path class="cls-2" d="M163.56,52.57a7.44,7.44,0,0,0-.35.73,15.29,15.29,0,0,1-.94,1.69c-1.24,1.91-3.15,3.29-6.25,4.52a5.44,5.44,0,0,0-.8-1.46c0,.18,0,.23,0,.46h-1.61v-1h-1.37v1.56h-1.71a11.73,11.73,0,0,0,.1-1.71V54c0-.49,0-.62,0-1.31a6.13,6.13,0,0,1-1,1.47,7.59,7.59,0,0,0-.6-2.07,10.58,10.58,0,0,0,1.94-3.4,9.59,9.59,0,0,0,.61-2.44H151a9.64,9.64,0,0,0-1.42.08V44.56a10.13,10.13,0,0,0,1.61.1h3.1a8.93,8.93,0,0,0,1.61-.1v1.78a11.89,11.89,0,0,0-1.45-.07h-1a16.83,16.83,0,0,1-1,3.65h1.88a8.5,8.5,0,0,0,1-.05,8.79,8.79,0,0,0-.05,1.21v.28a12.39,12.39,0,0,0,1.33-5.21l1.63.4a21.2,21.2,0,0,1-.62,3.67,13,13,0,0,1-1.14,3.08,8.54,8.54,0,0,0-1.2-1.16v5.62a11.24,11.24,0,0,0,3.15-1.41,7.78,7.78,0,0,0,3.54-4.62Zm-11.31,3.5h1.41V51.51h-1.41Zm8.48-3.2c0,1.05-.57,1.46-2,1.46-.3,0-.57,0-1.16,0a6.67,6.67,0,0,0-.39-1.68,9.17,9.17,0,0,0,1.4.13c.35,0,.44-.09.44-.46V45.64a9.1,9.1,0,0,0-.09-1.56h1.92a10.64,10.64,0,0,0-.08,1.59Zm2.2-6.83a12.63,12.63,0,0,0,2,4.82,10,10,0,0,0-1.33,1.38,17.28,17.28,0,0,1-2.2-5.77Z"/><path class="cls-2" d="M180.69,56.82a12.68,12.68,0,0,0,1.81-.1v2a13.36,13.36,0,0,0-1.81-.1H169.44a13.83,13.83,0,0,0-1.82.1v-2a13.13,13.13,0,0,0,1.82.1h.72V47.41a15.08,15.08,0,0,0-.07-1.65h.15c.43,0,1.21,0,2.55-.19,3.19-.3,5.83-.89,7-1.57l1.36,1.72-.76.2a2,2,0,0,1-.24.08,39,39,0,0,1-8.07,1.36v2.28h8.29a11.11,11.11,0,0,0,1.69-.09v2a10.36,10.36,0,0,0-1.69-.1h-1.59v5.38Zm-3.83-5.38h-4.81v5.38h4.81Z"/><path class="cls-2" d="M191,44.41A28.14,28.14,0,0,0,192,49.6c1.08-.39,1.08-.39,4.3-1.46a5.57,5.57,0,0,0,.63-.24l.71,2.08a42.08,42.08,0,0,0-5.47,1.6c-2.42.89-3.63,2-3.63,3.15s1.12,1.72,3.79,1.72a18.17,18.17,0,0,0,5.36-.68l.18,2.28a9.86,9.86,0,0,0-1.34.11,35.69,35.69,0,0,1-3.88.25,9.28,9.28,0,0,1-4.81-.91,3.15,3.15,0,0,1-1.44-2.77,3.92,3.92,0,0,1,1.47-3,10.31,10.31,0,0,1,2.26-1.43,39.68,39.68,0,0,1-1.11-4.49,6.39,6.39,0,0,0-.27-1.08Z"/><path class="cls-2" d="M216,52.57a7.44,7.44,0,0,0-.35.73,15.29,15.29,0,0,1-.94,1.69c-1.24,1.91-3.15,3.29-6.25,4.52a5.44,5.44,0,0,0-.8-1.46c0,.18,0,.23,0,.46h-1.61v-1h-1.37v1.56H203a11.73,11.73,0,0,0,.1-1.71V54c0-.49,0-.62,0-1.31a6.13,6.13,0,0,1-1,1.47,7.59,7.59,0,0,0-.6-2.07,10.58,10.58,0,0,0,1.94-3.4,9.59,9.59,0,0,0,.61-2.44h-.68a9.64,9.64,0,0,0-1.42.08V44.56a10.13,10.13,0,0,0,1.61.1h3.1a8.93,8.93,0,0,0,1.61-.1v1.78a11.89,11.89,0,0,0-1.45-.07h-1a16.83,16.83,0,0,1-1,3.65h1.88a8.5,8.5,0,0,0,1-.05,8.79,8.79,0,0,0-.05,1.21v.28A12.39,12.39,0,0,0,209,46.15l1.63.4a21.2,21.2,0,0,1-.62,3.67,13,13,0,0,1-1.14,3.08,8.54,8.54,0,0,0-1.2-1.16v5.62a11.24,11.24,0,0,0,3.15-1.41,7.78,7.78,0,0,0,3.54-4.62Zm-11.31,3.5h1.41V51.51h-1.41Zm8.48-3.2c0,1.05-.57,1.46-2,1.46-.3,0-.57,0-1.16,0a6.67,6.67,0,0,0-.39-1.68,9.17,9.17,0,0,0,1.4.13c.35,0,.45-.09.45-.46V45.64a9,9,0,0,0-.1-1.56h1.92a10.64,10.64,0,0,0-.08,1.59Zm2.2-6.83a12.63,12.63,0,0,0,2,4.82,10,10,0,0,0-1.33,1.38,17.28,17.28,0,0,1-2.2-5.77Z"/><path class="cls-2" d="M233.13,56.82a12.68,12.68,0,0,0,1.81-.1v2a13.36,13.36,0,0,0-1.81-.1H221.88a13.83,13.83,0,0,0-1.82.1v-2a13.13,13.13,0,0,0,1.82.1h.72V47.41a15.08,15.08,0,0,0-.07-1.65h.15c.43,0,1.21,0,2.55-.19,3.19-.3,5.83-.89,7-1.57l1.36,1.72c-.41.12-.41.12-.76.2a2,2,0,0,1-.24.08,39,39,0,0,1-8.07,1.36v2.28h8.29a11.11,11.11,0,0,0,1.69-.09v2a10.36,10.36,0,0,0-1.69-.1h-1.59v5.38Zm-3.83-5.38h-4.81v5.38h4.81Z"/><path class="cls-2" d="M245.1,54.18c-.95,2.14-2,3.12-3.37,3.12-1.89,0-3.25-1.92-3.25-4.59a7.1,7.1,0,0,1,1.82-4.83A7.44,7.44,0,0,1,246,45.56c4,0,6.57,2.42,6.57,6.15a6.41,6.41,0,0,1-4,6.19,11.12,11.12,0,0,1-2.61.69,5.29,5.29,0,0,0-1-1.94,8.77,8.77,0,0,0,3.3-.91,4.66,4.66,0,0,0,2.31-4.15,4.13,4.13,0,0,0-2-3.68,3.69,3.69,0,0,0-1.68-.5A23.74,23.74,0,0,1,245.1,54.18Zm-2.44-5.94a5.56,5.56,0,0,0-2.26,4.48c0,1.36.58,2.44,1.31,2.44.55,0,1.11-.7,1.71-2.12a22.06,22.06,0,0,0,1.38-5.61A4.21,4.21,0,0,0,242.66,48.24Z"/><path class="cls-2" d="M258.26,57.32a13.89,13.89,0,0,0,.1,2h-1.94a16,16,0,0,0,.1-2.06V46.47a18.2,18.2,0,0,0-.07-1.86,14.85,14.85,0,0,0,1.71.07h2.93a13.88,13.88,0,0,0,1.7-.07c0,.53-.05.9-.05,1.54v2.54a13.75,13.75,0,0,0,.05,1.51c-.44,0-1-.05-1.53-.05h-3Zm0-10.47h2.85V46h-2.85Zm0,2h2.85V48h-2.85ZM266.77,56c0,.63,0,1,.05,1.44.36,0,1,.08,1.26.08.46,0,.61-.11.61-.45V50.15h-3.27c-.58,0-1.11,0-1.52.05,0-.48.05-.8.05-1.51V46.15c0-.56,0-1-.05-1.54a13.91,13.91,0,0,0,1.69.07h3.18a14.62,14.62,0,0,0,1.71-.07c-.05.6-.06,1-.06,1.84V57.32c0,1-.2,1.42-.8,1.67a5,5,0,0,1-1.87.2c-.24,0-.3,0-1.15,0a6.31,6.31,0,0,0-.43-1.71h-4.45v.92H260a12.37,12.37,0,0,0,.11-1.65v-4c0-.58,0-1-.05-1.49a13.68,13.68,0,0,0,1.55.06h3.69a13.58,13.58,0,0,0,1.55-.06c0,.43-.05.84-.05,1.49Zm-5-2.41h3.39v-1h-3.39Zm0,2.42h3.39V54.94h-3.39Zm3.87-9.17h3.1V46h-3.1Zm0,2h3.1V48h-3.1Z"/><path class="cls-2" d="M275.43,58.56a6.44,6.44,0,0,0-.08-.78,29.44,29.44,0,0,1-.43-5,31.83,31.83,0,0,1,.68-6.48,10.83,10.83,0,0,0,.25-1.55L278,45A22.79,22.79,0,0,0,277,50a29.55,29.55,0,0,0-.25,3.67c0,.37,0,.5,0,.91a18,18,0,0,1,.86-2.19l1.33.6a13.66,13.66,0,0,0-1.48,5,4.16,4.16,0,0,0,0,.44ZM282.5,52a3.74,3.74,0,0,0-1.18,2.39c0,.94.91,1.44,2.64,1.44a11.64,11.64,0,0,0,4-.63l.16,2.11a4.08,4.08,0,0,0-.68.1,21,21,0,0,1-3.43.31c-2.06,0-3.38-.46-4.11-1.44a2.77,2.77,0,0,1-.5-1.63,5.42,5.42,0,0,1,1.52-3.41Zm-2.74-5.49a12,12,0,0,0,3.07.26,18.74,18.74,0,0,0,4.51-.44l.1,2-1.18.15a28.16,28.16,0,0,1-3.54.2,20,20,0,0,1-3-.18Z"/><path class="cls-2" d="M302.48,48.84a2.76,2.76,0,0,0-.2.48c-.17.47-.18.48-.23.63a4.54,4.54,0,0,1,1.72.81,3.72,3.72,0,0,1,1.58,3.14,4.52,4.52,0,0,1-2.85,4.15,9.31,9.31,0,0,1-3.39.88,5.21,5.21,0,0,0-.88-1.88,7,7,0,0,0,3.17-.66,2.79,2.79,0,0,0,1.94-2.59,2.43,2.43,0,0,0-1.86-2.29,14.65,14.65,0,0,1-2.88,4.41c-1.5,1.58-3,2.39-4.35,2.39a2.62,2.62,0,0,1-2.59-2.9,5.2,5.2,0,0,1,1.65-3.72,6.84,6.84,0,0,1,2.27-1.49c0-.53,0-1.19.06-2L293,48.14h-.32a3.43,3.43,0,0,0-.38,0V46.3a14.43,14.43,0,0,0,3.1.25h.37c0-.33,0-.33.06-1,0-.22,0-.63,0-1a.74.74,0,0,0,0-.26l2.06.1a9.75,9.75,0,0,0-.3,2,30.66,30.66,0,0,0,6.29-.88l.08,1.9c-.23,0-.3,0-.65.07a52,52,0,0,1-5.83.58c-.05.71-.07,1.24-.09,1.59a9.34,9.34,0,0,1,2.29-.21,5.19,5.19,0,0,1,.63,0,6.39,6.39,0,0,0,.33-1.26Zm-8.21,4.4a3.25,3.25,0,0,0-.75,2c0,.75.37,1.21,1,1.21a2.29,2.29,0,0,0,1.44-.63,17.9,17.9,0,0,1-.3-3.75A4.77,4.77,0,0,0,294.27,53.24Zm3.25,1.37a2.15,2.15,0,0,1,.18-.23,12.76,12.76,0,0,0,2.06-3.32h-.43a6,6,0,0,0-2,.3,25.91,25.91,0,0,0,.11,2.85.71.71,0,0,1,0,.21.62.62,0,0,0,0,.19Z"/><path class="cls-2" d="M313.85,51.2a8.07,8.07,0,0,1,3.48-.77c2.84,0,4.66,1.46,4.66,3.73a4.06,4.06,0,0,1-2.25,3.67,8.27,8.27,0,0,1-4,1,5.56,5.56,0,0,1-3.21-.77,2.36,2.36,0,0,1-1-1.9c0-1.38,1.19-2.38,2.85-2.38a3.56,3.56,0,0,1,2.87,1.36,4.54,4.54,0,0,1,.77,1.5c1.37-.52,2-1.23,2-2.41S318.69,52,316.69,52a10.21,10.21,0,0,0-6.84,2.79L308.72,53a15.29,15.29,0,0,0,2.34-1.56,55.78,55.78,0,0,0,5-4.31l.3-.3,0,0c-.63.08-1.69.15-4.69.28a6.3,6.3,0,0,0-.8.09l-.08-2a14.39,14.39,0,0,0,2,.1c1.41,0,3.43-.08,5-.19a2.51,2.51,0,0,0,1-.22l1,1.46a3.76,3.76,0,0,0-.87.68c-.82.76-2,1.84-2.6,2.32-.3.25-1.49,1.15-1.82,1.36s-.42.28-.68.43Zm.5,4.13c-.6,0-1,.29-1,.76,0,.66.74,1,2,1a4.88,4.88,0,0,0,.86-.06C315.91,55.92,315.28,55.33,314.35,55.33Z"/><path class="cls-2" d="M327.08,52.54c0-.78,0-1.41.06-1.81a12.19,12.19,0,0,1-1.32,1.81,10.15,10.15,0,0,0-.76-2,12.71,12.71,0,0,0,2.67-4.22,11.48,11.48,0,0,0,.68-2.35l1.9.48a19.76,19.76,0,0,1-1.49,3.78V57.5c0,.74,0,1.29.08,1.92H327a14.6,14.6,0,0,0,.1-1.94ZM332.6,51v3.35c1.44-.33,1.64-.38,2.94-.76v1.64a40.88,40.88,0,0,1-5.14,1.34l-.7.17-.27-1.88a6.26,6.26,0,0,0,1.43-.18V47a10.25,10.25,0,0,0-.07-1.51h.4A19.58,19.58,0,0,0,338.67,44L340,45.62a22.59,22.59,0,0,1-3.13.85c0,1.16,0,1.18.1,2.74l1.84-.07a7.59,7.59,0,0,0,1.59-.13l0,1.8c-.46,0-.64,0-1.16,0a2.64,2.64,0,0,0-.46,0l-1.69.05a9.72,9.72,0,0,0,.73,2.78c.48,1.12,1,1.85,1.34,1.85.1,0,.2-.1.26-.27a4.5,4.5,0,0,0,.2-1.29c0-.05,0-.35.05-.9a6.22,6.22,0,0,0,1.35,1.08,8.29,8.29,0,0,1-.57,2.62,1.27,1.27,0,0,1-1.17.84c-.85,0-2-1.07-2.77-2.62a11.62,11.62,0,0,1-1.13-4Zm-2.29,6.12a8.33,8.33,0,0,0,1.26.07h4.85a13.13,13.13,0,0,0,1.69-.09v1.8a9.85,9.85,0,0,0-1.69-.1H332a8.54,8.54,0,0,0-1.64.1Zm5-7.84c-.05-.47-.07-1-.13-2.48a25.53,25.53,0,0,1-2.56.27v2.27Z"/><path class="cls-2" d="M345.53,46.17a13.68,13.68,0,0,0-.1-1.91h1.91a12.11,12.11,0,0,0-.1,1.93v2.12h.36a5.55,5.55,0,0,0,1.12-.07V50a9.3,9.3,0,0,0-1.17-.06h-.31v4.51c.65-.3.83-.38,1.57-.76l.05,1.76a27.73,27.73,0,0,1-4.09,1.84c-.47.18-.62.25-.86.36l-.35-1.91a8.3,8.3,0,0,0,2-.59V49.92h-.38a7.33,7.33,0,0,0-1.29.08V48.23a7,7,0,0,0,1.29.08h.38Zm6,10.57c0,.33.11.44.48.51a13,13,0,0,0,2.25.12c2,0,2.51-.09,2.76-.44a3.91,3.91,0,0,0,.29-2,9,9,0,0,0,1.81.55c-.2,3.32-.55,3.55-5.27,3.55-3.35,0-4.08-.32-4.08-1.78v-5.7l-.33.1a8.41,8.41,0,0,0-1,.38L348,50.25a10.86,10.86,0,0,0,1.61-.36l.15,0V47.56a10.78,10.78,0,0,0-.1-1.75h1.95a14,14,0,0,0-.09,1.69v1.8l1.6-.51V45.9a11.2,11.2,0,0,0-.08-1.65h1.93a12.81,12.81,0,0,0-.1,1.69v2.32l2.38-.75a9.7,9.7,0,0,0,1.36-.49c0,.73-.05.84-.08,1.74a31.21,31.21,0,0,1-.36,4.56c-.22.94-.67,1.23-1.88,1.23a6.68,6.68,0,0,1-.78,0A4.92,4.92,0,0,0,355,52.8a4.28,4.28,0,0,0,.93.14c.42,0,.52-.07.58-.42a29.64,29.64,0,0,0,.2-3.18l-1.9.6v4.13a11.31,11.31,0,0,0,.1,1.65H353a12,12,0,0,0,.08-1.7V50.5l-1.6.51Z"/></svg>