<svg id="レイヤー_1" data-name="レイヤー 1" xmlns="http://www.w3.org/2000/svg" viewBox="0 0 232 41"><defs><style>.cls-1{fill:none;stroke:#000;stroke-miterlimit:10;}</style></defs><path d="M13.25,3.55c8.46,0,13.36,5.22,13.36,13.27V27.67c0,8.11-4.9,13.33-13.36,13.33H0V3.55Zm0,6.66H7.94V34.54h5.31c3.72,0,5.47-1.86,5.47-7.07V17.24C18.72,12.12,17,10.21,13.25,10.21Z"/><path d="M37,41H29L40.13,3.55h9L60.19,41h-8.1l-2-7.85H39Zm3.41-13.74h8.2L44.56,10.94h-.1Z"/><path d="M85.72,3.55v6.87H77.37V41H69.48V10.42H61.12V3.55Z"/><path d="M94.65,41h-8L97.74,3.55h9L117.8,41h-8.09l-2-7.85H96.61Zm3.4-13.74h8.2l-4.07-16.32h-.11Z"/><line class="cls-1" x1="133.98" y1="1.66" x2="133.98" y2="40.19"/><path d="M157,15.48a23.54,23.54,0,0,0-4.12.22V13.38h-4a16.78,16.78,0,0,0,.22-3.25V6.88a27.29,27.29,0,0,0-.17-3.28c1.4.13,2.62.17,4.81.17h11.39v-1A13.39,13.39,0,0,0,164.78,0h5.39A13,13,0,0,0,170,2.76v1h12c2.23,0,3.37,0,4.86-.17a25.3,25.3,0,0,0-.18,3.2v3.33a24.44,24.44,0,0,0,.18,3.25h-4V15.7a24.41,24.41,0,0,0-4.16-.22h-8.8c0,1.4,0,1.4-.09,2.41h8.19a27.53,27.53,0,0,0,3.9-.17v4.16a29,29,0,0,0-3.9-.17h-8.45c-.13,1.09-.18,1.45-.35,2.37h13.66a30.64,30.64,0,0,0,4.51-.22v4.6a39.51,39.51,0,0,0-4.73-.26H171.4a14.76,14.76,0,0,0,4.07,3.68,27.32,27.32,0,0,0,7.7,3c1.1.31,2.46.57,4.86,1a17.89,17.89,0,0,0-2.27,4.74,43.72,43.72,0,0,1-8.19-2.54,23.22,23.22,0,0,1-10.38-8.34,17.19,17.19,0,0,1-6.39,6.89,28.48,28.48,0,0,1-10.68,4A14.61,14.61,0,0,0,147.79,36c4.6-.65,6.88-1.31,9.51-2.67a13,13,0,0,0,5.56-5.13h-9.68a41.27,41.27,0,0,0-4.68.26v-4.6a28.86,28.86,0,0,0,4.42.22h11.47c.17-.84.26-1.32.39-2.37h-7.4a29.31,29.31,0,0,0-3.94.17V17.72a28.1,28.1,0,0,0,3.94.17h7.71c0-1.23,0-1.23,0-2.41Zm8.23-3.86A22.38,22.38,0,0,0,165,8.81h5.08a14.51,14.51,0,0,0-.17,2.81h8.71c1.66,0,2.36,0,3.46-.13V7.89H153.57v3.6a30.28,30.28,0,0,0,3.38.13Z"/><path d="M191.32,7.28a18.92,18.92,0,0,0,3.51.22H204a22.18,22.18,0,0,0,3.5-.18v4.52a20.12,20.12,0,0,0-3.33-.17h-9.32a26.55,26.55,0,0,0-3.51.17Zm1.23,33.29a33.91,33.91,0,0,0,.26-4.3V29.78a20.18,20.18,0,0,0-.22-3.47,27.33,27.33,0,0,0,3.37.18h7.32a15.68,15.68,0,0,0,2.93-.13,27.15,27.15,0,0,0-.13,3.15v7a29,29,0,0,0,.13,3.42H202V38.46h-5v2.11Zm.17-39.43a27.28,27.28,0,0,0,3.64.18h6.39a27.45,27.45,0,0,0,3.68-.18V5.35a28.45,28.45,0,0,0-3.68-.18h-6.39a27.78,27.78,0,0,0-3.64.18ZM192.9,14a25.89,25.89,0,0,0,2.89.13h7.66a22.87,22.87,0,0,0,2.8-.13V18a26.88,26.88,0,0,0-2.8-.13h-7.66a26.55,26.55,0,0,0-2.89.13Zm0,6.09a23.65,23.65,0,0,0,2.89.13h7.66a21,21,0,0,0,2.8-.13v4.08a18.37,18.37,0,0,0-2.89-.13h-7.61a23.8,23.8,0,0,0-2.85.13ZM197,34.6h5V30.26h-5ZM218.38,6.31h-4.95a39.1,39.1,0,0,0-5,.27v-5a37.72,37.72,0,0,0,5,.27h13a37.61,37.61,0,0,0,5-.27v5a37.79,37.79,0,0,0-5-.27h-3.54V17h3.59a22.58,22.58,0,0,0,4.29-.27v5a22.83,22.83,0,0,0-4.29-.27h-3.59v12.9h4.2a39,39,0,0,0,4.86-.27v5a38.52,38.52,0,0,0-4.95-.27H212.21a34.09,34.09,0,0,0-4.91.27v-5a16.17,16.17,0,0,0,2.72.18V17.5a30.31,30.31,0,0,0-.26-4.83h5a27.84,27.84,0,0,0-.26,4.83V34.34h3.89Z"/></svg>