<svg id="レイヤー_1" data-name="レイヤー 1" xmlns="http://www.w3.org/2000/svg" viewBox="0 0 80 70"><defs><style>.cls-1,.cls-2{fill:none;}.cls-1{stroke:#231815;stroke-miterlimit:10;}</style></defs><line class="cls-1" x1="79.5" x2="79.5" y2="68"/><path d="M9,20.46a9.72,9.72,0,0,0,.13-1.81V10A11.59,11.59,0,0,0,9,8.11c.58,0,1,.05,1.78.05h3.3c2.5,0,3.91,1.28,3.91,3.53s-1.46,3.75-4,3.75H10.39v3.19a9.61,9.61,0,0,0,.13,1.83Zm5-6.13a2.39,2.39,0,0,0,2.69-2.58c0-1.62-.94-2.47-2.69-2.47H10.39v5.05Z"/><path d="M30.5,14.31c0,3.9-2.19,6.4-5.6,6.4s-5.59-2.5-5.59-6.4,2.2-6.39,5.6-6.39S30.5,10.41,30.5,14.31Zm-2.77,4.14a5.79,5.79,0,0,0,1.44-4.14,5.71,5.71,0,0,0-1.42-4.14,4,4,0,0,0-2.84-1.12c-2.59,0-4.29,2.07-4.29,5.24s1.72,5.27,4.31,5.27A3.85,3.85,0,0,0,27.73,18.45Z"/><path d="M34.12,8.16A9.8,9.8,0,0,0,34,10v8.68a9.72,9.72,0,0,0,.15,1.81H32.58a9.52,9.52,0,0,0,.13-1.81V10a9.39,9.39,0,0,0-.13-1.81Z"/><path d="M38.35,8.16a8,8,0,0,0,.82,1.46l5.12,7.65c.17.28.66,1.07,1.05,1.77-.07-1.3-.1-2-.1-2.16V10a10,10,0,0,0-.13-1.86h1.51A9.82,9.82,0,0,0,46.49,10v8.63a9,9,0,0,0,.13,1.81H44.85A9.71,9.71,0,0,0,44,19l-5.2-7.81c-.13-.19-.66-1.12-.89-1.55.07.76.1,1.55.1,2v6.92a10,10,0,0,0,.13,1.92H36.64a10,10,0,0,0,.13-1.92V10a9.85,9.85,0,0,0-.13-1.81Z"/><path d="M53.77,18.63a9.68,9.68,0,0,0,.13,1.83H52.38a9.42,9.42,0,0,0,.13-1.83V9.29H50a11.79,11.79,0,0,0-1.86.11V8A10.43,10.43,0,0,0,50,8.16h6.31A10.33,10.33,0,0,0,58.19,8V9.4a11.76,11.76,0,0,0-1.91-.11H53.77Z"/><path d="M25.28,66.53a41.42,41.42,0,0,0-5.82.23A23.26,23.26,0,0,1,20.63,61a22.31,22.31,0,0,1,6.18-8.84,61.66,61.66,0,0,1,7.44-5.46c4.15-2.84,5.41-4.33,5.41-6.62,0-3.07-2.39-5-6.22-5-2.62,0-4.6.9-5.73,2.66a8.65,8.65,0,0,0-1.4,4.14l-6.44-.76c.63-3.43,1.44-5.28,3.11-7.22,2.25-2.61,5.81-4,10.32-4,7.89,0,12.76,3.79,12.76,10a9.14,9.14,0,0,1-3.2,7.21c-1.26,1.17-1.71,1.53-7.57,5.55a39.29,39.29,0,0,0-5.37,4.5,11,11,0,0,0-2.57,4.06H40a46.67,46.67,0,0,0,6.58-.36V66.8c-2.12-.18-3.92-.27-6.81-.27Z"/><rect class="cls-2" width="80" height="70"/></svg>