<svg id="レイヤー_1" data-name="レイヤー 1" xmlns="http://www.w3.org/2000/svg" viewBox="0 0 500 261"><defs><style>.cls-1{fill:#ebebeb;}.cls-2{fill:#f53402;}.cls-3{fill:#e50012;}.cls-4{fill:#9e9e9f;}.cls-5{fill:#231815;}.cls-6{fill:#fff;}</style></defs><rect class="cls-1" y="135" width="500" height="126"/><rect class="cls-2" y="91" width="500" height="45"/><polygon class="cls-3" points="265.54 203.03 242.25 168.03 242.25 183.12 184 183.12 184 222.96 242.25 222.96 242.25 238.06 265.54 203.03"/><path class="cls-4" d="M170.3,236.38H101V167H170.3Zm-11.29-58H112.27v46.74H159Z"/><path class="cls-3" d="M348.72,236.38H279.39V167h69.33Zm-14.81-54.53H294.2v39.71h39.71Z"/><path d="M55.14,180.12c.21,0,.37.06.37.21s-.25.25-.4.26v.73H60v1.31H55.11v1.24h6.36v1.37H47v-1.37h6.41v-1.24H48.51v-1.31h4.92v-1.26H50.6v.6H49.19v-4.12a9,9,0,0,1-1.41,3.73,4.51,4.51,0,0,0-1.25-.81,8.07,8.07,0,0,0,1.46-5.2v-2.62h5.74v3.47H49.37c0,.31,0,.48-.09.88h4.45v4Zm-5.77-7.33V174h3v-1.22Zm1.23,4.39v1.71h1.72v-1.71Zm7.89.33h2.33v1.18H58.49v1.94H56.93v-1.94H54.52v-1.18h2.41v-1.16H54.1v-1.24h1.63a11.08,11.08,0,0,0-.5-1.24l1-.23H54.41v-1.26h2.52V171l1.64.09c.07,0,.25,0,.25.15s-.13.23-.33.32v.79H61v1.26H60c.35.05.54.12.54.27s-.31.2-.46.22a9.76,9.76,0,0,1-.43,1h1.82v1.24H58.49Zm-1.84-3.87a13.6,13.6,0,0,1,.49,1.31,6.84,6.84,0,0,0-.89.16h1.92a11.75,11.75,0,0,0,.62-1.47Z"/><path d="M67.21,174.69c.24.08.26.15.26.23s-.2.25-.4.38v10.34H65.42v-8.31a10.18,10.18,0,0,1-1.1,1.36,4.28,4.28,0,0,0-1.23-1.21A15.07,15.07,0,0,0,66.57,171l1.64.5c.19.06.3.08.3.23s-.12.18-.47.24A20.86,20.86,0,0,1,67,174.62Zm10.59-1.64v1.42H75.47l1.13.48c.07,0,.22.1.22.19s-.12.19-.43.24a19.78,19.78,0,0,1-1.08,2.1h2.83V179H67.86v-1.47h2.86a15.83,15.83,0,0,0-1.16-2.5l1.46-.51H68.39v-1.42h3.78v-1.93l1.64,0c.23,0,.4.07.4.21s-.15.23-.4.35v1.33Zm-7,11.87v.72H69.22V180H77v5.66H75.43v-.72Zm4.62-1.44v-2.11H70.81v2.11Zm-4.35-9A19.58,19.58,0,0,1,72.3,177l-1.24.48h2.59a24.73,24.73,0,0,0,1.33-3Z"/><path d="M80,179.15a19.1,19.1,0,0,0,3.61-1.54,3.12,3.12,0,0,0,.14,1.37c-.73.44-2.39,1.18-2.78,1.35-.08.23-.11.33-.27.33s-.16,0-.25-.29Zm9.35-3.59c.12.06.18.09.18.2s-.08.17-.45.22c-.6.76-1.56,1.92-2.2,2.57.65,0,1-.06,2.27-.18-.17-.32-.35-.6-.57-1l1.23-.53a20.27,20.27,0,0,1,1.61,2.93,11,11,0,0,0-1.29.73c-.11-.29-.2-.52-.43-1l-2.48.25,1.11.06c.12,0,.58,0,.58.28s-.11.28-.5.35v.86H95v1.46h-6.5v2.93H86.74v-2.93H80.18v-1.46h6.56v-1.5c-.36,0-1.9.17-2.21.21-.11.16-.16.27-.28.27s-.14,0-.2-.36l-.21-1.2,1.34-.07c.3-.3.33-.34.9-.95a27.57,27.57,0,0,0-2.28-1.76l.89-1c.18.1.41.26.85.57a8.73,8.73,0,0,0,1.08-1.54H80.45v-1.37h6.28v-1.52l1.76,0c.15,0,.34,0,.34.23a.22.22,0,0,1-.12.19l-.25.13v.93h6.22v1.37H87.94c.28.13.36.19.36.3s-.14.16-.42.18a22,22,0,0,1-1.39,1.8c.15.13.27.23.48.43a9.25,9.25,0,0,0,1.29-1.72Zm-7.84-1.2a18.23,18.23,0,0,1,2.25,2,11.74,11.74,0,0,0-1.06,1,11.75,11.75,0,0,0-2.15-2Zm12.51.56a.35.35,0,0,1,.19.25c0,.23-.26.23-.42.21a13.27,13.27,0,0,1-1.72,2,10.25,10.25,0,0,0-1.24-.82,13,13,0,0,0,2-2.46Zm-1.87,2.59A12.71,12.71,0,0,1,95,179.27a6.74,6.74,0,0,0-.85,1.17,14,14,0,0,0-2.8-1.85Z"/><path d="M51.54,198.51c.08.05.24.12.24.27s-.23.21-.27.21a.9.9,0,0,1-.23,0c-.33.61-.69,1.16-1,1.55.27.12.37.17.37.29a.17.17,0,0,1-.06.12l-.19.14v7.22H48.8v-5.77a9.25,9.25,0,0,1-1.16,1.23,4.3,4.3,0,0,0-1.16-1.16,15.87,15.87,0,0,0,3.7-4.83Zm-.24-3.82c.08.06.2.15.2.27s-.2.17-.31.17a.56.56,0,0,1-.2,0,14.24,14.24,0,0,1-3.11,3A4.84,4.84,0,0,0,46.63,197,10.45,10.45,0,0,0,50,193.73Zm3.27,5.6c.17,0,.37.07.37.27s-.1.17-.32.25a13.82,13.82,0,0,1-.3,2.5A5,5,0,0,0,56,205.58v-7.11H51.78V197h2.85A12,12,0,0,0,53,194.42l1.36-.77A14.81,14.81,0,0,1,56,196.21a7.46,7.46,0,0,0-1.3.78H57a16.9,16.9,0,0,0,1.81-3.38l1.49.5c.07,0,.22.09.22.23s-.1.14-.38.24a13.88,13.88,0,0,1-1.3,2.41H61.5v1.48H57.69v2.66h3.17v1.55H57.69v3.58a9.38,9.38,0,0,0,1.92.18,22.66,22.66,0,0,0,2.3-.13,4.88,4.88,0,0,0-.62,1.7c-3.65,0-5.67,0-7.38-3a10.86,10.86,0,0,1-1.86,3.48,2.54,2.54,0,0,0-1.43-.83c.74-.83,2.46-2.8,2.41-7.48Z"/><path d="M71.72,208.31H70.16v-5.19A18.13,18.13,0,0,1,64.71,208a4,4,0,0,0-1.26-1.25,16.36,16.36,0,0,0,5.9-4.57H63.68v-1.45h3.64a12.79,12.79,0,0,0-1.49-2.82l1.36-.72h-2.8V195.7h5.77v-1.87l1.6.11c.13,0,.3.06.3.21s-.2.24-.34.29v1.26h5.75v1.48H74.61l1.35.6c.14.07.21.1.21.22s-.11.18-.38.22a16.21,16.21,0,0,1-1.29,2.5h3.68v1.45H72.43a14.68,14.68,0,0,0,2.74,2.59,19.51,19.51,0,0,0,3.1,1.87,3.76,3.76,0,0,0-1.13,1.22,15.39,15.39,0,0,1-5.42-4.6Zm-1.56-7.59v-3.54H67.27a11.49,11.49,0,0,1,1.6,2.91,8.22,8.22,0,0,0-1.14.63Zm1.56-3.54v3.54h2.49a9.75,9.75,0,0,0-1.24-.6,12.08,12.08,0,0,0,1.44-2.94Z"/><path d="M49.53,224.54c.06,1,.23,3.13,2.71,3.13a2.57,2.57,0,0,0,2.87-2.59,2.38,2.38,0,0,0-2.57-2.55H51.45v-2.07h.93a2.26,2.26,0,0,0,2.44-2.22,2,2,0,0,0-2.36-2c-1.63,0-2.44.61-2.54,2.53H47.45a6.49,6.49,0,0,1,.82-2.87,4.77,4.77,0,0,1,4.25-2.19c2.64,0,4.73,1.43,4.73,4.22a3.29,3.29,0,0,1-2.14,3.4,3.62,3.62,0,0,1,2.42,3.78c0,3.1-2,5.1-5.25,5.1-2.73,0-5-1.47-5.21-5.64Z"/><path d="M62.88,226.63v3.11H60.47v-3.11Z"/><path d="M76.27,221.93c0,2.8-.59,8.25-5.27,8.25s-5.27-5.43-5.27-8.25.54-8.25,5.27-8.25S76.27,219.13,76.27,221.93Zm-8.09,0c0,.86,0,5.75,2.82,5.75s2.81-4.89,2.81-5.75,0-5.74-2.81-5.74S68.18,221,68.18,221.93Z"/><path d="M82,220c.23.09.25.15.25.23s-.19.26-.4.38V231H80.22v-8.31a9.56,9.56,0,0,1-1.1,1.37,4.15,4.15,0,0,0-1.23-1.21,15,15,0,0,0,3.48-6.47l1.64.49c.18.06.3.08.3.24s-.13.17-.48.24a20.14,20.14,0,0,1-1.08,2.63Zm10.59-1.64v1.43H90.27l1.12.48c.08,0,.23.08.23.18s-.13.19-.43.24c-.59,1.24-.67,1.38-1.08,2.11h2.82v1.45H82.66V222.8h2.85a13.63,13.63,0,0,0-1.15-2.5l1.46-.51H83.18v-1.43H87v-1.94l1.63.05c.24,0,.41.07.41.21s-.15.24-.41.35v1.33Zm-7,11.86V231H84v-5.66h7.81V231H90.24v-.73Zm4.63-1.42v-2.11H85.61v2.11Zm-4.36-9a17.56,17.56,0,0,1,1.21,2.53l-1.23.48h2.59a31.71,31.71,0,0,0,1.33-3Z"/><path d="M363.36,184.47v-7.9h-.82v7.9h-1.15v-7.9h-.79v9.09h-1.38V175.08h2.07a22,22,0,0,0,.77-2.14h-3.38v-1.39h8.48v1.39h-3.42c-.3.89-.42,1.17-.81,2.14h3.79v8.83c0,.81,0,1.85-2.31,1.75a2.4,2.4,0,0,0-.44-1.19Zm1.17-.36c.72,0,.83.06.83-.47v-7.07h-.83Zm3.86-6.63a17.8,17.8,0,0,1,1.65,3.57,7.77,7.77,0,0,0-1.59.65,17.74,17.74,0,0,0-1.49-3.6Zm2-6.42,1.57.08c.14,0,.33,0,.33.19s-.07.18-.29.29v3.13h1.29v1.5H372v7.24c0,1,0,2.19-2.62,2.19l-.55,0a3.72,3.72,0,0,0-.56-1.79,6.37,6.37,0,0,0,1,.07c1,0,1.1-.18,1.1-.82v-6.87h-3.38v-1.5h3.38Z"/><path d="M382.93,171.25c.15,0,.39.07.39.21s-.17.21-.44.35c0,.79-.05,1.88-.06,2.47h6.25c0,2.37,0,8.82-1.29,10.29-.87,1-2.67,1.06-3.56,1a6.25,6.25,0,0,0-.78-2,9.12,9.12,0,0,0,1.78.21c.91,0,1.35-.18,1.68-1.9a33.26,33.26,0,0,0,.39-6h-4.56c-.19,2.24-.37,4.69-2.71,7.31a9.72,9.72,0,0,1-3.38,2.48,6.58,6.58,0,0,0-1.28-1.31,8.89,8.89,0,0,0,5.67-8.48h-5.14v-1.61h5.21v-3.14Z"/><path d="M404,172.76a2.56,2.56,0,0,0,.87-.14l1.16,1a4.73,4.73,0,0,0-.55.76,24.84,24.84,0,0,1-4.75,5.11,5.37,5.37,0,0,0-1.18-1.2,12.89,12.89,0,0,0,4-4H392.2v-1.58Zm-4.49,2.81c.08,0,.31,0,.31.16s-.2.25-.31.3c-.1,2.27-.28,6.65-4.95,9.27a8.83,8.83,0,0,0-1.44-1.1c3.36-1.82,4.83-4,4.62-8.78Z"/><path d="M409.87,175.28a16,16,0,0,1,1.56,3.16,6.21,6.21,0,0,0-1.34.62,16.4,16.4,0,0,0-1.55-3.21Zm9.48-.11c.16.05.29.09.29.23s-.22.22-.3.23c-1.18,4.64-3.1,7.46-7.85,9.37a8.33,8.33,0,0,0-1-1.2c2.33-.84,6.45-2.63,7.36-9.1Zm-6-.7a12.9,12.9,0,0,1,1.45,3.22,8,8,0,0,0-1.35.54A15.19,15.19,0,0,0,412,175Z"/><path d="M432.68,173.23a2.63,2.63,0,0,0,1.1-.14l1.2,1a4.25,4.25,0,0,0-.45.91c-1.92,5-3.93,7.74-9.07,10.25a5.56,5.56,0,0,0-1.25-1.3,13.76,13.76,0,0,0,8.57-9.23H422.4v-1.54Zm4.18-1.25a1.44,1.44,0,1,1-1.44-1.43A1.43,1.43,0,0,1,436.86,172Zm-2.22,0a.78.78,0,0,0,.78.79.8.8,0,0,0,.8-.79.79.79,0,0,0-.8-.77A.77.77,0,0,0,434.64,172Z"/><path d="M452.06,173.54c-3.89,0-7.64,3.48-7.64,6.47,0,1,.44,3.28,4.81,3.68a10,10,0,0,0-.75,1.82c-2.49-.51-5.74-1.94-5.74-5.48,0-3.36,3.05-5.37,4-6-1.87.13-7.17.86-8.1,1.1l-.25-2,.9,0a79.87,79.87,0,0,0,12.43-1.42Zm-2.67,2.81a18.33,18.33,0,0,1,1.44,1.7,4.18,4.18,0,0,0-.87.76,9.86,9.86,0,0,0-1.44-1.73Zm1.56-1.21a12.15,12.15,0,0,1,1.5,1.68,4.51,4.51,0,0,0-.86.75,12,12,0,0,0-1.46-1.78Z"/><path d="M366.79,200.27c.19,0,.36.06.36.22s-.25.25-.4.26v.72h4.85v1.3h-4.85V204h6.36v1.39H358.66V204h6.42v-1.24h-4.93v-1.3h4.93v-1.25h-2.84v.59h-1.41v-4.12a9.06,9.06,0,0,1-1.41,3.74,4.71,4.71,0,0,0-1.25-.82,8,8,0,0,0,1.46-5.18v-2.64h5.75v3.46H361c0,.33-.05.48-.09.9h4.46v4ZM361,193v1.22h3V193Zm1.23,4.39v1.71H364v-1.71Zm7.89.31h2.34v1.2h-2.34v1.93h-1.55v-1.93h-2.42v-1.2h2.42V196.5h-2.84v-1.25h1.63c-.15-.39-.3-.82-.5-1.22l1-.24h-1.77v-1.26h2.52v-1.34l1.63.08c.08,0,.26,0,.26.15s-.14.23-.34.32v.79h2.47v1.26h-1q.54.06.54.27c0,.16-.31.2-.46.22a7.6,7.6,0,0,1-.43,1h1.83v1.25h-2.95Zm-1.83-3.86c.16.41.35.89.49,1.31-.52.09-.65.09-.9.15h1.92a9.67,9.67,0,0,0,.62-1.46Z"/><path d="M378.85,194.84c.23.1.25.15.25.24s-.19.25-.39.37v10.34h-1.65v-8.31a9.56,9.56,0,0,1-1.1,1.37,4,4,0,0,0-1.23-1.21,15.32,15.32,0,0,0,3.49-6.47l1.63.49c.2.07.31.08.31.24s-.13.17-.48.24a22.31,22.31,0,0,1-1.08,2.63Zm10.59-1.64v1.43h-2.32l1.12.47c.09,0,.23.09.23.19s-.13.19-.43.24a23.19,23.19,0,0,1-1.09,2.11h2.83v1.46H379.5v-1.46h2.86a14.58,14.58,0,0,0-1.16-2.5l1.46-.51H380V193.2h3.78v-1.93l1.63,0c.25,0,.41.05.41.2s-.15.24-.41.35v1.33Zm-7,11.86v.73h-1.58v-5.66h7.82v5.66h-1.61v-.73Zm4.63-1.42v-2.11h-4.63v2.11Zm-4.35-9a19.28,19.28,0,0,1,1.21,2.52l-1.23.49h2.58a26.24,26.24,0,0,0,1.33-3Z"/><path d="M391.68,199.31a22.12,22.12,0,0,0,3.62-1.54,3.07,3.07,0,0,0,.13,1.36,28.44,28.44,0,0,1-2.78,1.36c-.08.23-.11.32-.27.32s-.15,0-.25-.28Zm9.37-3.61c.1.07.16.1.16.21s-.08.18-.44.22c-.61.77-1.58,1.93-2.2,2.57.65,0,1-.06,2.26-.17-.17-.34-.34-.61-.56-1l1.22-.54a20.36,20.36,0,0,1,1.61,2.93,13.68,13.68,0,0,0-1.29.72c-.1-.28-.2-.52-.42-1-1.49.17-1.67.19-2.5.26L400,200c.12,0,.59,0,.59.29,0,.08-.11.26-.51.33v.87h6.5v1.46h-6.5v2.93h-1.7v-2.93h-6.57v-1.46h6.57v-1.51l-2.22.2c-.11.19-.16.27-.27.27s-.14,0-.21-.34l-.21-1.21,1.34-.05c.31-.31.34-.37.91-1a27.39,27.39,0,0,0-2.29-1.76l.89-1,.85.59a10.58,10.58,0,0,0,1.09-1.55h-6.18v-1.36h6.29V191.2l1.75.05c.15,0,.34,0,.34.23a.21.21,0,0,1-.11.18,1.91,1.91,0,0,1-.25.13v.94h6.21v1.36h-6.74c.28.13.36.19.36.3s-.13.15-.42.18c-.58.82-.86,1.16-1.38,1.8l.47.43a9.19,9.19,0,0,0,1.29-1.71Zm-7.86-1.19a16.7,16.7,0,0,1,2.25,2,11.74,11.74,0,0,0-1.06,1.05,12.43,12.43,0,0,0-2.14-2.05Zm12.51.57a.31.31,0,0,1,.19.25c0,.22-.25.22-.42.2a15,15,0,0,1-1.71,2,8.92,8.92,0,0,0-1.24-.83,13.17,13.17,0,0,0,2-2.46Zm-1.88,2.57a12.92,12.92,0,0,1,2.77,1.76,7.09,7.09,0,0,0-.85,1.18,14.3,14.3,0,0,0-2.8-1.84Z"/><path class="cls-3" d="M372.93,227.5h3.39V231h-3.39v5.26H369V231H358.68V227.5L369,212.78h3.93Zm-3.93,0v-9.74l-6.85,9.74Z"/><path class="cls-3" d="M384.91,231.56v4.67h-4v-4.67Z"/><path class="cls-3" d="M393.62,228.44c.11,1.45.39,4.66,4.5,4.66.62,0,4.74,0,4.74-3.85,0-3.1-2.54-3.85-4.25-3.85H396.8v-3.09h1.56c1.94,0,4-1.08,4-3.34,0-3.06-3.12-3.06-3.91-3.06-2.7,0-4,.92-4.21,3.8h-4.08a8.93,8.93,0,0,1,1.37-4.3c1.85-2.83,5.13-3.28,7-3.28,4.36,0,7.82,2.14,7.82,6.33a5,5,0,0,1-3.55,5.1,5.54,5.54,0,0,1,4,5.69c0,4.63-3.25,7.63-8.69,7.63-4.53,0-8.24-2.2-8.63-8.44Z"/><path class="cls-3" d="M416.57,221.62c.4.13.42.22.42.33s-.31.38-.66.57V238H413.6V225.57a16.5,16.5,0,0,1-1.8,2.06,6.65,6.65,0,0,0-2.06-1.82,22.1,22.1,0,0,0,5.77-9.7l2.71.73c.32.1.5.11.5.36s-.2.27-.79.35a30.14,30.14,0,0,1-1.78,4Zm17.54-2.47v2.14h-3.86l1.85.71c.15.06.38.15.38.29s-.21.29-.72.36a33.08,33.08,0,0,1-1.78,3.16h4.67V228h-17v-2.19h4.71a19.63,19.63,0,0,0-1.9-3.75l2.4-.77h-4.34v-2.14h6.26v-2.91l2.71.08c.4,0,.66.1.66.3s-.25.36-.66.54v2Zm-11.58,17.79V238H419.9v-8.49h12.94V238h-2.65v-1.1Zm7.66-2.13v-3.17h-7.66v3.17ZM423,221.29a28.94,28.94,0,0,1,2,3.79l-2.06.73h4.28a37.16,37.16,0,0,0,2.2-4.52Z"/><path class="cls-5" d="M441.24,226.53c.22.08.36.12.36.25s-.2.16-.4.17a18.46,18.46,0,0,0-1.05,6.21,8.24,8.24,0,0,0,.17,2,13.68,13.68,0,0,1,.92-2,2.65,2.65,0,0,0,.89.83,8.77,8.77,0,0,0-1.1,3.84l-1.49.38a12.86,12.86,0,0,1-1-5.33,28.08,28.08,0,0,1,1-6.88Zm4.14,6.66a3.07,3.07,0,0,0-.5,1.46c0,.9,1.15,1.06,2.83,1.06a17.94,17.94,0,0,0,3.91-.39,6.51,6.51,0,0,0-.14,1.6,32.78,32.78,0,0,1-3.73.21c-1.93,0-4.42-.18-4.42-2a4.83,4.83,0,0,1,.62-2.16Zm-1.44-5.61c.43,0,.89.07,1.71.07a20.56,20.56,0,0,0,4.93-.46c.05.3.15,1.27.19,1.47a29.31,29.31,0,0,1-5.14.42c-.78,0-1.28,0-1.69-.06Z"/><path class="cls-6" d="M205.51,202h-2.14v-9.48H201v-2c1.18-.07,2.32-.24,2.83-2.6h1.69Z"/><path class="cls-6" d="M212.64,199.18V202h-2.16v-2.81Z"/><path class="cls-6" d="M222.16,196.76H224v2.07h-1.83V202H220v-3.16h-5.6v-2.07l5.6-8.82h2.13Zm-2.13,0v-5.84l-3.73,5.84Z"/><path class="cls-6" d="M228.41,193.25c.21.05.22.12.22.2s-.16.22-.35.33v9.29H226.8v-7.46a8.1,8.1,0,0,1-1,1.22,3.8,3.8,0,0,0-1.1-1.09,13.55,13.55,0,0,0,3.13-5.81l1.47.44c.16.06.27.08.27.22s-.12.16-.44.22a18.94,18.94,0,0,1-1,2.36Zm9.51-1.49V193h-2.1l1,.44c.08,0,.2.08.2.17s-.11.17-.39.21c-.52,1.11-.6,1.24-1,1.89h2.53v1.32H229v-1.32h2.57a11.76,11.76,0,0,0-1.05-2.24l1.31-.47h-2.36v-1.27h3.4V190l1.47,0c.21,0,.36.05.36.19s-.14.21-.36.31v1.2Zm-6.29,10.66v.65h-1.41V198h7v5.09H235.8v-.65Zm4.17-1.29v-1.9h-4.17v1.9Zm-3.92-8.1a20.05,20.05,0,0,1,1.1,2.27l-1.12.44h2.33a24.17,24.17,0,0,0,1.19-2.71Z"/><path class="cls-6" d="M197.73,215.27c.42-.1,1.23-.34,1.57-.45v-9.37l1.65.14c.08,0,.3,0,.3.2s-.19.22-.36.29v8.25c1.35-.42,2.68-.91,4-1.42a5.51,5.51,0,0,0-.07,1c0,.24,0,.34,0,.49-1.84.75-3.32,1.3-6,2.18-.07.22-.16.38-.29.38s-.18-.16-.21-.24Zm12.17-9.73c.12,0,.29,0,.29.19s-.16.26-.37.32c0,3.7-.41,6.33-1.29,8a15.63,15.63,0,0,1,2.6,3.08,7.41,7.41,0,0,0-1.19,1.11,13.58,13.58,0,0,0-2.23-3A9,9,0,0,1,203,218.4a4.12,4.12,0,0,0-.91-1.34,7.52,7.52,0,0,0,4.85-3.27c1.23-1.91,1.26-4.2,1.32-8.36Zm-6,.47a17.51,17.51,0,0,1,2.61,3.45,8.64,8.64,0,0,0-1.32.9,15.42,15.42,0,0,0-2.53-3.42Z"/><path class="cls-6" d="M224.44,209.87v1.5h-5.38v4.9h6.15v1.47h-13v-1.47h5.25v-10.9l1.7.12c.14,0,.27.08.27.17s-.09.16-.36.24v4Z"/><path class="cls-6" d="M229.52,206.25c.2.07.31.13.31.25s-.18.16-.34.18a19.84,19.84,0,0,0-1,6.14,11.35,11.35,0,0,0,.15,1.94,16.88,16.88,0,0,1,.84-2,2.53,2.53,0,0,0,.79.82,9.52,9.52,0,0,0-1,3.8l-1.34.39a14.16,14.16,0,0,1-.88-5.28,30,30,0,0,1,.9-6.83Zm3.71,6.6a3.27,3.27,0,0,0-.44,1.45c0,.9,1,1.07,2.54,1.07a14.66,14.66,0,0,0,3.52-.39,6.31,6.31,0,0,0-.13,1.57,26.55,26.55,0,0,1-3.35.2c-1.74,0-4-.16-4-2a5.07,5.07,0,0,1,.55-2.14Zm-1.29-5.55c.38,0,.81.07,1.54.07a17.55,17.55,0,0,0,4.43-.45c0,.27.14,1.25.17,1.45a24.58,24.58,0,0,1-4.62.41c-.69,0-1.15,0-1.52-.06Z"/><path class="cls-2" d="M499,1V71H1V1H499m1-1H0V72H500V0Z"/><path class="cls-2" d="M59.81,43.84a21.76,21.76,0,0,0-3,.11,11.69,11.69,0,0,1,.6-2.93,11.35,11.35,0,0,1,3.14-4.5,30.56,30.56,0,0,1,3.79-2.77c2.11-1.45,2.75-2.2,2.75-3.37,0-1.56-1.22-2.53-3.17-2.53a3.22,3.22,0,0,0-2.91,1.36,4.33,4.33,0,0,0-.71,2.11l-3.28-.39a6.82,6.82,0,0,1,1.58-3.67,6.67,6.67,0,0,1,5.25-2c4,0,6.49,1.92,6.49,5.07A4.64,4.64,0,0,1,68.76,34a30,30,0,0,1-3.86,2.83,20.31,20.31,0,0,0-2.73,2.29,5.53,5.53,0,0,0-1.3,2.06h6.42A25.09,25.09,0,0,0,70.64,41v3a34.55,34.55,0,0,0-3.47-.14Z"/><path class="cls-2" d="M75.27,42.35A6.54,6.54,0,0,1,73.76,40a15.27,15.27,0,0,1-.89-5.27,13.65,13.65,0,0,1,1.39-6.36,6.53,6.53,0,0,1,5.85-3.18A6.67,6.67,0,0,1,85,27.07a6.44,6.44,0,0,1,1.52,2.32,15.59,15.59,0,0,1,.89,5.32,12,12,0,0,1-1.7,6.79,6.51,6.51,0,0,1-5.57,2.71A6.65,6.65,0,0,1,75.27,42.35Zm7.32-1.77c1-1.08,1.6-3.21,1.6-5.89s-.57-4.75-1.6-5.87a3.32,3.32,0,0,0-2.5-1A3.1,3.1,0,0,0,77.52,29c-1,1.2-1.51,3.08-1.51,5.58a10.23,10.23,0,0,0,1.17,5.45,3.63,3.63,0,0,0,5.41.53Z"/><path class="cls-2" d="M91.61,42.35A6.44,6.44,0,0,1,90.09,40a15.51,15.51,0,0,1-.89-5.27,13.52,13.52,0,0,1,1.4-6.36,6.52,6.52,0,0,1,5.85-3.18,6.69,6.69,0,0,1,4.84,1.85,6.54,6.54,0,0,1,1.51,2.32,15.59,15.59,0,0,1,.89,5.32A12.12,12.12,0,0,1,102,41.5a6.52,6.52,0,0,1-5.58,2.71A6.61,6.61,0,0,1,91.61,42.35Zm7.31-1.77c1-1.08,1.61-3.21,1.61-5.89s-.58-4.75-1.61-5.87a3.3,3.3,0,0,0-2.5-1A3.1,3.1,0,0,0,93.85,29c-1,1.2-1.51,3.08-1.51,5.58a10.33,10.33,0,0,0,1.17,5.45,3.36,3.36,0,0,0,2.94,1.5A3.31,3.31,0,0,0,98.92,40.58Z"/><path class="cls-2" d="M107.5,33a4.37,4.37,0,0,1-1.12-3c0-2.94,2.48-4.8,6.4-4.8,2.77,0,4.82.9,5.8,2.5a4.54,4.54,0,0,1,.62,2.3,4.26,4.26,0,0,1-3.3,4.29A4.57,4.57,0,0,1,120,38.93c0,3.42-2.57,5.3-7.27,5.3-2.66,0-4.49-.57-5.8-1.84A4.74,4.74,0,0,1,105.58,39a4.36,4.36,0,0,1,1.88-3.76,5,5,0,0,1,2.27-.91A4.49,4.49,0,0,1,107.5,33Zm9.25,5.69c0-1.9-1.49-3.05-4-3.05s-4,1.17-4,3.07,1.47,3,3.94,3S116.75,40.63,116.75,38.7Zm-7.3-8.39c0,1.67,1.29,2.73,3.38,2.73s3.27-1,3.27-2.71-1.28-2.66-3.32-2.66S109.45,28.7,109.45,30.31Z"/><path class="cls-2" d="M125.79,33.2c0-.51,0-.85-.07-1.33.48,0,1,.07,1.6.07h5V29h-4.79a21.24,21.24,0,0,1-3.78,4.52,10.47,10.47,0,0,0-1.7-2,14.18,14.18,0,0,0,4.47-5.76,6.63,6.63,0,0,0,.55-1.67l2.73.55c-.14.28-.18.35-.34.69l-.67,1.44h10.74a16.51,16.51,0,0,0,2.33-.11v2.5a16.91,16.91,0,0,0-2.33-.12h-4.68v3h3.69a17,17,0,0,0,2.36-.12v2.43a21.35,21.35,0,0,0-2.29-.09h-3.76v3.72h5.32a19,19,0,0,0,2.5-.14v2.61a20,20,0,0,0-2.5-.13h-5.32v2.86a14.54,14.54,0,0,0,.13,2.46h-2.79a17.28,17.28,0,0,0,.13-2.5V40.22h-7.7a20.11,20.11,0,0,0-2.5.13V37.74a19.47,19.47,0,0,0,2.5.14h1.17Zm6.53,4.68V34.16H128.2v3.72Z"/><path class="cls-2" d="M146.64,38.31a26.76,26.76,0,0,1,5.16,5l-2.13,2a24.92,24.92,0,0,0-5-5.23Z"/><path class="cls-2" d="M168.48,27.76c0-1,0-1.83-.14-2.77a22,22,0,0,0,2.71.11h14.47a24.2,24.2,0,0,0,2.71-.11,23.9,23.9,0,0,0-.14,2.75V42.46a17.78,17.78,0,0,0,.14,3h-2.62V44.11H171v1.31h-2.62a21.85,21.85,0,0,0,.14-3ZM171,41.89h14.65V27.33H171Zm3.44-11a13.15,13.15,0,0,0-2.09.11V28.73a12.85,12.85,0,0,0,2.09.11h7.8a13.1,13.1,0,0,0,2.13-.11V31a13.55,13.55,0,0,0-2.13-.11h-2.92v2.38h2.36a10.91,10.91,0,0,0,2-.11v2.27a9.1,9.1,0,0,0-1.47-.12,11.5,11.5,0,0,1,1.44,2.23l-1.23.69a12,12,0,0,0,2.24-.14v2.38a15,15,0,0,0-2.15-.11h-8.3a13.88,13.88,0,0,0-2.18.11V38.13a11.69,11.69,0,0,0,2.18.14h2.75V35.35h-2a11.34,11.34,0,0,0-2,.12V33.2a11,11,0,0,0,2,.11h2V30.93Zm4.88,7.34h2.48a9.85,9.85,0,0,0-1.45-2.3l1.22-.62h-2.25Z"/><path class="cls-2" d="M199.75,27.1a20.49,20.49,0,0,0-.16-2.69h3a18.27,18.27,0,0,0-.16,2.69v4.15H207a26.14,26.14,0,0,0,3-.14v2.68a28,28,0,0,0-3-.13h-4.56V42h6a30.83,30.83,0,0,0,3.21-.14v2.73a24.85,24.85,0,0,0-3.21-.16H194.2a25.61,25.61,0,0,0-3.28.16V41.82a31.49,31.49,0,0,0,3.28.14h5.55v-8.3H195.6a28.34,28.34,0,0,0-3,.13V31.11a26.86,26.86,0,0,0,3,.14h4.15Z"/><path class="cls-2" d="M229,34.78A21,21,0,0,1,226,39.14a21.13,21.13,0,0,0,8.8,3.74,8.24,8.24,0,0,0-1.24,2.54c-4.28-1.19-6.85-2.43-9.4-4.54a26.69,26.69,0,0,1-9.08,4.63,8,8,0,0,0-1.26-2.41,23.11,23.11,0,0,0,8.55-3.92,18.74,18.74,0,0,1-3-4.49l2.06-1.33c.11.2.18.39.23.48a15.23,15.23,0,0,0,2.54,3.67,11.31,11.31,0,0,0,1.66-2.11,9.81,9.81,0,0,0,1.05-2.06Zm-6.88-4.17A18.67,18.67,0,0,1,219,34.23a23.63,23.63,0,0,1-3.37,2.61,8.26,8.26,0,0,0-1.72-2,14.8,14.8,0,0,0,6-5.44Zm.57-4.68a9.36,9.36,0,0,0-.13-1.65h2.84a8,8,0,0,0-.14,1.65v.8h6.22a21.92,21.92,0,0,0,2.84-.14v2.62a22,22,0,0,0-2.89-.14H216.88a21.53,21.53,0,0,0-2.86.14V26.59a22,22,0,0,0,2.86.14h5.85ZM228,29.37a14.71,14.71,0,0,0,2.71,2.82,15.8,15.8,0,0,0,3.8,2.22A8.68,8.68,0,0,0,233,36.64a19.66,19.66,0,0,1-4.13-2.82,17.5,17.5,0,0,1-2.94-3.19Z"/><path class="cls-2" d="M236.52,33a10,10,0,0,0,1.75.11h1.6a10,10,0,0,0,1.74-.11,22.86,22.86,0,0,0-.09,2.5v4.9a3.46,3.46,0,0,0,1.13,1.29,4,4,0,0,0,1.14.59,18.39,18.39,0,0,0,4.57.42,64.33,64.33,0,0,0,9.58-.6,15.16,15.16,0,0,0-.66,2.73c-3,.14-5.32.18-9.18.18a17,17,0,0,1-5.16-.57,5.58,5.58,0,0,1-2.66-2,3.21,3.21,0,0,1-.36.34A19.74,19.74,0,0,1,237.37,45l-1.24-2.52a13.16,13.16,0,0,0,3-2.21V35.4H238a7.83,7.83,0,0,0-1.47.11Zm1.77-8.4a27.23,27.23,0,0,1,4,4.15l-1.91,1.86a22.06,22.06,0,0,0-3.9-4.29Zm9.22,4.66A14.29,14.29,0,0,0,245.6,28l1.77-1h-2.18a17.05,17.05,0,0,0-2.38.12V24.76a20.55,20.55,0,0,0,2.73.14H253a11.05,11.05,0,0,0,2.59-.17l1.17,1.43a8.88,8.88,0,0,0-1.15.87,31.09,31.09,0,0,1-3,2.18h1.84a14.73,14.73,0,0,0,2.34-.12,24.09,24.09,0,0,0-.1,2.66v7.07c0,1.3-.09,1.76-.41,2.11s-1,.52-2.41.52c-.2,0-.59,0-1,0a5.68,5.68,0,0,0-.53-2.18,11.47,11.47,0,0,0,1.52.14c.5,0,.52,0,.52-.64v-.9h-3.44v1a15,15,0,0,0,.14,2.54h-2.54a18,18,0,0,0,.13-2.54v-1h-3.09V39a12,12,0,0,0,.14,2.5h-2.6a16.12,16.12,0,0,0,.12-2.5V31.78a26.71,26.71,0,0,0-.09-2.69,19.2,19.2,0,0,0,2.57.12Zm-1.95,1.95v1.49h3.09V31.16Zm0,4.86h3.09V34.48h-3.09Zm2-9c.83.58,1,.71,2.39,1.72A20.29,20.29,0,0,0,252.23,27Zm3.37,5.67h3.44V31.16h-3.44Zm3.44,1.83h-3.44V36h3.44Z"/><path class="cls-2" d="M276,30l-1.47,1A21.66,21.66,0,0,1,271,33c1.26,0,1.26,0,1.77,0H276c.8,0,1.38,0,2.16-.07a11.6,11.6,0,0,0-.09,1.95V43.2a14.49,14.49,0,0,0,.13,2.36h-2.61v-1h-9.72v1H263.2a17.61,17.61,0,0,0,.14-2.34V35.74c-1.08.28-1.93.48-3.21.71a10.89,10.89,0,0,0-1.08-2.36,29.6,29.6,0,0,0,7-1.42,21.81,21.81,0,0,0,6.79-3.26A6.2,6.2,0,0,0,274,28.36Zm-9.54-3.88a17.6,17.6,0,0,1-2.59,3.42,16.07,16.07,0,0,1-2.69,2.31A12.7,12.7,0,0,0,259.46,30a12.84,12.84,0,0,0,2.94-2.34A10.2,10.2,0,0,0,264.28,25Zm5-2a7.19,7.19,0,0,0-.12,1.55v3.24a1.93,1.93,0,0,1-1.19,1.93,5.53,5.53,0,0,1-2.16.29c-.39,0-.89,0-1.69-.07a5.79,5.79,0,0,0-.67-2.15,14.79,14.79,0,0,0,2.27.18c.87,0,1-.07,1-.46V25.72a10.28,10.28,0,0,0-.11-1.6ZM265.82,35v1.19h9.72V34.87h-9.22Zm0,4.36h9.72V38h-9.72Zm0,3.26h9.72V41.2h-9.72Zm9.51-17.73a14.47,14.47,0,0,0,2.34,2.31,14.9,14.9,0,0,0,3.08,2,12.09,12.09,0,0,0-1.66,1.93,18.11,18.11,0,0,1-3.16-2.37,16.87,16.87,0,0,1-2.5-2.68Z"/><path class="cls-2" d="M294.31,32.28a15.76,15.76,0,0,0,9.63,10.37,9.58,9.58,0,0,0-1.68,2.63,18.72,18.72,0,0,1-5.66-4.19,17.18,17.18,0,0,1-3.46-5.55,13.91,13.91,0,0,1-3.74,6.14,16.85,16.85,0,0,1-5.48,3.6,8.79,8.79,0,0,0-1.61-2.4,16.92,16.92,0,0,0,3.72-2,11.67,11.67,0,0,0,5.16-8.65h-5.42a17.87,17.87,0,0,0-2.86.16V29.53a18.66,18.66,0,0,0,2.89.16h5.62c0-1.15.06-1.52.06-2.71a14.26,14.26,0,0,0-.16-2.29h3a17.31,17.31,0,0,0-.16,2.68c0,.94,0,1.47,0,2.32h6.07a19.73,19.73,0,0,0,2.89-.16v2.91a21,21,0,0,0-2.86-.16Z"/><path class="cls-2" d="M317.77,42h5.71a20.51,20.51,0,0,0,2.57-.11v2.64a14.6,14.6,0,0,0-2.57-.16h-14v1.07h-2.66a18,18,0,0,0,.14-2.66V27.46a23.81,23.81,0,0,0-.1-2.4,22.61,22.61,0,0,0,2.46.09h13.71a18.93,18.93,0,0,0,2.64-.14v2.61a15.3,15.3,0,0,0-2.57-.13h-5.39V30.7h4.68a17.47,17.47,0,0,0,2.06-.09,14.07,14.07,0,0,0-.09,1.9v4.13a15.13,15.13,0,0,0,.09,2,16.38,16.38,0,0,0-2.06-.09h-4.66Zm-2.52-11.3V27.49h-5.73V30.7Zm6.67,5.52V33h-12.4v3.23Zm-12.4,2.3V42h5.75V38.52Z"/><path class="cls-2" d="M328.4,28.17a9,9,0,0,0,1.83.12h4.41a11.53,11.53,0,0,0,1.83-.09v2.34a15.56,15.56,0,0,0-1.74-.07h-4.5a14.15,14.15,0,0,0-1.83.09Zm.76-3.23a10.22,10.22,0,0,0,1.85.12h3.05a10.48,10.48,0,0,0,1.86-.12v2.29a16.64,16.64,0,0,0-1.86-.09H331a16,16,0,0,0-1.85.09Zm6.65,18.44a10.9,10.9,0,0,0,.09,1.77h-2.18v-.81h-2.27v1.13h-2.29c.06-.76.11-1.52.11-2.25V39.83a15.3,15.3,0,0,0-.09-1.82,12.2,12.2,0,0,0,1.79.1h3.35a12.34,12.34,0,0,0,1.55-.07,14.72,14.72,0,0,0-.06,1.65v2.86a12.49,12.49,0,0,0,1.42-5.29l2,.43A21.1,21.1,0,0,1,337.66,44l-1.85-1.1Zm-6.59-11.79a11,11,0,0,0,1.45.07h3.78a9,9,0,0,0,1.4-.07v2.13c-.5,0-.75-.06-1.4-.06h-3.78a13.1,13.1,0,0,0-1.45.06Zm0,3.21a11,11,0,0,0,1.45.07h3.76a9.09,9.09,0,0,0,1.42-.07v2.14a10.79,10.79,0,0,0-1.44-.07h-3.76a11.54,11.54,0,0,0-1.43.07Zm2.16,7.53h2.34V40h-2.34Zm6.47-14c1.28.41,1.74.59,2.61.94a8.06,8.06,0,0,0,.37-1.86h-1.51a15.7,15.7,0,0,0-2.46.12V25.13a20,20,0,0,0,2.5.13h7.29a17.77,17.77,0,0,0,2.16-.09c-.05.37-.05.39-.14,2a36.19,36.19,0,0,1-.62,5.73c-.41,1.81-1.05,2.29-2.93,2.29a15.34,15.34,0,0,1-1.81-.09,8.37,8.37,0,0,0-.58-2.29l.14,0c-.55-.36-.8-.52-1.28-.78a11.3,11.3,0,0,1-4.22,4,7.79,7.79,0,0,0-1.61-1.83,8.16,8.16,0,0,0,3.85-3.17c-1-.41-1.4-.59-2.7-1Zm4,13.94c0,.53.11.6,1,.6,1.31,0,1.61-.07,1.77-.41a9,9,0,0,0,.25-2.5,8.34,8.34,0,0,0,2.13.71c-.25,3.94-.66,4.38-4,4.38-2.82,0-3.4-.28-3.4-1.7V38.66a14,14,0,0,0-.11-1.7H342a6.71,6.71,0,0,0-.11,1.47Zm.2-8.14a19.77,19.77,0,0,1,3.56,3.19l-1.72,1.49a13.79,13.79,0,0,0-3.46-3.39Zm1.08-6.72a12.14,12.14,0,0,1-.64,2.78c.67.34,1,.5,1.93,1l-1,1.7a9.34,9.34,0,0,0,1.26.09c.71,0,.94-.19,1.15-1a23.31,23.31,0,0,0,.45-4.61Zm4.5,9.61a28.2,28.2,0,0,1,2.52,5.34l-1.95,1.2A17.39,17.39,0,0,0,345.76,38Z"/><path class="cls-2" d="M360.83,33.15h-3.37a15,15,0,0,0-2.31.12V30.84a15.62,15.62,0,0,0,2.31.11h8.79a16.47,16.47,0,0,0,2.36-.11v2.43a15.19,15.19,0,0,0-2.36-.12h-3v2.94h4.34a12.07,12.07,0,0,0,2.24-.14V38.4a15.64,15.64,0,0,0-2.24-.11h-4.34v3.94a27,27,0,0,0,3.74.23c1.33,0,2.89-.07,5.23-.27a8.69,8.69,0,0,0-.64,2.61c-1.88.05-3.08.07-4.89.07-5.36,0-8.37-1.17-10.25-3.94a16.08,16.08,0,0,1-3.14,4.49,6.27,6.27,0,0,0-2-1.88,13.57,13.57,0,0,0,3.94-6.49,14.11,14.11,0,0,0,.46-2.48l2.55.48c-.12.4-.12.42-.33,1.36-.11.46-.25,1-.59,2.06a6.67,6.67,0,0,0,3.48,3.19Zm-.39-7.36a7.66,7.66,0,0,0-.13-1.47h2.82a7.08,7.08,0,0,0-.12,1.45v.87h6.19c.92,0,1.7,0,2.55-.09a12.31,12.31,0,0,0-.09,1.69V30a14.58,14.58,0,0,0,.09,1.79h-2.48V29H354.46v2.87h-2.55A10.23,10.23,0,0,0,352,30V28.24c0-.59,0-1.17-.09-1.69.82.07,1.6.09,2.52.09h6Z"/><path class="cls-2" d="M375.86,27.07a27.36,27.36,0,0,0,5.32.3,9,9,0,0,0,.92-2.84l3,.32a21.81,21.81,0,0,0-.91,2.06c-.12.26-.16.32-.21.42a13.73,13.73,0,0,1,1.45-.1,31.54,31.54,0,0,0,6-.77l.16,2.61c-.64.05-.64.05-1.81.18-1.67.21-4.58.39-6.9.46a11.91,11.91,0,0,1-2.11,3l0,.05.46-.35a5.58,5.58,0,0,1,3.24-1,3,3,0,0,1,3.27,2.43c1.77-.64,2.94-1,3.51-1.24a7.1,7.1,0,0,0,1.7-.68l1.08,2.63a23.14,23.14,0,0,0-2.55.62c-.32.09-1.46.48-3.44,1.17v.25c0,.6,0,.6,0,.92v.92c0,.39,0,.6,0,.76a10.54,10.54,0,0,0,.07,1.21l-2.66.07a18.27,18.27,0,0,0,.14-2.66v-.55a14.63,14.63,0,0,0-2.2,1.19,2.42,2.42,0,0,0-1.2,1.88c0,1.2,1.11,1.68,3.88,1.68a19.89,19.89,0,0,0,6.74-1l.23,3a7.93,7.93,0,0,0-1.05.09,40.48,40.48,0,0,1-5.87.42c-2.43,0-3.95-.28-5.12-1a3.31,3.31,0,0,1-1.67-3,3.64,3.64,0,0,1,1-2.55c1-1.28,2.34-2.16,4.93-3.23a1.27,1.27,0,0,0-1.4-1.24c-1.33,0-2.94.8-4.7,2.36a10.28,10.28,0,0,0-2,2.09L375.11,36a14.3,14.3,0,0,0,2.06-2A30.67,30.67,0,0,0,379.92,30a1.31,1.31,0,0,1,.18-.3l-.39,0-2.88,0-.65,0a2.79,2.79,0,0,0-.36,0Z"/><path class="cls-2" d="M407,43a16.16,16.16,0,0,0,.13,2.48h-2.68a20.41,20.41,0,0,0,.14-2.48V40.88c-2.29.69-3.85,1.1-4.89,1.31a11.94,11.94,0,0,0-1.83.48l-.64-2.62a10.49,10.49,0,0,0,1.76-.22V27.3c-.78,0-1,.05-1.53.1V24.92a18.31,18.31,0,0,0,2.06.11h7a13.94,13.94,0,0,0,2.08-.11v1.42c.42,0,.9.05,1.47.05h6a16.29,16.29,0,0,0,1.86-.12c-.05.3-.1.76-.16,1.45a27.08,27.08,0,0,1-3.28,10.89,13.74,13.74,0,0,0,4.42,4,12.46,12.46,0,0,0-1.37,2.57A16.81,16.81,0,0,1,413,40.88a18.27,18.27,0,0,1-4.61,4.36,10,10,0,0,0-1.4-2.55Zm-5.6-13.18h3.19V27.3h-3.19Zm0,4.49h3.19V31.87h-3.19Zm0,5a30.6,30.6,0,0,0,3.19-.74V36.41h-3.19Zm5.6,3.28a14.25,14.25,0,0,0,4.58-4,21.65,21.65,0,0,1-1.69-4.1,28.5,28.5,0,0,1-1.06-5.81c-.43,0-.59.05-1,.09V27.33a6.09,6.09,0,0,0-.87,0Zm4.17-14A21.68,21.68,0,0,0,413,36.2a23.4,23.4,0,0,0,2.16-7.52Z"/><path class="cls-2" d="M422.5,38.31c0-.92,0-1.49.05-2.45a10.86,10.86,0,0,1-1.79,1.72,10.69,10.69,0,0,0-1.08-2.43,15.13,15.13,0,0,0,4.1-4.11,10.52,10.52,0,0,0,1-1.88l2.06,1.45c-.21.29-.28.39-.46.68a17,17,0,0,1-1.49,2.11v9.43a17.62,17.62,0,0,0,.12,2.59h-2.69A16.79,16.79,0,0,0,422.5,43Zm4.22-12.77a20.16,20.16,0,0,1-2,2.36,17.16,17.16,0,0,1-3.53,2.82,6.84,6.84,0,0,0-1.33-2.09,11.52,11.52,0,0,0,4.79-4.56ZM428,39.05a18.53,18.53,0,0,0-2.15.09V36.8a14.28,14.28,0,0,0,2.17.11h7.64V35.77h-7.38a18.5,18.5,0,0,0-2.16.09V33.63a15.89,15.89,0,0,0,2.18.09h10.25a14.13,14.13,0,0,0,2.23-.11v2.25a18.88,18.88,0,0,0-2.18-.09h-.51v1.14h.6a15.38,15.38,0,0,0,2.25-.11v2.36a14.5,14.5,0,0,0-2.18-.11h-.67v4c0,1.67-.66,2.13-3.09,2.13-.46,0-1.31,0-2.37-.07a8.11,8.11,0,0,0-.55-2.27l-1.19,1.06a13.66,13.66,0,0,0-3-3.67l1.65-1.19Zm1.88-6.33c-.89,0-1.7,0-2.13.06,0-.68.07-1.21.07-2.24V27.1c0-1,0-1.43-.07-2.11a19.63,19.63,0,0,0,2.31.09h7.09a19.16,19.16,0,0,0,2.34-.09,20.47,20.47,0,0,0-.09,2.24v3.31a19.47,19.47,0,0,0,.09,2.24c-.53,0-1.33-.06-2.11-.06Zm.23,6.33a21.19,21.19,0,0,1,2.78,3.09l-.58.51a24.55,24.55,0,0,0,2.5.23c.69,0,.85-.1.85-.55V39.05Zm.07-11H437V27h-6.79Zm0,2.87H437V29.8h-6.79Z"/><path class="cls-6" d="M79.38,122.14a22.2,22.2,0,0,0-3,.11,12,12,0,0,1,.6-3,11.53,11.53,0,0,1,3.2-4.57A31.53,31.53,0,0,1,84,111.88c2.15-1.47,2.8-2.24,2.8-3.43,0-1.58-1.24-2.56-3.22-2.56a3.29,3.29,0,0,0-3,1.37,4.5,4.5,0,0,0-.72,2.15l-3.34-.4a7,7,0,0,1,1.61-3.73,6.79,6.79,0,0,1,5.34-2.07c4.08,0,6.6,2,6.6,5.15a4.73,4.73,0,0,1-1.65,3.73A31.2,31.2,0,0,1,84.56,115a20.43,20.43,0,0,0-2.78,2.33,5.52,5.52,0,0,0-1.32,2.1H87a24,24,0,0,0,3.41-.19v3.08c-1.1-.1-2-.14-3.52-.14Z"/><path class="cls-6" d="M95.35,121.67l-1.86-1.86,4.36-4.36-4.39-4.36,1.87-1.87,4.38,4.36,4.36-4.36,1.87,1.87-4.36,4.36,4.36,4.36-1.87,1.86-4.36-4.36Z"/><path class="cls-6" d="M123.72,118a18.47,18.47,0,0,0-2.33-.17h-.84v1.66a14.51,14.51,0,0,0,.19,2.66h-3.31a14.89,14.89,0,0,0,.19-2.71v-1.61h-6.46c-1.38,0-2.12,0-2.92.1v-2.87c.8-.86,1.05-1.17,1.87-2.15l5.52-6.76a21.78,21.78,0,0,0,1.94-2.56h3.15a32.64,32.64,0,0,0-.17,3.94v7.65h.82a14.85,14.85,0,0,0,2.35-.17Zm-6.08-7.63a24.53,24.53,0,0,1,.12-2.79c-.47.67-.75,1-1.59,2.07l-4.48,5.55h6Z"/><path class="cls-6" d="M133.91,105a2.27,2.27,0,0,0-.11.46l-.05.4-.12.68-.07.56c-1,6.69-2.8,11.28-5.92,14.87a10,10,0,0,0-2.66-2,15.81,15.81,0,0,0,3.34-5,28.69,28.69,0,0,0,2.19-8,17,17,0,0,0,.21-2.26v-.33Zm6.62-.59a30.05,30.05,0,0,0,1,5.37,22.71,22.71,0,0,0,5.2,10.07,9.57,9.57,0,0,0-2.56,2.14c-3.1-3.7-5.27-9.07-6.18-15.34a9.51,9.51,0,0,0-.33-1.68Zm6.63,1.38a2.7,2.7,0,1,1-2.71-2.68A2.71,2.71,0,0,1,147.16,105.77Zm-4.23,0a1.53,1.53,0,1,0,1.52-1.52A1.52,1.52,0,0,0,142.93,105.77Z"/><path class="cls-6" d="M157.43,123.35a13.26,13.26,0,0,0,.14-2.08v-6.08a3.55,3.55,0,0,1-.69.44,36.92,36.92,0,0,1-6.58,2.61,9.41,9.41,0,0,0-1.38-2.54,28.79,28.79,0,0,0,6.49-2.17,24.74,24.74,0,0,0,7.22-4.94h-.49c-.14,0-.14,0-8.53.07a16.15,16.15,0,0,0-2.47.12V106a12,12,0,0,0,2.49.21h3.9v-1.92a10.55,10.55,0,0,0-.12-1.67h3.13a7.05,7.05,0,0,0-.12,1.63v1.93h3.94a4.87,4.87,0,0,0,1.58-.21l1.36,1.59a5.21,5.21,0,0,0-1,1,30,30,0,0,1-4.75,4.36,38.22,38.22,0,0,1,8.13,3.66L168.11,119a41.66,41.66,0,0,0-7.11-3.73c-.3-.14-.35-.14-.58-.26,0,.28.05.94.05,1.15v5.12a11.12,11.12,0,0,0,.11,2.08Z"/><path class="cls-6" d="M179.51,103.79a50.79,50.79,0,0,0-.23,5.22c-.16,4.55-.68,7.18-1.89,9.58a14.85,14.85,0,0,1-3.22,4.32,8.22,8.22,0,0,0-2.35-2.26,9.74,9.74,0,0,0,2.4-2.69c1.68-2.68,2.21-5.69,2.21-12.21a12,12,0,0,0-.09-2.12Zm6.18-.28a12,12,0,0,0-.16,2.21L185.41,119a9.38,9.38,0,0,0,3.57-2.66,11.35,11.35,0,0,0,2.28-4.26,10.11,10.11,0,0,0,2.19,2.19,14.47,14.47,0,0,1-3.7,5.43,15.5,15.5,0,0,1-5,2.8,8.65,8.65,0,0,0-1,.42l-1.49-1.59a11,11,0,0,0,.21-2.47l.11-13.15V105a10.13,10.13,0,0,0-.09-1.54Z"/><path class="cls-6" d="M205.27,116.42c-1.33,3-2.82,4.39-4.73,4.39-2.66,0-4.57-2.71-4.57-6.46a10,10,0,0,1,2.57-6.78,10.43,10.43,0,0,1,8-3.27c5.59,0,9.23,3.41,9.23,8.65a9,9,0,0,1-5.67,8.7,15.59,15.59,0,0,1-3.66,1A7.26,7.26,0,0,0,205,119.9a12.45,12.45,0,0,0,4.64-1.28,6.53,6.53,0,0,0,3.24-5.83,5.77,5.77,0,0,0-2.87-5.18,5.16,5.16,0,0,0-2.35-.7A33.76,33.76,0,0,1,205.27,116.42Zm-3.42-8.34a7.81,7.81,0,0,0-3.18,6.29c0,1.92.82,3.43,1.85,3.43.77,0,1.56-1,2.4-3a31,31,0,0,0,1.93-7.88A5.86,5.86,0,0,0,201.85,108.08Z"/><path class="cls-6" d="M228,116.73a7.28,7.28,0,0,0-.09-1.31l-1.21,0h-2.8c-.91,0-1.38,0-2,.07a19.25,19.25,0,0,0,.07-2v-2.8a11.6,11.6,0,0,1-2,4.71,6.49,6.49,0,0,0-1.68-2c1.4-1.75,2-4.29,2-8.79a12.15,12.15,0,0,0-.09-1.8c.49,0,1.12.07,2.07.07h4.36c.89,0,1.57,0,2-.07a11.57,11.57,0,0,0-.09,1.8v2.14a15.11,15.11,0,0,0,.05,1.77c-.28,0-1,0-1.78,0h-4.5c-.09.81-.09.81-.14,1.28a10.25,10.25,0,0,0,1.36,0h3a11.22,11.22,0,0,0,2-.1c0,.49,0,.8,0,1.87v2.07a15.31,15.31,0,0,0,0,1.64h2.1a4.9,4.9,0,0,0-.14,1.42V117h4.83a12.18,12.18,0,0,0,2.4-.14v2.31a18.24,18.24,0,0,0-2.4-.11h-4.83v1.86h6.39a20.47,20.47,0,0,0,2.68-.11v2.42a25.8,25.8,0,0,0-2.87-.14h-15a26.07,26.07,0,0,0-2.85.14v-2.42c.7.06,1.5.11,2.71.11H228V119h-4.8a18.15,18.15,0,0,0-2.4.11v-2.31a12.12,12.12,0,0,0,2.4.14H228Zm-1.82-10.12v-1.75H222.5v.56a7.63,7.63,0,0,1-.07,1.19Zm-2.3,6.92h2.49v-1.91h-2.49Zm9-10a7.61,7.61,0,0,0-.12-1.38h2.59a5.35,5.35,0,0,0-.12,1.4v.24h1.8a17.37,17.37,0,0,0,2.14-.12V106a10.21,10.21,0,0,0-1.37-.1,14.32,14.32,0,0,1-.91,2.33h.91a11.05,11.05,0,0,0,1.91-.11v2.24a15.26,15.26,0,0,0-2-.1h-2.45v1.61h2a11.18,11.18,0,0,0,1.74-.09V114a9.84,9.84,0,0,0-1.79-.11h-2v.23a10.71,10.71,0,0,0,.14,2h-2.61a13,13,0,0,0,.11-2v-.23h-1.7a11.25,11.25,0,0,0-1.79.11v-2.21a12.85,12.85,0,0,0,1.84.09h1.65v-1.61h-2.1a15.33,15.33,0,0,0-1.93.1V108.1a12,12,0,0,0,1.82.09h.63a12.55,12.55,0,0,0-1-2.33,8.33,8.33,0,0,0-1.14.1v-2.24a16.77,16.77,0,0,0,2.12.12h1.54Zm1.89,4.61a9.93,9.93,0,0,0,.74-2.33h-2.89a14.16,14.16,0,0,1,.82,2.33Z"/><path class="cls-6" d="M241.94,109.5a17.8,17.8,0,0,0,2.45.12h16.28a16.43,16.43,0,0,0,2.42-.12v2a15.52,15.52,0,0,0-2.33-.11H244.37a17.23,17.23,0,0,0-2.43.11Zm4.71,8.51c-.93,0-1.51,0-2.14.07,0-.54.07-.91.07-1.86v-2.31c0-.75,0-1.17-.07-1.73a16.79,16.79,0,0,0,2.21.09h11.64a18.16,18.16,0,0,0,2.17-.09,15.68,15.68,0,0,0-.07,1.68v2.38a16.42,16.42,0,0,0,.07,1.84c-.66,0-1.33-.07-2.15-.07h-4.73v.84h5.85a12.71,12.71,0,0,0,1.93-.09v1.84a16.26,16.26,0,0,0-2.07-.09h-5.71v.83h6.78a21.35,21.35,0,0,0,2.66-.11v2.07a21.89,21.89,0,0,0-2.66-.14H244.6a18.9,18.9,0,0,0-2.66.14v-2.07a21.16,21.16,0,0,0,2.66.11h6.6v-.83h-5.43a16.24,16.24,0,0,0-2.08.09v-1.84a12.94,12.94,0,0,0,1.94.09h5.57V118Zm-.28-9.26c-1.23,0-1.77,0-2.35.07a13.77,13.77,0,0,0,.09-1.91v-2.24a14,14,0,0,0-.09-1.86,23.52,23.52,0,0,0,2.47.09h12.05a22.75,22.75,0,0,0,2.45-.09,13.07,13.07,0,0,0-.09,1.86v2.24a14.23,14.23,0,0,0,.09,1.91c-.6,0-1.09-.07-2.35-.07Zm.12-1.46h12v-.77h-12Zm0-2.1h12v-.77h-12Zm.42,8.55v.82h4.27v-.82Zm0,2.1v.77h4.27v-.77Zm6.72-1.28h4.45v-.82h-4.45Zm0,2h4.45v-.77h-4.45Z"/><path class="cls-6" d="M266.77,105.09a28,28,0,0,0,5.41.31,9.14,9.14,0,0,0,.93-2.89l3.06.32a19.29,19.29,0,0,0-.93,2.1c-.12.26-.17.33-.21.42l1.46-.09a31.29,31.29,0,0,0,6.11-.8l.17,2.66c-.66,0-.66,0-1.85.19-1.7.21-4.66.4-7,.46a12.12,12.12,0,0,1-2.15,3.11l0,0a4.07,4.07,0,0,0,.47-.35,5.66,5.66,0,0,1,3.29-1,3.07,3.07,0,0,1,3.33,2.48q2.7-1,3.57-1.26a8,8,0,0,0,1.73-.7l1.09,2.68a20.28,20.28,0,0,0-2.59.63c-.32.09-1.49.49-3.49,1.19v.25c0,.61,0,.61,0,.94v.93c0,.39,0,.6,0,.77a8.88,8.88,0,0,0,.07,1.23l-2.71.07a18.92,18.92,0,0,0,.14-2.7v-.56a14.69,14.69,0,0,0-2.24,1.21,2.48,2.48,0,0,0-1.21,1.91c0,1.22,1.12,1.71,3.94,1.71a20.29,20.29,0,0,0,6.86-1l.23,3a6.94,6.94,0,0,0-1.07.1,43.33,43.33,0,0,1-6,.42c-2.47,0-4-.28-5.2-1a3.39,3.39,0,0,1-1.7-3,3.74,3.74,0,0,1,1-2.59c1.05-1.3,2.38-2.19,5-3.29a1.27,1.27,0,0,0-1.42-1.25c-1.35,0-3,.81-4.78,2.4a10.59,10.59,0,0,0-2,2.12l-2.12-2.1a14.72,14.72,0,0,0,2.1-2.07,32.2,32.2,0,0,0,2.8-4,1,1,0,0,1,.19-.31l-.4,0-2.94,0-.65,0a3.15,3.15,0,0,0-.38,0Z"/><path class="cls-6" d="M303.51,118a18.47,18.47,0,0,0-2.33-.17h-.84v1.66a14.51,14.51,0,0,0,.19,2.66h-3.31a14.89,14.89,0,0,0,.19-2.71v-1.61H291c-1.38,0-2.12,0-2.92.1v-2.87c.8-.86,1.05-1.17,1.87-2.15l5.52-6.76a21.78,21.78,0,0,0,1.94-2.56h3.15a32.64,32.64,0,0,0-.17,3.94v7.65h.82a14.85,14.85,0,0,0,2.35-.17Zm-6.08-7.63a24.53,24.53,0,0,1,.12-2.79c-.47.67-.75,1-1.59,2.07l-4.48,5.55h5.95Z"/><path class="cls-6" d="M305.52,122.14v-3.41h3.4v3.41Z"/><path class="cls-6" d="M314.66,117.08a3,3,0,0,0,1.09,1.91,4.38,4.38,0,0,0,2.82.91c2.31,0,3.78-1.19,3.78-3a2.74,2.74,0,0,0-1.3-2.45,6,6,0,0,0-2.69-.56,18.61,18.61,0,0,0-2.49.12v-2.89a16.63,16.63,0,0,0,2.26.11c2.33,0,3.71-1.07,3.71-2.86,0-1.61-1.1-2.52-3.08-2.52a3.87,3.87,0,0,0-2.54.72,3.39,3.39,0,0,0-1,1.8l-3.33-.57a5.75,5.75,0,0,1,2.21-3.33,7.6,7.6,0,0,1,4.57-1.28c3.89,0,6.41,2,6.41,5a4.24,4.24,0,0,1-1.61,3.43,5.72,5.72,0,0,1-2.26.9,4.94,4.94,0,0,1,3.34,1.57,4.46,4.46,0,0,1,1.11,3.21,5,5,0,0,1-1.39,3.41,8.09,8.09,0,0,1-5.74,1.89c-2.73,0-4.59-.7-5.92-2.22a6.18,6.18,0,0,1-1.31-2.61Z"/><path class="cls-6" d="M330.14,114.54c0-1.12,0-1.64,0-2.59a11.5,11.5,0,0,1-1.7,2.31,10.22,10.22,0,0,0-1.07-2.78,18.24,18.24,0,0,0,3.94-6.53,14.64,14.64,0,0,0,.81-3l2.57.75a11.92,11.92,0,0,0-.37,1.14,32.35,32.35,0,0,1-1.73,4.29v12.89a21.93,21.93,0,0,0,.12,2.71H330a22.58,22.58,0,0,0,.14-2.77Zm16-9.89a17.48,17.48,0,0,0,2.57-.12v2.55a13.24,13.24,0,0,0-2.36-.12h-1.74l2,.54a23.91,23.91,0,0,1-1.71,3.38H347a21,21,0,0,0,2.38-.12v2.54a15,15,0,0,0-2.38-.12H335.57a12,12,0,0,0-2,.12v-2.52a12.43,12.43,0,0,0,1.94.1h2a20.66,20.66,0,0,0-1.31-3.27l1.87-.65h-1.33a12.52,12.52,0,0,0-2.33.12v-2.55a15.81,15.81,0,0,0,2.51.12H340V104a11.6,11.6,0,0,0-.12-1.65h2.85a8.88,8.88,0,0,0-.12,1.63v.72Zm-8.41,19h-2.61a19.71,19.71,0,0,0,.11-2.29v-4.61a16.64,16.64,0,0,0-.09-1.94,14.55,14.55,0,0,0,1.86.09h8.65a10.34,10.34,0,0,0,1.73-.09,15,15,0,0,0-.09,2v4.67a14.68,14.68,0,0,0,.11,2.17h-2.7v-1.22h-7Zm0-3.5h7v-3h-7Zm4.57-9.23A17.61,17.61,0,0,0,344,107h-5.36a21.93,21.93,0,0,1,1.28,3.26l-1.77.66Z"/><path class="cls-6" d="M353.61,122.58a10.7,10.7,0,0,0-.11-1.1,39.94,39.94,0,0,1-.61-7,44.5,44.5,0,0,1,1-9.11,17,17,0,0,0,.35-2.17l3.07.32a32.62,32.62,0,0,0-1.47,7,40.49,40.49,0,0,0-.35,5.15c0,.51,0,.7,0,1.28a22.9,22.9,0,0,1,1.21-3.08l1.87.84a19,19,0,0,0-2.08,7.07c0,.14,0,.32,0,.63Zm9.93-9.21a5.3,5.3,0,0,0-1.65,3.36c0,1.33,1.28,2,3.71,2a16.39,16.39,0,0,0,5.55-.89l.23,3a7.83,7.83,0,0,0-1,.14,28.92,28.92,0,0,1-4.82.44c-2.89,0-4.76-.65-5.79-2a4,4,0,0,1-.7-2.29,7.6,7.6,0,0,1,2.15-4.8Zm-3.84-7.72A16.7,16.7,0,0,0,364,106a25.67,25.67,0,0,0,6.34-.63l.14,2.82-1.65.21a43.22,43.22,0,0,1-5,.28,27.35,27.35,0,0,1-4.2-.26Z"/><path class="cls-6" d="M380.12,113.37a13.32,13.32,0,0,0,1.63-.07c-.05.47-.05.63-.07,1.12a32.56,32.56,0,0,1-.58,6.18c-.3,1.42-.75,2.14-1.56,2.54a4.88,4.88,0,0,1-2,.3c-.72,0-1.33,0-2,0a10.69,10.69,0,0,0-.49-2.59,15.59,15.59,0,0,0,2.28.21c.87,0,1.15-.12,1.31-.58a15.47,15.47,0,0,0,.65-4.88h-2.68c-.63,0-1.07,0-1.61,0a43.44,43.44,0,0,0,.7-7.42,11.68,11.68,0,0,0,1.94.1h1.77v-2.85h-2.28a14.38,14.38,0,0,0-2,.1V103a9.68,9.68,0,0,0,2.16.14H380a17.86,17.86,0,0,0,1.79-.07,14.22,14.22,0,0,0-.07,1.77v3.5c0,.7,0,1.42.07,2.17a14.48,14.48,0,0,0-1.65-.07H378c-.16,2-.16,2-.28,2.89Zm7.53-4.52c-3.1.16-4.8.28-5.08.32l-.26-2.44a10.4,10.4,0,0,0,1.21.07l.68,0a20.75,20.75,0,0,0,2.14-4.5l2.69.49c-.26.52-.26.52-.87,1.63a22,22,0,0,1-1.37,2.31c1.72-.09,3.38-.18,4.94-.3-.54-.7-.89-1.1-1.82-2.15l1.94-1a35.09,35.09,0,0,1,4.24,5.29l-2,1.4c-.44-.79-.63-1-.93-1.54-1.28.14-2.05.21-3.17.3v2h3.15a14.07,14.07,0,0,0,1.86-.09,8.86,8.86,0,0,0-.09,1.63v3.48a11,11,0,0,0,.09,1.81,16.67,16.67,0,0,0-1.93-.09H390v2.75c1.26-.14,1.26-.14,2.45-.3-.24-.42-.42-.72-.82-1.38l2-.81a27.09,27.09,0,0,1,2.77,5.29l-2.19.91c-.4-1.07-.54-1.47-.82-2-2.84.46-6.83,1-9.63,1.28-1.09.12-1.14.12-1.56.19l-.4-2.66a3.7,3.7,0,0,0,.7.05c1,0,3.11-.12,5.18-.28v-3h-2.8a16.54,16.54,0,0,0-2,.09c0-.55.09-1.14.09-1.84V112.3c0-.61-.05-1.19-.09-1.73.58.05,1.07.07,2,.07h2.84Zm-2.49,3.84v2.62h2.49v-2.62Zm4.8,2.62h2.66v-2.62H390Z"/><path class="cls-6" d="M401.29,114.37c0-.81,0-1.05,0-2.61a23.54,23.54,0,0,1-2.4,3A11.51,11.51,0,0,0,397.7,112a20.27,20.27,0,0,0,3.26-4.15,17.78,17.78,0,0,0,2.36-5.78l2.72.79c-.21.47-.3.73-.51,1.28a42.8,42.8,0,0,1-1.68,4.06v12.52c0,1,0,2,.14,3h-2.87a24.71,24.71,0,0,0,.17-3Zm9.23,5.62c0,.63.42.77,2.29.77,2.09,0,2.93-.14,3.24-.51.39-.54.53-1.45.65-4.27a11.2,11.2,0,0,0,2.52.91c-.19,2.89-.52,4.43-1.08,5.13-.72.89-2,1.14-5.78,1.14s-4.47-.39-4.47-2.51V105.28a22.55,22.55,0,0,0-.14-2.8h2.91a22.32,22.32,0,0,0-.14,2.8v5.2a20.34,20.34,0,0,0,6.37-5l2,2-.51.42a35.53,35.53,0,0,1-7.88,5.45Z"/></svg>