<svg id="レイヤー_1" data-name="レイヤー 1" xmlns="http://www.w3.org/2000/svg" viewBox="0 0 260 65"><defs><style>.cls-1{fill:#231815;}.cls-2{fill:none;stroke:#231815;stroke-miterlimit:10;}</style></defs><path class="cls-1" d="M219.13.37c4.31,0,5.21,0,7.26-.21A77.49,77.49,0,0,0,226,8.52V36.65a72.81,72.81,0,0,0,.42,8.62H212.82a71.27,71.27,0,0,0,.42-8.62V11.15a75.93,75.93,0,0,0-8.88.37V0a42.38,42.38,0,0,0,7,.37Z"/><path class="cls-1" d="M27.2,19.31A17.53,17.53,0,0,0,37.9,30.82,10.43,10.43,0,0,0,36,33.75a20.63,20.63,0,0,1-6.29-4.66,19.29,19.29,0,0,1-3.85-6.16,15.32,15.32,0,0,1-4.15,6.82,18.8,18.8,0,0,1-6.09,4,9.84,9.84,0,0,0-1.78-2.68A18,18,0,0,0,18,28.91a13,13,0,0,0,5.73-9.6h-6a19.14,19.14,0,0,0-3.19.18V16.25a19.81,19.81,0,0,0,3.21.18H24c.05-1.27.08-1.68.08-3a17.25,17.25,0,0,0-.18-2.55h3.36a20.47,20.47,0,0,0-.18,3c0,1,0,1.63-.05,2.57h6.75A20.8,20.8,0,0,0,37,16.25v3.24a22.21,22.21,0,0,0-3.18-.18Z"/><path class="cls-1" d="M42.32,13.6a21.94,21.94,0,0,0-.15-2.92H45.1a17.62,17.62,0,0,0-.15,3v3.26h.56a9,9,0,0,0,1.7-.1v2.67a12.41,12.41,0,0,0-1.78-.1H45v6.93c1-.46,1.27-.59,2.42-1.17l.07,2.69a42.42,42.42,0,0,1-6.29,2.83c-.71.28-.94.38-1.32.56l-.54-2.93a13.16,13.16,0,0,0,3-.91v-8h-.58a10.59,10.59,0,0,0-2,.13V16.76a10.13,10.13,0,0,0,2,.13h.58Zm9.15,16.23c0,.51.18.68.74.79a20.93,20.93,0,0,0,3.46.17c3,0,3.84-.12,4.23-.66s.45-1.3.45-3a13.26,13.26,0,0,0,2.78.84c-.3,5.1-.84,5.45-8.1,5.45-5.14,0-6.26-.48-6.26-2.72V21.91l-.51.15a14.59,14.59,0,0,0-1.56.58l-.63-2.77a15.23,15.23,0,0,0,2.47-.56l.23-.08V15.74a15.88,15.88,0,0,0-.16-2.7h3a20,20,0,0,0-.15,2.6v2.78l2.47-.79V13.2a18.48,18.48,0,0,0-.13-2.55h2.95a21.41,21.41,0,0,0-.15,2.6v3.56l3.67-1.14a15.82,15.82,0,0,0,2.09-.77c0,1.12-.08,1.3-.13,2.68a48,48,0,0,1-.56,7c-.33,1.45-1,1.88-2.88,1.88-.33,0-.56,0-1.2-.05a7.5,7.5,0,0,0-.68-2.62,6.73,6.73,0,0,0,1.42.2c.64,0,.79-.1.89-.63.13-.84.23-2.42.31-4.89l-2.93.92v6.34a18.76,18.76,0,0,0,.15,2.54H53.81a19.49,19.49,0,0,0,.13-2.62v-5.4L51.47,21Z"/><path class="cls-1" d="M85.46,29.09l-2.21,1.6a25,25,0,0,0,5.22.84,7.56,7.56,0,0,0-1.38,2.52c-4.43-.58-7.08-1.65-9.17-3.69l0,2.24c-1.76.38-3.16.64-5,.89l-2.82.44c-.29,0-.29,0-1,.2l-.4-2.8h.66c.33,0,.66,0,2.14-.15v-3H69.37a13.48,13.48,0,0,1-2.47,6.09c-.31-.33-.31-.33-1.2-1.38a9.85,9.85,0,0,0-1-.89C66.39,29.9,67,27.56,67,23.43a21.05,21.05,0,0,0-.1-2.34,25,25,0,0,0,2.64.1h15a19.72,19.72,0,0,0,2.52-.1v2.17a19.93,19.93,0,0,0-2.47-.11H69.7c0,1.48,0,2-.1,3.14H85a15.4,15.4,0,0,0,2.44-.13v2.11a19.72,19.72,0,0,0-2.47-.1H83.6ZM69.72,13.22a24,24,0,0,0-2.54.1V10.85A18.88,18.88,0,0,0,69.9,11H83.53a18.6,18.6,0,0,0,2.69-.13v2.47a23.78,23.78,0,0,0-2.54-.1H77.87V14h7.49a22.54,22.54,0,0,0,2.49-.11,14.89,14.89,0,0,0-.1,2v1.22a13.25,13.25,0,0,0,.13,2.14H85.13V15.87H77.87v2.45A12.63,12.63,0,0,0,78,20.56H75a13.65,13.65,0,0,0,.13-2.24V15.87h-7v3.39H65.47a13.65,13.65,0,0,0,.13-2.14V15.9a15.29,15.29,0,0,0-.1-2A21.28,21.28,0,0,0,68,14h7.15v-.77Zm-.46,5.6a8.54,8.54,0,0,0,1.4.08h2A7.92,7.92,0,0,0,74,18.82v1.66a8.89,8.89,0,0,0-1.37-.08h-2a9.64,9.64,0,0,0-1.4.08Zm0-2.26a7.48,7.48,0,0,0,1.4.07h2A9.35,9.35,0,0,0,74,16.56v1.65a7.59,7.59,0,0,0-1.38-.07h-2a10.82,10.82,0,0,0-1.4.07Zm1.58,7.21a17.46,17.46,0,0,0,2.37.1h9.65a17.56,17.56,0,0,0,2.37-.1v1.85a18.62,18.62,0,0,0-2.4-.1h-9.6a18.23,18.23,0,0,0-2.39.1Zm3.39,7.05c1.35-.23,1.35-.23,3.46-.66a7.41,7.41,0,0,1-1.45-2h-2Zm9.8-12.61a10.39,10.39,0,0,0-1.38-.07H80.34a10.82,10.82,0,0,0-1.4.07V16.56a7.54,7.54,0,0,0,1.4.07h2.34a7.25,7.25,0,0,0,1.38-.07Zm0,2.27a10.14,10.14,0,0,0-1.38-.08H80.34a10.58,10.58,0,0,0-1.4.08V18.82a9.1,9.1,0,0,0,1.4.08h2.34a6.75,6.75,0,0,0,1.38-.08Zm-5,7.69A6.94,6.94,0,0,0,81,29.8a10.79,10.79,0,0,0,1.81-1.63Z"/><path class="cls-1" d="M90.24,23.28c1.1-.76,2.19-2,5.56-6.24a7.91,7.91,0,0,1,1.57-1.6,3.14,3.14,0,0,1,4.33.2,16.55,16.55,0,0,1,1.71,1.84A81.94,81.94,0,0,0,111,25.27a16.67,16.67,0,0,0,2.77,2.14L112.25,31a6.42,6.42,0,0,0-.74-.74c-1.33-1.17-3.34-3.08-5.2-4.94s-2-2.06-4.71-5.17c-1.58-1.8-1.73-1.93-2.21-1.93s-.67.23-1.53,1.37a71.43,71.43,0,0,1-5,6.17,3.93,3.93,0,0,0-.53.68Z"/><path class="cls-1" d="M125.87,25.9c-1.45,3.29-3.08,4.79-5.17,4.79-2.9,0-5-3-5-7a10.92,10.92,0,0,1,2.8-7.41,11.4,11.4,0,0,1,8.76-3.57c6.11,0,10.08,3.72,10.08,9.45a9.81,9.81,0,0,1-6.19,9.5,16.75,16.75,0,0,1-4,1.07,8.17,8.17,0,0,0-1.56-3,13.56,13.56,0,0,0,5.07-1.4,7.12,7.12,0,0,0,3.54-6.37,6.3,6.3,0,0,0-3.13-5.65,5.64,5.64,0,0,0-2.57-.77A37.07,37.07,0,0,1,125.87,25.9Zm-3.75-9.11a8.55,8.55,0,0,0-3.46,6.87c0,2.09.89,3.75,2,3.75.84,0,1.71-1.07,2.63-3.26a34,34,0,0,0,2.11-8.61A6.5,6.5,0,0,0,122.12,16.79Z"/><path class="cls-1" d="M149,19.16a77.29,77.29,0,0,1-.48,8.35,14.84,14.84,0,0,1-2.06,6.29,13.28,13.28,0,0,0-1.84-2c0,.94.05,1.32.13,2.16h-2.93a21.69,21.69,0,0,0,.15-3v-7.1c0-1,0-1.84.08-3.34a13.44,13.44,0,0,1-1.73,2.73,14.24,14.24,0,0,0-1.15-3.06,19.31,19.31,0,0,0,3.49-5.71,19.14,19.14,0,0,0,1.28-4.2l2.75.66-.44,1.33a20.67,20.67,0,0,1-1.63,4.12V31.2a9.45,9.45,0,0,0,1.25-3.41,45.65,45.65,0,0,0,.56-8.51c0-1,0-1.75-.1-2.57a19.37,19.37,0,0,0,2.67.13h11.41a19.42,19.42,0,0,0,2.78-.13v2.55a22.74,22.74,0,0,0-2.47-.1Zm1.12-7.26a7.38,7.38,0,0,0-.1-1.53h2.83a7.86,7.86,0,0,0-.1,1.53v.58h3.49V11.9a7.23,7.23,0,0,0-.11-1.53H159a8,8,0,0,0-.1,1.53v.58h1.6a16.36,16.36,0,0,0,2.57-.15V14.9a24.17,24.17,0,0,0-2.57-.1h-1.6v.26a6.21,6.21,0,0,0,.08,1.22h-2.78a9.27,9.27,0,0,0,.08-1.25V14.8h-3.49V15a7.76,7.76,0,0,0,.07,1.25h-2.77a9.54,9.54,0,0,0,.07-1.22V14.8h-1.07a22.21,22.21,0,0,0-2.54.1V12.36c.71.07,1.58.12,2.54.12h1.07ZM152,29.57V31.1a15.82,15.82,0,0,0,.12,2.75h-2.67a15,15,0,0,0,.15-2.75v-8a25.57,25.57,0,0,0-.1-2.77c.77,0,1.28.07,2.7.07h7.74a19.7,19.7,0,0,0,2.47-.1,24,24,0,0,0-.1,2.73v8.68c0,1.68-.53,2.06-2.93,2.06l-1.12,0a6.78,6.78,0,0,0-.51-2.22,11.81,11.81,0,0,0,1.53.13c.46,0,.56-.1.56-.59V29.57H157v1.17a16.68,16.68,0,0,0,.13,2.8h-2.6a16,16,0,0,0,.15-2.8V29.57Zm2.72-7H152v1.42h2.72Zm0,3.46H152v1.43h2.72Zm5.12-2V22.52H157v1.42Zm0,3.47V26H157v1.43Z"/><path class="cls-1" d="M167.65,17.6a10.28,10.28,0,0,0,1.5.08,86.44,86.44,0,0,0,9-.56,6.47,6.47,0,0,0,2-.41l1.71,2.19a16.55,16.55,0,0,0-2.17,1.91c-1.37,1.33-3.56,3.29-4.35,3.9A3.89,3.89,0,0,1,177,24.4a2.28,2.28,0,0,1,2.11,1.07,4.17,4.17,0,0,1,.57,2.34c.17,2,.5,2.37,2.18,2.37a13.64,13.64,0,0,0,5-1l.38,3.15c-.43,0-.58.05-2.24.31a22.14,22.14,0,0,1-3.56.3c-1.81,0-2.83-.28-3.57-1s-.91-1.28-1-3.29a4,4,0,0,0-.26-1.63,1.16,1.16,0,0,0-1.07-.53c-1.19,0-2.34.71-4.4,2.7-1.3,1.24-2.68,2.72-3.59,3.79l-2.35-2.65c1.13-.76,1.13-.76,5.91-5.09.59-.54,1.05-1,3-2.8.68-.66,1.68-1.61,3-2.83-1.46.23-2.12.33-3.31.43l-2.58.21-1.32.12c-.94.08-1.12.11-2,.21ZM170.81,11a36.37,36.37,0,0,0,10.13,1.42l-.48,2.85a47,47,0,0,1-10.57-1.5Z"/><line class="cls-2" y1="64.5" x2="260" y2="64.5"/></svg>