<svg id="レイヤー_1" data-name="レイヤー 1" xmlns="http://www.w3.org/2000/svg" viewBox="0 0 260 65"><defs><style>.cls-1{fill:none;stroke:#231815;stroke-miterlimit:10;}.cls-2{fill:#231815;}</style></defs><line class="cls-1" y1="64.5" x2="260" y2="64.5"/><path class="cls-2" d="M208,45.9c-5.05,0-6.37,0-8.58.16a17.94,17.94,0,0,1,.27-2.84,26,26,0,0,1,7-14.25c2.31-2.52,5.63-5.1,11.15-8.78,3.94-2.63,5.15-4,5.15-5.84,0-2.26-1.73-3.73-4.36-3.73a5.19,5.19,0,0,0-4.68,2.47,8,8,0,0,0-1.05,4l-13.47-1.26c.85-4.95,1.85-7.36,4.05-10,3.16-3.79,8.42-5.84,15-5.84,6.31,0,11.36,1.68,14.62,4.89a12.06,12.06,0,0,1,3.47,8.94,12.26,12.26,0,0,1-1.84,6.73c-1.27,1.89-3.47,3.79-8.26,7.1-5,3.52-7,5.2-8.25,7.2h10a69.22,69.22,0,0,0,8.88-.37V46.27c-3.26-.26-5.73-.37-9.62-.37Z"/><path class="cls-2" d="M27.16,19.94a17.53,17.53,0,0,0,10.7,11.51A10.21,10.21,0,0,0,36,34.38a20.51,20.51,0,0,1-6.29-4.66,19.11,19.11,0,0,1-3.85-6.16,15.32,15.32,0,0,1-4.15,6.82,18.91,18.91,0,0,1-6.09,4,9.87,9.87,0,0,0-1.78-2.67A18.66,18.66,0,0,0,18,29.54a13,13,0,0,0,5.73-9.6h-6a19.06,19.06,0,0,0-3.19.18V16.88a19.81,19.81,0,0,0,3.21.18H24c.05-1.27.08-1.68.08-3a17.25,17.25,0,0,0-.18-2.55h3.36a19.11,19.11,0,0,0-.18,3c0,1,0,1.63-.05,2.57h6.75a20.89,20.89,0,0,0,3.21-.18v3.24a22.21,22.21,0,0,0-3.18-.18Z"/><path class="cls-2" d="M42.28,14.23a22,22,0,0,0-.15-2.92h2.93a17.62,17.62,0,0,0-.15,2.95v3.26h.56a9.08,9.08,0,0,0,1.7-.1v2.67a12.41,12.41,0,0,0-1.78-.1h-.48v6.93c1-.46,1.27-.59,2.41-1.17l.08,2.7a43.94,43.94,0,0,1-6.29,2.82c-.71.28-.94.38-1.32.56l-.54-2.93a13.3,13.3,0,0,0,3-.91V20H41.7a10.59,10.59,0,0,0-2,.13V17.39a10.07,10.07,0,0,0,2,.13h.58Zm9.14,16.23c0,.51.18.68.74.79a20.77,20.77,0,0,0,3.47.18c3,0,3.84-.13,4.22-.67s.46-1.3.46-3a13.09,13.09,0,0,0,2.78.84C62.78,33.67,62.25,34,55,34c-5.14,0-6.26-.48-6.26-2.72V22.54l-.51.15a12.51,12.51,0,0,0-1.56.59L46,20.5a15.23,15.23,0,0,0,2.47-.56l.23-.08V16.37a16,16,0,0,0-.16-2.7h3a19.91,19.91,0,0,0-.16,2.6v2.78l2.48-.79V13.83a18.48,18.48,0,0,0-.13-2.55h2.95a21.41,21.41,0,0,0-.15,2.6v3.56l3.67-1.14a15.11,15.11,0,0,0,2.08-.77c0,1.12-.07,1.3-.12,2.68a48,48,0,0,1-.56,7c-.33,1.45-1,1.89-2.88,1.89a10.42,10.42,0,0,1-1.2-.06,7.29,7.29,0,0,0-.69-2.62,7,7,0,0,0,1.43.21c.64,0,.79-.11.89-.64.13-.84.23-2.42.31-4.89L56.57,20v6.34a18.76,18.76,0,0,0,.15,2.54H53.77a19.49,19.49,0,0,0,.13-2.62v-5.4l-2.48.79Z"/><path class="cls-2" d="M85.42,29.72l-2.22,1.6a25.2,25.2,0,0,0,5.22.84,7.57,7.57,0,0,0-1.37,2.53C82.62,34.1,80,33,77.88,31l0,2.24c-1.76.39-3.16.64-5,.89l-2.83.44-.94.2L68.76,32h.67c.33,0,.66,0,2.13-.15v-3H69.32a13.37,13.37,0,0,1-2.47,6.09c-.3-.33-.3-.33-1.19-1.38a11.2,11.2,0,0,0-1-.89C66.34,30.53,67,28.19,67,24.07a18.63,18.63,0,0,0-.11-2.35,25.17,25.17,0,0,0,2.65.1h15a19.82,19.82,0,0,0,2.52-.1v2.17a20.39,20.39,0,0,0-2.47-.1H69.65c0,1.47,0,2-.1,3.13H84.93a15.46,15.46,0,0,0,2.45-.13V28.9a19.72,19.72,0,0,0-2.47-.1H83.56ZM69.68,13.85a21.51,21.51,0,0,0-2.55.11V11.48a19,19,0,0,0,2.73.13H83.48a18.83,18.83,0,0,0,2.7-.13V14a21,21,0,0,0-2.54-.11H77.83v.77h7.49c.94,0,1.8,0,2.49-.1a14.63,14.63,0,0,0-.1,2v1.22a13.17,13.17,0,0,0,.13,2.14H85.09V16.5H77.83V19A12.63,12.63,0,0,0,78,21.19H75A14.85,14.85,0,0,0,75.13,19V16.5h-7v3.39H65.43a13.67,13.67,0,0,0,.12-2.14V16.53a13.5,13.5,0,0,0-.1-2,24.38,24.38,0,0,0,2.52.1h7.16v-.77Zm-.46,5.61a10,10,0,0,0,1.4.07h2A9.44,9.44,0,0,0,74,19.46v1.65A9,9,0,0,0,72.58,21h-2a9.45,9.45,0,0,0-1.4.08Zm0-2.27a6.56,6.56,0,0,0,1.4.08h2A8.8,8.8,0,0,0,74,17.19v1.65a7.41,7.41,0,0,0-1.37-.07h-2a10.82,10.82,0,0,0-1.4.07Zm1.58,7.21a17.38,17.38,0,0,0,2.36.1h9.66a17.38,17.38,0,0,0,2.36-.1v1.86a16.24,16.24,0,0,0-2.39-.11h-9.6a16.15,16.15,0,0,0-2.39.11Zm3.38,7.05c1.35-.23,1.35-.23,3.47-.66a7.05,7.05,0,0,1-1.45-2h-2ZM84,18.84a10.39,10.39,0,0,0-1.38-.07H80.3a10.82,10.82,0,0,0-1.4.07V17.19a6.61,6.61,0,0,0,1.4.08h2.34A6.35,6.35,0,0,0,84,17.19Zm0,2.27A10.14,10.14,0,0,0,82.64,21H80.3a10.58,10.58,0,0,0-1.4.08V19.46a10.82,10.82,0,0,0,1.4.07h2.34A7.7,7.7,0,0,0,84,19.46ZM79,28.8a6.77,6.77,0,0,0,1.94,1.63,10.3,10.3,0,0,0,1.8-1.63Z"/><path class="cls-2" d="M90.2,23.91c1.1-.76,2.19-2,5.55-6.24a8.17,8.17,0,0,1,1.58-1.6,3.52,3.52,0,0,1,2-.77,3.64,3.64,0,0,1,2.29,1,16.55,16.55,0,0,1,1.71,1.84A83,83,0,0,0,111,25.9,17.08,17.08,0,0,0,113.76,28l-1.55,3.61a5.7,5.7,0,0,0-.74-.73c-1.33-1.18-3.34-3.09-5.2-4.94s-2-2.07-4.71-5.17C100,19,99.83,18.87,99.34,18.87s-.66.23-1.52,1.38a72.63,72.63,0,0,1-5,6.16,4.18,4.18,0,0,0-.54.69Z"/><path class="cls-2" d="M125.83,26.54c-1.46,3.28-3.09,4.78-5.17,4.78-2.91,0-5-2.95-5-7a10.93,10.93,0,0,1,2.81-7.41,11.44,11.44,0,0,1,8.76-3.57c6.11,0,10.08,3.72,10.08,9.45a9.81,9.81,0,0,1-6.19,9.5,16.71,16.71,0,0,1-4,1.07,8,8,0,0,0-1.55-3,13.62,13.62,0,0,0,5.07-1.4,7.12,7.12,0,0,0,3.54-6.37,6.32,6.32,0,0,0-3.13-5.65,5.65,5.65,0,0,0-2.58-.77A36.91,36.91,0,0,1,125.83,26.54Zm-3.75-9.12a8.52,8.52,0,0,0-3.46,6.87c0,2.09.89,3.75,2,3.75.84,0,1.71-1.07,2.62-3.26a33.62,33.62,0,0,0,2.12-8.61A6.46,6.46,0,0,0,122.08,17.42Z"/><path class="cls-2" d="M149,19.79a77.29,77.29,0,0,1-.48,8.35,14.66,14.66,0,0,1-2.07,6.29,13.21,13.21,0,0,0-1.83-2c0,.94,0,1.32.13,2.16h-2.93a21.69,21.69,0,0,0,.15-3v-7.1c0-1,0-1.84.08-3.34a13.17,13.17,0,0,1-1.73,2.73,14.24,14.24,0,0,0-1.15-3.06,19.38,19.38,0,0,0,3.49-5.7,19.27,19.27,0,0,0,1.27-4.21l2.75.67c-.12.38-.25.79-.43,1.32A21.38,21.38,0,0,1,144.59,17V31.83a9.63,9.63,0,0,0,1.25-3.41,45.65,45.65,0,0,0,.56-8.51c0-1,0-1.75-.1-2.57a19.37,19.37,0,0,0,2.67.13h11.41a19.42,19.42,0,0,0,2.78-.13v2.55a22.85,22.85,0,0,0-2.47-.1Zm1.12-7.26A7.44,7.44,0,0,0,150,11h2.83a7.73,7.73,0,0,0-.11,1.53v.58h3.49v-.58a7.44,7.44,0,0,0-.1-1.53h2.83a8,8,0,0,0-.1,1.53v.58h1.6A16.45,16.45,0,0,0,163,13v2.57a24.42,24.42,0,0,0-2.57-.1h-1.6v.26a7.34,7.34,0,0,0,.07,1.22h-2.77a9.39,9.39,0,0,0,.07-1.25v-.23h-3.49v.23a7.52,7.52,0,0,0,.08,1.25H150a9.54,9.54,0,0,0,.07-1.22v-.26H149a22.09,22.09,0,0,0-2.54.1V13c.71.07,1.57.12,2.54.12h1.07Zm1.83,17.67v1.53a15.34,15.34,0,0,0,.13,2.75h-2.67a14.93,14.93,0,0,0,.15-2.75v-8a25.57,25.57,0,0,0-.1-2.77c.76.05,1.27.07,2.7.07h7.74a19.8,19.8,0,0,0,2.47-.1,21.81,21.81,0,0,0-.1,2.73v8.68c0,1.68-.54,2.06-2.93,2.06l-1.12,0a6.78,6.78,0,0,0-.51-2.22,11.67,11.67,0,0,0,1.53.13c.46,0,.56-.1.56-.59V30.2H157v1.17a18.49,18.49,0,0,0,.12,2.81H154.5a17.28,17.28,0,0,0,.15-2.81V30.2Zm2.73-7h-2.73v1.42h2.73Zm0,3.46h-2.73V28h2.73Zm5.12-2V23.15H157v1.42Zm0,3.47V26.61H157V28Z"/><path class="cls-2" d="M167.61,18.23a10.28,10.28,0,0,0,1.5.08,86.44,86.44,0,0,0,9-.56,6.19,6.19,0,0,0,2-.41l1.71,2.19a16.55,16.55,0,0,0-2.17,1.91c-1.37,1.33-3.57,3.29-4.35,3.9a3.86,3.86,0,0,1,1.55-.31A2.28,2.28,0,0,1,179,26.1a4.12,4.12,0,0,1,.56,2.35c.18,2,.51,2.36,2.19,2.36a13.64,13.64,0,0,0,5-1l.38,3.15c-.43,0-.58.06-2.24.31a22.3,22.3,0,0,1-3.56.31c-1.81,0-2.83-.28-3.57-1s-.92-1.28-1-3.29a4.15,4.15,0,0,0-.26-1.63,1.17,1.17,0,0,0-1.07-.53c-1.2,0-2.34.71-4.4,2.7-1.3,1.24-2.68,2.72-3.6,3.79L165.11,31c1.12-.76,1.12-.76,5.91-5.09.59-.53,1-1,2.95-2.8l3-2.83c-1.45.23-2.11.33-3.31.43l-2.57.21-1.32.13c-.94.07-1.12.1-2,.2Zm3.16-6.59a36.26,36.26,0,0,0,10.13,1.42l-.48,2.86a47.46,47.46,0,0,1-10.57-1.51Z"/></svg>