<svg id="レイヤー_1" data-name="レイヤー 1" xmlns="http://www.w3.org/2000/svg" viewBox="0 0 284 51"><defs><style>.cls-1{fill:#3b445d;}</style></defs><path class="cls-1" d="M29.4,30.544c0,11.371.243,15.272.243,18,0,1.337-1.032,1.95-3.1,1.95-1.518,0-2.065-.5-2.065-1.672,0-1.226.3-7.636.3-18.226V28.148H5.953a42.273,42.273,0,0,0-5.345.334L0,26.364a44.537,44.537,0,0,0,5.953.39H24.784V4.738H8.686a39.2,39.2,0,0,0-5.1.334L2.916,3.01a52.516,52.516,0,0,0,5.77.334H43.918C46.894.223,47.32,0,47.684,0c.425,0,.851.223,3.949,2.508,1.518,1.059,1.761,1.394,1.761,1.728s-.182.5-.789.5H29.4V26.754H45.862c3.22-3.511,3.706-3.79,4.07-3.79s.85.279,4.131,2.731c1.579,1.171,1.883,1.561,1.883,1.895s-.244.558-.851.558H29.4ZM12.635,20.121A27.254,27.254,0,0,0,7.715,8.7c-.122-.167.3-.5.485-.39,5.771,3.511,9.355,8.138,9.355,11.705,0,1.783-1.093,3.288-2.733,3.288C13.425,23.3,13.06,22.63,12.635,20.121Zm20.653,4.236A51.333,51.333,0,0,0,40.7,12.931,28.531,28.531,0,0,0,42.764,7.3c4.678,1.839,6.257,2.619,6.257,3.344,0,.669-.79.947-2.491,1.115A49.949,49.949,0,0,1,34.078,24.915C33.713,25.138,33.045,24.636,33.288,24.357Z"/><path class="cls-1" d="M122.164,18.951c2.247-2.676,2.672-2.9,3.037-2.9.426,0,.911.223,3.523,2.174,1.215.892,1.519,1.227,1.519,1.561,0,.39-.182.557-.79.557h-24.6A40.846,40.846,0,0,1,98.838,28.2c6.318-.055,12.635-.223,18.952-.892a22.108,22.108,0,0,0-5.952-4.626c-.243-.167.06-.669.364-.613,7.776,1.728,12.878,4.738,12.878,8.361a2.2,2.2,0,0,1-2.126,2.229c-1.033,0-1.641-.446-2.976-2.452a19.3,19.3,0,0,0-1.216-1.784c-7.228,1.561-13.3,2.341-26.362,3.623-.487,1.338-.851,1.728-1.337,1.728-.729,0-.972-.669-2.187-5.741a35.665,35.665,0,0,0,4.374.223h3.462a42.664,42.664,0,0,0,2.8-7.915h-13a69.058,69.058,0,0,1-1.822,12.987,37.886,37.886,0,0,1-8.626,16.053c-.243.278-1.033-.056-.85-.391a50.6,50.6,0,0,0,5.649-16.052c.972-5.63,1.336-12.541,1.336-23.187A88.792,88.792,0,0,0,81.83.167a39.069,39.069,0,0,1,5.649,2.564H121.5C123.439.725,123.743.557,124.107.557c.426,0,.729.168,2.734,1.784.972.725,1.154,1,1.154,1.394,0,.445-.242.835-1.7,1.616V7.525c0,3.121.182,4.459.182,5.741,0,1.114-.972,1.672-2.673,1.672-1.458,0-1.823-.39-1.823-1.728v-.39H86.811c-.061,2.062-.122,4.069-.243,6.131Zm0,28.315c2.612-3.01,3.037-3.233,3.4-3.233.426,0,.851.223,3.767,2.452,1.336.948,1.64,1.282,1.64,1.617,0,.39-.183.557-.789.557H87.661a29.022,29.022,0,0,0-4.13.334l-.608-2.118a27.449,27.449,0,0,0,5.042.391H103.94V39.685H93.189a24.706,24.706,0,0,0-4.374.335L88.208,37.9a37.494,37.494,0,0,0,5.345.39H103.94V36.787a27.74,27.74,0,0,0-.364-5.072c5.953.557,6.621,1,6.621,1.56,0,.5-.364.892-2.005,1.505v3.512h10.874c2.43-2.564,2.855-2.843,3.219-2.843.425,0,.912.279,3.463,2.118,1.214.836,1.518,1.171,1.518,1.505,0,.446-.181.613-.789.613H108.192v7.581Zm-.183-43.141H86.811v7.3h35.17Z"/><path class="cls-1" d="M160.744,47.767c0,1.338-.85,1.951-2.795,1.951-1.4,0-1.883-.557-1.883-1.616,0-2.843.365-7.023.365-25.695,0-10.646-.061-15.886-.365-20.623a29.036,29.036,0,0,1,5.406,2.452h36.69c2.066-2.062,2.369-2.285,2.734-2.285.425,0,.729.223,2.855,1.9.91.78,1.154,1.115,1.154,1.449,0,.5-.3.892-1.7,1.616V18.505c0,18.505.364,26.475.364,28.928,0,1.449-.85,2.062-2.915,2.062-1.4,0-1.944-.5-1.944-1.672v-2.23H160.744ZM198.709,5.63H160.744V44.2h37.965ZM173.2,34.446c0,1.226-.85,1.728-2.612,1.728-1.336,0-1.822-.39-1.822-1.394,0-1.337.182-3.734.182-11.259a91.587,91.587,0,0,0-.3-9.865,41.713,41.713,0,0,1,5.164,2.229h11.6c1.762-1.839,2.065-2.062,2.43-2.062.425,0,.789.223,2.734,1.672.971.725,1.214,1.059,1.214,1.449s-.243.725-1.579,1.561v3.846c0,7.023.182,10.646.182,11.7,0,1.282-.972,1.783-2.673,1.783-1.275,0-1.822-.39-1.822-1.393V32.495H173.2Zm12.7-17.167H173.2V31.1h12.7Z"/><path class="cls-1" d="M243,8.472c0,12.318-.485,19.508-1.64,24.358a28.163,28.163,0,0,1-11.845,17.445c-.425.279-.972-.278-.668-.613a32.246,32.246,0,0,0,8.808-16.888c.911-4.459,1.276-9.977,1.276-17.781,0-9.141-.061-11.537-.426-14.38,6.257.725,6.622.892,6.622,1.617,0,.5-.244.78-2.127,1.505Zm-8.929,6.521c0,9.309.121,13.433.121,14.659,0,1.115-.91,1.617-2.307,1.617-1.033,0-1.58-.39-1.58-1.394,0-.947.121-3.957.121-12.485,0-6.744-.061-7.97-.3-10.033,4.738.5,5.71.837,5.71,1.505,0,.446-.364.781-1.762,1.338Zm42.521,6.912c2.066-2.007,2.43-2.23,2.794-2.23.486,0,1.094.223,3.4,2.341C283.636,22.8,284,23.41,284,23.8c0,.557-.608.78-2.612.892a2.857,2.857,0,0,0-1.7.724,26.28,26.28,0,0,1-3.158,1.951c-.244.167-.608-.056-.486-.334a18.657,18.657,0,0,0,1.4-3.735H249.315c.182,3.679-1.337,6.522-3.766,6.522a2.149,2.149,0,0,1-2.187-2.118c0-.836.364-1.338,1.458-2.174a7.244,7.244,0,0,0,3.1-6.02c0-.278.546-.39.668-.055a20.469,20.469,0,0,1,.608,2.452Zm-11.6,11.148c0,9.7.243,14.658.243,16.219,0,1.226-.912,1.728-2.551,1.728-1.519,0-2-.39-2-1.505,0-1.393.3-6.02.3-16.442V31.6h-8.019v4.571c0,5.016.061,6.967.061,8.249,0,1.338-.85,1.951-2.49,1.951-1.276,0-1.944-.446-1.944-1.282,0-1.226.243-2.9.243-8.194a91.438,91.438,0,0,0-.3-9.141,42.707,42.707,0,0,1,5.162,2.453h7.29c-.061-2.676-.121-4.069-.3-5.741,5.832.613,6.318.724,6.318,1.393,0,.446-.3.725-2,1.394V30.21h8.079c1.883-1.784,2.187-1.951,2.551-1.951.426,0,.729.167,2.673,1.672.972.725,1.154,1,1.154,1.338,0,.5-.243.78-1.639,1.561v2.4c0,5.463.181,6.243.181,6.967a3.685,3.685,0,0,1-2,3.679,6.5,6.5,0,0,1-2.611.558c-.608,0-.85-.168-.972-.948-.243-1.338-1.033-2.062-4.434-2.62-.365-.111-.365-.669,0-.669,2.551.112,3.765.112,4.859.112.729,0,.972-.223.972-.78V31.6h-8.808ZM249.194,2.23a27.314,27.314,0,0,0,4.677.334h18.1C273.855.669,274.22.5,274.584.5s.729.167,2.673,1.728c.973.724,1.215,1.059,1.215,1.393,0,.39-.182.557-1.762,1.616V8.194c0,5.573.183,8.081.183,8.918,0,1.226-.729,1.783-2.551,1.783-1.337,0-1.822-.446-1.822-1.616V17H253.688a18.62,18.62,0,0,0-3.948.39l-.668-2.118a34.706,34.706,0,0,0,4.556.335H272.52v-5.24H255.208a18.632,18.632,0,0,0-3.95.39L250.652,8.7a32.546,32.546,0,0,0,4.494.279H272.52V3.957H253.932A17.058,17.058,0,0,0,249.8,4.4Z"/></svg>