<svg id="レイヤー_1" data-name="レイヤー 1" xmlns="http://www.w3.org/2000/svg" viewBox="0 0 56.917 257.514"><defs><style>.cls-1{fill:#3b445d;}</style></defs><path class="cls-1" d="M30.141,30.253c0,11.262.244,15.127.244,17.832,0,1.325-1.033,1.932-3.1,1.932-1.518,0-2.065-.5-2.065-1.656,0-1.215.3-7.563.3-18.053V27.879H6.706a42.618,42.618,0,0,0-5.343.332l-.607-2.1a44.96,44.96,0,0,0,5.95.386H25.527V4.693H9.438a39.509,39.509,0,0,0-5.1.331L3.67,2.981a52.936,52.936,0,0,0,5.768.331H44.652C47.628.221,48.053,0,48.417,0c.425,0,.849.221,3.946,2.484,1.518,1.049,1.761,1.38,1.761,1.712s-.182.5-.789.5H30.141V26.5H46.6c3.217-3.478,3.7-3.754,4.067-3.754s.851.276,4.129,2.7c1.578,1.16,1.882,1.546,1.882,1.877s-.243.552-.85.552H30.141ZM13.385,19.93A26.86,26.86,0,0,0,8.467,8.612c-.121-.165.3-.5.485-.386C14.721,11.7,18.3,16.286,18.3,19.819c0,1.767-1.093,3.257-2.733,3.257C14.174,23.076,13.809,22.414,13.385,19.93Zm20.642,4.2a50.827,50.827,0,0,0,7.407-11.317A28.035,28.035,0,0,0,43.5,7.232c4.675,1.822,6.254,2.6,6.254,3.312,0,.663-.789.939-2.489,1.1A49.66,49.66,0,0,1,34.816,24.677C34.452,24.9,33.785,24.4,34.027,24.125Z"/><path class="cls-1" d="M46.96,87.769c2.246-2.65,2.671-2.87,3.035-2.87.426,0,.911.22,3.521,2.153,1.215.883,1.519,1.214,1.519,1.545,0,.387-.183.553-.79.553H29.656a40.579,40.579,0,0,1-6.011,7.784c6.315-.056,12.629-.221,18.943-.884a22.06,22.06,0,0,0-5.949-4.582c-.244-.166.06-.662.364-.607,7.771,1.711,12.871,4.692,12.871,8.281a2.187,2.187,0,0,1-2.125,2.208c-1.032,0-1.64-.441-2.975-2.429a18.825,18.825,0,0,0-1.215-1.766c-7.224,1.545-13.295,2.318-26.349,3.588-.487,1.325-.851,1.711-1.336,1.711-.729,0-.972-.662-2.186-5.686a35.844,35.844,0,0,0,4.371.221H21.52a41.905,41.905,0,0,0,2.793-7.839H11.32A67.9,67.9,0,0,1,9.5,102.013a37.428,37.428,0,0,1-8.622,15.9c-.242.276-1.032-.055-.85-.387a49.8,49.8,0,0,0,5.647-15.9C6.645,96.05,7.01,89.205,7.01,78.66a87.037,87.037,0,0,0-.365-9.495A39.261,39.261,0,0,1,12.292,71.7h34c1.942-1.987,2.246-2.153,2.61-2.153.426,0,.729.166,2.733,1.767.971.718,1.153.994,1.153,1.38,0,.442-.242.828-1.7,1.6v2.153c0,3.092.181,4.417.181,5.686,0,1.1-.971,1.656-2.672,1.656-1.457,0-1.821-.386-1.821-1.711V81.7H11.624c-.061,2.042-.122,4.03-.243,6.072Zm0,28.045c2.61-2.981,3.035-3.2,3.4-3.2.426,0,.851.221,3.765,2.429,1.336.939,1.64,1.27,1.64,1.6,0,.387-.183.552-.79.552h-42.5a29.23,29.23,0,0,0-4.127.331l-.608-2.1a27.734,27.734,0,0,0,5.039.386H28.745v-7.508H18a24.944,24.944,0,0,0-4.372.331l-.607-2.1a37.733,37.733,0,0,0,5.343.387H28.745v-1.491a27.208,27.208,0,0,0-.364-5.023c5.95.552,6.618.993,6.618,1.545,0,.5-.364.884-2,1.491v3.478H43.863c2.429-2.54,2.854-2.816,3.218-2.816.425,0,.911.276,3.461,2.1,1.214.828,1.517,1.16,1.517,1.491,0,.442-.181.607-.789.607H32.995v7.508Zm-.183-42.73H11.624v7.232H46.777Z"/><path class="cls-1" d="M9.62,185.312c0,1.325-.85,1.932-2.793,1.932-1.4,0-1.882-.552-1.882-1.6,0-2.815.364-6.956.364-25.45,0-10.544-.06-15.734-.364-20.426a29.13,29.13,0,0,1,5.4,2.429H47.02c2.065-2.043,2.369-2.264,2.733-2.264.425,0,.728.221,2.853,1.877.91.773,1.154,1.1,1.154,1.436,0,.5-.3.883-1.7,1.6v11.483c0,18.328.365,26.223.365,28.652,0,1.435-.85,2.042-2.914,2.042-1.4,0-1.943-.5-1.943-1.656v-2.208H9.62Zm37.947-41.736H9.62v38.2H47.567Zm-25.5,28.542c0,1.214-.849,1.711-2.61,1.711-1.336,0-1.821-.386-1.821-1.38,0-1.325.181-3.7.181-11.152a90.146,90.146,0,0,0-.3-9.771,41.931,41.931,0,0,1,5.161,2.208h11.6c1.761-1.822,2.065-2.043,2.429-2.043.425,0,.789.221,2.732,1.656.971.718,1.214,1.049,1.214,1.436s-.243.718-1.578,1.546v3.809c0,6.956.182,10.544.182,11.593,0,1.27-.972,1.767-2.672,1.767-1.274,0-1.821-.387-1.821-1.38v-1.933H22.066Zm12.69-17H22.066v13.691h12.69Z"/><path class="cls-1" d="M15.934,215.392c0,12.2-.485,19.322-1.639,24.125A27.887,27.887,0,0,1,2.456,256.8c-.425.276-.972-.276-.668-.607a31.846,31.846,0,0,0,8.8-16.727c.91-4.417,1.274-9.883,1.274-17.611,0-9.054-.061-11.428-.425-14.244,6.254.718,6.618.884,6.618,1.6,0,.5-.243.773-2.125,1.491ZM7.01,221.851c0,9.219.121,13.3.121,14.519,0,1.1-.91,1.6-2.307,1.6-1.032,0-1.579-.387-1.579-1.38,0-.939.121-3.92.121-12.367,0-6.68-.061-7.894-.3-9.937,4.736.5,5.707.828,5.707,1.491,0,.442-.364.773-1.76,1.325Zm42.5,6.845c2.064-1.987,2.428-2.208,2.793-2.208.485,0,1.092.221,3.4,2.319.85.772,1.214,1.38,1.214,1.766,0,.552-.608.773-2.611.883a2.875,2.875,0,0,0-1.7.718,26.361,26.361,0,0,1-3.157,1.932c-.243.166-.607-.055-.485-.331a18.4,18.4,0,0,0,1.4-3.7H22.249c.181,3.644-1.336,6.46-3.765,6.46a2.138,2.138,0,0,1-2.185-2.1c0-.828.364-1.325,1.457-2.153a7.156,7.156,0,0,0,3.1-5.963c0-.276.546-.386.668-.055a19.912,19.912,0,0,1,.608,2.429Zm-11.6,11.042c0,9.6.243,14.519.243,16.065,0,1.214-.911,1.711-2.55,1.711-1.518,0-2-.386-2-1.491,0-1.38.3-5.962.3-16.285V238.3H25.891v4.527c0,4.969.061,6.9.061,8.171,0,1.324-.85,1.932-2.489,1.932-1.275,0-1.943-.442-1.943-1.27,0-1.214.244-2.871.244-8.115a89.649,89.649,0,0,0-.3-9.054,42.768,42.768,0,0,1,5.16,2.429h7.286c-.06-2.65-.121-4.03-.3-5.686,5.829.607,6.315.717,6.315,1.38,0,.441-.3.717-2,1.38v2.926h8.075c1.882-1.767,2.186-1.932,2.55-1.932.426,0,.728.165,2.672,1.656.971.718,1.153.994,1.153,1.325,0,.5-.243.773-1.64,1.546v2.374c0,5.41.183,6.183.183,6.9a3.646,3.646,0,0,1-2,3.644,6.554,6.554,0,0,1-2.61.552c-.608,0-.85-.166-.972-.939-.242-1.325-1.032-2.042-4.431-2.594-.365-.111-.365-.663,0-.663,2.549.111,3.763.111,4.856.111.728,0,.972-.221.972-.773V238.3h-8.8Zm-15.785-30.53a27.479,27.479,0,0,0,4.675.332H44.9c1.882-1.877,2.246-2.043,2.611-2.043s.728.166,2.672,1.711c.971.718,1.213,1.049,1.213,1.381,0,.386-.181.552-1.76,1.6v2.926c0,5.521.182,8,.182,8.834,0,1.214-.728,1.766-2.549,1.766-1.336,0-1.822-.442-1.822-1.6v-.276H26.62a18.79,18.79,0,0,0-3.946.386l-.668-2.1a35.146,35.146,0,0,0,4.553.331H45.442v-5.189h-17.3a18.743,18.743,0,0,0-3.948.386l-.606-2.043a32.8,32.8,0,0,0,4.492.276H45.442V210.92H26.863a17.194,17.194,0,0,0-4.129.441Z"/></svg>