<svg id="レイヤー_1" data-name="レイヤー 1" xmlns="http://www.w3.org/2000/svg" viewBox="0 0 126.826 297.775"><defs><style>.cls-1{fill:#525a70;}.cls-2{fill:none;}</style></defs><path class="cls-1" d="M86.749,32.4c1.568.476,2.044.672,2.044.924,0,.224-.2.392-1.12.448-.252.336-.5.644-.784.952H97.837c1.092-1.2,1.316-1.344,1.484-1.344s.476.112,1.595.98c.561.448.673.616.673.812,0,.168-.084.252-.364.252H92.237a16.569,16.569,0,0,0,3.976,2.408,20.732,20.732,0,0,0,5.964,1.372c.14,0,.14.308,0,.336-.728.2-.924.364-1.316,1.456a.409.409,0,0,1-.392.28,4.661,4.661,0,0,1-1.064-.252,15.657,15.657,0,0,1-3.836-1.848v1.456c0,2.856.084,4.256.084,4.648,0,.588-.42.9-1.2.9-.56,0-.812-.224-.812-.7v-.644H83.725v.588c0,.588-.364.84-1.148.84-.644,0-.868-.2-.868-.756,0-.588.112-1.512.112-4.928,0-.588,0-1.12-.028-1.6a26.346,26.346,0,0,1-5.488,2.352c-.2.056-.364-.336-.2-.42a26.308,26.308,0,0,0,7.84-5.488H78.685a12.636,12.636,0,0,0-1.96.168l-.28-1.092a9.2,9.2,0,0,0,2.24.224h5.852a12.87,12.87,0,0,0,1.54-2.324H82.241v.14c0,.532-.364.784-1.12.784-.588,0-.868-.2-.868-.672,0-.448.084-1.232.084-4a28.84,28.84,0,0,0-.14-3.64,12.8,12.8,0,0,1,2.268,1.036h12.4c.756-.812.9-.924,1.064-.924.2,0,.364.112,1.2.756.448.336.56.5.56.672,0,.2-.084.336-.728.728v1.26c0,2.492.056,3.668.056,4,0,.56-.364.812-1.2.812-.56,0-.756-.2-.756-.672V32.4Zm6.44-8.9c.028.5.028.784.028.924,0,.56-.392.812-1.2.812-.588,0-.84-.224-.84-.7,0-.112.028-.392.056-1.036h-5.18c.028.56.028.868.028.98,0,.532-.42.812-1.148.812-.644,0-.9-.252-.9-.728,0-.112.028-.42.056-1.064H78.713a10.2,10.2,0,0,0-1.988.168l-.28-1.064a13.307,13.307,0,0,0,2.268.2h5.376V22.4a14.273,14.273,0,0,0-.112-2.184C86.805,20.584,87,20.64,87,21c0,.2-.168.364-.952.644V22.8h5.18v-.28a16.539,16.539,0,0,0-.14-2.3c2.492.28,3,.42,3,.756,0,.252-.168.42-.9.672V22.8h4.592c1.148-1.344,1.372-1.456,1.54-1.456s.42.112,1.679,1.064c.617.476.729.616.729.784,0,.2-.084.308-.364.308Zm1.876,3.248H82.241v2.072H95.065ZM82.241,31.7H95.065V29.516H82.241Zm11.4,6.664H83.725v2.408h9.912Zm-9.912,5.768h9.912v-2.66H83.725Zm9.912-6.468a27.488,27.488,0,0,1-2.184-2.24h-5.18a21.2,21.2,0,0,1-2.52,2.24Z"/><path class="cls-1" d="M85.293,59.028a3.952,3.952,0,0,1-1.176-2.576c0-.252.112-.336.224-.336.14,0,.224.056.364.308A6.243,6.243,0,0,0,88.205,59a4.476,4.476,0,0,1,1.652.9,1.587,1.587,0,0,1,.588,1.2.758.758,0,0,1-.756.784,2.559,2.559,0,0,1-.868-.14,4.131,4.131,0,0,0-1.344-.168,10.285,10.285,0,0,0-3.528.812c-.448.2-.7.476-.7.756a1.948,1.948,0,0,0,.224.756,3.057,3.057,0,0,1,.224,1.2,16.14,16.14,0,0,1-.2,1.96,29.958,29.958,0,0,0-.364,4.032c0,.112.028.2.14.2.084,0,.168-.028.336-.168a29.4,29.4,0,0,1,3.752-2.52,10,10,0,0,1,5.18-1.652,5.983,5.983,0,0,1,4.368,1.568,4.222,4.222,0,0,1,1.316,3.08c0,2.548-1.764,4.368-4.508,5.628a23.342,23.342,0,0,1-8.876,1.848c-.308,0-.56-.084-.56-.336a.476.476,0,0,1,.42-.42,24,24,0,0,0,7.84-2.408c2.24-1.288,3.528-2.828,3.528-4.62a3.483,3.483,0,0,0-.98-2.6,4,4,0,0,0-2.716-.868,6.9,6.9,0,0,0-3.7,1.2,17.228,17.228,0,0,0-3.416,2.884,7.269,7.269,0,0,0-1.484,2.072c-.168.532-.364.728-.812.728-.364,0-.728-.28-1.064-.812a2.991,2.991,0,0,1-.448-1.624,31.771,31.771,0,0,1,.672-5.712,10.956,10.956,0,0,0,.224-2.128c0-.308-.056-.7-.056-1.064a1.851,1.851,0,0,1,1.092-1.624,17.212,17.212,0,0,1,3.528-1.4A6.207,6.207,0,0,1,85.293,59.028Z"/><path class="cls-1" d="M83.417,108c0-1.764.112-4.423.224-7.14.084-2.211.14-4.395.2-6.635.028-1.036-.112-1.456-.532-1.737a4.557,4.557,0,0,0-.98-.447c-.224-.084-.336-.112-.336-.252s.112-.28.336-.364a2.818,2.818,0,0,1,1.008-.168A4.561,4.561,0,0,1,85.6,92.321a2.262,2.262,0,0,1,1.008,1.511,1.122,1.122,0,0,1-.392.785,1.337,1.337,0,0,0-.392.9c-.168,1.344-.336,3.052-.476,5.292-.168,2.6-.28,5.347-.28,6.8,0,1.4.224,2.212.7,2.66a3.914,3.914,0,0,0,2.436.588,15.335,15.335,0,0,0,6.272-1.82,19.238,19.238,0,0,0,4.4-3.3c.14-.141.251-.224.364-.224a.3.3,0,0,1,.308.251.806.806,0,0,1-.224.561,16.825,16.825,0,0,1-5.124,4.591,13.236,13.236,0,0,1-6.384,1.764C85.125,112.676,83.417,111.36,83.417,108Z"/><path class="cls-1" d="M87.953,132.417c2.94-1.54,5.74-2.66,7.756-2.66a4.889,4.889,0,0,1,3.584,1.26,3.838,3.838,0,0,1,1.148,2.744,4.24,4.24,0,0,1-2.352,3.612,8.343,8.343,0,0,1-4.06.9,11.591,11.591,0,0,1-5.544-1.176c-.252-.14-.308-.224-.308-.392a.3.3,0,0,1,.28-.28,1.889,1.889,0,0,1,.476.084,16.937,16.937,0,0,0,3.92.392,8.222,8.222,0,0,0,4-.98,3.187,3.187,0,0,0,1.792-2.772,2.2,2.2,0,0,0-.672-1.624,3.06,3.06,0,0,0-2.184-.784c-2.212,0-4.9,1.232-7.448,2.716-.924.532-1.848,1.092-2.8,1.652.56,1.064,1.148,2.128,1.708,3.22,1.12,2.268,2.184,4.424,2.912,6.356a7.043,7.043,0,0,1,.616,2.3c0,.84-.476,1.26-1.036,1.26-.672,0-.924-.336-1.12-1.148a53.672,53.672,0,0,0-2.744-7.9c-.476-1.064-1.008-2.156-1.568-3.3-.588.364-1.512.952-2.24,1.456a4.286,4.286,0,0,0-.868.728.922.922,0,0,1-.868.42,3.386,3.386,0,0,1-1.792-.868,2.889,2.889,0,0,1-1.148-1.68c0-.364.14-.532.2-.532.14,0,.224.084.392.252a2.053,2.053,0,0,0,1.484.644,5.351,5.351,0,0,0,2.268-.728c.5-.252,1.176-.588,1.876-.98a17.819,17.819,0,0,0-1.036-1.652,2.39,2.39,0,0,1-.56-1.512,3.189,3.189,0,0,1,.812-2.128,1.953,1.953,0,0,1,1.428-.7c1.232-.14,2.492-.168,4.228-.252a5.025,5.025,0,0,1-.952-2.8c0-.728.168-.98.392-.98.168,0,.252.224.336.532a3.694,3.694,0,0,0,.5,1.2,7.948,7.948,0,0,0,1.288,1.428,2.217,2.217,0,0,1,.924,1.82c0,.56-.308,1.036-.784,1.036a1.336,1.336,0,0,1-.952-.56,2.988,2.988,0,0,0-1.512-.56,9.693,9.693,0,0,0-1.68-.2,6.055,6.055,0,0,0-1.6.14c-.672.2-1.064.532-1.064,1.148a2.784,2.784,0,0,0,.392,1.288c.28.5.644,1.2,1.176,2.1C85.965,133.425,86.945,132.921,87.953,132.417Z"/><path class="cls-1" d="M95.933,164.9a3.472,3.472,0,0,0,1.428-.28,1.986,1.986,0,0,1,.868-.2,5.054,5.054,0,0,1,2.184.728,1.2,1.2,0,0,1,.7,1.036.665.665,0,0,1-.644.7,9.116,9.116,0,0,1-1.484-.252,19.057,19.057,0,0,0-3.388-.308c-1.484,0-2.828,0-4.368.112-.028,2.044-.056,3.5-.056,5.1a8.379,8.379,0,0,1,.476,3.08,7.811,7.811,0,0,1-3.36,6.272,15.7,15.7,0,0,1-4.788,2.24,3.48,3.48,0,0,1-.868.168c-.252,0-.392-.14-.392-.308,0-.14.084-.28.364-.392a15.316,15.316,0,0,0,4.48-2.6,7.59,7.59,0,0,0,2.66-4.088,2.877,2.877,0,0,1-1.932.644c-1.6,0-3.052-1.036-3.052-3.444a3.293,3.293,0,0,1,3.164-3.416,3.342,3.342,0,0,1,1.792.448c0-1.2-.028-2.324-.056-3.528a55.757,55.757,0,0,0-6.916,1.232,6.058,6.058,0,0,0-1.9.672,1.421,1.421,0,0,1-.812.28,2.548,2.548,0,0,1-1.652-.812,2.887,2.887,0,0,1-1.148-1.82c0-.336.084-.532.224-.532a.3.3,0,0,1,.2.084c.868.84,1.288,1.064,2.1,1.064a10.255,10.255,0,0,0,1.792-.224c2.688-.448,5.516-.868,8.092-1.176,0-1.036,0-1.764-.028-2.744a3.882,3.882,0,0,0-.168-1.232.869.869,0,0,0-.784-.448,7.7,7.7,0,0,0-.812-.084c-.168,0-.28-.056-.28-.168,0-.168.056-.252.252-.42a2.406,2.406,0,0,1,1.4-.56,3.565,3.565,0,0,1,2.044.84c.56.42.784.672.784,1.008a1.089,1.089,0,0,1-.364.784,1.22,1.22,0,0,0-.308.812c-.028.532-.056,1.2-.084,2.072C92.993,165.065,94.533,164.981,95.933,164.9Zm-9.968,8.008a1.9,1.9,0,0,0,1.96,2.072c1.176,0,1.9-.812,1.932-2.156-.084-1.232-.7-2.3-2.016-2.3C86.861,170.525,85.965,171.309,85.965,172.905Z"/><path class="cls-1" d="M93.189,199.029a5.585,5.585,0,0,0,1.064-.672,2.222,2.222,0,0,1,1.232-.392c.84,0,1.176.42,1.176.924,0,.364-.2.56-.9.9a43.968,43.968,0,0,1-4.732,1.9,26.8,26.8,0,0,0,2.715,4.872,14.236,14.236,0,0,0,1.177,1.456,2.624,2.624,0,0,1,.588,1.652c0,.9-.392,1.176-.924,1.176-.28,0-.588-.2-1.064-.7a4.326,4.326,0,0,0-2.212-1.176,12.805,12.805,0,0,0-3.556-.532,6.626,6.626,0,0,0-3.7.952,2.411,2.411,0,0,0-1.092,1.932,2.764,2.764,0,0,0,1.932,2.492,12.345,12.345,0,0,0,5.18.924,8.425,8.425,0,0,0,.98-.056,5.982,5.982,0,0,1,.952-.084,2.574,2.574,0,0,1,1.148.28,1,1,0,0,1,.671.98c0,.7-.475,1.092-2.351,1.092a16.447,16.447,0,0,1-7.308-1.54c-1.764-.98-2.492-2.184-2.492-3.668a3.793,3.793,0,0,1,2.156-3.36,8.437,8.437,0,0,1,4.284-1.036,27.86,27.86,0,0,1,4.536.42,49.16,49.16,0,0,1-2.94-5.684,17.487,17.487,0,0,1-4.816.868,5.877,5.877,0,0,1-2.52-.448,3.646,3.646,0,0,1-1.708-1.344.819.819,0,0,1-.2-.476.277.277,0,0,1,.252-.28.6.6,0,0,1,.364.14,4.172,4.172,0,0,0,1.4.728,6.783,6.783,0,0,0,2.1.252,16.247,16.247,0,0,0,4.536-.9c-.392-1.2-.756-2.38-1.2-3.7-.2-.588-.364-.868-.616-1.008a1.54,1.54,0,0,0-.728-.14c-.308,0-.7.056-.84.056-.168,0-.28-.084-.28-.2,0-.168.168-.392.476-.616a2.479,2.479,0,0,1,1.372-.532,4.316,4.316,0,0,1,2.184.616c.448.252.616.532.616.84a1.127,1.127,0,0,1-.2.56,1.656,1.656,0,0,0-.112.756,14.458,14.458,0,0,0,.7,2.912A25,25,0,0,0,93.189,199.029Z"/><path class="cls-1" d="M86.049,237.81c-.14-1.456-.168-3.528-.28-5.88-.028-.616-.056-.812-.252-1.036a1.574,1.574,0,0,0-.784-.364c-.308-.056-.42-.056-.672-.084-.14-.028-.2-.056-.2-.168a.725.725,0,0,1,.336-.476,1.708,1.708,0,0,1,1.036-.392,4.165,4.165,0,0,1,2.436,1.064,1.3,1.3,0,0,1,.532,1.008,1.078,1.078,0,0,1-.308.672,1.474,1.474,0,0,0-.2.672,37.431,37.431,0,0,0-.084,5.376c.056.728.252,1.2.7,1.2a3.043,3.043,0,0,0,.924-.2c1.2-.532,2.688-1.2,3.892-1.848.252-.14.364-.224.364-.42,0-.308-.42-.756-.9-1.064-.168-.112-.252-.14-.252-.224,0-.112.28-.336.588-.336a3.73,3.73,0,0,1,2.044,1.148,2.378,2.378,0,0,1,.952,1.512c0,.5-.42.728-.868.84s-.98.252-1.568.42c-1.428.42-2.94.924-4.48,1.512a17.343,17.343,0,0,0-4.172,2.3,4.067,4.067,0,0,0-1.9,3.276,2.385,2.385,0,0,0,1.4,2.1,9.8,9.8,0,0,0,4.48.672,22.478,22.478,0,0,0,4.2-.42,7.8,7.8,0,0,1,1.4-.308,3.1,3.1,0,0,1,1.2.252c.616.28.924.616.924,1.064,0,.56-.336.812-1.54,1.008a40.242,40.242,0,0,1-5.236.28,13.728,13.728,0,0,1-5.824-1.036,3.707,3.707,0,0,1-2.268-3.444,4.893,4.893,0,0,1,1.372-3.276,16.017,16.017,0,0,1,4.06-3.052A2.8,2.8,0,0,1,86.049,237.81Z"/><path class="cls-1" d="M30.357,31.112c0,9.072.028,11.872.028,14.112,0,.588-.42.9-1.26.9-.644,0-.9-.224-.9-.784,0-1.82.14-5.572.14-14.168,0-5.348-.028-8.12-.168-10.7a13.349,13.349,0,0,1,2.38,1.148H36.1c.812-.924.952-1.008,1.12-1.008.2,0,.364.084,1.26.84.42.336.532.476.532.644,0,.224-.14.392-.756.784v1.6c0,3.024.056,4.424.056,4.872,0,.56-.42.812-1.2.812-.588,0-.784-.2-.784-.7v-.616H30.357Zm5.964-8.792H30.357v2.52h5.964Zm-5.964,5.824h5.964v-2.6H30.357ZM43.405,38.168c0,2.8.112,5.376.112,6.16,0,.588-.42.84-1.176.84-.644,0-.9-.168-.9-.7,0-.476.14-2.184.14-5.292V37.664H38c-.392,4.088-1.848,6.216-5.32,7.728-.168.056-.391-.2-.252-.308,2.464-1.876,3.444-3.808,3.7-7.42H34.081a14.974,14.974,0,0,0-2.072.168l-.28-1.036a14.057,14.057,0,0,0,2.3.168h2.156c.028-.672.028-1.4.028-2.184V33.072H34.781a11.225,11.225,0,0,0-1.792.168l-.28-1.036a13.326,13.326,0,0,0,2.016.168h9.688c.952-1.176,1.148-1.288,1.344-1.288.168,0,.364.112,1.4,1.008.42.364.56.532.56.7,0,.2-.112.28-.364.28H43.405v3.892h1.708c1.036-1.232,1.232-1.372,1.4-1.372.224,0,.42.14,1.456,1.036.447.392.588.56.588.756s-.084.28-.364.28H43.405Zm-5.236-5.1c0,1.68-.028,2.912-.112,3.892h3.528V33.072Zm5.18-3.724c0,.56-.364.84-1.12.84-.588,0-.84-.2-.84-.7,0-.784.056-1.876.056-5.264a35.8,35.8,0,0,0-.112-3.752,14.216,14.216,0,0,1,2.268,1.12h5.824c.868-.924,1.008-1.036,1.176-1.036.2,0,.336.112,1.288.9.448.364.56.532.56.7,0,.224-.14.392-.784.756v6.1c0,13.216.056,14.028.056,14.868a1.9,1.9,0,0,1-.9,1.764,3.183,3.183,0,0,1-1.68.42c-.42,0-.476-.056-.56-.532-.112-.784-.672-1.176-2.66-1.6-.14-.028-.14-.364,0-.364,1.652.112,2.436.14,3.3.14.336,0,.448-.112.448-.476V28.844H43.349Zm6.328-7.056H43.349V24.84h6.328Zm-6.328,5.852h6.328v-2.6H43.349Z"/><path class="cls-1" d="M32.205,66.588c-.448,6.86-2.016,10.92-5.292,14-.112.112-.364-.112-.28-.252,2.772-4.228,3.724-8.988,3.752-18.676h-1.26a11.047,11.047,0,0,0-1.848.168l-.308-1.064a9.95,9.95,0,0,0,2.156.2h2.66V57.88a16.149,16.149,0,0,0-.14-2.212c2.716.308,3,.532,3,.84,0,.224-.168.448-.868.756v3.7h2.408c1.064-1.344,1.26-1.484,1.428-1.484.2,0,.364.14,1.512,1.092.532.448.672.672.672.84s-.112.252-.392.252H32.345v1.148c0,1.092-.028,2.1-.084,3.08h3.164c.812-.924.952-1.036,1.148-1.036s.336.112,1.2.868c.42.364.5.588.5.756s-.112.308-.672.672a58.3,58.3,0,0,1-.9,9.464c-.392,1.652-.812,2.66-1.54,3.192a2.879,2.879,0,0,1-1.68.476c-.364,0-.476-.084-.5-.448-.056-.784-.476-1.176-2.268-1.736-.168-.056-.14-.42.028-.392a17.329,17.329,0,0,0,2.968.336c.616,0,.868-.644,1.2-2.324a64.242,64.242,0,0,0,.756-9.128Zm17.556-4.424a24.148,24.148,0,0,1-3.668,11.4,5.2,5.2,0,0,0,.363.392,17.32,17.32,0,0,0,7,4.2.166.166,0,0,1-.027.308c-.728.2-1.008.476-1.26,1.428-.112.42-.2.532-.421.532a3.4,3.4,0,0,1-1.119-.448,17.509,17.509,0,0,1-5.572-5.04,20.08,20.08,0,0,1-8.456,5.74c-.2.084-.392-.336-.224-.42a20.591,20.591,0,0,0,7.672-6.86,24.8,24.8,0,0,1-2.772-8.176A21.391,21.391,0,0,1,38.589,68.8c-.112.112-.392-.056-.308-.2a30.7,30.7,0,0,0,3.444-9.016,22.264,22.264,0,0,0,.56-3.836c2.744.532,3.024.672,3.024,1.092,0,.28-.28.42-.952.588-.392,1.484-.84,2.8-1.288,4.032h6.16c1.2-1.456,1.456-1.6,1.624-1.6s.364.14,1.6,1.176c.532.5.672.7.672.868s-.084.252-.364.252Zm-6.972,0c-.336.784-.7,1.54-1.092,2.3a21.122,21.122,0,0,0,3.164,7.588,25.9,25.9,0,0,0,2.8-9.884Z"/><path class="cls-1" d="M32.009,94.5v1.54a24.592,24.592,0,0,1-.924,6.972,12.414,12.414,0,0,1-3.612,5.88c-.14.14-.5-.056-.392-.224a15.341,15.341,0,0,0,2.408-6.1,33.908,33.908,0,0,0,.42-5.88,37.648,37.648,0,0,0-.168-4.228,15.792,15.792,0,0,1,2.52,1.344H42.369c-.028-.336-.056-.672-.056-1.008-.056-1.036-.084-1.512-.2-2.464,2.6.252,2.968.476,2.968.84,0,.252-.224.476-.952.784,0,.672.028,1.288.056,1.848h4.788c.9-1.232,1.036-1.316,1.232-1.316s.336.084,1.4.98c.448.42.532.588.532.756,0,.2-.112.28-.393.28H44.217a15.492,15.492,0,0,0,1.68,6.776,14.251,14.251,0,0,0,1.064-1.9,15.259,15.259,0,0,0,1.008-2.8c2.3.952,2.492,1.036,2.492,1.4,0,.224-.252.364-1.008.476a17.894,17.894,0,0,1-2.716,4.228,10.881,10.881,0,0,0,2.716,2.716,2.155,2.155,0,0,0,1.148.532c.224,0,.56-.364,1.68-2.52.056-.112.308,0,.28.14-.28,1.372-.476,2.324-.476,2.576a.988.988,0,0,0,.308.616,1.394,1.394,0,0,1,.308.9.965.965,0,0,1-1.036,1.064,4.262,4.262,0,0,1-1.764-.532,12.964,12.964,0,0,1-4.508-4.088,17.1,17.1,0,0,1-4.984,3.192c-.168.084-.42-.28-.252-.392a19.027,19.027,0,0,0,4.536-3.948c-.14-.28-.28-.532-.42-.812A20.533,20.533,0,0,1,42.4,94.5Zm-3.976,19.124c0-.588.28-.9,1.008-1.232a3.686,3.686,0,0,0,2.38-3.192c.028-.14.308-.112.336.028a9.848,9.848,0,0,1,.084,1.26c0,2.268-1.064,4.256-2.632,4.256A1.074,1.074,0,0,1,28.033,113.628Zm4.62-16.6a6.82,6.82,0,0,0,1.652.2h4.536c.812-1.064,1.064-1.176,1.232-1.176s.392.112,1.372.9c.392.336.532.532.532.7s-.084.28-.364.28H34.361a5.6,5.6,0,0,0-1.428.168Zm2.3,8.568c0,.532-.336.784-1.092.784-.56,0-.756-.2-.756-.588,0-.336.084-1.008.084-3.08,0-1.428-.028-2.464-.112-3.5a16.919,16.919,0,0,1,2.016,1.008h3.836c.7-.756.868-.868,1.064-.868s.336.112,1.092.756c.392.364.5.5.5.672,0,.224-.084.364-.728.756v.784c0,1.708.056,2.464.056,2.688,0,.5-.336.784-1.092.784-.532,0-.728-.2-.728-.644v-.252H34.949Zm1.6,6.86c0,1.092.392,1.26,3.78,1.26,2.66,0,3.864-.112,4.4-.644.5-.448.728-1.148,1.176-2.576.028-.14.336-.112.336.028-.028.616-.056,1.288-.056,1.9,0,.392.112.5.363.616a.777.777,0,0,1,.589.812c0,.56-.476,1.008-1.4,1.232a27.11,27.11,0,0,1-5.964.364c-4.228,0-5.264-.5-5.264-2.968,0-.336.084-.728.084-2.072a12.649,12.649,0,0,0-.14-2.324c2.8.308,3,.392,3,.728,0,.224-.112.392-.9.728Zm2.548-11.536H34.949v3.276h4.144Zm1.68,9.688a7.191,7.191,0,0,0-2.212-2.632c-.084-.056.028-.252.14-.224,2.576.42,4.144,1.54,4.144,2.828a1.089,1.089,0,0,1-1.036,1.176C41.305,111.752,41.137,111.556,40.773,110.6Zm6.692-17.78A5.211,5.211,0,0,0,45.7,90.948c-.084-.056-.028-.224.084-.224,1.988.168,3.192.784,3.192,1.764a.855.855,0,0,1-.868.868C47.8,93.356,47.717,93.244,47.465,92.824Zm2.38,20.328a8.317,8.317,0,0,0-2.324-3.808c-.084-.084.084-.252.2-.224,2.66.84,4.34,2.492,4.34,4.032,0,.9-.42,1.4-1.064,1.4C50.377,114.552,50.153,114.3,49.845,113.152Z"/><line class="cls-2" x1="126.826" x2="126.826" y2="297.775"/><line class="cls-2" y1="297.775"/></svg>