<svg id="レイヤー_1" data-name="レイヤー 1" xmlns="http://www.w3.org/2000/svg" viewBox="0 0 126.825 297.776"><defs><style>.cls-1{fill:#525a70;}.cls-2{fill:none;}</style></defs><path class="cls-1" d="M97.528,24.756c1.344-1.567,1.512-1.68,1.682-1.68.223,0,.42.085,1.818,1.233.645.531.7.671.7.868s-.114.28-.393.28H81.12v2.407c-.027,5.18-.336,8.317-1.146,10.92a19.8,19.8,0,0,1-3.641,7c-.111.168-.476-.028-.392-.2a26.242,26.242,0,0,0,2.38-6.832,61.606,61.606,0,0,0,.645-10.976,41.114,41.114,0,0,0-.168-4.395,18.1,18.1,0,0,1,2.631,1.371H88.71V22.32a12.523,12.523,0,0,0-.141-1.931c2.829.307,3.192.559,3.192.867,0,.253-.252.476-1.008.785v2.715Zm-4.562,10.36c-.113-.112.111-.391.252-.28,4.058,3.024,6.523,6.524,6.523,8.9,0,.952-.476,1.512-1.2,1.512-.615,0-.924-.363-1.2-1.54-.141-.56-.308-1.12-.5-1.708A98.351,98.351,0,0,1,83,44.524c-.308.9-.447,1.036-.756,1.036s-.42-.167-1.091-3.36a18.609,18.609,0,0,0,2.687.14,55.221,55.221,0,0,0,4.145-11.564,15.217,15.217,0,0,0,.447-3.416c2.66.588,3.527.9,3.527,1.317,0,.364-.279.5-1.146.727a45.925,45.925,0,0,1-6.133,12.909c3.976-.113,7.953-.477,11.9-.98A20.977,20.977,0,0,0,92.966,35.116Z"/><path class="cls-1" d="M89.634,64.152a19.084,19.084,0,0,0,5.1,9.577,19.291,19.291,0,0,0,7.111,4.452c.141.055.084.252-.057.307a2.179,2.179,0,0,0-1.455,1.569c-.111.307-.252.447-.447.447a3.849,3.849,0,0,1-1.484-.756,21.24,21.24,0,0,1-5.264-4.956,22.967,22.967,0,0,1-3.977-10.107c-.588,4.339-1.709,7.167-3.584,9.6A18.894,18.894,0,0,1,76.249,80.7c-.195.056-.363-.336-.195-.42a19.826,19.826,0,0,0,8.875-8.652,21.436,21.436,0,0,0,2.1-7.476H79.077a17.456,17.456,0,0,0-2.324.168l-.279-1.064a17.948,17.948,0,0,0,2.631.2h7.98a54.577,54.577,0,0,0,.252-5.572,18.285,18.285,0,0,0-.111-2.044c2.855.42,3.3.588,3.3.98,0,.252-.138.42-.951.756q0,1.639-.084,3.109c-.056.979-.111,1.9-.195,2.771h7.924c1.371-1.652,1.566-1.82,1.734-1.82.2,0,.449.168,1.85,1.316.615.532.756.757.756.925,0,.2-.084.279-.366.279Z"/><path class="cls-1" d="M82.13,98.845a4.172,4.172,0,0,1-1.961-.393,3.061,3.061,0,0,1-1.4-1.344.559.559,0,0,1-.055-.28.266.266,0,0,1,.223-.224.423.423,0,0,1,.336.169,3.587,3.587,0,0,0,2.353.755,17.84,17.84,0,0,0,3.668-.475,25.231,25.231,0,0,0,.951-2.941,3.957,3.957,0,0,0,.168-.98.735.735,0,0,0-.531-.672,5.856,5.856,0,0,0-1.149-.363c-.113-.029-.167-.056-.167-.14,0-.112.111-.225.222-.309a1.684,1.684,0,0,1,1.037-.252,5.982,5.982,0,0,1,2.379.785c.422.279.674.475.674.895a.856.856,0,0,1-.449.729,3.088,3.088,0,0,0-.756,1.231c-.2.421-.447,1.008-.672,1.568a17.551,17.551,0,0,0,2.268-.868,3.838,3.838,0,0,1,1.343-.42c.729,0,1.121.365,1.121.84s-.281.7-1.037.952c-.978.336-2.687.812-4.394,1.2-1.625,3.947-3.305,7.475-5.152,11.228a1.121,1.121,0,0,1-1.008.755.95.95,0,0,1-1.008-1.008,1.557,1.557,0,0,1,.363-.924A75.3,75.3,0,0,0,84.65,98.62,23.861,23.861,0,0,1,82.13,98.845ZM94.841,100.5a5.508,5.508,0,0,0-2.463-.476,9.166,9.166,0,0,0-1.316.083,2.028,2.028,0,0,1-.366.028.286.286,0,0,1-.252-.308c0-.112.114-.223.282-.28a7.447,7.447,0,0,1,2.6-.476,9.432,9.432,0,0,1,4.817,1.344,2.288,2.288,0,0,1,1.259,1.653.848.848,0,0,1-.839.868,1.339,1.339,0,0,1-.84-.365,3.819,3.819,0,0,0-2.325-1.2c-1.343,0-2.716.392-2.716,2.6a31.935,31.935,0,0,0,.953,5.236,18.572,18.572,0,0,1,5.095,2.38,1.352,1.352,0,0,1,.561,1.092.889.889,0,0,1-.926.952,1.628,1.628,0,0,1-1.035-.476,14.931,14.931,0,0,0-3.641-2.3,3.247,3.247,0,0,1-1.062,2.688,4.532,4.532,0,0,1-3.277.98c-2.295,0-3.92-1.175-3.92-2.94,0-1.819,1.847-2.884,4.256-2.884a12.482,12.482,0,0,1,2.183.168c-.111-1.456-.363-2.968-.363-4.34,0-2.6,1.344-3.471,3.332-3.92ZM89.3,109.849c-1.568,0-2.941.615-2.941,1.763,0,.84.785,1.54,2.716,1.54a3.127,3.127,0,0,0,2.211-.7,2.185,2.185,0,0,0,.758-1.708,2.336,2.336,0,0,0-.029-.42A8.639,8.639,0,0,0,89.3,109.849Z"/><path class="cls-1" d="M97,148.992c1.344-1.652,1.569-1.792,1.736-1.792s.364.14,1.737,1.344c.672.532.81.727.81.9s-.111.251-.39.251H79.413a17.3,17.3,0,0,0-2.324.168L76.81,148.8a18.087,18.087,0,0,0,2.631.2h8.091v-7.057H81.821a12.687,12.687,0,0,0-1.961.169l-.279-1.064a9.9,9.9,0,0,0,2.184.2h13.1c1.346-1.512,1.569-1.624,1.737-1.624s.392.112,1.679,1.2c.617.5.756.7.756.869s-.111.251-.39.251H89.718v7.057ZM80.253,130.428c.057,2.268-.951,3.724-2.268,3.724A1.1,1.1,0,0,1,76.864,133c0-.532.252-.868.869-1.2a3.232,3.232,0,0,0,1.932-3.193c0-.139.309-.195.336-.055a10.075,10.075,0,0,1,.195,1.175h7.561v-2.043a13.952,13.952,0,0,0-.141-1.876c2.858.28,3.164.532,3.164.84,0,.2-.2.42-.951.756v2.323h7.588c1.035-1.147,1.2-1.287,1.371-1.287.2,0,.365.083,1.653,1.26.617.531.7.7.7.868,0,.392-.252.5-1.2.532-.391.028-.5.084-.924.476a13.906,13.906,0,0,1-2.1,1.6c-.084.055-.308-.056-.252-.168a14.119,14.119,0,0,0,.981-2.576h-5.18V135.1c0,.924.391,1.12,2.771,1.12a7.754,7.754,0,0,0,2.967-.336c.477-.2.617-.448,1.317-2.38.029-.112.252-.084.252.028,0,.5-.028,1.176-.028,1.568,0,.336.084.419.561.56a.669.669,0,0,1,.5.7c0,.5-.5.924-1.317,1.176a17.208,17.208,0,0,1-4.507.392c-3.7,0-4.508-.449-4.508-2.3,0-.365.027-.84.027-2.3v-2.912H87.2c-.474,5.46-3.134,7.98-9.463,8.847-.2.029-.308-.363-.113-.42,5.125-1.567,7.057-3.779,7.506-8.427Z"/><path class="cls-1" d="M89.269,165.877a11.208,11.208,0,0,1-.727,3.275,28.213,28.213,0,0,1-4.006,7.252,3.744,3.744,0,0,1-2.826,1.82,2.587,2.587,0,0,1-2.1-1.12,6.155,6.155,0,0,1-1.287-4.144,10.2,10.2,0,0,1,2.631-6.608,11.971,11.971,0,0,1,8.961-3.667,10.3,10.3,0,0,1,6.5,2.155,8.325,8.325,0,0,1,.084,12.908c-2.072,1.792-5.908,2.968-9.324,3.136a.4.4,0,0,1-.393-.336c0-.224.141-.308.5-.392A15.574,15.574,0,0,0,94.9,176.6a7.915,7.915,0,0,0,2.519-5.8,7.064,7.064,0,0,0-2.351-5.348,8.115,8.115,0,0,0-5.209-1.82,12.214,12.214,0,0,0-1.485.056A3.265,3.265,0,0,1,89.269,165.877Zm-7.055.671a8.73,8.73,0,0,0-2.438,6.048,4.823,4.823,0,0,0,.618,2.6,1.568,1.568,0,0,0,1.316.952c.588,0,1.147-.5,1.959-1.6a29.786,29.786,0,0,0,4-7.28,6.131,6.131,0,0,0,.393-2.211,1.736,1.736,0,0,0-.45-1.289A9.874,9.874,0,0,0,82.214,166.548Z"/><path class="cls-1" d="M86.5,211.1c0,2.044,1.119,3.36,3.473,3.36a4.483,4.483,0,0,0,3.248-1.2,4.806,4.806,0,0,0,1.2-3.416,8.039,8.039,0,0,0-1.26-3.976,12.025,12.025,0,0,0-2.267-2.772.578.578,0,0,1-.252-.392.513.513,0,0,1,.363-.308.6.6,0,0,1,.363.113,12.8,12.8,0,0,1,3.332,2.967,7.554,7.554,0,0,1,1.737,4.48,5.378,5.378,0,0,1-1.623,4,6.542,6.542,0,0,1-4.481,1.652c-3.191,0-5.123-1.6-5.123-4.956a20.149,20.149,0,0,1,.168-2.324,7.673,7.673,0,0,1-2.633-1.288,3.315,3.315,0,0,1-1.148-2.659,5.168,5.168,0,0,1,2.492-3.865,4.831,4.831,0,0,1-1.959-1.232,3.386,3.386,0,0,1-.926-1.372,3.922,3.922,0,0,1-.138-.672c0-.224.084-.336.195-.336s.2.057.336.308a4.326,4.326,0,0,0,2.351,1.708,6.379,6.379,0,0,0,1.6.336c.559.057,1.008.168,1.23.588.225-1.344.393-2.407.561-3.584a9.464,9.464,0,0,0,.141-1.372,1.053,1.053,0,0,0-.252-.867,2.442,2.442,0,0,0-1.121-.589c-.2-.055-.28-.168-.28-.252,0-.111.112-.2.309-.308a1.941,1.941,0,0,1,.978-.223,3.994,3.994,0,0,1,2.129,1.063,1.871,1.871,0,0,1,.867,1.457.809.809,0,0,1-.447.728c-.252.139-.42.643-.588,1.231-.672,2.436-1.316,5.6-2.129,9.744a18.585,18.585,0,0,0,2.073.056,2.011,2.011,0,0,1,.98.224.763.763,0,0,1,.393.729c0,.363-.309.644-.785.755a6.5,6.5,0,0,1-1.317.084,11.927,11.927,0,0,1-1.65-.14A18.842,18.842,0,0,0,86.5,211.1Zm.084-10.136a1.11,1.11,0,0,1-.56.112,2.874,2.874,0,0,0-1.008.224,5.689,5.689,0,0,0-1.821,1.261,2.469,2.469,0,0,0-.755,1.651,1.858,1.858,0,0,0,.953,1.652,6.776,6.776,0,0,0,2.24.812C85.993,204.572,86.273,202.836,86.581,200.96Z"/><path class="cls-1" d="M86.05,236.184c-.141-1.455-.168-3.528-.281-5.88-.028-.615-.055-.812-.252-1.035a1.567,1.567,0,0,0-.784-.365c-.308-.056-.419-.056-.671-.084-.141-.028-.2-.056-.2-.168a.732.732,0,0,1,.336-.476,1.716,1.716,0,0,1,1.037-.392,4.165,4.165,0,0,1,2.436,1.064,1.3,1.3,0,0,1,.531,1.008,1.087,1.087,0,0,1-.306.672,1.5,1.5,0,0,0-.2.672,37.871,37.871,0,0,0-.084,5.376c.057.728.252,1.2.7,1.2a3.043,3.043,0,0,0,.924-.2c1.2-.532,2.688-1.2,3.893-1.848.252-.14.363-.224.363-.42,0-.308-.42-.756-.9-1.064-.168-.112-.252-.14-.252-.224,0-.112.281-.336.588-.336a3.733,3.733,0,0,1,2.045,1.148,2.38,2.38,0,0,1,.951,1.512c0,.5-.42.728-.867.84s-.981.252-1.569.42c-1.428.42-2.939.924-4.48,1.512a17.343,17.343,0,0,0-4.172,2.3,4.069,4.069,0,0,0-1.9,3.276,2.385,2.385,0,0,0,1.4,2.1,9.8,9.8,0,0,0,4.48.672,22.5,22.5,0,0,0,4.2-.42,7.8,7.8,0,0,1,1.4-.308,3.1,3.1,0,0,1,1.2.252c.615.281.924.616.924,1.064,0,.56-.336.812-1.541,1.009a40.445,40.445,0,0,1-5.236.279,13.742,13.742,0,0,1-5.825-1.036,3.708,3.708,0,0,1-2.267-3.444,4.89,4.89,0,0,1,1.373-3.276,16,16,0,0,1,4.058-3.052A2.8,2.8,0,0,1,86.05,236.184Z"/><path class="cls-1" d="M100.077,263.652a4.078,4.078,0,0,1,1.821,3.136,1.45,1.45,0,0,1-1.457,1.54c-.756,0-1.063-.532-1.372-1.2a9.393,9.393,0,0,0-4.144-4.984.38.38,0,0,1-.141-.336.274.274,0,0,1,.309-.28A10.932,10.932,0,0,1,100.077,263.652Z"/><path class="cls-1" d="M37.581,32.4c0,7.448-3.359,11.9-10.107,13.5-.2.056-.366-.308-.2-.392,5.686-2.464,8.149-6.468,8.149-13.1H29.63a9.934,9.934,0,0,0-1.961.168L27.39,31.5a12.67,12.67,0,0,0,2.211.2h9.1V23.972a27.867,27.867,0,0,0-.138-3.3c2.828.28,3.164.5,3.164.784,0,.224-.225.448-.953.728V31.7h7.5c1.428-1.54,1.625-1.68,1.793-1.68.2,0,.393.14,1.737,1.2.615.5.756.728.756.9s-.114.28-.393.28H43.433v9.772c0,1.036.42,1.316,2.8,1.316,2.157,0,2.856-.14,3.3-.532.42-.392.785-1.344,1.569-4,.029-.14.336-.112.336.028-.055,1.036-.223,2.688-.223,3.248,0,.364.111.448.588.644a.751.751,0,0,1,.447.756c0,.588-.531,1.064-1.455,1.344a19.84,19.84,0,0,1-5.014.392c-3.527,0-4.478-.728-4.478-2.94,0-.448.054-1.26.054-3.584V32.4Zm-4.34-4.088a10.861,10.861,0,0,0-2.435-4.844c-.084-.112.111-.28.252-.224,2.8,1.344,4.424,3.36,4.424,4.984a1.289,1.289,0,0,1-1.122,1.428C33.745,29.656,33.466,29.348,33.241,28.312Zm9.94,2.212a25.387,25.387,0,0,0,3.107-5.4,13.458,13.458,0,0,0,.758-2.38c2.3.98,2.855,1.288,2.855,1.624s-.056.448-1.121.56a26.978,26.978,0,0,1-5.263,5.852C43.378,30.888,43.069,30.664,43.181,30.524Z"/><path class="cls-1" d="M37.05,64.8c-.141-1.455-.168-3.527-.281-5.88-.028-.615-.055-.812-.252-1.035a1.574,1.574,0,0,0-.784-.364,6.658,6.658,0,0,0-.671-.084c-.141-.029-.2-.056-.2-.168a.732.732,0,0,1,.336-.476,1.717,1.717,0,0,1,1.037-.393,4.165,4.165,0,0,1,2.436,1.064,1.306,1.306,0,0,1,.531,1.009,1.092,1.092,0,0,1-.306.672,1.491,1.491,0,0,0-.2.672,37.869,37.869,0,0,0-.084,5.376c.057.727.252,1.2.7,1.2a3.017,3.017,0,0,0,.924-.2c1.2-.531,2.688-1.2,3.893-1.847.252-.141.363-.225.363-.42,0-.308-.42-.757-.9-1.065-.168-.112-.252-.139-.252-.223,0-.113.281-.336.588-.336a3.726,3.726,0,0,1,2.045,1.148,2.378,2.378,0,0,1,.951,1.511c0,.5-.42.728-.867.841s-.981.252-1.569.42c-1.428.42-2.939.923-4.48,1.511a17.377,17.377,0,0,0-4.172,2.3,4.072,4.072,0,0,0-1.9,3.277,2.384,2.384,0,0,0,1.4,2.1,9.8,9.8,0,0,0,4.48.673,22.5,22.5,0,0,0,4.2-.42,7.712,7.712,0,0,1,1.4-.309,3.1,3.1,0,0,1,1.2.252c.615.281.924.617.924,1.064,0,.561-.336.812-1.541,1.009a40.23,40.23,0,0,1-5.236.28,13.741,13.741,0,0,1-5.825-1.037,3.705,3.705,0,0,1-2.267-3.443A4.892,4.892,0,0,1,34.054,70.2a16,16,0,0,1,4.058-3.052A2.8,2.8,0,0,1,37.05,64.8Z"/><path class="cls-1" d="M32.4,94.869c0,6.8-.224,9.828-.812,12.235a16.238,16.238,0,0,1-4.34,8.121c-.141.14-.476-.084-.363-.252a20.452,20.452,0,0,0,2.883-8.316,58.747,58.747,0,0,0,.56-9.66,56.669,56.669,0,0,0-.2-6.86,12.743,12.743,0,0,1,2.631,1.288H46.681c.953-.952,1.121-1.064,1.289-1.064.2,0,.39.112,1.344.98.447.392.558.56.558.728,0,.252-.111.392-.867.868a98.346,98.346,0,0,0,.225,10.556,20.67,20.67,0,0,0,1.623,6.859c.336.757.588,1.2.755,1.2.252,0,.588-.7,1.374-3.3.054-.168.419-.084.39.084a30.181,30.181,0,0,0-.447,3.92c0,.336.084.532.476,1.176a1.544,1.544,0,0,1,.139.7.919.919,0,0,1-1.008.98,2.419,2.419,0,0,1-1.595-.868,15.047,15.047,0,0,1-3.219-7.112c-.617-3.164-.756-5.852-.785-15.008H32.4Zm6.215,11.088H35.958v.812c0,.588-.308.84-1.148.84-.534,0-.729-.252-.729-.616,0-.728.084-1.876.084-4.592a31.478,31.478,0,0,0-.14-3.864,15.061,15.061,0,0,1,2.1,1.092h2.49v-3.08c-1.4.14-2.966.252-4.871.308-.168,0-.224-.336-.056-.364a31.456,31.456,0,0,0,7.9-2.044,5.95,5.95,0,0,0,1.961-1.12c1.539,1.2,1.848,1.568,1.848,1.848s-.5.364-1.317.14a26.828,26.828,0,0,1-3.584.952v3.36h2.688c.7-.812.84-.9,1.008-.9.2,0,.365.084,1.175.784.366.308.477.476.477.644,0,.2-.141.336-.729.7v1.288c0,2.268.084,3.612.084,4.172,0,.588-.306.84-1.119.84-.531,0-.756-.168-.756-.672v-.532H40.493v5.012c1.233-.168,2.436-.392,3.668-.644a9.141,9.141,0,0,0-1.541-2.3c-.084-.112.113-.28.225-.224,2.771,1.428,4.4,3.416,4.4,4.9a1.23,1.23,0,0,1-1.091,1.316c-.561,0-.84-.42-1.176-1.456a12.005,12.005,0,0,0-.588-1.68,51.018,51.018,0,0,1-10.361,2.744c-.223.784-.364.952-.616.952-.308,0-.56-.588-1.119-2.968.5.028.783.028,1.119.028q2.56-.084,5.207-.42Zm-2.658-5.628v4.928h2.658v-4.928Zm7.363,0H40.493v4.928h2.828Z"/><path class="cls-1" d="M34.894,134.964a.36.36,0,0,1,.336.309,1.322,1.322,0,0,1-.057.28c-.672,2.239-1.2,4-1.455,5.095a8.412,8.412,0,0,0-.281,1.792c0,.5.084,1.428.084,1.821,0,.559-.307.783-.672.783-.5,0-.867-.308-1.287-1.315a15.264,15.264,0,0,1-.924-5.293,37.086,37.086,0,0,1,1.26-8.231,11.911,11.911,0,0,0,.419-2.3,2.852,2.852,0,0,0-.839-1.989.37.37,0,0,1-.141-.279c0-.113.111-.2.252-.2a3.173,3.173,0,0,1,2.045,1.485,3.594,3.594,0,0,1,.756,1.931,1.236,1.236,0,0,1-.393.925,4.347,4.347,0,0,0-.644,1.232,22.948,22.948,0,0,0-1.4,7.223,9.325,9.325,0,0,0,.2,2.269c.027.139.111.2.2.2.056,0,.14-.057.2-.2.643-1.653,1.315-3.472,1.986-5.208C34.612,135.048,34.753,134.964,34.894,134.964Zm3.191,1.148c.111-.2.2-.279.336-.279.168,0,.309.083.309.251a9.337,9.337,0,0,0-.282,1.849,3.169,3.169,0,0,0,1.037,2.632c1.149.979,3.165,1.147,4.788,1.147a13.152,13.152,0,0,0,1.988-.111,8.138,8.138,0,0,0,1.037-.224,4.373,4.373,0,0,1,1.062-.141,4.092,4.092,0,0,1,1.149.224,1.1,1.1,0,0,1,.756.953.837.837,0,0,1-.7.839,15.613,15.613,0,0,1-3.893.364c-2.324,0-5.068-.168-6.748-1.68a4.274,4.274,0,0,1-1.4-3.275A6.261,6.261,0,0,1,38.085,136.112Zm4.592-6.8a19.121,19.121,0,0,0-3.92,1.232,1.222,1.222,0,0,1-.42.14.317.317,0,0,1-.336-.308c0-.2.111-.308.336-.448a14.886,14.886,0,0,1,3.779-1.68,16.03,16.03,0,0,1,4.229-.533c1.931,0,2.324.617,2.324,1.232,0,.7-.393.841-1.119.841-.393,0-1.149-.084-1.6-.084a4.775,4.775,0,0,0-1.791.308,11.133,11.133,0,0,0-2.969,2.239.419.419,0,0,1-.335.168.329.329,0,0,1-.28-.251.516.516,0,0,1,.168-.364,23.007,23.007,0,0,1,2.127-2.353C42.956,129.364,42.929,129.252,42.677,129.309Z"/><path class="cls-1" d="M46.905,159.185c.868-1.008,1.008-1.092,1.176-1.092.2,0,.363.084,1.371.952.42.364.5.56.5.728s-.111.28-.726.728c-.225,5.74-.5,8.708-.954,10.528a5.4,5.4,0,0,1-1.259,2.548,2.878,2.878,0,0,1-1.764.616c-.336,0-.447-.084-.5-.392-.141-.868-.447-1.12-2.6-1.652-.141-.028-.141-.364,0-.364,1.959.168,2.267.2,2.912.2.84,0,1.062-.532,1.4-2.184a65.96,65.96,0,0,0,.7-9.912H33.941a20.049,20.049,0,0,1-6.245,6.748c-.168.112-.42-.2-.279-.336a25.729,25.729,0,0,0,5.348-8.26,14.8,14.8,0,0,0,.812-2.968c2.127.56,3.024.952,3.024,1.316,0,.28-.307.448-1.149.588-.363.784-.726,1.512-1.092,2.212ZM33.269,169.909v6.468c0,1.428.617,1.736,6.8,1.736,6.077,0,8.092-.2,8.932-.9.645-.5,1.008-1.344,1.736-4.06.028-.14.309-.084.309.056-.057,1.036-.141,2.772-.141,3.136a.572.572,0,0,0,.42.644.82.82,0,0,1,.477.784c0,.7-.617,1.232-1.934,1.6-1.314.392-3.668.644-9.322.644-8.065,0-9.324-.42-9.324-3.165,0-.251.084-1.259.084-4.759a34.219,34.219,0,0,0-.168-4.033,14.988,14.988,0,0,1,2.435,1.149h6.3v-4.788H34.39a7.347,7.347,0,0,0-1.737.2l-.279-1.092a8.6,8.6,0,0,0,2.016.2h5.32c.811-.868.951-.98,1.119-.98.2,0,.363.112,1.2.784.393.308.5.476.5.672s-.084.28-.7.756V166.3c0,2.688.084,3.892.084,4.256,0,.616-.393.84-1.2.84-.561,0-.84-.2-.84-.7v-.784Z"/><path class="cls-1" d="M41.39,211.405a3.039,3.039,0,0,1-1.092,2.548,4.985,4.985,0,0,1-3.361.9c-2.352,0-4.676-.924-4.676-2.94,0-2.128,2.519-2.884,4.537-2.884a22.121,22.121,0,0,1,2.855.2c-.027-1.6-.027-3.276-.056-4.676-.645.056-1.707.084-2.463.084-2.633,0-3.668-.728-3.668-1.932a2.5,2.5,0,0,1,.475-1.512c.14-.2.281-.308.419-.308.114,0,.252.084.252.2a1.043,1.043,0,0,1-.111.364,1.724,1.724,0,0,0-.141.756c0,.7.534,1.036,2.241,1.036.9,0,2.072-.056,2.968-.14,0-1.512-.027-2.772-.056-4.284a41.312,41.312,0,0,1-5.291.364,4.148,4.148,0,0,1-3.893-1.9.676.676,0,0,1-.111-.364.239.239,0,0,1,.223-.2.482.482,0,0,1,.335.14,5.047,5.047,0,0,0,3.249.952,43.481,43.481,0,0,0,5.433-.5c0-.98,0-2.38-.029-3.248-.028-.672-.057-.952-.279-1.176a1.333,1.333,0,0,0-.756-.336,6.116,6.116,0,0,0-.7-.028.2.2,0,0,1-.2-.224c0-.168.141-.28.393-.448a1.962,1.962,0,0,1,1.035-.308,3.929,3.929,0,0,1,1.877.616c.84.476,1.119.98,1.119,1.288a.828.828,0,0,1-.336.672,1.283,1.283,0,0,0-.447.952c-.084.9-.113,1.456-.113,1.988a29.189,29.189,0,0,0,3.052-.644,4.789,4.789,0,0,0,1.344-.532,2.26,2.26,0,0,1,1.26-.308c.7,0,1.736.308,1.736.952,0,.5-.309.728-1.539,1.008a58.039,58.039,0,0,1-5.853,1.064C41,200.037,41,201.353,41,202.865a16.036,16.036,0,0,0,2.492-.56,3.3,3.3,0,0,0,.9-.5,2.05,2.05,0,0,1,1.2-.336c.84,0,1.316.28,1.316.728,0,.42-.308.7-.953.952a23.046,23.046,0,0,1-4.927,1.2c.029,1.6.14,3.64.224,5.18a21.969,21.969,0,0,1,6.412,2.772,1.639,1.639,0,0,1,.924,1.372.985.985,0,0,1-.867,1.064,1.433,1.433,0,0,1-.981-.364,19.128,19.128,0,0,0-5.347-3.22Zm-5.209-1.232c-1.317,0-2.94.42-2.94,1.624s1.653,1.624,3.276,1.624a3.477,3.477,0,0,0,2.519-.7,2.592,2.592,0,0,0,.617-2.044A13.848,13.848,0,0,0,36.181,210.173Z"/><path class="cls-1" d="M35.509,238.033a56.529,56.529,0,0,1,4.508-4.425c1.316-1.119,2.771-2.128,3.892-2.128a2.78,2.78,0,0,1,2.828,2.969c0,1.092-.336,2.884-.56,4.564-.252,2.1-.477,4.256-.477,5.347,0,1.429.45,1.848,1.6,1.848,1.65,0,3.863-1.68,5.207-4.115.111-.2.252-.42.5-.42a.359.359,0,0,1,.308.336,1.275,1.275,0,0,1-.113.5,9.876,9.876,0,0,1-2.406,3.752,5.252,5.252,0,0,1-3.5,1.624c-2.1,0-3.221-1.176-3.221-3.473,0-1.4.141-3.359.336-5.6.168-1.819.309-3.135.309-4.227,0-1.568-.281-2.016-.981-2.016-.9,0-2.1.812-3.5,2.044a46.046,46.046,0,0,0-4.789,4.843c0,1.568,0,3.137.03,4.341q0,.378.084,1.931c.027.392.054.841.084,1.2a8.918,8.918,0,0,1,.054,1.008c0,1.2-.39,2.073-1.035,2.073-.336,0-.588-.225-.7-.728a5.2,5.2,0,0,0-.785-1.9,21.177,21.177,0,0,0-2.127-2.6c-.617.84-.869,1.232-1.121,1.539a.978.978,0,0,1-.811.449c-.449-.028-.7-.336-.7-.953a2.077,2.077,0,0,1,.644-1.372c.141-.139.364-.336.588-.559a33.386,33.386,0,0,0,4.481-6.048c.054-.9.084-1.624.111-2.269a12.188,12.188,0,0,0-2.519,1.288,1,1,0,0,1-.729.392,1.555,1.555,0,0,1-1.092-.671,3.206,3.206,0,0,1-.84-1.681c0-.336.084-.615.2-.615.14,0,.224.084.336.252.56.783.869.951,1.289.951a2.957,2.957,0,0,0,1.008-.223c.812-.308,1.679-.644,2.408-.98.054-1.68.138-3.584.138-4.48,0-1.2-.222-1.54-1.511-1.96-.364-.112-.42-.168-.42-.281s.029-.195.252-.335a1.588,1.588,0,0,1,.812-.2,3.991,3.991,0,0,1,2.1.784c.617.419,1.037.755,1.037,1.344a.829.829,0,0,1-.309.644,1.682,1.682,0,0,0-.42.98c-.056.588-.168,1.568-.224,2.967a1.272,1.272,0,0,1,.449-.083c.139,0,.307.083.559.336a.87.87,0,0,1,.308.559.831.831,0,0,1-.279.533,12.1,12.1,0,0,0-1.232,2.1Zm-1.68,8.2c.2.141.279.084.279-.139,0-1.932,0-3.892.03-5.516-.953,1.26-2.018,2.716-2.66,3.7C32.2,244.949,33.157,245.705,33.829,246.236Z"/><path class="cls-1" d="M35.958,273.705a9.641,9.641,0,0,1,5.879-2.212c4.115,0,6.385,2.576,6.385,5.6,0,4.228-3.809,6.608-7.924,6.608-3.053,0-5.209-1.26-5.209-3.164,0-1.512,1.26-2.324,2.8-2.324a5.344,5.344,0,0,1,4.7,3.584,5.009,5.009,0,0,0,3.527-4.844A4.1,4.1,0,0,0,41.7,272.5a8.95,8.95,0,0,0-6.328,2.856,22.147,22.147,0,0,0-2.183,2.464.912.912,0,0,1-.7.364,1.041,1.041,0,0,1-1.007-1.092,1.414,1.414,0,0,1,.474-1.008c2.156-2.324,4.481-4.733,6.5-7.2,1.2-1.484,2.354-2.884,3.752-4.732.2-.252.114-.308,0-.308a2.522,2.522,0,0,0-.531.14c-1.26.42-2.687.952-3.809,1.4a2.061,2.061,0,0,0-.951.588,1.049,1.049,0,0,1-.756.308,2.239,2.239,0,0,1-1.4-.812,3.178,3.178,0,0,1-1.008-2.044c0-.28.168-.588.336-.588.111,0,.225.112.363.308.618.812,1.008,1.092,1.485,1.092a6.743,6.743,0,0,0,1.457-.2c1.26-.308,2.435-.644,3.7-1.064a1.78,1.78,0,0,0,.84-.5.893.893,0,0,1,.645-.28,3.922,3.922,0,0,1,1.763.868c.561.392.84.756.84,1.2,0,.28-.225.476-.728.588-.28.056-.532.2-1.147.812-.926.924-2.072,2.128-3.725,4.06-1.037,1.2-2.548,2.66-3.668,3.92Zm1.6,5.376a1.362,1.362,0,0,0-1.541,1.288c0,1.148,1.484,1.932,3.724,1.932a5.675,5.675,0,0,0,1.12-.084C40.437,280.621,38.925,279.081,37.554,279.081Z"/><line class="cls-2" x1="126.825" x2="126.825" y2="297.776"/><line class="cls-2" y1="297.776"/></svg>