<svg id="レイヤー_1" data-name="レイヤー 1" xmlns="http://www.w3.org/2000/svg" viewBox="0 0 136.137 297.775"><defs><style>.cls-1{fill:#525a70;}.cls-2{fill:none;}</style></defs><path class="cls-1" d="M84.989,46.02c0,.587-.363.923-1.26.923-.7,0-.923-.279-.923-.783,0-1.54.139-3.724.139-13.216,0-4.62-.027-6.692-.139-8.568a17.4,17.4,0,0,1,2.548,1.2h3.108a24.72,24.72,0,0,0,.868-2.52,8.741,8.741,0,0,0,.392-2.072c2.38.616,2.912.868,2.912,1.2,0,.252-.141.42-1.036.588a20.138,20.138,0,0,1-2.325,2.8h8.092c.868-.924,1.065-1.037,1.233-1.037s.364.085,1.343.869c.449.364.561.587.561.756,0,.224-.112.364-.813.9v5.151c0,8.6.113,12.433.113,13.58,0,.672-.365.953-1.26.953-.7,0-.925-.224-.925-.812V44.788H84.989ZM97.617,26.28H84.989v5.18H97.617ZM84.989,37.423H97.617V32.16H84.989Zm0,6.664H97.617V38.124H84.989Z"/><path class="cls-1" d="M89.273,60.188c.756-.84.924-.952,1.092-.952s.364.112,1.233.924c.391.336.5.5.5.672,0,.2-.14.336-.785.616-.223.9-.447,1.736-.727,2.548h3.527a37.544,37.544,0,0,0,.393-5.32A16.515,16.515,0,0,0,94.4,56.66c2.185.224,2.968.448,2.968.812,0,.224-.139.392-.867.672A35.722,35.722,0,0,1,96.021,64h4.088c1.092-1.288,1.317-1.428,1.485-1.428s.364.14,1.54,1.092c.475.42.588.616.588.784s-.084.252-.365.252H96.246A12.276,12.276,0,0,0,99.382,69.9a13.276,13.276,0,0,0,4.815,2.827c.141.057.084.281-.055.309a1.465,1.465,0,0,0-1.2,1.316c-.055.279-.2.392-.391.392a1.415,1.415,0,0,1-.7-.281,12.193,12.193,0,0,1-3.556-3.416A17.437,17.437,0,0,1,95.8,65.116c-1.065,4.732-3.557,7.559-8.344,9.519-.168.056-.364-.252-.225-.336a13.757,13.757,0,0,0,6.749-9.6H90.31c-1.989,5.124-5.628,8.54-11.4,10.78-.2.084-.364-.308-.2-.392,5.992-3.332,9.408-7.98,10.723-14.2H84.905c-.279.588-.615,1.176-.951,1.736,2.268.448,3.584,1.344,3.584,2.492a.925.925,0,0,1-.812,1.008c-.308,0-.56-.168-.785-.7a5.142,5.142,0,0,0-2.212-2.463,18.505,18.505,0,0,1-1.9,2.52c2.129.672,3.416,1.819,3.416,3a.994.994,0,0,1-.979,1.064c-.392,0-.616-.2-.784-.756a6.132,6.132,0,0,0-1.905-3.024,20.614,20.614,0,0,1-2.884,2.492c-.168.112-.419-.2-.279-.336a22.483,22.483,0,0,0,5.012-8.008,14.633,14.633,0,0,0,.924-3.613c2.267.561,2.856.785,2.856,1.121,0,.28-.253.5-1.093.7-.279.728-.559,1.427-.868,2.072ZM79.529,80.376c0-.645.281-.98,1.177-1.4a4.086,4.086,0,0,0,2.548-3.612c.027-.168.336-.14.364.028.336,3.752-1.316,6.132-2.912,6.132A1.143,1.143,0,0,1,79.529,80.376Zm7.813.028c0-.532.252-1.568.28-2.689a10.145,10.145,0,0,0-.28-2.239c-.029-.112.2-.2.28-.112a6.509,6.509,0,0,1,2.016,4.284c0,1.147-.588,1.68-1.344,1.68A.889.889,0,0,1,87.342,80.4Zm6.3-.673a9.609,9.609,0,0,0-1.092-4.367c-.057-.112.168-.224.28-.14,1.9,1.288,3.052,3.08,3.052,4.367,0,.869-.5,1.569-1.233,1.569S93.642,80.711,93.642,79.731Zm5.824-18.115a5.362,5.362,0,0,0-1.849-2.688c-.084-.056.029-.28.141-.252,2.1.392,3.443,1.4,3.443,2.52a1.149,1.149,0,0,1-.979,1.26C99.886,62.456,99.661,62.2,99.466,61.616Zm.84,18.059a9.529,9.529,0,0,0-2.157-4.451c-.084-.084.084-.252.2-.2,2.744,1.428,4.395,3.36,4.395,4.815,0,.9-.5,1.485-1.2,1.485C100.81,81.328,100.558,80.963,100.306,79.675Z"/><path class="cls-1" d="M91.6,96.448a11.217,11.217,0,0,1-.728,3.276,28.214,28.214,0,0,1-4.005,7.252,3.744,3.744,0,0,1-2.827,1.819,2.583,2.583,0,0,1-2.1-1.12,6.145,6.145,0,0,1-1.288-4.143,10.2,10.2,0,0,1,2.632-6.609,11.973,11.973,0,0,1,8.96-3.668,10.3,10.3,0,0,1,6.5,2.157,8.323,8.323,0,0,1,.084,12.908c-2.071,1.792-5.907,2.968-9.323,3.136a.4.4,0,0,1-.393-.336c0-.224.141-.309.5-.392a15.572,15.572,0,0,0,7.617-3.557,7.912,7.912,0,0,0,2.519-5.8,7.064,7.064,0,0,0-2.351-5.348,8.112,8.112,0,0,0-5.208-1.82,12.214,12.214,0,0,0-1.485.056A3.269,3.269,0,0,1,91.6,96.448Zm-7.056.672a8.729,8.729,0,0,0-2.437,6.048,4.832,4.832,0,0,0,.617,2.6,1.57,1.57,0,0,0,1.316.952c.588,0,1.148-.5,1.96-1.6a29.819,29.819,0,0,0,4-7.28,6.131,6.131,0,0,0,.392-2.212,1.73,1.73,0,0,0-.449-1.288A9.877,9.877,0,0,0,84.542,97.12Z"/><path class="cls-1" d="M98.821,128.956c.9-1.064,1.036-1.176,1.233-1.176s.336.084,1.4,1.008c.448.448.561.644.561.812s-.113.308-.813.784c-.223,6.1-.672,10.444-1.483,13.132a4.969,4.969,0,0,1-1.96,3.136,4.221,4.221,0,0,1-2.017.5.463.463,0,0,1-.531-.448c-.168-.868-.672-1.344-3.444-2.24-.2-.056-.168-.476.028-.448a24.613,24.613,0,0,0,4.227.532c.9,0,1.4-.644,1.821-2.212.727-2.66,1.092-6.5,1.26-12.684h-7.84c-.392,4.48-1.233,7.756-2.744,10.136-2.157,3.528-4.985,5.852-9.6,7.644-.2.084-.364-.308-.2-.42a19.993,19.993,0,0,0,8.372-8.792,24.045,24.045,0,0,0,1.96-8.568H82.525a9.3,9.3,0,0,0-2.212.2l-.307-1.092a13.068,13.068,0,0,0,2.519.2h6.58c.084-1.148.113-2.38.113-3.7a14.028,14.028,0,0,0-.168-2.632c3.136.336,3.359.476,3.359.9,0,.252-.2.448-.924.728,0,.672-.027,1.26-.027,1.876-.028.98-.084,1.932-.141,2.828Z"/><path class="cls-1" d="M90.729,170.424c0-1.6-.391-2.268-1.4-2.268a5.437,5.437,0,0,0-3.444,1.96,21.842,21.842,0,0,0-2.212,2.8c-.225.308-.588.671-.952.671-.533,0-.924-.335-.924-1.119,0-.42.307-.812.868-1.372a30.261,30.261,0,0,0,2.716-3.22,36.366,36.366,0,0,0,2.072-3.3,16.265,16.265,0,0,1-2.408.168,3.382,3.382,0,0,1-3.248-1.792.678.678,0,0,1-.112-.364.229.229,0,0,1,.224-.252.54.54,0,0,1,.336.224,3.6,3.6,0,0,0,2.772.924,15.462,15.462,0,0,0,3.164-.448,15.934,15.934,0,0,0,.923-2.38,3.214,3.214,0,0,0,.141-.728c0-.364-.2-.532-.56-.644a6.97,6.97,0,0,0-1.148-.224c-.141-.028-.225-.084-.225-.168a.545.545,0,0,1,.225-.308,1.705,1.705,0,0,1,1.092-.364,4.779,4.779,0,0,1,2.1.644c.672.392.924.756.924,1.092a.749.749,0,0,1-.307.644,2.638,2.638,0,0,0-.7.756c-.168.28-.476.84-.7,1.288a11.786,11.786,0,0,0,2.437-.98,2.89,2.89,0,0,1,1.428-.476c.616,0,1.064.336,1.064.84s-.393.672-.925.868a46.7,46.7,0,0,1-4.9,1.4c-.868,1.456-1.737,2.94-2.689,4.284a6.3,6.3,0,0,1,3.361-1.344,2.424,2.424,0,0,1,2.576,2.38c.056.336.056.84.084,1.316a65.214,65.214,0,0,0,5.6-3.5.832.832,0,0,0,.42-.588c0-.14-.111-.253-.336-.392a3.7,3.7,0,0,0-.839-.308c-.168-.056-.281-.112-.281-.2,0-.112.2-.28.42-.364a1.753,1.753,0,0,1,.7-.112,4.954,4.954,0,0,1,2.128.7c.84.448,1.288.924,1.288,1.484a.72.72,0,0,1-.727.727,3.933,3.933,0,0,0-1.093.309c-1.371.588-2.771,1.231-4.7,2.24-.812.42-1.736.98-2.521,1.4v3.92c0,.784-.307,1.176-.868,1.176a.887.887,0,0,1-.952-1.008c0-.672.057-1.848.112-3.22-2.463,1.4-3.919,2.492-3.919,4.228,0,1.148,1.007,2.044,3.612,2.044a30.593,30.593,0,0,0,3.92-.2c.7-.112,1.231-.225,1.651-.336a4.571,4.571,0,0,1,.952-.168c.981,0,1.933.56,1.933,1.231,0,.449-.309.729-1.4.9a37.287,37.287,0,0,1-5.292.28c-3.808,0-6.384-.924-6.384-3.584,0-2.436,1.931-4.032,4.927-5.824Z"/><path class="cls-1" d="M34.338,25.384v1.539a24.6,24.6,0,0,1-.924,6.973A12.414,12.414,0,0,1,29.8,39.775c-.14.141-.5-.055-.392-.224a15.329,15.329,0,0,0,2.407-6.1,33.81,33.81,0,0,0,.42-5.88,37.44,37.44,0,0,0-.168-4.229,15.884,15.884,0,0,1,2.521,1.345H44.7c-.027-.336-.055-.672-.055-1.008-.056-1.036-.084-1.512-.2-2.465,2.6.252,2.969.477,2.969.841,0,.252-.225.476-.952.784,0,.671.027,1.288.056,1.848h4.788c.9-1.232,1.036-1.316,1.232-1.316s.336.084,1.4.98c.449.42.533.588.533.756,0,.2-.113.28-.393.28H46.546a15.482,15.482,0,0,0,1.68,6.776,14.373,14.373,0,0,0,1.064-1.9,15.3,15.3,0,0,0,1.008-2.8c2.3.952,2.492,1.036,2.492,1.4,0,.224-.252.364-1.009.476a17.882,17.882,0,0,1-2.716,4.228,10.881,10.881,0,0,0,2.716,2.716,2.157,2.157,0,0,0,1.149.532c.223,0,.559-.364,1.679-2.52.057-.113.309,0,.281.14-.281,1.371-.476,2.324-.476,2.575a.983.983,0,0,0,.308.617,1.4,1.4,0,0,1,.307.9.964.964,0,0,1-1.036,1.064,4.27,4.27,0,0,1-1.764-.533,12.939,12.939,0,0,1-4.507-4.087,17.122,17.122,0,0,1-4.985,3.192c-.168.084-.42-.28-.252-.393a18.963,18.963,0,0,0,4.536-3.948c-.139-.279-.28-.531-.419-.812a20.508,20.508,0,0,1-1.876-7.615ZM30.361,44.507c0-.588.281-.895,1.009-1.232a3.688,3.688,0,0,0,2.38-3.191c.027-.14.308-.112.336.028a9.848,9.848,0,0,1,.084,1.26c0,2.268-1.065,4.256-2.632,4.256A1.075,1.075,0,0,1,30.361,44.507Zm4.62-16.6a6.883,6.883,0,0,0,1.653.2H41.17c.811-1.064,1.063-1.177,1.231-1.177s.393.113,1.372.9c.393.336.533.532.533.7s-.084.279-.365.279H36.689a5.607,5.607,0,0,0-1.427.169Zm2.3,8.568c0,.531-.336.783-1.091.783-.56,0-.756-.2-.756-.587,0-.336.084-1.008.084-3.081,0-1.427-.029-2.463-.113-3.5A17.093,17.093,0,0,1,37.418,31.1h3.836c.7-.757.868-.868,1.063-.868s.336.111,1.092.756c.393.364.505.5.505.672,0,.223-.084.364-.728.756V33.2c0,1.708.055,2.464.055,2.687,0,.5-.336.785-1.092.785-.532,0-.727-.2-.727-.644v-.252H37.277Zm1.6,6.86c0,1.091.392,1.259,3.779,1.259,2.66,0,3.865-.111,4.4-.643.5-.449.727-1.149,1.176-2.576.028-.141.336-.113.336.027-.029.617-.056,1.289-.056,1.905,0,.392.111.5.363.615a.778.778,0,0,1,.589.812c0,.561-.477,1.009-1.4,1.232a27.1,27.1,0,0,1-5.964.365c-4.229,0-5.264-.5-5.264-2.969,0-.335.084-.728.084-2.071a12.577,12.577,0,0,0-.141-2.325c2.8.309,3,.393,3,.728,0,.225-.113.393-.9.728ZM41.422,31.8H37.277v3.277h4.145Zm1.68,9.688a7.2,7.2,0,0,0-2.212-2.631c-.084-.057.028-.252.139-.224,2.576.419,4.145,1.54,4.145,2.828a1.088,1.088,0,0,1-1.036,1.175C43.634,42.631,43.466,42.436,43.1,41.483ZM49.794,23.7a5.213,5.213,0,0,0-1.765-1.876c-.084-.056-.027-.224.084-.224,1.989.168,3.193.784,3.193,1.764a.856.856,0,0,1-.869.868C50.13,24.236,50.046,24.124,49.794,23.7Zm2.38,20.328a8.321,8.321,0,0,0-2.324-3.808c-.084-.084.084-.252.2-.225,2.66.84,4.34,2.493,4.34,4.033,0,.9-.42,1.4-1.065,1.4C52.706,45.432,52.481,45.18,52.174,44.032Z"/><path class="cls-1" d="M36.3,74.02c0-1.765.111-4.424.223-7.141.084-2.211.141-4.4.2-6.635.028-1.036-.113-1.456-.532-1.736a4.521,4.521,0,0,0-.98-.448c-.225-.084-.336-.112-.336-.252s.111-.28.336-.364a2.814,2.814,0,0,1,1.008-.168,4.561,4.561,0,0,1,2.267,1.063,2.262,2.262,0,0,1,1.008,1.513,1.119,1.119,0,0,1-.391.784,1.33,1.33,0,0,0-.392.9c-.168,1.344-.336,3.052-.477,5.292-.167,2.6-.28,5.347-.28,6.8,0,1.4.225,2.211.7,2.66a3.916,3.916,0,0,0,2.437.588,15.336,15.336,0,0,0,6.271-1.82,19.248,19.248,0,0,0,4.4-3.3c.14-.14.252-.224.363-.224a.306.306,0,0,1,.309.252.8.8,0,0,1-.225.559,16.808,16.808,0,0,1-5.124,4.593A13.233,13.233,0,0,1,40.693,78.7C38.006,78.7,36.3,77.379,36.3,74.02Zm8.764-14.057a6.334,6.334,0,0,1,2.436,1.4c.672.588,1.064,1.092,1.064,1.679a.78.78,0,0,1-.785.841c-.363,0-.672-.253-.923-.756A9.706,9.706,0,0,0,44.5,60.44a.434.434,0,0,1-.2-.28.288.288,0,0,1,.307-.281A1.638,1.638,0,0,1,45.062,59.963ZM47.5,58.087a6.622,6.622,0,0,1,2.239,1.093c.672.476,1.288,1.12,1.288,1.764a.794.794,0,0,1-.755.895c-.365,0-.588-.139-.9-.671A8.55,8.55,0,0,0,46.8,58.536a.337.337,0,0,1-.2-.281.28.28,0,0,1,.28-.279A3.757,3.757,0,0,1,47.5,58.087Z"/><path class="cls-1" d="M31.51,92.164a9.513,9.513,0,0,0-1.708.168L29.521,91.3a13.064,13.064,0,0,0,2.017.168h9.575c1.12-1.26,1.345-1.4,1.513-1.4s.392.14,1.512,1.064c.532.42.643.588.643.756,0,.2-.084.28-.363.28H40.861v10.78c0,5.768.057,10.108.057,11.452,0,.672-.364,1.008-1.232,1.008-.7,0-.924-.252-.924-.84,0-.476.139-2.128.139-6.58a45.565,45.565,0,0,1-7.615,3.164c-.2.784-.392,1.008-.7,1.008s-.364-.056-1.12-2.912c.727-.056,1.456-.112,2.66-.308V92.164Zm7.391,0H34.086v4.76H38.9Zm-4.815,9.968H38.9V97.624H34.086Zm0,6.468c1.624-.336,3.22-.7,4.815-1.176v-4.592H34.086ZM51.025,94.488c.953-1.064,1.065-1.176,1.288-1.176.168,0,.336.084,1.373.98.532.476.559.644.559.84,0,.252-.2.42-.895.784a30.7,30.7,0,0,1-4.117,11.4,18.108,18.108,0,0,0,6.664,5.124c.14.056.029.308-.112.336-.643.2-.951.5-1.2,1.344-.112.392-.2.5-.421.5-.2,0-.5-.168-1.147-.616a20.645,20.645,0,0,1-4.9-5.124,22.288,22.288,0,0,1-6.523,5.6c-.141.084-.364-.224-.225-.336a25.729,25.729,0,0,0,5.8-6.8c-.056-.112-.14-.252-.2-.364-1.456-2.688-2.576-6.412-3.164-11.788a10.992,10.992,0,0,0-1.764.14l-.252-1.036a13.427,13.427,0,0,0,2.491.2Zm-6.58.7a28.054,28.054,0,0,0,3.613,10.528,34.939,34.939,0,0,0,3.164-10.528Z"/><path class="cls-1" d="M38.286,138.084a9.646,9.646,0,0,1,5.88-2.212c4.115,0,6.384,2.576,6.384,5.6,0,4.228-3.809,6.608-7.924,6.608-3.053,0-5.208-1.26-5.208-3.164,0-1.512,1.26-2.324,2.8-2.324a5.345,5.345,0,0,1,4.7,3.584,5.011,5.011,0,0,0,3.527-4.844,4.1,4.1,0,0,0-4.424-4.452,8.948,8.948,0,0,0-6.328,2.856,22.045,22.045,0,0,0-2.183,2.464.914.914,0,0,1-.7.364,1.042,1.042,0,0,1-1.007-1.092,1.412,1.412,0,0,1,.475-1.008c2.156-2.324,4.481-4.732,6.5-7.2,1.2-1.484,2.353-2.884,3.752-4.732.2-.252.113-.308,0-.308a2.522,2.522,0,0,0-.531.14c-1.261.42-2.688.952-3.809,1.4a2.065,2.065,0,0,0-.952.588,1.049,1.049,0,0,1-.756.308,2.239,2.239,0,0,1-1.4-.812,3.179,3.179,0,0,1-1.009-2.044c0-.28.168-.588.336-.588.112,0,.225.112.364.308.617.812,1.008,1.092,1.485,1.092a6.735,6.735,0,0,0,1.456-.2c1.26-.308,2.435-.644,3.7-1.064a1.783,1.783,0,0,0,.841-.5.893.893,0,0,1,.644-.28,3.917,3.917,0,0,1,1.763.868c.561.392.841.756.841,1.2,0,.28-.225.476-.728.588-.281.056-.533.2-1.148.812-.925.924-2.072,2.128-3.725,4.06-1.036,1.2-2.547,2.66-3.668,3.92Zm1.6,5.376a1.361,1.361,0,0,0-1.54,1.288c0,1.148,1.483,1.932,3.723,1.932a5.687,5.687,0,0,0,1.121-.084C42.766,145,41.254,143.46,39.882,143.46Z"/><line class="cls-2" x1="136.137" x2="136.137" y2="297.775"/><line class="cls-2" y1="297.775"/></svg>