<svg id="レイヤー_1" data-name="レイヤー 1" xmlns="http://www.w3.org/2000/svg" viewBox="0 0 126.825 297.775"><defs><style>.cls-1{fill:#525a70;}.cls-2{fill:none;}</style></defs><path class="cls-1" d="M81.01,24.5v1.54a24.628,24.628,0,0,1-.924,6.972,12.432,12.432,0,0,1-3.613,5.88c-.139.14-.5-.056-.391-.224a15.322,15.322,0,0,0,2.406-6.1,33.81,33.81,0,0,0,.42-5.88,37.411,37.411,0,0,0-.168-4.228A15.778,15.778,0,0,1,81.262,23.8H91.369c-.027-.336-.057-.672-.057-1.008-.054-1.036-.084-1.512-.195-2.464,2.6.252,2.969.476,2.969.84,0,.252-.225.476-.953.784,0,.672.027,1.288.056,1.848h4.788c.9-1.232,1.037-1.316,1.232-1.316s.336.084,1.4.98c.448.42.532.588.532.756,0,.2-.112.28-.393.28H93.217A15.506,15.506,0,0,0,94.9,31.28a14.371,14.371,0,0,0,1.065-1.9,15.333,15.333,0,0,0,1.008-2.8c2.3.952,2.492,1.036,2.492,1.4,0,.224-.252.364-1.008.476a17.9,17.9,0,0,1-2.717,4.228A10.884,10.884,0,0,0,98.453,35.4a2.154,2.154,0,0,0,1.149.532c.222,0,.558-.364,1.679-2.52.057-.112.309,0,.28.14-.28,1.372-.475,2.324-.475,2.576a.986.986,0,0,0,.307.616,1.394,1.394,0,0,1,.308.9.965.965,0,0,1-1.037,1.064,4.266,4.266,0,0,1-1.764-.532,12.961,12.961,0,0,1-4.507-4.088,17.089,17.089,0,0,1-4.985,3.192c-.168.084-.42-.28-.252-.392a19.012,19.012,0,0,0,4.537-3.948c-.14-.28-.281-.532-.42-.812A20.513,20.513,0,0,1,91.4,24.5ZM77.033,43.628c0-.588.279-.9,1.008-1.232A3.691,3.691,0,0,0,80.422,39.2c.027-.14.306-.112.336.028a10.225,10.225,0,0,1,.084,1.26c0,2.268-1.065,4.256-2.633,4.256A1.074,1.074,0,0,1,77.033,43.628Zm4.619-16.6a6.833,6.833,0,0,0,1.653.2h4.537c.81-1.064,1.062-1.176,1.23-1.176s.393.112,1.373.9c.393.336.532.532.532.7s-.084.28-.364.28H83.361a5.592,5.592,0,0,0-1.427.168Zm2.3,8.568c0,.532-.336.784-1.092.784-.56,0-.755-.2-.755-.588,0-.336.084-1.008.084-3.08,0-1.428-.03-2.464-.114-3.5a16.942,16.942,0,0,1,2.018,1.008h3.836c.7-.756.867-.868,1.062-.868s.336.112,1.092.756c.393.364.506.5.506.672,0,.224-.084.364-.729.756v.784c0,1.708.055,2.464.055,2.688,0,.5-.336.784-1.092.784-.531,0-.726-.2-.726-.644v-.252H83.949Zm1.6,6.86c0,1.092.392,1.26,3.779,1.26,2.66,0,3.865-.112,4.4-.644.5-.448.728-1.148,1.175-2.576.03-.14.336-.112.336.028-.027.616-.054,1.288-.054,1.9,0,.392.111.5.363.616a.776.776,0,0,1,.588.812c0,.56-.477,1.008-1.4,1.232a27.093,27.093,0,0,1-5.962.364c-4.229,0-5.264-.5-5.264-2.968,0-.336.084-.728.084-2.072a12.561,12.561,0,0,0-.141-2.324c2.8.308,3,.392,3,.728,0,.224-.113.392-.9.728Zm2.549-11.536H83.949v3.276h4.145ZM89.773,40.6a7.211,7.211,0,0,0-2.212-2.632c-.084-.056.029-.252.14-.224,2.576.42,4.145,1.54,4.145,2.828a1.09,1.09,0,0,1-1.037,1.176C90.305,41.752,90.137,41.556,89.773,40.6Zm6.692-17.78A5.211,5.211,0,0,0,94.7,20.948c-.084-.056-.027-.224.084-.224,1.988.168,3.192.784,3.192,1.764a.855.855,0,0,1-.868.868C96.8,23.356,96.717,23.244,96.465,22.824Zm2.381,20.328a8.336,8.336,0,0,0-2.325-3.808c-.084-.084.084-.252.2-.224,2.66.84,4.34,2.492,4.34,4.032,0,.9-.42,1.4-1.065,1.4C99.377,44.552,99.152,44.3,98.846,43.152Z"/><path class="cls-1" d="M82.969,73.14c0-1.764.111-4.424.224-7.14.084-2.212.141-4.4.2-6.636.029-1.036-.112-1.456-.532-1.736a4.57,4.57,0,0,0-.98-.448c-.225-.084-.336-.112-.336-.252s.111-.28.336-.364a2.818,2.818,0,0,1,1.008-.168,4.559,4.559,0,0,1,2.267,1.064,2.254,2.254,0,0,1,1.008,1.512,1.122,1.122,0,0,1-.39.784,1.328,1.328,0,0,0-.393.9C85.209,62,85.041,63.7,84.9,65.944c-.168,2.6-.279,5.348-.279,6.8,0,1.4.225,2.212.7,2.66A3.919,3.919,0,0,0,87.758,76a15.34,15.34,0,0,0,6.271-1.82,19.291,19.291,0,0,0,4.4-3.3c.138-.14.252-.224.363-.224a.307.307,0,0,1,.309.252.8.8,0,0,1-.225.56,16.819,16.819,0,0,1-5.125,4.592,13.229,13.229,0,0,1-6.383,1.764C84.678,77.816,82.969,76.5,82.969,73.14Zm8.763-14.056a6.323,6.323,0,0,1,2.438,1.4c.672.588,1.062,1.092,1.062,1.68a.778.778,0,0,1-.783.84c-.363,0-.672-.252-.924-.756a9.718,9.718,0,0,0-2.351-2.688.432.432,0,0,1-.2-.28.289.289,0,0,1,.308-.28A1.585,1.585,0,0,1,91.732,59.084Zm2.438-1.876A6.6,6.6,0,0,1,96.408,58.3c.672.476,1.289,1.12,1.289,1.764a.8.8,0,0,1-.756.9c-.365,0-.588-.14-.9-.672a8.527,8.527,0,0,0-2.576-2.632.337.337,0,0,1-.2-.28.281.281,0,0,1,.28-.28A3.665,3.665,0,0,1,94.17,57.208Z"/><path class="cls-1" d="M84.957,102.2a9.657,9.657,0,0,1,5.881-2.212c4.115,0,6.383,2.577,6.383,5.6,0,4.229-3.809,6.608-7.924,6.608-3.053,0-5.207-1.26-5.207-3.164,0-1.512,1.26-2.324,2.8-2.324a5.347,5.347,0,0,1,4.7,3.584,5.011,5.011,0,0,0,3.527-4.843A4.1,4.1,0,0,0,90.7,101a8.946,8.946,0,0,0-6.328,2.856,21.842,21.842,0,0,0-2.183,2.465.919.919,0,0,1-.7.363,1.042,1.042,0,0,1-1.007-1.092,1.41,1.41,0,0,1,.476-1.008c2.156-2.323,4.481-4.732,6.5-7.2,1.2-1.484,2.352-2.885,3.752-4.732.2-.252.111-.308,0-.308a2.462,2.462,0,0,0-.531.14c-1.262.42-2.69.952-3.809,1.4a2.063,2.063,0,0,0-.953.587,1.049,1.049,0,0,1-.756.308,2.24,2.24,0,0,1-1.4-.812,3.178,3.178,0,0,1-1.01-2.043c0-.28.168-.589.336-.589.113,0,.225.113.365.309.616.811,1.008,1.092,1.485,1.092a6.741,6.741,0,0,0,1.455-.2c1.26-.307,2.435-.643,3.695-1.064a1.787,1.787,0,0,0,.842-.5.894.894,0,0,1,.642-.279,3.917,3.917,0,0,1,1.764.867c.561.392.842.757.842,1.2,0,.28-.225.476-.729.588-.281.056-.533.2-1.148.812-.924.925-2.072,2.128-3.725,4.06-1.035,1.2-2.547,2.661-3.668,3.92Zm1.6,5.376a1.361,1.361,0,0,0-1.539,1.288c0,1.148,1.482,1.932,3.722,1.932a5.687,5.687,0,0,0,1.121-.084C89.437,109.12,87.926,107.58,86.553,107.58Z"/><path class="cls-1" d="M95.205,126.928c1.287-1.54,1.512-1.652,1.68-1.652s.392.112,1.736,1.2c.645.532.756.7.756.869,0,.195-.084.279-.363.279H82.828a18.252,18.252,0,0,1-6.1,6.888c-.168.112-.448-.168-.307-.308a25.061,25.061,0,0,0,5.066-8.259,13.06,13.06,0,0,0,.729-2.661c2.129.588,2.939.98,2.939,1.316s-.279.5-1.146.616c-.252.589-.533,1.176-.813,1.708ZM91.369,145.8a1.019,1.019,0,0,1-.951,1.148c-.506,0-.842-.336-1.457-1.371a15.853,15.853,0,0,0-1.988-2.773,20.964,20.964,0,0,1-9.631,5.516c-.2.056-.336-.308-.168-.392a24.834,24.834,0,0,0,8.512-6.412,37.635,37.635,0,0,0-4.844-3.752c-.141-.084.027-.42.2-.364a35.084,35.084,0,0,1,5.543,2.968,22.4,22.4,0,0,0,1.736-2.828,18.657,18.657,0,0,0,.786-1.792c1.959.785,2.66,1.232,2.66,1.6,0,.392-.282.532-1.176.532a25.4,25.4,0,0,1-2.438,3.612C90.164,143.084,91.369,144.652,91.369,145.8ZM94.2,134.068c.951-1.008,1.092-1.119,1.26-1.119.2,0,.363.111,1.287.895.449.364.533.532.533.7,0,.252-.113.448-.728.84a22.476,22.476,0,0,0,.812,6.244,9.67,9.67,0,0,0,1.68,3.164c.336.42.561.644.783.644s.533-.756,1.4-3.556c.029-.139.365-.055.336.084-.336,2.576-.42,3.613-.42,3.892a1.073,1.073,0,0,0,.392.924,1.011,1.011,0,0,1,.309.756.988.988,0,0,1-1.037.98,3.018,3.018,0,0,1-1.68-.672,9.923,9.923,0,0,1-3.164-4.284c-.951-2.3-1.4-4.452-1.484-8.792H81.316a9.809,9.809,0,0,0-1.988.2l-.279-1.064a14.813,14.813,0,0,0,2.24.168Zm-12.125-3.892a10.8,10.8,0,0,0,2.073.2h8.763c1.121-1.288,1.346-1.456,1.514-1.456s.42.168,1.6,1.12c.531.42.671.588.671.756,0,.2-.113.281-.392.281H84.145a10.244,10.244,0,0,0-1.792.139Z"/><path class="cls-1" d="M79.217,182.761c0,.531-.364.812-1.065.812-.588,0-.81-.224-.81-.7,0-1.456.138-3.5.138-10.416,0-4.227-.027-6.383-.168-8.4a13.894,13.894,0,0,1,2.045,1.008h1.317v-4.284H78.713a12.059,12.059,0,0,0-1.959.168l-.281-1.037a11.573,11.573,0,0,0,2.183.168h7.449c1.065-1.231,1.26-1.371,1.428-1.371.195,0,.393.14,1.512,1.064.56.391.672.588.672.756s-.084.252-.364.252h-4.2v4.284h1.485c.672-.756.812-.868,1.008-.868.167,0,.335.112,1.121.756.363.335.5.476.5.672s-.141.308-.756.728v4.479c0,6.916.138,10.472.138,11.733,0,.5-.336.784-1.035.784-.588,0-.812-.225-.812-.756v-1.121H79.217Zm7.588-9.464a9.02,9.02,0,0,1-.924.028c-1.988,0-2.268-.364-2.268-1.428,0-.224.028-.7.028-2.016v-4.116H82.213a18.743,18.743,0,0,1-.561,5.291,8.976,8.976,0,0,1-1.959,3.3c-.084.111-.336-.084-.281-.2a9.374,9.374,0,0,0,1.065-3.275,31.977,31.977,0,0,0,.308-5.124H79.217v10.864h7.588Zm-7.588,7.476h7.588v-3.444H79.217Zm4.424-15.708v-4.284H82.213v4.284Zm3.164.7H85.1v5.74c0,.308.2.392.839.392a5.58,5.58,0,0,0,.868-.056Zm6.132,3.752v10.248c0,1.231.616,1.428,3.3,1.428,2.381,0,3.332-.224,3.7-.728a11.511,11.511,0,0,0,1.317-3.752c.027-.112.279-.084.279.028-.027.952-.084,2.379-.084,2.856,0,.5.084.616.42.756a.813.813,0,0,1,.42.784c0,.672-.531,1.2-1.457,1.483a18.532,18.532,0,0,1-5.123.449c-3.752,0-4.787-.644-4.787-2.94,0-.952.027-2.52.027-6.385,0-3.527,0-4.451-.14-6.075a18.853,18.853,0,0,1,2.408,1.148h5.125v-8.064H92.8a7.859,7.859,0,0,0-2.127.224l-.281-1.092a13.947,13.947,0,0,0,2.408.168h5.348c.839-.952.98-1.064,1.148-1.064.195,0,.363.112,1.316.9.448.336.561.5.561.672s-.084.336-.813.868v2.212c0,4.06.112,6.02.112,6.636,0,.7-.393,1.008-1.2,1.008-.618,0-.924-.225-.924-.756v-1.008Z"/><path class="cls-1" d="M34.949,30.16c0,.5,0,1.008.028,1.708h3.388c.813-.9,1.008-1.036,1.149-1.036.2,0,.39.14,1.343.868.28.252.42.448.42.616s-.113.252-.365.252H35.006c.027.644.055,1.092.055,1.344,0,.476-.28.728-1.065.728-.5,0-.726-.224-.726-.588,0-.252.054-.756.054-1.484H29.488a11.031,11.031,0,0,0-1.931.168l-.28-1.12a8.8,8.8,0,0,0,2.211.252h3.865c.028-.56.028-1.148.028-1.708h-2.66v.084c0,.476-.336.728-.9.728-.5,0-.726-.2-.726-.672,0-.42.054-1.12.054-3.612,0-1.288,0-1.932-.084-2.884a10.858,10.858,0,0,1,1.821.868h2.492v-1.68H29.8a11.189,11.189,0,0,0-1.9.168L27.586,22.1a12.081,12.081,0,0,0,2.154.2h3.641c-.028-.952-.057-1.568-.141-2.324,2.324.28,2.522.364,2.522.672,0,.2-.057.28-.813.644v1.008h2.969c.81-.952,1.008-1.092,1.176-1.092s.363.14,1.343.868c.364.308.5.5.5.672s-.113.252-.365.252H34.949v1.68H37.5c.561-.644.7-.756.9-.756.168,0,.335.112.923.588.393.28.477.476.477.644,0,.14-.084.252-.615.588v1.092c0,2.072.054,3.024.054,3.332,0,.476-.336.728-.923.728-.475,0-.672-.224-.672-.616V30.16Zm-6.3,15.652a18.306,18.306,0,0,0,3.836-2.576,13,13,0,0,0,1.905-2.268c1.931,1.092,2.213,1.316,2.213,1.54,0,.2-.366.364-1.122.252a15.378,15.378,0,0,1-6.664,3.388C28.648,46.176,28.51,45.9,28.648,45.812Zm9.913-5.46c-2.6.2-5.375.364-8.512.5-.225.588-.42.756-.615.756-.225,0-.393-.42-.84-2.548,1.259.112,2.183.14,3.863.14,1.877,0,3.752,0,5.629-.056a24.184,24.184,0,0,0,2.967-2.912,10.508,10.508,0,0,0,1.343-1.9c1.848.98,2.213,1.232,2.213,1.484,0,.28-.084.336-1.121.308a33.249,33.249,0,0,1-4.451,3.024c2.94-.084,5.852-.224,8.791-.42a9.437,9.437,0,0,0-2.322-1.652c-.113-.056.055-.308.2-.28,3.668.672,5.432,2.128,5.432,3.388a.926.926,0,0,1-.9,1.036c-.39,0-.672-.2-1.259-1.12a6.555,6.555,0,0,0-.645-.84c-2.6.392-5.207.672-7.811.924V42.4c0,1.54.084,2.8.084,3.192,0,.616-.419.9-1.289.9-.588,0-.867-.2-.867-.728,0-.28.112-1.232.112-3.22Zm-7.84-14.98V27h2.66V25.372Zm0,4.088h2.66V27.7h-2.66Zm6.859,8.26a.868.868,0,0,1-.867.924c-.363,0-.5-.084-.951-.756a7.37,7.37,0,0,0-3.11-2.492c-.111-.056,0-.252.114-.224a12.894,12.894,0,0,1,3.134.812,12.769,12.769,0,0,0,.786-1.344,14.218,14.218,0,0,0,.558-1.316c1.766.644,2.24.9,2.24,1.176,0,.252-.279.336-1.035.364-.869.672-1.344,1.036-1.931,1.428A1.736,1.736,0,0,1,37.58,37.72Zm.057-12.348H34.949V27h2.688Zm0,2.324H34.949V29.46h2.688Zm10.7-.28c.617-.588.758-.7.926-.7.2,0,.363.112,1.2.756.336.28.447.476.447.644,0,.2-.084.252-.867.56a14.953,14.953,0,0,1-3.053,3.052,15.813,15.813,0,0,0,6.3,1.512c.111,0,.111.252,0,.28a1.713,1.713,0,0,0-1.344,1.26c-.084.252-.224.364-.42.364a4.2,4.2,0,0,1-1.175-.252,17.43,17.43,0,0,1-3.752-1.9,6.7,6.7,0,0,1-.7-.532,20.545,20.545,0,0,1-5.767,2.156c-.141.028-.252-.28-.111-.336a21.69,21.69,0,0,0,4.955-2.66,14.169,14.169,0,0,1-2.325-3.5,10.379,10.379,0,0,0-1.484.2l-.279-1.092a9.308,9.308,0,0,0,2.1.2ZM44.16,22.544a4.382,4.382,0,0,1-.84,2.688A6.325,6.325,0,0,1,40.3,27.3c-.111.028-.279-.168-.2-.224a5.809,5.809,0,0,0,1.9-2.24,6.035,6.035,0,0,0,.474-2.66,13.4,13.4,0,0,0-.138-1.848,15.041,15.041,0,0,1,2.015.98H46.82c.617-.756.756-.868.924-.868.2,0,.365.112,1.065.672.365.336.449.532.449.7s-.113.308-.617.616v1.68c0,.5.281.644.953.644.894,0,1.314-.084,1.65-.392a5.031,5.031,0,0,0,.7-1.848c.028-.112.28-.056.28.056,0,.42-.028,1.064-.028,1.372,0,.224.057.308.309.42a.6.6,0,0,1,.447.588c0,.448-.308.756-.812.924a7.748,7.748,0,0,1-2.547.308c-1.905,0-2.633-.5-2.633-1.568,0-.364.027-.728.027-1.792v-.812H44.16Zm3.221,22.484a11.694,11.694,0,0,0-4.649-3.584c-.111-.056,0-.252.114-.252,3.7.392,6.55,2.044,6.55,3.556a.944.944,0,0,1-.951,1.064C48.109,45.812,47.857,45.616,47.381,45.028ZM43.209,28.116a9.674,9.674,0,0,0,2.576,2.856,12.379,12.379,0,0,0,2.492-2.856Z"/><path class="cls-1" d="M39.682,62.3a2.591,2.591,0,0,1,2.211,1.149,5.832,5.832,0,0,1,.812,3.331,17.981,17.981,0,0,1-1.092,5.936A9.189,9.189,0,0,1,39.43,76.3a3.69,3.69,0,0,1-2.493,1.26c-.644,0-.923-.168-1.037-.728a1.837,1.837,0,0,0-.42-1.007c-.447-.533-.951-1.064-1.623-1.765a.373.373,0,0,1-.14-.28c0-.112.14-.308.279-.308a.512.512,0,0,1,.309.141c.812.559,1.484,1.007,2.213,1.427a1.8,1.8,0,0,0,.81.2,1.447,1.447,0,0,0,1.065-.533A9.688,9.688,0,0,0,40.381,70.9a18.6,18.6,0,0,0,.728-4.759,3.816,3.816,0,0,0-.476-2.353,1.284,1.284,0,0,0-1.2-.476,8.026,8.026,0,0,0-1.934.336c-.867,1.792-1.65,3.556-2.49,5.181-1.457,2.828-2.717,5.291-4.229,7.868a1.046,1.046,0,0,1-.98.559.831.831,0,0,1-.9-.784,1.733,1.733,0,0,1,.366-1.036c1.652-2.492,3.164-5.012,4.562-7.587.729-1.373,1.346-2.52,1.9-3.7-1.035.363-2.127.811-2.939,1.147a3.041,3.041,0,0,0-.813.421,1.01,1.01,0,0,1-.7.308,1.882,1.882,0,0,1-1.26-.673,3.14,3.14,0,0,1-1.064-1.96c0-.308.141-.672.279-.672.114,0,.168.057.309.252.5.644.924,1.037,1.373,1.037a8.585,8.585,0,0,0,2.016-.365c.978-.224,2.043-.5,3.386-.867a30.953,30.953,0,0,0,1.26-3.389,3.2,3.2,0,0,0,.2-1.092c0-.252-.056-.391-.42-.643a3.96,3.96,0,0,0-1.232-.42c-.279-.057-.393-.113-.393-.252s.168-.253.366-.365A2.428,2.428,0,0,1,37.1,56.4a4.55,4.55,0,0,1,2.8,1.177,1.167,1.167,0,0,1,.449.923c0,.281-.167.476-.533.645a1.916,1.916,0,0,0-.672.9c-.336.756-.726,1.568-1.119,2.436A8.787,8.787,0,0,1,39.682,62.3Zm11.142,8.624a1.281,1.281,0,0,1-.81-.308,1.576,1.576,0,0,0-1.037-.308c-.9,0-1.875.056-3.165.141a.347.347,0,0,1-.39-.365c0-.168.084-.279.306-.336a24.36,24.36,0,0,0,3.137-.784c.336-.112.447-.2.447-.5a4.541,4.541,0,0,0-.951-2.155,12.035,12.035,0,0,0-3.08-2.941A.578.578,0,0,1,45,62.976c0-.14.168-.279.42-.279a.523.523,0,0,1,.252.055,11.115,11.115,0,0,1,3.92,2.66,6.65,6.65,0,0,1,2.238,4.312C51.832,70.564,51.357,70.928,50.824,70.928Zm-4.73-13.607a6.274,6.274,0,0,1,2.435,1.4c.672.588,1.065,1.091,1.065,1.679a.781.781,0,0,1-.785.841q-.546,0-.924-.756A9.663,9.663,0,0,0,45.533,57.8a.436.436,0,0,1-.2-.28.286.286,0,0,1,.307-.279A1.573,1.573,0,0,1,46.094,57.321Zm2.435-1.876a6.63,6.63,0,0,1,2.241,1.091c.671.477,1.287,1.121,1.287,1.764a.8.8,0,0,1-.756.9c-.364,0-.588-.141-.9-.673a8.549,8.549,0,0,0-2.576-2.632.338.338,0,0,1-.2-.279.28.28,0,0,1,.279-.281A3.669,3.669,0,0,1,48.529,55.445Z"/><path class="cls-1" d="M35.957,101.953a9.651,9.651,0,0,1,5.881-2.212c4.115,0,6.383,2.576,6.383,5.6,0,4.229-3.809,6.609-7.924,6.609-3.053,0-5.207-1.261-5.207-3.165,0-1.512,1.26-2.324,2.8-2.324a5.347,5.347,0,0,1,4.7,3.584,5.011,5.011,0,0,0,3.527-4.844,4.1,4.1,0,0,0-4.424-4.452,8.946,8.946,0,0,0-6.328,2.856,21.842,21.842,0,0,0-2.183,2.465.915.915,0,0,1-.7.363,1.042,1.042,0,0,1-1.007-1.092,1.41,1.41,0,0,1,.476-1.008c2.156-2.323,4.481-4.732,6.5-7.195,1.2-1.484,2.352-2.885,3.752-4.732.2-.252.111-.308,0-.308a2.462,2.462,0,0,0-.531.14c-1.262.42-2.69.952-3.809,1.4a2.063,2.063,0,0,0-.953.587,1.049,1.049,0,0,1-.756.309,2.245,2.245,0,0,1-1.4-.812,3.183,3.183,0,0,1-1.01-2.044c0-.28.168-.589.336-.589.113,0,.225.112.365.309.616.811,1.008,1.092,1.485,1.092a6.741,6.741,0,0,0,1.455-.2c1.26-.307,2.435-.643,3.7-1.064a1.771,1.771,0,0,0,.842-.5.894.894,0,0,1,.642-.279,3.917,3.917,0,0,1,1.764.867c.561.392.842.757.842,1.2,0,.28-.225.476-.729.588-.281.056-.533.2-1.148.812-.924.925-2.072,2.128-3.725,4.06-1.035,1.2-2.547,2.661-3.668,3.92Zm1.6,5.376a1.36,1.36,0,0,0-1.539,1.288c0,1.148,1.482,1.931,3.722,1.931a5.687,5.687,0,0,0,1.121-.084C40.437,108.868,38.926,107.329,37.553,107.329Z"/><path class="cls-1" d="M40.018,131.549a16.117,16.117,0,0,1-2.522,2.268,13.809,13.809,0,0,1,2.66,2.912,12.715,12.715,0,0,1,1.961,6.944,6.481,6.481,0,0,1-.9,3.78,3.078,3.078,0,0,1-2.463,1.26c-.365,0-.477-.112-.533-.5-.112-.84-.7-1.2-2.829-1.792-.168-.055-.168-.447,0-.42,1.877.225,2.969.308,3.332.308a.942.942,0,0,0,.924-.56,6.652,6.652,0,0,0,.366-2.855c0-.477-.03-.952-.057-1.4a28.387,28.387,0,0,1-12.488,5.376c-.2.028-.307-.364-.112-.42a32.675,32.675,0,0,0,12.264-7.168,15.156,15.156,0,0,0-.615-1.9,24.48,24.48,0,0,1-11.145,4.62c-.168.029-.279-.335-.111-.391a28.5,28.5,0,0,0,10.332-6.021,12.508,12.508,0,0,0-1.037-1.427,23.273,23.273,0,0,1-8.875,3.36c-.2.028-.336-.364-.141-.42a22.965,22.965,0,0,0,9.24-5.544h-4.2a9.6,9.6,0,0,0-1.9.195l-.281-1.091a10.344,10.344,0,0,0,2.183.2H45.506c1.176-1.372,1.4-1.512,1.566-1.512.2,0,.393.14,1.653,1.148.56.448.7.616.7.812,0,.168-.114.252-.393.252H42.006a20.947,20.947,0,0,0,2.183,6.02,17.594,17.594,0,0,0,2.715-3.052,9.474,9.474,0,0,0,1.008-1.876c1.682.924,2.438,1.512,2.438,1.848,0,.308-.366.448-1.149.42a25.068,25.068,0,0,1-4.648,3.248,16.6,16.6,0,0,0,2.129,2.688,14.745,14.745,0,0,0,5.879,3.835c.113.029.029.225-.084.281-.616.252-.84.5-1.288,1.595-.168.393-.224.449-.419.449a1.922,1.922,0,0,1-.9-.449,17.6,17.6,0,0,1-4.732-4.815,25.015,25.015,0,0,1-3.752-10.192Zm-9.045-4.06c-.112,2.016-1.008,3.528-2.325,3.528a1.06,1.06,0,0,1-1.091-1.149c0-.559.2-.867.869-1.259a3.634,3.634,0,0,0,1.986-3.3c0-.168.365-.168.393,0a6.83,6.83,0,0,1,.168,1.484h7.785v-1.877a16.216,16.216,0,0,0-.113-1.763c2.8.308,3.136.532,3.136.812,0,.252-.2.448-.924.7v2.129h8.036c.923-1.008,1.091-1.12,1.259-1.12.225,0,.477.14,1.709,1.26.645.56.7.728.7.924,0,.307-.252.476-1.092.476a1.206,1.206,0,0,0-1.035.364,21.571,21.571,0,0,1-1.737,1.316c-.111.084-.336-.084-.281-.2a8.988,8.988,0,0,0,.785-2.324Z"/><path class="cls-1" d="M31.98,169.292c-.474,7-1.9,10.752-5.236,14.112-.139.14-.474-.056-.363-.224,2.465-3.808,3.7-8.68,3.779-16.66v-2.156H29.125a11.273,11.273,0,0,0-1.82.168l-.28-1.064a9.607,9.607,0,0,0,2.1.2H31v-3.052c0-.644-.029-1.26-.113-2.212,2.687.28,2.968.5,2.968.812,0,.2-.2.392-.9.728v3.724H34.7c.951-1.2,1.149-1.344,1.317-1.344.2,0,.42.14,1.371,1.009.42.391.56.615.56.783s-.084.252-.365.252H32.148c-.027,1.4-.054,2.828-.138,4.228h2.547c.755-.924.9-1.036,1.064-1.036.2,0,.336.112,1.26.9.42.391.5.559.5.727s-.112.28-.672.672c-.336,5.992-.783,8.848-1.287,10.584A3.717,3.717,0,0,1,34,182.76a2.547,2.547,0,0,1-1.344.364c-.336,0-.447-.084-.474-.392-.141-.868-.588-1.232-2.018-1.708-.168-.056-.111-.42.057-.392a13.918,13.918,0,0,0,2.381.252c.642,0,.894-.308,1.2-1.68a60.239,60.239,0,0,0,.98-9.912Zm9.438-.28a16.554,16.554,0,0,1-3.221,3.472c-.14.112-.392-.112-.279-.252a20.24,20.24,0,0,0,2.519-4.676,11.709,11.709,0,0,0,.727-2.66c2.129.588,2.633.784,2.633,1.092,0,.28-.225.421-.981.532a14.884,14.884,0,0,1-.951,1.792h5.992c1.008-1.232,1.233-1.372,1.4-1.372s.39.14,1.539,1.064c.5.392.615.588.615.756s-.084.252-.363.252H45.533a37.574,37.574,0,0,1-.336,4.7h3.36c1.121-1.372,1.316-1.54,1.484-1.54.2,0,.393.168,1.623,1.176.561.448.674.616.674.784,0,.2-.084.28-.365.28H45.365a9.4,9.4,0,0,0,3.108,4.48,13.735,13.735,0,0,0,4.984,2.352c.141.028.141.336,0,.364-.783.2-1.035.42-1.344,1.316a.459.459,0,0,1-.42.364,2.638,2.638,0,0,1-1.064-.42,13.771,13.771,0,0,1-3.024-2.52,11.682,11.682,0,0,1-2.66-5.32,9.973,9.973,0,0,1-.365,1.316c-1.176,3.472-4.367,5.908-8.818,7.2-.2.056-.366-.336-.2-.42,4.286-2.128,6.664-4.592,7.534-8.708H39.4a7.833,7.833,0,0,0-1.763.168l-.28-1.064a10.724,10.724,0,0,0,2.043.2h3.836a29.506,29.506,0,0,0,.309-4.7Zm7.336-5.935c1.23-1.429,1.455-1.569,1.623-1.569.2,0,.393.14,1.623,1.176.561.476.674.672.674.84s-.084.252-.365.252H40.66a16.546,16.546,0,0,1-3.332,3.78c-.111.084-.363-.112-.279-.224a22.076,22.076,0,0,0,2.969-6.1,12.318,12.318,0,0,0,.587-2.884c2.211.5,2.913.812,2.913,1.12,0,.28-.252.42-1.008.56a19.054,19.054,0,0,1-1.43,3.053Z"/><line class="cls-2" x1="126.825" x2="126.825" y2="297.775"/><line class="cls-2" y1="297.775"/></svg>