<svg id="レイヤー_1" data-name="レイヤー 1" xmlns="http://www.w3.org/2000/svg" viewBox="0 0 126.825 297.775"><defs><style>.cls-1{fill:#525a70;}.cls-2{fill:none;}</style></defs><path class="cls-1" d="M79.637,43.432c0,.644-.393.924-1.233.924-.672,0-.924-.224-.924-.784,0-1.26.168-3.78.168-12.712,0-4.564-.027-6.16-.168-8.2a17.291,17.291,0,0,1,2.493,1.26H98.09c.951-1.036,1.119-1.148,1.287-1.148s.336.112,1.26.952c.449.392.533.56.533.728,0,.252-.113.42-.785.84v5.124c0,8.176.168,11.9.168,13.048,0,.644-.448.924-1.26.924-.645,0-.924-.224-.924-.7v-1.6H79.637ZM98.369,24.616H92.35v9.548c0,.644.2.84,1.427.84.756,0,1.119-.056,1.371-.364.309-.336.588-1.288,1.149-3.724.027-.14.336-.112.336.028.027.924,0,1.848.027,2.66,0,.56.113.644.477.812a.872.872,0,0,1,.476.84c0,.588-.42,1.008-1.092,1.232a9.015,9.015,0,0,1-2.912.336c-2.464,0-3.22-.672-3.22-2.324,0-.532.029-1.4.029-4.116V24.616H86.861a23.245,23.245,0,0,1-1.2,8.4,9.521,9.521,0,0,1-5.179,5.152c-.139.084-.336-.2-.2-.308a9.432,9.432,0,0,0,3.725-5.236,26.948,26.948,0,0,0,.81-8.008H79.637V41.388H98.369Z"/><path class="cls-1" d="M90.08,62.108a16.729,16.729,0,0,0,4.9,3.276,22.516,22.516,0,0,0,7,1.792c.114,0,.114.252,0,.28-.671.2-.894.448-1.2,1.26-.168.532-.281.616-.533.616A4.11,4.11,0,0,1,98.957,69,24.5,24.5,0,0,1,94,66.448a18.2,18.2,0,0,1-4.229-3.864c.084,2.464.139,3.3.139,3.64,0,.644-.42.9-1.26.9-.615,0-.84-.224-.84-.756,0-.588.03-1.4.114-3.472a22.96,22.96,0,0,1-11.733,6.8c-.195.056-.308-.364-.14-.448a23.682,23.682,0,0,0,10.023-7.14H78.8a10.943,10.943,0,0,0-1.791.168l-.281-1.064a9.126,9.126,0,0,0,2.045.2h9.1V58.8a86.844,86.844,0,0,1-9.156.448c-.195,0-.225-.42-.027-.448A67.446,67.446,0,0,0,92.434,56.4a10.061,10.061,0,0,0,2.6-1.148c1.764,1.232,2.24,1.68,2.24,1.932,0,.336-.476.448-1.595.224a46.092,46.092,0,0,1-5.854,1.176v2.828h7.5c1.232-1.484,1.457-1.6,1.625-1.6.2,0,.393.112,1.68,1.176.588.5.728.7.728.868s-.111.252-.392.252Zm2.69,5.908c.839-.784.978-.9,1.148-.9.195,0,.363.112,1.482,1.008.393.308.5.5.5.672,0,.364-.306.476-1.23.5a20.844,20.844,0,0,1-3.92,1.9c.195.084.252.168.252.308,0,.252-.2.42-.981.728v.56h7c1.287-1.54,1.512-1.681,1.68-1.681s.393.141,1.707,1.233c.645.5.758.7.758.868s-.084.28-.365.28H90.025v1.26c0,2.828.084,3.22.084,3.78a2.267,2.267,0,0,1-.812,1.848,3.18,3.18,0,0,1-1.848.616c-.447,0-.5-.168-.615-.672-.113-.756-1.037-1.12-3.248-1.6-.168-.028-.168-.42,0-.392a37.582,37.582,0,0,0,3.975.224c.308,0,.419-.14.419-.449V73.5h-9.1a9.122,9.122,0,0,0-1.875.168l-.281-1.064a11.5,11.5,0,0,0,2.1.2H87.98a13.154,13.154,0,0,0-.111-2.156c.981.14,1.652.252,2.127.336a11.333,11.333,0,0,0,2.66-2.268H83.865a9.55,9.55,0,0,0-1.9.2l-.279-1.092a9.252,9.252,0,0,0,2.127.2Z"/><path class="cls-1" d="M89.27,95.568a11.22,11.22,0,0,1-.729,3.276,28.2,28.2,0,0,1-4,7.252,3.747,3.747,0,0,1-2.828,1.82,2.582,2.582,0,0,1-2.1-1.12,6.145,6.145,0,0,1-1.289-4.144,10.189,10.189,0,0,1,2.633-6.608,11.965,11.965,0,0,1,8.959-3.668,10.294,10.294,0,0,1,6.5,2.156,8.321,8.321,0,0,1,.084,12.908c-2.07,1.792-5.906,2.968-9.322,3.136a.4.4,0,0,1-.393-.336c0-.224.141-.308.5-.392a15.56,15.56,0,0,0,7.615-3.556,7.91,7.91,0,0,0,2.52-5.8,7.062,7.062,0,0,0-2.352-5.348,8.105,8.105,0,0,0-5.207-1.82,12.205,12.205,0,0,0-1.484.056A3.274,3.274,0,0,1,89.27,95.568Zm-7.057.672a8.728,8.728,0,0,0-2.436,6.048,4.842,4.842,0,0,0,.616,2.6,1.57,1.57,0,0,0,1.316.952c.588,0,1.148-.5,1.961-1.6a29.853,29.853,0,0,0,4-7.28,6.119,6.119,0,0,0,.39-2.212,1.732,1.732,0,0,0-.447-1.288A9.88,9.88,0,0,0,82.213,96.24Z"/><path class="cls-1" d="M82.27,132.333c2.267.728,3.583,1.987,3.583,3,0,.728-.419,1.148-.953,1.148-.363,0-.642-.2-.839-.812a6.148,6.148,0,0,0-1.791-2.8v3.388c0,4.116.054,8.288.054,9.856,0,.588-.42.9-1.287.9-.56,0-.84-.224-.84-.728,0-.9.225-4.592.309-11.956a20.2,20.2,0,0,1-4.594,6.636c-.111.112-.42-.112-.336-.252a30.735,30.735,0,0,0,4.565-10.416H78.152a8.48,8.48,0,0,0-1.566.169l-.281-1.065a6.959,6.959,0,0,0,1.793.2h2.267v-4.676a31.552,31.552,0,0,1-3.724.589c-.168.027-.28-.309-.112-.364a26.562,26.562,0,0,0,6.047-2.549,8.6,8.6,0,0,0,1.682-1.232c1.707,1.177,2.07,1.484,2.07,1.764,0,.253-.279.532-1.287.253a20.265,20.265,0,0,1-2.771,1.063v5.152h1.064c.924-1.148,1.119-1.26,1.287-1.26.2,0,.393.112,1.371.952.393.365.533.56.533.756,0,.168-.084.252-.365.252H82.27Zm12.179,2.743A20.462,20.462,0,0,1,92.1,137.4c1.847.448,3,1.4,3,2.38a1.034,1.034,0,0,1-.924,1.148c-.506,0-.785-.2-.981-.868a4.759,4.759,0,0,0-1.427-2.38,23.014,23.014,0,0,1-6.133,3.416c-.2.084-.42-.28-.252-.364a23.756,23.756,0,0,0,7.84-7,11.7,11.7,0,0,0,1.4-2.492c1.988.7,2.631,1.008,2.631,1.288,0,.364-.307.5-1.146.56-.336.448-.7.869-1.038,1.289h4.118c.923-.981,1.062-1.064,1.259-1.064.168,0,.336.083,1.4,1.007.39.392.474.56.474.728,0,.28-.168.42-.951.7-3.584,6.3-8.037,9.464-15.877,11.06-.195.028-.363-.364-.168-.42,6.778-2.24,11.145-5.908,13.946-11.312Zm-2.408-9.884a12.355,12.355,0,0,1-2.381,2.324c1.934.364,3.08,1.2,3.08,2.213a.982.982,0,0,1-.867,1.064c-.447,0-.783-.225-1.008-.841a4.449,4.449,0,0,0-1.568-2.183,16.635,16.635,0,0,1-2.66,1.567c-.141.084-.364-.224-.225-.335a16.879,16.879,0,0,0,4.594-5.628,7.891,7.891,0,0,0,.81-2.1c2.241.671,2.774.923,2.774,1.231,0,.252-.281.392-1.094.532-.307.532-.643,1.008-.951,1.456h4.283c.869-.9,1.01-.98,1.178-.98.195,0,.39.084,1.371,1.008.447.42.531.588.531.756,0,.252-.222.392-1.176.672a20.343,20.343,0,0,1-12.291,9.52c-.168.056-.281-.308-.14-.392a22.709,22.709,0,0,0,10.556-9.884Z"/><path class="cls-1" d="M83.865,170.44c3.108-2.548,5.768-3.22,7.867-3.22a7.82,7.82,0,0,1,3.95,1.008,5.145,5.145,0,0,1,2.714,4.48c0,2.716-1.595,4.564-4.087,5.908a21.849,21.849,0,0,1-8.764,2.016,7.159,7.159,0,0,1-.924-.028c-.309-.028-.42-.168-.42-.364,0-.252.168-.392.561-.448a21.023,21.023,0,0,0,7.81-2.24c2.018-1.092,3.584-2.856,3.584-5.264a3.684,3.684,0,0,0-1.428-3.052,5.543,5.543,0,0,0-3.416-.952c-3.191,0-5.935,1.9-8.4,4.172a13.737,13.737,0,0,0-1.65,1.9,1.084,1.084,0,0,1-.869.588c-.532,0-.9-.616-.9-1.26a1.835,1.835,0,0,1,.7-1.372c.168-.168.615-.5,1.065-.952,1.511-1.568,3.248-3.3,5.066-5.348,1.766-1.96,3.025-3.472,4.873-5.824a.622.622,0,0,0,.168-.419c0-.113-.111-.2-.252-.2a1.387,1.387,0,0,0-.447.084c-.477.14-2.213.84-3.557,1.4a6.813,6.813,0,0,0-1.4.7,1.535,1.535,0,0,1-.9.42,1.626,1.626,0,0,1-1.2-.672,3.638,3.638,0,0,1-1.008-1.988,2.234,2.234,0,0,1,.084-.727c.055-.2.2-.309.28-.309.111,0,.224.084.365.309.7,1.035,1.119,1.287,1.623,1.287a13.486,13.486,0,0,0,2.324-.532c.729-.224,1.764-.56,2.408-.755a1.781,1.781,0,0,0,.756-.477.929.929,0,0,1,.7-.28,1.389,1.389,0,0,1,.755.2,9.261,9.261,0,0,1,1.821,1.344,1.07,1.07,0,0,1,.365.812c0,.28-.141.448-.477.616a4.291,4.291,0,0,0-1.259.756c-1.317,1.372-2.522,2.548-4.286,4.368-1.287,1.344-2.714,2.744-4.255,4.228Z"/><path class="cls-1" d="M82.717,209.416A9.085,9.085,0,0,1,80,203.984a25.849,25.849,0,0,1-.336-4.648,30.667,30.667,0,0,0-.084-3.556,2.955,2.955,0,0,0-1.121-1.819c-.168-.141-.195-.2-.195-.281,0-.139.222-.168.447-.168a3.721,3.721,0,0,1,1.82.924,3.22,3.22,0,0,1,1.317,2.184,2.573,2.573,0,0,1-.252.868,14.289,14.289,0,0,0-.42,4,11.713,11.713,0,0,0,.672,3.864c.5,1.26,1.062,1.764,1.455,1.764.224,0,.42-.14.672-.532.839-1.372,2.044-3.416,3.22-5.292a.748.748,0,0,1,.477-.364.389.389,0,0,1,.336.308.91.91,0,0,1-.114.365c-.867,1.791-1.875,4-2.324,5.151a4.161,4.161,0,0,0-.39,1.372,1.4,1.4,0,0,0,.168.7,2.039,2.039,0,0,1,.279.812c.027.448-.279.84-.924.84A3.764,3.764,0,0,1,82.717,209.416Zm13.187-11.7a9.206,9.206,0,0,1,3.053,3.276,7.811,7.811,0,0,1,1.035,3.556,2.7,2.7,0,0,1-.42,1.652,1.054,1.054,0,0,1-.81.448.827.827,0,0,1-.756-.448,1.8,1.8,0,0,0-1.094-.784c-.475-.139-1.062-.28-1.734-.448-.336-.084-.45-.168-.45-.364,0-.139.225-.2.5-.223.786-.084,1.428-.113,2.045-.225.42-.084.561-.224.561-.644a7.7,7.7,0,0,0-1.4-3.472,9.424,9.424,0,0,0-3.08-2.828c-.168-.112-.252-.2-.252-.392,0-.14.112-.251.307-.251A7.508,7.508,0,0,1,95.9,197.712Z"/><path class="cls-1" d="M88.4,234.7c0-1.6-.39-2.268-1.4-2.268a5.439,5.439,0,0,0-3.445,1.96,21.9,21.9,0,0,0-2.211,2.8c-.225.308-.588.672-.953.672-.532,0-.924-.336-.924-1.12,0-.42.308-.812.869-1.372a30.5,30.5,0,0,0,2.715-3.22,36.587,36.587,0,0,0,2.072-3.3,16.246,16.246,0,0,1-2.408.168,3.382,3.382,0,0,1-3.248-1.792.678.678,0,0,1-.112-.364.229.229,0,0,1,.225-.252.542.542,0,0,1,.336.224,3.6,3.6,0,0,0,2.771.924,15.444,15.444,0,0,0,3.164-.448,16.053,16.053,0,0,0,.924-2.38,3.214,3.214,0,0,0,.141-.728c0-.364-.2-.532-.561-.644a6.97,6.97,0,0,0-1.148-.224c-.141-.028-.225-.084-.225-.168a.549.549,0,0,1,.225-.308,1.707,1.707,0,0,1,1.092-.364,4.772,4.772,0,0,1,2.1.644c.672.392.924.756.924,1.092a.751.751,0,0,1-.306.644,2.656,2.656,0,0,0-.7.756c-.168.28-.474.84-.7,1.288a11.8,11.8,0,0,0,2.436-.98,2.9,2.9,0,0,1,1.427-.476c.618,0,1.065.336,1.065.84s-.393.672-.924.868a46.727,46.727,0,0,1-4.9,1.4c-.868,1.456-1.737,2.94-2.688,4.284a6.3,6.3,0,0,1,3.36-1.344,2.424,2.424,0,0,1,2.576,2.38c.056.336.056.84.084,1.316a65.214,65.214,0,0,0,5.6-3.5.829.829,0,0,0,.42-.588c0-.14-.111-.252-.336-.392a3.654,3.654,0,0,0-.84-.308c-.168-.056-.279-.112-.279-.2,0-.112.195-.28.42-.364a1.745,1.745,0,0,1,.7-.112,4.957,4.957,0,0,1,2.129.7c.84.448,1.287.924,1.287,1.484a.721.721,0,0,1-.726.728,3.9,3.9,0,0,0-1.094.308c-1.371.588-2.771,1.232-4.7,2.24-.813.42-1.736.98-2.52,1.4v3.92c0,.784-.308,1.176-.869,1.176a.886.886,0,0,1-.951-1.008c0-.672.057-1.848.111-3.22-2.463,1.4-3.92,2.492-3.92,4.228,0,1.148,1.008,2.044,3.614,2.044a30.614,30.614,0,0,0,3.92-.2,16.736,16.736,0,0,0,1.65-.336,4.59,4.59,0,0,1,.953-.168c.981,0,1.932.56,1.932,1.232,0,.448-.309.728-1.4.9a37.25,37.25,0,0,1-5.291.28c-3.808,0-6.384-.924-6.384-3.584,0-2.436,1.931-4.032,4.927-5.824Z"/><path class="cls-1" d="M48.473,43.012c1.457-1.68,1.679-1.792,1.847-1.792s.366.112,1.793,1.288c.672.588.813.756.813.924,0,.2-.114.28-.393.28H30.076a15.1,15.1,0,0,0-2.49.168l-.281-1.092a15.766,15.766,0,0,0,2.744.224h3.023c1.149-3.556,2.073-7.14,2.885-10.78H32.094a9.561,9.561,0,0,0-2.045.2l-.309-1.092a14.061,14.061,0,0,0,2.354.2h4q.837-3.822,1.343-7.728H31a17.322,17.322,0,0,0-2.381.168l-.309-1.064a15.9,15.9,0,0,0,2.717.2H47.156c1.43-1.624,1.625-1.764,1.793-1.764.2,0,.393.14,1.821,1.288.7.532.839.756.839.924s-.084.252-.392.252H39.541c-.393,2.576-.84,5.152-1.371,7.728h5.851c.868-.98,1.008-1.092,1.176-1.092.2,0,.364.112,1.317.812.447.364.531.56.531.728s-.084.28-.756.812v10.22Zm-4.284-10.78h-6.16c-.812,3.64-1.736,7.224-2.855,10.78h9.015Z"/><path class="cls-1" d="M32.01,59.5v1.54a24.628,24.628,0,0,1-.924,6.972,12.432,12.432,0,0,1-3.613,5.88c-.139.14-.5-.056-.391-.224a15.322,15.322,0,0,0,2.406-6.1,33.81,33.81,0,0,0,.42-5.88,37.411,37.411,0,0,0-.168-4.228A15.778,15.778,0,0,1,32.262,58.8H42.369c-.027-.336-.057-.672-.057-1.008-.054-1.036-.084-1.512-.2-2.464,2.6.252,2.969.476,2.969.84,0,.252-.225.476-.953.784,0,.672.027,1.288.056,1.848h4.788c.9-1.232,1.037-1.316,1.232-1.316s.336.084,1.4.98c.448.42.532.588.532.756,0,.2-.112.28-.393.28H44.217A15.506,15.506,0,0,0,45.9,66.28a14.371,14.371,0,0,0,1.065-1.9,15.333,15.333,0,0,0,1.008-2.8c2.3.952,2.492,1.036,2.492,1.4,0,.224-.252.364-1.008.476a17.9,17.9,0,0,1-2.717,4.228A10.884,10.884,0,0,0,49.453,70.4a2.154,2.154,0,0,0,1.149.532c.222,0,.558-.364,1.679-2.52.057-.112.309,0,.28.14-.28,1.372-.475,2.324-.475,2.576a.986.986,0,0,0,.307.616,1.394,1.394,0,0,1,.308.9A.965.965,0,0,1,51.664,73.7a4.266,4.266,0,0,1-1.764-.532,12.961,12.961,0,0,1-4.507-4.088,17.089,17.089,0,0,1-4.985,3.192c-.168.084-.42-.28-.252-.392a19.012,19.012,0,0,0,4.537-3.948c-.14-.28-.281-.532-.42-.812A20.513,20.513,0,0,1,42.4,59.5ZM28.033,78.628c0-.588.279-.9,1.008-1.232A3.691,3.691,0,0,0,31.422,74.2c.027-.14.306-.112.336.028a10.225,10.225,0,0,1,.084,1.26c0,2.268-1.065,4.256-2.633,4.256A1.074,1.074,0,0,1,28.033,78.628Zm4.619-16.6a6.833,6.833,0,0,0,1.653.2h4.537c.81-1.064,1.062-1.176,1.23-1.176s.393.112,1.373.9c.393.336.532.532.532.7s-.084.28-.364.28H34.361a5.592,5.592,0,0,0-1.427.168Zm2.3,8.568c0,.532-.336.784-1.092.784-.56,0-.755-.2-.755-.588,0-.336.084-1.008.084-3.08,0-1.428-.03-2.464-.114-3.5a16.942,16.942,0,0,1,2.018,1.008h3.836c.7-.756.867-.868,1.062-.868s.336.112,1.092.756c.393.364.506.5.506.672,0,.224-.084.364-.729.756v.784c0,1.708.055,2.464.055,2.688,0,.5-.336.784-1.092.784-.531,0-.726-.2-.726-.644v-.252H34.949Zm1.6,6.86c0,1.092.392,1.26,3.779,1.26,2.66,0,3.865-.112,4.4-.644.5-.448.728-1.148,1.175-2.576.03-.14.336-.112.336.028-.027.616-.054,1.288-.054,1.9,0,.392.111.5.363.616a.776.776,0,0,1,.588.812c0,.56-.477,1.008-1.4,1.232a27.093,27.093,0,0,1-5.962.364c-4.229,0-5.264-.5-5.264-2.968,0-.336.084-.728.084-2.072a12.561,12.561,0,0,0-.141-2.324c2.8.308,3,.392,3,.728,0,.224-.113.392-.9.728Zm2.549-11.536H34.949v3.276h4.145ZM40.773,75.6a7.211,7.211,0,0,0-2.212-2.632c-.084-.056.029-.252.14-.224,2.576.42,4.145,1.54,4.145,2.828a1.09,1.09,0,0,1-1.037,1.176C41.305,76.752,41.137,76.556,40.773,75.6Zm6.692-17.78A5.211,5.211,0,0,0,45.7,55.948c-.084-.056-.027-.224.084-.224,1.988.168,3.192.784,3.192,1.764a.855.855,0,0,1-.868.868C47.8,58.356,47.717,58.244,47.465,57.824Zm2.381,20.328a8.336,8.336,0,0,0-2.325-3.808c-.084-.084.084-.252.2-.224,2.66.84,4.34,2.492,4.34,4.032,0,.9-.42,1.4-1.065,1.4C50.377,79.552,50.152,79.3,49.846,78.152Z"/><path class="cls-1" d="M41.922,95.26c-3.08.952-6.244,2.016-8.4,2.772a3.905,3.905,0,0,0-1.2.644,1.031,1.031,0,0,1-.755.281,2.7,2.7,0,0,1-1.875-1.177,2.975,2.975,0,0,1-.84-1.568c0-.392.111-.7.252-.7a.572.572,0,0,1,.363.224,2.481,2.481,0,0,0,2.1.98,9.807,9.807,0,0,0,1.679-.307C37.3,95.373,41.5,94.28,45.617,93.216a3.363,3.363,0,0,0,1.092-.42,1.9,1.9,0,0,1,.951-.28,4.506,4.506,0,0,1,1.82.476c.393.168.756.448.756.868.03.588-.279.84-.978.869a17.961,17.961,0,0,0-4.93.615,9.015,9.015,0,0,0-4.031,2.6,8.069,8.069,0,0,0-2.211,5.432,5.276,5.276,0,0,0,1.932,4.2,9.53,9.53,0,0,0,5.123,1.708,3.724,3.724,0,0,1,1.931.476,1.274,1.274,0,0,1,.756,1.2c0,.476-.307.812-1.482.812a12.462,12.462,0,0,1-6.553-2.072,6.755,6.755,0,0,1-3-5.544,8.932,8.932,0,0,1,1.26-4.787,11.99,11.99,0,0,1,3.892-4Zm4.646,3.724a6.323,6.323,0,0,1,2.438,1.4c.672.588,1.062,1.092,1.062,1.681a.778.778,0,0,1-.783.839c-.363,0-.672-.252-.924-.756a9.7,9.7,0,0,0-2.351-2.687.432.432,0,0,1-.2-.281.29.29,0,0,1,.309-.28A1.621,1.621,0,0,1,46.568,98.984Zm2.438-1.876A6.6,6.6,0,0,1,51.244,98.2c.672.476,1.289,1.12,1.289,1.764a.8.8,0,0,1-.756.9c-.365,0-.588-.14-.9-.671a8.52,8.52,0,0,0-2.576-2.633.336.336,0,0,1-.2-.28.281.281,0,0,1,.28-.28A3.665,3.665,0,0,1,49.006,97.108Z"/><path class="cls-1" d="M30.189,140.34c0,.644-.419.9-1.2.9-.615,0-.839-.224-.839-.728,0-1.007.113-2.856.113-8.707,0-3.277,0-5.012-.113-6.8a14.238,14.238,0,0,1,2.212,1.2H33.3c.812-.98.953-1.093,1.121-1.093.2,0,.336.113,1.26.869.39.364.474.5.474.671,0,.225-.111.42-.756.841V130.4c0,5.1.114,7.9.114,8.652,0,.7-.449.952-1.26.952-.533,0-.785-.224-.785-.783v-.981H30.189Zm3.276-13.44H30.189v10.641h3.276ZM44.3,134.88a15.321,15.321,0,0,0,3.668,5.349,14.291,14.291,0,0,0,5.377,3.191c.138.029.084.28-.057.309-.644.195-.924.447-1.26,1.456-.14.42-.2.5-.392.5a1.523,1.523,0,0,1-.729-.365,15.724,15.724,0,0,1-3.863-3.751,20.249,20.249,0,0,1-3.08-6.3c.168,6.412.279,10.387.279,11.927,0,.7-.447,1.008-1.344,1.008-.642,0-.867-.28-.867-.812,0-1.148.168-6.272.252-10.416a21.739,21.739,0,0,1-10.527,9.241c-.168.083-.393-.308-.225-.421a25.3,25.3,0,0,0,9.688-10.92H38.365a13.743,13.743,0,0,0-2.072.168l-.279-1.091a11.677,11.677,0,0,0,2.324.223h3.807v-5.207h-2.8a11.228,11.228,0,0,0-2.073.168l-.281-1.093a14.383,14.383,0,0,0,2.354.225h2.8v-1.232a28.373,28.373,0,0,0-.2-4.48c2.8.364,3.08.476,3.08.839,0,.253-.2.449-.924.728v4.145h3.584c1.065-1.428,1.288-1.541,1.456-1.541s.392.113,1.595,1.148c.533.476.645.644.645.812s-.084.281-.364.281H44.105v5.207h4.536c1.2-1.539,1.4-1.679,1.568-1.679.2,0,.363.14,1.568,1.231.588.533.729.729.729.9s-.113.252-.393.252Z"/><path class="cls-1" d="M36.713,169.124c2.8-2.1,5.264-3.22,7.756-3.22a7.141,7.141,0,0,1,4.648,1.736,5.334,5.334,0,0,1,1.791,3.977,7.069,7.069,0,0,1-3,5.851,15.582,15.582,0,0,1-6.8,2.856,3.058,3.058,0,0,1-.728.084.345.345,0,0,1-.363-.28.381.381,0,0,1,.306-.42,16.272,16.272,0,0,0,6.217-3.444,6.817,6.817,0,0,0,2.184-4.956,4.5,4.5,0,0,0-1.092-2.94,4.793,4.793,0,0,0-3.557-1.456c-2.49,0-5.57,1.792-7.336,3.388-.054,2.268,0,4.592.057,6.5,0,.588.084,1.456.084,2.017,0,1.96-.5,2.939-1.2,2.939-.366,0-.672-.251-.729-1.008a2.954,2.954,0,0,0-.756-1.708,23.712,23.712,0,0,0-2.465-2.743c-.587.812-.839,1.2-1.259,1.708a1.184,1.184,0,0,1-.9.531.78.78,0,0,1-.783-.84,1.846,1.846,0,0,1,.561-1.176c1.119-1.26,2.435-2.8,3.7-4.451a31.074,31.074,0,0,0,2.435-3.557c.03-.728.03-1.484.03-2.128a16.04,16.04,0,0,0-2.186.924,7.659,7.659,0,0,0-.951.56.921.921,0,0,1-.672.336c-.42,0-.7-.2-1.148-.672a2.881,2.881,0,0,1-.9-1.735c0-.393.114-.561.252-.561.084,0,.2.113.252.168.506.644.926,1.009,1.373,1.009a2.6,2.6,0,0,0,.756-.113,27.11,27.11,0,0,0,3.275-1.176c.03-1.428.057-2.884.057-4.087,0-.616.027-.925-.336-1.289a2.751,2.751,0,0,0-1.148-.475c-.28-.057-.336-.057-.336-.2,0-.112.084-.2.224-.28a1.958,1.958,0,0,1,.981-.252,3.328,3.328,0,0,1,1.791.644c.783.531,1.289,1.007,1.289,1.483a.978.978,0,0,1-.336.672,1.3,1.3,0,0,0-.449.868c-.084.672-.168,1.4-.225,2.241a1.147,1.147,0,0,1,.617-.169,1.112,1.112,0,0,1,.672.253.718.718,0,0,1,.393.643c0,.224-.225.448-.42.672a12.581,12.581,0,0,0-1.6,2.324Zm-2.156,8.54a1.257,1.257,0,0,0,.588.308c.14,0,.167-.112.167-.448.03-1.68.057-3.976.084-6.02-1.119,1.4-2.294,2.968-3.275,4.228C32.877,176.4,33.773,177.076,34.557,177.664Z"/><path class="cls-1" d="M44.918,202.36a6.743,6.743,0,0,1,1.119,4,9.333,9.333,0,0,1-2.435,6.188,14.064,14.064,0,0,1-6.413,4.06,2.632,2.632,0,0,1-.839.168c-.168,0-.282-.112-.282-.336,0-.168.168-.28.393-.392a14.029,14.029,0,0,0,5.348-4.06,9.536,9.536,0,0,0,2.044-6.075,6.482,6.482,0,0,0-.755-3.249,2.391,2.391,0,0,0-2.129-1.176c-1.512,0-3.192,1.232-4.2,2.324-.756.812-1.008,1.036-1.374,1.036a2.061,2.061,0,0,1-1.287-.784,3.224,3.224,0,0,1-.785-1.764,2.4,2.4,0,0,1,.141-.84.582.582,0,0,1,.336-.308c.14,0,.2.084.224.2a3.558,3.558,0,0,0,.364.868.613.613,0,0,0,.533.336,5.451,5.451,0,0,0,1.818-.7c1.85-.952,3.026-1.483,4.453-1.483A4.307,4.307,0,0,1,44.918,202.36Zm-8.625-8.567a.732.732,0,0,1-.084-.281.256.256,0,0,1,.225-.28.338.338,0,0,1,.279.141,4.929,4.929,0,0,0,4.115,1.483,4.578,4.578,0,0,1,2.381.365,1.054,1.054,0,0,1,.672,1.063c0,.476-.393.673-.867.673-.282,0-.729-.029-1.317-.029a5.576,5.576,0,0,0-1.961.42c-.615.224-1.65.728-2.295,1.008a.846.846,0,0,1-.392.112c-.141,0-.252-.195-.252-.308s.084-.2.279-.336c.7-.476,1.541-1.035,2.354-1.568A4.514,4.514,0,0,1,36.293,193.793Z"/><line class="cls-2" x1="126.825" x2="126.825" y2="297.775"/><line class="cls-2" y1="297.775"/></svg>