<svg id="レイヤー_1" data-name="レイヤー 1" xmlns="http://www.w3.org/2000/svg" viewBox="0 0 172.185 306.214"><defs><style>.cls-1{fill:#525a70;}.cls-2{fill:none;}</style></defs><path class="cls-1" d="M126.732,40.744c0-.2.168-.336.477-.5a29.413,29.413,0,0,0,8.315-7.168,35,35,0,0,0,4.369-7.307,1.617,1.617,0,0,0,.223-.645c0-.112-.111-.14-.279-.14-.141,0-.477.028-1.12.084-2.773.28-6.525.728-8.708,1.064a2.753,2.753,0,0,0-1.317.392,1.125,1.125,0,0,1-.727.224c-.448,0-1.149-.475-1.821-1.4a2.876,2.876,0,0,1-.755-1.6c0-.477.2-.617.307-.617.141,0,.336.224.561.449a2.551,2.551,0,0,0,2.015.98c.672,0,1.372-.029,2.437-.113,2.827-.252,5.684-.5,8.428-.784a1.653,1.653,0,0,0,1.007-.336,1.216,1.216,0,0,1,.672-.392,2.536,2.536,0,0,1,1.54.84c.672.588,1.065,1.037,1.065,1.512,0,.336-.309.5-.645.645a1.85,1.85,0,0,0-.924.923,36.236,36.236,0,0,1-4.816,7.308,25.006,25.006,0,0,1-9.3,6.8,1.853,1.853,0,0,1-.615.168A.422.422,0,0,1,126.732,40.744Z"/><path class="cls-1" d="M127.6,74.989a.492.492,0,0,1,.28-.421,31.48,31.48,0,0,0,7.868-7.027,27.479,27.479,0,0,0,4.144-6.58,2.51,2.51,0,0,0,.167-.476c0-.085-.055-.112-.167-.112s-.392.027-.617.056c-3.08.28-5.88.671-8.288,1.036a6.415,6.415,0,0,0-1.735.448,1.309,1.309,0,0,1-.784.251,2.938,2.938,0,0,1-1.68-1.035,2.649,2.649,0,0,1-.925-1.54c0-.392.112-.616.28-.616.056,0,.169.112.336.28a2.883,2.883,0,0,0,2.1.924,17.187,17.187,0,0,0,2.071-.168c2.324-.224,5.853-.617,8.624-.952a1.739,1.739,0,0,0,.813-.336,1.073,1.073,0,0,1,.643-.308c.449,0,.813.308,1.68,1.036.5.42.757.756.757,1.092,0,.308-.225.476-.589.616a1.761,1.761,0,0,0-.84.9,29.348,29.348,0,0,1-4.76,6.887,26.856,26.856,0,0,1-8.511,6.3,1.669,1.669,0,0,1-.533.14C127.769,75.381,127.6,75.3,127.6,74.989Zm13.3-20.524a.7.7,0,0,1-.532.784,12.932,12.932,0,0,1-1.764.308c-1.624.224-4.2.5-6.1.7-.589.056-1.288.112-1.652.112a2.694,2.694,0,0,1-2.016-1.064,2.4,2.4,0,0,1-.7-1.344.2.2,0,0,1,.195-.224c.112,0,.225.056.421.224a3.193,3.193,0,0,0,2.407.84c.5,0,.925-.056,1.849-.14a39.384,39.384,0,0,0,4.479-.784,5.753,5.753,0,0,0,.84-.28,3.1,3.1,0,0,1,.84-.14C140.032,53.457,140.9,53.821,140.9,54.465Z"/><path class="cls-1" d="M131.1,88.374a6.554,6.554,0,0,1,1.875,1.456,2.812,2.812,0,0,1,.869,1.819c0,.785-.449,1.344-1.008,1.344-.448,0-.813-.252-.981-1.147a9.07,9.07,0,0,0-.5-1.653,5.4,5.4,0,0,0-.755-1.288.711.711,0,0,1-.2-.336.288.288,0,0,1,.281-.307A.783.783,0,0,1,131.1,88.374Zm13.383-.364c.813.532,1.036.783,1.036,1.231,0,.28-.139.421-.5.645a1.581,1.581,0,0,0-.588.672,30.33,30.33,0,0,1-4.62,6.664,21.011,21.011,0,0,1-6.833,5.067,1.281,1.281,0,0,1-.5.168.347.347,0,0,1-.365-.392c0-.168.084-.252.252-.364a27.722,27.722,0,0,0,6.609-5.992,25.524,25.524,0,0,0,3.5-5.6,3.28,3.28,0,0,0,.391-1.175.6.6,0,0,0-.252-.5,4.538,4.538,0,0,0-1.147-.645.3.3,0,0,1-.168-.224c0-.084.168-.2.279-.251a2.288,2.288,0,0,1,.784-.113A4.824,4.824,0,0,1,144.484,88.01Zm-8.427-.813a7.5,7.5,0,0,1,1.82,1.624,3.325,3.325,0,0,1,.7,1.848c-.027.785-.42,1.288-1.063,1.316-.588,0-.84-.252-.953-1.175a10.894,10.894,0,0,0-.391-1.653,6.5,6.5,0,0,0-.757-1.456.678.678,0,0,1-.168-.42.317.317,0,0,1,.336-.28A.958.958,0,0,1,136.057,87.2Z"/><path class="cls-1" d="M133.536,127.686c0,1.624.084,4.983.084,6.775,0,.841-.363,1.12-.783,1.12a.972.972,0,0,1-.9-.56,4.666,4.666,0,0,1-.616-2.071,3.379,3.379,0,0,1,.2-.757,6.145,6.145,0,0,0,.14-1.316c.057-1.511.084-2.715.112-5.348.029-2.716.029-5.291.029-7.867a10.3,10.3,0,0,0-.141-2.156,1.127,1.127,0,0,0-.559-.589,4.788,4.788,0,0,0-1.065-.419c-.195-.057-.279-.141-.279-.252s.139-.225.279-.308a1.985,1.985,0,0,1,.868-.28,5.313,5.313,0,0,1,2.269.672c.672.336,1.12.784,1.12,1.288a1.349,1.349,0,0,1-.393.867,1.608,1.608,0,0,0-.252.981c-.055,1.064-.112,2.687-.112,4.7a16.849,16.849,0,0,1,4.648,1.063c1.96.813,2.745,1.737,2.745,2.717,0,.756-.449,1.176-.9,1.176-.475.027-.783-.169-1.4-.868a11.65,11.65,0,0,0-5.1-3.22Z"/><path class="cls-1" d="M127.461,154.51a4.17,4.17,0,0,1-1.96-.392,3.066,3.066,0,0,1-1.4-1.344.554.554,0,0,1-.056-.28.266.266,0,0,1,.224-.224.424.424,0,0,1,.335.168,3.591,3.591,0,0,0,2.353.756,17.837,17.837,0,0,0,3.668-.476,25.16,25.16,0,0,0,.951-2.94,3.957,3.957,0,0,0,.168-.98.735.735,0,0,0-.531-.672,5.934,5.934,0,0,0-1.149-.364c-.112-.028-.168-.056-.168-.14,0-.112.113-.224.224-.308a1.683,1.683,0,0,1,1.036-.252,5.981,5.981,0,0,1,2.38.784c.421.28.673.476.673.9a.854.854,0,0,1-.448.728,3.093,3.093,0,0,0-.756,1.232c-.2.42-.448,1.008-.672,1.568a17.869,17.869,0,0,0,2.268-.868,3.81,3.81,0,0,1,1.343-.42c.729,0,1.12.364,1.12.84s-.28.7-1.036.952c-.979.336-2.687.812-4.395,1.2-1.624,3.948-3.305,7.476-5.153,11.228a1.118,1.118,0,0,1-1.007.756.951.951,0,0,1-1.008-1.008,1.553,1.553,0,0,1,.363-.924,75.045,75.045,0,0,0,5.152-9.744A24.065,24.065,0,0,1,127.461,154.51Zm12.712,1.652a5.54,5.54,0,0,0-2.464-.476,9.165,9.165,0,0,0-1.316.084,2.018,2.018,0,0,1-.365.028.286.286,0,0,1-.252-.308c0-.112.113-.224.281-.28a7.451,7.451,0,0,1,2.6-.476,9.429,9.429,0,0,1,4.816,1.344,2.285,2.285,0,0,1,1.26,1.652.848.848,0,0,1-.84.868,1.347,1.347,0,0,1-.839-.364,3.812,3.812,0,0,0-2.325-1.2c-1.343,0-2.715.392-2.715,2.6a31.915,31.915,0,0,0,.952,5.236,18.543,18.543,0,0,1,5.095,2.38,1.349,1.349,0,0,1,.561,1.092.89.89,0,0,1-.925.952,1.628,1.628,0,0,1-1.036-.476,14.963,14.963,0,0,0-3.64-2.3,3.247,3.247,0,0,1-1.063,2.688,4.537,4.537,0,0,1-3.277.98c-2.295,0-3.919-1.176-3.919-2.94,0-1.82,1.847-2.884,4.255-2.884a12.4,12.4,0,0,1,2.184.168c-.111-1.456-.363-2.968-.363-4.34,0-2.6,1.343-3.472,3.332-3.92Zm-5.544,9.352c-1.569,0-2.941.616-2.941,1.764,0,.84.785,1.54,2.716,1.54a3.13,3.13,0,0,0,2.212-.7,2.184,2.184,0,0,0,.757-1.708,2.418,2.418,0,0,0-.028-.42A8.645,8.645,0,0,0,134.629,165.514Z"/><path class="cls-1" d="M132.081,193.373c1.567.477,2.044.672,2.044.924,0,.224-.2.392-1.12.448-.252.336-.5.644-.784.952h10.948c1.092-1.2,1.315-1.343,1.483-1.343s.477.111,1.6.979c.561.448.673.616.673.812,0,.168-.084.252-.364.252h-8.989a16.575,16.575,0,0,0,3.977,2.408,20.732,20.732,0,0,0,5.964,1.372c.139,0,.139.308,0,.336-.729.2-.924.364-1.317,1.456a.408.408,0,0,1-.391.28,4.677,4.677,0,0,1-1.065-.252,15.692,15.692,0,0,1-3.836-1.848v1.456c0,2.856.084,4.256.084,4.648,0,.588-.42.9-1.2.9-.559,0-.811-.224-.811-.7v-.644h-9.912v.589c0,.587-.365.839-1.149.839-.643,0-.867-.2-.867-.756,0-.588.111-1.512.111-4.928,0-.588,0-1.12-.027-1.6a26.369,26.369,0,0,1-5.488,2.352c-.2.056-.365-.336-.2-.42a26.308,26.308,0,0,0,7.84-5.488h-5.263a12.636,12.636,0,0,0-1.96.168l-.281-1.091a9.258,9.258,0,0,0,2.241.223h5.851a12.817,12.817,0,0,0,1.54-2.324h-3.836v.14c0,.532-.363.784-1.12.784-.588,0-.867-.2-.867-.671,0-.449.084-1.232.084-4a28.637,28.637,0,0,0-.141-3.64,12.885,12.885,0,0,1,2.269,1.036h12.4c.757-.812.9-.924,1.065-.924.2,0,.364.112,1.2.757.448.336.559.5.559.671,0,.2-.084.336-.727.728v1.26c0,2.492.055,3.668.055,4,0,.56-.364.812-1.2.812-.559,0-.756-.2-.756-.672v-.28Zm6.439-8.9c.029.5.029.784.029.925,0,.559-.393.811-1.2.811-.588,0-.84-.224-.84-.7,0-.111.027-.392.055-1.036h-5.179c.027.56.027.868.027.98,0,.532-.42.812-1.147.812-.645,0-.9-.252-.9-.728,0-.112.029-.42.057-1.064h-5.376a10.2,10.2,0,0,0-1.988.168l-.281-1.064a13.326,13.326,0,0,0,2.269.2h5.376v-.392a14.273,14.273,0,0,0-.112-2.184c2.828.365,3.024.42,3.024.784,0,.2-.168.364-.952.644v1.148h5.179v-.28a16.7,16.7,0,0,0-.139-2.3c2.491.281,3,.42,3,.756,0,.252-.168.42-.9.672v1.148h4.592c1.149-1.344,1.372-1.456,1.54-1.456s.42.112,1.68,1.064c.616.477.728.616.728.784,0,.2-.084.308-.364.308Zm1.876,3.248H127.572v2.072H140.4Zm-12.824,4.956H140.4v-2.184H127.572Zm11.4,6.664h-9.912v2.408h9.912Zm-9.912,5.768h9.912v-2.66h-9.912Zm9.912-6.468a27.177,27.177,0,0,1-2.185-2.24H131.6a21.267,21.267,0,0,1-2.519,2.24Z"/><path class="cls-1" d="M130.625,220a3.949,3.949,0,0,1-1.177-2.576c0-.252.112-.336.225-.336.14,0,.223.056.363.308a6.249,6.249,0,0,0,3.5,2.576,4.468,4.468,0,0,1,1.652.9,1.587,1.587,0,0,1,.588,1.2.758.758,0,0,1-.756.784,2.563,2.563,0,0,1-.868-.14,4.125,4.125,0,0,0-1.343-.168,10.29,10.29,0,0,0-3.529.812c-.447.2-.7.476-.7.756a1.931,1.931,0,0,0,.224.756,3.055,3.055,0,0,1,.223,1.2,16.068,16.068,0,0,1-.195,1.96,29.958,29.958,0,0,0-.364,4.032c0,.112.028.2.139.2.084,0,.168-.028.336-.168a29.4,29.4,0,0,1,3.752-2.52,10,10,0,0,1,5.181-1.652,5.98,5.98,0,0,1,4.367,1.568,4.218,4.218,0,0,1,1.316,3.08c0,2.548-1.763,4.368-4.507,5.628a23.346,23.346,0,0,1-8.876,1.848c-.309,0-.561-.084-.561-.336a.477.477,0,0,1,.42-.42,23.994,23.994,0,0,0,7.841-2.408c2.239-1.288,3.527-2.828,3.527-4.62a3.487,3.487,0,0,0-.979-2.6,4,4,0,0,0-2.716-.868,6.9,6.9,0,0,0-3.7,1.2,17.2,17.2,0,0,0-3.416,2.884,7.278,7.278,0,0,0-1.485,2.072c-.168.532-.363.728-.811.728-.365,0-.729-.28-1.065-.812a3,3,0,0,1-.447-1.624,31.681,31.681,0,0,1,.672-5.712,11.013,11.013,0,0,0,.223-2.128c0-.308-.055-.7-.055-1.064a1.851,1.851,0,0,1,1.092-1.624,17.188,17.188,0,0,1,3.528-1.4A6.191,6.191,0,0,1,130.625,220Z"/><path class="cls-1" d="M128.749,268.974c0-1.765.111-4.424.224-7.141.084-2.211.139-4.4.2-6.635.027-1.036-.112-1.456-.532-1.736a4.574,4.574,0,0,0-.981-.448c-.223-.084-.336-.112-.336-.252s.113-.281.336-.365a2.846,2.846,0,0,1,1.009-.167,4.561,4.561,0,0,1,2.268,1.064,2.26,2.26,0,0,1,1.007,1.512,1.123,1.123,0,0,1-.391.784,1.332,1.332,0,0,0-.393.9c-.168,1.344-.336,3.052-.475,5.292-.168,2.6-.281,5.348-.281,6.8,0,1.4.225,2.212.7,2.661a3.911,3.911,0,0,0,2.435.588,15.359,15.359,0,0,0,6.273-1.82,19.217,19.217,0,0,0,4.4-3.3c.141-.141.252-.225.364-.225a.307.307,0,0,1,.309.252.806.806,0,0,1-.225.561,16.806,16.806,0,0,1-5.124,4.592,13.232,13.232,0,0,1-6.384,1.763C130.457,273.649,128.749,272.333,128.749,268.974Z"/><path class="cls-1" d="M136.253,289.694c-3.08.952-6.244,2.016-8.4,2.772a3.9,3.9,0,0,0-1.2.644,1.034,1.034,0,0,1-.755.28,2.7,2.7,0,0,1-1.876-1.176,2.989,2.989,0,0,1-.84-1.568c0-.392.112-.7.252-.7a.574.574,0,0,1,.364.224,2.478,2.478,0,0,0,2.1.98,9.935,9.935,0,0,0,1.679-.308c4.061-1.036,8.261-2.128,12.376-3.192a3.371,3.371,0,0,0,1.093-.42,1.925,1.925,0,0,1,.951-.28,4.515,4.515,0,0,1,1.821.476c.391.168.755.448.755.868.029.588-.28.84-.979.868a18,18,0,0,0-4.929.616,9,9,0,0,0-4.031,2.6,8.066,8.066,0,0,0-2.212,5.432,5.276,5.276,0,0,0,1.932,4.2,9.534,9.534,0,0,0,5.124,1.708,3.729,3.729,0,0,1,1.931.476,1.274,1.274,0,0,1,.756,1.2c0,.476-.308.812-1.483.812a12.459,12.459,0,0,1-6.552-2.072,6.752,6.752,0,0,1-3-5.544,8.929,8.929,0,0,1,1.26-4.788,12,12,0,0,1,3.891-4Zm4.647,3.724a6.326,6.326,0,0,1,2.437,1.4c.672.588,1.063,1.092,1.063,1.68a.779.779,0,0,1-.784.84c-.363,0-.672-.252-.924-.756a9.7,9.7,0,0,0-2.351-2.688.436.436,0,0,1-.2-.28.289.289,0,0,1,.308-.28A1.593,1.593,0,0,1,140.9,293.418Zm2.437-1.876a6.6,6.6,0,0,1,2.239,1.092c.672.476,1.288,1.12,1.288,1.764a.8.8,0,0,1-.756.9c-.364,0-.588-.14-.9-.672a8.538,8.538,0,0,0-2.576-2.632.336.336,0,0,1-.2-.28.281.281,0,0,1,.281-.28A3.674,3.674,0,0,1,143.337,291.542Z"/><path class="cls-1" d="M77.341,24.505v1.54a24.628,24.628,0,0,1-.924,6.972A12.422,12.422,0,0,1,72.805,38.9c-.14.141-.5-.055-.392-.223a15.339,15.339,0,0,0,2.407-6.1,33.822,33.822,0,0,0,.42-5.881,37.4,37.4,0,0,0-.168-4.227,15.727,15.727,0,0,1,2.521,1.344H87.7c-.027-.336-.055-.672-.055-1.008-.056-1.036-.084-1.512-.2-2.464,2.605.252,2.969.476,2.969.84,0,.252-.225.475-.952.784,0,.672.027,1.288.055,1.848h4.789c.895-1.232,1.036-1.316,1.232-1.316s.336.084,1.4.98c.449.42.533.588.533.756,0,.2-.113.28-.393.28H89.549a15.492,15.492,0,0,0,1.679,6.776,14.5,14.5,0,0,0,1.065-1.9,15.333,15.333,0,0,0,1.008-2.8c2.3.952,2.492,1.036,2.492,1.4,0,.225-.252.365-1.009.477a17.882,17.882,0,0,1-2.716,4.228A10.86,10.86,0,0,0,94.784,35.4a2.161,2.161,0,0,0,1.149.533c.223,0,.559-.365,1.679-2.52.057-.112.309,0,.281.14-.281,1.372-.476,2.324-.476,2.575a.983.983,0,0,0,.308.617,1.4,1.4,0,0,1,.307.9A.964.964,0,0,1,97,38.7a4.262,4.262,0,0,1-1.764-.532,12.962,12.962,0,0,1-4.507-4.088,17.079,17.079,0,0,1-4.985,3.191c-.168.084-.42-.279-.252-.391a19.007,19.007,0,0,0,4.536-3.948c-.139-.28-.28-.533-.42-.812a20.533,20.533,0,0,1-1.876-7.616ZM73.364,43.629c0-.588.28-.9,1.009-1.233a3.687,3.687,0,0,0,2.38-3.191c.027-.141.307-.112.336.027a10.036,10.036,0,0,1,.084,1.261c0,2.268-1.065,4.256-2.632,4.256A1.075,1.075,0,0,1,73.364,43.629Zm4.62-16.6a6.83,6.83,0,0,0,1.653.2h4.536c.811-1.064,1.063-1.176,1.231-1.176s.393.112,1.372.895c.393.337.533.533.533.7s-.084.28-.365.28H79.692a5.6,5.6,0,0,0-1.427.168Zm2.3,8.569c0,.531-.336.784-1.092.784-.559,0-.755-.2-.755-.589,0-.335.084-1.007.084-3.079,0-1.428-.029-2.464-.113-3.5a16.931,16.931,0,0,1,2.017,1.008h3.836c.7-.756.868-.868,1.063-.868s.336.112,1.092.756c.393.364.5.5.5.672,0,.224-.084.364-.729.756v.783c0,1.708.056,2.465.056,2.689,0,.5-.336.783-1.092.783-.532,0-.727-.195-.727-.644v-.252H80.28Zm1.6,6.86c0,1.092.392,1.26,3.779,1.26,2.66,0,3.864-.113,4.4-.645.5-.447.727-1.147,1.175-2.575.029-.141.336-.112.336.027-.028.617-.055,1.289-.055,1.9,0,.391.111.5.363.616a.776.776,0,0,1,.589.811c0,.561-.477,1.008-1.4,1.232a27.029,27.029,0,0,1-5.964.365c-4.229,0-5.264-.5-5.264-2.969,0-.336.084-.727.084-2.071a12.555,12.555,0,0,0-.141-2.324c2.8.307,3,.391,3,.728,0,.224-.112.392-.9.728Zm2.548-11.536H80.28v3.275h4.145ZM86.1,40.6a7.19,7.19,0,0,0-2.211-2.632c-.084-.056.028-.252.139-.224,2.576.42,4.145,1.539,4.145,2.828a1.089,1.089,0,0,1-1.036,1.176C86.637,41.753,86.469,41.557,86.1,40.6ZM92.8,22.825a5.213,5.213,0,0,0-1.765-1.876c-.084-.057-.027-.224.084-.224,1.988.167,3.193.784,3.193,1.764a.855.855,0,0,1-.869.867C93.133,23.356,93.049,23.245,92.8,22.825Zm2.38,20.327a8.328,8.328,0,0,0-2.324-3.807c-.084-.084.083-.252.2-.224,2.66.84,4.34,2.492,4.34,4.031,0,.9-.42,1.4-1.065,1.4C95.709,44.553,95.484,44.3,95.177,43.152Z"/><path class="cls-1" d="M79.3,73.141c0-1.764.111-4.424.223-7.14.084-2.213.141-4.4.2-6.636.028-1.036-.113-1.456-.533-1.736a4.546,4.546,0,0,0-.979-.448c-.225-.084-.336-.112-.336-.252s.111-.281.336-.365a2.836,2.836,0,0,1,1.008-.168,4.558,4.558,0,0,1,2.267,1.065,2.258,2.258,0,0,1,1.008,1.512,1.119,1.119,0,0,1-.391.784,1.333,1.333,0,0,0-.392.9c-.168,1.344-.336,3.052-.477,5.292-.168,2.6-.28,5.348-.28,6.8,0,1.4.225,2.212.7,2.66A3.916,3.916,0,0,0,84.089,76a15.336,15.336,0,0,0,6.271-1.82,19.248,19.248,0,0,0,4.4-3.3c.139-.141.252-.225.363-.225a.307.307,0,0,1,.309.252.8.8,0,0,1-.225.561,16.8,16.8,0,0,1-5.124,4.592A13.235,13.235,0,0,1,83.7,77.816C81.009,77.816,79.3,76.5,79.3,73.141Zm8.763-14.056a6.313,6.313,0,0,1,2.437,1.4c.672.588,1.063,1.092,1.063,1.679a.779.779,0,0,1-.784.841c-.363,0-.672-.252-.924-.756a9.7,9.7,0,0,0-2.351-2.688.436.436,0,0,1-.2-.28.288.288,0,0,1,.307-.28A1.593,1.593,0,0,1,88.064,59.085ZM90.5,57.209A6.6,6.6,0,0,1,92.74,58.3c.672.476,1.288,1.12,1.288,1.763a.8.8,0,0,1-.756.9c-.364,0-.587-.14-.9-.673A8.558,8.558,0,0,0,89.8,57.657a.338.338,0,0,1-.2-.28.281.281,0,0,1,.281-.28A3.674,3.674,0,0,1,90.5,57.209Z"/><path class="cls-1" d="M81.289,102.205a9.646,9.646,0,0,1,5.88-2.212c4.115,0,6.384,2.576,6.384,5.6,0,4.228-3.809,6.608-7.924,6.608-3.053,0-5.208-1.26-5.208-3.164,0-1.512,1.26-2.324,2.8-2.324a5.345,5.345,0,0,1,4.7,3.584,5.011,5.011,0,0,0,3.527-4.844A4.1,4.1,0,0,0,87.028,101a8.948,8.948,0,0,0-6.328,2.856,21.943,21.943,0,0,0-2.183,2.464.914.914,0,0,1-.7.364,1.042,1.042,0,0,1-1.007-1.092,1.412,1.412,0,0,1,.475-1.008c2.156-2.324,4.481-4.732,6.5-7.2,1.2-1.484,2.353-2.884,3.752-4.732.2-.252.113-.308,0-.308a2.522,2.522,0,0,0-.531.14c-1.261.42-2.689.952-3.809,1.4a2.059,2.059,0,0,0-.952.588,1.049,1.049,0,0,1-.756.308,2.239,2.239,0,0,1-1.4-.812,3.179,3.179,0,0,1-1.009-2.044c0-.28.168-.588.336-.588.112,0,.225.112.364.308.617.812,1.008,1.092,1.485,1.092a6.735,6.735,0,0,0,1.456-.2c1.26-.308,2.435-.644,3.7-1.064a1.783,1.783,0,0,0,.841-.5.892.892,0,0,1,.643-.28,3.915,3.915,0,0,1,1.764.868c.561.392.841.756.841,1.2,0,.28-.225.476-.729.588-.28.056-.532.2-1.147.812-.925.924-2.072,2.128-3.725,4.06-1.036,1.2-2.547,2.66-3.668,3.92Zm1.6,5.376a1.361,1.361,0,0,0-1.54,1.288c0,1.148,1.483,1.932,3.723,1.932a5.675,5.675,0,0,0,1.12-.084C85.769,109.121,84.257,107.581,82.885,107.581Z"/><path class="cls-1" d="M91.536,126.929c1.288-1.54,1.513-1.652,1.681-1.652s.391.112,1.735,1.2c.645.532.757.7.757.868,0,.2-.084.28-.364.28H79.16a18.26,18.26,0,0,1-6.1,6.888c-.168.112-.449-.168-.308-.308a25.075,25.075,0,0,0,5.067-8.26,13.1,13.1,0,0,0,.729-2.66c2.128.588,2.939.98,2.939,1.316s-.279.5-1.147.616c-.252.588-.532,1.176-.813,1.708ZM87.7,145.8a1.019,1.019,0,0,1-.951,1.148c-.5,0-.841-.336-1.456-1.372a15.99,15.99,0,0,0-1.988-2.772,20.976,20.976,0,0,1-9.632,5.516c-.2.056-.336-.308-.168-.392a24.834,24.834,0,0,0,8.512-6.412,37.635,37.635,0,0,0-4.844-3.752c-.141-.084.027-.42.195-.364a35.1,35.1,0,0,1,5.544,2.968,22.281,22.281,0,0,0,1.736-2.828,18.494,18.494,0,0,0,.785-1.792c1.96.784,2.66,1.232,2.66,1.6,0,.392-.281.532-1.176.532a25.4,25.4,0,0,1-2.437,3.612C86.5,143.085,87.7,144.653,87.7,145.8Zm2.828-11.732c.952-1.008,1.092-1.12,1.26-1.12.2,0,.364.112,1.288.9.448.364.532.532.532.7,0,.252-.112.448-.727.84a22.482,22.482,0,0,0,.811,6.244,9.708,9.708,0,0,0,1.68,3.164c.337.42.561.644.784.644s.532-.756,1.4-3.556c.028-.14.364-.056.336.084-.336,2.576-.42,3.612-.42,3.892a1.072,1.072,0,0,0,.391.924,1.011,1.011,0,0,1,.309.756.988.988,0,0,1-1.036.98,3.023,3.023,0,0,1-1.681-.672,9.92,9.92,0,0,1-3.163-4.284c-.952-2.3-1.4-4.452-1.484-8.792H77.648a9.73,9.73,0,0,0-1.988.2l-.279-1.064a14.8,14.8,0,0,0,2.24.168ZM78.4,130.177a10.8,10.8,0,0,0,2.072.2H89.24c1.12-1.288,1.345-1.456,1.513-1.456s.42.168,1.6,1.12c.532.42.671.588.671.756,0,.2-.112.28-.391.28H80.476a10.257,10.257,0,0,0-1.792.14Z"/><path class="cls-1" d="M75.549,182.761c0,.532-.365.812-1.065.812-.588,0-.811-.224-.811-.7,0-1.456.14-3.5.14-10.416,0-4.227-.029-6.384-.169-8.4a13.733,13.733,0,0,1,2.044,1.007h1.317v-4.284h-1.96a12.09,12.09,0,0,0-1.96.168l-.28-1.036a11.65,11.65,0,0,0,2.183.168h7.448c1.065-1.231,1.26-1.372,1.428-1.372.2,0,.393.141,1.513,1.064.559.392.672.588.672.756s-.084.252-.364.252h-4.2v4.284h1.485c.672-.755.811-.868,1.008-.868.168,0,.335.113,1.12.756.364.336.5.476.5.673s-.14.308-.756.728v4.479c0,6.916.139,10.472.139,11.732,0,.5-.336.784-1.036.784-.588,0-.811-.224-.811-.756v-1.12H75.549Zm7.588-9.464a9.02,9.02,0,0,1-.924.028c-1.988,0-2.269-.364-2.269-1.428,0-.224.029-.7.029-2.016v-4.115H78.545a18.788,18.788,0,0,1-.561,5.291,8.976,8.976,0,0,1-1.96,3.3c-.084.112-.336-.084-.28-.2a9.4,9.4,0,0,0,1.065-3.276,32.117,32.117,0,0,0,.307-5.123H75.549v10.863h7.588Zm-7.588,7.476h7.588v-3.444H75.549Zm4.424-15.708v-4.284H78.545v4.284Zm3.164.7H81.429v5.739c0,.308.2.392.84.392a5.464,5.464,0,0,0,.868-.056Zm6.132,3.751v10.248c0,1.232.616,1.428,3.3,1.428,2.38,0,3.332-.224,3.7-.728a11.519,11.519,0,0,0,1.316-3.752c.027-.112.279-.084.279.028-.027.952-.084,2.38-.084,2.856,0,.5.084.616.42.757a.81.81,0,0,1,.42.783c0,.672-.531,1.2-1.456,1.484a18.553,18.553,0,0,1-5.123.448c-3.753,0-4.788-.644-4.788-2.94,0-.952.027-2.52.027-6.384,0-3.528,0-4.452-.139-6.076a18.917,18.917,0,0,1,2.408,1.148h5.124v-8.064H89.129a7.866,7.866,0,0,0-2.128.224l-.28-1.092a13.933,13.933,0,0,0,2.408.168h5.348c.839-.952.979-1.064,1.148-1.064.195,0,.363.112,1.315.9.449.336.561.5.561.673s-.084.336-.813.867v2.212c0,4.06.113,6.02.113,6.636,0,.7-.393,1.008-1.2,1.008-.617,0-.924-.224-.924-.756v-1.008Z"/><path class="cls-1" d="M31.28,30.161c0,.5,0,1.008.029,1.708H34.7c.813-.9,1.008-1.037,1.149-1.037.2,0,.391.141,1.343.869.281.252.42.447.42.615s-.112.253-.364.253H31.337c.027.644.056,1.092.056,1.344,0,.476-.281.728-1.065.728-.5,0-.727-.224-.727-.588,0-.252.055-.756.055-1.484H25.82a10.919,10.919,0,0,0-1.931.168l-.281-1.12a8.8,8.8,0,0,0,2.212.252h3.864c.029-.56.029-1.148.029-1.708h-2.66v.084c0,.476-.336.728-.9.728-.5,0-.727-.2-.727-.672,0-.42.055-1.12.055-3.613,0-1.287,0-1.931-.084-2.883a10.9,10.9,0,0,1,1.821.868h2.492v-1.68H26.129a11.18,11.18,0,0,0-1.9.168L23.917,22.1a12.083,12.083,0,0,0,2.155.2h3.641c-.029-.952-.057-1.568-.141-2.324,2.324.28,2.521.364,2.521.672,0,.2-.057.28-.813.644v1.008h2.969c.811-.952,1.008-1.092,1.176-1.092s.364.14,1.344.868c.364.308.5.5.5.672s-.112.252-.364.252H31.28v1.68h2.548c.561-.644.7-.756.9-.756.168,0,.335.112.923.588.393.28.477.475.477.643,0,.14-.084.253-.616.589v1.092c0,2.071.055,3.023.055,3.332,0,.476-.335.728-.923.728-.476,0-.672-.225-.672-.617v-.111Zm-6.3,15.652a18.3,18.3,0,0,0,3.836-2.577,13,13,0,0,0,1.905-2.267c1.931,1.092,2.212,1.316,2.212,1.54,0,.2-.365.364-1.12.252a15.381,15.381,0,0,1-6.665,3.387C24.98,46.177,24.841,45.9,24.98,45.813Zm9.913-5.461c-2.6.2-5.376.365-8.512.5-.225.588-.42.757-.616.757-.224,0-.392-.421-.84-2.549a38.608,38.608,0,0,0,3.864.141c1.876,0,3.752,0,5.628-.057a24.181,24.181,0,0,0,2.968-2.911,10.642,10.642,0,0,0,1.344-1.905c1.847.981,2.211,1.232,2.211,1.484,0,.281-.084.337-1.12.308a33.075,33.075,0,0,1-4.452,3.024c2.941-.084,5.853-.223,8.792-.419a9.424,9.424,0,0,0-2.323-1.652c-.112-.057.056-.308.195-.28,3.668.672,5.433,2.128,5.433,3.388a.927.927,0,0,1-.9,1.036c-.391,0-.672-.2-1.259-1.121a6.635,6.635,0,0,0-.645-.839c-2.6.391-5.207.672-7.812.924V42.4c0,1.54.084,2.8.084,3.193,0,.616-.419.9-1.288.9-.588,0-.868-.2-.868-.727,0-.281.113-1.233.113-3.22Zm-7.84-14.979V27h2.66V25.373Zm0,4.088h2.66V27.7h-2.66Zm6.859,8.26a.868.868,0,0,1-.867.923c-.364,0-.5-.083-.952-.755A7.375,7.375,0,0,0,28.984,35.4c-.111-.055,0-.252.113-.223a12.908,12.908,0,0,1,3.135.811,12.747,12.747,0,0,0,.785-1.343,14.1,14.1,0,0,0,.559-1.316c1.765.644,2.24.9,2.24,1.176,0,.252-.28.336-1.036.364-.868.672-1.344,1.035-1.931,1.428A1.734,1.734,0,0,1,33.912,37.721Zm.057-12.348H31.28V27h2.689Zm0,2.324H31.28v1.764h2.689Zm10.7-.28c.616-.588.757-.7.925-.7.2,0,.363.112,1.2.756.336.28.447.476.447.644,0,.2-.084.252-.868.56a14.974,14.974,0,0,1-3.052,3.052,15.825,15.825,0,0,0,6.3,1.512c.112,0,.112.252,0,.279a1.714,1.714,0,0,0-1.344,1.261c-.084.252-.223.363-.42.363a4.166,4.166,0,0,1-1.175-.252,17.428,17.428,0,0,1-3.752-1.9,6.356,6.356,0,0,1-.7-.533,20.521,20.521,0,0,1-5.768,2.157c-.141.028-.252-.281-.112-.337a21.757,21.757,0,0,0,4.956-2.659,14.132,14.132,0,0,1-2.325-3.5,10.2,10.2,0,0,0-1.484.2l-.279-1.092a9.308,9.308,0,0,0,2.1.2Zm-4.172-4.872a4.381,4.381,0,0,1-.84,2.687,6.324,6.324,0,0,1-3.023,2.073c-.112.028-.28-.168-.2-.224a5.8,5.8,0,0,0,1.9-2.24,6.033,6.033,0,0,0,.476-2.66,13.469,13.469,0,0,0-.14-1.848,14.924,14.924,0,0,1,2.015.98h2.464c.617-.756.756-.868.924-.868.2,0,.364.112,1.065.672.364.336.448.531.448.7s-.113.308-.616.616v1.68c0,.5.28.644.952.644.9,0,1.315-.084,1.651-.392a5.034,5.034,0,0,0,.7-1.848c.029-.112.281-.056.281.056,0,.42-.029,1.064-.029,1.372,0,.224.057.308.309.42a.6.6,0,0,1,.447.588c0,.448-.308.756-.811.924a7.755,7.755,0,0,1-2.548.308c-1.9,0-2.632-.5-2.632-1.568,0-.364.027-.728.027-1.792v-.812H40.492Zm3.221,22.483a11.719,11.719,0,0,0-4.649-3.584c-.112-.055,0-.252.113-.252,3.7.392,6.552,2.044,6.552,3.557a.946.946,0,0,1-.953,1.064C44.44,45.813,44.188,45.617,43.713,45.028ZM39.541,28.117a9.684,9.684,0,0,0,2.575,2.856,12.332,12.332,0,0,0,2.492-2.856Z"/><path class="cls-1" d="M36.013,62.305a2.594,2.594,0,0,1,2.212,1.148,5.843,5.843,0,0,1,.811,3.332,17.981,17.981,0,0,1-1.092,5.936,9.165,9.165,0,0,1-2.183,3.584,3.691,3.691,0,0,1-2.492,1.26c-.644,0-.924-.168-1.037-.728a1.851,1.851,0,0,0-.419-1.008c-.449-.532-.953-1.064-1.625-1.764a.376.376,0,0,1-.139-.28c0-.112.139-.308.279-.308a.515.515,0,0,1,.309.14c.811.56,1.483,1.008,2.212,1.428a1.821,1.821,0,0,0,.811.2,1.451,1.451,0,0,0,1.065-.532A9.688,9.688,0,0,0,36.713,70.9a18.636,18.636,0,0,0,.727-4.76,3.814,3.814,0,0,0-.475-2.352,1.286,1.286,0,0,0-1.2-.476,8.01,8.01,0,0,0-1.933.336c-.867,1.792-1.651,3.556-2.491,5.18-1.456,2.828-2.716,5.292-4.229,7.868a1.043,1.043,0,0,1-.979.56.831.831,0,0,1-.9-.784,1.731,1.731,0,0,1,.365-1.036c1.652-2.492,3.164-5.012,4.563-7.588.729-1.372,1.345-2.52,1.9-3.7-1.036.364-2.128.812-2.939,1.148a3.032,3.032,0,0,0-.812.42,1.019,1.019,0,0,1-.7.308,1.884,1.884,0,0,1-1.26-.672,3.138,3.138,0,0,1-1.063-1.96c0-.308.14-.672.279-.672.113,0,.168.056.309.252.5.644.924,1.036,1.372,1.036a8.574,8.574,0,0,0,2.016-.364c.979-.224,2.044-.5,3.387-.868a31.076,31.076,0,0,0,1.26-3.388,3.2,3.2,0,0,0,.2-1.092c0-.252-.055-.392-.42-.644a3.953,3.953,0,0,0-1.231-.42c-.28-.056-.393-.112-.393-.252s.168-.252.365-.364a2.436,2.436,0,0,1,1.007-.224,4.553,4.553,0,0,1,2.8,1.176,1.169,1.169,0,0,1,.448.924c0,.28-.167.476-.532.644a1.919,1.919,0,0,0-.672.9c-.336.756-.727,1.568-1.12,2.436A8.713,8.713,0,0,1,36.013,62.305Zm11.143,8.624a1.285,1.285,0,0,1-.811-.308,1.575,1.575,0,0,0-1.036-.308c-.9,0-1.876.056-3.165.14a.346.346,0,0,1-.391-.364c0-.168.084-.28.307-.336a24.342,24.342,0,0,0,3.136-.784c.336-.112.448-.2.448-.5a4.541,4.541,0,0,0-.952-2.156,12,12,0,0,0-3.08-2.94.578.578,0,0,1-.279-.392c0-.14.168-.28.42-.28a.511.511,0,0,1,.252.056,11.093,11.093,0,0,1,3.92,2.66,6.651,6.651,0,0,1,2.239,4.312C48.164,70.565,47.688,70.929,47.156,70.929ZM42.425,57.321a6.3,6.3,0,0,1,2.435,1.4c.672.588,1.065,1.092,1.065,1.68a.78.78,0,0,1-.784.84c-.365,0-.672-.252-.924-.756A9.677,9.677,0,0,0,41.864,57.8a.436.436,0,0,1-.2-.28.287.287,0,0,1,.307-.28A1.6,1.6,0,0,1,42.425,57.321Zm2.435-1.876A6.625,6.625,0,0,1,47.1,56.537c.671.476,1.288,1.12,1.288,1.764a.8.8,0,0,1-.756.9c-.364,0-.588-.14-.9-.672a8.538,8.538,0,0,0-2.576-2.632.338.338,0,0,1-.195-.28.28.28,0,0,1,.279-.28A3.639,3.639,0,0,1,44.86,55.445Z"/><path class="cls-1" d="M32.289,101.953a9.646,9.646,0,0,1,5.88-2.212c4.115,0,6.384,2.576,6.384,5.6,0,4.228-3.809,6.608-7.924,6.608-3.053,0-5.208-1.26-5.208-3.164,0-1.512,1.26-2.324,2.8-2.324a5.345,5.345,0,0,1,4.7,3.584,5.011,5.011,0,0,0,3.527-4.844,4.1,4.1,0,0,0-4.424-4.452,8.948,8.948,0,0,0-6.328,2.856,21.943,21.943,0,0,0-2.183,2.464.914.914,0,0,1-.7.364,1.042,1.042,0,0,1-1.007-1.092,1.412,1.412,0,0,1,.475-1.008c2.156-2.324,4.481-4.732,6.5-7.2,1.2-1.484,2.353-2.884,3.752-4.732.2-.252.112-.308,0-.308a2.522,2.522,0,0,0-.531.14c-1.261.42-2.688.952-3.809,1.4a2.059,2.059,0,0,0-.952.588,1.049,1.049,0,0,1-.756.308,2.239,2.239,0,0,1-1.4-.812,3.179,3.179,0,0,1-1.009-2.044c0-.28.168-.588.336-.588.112,0,.225.112.364.308.617.812,1.008,1.092,1.485,1.092a6.735,6.735,0,0,0,1.456-.2c1.259-.308,2.435-.644,3.7-1.064a1.783,1.783,0,0,0,.841-.5.892.892,0,0,1,.643-.28,3.915,3.915,0,0,1,1.764.868c.561.392.841.756.841,1.2,0,.28-.225.476-.729.588-.28.056-.532.2-1.147.812-.925.924-2.072,2.128-3.725,4.06-1.036,1.2-2.548,2.66-3.668,3.92Zm1.6,5.376a1.361,1.361,0,0,0-1.54,1.288c0,1.148,1.483,1.932,3.723,1.932a5.675,5.675,0,0,0,1.12-.084C36.769,108.869,35.257,107.329,33.885,107.329Z"/><path class="cls-1" d="M36.349,131.549a16.1,16.1,0,0,1-2.521,2.268,13.841,13.841,0,0,1,2.66,2.913,12.7,12.7,0,0,1,1.96,6.943,6.479,6.479,0,0,1-.9,3.78,3.078,3.078,0,0,1-2.464,1.26c-.364,0-.477-.112-.532-.5-.113-.84-.7-1.2-2.828-1.792-.169-.056-.169-.448,0-.42,1.875.224,2.967.308,3.331.308a.945.945,0,0,0,.924-.56,6.666,6.666,0,0,0,.365-2.856c0-.476-.029-.951-.056-1.4a28.375,28.375,0,0,1-12.488,5.376c-.2.029-.308-.364-.113-.42a32.658,32.658,0,0,0,12.265-7.168,15.093,15.093,0,0,0-.616-1.9,24.482,24.482,0,0,1-11.145,4.62c-.168.028-.279-.336-.111-.392a28.494,28.494,0,0,0,10.332-6.02,12.542,12.542,0,0,0-1.036-1.428,23.255,23.255,0,0,1-8.876,3.36c-.2.029-.336-.364-.141-.42a22.965,22.965,0,0,0,9.24-5.544H29.4a9.54,9.54,0,0,0-1.9.2l-.28-1.092a10.344,10.344,0,0,0,2.183.2H41.837c1.176-1.373,1.4-1.513,1.567-1.513.2,0,.393.14,1.653,1.148.559.449.7.616.7.812,0,.168-.113.252-.393.252H38.337a20.976,20.976,0,0,0,2.183,6.02,17.562,17.562,0,0,0,2.716-3.052,9.52,9.52,0,0,0,1.008-1.875c1.681.923,2.437,1.511,2.437,1.847,0,.308-.365.449-1.149.42a25.093,25.093,0,0,1-4.647,3.248,16.645,16.645,0,0,0,2.128,2.688,14.762,14.762,0,0,0,5.88,3.836c.112.028.028.224-.084.28-.617.252-.84.5-1.289,1.6-.168.392-.223.448-.419.448a1.936,1.936,0,0,1-.9-.448,17.605,17.605,0,0,1-4.731-4.816,25,25,0,0,1-3.752-10.192Zm-9.044-4.06c-.113,2.016-1.008,3.528-2.325,3.528a1.059,1.059,0,0,1-1.091-1.148c0-.559.2-.868.868-1.26a3.635,3.635,0,0,0,1.987-3.3c0-.168.364-.168.393,0a6.884,6.884,0,0,1,.168,1.483h7.784v-1.876a15.965,15.965,0,0,0-.113-1.764c2.8.308,3.136.533,3.136.812,0,.252-.2.448-.924.7v2.128h8.037c.923-1.008,1.091-1.12,1.259-1.12.225,0,.477.141,1.708,1.261.645.559.7.727.7.924,0,.307-.252.475-1.092.475a1.211,1.211,0,0,0-1.036.364,21.166,21.166,0,0,1-1.737,1.316c-.111.084-.336-.084-.28-.2a8.989,8.989,0,0,0,.784-2.324Z"/><path class="cls-1" d="M28.313,169.293c-.476,7-1.9,10.752-5.237,14.112-.14.14-.475-.056-.363-.224,2.464-3.808,3.7-8.68,3.779-16.66v-2.156H25.457a11.263,11.263,0,0,0-1.82.168l-.281-1.064a9.626,9.626,0,0,0,2.1.2h1.876v-3.052c0-.644-.028-1.26-.112-2.212,2.687.28,2.967.5,2.967.812,0,.2-.2.392-.895.728v3.724h1.735c.952-1.2,1.149-1.344,1.317-1.344.2,0,.42.14,1.372,1.008.42.392.559.616.559.784s-.084.252-.364.252H28.48c-.028,1.4-.055,2.828-.139,4.228h2.548c.755-.924.895-1.036,1.063-1.036.2,0,.337.112,1.261.9.42.392.5.56.5.728s-.113.28-.672.672c-.336,5.992-.784,8.848-1.288,10.583a3.72,3.72,0,0,1-1.429,2.325,2.552,2.552,0,0,1-1.344.364c-.336,0-.448-.084-.475-.392-.141-.868-.588-1.232-2.017-1.708-.168-.056-.111-.42.057-.392a13.9,13.9,0,0,0,2.38.252c.643,0,.9-.308,1.2-1.68a60.378,60.378,0,0,0,.979-9.912Zm9.436-.28a16.527,16.527,0,0,1-3.221,3.472c-.139.112-.391-.112-.279-.252a20.28,20.28,0,0,0,2.52-4.676,11.709,11.709,0,0,0,.727-2.66c2.129.588,2.633.784,2.633,1.092,0,.28-.225.42-.981.532a15.027,15.027,0,0,1-.952,1.792h5.992c1.008-1.232,1.233-1.372,1.4-1.372s.391.14,1.54,1.064c.5.392.615.588.615.756s-.084.252-.363.252H41.864a37.574,37.574,0,0,1-.336,4.7h3.361c1.12-1.372,1.315-1.54,1.483-1.54.2,0,.393.168,1.624,1.175.561.449.673.617.673.785,0,.2-.084.28-.364.28H41.7a9.412,9.412,0,0,0,3.109,4.48,13.73,13.73,0,0,0,4.983,2.352c.141.028.141.336,0,.364-.783.2-1.035.42-1.344,1.316a.459.459,0,0,1-.42.364,2.635,2.635,0,0,1-1.063-.42,13.753,13.753,0,0,1-3.025-2.521,11.673,11.673,0,0,1-2.66-5.319,9.97,9.97,0,0,1-.364,1.316c-1.176,3.472-4.367,5.908-8.819,7.2-.2.055-.364-.336-.2-.42,4.285-2.128,6.664-4.592,7.533-8.708h-3.7a7.823,7.823,0,0,0-1.763.168l-.281-1.064a10.727,10.727,0,0,0,2.044.2h3.836a29.506,29.506,0,0,0,.309-4.7Zm7.336-5.936c1.231-1.428,1.456-1.568,1.624-1.568.2,0,.392.14,1.623,1.176.561.476.673.672.673.84s-.084.252-.364.252H36.992a16.57,16.57,0,0,1-3.332,3.78c-.111.084-.363-.112-.279-.224a22.115,22.115,0,0,0,2.968-6.1,12.267,12.267,0,0,0,.587-2.884c2.212.5,2.913.812,2.913,1.12,0,.28-.252.42-1.008.56a19,19,0,0,1-1.429,3.052Z"/><line class="cls-2" x1="172.185" x2="172.185" y2="297.775"/><line class="cls-2" y1="297.775"/></svg>