<svg id="レイヤー_1" data-name="レイヤー 1" xmlns="http://www.w3.org/2000/svg" viewBox="0 0 425.402 74.1"><defs><style>.cls-1{fill:#525a70;}</style></defs><path class="cls-1" d="M92.672,9.87c3.059-.24,4.139-.3,5.67-.48a5.427,5.427,0,0,0,1.139-.33,3.16,3.16,0,0,1,1.11-.27,5.986,5.986,0,0,1,2.85.81,1.312,1.312,0,0,1,.66,1.17.845.845,0,0,1-.69.9,9.124,9.124,0,0,1-1.83-.12,30.723,30.723,0,0,0-3.72-.21c-1.019,0-2.7,0-4.05.09.96.66,1.38,1.259,1.38,1.679a.9.9,0,0,1-.15.481,5.48,5.48,0,0,0-.6,1.349,19.812,19.812,0,0,1-3.269,5.91,18.382,18.382,0,0,1-6.12,5.07,1.313,1.313,0,0,1-.51.18c-.21,0-.3-.09-.3-.3,0-.15.239-.361.75-.81A25.146,25.146,0,0,0,89.4,19.47a22.911,22.911,0,0,0,2.221-5.311,9.228,9.228,0,0,0,.269-1.59,1.393,1.393,0,0,0-.33-1.019c-2.13.21-4.349.479-5.729.75a3.668,3.668,0,0,0-1.41.51,1.389,1.389,0,0,1-.9.269c-.539,0-1.079-.3-2.009-1.35a2.674,2.674,0,0,1-.78-1.65c0-.449.15-.72.33-.72.15,0,.27.181.45.33a3.185,3.185,0,0,0,2.04.96c.719,0,1.77-.089,2.639-.179C88.231,10.26,89.971,10.079,92.672,9.87Zm1.92-6.36a3.156,3.156,0,0,0,.9-.33,3.76,3.76,0,0,1,1.141-.329,5.443,5.443,0,0,1,2.579.6.993.993,0,0,1,.48.9A1.008,1.008,0,0,1,98.581,5.4c-.66.031-1.44.031-2.4.121-1.83.15-4.95.39-6.629.54-.571.06-1.14.12-1.56.12a2.566,2.566,0,0,1-2.4-1.08,2.123,2.123,0,0,1-.69-1.59c0-.27.06-.45.21-.45.09,0,.18.12.39.27a3.214,3.214,0,0,0,2.4.93,30.959,30.959,0,0,0,3.24-.239C92.462,3.87,93.632,3.72,94.592,3.51Z"/><path class="cls-1" d="M113.431,19.35c-.33.179-.509.329-.659.329-.24,0-.36-.15-.36-.39,0-.149.18-.3.51-.54a67.229,67.229,0,0,0,9.6-9.209,32.511,32.511,0,0,0,3.6-4.74,2.554,2.554,0,0,0,.48-1.26c0-.269-.389-.66-.99-1.019-.3-.181-.54-.241-.54-.42,0-.241.51-.691,1.26-.691a6.927,6.927,0,0,1,3.181,1.2,2.434,2.434,0,0,1,1.29,1.65c0,.48-.3.84-.991,1.08a1.182,1.182,0,0,0-.63.42c-1.68,1.83-3.12,3.42-4.23,4.59,1.141.809,1.92,1.44,1.92,2.04a1.073,1.073,0,0,1-.119.57,3.823,3.823,0,0,0-.091,1.019V18.3c0,2.25.06,4.5.06,6.779a1.2,1.2,0,0,1-1.14,1.35,1.549,1.549,0,0,1-1.35-.63,3.288,3.288,0,0,1-.63-1.95,1.949,1.949,0,0,1,.151-.69,11.782,11.782,0,0,0,.3-2.82c0-2.19.03-5.1.03-6.93a5.062,5.062,0,0,0-.211-1.949A42.533,42.533,0,0,1,113.431,19.35Z"/><path class="cls-1" d="M144.812,10.859c0-.21.329-.3.84-.3a9.864,9.864,0,0,1,3.029.48c1.59.51,2.371,1.35,2.371,2.31a1.693,1.693,0,0,1-1.56,1.83c-.45,0-.9-.33-1.351-1.05a7.673,7.673,0,0,0-2.909-2.881C144.931,11.13,144.812,11.01,144.812,10.859Zm5.07,13.41c-.6,0-1.14-.36-2.01-1.35a5.157,5.157,0,0,1-1.41-2.64c0-.57.27-1.08.42-1.08.21,0,.27.181.45.361.45.509.99,1.2,1.74,1.2a5.047,5.047,0,0,0,1.8-.6,47.222,47.222,0,0,0,7.349-4.47,73.908,73.908,0,0,0,8.19-6.87c.3-.3.479-.509.69-.509a.269.269,0,0,1,.3.3.934.934,0,0,1-.21.51,38.247,38.247,0,0,1-6.96,7.8,59.255,59.255,0,0,1-8.34,6.03,2.968,2.968,0,0,0-.929.72A1.386,1.386,0,0,1,149.882,24.269Zm-1.2-19.8c0-.12.121-.241.51-.241a7.45,7.45,0,0,1,3.21.691c.931.479,2.13,1.26,2.13,2.43a1.629,1.629,0,0,1-1.59,1.83c-.54,0-.779-.271-1.26-1.111a10.025,10.025,0,0,0-2.7-3.209C148.742,4.68,148.681,4.649,148.681,4.47Z"/><path class="cls-1" d="M191.641,11.279a1.562,1.562,0,0,0,.93-.54,1.084,1.084,0,0,1,.81-.359,4.093,4.093,0,0,1,2.1,1.019c.66.481.93.871.93,1.29,0,.39-.18.661-.87.781a1.119,1.119,0,0,0-.69.3,35.046,35.046,0,0,1-4.53,3.66,2.046,2.046,0,0,1-.9.45c-.12,0-.21-.061-.21-.181s.09-.3.389-.63a35.677,35.677,0,0,0,3.03-4.5c.06-.119.03-.179-.119-.149-1.8.51-3.96,1.2-5.731,1.739.21.93.391,1.891.69,3.03.48,1.8.96,3.63,1.47,5.52a10.348,10.348,0,0,1,.39,1.86c0,.571-.63.93-1.23.93-.54,0-.96-.15-1.08-.689-.54-2.491-1.08-5.01-1.62-7.5-.18-.811-.389-1.71-.6-2.611a32.285,32.285,0,0,0-3.991,1.5,2.29,2.29,0,0,0-.659.42,1.116,1.116,0,0,1-.721.36c-.45.03-.96-.24-1.589-.9-.84-.84-.96-1.2-.96-1.8,0-.33.179-.569.3-.569.09,0,.21.119.391.269a2.3,2.3,0,0,0,1.47.69,5,5,0,0,0,1.11-.119c1.319-.33,2.85-.75,4.319-1.17-.36-1.441-.57-2.25-.809-3.18a6.064,6.064,0,0,0-.3-.871.818.818,0,0,0-.54-.51,3.311,3.311,0,0,0-.989-.119c-.181,0-.3-.03-.3-.18a1.043,1.043,0,0,1,.449-.66A1.748,1.748,0,0,1,183,7.47a5.717,5.717,0,0,1,2.1.45c.9.33,1.17.66,1.17.989a1.307,1.307,0,0,1-.149.631,1.591,1.591,0,0,0-.151.449,1.28,1.28,0,0,0,.031.571c.09.54.179,1.049.42,2.339C188.731,12.27,190.471,11.64,191.641,11.279Z"/><path class="cls-1" d="M227.88,8.28A1.071,1.071,0,0,1,227.1,9.3c-.481.21-.629.54-.93,1.019a51.812,51.812,0,0,1-6.929,9,26.256,26.256,0,0,1-9.721,6.54,1.951,1.951,0,0,1-.689.18c-.18,0-.3-.06-.3-.27s.149-.3.51-.54a37.919,37.919,0,0,0,8.76-7.679,40.982,40.982,0,0,0,5.908-9.061.956.956,0,0,0,.092-.3.138.138,0,0,0-.15-.12c-.721.09-1.711.33-3.032.571a12.16,12.16,0,0,1-1.619.3,4.831,4.831,0,0,1-1.65-.509,33.656,33.656,0,0,1-3.569,4.02,28.449,28.449,0,0,1-4.351,3.329,2.316,2.316,0,0,1-.96.45c-.269,0-.359-.12-.359-.33,0-.24.42-.54,1.14-1.259a42.023,42.023,0,0,0,3.719-4.35c.84-1.11,1.651-2.311,2.43-3.57a6.124,6.124,0,0,0,.99-2.31c0-.511-.509-.87-1.08-1.17-.269-.15-.359-.24-.359-.36,0-.151.39-.481.989-.481a6.344,6.344,0,0,1,2.941,1.08c.93.571,1.11.961,1.11,1.411a1.337,1.337,0,0,1-.661.929,6.072,6.072,0,0,0-1.23,1.5,1.933,1.933,0,0,0,.451.031,20.618,20.618,0,0,0,2.34-.33c1.228-.21,2.01-.39,2.4-.48a1.243,1.243,0,0,0,.631-.36,1.238,1.238,0,0,1,.78-.42c.72,0,1.38.36,2.429,1.32A1.927,1.927,0,0,1,227.88,8.28Z"/><path class="cls-1" d="M252.661,11.249a6.679,6.679,0,0,1,4.53,1.44,5.34,5.34,0,0,1,2.131,4.65,6.111,6.111,0,0,1-2.971,5.1,13.033,13.033,0,0,1-4.231,1.74,29.765,29.765,0,0,1-5.638.69c-.36,0-.541-.12-.541-.3,0-.12.121-.24.511-.3a20.425,20.425,0,0,0,6.18-1.95c2.52-1.38,4.26-3.54,4.26-5.73a3.769,3.769,0,0,0-1.17-2.969,4.213,4.213,0,0,0-3.271-1.2c-1.889,0-4.049,1.26-6.719,3.329a6.633,6.633,0,0,0-1.711,1.62,1.213,1.213,0,0,1-1.11.57,3.834,3.834,0,0,1-2.369-1.5,2.282,2.282,0,0,1-.66-1.41c0-.45.09-.75.33-.75.09,0,.18.061.36.21.509.45.839.721,1.32.721a1.805,1.805,0,0,0,.689-.181c.211-.09.6-.239,1.26-.569q2.88-1.442,3.871-1.891A13.292,13.292,0,0,1,252.661,11.249Z"/><path class="cls-1" d="M283.411,7.439a68.194,68.194,0,0,0-8.73,2.79,4.628,4.628,0,0,0-1.139.691,1.227,1.227,0,0,1-.871.329c-.6.03-1.289-.359-2.279-1.469a3.668,3.668,0,0,1-1.109-2.16c0-.48.119-.93.3-.93.121,0,.211-.03.481.3,1.051,1.08,1.289,1.2,2.189,1.17a39.053,39.053,0,0,0,5.01-.989c3.84-.9,6.84-1.71,9.121-2.37a9.022,9.022,0,0,0,1.649-.571,2.156,2.156,0,0,1,1.14-.269,7.328,7.328,0,0,1,2.76.48c.51.24.959.539.959,1.17,0,.6-.27,1.05-1.109,1.08-.629.06-1.289,0-2.969.15a9.817,9.817,0,0,0-6.871,3.239,8.246,8.246,0,0,0-2.16,5.82,5.312,5.312,0,0,0,2.191,4.47,9.374,9.374,0,0,0,4.8,1.56,5.587,5.587,0,0,1,2.31.42,1.741,1.741,0,0,1,1.17,1.53c0,.809-.541,1.44-1.949,1.44a14.418,14.418,0,0,1-5.82-1.41,7.825,7.825,0,0,1-4.41-6.9,10.768,10.768,0,0,1,1.17-5.039,13.908,13.908,0,0,1,4.169-4.38Z"/><path class="cls-1" d="M302.732,11.67a25.3,25.3,0,0,1-3.75,3.84c-.119.09-.391-.151-.3-.271A32.009,32.009,0,0,0,303.9,4.83,25.9,25.9,0,0,0,304.921,0c2.731.72,3.961,1.229,3.961,1.649,0,.33-.3.541-1.021.661a38.652,38.652,0,0,1-3.569,7.23c1.68.27,1.92.359,1.92.689,0,.241-.179.42-.81.691V26.489c0,.869-.51,1.26-1.53,1.26-.691,0-1.32-.24-1.32-1.08,0-.779.18-3.18.18-7.949Zm20.849,4.019c0,4.68.061,7.23.061,8.55,0,1.47-.272,2.071-1.141,2.61a4.247,4.247,0,0,1-2.279.6c-.57,0-.631-.091-.721-.75-.09-1.139-.81-1.68-3.269-2.309-.151-.031-.151-.42,0-.42,1.228.09,2.939.179,4.049.179.39,0,.451-.089.451-.509V3.87h-10.41a12.318,12.318,0,0,0-1.92.18l-.33-1.11a10.858,10.858,0,0,0,2.25.24h11.339c1.5-1.8,1.86-2.04,2.071-2.04.269,0,.6.24,2.039,1.44.631.51.869.78.869.989s-.09.3-.389.3h-2.67Zm-12.33,1.98V19.14c0,1.049-.359,1.38-1.529,1.38-.781,0-1.141-.3-1.141-.991,0-.78.09-1.559.09-4.739,0-2.551-.029-5.1-.119-7.68,1.379.69,1.59.84,2.879,1.59h3.689c1.051-1.14,1.291-1.32,1.532-1.32.3,0,.509.18,1.529,1.05.449.42.631.66.631.9,0,.271-.182.451-.871.871v1.379c0,3.631.09,6.12.09,6.93,0,.99-.45,1.381-1.5,1.381-.9,0-1.2-.3-1.2-1.231v-.99Zm4.08-8.279h-4.08v7.589h4.08Z"/><path class="cls-1" d="M351.451,7.14c0,3.509-2.879,5.25-4.92,6.87-1.95,1.53-2.489,2.639-2.309,5.069,0,.33-.271.57-.84.57-.3,0-.39-.089-.39-.39,0-2.76.24-4.289,1.74-6.209,1.41-1.771,3.3-3.391,3.3-6,0-2.52-1.049-4.62-3.629-4.62a3.341,3.341,0,0,0-3.03,1.65,6.055,6.055,0,0,0-.451,2.64c0,.9-1.109,1.53-2.34,1.53-.75,0-1.23-.24-1.23-1.23,0-2.07,2.82-5.58,7.17-5.58C349.021,1.44,351.451,3.96,351.451,7.14Zm-5.76,17.219a2.085,2.085,0,1,1-2.069-2.1A2.113,2.113,0,0,1,345.691,24.359Z"/><path class="cls-1" d="M11.611,66.175c-1.47,4.679-5.369,7.289-11.4,7.619-.15,0-.3-.359-.15-.39,3.81-1.08,6.51-3.09,7.86-5.67a8.718,8.718,0,0,0,.929-3.719c3.21.75,3.781,1.019,3.781,1.349C12.632,65.725,12.481,65.9,11.611,66.175Zm5.64,3.179c0,1.47.12,1.53,2.88,1.53,2.55,0,3.48-.15,4.02-.75.33-.36.57-.539,1.56-3.39.06-.149.39-.09.39.061-.09,1.769-.12,2.46-.12,2.849,0,.271.06.361.51.6a1.274,1.274,0,0,1,.72,1.109c0,.66-.42,1.14-1.35,1.47a21.312,21.312,0,0,1-6.03.54c-4.47,0-5.46-.48-5.46-2.609,0-.42.06-1.051.06-2.491V63.685H7.742v.509c0,.721-.54,1.08-1.771,1.08-.9,0-1.259-.269-1.259-.99,0-1.59.15-3.18.15-9.569,0-2.64-.03-5.28-.15-7.92a17.234,17.234,0,0,1,3.269,1.56H18.842c1.079-1.169,1.319-1.35,1.559-1.35.3,0,.57.181,1.71,1.08.51.42.69.63.69.87,0,.3-.18.51-.84,1.05v2.28c0,6.09.18,10.26.18,11.64,0,.779-.6,1.2-1.65,1.2-.93,0-1.41-.3-1.41-.93v-.509h-1.83Zm1.83-20.309H7.742V53.1H19.081Zm0,4.74H7.742V57.9H19.081Zm0,4.8H7.742V63H19.081Z"/><path class="cls-1" d="M48.842,52.976a37.487,37.487,0,0,0,1.92-3.481,24.636,24.636,0,0,0,1.08-2.73c2.7,1.23,3.569,1.74,3.569,2.131,0,.359-.36.569-1.38.569a28.869,28.869,0,0,1-4.14,3.511h4.65c1.23-1.321,1.47-1.5,1.71-1.5.3,0,.51.179,1.889,1.559.6.63.781.87.781,1.111,0,.479-.15.569-1.29.659-.48.03-.51.03-.72.24a15.843,15.843,0,0,1-2.82,1.86c-.12.06-.329-.09-.27-.24a16.912,16.912,0,0,0,.96-3H35.7c.21,2.55-.72,4.14-2.34,4.14a1.5,1.5,0,0,1-1.56-1.59,1.458,1.458,0,0,1,.93-1.441c1.59-.779,1.98-1.378,2.25-3.269.03-.151.27-.18.3-.029a10.56,10.56,0,0,1,.33,1.5ZM43.5,62.9a18.547,18.547,0,0,0-.09-2.249c1.05.18,1.829.3,2.4.39a19.142,19.142,0,0,0,3.06-3.45h-9.81a6.475,6.475,0,0,0-1.71.24l-.33-1.17a8.206,8.206,0,0,0,1.95.24h9.96c1.23-1.11,1.47-1.291,1.71-1.291.3,0,.54.181,1.71,1.231.51.45.69.66.69.9,0,.42-.33.569-1.47.6a29.227,29.227,0,0,1-4.769,2.91c.569.149.569.269.569.479,0,.3-.27.511-1.05.87v.93h7.32c1.53-1.889,1.89-2.13,2.1-2.13.27,0,.6.241,2.189,1.47.721.6.96.841.96,1.051s-.089.3-.389.3H46.321V67.4c.03,1.65.09,2.43.09,3.57a3.2,3.2,0,0,1-.54,1.95c-.539.75-1.529,1.11-3.029,1.11-.571,0-.63-.12-.75-.78-.151-1.079-1.021-1.59-3.42-2.19-.151-.03-.12-.419.03-.419,1.649.12,3.21.209,4.289.209.36,0,.511-.12.511-.45V64.225h-9.48a11.675,11.675,0,0,0-1.89.179l-.33-1.11a9.514,9.514,0,0,0,2.1.24h9.6ZM39.181,52.615c-.809,0-1.109-.389-1.439-1.889a6.879,6.879,0,0,0-1.62-3.151.2.2,0,0,1,.18-.3c3.179.9,4.5,2.01,4.5,3.6A1.644,1.644,0,0,1,39.181,52.615Zm6.3-.511c-.87,0-1.08-.3-1.38-1.919a6.937,6.937,0,0,0-1.62-3.33c-.09-.12,0-.33.151-.27,3.149,1.051,4.529,2.221,4.529,3.87A1.6,1.6,0,0,1,45.481,52.1Z"/><path class="cls-1" d="M78.451,51.805a32.729,32.729,0,0,0,1.44-3.09,16.569,16.569,0,0,0,.661-2.34c2.549.78,3.839,1.38,3.839,1.771,0,.419-.39.6-1.35.6a24.7,24.7,0,0,1-3.39,3.06h5.611c1.529-1.74,1.889-1.98,2.1-1.98.27,0,.6.24,2.04,1.38.659.54.9.78.9.99s-.09.3-.39.3H66a15.638,15.638,0,0,0-2.19.18l-.33-1.11a13.01,13.01,0,0,0,2.46.24ZM68.012,65.454c.03,3.63.06,5.49.06,7.35,0,.81-.511,1.11-1.62,1.11-.93,0-1.29-.24-1.29-.96,0-1.65.15-3.33.15-10.019,0-2.88,0-5.76-.091-8.67a13.735,13.735,0,0,1,3,1.38h4.861c.989-1.14,1.229-1.32,1.47-1.32.3,0,.54.18,1.589,1.02.451.39.63.6.63.84s-.179.419-.809.839v2.34c0,9.63.09,10.981.09,11.91a2.406,2.406,0,0,1-.75,1.92,3.206,3.206,0,0,1-2.161.63c-.33,0-.45-.15-.509-.57-.18-1.02-.481-1.5-2.79-2.19-.151-.03-.121-.36.03-.36,1.14.061,2.1.12,3.09.12.24,0,.3-.09.3-.479V65.454Zm5.25-9.119h-5.25v3.779h5.25Zm0,4.47h-5.25v3.96h5.25Zm-.571-9.329c-.779,0-1.08-.33-1.319-1.381a7.661,7.661,0,0,0-1.441-3.18c-.089-.12.061-.33.21-.3,2.79.72,4.08,1.74,4.08,3.21A1.548,1.548,0,0,1,72.691,51.476Zm9.24,7.289c0,4.29.06,7.229.06,8.189,0,.87-.54,1.231-1.71,1.231-.93,0-1.14-.18-1.14-1.141,0-.9.06-3.6.06-9a25.45,25.45,0,0,0-.12-2.67c3.3.42,3.87.569,3.87.96,0,.3-.33.54-1.02.81Zm3.24-1.68a18.244,18.244,0,0,0-.15-2.61c3.6.421,3.9.51,3.9,1.02,0,.3-.3.51-.991.779v7.891c0,1.56.121,5.129.121,6.839a2.786,2.786,0,0,1-.45,1.62,2.821,2.821,0,0,1-2.55,1.141c-.69,0-.72-.061-.87-.75-.21-.931-.75-1.441-3.24-2.131-.15-.03-.15-.36,0-.36,1.29.09,2.73.151,3.48.151.66,0,.75-.061.75-.45Z"/><path class="cls-1" d="M101.582,66.9a6.678,6.678,0,0,0-.18,1.679c0,.63.18,1.41.18,1.71.03.84-.18,1.35-.84,1.35-.87,0-1.141-.3-1.95-1.86a14.031,14.031,0,0,1-.99-5.609,36.25,36.25,0,0,1,1.29-8.43,18.241,18.241,0,0,0,.6-3.06,3.993,3.993,0,0,0-.78-2.369.458.458,0,0,1-.12-.3c0-.09.15-.24.42-.24a2.891,2.891,0,0,1,1.44.75,6.681,6.681,0,0,1,1.38,1.8,3.262,3.262,0,0,1,.51,1.65,1.58,1.58,0,0,1-.42,1.08,6.385,6.385,0,0,0-.931,1.649,18.389,18.389,0,0,0-1.529,6.42,7.2,7.2,0,0,0,.33,3.031.124.124,0,0,0,.239,0c.931-1.771,1.861-3.781,2.7-5.52.121-.271.271-.36.42-.36s.3.179.151.63C102.721,63.265,101.912,65.574,101.582,66.9Zm4.769-3.541a4.772,4.772,0,0,0,.361,1.92c.509,1.2,1.92,2.22,5.13,2.22a18.037,18.037,0,0,0,3.9-.269,3.38,3.38,0,0,1,1.23-.33,4.838,4.838,0,0,1,1.74.479,1.261,1.261,0,0,1,.81,1.141,1.233,1.233,0,0,1-.93,1.17,16.527,16.527,0,0,1-5.039.509c-5.1,0-8.071-2.1-8.071-5.79a6.894,6.894,0,0,1,.75-3.269c.151-.271.21-.33.33-.33s.18.12.18.3A10.4,10.4,0,0,0,106.351,63.354Zm.811-8.069a2.461,2.461,0,0,1-.631.239c-.239,0-.269-.089-.269-.269q0-.18.36-.45a14.313,14.313,0,0,1,3.749-1.98,11.178,11.178,0,0,1,3.87-.63c2.73,0,3.57.96,3.57,1.77,0,.84-.54,1.11-1.83,1.11-.39,0-1.02-.09-1.41-.09a7.576,7.576,0,0,0-1.769.209c-.871.241-1.621.571-3.51,2.131a.588.588,0,0,1-.391.18.19.19,0,0,1-.21-.21c0-.09.03-.181.21-.39.481-.6,1.14-1.26,2.07-2.34A9.086,9.086,0,0,0,107.162,55.285Z"/><path class="cls-1" d="M135.181,66.265h1.89c.99-1.231,1.351-1.471,1.561-1.471.269,0,.6.24,1.559,1.02.42.361.66.63.66.84s-.089.3-.389.3h-5.281v2.37c1.831-.21,3.72-.479,5.4-.809.149-.031.269.33.119.389-3.48,1.441-5.789,2.07-12.719,3.48-.18.78-.33,1.051-.63,1.051-.421,0-.54-.241-1.5-3.54,1.8.059,3.15,0,4.14-.061.84-.06,1.71-.12,2.64-.21v-2.67h-3.48a15.8,15.8,0,0,0-2.19.18l-.33-1.11a12.738,12.738,0,0,0,2.43.241h3.57V63.534h-2.76c-.061.78-.481,1.08-1.38,1.08-.57,0-1.23-.149-1.23-.869,0-1.35.06-3.211.06-4.891,0-1.559-.03-3.119-.12-4.708a17.2,17.2,0,0,1,2.85,1.319h2.58v-2.43h-4.29a14.879,14.879,0,0,0-2.13.18l-.33-1.111a12.092,12.092,0,0,0,2.37.241h4.38v-2.43c-1.68.15-3.54.21-5.73.21-.15,0-.24-.39-.09-.42a35.347,35.347,0,0,0,7.98-1.92,15.711,15.711,0,0,0,3.33-1.59c1.769,1.32,2.519,2.07,2.519,2.34s-.42.361-1.44.18a29.969,29.969,0,0,1-4.02.9v2.73h2.79c1.23-1.47,1.59-1.71,1.8-1.71.271,0,.571.24,1.71,1.2.481.42.72.689.72.9s-.09.3-.39.3h-6.63v2.43h2.55c1.05-1.08,1.29-1.26,1.531-1.26.3,0,.54.18,1.589,1.02.451.36.63.57.63.81s-.21.45-.84.81V63.2c0,.87-.45,1.261-1.44,1.261-.81,0-1.17-.271-1.2-.931h-2.821Zm-2.549-7.231V56.155h-2.76v2.879Zm0,3.811v-3.12h-2.76v3.12ZM138,59.034V56.155h-2.821v2.879Zm0,3.811v-3.12h-2.821v3.12Zm9.359-7.68c-.75,10.98-3.33,15.329-10.05,18.869-.12.061-.3-.3-.179-.39,5.04-4.23,7.109-8.879,7.589-18.479h-.81a9.592,9.592,0,0,0-2.19.24l-.33-1.17a11.522,11.522,0,0,0,2.371.24h.989q.09-2.16.091-4.68a22.2,22.2,0,0,0-.151-3c3.42.48,3.81.57,3.81,1.02,0,.331-.239.54-.9.84-.03,2.13-.089,4.05-.21,5.82h2.46c1.079-1.26,1.23-1.41,1.53-1.41s.57.18,1.59,1.14c.48.42.629.66.629.9,0,.331-.119.451-.809.871-.09,7.229-.42,12.149-1.44,14.909a3.7,3.7,0,0,1-1.68,1.98,4.29,4.29,0,0,1-1.98.45c-.66,0-.84-.12-.87-.6-.059-.96-.57-1.619-2.939-2.22-.151-.03-.12-.42.029-.42,2.04.181,3.12.24,3.96.24.81,0,.96-.15,1.29-1.44.57-2.34.93-6.779.99-13.709Z"/><path class="cls-1" d="M166.441,68.124c0,.84-.42,1.2-1.5,1.2-.779,0-1.17-.33-1.17-.9,0-1.59.12-3.211.12-10.891,0-1.979-.029-2.789-.149-4.8a16.74,16.74,0,0,1,3,1.59h3v-5.07h-9.089a24.836,24.836,0,0,0-2.76.18l-.33-1.11a21.144,21.144,0,0,0,3.15.24h19.05c1.649-1.98,2.009-2.22,2.219-2.22.27,0,.6.24,2.22,1.56.72.571.96.84.96,1.05s-.09.3-.39.3h-12.45v5.07h3.18c1.02-1.26,1.261-1.44,1.5-1.44.3,0,.54.18,1.65,1.11.48.42.66.63.66.87,0,.36-.18.57-.9.96v1.98c0,5.28.15,8.909.15,10.109,0,.841-.509,1.2-1.65,1.2-.81,0-1.109-.269-1.109-1.019v-.87h-9.361Zm-5.159,4.021v.569c0,.93-.54,1.32-1.74,1.32-.87,0-1.26-.3-1.26-1.11,0-1.11.18-5.13.18-15.269a45.2,45.2,0,0,0-.18-4.56c3.48.36,3.96.48,3.96.99,0,.3-.271.51-.96.78V71.454H181.2v-14.4c0-1.26-.06-2.58-.15-4.02,3.21.361,3.99.54,3.99,1.02,0,.3-.18.42-1.05.81v2.94c0,7.83.149,13.2.149,14.969,0,.9-.509,1.26-1.769,1.26-.84,0-1.17-.3-1.17-1.11v-.779Zm8.459-12.09v-5.04h-3.3v5.04Zm-3.3,6.479h3.3V60.745h-3.3ZM175.8,55.015h-3.481v5.04H175.8Zm0,5.73h-3.481v5.789H175.8Z"/><path class="cls-1" d="M204.241,53.694a67.958,67.958,0,0,0-8.729,2.791,4.628,4.628,0,0,0-1.14.69,1.222,1.222,0,0,1-.87.33c-.6.029-1.29-.36-2.281-1.47a3.68,3.68,0,0,1-1.109-2.16c0-.479.12-.93.3-.93.12,0,.21-.03.479.3,1.051,1.08,1.29,1.2,2.191,1.17a39.229,39.229,0,0,0,5.01-.99c3.839-.9,6.839-1.71,9.119-2.369a9.138,9.138,0,0,0,1.65-.571,2.138,2.138,0,0,1,1.14-.27,7.308,7.308,0,0,1,2.76.48c.51.24.96.54.96,1.17,0,.6-.27,1.05-1.11,1.08-.63.06-1.29,0-2.97.15a9.814,9.814,0,0,0-6.87,3.24,8.242,8.242,0,0,0-2.16,5.819,5.312,5.312,0,0,0,2.191,4.47,9.39,9.39,0,0,0,4.8,1.561,5.562,5.562,0,0,1,2.31.419,1.74,1.74,0,0,1,1.17,1.53c0,.81-.54,1.44-1.95,1.44a14.426,14.426,0,0,1-5.82-1.41,7.826,7.826,0,0,1-4.41-6.9,10.767,10.767,0,0,1,1.17-5.04,13.89,13.89,0,0,1,4.17-4.38Zm8.19,4.141a2.248,2.248,0,0,1,1.11,1.8,1.008,1.008,0,0,1-.99,1.05,1.075,1.075,0,0,1-1.02-.69,11.235,11.235,0,0,0-1.89-2.641c-.12-.119-.33-.269-.33-.389s.06-.15.15-.18a1.288,1.288,0,0,1,.48,0A5.856,5.856,0,0,1,212.431,57.835Zm2.79-1.95a1.926,1.926,0,0,1,1.08,1.53,1,1,0,0,1-.93,1.109,1.146,1.146,0,0,1-1.11-.66,7.636,7.636,0,0,0-2.1-2.34c-.12-.089-.36-.239-.36-.359a.181.181,0,0,1,.09-.18.787.787,0,0,1,.48-.03A6.162,6.162,0,0,1,215.221,55.885Z"/><path class="cls-1" d="M243.661,57.774a2.249,2.249,0,0,0-.48,1.17c-.209.991-.33,1.951-.721,3.6a40.126,40.126,0,0,1-1.529,5.22c-.959,2.549-2.1,3.509-3.99,3.509-.69,0-.84-.179-.93-.87a2.537,2.537,0,0,0-.779-1.469c-.6-.51-.99-.871-1.44-1.2-.211-.149-.39-.24-.39-.509,0-.181.15-.21.3-.21a4.216,4.216,0,0,1,.781.24,19.046,19.046,0,0,0,2.73.779c.42,0,.959-.359,1.35-1.41A36.125,36.125,0,0,0,240,61.4a24.582,24.582,0,0,0,.811-4.679c0-.27-.061-.33-.33-.33-.451,0-.9.03-1.35.06-1.381.12-2.851.3-4.621.569a26.6,26.6,0,0,1-3.719,8.46,17.51,17.51,0,0,1-6.75,5.911,2.323,2.323,0,0,1-.929.329c-.241,0-.362-.06-.362-.27,0-.24.151-.269.481-.54a22.493,22.493,0,0,0,5.519-6.21,30.148,30.148,0,0,0,3.061-7.469c-.781.15-2.311.48-3.451.75a3.116,3.116,0,0,0-1.17.48,1.519,1.519,0,0,1-.78.21,3.413,3.413,0,0,1-1.74-1.08,2.726,2.726,0,0,1-.959-1.89c0-.54.09-.9.27-.9s.269.091.42.24a3.622,3.622,0,0,0,2.369,1.17c.39,0,.961-.06,1.711-.12,1.051-.12,2.34-.27,3.75-.45a22.8,22.8,0,0,0,.57-4.291,1.023,1.023,0,0,0-.271-.809,3.113,3.113,0,0,0-.989-.45c-.541-.15-.72-.15-.72-.33,0-.119.15-.3.359-.45a2.018,2.018,0,0,1,1.26-.39,7.132,7.132,0,0,1,2.941.99c.719.42,1.02.72,1.02,1.26a1.1,1.1,0,0,1-.481.929,1.785,1.785,0,0,0-.51.872c-.179.809-.3,1.349-.57,2.459,1.77-.21,3.33-.42,4.68-.57a1.755,1.755,0,0,0,.871-.27,1.179,1.179,0,0,1,.719-.36,2.957,2.957,0,0,1,1.83.959c.871.75,1.26,1.17,1.291,1.561A1.088,1.088,0,0,1,243.661,57.774Z"/><path class="cls-1" d="M256.472,52.675c0-.151.119-.24.3-.24a4.983,4.983,0,0,1,.57.03,10.735,10.735,0,0,1,3.811,1.2,3.565,3.565,0,0,1,2.07,3,1.593,1.593,0,0,1-1.621,1.68,1.562,1.562,0,0,1-1.469-1.11,10.365,10.365,0,0,0-1.26-2.16,7.83,7.83,0,0,0-2.191-2.1C256.533,52.885,256.472,52.8,256.472,52.675Zm4.379,13.619a57.438,57.438,0,0,0,8.31-5.879,63.751,63.751,0,0,0,7.049-7.32.649.649,0,0,1,.391-.27c.211,0,.3.12.3.27a1.032,1.032,0,0,1-.182.509,39.262,39.262,0,0,1-6.238,8.4,68.022,68.022,0,0,1-8.01,7.019,4.816,4.816,0,0,0-.781.72,1.538,1.538,0,0,1-1.2.72c-.631,0-1.02-.27-1.831-1.14-1.289-1.38-1.679-2.16-1.679-2.79s.211-1.139.48-1.139c.151,0,.24.12.479.389.66.691,1.08,1.111,1.381,1.111A3.738,3.738,0,0,0,260.851,66.294Z"/><path class="cls-1" d="M302.222,52.405a1.36,1.36,0,0,0,.809-.42,1.134,1.134,0,0,1,.81-.33,2.431,2.431,0,0,1,1.141.51c1.08.811,1.558,1.41,1.558,1.95a.951.951,0,0,1-.629.87,1.824,1.824,0,0,0-.81.69,60.281,60.281,0,0,1-3.69,5.49c2.01,1.41,2.491,2.55,2.491,3.48a1.425,1.425,0,0,1-1.321,1.469,1.739,1.739,0,0,1-1.291-.75,19.182,19.182,0,0,0-1.5-2.04,30.515,30.515,0,0,1-12.869,8.88,2.509,2.509,0,0,1-.51.12.292.292,0,0,1-.3-.27c0-.15.089-.27.359-.42a38.731,38.731,0,0,0,11.549-9.989,18.374,18.374,0,0,0-3.3-2.25c-.3-.18-.451-.27-.451-.39,0-.21.15-.3.42-.27.211.03.451.06.72.119a17.559,17.559,0,0,1,3.84,1.111,45.844,45.844,0,0,0,3.45-5.73.687.687,0,0,0,.089-.36c0-.06-.058-.12-.3-.09-1.081.15-1.981.39-2.76.54a9.426,9.426,0,0,1-1.471.21,3.771,3.771,0,0,1-1.529-.36,41.224,41.224,0,0,1-4.59,5.4,19.277,19.277,0,0,1-4.109,3.06.905.905,0,0,1-.42.149c-.241,0-.33-.119-.33-.269s.058-.21.238-.391A49.136,49.136,0,0,0,291,58.165a46.27,46.27,0,0,0,3.241-4.769c1.05-1.771,1.32-2.551,1.32-2.941a.849.849,0,0,0-.211-.51,3.682,3.682,0,0,0-1.02-.75c-.209-.12-.3-.18-.3-.3,0-.211.57-.51.99-.51a5.264,5.264,0,0,1,2.7.9c1.049.6,1.439,1.05,1.439,1.53a.826.826,0,0,1-.449.87,2.071,2.071,0,0,0-.631.48c-.179.24-.33.481-.66.99A32.2,32.2,0,0,0,302.222,52.405Z"/><path class="cls-1" d="M319.472,52.675c0-.151.119-.24.3-.24a4.983,4.983,0,0,1,.57.03,10.735,10.735,0,0,1,3.811,1.2,3.565,3.565,0,0,1,2.07,3,1.593,1.593,0,0,1-1.621,1.68,1.562,1.562,0,0,1-1.469-1.11,10.365,10.365,0,0,0-1.26-2.16,7.83,7.83,0,0,0-2.191-2.1C319.533,52.885,319.472,52.8,319.472,52.675Zm4.379,13.619a57.438,57.438,0,0,0,8.31-5.879,63.751,63.751,0,0,0,7.049-7.32.649.649,0,0,1,.391-.27c.211,0,.3.12.3.27a1.032,1.032,0,0,1-.182.509,39.262,39.262,0,0,1-6.238,8.4,68.022,68.022,0,0,1-8.01,7.019,4.816,4.816,0,0,0-.781.72,1.538,1.538,0,0,1-1.2.72c-.631,0-1.02-.27-1.831-1.14-1.289-1.38-1.679-2.16-1.679-2.79s.211-1.139.48-1.139c.151,0,.24.12.479.389.66.691,1.08,1.111,1.381,1.111A3.738,3.738,0,0,0,323.851,66.294Z"/><path class="cls-1" d="M350.312,65.005c-.061.51-.151.989-.24,1.439a14.656,14.656,0,0,1-3.84,7.62c-.09.121-.36-.09-.3-.21a19.893,19.893,0,0,0,2.129-7.56,95.968,95.968,0,0,0,.3-9.749v-1.53a18.727,18.727,0,0,1-2.041,1.62c-.12.09-.33-.12-.241-.24a25.658,25.658,0,0,0,3.391-6.24,16.385,16.385,0,0,0,.99-3.87c3.18.75,3.51.931,3.51,1.351,0,.329-.18.449-1.08.659-.211.511-.451.99-.66,1.44h2.22c.959-1.11,1.2-1.29,1.44-1.29.3,0,.539.18,1.56,1.08.45.42.629.63.629.871,0,.359-.24.509-1.109.75a24.247,24.247,0,0,1-3.061,3.239h2.25c.811-1.05,1.051-1.23,1.291-1.23.3,0,.54.18,1.44.93.389.33.57.54.57.78s-.181.48-.781.84v2.55c0,10.559.031,11.7.031,12.869a2.466,2.466,0,0,1-.81,2.07,3.146,3.146,0,0,1-1.891.51c-.57,0-.689-.12-.779-.84-.151-.929-.571-1.23-2.61-1.89-.15-.06-.15-.36,0-.36,1.469.12,2.25.12,3.27.12.389,0,.48-.089.48-.42V65.005Zm1.56-14.58a19.092,19.092,0,0,1-2.16,3.179c.449.271.9.542,1.321.781h2.009a32.533,32.533,0,0,0,1.469-3.96Zm.6,13.889v-4.5H350.7c-.06,1.861-.15,3.181-.3,4.5Zm-1.74-9.239v1.47c0,.9,0,1.769-.03,2.58h1.77v-4.05Zm5.64,0h-1.92v4.05h1.92Zm0,4.739h-1.92v4.5h1.92Zm11.668,2.071c0,1.319,0,2.67.032,3.989h2.16c1.138-1.59,1.379-1.83,1.59-1.83.269,0,.568.24,1.769,1.351.449.389.66.66.66.87s-.09.3-.39.3h-5.789c.058,3.21.119,5.43.119,6.36,0,.78-.51,1.11-1.651,1.11-.839,0-1.2-.269-1.2-.96,0-.87.061-2.91.09-6.51h-3.779a10.076,10.076,0,0,0-1.741.18l-.33-1.109a8.906,8.906,0,0,0,2.01.239h3.84c0-.689.029-2.7.029-3.989h-2.849a15.789,15.789,0,0,1-3.3,3.149c-.121.09-.391-.09-.3-.21a18.868,18.868,0,0,0,2.1-4.349,11,11,0,0,0,.72-2.88c2.94.78,3.36.96,3.36,1.32,0,.33-.36.6-1.049.63-.361.6-.691,1.14-1.022,1.649h2.34V59.875a27.141,27.141,0,0,0-.09-2.851c2.731.181,3.42.361,3.42.84,0,.271-.148.391-.75.691v2.639h1.651c1.14-1.529,1.41-1.769,1.621-1.769.269,0,.51.21,1.648,1.26.451.39.692.689.692.9s-.092.3-.391.3Zm-1.349-12.9c-.33,4.5-2.369,6.81-7.289,8.459-.151.061-.33-.269-.211-.359,3.361-2.16,4.59-4.17,4.769-8.1h-2.1a7.042,7.042,0,0,0-1.8.241l-.33-1.17a9.62,9.62,0,0,0,2.1.239h7.95c.961-1.05,1.2-1.23,1.439-1.23.3,0,.541.18,1.561.991.451.359.63.569.63.809,0,.21-.089.3-.839.9a20.786,20.786,0,0,1-.782,5.04,2.341,2.341,0,0,1-1.2,1.5,3.669,3.669,0,0,1-1.83.42c-.449,0-.57-.09-.631-.66-.269-1.14-.568-1.38-2.488-1.86-.15-.03-.09-.36.059-.36,1.14.09,2.1.179,2.91.179.57,0,.81-.269.99-1.319a25.442,25.442,0,0,0,.33-3.72Z"/><path class="cls-1" d="M385.142,52.765c1.17-1.59,1.529-1.83,1.74-1.83.27,0,.6.24,1.889,1.291.57.449.81.719.81.929s-.089.3-.39.3h-8.908a11.015,11.015,0,0,0-1.831.18l-.33-1.111a10.024,10.024,0,0,0,2.161.241Zm-3.33,18.809v1.05c0,.78-.539,1.141-1.529,1.141-.811,0-1.17-.271-1.17-.931,0-.93.148-1.89.148-5.67a37.189,37.189,0,0,0-.18-4.079c1.471.66,1.68.75,3.09,1.5h2.91c.961-1.141,1.2-1.32,1.44-1.32.3,0,.541.179,1.441.99.389.359.629.6.629.84s-.15.389-.75.84v1.019c0,2.43.061,4.17.061,4.71,0,.81-.541,1.14-1.561,1.14-.689,0-1.019-.27-1.019-.93v-.3Zm2.459-22.829c1.2-1.529,1.56-1.769,1.771-1.769.27,0,.6.24,1.8,1.259.51.42.75.69.75.9s-.09.3-.389.3h-6.96a9.737,9.737,0,0,0-1.709.18l-.331-1.11a9.078,9.078,0,0,0,2.04.24Zm-.059,8.01c1.139-1.44,1.5-1.68,1.709-1.68.27,0,.6.24,1.74,1.17.51.42.75.69.75.9s-.089.3-.39.3h-6.959a7.491,7.491,0,0,0-1.5.181l-.33-1.11a7.355,7.355,0,0,0,1.83.24Zm-.031,3.87c1.111-1.47,1.471-1.71,1.68-1.71.271,0,.6.24,1.74,1.2.51.42.75.691.75.9s-.09.3-.389.3h-6.9a7.188,7.188,0,0,0-1.471.181l-.33-1.11a7.361,7.361,0,0,0,1.83.24Zm1.141,4.649h-3.51v5.61h3.51Zm10.589-2.1a15.007,15.007,0,0,1-1.38,4.949c-1.26,2.61-3.42,4.23-6.93,5.46-.149.06-.27-.3-.149-.39a11.3,11.3,0,0,0,5.01-6.3,15.994,15.994,0,0,0,.69-5.46c3.33.45,3.66.54,3.66.96C396.812,62.694,396.572,62.874,395.911,63.175Zm4.049,6.989c0,.6.241.75,1.321.75a2.107,2.107,0,0,0,1.711-.51c.509-.57.929-1.74,1.529-3.96.029-.15.359-.059.359.09-.029.99-.09,2.311-.09,2.971,0,.6.032.6.51.869a1.157,1.157,0,0,1,.66,1.11,1.462,1.462,0,0,1-1.138,1.41,10.425,10.425,0,0,1-3.571.42c-2.791,0-4.019-.69-4.019-2.49,0-.75.09-1.44.09-4.439v-5.91h-4.44v.57c0,.689-.541,1.079-1.59,1.079-.81,0-1.14-.27-1.14-.9,0-1.17.09-2.25.09-6.9,0-.96-.03-1.95-.12-2.94a24.862,24.862,0,0,1,3,1.41h4.532a28.009,28.009,0,0,0,1.2-3.33,26.147,26.147,0,0,0,.66-2.85c3.119,1.17,3.66,1.441,3.66,1.89,0,.391-.33.54-1.2.631a21.644,21.644,0,0,1-3.389,3.659h2.34c.959-1.021,1.2-1.2,1.44-1.2.3,0,.541.179,1.529.99.422.36.6.54.6.78s-.211.45-.692.81v1.14c0,2.969.121,4.95.121,5.61,0,.75-.6,1.109-1.65,1.109-.779,0-1.141-.359-1.141-.93v-.629h-1.17ZM394.382,52.2c-.842,0-.99-.21-1.381-1.98a7.026,7.026,0,0,0-1.32-2.94c-.09-.12.09-.389.24-.33,2.61.87,4.051,2.13,4.051,3.54A1.6,1.6,0,0,1,394.382,52.2Zm6.748,1.29h-8.248v6.3h8.248Z"/><path class="cls-1" d="M425.4,49.705c0,1.08-.66,4.14-.961,6.36a59.273,59.273,0,0,0-.629,7.41,18.7,18.7,0,0,0,.09,1.95c0,.269-.241.539-.961.539-.209,0-.3-.119-.3-.36a18.407,18.407,0,0,0,.09-1.95,54.411,54.411,0,0,0-.66-7.38c-.3-2.069-1.02-5.459-1.02-6.569,0-1.14.66-1.95,2.19-1.95C424.742,47.755,425.4,48.505,425.4,49.705Zm-.121,20.94a2.085,2.085,0,1,1-2.069-2.1A2.113,2.113,0,0,1,425.281,70.645Z"/></svg>