<svg id="レイヤー_1" data-name="レイヤー 1" xmlns="http://www.w3.org/2000/svg" viewBox="0 0 600 80"><defs><style>.cls-1{fill:#fff;}.cls-2{fill:#525a70;}</style></defs><rect class="cls-1" x="0.5" y="0.5" width="599" height="79"/><path class="cls-2" d="M599,1V79H1V1H599m1-1H0V80H600V0Z"/><path class="cls-2" d="M57.466,50.191c-2.255,7.176-8.235,11.179-17.482,11.685-.23,0-.46-.552-.23-.6,5.842-1.656,9.983-4.739,12.053-8.695a13.4,13.4,0,0,0,1.426-5.7c4.923,1.149,5.8,1.564,5.8,2.069C59.03,49.5,58.8,49.777,57.466,50.191Zm8.649,4.877c0,2.253.184,2.346,4.416,2.346,3.911,0,5.336-.23,6.165-1.15.506-.553.874-.828,2.392-5.2.092-.23.6-.138.6.091-.138,2.715-.184,3.774-.184,4.372,0,.414.092.551.782.919a1.96,1.96,0,0,1,1.1,1.7c0,1.012-.644,1.749-2.07,2.254-1.748.6-4.739.829-9.247.829-6.855,0-8.373-.737-8.373-4,0-.644.092-1.611.092-3.819V46.372H51.531v.782c0,1.1-.828,1.657-2.714,1.657-1.381,0-1.932-.414-1.932-1.518,0-2.439.23-4.877.23-14.676,0-4.048-.047-8.1-.23-12.145A26.341,26.341,0,0,1,51.9,22.863H68.553c1.656-1.794,2.024-2.07,2.392-2.07.46,0,.874.276,2.622,1.656.782.645,1.058.967,1.058,1.334,0,.461-.276.784-1.288,1.611v3.5c0,9.339.277,15.733.277,17.849,0,1.2-.921,1.84-2.531,1.84-1.426,0-2.162-.459-2.162-1.426v-.782H66.115Zm2.806-31.146H51.531v6.211h17.39Zm0,7.269H51.531v6.3h17.39Zm0,7.361H51.531v6.763h17.39Z"/><path class="cls-2" d="M114.553,29.948a57.093,57.093,0,0,0,2.944-5.337,37.172,37.172,0,0,0,1.656-4.185c4.14,1.886,5.475,2.668,5.475,3.266,0,.552-.553.875-2.117.875a44.04,44.04,0,0,1-6.349,5.381h7.131c1.886-2.024,2.255-2.3,2.623-2.3.46,0,.782.275,2.9,2.392.92.966,1.2,1.334,1.2,1.7,0,.737-.23.875-1.978,1.013-.736.046-.782.046-1.1.368a24.249,24.249,0,0,1-4.325,2.852c-.184.093-.506-.138-.414-.367a25.974,25.974,0,0,0,1.472-4.6H94.4c.322,3.91-1.1,6.349-3.588,6.349a2.307,2.307,0,0,1-2.393-2.439,2.231,2.231,0,0,1,1.426-2.208c2.439-1.2,3.037-2.116,3.451-5.015.046-.23.414-.276.46-.045a16.09,16.09,0,0,1,.506,2.3Zm-8.189,15.228a28.26,28.26,0,0,0-.139-3.45c1.611.276,2.807.46,3.681.6a29.327,29.327,0,0,0,4.692-5.291H99.554a9.882,9.882,0,0,0-2.622.369l-.506-1.794a12.612,12.612,0,0,0,2.991.367H114.69c1.886-1.7,2.255-1.978,2.623-1.978.46,0,.828.277,2.622,1.886.782.69,1.058,1.013,1.058,1.381,0,.643-.506.874-2.254.92a44.735,44.735,0,0,1-7.315,4.463c.874.229.874.413.874.735,0,.46-.414.782-1.61,1.334v1.427h11.225c2.347-2.9,2.9-3.267,3.221-3.267.414,0,.919.368,3.358,2.254,1.1.921,1.472,1.288,1.472,1.61s-.138.46-.6.46H110.688v4.877c.046,2.531.138,3.727.138,5.475a4.9,4.9,0,0,1-.828,2.99c-.828,1.151-2.346,1.7-4.647,1.7-.874,0-.966-.183-1.15-1.2-.23-1.656-1.564-2.438-5.245-3.358-.23-.046-.183-.645.047-.645,2.53.185,4.922.322,6.578.322.553,0,.783-.183.783-.689V47.2H91.826a17.912,17.912,0,0,0-2.9.277l-.507-1.7a14.7,14.7,0,0,0,3.221.368h14.722ZM99.739,29.4c-1.243,0-1.7-.6-2.208-2.9a10.534,10.534,0,0,0-2.485-4.83.3.3,0,0,1,.276-.461c4.876,1.381,6.9,3.083,6.9,5.522A2.521,2.521,0,0,1,99.739,29.4Zm9.661-.783c-1.334,0-1.657-.46-2.117-2.944a10.646,10.646,0,0,0-2.484-5.106c-.138-.185,0-.506.23-.414,4.831,1.61,6.947,3.4,6.947,5.934A2.452,2.452,0,0,1,109.4,28.614Z"/><path class="cls-2" d="M159.954,28.154a49.643,49.643,0,0,0,2.208-4.738,25.077,25.077,0,0,0,1.013-3.589c3.91,1.2,5.888,2.117,5.888,2.714,0,.645-.6.921-2.07.921a37.867,37.867,0,0,1-5.2,4.692h8.6c2.347-2.668,2.9-3.036,3.221-3.036.414,0,.92.368,3.128,2.117,1.013.828,1.38,1.2,1.38,1.517s-.137.461-.6.461H140.862a24.133,24.133,0,0,0-3.358.275l-.506-1.7a19.877,19.877,0,0,0,3.772.368ZM143.945,49.087c.045,5.566.091,8.419.091,11.271,0,1.242-.782,1.7-2.484,1.7-1.426,0-1.978-.368-1.978-1.473,0-2.53.23-5.106.23-15.365,0-4.417,0-8.834-.138-13.3a21.022,21.022,0,0,1,4.6,2.116h7.453c1.519-1.748,1.887-2.024,2.254-2.024.461,0,.829.276,2.439,1.564.69.6.966.92.966,1.288s-.276.645-1.242,1.288v3.589c0,14.768.138,16.838.138,18.264a3.684,3.684,0,0,1-1.15,2.944,4.913,4.913,0,0,1-3.313.966c-.506,0-.69-.229-.782-.874-.276-1.563-.736-2.3-4.278-3.358-.23-.046-.184-.552.046-.552,1.748.092,3.22.183,4.738.183.369,0,.46-.137.46-.735v-7.5ZM152,35.1h-8.05v5.8H152Zm0,6.854h-8.05v6.072H152Zm-.874-14.307c-1.2,0-1.656-.506-2.024-2.117a11.772,11.772,0,0,0-2.208-4.877c-.138-.183.092-.505.322-.46,4.279,1.1,6.257,2.668,6.257,4.923A2.375,2.375,0,0,1,151.121,27.649Zm14.17,11.178c0,6.579.092,11.088.092,12.56,0,1.334-.828,1.887-2.622,1.887-1.427,0-1.749-.277-1.749-1.748,0-1.381.092-5.522.092-13.8a39.476,39.476,0,0,0-.184-4.095c5.061.645,5.935.874,5.935,1.473,0,.459-.506.828-1.564,1.242Zm4.969-2.576a27.965,27.965,0,0,0-.23-4c5.52.644,5.98.782,5.98,1.564,0,.461-.46.782-1.518,1.2v12.1c0,2.392.184,7.867.184,10.489a4.27,4.27,0,0,1-.69,2.484,4.325,4.325,0,0,1-3.911,1.748c-1.058,0-1.1-.092-1.334-1.15-.322-1.426-1.15-2.208-4.968-3.266-.23-.047-.23-.553,0-.553,1.978.139,4.186.231,5.336.231,1.012,0,1.151-.092,1.151-.69Z"/><path class="cls-2" d="M195.419,51.3a10.257,10.257,0,0,0-.277,2.576c0,.966.277,2.162.277,2.622.046,1.288-.277,2.071-1.288,2.071-1.335,0-1.749-.46-2.991-2.853-.92-1.794-1.518-5.244-1.518-8.6A55.693,55.693,0,0,1,191.6,34.181a27.956,27.956,0,0,0,.92-4.693,6.131,6.131,0,0,0-1.2-3.634.7.7,0,0,1-.184-.46c0-.138.23-.368.644-.368a4.429,4.429,0,0,1,2.208,1.15,10.2,10.2,0,0,1,2.117,2.761,4.986,4.986,0,0,1,.782,2.53,2.41,2.41,0,0,1-.644,1.656,9.756,9.756,0,0,0-1.426,2.53,28.129,28.129,0,0,0-2.347,9.845c0,2.761.138,4,.506,4.647a.192.192,0,0,0,.368,0c1.427-2.714,2.853-5.8,4.141-8.465.184-.414.414-.552.644-.552s.46.276.23.966C197.167,45.729,195.925,49.271,195.419,51.3Zm7.315-5.429a7.336,7.336,0,0,0,.551,2.945c.783,1.84,2.945,3.4,7.868,3.4a27.613,27.613,0,0,0,5.98-.414,5.193,5.193,0,0,1,1.886-.506,7.42,7.42,0,0,1,2.669.736,1.932,1.932,0,0,1,1.242,1.748,1.889,1.889,0,0,1-1.426,1.794c-1.013.369-3.267.783-7.729.783-7.821,0-12.376-3.221-12.376-8.879a10.548,10.548,0,0,1,1.151-5.015c.23-.414.321-.506.5-.506s.276.184.276.46A15.945,15.945,0,0,0,202.734,45.866Zm1.241-12.376a3.78,3.78,0,0,1-.965.37c-.369,0-.415-.139-.415-.415q0-.276.553-.69a21.985,21.985,0,0,1,5.75-3.036,17.148,17.148,0,0,1,5.935-.967c4.186,0,5.474,1.473,5.474,2.715,0,1.288-.828,1.7-2.806,1.7-.6,0-1.564-.138-2.162-.138a11.553,11.553,0,0,0-2.714.322c-1.335.368-2.485.874-5.383,3.266a.892.892,0,0,1-.6.277.291.291,0,0,1-.322-.323c0-.137.046-.276.322-.6.736-.92,1.748-1.932,3.174-3.588A13.963,13.963,0,0,0,203.975,33.49Z"/><path class="cls-2" d="M242.753,41.819a1.845,1.845,0,0,1-.138.689,10.913,10.913,0,0,0-.782,4.232,4.787,4.787,0,0,0,2.438,4.233c2.3,1.242,5.613,1.656,8.925,1.656a28.216,28.216,0,0,0,8.1-.966,14.254,14.254,0,0,1,2.9-.368c2.715,0,3.634,1.426,3.634,2.439,0,.965-1.149,2.116-2.713,2.391a42.191,42.191,0,0,1-4.739.6c-2.255.183-4.508.229-5.935.229a24.885,24.885,0,0,1-8.695-1.517,9.97,9.97,0,0,1-4.278-3.221,6.748,6.748,0,0,1-1.38-4.646,10.551,10.551,0,0,1,1.885-5.706c.185-.275.369-.414.553-.414S242.753,41.634,242.753,41.819Zm.552-14.723c.966,1.289,2.99,1.932,7.223,1.932A24.331,24.331,0,0,0,258.3,27.74a8.288,8.288,0,0,1,1.7-.23,6.922,6.922,0,0,1,1.886.23c1.38.369,2.254.92,2.3,2.071.046.92-.276,1.38-1.242,1.748a15.387,15.387,0,0,1-3.036.414,37.056,37.056,0,0,0-6.809,1.242,28.345,28.345,0,0,0-5.981,2.53,6.967,6.967,0,0,1-1.472.737c-.23,0-.322-.046-.322-.277,0-.275,1.288-1.334,4.279-3.726a9.657,9.657,0,0,1-5.015-1.794,6.127,6.127,0,0,1-2.162-3.542c0-.323.138-.461.368-.461C242.983,26.682,243.167,26.912,243.305,27.1Zm25.533-1.38c1.242.966,1.7,1.794,1.7,2.761a1.544,1.544,0,0,1-1.518,1.609,1.649,1.649,0,0,1-1.564-1.058,17.191,17.191,0,0,0-2.9-4.047c-.184-.185-.506-.414-.506-.6s.092-.229.23-.276a1.976,1.976,0,0,1,.736,0A8.989,8.989,0,0,1,268.838,25.716Zm4.232-3.082a2.955,2.955,0,0,1,1.656,2.347,1.542,1.542,0,0,1-1.426,1.7,1.76,1.76,0,0,1-1.7-1.012,11.674,11.674,0,0,0-3.22-3.588c-.184-.138-.553-.369-.553-.553a.277.277,0,0,1,.139-.275,1.2,1.2,0,0,1,.736-.047A9.45,9.45,0,0,1,273.07,22.634Z"/><path class="cls-2" d="M307.063,56.631c0,1.2.92,1.381,5.2,1.381,2.668,0,4.048,0,5.152-.506,1.288-.6,1.886-1.8,3.267-5.383.092-.23.6-.138.6.092-.046.967-.138,2.53-.138,3.221,0,.782.046.92.782,1.334a1.778,1.778,0,0,1,.966,1.794c0,1.335-.92,2.208-3.175,2.714a39.491,39.491,0,0,1-7.774.552c-7.362,0-8.925-.782-8.925-4.324V53.043h-7.592c4.233,1.242,4.739,1.61,4.739,2.07,0,.6-.644.92-1.84.966-3.313,4.463-8.512,6.3-16.885,6.4-.23,0-.23-.553,0-.6,4.555-1.057,7.775-2.53,10.075-4.462a10.342,10.342,0,0,0,3.037-4.371h-2.576c0,.967-.782,1.426-2.116,1.426-1.289,0-1.933-.321-1.933-1.287,0-1.656.23-3.681.23-10.49,0-1.748-.046-3.5-.138-5.29,1.978.828,2.3.965,4.371,1.885H310.7c1.517-1.7,1.885-1.977,2.253-1.977.46,0,.829.275,2.439,1.7.69.643.966.966.966,1.334,0,.46-.322.782-1.288,1.38V43.52c0,4.739.184,8.1.184,9.155,0,1.242-.874,1.7-2.53,1.7-1.1,0-1.656-.367-1.656-1.334h-4Zm-9.615-30.225c1.058-1.334,1.425-1.61,1.793-1.61.46,0,.829.276,2.025,1.242.506.414.782.737.782,1.105,0,.321-.138.459-.874,1.057v.828c0,1.38.046,2.163.046,2.393,0,1.058-.644,1.426-2.3,1.426-.921,0-1.335-.322-1.335-1.058h-2.438v3.634h2.346c1.473-1.7,2.025-2.07,2.347-2.07.414,0,.966.368,2.484,1.472.691.506,1.058.874,1.058,1.2s-.138.46-.6.46h-15.32v.689c0,1.013-.828,1.473-2.3,1.473-1.2,0-1.748-.414-1.748-1.38,0-1.7.138-3.451.138-10.4q0-3.519-.138-7.039a28.64,28.64,0,0,1,4.508,2.393h9.017c1.886-2.208,2.255-2.484,2.623-2.484.46,0,.874.276,2.76,1.7.874.689,1.151,1.011,1.151,1.38,0,.322-.185.46-.691.46h-7.637v3.128Zm-5.843-3.128h-4.141v3.128h4.141Zm-4.141,7.453h10.121V27.464H287.464Zm4.141,4.692V31.789h-4.141v3.634Zm19.461,4.923H291.973v3.036h19.093Zm0,4.1H291.973v3.036h19.093Zm0,4.094H291.973v3.45h19.093Zm-3.175-21.347a19.726,19.726,0,0,1-5.429,5.245c-.183.137-.506-.138-.368-.322a27.758,27.758,0,0,0,3.635-7.407,25.065,25.065,0,0,0,1.1-4.923c4.048,1.012,5.29,1.518,5.29,2.117,0,.46-.46.69-1.656.874-.689,1.334-1.334,2.438-1.886,3.358h6.992c2.071-2.3,2.624-2.668,2.945-2.668.414,0,.967.368,2.944,1.886.874.69,1.242,1.058,1.242,1.381s-.137.459-.6.459Zm6.579,5.337c2.024-2.392,2.576-2.76,2.9-2.76.414,0,.92.368,2.806,1.931.828.691,1.2,1.105,1.2,1.427s-.137.46-.6.46H309.225a17.31,17.31,0,0,0-2.852.277l-.507-1.7a15.8,15.8,0,0,0,3.359.369Z"/><path class="cls-2" d="M352.51,24.888A1.786,1.786,0,0,0,352,23.83a6.9,6.9,0,0,0-1.242-1.1c-.23-.138-.414-.277-.414-.552,0-.506.828-.6,1.7-.6,1.748,0,3.313,1.105,4.831,2.9a3.849,3.849,0,0,1,1.151,2.576,1.831,1.831,0,0,1-1.243,1.7c-1.242.461-2.392,1.013-5.474,3.5-2.393,1.932-6.165,5.015-7.913,6.716-.645.645-1.151,1.242-1.151,1.519,0,.46.277.69.6,1.058a17.262,17.262,0,0,0,2.438,1.932c4.877,3.312,9.293,6.762,11.318,9.109,2.208,2.576,2.668,3.91,2.668,5.061a3.314,3.314,0,0,1-.506,2.07,2.029,2.029,0,0,1-1.886.736c-.506,0-1.38-.6-2.438-2.255-2.761-4.324-6.9-8.924-13.02-13.939-1.472-1.2-1.978-2.254-1.978-3.266a3.512,3.512,0,0,1,.92-2.438c.644-.828,2.346-2.577,6.119-6.3,1.2-1.2,2.806-2.9,4.738-5.106C352.281,25.946,352.51,25.44,352.51,24.888Z"/><path class="cls-2" d="M400.074,29.12a4.055,4.055,0,0,1,2.071.414,1.546,1.546,0,0,1,1.012,1.38c0,.691-.46,1.289-1.426,1.656a79.075,79.075,0,0,1-7.638,2.347c-.735,1.933-2.208,6.073-3.22,8.833-1.1,2.99-2.715,7.131-5.152,13.342-.69,1.748-1.519,2.346-2.669,2.346a2.223,2.223,0,0,1-1.334-.69,2.045,2.045,0,0,1-.506-1.656,8.022,8.022,0,0,1,1.242-3.221,162.031,162.031,0,0,0,8.189-18.355,28.639,28.639,0,0,1-5.015.643,5.016,5.016,0,0,1-4.416-1.794,4.371,4.371,0,0,1-1.242-2.392c0-.277.092-.414.229-.414.277,0,.46.183.783.414a5.617,5.617,0,0,0,3.772,1.2,29.442,29.442,0,0,0,7.039-1.1,30.546,30.546,0,0,0,1.426-6.027,1.6,1.6,0,0,0-.966-1.61,10.488,10.488,0,0,0-1.7-.552c-.322-.093-.506-.184-.506-.368,0-.276.138-.506.644-.782a4.646,4.646,0,0,1,2.162-.552,8.8,8.8,0,0,1,4.739,1.84,1.733,1.733,0,0,1,.69,1.288,2.271,2.271,0,0,1-.644,1.38c-.828.828-1.15,1.7-2.208,4.509a10.709,10.709,0,0,0,2.806-1.334A3.952,3.952,0,0,1,400.074,29.12ZM399.2,48.305a8.649,8.649,0,0,0-.414,2.806c0,2.485,2.162,4.371,6.993,4.371a18.468,18.468,0,0,0,4.646-.369,6.819,6.819,0,0,1,2.393-.322,5.678,5.678,0,0,1,2.3.6,2.167,2.167,0,0,1,1.151,1.931c0,1.2-1.1,1.749-2.485,1.979a36.092,36.092,0,0,1-5.06.229,23.235,23.235,0,0,1-6.118-.781c-3.589-1.012-5.521-3.589-5.521-6.533a8.4,8.4,0,0,1,1.288-4.463c.23-.414.6-.781.828-.781s.276.138.276.367A5.284,5.284,0,0,1,399.2,48.305Zm4.876-9.753a15.947,15.947,0,0,0-5.244,1.794.642.642,0,0,1-.414.138.366.366,0,0,1-.414-.415,1.1,1.1,0,0,1,.321-.6,15.786,15.786,0,0,1,4.234-2.807,16.1,16.1,0,0,1,5.842-1.1,12.976,12.976,0,0,1,5.107,1.012,2.339,2.339,0,0,1,1.564,2.254,1.475,1.475,0,0,1-1.611,1.38,8.063,8.063,0,0,1-1.794-.229,10.616,10.616,0,0,0-1.7-.138c-1.15,0-3.174.736-6.486,2.622a1.037,1.037,0,0,1-.691.23c-.229,0-.183-.184-.183-.322.046-.322,2.254-1.978,4.416-3.864A12.661,12.661,0,0,0,404.076,38.552Zm7.269-12.606c1.242.966,1.7,1.794,1.7,2.76a1.545,1.545,0,0,1-1.517,1.611,1.649,1.649,0,0,1-1.565-1.059,17.216,17.216,0,0,0-2.9-4.048c-.184-.184-.506-.414-.506-.6s.092-.229.23-.275a1.976,1.976,0,0,1,.736,0A8.967,8.967,0,0,1,411.345,25.946Zm4.417-2.852a2.955,2.955,0,0,1,1.656,2.346,1.543,1.543,0,0,1-1.427,1.7,1.762,1.762,0,0,1-1.7-1.013,11.687,11.687,0,0,0-3.219-3.589c-.185-.138-.553-.367-.553-.552a.281.281,0,0,1,.139-.276,1.2,1.2,0,0,1,.736-.045A9.456,9.456,0,0,1,415.762,23.094Z"/><path class="cls-2" d="M453.528,30.133a6.352,6.352,0,0,0,1.885-1.105,3.536,3.536,0,0,1,2.623-.828c2.024,0,2.668.966,2.668,1.886,0,.645-.46,1.289-2.484,2.025-1.794.644-4.187,1.518-7.223,2.484a48.253,48.253,0,0,0,3.681,6.809,9.382,9.382,0,0,0,2.622,2.852c.782.645,1.15,1.7,1.15,3.5,0,1.656-.506,2.209-1.7,2.209-.736,0-1.289-.322-2.53-1.656-1.978-2.07-6.4-3.359-9.109-3.359-2.577,0-4.647.46-6.074,1.564a4.494,4.494,0,0,0-1.839,3.405c0,2.116,1.2,3.359,3.358,4.279,1.933.828,4.278,1.1,8.189,1.15a8.584,8.584,0,0,0,1.242-.093A5.858,5.858,0,0,1,451,55.159a6.437,6.437,0,0,1,3.221.874,2.339,2.339,0,0,1,1.334,1.933c0,.966-.874,2.162-4.187,2.162-4.785,0-9.109-.736-12.191-2.438-2.669-1.472-4.646-3.956-4.646-6.9a7.071,7.071,0,0,1,4.462-6.348,17.843,17.843,0,0,1,6.716-1.381,48.222,48.222,0,0,1,6.625.552,72.183,72.183,0,0,1-4.094-8.235,39.541,39.541,0,0,1-8.143,1.2,9.34,9.34,0,0,1-4.141-.643,9.013,9.013,0,0,1-3.634-2.991,1.964,1.964,0,0,1-.506-.874.406.406,0,0,1,.368-.414c.23,0,.552.322.966.6a8.906,8.906,0,0,0,5.2,1.426,42.9,42.9,0,0,0,8.741-1.334c-.553-1.656-1.15-3.589-2.024-6.119-.368-1.012-.691-1.334-1.2-1.518a4.813,4.813,0,0,0-1.334-.23h-.874c-.276,0-.322-.184-.322-.368a2.133,2.133,0,0,1,.737-1.243,2.649,2.649,0,0,1,2.162-.874,7.8,7.8,0,0,1,4.186,1.38,1.97,1.97,0,0,1,.92,1.519,2.053,2.053,0,0,1-.23.828,4.247,4.247,0,0,0-.138,1.334,19.684,19.684,0,0,0,.92,4.417A28.246,28.246,0,0,0,453.528,30.133Z"/><path class="cls-2" d="M490.28,49.271a16.125,16.125,0,0,0-.6,2.438A2.768,2.768,0,0,0,490,52.951a4.242,4.242,0,0,1,.736,1.979,1.772,1.772,0,0,1-1.749,1.886,6.471,6.471,0,0,1-4.416-1.979,15.345,15.345,0,0,1-4.785-9.017,42.981,42.981,0,0,1-.6-7.544c0-1.979.091-4.141,0-6.4-.046-1.012-.414-1.978-1.886-3.451-.231-.23-.322-.23-.322-.506,0-.367.183-.46.965-.46a5.784,5.784,0,0,1,3.313,1.656c1.656,1.38,2.622,2.761,2.622,4.049a3.215,3.215,0,0,1-.414,1.794,22.646,22.646,0,0,0-.782,6.625,17.915,17.915,0,0,0,1.012,6.44c.506,1.334,1.243,2.255,2.025,2.255a1.7,1.7,0,0,0,1.1-.828c1.427-1.978,2.622-4.094,5.153-8.051.368-.552.69-.92.921-.92s.46.092.46.322a1.916,1.916,0,0,1-.185.736A64.233,64.233,0,0,0,490.28,49.271Zm15.963-14.538a15.86,15.86,0,0,1,6.165,6.165,14.2,14.2,0,0,1,1.657,6.026,5.3,5.3,0,0,1-.691,3.312,1.77,1.77,0,0,1-1.609.967,1.674,1.674,0,0,1-1.7-.874c-.828-1.288-1.886-2.07-4.83-2.3-.552-.045-.691-.183-.691-.459s.414-.369.874-.506a31.922,31.922,0,0,0,3.221-1.105,1.059,1.059,0,0,0,.736-1.1,12.924,12.924,0,0,0-2.208-5.842,15.515,15.515,0,0,0-4.785-4.693c-.322-.23-.6-.368-.6-.644,0-.23.183-.322.414-.322A10.2,10.2,0,0,1,506.243,34.733Z"/><path class="cls-2" d="M547.045,24.934c0,1.656-1.013,6.348-1.472,9.754a90.9,90.9,0,0,0-.966,11.363,29.394,29.394,0,0,0,.137,2.99c0,.414-.368.828-1.471.828-.323,0-.461-.184-.461-.552a27.582,27.582,0,0,0,.138-2.991,83.285,83.285,0,0,0-1.012-11.317c-.46-3.174-1.564-8.373-1.564-10.075,0-1.748,1.012-2.99,3.359-2.99C546.032,21.944,547.045,23.094,547.045,24.934Zm-.184,32.111a3.2,3.2,0,1,1-3.174-3.22A3.242,3.242,0,0,1,546.861,57.045Z"/></svg>