<?xml version="1.0" encoding="UTF-8"?>
<svg id="_レイヤー_2" data-name="レイヤー 2" xmlns="http://www.w3.org/2000/svg" viewBox="0 0 397.45 257.6">
  <defs>
    <style>
      .cls-1, .cls-2, .cls-3, .cls-4 {
        fill: none;
        stroke: #df1614;
        stroke-linecap: round;
        stroke-linejoin: round;
        stroke-width: 3.4px;
      }

      .cls-2 {
        stroke-dasharray: 4.62 6.97;
      }

      .cls-3 {
        stroke-dasharray: 3.5 5.28;
      }

      .cls-5 {
        fill: #fff;
      }

      .cls-6 {
        fill: #df1614;
      }

      .cls-4 {
        stroke-dasharray: 4.71 7.11;
      }
    </style>
  </defs>
  <g id="_文字" data-name="文字">
    <g>
      <g>
        <g>
          <polygon class="cls-6" points="0 256.42 140.59 256.42 161.36 227.15 140.59 197.89 0 197.89 0 256.42"/>
          <g>
            <path class="cls-5" d="M14.81,207.46c.42.01.82.02,1.19.03.37,0,.7.01.97.01h11.22c.26,0,.57,0,.93-.01.36,0,.72-.02,1.09-.03-.01.31-.02.64-.03.99,0,.35-.01.68-.01.99v10c0,.2,0,.46.01.77,0,.31.01.61.01.92s0,.57.01.8c0,.22,0,.34,0,.36h-2.81s0-.19.01-.5c0-.31.01-.67.02-1.09,0-.42.01-.82.01-1.18v-9.4h-9.85v10.23c0,.31,0,.6.01.89s.01.53.01.72v.34h-2.82s0-.14.01-.35.01-.46.02-.75c0-.3.01-.6.02-.92,0-.31.01-.59.01-.84v-10.96c0-.37-.01-.7-.04-.99ZM28.46,218.55v2.61h-12.26v-2.61h12.26Z"/>
            <path class="cls-5" d="M34.52,212.48c.24.01.56.03.94.05.38.02.78.04,1.19.05.41.01.8.02,1.15.02h10.96c.48,0,.92-.02,1.35-.05.42-.03.77-.06,1.04-.07v3.2c-.23-.01-.58-.03-1.04-.06-.46-.03-.91-.04-1.35-.04h-10.96c-.58,0-1.18.01-1.79.03-.61.02-1.11.04-1.49.07v-3.2Z"/>
            <path class="cls-5" d="M55.41,220c1.06-.15,2.06-.36,3-.63s1.81-.58,2.61-.94c.8-.35,1.54-.72,2.2-1.1,1.16-.69,2.22-1.48,3.18-2.37.97-.88,1.81-1.81,2.53-2.76.72-.96,1.29-1.89,1.71-2.8l1.59,2.88c-.52.91-1.15,1.82-1.91,2.73s-1.61,1.78-2.56,2.6c-.95.82-1.98,1.56-3.08,2.21-.69.42-1.44.82-2.24,1.19-.8.37-1.65.71-2.54,1-.89.29-1.82.52-2.78.68l-1.71-2.69ZM57.96,206.42c.35.24.77.54,1.24.9.48.35.97.74,1.48,1.15.51.42.99.82,1.44,1.21.45.4.82.75,1.1,1.06l-2.08,2.12c-.26-.29-.6-.63-1.02-1.02-.42-.39-.88-.8-1.37-1.22-.49-.42-.97-.82-1.45-1.2-.48-.38-.9-.7-1.26-.96l1.92-2.04Z"/>
            <path class="cls-5" d="M79.01,219c.42.67,1.02,1.16,1.78,1.47.77.31,1.69.49,2.76.53.6.03,1.31.04,2.14.05.83,0,1.7,0,2.61-.01.91-.01,1.81-.04,2.68-.08.88-.04,1.66-.09,2.36-.14-.1.19-.2.44-.31.73-.11.3-.2.6-.29.92-.08.31-.14.59-.18.84-.63.04-1.33.07-2.11.09-.78.02-1.59.03-2.43.04-.84,0-1.65,0-2.43-.01-.78-.01-1.48-.03-2.09-.06-1.26-.05-2.34-.25-3.23-.58-.89-.33-1.68-.89-2.36-1.68-.44.38-.88.77-1.34,1.18-.46.41-.96.83-1.5,1.26l-1.2-2.55c.45-.29.92-.6,1.43-.94.5-.34.99-.69,1.45-1.06h2.24ZM74.34,206.52l1.82-1.45c.41.27.83.59,1.26.96.44.37.84.74,1.2,1.11s.67.72.9,1.05l-1.96,1.61c-.19-.33-.46-.68-.82-1.07s-.74-.78-1.16-1.16c-.42-.39-.84-.74-1.24-1.05ZM79.01,212.54v7.53h-2.41v-5.26h-2.26v-2.26h4.67ZM81.15,205.4h2.37v4.79c0,.73-.03,1.53-.09,2.4-.06.86-.17,1.74-.34,2.62-.16.88-.4,1.74-.72,2.58-.32.84-.74,1.59-1.27,2.25-.12-.14-.31-.29-.56-.46-.25-.17-.51-.34-.79-.5-.27-.16-.5-.28-.69-.35.49-.61.87-1.28,1.15-2.01.28-.73.49-1.47.62-2.23.14-.76.22-1.51.27-2.25.04-.74.06-1.44.06-2.09v-4.75ZM89.52,209.58h.47l.43-.08,1.57.51c-.29,1.39-.68,2.64-1.19,3.74-.51,1.11-1.12,2.09-1.84,2.94s-1.52,1.59-2.42,2.21c-.9.63-1.88,1.15-2.94,1.57-.1-.22-.22-.46-.38-.71-.16-.26-.32-.51-.5-.75-.18-.25-.35-.45-.51-.61.92-.3,1.78-.71,2.57-1.22.79-.52,1.5-1.13,2.13-1.85.63-.71,1.17-1.52,1.62-2.42.45-.9.77-1.88.98-2.94v-.39ZM82.34,205.4h10.12v2.26h-10.12v-2.26ZM82.62,209.58h7.49v2.16h-7.49v-2.16ZM85.46,211.13c.6,1.79,1.54,3.33,2.83,4.59s2.95,2.16,4.99,2.69c-.18.15-.36.35-.56.6-.2.25-.39.51-.57.78s-.33.51-.44.74c-1.47-.48-2.74-1.12-3.8-1.95-1.07-.82-1.98-1.82-2.72-2.98-.75-1.16-1.37-2.49-1.86-3.97l2.14-.51Z"/>
            <path class="cls-5" d="M94.41,212.05l1.31-1.86c.44.15.89.33,1.37.55.48.22.93.45,1.37.69.44.25.79.48,1.06.71l-1.41,2.04c-.24-.23-.58-.48-1-.74-.42-.27-.87-.52-1.34-.77s-.92-.46-1.36-.63ZM95,221.94c.34-.53.72-1.15,1.14-1.87.42-.71.85-1.47,1.29-2.27.44-.8.84-1.6,1.22-2.41l1.86,1.53c-.34.72-.7,1.46-1.07,2.22s-.75,1.51-1.14,2.23-.77,1.42-1.15,2.09l-2.14-1.53ZM95.6,206.48l1.33-1.79c.42.16.87.36,1.34.59.47.23.92.47,1.35.71.43.25.77.49,1.03.73l-1.41,2c-.25-.24-.57-.5-.98-.78-.41-.27-.85-.54-1.32-.8-.47-.26-.92-.48-1.34-.67ZM102.06,213.88h2.33v2.43c0,.53-.03,1.13-.1,1.78-.07.66-.2,1.34-.4,2.05-.2.71-.49,1.39-.88,2.05s-.91,1.25-1.56,1.76c-.15-.12-.34-.27-.57-.44-.23-.17-.47-.34-.71-.5-.25-.16-.46-.29-.65-.37.56-.46,1.01-.97,1.36-1.52.35-.55.6-1.12.77-1.7.16-.58.28-1.15.34-1.7s.09-1.04.09-1.48v-2.37ZM109.33,207.7l2.29.63c-.68,1.13-1.57,2.08-2.68,2.87-1.11.78-2.36,1.42-3.74,1.91-1.39.49-2.86.89-4.41,1.2-.07-.18-.17-.4-.31-.66-.14-.27-.28-.53-.43-.79-.15-.26-.29-.46-.43-.61,1.44-.2,2.8-.49,4.09-.87s2.42-.86,3.4-1.47c.98-.6,1.72-1.34,2.22-2.21ZM100.45,206.44h12.93v2.1h-12.93v-2.1ZM103.92,207.52c.86,1.02,1.8,1.82,2.83,2.4s2.14,1.01,3.33,1.31,2.46.53,3.8.72c-.26.27-.51.61-.77,1.02-.25.41-.44.8-.56,1.18-1.4-.27-2.73-.62-4-1.03-1.27-.41-2.45-1-3.56-1.74-1.11-.75-2.13-1.75-3.07-3.02l2-.84ZM103.41,214.8h7.16v2.02h-7.16v-2.02ZM103.43,218.23h7.2v2.02h-7.2v-2.02ZM105.63,204.6h2.51v2.75h-2.51v-2.75ZM109.41,213.94h2.43v9.75h-2.43v-9.75Z"/>
            <path class="cls-5" d="M118.36,208.38l1.98.51c-.45,1.06-1.05,2.04-1.81,2.95-.75.9-1.55,1.66-2.4,2.25-.1-.14-.24-.29-.43-.47s-.39-.36-.59-.54c-.2-.18-.38-.32-.53-.42.8-.5,1.54-1.13,2.21-1.88.67-.75,1.19-1.55,1.56-2.41ZM121.4,209.82h.39l.35-.1,1.39.63c-.44,1.28-1.04,2.42-1.82,3.44-.77,1.01-1.67,1.89-2.67,2.63s-2.07,1.34-3.2,1.81c-.12-.26-.31-.56-.55-.92-.25-.35-.48-.63-.69-.84,1.01-.35,1.97-.84,2.89-1.47s1.72-1.35,2.4-2.17c.68-.82,1.19-1.72,1.53-2.68v-.33ZM115.12,206.29h8.91v3.3h-2.04v-1.41h-4.92v1.41h-1.96v-3.3ZM116.26,216.9h2.06v6.47h-2.06v-6.47ZM116.53,213.07l1.29-1.47c.5.33,1.05.69,1.65,1.08.6.39,1.2.8,1.8,1.2.6.41,1.16.8,1.69,1.18.53.38.97.72,1.33,1.02l-1.39,1.73c-.34-.33-.76-.69-1.27-1.08-.51-.39-1.06-.81-1.64-1.24-.58-.44-1.18-.86-1.77-1.29-.6-.42-1.16-.8-1.67-1.14ZM117.36,216.9h5.51v5.63h-5.51v-1.88h3.41v-1.88h-3.41v-1.88ZM117.75,209.82h4.04v1.63h-4.04v-1.63ZM118.42,204.64h2.26v3.2h-2.26v-3.2ZM126.4,219.74l1.96,1.26c-.35.34-.77.68-1.26,1.03s-1,.67-1.53.96c-.53.29-1.05.53-1.55.72-.19-.22-.44-.48-.73-.78-.3-.3-.58-.56-.84-.78.49-.18.99-.4,1.49-.67.5-.27.97-.56,1.41-.88.44-.31.79-.6,1.06-.88ZM124.09,205.4h9.59v2.08h-9.59v-2.08ZM124.71,208.86h8.55v10.81h-8.55v-10.81ZM126.91,210.68v1.24h4.04v-1.24h-4.04ZM126.91,213.62v1.26h4.04v-1.26h-4.04ZM126.91,216.58v1.29h4.04v-1.29h-4.04ZM127.69,206.5l2.67.33c-.2.61-.42,1.22-.64,1.83-.22.6-.43,1.13-.62,1.56l-2.02-.39c.08-.33.16-.68.23-1.07.07-.39.15-.78.21-1.17.07-.39.12-.75.16-1.08ZM129.26,220.98l1.77-1.14c.37.26.76.55,1.18.87.42.32.82.64,1.2.95.38.31.69.6.94.86l-1.9,1.24c-.2-.26-.49-.55-.86-.88-.37-.33-.76-.66-1.17-1-.42-.34-.81-.64-1.17-.9Z"/>
            <path class="cls-5" d="M31.3,235.39h2.47v5.67c0,.71-.07,1.41-.21,2.12-.14.71-.4,1.39-.78,2.05-.37.66-.9,1.29-1.57,1.89-.67.6-1.53,1.15-2.56,1.66-1.03.51-2.29.97-3.77,1.38-.1-.19-.23-.4-.4-.64-.17-.24-.35-.48-.55-.72-.2-.24-.39-.45-.58-.61,1.41-.33,2.6-.69,3.56-1.1.96-.41,1.73-.85,2.31-1.33.58-.48,1.02-.98,1.32-1.5.3-.52.5-1.05.61-1.59.11-.54.16-1.08.16-1.64v-5.63ZM23.73,243h17.93v2.12h-17.93v-2.12ZM23.89,232.78h17.48v4.39h-2.53v-2.24h-12.53v2.24h-2.43v-4.39ZM25.73,236.55h14.02v1.98h-14.02v-1.98ZM26.05,239.75h13.26v1.96h-13.26v-1.96ZM31.36,231.02h2.53v3.24h-2.53v-3.24ZM33.85,243.42c.61,1.35,1.58,2.4,2.92,3.16,1.33.76,3.06,1.25,5.18,1.47-.24.26-.51.6-.79,1.02-.28.42-.5.8-.66,1.12-1.55-.25-2.89-.63-4.02-1.15s-2.08-1.21-2.87-2.06c-.78-.85-1.43-1.88-1.95-3.09l2.18-.47Z"/>
            <path class="cls-5" d="M45.23,231.45l2.63.65c-.01.16-.18.27-.49.33v1c0,.53-.06,1.14-.18,1.83-.12.69-.34,1.37-.66,2.06-.32.69-.79,1.32-1.42,1.91-.11-.16-.26-.34-.45-.54-.19-.2-.39-.39-.59-.57-.2-.18-.39-.32-.57-.42.52-.45.89-.92,1.13-1.43.24-.5.4-1.01.48-1.52.08-.51.12-.99.12-1.44v-1.86ZM49.68,246.53l2.22,1.02c-.54.35-1.18.7-1.92,1.04s-1.49.65-2.26.93c-.77.28-1.51.51-2.2.7-.15-.16-.33-.36-.54-.58-.21-.22-.43-.45-.66-.67-.23-.22-.44-.4-.61-.54.72-.14,1.45-.3,2.19-.49.74-.19,1.44-.41,2.1-.65.66-.24,1.22-.5,1.68-.75ZM51.08,231l1.49,1.45c-.57.16-1.21.31-1.91.45-.7.14-1.41.24-2.13.33-.72.08-1.41.14-2.08.18-.04-.2-.11-.45-.21-.74-.1-.29-.21-.53-.34-.72.63-.07,1.25-.15,1.89-.23.63-.09,1.24-.19,1.82-.32.58-.12,1.07-.25,1.48-.39ZM46.19,234.04h6.79v1.77h-6.79v-1.77ZM46.31,238.32h13.73v8.36h-13.73v-8.36ZM48.68,239.79v.88h8.89v-.88h-8.89ZM48.68,242.06v.9h8.89v-.9h-8.89ZM48.68,244.34v.9h8.89v-.9h-8.89ZM48.88,234.63h2.16v3.3h-2.16v-3.3ZM53.7,231.47l2.61.59c-.01.19-.18.31-.49.35v1.04c0,.48-.07,1.02-.2,1.62-.14.61-.39,1.2-.78,1.8s-.93,1.12-1.65,1.58c-.08-.16-.21-.35-.39-.56s-.36-.41-.55-.61-.37-.34-.55-.44c.57-.35,1-.73,1.27-1.12.28-.39.47-.8.57-1.2.1-.41.15-.8.15-1.18v-1.86ZM54.18,247.77l2.04-1.16c.73.26,1.48.53,2.23.83s1.48.58,2.16.88c.69.29,1.27.55,1.74.79l-2.86,1.1c-.38-.22-.86-.47-1.43-.75s-1.19-.57-1.85-.87c-.66-.29-1.34-.56-2.05-.81ZM59.92,231.02l1.49,1.43c-.61.19-1.29.35-2.04.48s-1.51.23-2.29.32c-.78.08-1.53.15-2.25.2-.04-.22-.12-.47-.22-.77-.11-.29-.21-.54-.31-.74.67-.05,1.35-.13,2.04-.22.69-.1,1.36-.2,1.99-.33.63-.12,1.17-.24,1.6-.37ZM54.59,234.04h7.63v1.77h-7.63v-1.77ZM57.45,234.63h2.18v3.33h-2.18v-3.33Z"/>
            <path class="cls-5" d="M77.95,238.49h.51l.43-.1,1.73.98c-.61,1.66-1.43,3.1-2.46,4.32s-2.21,2.26-3.56,3.11c-1.35.85-2.82,1.55-4.41,2.09-1.59.54-3.27.97-5.04,1.26-.07-.23-.18-.5-.34-.8-.16-.3-.32-.59-.5-.88s-.35-.52-.51-.69c1.71-.23,3.33-.56,4.83-.99,1.51-.43,2.88-.99,4.11-1.69,1.23-.7,2.29-1.56,3.17-2.57.88-1.01,1.56-2.22,2.02-3.62v-.43ZM64.65,233.67h17.5v2.43h-17.5v-2.43ZM65.65,238.49h13.08v2.39h-13.08v-2.39ZM69.95,240.71c1.06,2,2.69,3.59,4.9,4.77,2.2,1.18,4.94,1.96,8.22,2.33-.18.19-.36.42-.56.7-.2.28-.38.57-.56.87-.18.3-.33.57-.45.82-2.28-.34-4.3-.87-6.05-1.6s-3.26-1.68-4.54-2.86-2.37-2.59-3.26-4.23l2.31-.8ZM72.1,230.98h2.55v8.59h-2.55v-8.59Z"/>
            <path class="cls-5" d="M84.15,241.28c.69-.12,1.49-.26,2.4-.42.9-.16,1.86-.33,2.88-.53,1.01-.2,2.02-.39,3.01-.58l.16,2.16c-.91.2-1.84.41-2.77.62s-1.85.41-2.72.6c-.88.19-1.69.37-2.44.53l-.51-2.39ZM84.46,234.88h7.9v2.28h-7.9v-2.28ZM87.36,230.96h2.39v16.5c0,.63-.07,1.1-.21,1.44-.14.33-.39.6-.74.81-.37.18-.82.3-1.37.36s-1.21.09-2,.09c-.05-.33-.15-.71-.28-1.16-.13-.45-.28-.83-.44-1.14.46.01.91.02,1.35.03.44,0,.73.01.88.01.16-.01.28-.05.34-.11.06-.06.09-.17.09-.34v-16.48ZM90.27,247.16c.9-.08,1.95-.19,3.16-.32,1.21-.13,2.5-.27,3.87-.43s2.72-.32,4.05-.48l.1,2.28c-1.25.19-2.51.37-3.77.55s-2.49.35-3.66.51c-1.18.16-2.25.31-3.21.45l-.53-2.57ZM95.43,231.51l2.67.45c-.22,1.37-.46,2.79-.73,4.25s-.56,2.9-.88,4.32c-.31,1.42-.64,2.78-.97,4.07-.33,1.29-.66,2.46-.99,3.51l-2.33-.47c.33-1.06.65-2.25.97-3.57.32-1.32.62-2.7.91-4.14s.54-2.88.78-4.31c.23-1.43.42-2.8.57-4.11ZM97.74,240.96l2.16-.75c.52.95,1.03,1.97,1.53,3.05.5,1.08.95,2.14,1.35,3.18.39,1.04.69,1.97.88,2.78l-2.43.92c-.11-.6-.28-1.27-.52-2.03s-.52-1.54-.84-2.36-.66-1.64-1.03-2.46c-.37-.82-.73-1.6-1.1-2.34Z"/>
            <path class="cls-5" d="M109.35,233.73c-.05.24-.1.52-.13.84-.03.31-.06.62-.08.92-.02.3-.03.54-.03.73-.01.45-.02.91-.01,1.39s.02.96.04,1.46c.02.5.05.99.09,1.48.09.98.23,1.84.41,2.59.18.75.41,1.33.69,1.74.29.42.65.62,1.08.62.23,0,.46-.13.68-.39.22-.26.43-.59.61-1.01s.35-.85.49-1.32.27-.9.38-1.31l2.04,2.49c-.45,1.18-.89,2.12-1.34,2.83-.44.7-.9,1.2-1.38,1.51s-.99.46-1.55.46c-.73,0-1.43-.24-2.09-.73-.66-.49-1.22-1.28-1.68-2.38-.46-1.09-.79-2.55-.98-4.38-.07-.63-.12-1.29-.15-1.98-.03-.69-.05-1.35-.06-1.98,0-.63-.01-1.14-.01-1.55,0-.29-.01-.63-.04-1.02s-.07-.75-.12-1.06l3.14.04ZM119.55,234.2c.38.46.75,1.03,1.1,1.69.35.67.68,1.38.98,2.14.3.76.56,1.54.8,2.34.23.8.42,1.57.56,2.33s.23,1.45.28,2.07l-2.69,1.04c-.07-.83-.19-1.73-.37-2.71-.18-.98-.42-1.97-.71-2.96-.3-.99-.66-1.93-1.07-2.82-.41-.88-.9-1.65-1.46-2.28l2.59-.84Z"/>
          </g>
        </g>
        <g>
          <g>
            <path class="cls-6" d="M278.12,233.38h3.74c-.06,1.67-.15,3.36-.28,5.07-.13,1.71-.36,3.39-.69,5.05-.33,1.66-.82,3.25-1.47,4.77s-1.52,2.94-2.62,4.27c-1.1,1.33-2.49,2.49-4.18,3.49-.26-.47-.63-.98-1.12-1.52-.49-.54-.97-.99-1.44-1.34,1.55-.88,2.82-1.89,3.81-3.03.99-1.14,1.77-2.38,2.34-3.71.57-1.33.98-2.73,1.24-4.2.25-1.46.42-2.94.5-4.43.08-1.49.14-2.96.18-4.42ZM271.23,230.43h26v3.45h-26v-3.45ZM280.65,238.71h11.78v3.42h-11.78v-3.42ZM291.14,238.71h3.71c-.02.37-.03.69-.03.94s0,.46-.03.62c-.12,2.28-.24,4.23-.37,5.85-.13,1.62-.27,2.97-.43,4.06-.16,1.09-.34,1.96-.56,2.61-.22.65-.47,1.14-.77,1.47-.43.51-.9.86-1.4,1.06-.5.2-1.08.33-1.75.41-.59.06-1.35.09-2.28.09s-1.89-.02-2.87-.06c-.04-.51-.18-1.09-.41-1.75s-.52-1.23-.85-1.72c1.02.08,1.99.13,2.92.15.92.02,1.6.03,2.03.03.31,0,.58-.02.79-.07.22-.05.41-.15.59-.31.31-.27.57-.89.78-1.84.21-.95.38-2.33.53-4.12.15-1.8.28-4.07.4-6.82v-.59Z"/>
            <path class="cls-6" d="M301.3,230.29h23.09v3.5h-19.56v22.27h-3.53v-25.77ZM303.21,241.24h21.23v3.48h-21.23v-3.48ZM311.81,232.2h3.53v10.78h-3.53v-10.78ZM322.71,230.29h3.56v21.65c0,.94-.12,1.68-.35,2.22-.24.54-.66.96-1.27,1.25-.61.29-1.37.48-2.28.54-.91.07-2.03.1-3.34.1-.06-.33-.16-.72-.29-1.15-.14-.43-.29-.86-.47-1.28s-.35-.79-.53-1.1c.57.04,1.14.06,1.72.07.58.01,1.09.01,1.55.01h.94c.27-.02.47-.08.59-.19.12-.11.18-.29.18-.54v-21.59Z"/>
            <path class="cls-6" d="M330.13,236.76c1.49-.04,3.16-.09,4.99-.16,1.84-.07,3.77-.14,5.8-.22,2.03-.08,4.1-.16,6.2-.24,2.1-.08,4.16-.16,6.18-.24l-.15,3.42c-2.04.12-4.1.22-6.18.31s-4.12.18-6.11.27c-1.99.09-3.88.17-5.67.24-1.79.07-3.41.13-4.86.19l-.21-3.56ZM333.28,242.98h19.7v13.05h-3.8v-9.66h-12.28v9.69h-3.62v-13.08ZM339.06,228.19l4.04,1.33c-.65,1.2-1.34,2.42-2.08,3.67-.74,1.25-1.48,2.43-2.22,3.53-.75,1.11-1.45,2.1-2.12,2.96l-3.18-1.3c.67-.9,1.34-1.94,2.03-3.11.69-1.17,1.34-2.37,1.96-3.61.62-1.24,1.14-2.4,1.58-3.48ZM334.87,251.46h16.23v3.42h-16.23v-3.42ZM346.12,233.44l2.8-2.06c.98.79,1.99,1.66,3.02,2.64,1.03.97,1.98,1.95,2.86,2.94.87.99,1.57,1.91,2.08,2.75l-3.06,2.36c-.47-.84-1.12-1.77-1.96-2.78-.83-1.01-1.75-2.03-2.75-3.05s-1.99-1.95-2.97-2.8Z"/>
            <path class="cls-6" d="M371.25,243.51c-.65-.67-1.29-1.19-1.91-1.56-.63-.37-1.45-.56-2.47-.56-.94,0-1.82.33-2.64.99-.81.66-1.5,1.51-2.05,2.55l-3.24-1.77c1-1.83,2.19-3.19,3.56-4.08,1.37-.89,2.86-1.34,4.45-1.34,1.41,0,2.67.27,3.78.79,1.11.53,2.16,1.35,3.17,2.44.65.67,1.29,1.19,1.93,1.56.64.37,1.46.56,2.46.56.94,0,1.82-.33,2.64-.99.81-.66,1.5-1.51,2.05-2.55l3.24,1.77c-1,1.83-2.19,3.19-3.56,4.08-1.37.89-2.86,1.34-4.45,1.34-1.39,0-2.65-.26-3.77-.79s-2.18-1.34-3.18-2.44Z"/>
          </g>
          <g>
            <path class="cls-6" d="M175.7,229.81h3.65v9.75c0,1.28-.07,2.65-.22,4.12-.15,1.47-.42,2.96-.81,4.48-.39,1.51-.97,2.95-1.74,4.3-.77,1.35-1.78,2.56-3.03,3.62-.18-.26-.43-.55-.75-.88-.32-.33-.67-.66-1.03-.97-.36-.31-.68-.55-.96-.71,1.12-.94,2.01-1.99,2.67-3.14.66-1.15,1.15-2.34,1.47-3.58s.53-2.47.62-3.71.13-2.42.13-3.56v-9.72ZM178,243.8h14.78v3.45h-14.78v-3.45ZM178.15,229.81h14.7v3.45h-14.7v-3.45ZM178.17,236.85h14.81v3.36h-14.81v-3.36ZM191.19,229.81h3.77v21.76c0,1.06-.14,1.88-.43,2.44-.28.57-.77,1-1.46,1.3-.71.31-1.59.51-2.65.57-1.06.07-2.36.1-3.89.1-.08-.35-.2-.76-.35-1.21-.16-.45-.33-.9-.53-1.35-.2-.45-.39-.83-.59-1.15.69.04,1.39.06,2.11.07.72.01,1.35.02,1.91.02h1.19c.33,0,.57-.06.71-.19.14-.13.21-.35.21-.66v-21.71Z"/>
            <path class="cls-6" d="M211.16,229.9l3.92.88c-.67,2-1.47,4.05-2.41,6.14-.94,2.09-2.02,4.08-3.23,5.96s-2.54,3.52-3.99,4.92c-.27-.22-.61-.45-1.02-.69-.4-.25-.81-.48-1.22-.71-.41-.23-.79-.42-1.15-.57,1.1-.98,2.12-2.11,3.08-3.39.95-1.28,1.81-2.63,2.58-4.05.77-1.42,1.44-2.86,2.02-4.31s1.06-2.85,1.43-4.18ZM209.27,246.95l2.18-2.95c.98.41,2.01.89,3.09,1.43,1.08.54,2.14,1.11,3.17,1.72,1.03.61,1.99,1.23,2.87,1.86.88.63,1.63,1.25,2.24,1.86l-2.44,3.36c-.55-.59-1.25-1.21-2.09-1.87-.84-.66-1.77-1.31-2.78-1.96-1.01-.65-2.05-1.27-3.12-1.87-1.07-.6-2.11-1.12-3.11-1.58ZM210.36,235.56h12.16v3.5h-12.16v-3.5ZM221.06,235.56h.85l.65-.15,2.71,1.44c-.49,1.37-1.11,2.83-1.87,4.36-.76,1.53-1.58,3.03-2.47,4.49-.89,1.46-1.81,2.79-2.75,3.99-.41-.33-.93-.7-1.55-1.1-.62-.4-1.16-.73-1.63-.99.65-.81,1.28-1.69,1.9-2.65.62-.96,1.2-1.95,1.75-2.96.55-1.01,1.03-2,1.44-2.96s.74-1.83.97-2.59v-.88Z"/>
          </g>
          <path class="cls-6" d="M261.3,189.53l-11,28.34.19.19c.32-.25.81-.46,1.47-.62.66-.16,1.53-.24,2.61-.24,1.71,0,3.29.41,4.74,1.23,1.45.82,2.59,1.86,3.41,3.13.44.7.79,1.39,1.04,2.09.25.7.47,1.61.66,2.75.13,1.14.22,2.58.28,4.31.06,1.74.09,3.93.09,6.59,0,2.21-.03,4.03-.09,5.45-.06,1.42-.16,2.61-.28,3.55-.19,1.01-.43,1.86-.71,2.56-.28.7-.65,1.42-1.09,2.18-1.26,2.09-2.95,3.7-5.07,4.83-2.12,1.14-4.5,1.71-7.16,1.71s-5.02-.58-7.11-1.75c-2.09-1.17-3.76-2.76-5.02-4.79-.51-.76-.9-1.48-1.19-2.18-.28-.69-.49-1.55-.62-2.56-.19-.95-.32-2.13-.38-3.55-.06-1.42-.09-3.24-.09-5.45,0-2.09.03-3.81.09-5.17.06-1.36.16-2.54.28-3.55.13-.95.32-1.82.57-2.61.25-.79.54-1.63.85-2.51l12.7-33.94h10.81ZM255.14,230.58c0-1.45-.47-2.62-1.42-3.51-.95-.88-2.05-1.33-3.32-1.33s-2.37.44-3.32,1.33c-.95.89-1.42,2.05-1.42,3.51v12.51c0,1.45.47,2.62,1.42,3.51.95.89,2.05,1.33,3.32,1.33s2.37-.44,3.32-1.33c.95-.88,1.42-2.05,1.42-3.51v-12.51Z"/>
        </g>
      </g>
      <g>
        <g>
          <path class="cls-6" d="M47.32,23.52c-.2.75-.37,1.48-.52,2.19-.14.72-.22,1.43-.22,2.15,0,1.38.69,2.51,2.09,3.4,1.39.89,3.63,1.33,6.73,1.33,1.95,0,3.83-.07,5.63-.21,1.81-.14,3.52-.34,5.14-.6s3.06-.56,4.32-.9l.04,6.06c-1.26.29-2.67.54-4.21.75-1.55.21-3.22.39-5.01.52-1.79.13-3.69.19-5.7.19-3.27,0-6.01-.36-8.21-1.08-2.21-.72-3.86-1.76-4.94-3.12-1.09-1.36-1.63-3.03-1.63-5.01,0-1.26.1-2.41.3-3.44.2-1.03.39-1.95.56-2.75l5.63.52ZM43.71,5.29c1.58.17,3.35.3,5.33.39s4.1.13,6.36.13c1.4,0,2.86-.03,4.36-.09,1.5-.06,2.96-.13,4.36-.21,1.4-.09,2.65-.19,3.74-.3v5.72c-1,.09-2.21.17-3.63.26-1.42.09-2.9.15-4.43.19-1.53.04-2.99.06-4.36.06-2.24,0-4.31-.04-6.23-.13-1.92-.09-3.76-.2-5.5-.34v-5.68Z"/>
          <path class="cls-6" d="M102.14,4.6c-.2.29-.42.61-.67.97-.24.36-.48.71-.71,1.05-.52.77-1.08,1.67-1.7,2.69-.62,1.02-1.25,2.09-1.91,3.23-.66,1.13-1.3,2.26-1.91,3.38-.62,1.12-1.2,2.15-1.74,3.1.8-.46,1.62-.79,2.45-.99.83-.2,1.66-.3,2.49-.3,1.61,0,2.87.48,3.81,1.44.93.96,1.44,2.34,1.53,4.15.03.63.04,1.39.04,2.28s0,1.78.02,2.67c.01.89.05,1.63.11,2.24.09.83.39,1.43.92,1.78.53.36,1.15.54,1.87.54.92,0,1.76-.27,2.52-.82.76-.54,1.44-1.3,2.04-2.26.6-.96,1.12-2.05,1.57-3.27.44-1.22.82-2.49,1.14-3.81l4.64,3.78c-.75,2.44-1.69,4.58-2.84,6.43-1.15,1.85-2.54,3.28-4.19,4.3-1.65,1.02-3.58,1.53-5.78,1.53-1.58,0-2.9-.28-3.96-.84-1.06-.56-1.85-1.29-2.37-2.19-.52-.9-.8-1.88-.86-2.95-.06-.77-.09-1.63-.11-2.58-.02-.95-.03-1.87-.04-2.77-.02-.9-.05-1.64-.11-2.21-.06-.75-.3-1.33-.73-1.76s-1.03-.65-1.81-.65c-.95,0-1.85.3-2.71.9-.86.6-1.64,1.39-2.34,2.36-.7.98-1.31,2.05-1.83,3.23-.29.63-.59,1.38-.9,2.24-.32.86-.62,1.75-.9,2.67-.29.92-.56,1.78-.82,2.6-.26.82-.47,1.51-.65,2.09l-6.06-2.06c.54-1.43,1.21-3.07,2-4.92.79-1.85,1.66-3.79,2.6-5.83.95-2.04,1.91-4.06,2.88-6.06.97-2.01,1.91-3.91,2.79-5.7.89-1.79,1.68-3.35,2.39-4.69.7-1.33,1.24-2.34,1.61-3.03.29-.57.62-1.22.99-1.94.37-.72.75-1.53,1.12-2.45l6.11,2.45Z"/>
          <path class="cls-6" d="M140.63,1.93c-.17.72-.4,1.65-.69,2.8-.29,1.15-.61,2.35-.97,3.61-.36,1.26-.74,2.51-1.14,3.74-.63,2.06-1.46,4.26-2.49,6.58-1.03,2.32-2.15,4.59-3.35,6.79-1.2,2.21-2.42,4.17-3.65,5.89l-5.2-2.67c.97-1.2,1.94-2.54,2.88-4,.95-1.46,1.83-2.97,2.67-4.51.83-1.55,1.58-3.05,2.26-4.49.67-1.45,1.21-2.76,1.61-3.93.54-1.52,1.02-3.22,1.44-5.1.42-1.88.65-3.65.71-5.31l5.93.6ZM123.9,8.38c.92.11,1.9.19,2.95.24,1.05.04,1.97.06,2.77.06,1.78,0,3.58-.1,5.4-.3,1.82-.2,3.58-.47,5.27-.8,1.69-.33,3.22-.71,4.6-1.14l.17,4.99c-1.23.32-2.7.64-4.41.97-1.71.33-3.5.6-5.4.82-1.89.22-3.76.32-5.59.32-.86,0-1.73-.01-2.62-.04-.89-.03-1.81-.07-2.75-.13l-.39-4.99ZM150.69,15.31c-.06.92-.08,1.83-.06,2.73.01.9.04,1.83.06,2.77.03.66.06,1.5.11,2.52.04,1.02.09,2.09.15,3.23.06,1.13.11,2.21.15,3.23.04,1.02.06,1.83.06,2.43,0,1.32-.27,2.52-.82,3.59-.54,1.07-1.41,1.93-2.6,2.56-1.19.63-2.82.95-4.88.95-1.78,0-3.38-.27-4.82-.8-1.43-.53-2.58-1.32-3.44-2.37-.86-1.05-1.29-2.36-1.29-3.93,0-1.4.37-2.67,1.12-3.81.75-1.13,1.83-2.02,3.25-2.67s3.13-.97,5.14-.97c2.52,0,4.84.35,6.97,1.05,2.12.7,4.03,1.6,5.72,2.69,1.69,1.09,3.14,2.18,4.34,3.27l-2.88,4.6c-.77-.69-1.66-1.46-2.64-2.32-.99-.86-2.09-1.66-3.31-2.41-1.22-.75-2.54-1.36-3.96-1.85-1.42-.49-2.95-.73-4.58-.73-1.23,0-2.22.24-2.97.73-.75.49-1.12,1.12-1.12,1.89s.32,1.45.97,1.94c.65.49,1.55.73,2.73.73.97,0,1.75-.16,2.32-.49.57-.33.97-.8,1.2-1.42.23-.62.34-1.31.34-2.09,0-.66-.03-1.59-.09-2.79-.06-1.2-.12-2.54-.19-4-.07-1.46-.14-2.92-.19-4.39-.06-1.46-.11-2.75-.17-3.87h5.38ZM158.09,17.59c-.83-.69-1.86-1.42-3.1-2.19-1.23-.77-2.5-1.51-3.81-2.21-1.3-.7-2.44-1.27-3.42-1.7l2.75-4.26c.77.34,1.66.77,2.64,1.27.99.5,1.99,1.03,3.01,1.57,1.02.54,1.96,1.08,2.84,1.61.87.53,1.58,1,2.13,1.4l-3.05,4.52Z"/>
          <path class="cls-6" d="M175.98,3.61c-.11.29-.24.69-.39,1.2-.14.52-.28,1.02-.41,1.5-.13.49-.22.86-.28,1.12-.09.6-.22,1.38-.41,2.34-.19.96-.37,2.04-.56,3.23-.19,1.19-.37,2.4-.54,3.63-.17,1.23-.31,2.42-.41,3.57-.1,1.15-.15,2.15-.15,3.01,0,.4,0,.86.02,1.38.01.52.06.99.15,1.42.2-.49.42-.97.65-1.46.23-.49.46-.98.69-1.48.23-.5.43-.98.6-1.44l2.67,2.11c-.4,1.18-.81,2.44-1.23,3.78-.42,1.35-.79,2.62-1.12,3.81-.33,1.19-.58,2.17-.75,2.95-.06.32-.11.67-.15,1.07-.04.4-.06.72-.06.95s0,.51.02.84c.01.33.04.64.06.92l-4.99.34c-.43-1.49-.82-3.48-1.16-5.96-.34-2.48-.52-5.18-.52-8.11,0-1.6.07-3.24.21-4.9.14-1.66.31-3.26.52-4.79.2-1.53.39-2.93.58-4.19.19-1.26.35-2.31.49-3.14.06-.6.14-1.28.24-2.04.1-.76.16-1.48.19-2.17l6.02.52ZM186.04,24.85c-.17.72-.3,1.35-.39,1.91-.09.56-.13,1.13-.13,1.7,0,.46.11.88.34,1.27.23.39.58.72,1.05.99.47.27,1.09.47,1.85.6.76.13,1.68.19,2.77.19,1.92,0,3.73-.09,5.42-.28,1.69-.19,3.48-.47,5.38-.84l.09,5.8c-1.38.26-2.96.46-4.75.6-1.79.14-3.91.22-6.34.22-3.7,0-6.45-.62-8.26-1.87-1.81-1.25-2.71-2.97-2.71-5.18,0-.83.06-1.7.19-2.6.13-.9.31-1.9.54-2.99l4.95.47ZM182.6,6.49c1.32.17,2.8.29,4.45.37,1.65.07,3.33.1,5.03.09,1.71-.01,3.35-.07,4.92-.17,1.58-.1,2.94-.21,4.08-.32v5.55c-1.32.12-2.77.21-4.34.28-1.58.07-3.2.11-4.86.11s-3.29-.04-4.88-.11c-1.59-.07-3.06-.16-4.41-.28v-5.5Z"/>
          <path class="cls-6" d="M207.15,21.46c1.69-.37,3.7-.87,6.02-1.48,2.32-.62,4.67-1.25,7.05-1.91l.65,4.64c-2.12.66-4.29,1.31-6.49,1.96-2.21.65-4.24,1.23-6.11,1.74l-1.12-4.94ZM207.92,8.17h12.34v4.73h-12.34v-4.73ZM212.31,0h4.6v35.04c0,1.18-.12,2.11-.34,2.79-.23.69-.67,1.23-1.33,1.63-.66.37-1.46.63-2.41.77-.95.14-2.11.2-3.48.17-.06-.63-.21-1.4-.47-2.3-.26-.9-.54-1.7-.86-2.39.8.03,1.54.05,2.21.06.67.01,1.14.02,1.4.02s.44-.06.54-.17c.1-.11.15-.32.15-.6V0ZM220.74,7.35h26.88v4.6h-26.88v-4.6ZM221.38,14.19h10.23v4h-6.19v21.63h-4.04V14.19ZM223.92,28.77l2.32-2.36c.77.43,1.6.95,2.47,1.57.87.62,1.55,1.17,2.04,1.66l-2.45,2.71c-.46-.52-1.11-1.12-1.96-1.81-.85-.69-1.66-1.28-2.43-1.76ZM224.09,1.76l4.21-1.59c.66.97,1.29,2.05,1.89,3.23.6,1.18,1.02,2.19,1.25,3.05l-4.47,1.81c-.2-.86-.57-1.91-1.12-3.14-.54-1.23-1.13-2.35-1.76-3.35ZM224.18,22.27l2.19-2.54c.77.37,1.59.84,2.45,1.4.86.56,1.52,1.05,1.98,1.48l-2.24,2.79c-.49-.46-1.15-.99-2-1.59-.85-.6-1.64-1.12-2.39-1.55ZM229.17,14.19h4.08v21.46c0,.95-.08,1.73-.24,2.34-.16.62-.52,1.1-1.1,1.44-.57.34-1.23.56-1.96.65s-1.61.13-2.64.13c-.06-.57-.19-1.26-.39-2.06-.2-.8-.43-1.49-.69-2.06.52.03,1.01.04,1.48.04h.97c.32,0,.47-.17.47-.52V14.19ZM235.44,14.92h4.04v16.9h-4.04V14.92ZM239.36.04l4.99,1.07c-.57,1.23-1.15,2.42-1.74,3.57-.59,1.15-1.13,2.14-1.61,2.97l-4.39-1.03c.31-.6.65-1.29.99-2.06.34-.77.67-1.55.99-2.34.31-.79.57-1.51.77-2.17ZM242.11,13.54h4.52v21.8c0,1.06-.12,1.92-.37,2.58-.24.66-.72,1.18-1.44,1.55-.69.37-1.51.62-2.47.73-.96.11-2.09.17-3.38.17-.12-.63-.36-1.38-.73-2.26s-.73-1.6-1.07-2.17c.92.03,1.77.04,2.56.04h1.61c.31-.03.52-.09.62-.17.1-.09.15-.26.15-.52V13.54Z"/>
          <path class="cls-6" d="M255.48,18.36c.66-.14,1.42-.32,2.28-.54.86-.21,1.62-.42,2.28-.62.72-.23,1.68-.53,2.88-.9,1.2-.37,2.53-.75,3.98-1.12,1.45-.37,2.91-.69,4.39-.95,1.48-.26,2.87-.39,4.19-.39,2.26,0,4.25.42,5.96,1.27,1.71.85,3.03,2.06,3.98,3.63.95,1.58,1.42,3.45,1.42,5.63,0,1.95-.42,3.73-1.27,5.33-.85,1.61-2.13,3.01-3.85,4.21-1.72,1.2-3.86,2.19-6.43,2.95-2.57.76-5.55,1.24-8.97,1.44l-2.28-5.29c2.46-.06,4.74-.27,6.82-.65,2.08-.37,3.88-.91,5.42-1.61,1.53-.7,2.72-1.6,3.57-2.69.85-1.09,1.27-2.35,1.27-3.78,0-1.09-.25-2.04-.75-2.86-.5-.82-1.21-1.46-2.13-1.91-.92-.46-2.01-.69-3.27-.69-1,0-2.12.13-3.35.39-1.23.26-2.5.59-3.81.99-1.3.4-2.59.83-3.85,1.29-1.26.46-2.44.9-3.53,1.33-1.09.43-1.99.8-2.71,1.12l-2.24-5.59Z"/>
          <path class="cls-6" d="M295.39,6.97c.86-.03,1.68-.06,2.45-.11s1.38-.08,1.81-.11c.89-.09,1.98-.19,3.27-.3,1.29-.11,2.74-.24,4.36-.39,1.62-.14,3.35-.29,5.18-.45,1.83-.16,3.74-.32,5.72-.49,1.49-.11,2.98-.22,4.47-.32,1.49-.1,2.9-.19,4.24-.26,1.33-.07,2.49-.12,3.46-.15l.04,5.5c-.77,0-1.66.02-2.67.04-1,.03-2,.08-2.99.15-.99.07-1.87.19-2.64.37-1.29.34-2.49.92-3.59,1.74-1.1.82-2.07,1.78-2.9,2.9-.83,1.12-1.47,2.32-1.91,3.59-.44,1.28-.67,2.56-.67,3.85,0,1.4.24,2.64.73,3.72.49,1.07,1.17,1.99,2.04,2.75.87.76,1.9,1.39,3.07,1.89,1.18.5,2.44.88,3.81,1.14,1.36.26,2.77.43,4.24.52l-2.02,5.89c-1.81-.11-3.56-.4-5.27-.86-1.71-.46-3.3-1.09-4.77-1.89-1.48-.8-2.77-1.78-3.89-2.95-1.12-1.16-1.99-2.49-2.62-4-.63-1.5-.95-3.19-.95-5.05,0-2.09.33-4,.99-5.72.66-1.72,1.48-3.23,2.45-4.54.97-1.3,1.95-2.31,2.92-3.03-.8.09-1.77.19-2.9.32-1.13.13-2.35.27-3.66.43-1.3.16-2.63.32-3.98.49-1.35.17-2.64.37-3.89.58-1.25.21-2.37.42-3.38.62l-.56-5.89Z"/>
          <path class="cls-6" d="M343.93,36.94c-1.09,0-1.99-.36-2.71-1.08-.72-.72-1.08-1.62-1.08-2.71s.36-2.04,1.08-2.75,1.62-1.08,2.71-1.08,1.99.36,2.71,1.08c.72.72,1.08,1.63,1.08,2.75s-.36,1.99-1.08,2.71c-.72.72-1.62,1.08-2.71,1.08ZM341.74,25.5l-1.16-14.71-.21-6.41h7.14l-.21,6.41-1.16,14.71h-4.39Z"/>
        </g>
        <g>
          <g>
            <path class="cls-6" d="M264.4,129.59h4.32c-.07,1.93-.18,3.88-.32,5.85-.15,1.97-.41,3.92-.8,5.83-.39,1.92-.95,3.75-1.7,5.51-.75,1.76-1.76,3.4-3.03,4.93-1.27,1.53-2.88,2.87-4.83,4.03-.29-.54-.73-1.13-1.29-1.75-.57-.62-1.12-1.14-1.67-1.55,1.79-1.02,3.26-2.19,4.4-3.5,1.14-1.31,2.05-2.74,2.7-4.28.66-1.54,1.13-3.16,1.43-4.85.29-1.69.49-3.39.58-5.12.09-1.72.16-3.42.2-5.1ZM256.45,126.19h30.02v3.98h-30.02v-3.98ZM267.33,135.74h13.6v3.94h-13.6v-3.94ZM279.43,135.74h4.28c-.02.43-.03.79-.03,1.09s-.01.53-.03.71c-.14,2.63-.28,4.88-.43,6.75-.15,1.87-.31,3.43-.49,4.69-.18,1.26-.4,2.26-.65,3.01-.25.75-.54,1.31-.88,1.7-.5.59-1.04,1-1.61,1.22s-1.25.39-2.02.48c-.68.07-1.56.1-2.64.1s-2.18-.02-3.31-.07c-.05-.59-.2-1.26-.48-2.02s-.6-1.42-.99-1.99c1.18.09,2.3.15,3.37.17,1.06.02,1.85.03,2.35.03.36,0,.67-.03.92-.08.25-.06.48-.18.68-.36.36-.32.66-1.03.9-2.12.24-1.1.44-2.69.61-4.76.17-2.07.32-4.7.46-7.87v-.68Z"/>
            <path class="cls-6" d="M291.16,126.02h26.66v4.05h-22.58v25.7h-4.08v-29.75ZM293.37,138.67h24.51v4.01h-24.51v-4.01ZM303.3,128.23h4.08v12.44h-4.08v-12.44ZM315.88,126.02h4.11v24.99c0,1.09-.14,1.94-.41,2.57-.27.62-.76,1.1-1.46,1.44-.7.34-1.58.55-2.64.63-1.05.08-2.34.12-3.86.12-.07-.39-.18-.83-.34-1.33-.16-.5-.34-.99-.54-1.48-.2-.49-.41-.91-.61-1.28.66.05,1.32.07,1.99.08.67.01,1.26.02,1.78.02h1.09c.32-.02.54-.1.68-.22.14-.12.2-.33.2-.63v-24.92Z"/>
            <path class="cls-6" d="M337.91,141.28c-.75-.77-1.48-1.37-2.21-1.8s-1.68-.65-2.86-.65c-1.09,0-2.1.38-3.04,1.14-.94.76-1.73,1.74-2.36,2.94l-3.74-2.04c1.16-2.11,2.53-3.68,4.11-4.71,1.59-1.03,3.3-1.55,5.13-1.55,1.63,0,3.09.31,4.37.92,1.28.61,2.5,1.55,3.65,2.82.75.77,1.49,1.37,2.23,1.8.74.43,1.68.65,2.84.65,1.09,0,2.1-.38,3.04-1.14.94-.76,1.73-1.74,2.36-2.94l3.74,2.04c-1.16,2.11-2.53,3.68-4.11,4.71-1.59,1.03-3.3,1.55-5.13,1.55-1.61,0-3.06-.31-4.35-.92-1.29-.61-2.52-1.55-3.67-2.82Z"/>
          </g>
          <g>
            <path class="cls-6" d="M48.95,155.77v-12.29l23.55-44.42c1.19-2.22,1.88-4.16,2.05-5.82.17-1.66.26-3.73.26-6.21,0-1.11-.02-2.28-.06-3.52-.04-1.24-.28-2.32-.7-3.26-.43-.94-1.07-1.73-1.92-2.37-.85-.64-2.09-.96-3.71-.96-1.96,0-3.52.56-4.67,1.66-1.15,1.11-1.73,2.73-1.73,4.86v7.42h-13.06v-7.17c0-2.73.51-5.29,1.54-7.68,1.02-2.39,2.43-4.48,4.22-6.27,1.71-1.79,3.75-3.22,6.14-4.29,2.39-1.07,4.95-1.6,7.68-1.6,3.41,0,6.34.62,8.77,1.86,2.43,1.24,4.46,2.92,6.08,5.06,1.54,2.13,2.67,4.57,3.39,7.3.72,2.73,1.09,5.63,1.09,8.7,0,2.22-.04,4.08-.13,5.57-.09,1.49-.26,2.92-.51,4.29-.26,1.37-.68,2.73-1.28,4.1-.6,1.37-1.41,3.03-2.43,4.99l-19.2,36.99h23.55v13.06h-38.91Z"/>
            <path class="cls-6" d="M96.31,165.25v-22.53h13.06v13.06l-13.06,9.47Z"/>
            <path class="cls-6" d="M120.76,155.77l22.91-78.85h-14.34v10.5h-11.52v-22.78h38.91v13.06l-22.14,78.08h-13.82Z"/>
            <path class="cls-6" d="M164.15,83.45c0-3.07.53-5.8,1.6-8.19,1.07-2.39,2.5-4.44,4.29-6.14,1.79-1.71,3.86-3.01,6.21-3.9,2.35-.9,4.8-1.34,7.36-1.34s5.01.45,7.36,1.34c2.35.9,4.42,2.2,6.21,3.9,1.79,1.71,3.22,3.76,4.29,6.14,1.07,2.39,1.6,5.12,1.6,8.19v53.5c0,3.07-.53,5.8-1.6,8.19-1.07,2.39-2.5,4.44-4.29,6.14-1.79,1.71-3.86,3.01-6.21,3.9-2.35.9-4.8,1.34-7.36,1.34s-5.01-.45-7.36-1.34c-2.35-.9-4.42-2.2-6.21-3.9-1.79-1.71-3.22-3.75-4.29-6.14-1.07-2.39-1.6-5.12-1.6-8.19v-53.5ZM177.21,136.96c0,1.88.6,3.44,1.79,4.67,1.19,1.24,2.73,1.86,4.61,1.86s3.41-.62,4.61-1.86c1.19-1.24,1.79-2.79,1.79-4.67v-53.5c0-1.88-.6-3.43-1.79-4.67-1.2-1.24-2.73-1.86-4.61-1.86s-3.41.62-4.61,1.86c-1.2,1.24-1.79,2.8-1.79,4.67v53.5Z"/>
            <path class="cls-6" d="M210.49,83.45c0-3.07.53-5.8,1.6-8.19,1.07-2.39,2.5-4.44,4.29-6.14,1.79-1.71,3.86-3.01,6.21-3.9,2.35-.9,4.8-1.34,7.36-1.34s5.01.45,7.36,1.34c2.35.9,4.42,2.2,6.21,3.9,1.79,1.71,3.22,3.76,4.29,6.14,1.07,2.39,1.6,5.12,1.6,8.19v53.5c0,3.07-.53,5.8-1.6,8.19-1.07,2.39-2.5,4.44-4.29,6.14-1.79,1.71-3.86,3.01-6.21,3.9-2.35.9-4.8,1.34-7.36,1.34s-5.01-.45-7.36-1.34c-2.35-.9-4.42-2.2-6.21-3.9-1.79-1.71-3.22-3.75-4.29-6.14-1.07-2.39-1.6-5.12-1.6-8.19v-53.5ZM223.54,136.96c0,1.88.6,3.44,1.79,4.67,1.19,1.24,2.73,1.86,4.61,1.86s3.41-.62,4.61-1.86c1.19-1.24,1.79-2.79,1.79-4.67v-53.5c0-1.88-.6-3.43-1.79-4.67-1.2-1.24-2.73-1.86-4.61-1.86s-3.41.62-4.61,1.86c-1.2,1.24-1.79,2.8-1.79,4.67v53.5Z"/>
          </g>
        </g>
        <g>
          <g>
            <line class="cls-1" x1="29.36" y1="106.66" x2="26.53" y2="106.68"/>
            <line class="cls-4" x1="19.42" y1="106.72" x2="11.15" y2="106.77"/>
            <line class="cls-1" x1="7.59" y1="106.79" x2="4.76" y2="106.81"/>
          </g>
          <g>
            <line class="cls-1" x1="30.95" y1="86.02" x2="28.64" y2="84.38"/>
            <line class="cls-2" x1="22.95" y1="80.35" x2="16.33" y2="75.66"/>
            <line class="cls-1" x1="13.49" y1="73.65" x2="11.18" y2="72.01"/>
          </g>
          <g>
            <line class="cls-1" x1="11.18" y1="137.95" x2="13.67" y2="136.61"/>
            <line class="cls-3" x1="18.32" y1="134.11" x2="23.73" y2="131.2"/>
            <line class="cls-1" x1="26.06" y1="129.95" x2="28.55" y2="128.62"/>
          </g>
        </g>
        <g>
          <g>
            <line class="cls-1" x1="371.15" y1="106.66" x2="373.98" y2="106.68"/>
            <line class="cls-4" x1="381.1" y1="106.72" x2="389.37" y2="106.77"/>
            <line class="cls-1" x1="392.92" y1="106.79" x2="395.75" y2="106.81"/>
          </g>
          <g>
            <line class="cls-1" x1="369.56" y1="86.02" x2="371.87" y2="84.38"/>
            <line class="cls-2" x1="377.56" y1="80.35" x2="384.18" y2="75.66"/>
            <line class="cls-1" x1="387.03" y1="73.65" x2="389.34" y2="72.01"/>
          </g>
          <g>
            <line class="cls-1" x1="389.34" y1="137.95" x2="386.84" y2="136.61"/>
            <line class="cls-3" x1="382.19" y1="134.11" x2="376.78" y2="131.2"/>
            <line class="cls-1" x1="374.46" y1="129.95" x2="371.96" y2="128.62"/>
          </g>
        </g>
      </g>
    </g>
  </g>
</svg>