<svg id="レイヤー_1" data-name="レイヤー 1" xmlns="http://www.w3.org/2000/svg" viewBox="0 0 822.448 223.513"><defs><style>.cls-1{fill:gray;}.cls-1,.cls-3{fill-rule:evenodd;}.cls-2{fill:#fff;}.cls-3{fill:#505050;}</style></defs><path class="cls-1" d="M810.323,80.193c3.812,6.4,12.4,9.97,12.118,20.524-.269,9.994-6.854,13.516-10.41,19.791-4.045,7.134-.587,17.29-8.055,24.445-9.253,8.862-15.248,4.8-21.246,7.416-5.865,2.557-10.745,14.845-25.314,17.422-11.108,1.965-20.383-6.093-30.391-6.108-10.694-.016-17.765,11.779-31.273,9.832-14.028-2.023-15.03-9.831-26.359-14-10.029-3.688-22.939,3.144-33.314-4.087-9.882-6.888-6.307-17.39-11.391-26.217-3.991-6.929-13.992-11.71-13.887-21.658.117-11.254,8.112-14.54,10.886-22.359,3.43-9.666-1.121-20.212,7.12-27.183,8.845-7.482,19.3-2.912,27.608-7.639,8.61-4.9,10.8-16.68,28.021-18.955,17.621-2.329,27.1,9.291,39.133,9.656,11.337.345,18.024-8.826,31-6.186,13.924,2.833,17.224,13.729,24.179,16.905,7.172,3.276,15.945-.718,24.088,6.011,7.873,6.5,3.575,15.813,7.488,22.386Z"/><path class="cls-2" d="M696.005,66.253v2.06H678.174v-2.06h7.548V64.539h2.469v1.714Zm-.653,14.791c0,1.122-.224,1.774-1.02,2.142a8.149,8.149,0,0,1-3.3.387,6.9,6.9,0,0,0-.47-1.632h-5.263v.918h-2.121V77.371h7.792v3.958c.694.02,1.327.02,1.551,0,.306-.02.387-.081.387-.326v-4.55H681.357v7.161H678.99v-9.18h16.362Zm-2.693-11.956v4.489H681.52V69.088ZM690.19,70.7h-6.365v1.245h6.365Zm-1.367,8.283h-3.529v1.326h3.529Z"/><path class="cls-2" d="M698.152,74.434H705.9v9.078h-2.428v-.918h-3.039v1.02h-2.285Zm2.285,2.325v3.509h3.039V76.759ZM712.9,72.74H700.947V65.355H712.9Zm-2.469-5.059h-7.14v2.754h7.14Zm5.223,6.753v9.1h-2.448v-.939h-3.244v1.02h-2.326v-9.18Zm-2.448,5.834V76.759h-3.244v3.509Z"/><path class="cls-2" d="M730.6,80.187c2.081.734,4.427,1.713,5.815,2.387L733.6,83.655a40.264,40.264,0,0,0-5.3-2.407l1.837-1.061h-5.957l1.856.816a25.3,25.3,0,0,1-6.365,2.672,24.7,24.7,0,0,0-1.8-1.775,23.962,23.962,0,0,0,5.61-1.713h-3.019V71.863h6.773a5.809,5.809,0,0,0-1.407-1.489,5.041,5.041,0,0,0,1.183-1.02H725.17v2.121h-2.163V69.354h-1.795a6.814,6.814,0,0,1-1.958,3.386,7,7,0,0,0-1.592-1.509,5.539,5.539,0,0,0,1.734-4.366V65.008l1.551.388a24.977,24.977,0,0,0,4.243-.816l1.489,1.428a26.05,26.05,0,0,1-5.181.877v.1c0,.184,0,.408-.021.612h5.611v1.653a3.7,3.7,0,0,0,.713-2.367V65.029l1.632.387A31.559,31.559,0,0,0,734,64.58l1.468,1.448a31.809,31.809,0,0,1-5.569.878v.1a5.759,5.759,0,0,1-.021.591h6.386v1.755H733.7V71.5h-2.162V69.354h-2.061a5.419,5.419,0,0,1-2,2.509h6.651v8.324Zm-7.793-6h8.854v-.877H722.8Zm0,2.264h8.854v-.877H722.8Zm0,2.265h8.854v-.9H722.8Z"/><path class="cls-2" d="M740.561,67.742c1.714-.143,5.08-.449,8.814-.755,2.1-.183,4.325-.306,5.774-.367l.02,2.611a21.267,21.267,0,0,0-3.938.286,6.2,6.2,0,0,0-4.325,5.712c0,3.367,3.142,4.57,6.61,4.754l-.959,2.8c-4.284-.286-8.323-2.571-8.323-7a8.161,8.161,0,0,1,3.04-6.3c-1.918.2-6.08.653-8.446,1.163l-.266-2.8C739.379,67.824,740.174,67.783,740.561,67.742Zm13.322,6.263-1.55.694a15.792,15.792,0,0,0-1.591-2.836l1.51-.632A25.39,25.39,0,0,1,753.883,74.005Zm2.368-1-1.531.735a17.944,17.944,0,0,0-1.672-2.754l1.489-.694A30.74,30.74,0,0,1,756.251,73.005Z"/><path class="cls-2" d="M679.686,103.523c1.428,2.754,3.938,4.611,7.732,5.386a9.094,9.094,0,0,0-1.632,2.3,11.824,11.824,0,0,1-8.1-6.345c-1.142,2.591-3.468,4.9-8.079,6.3a10.019,10.019,0,0,0-1.55-2.142c4.284-1.244,6.344-3.264,7.323-5.508h-6.936v-2.448h7.63a16.558,16.558,0,0,0,.163-2.448v-.776h-3.917a15.145,15.145,0,0,1-1.652,2.653A17.6,17.6,0,0,0,668.3,99.2a15.791,15.791,0,0,0,3.306-6.814l2.57.551c-.224.836-.489,1.652-.775,2.448h2.835V92.16h2.551v3.223h6.263v2.468h-6.263v.776a19.881,19.881,0,0,1-.123,2.448h8.12v2.448Z"/><path class="cls-2" d="M693.493,106.726a13.055,13.055,0,0,1-2.918,4.529,13.617,13.617,0,0,0-1.938-1.367,9.063,9.063,0,0,0,2.551-3.733Zm12.955-8.65a23.588,23.588,0,0,1-2.367,7.589,10.142,10.142,0,0,0,4.1,3.346,9.359,9.359,0,0,0-1.692,2.183,11.86,11.86,0,0,1-3.938-3.285,13.471,13.471,0,0,1-4.3,3.346,11.247,11.247,0,0,0-.9-1.571l-1.305.673a16.2,16.2,0,0,0-2.1-3.386l1.958-.857a16.922,16.922,0,0,1,1.8,2.468,10.555,10.555,0,0,0,3.447-2.937,22.649,22.649,0,0,1-1.693-4.468,11.426,11.426,0,0,1-.918,1.244c-.225-.2-.612-.551-1.02-.877v4.468h-7.548V92.955h7.548v6.508a19.7,19.7,0,0,0,2.53-7.3l2.53.387a31.632,31.632,0,0,1-.775,3.244h6.1v2.285Zm-11.3-3.2h-2.9v1.836h2.9Zm0,3.652h-2.9v1.856h2.9Zm0,3.672h-2.9v1.877h2.9Zm5.917-4.121a24.315,24.315,0,0,0,1.529,5,21.036,21.036,0,0,0,1.287-5Z"/><path class="cls-2" d="M714.3,95.975c-.081,2.2-.245,6.773-.245,9.3,0,2.061,1.225,2.734,2.816,2.734,3.366,0,5.509-1.938,6.977-4.162l1.857,2.245a10.563,10.563,0,0,1-8.855,4.692c-3.345,0-5.508-1.469-5.508-4.958,0-2.733.2-8.1.2-9.853a12.976,12.976,0,0,0-.266-2.754l3.285.04C714.441,94.118,714.34,95.159,714.3,95.975Z"/><path class="cls-2" d="M735.784,95.811a25.008,25.008,0,0,0,2.754-.652l.082,2.366a35.326,35.326,0,0,1-3.571.714,37.541,37.541,0,0,1-4.366,8.732l-2.468-1.265a32.126,32.126,0,0,0,4.162-7.2c-.368.021-.714.021-1.061.021-.836,0-1.673-.021-2.55-.082l-.183-2.366a25.765,25.765,0,0,0,2.713.143c.612,0,1.224-.021,1.856-.082a17.141,17.141,0,0,0,.551-3.407l2.815.285C736.355,93.669,736.09,94.71,735.784,95.811Zm5.509,6.161c.019.592.081,1.571.122,2.592a13.311,13.311,0,0,1,4.222,2.611l-1.366,2.183a17.329,17.329,0,0,0-2.755-2.183v.2c0,1.9-1.04,3.366-3.937,3.366-2.53,0-4.529-1.122-4.529-3.366,0-2,1.673-3.53,4.509-3.53.489,0,.939.041,1.407.082-.082-1.51-.183-3.325-.224-4.57h2.551C741.231,100.218,741.272,101.075,741.293,101.972Zm-4.081,6.427c1.408,0,1.836-.775,1.836-1.9v-.408a7.306,7.306,0,0,0-1.653-.2c-1.182,0-1.937.531-1.937,1.245C735.458,107.889,736.09,108.4,737.212,108.4Zm2.693-10.854,1.306-2.019A35.106,35.106,0,0,1,746.25,98.3l-1.449,2.142A29.472,29.472,0,0,0,739.905,97.545Z"/><path class="cls-2" d="M751.7,97.341c-.021,1.327,0,2.857.122,4.326.286,2.937.9,4.957,2.184,4.957.959,0,1.775-2.387,2.162-4.019l2.04,2.489c-1.346,3.55-2.631,4.794-4.264,4.794-2.244,0-4.182-2.02-4.753-7.487-.2-1.877-.224-4.264-.224-5.508a12.438,12.438,0,0,0-.164-2.081l3.142.041A16.468,16.468,0,0,0,751.7,97.341Zm14.158,8.548-2.672,1.041c-.326-3.285-1.408-8.242-3.632-10.772l2.591-.836C764.082,97.668,765.632,102.768,765.856,105.889Z"/><path class="cls-2" d="M668.874,128.7a37.287,37.287,0,0,1-3.754,2.469,10.4,10.4,0,0,0,4.55,4.1,10.164,10.164,0,0,0-1.694,2.1c-3.631-1.938-5.651-5.692-6.814-10.446h-.04a13.217,13.217,0,0,1-1.694,1.184c3.836,3.345,3.693,8.425,1.673,9.894a3.354,3.354,0,0,1-2.489.857,16.973,16.973,0,0,1-1.734-.041,5.1,5.1,0,0,0-.693-2.326c.775.062,1.427.1,1.958.1a1.452,1.452,0,0,0,1.224-.428,2.662,2.662,0,0,0,.673-2.285,31.442,31.442,0,0,1-7.793,4.039,10.4,10.4,0,0,0-1.265-2.019,23.471,23.471,0,0,0,8.507-4.121,7.727,7.727,0,0,0-.387-.714,30.07,30.07,0,0,1-6.182,3.06,8.689,8.689,0,0,0-1.224-1.836,21.985,21.985,0,0,0,6.3-2.652c-.163-.164-.326-.327-.51-.49a30.365,30.365,0,0,1-4.835,1.734,14.459,14.459,0,0,0-1.244-1.9,24.688,24.688,0,0,0,6.242-2.061h-2.978v-2.04H665.63v2.04H663.3a18.2,18.2,0,0,0,.837,2.367,24.6,24.6,0,0,0,2.836-2.224Zm-14.913-2.775h-2.387v-4.549h7.344V119.78h2.489v1.591h7.467v4.549h-2.489v-2.345H653.961Z"/><path class="cls-2" d="M678.951,122.718a51.636,51.636,0,0,0,5.773-.592l-.02,2.367a61.134,61.134,0,0,1-6.651.51,14.262,14.262,0,0,1-1.163,2.08,6.941,6.941,0,0,1,2.306-.408,2.763,2.763,0,0,1,2.713,1.571c1.061-.489,1.918-.836,2.754-1.2.8-.347,1.51-.674,2.265-1.061l1.02,2.366c-.653.184-1.734.592-2.428.857-.918.367-2.081.816-3.326,1.387.021,1.143.062,2.652.083,3.591h-2.449c.061-.612.082-1.591.1-2.489-1.53.877-2.346,1.673-2.346,2.693,0,1.122.959,1.428,2.958,1.428a33.345,33.345,0,0,0,5.794-.571l-.081,2.632a51.208,51.208,0,0,1-5.774.346c-3.2,0-5.57-.775-5.57-3.406,0-2.612,2.449-4.244,4.774-5.448a1.568,1.568,0,0,0-1.428-.693,4.967,4.967,0,0,0-3.182,1.407,23.619,23.619,0,0,0-1.9,2.244l-2.183-1.632a19.993,19.993,0,0,0,4.509-5.63h-.265c-.836,0-2.326-.041-3.448-.123v-2.386a26.584,26.584,0,0,0,3.591.244h.979a11.308,11.308,0,0,0,.408-2.346l2.693.225A19.58,19.58,0,0,1,678.951,122.718Z"/><path class="cls-2" d="M696.291,130.49c-.653.2-1.306.409-1.958.592v5.161c0,1.123-.184,1.735-.8,2.122a5.288,5.288,0,0,1-2.835.449,9.082,9.082,0,0,0-.612-2.244,16.209,16.209,0,0,0,1.693.02c.245,0,.347-.081.347-.347v-4.508c-.674.2-1.347.387-1.938.551l-.531-2.326c.694-.143,1.551-.367,2.469-.592v-3.529h-2.143v-2.224h2.143V119.78h2.2v3.835h1.856v2.224h-1.856v2.938l1.652-.47Zm8.671,1.959a12.817,12.817,0,0,0,4.243,3.692A9.432,9.432,0,0,0,707.573,138a13.986,13.986,0,0,1-3.9-3.856v4.652h-2.407v-4.672a12.987,12.987,0,0,1-4.528,4.059,9.541,9.541,0,0,0-1.551-1.856,11.231,11.231,0,0,0,4.774-3.876h-3.53v-2.163h4.835v-2.019h2.306c-.489-.368-.612-1.02-.612-2.081v-2.958h2.163v2.937c0,.51.081.551.448.551h.979c.368,0,.45-.183.49-1.53a5.1,5.1,0,0,0,1.877.755c-.2,2.142-.755,2.693-2.1,2.693h-1.612a3.049,3.049,0,0,1-1.531-.286v1.938h4.917v2.163Zm-3.04-9.2c-.184,3.1-.858,4.917-4.53,5.855a6.367,6.367,0,0,0-1.163-1.714c2.979-.673,3.366-1.836,3.489-4.141ZM698.7,124.86h-2.061V120.7h11.914v4.039H706.41v-1.979H698.7Z"/><path class="cls-2" d="M715.624,123.575c-.081,2.2-.245,6.772-.245,9.3,0,2.061,1.224,2.734,2.815,2.734,3.366,0,5.509-1.938,6.978-4.162l1.856,2.244a10.561,10.561,0,0,1-8.855,4.693c-3.345,0-5.507-1.469-5.507-4.958,0-2.734.2-8.1.2-9.853a12.992,12.992,0,0,0-.266-2.755l3.285.041C715.766,121.718,715.665,122.758,715.624,123.575Z"/><path class="cls-2" d="M728.508,122.9c1.694-.143,5.06-.449,8.793-.775,2.1-.163,4.345-.306,5.774-.347l.019,2.611a23.115,23.115,0,0,0-3.936.266,6.206,6.206,0,0,0-4.305,5.733c0,3.345,3.142,4.569,6.589,4.753l-.959,2.8c-4.264-.286-8.3-2.591-8.3-7a8.218,8.218,0,0,1,3.02-6.3c-1.918.2-6.08.653-8.446,1.163l-.266-2.8C727.3,122.983,728.1,122.942,728.508,122.9Z"/><path class="cls-2" d="M749.269,124.941c-.02,1.326,0,2.856.122,4.325.286,2.938.9,4.958,2.184,4.958.959,0,1.774-2.387,2.162-4.019l2.04,2.489c-1.346,3.549-2.631,4.794-4.264,4.794-2.244,0-4.181-2.02-4.753-7.487-.2-1.877-.224-4.264-.224-5.508a12.434,12.434,0,0,0-.163-2.081l3.141.04A16.624,16.624,0,0,0,749.269,124.941Zm14.158,8.548-2.671,1.041c-.327-3.285-1.409-8.242-3.632-10.772l2.591-.836C761.653,125.268,763.2,130.368,763.427,133.489Z"/><path class="cls-2" d="M770.406,121.6c1.081,0,5.447-.082,6.61-.184a9.018,9.018,0,0,0,1.55-.224L779.892,123c-.469.306-.959.592-1.427.939-1.1.775-3.245,2.57-4.53,3.59a7.978,7.978,0,0,1,1.939-.224c3.467,0,6.1,2.162,6.1,5.141,0,3.223-2.448,5.773-7.384,5.773-2.836,0-4.979-1.305-4.979-3.345a3.418,3.418,0,0,1,3.652-3.183,4.081,4.081,0,0,1,4.345,3.489,2.957,2.957,0,0,0,1.693-2.775c0-1.836-1.835-3.081-4.243-3.081-3.121,0-5.161,1.653-7.344,4.142l-1.857-1.918c1.449-1.162,3.917-3.244,5.121-4.243,1.143-.939,3.264-2.652,4.264-3.53-1.04.021-3.856.143-4.937.2-.551.041-1.2.1-1.673.164l-.082-2.653A14.108,14.108,0,0,0,770.406,121.6Zm3.672,14.3a10.848,10.848,0,0,0,1.183-.061c-.122-1.327-.877-2.183-1.978-2.183-.776,0-1.266.469-1.266.979C772.017,135.387,772.854,135.9,774.078,135.9Z"/><path class="cls-1" d="M192.355,65.193c3.675,6.4,11.955,9.97,11.682,20.524-.259,9.994-6.607,13.516-10.035,19.791-3.9,7.134-.567,17.29-7.767,24.445-8.92,8.862-14.7,4.8-20.482,7.416-5.654,2.557-10.359,14.845-24.4,17.422-10.709,1.965-19.65-6.093-29.3-6.108-10.311-.016-17.127,11.779-30.15,9.832-13.524-2.023-14.49-9.831-25.412-14-9.668-3.688-22.115,3.144-32.117-4.087-9.527-6.888-6.081-17.39-10.982-26.217C9.542,107.286-.1,102.505,0,92.557.114,81.3,7.822,78.017,10.5,70.2,13.8,60.532,9.415,49.986,17.36,43.015c8.527-7.482,18.608-2.912,26.617-7.639,8.3-4.9,10.413-16.68,27.013-18.955,16.988-2.329,26.123,9.291,37.727,9.656,10.93.345,17.377-8.826,29.886-6.186,13.423,2.833,16.6,13.729,23.31,16.905,6.914,3.276,15.372-.718,23.223,6.011,7.59,6.5,3.446,15.813,7.219,22.386Z"/><path class="cls-2" d="M41.592,56.507c-.653,2-2.3,7.181-3.325,9.915,2.489-.245,5.385-.571,7.446-.816a24.7,24.7,0,0,0-2.142-3.734l2.55-1.04a62.727,62.727,0,0,1,4.468,8.487l-2.754,1.224c-.266-.694-.592-1.53-.979-2.407-3.306.387-9.487,1.04-12.058,1.305-.51.062-1.265.163-1.917.245l-.47-2.978c.694,0,1.572,0,2.244-.021.164,0,.368-.02.551-.02,1.184-3.02,2.938-8.61,3.53-10.731a14.732,14.732,0,0,0,.489-2.367l3.244.674C42.2,54.855,41.9,55.609,41.592,56.507Z"/><path class="cls-2" d="M55.8,55.528v6.9c0,.51.021,1.306.062,1.775H52.9c.02-.387.1-1.183.1-1.795V55.528a14.523,14.523,0,0,0-.081-1.571h2.938C55.817,54.426,55.8,54.875,55.8,55.528Zm9.446.306v4.039c0,4.386-.857,6.284-2.366,7.956a12.016,12.016,0,0,1-4.958,2.938L55.8,68.523a9.233,9.233,0,0,0,4.9-2.57c1.407-1.53,1.672-3.061,1.672-6.243V55.834a14.486,14.486,0,0,0-.122-2.04h3.08C65.283,54.365,65.242,55.018,65.242,55.834Z"/><path class="cls-2" d="M83.42,55.385c-.02.8-.02,1.53-.041,2.2.551-.041,1.061-.081,1.53-.1.572-.041,1.367-.081,1.959-.143v2.51c-.347-.021-1.428,0-1.959.02-.448.021-.979.041-1.57.082a36,36,0,0,1-.307,4.08c-.224,1.081-.734,1.346-1.775,1.346-.734,0-2.366-.2-3.08-.305l.061-2.265a10.8,10.8,0,0,0,1.877.265c.408,0,.592-.082.633-.469a22.792,22.792,0,0,0,.163-2.469c-1.816.143-3.815.327-5.55.51-.02,1.877-.04,3.754,0,4.631.041,2,.225,2.449,3.285,2.449a41.123,41.123,0,0,0,6.1-.51l-.1,2.774a57.784,57.784,0,0,1-5.814.326c-5.284,0-5.916-1.1-6.018-4.631-.021-.877-.021-2.856-.021-4.753-.551.061-1.02.1-1.367.143-.652.082-1.918.285-2.448.367l-.285-2.611c.591,0,1.53-.041,2.57-.143.367-.041.9-.082,1.551-.143v-2.06a15.762,15.762,0,0,0-.164-2.265h2.877a13.515,13.515,0,0,0-.123,2.122c0,.469-.02,1.163-.02,1.958,1.734-.163,3.713-.347,5.569-.51v-2.3a17.224,17.224,0,0,0-.142-1.877h2.734C83.5,53.936,83.441,54.834,83.42,55.385Z"/><path class="cls-2" d="M104.826,55.263l-1.408.591c1.306-.02,2.489-.02,3.1-.02l-.02,2.428c-1.224-.062-3.162-.123-5.917-.123.021,1.041.021,2.122.021,3.02a5.127,5.127,0,0,1,.775,2.835c0,2.673-1.571,6.039-6.569,7.447l-2.162-2.183a9.24,9.24,0,0,0,5-2.326,4.428,4.428,0,0,1-.939.1A3.609,3.609,0,0,1,93.177,63.3a3.882,3.882,0,0,1,4.1-3.836,5.264,5.264,0,0,1,.816.061c0-.449,0-.918-.02-1.366-3.081.04-6.263.183-8.773.326l-.061-2.469c2.326-.02,6.039-.1,8.793-.142a5.672,5.672,0,0,0-.02-.633c-.061-.816-.143-1.51-.184-1.775h2.938c-.061.327-.122,1.428-.143,1.755,0,.163-.02.387-.02.632h2.448a25.771,25.771,0,0,0-1.326-2.3l1.673-.694A23.169,23.169,0,0,1,104.826,55.263Zm-7.61,9.527c.857,0,1.592-.653,1.326-2.448a1.472,1.472,0,0,0-1.346-.714,1.525,1.525,0,0,0-1.551,1.611A1.541,1.541,0,0,0,97.216,64.79ZM107.58,54.671l-1.714.714a17.818,17.818,0,0,0-1.428-2.407l1.693-.694A22.253,22.253,0,0,1,107.58,54.671Z"/><path class="cls-2" d="M127.006,60.791a27.1,27.1,0,0,1-3.264,5.325l-2.08-1.2a25.872,25.872,0,0,0,1.591-2.509h-4.305v6.345c0,1.285-.285,1.9-1.265,2.244a12.769,12.769,0,0,1-4.019.367,8.26,8.26,0,0,0-.877-2.326c1.2.041,2.714.041,3.121.041.388-.02.511-.1.511-.408V62.4H108.36V60.1h9.283c-1.51-.632-3.162-1.285-4.468-1.774l1.2-1.836c.918.326,2.06.714,3.2,1.142a21.2,21.2,0,0,0,2.592-1.918h-9.854V53.488h12.2l.551-.143,1.734,1.367a33.685,33.685,0,0,1-4.712,3.876c.673.265,1.285.489,1.754.714l-.489.8h3.223l.449-.163Z"/><path class="cls-2" d="M146.138,68.1h-4.305v3.264h-2.509V68.1h-4.59c-.572,1.305-2,2.489-5.182,3.305A8.9,8.9,0,0,0,128,69.625a7.939,7.939,0,0,0,3.815-1.53h-4.08V66.177h4.855V64.933H130.1V57.1h2.04a9.273,9.273,0,0,0-.816-1.51H130.9a13.359,13.359,0,0,1-1.775,2,12.757,12.757,0,0,0-1.958-1.346,10.662,10.662,0,0,0,3.142-4.06l2.264.612c-.143.286-.286.592-.449.877h4.509v1.612a8.949,8.949,0,0,0,1.938-3.1l2.305.551c-.122.306-.265.632-.408.938h5.61v1.918h-3a6.453,6.453,0,0,1,.653.9l-1.368.612h1.816v7.834h-2.346v1.244h4.305ZM132.55,58.547v.714h9.059v-.714Zm0,2.815h9.059v-.755H132.55Zm0,2.122h9.059v-.755H132.55Zm1.266-7.9a6.181,6.181,0,0,1,.53,1.02L133,57.1h4.426a18.692,18.692,0,0,0-1.774-.919,6.177,6.177,0,0,0,.693-.591Zm5.508,10.588V64.933H135.04v1.244ZM139.3,55.589a12.222,12.222,0,0,1-1.285,1.51h3.488a12.849,12.849,0,0,0-1.122-1.51Z"/><path class="cls-2" d="M152,55.691a54.465,54.465,0,0,0-.979,7.895,9.673,9.673,0,0,0,.081,1.326c.265-.714.612-1.408.918-2.1l1.245,1.02c-.571,1.673-1.224,3.754-1.469,4.855a5.725,5.725,0,0,0-.1.959c0,.2.02.551.041.837l-2.306.183a23.979,23.979,0,0,1-.816-6.528,64.682,64.682,0,0,1,.836-8.507,19.541,19.541,0,0,0,.2-2l2.815.245A13.256,13.256,0,0,0,152,55.691Zm10.3-.714c-.02.449-.041,1.2-.061,2.1a27.945,27.945,0,0,0,3.162-.469v2.55c-.979.143-2.04.265-3.162.347.041,1.979.143,3.611.225,5a13.348,13.348,0,0,1,3.957,2.632l-1.407,2.142a21.289,21.289,0,0,0-2.489-2.06c-.123,1.958-1.225,3.345-3.978,3.345-2.816,0-4.57-1.183-4.57-3.325,0-2.061,1.754-3.489,4.529-3.489a9.1,9.1,0,0,1,1.326.082c-.041-1.265-.123-2.754-.143-4.2-.49.021-.979.021-1.449.021-1.2,0-2.366-.041-3.57-.123V57.1a34.1,34.1,0,0,0,3.57.183c.47,0,.959,0,1.429-.02,0-1-.021-1.836-.021-2.265a8.723,8.723,0,0,0-.142-1.346h2.917A12.428,12.428,0,0,0,162.3,54.977Zm-4.039,13.179c1.245,0,1.673-.653,1.673-1.857v-.367a6.292,6.292,0,0,0-1.632-.224c-1.163,0-1.939.49-1.939,1.265C156.363,67.809,157.18,68.156,158.261,68.156Z"/><path class="cls-2" d="M30.064,95.409l1.407-1.9a4.8,4.8,0,0,0,3.367,1.55c1.53,0,2.57-.734,2.57-2,0-1.428-.877-2.305-4.162-2.305V88.6c2.775,0,3.673-.918,3.673-2.183,0-1.142-.735-1.815-2.02-1.815a4.13,4.13,0,0,0-2.856,1.346l-1.53-1.836a6.721,6.721,0,0,1,4.529-1.877c2.917,0,4.9,1.428,4.9,3.958a3.5,3.5,0,0,1-2.51,3.325v.1a3.7,3.7,0,0,1,3,3.632c0,2.693-2.427,4.264-5.3,4.264A6.416,6.416,0,0,1,30.064,95.409Z"/><path class="cls-2" d="M42.323,99.938c1.592-.591,2.469-1.652,2.449-2.8h-.184a1.761,1.761,0,0,1-1.877-1.775,1.8,1.8,0,0,1,1.938-1.774c1.388,0,2.163,1.1,2.163,2.958a5.124,5.124,0,0,1-3.856,5.018Z"/><path class="cls-2" d="M48.568,89.8c0-4.978,2.02-7.569,5.121-7.569s5.1,2.612,5.1,7.569c0,5-2,7.712-5.1,7.712S48.568,94.8,48.568,89.8Zm7.385,0c0-4.08-.959-5.223-2.264-5.223S51.4,85.719,51.4,89.8c0,4.1.979,5.365,2.285,5.365S55.953,93.9,55.953,89.8Z"/><path class="cls-2" d="M60.854,89.8c0-4.978,2.02-7.569,5.121-7.569s5.1,2.612,5.1,7.569c0,5-2,7.712-5.1,7.712S60.854,94.8,60.854,89.8Zm7.385,0c0-4.08-.959-5.223-2.264-5.223S63.69,85.719,63.69,89.8c0,4.1.979,5.365,2.285,5.365S68.239,93.9,68.239,89.8Z"/><path class="cls-2" d="M73.141,89.8c0-4.978,2.02-7.569,5.12-7.569s5.1,2.612,5.1,7.569c0,5-2,7.712-5.1,7.712S73.141,94.8,73.141,89.8Zm7.385,0c0-4.08-.959-5.223-2.265-5.223s-2.284,1.143-2.284,5.223c0,4.1.979,5.365,2.284,5.365S80.526,93.9,80.526,89.8Z"/><path class="cls-2" d="M97.131,83.72c-.04,1.081-.081,2.2-.183,3.3h9.16s-.02.776-.061,1.082c-.306,6.263-.653,8.731-1.449,9.629a2.956,2.956,0,0,1-2.183,1.02,24.819,24.819,0,0,1-3.549.02,5.839,5.839,0,0,0-.857-2.386c1.408.122,2.8.122,3.407.122a1.315,1.315,0,0,0,.959-.265c.53-.51.857-2.51,1.081-6.876H96.662c-.632,3.775-2.1,7.3-5.9,9.589A7.254,7.254,0,0,0,89.012,97c5.243-2.938,5.406-8.365,5.549-13.281H89.808V81.333H107.74V83.72Z"/><path class="cls-2" d="M127.452,96.144c0,1.326-.286,2-1.142,2.387a9.432,9.432,0,0,1-3.856.448,9.928,9.928,0,0,0-.878-2.427c1.163.081,2.49.061,2.9.061.388-.02.531-.143.531-.49V91.186H112.682v7.793h-2.448V81.231h17.218Zm-14.77-7.365H117.5V83.638h-4.814Zm12.322,0V83.638h-5.1v5.141Z"/><path class="cls-2" d="M137.884,82.8c-.143.612-.285,1.367-.428,2.1.673-.041,1.285-.082,1.714-.082,2.162,0,3.692.959,3.692,3.9,0,2.407-.285,5.712-1.163,7.487a3.259,3.259,0,0,1-3.345,1.877,13.19,13.19,0,0,1-2.449-.286l-.448-2.693a11.909,11.909,0,0,0,2.509.429,1.511,1.511,0,0,0,1.53-.878A16.229,16.229,0,0,0,140.312,89c0-1.632-.694-1.856-1.979-1.856-.326,0-.836.041-1.408.081-.775,3.1-2.284,7.936-4.161,10.935l-2.653-1.06c1.979-2.673,3.387-6.794,4.122-9.589-.735.082-1.367.163-1.755.2-.571.1-1.652.245-2.264.347l-.245-2.775a19.153,19.153,0,0,0,2.183,0c.632-.02,1.591-.081,2.631-.163a22.615,22.615,0,0,0,.429-4.325l3.04.306C138.129,81.639,137.986,82.291,137.884,82.8Zm10.976,7.814-2.591,1.2a23.463,23.463,0,0,0-3.427-7.753l2.428-1.04A35.289,35.289,0,0,1,148.86,90.615Z"/><path class="cls-2" d="M154.467,89.677a9.982,9.982,0,0,1,6.018-1.939c3.57,0,5.651,2.2,5.651,4.672,0,3.713-2.938,6.569-11.424,5.855l-.775-2.672c6.12.836,9.363-.653,9.363-3.244,0-1.326-1.264-2.305-3.039-2.305a7.263,7.263,0,0,0-5.671,2.407,4.9,4.9,0,0,0-.755,1.183l-2.347-.591a75.076,75.076,0,0,0,1.02-8.528l2.734.388C154.977,86.025,154.61,88.514,154.467,89.677Zm8.813-7.284-.612,2.489c-2.06-.265-6.61-1.224-8.2-1.632l.653-2.448A62.432,62.432,0,0,0,163.28,82.393Z"/><path class="cls-2" d="M50.958,109.483c-.062.347-.143.714-.2,1.122a35.855,35.855,0,0,0,6.936-.9l.02,2.366a56.18,56.18,0,0,1-7.242.714c-.062.612-.123,1.245-.143,1.857a13.879,13.879,0,0,1,3.04-.368h.367a11.267,11.267,0,0,0,.184-1.224l2.488.592c-.081.224-.244.653-.367,1.04a5.278,5.278,0,0,1,3.938,5c0,2.9-1.694,5.692-6.712,6.446l-1.347-2.142c3.938-.428,5.529-2.427,5.529-4.427a3.034,3.034,0,0,0-2.122-2.856,15.649,15.649,0,0,1-4.284,6.2c.143.51.306,1.02.469,1.51l-2.346.714c-.081-.265-.183-.551-.265-.837a7.278,7.278,0,0,1-3.162.816,2.639,2.639,0,0,1-2.754-2.958c0-2.631,2.162-5.365,5.018-6.712q.061-1.315.184-2.57H47.53c-1.061,0-2.652-.082-3.611-.123l-.061-2.366a28.883,28.883,0,0,0,3.753.286h.817q.06-.582.122-1.1c.02-.388.061-.877.041-1.224l2.652.061C51.121,108.81,51.039,109.177,50.958,109.483Zm-4.632,13.138a4.337,4.337,0,0,0,2.04-.673,28.51,28.51,0,0,1-.428-4.08,5.322,5.322,0,0,0-2.55,3.754C45.388,122.275,45.673,122.621,46.326,122.621Zm4.162-2.366a12.568,12.568,0,0,0,2.571-3.9,10.194,10.194,0,0,0-2.816.449v.061A21.484,21.484,0,0,0,50.488,120.255Z"/><path class="cls-2" d="M65.924,111.034c-.509,2.264-1.244,6.548-.693,9.078.265-.632.653-1.632.979-2.366l1.285.816c-.612,1.754-1.142,3.815-1.407,4.957a7,7,0,0,0-.123,1c.021.224.041.571.062.857l-2.285.224a22.18,22.18,0,0,1-1.163-6.61,54.455,54.455,0,0,1,.673-8.16c.082-.551.1-1.245.123-1.755l3.019.286C66.231,109.871,66.006,110.605,65.924,111.034Zm10.324-.612c-.021.428-.021,1.489-.021,2.631,1.224-.1,2.366-.224,3.264-.387l-.02,2.652c-.878.1-2,.184-3.223.265v.837c0,4.814-.367,7.772-4.428,10.363l-2.366-1.856a7.761,7.761,0,0,0,2.387-1.632c1.55-1.632,1.9-3.448,1.9-6.9v-.714c-.693.021-1.407.021-2.081.021-.9,0-2.142-.062-3.162-.123v-2.57a21.712,21.712,0,0,0,3.1.2c.673,0,1.388-.021,2.1-.041-.02-1.122-.061-2.2-.1-2.754a10.17,10.17,0,0,0-.224-1.408h2.938C76.268,109.463,76.248,109.952,76.248,110.422Zm2.754.734-1.408.469a24.751,24.751,0,0,0-1.061-2.9l1.388-.428A22.7,22.7,0,0,1,79,111.156Zm2.142-.653-1.388.449a26.581,26.581,0,0,0-1.122-2.856l1.388-.449A26.794,26.794,0,0,1,81.144,110.5Z"/><path class="cls-2" d="M90.34,110.462c-.042.225-.1.49-.164.776,1.143-.163,2.285-.388,3.407-.653v2.55a37.394,37.394,0,0,1-3.978.673c-.183.877-.388,1.775-.612,2.612a63.366,63.366,0,0,1-3.244,9.445l-2.835-.959a44.236,44.236,0,0,0,3.529-9.18c.143-.551.306-1.122.428-1.714-.469.021-.918.041-1.346.041-.979,0-1.755-.041-2.469-.081L83,111.421a20.089,20.089,0,0,0,2.571.164q.886,0,1.836-.062.123-.672.183-1.163a10.446,10.446,0,0,0,.062-2.06l3.121.245C90.605,109.1,90.421,110.014,90.34,110.462Zm2.448,11.078c0,.9.612,1.571,2.8,1.571a23.965,23.965,0,0,0,4.243-.428l-.1,2.611a32.7,32.7,0,0,1-4.162.286c-3.427,0-5.284-1.184-5.284-3.244a14.2,14.2,0,0,1,.368-2.734l2.427.245A6.991,6.991,0,0,0,92.788,121.54Zm3.1-7.038c1.163,0,2.388.061,3.591.183l-.061,2.449a29.785,29.785,0,0,0-3.509-.245,35.03,35.03,0,0,0-3.938.2v-2.387C93.114,114.6,94.583,114.5,95.888,114.5Z"/><path class="cls-2" d="M112.867,111.523c-1.326,1.061-4.019,3.142-5.386,4.305-1.081.938-1.06,1.163.041,2.122,1.53,1.285,5.406,4.345,7.487,6.365l-2.387,2.183c-.571-.633-1.162-1.286-1.775-1.9-1.244-1.285-4.243-3.835-6.1-5.426-2.041-1.734-1.877-2.816.163-4.529,1.612-1.306,4.407-3.57,5.773-4.9a14.044,14.044,0,0,0,1.571-1.734l2.387,2.1C114.009,110.605,113.336,111.136,112.867,111.523Z"/><path class="cls-2" d="M125.862,111.2a25.107,25.107,0,0,0,2.754-.653l.081,2.366a35.273,35.273,0,0,1-3.57.715,37.553,37.553,0,0,1-4.366,8.731l-2.468-1.265a32.18,32.18,0,0,0,4.162-7.2c-.367.02-.714.02-1.061.02-.836,0-1.673-.02-2.55-.081l-.184-2.367a25.783,25.783,0,0,0,2.714.143c.611,0,1.224-.02,1.856-.082a17.141,17.141,0,0,0,.551-3.407l2.815.286C126.433,109.055,126.168,110.1,125.862,111.2Zm5.508,6.161c.02.592.082,1.571.122,2.591a13.341,13.341,0,0,1,4.223,2.611l-1.366,2.183a17.329,17.329,0,0,0-2.755-2.183v.2c0,1.9-1.04,3.366-3.937,3.366-2.53,0-4.529-1.122-4.529-3.366,0-2,1.673-3.529,4.509-3.529.489,0,.938.041,1.407.081-.081-1.509-.184-3.325-.224-4.569h2.55C131.309,115.6,131.35,116.46,131.37,117.358Zm-4.08,6.426c1.407,0,1.836-.775,1.836-1.9v-.408a7.355,7.355,0,0,0-1.653-.2c-1.183,0-1.938.53-1.938,1.244C125.535,123.274,126.168,123.784,127.29,123.784Zm2.693-10.853,1.305-2.02a35.15,35.15,0,0,1,5.039,2.775l-1.448,2.142A29.376,29.376,0,0,0,129.983,112.931Z"/><path class="cls-2" d="M141.776,112.727c-.021,1.326,0,2.856.122,4.325.285,2.938.9,4.957,2.183,4.957.959,0,1.775-2.386,2.162-4.018l2.04,2.488c-1.346,3.55-2.631,4.8-4.263,4.8-2.244,0-4.182-2.02-4.754-7.488-.2-1.876-.224-4.263-.224-5.508a12.45,12.45,0,0,0-.163-2.081l3.141.041A16.6,16.6,0,0,0,141.776,112.727Zm14.158,8.548-2.673,1.041c-.326-3.285-1.407-8.242-3.631-10.772l2.591-.837C154.159,113.053,155.709,118.154,155.934,121.275Z"/><path class="cls-3" d="M562.441,24.778c12.628,8.755,36.737,10.2,39.53,34.619,2.35,20.533-13.784,34.615-16.463,48.775-2.177,11.508-.8,22.278-11.855,31.519-10.668,8.916-25.963.862-37.35,3.227-14.124,2.935-19.705,15.531-49.58,11.035-21.954-3.3-30.738-16.774-40.316-22.1-13.181-7.327-47.608-2.483-54.461-28.659-6.306-24.085,9.006-32.9,13.391-46.695,3.215-10.113.917-31.161,16.418-39.953,21.486-12.186,41.008-3.92,54.2-5.181,17.657-1.689,25.285-15.514,50.578-10.127,19.669,4.189,24.152,15.388,35.907,23.539Z"/><path class="cls-2" d="M434.707,59.376c-.653,2-2.305,7.181-3.325,9.915,2.489-.245,5.386-.571,7.446-.816a24.547,24.547,0,0,0-2.142-3.733l2.55-1.041a62.614,62.614,0,0,1,4.468,8.487l-2.754,1.224c-.265-.694-.592-1.53-.979-2.407-3.305.387-9.487,1.04-12.057,1.305-.511.062-1.265.163-1.918.245l-.469-2.978c.693,0,1.571,0,2.244-.021.163,0,.367-.02.55-.02,1.184-3.02,2.938-8.609,3.53-10.731a14.732,14.732,0,0,0,.489-2.367l3.245.674C435.319,57.724,435.013,58.479,434.707,59.376Z"/><path class="cls-2" d="M461.38,58.54l-1.142.489,1.489.918a10.913,10.913,0,0,0-.673,1.469,22.058,22.058,0,0,1-3.02,5.876c.878.632,1.673,1.224,2.285,1.713l-1.958,2.306c-.551-.51-1.306-1.143-2.142-1.816a19.125,19.125,0,0,1-7.283,4.835l-2.367-2.06a16.951,16.951,0,0,0,7.467-4.448c-1.326-.959-2.673-1.877-3.713-2.55l1.815-1.856c1.082.612,2.367,1.448,3.673,2.325a15.083,15.083,0,0,0,2.223-4.508H452.2a24.549,24.549,0,0,1-5.386,5.283l-2.2-1.713a19.029,19.029,0,0,0,6.508-6.773,9.208,9.208,0,0,0,.918-2.122l2.959.918c-.49.714-1.02,1.632-1.265,2.081h4.162a6.4,6.4,0,0,0,1.591-.184,20.973,20.973,0,0,0-1.326-2.325l1.612-.653A26,26,0,0,1,461.38,58.54Zm2.448-.959-1.612.714a21.574,21.574,0,0,0-1.652-2.815l1.612-.674A32.076,32.076,0,0,1,463.828,57.581Z"/><path class="cls-2" d="M468.938,58.682a54.142,54.142,0,0,0-.979,7.488,9.879,9.879,0,0,0,.081,1.326c.306-.694.633-1.408.918-2.081l1.265,1c-.571,1.694-1.244,3.917-1.469,5a6.182,6.182,0,0,0-.1.959c0,.224.021.55.041.836l-2.367.163a26.128,26.128,0,0,1-.8-6.671,56.8,56.8,0,0,1,.857-8.079c.061-.571.183-1.346.2-2l2.857.245A18.679,18.679,0,0,0,468.938,58.682Zm5.039,9.977c0,.9.775,1.448,2.856,1.448a24.136,24.136,0,0,0,5.121-.53l.04,2.754a28.881,28.881,0,0,1-5.263.387c-3.509,0-5.2-1.244-5.2-3.345a12.427,12.427,0,0,1,.348-2.652l2.346.224A6.888,6.888,0,0,0,473.977,68.659Zm7.385-10.446v2.632a54.776,54.776,0,0,1-8.772,0V58.234A41.948,41.948,0,0,0,481.362,58.213Z"/><path class="cls-2" d="M488.491,62.946c0,3.224-.326,8.2-2.244,11.282a9.316,9.316,0,0,0-2.081-1.346c1.755-2.877,1.9-7.059,1.9-9.936V57.805h7.181v-2.57h2.53v2.57h7.365v2.326H488.491ZM501.078,74.31a12.4,12.4,0,0,0-.693-1.755c-4.305.347-8.875.673-12.037.857l-.224-2.509c.714-.021,1.509-.062,2.387-.082a62.5,62.5,0,0,0,2.672-9.731l2.775.551a91.867,91.867,0,0,1-2.836,9.058c1.938-.082,4.08-.184,6.181-.306a38.2,38.2,0,0,0-2.386-3.775l2.264-.979a32.338,32.338,0,0,1,4.407,7.549Z"/><path class="cls-2" d="M508.628,60.4c-.02,1.326,0,2.856.122,4.325.286,2.938.9,4.958,2.183,4.958.959,0,1.775-2.387,2.163-4.019l2.04,2.489c-1.347,3.549-2.632,4.794-4.264,4.794-2.244,0-4.182-2.02-4.753-7.487-.2-1.877-.225-4.264-.225-5.509a12.326,12.326,0,0,0-.163-2.08l3.142.04A16.493,16.493,0,0,0,508.628,60.4Zm14.158,8.548-2.672,1.041c-.327-3.285-1.408-8.242-3.631-10.772l2.59-.836C521.011,60.722,522.562,65.823,522.786,68.944Z"/><path class="cls-2" d="M542.4,64.15a36.98,36.98,0,0,1-3.753,2.468,10.393,10.393,0,0,0,4.549,4.1,10.213,10.213,0,0,0-1.693,2.1c-3.631-1.938-5.651-5.692-6.814-10.445h-.041a13.032,13.032,0,0,1-1.693,1.183c3.836,3.346,3.693,8.426,1.673,9.9a3.354,3.354,0,0,1-2.489.857,16.973,16.973,0,0,1-1.734-.041,5.09,5.09,0,0,0-.694-2.326c.775.061,1.428.1,1.959.1a1.453,1.453,0,0,0,1.224-.428,2.665,2.665,0,0,0,.673-2.285,31.459,31.459,0,0,1-7.793,4.039,10.487,10.487,0,0,0-1.265-2.02,23.453,23.453,0,0,0,8.507-4.12,7.644,7.644,0,0,0-.388-.715,30.066,30.066,0,0,1-6.181,3.061,8.689,8.689,0,0,0-1.224-1.836,21.958,21.958,0,0,0,6.3-2.653c-.163-.163-.326-.326-.51-.489a30.5,30.5,0,0,1-4.835,1.734,14.459,14.459,0,0,0-1.244-1.9,24.688,24.688,0,0,0,6.242-2.061h-2.978v-2.04h10.955v2.04h-2.326a18.056,18.056,0,0,0,.837,2.367,24.5,24.5,0,0,0,2.835-2.224Zm-14.913-2.775h-2.386V56.826h7.344V55.235h2.489v1.591H542.4v4.549h-2.488V59.029H527.491Z"/><path class="cls-2" d="M546.5,62.661c.592-.245,1.224-.51,1.836-.775-.286-.612-.591-1.2-.9-1.735a17.377,17.377,0,0,0-1.2-1.8l2.652-1.02c.183.367.592,1.2.816,1.591.306.592.633,1.245.959,1.938,1.244-.55,2.489-1.06,3.672-1.448a33.374,33.374,0,0,0-2.815-2.612l1.877-1.3a31.726,31.726,0,0,1,2.958,2.611L554.742,59.3a10.413,10.413,0,0,1,2.938-.49c3.162,0,5.059,1.917,5.059,4.284,0,2.856-1.958,4.672-5.08,4.672a10.054,10.054,0,0,1-3.141-.571l.061-2.571a7.7,7.7,0,0,0,2.836.694c1.53,0,2.652-.837,2.652-2.306,0-1.04-.918-1.876-2.448-1.876a16.72,16.72,0,0,0-6,1.836c.2.428.387.857.571,1.265.959,2.223,2.53,6.589,3.2,8.874l-2.795.734a63.22,63.22,0,0,0-2.734-8.486c-.183-.429-.367-.857-.55-1.265-1.469.734-2.755,1.428-3.632,1.815l-1.2-2.59A17.13,17.13,0,0,0,546.5,62.661Z"/><path class="cls-2" d="M439.375,90.4c0,3.305-.265,8.323-1.939,11.506a9.7,9.7,0,0,0-2.019-1.347c1.489-2.937,1.611-7.181,1.611-10.159V84.548h7.406V82.835h2.53v1.713h7.364v2.184H439.375Zm6.283,1.938a16.984,16.984,0,0,1-1.9,6.059,9.032,9.032,0,0,0,5.018,1.1c1,0,4.774,0,6.019-.062a7.985,7.985,0,0,0-.755,2.163h-5.386c-2.55,0-4.57-.306-6.1-1.469a8.868,8.868,0,0,1-2.224,1.816,7.971,7.971,0,0,0-1.509-1.592,7.94,7.94,0,0,0,2.264-1.775,11.139,11.139,0,0,1-1.469-3.345l1.775-.551a7.878,7.878,0,0,0,.878,2.121,11.782,11.782,0,0,0,1.04-3h-1.428l-.347.591-1.9-.591c.755-1.286,1.612-2.857,2.284-4.183h-2V87.711h3.163l.346-.1,1.489.51c-.55,1.183-1.264,2.53-2,3.855h1.061l.367-.04Zm5.447,1.367v2.325h2.836v2.02h-7.732v-2.02h2.652V93.709h-3v-2.04h3V89.975c-.816.122-1.632.2-2.407.265a7.263,7.263,0,0,0-.592-1.693,31.043,31.043,0,0,0,6.528-1.326l1.592,1.653a19.6,19.6,0,0,1-2.877.754v2.041h3.2v2.04Z"/><path class="cls-2" d="M460.476,86.16a54.465,54.465,0,0,0-.979,7.9,9.519,9.519,0,0,0,.082,1.326c.265-.714.612-1.407.918-2.1l1.244,1.02c-.571,1.673-1.224,3.754-1.469,4.856a5.7,5.7,0,0,0-.1.959c0,.2.021.55.041.836l-2.305.184a23.947,23.947,0,0,1-.816-6.529,64.7,64.7,0,0,1,.836-8.507,19.223,19.223,0,0,0,.2-2l2.815.245A13.244,13.244,0,0,0,460.476,86.16Zm10.3-.714c-.021.449-.041,1.2-.062,2.1a27.93,27.93,0,0,0,3.163-.469v2.55c-.979.143-2.04.266-3.163.347.041,1.979.143,3.611.225,5a13.373,13.373,0,0,1,3.958,2.632l-1.408,2.142A21.39,21.39,0,0,0,471,97.687c-.122,1.958-1.224,3.346-3.978,3.346-2.815,0-4.57-1.184-4.57-3.326,0-2.06,1.755-3.488,4.529-3.488a9.108,9.108,0,0,1,1.326.081c-.04-1.265-.122-2.754-.142-4.2-.49.021-.98.021-1.449.021-1.2,0-2.366-.041-3.57-.122V87.568a34.1,34.1,0,0,0,3.57.184c.469,0,.959,0,1.428-.021,0-1-.02-1.836-.02-2.264a8.611,8.611,0,0,0-.143-1.347H470.9A12.729,12.729,0,0,0,470.779,85.446Zm-4.04,13.179c1.245,0,1.673-.653,1.673-1.856V96.4a6.329,6.329,0,0,0-1.632-.224c-1.163,0-1.938.49-1.938,1.265C464.842,98.278,465.658,98.625,466.739,98.625Z"/><path class="cls-2" d="M479.709,88c-.02,1.326,0,2.856.122,4.325.286,2.938.9,4.958,2.183,4.958.959,0,1.775-2.387,2.163-4.019l2.04,2.489c-1.347,3.549-2.632,4.794-4.264,4.794-2.244,0-4.182-2.02-4.753-7.487-.2-1.877-.225-4.264-.225-5.509a12.326,12.326,0,0,0-.163-2.08l3.142.04A16.493,16.493,0,0,0,479.709,88Zm14.158,8.548L491.2,97.585c-.327-3.285-1.408-8.242-3.631-10.772l2.59-.836C492.092,88.323,493.643,93.423,493.867,96.544Z"/><path class="cls-2" d="M500.044,92.546a9.984,9.984,0,0,1,6.018-1.939c3.57,0,5.652,2.2,5.652,4.672,0,3.714-2.938,6.569-11.425,5.856l-.775-2.673c6.12.836,9.364-.653,9.364-3.244,0-1.326-1.265-2.305-3.04-2.305a7.263,7.263,0,0,0-5.671,2.407,4.923,4.923,0,0,0-.755,1.183l-2.346-.591a75.3,75.3,0,0,0,1.02-8.528l2.733.388C500.554,88.894,500.187,91.383,500.044,92.546Zm8.813-7.283-.612,2.489c-2.06-.266-6.61-1.225-8.2-1.633l.653-2.448A62.606,62.606,0,0,0,508.857,85.263Z"/><path class="cls-2" d="M522.247,86.466A24.772,24.772,0,0,0,525,85.813l.082,2.367a35.358,35.358,0,0,1-3.57.714,37.659,37.659,0,0,1-4.366,8.732l-2.469-1.265a32.131,32.131,0,0,0,4.162-7.2c-.367.021-.714.021-1.061.021-.836,0-1.673-.021-2.55-.082l-.183-2.366a26.023,26.023,0,0,0,2.713.142c.612,0,1.224-.02,1.856-.081a17.152,17.152,0,0,0,.551-3.407l2.816.285C522.819,84.324,522.553,85.365,522.247,86.466Zm5.509,6.161c.02.592.081,1.571.122,2.591A13.347,13.347,0,0,1,532.1,97.83l-1.367,2.183a17.272,17.272,0,0,0-2.754-2.183v.2c0,1.9-1.041,3.366-3.938,3.366-2.529,0-4.529-1.122-4.529-3.366,0-2,1.673-3.53,4.509-3.53.489,0,.939.041,1.408.082-.082-1.51-.184-3.326-.225-4.57h2.551C527.694,90.873,527.735,91.73,527.756,92.627Zm-4.081,6.427c1.408,0,1.836-.776,1.836-1.9v-.408a7.347,7.347,0,0,0-1.652-.2c-1.184,0-1.938.531-1.938,1.245C521.921,98.544,522.553,99.054,523.675,99.054ZM526.368,88.2l1.3-2.02a35.109,35.109,0,0,1,5.04,2.775L531.264,91.1A29.472,29.472,0,0,0,526.368,88.2Z"/><path class="cls-2" d="M538.161,88c-.02,1.326,0,2.856.122,4.325.286,2.938.9,4.958,2.183,4.958.959,0,1.775-2.387,2.163-4.019l2.04,2.489c-1.347,3.549-2.632,4.794-4.264,4.794-2.244,0-4.182-2.02-4.753-7.487-.2-1.877-.225-4.264-.225-5.509a12.326,12.326,0,0,0-.163-2.08l3.142.04A16.493,16.493,0,0,0,538.161,88Zm14.158,8.548-2.672,1.041c-.327-3.285-1.408-8.242-3.631-10.772l2.591-.836C550.545,88.323,552.1,93.423,552.319,96.544Z"/><path class="cls-3" d="M361.552,93.378c11.779,8.755,34.269,10.2,36.874,34.619,2.192,20.533-12.858,34.615-15.358,48.775-2.03,11.508-.744,22.278-11.058,31.519-9.951,8.916-24.219.862-34.841,3.227-13.175,2.935-18.381,15.531-46.25,11.035-20.479-3.3-28.673-16.774-37.607-22.1-12.3-7.327-44.41-2.483-50.8-28.659-5.881-24.085,8.4-32.9,12.492-46.695,3-10.113.856-31.161,15.315-39.953,20.043-12.186,38.254-3.92,50.561-5.181,16.471-1.689,23.586-15.514,47.18-10.127,18.348,4.189,22.529,15.388,33.5,23.539Z"/><path class="cls-2" d="M247.754,125.278c-.061.878-.143,1.653-.2,2.306h2.55v2.121h-2.876a4.773,4.773,0,0,1-.653,1.735,2.308,2.308,0,0,1-1.775.958,15.721,15.721,0,0,1-2.815.021,4.412,4.412,0,0,0-.572-1.8,22.475,22.475,0,0,0,2.265.123.829.829,0,0,0,.775-.367,1.744,1.744,0,0,0,.306-.674h-8.262c-.062.408-.143.8-.2,1.143l-2.449-.163c.307-1.49.633-3.387.939-5.407h-3.04V123.1h3.367c.183-1.347.346-2.673.469-3.917a18.736,18.736,0,0,1-1.632,1.734,7.242,7.242,0,0,0-2.02-1.53,15.063,15.063,0,0,0,4.345-6.019l2.612.429c-.225.489-.449.979-.694,1.448h11.547V117.4H236.9c-.306.469-.653.938-1,1.387h12.2s-.021.755-.021,1.061c-.061,1.2-.1,2.264-.163,3.244h2.714v2.182Zm-10.547,0c-.123.8-.245,1.571-.347,2.306h2.917c.1-.714.2-1.489.306-2.306Zm.591-4.365c-.1.714-.183,1.448-.285,2.183h2.795c.081-.735.142-1.469.2-2.183Zm7.345,6.671c.081-.633.163-1.408.224-2.306h-3.06c-.1.817-.184,1.592-.286,2.306Zm.367-4.488c.041-.674.081-1.408.122-2.183h-2.876c-.062.714-.123,1.448-.2,2.183Z"/><path class="cls-2" d="M268.366,129.318c0,1.469-.347,2.162-1.285,2.57a12.333,12.333,0,0,1-4.509.469,10.434,10.434,0,0,0-1.02-2.55c1.428.082,3.142.062,3.591.062.489,0,.653-.164.653-.592v-2.958h-8.732a10.982,10.982,0,0,1-3.448,6.1,9.569,9.569,0,0,0-1.877-1.755c3.081-2.631,3.367-6.528,3.367-9.629v-6.712h13.26Zm-2.57-5.345v-2.489h-8.181c-.021.775-.062,1.632-.143,2.489Zm-8.181-7.283v2.489H265.8V116.69Z"/><path class="cls-2" d="M281.663,131.6l-1.531-2.428a15.634,15.634,0,0,0,1.9-.327,5.535,5.535,0,0,0,4.651-5.467c0-2.815-1.53-4.917-4.284-5.386a41.433,41.433,0,0,1-1.224,5.529c-1.224,4.121-2.979,6.651-5.2,6.651-2.265,0-4.142-2.489-4.142-5.937,0-4.713,4.08-8.732,9.365-8.732,5.059,0,8.241,3.509,8.241,7.957C289.435,127.767,286.8,130.807,281.663,131.6Zm-5.611-4.57c.857,0,1.653-1.285,2.489-4.04a30.569,30.569,0,0,0,1.081-4.937,6.422,6.422,0,0,0-5.181,5.917C274.441,126.033,275.256,127.033,276.052,127.033Z"/><path class="cls-2" d="M307.324,130.073c.653,0,.775-.449.857-3.224a7.462,7.462,0,0,0,2.223.979c-.245,3.571-.856,4.529-2.876,4.529H305.1c-2.305,0-2.877-.775-2.877-3.1V123.1h-2.9c-.346,4.284-1.285,7.548-6.63,9.343a6.832,6.832,0,0,0-1.469-2.122c4.672-1.387,5.223-3.9,5.508-7.221h-4.977v-2.285h7.834v-7.447h2.448v7.447h8.038V123.1h-5.406v6.14c0,.714.1.837.775.837Zm-12-9.976a23.808,23.808,0,0,0-2.1-5.04l2.182-.836a21.479,21.479,0,0,1,2.285,4.937Zm13.607-5.142a45.068,45.068,0,0,1-2.815,5.019l-2.122-.8a24.142,24.142,0,0,0,2.346-5.1Z"/><path class="cls-2" d="M329.411,125.36a.258.258,0,0,0,.224-.1,1.276,1.276,0,0,0,.123-.632c.04-.368.061-1.2.061-2.265a5.255,5.255,0,0,0,1.489.816,17.045,17.045,0,0,1-.224,2.754,1.773,1.773,0,0,1-.571,1.041,1.737,1.737,0,0,1-1.082.306h-.9a1.879,1.879,0,0,1-1.326-.49c-.327-.367-.449-.8-.449-2.285v-1.489l-.816,1.612a12.8,12.8,0,0,0-1.184-1.1,8.4,8.4,0,0,1-2.631,4.162,6.122,6.122,0,0,0-.857-1.061v.041c-3.162.326-6.467.652-8.854.877l-.143-1.979c1-.061,2.224-.143,3.57-.245v-1.244h-3v-1.694h3v-1.1h2.02c-.428-.245-.53-.755-.53-1.653v-.836h-1.02c-.245,1.673-.98,2.693-3.346,3.244a4.1,4.1,0,0,0-.959-1.428c1.714-.306,2.265-.857,2.448-1.816h-2.04v-1.673h3.427v-1h-2.713v-1.632h2.713v-1.1h2.142v1.1H320.7v1.632h-2.714v1h3.285v1.673h-2.244v.836c0,.367.041.408.265.408h.469c.245,0,.307-.1.347-.938a4.388,4.388,0,0,0,1.449.571c-.143,1.469-.592,1.816-1.551,1.816h-1.02a2.664,2.664,0,0,1-1-.143v1.04h2.775v1.694h-2.775v1.081c1.082-.1,2.184-.184,3.265-.286v.633a7.457,7.457,0,0,0,1.693-3.346c-.551-.388-1.122-.775-1.632-1.081l.979-1.795c.326.183.674.387,1.041.612q.091-.858.122-1.775H321.74v-2.142h1.775c.021-.837.041-1.694.041-2.612h2.183c-.021.9-.021,1.775-.041,2.612h3.244v8.486a3.138,3.138,0,0,0,.041.8.178.178,0,0,0,.183.1ZM312.07,131.5a9.941,9.941,0,0,0,2.367-3.571l2.346.613a11.552,11.552,0,0,1-2.407,3.876Zm8.181-3.1a22.406,22.406,0,0,1,.469,3.529l-2.407.306a24.26,24.26,0,0,0-.327-3.611Zm4.08-.163a19.5,19.5,0,0,1,1.1,3.508l-2.428.47a17.98,17.98,0,0,0-.959-3.611Zm1.265-10.119a26.789,26.789,0,0,1-.306,3.06,17.712,17.712,0,0,1,1.469,1.163v-4.223Zm2.856,9.731a29.3,29.3,0,0,1,2.489,3.8l-2.489.795a23.575,23.575,0,0,0-2.346-3.876Z"/><path class="cls-2" d="M345.824,129.318c1.959.632,4.1,1.407,5.386,1.958l-2.693,1.163a42.9,42.9,0,0,0-5.447-2.162l1.551-.959h-5.448l1.612.734a26.052,26.052,0,0,1-6.365,2.428,15.722,15.722,0,0,0-1.754-1.734,27.643,27.643,0,0,0,5.406-1.428H335.3v-6.059c-.47.1-.959.183-1.51.265a9.448,9.448,0,0,0-1.143-1.877c2.53-.326,4-.836,4.836-1.51h-1.8l-.061.184-2.2-.143a30.943,30.943,0,0,0,1.285-3.672h3.876v-.816h-4.631v-1.428h4.631v-.877h2.2v.877h2.265v-.877h2.305v.877h4.325v3.652h-4.325v.8h5.651s-.02.408-.041.633c-.1,1.326-.224,2.06-.571,2.427a1.811,1.811,0,0,1-1.183.49c-.081,0-.184.02-.306.02v7.039Zm-9.609-10.609h2.224a2.49,2.49,0,0,0,.123-.8h-2.081Zm10.222,4.162h-8.773v.8h8.773Zm0,2.1h-8.773v.816h8.773Zm-8.773,2.958h8.773v-.836h-8.773Zm2.673-7.793a4.141,4.141,0,0,1-1,1.347h3.713v-1.347Zm2.713-2.223h-2.265q-.03.4-.061.8h2.326Zm-2.265-1.408h2.265v-.816h-2.265Zm4.57-.816v.816h2.122v-.816Zm0,4.447v1.347h1.775a4.172,4.172,0,0,0-.245-.673,6.072,6.072,0,0,0,1.122.061.469.469,0,0,0,.429-.143,1.245,1.245,0,0,0,.183-.592Z"/><path class="cls-2" d="M360.9,116.322a51.639,51.639,0,0,0,5.773-.591l-.021,2.366a60.617,60.617,0,0,1-6.65.51,14.223,14.223,0,0,1-1.163,2.081,6.911,6.911,0,0,1,2.306-.408,2.763,2.763,0,0,1,2.713,1.571c1.061-.49,1.917-.837,2.754-1.2.8-.346,1.51-.673,2.265-1.06l1.02,2.366c-.653.184-1.735.592-2.428.857-.918.367-2.081.816-3.326,1.387.021,1.143.062,2.652.082,3.591h-2.448c.061-.612.081-1.592.1-2.489-1.53.877-2.346,1.673-2.346,2.693,0,1.122.959,1.428,2.958,1.428a33.367,33.367,0,0,0,5.794-.572l-.082,2.632a50.933,50.933,0,0,1-5.773.347c-3.2,0-5.57-.775-5.57-3.407,0-2.611,2.448-4.243,4.774-5.447a1.57,1.57,0,0,0-1.428-.694,4.966,4.966,0,0,0-3.182,1.408,23.473,23.473,0,0,0-1.9,2.244l-2.183-1.632a20.039,20.039,0,0,0,4.509-5.63h-.265c-.837,0-2.326-.041-3.448-.123v-2.387a26.571,26.571,0,0,0,3.59.245h.98a11.386,11.386,0,0,0,.408-2.346l2.693.224A19.518,19.518,0,0,1,360.9,116.322Z"/><path class="cls-2" d="M239.76,151.756c-.632.184-1.265.388-1.918.572v5.12c0,1.122-.183,1.734-.8,2.122a5.294,5.294,0,0,1-2.836.449,9.039,9.039,0,0,0-.612-2.244,16.209,16.209,0,0,0,1.693.02c.245,0,.347-.082.347-.347v-4.467c-.673.2-1.326.387-1.938.55l-.53-2.325c.693-.143,1.55-.368,2.468-.592v-3.57H233.5V144.82h2.142v-3.835h2.2v3.835h1.836v2.224h-1.836v2.978c.531-.143,1.061-.306,1.592-.448Zm12,3.489c0,1.04-.164,1.734-.816,2.122a4.8,4.8,0,0,1-2.612.469,8.333,8.333,0,0,0-.775-2.346,13.958,13.958,0,0,0,1.571.02c.224,0,.306-.081.306-.326v-9.527h-2.305v14.362H244.8v-16.5c-.816.429-1.673.857-2.468,1.225v9.4c.632-.244,1.264-.489,1.9-.754l.53,2.121c-1.713.8-3.57,1.591-5.1,2.2l-1.061-2.182c.429-.143.918-.306,1.449-.51V142.964l1,.244a20.278,20.278,0,0,0,3.387-2.264l1.958,1.693c-.51.286-1.04.592-1.591.877h6.957Z"/><path class="cls-2" d="M266.123,149.227c-.938.795-2.836,2.55-3.325,3.08a2.236,2.236,0,0,1,.775.143,1.938,1.938,0,0,1,1.224,1.387c.184.551.408,1.326.592,1.857a1.3,1.3,0,0,0,1.428.959,20.954,20.954,0,0,0,4-.368l-.164,2.673a29.813,29.813,0,0,1-4,.306c-1.938,0-2.978-.428-3.488-1.754-.2-.612-.449-1.571-.592-2.081-.224-.714-.673-.98-1.081-.98a2.167,2.167,0,0,0-1.346.816c-.694.715-2.224,2.387-3.632,4.183l-2.407-1.694c.367-.306.857-.734,1.408-1.264,1.04-1.061,5.222-5.223,7.079-7.182-1.428.041-3.877.266-5.039.368-.714.061-1.326.163-1.755.224l-.245-2.815a18.4,18.4,0,0,0,1.959.061c.959,0,5.59-.2,7.283-.429a6.441,6.441,0,0,0,1.163-.224l1.489,1.693C266.919,148.554,266.49,148.921,266.123,149.227Zm.612-6.529-.326,2.387c-2.142-.163-5.957-.612-8.385-1.02l.388-2.366C260.7,142.127,264.613,142.555,266.735,142.7Z"/><path class="cls-2" d="M276.62,142.8c1.081,0,5.448-.081,6.61-.183a8.86,8.86,0,0,0,1.55-.225l1.327,1.816c-.47.306-.959.592-1.428.939-1.1.775-3.244,2.57-4.529,3.59a7.976,7.976,0,0,1,1.938-.224c3.468,0,6.1,2.162,6.1,5.141,0,3.223-2.449,5.773-7.386,5.773-2.835,0-4.978-1.3-4.978-3.346a3.419,3.419,0,0,1,3.652-3.182,4.083,4.083,0,0,1,4.346,3.489,2.958,2.958,0,0,0,1.693-2.775c0-1.836-1.836-3.081-4.243-3.081-3.121,0-5.162,1.653-7.345,4.142l-1.856-1.918c1.448-1.163,3.917-3.244,5.121-4.243,1.142-.939,3.264-2.652,4.263-3.53-1.04.021-3.856.143-4.937.2-.551.041-1.2.1-1.673.163l-.081-2.652A14.082,14.082,0,0,0,276.62,142.8Zm3.673,14.3a10.6,10.6,0,0,0,1.183-.061c-.123-1.326-.878-2.183-1.979-2.183-.776,0-1.265.47-1.265.98C278.232,156.591,279.069,157.1,280.293,157.1Z"/><path class="cls-2" d="M298.334,146.248h-7.976V144.33h7.976Zm10.18,3.958a13.777,13.777,0,0,1-3.141,5.937,13.918,13.918,0,0,0,4.2,1.754,10.444,10.444,0,0,0-1.57,2.1,14.212,14.212,0,0,1-4.489-2.223A16.465,16.465,0,0,1,298.844,160a10.292,10.292,0,0,0-1.265-2.1v1.041h-4.263v.8h-2.061v-6.957h6.324v5.08A13.333,13.333,0,0,0,301.7,156.1a14.214,14.214,0,0,1-2.346-3.529l2.081-.674H298.6v-2.183h.694a10.837,10.837,0,0,0-1.693-1.469v.776h-6.283v-1.857H297.6v.98a4.587,4.587,0,0,0,1.979-4.183v-2.428h6.834v4.57c0,.572.041.633.265.633h.51c.265,0,.347-.266.367-2.04a6.961,6.961,0,0,0,1.979.857c-.2,2.529-.734,3.243-2.1,3.243H306.25c-1.632,0-2.1-.632-2.1-2.652v-2.468h-2.286v.346c0,1.918-.407,4.244-2.529,5.692h7.181l.408-.1ZM297.6,151.777h-6.283v-1.816H297.6Zm-.041-8.344H291.4V141.6h6.161Zm-2.081,11.261h-2.162v2.346h2.162ZM301.5,151.9a10.061,10.061,0,0,0,1.979,2.754,9.658,9.658,0,0,0,1.918-2.754Z"/><path class="cls-2" d="M330.02,148.656H319.065v2.407c0,2.652-.307,6.549-2.04,9.017a9.906,9.906,0,0,0-1.714-1.469V160h-2.305V149.8a16.383,16.383,0,0,1-1.266,1.673,16.909,16.909,0,0,0-1.162-2.612,22.731,22.731,0,0,0,4.039-7.874l2.244.673a39.706,39.706,0,0,1-1.55,3.958V158.53c1.428-2.183,1.55-5.264,1.55-7.508v-4.447H330.02Zm-10.384-6.08v-1.489h2.244v1.489H324.9v-1.489h2.285v1.489h2.734v2.081h-2.734v1.367H324.9v-1.367H321.88v1.367h-2.244v-1.367h-2.877v-2.081Zm9.915,15.382c0,.918-.123,1.408-.694,1.734a4.731,4.731,0,0,1-2.346.327,6.1,6.1,0,0,0-.53-1.836c.571.02,1.081.02,1.285,0,.183,0,.224-.041.224-.245v-1.061h-1.938v3.06h-1.918v-3.06H321.8v3.1h-2.02v-10.3h9.773ZM321.8,151.43v1.163h1.836V151.43Zm1.836,3.856v-1.122H321.8v1.122Zm1.918-3.856v1.163h1.938V151.43Zm1.938,3.856v-1.122h-1.938v1.122Z"/><path class="cls-2" d="M336.162,144.432a54.142,54.142,0,0,0-.979,7.488,9.879,9.879,0,0,0,.081,1.326c.306-.694.633-1.408.918-2.081l1.265,1c-.571,1.694-1.244,3.917-1.469,5a6.182,6.182,0,0,0-.1.959c0,.224.021.55.041.836l-2.367.163a26.128,26.128,0,0,1-.8-6.671,56.977,56.977,0,0,1,.856-8.079c.062-.571.185-1.346.2-2l2.856.245A18.679,18.679,0,0,0,336.162,144.432Zm5.039,9.977c0,.9.775,1.448,2.856,1.448a24.136,24.136,0,0,0,5.121-.53l.04,2.754a28.881,28.881,0,0,1-5.263.387c-3.509,0-5.2-1.244-5.2-3.345a12.42,12.42,0,0,1,.347-2.652l2.345.224A6.93,6.93,0,0,0,341.2,154.409Zm7.385-10.446V146.6a54.776,54.776,0,0,1-8.772,0v-2.611A41.948,41.948,0,0,0,348.586,143.963Z"/><path class="cls-2" d="M359,143.719c-.061.346-.143.9-.225,1.57a28.7,28.7,0,0,0,3.734-.285l-.082,2.427a36.588,36.588,0,0,1-3.978.2c-.123.9-.245,1.856-.347,2.774h.143a35.375,35.375,0,0,0,4.1-.245l-.061,2.428c-1.142.1-2.325.183-3.611.183h-.816c-.04.613-.082,1.123-.082,1.49,0,1.693,1.041,2.591,3.041,2.591,2.855,0,4.406-1.306,4.406-2.979a5.567,5.567,0,0,0-2.1-3.958l2.876-.612a7.6,7.6,0,0,1,1.979,4.9c0,3.08-2.774,5.283-7.242,5.283-3.2,0-5.468-1.387-5.468-4.794,0-.489.061-1.224.143-2.06a22.946,22.946,0,0,1-3.917-.673l.143-2.469a18.748,18.748,0,0,0,4.019.816c.122-.918.245-1.877.347-2.795a24.06,24.06,0,0,1-4.06-.734l.143-2.347a19.272,19.272,0,0,0,4.2.776c.062-.633.123-1.184.163-1.653a10.826,10.826,0,0,0,.021-1.815l2.876.163A18.182,18.182,0,0,0,359,143.719Z"/><path class="cls-2" d="M249.023,181.723c0,1.3,1.244,2.244,4.182,2.244a28.006,28.006,0,0,0,7.16-.816l.021,2.876a31.4,31.4,0,0,1-7.079.694c-4.672,0-7.018-1.571-7.018-4.366a13.139,13.139,0,0,1,.408-2.937l2.672.244A7.52,7.52,0,0,0,249.023,181.723Zm4.182-10.466c2.019,0,4.345-.122,5.916-.285v2.713c-1.428.122-3.958.245-5.9.245-2.142,0-3.917-.082-5.57-.225v-2.693A53.317,53.317,0,0,0,253.205,171.257Z"/><path class="cls-2" d="M271.028,171.726c-.041.225-.1.49-.164.755,1.143-.163,2.306-.387,3.428-.653v2.55a37.39,37.39,0,0,1-3.978.674c-.184.877-.388,1.8-.612,2.631a65.861,65.861,0,0,1-3.244,9.446l-2.836-.959a44.621,44.621,0,0,0,3.53-9.18c.143-.551.285-1.143.428-1.714-.469.02-.918.041-1.346.041-1,0-1.755-.041-2.469-.082l-.061-2.55a19.858,19.858,0,0,0,2.571.163q.887,0,1.835-.061.123-.674.184-1.163a10.528,10.528,0,0,0,.061-2.08l3.122.244C271.314,170.359,271.11,171.277,271.028,171.726Zm2.468,11.058c0,.9.613,1.571,2.8,1.571a23.889,23.889,0,0,0,4.244-.408l-.1,2.59a29.153,29.153,0,0,1-4.162.307c-3.428,0-5.284-1.184-5.284-3.244a13.907,13.907,0,0,1,.347-2.734l2.448.224A7.173,7.173,0,0,0,273.5,182.784Zm3.1-7.018c1.163,0,2.387.061,3.591.183l-.061,2.449a29.539,29.539,0,0,0-3.509-.266,30.391,30.391,0,0,0-3.938.225V175.97A38.727,38.727,0,0,1,276.6,175.766Zm3.02-2.591-1.632.714a22.9,22.9,0,0,0-1.592-2.836l1.612-.673A28.029,28.029,0,0,1,279.617,173.175Zm2.448-.939-1.612.694a21.469,21.469,0,0,0-1.653-2.815l1.612-.653A22.538,22.538,0,0,1,282.065,172.236Z"/><path class="cls-2" d="M288.069,169.3l2.979.1c-.122.571-.285,1.611-.449,2.9l.755.958c-.285.368-.693,1.041-1.04,1.571-.02.184-.02.388-.041.572a10.015,10.015,0,0,1,6-2.1,5.415,5.415,0,0,1,5.631,5.508c0,4.122-2.591,6.59-7.651,7.59l-1.224-2.469c3.591-.53,6.161-2,6.141-5.182a3.137,3.137,0,0,0-3.326-3.06,8.582,8.582,0,0,0-5.773,2.611c-.021.592-.041,1.184-.041,1.714,0,1.673,0,3.387.123,5.3.02.367.081,1.1.143,1.571h-2.816c.041-.449.061-1.183.061-1.509.041-1.592.061-2.775.082-4.489-.857,1.286-1.857,2.775-2.571,3.734l-1.611-2.224c1.163-1.428,3.2-4.121,4.365-5.835.041-.469.082-.958.1-1.448-1,.122-2.57.326-3.712.49l-.266-2.612a17.291,17.291,0,0,0,1.775-.02c.592-.041,1.49-.143,2.366-.265.041-.776.083-1.347.083-1.571A11.153,11.153,0,0,0,288.069,169.3Z"/><path class="cls-2" d="M308.105,173.705c.979-1.591,2.754-3.305,5.059-3.305,2.836,0,5.039,2.775,5.039,7.263,0,5.774-3.53,8.528-8.936,9.507l-1.55-2.367c4.529-.693,7.732-2.183,7.732-7.12,0-3.141-1.061-4.9-2.775-4.9-2.407,0-4.508,3.611-4.61,6.3a10.6,10.6,0,0,0,.1,2.162l-2.51.164a23.14,23.14,0,0,1-.265-3.407,53.6,53.6,0,0,1,.572-6.528,18.087,18.087,0,0,0,.163-2.143l2.8.123A33.148,33.148,0,0,0,308.105,173.705Z"/><path class="cls-2" d="M329.243,171.482c-.041.224-.1.489-.163.775,1.142-.163,2.285-.388,3.407-.653v2.55a37.394,37.394,0,0,1-3.978.673c-.184.877-.388,1.775-.612,2.612a63.366,63.366,0,0,1-3.244,9.445l-2.835-.959a44.236,44.236,0,0,0,3.529-9.18c.142-.551.305-1.122.428-1.714-.469.021-.918.041-1.346.041-.98,0-1.755-.041-2.469-.081l-.061-2.551a20.1,20.1,0,0,0,2.57.164q.888,0,1.836-.062.123-.672.184-1.163a10.435,10.435,0,0,0,.061-2.06l3.122.245C329.508,170.115,329.325,171.033,329.243,171.482Zm2.449,11.077c0,.9.611,1.571,2.794,1.571a23.967,23.967,0,0,0,4.244-.428l-.1,2.611a32.718,32.718,0,0,1-4.162.286c-3.427,0-5.284-1.184-5.284-3.244a14.28,14.28,0,0,1,.367-2.734l2.428.245A6.991,6.991,0,0,0,331.692,182.559Zm3.1-7.038c1.163,0,2.387.061,3.591.183l-.061,2.449a29.785,29.785,0,0,0-3.509-.245,35.018,35.018,0,0,0-3.938.2v-2.387C332.018,175.623,333.486,175.521,334.792,175.521Z"/><path class="cls-2" d="M344.313,173.746c-.021,1.326,0,2.856.122,4.325.285,2.938.9,4.957,2.183,4.957.959,0,1.775-2.386,2.162-4.018l2.04,2.488c-1.346,3.55-2.631,4.8-4.263,4.8-2.244,0-4.182-2.02-4.754-7.488-.2-1.876-.224-4.263-.224-5.508a12.45,12.45,0,0,0-.163-2.081l3.141.041A16.613,16.613,0,0,0,344.313,173.746Zm14.158,8.548-2.673,1.041c-.326-3.285-1.407-8.242-3.631-10.772l2.591-.837C356.7,174.072,358.246,179.173,358.471,182.294Z"/></svg>