<svg id="レイヤー_1" data-name="レイヤー 1" xmlns="http://www.w3.org/2000/svg" viewBox="0 0 399.674 197.063"><defs><style>.cls-1{fill:#df1614;}.cls-2{fill:#505050;}.cls-3{fill:none;stroke:#df1614;stroke-miterlimit:10;stroke-width:2.4px;}</style></defs><path class="cls-1" d="M136.685,159.328v-7.267H151.22v7.267Zm29.07-3.876V188.4l-7.267,7.268h-21.8v-9.024h7.268V188.4H155.46l3.028-2.967V155.452Zm-29.07,18.411V166.6H151.22v7.267Z"/><path class="cls-1" d="M198.519,188.337v7.268H169.45v-7.268h10.9V166.6h-7.268v-7.268h21.8V166.6h-7.268v21.741Z"/><path class="cls-1" d="M202.153,195.605V152.061h5.814v43.544Zm29.07-29.009v21.741l-7.268,7.268H212.267V152.061h7.267v36.276h1.394l3.027-2.967V166.6Z"/><path class="cls-1" d="M236.068,173.863V166.6h.606l3.028-3.029V152.061h25.436V188.4l-7.268,7.268H239.7V188.4h15.141l3.027-3.028V177.5h-7.388v-7.268h7.388v-10.9h-10.9V166.6l-7.267,7.267Z"/><path class="cls-1" d="M292.462,169.745v7.267H269.208v-7.267Z"/><path class="cls-1" d="M302.868,195.726h-7.691l3.634-43.6H306.5Zm13.627,0h7.752l-3.634-43.6h-7.752Z"/><path class="cls-1" d="M356.95,188.458l-7.267,7.268H331.575v-7.268h15.141l2.967-3.027V163.567H335.209v7.207h-7.268V156.3h10.9v-4.179h7.267V156.3h10.84Z"/><path class="cls-1" d="M382.387,174.893l8.66,20.773h-8.478l-5.088-12.052-6.843,12.052h-8.479V188.4H366.4l15.746-27.858-1.211-1.212H362.159v-7.267h21.8l7.268,7.267Z"/><rect class="cls-1" x="105.516" y="162.132" width="13.565" height="3.798"/><path class="cls-1" d="M120.961,190.958H104.572q-2.244,0-2.244-2.442v-.542h22.721V169.05H72.281v18.924H95.139V189.4a6.661,6.661,0,0,0,1.721,4.917,6.422,6.422,0,0,0,4.763,1.73h20.063a22.654,22.654,0,0,0,3.816-.3,8.624,8.624,0,0,0,2.939-.984v-5.765a12.032,12.032,0,0,1-3.468,1.458A16.006,16.006,0,0,1,120.961,190.958Zm-18.633-17.77h15.261v3.188H102.328Zm0,7.393h15.261v3.188H102.328Zm-7.189,3.188H79.809v-3.188h15.33Zm0-7.393H79.809v-3.188h15.33Z"/><polygon class="cls-1" points="102.328 147.075 102.328 143.819 126.814 143.819 126.814 138.528 70.517 138.528 70.517 143.819 95.139 143.819 95.139 147.075 68.89 147.075 68.89 163.217 75.265 163.217 75.265 151.958 95.139 151.958 95.139 165.93 102.328 165.93 102.328 151.958 122.065 151.958 122.065 163.217 128.441 163.217 128.441 147.075 102.328 147.075"/><rect class="cls-1" x="105.516" y="155.214" width="13.565" height="3.663"/><rect class="cls-1" x="78.317" y="162.132" width="13.701" height="3.798"/><rect class="cls-1" x="78.317" y="155.214" width="13.701" height="3.663"/><path class="cls-1" d="M63.356,137.157,50.5,146.879a.388.388,0,0,0,.034.643l3.961,2.389L51.643,154.1l-4.39-2q-1.629-1.019-2.374-1.492-1.288-.882-2.306-1.7l-.277-.282,11.482-8.179a.389.389,0,0,0-.025-.65l-4.369-2.642,5.76-8.483a.389.389,0,0,0-.556-.529l-12.852,9.721a.39.39,0,0,0,.033.644l3.962,2.389-4.519,6.627-2.64-2.686a27.215,27.215,0,0,1-2.375-2.984,32.214,32.214,0,0,1-1.967-3.324H4.455v6.24h18.38a24.056,24.056,0,0,1-3.9,4.273,30.333,30.333,0,0,1-4.985,3.46L8.8,146.871H.927l7.258,8.071q-2.511.68-4.2.984t-2.849.441v7.393q2.035-.27,4.646-.848a35.667,35.667,0,0,0,4.307-1.187v2.645h6.647v8.614H1.877v6.851H16.188a11.205,11.205,0,0,1-4.409,7.054q-3.661,2.578-10.648,2.577v7.6q10.512,0,16.549-5.155a20.339,20.339,0,0,0,6.58-12.073H36.536v8.817a7.22,7.22,0,0,0,2.273,5.393,7.815,7.815,0,0,0,5.663,2.2h9.292a13.367,13.367,0,0,0,6.851-1.628v-7.936a9.2,9.2,0,0,1-3.222,1.73,14.221,14.221,0,0,1-3.764.441H46.642a2.041,2.041,0,0,1-1.458-.543,1.786,1.786,0,0,1-.576-1.357v-7.121H59.8v-6.851H44.608V164.37h6.986v-2.577a32.219,32.219,0,0,0,4.1,1.221q1.863.406,4.917.949V156.5a28.965,28.965,0,0,1-6.153-1.284l8.084-5.758a.388.388,0,0,0-.025-.649l-4.369-2.643,5.761-8.483a.389.389,0,0,0-.557-.529Zm-26.82,35.827h-11.8V164.37h11.8Zm-17.7-15.464a34.356,34.356,0,0,0,6.986-5.494,38.051,38.051,0,0,0,4.951-6.1,42.119,42.119,0,0,0,5.426,6.613,32.869,32.869,0,0,0,6.444,4.985Z"/><path class="cls-2" d="M25.981,21.147c0,1.456,1.351,2.574,4.862,2.574a38.335,38.335,0,0,0,9.256-1.04l.026,4.472A43,43,0,0,1,31,28.011c-6.319,0-9.283-2.132-9.283-5.876a18.214,18.214,0,0,1,.521-3.822l4.133.364A10.589,10.589,0,0,0,25.981,21.147ZM30.739,7.679c2.6,0,5.772-.157,7.826-.365v4.213c-1.846.156-5.278.312-7.8.312-2.782,0-5.07-.13-7.229-.286V7.367A70.237,70.237,0,0,0,30.739,7.679Z"/><path class="cls-2" d="M50.784,5.312l4.551.13c-.182.807-.39,2.133-.6,3.693l.988,1.326c-.338.442-.937,1.378-1.4,2.054v.052c2.028-1.69,4.862-3.588,7.306-3.588,3.016,0,4.342,1.82,4.342,4.056,0,2.73-.806,6.188-.806,8.918,0,.572.312.91.806.91a5.108,5.108,0,0,0,3.042-1.69l.494,4.446a7.255,7.255,0,0,1-4.966,1.82c-2.08,0-3.458-1.56-3.458-4.29,0-2.782.91-6.344.91-8.632,0-1.144-.6-1.768-1.586-1.768-1.794,0-4.42,2.288-6.422,4.5-.027.546-.027,1.118-.027,1.638,0,1.976,0,4.524.182,7.02.026.468.131,1.586.208,2.237H50.031c.051-.677.078-1.743.078-2.159.026-1.56.051-2.938.1-4.576-.988,1.456-2.028,3.016-2.756,3.978l-2.444-3.458c1.456-1.82,3.9-4.94,5.46-7.176.026-.468.079-.936.1-1.4-1.352.156-3.2.39-4.55.572l-.39-4c.832.025,1.482.025,2.574-.026.7-.052,1.638-.157,2.626-.286.052-.832.078-1.482.078-1.743A14.1,14.1,0,0,0,50.784,5.312Z"/><path class="cls-2" d="M81.933,8.458c-.156.7-.313,1.431-.468,2.106.7-.051,1.3-.077,1.768-.077,2.99,0,4.966,1.4,4.966,5.3,0,3.042-.338,7.306-1.456,9.594-.884,1.872-2.418,2.522-4.524,2.522a15.8,15.8,0,0,1-3.172-.364l-.677-4.134a16.919,16.919,0,0,0,3.173.546,1.76,1.76,0,0,0,1.768-.988c.65-1.3.962-4.342.962-6.76,0-1.9-.781-2.132-2.392-2.132q-.468,0-1.248.078c-1.04,4.056-2.991,10.348-5.2,13.91l-4.107-1.638c2.469-3.328,4.16-8.268,5.122-11.83-.677.1-1.248.182-1.613.234-.832.13-2.34.338-3.2.494l-.364-4.238a29.678,29.678,0,0,0,3.042,0c.755-.026,1.821-.105,2.99-.182a26.4,26.4,0,0,0,.5-5.434l4.68.493C82.3,6.743,82.089,7.73,81.933,8.458Zm13.988,9.647-4.03,1.846c-.624-3.016-2.366-7.774-4.238-10.166l3.8-1.586A47.408,47.408,0,0,1,95.921,18.105Z"/><path class="cls-2" d="M104.449,16.311a13.1,13.1,0,0,1,7.2-2.106c4.888,0,7.54,3.042,7.54,6.24,0,4.81-3.562,8.737-15,7.748l-1.222-4.134c7.592,1.118,11.778-.52,11.778-3.692,0-1.482-1.4-2.574-3.484-2.574a8.726,8.726,0,0,0-6.734,2.834,6.652,6.652,0,0,0-1.067,1.612l-3.614-.884a94.241,94.241,0,0,0,1.3-11.05l4.239.572A40,40,0,0,0,104.449,16.311ZM115.4,7.418l-.936,3.875c-2.73-.364-8.606-1.612-10.66-2.132l.987-3.77A82.282,82.282,0,0,0,115.4,7.418Z"/><path class="cls-2" d="M136.533,28.089l-2.392-3.744a19.785,19.785,0,0,0,2.548-.468c3.3-.806,5.512-3.12,5.512-6.552,0-3.354-1.638-5.746-4.628-6.448a51.744,51.744,0,0,1-1.534,6.786c-1.534,5.2-3.875,8.684-6.943,8.684-3.224,0-5.668-3.484-5.668-7.93,0-6.188,5.331-11.44,12.272-11.44,6.631,0,10.817,4.576,10.817,10.478C146.517,22.941,143.293,26.945,136.533,28.089ZM129.2,21.433c1.041,0,1.821-1.586,2.756-4.6a38.459,38.459,0,0,0,1.327-5.851A7.753,7.753,0,0,0,127.511,18C127.511,20.263,128.29,21.433,129.2,21.433Z"/><path class="cls-2" d="M159.933,8.458c-.156.7-.313,1.431-.468,2.106.7-.051,1.3-.077,1.768-.077,2.99,0,4.966,1.4,4.966,5.3,0,3.042-.338,7.306-1.456,9.594-.884,1.872-2.418,2.522-4.524,2.522a15.8,15.8,0,0,1-3.172-.364l-.677-4.134a16.919,16.919,0,0,0,3.173.546,1.76,1.76,0,0,0,1.768-.988c.65-1.3.962-4.342.962-6.76,0-1.9-.781-2.132-2.392-2.132q-.468,0-1.248.078c-1.04,4.056-2.991,10.348-5.2,13.91l-4.107-1.638c2.469-3.328,4.16-8.268,5.122-11.83-.677.1-1.248.182-1.613.234-.832.13-2.34.338-3.2.494l-.364-4.238a29.678,29.678,0,0,0,3.042,0c.755-.026,1.821-.105,2.99-.182a26.4,26.4,0,0,0,.5-5.434l4.68.493C160.3,6.743,160.089,7.73,159.933,8.458Zm13.988,9.647-4.03,1.846c-.624-3.016-2.366-7.774-4.238-10.166l3.8-1.586A47.408,47.408,0,0,1,173.921,18.105Z"/><path class="cls-2" d="M182.189,6.561c1.092,0,5.668-.234,7.332-.416a10.636,10.636,0,0,0,2.028-.365l2.47,2.912a25.25,25.25,0,0,0-2.418,1.691c-1.82,1.4-3.718,2.99-5.3,4.238,3.224-.312,7.306-.546,10.166-.546l.026,3.718a41.168,41.168,0,0,0-6.76.026c-2.288.312-4.03,1.742-4.03,3.692,0,1.742,1.352,2.5,3.666,2.73a26.941,26.941,0,0,0,4.056.052l-.806,4.16c-6.864.286-10.947-1.742-10.947-6.266a6.372,6.372,0,0,1,1.222-3.64c-2.131.156-4.706.546-7.046.962l-.364-3.822c1.378-.13,3.224-.364,4.576-.52a60.211,60.211,0,0,0,6.631-5.278c-1.04.078-3.458.208-4.5.312-.624.052-1.561.155-2.523.26l-.181-4C180.394,6.535,181.252,6.561,182.189,6.561Zm13.13,6.4-2.314,1.014a17.743,17.743,0,0,0-1.612-3.016l2.262-.936A23.943,23.943,0,0,1,195.319,12.957Zm3.068-1.3L196.1,12.7a16.6,16.6,0,0,0-1.742-2.912l2.236-1.014A21.745,21.745,0,0,1,198.387,11.657Z"/><path class="cls-2" d="M217.107,10.1c-1.638,1.222-4.888,3.718-6.527,5.148-1.274,1.092-1.221,1.326.027,2.444,1.716,1.482,6.838,5.46,9.438,7.93l-3.692,3.406c-.832-.936-1.69-1.846-2.548-2.7-1.43-1.508-5.174-4.706-7.541-6.734-2.651-2.288-2.5-3.848.261-6.11,2.08-1.69,5.434-4.446,7.175-6.11A18.745,18.745,0,0,0,215.989,4.9l3.666,3.25C218.693,8.849,217.809,9.524,217.107,10.1Z"/><path class="cls-2" d="M233.46,9.161a68.5,68.5,0,0,0-1.248,9.282,4.629,4.629,0,0,0,.027.6c.363-.728.675-1.248,1.013-2l1.9,1.508a68.655,68.655,0,0,0-1.872,6.682,8.871,8.871,0,0,0-.157,1.249c0,.285,0,.753.027,1.169l-3.641.234a33.212,33.212,0,0,1-1.04-8.554,75.045,75.045,0,0,1,1.014-10.244,29.179,29.179,0,0,0,.312-2.938l4.395.364C233.954,7.106,233.565,8.692,233.46,9.161Zm6.6,12.4c0,1.144,1.092,1.586,3.224,1.586a29.89,29.89,0,0,0,6.552-.7l.078,4.264a37.616,37.616,0,0,1-6.838.494c-4.55,0-6.812-1.69-6.812-4.472a15.431,15.431,0,0,1,.468-3.562l3.588.312A9.077,9.077,0,0,0,240.065,21.563Zm9.048-13.495v4.057a73.061,73.061,0,0,1-11.44,0l-.026-4.03A60.094,60.094,0,0,0,249.113,8.068Z"/><path class="cls-2" d="M254.989,8.042a40.737,40.737,0,0,0,8.658-1.3l1.2,3.484a8.146,8.146,0,0,0-1.274.624c-1.847,1.4-5.1,5.122-5.1,9.906,0,2.678,1.743,3.874,4.135,3.874,5.616,0,7.2-6.11,4.94-15.5-.13-.416-.286-.832-.416-1.248l3.952-1.093a17.728,17.728,0,0,0,5.59,11.077l-2.522,3.64a25.873,25.873,0,0,1-2.548-3.458c.312,5.59-1.768,10.843-9.074,10.843-4.239,0-8.113-2.289-8.113-7.229,0-3.874,1.3-6.708,3.8-10.088-.805.025-2.183.182-2.86.26-.571.078-.962.13-1.586.26l-.286-4.057A14.606,14.606,0,0,0,254.989,8.042Zm19.838-3.51a3.095,3.095,0,1,1-3.094,3.094A3.085,3.085,0,0,1,274.827,4.532Zm0,4.368a1.274,1.274,0,1,0-1.274-1.274A1.275,1.275,0,0,0,274.827,8.9Z"/><path class="cls-2" d="M284.525,14.543c1.741-.52,6.214-1.976,9.412-1.976,4.368,0,7.176,2.574,7.176,6.734,0,4.524-3.77,8.112-12.714,8.658l-1.691-3.874c6.111-.156,10.193-1.716,10.193-4.862,0-1.794-1.3-2.99-3.354-2.99-2.912,0-7.8,2.028-10.348,3.12l-1.613-4.082A28.527,28.527,0,0,0,284.525,14.543Z"/><path class="cls-2" d="M316.3,8.381a3.733,3.733,0,0,1-.1.442q1.989-.312,3.978-.781v3.927a37.41,37.41,0,0,1-4.836.832c-.26,1.118-.52,2.236-.781,3.276a85.174,85.174,0,0,1-4.16,12.116l-4.368-1.482A59.539,59.539,0,0,0,310.6,14.985c.157-.6.339-1.222.469-1.846-.469.026-.911.026-1.327.026-1.326,0-2.339-.052-3.224-.1l-.1-3.926a27.208,27.208,0,0,0,3.354.208c.7,0,1.379-.027,2.106-.052.053-.391.105-.729.131-1.041a14.259,14.259,0,0,0,.077-2.912L316.9,5.7C316.687,6.509,316.427,7.783,316.3,8.381Zm3.172,13.884c0,1.092.806,1.768,3.094,1.768a33.247,33.247,0,0,0,5.564-.546l-.156,4a42.922,42.922,0,0,1-5.434.364c-4.55,0-6.968-1.638-6.968-4.29a18.681,18.681,0,0,1,.494-3.718l3.744.364A9.352,9.352,0,0,0,319.469,22.265Zm3.588-9c1.456,0,3.016.078,4.6.234l-.078,3.77a38.305,38.305,0,0,0-4.524-.338,40.457,40.457,0,0,0-5.149.286V13.555C319.417,13.4,321.367,13.269,323.057,13.269Z"/><path class="cls-2" d="M338.89,9.915a7.993,7.993,0,0,1,6.085-3.25c3.718,0,6.708,3.588,6.708,9.464,0,7.436-4.472,11.1-11.622,12.429l-2.393-3.667c5.851-.91,9.725-2.6,9.725-8.762,0-3.952-1.326-5.773-3.172-5.773-2.964,0-5.486,4.551-5.486,7.983a22.007,22.007,0,0,0,.155,2.5l-3.874.26a30.881,30.881,0,0,1-.337-4.446,62.938,62.938,0,0,1,.675-8.3,28.614,28.614,0,0,0,.208-2.99l4.291.182A38.468,38.468,0,0,0,338.89,9.915Z"/><path class="cls-2" d="M367.828,8.823c1.223-.234,2.315-.494,3.2-.755l.1,3.615a35.477,35.477,0,0,1-4.42.884A47.859,47.859,0,0,1,361.2,23.773l-3.8-1.924a41.876,41.876,0,0,0,5.149-8.892c-.287.026-.547.026-.832.026-1.093,0-2.159-.026-3.354-.1l-.287-3.64c1.2.13,2.756.182,3.615.182q1.013,0,2.028-.078A20.714,20.714,0,0,0,364.37,5.1l4.317.417C368.505,6.327,368.193,7.522,367.828,8.823Zm6.943,8.476c.026.624.078,1.638.13,2.73a16.931,16.931,0,0,1,5.382,3.38l-2.08,3.38a27.762,27.762,0,0,0-3.146-2.652c-.078,2.5-1.43,4.368-5.278,4.368-3.433,0-6.111-1.611-6.111-4.628,0-2.6,2.054-4.836,6.059-4.836a11.9,11.9,0,0,1,1.378.078c-.1-1.846-.208-4-.286-5.46h3.952C374.693,14.777,374.745,16.025,374.771,17.3Zm-5.564,7.592c1.56,0,2.028-.91,2.028-2.366V22.4a9.7,9.7,0,0,0-1.768-.182c-1.274,0-2.08.52-2.08,1.274C367.387,24.319,368.115,24.891,369.207,24.891Zm3.2-13.234,2.028-3.12a52.615,52.615,0,0,1,6.63,3.562l-2.236,3.328A37.787,37.787,0,0,0,372.405,11.657Z"/><path class="cls-2" d="M168.168,95.9c1.092,0,5.694-.234,7.332-.416a10.322,10.322,0,0,0,2.028-.364L180,98.027a28.986,28.986,0,0,0-2.418,1.69c-1.82,1.4-3.692,2.99-5.3,4.238,3.224-.311,7.332-.546,10.166-.546l.026,3.718a41.28,41.28,0,0,0-6.76.026c-2.288.312-4,1.743-4,3.693,0,1.742,1.326,2.5,3.64,2.73a27.284,27.284,0,0,0,4.082.052l-.832,4.16c-6.838.286-10.946-1.742-10.946-6.267a6.212,6.212,0,0,1,1.248-3.64c-2.158.157-4.733.547-7.072.963l-.365-3.823c1.379-.129,3.225-.364,4.6-.52a59.815,59.815,0,0,0,6.6-5.278c-1.014.078-3.458.208-4.5.312-.624.052-1.56.156-2.522.26l-.182-4C166.4,95.869,167.232,95.9,168.168,95.9Z"/><path class="cls-2" d="M191.984,94.647l4.55.13c-.182.806-.39,2.132-.6,3.692l.988,1.326c-.338.442-.936,1.378-1.4,2.054v.052c2.028-1.69,4.862-3.588,7.306-3.588,3.016,0,4.342,1.82,4.342,4.056,0,2.731-.806,6.189-.806,8.919,0,.571.312.91.806.91a5.108,5.108,0,0,0,3.042-1.69l.494,4.446a7.255,7.255,0,0,1-4.966,1.82c-2.08,0-3.458-1.56-3.458-4.291,0-2.781.91-6.343.91-8.631,0-1.145-.6-1.769-1.586-1.769-1.794,0-4.42,2.288-6.422,4.5-.026.545-.026,1.117-.026,1.638,0,1.975,0,4.524.182,7.02.026.468.13,1.586.208,2.236H191.23c.052-.676.078-1.742.078-2.158.026-1.56.052-2.938.1-4.576-.987,1.456-2.027,3.016-2.755,3.978l-2.445-3.458c1.456-1.821,3.9-4.941,5.461-7.177.026-.468.078-.936.1-1.4-1.352.156-3.2.39-4.551.572l-.39-4c.832.026,1.483.026,2.574-.026.7-.052,1.639-.156,2.626-.286.053-.832.079-1.482.079-1.742A14.192,14.192,0,0,0,191.984,94.647Z"/><path class="cls-2" d="M223.054,98.027c-.156.7-.312,1.43-.468,2.106.7-.052,1.3-.078,1.768-.078,2.99,0,4.966,1.4,4.966,5.3,0,3.042-.338,7.307-1.456,9.595-.884,1.872-2.418,2.522-4.524,2.522a15.8,15.8,0,0,1-3.172-.364l-.676-4.134a16.9,16.9,0,0,0,3.172.545,1.759,1.759,0,0,0,1.768-.987c.65-1.3.962-4.343.962-6.761,0-1.9-.78-2.131-2.392-2.131q-.468,0-1.248.077c-1.04,4.056-2.99,10.349-5.2,13.911l-4.108-1.638c2.469-3.328,4.16-8.268,5.122-11.831-.676.105-1.248.182-1.613.234-.832.13-2.339.338-3.2.495l-.365-4.239a29.7,29.7,0,0,0,3.043,0c.754-.026,1.82-.1,2.99-.182a26.319,26.319,0,0,0,.494-5.434l4.68.494C223.418,96.311,223.21,97.3,223.054,98.027Zm10.634-.052-.858.364a46.056,46.056,0,0,1,4.212,9.334l-4.03,1.847c-.624-3.017-2.366-7.619-4.238-10.011l2.21-.936a24.887,24.887,0,0,0-1.768-3.172l2.444-.988C232.31,95.375,233.22,97.065,233.688,97.975Zm3.224-1.274-2.444,1.04a28.749,28.749,0,0,0-2.054-3.588l2.444-.988A36.9,36.9,0,0,1,236.912,96.7Z"/><path class="cls-1" d="M48.684,66.831c-2.97,3.689-6.615,7.649-9.72,10.8l-4.185-5.67c2.475-2.43,6.48-6.615,10.17-10.754Zm-5.04-11.385c-1.485-1.98-4.995-4.86-7.65-6.795l4.635-4.859a46.656,46.656,0,0,1,7.965,6.254Zm21.014,3.78c0,5.444,2.97,14.084,13.455,18.674-1.26,1.575-3.195,4.32-4.23,5.985-7.29-3.33-11.745-10.53-12.69-14.489-1.215,3.914-6.119,10.889-14.264,14.489a30.832,30.832,0,0,0-3.96-5.535c11.339-4.545,14.714-13.5,14.714-19.079V55.266H55.208a39.409,39.409,0,0,1-4.5,7.785,43.549,43.549,0,0,0-6.21-3.51c3.87-4.05,6.615-11.025,7.92-18.18l6.794,1.215c-.45,2.115-.99,4.185-1.575,6.165H71.633l1.26-.36,4.86,2.88A63.991,63.991,0,0,1,72.4,63.905c-1.35-.719-4-2.07-5.535-2.655a50.475,50.475,0,0,0,2.475-5.984h-4.68Z"/><path class="cls-1" d="M110.045,71.6V69.935H105.41V71.6H98.8V58.056h-4.86V74.975H121.61v6.3H93.936v2.61h-6.75V58.056h-6.3v-6.3h6.3v-9.18h6.75v9.18H98.8V41.631h6.614V51.756h4.635V42.037h6.615v9.719h6.57v6.3h-6.57V71.6Zm0-7.74v-5.8H105.41v5.8Z"/><path class="cls-1" d="M144.03,43.521a69.533,69.533,0,0,1-3.871,7.785V83.8h-6.794V61.25a50.724,50.724,0,0,1-3.915,4.186,46.931,46.931,0,0,0-3.6-6.75,47.39,47.39,0,0,0,11.925-17.235Zm12.6,16.919c1.08,8.956,3.105,14.85,6.074,15.345.9.09,1.351-2.025,1.621-6.84a24.987,24.987,0,0,0,5.355,3.78c-1.261,9.27-4.05,11.205-6.66,11.025-7.785-.81-11.3-8.775-12.915-22.364l-7.739,1.079-.945-6.3,8.1-1.125c-.315-4-.5-8.415-.63-13.185h6.66c.045,4.365.18,8.5.45,12.285l12.51-1.71.9,6.21Zm6.884-8.684a35.068,35.068,0,0,0-5.534-7.6l4.95-3.015a35.24,35.24,0,0,1,5.9,7.29Z"/><path class="cls-1" d="M195.276,82.13l-4.14-6.48a34.191,34.191,0,0,0,4.409-.81c5.715-1.4,9.54-5.4,9.54-11.34,0-5.8-2.835-9.944-8.01-11.159a89.5,89.5,0,0,1-2.654,11.744c-2.656,9-6.7,15.03-12.015,15.03-5.58,0-9.81-6.03-9.81-13.724,0-10.71,9.225-19.8,21.24-19.8,11.474,0,18.719,7.92,18.719,18.135C212.555,73.22,206.975,80.15,195.276,82.13Zm-12.69-11.52c1.8,0,3.15-2.745,4.77-7.964a66.826,66.826,0,0,0,2.3-10.125c-6.66,1.8-9.99,7.875-9.99,12.149C179.661,68.585,181.011,70.61,182.586,70.61Z"/><path class="cls-1" d="M218.311,46.086H230.1c7.335,0,13.41,2.655,13.41,10.935,0,7.964-6.12,11.474-13.23,11.474h-3.915V79.61h-8.055ZM229.876,62.15c3.915,0,5.805-1.844,5.805-5.129,0-3.375-2.16-4.545-6.03-4.545h-3.285V62.15Z"/><path class="cls-1" d="M244.893,46.086h8.5l3.824,15.3c.991,3.6,1.666,7.019,2.61,10.709h.225c.991-3.69,1.665-7.11,2.61-10.709l3.78-15.3h8.19L264.6,79.61h-9.674Z"/><path class="cls-1" d="M291.445,43.207a78.688,78.688,0,0,1-4,8.369V83.75h-6.21V60.936a38.241,38.241,0,0,1-3.06,3.419,41.125,41.125,0,0,0-3.33-6.794,46.139,46.139,0,0,0,10.53-16.334Zm27.088,33.118v6.21h-29.2v-6.21h11.429V68.72h-9.044V62.556h9.044V55.9H290.275v-6.21h11.159c-2.025-1.4-4.319-2.88-6.255-3.96l4.32-4.68a62.069,62.069,0,0,1,10.395,6.435l-1.98,2.2h9.945V55.9h-10.44v6.66h9.224V68.72h-9.224v7.605Z"/><path class="cls-1" d="M353.13,77.135c2.34,0,2.745-.9,3.105-5.94a21.021,21.021,0,0,0,6.525,2.7c-.855,7.515-2.835,9.675-9.045,9.675H345.8c-7.38,0-9.36-2.07-9.36-8.685V70.88l-14.444,1.44-.81-6.344,15.254-1.395V61.206c-2.924.4-5.849.674-8.639.9a21.983,21.983,0,0,0-1.935-5.714c8.685-.81,17.819-2.43,23.714-4.815l5.04,5.4a68.419,68.419,0,0,1-10.98,3.015v3.914l17.415-1.574.764,6.074-18.179,1.8V74.8c0,2.115.36,2.34,2.97,2.34ZM328.651,55.9h-6.66v-11.2H337.92V41.182h7.02v3.509H361.1V55.9h-7.02v-5.04H328.651Z"/><line class="cls-3" x1="398.501" y1="0.252" x2="373.714" y2="115.511"/><line class="cls-3" x1="1.173" y1="0.252" x2="25.96" y2="115.511"/></svg>