<svg id="レイヤー_1" data-name="レイヤー 1" xmlns="http://www.w3.org/2000/svg" viewBox="0 0 85 101.035"><defs><style>.cls-1{fill:#00963b;}.cls-2{fill:#fff;}</style></defs><rect class="cls-1" x="3.015" y="2.11" width="79.232" height="80.456" rx="2.999"/><path class="cls-1" d="M76.5,3A5.508,5.508,0,0,1,82,8.5v68A5.508,5.508,0,0,1,76.5,82H8.5A5.508,5.508,0,0,1,3,76.5V8.5A5.508,5.508,0,0,1,8.5,3h68m0-3H8.5A8.525,8.525,0,0,0,0,8.5v68A8.525,8.525,0,0,0,8.5,85h68A8.525,8.525,0,0,0,85,76.5V8.5A8.525,8.525,0,0,0,76.5,0Z"/><path class="cls-1" d="M9.949,98.062a9.258,9.258,0,0,0-1.2-.084H8.319v.851a7.462,7.462,0,0,0,.095,1.367h-1.7a7.649,7.649,0,0,0,.1-1.391v-.827H3.487c-.707,0-1.09.012-1.5.048V96.551c.408-.443.539-.6.959-1.1l2.841-3.476a11.31,11.31,0,0,0,1-1.319H8.4a16.886,16.886,0,0,0-.083,2.026v3.932h.418a7.891,7.891,0,0,0,1.212-.084Zm-3.13-3.92A13.537,13.537,0,0,1,6.88,92.7c-.24.348-.384.539-.815,1.067l-2.3,2.853H6.819Z"/><path class="cls-1" d="M10.984,100.2v-1.75h1.751v1.75Z"/><path class="cls-1" d="M15.685,97.594a1.553,1.553,0,0,0,.564.983,2.258,2.258,0,0,0,1.45.468c1.187,0,1.942-.612,1.942-1.559a1.4,1.4,0,0,0-.671-1.258,3.1,3.1,0,0,0-1.379-.288,10.24,10.24,0,0,0-1.283.06V94.513a8.212,8.212,0,0,0,1.163.06c1.2,0,1.906-.551,1.906-1.474,0-.827-.563-1.3-1.582-1.3a2,2,0,0,0-1.307.371,1.769,1.769,0,0,0-.5.924l-1.715-.288A2.98,2.98,0,0,1,15.409,91.1a3.89,3.89,0,0,1,2.35-.66c2,0,3.3,1.007,3.3,2.566a2.185,2.185,0,0,1-.828,1.762,2.95,2.95,0,0,1-1.162.468,2.517,2.517,0,0,1,1.714.8,2.3,2.3,0,0,1,.576,1.654,2.541,2.541,0,0,1-.72,1.75,4.139,4.139,0,0,1-2.95.971,3.742,3.742,0,0,1-3.044-1.139,3.16,3.16,0,0,1-.672-1.342Z"/><path class="cls-1" d="M23.649,96.287c0-.575,0-.839.025-1.33a6,6,0,0,1-.876,1.187,5.209,5.209,0,0,0-.551-1.427,9.39,9.39,0,0,0,2.026-3.357,8.048,8.048,0,0,0,.419-1.522l1.319.384c-.072.192-.108.3-.192.587a16.589,16.589,0,0,1-.887,2.206v6.629a11.758,11.758,0,0,0,.061,1.391H23.577a11.313,11.313,0,0,0,.072-1.427Zm8.236-5.082a9.652,9.652,0,0,0,1.319-.06v1.306a7.229,7.229,0,0,0-1.211-.059h-.9l1.019.275a12.119,12.119,0,0,1-.875,1.738h1.078a10.876,10.876,0,0,0,1.223-.06v1.307a7.541,7.541,0,0,0-1.223-.06H26.443a6.021,6.021,0,0,0-1.032.06V94.358a6.633,6.633,0,0,0,1,.047h1.042a10.111,10.111,0,0,0-.671-1.678l.959-.335h-.683a6.889,6.889,0,0,0-1.2.059V91.145a8.854,8.854,0,0,0,1.295.06h1.57v-.36a6.189,6.189,0,0,0-.059-.851h1.462a4.936,4.936,0,0,0-.061.839v.372Zm-4.327,9.746H26.215a9.96,9.96,0,0,0,.06-1.175V97.4a8.3,8.3,0,0,0-.049-1,7.545,7.545,0,0,0,.96.048h4.447a5.261,5.261,0,0,0,.887-.048,7.663,7.663,0,0,0-.048,1.031v2.4a7.218,7.218,0,0,0,.06,1.115h-1.39v-.624H27.558Zm0-1.8h3.6V97.618h-3.6Zm2.349-4.748a8.873,8.873,0,0,0,.875-2.013H28.025a10.768,10.768,0,0,1,.659,1.678l-.91.335Z"/><path class="cls-1" d="M36.207,100.2a10.874,10.874,0,0,0-1.546.06,6.173,6.173,0,0,1,.311-1.535,5.924,5.924,0,0,1,1.643-2.35,16.6,16.6,0,0,1,1.978-1.45c1.1-.755,1.438-1.151,1.438-1.762,0-.816-.635-1.319-1.654-1.319a1.7,1.7,0,0,0-1.523.707,2.291,2.291,0,0,0-.371,1.1l-1.715-.2a3.6,3.6,0,0,1,.828-1.918,3.485,3.485,0,0,1,2.745-1.067c2.1,0,3.393,1.007,3.393,2.65a2.435,2.435,0,0,1-.851,1.918A15.234,15.234,0,0,1,38.869,96.5a10.484,10.484,0,0,0-1.427,1.2,2.886,2.886,0,0,0-.683,1.079h3.356a12.592,12.592,0,0,0,1.751-.1v1.582c-.564-.047-1.043-.071-1.81-.071Z"/><path class="cls-1" d="M44.424,99.956l-.96-.96,2.243-2.241-2.254-2.242.958-.959L46.665,95.8l2.242-2.242.959.959-2.241,2.242L49.866,99l-.959.96-2.242-2.242Z"/><path class="cls-1" d="M59.017,98.062a9.233,9.233,0,0,0-1.2-.084h-.431v.851a7.552,7.552,0,0,0,.095,1.367h-1.7a7.639,7.639,0,0,0,.1-1.391v-.827H52.556c-.708,0-1.091.012-1.5.048V96.551c.407-.443.538-.6.958-1.1l2.842-3.476a11.28,11.28,0,0,0,.994-1.319h1.619a16.659,16.659,0,0,0-.084,2.026v3.932h.419a7.878,7.878,0,0,0,1.211-.084Zm-3.129-3.92a13.549,13.549,0,0,1,.06-1.439c-.239.348-.384.539-.815,1.067l-2.3,2.853h3.057Z"/><path class="cls-1" d="M62.1,92.319a13.674,13.674,0,0,0-1.546.073V90.977a12.747,12.747,0,0,0,1.559.072h6.449a13.2,13.2,0,0,0,1.546-.072v1.415a13.881,13.881,0,0,0-1.534-.073H65.938v6.414h3.214a12.4,12.4,0,0,0,1.63-.084v1.45a12.537,12.537,0,0,0-1.63-.083H61.5a13.433,13.433,0,0,0-1.63.083v-1.45a12.559,12.559,0,0,0,1.654.084h3V92.319Z"/><path class="cls-1" d="M72.491,92.967a14.97,14.97,0,0,1,2.146,1.462l-.756,1.091a12.3,12.3,0,0,0-2.134-1.594Zm2.134,4.1c-.42,1.1-.683,1.738-1.164,2.733-.215.443-.215.443-.371.815a2.417,2.417,0,0,1-.144.3L71.8,99.908a14.417,14.417,0,0,0,1.763-3.6Zm-1.547-7.025a12.591,12.591,0,0,1,2.062,1.534l-.815,1.043a12.255,12.255,0,0,0-2.062-1.654Zm1.522,9.23c.193.012.288.012.408.012.192,0,.48-.012.887-.036a18.062,18.062,0,0,0,1.486-3.308H76.087a10.343,10.343,0,0,0-1.294.072V94.669a9.4,9.4,0,0,0,1.306.072h1.87v-1.8H76.53c-.467,0-.874.024-1.258.06V91.684a8.616,8.616,0,0,0,1.271.072h1.426v-.527A6.457,6.457,0,0,0,77.9,89.97h1.45a7.027,7.027,0,0,0-.071,1.259v.527h1.918a8.683,8.683,0,0,0,1.222-.072V93a8.209,8.209,0,0,0-1.21-.06h-1.93v1.8h2.3a9.5,9.5,0,0,0,1.258-.072v1.343a9.447,9.447,0,0,0-1.247-.072H78.772c-.072.215-.072.215-.24.659a23.8,23.8,0,0,1-1.054,2.326l-.108.228a28.754,28.754,0,0,0,3.189-.4,15.289,15.289,0,0,0-1.176-1.7L80.45,96.5a25.757,25.757,0,0,1,2.422,3.692L81.7,100.9c-.277-.552-.361-.731-.552-1.1a39.356,39.356,0,0,1-4.34.623c-1.307.132-1.558.168-1.942.24Z"/><path class="cls-2" d="M24.968,22.728H21.021l-7.09,11.534v3.471H21.08V41.7h3.888V37.733h2.24V34.359h-2.24ZM18.033,34.359l3.073-5.276v5.276Z"/><rect class="cls-2" x="30.043" y="37.813" width="3.674" height="3.882"/><path class="cls-2" d="M46.73,31.422c1.4-.688,1.979-1.816,1.979-3.731,0-3.458-3.03-5.267-6.025-5.267-3.5,0-6.052,2.321-6.078,5.519l0,.293h3.854l.035-.252A2.06,2.06,0,0,1,42.71,25.95a1.762,1.762,0,0,1,1.951,1.919c0,1.418-.7,1.97-2.511,1.97H40.927v3.526H42.15c2.287,0,3.178.716,3.178,2.554a2.345,2.345,0,0,1-2.484,2.554c-1.743,0-2.706-.936-2.859-2.781l-.022-.267H36.094l0,.3A6.088,6.088,0,0,0,42.55,42c4.083,0,6.826-2.433,6.826-6.055A4.583,4.583,0,0,0,46.73,31.422Z"/><path class="cls-2" d="M56.231,41.533H53.5V33.387c-.284.36-.53.607-.852.948l-.739-3.94a13.131,13.131,0,0,0,2.672-6.82l2.8.189a27.614,27.614,0,0,1-1.156,4.566Zm13.9-11.252v2.538H56.913V30.281h2.615c-.133-.777-.285-1.5-.512-2.368h-1.5V25.356h4.527V23.594h2.841v1.762h4.584v2.557H67.919c-.265,1.25-.341,1.648-.549,2.368Zm-1.08,10.835H57.86V33.652h11.2ZM66.29,36.077H60.626v2.557H66.29Zm-1.554-5.8a20.586,20.586,0,0,0,.493-2.368h-3.5c.056.227.264,1.061.492,2.368Z"/><polygon class="cls-2" points="49.385 57.233 49.385 55.123 48.215 57.233 49.385 57.233"/><path class="cls-2" d="M60.882,54.092,42.7,44.536a.435.435,0,0,0-.4,0L24.117,54.092a.433.433,0,0,0,.2.815h2.916V78.183a.432.432,0,0,0,.432.432H57.333a.432.432,0,0,0,.433-.432V54.907h2.915a.432.432,0,0,0,.2-.815Zm-21.06.8.954-.954,1.781,1.781,1.781-1.781.954.954-1.781,1.781,1.781,1.781-.954.954L42.557,57.63l-1.781,1.781-.954-.954L41.6,56.676Zm-6.3,3.931,2.791-2.741a1.866,1.866,0,0,0,.536-1.181c0-.477-.158-1.046-.914-1.046-.533,0-.819.365-.874,1.116l-.008.105H33.567l0-.115a2.389,2.389,0,0,1,2.484-2.514A2.219,2.219,0,0,1,38.4,54.843a2.924,2.924,0,0,1-1.185,2.362L35.5,58.821h2.861v1.346H33.518Zm14.059,14.6H37.423V63.274H47.577ZM51.718,58.58h-.855v1.587H49.375V58.58H46.647V57.194l.015-.027,2.69-4.595h1.511v4.661h.855Z"/><path class="cls-2" d="M24.178,9.031v9.643H14.633V9.031Zm-1.331,1.3h-6.9v7.059h6.9Zm-1.462,5.289h1.1v1.122H16.315V15.617h2.3v-1.44H16.668V13.154h1.946V12.033H16.491V10.944h5.872v1.089H19.911v1.121h2.254v1.023h-.637a6.132,6.132,0,0,1,.517,1.176Zm-.374-1.44h-1.1v1.44h1.056a6.155,6.155,0,0,0-.517-1.22Z"/><path class="cls-2" d="M25.617,12.978a6.815,6.815,0,0,0,2.727-1.925l1.286.66a8.72,8.72,0,0,1-3.276,2.541Zm3.738.11a7.58,7.58,0,0,0,1.485,2.133,7.4,7.4,0,0,0,1.551-2.232l1.231.671A8.265,8.265,0,0,1,31.907,16.1,9.963,9.963,0,0,0,36.1,17.508L35.5,18.927a10.846,10.846,0,0,1-4.663-1.9,11.1,11.1,0,0,1-4.553,1.924L25.65,17.52a10.381,10.381,0,0,0,4.124-1.441,9.656,9.656,0,0,1-1.705-2.419Zm2.189-4.52v1.1h4.5v1.353H25.661V9.668h4.475v-1.1Zm1.584,2.485a7.35,7.35,0,0,0,3,1.826l-.8,1.32a10.176,10.176,0,0,1-3.41-2.442Z"/><path class="cls-2" d="M37.029,13.088a15.169,15.169,0,0,0,5.07-1.331.9.9,0,0,1-.154.011H40.406l-.188-1.209H41.3c.176,0,.3-.044.3-.286V8.59h1.33v2.145a1.111,1.111,0,0,1-.12.66,6.372,6.372,0,0,0,1.44-1.045l.946.858a10.656,10.656,0,0,1-2.254,1.539h3.5v6.037H38.646v-4.6c-.561.11-.792.154-1.22.231Zm0-2.452a5.707,5.707,0,0,0,2.6-1.957l1.077.637a7.1,7.1,0,0,1-2.914,2.463Zm3.333,3.112c-.232.077-.232.077-.353.11v.583h5.07v-.693Zm4.717,1.627h-5.07v.693h5.07Zm0,1.617h-5.07v.715h5.07Zm-.066-8.369a6.469,6.469,0,0,0,2.595,1.958l-.682,1.275a10.244,10.244,0,0,1-2.991-2.463Z"/><path class="cls-2" d="M52.631,10.493v1.144H48.519V10.493Zm-.34-1.573v1.111H48.838V8.92Zm0,3.189v1.122H48.838V12.109Zm0,1.65V14.87H48.838V13.759Zm1.693,1.561a9.615,9.615,0,0,1-.868,3.2L52.291,18V18.8H48.838V15.4h3.453v2.057a6.438,6.438,0,0,0,.572-2.288Zm-2.748,1.133H50v1.232h1.232ZM55.9,12.637c-.319-.187-.516-.286-.791-.418a6.169,6.169,0,0,1-1.969,1.936l-.813-1.023a3.955,3.955,0,0,0,1.66-1.364c-.5-.165-.67-.22-1.088-.341l.439-.978c.374.088.561.132,1.133.308a2.955,2.955,0,0,0,.132-.682H52.951V8.942h5.607a23.816,23.816,0,0,1-.2,3.86c-.154.583-.363,1.034-1.166,1.034H56.106Zm-.549,2.606v2.112c0,.1,0,.308.186.308h.451c.232,0,.3-.187.353-1.045l1.055.33c-.1,1.033-.187,1.924-1.022,1.924H55.039a.77.77,0,0,1-.846-.781V15.243Zm.846.4a9.076,9.076,0,0,0-1.946-1.385l.7-.869a8.345,8.345,0,0,1,1.935,1.342Zm.616-3.013c.209,0,.353-.088.418-.429a11.356,11.356,0,0,0,.132-2.122H55.876a6.7,6.7,0,0,1-.264,1.089,5.253,5.253,0,0,1,1.044.549l-.494.913Zm1,5.9a12.8,12.8,0,0,0-.825-3.222l1.077-.363a11.731,11.731,0,0,1,.958,3.145Z"/><path class="cls-2" d="M64.462,13H61.955V11.725h6.411V13H65.848v1.353h3.287v1.275H65.848v1.749c.2.01.264.01.462.01h4.134l-.286,1.32H66.31A4.582,4.582,0,0,1,62.3,16.926a6.027,6.027,0,0,1-1.55,2.012l-.891-1.165a6.368,6.368,0,0,0,2.078-4.245l1.342.187a15.1,15.1,0,0,1-.474,1.957,3.412,3.412,0,0,0,1.661,1.419Zm1.386-4.42v.879h4.223v2.694H68.718v-1.44H61.6v1.44H60.239V9.459h4.2V8.58Z"/></svg>