<svg id="レイヤー_1" data-name="レイヤー 1" xmlns="http://www.w3.org/2000/svg" viewBox="0 0 288.701 62.771"><defs><style>.cls-1{fill:#df1614;}.cls-2{fill:none;stroke:#df1614;stroke-miterlimit:10;stroke-width:2.4px;}</style></defs><path class="cls-1" d="M96.593,16.2a23.029,23.029,0,0,0,7.523,4.224,15.012,15.012,0,0,0-2.6,3.174,23.857,23.857,0,0,1-7.623-5.448v5.623H90.1V18.3a22.791,22.791,0,0,1-7.474,5.248,17.161,17.161,0,0,0-2.5-3.049A22.721,22.721,0,0,0,87.5,16.2H82.971V6.348H90.1V5.3H80.921V1.925H90.1V.025h3.8v1.9h9.422V5.3H93.894V6.348h7.447V16.2ZM86.521,10.022H90.1v-1H86.521Zm0,3.5H90.1V12.5H86.521Zm7.373-4.5v1h3.723v-1ZM97.617,12.5H93.894v1.025h3.723Z"/><path class="cls-1" d="M109.171,12a15.93,15.93,0,0,0-4-2.5l2-2.675a15.9,15.9,0,0,1,4.149,2.25Zm-3.6,9.6a75.267,75.267,0,0,0,3.549-8.1l2.9,2C111.1,18.22,110,21.02,108.87,23.569ZM110.32,5.4a17.159,17.159,0,0,0-4.048-2.6L108.3.15A17.245,17.245,0,0,1,112.5,2.5Zm16.846,9.872c-.05.7-.1,1.35-.149,1.925h1.749V20.27h-2.15a4.965,4.965,0,0,1-.7,2.074,2.941,2.941,0,0,1-2.15,1.3,15.571,15.571,0,0,1-3.174.1,7.052,7.052,0,0,0-.875-2.924c1,.075,1.85.1,2.35.1a.99.99,0,0,0,.9-.425.492.492,0,0,0,.125-.225h-6.5l-.2,1.225-3.449-.225c.325-1.675.675-3.774.974-6H111.87V12h2.475c.125-1.025.25-2.024.35-3.024-.125.15-.225.275-.35.4A20.429,20.429,0,0,0,111.3,7.3,15.789,15.789,0,0,0,115.2,0l3.548.775c-.174.65-.4,1.3-.625,1.924h10.423V5.924H116.7q-.375.675-.75,1.274h11.6s-.024,1.025-.05,1.425q-.074,1.838-.15,3.374h1.75v3.274ZM117.044,17.2h1.65c.075-.6.149-1.25.225-1.925h-1.625Zm.625-5.2h1.549l.15-1.725h-1.5Zm6.024,5.2c.049-.55.1-1.2.15-1.925h-1.825c-.075.675-.15,1.325-.226,1.925Zm.424-6.924h-1.674L122.318,12h1.724Z"/><path class="cls-1" d="M135,3.7h13.547a20.528,20.528,0,0,0,2.449-.175V7.673c-.8-.075-1.724-.125-2.449-.125h-4.9v9.473h6.248a16.141,16.141,0,0,0,2.474-.225V21.17a21.555,21.555,0,0,0-2.474-.125H133.421a23.75,23.75,0,0,0-2.6.125V16.8a15.43,15.43,0,0,0,2.6.225h5.973V7.548H135c-.775,0-1.875.05-2.524.125V3.524A19.666,19.666,0,0,0,135,3.7Z"/><path class="cls-1" d="M160.92,3.949v8.5c0,.625.05,1.675.1,2.324h-4.4c.025-.5.125-1.574.125-2.349V3.949a19.279,19.279,0,0,0-.1-1.974h4.375C160.97,2.6,160.92,3.049,160.92,3.949Zm11.572.5V9.9c0,5.023-1.174,7.523-3.074,9.522a15.607,15.607,0,0,1-6.124,3.6L160.12,19.67a11.417,11.417,0,0,0,6.049-3.049c1.674-1.775,2.024-3.549,2.024-7V4.449a19.929,19.929,0,0,0-.174-2.7h4.573C172.542,2.5,172.492,3.349,172.492,4.449Z"/><path class="cls-1" d="M197.292,5.974a26.179,26.179,0,0,1-5.9,6.848l-3.125-2.5A13.591,13.591,0,0,0,192.393,6.2H180.046a29.988,29.988,0,0,0-3.174.2V2.224a21.587,21.587,0,0,0,3.174.275h12.972a17.361,17.361,0,0,0,3-.249l2.4,2.224C198.116,4.849,197.542,5.574,197.292,5.974Zm-16.1,17.1L177.671,20.2a9.709,9.709,0,0,0,2.85-1.525c2.774-2.1,3.4-4.223,3.4-8.3a14.238,14.238,0,0,0-.2-2.5h4.4C188.118,13.747,188.243,19.145,181.2,23.069Z"/><path class="cls-1" d="M202.847,10.638a42.1,42.1,0,0,0-.768,5.715,2.957,2.957,0,0,0,.016.368c.225-.448.416-.768.625-1.233l1.168.929a41.8,41.8,0,0,0-1.152,4.114,5.543,5.543,0,0,0-.1.768c0,.176,0,.464.015.72l-2.24.144a20.422,20.422,0,0,1-.64-5.266,46.074,46.074,0,0,1,.624-6.307c.063-.48.175-1.2.192-1.808l2.7.224C203.152,9.374,202.911,10.35,202.847,10.638Zm4.066,7.635c0,.705.672.977,1.985.977a18.418,18.418,0,0,0,4.034-.432l.048,2.625a23.173,23.173,0,0,1-4.21.3c-2.8,0-4.194-1.04-4.194-2.753a9.5,9.5,0,0,1,.288-2.193l2.209.192A5.586,5.586,0,0,0,206.913,18.273Zm5.571-8.307v2.5a45,45,0,0,1-7.043,0l-.016-2.481A37.065,37.065,0,0,0,212.484,9.966Z"/><path class="cls-1" d="M60.413,47.534s0,.753-.016,1.041c-.208,6.946-.4,9.524-1.073,10.4A2.307,2.307,0,0,1,57.628,60a13.708,13.708,0,0,1-2.529.08,5.411,5.411,0,0,0-.785-2.337c.976.08,1.873.08,2.3.08a.774.774,0,0,0,.689-.288c.464-.48.656-2.753.816-7.811h-3.97a12.174,12.174,0,0,1-1.3,1.985,14.386,14.386,0,0,0-1.5-1.088,12.585,12.585,0,0,1,1.136,2.913l-1.744.8c-.049-.24-.112-.512-.192-.8l-.624.048v1.232l1.424-.464a22.289,22.289,0,0,1,1.009,3.009l-1.793.657a18.953,18.953,0,0,0-.64-2.321v4.417H47.88V55.153A14.524,14.524,0,0,1,47.015,59a11.735,11.735,0,0,0-1.744-.832,12.114,12.114,0,0,0,.736-3.7l1.873.336V53.745l-2.258.16-.191-2,1.264-.048c.193-.24.369-.5.56-.752a14.2,14.2,0,0,0-1.824-2.145L46.5,47.342l.32.272a20.722,20.722,0,0,0,1.04-2.689l2.049.7c-.608,1.137-1.264,2.385-1.825,3.282.113.144.24.288.337.416a27.789,27.789,0,0,0,1.345-2.465l1.953.8c-.656.993-1.393,2.081-2.146,3.089l1.329-.592a12.073,12.073,0,0,0,2.529-5.266l2.417.528c-.192.721-.432,1.425-.688,2.113ZM49.88,51.728c-.127-.3-.256-.592-.4-.864-.24.32-.463.624-.7.912Zm4.8,4.322a15.155,15.155,0,0,0-1.842-3.682L54.7,51.44a14.406,14.406,0,0,1,2,3.569Z"/><path class="cls-1" d="M62.111,57.035l3.239-4.479a9.054,9.054,0,0,0,6.119,2.84c2.88,0,4.679-1.44,4.679-4.24a4.011,4.011,0,0,0-4.36-4.279c-1.638,0-2.439.36-4.2,1.48l-3.119-2.04.76-14.757H81.946v5.959h-10.6l-.44,5.039a7.541,7.541,0,0,1,3.079-.6c5.04,0,9.279,2.839,9.279,9,0,6.439-5.039,10.2-10.758,10.2A14.173,14.173,0,0,1,62.111,57.035Z"/><path class="cls-1" d="M87.111,45.957C87.111,36.039,91.349,31,97.668,31c6.279,0,10.519,5.079,10.519,14.957,0,9.918-4.24,15.2-10.519,15.2C91.349,61.155,87.111,55.875,87.111,45.957Zm14.357,0c0-7.839-1.68-9.438-3.8-9.438s-3.839,1.6-3.839,9.438,1.719,9.678,3.839,9.678S101.468,53.8,101.468,45.957Z"/><path class="cls-1" d="M130.5,36.95a3.1,3.1,0,0,1,.075,6.2c-.125.375-.224.75-.3,1.05-.6,2.35-1.624,6.149-3.775,9.048a20.489,20.489,0,0,1-10.172,7.023l-3.3-3.624a16.356,16.356,0,0,0,9.824-5.773,14.049,14.049,0,0,0,2.749-6.449h-11c-1.225,0-2.6.075-3.25.125V40.274c.775.1,2.424.225,3.25.225h11.021a13.02,13.02,0,0,0,1.8-.125,1.374,1.374,0,0,1-.024-.325A3.114,3.114,0,0,1,130.5,36.95Zm0,4.424a1.325,1.325,0,1,0-1.324-1.325A1.333,1.333,0,0,0,130.5,41.374Z"/><path class="cls-1" d="M138.855,40.574H152.8c.675,0,1.624,0,2.624-.025-.05.825-.05,1.85-.05,2.7v12.2c0,1.074.05,3.724.05,3.724h-4.2s.025-.575.051-1.325H140.129V59.17h-4.175s.076-2.4.076-3.774V43.249c0-.8,0-1.95-.05-2.725C137.005,40.549,138.13,40.574,138.855,40.574Zm1.249,13.4h11.2V44.448H140.1Z"/><path class="cls-1" d="M167.779,47.9l-2.225,3.4c-1.525-1.05-4.049-2.7-5.824-3.65l2.2-3.349A68.446,68.446,0,0,1,167.779,47.9Zm1.5,5.574a25.507,25.507,0,0,0,9.872-9.5l2.324,4.149a30.077,30.077,0,0,1-18.5,12.1l-2.275-4A27.2,27.2,0,0,0,169.279,53.471Zm2.4-11.322L169.428,45.5c-1.5-1-4.049-2.624-5.8-3.6l2.2-3.349C167.578,39.5,170.253,41.174,171.677,42.149Zm7.349.8-2.575,1.1a20.851,20.851,0,0,0-2.174-3.924l2.5-1.025A38.494,38.494,0,0,1,179.026,42.948Zm3.624-1.374L180.1,42.7a22.26,22.26,0,0,0-2.324-3.773l2.548-1.05A33.33,33.33,0,0,1,182.65,41.574Z"/><path class="cls-1" d="M188.379,44.848h11.4a14.641,14.641,0,0,0,2.048-.15v3.774c-.673-.05-1.474-.1-2.048-.1h-3.924v7.4h5.1a14.573,14.573,0,0,0,2.026-.176v3.949a14.576,14.576,0,0,0-2.026-.125h-13.8a16.891,16.891,0,0,0-2.2.125V55.6a16.171,16.171,0,0,0,2.2.176h4.7v-7.4h-3.474c-.625,0-1.575.05-2.124.1V44.7A14.39,14.39,0,0,0,188.379,44.848Z"/><path class="cls-1" d="M217.553,41.524h4.024a9.4,9.4,0,0,0,2.474-.325l3.075,1.9a11.118,11.118,0,0,0-.975,2.05,26.215,26.215,0,0,1-4.324,8.2,24.027,24.027,0,0,1-10.148,7.2l-3.6-3.2c5.4-1.649,8-3.774,10.122-6.148a16,16,0,0,0,3.3-6.249h-6.222a31.038,31.038,0,0,1-6.3,5.974l-3.4-2.525a22.669,22.669,0,0,0,7.773-7.823,13.03,13.03,0,0,0,1.325-2.974l4.424,1.45C218.528,39.849,217.928,40.874,217.553,41.524Z"/><path class="cls-1" d="M232.2,41.824a17.362,17.362,0,0,0-.3-3.249h4.724a29.933,29.933,0,0,0-.25,3.249v3.424A82.546,82.546,0,0,1,246.7,49.022l-1.724,4.224a77.77,77.77,0,0,0-8.6-3.574V56.1c0,.675.151,2.65.276,3.774H231.9a28.038,28.038,0,0,0,.3-3.774Z"/><line class="cls-2" x1="287.61" y1="1.455" x2="259.85" y2="62.273"/><line class="cls-2" x1="1.092" y1="1.455" x2="28.852" y2="62.273"/></svg>