<svg id="レイヤー_1" data-name="レイヤー 1" xmlns="http://www.w3.org/2000/svg" viewBox="0 0 85 101.058"><defs><style>.cls-1{fill:#ec6a02;}.cls-2{fill:#fff;}</style></defs><rect class="cls-1" x="2.967" y="1.845" width="79.232" height="80.456" rx="2.999"/><path class="cls-2" d="M76.254,53.328a.611.611,0,0,0-.012-.135.658.658,0,0,0-.057-.127c-.009-.016-.013-.033-.023-.049a.661.661,0,0,0-.211-.213c-.009-.005-.013-.015-.021-.02s-.025,0-.037-.01a.659.659,0,0,0-.291-.08l-.01,0H67.678V48.675c0-.013-.009-.024-.01-.037a.7.7,0,0,0-.013-.136.623.623,0,0,0-.057-.126.446.446,0,0,0-.022-.05.661.661,0,0,0-.212-.212c-.008,0-.012-.016-.021-.021s-.025,0-.036-.01a.659.659,0,0,0-.291-.08l-.01,0H59.963V44.345c0-.014-.009-.024-.009-.037a.672.672,0,0,0-.013-.135.632.632,0,0,0-.057-.127c-.009-.017-.013-.034-.023-.049a.661.661,0,0,0-.211-.213c-.009,0-.013-.016-.021-.021s-.025,0-.037-.01a.658.658,0,0,0-.291-.079l-.009,0h-15.3l-.333.088L24.392,54.7a.64.64,0,0,0-.091.074l-7.492,4.255a.683.683,0,0,0-.092.075c-.017.013-.037.02-.052.034a.163.163,0,0,1-.011.017.67.67,0,0,0-.133.2l0,.012a.64.64,0,0,0-.045.225.142.142,0,0,0,0,.022v.487L10.1,63.723a.611.611,0,0,0-.093.075c-.016.013-.036.02-.051.034s-.006.011-.011.017a.68.68,0,0,0-.134.2l0,.012a.657.657,0,0,0-.044.225.16.16,0,0,0-.005.021v4.33a.673.673,0,0,0,.673.673H56.324a.663.663,0,0,0,.3-.079c.011-.006.023,0,.034-.009L75.924,58.28a.669.669,0,0,0,.34-.585v-4.33C76.264,53.352,76.255,53.341,76.254,53.328Zm-16.786-3.98h4.988l-16.9,9.6H42.572Zm6.863.483v2.781L48.411,62.791V60.009Zm-7.714-1.548L40.7,58.461V55.68L58.617,45.5ZM44.169,45.018h6.668l-3.3,1.88a.25.25,0,0,0,.124.467.253.253,0,0,0,.124-.033l4.056-2.314h1.237l-3.5,2.049a.25.25,0,0,0,.252.432l4.24-2.481h2.67l-16.9,9.6h-6l3.751-2.2a.249.249,0,1,0-.251-.431l-4.489,2.626H31.541l3.663-2.09a.25.25,0,1,0-.248-.434l-4.424,2.524H27.273ZM25.4,55.961H39.35v2.983H25.4Zm-1.347.506v2.477H19.69Zm-7.584,5.186v1.982H12.979Zm8.587,6.311H11.1V64.982H25.055Zm-7.24-4.69V60.291H31.766v2.983Zm22.538,4.69H26.4V64.982H40.353Zm-7.24-4.69V60.291H47.064v2.983Zm22.538,4.69H41.7V64.982H55.651Zm.495-4.329h-6.5l16.9-9.6h6.5ZM74.918,57.3,57,67.481V64.7L74.918,54.522Z"/><path class="cls-2" d="M17.243,31.76a1.613,1.613,0,0,1-1.649,1.816c-1.375,0-1.936-.8-1.936-2.75v-.315h-3.6v.315c0,4.028,1.874,6.158,5.416,6.158,3.311,0,5.369-1.864,5.369-4.865V18.73h-3.6Z"/><path class="cls-2" d="M27.186,18.73,21.678,36.7H25.4l1.412-4.6h3.895l1.437,4.6h3.7L30.262,18.73ZM29.81,28.835H27.589l1.1-4.157Z"/><path class="cls-2" d="M41.687,18.73H36.822V36.7h3.6V30.231h2.127a5.322,5.322,0,0,0,5.656-5.7C48.205,20.844,45.829,18.73,41.687,18.73Zm2.918,5.727c0,1.145-.406,2.51-2.343,2.51h-1.84V21.994h1.84A2.162,2.162,0,0,1,44.605,24.457Z"/><path class="cls-2" d="M52.924,18.73,47.416,36.7h3.723l1.412-4.6h3.895l1.437,4.6h3.7L56,18.73Zm2.624,10.105H53.327l1.1-4.157Z"/><polygon class="cls-2" points="71.181 18.73 71.181 29.01 66.162 18.73 62.489 18.73 62.489 36.696 65.753 36.696 65.753 25.46 71.349 36.696 74.446 36.696 74.446 18.73 71.181 18.73"/><path class="cls-1" d="M76.5,3A5.508,5.508,0,0,1,82,8.5v68A5.508,5.508,0,0,1,76.5,82H8.5A5.508,5.508,0,0,1,3,76.5V8.5A5.508,5.508,0,0,1,8.5,3h68m0-3H8.5A8.525,8.525,0,0,0,0,8.5v68A8.525,8.525,0,0,0,8.5,85h68A8.525,8.525,0,0,0,85,76.5V8.5A8.525,8.525,0,0,0,76.5,0Z"/><path class="cls-1" d="M25.372,91.792a14.327,14.327,0,0,0-.072-1.451,11.028,11.028,0,0,0,1.415.06h7.563a12.076,12.076,0,0,0,1.415-.06,12.584,12.584,0,0,0-.072,1.439v7.7a9.675,9.675,0,0,0,.072,1.547H34.327v-.683H26.666v.683H25.3a11.355,11.355,0,0,0,.072-1.559Zm1.294,7.384h7.661V91.564H26.666Zm1.8-5.73a6.71,6.71,0,0,0-1.091.06V92.3a6.54,6.54,0,0,0,1.091.06h4.077a6.665,6.665,0,0,0,1.114-.06v1.211a6.934,6.934,0,0,0-1.114-.06H31.018v1.247h1.235a5.51,5.51,0,0,0,1.031-.06V95.82a4.856,4.856,0,0,0-.767-.06,5.909,5.909,0,0,1,.755,1.163l-.647.359a6.165,6.165,0,0,0,1.175-.071v1.246a7.7,7.7,0,0,0-1.128-.06H28.333a7.111,7.111,0,0,0-1.14.06V97.211a5.977,5.977,0,0,0,1.14.071h1.438V95.76h-1.03a5.853,5.853,0,0,0-1.032.06V94.633a5.608,5.608,0,0,0,1.032.06h1.03V93.446Zm2.554,3.836h1.294a5.251,5.251,0,0,0-.754-1.2l.635-.324H31.018Z"/><path class="cls-1" d="M40.231,97.366a7.8,7.8,0,0,1-.623.731,4.815,4.815,0,0,0-.7-.826,8.182,8.182,0,0,1-1.176,3.752,5.277,5.277,0,0,0-.958-1.175,5.469,5.469,0,0,0,.683-1.583,16.934,16.934,0,0,0,.371-3.991c0-.48-.023-.923-.058-1.319a12.151,12.151,0,0,0,1.366.06h1.234A3.836,3.836,0,0,0,39.968,92H38.949a10.12,10.12,0,0,0-1.223.048v-1.3a8.73,8.73,0,0,0,1.307.072H41.97V90.7a5.636,5.636,0,0,0-.061-.755h1.475a3.753,3.753,0,0,0-.071.755v.12h2.936a9.6,9.6,0,0,0,1.355-.072v1.3A11.447,11.447,0,0,0,46.321,92H45.4a10.2,10.2,0,0,1-.5,1.019h1.584a9.459,9.459,0,0,0,1.342-.06v1.222a10.307,10.307,0,0,0-1.342-.059H39.069a25.026,25.026,0,0,1-.108,2.793,4.669,4.669,0,0,0,.839-1.127,6.853,6.853,0,0,0,.624-1.534l1.21.275c-.12.3-.12.3-.263.648h1.342a4.152,4.152,0,0,0-.048-.768h1.366a4.8,4.8,0,0,0-.047.768h2.158a6.768,6.768,0,0,0,1.15-.061v1.271a10.042,10.042,0,0,0-1.162-.047H43.984v.946h1.8a7.905,7.905,0,0,0,1.078-.047v1.174a8.69,8.69,0,0,0-1.078-.048h-1.8v1.163h2.708a9.432,9.432,0,0,0,1.14-.06v1.283a8.58,8.58,0,0,0-1.175-.072H40a9.384,9.384,0,0,0-1.152.06V99.464a7.036,7.036,0,0,0,1.128.06h2.745V98.361H41.334a10.088,10.088,0,0,0-1.1.048Zm.624-1.03a6.529,6.529,0,0,1-.552.91,9.731,9.731,0,0,0,1.019.036h1.4v-.946Zm2.722-3.321A6.183,6.183,0,0,0,44.031,92H41.346a7.84,7.84,0,0,1,.407,1.019Z"/><path class="cls-1" d="M52.369,93.338a6.138,6.138,0,0,0,1.643,2.134,5.047,5.047,0,0,0-.659,1.115,6.883,6.883,0,0,1-1.127-1.654,16.78,16.78,0,0,1,.084,1.99v2.745a11.411,11.411,0,0,0,.071,1.39h-1.39a11.054,11.054,0,0,0,.072-1.39V97.3c.012-.456.012-.456.012-.66a9.836,9.836,0,0,1,.072-1.235,9.927,9.927,0,0,1-1.583,3.129,5.021,5.021,0,0,0-.671-1.367,9.336,9.336,0,0,0,1.451-2.349,12.759,12.759,0,0,0,.575-1.475h-.6a7.34,7.34,0,0,0-1.091.072V92.1a7.511,7.511,0,0,0,1.14.06h.7V91.145a8.325,8.325,0,0,0-.072-1.175h1.39a7.793,7.793,0,0,0-.071,1.175v1.019h.647a7.513,7.513,0,0,0,.935-.06V93.4a7.776,7.776,0,0,0-.923-.06Zm3.118.024a11.441,11.441,0,0,0-1.283.06V92.128a12.011,12.011,0,0,0,1.3.06h1.725v-.744a10.221,10.221,0,0,0-.083-1.438h1.45a12.887,12.887,0,0,0-.059,1.438v.744h.36a7.491,7.491,0,0,0,1.186-.072v1.319a7.664,7.664,0,0,0-1.186-.073h-.349l.036,6.2c0,.647-.144.983-.492,1.151a3.207,3.207,0,0,1-1.271.156c-.394,0-.79-.012-1.21-.048a4.394,4.394,0,0,0-.311-1.307,7.281,7.281,0,0,0,1.318.12c.552,0,.66-.048.66-.3l-.024-4.471a11.969,11.969,0,0,1-1.128,1.786A11.349,11.349,0,0,1,53.832,98.9a5.687,5.687,0,0,0-.875-1.067,10.21,10.21,0,0,0,3.788-4.472Z"/></svg>