<svg id="レイヤー_1" data-name="レイヤー 1" xmlns="http://www.w3.org/2000/svg" viewBox="0 0 397.452 257.896"><defs><style>.cls-1{fill:#df1614;}.cls-2{fill:#fff;}.cls-3,.cls-4,.cls-5,.cls-6{fill:none;stroke:#df1614;stroke-linecap:round;stroke-linejoin:round;stroke-width:3.396px;}.cls-4{stroke-dasharray:4.713 7.114;}.cls-5{stroke-dasharray:4.621 6.975;}.cls-6{stroke-dasharray:3.499 5.281;}</style></defs><polygon class="cls-1" points="0 256.718 140.594 256.718 161.364 227.455 140.594 198.193 0 198.193 0 256.718"/><path class="cls-2" d="M16.975,207.8H28.2c.51,0,1.285,0,2.019-.041-.04.613-.04,1.367-.04,1.979v10c0,.795.04,2.754.04,2.835H27.4c0-.04.021-.509.021-1.1H17.587c.021.571.021,1.04.021,1.1H14.793c0-.1.061-1.877.061-2.856v-9.976c0-.571,0-1.407-.041-1.979C15.649,207.778,16.424,207.8,16.975,207.8Zm.612,11.057h9.854v-8.466H17.587Z"/><path class="cls-2" d="M37.8,212.9H48.759c.959,0,1.856-.081,2.387-.122v3.2c-.49-.021-1.53-.1-2.387-.1H37.8c-1.163,0-2.53.041-3.285.1v-3.2C35.254,212.837,36.743,212.9,37.8,212.9Z"/><path class="cls-2" d="M63.222,217.631a19.2,19.2,0,0,0,7.426-7.936l1.591,2.877a21.688,21.688,0,0,1-7.548,7.549A22.112,22.112,0,0,1,57.122,223L55.409,220.3A21.018,21.018,0,0,0,63.222,217.631Zm0-6.589-2.081,2.122a42.284,42.284,0,0,0-5.1-4.407l1.918-2.04A41.154,41.154,0,0,1,63.222,211.042Z"/><path class="cls-2" d="M79.011,219.264c.857,1.366,2.408,1.917,4.55,2,2.387.1,7.018.041,9.731-.163a10.351,10.351,0,0,0-.755,2.448c-2.468.122-6.569.163-9.017.061-2.53-.1-4.223-.673-5.549-2.265-.877.8-1.755,1.592-2.836,2.448l-1.183-2.529a27.1,27.1,0,0,0,2.693-1.877v-4.3H74.4v-2.225h4.61Zm-1.407-9.14a15.5,15.5,0,0,0-3.2-3.264l1.815-1.449a17,17,0,0,1,3.326,3.122Zm14.342.2a15.2,15.2,0,0,1-2.836,6.406,11.434,11.434,0,0,0,4.1,1.958,8.377,8.377,0,0,0-1.551,2.1,12.124,12.124,0,0,1-4.243-2.305,14.03,14.03,0,0,1-3.836,2.244,8.7,8.7,0,0,0-1.367-2.04,10.665,10.665,0,0,0,3.53-1.958,15.016,15.016,0,0,1-2.285-4.366c-.163,2.652-.694,5.794-2.346,7.956a8.517,8.517,0,0,0-2.04-1.305c1.917-2.428,2.1-5.978,2.1-8.548v-4.733H92.4V208H83.5v1.9h6.446l.449-.061Zm-6.284,1.734a11.015,11.015,0,0,0,1.714,2.979,11.288,11.288,0,0,0,1.611-2.979Z"/><path class="cls-2" d="M98.147,214.49a15.831,15.831,0,0,0-3.673-2.142l1.285-1.816a14.217,14.217,0,0,1,3.775,1.938Zm2.386,2.713c-1.02,2.163-2.223,4.508-3.366,6.508l-2.121-1.51a64.805,64.805,0,0,0,3.651-6.508Zm10.894-8.324a9.916,9.916,0,0,1-2.284,2.428,28.572,28.572,0,0,0,4.672.959,5.927,5.927,0,0,0-1.306,2.183l-.734-.143v9.65h-2.388v-3.448h-5.528a7.534,7.534,0,0,1-2.408,3.693,10.24,10.24,0,0,0-1.938-1.285c2.285-1.8,2.551-4.632,2.551-6.366v-2.223c-.409.1-.837.2-1.266.285a9.961,9.961,0,0,0-1.142-2.04,25.482,25.482,0,0,0,4.978-1.142,12.571,12.571,0,0,1-2.55-2.551h-1.591v-1.611l-1.245,1.774a14.04,14.04,0,0,0-3.611-2.2l1.326-1.795a16.5,16.5,0,0,1,3.53,1.877v-.143h5.12v-1.816h2.51v1.816h5.2v2.1Zm.082,5.366a21.617,21.617,0,0,1-4.713-1.51,24.428,24.428,0,0,1-4.121,1.449h1.714v.9h5v-.837Zm-2.122,4.264V217.1h-5a12.009,12.009,0,0,1-.122,1.408Zm-4.508-9.63a10.5,10.5,0,0,0,2.04,1.469,7.93,7.93,0,0,0,1.775-1.469Z"/><path class="cls-2" d="M122.871,222.263a11.588,11.588,0,0,0,3.509-2.244l1.959,1.223a14.5,14.5,0,0,1-4.346,2.714,14.322,14.322,0,0,0-1.122-1.163h-4.529v.816H116.3v-5.284l-.428.184a7.055,7.055,0,0,0-1.224-1.735,12.085,12.085,0,0,0,3.753-2.142l-1.346-.938a9.236,9.236,0,0,1-.877.694,9.13,9.13,0,0,0-1.53-1.408,9.809,9.809,0,0,0,3.733-4.264l1.979.49a8.3,8.3,0,0,1-.469.939h1.9l.367-.1,1.367.633a11.868,11.868,0,0,1-2.02,3.672,32.142,32.142,0,0,1,2.775,2.04l-1.367,1.693-.041-.04Zm-5.732-12.343H115.18v-3.285h3.264v-1.652h2.265v1.652h3.325v3.285h-2.019v-1.408h-4.876Zm3.672,9.14h-2.469v1.877h2.469Zm1.02-1.877c-.51-.409-1.122-.857-1.734-1.327a14.829,14.829,0,0,1-1.714,1.327Zm-2.978-5.427c-.143.183-.286.347-.429.531l1.408.918a8.728,8.728,0,0,0,1-1.449Zm8.425-2.57c.081-.449.163-.939.245-1.388H124.1v-2.06h9.528v2.06h-3.53c-.163.49-.326.959-.489,1.388h3.611v10.751h-8.507V209.186ZM130.93,211h-4.04v1.245h4.04Zm0,2.917h-4.04v1.245h4.04Zm0,2.958h-4.04v1.266h4.04Zm.061,3.245a25.616,25.616,0,0,1,3.3,2.651l-1.877,1.245a22.488,22.488,0,0,0-3.183-2.795Z"/><path class="cls-2" d="M34.928,245.4c1.449,1.632,3.733,2.571,6.957,2.917a9.452,9.452,0,0,0-1.428,2.123c-3.877-.613-6.3-2.061-7.916-4.591-1.2,1.816-3.468,3.427-7.63,4.549a9.867,9.867,0,0,0-1.51-1.958c3.428-.775,5.386-1.836,6.508-3.04h-6.14v-2.1h7.323a9.226,9.226,0,0,0,.2-1.285H26.074v-1.959h5.243v-1.224H25.748v-1.347H23.932v-4.345h7.446v-1.775h2.489v1.775h7.467v4.345H39.7v1.347H33.745v1.224h5.549v1.959h-5.57a6.89,6.89,0,0,1-.163,1.285h8.058v2.1Zm-3.611-8.527v-1.163h2.428v1.163h5.079v-1.612H26.339v1.612Z"/><path class="cls-2" d="M56.491,246.969c2.08.735,4.427,1.714,5.814,2.387l-2.816,1.082a40,40,0,0,0-5.3-2.408l1.837-1.061H50.065l1.856.816a25.3,25.3,0,0,1-6.365,2.673,24.3,24.3,0,0,0-1.8-1.775,23.985,23.985,0,0,0,5.611-1.714h-3.02v-8.323h6.774a5.818,5.818,0,0,0-1.408-1.49,5.018,5.018,0,0,0,1.183-1.02H51.064v2.122H48.9v-2.122h-1.8a6.821,6.821,0,0,1-1.958,3.387,7.008,7.008,0,0,0-1.592-1.51,5.535,5.535,0,0,0,1.735-4.366v-1.856l1.55.387a24.814,24.814,0,0,0,4.244-.816l1.489,1.429a26.135,26.135,0,0,1-5.182.876v.1c0,.183,0,.408-.021.612h5.611v1.652a3.7,3.7,0,0,0,.714-2.367v-1.856l1.632.388a31.418,31.418,0,0,0,4.57-.837l1.468,1.449a31.8,31.8,0,0,1-5.569.877v.1a5.768,5.768,0,0,1-.021.592h6.386v1.754H59.591v2.142H57.429v-2.142h-2.06a5.423,5.423,0,0,1-2,2.51H60.02v8.323Zm-7.794-6h8.854v-.877H48.7Zm0,2.265h8.854v-.878H48.7Zm0,2.264h8.854v-.9H48.7Z"/><path class="cls-2" d="M80.563,239.666a14.429,14.429,0,0,1-4.794,6.569,23.636,23.636,0,0,0,7.242,1.836,12.388,12.388,0,0,0-1.55,2.367,21.768,21.768,0,0,1-8.12-2.632,27.24,27.24,0,0,1-8.14,2.59,9.284,9.284,0,0,0-1.326-2.346,26.859,26.859,0,0,0,7.242-1.856,15.763,15.763,0,0,1-3.427-4.407l1.8-.612H65.711v-2.387h6.406v-2.366H64.691v-2.407h7.426v-2.653h2.509v2.653h7.467v2.407H74.626v2.366h3.815l.428-.081Zm-10.507,1.509a10.935,10.935,0,0,0,3.427,3.754,10.888,10.888,0,0,0,3.591-3.754Z"/><path class="cls-2" d="M89.762,242.848v4.876c0,1.244-.244,1.836-.958,2.224a7.86,7.86,0,0,1-3.346.448,9.162,9.162,0,0,0-.694-2.285c.918.041,1.918.041,2.2.041.307-.02.429-.122.429-.448v-4.326c-.959.205-1.856.409-2.673.572l-.51-2.387c.9-.123,1.979-.327,3.183-.531v-3.57H84.52v-2.244H87.4v-3.876h2.366v3.876h2.612v2.244H89.762v3.121c.9-.183,1.8-.346,2.693-.53l.164,2.142Zm11.425,7.528c-.1-.53-.265-1.143-.449-1.8-3.529.53-7.222,1-9.915,1.387l-.53-2.53c.632-.061,1.346-.122,2.142-.2a105.579,105.579,0,0,0,3-15.361l2.652.428a128.509,128.509,0,0,1-3.142,14.648c1.612-.163,3.326-.367,5.039-.572a53,53,0,0,0-2.264-5.12l2.142-.755a42.588,42.588,0,0,1,3.733,8.977Z"/><path class="cls-2" d="M109.1,236.524c-.021,1.326,0,2.856.122,4.325.285,2.938.9,4.957,2.183,4.957.959,0,1.775-2.387,2.162-4.019l2.04,2.489c-1.346,3.55-2.631,4.794-4.263,4.794-2.244,0-4.182-2.019-4.754-7.487-.2-1.876-.224-4.264-.224-5.508a12.442,12.442,0,0,0-.163-2.081l3.141.041A16.613,16.613,0,0,0,109.1,236.524Zm14.158,8.548-2.673,1.04c-.326-3.284-1.407-8.242-3.631-10.772l2.591-.836C121.485,236.85,123.035,241.951,123.26,245.072Z"/><path class="cls-1" d="M281.979,234.651c-.03,1.384-.118,2.739-.206,4.123h13.311s-.03,1.3-.088,1.826c-.413,8.864-.913,12.457-2.092,13.841a4.8,4.8,0,0,1-3.474,1.679,35.634,35.634,0,0,1-5.154.088A9.652,9.652,0,0,0,282.745,252c1.973.176,3.916.176,4.829.176a1.891,1.891,0,0,0,1.414-.412c.706-.648,1.148-3.386,1.443-8.864h-9.159c-.913,5.3-3.033,10.189-8.364,13.547a12.557,12.557,0,0,0-3.092-3.534c7.274-4.182,7.421-11.368,7.627-18.259h-6.272v-4.182h26.122v4.182Z"/><path class="cls-1" d="M326.479,251.7c0,2.18-.442,3.328-1.8,4.035s-3.18.795-5.8.795a15.144,15.144,0,0,0-1.532-4.27c1.532.118,3.475.088,4.035.088s.766-.177.766-.706v-6.067H305.422V256.5h-4.3v-26.15h25.356Zm-21.057-10.366h6.008v-6.744h-6.008Zm16.728,0v-6.744H315.7v6.744Z"/><path class="cls-1" d="M349.156,231.294c2.857,2.356,6.42,5.743,7.952,8.334l-3.74,2.857a19.709,19.709,0,0,0-1.738-2.563c-7.686.384-15.785.678-21.321.913l-.236-4.329c1.384-.029,2.945-.088,4.6-.117a48.614,48.614,0,0,0,4.034-8.128l4.948,1.59c-1.149,2.179-2.474,4.388-3.77,6.361,2.65-.118,5.389-.206,8.128-.324-.766-.736-1.5-1.443-2.238-2.091Zm-16.138,11.868H353.25V256.5h-4.623v-1.118H337.406V256.5h-4.388Zm4.388,4.093v4.006h11.221v-4.006Z"/><path class="cls-1" d="M366.946,242.131c-1.679,0-3.151,1.326-4.212,3.3l-3.857-2.121c2.031-3.8,4.977-5.595,8.157-5.595a9,9,0,0,1,7.156,3.328,4.7,4.7,0,0,0,4,1.914c1.679,0,3.151-1.325,4.212-3.3l3.858,2.12c-2.032,3.8-4.977,5.595-8.158,5.595a9,9,0,0,1-7.156-3.328A4.736,4.736,0,0,0,366.946,242.131Z"/><path class="cls-1" d="M195.284,251.349c0,2.415-.559,3.622-2.061,4.329-1.561.736-3.711.824-6.715.824a17.235,17.235,0,0,0-1.767-4.5c1.885.147,4.359.118,5.066.118.677,0,.913-.236.913-.825V247.9H178.969a15.655,15.655,0,0,1-4.947,8.629,16.6,16.6,0,0,0-3.328-3.092c4.329-3.593,4.683-9.1,4.683-13.488v-10.1h19.907Zm-4.564-7.6v-2.827H179.794c-.029.883-.088,1.855-.177,2.827Zm-10.926-9.718v2.827H190.72v-2.827Z"/><path class="cls-1" d="M225.766,237.1a48.944,48.944,0,0,1-5.713,11.073,20.194,20.194,0,0,1,3.18,2.386l-2.944,4.123c-2.18-2.327-7.1-5.3-11.044-7.068l2.621-3.593c1.3.53,2.739,1.178,4.182,1.885a39.6,39.6,0,0,0,3.416-6.126h-7.6a31.852,31.852,0,0,1-6.008,8.511,26.745,26.745,0,0,0-4.123-2.356c4.418-3.858,7.6-10.631,9.012-15.873l4.741,1.06c-.471,1.443-1.03,2.916-1.649,4.388H221.7l.8-.176Z"/><path class="cls-1" d="M264.813,189.833v9.1H245.664v18.2a10.848,10.848,0,0,1,3.412-2.228,11.606,11.606,0,0,1,4.645-.9,11.03,11.03,0,0,1,8.011,2.986q3.078,2.985,3.081,8.958v17.442a14.756,14.756,0,0,1-1.185,6.067,14.2,14.2,0,0,1-3.176,4.55,13.636,13.636,0,0,1-4.6,2.891,15.412,15.412,0,0,1-10.9,0,13.626,13.626,0,0,1-4.6-2.891,14.165,14.165,0,0,1-3.175-4.55A14.724,14.724,0,0,1,236,243.392v-2.844h9.669v2.465a5.187,5.187,0,0,0,1.374,3.839,4.807,4.807,0,0,0,3.555,1.375,4.277,4.277,0,0,0,3.366-1.328,5.356,5.356,0,0,0,1.184-3.7V227.372a4.921,4.921,0,0,0-1.28-3.413,4.2,4.2,0,0,0-3.27-1.422,4.622,4.622,0,0,0-2.086.427,5.411,5.411,0,0,0-1.421,1,3.941,3.941,0,0,0-.853,1.232q-.476.853-.569,1.043h-8.532v-36.4Z"/><path class="cls-1" d="M47.319,27.778c0,2.408,2.236,4.257,8.041,4.257a63.346,63.346,0,0,0,15.308-1.721l.043,7.4a71.051,71.051,0,0,1-15.093,1.419c-10.449,0-15.351-3.525-15.351-9.717a30.25,30.25,0,0,1,.86-6.321l6.837.6A17.518,17.518,0,0,0,47.319,27.778ZM55.188,5.5c4.3,0,9.545-.258,12.942-.6v6.966c-3.052.258-8.729.516-12.9.516-4.6,0-8.385-.215-11.954-.473V4.988A116.126,116.126,0,0,0,55.188,5.5Z"/><path class="cls-1" d="M101.5,6.88c-2.236,3.139-4.73,7.7-6.794,11.309a14.63,14.63,0,0,1,4.085-.559c3.44,0,5.289,2.15,5.5,5.848.085,1.548-.043,5.074.215,6.708a2.127,2.127,0,0,0,2.365,1.935c3.139,0,5.159-4.214,6.449-9.976l5.677,4.6c-2.237,7.653-6.408,12.6-13.245,12.6-4.858,0-7.481-2.838-7.7-6.279-.172-2.192-.172-5.8-.3-7.223a2.009,2.009,0,0,0-2.15-2.064c-2.623,0-4.6,2.709-6.063,6.235-1.032,2.494-2.322,7.137-3.01,9.5l-7.4-2.5C82.321,28.466,90.792,10.965,93.071,6.88c.559-1.2,1.5-2.838,2.408-4.945l7.4,2.967C102.4,5.5,101.972,6.235,101.5,6.88Z"/><path class="cls-1" d="M139.683,7.4c2.021-.387,3.827-.817,5.289-1.247l.172,5.977a58.674,58.674,0,0,1-7.31,1.462,79.087,79.087,0,0,1-9.116,18.533l-6.278-3.183a69.217,69.217,0,0,0,8.514-14.7c-.473.043-.9.043-1.376.043-1.806,0-3.569-.043-5.547-.172l-.473-6.02c1.978.215,4.558.3,5.977.3q1.677,0,3.354-.129a34.248,34.248,0,0,0,1.075-7.009l7.138.688C140.8,3.268,140.285,5.246,139.683,7.4Zm11.481,14.018c.043,1.032.129,2.709.215,4.515a28,28,0,0,1,8.9,5.59l-3.44,5.589a46,46,0,0,0-5.2-4.385c-.13,4.128-2.365,7.223-8.729,7.223-5.676,0-10.1-2.665-10.1-7.654,0-4.3,3.4-8,10.019-8a19.685,19.685,0,0,1,2.279.129c-.172-3.053-.344-6.622-.473-9.03h6.536C151.035,17.243,151.121,19.307,151.164,21.414Zm-9.2,12.556c2.58,0,3.354-1.5,3.354-3.913v-.215a16.038,16.038,0,0,0-2.924-.3c-2.107,0-3.44.86-3.44,2.106C138.952,33.023,140.156,33.97,141.962,33.97Zm5.289-21.887,3.354-5.16a87,87,0,0,1,10.964,5.891l-3.7,5.5A62.494,62.494,0,0,0,147.251,12.083Z"/><path class="cls-1" d="M175.459,7.955c-.473,2.236-2.064,11.352-2.064,15.351a7.948,7.948,0,0,0,.043.989c.6-1.2,1.118-2.064,1.677-3.311l3.139,2.494a114.02,114.02,0,0,0-3.1,11.051,14.9,14.9,0,0,0-.258,2.064c0,.472,0,1.246.043,1.934l-6.02.388a54.854,54.854,0,0,1-1.72-14.147c0-6.579,1.247-13.76,1.677-16.942a48.258,48.258,0,0,0,.516-4.859l7.267.6C176.276,4.558,175.631,7.181,175.459,7.955Zm10.922,20.511c0,1.892,1.806,2.623,5.331,2.623a49.427,49.427,0,0,0,10.836-1.161l.129,7.051a62.116,62.116,0,0,1-11.308.817C183.844,37.8,180.1,35,180.1,30.4a25.52,25.52,0,0,1,.774-5.891l5.934.516A15.013,15.013,0,0,0,186.381,28.466ZM201.344,6.149v6.708a120.819,120.819,0,0,1-18.919,0l-.043-6.665A99.517,99.517,0,0,0,201.344,6.149Z"/><path class="cls-1" d="M220.781,23.65l-3.526.989V34.658c0,2.666-.387,4.214-1.849,5.159-1.419.947-3.4,1.162-6.149,1.162a22.409,22.409,0,0,0-1.548-5.676c1.376.086,2.795.086,3.311.086s.688-.172.688-.731V26.187l-3.44.9-1.29-5.977c1.376-.258,2.967-.6,4.73-1.032V13.674H207.8V7.955h3.913V.086h5.547V7.955h2.967v5.719h-2.967v5.074l2.752-.688Zm27-16.555v5.547H220.652V7.1h5.633a29.911,29.911,0,0,0-2.408-5.031L228.951.129a24.223,24.223,0,0,1,3.095,6.149l-2.021.817h9.16l-2.838-.645A38.172,38.172,0,0,0,238.969,0l6.063,1.247c-1.074,2.236-2.15,4.3-3.009,5.848ZM233.552,35.561c0,2.149-.215,3.568-1.463,4.385s-2.708.947-4.686.947a18.163,18.163,0,0,0-1.247-4.945c.817.043,1.72.043,2.064.043s.43-.129.43-.516V32.207l-.6.645a16.094,16.094,0,0,0-2.107-1.935v9.288h-4.859V14.276h12.47Zm-7.611-16.512V21.07l.86-.989a21.094,21.094,0,0,1,1.849,1.032V19.049Zm.731,7.568a21.137,21.137,0,0,1,1.978,1.247V25.585l-.387.473a20.017,20.017,0,0,0-2.322-1.806v3.139Zm13.287,5.5H235.1V15.093h4.859Zm1.59-18.4h5.461V35c0,2.452-.43,3.914-2.021,4.816-1.547.861-3.526,1.076-6.063,1.076a20.362,20.362,0,0,0-2.15-5.332c1.678.085,3.44.085,4,.043.6,0,.774-.129.774-.646Z"/><path class="cls-1" d="M259.911,16.856c2.881-.86,10.277-3.268,15.566-3.268,7.223,0,11.867,4.257,11.867,11.137,0,7.482-6.235,13.416-21.026,14.318l-2.795-6.406c10.1-.258,16.856-2.838,16.856-8.041,0-2.967-2.15-4.945-5.547-4.945-4.816,0-12.9,3.354-17.114,5.16l-2.666-6.751A47.148,47.148,0,0,0,259.911,16.856Z"/><path class="cls-1" d="M299.514,6.493c4.042-.344,10.535-.86,18.4-1.548,4.3-.344,9.374-.645,12.512-.774l.043,6.708a54.24,54.24,0,0,0-8.256.516c-4.643,1.032-8.642,6.063-8.642,11.18,0,6.321,5.934,8.815,13.372,9.245l-2.45,7.223c-9.589-.73-17.8-5.933-17.8-15.092A17.55,17.55,0,0,1,312.156,11.4,165.186,165.186,0,0,0,295.73,13.8l-.645-7.1C296.805,6.665,298.7,6.579,299.514,6.493Z"/><path class="cls-1" d="M339.547,32.98a4.387,4.387,0,0,1,8.772,0,4.386,4.386,0,1,1-8.772,0Zm.43-21.155-.258-7.138h8.428l-.258,7.138L346.6,25.413h-5.332Z"/><path class="cls-1" d="M268.855,131.013c-.035,1.6-.136,3.162-.238,4.759h15.366s-.034,1.5-.1,2.108c-.476,10.233-1.054,14.381-2.414,15.979a5.539,5.539,0,0,1-4.011,1.938,41.042,41.042,0,0,1-5.95.1,11.133,11.133,0,0,0-1.768-4.861c2.278.2,4.522.2,5.576.2a2.183,2.183,0,0,0,1.632-.476c.816-.748,1.326-3.91,1.665-10.233H268.039c-1.054,6.119-3.5,11.763-9.655,15.639a14.506,14.506,0,0,0-3.57-4.08c8.4-4.827,8.567-13.123,8.805-21.078h-7.241v-4.827h30.155v4.827Z"/><path class="cls-1" d="M320.227,150.7c0,2.516-.51,3.842-2.074,4.657s-3.671.918-6.7.918a17.487,17.487,0,0,0-1.768-4.929c1.768.136,4.011.1,4.657.1s.885-.2.885-.816v-7H295.919v12.613h-4.963V126.05h29.271ZM295.919,138.73h6.936v-7.785h-6.936Zm19.311,0v-7.785h-7.446v7.785Z"/><path class="cls-1" d="M332.945,139.648c-1.938,0-3.638,1.53-4.861,3.808l-4.454-2.448c2.346-4.385,5.745-6.459,9.417-6.459a10.388,10.388,0,0,1,8.261,3.842,5.425,5.425,0,0,0,4.624,2.209c1.937,0,3.637-1.53,4.861-3.808l4.454,2.448c-2.346,4.386-5.746,6.46-9.417,6.46a10.393,10.393,0,0,1-8.262-3.842A5.463,5.463,0,0,0,332.945,139.648Z"/><path class="cls-1" d="M48.954,156.074V143.786L72.505,99.37a16.256,16.256,0,0,0,2.049-5.824q.255-2.5.256-6.208,0-1.662-.064-3.52a8.591,8.591,0,0,0-.7-3.264,5.5,5.5,0,0,0-5.632-3.328,5.9,5.9,0,0,0-6.4,6.528v7.424H48.954V84.01a19.276,19.276,0,0,1,1.536-7.68,19.829,19.829,0,0,1,4.223-6.272,19.19,19.19,0,0,1,6.145-4.288,18.625,18.625,0,0,1,7.68-1.6,19.161,19.161,0,0,1,8.768,1.856,17.519,17.519,0,0,1,6.08,5.056,22.066,22.066,0,0,1,3.391,7.3,33.8,33.8,0,0,1,1.089,8.7q0,3.33-.128,5.568a33.95,33.95,0,0,1-.512,4.288,18.936,18.936,0,0,1-1.28,4.1q-.9,2.049-2.432,4.992l-19.2,36.992H87.866v13.056Z"/><path class="cls-1" d="M96.313,165.546V143.018h13.056v13.056Z"/><path class="cls-1" d="M156.728,64.938V77.226H130.872V101.8a14.644,14.644,0,0,1,4.608-3.008,15.666,15.666,0,0,1,6.272-1.216,14.887,14.887,0,0,1,10.815,4.032q4.158,4.032,4.161,12.1v23.552a19.928,19.928,0,0,1-1.6,8.192,19.177,19.177,0,0,1-4.289,6.144,18.424,18.424,0,0,1-6.208,3.9,20.822,20.822,0,0,1-14.719,0,18.414,18.414,0,0,1-6.208-3.9,19.143,19.143,0,0,1-4.288-6.144,19.863,19.863,0,0,1-1.6-8.192v-3.84h13.056v3.328a7,7,0,0,0,1.856,5.184,6.486,6.486,0,0,0,4.8,1.856,5.771,5.771,0,0,0,4.544-1.792,7.236,7.236,0,0,0,1.6-4.992V115.626a6.651,6.651,0,0,0-1.728-4.608,5.674,5.674,0,0,0-4.416-1.92,6.247,6.247,0,0,0-2.815.576,7.276,7.276,0,0,0-1.92,1.344,5.334,5.334,0,0,0-1.153,1.664q-.641,1.152-.767,1.408h-11.52V64.938Z"/><path class="cls-1" d="M164.151,83.754a19.886,19.886,0,0,1,1.6-8.192,19.187,19.187,0,0,1,4.288-6.144,18.445,18.445,0,0,1,6.208-3.9,20.824,20.824,0,0,1,14.72,0,18.465,18.465,0,0,1,6.208,3.9,19.218,19.218,0,0,1,4.288,6.144,19.918,19.918,0,0,1,1.6,8.192v53.5a19.912,19.912,0,0,1-1.6,8.192,19.174,19.174,0,0,1-4.288,6.144,18.434,18.434,0,0,1-6.208,3.9,20.824,20.824,0,0,1-14.72,0,18.414,18.414,0,0,1-6.208-3.9,19.143,19.143,0,0,1-4.288-6.144,19.879,19.879,0,0,1-1.6-8.192Zm13.056,53.5A6.447,6.447,0,0,0,179,141.93a6.648,6.648,0,0,0,9.216,0,6.455,6.455,0,0,0,1.792-4.672v-53.5a6.462,6.462,0,0,0-1.792-4.672,6.648,6.648,0,0,0-9.216,0,6.453,6.453,0,0,0-1.792,4.672Z"/><path class="cls-1" d="M210.486,83.754a19.886,19.886,0,0,1,1.6-8.192,19.187,19.187,0,0,1,4.288-6.144,18.445,18.445,0,0,1,6.208-3.9,20.824,20.824,0,0,1,14.72,0,18.465,18.465,0,0,1,6.208,3.9,19.218,19.218,0,0,1,4.288,6.144,19.918,19.918,0,0,1,1.6,8.192v53.5a19.912,19.912,0,0,1-1.6,8.192,19.174,19.174,0,0,1-4.288,6.144,18.434,18.434,0,0,1-6.208,3.9,20.824,20.824,0,0,1-14.72,0,18.414,18.414,0,0,1-6.208-3.9,19.143,19.143,0,0,1-4.288-6.144,19.879,19.879,0,0,1-1.6-8.192Zm13.056,53.5a6.447,6.447,0,0,0,1.792,4.672,6.648,6.648,0,0,0,9.216,0,6.455,6.455,0,0,0,1.792-4.672v-53.5a6.462,6.462,0,0,0-1.792-4.672,6.648,6.648,0,0,0-9.216,0,6.453,6.453,0,0,0-1.792,4.672Z"/><line class="cls-3" x1="29.363" y1="106.962" x2="26.532" y2="106.979"/><line class="cls-4" x1="19.419" y1="107.021" x2="11.149" y2="107.071"/><line class="cls-3" x1="7.592" y1="107.092" x2="4.762" y2="107.109"/><line class="cls-3" x1="30.954" y1="86.316" x2="28.644" y2="84.681"/><line class="cls-5" x1="22.952" y1="80.651" x2="16.335" y2="75.965"/><line class="cls-3" x1="13.488" y1="73.95" x2="11.179" y2="72.315"/><line class="cls-3" x1="11.179" y1="138.247" x2="13.672" y2="136.908"/><line class="cls-6" x1="18.325" y1="134.409" x2="23.734" y2="131.505"/><line class="cls-3" x1="26.061" y1="130.255" x2="28.554" y2="128.917"/><line class="cls-3" x1="371.153" y1="106.962" x2="373.983" y2="106.979"/><line class="cls-4" x1="381.097" y1="107.021" x2="389.367" y2="107.071"/><line class="cls-3" x1="392.924" y1="107.092" x2="395.754" y2="107.109"/><line class="cls-3" x1="369.562" y1="86.316" x2="371.872" y2="84.681"/><line class="cls-5" x1="377.564" y1="80.651" x2="384.181" y2="75.965"/><line class="cls-3" x1="387.027" y1="73.95" x2="389.337" y2="72.315"/><line class="cls-3" x1="389.337" y1="138.247" x2="386.844" y2="136.908"/><line class="cls-6" x1="382.191" y1="134.409" x2="376.782" y2="131.505"/><line class="cls-3" x1="374.455" y1="130.255" x2="371.962" y2="128.917"/></svg>