<svg id="レイヤー_1" data-name="レイヤー 1" xmlns="http://www.w3.org/2000/svg" viewBox="0 0 379.003 150.537"><defs><style>.cls-1,.cls-2{fill:#df1614;}.cls-2{fill-rule:evenodd;}</style></defs><path class="cls-1" d="M251.171,134.289H237.1v13.538H224.891V134.289h-15.22V123.317h15.22v-6.46h-5.929a36.888,36.888,0,0,1-3.008,5.929,53.292,53.292,0,0,0-7.521-4.07v17.52c0,4.69-.8,7.875-3.717,9.733-3.008,1.77-6.636,2.035-11.68,2.035a37.7,37.7,0,0,0-3.539-10.795c2.92.177,6.1.177,7.167.177.973,0,1.327-.354,1.327-1.416V124.91H182.33c-.974,8.406-2.921,17.077-7.08,23.36a45.7,45.7,0,0,0-8.848-5.663c6.017-9.114,6.459-22.3,6.459-32.3V96.594a70.7,70.7,0,0,0-7.078-5.663c5.928-6.371,10.441-16.635,12.741-26.988l11.327,2.478c-.531,2.035-1.062,4.07-1.77,6.017h6.636L196.31,72l7.256,4.424a114,114,0,0,1-4.513,10.53h9.38v4.513c6.017-3.008,8.317-7.256,9.291-12.476h-8.761V68.544h40s-.088,2.566-.177,3.894c-.354,13.892-1.062,20.263-3.009,22.74a8.731,8.731,0,0,1-5.751,3.274c-1.062.177-2.566.266-4.159.354H237.1v7.345h12.211v10.706H237.1v6.46h14.069ZM184.542,81.994c-.8,1.681-1.5,3.362-2.3,4.955h6.194c.619-1.5,1.239-3.274,1.77-4.955Zm-1.5,28.4c0,1.681,0,3.451-.088,5.221h3.362v-5.575h-3.274Zm0-9.291h3.274V96.24h-3.274Zm11.592,0h3.362V96.24h-3.362Zm3.362,14.512v-5.575h-3.362v5.575Zm10.442-.531a51.152,51.152,0,0,0,4.424-13.892,28.33,28.33,0,0,0-4.424-6.726Zm16.458-8.937V98.806h6.282a25.75,25.75,0,0,0-2.831-10.264,51.615,51.615,0,0,0,5.4.354,2.55,2.55,0,0,0,2.3-.973c.62-.8,1.062-3.274,1.328-8.937h-8.141c-1.328,8.937-4.513,15.927-13.362,20.882l7.61,1.505c-.265,1.592-.619,3.185-.973,4.778Z"/><path class="cls-1" d="M269.643,107.124c-3.274-3.009-10.441-6.9-16.016-9.2l6.9-9.734c5.4,1.858,12.831,5.309,16.547,8.229Zm12.211,11.68c-4.424,9.468-9.379,19.2-14.423,28.139l-11.238-8.053a260.024,260.024,0,0,0,15.839-28.138Zm-7.079-35.571c-3.185-3.1-10.264-7.079-15.75-9.468l6.9-9.468c5.4,1.947,12.653,5.486,16.281,8.406Zm43.182,32.032c4.158,9.468,11.148,17.431,20.971,21.679A48.9,48.9,0,0,0,329.9,148.27c-10.707-5.486-17.786-14.777-22.741-26.546-3.1,10.265-9.2,19.644-21.236,26.723a54.035,54.035,0,0,0-10.8-9.114c11.857-6.46,17.52-14.954,20.087-24.068H280.084V103.231h17.078q.266-3.983.266-7.964V89.338H284.155V77.3h13.273V64.031h12.83V77.3h21.325v25.927h6.283v12.034Zm-7.7-19.91c0,2.567,0,5.221-.177,7.876h8.937V89.338h-8.76Z"/><path class="cls-1" d="M350.08,140.535a8.417,8.417,0,1,1,6.807,9.86A8.226,8.226,0,0,1,350.08,140.535ZM361.954,80.3l2.24-14.646L379,68.267,376.1,82.8l-9.713,40.218-9.061-1.6Z"/><path class="cls-1" d="M18.808,91.1c0,.334-.042.751-.042,1.209A93.247,93.247,0,0,0,28.9,91.226l-.042,5.755c-2.5.375-6.172.709-10.175.876-.042,1.209-.042,2.377-.042,3.461,4.3-.208,7.631-.584,10.842-.959l-.041,5.922c-3.67.375-6.714.625-10.676.75.084,1.335.167,2.752.25,4.17a31.72,31.72,0,0,1,11.427,6.214l-3.629,5.63a31.8,31.8,0,0,0-7.464-5.421v.834c0,3.92-3.169,6.589-8.674,6.589-7.048,0-10.676-2.8-10.676-7.423,0-4.463,4-7.632,10.634-7.632.709,0,1.376.042,2.044.083-.042-.959-.084-1.96-.126-2.919H10.509c-2.21,0-7.006-.208-9.633-.542l-.084-5.922a72.206,72.206,0,0,0,9.8.793h1.877c0-1.126,0-2.294.042-3.42H11.176a96.179,96.179,0,0,1-10.008-.75L1.042,91.6a78.6,78.6,0,0,0,10.093.918h1.417V91.1a15.988,15.988,0,0,0-.291-3.044H19.1C18.975,88.932,18.85,90.1,18.808,91.1ZM9.675,119.333c2.127,0,3.3-.583,3.3-2.71,0-.292,0-.709-.042-1.21a19.1,19.1,0,0,0-3.128-.25c-2.335,0-3.67.918-3.67,2.085C6.13,118.625,7.506,119.333,9.675,119.333Z"/><path class="cls-1" d="M51.883,99.525c3.044-1.752,6.213-3.378,8.007-4.421a31.318,31.318,0,0,0,4.337-2.835l3.5,5.838c-1.459.876-2.96,1.71-4.67,2.544a117.818,117.818,0,0,0-11.051,5.8c-3.212,2.126-5.547,4.336-5.547,7.089s2.669,4.045,8.007,4.045a68.985,68.985,0,0,0,13.762-1.626l-.084,7.3A80.081,80.081,0,0,1,54.635,124.3c-8.591,0-15.221-2.294-15.221-10.009,0-4.712,2.961-8.173,6.8-11.051-1.918-3.586-3.878-7.882-5.713-12.218l6.338-2.586A85.019,85.019,0,0,0,51.883,99.525Z"/><path class="cls-1" d="M102.081,93.937a7.208,7.208,0,0,0-.209.917c6.422,1.668,10.717,7.048,10.717,14.429,0,9.133-6.5,14.221-15.054,15.6L93.657,119c9.425-.792,12.343-5.547,12.343-10.051,0-4.17-2.126-7.256-5.671-8.465a51.708,51.708,0,0,1-5.38,12.636c.709.792,1.418,1.584,2.127,2.252l-5.129,4.045c-.375-.459-.751-.834-1.084-1.251-2.92,3.044-5.088,4.045-8.174,4.045-3.628,0-7.089-3.086-7.089-8.758a18.841,18.841,0,0,1,5.963-13.344l-1-3.128a29.1,29.1,0,0,0-1.876-4.629l6.63-2.085a41.9,41.9,0,0,0,.918,4.17c.208.709.417,1.46.625,2.21a24.377,24.377,0,0,1,8.758-2.293c.083-.5.167-.959.25-1.418a25.232,25.232,0,0,0,.334-4.421l7.006.668C102.831,90.392,102.373,92.769,102.081,93.937ZM83.439,115.622c1.21,0,2.419-.918,3.754-2.419a45.689,45.689,0,0,1-3.378-7.006,11.637,11.637,0,0,0-2.294,6.714C81.521,114.538,82.188,115.622,83.439,115.622Zm7.59-8.049a42.717,42.717,0,0,0,3.045-7.423,16.181,16.181,0,0,0-5.38,1.96A46.727,46.727,0,0,0,91.029,107.573Z"/><path class="cls-1" d="M121.214,92.686c3.92-.334,10.217-.834,17.849-1.5,4.17-.333,9.091-.625,12.135-.75l.042,6.5a52.6,52.6,0,0,0-8.007.5c-4.5,1-8.382,5.88-8.382,10.842,0,6.131,5.755,8.549,12.969,8.966l-2.377,7.006c-9.3-.709-17.264-5.755-17.264-14.637a17.019,17.019,0,0,1,5.3-12.177,160.1,160.1,0,0,0-15.931,2.335l-.625-6.881C118.587,92.853,120.422,92.769,121.214,92.686Z"/><polygon class="cls-2" points="365.99 25.262 372.461 29.176 354.26 42.141 362.497 30.062 356.582 26.495 374.204 13.166 365.99 25.262 365.99 25.262"/><polygon class="cls-2" points="19.093 25.262 12.621 29.176 30.823 42.141 22.586 30.062 28.5 26.495 10.879 13.166 19.093 25.262 19.093 25.262"/><path class="cls-1" d="M136.079,19.407V14.9H145.1v4.511ZM154.125,17V37.454l-4.511,4.512H136.079v-5.6h4.511v1.09h7.144l1.88-1.842V17Zm-18.046,11.43V23.919H145.1v4.512Z"/><path class="cls-1" d="M174.464,37.417v4.511H156.417V37.417h6.768v-13.5h-4.512V19.407h13.535v4.512H167.7v13.5Z"/><path class="cls-1" d="M176.719,41.928V14.9h3.609V41.928Zm18.047-18.009v13.5l-4.512,4.511H183V14.9h4.511V37.417h.865l1.88-1.843V23.919Z"/><path class="cls-1" d="M197.772,28.431V23.919h.376l1.88-1.88V14.9h15.791V37.454l-4.511,4.512h-11.28V37.454h9.4l1.88-1.88V30.687h-4.587V26.175h4.587V19.407H204.54v4.512l-4.512,4.512Z"/><path class="cls-1" d="M232.78,25.874v4.512H218.344V25.874Z"/><path class="cls-1" d="M239.24,42h-4.775l2.256-27.071H241.5Zm8.459,0h4.813l-2.256-27.071h-4.813Z"/><path class="cls-1" d="M272.813,37.492,268.3,42H257.06V37.492h9.4l1.842-1.88V22.039h-8.986v4.474H254.8V17.528h6.767V14.933h4.512v2.595h6.73Z"/><path class="cls-1" d="M288.6,29.07l5.376,12.9h-5.264l-3.158-7.482-4.248,7.482h-5.264V37.454h2.632l9.775-17.3-.752-.752H276.045V14.9H289.58l4.512,4.511Z"/><rect class="cls-1" x="116.729" y="21.149" width="8.421" height="2.358"/><path class="cls-1" d="M126.317,39.044H116.143q-1.394,0-1.393-1.516v-.337h14.1V25.444H96.1V37.191h14.189v.884a4.139,4.139,0,0,0,1.069,3.053,3.984,3.984,0,0,0,2.956,1.073h12.455a14.136,14.136,0,0,0,2.369-.189,5.347,5.347,0,0,0,1.824-.611V37.822a7.481,7.481,0,0,1-2.153.906A9.952,9.952,0,0,1,126.317,39.044ZM114.75,28.012h9.473v1.979H114.75Zm0,4.59h9.473v1.979H114.75Zm-4.463,1.979h-9.516V32.6h9.516Zm0-4.59h-9.516V28.012h9.516Z"/><polygon class="cls-1" points="114.75 11.802 114.75 9.781 129.95 9.781 129.95 6.497 95.003 6.497 95.003 9.781 110.287 9.781 110.287 11.802 93.993 11.802 93.993 21.823 97.95 21.823 97.95 14.833 110.287 14.833 110.287 23.507 114.75 23.507 114.75 14.833 127.002 14.833 127.002 21.823 130.96 21.823 130.96 11.802 114.75 11.802"/><rect class="cls-1" x="116.729" y="16.854" width="8.421" height="2.274"/><rect class="cls-1" x="99.845" y="21.149" width="8.505" height="2.358"/><rect class="cls-1" x="99.845" y="16.854" width="8.505" height="2.274"/><path class="cls-1" d="M90.557,5.646,82.579,11.68a.243.243,0,0,0,.021.4l2.459,1.483-1.772,2.6-2.726-1.245q-1.011-.631-1.474-.926-.8-.547-1.431-1.053l-.172-.175,7.127-5.078a.239.239,0,0,0,.1-.205.242.242,0,0,0-.117-.2l-2.712-1.64L85.46.377a.242.242,0,0,0-.346-.328L77.136,6.083a.243.243,0,0,0,.021.4l2.459,1.483-2.8,4.114-1.639-1.667A16.943,16.943,0,0,1,73.7,8.56,19.968,19.968,0,0,1,72.477,6.5H53.994V10.37H65.4a14.983,14.983,0,0,1-2.42,2.653,18.842,18.842,0,0,1-3.095,2.147l-3.2-3.494H51.8l4.5,5.01q-1.558.421-2.61.611t-1.769.273v4.59q1.265-.168,2.885-.527a22.314,22.314,0,0,0,2.673-.736v1.642h4.126v5.347H52.393v4.252h8.884a6.954,6.954,0,0,1-2.737,4.379q-2.273,1.6-6.61,1.6v4.716q6.526,0,10.274-3.2a12.627,12.627,0,0,0,4.084-7.5h7.621v5.474a4.479,4.479,0,0,0,1.41,3.347,4.85,4.85,0,0,0,3.516,1.369H84.6a8.3,8.3,0,0,0,4.253-1.011V36.391a5.723,5.723,0,0,1-2,1.074,8.812,8.812,0,0,1-2.337.273H80.182a1.265,1.265,0,0,1-.905-.337,1.106,1.106,0,0,1-.358-.842V32.138h9.432V27.886H78.919V22.539h4.337v-1.6A20.229,20.229,0,0,0,85.8,21.7q1.158.252,3.053.589V17.655a18.042,18.042,0,0,1-3.819-.8l5.017-3.574a.241.241,0,0,0-.015-.4l-2.712-1.64L90.9,5.974a.242.242,0,0,0-.346-.328ZM73.909,27.886H66.583V22.539h7.326Zm-10.99-9.6a21.291,21.291,0,0,0,4.337-3.41,23.586,23.586,0,0,0,3.074-3.79A26.093,26.093,0,0,0,73.7,15.191a20.392,20.392,0,0,0,4,3.1Z"/><path class="cls-1" d="M311.325,25.337c1.086-.208,2.057-.439,2.843-.671l.092,3.214a31.573,31.573,0,0,1-3.929.786,42.554,42.554,0,0,1-4.9,9.963l-3.375-1.71a37.225,37.225,0,0,0,4.577-7.907c-.255.024-.486.024-.74.024-.971,0-1.919-.024-2.982-.093l-.254-3.236c1.063.116,2.45.162,3.213.162q.9,0,1.8-.07a18.367,18.367,0,0,0,.578-3.768l3.837.37C311.926,23.118,311.648,24.181,311.325,25.337Zm6.172,7.536c.023.555.069,1.456.115,2.427a15.026,15.026,0,0,1,4.785,3.006l-1.849,3.005a24.541,24.541,0,0,0-2.8-2.358c-.069,2.219-1.272,3.884-4.693,3.884-3.051,0-5.432-1.434-5.432-4.115,0-2.312,1.826-4.3,5.386-4.3a10.634,10.634,0,0,1,1.225.069c-.092-1.641-.185-3.56-.254-4.854H317.5C317.427,30.631,317.474,31.74,317.5,32.873Zm-4.947,6.75c1.387,0,1.8-.809,1.8-2.1V37.4a8.666,8.666,0,0,0-1.572-.162c-1.133,0-1.849.463-1.849,1.133C310.932,39.115,311.579,39.623,312.55,39.623Zm2.843-11.766,1.8-2.774a46.555,46.555,0,0,1,5.895,3.167L321.1,31.209A33.53,33.53,0,0,0,315.393,27.857Z"/><path class="cls-1" d="M331.439,32a11.646,11.646,0,0,1,6.4-1.873c4.346,0,6.7,2.7,6.7,5.548,0,4.277-3.167,7.767-13.339,6.889l-1.086-3.675c6.75.994,10.472-.463,10.472-3.283,0-1.318-1.248-2.289-3.1-2.289a7.759,7.759,0,0,0-5.987,2.52,5.873,5.873,0,0,0-.948,1.433l-3.213-.786a83.9,83.9,0,0,0,1.155-9.824l3.768.508A35.862,35.862,0,0,0,331.439,32Zm9.733-7.906-.833,3.444c-2.427-.324-7.651-1.433-9.478-1.9l.879-3.352A73.232,73.232,0,0,0,341.172,24.089Z"/></svg>