<svg id="レイヤー_1" data-name="レイヤー 1" xmlns="http://www.w3.org/2000/svg" viewBox="0 0 85 100.998"><defs><style>.cls-1{fill:#d6a600;}.cls-2{fill:#fff;}</style></defs><rect class="cls-1" x="2.967" y="2.11" width="79.232" height="80.456" rx="2.999"/><path class="cls-1" d="M33.286,100.867c-.18-.5-.252-.671-.4-1.019a22.447,22.447,0,0,1-2.745.779c-.6.132-.635.144-1.211.312l-.372-1.319a5.986,5.986,0,0,0,.827-.084V94.621c0-.587-.012-.815-.023-1.067a3.918,3.918,0,0,0-.971-.683,6.979,6.979,0,0,0,1.223-1.522,5.092,5.092,0,0,0,.622-1.439l1.343.263c-.072.157-.2.42-.37.78h1.725a7.341,7.341,0,0,0,1.176-.072v1.127a5.874,5.874,0,0,0,.982-2.074l1.3.239c-.2.516-.2.516-.312.768h2.146a7.846,7.846,0,0,0,1.319-.072V92.08a10.155,10.155,0,0,0-1.319-.06h-.756a5.1,5.1,0,0,1,.432.851l-1.175.36a6.649,6.649,0,0,0-.491-1.211h-.72a8.47,8.47,0,0,1-.97,1.318,3.931,3.931,0,0,0-1-.671,6.205,6.205,0,0,0,.516-.587,7.832,7.832,0,0,0-.971-.048h-.636a8.221,8.221,0,0,1,.408.863l-1.21.336a5.088,5.088,0,0,0-.408-1.2h-.611a12.969,12.969,0,0,1-.959,1.283c.2.011.323.011.646.011H32.89a7.6,7.6,0,0,0,1.091-.048,9.551,9.551,0,0,0-.035,1.151v2.11a9.189,9.189,0,0,0,.035,1.127,7.163,7.163,0,0,0-1.054-.048h-2.3v1.69c.814-.168.947-.191,1.8-.419a8.543,8.543,0,0,0-.515-.815l1.03-.408a12.357,12.357,0,0,1,1.511,2.649Zm-2.661-5.934h2.157v-.6H30.625Zm0,1.582h2.157v-.623H30.625ZM39.111,98.4c-.011.792-.095,1.115-.347,1.319a2.442,2.442,0,0,1-1.414.252h-.5a3.305,3.305,0,0,0-.372-1.391,5.328,5.328,0,0,0,.887.1c.479,0,.479-.012.491-.552V94.429l-1.786-.011v5.466a6.649,6.649,0,0,0,.059,1.1l-1.39.011a7.2,7.2,0,0,0,.061-1.03V94.321c0-.539-.013-.695-.037-1.03a9.2,9.2,0,0,0,1.019.047h2.014c.551,0,.732-.012,1.355-.047-.024.347-.037.718-.037,1.019Z"/><path class="cls-1" d="M45.21,91.276c-.528,0-.863.013-1.259.048V90.162a12.082,12.082,0,0,0,1.355.071h6.329a11.35,11.35,0,0,0,1.355-.071v1.162c-.4-.035-.7-.048-1.235-.048H49.009v.456h3.213a13.8,13.8,0,0,0,1.487-.048,5.749,5.749,0,0,0-.048.983v.755a5.534,5.534,0,0,0,.06.947H52.486v-1.69H49.009v1.187a6.9,6.9,0,0,0,.049,1.127H47.679a9.672,9.672,0,0,0,.06-1.127V92.679h-3.3v1.69H43.2a5.417,5.417,0,0,0,.073-.947v-.755a7.668,7.668,0,0,0-.048-.983,13.38,13.38,0,0,0,1.475.048h3.044v-.456Zm7.528,6.965a4.2,4.2,0,0,0,1.259.48c-.036,1.043-.168,1.546-.48,1.81-.348.3-1.031.383-3.081.383-2.349,0-2.7-.119-2.7-.922v-.816h-2.29v.612h-1.33a9.143,9.143,0,0,0,.072-1.187V96.4a10.519,10.519,0,0,0-.061-1.151,9.671,9.671,0,0,0,1.14.049H51.6a10.333,10.333,0,0,0,1.187-.049,9.434,9.434,0,0,0-.049,1.163Zm-7.792-5.25a2.857,2.857,0,0,0,.623.036h1.055a4.046,4.046,0,0,0,.611-.036v.8a4.167,4.167,0,0,0-.611-.036H45.569a4.35,4.35,0,0,0-.623.036Zm0,1.127a2.938,2.938,0,0,0,.623.035h1.055a3.962,3.962,0,0,0,.611-.035v.8a3.842,3.842,0,0,0-.611-.036H45.569a4.35,4.35,0,0,0-.623.036Zm.5,2.1v.552h2.29v-.552Zm0,1.4v.6h2.29v-.6Zm3.537-.851h2.493v-.552H48.986Zm0,1.451h2.493v-.6H48.986Zm0,1.39c0,.1.023.156.084.18a5.715,5.715,0,0,0,1.69.132,5.665,5.665,0,0,0,1.7-.156c.144-.072.192-.18.228-.588h-3.7Zm.564-6.617a2.794,2.794,0,0,0,.623.036H51.4a4.07,4.07,0,0,0,.612-.036v.8a4.288,4.288,0,0,0-.612-.036H50.173a4.226,4.226,0,0,0-.623.036Zm0,1.127a2.873,2.873,0,0,0,.623.035H51.4a3.986,3.986,0,0,0,.612-.035v.8a3.962,3.962,0,0,0-.612-.036H50.173a4.34,4.34,0,0,0-.623.036Z"/><path class="cls-2" d="M59.811,24.505C57.033,18.514,50.724,15.08,42.5,15.08s-14.534,3.434-17.311,9.425C22.432,30.449,23.643,38.058,28.2,43.44c4.81,5.679,6.188,9.011,6.2,9.038a1.557,1.557,0,1,0,2.9-1.147c-.06-.15-1.526-3.77-6.719-9.9-3.787-4.472-4.815-10.746-2.558-15.612,2.277-4.914,7.423-7.621,14.485-7.621S54.707,20.9,56.985,25.815c2.257,4.866,1.228,11.14-2.558,15.612-5.193,6.134-6.659,9.754-6.719,9.9A1.557,1.557,0,0,0,50.6,52.484c.014-.033,1.393-3.365,6.2-9.044C61.357,38.058,62.568,30.449,59.811,24.505Z"/><path class="cls-2" d="M47.89,55.07a16.013,16.013,0,0,1-5.39.769,15.891,15.891,0,0,1-5.38-.768,1.558,1.558,0,0,0-1.2,2.877A18.468,18.468,0,0,0,42.5,58.953a18.468,18.468,0,0,0,6.576-1.005A1.556,1.556,0,0,0,47.89,55.07Z"/><path class="cls-2" d="M47.89,59.121a15.914,15.914,0,0,1-5.39.771,15.941,15.941,0,0,1-5.38-.767A1.558,1.558,0,0,0,35.924,62a18.483,18.483,0,0,0,6.576,1,18.483,18.483,0,0,0,6.576-1,1.558,1.558,0,0,0-1.186-2.881Z"/><path class="cls-2" d="M47.89,63.175a15.982,15.982,0,0,1-5.39.769,15.91,15.91,0,0,1-5.38-.767,1.558,1.558,0,0,0-1.2,2.877,18.468,18.468,0,0,0,6.576,1,18.468,18.468,0,0,0,6.576-1,1.557,1.557,0,0,0-1.186-2.879Z"/><path class="cls-2" d="M45.252,67.861a10.83,10.83,0,0,1-2.752.288,10.914,10.914,0,0,1-2.744-.285,1.4,1.4,0,1,0-.826,2.677,12.893,12.893,0,0,0,3.57.41,12.87,12.87,0,0,0,3.568-.41,1.4,1.4,0,0,0-.816-2.68Z"/><path class="cls-2" d="M50.844,36.918c1.922-.945,3.849-2.122,3.567-3.679-.274-1.51-2.44-1.839-3.2-1.91-5.5,0-7.96,5.071-8.539,7.906-.032,0-.059-.017-.09-.017-.015,0-.029.008-.045.009-.581-2.837-3.042-7.893-8.631-7.893H33.9c-.659.066-2.826.395-3.1,1.9-.283,1.557,1.645,2.734,3.567,3.679a54.188,54.188,0,0,1,6.488,3.452,1.031,1.031,0,0,0,.336.2.378.378,0,0,0-.01.046v8.25a1.4,1.4,0,0,0,2.8,0V40.62c0-.013-.007-.024-.007-.038a1.021,1.021,0,0,0,.38-.212A54.3,54.3,0,0,1,50.844,36.918Z"/><path class="cls-1" d="M76.5,3A5.508,5.508,0,0,1,82,8.5v68A5.508,5.508,0,0,1,76.5,82H8.5A5.507,5.507,0,0,1,3,76.5V8.5A5.507,5.507,0,0,1,8.5,3h68m0-3H8.5A8.525,8.525,0,0,0,0,8.5v68A8.525,8.525,0,0,0,8.5,85h68A8.525,8.525,0,0,0,85,76.5V8.5A8.525,8.525,0,0,0,76.5,0Z"/></svg>