<svg id="レイヤー_1" data-name="レイヤー 1" xmlns="http://www.w3.org/2000/svg" viewBox="0 0 85 100.387"><defs><style>.cls-1{fill:#00a6d8;}.cls-2{fill:#fff;}</style></defs><rect class="cls-1" x="3.015" y="1.845" width="79.232" height="80.456" rx="2.999"/><path class="cls-2" d="M50.923,66.443l0,0h0a8.385,8.385,0,0,1,.765-.8A6.237,6.237,0,0,1,50.8,63.52a14.2,14.2,0,0,1-2.1,1.253,6.478,6.478,0,0,1-.478.869,8.149,8.149,0,0,1,.765.8l0,0v0a8.978,8.978,0,0,1,.7,1.007c.253-.118.508-.233.754-.363.15-.221.308-.438.477-.644Z"/><path class="cls-2" d="M28.735,56.119a14.247,14.247,0,0,1-.595-3.047h4.642a18.251,18.251,0,0,0,.976,4.815,6.138,6.138,0,0,1,1.771,3.732,18.546,18.546,0,0,0,1.652,2.249,5.99,5.99,0,0,1-.235-1.627,6.134,6.134,0,0,1,.545-2.525H36.6a16.453,16.453,0,0,1-1.919-6.644h6.66v3.27a6.128,6.128,0,0,1,1.766-.26c.044,0,.089.006.134.006V53.072h6.949a16.505,16.505,0,0,1-1.7,6.18,6.1,6.1,0,0,1,.751,2.509c.032-.05.068-.1.1-.147H50.68a6.158,6.158,0,0,1,.514-1.9h-.821a18.27,18.27,0,0,0,1.712-6.644h4.642a14.279,14.279,0,0,1-.6,3.049,6.017,6.017,0,0,1,.676-.039,6.13,6.13,0,0,1,2.183.406,17.2,17.2,0,1,0-32.95.6A6.134,6.134,0,0,1,28.735,56.119ZM54.753,44.53a14.227,14.227,0,0,1,2,6.644H52.111a18.386,18.386,0,0,0-1.494-6.644Zm-2.17-2.808c.289.289.565.6.827.911H49.646a18.554,18.554,0,0,0-3.927-4.724A14.334,14.334,0,0,1,52.583,41.722Zm-9.345-3.366a16.7,16.7,0,0,1,4.189,4.277H43.238Zm0,6.174h5.274a16.443,16.443,0,0,1,1.7,6.644H43.238Zm-1.9,6.644H34.653a16.46,16.46,0,0,1,1.7-6.644h4.985Zm0-12.6v4.061h-3.9A16.7,16.7,0,0,1,41.338,38.572Zm-9.056,3.15a14.34,14.34,0,0,1,6.866-3.813,18.472,18.472,0,0,0-3.927,4.724H31.454C31.718,42.318,31.993,42.011,32.282,41.722ZM30.113,44.53h4.136a18.324,18.324,0,0,0-1.494,6.644H28.112A14.275,14.275,0,0,1,30.113,44.53Z"/><path class="cls-2" d="M37.219,66.444l0,0a8.284,8.284,0,0,1,.766-.8c-.036-.054-.064-.115-.1-.171A14.375,14.375,0,0,1,35.2,64.258a6.274,6.274,0,0,1-.682,1.384,8.154,8.154,0,0,1,.766.8h0l0,0h0a9.329,9.329,0,0,1,.969,1.443,9.288,9.288,0,0,1,.966-1.443Z"/><path class="cls-2" d="M31.677,65.908a4.32,4.32,0,1,0-4.551,0,6.215,6.215,0,0,0-2.188,1.7A8,8,0,0,0,23.185,72.7a1.048,1.048,0,0,0,1.048,1.049H34.57A1.046,1.046,0,0,0,35.619,72.7a8,8,0,0,0-1.753-5.094A6.218,6.218,0,0,0,31.677,65.908Z"/><path class="cls-2" d="M45.38,65.908a4.32,4.32,0,1,0-4.55,0,6.192,6.192,0,0,0-2.189,1.7A8.017,8.017,0,0,0,36.886,72.7a1.053,1.053,0,0,0,1.05,1.049H48.274A1.046,1.046,0,0,0,49.323,72.7a8.017,8.017,0,0,0-1.754-5.094A6.218,6.218,0,0,0,45.38,65.908Z"/><path class="cls-2" d="M61.27,67.61a6.2,6.2,0,0,0-2.187-1.7,4.321,4.321,0,1,0-4.551,0,6.2,6.2,0,0,0-2.188,1.7A8,8,0,0,0,50.59,72.7a1.048,1.048,0,0,0,1.048,1.049H61.975a1.046,1.046,0,0,0,1.05-1.049A8,8,0,0,0,61.27,67.61Z"/><path class="cls-2" d="M21.583,19.036c-1.7-.562-2.736-.972-2.736-2.251a1.748,1.748,0,0,1,1.763-1.963c1.58,0,1.952,1.6,2.039,2.28a.352.352,0,0,0,.348.306h2.859a.349.349,0,0,0,.349-.372c-.231-3.589-2.224-5.647-5.47-5.647a5.175,5.175,0,0,0-5.471,5.222c0,4.161,2.645,5.09,4.771,5.836,1.789.628,2.887,1.091,2.887,2.617a2.092,2.092,0,0,1-2.137,2.186c-1.4,0-2.08-.851-2.288-2.844a.349.349,0,0,0-.348-.314H15.266a.347.347,0,0,0-.248.1.352.352,0,0,0-.1.25c.028,3.789,2.3,6.238,5.794,6.238A5.5,5.5,0,0,0,26.5,24.864C26.5,20.668,23.776,19.763,21.583,19.036Z"/><path class="cls-2" d="M36.2,11.687H30.16a.349.349,0,0,0-.349.349v18a.349.349,0,0,0,.349.349h5.2c4.786,0,7.758-3.582,7.758-9.349C43.114,15.356,40.4,11.687,36.2,11.687Zm-.647,15.264H33.592V15.121h1.963c2.471,0,3.777,2.046,3.777,5.915C39.332,24.851,37.991,26.951,35.555,26.951Z"/><path class="cls-2" d="M59.25,20.164H51.718a.35.35,0,0,0-.35.35v2.735a.35.35,0,0,0,.35.349h4.095c-.08,2.424-1.005,3.652-2.753,3.652-2.357,0-3.5-2.033-3.5-6.214,0-4.123,1.112-6.214,3.305-6.214.948,0,2.268.344,2.788,3.316a.349.349,0,0,0,.344.289h3.084a.348.348,0,0,0,.252-.107.352.352,0,0,0,.1-.257c-.169-3.992-2.747-6.674-6.416-6.674-4.464,0-7.236,3.7-7.236,9.647,0,6.221,2.569,9.647,7.236,9.647,4.189,0,6.59-2.845,6.59-7.807V20.514A.35.35,0,0,0,59.25,20.164Z"/><path class="cls-2" d="M68.155,21.027c-1.365-.37-2.137-.619-2.137-1.433a.919.919,0,0,1,.994-1.042c1.028,0,1.422.324,1.62,1.333a.35.35,0,0,0,.343.282h2.834a.349.349,0,0,0,.252-.106.354.354,0,0,0,.1-.257,4.725,4.725,0,0,0-5.024-4.586,4.371,4.371,0,0,0-4.7,4.426c0,3.658,2.517,4.339,4.355,4.836,1.394.377,2.183.633,2.183,1.528,0,.555-.17,1.292-1.639,1.292a1.414,1.414,0,0,1-1.516-1.548.349.349,0,0,0-.35-.342H62.586a.348.348,0,0,0-.35.359,4.858,4.858,0,0,0,5.1,4.864c3.123,0,5.222-1.928,5.222-4.8C72.557,22.222,70.013,21.532,68.155,21.027Z"/><path class="cls-1" d="M76.5,3A5.507,5.507,0,0,1,82,8.5v68A5.507,5.507,0,0,1,76.5,82H8.5A5.508,5.508,0,0,1,3,76.5V8.5A5.508,5.508,0,0,1,8.5,3h68m0-3H8.5A8.525,8.525,0,0,0,0,8.5v68A8.525,8.525,0,0,0,8.5,85h68A8.525,8.525,0,0,0,85,76.5V8.5A8.525,8.525,0,0,0,76.5,0Z"/><path class="cls-1" d="M27.35,97.222a1.726,1.726,0,0,0,.335,1.056,2.132,2.132,0,0,0,1.751.707c1.2,0,1.918-.54,1.918-1.439a1.217,1.217,0,0,0-.6-1.1,7.573,7.573,0,0,0-2.086-.587,4.227,4.227,0,0,1-1.809-.731,2.362,2.362,0,0,1-.924-1.942c0-1.666,1.343-2.746,3.405-2.746a3.535,3.535,0,0,1,2.985,1.211,3.243,3.243,0,0,1,.588,1.391l-1.714.2a1.551,1.551,0,0,0-.361-.85,1.893,1.893,0,0,0-1.5-.576c-1.043,0-1.75.527-1.75,1.307a1.138,1.138,0,0,0,.815,1.09,10.145,10.145,0,0,0,1.691.432,5.285,5.285,0,0,1,1.954.732,2.364,2.364,0,0,1,.994,2.061,2.791,2.791,0,0,1-.755,2.038,3.971,3.971,0,0,1-2.865.911,4.82,4.82,0,0,1-2.517-.623A2.829,2.829,0,0,1,25.851,98.4a4.14,4.14,0,0,1-.228-1Z"/><path class="cls-1" d="M34.607,92.175a9.918,9.918,0,0,0-.1-1.558c.48.024.768.036,1.523.036H38.2a4.275,4.275,0,0,1,3.237,1.055,4.825,4.825,0,0,1,1.331,3.632,5.05,5.05,0,0,1-1.415,3.813,4.254,4.254,0,0,1-3.14,1.043H36.034c-.732,0-1.031.011-1.523.035a9.569,9.569,0,0,0,.1-1.582Zm3.5,6.606a2.639,2.639,0,0,0,2.122-.767,3.8,3.8,0,0,0,.875-2.661,3.565,3.565,0,0,0-.827-2.566,2.687,2.687,0,0,0-2.158-.72H36.2v6.714Z"/><path class="cls-1" d="M52,97.738a9.911,9.911,0,0,0,.084,1.559,7.574,7.574,0,0,1-1.919.826,7.076,7.076,0,0,1-1.761.228,4.193,4.193,0,0,1-3.405-1.379,5.629,5.629,0,0,1-1.128-3.644,4.793,4.793,0,0,1,1.919-4.207,4.541,4.541,0,0,1,2.661-.708A3.918,3.918,0,0,1,51.2,91.444a3.394,3.394,0,0,1,.887,1.427l-1.643.444a1.965,1.965,0,0,0-2.2-1.475,2.537,2.537,0,0,0-1.823.731,3.754,3.754,0,0,0-.886,2.733,4.233,4.233,0,0,0,.815,2.806,2.51,2.51,0,0,0,2.086.827,3.574,3.574,0,0,0,2.038-.54V96.443h-.648a6.545,6.545,0,0,0-1.222.072V94.969a8.928,8.928,0,0,0,1.438.072h.623c.552,0,.9-.012,1.415-.048A10.031,10.031,0,0,0,52,96.479Z"/><path class="cls-1" d="M54.889,98.038c.2.815.648,1.138,1.583,1.138.886,0,1.439-.347,1.439-.911a.734.734,0,0,0-.313-.6c-.228-.156-.3-.168-1.259-.384a7.257,7.257,0,0,1-1.726-.515,1.717,1.717,0,0,1-1.055-1.594,1.78,1.78,0,0,1,.372-1.115,2.891,2.891,0,0,1,2.4-.935,3.268,3.268,0,0,1,2.254.695,2.329,2.329,0,0,1,.647,1.187l-1.582.2c-.132-.66-.54-.948-1.319-.948-.742,0-1.246.336-1.246.84a.646.646,0,0,0,.372.563,5.025,5.025,0,0,0,1.2.36,5.146,5.146,0,0,1,2.11.731,1.707,1.707,0,0,1,.7,1.486,1.931,1.931,0,0,1-.588,1.355,3.536,3.536,0,0,1-2.481.779,3.166,3.166,0,0,1-2.674-1.067,2.7,2.7,0,0,1-.467-1.067Z"/></svg>