<svg id="レイヤー_1" data-name="レイヤー 1" xmlns="http://www.w3.org/2000/svg" viewBox="0 0 85 102.866"><defs><style>.cls-1{fill:#e4001e;}.cls-2{fill:#fff;}</style></defs><rect class="cls-1" x="2.918" y="2.11" width="79.232" height="80.456" rx="2.999"/><polygon class="cls-2" points="51.003 36.471 56.368 42.155 62.258 42.141 56.893 36.457 51.003 36.471"/><polygon class="cls-2" points="54.945 42.157 49.579 36.473 43.689 36.487 49.054 42.171 54.945 42.157"/><polygon class="cls-2" points="42.135 36.489 36.245 36.503 41.61 42.187 47.501 42.173 42.135 36.489"/><polygon class="cls-2" points="62.251 48.766 68.141 48.752 62.776 43.068 56.886 43.082 62.251 48.766"/><polygon class="cls-2" points="49.572 43.098 54.937 48.782 60.827 48.768 55.462 43.084 49.572 43.098"/><polygon class="cls-2" points="42.128 43.114 47.493 48.798 53.383 48.784 48.018 43.1 42.128 43.114"/><path class="cls-2" d="M77.426,51.339,60.379,33.585a.853.853,0,0,0-.615-.262H27.478a.856.856,0,0,0-.6.251L10.221,50.262a.854.854,0,0,0,.605,1.456h3.466V68.426a.852.852,0,0,0,.853.853H74.218a.852.852,0,0,0,.853-.853V52.783h1.74a.853.853,0,0,0,.615-1.444ZM16,51.409,28.7,38.2,40.89,52.484a.852.852,0,0,0,.649.3h1.183v14.79H33.384V50.965a.474.474,0,0,0-.475-.473H24.342a.474.474,0,0,0-.475.473V67.573H16ZM73.365,67.573H44.428V52.783H73.365Zm-31.433-16.5-12.548-14.7c-.015-.017-.037-.025-.053-.041L28.2,35.03H59.4L74.809,51.077Z"/><path class="cls-2" d="M52.758,64.343H65.63a.711.711,0,0,0,.711-.711V56a.711.711,0,0,0-.711-.711H52.758a.711.711,0,0,0-.71.711v7.637A.711.711,0,0,0,52.758,64.343ZM64.92,62.921H59.9V56.846a.656.656,0,0,0-.028-.14H64.92ZM53.469,56.706h5.043a.657.657,0,0,0-.029.14v6.075H53.469Z"/><path class="cls-2" d="M21.379,32.163a9.153,9.153,0,1,0-7.2-10.757A9.151,9.151,0,0,0,21.379,32.163Z"/><path class="cls-2" d="M24.723,10.163a.4.4,0,0,0-.449.358l-.121,1.356a.4.4,0,0,0,.338.427c.186.026.389.058.557.086a.4.4,0,0,0,.451-.311l.274-1.333a.4.4,0,0,0-.322-.471C25.235,10.24,24.965,10.2,24.723,10.163Z"/><path class="cls-2" d="M14.794,32.763l.9-1.024a.392.392,0,0,0-.031-.547c-.132-.124-.262-.252-.388-.383a.392.392,0,0,0-.548-.023l-1.011.91a.4.4,0,0,0-.026.572c.174.181.353.358.536.529A.4.4,0,0,0,14.794,32.763Z"/><path class="cls-2" d="M20.009,10.444q-.366.091-.725.2a.4.4,0,0,0-.255.513l.443,1.287a.393.393,0,0,0,.49.245q.26-.08.524-.146a.392.392,0,0,0,.293-.464l-.287-1.33A.4.4,0,0,0,20.009,10.444Z"/><path class="cls-2" d="M36.032,20.628a.4.4,0,0,0-.484-.306l-1.325.307a.392.392,0,0,0-.3.462c.034.178.065.357.091.536a.392.392,0,0,0,.43.34l1.353-.146a.4.4,0,0,0,.355-.449C36.123,21.123,36.081,20.874,36.032,20.628Z"/><path class="cls-2" d="M18.9,35.6a.4.4,0,0,0,.509-.265l.4-1.3a.392.392,0,0,0-.252-.487c-.171-.06-.341-.123-.509-.191a.393.393,0,0,0-.51.2L17.987,34.8a.4.4,0,0,0,.21.533C18.429,35.43,18.665,35.518,18.9,35.6Z"/><path class="cls-2" d="M35.755,26.863c.108-.37.2-.748.275-1.127l.01-.049-1.752-.3a.393.393,0,0,0-.45.3c-.042.18-.088.359-.139.535a.392.392,0,0,0,.254.486l1.294.42A.4.4,0,0,0,35.755,26.863Z"/><path class="cls-2" d="M31.9,29.818q-.165.216-.34.424a.392.392,0,0,0,.033.547L32.6,31.7a.4.4,0,0,0,.572-.033q.245-.288.472-.59a.4.4,0,0,0-.093-.565l-1.112-.784A.392.392,0,0,0,31.9,29.818Z"/><path class="cls-2" d="M10.81,27.631q.129.357.279.707a.4.4,0,0,0,.531.2l1.238-.575a.393.393,0,0,0,.193-.513c-.071-.167-.137-.336-.2-.506a.393.393,0,0,0-.491-.244l-1.3.424A.4.4,0,0,0,10.81,27.631Z"/><path class="cls-2" d="M13.317,17.519l-1.179-.679a.4.4,0,0,0-.552.152q-.178.333-.337.677a.4.4,0,0,0,.21.532l1.253.533a.393.393,0,0,0,.51-.2c.077-.164.157-.326.242-.486A.393.393,0,0,0,13.317,17.519Z"/><path class="cls-2" d="M10.07,22.23q-.029.377-.034.753a.4.4,0,0,0,.408.4l1.36-.02a.393.393,0,0,0,.386-.389c0-.181.012-.362.024-.543a.393.393,0,0,0-.349-.423l-1.353-.143A.4.4,0,0,0,10.07,22.23Z"/><path class="cls-2" d="M29.878,11.911a.4.4,0,0,0-.552.154l-.659,1.19a.392.392,0,0,0,.146.528q.233.141.458.291a.392.392,0,0,0,.54-.091l.8-1.1a.4.4,0,0,0-.094-.565C30.308,12.175,30.094,12.04,29.878,11.911Z"/><path class="cls-2" d="M15.671,12.91a.4.4,0,0,0-.567-.084q-.3.231-.581.478a.4.4,0,0,0-.025.572l.926,1a.392.392,0,0,0,.548.025c.137-.118.277-.234.42-.346a.392.392,0,0,0,.08-.543Z"/><path class="cls-2" d="M33.879,15.619a.4.4,0,0,0-.566-.084l-1.087.818a.391.391,0,0,0-.082.542c.1.149.2.3.3.454a.393.393,0,0,0,.531.136l1.177-.684a.4.4,0,0,0,.142-.555Q34.1,15.927,33.879,15.619Z"/><path class="cls-1" d="M76.5,3A5.507,5.507,0,0,1,82,8.5v68A5.508,5.508,0,0,1,76.5,82H8.5A5.507,5.507,0,0,1,3,76.5V8.5A5.506,5.506,0,0,1,8.5,3h68m0-3H8.5A8.525,8.525,0,0,0,0,8.5v68A8.525,8.525,0,0,0,8.5,85h68A8.525,8.525,0,0,0,85,76.5V8.5A8.525,8.525,0,0,0,76.5,0Z"/><path class="cls-1" d="M19.347,95.529a8.494,8.494,0,0,0,1.475,3.033,10.2,10.2,0,0,0,1.666,1.714,8.592,8.592,0,0,0,1.75,1.127,5.208,5.208,0,0,0-.851,1.354,12.536,12.536,0,0,1-3.021-2.6A10.068,10.068,0,0,1,18.556,97a8.207,8.207,0,0,1-1.318,2.674,10.723,10.723,0,0,1-3.489,3.021,5.443,5.443,0,0,0-.839-1.271,8.2,8.2,0,0,0,3.225-2.577,7.838,7.838,0,0,0,1.39-3.321H14.707a8.07,8.07,0,0,0-1.51.084V94.175a9.62,9.62,0,0,0,1.51.083h2.974c.024-.395.036-.6.036-1.2a6.427,6.427,0,0,0-.1-1.2h1.535a6.935,6.935,0,0,0-.084,1.414c-.013.276-.013.516-.049.983h3.3a10.015,10.015,0,0,0,1.51-.083v1.438a10.318,10.318,0,0,0-1.5-.084Zm-.647,6.785a11.5,11.5,0,0,0-1.595-2.338l1.116-.635a17.49,17.49,0,0,1,1.7,2.242Z"/><path class="cls-1" d="M25.5,93.275c0-.383-.011-.851-.047-1.259a8.558,8.558,0,0,0,.958.036h1.331a6.941,6.941,0,0,0,1.031-.047l.588.815c-.084.191-.084.191-.432,1.019a13.889,13.889,0,0,1-.767,1.51,3.918,3.918,0,0,1,.8,2.386c0,.647-.143.971-.551,1.2a2.434,2.434,0,0,1-1.21.251.98.98,0,0,1-.168-.012,2.556,2.556,0,0,0-.24-1.211,2.139,2.139,0,0,0,.539.06c.42,0,.492-.084.492-.575a3.255,3.255,0,0,0-.887-2.05,10.25,10.25,0,0,0,1-2.205H26.762v7.851a13.512,13.512,0,0,0,.072,1.643h-1.4a13.231,13.231,0,0,0,.072-1.667Zm7.037,5.73a4.665,4.665,0,0,1-1.115,1.451,8.356,8.356,0,0,1-2.385,1.475,3.362,3.362,0,0,0-.815-.828,5.9,5.9,0,0,0,1.786-.863,4.388,4.388,0,0,0,1.258-1.235H30.6a6.5,6.5,0,0,1-2.134,1.427,2.563,2.563,0,0,0-.744-.851,5.636,5.636,0,0,0,2.146-1.331,2.936,2.936,0,0,0,.575-.851h-.479a4.532,4.532,0,0,0-.839.048V96.3a10.624,10.624,0,0,0,1.234.06h4.4a6.606,6.606,0,0,0,1.271-.072v1.163a11.747,11.747,0,0,0-1.271-.048H31.653c-.168.348-.191.408-.312.623h3.333a10.273,10.273,0,0,0,1.067-.035c-.024.131-.048.587-.144,2.026a5.566,5.566,0,0,1-.408,2.229c-.2.336-.586.468-1.306.468-.24,0-.587-.012-.948-.048a2.946,2.946,0,0,0-.275-1.1,7.323,7.323,0,0,1-1.846,1.307,2.69,2.69,0,0,0-.839-.8,6.72,6.72,0,0,0,2.242-1.594,4.6,4.6,0,0,0,.947-1.463Zm-1.834-3.153a9.258,9.258,0,0,0-1.1.049,10.331,10.331,0,0,0,.048-1.151V93.119a9.3,9.3,0,0,0-.048-1.09,8.372,8.372,0,0,0,1.223.059h3.057a9.13,9.13,0,0,0,1.271-.059,10.014,10.014,0,0,0-.049,1.186V94.75a9.276,9.276,0,0,0,.049,1.139,8.577,8.577,0,0,0-1.079-.037Zm.168-2.313h3V93h-3Zm0,1.4h3v-.528h-3Zm3.441,4.063a6.032,6.032,0,0,1-1.583,2.482,8.316,8.316,0,0,0,1.043.1c.372,0,.444-.108.551-.839a15.194,15.194,0,0,0,.12-1.739Z"/><path class="cls-1" d="M41.729,93.071a9,9,0,0,0-.071-1.21h1.474a6.963,6.963,0,0,0-.071,1.21v2.938h3.344a12.321,12.321,0,0,0,1.378-.073v1.343a10.185,10.185,0,0,0-1.354-.072H44.235v3.86c0,.312.084.336,1.078.336.8,0,1.08-.06,1.176-.264A4.584,4.584,0,0,0,46.7,99.4a4.112,4.112,0,0,0,1.271.492c-.108,1.474-.288,2.073-.707,2.409-.323.264-.768.336-2.194.336-1.846,0-2.122-.144-2.122-1.139V97.207H41.586a7.022,7.022,0,0,1-.336,2.206,4.422,4.422,0,0,1-1.666,2.41,6,6,0,0,1-1.918.971,5.414,5.414,0,0,0-.815-1.2,4.4,4.4,0,0,0,2.565-1.511,4.552,4.552,0,0,0,.791-2.038,5.63,5.63,0,0,0,.06-.839H38.553a11.774,11.774,0,0,0-1.343.072V95.936a11.532,11.532,0,0,0,1.366.073h3.153Zm-2.8-.683A14.031,14.031,0,0,1,40.7,95.121l-1.174.684a12.408,12.408,0,0,0-1.763-2.83Zm8.14.54A15.2,15.2,0,0,1,45.17,95.9l-1.151-.66a10.847,10.847,0,0,0,1.786-2.877Z"/><path class="cls-1" d="M52.441,96.836c-.371.012-.5.024-.8.048v-.528a11.807,11.807,0,0,1-2.11,1.163,4.531,4.531,0,0,0-.707-1.1,10.255,10.255,0,0,0,2.29-1.163,8.226,8.226,0,0,0-1.678-1.57l.983-.732c.191.157.191.157.383.312V92.016a6.842,6.842,0,0,0,.995.06h2.218a6.916,6.916,0,0,0,1.03-.047,2.954,2.954,0,0,0,.744,1.306,6.21,6.21,0,0,0,.707-.767,2.1,2.1,0,0,0,.252-.348c.06-.095.06-.095.1-.155l1.1.611c-.035.048-.191.228-.467.551a12.365,12.365,0,0,1-.887.9c.324.276.455.384.707.576a7.034,7.034,0,0,0,1.247-1.451l1.1.624c-.072.072-.1.108-.336.371a9.2,9.2,0,0,1-1.079,1.1,10.592,10.592,0,0,0,1.918.911,4.943,4.943,0,0,0-.671,1.187A11.928,11.928,0,0,1,57.5,96.368v.516a9.655,9.655,0,0,0-1.151-.048V98.13h1.907a7.149,7.149,0,0,0,1.258-.072v1.283a9.123,9.123,0,0,0-1.258-.072H56.349v1.787c0,.251.012.275.192.323a2.771,2.771,0,0,0,.767.06c.66,0,.948-.06,1.079-.228a2.8,2.8,0,0,0,.216-1.2,4.112,4.112,0,0,0,1.3.419c-.264,2.026-.48,2.206-2.781,2.206-1.631,0-2.014-.2-2.014-1.043V99.269H53.556A4.221,4.221,0,0,1,52.813,101a5.66,5.66,0,0,1-2.794,1.845,4.341,4.341,0,0,0-.85-1.174,4.958,4.958,0,0,0,2.218-1.067,2.737,2.737,0,0,0,.851-1.331H50.7a7.661,7.661,0,0,0-1.259.072V98.058a7.242,7.242,0,0,0,1.259.072h1.715c.011-.156.011-.239.011-.371Zm-.911-3.621a5.338,5.338,0,0,0-.731.048A10.223,10.223,0,0,1,52.105,94.5a7.716,7.716,0,0,0,1.176-1.283Zm4.783,2.494h.252a10.081,10.081,0,0,1-2.038-2.17,10.044,10.044,0,0,1-2.025,2.17h3.811ZM53.7,97.854v.276h1.4V96.836H53.712Z"/><path class="cls-1" d="M63.2,93.035c-.527,0-.863.013-1.259.048V91.921a12.108,12.108,0,0,0,1.355.071h6.329a11.35,11.35,0,0,0,1.355-.071v1.162c-.395-.035-.695-.048-1.235-.048H67v.456h3.213a13.813,13.813,0,0,0,1.487-.048,5.743,5.743,0,0,0-.048.983v.755a5.543,5.543,0,0,0,.059.947H70.478v-1.69H67v1.187a6.9,6.9,0,0,0,.049,1.127H65.67a9.645,9.645,0,0,0,.061-1.127V94.438h-3.3v1.69H61.187a5.524,5.524,0,0,0,.072-.947v-.755a7.668,7.668,0,0,0-.048-.983,13.382,13.382,0,0,0,1.474.048h3.046v-.456ZM70.729,100a4.209,4.209,0,0,0,1.259.48c-.036,1.043-.167,1.546-.48,1.81-.347.3-1.03.383-3.08.383-2.35,0-2.7-.119-2.7-.922v-.816h-2.29v.612H62.11a9.143,9.143,0,0,0,.072-1.187V98.154A10.8,10.8,0,0,0,62.122,97a9.664,9.664,0,0,0,1.139.049H69.59A10.3,10.3,0,0,0,70.777,97a9.891,9.891,0,0,0-.048,1.163Zm-7.792-5.25a2.868,2.868,0,0,0,.624.036h1.055a4.056,4.056,0,0,0,.611-.036v.8a4.177,4.177,0,0,0-.611-.036H63.561a4.365,4.365,0,0,0-.624.036Zm0,1.127a2.948,2.948,0,0,0,.624.035h1.055a3.98,3.98,0,0,0,.611-.035v.8a3.842,3.842,0,0,0-.611-.036H63.561a4.365,4.365,0,0,0-.624.036Zm.5,2.1v.552h2.29v-.552Zm0,1.4v.6h2.29v-.6Zm3.536-.851H69.47v-.552H66.977Zm0,1.45H69.47v-.6H66.977Zm0,1.391c0,.1.024.156.084.18a5.724,5.724,0,0,0,1.691.132,5.657,5.657,0,0,0,1.7-.156c.145-.072.192-.18.229-.588h-3.7Zm.563-6.617a2.809,2.809,0,0,0,.624.036h1.222A4.061,4.061,0,0,0,70,94.75v.8a4.3,4.3,0,0,0-.612-.036H68.164a4.25,4.25,0,0,0-.624.036Zm0,1.127a2.888,2.888,0,0,0,.624.035h1.222A3.977,3.977,0,0,0,70,95.877v.8a3.953,3.953,0,0,0-.612-.036H68.164a4.375,4.375,0,0,0-.624.036Z"/></svg>