<svg id="レイヤー_1" data-name="レイヤー 1" xmlns="http://www.w3.org/2000/svg" viewBox="0 0 348 43"><defs><style>.cls-1,.cls-2{fill:#df1614;}.cls-1{fill-rule:evenodd;}</style></defs><polygon class="cls-1" points="339.758 25.361 346.252 29.29 327.987 42.306 336.253 30.18 330.318 26.598 348 13.218 339.758 25.361 339.758 25.361"/><polygon class="cls-1" points="8.242 25.361 1.748 29.29 20.013 42.306 11.747 30.18 17.682 26.598 0 13.218 8.242 25.361 8.242 25.361"/><path class="cls-2" d="M125.633,19.483V14.954h9.054v4.529Zm18.109-2.415V37.6l-4.527,4.529H125.633V36.506h4.527V37.6h7.168l1.887-1.85V17.068ZM125.633,28.542V24.013h9.054v4.529Z"/><path class="cls-2" d="M164.151,37.563v4.529H146.042V37.563h6.791V24.013h-4.527v-4.53h13.582v4.53H157.36v13.55Z"/><path class="cls-2" d="M166.414,42.092V14.954h3.621V42.092Zm18.109-18.079v13.55L180,42.092h-7.282V14.954h4.527V37.563h.868L180,35.713v-11.7Z"/><path class="cls-2" d="M187.54,28.542V24.013h.377l1.887-1.888V14.954h15.845V37.6l-4.527,4.529H189.8V37.6h9.432l1.886-1.888V30.807h-4.6v-4.53h4.6V19.483h-6.791v4.53L189.8,28.542Z"/><path class="cls-2" d="M222.669,25.975v4.53H208.183v-4.53Z"/><path class="cls-2" d="M229.151,42.168h-4.792l2.264-27.176h4.792Zm8.489,0h4.829l-2.264-27.176h-4.829Z"/><path class="cls-2" d="M262.84,37.638l-4.527,4.53H247.032v-4.53h9.432l1.849-1.887V22.125H249.3v4.492h-4.527V17.6h6.791v-2.6h4.527v2.6h6.753Z"/><path class="cls-2" d="M278.685,29.184,284.08,42.13H278.8l-3.169-7.511-4.264,7.511h-5.282V37.6h2.641l9.81-17.363-.755-.755h-11.7V14.954h13.582l4.528,4.529Z"/><rect class="cls-2" x="106.216" y="21.232" width="8.45" height="2.367"/><path class="cls-2" d="M115.837,39.2H105.628q-1.4,0-1.4-1.522v-.338h14.154V25.543H85.514V37.336H99.752v.888a4.154,4.154,0,0,0,1.072,3.064,4,4,0,0,0,2.967,1.078h12.5a14.125,14.125,0,0,0,2.377-.19,5.4,5.4,0,0,0,1.83-.613V37.97a7.506,7.506,0,0,1-2.16.909A9.977,9.977,0,0,1,115.837,39.2ZM104.23,28.122h9.506v1.986H104.23Zm0,4.607h9.506v1.987H104.23Zm-4.478,1.987H90.2V32.729h9.549Zm0-4.608H90.2V28.122h9.549Z"/><polygon class="cls-2" points="104.23 11.848 104.23 9.819 119.483 9.819 119.483 6.522 84.415 6.522 84.415 9.819 99.752 9.819 99.752 11.848 83.401 11.848 83.401 21.908 87.373 21.908 87.373 14.891 99.752 14.891 99.752 23.599 104.23 23.599 104.23 14.891 116.525 14.891 116.525 21.908 120.496 21.908 120.496 11.848 104.23 11.848"/><rect class="cls-2" x="106.216" y="16.92" width="8.45" height="2.283"/><rect class="cls-2" x="89.274" y="21.232" width="8.535" height="2.367"/><rect class="cls-2" x="89.274" y="16.92" width="8.535" height="2.283"/><path class="cls-2" d="M79.954,5.668l-8.006,6.058a.24.24,0,0,0-.095.206.245.245,0,0,0,.116.2l2.468,1.489-1.779,2.61-2.735-1.25q-1.014-.635-1.478-.93-.8-.549-1.437-1.057l-.173-.176,7.153-5.1a.242.242,0,0,0-.016-.4L71.251,5.665,74.839.379a.243.243,0,0,0-.347-.33L66.487,6.107a.244.244,0,0,0-.1.206.242.242,0,0,0,.117.2L68.975,8l-2.815,4.13-1.644-1.674a16.641,16.641,0,0,1-1.479-1.86,20.017,20.017,0,0,1-1.226-2.071H43.264v3.889H54.713a15.022,15.022,0,0,1-2.429,2.663,18.938,18.938,0,0,1-3.106,2.156l-3.211-3.509h-4.9l4.521,5.03q-1.563.423-2.619.613t-1.775.275v4.607q1.269-.168,2.9-.528a22.27,22.27,0,0,0,2.683-.74v1.649h4.14V28H41.658v4.269h8.915a6.99,6.99,0,0,1-2.747,4.4q-2.28,1.607-6.633,1.606V43q6.549,0,10.309-3.212a12.669,12.669,0,0,0,4.1-7.524h7.648v5.495a4.5,4.5,0,0,0,1.415,3.36,4.866,4.866,0,0,0,3.528,1.374h5.788a8.312,8.312,0,0,0,4.267-1.015V36.533a5.718,5.718,0,0,1-2.006,1.078,8.864,8.864,0,0,1-2.345.275H69.543a1.269,1.269,0,0,1-.908-.339,1.11,1.11,0,0,1-.359-.845V32.264H77.74V28H68.276V22.627h4.352V21.02a20,20,0,0,0,2.556.761q1.161.254,3.062.592V17.724a18.04,18.04,0,0,1-3.832-.8l5.035-3.589a.241.241,0,0,0-.015-.4l-2.721-1.647L80.3,6a.242.242,0,0,0-.347-.329ZM63.248,28H55.9V22.627h7.352ZM52.221,18.357a21.394,21.394,0,0,0,4.352-3.423,23.708,23.708,0,0,0,3.084-3.8,26.179,26.179,0,0,0,3.38,4.121,20.461,20.461,0,0,0,4.013,3.106Z"/><path class="cls-2" d="M297.356,25.668a65.929,65.929,0,0,0-1.09,8.772,4.33,4.33,0,0,0,.023.534c.278-.673.58-1.114.882-1.81l1.693,1.369c-.7,2.089-1.392,4.433-1.67,5.779a6.971,6.971,0,0,0-.139,1.09c0,.256,0,.673.023,1.045l-3.178.232a27.044,27.044,0,0,1-.951-7.449,71.815,71.815,0,0,1,.9-9.632c.092-.7.231-1.763.254-2.622l3.875.325A22.551,22.551,0,0,0,297.356,25.668Zm11.738-1.114c-.023.441-.046,1.207-.07,2.182,1.183-.14,2.32-.3,3.364-.534v3.5c-1.044.139-2.181.279-3.387.348.047,2.135.162,3.783.232,5.176a14.712,14.712,0,0,1,4.454,2.993l-1.9,2.948a30.915,30.915,0,0,0-2.481-2.113c-.3,2.182-1.74,3.528-4.779,3.528-3.271,0-5.428-1.392-5.428-4.015,0-2.6,2.134-4.27,5.382-4.27.394,0,.788.023,1.159.047-.069-1.231-.139-2.646-.162-4.108-.441.023-.881.023-1.3.023-1.392,0-2.784-.047-4.152-.139L300,26.782a40.494,40.494,0,0,0,4.152.209c.441,0,.858,0,1.3-.024-.023-1.09-.023-1.949-.046-2.367a11.469,11.469,0,0,0-.186-1.6h4.013A15.311,15.311,0,0,0,309.094,24.554ZM304.2,39.267c1.113,0,1.554-.6,1.554-1.879v-.163a5.84,5.84,0,0,0-1.554-.209c-1.09,0-1.809.418-1.809,1.161C302.39,38.989,303.2,39.267,304.2,39.267Z"/></svg>