<svg id="レイヤー_1" data-name="レイヤー 1" xmlns="http://www.w3.org/2000/svg" viewBox="0 0 51 47"><defs><style>.cls-1{fill:#df1614;}</style></defs><path class="cls-1" d="M10.805,28.458H1.3A1.3,1.3,0,0,0,0,29.751V45.705A1.3,1.3,0,0,0,1.3,47h9.508a1.294,1.294,0,0,0,1.3-1.294V29.751a1.294,1.294,0,0,0-1.3-1.293Z"/><path class="cls-1" d="M26.58,39.454H16.532a1.3,1.3,0,0,0-1.3,1.294v4.958A1.3,1.3,0,0,0,16.532,47H26.58a1.3,1.3,0,0,0,1.3-1.294V40.748a1.3,1.3,0,0,0-1.3-1.294Z"/><path class="cls-1" d="M49.7,17.678H33.712a1.294,1.294,0,0,0-1.3,1.294v9.486H16.424a1.3,1.3,0,0,0-1.3,1.293v5.823a1.3,1.3,0,0,0,1.3,1.293H30.47v8.838A1.3,1.3,0,0,0,31.767,47H49.7A1.3,1.3,0,0,0,51,45.705V18.972a1.3,1.3,0,0,0-1.3-1.294Z"/><path class="cls-1" d="M50.62.379A1.3,1.3,0,0,0,49.7,0H33.712a1.294,1.294,0,0,0-1.3,1.294V13.367a1.294,1.294,0,0,0,1.3,1.293H49.7A1.3,1.3,0,0,0,51,13.367V1.294A1.3,1.3,0,0,0,50.62.379Z"/></svg>