<svg id="レイヤー_1" data-name="レイヤー 1" xmlns="http://www.w3.org/2000/svg" viewBox="0 0 800 239.003"><defs><style>.cls-1{fill:#ffd900;}.cls-2{fill:#df1614;}.cls-3{fill:#505050;}.cls-4{fill:#fff;}</style></defs><rect class="cls-1" y="174.003" width="800" height="65"/><path class="cls-2" d="M452.475,204.285c-.053.343-.132.9-.238,1.637a31.018,31.018,0,0,0,4.514-.37l-.132,3.8a41.1,41.1,0,0,1-4.91.264c-.132.95-.237,1.953-.37,2.931h.027a50.827,50.827,0,0,0,5.174-.318l-.106,3.776a43.339,43.339,0,0,1-4.382.237H450.97c-.053.607-.079,1.135-.079,1.531,0,1.98,1.267,2.93,3.616,2.93,3.511,0,5.227-1.663,5.227-3.511,0-1.8-1-3.352-2.613-4.963l4.487-.95c1.716,2.323,2.481,4.2,2.481,6.442,0,4.011-3.616,7.153-9.714,7.153-4.487,0-7.444-1.927-7.444-6.414,0-.581.053-1.452.158-2.455a31.926,31.926,0,0,1-4.777-.819l.21-3.854a22.606,22.606,0,0,0,4.99,1.029c.106-.976.238-1.979.369-2.956a30.2,30.2,0,0,1-5.015-.95l.185-3.67a23.009,23.009,0,0,0,5.253.978c.079-.634.132-1.242.158-1.743a15.115,15.115,0,0,0,.053-2.614l4.487.238C452.739,202.754,452.606,203.546,452.475,204.285Z" transform="translate(0 0.003)"/><path class="cls-2" d="M477.106,203.941l-.079,1.347a33.338,33.338,0,0,0,4.567-.9l.079,3.959c-1.452.317-3.141.581-4.752.766-.026.554-.026,1.109-.026,1.69v1.029a22.356,22.356,0,0,1,4.646-.555c4.171,0,7.629,2.139,7.629,6.045,0,3.089-1.425,5.623-5.94,6.758a29.521,29.521,0,0,1-3.59.476l-1.452-4.145a20.012,20.012,0,0,0,3.3-.185c2.033-.343,3.511-1.32,3.511-2.93,0-1.558-1.32-2.508-3.511-2.508a19.086,19.086,0,0,0-4.514.581c.053,1.979.106,3.827.106,4.645,0,3.723-1.32,4.647-3.221,4.647-2.851,0-6.6-2.323-6.6-5.358,0-2.376,2.639-4.858,5.966-6.31-.027-.687-.027-1.373-.027-2.059v-1.5c-.422.026-.792.026-1.135.026a33.959,33.959,0,0,1-3.854-.132l-.079-3.854a31.325,31.325,0,0,0,3.8.184c.4,0,.818,0,1.267-.026v-1.663c0-.554-.105-2.085-.184-2.587H477.4C477.291,201.883,477.159,203.256,477.106,203.941Zm-4.514,16.341c.4,0,.766-.105.766-1.029,0-.5-.026-1.4-.053-2.482-1.32.739-2.112,1.61-2.112,2.349,0,.634.9,1.162,1.4,1.162Zm18.69-12.433-1.9,3.247a49.051,49.051,0,0,0-6.573-3.776l1.716-3.114a65.289,65.289,0,0,1,6.757,3.643Z" transform="translate(0 0.003)"/><path class="cls-2" d="M496.432,205.314a18.453,18.453,0,0,0-.317-3.431H501.1a31.5,31.5,0,0,0-.264,3.431v3.617a87.38,87.38,0,0,1,10.9,3.986l-1.821,4.461a82.541,82.541,0,0,0-9.081-3.775v6.785c0,.712.159,2.8.29,3.986h-5.015a29.717,29.717,0,0,0,.317-3.986Z" transform="translate(0 0.003)"/><path class="cls-2" d="M526.738,205h4.25a9.942,9.942,0,0,0,2.613-.344l3.247,2.007a11.817,11.817,0,0,0-1.029,2.164,27.638,27.638,0,0,1-4.567,8.658,25.377,25.377,0,0,1-10.717,7.6l-3.8-3.379c5.7-1.742,8.448-3.985,10.691-6.493a16.926,16.926,0,0,0,3.485-6.6h-6.573a32.788,32.788,0,0,1-6.652,6.309l-3.591-2.666a23.935,23.935,0,0,0,8.21-8.263,13.729,13.729,0,0,0,1.4-3.141l4.673,1.532C527.768,203.229,527.134,204.311,526.738,205Z" transform="translate(0 0.003)"/><path class="cls-2" d="M541.021,220.651a2.693,2.693,0,1,1,0,.1C541.02,220.72,541.02,220.685,541.021,220.651Zm.264-12.987-.159-4.382H546.3l-.158,4.382-.792,8.342h-3.274Z" transform="translate(0 0.003)"/><path class="cls-2" d="M232.93,219.824h-8.763v5.411h-3.96v-5.411H208.433v-3.7h4.092v-5.94c-.317.371-.634.74-.95,1.056a26.7,26.7,0,0,0-3.3-2.508,19.8,19.8,0,0,0,5.332-8.684l3.934,1c-.212.607-.449,1.241-.713,1.848h14.545v3.7h-7.206v2.692h6.572v3.563h-6.572v3.274h8.763ZM214.98,206.6a26.613,26.613,0,0,1-1.769,2.692h7V206.6Zm5.227,9.529v-3.274h-3.828v3.274Z" transform="translate(0 0.003)"/><path class="cls-2" d="M239.611,210.98v14.255h-3.8V201.107h10.506v9.873Zm0-7.153v.9h3.115v-.9Zm3.115,4.461v-1.029h-3.115v1.029Zm15.812,12.565c0,1.954-.37,3.036-1.531,3.669-1.188.634-2.772.713-5.094.713a13.83,13.83,0,0,0-.608-2.455h-5.966v1.347h-3.458V212.353h10.4v9.054h1.742c.476,0,.634-.158.634-.606v-9.742h-6.89v-9.952h10.77Zm-13.2-5.728v1.108h3.353v-1.108Zm3.353,4.884V218.9h-3.353v1.11Zm2.719-16.182v.9h3.247v-.9Zm3.247,4.54v-1.108H251.41v1.108Z" transform="translate(0 0.003)"/><path class="cls-2" d="M294.188,204.485s0,1.241-.026,1.716c-.344,11.457-.661,15.707-1.769,17.159a3.81,3.81,0,0,1-2.8,1.69,22.712,22.712,0,0,1-4.171.132,8.925,8.925,0,0,0-1.294-3.855c1.611.132,3.089.132,3.8.132a1.276,1.276,0,0,0,1.135-.475c.765-.792,1.082-4.54,1.346-12.882h-6.547a20.021,20.021,0,0,1-2.138,3.274,23.677,23.677,0,0,0-2.481-1.8,20.847,20.847,0,0,1,1.874,4.8l-2.877,1.32c-.079-.4-.185-.845-.317-1.32l-1.03.079V216.5l2.35-.766a36.556,36.556,0,0,1,1.663,4.963l-2.957,1.082a30.718,30.718,0,0,0-1.056-3.828v7.286h-3.378v-8.183a24.008,24.008,0,0,1-1.426,6.336,19.4,19.4,0,0,0-2.877-1.373,20.01,20.01,0,0,0,1.214-6.1l3.089.555v-1.743l-3.723.264-.317-3.3,2.086-.079c.317-.4.607-.818.924-1.241a23.416,23.416,0,0,0-3.01-3.537l1.769-2.666.528.449a34.646,34.646,0,0,0,1.716-4.435l3.379,1.162c-1,1.874-2.085,3.932-3.009,5.411.184.237.4.475.554.686a45.14,45.14,0,0,0,2.217-4.065l3.221,1.32c-1.083,1.637-2.3,3.432-3.538,5.095l2.192-.977a19.936,19.936,0,0,0,4.17-8.685l3.987.871c-.317,1.188-.713,2.349-1.136,3.484Zm-17.37,6.917c-.211-.5-.422-.977-.66-1.426-.4.529-.765,1.03-1.161,1.5Zm7.919,7.127a25,25,0,0,0-3.035-6.071l3.062-1.531a23.762,23.762,0,0,1,3.3,5.886Z" transform="translate(0 0.003)"/><path class="cls-2" d="M434.641,219.5c0,2.31-.468,3.526-1.9,4.275s-3.37.843-6.147.843a16.06,16.06,0,0,0-1.623-4.525c1.623.125,3.682.094,4.275.094s.811-.188.811-.75V213.01H412.33v11.577h-4.556v-27.71h26.867ZM412.33,208.514h6.37v-7.147h-6.37Zm17.724,0v-7.147h-6.833v7.147Z" transform="translate(0 0.003)"/><path class="cls-2" d="M574.764,191.143l36.834-5.984a.854.854,0,1,0-.274-1.686h0l-36.834,5.984a.854.854,0,1,0,.274,1.686Z" transform="translate(0 0.003)"/><path class="cls-2" d="M571.138,195.675l45.334-7.366a.854.854,0,1,0-.274-1.686h0l-45.334,7.365a.855.855,0,0,0,.274,1.687Z" transform="translate(0 0.003)"/><path class="cls-2" d="M620.274,190.444a.858.858,0,0,0-.636-.15l-50.875,8.266a.854.854,0,0,0-.706.979l4.23,26.04a.856.856,0,0,0,.981.706l50.874-8.266a.853.853,0,0,0,.707-.979h0L620.618,191A.863.863,0,0,0,620.274,190.444Zm2.752,26.026-49.189,7.992-3.957-24.353,49.189-7.992Z" transform="translate(0 0.003)"/><polygon class="cls-2" points="591.123 208.261 591.452 210.287 595.332 209.657 595.483 210.589 591.604 211.219 591.933 213.246 595.812 212.616 596.109 214.442 598.69 214.022 598.393 212.197 602.297 211.562 601.967 209.535 598.064 210.17 597.912 209.238 601.816 208.603 601.487 206.577 598.527 207.058 600.79 201.817 597.906 202.286 596.141 206.372 593.159 203.057 590.277 203.526 593.994 207.794 591.123 208.261"/><path class="cls-2" d="M578.579,222.09l39.2-6.369a4.854,4.854,0,0,1,2.877-3.994l-2.334-14.36a4.858,4.858,0,0,1-3.993-2.877l-39.2,6.368a4.852,4.852,0,0,1-2.877,3.993l2.333,14.361A4.855,4.855,0,0,1,578.579,222.09ZM594.9,198.742a9.672,9.672,0,1,1-8,11.1A9.672,9.672,0,0,1,594.9,198.742Z" transform="translate(0 0.003)"/><path class="cls-2" d="M549.03,189.317c5.479,1.342,6.567,2.43,7.908,7.908,1.342-5.478,2.43-6.566,7.908-7.908-5.478-1.341-6.566-2.429-7.908-7.907-.645,2.634-1.231,4.254-2.276,5.374C553.535,187.993,551.874,188.621,549.03,189.317Z" transform="translate(0 0.003)"/><path class="cls-2" d="M624.854,225.285c5.479,1.341,6.566,2.429,7.908,7.908,1.341-5.479,2.429-6.567,7.908-7.908-5.479-1.342-6.567-2.429-7.908-7.908-.671,2.739-1.278,4.381-2.4,5.5S627.593,224.614,624.854,225.285Z" transform="translate(0 0.003)"/><path class="cls-3" d="M220.2,15.836h-5.377V7.015h15.794V6.007H217.926V1.6h31.422V6.007h-12.77V7.015h16.13v8.821H247.08V10.964h-10.5v8.317h-5.966V10.964H220.2ZM246.281,35.58c2.016,0,2.437-.588,2.731-3.781a15.43,15.43,0,0,0,5.041,1.89c-.673,5.083-2.311,6.469-7.268,6.469h-8.317c-6.217,0-8.066-1.344-8.192-5.881h-5.629v1.681h-5.838V20.247h29.657v14.03H236.157c.084,1.135.715,1.3,2.9,1.3ZM220.741,16h8.737v3.2h-8.737Zm8.737-.966H221.5v-3.15h7.981Zm-4.831,9.2v1.3h5.629v-1.3Zm0,6.049h5.629V29.026h-5.629Zm17.77-6.049h-6.3v1.3h6.3Zm0,6.049V29.026h-6.3v1.261Zm3.15-18.4v3.15H237.8v-3.15ZM237.8,16h8.737v3.2H237.8Z" transform="translate(0 0.003)"/><path class="cls-3" d="M288.743,16.593c-.168,9.7.337,17.558,2.353,17.558.546-.042.714-2.184.756-5.5a24.518,24.518,0,0,0,3.907,3.908c-.421,5.251-1.513,7.687-5.083,7.687-6.469,0-7.856-8.108-8.15-18.567h-8.107l5.713,1.847a36.357,36.357,0,0,1-3.991,6.008,44.06,44.06,0,0,1,6.175,4.83l-4.873,4.663a42.4,42.4,0,0,0-5.671-4.873A43.068,43.068,0,0,1,261.48,41a33.919,33.919,0,0,0-4.494-4.747,35.676,35.676,0,0,0,9.787-5.587c-2.226-1.429-4.452-2.772-6.511-3.907l4.369-4.032c1.974,1.007,4.243,2.268,6.469,3.612a27.666,27.666,0,0,0,3.025-4.662h-13.4V18.021a47.312,47.312,0,0,0-5.419-3.7c4.243-3.066,7.436-8.485,8.948-14.324l6.427,1.386c-.252.924-.546,1.806-.882,2.688H293.91v5h-26.3c-.211.42-.421.84-.673,1.26h23.272V15.2h-24.4v-2.94a29.5,29.5,0,0,1-3.318,4.327Z" transform="translate(0 0.003)"/><path class="cls-3" d="M313.814,2.478A65.006,65.006,0,0,1,310.2,9.745V40.074h-6.344V19.029a47.681,47.681,0,0,1-3.654,3.907,43.789,43.789,0,0,0-3.361-6.3A44.239,44.239,0,0,0,307.975.546Zm11.762,15.794c1.008,8.36,2.9,13.863,5.672,14.326.839.084,1.26-1.891,1.512-6.386a23.356,23.356,0,0,0,5,3.529c-1.176,8.654-3.781,10.46-6.217,10.291-7.268-.756-10.544-8.191-12.057-20.877l-7.225,1.008-.882-5.881,7.561-1.051c-.294-3.738-.462-7.854-.588-12.307h6.217c.042,4.074.168,7.939.42,11.468l11.679-1.6.839,5.8ZM332,10.165a32.7,32.7,0,0,0-5.167-7.1L331.458.252a32.892,32.892,0,0,1,5.5,6.805Z" transform="translate(0 0.003)"/><path class="cls-3" d="M378.246,3.444V8.611H341.154V3.444h15.122V.168h6.3V3.444ZM377.07,33.983c0,2.647-.5,4.244-2.268,5.125-1.764.924-3.949,1.008-6.721,1.008a17.714,17.714,0,0,0-.8-3.192h-10.46V38.73h-5.25V27.179h16.173v7.266a22.494,22.494,0,0,0,2.436,0c.546,0,.756-.126.756-.588V25.708H348.673V40.2h-5.965V20.709H377.07Zm-5.713-14.534H348V9.829h23.356Zm-6.175-5.671H353.8v1.68h11.384ZM362.41,31.169h-5.588v1.765h5.588Z" transform="translate(0 0.003)"/><path class="cls-3" d="M411.8,24.112V25.2h5.965v2.689H411.8v1.133h8.822s-.042,1.093-.126,1.639c-.337,4.915-.8,7.226-1.681,8.191a3.577,3.577,0,0,1-2.521,1.26,22.761,22.761,0,0,1-3.654.127,11.706,11.706,0,0,0-.966-3.739l-.546.252a16.912,16.912,0,0,0-1.681-3.4l2.143-.924H399.075V22.18c-.547.378-1.135.756-1.723,1.091a21.57,21.57,0,0,0-2.1-3.192V34.361c0,2.269-.252,3.824-1.554,4.705-1.26.924-2.857,1.05-5.125,1.05a18.515,18.515,0,0,0-1.344-5.292c1.008.084,2.142.042,2.562.042.378,0,.5-.127.5-.631V26.38h-2.227a53.884,53.884,0,0,1-2.226,13.61,19.2,19.2,0,0,0-4.284-2.351c1.932-5.84,2.016-14.368,2.016-20.542V1.68h11.678V18.23a17.136,17.136,0,0,0,3.612-2.856h-2.94V11.006h6.007a15.971,15.971,0,0,0,.672-1.471H396.97V5.293h1.47a15.109,15.109,0,0,0-1.176-3.529L401.721.546a14.5,14.5,0,0,1,1.6,4.284l-1.554.463h2.226a43.037,43.037,0,0,0,.883-5.041L410.123.8c-.252,1.554-.5,3.066-.841,4.5h4.159l-1.386-.379a30.174,30.174,0,0,0,1.6-4.494l5.713,1.3c-.8,1.344-1.512,2.562-2.1,3.571h3.193V9.535H415.29a15.7,15.7,0,0,0,.671,1.471H421.3v4.368h-2.562a14.408,14.408,0,0,0,3.529,3.108,18.814,18.814,0,0,0-3.655,4.286c-.294-.21-.546-.42-.84-.63v1.974Zm-21.5-3.361V16.635h-1.974V17.1c0,1.133,0,2.352-.042,3.654ZM388.321,7.183v3.949H390.3V7.183ZM395,38.227a10.162,10.162,0,0,0,2.6-5.881l4.033.756a12.4,12.4,0,0,1-2.9,7.056Zm10-4.748a30.762,30.762,0,0,1,.882,5.461l-3.487.63a34.61,34.61,0,0,0-.714-5.545Zm2.184-13.106h-2.941v1.051h2.941Zm0,3.739h-2.941V25.2h2.941Zm0,3.781h-2.941v1.133h2.941Zm-1.807-12.519c-.335.546-.671,1.093-1.049,1.6h9.115a11.8,11.8,0,0,1-.882-1.6Zm3.151,17.644a24.831,24.831,0,0,1,1.6,4.7l-3.067.965a25.34,25.34,0,0,0-1.47-4.873Zm-.462-23.483a15.454,15.454,0,0,1-.546,1.471h3.192c-.168-.505-.335-.967-.461-1.471Zm8.906,11.889a12.409,12.409,0,0,1-1.051-1.051H411.8v1.051Zm-5.083,14.954a13.187,13.187,0,0,0,1.638.084,1.065,1.065,0,0,0,.966-.378c.294-.378.589-1.387.8-3.654h-3.109a14.585,14.585,0,0,1,1.68,2.982Z" transform="translate(0 0.003)"/><path class="cls-3" d="M445.989,38.521l-3.864-6.049a31.937,31.937,0,0,0,4.116-.757c5.335-1.3,8.906-5.041,8.906-10.586,0-5.419-2.647-9.283-7.477-10.417a83.441,83.441,0,0,1-2.479,10.964c-2.478,8.4-6.259,14.03-11.216,14.03-5.208,0-9.157-5.629-9.157-12.812,0-10,8.611-18.484,19.827-18.484,10.712,0,17.475,7.394,17.475,16.929C462.12,30.2,456.911,36.672,445.989,38.521ZM434.144,27.767c1.68,0,2.94-2.563,4.452-7.436a62.159,62.159,0,0,0,2.142-9.451c-6.217,1.68-9.325,7.35-9.325,11.342C431.413,25.876,432.673,27.767,434.144,27.767Z" transform="translate(0 0.003)"/><path class="cls-3" d="M475.891,11.468c0,2.772,0,5.5.253,8.317.5,5.5,1.343,9.367,3.78,9.367,1.932,0,3.4-5.251,4.033-8.107l5.125,6.3c-2.941,7.434-5.629,10.039-9.284,10.039-5,0-9.116-4.242-10.292-15.71-.42-3.991-.462-8.822-.462-11.469a25.077,25.077,0,0,0-.378-4.536l7.813.084A39.416,39.416,0,0,0,475.891,11.468Zm28.943,17.348-6.763,2.605c-.588-6.343-2.646-17.391-7.561-22.768l6.511-2.1c4.117,4.831,7.436,16.215,7.813,22.263Z" transform="translate(0 0.003)"/><path class="cls-3" d="M532.09,4.914c0,.336-.042.757-.042,1.219A93.953,93.953,0,0,0,542.255,5.04l-.042,5.8c-2.52.378-6.216.714-10.249.882-.042,1.218-.042,2.394-.042,3.486,4.327-.21,7.687-.588,10.922-.966L542.8,20.2c-3.7.378-6.763.63-10.754.756.084,1.345.168,2.772.252,4.2a31.92,31.92,0,0,1,11.51,6.259l-3.655,5.671a32.107,32.107,0,0,0-7.519-5.461v.841c0,3.948-3.193,6.636-8.738,6.636-7.1,0-10.753-2.814-10.753-7.477,0-4.494,4.032-7.688,10.711-7.688.714,0,1.387.042,2.059.084-.042-.965-.084-1.973-.126-2.94H523.73c-2.226,0-7.057-.21-9.7-.546l-.084-5.965a72.838,72.838,0,0,0,9.872.8h1.891c0-1.134,0-2.311.042-3.444H524.4a96.855,96.855,0,0,1-10.081-.756L514.2,5.419a79.218,79.218,0,0,0,10.165.924h1.429V4.914a16.1,16.1,0,0,0-.294-3.066h6.889C532.258,2.73,532.132,3.906,532.09,4.914Zm-9.2,28.44c2.143,0,3.319-.588,3.319-2.731,0-.294,0-.714-.042-1.219a19.122,19.122,0,0,0-3.151-.252c-2.352,0-3.7.925-3.7,2.1C519.319,32.64,520.706,33.354,522.89,33.354Z" transform="translate(0 0.003)"/><path class="cls-3" d="M550.1,30.161l5.334-4.579a76.032,76.032,0,0,1,8.99,9.115l-5.419,4.663A87.916,87.916,0,0,0,550.1,30.161Z" transform="translate(0 0.003)"/><path class="cls-2" d="M501.5,124.742v5.41h11.636v7.739H501.5v4.538c0,2.328.174,2.618,1.57,2.618h3.2c1.337,0,1.628-1.106,1.861-6.167a23.889,23.889,0,0,0,7.564,3.259c-.815,7.854-2.967,10.355-8.553,10.355h-5.7c-7.1,0-8.785-2.5-8.785-10.007v-4.6h-6.284c-1.4,6.05-5.411,11.753-15.884,15.185a31.06,31.06,0,0,0-5.352-6.749c7.04-2.095,10.472-5.12,12.1-8.436H466.765v-7.739h11.927v-5.41h-4.247V123a43.154,43.154,0,0,1-7.215,4.364,31.3,31.3,0,0,0-5.12-6.341,34.645,34.645,0,0,0,8.5-5.179c-1.4-1.338-3.433-3.026-5-4.306l5.3-4.363c1.4.989,3.258,2.327,4.712,3.549a34.866,34.866,0,0,0,2.677-3.84h-10.37V99.666h14.487l1.454-.291,5.644,2.56a41.9,41.9,0,0,1-8.262,14.836h18.095a56.207,56.207,0,0,1-9.484-17.047l7.622-2.153a36.471,36.471,0,0,0,2.5,5.528,45.691,45.691,0,0,0,4.073-4.422L510.4,103.1c-2.269,1.977-4.654,3.956-6.807,5.527a22.8,22.8,0,0,0,1.92,2.211,62.4,62.4,0,0,0,5.527-5.527l6.167,4.3a85.316,85.316,0,0,1-6.923,5.586,36.185,36.185,0,0,0,8.029,4.538,32.559,32.559,0,0,0-5.876,7.331,36.6,36.6,0,0,1-6.517-3.957v1.63Zm-8.844,0H487.07v5.41h5.586Z" transform="translate(0 0.003)"/><path class="cls-2" d="M529.541,119.156h-7.447V106.938H543.97v-1.4H526.4v-6.1h43.52v6.109H552.232v1.4h22.342V119.16h-7.8v-6.749H552.232v11.521H543.97V112.407H529.541ZM565.672,146.5c2.792,0,3.374-.815,3.782-5.236a21.431,21.431,0,0,0,6.982,2.618c-.932,7.04-3.2,8.96-10.066,8.96H554.85c-8.611,0-11.171-1.863-11.346-8.146h-7.8v2.327h-8.087V125.266H568.7V144.7H551.65c.117,1.572.989,1.8,4.015,1.8ZM530.3,119.39h12.1v4.421H530.3Zm12.1-1.339H531.345v-4.363H542.4Zm-6.691,12.742v1.8h7.8v-1.8Zm0,8.378h7.8v-1.745h-7.8Zm24.611-8.378h-8.727v1.8h8.727Zm0,8.378v-1.745h-8.727v1.745Zm4.364-25.483v4.363H553.919v-4.363Zm-10.764,5.7h12.1v4.421h-12.1Z" transform="translate(0 0.003)"/><path class="cls-2" d="M621.466,110.139a92.742,92.742,0,0,1-7.33,15.01,148.723,148.723,0,0,1,13.731,12.625l-7.273,8.146a121.185,121.185,0,0,0-12.451-12.567,72.977,72.977,0,0,1-21,17.512l-7.912-7.156a61.78,61.78,0,0,0,21.527-16.523,159.754,159.754,0,0,0-15.3-10.706l6.051-7.214c4.48,2.734,10.182,6.574,14.953,10.006a62.608,62.608,0,0,0,5.7-12.683,46.666,46.666,0,0,0,1.513-5.935L624.2,104.32A52.252,52.252,0,0,0,621.466,110.139Z" transform="translate(0 0.003)"/><path class="cls-2" d="M646.251,106.705v19.782c0,1.454.116,3.9.232,5.411H636.244c.058-1.164.291-3.666.291-5.469V106.705a45.012,45.012,0,0,0-.233-4.6h10.181C646.367,103.563,646.251,104.611,646.251,106.705Zm26.938,1.164v12.684c0,11.694-2.734,17.512-7.156,22.167-3.9,4.073-10.008,7.04-14.255,8.379l-7.389-7.8c6.051-1.338,10.589-3.491,14.08-7.1,3.9-4.131,4.713-8.263,4.713-16.291V107.869a46.006,46.006,0,0,0-.408-6.283h10.648c-.116,1.745-.233,3.724-.233,6.283Z" transform="translate(0 0.003)"/><path class="cls-2" d="M696.169,128.7l-8.611,3.2c-.989-3.141-3.782-10.763-5.352-13.556l8.494-3.026C692.329,118.574,695.006,125.323,696.169,128.7Zm28.1-6.69a47.736,47.736,0,0,1-7.8,16.523,46.108,46.108,0,0,1-19.724,14.836l-7.389-7.563c6.167-1.572,14.661-5.993,19.491-12.1,3.839-4.829,6.574-12.742,7.1-19.957l9.949,3.2c-.811,2.266-1.218,3.662-1.625,5.059Zm-15.186,3.025-8.436,2.908a109.452,109.452,0,0,0-4.829-13.032l8.378-2.734c1.165,2.557,4.017,10.123,4.889,12.856Z" transform="translate(0 0.003)"/><path class="cls-2" d="M739.63,108.276a40.662,40.662,0,0,0-.7-7.563h11a69.073,69.073,0,0,0-.581,7.563v7.971a192.324,192.324,0,0,1,24.028,8.786l-4.015,9.832a181.513,181.513,0,0,0-20.013-8.319V141.5c0,1.571.348,6.167.639,8.785H738.932a65.238,65.238,0,0,0,.7-8.785Z" transform="translate(0 0.003)"/><path class="cls-2" d="M785.767,142.08a5.935,5.935,0,1,1,0,.153Q785.766,142.157,785.767,142.08Zm.582-28.625L786,103.8h11.4l-.349,9.658-1.745,18.385h-7.215Z" transform="translate(0 0.003)"/><path class="cls-2" d="M143.542,125.454s0,1.606-.034,2.221c-.444,14.834-.854,20.337-2.29,22.217a4.929,4.929,0,0,1-3.623,2.188,29.267,29.267,0,0,1-5.4.17,11.551,11.551,0,0,0-1.675-4.99c2.085.171,4,.171,4.922.171a1.649,1.649,0,0,0,1.47-.615c.991-1.025,1.4-5.879,1.743-16.68h-8.477a25.925,25.925,0,0,1-2.768,4.239,30.651,30.651,0,0,0-3.213-2.325,26.945,26.945,0,0,1,2.427,6.221L122.9,139.98c-.1-.513-.239-1.094-.41-1.709l-1.333.1V141l3.042-.991a47.339,47.339,0,0,1,2.153,6.426l-3.828,1.4a39.73,39.73,0,0,0-1.367-4.956v9.434H116.78v-10.6a30.987,30.987,0,0,1-1.846,8.2,24.943,24.943,0,0,0-3.726-1.777,25.841,25.841,0,0,0,1.573-7.9l4,.718V138.7l-4.82.342-.41-4.272,2.7-.1c.411-.513.787-1.059,1.2-1.606a30.384,30.384,0,0,0-3.9-4.58l2.29-3.453.684.582a45.009,45.009,0,0,0,2.222-5.743l4.375,1.5c-1.3,2.427-2.7,5.093-3.9,7.007.239.308.513.615.718.889A59.413,59.413,0,0,0,120.811,124l4.17,1.709c-1.4,2.119-2.974,4.443-4.58,6.6l2.837-1.265c2.461-2.666,4.409-6.938,5.4-11.245l5.161,1.128c-.41,1.538-.923,3.042-1.469,4.512Zm-22.49,8.955c-.273-.65-.547-1.265-.854-1.846-.513.684-.991,1.333-1.5,1.948Zm10.254,9.228a32.406,32.406,0,0,0-3.931-7.861l3.965-1.983a30.823,30.823,0,0,1,4.273,7.623Z" transform="translate(0 0.003)"/><path class="cls-2" d="M379.125,143.177c0,2.99-.606,4.565-2.464,5.533s-4.361,1.09-7.961,1.09a20.779,20.779,0,0,0-2.1-5.856c2.1.161,4.766.121,5.533.121s1.05-.242,1.05-.97v-8.32H350.246V149.76h-5.9V113.9h34.776ZM350.246,128.96h8.239v-9.25h-8.239Zm22.941,0v-9.25h-8.845v9.25Z" transform="translate(0 0.003)"/><path class="cls-2" d="M409.906,111.713c2.5,4.968,7.512,10.7,11.955,14.3a29.845,29.845,0,0,0-5.008,5.332c-.565-.565-1.171-1.172-1.777-1.817-.364,11.349-.808,15.994-2.141,17.69a5.613,5.613,0,0,1-4.039,2.262,37.9,37.9,0,0,1-5.978.2,13.911,13.911,0,0,0-1.939-5.937c2.02.162,3.918.2,4.928.2a1.991,1.991,0,0,0,1.616-.606c.727-.808,1.09-4.16,1.373-11.632h-6.624c-.969,7.633-3.635,14.378-14.3,18.418a19.352,19.352,0,0,0-3.837-5.453c8.845-2.908,10.946-7.633,11.713-12.965H389.79V129.12a32.944,32.944,0,0,1-2.828,2.545,43.5,43.5,0,0,0-5.048-4.767,33.2,33.2,0,0,0,11.874-15.106l6.382,1.859a51.22,51.22,0,0,1-7.553,12.358h19.427a75.381,75.381,0,0,1-7.957-12Z" transform="translate(0 0.003)"/><polygon class="cls-2" points="0 153.273 85.757 153.273 106.433 108.182 85.757 63.091 0 63.091 0 153.273"/><path class="cls-4" d="M20.789,86.672a28.435,28.435,0,0,0,3.1-.736l.092,2.668a40.228,40.228,0,0,1-4.025.8,42.348,42.348,0,0,1-4.92,9.842L12.253,97.82A36.18,36.18,0,0,0,16.944,89.7c-.413.022-.8.022-1.2.022-.942,0-1.885-.022-2.874-.091l-.207-2.667a29.2,29.2,0,0,0,3.058.161c.69,0,1.38-.024,2.093-.093a19.272,19.272,0,0,0,.621-3.84l3.173.322C21.432,84.257,21.133,85.43,20.789,86.672ZM27,93.616c.023.667.092,1.771.138,2.92a15.053,15.053,0,0,1,4.76,2.943l-1.541,2.461a19.457,19.457,0,0,0-3.1-2.461v.231c0,2.139-1.173,3.794-4.438,3.794-2.852,0-5.105-1.265-5.105-3.794,0-2.254,1.886-3.979,5.082-3.979.552,0,1.058.046,1.586.092-.091-1.7-.206-3.748-.252-5.15H27C26.928,91.639,26.974,92.6,27,93.616Zm-4.6,7.243c1.587,0,2.07-.874,2.07-2.138v-.46a8.29,8.29,0,0,0-1.863-.23c-1.334,0-2.185.6-2.185,1.4C20.42,100.284,21.133,100.859,22.4,100.859Zm3.036-12.233,1.471-2.276a39.551,39.551,0,0,1,5.68,3.127l-1.633,2.415a33.213,33.213,0,0,0-5.52-3.266Z" transform="translate(0 0.003)"/><path class="cls-4" d="M45.441,86.027c-1.126,1.657-2.736,4.6-3.886,6.623a5.349,5.349,0,0,1,2.645-.69c1.724,0,2.759,1.081,2.851,2.99.046,1.034-.023,2.874.092,3.84a1.336,1.336,0,0,0,1.418,1.248l.077-.007c2,0,3.219-2.575,3.886-5.427l2.483,2.024c-1.2,3.933-3.334,6.554-6.852,6.554-2.552,0-3.748-1.518-3.84-3.2-.092-1.218-.069-3.1-.138-4.047a1.263,1.263,0,0,0-1.237-1.288q-.06,0-.12,0c-1.564,0-2.851,1.611-3.679,3.473a48.229,48.229,0,0,0-1.748,5.128l-3.242-1.1a177.851,177.851,0,0,1,7.634-16.166c.3-.62.736-1.379,1.127-2.345l3.265,1.311C45.947,85.269,45.694,85.66,45.441,86.027Z" transform="translate(0 0.003)"/><path class="cls-4" d="M64.981,90.075c1.885-1.1,3.886-2.093,4.967-2.714a14.378,14.378,0,0,0,2.138-1.4l1.587,2.667c-.69.414-1.426.8-2.277,1.242a67.889,67.889,0,0,0-6.415,3.4c-1.909,1.265-3.2,2.576-3.2,4.185,0,1.656,1.586,2.529,4.782,2.529a35.555,35.555,0,0,0,7.52-.85l-.046,3.311a42.74,42.74,0,0,1-7.381.575c-4.577,0-8.049-1.265-8.049-5.22,0-2.53,1.61-4.438,3.817-6.071-1.057-1.954-2.161-4.415-3.2-6.852L62.1,83.7A54.661,54.661,0,0,0,64.981,90.075Z" transform="translate(0 0.003)"/><path class="cls-4" d="M81.571,100.216a2.024,2.024,0,1,1,2.025,2.023h0a1.962,1.962,0,0,1-2.023-1.9C81.57,100.3,81.57,100.257,81.571,100.216Zm.23-11.958-.115-3.426H85.5l-.115,3.426-.621,7.864H82.421Z" transform="translate(0 0.003)"/><path class="cls-4" d="M15.261,132.891h4.2v-11.86h-3.54v-2.4a12.643,12.643,0,0,0,4.543-1.638h2.879v15.9h3.672v3.143H15.261Z" transform="translate(0 0.003)"/><path class="cls-4" d="M44.338,121.8c-.185.475-.423,1.083-.687,1.69h9.641a18.843,18.843,0,0,0,2.351-.132v3.222c-.819-.079-1.823-.079-2.351-.079H50.069c-.448,5.6-2.562,9.535-6.788,12.124l-3.275-2.192a11.93,11.93,0,0,0,2.377-1.4,11.784,11.784,0,0,0,4.358-8.531H42.119a24.192,24.192,0,0,1-3.645,4.569l-3.09-1.8a17.41,17.41,0,0,0,4.014-4.49,11.987,11.987,0,0,0,1.48-3.381,10.715,10.715,0,0,0,.37-1.927l3.7.765C44.708,120.847,44.5,121.322,44.338,121.8Z" transform="translate(0 0.003)"/><path class="cls-4" d="M78.394,134.317c0,1.9-.45,2.8-1.665,3.329-1.268.554-3.116.607-5.837.607a13.5,13.5,0,0,0-1.321-3.3c1.849.106,4.068.079,4.649.079.634,0,.845-.211.845-.765v-3.83h-11.3a14.217,14.217,0,0,1-4.464,7.9,12.435,12.435,0,0,0-2.43-2.271c3.988-3.408,4.358-8.453,4.358-12.467v-8.7H78.394Zm-3.329-6.92v-3.222H64.474c-.027,1-.079,2.113-.185,3.222Zm-10.591-9.429v3.222H75.065v-3.222Z" transform="translate(0 0.003)"/><path class="cls-2" d="M443.314,151.6l-3.145-4.922a26.072,26.072,0,0,0,3.35-.615c4.341-1.06,7.246-4.1,7.246-8.614,0-4.409-2.153-7.553-6.084-8.476a68.047,68.047,0,0,1-2.016,8.921c-2.017,6.836-5.093,11.416-9.126,11.416-4.239,0-7.452-4.58-7.452-10.425,0-8.135,7.007-15.039,16.133-15.039,8.716,0,14.219,6.015,14.219,13.774C456.439,144.831,452.2,150.1,443.314,151.6Zm-9.639-8.75c1.367,0,2.393-2.085,3.623-6.05a50.761,50.761,0,0,0,1.744-7.691,10.193,10.193,0,0,0-7.588,9.229c0,2.973,1.025,4.511,2.221,4.511Z" transform="translate(0 0.003)"/><path class="cls-3" d="M356.653,86.368l.407.406L352.438,91.4l4.622,4.624-.407.406-4.622-4.63L347.4,96.439l-.407-.406L351.63,91.4,347,86.774l.406-.406,4.623,4.622Zm-8.614,6.079A1.051,1.051,0,1,1,349.09,91.4v0A1.059,1.059,0,0,1,348.039,92.447ZM350.98,87.4a1.051,1.051,0,1,1,1.051,1.051h0A1.058,1.058,0,0,1,350.98,87.4Zm2.1,7.985a1.051,1.051,0,1,1-1.051-1.051h0a1.059,1.059,0,0,1,1.053,1.055Zm2.941-5.043a1.051,1.051,0,1,1-1.05,1.052v0a1.059,1.059,0,0,1,1.052-1.046Z" transform="translate(0 0.003)"/><path class="cls-2" d="M157.518,151.16l21.968-75.6H165.74V85.623H154.7V63.777H192V76.3L170.772,151.16Z" transform="translate(0 0.003)"/><path class="cls-2" d="M191.513,160.242v-21.6h12.518V151.16Z" transform="translate(0 0.003)"/><path class="cls-2" d="M210.9,81.818a19.091,19.091,0,0,1,1.534-7.855,18.422,18.422,0,0,1,4.112-5.891A17.661,17.661,0,0,1,222.5,64.33a19.962,19.962,0,0,1,14.114,0,17.671,17.671,0,0,1,5.952,3.742,18.438,18.438,0,0,1,4.112,5.891,19.108,19.108,0,0,1,1.534,7.855v51.3a19.1,19.1,0,0,1-1.534,7.855,18.394,18.394,0,0,1-4.112,5.891,17.64,17.64,0,0,1-5.952,3.742,19.962,19.962,0,0,1-14.114,0,17.63,17.63,0,0,1-5.952-3.742,18.378,18.378,0,0,1-4.112-5.891,19.085,19.085,0,0,1-1.534-7.855Zm12.519,51.3a6.18,6.18,0,0,0,1.718,4.48,6.374,6.374,0,0,0,8.837,0,6.193,6.193,0,0,0,1.718-4.48v-51.3a6.2,6.2,0,0,0-1.718-4.48,6.374,6.374,0,0,0-8.837,0,6.187,6.187,0,0,0-1.718,4.48Z" transform="translate(0 0.003)"/><path class="cls-2" d="M254.1,81.818a19.075,19.075,0,0,1,1.535-7.855,18.419,18.419,0,0,1,4.111-5.891A17.655,17.655,0,0,1,265.7,64.33a19.96,19.96,0,0,1,14.113,0,17.685,17.685,0,0,1,5.953,3.742,18.451,18.451,0,0,1,4.111,5.891,19.108,19.108,0,0,1,1.534,7.855v51.3a19.1,19.1,0,0,1-1.534,7.855,18.407,18.407,0,0,1-4.111,5.891,17.654,17.654,0,0,1-5.953,3.742,19.96,19.96,0,0,1-14.113,0,17.624,17.624,0,0,1-5.953-3.742,18.375,18.375,0,0,1-4.111-5.891,19.069,19.069,0,0,1-1.535-7.855Zm12.519,51.3a6.18,6.18,0,0,0,1.718,4.48,6.374,6.374,0,0,0,8.837,0,6.193,6.193,0,0,0,1.718-4.48v-51.3a6.2,6.2,0,0,0-1.718-4.48,6.374,6.374,0,0,0-8.837,0,6.187,6.187,0,0,0-1.718,4.48Z" transform="translate(0 0.003)"/><path class="cls-2" d="M297.3,81.818a19.075,19.075,0,0,1,1.534-7.855,18.419,18.419,0,0,1,4.111-5.891A17.655,17.655,0,0,1,308.9,64.33a19.962,19.962,0,0,1,14.114,0,17.69,17.69,0,0,1,5.952,3.742,18.469,18.469,0,0,1,4.112,5.891,19.108,19.108,0,0,1,1.533,7.855v51.3a19.1,19.1,0,0,1-1.533,7.855,18.425,18.425,0,0,1-4.112,5.891,17.659,17.659,0,0,1-5.952,3.742,19.962,19.962,0,0,1-14.114,0,17.624,17.624,0,0,1-5.953-3.742,18.375,18.375,0,0,1-4.111-5.891,19.069,19.069,0,0,1-1.534-7.855Zm12.518,51.3a6.184,6.184,0,0,0,1.718,4.48,6.374,6.374,0,0,0,8.837,0,6.193,6.193,0,0,0,1.718-4.48v-51.3a6.2,6.2,0,0,0-1.718-4.48,6.374,6.374,0,0,0-8.837,0,6.191,6.191,0,0,0-1.718,4.48Z" transform="translate(0 0.003)"/><path class="cls-2" d="M301.243,197.825q0-1.459.1-2.494a8.158,8.158,0,0,1,.353-1.789,8.528,8.528,0,0,1,.58-1.362,9.485,9.485,0,0,1,.832-1.259,6.943,6.943,0,0,1,2.52-2.041,7.7,7.7,0,0,1,6.551,0,6.96,6.96,0,0,1,2.52,2.041,12.269,12.269,0,0,1,.857,1.259,6.991,6.991,0,0,1,.932,3.151q.077,1.034.076,2.494,0,1.614-.05,2.723a8.4,8.4,0,0,1-.3,1.965,4.589,4.589,0,0,1-.782,1.537A9.547,9.547,0,0,1,314,205.487a7.738,7.738,0,0,1,1.436,1.41,4.784,4.784,0,0,1,.782,1.664,11.014,11.014,0,0,1,.3,2.344q.05,1.386.05,3.4,0,1.662-.076,2.747a16.8,16.8,0,0,1-.226,1.89,5.2,5.2,0,0,1-.429,1.36,10.9,10.9,0,0,1-.68,1.16,7.6,7.6,0,0,1-12.5,0,10.746,10.746,0,0,1-.681-1.16,5.2,5.2,0,0,1-.428-1.36,16.776,16.776,0,0,1-.227-1.89q-.075-1.085-.076-2.747,0-2.014.051-3.4a10.887,10.887,0,0,1,.3-2.344,4.766,4.766,0,0,1,.782-1.664,7.707,7.707,0,0,1,1.436-1.41,9.5,9.5,0,0,1-1.436-1.437,4.57,4.57,0,0,1-.782-1.537,8.3,8.3,0,0,1-.3-1.965Q301.243,199.44,301.243,197.825Zm10.181-2.016a2.392,2.392,0,0,0-.756-1.789,2.5,2.5,0,0,0-3.528,0,2.4,2.4,0,0,0-.756,1.789v5.243a2.393,2.393,0,0,0,.756,1.789,2.5,2.5,0,0,0,3.528,0,2.389,2.389,0,0,0,.756-1.789Zm0,14.114a2.384,2.384,0,0,0-.756-1.789,2.489,2.489,0,0,0-3.528,0,2.388,2.388,0,0,0-.756,1.789v7.054a2.388,2.388,0,0,0,.756,1.789,2.494,2.494,0,0,0,3.528,0,2.384,2.384,0,0,0,.756-1.789Z" transform="translate(0 0.003)"/><path class="cls-2" d="M328.963,224.337v-5.344H318.732v-4.838l7.409-25.7h5.443l-7.711,25.7h5.09v-10.23H334.1v10.23h2.47v4.838H334.1v5.344Z" transform="translate(0 0.003)"/><path class="cls-2" d="M339.144,228.065V219.2h5.141v5.141Z" transform="translate(0 0.003)"/><path class="cls-2" d="M348.114,195.86a7.81,7.81,0,0,1,.631-3.224,7.515,7.515,0,0,1,1.688-2.42,7.232,7.232,0,0,1,2.445-1.537,8.185,8.185,0,0,1,5.8,0,7.242,7.242,0,0,1,2.445,1.537,7.546,7.546,0,0,1,1.688,2.42,7.826,7.826,0,0,1,.63,3.224v21.067a7.829,7.829,0,0,1-.63,3.226,7.546,7.546,0,0,1-1.688,2.42,7.273,7.273,0,0,1-2.445,1.537,8.2,8.2,0,0,1-5.8,0,7.263,7.263,0,0,1-2.445-1.537,7.515,7.515,0,0,1-1.688-2.42,7.813,7.813,0,0,1-.631-3.226Zm5.142,21.067a2.534,2.534,0,0,0,.705,1.839,2.617,2.617,0,0,0,3.629,0,2.539,2.539,0,0,0,.706-1.839V195.86a2.55,2.55,0,0,0-.706-1.84,2.62,2.62,0,0,0-3.629,0,2.545,2.545,0,0,0-.705,1.84Z" transform="translate(0 0.003)"/><path class="cls-2" d="M366.863,195.86a7.81,7.81,0,0,1,.63-3.224,7.533,7.533,0,0,1,1.689-2.42,7.218,7.218,0,0,1,2.444-1.537,8.188,8.188,0,0,1,5.8,0,7.228,7.228,0,0,1,2.444,1.537,7.549,7.549,0,0,1,1.689,2.42,7.842,7.842,0,0,1,.63,3.224v21.067a7.845,7.845,0,0,1-.63,3.226,7.549,7.549,0,0,1-1.689,2.42,7.259,7.259,0,0,1-2.444,1.537,8.2,8.2,0,0,1-5.8,0,7.249,7.249,0,0,1-2.444-1.537,7.533,7.533,0,0,1-1.689-2.42,7.813,7.813,0,0,1-.63-3.226ZM372,216.927a2.531,2.531,0,0,0,.706,1.839,2.617,2.617,0,0,0,3.629,0,2.538,2.538,0,0,0,.7-1.839V195.86a2.549,2.549,0,0,0-.7-1.84,2.62,2.62,0,0,0-3.629,0,2.541,2.541,0,0,0-.706,1.84Z" transform="translate(0 0.003)"/><path class="cls-2" d="M385.611,195.86a7.81,7.81,0,0,1,.631-3.224,7.515,7.515,0,0,1,1.688-2.42,7.232,7.232,0,0,1,2.445-1.537,8.188,8.188,0,0,1,5.8,0,7.247,7.247,0,0,1,2.444,1.537,7.546,7.546,0,0,1,1.688,2.42,7.826,7.826,0,0,1,.63,3.224v21.067a7.829,7.829,0,0,1-.63,3.226,7.546,7.546,0,0,1-1.688,2.42,7.279,7.279,0,0,1-2.444,1.537,8.2,8.2,0,0,1-5.8,0,7.263,7.263,0,0,1-2.445-1.537,7.515,7.515,0,0,1-1.688-2.42,7.813,7.813,0,0,1-.631-3.226Zm5.142,21.067a2.534,2.534,0,0,0,.705,1.839,2.617,2.617,0,0,0,3.629,0,2.539,2.539,0,0,0,.706-1.839V195.86a2.55,2.55,0,0,0-.706-1.84,2.62,2.62,0,0,0-3.629,0,2.545,2.545,0,0,0-.705,1.84Z" transform="translate(0 0.003)"/></svg>