<?xml version="1.0" encoding="UTF-8"?>
<svg id="_レイヤー_2" data-name="レイヤー 2" xmlns="http://www.w3.org/2000/svg" viewBox="0 0 800 239.07">
  <defs>
    <style>
      .cls-1 {
        fill: #ffd900;
      }

      .cls-2 {
        fill: #505050;
      }

      .cls-3 {
        fill: #fff;
      }

      .cls-4 {
        fill: #df1614;
      }
    </style>
  </defs>
  <g id="_文字" data-name="文字">
    <g>
      <g>
        <rect class="cls-1" y="174.07" width="800" height="65"/>
        <g>
          <g>
            <path class="cls-4" d="M442.63,211.77c.95.32,1.91.56,2.89.74.98.18,1.94.29,2.9.36.96.06,1.88.09,2.76.09.81,0,1.69-.03,2.63-.08.94-.05,1.83-.13,2.68-.24l-.08,3.14c-.74.07-1.5.13-2.27.17-.77.04-1.58.07-2.4.07-1.76,0-3.45-.09-5.07-.28s-3.03-.44-4.22-.78l.18-3.19ZM443.18,205.23c.79.25,1.65.45,2.59.62.93.17,1.89.29,2.88.37s1.92.12,2.8.12c1.04,0,2.01-.04,2.9-.11s1.68-.16,2.35-.26l-.11,3.14c-.79.07-1.58.13-2.38.18s-1.74.08-2.85.08c-.9,0-1.83-.05-2.8-.15-.97-.1-1.93-.23-2.88-.4-.95-.17-1.84-.36-2.67-.57l.16-3.04ZM452.61,201.95c-.11.48-.19.9-.26,1.27-.07.37-.13.73-.19,1.08-.07.37-.15.9-.25,1.6-.1.7-.2,1.48-.32,2.35-.11.87-.23,1.78-.34,2.72-.11.94-.22,1.86-.33,2.76s-.19,1.72-.25,2.46c-.06.74-.09,1.33-.09,1.77,0,1.09.33,1.92.99,2.5.66.57,1.64.86,2.94.86,1.23,0,2.27-.17,3.12-.51.84-.34,1.49-.81,1.93-1.39.44-.58.66-1.23.66-1.95,0-.9-.23-1.77-.7-2.63s-1.14-1.69-2.02-2.5l3.72-.79c.88,1.11,1.53,2.16,1.94,3.16s.62,2.05.62,3.18c0,1.32-.38,2.5-1.14,3.54-.76,1.04-1.83,1.85-3.23,2.43-1.4.58-3.07.87-5,.87-1.37,0-2.6-.21-3.67-.63-1.07-.42-1.91-1.09-2.51-2.01s-.9-2.1-.9-3.56c0-.54.04-1.27.13-2.18s.2-1.91.33-3.01c.13-1.1.27-2.22.41-3.35.14-1.14.27-2.21.38-3.23.11-1.02.21-1.9.28-2.64.04-.62.06-1.09.07-1.41,0-.33,0-.64-.04-.94l3.72.21Z"/>
            <path class="cls-4" d="M477,201.66c-.02.14-.04.36-.08.65-.04.29-.07.58-.09.87-.03.29-.05.55-.07.78-.04.51-.07,1.07-.09,1.68-.03.61-.05,1.23-.07,1.88s-.03,1.29-.04,1.94-.01,1.28-.01,1.9c0,.72,0,1.52.03,2.39.02.87.04,1.73.07,2.59s.04,1.63.05,2.34c0,.7.01,1.25.01,1.64,0,1.09-.12,1.94-.36,2.54-.24.6-.58,1.02-1.02,1.25-.44.24-.95.36-1.53.36-.63,0-1.31-.13-2.03-.38-.72-.26-1.4-.61-2.02-1.07-.62-.46-1.14-.99-1.53-1.6-.4-.61-.59-1.26-.59-1.97,0-.84.32-1.68.96-2.52.64-.84,1.5-1.61,2.56-2.31,1.06-.7,2.21-1.27,3.45-1.69,1.18-.44,2.39-.76,3.64-.96,1.25-.2,2.38-.3,3.38-.3,1.35,0,2.58.22,3.67.67,1.09.45,1.96,1.1,2.61,1.97.65.86.98,1.9.98,3.12,0,1.02-.19,1.96-.58,2.82-.39.86-1.01,1.61-1.86,2.23s-1.98,1.11-3.39,1.46c-.6.12-1.19.22-1.78.28-.59.06-1.15.11-1.68.15l-1.21-3.41c.6,0,1.17-.01,1.73-.04.55-.03,1.06-.08,1.52-.15.72-.14,1.37-.35,1.95-.63.58-.28,1.04-.65,1.37-1.11.33-.46.5-1,.5-1.64,0-.6-.16-1.11-.49-1.53-.33-.42-.78-.75-1.36-.98-.58-.23-1.26-.34-2.03-.34-1.11,0-2.23.12-3.37.34s-2.22.54-3.26.95c-.77.3-1.47.65-2.09,1.04-.62.4-1.1.8-1.45,1.23-.35.42-.53.83-.53,1.21,0,.21.07.41.2.59.13.19.3.35.52.49.21.14.43.25.65.33.22.08.41.12.57.12.25,0,.45-.07.61-.22.16-.15.24-.44.24-.88,0-.48-.01-1.16-.04-2.05s-.05-1.88-.08-2.97c-.03-1.09-.04-2.17-.04-3.25,0-.74,0-1.49.01-2.24,0-.76.01-1.48.01-2.16s0-1.29.01-1.82c0-.53.01-.94.01-1.24,0-.19,0-.44-.03-.74-.02-.3-.04-.6-.07-.91-.03-.31-.06-.53-.09-.67h3.64ZM468.34,205.97c.77.09,1.46.15,2.05.17s1.12.04,1.6.04c.69,0,1.44-.03,2.27-.09s1.67-.15,2.53-.26c.86-.11,1.7-.25,2.52-.41.82-.16,1.56-.33,2.23-.53l.08,3.27c-.74.18-1.54.33-2.4.46-.86.13-1.73.25-2.6.36-.87.11-1.7.18-2.48.24-.78.05-1.47.08-2.05.08-.88,0-1.6,0-2.17-.03-.56-.02-1.07-.05-1.53-.11l-.05-3.19ZM484.52,204.51c.67.32,1.42.7,2.26,1.16s1.64.91,2.4,1.36,1.38.85,1.83,1.2l-1.58,2.69c-.33-.28-.77-.6-1.31-.95-.54-.35-1.12-.71-1.74-1.08-.62-.37-1.23-.72-1.81-1.04-.58-.33-1.08-.58-1.5-.78l1.45-2.56Z"/>
            <path class="cls-4" d="M496.77,220.56v-15.18c0-.46-.02-.99-.07-1.58-.04-.6-.11-1.13-.2-1.58h4.12c-.05.46-.11.96-.16,1.52-.05.55-.08,1.1-.08,1.65v15.18c0,.25,0,.59.03,1.04.02.45.05.91.11,1.39.05.47.09.9.11,1.27h-4.12c.07-.53.13-1.14.19-1.85.05-.7.08-1.32.08-1.85ZM499.6,209.05c.88.23,1.87.52,2.96.88,1.09.36,2.19.74,3.3,1.15s2.15.8,3.13,1.2c.98.4,1.79.76,2.44,1.1l-1.5,3.64c-.74-.39-1.56-.78-2.46-1.17-.9-.4-1.81-.78-2.73-1.15-.92-.37-1.83-.71-2.72-1.03s-1.69-.6-2.42-.84v-3.78Z"/>
            <path class="cls-4" d="M527.82,202.51c-.32.46-.62.95-.92,1.48-.3.53-.53.93-.69,1.21-.6,1.06-1.33,2.15-2.2,3.29-.87,1.13-1.86,2.24-2.97,3.3-1.11,1.07-2.29,2.04-3.54,2.92l-2.98-2.19c1.16-.72,2.19-1.46,3.08-2.22s1.66-1.51,2.31-2.26c.65-.75,1.21-1.47,1.68-2.16.47-.7.87-1.32,1.2-1.86.21-.33.43-.77.66-1.31.23-.54.4-1.03.53-1.47l3.85,1.27ZM536.43,206.68c-.14.25-.29.54-.45.88-.16.34-.3.68-.42,1.02-.23.77-.55,1.66-.96,2.65-.41,1-.92,2.02-1.53,3.09-.61,1.07-1.31,2.09-2.1,3.08-1.27,1.51-2.74,2.89-4.42,4.12-1.68,1.23-3.76,2.34-6.24,3.33l-3.12-2.8c1.8-.53,3.34-1.14,4.65-1.82,1.3-.69,2.44-1.42,3.41-2.2.97-.78,1.83-1.61,2.59-2.5.62-.69,1.18-1.46,1.69-2.34.51-.87.95-1.74,1.32-2.6s.62-1.62.74-2.27h-8.9l1.21-2.98h7.55c.4,0,.81-.03,1.23-.08.41-.05.77-.13,1.07-.24l2.69,1.66Z"/>
            <path class="cls-4" d="M543.71,223.34c-.67,0-1.22-.22-1.66-.66-.44-.44-.66-.99-.66-1.66s.22-1.25.66-1.69c.44-.44.99-.66,1.66-.66s1.22.22,1.66.66c.44.44.66,1,.66,1.69s-.22,1.22-.66,1.66-.99.66-1.66.66ZM542.37,216.31l-.71-9.03-.13-3.93h4.38l-.13,3.93-.71,9.03h-2.69Z"/>
          </g>
          <g>
            <path class="cls-4" d="M214.03,200.25l3.25.84c-.48,1.3-1.03,2.58-1.68,3.83-.64,1.25-1.34,2.41-2.09,3.47-.75,1.07-1.52,1.99-2.31,2.79-.21-.18-.48-.4-.82-.67s-.67-.53-1.02-.78c-.34-.25-.65-.45-.91-.61.81-.69,1.57-1.5,2.27-2.44.7-.94,1.34-1.96,1.9-3.06.56-1.1,1.03-2.22,1.4-3.37ZM208.54,216.46h24.29v3.04h-24.29v-3.04ZM212.74,209.52h18.03v2.96h-14.86v5.54h-3.17v-8.5ZM214.61,203.26h16.79v3.06h-18.32l1.53-3.06ZM220.5,204.85h3.27v20.33h-3.27v-20.33Z"/>
            <path class="cls-4" d="M235.97,201.39h3.14v23.79h-3.14v-23.79ZM237.55,205.06h6.6v2.14h-6.6v-2.14ZM237.79,201.39h8.37v9.58h-8.37v-2.27h5.39v-5.02h-5.39v-2.3ZM241.96,212.56h2.88v11.51h-2.88v-11.51ZM243.28,212.56h8.9v10.16h-8.9v-2.35h5.91v-5.46h-5.91v-2.35ZM243.47,216.49h7.21v2.24h-7.21v-2.24ZM256.85,201.39v2.3h-5.91v5.07h5.91v2.27h-8.92v-9.64h8.92ZM249.8,205.06h6.65v2.14h-6.65v-2.14ZM255.16,201.39h3.19v20.04c0,.84-.1,1.51-.29,2.01-.19.49-.55.87-1.08,1.13-.55.26-1.21.43-1.99.5-.78.07-1.75.11-2.89.11-.04-.32-.11-.67-.21-1.06-.11-.39-.23-.78-.37-1.17-.14-.4-.29-.74-.45-1.02.48.04.95.06,1.41.07.47,0,.88,0,1.25,0,.37,0,.63-.01.79-.01.25,0,.41-.04.5-.13.09-.09.13-.25.13-.48v-19.98Z"/>
          </g>
          <g>
            <path class="cls-4" d="M270.77,215.88l2.61.48c-.14,1.27-.35,2.52-.63,3.75-.28,1.23-.61,2.27-.98,3.12-.18-.12-.41-.26-.71-.41-.3-.15-.6-.29-.91-.44-.31-.14-.58-.25-.81-.32.39-.79.69-1.74.92-2.84.23-1.1.4-2.21.5-3.34ZM269.64,206.64l1.5-2.16c.46.39.93.82,1.43,1.31s.95.96,1.36,1.44c.41.48.73.92.94,1.32l-1.61,2.46c-.21-.4-.51-.87-.91-1.39s-.83-1.04-1.31-1.56c-.48-.52-.94-.99-1.4-1.41ZM269.64,212c1.21-.04,2.68-.09,4.4-.16s3.46-.15,5.24-.24l-.03,2.51c-1.65.12-3.3.24-4.94.36-1.64.11-3.11.21-4.41.28l-.26-2.75ZM273.7,200.38l2.8.98c-.35.69-.72,1.39-1.11,2.1s-.77,1.4-1.13,2.06c-.37.66-.73,1.24-1.08,1.73l-2.14-.87c.32-.54.64-1.17.98-1.86.33-.7.65-1.4.95-2.12s.55-1.39.74-2.01ZM276.87,203.53l2.69,1.11c-.65,1-1.36,2.05-2.11,3.15-.76,1.1-1.52,2.15-2.3,3.16-.77,1-1.5,1.88-2.17,2.64l-1.93-.98c.51-.6,1.03-1.28,1.56-2.03.53-.76,1.05-1.54,1.57-2.35.52-.81,1.01-1.62,1.48-2.44s.87-1.57,1.2-2.26ZM273.84,213.4h2.8v11.77h-2.8v-11.77ZM276.24,209.89l2.24-.98c.35.58.7,1.21,1.03,1.88.33.67.62,1.32.87,1.97.25.64.43,1.22.55,1.73l-2.43,1.11c-.11-.49-.27-1.07-.5-1.73-.23-.66-.5-1.34-.81-2.03-.31-.7-.63-1.34-.96-1.94ZM276.69,216.49l2.32-.77c.37.79.71,1.65,1.03,2.59.32.93.55,1.74.69,2.43l-2.46.9c-.12-.7-.33-1.54-.63-2.5s-.62-1.84-.95-2.65ZM283.02,200.33l3.27.74c-.37,1.3-.81,2.58-1.33,3.84-.52,1.26-1.09,2.43-1.7,3.52-.62,1.09-1.26,2.04-1.93,2.85-.21-.19-.48-.41-.82-.66-.33-.25-.69-.48-1.06-.71s-.69-.41-.95-.55c.69-.7,1.31-1.54,1.87-2.5.56-.96,1.07-2,1.52-3.12.45-1.12.82-2.26,1.12-3.42ZM281.97,212.32l2.56-1.27c.46.6.91,1.25,1.37,1.97.46.71.87,1.42,1.24,2.11s.64,1.32.82,1.89l-2.75,1.42c-.16-.54-.41-1.17-.75-1.89-.34-.71-.73-1.44-1.16-2.18-.43-.74-.88-1.43-1.33-2.06ZM282.86,204.85h9.48v3.01h-9.48v-3.01ZM290.97,204.85h3.06v.92c0,.23,0,.41-.03.55-.09,2.9-.18,5.37-.28,7.41s-.22,3.71-.36,5.03c-.14,1.32-.3,2.36-.49,3.12-.19.76-.42,1.31-.7,1.66-.37.51-.75.86-1.15,1.06s-.88.33-1.44.42c-.48.07-1.09.11-1.83.11s-1.52,0-2.31-.03c-.02-.46-.12-.99-.32-1.6-.19-.61-.44-1.14-.74-1.6.84.07,1.62.11,2.32.13.7.02,1.22.03,1.56.03.28,0,.51-.04.67-.11.17-.07.33-.18.49-.34.21-.23.4-.69.55-1.4.16-.7.29-1.69.41-2.97.11-1.28.22-2.88.32-4.82s.18-4.25.25-6.94v-.63Z"/>
            <path class="cls-4" d="M407.96,197.2h24.46v3.71h-20.72v23.59h-3.74v-27.3ZM409.99,208.81h22.5v3.68h-22.5v-3.68ZM419.1,199.23h3.74v11.42h-3.74v-11.42ZM430.64,197.2h3.78v22.93c0,1-.12,1.78-.37,2.36-.25.57-.7,1.01-1.34,1.33-.65.31-1.45.5-2.42.58-.97.07-2.15.11-3.54.11-.06-.35-.17-.76-.31-1.22-.15-.46-.31-.91-.5-1.36-.19-.45-.37-.84-.56-1.17.6.04,1.21.07,1.83.08.61.01,1.16.02,1.64.02h1c.29-.02.5-.09.62-.2s.19-.31.19-.58v-22.87Z"/>
            <g>
              <path class="cls-4" d="M303.1,224.41l5.85-15.07-.1-.1c-.17.13-.43.24-.78.33-.35.08-.82.13-1.39.13-.91,0-1.75-.22-2.52-.66-.77-.44-1.38-.99-1.81-1.66-.24-.34-.42-.7-.55-1.08-.13-.39-.24-.88-.3-1.49-.1-.6-.17-1.37-.2-2.29-.03-.92-.05-2.09-.05-3.5,0-1.18.02-2.14.05-2.9.03-.76.1-1.4.2-1.94.07-.5.18-.94.33-1.31.15-.37.34-.76.58-1.16.67-1.11,1.57-1.96,2.7-2.57,1.12-.6,2.39-.91,3.81-.91s2.67.31,3.78.93c1.11.62,2,1.47,2.67,2.54.23.4.44.79.6,1.16.17.37.3.81.4,1.31.07.54.12,1.18.15,1.94.03.76.05,1.72.05,2.9,0,1.11-.02,2.02-.05,2.75-.03.72-.08,1.34-.15,1.84-.1.54-.21,1.02-.33,1.44-.12.42-.26.87-.43,1.34l-6.75,18.04h-5.75ZM306.38,202.59c0,.77.25,1.39.76,1.87s1.09.71,1.76.71,1.26-.23,1.76-.71c.5-.47.76-1.09.76-1.87v-6.65c0-.77-.25-1.39-.76-1.87-.5-.47-1.09-.71-1.76-.71s-1.26.24-1.76.71c-.5.47-.76,1.09-.76,1.87v6.65Z"/>
              <path class="cls-4" d="M333.44,188.52l-5.85,15.07.1.1c.17-.13.43-.24.78-.33.35-.08.81-.13,1.39-.13.91,0,1.75.22,2.52.66s1.38.99,1.81,1.66c.23.37.42.74.55,1.11.13.37.25.86.35,1.46.07.6.12,1.37.15,2.29.03.92.05,2.09.05,3.5,0,1.18-.02,2.14-.05,2.9-.03.76-.08,1.39-.15,1.89-.1.54-.23.99-.38,1.36s-.34.76-.58,1.16c-.67,1.11-1.57,1.96-2.7,2.57-1.13.6-2.39.91-3.81.91s-2.67-.31-3.78-.93c-1.11-.62-2-1.47-2.67-2.54-.27-.4-.48-.79-.63-1.16-.15-.37-.26-.82-.33-1.36-.1-.5-.17-1.13-.2-1.89-.03-.76-.05-1.72-.05-2.9,0-1.11.02-2.02.05-2.75.03-.72.08-1.35.15-1.89.07-.5.17-.97.3-1.39.13-.42.28-.87.45-1.34l6.75-18.04h5.75ZM330.17,210.35c0-.77-.25-1.39-.76-1.87-.5-.47-1.09-.71-1.76-.71s-1.26.24-1.76.71c-.5.47-.76,1.09-.76,1.87v6.65c0,.77.25,1.4.76,1.87.5.47,1.09.71,1.76.71s1.26-.23,1.76-.71c.5-.47.76-1.09.76-1.87v-6.65Z"/>
              <path class="cls-4" d="M339.14,228.14v-8.87h5.14v5.14l-5.14,3.73Z"/>
              <path class="cls-4" d="M348.11,195.93c0-1.21.21-2.29.63-3.23.42-.94.98-1.75,1.69-2.42.71-.67,1.52-1.18,2.44-1.54.92-.35,1.89-.53,2.9-.53s1.97.18,2.9.53c.92.35,1.74.87,2.44,1.54.71.67,1.27,1.48,1.69,2.42.42.94.63,2.02.63,3.23v21.07c0,1.21-.21,2.29-.63,3.23-.42.94-.98,1.75-1.69,2.42s-1.52,1.18-2.44,1.54c-.92.35-1.89.53-2.9.53s-1.97-.18-2.9-.53c-.92-.35-1.74-.87-2.44-1.54-.71-.67-1.27-1.48-1.69-2.42-.42-.94-.63-2.02-.63-3.23v-21.07ZM353.25,217c0,.74.23,1.35.71,1.84.47.49,1.07.73,1.81.73s1.34-.24,1.81-.73c.47-.49.71-1.1.71-1.84v-21.07c0-.74-.24-1.35-.71-1.84-.47-.49-1.08-.73-1.81-.73s-1.34.24-1.81.73c-.47.49-.71,1.1-.71,1.84v21.07Z"/>
              <path class="cls-4" d="M366.86,195.93c0-1.21.21-2.29.63-3.23.42-.94.98-1.75,1.69-2.42.71-.67,1.52-1.18,2.44-1.54.92-.35,1.89-.53,2.9-.53s1.97.18,2.9.53c.92.35,1.74.87,2.44,1.54.71.67,1.27,1.48,1.69,2.42.42.94.63,2.02.63,3.23v21.07c0,1.21-.21,2.29-.63,3.23-.42.94-.98,1.75-1.69,2.42s-1.52,1.18-2.44,1.54c-.92.35-1.89.53-2.9.53s-1.97-.18-2.9-.53c-.92-.35-1.74-.87-2.44-1.54-.71-.67-1.27-1.48-1.69-2.42-.42-.94-.63-2.02-.63-3.23v-21.07ZM372,217c0,.74.23,1.35.71,1.84.47.49,1.07.73,1.81.73s1.34-.24,1.81-.73c.47-.49.71-1.1.71-1.84v-21.07c0-.74-.24-1.35-.71-1.84-.47-.49-1.08-.73-1.81-.73s-1.34.24-1.81.73c-.47.49-.71,1.1-.71,1.84v21.07Z"/>
              <path class="cls-4" d="M385.61,195.93c0-1.21.21-2.29.63-3.23.42-.94.98-1.75,1.69-2.42.71-.67,1.52-1.18,2.44-1.54.92-.35,1.89-.53,2.9-.53s1.97.18,2.9.53c.92.35,1.74.87,2.44,1.54.71.67,1.27,1.48,1.69,2.42.42.94.63,2.02.63,3.23v21.07c0,1.21-.21,2.29-.63,3.23-.42.94-.98,1.75-1.69,2.42s-1.52,1.18-2.44,1.54c-.92.35-1.89.53-2.9.53s-1.97-.18-2.9-.53c-.92-.35-1.74-.87-2.44-1.54-.71-.67-1.27-1.48-1.69-2.42-.42-.94-.63-2.02-.63-3.23v-21.07ZM390.75,217c0,.74.23,1.35.71,1.84.47.49,1.07.73,1.81.73s1.34-.24,1.81-.73c.47-.49.71-1.1.71-1.84v-21.07c0-.74-.24-1.35-.71-1.84-.47-.49-1.08-.73-1.81-.73s-1.34.24-1.81.73c-.47.49-.71,1.1-.71,1.84v21.07Z"/>
            </g>
          </g>
        </g>
      </g>
      <g>
        <g>
          <path class="cls-4" d="M574.76,191.21l36.83-5.98c.47-.08.78-.51.71-.98s-.51-.78-.98-.71l-36.83,5.98c-.47.08-.78.51-.71.98s.51.78.98.71Z"/>
          <path class="cls-4" d="M571.14,195.75l45.33-7.37c.47-.08.78-.51.71-.98s-.51-.78-.98-.71l-45.33,7.37c-.47.08-.78.51-.71.98s.51.78.98.71Z"/>
          <path class="cls-4" d="M620.27,190.52c-.18-.13-.41-.19-.64-.15l-50.87,8.27c-.22.04-.42.16-.56.34-.13.18-.19.41-.15.64l4.23,26.04c.04.22.16.42.34.56s.41.19.64.15l50.87-8.27c.22-.04.42-.16.56-.34.13-.18.19-.41.15-.64l-4.23-26.04c-.04-.22-.16-.42-.34-.56ZM623.03,216.54l-49.19,7.99-3.96-24.35,49.19-7.99,3.96,24.35Z"/>
          <polygon class="cls-4" points="591.12 208.33 591.45 210.36 595.33 209.73 595.48 210.66 591.6 211.29 591.93 213.31 595.81 212.68 596.11 214.51 598.69 214.09 598.39 212.27 602.3 211.63 601.97 209.6 598.06 210.24 597.91 209.31 601.82 208.67 601.49 206.65 598.53 207.13 600.79 201.89 597.91 202.35 596.14 206.44 593.16 203.13 590.28 203.59 593.99 207.86 591.12 208.33"/>
          <path class="cls-4" d="M578.58,222.16l39.2-6.37c.16-1.75,1.26-3.28,2.88-3.99l-2.33-14.36c-1.75-.16-3.28-1.26-3.99-2.88l-39.2,6.37c-.16,1.75-1.26,3.28-2.88,3.99l2.33,14.36c1.75.16,3.28,1.26,3.99,2.88ZM594.9,198.81c5.26-.86,10.24,2.73,11.1,8s-2.73,10.24-8,11.1c-5.26.86-10.24-2.73-11.1-8-.86-5.26,2.73-10.24,8-11.1Z"/>
        </g>
        <path class="cls-4" d="M549.03,189.39c5.48,1.34,6.57,2.43,7.91,7.91,1.34-5.48,2.43-6.57,7.91-7.91-5.48-1.34-6.57-2.43-7.91-7.91-1.34,5.48-2.43,6.57-7.91,7.91Z"/>
        <path class="cls-4" d="M624.85,225.36c5.48,1.34,6.57,2.43,7.91,7.91,1.34-5.48,2.43-6.57,7.91-7.91-5.48-1.34-6.57-2.43-7.91-7.91-1.34,5.48-2.43,6.57-7.91,7.91Z"/>
      </g>
      <g>
        <path class="cls-2" d="M215.2,6.97h37.09v8.61h-4.66v-5.25h-27.93v5.25h-4.49V6.97ZM218.09,1.68h31.16v3.74h-31.16V1.68ZM219.06,20.24h4.83v15.37h-4.83v-15.37ZM220.53,15.92h9.11v2.77h-9.11v-2.77ZM221.33,11.76h8.32v2.73h-8.32v-2.73ZM221.58,20.24h26.75v13.48h-26.75v-3.36h21.76v-6.72h-21.76v-3.4ZM221.58,25.49h23.81v3.02h-23.81v-3.02ZM230.86,22.13h4.83v11.72c0,.78.19,1.28.57,1.49s1.2.32,2.46.32h8.02c.7,0,1.23-.1,1.6-.29.36-.2.63-.6.8-1.22s.29-1.51.38-2.69c.5.34,1.17.66,2,.97.83.31,1.56.52,2.21.63-.2,1.68-.52,2.99-.97,3.93-.45.94-1.11,1.6-2,1.97-.88.38-2.09.57-3.63.57h-8.82c-1.9,0-3.4-.17-4.49-.5s-1.85-.91-2.29-1.72c-.43-.81-.65-1.95-.65-3.4v-11.76ZM231.11,3.19h4.96v15.92h-4.96V3.19ZM237.62,11.76h8.23v2.73h-8.23v-2.73ZM237.62,15.92h9.24v2.77h-9.24v-2.77Z"/>
        <path class="cls-2" d="M264.67,0l5.29,1.13c-1.01,3.39-2.37,6.52-4.07,9.41-1.71,2.88-3.58,5.26-5.63,7.14-.31-.31-.75-.67-1.32-1.07-.57-.41-1.16-.81-1.74-1.22s-1.09-.72-1.51-.95c2.07-1.6,3.89-3.67,5.44-6.24,1.55-2.56,2.74-5.3,3.55-8.21ZM275.05,21l4.91,1.6c-1.4,2.63-3.1,5.06-5.1,7.29-2,2.23-4.19,4.21-6.57,5.94-2.38,1.74-4.86,3.22-7.43,4.45-.25-.34-.6-.76-1.03-1.26-.43-.5-.9-.99-1.39-1.47-.49-.48-.92-.87-1.28-1.18,2.58-1.04,5-2.31,7.29-3.82,2.28-1.51,4.33-3.25,6.13-5.21,1.81-1.96,3.3-4.07,4.47-6.34ZM260.64,16.59h24.23v4.2h-24.23v-4.2ZM260.72,25.66l3.57-3.32c1.54.81,3.14,1.72,4.81,2.71,1.67,1,3.32,2.04,4.96,3.13,1.64,1.09,3.16,2.18,4.56,3.25,1.4,1.08,2.58,2.11,3.53,3.09l-4.03,3.82c-.87-.95-1.97-1.99-3.3-3.11-1.33-1.12-2.79-2.25-4.37-3.38-1.58-1.13-3.21-2.23-4.89-3.3s-3.29-2.03-4.83-2.9ZM265.18,4.24h28.64v4.16h-28.64v-4.16ZM265.64,10.42h24.36v4.07h-24.36v-4.07ZM283.24,16.59h5.17c0,2.52.03,4.88.08,7.08.06,2.2.19,4.12.4,5.75.21,1.64.51,2.93.9,3.86.39.94.9,1.41,1.51,1.41.34-.03.56-.56.67-1.6.11-1.04.18-2.39.21-4.07.48.56,1.01,1.13,1.62,1.7.6.57,1.15,1.06,1.66,1.45-.11,1.74-.32,3.17-.61,4.28-.29,1.12-.75,1.94-1.36,2.46-.62.52-1.46.78-2.52.78-1.76,0-3.16-.6-4.18-1.79-1.02-1.19-1.78-2.84-2.29-4.96-.5-2.11-.84-4.57-1.01-7.37s-.25-5.8-.25-8.99Z"/>
        <path class="cls-2" d="M308.65.55l4.83,1.55c-1.06,2.49-2.32,4.97-3.76,7.43-1.44,2.46-3,4.77-4.66,6.93-1.67,2.16-3.38,4.05-5.15,5.67-.14-.42-.38-.95-.71-1.6-.34-.64-.69-1.29-1.07-1.93-.38-.64-.72-1.18-1.03-1.6,1.54-1.29,3.02-2.81,4.45-4.58,1.43-1.76,2.76-3.66,3.99-5.69,1.23-2.03,2.27-4.09,3.11-6.2ZM304.32,12.6l5.12-5.17.08.08v32.05h-5.21V12.6ZM311,14.36l25.54-3.4.71,4.75-25.54,3.49-.71-4.83ZM318.85.84h5.12c.06,4.48.26,8.66.61,12.54.35,3.88.85,7.29,1.49,10.23.64,2.94,1.44,5.27,2.39,6.99.95,1.72,2.06,2.67,3.32,2.84.48.03.85-.5,1.13-1.6.28-1.09.5-2.8.67-5.12.31.34.73.7,1.26,1.09.53.39,1.06.75,1.6,1.07.53.32.95.57,1.26.74-.36,2.72-.85,4.8-1.45,6.26-.6,1.46-1.27,2.44-2,2.96-.73.52-1.48.75-2.27.69-1.99-.2-3.7-.92-5.12-2.18-1.43-1.26-2.62-3.01-3.59-5.25-.97-2.24-1.75-4.91-2.35-8.02-.6-3.11-1.06-6.62-1.36-10.52-.31-3.91-.55-8.14-.71-12.71ZM326.79,2.86l3.78-2.35c.73.64,1.48,1.37,2.27,2.18.78.81,1.51,1.62,2.18,2.42.67.8,1.2,1.53,1.6,2.21l-4.07,2.56c-.34-.64-.83-1.38-1.47-2.21-.64-.83-1.34-1.66-2.08-2.5-.74-.84-1.48-1.61-2.21-2.31Z"/>
        <path class="cls-2" d="M341.28,3.65h36.88v4.33h-36.88V3.65ZM342.92,20.62h30.74v4.16h-25.83v14.87h-4.91v-19.03ZM348.17,9.58h23.1v9.28h-23.1v-9.28ZM351.61,26.71h4.37v11.38h-4.37v-11.38ZM352.96,12.94v2.56h13.19v-2.56h-13.19ZM353.84,26.71h13.9v9.45h-13.9v-3.4h9.49v-2.65h-9.49v-3.4ZM356.86.13h5.17v5.67h-5.17V.13ZM371.77,20.62h5.04v13.69c0,1.15-.14,2.08-.42,2.79-.28.71-.83,1.27-1.64,1.66-.81.36-1.78.59-2.9.67-1.12.08-2.45.13-3.99.13-.08-.7-.28-1.51-.59-2.42-.31-.91-.63-1.67-.97-2.29.98.03,1.92.05,2.83.06.91.01,1.5,0,1.78-.02.34-.03.56-.08.67-.17.11-.08.17-.25.17-.5v-13.61Z"/>
        <path class="cls-2" d="M383.99,1.64h3.95v15.33c0,1.65-.03,3.45-.08,5.4-.06,1.95-.18,3.94-.36,5.99-.18,2.04-.45,4.03-.8,5.94-.35,1.92-.82,3.66-1.41,5.23-.25-.22-.6-.47-1.03-.74-.43-.27-.88-.51-1.34-.74-.46-.22-.86-.41-1.2-.55.7-1.96,1.21-4.14,1.53-6.53.32-2.39.52-4.82.61-7.27.08-2.45.13-4.7.13-6.74V1.64ZM385.59,21.04h7.64v4.66h-7.64v-4.66ZM385.63,1.64h7.56v4.58h-7.56V1.64ZM385.63,11.26h7.56v4.54h-7.56v-4.54ZM390.84,1.64h4.12v33.05c0,.98-.09,1.81-.27,2.48s-.57,1.19-1.15,1.55c-.56.36-1.25.6-2.06.71-.81.11-1.81.17-2.98.17-.06-.62-.19-1.36-.4-2.23s-.47-1.6-.78-2.18c.64.03,1.25.04,1.81.04h1.18c.36,0,.55-.22.55-.67V1.64ZM405.2.17l4.37.5c-.81,5.15-2.21,9.53-4.2,13.15-1.99,3.61-4.8,6.51-8.44,8.69-.14-.34-.37-.73-.69-1.2-.32-.46-.66-.92-1.01-1.39-.35-.46-.67-.83-.95-1.11,3.28-1.76,5.77-4.21,7.48-7.33,1.71-3.12,2.86-6.89,3.44-11.32ZM397.85,31.96l3.4.67c-.17,1.26-.5,2.52-.99,3.78-.49,1.26-1.17,2.31-2.04,3.15l-3.11-1.72c.73-.62,1.32-1.46,1.79-2.54.46-1.08.78-2.19.95-3.34ZM395.67,11.05h25.45v3.7h-25.45v-3.7ZM396.85,5.5h23.23v3.57h-23.23v-3.57ZM397.43,1.6l3.7-1.05c.42.64.79,1.37,1.11,2.18.32.81.55,1.53.69,2.14l-3.95,1.22c-.08-.62-.27-1.34-.57-2.18s-.62-1.61-.99-2.31ZM399.16,16.72h18.23v2.94h-13.94v10.46h-4.28v-13.4ZM399.16,28.81h18.02v2.9h-18.02v-2.9ZM401.34,21.08h16.09v2.35h-16.09v-2.35ZM401.34,24.91h16.09v2.39h-16.09v-2.39ZM401.89,33.43l2.86-.46c.22.87.42,1.81.59,2.81s.27,1.88.29,2.6l-3.02.55c-.03-.76-.1-1.65-.23-2.67-.13-1.02-.29-1.97-.48-2.83ZM405.88,33.22l2.52-.71c.36.73.7,1.53,1.01,2.42.31.88.52,1.63.63,2.25l-2.65.84c-.11-.64-.31-1.41-.61-2.31s-.6-1.72-.9-2.48ZM407.22,17.89h3.86v12.1h-3.86v-12.1ZM409.78,32.76l2.23-1.05c.42.5.82,1.06,1.2,1.66.38.6.67,1.14.86,1.62l-2.35,1.18c-.17-.48-.44-1.03-.82-1.66-.38-.63-.75-1.21-1.11-1.74ZM413.73,7.35c.48,1.51,1.12,2.98,1.93,4.41.81,1.43,1.75,2.72,2.81,3.89,1.06,1.16,2.23,2.11,3.49,2.83-.5.39-1.06.94-1.66,1.66-.6.71-1.07,1.35-1.41,1.91-1.4-.95-2.68-2.13-3.84-3.53-1.16-1.4-2.17-2.97-3.02-4.73-.85-1.75-1.56-3.58-2.12-5.48l3.82-.97ZM416,28.81h4.28c-.03.7-.07,1.18-.13,1.43-.17,2.55-.38,4.45-.63,5.69-.25,1.25-.6,2.09-1.05,2.54-.34.39-.7.67-1.09.82-.39.15-.83.26-1.3.32-.36.06-.88.09-1.55.1-.67.01-1.37,0-2.1-.02-.03-.5-.13-1.07-.29-1.7s-.36-1.17-.59-1.62c.5.06.97.09,1.39.11.42.01.74.02.97.02s.41-.02.57-.06c.15-.04.3-.13.44-.27.25-.28.46-.93.63-1.95.17-1.02.32-2.65.46-4.89v-.5ZM413.9.38l4.75,1.13c-.53.87-1.02,1.7-1.45,2.5-.43.8-.85,1.49-1.24,2.08l-3.86-1.09c.34-.64.67-1.41,1.01-2.29s.6-1.66.8-2.33Z"/>
        <path class="cls-2" d="M447.54,7.1c-.28,2.13-.64,4.4-1.09,6.8-.45,2.41-1.05,4.84-1.81,7.31-.81,2.83-1.76,5.26-2.86,7.31-1.09,2.04-2.29,3.62-3.59,4.72-1.3,1.11-2.72,1.66-4.26,1.66s-2.96-.53-4.26-1.58c-1.3-1.05-2.34-2.5-3.11-4.35-.77-1.85-1.15-3.95-1.15-6.3s.49-4.73,1.47-6.89c.98-2.16,2.34-4.07,4.09-5.73,1.75-1.67,3.79-2.98,6.13-3.93,2.34-.95,4.87-1.43,7.58-1.43s4.95.42,7.04,1.26c2.09.84,3.87,2,5.35,3.49,1.48,1.48,2.62,3.22,3.4,5.21.78,1.99,1.18,4.13,1.18,6.43,0,2.94-.6,5.57-1.81,7.9-1.2,2.32-2.99,4.24-5.35,5.75-2.37,1.51-5.31,2.55-8.84,3.11l-3.15-5c.81-.08,1.53-.18,2.14-.29.62-.11,1.2-.24,1.76-.38,1.34-.34,2.6-.82,3.76-1.45,1.16-.63,2.18-1.41,3.05-2.35.87-.94,1.55-2.04,2.04-3.3.49-1.26.74-2.65.74-4.16,0-1.65-.25-3.16-.76-4.54-.5-1.37-1.25-2.57-2.23-3.59-.98-1.02-2.17-1.81-3.57-2.35-1.4-.55-3.01-.82-4.83-.82-2.24,0-4.21.4-5.92,1.2-1.71.8-3.15,1.83-4.33,3.09-1.18,1.26-2.06,2.62-2.67,4.07s-.9,2.84-.9,4.16c0,1.4.17,2.57.5,3.51s.75,1.64,1.24,2.1c.49.46,1.01.69,1.57.69.59,0,1.17-.3,1.74-.9.57-.6,1.14-1.52,1.7-2.75.56-1.23,1.12-2.79,1.68-4.66.64-2.02,1.19-4.17,1.64-6.47.45-2.3.77-4.54.97-6.72l5.71.17Z"/>
        <path class="cls-2" d="M475.64,5.84c-.11.5-.2,1.08-.27,1.72-.07.64-.13,1.27-.17,1.89-.04.62-.06,1.12-.06,1.51-.03.92-.04,1.88-.02,2.86.01.98.04,1.98.08,3,.04,1.02.1,2.04.19,3.04.2,2.02.48,3.79.84,5.33.36,1.54.84,2.74,1.43,3.59.59.85,1.33,1.28,2.23,1.28.48,0,.94-.27,1.41-.8s.88-1.22,1.26-2.08c.38-.85.71-1.76,1.01-2.71s.55-1.85.78-2.69l4.2,5.12c-.92,2.44-1.84,4.38-2.75,5.82-.91,1.44-1.85,2.48-2.83,3.11-.98.63-2.04.95-3.19.95-1.51,0-2.95-.5-4.31-1.51-1.36-1.01-2.51-2.64-3.46-4.89-.95-2.25-1.62-5.26-2.02-9.01-.14-1.29-.25-2.65-.31-4.07-.07-1.43-.11-2.79-.13-4.07-.01-1.29-.02-2.35-.02-3.19,0-.59-.03-1.29-.08-2.1-.06-.81-.14-1.54-.25-2.18l6.47.08ZM496.64,6.8c.78.95,1.54,2.12,2.27,3.49.73,1.37,1.4,2.84,2.02,4.41.62,1.57,1.16,3.17,1.64,4.81.48,1.64.86,3.23,1.16,4.79.29,1.55.48,2.98.57,4.26l-5.54,2.14c-.14-1.71-.39-3.57-.76-5.59-.36-2.02-.85-4.05-1.47-6.09-.62-2.04-1.35-3.98-2.21-5.8-.85-1.82-1.85-3.39-3-4.7l5.33-1.72Z"/>
        <path class="cls-2" d="M531.79,1.89c-.06.42-.1.89-.15,1.41-.04.52-.08,1.04-.1,1.58-.03.56-.06,1.31-.08,2.25-.03.94-.04,1.97-.04,3.09v6.3c0,1.18.03,2.49.08,3.93s.13,2.9.23,4.37c.1,1.47.18,2.84.25,4.12.07,1.27.1,2.33.1,3.17,0,1.18-.31,2.25-.92,3.21-.62.97-1.53,1.73-2.75,2.29-1.22.56-2.75.84-4.6.84-3.36,0-5.91-.62-7.64-1.85-1.74-1.23-2.6-2.95-2.6-5.17,0-1.43.41-2.68,1.24-3.76.83-1.08,2.02-1.92,3.57-2.54,1.55-.62,3.41-.92,5.57-.92,2.3,0,4.44.25,6.45.73,2,.49,3.83,1.13,5.48,1.91,1.65.78,3.12,1.61,4.41,2.48,1.29.87,2.38,1.65,3.28,2.35l-3.02,4.7c-1.01-.95-2.14-1.89-3.38-2.81-1.25-.92-2.6-1.76-4.07-2.52s-3.02-1.37-4.66-1.83c-1.64-.46-3.37-.69-5.19-.69-1.46,0-2.58.25-3.38.76s-1.2,1.12-1.2,1.85c0,.53.17.99.5,1.39.34.39.83.69,1.47.88.64.2,1.46.29,2.44.29.76,0,1.41-.08,1.95-.25s.97-.48,1.28-.92c.31-.45.46-1.08.46-1.89,0-.62-.02-1.5-.06-2.65-.04-1.15-.09-2.41-.15-3.8-.06-1.39-.11-2.75-.17-4.09s-.08-2.53-.08-3.57,0-2.06.02-3.17c.01-1.11.02-2.21.02-3.3s0-2.09.02-3c.01-.91.02-1.66.02-2.25,0-.39-.02-.88-.06-1.45-.04-.57-.1-1.06-.19-1.45h5.67ZM514.15,14.91c.67.11,1.47.22,2.39.34.92.11,1.87.2,2.83.25.97.06,1.88.11,2.75.15.87.04,1.58.06,2.14.06,2.6,0,4.96-.06,7.08-.17,2.11-.11,4.1-.25,5.94-.42,1.85-.17,3.63-.36,5.33-.59l-.04,4.96c-1.46.17-2.86.31-4.22.42-1.36.11-2.74.21-4.16.29-1.41.08-2.93.14-4.56.17-1.62.03-3.44.04-5.46.04-.81,0-1.82-.02-3.02-.06-1.2-.04-2.43-.11-3.68-.19-1.25-.08-2.35-.18-3.3-.29l-.04-4.96ZM514.36,5.84c.76.11,1.6.22,2.52.34.92.11,1.87.22,2.83.32.97.1,1.88.17,2.75.21.87.04,1.62.06,2.27.06,2.86,0,5.7-.09,8.55-.27,2.84-.18,5.79-.53,8.84-1.03l-.04,4.83c-1.43.2-3.08.38-4.96.55-1.88.17-3.87.3-5.99.4-2.11.1-4.24.15-6.36.15-.87,0-1.94-.03-3.21-.1-1.27-.07-2.54-.17-3.8-.29-1.26-.13-2.35-.25-3.28-.36l-.13-4.79Z"/>
        <path class="cls-2" d="M559.43,38.77c-.84-1.06-1.78-2.14-2.81-3.23-1.04-1.09-2.09-2.16-3.15-3.21-1.06-1.05-2.09-2-3.07-2.83l4.37-3.78c1.01.81,2.09,1.77,3.23,2.88,1.15,1.11,2.25,2.22,3.3,3.34,1.05,1.12,1.92,2.11,2.62,2.98l-4.49,3.86Z"/>
      </g>
      <g>
        <g>
          <g>
            <g>
              <path class="cls-4" d="M482.07,99.83h1.28l1.22-.23,4.65,2.09c-1.01,2.99-2.28,5.74-3.81,8.26-1.53,2.52-3.29,4.82-5.27,6.89-1.98,2.08-4.11,3.93-6.4,5.56-2.29,1.63-4.67,3.05-7.16,4.25-.47-.81-1.12-1.75-1.95-2.79-.83-1.05-1.6-1.88-2.3-2.5,2.17-.89,4.27-2.04,6.28-3.43,2.02-1.4,3.91-2.98,5.67-4.74,1.76-1.76,3.32-3.67,4.65-5.73,1.34-2.05,2.38-4.21,3.11-6.46v-1.16ZM479.27,120.66h6.92v10.07c0,2.06-.19,4.11-.58,6.17-.39,2.06-1.14,4.04-2.27,5.96-1.13,1.92-2.77,3.71-4.95,5.35-2.17,1.65-5.06,3.07-8.67,4.28-.27-.54-.67-1.16-1.19-1.86-.52-.7-1.08-1.39-1.66-2.07-.58-.68-1.11-1.23-1.57-1.66,3.1-.97,5.59-2.07,7.45-3.32,1.86-1.24,3.26-2.58,4.19-4.01.93-1.43,1.55-2.92,1.86-4.45.31-1.53.47-3.05.47-4.57v-9.89ZM466.3,110.36l4.36-3.61c.78.5,1.58,1.09,2.41,1.75.83.66,1.64,1.3,2.41,1.92.78.62,1.42,1.18,1.92,1.69l-4.6,4.07c-.43-.5-1.02-1.11-1.77-1.8s-1.55-1.4-2.39-2.09c-.83-.7-1.62-1.34-2.36-1.92ZM466.76,130.49h46.43v6.4h-46.43v-6.4ZM468.04,99.83h16.52v5.99h-16.52v-5.99ZM474.33,117.34h31.65v6.57h-31.65v-6.57ZM496.49,97.68c1.24,3.3,2.9,6.42,4.97,9.37,2.07,2.95,4.51,5.57,7.3,7.85,2.79,2.29,5.88,4.11,9.25,5.47-.54.47-1.12,1.06-1.72,1.77-.6.72-1.18,1.46-1.75,2.21-.56.76-1.02,1.45-1.37,2.07-3.61-1.71-6.86-3.9-9.75-6.57-2.89-2.68-5.43-5.74-7.62-9.19-2.19-3.45-4.06-7.19-5.61-11.23l6.28-1.75ZM493.47,120.95h7.27v22.22c0,1.09.11,1.77.32,2.07.21.29.71.44,1.48.44h4.48c.54,0,.94-.17,1.19-.52.25-.35.44-1,.55-1.95.12-.95.21-2.34.29-4.16.74.54,1.73,1.08,2.97,1.6,1.24.52,2.35.9,3.32,1.13-.23,2.56-.62,4.58-1.16,6.05-.54,1.47-1.33,2.51-2.36,3.11-1.03.6-2.4.9-4.1.9h-6.4c-2.13,0-3.76-.26-4.89-.79-1.12-.52-1.9-1.42-2.33-2.68-.43-1.26-.64-2.98-.64-5.15v-22.28ZM504.58,98.5l5.29,3.67c-1.55,1.4-3.15,2.77-4.8,4.13-1.65,1.36-3.17,2.5-4.57,3.43l-4.19-3.26c.89-.66,1.84-1.45,2.85-2.36,1.01-.91,2-1.86,2.97-2.85.97-.99,1.78-1.91,2.44-2.76ZM511.56,105.19l5.12,3.55c-1.55,1.44-3.23,2.86-5.03,4.28-1.8,1.42-3.46,2.61-4.97,3.58l-4.19-3.2c.97-.7,2.01-1.52,3.11-2.47,1.11-.95,2.19-1.93,3.26-2.94,1.07-1.01,1.97-1.94,2.71-2.79Z"/>
              <path class="cls-4" d="M522.62,106.99h51.37v11.93h-6.46v-7.27h-38.69v7.27h-6.23v-11.93ZM526.63,99.66h43.17v5.18h-43.17v-5.18ZM527.97,125.37h6.69v21.29h-6.69v-21.29ZM530.01,119.38h12.62v3.84h-12.62v-3.84ZM531.11,113.62h11.52v3.78h-11.52v-3.78ZM531.46,125.37h37.06v18.68h-37.06v-4.65h30.14v-9.31h-30.14v-4.71ZM531.46,132.65h32.99v4.19h-32.99v-4.19ZM544.32,127.99h6.69v16.23c0,1.09.26,1.77.79,2.07.52.29,1.66.44,3.4.44h11.11c.97,0,1.71-.14,2.21-.41.5-.27.87-.83,1.11-1.69.23-.85.41-2.09.52-3.72.7.46,1.62.91,2.76,1.34,1.14.43,2.16.72,3.05.87-.27,2.33-.72,4.14-1.34,5.44-.62,1.3-1.54,2.21-2.76,2.73s-2.9.79-5.03.79h-12.22c-2.64,0-4.71-.23-6.23-.7-1.51-.46-2.57-1.26-3.17-2.38-.6-1.13-.9-2.7-.9-4.71v-16.29ZM544.67,101.75h6.87v22.05h-6.87v-22.05ZM553.69,113.62h11.4v3.78h-11.4v-3.78ZM553.69,119.38h12.8v3.84h-12.8v-3.84Z"/>
              <path class="cls-4" d="M623.09,104.25c-.39.66-.81,1.52-1.28,2.59-.47,1.07-.85,1.95-1.16,2.65-.7,1.94-1.57,4.04-2.62,6.31-1.05,2.27-2.23,4.55-3.55,6.84-1.32,2.29-2.77,4.48-4.36,6.57-1.78,2.37-3.81,4.74-6.08,7.13-2.27,2.38-4.86,4.72-7.77,7.01-2.91,2.29-6.25,4.48-10.01,6.57l-6.52-5.88c5.31-2.56,9.89-5.46,13.73-8.7,3.84-3.24,7.27-6.87,10.3-10.91,2.37-2.99,4.26-5.98,5.67-8.99,1.42-3,2.61-5.96,3.58-8.87.31-.78.59-1.68.84-2.71.25-1.03.44-1.91.55-2.65l8.67,3.03ZM591.09,109.9c1.47.89,3.03,1.89,4.68,3,1.65,1.11,3.32,2.24,5,3.4,1.69,1.16,3.3,2.31,4.83,3.43,1.53,1.12,2.92,2.15,4.16,3.08,3.1,2.44,6.13,4.98,9.08,7.62,2.95,2.64,5.6,5.22,7.97,7.74l-5.99,6.63c-2.56-2.95-5.16-5.67-7.8-8.17-2.64-2.5-5.49-5.03-8.55-7.59-1.05-.89-2.25-1.86-3.61-2.91-1.36-1.05-2.82-2.15-4.39-3.32-1.57-1.16-3.23-2.34-4.97-3.52-1.75-1.18-3.53-2.34-5.35-3.46l4.94-5.93Z"/>
              <path class="cls-4" d="M645.55,102.33c-.04.7-.08,1.39-.12,2.07-.04.68-.06,1.48-.06,2.41v19.67c0,.74.02,1.59.06,2.56.04.97.08,1.8.12,2.5h-8.44c.04-.54.1-1.32.17-2.33.08-1.01.12-1.94.12-2.79v-19.61c0-.54-.02-1.25-.06-2.12-.04-.87-.1-1.66-.17-2.36h8.38ZM672.55,101.87c-.04.81-.09,1.7-.15,2.65-.06.95-.09,2.01-.09,3.17v11.52c0,3.1-.15,5.82-.44,8.14-.29,2.33-.73,4.36-1.31,6.11-.58,1.75-1.29,3.29-2.12,4.62-.83,1.34-1.79,2.61-2.88,3.81-1.28,1.4-2.75,2.65-4.42,3.75-1.67,1.11-3.35,2.04-5.03,2.79-1.69.76-3.25,1.37-4.68,1.83l-6.11-6.4c2.91-.66,5.54-1.58,7.88-2.76,2.35-1.18,4.39-2.71,6.14-4.57,1.01-1.12,1.82-2.25,2.44-3.37.62-1.12,1.1-2.38,1.43-3.75.33-1.38.56-2.94.7-4.68.14-1.75.2-3.74.2-5.99v-11.05c0-1.16-.03-2.22-.09-3.17-.06-.95-.15-1.83-.26-2.65h8.79Z"/>
              <path class="cls-4" d="M690,115.54c.39.74.82,1.69,1.31,2.85.48,1.16.98,2.38,1.48,3.67.5,1.28,1,2.52,1.48,3.72.48,1.2.86,2.21,1.13,3.03l-7.1,2.68c-.23-.78-.57-1.78-1.02-3.03-.45-1.24-.94-2.55-1.48-3.93-.54-1.38-1.06-2.65-1.54-3.81-.49-1.16-.9-2.06-1.25-2.68l6.98-2.5ZM724.96,116.71c-.31.93-.57,1.73-.79,2.39-.21.66-.42,1.28-.61,1.86-.74,2.95-1.75,5.89-3.02,8.81-1.28,2.93-2.91,5.67-4.89,8.23-2.71,3.49-5.79,6.45-9.22,8.87s-6.86,4.28-10.27,5.56l-6.11-6.23c2.13-.58,4.38-1.44,6.75-2.59,2.37-1.14,4.65-2.53,6.87-4.16,2.21-1.63,4.11-3.43,5.7-5.41,1.32-1.67,2.49-3.58,3.52-5.73,1.03-2.15,1.88-4.46,2.56-6.92.68-2.46,1.13-4.9,1.37-7.3l8.14,2.62ZM703.5,112.46c.27.62.63,1.5,1.08,2.65.45,1.14.92,2.37,1.43,3.67.5,1.3.95,2.53,1.34,3.69.39,1.16.7,2.08.93,2.73l-6.98,2.44c-.16-.74-.43-1.67-.81-2.79-.39-1.12-.81-2.32-1.28-3.58s-.93-2.47-1.4-3.64c-.47-1.16-.87-2.13-1.22-2.91l6.92-2.27Z"/>
              <path class="cls-4" d="M740.38,141.43v-33.45c0-1.01-.05-2.17-.15-3.49-.1-1.32-.24-2.48-.44-3.49h9.08c-.12,1.01-.23,2.12-.35,3.35-.12,1.22-.17,2.43-.17,3.64v33.45c0,.54.02,1.31.06,2.3.04.99.12,2.01.23,3.05.12,1.05.19,1.98.23,2.79h-9.08c.15-1.16.29-2.52.41-4.07s.17-2.91.17-4.07ZM746.61,116.07c1.94.5,4.11,1.15,6.52,1.95,2.4.8,4.83,1.64,7.27,2.53,2.44.89,4.74,1.77,6.89,2.65,2.15.87,3.95,1.68,5.38,2.41l-3.32,8.03c-1.63-.85-3.43-1.72-5.41-2.59-1.98-.87-3.99-1.72-6.02-2.53s-4.03-1.57-5.99-2.27c-1.96-.7-3.73-1.32-5.32-1.86v-8.32Z"/>
              <path class="cls-4" d="M791.7,147.54c-1.47,0-2.7-.49-3.67-1.45-.97-.97-1.46-2.19-1.46-3.67s.48-2.75,1.46-3.72c.97-.97,2.19-1.46,3.67-1.46s2.7.49,3.67,1.46,1.46,2.21,1.46,3.72-.49,2.7-1.46,3.67c-.97.97-2.19,1.45-3.67,1.45ZM788.73,132.06l-1.57-19.9-.29-8.67h9.66l-.29,8.67-1.57,19.9h-5.93Z"/>
            </g>
            <g>
              <path class="cls-4" d="M113.23,139.82l3.38.62c-.18,1.64-.46,3.26-.82,4.85-.36,1.6-.79,2.94-1.26,4.03-.23-.16-.54-.34-.92-.53-.39-.19-.78-.38-1.18-.56-.4-.18-.75-.32-1.04-.41.5-1.03.9-2.25,1.2-3.67.3-1.42.51-2.87.65-4.32ZM111.76,127.85l1.95-2.8c.59.5,1.21,1.07,1.85,1.69.64.63,1.22,1.25,1.76,1.86.54.62.94,1.19,1.21,1.71l-2.08,3.18c-.27-.52-.67-1.12-1.18-1.79s-1.08-1.34-1.69-2.02-1.22-1.28-1.81-1.83ZM111.76,134.79c1.57-.04,3.47-.11,5.69-.21,2.22-.09,4.48-.19,6.78-.31l-.03,3.25c-2.14.16-4.27.31-6.39.46s-4.02.27-5.71.36l-.34-3.55ZM117.02,119.75l3.62,1.26c-.46.89-.93,1.79-1.44,2.72-.5.92-.99,1.81-1.47,2.67s-.95,1.6-1.4,2.24l-2.77-1.13c.41-.71.83-1.51,1.26-2.41.43-.9.84-1.82,1.23-2.75.39-.93.71-1.8.96-2.6ZM121.12,123.82l3.49,1.44c-.84,1.3-1.75,2.66-2.73,4.08-.98,1.42-1.97,2.79-2.97,4.08-1,1.3-1.94,2.44-2.8,3.42l-2.5-1.26c.66-.77,1.33-1.65,2.02-2.63.68-.98,1.36-1.99,2.03-3.04.67-1.05,1.31-2.1,1.91-3.16.6-1.06,1.12-2.03,1.56-2.92ZM117.19,136.6h3.62v15.24h-3.62v-15.24ZM120.3,132.06l2.91-1.26c.46.75.9,1.56,1.33,2.43.43.87.81,1.71,1.13,2.55.32.83.56,1.58.72,2.24l-3.14,1.44c-.14-.64-.35-1.38-.65-2.24-.3-.85-.64-1.73-1.04-2.63-.4-.9-.81-1.74-1.25-2.51ZM120.88,140.6l3.01-.99c.48,1.03.92,2.14,1.33,3.35.41,1.21.71,2.26.89,3.14l-3.18,1.16c-.16-.91-.43-1.99-.82-3.23-.39-1.24-.8-2.39-1.23-3.44ZM129.08,119.69l4.24.96c-.48,1.69-1.05,3.34-1.73,4.97-.67,1.63-1.41,3.15-2.2,4.56-.8,1.41-1.63,2.64-2.5,3.69-.27-.25-.63-.54-1.06-.85-.43-.32-.89-.63-1.37-.92-.48-.3-.89-.54-1.23-.72.89-.91,1.7-1.99,2.43-3.23.73-1.24,1.38-2.59,1.97-4.03s1.06-2.92,1.45-4.43ZM127.72,135.2l3.32-1.64c.59.78,1.18,1.62,1.78,2.55.59.92,1.13,1.83,1.61,2.73s.83,1.71,1.06,2.44l-3.55,1.85c-.21-.71-.53-1.52-.97-2.44s-.95-1.86-1.5-2.82c-.56-.96-1.13-1.85-1.73-2.67ZM128.88,125.53h12.27v3.9h-12.27v-3.9ZM139.37,125.53h3.96v1.2c0,.3-.01.54-.03.72-.11,3.76-.23,6.96-.36,9.59-.13,2.63-.28,4.8-.46,6.51-.18,1.71-.39,3.05-.63,4.03-.24.98-.54,1.7-.91,2.15-.48.66-.97,1.12-1.49,1.37-.51.25-1.13.43-1.86.55-.62.09-1.41.14-2.38.14s-1.97-.01-2.99-.03c-.02-.59-.16-1.28-.41-2.07-.25-.79-.57-1.47-.96-2.07,1.09.09,2.1.15,3.01.17.91.02,1.58.03,2.02.03.36,0,.65-.04.87-.14.22-.09.43-.24.63-.44.27-.3.51-.9.72-1.81.21-.91.38-2.19.53-3.84.15-1.65.28-3.73.41-6.24.12-2.51.23-5.5.32-8.99v-.82Z"/>
              <g>
                <path class="cls-4" d="M344.59,113.91h31.67v4.81h-26.82v30.54h-4.85v-35.34ZM347.22,128.94h29.12v4.77h-29.12v-4.77ZM359.01,116.54h4.85v14.78h-4.85v-14.78ZM373.96,113.91h4.89v29.69c0,1.29-.16,2.31-.48,3.05-.32.74-.9,1.31-1.74,1.72-.83.4-1.88.65-3.13.75-1.25.09-2.78.14-4.58.14-.08-.46-.22-.98-.4-1.58-.19-.59-.4-1.18-.65-1.76s-.48-1.08-.73-1.51c.78.05,1.57.09,2.36.1.79.01,1.5.02,2.12.02h1.29c.38-.03.65-.11.81-.26.16-.15.24-.4.24-.75v-29.61Z"/>
                <path class="cls-4" d="M394.15,111.85l5.25,1.54c-1,2.34-2.19,4.6-3.58,6.79-1.39,2.18-2.88,4.19-4.48,6.02-1.6,1.83-3.27,3.42-4.99,4.77-.3-.35-.7-.77-1.21-1.27-.51-.5-1.03-.99-1.56-1.47-.52-.48-.99-.88-1.39-1.17,1.67-1.13,3.27-2.48,4.79-4.06,1.52-1.58,2.9-3.31,4.14-5.21,1.24-1.9,2.25-3.87,3.03-5.92ZM396.82,127.57h5.29c-.19,2.26-.5,4.47-.93,6.62-.43,2.15-1.14,4.19-2.12,6.1s-2.4,3.66-4.24,5.23c-1.84,1.58-4.28,2.92-7.29,4.02-.19-.46-.46-.96-.81-1.5-.35-.54-.73-1.07-1.13-1.59-.4-.53-.81-.98-1.21-1.35,2.72-.86,4.87-1.93,6.46-3.21,1.59-1.28,2.79-2.68,3.59-4.2.81-1.52,1.37-3.14,1.68-4.87.31-1.72.55-3.47.71-5.25ZM389.63,126.19h21.85v4.69h-21.85v-4.69ZM409.87,126.19h5.09v1.27c0,.34-.01.61-.04.83-.11,3.04-.23,5.66-.36,7.86-.13,2.2-.29,4.02-.46,5.47-.18,1.45-.38,2.61-.63,3.47-.24.86-.54,1.51-.89,1.94-.54.65-1.1,1.1-1.68,1.37-.58.27-1.26.46-2.04.57-.67.11-1.56.17-2.67.18-1.1.01-2.26,0-3.47-.06-.03-.73-.19-1.56-.48-2.48-.3-.93-.66-1.73-1.09-2.4,1.13.08,2.18.13,3.15.16.97.03,1.7.04,2.18.04.38,0,.69-.03.93-.1.24-.07.48-.22.73-.46.32-.35.59-1.12.79-2.32.2-1.2.38-2.97.55-5.33.16-2.36.3-5.41.4-9.15v-.85ZM409.54,111.77c.65,1.29,1.43,2.61,2.34,3.96s1.92,2.66,3.01,3.94c1.09,1.28,2.21,2.48,3.35,3.62,1.14,1.13,2.27,2.11,3.37,2.95-.43.32-.91.75-1.43,1.27-.53.53-1.02,1.06-1.49,1.6-.47.54-.87,1.04-1.19,1.49-1.13-1.05-2.28-2.23-3.43-3.53-1.16-1.31-2.3-2.69-3.41-4.16-1.12-1.47-2.17-2.99-3.17-4.56-1-1.58-1.9-3.13-2.71-4.67l4.77-1.9Z"/>
              </g>
              <g>
                <path class="cls-4" d="M152.17,86.3c0-2.37.08-4.4.25-6.08.16-1.68.45-3.13.86-4.36.41-1.23.88-2.33,1.41-3.31.53-.98,1.21-2,2.02-3.07,1.64-2.13,3.68-3.78,6.14-4.97,2.45-1.18,5.11-1.78,7.98-1.78s5.52.59,7.98,1.78c2.45,1.19,4.5,2.84,6.14,4.97.82,1.06,1.51,2.09,2.09,3.07.57.98,1.06,2.09,1.47,3.31.41,1.23.67,2.68.8,4.36.12,1.68.18,3.7.18,6.08,0,2.62-.04,4.83-.12,6.63-.08,1.8-.33,3.4-.74,4.79-.41,1.39-1.04,2.64-1.9,3.74-.86,1.1-2.02,2.27-3.5,3.5,1.47,1.15,2.64,2.29,3.5,3.44.86,1.15,1.49,2.5,1.9,4.05.41,1.55.65,3.46.74,5.71.08,2.25.12,5.01.12,8.28,0,2.7-.06,4.93-.18,6.69-.12,1.76-.31,3.29-.55,4.6-.25,1.31-.59,2.41-1.04,3.31-.45.9-1,1.84-1.66,2.82-1.39,2.13-3.36,3.95-5.89,5.46-2.54,1.51-5.65,2.27-9.33,2.27s-6.79-.76-9.33-2.27c-2.54-1.51-4.5-3.33-5.89-5.46-.66-.98-1.21-1.92-1.66-2.82-.45-.9-.8-2-1.04-3.31-.25-1.31-.43-2.84-.55-4.6-.12-1.76-.18-3.99-.18-6.69,0-3.27.04-6.03.12-8.28.08-2.25.33-4.15.74-5.71.41-1.55,1.04-2.9,1.9-4.05.86-1.14,2.03-2.29,3.5-3.44-1.47-1.23-2.64-2.39-3.5-3.5-.86-1.1-1.49-2.35-1.9-3.74-.41-1.39-.66-2.99-.74-4.79-.08-1.8-.12-4.01-.12-6.63ZM176.96,81.4c0-1.72-.61-3.17-1.84-4.36-1.23-1.18-2.66-1.78-4.3-1.78s-3.07.59-4.3,1.78c-1.23,1.19-1.84,2.64-1.84,4.36v12.76c0,1.72.61,3.17,1.84,4.36,1.23,1.19,2.66,1.78,4.3,1.78s3.07-.59,4.3-1.78c1.23-1.19,1.84-2.64,1.84-4.36v-12.76ZM176.96,115.76c0-1.72-.61-3.17-1.84-4.36-1.23-1.18-2.66-1.78-4.3-1.78s-3.07.59-4.3,1.78c-1.23,1.19-1.84,2.64-1.84,4.36v17.18c0,1.72.61,3.17,1.84,4.36,1.23,1.19,2.66,1.78,4.3,1.78s3.07-.59,4.3-1.78c1.23-1.19,1.84-2.64,1.84-4.36v-17.18Z"/>
                <path class="cls-4" d="M196.35,159.94v-21.6h12.52v12.52l-12.52,9.08Z"/>
                <path class="cls-4" d="M215.74,81.52c0-2.95.51-5.56,1.53-7.85,1.02-2.29,2.39-4.25,4.11-5.89,1.72-1.64,3.7-2.88,5.95-3.74,2.25-.86,4.6-1.29,7.06-1.29s4.81.43,7.06,1.29c2.25.86,4.23,2.11,5.95,3.74,1.72,1.64,3.09,3.6,4.11,5.89,1.02,2.29,1.53,4.91,1.53,7.85v51.3c0,2.95-.51,5.56-1.53,7.85-1.02,2.29-2.39,4.25-4.11,5.89-1.72,1.64-3.7,2.88-5.95,3.74-2.25.86-4.6,1.29-7.06,1.29s-4.81-.43-7.06-1.29c-2.25-.86-4.23-2.11-5.95-3.74-1.72-1.64-3.09-3.6-4.11-5.89-1.02-2.29-1.53-4.91-1.53-7.85v-51.3ZM228.26,132.82c0,1.8.57,3.29,1.72,4.48,1.14,1.19,2.62,1.78,4.42,1.78s3.27-.59,4.42-1.78c1.14-1.19,1.72-2.68,1.72-4.48v-51.3c0-1.8-.57-3.29-1.72-4.48-1.15-1.18-2.62-1.78-4.42-1.78s-3.27.59-4.42,1.78c-1.15,1.19-1.72,2.68-1.72,4.48v51.3Z"/>
                <path class="cls-4" d="M258.94,81.52c0-2.95.51-5.56,1.53-7.85,1.02-2.29,2.39-4.25,4.11-5.89,1.72-1.64,3.7-2.88,5.95-3.74,2.25-.86,4.6-1.29,7.06-1.29s4.81.43,7.06,1.29c2.25.86,4.23,2.11,5.95,3.74,1.72,1.64,3.09,3.6,4.11,5.89,1.02,2.29,1.53,4.91,1.53,7.85v51.3c0,2.95-.51,5.56-1.53,7.85-1.02,2.29-2.39,4.25-4.11,5.89-1.72,1.64-3.7,2.88-5.95,3.74-2.25.86-4.6,1.29-7.06,1.29s-4.81-.43-7.06-1.29c-2.25-.86-4.23-2.11-5.95-3.74-1.72-1.64-3.09-3.6-4.11-5.89-1.02-2.29-1.53-4.91-1.53-7.85v-51.3ZM271.46,132.82c0,1.8.57,3.29,1.72,4.48,1.14,1.19,2.62,1.78,4.42,1.78s3.27-.59,4.42-1.78c1.14-1.19,1.72-2.68,1.72-4.48v-51.3c0-1.8-.57-3.29-1.72-4.48-1.15-1.18-2.62-1.78-4.42-1.78s-3.27.59-4.42,1.78c-1.15,1.19-1.72,2.68-1.72,4.48v51.3Z"/>
                <path class="cls-4" d="M302.14,81.52c0-2.95.51-5.56,1.53-7.85,1.02-2.29,2.39-4.25,4.11-5.89,1.72-1.64,3.7-2.88,5.95-3.74,2.25-.86,4.6-1.29,7.06-1.29s4.81.43,7.06,1.29c2.25.86,4.23,2.11,5.95,3.74,1.72,1.64,3.09,3.6,4.11,5.89,1.02,2.29,1.53,4.91,1.53,7.85v51.3c0,2.95-.51,5.56-1.53,7.85-1.02,2.29-2.39,4.25-4.11,5.89-1.72,1.64-3.7,2.88-5.95,3.74-2.25.86-4.6,1.29-7.06,1.29s-4.81-.43-7.06-1.29c-2.25-.86-4.23-2.11-5.95-3.74-1.72-1.64-3.09-3.6-4.11-5.89-1.02-2.29-1.53-4.91-1.53-7.85v-51.3ZM314.66,132.82c0,1.8.57,3.29,1.72,4.48,1.14,1.19,2.62,1.78,4.42,1.78s3.27-.59,4.42-1.78c1.14-1.19,1.72-2.68,1.72-4.48v-51.3c0-1.8-.57-3.29-1.72-4.48-1.15-1.18-2.62-1.78-4.42-1.78s-3.27.59-4.42,1.78c-1.15,1.19-1.72,2.68-1.72,4.48v51.3Z"/>
              </g>
            </g>
            <g>
              <polygon class="cls-4" points="0 152.97 85.76 152.97 106.43 107.88 85.76 62.79 0 62.79 0 152.97"/>
              <g>
                <path class="cls-3" d="M21.61,83.22c-.09.38-.21.88-.37,1.5s-.33,1.26-.52,1.93c-.19.67-.4,1.34-.61,2-.34,1.1-.78,2.28-1.33,3.52-.55,1.24-1.15,2.45-1.79,3.63s-1.3,2.23-1.96,3.15l-2.78-1.43c.52-.64,1.03-1.36,1.54-2.14.51-.78.98-1.59,1.43-2.42s.85-1.63,1.21-2.4.65-1.48.86-2.11c.29-.81.55-1.72.77-2.72.22-1,.35-1.95.38-2.84l3.17.32ZM12.66,86.67c.49.06,1.02.1,1.58.13s1.05.03,1.48.03c.95,0,1.91-.05,2.89-.16.97-.11,1.91-.25,2.82-.42.9-.18,1.73-.38,2.46-.61l.09,2.67c-.66.17-1.45.34-2.36.52-.91.18-1.87.32-2.89.44-1.01.12-2.01.17-2.99.17-.46,0-.93,0-1.4-.02-.48-.01-.97-.04-1.47-.07l-.21-2.67ZM26.99,90.37c-.03.49-.04.98-.03,1.46,0,.48.02.98.03,1.48.02.35.03.8.06,1.35s.05,1.12.08,1.72c.03.61.06,1.18.08,1.73.02.54.03.98.03,1.3,0,.71-.15,1.35-.44,1.92-.29.58-.76,1.03-1.39,1.37-.64.34-1.51.51-2.61.51-.95,0-1.81-.14-2.58-.42-.77-.28-1.38-.71-1.84-1.27-.46-.56-.69-1.26-.69-2.1,0-.75.2-1.43.6-2.04.4-.61.98-1.08,1.74-1.43.76-.35,1.68-.52,2.75-.52,1.35,0,2.59.19,3.73.56s2.15.85,3.06,1.44,1.68,1.17,2.32,1.75l-1.54,2.46c-.41-.37-.89-.78-1.41-1.24-.53-.46-1.12-.89-1.77-1.29-.65-.4-1.36-.73-2.12-.99-.76-.26-1.58-.39-2.45-.39-.66,0-1.19.13-1.59.39-.4.26-.6.6-.6,1.01s.17.77.52,1.03c.34.26.83.39,1.46.39.52,0,.94-.09,1.24-.26.31-.18.52-.43.64-.76.12-.33.18-.7.18-1.12,0-.35-.02-.85-.05-1.5-.03-.64-.07-1.36-.1-2.14-.04-.78-.07-1.56-.1-2.35-.03-.78-.06-1.47-.09-2.07h2.88ZM30.95,91.59c-.44-.37-1-.76-1.66-1.17-.66-.41-1.34-.81-2.04-1.18-.7-.38-1.31-.68-1.83-.91l1.47-2.28c.41.18.89.41,1.41.68.53.27,1.07.55,1.61.84.54.29,1.05.58,1.52.86.47.28.85.53,1.14.75l-1.63,2.42Z"/>
                <path class="cls-3" d="M46.17,84.64c-.11.15-.23.33-.36.52-.13.19-.26.38-.38.56-.28.41-.58.89-.91,1.44-.33.54-.67,1.12-1.02,1.72-.35.61-.69,1.21-1.02,1.81-.33.6-.64,1.15-.93,1.66.43-.25.87-.42,1.31-.53.44-.11.89-.16,1.33-.16.86,0,1.54.26,2.04.77.5.51.77,1.25.82,2.22.02.34.02.74.02,1.22s0,.95.01,1.43c0,.48.03.87.06,1.2.05.45.21.76.49.96.28.19.62.29,1,.29.49,0,.94-.15,1.35-.44.41-.29.77-.69,1.09-1.21.32-.51.6-1.1.84-1.75.24-.65.44-1.33.61-2.04l2.48,2.02c-.4,1.3-.9,2.45-1.52,3.44-.61.99-1.36,1.76-2.24,2.3-.88.54-1.91.82-3.09.82-.84,0-1.55-.15-2.12-.45-.57-.3-.99-.69-1.26-1.17-.28-.48-.43-1.01-.46-1.58-.03-.41-.05-.87-.06-1.38,0-.51-.02-1-.02-1.48,0-.48-.03-.88-.06-1.18-.03-.4-.16-.71-.39-.94-.23-.23-.55-.34-.97-.34-.51,0-.99.16-1.45.48-.46.32-.88.74-1.25,1.27-.38.52-.7,1.1-.98,1.72-.15.34-.31.74-.48,1.2-.17.46-.33.94-.48,1.43-.15.49-.3.95-.44,1.39-.14.44-.25.81-.35,1.12l-3.24-1.1c.29-.77.65-1.64,1.07-2.63.42-.99.89-2.03,1.39-3.12.51-1.09,1.02-2.17,1.54-3.24.52-1.07,1.02-2.09,1.49-3.05.48-.96.9-1.79,1.28-2.51.38-.71.66-1.25.86-1.62.15-.31.33-.65.53-1.04.2-.38.4-.82.6-1.31l3.27,1.31Z"/>
                <path class="cls-3" d="M73.66,88.32c-.34.21-.69.42-1.07.62-.38.2-.78.41-1.21.62-.35.18-.79.4-1.3.64-.51.25-1.07.52-1.66.82-.59.3-1.18.61-1.78.94-.6.33-1.16.66-1.68,1-.95.63-1.72,1.28-2.31,1.96s-.89,1.42-.89,2.23.4,1.44,1.2,1.88c.8.44,1.99.66,3.59.66.8,0,1.64-.03,2.54-.1.9-.07,1.78-.17,2.66-.3.87-.13,1.65-.28,2.32-.45l-.05,3.31c-.64.11-1.35.21-2.1.3-.76.09-1.58.16-2.46.21s-1.82.07-2.82.07c-1.15,0-2.21-.09-3.19-.26-.97-.18-1.82-.46-2.55-.86-.73-.4-1.3-.94-1.7-1.61-.41-.67-.61-1.5-.61-2.48s.21-1.87.64-2.67c.43-.8,1.02-1.53,1.76-2.21.74-.67,1.56-1.31,2.45-1.91.55-.37,1.13-.72,1.75-1.07.61-.34,1.22-.68,1.81-1s1.14-.62,1.66-.89c.51-.27.94-.5,1.28-.7.44-.26.84-.5,1.17-.71.34-.21.66-.45.97-.69l1.59,2.67ZM62.1,83.4c.38,1.01.79,1.99,1.21,2.92.42.94.84,1.81,1.27,2.62.42.81.81,1.54,1.16,2.19l-2.6,1.54c-.41-.71-.84-1.5-1.29-2.37s-.89-1.8-1.33-2.77-.87-1.96-1.29-2.96l2.88-1.17Z"/>
                <path class="cls-3" d="M83.61,101.94c-.58,0-1.07-.19-1.45-.58s-.57-.87-.57-1.45.19-1.09.57-1.47c.38-.38.87-.58,1.45-.58s1.07.19,1.45.58c.38.38.57.87.57,1.47s-.19,1.07-.57,1.45c-.38.38-.87.58-1.45.58ZM82.43,95.82l-.62-7.87-.12-3.43h3.82l-.12,3.43-.62,7.87h-2.35Z"/>
                <path class="cls-3" d="M15.23,135.73v-3.17h4.23v-12.33h-3.57v-2.43c.99-.18,1.84-.39,2.55-.65.71-.26,1.38-.59,1.99-.99h2.88v16.4h3.67v3.17h-11.75Z"/>
                <path class="cls-3" d="M44.94,119.94c-.12.3-.24.57-.34.82-.11.25-.19.49-.26.74-.14.39-.33.84-.55,1.37-.23.53-.46,1.04-.7,1.53s-.45.91-.65,1.24c-.32.58-.71,1.2-1.18,1.86-.47.66-.95,1.28-1.44,1.85-.49.57-.94,1.04-1.35,1.41l-3.09-1.8c.58-.44,1.11-.92,1.6-1.43s.93-1.03,1.35-1.56c.41-.53.77-1.03,1.07-1.5.37-.58.67-1.16.91-1.73.24-.57.43-1.12.57-1.65.09-.32.17-.65.24-1,.07-.35.11-.66.13-.92l3.7.77ZM50.15,124.99c-.07,2.08-.37,3.95-.88,5.62s-1.27,3.15-2.24,4.42c-.98,1.28-2.22,2.37-3.74,3.29l-3.27-2.19c.37-.16.78-.37,1.23-.62.45-.25.83-.51,1.15-.78.6-.49,1.16-1.04,1.68-1.65.52-.61.98-1.3,1.37-2.09.4-.78.71-1.67.95-2.67.24-1,.38-2.11.44-3.34h3.33ZM41.64,123.19h11.65c.3,0,.68,0,1.14-.03.46-.02.86-.05,1.21-.11v3.22c-.42-.04-.85-.06-1.29-.07-.44,0-.79-.01-1.06-.01h-11.86l.21-3.01Z"/>
                <path class="cls-3" d="M61.2,114.55h3.27v8.74c0,1.14-.07,2.38-.2,3.7-.13,1.32-.37,2.66-.73,4.01-.35,1.36-.87,2.64-1.56,3.86-.69,1.21-1.59,2.3-2.72,3.25-.16-.23-.38-.49-.67-.79-.29-.3-.6-.59-.92-.87-.33-.28-.61-.49-.86-.63,1-.84,1.8-1.78,2.39-2.81s1.03-2.1,1.32-3.21.48-2.22.55-3.33c.08-1.11.12-2.17.12-3.2v-8.72ZM63.26,127.1h13.26v3.09h-13.26v-3.09ZM63.4,114.55h13.18v3.09h-13.18v-3.09ZM63.42,120.86h13.28v3.01h-13.28v-3.01ZM75.1,114.55h3.38v19.52c0,.95-.13,1.68-.38,2.19-.26.51-.69.9-1.31,1.16-.63.28-1.43.45-2.38.51-.95.06-2.11.09-3.49.09-.07-.32-.18-.68-.32-1.08-.14-.41-.3-.81-.48-1.21-.18-.41-.35-.75-.53-1.03.62.04,1.25.06,1.89.07s1.21.01,1.72.01h1.07c.3,0,.51-.06.63-.17.12-.11.19-.31.19-.59v-19.46Z"/>
              </g>
            </g>
          </g>
          <path class="cls-4" d="M444.58,125.97c-.23,1.73-.52,3.58-.89,5.54-.36,1.96-.85,3.94-1.47,5.95-.66,2.3-1.44,4.28-2.32,5.95-.89,1.66-1.86,2.95-2.92,3.85-1.06.9-2.22,1.35-3.47,1.35s-2.41-.43-3.47-1.28-1.9-2.03-2.53-3.54c-.63-1.5-.94-3.21-.94-5.13s.4-3.85,1.2-5.61c.8-1.75,1.91-3.31,3.33-4.67,1.42-1.36,3.09-2.42,4.99-3.2,1.9-.77,3.96-1.16,6.17-1.16s4.03.34,5.73,1.03c1.7.68,3.15,1.63,4.36,2.84,1.21,1.21,2.13,2.62,2.77,4.24.64,1.62.96,3.36.96,5.23,0,2.39-.49,4.53-1.47,6.43-.98,1.89-2.43,3.45-4.36,4.68-1.93,1.23-4.32,2.07-7.19,2.53l-2.56-4.07c.66-.07,1.24-.15,1.74-.24.5-.09.98-.19,1.44-.31,1.09-.27,2.11-.67,3.06-1.18.95-.51,1.77-1.15,2.48-1.91.71-.76,1.26-1.66,1.66-2.68.4-1.03.6-2.15.6-3.38,0-1.34-.21-2.57-.62-3.69-.41-1.12-1.01-2.09-1.81-2.92-.8-.83-1.77-1.47-2.91-1.91-1.14-.44-2.45-.67-3.93-.67-1.82,0-3.43.32-4.82.97-1.39.65-2.56,1.49-3.52,2.51s-1.68,2.13-2.17,3.32c-.49,1.19-.73,2.31-.73,3.38,0,1.14.14,2.09.41,2.85.27.76.61,1.33,1.01,1.71.4.38.83.56,1.28.56.48,0,.95-.24,1.42-.73.47-.49.93-1.24,1.38-2.24.46-1,.91-2.27,1.37-3.79.52-1.64.97-3.4,1.33-5.26.36-1.87.63-3.69.79-5.47l4.65.14Z"/>
        </g>
        <path class="cls-2" d="M352.03,90.69l4.62-4.62.41.41-4.62,4.62,4.62,4.62-.41.41-4.62-4.62-4.63,4.63-.41-.41,4.63-4.63-4.62-4.62.41-.41,4.62,4.62ZM349.09,91.1c0,.29-.1.54-.31.74-.21.21-.45.31-.74.31s-.54-.1-.74-.31c-.21-.21-.31-.45-.31-.74s.1-.54.31-.74c.21-.21.45-.31.74-.31s.54.1.74.31c.21.21.31.45.31.74ZM352.03,88.16c-.29,0-.54-.1-.74-.31s-.31-.45-.31-.74.1-.54.31-.74c.21-.21.45-.31.74-.31s.54.1.74.31c.21.21.31.45.31.74s-.1.54-.31.74c-.21.21-.45.31-.74.31ZM352.03,94.04c.29,0,.54.1.74.31.21.21.31.45.31.74s-.1.54-.31.74c-.21.21-.45.31-.74.31s-.54-.1-.74-.31-.31-.45-.31-.74.1-.54.31-.74c.21-.21.45-.31.74-.31ZM354.97,91.1c0-.29.1-.54.31-.74.21-.21.45-.31.74-.31s.54.1.74.31c.21.21.31.45.31.74s-.1.54-.31.74c-.21.21-.45.31-.74.31s-.54-.1-.74-.31c-.21-.21-.31-.45-.31-.74Z"/>
      </g>
    </g>
  </g>
</svg>