<svg id="レイヤー_1" data-name="レイヤー 1" xmlns="http://www.w3.org/2000/svg" viewBox="0 0 636.691 96.547"><defs><style>.cls-1{fill:#1a1a1a;}.cls-2{fill:#fff;}.cls-3{fill:#ffd900;}</style></defs><path class="cls-1" d="M23.721,73.515A33.182,33.182,0,0,0,34.556,79.6a21.672,21.672,0,0,0-3.743,4.572,34.391,34.391,0,0,1-10.979-7.848v8.1H14.362V76.538A32.8,32.8,0,0,1,3.6,84.1,24.615,24.615,0,0,0,0,79.706a32.746,32.746,0,0,0,10.619-6.191H4.1V59.333H14.362V57.821H1.152V52.962h13.21V50.226h5.472v2.736H33.4v4.859H19.834v1.512H30.561V73.515ZM9.215,64.624h5.147V63.185H9.215Zm0,5.039h5.147V68.188H9.215Zm10.619-6.478v1.439H25.2V63.185Zm5.363,5H19.834v1.475H25.2Z"/><path class="cls-1" d="M52.378,79.634c-.468-.575-1.115-1.3-1.8-2.052v6.8H45.5V78.41a23.471,23.471,0,0,1-3.707,4A22.066,22.066,0,0,0,38.412,78.7a22.219,22.219,0,0,0,6.119-6.3h-5V68.044H45.5v-2.2H39.42V61.6h2.916a15.059,15.059,0,0,0-.9-3.241l1.908-.467H39.852V53.682H45.5v-3.06h5.075v3.06h5.651v4.211H53.314l1.548.288c-.612,1.332-1.08,2.519-1.511,3.42h3.095v4.247H50.578v2.2h5.508V72.4H50.578v.036c1.3.828,4.032,2.916,4.788,3.492ZM45.647,57.893a13.256,13.256,0,0,1,.972,3.275l-1.584.433H51.19l-2.159-.433c.36-.936.791-2.2,1.079-3.275Zm16.7,4.1h10.8v4.823H70.088V84.241H65.013V66.819H62.349c-.108,5.328-1.043,12.851-5.507,17.638A11.824,11.824,0,0,0,53.1,80.894c3.922-4.356,4.283-10.475,4.283-15.334V53l2.844.792a41.2,41.2,0,0,0,8.747-3.2l4.174,3.779a54.666,54.666,0,0,1-10.8,3.348Z"/><path class="cls-1" d="M90.538,51.882a62.762,62.762,0,0,1-3.2,6.7V84.313H82.367V66.063A30.772,30.772,0,0,1,79.92,68.8a32.955,32.955,0,0,0-2.664-5.436A36.9,36.9,0,0,0,85.679,50.3Zm21.67,26.492v4.968H88.847V78.374h9.142V72.291H90.754V67.359h7.235V62.032H89.6V57.065h8.926c-1.62-1.116-3.455-2.3-5-3.168l3.455-3.743A49.653,49.653,0,0,1,105.3,55.3l-1.584,1.764h7.955v4.967h-8.352v5.327H110.7v4.932h-7.379v6.083Z"/><path class="cls-1" d="M128.447,62.752a52.569,52.569,0,0,1-2.34,13.066c3.312,2.3,7.595,2.772,12.491,2.808,2.555,0,9.646,0,12.706-.144a18.2,18.2,0,0,0-1.98,5.112H138.453c-5.8,0-10.582-.649-14.4-3.24A14.127,14.127,0,0,1,120.42,84.6,19.081,19.081,0,0,0,116.5,81.11a12.693,12.693,0,0,0,3.852-4.391,24.985,24.985,0,0,1-3.419-7.02L121,68.3a19.031,19.031,0,0,0,1.367,3.2,39.955,39.955,0,0,0,.865-4.751h-1.44l-.36.827-4.716-1.187c1.4-3.06,2.988-6.7,4.248-9.791h-4.1V52.062h6.335l.756-.18,3.564.935c-1.044,2.844-2.376,6.192-3.743,9.4h.755l.864-.108Zm7.271-6.659H129.49V52.205h6.228V50.514h5.075v1.691h7.271v4.716h2.7v3.96h-2.7V65.6h-7.271v.971h7.523v3.708h-7.523v.972h9.179v4.067h-9.179v2.413h-5.075V75.314h-8.135V71.247h8.135v-.972h-6.551V66.567h6.551V65.6h-6.371V61.708h6.371v-.827h-8.639v-3.96h8.639Zm5.075,0v.828h2.124v-.828Zm2.124,4.788h-2.124v.827h2.124Z"/><path class="cls-1" d="M168.8,53.394a45.269,45.269,0,0,1-3.456,5.218c1.62,3.672,1.944,7.524,1.944,11.591,0,4.86-.433,9.719-2.2,12.059a4.307,4.307,0,0,1-2.375,1.584,16.571,16.571,0,0,1-4.9.359,10.223,10.223,0,0,0-1.368-4.967,22.152,22.152,0,0,0,3.779.036,1.443,1.443,0,0,0,1.117-.648c.54-.72.828-2.987.935-5.939a30.741,30.741,0,0,1-3.6,3.6,18.62,18.62,0,0,0-3.492-3.851,24.606,24.606,0,0,0,6.875-7.019,20.162,20.162,0,0,0-.467-2.556,29.493,29.493,0,0,1-2.844,2.448,21.9,21.9,0,0,0-3.6-3.455,25.371,25.371,0,0,0,4.319-3.888,18.15,18.15,0,0,0-3.958-4.283l3.634-2.772a21.149,21.149,0,0,1,3.277,3.131,31.59,31.59,0,0,0,1.727-2.951Zm16.053,31.063c-.143-.72-.36-1.583-.612-2.519-5.9.72-11.986,1.368-16.594,1.908l-.827-5.579c2.484-.181,5.579-.433,8.891-.756v-5.76h-7.056V56.669h7.056V50.334h5.255v6.335h7.271V71.751h-7.271v5.256l1.656-.145c-.433-1.223-.864-2.411-1.3-3.527l4.9-1.368A96.213,96.213,0,0,1,190.147,82.8Zm-9.142-17.134v-6.19H173.77v6.19Zm5.255-6.19v6.19h1.8v-6.19Z"/><path class="cls-1" d="M225.284,54.762V84.35h-5.579V82.658H203.687V84.35H198.4V54.762h9.287c.324-1.513.611-3.2.755-4.573l6.408.649c-.5,1.367-1.08,2.735-1.584,3.924Zm-21.6,5v2.771h16.018V59.765Zm0,7.594v2.808h16.018V67.359Zm16.018,10.475V74.99H203.687v2.844Z"/><path class="cls-1" d="M252.43,83.018l-3.312-5.184a27.587,27.587,0,0,0,3.528-.647c4.571-1.117,7.63-4.32,7.63-9.072,0-4.643-2.267-7.955-6.407-8.927a71.634,71.634,0,0,1-2.123,9.4c-2.124,7.2-5.364,12.022-9.611,12.022-4.463,0-7.847-4.824-7.847-10.979,0-8.566,7.379-15.838,16.989-15.838,9.179,0,14.975,6.336,14.975,14.507C266.252,75.891,261.788,81.434,252.43,83.018ZM242.279,73.8c1.44,0,2.52-2.2,3.816-6.371a53.426,53.426,0,0,0,1.835-8.1,10.732,10.732,0,0,0-7.991,9.719C239.939,72.183,241.019,73.8,242.279,73.8Z"/><path class="cls-2" d="M23.721,73.515A33.182,33.182,0,0,0,34.556,79.6a21.672,21.672,0,0,0-3.743,4.572,34.391,34.391,0,0,1-10.979-7.848v8.1H14.362V76.538A32.8,32.8,0,0,1,3.6,84.1,24.615,24.615,0,0,0,0,79.706a32.746,32.746,0,0,0,10.619-6.191H4.1V59.333H14.362V57.821H1.152V52.962h13.21V50.226h5.472v2.736H33.4v4.859H19.834v1.512H30.561V73.515ZM9.215,64.624h5.147V63.185H9.215Zm0,5.039h5.147V68.188H9.215Zm10.619-6.478v1.439H25.2V63.185Zm5.363,5H19.834v1.475H25.2Z"/><path class="cls-2" d="M52.378,79.634c-.468-.575-1.115-1.3-1.8-2.052v6.8H45.5V78.41a23.471,23.471,0,0,1-3.707,4A22.066,22.066,0,0,0,38.412,78.7a22.219,22.219,0,0,0,6.119-6.3h-5V68.044H45.5v-2.2H39.42V61.6h2.916a15.059,15.059,0,0,0-.9-3.241l1.908-.467H39.852V53.682H45.5v-3.06h5.075v3.06h5.651v4.211H53.314l1.548.288c-.612,1.332-1.08,2.519-1.511,3.42h3.095v4.247H50.578v2.2h5.508V72.4H50.578v.036c1.3.828,4.032,2.916,4.788,3.492ZM45.647,57.893a13.256,13.256,0,0,1,.972,3.275l-1.584.433H51.19l-2.159-.433c.36-.936.791-2.2,1.079-3.275Zm16.7,4.1h10.8v4.823H70.088V84.241H65.013V66.819H62.349c-.108,5.328-1.043,12.851-5.507,17.638A11.824,11.824,0,0,0,53.1,80.894c3.922-4.356,4.283-10.475,4.283-15.334V53l2.844.792a41.2,41.2,0,0,0,8.747-3.2l4.174,3.779a54.666,54.666,0,0,1-10.8,3.348Z"/><path class="cls-2" d="M90.538,51.882a62.762,62.762,0,0,1-3.2,6.7V84.313H82.367V66.063A30.772,30.772,0,0,1,79.92,68.8a32.955,32.955,0,0,0-2.664-5.436A36.9,36.9,0,0,0,85.679,50.3Zm21.67,26.492v4.968H88.847V78.374h9.142V72.291H90.754V67.359h7.235V62.032H89.6V57.065h8.926c-1.62-1.116-3.455-2.3-5-3.168l3.455-3.743A49.653,49.653,0,0,1,105.3,55.3l-1.584,1.764h7.955v4.967h-8.352v5.327H110.7v4.932h-7.379v6.083Z"/><path class="cls-2" d="M128.447,62.752a52.569,52.569,0,0,1-2.34,13.066c3.312,2.3,7.595,2.772,12.491,2.808,2.555,0,9.646,0,12.706-.144a18.2,18.2,0,0,0-1.98,5.112H138.453c-5.8,0-10.582-.649-14.4-3.24A14.127,14.127,0,0,1,120.42,84.6,19.081,19.081,0,0,0,116.5,81.11a12.693,12.693,0,0,0,3.852-4.391,24.985,24.985,0,0,1-3.419-7.02L121,68.3a19.031,19.031,0,0,0,1.367,3.2,39.955,39.955,0,0,0,.865-4.751h-1.44l-.36.827-4.716-1.187c1.4-3.06,2.988-6.7,4.248-9.791h-4.1V52.062h6.335l.756-.18,3.564.935c-1.044,2.844-2.376,6.192-3.743,9.4h.755l.864-.108Zm7.271-6.659H129.49V52.205h6.228V50.514h5.075v1.691h7.271v4.716h2.7v3.96h-2.7V65.6h-7.271v.971h7.523v3.708h-7.523v.972h9.179v4.067h-9.179v2.413h-5.075V75.314h-8.135V71.247h8.135v-.972h-6.551V66.567h6.551V65.6h-6.371V61.708h6.371v-.827h-8.639v-3.96h8.639Zm5.075,0v.828h2.124v-.828Zm2.124,4.788h-2.124v.827h2.124Z"/><path class="cls-2" d="M168.8,53.394a45.269,45.269,0,0,1-3.456,5.218c1.62,3.672,1.944,7.524,1.944,11.591,0,4.86-.433,9.719-2.2,12.059a4.307,4.307,0,0,1-2.375,1.584,16.571,16.571,0,0,1-4.9.359,10.223,10.223,0,0,0-1.368-4.967,22.152,22.152,0,0,0,3.779.036,1.443,1.443,0,0,0,1.117-.648c.54-.72.828-2.987.935-5.939a30.741,30.741,0,0,1-3.6,3.6,18.62,18.62,0,0,0-3.492-3.851,24.606,24.606,0,0,0,6.875-7.019,20.162,20.162,0,0,0-.467-2.556,29.493,29.493,0,0,1-2.844,2.448,21.9,21.9,0,0,0-3.6-3.455,25.371,25.371,0,0,0,4.319-3.888,18.15,18.15,0,0,0-3.958-4.283l3.634-2.772a21.149,21.149,0,0,1,3.277,3.131,31.59,31.59,0,0,0,1.727-2.951Zm16.053,31.063c-.143-.72-.36-1.583-.612-2.519-5.9.72-11.986,1.368-16.594,1.908l-.827-5.579c2.484-.181,5.579-.433,8.891-.756v-5.76h-7.056V56.669h7.056V50.334h5.255v6.335h7.271V71.751h-7.271v5.256l1.656-.145c-.433-1.223-.864-2.411-1.3-3.527l4.9-1.368A96.213,96.213,0,0,1,190.147,82.8Zm-9.142-17.134v-6.19H173.77v6.19Zm5.255-6.19v6.19h1.8v-6.19Z"/><path class="cls-2" d="M225.284,54.762V84.35h-5.579V82.658H203.687V84.35H198.4V54.762h9.287c.324-1.513.611-3.2.755-4.573l6.408.649c-.5,1.367-1.08,2.735-1.584,3.924Zm-21.6,5v2.771h16.018V59.765Zm0,7.594v2.808h16.018V67.359Zm16.018,10.475V74.99H203.687v2.844Z"/><path class="cls-2" d="M252.43,83.018l-3.312-5.184a27.587,27.587,0,0,0,3.528-.647c4.571-1.117,7.63-4.32,7.63-9.072,0-4.643-2.267-7.955-6.407-8.927a71.634,71.634,0,0,1-2.123,9.4c-2.124,7.2-5.364,12.022-9.611,12.022-4.463,0-7.847-4.824-7.847-10.979,0-8.566,7.379-15.838,16.989-15.838,9.179,0,14.975,6.336,14.975,14.507C266.252,75.891,261.788,81.434,252.43,83.018ZM242.279,73.8c1.44,0,2.52-2.2,3.816-6.371a53.426,53.426,0,0,0,1.835-8.1,10.732,10.732,0,0,0-7.991,9.719C239.939,72.183,241.019,73.8,242.279,73.8Z"/><path class="cls-3" d="M420.431,42.5a100.062,100.062,0,0,1-5.116,11.3V93.2h-7.757V65.883c-.9,1.125-1.855,2.191-2.754,3.2a55.586,55.586,0,0,0-4.272-8.6c4.834-4.89,9.5-12.648,12.2-20.406Zm34.852,16.977v7.476H417.564V59.475h7.982a41.986,41.986,0,0,0-1.911-6.633l1.968-.449h-6.127V45.084h12.816V39.912h8.376v5.172h13.491v7.309H447.02l2.7.449c-1.011,2.529-1.911,4.834-2.7,6.633ZM421.836,70.381h30.412v22.6h-8.376V91.01H429.819V93.2h-7.983Zm7.983,7.363v5.735h14.053V77.744Zm1.461-25.351a27.466,27.466,0,0,1,1.968,6.687l-1.574.4h9.162l-1.517-.282a56.645,56.645,0,0,0,2.079-6.8Z"/><path class="cls-3" d="M312.16,93.154V79.4H285.822V66.945L304.894.779h14.012l-19.85,66.166h13.1V40.609h13.233V66.945h6.357V79.4h-6.357V93.154Z"/><path class="cls-3" d="M335.772,93.154V79.92h13.233V93.154Z"/><path class="cls-3" d="M371.968,39.7q5.965,0,8.239-1.428t2.27-6.617V19.721a6.451,6.451,0,0,0-1.751-4.67,6.274,6.274,0,0,0-4.736-1.817q-3.5,0-5,2.205a7.669,7.669,0,0,0-1.492,4.282v7.525H356.27V19.592a19.244,19.244,0,0,1,1.557-7.656,18.62,18.62,0,0,1,4.281-6.227,21.293,21.293,0,0,1,6.357-4.152A19.559,19.559,0,0,1,376.25,0a17.3,17.3,0,0,1,9.017,2.141,20.813,20.813,0,0,1,5.384,4.347,28.446,28.446,0,0,1,2.27,3.114,15.212,15.212,0,0,1,1.622,3.761q1.167,4.284,1.167,12.715,0,4.8-.194,7.785a16.277,16.277,0,0,1-.973,4.93,9.846,9.846,0,0,1-2.53,3.5,29.919,29.919,0,0,1-4.476,3.115,25.191,25.191,0,0,1,4.735,3.633,10.7,10.7,0,0,1,2.4,3.891,20.177,20.177,0,0,1,.908,5.515q.127,3.178.129,8.108,0,4.543-.194,7.525a38.825,38.825,0,0,1-.584,4.93,15.4,15.4,0,0,1-1.038,3.5,21.572,21.572,0,0,1-1.686,2.984,20.98,20.98,0,0,1-6.293,6.031q-3.828,2.4-10.055,2.4a23.353,23.353,0,0,1-6.616-1.037,18.03,18.03,0,0,1-6.358-3.374,18.268,18.268,0,0,1-4.735-6.1,20.442,20.442,0,0,1-1.881-9.213V66.688H369.5v6.875a7.522,7.522,0,0,0,1.751,5.125,6.582,6.582,0,0,0,9.472,0,7.908,7.908,0,0,0,1.751-5.385V60.07q0-5.448-2.076-7.136a5.778,5.778,0,0,0-3.178-1.3,42.934,42.934,0,0,0-5.255-.26Z"/><path class="cls-3" d="M466.674,88.2c7.625-7.117,13.174-12.369,13.174-16.689,0-2.924-1.568-4.448-4.109-4.448-2.16,0-3.812,1.524-5.338,3.049l-4.108-4.066c3.092-3.262,5.973-4.871,10.462-4.871,6.1,0,10.336,3.9,10.336,9.912,0,5.125-4.787,10.59-9.531,15.5a44.41,44.41,0,0,1,5.168-.424h5.8v6.353H466.674Z"/><path class="cls-3" d="M498.339,90.447l-3.6-3.6,10.5-10.506-10.5-10.5,3.6-3.6,10.5,10.506,10.505-10.506,3.6,3.6-10.5,10.5,10.5,10.506-3.6,3.6-10.505-10.5Z"/><path class="cls-3" d="M541.345,85.365H528.087V80.111l10.971-18.34h9.318V79.6h3.474v5.761h-3.474v7.158h-7.031Zm0-5.761V75.113c0-1.99.169-5.041.254-7.031h-.169c-.8,1.779-1.653,3.516-2.542,5.338l-3.6,6.184Z"/><path class="cls-3" d="M593.143,87.566v6.227h-39.1V87.566h15.715V66.939h-13.3V60.5H590.6v6.439H576.835V87.566Z"/><path class="cls-3" d="M603.525,76.893a32.371,32.371,0,0,0-7.837-4.491l3.177-4.658a34.283,34.283,0,0,1,8.091,4.024Zm5.252,5.845c-2.033,4.448-4.362,9.022-6.735,13.215l-5.337-3.937A124.5,124.5,0,0,0,604.118,78.8Zm-2.8-17.027a32.236,32.236,0,0,0-7.793-4.787l3.388-4.533a33.247,33.247,0,0,1,8.006,4.32ZM630.8,96.547a26.226,26.226,0,0,0-1.314-3.262c-7.37.678-15.122,1.272-20.84,1.736l-.8-6.226,3.05-.127a73.015,73.015,0,0,0,3.43-10h-6.48V72.826h10.462V67.785h-8.345V61.939h8.345V56.307h6.4v5.632h8.726v5.846H624.7v5.041h10.8v5.846H621.146l.508.127c-1.27,3.3-2.711,6.693-4.109,9.572,2.839-.168,5.889-.338,8.938-.508-.932-1.439-1.906-2.881-2.88-4.15l5.336-2.838c3.093,3.77,6.482,8.768,7.752,12.453Z"/></svg>