<svg id="レイヤー_1" data-name="レイヤー 1" xmlns="http://www.w3.org/2000/svg" viewBox="0 0 310 79"><defs><style>.cls-1{fill:#505050;}.cls-2{fill:#ffd900;}</style></defs><polygon class="cls-1" points="86.507 65.577 97.233 79 99.244 64.235 86.507 65.577"/><ellipse class="cls-1" cx="155" cy="35.068" rx="155" ry="35.068"/><path class="cls-2" d="M41.4,33.337H37.931v-5.7H48.119v-.651H39.935V24.141H60.2v2.848H51.966v.651H62.371v5.7H58.74V30.19H51.966v5.371H48.119V30.19H41.4Zm16.826,12.75c1.3,0,1.571-.38,1.762-2.442a9.951,9.951,0,0,0,3.25,1.221c-.433,3.282-1.49,4.178-4.687,4.178H53.186c-4.011,0-5.2-.868-5.284-3.8H44.271v1.085H40.505V36.185H59.634v9.061H51.7c.054.732.46.841,1.87.841ZM41.751,33.446h5.636v2.061H41.751Zm5.636-.624H42.239V30.787h5.148Zm-3.116,5.94V39.6H47.9v-.841Zm0,3.907H47.9v-.814H44.271Zm11.461-3.907H51.668V39.6h4.064Zm0,3.907v-.814H51.668v.814Zm2.032-11.882v2.035H52.751V30.787Zm-5.013,2.659h5.637v2.061H52.751Z"/><path class="cls-2" d="M85.625,33.825c-.109,6.267.217,11.339,1.518,11.339.352-.027.46-1.41.487-3.553a15.848,15.848,0,0,0,2.52,2.523c-.271,3.39-.975,4.964-3.279,4.964-4.172,0-5.066-5.236-5.256-11.99h-5.23L80.071,38.3a23.556,23.556,0,0,1-2.574,3.88A28.461,28.461,0,0,1,81.48,45.3l-3.143,3.011a27.419,27.419,0,0,0-3.658-3.147,27.747,27.747,0,0,1-6.639,4.422,21.922,21.922,0,0,0-2.9-3.065,23.045,23.045,0,0,0,6.313-3.608c-1.436-.922-2.873-1.79-4.2-2.523l2.817-2.6c1.274.651,2.737,1.465,4.173,2.333A17.861,17.861,0,0,0,76.2,37.108H67.553V34.747a30.656,30.656,0,0,0-3.495-2.386,16.663,16.663,0,0,0,5.77-9.251l4.146.895a18.253,18.253,0,0,1-.569,1.736H88.958V28.97H72c-.137.271-.272.542-.435.813H86.573V32.93H70.831v-1.9a19,19,0,0,1-2.14,2.794Z"/><path class="cls-2" d="M101.808,24.71a42.088,42.088,0,0,1-2.33,4.694V48.989H95.387V35.4a30.791,30.791,0,0,1-2.358,2.522,28.379,28.379,0,0,0-2.167-4.069,28.562,28.562,0,0,0,7.18-10.389Zm7.586,10.2c.65,5.4,1.87,8.952,3.659,9.251.541.054.812-1.221.975-4.124a15.062,15.062,0,0,0,3.224,2.279c-.758,5.588-2.439,6.755-4.01,6.646-4.688-.488-6.8-5.29-7.776-13.482l-4.661.651-.568-3.8,4.877-.678c-.19-2.414-.3-5.073-.38-7.948h4.011c.026,2.631.107,5.127.27,7.406l7.532-1.031.543,3.743Zm4.146-5.235a21.2,21.2,0,0,0-3.333-4.585l2.981-1.817a21.276,21.276,0,0,1,3.55,4.394Z"/><path class="cls-2" d="M130.1,27.749c-.162.732-.325,1.492-.488,2.2.733-.054,1.355-.081,1.843-.081,3.116,0,5.175,1.465,5.175,5.534,0,3.173-.352,7.622-1.518,10.01-.92,1.953-2.519,2.631-4.714,2.631a16.448,16.448,0,0,1-3.305-.38l-.7-4.313a17.631,17.631,0,0,0,3.306.57,1.835,1.835,0,0,0,1.843-1.031c.677-1.357,1-4.53,1-7.053,0-1.981-.813-2.225-2.492-2.225q-.489,0-1.3.082c-1.084,4.231-3.117,10.8-5.419,14.513l-4.281-1.71c2.573-3.472,4.335-8.626,5.338-12.342-.7.108-1.3.19-1.681.244-.866.135-2.438.352-3.332.515l-.38-4.421a31.034,31.034,0,0,0,3.17,0c.786-.027,1.9-.109,3.117-.19a27.527,27.527,0,0,0,.514-5.67l4.877.516C130.482,25.958,130.265,26.989,130.1,27.749Zm11.082-.055-.894.38a48.088,48.088,0,0,1,4.39,9.739l-4.2,1.926c-.649-3.147-2.465-7.948-4.416-10.444l2.3-.976a26.013,26.013,0,0,0-1.842-3.31l2.547-1.031C139.748,24.982,140.7,26.745,141.184,27.694Zm3.36-1.328L142,27.451a30.31,30.31,0,0,0-2.14-3.744l2.547-1.031A38.847,38.847,0,0,1,144.544,26.366Z"/><path class="cls-2" d="M171.05,43.7v3.988H146.041V43.7h9.511V23.571h4.253v7.487h9.321v3.988h-9.321V43.7Z"/><path class="cls-2" d="M184.307,27.749c-.163.732-.326,1.492-.488,2.2.732-.054,1.354-.081,1.842-.081,3.117,0,5.175,1.465,5.175,5.534,0,3.173-.352,7.622-1.517,10.01-.921,1.953-2.519,2.631-4.714,2.631a16.458,16.458,0,0,1-3.306-.38l-.7-4.313a17.622,17.622,0,0,0,3.305.57,1.835,1.835,0,0,0,1.843-1.031c.677-1.357,1-4.53,1-7.053,0-1.981-.814-2.225-2.493-2.225q-.489,0-1.3.082c-1.084,4.231-3.116,10.8-5.419,14.513l-4.281-1.71c2.574-3.472,4.335-8.626,5.338-12.342-.705.108-1.3.19-1.68.244-.867.135-2.439.352-3.333.515l-.379-4.421a31.034,31.034,0,0,0,3.17,0c.786-.027,1.9-.109,3.116-.19a27.6,27.6,0,0,0,.515-5.67l4.876.516C184.686,25.958,184.469,26.989,184.307,27.749Zm11.082-.055-.894.38a48.137,48.137,0,0,1,4.389,9.739l-4.2,1.926c-.65-3.147-2.466-7.948-4.416-10.444l2.3-.976a25.89,25.89,0,0,0-1.842-3.31l2.547-1.031C193.953,24.982,194.9,26.745,195.389,27.694Zm3.359-1.328L196.2,27.451a30.182,30.182,0,0,0-2.14-3.744l2.547-1.031A38.847,38.847,0,0,1,198.748,26.366Z"/><path class="cls-2" d="M207.643,25.578c1.462,0,6.882-.081,8.48-.216a14.223,14.223,0,0,0,2.411-.326l2.033,2.9c-.7.434-1.409.841-2.086,1.329-1.518,1.031-3.9,2.984-5.392,4.123a9.309,9.309,0,0,1,1.9-.162c4.661,0,8.318,2.984,8.318,7.08,0,4.231-3.061,7.948-10.079,7.948-3.82,0-6.99-1.79-6.99-4.775,0-2.387,2.168-4.611,5.256-4.611,3.306,0,5.419,1.926,5.88,4.5a3.547,3.547,0,0,0,1.6-3.119c0-2.334-2.385-3.8-5.365-3.8-3.957,0-6.8,2.387-9.4,5.561l-2.981-3.093c1.734-1.356,4.9-4.042,6.5-5.371,1.518-1.248,4.037-3.2,5.338-4.367-1.355.027-4.146.135-5.609.244-.813.054-1.788.135-2.438.244l-.136-4.259A23.043,23.043,0,0,0,207.643,25.578Zm4.741,18.935c.434,0,.84-.027,1.22-.054-.136-1.492-.949-2.468-2.087-2.468-.894,0-1.409.542-1.409,1.085C210.108,43.917,211,44.513,212.384,44.513Z"/><path class="cls-2" d="M241.572,23.029a28.313,28.313,0,0,0,11.462,9.765,18.151,18.151,0,0,0-2.6,3.473,37.492,37.492,0,0,1-5.013-3.527v2.333H234.068V32.822a37.861,37.861,0,0,1-4.823,3.418,15.9,15.9,0,0,0-2.493-3.147,30.523,30.523,0,0,0,10.81-10.064Zm4.525,14,3.17.895c-1.354,3.527-3.251,7.7-4.9,11.2l-4.227-1.139c1.112-2.2,2.358-4.829,3.333-7.081H230.22V37.189h15.2ZM243.9,31.438a29.787,29.787,0,0,1-4.172-4.53,29.071,29.071,0,0,1-4.065,4.53Z"/><path class="cls-2" d="M264.177,44.025a2.764,2.764,0,0,1,5.528,0,2.764,2.764,0,1,1-5.528,0Zm.271-13.347-.162-4.5h5.31l-.163,4.5-.812,8.573h-3.36Z"/></svg>