<svg id="レイヤー_1" data-name="レイヤー 1" xmlns="http://www.w3.org/2000/svg" viewBox="0 0 396 273"><defs><style>.cls-1{fill:#ffd900;}.cls-2{fill:#505050;}.cls-3{fill:#df1614;}.cls-4{fill:#fff;}</style></defs><polygon class="cls-1" points="18.632 0 0 13.706 0 48 377.368 48 396 34.294 396 0 18.632 0"/><path class="cls-2" d="M194.2,31.009v2.808H172.452V31.009h9.265V22.656h-7.7V19.824h7.7V12.455h3.072v7.369h7.825v2.832h-7.825v8.353Z"/><path class="cls-2" d="M208.021,26.3c.745-.311,1.488-.624,2.208-.935l.648,2.519c-2.544,1.273-5.28,2.569-7.488,3.577l-1.153-2.88c.865-.313,1.921-.72,3.12-1.176V20.64h-2.807V17.928h2.807V12.72h2.665v5.208h2.424V20.64h-2.424Zm12.817,5.521c1.32,0,1.56-.552,1.776-3a7.232,7.232,0,0,0,2.5,1.032c-.383,3.361-1.223,4.512-4.032,4.512h-5.112c-3.24,0-4.177-.888-4.177-4.2V24l-1.3.552-1.056-2.544,2.352-.985V14.712h2.736v5.136l1.993-.84V12.384h2.664v5.472l1.9-.816.5-.336.5-.336,1.992.7-.1.481c0,4.56-.047,7.44-.168,8.425a2.048,2.048,0,0,1-1.223,1.992,6.717,6.717,0,0,1-2.5.336,7.678,7.678,0,0,0-.6-2.4,10.929,10.929,0,0,0,1.152.048c.289,0,.432-.1.528-.527.049-.385.072-2.137.072-5.545l-2.064.912v8.473h-2.664V21.936l-1.993.865v7.416c0,1.392.217,1.608,1.681,1.608Z"/><polygon class="cls-1" points="18.632 75 0 88.706 0 123 377.368 123 396 109.294 396 75 18.632 75"/><path class="cls-2" d="M119.377,101.3c.744-.311,1.487-.624,2.208-.935l.647,2.519c-2.544,1.273-5.28,2.569-7.488,3.577l-1.152-2.88c.864-.313,1.921-.72,3.12-1.176V95.64H113.9V92.928h2.808V87.72h2.665v5.208H121.8V95.64h-2.424Zm12.816,5.521c1.321,0,1.561-.552,1.777-3a7.224,7.224,0,0,0,2.5,1.032c-.384,3.361-1.224,4.512-4.032,4.512h-5.113c-3.24,0-4.176-.888-4.176-4.2V99l-1.3.552-1.056-2.544,2.352-.985V89.712h2.736v5.136l1.992-.84V87.384h2.664v5.472l1.9-.816.5-.336.5-.336,1.993.7-.1.481c0,4.56-.048,7.44-.168,8.425a2.049,2.049,0,0,1-1.224,1.992,6.714,6.714,0,0,1-2.5.336,7.677,7.677,0,0,0-.6-2.4,10.919,10.919,0,0,0,1.152.048c.288,0,.432-.1.527-.527.049-.385.073-2.137.073-5.545l-2.065.912v8.473h-2.664V96.936l-1.992.865v7.416c0,1.392.217,1.608,1.681,1.608Z"/><path class="cls-2" d="M159.1,105.409a21.527,21.527,0,0,1-2.809,1.512,22.114,22.114,0,0,0,4.608.72,7.576,7.576,0,0,0-1.391,2.161c-3.361-.361-5.857-1.2-7.657-2.713l.072,1.512c-3.193.384-6.528.792-9.026,1.1l-.455-2.184c.672-.072,1.44-.144,2.28-.24v-2.664h-2.064a9.58,9.58,0,0,1-2.64,4.992,9.3,9.3,0,0,0-1.993-1.752c2.208-2.016,2.473-4.872,2.473-6.984V97.824H159.53v1.8H143.041v1.3a16.712,16.712,0,0,1-.1,1.847h17.713v1.849h-3.12Zm-17.57-10.153h-2.52V91.032h9.049v-.816h-7.417V88.2H158.33v2.017h-7.488v.816h9.24v4.224h-2.64V92.712h-6.6v4.656h-2.784V92.712h-6.529Zm.264.36h5.52v1.416h-5.52Zm5.5-2.16v1.416h-4.968V93.456Zm-3.36,8.52v-1.607h14.258v1.607Zm3.72,4.994,3.624-.409a9.861,9.861,0,0,1-1.463-1.944h-2.161Zm8.977-13.514v1.416h-5.017V93.456Zm-5.017,2.16H157.2v1.416h-5.593Zm.745,9a6.083,6.083,0,0,0,1.92,1.512,25.281,25.281,0,0,0,2.376-1.512Z"/><path class="cls-2" d="M168.457,91.488a63.65,63.65,0,0,0-1.152,8.809,11.551,11.551,0,0,0,.095,1.559c.361-.815.745-1.656,1.08-2.448l1.489,1.177c-.672,1.992-1.464,4.608-1.729,5.88a7.365,7.365,0,0,0-.12,1.129c0,.263.025.647.049.983l-2.784.192a30.633,30.633,0,0,1-.937-7.848,66.905,66.905,0,0,1,1.008-9.505c.072-.672.216-1.584.24-2.353l3.361.288A22.125,22.125,0,0,0,168.457,91.488Zm5.928,11.736c0,1.057.912,1.7,3.36,1.7a28.316,28.316,0,0,0,6.025-.625l.048,3.241a33.993,33.993,0,0,1-6.193.456c-4.128,0-6.12-1.464-6.12-3.936a14.615,14.615,0,0,1,.408-3.121l2.76.265A8.145,8.145,0,0,0,174.385,103.224Zm8.689-12.289v3.1a64.427,64.427,0,0,1-10.321,0V90.96A49.291,49.291,0,0,0,183.074,90.935Z"/><path class="cls-2" d="M187.849,88.7h7.176v7.752h-4.536c-.072.721-.12,1.44-.192,2.137h4.728s-.024.719-.047,1.08c-.241,5.808-.5,8.232-1.2,9.1a2.643,2.643,0,0,1-1.824.96,21.038,21.038,0,0,1-2.9.073,7.352,7.352,0,0,0-.864-2.809c1.032.1,2.016.1,2.5.1a.883.883,0,0,0,.84-.288c.384-.384.624-1.968.816-5.76h-2.28l-.144,1.151-2.5-.384c.336-2.087.624-5.328.768-7.921h4.152V91.223h-4.488Zm19.681,21.241a10.2,10.2,0,0,0-.6-1.559c-4.105.359-8.377.671-11.474.887l-.336-2.76c1.584-.048,3.576-.168,5.736-.312v-3.1h-4.824V96.216h4.824V94.344c-1.847.144-3.576.24-5.04.336l-.383-2.665,2.112-.095a29.773,29.773,0,0,0,2.136-4.536l3.072.7c-.672,1.248-1.464,2.544-2.208,3.7,1.464-.072,3-.144,4.536-.24-.36-.5-.768-1.032-1.152-1.488l2.4-1.057a21.638,21.638,0,0,1,3.528,5.137L207.29,95.3a9.025,9.025,0,0,0-.672-1.392c-1.008.072-2.016.168-3.024.24v2.064h5.041V103.1h-5.041v2.905l1.968-.144c-.335-.552-.7-1.08-1.056-1.584l2.305-.96a20.5,20.5,0,0,1,3.215,5.521Zm-6.673-9.169V98.568H198.6v2.208Zm2.737-2.208v2.208h2.328V98.568Z"/><path class="cls-2" d="M216.912,93.5c-.023,1.56,0,3.36.145,5.089.336,3.456,1.055,5.832,2.568,5.832,1.128,0,2.088-2.808,2.544-4.729l2.4,2.929c-1.584,4.176-3.1,5.64-5.016,5.64-2.641,0-4.921-2.377-5.593-8.808-.24-2.209-.264-5.017-.264-6.482a14.6,14.6,0,0,0-.192-2.448l3.7.049A19.4,19.4,0,0,0,216.912,93.5ZM233.57,103.56l-3.144,1.225c-.384-3.864-1.656-9.7-4.273-12.673l3.048-.984C231.481,93.887,233.306,99.888,233.57,103.56Z"/><path class="cls-2" d="M243.77,95.808a32.922,32.922,0,0,1-1.705,8.544c2.232,1.777,5.256,2.137,8.761,2.161,1.416,0,6.288,0,8.04-.072a10.039,10.039,0,0,0-1.1,2.784h-7.009c-4.057,0-7.32-.48-9.865-2.4a10.259,10.259,0,0,1-2.664,3.1A10.154,10.154,0,0,0,236.089,108a9.208,9.208,0,0,0,2.807-3.216,16.212,16.212,0,0,1-2.255-4.656l2.232-.817a11.783,11.783,0,0,0,1.176,2.712,25.3,25.3,0,0,0,.84-4.032h-1.632l-.313.7-2.591-.672c1.032-2.112,2.184-4.7,3.072-6.793h-3.12v-2.5H240.7l.432-.095,1.944.528c-.719,1.872-1.7,4.152-2.688,6.336h1.2l.5-.072ZM249,91.1h-4.393v-2.16H249V87.575h2.784v1.368h4.992v3.145h1.8v2.184h-1.8v3.144h-4.992v1.056h5.185v2.065h-5.185v1.128h6.288V103.9h-6.288v1.944H249V103.9h-5.689v-2.232H249v-1.128h-4.657V98.472H249V97.416h-4.513v-2.16H249v-.984h-6.024V92.088H249Zm2.784,0v.985h2.184V91.1Zm2.184,3.169h-2.184v.984h2.184Z"/><path class="cls-2" d="M270.121,100.512c-.864.241-1.7.529-2.593.792v8.545h-2.616V102.1c-1.3.384-2.5.769-3.6,1.057l-.7-2.713c1.2-.263,2.664-.647,4.3-1.1V94.752h-1.607a21.9,21.9,0,0,1-.889,3.072A21.071,21.071,0,0,0,260.4,96.5a30.038,30.038,0,0,0,1.369-7.729l2.376.408c-.1.96-.216,1.9-.361,2.857h1.128V87.431h2.616V92.04h1.993v2.712h-1.993v3.864l2.208-.624Zm12.913-9.384s-.024.96-.048,1.3c-.456,10.7-.888,14.617-1.8,15.817a2.631,2.631,0,0,1-1.873,1.248,13.709,13.709,0,0,1-2.711.072,8.021,8.021,0,0,0-.792-2.784,19.442,19.442,0,0,0,2.135.1,1,1,0,0,0,.889-.456c.6-.768,1.031-4.032,1.416-12.649h-.12c-1.177,6.048-3.649,12.289-7.513,15.481a10.611,10.611,0,0,0-2.328-1.655c3.84-2.761,6.24-8.209,7.44-13.826H276.6c-1.057,3.912-3.073,8.208-5.5,10.513a10.024,10.024,0,0,0-2.183-1.608c2.376-1.872,4.248-5.425,5.305-8.905H273a17.871,17.871,0,0,1-2.472,4.3,16.35,16.35,0,0,0-2.16-1.608c1.9-2.088,3.216-5.521,3.936-9.049l2.592.48c-.24,1.1-.552,2.184-.888,3.241Z"/><polygon class="cls-1" points="18.632 150 0 163.706 0 198 377.368 198 396 184.294 396 150 18.632 150"/><path class="cls-2" d="M123.385,174.673c-.36,4.992-1.441,8.377-7.945,10.2a8.66,8.66,0,0,0-1.656-2.519c5.664-1.345,6.265-3.817,6.576-7.681Zm-8.041-3.385c1.129-.023,2.4-.047,3.793-.072a35.868,35.868,0,0,0,1.536-3.576h-6.121v-2.687h8.977v-2.545h2.928v2.545h9.073v2.687h-5.905a37.995,37.995,0,0,1,5.833,6.073l-2.592,1.584a20.253,20.253,0,0,0-1.32-1.8c-5.809.313-11.953.577-16.106.745Zm8.713-3.648c-.577,1.177-1.224,2.377-1.848,3.481,2.232-.073,4.608-.144,6.961-.216-.673-.7-1.368-1.368-2.041-1.968l2.209-1.3Zm8.617,14.378c.767,0,.912-.5,1.032-3.841a7.355,7.355,0,0,0,2.592,1.128c-.264,4.3-.984,5.4-3.361,5.4h-2.879c-2.689,0-3.361-.863-3.361-3.576v-6.576l2.88.024v6.529c0,.792.12.912.912.912Z"/><path class="cls-2" d="M152.21,178.946c1.7,1.92,4.393,3.024,8.185,3.431a11.12,11.12,0,0,0-1.681,2.5c-4.56-.719-7.416-2.423-9.313-5.4-1.416,2.137-4.08,4.032-8.976,5.353a11.625,11.625,0,0,0-1.777-2.3c4.033-.912,6.337-2.16,7.658-3.576h-7.225v-2.473H147.7a10.849,10.849,0,0,0,.24-1.512h-6.144v-2.3h6.168v-1.441h-6.552v-1.584h-2.137V164.52h8.761v-2.088h2.929v2.088h8.784v5.112h-1.92v1.584h-7.009v1.441h6.53v2.3h-6.553a8.148,8.148,0,0,1-.192,1.512h9.48v2.473Zm-4.249-10.034v-1.368h2.856v1.368h5.977v-1.9H142.1v1.9Z"/><path class="cls-2" d="M175.105,183.866l-1.8-2.857a18.264,18.264,0,0,0,2.232-.384c3.072-.719,5.473-2.927,5.473-6.432,0-3.313-1.8-5.784-5.041-6.336a48.382,48.382,0,0,1-1.44,6.5c-1.44,4.848-3.5,7.825-6.121,7.825-2.664,0-4.872-2.929-4.872-6.985,0-5.544,4.8-10.273,11.017-10.273,5.953,0,9.7,4.128,9.7,9.36C184.25,179.353,181.153,182.93,175.105,183.866Zm-6.6-5.376c1.008,0,1.944-1.513,2.928-4.753a36.276,36.276,0,0,0,1.272-5.809,7.556,7.556,0,0,0-6.1,6.961C166.608,177.313,167.568,178.49,168.505,178.49Z"/><path class="cls-2" d="M195.266,163.32a39.018,39.018,0,0,1-2.233,4.633v16.8H190.32V172.08a23.254,23.254,0,0,1-1.991,2.257,18.617,18.617,0,0,0-1.488-2.9,25.525,25.525,0,0,0,5.784-8.978Zm14.5,18.05v2.688H194.281V181.37h6.385v-4.777H195.6v-2.688h5.064v-4.176h-5.833V167.04h6.816a36.19,36.19,0,0,0-4.007-2.64l1.9-2.04a33.674,33.674,0,0,1,5.425,3.48l-1.056,1.2h5.5v2.689H203.57v4.176h5.184v2.688H203.57v4.777Z"/><path class="cls-2" d="M229.346,181.85c1.3,0,1.511-.5,1.7-3.313a8.486,8.486,0,0,0,2.832,1.176c-.384,3.865-1.273,4.945-4.3,4.945h-4.633c-3.5,0-4.464-.912-4.464-3.985V177.7l-7.945.839-.336-2.76,8.281-.816v-2.424c-1.705.264-3.409.48-5.041.648a9.232,9.232,0,0,0-.84-2.5c4.681-.553,9.721-1.488,12.793-2.809l2.233,2.353a37.126,37.126,0,0,1-6,1.727v2.689l9.673-.96.336,2.64-10.009,1.056v3.24c0,1.08.216,1.225,1.633,1.225Zm-13.73-11.689h-2.9V164.52h8.665v-2.088H224.4v2.088h8.833v5.641h-3.048v-2.953h-14.57Z"/><path class="cls-2" d="M245.617,168.624h-9.385v-2.255h9.385Zm11.978,4.657a16.206,16.206,0,0,1-3.7,6.984,16.383,16.383,0,0,0,4.945,2.064,12.337,12.337,0,0,0-1.849,2.473,16.737,16.737,0,0,1-5.28-2.616,19.4,19.4,0,0,1-5.5,2.616,12.122,12.122,0,0,0-1.489-2.473v1.225h-5.016v.936h-2.424v-8.185h7.44v5.977a15.727,15.727,0,0,0,4.849-2.065,16.722,16.722,0,0,1-2.761-4.152l2.449-.792H245.93V172.7h.815a12.772,12.772,0,0,0-1.992-1.727v.912H237.36V169.7h7.393v1.153a5.4,5.4,0,0,0,2.328-4.921V163.08h8.041v5.376c0,.672.048.745.313.745h.6c.313,0,.408-.313.432-2.4a8.121,8.121,0,0,0,2.329,1.008c-.24,2.977-.864,3.816-2.473,3.816H254.93c-1.92,0-2.472-.744-2.472-3.12v-2.9H249.77v.408c0,2.256-.48,4.992-2.977,6.7h8.449l.481-.12Zm-12.842,1.848H237.36v-2.136h7.393Zm-.048-9.817h-7.248v-2.16h7.248Zm-2.448,13.249h-2.544v2.761h2.544Zm7.081-3.288a11.826,11.826,0,0,0,2.328,3.24,11.367,11.367,0,0,0,2.256-3.24Z"/><path class="cls-2" d="M283.13,171.456H270.241v2.832c0,3.122-.36,7.706-2.4,10.61a11.545,11.545,0,0,0-2.017-1.729V184.8h-2.712v-12a19.146,19.146,0,0,1-1.488,1.968,19.854,19.854,0,0,0-1.368-3.072,26.774,26.774,0,0,0,4.753-9.265l2.639.792a46.172,46.172,0,0,1-1.824,4.656v15.194c1.681-2.569,1.824-6.193,1.824-8.833v-5.233H283.13ZM270.913,164.3v-1.752h2.64V164.3h3.552v-1.752h2.689V164.3h3.216v2.448h-3.216v1.609h-2.689v-1.609h-3.552v1.609h-2.64v-1.609h-3.385V164.3Zm11.665,18.1c0,1.08-.144,1.656-.816,2.04a5.564,5.564,0,0,1-2.76.384,7.18,7.18,0,0,0-.624-2.161,14.555,14.555,0,0,0,1.512,0c.215,0,.263-.047.263-.288v-1.248h-2.28v3.6h-2.256v-3.6h-2.16v3.649h-2.376V172.657h11.5Zm-9.121-7.681v1.368h2.16v-1.368Zm2.16,4.536v-1.32h-2.16v1.32Zm2.256-4.536v1.368h2.28v-1.368Zm2.28,4.536v-1.32h-2.28v1.32Z"/><polygon class="cls-1" points="18.632 225 0 238.706 0 273 377.368 273 396 259.294 396 225 18.632 225"/><path class="cls-2" d="M33.009,248.173c1.584,4.849,4.512,8.881,9,10.825a11.437,11.437,0,0,0-2.137,2.664c-4.536-2.256-7.32-6.264-9.168-11.425a17.912,17.912,0,0,1-2.761,6l1.968-1.368a30.94,30.94,0,0,1,4.441,4.441l-2.64,1.968a29.906,29.906,0,0,0-4.129-4.537,17.231,17.231,0,0,1-6.265,4.92,8.763,8.763,0,0,0-2.135-2.424,14.491,14.491,0,0,0,8.856-11.065H19.952v-2.952h8.5c.193-2.088.168-4.128.193-5.952h3.12c-.025,1.847-.048,3.864-.216,5.952h9.816v2.952Z"/><path class="cls-2" d="M56.145,251.486a9.982,9.982,0,0,1-.6,1.127h9.121l-.072.96c-.239,4.609-.552,6.5-1.152,7.177a2.205,2.205,0,0,1-1.464.841,16.2,16.2,0,0,1-2.3.071,6.013,6.013,0,0,0-.624-2.351c.672.071,1.223.1,1.536.1a.715.715,0,0,0,.672-.288c.288-.336.5-1.488.7-4.3h-.576a17.166,17.166,0,0,1-4.729,6.769,18.5,18.5,0,0,0-1.752-1.585,12.8,12.8,0,0,0,4.008-5.184H57.7a17.632,17.632,0,0,1-5.856,6.289,17.594,17.594,0,0,0-1.56-1.777,13.661,13.661,0,0,0,4.849-4.512H53.984a13.364,13.364,0,0,1-2.688,2.424,16.755,16.755,0,0,0-1.464-1.511,3.788,3.788,0,0,1-1.272.431,10.279,10.279,0,0,1-1.537.048,6.035,6.035,0,0,0-.624-2.424c.432.024.745.024,1.056.024a1.244,1.244,0,0,0,.673-.216c.264-.193.359-.672.359-1.344a6.421,6.421,0,0,0-1.656-4.2c.481-1.512.984-3.6,1.368-5.232H46.327v18.841H43.855V240.277h5.208l.409-.121,1.872,1.081c-.624,2.04-1.416,4.656-2.088,6.529a7.387,7.387,0,0,1,1.752,4.824,5.5,5.5,0,0,1-.361,2.184,11.422,11.422,0,0,0,2.881-3.288h-2.52v-2.233H65.289v2.233Zm7.464-3.168H52.88v-8.185H63.609Zm-2.736-6.193H55.424v1.152h5.449Zm0,3.025H55.424v1.175h5.449Z"/><path class="cls-2" d="M85.161,258.9c.769,0,.912-.529,1.008-3.793a8.775,8.775,0,0,0,2.616,1.152c-.287,4.2-1.008,5.329-3.384,5.329H82.545c-2.712,0-3.384-.912-3.384-3.648v-7.249H75.753c-.408,5.041-1.513,8.88-7.8,10.993a8.028,8.028,0,0,0-1.728-2.5c5.5-1.633,6.144-4.585,6.48-8.5H66.848v-2.689h9.216v-8.761h2.88v8.761H88.4v2.689h-6.36v7.224c0,.84.12.985.912.985ZM71.048,247.165a28,28,0,0,0-2.472-5.928l2.569-.984a25.332,25.332,0,0,1,2.687,5.809Zm16.01-6.049a53.089,53.089,0,0,1-3.313,5.906l-2.5-.937a28.4,28.4,0,0,0,2.76-6Z"/><path class="cls-2" d="M105.465,250.045v2.713h5.112v2.616h-5.112v2.592c0,.864.1,1.009.767,1.009h1.849c.624,0,.744-.481.84-2.737a7.107,7.107,0,0,0,2.568,1.128c-.288,3.168-1.032,4.128-3.144,4.128h-2.616c-2.592,0-3.241-.84-3.241-3.5v-2.616H99.32c-.528,2.521-2.112,4.9-6.552,6.385a10.89,10.89,0,0,0-1.825-2.28c3.313-1.009,4.752-2.5,5.353-4.1H91.543v-2.616H96.68v-2.713H94.664v-.792a19.78,19.78,0,0,1-3.192,1.9,12.47,12.47,0,0,0-1.729-2.161,14.86,14.86,0,0,0,3.985-2.471,25.469,25.469,0,0,0-2.376-2.041l1.8-1.488c.72.5,1.632,1.2,2.305,1.776a13.489,13.489,0,0,0,1.512-2.16h-4.9v-2.449h6.265l.5-.095,1.9.887a16.682,16.682,0,0,1-3.888,6.385h8.688a21.958,21.958,0,0,1-4.368-7.345l2.568-.719a16.626,16.626,0,0,0,1.2,2.568,22.64,22.64,0,0,0,2.135-2.232l2.16,1.536c-.983.888-2.087,1.824-3.072,2.544.337.432.7.841,1.057,1.248a20.149,20.149,0,0,0,2.712-2.592l2.089,1.488a32.213,32.213,0,0,1-3.193,2.592,14.658,14.658,0,0,0,3.744,2.208,10.3,10.3,0,0,0-1.968,2.448,16.764,16.764,0,0,1-2.953-1.8v.767Zm-2.977,0H99.536v2.713h2.952Z"/><path class="cls-2" d="M116.648,247.982h-2.52v-4.873h9.049V242.2H115.76v-2.111h17.689V242.2h-7.488v.913h9.24v4.873h-2.639v-2.977h-6.6V250h-2.784v-4.992h-6.529Zm15.385,11.424c1.2,0,1.416-.36,1.584-2.4a7.273,7.273,0,0,0,2.377.912c-.337,2.88-1.1,3.673-3.721,3.673h-5.041c-3.288,0-4.2-.7-4.2-3.217V258.3h-3.984v1.057h-2.712v-8.713h16.609V258.3h-7.176v.072c0,.888.264,1.032,1.728,1.032Zm-14.9-11.209h5.184v1.561h-5.184Zm5.184-.839h-4.728v-1.537h4.728Zm-3.264,5.208v1.056h3.984v-1.056Zm3.984,3.816V255.35h-3.984v1.032Zm7.081-3.816h-4.344v1.056h4.344Zm0,3.816V255.35h-4.344v1.032Zm1.441-10.561v1.537h-4.681v-1.537Zm-4.681,2.376H132.1v1.561h-5.232Z"/><path class="cls-2" d="M143.048,242.989l3.5.72c-.216.7-.48,1.872-.576,2.4a55.923,55.923,0,0,1-2.04,7.224,33.021,33.021,0,0,1-3.552,6.864l-3.361-1.416a28.937,28.937,0,0,0,3.745-6.672A34.6,34.6,0,0,0,143.048,242.989Zm6.1.72,3.192-1.032c.983,1.849,2.64,5.545,3.552,7.873.84,2.16,2.112,6,2.784,8.376l-3.552,1.152a74.1,74.1,0,0,0-2.5-8.472A67.343,67.343,0,0,0,149.145,243.709Zm7.632-4.272a2.868,2.868,0,1,1-2.881,2.88A2.888,2.888,0,0,1,156.777,239.437Zm0,4.248a1.38,1.38,0,1,0-1.392-1.368A1.388,1.388,0,0,0,156.777,243.685Z"/><path class="cls-2" d="M173.385,242.173v1.248h2.88a7.189,7.189,0,0,0,1.992-.24l1.992,1.944c-.624.6-1.344,1.416-1.872,1.992a36.158,36.158,0,0,1-5.04,4.7c0,1.921-.025,4.538-.025,6.049,0,.96.1,2.328.168,3.073h-3.456a27.645,27.645,0,0,0,.193-3.073v-4.1a42.15,42.15,0,0,1-7.369,2.952L161,253.886a29.821,29.821,0,0,0,9.793-4.009,15.846,15.846,0,0,0,4.032-3.576h-8.688c-.865,0-2.377.024-3.121.1v-3.145a22.578,22.578,0,0,0,3.072.168h4.152v-1.248a15.661,15.661,0,0,0-.143-2.208h3.432A19.67,19.67,0,0,0,173.385,242.173Zm1.464,10.969,1.992-2.3a53.847,53.847,0,0,1,5.761,3.48l-2.016,2.64A37.8,37.8,0,0,0,174.849,253.142Z"/><path class="cls-2" d="M188.239,252.949c.673-2.063.7-6.6.7-9.5a9.162,9.162,0,0,0-.216-2.209h3.528a15.808,15.808,0,0,0-.168,2.184c0,2.832-.072,7.9-.72,10.321a14.067,14.067,0,0,1-4.272,6.888l-2.929-1.943A11.326,11.326,0,0,0,188.239,252.949Zm7.225,4.321V243.277a10.617,10.617,0,0,0-.192-2.064h3.577a12.06,12.06,0,0,0-.168,2.088v12.553a15.2,15.2,0,0,0,5.928-5.065l1.848,2.641a26.435,26.435,0,0,1-8.137,6.553,5.237,5.237,0,0,0-1.032.719l-2.016-1.656A9.133,9.133,0,0,0,195.464,257.27Z"/><path class="cls-2" d="M215.744,253.694a22.2,22.2,0,0,1-1.44,6.193,14.027,14.027,0,0,0-2.185-1.032,17.482,17.482,0,0,0,1.273-5.569ZM234.417,243.3s0,.96-.023,1.32c-.313,10.513-.649,14.3-1.657,15.577a2.976,2.976,0,0,1-2.3,1.321,23.049,23.049,0,0,1-3.746.072,6.815,6.815,0,0,0-.959-2.881c1.512.145,2.88.145,3.528.145a1.184,1.184,0,0,0,1.008-.409c.72-.744,1.08-4.249,1.344-12.433h-6.625a19.715,19.715,0,0,1-2.04,3.1,18.156,18.156,0,0,0-2.256-1.584,19.1,19.1,0,0,1,1.873,4.488l-2.161,1.008a13.06,13.06,0,0,0-.336-1.3l-1.368.095v9.866h-2.52v-9.673l-3.552.24-.24-2.5,1.776-.072c.36-.456.743-.96,1.1-1.489a22.67,22.67,0,0,0-2.88-3.288l1.344-1.968.576.5a31.929,31.929,0,0,0,1.752-4.177l2.52.887c-.864,1.657-1.848,3.5-2.712,4.849.312.336.6.7.84,1.008a37.526,37.526,0,0,0,2.208-3.936l2.424,1.008a77.279,77.279,0,0,1-4.584,6.5l2.424-.1c-.264-.576-.552-1.152-.84-1.656l2.017-.888.168.288a19.094,19.094,0,0,0,3.959-7.993l2.929.624a27.543,27.543,0,0,1-1.177,3.433Zm-13.561,9.841a27.369,27.369,0,0,1,1.56,4.512l-2.256.792a24.448,24.448,0,0,0-1.416-4.632Zm5.617,2.448a22.7,22.7,0,0,0-2.928-5.545l2.28-1.151a22.573,22.573,0,0,1,3.12,5.376Z"/><path class="cls-2" d="M237.032,257.439l1.656-2.233a5.644,5.644,0,0,0,3.96,1.824c1.8,0,3.025-.864,3.025-2.352,0-1.68-1.032-2.712-4.9-2.712v-2.545c3.265,0,4.321-1.08,4.321-2.567,0-1.345-.865-2.137-2.376-2.137a4.865,4.865,0,0,0-3.361,1.584l-1.8-2.16a7.9,7.9,0,0,1,5.328-2.208c3.432,0,5.76,1.68,5.76,4.656A4.116,4.116,0,0,1,245.7,250.5v.12a4.358,4.358,0,0,1,3.529,4.273c0,3.169-2.857,5.016-6.242,5.016A7.551,7.551,0,0,1,237.032,257.439Z"/><path class="cls-2" d="M251.96,240.421h3.479v11.5h.1l4.584-5.785h3.864l-4.608,5.545,5.041,7.9H260.6l-3.265-5.568-1.9,2.16v3.408H251.96Z"/><path class="cls-2" d="M264.752,246.133h3.528l1.464,6.625c.264,1.32.432,2.592.672,3.937h.1c.264-1.345.5-2.641.841-3.937l1.631-6.625h3.12l1.681,6.625c.312,1.32.552,2.592.84,3.937h.12c.239-1.345.432-2.617.672-3.937l1.464-6.625h3.265l-3.313,13.441h-4.152l-1.416-5.856c-.288-1.272-.5-2.5-.769-3.912h-.12c-.264,1.416-.456,2.664-.743,3.912l-1.368,5.856h-4.034Z"/><circle class="cls-3" cx="198" cy="61.5" r="15.6"/><path class="cls-4" d="M196.867,62.637h-5.333V59.865h5.333V54.242h2.877v5.623h5.332v2.772h-5.332v5.6h-2.877Z"/><circle class="cls-3" cx="198" cy="136.5" r="15.6"/><path class="cls-4" d="M196.867,137.636h-5.333v-2.771h5.333v-5.623h2.877v5.623h5.332v2.771h-5.332v5.6h-2.877Z"/><circle class="cls-3" cx="198" cy="211.5" r="15.6"/><path class="cls-4" d="M196.867,212.637h-5.333v-2.771h5.333v-5.623h2.877v5.623h5.332v2.771h-5.332v5.6h-2.877Z"/><rect class="cls-4" x="290.426" y="233.012" width="81.601" height="30"/><path class="cls-3" d="M371.426,233.613v28.8h-80.4v-28.8h80.4m1.2-1.2h-82.8v31.2h82.8v-31.2Z"/><path class="cls-3" d="M301.256,252.005c-.235-.558-.631-1.405-1.027-2.215v7.671h-1.944v-6.735a15.174,15.174,0,0,1-1.639,3.547,10.27,10.27,0,0,0-.936-1.89,18.017,18.017,0,0,0,2.413-6.032h-2v-1.98h2.161v-3.71h1.944v3.71h1.783v1.98h-1.783v.846c.5.7,1.836,2.774,2.125,3.277Zm4.266,2.178a11.558,11.558,0,0,1-2.808,2.881,9.98,9.98,0,0,0-1.315-1.3,9.115,9.115,0,0,0,2.486-2.5Zm2.828-1.044v2.449c0,.846-.144,1.314-.72,1.621a5.447,5.447,0,0,1-2.287.287,6.667,6.667,0,0,0-.559-1.729,11.115,11.115,0,0,0,1.315.019c.216-.019.27-.054.27-.216v-2.431h-4.285v-1.728h10.587v1.728Zm-3.187-10.047h-2.989v-1.71h10.443v1.71h-3.133v.846h2.683v4.574H302.7v-4.574h2.467Zm-1.909,7.617V249.16H311.7v1.549Zm1.188-3.745h.937v-1.477h-.937Zm2.395-1.477v1.477h.99v-1.477Zm.99-2.395h-.972v.846h.972Zm2.593,10.21a16.441,16.441,0,0,1,2.377,2.646l-1.6,1.116a17.442,17.442,0,0,0-2.3-2.755Zm-.09-7.815h-1.062v1.477h1.062Z"/><path class="cls-3" d="M330.833,254.382h-7.2v3.1h-2.179v-3.1h-6.968v-1.927h6.968v-1.116h-1.26v-5.367c-.234.235-.486.469-.72.667-.361-.377-1.117-1.062-1.584-1.44l-.937,1.3a14.68,14.68,0,0,0-2.772-1.458l1.1-1.441a14.6,14.6,0,0,1,2.81,1.315l-.055.071a12.329,12.329,0,0,0,3.457-4.392l2.071.612a13.758,13.758,0,0,1-.72,1.332h1.746a14.886,14.886,0,0,0,.774-1.855l2.341.378c-.305.523-.612,1.027-.918,1.477h3.331v1.675h-3.691v.828h3.06v1.476h-3.06v.829H329.5v1.476h-3.079v.828h4.123v1.693h-6.914v1.116h7.2Zm-11.4-6.483c-1.027,1.279-2.161,2.612-3.295,3.835l-1.5-1.6a38.607,38.607,0,0,0,3.637-3.656Zm-1.207-4.231a11.848,11.848,0,0,0-2.737-1.548l1.1-1.459a12.738,12.738,0,0,1,2.808,1.387Zm6.159.541H322.28v.828h2.108Zm0,2.3H322.28v.829h2.108Zm-2.108,3.133h2.108v-.828H322.28Z"/><path class="cls-3" d="M344.457,244.965a12.21,12.21,0,0,0,5.186,4.177,9.2,9.2,0,0,0-1.117,1.872,12.958,12.958,0,0,1-2.106-1.35v1.009h-5.582V249.7a13.124,13.124,0,0,1-2.359,1.53,7.343,7.343,0,0,0-.648-1.224l-.918.289v4.77c0,1.063-.181,1.639-.757,1.963a5.313,5.313,0,0,1-2.682.433,7.821,7.821,0,0,0-.594-2.089c.7.036,1.44.036,1.675.017.216,0,.305-.071.305-.341v-4.123c-.7.2-1.386.395-2,.576l-.449-2.072c.684-.143,1.53-.359,2.448-.611v-2.791h-2.089v-1.963h2.089v-3.385h2.053v3.385H338.3v1.963h-1.387v2.233l1.315-.361.162,1.135a13,13,0,0,0,3.781-3.529h-1.855v-1.387h-2V242.3h2v-1.621H342.3V242.3h2.736v-1.621h2.017V242.3h2.106v1.818H347.05v1.44h-2.017v-1.44H342.3v1.207c.071-.126.143-.252.216-.36Zm-4.987,6.788h8.408v5.653h-2.017v-.576H341.4v.648H339.47Zm1.926,1.692v1.692h4.465v-1.692Zm4.177-4.465a13.269,13.269,0,0,1-2.016-2.178,11.951,11.951,0,0,1-1.891,2.178Z"/><path class="cls-3" d="M366.977,247.594a21.006,21.006,0,0,1-2.917,5.941c.4,1.171.864,1.854,1.4,1.854.359,0,.54-.864.63-2.952a5,5,0,0,0,1.692,1.134c-.288,3.133-.936,3.907-2.52,3.907-1.153,0-2.036-.792-2.7-2.142a15.912,15.912,0,0,1-2.61,2.178,6.676,6.676,0,0,0-1.423-1.62h-1.675v1.6h-1.872v-1.6h-3.529v-1.548h3.529v-.7h-2.953v-4.429h2.917v-.7h-3.241v-1.5h3.241v-.792h-3.727v-1.764h3.691v-.954h-2.9v-1.621h2.9v-1.207h2.053v1.207h2.881v1.621h-2.881v.954h3.781c-.054-1.242-.072-2.5-.072-3.782h2.161c-.036,1.3-.019,2.557.018,3.782h4.663v1.764h-4.591a42.5,42.5,0,0,0,.5,4.61A17.971,17.971,0,0,0,365.068,247Zm-13.451,3.331h1.621v-.666h-1.621Zm0,1.674h1.621v-.667h-1.621Zm4.827-1.674v-.666H356.7v.666Zm0,1.674v-.667H356.7v.667Zm1.8,2.143a12.287,12.287,0,0,0,1.639-1.585,35.6,35.6,0,0,1-.954-6.932h-3.961v.792h3.3v1.5h-3.3v.7h3.043v4.429h-3.062v.7h3.295Zm5.439-10.39a14.811,14.811,0,0,0-2.161-2.574L365,240.733a15.755,15.755,0,0,1,2.269,2.467Z"/></svg>