<svg id="レイヤー_1" data-name="レイヤー 1" xmlns="http://www.w3.org/2000/svg" viewBox="0 0 330 339"><defs><style>.cls-1{fill:#ffd900;}.cls-2{fill:#df1614;}.cls-3{fill:#505050;}.cls-4{fill:#fff;}</style></defs><rect class="cls-1" y="284.633" width="330" height="54.367"/><path class="cls-2" d="M249.446,115.254,291.2,108.47a.968.968,0,0,0-.311-1.911l-41.756,6.784a.968.968,0,0,0,.31,1.911Z"/><path class="cls-2" d="M245.336,120.391l51.392-8.35a.968.968,0,1,0-.3-1.912h-.008l-51.393,8.35a.968.968,0,1,0,.311,1.911Z"/><path class="cls-2" d="M301.039,114.462a.976.976,0,0,0-.722-.171l-57.673,9.371a.969.969,0,0,0-.8,1.11l4.8,29.52a.97.97,0,0,0,1.111.8l57.674-9.37a.97.97,0,0,0,.8-1.111l-4.8-29.52A.971.971,0,0,0,301.039,114.462Zm3.119,29.5-55.763,9.06-4.485-27.607,55.762-9.06Z"/><polygon class="cls-2" points="267.992 134.656 268.365 136.953 272.763 136.239 272.934 137.295 268.537 138.009 268.91 140.307 273.308 139.593 273.644 141.663 276.569 141.187 276.233 139.118 280.659 138.399 280.285 136.101 275.86 136.82 275.688 135.763 280.114 135.044 279.74 132.747 276.384 133.292 278.951 127.351 275.681 127.883 273.68 132.514 270.3 128.757 267.032 129.288 271.247 134.127 267.992 134.656"/><path class="cls-2" d="M253.771,150.336l44.436-7.22a5.5,5.5,0,0,1,3.262-4.527l-2.645-16.28a5.5,5.5,0,0,1-4.527-3.261l-44.437,7.219a5.5,5.5,0,0,1-3.261,4.527l2.645,16.28A5.5,5.5,0,0,1,253.771,150.336Zm18.5-26.467a10.965,10.965,0,1,1-9.064,12.582h0a10.977,10.977,0,0,1,9.068-12.581Z"/><path class="cls-2" d="M220.345,143.22c6.211,1.521,7.444,2.754,8.965,8.965,1.52-6.211,2.753-7.444,8.964-8.965-6.211-1.52-7.444-2.753-8.964-8.964-.657,2.679-1.259,4.433-2.231,5.682C225.8,141.584,223.876,142.356,220.345,143.22Z"/><path class="cls-2" d="M307.014,113.743c6.21,1.521,7.443,2.754,8.964,8.965,1.521-6.211,2.754-7.444,8.965-8.965-6.211-1.521-7.444-2.754-8.965-8.965-.712,2.909-1.361,4.725-2.488,5.991C312.211,112.207,310.316,112.934,307.014,113.743Z"/><path class="cls-3" d="M46.734,11.183h-3.8V4.954H54.091V4.242H45.133V1.127H67.32V4.242H58.3v.712H69.69v6.229H65.719V7.742H58.3v5.873H54.091V7.742H46.734ZM65.155,25.125c1.424,0,1.72-.416,1.928-2.67a10.929,10.929,0,0,0,3.56,1.335c-.475,3.589-1.632,4.568-5.132,4.568H59.638c-4.391,0-5.7-.949-5.784-4.153H49.879v1.187H45.755V14.3H66.7v9.907H58.006c.059.8.505.92,2.047.92ZM47.12,11.3h6.17v2.254H47.12Zm6.17-.682H47.653V8.4H53.29Zm-3.411,6.5v.919h3.975v-.919Zm0,4.271h3.975V20.5H49.879Zm12.547-4.271H57.977v.919h4.449Zm0,4.271V20.5H57.977v.89ZM64.65,8.4v2.22H59.163V8.4Zm-5.487,2.9h6.17v2.254h-6.17Z"/><path class="cls-3" d="M95.151,11.717c-.119,6.852.238,12.4,1.662,12.4.385-.03.5-1.542.533-3.886A17.384,17.384,0,0,0,100.1,22.99c-.3,3.708-1.067,5.428-3.588,5.428-4.569,0-5.547-5.725-5.755-13.111H85.036l4.034,1.3a25.622,25.622,0,0,1-2.818,4.243,31.029,31.029,0,0,1,4.36,3.411l-3.44,3.292a29.87,29.87,0,0,0-4-3.441A30.4,30.4,0,0,1,75.9,28.951,23.96,23.96,0,0,0,72.726,25.6a25.248,25.248,0,0,0,6.912-3.946c-1.573-1.008-3.145-1.958-4.6-2.758l3.086-2.848c1.394.712,3,1.6,4.567,2.551a19.457,19.457,0,0,0,2.136-3.293H75.366v-2.58a33.409,33.409,0,0,0-3.827-2.611C74.535,7.95,76.79,4.123,77.857,0L82.4.979c-.178.653-.385,1.275-.623,1.9H98.8v3.53H80.23c-.148.3-.3.593-.474.89H96.189V10.74H78.955V8.662a20.74,20.74,0,0,1-2.344,3.055Z"/><path class="cls-3" d="M112.867,1.75a45.726,45.726,0,0,1-2.552,5.132V28.3h-4.478V13.438a33.469,33.469,0,0,1-2.581,2.758,30.856,30.856,0,0,0-2.373-4.449A31.252,31.252,0,0,0,108.744.386Zm8.306,11.15c.712,5.9,2.046,9.789,4,10.116.594.059.889-1.335,1.068-4.509A16.456,16.456,0,0,0,129.774,21c-.83,6.111-2.669,7.387-4.389,7.268-5.132-.534-7.446-5.784-8.514-14.743l-5.1.712-.624-4.153,5.339-.741c-.207-2.64-.326-5.547-.415-8.691h4.391c.029,2.877.118,5.606.3,8.1L129,7.624l.593,4.093Zm4.538-5.724a23.1,23.1,0,0,0-3.648-5.013L125.325.178a23.174,23.174,0,0,1,3.886,4.805Z"/><path class="cls-3" d="M158.377,2.433V6.081H132.185V2.433h10.678V.119h4.45V2.433ZM157.546,24c0,1.868-.356,3-1.6,3.618a10.266,10.266,0,0,1-4.746.712,12.579,12.579,0,0,0-.563-2.254h-7.386V27.35h-3.708V19.192h11.42v5.132a15.936,15.936,0,0,0,1.721,0c.385,0,.534-.089.534-.415V18.154H137.494V28.388h-4.212V14.624h24.264Zm-4.034-10.264H137.02v-6.8h16.492Zm-4.361-4.005h-8.038v1.187h8.038ZM147.193,22.01h-3.944v1.246h3.944Z"/><path class="cls-3" d="M182.084,17.027V17.8H186.3v1.9h-4.213v.8h6.229s-.029.772-.088,1.157c-.238,3.471-.564,5.1-1.187,5.784a2.52,2.52,0,0,1-1.779.89,16.246,16.246,0,0,1-2.581.089A8.272,8.272,0,0,0,182,25.78l-.386.178a11.93,11.93,0,0,0-1.185-2.4l1.513-.653H173.1V15.662c-.386.267-.8.534-1.216.772a15.262,15.262,0,0,0-1.484-2.255V24.265c0,1.6-.178,2.7-1.1,3.322-.89.652-2.018.741-3.619.741a13.053,13.053,0,0,0-.95-3.737c.712.059,1.513.03,1.81.03.267,0,.355-.09.355-.445V18.628h-1.571a38.108,38.108,0,0,1-1.572,9.611,13.6,13.6,0,0,0-3.026-1.661c1.365-4.123,1.423-10.144,1.423-14.5V1.187h8.25V12.874a12.1,12.1,0,0,0,2.551-2.017h-2.076V7.772h4.241a11.051,11.051,0,0,0,.475-1.039h-3.975V3.738h1.038a10.672,10.672,0,0,0-.83-2.492l3.144-.86A10.258,10.258,0,0,1,176.1,3.411l-1.1.327h1.572a30.432,30.432,0,0,0,.623-3.56L180.9.563c-.178,1.1-.356,2.166-.593,3.175h2.936l-.978-.267A21.453,21.453,0,0,0,183.39.3l4.034.919c-.564.95-1.069,1.81-1.484,2.522h2.26V6.733h-3.648a11.043,11.043,0,0,0,.474,1.039h3.767v3.085h-1.809a10.2,10.2,0,0,0,2.492,2.2,13.231,13.231,0,0,0-2.581,3.026c-.207-.149-.386-.3-.593-.445v1.394ZM166.9,14.654V11.747h-1.4v.326c0,.8,0,1.661-.03,2.581Zm-1.4-9.582V7.861h1.4V5.072Zm4.716,21.922a7.173,7.173,0,0,0,1.84-4.153l2.847.534a8.759,8.759,0,0,1-2.047,4.983Zm7.06-3.352A21.624,21.624,0,0,1,177.9,27.5l-2.463.445a24.349,24.349,0,0,0-.5-3.916Zm1.542-9.255h-2.076v.741h2.076Zm0,2.64h-2.076V17.8h2.076Zm0,2.669h-2.076v.8h2.076Zm-1.275-8.839c-.237.385-.475.771-.741,1.127h6.436a8.468,8.468,0,0,1-.623-1.127Zm2.225,12.458a17.63,17.63,0,0,1,1.127,3.323l-2.166.682a17.745,17.745,0,0,0-1.038-3.441Zm-.327-16.582a10.6,10.6,0,0,1-.385,1.039h2.254c-.119-.356-.237-.682-.326-1.039Zm6.289,8.4a8.648,8.648,0,0,1-.742-.741h-2.907v.741Zm-3.589,10.56a9.313,9.313,0,0,0,1.157.06.749.749,0,0,0,.681-.268,5.946,5.946,0,0,0,.565-2.58h-2.2a10.364,10.364,0,0,1,1.186,2.106Z"/><path class="cls-3" d="M206.237,27.2l-2.729-4.271a22.554,22.554,0,0,0,2.907-.534c3.768-.92,6.288-3.56,6.288-7.475,0-3.827-1.868-6.556-5.279-7.357a59.113,59.113,0,0,1-1.75,7.742c-1.75,5.933-4.42,9.908-7.92,9.908-3.679,0-6.467-3.975-6.467-9.047,0-7.061,6.081-13.052,14-13.052,7.564,0,12.34,5.22,12.34,11.954C217.628,21.328,213.949,25.9,206.237,27.2Zm-8.365-7.594c1.187,0,2.076-1.809,3.145-5.25a44.076,44.076,0,0,0,1.512-6.674,8.844,8.844,0,0,0-6.585,8.009c0,2.581.89,3.916,1.928,3.916Z"/><path class="cls-3" d="M227.364,8.1c0,1.958,0,3.886.178,5.874.356,3.885.949,6.614,2.67,6.614,1.364,0,2.4-3.708,2.848-5.725l3.618,4.45c-2.076,5.25-3.975,7.089-6.555,7.089-3.53,0-6.437-3-7.268-11.094-.3-2.818-.326-6.229-.326-8.1a17.686,17.686,0,0,0-.267-3.2l5.517.059A27.833,27.833,0,0,0,227.364,8.1ZM247.8,20.349l-4.776,1.839c-.415-4.479-1.869-12.28-5.339-16.077l4.6-1.484C245.191,8.039,247.535,16.078,247.8,20.349Z"/><path class="cls-3" d="M267.061,3.471c0,.237-.031.534-.031.86a66.528,66.528,0,0,0,7.208-.771l-.029,4.093c-1.78.267-4.391.5-7.238.623-.03.86-.03,1.691-.03,2.462,3.056-.148,5.429-.415,7.713-.682l-.03,4.212c-2.61.267-4.775.445-7.594.534.06.949.119,1.958.178,2.967a22.533,22.533,0,0,1,8.128,4.419l-2.58,4a22.679,22.679,0,0,0-5.311-3.856v.594c0,2.788-2.254,4.686-6.17,4.686-5.012,0-7.593-1.987-7.593-5.28,0-3.173,2.847-5.428,7.564-5.428.5,0,.979.03,1.453.059-.029-.682-.058-1.394-.089-2.076h-1.453c-1.572,0-4.983-.148-6.852-.386l-.059-4.212a51.482,51.482,0,0,0,6.971.564h1.334c0-.8,0-1.631.03-2.433h-.949a68.622,68.622,0,0,1-7.119-.533l-.089-4.064a56.049,56.049,0,0,0,7.178.652h1.008v-1a11.411,11.411,0,0,0-.207-2.166h4.865C267.179,1.928,267.09,2.759,267.061,3.471Zm-6.5,20.082c1.513,0,2.344-.416,2.344-1.928,0-.208,0-.5-.029-.861a13.6,13.6,0,0,0-2.226-.178c-1.66,0-2.609.653-2.609,1.483,0,.979.98,1.484,2.522,1.484Z"/><path class="cls-3" d="M279.792,21.3l3.768-3.233a53.524,53.524,0,0,1,6.347,6.437L286.081,27.8A61.833,61.833,0,0,0,279.792,21.3Z"/><path class="cls-2" d="M227.563,309.866c-.045.287-.111.748-.2,1.365a25.916,25.916,0,0,0,3.764-.309l-.11,3.169a34.336,34.336,0,0,1-4.093.22c-.11.792-.2,1.628-.309,2.442h.023a42.576,42.576,0,0,0,4.313-.264l-.089,3.147a36.512,36.512,0,0,1-3.652.2h-.9c-.044.506-.066.945-.066,1.276,0,1.65,1.056,2.442,3.014,2.442,2.927,0,4.357-1.386,4.357-2.926,0-1.5-.836-2.795-2.178-4.137l3.741-.792a8.623,8.623,0,0,1,2.067,5.369c0,3.344-3.014,5.963-8.1,5.963-3.74,0-6.2-1.606-6.2-5.347,0-.484.044-1.21.132-2.046a26.452,26.452,0,0,1-3.982-.683l.176-3.212a18.933,18.933,0,0,0,4.159.858c.088-.814.2-1.65.307-2.464a25.28,25.28,0,0,1-4.18-.792l.154-3.059a19.135,19.135,0,0,0,4.379.814c.065-.528.109-1.034.132-1.452a12.675,12.675,0,0,0,.044-2.178l3.74.2C227.782,308.59,227.672,309.25,227.563,309.866Z"/><path class="cls-2" d="M248.088,309.58l-.067,1.122a27.544,27.544,0,0,0,3.807-.748l.067,3.3c-1.21.264-2.619.483-3.961.638-.022.462-.022.924-.022,1.408v.858a18.627,18.627,0,0,1,3.873-.462c3.477,0,6.359,1.782,6.359,5.039,0,2.574-1.189,4.687-4.951,5.632a24.724,24.724,0,0,1-2.993.4l-1.21-3.455a16.752,16.752,0,0,0,2.75-.154c1.7-.286,2.927-1.1,2.927-2.442,0-1.3-1.1-2.091-2.927-2.091a15.9,15.9,0,0,0-3.761.485c.042,1.65.087,3.19.087,3.872,0,3.1-1.1,3.873-2.684,3.873-2.376,0-5.5-1.937-5.5-4.467,0-1.981,2.2-4.049,4.973-5.259-.022-.572-.022-1.144-.022-1.716v-1.254c-.353.022-.66.022-.946.022a28.48,28.48,0,0,1-3.213-.11l-.066-3.212a26.192,26.192,0,0,0,3.168.153c.33,0,.682,0,1.057-.022V309.6c0-.462-.088-1.738-.154-2.156h3.652C248.242,307.864,248.133,309.008,248.088,309.58Zm-3.762,13.62c.33,0,.638-.088.638-.858,0-.418-.023-1.166-.044-2.068-1.1.616-1.761,1.342-1.761,1.958,0,.528.749.968,1.167.968ZM259.9,312.837l-1.584,2.706a40.974,40.974,0,0,0-5.479-3.146l1.43-2.6A54.356,54.356,0,0,1,259.9,312.837Z"/><path class="cls-2" d="M264.192,310.724a15.42,15.42,0,0,0-.264-2.86h4.159a26.065,26.065,0,0,0-.22,2.86v3.014a72.825,72.825,0,0,1,9.087,3.323l-1.518,3.718a68.971,68.971,0,0,0-7.569-3.146v5.655c0,.594.132,2.332.242,3.323h-4.181a24.643,24.643,0,0,0,.264-3.323Z"/><path class="cls-2" d="M289.449,310.46h3.542a8.3,8.3,0,0,0,2.179-.286l2.706,1.672a9.816,9.816,0,0,0-.858,1.805,23.055,23.055,0,0,1-3.807,7.217,21.161,21.161,0,0,1-8.933,6.337l-3.169-2.817c4.753-1.452,7.041-3.322,8.912-5.412a14.124,14.124,0,0,0,2.9-5.5h-5.479a27.3,27.3,0,0,1-5.545,5.259l-2.993-2.223a19.969,19.969,0,0,0,6.843-6.887,11.5,11.5,0,0,0,1.166-2.618l3.895,1.276C290.307,308.986,289.779,309.888,289.449,310.46Z"/><path class="cls-2" d="M301.351,323.508a2.245,2.245,0,1,1,0,.094C301.35,323.571,301.35,323.539,301.351,323.508Zm.219-10.825-.132-3.653h4.313l-.132,3.653-.66,6.953H302.23Z"/><path class="cls-2" d="M44.611,322.818h-7.3v4.511h-3.3v-4.511H24.192v-3.081H27.6v-4.95c-.264.308-.529.616-.792.88a22.151,22.151,0,0,0-2.75-2.09,16.518,16.518,0,0,0,4.444-7.239l3.278.836c-.176.506-.374,1.034-.594,1.54H43.313V311.8H37.307v2.244h5.478v2.97H37.307v2.728h7.3ZM29.649,311.8a21.9,21.9,0,0,1-1.474,2.244h5.831V311.8Zm4.357,7.942v-2.728H30.815v2.728Z"/><path class="cls-2" d="M50.175,315.447v11.882H47.007V307.218h8.757v8.229Zm0-5.963v.749h2.6v-.749Zm2.6,3.719v-.858h-2.6v.858Zm13.18,10.473c0,1.628-.307,2.531-1.276,3.059a9.293,9.293,0,0,1-4.246.594,11.535,11.535,0,0,0-.507-2.047H54.949V326.4H52.067v-9.813h8.669v7.547h1.452c.4,0,.529-.132.529-.506v-8.119H56.974v-8.3h8.977Zm-11-4.774v.923h2.8V318.9Zm2.8,4.07v-.924h-2.8v.924Zm2.267-13.488v.749h2.706v-.749Zm2.706,3.785v-.924H60.011v.924Z"/><path class="cls-2" d="M95.659,310.031s0,1.035-.022,1.431c-.286,9.549-.55,13.091-1.474,14.3a3.177,3.177,0,0,1-2.333,1.408,18.782,18.782,0,0,1-3.476.11,7.411,7.411,0,0,0-1.079-3.212c1.343.109,2.575.109,3.169.109a1.065,1.065,0,0,0,.947-.4c.637-.66.9-3.784,1.122-10.737H87.056a16.7,16.7,0,0,1-1.783,2.728,19.761,19.761,0,0,0-2.068-1.5,17.417,17.417,0,0,1,1.563,4l-2.4,1.1c-.066-.33-.154-.7-.265-1.1l-.857.067v1.694l1.958-.639a30.58,30.58,0,0,1,1.386,4.137l-2.464.9a25.5,25.5,0,0,0-.88-3.191v6.073H78.431v-6.821a19.977,19.977,0,0,1-1.189,5.28,16.033,16.033,0,0,0-2.4-1.143,16.637,16.637,0,0,0,1.012-5.083l2.575.462v-1.452l-3.1.219-.265-2.75,1.739-.066c.264-.33.507-.682.77-1.034a19.513,19.513,0,0,0-2.509-2.949l1.475-2.222.441.374a29,29,0,0,0,1.429-3.7l2.817.968c-.836,1.562-1.739,3.279-2.508,4.511.153.2.33.4.462.572a38.032,38.032,0,0,0,1.847-3.389l2.685,1.1c-.9,1.364-1.914,2.861-2.948,4.247l1.826-.814a16.6,16.6,0,0,0,3.476-7.239l3.323.726c-.264.99-.594,1.958-.947,2.9ZM81.181,315.8c-.176-.418-.352-.814-.55-1.188-.33.44-.639.858-.969,1.254Zm6.6,5.941a20.81,20.81,0,0,0-2.53-5.061L87.8,315.4a19.847,19.847,0,0,1,2.75,4.907Z"/><path class="cls-2" d="M212.7,322.544c0,1.924-.389,2.938-1.586,3.562s-2.807.7-5.122.7a13.313,13.313,0,0,0-1.352-3.77c1.352.1,3.068.078,3.562.078s.676-.156.676-.624v-5.356H194.105v9.646H190.31V303.694H212.7Zm-18.591-9.152h5.3v-5.954h-5.3Zm14.769,0v-5.954h-5.7v5.954Z"/><polyline class="cls-2" points="56 43.375 56 88.748 165 107.104 274 88.748 274 43.375 56 43.375"/><path class="cls-4" d="M88.538,61.29a34.611,34.611,0,0,0,3.8-.9l.112,3.262a48.73,48.73,0,0,1-4.921.984,51.774,51.774,0,0,1-6.018,12.036l-3.4-1.743A44.314,44.314,0,0,0,83.842,65c-.506.028-.985.028-1.462.028-1.153,0-2.306-.028-3.516-.113l-.253-3.262a35.417,35.417,0,0,0,3.741.2c.843,0,1.687-.028,2.559-.112a23.592,23.592,0,0,0,.759-4.7l3.881.394C89.326,58.337,88.96,59.771,88.538,61.29Zm7.594,8.493c.027.815.112,2.165.168,3.571a18.376,18.376,0,0,1,5.821,3.6l-1.884,3.009a23.771,23.771,0,0,0-3.8-3.009v.281c0,2.615-1.433,4.64-5.426,4.64-3.488,0-6.243-1.547-6.243-4.64,0-2.756,2.3-4.865,6.214-4.865.675,0,1.293.056,1.941.112-.113-2.081-.253-4.584-.31-6.3h3.516C96.047,67.364,96.1,68.545,96.132,69.783Zm-5.625,8.858c1.94,0,2.531-1.069,2.531-2.615v-.563a10.1,10.1,0,0,0-2.278-.281c-1.631,0-2.671.731-2.671,1.715C88.089,77.938,88.96,78.641,90.507,78.641ZM94.219,63.68l1.8-2.784a48.41,48.41,0,0,1,6.946,3.825l-2,2.952A40.707,40.707,0,0,0,94.219,63.68Z"/><path class="cls-4" d="M118.626,60.5c-1.378,2.025-3.347,5.624-4.752,8.1a6.526,6.526,0,0,1,3.233-.844c2.11,0,3.375,1.322,3.488,3.656.056,1.265-.029,3.515.112,4.7a1.634,1.634,0,0,0,1.735,1.527q.047,0,.093-.009c2.446,0,3.938-3.149,4.753-6.636l3.037,2.474c-1.463,4.809-4.078,8.015-8.381,8.015-3.121,0-4.584-1.856-4.7-3.909-.112-1.49-.084-3.8-.169-4.949a1.543,1.543,0,0,0-1.506-1.579c-.051,0-.1,0-.153,0-1.912,0-3.486,1.969-4.5,4.246a58.989,58.989,0,0,0-2.138,6.271l-3.965-1.349a216.813,216.813,0,0,1,9.337-19.77c.366-.759.9-1.687,1.378-2.868l3.993,1.6C119.245,59.574,118.936,60.052,118.626,60.5Z"/><path class="cls-4" d="M142.454,65.452c2.306-1.35,4.752-2.559,6.074-3.319a17.613,17.613,0,0,0,2.616-1.715l1.94,3.262c-.844.507-1.744.985-2.784,1.519a82.96,82.96,0,0,0-7.846,4.162c-2.335,1.546-3.909,3.149-3.909,5.118,0,2.025,1.94,3.093,5.85,3.093a43.426,43.426,0,0,0,9.195-1.04l-.056,4.05a52.285,52.285,0,0,1-9.027.7c-5.6,0-9.843-1.547-9.843-6.384,0-3.094,1.969-5.428,4.668-7.424-1.294-2.391-2.644-5.4-3.909-8.381l3.515-1.434A66.779,66.779,0,0,0,142.454,65.452Z"/><path class="cls-4" d="M162.634,77.854a2.475,2.475,0,1,1,2.476,2.474h0A2.4,2.4,0,0,1,162.634,78Q162.631,77.929,162.634,77.854Zm.281-14.624-.141-4.19h4.669l-.14,4.19-.76,9.618h-2.868Z"/><path class="cls-4" d="M182.755,76.729h4.472V64.1h-3.769V61.543A13.5,13.5,0,0,0,188.3,59.8h3.065V76.73h3.91v3.346h-12.52Z"/><path class="cls-4" d="M213.688,64.917c-.2.507-.449,1.153-.73,1.8h10.265a20.286,20.286,0,0,0,2.5-.14v3.43c-.872-.084-1.941-.084-2.5-.084h-3.432c-.478,5.962-2.728,10.152-7.227,12.908L209.077,80.5a11.915,11.915,0,0,0,7.171-10.574h-4.921a25.83,25.83,0,0,1-3.881,4.865l-3.291-1.912A18.57,18.57,0,0,0,208.43,68.1a12.761,12.761,0,0,0,1.575-3.6,11.293,11.293,0,0,0,.393-2.053l3.938.815C214.083,63.905,213.857,64.411,213.688,64.917Z"/><path class="cls-4" d="M249.922,78.247c0,2.025-.479,2.981-1.773,3.544-1.349.59-3.318.647-6.214.647a14.341,14.341,0,0,0-1.407-3.516c1.969.113,4.331.084,4.951.084.674,0,.9-.224.9-.815V74.113H234.342a15.132,15.132,0,0,1-4.753,8.409A13.19,13.19,0,0,0,227,80.1c4.246-3.628,4.641-9,4.641-13.274V57.578H249.92Zm-3.544-7.368V67.448H235.1c-.029,1.069-.085,2.25-.2,3.431ZM235.1,60.84v3.431h11.276V60.84Z"/><path class="cls-2" d="M37.829,239.159v4.966H48.507v7.1H37.829v4.165c0,2.135.16,2.4,1.442,2.4h2.936c1.228,0,1.495-1.014,1.708-5.659a21.916,21.916,0,0,0,6.941,2.99c-.748,7.208-2.723,9.5-7.848,9.5H37.775c-6.513,0-8.062-2.295-8.062-9.183V251.22H23.947c-1.281,5.553-4.966,10.785-14.575,13.935a28.517,28.517,0,0,0-4.912-6.193c6.46-1.922,9.61-4.7,11.1-7.742h-9.6v-7.1H16.9v-4.966H13v-1.6a39.806,39.806,0,0,1-6.62,4,28.855,28.855,0,0,0-4.7-5.82,31.8,31.8,0,0,0,7.8-4.752c-1.282-1.228-3.151-2.776-4.592-3.95l4.858-4c1.281.908,2.99,2.136,4.325,3.257a31.982,31.982,0,0,0,2.456-3.524h-9.5v-6.621H20.316l1.335-.266,5.179,2.349a38.443,38.443,0,0,1-7.581,13.615H35.854a51.593,51.593,0,0,1-8.7-15.644l7-1.975A33.515,33.515,0,0,0,36.44,219.3a41.841,41.841,0,0,0,3.738-4.058L46,219.3c-2.082,1.815-4.27,3.63-6.246,5.072a20.712,20.712,0,0,0,1.762,2.028,56.714,56.714,0,0,0,5.072-5.071l5.659,3.95a78.329,78.329,0,0,1-6.353,5.126,33.169,33.169,0,0,0,7.368,4.164,29.9,29.9,0,0,0-5.393,6.727,33.586,33.586,0,0,1-5.979-3.63v1.5Zm-8.116,0H24.588v4.966h5.125Z"/><path class="cls-2" d="M63.565,234.034H56.731V222.821H76.806V221.54H60.682v-5.606h39.936v5.606H84.388v1.281h20.5v11.213H97.735V227.84H84.388v10.572H76.806V227.84H63.565Zm33.156,25.093c2.562,0,3.1-.748,3.47-4.805a19.655,19.655,0,0,0,6.407,2.4c-.855,6.46-2.937,8.222-9.237,8.222H86.79c-7.9,0-10.251-1.709-10.411-7.475H69.225V259.6H61.8V239.64H99.5v17.832H83.854c.106,1.442.907,1.655,3.683,1.655Zm-32.462-24.88H75.364v4.058H64.259Zm11.105-1.228H65.22v-4H75.364Zm-6.139,11.692v1.656h7.154v-1.656Zm0,7.689h7.154v-1.6H69.225Zm22.584-7.689H83.8v1.656h8.009Zm0,7.689v-1.6H83.8v1.6Zm4-23.385v4H85.936v-4Zm-9.877,5.232h11.1v4.058h-11.1Z"/><path class="cls-2" d="M147.924,225.758a85.08,85.08,0,0,1-6.728,13.775,136.091,136.091,0,0,1,12.6,11.586l-6.673,7.474A110.943,110.943,0,0,0,135.7,247.061a66.925,66.925,0,0,1-19.274,16.07l-7.261-6.567A56.649,56.649,0,0,0,128.916,241.4a146.706,146.706,0,0,0-14.041-9.823l5.553-6.621c4.11,2.509,9.343,6.033,13.72,9.183a57.412,57.412,0,0,0,5.233-11.639,43.072,43.072,0,0,0,1.389-5.446l9.663,3.364A47.992,47.992,0,0,0,147.924,225.758Z"/><path class="cls-2" d="M170.67,222.608v18.153c0,1.335.106,3.577.214,4.965h-9.4c.054-1.068.268-3.364.268-5.018v-18.1a41.254,41.254,0,0,0-.214-4.218h9.344C170.776,219.725,170.67,220.686,170.67,222.608Zm24.72,1.068v11.639c0,10.731-2.51,16.07-6.568,20.342-3.577,3.737-9.182,6.46-13.08,7.688l-6.781-7.155c5.553-1.228,9.718-3.2,12.921-6.513,3.577-3.791,4.324-7.581,4.324-14.949V223.676a42.275,42.275,0,0,0-.373-5.766H195.6C195.5,219.511,195.39,221.327,195.39,223.676Z"/><path class="cls-2" d="M216.481,242.79l-7.9,2.936a97.065,97.065,0,0,0-4.912-12.44l7.795-2.776C212.957,233.5,215.413,239.693,216.481,242.79Zm25.788-6.141a43.787,43.787,0,0,1-7.155,15.164,42.309,42.309,0,0,1-18.1,13.614l-6.781-6.941c5.66-1.441,13.454-5.5,17.886-11.1,3.524-4.431,6.033-11.693,6.514-18.313l9.13,2.937c-.746,2.077-1.12,3.358-1.494,4.639Zm-13.935,2.777-7.742,2.67a100.382,100.382,0,0,0-4.431-11.96l7.688-2.51c1.068,2.35,3.684,9.291,4.485,11.8Z"/><path class="cls-2" d="M256.365,224.049a37.316,37.316,0,0,0-.64-6.94h10.09a63.452,63.452,0,0,0-.534,6.94v7.315a176.468,176.468,0,0,1,22.051,8.062l-3.684,9.023a166.534,166.534,0,0,0-18.367-7.635v13.722c0,1.441.321,5.659.588,8.062H255.725a59.774,59.774,0,0,0,.64-8.062Z"/><path class="cls-2" d="M298.705,255.069a5.446,5.446,0,1,1,0,.006Zm.534-26.268-.32-8.863h10.465l-.321,8.863-1.6,16.872h-6.621Z"/><path class="cls-2" d="M303.379,195.569l-2.856-4.469a23.573,23.573,0,0,0,3.041-.559c3.943-.962,6.581-3.724,6.581-7.821,0-4-1.956-6.859-5.525-7.7a61.679,61.679,0,0,1-1.831,8.1c-1.831,6.207-4.624,10.366-8.287,10.366-3.848,0-6.766-4.159-6.766-9.467,0-7.386,6.363-13.655,14.65-13.655,7.914,0,12.911,5.462,12.911,12.507C315.3,189.424,311.448,194.2,303.379,195.569Zm-8.752-7.945c1.241,0,2.172-1.894,3.289-5.494a45.871,45.871,0,0,0,1.583-6.983,9.254,9.254,0,0,0-6.89,8.38c0,2.7.931,4.1,2.018,4.1Z"/><path class="cls-2" d="M30.34,172.383s0,1.459-.031,2.017c-.4,13.47-.776,18.467-2.08,20.174a4.47,4.47,0,0,1-3.29,1.986,26.658,26.658,0,0,1-4.9.155,10.467,10.467,0,0,0-1.52-4.531c1.893.155,3.631.155,4.469.155a1.5,1.5,0,0,0,1.334-.558c.9-.931,1.273-5.339,1.583-15.146H18.2a23.437,23.437,0,0,1-2.514,3.848,27.972,27.972,0,0,0-2.917-2.11,24.42,24.42,0,0,1,2.2,5.648l-3.383,1.552c-.093-.465-.217-.993-.372-1.552L10,184.115V186.5l2.762-.9a43.121,43.121,0,0,1,1.956,5.835l-3.477,1.273a36.154,36.154,0,0,0-1.241-4.5v8.566H6.038v-9.621A28.088,28.088,0,0,1,4.362,194.6a22.751,22.751,0,0,0-3.383-1.614,23.431,23.431,0,0,0,1.428-7.169l3.631.652v-2.049l-4.376.31-.372-3.879,2.451-.093c.373-.466.714-.962,1.087-1.459a27.591,27.591,0,0,0-3.538-4.159l2.079-3.134.621.527a40.728,40.728,0,0,0,2.017-5.214l3.972,1.365c-1.178,2.2-2.451,4.625-3.538,6.363.218.28.466.559.653.807A53.556,53.556,0,0,0,9.7,171.08l3.787,1.551c-1.272,1.925-2.7,4.035-4.159,5.99l2.576-1.148a23.433,23.433,0,0,0,4.9-10.211l4.686,1.024c-.372,1.4-.838,2.762-1.334,4.1ZM9.918,180.515c-.248-.59-.5-1.149-.776-1.677-.465.621-.9,1.211-1.366,1.769Zm9.311,8.38a29.413,29.413,0,0,0-3.57-7.139l3.6-1.8a27.99,27.99,0,0,1,3.88,6.921Z"/><path class="cls-2" d="M248.347,190.617c0,2.565-.521,3.917-2.116,4.749s-3.744.936-6.83.936a17.816,17.816,0,0,0-1.8-5.027c1.8.139,4.091.1,4.75.1s.9-.208.9-.832V183.4H223.559v12.862H218.5V165.482h29.85Zm-24.788-12.2h7.072v-7.939h-7.072Zm19.691,0v-7.939h-7.593v7.939Z"/><path class="cls-2" d="M274.769,163.61a42.308,42.308,0,0,0,10.261,12.273,25.617,25.617,0,0,0-4.3,4.576c-.486-.485-1-1-1.525-1.56-.312,9.742-.693,13.728-1.838,15.184a4.825,4.825,0,0,1-3.467,1.942,32.44,32.44,0,0,1-5.13.173,11.939,11.939,0,0,0-1.665-5.1c1.734.139,3.364.173,4.23.173a1.711,1.711,0,0,0,1.387-.52c.624-.693.936-3.57,1.178-9.984h-5.685c-.832,6.552-3.12,12.342-12.273,15.809a16.628,16.628,0,0,0-3.294-4.681c7.593-2.5,9.4-6.552,10.055-11.128h-5.2v-2.219a27.741,27.741,0,0,1-2.426,2.184,37.494,37.494,0,0,0-4.334-4.09,28.5,28.5,0,0,0,10.193-12.966l5.477,1.594a43.988,43.988,0,0,1-6.482,10.609h16.674a64.643,64.643,0,0,1-6.829-10.3Z"/><path class="cls-3" d="M231.058,115.756l.406.407-4.622,4.622,4.622,4.623-.406.406-4.622-4.623-4.637,4.637-.406-.407,4.636-4.636-4.623-4.622.407-.407,4.623,4.623Zm-8.615,6.079a1.051,1.051,0,1,1,1.051-1.051h0A1.059,1.059,0,0,1,222.443,121.835Zm2.942-5.042a1.051,1.051,0,1,1,1.052,1.05h0A1.059,1.059,0,0,1,225.385,116.793Zm2.1,7.984a1.051,1.051,0,1,1-1.052-1.05h0a1.059,1.059,0,0,1,1.051,1.05Zm2.942-5.043a1.051,1.051,0,1,1-1.051,1.051h0a1.059,1.059,0,0,1,1.052-1.051Z"/><path class="cls-2" d="M48.675,195.724,68.62,127.085H56.14v9.137H46.112V116.389H79.986v11.364L60.709,195.724Z"/><path class="cls-2" d="M79.54,203.97V184.359H90.905v11.365Z"/><path class="cls-2" d="M97.144,132.768a17.332,17.332,0,0,1,1.393-7.132,16.723,16.723,0,0,1,3.733-5.348,16.057,16.057,0,0,1,5.4-3.4,18.128,18.128,0,0,1,12.814,0,16.067,16.067,0,0,1,5.4,3.4,16.757,16.757,0,0,1,3.734,5.348,17.364,17.364,0,0,1,1.392,7.132v46.577a17.357,17.357,0,0,1-1.392,7.132,16.712,16.712,0,0,1-3.734,5.348,16.036,16.036,0,0,1-5.4,3.4,18.128,18.128,0,0,1-12.814,0,16.026,16.026,0,0,1-5.4-3.4,16.679,16.679,0,0,1-3.733-5.348,17.325,17.325,0,0,1-1.393-7.132Zm11.366,46.577a5.616,5.616,0,0,0,1.56,4.068,5.79,5.79,0,0,0,8.023,0,5.625,5.625,0,0,0,1.56-4.068V132.768a5.629,5.629,0,0,0-1.56-4.068,5.79,5.79,0,0,0-8.023,0,5.621,5.621,0,0,0-1.56,4.068Z"/><path class="cls-2" d="M136.366,132.768a17.315,17.315,0,0,1,1.393-7.132,16.723,16.723,0,0,1,3.733-5.348,16.057,16.057,0,0,1,5.4-3.4,18.128,18.128,0,0,1,12.814,0,16.067,16.067,0,0,1,5.4,3.4,16.772,16.772,0,0,1,3.734,5.348,17.364,17.364,0,0,1,1.392,7.132v46.577a17.357,17.357,0,0,1-1.392,7.132,16.728,16.728,0,0,1-3.734,5.348,16.036,16.036,0,0,1-5.4,3.4,18.128,18.128,0,0,1-12.814,0,16.026,16.026,0,0,1-5.4-3.4,16.679,16.679,0,0,1-3.733-5.348,17.309,17.309,0,0,1-1.393-7.132Zm11.366,46.577a5.616,5.616,0,0,0,1.56,4.068,5.79,5.79,0,0,0,8.023,0,5.625,5.625,0,0,0,1.56-4.068V132.768a5.629,5.629,0,0,0-1.56-4.068,5.79,5.79,0,0,0-8.023,0,5.621,5.621,0,0,0-1.56,4.068Z"/><path class="cls-2" d="M175.588,132.768a17.315,17.315,0,0,1,1.393-7.132,16.723,16.723,0,0,1,3.733-5.348,16.057,16.057,0,0,1,5.4-3.4,18.128,18.128,0,0,1,12.814,0,16.067,16.067,0,0,1,5.4,3.4,16.754,16.754,0,0,1,3.733,5.348,17.348,17.348,0,0,1,1.393,7.132v46.577a17.341,17.341,0,0,1-1.393,7.132,16.71,16.71,0,0,1-3.733,5.348,16.036,16.036,0,0,1-5.4,3.4,18.128,18.128,0,0,1-12.814,0,16.026,16.026,0,0,1-5.4-3.4,16.679,16.679,0,0,1-3.733-5.348,17.309,17.309,0,0,1-1.393-7.132Zm11.366,46.577a5.616,5.616,0,0,0,1.56,4.068,5.79,5.79,0,0,0,8.023,0,5.625,5.625,0,0,0,1.56-4.068V132.768a5.629,5.629,0,0,0-1.56-4.068,5.79,5.79,0,0,0-8.023,0,5.621,5.621,0,0,0-1.56,4.068Z"/><path class="cls-2" d="M101.529,304.488c0-.81.028-1.5.084-2.078a6.864,6.864,0,0,1,.294-1.491,7.132,7.132,0,0,1,.483-1.135,7.917,7.917,0,0,1,.694-1.049,5.782,5.782,0,0,1,2.1-1.7,6.421,6.421,0,0,1,5.459,0,5.81,5.81,0,0,1,2.1,1.7,10.42,10.42,0,0,1,.714,1.049,5.854,5.854,0,0,1,.776,2.626c.042.574.064,1.268.064,2.078q0,1.345-.042,2.269A6.992,6.992,0,0,1,114,308.4a3.849,3.849,0,0,1-.651,1.281,7.968,7.968,0,0,1-1.2,1.2,6.4,6.4,0,0,1,1.2,1.175,4,4,0,0,1,.651,1.386,9.177,9.177,0,0,1,.252,1.954q.041,1.155.042,2.835,0,1.385-.064,2.288a13.922,13.922,0,0,1-.188,1.576,4.357,4.357,0,0,1-.358,1.133,9.211,9.211,0,0,1-.566.967,6.329,6.329,0,0,1-10.416,0,8.907,8.907,0,0,1-.568-.967,4.321,4.321,0,0,1-.357-1.133,14.136,14.136,0,0,1-.189-1.576q-.063-.9-.063-2.288,0-1.68.042-2.835a9.113,9.113,0,0,1,.252-1.954,3.963,3.963,0,0,1,.651-1.386,6.382,6.382,0,0,1,1.2-1.175,7.933,7.933,0,0,1-1.2-1.2,3.813,3.813,0,0,1-.651-1.281,6.94,6.94,0,0,1-.252-1.638Q101.529,305.835,101.529,304.488Zm8.485-1.679a1.993,1.993,0,0,0-.631-1.491,2.079,2.079,0,0,0-2.94,0,2,2,0,0,0-.63,1.491v4.368a1.992,1.992,0,0,0,.63,1.491,2.079,2.079,0,0,0,2.94,0,1.99,1.99,0,0,0,.631-1.491Zm0,11.761a1.988,1.988,0,0,0-.631-1.491,2.076,2.076,0,0,0-2.94,0,1.991,1.991,0,0,0-.63,1.491v5.879a1.991,1.991,0,0,0,.63,1.491,2.079,2.079,0,0,0,2.94,0,1.988,1.988,0,0,0,.631-1.491Z"/><path class="cls-2" d="M124.629,326.582v-4.453H116.1V318.1l6.174-21.42h4.537l-6.427,21.42h4.242v-8.526h4.285V318.1h2.058v4.032h-2.058v4.453Z"/><path class="cls-2" d="M133.113,329.689V322.3H137.4v4.284Z"/><path class="cls-2" d="M140.589,302.851a6.523,6.523,0,0,1,.525-2.687,6.27,6.27,0,0,1,1.408-2.017,6.028,6.028,0,0,1,2.037-1.281,6.833,6.833,0,0,1,4.83,0,6.047,6.047,0,0,1,2.037,1.281,6.3,6.3,0,0,1,1.407,2.017,6.539,6.539,0,0,1,.525,2.687v17.556a6.538,6.538,0,0,1-.525,2.688,6.3,6.3,0,0,1-1.407,2.017,6.079,6.079,0,0,1-2.037,1.281,6.833,6.833,0,0,1-4.83,0,6.059,6.059,0,0,1-2.037-1.281,6.27,6.27,0,0,1-1.408-2.017,6.521,6.521,0,0,1-.525-2.688Zm4.285,17.556a2.114,2.114,0,0,0,.587,1.533,2.183,2.183,0,0,0,3.025,0,2.119,2.119,0,0,0,.588-1.533V302.851a2.126,2.126,0,0,0-.588-1.533,2.183,2.183,0,0,0-3.025,0,2.121,2.121,0,0,0-.587,1.533Z"/><path class="cls-2" d="M156.213,302.851a6.507,6.507,0,0,1,.526-2.687,6.252,6.252,0,0,1,1.407-2.017,6.028,6.028,0,0,1,2.037-1.281,6.833,6.833,0,0,1,4.83,0,6.038,6.038,0,0,1,2.037,1.281,6.3,6.3,0,0,1,1.407,2.017,6.539,6.539,0,0,1,.525,2.687v17.556a6.538,6.538,0,0,1-.525,2.688,6.3,6.3,0,0,1-1.407,2.017,6.069,6.069,0,0,1-2.037,1.281,6.833,6.833,0,0,1-4.83,0,6.059,6.059,0,0,1-2.037-1.281,6.252,6.252,0,0,1-1.407-2.017,6.505,6.505,0,0,1-.526-2.688Zm4.285,17.556a2.111,2.111,0,0,0,.588,1.533,2.181,2.181,0,0,0,3.024,0,2.115,2.115,0,0,0,.588-1.533V302.851a2.121,2.121,0,0,0-.588-1.533,2.181,2.181,0,0,0-3.024,0,2.117,2.117,0,0,0-.588,1.533Z"/><path class="cls-2" d="M171.837,302.851a6.507,6.507,0,0,1,.526-2.687,6.252,6.252,0,0,1,1.407-2.017,6.028,6.028,0,0,1,2.037-1.281,6.833,6.833,0,0,1,4.83,0,6.038,6.038,0,0,1,2.037,1.281,6.3,6.3,0,0,1,1.407,2.017,6.539,6.539,0,0,1,.525,2.687v17.556a6.538,6.538,0,0,1-.525,2.688,6.3,6.3,0,0,1-1.407,2.017,6.069,6.069,0,0,1-2.037,1.281,6.833,6.833,0,0,1-4.83,0,6.059,6.059,0,0,1-2.037-1.281,6.252,6.252,0,0,1-1.407-2.017,6.505,6.505,0,0,1-.526-2.688Zm4.285,17.556a2.111,2.111,0,0,0,.588,1.533,2.181,2.181,0,0,0,3.024,0,2.115,2.115,0,0,0,.588-1.533V302.851a2.121,2.121,0,0,0-.588-1.533,2.181,2.181,0,0,0-3.024,0,2.117,2.117,0,0,0-.588,1.533Z"/></svg>