<svg id="レイヤー_1" data-name="レイヤー 1" xmlns="http://www.w3.org/2000/svg" viewBox="0 0 390 152.832"><defs><style>.cls-1{fill:#df1614;}.cls-2{fill:#ffd900;}</style></defs><rect class="cls-1" width="390" height="54"/><path class="cls-2" d="M42.225,24.442c1.982,6.092,5.647,11.158,11.265,13.6a14.382,14.382,0,0,0-2.674,3.347c-5.677-2.834-9.162-7.87-11.475-14.353a22.493,22.493,0,0,1-3.455,7.538l2.464-1.719a38.9,38.9,0,0,1,5.557,5.579l-3.3,2.473a37.642,37.642,0,0,0-5.168-5.7,21.575,21.575,0,0,1-7.84,6.182,11.033,11.033,0,0,0-2.674-3.045,18.2,18.2,0,0,0,11.086-13.9H25.883V20.733H36.517c.241-2.624.21-5.187.241-7.479h3.9c-.031,2.323-.06,4.855-.271,7.479H52.679v3.709Z"/><path class="cls-2" d="M71.785,28.6a12.63,12.63,0,0,1-.751,1.417H82.45l-.091,1.206c-.3,5.79-.691,8.172-1.442,9.016A2.759,2.759,0,0,1,79.085,41.3a20.275,20.275,0,0,1-2.884.09,7.556,7.556,0,0,0-.781-2.955c.842.09,1.532.121,1.923.121a.893.893,0,0,0,.841-.362c.36-.422.631-1.869.871-5.4h-.721a21.531,21.531,0,0,1-5.918,8.5,23.13,23.13,0,0,0-2.193-1.99A16.088,16.088,0,0,0,75.24,32.8h-1.5a22.107,22.107,0,0,1-7.33,7.9,21.991,21.991,0,0,0-1.952-2.231,17.136,17.136,0,0,0,6.068-5.67H69.082a16.761,16.761,0,0,1-3.365,3.046,21.114,21.114,0,0,0-1.832-1.9,4.745,4.745,0,0,1-1.592.543,12.867,12.867,0,0,1-1.923.06,7.617,7.617,0,0,0-.781-3.045c.541.03.931.03,1.322.03a1.55,1.55,0,0,0,.841-.272c.33-.241.451-.844.451-1.688a8.093,8.093,0,0,0-2.073-5.278c.6-1.9,1.232-4.523,1.712-6.573H59.5V41.389H56.405V14.521h6.518l.511-.151,2.343,1.357c-.78,2.563-1.772,5.85-2.613,8.2a9.307,9.307,0,0,1,2.193,6.061,6.955,6.955,0,0,1-.451,2.744,14.349,14.349,0,0,0,3.6-4.131H65.357V25.8H83.231V28.6Zm9.343-3.981H67.7V14.34H81.128ZM77.7,16.843H70.884V18.29H77.7Zm0,3.8H70.884V22.12H77.7Z"/><path class="cls-2" d="M108.706,37.922c.961,0,1.141-.664,1.262-4.765a10.993,10.993,0,0,0,3.274,1.448c-.361,5.277-1.262,6.694-4.236,6.694h-3.575c-3.394,0-4.235-1.146-4.235-4.584V27.608H96.93c-.51,6.333-1.892,11.158-9.763,13.811A10.115,10.115,0,0,0,85,38.283c6.88-2.05,7.69-5.759,8.111-10.675h-7.33V24.231H97.321V13.224h3.6V24.231h11.836v3.377H104.8v9.077c0,1.056.15,1.237,1.141,1.237ZM91.042,23.176a35.162,35.162,0,0,0-3.094-7.449l3.214-1.236a31.921,31.921,0,0,1,3.365,7.3Zm20.037-7.6a66.888,66.888,0,0,1-4.145,7.417l-3.125-1.176a35.782,35.782,0,0,0,3.455-7.538Z"/><path class="cls-2" d="M134.722,26.794V30.2h6.4v3.287h-6.4v3.257c0,1.085.12,1.266.961,1.266H138c.781,0,.931-.6,1.051-3.438a8.886,8.886,0,0,0,3.215,1.418c-.361,3.98-1.292,5.186-3.936,5.186h-3.274c-3.244,0-4.055-1.055-4.055-4.4V33.489h-3.966c-.661,3.166-2.643,6.152-8.2,8.021a13.661,13.661,0,0,0-2.283-2.865c4.146-1.266,5.948-3.136,6.7-5.156H117.3V30.2h6.429V26.794H121.2v-1a24.5,24.5,0,0,1-4,2.382,15.58,15.58,0,0,0-2.163-2.714,18.543,18.543,0,0,0,4.987-3.106,32.155,32.155,0,0,0-2.974-2.563l2.253-1.869c.9.633,2.043,1.507,2.884,2.231a16.8,16.8,0,0,0,1.892-2.714h-6.128V14.37H125.8l.631-.121,2.373,1.116a21.005,21.005,0,0,1-4.867,8.022h10.875a27.6,27.6,0,0,1-5.467-9.228l3.214-.905a20.987,20.987,0,0,0,1.5,3.227,28.431,28.431,0,0,0,2.673-2.8l2.7,1.929c-1.232,1.116-2.613,2.292-3.845,3.2.421.543.871,1.056,1.322,1.568a25.237,25.237,0,0,0,3.394-3.257l2.613,1.87a40.1,40.1,0,0,1-4,3.257,18.346,18.346,0,0,0,4.686,2.774,12.9,12.9,0,0,0-2.463,3.076,20.885,20.885,0,0,1-3.695-2.262v.965Zm-3.725,0h-3.7V30.2H131Z"/><path class="cls-2" d="M149.322,24.2h-3.154V18.079h11.325V16.933h-9.282V14.28H170.35v2.653h-9.372v1.146h11.565V24.2h-3.3v-3.74h-8.261v6.273h-3.485V20.461h-8.171Zm19.256,14.354c1.5,0,1.772-.453,1.983-3.016a9.11,9.11,0,0,0,2.974,1.146c-.421,3.619-1.382,4.614-4.656,4.614H162.57c-4.115,0-5.257-.875-5.257-4.041v-.09h-4.987v1.327h-3.394V27.548H169.72v9.62h-8.983v.09c0,1.116.331,1.3,2.164,1.3ZM149.923,24.472h6.489v1.96h-6.489Zm6.489-1.055h-5.918v-1.93h5.918Zm-4.086,6.543v1.328h4.987V29.96Zm4.987,4.8v-1.3h-4.987v1.3Zm8.862-4.8h-5.438v1.328h5.438Zm0,4.8v-1.3h-5.438v1.3Zm1.8-13.268v1.93h-5.858v-1.93Zm-5.858,2.985h6.549v1.96h-6.549Z"/><path class="cls-2" d="M182.969,17.929l4.385.9c-.27.875-.6,2.352-.721,3.016a70.4,70.4,0,0,1-2.553,9.076,41.468,41.468,0,0,1-4.446,8.625l-4.2-1.779a36.431,36.431,0,0,0,4.686-8.383A43.612,43.612,0,0,0,182.969,17.929Zm7.63.9,4-1.3c1.232,2.323,3.3,6.966,4.446,9.892,1.051,2.714,2.643,7.538,3.484,10.524L198.079,39.4a93.591,93.591,0,0,0-3.125-10.645A84.706,84.706,0,0,0,190.6,18.833Zm9.552-5.368a3.6,3.6,0,1,1-3.605,3.619A3.623,3.623,0,0,1,200.151,13.465Zm0,5.338a1.734,1.734,0,1,0-1.742-1.719A1.741,1.741,0,0,0,200.151,18.8Z"/><path class="cls-2" d="M221.541,16.9v1.568h3.6a8.975,8.975,0,0,0,2.493-.3l2.494,2.442c-.781.754-1.683,1.779-2.343,2.5a45.5,45.5,0,0,1-6.309,5.911c0,2.412-.03,5.7-.03,7.6,0,1.206.12,2.925.211,3.86h-4.326a34.915,34.915,0,0,0,.24-3.86V31.468a52.527,52.527,0,0,1-9.222,3.709l-2.314-3.558A37.214,37.214,0,0,0,218.3,26.583a19.913,19.913,0,0,0,5.047-4.493H212.469c-1.081,0-2.974.03-3.905.121V18.26a28.139,28.139,0,0,0,3.845.211h5.2V16.9a19.575,19.575,0,0,0-.18-2.774h4.3A24.837,24.837,0,0,0,221.541,16.9Zm1.832,13.781,2.494-2.895a67.576,67.576,0,0,1,7.21,4.373l-2.524,3.317A47.209,47.209,0,0,0,223.373,30.684Z"/><path class="cls-2" d="M240.738,30.443c.841-2.593.871-8.293.871-11.942a11.5,11.5,0,0,0-.27-2.774h4.416a19.735,19.735,0,0,0-.211,2.744c0,3.559-.09,9.922-.9,12.967a17.692,17.692,0,0,1-5.347,8.655l-3.665-2.443A14.22,14.22,0,0,0,240.738,30.443Zm9.042,5.428V18.29a13.527,13.527,0,0,0-.24-2.593h4.476a15.346,15.346,0,0,0-.211,2.623V34.092a19.038,19.038,0,0,0,7.42-6.363l2.313,3.317a33.1,33.1,0,0,1-10.183,8.232,6.494,6.494,0,0,0-1.292.905L249.54,38.1A11.52,11.52,0,0,0,249.78,35.871Z"/><path class="cls-2" d="M269.548,31.378a28,28,0,0,1-1.8,7.78,17.73,17.73,0,0,0-2.733-1.3,21.99,21.99,0,0,0,1.592-7ZM292.919,18.32s0,1.207-.03,1.659c-.391,13.208-.811,17.973-2.073,19.571a3.716,3.716,0,0,1-2.884,1.658,28.471,28.471,0,0,1-4.686.091,8.6,8.6,0,0,0-1.2-3.619c1.893.181,3.605.181,4.416.181a1.478,1.478,0,0,0,1.262-.513c.9-.934,1.351-5.337,1.682-15.62h-8.291a24.815,24.815,0,0,1-2.553,3.89,22.989,22.989,0,0,0-2.824-1.99,24.108,24.108,0,0,1,2.343,5.639l-2.7,1.267a16.443,16.443,0,0,0-.42-1.629l-1.712.121V41.419h-3.155V29.267l-4.446.3-.3-3.137,2.223-.09c.451-.573.931-1.206,1.382-1.87a28.432,28.432,0,0,0-3.605-4.131l1.682-2.473.721.633a39.924,39.924,0,0,0,2.193-5.247l3.155,1.116c-1.082,2.081-2.314,4.4-3.4,6.091.39.423.751.875,1.051,1.267a47.218,47.218,0,0,0,2.764-4.945l3.034,1.266a97.019,97.019,0,0,1-5.738,8.172l3.034-.121c-.33-.723-.691-1.447-1.051-2.08l2.523-1.116.211.362a24.05,24.05,0,0,0,4.956-10.042l3.665.784a34.518,34.518,0,0,1-1.472,4.312ZM275.946,30.684a34.57,34.57,0,0,1,1.953,5.67l-2.824.994a30.754,30.754,0,0,0-1.772-5.819Zm7.03,3.076a28.563,28.563,0,0,0-3.665-6.966l2.854-1.447a28.447,28.447,0,0,1,3.9,6.754Z"/><path class="cls-2" d="M302.8,36.082l2.073-2.8a7.051,7.051,0,0,0,4.957,2.293c2.253,0,3.785-1.086,3.785-2.956,0-2.111-1.292-3.408-6.128-3.408v-3.2c4.085,0,5.407-1.357,5.407-3.227,0-1.688-1.081-2.683-2.974-2.683a6.07,6.07,0,0,0-4.206,1.99l-2.253-2.714a9.875,9.875,0,0,1,6.669-2.775c4.3,0,7.21,2.111,7.21,5.851,0,2.352-1.382,3.98-3.695,4.915v.151a5.468,5.468,0,0,1,4.416,5.368c0,3.98-3.575,6.3-7.811,6.3A9.435,9.435,0,0,1,302.8,36.082Z"/><path class="cls-2" d="M325.094,14.7h4.356V29.146h.12l5.737-7.267h4.837l-5.768,6.966,6.309,9.921h-4.777l-4.085-7-2.373,2.714v4.282h-4.356Z"/><path class="cls-2" d="M341.707,21.879h4.416l1.832,8.323c.331,1.658.541,3.257.841,4.946h.12c.331-1.689.631-3.318,1.052-4.946l2.043-8.323h3.9l2.1,8.323c.391,1.658.691,3.257,1.052,4.946h.15c.3-1.689.541-3.288.841-4.946l1.833-8.323h4.085l-4.145,16.887h-5.2l-1.773-7.358c-.36-1.6-.631-3.136-.961-4.915h-.15c-.331,1.779-.571,3.347-.931,4.915l-1.713,7.358h-5.047Z"/><path class="cls-1" d="M36.03,128.5c-.776-2.253-2.1-5.206-3.418-8.236v30.768H22.434V125.625a55.449,55.449,0,0,1-5.75,11.965,56.7,56.7,0,0,0-4.817-10.023c4.273-5.9,7.925-15.695,9.79-24.241H13.809V92.914h8.625v-15.7H32.612v15.7H39.76v10.412H32.612v2.641c2.176,3.031,7.925,12.355,9.168,14.53Zm19.891,8.78a51.3,51.3,0,0,1-11.965,12.509,43.757,43.757,0,0,0-6.838-6.837A39.011,39.011,0,0,0,47.3,132.618Zm12.432-4.74v8.936c0,4.195-.622,6.682-3.341,8.158-2.642,1.4-5.905,1.476-9.868,1.476A36.933,36.933,0,0,0,52.27,142.1a32.624,32.624,0,0,0,4.661.078c.777,0,1.01-.156,1.01-.855v-8.78H40.148v-8.857H86.379v8.857ZM53.047,89.107H40.537V80.25H86.068v8.857H72.859v2.642H84.048v20.512H42.635V91.749H53.047Zm-7.77,32.944v-8H82.028v8ZM51.8,104.258h2.409V99.752H51.8Zm9.79-4.506v4.506h2.642V99.752Zm2.642-10.645H61.671v2.642h2.564ZM76.9,132.7c3.574,3.264,8.08,7.926,10.1,11.267l-8.469,5.827c-1.787-3.263-6.06-8.313-9.556-11.888ZM74.413,99.752h-2.8v4.506h2.8Z"/><path class="cls-1" d="M166.328,138.6H135.715v12.431H124.06V138.6H94.612V128.577H124.06v-3.729h-4.584V102.7a22.116,22.116,0,0,1-2.02,1.865,81.806,81.806,0,0,0-7.848-7.3l-4.817,6.605a66.837,66.837,0,0,0-11.655-6.76l5.828-7.537a72.117,72.117,0,0,1,11.5,5.672,52.2,52.2,0,0,0,14.374-18.414l10.955,3.341a51.607,51.607,0,0,1-2.641,4.973h5.594a61.091,61.091,0,0,0,3.185-7.77l12.277,1.942q-1.864,3.03-3.73,5.828H163.3v8.624h-15v2.408h12.044v7.693H148.3v2.253h12.044v7.692H148.3v2.331h16.706v8.7H135.715v3.729h30.613Zm-49.183-29.137c-4.429,5.517-9.246,11.189-14.219,16.7l-7.847-8.392a175.084,175.084,0,0,0,16.083-15.772Zm-6.838-18.026C107.9,89.263,102.693,86.31,98.73,84.6l5.828-7.615a50.717,50.717,0,0,1,11.965,6.061Zm27.272,2.331h-7.148v2.408h7.148Zm0,10.1h-7.148v2.253h7.148Zm-7.148,12.276h7.148v-2.331h-7.148Z"/><path class="cls-1" d="M229.26,99.286c5.362,6.371,12.432,11.732,19.658,14.218a54.047,54.047,0,0,0-5.827,9.868,52.278,52.278,0,0,1-8.625-5.361v4.273H210.613v-4.04a53.192,53.192,0,0,1-9.945,6.216,44.214,44.214,0,0,0-2.72-5.439l-3.574,1.087v18.57c0,5.284-.777,8.236-3.651,10.023-2.876,1.865-6.916,2.253-12.354,2.253a42.835,42.835,0,0,0-3.109-11.032c2.8.155,5.905.155,6.916.155s1.4-.389,1.4-1.476V123.294l-7.692,2.176-2.331-10.956c2.8-.544,6.294-1.4,10.023-2.253V101.772H175.26V91.438h8.314V77.3h10.8V91.438h5.05v10.334h-5.05v7.77l4.662-1.243.7,4.817A52.669,52.669,0,0,0,215.2,98.9h-7.769V93.225H199.5V83.746h7.926V77.219h10.411v6.527h10.023V77.219h10.644v6.527h8.236v9.479h-8.236v6.061Zm-25.173,26.8H241.3V150.8H230.736v-2.175H214.187v2.408h-10.1Zm10.1,8.78v4.973h16.549v-4.973ZM228.95,113.5a51.93,51.93,0,0,1-6.682-7.459,44.012,44.012,0,0,1-6.294,7.459ZM217.839,93.225v3.186h9.168l.855,1.165V93.225Z"/><path class="cls-1" d="M325.836,108.454a87.688,87.688,0,0,1-12.587,25.64c1.321,3.807,2.8,5.983,4.351,5.983,1.4,0,2.1-3.807,2.487-12.51a27.326,27.326,0,0,0,8.857,6.061c-1.476,14.141-4.817,17.4-12.354,17.4-4.739,0-8.313-2.952-11.032-8a76.267,76.267,0,0,1-10.334,8.236,32.816,32.816,0,0,0-5.284-6.6H281.7v6.449h-9.79v-6.449H257.385v-8h14.529v-2.253H259.56V114.981h12.2v-2.254H258.4v-7.769h13.364v-2.409h-15.54V93.381h15.307V90.428H259.793V81.959h11.733V77.3h10.722v4.662h11.5v8.469h-11.5v2.953h15c-.078-5.284-.156-10.723-.156-16.084h11.344c-.155,5.361-.233,10.8-.078,16.084h9.557a75.528,75.528,0,0,0-8.391-10.8l8.314-5.439a79.57,79.57,0,0,1,9.246,10.722L319,93.381h8.625v9.168H308.665c.311,6.06.855,11.81,1.554,16.86a73.078,73.078,0,0,0,5.672-13.985ZM267.33,122.206h5.439v-2.02H267.33Zm0,6.993h5.439v-2.02H267.33Zm18.958-6.993v-2.02h-5.439v2.02Zm0,6.993v-2.02h-5.439v2.02Zm8.547,8.78a61.137,61.137,0,0,0,6.605-6.061c-2.021-8.235-3.186-18.414-3.808-29.369H281.859v2.409h13.287v7.769H281.859v2.254h12.588v19.424H281.7v2.253h13.131Z"/><path class="cls-1" d="M342.056,142.761c0-5.826,4.246-9.874,10.072-9.874s10.071,4.048,10.071,9.874a10.072,10.072,0,0,1-20.143,0Zm.988-48.579-.593-16.391H361.8l-.592,16.391-2.962,31.2H346.006Z"/></svg>