<svg id="レイヤー_1" data-name="レイヤー 1" xmlns="http://www.w3.org/2000/svg" viewBox="0 0 293 120"><defs><style>.cls-1{fill:#1a1a1a;}.cls-2{fill:#fff;}.cls-3{fill:#ffd900;}</style></defs><path class="cls-1" d="M52.825,19.47a27.678,27.678,0,0,0,9.042,5.069,18.052,18.052,0,0,0-3.124,3.811,28.689,28.689,0,0,1-9.162-6.54v6.75H45.014V21.99a27.372,27.372,0,0,1-8.982,6.3,20.485,20.485,0,0,0-3-3.66A27.307,27.307,0,0,0,41.89,19.47H36.453V7.65h8.561V6.391H33.99V2.34H45.014V.061h4.567V2.34H60.906V6.391H49.581V7.65h8.952V19.47ZM40.719,12.061h4.3v-1.2h-4.3Zm0,4.2h4.3V15.029h-4.3Zm8.862-5.4v1.2h4.476v-1.2Zm4.476,4.17H49.581V16.26h4.476Z"/><path class="cls-1" d="M76.739,24.57c-.391-.48-.932-1.08-1.5-1.71v5.67H71V23.549a19.535,19.535,0,0,1-3.094,3.33,18.413,18.413,0,0,0-2.823-3.09,18.541,18.541,0,0,0,5.107-5.25H66.014V14.91H71V13.08H65.924V9.54h2.433a12.484,12.484,0,0,0-.751-2.7L69.2,6.45H66.284V2.94H71V.391h4.237V2.94h4.716V6.45H77.519l1.292.24c-.511,1.111-.9,2.1-1.262,2.85h2.584v3.54h-4.9v1.83h4.6v3.629h-4.6v.031c1.081.69,3.364,2.43,3.994,2.91ZM71.121,6.45a11.047,11.047,0,0,1,.811,2.73l-1.322.36h5.137l-1.8-.36c.3-.78.661-1.83.9-2.73ZM85.06,9.87h9.011v4.021H91.518V28.409H87.283V13.891H85.06c-.09,4.439-.871,10.709-4.6,14.7a9.839,9.839,0,0,0-3.125-2.971c3.274-3.629,3.575-8.729,3.575-12.779V2.371l2.373.659a34.275,34.275,0,0,0,7.3-2.67l3.484,3.15A45.678,45.678,0,0,1,85.06,6.3Z"/><path class="cls-1" d="M108.583,1.44a52.357,52.357,0,0,1-2.674,5.58V28.469h-4.145V13.26a25.68,25.68,0,0,1-2.043,2.28A27.419,27.419,0,0,0,97.5,11.01,30.75,30.75,0,0,0,104.527.121Zm18.084,22.08v4.139h-19.5V23.52H114.8V18.449h-6.039V14.34H114.8V9.9h-7V5.76h7.449c-1.351-.93-2.884-1.92-4.175-2.639L113.96,0A41.371,41.371,0,0,1,120.9,4.291L119.578,5.76h6.639V9.9h-6.97v4.44h6.158v4.109h-6.158V23.52Z"/><path class="cls-1" d="M140.217,10.5a43.784,43.784,0,0,1-1.952,10.89c2.764,1.92,6.338,2.309,10.424,2.34,2.132,0,8.051,0,10.6-.12a15.144,15.144,0,0,0-1.652,4.259h-9.073c-4.837,0-8.831-.539-12.015-2.7a11.733,11.733,0,0,1-3.035,3.539,15.952,15.952,0,0,0-3.274-2.91,10.6,10.6,0,0,0,3.214-3.659,20.817,20.817,0,0,1-2.854-5.85L134,15.12a15.82,15.82,0,0,0,1.141,2.669,33.251,33.251,0,0,0,.721-3.959h-1.2l-.3.69-3.935-.991c1.171-2.548,2.494-5.579,3.545-8.159h-3.425V1.59h5.287l.631-.15,2.974.781c-.871,2.369-1.983,5.16-3.124,7.83h.631l.72-.091Zm6.069-5.55h-5.2V1.711h5.2V.3h4.235v1.41h6.068v3.93h2.253v3.3h-2.253v3.93h-6.068v.81H156.8v3.09h-6.279v.81h7.66v3.39h-7.66v2.01h-4.235V20.97H139.5V17.58h6.79v-.81h-5.468V13.68h5.468v-.81h-5.318V9.631h5.318V8.94h-7.21v-3.3h7.21Zm4.235,0v.691h1.772V4.95Zm1.772,3.99h-1.772v.691h1.772Z"/><path class="cls-1" d="M173.894,2.7a37.767,37.767,0,0,1-2.884,4.351,23.291,23.291,0,0,1,1.622,9.659c0,4.05-.361,8.1-1.833,10.05a3.6,3.6,0,0,1-1.982,1.32,13.815,13.815,0,0,1-4.086.3,8.5,8.5,0,0,0-1.141-4.139,18.517,18.517,0,0,0,3.154.03,1.206,1.206,0,0,0,.932-.54c.45-.6.69-2.49.78-4.951a25.632,25.632,0,0,1-3,3,15.507,15.507,0,0,0-2.913-3.209,20.515,20.515,0,0,0,5.737-5.849,16.64,16.64,0,0,0-.39-2.131,24.645,24.645,0,0,1-2.373,2.04,18.28,18.28,0,0,0-3-2.88,21.157,21.157,0,0,0,3.6-3.24,15.133,15.133,0,0,0-3.3-3.57L165.843.631a17.531,17.531,0,0,1,2.734,2.609A26.193,26.193,0,0,0,170.019.78Zm13.4,25.89c-.12-.6-.3-1.32-.51-2.1-4.927.6-10,1.14-13.85,1.591l-.69-4.65c2.072-.151,4.656-.359,7.419-.63V18h-5.888V5.43h5.888V.15h4.386V5.43h6.068V18h-6.068v4.379l1.382-.119c-.36-1.02-.72-2.01-1.081-2.94l4.085-1.14a80.1,80.1,0,0,1,3.275,9.029Zm-7.631-14.279V9.15h-1.622v5.161Zm4.386-5.161v5.161h1.5V9.15Z"/><path class="cls-1" d="M221.029,3.84V28.5h-4.656V27.09H203.005V28.5h-4.417V3.84h7.751c.27-1.26.511-2.67.631-3.809l5.347.539c-.42,1.141-.9,2.281-1.322,3.27ZM203.005,8.01v2.31h13.368V8.01Zm0,6.33v2.34h13.368V14.34Zm13.368,8.731V20.7H203.005v2.372Z"/><path class="cls-1" d="M243.68,27.389l-2.763-4.318a22.835,22.835,0,0,0,2.944-.542c3.815-.929,6.368-3.6,6.368-7.559,0-3.87-1.892-6.63-5.347-7.44a59.52,59.52,0,0,1-1.772,7.829c-1.773,6-4.476,10.02-8.021,10.02-3.725,0-6.549-4.019-6.549-9.148,0-7.141,6.159-13.2,14.179-13.2,7.661,0,12.5,5.281,12.5,12.09C255.216,21.449,251.491,26.07,243.68,27.389Zm-8.47-7.68c1.2,0,2.1-1.829,3.184-5.308a44.6,44.6,0,0,0,1.532-6.751,8.946,8.946,0,0,0-6.669,8.1C233.257,18.36,234.158,19.709,235.21,19.709Z"/><path class="cls-2" d="M52.825,19.47a27.678,27.678,0,0,0,9.042,5.069,18.052,18.052,0,0,0-3.124,3.811,28.689,28.689,0,0,1-9.162-6.54v6.75H45.014V21.99a27.372,27.372,0,0,1-8.982,6.3,20.485,20.485,0,0,0-3-3.66A27.307,27.307,0,0,0,41.89,19.47H36.453V7.65h8.561V6.391H33.99V2.34H45.014V.061h4.567V2.34H60.906V6.391H49.581V7.65h8.952V19.47ZM40.719,12.061h4.3v-1.2h-4.3Zm0,4.2h4.3V15.029h-4.3Zm8.862-5.4v1.2h4.476v-1.2Zm4.476,4.17H49.581V16.26h4.476Z"/><path class="cls-2" d="M76.739,24.57c-.391-.48-.932-1.08-1.5-1.71v5.67H71V23.549a19.535,19.535,0,0,1-3.094,3.33,18.413,18.413,0,0,0-2.823-3.09,18.541,18.541,0,0,0,5.107-5.25H66.014V14.91H71V13.08H65.924V9.54h2.433a12.484,12.484,0,0,0-.751-2.7L69.2,6.45H66.284V2.94H71V.391h4.237V2.94h4.716V6.45H77.519l1.292.24c-.511,1.111-.9,2.1-1.262,2.85h2.584v3.54h-4.9v1.83h4.6v3.629h-4.6v.031c1.081.69,3.364,2.43,3.994,2.91ZM71.121,6.45a11.047,11.047,0,0,1,.811,2.73l-1.322.36h5.137l-1.8-.36c.3-.78.661-1.83.9-2.73ZM85.06,9.87h9.011v4.021H91.518V28.409H87.283V13.891H85.06c-.09,4.439-.871,10.709-4.6,14.7a9.839,9.839,0,0,0-3.125-2.971c3.274-3.629,3.575-8.729,3.575-12.779V2.371l2.373.659a34.275,34.275,0,0,0,7.3-2.67l3.484,3.15A45.678,45.678,0,0,1,85.06,6.3Z"/><path class="cls-2" d="M108.583,1.44a52.357,52.357,0,0,1-2.674,5.58V28.469h-4.145V13.26a25.68,25.68,0,0,1-2.043,2.28A27.419,27.419,0,0,0,97.5,11.01,30.75,30.75,0,0,0,104.527.121Zm18.084,22.08v4.139h-19.5V23.52H114.8V18.449h-6.039V14.34H114.8V9.9h-7V5.76h7.449c-1.351-.93-2.884-1.92-4.175-2.639L113.96,0A41.371,41.371,0,0,1,120.9,4.291L119.578,5.76h6.639V9.9h-6.97v4.44h6.158v4.109h-6.158V23.52Z"/><path class="cls-2" d="M140.217,10.5a43.784,43.784,0,0,1-1.952,10.89c2.764,1.92,6.338,2.309,10.424,2.34,2.132,0,8.051,0,10.6-.12a15.144,15.144,0,0,0-1.652,4.259h-9.073c-4.837,0-8.831-.539-12.015-2.7a11.733,11.733,0,0,1-3.035,3.539,15.952,15.952,0,0,0-3.274-2.91,10.6,10.6,0,0,0,3.214-3.659,20.817,20.817,0,0,1-2.854-5.85L134,15.12a15.82,15.82,0,0,0,1.141,2.669,33.251,33.251,0,0,0,.721-3.959h-1.2l-.3.69-3.935-.991c1.171-2.548,2.494-5.579,3.545-8.159h-3.425V1.59h5.287l.631-.15,2.974.781c-.871,2.369-1.983,5.16-3.124,7.83h.631l.72-.091Zm6.069-5.55h-5.2V1.711h5.2V.3h4.235v1.41h6.068v3.93h2.253v3.3h-2.253v3.93h-6.068v.81H156.8v3.09h-6.279v.81h7.66v3.39h-7.66v2.01h-4.235V20.97H139.5V17.58h6.79v-.81h-5.468V13.68h5.468v-.81h-5.318V9.631h5.318V8.94h-7.21v-3.3h7.21Zm4.235,0v.691h1.772V4.95Zm1.772,3.99h-1.772v.691h1.772Z"/><path class="cls-2" d="M173.894,2.7a37.767,37.767,0,0,1-2.884,4.351,23.291,23.291,0,0,1,1.622,9.659c0,4.05-.361,8.1-1.833,10.05a3.6,3.6,0,0,1-1.982,1.32,13.815,13.815,0,0,1-4.086.3,8.5,8.5,0,0,0-1.141-4.139,18.517,18.517,0,0,0,3.154.03,1.206,1.206,0,0,0,.932-.54c.45-.6.69-2.49.78-4.951a25.632,25.632,0,0,1-3,3,15.507,15.507,0,0,0-2.913-3.209,20.515,20.515,0,0,0,5.737-5.849,16.64,16.64,0,0,0-.39-2.131,24.645,24.645,0,0,1-2.373,2.04,18.28,18.28,0,0,0-3-2.88,21.157,21.157,0,0,0,3.6-3.24,15.133,15.133,0,0,0-3.3-3.57L165.843.631a17.531,17.531,0,0,1,2.734,2.609A26.193,26.193,0,0,0,170.019.78Zm13.4,25.89c-.12-.6-.3-1.32-.51-2.1-4.927.6-10,1.14-13.85,1.591l-.69-4.65c2.072-.151,4.656-.359,7.419-.63V18h-5.888V5.43h5.888V.15h4.386V5.43h6.068V18h-6.068v4.379l1.382-.119c-.36-1.02-.72-2.01-1.081-2.94l4.085-1.14a80.1,80.1,0,0,1,3.275,9.029Zm-7.631-14.279V9.15h-1.622v5.161Zm4.386-5.161v5.161h1.5V9.15Z"/><path class="cls-2" d="M221.029,3.84V28.5h-4.656V27.09H203.005V28.5h-4.417V3.84h7.751c.27-1.26.511-2.67.631-3.809l5.347.539c-.42,1.141-.9,2.281-1.322,3.27ZM203.005,8.01v2.31h13.368V8.01Zm0,6.33v2.34h13.368V14.34Zm13.368,8.731V20.7H203.005v2.372Z"/><path class="cls-2" d="M243.68,27.389l-2.763-4.318a22.835,22.835,0,0,0,2.944-.542c3.815-.929,6.368-3.6,6.368-7.559,0-3.87-1.892-6.63-5.347-7.44a59.52,59.52,0,0,1-1.772,7.829c-1.773,6-4.476,10.02-8.021,10.02-3.725,0-6.549-4.019-6.549-9.148,0-7.141,6.159-13.2,14.179-13.2,7.661,0,12.5,5.281,12.5,12.09C255.216,21.449,251.491,26.07,243.68,27.389Zm-8.47-7.68c1.2,0,2.1-1.829,3.184-5.308a44.6,44.6,0,0,0,1.532-6.751,8.946,8.946,0,0,0-6.669,8.1C233.257,18.36,234.158,19.709,235.21,19.709Z"/><path class="cls-3" d="M112.331,74.958a83.366,83.366,0,0,1-4.268,9.416v32.838h-6.474V94.445c-.751.937-1.548,1.827-2.3,2.67a46.34,46.34,0,0,0-3.565-7.167,47.914,47.914,0,0,0,10.179-17Zm29.084,14.147v6.23H109.938v-6.23H116.6a35.068,35.068,0,0,0-1.595-5.528l1.642-.374h-5.114v-6.09h10.7V72.8h6.99v4.311h11.258V83.2h-5.958l2.252.374c-.844,2.108-1.594,4.029-2.252,5.528ZM113.5,98.193h25.378v18.831h-6.989v-1.639H120.165v1.827H113.5Zm6.661,6.136v4.778h11.728v-4.778Zm1.22-21.126a22.89,22.89,0,0,1,1.642,5.574l-1.313.328h7.645l-1.266-.234a47.258,47.258,0,0,0,1.735-5.668Z"/><path class="cls-3" d="M21.979,117.171V105.71H0V95.331l15.916-55.14H27.609L11.044,95.331H21.979V73.383H33.022V95.331h5.305V105.71h-5.3v11.461Z"/><path class="cls-3" d="M41.683,117.171V106.142H52.726v11.029Z"/><path class="cls-3" d="M71.888,72.627q4.978,0,6.875-1.19t1.895-5.515V55.976A5.375,5.375,0,0,0,79.2,52.083a5.245,5.245,0,0,0-3.952-1.513,4.663,4.663,0,0,0-4.167,1.838,6.376,6.376,0,0,0-1.245,3.568v6.271H58.788V55.868a15.993,15.993,0,0,1,1.3-6.379A15.515,15.515,0,0,1,63.66,44.3a17.791,17.791,0,0,1,5.305-3.46,16.351,16.351,0,0,1,6.5-1.3,14.438,14.438,0,0,1,7.524,1.785,17.341,17.341,0,0,1,4.493,3.621,23.776,23.776,0,0,1,1.895,2.594,12.717,12.717,0,0,1,1.353,3.136,43.086,43.086,0,0,1,.975,10.6q0,4-.163,6.487a13.549,13.549,0,0,1-.812,4.109,8.244,8.244,0,0,1-2.111,2.919,24.946,24.946,0,0,1-3.735,2.594,21.075,21.075,0,0,1,3.952,3.028,8.93,8.93,0,0,1,2,3.243,16.779,16.779,0,0,1,.757,4.595q.106,2.651.109,6.758,0,3.784-.163,6.27a32.075,32.075,0,0,1-.487,4.109,12.794,12.794,0,0,1-.866,2.919,17.994,17.994,0,0,1-1.408,2.487,17.508,17.508,0,0,1-5.25,5.027,15.627,15.627,0,0,1-8.391,2,19.51,19.51,0,0,1-5.522-.865,15.074,15.074,0,0,1-5.306-2.81,15.235,15.235,0,0,1-3.95-5.083,16.99,16.99,0,0,1-1.571-7.675V95.115H69.832v5.73a6.259,6.259,0,0,0,1.461,4.27,5.5,5.5,0,0,0,7.9,0,6.576,6.576,0,0,0,1.462-4.486V89.6q0-4.541-1.732-5.946a4.834,4.834,0,0,0-2.653-1.081,35.741,35.741,0,0,0-4.385-.216Z"/><path class="cls-3" d="M150.73,113.044c6.364-5.932,11-10.311,11-13.912,0-2.437-1.308-3.707-3.429-3.707-1.8,0-3.182,1.27-4.456,2.542l-3.429-3.39c2.581-2.719,4.985-4.061,8.734-4.061,5.091,0,8.627,3.249,8.627,8.263,0,4.273-4,8.827-7.956,12.923a37.24,37.24,0,0,1,4.314-.353h4.844v5.3H150.73Z"/><path class="cls-3" d="M177.266,114.915l-3.007-3,8.769-8.757L174.259,94.4l3.007-3,8.768,8.757L194.8,91.4l3,3-8.768,8.757,8.768,8.757-3,3-8.769-8.757Z"/><path class="cls-3" d="M213.264,110.678H202.2V106.3l9.158-15.289h7.778v14.865h2.9v4.8h-2.9v5.967h-5.869Zm0-4.8v-3.742c0-1.661.142-4.2.212-5.862h-.141c-.672,1.483-1.379,2.931-2.122,4.449l-3,5.155Z"/><path class="cls-3" d="M256.581,112.514v5.19H223.945v-5.19h13.118v-17.2h-11.1V89.952h28.5v5.366H242.967v17.2Z"/><path class="cls-3" d="M265.315,103.616a27.015,27.015,0,0,0-6.541-3.742l2.651-3.885a28.693,28.693,0,0,1,6.753,3.355Zm4.384,4.873c-1.7,3.707-3.642,7.521-5.622,11.016l-4.456-3.283a103.8,103.8,0,0,0,6.189-11.017ZM267.366,94.3A26.987,26.987,0,0,0,260.86,90.3l2.828-3.778a27.79,27.79,0,0,1,6.683,3.6ZM288.085,120a21.837,21.837,0,0,0-1.1-2.719c-6.152.565-12.622,1.059-17.4,1.448l-.671-5.191,2.546-.1a60.906,60.906,0,0,0,2.863-8.334h-5.409v-4.873h8.733v-4.2h-6.965V91.152h6.965v-4.7h5.34v4.7h7.283v4.873h-7.283v4.2h9.015V105.1H280.023l.424.106c-1.06,2.754-2.263,5.579-3.429,7.98,2.369-.141,4.915-.283,7.46-.423-.777-1.2-1.591-2.4-2.4-3.461l4.454-2.366c2.582,3.143,5.41,7.309,6.471,10.381Z"/></svg>