<svg id="レイヤー_1" data-name="レイヤー 1" xmlns="http://www.w3.org/2000/svg" viewBox="0 0 330 104"><defs><style>.cls-1{fill:#fff;}.cls-2{fill:#ef8a89;}.cls-3{fill:#df1614;}</style></defs><circle class="cls-1" cx="52" cy="52" r="51.5"/><path class="cls-2" d="M52,1A51,51,0,1,1,1,52,51.057,51.057,0,0,1,52,1m0-1a52,52,0,1,0,52,52A52,52,0,0,0,52,0Z"/><circle class="cls-1" cx="165" cy="52" r="51.5"/><path class="cls-2" d="M165,1a51,51,0,1,1-51,51A51.057,51.057,0,0,1,165,1m0-1a52,52,0,1,0,52,52A52,52,0,0,0,165,0Z"/><circle class="cls-1" cx="278" cy="52" r="51.5"/><path class="cls-2" d="M278,1a51,51,0,1,1-51,51A51.057,51.057,0,0,1,278,1m0-1a52,52,0,1,0,52,52A52,52,0,0,0,278,0Z"/><path class="cls-3" d="M15.241,54.391c.855-.875,2.337-2.737,3.647-4.294,1.121-1.33,2.242-1.539,3.724-.152,1.273,1.2,2.736,2.716,3.876,3.951,1.272,1.349,3.21,3.458,4.673,5.015l-2.09,2.242c-1.273-1.577-2.888-3.534-4.008-4.844-1.1-1.311-2.793-3.154-3.477-3.857-.608-.607-1.006-.569-1.557.114-.741.95-2.09,2.83-2.85,3.857-.437.608-.893,1.272-1.235,1.766l-2.279-2.355C14.234,55.378,14.652,54.96,15.241,54.391Zm13.013-3.268-1.71.74a17.157,17.157,0,0,0-1.728-3.1l1.652-.684A28.231,28.231,0,0,1,28.254,51.123ZM30.857,50l-1.652.8a19.962,19.962,0,0,0-1.825-3.021l1.634-.741A27.556,27.556,0,0,1,30.857,50Z"/><path class="cls-3" d="M41.631,48.14h3.857a6.025,6.025,0,0,0,1.652-.209l1.938,1.2a8.893,8.893,0,0,0-.627,1.349,21.7,21.7,0,0,1-2.812,5.47c.818.59,1.558,1.141,2.11,1.6l-1.8,2.146c-.514-.475-1.216-1.063-2-1.69a17.88,17.88,0,0,1-6.8,4.5l-2.2-1.919a16.156,16.156,0,0,0,6.973-4.122c-1.236-.912-2.49-1.767-3.459-2.375l1.691-1.729c1.007.571,2.2,1.349,3.4,2.147a13.455,13.455,0,0,0,2.089-4.2H40.207a22.892,22.892,0,0,1-5.016,4.92l-2.052-1.577a17.636,17.636,0,0,0,6.041-6.326,7.837,7.837,0,0,0,.874-1.975l2.755.854A20.384,20.384,0,0,0,41.631,48.14Z"/><path class="cls-3" d="M65.855,55.929a11.179,11.179,0,0,0,3.7,2.2,8.194,8.194,0,0,0-1.5,1.748,12.228,12.228,0,0,1-2.982-1.995v1.4H61.619v1.235h6.212v1.862H53.355V60.526H59.32V59.291H55.958V58.113a12.557,12.557,0,0,1-3.021,1.938,8.975,8.975,0,0,0-1.443-1.729,11.464,11.464,0,0,0,3.837-2.393H51.683V54.086h3.609V48.425H52.671V46.6h2.621V45.177h2.261V46.6H63.5V45.177h2.317V46.6h2.6v1.823h-2.6v5.661h3.515v1.843Zm-1.2,1.577a11.851,11.851,0,0,1-1.368-1.577H57.933a11.618,11.618,0,0,1-1.349,1.577H59.32V56.328h2.3v1.178Zm-7.106-9.081v.836H63.5v-.836Zm0,3.229H63.5v-.836H57.553Zm0,2.432H63.5v-.855H57.553Z"/><path class="cls-3" d="M73.78,60.488V61.9H71.937V57.354a7.516,7.516,0,0,1-.418.646,11.789,11.789,0,0,0-1.178-2.128c1.236-1.9,1.881-4.749,2.261-7.789H70.874V46.031h6.535v2.052H74.672q-.256,1.966-.683,3.818h3.02v8.587Zm1.348-6.649H73.78v4.712h1.348Zm8.7,6.877a9.8,9.8,0,0,0,1.083.057c.569,0,2.924-.019,3.685-.019a6.8,6.8,0,0,0-.608,1.881H84.78c-2.28,0-3.971-.456-5.13-2.337a6.1,6.1,0,0,1-2.165,2.622,4.718,4.718,0,0,0-1.274-1.482c1.881-1.235,2.223-3.325,2.356-5.491h2c-.057.7-.114,1.388-.229,2.053a4.01,4.01,0,0,0,1.407,2.032v-4.6H77.427V53.611h9.195l.323-.095,1.444.457a27.863,27.863,0,0,1-1.121,2.982l-1.69-.57c.094-.266.209-.589.322-.95H83.83v1.6h3.134v1.785H83.83Zm-4.579-9.632a10.4,10.4,0,0,1-1.539,1.957,6.3,6.3,0,0,0-.93-1.52,8.283,8.283,0,0,0,2.051-2.811H77.5V47.02h1.748V45.177h1.824V47.02h1.368v1.69H81.075v.209a17.165,17.165,0,0,1,1.69,1.31l-1.007,1.254a11.33,11.33,0,0,0-.683-.912v2.66H79.251Zm5.111.039a7.991,7.991,0,0,1-1.6,1.823,6.311,6.311,0,0,0-.873-1.425,7.413,7.413,0,0,0,2.2-2.811H82.747V47.02h1.615V45.177h1.843V47.02h2.088v1.69H86.546A7.587,7.587,0,0,0,88.617,51.6a7.444,7.444,0,0,0-1.159,1.272A6.736,6.736,0,0,1,86.205,51.1v2.127H84.362Z"/><path class="cls-3" d="M159.2,60.583c0,1.026-.191,1.6-.8,1.938a6.7,6.7,0,0,1-2.964.379,7.008,7.008,0,0,0-.607-1.975c.892.038,1.842.038,2.127.019s.38-.094.38-.38V47.8h-6.117V62.9h-1.842V48.71l-.932,1.159h.058V51.73h-1.825v1.407h2.09v1.918h-2.09v4.674c.78-.153,1.577-.286,2.356-.438l.152,1.862c-2.317.493-4.768.969-6.649,1.329l-.455-1.994c.759-.114,1.671-.265,2.677-.437v-5h-2.412V53.137h2.412V51.73H143.1v-.646l-.209.209a6.709,6.709,0,0,0-1.368-1.462,12.443,12.443,0,0,0,3.267-4.654h1.825a20.663,20.663,0,0,1,2.755,2.868V45.822H159.2Zm-15.407-4.806a16.206,16.206,0,0,1,.684,3.268l-1.444.4a18.915,18.915,0,0,0-.608-3.324Zm4.2-5.908a16.782,16.782,0,0,0-1.977-2.584,17.173,17.173,0,0,1-1.785,2.584ZM146.866,58.7a23.356,23.356,0,0,0,.607-3.077l1.539.361c-.285,1.064-.57,2.28-.817,3.059Zm6.117.665v1.065h-1.141V53.877h1.141v3.838h.645V53.061h-1.995V51.389h5.244v1.672h-2.013v4.654h.645V53.877h1.159v6.137h-1.159v-.647Zm0-11.246a10.722,10.722,0,0,1,.816,2.7l-1.33.4a13.8,13.8,0,0,0-.74-2.775Zm3.97.3c-.38.988-.76,2.108-1.064,2.811l-1.272-.38a23.085,23.085,0,0,0,.759-2.831Z"/><path class="cls-3" d="M184.237,48.254H181.1a9.559,9.559,0,0,1,.8,1.273l-2.09.588a11.238,11.238,0,0,0-1.14-1.861h-1.1a12.894,12.894,0,0,1-1.045,1.159v1.025H183.8V54.2h-2.2V52.129H169.5V54.2h-2.127V50.438h6.99V49.109h.836c-.342-.19-.7-.361-.949-.475.151-.114.322-.247.474-.38H172.5a9.708,9.708,0,0,1,.627,1.254l-2.034.57a9.624,9.624,0,0,0-.873-1.824h-.3a14.034,14.034,0,0,1-1.52,1.824,11.917,11.917,0,0,0-1.843-1.217,10.193,10.193,0,0,0,2.793-3.855l2.109.569c-.133.3-.285.609-.437.912h4.217V47.76a8.767,8.767,0,0,0,1.805-2.754l2.146.513q-.2.485-.455.968h5.509Zm-11.759,9.765h9.764v4.9H180v-.513h-7.522v.513h-2.166V52.908H180.8v4.237h-8.32Zm0-3.477v.987h6.079v-.987Zm0,5.13v1.063H180V59.672Z"/><path class="cls-3" d="M263.442,57.315A23.966,23.966,0,0,0,262.094,55v7.884h-2.165v-7.5a16.288,16.288,0,0,1-2.148,4.274,11.16,11.16,0,0,0-1.063-2.128,18.485,18.485,0,0,0,2.944-6.344h-2.45V49.052h2.717v-3.9h2.165v3.9h2.355V51.18h-2.355v1.158c.665.7,2.28,2.66,2.66,3.154Zm11.323,2.869v2.109H263.88V60.184h4.578V56.441H265.21V54.314h3.248V50.951h-3.647V48.843H269.5a19.322,19.322,0,0,0-3-2.356l1.577-1.405a17.327,17.327,0,0,1,3.724,2.811l-1.027.95h3.667v2.108h-3.685v3.363H274.2v2.127h-3.438v3.743Z"/><path class="cls-3" d="M294.393,52.661c.912,3.553,2.622,6.668,5.244,8.283a7.876,7.876,0,0,0-1.634,1.9,14.023,14.023,0,0,1-4.636-6.8,13.742,13.742,0,0,1-4.312,6.839,9.694,9.694,0,0,0-1.539-1.254v1.235h-2.242V56.727c-.874.779-1.748,1.557-2.545,2.2l-1.14-1.939c.912-.664,2.317-1.766,3.685-2.944v-2.7l-1.519.93A22.35,22.35,0,0,0,281.7,48.6l1.767-1.026a29.035,29.035,0,0,1,1.8,2.774v-5.2h2.242V61.191a12.877,12.877,0,0,0,4.2-8.53h-3.724V50.42h3.857V45.2h2.241V50.42H299.1v2.241Zm2.565-2.773a23.55,23.55,0,0,0-1.977-3.382l1.692-.931a21.36,21.36,0,0,1,2.128,3.23Z"/></svg>