<svg id="レイヤー_1" data-name="レイヤー 1" xmlns="http://www.w3.org/2000/svg" viewBox="0 0 384 387.927"><defs><style>.cls-1{fill:#505050;}.cls-2{fill:#fff;}.cls-3{fill:#ffd900;}.cls-4,.cls-5{fill:none;stroke-miterlimit:10;stroke-width:1.2px;}.cls-4{stroke:#f8f8f5;}.cls-5{stroke:#ffd900;}</style></defs><polygon class="cls-1" points="192 55.425 192 166.276 288 221.702 384 166.276 384 55.425 288 0 192 55.425"/><polygon class="cls-1" points="96.01 221.651 96.01 332.502 192.01 387.927 288.01 332.502 288.01 221.651 192.01 166.225 96.01 221.651"/><path class="cls-2" d="M116.871,242.187v-2.142h5.519a34.846,34.846,0,0,0,1.46-3.366h-3.983v2.142h-2.428v-4.386h6.81v-1.918l2.56.1c.114,0,.436.021.436.286s-.3.347-.531.367v1.163h6.828v4.386h-2.313v-2.142h-6.108l1.138.51c.114.041.361.163.361.367,0,.224-.323.306-.57.286-.151.326-.739,1.693-.986,2.2h9.123v2.142h-3.471a.453.453,0,0,1,.152.286c0,.2-.227.265-.531.326a15.182,15.182,0,0,1-1.859,3.285,31.181,31.181,0,0,1,4.932,3.346,5.568,5.568,0,0,0-1.784,1.917,31.89,31.89,0,0,0-4.836-3.489,16.147,16.147,0,0,1-8.269,3.428,6.518,6.518,0,0,0-1.082-2.489,12.559,12.559,0,0,0,7.037-2.081,21.407,21.407,0,0,0-2.617-.959c-.209.327-.285.429-.607.9a6.934,6.934,0,0,0-2.333-1.041,18.072,18.072,0,0,0,2.333-3.427Zm7.131,0c-.189.367-.455.836-.948,1.673.891.286,1.138.367,3.224,1.184a10.36,10.36,0,0,0,1.65-2.857Z"/><path class="cls-2" d="M145.762,251c-1.062,0-4.154-.123-5.842-2.877a17.015,17.015,0,0,1-1.9,3.305,4.449,4.449,0,0,0-2.238-1.143,14.515,14.515,0,0,0,3.338-8.548l2.428.449c.246.041.379.143.379.327,0,.2-.133.244-.512.387-.114.388-.493,2.183-.569,2.53a4.766,4.766,0,0,0,2.428,2.673v-7.59h-5.1v-1.407h-2.2V234.6h7.245v-2.06l2.427.163c.228.02.513.04.513.265,0,.142-.095.183-.513.388V234.6h7.341v4.447h-2.2v1.469h-5.083v2.2h5.083v2.265h-5.083v3.591c1,.061,2.294.061,2.522.061a50.455,50.455,0,0,0,5.273-.306,7.646,7.646,0,0,0-.626,2.673Zm4.875-12.71V236.7H138.29v1.592Z"/><path class="cls-2" d="M161.188,233.394c.3.041.436.062.436.286,0,.2-.266.306-.417.347a67.108,67.108,0,0,0-.55,9.16c0,3.509.3,4.876,2.067,4.876,3.224,0,6.089-4.142,6.866-5.937a13.3,13.3,0,0,0,1.915,2.285c-3.091,5.345-6.79,6.528-9.027,6.528-4.306,0-4.439-4.406-4.439-8.487,0-1.285.209-6.956.209-8.119,0-.837-.019-.979-.038-1.388Z"/><path class="cls-2" d="M182.417,233.354c.266.061.36.142.36.285,0,.041,0,.265-.379.306-.095.368-.455,2-.531,2.326a12.749,12.749,0,0,0,3.49-1.04l.3,2.713a25.755,25.755,0,0,1-4.457,1,47.938,47.938,0,0,1-5.045,12.139,15.976,15.976,0,0,0-2.428-1.326,32.956,32.956,0,0,0,4.818-10.4c-1.157.122-1.973.122-3.756.163l-.209-2.857c.475.041,1.063.082,1.859.082.361,0,1.423,0,2.713-.122.3-1.836.417-2.938.493-3.958Zm1.536,12.2a2.5,2.5,0,0,0-.644,1.51c0,1.081,2.313,1.081,3.186,1.081a12.9,12.9,0,0,0,4.115-.673,8.767,8.767,0,0,0-.094,1.387,8.348,8.348,0,0,0,.113,1.428,22.479,22.479,0,0,1-3.963.367c-1.783,0-5.653-.163-5.653-3.2a5.734,5.734,0,0,1,.835-2.734Zm-.815-5.488a23.235,23.235,0,0,1,4.248-.367,13.246,13.246,0,0,1,2.807.224,24.434,24.434,0,0,0-.171,2.694,10.5,10.5,0,0,0-2.788-.327,35.4,35.4,0,0,0-4.1.347Z"/><path class="cls-2" d="M198.942,238.046v2.224h-1.859v6.1c.342-.122,1.859-.612,2.163-.714a8.689,8.689,0,0,0-.171,2.408c-1.157.489-5.367,1.9-5.595,1.958-.095.429-.133.571-.3.571s-.228-.183-.285-.408l-.607-2.448a19.358,19.358,0,0,0,2.466-.632V240.27H192.7v-2.224h2.049v-4.978l2.541.163a.283.283,0,0,1,.3.265c0,.143-.152.2-.513.327v4.223Zm4.742.918v-6.223l2.333.164c.152.02.341.1.341.244,0,.164-.208.266-.455.368v4.467l2.75-1.224,1.025.531v7.059c0,.714,0,1.754-1.177,2.142a5.291,5.291,0,0,0,2.03,1.346c-.512,2.856-1.4,3.2-3.509,3.2h-4c-1.441,0-2.788-.367-2.788-2.611v-5.447l-1.878.836L197.6,241.7l2.636-1.183v-6.345l2.447.184c.152.021.341.082.341.225s-.247.265-.493.367v4.549Zm-1.157,3v5.753c0,.469,0,1.06,1.062,1.06h3.035c1.214,0,1.726-.244,1.821-2.264a8.348,8.348,0,0,1-1.632.143,9.745,9.745,0,0,0-.815-2.489,4.507,4.507,0,0,0,.777.1c.664,0,.664-.388.664-.816v-3.713l-1.536.694v6.446h-2.219v-5.447Z"/><path class="cls-2" d="M219.508,242.187c0,1.285-.209,1.9-1.783,2.183h3.016a5.846,5.846,0,0,0-1.006-1.673,8.532,8.532,0,0,0,2.656-.694,10,10,0,0,1-.987-1.244l1.366-.551h-2.181v-1.673h.8a4.412,4.412,0,0,0-1.631-.958c1.139-1.306,1.233-2.041,1.214-4.366h5.406v2.958c0,.286.189.347.417.347.36,0,.531,0,.645-1.714a3.955,3.955,0,0,0,1.688.755c-.133,2.427-.853,2.632-1.612,2.632h-1.48c-1.024,0-1.46-.49-1.46-1.347v-1.775h-1.688a4.933,4.933,0,0,1-1.271,3.468h5.633l.911,1.041a10.5,10.5,0,0,1-2.485,2.672,13.57,13.57,0,0,0,3.319,1.184,10.242,10.242,0,0,0-1.157,1.877c-.436-.164-.7-.265-1.251-.49V248.8h2.389v1.979h-17.26V248.8h2.276V244.37h3.073a3.763,3.763,0,0,0-.569-1.632H215.43v-2.366l-.607.02a11.431,11.431,0,0,1-1.479,4.692,4.886,4.886,0,0,0-1.688-.9,9.074,9.074,0,0,0,1.384-3.693c-.17,0-.531.041-.74.041-.075.224-.133.367-.284.367-.133,0-.171-.143-.19-.225l-.284-2.019c.228,0,.36,0,1.631-.021,0-.163.038-.9.038-.958v-3.51h1.707a13.288,13.288,0,0,0,.474-1.611l2.2.306c.152.02.3.081.3.244s-.057.185-.531.368a3.742,3.742,0,0,1-.323.693h2.466v4.2c.114-.02.626-.041.74-.061a8.846,8.846,0,0,0-.171,1.693c-.171.02-.323.02-.569.041Zm-1.764-3.713v-2.652h-2.807V238.6l1.119-.041a9.6,9.6,0,0,0-1.005-1.836l1.27-.878a7.627,7.627,0,0,1,1.271,1.979,10.114,10.114,0,0,0-1.157.714ZM216.151,248.8h1.422V246.41h-1.422Zm1.593-8.589c-.114.021-.683.062-.816.062v2.223c.778-.02.816-.02.816-.816Zm1.82,6.2V248.8h1.423V246.41Zm6.07-2.04A9.882,9.882,0,0,1,224,243.33a15.58,15.58,0,0,1-2.333,1.04Zm-2.731-4.162a7.779,7.779,0,0,0,1.024,1.1,5.752,5.752,0,0,0,1.309-1.1Zm.114,6.2V248.8h1.536V246.41Z"/><path class="cls-2" d="M245.725,232.415a10.118,10.118,0,0,1,1.631,1.775,6.035,6.035,0,0,0-1.176.9h1.935v2.061H243.9v1.224h3.642v10.69c0,2.081-1.157,2.326-2.674,2.244a5.359,5.359,0,0,0-.873-2.387,6.167,6.167,0,0,0,1.043.143c.513,0,.513-.224.513-.734v-1.714H243.9v4.325h-2.086v-4.325h-1.555v4.713h-1.992v-7.018a6,6,0,0,0-1.29,1.734,10.506,10.506,0,0,1-1.536-1.408v6.692h-2.181V244.88a16.638,16.638,0,0,1-1.46,1.449,6.722,6.722,0,0,0-1.707-1.653,13.362,13.362,0,0,0,4.647-6.1H230.7v-2.162h2.56v-3.836l2.181.082c.171,0,.436.02.436.2,0,.163-.17.285-.436.469v3.081h1.1l.93.652v-1.979h4.343v-2.57l2.049.061c.151,0,.4.021.4.286,0,.183-.19.306-.361.408v1.815h1.821a9.347,9.347,0,0,0-1.347-1.55Zm-8.06,4.8a20.7,20.7,0,0,1-2.068,4.549,9.7,9.7,0,0,0,2.674,2.468v-2.591a7.762,7.762,0,0,1-.872,1.265,6.622,6.622,0,0,0-1.328-1.1,9.5,9.5,0,0,0,1.328-2.162l.872.551v-1.816h3.547v-1.224h-4.23Zm4.153,3.141h-1.555V241.7h1.555Zm0,3.081h-1.555v1.387h1.555ZM243.9,241.7h1.651v-1.346H243.9Zm0,3.122h1.651v-1.387H243.9Z"/><path class="cls-2" d="M255.593,241.432c.057,3.244-.3,7.651-1.043,8.875-.379.632-1.081,1.04-3.148,1.081a4.473,4.473,0,0,0-.873-2.591,8.837,8.837,0,0,0,1.366.164c.569,0,.891-.144,1.043-.878a28.749,28.749,0,0,0,.417-4.305h-1.309c-.075.388-.113.592-.189,1.081a6.638,6.638,0,0,0-2.162-.407,31.884,31.884,0,0,0,.815-7.141l1.9.368h.967v-2.367H249.9v-2.183h5.709v6.549h-3.091c-.019.387-.019.551-.152,1.754Zm6.98-3.57c.209.02.4.082.4.266,0,.122-.1.305-.4.387v1.1h3.661v5.794h-3.775v2.57c.209-.02,1.214-.143,1.4-.163a7.5,7.5,0,0,0-.816-1.285l1.84-1.041A31.465,31.465,0,0,1,267.466,250a14.03,14.03,0,0,0-1.9,1.244,14.121,14.121,0,0,0-.74-1.591c-5.31.816-7.359,1.061-7.852,1.1-.019.143-.1.47-.36.47-.133,0-.228-.163-.266-.347l-.455-2.285c1.384-.1,1.707-.122,4.476-.387v-2.795h-1.612v1.02h-2.087v-6.814h3.813v-1.735l-3.528.409a.366.366,0,0,1-.322.408c-.19,0-.228-.225-.247-.388l-.36-2.06c.322-.021,1.763-.144,2.048-.164a20.736,20.736,0,0,0,1.062-3.509l2.352.245c.228.02.361.143.361.326,0,.327-.4.368-.513.368-.531,1.285-.588,1.428-1,2.387.93-.1,2.181-.245,3.054-.408-.474-.653-.74-.98-1.006-1.285l1.726-1.184a23.618,23.618,0,0,1,3.187,4.631,21.078,21.078,0,0,0-1.878,1.2,9.181,9.181,0,0,0-.815-1.551c-.721.143-2.087.327-2.9.429Zm-3.812,3.754v1.795h1.612v-1.795Zm3.7,0v1.795h1.669v-1.795Z"/><path class="cls-3" d="M128.611,279.172h9.025v3.252H116.058v-3.252h8.671v-2.419h-6.655V273.6h6.655v-2.345h-5.293V269.19c-.883.58-1.765,1.109-2.7,1.614a14.772,14.772,0,0,0-2.319-2.975,26.084,26.084,0,0,0,10.159-8.924h3.832a23.989,23.989,0,0,0,10.738,8.621,18.21,18.21,0,0,0-2.42,3.3q-1.323-.719-2.647-1.588v2.016h-5.47V273.6h6.731v3.151h-6.731Zm3.806-11.116a27.839,27.839,0,0,1-5.772-5.571,26.774,26.774,0,0,1-5.621,5.571Z"/><path class="cls-3" d="M148.4,275.794c-.277-.73-.68-1.663-1.109-2.6v9.781h-3.378v-8.193a17.829,17.829,0,0,1-1.966,3.933,18.629,18.629,0,0,0-1.613-3.353,23.776,23.776,0,0,0,3.353-7.864h-2.7v-3.378h2.924v-5.092h3.378v5.092h2.571V267.5H147.29v.907c.706.932,2.647,3.983,3.075,4.688Zm11.873-1.083a19.064,19.064,0,0,0,4.613,4.411,14.9,14.9,0,0,0-2.546,2.8,20.3,20.3,0,0,1-3.529-4.335v5.394h-3.555v-5.017a17.393,17.393,0,0,1-4.335,4.185,15.4,15.4,0,0,0-2.445-2.823,16.023,16.023,0,0,0,5.42-4.613h-3.3v-9.024h4.663v-1.034h-5.268V261.6h5.268v-2.571h3.555V261.6h5.268v3.05H158.81v1.034h4.915v9.024Zm-6.453-5.7h1.436v-.807h-1.436Zm0,3.176h1.436v-.832h-1.436Zm4.991-3.983v.807h1.538v-.807Zm1.538,3.151H158.81v.832h1.538Z"/><path class="cls-3" d="M174.537,272.543l.832,3.227c-2.672,1.386-5.6,2.8-7.991,3.907L165.916,276c.882-.3,1.966-.731,3.176-1.184v-6.605h-2.773v-3.453h2.773V259.41h3.4v5.344h2.344v3.453H172.5V273.4Zm10.89,6.73c1.31,0,1.562-.5,1.789-2.924a10.449,10.449,0,0,0,3.177,1.311c-.429,3.63-1.488,4.865-4.614,4.865h-4.94c-3.756,0-4.79-1.059-4.79-4.966v-5.747l-1.008.454-1.361-3.227,2.369-1.008v-6.5h3.479v5.017l1.361-.58v-6.932h3.428v5.445l1.261-.53h-.025l.579-.378.656-.428,2.545.907-.125.58c0,4.865-.051,7.486-.126,8.545a2.406,2.406,0,0,1-1.261,2.344,6.066,6.066,0,0,1-2.773.454,11.145,11.145,0,0,0-.731-2.974v3.957h-3.428v-7.26l-1.361.6v7.26c0,1.538.177,1.714,1.663,1.714Zm-1.11-11.066v4.739c.328.025.731.025.933.025.252,0,.378-.075.429-.453.05-.3.05-1.714.05-4.941Z"/><path class="cls-3" d="M196.306,268.661a10.915,10.915,0,0,1-2.5,6.025,10.792,10.792,0,0,0-2.269-1.866,7.775,7.775,0,0,0,1.891-4.008l-1.286.05L192,266.14l1.689-.05v-5.218h2.974c.2-.63.378-1.311.5-1.84l3.176.352c-.227.53-.453,1.034-.68,1.488h3.125v4.89l.958-.025-.05,2.546-.908.05v2.6c0,1.26-.176,2.016-.957,2.47a5.818,5.818,0,0,1-3,.479,12.71,12.71,0,0,0-.277-1.412h-1.639v-3.529h2.168v2.269h.479c.227,0,.3-.076.3-.328v-2.4Zm16.284,10.763h2.773v2.824H192.2v-2.824h2.723v-5.192h17.67Zm-16.082-13.435.882-.025a14.4,14.4,0,0,0-.756-2.042l1.966-.655h-2.092Zm3.352-2.722H198.7a14.228,14.228,0,0,1,.882,2.142l-1.462.53,1.739-.051Zm-1.537,16.157h1.31v-2.47h-1.31Zm4.638-2.47v2.47H204.3v-2.47Zm10.965-10.285a10.037,10.037,0,0,1-2.319,3.958,20.3,20.3,0,0,0,4.059.681,10.628,10.628,0,0,0-1.916,2.722,16.57,16.57,0,0,1-4.941-1.386,17.38,17.38,0,0,1-4.184,1.386,12.133,12.133,0,0,0-1.639-2.622,17.525,17.525,0,0,0,3.05-.68,8.707,8.707,0,0,1-1.487-1.815l2.067-.529H204.1v-2.4h.328a13.213,13.213,0,0,0-1.437-1.462,2.982,2.982,0,0,0,1.941-3v-1.638h7.336v2.773c0,.579.025.63.226.63h.278c.252,0,.353-.2.4-1.538a7.583,7.583,0,0,0,2.394.983c-.252,2.319-.957,2.974-2.419,2.974h-1.21c-1.966,0-2.521-.73-2.521-3.024v-.3H207.7a5.45,5.45,0,0,1-1.714,3.6h5.6l.529-.05Zm-6.352,1.715a5.076,5.076,0,0,0,1.159,1.008,5.739,5.739,0,0,0,1.059-1.008Zm.05,8.57v2.47h1.361v-2.47Z"/><path class="cls-3" d="M226.026,266.065h-8.52v-2.849h8.52Zm14.746,12.981c0,1.639-.252,2.647-1.185,3.227-.932.6-2.168.681-3.932.681a13.135,13.135,0,0,0-.983-3.555c.882.076,1.941.051,2.294.051.327,0,.429-.1.429-.454V262.939h-7.26v6.6c0,4.033-.3,9.957-2.218,13.537a13.728,13.728,0,0,0-2.572-1.841v.4h-4.058v.958h-2.824v-8.747h6.882v6.73c1.386-3.176,1.488-7.638,1.488-11.041v-9.68h13.939Zm-15.376-9.5h-6.832v-2.722H225.4Zm-6.832.756H225.4v2.723h-6.832Zm6.756-7.814h-6.6v-2.722h6.6Zm-2.874,14.192h-1.159v2.142h1.159Zm9.857-8.319v-1.285h-1.589v-2.622H232.3V263.09h2.8v1.361h1.638v2.622H235.1v1.285h1.713v2.622h-6.15v-2.622Zm.932,10.361v.831h-2.521v-7.612h6.05v6.781Zm0-4.235v1.689h.958v-1.689Z"/><path class="cls-3" d="M260.013,264.779a18.883,18.883,0,0,0,7.084,3.756,14.041,14.041,0,0,0-2.345,2.949,17.919,17.919,0,0,1-2.243-1.008V279.4h4.109v3.2H243.452v-3.2h4.159v-9.024a22.336,22.336,0,0,1-2.495,1.16,15.125,15.125,0,0,0-2.269-2.824,18.055,18.055,0,0,0,6.857-3.932h-6.025v-3.151h9.427v-2.6h3.63v2.6h9.655v3.151Zm1.21,4.966a19.55,19.55,0,0,1-4.487-3.882v3.277h-3.63v-3.378a19.231,19.231,0,0,1-4.461,3.983Zm-2.5,2.949H251.19v.555h7.538Zm-7.538,3.6h7.538v-.58H251.19Zm7.538,3.1v-.63H251.19v.63Z"/><path class="cls-3" d="M192.18,304.435h-2.593v-6.266h-6.266v-2.593h6.266V289.31h2.593v6.266h6.265v2.593H192.18Z"/><path class="cls-3" d="M133.433,318.09a.246.246,0,0,0,.181-.075c.068-.025.113-.177.158-.479.023-.277.046-.933.069-1.764a6.8,6.8,0,0,0,2.267,1.36,10.718,10.718,0,0,1-.363,2.446,1.909,1.909,0,0,1-.861,1.058,2.837,2.837,0,0,1-1.316.3h-1.2a2.316,2.316,0,0,1-1.723-.706c-.431-.5-.613-1.109-.613-2.823v-2.319h-1.156c-.408,3.3-1.5,5.5-4.354,6.881a8.682,8.682,0,0,0-1.655-2.646v11.217H118.83v1.815H116v-5.546a5.775,5.775,0,0,1-.431.63,19.8,19.8,0,0,0-1.769-3.453c1.61-2.369,2.472-5.974,2.971-9.882h-2.4v-3.3h9.093v3.3h-3.538c-.226,1.513-.476,2.975-.793,4.412h3.741v.731a5.056,5.056,0,0,0,3.016-4.159h-2v-3.176h2.244c0-.656.023-1.387.023-2.168h2.993c0,.756-.022,1.487-.045,2.168h3.945v5.369a4.137,4.137,0,0,0,.023.68c.045.1.09.126.159.126ZM119.964,321.7H118.83v5.672h1.134Zm10.906,2.193h4.785v3.3H130.87v6.277h-3.265V327.19H123.3v-3.3h4.308v-3.352h3.265Z"/><path class="cls-3" d="M147.7,314.738a42.573,42.573,0,0,1-2.108,4.966h11.632v13.637h-3.537v-1.26h-8.208v1.386h-3.356v-8.5a17.75,17.75,0,0,1-2.653,2.571,20.794,20.794,0,0,0-2.336-2.848c3.152-2.244,5.465-6.252,6.735-9.957h-5.624v-3.605h20.226v3.605Zm5.987,8.47h-8.208v5.344h8.208Z"/><path class="cls-3" d="M165.458,313.377l4.013.932c-.2.807-.521,2.319-.612,2.9A65.949,65.949,0,0,1,167,324.619a36.306,36.306,0,0,1-3.333,7.361l-3.878-1.815a31.82,31.82,0,0,0,3.56-7.083A39.85,39.85,0,0,0,165.458,313.377Zm5.805.958,3.673-1.312c.975,2.017,2.585,6.126,3.378,8.42.749,2.168,1.95,6.277,2.585,8.9l-4.1,1.488a85.548,85.548,0,0,0-2.245-9.025A74.171,74.171,0,0,0,171.263,314.335Zm7.663-4.84a3.143,3.143,0,1,1-2.811,3.125A3,3,0,0,1,178.926,309.5Zm0,4.462a1.344,1.344,0,1,0-1.2-1.337A1.283,1.283,0,0,0,178.926,313.957Z"/><path class="cls-3" d="M191.68,316.452a31.693,31.693,0,0,0,6.485-6.2l2.97,3.151a44.851,44.851,0,0,1-6.054,5.394v9.932a20.825,20.825,0,0,0,.227,3.655h-4.354c.09-.68.181-2.445.181-3.655v-7.386a42.459,42.459,0,0,1-7.664,3.4l-1.7-3.856A34.032,34.032,0,0,0,191.68,316.452Z"/><path class="cls-3" d="M205.16,324.04c.635-2.068.657-6.706.657-9.857a10.815,10.815,0,0,0-.249-2.6H209.6a22.146,22.146,0,0,0-.181,2.546c0,3.1-.069,8.369-.658,10.915a15.535,15.535,0,0,1-4.058,7.411l-3.356-2.471A11.655,11.655,0,0,0,205.16,324.04Zm6.961,4.36V313.931a14.61,14.61,0,0,0-.2-2.344H216a16.916,16.916,0,0,0-.182,2.37v12.4a13.161,13.161,0,0,0,5.034-4.814l2.108,3.378a26.887,26.887,0,0,1-7.664,6.831,7.752,7.752,0,0,0-1.088.832l-2.29-2.092A10.714,10.714,0,0,0,212.121,328.4Z"/><path class="cls-3" d="M244.544,328.123v3.706H223.616v-3.706h8.412V315.847h-7.12v-3.831h18.276v3.831h-7.37v12.276Z"/><path class="cls-3" d="M250.25,321.771a16.947,16.947,0,0,0-4.194-2.672l1.7-2.773a17.694,17.694,0,0,1,4.331,2.395Zm2.812,3.479c-1.088,2.646-2.335,5.369-3.605,7.864L246.6,330.77a76.69,76.69,0,0,0,3.968-7.865Zm-1.5-10.134a17.064,17.064,0,0,0-4.171-2.848l1.814-2.7a17.289,17.289,0,0,1,4.285,2.572Zm13.288,18.351a16.676,16.676,0,0,0-.7-1.941c-3.945.4-8.095.756-11.156,1.034l-.431-3.706,1.633-.076a46.972,46.972,0,0,0,1.837-5.948h-3.47v-3.479h5.6v-3H253.7v-3.478h4.467V309.52h3.424v3.353h4.671v3.478h-4.671v3h5.782v3.479h-7.687l.272.075c-.68,1.966-1.451,3.983-2.2,5.7,1.519-.1,3.152-.2,4.784-.3-.5-.857-1.02-1.713-1.542-2.47l2.857-1.689a29.247,29.247,0,0,1,4.15,7.411Z"/><polygon class="cls-1" points="0 55.425 0 166.276 96 221.702 192 166.276 192 55.425 96 0 0 55.425"/><path class="cls-3" d="M48.918,104.209a.569.569,0,0,1,.336.458c0,.4-.58.428-.885.428-.275.336-1.405,1.984-1.649,2.32-.336.458-1.771,2.382-3.878,4.794.4-.031,2.6-.245,2.87-.275a12.971,12.971,0,0,0-.61-2.015l2.565-.641a.938.938,0,0,0-.245-.123A26.764,26.764,0,0,0,52.277,99.6l4.305,1.343a.643.643,0,0,1,.4.489c0,.275-.519.458-.794.55-.244.519-.366.824-.915,2.106h8.274c.122,4.763.152,16.122-1.435,20.335-1.191,3.084-4.031,3.328-6.962,3.175-.03-.732-.091-2.045-1.923-4.976a14.152,14.152,0,0,0,2.687.458c2.045,0,2.595-2.107,2.839-3.42a68.854,68.854,0,0,0,.519-11.6H53.254a21.577,21.577,0,0,1-2.076,3.267,13.154,13.154,0,0,0-2.412-1.557,56.535,56.535,0,0,1,1.4,5.618,23.174,23.174,0,0,0-3.725,1.16c-.091-.763-.091-.854-.122-1.1l-1.282.122V127.6H40.919v-9.373a1.841,1.841,0,0,1-.55.3,30.563,30.563,0,0,1-1.221,7.175,17.791,17.791,0,0,0-3.816-.671c1.282-2.779,1.4-7.359,1.435-7.786l3.908.336a.312.312,0,0,1,.244.152V115.9c-.794.061-2.717.183-3.359.275a4.464,4.464,0,0,1-.274.519.4.4,0,0,1-.367.183.572.572,0,0,1-.549-.58l-.4-4c.763-.03,1.587-.061,2.473-.122.58-.672,1.221-1.465,1.4-1.71a23.843,23.843,0,0,0-1.8-1.709c-1.924-1.649-2.168-1.832-2.534-2.168l2.473-3.511c.672.488.855.641,1.129.855a24.5,24.5,0,0,0,2.412-4.825l3.542,1.71c.214.092.336.214.336.428,0,.3-.183.336-.916.4a49.249,49.249,0,0,1-2.778,4.518c.488.458.58.55.824.764a29.042,29.042,0,0,0,2.839-4.672Zm.52,12.427a28.678,28.678,0,0,0,1.343,6.656,15.944,15.944,0,0,0-3.695,1.252,33.228,33.228,0,0,1-1.282-7.053ZM54.72,110.8a26.936,26.936,0,0,1,2.687,6.687c-1.283.55-3.695,1.618-3.847,1.679a28.788,28.788,0,0,0-2.718-7.022Z"/><path class="cls-3" d="M82.694,114.784v-5.015H84.75c.78,0,5.672-.452,5.672-4.028,0-3.412-3.658-3.412-4.892-3.412-3.165,0-5.384.493-5.467,4.069H72.376C73.281,98.67,78.707,96,85.818,96c7.687,0,12.086,3.535,12.086,8.8,0,4.974-3.412,6.331-5.015,6.988,1.891.7,5.837,2.22,5.837,7.728,0,7.318-6.5,10.688-13.894,10.688-7.071,0-12.949-3.288-13.524-11.715h7.728c.082,1.562.37,5.549,5.878,5.549.781,0,6.084-.123,6.084-4.6,0-2.631-1.85-4.645-5.878-4.645Z"/><path class="cls-3" d="M111.454,121.678v7.617H105.9V105h5.551v10.33L122.463,105h6.877l-10.207,9.5,11.04,14.8h-6.784l-8.358-10.979Z"/><path class="cls-3" d="M147.1,111.563l3.578,11.811,2.559-11.811h5.335l-5.211,17.732h-4.934l-3.64-11.873-3.669,11.873h-4.9l-5.459-17.732h5.366l2.9,11.811,3.454-11.811Z"/><path class="cls-3" d="M43.389,166.488H39.267v-7.144c-.428,1.038-.641,1.465-.947,2.107a18.994,18.994,0,0,0-3.6-2.84,34.574,34.574,0,0,0,4.4-10.656H35.725V144.2h3.542v-5.617l4.213.244c.214,0,.642.03.642.427,0,.306-.275.428-.733.611V144.2h2.382v3.756H43.45a23.3,23.3,0,0,0,3.817,6.809A36.646,36.646,0,0,0,44.274,158c-.488-1.13-.671-1.527-.885-2.107Zm2.931-7.175v-3.175h17.1v3.175H60.64a61.734,61.734,0,0,1,4,4.733,19.519,19.519,0,0,0-3.359,2.167,49.528,49.528,0,0,0-4.152-5.068l2.5-1.832H57.1v4.366c0,2.2-1.74,2.9-4.03,2.9a11.711,11.711,0,0,1-1.435-.092,11.915,11.915,0,0,0-1.038-3.664,27.012,27.012,0,0,1-3.328,3.634,18.937,18.937,0,0,0-3.359-2.534,22.158,22.158,0,0,0,4.427-4.611Zm12.244-15.48h4.7v7.206H46.534v-7.206h4.458v-1.4H45.5v-3.145H63.418v3.145H58.564Zm3.3,11.206H47.816v-2.9H61.861Zm-10.014,5.618c.183.091.427.213.427.458,0,.336-.4.4-.7.4a7.356,7.356,0,0,1-.733.977,6.987,6.987,0,0,0,1.405.213c.58,0,.61-.335.61-.916v-2.473H49.038Zm-.7-12.488v-1.588H49.923v1.588Zm4.243-5.74H54.137v1.4h1.251Zm-1.221,4.152v1.588H55.48v-1.588Zm4.366,0v1.588h1.313v-1.588Z"/><path class="cls-3" d="M92.083,145.543v2.442H86.617v1.038h5.466v2.5H86.617v1.1H94.1v3.053H83.472a.375.375,0,0,1,.122.275c0,.275-.275.4-.794.549v1.619H94.189v3.786H82.8v4.7H77.824v-4.7H66.435v-3.786H77.824V155.68H74.893v-8.031c-.153.153-.245.245-.672.611a21.768,21.768,0,0,0-2.2-2.045,20.5,20.5,0,0,0-2.045,3.236,23.663,23.663,0,0,0-4.153-2.809l2.351-3.236a22.472,22.472,0,0,1,3.3,2.045,24.237,24.237,0,0,0,5.4-7.022l3.969,1.252c.183.061.58.183.58.488,0,.367-.427.489-.946.519-.183.306-.367.611-.458.764h2.9a21.6,21.6,0,0,0,1.924-3.084l4.122,1.221c.3.092.55.244.55.458,0,.4-.458.428-1.039.489-.152.213-.488.641-.732.916h5.587v3.083H86.617v1.008Zm-25.77,9.282a24.6,24.6,0,0,0,5.526-6.137,9.13,9.13,0,0,0,2.29,3.023,34.8,34.8,0,0,1-3.755,4.977,1.945,1.945,0,0,1,.122.641c0,.091,0,.458-.336.458-.244,0-.4-.153-.611-.305Zm4.03-16.518a19.316,19.316,0,0,1,3.847,2.778,24.536,24.536,0,0,0-2.442,3.114,29.665,29.665,0,0,0-3.787-2.747Zm11.969,7.236v-1.008H79.381v1.008Zm-2.931,2.442v1.038h2.931v-1.038Zm0,3.542v1.1h2.931v-1.1Z"/><path class="cls-3" d="M120.166,155.924H109.327v-.977a13.914,13.914,0,0,1-2.2,1.344,12.281,12.281,0,0,0-2.259-2.535c-.427.245-.641.367-.916.519v8.672c0,3.633-2.565,3.816-5.618,3.724a7.732,7.732,0,0,0-1.71-4.4c.306.061,2.2.214,2.413.214.58,0,.7-.4.7-.825v-5.312c-.611.275-.733.336-1.313.549-.061.581-.092.947-.55.947a.523.523,0,0,1-.427-.366l-1.374-3.665A23.331,23.331,0,0,0,99.74,152.5v-5.648H96.961v-3.389H99.74V138.7l4.366.275c.213,0,.7.122.7.427,0,.4-.611.611-.855.7v3.359h2.473v-2.015h3.023v-2.718l4.183.153c.244,0,.641.122.641.427,0,.336-.4.489-.824.672v1.466h3.878v-2.626l3.908.122c.366,0,.671.092.671.458,0,.275-.213.4-.671.611v1.435h3.541v3.541h-3.541v2.534H118a.667.667,0,0,1-.244.153,27.627,27.627,0,0,0,7.908,5.679,11.443,11.443,0,0,0-2.931,3.084,19.151,19.151,0,0,1-2.565-1.8Zm-16.213-5.282a13.671,13.671,0,0,0,2.046-1.16,16.3,16.3,0,0,0-.184,3.083,32.959,32.959,0,0,0,6.9-5.038h-3.267v-2.534h-2.718v1.863h-2.778Zm7.786,15.175v.854h-4.153v-9.892h15.145v9.892h-4.152v-.854Zm6.84-3.206V160.2h-6.84v2.412Zm-.916-10.107a24.956,24.956,0,0,1-2.321-2.229,23.736,23.736,0,0,1-2.687,2.229Zm-.336-5.618v-1.893h-3.878v1.8c.366-.4.427-.458.763-.855Z"/><path class="cls-3" d="M137.441,166.488h-3.816v-2.595h-6.076v-3.145h6.076v-.916H128.5v-7.267h5.13v-1.038h-5.771V148.84h5.771v-1.1h-6.26V144.23h6.26v-.977H128.5v-3.3h5.13v-1.435l3.908.122c.458,0,.611.122.611.305,0,.336-.4.58-.7.733v.275h5.649v3.3h-5.649v.977h6.5c-.061-1.649-.061-3.3.061-5.832l4.518.306c.306.03.55.152.55.366,0,.305-.275.428-.824.611a43.406,43.406,0,0,0-.153,4.549h3.175a15.37,15.37,0,0,0-2.9-3.328l2.992-2.473a21.705,21.705,0,0,1,3.42,4.122,16.012,16.012,0,0,0-2.321,1.679h2.9v3.511h-7.175a43.654,43.654,0,0,0,.641,6.565,29.985,29.985,0,0,0,1.984-5.863l3.939,2.138a.623.623,0,0,1,.336.427c0,.458-.58.458-.855.458a43.923,43.923,0,0,1-3.786,8c.611,1.343,1.008,1.924,1.557,1.924.519,0,.7-.7,1.038-1.924a8.411,8.411,0,0,0,3.115,2.473c-.3,1.069-1.5,5.038-3.908,5.038-2.2,0-4.092-3.267-4.55-4.061a24.819,24.819,0,0,1-4.915,4.305,8.183,8.183,0,0,0-3.267-2.656c.519-.306.7-.428,1.1-.672h-3.176Zm-3.816-12.121h-1.894v1.069h1.894Zm0,2.5h-1.894v1.1h1.894Zm3.816,3.877h6.321v.642a20.919,20.919,0,0,0,2.228-2.382,48.143,48.143,0,0,1-1.893-11.267h-6.656v1.1h5.771v2.687h-5.771v1.038h5.038v7.267h-5.038Zm0-5.312h1.924v-1.069h-1.924Zm0,2.534h1.924v-1.1h-1.924Z"/><path class="cls-2" d="M52.534,73.026v2.448H44.822c.674,4.223,4.407,8.1,8.222,10a7.5,7.5,0,0,0-1.856,2.142,17.38,17.38,0,0,1-4.815-4.018,20.345,20.345,0,0,1-3.06-4.876,17.032,17.032,0,0,1-7.691,8.833,6.413,6.413,0,0,0-2.061-2.04,13.547,13.547,0,0,0,8.018-10.037h-7.63V73.026h7.9a5.569,5.569,0,0,0,.041-.632v-3.51l2.876.164c.224.02.428.081.428.245,0,.183-.061.2-.591.408v2.693c0,.265.02.407.02.632Zm-9.67,9.405A20.542,20.542,0,0,1,46.312,85.9c-.266.2-1.571,1.326-1.979,1.713a20.445,20.445,0,0,0-3.265-3.406Z"/><path class="cls-2" d="M63.06,81.615a9.326,9.326,0,0,1-2.245,2.223,7.29,7.29,0,0,0-1.794-1.183l.061-.061a5,5,0,0,1-1.184.163,3.987,3.987,0,0,0-.775-2.122v6.774H54.8V69.5h6.1l.979.979c-.183.469-.652,1.652-1.04,2.509-.979,2.122-1.081,2.346-1.183,2.571A6.415,6.415,0,0,1,61,78.31V77.188H72.934v1.774h-8.3c-.184.449-.286.633-.367.8h8.2a23.833,23.833,0,0,1-.408,5.794c-.449,1.857-1.9,1.877-3.938,1.938a4.549,4.549,0,0,0-.734-2.346,13.383,13.383,0,0,1-2.122,2.3,5.079,5.079,0,0,0-1.9-1.142,13.224,13.224,0,0,0,3.794-4.692h-.816a15.284,15.284,0,0,1-5.569,5.549,5.963,5.963,0,0,0-1.693-1.51,11.594,11.594,0,0,0,4.855-4.039ZM57.123,71.6v4.1a21.832,21.832,0,0,0,1.714-4.1Zm0,8.67a3.45,3.45,0,0,0,.734.082A.974.974,0,0,0,58.9,79.31a4.71,4.71,0,0,0-1.775-3.428ZM61.1,78.962a4.205,4.205,0,0,1,.062.694,4.3,4.3,0,0,1-.246,1.449,8.856,8.856,0,0,0,1.49-2.143Zm10.466-9.506v6.977H62.081V69.456Zm-2.326,2.672V71.19H64.427v.938Zm-4.814,1.51V74.6h4.814v-.959Zm5,7.977a19.125,19.125,0,0,1-1.979,3.448,6.335,6.335,0,0,0,1.408.2c.571,0,.9-.1,1.04-.653a14.017,14.017,0,0,0,.286-3Z"/><path class="cls-2" d="M90.824,87.245H87.111c-.734,0-2.346-.061-2.346-2.407V78H80.95l2.02.551c.326.081.633.163.633.387,0,.2-.2.266-.633.408-.408,2.938-1.2,6.284-6.671,8.344a5.282,5.282,0,0,0-1.959-2.1C77.6,84.817,80.522,82.941,80.4,78H74.83V75.617h7.814V68.742l2.876.122c.286.02.531.061.531.265,0,.266-.367.347-.51.388v6.1h3.141A7.05,7.05,0,0,0,86.3,74.454a18.859,18.859,0,0,0,2.734-4.713L91.5,70.782c.245.1.367.163.367.346,0,.225-.265.266-.592.307a25.69,25.69,0,0,1-2.57,4.182h4.651V78h-6v5.814c0,.571,0,1.1.9,1.1h1.632c1.061,0,1.244-.509,1.469-2.2A3.566,3.566,0,0,0,93.6,83.757C93.436,85.838,92.824,87.245,90.824,87.245ZM79.339,75.535a22.733,22.733,0,0,0-2.959-4.59l2.469-1.163a20.725,20.725,0,0,1,3.04,4.529A19.936,19.936,0,0,0,79.339,75.535Z"/><path class="cls-2" d="M102.88,72.006c.307.081.388.142.388.286,0,.1-.061.265-.429.346-1.285,6.529-3.345,10.446-5.692,13.1a11.169,11.169,0,0,0-2.611-1.245c3.754-4.182,4.876-8.568,5.529-13.138Zm5.1-1.163a34.752,34.752,0,0,1,6.182,12.751c-.816.408-2.509,1.407-2.754,1.571A28.028,28.028,0,0,0,105.736,72.5Zm6.182.347a1.887,1.887,0,1,1-1.877-1.9A1.889,1.889,0,0,1,114.162,71.19Zm-2.836,0a.936.936,0,0,0,.939.938.954.954,0,0,0,.959-.938.949.949,0,0,0-1.9,0Z"/><path class="cls-2" d="M126.32,87.449h-2.795V81.737a26.34,26.34,0,0,1-5.9,2.836,11.209,11.209,0,0,0-1.489-2.346,22.726,22.726,0,0,0,10.629-6.366h-8.548V73.393h10.772a4.47,4.47,0,0,0,1.244-.2l1.469,1.469a10.608,10.608,0,0,0-1.184,1c-2.753,2.815-3.06,3.141-4.2,4.141ZM122.709,68.5a32.682,32.682,0,0,1,5.61,2.264c-.652,1.02-.938,1.469-1.346,2.244a24.623,24.623,0,0,0-5.631-2.468Zm6,10.425a35.362,35.362,0,0,1,5.019,3.631c-.307.367-1.388,1.8-1.612,2.122a28.923,28.923,0,0,0-5.121-3.9Z"/><path class="cls-2" d="M142.946,70.435c.2.02.469.02.469.265,0,.224-.2.326-.367.388v5c0,5.182-2.306,7.508-5.08,9.67a8.762,8.762,0,0,0-2.3-1.9c3.876-2.469,4.426-4.774,4.426-7.589V70.292Zm5.059-.183c.224.02.388.02.388.224s-.2.285-.388.387v10.69a21.294,21.294,0,0,0,5.835-5.692,7.634,7.634,0,0,0,1.367,2.53,30.465,30.465,0,0,1-5.835,5.733c-1.693,1.224-1.877,1.367-2.407,1.816l-1.877-1.224c.04-.551.081-1.061.081-1.612v-13Z"/><path class="cls-2" d="M93.9,47.979V28.409l-3.3,2.43v-3.5l3.3-2.43H97.2V47.979Z"/><path class="cls-2" d="M282.851,47.979v-3.11l5.961-11.243a4.087,4.087,0,0,0,.519-1.475q.065-.63.065-1.571c0-.28-.006-.577-.016-.891a2.172,2.172,0,0,0-.178-.826,1.4,1.4,0,0,0-1.426-.842,1.491,1.491,0,0,0-1.62,1.652v1.879h-3.305V29.738a4.87,4.87,0,0,1,.389-1.944,5.021,5.021,0,0,1,1.069-1.588,4.857,4.857,0,0,1,1.555-1.085,4.715,4.715,0,0,1,1.944-.4,4.851,4.851,0,0,1,2.22.47,4.436,4.436,0,0,1,1.539,1.279,5.565,5.565,0,0,1,.858,1.847,8.586,8.586,0,0,1,.276,2.2c0,.561-.012,1.031-.033,1.409a8.546,8.546,0,0,1-.129,1.085,4.79,4.79,0,0,1-.324,1.037q-.228.519-.616,1.264l-4.86,9.363H292.7v3.305Z"/><path class="cls-2" d="M190.622,200.856a4.177,4.177,0,0,0,2.058-.357q.565-.357.567-1.652v-2.981a1.612,1.612,0,0,0-.438-1.167,1.567,1.567,0,0,0-1.183-.453,1.4,1.4,0,0,0-1.247.55,1.915,1.915,0,0,0-.373,1.07v1.879h-3.3v-1.911a4.806,4.806,0,0,1,.388-1.912,4.653,4.653,0,0,1,1.07-1.555,5.3,5.3,0,0,1,1.587-1.037,4.87,4.87,0,0,1,1.944-.389,4.31,4.31,0,0,1,2.252.535,5.193,5.193,0,0,1,1.345,1.085,7.061,7.061,0,0,1,.566.777,3.8,3.8,0,0,1,.406.94,12.944,12.944,0,0,1,.291,3.175q0,1.2-.048,1.945a4.087,4.087,0,0,1-.243,1.23,2.465,2.465,0,0,1-.632.875,7.469,7.469,0,0,1-1.118.778,6.362,6.362,0,0,1,1.183.907,2.675,2.675,0,0,1,.6.972,5.023,5.023,0,0,1,.227,1.377q.031.793.032,2.025,0,1.134-.048,1.879a9.684,9.684,0,0,1-.146,1.231,3.838,3.838,0,0,1-.259.875,5.455,5.455,0,0,1-.422.746,5.22,5.22,0,0,1-1.571,1.506,4.667,4.667,0,0,1-2.511.6,5.815,5.815,0,0,1-1.652-.259,4.481,4.481,0,0,1-1.588-.842,4.572,4.572,0,0,1-1.183-1.523,5.107,5.107,0,0,1-.469-2.3V207.6h3.3v1.717a1.874,1.874,0,0,0,.438,1.279,1.641,1.641,0,0,0,2.365,0,1.97,1.97,0,0,0,.438-1.344v-3.305a2.277,2.277,0,0,0-.519-1.782,1.445,1.445,0,0,0-.794-.324,10.729,10.729,0,0,0-1.312-.064Z"/><path class="cls-3" d="M249.076,96.052h7.358v19.485h5.015v6.207h-5.015v6.7h-7.44v-6.7H233.62V115.5Zm-.082,19.485V104.15l-9.044,11.387Z"/><path class="cls-3" d="M273.2,121v7.44h-7.235V121Z"/><path class="cls-3" d="M289.352,113.934v-5.015h2.055c.781,0,5.673-.453,5.673-4.029,0-3.412-3.659-3.412-4.892-3.412-3.165,0-5.385.493-5.467,4.07h-7.687c.9-7.729,6.33-10.4,13.442-10.4,7.687,0,12.086,3.535,12.086,8.8,0,4.975-3.413,6.331-5.016,6.989,1.891.7,5.838,2.219,5.838,7.728,0,7.317-6.5,10.688-13.9,10.688-7.07,0-12.948-3.289-13.524-11.716h7.728c.082,1.562.37,5.55,5.879,5.55.781,0,6.083-.124,6.083-4.6,0-2.631-1.849-4.645-5.878-4.645Z"/><path class="cls-3" d="M317.449,130.712h-4.661V116.193a9.789,9.789,0,0,1-.788.882,10.356,10.356,0,0,0-3.338-3.37c1.1-1.134,3.968-4.062,6.141-11.842l4.693,1.291c.346.095.566.126.566.347,0,.378-.661.567-.944.661-.882,2.394-1.165,3.213-1.827,4.661.788.284.882.316.882.536,0,.189-.094.252-.724.914Zm20.471-25.227v3.874h-3.527l1.826.819c.315.126.41.189.41.378,0,.22-.567.378-.819.409-.567,1.165-.945,1.921-1.575,3.055h4.315v4.031H318.331V114.02h4.409a26.123,26.123,0,0,0-1.7-3.716l2.772-.945h-4.473v-3.874H326.2v-3.464l4.535.094c.567,0,.725.126.725.347,0,.283-.347.6-.725.818v2.2ZM325.07,129.7v1.008h-4.378V119.405h16.189v11.307H332.44V129.7Zm.473-20.345a25.414,25.414,0,0,1,1.764,3.59,25.2,25.2,0,0,0-3.024,1.071h5.228a41.673,41.673,0,0,0,2.015-4.661Zm6.9,16.409v-2.552h-7.37v2.552Z"/><path class="cls-3" d="M238.153,163.471H217.184c.405-5.461,3.463-7.707,10.078-12.2,5.024-3.433,5.024-4.151,5.024-5.461,0-2.341-2.5-2.933-4.119-2.933-4.212,0-4.649,3-4.774,5.023H217.62c.094-1.965.188-4.119,1.935-6.21,2.091-2.527,5.117-3.494,8.644-3.494,7.145,0,9.735,3.932,9.735,7.52a7.386,7.386,0,0,1-1.373,4.275c-1.591,2.216-7.894,6.241-8.207,6.459a17.241,17.241,0,0,0-3.182,2.4h12.981Z"/><path class="cls-3" d="M247.7,161.6l-3.09-3.089,7.333-7.333-7.333-7.333,3.09-3.09,7.333,7.333,7.333-7.333,3.089,3.09-7.333,7.333,7.333,7.333-3.089,3.089-7.333-7.333Z"/><path class="cls-3" d="M283.644,138.882h5.585v14.791h3.807v4.712h-3.807v5.086h-5.648v-5.086h-11.67v-4.743Zm-.063,14.791v-8.644l-6.865,8.644Z"/><path class="cls-3" d="M313.94,159.633h11.8v4.431H297.246v-4.431H309.01V143.844h-9.7v-4.463h24.308v4.463H313.94Z"/><path class="cls-3" d="M330.039,144.905A39.36,39.36,0,0,1,335,148.774a16.054,16.054,0,0,0-2.527,3.214,41.831,41.831,0,0,0-4.961-3.807Zm-2.5,18.067a34.706,34.706,0,0,0,4.836-9.642,10.085,10.085,0,0,0,3.62,2.247,49.017,49.017,0,0,1-4.025,9.3.863.863,0,0,1,.093.405.439.439,0,0,1-.437.406,1.23,1.23,0,0,1-.592-.219Zm4.587-25.806a21.894,21.894,0,0,1,4.836,4.057c-1.466,1.591-1.622,1.778-2.933,3.37a26.756,26.756,0,0,0-4.743-4.369Zm19.128,16.6a39.515,39.515,0,0,1,6.366,9.517,15.6,15.6,0,0,0-3.932,2.434c-.655-1.342-1-2.028-1.591-3.089a90.171,90.171,0,0,1-13.793,2.09c-.124.281-.281.624-.655.624-.343,0-.437-.374-.53-.748l-1-4.276c1.436,0,2.372,0,3.5-.093a53.1,53.1,0,0,0,2.995-6.9h-6.49v-4.088h8.02v-3.464h-6.429v-4.025h6.429V137.2l4.836.094c.5,0,.874.062.874.437,0,.343-.312.437-.9.655v3.37h6.958v4.025h-6.958v3.464h8.144v4.088h-8.3a.264.264,0,0,1,.062.218c0,.437-.874.624-1.31.687-.625,1.466-1.373,2.933-2.746,5.617a43.849,43.849,0,0,0,5.148-.749,14.587,14.587,0,0,0-2.278-3.027Z"/><path class="cls-2" d="M242.315,74.27v2.224h-2v6.1c.368-.122,2-.611,2.326-.714a8.077,8.077,0,0,0-.183,2.408c-1.245.489-5.774,1.9-6.019,1.958-.1.429-.143.571-.326.571s-.245-.183-.306-.408l-.653-2.447a22.358,22.358,0,0,0,2.652-.633V76.494h-2.2V74.27h2.2V69.292l2.734.163c.143,0,.326.082.326.265,0,.143-.163.2-.551.327V74.27Zm5.1.918V68.965l2.509.164c.164.02.368.1.368.245,0,.163-.225.265-.49.367v4.468l2.958-1.225,1.1.531v7.059c0,.714,0,1.754-1.265,2.142a5.766,5.766,0,0,0,2.183,1.347c-.551,2.856-1.51,3.2-3.774,3.2H246.7c-1.551,0-3-.367-3-2.611V79.207l-2.019.837-.817-2.123,2.836-1.183V70.394l2.632.183c.163.021.367.082.367.225s-.265.265-.53.367v4.549Zm-1.244,3V83.94c0,.469,0,1.061,1.142,1.061h3.264c1.306,0,1.857-.245,1.959-2.265a9.645,9.645,0,0,1-1.755.143,9.283,9.283,0,0,0-.877-2.489,5.2,5.2,0,0,0,.836.1c.715,0,.715-.387.715-.816V75.963l-1.653.694V83.1h-2.387V77.656Z"/><path class="cls-2" d="M272.772,83.124a.385.385,0,0,1,.184.286c0,.1-.081.2-.265.2a2.642,2.642,0,0,1-.347-.04,14.32,14.32,0,0,1-1.183,1.04,13.677,13.677,0,0,0,3.631.979A3.658,3.658,0,0,0,273.4,87.51a15.026,15.026,0,0,1-6.631-3.223,8.892,8.892,0,0,0-.326,1.979c-2.836.55-5.835.979-6.12,1.02-.041.244-.143.408-.347.408-.163,0-.245-.225-.286-.367l-.469-2c.449-.041,1.51-.183,1.9-.224v-2.51h-1.938a11.4,11.4,0,0,1-1.531,4.611,4.149,4.149,0,0,0-2.1-1.061c1.367-2.019,1.53-3.917,1.53-7.1V77.065h17.055v1.408H259.308v1.673c0,.265-.02.754-.041,1H274.18v1.448h-2.162Zm-6.3-11.4h8v4H272.3V73.209h-5.834v3.04h-2.285v-3.04h-5.876v2.509h-2.162v-4h8.038v-.755H257.39V69.313h15.75v1.652h-6.671Zm-3.122,2.121V74.9h-4.264V73.841Zm0,1.571v1.1h-4.264v-1.1Zm9.344,3.775V80.37H260.267V79.187Zm-9.079,5.548c.449-.061,2.591-.448,3.081-.53a8.959,8.959,0,0,1-1.448-1.612h-1.633Zm7.916-10.894V74.9h-4.345V73.841Zm0,1.571v1.1h-4.345v-1.1Zm-3.468,7.181a7.479,7.479,0,0,0,1.265,1.02,6.067,6.067,0,0,0,1.061-1.02Z"/><path class="cls-2" d="M281.462,70.312c.306.123.47.163.47.347,0,.2-.2.245-.511.285a25.919,25.919,0,0,0-1.346,8.467,11.431,11.431,0,0,0,.183,2.244c.062-.163.674-1.55,1-2.122a4.915,4.915,0,0,0,1.388,1.449,12.39,12.39,0,0,0-1.388,5.121l-2.448.693a20.966,20.966,0,0,1-1.367-7.916,41.093,41.093,0,0,1,1.286-9.588Zm5.345,9.527a4.888,4.888,0,0,0-.51,1.755c0,1.02.939,1.224,3.142,1.224a21.057,21.057,0,0,0,5.141-.551,11.215,11.215,0,0,0-.245,2.836,40.5,40.5,0,0,1-4.733.285c-4.08,0-5.794-.918-5.794-2.937a7.187,7.187,0,0,1,.735-3.04Zm-2.2-8.384c.571.04,1.285.1,2.428.1a24.724,24.724,0,0,0,6.181-.653,21.358,21.358,0,0,0,.266,2.652,32.184,32.184,0,0,1-6.407.592c-1.122,0-1.856-.041-2.468-.082Z"/><path class="cls-2" d="M303.229,77.656c.061,3.244-.327,7.651-1.122,8.875-.408.632-1.163,1.04-3.387,1.081a4.267,4.267,0,0,0-.938-2.591,10.038,10.038,0,0,0,1.469.164.95.95,0,0,0,1.122-.878,26.924,26.924,0,0,0,.449-4.3h-1.408c-.081.387-.122.591-.2,1.081a7.583,7.583,0,0,0-2.326-.408,29.744,29.744,0,0,0,.878-7.141l2.04.367h1.04V71.536h-3.733V69.353h6.141V75.9h-3.326c-.02.388-.02.551-.163,1.754Zm7.507-3.57c.225.021.429.082.429.266,0,.122-.1.3-.429.387v1.1h3.938v5.794h-4.06v2.57c.224-.02,1.306-.142,1.51-.163a7.581,7.581,0,0,0-.877-1.285l1.979-1.041A31.142,31.142,0,0,1,316,86.225a15.225,15.225,0,0,0-2.04,1.244,13.767,13.767,0,0,0-.8-1.591c-5.712.816-7.915,1.061-8.446,1.1-.02.143-.1.469-.387.469-.143,0-.245-.163-.286-.347l-.49-2.285c1.489-.1,1.837-.122,4.815-.387v-2.8h-1.734v1.02h-2.244V75.841h4.1V74.107l-3.794.408a.374.374,0,0,1-.347.408c-.2,0-.245-.225-.265-.388l-.388-2.06c.347-.021,1.9-.143,2.2-.163a19.688,19.688,0,0,0,1.143-3.51l2.53.245c.244.02.387.143.387.327,0,.326-.428.367-.55.367-.572,1.285-.633,1.428-1.082,2.387,1-.1,2.346-.245,3.285-.408-.51-.653-.8-.98-1.081-1.285l1.856-1.184a23.691,23.691,0,0,1,3.427,4.631,22.847,22.847,0,0,0-2.019,1.2,8.927,8.927,0,0,0-.878-1.551c-.775.143-2.244.327-3.121.429Zm-4.1,3.754v1.8h1.734v-1.8Zm3.978,0v1.8h1.8v-1.8Z"/><path class="cls-2" d="M321.609,70.9c.327.1.429.142.429.326,0,.245-.286.286-.429.306a18.028,18.028,0,0,0-1.081,6.141c0,2.876,1.02,4.937,1.754,4.937.755,0,1.694-2.265,2.183-3.407a8.066,8.066,0,0,0,1.836,1.816c-1.509,3.712-3.182,5.243-4.284,5.243-1.346,0-4.182-2.653-4.182-8.793a35.383,35.383,0,0,1,.959-7.386Zm10.14.265a20.2,20.2,0,0,1,4.08,10.343,23.825,23.825,0,0,0-2.836,1.265,18.178,18.178,0,0,0-3.509-10.18Z"/><line class="cls-4" x1="192.01" y1="54.525" x2="192.01" y2="166.525"/><polyline class="cls-4" points="288.01 221.651 192.01 166.225 96.01 221.651"/><line class="cls-5" x1="83.88" y1="53.766" x2="107.88" y2="53.766"/><line class="cls-5" x1="276" y1="53.766" x2="300" y2="53.766"/><line class="cls-5" x1="180.01" y1="220.486" x2="204.01" y2="220.486"/></svg>