<svg id="レイヤー_1" data-name="レイヤー 1" xmlns="http://www.w3.org/2000/svg" viewBox="0 0 390 157"><defs><style>.cls-1{fill:#505050;}.cls-2{fill:#fff;}</style></defs><rect class="cls-1" x="81.224" width="227.552" height="107.581"/><path class="cls-1" d="M195,157,0,78.5H390Z"/><path class="cls-2" d="M117.149,29.092c1.377,0,7.181-.295,9.247-.525a13.059,13.059,0,0,0,2.557-.459l3.115,3.671a36.533,36.533,0,0,0-3.049,2.13c-2.3,1.77-4.656,3.769-6.69,5.342,4.067-.393,9.247-.688,12.822-.688l.032,4.687a51.918,51.918,0,0,0-8.525.033c-2.886.393-5.05,2.2-5.05,4.654,0,2.2,1.673,3.146,4.591,3.441a34.31,34.31,0,0,0,5.148.065L130.3,56.687c-8.624.362-13.805-2.2-13.805-7.9a7.831,7.831,0,0,1,1.574-4.589c-2.722.2-5.968.689-8.919,1.213l-.46-4.818c1.739-.164,4.067-.459,5.8-.655a75.6,75.6,0,0,0,8.329-6.653c-1.279.1-4.361.262-5.672.392-.788.067-1.968.2-3.181.329l-.23-5.047C114.919,29.058,115.968,29.092,117.149,29.092Z"/><path class="cls-2" d="M156.961,56.229l-3.016-4.72a24.884,24.884,0,0,0,3.213-.59c4.165-1.016,6.952-3.932,6.952-8.259,0-4.228-2.066-7.243-5.837-8.128a65.133,65.133,0,0,1-1.935,8.554c-1.934,6.555-4.886,10.947-8.754,10.947-4.067,0-7.149-4.392-7.149-10,0-7.8,6.722-14.42,15.477-14.42,8.362,0,13.641,5.768,13.641,13.208C169.553,49.739,165.487,54.787,156.961,56.229Zm-9.247-8.39c1.312,0,2.3-2,3.476-5.8a48.608,48.608,0,0,0,1.673-7.374,9.773,9.773,0,0,0-7.28,8.849C145.583,46.363,146.567,47.839,147.714,47.839Z"/><path class="cls-2" d="M172.968,51.051c5.9-5.507,10.2-9.571,10.2-12.914,0-2.261-1.213-3.441-3.181-3.441-1.672,0-2.951,1.18-4.131,2.359l-3.181-3.146c2.394-2.523,4.624-3.769,8.1-3.769,4.722,0,8,3.016,8,7.669,0,3.966-3.7,8.194-7.378,12a34.583,34.583,0,0,1,4-.327h4.492v4.915h-16.92Z"/><path class="cls-2" d="M199.86,52.787,197.072,50l8.132-8.129-8.132-8.127,2.788-2.786,8.132,8.127,8.132-8.127,2.787,2.786-8.132,8.127L218.911,50l-2.787,2.785-8.132-8.128Z"/><path class="cls-2" d="M235.344,48.855H225.081V44.79L233.573,30.6h7.214V44.4h2.689v4.458h-2.689v5.538h-5.443Zm0-4.458V40.923c0-1.541.131-3.9.2-5.441h-.132c-.622,1.377-1.278,2.721-1.967,4.13L230.655,44.4Z"/><path class="cls-2" d="M260.038,30.861a75.709,75.709,0,0,0,8.821-.918l-.033,4.589c-3.049.393-7.083.688-10.559.819a24.608,24.608,0,0,1-1.278,2.327,16.026,16.026,0,0,1,3.246-.327,4.741,4.741,0,0,1,4.361,2.294c1.312-.623,2.394-1.049,3.542-1.573,1.442-.623,2.787-1.246,4.2-1.934l1.934,4.588c-1.147.328-3.213,1.082-4.459,1.573s-2.853,1.115-4.591,1.868c.033,1.8.1,4,.131,5.474h-4.722c.066-.852.132-2.065.164-3.31-2.065,1.212-2.951,2.294-2.951,3.606,0,1.376,1.017,1.933,4.1,1.933a49.394,49.394,0,0,0,9.542-1.016l-.164,5.113a80.144,80.144,0,0,1-9.476.589c-5.378,0-9.247-1.409-9.247-5.768,0-4.294,3.9-7.013,7.541-8.915a2.414,2.414,0,0,0-1.8-.688,7.746,7.746,0,0,0-4.82,2.2,36.114,36.114,0,0,0-3.05,3.7l-4.23-3.179a31.033,31.033,0,0,0,7.017-8.456c-1.344,0-3.738-.066-5.476-.23V30.632a43.232,43.232,0,0,0,5.9.393h1.278a20.579,20.579,0,0,0,.558-3.572l5.247.426C260.628,28.6,260.4,29.616,260.038,30.861Z"/><path class="cls-2" d="M122.658,71.326,128,70.7a41.535,41.535,0,0,0,1.279,4.851,51.78,51.78,0,0,0,6.427-1.409l.623,4.981a44.265,44.265,0,0,1-5.312,1.082,33.111,33.111,0,0,0,2.524,4.589,25.758,25.758,0,0,0,1.935,2.457l-2.393,3.539c-2-.36-6.231-.819-9.215-1.081l.394-4.195c1.476.131,3.508.3,4.427.361a56.728,56.728,0,0,1-2.591-5.113,89.773,89.773,0,0,1-14.133-.131l-.065-5.08a70.724,70.724,0,0,0,12.395.524q-.248-.835-.492-1.474C123.543,73.818,123.117,72.539,122.658,71.326Zm-4.951,20.157c0,2.556,2.229,3.6,6.525,3.6a48.9,48.9,0,0,0,8.952-.786l-.295,5.015a48.912,48.912,0,0,1-8.985.786c-6.984,0-11.346-2.786-11.346-7.669a13.9,13.9,0,0,1,1.8-6.457l4.984,1.148A7.536,7.536,0,0,0,117.707,91.483Z"/><path class="cls-2" d="M147.117,84.863a16.523,16.523,0,0,1,9.084-2.655c6.164,0,9.509,3.835,9.509,7.866,0,6.063-4.492,11.012-18.92,9.767l-1.542-5.212c9.575,1.409,14.855-.655,14.855-4.654,0-1.868-1.771-3.244-4.394-3.244a11.007,11.007,0,0,0-8.493,3.572,8.369,8.369,0,0,0-1.345,2.032l-4.557-1.114a119.277,119.277,0,0,0,1.639-13.929l5.345.721A50.765,50.765,0,0,0,147.117,84.863Zm13.806-11.21-1.181,4.884c-3.443-.459-10.854-2.032-13.444-2.687l1.246-4.753A103.64,103.64,0,0,0,160.923,73.653Z"/><path class="cls-2" d="M176.768,75.85a86.2,86.2,0,0,0-1.574,11.7,6.022,6.022,0,0,0,.033.754c.459-.918.853-1.573,1.279-2.524l2.393,1.9a87.123,87.123,0,0,0-2.36,8.424,11.245,11.245,0,0,0-.2,1.573c0,.36,0,.95.033,1.475l-4.591.294a41.781,41.781,0,0,1-1.312-10.782,94.552,94.552,0,0,1,1.279-12.914,36.569,36.569,0,0,0,.394-3.7l5.541.459C177.391,73.261,176.9,75.26,176.768,75.85ZM185.1,91.483c0,1.442,1.377,2,4.066,2a37.687,37.687,0,0,0,8.263-.886l.1,5.376a47.6,47.6,0,0,1-8.624.622c-5.738,0-8.591-2.13-8.591-5.637a19.46,19.46,0,0,1,.59-4.49l4.525.393A11.415,11.415,0,0,0,185.1,91.483Zm11.411-17.01v5.113a92.276,92.276,0,0,1-14.427,0l-.034-5.08A75.993,75.993,0,0,0,196.508,74.473Z"/><path class="cls-2" d="M211.253,85.125s-.033,1.179-.066,1.737c-.328,7.767-.688,11.209-1.672,12.421a3.759,3.759,0,0,1-2.689,1.541,23.18,23.18,0,0,1-3.967.163,11.366,11.366,0,0,0-1.443-4.653c1.311.131,2.557.131,3.213.131a1.335,1.335,0,0,0,1.148-.427c.491-.491.754-2.424.983-6.849h-2.1q-.1.885-.2,1.672l-4.1-.623c.459-3.048.885-7.735,1.05-11.5h5.344V75.85h-5.7V71.655h10.231V82.962h-6.034l-.2,2.163Zm16.264,15.994a15.824,15.824,0,0,0-.689-2.131c-5.41.493-11.017.918-15.182,1.213l-.557-4.588c2.1-.1,4.689-.23,7.476-.426V91.615H212.2v-9.8h6.361V79.75c-2.361.2-4.558.36-6.46.491l-.59-4.457,2.886-.131a37.728,37.728,0,0,0,2.623-5.834l5.148,1.147c-.852,1.541-1.771,3.081-2.689,4.458l4.623-.263c-.393-.556-.786-1.114-1.18-1.605l4-1.737a28.5,28.5,0,0,1,4.623,7.242L227.222,81a10.661,10.661,0,0,0-.787-1.9l-3.312.3v2.424h6.689v9.8h-6.689v3.277l1.607-.1q-.492-.834-.984-1.573l3.869-1.605a28.618,28.618,0,0,1,4.1,7.734ZM218.565,87.78v-2.1H216.5v2.1Zm4.558-2.1v2.1h2.164v-2.1Z"/><path class="cls-2" d="M251.1,77.029c-2.066,1.541-6.165,4.688-8.231,6.49-1.607,1.376-1.541,1.671.033,3.08,2.164,1.869,8.624,6.884,11.9,10l-4.657,4.294c-1.049-1.18-2.131-2.327-3.213-3.409-1.8-1.9-6.525-5.933-9.509-8.488-3.345-2.885-3.148-4.852.328-7.7,2.623-2.13,6.853-5.6,9.05-7.7a23.7,23.7,0,0,0,2.885-3.113l4.624,4.1C253.1,75.456,251.987,76.309,251.1,77.029Z"/><path class="cls-2" d="M266.221,94.924a3.345,3.345,0,0,1,6.689,0,3.345,3.345,0,0,1-6.689,0Zm.328-16.124-.2-5.441h6.427l-.2,5.441L271.6,89.156h-4.066Z"/></svg>