<svg id="レイヤー_1" data-name="レイヤー 1" xmlns="http://www.w3.org/2000/svg" viewBox="0 0 304 68"><defs><style>.cls-1{fill:#df1614;}.cls-2{fill:#fff;}</style></defs><rect class="cls-1" width="304" height="50"/><path class="cls-2" d="M62.6,21.5H53.952V19.062H62.6ZM61.78,34.872H57.554v.777H54.923V28.164H61.78ZM55.009,22.146h6.815v2.33H55.009Zm0,2.977h6.815v2.329H55.009Zm6.771-6.686H55.074v-2.33H61.78ZM57.554,30.6v1.834h1.552V30.6ZM74.5,31.27H69.974v4.7H66.869v-4.7H62.254V28.423h4.615V26.741H63.44V23.958h3.429V22.341h-3.9V19.515h1.682a16.781,16.781,0,0,0-1.164-3.02l2.523-.927a13.509,13.509,0,0,1,1.445,3.515l-1.122.432h4.011l-.992-.324a21.8,21.8,0,0,0,1.38-3.775l3.062.863c-.6,1.187-1.207,2.352-1.725,3.236h2.07v2.826H69.974v1.617H73.64v2.783H69.974v1.682H74.5Z"/><path class="cls-2" d="M82.583,19.925c-.108,2.264-.259,6.923-.259,9.3a2.385,2.385,0,0,0,2.653,2.718c3.342,0,5.606-1.963,7.18-4.379l2.372,2.912a11.414,11.414,0,0,1-9.574,5.047c-3.774,0-6.124-1.7-6.124-5.478,0-2.718.194-8.5.194-10.116A15.9,15.9,0,0,0,78.7,16.6l4.205.043C82.756,17.66,82.626,18.976,82.583,19.925Z"/><path class="cls-2" d="M107.678,20.2c-1.358,1.014-4.054,3.085-5.413,4.271-1.056.906-1.013,1.1.022,2.027,1.423,1.23,5.671,4.53,7.828,6.579l-3.062,2.825c-.69-.776-1.4-1.531-2.113-2.243-1.187-1.251-4.292-3.9-6.254-5.586-2.2-1.9-2.07-3.193.216-5.069,1.725-1.4,4.506-3.688,5.951-5.069a15.479,15.479,0,0,0,1.9-2.049l3.041,2.7C108.993,19.17,108.26,19.73,107.678,20.2Z"/><path class="cls-2" d="M118.39,19.364a61.136,61.136,0,0,0-1.014,8.153,4.088,4.088,0,0,0,.021.5c.26-.626.54-1.035.82-1.682l1.574,1.272c-.647,1.941-1.294,4.12-1.552,5.371a6.487,6.487,0,0,0-.13,1.014c0,.237,0,.625.022.97l-2.954.216a25.112,25.112,0,0,1-.885-6.924,66.894,66.894,0,0,1,.841-8.951c.087-.647.216-1.639.238-2.437l3.6.3A20.934,20.934,0,0,0,118.39,19.364ZM129.3,18.328c-.022.41-.043,1.122-.065,2.028,1.1-.13,2.157-.281,3.127-.5v3.257c-.97.129-2.027.259-3.148.324.043,1.984.15,3.515.215,4.809a13.682,13.682,0,0,1,4.141,2.783L131.8,33.772a29.1,29.1,0,0,0-2.308-1.963c-.28,2.028-1.617,3.278-4.442,3.278-3.041,0-5.046-1.293-5.046-3.731,0-2.416,1.984-3.969,5-3.969.366,0,.733.022,1.078.044-.065-1.144-.129-2.459-.151-3.818-.41.022-.819.022-1.207.022-1.3,0-2.588-.044-3.86-.13l-.022-3.106a37.429,37.429,0,0,0,3.86.194c.41,0,.8,0,1.207-.021-.021-1.014-.021-1.812-.043-2.2a10.537,10.537,0,0,0-.172-1.488h3.73A14.406,14.406,0,0,0,129.3,18.328ZM124.751,32c1.035,0,1.444-.561,1.444-1.747v-.151a5.435,5.435,0,0,0-1.444-.194c-1.014,0-1.682.388-1.682,1.079C123.069,31.745,123.824,32,124.751,32Z"/><path class="cls-2" d="M155.646,18.7s-.022.992-.043,1.359c-.367,9.6-.712,13.222-1.509,14.322a2.581,2.581,0,0,1-1.79,1.273,10.594,10.594,0,0,1-2.459.129,8.5,8.5,0,0,0-.862-3.063,14.423,14.423,0,0,0,1.768.086.881.881,0,0,0,.755-.431c.431-.582.754-2.847,1.013-8.477-1.186,4.573-3.191,9.016-6.124,11.5a10.612,10.612,0,0,0-2.523-1.812c3.407-2.437,5.477-7.118,6.555-11.993h-.582c-.905,3.452-2.63,7.248-4.744,9.3a11.189,11.189,0,0,0-2.393-1.747c2.048-1.618,3.623-4.573,4.571-7.55h-.647a16.949,16.949,0,0,1-2.156,3.732,18,18,0,0,0-2.351-1.747,10.776,10.776,0,0,0,.82-1.079h-1.186v2.955l1.7-.452.41,2.76c-.69.216-1.4.431-2.113.647v7.571h-2.868V29.243c-1.078.323-2.113.625-3.041.884l-.733-3c1.057-.216,2.351-.539,3.774-.906V22.491h-1.122a17.41,17.41,0,0,1-.733,2.5,17.876,17.876,0,0,0-2.178-1.424,26.8,26.8,0,0,0,1.1-6.859l2.588.431c-.065.777-.151,1.575-.259,2.373h.6V15.481h2.868v4.034h1.552v2.394a21.35,21.35,0,0,0,2.243-6.428l2.825.54c-.194.906-.432,1.811-.69,2.674Z"/><path class="cls-2" d="M164.933,16.5a34.364,34.364,0,0,1-2.092,4.573V35.95h-2.976V25.619c-.3.388-.625.755-.927,1.078a21.387,21.387,0,0,0-1.638-3.3,22.078,22.078,0,0,0,4.679-7.829Zm13.133,12.316H172.7V35.95h-3.17V28.811h-5.65V25.748h5.65V22.6h-2.2a20.229,20.229,0,0,1-1.208,2.545,18.494,18.494,0,0,0-2.739-1.488,19.789,19.789,0,0,0,2.5-6.923l3.019.625c-.151.712-.323,1.445-.539,2.178h1.164V15.762h3.17v3.774h4.291V22.6H172.7v3.149h5.37Z"/><path class="cls-2" d="M188.669,21.5h-8.648V19.062h8.648Zm-.82,13.373h-4.226v.777h-2.631V28.164h6.857Zm-6.771-12.726h6.814v2.33h-6.814Zm0,2.977h6.814v2.329h-6.814Zm6.771-6.686h-6.706v-2.33h6.706ZM183.623,30.6v1.834h1.552V30.6Zm16.949.669h-4.529v4.7h-3.105v-4.7h-4.614V28.423h4.614V26.741h-3.429V23.958h3.429V22.341h-3.9V19.515h1.682a16.781,16.781,0,0,0-1.164-3.02l2.523-.927a13.544,13.544,0,0,1,1.445,3.515l-1.122.432h4.011l-.992-.324a21.8,21.8,0,0,0,1.38-3.775l3.062.863c-.6,1.187-1.207,2.352-1.725,3.236h2.07v2.826h-4.162v1.617h3.667v2.783h-3.667v1.682h4.529Z"/><path class="cls-2" d="M222.28,17.056V35.433h-2.911v-.971h-5.154v1.165h-2.782V32.478l-2.156.776A23.877,23.877,0,0,0,208.371,30V35.95h-2.76V29.437a19.983,19.983,0,0,1-1.143,4.982,15.719,15.719,0,0,0-2.35-1.121,16.365,16.365,0,0,0,.992-4.983l2.5.431V27.28c-1.014.107-1.984.215-2.846.323l-.432-2.739c.539-.021,1.165-.065,1.833-.108.237-.323.475-.647.712-.992a19.106,19.106,0,0,0-2.545-2.955l1.445-2.178.453.409a28.863,28.863,0,0,0,1.38-3.58l2.76,1.014c-.8,1.488-1.66,3.127-2.394,4.335.151.194.324.388.454.582a35.752,35.752,0,0,0,1.768-3.257l2.544,1.208c-.841,1.273-1.811,2.653-2.782,3.969l2.049-.906a23.246,23.246,0,0,1,1.423,2.955v-8.3Zm-14,7.4c-.151-.323-.3-.647-.453-.949-.281.345-.539.712-.8,1.035Zm2.07,3.775c.388.949.776,2.07,1.078,3.062V27.258l-1.9.884a10.373,10.373,0,0,0-.324-1.294l-.841.108V28.9Zm3.86-8.283v4.443H215.4V19.946Zm0,11.69H215.4V27.215h-1.186Zm5.154-11.69h-1.251v4.443h1.251Zm0,11.69V27.215h-1.251v4.421Z"/><path class="cls-2" d="M226.867,25.382c.927-.949,2.5-3.041,3.881-4.616,1.639-1.855,3.192-1.963,4.852-.388,1.574,1.488,3.321,3.753,4.528,5.09,1.424,1.553,3.105,3.3,5.219,5.2l-2.717,3.149a66.752,66.752,0,0,1-4.572-5c-1.294-1.574-2.889-3.623-3.9-4.788-.668-.733-1.078-.647-1.639.064-.776.992-2.156,3-3,4.163-.518.777-1.014,1.618-1.423,2.243L224.9,27.215A17.1,17.1,0,0,0,226.867,25.382Z"/><path class="cls-2" d="M249.4,31.982a2.2,2.2,0,0,1,4.4,0,2.2,2.2,0,1,1-4.4,0Zm.215-10.612-.129-3.581h4.226l-.129,3.581-.646,6.815h-2.675Z"/><path class="cls-1" d="M152,68,139.674,46.646h24.652Z"/></svg>