<svg id="レイヤー_1" data-name="レイヤー 1" xmlns="http://www.w3.org/2000/svg" xmlns:xlink="http://www.w3.org/1999/xlink" viewBox="0 0 722 135.38"><defs><style>.cls-1,.cls-10,.cls-2,.cls-3,.cls-4,.cls-5{fill:none;}.cls-2,.cls-3,.cls-4,.cls-5{stroke:#df1614;stroke-linecap:round;stroke-linejoin:round;stroke-width:2.761px;}.cls-3{stroke-dasharray:4.126 6.228;}.cls-4{stroke-dasharray:3.432 5.18;}.cls-5{stroke-dasharray:2.835 4.28;}.cls-6{fill:#df1614;}.cls-7{fill:#fff;}.cls-8{fill:#505050;}.cls-9{clip-path:url(#clip-path);}.cls-10{stroke:#666;stroke-miterlimit:10;stroke-width:0.41px;}</style><clipPath id="clip-path"><rect class="cls-1" x="552.777" y="19.938" width="93.123" height="62.835" rx="3.927" transform="translate(18.021 -103.286) rotate(9.999)"/></clipPath></defs><line class="cls-2" x1="47.79" y1="27.145" x2="45.855" y2="25.902"/><line class="cls-3" x1="40.618" y1="22.535" x2="34.529" y2="18.621"/><line class="cls-2" x1="31.911" y1="16.938" x2="29.976" y2="15.694"/><line class="cls-2" x1="56.494" y1="19.342" x2="56.002" y2="17.096"/><line class="cls-4" x1="54.895" y1="12.037" x2="53.607" y2="6.157"/><line class="cls-2" x1="53.053" y1="3.627" x2="52.562" y2="1.38"/><line class="cls-2" x1="43.872" y1="39.952" x2="41.573" y2="40.027"/><line class="cls-5" x1="37.297" y1="40.164" x2="32.326" y2="40.325"/><line class="cls-2" x1="30.188" y1="40.394" x2="27.889" y2="40.468"/><ellipse class="cls-6" cx="113.544" cy="43.912" rx="58.941" ry="31.585"/><path class="cls-7" d="M79.861,33.236l4.451-.519a34.469,34.469,0,0,0,1.065,4.041,42.92,42.92,0,0,0,5.352-1.174l.519,4.15a37.027,37.027,0,0,1-4.424.9,27.412,27.412,0,0,0,2.1,3.823,21.2,21.2,0,0,0,1.611,2.047l-1.994,2.949c-1.665-.3-5.188-.682-7.672-.9l.327-3.494c1.229.108,2.922.245,3.687.3a47.022,47.022,0,0,1-2.158-4.26,74.639,74.639,0,0,1-11.769-.109l-.054-4.232a58.854,58.854,0,0,0,10.321.437q-.2-.7-.409-1.229C80.6,35.311,80.243,34.246,79.861,33.236ZM75.738,50.028c0,2.129,1.857,3,5.434,3a40.692,40.692,0,0,0,7.454-.655l-.245,4.177a40.63,40.63,0,0,1-7.482.656c-5.816,0-9.448-2.321-9.448-6.39a11.57,11.57,0,0,1,1.5-5.378l4.15.955A6.289,6.289,0,0,0,75.738,50.028Z"/><path class="cls-7" d="M100.3,44.512a13.758,13.758,0,0,1,7.564-2.211c5.134,0,7.919,3.194,7.919,6.553,0,5.051-3.741,9.174-15.756,8.136l-1.283-4.341c7.973,1.174,12.369-.547,12.369-3.877,0-1.556-1.474-2.7-3.658-2.7a9.167,9.167,0,0,0-7.073,2.976,6.958,6.958,0,0,0-1.119,1.694l-3.8-.929a99.383,99.383,0,0,0,1.366-11.6l4.45.6A42.288,42.288,0,0,0,100.3,44.512Zm11.5-9.338-.983,4.069c-2.867-.382-9.038-1.693-11.195-2.239l1.037-3.959A86.444,86.444,0,0,0,111.8,35.174Z"/><path class="cls-7" d="M125.052,37a71.83,71.83,0,0,0-1.31,9.747,5.1,5.1,0,0,0,.027.628c.382-.764.71-1.311,1.065-2.1l1.993,1.583a72.321,72.321,0,0,0-1.965,7.017,9.457,9.457,0,0,0-.164,1.311c0,.3,0,.792.027,1.229l-3.823.245a34.827,34.827,0,0,1-1.092-8.982,78.815,78.815,0,0,1,1.065-10.758,30.625,30.625,0,0,0,.327-3.086l4.615.383C125.571,34.847,125.162,36.512,125.052,37Zm6.937,13.024c0,1.2,1.146,1.665,3.385,1.665a31.375,31.375,0,0,0,6.881-.737l.082,4.478a39.558,39.558,0,0,1-7.181.519c-4.779,0-7.154-1.775-7.154-4.7a16.18,16.18,0,0,1,.491-3.74l3.768.327A9.54,9.54,0,0,0,131.989,50.028Zm9.5-14.171v4.259a76.618,76.618,0,0,1-12.015,0l-.027-4.231A63.247,63.247,0,0,0,141.491,35.857Z"/><path class="cls-7" d="M150.046,52.9a2.786,2.786,0,0,1,5.57,0,2.785,2.785,0,0,1-5.57,0Zm.273-13.434-.164-4.532h5.352l-.164,4.532-.819,8.628h-3.386Z"/><polygon class="cls-6" points="142.116 63.587 161.373 72.862 156.334 59.501 142.116 63.587"/><path class="cls-6" d="M191.8,46.067a28.18,28.18,0,0,0,11.415,9.714,18.031,18.031,0,0,0-2.59,3.454,37.258,37.258,0,0,1-4.993-3.507v2.32H184.326V55.809a37.684,37.684,0,0,1-4.8,3.4,15.878,15.878,0,0,0-2.483-3.13,30.369,30.369,0,0,0,10.767-10.011Zm4.507,13.924,3.157.89c-1.349,3.508-3.238,7.663-4.884,11.145l-4.21-1.134c1.106-2.185,2.348-4.8,3.319-7.043h-13.2v-3.7h15.139Zm-2.186-5.559a29.743,29.743,0,0,1-4.156-4.506,28.859,28.859,0,0,1-4.048,4.506Z"/><path class="cls-6" d="M216.8,50.9c1.268-.242,2.4-.512,3.318-.782l.108,3.751a36.987,36.987,0,0,1-4.587.917,49.64,49.64,0,0,1-5.721,11.63l-3.94-2a43.428,43.428,0,0,0,5.343-9.228c-.3.027-.566.027-.864.027-1.133,0-2.239-.027-3.481-.108l-.3-3.778c1.241.135,2.86.189,3.751.189q1.052,0,2.1-.081a21.542,21.542,0,0,0,.674-4.4l4.48.432C217.5,48.307,217.175,49.548,216.8,50.9Zm7.2,8.8c.026.648.081,1.7.134,2.834a17.562,17.562,0,0,1,5.586,3.507l-2.158,3.508a28.815,28.815,0,0,0-3.266-2.752c-.081,2.59-1.484,4.533-5.478,4.533-3.562,0-6.341-1.673-6.341-4.8,0-2.7,2.132-5.019,6.287-5.019a12.33,12.33,0,0,1,1.43.081c-.107-1.916-.215-4.156-.3-5.666H224C223.922,57.077,223.975,58.372,224,59.694Zm-5.776,7.879c1.619,0,2.1-.944,2.1-2.455v-.135a10.05,10.05,0,0,0-1.835-.189c-1.322,0-2.158.54-2.158,1.322C216.339,66.98,217.094,67.573,218.227,67.573Zm3.32-13.734,2.1-3.238a54.516,54.516,0,0,1,6.881,3.7l-2.321,3.453A39.19,39.19,0,0,0,221.547,53.839Z"/><path class="cls-6" d="M239.04,58.669a13.6,13.6,0,0,1,7.475-2.186c5.074,0,7.826,3.157,7.826,6.476,0,4.992-3.7,9.067-15.57,8.041L237.5,66.71c7.88,1.16,12.225-.54,12.225-3.832,0-1.538-1.458-2.671-3.616-2.671a9.053,9.053,0,0,0-6.989,2.941,6.867,6.867,0,0,0-1.107,1.673l-3.751-.917a98.015,98.015,0,0,0,1.349-11.469l4.4.594A41.652,41.652,0,0,0,239.04,58.669ZM250.4,49.44l-.971,4.021c-2.833-.378-8.932-1.673-11.064-2.213l1.025-3.912A85.511,85.511,0,0,0,250.4,49.44Z"/><path class="cls-6" d="M272.257,47.485h19.05c.921,0,2.219,0,3.584-.034-.068,1.126-.068,2.526-.068,3.686V67.8c0,1.467.068,5.086.068,5.086h-5.735s.034-.785.068-1.809H274v1.809h-5.7s.1-3.277.1-5.155V51.137c0-1.092,0-2.662-.069-3.72C269.73,47.451,271.266,47.485,272.257,47.485Zm1.707,18.3h15.294V52.776H273.964Z"/><path class="cls-6" d="M308.652,55.951h18.129c1.536,0,3.209-.171,4.2-.239v6.52c-.888-.034-2.8-.2-4.2-.2H308.652c-1.946,0-4.506.1-5.906.2v-6.52C304.112,55.815,306.98,55.951,308.652,55.951Z"/><path class="cls-6" d="M347.676,64.11a32.989,32.989,0,0,0,13.042-13.655l3.209,5.837a36.91,36.91,0,0,1-13.28,12.938,36.434,36.434,0,0,1-12.222,4.507l-3.517-5.462A35.126,35.126,0,0,0,347.676,64.11Zm1.161-11.163L344.6,57.282a71.211,71.211,0,0,0-8.569-7.476l3.926-4.2A68.86,68.86,0,0,1,348.837,52.947Z"/><path class="cls-6" d="M398.65,65.919h-3.585v5.94h-5.052v-1.4h-4.985v.41c0,2.253-.512,3.209-1.98,3.892-1.468.614-3.346.682-6.281.682a14.458,14.458,0,0,0-1.605-3.823c1.4.068,3.414.068,3.96.068.649-.034.854-.239.854-.819v-.41h-10V66.943h10V65.919H366.661V62.2h13.315v-.921h-9.764V58h9.764V56.975h-9.013V49.738h9.013V48.714H367.514V44.856h12.462V42.91h5.052v1.946H397.8v3.858H385.028v1.024h9.423v7.237h-9.423V58h10.037v4.2h3.585ZM379.976,53.937V52.776h-4.268v1.161Zm5.052-1.161v1.161h4.336V52.776Zm0,9.422h4.985v-.921h-4.985Zm4.985,3.721h-4.985v1.024h4.985Z"/><path class="cls-6" d="M433.851,47.792v4.472H402.476V47.792H409.1a18.64,18.64,0,0,0-2.253-3.277l4.746-1.638a16.885,16.885,0,0,1,3.072,4.267l-1.877.648H421.8a28.544,28.544,0,0,0,2.561-4.949l5.428,1.57c-.751,1.194-1.536,2.355-2.287,3.379ZM418.351,70.7c0,1.979-.375,3.106-1.639,3.789-1.262.716-2.833.785-4.847.785a16.492,16.492,0,0,0-1.537-4.165,24.963,24.963,0,0,0,2.7.034c.41,0,.547-.136.547-.512V68.48h-4.711v6.656h-4.678V54.21h14.168Zm-9.49-12.358v1.434h4.711V58.341Zm4.711,6.554V63.359h-4.711V64.9Zm11.539,3.687H420.57v-14h4.541ZM427.364,53.7h4.882v16.42c0,2.287-.409,3.516-1.912,4.267-1.468.751-3.379.888-5.8.853a17.681,17.681,0,0,0-1.742-4.676c1.537.1,3.312.1,3.858.068.546,0,.717-.136.717-.58Z"/><path class="cls-6" d="M462.975,59.706a35.186,35.186,0,0,0,7.237,2.355,20.027,20.027,0,0,0-3.072,3.926q-1.024-.306-2.049-.717v9.9h-4.882v-.682H447.065v.785h-4.643V65.919c-.716.307-1.433.614-2.151.888a21.223,21.223,0,0,0-3.14-3.892,34.112,34.112,0,0,0,7.715-3.209h-6.452v-3.96h4.882a13.935,13.935,0,0,0-.82-1.912l2.151-.409a15.324,15.324,0,0,0-.887-2.834,148.746,148.746,0,0,0,17.206-1.262l2.527,3.277c-.615.1-1.264.17-1.947.273l3.892.887-1.4,1.98h4.984v3.96Zm-19.7-7.476H438.7V45.061h12.5V42.945h4.985v2.116h12.324V52.23h-4.814v-3H443.276Zm7.92,13.928h-4.131v1.058H451.2Zm-4.131,4.984H451.2V70.05h-4.131ZM451.2,53.7c-1.365.068-2.7.1-3.994.136a11.082,11.082,0,0,1,.751,1.912H451.2Zm9.082,9.183a27.452,27.452,0,0,1-4.3-3.175h-.1v2.8H451.2v-2.39a30.6,30.6,0,0,1-3.448,2.765Zm-.069,3.277h-4.37v1.058h4.37Zm0,4.984V70.05h-4.37v1.092Zm-1.092-15.4a22.855,22.855,0,0,0,1.092-2.731c-1.4.171-2.833.307-4.335.41v2.321Z"/><path class="cls-6" d="M495.921,50.694a25.573,25.573,0,0,0,9.594,5.086,19.039,19.039,0,0,0-3.175,3.995,24.386,24.386,0,0,1-3.039-1.366V70.494h5.565v4.335H473.491V70.494h5.634V58.272a30.131,30.131,0,0,1-3.38,1.57,20.448,20.448,0,0,0-3.073-3.823,24.45,24.45,0,0,0,9.286-5.325H473.8V46.427h12.768V42.91h4.917v3.517h13.075v4.267Zm1.639,6.725a26.434,26.434,0,0,1-6.076-5.257V56.6h-4.917V52.025a26.035,26.035,0,0,1-6.042,5.394Zm-3.379,3.994H483.972v.751h10.209ZM483.972,66.3h10.209v-.786H483.972Zm10.209,4.2V69.64H483.972v.854Z"/><path class="cls-6" d="M513.3,48c3.209-.273,8.364-.683,14.612-1.229,3.414-.273,7.442-.512,9.935-.614l.034,5.325a42.988,42.988,0,0,0-6.555.41,9.476,9.476,0,0,0-6.862,8.875c0,5.019,4.711,7,10.618,7.34l-1.947,5.735C525.523,73.259,519,69.128,519,61.857a13.932,13.932,0,0,1,4.336-9.968A131.016,131.016,0,0,0,510.3,53.8l-.512-5.633C511.15,48.134,512.653,48.065,513.3,48Zm22.4,10.924-3.039,1.331a27.429,27.429,0,0,0-2.594-4.677l2.97-1.229A45.168,45.168,0,0,1,535.7,58.921Zm4.028-1.775-3,1.434a28.548,28.548,0,0,0-2.765-4.541l2.936-1.331C537.78,53.937,539.042,55.917,539.725,57.146Z"/><path class="cls-6" d="M8.262,102.2a8.808,8.808,0,0,0,4.337-.751q1.192-.75,1.2-3.482V91.682a3.4,3.4,0,0,0-.922-2.458,3.3,3.3,0,0,0-2.493-.956A2.942,2.942,0,0,0,7.75,89.429a4.038,4.038,0,0,0-.785,2.253v3.96H0V91.614a10.1,10.1,0,0,1,.82-4.028,9.8,9.8,0,0,1,2.253-3.278,11.2,11.2,0,0,1,3.346-2.185,10.291,10.291,0,0,1,4.1-.819,9.107,9.107,0,0,1,4.745,1.126A10.934,10.934,0,0,1,18.1,84.718a14.8,14.8,0,0,1,1.2,1.639,8.006,8.006,0,0,1,.854,1.979,27.264,27.264,0,0,1,.615,6.692q0,2.526-.1,4.1a8.556,8.556,0,0,1-.512,2.594,5.193,5.193,0,0,1-1.332,1.844,15.816,15.816,0,0,1-2.356,1.639,13.251,13.251,0,0,1,2.493,1.911,5.623,5.623,0,0,1,1.263,2.049,10.6,10.6,0,0,1,.478,2.9q.067,1.674.069,4.268,0,2.391-.1,3.96a20.218,20.218,0,0,1-.308,2.595,8.035,8.035,0,0,1-.546,1.843,11.365,11.365,0,0,1-.887,1.571,11.034,11.034,0,0,1-3.312,3.174,9.838,9.838,0,0,1-5.292,1.264,12.249,12.249,0,0,1-3.483-.547,9.471,9.471,0,0,1-3.346-1.775A9.617,9.617,0,0,1,.99,125.207,10.762,10.762,0,0,1,0,120.359V116.4H6.965v3.619a3.953,3.953,0,0,0,.922,2.7,3.133,3.133,0,0,0,2.492,1.058,3.137,3.137,0,0,0,2.493-1.058,4.162,4.162,0,0,0,.922-2.833v-6.965q0-2.868-1.093-3.755a3.05,3.05,0,0,0-1.673-.683,22.5,22.5,0,0,0-2.766-.137Z"/><path class="cls-6" d="M25.948,135.38V123.364h6.964v6.964Z"/><path class="cls-6" d="M35.37,91.751a10.6,10.6,0,0,1,.854-4.37A10.225,10.225,0,0,1,38.512,84.1a9.833,9.833,0,0,1,3.311-2.082,11.11,11.11,0,0,1,7.853,0A9.847,9.847,0,0,1,52.988,84.1a10.254,10.254,0,0,1,2.287,3.278,10.619,10.619,0,0,1,.854,4.37v28.54a10.616,10.616,0,0,1-.854,4.37,10.227,10.227,0,0,1-2.287,3.277,9.818,9.818,0,0,1-3.312,2.083,11.11,11.11,0,0,1-7.853,0,9.8,9.8,0,0,1-3.311-2.083,10.2,10.2,0,0,1-2.288-3.277,10.6,10.6,0,0,1-.854-4.37Zm6.965,28.54a3.438,3.438,0,0,0,.956,2.492,3.548,3.548,0,0,0,4.917,0,3.442,3.442,0,0,0,.956-2.492V91.751a3.449,3.449,0,0,0-.956-2.493,3.548,3.548,0,0,0-4.917,0,3.445,3.445,0,0,0-.956,2.493Z"/><path class="cls-6" d="M62.137,91.751a10.6,10.6,0,0,1,.854-4.37A10.222,10.222,0,0,1,65.278,84.1a9.837,9.837,0,0,1,3.312-2.082,11.11,11.11,0,0,1,7.853,0A9.853,9.853,0,0,1,79.754,84.1a10.256,10.256,0,0,1,2.288,3.278,10.635,10.635,0,0,1,.853,4.37v28.54a10.632,10.632,0,0,1-.853,4.37,10.23,10.23,0,0,1-2.288,3.277,9.824,9.824,0,0,1-3.311,2.083,11.11,11.11,0,0,1-7.853,0,9.809,9.809,0,0,1-3.312-2.083,10.2,10.2,0,0,1-2.287-3.277,10.6,10.6,0,0,1-.854-4.37Zm6.965,28.54a3.438,3.438,0,0,0,.956,2.492,3.546,3.546,0,0,0,4.916,0,3.442,3.442,0,0,0,.957-2.492V91.751a3.45,3.45,0,0,0-.957-2.493,3.546,3.546,0,0,0-4.916,0,3.445,3.445,0,0,0-.956,2.493Z"/><path class="cls-6" d="M88.9,91.751a10.6,10.6,0,0,1,.854-4.37A10.238,10.238,0,0,1,92.045,84.1a9.837,9.837,0,0,1,3.312-2.082,11.11,11.11,0,0,1,7.853,0,9.843,9.843,0,0,1,3.311,2.082,10.241,10.241,0,0,1,2.288,3.278,10.635,10.635,0,0,1,.854,4.37v28.54a10.632,10.632,0,0,1-.854,4.37,10.214,10.214,0,0,1-2.288,3.277,9.814,9.814,0,0,1-3.311,2.083,11.11,11.11,0,0,1-7.853,0,9.809,9.809,0,0,1-3.312-2.083,10.212,10.212,0,0,1-2.287-3.277,10.6,10.6,0,0,1-.854-4.37Zm6.965,28.54a3.438,3.438,0,0,0,.956,2.492,3.546,3.546,0,0,0,4.916,0,3.442,3.442,0,0,0,.957-2.492V91.751a3.45,3.45,0,0,0-.957-2.493,3.546,3.546,0,0,0-4.916,0,3.445,3.445,0,0,0-.956,2.493Z"/><path class="cls-6" d="M144.246,125.635c0,2.526-.512,3.857-2.083,4.677s-3.686.921-6.725.921a17.555,17.555,0,0,0-1.775-4.949c1.775.136,4.029.1,4.677.1s.888-.2.888-.819v-7.033H119.836V131.2h-4.984V100.886h29.394Zm-24.41-12.016H126.8V105.8h-6.964Zm19.392,0V105.8h-7.477v7.818Z"/><path class="cls-6" d="M171.628,99.042a41.706,41.706,0,0,0,10.106,12.085,25.13,25.13,0,0,0-4.233,4.506c-.478-.478-.99-.99-1.5-1.537-.307,9.593-.682,13.519-1.809,14.953a4.755,4.755,0,0,1-3.414,1.912,32.041,32.041,0,0,1-5.053.17,11.744,11.744,0,0,0-1.639-5.018c1.707.136,3.312.171,4.166.171a1.683,1.683,0,0,0,1.365-.512c.615-.683.922-3.516,1.161-9.832h-5.6c-.819,6.452-3.073,12.153-12.086,15.567a16.348,16.348,0,0,0-3.243-4.609c7.477-2.458,9.252-6.452,9.9-10.958h-5.121v-2.185a27.83,27.83,0,0,1-2.39,2.151,36.964,36.964,0,0,0-4.267-4.029A28.048,28.048,0,0,0,158.006,99.11l5.4,1.571a43.282,43.282,0,0,1-6.385,10.446h16.422a63.766,63.766,0,0,1-6.726-10.139Z"/><path class="cls-6" d="M202.22,129.9l-3.14-4.916a25.845,25.845,0,0,0,3.345-.614c4.336-1.058,7.238-4.1,7.238-8.6,0-4.4-2.151-7.544-6.077-8.466a67.765,67.765,0,0,1-2.014,8.91c-2.014,6.828-5.087,11.4-9.116,11.4-4.233,0-7.442-4.574-7.442-10.412,0-8.124,7-15.02,16.114-15.02,8.706,0,14.2,6.008,14.2,13.757C215.33,123.143,211.1,128.4,202.22,129.9Zm-9.627-8.739c1.366,0,2.39-2.082,3.619-6.042a50.7,50.7,0,0,0,1.741-7.681,10.178,10.178,0,0,0-7.579,9.217C190.374,119.627,191.4,121.163,192.593,121.163Z"/><path class="cls-6" d="M234.52,102.558h7.306l7.886,25.432h-6.418l-1.468-5.837h-7.511l-1.468,5.837h-6.213Zm.956,14.884h5.189l-.546-2.151c-.683-2.526-1.332-5.564-2.015-8.158h-.136c-.615,2.662-1.3,5.632-1.946,8.158Z"/><path class="cls-6" d="M251.9,108.567h4.95l.444,2.457h.1c1.605-1.6,3.278-2.936,5.907-2.936a5.328,5.328,0,0,1,5.326,3.21c1.673-1.707,3.482-3.21,6.077-3.21,4.233,0,6.077,3.039,6.077,7.886V127.99H274.7V116.725c0-2.7-.683-3.448-2.219-3.448a4.7,4.7,0,0,0-3.107,1.741V127.99H263.3V116.725c0-2.7-.717-3.448-2.253-3.448a4.566,4.566,0,0,0-3.073,1.741V127.99H251.9Z"/><path class="cls-6" d="M284.674,122.563c0-4.1,3.209-6.316,10.788-7.135-.136-1.57-.956-2.492-2.936-2.492a10.657,10.657,0,0,0-5.087,1.707l-2.116-3.994a16.157,16.157,0,0,1,8.364-2.561c5.018,0,7.852,2.8,7.852,8.876V127.99h-4.95l-.41-1.945h-.171a8.3,8.3,0,0,1-5.565,2.423A5.608,5.608,0,0,1,284.674,122.563Zm10.788-.341v-3.107c-3.789.478-5.019,1.6-5.019,2.97,0,1.126.82,1.673,2.083,1.673A3.828,3.828,0,0,0,295.462,122.222Z"/><path class="cls-6" d="M305.261,124.747l7.887-11.435h-7v-4.745h14.578v3.243l-7.887,11.436H321v4.744H305.261Z"/><path class="cls-6" d="M322.879,118.261c0-6.417,4.574-10.173,9.525-10.173,4.916,0,9.491,3.756,9.491,10.173,0,6.452-4.575,10.207-9.491,10.207C327.453,128.468,322.879,124.713,322.879,118.261Zm12.8,0c0-3.208-1.024-5.257-3.277-5.257-2.288,0-3.312,2.049-3.312,5.257,0,3.243,1.024,5.292,3.312,5.292C334.657,123.553,335.681,121.5,335.681,118.261Z"/><path class="cls-6" d="M345.719,108.567h4.951l.444,2.423h.1a8.79,8.79,0,0,1,6.214-2.9c4.233,0,6.042,3.039,6.042,7.886V127.99H357.4V116.725c0-2.7-.718-3.448-2.254-3.448-1.365,0-2.185.615-3.346,1.741V127.99h-6.077Z"/><path class="cls-6" d="M396.862,104.333l-1.6.683.854,4.643c-.888.068-2.459.307-3.551.444-1.3.2-3.619.58-6.18.99.274,1.5.581,3.072.888,4.676,2.834-.478,5.394-.921,6.828-1.194,1.332-.274,2.765-.615,3.755-.888l1.093,5.428c-1.024.068-2.595.341-3.892.546-1.5.239-4.028.649-6.828,1.092.478,2.493.887,4.609,1.127,5.77.238,1.024.58,2.287.887,3.481l-5.94,1.024c-.171-1.331-.239-2.56-.444-3.584-.171-1.058-.58-3.209-1.058-5.8-3.243.546-6.18,1.058-7.579,1.331-1.536.274-2.834.512-3.619.717l-1.161-5.462c.956-.034,2.663-.239,3.824-.409,1.5-.239,4.4-.683,7.613-1.195-.307-1.57-.614-3.175-.888-4.677-2.833.444-5.291.854-6.213,1.024-1.161.239-2.083.444-3.346.785l-1.092-5.633c1.195-.067,2.287-.136,3.346-.272,1.092-.137,3.55-.478,6.349-.922-.239-1.263-.443-2.253-.546-2.833-.239-1.025-.478-1.878-.751-2.731l5.838-.922c.1.682.2,1.946.376,2.8.068.512.272,1.536.512,2.867,2.628-.409,4.95-.819,6.042-1.024.478-.1,1.059-.2,1.639-.341a39.47,39.47,0,0,0-2.151-3.789l3.209-1.3C395.053,100.92,396.248,103.138,396.862,104.333Zm4.234-1.673-3.21,1.366a37.78,37.78,0,0,0-2.7-4.711l3.21-1.3A49.043,49.043,0,0,1,401.1,102.66Z"/><path class="cls-6" d="M427.9,107.986c-.819,3.209-2.219,8.4-5.155,12.358a28,28,0,0,1-13.9,9.592l-4.506-4.95c6.862-1.536,10.72-4.54,13.417-7.885a19.169,19.169,0,0,0,3.755-8.808H406.492c-1.673,0-3.551.1-4.439.171v-5.838c1.059.137,3.312.308,4.439.308h15.056a13.636,13.636,0,0,0,3.14-.308l4.1,2.629A16.932,16.932,0,0,0,427.9,107.986Z"/><path class="cls-6" d="M436.571,105.084a23.849,23.849,0,0,0-.409-4.437h6.452a40.471,40.471,0,0,0-.341,4.437v4.677a113.15,113.15,0,0,1,14.1,5.155l-2.356,5.769a106.713,106.713,0,0,0-11.744-4.882v8.774c0,.922.2,3.618.375,5.155h-6.486a38.328,38.328,0,0,0,.409-5.155Z"/><path class="cls-6" d="M475.7,103.514c-.034.956-.068,1.912-.136,2.8h5.462a16.856,16.856,0,0,0,2.834-.273l3.516,1.707a15.737,15.737,0,0,0-.239,1.878c-.136,3.925-.58,13.245-2.014,16.829-.751,1.878-2.185,2.936-4.779,2.936-2.117,0-4.166-.17-5.77-.307l-.649-5.53a26.771,26.771,0,0,0,4.643.512,1.679,1.679,0,0,0,1.878-1.264c.819-1.877,1.3-7.817,1.3-11.538h-6.657c-1.229,8.637-4.336,14.065-10.652,18.6l-4.813-3.891a21.492,21.492,0,0,0,5.053-3.79,18.657,18.657,0,0,0,5.018-10.924h-3.858c-1.058,0-3.243.035-4.814.171V106.04c1.571.171,3.517.273,4.814.273H470.1c.034-.853.034-1.775.034-2.7a28.325,28.325,0,0,0-.273-3.312h6.077C475.835,101.124,475.732,102.7,475.7,103.514Z"/><path class="cls-6" d="M498.438,111.844h18.129c1.536,0,3.209-.171,4.2-.239v6.52c-.888-.034-2.8-.2-4.2-.2H498.438c-1.946,0-4.506.1-5.906.2v-6.52C493.9,111.707,496.765,111.844,498.438,111.844Z"/><path class="cls-6" d="M529.747,105.6a23.85,23.85,0,0,0-.41-4.437h6.452a40.72,40.72,0,0,0-.341,4.437v4.677a113.091,113.091,0,0,1,14.1,5.155l-2.356,5.769a106.632,106.632,0,0,0-11.744-4.882v8.774c0,.922.205,3.619.376,5.155h-6.487a38.319,38.319,0,0,0,.41-5.155Zm17.616,1.707-3.517,1.536a27.879,27.879,0,0,0-3-5.291l3.414-1.434A52.2,52.2,0,0,1,547.363,107.3Zm4.779-2.116-3.414,1.673a29.848,29.848,0,0,0-3.175-5.121l3.38-1.57A42.528,42.528,0,0,1,552.142,105.187Z"/><path class="cls-6" d="M581.471,98.428a4.234,4.234,0,0,1,.1,8.466c-.171.512-.307,1.024-.41,1.433-.819,3.209-2.219,8.4-5.155,12.358a27.991,27.991,0,0,1-13.895,9.593l-4.506-4.95c6.862-1.536,10.72-4.541,13.417-7.886a19.169,19.169,0,0,0,3.755-8.808H559.757c-1.672,0-3.55.1-4.438.171v-5.837c1.059.137,3.312.307,4.438.307h15.056a17.894,17.894,0,0,0,2.459-.17,1.821,1.821,0,0,1-.034-.445A4.254,4.254,0,0,1,581.471,98.428Zm0,6.042a1.809,1.809,0,1,0-1.81-1.81A1.821,1.821,0,0,0,581.471,104.47Z"/><path class="cls-6" d="M590.213,123.962V106.006a22.435,22.435,0,0,0-.445-4.3h6.487a26.911,26.911,0,0,0-.375,4.3v16.83a40.26,40.26,0,0,0,16.9-11.095l2.936,4.711c-4.814,5.633-11.948,9.627-19.732,12.358a8.846,8.846,0,0,0-2.356,1.092l-3.927-3.413A5.152,5.152,0,0,0,590.213,123.962Z"/><path class="cls-6" d="M625.822,115.291c-2.833.581-5.326,1.093-6.794,1.434l-.99-5.393c1.639-.2,4.541-.683,7.784-1.263v-4.3a35.224,35.224,0,0,0-.307-4.369h6.145a34.335,34.335,0,0,0-.341,4.369v3.277c4.438-.819,8.6-1.672,10.174-2.048a11.864,11.864,0,0,0,2.764-.922l4,3.107c-.341.546-.922,1.434-1.263,2.117a47.146,47.146,0,0,1-7.1,9.967l-4.541-2.662a28.019,28.019,0,0,0,5.087-6.247c-1.229.239-4.985.99-9.115,1.809v8.4c0,2.014.444,2.731,3.994,2.731a58.682,58.682,0,0,0,10.856-1.195l-.17,5.6a87.855,87.855,0,0,1-10.516.751c-8.568,0-9.661-1.98-9.661-6.418Zm20.62-10.958L643.2,105.7a45.944,45.944,0,0,0-2.628-4.745l3.209-1.3C644.633,100.92,645.828,103.138,646.442,104.333Zm4.234-1.673-3.209,1.366a38.033,38.033,0,0,0-2.7-4.711l3.209-1.3A48.613,48.613,0,0,1,650.676,102.66Z"/><path class="cls-6" d="M664.847,120a32.992,32.992,0,0,0,13.041-13.655l3.209,5.837a36.921,36.921,0,0,1-13.281,12.938,36.425,36.425,0,0,1-12.221,4.506l-3.516-5.462A35.158,35.158,0,0,0,664.847,120Zm1.16-11.164-4.233,4.336a71.047,71.047,0,0,0-8.569-7.476l3.926-4.2A68.933,68.933,0,0,1,666.007,108.839Z"/><path class="cls-6" d="M687.962,105.084a23.765,23.765,0,0,0-.41-4.437h6.453a40.454,40.454,0,0,0-.342,4.437v4.677a113.091,113.091,0,0,1,14.1,5.155l-2.355,5.769a106.648,106.648,0,0,0-11.745-4.882v8.774c0,.922.205,3.618.376,5.155h-6.487a38.169,38.169,0,0,0,.41-5.155Z"/><path class="cls-6" d="M715.036,124.918a3.483,3.483,0,0,1,6.964,0,3.482,3.482,0,1,1-6.964,0Zm.341-16.8-.2-5.666h6.691l-.205,5.666-1.024,10.788H716.4Z"/><rect class="cls-7" x="552.777" y="19.938" width="93.123" height="62.835" rx="3.927" transform="translate(18.021 -103.286) rotate(9.999)"/><path class="cls-8" d="M589.37,46.267l-2.426-.428.35-1.983,4.745.836-.865,4.906a6.1,6.1,0,0,1-5,.971,5.954,5.954,0,0,1-5.129-7.123,6.03,6.03,0,0,1,7.364-4.921,8.638,8.638,0,0,1,3.6,1.45l-.454,2.574a6.157,6.157,0,0,0-3.515-1.933,3.836,3.836,0,0,0-4.569,3.257,3.741,3.741,0,0,0,3.063,4.576,3.637,3.637,0,0,0,2.51-.359Z"/><path class="cls-8" d="M594.13,51.708l2.038-11.553,2.413.425-2.038,11.554Z"/><path class="cls-8" d="M599.839,52.715l2.038-11.554,7.158,1.262-.355,2.011-4.866-.858-.415,2.359,4.208.742-.356,2.024-4.209-.742-.91,5.16Z"/><path class="cls-8" d="M612.4,54.929l1.673-9.489-3.163-.558.364-2.064,8.713,1.536-.364,2.064-3.177-.56-1.674,9.489Z"/><path class="cls-8" d="M586.218,63.747a6.525,6.525,0,0,1-2.784.022c-3.227-.569-5-3.069-4.492-5.931s3.041-4.58,6.279-4.009a6.437,6.437,0,0,1,2.357.849l-.36,2.044a4.336,4.336,0,0,0-2.261-1.139A3.263,3.263,0,1,0,583.814,62a4.276,4.276,0,0,0,2.78-.387Z"/><path class="cls-8" d="M594.535,65.5l-.387-2.2-3.227-.569-1.115,1.934-2.078-.366,5.227-8.9,1.8.317,1.857,10.149Zm-.561-3.859c-.015-.174-.468-3.808-.523-3.818-.022,0-1.317,2.491-1.368,2.585,0,0-.385.763-.419.826Z"/><path class="cls-8" d="M603.553,67.088l-1.519-4.37-.94-.165-.7,3.978-1.868-.329,1.68-9.526,3.216.567a2.793,2.793,0,0,1,.572,5.479l1.793,4.76Zm-.957-5.877a1.263,1.263,0,0,0,1.513-1.021,1.155,1.155,0,0,0-1.018-1.4l-1.3-.229-.429,2.43Z"/><path class="cls-8" d="M607.554,67.793l1.68-9.525,3.138.553c3.084.544,4.9,2.448,4.34,5.631-.538,3.05-2.748,4.472-6.064,3.887Zm3.459-1.133a2.824,2.824,0,0,0,3.658-2.523c.39-2.21-.738-3.309-2.573-3.632l-1.238-.218-1.085,6.155Z"/><g class="cls-9"><rect class="cls-6" x="542.751" y="25.202" width="61.703" height="5.576" transform="translate(41.906 245.022) rotate(-24.998)"/><rect class="cls-6" x="600.095" y="77.158" width="61.703" height="5.576" transform="translate(25.322 274.122) rotate(-24.998)"/><path class="cls-6" d="M571.819,31.618s-5.106,7.312-5.908,13.664c0,0-.261.77-.82.124a11.532,11.532,0,0,1-1.214-2.47s-.15-.439-.715-.007a18.725,18.725,0,0,0-2.311,1.924s-.771.735-.889-.324a16.386,16.386,0,0,1,10.307-13.791Z"/><path class="cls-6" d="M569.686,27.044a12.541,12.541,0,0,0-10.884.417s-2.107,1.15,1.35,5.622c0,0,1.078,5.163,3.6,4.994,0,0,2.7.124,8.006-6.591Z"/><path class="cls-6" d="M573.685,30.749s8.883.788,14.265,4.257c0,0,.758.3.623-.549a11.552,11.552,0,0,0-1.112-2.517s-.24-.4.453-.552a18.687,18.687,0,0,1,2.96-.535s1.058-.117.323-.888a16.388,16.388,0,0,0-17.19-.97Z"/><path class="cls-6" d="M571.551,26.174a12.544,12.544,0,0,1,7.316-8.069s2.236-.875,3.439,4.649c0,0,3.263,4.143,1.512,5.967,0,0-1.641,2.15-10.195,1.895Z"/><path class="cls-6" d="M573.684,31.019a7.349,7.349,0,0,1-1.728.805,1.566,1.566,0,0,1-1.614-.646,16.43,16.43,0,0,1-1.331-2.855,1.566,1.566,0,0,1,.542-1.652,7.313,7.313,0,0,1,1.728-.806,1.566,1.566,0,0,1,1.614.647,16.474,16.474,0,0,1,1.332,2.855A1.565,1.565,0,0,1,573.684,31.019Z"/></g><rect class="cls-10" x="552.777" y="19.938" width="93.123" height="62.835" rx="3.927" transform="translate(18.021 -103.286) rotate(9.999)"/><path class="cls-6" d="M632.5,34.411q.614.109.714-.462l.061-.348a.836.836,0,0,0-.793-1.078l.135-.764a.959.959,0,0,0,.811-.153,1.086,1.086,0,0,0,.354-.686l.024-.137q.1-.579-.407-.669a.456.456,0,0,0-.453.142.829.829,0,0,0-.175.41l-.027.154-.873-.154.024-.136a1.606,1.606,0,0,1,.5-.972,1.258,1.258,0,0,1,1.1-.273,1.3,1.3,0,0,1,.93.6,1.4,1.4,0,0,1,.172,1.013l-.044.25a1.475,1.475,0,0,1-.5.9,1.414,1.414,0,0,1-.382.23,1.49,1.49,0,0,1,.5.783,1.287,1.287,0,0,1,.014.581l-.082.467a1.433,1.433,0,0,1-.638,1,1.474,1.474,0,0,1-1.105.223,1.43,1.43,0,0,1-1.162-1.659l.025-.146.862.083-.018.211a.574.574,0,0,0,.094.391A.489.489,0,0,0,632.5,34.411Z"/><path class="cls-6" d="M637.536,34.783a1.371,1.371,0,0,1-.591.927,1.435,1.435,0,0,1-2.235-1.425l.569-3.227a1.435,1.435,0,1,1,2.826.5Zm-.352-3.409a.523.523,0,0,0-.424-.605.5.5,0,0,0-.388.087.512.512,0,0,0-.212.338l-.57,3.232a.507.507,0,0,0,.084.389.5.5,0,0,0,.335.215.523.523,0,0,0,.605-.424Z"/><path class="cls-6" d="M640.976,35.39a1.432,1.432,0,0,1-1.66,1.162,1.43,1.43,0,0,1-1.166-1.661l.569-3.227a1.435,1.435,0,1,1,2.826.5Zm-.353-3.409a.5.5,0,0,0-.087-.39.518.518,0,0,0-.724-.128.508.508,0,0,0-.212.337l-.57,3.232a.505.505,0,0,0,.084.389.493.493,0,0,0,.334.215.524.524,0,0,0,.605-.423Z"/><path class="cls-6" d="M644.416,36a1.435,1.435,0,0,1-2.827-.5l.569-3.227a1.435,1.435,0,1,1,2.827.5Zm-.353-3.409a.523.523,0,0,0-.424-.605.5.5,0,0,0-.387.087.51.51,0,0,0-.213.337l-.57,3.232a.509.509,0,0,0,.085.39.5.5,0,0,0,.334.215.523.523,0,0,0,.605-.424Z"/></svg>