<svg id="レイヤー_1" data-name="レイヤー 1" xmlns="http://www.w3.org/2000/svg" viewBox="0 0 366 104"><defs><style>.cls-1{fill:#505050;}.cls-2{fill:#df1614;}</style></defs><path class="cls-1" d="M124.927,20.959a16.178,16.178,0,0,1-4.541,4.744,63.621,63.621,0,0,0,9.959,1.073,18.414,18.414,0,0,0-2.692,4.192A42.887,42.887,0,0,1,115.2,28.4a49.712,49.712,0,0,1-12.23,2.632,15.751,15.751,0,0,0-2.433-3.867,55.3,55.3,0,0,0,9.861-1.332q-1.119-.829-2.14-1.755a36.952,36.952,0,0,1-3.731,1.624,31.393,31.393,0,0,0-3.147-3.086,23.82,23.82,0,0,0,9.668-4.875c-1.233-.422-1.687-1.267-1.817-2.762a12.77,12.77,0,0,1-3.86,4.289l-3.212-2.6a10.385,10.385,0,0,0,3.244-2.924h-4.184V7.6h5.32a16.564,16.564,0,0,0-1.428-2.437L102.9,5.2a12.982,12.982,0,0,0-.908-3.379c8.077-.13,17.322-.715,22.772-1.82l3.115,3.087c-1.2.26-2.5.488-3.861.682l2.66.813c-.746,1.072-1.492,2.112-2.173,3.022h4.866V14.33h-3.017a13.254,13.254,0,0,1,1.849,2.178l-3.341,2.5a18.019,18.019,0,0,0-3.083-3.575c-.453,2.08-1.524,2.665-3.956,2.665h-1.753a10.777,10.777,0,0,1-1,1.137h6.164l.746-.13Zm-11.775-8.643c-.357-.2-.746-.358-1.1-.52l.616-.65h-7.007v2.242a10.893,10.893,0,0,0,.682-1.17l2.855,1.268v-1.17Zm.486-4.712a18.515,18.515,0,0,0-1.264-2.73c-.876.066-1.719.1-2.563.13a8.978,8.978,0,0,1,1.135,2.21l-.908.39Zm-1.751,14.785a15.882,15.882,0,0,0,3.309,1.787,14.277,14.277,0,0,0,2.919-1.787ZM124.7,11.146h-6.974c.454.292.876.585,1.2.845l-2.335,2.567a16.383,16.383,0,0,0-3.082-2.047V14.07c0,.781.195.845,1.168.845H117.3c.714,0,.909-.195,1.038-1.169a11.446,11.446,0,0,0,2.725,1.039c-.389-.357-.778-.715-1.167-1.007l3.113-2.242c.552.39,1.136.845,1.687,1.3ZM119.9,7.6A27.439,27.439,0,0,0,121.683,4.1c-1.589.2-3.243.357-4.9.487a10.977,10.977,0,0,1,1.071,2.437l-1.59.585Z"/><path class="cls-1" d="M142.613,17.255a6.679,6.679,0,0,1-.13.845c1.719,1.754,5.093,5.621,5.937,6.661l-3.18,4c-1.038-1.69-2.595-3.9-4.055-5.817a17.156,17.156,0,0,1-5.806,7.9,18.554,18.554,0,0,0-3.374-3.575,14.552,14.552,0,0,0,5.839-10.008h-5.287V12.8H138.2V8.416h-.617a22.933,22.933,0,0,1-2.01,3.9,29.416,29.416,0,0,0-3.763-2.73c1.653-2.242,2.822-5.914,3.406-9.489l4.509.911c-.195,1.007-.423,2.047-.714,3.054h8.174V8.416H142.97V12.8h4.93v4.452ZM161.525,2.86V29.473h-4.8V27.751h-3.5v2.242h-4.574V2.86Zm-4.8,20.471V7.279h-3.5V23.331Z"/><path class="cls-1" d="M176.614,24.534a33.515,33.515,0,0,1-7.85,6.3,31.88,31.88,0,0,0-3.861-3.185,21.319,21.319,0,0,0,6.748-4.972ZM182.745,22v8.936h-5.028V22h-6.261v.553H166.72V3.25h4.736V17.872h23.518V22Zm8.856-5.394H173.143V1.17H191.6ZM186.994,4.29h-9.44v1.1h9.44Zm0,4.029h-9.44V9.456h9.44Zm0,4.029h-9.44v1.138h9.44ZM188,22.324a81.751,81.751,0,0,1,7.558,5.589l-4.445,2.925a64.748,64.748,0,0,0-7.233-5.947Z"/><path class="cls-1" d="M214.444,7.214v4.777l.811-.943c3.341,1.69,8.4,4.452,10.834,6.5L222.554,21.9a52.363,52.363,0,0,0-8.11-5.655V30.838h-5.093V7.214H198V2.437h29.227V7.214Z"/><path class="cls-1" d="M237.967,6.012a85.67,85.67,0,0,0-1.557,11.6,6.1,6.1,0,0,0,.032.747c.455-.91.844-1.56,1.266-2.5l2.368,1.884a86.161,86.161,0,0,0-2.336,8.351,11.355,11.355,0,0,0-.2,1.56c0,.358,0,.943.033,1.462l-4.542.293a41.562,41.562,0,0,1-1.3-10.691A93.872,93.872,0,0,1,233,5.914a36.3,36.3,0,0,0,.389-3.672l5.482.455C238.584,3.445,238.1,5.427,237.967,6.012Zm8.24,15.5c0,1.429,1.362,1.982,4.022,1.982a37.252,37.252,0,0,0,8.175-.877l.1,5.329a46.855,46.855,0,0,1-8.531.617c-5.677,0-8.5-2.112-8.5-5.589a19.283,19.283,0,0,1,.584-4.452l4.476.39A11.425,11.425,0,0,0,246.207,21.512ZM257.5,4.647V9.716a90.934,90.934,0,0,1-14.274,0l-.032-5.037A74.948,74.948,0,0,0,257.5,4.647Z"/><path class="cls-2" d="M13.952,57.037c2.272,0,11.789-.488,15.249-.867a22.312,22.312,0,0,0,4.218-.759l5.137,6.067A52.633,52.633,0,0,0,33.527,65c-3.785,2.925-7.733,6.229-11.031,8.83,6.705-.65,15.2-1.138,21.143-1.138l.054,7.746a85.511,85.511,0,0,0-14.059.054c-4.759.65-8.382,3.629-8.382,7.692,0,3.629,2.812,5.2,7.625,5.688a56.1,56.1,0,0,0,8.435.108l-1.676,8.667c-14.275.6-22.766-3.629-22.766-13.055a13.29,13.29,0,0,1,2.542-7.583c-4.434.325-9.788,1.138-14.654,2L0,76.049c2.866-.27,6.706-.758,9.518-1.083,4.272-2.654,10.436-8.017,13.789-11-2.163.162-7.192.433-9.355.65-1.3.108-3.245.325-5.246.542L8.328,56.82C10.221,56.982,12.005,57.037,13.952,57.037ZM41.26,70.362l-4.812,2.112a37.052,37.052,0,0,0-3.354-6.283l4.7-1.95A50,50,0,0,1,41.26,70.362Zm6.381-2.709L42.882,69.82a34.568,34.568,0,0,0-3.623-6.067l4.651-2.112A45.4,45.4,0,0,1,47.641,67.653Z"/><path class="cls-2" d="M80.016,64.4c-3.407,2.546-10.167,7.746-13.574,10.726C63.793,77.4,63.9,77.891,66.5,80.22,70.065,83.308,80.719,91.6,86.126,96.742l-7.679,7.1c-1.73-1.95-3.515-3.846-5.3-5.634-2.974-3.142-10.761-9.8-15.682-14.029-5.515-4.767-5.191-8.017.541-12.73,4.326-3.521,11.3-9.263,14.925-12.729A39.337,39.337,0,0,0,77.69,53.57l7.625,6.771C83.314,61.8,81.476,63.211,80.016,64.4Z"/><path class="cls-2" d="M104.527,57.037c2.271,0,11.789-.488,15.25-.867a22.3,22.3,0,0,0,4.217-.759l5.137,6.067A52.62,52.62,0,0,0,124.1,65c-3.786,2.925-7.733,6.229-11.032,8.83,6.706-.65,15.195-1.138,21.143-1.138l.054,7.746a85.511,85.511,0,0,0-14.059.054c-4.759.65-8.382,3.629-8.382,7.692,0,3.629,2.813,5.2,7.625,5.688a56.1,56.1,0,0,0,8.435.108l-1.676,8.667c-14.275.6-22.766-3.629-22.766-13.055a13.29,13.29,0,0,1,2.542-7.583c-4.434.325-9.788,1.138-14.654,2l-.758-7.963c2.866-.27,6.706-.758,9.518-1.083,4.272-2.654,10.436-8.017,13.789-11-2.162.162-7.192.433-9.355.65-1.3.108-3.245.325-5.246.542L98.9,56.82C100.8,56.982,102.58,57.037,104.527,57.037Zm27.308,13.325-4.812,2.112a37.117,37.117,0,0,0-3.353-6.283l4.7-1.95A50,50,0,0,1,131.835,70.362Zm6.381-2.709-4.758,2.167a34.57,34.57,0,0,0-3.624-6.067l4.65-2.112A45.308,45.308,0,0,1,138.216,67.653Z"/><path class="cls-2" d="M170.59,64.4c-3.407,2.546-10.167,7.746-13.574,10.726-2.649,2.275-2.541,2.762.055,5.091C160.64,83.308,171.293,91.6,176.7,96.742l-7.679,7.1c-1.73-1.95-3.514-3.846-5.3-5.634-2.974-3.142-10.761-9.8-15.682-14.029-5.515-4.767-5.191-8.017.541-12.73,4.326-3.521,11.3-9.263,14.925-12.729a39.337,39.337,0,0,0,4.758-5.146l7.625,6.771C173.888,61.8,172.05,63.211,170.59,64.4Z"/><path class="cls-2" d="M200.8,54.924a98.763,98.763,0,0,1-4.975,11v38.026h-7.732V77.837c-.758.975-1.569,1.9-2.326,2.708a53.637,53.637,0,0,0-4.11-8.288c4.651-4.712,9.139-12.187,11.735-19.662Zm13.248,36.238a46.518,46.518,0,0,1-11.139,12.567,45.043,45.043,0,0,0-6.111-4.929,30.525,30.525,0,0,0,9.9-9.967Zm19.63-11.7v7.692H198.363V79.462h6.705V70.091H199.66v-7.53h5.408v-9.7h7.679v9.7h6.272v-9.8H226.7v9.8h6.6v7.53h-6.6v9.371Zm-20.927,0h6.272V70.091h-6.272Zm11.842,9.263a66.206,66.206,0,0,1,8.923,10.942l-6.6,4.171a62.826,62.826,0,0,0-8.6-11.646Z"/><path class="cls-2" d="M257.125,84.391a84.593,84.593,0,0,1,3.3,9.859l-5.733,2.058c-.432-2.058-1.3-4.929-2.163-7.638V104h-6.813V88.183a49.254,49.254,0,0,1-2.813,12.026,39.314,39.314,0,0,0-5.893-2.817c1.406-3.142,2.163-8.017,2.487-12.513l6.219,1.083V82.5l-7.516.487-.65-6.771,4.11-.163q.974-1.218,1.947-2.6a47.393,47.393,0,0,0-6.057-7.2l3.677-5.417.973.921a67.566,67.566,0,0,0,3.57-9.154l6.759,2.491c-2,3.792-4.164,7.963-6.056,11,.378.433.757.92,1.081,1.354a92.419,92.419,0,0,0,4.489-8.288l6.326,2.871c-2.054,3.142-4.434,6.609-6.813,9.858l4.164-1.733a43.852,43.852,0,0,1,4.6,11.754l-5.462,2.438a15.44,15.44,0,0,0-.54-2.438l-1.785.109v3.9ZM252.2,75.67c-.432-.975-.864-2-1.3-2.925-.811,1.084-1.623,2.113-2.38,3.088Zm12-3.521a37.014,37.014,0,0,1-4.164,3.63,33.681,33.681,0,0,0-4.38-6.88c5.3-3.683,10.6-10.617,13.141-15.384h7.408c3.623,5.471,8.76,11.647,13.9,14.572a47.9,47.9,0,0,0-4.758,7.367A39.114,39.114,0,0,1,282,72.528v4.226H264.209ZM261.127,80.6h24.6v23.129h-7.516v-2.545h-9.9v2.762h-7.192Zm18.062-10.942a74.293,74.293,0,0,1-6.436-8.288,66.526,66.526,0,0,1-6.165,8.288Zm-10.87,17.821V94.3h9.9V87.479Z"/><path class="cls-2" d="M340.005,61.8V89.971h-8.273V87.425H321.3V104h-8.328V87.425H302.585v2.817h-7.894V61.8h18.277V52.54H321.3V61.8ZM312.968,79.679V69.549H302.585v10.13Zm18.764,0V69.549H321.3v10.13Z"/><path class="cls-2" d="M354.968,93.979a5.517,5.517,0,0,1,11.032,0,5.516,5.516,0,1,1-11.032,0Zm.541-26.651-.325-8.992h10.6l-.325,8.992-1.622,17.117h-6.706Z"/></svg>