<svg id="レイヤー_1" data-name="レイヤー 1" xmlns="http://www.w3.org/2000/svg" viewBox="0 0 116 24"><defs><style>.cls-1{fill:#df1614;}</style></defs><path class="cls-1" d="M16,10l-4.16,4H4V24H0V0H12l4,4ZM12,8.36V5.64L10.359,4H4v6h6.359Z"/><path class="cls-1" d="M24,24H20V0h4Z"/><path class="cls-1" d="M44,20l-4.16,4H32l-4-4V4l4-4h8l4,4V6H40V5.64L38.36,4H33.641L32,5.64V18.36L33.641,20H38.36L40,18.36V18h4Z"/><path class="cls-1" d="M64,24H59.44L53.681,13.68,52,15.92V24H48V0h4V9.28L59,0h5L56.32,10.16Z"/><path class="cls-1" d="M96,20l-4,4H84l-4-4V0h4V18.36L85.64,20h4.719L92,18.36V0h4Z"/><path class="cls-1" d="M116,10l-4.16,4H104V24h-4V0h12l4,4Zm-4-1.64V5.64L110.359,4H104v6h6.359Z"/></svg>