<svg id="レイヤー_1" data-name="レイヤー 1" xmlns="http://www.w3.org/2000/svg" viewBox="0 0 500 225"><defs><style>.cls-1{fill:none;}.cls-2{fill:#4c4345;}.cls-3{fill:#ff64a5;}.cls-4{fill:#fff;}</style></defs><rect class="cls-1" width="500" height="225"/><path class="cls-2" d="M306.29,109.83c-1.25.1-2.52.2-4.2.2-.42,0-.55-.15-.6-.53s-.17-1.3-.27-2.17a12.77,12.77,0,0,0,1.95.12c1.05,0,2.12-.1,3.17-.2,0-.82,0-1.77,0-2.85a9.2,9.2,0,0,0-.18-2,13.74,13.74,0,0,1,3,.45c.3.07.5.25.5.47a.87.87,0,0,1-.15.4,3.21,3.21,0,0,0-.35,1c-.07.65-.1,1.27-.12,2.07a24.72,24.72,0,0,0,3.2-.92c.22-.08.4,0,.42.22a12.61,12.61,0,0,1,.15,2c0,.25-.07.33-.32.4a24.87,24.87,0,0,1-3.58.95c0,1.2,0,2.43-.05,3.63A15.89,15.89,0,0,1,315,111.6c3.1,0,5.33,2,5.33,5,0,3.2-2,5.07-5.43,5.07a10.14,10.14,0,0,1-2.05-.22.67.67,0,0,1-.55-.75,4.35,4.35,0,0,0-.75-2.13,9.34,9.34,0,0,0,3.13.45,2.48,2.48,0,0,0,2.7-2.57c0-1.62-1-2.52-2.75-2.52a12.32,12.32,0,0,0-5.73,1.7c0,1.05,0,1.89.1,3s.2,2.68.2,3.25c0,.35.05.73-.37.83a10.61,10.61,0,0,1-1.85.3c-.27,0-.37-.18-.6-.5a15,15,0,0,0-3.55-3.2,4.93,4.93,0,0,0-.8.55.63.63,0,0,1-.42.17.7.7,0,0,1-.55-.4c-.28-.45-.78-1.5-1.15-2.32a9.68,9.68,0,0,0,2.3-.87c1.07-.6,2.25-1.28,4.07-2.33ZM304,118.42a25.44,25.44,0,0,0,2.34,1.13c.2,0,.28,0,.25-.2-.05-.65-.09-1.8-.14-2.62C305.72,117.2,304.87,117.77,304,118.42Zm11.94-13.12c.18-.27.25-.35.43-.3a12,12,0,0,1,5.3,3,.4.4,0,0,1,.15.25.62.62,0,0,1-.1.25c-.33.5-1,1.28-1.35,1.78-.08.1-.43.12-.5,0a11.59,11.59,0,0,0-5.08-3.08A17.48,17.48,0,0,1,315.91,105.3Z"/><path class="cls-2" d="M345.24,103.25c2.32,0,3.15,0,3.3,0s.27,0,.27.28-.05.57-.05,1.2v1c0,2.13.05,2.53.05,2.68s0,.27-.27.27h-2.05c-.25,0-.28,0-.28-.27v-2.93H335.59c.7.13,1.4.33,2,.5.23.08.35.15.35.3s-.12.25-.3.35a1.92,1.92,0,0,0-.47.5l-.2.25h5.3a1.55,1.55,0,0,0,.62-.1,1.11,1.11,0,0,1,.35-.1c.15,0,.38.1,1,.78s.7.85.7,1.1-.07.32-.32.42a4.32,4.32,0,0,0-.88.73,26.46,26.46,0,0,1-3.07,2.52,38,38,0,0,0,9.3,2.1,5.94,5.94,0,0,0-.95,1.88c-.2.62-.2.62-1,.47-.95-.17-1.85-.38-2.7-.6,0,.3-.05.85-.05,1.77v2c0,2.6.05,3.25.05,3.37s0,.28-.27.28h-2c-.25,0-.27,0-.27-.28v-.77h-8.9v.72c0,.28,0,.3-.27.3h-2c-.28,0-.3,0-.3-.3,0-.12.05-.77.05-3.32v-1.7c0-.85,0-1.42,0-1.78-.8.23-1.6.43-2.47.63s-.78.17-1.05-.47a5.57,5.57,0,0,0-.95-1.58,35,35,0,0,0,9.24-2.6,24.13,24.13,0,0,1-2.67-2.07,23.69,23.69,0,0,1-3.05,1.85,2,2,0,0,1-.6.25c-.15,0-.22-.13-.4-.4a4.53,4.53,0,0,0-1.2-1.33,16.6,16.6,0,0,0,6.45-4.47,7.12,7.12,0,0,0,.75-1.18h-5.1v2.93c0,.25,0,.27-.27.27h-2c-.25,0-.28,0-.28-.27s.05-.55.05-2.68v-.82c0-.83-.05-1.23-.05-1.4s0-.28.28-.28,1,0,3.3,0h5.49v-.4a7.8,7.8,0,0,0-.17-1.87c.87,0,1.82.07,2.67.15.28,0,.4.12.4.25a1.08,1.08,0,0,1-.15.47,3.22,3.22,0,0,0-.12,1v.37Zm-1.45,12.9a29.46,29.46,0,0,1-5.38-2.05,29.1,29.1,0,0,1-4.82,2.05Zm-9.9,4.7h8.9v-2.68h-8.9Zm1.17-11.47a18.88,18.88,0,0,0,3.28,2.22,21.44,21.44,0,0,0,3-2.27h-6.18Z"/><path class="cls-2" d="M366,113.43c-2.4,0-3.24,0-3.4,0s-.27,0-.27-.28v-.07a5.88,5.88,0,0,0-.67,1.3c-.13.3-.2.45-.31.45s-.17-.13-.32-.4a14.13,14.13,0,0,1-1.22-3.08c0,6.52.17,11.82.17,12.22,0,.25,0,.28-.27.28h-2c-.25,0-.27,0-.27-.28s.12-5.17.15-10.89a18.84,18.84,0,0,1-2.1,5c-.15.25-.28.4-.38.4s-.17-.12-.25-.4a6.81,6.81,0,0,0-.87-1.87,21.22,21.22,0,0,0,3.45-7.82h-.28c-1.65,0-2.15,0-2.3,0s-.27,0-.27-.3V106.1c0-.27,0-.3.27-.3s.65,0,2.3,0h.38v-1.47a18.63,18.63,0,0,0-.2-3.35,20.85,20.85,0,0,1,2.42.17c.25,0,.4.13.4.28a1,1,0,0,1-.15.52,7.4,7.4,0,0,0-.15,2.35v1.5c1.45,0,1.92,0,2.08,0s.25,0,.25.3v1.73c0,.27,0,.3-.25.3s-.63,0-2,0a17,17,0,0,0,2.4,4.62v-1.15c0-.25,0-.27.27-.27s1,0,3.4,0h1.85V109.8h-1.15c-2.22,0-3,0-3.12,0s-.28,0-.28-.27V108c0-.28,0-.3.28-.3s.9,0,3.12,0h1.15v-1.5h-1.5c-2.35,0-3.15,0-3.3,0s-.27,0-.27-.25v-1.6c0-.25,0-.28.27-.28s.83,0,2.6,0a20.72,20.72,0,0,0-1.12-2.1c-.15-.22-.1-.3.17-.42l1.53-.58c.27-.1.3-.1.47.13a13,13,0,0,1,1.2,2c.13.25.08.3-.22.42l-1.35.5H370c.35-.67.75-1.47,1-2.12a6,6,0,0,0,.3-1.1,20.18,20.18,0,0,1,2.15.5c.25.07.4.17.4.35a.49.49,0,0,1-.25.37,1,1,0,0,0-.35.45c-.23.45-.53,1-.85,1.55h.15c2.32,0,3.12,0,3.27,0s.3,0,.3.28v1.6c0,.22,0,.25-.3.25s-.95,0-3.27,0h-2.4v1.5H372c2.25,0,3,0,3.13,0s.27,0,.27.3v1.55c0,.25,0,.27-.27.27s-.88,0-3.13,0h-1.77v1.53h3.05c2.4,0,3.22,0,3.37,0s.28,0,.28.27v1.65c0,.25,0,.28-.28.28s-1,0-3.37,0h-2.6a18,18,0,0,0,1.6,2.75,19.63,19.63,0,0,0,1.6-1.5,3.94,3.94,0,0,0,.62-.88,14.61,14.61,0,0,1,1.6,1.22c.18.16.28.28.28.43s-.1.25-.33.32a2.24,2.24,0,0,0-.75.48c-.47.45-1,1-1.7,1.52a16.61,16.61,0,0,0,4,3,5.37,5.37,0,0,0-1.2,1.48c-.2.35-.3.5-.43.5s-.27-.13-.55-.33a14.66,14.66,0,0,1-5.2-6.22c0,2.15.1,3.85.1,5a2.35,2.35,0,0,1-.8,2.13c-.47.35-1.1.47-2.72.5-.8,0-.8,0-1-.78a6,6,0,0,0-.65-1.6,15.33,15.33,0,0,0,1.78.1c.75,0,.92-.17.92-.82V118.9a46.22,46.22,0,0,1-4.52,2.5,2.49,2.49,0,0,0-.78.5.55.55,0,0,1-.34.22c-.11,0-.18-.07-.28-.27-.27-.6-.55-1.25-.88-2.13a9.21,9.21,0,0,0,1.46-.5,46,46,0,0,0,5.34-2.74v-3Zm-.8,3.87c-.25.25-.35.27-.5.07a9.67,9.67,0,0,0-2.07-2.07c-.23-.15-.2-.22,0-.45l.95-.95c.25-.22.33-.22.53-.1a10,10,0,0,1,2.12,1.9c.15.2.13.28-.07.48Z"/><path class="cls-2" d="M394.86,106.63a31.14,31.14,0,0,1-3.12,10.77c-1.08,1.87-2.37,2.87-4.25,2.87-2.2,0-4.42-2.35-4.42-6.42a9.21,9.21,0,0,1,2.82-6.5,10.94,10.94,0,0,1,8.12-3.2c6,0,9.53,3.7,9.53,8.68,0,4.65-2.63,7.57-7.7,9.09-.53.15-.75,0-1.08-.45A5.25,5.25,0,0,0,393,119.9c4.23-1,7.55-2.75,7.55-7.47a5.68,5.68,0,0,0-5.6-5.8Zm-7.17,2.42a7.21,7.21,0,0,0-1.95,4.63c0,2.3.93,3.57,1.7,3.57s1.2-.32,1.87-1.52a28.51,28.51,0,0,0,2.65-9A7.55,7.55,0,0,0,387.69,109.05Z"/><path class="cls-2" d="M414.64,117.43a15,15,0,0,1-.47,1.87,9.89,9.89,0,0,1-2.5,4.22c-.23.23-.38.35-.5.35s-.28-.15-.53-.47a5.21,5.21,0,0,0-1.5-1.43,7.21,7.21,0,0,0,2.68-4.15,15.73,15.73,0,0,0,.47-4.32c0-1.45-.05-2.15-.05-2.27s0-.28.28-.28,1.05,0,3.49,0h9.48c2.42,0,3.3,0,3.47,0s.25,0,.25.28,0,.72,0,2.17v2.9c0,1.4,0,2,0,2.1s0,.27-.25.27h-2.1c-.25,0-.27,0-.27-.27v-1Zm.85-7.93c-2.45,0-3.3,0-3.45,0s-.27,0-.27-.27v-1.65c0-.25,0-.28.27-.28s1,.05,3.45.05h3.72v-1.62h-5.59c-2.28,0-3.08,0-3.23,0s-.27,0-.27-.28v-1.72c0-.23,0-.25.27-.25s.95,0,3.23,0h5.59A22.84,22.84,0,0,0,419,101a21.67,21.67,0,0,1,2.75.2c.25,0,.4.12.4.25a1.56,1.56,0,0,1-.15.5,5.07,5.07,0,0,0-.15,1.7H428c2.3,0,3.1,0,3.25,0s.25,0,.25.25v1.72c0,.25,0,.28-.25.28s-.95,0-3.25,0h-6.12v1.62h4.22c2.43,0,3.25-.05,3.4-.05s.3,0,.3.28v1.65c0,.25,0,.27-.3.27s-1,0-3.4,0Zm-.6,4.85c0,.33,0,.67,0,1h4.49v-2.3h-4.47Zm7-1.3v2.3h4.7v-2.3Z"/><path class="cls-3" d="M277.24,126.53H251.12V125.4l26.12.3Z"/><path class="cls-3" d="M278.43,113.77l-25.66-4.88c.14-.72.29-1.45.44-2.18l25.54,5.48C278.64,112.72,278.53,113.24,278.43,113.77Zm165.87-.07c-.1-.52-.21-1-.32-1.56l25.54-5.5c.15.72.3,1.45.44,2.18Zm-162-13-24.2-9.83c.27-.69.56-1.37.85-2l24,10.38C282.7,99.72,282.49,100.22,282.29,100.72Zm158.15,0c-.2-.49-.41-1-.62-1.48l24-10.39c.29.67.58,1.35.85,2ZM288.64,88.58l-21.9-14.24c.4-.61.8-1.22,1.22-1.83l21.58,14.72C289.23,87.68,288.94,88.12,288.64,88.58Zm145.45,0c-.3-.46-.6-.91-.91-1.36l21.57-14.73c.41.61.82,1.21,1.22,1.82ZM297.2,77.73l-19-18,1.5-1.56,18.61,18.34Zm128.31,0-1.15-1.19L443,58.15c.51.52,1,1,1.51,1.57ZM307.63,68.47,292,47.53l1.74-1.27L309,67.5C308.51,67.82,308.06,68.14,307.63,68.47Zm107.43,0-1.34-1L428.91,46.2l1.76,1.28ZM319.53,61l-12-23.21c.63-.33,1.28-.65,1.92-1L321,60.28Zm83.6,0-1.48-.74L413.16,36.8c.65.31,1.29.64,1.93,1Zm-70.58-5.4-8.12-24.83,2-.65,7.68,25C333.61,55.24,333.08,55.42,332.55,55.59Zm57.56,0-1.59-.5,7.64-25,2.06.65Zm-43.79-3.32-4.18-25.78,2.12-.32L348,52Zm30,0L374.69,52l3.69-25.86,2.12.32ZM360.48,51l-.22-26.12h2.13L362.17,51h-1.69Z"/><path class="cls-3" d="M471.63,126.53H445.51c0-.28,0-.55,0-.82l26.12-.32C471.63,125.77,471.63,126.15,471.63,126.53Z"/><polygon class="cls-3" points="452 173 272 173 279.5 160 272 147 452 147 444.5 160 452 173"/><path class="cls-4" d="M307.67,159.57c0,4.47-2.35,7-5.82,7s-5.8-2.54-5.8-7,2.36-7,5.81-7S307.67,155.08,307.67,159.57Zm-9.12,0c0,3.46,1.32,5.21,3.31,5.21s3.31-1.75,3.31-5.21-1.31-5.2-3.31-5.2S298.55,156.11,298.55,159.58Z"/><path class="cls-4" d="M321,166.35h-2.55l-1-4.3c-.23-1.09-.44-2.22-.69-3.48h-.21c-.22,1.24-.45,2.41-.69,3.5l-1,4.28h-2.55l-2.57-9.6H312l.91,4.21c.26,1.21.48,2.47.71,3.53h.19c.25-1.08.48-2.37.74-3.49l.94-4.25h2.59L319,161c.26,1.19.5,2.39.68,3.49h.21c.24-1.15.43-2.28.71-3.51l.93-4.23h2.1Z"/><path class="cls-4" d="M328.43,158.43a3.92,3.92,0,0,1,3.14-1.89,2.64,2.64,0,0,1,2.75,2.89v6.92h-2.26V160c0-1.1-.47-1.61-1.33-1.61a2.93,2.93,0,0,0-2.23,1.63v6.29h-2.2v-9.6h2.13Z"/><path class="cls-4" d="M339.54,162c0,1.82.82,3,2.41,3,1,0,1.69-.56,2-1.81l2,.57a3.81,3.81,0,0,1-4,2.78c-2.87,0-4.54-1.83-4.54-5s1.76-5.07,4.35-5.07c2.44,0,4.28,1.79,4.28,5V162Zm4.33-1.45c-.11-1.61-.79-2.52-2.1-2.52s-2.1,1-2.2,2.52Z"/><path class="cls-4" d="M354,158.61c-1.16,0-2.12.75-2.73,2.42v5.32h-2.16v-9.6h2.06v2.36c.68-1.88,1.67-2.57,3-2.57Z"/><path class="cls-4" d="M359.1,155.15l-1.26,2.72h-1.12l1.12-2.72H356.6v-2.36h2.5Z"/><path class="cls-4" d="M367.41,159.58a1.71,1.71,0,0,0-1.71-1.53c-.94,0-1.5.45-1.5,1,0,.75.31,1.06,1.71,1.43l.8.21c2.19.58,3,1.36,3,2.92,0,1.71-1.27,3-3.88,3-2,0-3.39-.72-4-2.39l2.05-.72a2,2,0,0,0,2,1.61c1.25,0,1.74-.54,1.74-1.24s-.33-1-1.85-1.44l-.8-.22c-2.08-.56-2.82-1.31-2.82-2.92s1.26-2.73,3.6-2.73a3.56,3.56,0,0,1,3.76,2.45Z"/><path class="cls-4" d="M385.35,156.56c-.35-1.47-1.16-2.22-2.41-2.22-1.44,0-2.26.68-2.26,1.77s.53,1.73,2.48,2.27l.72.21c3.09.84,4,2,4,4,0,2.38-1.65,4-4.9,4-2.63,0-4.47-1.16-5.11-3.51l2.25-.72a2.8,2.8,0,0,0,2.81,2.45c1.78,0,2.59-.77,2.59-1.94s-.42-1.72-2.64-2.34l-.7-.21c-2.88-.86-3.81-2-3.81-4.07s1.61-3.71,4.53-3.71a4.6,4.6,0,0,1,4.77,3.37Z"/><path class="cls-4" d="M393.61,156.75h2.15v1.61h-2.15v5.26c0,1,.38,1.38,1.19,1.38a5.45,5.45,0,0,0,1.11-.1l-.08,1.57a11.32,11.32,0,0,1-1.72.1c-1.81,0-2.67-.78-2.67-2.55v-5.66H390v-1.61h1.43v-2.63l2.17-.49Z"/><path class="cls-4" d="M406.6,161.54c0,3.11-1.73,5.05-4.35,5.05s-4.33-1.89-4.33-5,1.75-5.05,4.35-5.05S406.6,158.43,406.6,161.54Zm-6.43,0c0,2.22.67,3.44,2.08,3.44s2.1-1.2,2.1-3.44-.67-3.43-2.08-3.43S400.17,159.36,400.17,161.56Z"/><path class="cls-4" d="M414.62,158.61c-1.15,0-2.12.75-2.73,2.42v5.32h-2.16v-9.6h2.06v2.36c.68-1.88,1.68-2.57,3-2.57Z"/><path class="cls-4" d="M421.6,166.7c-.75,2.2-1.9,3-3.86,3a7.6,7.6,0,0,1-1.19-.09l-.08-1.68a6.27,6.27,0,0,0,1.22.13,1.84,1.84,0,0,0,1.82-1.49l.14-.42-3.25-9.42h2.32l1.14,4c.31,1.1.52,2,.8,3.15h.18c.29-1.09.54-2.06.85-3.18l1.1-4H425Z"/></svg>