<svg id="レイヤー_1" data-name="レイヤー 1" xmlns="http://www.w3.org/2000/svg" viewBox="0 0 50 50"><defs><style>.cls-1{fill:none;}.cls-2{fill:#fff;}</style></defs><rect class="cls-1" width="50" height="50"/><polygon class="cls-2" points="28.26 18.38 20.67 18.38 24.47 12 28.26 18.38"/><path class="cls-2" d="M13.15,35.76H10.94V25.58H7v-2H17.09v2H13.15Z"/><path class="cls-2" d="M19.17,29.69a6.21,6.21,0,0,1,6.11-6.32,2.28,2.28,0,0,1,.37,0A6.32,6.32,0,1,1,26.15,36h-.5a6.23,6.23,0,0,1-6.48-5.95Zm10.75,0A4.28,4.28,0,1,0,25.65,34a4.28,4.28,0,0,0,4.27-4.31Z"/><path class="cls-2" d="M38.5,23.62a4.71,4.71,0,0,1,3.15.82,3.66,3.66,0,0,1,1.35,3,3.55,3.55,0,0,1-1.4,2.95,5,5,0,0,1-3.24.75H37.24v4.64H35V23.62Zm-.1,5.53c1,0,2.4,0,2.4-1.76s-1.35-1.81-2.4-1.81H37.24v3.57Z"/></svg>