<svg id="レイヤー_1" data-name="レイヤー 1" xmlns="http://www.w3.org/2000/svg" viewBox="0 0 360 34"><path d="M66.43,5.36q2.22,4.08,2.22,11.17a26.81,26.81,0,0,1-2,11.12Q63.73,34,57.12,34a9.51,9.51,0,0,1-8.86-5.15q-2.43-4.31-2.43-11.56A28.42,28.42,0,0,1,47.29,7.6Q50,.08,57.15.09,63.57.09,66.43,5.36Zm-4.18,22q1.92-2.85,1.92-10.63a26.21,26.21,0,0,0-1.39-9.24,5.28,5.28,0,0,0-5.39-3.63A5.64,5.64,0,0,0,52,7.26q-1.69,3.45-1.7,10.14a24.73,24.73,0,0,0,1.09,8.11q1.66,4.66,5.69,4.67A5.92,5.92,0,0,0,62.25,27.32Z"/><path d="M76.06,13.77A6.51,6.51,0,0,1,74.23,9a8.56,8.56,0,0,1,2.68-6.33Q79.58,0,84.5,0A10.54,10.54,0,0,1,92,2.5a7.71,7.71,0,0,1,2.7,5.83,7.67,7.67,0,0,1-1.57,5,9.54,9.54,0,0,1-2.73,2.12,10.68,10.68,0,0,1,3.25,2.16,8.29,8.29,0,0,1,2.2,6A10.21,10.21,0,0,1,92.87,31q-2.94,3-8.29,3a12.87,12.87,0,0,1-8.17-2.61,9.06,9.06,0,0,1-3.33-7.59,8.79,8.79,0,0,1,1.43-5.05,8.9,8.9,0,0,1,4.25-3.26A8.11,8.11,0,0,1,76.06,13.77Zm13.4,14.9A5.64,5.64,0,0,0,91.37,24a6,6,0,0,0-2-4.86,7.54,7.54,0,0,0-5-1.65,7,7,0,0,0-4.86,1.69,6,6,0,0,0-1.88,4.68,6.36,6.36,0,0,0,1.72,4.46c1.14,1.25,2.92,1.87,5.32,1.87A7.31,7.31,0,0,0,89.46,28.67Zm-.77-16.3a5,5,0,0,0,1.54-3.66,4.83,4.83,0,0,0-1.47-3.39,5.93,5.93,0,0,0-4.49-1.54c-2,0-3.45.51-4.34,1.54A5.36,5.36,0,0,0,78.6,8.94a4.33,4.33,0,0,0,1.72,3.65A6.55,6.55,0,0,0,84.4,13.9,5.83,5.83,0,0,0,88.69,12.37Z"/><path d="M120.83,5.36q2.22,4.08,2.22,11.17a26.81,26.81,0,0,1-2,11.12q-2.91,6.3-9.52,6.3a9.51,9.51,0,0,1-8.86-5.15q-2.43-4.31-2.43-11.56a28.42,28.42,0,0,1,1.46-9.64Q104.41.08,111.55.09,118,.09,120.83,5.36Zm-4.18,22q1.92-2.85,1.92-10.63a26.21,26.21,0,0,0-1.39-9.24,5.28,5.28,0,0,0-5.39-3.63,5.64,5.64,0,0,0-5.38,3.44q-1.69,3.45-1.7,10.14a24.73,24.73,0,0,0,1.09,8.11q1.67,4.66,5.69,4.67A5.92,5.92,0,0,0,116.65,27.32Z"/><path d="M148.41,5.36q2.22,4.08,2.21,11.17a27,27,0,0,1-2,11.12Q145.71,34,139.1,34a9.53,9.53,0,0,1-8.87-5.15q-2.41-4.31-2.42-11.56a28.44,28.44,0,0,1,1.45-9.64Q132,.08,139.12.09,145.54.09,148.41,5.36Zm-4.19,22q1.92-2.85,1.92-10.63a26.23,26.23,0,0,0-1.38-9.24,5.28,5.28,0,0,0-5.39-3.63A5.64,5.64,0,0,0,134,7.26q-1.69,3.45-1.7,10.14a24.73,24.73,0,0,0,1.09,8.11c1.11,3.11,3,4.67,5.69,4.67A5.91,5.91,0,0,0,144.22,27.32Z"/><path d="M154.6,17.79h11.59v4.26H154.6Z"/><path d="M172.91,9.71V6.54a17,17,0,0,0,6.28-1.46c1.18-.69,2.07-2.3,2.65-4.85h3.28V33.06h-4.43V9.71Z"/><path d="M216.29.64V4.26a38.44,38.44,0,0,0-4.23,5.36,53.76,53.76,0,0,0-4.68,8.24,56,56,0,0,0-3,7.85q-.66,2.28-1.73,7.35H198a56.37,56.37,0,0,1,6.93-18.79,60.16,60.16,0,0,1,6.65-9.46H193.29V.64Z"/><path d="M239.75,5.36Q242,9.44,242,16.53a26.81,26.81,0,0,1-2,11.12q-2.91,6.3-9.52,6.3a9.51,9.51,0,0,1-8.86-5.15q-2.43-4.31-2.43-11.56a28.42,28.42,0,0,1,1.46-9.64Q223.33.08,230.47.09,236.89.09,239.75,5.36Zm-4.18,22q1.92-2.85,1.92-10.63a26.21,26.21,0,0,0-1.39-9.24,5.28,5.28,0,0,0-5.39-3.63,5.64,5.64,0,0,0-5.38,3.44q-1.7,3.45-1.7,10.14a24.73,24.73,0,0,0,1.09,8.11q1.67,4.66,5.69,4.67A5.92,5.92,0,0,0,235.57,27.32Z"/><path d="M245.94,17.79h11.59v4.26H245.94Z"/><path d="M265.57,24.65a5.73,5.73,0,0,0,3.3,4.91,8,8,0,0,0,3.41.69,6.42,6.42,0,0,0,5.48-2.35,8.46,8.46,0,0,0,1.78-5.2,6.78,6.78,0,0,0-2.12-5.34,7.34,7.34,0,0,0-5.06-1.89,7.71,7.71,0,0,0-3.69.83,7.87,7.87,0,0,0-2.62,2.3l-3.6-.21L265,.64h17.18v4H268.08l-1.41,9.16a10.24,10.24,0,0,1,2.2-1.31,11.07,11.07,0,0,1,4.27-.76,10.94,10.94,0,0,1,7.71,2.92A9.66,9.66,0,0,1,284,22.08a12.72,12.72,0,0,1-2.9,8.24q-2.89,3.57-9.25,3.57a11.83,11.83,0,0,1-7.15-2.27c-2.07-1.51-3.23-3.84-3.47-7Z"/><path d="M288.23,9.71V6.54a17,17,0,0,0,6.28-1.46c1.19-.69,2.07-2.3,2.66-4.85h3.28V33.06H296V9.71Z"/><path d="M330.19,5.36q2.22,4.08,2.22,11.17a26.81,26.81,0,0,1-2,11.12q-2.91,6.3-9.51,6.3A9.52,9.52,0,0,1,312,28.8q-2.43-4.31-2.42-11.56a28.44,28.44,0,0,1,1.45-9.64Q313.78.08,320.91.09,327.33.09,330.19,5.36Zm-4.18,22q1.92-2.85,1.92-10.63a26,26,0,0,0-1.39-9.24,5.28,5.28,0,0,0-5.39-3.63,5.65,5.65,0,0,0-5.38,3.44q-1.69,3.45-1.7,10.14a25,25,0,0,0,1.09,8.11q1.66,4.66,5.69,4.67A5.92,5.92,0,0,0,326,27.32Z"/><path d="M351,33.06V25h-14.5V21L351.62,0h3.51V21.39H360V25h-4.87v8.06Zm-.07-11.67v-15l-10.6,15Z"/><path d="M0,25.86H39.19V2.2H0Zm13.73-.79H8.87V8.26a5.29,5.29,0,0,1,5.42-5.41H20V7.27H15.58a1.73,1.73,0,0,0-1.85,1.56v2.93H26.52v4.41H13.73Zm16.47,0H27.82a5.3,5.3,0,0,1-5.43-5.42V17.22h4.14V19.5a1.18,1.18,0,0,0,1.28,1.17H30.2Zm0-17.82H27.81a1.17,1.17,0,0,0-1.28,1.17v2.29H22.39V8.26a5.3,5.3,0,0,1,5.43-5.41H30.2Z"/><path d="M5.9,28.43A5.76,5.76,0,0,1,4.84,32,5.34,5.34,0,0,1,1.49,33.8L1,32.8c2.94-.51,3.42-2,3.65-3.33H.55v-1Z"/><path d="M8.13,31.85H7V28.23H8.13Zm3.19-1c0,2.52-2,2.81-3.56,3l-.41-1a5.61,5.61,0,0,0,2.26-.53A1.49,1.49,0,0,0,10.2,31V28.11h1.12Z"/><rect x="12.45" y="30.34" width="5.84" height="1.1"/><polygon points="24.21 28.53 24.21 33.39 19.2 33.39 19.2 32.35 23.1 32.35 23.1 29.56 19.27 29.56 19.27 28.53 24.21 28.53"/><rect x="25.42" y="30.34" width="5.84" height="1.1"/><path d="M33.92,29.86a10.7,10.7,0,0,1-.21,2.19,3.47,3.47,0,0,1-1,1.91l-.83-.86a2.6,2.6,0,0,0,.81-1.49A9.74,9.74,0,0,0,32.85,30V28.33h1.07Zm1.81,2.57a1.61,1.61,0,0,0,1-.86,3.8,3.8,0,0,0,.45-1.42l1,.48a4.14,4.14,0,0,1-1.12,2.22,3.53,3.53,0,0,1-2.38.9V28.12h1.06Z"/></svg>