<svg id="レイヤー_1" data-name="レイヤー 1" xmlns="http://www.w3.org/2000/svg" viewBox="0 0 202.43 84.41"><defs><style>.cls-1,.cls-2{fill:#4c4345;}.cls-1{stroke:#4c4345;stroke-width:0.61px;}.cls-1,.cls-4{stroke-miterlimit:10;}.cls-3{fill:#ff64a5;}.cls-4{fill:none;stroke:#fff;stroke-width:2.55px;}</style></defs><path class="cls-1" d="M76.46,64.36c0,9-4.3,13-12.82,19.27L62,81.8C70.49,75.55,73.78,72.08,74,64.91H58.7V62.53H76.46ZM79.2,63A3.19,3.19,0,0,1,76,59.88a3.22,3.22,0,1,1,6.43,0A3.18,3.18,0,0,1,79.2,63Zm0-5a1.89,1.89,0,0,0-1.86,1.89,1.86,1.86,0,0,0,1.86,1.86,1.92,1.92,0,0,0,1.89-1.86A2,2,0,0,0,79.2,58Z"/><path class="cls-1" d="M85.57,82.08V62.59h19.12V82.08Zm2.34-17.29V79.91h14.44V64.79Z"/><path class="cls-1" d="M121.2,61.53v2.38h-7.83V61.53Zm-7.83,8.11V67.35h7.83v2.29Zm17.51,1.25C127.69,77.38,125,83,116.3,83h-2.23V80.77h2.23c7.12,0,9.26-4.67,12.36-10.89.85-1.64,1.49-3.14,1.49-3.14l2.17,1S131.22,70.19,130.88,70.89Zm-2-5.34h-1.73V60.86h1.73Zm3.81,0h-1.74V60.89h1.74Z"/><path class="cls-1" d="M155.55,67.08v2h-6.24V79h8.13v2.07H138.8V79h8.14V69.12h-6.25v-2Z"/><path class="cls-1" d="M178.3,65.73h-7.43c-1.28,2.41-3.07,4.24-7.06,7L162.41,71c7.34-5.25,7.37-7.93,7.37-12.05h2.43a16.45,16.45,0,0,1-.45,4.61h9v2.07c0,6.47-4.14,11.62-15,18.42l-1.34-1.92C174.38,75.77,178.18,71.25,178.3,65.73Z"/><path class="cls-1" d="M202,74.39l-1.34,2a86.26,86.26,0,0,0-10-6.19V83.85h-2.35V58.9h2.35v9A97.55,97.55,0,0,1,202,74.39Z"/><path class="cls-2" d="M89.75,6V2.55H66.37V7.33H80.92l-12.25,12H58.43v4.6H79.66c-1.65,2-3.58,4.3-5.26,6.44-1.49,1.88-6,7.61-3.73,12.32,1.54,3.18,5.48,4.73,12,4.73h7.22V42H82.72c-6.18,0-7.08-1.49-7.17-1.66s-.68-1.78,3.11-6.59c2.88-3.65,6.53-7.94,8.13-9.8h10.9v-4.6H76.07Z"/><rect class="cls-2" x="135.51" y="4.76" width="4.54" height="10.12"/><rect class="cls-2" x="142.7" y="4.82" width="4.54" height="10.12"/><rect class="cls-2" x="127.77" y="20.37" width="20.28" height="5.01"/><path class="cls-2" d="M132,9.81h-9.45V0H116.9V9.81h-8.46v5h8.45c-.27,14-2.45,18-9.43,30.73l-.5.92L111.89,49l.67-1.21c7-12.76,9.63-17.62,9.91-33H132Z"/><path class="cls-2" d="M129.09,36.27h-5c0,5.21,2.83,10.78,10.77,10.78h12.89V42H134.82C131,42,129.09,40.08,129.09,36.27Z"/><path class="cls-2" d="M181.24,11H158.55v5.44h22.69c8.16,0,12.85,3.74,12.85,10.27s-5,12.95-16.29,12.95H167.49V45.1H177.8c12.79,0,21.71-7.56,21.71-18.39C199.51,17.17,192.34,11,181.24,11Z"/><polygon class="cls-3" points="47.06 61.24 4.35 61.24 4.35 26.01 22.33 26.01 22.33 43.23 29.08 43.23 29.08 26.29 47.06 26.29 47.06 61.24"/><rect class="cls-3" x="13.58" y="33.9" width="24.52" height="32.39"/><rect class="cls-3" y="31.25" width="51.68" height="24.75"/><rect class="cls-3" x="19.3" y="52.59" width="13.08" height="18.87"/><line class="cls-4" x1="25.76" y1="34.32" x2="25.76" y2="37.54"/><line class="cls-4" x1="13.34" y1="38" x2="38.03" y2="38"/><polyline class="cls-4" points="19.63 38.31 19.63 43.35 32.82 43.35"/><line class="cls-4" x1="32.77" y1="40.54" x2="32.77" y2="45.72"/><polyline class="cls-4" points="19.63 60.57 19.63 48.14 32.82 48.14 32.82 60.57"/><line class="cls-4" x1="19.63" y1="52.28" x2="32.66" y2="52.28"/><line class="cls-4" x1="19.63" y1="56.38" x2="32.66" y2="56.38"/></svg>