<svg id="レイヤー_1" data-name="レイヤー 1" xmlns="http://www.w3.org/2000/svg" viewBox="0 0 200 39"><defs><style>.cls-1{fill:#fff;}.cls-2{fill:#e00012;}</style></defs><path class="cls-1" d="M21.87,16.14H8.13v-3.5H21.87ZM.6,3.83V6.94H21.87V9.77H4.22V25.24H18.81C14,29.48,7.22,32.6,0,34.8L2.4,38c7.43-2.57,15-6.6,19.47-11.35V38.84h4.06V26.66c5.32,5,12.14,8.73,19.57,11.35l2.35-3.24C42.24,33.23,34.11,29.86,29,25.24h14.8V9.77H25.93V6.94H47.25V3.83H25.93V.26H21.87V3.83ZM21.87,22.42H8.13V18.84H21.87Zm18.06-6.28h-14v-3.5h14Zm0,6.28h-14V18.84h14Z"/><path class="cls-1" d="M112.05,38.92H108V17.27a25.6,25.6,0,0,1-4.21,4.36l-2.12-3.91C106.18,13.89,110.3,7,112,.17l4.11.58a38.72,38.72,0,0,1-4,10.32ZM135.13,8a52.8,52.8,0,0,0-9.88-5.28L127.76,0a40.2,40.2,0,0,1,9.94,5.08ZM148,11.86H134.34v9h11.79V24H134.34V34.31h14.74v3.25h-34V34.31h15V24H118V20.83h12.09v-9H116.27V8.61H148Z"/><path class="cls-1" d="M192.52,15H184V11.77h8.53ZM184,.3h-3.91V3H169.74V5.83h10.34V9H166.43v2.79h13.65V15H169.74v2.76h10.34v2.91H168.14v2.79h11.94v3.2H166.43v2.82h13.65v3.82H184V29.44h15.3V26.62H184v-3.2h13.45V20.63H184V17.72h12.3V11.77h3.26V9h-3.26V3H184Zm-5.77,34.39a46,46,0,0,1-4.66-.26c-6.87-1-10.64-4-10.94-4.32,1.7-3.67,2.86-9,3.16-15.15H157.6c4.21-4.31,5.32-5.47,8.13-10V2H153.09V5.08h8.12a49.15,49.15,0,0,1-8,9.48V18H162a31.36,31.36,0,0,1-1.85,8.9,22.69,22.69,0,0,1-2.46-6.71l-3.5.73a23.2,23.2,0,0,0,4.31,9.23,21.05,21.05,0,0,1-5.78,5.72l2.46,3a21.4,21.4,0,0,0,5.93-6.07c4.26,3.54,10.48,5,16.55,5h21.52l.86-3.21ZM192.52,9H184V5.83h8.53Z"/><path class="cls-2" d="M61.19,13.4A47.73,47.73,0,0,0,59.73,7h8.74A37.17,37.17,0,0,1,67,13.4ZM73.44,29.28a29.25,29.25,0,0,1-6.84-5.44h8.19v-3H66.11V16.44h9.58v-3H70.62A59.63,59.63,0,0,0,72.23,7H75V4H66.11V.26H62.25V4H52.36V7H56a39.41,39.41,0,0,1,1.5,6.41h-6v3H62.25V20.8H52v3H61.5a36.82,36.82,0,0,1-11,8.73l2.17,3a45.25,45.25,0,0,0,9.53-8.16V39h3.86V27.29a36.9,36.9,0,0,0,5.11,4.91ZM77.61,6.15v12.6A32.29,32.29,0,0,1,76,29a19.19,19.19,0,0,1-5.11,7.69l3.71,2.2c2.2-2.32,7-7.43,7-20.08V16.68h6.52V39h4.16V16.68h5.38V13.52H81.61V6.16Z"/><polygon class="cls-2" points="78.43 9.06 99.37 3.31 88.65 0.25 90.53 2.59 77.62 6.14 78.43 9.06"/></svg>