<svg id="レイヤー_1" data-name="レイヤー 1" xmlns="http://www.w3.org/2000/svg" viewBox="0 0 571.405 42.182"><defs><style>.cls-1{fill:#e61f19;}.cls-2{fill:none;stroke:#e61f19;stroke-miterlimit:10;stroke-width:3px;}</style></defs><path class="cls-1" d="M41.179,23.535h1.984a19.1,19.1,0,0,0,3.1-.16v3.968a26.4,26.4,0,0,0-3.1-.128h-.608a12.625,12.625,0,0,0,2.976,2.5c-.672,1.28-1.248,2.464-1.76,3.68a14.588,14.588,0,0,1-2.656-2.944c.064,1.343.064,1.823.064,2.3v2.56a14.875,14.875,0,0,0,.16,2.624H37.084a13.605,13.605,0,0,0,.159-2.464V33.039c0-.544.033-1.28.064-1.984a15.177,15.177,0,0,1-4.959,5.311,14.919,14.919,0,0,0-1.76-4,16.656,16.656,0,0,0,5.407-5.152H34.236a19.637,19.637,0,0,0-3.072.16v-4a19.554,19.554,0,0,0,3.136.16h2.943v-1.92H34.2a26.491,26.491,0,0,0-3.072.128V17.711a19.542,19.542,0,0,0,3.231.161,22.443,22.443,0,0,0-.767-3.616c-.8.032-1.184.064-1.824.128V10.448a19.761,19.761,0,0,0,3.168.16h2.144v-.192a13.148,13.148,0,0,0-.16-2.4H41.5a12.441,12.441,0,0,0-.16,2.4v.192H43.1a19.31,19.31,0,0,0,3.136-.16v3.936c-.64-.064-.864-.064-1.7-.1a28.7,28.7,0,0,1-.832,3.584,15.077,15.077,0,0,0,2.72-.161v4.032a27.1,27.1,0,0,0-3.1-.128H41.179Zm-1.12-5.663a18.39,18.39,0,0,0,.7-3.616H37.371a1.385,1.385,0,0,1,.128.352,17.469,17.469,0,0,1,.673,3.264Zm18.047-.192a15.756,15.756,0,0,0,2.944-.192v4.191a16.206,16.206,0,0,0-2.464-.128h-.608V33.935a25.155,25.155,0,0,0,.192,4.031H53.69a25.886,25.886,0,0,0,.192-4.031V21.551h-2.56c-.16,8.064-1.215,12.479-3.935,16.575a18.226,18.226,0,0,0-3.808-2.463c3.072-4.032,3.744-7.616,3.744-20.607a38.666,38.666,0,0,0-.192-4.448,40.128,40.128,0,0,0,7.455-1.344A11.251,11.251,0,0,0,57.818,7.92l3.1,3.744a10.4,10.4,0,0,0-1.12.352,45.8,45.8,0,0,1-8.448,1.952V17.68Z"/><path class="cls-1" d="M68.968,13.9a23.265,23.265,0,0,0-3.263.16V10.7a21.654,21.654,0,0,0,3.263.16h3.776a12.911,12.911,0,0,0-1.856-2.432l4-.8A31.243,31.243,0,0,1,77,10.864h4.256a24.1,24.1,0,0,0,1.952-3.232l4.255.8C86.6,9.648,86.343,10,85.639,10.864h3.616a22.4,22.4,0,0,0,3.3-.16v3.36a23.77,23.77,0,0,0-3.3-.16H80.967v1.184h6.944a22.817,22.817,0,0,0,3.1-.128v2.88a23.7,23.7,0,0,0-3.1-.129H80.967V18.9h9.28a20.95,20.95,0,0,0,3.328-.16V22.1a22.623,22.623,0,0,0-3.328-.16H74.664c-.224.8-.224.8-.32,1.12H87.975c1.12,0,2.048-.032,3.04-.128a23.759,23.759,0,0,0-.128,3.3v8.255a20.782,20.782,0,0,0,.192,3.456H86.791V36.846H75.3v1.088H71.049a23.765,23.765,0,0,0,.191-3.328V33.135c0-.8.064-2.016.161-3.264a23.551,23.551,0,0,1-4.352,6.015,16.956,16.956,0,0,0-3.168-3.519A18.028,18.028,0,0,0,68.169,27.7a18.638,18.638,0,0,0,2.367-5.76H67.945a21.146,21.146,0,0,0-3.264.16v-3.36a20.03,20.03,0,0,0,3.264.16h8.831V17.711h-6.4a23.7,23.7,0,0,0-3.1.129V14.96a22.2,22.2,0,0,0,3.1.128h6.4V13.9Zm6.336,11.9v1.152H86.823V25.807Zm0,3.488v1.152H86.823V29.3Zm0,3.488v1.152H86.823V32.783Z"/><path class="cls-1" d="M117.469,11.632a11.639,11.639,0,0,0,1.376-.064,3.541,3.541,0,1,1,3.552,3.808h-.128l-.128.448a30.561,30.561,0,0,1-6.335,12.959c-2.944,3.456-6.56,5.951-12.064,8.415a14.516,14.516,0,0,0-3.391-4.576,25.948,25.948,0,0,0,6.879-3.167,21.316,21.316,0,0,0,9.536-13.343H102.751a37.342,37.342,0,0,0-4.96.192v-4.9a32.715,32.715,0,0,0,5.024.224Zm3.329.192a1.568,1.568,0,1,0,1.567-1.568A1.57,1.57,0,0,0,120.8,11.824Z"/><path class="cls-1" d="M135.48,33.807v2.207h-4.928c.1-1.247.161-2.592.161-4.512V15.7a39.3,39.3,0,0,0-.128-4.224,39.579,39.579,0,0,0,4.607.128h14.943c2.688,0,3.488-.032,4.8-.128-.1,1.12-.128,2.528-.128,4.384V31.31a41.72,41.72,0,0,0,.16,4.672h-4.928V33.807ZM150.039,15.92H135.448V29.487h14.591Z"/><path class="cls-1" d="M162.959,17.488a44.381,44.381,0,0,1,8.7,4.415l-2.336,4.288a37.42,37.42,0,0,0-8.895-4.832Zm-1.728,14.175a28.64,28.64,0,0,0,9.535-2.112,19.058,19.058,0,0,0,9.087-6.976A23.853,23.853,0,0,0,183.5,15.5a17.447,17.447,0,0,0,4,3.424,28.822,28.822,0,0,1-4.9,8.191c-4.255,4.9-9.567,7.615-17.759,9.151-.991.192-1.6.352-2.271.544ZM165.39,9.68a52.7,52.7,0,0,1,8.832,4.16l-2.432,4.192a38.323,38.323,0,0,0-8.831-4.48Zm17.215.416a17.062,17.062,0,0,1,2.656,4.32l-2.752,1.312a19.506,19.506,0,0,0-2.624-4.448Zm3.68-1.6a17.594,17.594,0,0,1,2.656,4.16l-2.688,1.312a24.035,24.035,0,0,0-2.592-4.32Z"/><path class="cls-1" d="M205.806,31.854H210.8a31.825,31.825,0,0,0,4.383-.191v4.255c-1.12-.1-2.4-.16-4.416-.16H196.3a27.3,27.3,0,0,0-4.063.16V31.663a23.775,23.775,0,0,0,4.032.191h5.151V21.935h-3.136c-1.856,0-3.007.064-4.063.16V17.9a31.025,31.025,0,0,0,4.032.192h10.719a26.517,26.517,0,0,0,4.191-.224V22.1a36.634,36.634,0,0,0-4.191-.16h-3.168Z"/><path class="cls-1" d="M234.91,9.36a14.226,14.226,0,0,0-.928,1.888c-.288.64-.416.928-.768,1.632l8.319-.1a6.965,6.965,0,0,0,2.305-.352l2.335,2.3a6.984,6.984,0,0,0-.831,2.08,34.206,34.206,0,0,1-6.56,12.479,33.039,33.039,0,0,1-11.615,8.223,12.371,12.371,0,0,0-3.3-4.127c8.639-3.36,13.631-8.384,16.255-16.447l-9.088.1a31.976,31.976,0,0,1-7.391,8.16,11.8,11.8,0,0,0-3.808-3.264,24.986,24.986,0,0,0,8.383-9.5,12.31,12.31,0,0,0,1.536-4.064Z"/><path class="cls-1" d="M254.158,36.846a32.874,32.874,0,0,0,.193-4.512V13.392a27.772,27.772,0,0,0-.193-4.288h5.216a28.191,28.191,0,0,0-.192,4.288v4.863a77.143,77.143,0,0,1,14.559,6.72l-2.624,4.608A70.213,70.213,0,0,0,260.4,23.759a10.978,10.978,0,0,1-1.216-.576V32.4a39.6,39.6,0,0,0,.192,4.448Z"/><path class="cls-1" d="M283.493,22.863a43.916,43.916,0,0,0,.512-5.567,28.162,28.162,0,0,1-3.1,3.072,18.89,18.89,0,0,0-2.5-3.552,18.628,18.628,0,0,0,5.92-6.848,10.2,10.2,0,0,0,.9-2.208l4.415.544c-.256.48-.256.512-.447.864-.353.7-.481.96-.8,1.536H303.3a33.045,33.045,0,0,0,3.968-.192v4.224a34.578,34.578,0,0,0-3.968-.192h-17.15c-.544.768-.737,1.056-1.184,1.6.9.033,1.056.033,1.472.033h15.23c1.472,0,2.432-.033,3.105-.1a37.957,37.957,0,0,0-.225,4.543c-.032.448-.063,1.056-.128,2.24h.672a19.842,19.842,0,0,0,3.1-.16v4.032a28.34,28.34,0,0,0-3.167-.128H304.2c-.1,1.248-.161,1.888-.289,3.168h.416a19.915,19.915,0,0,0,2.88-.128v4a24.132,24.132,0,0,0-3.072-.128h-.768c-.8,3.808-1.568,4.448-5.439,4.448-.641,0-1.185-.032-2.752-.128a10.432,10.432,0,0,0-.7-3.584,23.28,23.28,0,0,0,3.008.288c.992,0,1.376-.224,1.632-1.024H285.7c-.16.7-.255,1.056-.511,2.112l-4.448-.352a52.978,52.978,0,0,0,2.208-8.671h-.8a20.429,20.429,0,0,0-3.232.16V22.7a26.3,26.3,0,0,0,3.648.16Zm7.391,6.912c.256-1.536.256-1.536.48-3.168h-4.32c-.223,1.408-.288,1.856-.544,3.168Zm.928-6.912c.032-.608.032-.608.224-2.944h-4.16c-.128,1.473-.191,1.984-.319,2.944Zm7.935,6.912c.128-1.152.193-1.792.288-3.168h-4.7c-.224,1.7-.224,1.7-.448,3.168Zm.544-6.912c.032-.9.065-1.376.1-2.944H295.94c-.128,1.984-.128,1.984-.224,2.944Z"/><path class="cls-1" d="M319.461,28.047a18.956,18.956,0,0,1-4.64,10.047,18.337,18.337,0,0,0-3.52-3.52c3.776-3.935,4.544-7.295,4.544-20.446a44.53,44.53,0,0,0-.191-4.96,34.463,34.463,0,0,0,3.935.16h13.855a29.222,29.222,0,0,0,3.839-.16,34.386,34.386,0,0,0-.128,3.808V33.518c0,1.856-.351,2.816-1.28,3.456-.8.512-1.855.7-4.191.7-.992,0-2.112-.032-3.68-.1a14.815,14.815,0,0,0-1.12-4.255,35.648,35.648,0,0,0,4.832.383c.928,0,1.151-.16,1.151-.768V28.047Zm13.406-3.84V20.56H320.133c-.064,1.087-.128,2.239-.225,3.647Zm0-7.487V13.36h-12.7v3.36Z"/><path class="cls-1" d="M347.6,10.064a24.437,24.437,0,0,0,3.392.16c2.816,0,7.295-.16,9.6-.352a13.852,13.852,0,0,0,3.264-.544l2.4,3.136a15.833,15.833,0,0,0-2.048,1.7,88.158,88.158,0,0,1-7.935,6.367c2.4-.288,5.183-.511,7.84-.736,1.791-.127,3.071-.224,3.519-.255,1.056-.1,1.792-.161,1.984-.161a6.219,6.219,0,0,0,1.12-.16l.223,4.512H369.93c-3.968,0-6.624.448-8.991,1.5-2.432,1.088-4.033,2.816-4.033,4.416,0,1.855,2.016,2.815,5.856,2.815a19.024,19.024,0,0,0,3.456-.319l.192,4.831a6.952,6.952,0,0,0-.8-.032c-.321,0-.321,0-2.273.064h-.607a25.837,25.837,0,0,1-4.737-.48c-3.583-.736-5.823-3.135-5.823-6.207a5.931,5.931,0,0,1,1.472-4.032,7.207,7.207,0,0,1,2.431-2.016c-.511.064-1.727.224-3.679.48-1.824.224-1.824.224-2.911.352-.96.1-2.5.32-4.577.608-.479.1-.864.16-1.664.352l-.416-4.64h.641a46.459,46.459,0,0,0,5.888-.575,54.3,54.3,0,0,0,8.926-7.136c-1.792.256-2.431.288-8.063.608a16.919,16.919,0,0,0-2.367.224Zm18.431,9.183a19.343,19.343,0,0,0-2.368-4.063l2.688-1.088a17.413,17.413,0,0,1,2.368,3.967Zm3.744-1.6a22.726,22.726,0,0,0-2.336-3.935l2.528-1.088a16.324,16.324,0,0,1,2.4,3.84Z"/><path class="cls-1" d="M395.392,11.472c-.8.544-.8.544-4,3.488-1.632,1.5-4.128,3.455-7.712,6.175-.992.737-1.152.9-1.152,1.248,0,.448,0,.448,3.1,2.688a118.3,118.3,0,0,1,9.759,8.031c.352.32.544.48.96.8l-3.9,4a28.122,28.122,0,0,0-4.191-4.416,98.464,98.464,0,0,0-8.319-6.847,8.327,8.327,0,0,1-2.433-2.432,5.011,5.011,0,0,1-.447-1.984,4.2,4.2,0,0,1,1.119-2.751,20.919,20.919,0,0,1,2.849-2.336,74.737,74.737,0,0,0,7.422-6.208,14.091,14.091,0,0,0,2.464-2.72Z"/><path class="cls-1" d="M404.91,10.064a24.437,24.437,0,0,0,3.392.16c2.815,0,7.3-.16,9.6-.352a13.851,13.851,0,0,0,3.263-.544l2.4,3.136a15.833,15.833,0,0,0-2.048,1.7,87.759,87.759,0,0,1-7.936,6.367c2.4-.288,5.184-.511,7.84-.736,1.792-.127,3.072-.224,3.52-.255,1.056-.1,1.792-.161,1.984-.161a6.207,6.207,0,0,0,1.12-.16l.224,4.512h-1.025c-3.967,0-6.623.448-8.991,1.5-2.432,1.088-4.031,2.816-4.031,4.416,0,1.855,2.015,2.815,5.855,2.815a19.024,19.024,0,0,0,3.456-.319l.192,4.831a6.96,6.96,0,0,0-.8-.032c-.32,0-.32,0-2.271.064h-.609a25.833,25.833,0,0,1-4.735-.48c-3.584-.736-5.824-3.135-5.824-6.207a5.931,5.931,0,0,1,1.472-4.032,7.222,7.222,0,0,1,2.432-2.016c-.512.064-1.728.224-3.68.48-1.824.224-1.824.224-2.912.352-.96.1-2.5.32-4.575.608-.481.1-.864.16-1.664.352l-.416-4.64h.639a46.426,46.426,0,0,0,5.888-.575,54.347,54.347,0,0,0,8.928-7.136c-1.792.256-2.433.288-8.064.608a16.952,16.952,0,0,0-2.368.224Zm18.431,9.183a19.343,19.343,0,0,0-2.368-4.063l2.688-1.088a17.377,17.377,0,0,1,2.368,3.967Zm3.744-1.6a22.726,22.726,0,0,0-2.336-3.935l2.528-1.088a16.39,16.39,0,0,1,2.4,3.84Z"/><path class="cls-1" d="M452.707,11.472c-.8.544-.8.544-4,3.488-1.632,1.5-4.128,3.455-7.712,6.175-.992.737-1.151.9-1.151,1.248,0,.448,0,.448,3.1,2.688a118.3,118.3,0,0,1,9.759,8.031c.353.32.544.48.96.8l-3.9,4a28.092,28.092,0,0,0-4.192-4.416,98.126,98.126,0,0,0-8.319-6.847,8.306,8.306,0,0,1-2.432-2.432,5.011,5.011,0,0,1-.448-1.984,4.2,4.2,0,0,1,1.119-2.751,21.066,21.066,0,0,1,2.849-2.336,74.767,74.767,0,0,0,7.423-6.208,14.126,14.126,0,0,0,2.464-2.72Z"/><path class="cls-1" d="M488.935,13.9c-.225.256-.225.256-.609.736a29.968,29.968,0,0,1-2.527,2.752,26.33,26.33,0,0,0,4.319,1.952,14.544,14.544,0,0,0-1.792,3.9,28.511,28.511,0,0,1-3.071-1.472,16.312,16.312,0,0,0-.1,1.984v4.288a21.87,21.87,0,0,0,.1,2.367c-.448-.031-.448-.031-2.176-.063h-4.16l3.328.992c-.512.991-.544,1.055-.7,1.343a5.73,5.73,0,0,1-.448.832h5.151a20.041,20.041,0,0,0,3.136-.16v4.064a23.561,23.561,0,0,0-3.424-.16H463.72a24.672,24.672,0,0,0-3.424.16V33.358a20.064,20.064,0,0,0,3.136.16h5.28a13.126,13.126,0,0,0-1.28-2.208l3.136-.959H466.6c-1.024,0-1.728.032-2.208.063.064-.863.1-1.343.1-2.367V23.791a17.306,17.306,0,0,0-.1-1.888,33.393,33.393,0,0,1-3.008,1.472,13.475,13.475,0,0,0-1.888-3.711,25.537,25.537,0,0,0,5.376-2.592,25.363,25.363,0,0,0-4.191-3.744l2.943-2.432c.864.672,1.153.9,1.632,1.312V8.592a15.772,15.772,0,0,0,2.784.16h6.047a16.917,16.917,0,0,0,2.689-.128,6.959,6.959,0,0,0,1.92,3.232,15.518,15.518,0,0,0,2.431-3.136l3.2,1.984a30.233,30.233,0,0,1-3.1,3.52c.608.512.8.64,1.6,1.216a15.872,15.872,0,0,0,2.88-3.488Zm-19.647,4.767a33.464,33.464,0,0,1-4.416,2.976c.8.064,1.153.064,2.048.064h15.9a19.4,19.4,0,0,0,2.145-.1,4.274,4.274,0,0,1-.448-.256,20.417,20.417,0,0,1-3.872-2.591v1.6a14.421,14.421,0,0,0-1.984-.1h-7.584a14.181,14.181,0,0,0-1.791.1Zm-2.176-6.495a14.97,14.97,0,0,0-1.76.1c1.12.992,1.856,1.664,2.72,2.528a14.225,14.225,0,0,0,2.56-2.624Zm1.344,14.847H481.1V25.007H468.456ZM478.5,17.008a25.112,25.112,0,0,1-3.615-4.064,26.824,26.824,0,0,1-3.616,4.064Zm-1.695,16.51a17.615,17.615,0,0,0,1.407-3.167H471.3a17.037,17.037,0,0,1,1.536,3.167Z"/><path class="cls-1" d="M506.27,28.111a18.939,18.939,0,0,1-3.808,2.4,7.183,7.183,0,0,0-.96-1.472,53.511,53.511,0,0,1-6.591,3.423,8.049,8.049,0,0,0-.768.416l-.864-4.447a26.134,26.134,0,0,0,3.328-1.088V19.472h-.7a14.244,14.244,0,0,0-2.368.159v-4a16.714,16.714,0,0,0,2.368.128h.7V12.016a25.432,25.432,0,0,0-.192-3.584H500.8a21.458,21.458,0,0,0-.191,3.584V15.76h.479a16.664,16.664,0,0,0,2.08-.1v3.9a20.479,20.479,0,0,0-2.048-.095h-.511v6.079c.639-.352.895-.48,1.983-1.024V26.7a10.629,10.629,0,0,0,3.392-2.752h-.416a18.486,18.486,0,0,0-3.007.16V20.5a18.539,18.539,0,0,0,3.071.159h14.111a30.2,30.2,0,0,0,3.392-.159v3.615a24.78,24.78,0,0,0-3.36-.16h-9.791a9.961,9.961,0,0,1-.768,1.12h10.175c1.536,0,2.176-.032,3.1-.1a13.082,13.082,0,0,0-.128,1.92c-.127,4.543-.671,7.936-1.5,9.247-.736,1.184-1.984,1.6-4.832,1.6-.671,0-1.12-.032-2.5-.1a9.253,9.253,0,0,0-.8-3.04,21.863,21.863,0,0,1-5.728,3.584,10.717,10.717,0,0,0-2.528-2.72,21.183,21.183,0,0,0,5.759-3.167,12.845,12.845,0,0,0,3.552-4.192h-1.6c-2.176,3.072-4.736,4.991-8.959,6.656a9.135,9.135,0,0,0-2.176-2.624c3.615-1.152,5.6-2.272,7.231-4.032Zm.96-8.608c-1.216,0-2.208.033-2.944.1a30.253,30.253,0,0,0,.128-3.168V11.856a26.092,26.092,0,0,0-.128-2.976,22.892,22.892,0,0,0,3.327.16h9.728a24.334,24.334,0,0,0,3.456-.16,27.038,27.038,0,0,0-.128,3.264v4.32a26.369,26.369,0,0,0,.128,3.1c-.64-.031-1.6-.064-2.88-.064Zm1.024-6.271h8.575V12.08h-8.575Zm0,3.552h8.575V15.7h-8.575ZM517.6,28.111a19.383,19.383,0,0,1-4,5.727c1.023.1,1.855.128,2.559.128,1.216,0,1.5-.256,1.825-1.727a37.244,37.244,0,0,0,.479-4.128Z"/><path class="cls-1" d="M533.255,28.4c.032-.8.065-1.152.065-1.5,0-.416,0-.416-.1-2.3l-.544-10.527c-.064-1.44-.192-3.008-.319-4.1H538.6c-.128.928-.256,2.432-.32,4.1l-.544,10.527c-.1,1.952-.1,1.952-.1,2.336,0,.352.032.672.064,1.472Zm-.512,7.615V30.831h5.472v5.183Z"/><path class="cls-1" d="M41.179,23.535h1.984a19.1,19.1,0,0,0,3.1-.16v3.968a26.4,26.4,0,0,0-3.1-.128h-.608a12.625,12.625,0,0,0,2.976,2.5c-.672,1.28-1.248,2.464-1.76,3.68a14.588,14.588,0,0,1-2.656-2.944c.064,1.343.064,1.823.064,2.3v2.56a14.875,14.875,0,0,0,.16,2.624H37.084a13.605,13.605,0,0,0,.159-2.464V33.039c0-.544.033-1.28.064-1.984a15.177,15.177,0,0,1-4.959,5.311,14.919,14.919,0,0,0-1.76-4,16.656,16.656,0,0,0,5.407-5.152H34.236a19.637,19.637,0,0,0-3.072.16v-4a19.554,19.554,0,0,0,3.136.16h2.943v-1.92H34.2a26.491,26.491,0,0,0-3.072.128V17.711a19.542,19.542,0,0,0,3.231.161,22.443,22.443,0,0,0-.767-3.616c-.8.032-1.184.064-1.824.128V10.448a19.761,19.761,0,0,0,3.168.16h2.144v-.192a13.148,13.148,0,0,0-.16-2.4H41.5a12.441,12.441,0,0,0-.16,2.4v.192H43.1a19.31,19.31,0,0,0,3.136-.16v3.936c-.64-.064-.864-.064-1.7-.1a28.7,28.7,0,0,1-.832,3.584,15.077,15.077,0,0,0,2.72-.161v4.032a27.1,27.1,0,0,0-3.1-.128H41.179Zm-1.12-5.663a18.39,18.39,0,0,0,.7-3.616H37.371a1.385,1.385,0,0,1,.128.352,17.469,17.469,0,0,1,.673,3.264Zm18.047-.192a15.756,15.756,0,0,0,2.944-.192v4.191a16.206,16.206,0,0,0-2.464-.128h-.608V33.935a25.155,25.155,0,0,0,.192,4.031H53.69a25.886,25.886,0,0,0,.192-4.031V21.551h-2.56c-.16,8.064-1.215,12.479-3.935,16.575a18.226,18.226,0,0,0-3.808-2.463c3.072-4.032,3.744-7.616,3.744-20.607a38.666,38.666,0,0,0-.192-4.448,40.128,40.128,0,0,0,7.455-1.344A11.251,11.251,0,0,0,57.818,7.92l3.1,3.744a10.4,10.4,0,0,0-1.12.352,45.8,45.8,0,0,1-8.448,1.952V17.68Z"/><path class="cls-1" d="M68.968,13.9a23.265,23.265,0,0,0-3.263.16V10.7a21.654,21.654,0,0,0,3.263.16h3.776a12.911,12.911,0,0,0-1.856-2.432l4-.8A31.243,31.243,0,0,1,77,10.864h4.256a24.1,24.1,0,0,0,1.952-3.232l4.255.8C86.6,9.648,86.343,10,85.639,10.864h3.616a22.4,22.4,0,0,0,3.3-.16v3.36a23.77,23.77,0,0,0-3.3-.16H80.967v1.184h6.944a22.817,22.817,0,0,0,3.1-.128v2.88a23.7,23.7,0,0,0-3.1-.129H80.967V18.9h9.28a20.95,20.95,0,0,0,3.328-.16V22.1a22.623,22.623,0,0,0-3.328-.16H74.664c-.224.8-.224.8-.32,1.12H87.975c1.12,0,2.048-.032,3.04-.128a23.759,23.759,0,0,0-.128,3.3v8.255a20.782,20.782,0,0,0,.192,3.456H86.791V36.846H75.3v1.088H71.049a23.765,23.765,0,0,0,.191-3.328V33.135c0-.8.064-2.016.161-3.264a23.551,23.551,0,0,1-4.352,6.015,16.956,16.956,0,0,0-3.168-3.519A18.028,18.028,0,0,0,68.169,27.7a18.638,18.638,0,0,0,2.367-5.76H67.945a21.146,21.146,0,0,0-3.264.16v-3.36a20.03,20.03,0,0,0,3.264.16h8.831V17.711h-6.4a23.7,23.7,0,0,0-3.1.129V14.96a22.2,22.2,0,0,0,3.1.128h6.4V13.9Zm6.336,11.9v1.152H86.823V25.807Zm0,3.488v1.152H86.823V29.3Zm0,3.488v1.152H86.823V32.783Z"/><path class="cls-1" d="M117.469,11.632a11.639,11.639,0,0,0,1.376-.064,3.541,3.541,0,1,1,3.552,3.808h-.128l-.128.448a30.561,30.561,0,0,1-6.335,12.959c-2.944,3.456-6.56,5.951-12.064,8.415a14.516,14.516,0,0,0-3.391-4.576,25.948,25.948,0,0,0,6.879-3.167,21.316,21.316,0,0,0,9.536-13.343H102.751a37.342,37.342,0,0,0-4.96.192v-4.9a32.715,32.715,0,0,0,5.024.224Zm3.329.192a1.568,1.568,0,1,0,1.567-1.568A1.57,1.57,0,0,0,120.8,11.824Z"/><path class="cls-1" d="M135.48,33.807v2.207h-4.928c.1-1.247.161-2.592.161-4.512V15.7a39.3,39.3,0,0,0-.128-4.224,39.579,39.579,0,0,0,4.607.128h14.943c2.688,0,3.488-.032,4.8-.128-.1,1.12-.128,2.528-.128,4.384V31.31a41.72,41.72,0,0,0,.16,4.672h-4.928V33.807ZM150.039,15.92H135.448V29.487h14.591Z"/><path class="cls-1" d="M162.959,17.488a44.381,44.381,0,0,1,8.7,4.415l-2.336,4.288a37.42,37.42,0,0,0-8.895-4.832Zm-1.728,14.175a28.64,28.64,0,0,0,9.535-2.112,19.058,19.058,0,0,0,9.087-6.976A23.853,23.853,0,0,0,183.5,15.5a17.447,17.447,0,0,0,4,3.424,28.822,28.822,0,0,1-4.9,8.191c-4.255,4.9-9.567,7.615-17.759,9.151-.991.192-1.6.352-2.271.544ZM165.39,9.68a52.7,52.7,0,0,1,8.832,4.16l-2.432,4.192a38.323,38.323,0,0,0-8.831-4.48Zm17.215.416a17.062,17.062,0,0,1,2.656,4.32l-2.752,1.312a19.506,19.506,0,0,0-2.624-4.448Zm3.68-1.6a17.594,17.594,0,0,1,2.656,4.16l-2.688,1.312a24.035,24.035,0,0,0-2.592-4.32Z"/><path class="cls-1" d="M205.806,31.854H210.8a31.825,31.825,0,0,0,4.383-.191v4.255c-1.12-.1-2.4-.16-4.416-.16H196.3a27.3,27.3,0,0,0-4.063.16V31.663a23.775,23.775,0,0,0,4.032.191h5.151V21.935h-3.136c-1.856,0-3.007.064-4.063.16V17.9a31.025,31.025,0,0,0,4.032.192h10.719a26.517,26.517,0,0,0,4.191-.224V22.1a36.634,36.634,0,0,0-4.191-.16h-3.168Z"/><path class="cls-1" d="M234.91,9.36a14.226,14.226,0,0,0-.928,1.888c-.288.64-.416.928-.768,1.632l8.319-.1a6.965,6.965,0,0,0,2.305-.352l2.335,2.3a6.984,6.984,0,0,0-.831,2.08,34.206,34.206,0,0,1-6.56,12.479,33.039,33.039,0,0,1-11.615,8.223,12.371,12.371,0,0,0-3.3-4.127c8.639-3.36,13.631-8.384,16.255-16.447l-9.088.1a31.976,31.976,0,0,1-7.391,8.16,11.8,11.8,0,0,0-3.808-3.264,24.986,24.986,0,0,0,8.383-9.5,12.31,12.31,0,0,0,1.536-4.064Z"/><path class="cls-1" d="M254.158,36.846a32.874,32.874,0,0,0,.193-4.512V13.392a27.772,27.772,0,0,0-.193-4.288h5.216a28.191,28.191,0,0,0-.192,4.288v4.863a77.143,77.143,0,0,1,14.559,6.72l-2.624,4.608A70.213,70.213,0,0,0,260.4,23.759a10.978,10.978,0,0,1-1.216-.576V32.4a39.6,39.6,0,0,0,.192,4.448Z"/><path class="cls-1" d="M283.493,22.863a43.916,43.916,0,0,0,.512-5.567,28.162,28.162,0,0,1-3.1,3.072,18.89,18.89,0,0,0-2.5-3.552,18.628,18.628,0,0,0,5.92-6.848,10.2,10.2,0,0,0,.9-2.208l4.415.544c-.256.48-.256.512-.447.864-.353.7-.481.96-.8,1.536H303.3a33.045,33.045,0,0,0,3.968-.192v4.224a34.578,34.578,0,0,0-3.968-.192h-17.15c-.544.768-.737,1.056-1.184,1.6.9.033,1.056.033,1.472.033h15.23c1.472,0,2.432-.033,3.105-.1a37.957,37.957,0,0,0-.225,4.543c-.032.448-.063,1.056-.128,2.24h.672a19.842,19.842,0,0,0,3.1-.16v4.032a28.34,28.34,0,0,0-3.167-.128H304.2c-.1,1.248-.161,1.888-.289,3.168h.416a19.915,19.915,0,0,0,2.88-.128v4a24.132,24.132,0,0,0-3.072-.128h-.768c-.8,3.808-1.568,4.448-5.439,4.448-.641,0-1.185-.032-2.752-.128a10.432,10.432,0,0,0-.7-3.584,23.28,23.28,0,0,0,3.008.288c.992,0,1.376-.224,1.632-1.024H285.7c-.16.7-.255,1.056-.511,2.112l-4.448-.352a52.978,52.978,0,0,0,2.208-8.671h-.8a20.429,20.429,0,0,0-3.232.16V22.7a26.3,26.3,0,0,0,3.648.16Zm7.391,6.912c.256-1.536.256-1.536.48-3.168h-4.32c-.223,1.408-.288,1.856-.544,3.168Zm.928-6.912c.032-.608.032-.608.224-2.944h-4.16c-.128,1.473-.191,1.984-.319,2.944Zm7.935,6.912c.128-1.152.193-1.792.288-3.168h-4.7c-.224,1.7-.224,1.7-.448,3.168Zm.544-6.912c.032-.9.065-1.376.1-2.944H295.94c-.128,1.984-.128,1.984-.224,2.944Z"/><path class="cls-1" d="M319.461,28.047a18.956,18.956,0,0,1-4.64,10.047,18.337,18.337,0,0,0-3.52-3.52c3.776-3.935,4.544-7.295,4.544-20.446a44.53,44.53,0,0,0-.191-4.96,34.463,34.463,0,0,0,3.935.16h13.855a29.222,29.222,0,0,0,3.839-.16,34.386,34.386,0,0,0-.128,3.808V33.518c0,1.856-.351,2.816-1.28,3.456-.8.512-1.855.7-4.191.7-.992,0-2.112-.032-3.68-.1a14.815,14.815,0,0,0-1.12-4.255,35.648,35.648,0,0,0,4.832.383c.928,0,1.151-.16,1.151-.768V28.047Zm13.406-3.84V20.56H320.133c-.064,1.087-.128,2.239-.225,3.647Zm0-7.487V13.36h-12.7v3.36Z"/><path class="cls-1" d="M347.6,10.064a24.437,24.437,0,0,0,3.392.16c2.816,0,7.295-.16,9.6-.352a13.852,13.852,0,0,0,3.264-.544l2.4,3.136a15.833,15.833,0,0,0-2.048,1.7,88.158,88.158,0,0,1-7.935,6.367c2.4-.288,5.183-.511,7.84-.736,1.791-.127,3.071-.224,3.519-.255,1.056-.1,1.792-.161,1.984-.161a6.219,6.219,0,0,0,1.12-.16l.223,4.512H369.93c-3.968,0-6.624.448-8.991,1.5-2.432,1.088-4.033,2.816-4.033,4.416,0,1.855,2.016,2.815,5.856,2.815a19.024,19.024,0,0,0,3.456-.319l.192,4.831a6.952,6.952,0,0,0-.8-.032c-.321,0-.321,0-2.273.064h-.607a25.837,25.837,0,0,1-4.737-.48c-3.583-.736-5.823-3.135-5.823-6.207a5.931,5.931,0,0,1,1.472-4.032,7.207,7.207,0,0,1,2.431-2.016c-.511.064-1.727.224-3.679.48-1.824.224-1.824.224-2.911.352-.96.1-2.5.32-4.577.608-.479.1-.864.16-1.664.352l-.416-4.64h.641a46.459,46.459,0,0,0,5.888-.575,54.3,54.3,0,0,0,8.926-7.136c-1.792.256-2.431.288-8.063.608a16.919,16.919,0,0,0-2.367.224Zm18.431,9.183a19.343,19.343,0,0,0-2.368-4.063l2.688-1.088a17.413,17.413,0,0,1,2.368,3.967Zm3.744-1.6a22.726,22.726,0,0,0-2.336-3.935l2.528-1.088a16.324,16.324,0,0,1,2.4,3.84Z"/><path class="cls-1" d="M395.392,11.472c-.8.544-.8.544-4,3.488-1.632,1.5-4.128,3.455-7.712,6.175-.992.737-1.152.9-1.152,1.248,0,.448,0,.448,3.1,2.688a118.3,118.3,0,0,1,9.759,8.031c.352.32.544.48.96.8l-3.9,4a28.122,28.122,0,0,0-4.191-4.416,98.464,98.464,0,0,0-8.319-6.847,8.327,8.327,0,0,1-2.433-2.432,5.011,5.011,0,0,1-.447-1.984,4.2,4.2,0,0,1,1.119-2.751,20.919,20.919,0,0,1,2.849-2.336,74.737,74.737,0,0,0,7.422-6.208,14.091,14.091,0,0,0,2.464-2.72Z"/><path class="cls-1" d="M404.91,10.064a24.437,24.437,0,0,0,3.392.16c2.815,0,7.3-.16,9.6-.352a13.851,13.851,0,0,0,3.263-.544l2.4,3.136a15.833,15.833,0,0,0-2.048,1.7,87.759,87.759,0,0,1-7.936,6.367c2.4-.288,5.184-.511,7.84-.736,1.792-.127,3.072-.224,3.52-.255,1.056-.1,1.792-.161,1.984-.161a6.207,6.207,0,0,0,1.12-.16l.224,4.512h-1.025c-3.967,0-6.623.448-8.991,1.5-2.432,1.088-4.031,2.816-4.031,4.416,0,1.855,2.015,2.815,5.855,2.815a19.024,19.024,0,0,0,3.456-.319l.192,4.831a6.96,6.96,0,0,0-.8-.032c-.32,0-.32,0-2.271.064h-.609a25.833,25.833,0,0,1-4.735-.48c-3.584-.736-5.824-3.135-5.824-6.207a5.931,5.931,0,0,1,1.472-4.032,7.222,7.222,0,0,1,2.432-2.016c-.512.064-1.728.224-3.68.48-1.824.224-1.824.224-2.912.352-.96.1-2.5.32-4.575.608-.481.1-.864.16-1.664.352l-.416-4.64h.639a46.426,46.426,0,0,0,5.888-.575,54.347,54.347,0,0,0,8.928-7.136c-1.792.256-2.433.288-8.064.608a16.952,16.952,0,0,0-2.368.224Zm18.431,9.183a19.343,19.343,0,0,0-2.368-4.063l2.688-1.088a17.377,17.377,0,0,1,2.368,3.967Zm3.744-1.6a22.726,22.726,0,0,0-2.336-3.935l2.528-1.088a16.39,16.39,0,0,1,2.4,3.84Z"/><path class="cls-1" d="M452.707,11.472c-.8.544-.8.544-4,3.488-1.632,1.5-4.128,3.455-7.712,6.175-.992.737-1.151.9-1.151,1.248,0,.448,0,.448,3.1,2.688a118.3,118.3,0,0,1,9.759,8.031c.353.32.544.48.96.8l-3.9,4a28.092,28.092,0,0,0-4.192-4.416,98.126,98.126,0,0,0-8.319-6.847,8.306,8.306,0,0,1-2.432-2.432,5.011,5.011,0,0,1-.448-1.984,4.2,4.2,0,0,1,1.119-2.751,21.066,21.066,0,0,1,2.849-2.336,74.767,74.767,0,0,0,7.423-6.208,14.126,14.126,0,0,0,2.464-2.72Z"/><path class="cls-1" d="M488.935,13.9c-.225.256-.225.256-.609.736a29.968,29.968,0,0,1-2.527,2.752,26.33,26.33,0,0,0,4.319,1.952,14.544,14.544,0,0,0-1.792,3.9,28.511,28.511,0,0,1-3.071-1.472,16.312,16.312,0,0,0-.1,1.984v4.288a21.87,21.87,0,0,0,.1,2.367c-.448-.031-.448-.031-2.176-.063h-4.16l3.328.992c-.512.991-.544,1.055-.7,1.343a5.73,5.73,0,0,1-.448.832h5.151a20.041,20.041,0,0,0,3.136-.16v4.064a23.561,23.561,0,0,0-3.424-.16H463.72a24.672,24.672,0,0,0-3.424.16V33.358a20.064,20.064,0,0,0,3.136.16h5.28a13.126,13.126,0,0,0-1.28-2.208l3.136-.959H466.6c-1.024,0-1.728.032-2.208.063.064-.863.1-1.343.1-2.367V23.791a17.306,17.306,0,0,0-.1-1.888,33.393,33.393,0,0,1-3.008,1.472,13.475,13.475,0,0,0-1.888-3.711,25.537,25.537,0,0,0,5.376-2.592,25.363,25.363,0,0,0-4.191-3.744l2.943-2.432c.864.672,1.153.9,1.632,1.312V8.592a15.772,15.772,0,0,0,2.784.16h6.047a16.917,16.917,0,0,0,2.689-.128,6.959,6.959,0,0,0,1.92,3.232,15.518,15.518,0,0,0,2.431-3.136l3.2,1.984a30.233,30.233,0,0,1-3.1,3.52c.608.512.8.64,1.6,1.216a15.872,15.872,0,0,0,2.88-3.488Zm-19.647,4.767a33.464,33.464,0,0,1-4.416,2.976c.8.064,1.153.064,2.048.064h15.9a19.4,19.4,0,0,0,2.145-.1,4.274,4.274,0,0,1-.448-.256,20.417,20.417,0,0,1-3.872-2.591v1.6a14.421,14.421,0,0,0-1.984-.1h-7.584a14.181,14.181,0,0,0-1.791.1Zm-2.176-6.495a14.97,14.97,0,0,0-1.76.1c1.12.992,1.856,1.664,2.72,2.528a14.225,14.225,0,0,0,2.56-2.624Zm1.344,14.847H481.1V25.007H468.456ZM478.5,17.008a25.112,25.112,0,0,1-3.615-4.064,26.824,26.824,0,0,1-3.616,4.064Zm-1.695,16.51a17.615,17.615,0,0,0,1.407-3.167H471.3a17.037,17.037,0,0,1,1.536,3.167Z"/><path class="cls-1" d="M506.27,28.111a18.939,18.939,0,0,1-3.808,2.4,7.183,7.183,0,0,0-.96-1.472,53.511,53.511,0,0,1-6.591,3.423,8.049,8.049,0,0,0-.768.416l-.864-4.447a26.134,26.134,0,0,0,3.328-1.088V19.472h-.7a14.244,14.244,0,0,0-2.368.159v-4a16.714,16.714,0,0,0,2.368.128h.7V12.016a25.432,25.432,0,0,0-.192-3.584H500.8a21.458,21.458,0,0,0-.191,3.584V15.76h.479a16.664,16.664,0,0,0,2.08-.1v3.9a20.479,20.479,0,0,0-2.048-.095h-.511v6.079c.639-.352.895-.48,1.983-1.024V26.7a10.629,10.629,0,0,0,3.392-2.752h-.416a18.486,18.486,0,0,0-3.007.16V20.5a18.539,18.539,0,0,0,3.071.159h14.111a30.2,30.2,0,0,0,3.392-.159v3.615a24.78,24.78,0,0,0-3.36-.16h-9.791a9.961,9.961,0,0,1-.768,1.12h10.175c1.536,0,2.176-.032,3.1-.1a13.082,13.082,0,0,0-.128,1.92c-.127,4.543-.671,7.936-1.5,9.247-.736,1.184-1.984,1.6-4.832,1.6-.671,0-1.12-.032-2.5-.1a9.253,9.253,0,0,0-.8-3.04,21.863,21.863,0,0,1-5.728,3.584,10.717,10.717,0,0,0-2.528-2.72,21.183,21.183,0,0,0,5.759-3.167,12.845,12.845,0,0,0,3.552-4.192h-1.6c-2.176,3.072-4.736,4.991-8.959,6.656a9.135,9.135,0,0,0-2.176-2.624c3.615-1.152,5.6-2.272,7.231-4.032Zm.96-8.608c-1.216,0-2.208.033-2.944.1a30.253,30.253,0,0,0,.128-3.168V11.856a26.092,26.092,0,0,0-.128-2.976,22.892,22.892,0,0,0,3.327.16h9.728a24.334,24.334,0,0,0,3.456-.16,27.038,27.038,0,0,0-.128,3.264v4.32a26.369,26.369,0,0,0,.128,3.1c-.64-.031-1.6-.064-2.88-.064Zm1.024-6.271h8.575V12.08h-8.575Zm0,3.552h8.575V15.7h-8.575ZM517.6,28.111a19.383,19.383,0,0,1-4,5.727c1.023.1,1.855.128,2.559.128,1.216,0,1.5-.256,1.825-1.727a37.244,37.244,0,0,0,.479-4.128Z"/><path class="cls-1" d="M533.255,28.4c.032-.8.065-1.152.065-1.5,0-.416,0-.416-.1-2.3l-.544-10.527c-.064-1.44-.192-3.008-.319-4.1H538.6c-.128.928-.256,2.432-.32,4.1l-.544,10.527c-.1,1.952-.1,1.952-.1,2.336,0,.352.032.672.064,1.472Zm-.512,7.615V30.831h5.472v5.183Z"/><path class="cls-1" d="M41.179,23.535h1.984a19.1,19.1,0,0,0,3.1-.16v3.968a26.4,26.4,0,0,0-3.1-.128h-.608a12.625,12.625,0,0,0,2.976,2.5c-.672,1.28-1.248,2.464-1.76,3.68a14.588,14.588,0,0,1-2.656-2.944c.064,1.343.064,1.823.064,2.3v2.56a14.875,14.875,0,0,0,.16,2.624H37.084a13.605,13.605,0,0,0,.159-2.464V33.039c0-.544.033-1.28.064-1.984a15.177,15.177,0,0,1-4.959,5.311,14.919,14.919,0,0,0-1.76-4,16.656,16.656,0,0,0,5.407-5.152H34.236a19.637,19.637,0,0,0-3.072.16v-4a19.554,19.554,0,0,0,3.136.16h2.943v-1.92H34.2a26.491,26.491,0,0,0-3.072.128V17.711a19.542,19.542,0,0,0,3.231.161,22.443,22.443,0,0,0-.767-3.616c-.8.032-1.184.064-1.824.128V10.448a19.761,19.761,0,0,0,3.168.16h2.144v-.192a13.148,13.148,0,0,0-.16-2.4H41.5a12.441,12.441,0,0,0-.16,2.4v.192H43.1a19.31,19.31,0,0,0,3.136-.16v3.936c-.64-.064-.864-.064-1.7-.1a28.7,28.7,0,0,1-.832,3.584,15.077,15.077,0,0,0,2.72-.161v4.032a27.1,27.1,0,0,0-3.1-.128H41.179Zm-1.12-5.663a18.39,18.39,0,0,0,.7-3.616H37.371a1.385,1.385,0,0,1,.128.352,17.469,17.469,0,0,1,.673,3.264Zm18.047-.192a15.756,15.756,0,0,0,2.944-.192v4.191a16.206,16.206,0,0,0-2.464-.128h-.608V33.935a25.155,25.155,0,0,0,.192,4.031H53.69a25.886,25.886,0,0,0,.192-4.031V21.551h-2.56c-.16,8.064-1.215,12.479-3.935,16.575a18.226,18.226,0,0,0-3.808-2.463c3.072-4.032,3.744-7.616,3.744-20.607a38.666,38.666,0,0,0-.192-4.448,40.128,40.128,0,0,0,7.455-1.344A11.251,11.251,0,0,0,57.818,7.92l3.1,3.744a10.4,10.4,0,0,0-1.12.352,45.8,45.8,0,0,1-8.448,1.952V17.68Z"/><path class="cls-1" d="M68.968,13.9a23.265,23.265,0,0,0-3.263.16V10.7a21.654,21.654,0,0,0,3.263.16h3.776a12.911,12.911,0,0,0-1.856-2.432l4-.8A31.243,31.243,0,0,1,77,10.864h4.256a24.1,24.1,0,0,0,1.952-3.232l4.255.8C86.6,9.648,86.343,10,85.639,10.864h3.616a22.4,22.4,0,0,0,3.3-.16v3.36a23.77,23.77,0,0,0-3.3-.16H80.967v1.184h6.944a22.817,22.817,0,0,0,3.1-.128v2.88a23.7,23.7,0,0,0-3.1-.129H80.967V18.9h9.28a20.95,20.95,0,0,0,3.328-.16V22.1a22.623,22.623,0,0,0-3.328-.16H74.664c-.224.8-.224.8-.32,1.12H87.975c1.12,0,2.048-.032,3.04-.128a23.759,23.759,0,0,0-.128,3.3v8.255a20.782,20.782,0,0,0,.192,3.456H86.791V36.846H75.3v1.088H71.049a23.765,23.765,0,0,0,.191-3.328V33.135c0-.8.064-2.016.161-3.264a23.551,23.551,0,0,1-4.352,6.015,16.956,16.956,0,0,0-3.168-3.519A18.028,18.028,0,0,0,68.169,27.7a18.638,18.638,0,0,0,2.367-5.76H67.945a21.146,21.146,0,0,0-3.264.16v-3.36a20.03,20.03,0,0,0,3.264.16h8.831V17.711h-6.4a23.7,23.7,0,0,0-3.1.129V14.96a22.2,22.2,0,0,0,3.1.128h6.4V13.9Zm6.336,11.9v1.152H86.823V25.807Zm0,3.488v1.152H86.823V29.3Zm0,3.488v1.152H86.823V32.783Z"/><path class="cls-1" d="M117.469,11.632a11.639,11.639,0,0,0,1.376-.064,3.541,3.541,0,1,1,3.552,3.808h-.128l-.128.448a30.561,30.561,0,0,1-6.335,12.959c-2.944,3.456-6.56,5.951-12.064,8.415a14.516,14.516,0,0,0-3.391-4.576,25.948,25.948,0,0,0,6.879-3.167,21.316,21.316,0,0,0,9.536-13.343H102.751a37.342,37.342,0,0,0-4.96.192v-4.9a32.715,32.715,0,0,0,5.024.224Zm3.329.192a1.568,1.568,0,1,0,1.567-1.568A1.57,1.57,0,0,0,120.8,11.824Z"/><path class="cls-1" d="M135.48,33.807v2.207h-4.928c.1-1.247.161-2.592.161-4.512V15.7a39.3,39.3,0,0,0-.128-4.224,39.579,39.579,0,0,0,4.607.128h14.943c2.688,0,3.488-.032,4.8-.128-.1,1.12-.128,2.528-.128,4.384V31.31a41.72,41.72,0,0,0,.16,4.672h-4.928V33.807ZM150.039,15.92H135.448V29.487h14.591Z"/><path class="cls-1" d="M162.959,17.488a44.381,44.381,0,0,1,8.7,4.415l-2.336,4.288a37.42,37.42,0,0,0-8.895-4.832Zm-1.728,14.175a28.64,28.64,0,0,0,9.535-2.112,19.058,19.058,0,0,0,9.087-6.976A23.853,23.853,0,0,0,183.5,15.5a17.447,17.447,0,0,0,4,3.424,28.822,28.822,0,0,1-4.9,8.191c-4.255,4.9-9.567,7.615-17.759,9.151-.991.192-1.6.352-2.271.544ZM165.39,9.68a52.7,52.7,0,0,1,8.832,4.16l-2.432,4.192a38.323,38.323,0,0,0-8.831-4.48Zm17.215.416a17.062,17.062,0,0,1,2.656,4.32l-2.752,1.312a19.506,19.506,0,0,0-2.624-4.448Zm3.68-1.6a17.594,17.594,0,0,1,2.656,4.16l-2.688,1.312a24.035,24.035,0,0,0-2.592-4.32Z"/><path class="cls-1" d="M205.806,31.854H210.8a31.825,31.825,0,0,0,4.383-.191v4.255c-1.12-.1-2.4-.16-4.416-.16H196.3a27.3,27.3,0,0,0-4.063.16V31.663a23.775,23.775,0,0,0,4.032.191h5.151V21.935h-3.136c-1.856,0-3.007.064-4.063.16V17.9a31.025,31.025,0,0,0,4.032.192h10.719a26.517,26.517,0,0,0,4.191-.224V22.1a36.634,36.634,0,0,0-4.191-.16h-3.168Z"/><path class="cls-1" d="M234.91,9.36a14.226,14.226,0,0,0-.928,1.888c-.288.64-.416.928-.768,1.632l8.319-.1a6.965,6.965,0,0,0,2.305-.352l2.335,2.3a6.984,6.984,0,0,0-.831,2.08,34.206,34.206,0,0,1-6.56,12.479,33.039,33.039,0,0,1-11.615,8.223,12.371,12.371,0,0,0-3.3-4.127c8.639-3.36,13.631-8.384,16.255-16.447l-9.088.1a31.976,31.976,0,0,1-7.391,8.16,11.8,11.8,0,0,0-3.808-3.264,24.986,24.986,0,0,0,8.383-9.5,12.31,12.31,0,0,0,1.536-4.064Z"/><path class="cls-1" d="M254.158,36.846a32.874,32.874,0,0,0,.193-4.512V13.392a27.772,27.772,0,0,0-.193-4.288h5.216a28.191,28.191,0,0,0-.192,4.288v4.863a77.143,77.143,0,0,1,14.559,6.72l-2.624,4.608A70.213,70.213,0,0,0,260.4,23.759a10.978,10.978,0,0,1-1.216-.576V32.4a39.6,39.6,0,0,0,.192,4.448Z"/><path class="cls-1" d="M283.493,22.863a43.916,43.916,0,0,0,.512-5.567,28.162,28.162,0,0,1-3.1,3.072,18.89,18.89,0,0,0-2.5-3.552,18.628,18.628,0,0,0,5.92-6.848,10.2,10.2,0,0,0,.9-2.208l4.415.544c-.256.48-.256.512-.447.864-.353.7-.481.96-.8,1.536H303.3a33.045,33.045,0,0,0,3.968-.192v4.224a34.578,34.578,0,0,0-3.968-.192h-17.15c-.544.768-.737,1.056-1.184,1.6.9.033,1.056.033,1.472.033h15.23c1.472,0,2.432-.033,3.105-.1a37.957,37.957,0,0,0-.225,4.543c-.032.448-.063,1.056-.128,2.24h.672a19.842,19.842,0,0,0,3.1-.16v4.032a28.34,28.34,0,0,0-3.167-.128H304.2c-.1,1.248-.161,1.888-.289,3.168h.416a19.915,19.915,0,0,0,2.88-.128v4a24.132,24.132,0,0,0-3.072-.128h-.768c-.8,3.808-1.568,4.448-5.439,4.448-.641,0-1.185-.032-2.752-.128a10.432,10.432,0,0,0-.7-3.584,23.28,23.28,0,0,0,3.008.288c.992,0,1.376-.224,1.632-1.024H285.7c-.16.7-.255,1.056-.511,2.112l-4.448-.352a52.978,52.978,0,0,0,2.208-8.671h-.8a20.429,20.429,0,0,0-3.232.16V22.7a26.3,26.3,0,0,0,3.648.16Zm7.391,6.912c.256-1.536.256-1.536.48-3.168h-4.32c-.223,1.408-.288,1.856-.544,3.168Zm.928-6.912c.032-.608.032-.608.224-2.944h-4.16c-.128,1.473-.191,1.984-.319,2.944Zm7.935,6.912c.128-1.152.193-1.792.288-3.168h-4.7c-.224,1.7-.224,1.7-.448,3.168Zm.544-6.912c.032-.9.065-1.376.1-2.944H295.94c-.128,1.984-.128,1.984-.224,2.944Z"/><path class="cls-1" d="M319.461,28.047a18.956,18.956,0,0,1-4.64,10.047,18.337,18.337,0,0,0-3.52-3.52c3.776-3.935,4.544-7.295,4.544-20.446a44.53,44.53,0,0,0-.191-4.96,34.463,34.463,0,0,0,3.935.16h13.855a29.222,29.222,0,0,0,3.839-.16,34.386,34.386,0,0,0-.128,3.808V33.518c0,1.856-.351,2.816-1.28,3.456-.8.512-1.855.7-4.191.7-.992,0-2.112-.032-3.68-.1a14.815,14.815,0,0,0-1.12-4.255,35.648,35.648,0,0,0,4.832.383c.928,0,1.151-.16,1.151-.768V28.047Zm13.406-3.84V20.56H320.133c-.064,1.087-.128,2.239-.225,3.647Zm0-7.487V13.36h-12.7v3.36Z"/><path class="cls-1" d="M347.6,10.064a24.437,24.437,0,0,0,3.392.16c2.816,0,7.295-.16,9.6-.352a13.852,13.852,0,0,0,3.264-.544l2.4,3.136a15.833,15.833,0,0,0-2.048,1.7,88.158,88.158,0,0,1-7.935,6.367c2.4-.288,5.183-.511,7.84-.736,1.791-.127,3.071-.224,3.519-.255,1.056-.1,1.792-.161,1.984-.161a6.219,6.219,0,0,0,1.12-.16l.223,4.512H369.93c-3.968,0-6.624.448-8.991,1.5-2.432,1.088-4.033,2.816-4.033,4.416,0,1.855,2.016,2.815,5.856,2.815a19.024,19.024,0,0,0,3.456-.319l.192,4.831a6.952,6.952,0,0,0-.8-.032c-.321,0-.321,0-2.273.064h-.607a25.837,25.837,0,0,1-4.737-.48c-3.583-.736-5.823-3.135-5.823-6.207a5.931,5.931,0,0,1,1.472-4.032,7.207,7.207,0,0,1,2.431-2.016c-.511.064-1.727.224-3.679.48-1.824.224-1.824.224-2.911.352-.96.1-2.5.32-4.577.608-.479.1-.864.16-1.664.352l-.416-4.64h.641a46.459,46.459,0,0,0,5.888-.575,54.3,54.3,0,0,0,8.926-7.136c-1.792.256-2.431.288-8.063.608a16.919,16.919,0,0,0-2.367.224Zm18.431,9.183a19.343,19.343,0,0,0-2.368-4.063l2.688-1.088a17.413,17.413,0,0,1,2.368,3.967Zm3.744-1.6a22.726,22.726,0,0,0-2.336-3.935l2.528-1.088a16.324,16.324,0,0,1,2.4,3.84Z"/><path class="cls-1" d="M395.392,11.472c-.8.544-.8.544-4,3.488-1.632,1.5-4.128,3.455-7.712,6.175-.992.737-1.152.9-1.152,1.248,0,.448,0,.448,3.1,2.688a118.3,118.3,0,0,1,9.759,8.031c.352.32.544.48.96.8l-3.9,4a28.122,28.122,0,0,0-4.191-4.416,98.464,98.464,0,0,0-8.319-6.847,8.327,8.327,0,0,1-2.433-2.432,5.011,5.011,0,0,1-.447-1.984,4.2,4.2,0,0,1,1.119-2.751,20.919,20.919,0,0,1,2.849-2.336,74.737,74.737,0,0,0,7.422-6.208,14.091,14.091,0,0,0,2.464-2.72Z"/><path class="cls-1" d="M404.91,10.064a24.437,24.437,0,0,0,3.392.16c2.815,0,7.3-.16,9.6-.352a13.851,13.851,0,0,0,3.263-.544l2.4,3.136a15.833,15.833,0,0,0-2.048,1.7,87.759,87.759,0,0,1-7.936,6.367c2.4-.288,5.184-.511,7.84-.736,1.792-.127,3.072-.224,3.52-.255,1.056-.1,1.792-.161,1.984-.161a6.207,6.207,0,0,0,1.12-.16l.224,4.512h-1.025c-3.967,0-6.623.448-8.991,1.5-2.432,1.088-4.031,2.816-4.031,4.416,0,1.855,2.015,2.815,5.855,2.815a19.024,19.024,0,0,0,3.456-.319l.192,4.831a6.96,6.96,0,0,0-.8-.032c-.32,0-.32,0-2.271.064h-.609a25.833,25.833,0,0,1-4.735-.48c-3.584-.736-5.824-3.135-5.824-6.207a5.931,5.931,0,0,1,1.472-4.032,7.222,7.222,0,0,1,2.432-2.016c-.512.064-1.728.224-3.68.48-1.824.224-1.824.224-2.912.352-.96.1-2.5.32-4.575.608-.481.1-.864.16-1.664.352l-.416-4.64h.639a46.426,46.426,0,0,0,5.888-.575,54.347,54.347,0,0,0,8.928-7.136c-1.792.256-2.433.288-8.064.608a16.952,16.952,0,0,0-2.368.224Zm18.431,9.183a19.343,19.343,0,0,0-2.368-4.063l2.688-1.088a17.377,17.377,0,0,1,2.368,3.967Zm3.744-1.6a22.726,22.726,0,0,0-2.336-3.935l2.528-1.088a16.39,16.39,0,0,1,2.4,3.84Z"/><path class="cls-1" d="M452.707,11.472c-.8.544-.8.544-4,3.488-1.632,1.5-4.128,3.455-7.712,6.175-.992.737-1.151.9-1.151,1.248,0,.448,0,.448,3.1,2.688a118.3,118.3,0,0,1,9.759,8.031c.353.32.544.48.96.8l-3.9,4a28.092,28.092,0,0,0-4.192-4.416,98.126,98.126,0,0,0-8.319-6.847,8.306,8.306,0,0,1-2.432-2.432,5.011,5.011,0,0,1-.448-1.984,4.2,4.2,0,0,1,1.119-2.751,21.066,21.066,0,0,1,2.849-2.336,74.767,74.767,0,0,0,7.423-6.208,14.126,14.126,0,0,0,2.464-2.72Z"/><path class="cls-1" d="M488.935,13.9c-.225.256-.225.256-.609.736a29.968,29.968,0,0,1-2.527,2.752,26.33,26.33,0,0,0,4.319,1.952,14.544,14.544,0,0,0-1.792,3.9,28.511,28.511,0,0,1-3.071-1.472,16.312,16.312,0,0,0-.1,1.984v4.288a21.87,21.87,0,0,0,.1,2.367c-.448-.031-.448-.031-2.176-.063h-4.16l3.328.992c-.512.991-.544,1.055-.7,1.343a5.73,5.73,0,0,1-.448.832h5.151a20.041,20.041,0,0,0,3.136-.16v4.064a23.561,23.561,0,0,0-3.424-.16H463.72a24.672,24.672,0,0,0-3.424.16V33.358a20.064,20.064,0,0,0,3.136.16h5.28a13.126,13.126,0,0,0-1.28-2.208l3.136-.959H466.6c-1.024,0-1.728.032-2.208.063.064-.863.1-1.343.1-2.367V23.791a17.306,17.306,0,0,0-.1-1.888,33.393,33.393,0,0,1-3.008,1.472,13.475,13.475,0,0,0-1.888-3.711,25.537,25.537,0,0,0,5.376-2.592,25.363,25.363,0,0,0-4.191-3.744l2.943-2.432c.864.672,1.153.9,1.632,1.312V8.592a15.772,15.772,0,0,0,2.784.16h6.047a16.917,16.917,0,0,0,2.689-.128,6.959,6.959,0,0,0,1.92,3.232,15.518,15.518,0,0,0,2.431-3.136l3.2,1.984a30.233,30.233,0,0,1-3.1,3.52c.608.512.8.64,1.6,1.216a15.872,15.872,0,0,0,2.88-3.488Zm-19.647,4.767a33.464,33.464,0,0,1-4.416,2.976c.8.064,1.153.064,2.048.064h15.9a19.4,19.4,0,0,0,2.145-.1,4.274,4.274,0,0,1-.448-.256,20.417,20.417,0,0,1-3.872-2.591v1.6a14.421,14.421,0,0,0-1.984-.1h-7.584a14.181,14.181,0,0,0-1.791.1Zm-2.176-6.495a14.97,14.97,0,0,0-1.76.1c1.12.992,1.856,1.664,2.72,2.528a14.225,14.225,0,0,0,2.56-2.624Zm1.344,14.847H481.1V25.007H468.456ZM478.5,17.008a25.112,25.112,0,0,1-3.615-4.064,26.824,26.824,0,0,1-3.616,4.064Zm-1.695,16.51a17.615,17.615,0,0,0,1.407-3.167H471.3a17.037,17.037,0,0,1,1.536,3.167Z"/><path class="cls-1" d="M506.27,28.111a18.939,18.939,0,0,1-3.808,2.4,7.183,7.183,0,0,0-.96-1.472,53.511,53.511,0,0,1-6.591,3.423,8.049,8.049,0,0,0-.768.416l-.864-4.447a26.134,26.134,0,0,0,3.328-1.088V19.472h-.7a14.244,14.244,0,0,0-2.368.159v-4a16.714,16.714,0,0,0,2.368.128h.7V12.016a25.432,25.432,0,0,0-.192-3.584H500.8a21.458,21.458,0,0,0-.191,3.584V15.76h.479a16.664,16.664,0,0,0,2.08-.1v3.9a20.479,20.479,0,0,0-2.048-.095h-.511v6.079c.639-.352.895-.48,1.983-1.024V26.7a10.629,10.629,0,0,0,3.392-2.752h-.416a18.486,18.486,0,0,0-3.007.16V20.5a18.539,18.539,0,0,0,3.071.159h14.111a30.2,30.2,0,0,0,3.392-.159v3.615a24.78,24.78,0,0,0-3.36-.16h-9.791a9.961,9.961,0,0,1-.768,1.12h10.175c1.536,0,2.176-.032,3.1-.1a13.082,13.082,0,0,0-.128,1.92c-.127,4.543-.671,7.936-1.5,9.247-.736,1.184-1.984,1.6-4.832,1.6-.671,0-1.12-.032-2.5-.1a9.253,9.253,0,0,0-.8-3.04,21.863,21.863,0,0,1-5.728,3.584,10.717,10.717,0,0,0-2.528-2.72,21.183,21.183,0,0,0,5.759-3.167,12.845,12.845,0,0,0,3.552-4.192h-1.6c-2.176,3.072-4.736,4.991-8.959,6.656a9.135,9.135,0,0,0-2.176-2.624c3.615-1.152,5.6-2.272,7.231-4.032Zm.96-8.608c-1.216,0-2.208.033-2.944.1a30.253,30.253,0,0,0,.128-3.168V11.856a26.092,26.092,0,0,0-.128-2.976,22.892,22.892,0,0,0,3.327.16h9.728a24.334,24.334,0,0,0,3.456-.16,27.038,27.038,0,0,0-.128,3.264v4.32a26.369,26.369,0,0,0,.128,3.1c-.64-.031-1.6-.064-2.88-.064Zm1.024-6.271h8.575V12.08h-8.575Zm0,3.552h8.575V15.7h-8.575ZM517.6,28.111a19.383,19.383,0,0,1-4,5.727c1.023.1,1.855.128,2.559.128,1.216,0,1.5-.256,1.825-1.727a37.244,37.244,0,0,0,.479-4.128Z"/><path class="cls-1" d="M533.255,28.4c.032-.8.065-1.152.065-1.5,0-.416,0-.416-.1-2.3l-.544-10.527c-.064-1.44-.192-3.008-.319-4.1H538.6c-.128.928-.256,2.432-.32,4.1l-.544,10.527c-.1,1.952-.1,1.952-.1,2.336,0,.352.032.672.064,1.472Zm-.512,7.615V30.831h5.472v5.183Z"/><line class="cls-2" x1="570.09" y1="2.376" x2="549.564" y2="39.806"/><line class="cls-2" x1="1.375" y1="0.601" x2="19.278" y2="41.582"/></svg>