<?xml version="1.0" encoding="UTF-8"?><svg id="_レイヤー_2" xmlns="http://www.w3.org/2000/svg" viewBox="0 0 808 360"><defs><style>.cls-1{fill:#646464;}.cls-1,.cls-2,.cls-3,.cls-4,.cls-5,.cls-6,.cls-7,.cls-8,.cls-9,.cls-10,.cls-11{stroke-width:0px;}.cls-2{fill:#f5695a;}.cls-3{fill:#000;}.cls-4{fill:#04aa89;}.cls-5{fill:#af8c70;}.cls-6,.cls-12,.cls-13{fill:none;}.cls-7{fill:#af8c70;}.cls-8{fill:#646464;}.cls-9{fill:#1e1e1e;}.cls-10{fill:#f5695a;}.cls-12{stroke-width:7.256px;}.cls-12,.cls-13{stroke:#fff;stroke-miterlimit:10;}.cls-11{fill:#fff;}.cls-13{stroke-width:1.5px;}</style></defs><g id="_レイヤー_1-2"><rect class="cls-6" width="808" height="360"/><path class="cls-10" d="M47.852,253.425c.812,1.624,1.625,2.592,3.211,3.249,1.354.542,3.752.735,7.117.735,4.99,0,10.869-.31,16.633-.89-.542.773-.89,1.973-1.044,3.056q-.193,1.237-1.431,1.314c-4.913.232-9.516.349-13.539.349-3.984,0-7.427-.232-9.013-1.045-1.702-.851-3.172-2.166-4.022-3.52-1.199,1.16-2.669,2.437-3.907,3.442-.426.349-.619.542-.774.773-.155.232-.348.349-.58.349-.155,0-.387-.155-.542-.464-.542-1.006-1.044-2.244-1.586-3.637,1.006-.464,1.547-.734,2.282-1.199,1.122-.696,2.437-1.586,3.404-2.514v-8.549h-1.896c-2.089,0-2.63.077-2.824.077-.425,0-.464-.038-.464-.464v-2.939c0-.387.039-.426.464-.426.193,0,.735.077,2.824.077h2.437c2.05,0,2.669-.077,2.901-.077.387,0,.426.039.426.426,0,.231-.078,1.314-.078,3.675v8.2ZM42.166,228.089c.232-.155.348-.232.464-.232s.232.077.387.193c1.779,1.664,3.443,3.559,4.835,5.764.232.31.194.387-.232.696l-2.205,1.856c-.232.193-.348.271-.464.271-.155,0-.232-.115-.348-.31-1.16-2.011-3.094-4.525-4.719-6.034-.309-.271-.232-.387.193-.696l2.089-1.509ZM65.723,244.064c3.365,0,4.912-.077,5.145-.077.387,0,.425.039.425.464,0,.232-.077,1.161-.077,3.211v3.326c0,2.089.077,2.979.077,3.211,0,.387-.039.426-.425.426-.232,0-1.779-.078-5.145-.078h-8.587c-3.404,0-5.183.078-5.416.078-.387,0-.425-.039-.425-.426,0-.271.077-1.934.077-5.338v-12.146c0-3.404-.077-5.184-.077-5.416,0-.425.039-.464.425-.464.232,0,1.934.077,5.299.077h.232c.425-.773.812-1.508,1.199-2.476.232-.58.464-1.276.542-1.934,1.238.116,2.94.348,3.984.619.31.077.503.271.503.464,0,.271-.078.425-.31.58-.31.232-.542.503-.696.812-.271.581-.58,1.238-.967,1.934h3.133c3.133,0,4.603-.077,4.835-.077.387,0,.425.039.425.464,0,.232-.077,1.122-.077,3.134v3.094c0,2.012.077,2.94.077,3.172,0,.387-.039.426-.425.426-.232,0-1.702-.077-4.835-.077h-9.322v3.017h10.405ZM65.917,234.162h-10.599v3.598h10.599v-3.598ZM67.309,247.352h-11.991v3.907h11.991v-3.907Z"/><path class="cls-10" d="M87.855,238.185c-.271,4.216-.774,8.007-1.586,11.217-1.006,3.984-2.515,7.736-5.184,11.18-.348.425-.542.657-.735.657s-.348-.193-.658-.657c-.773-1.199-1.586-2.051-2.437-2.747,2.63-3.094,4.1-5.957,5.145-9.863.812-2.939,1.238-5.957,1.431-9.786h-.503c-3.288,0-4.41.077-4.642.077-.387,0-.426-.039-.426-.426v-2.9c0-.388.039-.388.426-.388.232,0,1.354.039,4.642.039h.619c.039-.735.039-1.509.039-2.359,0-2.398-.078-3.598-.271-5.454,1.393.039,2.785.116,4.178.232.387.078.58.232.58.426,0,.271-.193.696-.271,1.083-.116.503-.193,1.47-.193,3.83,0,.773,0,1.508-.039,2.243h2.514c3.327,0,4.449-.039,4.681-.039.387,0,.464.039.464.426-.077,1.315-.077,2.438-.077,3.675-.077,7.62-.425,13.771-1.122,18.025-.503,3.018-2.012,4.332-4.913,4.332-.773,0-1.393,0-2.127-.077q-1.006-.077-1.122-1.315c-.116-1.006-.348-1.934-.696-2.785,1.199.232,2.166.31,3.21.31,1.083,0,1.547-.425,1.856-2.397.542-3.365.89-8.936,1.006-16.556h-3.791ZM111.875,247.894c0,10.096.078,12.106.078,12.339,0,.426-.039.464-.426.464h-3.249c-.348,0-.387-.038-.387-.464v-2.63h-5.725v2.939c0,.426-.039.464-.464.464h-3.133c-.425,0-.464-.038-.464-.464,0-.232.078-2.282.078-12.494v-7.04c0-7.078-.078-9.206-.078-9.477,0-.387.039-.426.464-.426.232,0,1.199.078,4.023.078h4.913c2.824,0,3.791-.078,4.022-.078.387,0,.426.039.426.426,0,.232-.078,2.359-.078,8.355v8.007ZM102.166,234.897v19.031h5.725v-19.031h-5.725Z"/><path class="cls-10" d="M135.779,228.863c-.039-.812-.116-1.547-.271-2.205,1.431,0,2.36.078,3.598.193.387.039.619.193.619.426,0,.155-.116.348-.232.619-.116.193-.193.464-.193.967h1.779c4.022,0,5.996-.078,6.228-.078.425,0,.464.039.464.426,0,.232-.078.812-.078,2.166v1.392c0,1.432.078,2.012.078,2.205,0,.387-.039.426-.464.426-.232,0-2.205-.077-6.228-.077h-1.779v1.624h5.415c3.752,0,5.067-.077,5.299-.077.387,0,.464.154.426.464-.039.619-.039,1.045-.116,1.586-.193,1.702-.387,2.94-.812,3.714-.657,1.199-1.74,1.624-3.481,1.624h-.503v7.969c0,2.437.077,3.481.077,3.713,0,.388-.039.426-.425.426-.271,0-2.089-.077-5.647-.077h-12.107c-3.559,0-5.376.077-5.608.077-.387,0-.426-.038-.426-.426,0-.271.078-1.508.078-4.1v-6.344c-.851.31-1.779.58-2.747.851-1.16.271-1.238.271-1.702-.812-.387-.929-.851-1.548-1.277-1.974,4.951-.773,7.93-2.088,9.632-4.216h-3.945l-.31.696c-.155.348-.271.464-.774.426l-2.321-.193c-.58-.078-.619-.193-.464-.542.657-1.393,1.199-2.746,1.625-4.294.193-.618.348-1.354.464-2.05.039-.426.116-.541.464-.541.232,0,1.509.077,5.261.077h2.244c.077-.503.077-1.006.116-1.586h-3.752c-3.713,0-4.99.077-5.222.077-.387,0-.425-.039-.425-.387v-1.818c0-.387.039-.426.425-.426.232,0,1.509.078,5.222.078h3.791c-.039-.851-.116-1.509-.271-2.205,1.431.039,2.398.078,3.52.193.387.039.696.193.696.426,0,.193-.155.387-.232.619-.077.193-.154.426-.154.967h4.448ZM129.628,257.757c.387.154.542.271.542.542,0,.231-.193.425-.58.464-.426.077-.89.193-1.547.58-2.011,1.122-5.261,2.205-8.703,2.824-.348.038-.658.077-.812.077-.425,0-.503-.155-.928-.812-.542-.89-1.122-1.586-1.702-2.089,3.443-.348,6.499-1.006,8.742-1.973.542-.232,1.083-.542,1.663-1.044,1.431.502,2.398.928,3.327,1.431ZM126.689,236.947c.232-.503.387-1.044.542-1.624h-4.41l-.464,1.624h4.332ZM125.18,244.49v1.625h16.594v-1.625h-16.594ZM141.774,249.867v-1.586h-16.594v1.586h16.594ZM141.774,252.149h-16.594v1.624h16.594v-1.624ZM143.089,241.975c-.116-.348-.232-.734-.348-1.005,1.083.154,1.741.193,2.476.193.658,0,.89-.116,1.006-.58.077-.31.116-.812.155-1.238h-7.079c.039.851.077,1.315.077,1.432,0,.387-.039.425-.425.425h-2.785c-.425,0-.464-.038-.464-.425,0-.155.039-.619.039-1.432h-6.228c-.503.967-1.122,1.856-1.973,2.63h15.55ZM135.779,236.947v-1.624h-4.913c-.116.58-.232,1.121-.387,1.624h5.299ZM135.779,232.924v-1.586h-4.487c0,.542-.039,1.083-.077,1.586h4.564ZM139.144,256.558c.503-.231.58-.271.928-.077,2.824,1.547,6.15,2.205,10.521,2.63-.619.581-1.354,1.393-1.896,2.36-.31.541-.464.696-.851.696-.232,0-.503-.039-.928-.116-3.598-.658-7.659-1.973-10.405-3.752-.387-.271-.348-.349.155-.581l2.476-1.16ZM139.299,231.338v1.586h4.525v-1.586h-4.525Z"/><path class="cls-10" d="M187.385,252.38c0,1.779.077,3.752.077,5.338,0,1.432-.387,2.398-1.276,3.134-.735.657-1.895,1.006-5.106,1.006-1.199,0-1.16.038-1.431-1.122-.271-1.238-.619-2.128-1.083-2.939,1.586.115,2.321.154,3.597.154.89,0,1.238-.387,1.238-1.276v-6.421h-9.09v4.603c0,3.752.078,5.493.078,5.726,0,.387-.039.425-.426.425h-3.327c-.387,0-.425-.038-.425-.425,0-.271.077-1.974.077-5.726v-4.603h-8.819c-.542,4.796-1.586,7.774-3.365,10.715-.309.541-.502.773-.696.773s-.387-.193-.812-.619c-.928-.929-1.818-1.509-2.747-1.973,2.824-3.636,3.984-8.239,3.984-17.562v-6.344c0-4.022-.078-6.111-.078-6.343,0-.425.039-.464.464-.464.232,0,1.586.078,5.299.078h18.18c3.752,0,5.067-.078,5.338-.078.387,0,.425.039.425.464,0,.232-.077,2.321-.077,6.343v17.136ZM170.288,246.656v-5.454h-8.432v.426c0,1.856-.039,3.52-.116,5.028h8.548ZM170.288,237.605v-5.377h-8.432v5.377h8.432ZM174.311,232.228v5.377h9.09v-5.377h-9.09ZM183.401,246.656v-5.454h-9.09v5.454h9.09Z"/><path class="cls-10" d="M210.19,233.504c.348-.116.503-.116.58.31.193.967.31,2.127.348,3.133,0,.349-.155.426-.464.465-2.089.425-3.984.695-6.382,1.044-2.476,6.537-4.758,11.875-7.543,16.594-.155.271-.271.388-.425.388-.116,0-.271-.078-.464-.194-.89-.541-2.011-1.354-2.669-1.973-.193-.154-.271-.271-.271-.425,0-.116.039-.271.193-.465,2.901-4.796,4.951-8.857,6.692-13.499-1.47.077-2.669.077-3.868.077-.851,0-1.16,0-2.127-.039-.387,0-.464-.116-.542-.618-.193-.735-.309-2.012-.387-3.288,1.586.116,2.476.154,3.597.154,1.509,0,2.669-.038,4.449-.193.464-1.624.735-2.939,1.005-4.332.232-1.354.232-1.934.232-3.133,1.663.232,3.326.464,4.525.812.387.077.619.309.619.58,0,.31-.116.503-.348.735-.232.31-.387.658-.619,1.431-.271.928-.58,2.127-.928,3.288,1.509-.154,3.288-.503,4.796-.851ZM211.273,243.871c-.039-1.044-.077-1.663-.31-2.746,1.896.193,2.901.349,4.216.735.348.077.542.271.542.618,0,.078-.077.349-.232.812s-.193.929-.155,1.586c0,2.282.116,3.945.426,6.576,2.785,1.121,4.68,1.973,6.962,3.597.387.271.425.426.232.812-.58,1.199-1.122,2.166-1.779,3.134-.116.193-.232.271-.348.271s-.232-.077-.387-.232c-1.702-1.47-3.133-2.32-4.719-3.249,0,3.868-2.785,5.647-7.194,5.647-4.255,0-7.118-2.166-7.118-5.493,0-3.365,2.785-5.647,7.156-5.647.735,0,1.818.039,3.056.232-.232-2.476-.31-4.835-.348-6.653ZM208.527,253.619c-1.934,0-3.443.773-3.443,2.243,0,1.238,1.083,1.856,3.288,1.856,2.089,0,3.365-1.121,3.365-2.746,0-.348,0-.541-.039-.773-.929-.31-1.973-.58-3.172-.58ZM215.721,235.013c.232-.387.426-.426.812-.271,2.282.619,5.338,2.167,7.582,3.637.232.154.348.271.348.425,0,.116-.039.271-.155.465-.387.851-1.083,2.05-1.625,2.862-.116.193-.232.271-.348.271s-.193-.038-.348-.154c-2.282-1.548-5.067-3.249-8.007-4.217.657-1.16,1.238-2.32,1.74-3.017Z"/><path class="cls-10" d="M237.293,229.327c.657.155.928.348.928.735,0,.425-.232.89-.387,1.276-.193.542-.348,1.74-.542,4.719-.387,5.957-.581,9.902-.581,14.97,0,3.907.464,4.797,3.559,4.797,3.442,0,8.819-2.089,13.538-7.118.155,1.471.503,2.747.89,3.675.193.426.31.696.31.929,0,.348-.155.657-.773,1.199-4.178,3.829-9.632,5.802-14.66,5.802-4.951,0-7.272-1.973-7.272-7.891,0-6.498.348-12.068.542-16.71.077-2.282.193-4.758-.387-7.079,1.779.193,3.636.387,4.835.696Z"/><path class="cls-10" d="M273.794,235.941c-4.719.89-8.858,1.702-12.997,2.554-1.47.348-1.856.425-2.437.618-.271.116-.542.31-.851.31-.271,0-.581-.231-.735-.58-.502-1.044-.928-2.398-1.431-4.178,1.973-.077,3.133-.231,6.15-.657,4.758-.696,13.268-1.973,23.248-3.288.58-.077.773.155.812.426.193.89.387,2.32.426,3.403,0,.465-.232.581-.735.581-1.818.115-3.056.309-4.719.851-6.576,2.243-9.864,6.77-9.864,11.411,0,4.989,3.559,7.697,10.289,8.123.619,0,.851.154.851.58,0,1.006-.155,2.359-.425,3.326-.116.58-.271.812-.735.812-6.808,0-14.273-3.906-14.273-11.952,0-5.493,2.746-9.206,7.427-12.262v-.078ZM281.453,240.119c.193-.154.348-.116.58.077,1.199.929,2.592,2.476,3.675,4.14.155.231.155.425-.116.618l-1.625,1.199c-.271.193-.464.155-.657-.116-1.161-1.779-2.398-3.249-3.907-4.486l2.05-1.432ZM284.896,237.605c.232-.155.348-.116.581.077,1.431,1.083,2.824,2.63,3.675,3.984.154.231.193.464-.116.696l-1.547,1.198c-.31.232-.503.116-.658-.115-1.044-1.664-2.282-3.134-3.868-4.448l1.934-1.393Z"/><path class="cls-10" d="M290.77,252.42c.271-.271.464-.31.58-.31s.271.039.503.232c2.862,1.779,5.416,4.1,7.698,7.078.232.31.271.426.271.58,0,.193-.077.349-.387.619l-2.359,2.012c-.271.231-.426.348-.542.348-.193,0-.348-.077-.542-.387-2.05-2.979-4.68-5.608-7.311-7.388-.232-.155-.348-.271-.348-.387s.078-.232.271-.465l2.166-1.934Z"/><path class="cls-10" d="M317.188,261.935c-.387,0-.425-.039-.425-.426,0-.231.078-2.282.078-12.609v-7.156c0-7.195-.078-9.322-.078-9.593,0-.387.039-.425.425-.425.271,0,1.625.077,5.377.077h2.514c.619-1.238.967-2.243,1.431-3.636.193-.503.31-1.083.426-1.818,1.315.116,3.017.387,4.139.581.348.077.542.31.542.503,0,.232-.155.387-.31.542-.271.309-.464.58-.58.928-.387.928-.735,1.741-1.354,2.901h7.543c3.752,0,5.106-.077,5.376-.077.387,0,.426.039.426.425,0,.232-.078,2.398-.078,8.548v8.162c0,10.328.078,12.378.078,12.571,0,.387-.039.426-.426.426h-3.442c-.387,0-.425-.039-.425-.426v-1.74h-17.445v1.817c0,.387-.039.426-.425.426h-3.366ZM320.979,239.732h17.445v-4.216h-17.445v4.216ZM338.424,247.701v-4.333h-17.445v4.333h17.445ZM338.424,255.978v-4.642h-17.445v4.642h17.445Z"/><path class="cls-10" d="M371.235,227.509c.503-.232.581-.193.735.193,2.515,5.918,7.272,11.256,12.533,14.273-.696.619-1.586,1.779-2.243,2.901-.348.58-.503.852-.735.852-.193,0-.425-.193-.812-.503-1.315-.968-2.553-2.012-3.675-3.134-.077,1.122-.077,2.476-.116,3.83-.116,4.139-.387,7.233-.967,10.83-.503,3.056-1.973,4.758-5.764,4.758-.967,0-1.702,0-2.63-.077-1.199-.077-1.16-.077-1.431-1.354-.271-1.315-.657-2.36-1.199-3.095,1.934.271,3.056.348,4.41.348,1.625,0,2.282-.618,2.591-2.397.387-2.244.658-5.223.735-9.594h-6.885c-.735,7.736-4.603,13.229-11.759,16.401-.425.193-.696.31-.928.31-.31,0-.426-.271-.813-.929-.503-.929-1.238-1.779-1.973-2.32,7.04-2.554,10.444-6.653,11.179-13.462h-.464c-3.636,0-4.874.078-5.106.078-.387,0-.426-.039-.426-.426v-2.824c-1.199,1.161-2.437,2.205-3.752,3.211-.425.31-.658.503-.851.503-.271,0-.425-.271-.812-.851-.619-.968-1.509-1.935-2.167-2.36,5.222-3.365,8.974-7.93,11.179-12.764.348-.774.58-1.509.773-2.476,1.393.348,2.979.89,4.023,1.354.425.193.542.387.542.658,0,.232-.116.387-.31.58-.387.31-.619.658-.89,1.238-1.934,4.177-4.293,7.465-7.079,10.25.542.039,1.896.077,4.874.077h10.405c3.365,0,4.642-.038,5.029-.077-3.598-3.636-6.382-7.853-8.316-12.262-.155-.426-.078-.464.348-.658l2.746-1.083Z"/><path class="cls-10" d="M386.28,235.361c0-.387.039-.425.387-.425.232,0,1.199.077,3.984.077.31-1.432.58-2.863.812-4.371.155-.967.271-2.321.271-3.636,1.315.078,2.669.232,3.907.542.387.116.619.232.619.464s-.116.464-.348.812c-.271.387-.426.851-.581,1.818-.271,1.508-.502,2.979-.773,4.371h1.934c3.056,0,4.1-.077,4.332-.077.387,0,.503.077.465.502-.116,1.122-.194,2.128-.232,2.863-.387,4.757-1.354,8.857-3.017,12.455,1.315.928,2.63,1.973,3.868,3.095.271.193.232.348-.038.773l-1.547,2.514c-.155.232-.271.31-.387.31-.077,0-.154-.038-.309-.193-1.083-1.122-2.244-2.166-3.443-3.133-1.779,2.63-4.023,4.874-6.808,6.73-.464.31-.735.464-.929.464-.271,0-.425-.271-.812-.851-.542-.852-1.161-1.548-1.818-2.089,3.056-1.779,5.454-3.907,7.233-6.537-.967-.658-1.973-1.276-2.901-1.818l-.503,1.16c-.232.503-.31.542-.928.271l-1.973-.89c-.426-.193-.619-.232-.619-.426,0-.116.078-.271.232-.58,1.354-3.249,2.553-7.001,3.559-11.102-2.205.039-3.056.077-3.25.077-.348,0-.387-.038-.387-.426v-2.746ZM393.785,238.456c-.658,2.901-1.431,5.608-2.321,8.123,1.122.619,2.244,1.276,3.404,2.012,1.276-2.824,2.089-6.15,2.398-10.135h-3.481ZM406.82,246.424c-3.559,0-4.797.077-4.99.077-.426,0-.464-.039-.464-.387v-3.057c0-.387.038-.425.464-.425.193,0,1.432.077,4.99.077h2.591c0-1.896-.038-3.249-.309-5.028l1.431.077c1.779-1.779,3.018-3.172,4.294-4.99h-7.04c-3.365,0-4.487.078-4.719.078-.388,0-.426-.039-.426-.465v-2.939c0-.425.038-.464.426-.464.231,0,1.354.078,4.719.078h8.742c.348,0,.58-.039.696-.116.154-.077.309-.155.502-.155.31,0,.696.116,1.625,1.006,1.006.967,1.238,1.354,1.238,1.702,0,.271-.116.502-.387.657-.349.232-.658.542-1.432,1.625-1.393,1.818-3.095,3.868-5.261,5.996-.077.464-.077,1.083-.077,2.243v.696h2.785c3.597,0,4.796-.077,5.028-.077.387,0,.426.038.426.425v3.057c0,.348-.039.387-.426.387-.232,0-1.432-.077-5.028-.077h-2.785v4.216c0,2.823.077,4.409.077,5.802,0,2.282-.426,3.288-1.354,4.062-.929.774-2.166,1.006-5.841,1.006q-1.199.039-1.432-1.16c-.31-1.199-.773-2.282-1.276-2.939,1.509.154,2.669.231,4.255.231,1.045,0,1.547-.58,1.547-1.779v-9.438h-2.591Z"/><path class="cls-10" d="M448.822,239.732c.077-.851.077-1.586-.039-2.63,2.012.503,3.559,1.083,4.487,1.663.349.193.542.696.271,1.044-.231.503-.503.929-.618,1.509-.31,1.625-.696,3.326-1.084,4.99,2.205,1.121,4.604,2.63,6.035,3.713.387.232.348.426.231.812-.387.929-1.199,2.553-1.663,3.326-.116.193-.232.271-.348.271-.155,0-.31-.116-.465-.271-1.702-1.47-3.249-2.591-5.067-3.636-1.973,4.448-4.062,7.272-7.813,10.173-.348.271-.541.426-.773.426-.154,0-.31-.077-.58-.271-1.045-.852-2.012-1.238-3.365-1.586,4.835-3.365,7.194-6.576,8.664-10.482-2.127-1.083-4.873-1.935-7.658-2.359-2.051,4.255-3.172,6.188-4.72,7.735-1.431,1.509-2.978,2.128-4.951,2.128-2.243,0-4.603-1.547-4.603-5.3,0-4.796,4.951-8.548,11.411-8.548,1.276-3.211,2.243-5.918,3.21-9.168-2.127.232-4.062.465-5.338.619-.541.077-1.121.193-1.74.426-.193.077-.465.154-.696.154-.31,0-.503-.154-.619-.425-.348-.774-.735-2.283-1.122-4.217,1.161.232,2.244.271,3.404.232,1.856,0,3.791-.194,5.995-.503.968-.155,1.393-.348,1.896-.658.155-.116.349-.155.503-.155.193,0,.387.039.542.155.967.58,1.896,1.354,2.63,2.127.232.232.349.425.349.658s-.155.425-.387.658c-.581.541-.735,1.276-1.045,2.011-1.006,2.631-2.089,5.647-3.249,8.433,2.437.31,4.719.89,7.504,1.935.387-1.779.658-3.249.812-4.99ZM428.398,250.524c0,1.238.426,1.779,1.354,1.779.734,0,1.47-.503,2.243-1.47.89-1.122,1.818-2.669,2.823-4.719-3.945.154-6.421,2.204-6.421,4.409Z"/><path class="cls-10" d="M480.775,235.438c-.89,6.576-2.515,12.61-4.835,16.672-1.664,2.901-3.675,4.448-6.576,4.448-3.404,0-6.847-3.636-6.847-9.94,0-3.714,1.586-7.272,4.371-10.058,3.249-3.249,7.35-4.951,12.571-4.951,9.283,0,14.737,5.725,14.737,13.423,0,7.194-4.062,11.72-11.914,14.079-.812.232-1.16.078-1.663-.696-.425-.657-1.237-1.547-2.707-2.437,6.537-1.547,11.682-4.255,11.682-11.565,0-4.604-3.481-8.975-8.665-8.975h-.154ZM469.674,239.191c-1.856,2.088-3.018,4.68-3.018,7.155,0,3.559,1.432,5.531,2.631,5.531,1.006,0,1.856-.502,2.9-2.359,1.702-3.133,3.443-8.703,4.101-13.848-2.708.542-4.874,1.625-6.614,3.521Z"/><path class="cls-10" d="M503.785,249.325c-3.404,0-4.604.077-4.835.077-.387,0-.426-.038-.426-.425v-3.172c0-.387.039-.426.426-.426.231,0,1.431.077,4.835.077h9.709v-12.919h-7.62c-3.675,0-4.951.077-5.184.077-.387,0-.426-.039-.426-.464v-3.094c0-.426.039-.464.426-.464.232,0,1.509.078,5.184.078h19.959c3.675,0,4.951-.078,5.184-.078.387,0,.425.039.425.464v3.094c0,.425-.038.464-.425.464-.232,0-1.509-.077-5.184-.077h-8.123v12.919h10.019c3.442,0,4.603-.077,4.874-.077.387,0,.425.039.425.426v3.172c0,.387-.038.425-.425.425-.271,0-1.432-.077-4.874-.077h-10.019v8.355c0,2.592.039,3.829.039,4.062,0,.387-.039.426-.387.426h-3.521c-.387,0-.425-.039-.425-.426,0-.271.077-1.47.077-4.062v-8.355h-9.709ZM505.294,233.968c.425-.231.502-.154.734.193,1.625,2.321,3.172,5.261,4.217,8.085.115.348.115.425-.31.657l-2.631,1.16c-.503.232-.58.232-.734-.193-1.006-2.823-2.205-5.338-3.946-8.084-.231-.31-.154-.349.349-.619l2.321-1.199ZM524.557,235.941c.31-.618.58-1.393.735-2.166,1.198.387,2.514.967,3.52,1.548.349.193.464.348.464.541s-.077.349-.348.58c-.31.232-.619.658-.89,1.238-1.045,2.05-2.205,3.984-3.559,5.918-.387.542-.542.773-.812.773-.193,0-.464-.154-.929-.464-.812-.503-1.431-.89-2.282-1.16,1.702-2.205,2.979-4.41,4.101-6.809Z"/><path class="cls-10" d="M563.231,248.204c-5.415.425-11.179.773-16.71,1.005-.735.039-.967.078-1.238.193-.193.078-.387.155-.58.155-.231,0-.425-.155-.503-.503-.193-.89-.387-2.05-.541-3.172,1.431.039,2.746.077,4.1.077.812-1.16,1.432-2.32,1.935-3.403h-7.156c-.116,2.862-.387,5.879-.812,8.354-.657,3.636-1.508,6.77-3.326,9.786-.31.465-.426.696-.619.696-.154,0-.348-.193-.734-.618-.812-.929-1.818-1.779-2.554-2.244,1.974-2.823,2.785-5.608,3.365-9.013.542-3.21.852-7.194.852-12.803,0-5.455-.077-7.892-.077-8.124,0-.425.038-.464.387-.464.231,0,1.586.077,5.338.077h18.063c3.753,0,5.106-.077,5.339-.077.387,0,.425.039.425.464,0,.232-.077.89-.077,2.669v2.979c0,1.74.077,2.397.077,2.63,0,.387-.038.426-.425.426-.232,0-1.586-.078-5.339-.078h-19.805v2.167h20.772c3.79,0,5.105-.078,5.338-.078.425,0,.464.039.464.426v2.476c0,.387-.039.426-.464.426-.232,0-1.548-.077-5.338-.077h-1.199c2.089,1.74,3.675,3.403,5.57,5.531.271.348.231.425-.232.734l-1.973,1.354c-.271.193-.387.271-.503.271s-.193-.077-.31-.271l-1.509-1.973ZM546.599,261.123c-3.752,0-5.028.077-5.261.077-.387,0-.425-.038-.425-.464v-2.476c0-.387.038-.426.425-.426.232,0,1.509.077,5.261.077h6.421v-2.63h-3.172c-3.675,0-4.989.077-5.222.077-.387,0-.426-.038-.426-.425v-2.321c0-.426.039-.464.426-.464.232,0,1.547.077,5.222.077h3.172v-.077c0-1.238-.038-2.012-.193-2.824,1.199.039,2.398.116,3.637.232.464.038.773.232.773.426,0,.271-.077.425-.232.773-.116.31-.193.734-.193,1.354v.116h4.487c3.713,0,4.951-.077,5.183-.077.426,0,.465.038.465.464v2.321c0,.387-.039.425-.465.425-.231,0-1.47-.077-5.183-.077h-4.487v2.63h7.35c3.752,0,5.067-.077,5.261-.077.387,0,.425.039.425.426v2.476c0,.426-.038.464-.425.464-.193,0-1.509-.077-5.261-.077h-17.562ZM564.121,231.377h-21.507v2.747h21.507v-2.747ZM559.363,244.103c-.31-.271-.348-.349.116-.619l1.779-.928h-7.543c-.618,1.237-1.237,2.32-1.934,3.326,2.823-.116,5.879-.232,8.936-.464l-1.354-1.315Z"/><path class="cls-10" d="M584.361,232.654c.193-1.161.387-2.669.387-4.294,2.012.425,3.095.696,4.642,1.276.387.116.619.426.619.773,0,.194-.077.387-.271.581-.388.503-.581.928-.774,1.47-.503,1.586-.89,3.017-1.393,4.642,1.045-.116,2.205-.155,3.095-.155,3.598,0,5.531,2.515,5.531,7.466,0,4.178-.773,9.322-2.089,12.107-1.121,2.476-2.978,3.636-5.222,3.636-1.856,0-3.172-.193-4.022-.58-.465-.193-.696-.503-.696-1.083-.116-1.238-.193-2.321-.735-3.598,1.741.812,3.249,1.006,4.448,1.006,1.276,0,1.857-.464,2.476-2.05.812-2.167,1.509-5.842,1.509-9.632,0-2.708-.503-3.559-2.205-3.559-.928,0-2.127.116-3.249.271-2.553,7.427-4.758,12.765-7.774,18.18-.232.503-.542.581-1.006.349-.696-.349-2.205-1.276-2.669-1.702-.193-.193-.31-.348-.31-.58,0-.116.039-.271.154-.426,3.095-5.376,5.106-9.477,7.079-15.163-1.509.232-2.746.465-3.791.658-1.006.193-1.624.425-2.127.618-.542.193-1.006.116-1.238-.502-.348-.89-.773-2.282-1.199-3.984,1.702,0,3.404-.116,5.106-.271,1.624-.154,3.056-.348,4.564-.58.618-2.204.89-3.559,1.16-4.873ZM599.679,235.245c.271-.154.465-.077.735.193,2.63,2.476,4.989,5.687,6.421,9.4.154.348.116.541-.154.773-.658.618-2.128,1.547-2.901,1.934-.387.193-.773.155-.89-.31-1.548-4.062-3.559-7.388-6.344-10.019.967-.657,2.089-1.431,3.133-1.973ZM600.724,229.83c.193-.155.348-.116.58.078,1.199.928,2.592,2.475,3.675,4.139.154.231.154.425-.116.618l-1.625,1.199c-.271.193-.464.155-.657-.116-1.16-1.779-2.398-3.249-3.907-4.487l2.051-1.431ZM604.166,227.316c.232-.155.348-.116.58.077,1.432,1.083,2.824,2.63,3.675,3.984.154.232.193.464-.116.696l-1.547,1.199c-.31.232-.503.116-.658-.116-1.044-1.663-2.282-3.133-3.868-4.448l1.935-1.393Z"/><path class="cls-10" d="M615.804,250.486c-3.442,0-4.642.077-4.874.077-.387,0-.425-.039-.425-.426v-3.095c0-.387.038-.425.425-.425.232,0,1.432.077,4.874.077h9.825v-4.642h-6.421c-3.791,0-5.067.077-5.3.077-.387,0-.425-.039-.425-.464v-3.095c0-.349.038-.387.425-.387.232,0,1.509.077,5.3.077h6.421v-4.604c-3.249.388-6.498.658-9.902.89q-1.237.039-1.586-1.121c-.31-1.006-.735-1.934-1.16-2.63,4.951-.155,8.78-.426,12.958-1.006,3.675-.503,6.344-1.044,8.433-1.586,1.354-.348,2.437-.773,3.442-1.199,1.044.928,2.05,1.973,2.746,2.862.232.271.349.426.349.735,0,.193-.232.387-.658.387-.503.039-.967.077-1.817.309-2.708.735-5.531,1.315-8.626,1.779v5.184h6.575c3.753,0,5.029-.077,5.261-.077.387,0,.426.038.426.387v3.095c0,.425-.039.464-.426.464-.231,0-1.508-.077-5.261-.077h-6.575v4.642h9.632c3.442,0,4.642-.077,4.873-.077.387,0,.426.038.426.425v3.095c0,.387-.039.426-.426.426-.231,0-1.431-.077-4.873-.077h-9.632v1.276c0,1.817.116,3.597.116,5.26,0,1.741-.271,2.592-1.238,3.404-.89.696-2.669.967-6.614.967-1.16.039-1.238.039-1.47-1.199-.232-1.16-.58-2.282-1.045-3.056,1.779.232,3.211.232,4.448.232,1.315,0,1.625-.464,1.625-1.432v-5.453h-9.825Z"/><path class="cls-10" d="M656.084,231.106c.658.348.89.581.89.929,0,.271-.077.387-.58,1.16-.387.696-.58,1.238-.928,2.746-1.083,4.797-1.625,9.555-1.625,12.494,0,1.896.077,3.172.232,4.525.812-1.779,1.508-3.056,2.63-5.763.31.967.812,1.586,1.354,2.437.116.193.271.426.271.58,0,.271-.078.426-.193.619-.89,2.012-1.625,3.675-2.205,5.841-.077.232-.116.657-.116,1.199,0,.464.077.773.077,1.083,0,.271-.154.426-.503.503-.967.271-2.05.503-3.172.619-.271.038-.425-.155-.503-.426-1.083-2.708-1.779-7.62-1.779-11.527,0-3.481.426-7.697,1.315-12.688.503-2.862.696-4.139.696-5.763,1.741.426,2.979.812,4.139,1.431ZM664.362,249.325c.31-.038.387.155.387.58.231,2.669,2.089,3.637,6.305,3.637,2.901,0,4.797-.193,7.389-.503.387-.039.464,0,.541.503.116.812.232,2.32.232,3.326,0,.464,0,.503-.658.58-2.63.31-4.486.426-6.305.426-5.725,0-8.394-.929-10.057-3.211-.968-1.237-1.354-3.21-1.354-5.028l3.521-.31ZM662.196,234.858c.038-.464.154-.58.541-.657,2.282-.426,6.614-.696,8.394-.696,2.321,0,4.101.077,5.726.232.812.038.89.115.89.503,0,1.16,0,2.204-.078,3.287-.038.349-.154.503-.503.465-2.32-.155-4.332-.232-6.305-.232-2.592,0-5.105.232-8.78.89.038-2.166.038-3.133.116-3.791Z"/><path class="cls-10" d="M699.486,228.979c2.785,0,3.637-.077,3.868-.077.349,0,.503.077.503.464-.077,1.392,0,2.437.232,4.293,1.199,10.444,5.957,18.412,15.047,23.905-.696.657-1.586,1.625-2.282,2.939-.31.619-.464.89-.696.89-.193,0-.464-.193-.89-.503-7.04-5.183-11.333-11.488-13.268-19.186-2.089,7.93-7.233,14.931-14.234,19.264-.465.271-.696.464-.89.464-.271,0-.426-.31-.812-.929-.619-1.044-1.509-1.973-2.282-2.553,9.593-4.719,15.047-13.964,15.55-25.026h-4.797c-2.784,0-3.636.077-3.868.077-.425,0-.464-.039-.464-.426v-3.249c0-.387.039-.425.464-.425.232,0,1.084.077,3.868.077h4.951Z"/><path class="cls-10" d="M732.441,242.943c2.166-1.238,3.984-1.741,6.15-1.741,5.647,0,9.593,3.714,9.593,9.284,0,6.459-5.222,10.598-13.5,10.598-4.874,0-7.813-2.088-7.813-5.686,0-2.592,2.438-4.719,5.454-4.719,3.636,0,6.305,1.934,7.272,5.647,2.707-1.238,3.945-2.94,3.945-5.88,0-3.521-2.476-5.841-6.073-5.841-3.21,0-6.77,1.431-9.902,4.1-1.122,1.006-2.205,2.128-3.365,3.288-.271.271-.464.426-.657.426-.155,0-.349-.116-.58-.349-.812-.695-1.664-1.701-2.282-2.514-.232-.31-.116-.58.193-.89,3.017-2.438,5.686-4.913,9.167-8.549,2.398-2.476,4.217-4.409,5.996-6.614-2.321.426-5.067.967-7.466,1.47-.503.116-1.006.232-1.625.464-.193.078-.58.194-.773.194-.387,0-.657-.194-.851-.658-.465-.89-.812-1.973-1.354-4.177,1.161.155,2.438.155,3.598.077,2.359-.232,5.764-.735,8.78-1.315.968-.193,1.741-.387,2.128-.581.193-.116.541-.309.735-.309.387,0,.618.116.89.309,1.16.89,1.934,1.664,2.591,2.476.31.348.426.619.426.928,0,.387-.232.735-.657.929-.658.31-.967.58-1.702,1.237-2.824,2.747-5.415,5.454-8.355,8.278l.039.116ZM732.481,253.966c-1.122,0-1.857.658-1.857,1.471,0,1.198,1.045,2.011,3.365,2.011.696,0,1.199-.038,1.779-.154-.503-2.128-1.663-3.327-3.287-3.327Z"/><path class="cls-10" d="M764.917,251.53h-3.906l-1.083-23.015h6.034l-1.045,23.015ZM765.652,255.282v5.222h-5.493v-5.222h5.493Z"/><path class="cls-3" d="M138.264,190.289c.252.063.379.168.379.336,0,.295-.147.589-.147.884,0,.421.063.926.105,1.41.189,1.473.399,2.525.673,3.619,1.052-.568,1.81-.968,2.988-1.6.61-.357,1.115-.715,1.452-1.136.673.695,1.221,1.431,1.536,1.978.084.126.147.295.147.442,0,.21-.126.379-.421.421-.631.105-1.347.358-2.02.631-1.81.736-3.493,1.515-4.945,2.462-1.831,1.199-2.483,2.188-2.483,3.177,0,1.242.926,1.768,3.346,1.768,2.651,0,4.797-.189,6.417-.484.231-.042.337,0,.379.252.105.568.168,1.326.21,1.957.021.231-.126.336-.379.357-1.915.252-3.598.316-6.271.316-3.977,0-6.081-1.305-6.081-4.04,0-2.336,1.536-3.872,3.998-5.429-.505-1.62-.884-3.514-1.094-5.134-.147-1.115-.294-1.852-.547-2.441,1.01,0,1.978.063,2.756.252Z"/><rect class="cls-8" x="39" y="165" width="88" height="46"/><path class="cls-11" d="M57.852,185.61c.135-.168.202-.236.303-.236s.202.067.336.202c1.042.908,1.984,1.782,2.959,2.892,1.009-2.186,1.782-4.607,2.32-7.298h-4.775c-1.446,3.094-3.33,5.852-5.717,8.441-.303.336-.504.504-.672.504s-.336-.202-.572-.673c-.437-.807-1.009-1.479-1.682-2.051,3.531-3.531,5.65-7.163,7.062-11.905.303-1.042.403-1.782.437-2.657,1.379.235,2.321.404,3.431.74.336.101.504.269.504.471,0,.27-.101.438-.236.572-.269.269-.403.807-.672,1.715-.202.605-.37,1.177-.572,1.715h3.464c.538,0,.773-.067,1.009-.202.202-.101.27-.134.471-.134.235,0,.605.101,1.479.908.807.706.976.975.976,1.177s-.135.336-.336.572l-.202.336c1.009,1.648,2.152,3.06,3.363,4.305v-7.13c0-2.388-.034-3.564-.269-5.112,1.245.034,2.556.101,3.699.269.303.034.504.135.504.336,0,.235-.101.471-.168.672-.168.438-.235,1.278-.235,3.733v10.19c2.32,1.614,4.944,2.858,7.903,4.036-.505.639-1.11,1.648-1.48,2.657-.235.605-.336.841-.605.841-.168,0-.403-.101-.773-.269-1.85-.875-3.498-1.783-5.044-2.825v4.843c0,3.767.067,5.684.067,5.852,0,.336-.034.37-.37.37h-2.926c-.336,0-.37-.034-.37-.37,0-.202.067-2.085.067-5.852v-7.634c-1.547-1.446-2.926-3.061-4.204-4.978-2.018,7.802-6.087,13.284-12.208,17.689-.403.303-.639.471-.807.471-.202,0-.37-.236-.74-.673-.538-.706-1.211-1.278-1.951-1.782,3.834-2.287,6.928-5.179,9.181-8.811-1.21-1.413-2.186-2.388-3.33-3.431-.134-.134-.202-.202-.202-.303s.067-.235.202-.403l1.379-1.782Z"/><path class="cls-11" d="M88.564,183.054c-2.926,0-3.901.067-4.103.067-.302,0-.336-.034-.336-.37v-2.085c0-.336.034-.37.336-.37.202,0,1.177.067,4.103.067h1.715c.269-.773.538-1.614.74-2.489h-2.22c-.336.538-.773,1.144-1.278,1.783-.303.37-.471.538-.672.538-.168,0-.37-.135-.74-.404-.605-.403-1.278-.74-1.782-.975,1.446-1.48,2.287-2.758,3.127-4.305.269-.572.572-1.312.74-2.085,1.009.202,1.85.37,2.657.572.303.067.504.202.504.471,0,.202-.135.336-.37.571-.202.202-.336.471-.706,1.245h3.935c2.926,0,3.868-.067,4.069-.067.336,0,.37.034.37.37v1.951c0,.37-.034.403-.37.403-.202,0-1.144-.067-4.069-.067h-.067c-.202.875-.437,1.715-.706,2.489h1.547c2.892,0,3.868-.067,4.069-.067.336,0,.37.034.37.37v2.085c0,.336-.034.37-.37.37-.202,0-1.177-.067-4.069-.067h-2.623c-.504,1.009-1.042,1.951-1.715,2.858h2.287c.168-.302.269-.572.37-.807.202-.471.336-.941.437-1.614.841.135,2.119.303,2.69.471.336.101.471.202.471.336,0,.168-.101.303-.235.404-.235.202-.336.336-.437.572l-.303.639c1.95,0,2.556-.067,2.758-.067.336,0,.37.033.37.37v1.749c0,.37-.034.403-.37.403-.202,0-.808-.067-2.893-.067h-.437v1.95c1.883,0,2.623-.067,2.792-.067.336,0,.37.034.37.37v1.682c0,.336-.034.37-.37.37-.168,0-.908-.034-2.792-.067v1.95c1.883,0,2.623-.067,2.792-.067.336,0,.37.034.37.37v1.648c0,.336-.034.37-.37.37-.168,0-.908-.034-2.792-.067v2.018c1.951,0,2.657-.067,2.858-.067.336,0,.37.034.37.403v1.076c2.792-1.513,3.834-3.767,4.103-7.23-1.245.034-1.783.034-1.951.034-.336,0-.37,0-.37-.37,0-.202.067-1.446.067-4.17v-9.988c0-2.69-.067-3.968-.067-4.17,0-.336.034-.37.37-.37.235,0,1.076.067,3.733.067h4.843c2.623,0,3.531-.067,3.733-.067.37,0,.404.034.404.37,0,.202-.067,1.479-.067,4.17v9.988c0,2.724.067,3.968.067,4.17,0,.37-.034.37-.404.37-.168,0-.941-.034-2.657-.034v6.02c0,.605-.034.74.101.875.168.168.37.168.807.168.571,0,.908-.067,1.076-.303.303-.336.336-1.312.403-3.565.706.538,1.547.908,2.152,1.11.639.202.639.269.605,1.009-.168,2.489-.572,3.531-1.211,4.103-.706.605-1.917.673-3.363.673-1.211,0-2.119-.034-2.825-.404-.572-.336-.874-1.11-.874-2.22v-7.466h-1.379c-.404,4.809-1.783,7.668-5.516,10.056-.437.269-.672.403-.908.403s-.404-.202-.707-.672c-.504-.74-.908-1.211-1.345-1.547-.572,0-1.513-.034-2.993-.034h-4.742v1.614c0,.303-.034.336-.37.336h-2.32c-.336,0-.37-.033-.37-.336,0-.202.067-.841.067-3.027v-9.417l-1.244,1.076c-.336.269-.538.437-.707.437s-.269-.235-.403-.74c-.269-.875-.639-1.581-.976-2.051,2.556-1.682,4.439-3.599,5.751-5.986h-.538ZM92.532,190.251v-1.95h-2.858v1.95h2.858ZM92.532,194.488v-1.95h-2.858v1.95h2.858ZM92.532,198.759v-2.018h-2.858v2.018h2.858ZM103.63,176.866v2.522h6.524v-2.522h-6.524ZM110.154,184.668v-2.589h-6.524v2.589h6.524ZM110.154,187.358h-6.524v2.758h6.524v-2.758Z"/><rect class="cls-7" x="151" y="165" width="160" height="46"/><path class="cls-11" d="M175.832,194.522c0,2.321.034,4.305.101,6.995.034.438-.135.572-.504.572-1.076.067-2.287.067-3.363,0-.37,0-.504-.134-.471-.538.034-2.421.135-4.607.135-6.894v-7.836c-2.96,2.489-6.558,5.044-9.249,6.457-.168.101-.336.134-.504.134-.269,0-.471-.101-.707-.336-.773-.773-1.883-1.446-2.892-1.984,4.641-2.388,7.5-4.338,10.594-6.894,2.657-2.186,5.078-4.54,7.163-7.029,1.144-1.345,1.581-2.018,2.119-3.464,1.514.841,2.993,1.749,3.733,2.354.202.134.269.336.269.504,0,.269-.202.572-.471.74-.572.37-1.11.875-2.018,1.85-1.312,1.581-2.556,2.892-3.935,4.237v11.131Z"/><path class="cls-11" d="M190.098,177.236c.135-.168.303-.269.471-.269.134,0,.269.067.437.168,1.715.908,4.506,2.959,6.423,4.775.202.202.303.336.303.471s-.067.269-.202.437c-.504.672-1.614,2.018-2.085,2.522-.168.168-.269.27-.404.27s-.269-.101-.437-.27c-2.018-2.085-4.439-4.002-6.861-5.481.74-.908,1.715-1.951,2.354-2.623ZM193.024,194.959c4.103-2.119,6.289-3.531,9.686-6.255,4.103-3.33,6.356-5.482,9.214-9.147.202,1.682.505,2.825.942,3.935.101.235.168.438.168.639,0,.303-.168.572-.538,1.009-1.782,2.085-4.674,4.776-7.735,7.13-2.792,2.186-5.616,4.069-10.156,6.591-1.514.908-1.951,1.245-2.253,1.547-.202.202-.403.336-.605.336-.168,0-.37-.134-.572-.37-.84-.942-1.883-2.321-2.69-3.733,1.715-.471,2.758-.773,4.541-1.681Z"/><path class="cls-11" d="M233.387,187.056c-.202,3.767-.672,6.02-1.984,8.576-1.345,2.623-3.767,5.078-5.919,6.356-.37.235-.707.403-1.009.403-.236,0-.471-.101-.707-.336-.672-.672-1.816-1.345-2.993-1.782,3.296-1.782,5.28-3.43,6.692-5.986,1.245-2.219,1.581-4.036,1.715-7.23h-6.39c-1.682,0-3.33.101-5.045.202-.302.034-.403-.202-.437-.639-.168-.942-.269-2.22-.269-3.229,1.883.168,3.767.168,5.717.168h15.1c2.623,0,4.574-.067,6.558-.202.336,0,.37.202.37.672.034.438.034,2.152,0,2.59,0,.437-.202.572-.504.572-1.749-.067-4.069-.135-6.39-.135h-4.507ZM226.729,179.253c-1.547,0-2.892.067-4.775.135-.438,0-.538-.168-.572-.572-.101-.807-.134-2.018-.235-3.229,2.354.134,4.069.168,5.583.168h7.533c1.883,0,4.002-.034,5.684-.134.336,0,.403.202.403.639.067.807.067,1.648,0,2.455,0,.471-.067.639-.437.639-1.816-.067-3.8-.101-5.65-.101h-7.533Z"/><path class="cls-11" d="M251.79,179.758c0-2.32-.101-3.598-.37-4.91,1.413.168,3.195.37,4.17.706.403.101.572.303.572.538,0,.168-.067.336-.135.504-.303.639-.37,1.48-.37,3.195v6.793c0,1.749.067,3.06.101,4.237,0,.504-.202.673-.74.673h-2.69c-.471,0-.673-.168-.639-.572,0-1.177.101-3.128.101-4.574v-6.592ZM267.63,186.047c0,4.977-.74,8.307-2.724,10.963-1.648,2.186-4.574,4.237-7.398,5.28-.269.101-.504.168-.707.168-.269,0-.504-.101-.807-.404-.807-.807-1.681-1.446-2.858-2.051,3.599-1.11,6.423-2.69,8.206-4.91,1.547-1.917,2.253-4.708,2.253-8.979v-6.356c0-2.892-.067-3.968-.37-5.481,1.614.134,3.229.37,4.372.74.336.101.471.303.471.572,0,.168-.034.37-.135.538-.303.706-.303,1.581-.303,3.666v6.255Z"/><path class="cls-11" d="M281.93,180.195c-1.917,0-3.969.134-5.953.269-.404.033-.538-.202-.605-.505-.269-.941-.471-2.623-.605-3.632,2.287.168,4.137.235,6.827.235h14.427c1.413,0,1.984-.067,2.321-.202.168-.067.471-.235.639-.235.269,0,.538.202.774.471.74.639,1.378,1.345,2.018,2.119.168.202.269.404.269.605,0,.269-.168.504-.471.706-.37.269-.639.605-.908.976-1.581,2.388-3.666,4.708-5.919,6.49-.202.202-.437.303-.706.303s-.572-.134-.807-.336c-.841-.673-1.682-1.043-2.792-1.379,2.69-2.018,4.338-3.464,6.02-5.885h-14.528ZM283.813,193.311c1.278-2.388,1.648-4.675,1.648-7.937,0-1.244-.067-2.018-.336-3.161,1.648.168,3.396.404,4.338.639.437.101.572.336.572.639,0,.202-.067.404-.168.605-.235.471-.269.807-.303,1.379-.101,3.262-.437,6.255-1.984,9.249-1.312,2.522-3.33,4.91-6.121,6.692-.303.202-.605.336-.942.336-.235,0-.471-.101-.672-.303-.808-.707-1.783-1.245-3.061-1.715,3.666-1.917,5.583-3.733,7.029-6.423Z"/><path class="cls-9" d="M326.16,193.543c-1.535.123-3.101.246-5.158.246-.522,0-.675-.185-.737-.645-.092-.583-.215-1.596-.338-2.671.798.123,1.597.153,2.395.153,1.29,0,2.61-.123,3.899-.245,0-1.013.03-2.18.03-3.5,0-.798-.03-1.688-.215-2.487,1.535.092,2.825.307,3.653.553.369.092.614.307.614.583,0,.123-.062.276-.184.491-.215.399-.369.798-.43,1.197-.092.798-.123,1.566-.153,2.548,1.351-.276,2.609-.675,3.93-1.136.276-.092.491-.031.522.276.123.767.184,1.596.184,2.395,0,.307-.092.399-.399.491-2.026.645-2.548.798-4.39,1.167-.031,1.474-.031,2.978-.062,4.452,2.886-1.228,5.587-1.719,7.552-1.688,3.807.031,6.54,2.456,6.54,6.14,0,3.93-2.518,6.232-6.662,6.232-.891,0-1.873-.123-2.518-.276-.491-.123-.675-.43-.675-.921-.062-.675-.276-1.719-.921-2.609,1.474.491,2.702.553,3.838.553,1.719,0,3.315-.982,3.315-3.162,0-1.996-1.228-3.101-3.377-3.101-1.75,0-3.868.46-7.03,2.088.031,1.289.062,2.333.123,3.684.092,1.351.246,3.285.246,3.991,0,.43.062.891-.46,1.013-.675.185-1.658.338-2.272.369-.337.031-.46-.215-.737-.614-.829-1.136-2.425-2.609-4.359-3.93-.337.184-.706.43-.982.675-.153.154-.368.215-.522.215-.246,0-.491-.185-.675-.491-.338-.553-.952-1.842-1.412-2.855.798-.184,1.811-.522,2.824-1.074,1.32-.737,2.763-1.566,5.004-2.855v-5.25ZM323.305,204.104c.86.46,1.904.982,2.886,1.381.246.062.337.031.307-.246-.062-.798-.123-2.21-.185-3.224-.859.583-1.903,1.29-3.009,2.088ZM337.98,187.985c.215-.337.307-.43.522-.368,2.824.829,4.912,2.118,6.508,3.746.123.123.184.215.184.307,0,.092-.061.185-.123.307-.399.614-1.197,1.566-1.658,2.18-.092.123-.522.154-.614,0-1.627-1.811-3.776-2.947-6.232-3.776.399-.829.891-1.627,1.413-2.395Z"/><path class="cls-9" d="M348.576,189.551c0-.307.031-.338.307-.338.185,0,.952.062,3.163.062.245-1.136.46-2.272.645-3.469.123-.768.215-1.842.215-2.886,1.044.062,2.118.184,3.101.43.307.092.491.184.491.369s-.092.368-.276.645c-.215.307-.337.675-.46,1.443-.215,1.197-.399,2.364-.614,3.469h1.535c2.425,0,3.254-.062,3.438-.062.307,0,.399.062.368.399-.092.89-.153,1.688-.184,2.271-.307,3.776-1.075,7.031-2.395,9.886,1.043.737,2.087,1.566,3.07,2.456.215.153.184.276-.031.614l-1.228,1.995c-.123.185-.215.246-.307.246-.062,0-.123-.031-.246-.154-.859-.89-1.78-1.719-2.732-2.487-1.413,2.088-3.193,3.868-5.403,5.342-.369.246-.583.369-.737.369-.215,0-.338-.215-.645-.675-.43-.676-.921-1.228-1.443-1.658,2.425-1.412,4.329-3.101,5.741-5.188-.768-.522-1.566-1.013-2.303-1.443l-.399.921c-.184.399-.246.43-.737.215l-1.566-.706c-.337-.154-.491-.185-.491-.338,0-.092.062-.215.184-.46,1.075-2.579,2.026-5.557,2.825-8.811-1.75.031-2.425.062-2.579.062-.276,0-.307-.031-.307-.338v-2.18ZM354.531,192.007c-.521,2.303-1.136,4.452-1.842,6.447.89.491,1.781,1.013,2.702,1.596,1.013-2.241,1.658-4.881,1.903-8.043h-2.763ZM364.877,198.332c-2.824,0-3.807.062-3.96.062-.337,0-.368-.031-.368-.307v-2.425c0-.307.031-.338.368-.338.154,0,1.136.062,3.96.062h2.057c0-1.504-.031-2.579-.246-3.991l1.136.062c1.413-1.412,2.395-2.518,3.408-3.96h-5.587c-2.671,0-3.561.062-3.746.062-.307,0-.337-.031-.337-.369v-2.333c0-.338.031-.368.337-.368.185,0,1.075.061,3.746.061h6.938c.276,0,.46-.031.553-.092.123-.062.246-.123.399-.123.246,0,.553.092,1.29.798.798.768.982,1.074.982,1.351,0,.215-.092.399-.307.522-.276.184-.522.43-1.136,1.29-1.105,1.443-2.456,3.07-4.175,4.759-.062.368-.062.859-.062,1.78v.553h2.21c2.855,0,3.807-.062,3.991-.062.307,0,.337.031.337.338v2.425c0,.276-.031.307-.337.307-.185,0-1.136-.062-3.991-.062h-2.21v3.347c0,2.241.062,3.5.062,4.605,0,1.811-.338,2.609-1.075,3.224-.737.614-1.719.798-4.636.798q-.952.031-1.136-.921c-.246-.952-.614-1.811-1.013-2.333,1.197.123,2.118.184,3.377.184.829,0,1.228-.46,1.228-1.412v-7.491h-2.057Z"/><path class="cls-9" d="M399.327,193.021c.061-.675.061-1.259-.031-2.088,1.596.399,2.825.86,3.561,1.32.276.153.43.553.215.829-.184.399-.399.737-.491,1.198-.245,1.289-.553,2.64-.859,3.96,1.75.89,3.653,2.087,4.789,2.947.308.184.276.337.185.645-.308.737-.952,2.026-1.32,2.64-.092.154-.185.215-.276.215-.123,0-.245-.092-.368-.215-1.351-1.167-2.579-2.057-4.022-2.886-1.566,3.531-3.224,5.771-6.202,8.074-.276.215-.43.338-.614.338-.123,0-.246-.062-.46-.215-.829-.675-1.597-.982-2.671-1.258,3.837-2.671,5.71-5.219,6.877-8.32-1.689-.86-3.869-1.535-6.079-1.873-1.627,3.377-2.518,4.912-3.745,6.14-1.136,1.197-2.364,1.688-3.93,1.688-1.781,0-3.654-1.228-3.654-4.206,0-3.807,3.93-6.785,9.057-6.785,1.013-2.548,1.78-4.697,2.548-7.276-1.688.184-3.224.368-4.237.491-.43.061-.89.153-1.381.337-.153.062-.368.123-.553.123-.246,0-.399-.123-.491-.338-.276-.614-.583-1.812-.89-3.346.921.184,1.781.215,2.702.184,1.474,0,3.009-.153,4.759-.399.767-.123,1.105-.276,1.504-.522.123-.092.276-.123.399-.123.153,0,.307.031.43.123.768.46,1.504,1.074,2.088,1.688.184.184.276.338.276.522s-.123.337-.307.522c-.46.43-.583,1.013-.829,1.596-.798,2.088-1.658,4.482-2.579,6.693,1.934.246,3.745.706,5.956,1.535.307-1.413.522-2.579.645-3.96ZM383.117,201.586c0,.982.337,1.412,1.074,1.412.583,0,1.167-.399,1.781-1.167.706-.891,1.443-2.118,2.241-3.746-3.131.123-5.096,1.75-5.096,3.5Z"/><path class="cls-9" d="M425.12,189.613c-.706,5.219-1.996,10.008-3.838,13.232-1.32,2.302-2.916,3.53-5.219,3.53-2.702,0-5.435-2.886-5.435-7.89,0-2.947,1.259-5.771,3.47-7.982,2.578-2.579,5.833-3.93,9.978-3.93,7.368,0,11.697,4.543,11.697,10.653,0,5.71-3.224,9.302-9.456,11.175-.645.184-.921.062-1.32-.553-.338-.522-.982-1.228-2.149-1.934,5.188-1.228,9.272-3.377,9.272-9.179,0-3.654-2.764-7.123-6.877-7.123h-.123ZM416.309,192.59c-1.474,1.658-2.395,3.715-2.395,5.68,0,2.825,1.136,4.391,2.088,4.391.798,0,1.474-.399,2.303-1.873,1.351-2.487,2.732-6.908,3.254-10.991-2.149.43-3.868,1.29-5.25,2.793Z"/><path class="cls-9" d="M456.102,187.095c1.104,0,1.657-.031,2.118-.276.123-.092.215-.123.338-.123.184,0,.338.123.521.246.706.552,1.412,1.351,1.996,2.149.092.153.153.276.153.399,0,.184-.123.399-.399.614-.399.337-.798.798-1.136,1.351-1.259,2.149-2.456,3.868-3.93,5.741,2.947,2.18,5.68,4.574,8.504,7.43.153.153.246.307.246.43s-.062.276-.216.46c-.583.706-1.289,1.443-2.057,2.087-.123.123-.245.185-.368.185-.153,0-.276-.092-.43-.246-2.579-3.009-5.22-5.434-7.982-7.614-3.469,3.623-6.969,6.232-10.315,8.105-.276.123-.491.246-.706.246-.185,0-.368-.092-.521-.276-.676-.829-1.566-1.443-2.579-1.996,4.789-2.425,7.645-4.605,10.807-7.829,2.21-2.303,3.898-4.482,5.771-7.706l-7.921.031c-1.597,0-3.192.062-4.851.184-.245.031-.338-.184-.399-.522-.153-.645-.276-2.118-.276-3.193,1.658.123,3.193.123,5.188.123h8.443Z"/><path class="cls-9" d="M485.915,188.016c.891-.031,1.289-.215,1.688-.46.215-.153.368-.215.522-.215.153,0,.337.092.552.246.676.399,1.535,1.228,2.088,1.873.185.184.246.369.246.553s-.093.369-.338.583c-.308.276-.614.583-.921,1.167-1.32,2.609-2.764,5.127-4.514,7.43,1.259,1.013,2.426,2.087,3.316,3.101.122.123.184.276.184.43,0,.123-.062.276-.184.399-.43.522-1.382,1.504-1.904,1.934-.122.092-.245.153-.368.153-.092,0-.215-.062-.338-.184-.736-.86-1.965-2.088-2.978-2.978-3.132,3.377-6.294,5.771-9.794,7.675-.276.153-.521.276-.767.276-.185,0-.369-.092-.584-.276-.982-.798-1.842-1.197-2.916-1.566,4.758-2.425,7.828-4.636,11.298-8.32-1.167-.952-2.549-1.903-4.421-2.886.675-.737,1.319-1.535,2.025-2.18.123-.123.246-.215.399-.215.093,0,.185.062.308.123,1.104.522,2.456,1.412,3.96,2.456,1.474-1.903,2.609-3.899,3.592-6.079l-7.613.153c-2.518,3.224-4.514,5.342-6.57,6.908-.215.153-.399.276-.614.276-.153,0-.338-.062-.491-.215-.768-.553-1.565-.982-2.578-1.412,4.298-3.408,6.601-6.232,8.688-9.64.982-1.658,1.382-2.487,1.658-3.776,1.044.369,2.641.89,3.592,1.504.246.123.338.307.338.491,0,.215-.153.46-.368.614-.276.184-.491.43-.645.645-.246.43-.431.737-.952,1.535l5.403-.123Z"/><path class="cls-9" d="M509.65,202.691c0,2.119.03,3.93.092,6.386.03.399-.123.522-.461.522-.982.062-2.087.062-3.069,0-.338,0-.461-.123-.43-.491.03-2.21.122-4.206.122-6.293v-7.153c-2.701,2.272-5.986,4.605-8.442,5.895-.153.092-.307.123-.461.123-.245,0-.43-.092-.645-.307-.706-.706-1.719-1.32-2.64-1.812,4.236-2.18,6.846-3.96,9.67-6.293,2.426-1.996,4.636-4.145,6.54-6.417,1.043-1.228,1.442-1.842,1.934-3.162,1.382.768,2.732,1.596,3.408,2.149.184.123.245.307.245.46,0,.246-.184.522-.43.675-.521.338-1.013.798-1.842,1.688-1.197,1.443-2.333,2.641-3.592,3.869v10.162Z"/><path class="cls-9" d="M528.474,188.968c.522.154.584.522.399.952-.338.676-.368,1.351-.368,2.088-.062,3.837-.645,6.754-1.658,9.026-.798,1.873-2.149,3.868-4.359,5.772-.307.246-.553.399-.798.399-.185,0-.369-.092-.584-.246-.768-.522-1.504-.89-2.609-1.29,2.395-1.811,4.021-3.684,5.097-6.109.859-2.087,1.259-3.776,1.289-8.688,0-1.167-.062-1.658-.307-2.579,1.75.215,3.162.43,3.898.675ZM535.289,201.954c1.505-.798,2.917-1.75,4.36-2.855,1.842-1.412,3.653-3.04,5.372-5.219.123,1.075.43,2.088.952,3.101.092.215.184.368.184.521,0,.215-.123.43-.46.768-1.535,1.566-2.947,2.825-4.544,4.022-1.597,1.228-3.315,2.425-5.465,3.684-.553.368-.614.43-.891.645-.184.154-.398.246-.613.246-.185,0-.399-.092-.646-.246-.675-.46-1.381-1.259-1.842-1.873-.184-.276-.276-.46-.276-.645,0-.154.031-.276.123-.46.215-.399.185-.768.185-2.333v-9.609c0-2.671,0-3.93-.308-5.342,1.229.153,2.917.368,3.838.645.399.092.553.276.553.522,0,.184-.092.46-.246.768-.276.583-.276,1.197-.276,3.408v10.254Z"/><path class="cls-9" d="M565.286,204.011c0,.338-.185.491-.583.553-.399.062-1.32.153-2.18.153-.276,0-.399-.184-.399-.491,0-1.105,0-2.64.03-3.746-2.732,1.413-3.715,2.61-3.715,4.083,0,1.289,1.044,2.118,4.268,2.118,2.825,0,5.28-.276,7.645-.614.276-.031.399.061.43.337.153.706.276,1.781.276,2.518.031.368-.092.583-.338.583-2.64.337-4.636.399-7.613.399-5.035,0-7.706-1.504-7.706-5.065,0-2.947,1.842-5.097,6.478-7.491-.092-1.565-.46-2.18-1.842-2.118-1.442.062-2.824.982-4.236,2.21-1.32,1.29-2.088,2.18-3.07,3.346-.153.184-.245.276-.368.276-.093,0-.215-.092-.338-.215-.43-.43-1.351-1.382-1.75-2.026-.092-.123-.123-.215-.123-.276,0-.123.062-.215.215-.337,2.364-2.119,4.636-4.544,6.417-7.614-1.443.061-3.101.092-4.912.092-.276,0-.368-.153-.43-.491-.093-.491-.215-1.627-.308-2.548,2.334.123,4.729.092,7.062-.031.338-.829.614-1.566.921-2.64.123-.522.215-1.044.215-1.873,1.351.215,2.702.553,3.5.86.245.092.368.307.368.522,0,.153-.062.337-.215.46-.184.153-.368.43-.521.737-.185.43-.338.829-.706,1.658,1.872-.215,3.745-.522,5.587-.952.338-.062.43.031.491.307.153.614.276,1.32.308,2.211.03.307-.093.43-.522.491-2.303.337-4.942.675-7.184.921-.706,1.136-1.382,2.271-2.303,3.408l.03.062c.982-.645,2.241-.952,3.07-.952,2.026,0,3.438.921,3.746,3.315,1.197-.553,2.947-1.351,4.513-2.149.583-.307,1.565-.86,2.333-1.658,1.014,1.074,1.812,2.149,2.149,2.701.184.276.245.491.245.676,0,.246-.153.368-.46.43-.645.092-1.259.246-1.873.46-1.995.706-3.991,1.381-6.601,2.456v4.943Z"/><path class="cls-9" d="M587.18,205.516h4.391v2.978h-12.649v-2.978h4.605v-16.701c-1.167.798-2.641,1.535-4.329,2.087l-.613-3.224c2.025-.583,3.837-1.565,5.464-2.763h3.132v20.6Z"/><path class="cls-9" d="M600.997,190.779c4.729-1.597,8.566-2.548,11.053-2.548,5.495,0,9.026,3.316,9.026,8.136,0,4.022-1.75,6.57-5.403,8.535-2.579,1.443-4.974,1.934-7.799,2.548-.613.123-.859.092-1.074-.491-.368-.859-1.136-1.781-2.148-2.425,4.052-.675,6.231-1.259,8.319-2.272,2.609-1.32,4.236-3.285,4.236-6.109,0-2.886-1.872-4.667-5.28-4.667-2.763,0-6.416,1.105-11.083,3.162-.982.491-1.75.829-2.118,1.105-.43.368-.676.46-.829.46-.307,0-.553-.185-.89-.645-.553-.675-1.32-1.873-1.965-3.193,1.351-.153,2.486-.43,5.955-1.596Z"/><path class="cls-9" d="M638.824,186.205c-.062-.89-.122-1.32-.368-2.241,1.382.092,2.855.276,3.592.43.522.092.86.307.86.583,0,.245-.093.399-.276.706-.093.184-.185.491-.246.89-.03.399-.03.798-.062,1.965,3.315-.123,6.479-.153,9.426-.153.368,0,.43.061.46.46.031.768.031,1.565,0,2.333,0,.338-.153.43-.521.399-3.193-.092-6.171-.092-9.364-.062,0,1.873,0,3.837.031,5.71.307.829.46,2.026.46,3.039,0,3.562-1.442,7.276-5.465,9.917-.521.338-.921.583-1.197.583s-.613-.215-.921-.46c-.706-.583-1.535-.982-2.333-1.228,3.592-1.596,5.741-4.175,6.294-6.754-.614.89-1.873,1.228-2.886,1.228-2.426,0-4.268-1.75-4.268-4.697,0-2.855,2.148-4.605,4.636-4.605.921,0,1.842.184,2.333.614,0-1.074-.03-2.118-.03-3.131-3.869.215-8.197.583-10.623.921-.675.092-1.166.369-1.442.369-.308,0-.43-.123-.522-.43-.245-.614-.521-1.842-.768-3.101,1.136.123,2.118,0,3.746-.123,1.872-.154,5.833-.399,9.517-.614-.03-.952-.03-1.719-.062-2.548ZM634.895,198.639c0,1.351.86,2.087,1.965,2.087,1.137,0,2.088-.706,2.088-2.118,0-1.259-.798-1.965-2.026-1.965-.951,0-2.026.645-2.026,1.996ZM646.991,182.889c.153-.123.276-.092.46.062.952.737,2.058,1.965,2.917,3.285.123.185.123.338-.092.491l-1.29.952c-.215.154-.368.123-.521-.092-.921-1.412-1.903-2.579-3.101-3.562l1.627-1.136ZM650.43,181.753c.184-.123.276-.092.46.061,1.137.86,2.241,2.088,2.917,3.163.123.184.153.368-.092.552l-1.229.952c-.245.185-.399.092-.521-.092-.829-1.32-1.812-2.487-3.07-3.531l1.535-1.105Z"/><path class="cls-9" d="M661.024,190.779c4.729-1.597,8.566-2.548,11.053-2.548,5.495,0,9.026,3.316,9.026,8.136,0,4.022-1.75,6.57-5.403,8.535-2.579,1.443-4.974,1.934-7.799,2.548-.613.123-.859.092-1.074-.491-.368-.859-1.136-1.781-2.148-2.425,4.052-.675,6.231-1.259,8.319-2.272,2.609-1.32,4.236-3.285,4.236-6.109,0-2.886-1.872-4.667-5.28-4.667-2.763,0-6.416,1.105-11.083,3.162-.982.491-1.75.829-2.118,1.105-.43.368-.676.46-.829.46-.307,0-.553-.185-.89-.645-.553-.675-1.32-1.873-1.965-3.193,1.351-.153,2.486-.43,5.955-1.596Z"/><path class="cls-9" d="M692.159,204.318c.614,1.443,1.565,2.087,2.855,2.579,1.136.369,3.009.553,5.68.553,3.96,0,8.534-.153,13.14-.614-.461.645-.676,1.32-.768,2.057q-.153.982-1.136,1.044c-3.899.215-7.553.307-10.745.307-3.162,0-5.772-.215-7.245-.829-1.413-.583-2.396-1.504-3.224-2.763-.799.86-1.75,1.688-2.855,2.61-.308.276-.491.43-.645.645s-.276.307-.43.307c-.185,0-.338-.154-.461-.399-.43-.798-.829-1.719-1.259-2.824.768-.369,1.197-.583,1.812-1.013.798-.522,1.565-1.197,2.303-1.903v-6.846h-1.259c-1.597,0-1.996.061-2.149.061-.338,0-.368-.03-.368-.368v-2.333c0-.307.03-.337.368-.337.153,0,.553.062,2.149.062h1.719c1.597,0,2.088-.062,2.241-.062.308,0,.338.031.338.337,0,.185-.062,1.075-.062,2.978v6.754ZM690.624,190.319c-.184.153-.307.215-.398.215-.093,0-.185-.062-.276-.215-1.137-1.842-2.396-3.5-3.776-4.79-.246-.215-.185-.276.153-.522l1.565-1.136c.369-.246.43-.276.676-.062,1.412,1.32,2.732,2.825,3.868,4.575.153.246.153.337-.185.614l-1.627,1.32ZM696.059,185.898c-1.873,0-2.487.062-2.671.062-.308,0-.338-.031-.338-.338v-1.627c0-.307.03-.338.338-.338.184,0,.798.062,2.671.062h3.131c1.474,0,1.996-.062,2.18-.062.338,0,.369.031.369.338,0,.184-.062.706-.062,1.965v1.289c0,1.228.062,1.781.062,1.965,0,.276-.031.307-.369.307-.184,0-.706-.062-2.18-.062h-3.101v.768c0,.706.062.921.185,1.044.215.184.553.215,1.565.215,1.105,0,1.474-.062,1.688-.276.185-.215.185-.645.215-1.381.614.307,1.229.522,2.026.737.583.153.614.184.491.982-.123.706-.307,1.074-.645,1.381-.553.491-1.565.583-3.899.583-2.363,0-3.224-.092-3.715-.491-.583-.46-.736-1.044-.736-2.333v-1.658c0-.645-.062-1.013-.062-1.228,0-.307.03-.338.368-.338.185,0,.737.062,1.996.062h3.315v-1.627h-2.824ZM697.9,202.261c-3.009,0-4.053.062-4.236.062-.308,0-.338-.031-.338-.369v-1.658c0-.307.03-.338.338-.338.184,0,1.228.062,4.236.062h.399v-1.934c-2.518,0-3.438.062-3.593.062-.337,0-.368-.031-.368-.369v-1.658c0-.307.031-.337.368-.337.154,0,1.075.061,3.593.061-.031-.829-.093-1.351-.185-1.965,1.105.062,1.75.092,2.794.215.276.031.491.154.491.307,0,.184-.062.246-.185.46-.153.307-.153.522-.153.982h3.899c0-.89-.062-1.412-.185-1.965,1.105.062,1.78.092,2.794.215.307.031.491.154.491.338s-.062.246-.185.46c-.153.246-.153.522-.153.921v.062c2.425-.031,3.315-.092,3.5-.092.338,0,.368.03.368.337v1.658c0,.338-.03.369-.368.369-.185,0-1.075-.031-3.5-.062v1.934h.553c3.009,0,4.053-.062,4.236-.062.308,0,.338.031.338.338v1.658c0,.338-.03.369-.338.369-.184,0-1.228-.062-4.236-.062h-1.597c1.565.952,3.469,1.688,6.171,2.241-.43.46-.829,1.044-1.105,1.597-.276.552-.46.767-.768.767-.153,0-.398-.092-.706-.184-2.088-.675-3.898-1.565-5.771-2.855-.246-.184-.185-.246.092-.522l1.044-1.044h-5.956c.553.338,1.075.675,1.566,1.044.307.215.43.307.43.46s-.153.276-.399.338c-.215.061-.614.399-.982.583-.982.645-2.364,1.32-3.776,1.842-.338.123-.553.215-.736.215-.276,0-.461-.215-.859-.675-.399-.491-.891-.921-1.413-1.29,1.843-.522,3.378-1.105,4.452-1.688.398-.215.798-.491,1.197-.829h-1.259ZM704.962,200.02v-1.934h-3.899v1.934h3.899ZM706.159,185.898c-1.904,0-2.456.062-2.641.062-.338,0-.368-.031-.368-.338v-1.627c0-.307.03-.338.368-.338.185,0,.736.062,2.641.062h3.254c1.443,0,1.995-.062,2.18-.062.307,0,.338.031.338.338,0,.184-.062.706-.062,1.965v1.289c0,1.228.062,1.781.062,1.965,0,.276-.031.307-.338.307-.185,0-.736-.062-2.18-.062h-3.101v.798c0,.706.03.859.184,1.013.185.153.522.215,1.658.215.952,0,1.474-.062,1.658-.246.215-.184.276-.645.307-1.412.583.307,1.382.583,2.057.706.706.123.706.215.584,1.044-.123.706-.308,1.043-.646,1.32-.583.522-1.749.614-4.205.614s-3.378-.092-3.869-.491c-.521-.46-.675-1.044-.675-2.333v-1.658c0-.645-.062-1.013-.062-1.228,0-.307.03-.338.338-.338.215,0,.736.062,2.057.062h3.315v-1.627h-2.854Z"/><path class="cls-9" d="M724.399,198.086c1.228-1.013,2.548-1.566,3.745-1.566,3.315,0,4.145,2.855,4.482,5.803.245,2.241.614,3.254,1.78,3.254,1.105,0,2.026-.553,2.887-1.474,1.074-1.136,2.333-2.917,3.101-5.004.613,1.381,1.228,1.996,1.78,2.548.246.215.338.43.338.645,0,.184-.031.338-.123.522-.614,1.29-1.627,2.702-2.641,3.807-1.534,1.658-3.53,2.579-5.648,2.579-3.101,0-4.421-1.627-4.82-5.956-.276-3.07-.951-3.96-2.026-3.96-1.319,0-2.64.982-3.868,2.61-1.105,1.474-2.395,3.991-3.592,6.815-.184.43-.338.491-.736.368-.829-.337-1.658-.768-2.364-1.32-.185-.123-.276-.276-.276-.399s.062-.276.153-.43c4.482-8.78,7.307-14.644,8.995-18.482.891-2.026,1.29-3.101,1.535-4.482,1.443.583,2.609,1.136,3.438,1.719.276.184.43.399.43.645,0,.184-.122.399-.337.614-.369.399-.676.859-.952,1.32-1.965,3.776-3.623,7-5.312,9.763l.031.062Z"/><path class="cls-9" d="M757.621,190.012c-3.745.706-7.03,1.351-10.315,2.026-1.166.276-1.474.337-1.934.491-.215.092-.43.246-.676.246-.215,0-.46-.185-.583-.46-.399-.829-.737-1.904-1.136-3.316,1.565-.062,2.486-.184,4.881-.522,3.776-.552,10.53-1.565,18.451-2.609.461-.062.614.123.645.337.154.707.308,1.842.338,2.702,0,.368-.184.46-.583.46-1.443.092-2.426.246-3.745.675-5.22,1.781-7.829,5.373-7.829,9.057,0,3.96,2.824,6.109,8.166,6.447.491,0,.676.123.676.46,0,.798-.123,1.873-.338,2.64-.092.46-.215.645-.583.645-5.403,0-11.329-3.101-11.329-9.486,0-4.359,2.181-7.307,5.895-9.732v-.062ZM763.7,193.328c.153-.123.276-.092.461.061.951.737,2.057,1.965,2.916,3.285.123.184.123.337-.092.491l-1.289.952c-.216.153-.369.123-.522-.092-.921-1.412-1.903-2.579-3.101-3.561l1.627-1.136ZM766.433,191.332c.185-.123.276-.092.461.061,1.136.86,2.24,2.088,2.916,3.162.123.185.153.369-.092.553l-1.229.952c-.245.185-.398.092-.521-.092-.829-1.32-1.812-2.487-3.07-3.531l1.535-1.105Z"/><path class="cls-9" d="M400.524,95.866c0-1.886-.042-2.809-.251-3.94h4.862c-.126,1.131-.21,2.263-.21,3.94v2.347h2.977c1.761,0,2.767-.042,4.023-.251v4.485c-1.006-.083-1.551-.125-3.27-.125-.293,4.359-1.257,8.593-2.85,12.701,2.641,3.353,2.976,3.814,5.952,8.006l-3.312,3.688c-1.761-3.018-2.39-3.982-4.82-7.251-2.348,4.066-4.485,6.707-8.342,10.353-1.132-1.844-1.802-2.641-3.186-3.898,3.856-2.976,6.329-5.952,8.593-10.27-1.928-2.431-4.233-4.946-7.125-7.712l3.06-3.102q.838.838,3.312,3.396c.335.335,1.048,1.132,2.641,2.976.838-2.725,1.425-5.868,1.635-8.886h-7.755c-1.551,0-2.725.042-3.898.209v-4.569c1.258.168,2.515.251,4.15.251h3.814v-2.347ZM414.482,107.184c2.808,3.814,3.981,5.742,5.91,9.683l-3.814,2.515c-1.971-4.611-3.354-7.042-5.868-10.144l3.772-2.054ZM416.829,104.585c-1.802,0-2.809.042-3.981.21v-4.611c1.131.167,2.138.209,3.981.209h5.323v-3.312c0-2.473-.084-3.814-.293-4.988h5.029c-.167,1.299-.251,2.725-.251,4.988v3.312h.503c1.761,0,2.893-.084,3.94-.251v4.694q-.336-.042-.965-.125c-.419-.084-1.802-.126-2.934-.126h-.545v20.246c0,2.18-.126,2.892-.755,3.646-.796,1.006-2.305,1.425-5.071,1.425-1.719,0-3.27-.042-4.946-.167-.293-2.096-.587-3.144-1.3-4.653,1.51.251,4.024.503,5.072.503,2.264,0,2.515-.125,2.515-1.006v-19.994h-5.323Z"/><path class="cls-9" d="M460.385,109.74c.796,2.306,1.048,3.018,1.886,4.569,2.096-1.467,3.73-2.934,4.611-4.233l3.897,2.767c-.461.335-.587.461-1.048.88-2.012,1.761-3.856,3.144-5.323,4.024,2.474,3.186,5.742,5.575,9.264,6.791-1.258,1.551-2.138,2.892-2.809,4.485-4.568-2.347-7.461-4.904-10.312-9.096-1.718-2.515-3.437-6.371-4.652-10.186h-1.132c-.671.461-.922.671-1.719,1.174,1.719,1.76,2.893,3.646,3.73,6.12.881,2.431,1.132,3.856,1.132,6.497,0,5.239-1.76,6.874-7.335,6.874-.503,0-1.216-.042-2.18-.083-.377-2.096-.629-2.767-1.593-4.443,1.509.209,2.641.335,3.562.335,2.683,0,3.144-.503,3.144-3.354,0-.251,0-.419-.083-.796-5.072,3.186-10.563,5.617-16.558,7.335-.67-1.551-1.299-2.557-2.431-3.772,6.748-1.509,13.203-4.024,18.191-7.125-.251-.713-.335-.922-.587-1.509-4.484,2.473-9.557,4.401-14.964,5.743-.838-1.844-1.132-2.347-2.054-3.437,5.658-1.09,10.688-2.767,15.425-5.156-.377-.545-.503-.713-.964-1.258-3.814,1.803-8.006,3.186-12.407,4.024-.713-1.761-1.132-2.473-2.012-3.521,4.778-.671,9.473-1.97,13.161-3.647h-5.407c-1.677,0-2.725.042-4.107.126.126-.88.168-1.844.168-3.688v-3.102c-1.09.712-1.509.964-2.851,1.677-.545-1.635-1.048-2.557-2.054-3.898,2.851-1.215,5.491-2.892,7.838-4.904,2.096-1.803,3.521-3.396,4.569-5.072l5.155.838-1.593,1.845h6.79c1.426,0,3.563-.084,4.024-.168l2.348,2.138c-.378.419-.545.545-1.007,1.09-1.131,1.132-1.76,1.761-3.018,2.892h6.329c2.138,0,3.27-.042,4.401-.167-.126,1.299-.168,2.138-.168,3.688v3.144c0,1.509.042,2.599.168,3.688-1.09-.084-2.18-.126-3.94-.126h-5.49ZM451.792,105.884v-2.683h-8.51v2.683h8.51ZM453.846,99.513c1.09-.964,1.761-1.676,2.431-2.515h-9.515c-1.048,1.048-1.635,1.551-2.851,2.515h9.935ZM465.205,105.884v-2.683h-9.096v2.683h9.096Z"/><path class="cls-9" d="M510.688,97.837c1.761,0,2.725-.042,3.479-.168q-.168,1.299-.252,5.282c-.293,14.251-.838,20.581-1.97,23.473-.964,2.515-2.767,3.479-6.455,3.479-.922,0-1.97-.084-4.023-.251,0-1.76-.336-3.144-1.09-4.736,2.138.461,3.814.67,5.197.67,1.677,0,2.306-.88,2.767-3.856.713-4.527,1.09-11.359,1.216-19.827h-.503c-1.174,6.875-2.474,11.108-4.485,15.174-2.515,5.072-5.449,8.551-10.898,12.868-.964-1.509-1.677-2.222-3.521-3.437,5.155-3.396,8.341-6.875,10.897-11.904,1.929-3.898,3.103-7.628,4.024-12.701h-1.719c-2.096,8.216-5.533,13.833-11.233,18.359-.796-1.551-1.551-2.431-3.102-3.646,2.306-1.425,3.396-2.389,4.946-4.234,2.557-3.06,4.149-6.162,5.365-10.479h-1.971c-1.425,2.976-2.934,5.24-4.987,7.377-1.3-1.593-2.096-2.305-3.479-3.186,1.006-.922,1.425-1.341,2.012-2.012-.838-.083-1.383-.083-2.347-.083h-1.006v7.838c1.467-.503,2.096-.712,3.939-1.551l.042,4.192c-1.97.838-2.557,1.089-3.981,1.676v9.515c0,1.76.083,3.228.251,4.82h-4.946c.21-1.467.294-2.976.294-4.82v-7.922c-1.719.629-2.977,1.048-3.772,1.3-1.132.377-1.384.503-2.222.88l-.964-4.988c1.928-.126,2.934-.377,6.958-1.635v-9.305h-2.096c-.378,2.347-.755,3.94-1.593,6.79-1.384-1.131-2.222-1.593-3.814-2.263.796-1.886,1.09-3.06,1.593-5.827.335-2.096.545-4.191.545-5.91,0-.628,0-1.006-.084-1.76l4.191.461c-.168,2.515-.209,2.725-.335,4.275h1.593v-4.736c0-1.299-.084-2.263-.294-3.437h4.946c-.168,1.09-.251,2.054-.251,3.437v4.736h1.006c1.341,0,2.012-.042,2.725-.209v4.024c1.215-1.677,2.18-3.479,2.976-5.491,1.048-2.599,1.677-4.737,1.845-6.455l4.862.838q-.336.88-1.342,3.814c-.126.377-.293.838-.545,1.551h11.61Z"/><path class="cls-9" d="M522.597,113.513c0-1.425.042-2.767.126-4.611-1.048,1.886-1.971,3.186-3.521,4.862-.712-2.725-1.048-3.73-1.886-5.156,3.186-3.521,5.449-7.251,7.209-11.904.839-2.264,1.258-3.772,1.51-5.449l4.736,1.341c-.21.629-.294.838-.671,1.886-1.048,3.186-1.425,4.108-2.935,7.335v23.766c0,1.886.084,3.27.21,4.862h-5.03c.21-1.719.252-2.892.252-4.904v-12.03ZM541.04,96.495c0-1.928-.084-3.018-.294-4.401h5.197c-.251,1.383-.293,2.389-.293,4.443v3.856h5.239c2.138,0,3.354-.084,4.527-.251v4.778c-1.887-.167-3.144-.251-4.485-.251h-5.281v7.838h6.539c2.012,0,3.354-.084,4.694-.251v4.82c-1.425-.167-2.893-.251-4.61-.251h-6.623v8.718c0,2.264.042,3.312.293,4.82h-5.197c.21-1.509.294-2.683.294-4.82v-8.718h-7.168c-1.928,0-3.438.084-4.694.251v-4.82c1.215.167,2.683.251,4.694.251h7.168v-7.838h-5.785c-1.048,2.473-1.802,3.772-3.395,6.12-1.174-1.257-1.384-1.425-3.73-3.018,1.928-2.641,3.311-5.282,4.526-8.635.713-2.054,1.132-3.647,1.3-5.323l4.61,1.173c-.293.964-.377,1.216-.754,2.515-.42,1.299-.587,1.844-.923,2.892h4.15v-3.898Z"/><path class="cls-9" d="M576.589,92.765q-.252.796-.671,2.808c-.209,1.006-.419,1.844-.88,3.688,2.892-.293,5.071-.67,6.706-1.173l.126,4.82c-.461.042-.545.042-1.341.209-1.51.251-4.066.545-6.665.754-1.216,4.191-2.725,8.174-4.61,12.156-.965,2.054-1.342,2.808-2.935,5.742q-.545,1.006-.796,1.509l-4.82-2.683c1.467-1.928,2.641-3.814,4.065-6.707,1.635-3.354,2.348-5.072,3.94-9.892-1.887.042-2.138.042-2.641.042-.545,0-.797,0-1.677-.042l-2.222-.042v-4.778c1.509.293,3.102.377,5.658.377.503,0,1.216,0,2.138-.042.713-2.976,1.174-5.491,1.258-7.293l5.365.545ZM595.577,126.716c-1.51-1.802-3.94-3.772-6.414-5.198.042.377.084.671.084.838,0,1.551-.712,3.354-1.802,4.443-1.468,1.509-3.982,2.347-6.958,2.347-5.533,0-9.138-2.767-9.138-7.042,0-4.233,3.73-7.209,9.054-7.209,1.257,0,2.138.084,3.898.377-.126-1.928-.21-3.563-.21-4.82,0-1.635.084-2.851.335-4.234l4.862.251c-.419,1.551-.503,2.515-.503,4.234,0,1.676.084,3.353.377,5.742,3.019,1.341,3.438,1.551,6.623,3.856.629.419.797.587,1.467,1.132q.336.335.629.586l-2.305,4.695ZM580.696,119.046c-2.725,0-4.484,1.131-4.484,2.892,0,1.718,1.509,2.725,4.107,2.725,2.851,0,4.233-1.174,4.233-3.521,0-.419-.084-1.425-.084-1.425-1.467-.503-2.473-.67-3.772-.67ZM595.786,107.435c-3.646-2.431-7.377-4.233-12.071-5.868l2.515-4.066c4.946,1.886,8.09,3.353,11.82,5.617l-2.264,4.317Z"/><path class="cls-9" d="M614.275,100.98c-.629,2.305-1.341,6.204-1.886,10.311q-.084.587-.21,1.216l.084.084c2.432-2.348,7.629-3.982,12.7-3.982,7.126,0,11.82,3.521,11.82,8.886,0,3.06-1.635,6.162-4.317,8.09-2.725,1.97-6.203,2.851-11.065,2.851-3.604,0-5.91-.293-10.688-1.467-.042-2.599-.126-3.437-.629-5.407,4.107,1.425,7.713,2.096,11.275,2.096,5.91,0,10.018-2.473,10.018-6.036,0-2.809-2.641-4.485-7.083-4.485-3.73,0-7.629,1.131-10.438,3.06-.754.545-1.006.796-1.886,1.802l-5.282-.167c.126-.754.126-.922.336-2.515.335-2.599,1.006-7.251,1.761-12.197.167-1.006.209-1.509.251-2.431l5.239.293ZM614.82,92.765c2.893,1.593,10.898,3.982,15.635,4.652l-1.719,4.82c-7.167-1.635-11.568-3.018-16.347-5.239l2.431-4.233Z"/><polygon class="cls-4" points="770 334 38 334 38 284 770 284 770 310.641 770 334"/><path class="cls-11" d="M289.887,302.925c1.899,0,2.524-.051,2.674-.051.25,0,.275.025.275.275v1.774c0,.275-.025.3-.275.3-.15,0-.775-.05-2.674-.05h-3.174c-1.899,0-2.524.05-2.674.05-.225,0-.25-.024-.25-.3v-1.774c0-.25.025-.275.25-.275.15,0,.775.051,2.674.051h3.174ZM292.312,317.121c0,2.899.05,3.449.05,3.599,0,.25-.025.275-.275.275h-1.824c-.25,0-.275-.025-.275-.275v-.675h-2.774v1.125c0,.25-.025.275-.275.275h-1.825c-.275,0-.3-.025-.3-.275,0-.15.05-.725.05-3.749v-1.675c0-1.574-.05-2.175-.05-2.35,0-.25.025-.274.3-.274.15,0,.675.05,2.274.05h2.399c1.625,0,2.125-.05,2.299-.05.25,0,.275.024.275.274,0,.15-.05.75-.05,1.925v1.8ZM289.862,299.5c1.6,0,2.099-.05,2.249-.05.275,0,.3.025.3.275v1.649c0,.25-.025.274-.3.274-.15,0-.649-.05-2.249-.05h-2.399c-1.625,0-2.125.05-2.274.05-.25,0-.275-.024-.275-.274v-1.649c0-.25.025-.275.275-.275.15,0,.649.05,2.274.05h2.399ZM289.662,306.448c1.524,0,1.95-.05,2.1-.05.275,0,.3.025.3.275v1.624c0,.25-.025.275-.3.275-.15,0-.575-.05-2.1-.05h-2.125c-1.524,0-1.975.05-2.125.05-.25,0-.275-.025-.275-.275v-1.624c0-.25.025-.275.275-.275.15,0,.6.05,2.125.05h2.125ZM289.662,309.798c1.524,0,1.95-.05,2.1-.05.275,0,.3.024.3.274v1.6c0,.25-.025.275-.3.275-.15,0-.575-.05-2.1-.05h-2.125c-1.524,0-1.975.05-2.125.05-.25,0-.275-.025-.275-.275v-1.6c0-.25.025-.274.275-.274.15,0,.6.05,2.125.05h2.125ZM287.213,315.246v2.75h2.774v-2.75h-2.774ZM300.71,310.497v2.899h2.274c2.299,0,3.099-.05,3.249-.05.25,0,.275.025.275.275v1.874c0,.25-.025.275-.275.275-.15,0-.95-.05-3.249-.05h-2.274v1.724c0,2.375.05,3.524.05,3.675,0,.25-.025.274-.3.274h-2.024c-.25,0-.275-.024-.275-.274,0-.15.05-1.3.05-3.675v-1.724h-1.425c-2.324,0-3.099.05-3.249.05-.25,0-.275-.025-.275-.275v-1.874c0-.25.025-.275.275-.275.15,0,.925.05,3.249.05h1.425v-2.899h-.825c-2.125,0-2.849.051-3,.051-.25,0-.275-.025-.275-.275v-1.8c0-.25.025-.274.275-.274.15,0,.875.05,3,.05h.825v-2.624h-1.125c-2.25,0-3,.05-3.174.05-.225,0-.25-.025-.25-.275v-1.799c0-.25.025-.275.25-.275.175,0,.925.05,3.174.05h2.799c.65-1.175,1.125-2.249,1.575-3.524.125-.399.25-.85.35-1.324.725.2,1.625.475,2.274.8.2.1.3.225.3.35,0,.175-.075.275-.25.425-.175.176-.3.4-.425.726-.35.8-.75,1.649-1.25,2.549h.2c2.249,0,3.024-.05,3.174-.05.25,0,.275.025.275.275v1.799c0,.25-.025.275-.275.275-.15,0-.925-.05-3.174-.05h-1.95v2.624h1.275c2.124,0,2.849-.05,2.999-.05.25,0,.275.024.275.274v1.8c0,.25-.025.275-.275.275-.15,0-.875-.051-2.999-.051h-1.275ZM296.386,298.75c.225-.1.325-.1.475.101.65.899,1.3,1.999,1.774,3.049.1.275.05.351-.25.475l-1.6.7c-.35.15-.375.125-.475-.125-.425-1.1-1-2.175-1.675-3.174-.125-.226-.1-.275.2-.4l1.55-.625Z"/><path class="cls-11" d="M317.262,300.175c.425.101.6.226.6.476,0,.274-.15.574-.25.824-.125.35-.225,1.125-.35,3.05-.25,3.849-.375,6.398-.375,9.672,0,2.524.3,3.1,2.299,3.1,2.225,0,5.699-1.35,8.748-4.599.1.949.325,1.774.575,2.374.125.275.2.45.2.6,0,.226-.1.425-.5.775-2.7,2.475-6.224,3.749-9.473,3.749-3.199,0-4.699-1.274-4.699-5.099,0-4.199.225-7.799.35-10.798.05-1.475.125-3.074-.25-4.573,1.15.124,2.35.249,3.125.449Z"/><path class="cls-11" d="M347.085,301.05c.125.1.2.3.2.399,0,.226-.125.375-.35.476-.301.149-.675.375-1.2.875-2.149,1.924-4.899,4.498-6.823,6.498-.225.274-.325.425-.325.55,0,.15.1.275.325.45,3.249,2.349,6.623,5.073,9.298,7.873.1.125.175.225.175.324,0,.101-.05.176-.175.301-.575.624-1.3,1.35-1.725,1.725-.15.124-.25.199-.35.199-.101,0-.176-.075-.301-.225-2.898-3.249-5.698-5.849-9.097-8.448-.95-.725-1.325-1.274-1.325-2.1s.45-1.374,1.225-2.199c2.125-2.299,4.199-4.374,6.349-6.724.675-.725,1.05-1.249,1.35-1.874,1.1.649,2.049,1.3,2.749,1.899Z"/><path class="cls-11" d="M360.514,300.825c.274.149.374.3.374.5,0,.175-.074.35-.175.55-.175.3-.274.649-.449,1.374-.825,3.774-1.25,7.273-1.25,9.098,0,1,0,2.149.075,3.199.5-1.149,1.024-2.224,1.55-3.474.35.8.55,1.149.874,1.574.101.125.15.226.15.351s-.05.249-.15.399c-.874,1.975-1.175,3.074-1.274,3.799-.1.7-.05,1.075-.025,1.325.025.175-.074.25-.3.325-.475.175-1.199.324-1.874.425-.275.074-.375.05-.5-.301-.7-1.774-1.075-4.748-1.075-7.623,0-2.399.2-4.398,1.025-9.473.125-.874.274-1.949.175-2.949,1,.25,2.35.65,2.85.9ZM369.111,307.498c-1.7.05-3.449.101-5.149-.024-.324,0-.425-.075-.449-.325-.101-.6-.175-1.5-.175-2.274,1.874.175,3.823.2,5.698.075,0-.9-.025-1.7-.025-2.625-.024-.899-.1-1.55-.324-2.449,1.449.125,2.199.225,3.024.475.274.075.449.2.449.425,0,.125-.05.2-.149.426-.101.225-.175.55-.2.874-.05.851-.05,1.5-.05,2.649,1.175-.1,2.475-.274,3.549-.449.3-.075.35.024.4.3.1.449.149,1.249.149,1.774,0,.225-.1.35-.274.375-.9.225-2.55.425-3.85.524,0,2.8.05,4.549.175,6.698,1.475.601,2.75,1.3,4.149,2.399.225.15.25.226.125.5-.325.65-.725,1.35-1.149,1.925-.075.1-.15.15-.226.15s-.149-.051-.225-.125c-.775-.726-1.6-1.351-2.699-2-.2,2.1-1.625,3.249-4.574,3.249-2.874,0-4.474-1.35-4.474-3.499,0-2.05,1.85-3.524,4.374-3.524.649,0,1.399.075,1.999.2-.05-1.925-.075-3.749-.1-5.724ZM367.087,315.272c-1.175,0-1.875.425-1.875,1.199s.55,1.25,2.024,1.25c1.25,0,2.05-.725,2.05-1.625,0-.175,0-.3-.025-.499-.8-.25-1.475-.325-2.174-.325Z"/><path class="cls-11" d="M386.513,311.773c.226.125.25.25.125.449-.375.575-.649,1.4-.649,1.9,0,1.574,1.624,2.349,5.924,2.349,2.424,0,4.724-.274,6.772-.725.351-.075.476,0,.525.225.125.476.35,1.825.399,2.45.025.225-.125.324-.425.375-2.324.425-4.273.6-7.448.6-5.599,0-8.473-1.8-8.473-5.049,0-1.024.375-2.1,1.325-3.574.649.325,1.274.649,1.924,1ZM392.161,301.975c1.825,0,3.699-.125,5.299-.225.25-.025.351.074.375.274.075.575.125,1.274.125,2.125,0,.35-.125.499-.425.524-2.374.35-4.099,1.175-6.123,2.475-.2.149-.425.225-.625.225-.175,0-.351-.05-.525-.149-.5-.325-1.024-.601-1.749-.8,1.3-.851,2.399-1.55,3.274-2.075-.55.075-1.325.075-2.05.075-.95,0-2.975-.175-4.374-.425-.225-.05-.325-.149-.325-.45,0-.6.05-1.324.101-2.224,1.899.449,4.299.649,7.022.649Z"/><path class="cls-11" d="M411.663,301.55c.101-1.1.075-1.75-.05-2.425,1.425.15,2.35.325,2.999.525.325.1.5.25.5.449,0,.125-.1.301-.175.4-.175.225-.375.649-.425.925-.125.675-.225,1.175-.35,2.05,1.249-.176,3.299-.55,4.698-.925.35-.101.475-.075.525.25.1.574.175,1.249.175,1.849,0,.275-.075.351-.3.4-2.149.475-3.499.75-5.599,1.024-.351,2.075-.7,3.749-1.15,5.499,1.95-1.699,4.449-2.649,7.174-2.649,3.324,0,5.573,2.149,5.573,4.724,0,2.199-.925,3.824-2.85,5.049-1.499.975-3.648,1.575-6.373,2-.625.1-1.225.175-1.85.175-.25,0-.425-.125-.625-.6-.399-.825-.774-1.3-1.35-1.775,3.649-.225,5.174-.55,7.174-1.374,1.924-.8,2.849-1.95,2.849-3.524,0-1.3-.949-2.374-2.849-2.374-2.7,0-5.174,1.249-6.574,3.099-.225.325-.475.625-.699.95-.175.3-.25.399-.475.375-.55-.05-1.375-.325-1.875-.55-.399-.175-.55-.275-.55-.5,0-.101.025-.275.1-.5.125-.425.226-.8.325-1.175.55-2.199.899-4.049,1.325-6.549-1.351.101-2.925.226-4.199.226-.275,0-.425-.125-.475-.351-.075-.3-.25-1.35-.351-2.174,1.95,0,3.499-.075,5.424-.225.125-.875.225-1.7.3-2.3Z"/><path class="cls-11" d="M436.163,305.424c.274.125.399.274.399.475,0,.125-.05.25-.125.375-.225.4-.399.85-.499,1.325-.25,1.274-.5,3.124-.601,4.549,2.3-2.325,5.299-3.949,8.349-3.949,3.648,0,5.823,2.124,5.823,5.349,0,2.725-1.625,4.523-3.774,5.599-1.674.85-4.249,1.449-6.398,1.725-.55.075-.774.05-.999-.325-.476-.85-.925-1.524-1.7-2.124,2.8-.175,5.199-.65,6.873-1.4,2.025-.874,2.95-2.174,2.95-3.773,0-1.35-.851-2.574-3-2.574-2.199,0-4.849,1.424-7.198,3.799-.449.45-.774.875-1.074,1.374-.15.25-.25.25-.575.176-.575-.2-1.175-.425-1.699-.675-.25-.101-.351-.15-.351-.5.15-2.899.476-5.849.775-8.073.1-.75.225-1.399.225-2.249.975.274,2.024.574,2.6.899ZM436.788,299.101c.125-.125.274-.2.475-.125,1.85.725,3.399,1.675,4.898,2.974.125.101.176.176.176.275,0,.075-.051.175-.125.3-.325.524-.851,1.25-1.275,1.75-.1.125-.199.199-.274.199-.101,0-.175-.05-.3-.175-1.4-1.225-3.074-2.374-5.049-3.249.6-.899,1.074-1.55,1.475-1.949Z"/><polyline class="cls-13" points="462.799 313.725 512.411 313.725 501.162 304.622"/><g id="_レイヤー_1-2"><polygon class="cls-1" points="223.061 18 153 68.04 167.391 68.04 167.391 135 278.731 135 278.731 68.04 293.121 68.04 223.061 18 223.061 18"/><polyline class="cls-11" points="223.061 26.856 271.516 61.464 271.516 68.04 271.516 127.798 174.605 127.798 174.605 68.04 174.605 61.464 223.061 26.856"/><polygon class="cls-1" points="318.939 18 223.061 18 223.084 18.503 291.656 68.331 389 68.331 318.939 18 318.939 18"/><polygon class="cls-1" points="374.61 67.054 277.802 67.054 277.802 135 374.61 135 374.61 67.054 374.61 67.054"/><path class="cls-11" d="M279.844,85.375h36.682v5.943h-15.176v13.307h16.517v6.026h-16.517v13.307h-6.54v-13.307h-16.517v-6.026h16.517v-13.307h-14.966v-5.943h0ZM287.642,92.07c1.509,2.636,3.438,8.202,4.066,10.546l-6.162,1.842c-.503-2.26-1.887-7.031-3.731-10.546l5.828-1.842h0ZM314.681,93.786c-.503,1.506-2.725,7.7-4.57,10.713l-5.911-1.967c1.929-3.18,3.48-7.993,4.192-10.42l6.288,1.674h0Z"/><path class="cls-11" d="M357.947,111.488c-.545-1.005-.671-1.172-1.551-2.595-.797.084-2.431.251-5.576.418v2.343h11.78v4.269h-11.78v2.343h13.247v4.813h-31.232v-4.813h11.78v-2.343h-10.02v-4.269h10.02v-2.05c-1.425.042-8.51.293-10.103.293l-.419-4.98c1.844,0,2.054-.042,2.809-.042.964-1.674,1.048-1.842,1.342-2.511h-4.821v1.255c0,13.224-2.641,17.827-4.025,20.254l-5.66-4.268c2.054-3.976,3.438-7.574,3.438-15.986v-18.245h35.424v10.839h-29.178v1.549h30.645v4.603h-5.115c2.138,2.469,2.851,3.306,4.569,6.11l-5.576,3.013h0ZM356.479,90.062h-23.057v1.967h23.057v-1.967ZM352.035,102.365h-6.959c-.671,1.255-.755,1.381-1.425,2.511,1.844,0,6.121,0,9.558-.293-.713-.879-1.132-1.298-1.803-1.925l.629-.293Z"/><path class="cls-11" d="M279.315,79.193c.012-.021.128-.453.346-1.3.219-.846.474-2.047.766-3.605.291-1.557.55-3.404.775-5.539.225-2.135.343-4.503.355-7.102v-6.467h2.826v6.467c0,2.868-.088,5.395-.264,7.581-.176,2.187-.398,4.018-.666,5.493-.268,1.475-.577,2.966-.93,4.471h-3.209ZM292.222,79.193h-3.045c-.462-1.506-.814-2.996-1.057-4.471-.243-1.475-.465-3.306-.665-5.493-.201-2.186-.301-4.713-.301-7.581v-6.467h2.826v6.467c.012,2.6.131,4.967.355,7.102.225,2.135.483,3.982.775,5.539.291,1.558.547,2.759.766,3.605.219.846.334,1.279.346,1.3h0Z"/><path class="cls-11" d="M293.626,69.539v-4.858h8.423v4.858h-8.423Z"/><path class="cls-11" d="M304.035,60.657v-4.951h11.175v4.549c-.024,3.032-.304,5.643-.838,7.829-.535,2.187-1.173,3.987-1.914,5.4-.742,1.413-1.525,2.512-2.352,3.296-.826.784-1.61,1.377-2.352,1.779-.742.402-1.346.66-1.814.774-.468.113-.708.16-.72.139v-4.951c.972-.248,1.817-.603,2.534-1.068.717-.464,1.431-1.201,2.142-2.213.711-1.011,1.291-2.367,1.741-4.069.449-1.702.704-3.873.766-6.514h-8.368Z"/><path class="cls-11" d="M324.399,80.617v-13.492c-.608,2.373-1.322,4.379-2.142,6.019-.82,1.64-1.604,2.971-2.352,3.992-.747,1.021-1.361,1.753-1.841,2.197-.48.443-.726.665-.738.665v-5.57c.012,0,.201-.196.565-.588.365-.392.838-1.026,1.422-1.903s1.187-2.052,1.814-3.528c.626-1.475,1.206-3.306,1.741-5.493h-5.542v-4.735h7.073v-3.868h2.844v3.868h2.078v4.735h-2.078v17.7h-2.844Z"/><path class="cls-11" d="M331.017,69.539v-4.858h8.423v4.858h-8.423Z"/><path class="cls-11" d="M347.279,54.314c-.061.598-.122,1.14-.183,1.625-.061.485-.097.748-.109.789h6.235v4.735c-.146,2.827-.495,5.281-1.048,7.365-.553,2.084-1.243,3.822-2.069,5.214-.827,1.393-1.665,2.538-2.516,3.435-.851.897-1.647,1.583-2.388,2.058-.741.474-1.343.799-1.805.975-.462.175-.699.252-.711.232v-5.013c.012,0,.225-.088.638-.263.413-.175.939-.49,1.577-.944.638-.453,1.303-1.088,1.996-1.903.693-.815,1.331-1.872,1.914-3.172h-3.373v-4.611h4.466c.194-1.196.31-2.362.346-3.497h-4.284c-.754,2.373-1.483,4.131-2.188,5.276s-1.282,1.996-1.732,2.553c-.45.557-.687.825-.711.805v-5.972c.012,0,.149-.19.41-.572.261-.382.565-.975.912-1.779.346-.805.681-1.81,1.003-3.017.322-1.207.574-2.646.756-4.317h2.862v-.002ZM350.013,55.614v-4.456h1.258v4.456h-1.258ZM351.982,55.614v-4.456h1.258v4.456h-1.258Z"/><path class="cls-11" d="M355.336,69.539v-4.858h8.423v4.858h-8.423Z"/><path class="cls-2" d="M187.375,112.875v-3.687h9.469v-2.471l-.157-.236h-9.312v-3.687h7.072l-8.408-13.531h6.129l7.387,12.472,7.386-12.472h6.13l-8.369,13.531h7.033v3.687h-9.312l-.157.236v2.471h9.469v3.687h-9.469v7.687h-5.422v-7.687h-9.469.002Z"/><rect class="cls-5" x="184.306" y="66.218" width="30.498" height="8.59"/><rect class="cls-5" x="195.119" y="54.701" width="8.871" height="31.623"/><path class="cls-12" d="M240.706,121.193c-11.36,0-21.357-7.371-21.357-24.041v-32.206c0-16.67,9.997-24.041,21.357-24.041s21.357,7.371,21.357,24.041v32.206c0,16.67-9.997,24.041-21.357,24.041ZM232.413,96.471c0,8.845,2.499,13.381,8.293,13.381s8.293-4.536,8.293-13.381v-30.845c0-8.845-2.499-13.381-8.293-13.381s-8.293,4.536-8.293,13.381v30.845Z"/><path class="cls-2" d="M240.706,121.193c-11.36,0-21.357-7.371-21.357-24.041v-32.206c0-16.67,9.997-24.041,21.357-24.041s21.357,7.371,21.357,24.041v32.206c0,16.67-9.997,24.041-21.357,24.041ZM232.413,96.471c0,8.845,2.499,13.381,8.293,13.381s8.293-4.536,8.293-13.381v-30.845c0-8.845-2.499-13.381-8.293-13.381s-8.293,4.536-8.293,13.381v30.845Z"/></g></g></svg>