<?xml version="1.0" encoding="UTF-8"?><svg id="_レイヤー_1" xmlns="http://www.w3.org/2000/svg" viewBox="0 0 234.394 41.758"><defs><style>.cls-1{fill:#004ea3;stroke-width:0px;}.cls-2{fill:none;stroke:#004ea3;stroke-miterlimit:10;stroke-width:2px;}</style></defs><path class="cls-1" d="M52.303,6.415c-.618-1.281-1.06-2.208-2.208-3.578,2.165-.397,4.064-.707,5.257-.707,1.148,0,1.502.309,1.502.927,0,.398-.044.839.044,1.237.132.53.309,1.148.707,2.208.53,1.325.927,2.385,1.501,3.578,4.02-.928,6.936-1.855,9.232-2.739.442-.221.575-.177.839.309.442.839.839,2.385,1.104,3.401.132.442-.044.663-.354.751-2.12.795-4.682,1.59-8.791,2.562,1.811,3.269,4.02,6.273,6.759,9.321.353.354.751.663,1.148.972.265.221.442.353.442.574,0,.309-.133.53-.265.751-.309.751-1.193,2.165-1.723,2.871-.353.486-.574.663-.883.663-.221,0-.354-.088-.707-.354-.574-.397-.972-.707-1.812-1.148-2.871-1.502-6.096-2.253-9.365-2.253-4.594,0-7.377,1.37-7.377,4.152,0,3.313,4.02,4.683,10.955,4.683,2.165,0,4.771-.221,7.068-.618-.177,1.767-.619,3.754-.928,4.727-.132.441-.309.53-.839.618-.795.133-3.048.31-4.903.31-10.425,0-16.035-3.313-16.035-9.145,0-5.036,4.329-8.569,11.618-8.569,3.578,0,6.052.53,7.863,1.192-2.165-2.032-3.932-4.461-5.699-7.819-2.783.486-5.345.839-8.525,1.104-1.193.088-3.225.221-4.329.221-.397,0-.574-.265-.707-.795-.441-1.37-.663-2.297-1.016-3.976,2.253.088,4.064.044,5.521-.044,1.855-.088,4.064-.354,6.979-.839-.751-1.59-1.369-2.871-2.076-4.55Z"/><path class="cls-1" d="M93.031,13.085c.486.221.707.486.707.839,0,.221-.088.441-.221.663-.397.707-.707,1.502-.884,2.341-.441,2.252-.883,5.521-1.06,8.04,4.064-4.108,9.365-6.979,14.754-6.979,6.449,0,10.292,3.755,10.292,9.453,0,4.815-2.871,7.996-6.67,9.895-2.959,1.502-7.509,2.562-11.309,3.048-.972.133-1.369.088-1.767-.574-.839-1.502-1.634-2.694-3.003-3.754,4.947-.31,9.188-1.149,12.147-2.474,3.578-1.546,5.213-3.843,5.213-6.67,0-2.386-1.502-4.55-5.301-4.55-3.888,0-8.57,2.518-12.722,6.714-.795.795-1.37,1.546-1.9,2.43-.265.442-.441.442-1.016.31-1.016-.354-2.076-.751-3.004-1.193-.442-.177-.619-.265-.619-.883.265-5.125.839-10.337,1.37-14.269.177-1.325.397-2.474.397-3.976,1.723.486,3.578,1.016,4.594,1.59ZM94.135,1.909c.221-.221.486-.354.839-.221,3.269,1.281,6.008,2.959,8.658,5.257.221.177.309.309.309.486,0,.132-.088.309-.221.53-.574.928-1.502,2.209-2.253,3.092-.177.221-.354.354-.486.354-.177,0-.309-.088-.53-.309-2.474-2.165-5.433-4.197-8.923-5.743,1.06-1.59,1.899-2.739,2.606-3.446Z"/><path class="cls-1" d="M135.482,5.841c.751.397,1.016.663,1.016,1.06,0,.309-.088.442-.662,1.325-.442.795-.663,1.414-1.061,3.137-1.236,5.478-1.855,10.911-1.855,14.268,0,2.165.089,3.622.266,5.168.928-2.032,1.723-3.49,3.004-6.582.354,1.104.928,1.811,1.546,2.783.133.221.31.486.31.663,0,.31-.089.486-.222.707-1.016,2.297-1.854,4.197-2.518,6.67-.088.265-.133.751-.133,1.369,0,.53.089.884.089,1.237,0,.31-.177.486-.574.575-1.104.309-2.342.574-3.622.707-.31.044-.486-.177-.575-.486-1.236-3.092-2.031-8.702-2.031-13.164,0-3.976.485-8.791,1.502-14.489.574-3.269.795-4.727.795-6.582,1.987.486,3.401.927,4.727,1.634ZM144.935,26.647c.354-.044.442.177.442.663.265,3.048,2.385,4.152,7.2,4.152,3.312,0,5.478-.221,8.438-.574.441-.044.529,0,.618.574.133.928.265,2.65.265,3.799,0,.53,0,.574-.751.663-3.004.354-5.124.486-7.2.486-6.538,0-9.586-1.06-11.485-3.667-1.104-1.414-1.546-3.667-1.546-5.743l4.02-.353ZM142.462,10.125c.044-.53.177-.663.619-.751,2.605-.486,7.554-.795,9.585-.795,2.65,0,4.683.088,6.538.265.928.044,1.016.132,1.016.574,0,1.325,0,2.518-.088,3.755-.044.397-.177.574-.574.53-2.65-.177-4.947-.265-7.2-.265-2.96,0-5.831.265-10.027,1.016.044-2.474.044-3.578.132-4.329Z"/><path class="cls-1" d="M191.097,29.164h-4.462l-1.236-26.283h6.891l-1.192,26.283ZM191.936,33.45v5.963h-6.272v-5.963h6.272Z"/><line class="cls-2" x1="233.5" y1=".447" x2="213.068" y2="41.31"/><line class="cls-2" x1=".894" y1=".447" x2="21.326" y2="41.31"/></svg>