<svg id="レイヤー_1" data-name="レイヤー 1" xmlns="http://www.w3.org/2000/svg" xmlns:xlink="http://www.w3.org/1999/xlink" viewBox="0 0 139 42"><defs><style>.cls-1{fill:url(#名称未設定グラデーション_142);}.cls-2{fill:url(#名称未設定グラデーション_2);}.cls-3{fill:#0a0000;}.cls-4{fill:#251e1c;}.cls-5{fill:#bf1c1b;}</style><linearGradient id="名称未設定グラデーション_142" x1="10.563" y1="52.437" x2="52.079" y2="10.921" gradientUnits="userSpaceOnUse"><stop offset="0" stop-color="#310000"/><stop offset="1" stop-color="#670000"/></linearGradient><linearGradient id="名称未設定グラデーション_2" x1="-10.783" y1="31.783" x2="30.831" y2="-9.831" gradientUnits="userSpaceOnUse"><stop offset="0" stop-color="#bf1c1b"/><stop offset="1" stop-color="#780000"/></linearGradient></defs><polygon class="cls-1" points="31.961 31.961 10.039 31.961 0 42 42 42 42 0 31.961 10.039 31.961 31.961"/><polygon class="cls-2" points="10.039 10.039 31.961 10.039 42 0 0 0 0 42 10.039 31.961 10.039 10.039"/><path class="cls-3" d="M52.8,8.835H51.336V7.647h4.293V8.835H54.161v3.706H52.8Z"/><path class="cls-3" d="M60.922,12.541a2.722,2.722,0,0,1-1.049-.2,2.6,2.6,0,0,1-.832-.542,2.49,2.49,0,0,1-.548-.8,2.462,2.462,0,0,1-.2-.986V10a2.48,2.48,0,0,1,.2-.989,2.454,2.454,0,0,1,.556-.811,2.629,2.629,0,0,1,.838-.546,2.864,2.864,0,0,1,2.1,0,2.587,2.587,0,0,1,.832.542,2.5,2.5,0,0,1,.549.8,2.458,2.458,0,0,1,.2.986V10a2.5,2.5,0,0,1-.755,1.8,2.637,2.637,0,0,1-.839.545A2.715,2.715,0,0,1,60.922,12.541Zm.011-1.224a1.238,1.238,0,0,0,.511-.1,1.168,1.168,0,0,0,.393-.284,1.3,1.3,0,0,0,.253-.416,1.407,1.407,0,0,0,.091-.5V10a1.416,1.416,0,0,0-.091-.5,1.3,1.3,0,0,0-.26-.419,1.273,1.273,0,0,0-.4-.29,1.271,1.271,0,0,0-1.021,0,1.23,1.23,0,0,0-.645.7,1.449,1.449,0,0,0-.087.5V10a1.385,1.385,0,0,0,.091.5,1.3,1.3,0,0,0,.256.42,1.238,1.238,0,0,0,.4.29A1.181,1.181,0,0,0,60.933,11.317Z"/><path class="cls-3" d="M68.852,12.541a3.8,3.8,0,0,1-1.249-.2,3.023,3.023,0,0,1-1.045-.612l.755-.9a2.49,2.49,0,0,0,1.587.587.815.815,0,0,0,.417-.087.276.276,0,0,0,.143-.248v-.014a.267.267,0,0,0-.035-.136.372.372,0,0,0-.129-.115,1.382,1.382,0,0,0-.252-.108c-.105-.035-.242-.071-.409-.108-.261-.061-.5-.127-.727-.2a2.213,2.213,0,0,1-.584-.279,1.266,1.266,0,0,1-.392-.426,1.281,1.281,0,0,1-.143-.632V9.042a1.511,1.511,0,0,1,.129-.628,1.389,1.389,0,0,1,.378-.5,1.779,1.779,0,0,1,.6-.324,2.51,2.51,0,0,1,.79-.115,3.531,3.531,0,0,1,1.122.165,2.817,2.817,0,0,1,.891.489l-.678.961a2.693,2.693,0,0,0-.689-.36,2.063,2.063,0,0,0-.681-.123.614.614,0,0,0-.367.091.271.271,0,0,0-.123.224V8.94a.272.272,0,0,0,.039.146.344.344,0,0,0,.133.115,1.475,1.475,0,0,0,.258.1c.11.035.248.071.416.108a6.115,6.115,0,0,1,.759.213,2.246,2.246,0,0,1,.577.3,1.189,1.189,0,0,1,.363.422,1.287,1.287,0,0,1,.126.59v.014a1.516,1.516,0,0,1-.143.67,1.45,1.45,0,0,1-.4.5,1.83,1.83,0,0,1-.622.314A2.848,2.848,0,0,1,68.852,12.541Z"/><path class="cls-3" d="M73.865,7.647h1.356V9.479h1.742V7.647h1.356v4.894H76.963v-1.86H75.221v1.86H73.865Z"/><path class="cls-3" d="M82.71,7.647h1.364v4.894H82.71Z"/><path class="cls-3" d="M88.325,7.647h1.268l2.018,2.587V7.647h1.336v4.894H91.756l-2.1-2.685v2.685H88.325Z"/><path class="cls-3" d="M99.017,12.541a2.463,2.463,0,0,1-.581-.063,1.982,1.982,0,0,1-.468-.175,1.9,1.9,0,0,1-.378-.262,1.989,1.989,0,0,1-.293-.325l.874-.825a1.744,1.744,0,0,0,.36.335.7.7,0,0,0,.4.119.517.517,0,0,0,.409-.171.76.76,0,0,0,.15-.514v-3.1h1.35v3.1a2.393,2.393,0,0,1-.119.8,1.54,1.54,0,0,1-.364.581,1.6,1.6,0,0,1-.583.37A2.17,2.17,0,0,1,99.017,12.541Z"/><path class="cls-3" d="M106.3,10.709l-1.859-3.062h1.545l1.007,1.783,1.014-1.783h1.517l-1.86,3.041v1.853H106.3Z"/><path class="cls-3" d="M114.733,12.541a3.111,3.111,0,0,1-.944-.133,1.83,1.83,0,0,1-.713-.409,1.8,1.8,0,0,1-.451-.7,2.853,2.853,0,0,1-.157-1V7.556h1.384v2.72a1.1,1.1,0,0,0,.243.786.858.858,0,0,0,.652.255.877.877,0,0,0,.652-.244,1.045,1.045,0,0,0,.243-.762V7.556h1.384v2.713a2.86,2.86,0,0,1-.164,1.024,1.772,1.772,0,0,1-1.182,1.115A3.136,3.136,0,0,1,114.733,12.541Z"/><path class="cls-3" d="M119.918,7.647h1.356V9.632l1.686-1.985h1.608l-1.853,2.1,1.916,2.79H123l-1.231-1.818-.5.552v1.266h-1.356Z"/><path class="cls-3" d="M127.463,7.647h3.929V8.8H128.8v.741h2.349v1.07H128.8v.776h2.629v1.154h-3.964Z"/><path class="cls-3" d="M134.378,7.647h1.268l2.018,2.587V7.647H139v4.894h-1.191l-2.1-2.685v2.685h-1.335Z"/><path class="cls-4" d="M63.5,25.23h-5.57V23.805H63.5Zm-8.623-5.016v1.272H63.5v1.151H56.343v6.3h5.915a20.639,20.639,0,0,1-7.623,3.9l.973,1.321A20.688,20.688,0,0,0,63.5,29.532v4.95h1.645V29.517a22.206,22.206,0,0,0,7.931,4.626l.956-1.321a20.411,20.411,0,0,1-7.644-3.883h6v-6.3h-7.24V21.486h8.643V20.214H65.144V18.756H63.5v1.458ZM63.5,27.789h-5.57V26.331H63.5ZM70.82,25.23H65.144V23.805H70.82Zm0,2.559H65.144V26.331H70.82Z"/><path class="cls-4" d="M100.055,34.515H98.406V25.689a10.276,10.276,0,0,1-1.706,1.78l-.856-1.6a14.5,14.5,0,0,0,4.17-7.153l1.668.238a15.74,15.74,0,0,1-1.627,4.2Zm9.353-12.59a21.235,21.235,0,0,0-4-2.154l1.016-1.117a16.377,16.377,0,0,1,4.029,2.067Zm5.207,1.56h-5.53v3.658h4.781v1.308h-4.781v4.184h5.978V33.96H101.3V32.635h6.079V28.451h-4.9V27.143h4.9V23.485h-5.613V22.162h12.852Z"/><path class="cls-4" d="M132.669,24.753h-3.458v-1.3h3.458Zm-3.458-5.979h-1.585v1.1h-4.19v1.153h4.19v1.286H122.1V23.45h5.53v1.3h-4.19v1.121h4.19v1.187h-4.837V28.2h4.837v1.3H122.1v1.152h5.53v1.559h1.585V30.652h6.2V29.5h-6.2V28.2h5.453V27.061h-5.453V25.874H134.2V23.45h1.322V22.314H134.2V19.875h-4.985Zm-2.338,14.015a17.783,17.783,0,0,1-1.89-.1,8.853,8.853,0,0,1-4.434-1.762,17.337,17.337,0,0,0,1.281-6.17h-3.314a18.82,18.82,0,0,0,3.294-4.065V19.452h-5.124v1.269h3.294a19.993,19.993,0,0,1-3.234,3.865v1.406h3.539a12.8,12.8,0,0,1-.753,3.628,9.335,9.335,0,0,1-1-2.733l-1.422.292a9.47,9.47,0,0,0,1.748,3.761,8.608,8.608,0,0,1-2.34,2.338l1,1.237a8.657,8.657,0,0,0,2.4-2.475,10.581,10.581,0,0,0,6.71,2.034h8.724l.347-1.3Zm5.8-10.475h-3.458V21.029h3.458Z"/><path class="cls-5" d="M84.4,30.588a11.664,11.664,0,0,1-2.77-2.22h3.32V27.13H81.431V25.35h3.883V24.114H83.26a24.537,24.537,0,0,0,.652-2.612h1.12V20.267h-3.6V18.755H79.867v1.512H75.859V21.5h1.486a16,16,0,0,1,.607,2.612H75.514V25.35h4.353v1.78H75.7v1.238h3.865a14.911,14.911,0,0,1-4.436,3.56L76,33.162a18.381,18.381,0,0,0,3.867-3.324v4.711h1.564V29.775a14.561,14.561,0,0,0,2.073,2Zm-4.964-6.474a20.868,20.868,0,0,0-.589-2.612h3.539a14.881,14.881,0,0,1-.613,2.612Z"/><path class="cls-5" d="M87.715,21.99,94.912,20l-4.346-1.248.762.954L86.1,21.16v0h-.007V26.3a13.332,13.332,0,0,1-.631,4.171A7.844,7.844,0,0,1,83.384,33.6l1.5.9c.893-.951,2.826-3.033,2.826-8.185v-.866h2.641v9.1h1.689v-9.1h2.177V24.165H87.715Z"/></svg>