<svg id="レイヤー_1" data-name="レイヤー 1" xmlns="http://www.w3.org/2000/svg" viewBox="0 0 843 149"><defs><style>.cls-1{fill:#df1614;}</style></defs><path class="cls-1" d="M293.22,67.518V51.825h31.393V67.518Zm62.786-8.37v71.143l-15.7,15.693H293.22V126.5h15.7v3.793h24.852l6.54-6.409V59.148ZM293.22,98.9V83.211h31.393V98.9Z"/><path class="cls-1" d="M426.772,130.16v15.693H363.986V130.16h23.545V83.211h-15.7V67.518h47.089V83.211h-15.7V130.16Z"/><path class="cls-1" d="M434.622,145.853V51.825h12.557v94.028Zm62.785-62.642V130.16l-15.7,15.693H456.466V51.825h15.7V130.16h3.008l6.54-6.408V83.211Z"/><path class="cls-1" d="M507.873,98.9V83.211h1.308l6.541-6.539V51.825h54.937v78.466l-15.7,15.693H515.722V130.291h32.7l6.541-6.539v-17H539.005V91.058h15.958V67.518H531.418V83.211L515.722,98.9Z"/><path class="cls-1" d="M629.684,90.011v15.694H579.452V90.011Z"/><path class="cls-1" d="M652.154,146.114H635.541l7.849-94.159H660Zm29.431,0h16.742l-7.848-94.159H673.736Z"/><path class="cls-1" d="M768.964,130.421l-15.7,15.693h-39.11V130.421h32.7l6.409-6.539V76.672H722.005V92.234h-15.7V60.979h23.544V51.955h15.7v9.024h23.414Z"/><path class="cls-1" d="M823.9,101.127l18.706,44.857H824.3l-10.988-26.025-14.78,26.025H780.214V130.291h9.157l34.008-60.158-2.616-2.615H780.214V51.825H827.3L843,67.518Z"/><rect class="cls-1" x="225.898" y="73.571" width="29.299" height="8.201"/><path class="cls-1" d="M259.258,135.819h-35.4q-4.847,0-4.847-5.274v-1.171h49.075V88.51H154.115v40.864h49.369v3.075q0,6.888,3.719,10.619T217.49,146.8h43.334a49,49,0,0,0,8.242-.659,18.665,18.665,0,0,0,6.347-2.124V131.571a26,26,0,0,1-7.491,3.148A34.52,34.52,0,0,1,259.258,135.819ZM219.013,97.444h32.961v6.885H219.013Zm0,15.965h32.961v6.884H219.013Zm-15.529,6.884H170.375v-6.884h33.109Zm0-15.964H170.375V97.444h33.109Z"/><polygon class="cls-1" points="219.013 41.055 219.013 34.025 271.898 34.025 271.898 22.6 150.305 22.6 150.305 34.025 203.484 34.025 203.484 41.055 146.79 41.055 146.79 75.914 160.561 75.914 160.561 51.6 203.484 51.6 203.484 81.772 219.013 81.772 219.013 51.6 261.643 51.6 261.643 75.914 275.413 75.914 275.413 41.055 219.013 41.055"/><rect class="cls-1" x="225.898" y="58.631" width="29.299" height="7.91"/><rect class="cls-1" x="167.152" y="73.571" width="29.593" height="8.201"/><rect class="cls-1" x="167.152" y="58.631" width="29.593" height="7.91"/><path class="cls-1" d="M134.838,19.64,107.079,40.632a.84.84,0,0,0,.073,1.389l8.556,5.16-6.168,9.043-9.482-4.33q-3.518-2.2-5.128-3.223-2.784-1.9-4.98-3.661l-.6-.61,24.8-17.662a.84.84,0,0,0-.053-1.4L104.66,19.63,117.1,1.312A.84.84,0,0,0,115.9.17L88.141,21.162a.84.84,0,0,0,.073,1.389l8.556,5.16-9.76,14.31-5.7-5.8a58.586,58.586,0,0,1-5.128-6.444A69.24,69.24,0,0,1,71.931,22.6H7.619V36.075h39.7A52.061,52.061,0,0,1,38.9,45.3a65.549,65.549,0,0,1-10.768,7.47L16.994,40.616H0L15.676,58.045q-5.423,1.465-9.083,2.124T.44,61.121V77.086q4.4-.584,10.036-1.831a77.007,77.007,0,0,0,9.3-2.564V78.4H34.135v18.6H2.051V111.8H32.962q-2.345,10.252-9.523,15.232Q15.531,132.6.44,132.6V149q22.706,0,35.744-11.131Q47.172,128.5,50.4,111.8H76.911v19.041a15.587,15.587,0,0,0,4.908,11.644,16.879,16.879,0,0,0,12.233,4.76h20.069q8.789,0,14.8-3.516V126.591a19.871,19.871,0,0,1-6.958,3.735,30.668,30.668,0,0,1-8.13.952H98.738a4.4,4.4,0,0,1-3.148-1.172,3.85,3.85,0,0,1-1.246-2.929V111.8H127.16V97.005H94.344V78.4h15.09V72.838a69.536,69.536,0,0,0,8.863,2.637q4.026.878,10.62,2.05V61.414a62.471,62.471,0,0,1-13.288-2.772l17.459-12.433a.84.84,0,0,0-.053-1.4L123.6,39.1,136.04,20.782a.84.84,0,0,0-1.2-1.142ZM76.911,97.005H51.42V78.4H76.911ZM38.675,63.611a74.133,74.133,0,0,0,15.09-11.864A82.1,82.1,0,0,0,64.459,38.565a90.782,90.782,0,0,0,11.72,14.281A70.864,70.864,0,0,0,90.1,63.611Z"/></svg>