<svg id="レイヤー_1" data-name="レイヤー 1" xmlns="http://www.w3.org/2000/svg" xmlns:xlink="http://www.w3.org/1999/xlink" viewBox="0 0 254 77"><defs><style>.cls-1{fill:none;}.cls-2{clip-path:url(#clip-path);}.cls-3{clip-path:url(#clip-path-2);}.cls-4{fill:url(#名称未設定グラデーション_14);}.cls-5{clip-path:url(#clip-path-3);}.cls-6{fill:url(#名称未設定グラデーション_15);}.cls-7{fill:#231815;}.cls-8{fill:#df1614;}</style><clipPath id="clip-path"><rect class="cls-1" width="254" height="77"/></clipPath><clipPath id="clip-path-2"><polygon class="cls-1" points="58.598 58.598 18.407 58.598 0 77 77 77 77 0 58.598 18.406 58.598 58.598"/></clipPath><linearGradient id="名称未設定グラデーション_14" x1="0.115" y1="76.885" x2="76.228" y2="0.772" gradientUnits="userSpaceOnUse"><stop offset="0" stop-color="#390000"/><stop offset="1" stop-color="#7a0000"/></linearGradient><clipPath id="clip-path-3"><polygon class="cls-1" points="18.407 18.406 58.598 18.406 77 0 0 0 0 77 18.407 58.598 18.407 18.406"/></clipPath><linearGradient id="名称未設定グラデーション_15" x1="-0.548" y1="77.492" x2="75.745" y2="1.199" gradientUnits="userSpaceOnUse"><stop offset="0" stop-color="#df1514"/><stop offset="1" stop-color="#8c0000"/></linearGradient></defs><g class="cls-2"><g class="cls-3"><rect class="cls-4" width="77" height="77"/></g><g class="cls-5"><polygon class="cls-6" points="0 0 0 77 76.889 77 77 0 0 0"/></g><polygon class="cls-7" points="95.974 16.2 93.282 16.2 93.282 14.019 101.153 14.019 101.153 16.2 98.461 16.2 98.461 22.995 95.974 22.995 95.974 16.2"/><path class="cls-7" d="M110.859,22.993a4.934,4.934,0,0,1-1.923-.363,4.8,4.8,0,0,1-1.53-1,4.626,4.626,0,0,1-1.005-1.473,4.5,4.5,0,0,1-.362-1.809V18.33a4.538,4.538,0,0,1,.362-1.814,4.586,4.586,0,0,1,1.023-1.49,4.821,4.821,0,0,1,1.534-1,5.272,5.272,0,0,1,3.845,0,4.71,4.71,0,0,1,1.526,1,4.6,4.6,0,0,1,1.009,1.472,4.489,4.489,0,0,1,.363,1.81v.026a4.534,4.534,0,0,1-.363,1.813,4.623,4.623,0,0,1-1.018,1.486,4.9,4.9,0,0,1-1.539,1,4.961,4.961,0,0,1-1.922.363m.017-2.242a2.283,2.283,0,0,0,.94-.193,2.128,2.128,0,0,0,.716-.52,2.337,2.337,0,0,0,.464-.76,2.541,2.541,0,0,0,.17-.926V18.33A2.542,2.542,0,0,0,113,17.4a2.378,2.378,0,0,0-.477-.769,2.348,2.348,0,0,0-.729-.529,2.169,2.169,0,0,0-.94-.2,2.228,2.228,0,0,0-.931.193,2.188,2.188,0,0,0-.721.52,2.3,2.3,0,0,0-.463.764,2.677,2.677,0,0,0-.162.923v.026a2.515,2.515,0,0,0,.171.922,2.422,2.422,0,0,0,.467.769,2.319,2.319,0,0,0,.726.533,2.218,2.218,0,0,0,.939.2"/><path class="cls-7" d="M125.394,22.994a6.992,6.992,0,0,1-2.29-.376A5.541,5.541,0,0,1,121.19,21.5l1.385-1.66a4.545,4.545,0,0,0,2.906,1.079,1.447,1.447,0,0,0,.765-.162.5.5,0,0,0,.262-.454v-.026a.487.487,0,0,0-.065-.249.639.639,0,0,0-.236-.21,2.116,2.116,0,0,0-.459-.2c-.192-.065-.446-.131-.752-.2-.476-.109-.922-.231-1.333-.363a4.234,4.234,0,0,1-1.07-.511,2.188,2.188,0,0,1-.979-1.94v-.026a2.767,2.767,0,0,1,.236-1.15,2.554,2.554,0,0,1,.69-.909,3.25,3.25,0,0,1,1.1-.594,4.527,4.527,0,0,1,1.451-.214,6.31,6.31,0,0,1,2.054.306,5.088,5.088,0,0,1,1.634.9l-1.241,1.761a4.935,4.935,0,0,0-1.263-.66,3.831,3.831,0,0,0-1.25-.227,1.1,1.1,0,0,0-.673.17.489.489,0,0,0-.222.406v.027a.477.477,0,0,0,.07.266.6.6,0,0,0,.24.214,2.79,2.79,0,0,0,.476.193c.2.061.455.131.761.2a11.75,11.75,0,0,1,1.394.389,4.326,4.326,0,0,1,1.057.546,2.206,2.206,0,0,1,.664.774,2.305,2.305,0,0,1,.232,1.079v.027a2.757,2.757,0,0,1-.262,1.228,2.631,2.631,0,0,1-.739.917,3.39,3.39,0,0,1-1.14.577,5.236,5.236,0,0,1-1.486.2"/><polygon class="cls-7" points="134.585 14.02 137.072 14.02 137.072 17.381 140.266 17.381 140.266 14.02 142.753 14.02 142.753 22.992 140.266 22.992 140.266 19.584 137.072 19.584 137.072 22.992 134.585 22.992 134.585 14.02"/><rect class="cls-7" x="150.8" y="14.019" width="2.5" height="8.972"/><polygon class="cls-7" points="161.095 14.02 163.42 14.02 167.122 18.762 167.122 14.02 169.569 14.02 169.569 22.992 167.384 22.992 163.542 18.071 163.542 22.992 161.095 22.992 161.095 14.02"/><path class="cls-7" d="M180.7,22.994a4.592,4.592,0,0,1-1.062-.114,3.559,3.559,0,0,1-.861-.323,3.357,3.357,0,0,1-.69-.481,3.786,3.786,0,0,1-.542-.594l1.6-1.512a3.251,3.251,0,0,0,.66.612,1.278,1.278,0,0,0,.738.218.952.952,0,0,0,.747-.31,1.377,1.377,0,0,0,.276-.944V13.865h2.477v5.694a4.414,4.414,0,0,1-.218,1.46,2.789,2.789,0,0,1-.669,1.066,2.926,2.926,0,0,1-1.07.677,4,4,0,0,1-1.39.232"/><polygon class="cls-7" points="194.051 19.635 190.642 14.02 193.474 14.02 195.318 17.289 197.18 14.02 199.959 14.02 196.55 19.596 196.55 22.996 194.051 22.996 194.051 19.635"/><path class="cls-7" d="M209.51,22.994a5.714,5.714,0,0,1-1.73-.245,3.188,3.188,0,0,1-2.133-2.032,5.225,5.225,0,0,1-.288-1.827V13.852h2.535v4.986a2.039,2.039,0,0,0,.445,1.446,1.578,1.578,0,0,0,1.2.468,1.609,1.609,0,0,0,1.193-.45,1.9,1.9,0,0,0,.445-1.4V13.852h2.539v4.977a5.236,5.236,0,0,1-.3,1.875,3.223,3.223,0,0,1-2.168,2.045,5.762,5.762,0,0,1-1.735.245"/><polygon class="cls-7" points="219.016 14.02 221.503 14.02 221.503 17.661 224.592 14.02 227.542 14.02 224.142 17.879 227.656 22.992 224.671 22.992 222.412 19.662 221.503 20.672 221.503 22.992 219.016 22.992 219.016 14.02"/><polygon class="cls-7" points="232.848 14.02 240.054 14.02 240.054 16.136 235.295 16.136 235.295 17.495 239.604 17.495 239.604 19.457 235.295 19.457 235.295 20.877 240.116 20.877 240.116 22.992 232.848 22.992 232.848 14.02"/><polygon class="cls-7" points="245.527 14.02 247.851 14.02 251.553 18.762 251.553 14.02 254 14.02 254 22.992 251.815 22.992 247.974 18.071 247.974 22.992 245.527 22.992 245.527 14.02"/><path class="cls-7" d="M115.582,46.257H105.369V43.644h10.213ZM99.771,37.062v2.329h15.811V41.5H102.463V53.057h10.842c-3.544,3.172-8.608,5.5-13.975,7.149l1.783,2.421c5.524-1.919,11.113-4.938,14.469-8.482v9.076H118.6v-9.1A40.664,40.664,0,0,0,133.137,62.6l1.752-2.421c-4.173-1.149-10.213-3.666-14.015-7.118h11V41.5H118.6V39.391h15.845V37.062H118.6V34.388h-3.016v2.674ZM115.582,50.95H105.369V48.28h10.213ZM129,46.257h-10.41V43.644H129Zm0,4.693h-10.41V48.28H129Z"/><path class="cls-7" d="M182.6,63.279h-3.024V47.1a18.652,18.652,0,0,1-3.129,3.264l-1.569-2.923c3.356-2.858,6.411-8.046,7.648-13.115l3.054.437a28.861,28.861,0,0,1-2.98,7.709ZM199.746,40.2A38.892,38.892,0,0,0,192.4,36.25L194.27,34.2a30.084,30.084,0,0,1,7.385,3.789Zm9.548,2.863H199.156v6.7h8.766v2.4h-8.766v7.673h10.96v2.426H184.879V59.835h11.143V52.162h-8.98v-2.4h8.98v-6.7H185.731V40.634h23.563Z"/><path class="cls-7" d="M242.392,45.383h-6.341V42.992h6.341Zm-6.337-10.965h-2.906v2.024h-7.682v2.111h7.682v2.359H223.011v2.08h10.138v2.391h-7.682v2.054h7.682v2.176h-8.871v2.08h8.871v2.4H223.011V56.2h10.138v2.858h2.906V56.2h11.376V54.088H236.055v-2.4h10v-2.08h-10V47.437h9.138V42.992h2.425v-2.08h-2.425v-4.47h-9.138Zm-4.287,25.7a32.745,32.745,0,0,1-3.465-.188,16.177,16.177,0,0,1-8.128-3.233,31.792,31.792,0,0,0,2.346-11.31h-6.074a34.756,34.756,0,0,0,6.039-7.451V35.664h-9.395v2.329h6.039a36.736,36.736,0,0,1-5.93,7.084v2.578h6.49a23.693,23.693,0,0,1-1.381,6.651,17.094,17.094,0,0,1-1.827-5.012l-2.6.538a17.381,17.381,0,0,0,3.2,6.9,15.759,15.759,0,0,1-4.292,4.282l1.827,2.268a15.818,15.818,0,0,0,4.4-4.536c3.168,2.644,7.787,3.728,12.3,3.728h15.994l.634-2.391Zm10.624-19.2h-6.341V38.557h6.341Z"/><path class="cls-8" d="M153.9,56.081a21.482,21.482,0,0,1-5.078-4.073h6.088V49.74h-6.455V46.48h7.119V44.212h-3.767a44.9,44.9,0,0,0,1.2-4.79h2.054V37.158h-6.6v-2.77h-2.867v2.77h-7.35v2.264h2.727a29.958,29.958,0,0,1,1.114,4.79h-4.47V46.48h7.979v3.26h-7.647v2.268h7.084a27.261,27.261,0,0,1-8.128,6.529l1.6,2.263a33.634,33.634,0,0,0,7.088-6.1v8.64h2.867V54.59a26.586,26.586,0,0,0,3.8,3.667Zm-9.1-11.869a38.229,38.229,0,0,0-1.08-4.79h6.486a27.093,27.093,0,0,1-1.123,4.79Z"/><path class="cls-8" d="M159.977,40.317l13.194-3.641L165.2,34.387l1.4,1.748L157.01,38.8v0H157v9.413a24.413,24.413,0,0,1-1.158,7.648,14.317,14.317,0,0,1-3.8,5.747l2.762,1.647c1.634-1.744,5.178-5.559,5.178-15.007V46.662h4.842v16.68h3.094V46.662h3.995V44.307H159.977Z"/></g></svg>