<?xml version="1.0" encoding="UTF-8"?><svg id="_レイヤー_1" xmlns="http://www.w3.org/2000/svg" viewBox="0 0 240 94.231"><defs><style>.cls-1{fill:#6a0000;}.cls-1,.cls-2,.cls-3,.cls-4,.cls-5{stroke-width:0px;}.cls-2{fill:#c40018;}.cls-3{fill:#c3ba9b;}.cls-4{fill:#251e1c;}.cls-5{fill:#746957;}</style></defs><polygon class="cls-3" points="78.526 31.41 52.739 57.197 40.94 45.398 25.235 61.104 52.739 88.608 94.231 47.115 78.526 31.41"/><rect class="cls-5" x="16.727" y="73.691" width="38.896" height="7.952" transform="translate(65.514 -2.831) rotate(45)"/><rect class="cls-1" x="46.183" y="31.796" width="8.561" height="18.032" transform="translate(-14.078 47.637) rotate(-45)"/><polygon class="cls-2" points="75.571 28.456 47.115 0 0 47.115 15.705 62.821 47.115 31.41 59.866 44.161 75.571 28.456"/><polygon class="cls-4" points="124.101 20.293 124.101 15.877 103.732 15.877 103.732 20.293 111.291 20.293 111.291 43.008 116.542 43.008 116.542 20.293 124.101 20.293"/><path class="cls-4" d="M138.182,15.518c-8.204,0-12.721,4.253-12.721,11.974v3.899c0,7.722,4.518,11.974,12.721,11.974s12.77-4.253,12.77-11.974v-3.899c0-7.722-4.535-11.974-12.77-11.974ZM145.701,31.392c0,5.113-2.461,7.598-7.524,7.598-5.023,0-7.465-2.485-7.465-7.598v-3.899c0-5.113,2.442-7.598,7.465-7.598,5.063,0,7.524,2.485,7.524,7.598v3.899Z"/><path class="cls-4" d="M164.069,43.366c5.829,0,9.309-2.93,9.309-7.837,0-4.542-2.221-6.786-8.194-8.279-3.503-.876-5.531-1.839-5.531-4.172,0-2.022,1.464-3.182,4.017-3.182,2.615,0,4.159.765,5.454,2.718l3.917-2.798c-1.902-2.851-5.067-4.296-9.41-4.296-5.866,0-9.23,2.755-9.23,7.559,0,4.345,2.466,6.935,7.998,8.399,4.282,1.109,5.727,2.192,5.727,4.291,0,1.203-.574,3.223-4.416,3.223-2.671,0-4.42-.781-5.997-2.689l-3.998,2.765c2.329,2.973,5.531,4.301,10.354,4.301Z"/><polygon class="cls-4" points="195.057 43.008 200.308 43.008 200.308 15.877 195.057 15.877 195.057 26.777 182.625 26.777 182.625 15.877 177.374 15.877 177.374 43.008 182.625 43.008 182.625 31.153 195.057 31.153 195.057 43.008"/><rect class="cls-4" x="206.821" y="15.877" width="5.251" height="27.132"/><polygon class="cls-4" points="235.587 43.008 240 43.008 240 15.877 235.027 15.877 235.027 33.455 222.957 15.877 218.585 15.877 218.585 43.008 223.558 43.008 223.558 25.672 235.587 43.008"/><polygon class="cls-4" points="136.036 51.223 131.002 61.655 126.01 51.223 119.929 51.223 128.378 67.255 128.378 78.354 133.629 78.354 133.629 67.255 142.077 51.223 136.036 51.223"/><path class="cls-4" d="M156.038,78.712c6.696,0,10.383-4.027,10.383-11.338v-16.151h-5.251v16.191c0,4.787-1.583,6.922-5.132,6.922s-5.131-2.135-5.131-6.922v-16.191h-5.252v16.191c0,9.83,6.505,11.298,10.383,11.298Z"/><polygon class="cls-4" points="180.837 66.653 187.913 78.354 194.183 78.354 184.25 62.153 192.516 51.223 186.313 51.223 177.401 63.405 177.401 51.223 172.15 51.223 172.15 78.354 177.401 78.354 177.401 71.179 180.837 66.653"/><polygon class="cls-4" points="202.871 55.639 214.407 55.639 214.407 51.223 197.62 51.223 197.62 78.354 214.407 78.354 214.407 73.978 202.871 73.978 202.871 66.499 213.214 66.499 213.214 62.123 202.871 62.123 202.871 55.639"/><path class="cls-4" d="M116.543,73.421v-22.198h-5.252v22.198c0,4.521-1.233,6.364-4.256,6.364h-3.302v4.377h3.66c6.157,0,9.15-3.514,9.15-10.741Z"/><polygon class="cls-4" points="235.587 78.354 240 78.354 240 51.223 235.027 51.223 235.027 68.801 222.957 51.223 218.585 51.223 218.585 78.354 223.558 78.354 223.558 61.018 235.587 78.354"/></svg>