<svg id="レイヤー_1" data-name="レイヤー 1" xmlns="http://www.w3.org/2000/svg" viewBox="0 0 328 31.539"><defs><style>.cls-1{fill:#505050;}</style></defs><path class="cls-1" d="M52.279,31.475q-5.829,0-8.174-4.082T41.76,15.758q0-7.551,2.345-11.655T52.279,0q5.827,0,8.184,4.1Q62.8,8.206,62.8,15.758T60.452,27.393Q58.108,31.476,52.279,31.475Zm3.513-7.68a29.968,29.968,0,0,0,.821-8.037A29.433,29.433,0,0,0,55.782,7.6a3.4,3.4,0,0,0-3.5-2.652A3.444,3.444,0,0,0,48.744,7.6a28.411,28.411,0,0,0-.862,8.162,28.742,28.742,0,0,0,.862,8.048,3.62,3.62,0,0,0,7.048-.011Z"/><path class="cls-1" d="M68.96,28.8a9.021,9.021,0,0,1-2.63-6.544A9.345,9.345,0,0,1,67.5,17.61a7.394,7.394,0,0,1,3.419-3.135,7.116,7.116,0,0,1-2.872-3.188,8.939,8.939,0,0,1-.662-3.208,7.489,7.489,0,0,1,2.5-5.67Q72.39.065,76.955.063t7.07,2.346a7.489,7.489,0,0,1,2.5,5.67,8.92,8.92,0,0,1-.663,3.208,6.127,6.127,0,0,1-2.872,2.978A8.449,8.449,0,0,1,86.38,17.61a9.54,9.54,0,0,1,1.137,4.649,8.7,8.7,0,0,1-2.851,6.554q-2.851,2.7-7.964,2.7T68.96,28.8Zm3.6-6.943a4.9,4.9,0,0,0,1.168,3.492,4.823,4.823,0,0,0,6.459,0,4.9,4.9,0,0,0,1.167-3.492,4.853,4.853,0,0,0-1.189-3.545,4.859,4.859,0,0,0-6.417,0A4.857,4.857,0,0,0,72.558,21.86Zm1.578-10.393a4.316,4.316,0,0,0,5.648,0,3.783,3.783,0,0,0,1-2.715,3.872,3.872,0,0,0-1-2.829A3.777,3.777,0,0,0,76.955,4.9a3.822,3.822,0,0,0-2.83,1.021,3.821,3.821,0,0,0-1.02,2.829A3.713,3.713,0,0,0,74.136,11.467Z"/><path class="cls-1" d="M101.843,31.475q-5.829,0-8.174-4.082T91.324,15.758q0-7.551,2.345-11.655T101.843,0q5.827,0,8.184,4.1,2.336,4.1,2.335,11.655t-2.346,11.635Q107.672,31.476,101.843,31.475Zm3.513-7.68a29.968,29.968,0,0,0,.821-8.037,29.433,29.433,0,0,0-.831-8.162,3.4,3.4,0,0,0-3.5-2.652A3.444,3.444,0,0,0,98.308,7.6a28.411,28.411,0,0,0-.862,8.162,28.742,28.742,0,0,0,.862,8.048,3.62,3.62,0,0,0,7.048-.011Z"/><path class="cls-1" d="M126.969,31.475q-5.827,0-8.173-4.082T116.45,15.758q0-7.551,2.346-11.655T126.969,0q5.828,0,8.184,4.1,2.336,4.1,2.335,11.655t-2.346,11.635Q132.8,31.476,126.969,31.475Zm3.513-7.68a29.968,29.968,0,0,0,.821-8.037,29.433,29.433,0,0,0-.831-8.162,3.4,3.4,0,0,0-3.5-2.652A3.444,3.444,0,0,0,123.434,7.6a28.411,28.411,0,0,0-.862,8.162,28.742,28.742,0,0,0,.862,8.048,3.62,3.62,0,0,0,7.048-.011Z"/><path class="cls-1" d="M140.056,15.863h12.076v5.681H140.056Z"/><path class="cls-1" d="M169.72,30.717h-6.143V9.678H156.4V5.6a26.6,26.6,0,0,0,3.977-.379,5.613,5.613,0,0,0,2.945-1.6A5.267,5.267,0,0,0,164.5,1.431a5.039,5.039,0,0,0,.232-1.22h4.986Z"/><path class="cls-1" d="M193.511,10.015a42.083,42.083,0,0,0-4.017,7.027,41.593,41.593,0,0,0-2.315,6.943,28.842,28.842,0,0,0-1.031,6.732H179.92q.275-8.2,5.386-17.063A40.366,40.366,0,0,1,190.839,6H175.628L175.712.61h21.544V5.3A38.333,38.333,0,0,0,193.511,10.015Z"/><path class="cls-1" d="M210.191,31.475q-5.829,0-8.174-4.082t-2.346-11.635q0-7.551,2.346-11.655T210.191,0q5.827,0,8.184,4.1,2.334,4.1,2.335,11.655t-2.346,11.635Q216.02,31.476,210.191,31.475ZM213.7,23.8a29.968,29.968,0,0,0,.821-8.037,29.433,29.433,0,0,0-.831-8.162,3.4,3.4,0,0,0-3.5-2.652A3.444,3.444,0,0,0,206.656,7.6a28.411,28.411,0,0,0-.862,8.162,28.742,28.742,0,0,0,.862,8.048A3.62,3.62,0,0,0,213.7,23.8Z"/><path class="cls-1" d="M223.277,15.863h12.076v5.681H223.277Z"/><path class="cls-1" d="M248.124,15.57a5.845,5.845,0,0,0-1.893.273,3.757,3.757,0,0,0-2.125,1.872l-5.386-.252L240.865.61h16.811V5.7H245.2l-1.093,6.669a12.518,12.518,0,0,1,2.167-1.2,9.182,9.182,0,0,1,3.176-.484,9.546,9.546,0,0,1,6.607,2.546q2.819,2.545,2.819,7.406a11.618,11.618,0,0,1-2.715,7.553q-2.712,3.324-8.12,3.324a10.78,10.78,0,0,1-7.153-2.336,9.074,9.074,0,0,1-3.115-6.627h5.976a5.785,5.785,0,0,0,1.367,3.02,3.876,3.876,0,0,0,2.946,1.062,3.974,3.974,0,0,0,3.4-1.567,6.422,6.422,0,0,0,1.168-3.946,6.853,6.853,0,0,0-1.094-3.944A3.83,3.83,0,0,0,248.124,15.57Z"/><path class="cls-1" d="M274.793,30.717h-6.142V9.678h-7.175V5.6a26.583,26.583,0,0,0,3.976-.379,5.616,5.616,0,0,0,2.946-1.6,5.279,5.279,0,0,0,1.178-2.188,5.025,5.025,0,0,0,.231-1.22h4.986Z"/><path class="cls-1" d="M292.6,31.475q-5.828,0-8.174-4.082t-2.345-11.635q0-7.551,2.345-11.655T292.6,0q5.827,0,8.184,4.1,2.336,4.1,2.335,11.655t-2.346,11.635Q298.424,31.476,292.6,31.475Zm3.513-7.68a29.968,29.968,0,0,0,.821-8.037A29.433,29.433,0,0,0,296.1,7.6a3.4,3.4,0,0,0-3.5-2.652A3.444,3.444,0,0,0,289.06,7.6a28.411,28.411,0,0,0-.862,8.162,28.742,28.742,0,0,0,.862,8.048,3.62,3.62,0,0,0,7.048-.011Z"/><path class="cls-1" d="M328,19.461v4.692h-3.45v6.564h-5.87V24.153H306.6V18.914L317.817.4h6.733V19.461Zm-16.957,0h7.637V6.291Z"/><path class="cls-1" d="M0,24.144H35.705V2.513H0Zm12.506-.725H8.078V8.057a4.83,4.83,0,0,1,4.941-4.95h5.214V7.148H14.2a1.585,1.585,0,0,0-1.69,1.43v2.674h11.66v4.032H12.506Zm15.006.019H25.344A4.832,4.832,0,0,1,20.4,18.487V16.24l3.774-.01v2.1a1.068,1.068,0,0,0,1.162,1.07h2.175Zm0-16.29H25.337a1.067,1.067,0,0,0-1.162,1.073V10.31H20.4V8.057a4.832,4.832,0,0,1,4.943-4.95h2.168Z"/><path class="cls-1" d="M5.38,26.487a5.318,5.318,0,0,1-.971,3.222A4.884,4.884,0,0,1,1.355,31.4l-.426-.913c2.679-.471,3.113-1.818,3.322-3.049H.5v-.95Z"/><path class="cls-1" d="M7.4,29.613H6.389V26.3H7.4Zm2.908-.914c0,2.308-1.806,2.571-3.245,2.737L6.7,30.51a5.014,5.014,0,0,0,2.054-.482,1.369,1.369,0,0,0,.538-1.19V26.2h1.022Z"/><rect class="cls-1" x="11.339" y="28.236" width="5.319" height="1.008"/><polygon class="cls-1" points="22.061 26.579 22.061 31.024 17.497 31.024 17.497 30.076 21.047 30.076 21.047 27.518 17.561 27.518 17.561 26.579 22.061 26.579"/><rect class="cls-1" x="23.162" y="28.236" width="5.32" height="1.008"/><path class="cls-1" d="M30.9,27.8a10.085,10.085,0,0,1-.185,2,3.183,3.183,0,0,1-.907,1.744l-.757-.785a2.313,2.313,0,0,0,.736-1.359,8.026,8.026,0,0,0,.146-1.484V26.4H30.9Zm1.648,2.349a1.483,1.483,0,0,0,.914-.786,3.663,3.663,0,0,0,.412-1.3l.905.437a3.756,3.756,0,0,1-1.028,2.03,3.237,3.237,0,0,1-2.161.827V26.2h.958Z"/></svg>