<svg id="レイヤー_1" data-name="レイヤー 1" xmlns="http://www.w3.org/2000/svg" viewBox="0 0 608 100"><defs><style>.cls-1{fill:#004ea3;}</style></defs><path class="cls-1" d="M134.973,18.486c-.258,4.8-.858,7.677-2.531,10.937a21.61,21.61,0,0,1-7.548,8.106,2.617,2.617,0,0,1-1.287.515,1.264,1.264,0,0,1-.9-.429,11.261,11.261,0,0,0-3.818-2.273c4.2-2.273,6.734-4.375,8.536-7.635,1.586-2.83,2.015-5.146,2.187-9.221h-8.15c-2.143,0-4.245.128-6.433.257-.385.043-.514-.257-.557-.815a25.744,25.744,0,0,1-.343-4.117c2.4.214,4.8.214,7.291.214h19.256c3.346,0,5.833-.086,8.364-.257.429,0,.472.257.472.858.042.557.042,2.745,0,3.3,0,.558-.258.729-.643.729-2.23-.085-5.19-.171-8.149-.171ZM126.48,8.535c-1.972,0-3.688.086-6.09.172-.557,0-.686-.215-.728-.729-.13-1.03-.172-2.574-.3-4.118,3,.172,5.189.215,7.119.215h9.608c2.4,0,5.1-.043,7.248-.172.428,0,.515.257.515.815a19.254,19.254,0,0,1,0,3.131c0,.6-.087.815-.558.815-2.316-.086-4.847-.129-7.205-.129Z"/><path class="cls-1" d="M181.765,28.008c0,2.959.043,5.49.129,8.921.043.557-.172.729-.644.729a35.666,35.666,0,0,1-4.288,0c-.472,0-.643-.172-.6-.686.043-3.088.171-5.876.171-8.793V18.186a74.244,74.244,0,0,1-11.794,8.235,1.215,1.215,0,0,1-.643.171,1.193,1.193,0,0,1-.9-.429,16.039,16.039,0,0,0-3.688-2.53,68.835,68.835,0,0,0,13.51-8.793,69.661,69.661,0,0,0,9.136-8.964,12.441,12.441,0,0,0,2.7-4.418,38.179,38.179,0,0,1,4.76,3,.757.757,0,0,1,.344.643,1.229,1.229,0,0,1-.6.944,14.1,14.1,0,0,0-2.574,2.359,68.06,68.06,0,0,1-5.018,5.4Z"/><path class="cls-1" d="M206.985,13.725c.214-.3.429-.515.815-.429a29.8,29.8,0,0,1,8.235,4.2c.3.215.471.386.471.644a1.282,1.282,0,0,1-.171.471,17.449,17.449,0,0,1-1.888,3.26c-.214.258-.386.429-.557.429a.833.833,0,0,1-.515-.257,37.586,37.586,0,0,0-8.663-4.675C205.784,15.655,206.47,14.411,206.985,13.725Zm6.948,15.912a71.792,71.792,0,0,0,11.751-7.42,77.983,77.983,0,0,0,12.352-11.966,21.49,21.49,0,0,0,1.244,4.8,2.087,2.087,0,0,1,.214.814,1.33,1.33,0,0,1-.472.987,79.9,79.9,0,0,1-10.893,9.908,99.7,99.7,0,0,1-12.824,8.063,14.139,14.139,0,0,0-2.488,1.458.949.949,0,0,1-.685.344,1.1,1.1,0,0,1-.858-.515,27.093,27.093,0,0,1-3.174-4.375A19.82,19.82,0,0,0,213.933,29.637ZM212.174,3.86c.3-.514.558-.6,1.073-.343a29.162,29.162,0,0,1,8.063,4.761.679.679,0,0,1,.343.558,1.035,1.035,0,0,1-.172.557,18.3,18.3,0,0,1-2.188,3.217.477.477,0,0,1-.428.257,1.1,1.1,0,0,1-.644-.3A41.51,41.51,0,0,0,209.9,7.291C210.63,6.176,211.445,4.975,212.174,3.86Z"/><path class="cls-1" d="M260,23.075a34.679,34.679,0,0,0-4.718,1.673,2.333,2.333,0,0,1-.772.214c-.3,0-.515-.171-.728-.6a23.862,23.862,0,0,1-1.5-3.775,51.066,51.066,0,0,0,6.52-1.415l2.573-.686-.944-3.6a16.313,16.313,0,0,0-1.759-4.332c1.759-.214,3.9-.472,5.018-.472.687,0,.987.258.9.858a7.02,7.02,0,0,0,.257,3.088l.815,3.217,9.308-2.359a4.725,4.725,0,0,0,2.144-.944.742.742,0,0,1,.514-.257,1.356,1.356,0,0,1,.73.386,23.181,23.181,0,0,1,2.53,2.145.959.959,0,0,1,.343.643,1.25,1.25,0,0,1-.471.858,3.3,3.3,0,0,0-.687.9,50.868,50.868,0,0,1-4.846,8.064.815.815,0,0,1-.644.386,1.23,1.23,0,0,1-.643-.215,11.508,11.508,0,0,0-3.431-1.286A30.979,30.979,0,0,0,275.049,19l-8.278,2.187,1.973,7.763c.73,2.7,1.33,4.8,1.973,7.206a.834.834,0,0,1-.558,1.158,14.509,14.509,0,0,1-2.83.858c-.558.128-.9.085-1.073-.644-.513-2.4-1.115-4.761-1.715-7.163l-2.015-7.934Z"/><path class="cls-1" d="M319.783,8.449a3.976,3.976,0,0,0,2.145-.514.857.857,0,0,1,.557-.172,1.251,1.251,0,0,1,.687.258,19.887,19.887,0,0,1,2.916,2.316,1.392,1.392,0,0,1,.557.986,1.237,1.237,0,0,1-.514.9,5.161,5.161,0,0,0-1.416,1.844,59.1,59.1,0,0,1-8.492,13.253A54.434,54.434,0,0,1,303.185,38a1.157,1.157,0,0,1-.686.215,1.516,1.516,0,0,1-.987-.472,11.281,11.281,0,0,0-4.074-1.973c6.691-3.689,10.079-6.391,14.282-10.937a43.682,43.682,0,0,0,7.935-12.181l-10.38.3c-3.516,4.332-5.661,6.777-8.106,8.793a1.331,1.331,0,0,1-.9.471,1.022,1.022,0,0,1-.643-.257,11.641,11.641,0,0,0-4.118-1.844A50.861,50.861,0,0,0,307.045,7.377a18.3,18.3,0,0,0,2.53-5.79,21.12,21.12,0,0,1,5.018,2.273.9.9,0,0,1,.429.729.856.856,0,0,1-.472.73,4.657,4.657,0,0,0-1.071,1.158c-.473.729-.9,1.372-1.416,2.144Z"/><path class="cls-1" d="M348.863,17.671c5.274-1.759,9.434-2.616,12.523-2.616,5.833,0,9.779,3.817,9.779,9.178,0,4.375-2.059,7.42-6.133,9.608a23.288,23.288,0,0,1-8.879,2.83c-.772.129-1.115-.042-1.416-.6a8.982,8.982,0,0,0-2.616-2.831c5.019-.772,7.378-1.5,10.336-2.959a6.708,6.708,0,0,0,3.862-6.391c0-3.045-1.889-4.718-5.319-4.718-2.96,0-7.463,1.458-12.137,3.346a13.71,13.71,0,0,0-2.4,1.329,1.346,1.346,0,0,1-.858.429c-.386,0-.686-.257-1.116-.772a22,22,0,0,1-2.316-4.16A46.162,46.162,0,0,0,348.863,17.671Z"/><path class="cls-1" d="M405.091,10.079c-5.233.987-9.823,1.888-14.41,2.831-1.63.386-2.06.472-2.7.686a2.5,2.5,0,0,1-.943.343,1,1,0,0,1-.816-.643,30.1,30.1,0,0,1-1.587-4.632,59.171,59.171,0,0,0,6.82-.729c5.276-.772,14.711-2.188,25.775-3.646.644-.086.859.172.9.472a24.692,24.692,0,0,1,.47,3.774c0,.515-.257.644-.814.644a19.115,19.115,0,0,0-5.232.943c-7.293,2.488-10.937,7.506-10.937,12.653,0,5.533,3.944,8.535,11.407,9.007.687,0,.944.171.944.643a15.27,15.27,0,0,1-.471,3.689c-.13.643-.3.9-.816.9-7.547,0-15.826-4.332-15.826-13.254,0-6.09,3.046-10.207,8.236-13.6Z"/><path class="cls-1" d="M432.626,21.746c0-1.244,0-2.745.041-4.247-.857,1.2-1.8,2.36-2.744,3.517-.3.343-.514.515-.73.515s-.386-.257-.557-.772a11.412,11.412,0,0,0-1.673-3.688,38.07,38.07,0,0,0,8.279-13.983A21.608,21.608,0,0,0,436.013,0a29.475,29.475,0,0,1,4.16,1.458c.429.258.686.386.686.729,0,.3-.127.472-.47.772-.3.215-.516.6-.946,1.759A55.755,55.755,0,0,1,437,10.38V32.254c0,4.332.087,6.476.087,6.691,0,.428-.043.471-.473.471h-3.6c-.427,0-.471-.043-.471-.471,0-.258.087-2.359.087-6.691Zm30.536,3.731c0,4.546.086,6.648.086,8.364,0,1.973-.3,3.174-1.416,3.988-.944.73-2.787,1.073-6.776,1.073-1.373,0-1.415.043-1.63-1.33a8.455,8.455,0,0,0-1.071-3.088c1.757.129,2.83.129,4.46.129,1.457,0,1.887-.258,1.887-1.587V7.291H447.036c-4.117,0-5.576.086-5.833.086-.43,0-.471-.043-.471-.515V3.517c0-.429.041-.472.471-.472.257,0,1.716.086,5.833.086h13.3c4.117,0,5.576-.086,5.79-.086.43,0,.471.043.471.472V6.862c0,.472-.041.515-.471.515-.172,0-1.029-.043-2.959-.086Zm-8.32-3.86c0,5.919.086,7.034.086,7.291,0,.429-.043.472-.473.472h-3.173c-.43,0-.473-.043-.473-.472v-1.8h-5.49v3.131c0,.386-.043.429-.47.429h-3.174c-.429,0-.472-.043-.472-.429,0-.3.086-1.458.086-7.763V18.314c0-3.817-.086-5.018-.086-5.275,0-.429.043-.472.472-.472.3,0,1.2.086,4.031.086h4.717c2.832,0,3.732-.086,4.032-.086.43,0,.473.043.473.472,0,.257-.086,1.415-.086,4.289Zm-9.523-5.147v6.862h5.49V16.47Z"/><path class="cls-1" d="M480.661,10.68c.816-5.748,4.932-9.179,11.279-9.179,6.692,0,11.023,3.56,11.023,9.05,0,3-1.287,5.49-5.1,8.707-3.56,2.959-4.074,4.332-4.117,8.321h-4.419v-1.03c0-4.246.9-6.176,3.946-9.221,3.089-3.088,3.9-4.589,3.9-6.777,0-2.916-2.016-4.761-5.19-4.761-3.387,0-5.532,2.274-5.789,6.177Zm13.9,21.059v5.79h-6.09v-5.79Z"/><path class="cls-1" d="M25.477,93.309c0,.987.213,1.287.772,1.416a14.6,14.6,0,0,0,3.345.214,8.441,8.441,0,0,0,3.688-.558c.686-.514,1.03-1.672,1.073-4.546a15.1,15.1,0,0,0,3.13,1.5c1.073.386,1.073.386.943,1.458-.257,3-.815,4.118-2.015,4.976-1.2.943-3.86,1.286-7.163,1.286-3.216,0-5.232-.128-6.476-.6-.986-.429-1.758-1.115-1.758-3.045V86.532h-3.86C15.912,93.781,11.409,98.2,3.989,99.743a4.944,4.944,0,0,1-.9.128c-.428,0-.557-.214-.986-1.072A9.923,9.923,0,0,0,0,96.011c7.591-.943,11.581-4.117,12.438-9.479h-.086c-4.159,0-5.532.086-5.789.086-.472,0-.515-.043-.515-.472,0-.3.085-1.887.085-5.232V68.09c0-3.432-.085-5.019-.085-5.319,0-.429.043-.472.515-.472.257,0,1.715.086,5.875.086H26.249c4.116,0,5.575-.086,5.875-.086.429,0,.472.043.472.472,0,.3-.086,1.887-.086,5.319V80.914c0,3.345.086,4.975.086,5.232,0,.429-.043.472-.472.472-.3,0-1.759-.086-5.875-.086h-.772ZM10.551,66.288v3.131h17.5V66.288Zm17.5,9.779V73.022h-17.5v3.045Zm0,3.6h-17.5v3.174h17.5Z"/><path class="cls-1" d="M51.039,88.591c-3.817,0-5.1.086-5.362.086-.428,0-.471-.043-.471-.472V84.9c0-.429.043-.472.471-.472.258,0,1.545.086,5.362.086H62.318a30.727,30.727,0,0,0-.257-3.646l2.488.257a26.711,26.711,0,0,0,3.9-3.088H59.188c-3.946,0-5.318.086-5.533.086-.428,0-.472-.043-.472-.429v-3c0-.429.044-.472.472-.472.215,0,1.587.086,5.533.086H70.811a2.685,2.685,0,0,0,1.029-.086,1.392,1.392,0,0,1,.558-.172c.343,0,.771.343,1.844,1.373.857.9,1.2,1.458,1.2,1.844a.683.683,0,0,1-.515.686,10.307,10.307,0,0,0-2.059,1.416,50.75,50.75,0,0,1-6,4.46v.687H77.587c3.817,0,5.1-.086,5.362-.086.428,0,.471.043.471.472v3.3c0,.429-.043.472-.471.472-.258,0-1.545-.086-5.362-.086H66.865v2.788c0,1.029.086,2.616.086,3.731,0,1.845-.343,2.788-1.373,3.518-1.115.686-2.445.943-6.562.943-1.329,0-1.329.043-1.673-1.244A12.92,12.92,0,0,0,56.057,95.2a41.619,41.619,0,0,0,4.589.258c1.2,0,1.672-.3,1.672-1.5V88.591ZM53.7,61.141c.557-.214.687-.128.944.215a32.243,32.243,0,0,1,2.873,4.46c.215.429.215.472-.385.687L54.3,67.532H63.22a33.209,33.209,0,0,0-2.445-5.361c-.257-.429-.129-.472.386-.644l2.83-.858c.515-.171.644-.085.858.258A33.442,33.442,0,0,1,67.208,65.9c.128.386.128.429-.472.644l-2.788.986h6.6a33.876,33.876,0,0,0,2.1-4.332,14.232,14.232,0,0,0,.643-2.273,21.489,21.489,0,0,1,4.246,1.287c.387.171.6.386.6.643a.806.806,0,0,1-.428.643,3.249,3.249,0,0,0-.815.987c-.6,1.115-1.115,2.016-1.758,3.045h1.115c3.988,0,5.4-.086,5.661-.086.472,0,.515.043.515.472,0,.257-.087,1.072-.087,2.316v1.973c0,3.86.087,4.546.087,4.8,0,.472-.043.514-.515.514H78.531c-.429,0-.472-.042-.472-.514V71.349H50.61v5.662c0,.429-.043.472-.472.472H46.75c-.471,0-.515-.043-.515-.472,0-.3.086-.987.086-4.847V70.577c0-1.587-.086-2.359-.086-2.659,0-.429.044-.472.515-.472.257,0,1.672.086,5.662.086H53.57a25,25,0,0,0-2.745-4.8c-.258-.386-.215-.472.3-.643Z"/><path class="cls-1" d="M96.159,70.792c-3.774,0-5.1.085-5.361.085-.429,0-.472-.042-.472-.514V67.1c0-.429.043-.472.472-.472.257,0,1.587.086,5.361.086h5.06a28.436,28.436,0,0,0-2.4-4.246c-.257-.386-.172-.472.3-.686l2.916-1.116c.6-.214.644-.214.9.172a21.917,21.917,0,0,1,2.487,4.117c.171.387.171.429-.472.687l-2.7,1.072h9.65a44.455,44.455,0,0,0,2.616-4.16,9.425,9.425,0,0,0,.815-2.145,40.686,40.686,0,0,1,4.289,1.158c.386.172.6.3.6.6,0,.214-.172.386-.387.557a4.772,4.772,0,0,0-1.158,1.5c-.472.729-1.072,1.587-1.758,2.488h5.661c3.817,0,5.147-.086,5.405-.086.428,0,.471.043.471.472v3.26c0,.472-.043.514-.471.514-.258,0-1.588-.085-5.405-.085Zm12.395,18.657c0,2.187.085,4.461.085,5.747,0,1.63-.128,2.788-1.029,3.56-.643.558-1.716.858-4.846.9-1.373,0-1.373.043-1.587-1.287a7.984,7.984,0,0,0-.986-2.745c1.158.086,1.758.129,2.873.129,1.158,0,1.415-.257,1.415-1.115v-3.56H97.617v3c0,3.517.086,5.233.086,5.447,0,.429-.043.472-.472.472H93.8c-.429,0-.472-.043-.472-.472,0-.257.086-1.887.086-5.576V79.8c0-3.689-.086-5.405-.086-5.705,0-.386.043-.429.472-.429.3,0,1.329.086,4.5.086h5.4c3.174,0,4.2-.086,4.46-.086.43,0,.472.043.472.429,0,.257-.085,2.231-.085,6.048ZM97.617,77.568v3.3h6.862v-3.3Zm6.862,10.08v-3.3H97.617v3.3Zm8.149-6.777a44.2,44.2,0,0,0-.3-6.091c1.544.043,2.831.172,4.289.343.428.043.6.215.6.472a3.741,3.741,0,0,1-.257.987,19.761,19.761,0,0,0-.172,4.246v5.061c0,2.874.086,4.246.086,4.5,0,.428-.042.428-.472.428h-3.388c-.429,0-.472,0-.472-.428,0-.3.086-1.63.086-4.5Zm12.652,6.348c0,3.045.086,5.318.086,7.463,0,2.1-.386,3.173-1.5,3.9-1.158.729-2.316.943-6.176.943-1.329,0-1.329.043-1.63-1.329a8.616,8.616,0,0,0-1.157-3,35.185,35.185,0,0,0,4.331.215c1.33,0,1.844-.3,1.844-1.673v-14.8a35.46,35.46,0,0,0-.342-5.79c1.586.042,2.958.128,4.417.3.429.043.686.257.686.472a2.247,2.247,0,0,1-.3.9c-.215.515-.258,1.416-.258,4.118Z"/><path class="cls-1" d="M145.4,65.473c.729.386.987.643.987,1.03,0,.3-.086.428-.643,1.286a10.1,10.1,0,0,0-1.03,3.046,69.489,69.489,0,0,0-1.8,13.853,41.45,41.45,0,0,0,.258,5.018c.9-1.973,1.672-3.388,2.916-6.39a11.157,11.157,0,0,0,1.5,2.7,1.7,1.7,0,0,1,.3.643,1.189,1.189,0,0,1-.213.686,41.87,41.87,0,0,0-2.445,6.477,4.814,4.814,0,0,0-.129,1.329c0,.515.086.858.086,1.2,0,.3-.172.472-.558.558a21.235,21.235,0,0,1-3.517.686c-.3.043-.472-.171-.557-.472-1.2-3-1.973-8.449-1.973-12.781a81.824,81.824,0,0,1,1.458-14.068,34.653,34.653,0,0,0,.772-6.391A18.989,18.989,0,0,1,145.4,65.473Zm9.178,20.2c.344-.043.429.171.429.643.258,2.959,2.316,4.032,6.991,4.032a61.5,61.5,0,0,0,8.192-.558c.429-.043.514,0,.6.558a31.679,31.679,0,0,1,.258,3.688c0,.515,0,.558-.73.644a57.576,57.576,0,0,1-6.99.471c-6.348,0-9.308-1.029-11.151-3.56a9.443,9.443,0,0,1-1.5-5.575Zm-2.4-16.041c.042-.515.171-.644.6-.73a68.6,68.6,0,0,1,9.306-.772c2.574,0,4.547.086,6.348.258.9.043.987.129.987.557,0,1.287,0,2.445-.086,3.646-.043.386-.171.558-.557.515-2.574-.172-4.8-.257-6.992-.257a52.431,52.431,0,0,0-9.735.986C152.085,71.435,152.085,70.363,152.172,69.634Z"/><path class="cls-1" d="M193,93.1c2.315-.258,4.76-.6,7.291-1.03a17.518,17.518,0,0,0-.386,1.973l-.129.772a24.22,24.22,0,0,0,4.89-9.607,58.975,58.975,0,0,0,1.415-10.937c-2.531.043-3.475.085-3.688.085-.472,0-.515-.042-.515-.471V70.749c0-.429.043-.472.515-.472.213,0,1.2.086,3.859.086,0-1.115.043-2.231.043-3.432a42.49,42.49,0,0,0-.3-6.047c1.544.043,2.787.129,4.289.3.428.043.643.215.643.472a3.257,3.257,0,0,1-.258,1.029,18.527,18.527,0,0,0-.257,4.375c0,1.158,0,2.23-.043,3.3h2.445c3.3,0,4.418-.086,4.675-.086.428,0,.515.086.515.515-.087,1.458-.087,2.7-.087,4.074a131.189,131.189,0,0,1-1.243,19.644c-.557,3.217-2.145,4.718-5.447,4.718-.9,0-1.629-.043-2.359-.086-.986-.086-.986-.086-1.115-1.5a9.829,9.829,0,0,0-.857-2.874,22.95,22.95,0,0,0,3.56.343c1.286,0,2.015-.686,2.315-2.7a121.9,121.9,0,0,0,1.073-18.142h-3.6a75.538,75.538,0,0,1-1.587,12.309A27.291,27.291,0,0,1,202.309,98.8c-.428.429-.686.643-.9.643s-.43-.214-.815-.6a7.949,7.949,0,0,0-2.745-2.059c.472-.429.944-.858,1.372-1.329a3.394,3.394,0,0,1-.815.171c-4.546.9-10.121,1.716-14.968,2.23a6.857,6.857,0,0,0-1.586.3,1.674,1.674,0,0,1-.73.257c-.257,0-.472-.257-.6-.729-.257-1.115-.515-2.488-.729-3.774a39.493,39.493,0,0,0,4.5-.043c1.5-.086,3.131-.172,4.847-.344V91.036h-2.531c-3.732,0-4.975.086-5.232.086-.43,0-.472-.043-.472-.429V88.119c0-.429.042-.471.472-.471.257,0,1.5.085,5.232.085h2.531V85.889h-1.716c-3.646,0-4.889.086-5.147.086-.472,0-.515-.043-.515-.472,0-.3.087-1.287.087-3.56V77.354c0-2.316-.087-3.3-.087-3.517,0-.429.043-.472.515-.472.258,0,1.5.086,5.147.086h1.716V71.564h-3.175c-3.859,0-5.189.085-5.446.085-.429,0-.472-.043-.472-.471V68.647c0-.429.043-.472.472-.472.257,0,1.587.086,5.446.086h3.175v-1.93c-1.845.172-3.689.343-5.533.429-1.2.086-1.244.043-1.587-.944a8.618,8.618,0,0,0-1.33-2.316,82.264,82.264,0,0,0,15.183-1.629,15.616,15.616,0,0,0,2.359-.73,18.588,18.588,0,0,1,2.444,2.359,1.048,1.048,0,0,1,.344.772c0,.258-.344.429-.9.429a12.66,12.66,0,0,0-1.93.3c-1.716.344-3.431.644-5.189.858v2.4h2.487c3.817,0,5.146-.086,5.4-.086.387,0,.429.043.429.472v2.531c0,.428.043.471-.344.471-.257,0-1.672-.085-5.489-.085H193v1.887h1.843c3.6,0,4.847-.086,5.147-.086.429,0,.473.043.473.472,0,.214-.087,1.2-.087,3.517v4.589c0,2.273.087,3.3.087,3.56,0,.429-.044.472-.473.472-.3,0-1.544-.086-5.147-.086H193v1.844h1.586c3.689,0,4.975-.085,5.233-.085.429,0,.472.042.472.471v2.574c0,.386-.043.429-.472.429-.258,0-1.544-.086-5.233-.086H193Zm-3.86-14.712v-2.23h-3.56v2.23Zm0,4.761V80.871h-3.56v2.273ZM193,76.153v2.23h3.731v-2.23Zm3.731,4.718H193v2.273h3.731Z"/><path class="cls-1" d="M231.56,66.417c-3.859,0-5.189.086-5.446.086-.43,0-.472-.043-.472-.429v-3.3c0-.472.042-.515.472-.515.257,0,1.587.086,5.446.086h25.734c3.9,0,5.189-.086,5.447-.086.428,0,.471.043.471.515v3.3c0,.386-.043.429-.471.429-.258,0-1.545-.086-5.447-.086H246.315v4.2h2.615c3.86,0,5.147-.086,5.4-.086.472,0,.515.043.515.515,0,.257-.086,1.587-.086,4.632v9.736c0,3,.086,4.375.086,4.632,0,.429-.043.472-.515.472-.257,0-1.544-.086-5.4-.086h-9.006c-3.817,0-5.1.086-5.4.086-.429,0-.473-.043-.473-.472,0-.257.087-1.629.087-4.632V75.681c0-3.045-.087-4.375-.087-4.632,0-.472.044-.515.473-.515.3,0,1.587.086,5.4.086h2.4v-4.2ZM258.151,77.1a56.921,56.921,0,0,0-.257-6.261c1.63.085,2.959.171,4.332.343.515.085.815.257.815.643a1.423,1.423,0,0,1-.257.815c-.258.386-.343,1.673-.343,4.5V90.821c0,5.447.085,8.278.085,8.536,0,.428-.043.471-.472.471h-3.431c-.429,0-.472-.043-.472-.471V97.641H230.789v1.716c0,.428-.043.471-.472.471h-3.388c-.43,0-.473-.043-.473-.471,0-.3.086-3.046.086-8.45V76.882a49.765,49.765,0,0,0-.256-6.047c1.672.085,2.915.171,4.288.343.515.085.815.3.815.643a1.88,1.88,0,0,1-.3.9c-.258.429-.3,1.844-.3,4.46V93.609h27.362Zm-15.783,1.587V74.137h-4.374v4.546Zm0,8.235V81.986h-4.374v4.932Zm3.9-12.781v4.546h4.589V74.137Zm4.589,7.849h-4.589v4.932h4.589Z"/><path class="cls-1" d="M292.077,70.835c-5.232.986-9.821,1.887-14.411,2.83-1.629.386-2.058.472-2.7.686a2.5,2.5,0,0,1-.944.344,1,1,0,0,1-.815-.644,29.788,29.788,0,0,1-1.586-4.632,59.144,59.144,0,0,0,6.818-.729c5.276-.772,14.711-2.187,25.777-3.646.643-.086.857.172.9.472a24.345,24.345,0,0,1,.472,3.774c0,.515-.257.644-.815.644a19.166,19.166,0,0,0-5.232.943C292.249,73.365,288.6,78.383,288.6,83.53c0,5.533,3.946,8.535,11.409,9.007.686,0,.943.172.943.643a15.264,15.264,0,0,1-.471,3.689c-.129.643-.3.9-.815.9-7.548,0-15.826-4.332-15.826-13.253,0-6.091,3.045-10.208,8.234-13.6Zm8.492,4.632c.215-.172.386-.129.643.086a19.687,19.687,0,0,1,4.075,4.589.432.432,0,0,1-.129.686l-1.8,1.33a.448.448,0,0,1-.729-.129,21.247,21.247,0,0,0-4.332-4.975Zm3.818-2.788c.257-.172.385-.129.643.086a17.941,17.941,0,0,1,4.075,4.417.5.5,0,0,1-.13.772l-1.715,1.33a.441.441,0,0,1-.73-.129,20.273,20.273,0,0,0-4.288-4.932Z"/><path class="cls-1" d="M330.762,71.606c.173-2.1.259-3.474.3-5.79a16.375,16.375,0,0,0-.3-3.388,33.554,33.554,0,0,1,5.576.9.886.886,0,0,1,.73.9,1.944,1.944,0,0,1-.214.815,4,4,0,0,0-.559,2.016c-.127,1.373-.171,2.4-.386,4.5h6.519c1.973,0,3.989-.086,5.962-.086.687,0,.9.128.9.6,0,.558-.086,2.273-.171,4.547-.172,5.275-.773,11.237-1.588,14.11-.858,3.3-2.315,5.105-5.061,5.791a18.133,18.133,0,0,1-4.33.472,1.043,1.043,0,0,1-1.03-.858,8.98,8.98,0,0,0-2.489-3.9,17.521,17.521,0,0,0,5.833-.386c1.159-.386,1.716-1.073,2.23-3a59.956,59.956,0,0,0,1.287-12.867h-8.664c-.857,5.19-2.014,9.05-3.816,11.881A27.636,27.636,0,0,1,322.4,96.7a1.952,1.952,0,0,1-.987.344,1.1,1.1,0,0,1-.813-.429,10.924,10.924,0,0,0-3.6-2.488,23.887,23.887,0,0,0,10.079-8.75,25,25,0,0,0,3.087-9.264H326.3c-2.1,0-4.16.086-6.176.215-.428.042-.6-.215-.644-.73-.17-1.029-.256-2.573-.343-4.16,2.7.171,4.633.171,7.12.171Z"/><path class="cls-1" d="M366.833,66.5a.8.8,0,0,1,.6-.344,1.146,1.146,0,0,1,.559.215,44.706,44.706,0,0,1,8.191,6.09c.257.258.386.429.386.6a.924.924,0,0,1-.257.557c-.643.858-2.059,2.574-2.66,3.217-.213.215-.343.343-.513.343s-.344-.128-.559-.343a45.394,45.394,0,0,0-8.75-6.991C364.775,68.69,366.019,67.361,366.833,66.5Zm3.732,22.6a63.587,63.587,0,0,0,12.351-7.978,64.432,64.432,0,0,0,11.752-11.666,19.157,19.157,0,0,0,1.2,5.018,2.079,2.079,0,0,1,.216.815c0,.386-.216.729-.686,1.287a70.164,70.164,0,0,1-9.866,9.093,92.231,92.231,0,0,1-12.952,8.406,14.85,14.85,0,0,0-2.874,1.973,1.185,1.185,0,0,1-.771.429,1.111,1.111,0,0,1-.729-.472,29.566,29.566,0,0,1-3.431-4.761A25.817,25.817,0,0,0,370.565,89.106Z"/><path class="cls-1" d="M432.626,68.047a4.2,4.2,0,0,0,2.359-.644,1.255,1.255,0,0,1,.728-.3,1.476,1.476,0,0,1,.773.343,13.939,13.939,0,0,1,2.916,2.617,1.047,1.047,0,0,1,.343.772,1.1,1.1,0,0,1-.472.814,5.41,5.41,0,0,0-1.287,1.63,66.976,66.976,0,0,1-6.3,10.38,38.086,38.086,0,0,1,4.631,4.332.842.842,0,0,1,.259.6.827.827,0,0,1-.259.558,26.488,26.488,0,0,1-2.658,2.7.889.889,0,0,1-.515.214.739.739,0,0,1-.471-.257,47.682,47.682,0,0,0-4.16-4.16A52.308,52.308,0,0,1,414.827,98.37a2.335,2.335,0,0,1-1.073.386,1.282,1.282,0,0,1-.814-.386,12.169,12.169,0,0,0-4.076-2.187A52.02,52.02,0,0,0,424.649,84.56a35.818,35.818,0,0,0-6.176-4.032c.943-1.03,1.843-2.145,2.83-3.045a.808.808,0,0,1,.557-.3,1.122,1.122,0,0,1,.43.172,43.112,43.112,0,0,1,5.532,3.431,41.354,41.354,0,0,0,5.017-8.492l-10.636.214a51.759,51.759,0,0,1-9.177,9.651,1.544,1.544,0,0,1-.859.386.982.982,0,0,1-.686-.3,17.884,17.884,0,0,0-3.6-1.973A47.844,47.844,0,0,0,420.016,66.8a15.832,15.832,0,0,0,2.317-5.276,27.058,27.058,0,0,1,5.017,2.1.753.753,0,0,1,.472.686,1.16,1.16,0,0,1-.515.858,3.6,3.6,0,0,0-.9.9c-.343.6-.6,1.029-1.329,2.144Z"/><path class="cls-1" d="M456.9,66.5a.805.805,0,0,1,.6-.344,1.146,1.146,0,0,1,.559.215,44.706,44.706,0,0,1,8.191,6.09c.257.258.386.429.386.6a.924.924,0,0,1-.257.557c-.643.858-2.059,2.574-2.659,3.217-.214.215-.344.343-.514.343s-.343-.128-.559-.343a45.364,45.364,0,0,0-8.75-6.991C454.844,68.69,456.087,67.361,456.9,66.5Zm3.733,22.6a63.609,63.609,0,0,0,12.35-7.978,64.432,64.432,0,0,0,11.752-11.666,19.153,19.153,0,0,0,1.2,5.018,2.094,2.094,0,0,1,.215.815c0,.386-.215.729-.686,1.287a70.164,70.164,0,0,1-9.866,9.093,92.172,92.172,0,0,1-12.952,8.406,14.85,14.85,0,0,0-2.874,1.973,1.184,1.184,0,0,1-.77.429,1.111,1.111,0,0,1-.73-.472,29.5,29.5,0,0,1-3.43-4.761A25.835,25.835,0,0,0,460.634,89.106Z"/><path class="cls-1" d="M513.129,89.363c0,1.93.086,4.032.086,5.747,0,1.587-.173,2.7-1.073,3.56-.814.644-1.844.858-4.633.9-1.328,0-1.328.043-1.63-1.287a9.175,9.175,0,0,0-1.07-2.745c1.5.129,2.659.172,3.687.172.773-.043,1.116-.343,1.116-1.373V88.377h-8.579a26.652,26.652,0,0,1-2.53,10.336c-.3.558-.471.815-.687.815-.17,0-.343-.171-.6-.472a10.592,10.592,0,0,0-2.444-2.273c2.23-4.117,2.96-8.02,2.96-16.427v-5.79l-.343.386c-.343.386-.559.6-.73.6-.214,0-.386-.3-.686-.858a8.736,8.736,0,0,0-1.673-2.188,27.116,27.116,0,0,0,5.79-9.007,11.06,11.06,0,0,0,.815-2.916,26.361,26.361,0,0,1,3.6.857c.471.129.687.344.687.6a.9.9,0,0,1-.343.686,4.538,4.538,0,0,0-.9,1.458h4.2a2.018,2.018,0,0,0,.816-.128,1.065,1.065,0,0,1,.557-.172c.213,0,.472.129,1.416.9.9.686,1.07.987,1.07,1.244,0,.3-.084.472-.47.772a3.747,3.747,0,0,0-.857,1.2c-.559,1.158-1.116,2.23-1.673,3.174,2.53,0,3.43-.086,3.687-.086.473,0,.516.043.516.472,0,.257-.086,1.844-.086,4.975Zm-8.15-18.185a33.442,33.442,0,0,0,1.8-3.732h-4.247a37.342,37.342,0,0,1-2.23,3.732Zm-1.2,13.9V81.343h-2.444c0,1.329-.043,2.616-.086,3.731Zm0-7.034v-3.6h-2.444v3.6Zm3.387-3.6v3.6h2.446v-3.6Zm2.446,10.637V81.343h-2.446v3.731Zm13-5.619a17.107,17.107,0,0,0-.259-3.3c1.416.043,2.916.129,4.119.257.384.043.557.172.557.429a2.092,2.092,0,0,1-.214.729,5.446,5.446,0,0,0-.216,1.887v1.116c4.246,0,5.747-.086,6.006-.086.427,0,.47.043.47.472V83.83c0,.472-.043.515-.47.515-.259,0-1.76-.086-6.006-.086v3.989h1.93c3.732,0,4.976-.086,5.233-.086.429,0,.472.043.472.472v2.959c0,.472-.043.515-.472.515-.257,0-1.5-.086-5.233-.086H526.6v1.716c0,3.56.086,5.318.086,5.533,0,.429-.043.472-.472.472h-3.174c-.471,0-.514-.043-.514-.472,0-.258.087-1.973.087-5.533V92.022h-2.489c-3.731,0-5.017.086-5.274.086-.43,0-.473-.043-.473-.515V88.634c0-.429.043-.472.473-.472.257,0,1.543.086,5.274.086h2.489V84.259h-3.99c-.3.772-.643,1.459-.943,2.145-.343.643-.514.943-.773.943a2.117,2.117,0,0,1-.986-.514,13.594,13.594,0,0,0-2.4-1.03,27.43,27.43,0,0,0,2.873-6.348,11.247,11.247,0,0,0,.43-2.316,30.606,30.606,0,0,1,3.216.9c.471.172.685.3.685.515a.686.686,0,0,1-.128.472,3.279,3.279,0,0,0-.557,1.329l-.086.215h2.66ZM514.672,63.2c0-.429.043-.472.473-.472.257,0,1.414.086,4.974.086h7.249c3.516,0,4.717-.086,4.974-.086.429,0,.559.129.515.515l-.086,2.144c-.17,4.118-.343,6.177-1.073,7.849-.643,1.459-2.23,2.145-4.03,2.145A22.046,22.046,0,0,1,525.4,75.3c-1.157-.129-1.287-.129-1.373-1.115a8.31,8.31,0,0,0-.814-3,16.956,16.956,0,0,0,3.044.343c1.245,0,1.586-.215,1.845-1.073a17.888,17.888,0,0,0,.471-4.031h-4.717c-.816,4.675-2.746,7.506-6.433,9.822-.473.3-.73.471-.943.471-.259,0-.43-.257-.816-.857a8.378,8.378,0,0,0-2.1-2.145c3.774-1.844,5.447-3.817,6.09-7.291-3.173,0-4.289.086-4.5.086-.43,0-.473-.043-.473-.472Z"/><path class="cls-1" d="M550.27,68.218c3.3,0,4.333-.086,4.59-.086.429,0,.472.043.472.472v3.045c0,.472-.043.515-.472.515-.257,0-1.287-.086-4.59-.086h-4.931c-3.259,0-4.332.086-4.546.086-.429,0-.473-.043-.473-.515V68.6c0-.429.044-.472.473-.472.214,0,1.287.086,4.546.086ZM571.758,93.7c0,.729.044,1.072.387,1.287a2.754,2.754,0,0,0,1.63.3,1.98,1.98,0,0,0,1.757-.6c.386-.472.516-1.373.6-4.633a8.753,8.753,0,0,0,2.617,1.287c1.073.343,1.116.343,1.029,1.458-.213,3.474-.814,4.847-1.757,5.576-.987.772-2.616,1.072-4.846,1.072-2.189,0-3.56-.214-4.247-.686-.772-.557-1.243-1.372-1.243-3.517V82.715h-2.446c-.257,8.407-2.444,13-7.247,16.685-.473.343-.773.557-.987.557-.3,0-.515-.257-.943-.815A14.543,14.543,0,0,0,554.3,97.3c0,.815.043,1.115.043,1.244,0,.428-.043.471-.473.471h-3.044c-.429,0-.473-.043-.473-.471V97.6h-4.33v1.973c0,.386-.043.429-.473.429h-3.046c-.47,0-.514-.043-.514-.429,0-.3.087-1.287.087-6.476V90.35c0-2.7-.087-3.732-.087-4.032,0-.429.044-.472.514-.472.259,0,1.159.086,3.9.086h3.517c2.789,0,3.689-.086,3.946-.086.43,0,.473.043.473.472,0,.257-.086,1.287-.086,3.3v6.906c4.8-2.831,6.69-6.391,6.9-13.811-2.445.043-3.346.086-3.559.086-.473,0-.516-.043-.516-.472,0-.257.086-1.287.086-3.731V73.365c0-2.488-.086-3.474-.086-3.731,0-.429.043-.472.516-.472.256,0,1.5.086,5.232.086h4.974a47.43,47.43,0,0,0,2.446-5.877,12.966,12.966,0,0,0,.557-2.7,42.31,42.31,0,0,1,4.246,1.244c.3.129.557.343.557.6a.965.965,0,0,1-.429.772,4.445,4.445,0,0,0-.814,1.372c-.516,1.244-1.2,2.788-2.146,4.59,2.876,0,3.99-.086,4.247-.086.429,0,.472.043.472.472,0,.214-.086,1.243-.086,3.731V78.6c0,2.444.086,3.474.086,3.731,0,.429-.043.472-.472.472-.3,0-1.458-.086-4.718-.086ZM550.1,62.342c2.787,0,3.646-.086,3.859-.086.473,0,.514.043.514.472v2.831c0,.429-.041.472-.514.472-.213,0-1.072-.086-3.859-.086h-3.6c-2.787,0-3.647.086-3.9.086-.428,0-.471-.043-.471-.472V62.728c0-.429.043-.472.471-.472.256,0,1.116.086,3.9.086Zm-.387,11.967c2.617,0,3.389-.086,3.646-.086.43,0,.471.043.471.472v2.788c0,.428-.041.471-.471.471-.257,0-1.029-.086-3.646-.086h-3.044c-2.616,0-3.389.086-3.646.086-.429,0-.473-.043-.473-.471V74.695c0-.429.044-.472.473-.472.257,0,1.03.086,3.646.086Zm0,5.79c2.617,0,3.389-.086,3.646-.086.43,0,.471.043.471.472V83.23c0,.429-.041.472-.471.472-.257,0-1.029-.086-3.646-.086h-3.044c-2.616,0-3.389.086-3.646.086-.429,0-.473-.043-.473-.472V80.485c0-.429.044-.472.473-.472.257,0,1.03.086,3.646.086Zm-3.687,9.393v4.546h4.33V89.492Zm15.439-28.265c.514-.214.644-.171.858.129a26.792,26.792,0,0,1,2.873,5.4c.172.429.043.558-.428.772l-2.7,1.158c-.514.214-.6.214-.773-.214a26.524,26.524,0,0,0-2.7-5.533c-.259-.343-.173-.472.3-.687Zm11.194,11.838H561.25v5.7h11.409Z"/><path class="cls-1" d="M606.843,88.119H602.51L601.31,62.6H608Zm.814,4.161v5.79h-6.09V92.28Z"/></svg>