<svg id="レイヤー_1" data-name="レイヤー 1" xmlns="http://www.w3.org/2000/svg" viewBox="0 0 768 66"><defs><style>.cls-1{fill:#004ea3;}</style></defs><path class="cls-1" d="M15.761,44.139a66.585,66.585,0,0,0-7.36.277,70.319,70.319,0,0,0,.347-7.495V11.243A77.579,77.579,0,0,0,8.4,2.915a66.99,66.99,0,0,0,7.221.277H49.089a67.59,67.59,0,0,0,7.291-.277,77.579,77.579,0,0,0-.347,8.328V36.921a53.917,53.917,0,0,0,.347,7.495,70.974,70.974,0,0,0-7.291-.277h-5.9v10.34c0,1.8.556,2.013,5.347,2.013,4.86,0,6.11-.277,6.8-1.319.556-.832.9-4.372,1.042-8.813a31.179,31.179,0,0,0,8.471,3.331c-.764,8.536-1.389,10.965-3.472,12.769-1.875,1.736-4.93,2.221-13.123,2.221-12.081,0-14.025-.971-14.025-6.662V44.139H28.953a21.363,21.363,0,0,1-6.8,13.394c-4.3,4.025-9.234,6.454-17.358,8.467A32.134,32.134,0,0,0,0,57.811C6.249,56.7,9.79,55.52,12.915,53.577a13.8,13.8,0,0,0,6.526-9.438Zm1.666-29.357H47.284V11.035H17.427Zm0,10.9H47.284V21.792H17.427Zm0,10.966H47.284V32.688H17.427Z"/><path class="cls-1" d="M110.809,57.6c0,6.037-2.083,7.356-11.318,7.356-1.8,0-4.027-.069-7.152-.139A31.533,31.533,0,0,0,89.7,56.076c3.68.347,6.457.555,8.54.555,2.917,0,3.4-.208,3.4-1.458V46.637H83.66a76.505,76.505,0,0,0-8.957.417V37.962a67.129,67.129,0,0,0,8.888.486h18.052a28.117,28.117,0,0,0-.208-3.748h3.4a32.694,32.694,0,0,0,6.388-4.511H94.492a70.6,70.6,0,0,0-7.152.278V22.278a69.5,69.5,0,0,0,7.221.277H116.5a32.972,32.972,0,0,0,5.347-.277l4.443,4.927c-.763.625-1.041.9-1.805,1.6a106.763,106.763,0,0,1-12.359,9.647h15.484a66.1,66.1,0,0,0,9.165-.486v9.092a80.171,80.171,0,0,0-9.235-.417H110.809ZM85.952,10.965A44.27,44.27,0,0,0,81.161,3.47L89.7,1.388a61.437,61.437,0,0,1,5.9,9.577h6.04a44.611,44.611,0,0,0-3.888-8.4L106.573.625a60.77,60.77,0,0,1,4.444,10.34h5A43.72,43.72,0,0,0,121.085.972l8.957,2.151a83.308,83.308,0,0,1-4.513,7.842h2.221a85.305,85.305,0,0,0,8.61-.277,43.577,43.577,0,0,0-.278,5.76v7.079a43.794,43.794,0,0,0,.348,5.483h-8.957V18.669H83.938V29.01H74.912a31.1,31.1,0,0,0,.347-5.552v-7.01a45.638,45.638,0,0,0-.278-5.76c2.638.208,3.888.277,8.4.277Z"/><path class="cls-1" d="M163.293,9.022a34.124,34.124,0,0,0-4.721-6.662L167.737,0a60.921,60.921,0,0,1,5.693,9.022h9.026A32.048,32.048,0,0,0,187.734.069l9.512,2.36a56.362,56.362,0,0,1-4.652,6.593h9.026a54.455,54.455,0,0,0,7.638-.416V17.42a54.373,54.373,0,0,0-7.638-.347H154.544a56.819,56.819,0,0,0-7.637.347V8.606a49,49,0,0,0,7.637.416Zm-4.374,48.511a54.526,54.526,0,0,0,.347,7.5h-9.374a55.237,55.237,0,0,0,.417-8.12V26.65a44.461,44.461,0,0,0-.278-6.246c2.014.139,3.819.208,6.458.208h15.136a58.269,58.269,0,0,0,6.11-.208c-.138,1.665-.208,3.192-.208,6.732V57.117c0,6.038-1.736,7.426-9.1,7.426-.555,0-1.6,0-3.957-.139a29.451,29.451,0,0,0-1.945-7.842,27.3,27.3,0,0,0,4.791.416c1.389,0,1.667-.347,1.667-1.874V50.871H158.919ZM168.987,32.2V28.246H158.919V32.2Zm0,11.382v-4.1H158.919v4.1Zm22.982-21.862a55.288,55.288,0,0,0-.277,6.663v15.2a61.848,61.848,0,0,0,.277,7.356h-9.234a64.318,64.318,0,0,0,.277-7.287V28.315a58.531,58.531,0,0,0-.277-6.593Zm14.234-1.8a51.845,51.845,0,0,0-.347,7.287v28.8c0,3.4-.417,5.275-1.6,6.454-1.528,1.666-3.75,2.221-8.4,2.221-2.013,0-2.43,0-7.707-.208a32.78,32.78,0,0,0-2.5-8.6,73.852,73.852,0,0,0,8.193.624c2.777,0,3.194-.277,3.194-2.082V27a45.4,45.4,0,0,0-.347-7.079Z"/><path class="cls-1" d="M237.788,4.442c-3.055,8.258-5.277,23.873-5.485,38.586.9-2.706.9-2.706,1.25-3.539l1.319-3.331,6.11,2.5c-3.68,8.051-5.693,15.407-5.693,20.89,0,.694,0,1.041.069,2.012l-10.068.486c-.069-1.249-.138-1.8-.347-3.4a131.708,131.708,0,0,1-1.805-21.168,144.618,144.618,0,0,1,2.708-27.135,60.765,60.765,0,0,0,1.111-6.94Zm19.234,29.773c-3.264,4.094-4.861,7.217-4.861,9.785,0,3.47,3.541,5.413,9.929,5.413a51.194,51.194,0,0,0,16.872-2.706l.695,10.479c-1.111.139-1.528.208-3.055.417a83.952,83.952,0,0,1-14.582,1.318c-8.817,0-14.581-2.082-17.7-6.454a12.684,12.684,0,0,1-2.083-7.079c0-4.372,2.153-9.369,6.457-14.852ZM244.245,10.2c3.4.9,7.014,1.18,13.332,1.18,7.637,0,14.581-.694,19.025-1.874l.486,10.063a11.333,11.333,0,0,0-1.458.069,147.974,147.974,0,0,1-18.4,1.25,99.514,99.514,0,0,1-11.179-.556c-.347-.069-.9-.069-1.944-.138Z"/><path class="cls-1" d="M315.13,35.95c-4.236,3.4-6.249,6.315-6.249,9.022,0,4.025,4.791,5.829,15.623,5.829,8.54,0,17.913-1.249,22.565-3.053l.764,11.381a59.925,59.925,0,0,0-6.249.625,109.41,109.41,0,0,1-15.692,1.11c-8.332,0-14.373-.763-18.261-2.29-6.249-2.359-9.3-6.385-9.3-12.076s2.847-10.548,9.443-15.823ZM302.84,6.038c4.236,1.11,12.29,1.735,22.427,1.735,8.4,0,14.443-.416,18.192-1.249l.347,9.161c-4.166,1.873-12.29,6.94-18.955,11.867l-7.083-5.274c2.431-1.6,7.152-4.511,9.166-5.691a61.8,61.8,0,0,1-7.916.416,130.436,130.436,0,0,1-14.373-.833,12.049,12.049,0,0,0-2.43-.208Zm36.244,15.337a34.8,34.8,0,0,1,6.18,8.745l-5.694,3.331a38.106,38.106,0,0,0-6.179-8.883Zm7.638-4.164a40.319,40.319,0,0,1,6.18,8.4l-5.555,3.262a44.792,44.792,0,0,0-6.041-8.606Z"/><path class="cls-1" d="M380.738,53.3c-3.125,0-5.694.069-7.221.208.138-1.457.277-3.887.277-6.94V31.716c0-1.8-.069-2.429-.139-4.094,1.32.069,3.333.138,6.874.138h33.19c3.333,0,4.791-.069,6.526-.208a32.974,32.974,0,0,0-.138,4.095V46.013a60.117,60.117,0,0,0,.277,7.5c-1.6-.139-3.819-.208-7.221-.208h-5.832v2.5c0,1.735.624,1.943,6.526,1.943,5.208,0,6.319-.208,7.013-1.11.417-.625.695-2.29.833-6.385a21.066,21.066,0,0,0,7.569,2.5c-1.111,11.382-2.152,12.146-16.664,12.146-11.943,0-14.026-.833-14.026-5.761V53.3h-5.416a19.3,19.3,0,0,1-10.623,9.855c-3.541,1.388-7.638,2.22-13.609,2.637a23.732,23.732,0,0,0-4.027-7.773H366.3c8.679,0,13.748-1.388,17.219-4.719Zm8.679-31.994h3.4a44.606,44.606,0,0,0,5.555-.208v5.066a54.894,54.894,0,0,0-5.555-.208H372.475c-2.222,0-2.986,0-5.068.139.138-2.082.208-3.332.208-7.149V9.508a63.934,63.934,0,0,0-.278-7.426c1.805.139,3.541.208,7.221.208H391.5a46.141,46.141,0,0,0,6.874-.347V8.05a49.955,49.955,0,0,0-5.277-.208h-3.68V9.647h3.333c2.013,0,3.194-.07,4.165-.139a10.955,10.955,0,0,0-.138,2.29A23.178,23.178,0,0,0,404.137.486l8.679,1.457c-.764,1.666-.972,2.013-1.736,3.54h10.554a51.843,51.843,0,0,0,6.249-.347v7.911a41.8,41.8,0,0,0-6.249-.347h-15a39.818,39.818,0,0,1-3.332,4.164c1.874.139,2.569.139,4.166.139h12.081a45.75,45.75,0,0,0,6.179-.278v7.357a46.25,46.25,0,0,0-6.04-.278H408.442a43.919,43.919,0,0,0-5.9.278V17.7c-.9.972-1.319,1.319-2.5,2.429a23.872,23.872,0,0,0-3.263-5v1.18a22.273,22.273,0,0,0,.138,3.4,39.717,39.717,0,0,0-4.3-.139h-3.194ZM381.849,9.647V7.842H375.6V9.647Zm7.221,5.9V13.672H375.6v1.874ZM375.6,19.571v1.735h6.179V19.571Zm6.735,15.268h29.232V32.757H382.335Zm0,6.454h29.232V39.211H382.335Zm0,6.455h29.232V45.666H382.335Z"/><path class="cls-1" d="M486.686,7.981c-1.736,1.18-1.736,1.18-8.679,7.565-3.542,3.262-8.957,7.5-16.734,13.394-2.152,1.6-2.5,1.943-2.5,2.707,0,.971,0,.971,6.735,5.829,6.735,4.928,10.971,8.4,21.178,17.42.764.694,1.18,1.041,2.083,1.735L480.3,65.306c-1.875-2.637-4.235-5.136-9.1-9.577-5.068-4.72-7.152-6.385-18.052-14.852-3.195-2.5-4.444-3.748-5.277-5.275a10.849,10.849,0,0,1-.972-4.3,9.1,9.1,0,0,1,2.43-5.969c.971-1.041,1.944-1.873,6.179-5.066A162.409,162.409,0,0,0,471.619,6.8c3.333-3.192,4.1-4.025,5.346-5.9Z"/><path class="cls-1" d="M513.41,13.186a54.741,54.741,0,0,0,9.929.694h2.291a80.146,80.146,0,0,0,1.181-10.271V2.429l10.97.9c-.486,1.6-.486,1.6-1.388,6.663-.278,1.874-.348,2.012-.556,3.4a65.7,65.7,0,0,0,11.6-1.943l.347,9.508c-1.318.139-1.318.139-3.819.555a78,78,0,0,1-9.789,1.111,162.567,162.567,0,0,1-4.027,17.142c-2.084,7.564-2.848,9.854-6.041,19.015-.695,2.013-1.251,3.609-1.6,4.789l-10.692-3.956c4.652-8.883,9.721-24.082,12.15-36.713H522.02l-7.429-.139h-1.32Zm36.175,27.691c-2.777,3.678-3.541,5.344-3.541,7.634,0,3.262,3.194,4.858,9.929,4.858a50.737,50.737,0,0,0,15.553-2.706l.694,10.271c-1.25.139-1.805.208-3.541.486a85.517,85.517,0,0,1-13.262,1.11c-6.387,0-10.9-.9-14.373-2.984a10.319,10.319,0,0,1-5.138-9.022c0-3.748,1.458-7.287,5.347-12.631Zm20.136-8.12a74.228,74.228,0,0,0-8.957-.486,80.545,80.545,0,0,0-18.817,1.944l-.694-9.161c10.346-1.874,13.817-2.221,21.872-2.221,1.735,0,2.013,0,6.387.069ZM557.986,4.234a38.677,38.677,0,0,1,5.554,9.646l-6.249,2.5a42.416,42.416,0,0,0-5.415-9.854Zm8.332-2.915a38.834,38.834,0,0,1,5.555,9.161l-6.111,2.567a47.526,47.526,0,0,0-5.345-9.577Z"/><path class="cls-1" d="M589.015,14.366c1.944.208,4.791.347,7.429.347,4.86,0,12.29-.486,17.845-1.111-1.25-3.261-3.611-9.021-4.235-10.34l10.692-1.319c.487,2.846,1.319,5.483,3.4,10.48A98.838,98.838,0,0,0,641.23,8.467l1.109,9.855a51.764,51.764,0,0,0-5.415.971c-4.166.9-4.166.9-9.374,1.8,2.431,4.58,4.028,7.5,4.792,8.814,2.013,3.262,5.068,7.842,7.221,10.826L629.911,44.9a11.48,11.48,0,0,0-4.86-3.053,31.777,31.777,0,0,0-10.484-1.527c-8.749,0-13.887,2.5-13.887,6.8a4.8,4.8,0,0,0,1.805,3.817c2.014,1.6,6.458,2.568,12.012,2.568,7.5,0,15.9-1.8,21.316-4.65l1.32,10.549L631.3,60.864a67,67,0,0,1-16.733,2.082c-9.3,0-16.317-1.8-20-5.135a14.082,14.082,0,0,1-4.583-10.2,13.822,13.822,0,0,1,4.583-10.2c4.027-3.748,10.137-5.621,18.261-5.621a33.871,33.871,0,0,1,11.318,1.665,43.354,43.354,0,0,1-3.2-4.927,34.405,34.405,0,0,1-2.43-4.442c-.625-1.11-.625-1.11-.9-1.666-7.359.972-12.428,1.319-24.578,1.6a23.461,23.461,0,0,0-3.265.208Z"/><path class="cls-1" d="M671.355,7.565a81.515,81.515,0,0,0-.624,11.451c0,16.586,2.569,28.871,6.109,28.871.9,0,1.736-.972,2.5-2.846a57.986,57.986,0,0,0,3.68-12.353,34.18,34.18,0,0,0,8.193,7.495c-3.68,13.6-8.193,19.779-14.581,19.779-5.069,0-9.166-3.678-12.082-10.9-2.846-7.079-3.818-15.892-4.234-36.921a37.027,37.027,0,0,0-.278-4.65Zm32.425,2.776c8.888,10.687,13.957,23.041,15.832,38.8l-10.485,3.886a70.771,70.771,0,0,0-4.236-20.751,61.365,61.365,0,0,0-10-17.766Z"/><path class="cls-1" d="M756.4,44.694c.07-1.735.139-2.5.139-3.262,0-.9,0-.9-.208-5L755.155,13.6c-.139-3.122-.417-6.523-.695-8.883H768c-.278,2.013-.556,5.275-.694,8.883l-1.181,22.833c-.208,4.234-.208,4.234-.208,5.067,0,.763.069,1.457.139,3.192Zm-1.111,16.517V49.968h11.874V61.211Z"/></svg>