<svg xmlns="http://www.w3.org/2000/svg" width="294" height="174.952" viewBox="0 0 294 174.952">
  <g id="グループ_21520" data-name="グループ 21520" transform="translate(-40.5 -6919.592)">
    <text id="定期借地の運用実績" transform="translate(187.5 6954.592)" fill="#707070" font-size="30" font-family="NotoSansJP-Bold, Noto Sans JP" font-weight="700" letter-spacing="0.1em"><tspan x="-147" y="0">定期借地</tspan><tspan y="0">の</tspan><tspan y="0">運用実績</tspan></text>
    <path id="パス_88785" data-name="パス 88785" d="M-66.313,0H-86.662L-120.7-51.527V0h-20.349V-83.538H-120.7l34.034,51.765V-83.538h20.349ZM-6.1.833A43.6,43.6,0,0,1-27.7-4.641,40.92,40.92,0,0,1-43.286-19.933a42.737,42.737,0,0,1-5.771-22.074,42.42,42.42,0,0,1,5.771-22.015A41.049,41.049,0,0,1-27.7-79.254,43.6,43.6,0,0,1-6.1-84.728a43.6,43.6,0,0,1,21.6,5.474A40.19,40.19,0,0,1,30.97-64.022a43.112,43.112,0,0,1,5.653,22.015A43.082,43.082,0,0,1,30.91-19.933,40.613,40.613,0,0,1,15.44-4.641,43.268,43.268,0,0,1-6.1.833Zm0-18.564q10,0,16.006-6.664t6.009-17.612q0-11.067-6.009-17.672T-6.1-66.283q-10.115,0-16.124,6.545t-6.01,17.731q0,11.067,6.01,17.671T-6.1-17.731ZM63.4.952A12.334,12.334,0,0,1,54.651-2.2,10.218,10.218,0,0,1,51.259-10a10.538,10.538,0,0,1,3.392-7.973A12.2,12.2,0,0,1,63.4-21.182a12.041,12.041,0,0,1,8.627,3.213A10.538,10.538,0,0,1,75.416-10,10.218,10.218,0,0,1,72.025-2.2,12.171,12.171,0,0,1,63.4.952ZM90.489-94.786V-121.18h45.982V0H106.923V-94.786Z" transform="translate(191.84 7093.592)" fill="#c7bb5d"/>
  </g>
</svg>
