<svg xmlns="http://www.w3.org/2000/svg" width="632.676" height="90.03" viewBox="0 0 632.676 90.03">
  <g id="グループ_21514" data-name="グループ 21514" transform="translate(-637 -8343.181)">
    <text id="定期借地の運用実績" transform="translate(848 8421.211)" fill="#707070" font-size="43" font-family="NotoSansJP-Bold, Noto Sans JP" font-weight="700" letter-spacing="0.1em"><tspan x="-210.7" y="0">定期借地</tspan><tspan y="0">の</tspan><tspan y="0">運用実績</tspan></text>
    <path id="パス_88784" data-name="パス 88784" d="M-44.468,0h-13.68l-22.88-34.64V0h-13.68V-56.16h13.68l22.88,34.8v-34.8h13.68Zm40.48.56a29.311,29.311,0,0,1-14.52-3.68A27.509,27.509,0,0,1-28.988-13.4a28.731,28.731,0,0,1-3.88-14.84,28.518,28.518,0,0,1,3.88-14.8,27.6,27.6,0,0,1,10.48-10.24,29.311,29.311,0,0,1,14.52-3.68,29.311,29.311,0,0,1,14.52,3.68,27.019,27.019,0,0,1,10.4,10.24,28.983,28.983,0,0,1,3.8,14.8,28.963,28.963,0,0,1-3.84,14.84,27.3,27.3,0,0,1-10.4,10.28A29.088,29.088,0,0,1-3.988.56Zm0-12.48A13.782,13.782,0,0,0,6.772-16.4q4.04-4.48,4.04-11.84,0-7.44-4.04-11.88a13.842,13.842,0,0,0-10.76-4.44q-6.8,0-10.84,4.4t-4.04,11.92q0,7.44,4.04,11.88A13.937,13.937,0,0,0-3.988-11.92ZM42.732.64a8.292,8.292,0,0,1-5.88-2.12,6.87,6.87,0,0,1-2.28-5.24,7.085,7.085,0,0,1,2.28-5.36,8.2,8.2,0,0,1,5.88-2.16,8.1,8.1,0,0,1,5.8,2.16,7.085,7.085,0,0,1,2.28,5.36,6.87,6.87,0,0,1-2.28,5.24A8.182,8.182,0,0,1,42.732.64Zm18.2-64.021V-81.03H91.676V0H71.918V-63.381Z" transform="translate(1178 8424.211)" fill="#c7bb5d"/>
  </g>
</svg>
