<?xml version="1.0" encoding="UTF-8"?><svg id="_レイヤー_1" xmlns="http://www.w3.org/2000/svg" xmlns:xlink="http://www.w3.org/1999/xlink" viewBox="0 0 515 161"><defs><style>.cls-1,.cls-2{fill:none;}.cls-3{fill:#c7bb5d;}.cls-4{fill:#c6b368;}.cls-5{fill:#c0b55c;}.cls-6{fill:#231815;}.cls-7{fill:#fff;}.cls-2{stroke:#c0b55c;stroke-width:.19px;}.cls-8{clip-path:url(#clippath);}</style><clipPath id="clippath"><rect class="cls-1" width="515" height="161"/></clipPath></defs><g id="_グループ_20535"><rect id="_長方形_9206" class="cls-6" width="515" height="161"/><path id="_パス_81650" class="cls-5" d="M87.4,115.25l-26.81-26.81h-9.06v-9.07l-15.6-15.6,15.6-15.6v-9.06h9.06l26.81-26.81,26.81,26.81h8.87v8.87l15.8,15.8-15.8,15.8v8.86h-8.87l-26.81,26.81ZM54.05,85.91h7.59l25.76,25.76,25.76-25.76h7.39v-7.39l14.76-14.76-14.75-14.75v-7.39h-7.39l-25.77-25.76-25.76,25.76h-7.59v7.59l-14.56,14.55,14.56,14.56v7.59Z"/><path id="_パス_81651" class="cls-6" d="M121.82,79.05l15.28-15.28-15.28-15.28v-8.13h-8.13l-26.29-26.29-26.29,26.29h-8.33v8.33l-15.08,15.08,15.08,15.08v8.33h8.33l26.29,26.29,26.29-26.29h8.13v-8.13Z"/><path id="_パス_81652" class="cls-4" d="M118.65,46.62v-1.72h-5.85l-18.51-18.51h0l-1.21-1.21-1.64-1.64-1.21-1.21h0l-1.64-1.64h0l-1.21-1.21-1.21,1.21-1.63,1.64h0l-1.21,1.21-1.64,1.64h0l-1.21,1.21h0l-18.51,18.51h-5.85v1.72h6.57s19-19.01,19-19.01l1.64,1.64-19.69,19.69h-7.52v1.71h8.23v-.03h.01s20.18-20.16,20.18-20.16l1.64,1.64-20.87,20.87h-9.19v1.71h9.89s0,0,0,0h.01s21.36-21.37,21.36-21.37l21.35,21.36h0s.01.01.01.01h0s0,0,0,0h9.88v-1.71h-9.18l-20.87-20.87,1.64-1.64,20.17,20.17h.01s0,.01,0,.01h8.23v-1.72h-7.52l-19.69-19.68,1.64-1.64,19,19h0s6.58.01,6.58.01ZM87.38,21.92l1.64,1.64-1.64,1.64-1.64-1.64,1.64-1.63ZM82.9,26.41l1.64-1.64,1.64,1.64-1.64,1.63-1.64-1.63ZM87.38,30.89l-1.64-1.64,1.64-1.64,1.64,1.64-1.64,1.64ZM90.23,28.03l-1.64-1.64,1.64-1.64,1.64,1.64-1.64,1.64ZM108.76,72.97h0s-.01,0-.01,0h0s-21.35,21.37-21.35,21.37l-21.36-21.36h0s-.01-.01-.01-.01h0s0,0,0,0h-9.88v1.71h9.19l20.86,20.87-1.63,1.64-20.18-20.18h-.01s0-.02,0-.02h-8.23v1.71h7.52l19.69,19.69-1.64,1.64-19-19h0s-6.57,0-6.57,0v1.71h5.85l18.51,18.51,1.21,1.21h0l1.64,1.64,1.21,1.21,1.64,1.64,1.21,1.21h0l1.21-1.21h0l1.64-1.64,1.21-1.21,1.64-1.64,1.21-1.21,18.51-18.51h5.85v-1.71h-6.58s-19,19.01-19,19.01l-1.64-1.64,19.69-19.69h7.52v-1.72h-8.23v.03h-.01s-20.17,20.16-20.17,20.16l-1.64-1.64,20.87-20.87h9.19v-1.72h-9.89ZM82.9,101.25l1.64-1.64,1.64,1.64-1.64,1.64-1.64-1.64ZM87.38,105.73l-1.64-1.64,1.64-1.64,1.64,1.64-1.64,1.64ZM91.86,101.25l-1.64,1.64-1.64-1.64,1.64-1.64,1.64,1.64ZM89.02,98.4l-1.64,1.64-1.63-1.64,1.64-1.64,1.63,1.64Z"/><path id="_パス_81653" class="cls-2" d="M118.65,46.62v-1.72h-5.85l-18.51-18.51h0l-1.21-1.21-1.64-1.64-1.21-1.21h0l-1.64-1.64h0l-1.21-1.21-1.21,1.21-1.63,1.64h0l-1.21,1.21-1.64,1.64h0l-1.21,1.21h0l-18.51,18.51h-5.85v1.72h6.57s19-19.01,19-19.01l1.64,1.64-19.69,19.69h-7.52v1.71h8.23v-.03h.01s20.18-20.16,20.18-20.16l1.64,1.64-20.87,20.87h-9.19v1.71h9.89s0,0,0,0h.01s21.36-21.37,21.36-21.37l21.35,21.36h0s.01.01.01.01h0s0,0,0,0h9.88v-1.71h-9.18l-20.87-20.87,1.64-1.64,20.17,20.17h.01s0,.01,0,.01h8.23v-1.72h-7.52l-19.69-19.68,1.64-1.64,19,19h0s6.58.01,6.58.01ZM87.38,21.92l1.64,1.64-1.64,1.64-1.64-1.64,1.64-1.63ZM82.9,26.41l1.64-1.64,1.64,1.64-1.64,1.63-1.64-1.63ZM87.38,30.89l-1.64-1.64,1.64-1.64,1.64,1.64-1.64,1.64ZM90.23,28.03l-1.64-1.64,1.64-1.64,1.64,1.64-1.64,1.64ZM108.76,72.97h0s-.01,0-.01,0h0s-21.35,21.37-21.35,21.37l-21.36-21.36h0s-.01-.01-.01-.01h0s0,0,0,0h-9.88v1.71h9.19l20.86,20.87-1.63,1.64-20.18-20.18h-.01s0-.02,0-.02h-8.23v1.71h7.52l19.69,19.69-1.64,1.64-19-19h0s-6.57,0-6.57,0v1.71h5.85l18.51,18.51,1.21,1.21h0l1.64,1.64,1.21,1.21,1.64,1.64,1.21,1.21h0l1.21-1.21h0l1.64-1.64,1.21-1.21,1.64-1.64,1.21-1.21,18.51-18.51h5.85v-1.71h-6.58s-19,19.01-19,19.01l-1.64-1.64,19.69-19.69h7.52v-1.72h-8.23v.03h-.01s-20.17,20.16-20.17,20.16l-1.64-1.64,20.87-20.87h9.19v-1.72h-9.89ZM82.9,101.25l1.64-1.64,1.64,1.64-1.64,1.64-1.64-1.64ZM87.38,105.73l-1.64-1.64,1.64-1.64,1.64,1.64-1.64,1.64ZM91.86,101.25l-1.64,1.64-1.64-1.64,1.64-1.64,1.64,1.64ZM89.02,98.4l-1.64,1.64-1.63-1.64,1.64-1.64,1.63,1.64Z"/><path id="_パス_81654" class="cls-7" d="M101.77,71.38l-17.52-17.52,3.36-3.36,4.12,4.18h13.6l-17.72-17.66-16.83,16.83,2.26,2.26h0l17.52,17.52-3.35,3.36-4.12-4.18h-13.6l17.72,17.66,16.83-16.83-2.26-2.26Z"/><g id="_グループ_20203"><g class="cls-8"><g id="_グループ_20202"><path id="_パス_81655" class="cls-7" d="M201.56,44.64c0,.49.14.97.43,1.37.57.64,1.41.98,2.27.92,1.55,0,2.49-.7,2.49-1.87.03-.58-.27-1.14-.78-1.43-.86-.38-1.77-.64-2.71-.76-.85-.13-1.65-.45-2.35-.95-.78-.6-1.23-1.54-1.2-2.52,0-2.16,1.74-3.56,4.42-3.56,1.47-.13,2.91.46,3.87,1.57.39.53.65,1.15.76,1.8l-2.23.26c-.04-.41-.2-.79-.47-1.1-.51-.52-1.22-.8-1.94-.75-1.35,0-2.27.68-2.27,1.7,0,.65.43,1.23,1.06,1.41.71.25,1.45.44,2.19.56.9.14,1.76.47,2.54.95.86.61,1.35,1.62,1.29,2.68.04.98-.31,1.93-.98,2.64-1.04.87-2.37,1.29-3.72,1.18-1.14.03-2.27-.25-3.27-.81-.63-.43-1.11-1.06-1.37-1.78-.15-.42-.25-.85-.3-1.29l2.24-.24Z"/><path id="_パス_81656" class="cls-7" d="M220.32,37.43c1.2,1.32,1.83,3.07,1.74,4.85,0,3.94-2.29,6.49-5.82,6.49s-5.8-2.54-5.8-6.49c-.09-1.79.55-3.54,1.77-4.85,1.06-1.05,2.52-1.62,4.01-1.56,1.52-.08,3,.49,4.09,1.56M219.89,42.28c.08-1.32-.36-2.63-1.23-3.62-.64-.62-1.51-.96-2.4-.95-2.24,0-3.65,1.77-3.65,4.59-.08,1.34.38,2.66,1.26,3.67.64.63,1.51.97,2.41.95,2.23,0,3.61-1.77,3.61-4.63"/><path id="_パス_81657" class="cls-7" d="M231.99,48.5c-.3-.57-.63-1.13-1-1.66l-4.01-6.05c-.3-.47-.68-1.14-1.06-1.87q.02.22.06.79c.01.3.05,1,.05,1.35v5.1c-.01.78.03,1.56.12,2.33h-2.27c.1-.78.14-1.56.12-2.35v-8.03c0-.67-.03-1.34-.12-2.01h2.43c.25.58.57,1.14.95,1.65l3.93,5.93c.37.56.87,1.37,1.21,1.99-.06-.61-.11-1.54-.11-2.19v-5.23c.02-.72-.03-1.43-.12-2.15h2.27c-.1.71-.14,1.43-.12,2.15v8.23c-.02.67.03,1.34.12,2.01h-2.45Z"/><path id="_パス_81658" class="cls-7" d="M245.41,48.5c-.1-.55-.25-1.1-.44-1.63l-.62-1.7h-4.98l-.62,1.7c-.21.53-.37,1.07-.47,1.63h-2.55c.31-.59.59-1.21.82-1.83l3.42-8.98c.21-.51.38-1.03.5-1.57h2.71c.13.54.31,1.06.53,1.57l3.45,8.98c.23.63.49,1.24.79,1.83h-2.55ZM242.13,38.78c-.06-.17-.11-.36-.28-.87q-.25.73-.3.87l-1.62,4.6h3.86l-1.66-4.6Z"/><path id="_パス_81659" class="cls-7" d="M258.07,48.62c-.66-.09-1.34-.12-2.01-.11h-4.85c-.93,0-1.35.02-1.98.05.1-.68.14-1.37.12-2.05v-8.42c0-.67-.03-1.34-.12-2.01.62.03,1.03.05,1.98.05h4.7c.67,0,1.34-.03,2-.11v2.05c-.67-.08-1.34-.12-2.01-.11h-4.48v3.2h3.78c.68,0,1.35-.03,2.02-.11v2.04c-.67-.09-1.35-.13-2.02-.11h-3.8v3.67h4.67c.67,0,1.33-.03,1.99-.11v2.08Z"/><path id="_パス_81660" class="cls-7" d="M275.27,36.59c-.21.36-.39.74-.54,1.12-.59,1.53-1.33,3.01-2.19,4.4,1.23,1.02,2.38,2.13,3.47,3.3l-1.49,1.6c-.94-1.19-2-2.29-3.16-3.28-.72.95-1.53,1.82-2.43,2.6-1.13.99-2.37,1.85-3.7,2.57-.33-.63-.8-1.19-1.37-1.62,2.34-1.12,4.4-2.76,6-4.81-1.29-1.05-2.67-1.99-4.12-2.8l1.37-1.37c1.13.67,1.8,1.1,2.57,1.65q1.17.84,1.29.92c.97-1.56,1.71-3.24,2.19-5.01l2.11.73Z"/><path id="_パス_81661" class="cls-7" d="M280.11,46.45c1.59-.13,3.14-.52,4.6-1.15,1.88-.79,3.49-2.12,4.62-3.81.67-.96,1.2-2.01,1.59-3.11.46.6,1.02,1.11,1.65,1.52-1.01,2.47-2.73,4.59-4.93,6.1-1.81,1.15-3.82,1.94-5.93,2.33-.35.06-.69.14-1.03.26l-.57-2.15ZM281.43,36.79c1.45.84,2.79,1.85,4.01,3l-1.34,1.69c-1.15-1.25-2.49-2.32-3.96-3.16l1.29-1.54Z"/><path id="_パス_81662" class="cls-7" d="M300.24,37.05c-.1.39-.17.79-.2,1.2-.24,1.81-.65,3.59-1.23,5.32-.61,1.76-1.54,3.39-2.75,4.81-.51-.54-1.11-.99-1.77-1.34.95-.95,1.7-2.08,2.22-3.31.75-1.7,1.24-3.5,1.46-5.34.08-.5.13-1,.14-1.51v-.22l2.13.39ZM304.66,36.66c.11,1.21.33,2.41.65,3.58.56,2.5,1.76,4.81,3.47,6.72-.65.38-1.22.86-1.71,1.43-1.12-1.37-2.02-2.91-2.65-4.57-.72-1.82-1.21-3.72-1.48-5.66-.05-.38-.12-.75-.22-1.12l1.93-.38ZM306.29,36.83c.5.67.89,1.41,1.17,2.19l-1.17.54c-.28-.79-.67-1.54-1.15-2.23l1.15-.51ZM308,38.79c-.29-.75-.67-1.47-1.12-2.15l1.09-.5c.47.64.86,1.34,1.15,2.08l-1.12.56Z"/><path id="_パス_81663" class="cls-7" d="M310.47,41.27c.84.11,1.68.14,2.52.11h8.29c.84.03,1.68,0,2.52-.11v2.16c-.84-.09-1.69-.12-2.53-.08h-8.26c-.85-.04-1.69-.01-2.53.08v-2.16Z"/><path id="_パス_81664" class="cls-7" d="M327.71,39.73c1.45.56,2.84,1.27,4.14,2.11l-.96,1.76c-1.3-.94-2.72-1.71-4.21-2.29l1.04-1.59ZM327.01,46.7c1.54-.09,3.06-.43,4.49-1.01,1.81-.66,3.38-1.85,4.49-3.42.79-1.04,1.4-2.2,1.8-3.44.47.53,1.02,1,1.62,1.38-.55,1.43-1.34,2.77-2.33,3.94-1.98,2.27-4.62,3.65-8.45,4.42-.37.06-.73.15-1.09.25l-.54-2.12ZM328.91,35.97c1.44.54,2.82,1.21,4.14,2.01l-1,1.71c-1.29-.89-2.68-1.61-4.15-2.15l1.02-1.57Z"/><path id="_パス_81665" class="cls-7" d="M344.63,39.37c.64,1.17,1.15,2.4,1.52,3.69l-1.76.56c-.31-1.31-.78-2.58-1.42-3.76l1.65-.48ZM353.55,39.48c-.1.25-.18.52-.22.79-.34,1.86-1.07,3.63-2.15,5.18-1.23,1.64-2.87,2.93-4.74,3.75-.32-.58-.74-1.1-1.24-1.54.95-.34,1.84-.82,2.64-1.43,1.81-1.3,3.07-3.22,3.53-5.4.17-.58.26-1.18.28-1.79l1.9.44ZM347.94,38.73c.65,1.12,1.16,2.33,1.51,3.58l-1.73.54c-.33-1.27-.81-2.49-1.42-3.66l1.63-.47Z"/><path id="_パス_81666" class="cls-7" d="M366.87,37.01c.29,0,.57,0,.86-.03.02-.95.81-1.69,1.75-1.67s1.69.81,1.67,1.75c-.02.92-.77,1.66-1.69,1.67-.06,0-.12,0-.17-.01-.41,1.78-1.12,3.48-2.1,5.02-1.03,1.5-2.34,2.78-3.87,3.76-.93.61-1.92,1.13-2.95,1.54-.33-.7-.79-1.33-1.37-1.85,1.21-.36,2.36-.89,3.41-1.59,2.41-1.54,4.1-3.98,4.71-6.77h-7.4c-.65-.02-1.31,0-1.96.09v-2.03c.66.1,1.33.13,1.99.11h7.14ZM368.55,37.01c0,.49.4.89.89.89s.89-.4.89-.89c0-.48-.38-.88-.86-.89,0,0-.02,0-.02,0-.49,0-.88.4-.89.89"/><path id="_パス_81667" class="cls-7" d="M375.24,46.03c-.7.39-1.43.73-2.18,1.01-.22-.5-.53-.95-.9-1.35,1.24-.31,2.42-.83,3.48-1.54h-1.63c-.57,0-1.14.02-1.71.08v-1.48c.58.06,1.17.08,1.76.08h3.07c.15-.15.28-.32.39-.5h-2.1c-.51,0-.87.02-1.23.03.03-.36.05-.67.05-1.07v-2.22c0-.4-.02-.73-.05-1.09.41.04.82.05,1.23.05h.68v-.59h-2.02c-.57,0-1.14.03-1.71.11v-1.51c.58.07,1.16.1,1.74.09h1.99v-.08c0-.28-.01-.56-.06-.84h1.74c-.05.28-.07.56-.06.84v.08h3.2v-.08c0-.28-.01-.56-.05-.84h1.73c-.05.28-.07.56-.06.84v.08h2.1c.59,0,1.17-.03,1.76-.09v1.51c-.57-.08-1.14-.12-1.71-.11h-2.14v.59h.86c.41,0,.82,0,1.23-.05-.03.34-.05.65-.05,1.09v2.22c0,.36.01.72.05,1.07-.36-.02-.73-.03-1.24-.03h-4.14c-.1.17-.21.34-.33.5h5.82c.59,0,1.17-.02,1.76-.08v1.48c-.57-.06-1.14-.09-1.71-.08h-1.68c.51.37,1.07.66,1.66.89.66.26,1.34.45,2.04.56-.33.46-.6.95-.79,1.48-.74-.24-1.46-.55-2.15-.92-.3,3.02-.56,3.34-2.75,3.34-.3,0-.59-.01-1.2-.05-.06-.53-.23-1.04-.5-1.51.51.09,1.03.15,1.55.15,1.03,0,1.12-.1,1.26-1.53h-2.78c-.92,1.71-2.58,2.68-5.32,3.1-.21-.49-.5-.96-.84-1.37,2.1-.2,3.48-.75,4.34-1.73h-1.02c-.45-.01-.91.01-1.35.08v-.62ZM375.79,39.59h7.22v-.5h-7.22v.5ZM375.79,41.18h7.22v-.54h-7.22v.54ZM377.8,44.15c-.45.44-.93.84-1.45,1.2h1.96c.1-.28.15-.59.14-.89l1.74.06c-.02.06-.11.34-.23.83h2.57c-.52-.35-1.01-.75-1.45-1.2h-3.28ZM380.92,37.43h-3.2v.59h3.2v-.59Z"/><path id="_パス_81668" class="cls-7" d="M396.17,42.44h3.66c.5.01,1.01-.01,1.51-.06v1.35c-.49-.07-.99-.09-1.49-.08h-4.11v.82h4.42c.59.02,1.19,0,1.77-.08v1.57c-.59-.08-1.18-.11-1.77-.09h-3.09c1.56,1.01,3.31,1.68,5.15,1.96-.23.28-.42.59-.58.92-.02.03-.08.17-.17.39-.03.06-.08.17-.14.3-1.07-.27-2.12-.65-3.11-1.13-.93-.44-1.78-1.02-2.52-1.74.03.45.05.86.05,1.03v.9c-.02.38.01.75.09,1.12h-1.85c.08-.36.11-.73.1-1.1v-.92c0-.36.02-.65.05-1.03-.81.81-1.76,1.45-2.82,1.9-.89.42-1.82.74-2.77.97-.22-.55-.52-1.08-.87-1.56,1.16-.17,2.29-.51,3.36-1,.6-.25,1.17-.59,1.68-1h-3c-.59-.02-1.18.02-1.76.09v-1.57c.58.07,1.17.1,1.76.08h4.37v-.82h-3.09c-.61,0-.95.01-1.32.05.05-.41.07-.83.06-1.24v-1.93c0-.5.02-.92.05-1.35-.42.5-.9.96-1.43,1.35-.2-.54-.47-1.06-.81-1.52,1.15-.79,2.12-1.81,2.85-3,.2-.32.37-.66.5-1.01l1.8.3c-.26.45-.55.89-.86,1.31h2.79c.34-.48.61-1.01.81-1.57l1.76.22c-.25.46-.52.92-.81,1.35h3.34c.51.01,1.02-.01,1.52-.08v1.45c-.43-.05-.86-.07-1.29-.06h-3.78v.75h2.99c.49.01.99-.01,1.48-.08v1.27c-.49-.06-.98-.08-1.48-.06h-2.99v.75h2.99c.49.01.99-.01,1.48-.08v1.27c-.49-.05-.98-.07-1.48-.06h-2.99v.78ZM394.56,37.89h-3.2v.75h3.2v-.75ZM394.56,39.78h-3.2v.75h3.2v-.75ZM391.35,42.44h3.2v-.78h-3.2v.78Z"/><path id="_パス_81669" class="cls-7" d="M404.6,44.75c1.32.98,2.49,2.13,3.5,3.42l-1.45,1.35c-.95-1.34-2.08-2.54-3.38-3.55l1.32-1.23Z"/><path id="_パス_81670" class="cls-7" d="M432.72,38.08c-.1.1-.2.21-.28.33-.43.51-.88.99-1.37,1.45.76.43,1.55.8,2.36,1.1-.36.47-.63.99-.81,1.56-1.36-.56-2.63-1.32-3.76-2.26v.92c-.35-.05-.69-.07-1.04-.06h-3.44c-.33,0-.66.01-.98.06v-1.01c-1.18.97-2.48,1.79-3.87,2.41-.19-.54-.48-1.04-.84-1.48,1.04-.39,2.02-.91,2.92-1.54-.63-.68-1.33-1.29-2.08-1.82l1.15-1.03c.77.58,1.5,1.21,2.18,1.9.56-.46,1.06-.98,1.48-1.57h-2.05c-.32,0-.63.02-.95.06v-1.57c.43.07.86.09,1.29.08h2.92c.45.01.89,0,1.34-.06.18.67.54,1.28,1.04,1.76.5-.5.94-1.07,1.31-1.68l1.29.86c-.49.63-1.03,1.23-1.6,1.79.31.28.63.54.96.78.6-.54,1.11-1.16,1.54-1.84l1.29.87ZM423.23,47.69c-.16-.44-.38-.87-.64-1.26l1.37-.5h-1.66c-.37,0-.75.01-1.12.05.04-.38.07-.76.06-1.13v-1.95c0-.35-.02-.71-.06-1.06.41.05.82.07,1.23.06h7.34c.41,0,.81-.01,1.21-.06-.05.35-.07.69-.06,1.04v1.97c0,.38.01.76.06,1.13-.37-.04-.75-.05-1.12-.05h-1.51l1.29.47c-.25.47-.61,1.13-.72,1.29h2.66c.51.01,1.02-.01,1.52-.08v1.67c-.54-.06-1.08-.09-1.62-.08h-10.77c-.54-.01-1.08.01-1.62.08v-1.68c.5.07,1,.09,1.51.08h2.63ZM422.84,44.53h6.41v-1.26h-6.41v1.26ZM427.84,39.73h.39c-.81-.72-1.53-1.54-2.15-2.44-.61.9-1.33,1.73-2.14,2.44h3.9ZM427.23,47.69c.33-.56.59-1.15.79-1.76h-3.89c.3.57.56,1.15.78,1.76h2.32Z"/><path id="_パス_81671" class="cls-7" d="M436.65,40.45c-.31,0-.61.02-.92.05v-.82c-.3.26-.39.34-.71.61-.15-.53-.39-1.03-.72-1.48,1.22-.82,2.16-1.99,2.69-3.36h1.71c.49,1.07,1.28,1.98,2.27,2.61-.38.41-.7.88-.95,1.38l-.12-.11v1.17c-.3-.04-.61-.06-.92-.05h-.45v1.04h.62c.37,0,.74-.01,1.1-.06v-1.29c.49.07.99.1,1.49.09h3.93c.03-.47.05-.62.06-.89h-3.08c-.47,0-.95.01-1.42.06v-1.48c.47.07.94.09,1.42.08h3.14c.03-.39.03-.43.05-.85h-3.48c-.49,0-.99.01-1.48.06v-1.49c.52.06,1.04.09,1.56.08h3.66c.48,0,.96-.01,1.43-.06-.06.5-.09,1-.09,1.51-.05.81-.12,2.18-.19,2.99h.1c.5,0,1-.02,1.49-.09v1.54c-.49-.05-.98-.08-1.48-.08h-2.08c.12.8.37,1.58.75,2.3.6-.54,1.11-1.17,1.51-1.87l1.28.9c-.62.79-1.32,1.53-2.07,2.21.63.91,1.45,1.68,2.4,2.24-.38.46-.69.98-.93,1.52-.73-.57-1.37-1.25-1.9-2.01-.52-.74-.91-1.55-1.18-2.41.03.31.06.89.1,1.73v1.99c0,1.04-.45,1.42-1.71,1.42-.34,0-.76-.02-1.37-.06-.02-.54-.14-1.07-.36-1.57.4.09.81.14,1.21.15.58,0,.68-.06.68-.4v-1.47c-.35.31-.72.6-1.1.87q-.27.19-1.32.92-.25.17-.51.36l-.5-1.11v.62c-1.37.45-2.76.82-4.17,1.1-.42.07-.83.16-1.23.28l-.23-1.71c.82-.02,1.63-.13,2.43-.33v-4.35h-.81c-.51,0-1.02.02-1.52.08v-1.59c.51.06,1.03.08,1.54.08h.79v-1.04h-.4ZM435.44,46.88c-.12-1.03-.33-2.05-.65-3.03l1.21-.37c.32.98.55,1.99.68,3.02l-1.24.39ZM436.68,39.05h2.32c.28,0,.37,0,.58-.01-.66-.65-1.21-1.38-1.65-2.19-.41.81-.93,1.55-1.55,2.21h.31ZM441.75,41.6c-.46,0-.92.01-1.38.06v1.34c-.4-.06-.81-.09-1.21-.08h-.62v4.05c.59-.14.87-.23,1.7-.48v.33c1.24-.61,2.4-1.36,3.45-2.26v-2.96h-1.93ZM438.72,45.94c.3-.82.51-1.67.62-2.54l1.18.39c-.17.85-.42,1.68-.75,2.49l-1.06-.34ZM441.88,42.04c.55.71,1.01,1.49,1.35,2.32l-1.2.79c-.34-.88-.8-1.71-1.37-2.47l1.21-.64Z"/><path id="_パス_81672" class="cls-7" d="M452.37,38.76c-.4.39-.83.75-1.27,1.09-.33-.44-.71-.83-1.14-1.18,1.19-.76,2.18-1.79,2.89-3,.14-.24.24-.5.33-.76l1.8.34c-.12.18-.23.37-.33.56-.16.26-.28.47-.5.79h7.54c.65.01,1.31-.02,1.96-.09v1.71c-.51-.05-.73-.06-1.52-.08v2.07h.61c.51.02,1.02-.01,1.52-.09v1.74c-.5-.08-1.01-.11-1.52-.09h-.61v2.08h.31c.49.01.99-.01,1.48-.08v1.71c-.48-.08-.96-.11-1.45-.09h-10.61c-.46-.01-.93.02-1.38.09v-1.72c.51.06,1.01.09,1.52.08h.36v-2.08h-.67c-.51-.02-1.02.02-1.52.09v-1.74c.5.08,1.01.11,1.52.09h.67v-1.45ZM450.16,48.47c.87-.8,1.53-1.8,1.93-2.91l1.43.72c-.46,1.2-1.13,2.31-2,3.27l-1.36-1.07ZM453.91,40.21h1.26v-2.07h-1.26v2.07ZM453.91,43.85h1.26v-2.08h-1.26v2.08ZM454.64,49.48v-.64c-.03-.92-.11-1.84-.23-2.75l1.51-.17c.23,1.12.37,2.26.42,3.41l-1.69.16ZM457.87,38.14h-1.29v2.07h1.29v-2.07ZM457.87,41.77h-1.29v2.08h1.29v-2.08ZM458.24,49.44c-.14-1.11-.39-2.2-.73-3.27l1.51-.34c.39,1.05.7,2.13.92,3.24l-1.69.37ZM460.59,38.14h-1.32v2.07h1.32v-2.07ZM460.59,41.77h-1.32v2.08h1.32v-2.08ZM462.68,49.45c-.49-1.16-1.12-2.25-1.87-3.25l1.34-.67c.78.92,1.45,1.92,2.02,2.99l-1.49.93Z"/><path id="_パス_81673" class="cls-7" d="M471.64,45.36c-.08.2-.09.28-.17.53-.61-.67-1.13-1.4-1.57-2.19.08,1.06.09,1.28.09,1.77v2.57c-.02.54.01,1.08.09,1.62h-1.8c.08-.55.12-1.1.11-1.65v-2.01c0-.62.03-1.35.06-1.87-.45,1.28-1.13,2.47-2.02,3.5-.16-.58-.43-1.12-.79-1.6.67-.68,1.23-1.46,1.68-2.3.32-.56.59-1.15.83-1.76h-.81c-.47-.01-.94.01-1.4.08v-1.65c.46.07.93.09,1.4.08h1.04v-3.69c.01-.51-.01-1.02-.08-1.52h1.77c-.07.5-.09,1-.08,1.51v3.7h.73c.4.01.8-.01,1.2-.06v1.62c-.41-.05-.82-.07-1.23-.06h-.56c.51.91,1.19,1.72,2,2.38-.16.28-.31.57-.43.87.48-.04.96-.11,1.43-.22l3.64-.81v-7.11c.02-.6-.01-1.21-.09-1.81h1.88c-.08.59-.11,1.19-.09,1.79v6.75c.45-.1.89-.23,1.32-.39l.33,1.77c-.5.06-1,.15-1.49.28l-.15.03v2.27c-.02.61.01,1.23.09,1.83h-1.88c.08-.61.11-1.23.09-1.85v-1.88l-3.3.75c-.68.16-1.14.28-1.48.39l-.35-1.66ZM467.15,36.12c.42,1.09.74,2.21.95,3.36l-1.31.56c-.17-1.15-.49-2.27-.96-3.33l1.32-.59ZM472.48,36.67c-.31,1.16-.72,2.29-1.24,3.38l-1.14-.59c.51-1.07.87-2.2,1.07-3.36l1.31.58ZM473.26,40.2c.99.65,1.9,1.41,2.7,2.29l-1.06,1.26c-.8-.92-1.72-1.73-2.74-2.4l1.09-1.15ZM473.74,36.31c.99.65,1.91,1.42,2.72,2.29l-1.06,1.31c-.8-.92-1.73-1.73-2.75-2.4l1.09-1.19Z"/><path id="_パス_81674" class="cls-7" d="M486.43,46.9c0,1.45-1.18,2.63-2.63,2.63-1.45,0-2.63-1.18-2.63-2.63,0-1.45,1.18-2.63,2.63-2.63,1.45,0,2.62,1.18,2.63,2.63M482.38,46.9c0,.78.63,1.42,1.41,1.42.78,0,1.42-.63,1.42-1.41,0-.78-.63-1.42-1.41-1.42h0c-.78,0-1.41.63-1.42,1.41"/><path id="_パス_81675" class="cls-4" d="M203.35,71.38c2.59,1.02,5.06,2.29,7.4,3.8l-1.5,2.64c-2.3-1.68-4.82-3.03-7.49-4.03l1.59-2.41ZM202.27,84.17c2.74-.15,5.43-.76,7.97-1.79,3.33-1.22,6.22-3.41,8.31-6.27,1.49-1.89,2.62-4.03,3.35-6.33.73.82,1.57,1.54,2.5,2.13-1.14,2.91-2.81,5.57-4.94,7.86-3.04,3.21-6.64,5.19-11.97,6.64-.51.14-1.59.37-3.26.74-.38.07-.76.17-1.13.29l-.83-3.26ZM205.53,64.54c2.55.99,5.01,2.21,7.35,3.63l-1.56,2.61c-2.26-1.6-4.72-2.89-7.31-3.86l1.53-2.38Z"/><path id="_パス_81676" class="cls-4" d="M225.94,74.24c1.45.16,2.91.23,4.37.2h15.35c1.41.05,2.82-.01,4.23-.17v3.29c-1.41-.12-2.83-.16-4.25-.14h-15.29c-1.47-.03-2.94.01-4.4.14v-3.32Z"/><path id="_パス_81677" class="cls-4" d="M264.07,64.23c-.24.33-.45.69-.6,1.08-.34.82-.73,1.61-1.16,2.38.23-.03.62-.06,1.22-.08l6.75-.08c.61.05,1.23-.03,1.82-.23l1.59,1.53c-.33.46-.56,1-.65,1.56-1.15,3.97-3.11,7.66-5.76,10.84-2.76,3.1-6.18,5.54-10.01,7.15-.47-.95-1.15-1.78-1.99-2.44,3.79-1.4,7.17-3.73,9.82-6.78,2.22-2.64,3.86-5.71,4.82-9.02l-8.96.14c-1.79,2.79-4.04,5.24-6.67,7.26-.58-.86-1.37-1.56-2.3-2.04,3.06-2.03,5.56-4.8,7.26-8.06.76-1.2,1.3-2.52,1.59-3.92l3.24.71Z"/><path id="_パス_81678" class="cls-4" d="M281.33,64.68c-.13,1.12-.18,2.25-.14,3.38l-.11,15.92c2.8-.46,5.48-1.47,7.88-2.98,2.56-1.63,4.64-3.93,6.01-6.64.61.93,1.36,1.76,2.24,2.44-1.57,2.55-3.66,4.74-6.13,6.44-3.07,1.98-6.52,3.29-10.13,3.83-.56.08-1.12.24-1.64.45l-1.56-1.9c.22-.8.29-1.64.23-2.47l.09-15.03v-.77c.02-.9-.02-1.8-.11-2.69l3.38.03Z"/><path id="_パス_81679" class="cls-4" d="M304.85,70.75c1.18,2.07,2.12,4.27,2.81,6.55l-2.7.88c-.56-2.32-1.43-4.56-2.61-6.64l2.5-.79ZM321.02,70.81c-.17.44-.3.9-.37,1.36-.63,3.42-2,6.65-4.03,9.47-2.2,2.84-5.08,5.1-8.37,6.55-.49-.89-1.14-1.68-1.93-2.33,1.7-.63,3.29-1.5,4.74-2.58,3.32-2.41,5.25-5.36,6.5-9.9.34-1.05.53-2.13.57-3.23l2.89.65ZM310.81,69.62c1.17,2,2.09,4.13,2.75,6.35l-2.64.85c-.59-2.25-1.46-4.42-2.58-6.47l2.47-.74Z"/><path id="_パス_81680" class="cls-4" d="M325.79,87.89c.14-1.2.2-2.42.17-3.63v-16.88c.05-1.14,0-2.27-.17-3.4h3.35c-.13,1.15-.19,2.3-.17,3.46v4.79c4.43,1.6,8.7,3.6,12.77,5.99l-1.65,2.81c-1.13-.79-2.3-1.51-3.52-2.16-2.15-1.16-5.25-2.69-6.78-3.35-.33-.11-.63-.28-.91-.48,0,.37.02.74.06,1.11,0,.26.03,1.13.03,1.42v6.7c-.01,1.21.05,2.42.17,3.63h-3.35Z"/><path id="_パス_81681" class="cls-4" d="M347.64,70.98c-.26,1.55-.66,3.08-1.19,4.57-.64-.54-1.37-.98-2.16-1.28.58-1.27.98-2.62,1.19-4,.25-1.32.38-2.66.4-4,0-.4-.03-.6-.06-1.05l2.41.31c-.14,1.76-.23,2.81-.29,3.09h1.48v-3.35c0-.79-.06-1.58-.2-2.35h2.84c-.12.78-.18,1.57-.17,2.35v3.35h.94c.61.03,1.22-.02,1.82-.14v2.58c-.71-.06-1.08-.08-1.82-.08h-.94v5.7c1.19-.45,1.59-.6,2.89-1.16l.03,2.35c-1.45.62-1.84.8-2.92,1.22v6.84c0,1.04.05,2.08.17,3.12h-2.83c.14-1.03.21-2.08.2-3.12v-5.9c-1.19.43-2.07.74-2.67.94-.51.16-1,.36-1.47.6l-.62-2.81c1.63-.21,3.23-.62,4.77-1.22v-6.56h-1.79ZM362.59,69.62c-.53,2.27-1.38,4.44-2.52,6.47-1.28,2.27-3,4.26-5.08,5.84-.45-.78-1.06-1.47-1.79-2.01,1.3-.78,2.45-1.78,3.4-2.95,1.77-2.13,3.04-4.65,3.69-7.35h-1.82c-.83,1.79-1.93,3.43-3.26,4.88-.54-.71-1.22-1.3-1.99-1.76,1.02-.91,1.87-1.98,2.53-3.18,1.17-2.04,1.97-4.27,2.36-6.58l2.75.54q-.2.51-.82,2.33c-.17.54-.34.94-.57,1.53h8.2c.8.02,1.59-.02,2.38-.11-.15,1.24-.2,2.49-.17,3.74-.23,8.85-.68,13.67-1.45,15.52-.6,1.47-1.65,2.04-3.74,2.04-1.01-.02-2.03-.1-3.04-.23-.05-.93-.27-1.84-.65-2.69,1.19.3,2.41.47,3.63.51,1.25,0,1.53-.4,1.9-2.58.6-4.63.89-9.29.85-13.96h-.68c-.53,3.56-1.63,7.02-3.24,10.24-1.79,3.46-4.38,6.44-7.57,8.68-.53-.78-1.21-1.44-2.01-1.93,3.28-2.01,5.93-4.88,7.66-8.31,1.41-2.72,2.38-5.65,2.87-8.68h-1.81Z"/><path id="_パス_81682" class="cls-4" d="M376.42,77.05c0-1.02.03-2.04.09-3.23-.71,1.36-1.6,2.62-2.64,3.74-.24-.98-.66-1.91-1.22-2.75,2.24-2.45,3.98-5.31,5.14-8.43.48-1.19.82-2.42,1.02-3.69l2.7.79c-.14.42-.23.62-.45,1.28-.57,1.74-1.26,3.44-2.04,5.1v15.83c-.02,1.11.03,2.22.14,3.32h-2.89c.12-1.11.18-2.23.17-3.35v-8.62ZM388.82,66.24c.02-.99-.05-1.97-.2-2.95h2.95c-.14.98-.19,1.96-.17,2.95v2.87h3.77c1.01.02,2.01-.04,3.01-.17v2.72c-1.22-.11-2.07-.17-2.98-.17h-3.8v5.64h4.79c1.03.01,2.07-.04,3.09-.17v2.75c-1.02-.12-2.04-.18-3.07-.17h-4.82v6.27c-.03,1.05.03,2.1.17,3.15h-2.95c.15-1.04.22-2.1.2-3.15v-6.27h-5.2c-1.03-.01-2.07.04-3.09.17v-2.75c1.02.13,2.04.19,3.06.17h5.22v-5.65h-4.25c-.66,1.5-1.47,2.92-2.41,4.26-.62-.68-1.36-1.25-2.19-1.67,1.4-1.8,2.49-3.83,3.23-5.99.46-1.18.77-2.41.94-3.66l2.64.68c-.2.6-.25.82-.51,1.64-.34,1.08-.51,1.65-.77,2.36h3.32v-2.87Z"/><path id="_パス_81683" class="cls-7" d="M402.27,70.93c1.02,0,3.74-.28,6.16-.62.39-1.92.64-3.86.77-5.82,0-.16,0-.32-.03-.48l3.12.31c-.08.37-.14.57-.2.91q-.11.57-.2,1.02-.08.62-.48,2.75c-.11.62-.11.71-.2,1.08.77-.06,1.22-.09,1.84-.09,1.46-.12,2.91.38,4,1.36.99,1.02,1.36,2.35,1.36,4.85,0,4.71-.8,8.54-2.07,10.13-.72.91-1.85,1.4-3.01,1.28-1.48-.07-2.94-.38-4.31-.94.03-.48.06-.85.06-1.08-.02-.66-.08-1.31-.2-1.96,1.3.65,2.7,1.05,4.14,1.19.91,0,1.42-.62,1.87-2.21.52-2.18.77-4.42.74-6.67,0-2.64-.77-3.52-3.12-3.52-.61,0-1.22.04-1.82.14-.91,4.03-2.26,7.95-4.03,11.69-.2.46-.85,1.7-1.87,3.75l-2.75-1.53c1.16-1.64,2.15-3.4,2.95-5.25,1.22-2.72,2.2-5.54,2.92-8.42-1.81.21-3.6.53-5.36.96l-.29-2.84ZM421.27,68.34c2.75,3.05,4.77,6.69,5.9,10.64l-2.67,1.39c-.49-2.15-1.27-4.22-2.33-6.16-.87-1.71-1.97-3.29-3.29-4.68l2.38-1.19ZM422.3,64.23c1.09,1.12,2.02,2.38,2.78,3.74l-1.85,1.02c-.77-1.38-1.7-2.65-2.78-3.8l1.84-.97ZM425.27,62.84c1.07,1.06,1.99,2.26,2.73,3.57l-1.82,1.05c-.74-1.33-1.65-2.56-2.7-3.66l1.79-.96Z"/><path id="_パス_81684" class="cls-7" d="M431.89,80.54c2.31,1.76,4.36,3.83,6.1,6.16l-2.33,2.15c-1.65-2.4-3.65-4.54-5.93-6.35l2.16-1.96Z"/><path id="_パス_81685" class="cls-7" d="M203.15,119.57c-.02,1.08.03,2.16.17,3.23h-2.81c.14-1.12.19-2.25.17-3.38v-18.61c.02-1.07-.02-2.14-.11-3.21.97.09,1.95.13,2.92.11h4.88c.97.02,1.93-.02,2.89-.11-.06.71-.09,1.47-.09,2.67v3.09c0,1.19.03,1.76.09,2.5-.74-.06-1.65-.08-2.72-.08h-5.39v13.78ZM203.15,100.93h5.67v-1.44h-5.67v1.44ZM203.15,104.05h5.67v-1.45h-5.67v1.45ZM215.15,118.32c0,.48.17.54,1.31.54,1.53,0,1.62-.11,1.67-2.81.62.38,1.3.65,2.01.79-.08,1.79-.26,2.5-.74,3.21.49.05.98.08,1.48.09.71,0,.91-.17.91-.77v-13.59h-5.73c-1.11,0-2.07.03-2.73.08.06-.71.09-1.5.09-2.5v-3.09c0-.99-.03-1.87-.09-2.67.97.09,1.95.13,2.92.11h5.19c.98.01,1.97-.02,2.95-.11-.12,1.06-.16,2.13-.14,3.21v18.89c0,2.1-.71,2.69-3.29,2.69-.34,0-1.36-.03-1.87-.06-.05-.61-.19-1.21-.4-1.79-.87.26-1.79.37-2.7.31-2.38,0-2.98-.37-2.98-1.76v-3.83h-2.01c-.23,3.38-1.67,5.14-5.56,6.7-.35-.76-.85-1.43-1.48-1.99,1.26-.29,2.44-.85,3.46-1.64.89-.77,1.4-1.89,1.42-3.07h-.43c-.88,0-1.56.03-2.24.08.06-.64.09-1.28.09-1.93v-2.39c0-.65-.03-1.48-.09-1.96.65.06,1.22.08,2.24.08h.6c-.5-.85-1.1-1.64-1.79-2.36l1.9-.88c.71.76,1.33,1.58,1.87,2.47l-1.59.77h4.14c.74-.96,1.36-2.01,1.85-3.12l2.24.65c-.52.86-1.1,1.69-1.73,2.47h.4c1.11,0,1.62-.03,2.3-.08-.06.65-.09,1.3-.09,1.96v2.36c0,.65.02,1.31.09,1.96-.65-.06-1.25-.08-2.16-.08h-1.31v3.03ZM216.2,111.03h-7.6v2.41h7.6v-2.41ZM215.77,100.93h6.01v-1.44h-6.01v1.44ZM215.77,104.05h6.01v-1.45h-6.01v1.45Z"/><path id="_パス_81686" class="cls-7" d="M234.79,118.15c-1.25,0-2.44.03-3.07.08.06-.51.11-1.62.11-2.84v-4.94c0-.96-.03-1.5-.09-2.33.6.06,1.5.08,2.89.08h12.54c.94.02,1.88-.02,2.81-.11-.06.65-.06,1.22-.06,2.33v4.82c-.03.99.01,1.99.11,2.98-.71-.06-1.76-.08-3.09-.08h-2.44v1.48c0,.74.29.85,2.61.85,2.75,0,3.54-.11,3.89-.54.36-.84.52-1.75.48-2.67.74.4,1.53.69,2.35.85-.28,2.24-.6,3.12-1.25,3.69-.68.6-1.96.77-5.3.77-4.4,0-5.25-.34-5.25-2.13v-2.3h-3.18c-1.31,3.04-4.48,4.62-9.53,4.79-.29-.83-.7-1.62-1.22-2.33.54.03.82.03,1.02.03,3.43,0,5.84-.85,7.06-2.5h-1.42ZM237.09,105.67h1.93c.81.02,1.61-.01,2.41-.11v1.79c-.85-.06-1.42-.08-2.41-.08h-7.46c-.94,0-1.56.03-2.3.08.06-.71.09-1.47.09-2.72v-4.28c.02-.96-.02-1.91-.12-2.86.94.1,1.89.14,2.84.11h6.64c.9.03,1.8-.02,2.7-.14v1.99c-.77-.09-1.55-.13-2.33-.11h-1.99v1.16h1.53c1.08,0,1.67-.03,2.07-.06-.05.44-.07.89-.06,1.33v.37c1.7-1.35,2.92-3.21,3.49-5.3l2.44.54c-.4.91-.51,1.19-.82,1.82h5.1c.83.02,1.65-.03,2.47-.14v2.35c-.82-.12-1.64-.16-2.47-.14h-6.32c-.69,1.02-1.49,1.96-2.38,2.81-.42-.62-.92-1.17-1.5-1.64v.79c-.01.45,0,.91.06,1.36-.51-.03-1.22-.06-2.18-.06h-1.42v1.16ZM234.91,99.32h-3.32v1.16h3.32v-1.16ZM238.51,101.92h-6.92v1.14h6.92v-1.14ZM231.58,105.67h3.35v-1.16h-3.35v1.16ZM234.28,111.09h13.22v-1.16h-13.22v1.16ZM234.28,113.75h13.22v-1.13h-13.22v1.13ZM234.28,116.45h13.22v-1.16h-13.22v1.16ZM243.22,103.65c.76.09,1.53.13,2.3.11h4.37c.82.02,1.65-.02,2.47-.11v2.27c-.81-.12-1.62-.16-2.44-.14h-4.28c-.81-.02-1.61.02-2.41.11v-2.24Z"/><path id="_パス_81687" class="cls-7" d="M260.02,100.45c-1.1,0-2.2.05-3.29.17v-2.72c1.08.12,2.17.18,3.26.17h18.75c1.09,0,2.18-.05,3.26-.17v2.72c-1.04-.11-2.08-.17-3.12-.17h-.17v19.35c0,2.3-.74,2.78-4.28,2.78-.82,0-2.04-.03-3.32-.11-.09-.91-.31-1.79-.65-2.64,1.44.19,2.89.29,4.34.31,1.05,0,1.28-.14,1.28-.82v-18.86h-16.06ZM271.65,113.16c-.01.74.03,1.48.11,2.21-.43-.06-.57-.06-1.02-.08h-.71c-.37-.03-.62-.03-.77-.03h-6.72v2.44h-2.72c.11-.8.17-1.61.17-2.41v-8.96c.02-.85-.03-1.71-.14-2.55.88.09,1.76.13,2.64.11h6.61c.9.01,1.8-.03,2.7-.11-.12.8-.17,1.6-.14,2.41v6.98ZM262.54,112.96h6.55v-6.78h-6.55v6.78Z"/><path id="_パス_81688" class="cls-7" d="M286.72,102.33c1.12-1.78,1.98-3.71,2.55-5.73l2.75.57c-.22.35-.41.72-.57,1.11-.28.68-1.45,2.81-2.13,3.92,2.33-.14,3.06-.23,4.94-.46-.46-.85-.96-1.67-1.5-2.47l1.9-.94c1.34,1.85,2.54,3.81,3.57,5.84l-2.13,1.25c-.34-.8-.48-1.11-.74-1.62-1.9.31-6.61.82-8.76.94-.59.03-1.18.1-1.76.2l-.31-2.67c.34.03,1.11.08,1.33.08.12,0,.25,0,.37-.03h.48ZM286.27,108.54c0-.87-.03-1.74-.11-2.61.72.06,1.44.09,2.16.08h5.7c.87.02,1.74-.02,2.61-.11-.06.57-.09,1.33-.09,1.84v12.11c0,2.04-.71,2.5-3.74,2.5-.23,0-.57,0-1.02-.03-.07-.82-.24-1.63-.51-2.41.66.12,1.32.17,1.99.17.68,0,.85-.11.85-.57v-2.87h-5.39v3.09c-.02,1.01.03,2.03.14,3.04h-2.72c.12-.99.16-1.98.14-2.98v-11.26ZM288.71,110.3h5.39v-2.13h-5.39v2.13ZM288.71,114.52h5.39v-2.1h-5.39v2.1ZM301.22,100.99c2.49-.68,4.83-1.82,6.89-3.38l1.76,2.15q-.57.25-1.82.91c-2.19,1.11-4.48,2-6.84,2.67v2.1c0,.74.28.82,2.38.82,2.47,0,3.21-.06,3.6-.34.37-.28.48-.91.57-3.21.75.4,1.55.67,2.38.82-.23,2.5-.48,3.54-1.08,4.17-.62.65-1.7.82-5.45.82-4.03,0-4.85-.37-4.85-2.13v-6.92c0-.82-.04-1.63-.14-2.44h2.73c-.12.78-.17,1.57-.14,2.36v1.59ZM301.24,113.59c2.53-.61,4.91-1.72,7.01-3.26l1.82,2.1c-.99.54-3.63,1.79-4.51,2.15-1.41.56-2.85,1.04-4.31,1.42v2.84c0,.51.17.68.79.8.77.13,1.55.18,2.33.14,2.01,0,2.81-.14,3.12-.6.38-1.07.56-2.21.51-3.35.76.37,1.56.65,2.38.85-.2,2.64-.51,3.77-1.22,4.51-.71.77-1.7.94-5.11.94-2.73,0-3.63-.11-4.4-.51-.65-.34-.88-.82-.88-1.76v-7.33c.03-.84-.02-1.69-.14-2.53h2.75c-.13.8-.17,1.6-.14,2.41v1.17Z"/><path id="_パス_81689" class="cls-7" d="M320.06,98.44c-.78,2.24-1.31,4.56-1.56,6.92-.33,2.57-.51,5.16-.54,7.75v2.55h.06c.33-1.51.84-2.98,1.53-4.37l1.96.88c-1.45,3.04-2.44,6.41-2.44,8.26,0,.21,0,.42.03.62l-2.92.2c-.02-.42-.07-.84-.14-1.25-.5-2.76-.75-5.56-.74-8.37,0-3.72.41-7.43,1.22-11.06.19-.83.32-1.68.4-2.53l3.14.4ZM327.52,110.15c-1.42,1.64-2.04,2.89-2.04,4.14,0,1.76,1.67,2.69,4.88,2.69,2.27.05,4.52-.3,6.66-1.05l.26,3.04c-.37.06-.45.06-1.08.17-1.93.35-3.88.53-5.84.54-3.4,0-5.62-.77-6.81-2.33-.59-.81-.9-1.78-.88-2.78,0-1.7.82-3.49,2.55-5.56l2.3,1.13ZM323.26,101.16c1.58.35,3.2.5,4.82.45,2.67.09,5.34-.17,7.94-.79l.14,2.89c-.2,0-.37.03-1.99.23-1.99.25-4,.37-6.01.37-1.38.02-2.77-.06-4.14-.23-.4-.03-.48-.06-.79-.08l.03-2.84Z"/><path id="_パス_81690" class="cls-7" d="M349.26,97.56c-.21.6-.36,1.22-.45,1.84-.2.91-.34,1.5-.65,2.75,1.61-.11,3.19-.4,4.74-.85l.11,2.75c-.32.02-.65.07-.96.14-1.05.2-2.72.4-4.57.54-.82,2.83-1.87,5.59-3.12,8.26-.65,1.39-.91,1.87-2.01,3.83-.23.4-.43.74-.54.99l-2.72-1.56c1.09-1.4,2.02-2.92,2.75-4.54,1.11-2.22,2.03-4.52,2.75-6.89-.6.03-.85.03-1.68.03s-.79,0-1.93-.03h-1.02v-2.72c1.19.18,2.4.26,3.6.23.82,0,1.33,0,1.7-.03.48-1.66.79-3.36.94-5.08l3.07.34ZM362.37,120.14c-1.29-1.48-2.84-2.71-4.57-3.63.02.2.03.4.03.6-.02,1.08-.37,2.12-1.02,2.98-1.24,1.19-2.91,1.79-4.62,1.67-3.63,0-5.93-1.7-5.93-4.4s2.44-4.71,5.9-4.71c.96,0,1.92.11,2.86.31-.11-1.45-.17-2.53-.17-3.63-.01-.9.06-1.81.23-2.69l2.75.2c-.26.88-.39,1.8-.37,2.72.01,1.38.11,2.75.28,4.11,1.68.68,3.26,1.6,4.68,2.72.62.48.62.51.88.71.13.14.27.26.42.37l-1.36,2.67ZM352.32,115.06c-2.04,0-3.35.85-3.35,2.16s1.13,2.01,3.09,2.01c2.1,0,3.12-.88,3.12-2.61,0-.31-.06-1.05-.06-1.08-.9-.32-1.85-.48-2.81-.48M362.45,107.2c-2.45-1.66-5.11-2.99-7.91-3.94l1.42-2.24c2.73.97,5.34,2.22,7.8,3.75l-1.3,2.44Z"/><path id="_パス_81691" class="cls-7" d="M371.59,97.53c-.37.96-.45,1.47-1.11,5.96-.23,1.59-.31,2.36-.37,3.18h.09q.06-.2.2-.71c.32-1.35.89-2.62,1.7-3.74,1.56-2.13,3.38-3.18,5.5-3.18,1.92-.03,3.73.92,4.79,2.53,1.33,1.87,1.9,4.06,1.9,7.32,0,5.3-2.44,9.31-7.01,11.43-1.72.74-3.52,1.29-5.36,1.62-.32-1.01-.82-1.95-1.48-2.78,2.12-.15,4.18-.72,6.07-1.67,3.32-1.76,4.82-4.57,4.82-8.99s-1.45-6.67-4-6.67c-1.3.03-2.51.63-3.32,1.65-2.24,2.55-3.5,5.82-3.55,9.22q0,.08.03.65l-2.86.06c.02-.1.03-.21.03-.31v-.57c-.03-.74-.09-2.89-.09-3.38,0-2.43.15-4.85.43-7.26l.45-3.6c.05-.32.08-.64.09-.96l3.04.22Z"/><path id="_パス_81692" class="cls-7" d="M408.56,120.59c-1.67-1.7-3.63-3.09-5.79-4.08-.31-.17-.96-.46-1.33-.62v.48c0,3.4-1.99,5.02-6.13,5.02-3.83,0-6.15-1.56-6.15-4.17,0-2.89,2.75-4.65,7.29-4.65.74-.01,1.48.02,2.21.11v-.4c-.02-.1-.03-.21-.03-.31,0-.17-.03-.62-.03-1.28-.03-.28-.03-.71-.06-1.28-1.11,0-2.3.03-3.04.03-1.76,0-2.84-.03-4.99-.2-.34-.03-.6-.03-.79-.03h-.23l.03-2.55c2.18.35,4.38.5,6.58.45.62,0,1.53-.03,2.41-.06l-.06-3.26c-.85.03-1.3.03-1.84.03-1.62,0-4.85-.14-6.92-.29-.2-.02-.4-.03-.6-.03-.14,0-.28,0-.42.03l.03-2.64c2.47.42,4.98.6,7.49.54.45,0,1.39,0,2.24-.03.04-1.26,0-2.52-.11-3.77h3.06c-.18,1.22-.25,2.46-.2,3.69,2.78-.06,5.54-.43,8.23-1.12l.11,2.67c-.7.04-1.41.12-2.1.25-2.35.31-3.63.45-6.27.6q.03.99.06,3.24c2.57-.09,5.13-.45,7.63-1.08l.11,2.67c-.94.06-1.88.17-2.81.34-1.16.17-3.2.34-4.91.43.08,2.18.11,3.46.14,3.8,2.81.9,5.45,2.27,7.8,4.06.32.24.65.46.99.65l-1.61,2.77ZM396.11,114.97c-1.26-.08-2.52.26-3.57.96-.32.3-.51.72-.51,1.16,0,1.19,1.22,1.84,3.4,1.84,1.48,0,2.44-.34,2.89-1.02.32-.55.46-1.18.4-1.82,0-.17-.03-.88-.03-.88-.85-.19-1.71-.27-2.58-.25"/><path id="_パス_81693" class="cls-7" d="M413.25,101.41c.42.04.85.06,1.28.06.8,0,1.93-.03,5.08-.17q1.84-.06,6.84-.2c.04-1.21-.02-2.43-.17-3.63h3.01c-.14,1.19-.18,2.38-.14,3.57,5.16-.03,7.32-.08,8.31-.2v2.75c-1.59-.13-3.18-.18-4.77-.14-.77,0-1.25,0-3.52.06v5.22c.55,1.17.82,2.45.79,3.75,0,3.03-1.52,5.85-4.03,7.55-1.51.99-3.15,1.77-4.88,2.3-.41-.98-.99-1.87-1.73-2.64,1.7-.29,3.33-.92,4.79-1.84,1.77-.99,2.95-2.78,3.18-4.79-.81,1.56-2.47,2.5-4.23,2.38-2.62.14-4.85-1.87-4.99-4.49,0-.09,0-.19,0-.28,0-2.89,2.27-4.96,5.45-4.96,1.09-.07,2.16.28,3.01.96,0-.12,0-.25-.03-.37v-1.22l-.03-1.53c-4.51.06-11.35.43-13.13.71l-.08-2.84ZM420.85,110.43c-.05,1.34,1,2.46,2.34,2.5.08,0,.16,0,.24,0,1.55.09,2.89-1.1,2.98-2.65,0-.07,0-.14,0-.21.04-.53-.17-1.04-.57-1.39-.57-.53-1.33-.8-2.1-.77-1.47-.13-2.76.95-2.89,2.42,0,.04,0,.07,0,.11"/><path id="_パス_81694" class="cls-7" d="M449.88,118.04c0,2.53-2.04,4.59-4.57,4.59-2.53,0-4.59-2.04-4.59-4.57,0-2.53,2.04-4.58,4.56-4.59,2.52-.02,4.58,2.02,4.6,4.54,0,0,0,.02,0,.03M442.79,118.04c0,1.39,1.11,2.52,2.5,2.52,1.39,0,2.52-1.11,2.52-2.5,0-1.39-1.11-2.52-2.5-2.52,0,0-.01,0-.02,0-1.37.02-2.48,1.13-2.5,2.5"/><path id="_パス_81695" class="cls-3" d="M58.27,144.43h-2.64v-5.46h-.15l-.99,5.46h-2.71l-.94-5.46h-.17v5.46h-2.61l.35-10.46h3.79l.94,5.66h.13l.91-5.66h3.74l.35,10.46Z"/><path id="_パス_81696" class="cls-3" d="M65.31,144.43h-5.66v-10.46h5.83l-.17,2.58h-2.78v1.57h2.41v2.22h-2.41v1.74h2.95l-.17,2.35Z"/><path id="_パス_81697" class="cls-3" d="M74.08,144.43h-2.76l-2.17-4.87h-.13v4.87h-2.56v-10.46h2.85l2.07,5.02h.13v-5.02h2.58v10.46Z"/><path id="_パス_81698" class="cls-3" d="M82.92,141.42c0,2.01-1.08,3.01-3.23,3.01h-4.12v-10.46h4.04c.84-.07,1.68.16,2.37.64.56.53.84,1.29.78,2.06.04.88-.41,1.7-1.16,2.15v.1c.94.44,1.49,1.45,1.33,2.47M79.57,138.21c.12-.26.18-.55.15-.83.02-.29-.03-.58-.16-.84-.13-.17-.33-.27-.55-.24h-.54v2.15h.56c.21.02.41-.07.54-.24M79.7,142.33c.15-.29.21-.62.18-.94.03-.35-.04-.7-.19-1.01-.16-.21-.41-.32-.67-.29h-.54v2.47h.54c.25.03.5-.05.68-.23"/><path id="_パス_81699" class="cls-3" d="M89.56,144.43h-5.66v-10.46h5.83l-.17,2.58h-2.78v1.57h2.41v2.22h-2.41v1.74h2.95l-.17,2.35Z"/><path id="_パス_81700" class="cls-3" d="M97.86,137.29c.02.54-.08,1.07-.29,1.57-.21.44-.51.82-.89,1.13l1.4,4.44h-3.12l-1.04-3.77h-.39v3.77h-2.83v-10.46h3.91c.9-.08,1.78.21,2.47.79.58.71.86,1.61.78,2.53M94.6,138.64c.15-.28.21-.6.18-.92.03-.32-.04-.64-.18-.93-.14-.18-.37-.28-.61-.26h-.46v2.36h.44c.24.02.47-.07.62-.25"/><path id="_パス_81701" class="cls-3" d="M99.42,134.72c.64-.63,1.51-.96,2.4-.91,1.05,0,2.09.1,3.12.3l-.34,2.69c-.75-.2-1.52-.33-2.29-.39-.53,0-.79.21-.79.64,0,.17.13.33.38.49.3.18.6.35.92.5.37.18.73.39,1.08.62.38.27.7.62.92,1.04.26.47.39,1.01.38,1.55.06.91-.25,1.8-.86,2.47-.66.62-1.54.93-2.43.88-1.04,0-2.08-.16-3.07-.49l.19-2.51c.81.27,1.66.45,2.51.52.47,0,.71-.21.71-.62-.02-.25-.16-.47-.38-.59-.29-.2-.6-.38-.92-.54-.37-.19-.74-.39-1.09-.62-.39-.26-.71-.61-.93-1.03-.26-.49-.39-1.04-.38-1.6-.04-.89.27-1.76.88-2.41"/><path id="_パス_81702" class="cls-3" d="M113.94,144.43h-2.86v-3.96h-1.97v3.96h-2.9v-10.46h2.9v4.11h1.97v-4.11h2.86v10.46Z"/><rect id="_長方形_9207" class="cls-3" x="115.52" y="133.97" width="2.86" height="10.46"/><path id="_パス_81703" class="cls-3" d="M123.64,141.01h-.78v3.42h-2.83v-10.45h3.42c.97-.08,1.92.22,2.68.82.65.74.97,1.72.88,2.71.09.97-.2,1.94-.82,2.69-.71.59-1.62.88-2.54.81M123.96,138.74c.12-.33.17-.68.15-1.03.03-.36-.03-.71-.17-1.04-.15-.22-.41-.34-.67-.3h-.4v2.66h.47c.25.03.49-.08.62-.29"/><path id="_パス_81704" class="cls-3" d="M68.13,119.6c.64-.63,1.51-.96,2.4-.91,1.05,0,2.09.1,3.12.3l-.34,2.69c-.75-.2-1.52-.33-2.29-.39-.53,0-.79.21-.79.64,0,.17.13.33.38.49.3.18.6.35.92.5.37.18.73.39,1.08.62.38.27.7.62.91,1.03.26.47.39,1.01.38,1.55.06.91-.25,1.8-.86,2.47-.66.62-1.54.93-2.43.88-1.04,0-2.08-.16-3.07-.49l.19-2.51c.81.27,1.66.45,2.51.52.47,0,.71-.21.71-.62-.02-.25-.16-.47-.38-.59-.29-.2-.6-.38-.92-.54-.37-.19-.74-.39-1.09-.62-.39-.26-.71-.61-.92-1.03-.26-.49-.39-1.04-.38-1.6-.04-.89.27-1.76.88-2.41"/><path id="_パス_81705" class="cls-3" d="M75.55,119.96c.79-.91,1.97-1.38,3.17-1.27,1.19-.12,2.37.35,3.16,1.25.73,1.22,1.07,2.63.95,4.05.11,1.45-.23,2.9-.97,4.15-.76.95-1.95,1.45-3.17,1.35-1.21.11-2.39-.39-3.15-1.33-.73-1.25-1.07-2.69-.96-4.13-.12-1.42.22-2.85.97-4.07M79.69,121.9c-.18-.38-.58-.6-.99-.55-.41-.05-.8.17-.97.55-.19.68-.26,1.38-.22,2.08v.4c-.05.72.03,1.45.24,2.15.19.36.59.56.99.51.39.06.78-.14.97-.49.19-.66.26-1.34.22-2.02v-.54c.04-.71-.04-1.42-.25-2.1"/><path id="_パス_81706" class="cls-3" d="M91.6,129.31h-2.76l-2.17-4.87h-.14v4.87h-2.56v-10.46h2.84l2.07,5.02h.14v-5.02h2.58v10.46Z"/><path id="_パス_81707" class="cls-3" d="M100.6,129.31h-2.81l-.32-1.65h-1.99l-.32,1.65h-2.68l1.92-10.46h4.28l1.92,10.46ZM97.14,125.69l-.59-3.74h-.12l-.59,3.74h1.3Z"/><path id="_パス_81708" class="cls-3" d="M107.13,129.31h-5.66v-10.46h5.83l-.17,2.58h-2.78v1.57h2.41v2.22h-2.41v1.74h2.95l-.17,2.36Z"/></g></g></g></g></svg>