<?xml version="1.0" encoding="UTF-8"?><svg id="_レイヤー_1" xmlns="http://www.w3.org/2000/svg" xmlns:xlink="http://www.w3.org/1999/xlink" viewBox="0 0 515 161"><defs><style>.cls-1{fill:none;}.cls-2{fill:#231815;}.cls-3{fill:#fff;}.cls-4{clip-path:url(#clippath);}.cls-5{fill:#53ffa8;}</style><clipPath id="clippath"><rect class="cls-1" x="22.65" y="43.97" width="75.35" height="92.39"/></clipPath></defs><g id="_グループ_20283"><rect id="_長方形_8874" class="cls-5" width="515" height="161"/><g id="_グループ_18758"><g id="_グループ_18757"><path id="_パス_73329" class="cls-3" d="M127.83,67.51c-1.72.25-3.32-.95-3.57-2.68-.04-.3-.04-.6,0-.89v-30.7c0-1.94,1.57-3.51,3.51-3.51,1.94,0,3.51,1.57,3.51,3.51h0v27.79h15.84c2.38,0,3.57,1.08,3.57,3.24,0,2.16-1.19,3.24-3.57,3.24h-19.29Z"/><path id="_パス_73330" class="cls-3" d="M158.7,67.51c-1.71.23-3.29-.98-3.52-2.69-.04-.29-.04-.59,0-.88v-30.7c0-1.94,1.57-3.51,3.51-3.51,1.94,0,3.51,1.57,3.51,3.51h0v30.71c.26,1.71-.92,3.3-2.63,3.56-.29.04-.59.05-.88,0"/><path id="_パス_73331" class="cls-3" d="M172.97,67.51c-1.71.23-3.29-.98-3.52-2.69-.04-.29-.04-.59,0-.88v-30.7c-.26-1.71.92-3.3,2.63-3.56.29-.04.59-.05.88,0h.76c1.73-.04,3.36.85,4.27,2.32l15.41,23.24v-22c0-1.96,1.59-3.54,3.54-3.54s3.54,1.59,3.54,3.54v30.7c0,2.38-1.12,3.57-3.35,3.57h-.6c-1.74.07-3.39-.82-4.27-2.32l-15.79-24.11v22.87c.26,1.71-.92,3.3-2.63,3.56-.29.04-.59.05-.88,0"/><path id="_パス_73332" class="cls-3" d="M211.24,67.51c-1.72.25-3.32-.95-3.57-2.68-.04-.3-.04-.6,0-.89v-30.7c-.25-1.72.95-3.32,2.67-3.57,0,0,0,0,0,0,.3-.04.6-.04.89,0h18.65c2.38,0,3.57,1.08,3.57,3.24,0,2.16-1.19,3.24-3.57,3.24h-15.19v8.81h13.57c2.38,0,3.57,1.08,3.57,3.24s-1.19,3.24-3.57,3.24h-13.57v9.58h15.79c2.38,0,3.57,1.08,3.57,3.24,0,2.16-1.19,3.24-3.57,3.24h-19.25Z"/><path id="_パス_73333" class="cls-2" d="M266.86,69.28c-2.77-.31-5.43-1.24-7.78-2.73-1.93-1.25-3.5-2.96-4.58-4.99-.99-1.9-1.51-4-1.5-6.14-.02-1.79.3-3.57.95-5.24.63-1.6,1.55-3.06,2.71-4.32-1.67.28-3.3.57-4.89.85-1.59.28-3.06.54-4.39.77l-3.35.58c-.74.14-1.51-.05-2.1-.52-.61-.45-1.02-1.12-1.14-1.87-.11-.76.07-1.53.52-2.16.43-.63,1.11-1.04,1.87-1.12,1.1-.15,2.51-.36,4.22-.63,1.71-.27,3.54-.57,5.51-.89,1.96-.32,3.92-.64,5.87-.96,1.95-.32,3.75-.63,5.39-.92,1.64-.29,2.97-.54,3.97-.75.72-.16,1.48,0,2.08.44.62.42,1.05,1.06,1.19,1.79.16.73.03,1.49-.37,2.12-.37.65-1.02,1.09-1.75,1.19-1.6.19-3.14.69-4.55,1.46-2.46,1.38-4.35,3.57-5.35,6.2-.45,1.17-.68,2.41-.69,3.66-.06,2.14.79,4.2,2.35,5.66,1.86,1.62,4.17,2.62,6.62,2.85.77.09,1.46.49,1.91,1.12.92,1.27.66,3.04-.58,4-.61.46-1.38.65-2.14.54M271.1,53.63c-.41.31-.92.43-1.42.35-.52-.07-.99-.36-1.27-.81-.21-.33-.53-.81-.98-1.44-.45-.63-.83-1.16-1.14-1.6-.21-.35-.28-.77-.19-1.17.08-.47.34-.9.73-1.17.34-.26.77-.38,1.19-.35.44.02.87.2,1.19.5.46.44.89.91,1.29,1.41.42.5.8,1.04,1.14,1.6.27.42.38.93.29,1.43-.11.51-.4.97-.83,1.27M275.33,50.24c-.38.36-.89.54-1.41.5-.54-.02-1.04-.27-1.37-.69-.26-.28-.63-.72-1.12-1.31-.49-.59-.91-1.09-1.27-1.5-.25-.33-.36-.75-.31-1.16.02-.48.25-.93.62-1.23.32-.29.73-.45,1.16-.46.44-.03.88.11,1.23.38.41.33.88.76,1.41,1.27.47.45.9.94,1.29,1.46.33.39.48.88.44,1.39-.04.52-.28,1-.68,1.35"/><path id="_パス_73334" class="cls-2" d="M285.1,71.04c-.81.31-1.69.37-2.53.18-.84-.21-1.5-.87-1.69-1.72-.25-.7-.21-1.47.14-2.14.38-.68,1.01-1.18,1.76-1.39,3.08-.94,5.81-2.77,7.84-5.27,1.77-2.52,2.78-5.49,2.92-8.56h-11.09c-1.43,0-2.59-1.17-2.6-2.6-.01-.68.27-1.34.77-1.81.49-.48,1.15-.75,1.83-.74h16.29v-5.71h-8.91c-.74,1.21-1.42,2.24-2.04,3.11-.46.66-1.15,1.14-1.93,1.35-.8.21-1.66.06-2.34-.42-.61-.38-1.03-.99-1.18-1.69-.18-.68-.03-1.41.39-1.97.78-1.05,1.49-2.15,2.14-3.3.74-1.3,1.44-2.6,2.09-3.9.56-1.09,1.05-2.2,1.48-3.34.27-.71.84-1.26,1.56-1.51.69-.26,1.46-.27,2.16-.02.72.23,1.31.77,1.6,1.46.26.66.27,1.4.02,2.07-.35,1.05-.76,2.07-1.25,3.06h6.22v-5.06c-.04-.81.28-1.6.86-2.16,1.19-1.08,3.01-1.08,4.2,0,.59.56.92,1.35.88,2.16v5.06h11.14c1.4,0,2.54,1.12,2.55,2.52v.03c0,.67-.26,1.32-.74,1.79-.47.5-1.13.78-1.81.77h-11.14v5.71h15.27c1.4,0,2.54,1.12,2.55,2.52v.03c.01.69-.26,1.35-.74,1.83-.47.5-1.13.78-1.81.77h-11.56v10.58c-.12.87.22,1.73.88,2.3,1.12.49,2.35.69,3.58.58.81.03,1.62-.05,2.41-.23.54-.14,1.01-.47,1.32-.93.39-.61.68-1.29.86-2,.21-.72.73-1.32,1.42-1.62.75-.31,1.58-.33,2.34-.05.69.21,1.26.7,1.58,1.35.28.69.32,1.47.09,2.18-.32,2.05-1.43,3.89-3.09,5.13-2.16,1.19-4.62,1.73-7.08,1.56-1.98.06-3.95-.15-5.87-.6-1.27-.28-2.37-1.07-3.04-2.18-.66-1.39-.96-2.92-.88-4.46v-11.6h-3.86c-.21,4.19-1.53,8.25-3.83,11.77-2.52,3.41-6.08,5.92-10.14,7.13"/><path id="_パス_73335" class="cls-2" d="M347.3,71.6c-.72.02-1.42-.25-1.95-.74-.54-.52-.82-1.25-.79-2v-6.96c-1.11.37-2.41.79-3.9,1.25-1.49.46-2.93.91-4.34,1.35-1.41.43-2.56.79-3.46,1.07-.73.26-1.53.21-2.23-.12-.64-.35-1.11-.94-1.3-1.65-.22-.65-.15-1.37.19-1.97.39-.64,1.03-1.09,1.76-1.23.31-.06.66-.14,1.05-.23s.8-.2,1.23-.33v-25.07h-1.81c-.65.01-1.27-.25-1.72-.72-.45-.45-.7-1.06-.7-1.69-.01-.65.24-1.28.7-1.74.45-.47,1.07-.73,1.72-.72h19.5c.65-.01,1.27.25,1.72.72.46.46.71,1.09.7,1.74,0,.28-.05.57-.14.83.06,0,.11,0,.16-.02.05-.02.11-.02.16-.02h8.22c1.77-.08,3.54.19,5.2.81,1.14.47,2.01,1.43,2.34,2.62.36,1.61.35,3.27-.02,4.87-.86,5.13-2.6,10.08-5.15,14.62,2.18,2.8,4.75,5.28,7.61,7.38.61.43,1.02,1.09,1.11,1.83.13.76-.09,1.54-.6,2.11-.51.61-1.25.99-2.04,1.04-.79.09-1.58-.15-2.18-.68-1.33-1.11-2.58-2.26-3.76-3.43-1.16-1.15-2.24-2.38-3.25-3.67-2.1,2.72-4.52,5.18-7.2,7.34-.58.49-1.33.74-2.09.7-.76,0-1.47-.39-1.9-1.02l-.09-.09v1.07c.03.75-.25,1.47-.79,2-.53.49-1.23.76-1.95.74M339.05,39.52h5.52v-4.54h-5.52v4.54ZM339.05,48.66h5.52v-4.54h-5.52v4.54ZM339.05,58.59l2.97-.81c.96-.26,1.81-.49,2.55-.68v-3.85h-5.52v5.33ZM350.05,64.77c.06-.1.14-.18.23-.26.09-.07.18-.14.28-.21,1.51-1.14,2.92-2.41,4.22-3.78,1.24-1.31,2.4-2.7,3.48-4.15-2.54-4.37-4.31-9.14-5.24-14.11-.18-.68-.03-1.4.39-1.95.41-.52,1-.87,1.65-.97.66-.13,1.34,0,1.9.35.57.37.94.97,1.02,1.65.36,1.77.81,3.51,1.37,5.22.53,1.62,1.19,3.2,1.97,4.71,1.57-3.17,2.65-6.57,3.2-10.07.21-.75.11-1.55-.26-2.23-.33-.4-1.11-.6-2.34-.6h-8.08c-1.38-.02-2.49-1.13-2.51-2.51-.01-.32.05-.64.18-.93-.09.04-.18.05-.28.05h-1.21v29.8Z"/><path id="_パス_73336" class="cls-2" d="M392.28,69.69c-.55-.5-.87-1.21-.91-1.95-.06-.75.23-1.48.77-2,2.47-2.57,4.36-5.64,5.55-9.01,1.38-3.79,2.06-7.8,2.03-11.84.14-1.82-.26-3.65-1.16-5.24-.79-1.09-2.09-1.7-3.43-1.62-1.3.03-2.54.57-3.43,1.51-1.19,1.25-2,2.8-2.37,4.48-.56,2.45-.7,4.98-.42,7.47.07.69-.14,1.39-.58,1.93-.42.55-1.05.9-1.74.95-.69.08-1.38-.12-1.93-.56-.54-.43-.89-1.04-1-1.72-.23-1.76-.37-3.54-.42-5.31-.06-1.93-.07-3.87-.02-5.81.05-1.94.13-3.73.26-5.38.12-1.66.25-3.02.37-4.11.08-.72.45-1.37,1.02-1.81.56-.46,1.28-.66,2-.56.72.06,1.38.42,1.83.97.45.58.63,1.32.49,2.04-.06.56-.15,1.27-.26,2.14-.11.87-.19,1.69-.26,2.46.72-1.22,1.7-2.25,2.88-3.04,1.1-.78,2.41-1.21,3.76-1.23,2.85-.2,5.63,1,7.43,3.23,1.64,2.15,2.46,5.22,2.46,9.21,0,3.13-.33,6.25-1,9.31-.63,2.93-1.63,5.77-2.97,8.45-1.27,2.56-2.94,4.9-4.95,6.94-.51.55-1.22.86-1.97.86-.75.03-1.48-.25-2.02-.77"/><path id="_パス_73337" class="cls-2" d="M428.35,70.34c-2.19,0-3.97-1.76-3.98-3.95,0-2.19,1.76-3.97,3.95-3.98s3.97,1.76,3.98,3.95c0,1.06-.41,2.07-1.16,2.82-.73.75-1.74,1.17-2.79,1.16M428.35,59.02c-.6,0-1.19-.23-1.62-.65-.46-.42-.74-1-.79-1.62-.09-1.18-.18-2.52-.26-4.04s-.16-3.07-.26-4.66c-.09-1.59-.17-3.12-.23-4.57-.06-1.45-.11-2.74-.14-3.85-.03-1.11-.05-1.93-.05-2.46v-4.6c-.02-.86.32-1.68.95-2.28.64-.62,1.5-.96,2.39-.93.9-.03,1.78.3,2.43.93.62.59.97,1.42.95,2.28v4.59c0,.53-.02,1.35-.07,2.46s-.1,2.4-.16,3.85c-.06,1.45-.13,2.98-.21,4.57s-.16,3.15-.26,4.66c-.09,1.52-.18,2.86-.28,4.04-.02.62-.29,1.2-.74,1.62-.45.43-1.05.66-1.67.65"/><path id="_パス_73338" class="cls-2" d="M144.93,96.09c-.29,0-.58-.08-.83-.22l-50.01-28.58c-.81-.46-1.1-1.49-.64-2.3.46-.81,1.49-1.1,2.3-.64,0,0,.01,0,.02.01l50.01,28.58c.81.46,1.1,1.49.64,2.3-.3.53-.87.86-1.48.86"/><path id="_パス_73339" class="cls-2" d="M418.78,96.09c-.93,0-1.69-.75-1.7-1.68,0-.61.32-1.18.86-1.48l50.01-28.57c.82-.45,1.84-.16,2.3.66.44.8.17,1.81-.62,2.27l-50.01,28.58c-.25.15-.54.22-.83.22"/><path id="_パス_73340" d="M123.01,131.21c1.15-1.16,2-2.59,2.46-4.16h-2.26v-2.97h3.03v-1.6l-3.03.08v-2.95c5.39-.14,6.48-.21,8.96-.66v3.14c-1.27.1-1.48.12-2.79.18v1.82h2.91v2.97h-2.91v.31l3.01,2.29v4.06l-3.01-2.73v5.7h-3.14v-4.84c-.74,1.43-1.85,2.63-3.22,3.48v-4.1ZM132.91,133.75h4.22v-14.55h3.13v14.82c-.02,1.95-.84,2.69-2.89,2.67h-4.45v-2.95ZM135.92,131.74h-3.01v-12.54h3.01v12.54Z"/><path id="_パス_73341" d="M159.69,119.3v13.67c0,1.89-1,2.75-3.11,2.71h-13.75v-16.39h16.85ZM156.57,122.15h-10.66v10.53h10.66v-10.53ZM146.94,123.36h8.59v8.13h-8.59v-8.13ZM152.53,126.15h-2.7v2.71h2.7v-2.71Z"/><path id="_パス_73342" d="M164.39,133.15h4.3c3.01,0,4.08-.31,5.17-1.54.8-1.05,1.2-2.35,1.13-3.67,0-1.06-.09-2.11-.29-3.14-.1-.61-.6-1.07-1.21-1.11-.41.06-.77.29-1,.65-.88,1.17-1.69,2.39-2.42,3.65-1.97,3.12-2.2,3.28-4.51,3.34h-1.07v-11.86h3.44v6.43c3.38-5.2,3.98-5.8,5.98-5.8,1.54-.1,2.99.77,3.61,2.19.65,1.75.97,3.6.96,5.47,0,3.13-.78,5.23-2.5,6.76-1.02.85-2.23,1.43-3.53,1.7-1.16.25-2.35.36-3.53.31h-4.51v-3.36Z"/><path id="_パス_73343" d="M188.47,108.25c2.82,0,3.48.07,4.27.33,1.97.76,2.23,1.54,2.33,6.56v20.05h-6.1v-18.61c-.03-2.89-.2-3.05-3.18-3.18h-2.2v-5.15h4.89Z"/><path id="_パス_73344" d="M216.63,108.12c1.79-.02,3.53.63,4.86,1.84,1.51,1.48,1.97,2.72,2,5.45v12.83c.13,4.36-2.82,7.15-7.32,6.96h-7.78c-4.69.16-7.22-2.26-7.22-6.92v-12.9c-.2-4.83,2.07-7.22,6.79-7.25h8.67ZM210.36,113.31c-2.39.07-2.99.69-3.05,3.25v10.17c.07,3.19.16,3.28,3.02,3.31h4.43c2.23-.03,2.53-.39,2.56-2.95v-10.7c0-2.3-.72-2.95-3.38-3.08h-3.58Z"/><path id="_パス_73345" d="M236.04,113.1c2.33,0,3.58,1.46,3.5,4.07v3.09c-.05,2.71-1.16,3.99-3.5,4.04h-3.06c-2.3-.14-3.55-1.57-3.5-4.04v-3.09c-.14-2.55,1.14-4.01,3.5-4.07h3.06ZM246.69,113.54h4.04l-16.67,21.07h-4.07l16.7-21.07ZM233.84,116.16c-.68,0-.95.38-.95,1.28v2.52c0,.81.24,1.11.95,1.11h1.33c.62,0,.84-.27.84-1.11v-2.52c0-.81-.3-1.28-.84-1.28h-1.33ZM247.83,123.92c2.31-.03,3.58,1.46,3.5,4.04v3.09c-.08,2.74-1.16,4.01-3.5,4.07h-3.09c-2.3-.14-3.52-1.57-3.47-4.07v-3.09c-.11-2.55,1.14-4.01,3.47-4.04h3.09ZM245.61,126.98c-.68,0-.95.35-.95,1.3v2.5c0,.81.24,1.11.95,1.11h1.36c.62,0,.84-.3.84-1.11v-2.5c0-.87-.3-1.3-.84-1.3h-1.36Z"/><path id="_パス_73346" d="M258.01,132.83v-13.77h3.14v13.18c1.4-.29,2.79-.67,4.14-1.13v3.16c-2.8.91-5.68,1.56-8.59,1.95v-3.2l1.31-.2ZM262.97,121.62c2.03.41,2.62.55,5.41,1.33v3.3c-1.78-.57-4.45-1.31-5.41-1.5v-3.12ZM273.61,119.06c-.21,5.2-.47,7.27-1.15,10.12.55.49.61.55,1.11.98l.92.8v5.14c-1.02-1.29-2.17-2.47-3.44-3.52-1.21,1.78-3.59,3.44-5.33,3.71v-3.46c2.09-.86,3.3-2.66,4-5.96.21-.7.47-4.45.53-7.81h3.36Z"/><path id="_パス_73347" d="M282.98,133.09v-14.06h3.42v5h6.84v3.11h-6.84v5.96h7.69v3.03h-17.95v-3.03h6.84Z"/><path id="_パス_73348" d="M305.11,133.13c1.87-.06,2.73-.35,3.44-1.23.7-.84,1.13-2.46,1.13-4.22.06-1.3-.27-2.59-.94-3.71-.41-.61-.9-.88-1.95-1.04-.76,4.86-1.02,6.19-1.64,8.3-.53,1.78-1.04,2.77-1.76,3.42-.6.57-1.39.9-2.23.94-1.44-.1-2.76-.81-3.63-1.96-1.03-1.57-1.54-3.42-1.48-5.29-.04-1.79.41-3.56,1.31-5.12,1.48-2.46,4.02-3.67,7.66-3.67,5.33,0,8.04,2.75,8.04,8.16,0,3.08-1,5.68-2.69,7.07-1.27,1.04-2.81,1.48-5.08,1.48h-.17v-3.14ZM300.75,124.01c-.99,1.25-1.5,2.82-1.43,4.41,0,1.95.63,3.3,1.54,3.3.47,0,.84-.37,1.07-1.07.67-2.6,1.18-5.23,1.52-7.89-1.37.21-2.03.51-2.71,1.25"/><path id="_パス_73349" d="M317.99,119.53c-.02,1.35-.02,1.58-.06,2.64h.41v-3.22h2.93v3.22h1.43v1.5c.86-1.11,1.33-2.36,1.72-4.65h3.2c-.18.8-.41,1.59-.68,2.36h6.09v6.52c.02,3.01-.18,4.96-.64,6.23-.7,1.72-1.99,2.46-4.3,2.46h-1.19v-2.75h.66c1.74.04,2.19-.65,2.32-3.56-2.09,2.89-4.06,4.37-7.23,5.47v-3.18c3.07-1.09,5.59-3.48,7.29-6.91v-1.29h-.33c-1.95,3.75-3.91,5.78-6.85,7.17v-.95l-1.48.37v5.67h-2.93v-5.08c-1.33.23-1.93.33-3.14.47v-3.01c1.06-.08,2.11-.22,3.14-.43v-3.61h-.7c-.82,1.68-1.33,2.28-2.7,3.12v-3.3c.51-.98.55-1.33.57-5.25h2.48ZM321.27,128.17c.66-.16.8-.2,1.64-.43v.74c1.59-.99,2.86-2.41,3.67-4.1h-.86c-.88,1.22-2.01,2.24-3.3,3.01v-2.42h-1.15v3.2Z"/><path id="_パス_73350" d="M340.96,118.81c-.16,1.78-.67,3.5-1.5,5.08v12.65h-3.26v-8.28c-.49.53-1.04.99-1.66,1.37v-4.26c1.66-1.46,2.64-3.44,3.24-6.56h3.19ZM344.94,127.74v-2.77h-1.82c-1.11,1.54-1.44,1.84-2.85,2.38v-3.56c.9-.82,1.31-2.15,1.39-4.51h2.69c.01.91-.07,1.82-.25,2.71h.84v-3.08h3.3v3.08h3.89v2.97h-3.89v2.77h4.49v3.01h-4.49v5.82h-3.3v-5.82h-4.67v-3.01h4.67Z"/><path id="_パス_73351" d="M355.38,123.23v-2.75h5.23l.72-1.46h3.5l-.59,1.46h6.13v2.75h-7.83l-.8,1.43c.81-.54,1.75-.84,2.71-.88.91-.03,1.76.46,2.19,1.27.21.43.27.82.27,2.05l4.41-.47v3.12l-4.41.33v2.48h-3.32v-1.91c-2.19.57-2.87,1.04-2.87,1.95s.51,1.11,2.46,1.11,4.59-.1,7.11-.28v3.11c-1.39.04-1.91.06-2.85.06-5.27,0-6.68-.08-7.81-.47-1.04-.35-1.85-1.17-2.2-2.2-.17-.4-.25-.83-.25-1.27,0-1.27.88-2.54,2.42-3.44,1.04-.62,1.88-.94,4-1.48.04-.38-.01-.77-.16-1.13-.17-.28-.48-.44-.8-.43-1.15,0-2.4.78-3.63,2.32h-3.77c1.35-1.66,2.57-3.43,3.65-5.27h-3.51Z"/><path id="_パス_73352" d="M378.37,120.1v9.04q.02,2.34.18,2.54c.14.16.35.25.57.23.41,0,1.35-.43,3.32-1.54v3.98c-2.99,1.37-3.71,1.62-4.59,1.62-.87.03-1.71-.35-2.25-1.03-.53-.7-.68-1.39-.68-3.09v-11.76h3.46ZM387.31,135.26v-6.95c-.02-2.05-.18-2.81-.66-3.24-.32-.25-.73-.37-1.13-.35h-1.86v-3.52c3.73.04,4.47.21,5.62,1.19,1.37,1.31,1.6,2.15,1.58,5.94v6.93h-3.56Z"/><path id="_パス_73353" d="M398.86,121.33l.45-2.03h3.67l-.59,2.03h8.01v3.05h-8.89l-.8,3.05c.54-.45,1.15-.81,1.82-1.04.87-.32,1.79-.5,2.71-.51,3.11,0,5.33,2.11,5.33,5.08.07,2.04-1.15,3.9-3.05,4.65-1.39.63-2.64.8-5.8.8h-5.76v-3.14h5.76c1.27.06,2.55-.09,3.77-.45.77-.38,1.28-1.14,1.35-1.99-.04-1.13-.98-2.01-2.11-1.98-.02,0-.04,0-.06,0-1.12.03-2.22.33-3.21.88-.76.45-1.38,1.1-1.8,1.87h-3.56l1.95-7.23h-3.73v-3.05h4.51Z"/><path id="_パス_73354" d="M420.12,129.69v-1.11h-5.6v-9.51h14.76v6.7c.02,2.09-.63,2.79-2.56,2.81h-3.3v1.11h7.23v2.81h-7.23v4.16h-3.3v-4.16h-7.32v-2.81h7.32ZM425.76,121.82h-7.95v.92h7.95v-.92ZM425.76,124.94h-7.95v1.01h7.95v-1.01Z"/><path id="_パス_73355" d="M445.55,119.38l-5.8,6.97c-.33.37-.53.83-.57,1.33,0,.41.1.57.74,1.35l5.98,7.25h-4.65l-4.73-5.98-.82-.98c-.38-.44-.57-1.02-.53-1.6-.01-.56.17-1.11.51-1.56l5.68-6.78h4.18Z"/><path id="_パス_73356" d="M457.55,118.89l-.94,13.18h-3.01l-.84-13.18h4.79ZM456.98,136.7h-3.79v-3.69h3.79v3.69Z"/></g></g><g id="_グループ_18760"><g class="cls-4"><g id="_グループ_18759"><path id="_パス_73357" class="cls-3" d="M74.45,146.35l-2.6,56.9c-.1,4.08-.56,8.15-.52,12.2.04,4.62.04,9.25-.2,13.87.01.62-.11,1.24-.36,1.82-.28.47-.66.87-1.1,1.18-4.19,3.25-10.59,4.34-15.34,1.69-1.28-.72-.86-3.43-.92-4.7-.1-1.94-.18-3.88-.24-5.83-.11-3.74-.14-7.48-.11-11.22.03-3.67-.04-7.4.33-11.05.45-4.43.6-7.28.6-7.28,0,0-1.63-17.09-2.25-21.35-.15-1.06-.25-2.12-.3-3.19l-2.44-12.54,25.46-10.5Z"/><path id="_パス_73358" class="cls-2" d="M60.35,236.15c-2.21.03-4.4-.5-6.35-1.56-1.36-.76-1.31-2.82-1.27-4.32,0-.36.02-.68,0-.94-.1-1.91-.18-3.87-.24-5.84-.11-3.6-.14-7.28-.11-11.24,0-.65,0-1.29,0-1.94,0-3.01.02-6.13.32-9.17.41-4.05.57-6.8.6-7.2-.1-1.04-1.65-17.19-2.25-21.26-.15-1.02-.25-2.1-.3-3.21l-2.43-12.5c-.06-.32.11-.63.41-.75l25.46-10.5c.34-.14.74.02.88.36.04.09.06.19.05.29l-2.6,56.9c-.04,1.71-.15,3.44-.25,5.12-.14,2.31-.29,4.71-.27,7.04.04,4.42.05,9.16-.2,13.91,0,.72-.14,1.44-.44,2.1-.32.56-.76,1.03-1.29,1.4-2.8,2.13-6.21,3.29-9.73,3.3M49.76,157.27l2.34,12s.01.07.01.1c.05,1.08.14,2.13.29,3.12.62,4.22,2.24,21.21,2.26,21.38,0,.03,0,.07,0,.1,0,.03-.16,2.91-.6,7.31-.3,2.97-.31,6.06-.32,9.04,0,.65,0,1.3,0,1.95-.03,3.95,0,7.61.11,11.19.06,1.96.14,3.91.24,5.81.01.29,0,.65,0,1.04-.03,1.09-.07,2.74.58,3.11,4.2,2.35,10.34,1.67,14.59-1.63.37-.25.68-.58.92-.96.2-.49.3-1.01.29-1.54.24-4.71.24-9.43.2-13.83-.02-2.38.13-4.8.27-7.14.1-1.67.21-3.39.25-5.09l2.55-55.85-23.97,9.89Z"/><path id="_パス_73359" class="cls-3" d="M78.91,116.65c-.07-.77.12-1.53.52-2.18.09-.19,1.08-1.84.97-2.04-3.23-6.21,1.87-12.05,4.73-17.26.18-.42.48-.77.86-1.03.41-.25.94-.13,1.2.27.08-.62.64-1.07,1.27-.99.05,0,.09.01.14.02.64.19,1.09.76,1.12,1.42.02.33,0,.75.29.92.17.07.35.1.53.1.52.11.93.5,1.07,1.01.12.49.15,1.01.07,1.51.7.03.96.89.98,1.56.16,4.67-1.83,9.21-4.57,13.08-1.72,2.42-1.27,5.99-5.36,5.81-1.02,0-2.02-.31-2.86-.88-.47-.31-.81-.78-.95-1.32"/><path id="_パス_73360" class="cls-2" d="M83.01,119.54c-.1,0-.21,0-.32,0-1.16,0-2.29-.36-3.24-1.02-.6-.4-1.03-1.02-1.21-1.72h0c-.11-.91.1-1.84.58-2.62.02-.05.09-.16.17-.31.37-.66.6-1.1.7-1.34-2.64-5.36.45-10.41,3.18-14.87.6-.98,1.16-1.9,1.66-2.81.24-.53.64-.98,1.13-1.29.38-.2.82-.25,1.23-.15.07-.08.15-.16.23-.23.45-.36,1.04-.51,1.61-.38.93.26,1.59,1.07,1.64,2.03v.16c0,.06.01.15.02.21h.03c.07,0,.14.01.2.02.77.15,1.4.72,1.61,1.48.12.4.17.82.14,1.24.64.47.99,1.23.95,2.01.15,4.29-1.48,8.96-4.7,13.49-.45.7-.81,1.45-1.07,2.24-.69,1.81-1.48,3.86-4.55,3.86M79.57,116.51c.12.38.36.71.7.92.73.49,1.6.75,2.48.74,2.36.11,2.84-1.12,3.55-2.98.3-.9.72-1.75,1.24-2.54,3.05-4.29,4.59-8.67,4.45-12.66-.02-.5-.19-.9-.33-.91-.37-.02-.66-.33-.65-.71,0,0,0-.01,0-.02.06-.42.05-.84-.04-1.25-.07-.26-.27-.47-.53-.55-.04,0-.07,0-.11-.01-.23,0-.45-.07-.66-.17-.43-.3-.67-.81-.62-1.33v-.13c-.03-.37-.26-.68-.61-.81-.16-.03-.33.02-.46.12-.06.04-.1.1-.12.18,0,.37-.29.68-.66.69-.27,0-.52-.16-.63-.41-.09,0-.17.02-.26.05-.26.2-.47.46-.6.76-.51.94-1.09,1.87-1.69,2.86-2.71,4.42-5.5,8.99-3.02,13.76.21.41.08.79-.83,2.41-.06.12-.12.2-.13.24-.33.52-.5,1.13-.47,1.74"/><path id="_パス_73361" class="cls-2" d="M89.5,105.02c-.07,0-.14-.01-.21-.03-.36-.11-.55-.5-.44-.85l1.67-5.21c.07-.25.2-.48.4-.66.2-.17.47-.25.73-.22.24.02.46.14.6.33.23.3.17.72-.13.94,0,0,0,0,0,0-.1.08-.23.13-.36.14l-1.63,5.09c-.09.28-.35.47-.64.47"/><path id="_パス_73362" class="cls-2" d="M87.71,103.29c-.08,0-.16-.01-.23-.04-.35-.13-.53-.52-.4-.87,0,0,0,0,0,0,.7-1.89,1.32-3.84,1.83-5.78.09-.64.53-1.17,1.13-1.4.36-.09.73.14.81.5.08.35-.12.7-.46.8-.09.13-.15.29-.18.45-.52,1.98-1.15,3.97-1.87,5.91-.1.27-.35.44-.63.44"/><path id="_パス_73363" class="cls-2" d="M84.97,102.46c-.37,0-.68-.3-.67-.68,0-.1.02-.2.07-.29,1.12-2.35,1.96-4.82,2.48-7.38.07-.37.43-.6.8-.53.37.07.6.43.53.8-.54,2.66-1.41,5.24-2.58,7.69-.11.24-.35.39-.61.38"/><path id="_パス_73364" class="cls-2" d="M61.62,105.43c1.54,1.39,3,2.87,4.36,4.43,3.53,4.12,6.7,8.52,9.87,12.92,2.65,3.67,5.91,8.54,4.07,13.31-.67,1.74-2.01,3.13-3.36,4.41-.69.74-1.52,1.33-2.44,1.75-.83.29-1.72.38-2.6.26-2.48-.38-4.76-1.62-6.42-3.49-1.65-1.87-3.02-3.96-4.08-6.22-1.85-3.49-3.37-7.15-4.56-10.92-.66-2.18-1.15-4.39-1.65-6.6-.3-1.31-.59-2.63-.89-3.95-.37-1.62-.73-3.25-1.1-4.87-.32-.99-.36-2.06-.13-3.08,1.23-3.8,5.53-1.01,8.95,2.05"/><path id="_パス_73365" class="cls-2" d="M72.31,143.23c-.29,0-.58-.02-.87-.05-2.64-.4-5.06-1.71-6.84-3.7-1.69-1.92-3.1-4.06-4.19-6.38-1.87-3.53-3.41-7.22-4.61-11.03-.66-2.2-1.17-4.46-1.66-6.65l-1.99-8.82c-.35-1.11-.39-2.3-.12-3.43.25-1.05,1.03-1.89,2.06-2.21,1.82-.49,4.5.84,7.99,3.96,1.56,1.41,3.04,2.91,4.42,4.5,3.58,4.18,6.8,8.65,9.9,12.97,2.32,3.23,6.21,8.62,4.15,13.95-.74,1.91-2.21,3.41-3.53,4.66-.76.8-1.66,1.44-2.66,1.89-.65.24-1.34.36-2.04.35M54.88,102.22c-.15,0-.3.02-.45.05-.58.21-1.01.71-1.13,1.32-.18.9-.13,1.84.15,2.72l1.99,8.82c.49,2.16.99,4.4,1.64,6.55,1.17,3.73,2.68,7.35,4.52,10.8,1.03,2.2,2.37,4.24,3.97,6.06,1.56,1.76,3.69,2.93,6.01,3.29.77.11,1.55.04,2.28-.22.84-.39,1.59-.94,2.22-1.61,1.21-1.15,2.56-2.51,3.2-4.16,1.66-4.29-1.19-8.79-3.98-12.67-3.09-4.29-6.29-8.74-9.83-12.88-1.34-1.54-2.78-3-4.29-4.37-3.45-3.08-5.33-3.71-6.29-3.71"/><path id="_パス_73366" class="cls-2" d="M73.71,126.4c-.24,0-.46-.13-.58-.33-.05-.09-5.36-9.1-7.16-11.54-1.74-2.36-8.33-6.54-8.39-6.58-.32-.2-.41-.62-.21-.93.2-.32.62-.41.93-.21.28.18,6.87,4.35,8.76,6.92,1.84,2.5,7.01,11.28,7.24,11.65.19.32.08.74-.25.93-.1.06-.22.09-.34.09"/><path id="_パス_73367" class="cls-2" d="M71.08,130.59l7.48-19.22s3.66,2.31,5.88,2.88c1.39.36,4.22-.31,4.22-.31,0,0-6.53,27.23-11.28,28.92s-12.29-2.39-12.29-2.39l5.98-9.88Z"/><path id="_パス_73368" class="cls-2" d="M74.74,143.95c-4.58,0-9.7-2.74-9.96-2.88-.16-.09-.28-.24-.33-.42-.05-.18-.02-.37.07-.53l5.95-9.83,7.46-19.17c.14-.35.53-.52.88-.38.04.02.08.04.12.06.04.02,3.6,2.26,5.69,2.8,1.01.26,3.15-.14,3.9-.32.36-.09.73.14.81.5.02.1.02.21,0,.31-.68,2.82-6.76,27.64-11.71,29.4-.92.31-1.9.47-2.87.45M66.06,140.19c1.87.9,7.46,3.33,11.1,2.03,3.1-1.11,8.02-16.98,10.6-27.42-1.15.24-2.33.28-3.48.1-1.72-.44-4.18-1.83-5.38-2.54l-7.19,18.47s-.03.07-.05.1l-5.6,9.26ZM71.08,130.59h0Z"/><path id="_パス_73369" class="cls-3" d="M47.2,179.28l-3.19,42.68c-.1,4.08-.56,8.15-.52,12.2.04,4.62.04,9.25-.2,13.87.01.62-.11,1.24-.36,1.82-.28.47-.66.87-1.1,1.18-4.19,3.25-10.6,4.34-15.34,1.69-1.28-.72-.86-3.43-.92-4.7-.1-1.94-.18-3.88-.24-5.83-.11-3.74-.15-7.48-.11-11.22.03-3.67-.04-7.4.33-11.05.45-4.43.6-7.28.6-7.28,0,0-1.63-17.09-2.25-21.35-.15-1.06-.25-2.12-.3-3.19l-2.44-31.8h31.3l-5.25,22.98Z"/><path id="_パス_73370" class="cls-2" d="M32.51,254.85c-2.22.03-4.4-.5-6.35-1.56-1.36-.76-1.31-2.82-1.27-4.31,0-.36.02-.68,0-.94-.1-1.91-.18-3.87-.24-5.84-.11-3.6-.14-7.28-.11-11.24,0-.65,0-1.3,0-1.95.01-3.01.02-6.12.33-9.16.41-4.05.57-6.8.6-7.2-.1-1.04-1.65-17.19-2.25-21.26-.16-1.08-.26-2.17-.3-3.26l-2.45-31.78c-.01-.19.05-.37.18-.51.13-.14.31-.22.5-.22h31.3c.37,0,.68.3.68.67s-.3.68-.67.68h-30.57l2.39,31.08c.04,1.05.14,2.1.29,3.14.62,4.22,2.24,21.21,2.26,21.38,0,.03,0,.07,0,.1,0,.03-.16,2.91-.6,7.31-.3,2.97-.31,6.05-.32,9.03,0,.65,0,1.31,0,1.96-.03,3.95,0,7.61.11,11.19.06,1.96.14,3.91.24,5.81.01.29,0,.65,0,1.04-.03,1.09-.07,2.74.58,3.1,4.2,2.36,10.34,1.67,14.59-1.63.37-.26.68-.58.92-.96.2-.49.3-1.01.29-1.54.24-4.71.24-9.43.2-13.83-.02-2.38.13-4.8.27-7.14.1-1.67.21-3.39.25-5.09l3.19-42.71c.02-.37.34-.65.71-.62,0,0,.01,0,.02,0,.37.03.65.35.62.72,0,0,0,0,0,0l-3.19,42.68c-.04,1.69-.15,3.42-.25,5.1-.14,2.32-.29,4.71-.27,7.04.04,4.42.05,9.16-.2,13.91,0,.72-.14,1.44-.44,2.1-.32.55-.76,1.03-1.29,1.4-2.8,2.13-6.21,3.29-9.73,3.3"/><path id="_パス_73371" class="cls-2" d="M35.97,102.99c-.38.15-.75.31-1.11.46-4.52,1.94-9.34,3.98-12.8,7.6-3.4,3.55-3.35,9.43-3.34,14.01.01,3.89.16,7.77.34,11.65.16,3.46,1.16,6.8,1.34,10.29.26,4.98-.13,9.98.17,14.96.15,2.47.81,4.84,1.02,7.28.17,1.98.55,2.69,2.84,2.94,12.68,1.37,26.04-1.23,36.37-8.7,2.13-1.54,4.24-3.46,4.79-6.03.18-1.06.22-2.14.12-3.21-.56-11.02-.42-21.99-1.64-32.95-.52-4.66-.97-10.18-3.19-14.31-1.15-2.24-2.97-4.07-5.21-5.24-6.05-3-13.69-1.18-19.72,1.25"/><path id="_パス_73372" class="cls-2" d="M30.84,173.22c-2.16,0-4.33-.12-6.48-.35-2.7-.29-3.25-1.33-3.44-3.56-.1-1.1-.29-2.23-.48-3.32-.25-1.31-.43-2.64-.54-3.97-.16-2.6-.13-5.23-.1-7.78.02-2.36.05-4.8-.07-7.19-.12-1.69-.34-3.38-.66-5.05-.33-1.73-.56-3.49-.68-5.25-.15-3.18-.33-7.39-.34-11.68v-.09c-.02-4.75-.04-10.67,3.52-14.39,3.52-3.68,8.28-5.72,12.88-7.7l.14-.06c.37-.16.74-.31,1.12-.47,8.32-3.36,15.14-3.77,20.27-1.23,2.36,1.23,4.28,3.16,5.5,5.53,2.11,3.93,2.66,8.99,3.14,13.46l.12,1.1c.81,7.29,1.03,14.71,1.24,21.88.11,3.64.22,7.41.41,11.12.1,1.13.06,2.27-.14,3.39-.63,2.92-3.03,4.97-5.05,6.44-8.23,5.95-19.04,9.18-30.36,9.18M48.43,100.84c-3.55,0-7.63.92-12.21,2.77-.37.15-.74.3-1.09.46l-.14.06c-4.48,1.92-9.11,3.91-12.44,7.39-3.18,3.33-3.16,8.94-3.15,13.45v.09c.01,4.27.19,8.45.34,11.62.12,1.71.34,3.4.66,5.08.33,1.72.56,3.46.68,5.21.12,2.43.1,4.89.07,7.27-.03,2.52-.05,5.13.1,7.68.1,1.28.28,2.56.52,3.82.19,1.12.4,2.27.5,3.44.15,1.76.35,2.12,2.24,2.33,13.29,1.44,26.37-1.69,35.9-8.58,1.83-1.32,3.99-3.15,4.53-5.62.17-1,.2-2.02.1-3.03-.19-3.72-.3-7.5-.41-11.14-.21-7.14-.43-14.53-1.23-21.77l-.12-1.1c-.47-4.34-1.01-9.27-2.99-12.96-1.09-2.12-2.8-3.85-4.91-4.95-2.17-1.04-4.55-1.55-6.96-1.51M35.97,102.99h0Z"/><path id="_パス_73373" class="cls-3" d="M47.7,98.69c-.12,1-.04,2,.21,2.97.53,1.64,3.04,1.56,2.06,3.75-.49,1-1.28,1.82-2.27,2.34-.98.51-2.04.87-3.13,1.06-4.25.88-7.78-1.88-10.66-4.8.46-.8.74-1.7.81-2.62-.07-4.39-.36-8.78-.87-13.15-.06-.26-.02-.54.13-.77.23-.26.63-.22.97-.15,3.51.75,6.86,2.1,9.9,4,1.19.74,2.57,1.26,2.97,2.64.42,1.47-.01,3.31-.11,4.72"/><path id="_パス_73374" class="cls-2" d="M42.96,109.65c-3.9,0-7.1-2.7-9.53-5.17-.21-.22-.26-.55-.1-.81.4-.7.65-1.48.72-2.28-.07-4.37-.36-8.74-.87-13.08-.2-.75.24-1.51.98-1.72.31-.08.64-.06.93.07,3.58.76,7.01,2.14,10.11,4.09.22.14.45.27.67.4,1.03.58,2.19,1.25,2.59,2.64.26,1.26.27,2.57.03,3.83-.05.39-.09.77-.12,1.12-.11.91-.05,1.83.18,2.71.21.44.55.81.98,1.05.75.54,1.87,1.37,1.05,3.19-.55,1.14-1.45,2.07-2.56,2.65-1.04.54-2.16.92-3.32,1.13-.57.12-1.16.18-1.74.18M34.73,103.88c2.51,2.49,5.83,5.07,9.7,4.27,1.02-.18,2.01-.52,2.94-.99.86-.45,1.56-1.16,1.98-2.03.37-.82.12-1-.62-1.54-.67-.4-1.18-1-1.47-1.72-.28-1.05-.36-2.15-.24-3.23.03-.37.08-.77.13-1.19.21-1.09.21-2.21.01-3.3-.24-.86-1.04-1.31-1.96-1.83-.24-.14-.48-.28-.72-.42-2.97-1.86-6.25-3.18-9.68-3.91-.16-.03-.28-.06-.31-.04,0,.08,0,.15.01.23.52,4.39.81,8.8.88,13.22-.05.87-.27,1.72-.66,2.49"/><path id="_パス_73375" class="cls-3" d="M34.44,93.71c-.06-.64-.23-1.28-.5-1.86-1.36-2.37-1.38-8.58-.79-11.35.87-4.14,2.79-5.98,6.79-6.82,2.04-.45,4.12-.69,6.2-.74.62-.02,1.25,0,1.87.07,2.32.19,4.35,1.63,5.3,3.76.67,1.63.75,3.43.81,5.2.12,3.26.24,6.53.36,9.79.09,1.05.03,2.11-.18,3.15-.76,3.1-4.87,3.2-7.47,3.3l-12.4-4.5Z"/><path id="_パス_73376" class="cls-2" d="M46.83,98.89c-.37,0-.68-.29-.69-.66,0-.37.29-.68.66-.69h.14c2.42-.1,6.08-.24,6.71-2.79.19-.98.24-1.97.16-2.96l-.36-9.79c-.06-1.69-.13-3.43-.76-4.96-.86-1.9-2.68-3.18-4.76-3.35-.59-.06-1.19-.08-1.78-.06-2.04.04-4.08.28-6.07.72-3.77.78-5.47,2.49-6.27,6.29-.59,2.78-.5,8.75.72,10.87.32.66.51,1.37.58,2.11.06.37-.18.72-.55.78s-.72-.18-.78-.55c0-.01,0-.03,0-.04-.04-.56-.18-1.11-.42-1.62-1.53-2.66-1.43-9.17-.87-11.82.92-4.37,2.97-6.43,7.31-7.34,2.08-.46,4.2-.71,6.34-.75.65-.02,1.31,0,1.96.07,2.56.22,4.8,1.82,5.84,4.17.73,1.76.8,3.71.86,5.43l.36,9.79c.09,1.12.03,2.24-.2,3.34-.87,3.54-5.31,3.71-7.97,3.81h-.14s-.03,0-.03,0Z"/><path id="_パス_73377" class="cls-2" d="M32.32,95.91c.12.13.26.24.4.34.6.45,1.45.36,1.95-.2.02-1.66-.11-3.31-.39-4.95-.2-1.13-.64-2.18-.63-3.36,0-.87.37-2.05,1.31-2.31.87-.24,2.12.14,2.46,1,.13.36.2.75.21,1.13.03.42.09.92.47,1.1.12.05.25.07.37.08.9.08.76-.35.7-1.05-.08-.81-.12-1.62-.18-2.43-.12-.55.01-1.12.38-1.55.2-.14.41-.25.64-.33.85-.49,1.42-1.36,1.53-2.34.28-1.6-.56-4.41,1.15-5.41.81-.44,1.8-.39,2.56.14.55.47,1.05,1,1.47,1.59,2.33,2.64,6.37,2.89,9.01.55.24-.21.47-.45.68-.7.28-.29.46-.67.51-1.07.04-.42-.25-.79-.66-.87-.35-.02-.87.18-.95-.16.26-.42.48-.87.64-1.33.04-.08.05-.17.03-.26-.06-.16-.27-.18-.44-.18-.95-.08-1.84-.53-2.46-1.26-.72-.69-.75-1.48-1.16-2.37-.45-.86-1.14-1.57-1.98-2.06-2.31-1.49-4.77-1.7-7.44-1.63-1.49.04-2.8,1-3.74,2.09-.46.54-.72,1.32-1.18,1.82-.55.59-1.84.15-2.61.31-1.07.22-2.1.64-3.03,1.22-1.93,1.23-3.5,2.95-4.57,4.97-1.69,3.11-2.46,7.13-.53,10.31.55.9,1.3,1.8,1.2,2.85-.08.75-.6,1.39-1.32,1.62.88.42,1.86.58,2.83.48.14-.03.29-.02.42.05.08.06.14.14.17.23.44.86.87,1.72,1.31,2.57.23.5.52.97.89,1.38"/><path id="_パス_73378" class="cls-2" d="M33.66,97.2c-.47,0-.92-.13-1.31-.39-.19-.12-.36-.27-.52-.43-.41-.46-.75-.98-1-1.55l-1.26-2.48c-1.08.11-2.17-.07-3.15-.54-.34-.16-.48-.56-.32-.9.08-.17.23-.3.41-.36.46-.15.79-.56.85-1.04.06-.63-.35-1.27-.79-1.94-.11-.16-.21-.33-.31-.49-1.8-2.96-1.61-7.07.51-10.99,1.12-2.13,2.77-3.93,4.81-5.22,1-.62,2.1-1.06,3.25-1.3.38-.06.77-.06,1.15-.02.38.02.95.06,1.09-.08.2-.24.37-.51.51-.79.18-.36.4-.69.66-1.01,1.25-1.46,2.76-2.28,4.23-2.32,2.56-.07,5.28.09,7.83,1.73.95.55,1.72,1.37,2.23,2.35.13.3.25.6.35.91.11.47.34.91.67,1.26.51.6,1.23.98,2.01,1.07.46-.05.89.21,1.06.64.07.23.06.49-.03.71-.07.2-.16.4-.24.6.76.12,1.3.8,1.25,1.57-.06.55-.29,1.06-.67,1.47-1.32,1.57-3.26,2.5-5.32,2.54h-.1c-2.02-.01-3.94-.88-5.29-2.38-.15-.17-.29-.34-.43-.52-.26-.36-.57-.69-.92-.96-.54-.38-1.25-.42-1.83-.11-.78.46-.81,1.58-.77,3.1.04.62.02,1.23-.06,1.84-.14,1.19-.85,2.25-1.9,2.83-.07.04-.15.07-.22.1-.1.04-.19.08-.28.14-.19.16-.15.76-.13.98l.06.82c.04.53.07,1.07.13,1.6l.02.18c.12.45.02.92-.27,1.29-.33.28-.76.39-1.18.32-.21-.01-.41-.06-.6-.14-.78-.36-.83-1.28-.86-1.67,0-.31-.06-.62-.16-.92-.2-.5-1.09-.75-1.66-.6-.52.14-.81.96-.81,1.66.03.68.14,1.35.34,1.99.1.4.21.82.29,1.25.29,1.67.42,3.37.4,5.07,0,.13-.04.26-.12.37-.36.5-.95.79-1.57.77M29.72,90.98c.22,0,.43.06.62.18.17.12.31.29.39.49l1.31,2.57c.2.44.46.85.77,1.22h0c.09.09.18.17.28.24.27.18.61.21.91.09,0-1.53-.13-3.05-.39-4.56-.06-.38-.16-.75-.26-1.14-.23-.76-.36-1.54-.39-2.33,0-1.23.57-2.62,1.8-2.96,1.16-.32,2.78.18,3.27,1.4.16.43.24.88.25,1.34,0,.19.03.37.1.55,0-.01.07,0,.12,0v-.11s-.03-.2-.03-.2c-.05-.54-.09-1.09-.13-1.63l-.06-.81c-.04-.49-.11-1.51.62-2.12.19-.15.4-.27.62-.35.06-.02.11-.05.16-.07.65-.4,1.08-1.08,1.16-1.85.06-.52.07-1.05.04-1.57-.05-1.52-.1-3.41,1.43-4.31,1.04-.57,2.31-.51,3.28.17.46.35.87.76,1.21,1.23.12.16.25.32.38.47,1.09,1.22,2.64,1.92,4.28,1.93h.08c1.66-.03,3.23-.78,4.3-2.05.18-.19.3-.42.36-.67,0-.06-.02-.12-.07-.17-.03,0-.11.02-.18.03-.28.03-1.14.12-1.35-.69-.05-.18-.02-.37.08-.52.15-.25.29-.51.41-.77-.98-.18-1.86-.68-2.53-1.42-.49-.5-.84-1.12-1.01-1.8-.08-.26-.18-.52-.29-.77-.4-.74-1-1.36-1.73-1.78-2.12-1.37-4.35-1.59-7.06-1.52-1.47.04-2.66,1.18-3.24,1.85-.19.24-.36.5-.5.78-.19.38-.43.74-.7,1.06-.57.61-1.45.55-2.16.51-.27-.03-.54-.03-.8,0-1,.21-1.95.59-2.81,1.13-1.83,1.17-3.32,2.79-4.33,4.72-1.89,3.49-2.1,7.09-.54,9.64.09.15.19.31.29.46.52.8,1.11,1.71,1,2.8-.05.48-.23.93-.53,1.31.43.08.86.09,1.29.04.08,0,.17-.02.25-.02"/><path id="_パス_73379" class="cls-2" d="M46.89,86.36c-.44,0-.8-.37-.8-.82,0-.44.37-.8.82-.8.44,0,.8.37.8.81,0,.45-.37.81-.82.8"/><path id="_パス_73380" class="cls-2" d="M52.63,85.68c-.44,0-.8-.37-.8-.82,0-.44.37-.8.82-.8.44,0,.8.37.8.81,0,.45-.37.81-.82.8"/><path id="_パス_73381" class="cls-3" d="M65.43,139.07c-.23,0-.42-.19-.43-.42,0-.09-.16-8.89-.32-13.56-.15-4.58-2.63-9.53-2.66-9.58-.11-.21-.02-.47.19-.57.21-.11.47-.02.57.19h0c.11.21,2.59,5.17,2.75,9.94.16,4.68.32,13.49.32,13.58,0,.23-.18.43-.42.43h0Z"/><path id="_パス_73382" class="cls-3" d="M57.65,127.13c-.63-.49-1.18-1.08-1.64-1.73-.22-.29-.38-.62-.46-.97-.23-1.22,1.21-2.63,1.49-3.86.37-1.6.19-3.28.8-4.83.37-.93.88-1.81,1.27-2.74.3-.72.52-2.98,1.26-3.41.72-.34,1.58-.03,1.92.69.03.06.06.13.08.2.15.5.14,3.43-.17,3.78,1.97-2.28,3.14-4.79,5.02-7.11.26-.38.61-.68,1.03-.86.44-.14,1.37.11,1.47.55.19-.6.83-.94,1.43-.75.04.01.08.03.12.05.6.3.94.94.85,1.6-.04.33-.14.73.12.95.15.1.32.16.5.19.49.2.82.66.87,1.19.03.51-.04,1.02-.2,1.5.68.15.78,1.04.68,1.71-.97,6.52-7.1,11-11.75,15.07-.16.16-.35.29-.56.39-.46.19-1.92-.33-2.38-.54-.63-.28-1.23-.64-1.77-1.07"/><path id="_パス_73383" class="cls-2" d="M61.54,129.45c-.83-.08-1.64-.29-2.39-.63-.68-.3-1.33-.69-1.91-1.16-.68-.53-1.28-1.17-1.77-1.88-.28-.36-.47-.78-.57-1.23-.18-.98.37-1.93.85-2.77.28-.42.49-.88.65-1.37.13-.63.21-1.26.25-1.9.04-1.03.24-2.05.58-3.03.2-.51.44-1,.68-1.47.21-.44.42-.85.59-1.27.1-.3.18-.61.24-.92.25-1.11.54-2.38,1.31-2.82.51-.29,1.13-.33,1.68-.1.62.24,1.1.75,1.3,1.39.09.54.13,1.09.12,1.64.4-.58.78-1.18,1.18-1.79.73-1.18,1.52-2.32,2.38-3.41.34-.48.8-.85,1.34-1.07.52-.13,1.07-.07,1.55.16.09-.08.19-.15.3-.2.51-.28,1.12-.31,1.65-.09.87.42,1.37,1.34,1.25,2.29l-.02.16c0,.06-.02.14-.02.21h.02c.06.02.13.04.19.06.73.28,1.25.96,1.32,1.74.04.41.02.83-.08,1.24.54.57.76,1.38.57,2.15-.89,6-5.88,10.26-10.28,14.02-.58.49-1.15.98-1.69,1.46-.22.21-.47.38-.75.5-.17.06-.34.09-.52.08M60.97,110.11c-.09,0-.18.02-.25.07-.26.19-.55,1.42-.67,1.95-.07.38-.18.76-.31,1.13-.19.47-.41.92-.63,1.35-.23.47-.45.92-.63,1.38-.29.85-.46,1.75-.49,2.65-.05.7-.14,1.4-.28,2.09-.18.61-.45,1.19-.79,1.73-.38.67-.78,1.37-.69,1.85.07.26.19.49.35.7.42.6.92,1.14,1.5,1.59.5.39,1.05.72,1.63.98.6.28,1.24.45,1.89.52.12-.07.23-.16.33-.26.55-.48,1.12-.97,1.71-1.47,4.22-3.61,9-7.69,9.82-13.19.07-.5-.03-.92-.16-.95-.36-.08-.59-.44-.51-.81,0,0,0-.02,0-.03.13-.4.2-.82.18-1.24-.02-.27-.18-.51-.42-.63-.03-.01-.07-.02-.1-.03-.22-.05-.44-.15-.62-.29-.37-.37-.51-.91-.37-1.42l.02-.13c.05-.36-.13-.72-.45-.9-.15-.05-.33-.04-.47.04-.06.04-.14.09-.15.16-.05.32-.32.55-.64.56-.29.02-.56-.16-.66-.44-.19-.11-.41-.16-.63-.14-.29.15-.54.37-.72.65-.82,1.05-1.59,2.15-2.29,3.28-.82,1.34-1.74,2.62-2.74,3.83h0c-.25.28-.67.31-.95.06-.25-.22-.31-.6-.12-.88.17-1.06.19-2.15.08-3.22-.09-.23-.27-.42-.5-.51-.08-.03-.16-.05-.25-.05M69.07,107h0Z"/><path id="_パス_73384" class="cls-2" d="M70.72,117.31c-.37,0-.68-.3-.67-.68,0-.13.04-.26.11-.37,1.02-1.42,1.85-2.96,2.47-4.59.14-.35.53-.52.88-.38.34.14.51.52.38.86-.66,1.72-1.53,3.35-2.6,4.84-.12.19-.34.3-.56.3"/><path id="_パス_73385" class="cls-2" d="M68.67,115.6c-.37,0-.68-.3-.67-.68,0-.13.04-.26.11-.37l.48-.73c1.16-1.73,2.36-3.52,2.71-5.44.07-.37.42-.61.79-.54.37.07.61.42.54.79h0c-.4,2.19-1.74,4.19-2.92,5.95l-.48.72c-.12.19-.34.3-.56.3"/><path id="_パス_73386" class="cls-2" d="M66.33,114.1c-.14,0-.28-.05-.39-.13-.3-.22-.37-.64-.15-.94,0,0,0,0,0,0,1.41-1.96,2.56-4.1,3.42-6.36.14-.35.53-.52.88-.38.35.14.52.53.38.88-.9,2.37-2.1,4.6-3.58,6.66-.13.18-.33.28-.55.28"/><path id="_パス_73387" class="cls-2" d="M48.06,82.43c-.12,0-.24-.03-.35-.1-.26-.15-.58-.15-.84,0-.32.18-.74.07-.92-.25s-.07-.74.25-.92c.69-.39,1.53-.37,2.21.03.32.2.42.61.22.93-.12.2-.34.32-.57.32"/><path id="_パス_73388" class="cls-2" d="M53.72,82.43c-.12,0-.24-.03-.35-.1-.26-.15-.58-.15-.84,0-.32.18-.74.07-.92-.25s-.07-.74.25-.92c.69-.39,1.53-.38,2.21.03.32.2.42.61.22.93-.12.2-.34.32-.57.32"/><path id="_パス_73389" class="cls-3" d="M78.82,104.68l11.8,1.99c1.05.18,2.05-.52,2.23-1.56l3.62-20.61c.18-1.05-.52-2.05-1.57-2.23l-11.8-1.99c-1.05-.18-2.05.52-2.23,1.56l-3.62,20.62c-.18,1.05.52,2.05,1.57,2.23"/><path id="_パス_73390" class="cls-2" d="M90.96,107.37c-.15,0-.31-.01-.46-.04l-11.79-1.99h0c-1.42-.25-2.36-1.6-2.11-3.01l3.62-20.62c.25-1.42,1.6-2.36,3.01-2.11l11.79,1.99c1.42.25,2.37,1.59,2.12,3.01,0,0,0,0,0,0l-3.62,20.62c-.22,1.24-1.3,2.15-2.56,2.15M78.93,104.01l11.8,1.99c.68.12,1.33-.33,1.45-1.01,0,0,0,0,0,0l3.62-20.62c.12-.68-.33-1.33-1.02-1.45,0,0,0,0,0,0l-11.8-1.99c-.68-.12-1.33.33-1.45,1.01,0,0,0,0,0,0l-3.62,20.61c-.12.68.33,1.33,1.01,1.45"/><rect id="_長方形_8876" class="cls-3" x="79.91" y="87.96" width="6.61" height="9.64" transform="translate(-22.56 158.69) rotate(-80.04)"/><path id="_パス_73391" class="cls-2" d="M87.39,97.54s-.08,0-.12-.01l-9.49-1.67c-.37-.06-.61-.41-.55-.78,0,0,0,0,0,0l1.14-6.51c.06-.37.42-.61.78-.55,0,0,0,0,0,0l9.49,1.67c.37.07.61.42.55.78l-1.14,6.51c-.06.32-.34.56-.66.56M78.68,94.65l8.16,1.43.91-5.18-8.16-1.43-.91,5.18Z"/><path id="_パス_73392" class="cls-3" d="M80.98,91.58c-.14.77.38,1.51,1.15,1.64.77.14,1.51-.38,1.64-1.15.14-.77-.38-1.51-1.15-1.64,0,0,0,0,0,0-.77-.13-1.5.38-1.64,1.15"/><path id="_パス_73393" class="cls-2" d="M82.38,93.92c-1.16,0-2.09-.93-2.1-2.09,0-1.16.93-2.09,2.09-2.1.12,0,.25.01.37.03,1.14.2,1.9,1.29,1.69,2.43-.18.99-1.04,1.72-2.05,1.72M81.64,91.69h0c-.07.4.2.79.6.86,0,0,0,0,0,0,.4.07.79-.2.86-.6,0,0,0,0,0,0,.07-.4-.2-.79-.6-.86s-.79.2-.86.6"/><path id="_パス_73394" class="cls-3" d="M79.81,105.06c.16-.99,1.98-7.28,3.82-5.71.64.66.8,1.64.41,2.47-.3.54-.58,1.1-.81,1.67-.59,1.94,1.03,4.21.04,5.98l-3.46-4.41Z"/><path id="_パス_73395" class="cls-2" d="M83.26,110.15c-.37,0-.68-.3-.68-.68,0-.12.03-.23.09-.33.41-.73.23-1.65,0-2.7-.3-1.02-.34-2.1-.11-3.14.14-.4.32-.79.54-1.16.11-.19.21-.39.31-.59.26-.56.17-1.22-.23-1.68-.13-.11-.18-.09-.22-.08-1,.36-2.3,4.23-2.49,5.38-.06.37-.41.62-.78.56-.37-.06-.62-.41-.56-.78,0-.06,1.25-5.66,3.36-6.43.54-.2,1.15-.07,1.57.32.86.86,1.1,2.16.58,3.26-.11.23-.23.46-.36.69-.17.28-.31.59-.43.9-.15.83-.11,1.67.14,2.48.24,1.15.51,2.46-.15,3.63-.12.21-.34.35-.59.35"/><path id="_パス_73396" class="cls-2" d="M49.95,94.86c-.6,0-1.19-.18-1.68-.52-.3-.22-.37-.64-.15-.94.22-.3.64-.37.94-.15h0c.66.44,1.55.34,2.1-.24.25-.28.68-.3.96-.04.27.24.29.65.07.93-.57.63-1.38.99-2.23.97"/><path id="_パス_73397" class="cls-2" d="M28.6,105.2c-2.95,4.82-3.02,10.82-2.69,16.46.09,2.79.48,5.56,1.18,8.27,1.27,4.44,3.93,8.37,6.91,11.91,2.16,2.56,4.68,5.07,7.92,5.92,3.57.88,7.33-.38,9.65-3.23.75-.92,1.27-2,1.52-3.16.22-1.44.13-2.91-.26-4.31-1.16-4.99-3.73-9.51-5.97-14.12-3.01-6.18-5.63-12.86-10.79-17.4-2.38-2.1-5.51-3.52-7.46-.33"/><path id="_パス_73398" class="cls-2" d="M44.13,148.7c-.81,0-1.61-.1-2.39-.3-3.5-.92-6.14-3.62-8.26-6.13-3.68-4.37-5.92-8.23-7.04-12.16-.71-2.75-1.11-5.58-1.2-8.42-.34-5.82-.24-11.89,2.79-16.85.6-1.13,1.68-1.92,2.94-2.15,2.04-.31,4.14,1.09,5.54,2.32,4.5,3.96,7.11,9.5,9.63,14.85.44.93.87,1.85,1.32,2.76.41.84.83,1.68,1.25,2.52,1.87,3.73,3.8,7.59,4.77,11.74.41,1.5.5,3.07.26,4.6-.27,1.26-.84,2.44-1.65,3.44-1.95,2.38-4.87,3.77-7.96,3.76M29.18,105.55c-2.84,4.64-2.92,10.46-2.6,16.06.09,2.74.47,5.46,1.15,8.12,1.07,3.74,3.22,7.44,6.77,11.66,1.98,2.36,4.44,4.88,7.57,5.7,3.31.81,6.79-.36,8.95-3,.68-.83,1.16-1.82,1.39-2.87.2-1.35.11-2.72-.25-4.03-.93-3.99-2.83-7.78-4.66-11.44-.42-.84-.85-1.69-1.26-2.54-.45-.92-.88-1.85-1.32-2.78-2.46-5.23-5.01-10.63-9.3-14.41-1.67-1.47-3.25-2.18-4.44-2-.86.17-1.6.73-1.99,1.52"/><path id="_パス_73399" class="cls-3" d="M45.58,128.73c-.22,0-.4-.17-.42-.39-.66-7.78-4.57-17.67-9.31-23.53-.15-.18-.12-.45.06-.6.18-.15.45-.12.6.06,4.83,5.97,8.82,16.06,9.49,23.99.02.23-.15.44-.39.46,0,0,0,0,0,0h-.04"/><path id="_パス_73400" class="cls-3" d="M42.57,131.94c-.23,0-.43-.18-.43-.42,0-.13.06-.25.16-.34,6.58-5.44,13.05-11.19,19.23-17.07.17-.16.44-.16.6.01.16.17.16.44-.01.6-6.19,5.9-12.68,11.65-19.27,17.11-.08.06-.17.1-.27.1"/><path id="_パス_73401" class="cls-3" d="M45.42,146.02c-.91,0-1.81-.07-2.71-.22-4.13-.69-7.89-2.78-10.65-5.93-.15-.18-.14-.45.04-.6s.45-.14.6.04h0c2.63,2.99,6.21,4.99,10.14,5.65,6.74,1.09,13.08-2.09,19.37-9.69,3.2-3.86,5.97-8.66,8.46-14.66.09-.22.34-.32.56-.23.22.09.32.34.23.56h0c-2.53,6.08-5.34,10.95-8.59,14.88-5.66,6.85-11.4,10.21-17.45,10.21"/></g></g></g><g id="_グループ_18762"><g id="_グループ_18761"><path id="_パス_73402" d="M175.65,84.93c-.18.3-.33.61-.45.93-.52,1.38-1.18,2.7-1.98,3.94,1.11.9,2.14,1.89,3.11,2.94l-1.1,1.18c-.85-1.08-1.8-2.07-2.86-2.94-.66.88-1.41,1.69-2.24,2.42-.99.86-2.07,1.61-3.23,2.24-.24-.47-.58-.88-1-1.19,2.12-1,3.97-2.51,5.37-4.38-1.15-.93-2.37-1.76-3.67-2.47l1-1.02c.99.59,1.61.99,2.25,1.46l1.22.87c.6-.98,1.11-2.01,1.53-3.08.22-.46.38-.94.48-1.44l1.57.55Z"/><path id="_パス_73403" d="M180.23,93.78c1.4-.11,2.76-.46,4.04-1.03,1.65-.7,3.08-1.86,4.1-3.34.6-.86,1.08-1.79,1.44-2.77.33.44.73.83,1.2,1.13-.88,2.16-2.37,4.01-4.29,5.33-1.58,1.02-3.34,1.72-5.19,2.06-.29.05-.58.12-.87.22l-.42-1.6ZM181.27,85.26c1.25.74,2.41,1.62,3.46,2.62l-.99,1.22c-1-1.08-2.15-2.01-3.42-2.75l.95-1.1Z"/><path id="_パス_73404" d="M197.77,85.37c-.05.17-.09.34-.11.51,0,.03-.01.1-.03.22-.02.09-.04.19-.04.29-.61,4.07-1.62,6.57-3.56,8.78-.37-.4-.81-.73-1.29-.99.83-.82,1.5-1.78,1.98-2.84.68-1.5,1.14-3.09,1.35-4.73.07-.44.11-.88.12-1.32v-.21l1.58.29ZM201.63,85.08c.1,1.09.3,2.17.6,3.22.5,2.18,1.56,4.2,3.08,5.84-.47.28-.89.63-1.24,1.06-.98-1.15-1.76-2.45-2.32-3.85-.66-1.62-1.11-3.3-1.36-5.03-.08-.51-.12-.74-.18-.96l1.42-.28ZM203.13,85.25c.46.58.83,1.24,1.09,1.94l-.93.4c-.26-.7-.62-1.37-1.07-1.97l.92-.37ZM204.6,84.7c.45.57.81,1.2,1.07,1.87l-.92.4c-.27-.68-.62-1.33-1.04-1.92l.89-.34Z"/><path id="_パス_73405" d="M207.03,89.18c.7.08,1.41.11,2.12.1h7.43c.68.02,1.37,0,2.05-.08v1.59c-.69-.06-1.37-.08-2.06-.07h-7.41c-.71-.02-1.42,0-2.13.07v-1.61Z"/><path id="_パス_73406" d="M222.21,87.79c1.25.49,2.45,1.11,3.59,1.84l-.73,1.28c-1.12-.81-2.34-1.47-3.63-1.95l.77-1.17ZM221.68,93.99c1.33-.07,2.63-.37,3.86-.87,1.61-.59,3.01-1.65,4.03-3.04.72-.92,1.27-1.95,1.62-3.06.35.4.76.75,1.21,1.03-.55,1.41-1.36,2.7-2.39,3.81-1.47,1.55-3.21,2.52-5.8,3.22-.25.07-.77.18-1.58.36-.19.03-.37.08-.55.14l-.4-1.58ZM223.26,84.48c1.24.48,2.43,1.07,3.56,1.76l-.76,1.26c-1.1-.77-2.29-1.4-3.55-1.87l.74-1.15Z"/><path id="_パス_73407" d="M237.01,87.49c.57,1,1.03,2.07,1.36,3.17l-1.31.43c-.27-1.13-.69-2.21-1.26-3.21l1.21-.38ZM244.84,87.52c-.08.21-.14.43-.18.66-.3,1.65-.97,3.22-1.95,4.59-1.07,1.38-2.46,2.47-4.05,3.17-.24-.43-.55-.81-.93-1.13.82-.3,1.59-.73,2.3-1.25,1.6-1.16,2.72-2.86,3.15-4.79.17-.51.26-1.03.28-1.57l1.4.32ZM239.9,86.94c.57.97,1.01,2,1.33,3.08l-1.28.41c-.29-1.09-.71-2.14-1.25-3.13l1.2-.36Z"/><path id="_パス_73408" d="M248.8,85.33c.61.08,1.24.12,1.86.1h6.86v-.08c.01-.8.67-1.44,1.47-1.43s1.44.67,1.43,1.47c-.01.79-.65,1.43-1.44,1.43-.07,0-.15,0-.22-.01l-.03.11c-.46,2.01-1.41,3.88-2.76,5.44-1.4,1.52-3.13,2.69-5.07,3.41-.23-.52-.57-.98-.99-1.36,1.09-.31,2.12-.79,3.05-1.43,2.18-1.42,3.7-3.65,4.22-6.2h-6.54c-.61-.02-1.22.01-1.83.08v-1.52ZM258.16,85.36c0,.44.35.81.8.81.44,0,.81-.35.81-.8,0-.44-.35-.81-.79-.81-.44,0-.81.35-.81.8"/><path id="_パス_73409" d="M266.42,86.21c.5,0,1-.01,1.5-.06-.07.68-.09,1.36-.07,2.05.02,2.01-.12,4.02-.44,6.01-.25,1.28-.59,1.62-1.65,1.62-.51,0-1.02-.05-1.52-.12-.02-.42-.09-.84-.22-1.24.47.11.96.18,1.44.19.45,0,.58-.11.7-.66.22-1.12.35-2.26.38-3.4.06-1.28.07-1.32.08-3.2h-1.59c-.06,1.45-.27,2.89-.63,4.3-.4,1.64-1.15,3.16-2.21,4.47-.26-.43-.58-.81-.96-1.14.55-.6,1.01-1.28,1.35-2.02.78-1.77,1.21-3.67,1.25-5.61h-.76c-.47,0-.94.02-1.4.08v-1.36c.5.06,1.01.09,1.51.08h.69c.03-.48.03-.54.03-1.28.01-.4-.02-.8-.1-1.19h1.4c-.1.82-.14,1.65-.12,2.47h1.34ZM270.09,95.92h-1.3c.06-.52.09-1.04.08-1.57v-7.64c0-.48-.01-.96-.07-1.44.41.05.82.08,1.22.07h2.5c.41,0,.82-.01,1.22-.07-.06.48-.08.96-.07,1.44v7.68c0,.48.02.96.08,1.44h-1.31v-.98h-2.36v1.06ZM270.09,93.72h2.36v-7.24h-2.36v7.24Z"/><path id="_パス_73410" d="M279.04,85.7c-.33,0-.7.03-1.2.07v-1.37c.39.06.79.08,1.18.07h2.03c.42.01.85,0,1.27-.07-.03.32-.04.59-.04.87,0,1.81.46,3.6,1.35,5.18.57,1.01,1.3,1.93,2.15,2.72.67.67,1.43,1.24,2.25,1.69-.41.37-.75.8-1,1.29-1.4-.96-2.62-2.16-3.59-3.56-.84-1.19-1.44-2.52-1.77-3.93-.35,1.54-1.01,3-1.95,4.27-.96,1.28-2.13,2.38-3.48,3.24-.23-.46-.56-.87-.98-1.18,1.11-.62,2.1-1.42,2.93-2.38,1.05-1.16,1.82-2.53,2.26-4.03.28-.94.43-1.91.45-2.89h-1.87Z"/><path id="_パス_73411" d="M290.51,90.27c-.34.42-.73.81-1.15,1.14-.13-.42-.33-.81-.59-1.17.9-.63,1.69-1.41,2.34-2.3.33-.42.6-.88.81-1.37l1.06.67c-.14.19-.28.4-.4.6-.11.16-.44.63-.87,1.2v5.62c0,.73.01,1.18.06,1.62h-1.35c.06-.51.09-1.02.08-1.54v-4.48ZM292.83,84.31c-.11.14-.11.15-.26.34-.8,1.09-1.78,2.02-2.92,2.75-.15-.39-.38-.74-.67-1.03.82-.46,1.55-1.06,2.16-1.79.26-.31.48-.64.66-1l1.03.73ZM297.21,84.19q-.11.15-.44.59c-.43.59-.9,1.16-1.4,1.69.44.37.66.58.99.89.82-.8,1.53-1.7,2.12-2.68l1.19.66c-.19.19-.36.39-.52.6-.87,1.04-1.8,2.02-2.79,2.94.94-.04,1.94-.11,3.02-.21-.27-.36-.43-.55-.86-1.04l.95-.59c.81.93,1.55,1.92,2.23,2.95l-1.03.67c-.37-.63-.49-.82-.66-1.09q-2.12.23-3.48.33c-.15.3-.32.59-.51.87h2.32c.37,0,.74-.02,1.11-.06l.73.67c-.11.14-.12.16-.26.34-.58.78-1.26,1.48-2.02,2.09,1.2.61,2.49,1.01,3.82,1.18-.12.2-.23.41-.33.62-.07.21-.15.42-.25.62-1-.19-1.97-.5-2.9-.92-.48-.2-.95-.44-1.39-.73-1.29.84-2.73,1.42-4.25,1.72-.13-.41-.35-.79-.63-1.11,1.37-.21,2.69-.66,3.9-1.35-.49-.41-.94-.87-1.33-1.37-.53.48-1.12.9-1.75,1.25-.2-.37-.46-.7-.78-.97,1.31-.56,2.41-1.52,3.15-2.75-.86.02-1.73.08-2.58.18l-.18-1.25c.29.03.59.04.88.04.1,0,.59-.01,1.47-.03q.62-.58.8-.74c-.81-.79-1.69-1.5-2.63-2.13l.82-.89c.38.29.52.4.78.6.63-.63,1.14-1.36,1.53-2.16l1.16.55ZM295.36,91.76c.43.56.95,1.05,1.52,1.46.57-.41,1.07-.9,1.5-1.46h-3.02Z"/><path id="_パス_73412" d="M303.77,92.23c1.12.85,2.11,1.86,2.95,2.98l-1.13,1.05c-.8-1.16-1.77-2.2-2.87-3.08l1.04-.95Z"/><path id="_パス_73414" d="M323.23,89.22c-.14.25-.27.5-.38.77-.53,1.14-1.24,2.2-2.1,3.12,1.31.9,2.79,1.54,4.34,1.9-.33.37-.58.81-.74,1.28-1.62-.52-3.14-1.3-4.49-2.32-1.29,1.07-2.78,1.87-4.39,2.35-.18-.43-.43-.82-.76-1.15,1.54-.36,2.98-1.04,4.23-2.01-.85-.83-1.53-1.82-2.02-2.9-.7,2.23-1.98,4.23-3.71,5.8-.27-.38-.61-.72-.99-.99.75-.6,1.42-1.31,1.97-2.1,1.2-1.71,1.81-3.45,2.15-6.1h-2.24c-.53-.01-1.06.02-1.58.08v-1.34c.52.06,1.05.09,1.58.08h2.36c.03-.45.06-.89.06-1.27,0-.25-.02-.5-.06-.74l1.47.04c-.08.5-.13,1.01-.14,1.51-.01.12-.01.18-.04.45h5.52c.53,0,1.06-.02,1.59-.08v1.35c-.53-.06-1.06-.09-1.59-.08h-5.65c-.1.72-.15,1.07-.27,1.7h4.01c.41.01.82,0,1.22-.07l.64.73ZM317.92,89.67c.44,1.01,1.09,1.92,1.9,2.67.75-.78,1.36-1.68,1.82-2.67h-3.71Z"/><path id="_パス_73415" d="M326.81,86.45c.56.1,1.12.14,1.69.12.3,0,.51,0,.81-.01.15-.73.25-1.47.29-2.21,0-.06,0-.13-.01-.19l1.52.14c-.13.43-.21.86-.26,1.31-.07.41-.08.55-.15.91.81-.06,1.61-.21,2.39-.44l.07,1.32q-.11.01-.41.07c-.75.15-1.51.25-2.28.3-.17.93-.54,2.44-.89,3.69-.43,1.5-.95,2.97-1.55,4.41l-1.44-.58c1.18-2.36,2.02-4.88,2.52-7.47-.12,0-.82.01-1.11.01-.1,0-.2,0-.4-.01-.2-.01-.44-.01-.63-.01h-.15v-1.35ZM333.37,91.65c-.22.24-.41.51-.56.8-.11.23-.17.48-.18.73,0,.72.77,1.11,2.2,1.11,1.05,0,2.08-.17,3.08-.49l.11,1.43c-.22.04-.3.04-.65.1-.83.15-1.66.23-2.5.23-.91.05-1.83-.13-2.65-.52-.6-.34-.97-.97-.96-1.66,0-.66.25-1.21.99-2.2l1.13.48ZM337.5,89.62c-.56-.06-1.13-.09-1.69-.08-1.19-.01-2.39.13-3.55.41l-.11-1.28c1.28-.3,2.59-.45,3.9-.44.38,0,.6,0,1.41.01l.03,1.37ZM335.19,84.41c.49.57.9,1.2,1.21,1.88l-.93.43c-.31-.69-.71-1.33-1.19-1.91l.92-.4ZM336.65,83.82c.49.54.89,1.15,1.21,1.8l-.9.43c-.31-.66-.71-1.29-1.17-1.86l.87-.37Z"/><path id="_パス_73416" d="M340.79,86.09c.98.18,1.97.26,2.97.23.21-.77.35-1.55.4-2.35l1.55.14q-.07.22-.22.82c-.15.66-.21.91-.33,1.36,1.78.01,3.56-.18,5.3-.58l.07,1.39q-.33.03-1.55.16c-1.04.12-2.76.23-4.14.28-.32,1.09-.74,2.15-1.25,3.16,1.14-.74,2.48-1.11,3.83-1.05.96-.03,1.91.24,2.71.78.59.46.92,1.16.91,1.91,0,1.95-1.91,3.24-4.8,3.24-1.18,0-2.35-.17-3.48-.51.02-.49-.02-.98-.11-1.46,1.11.44,2.3.67,3.5.67,2.06,0,3.41-.77,3.41-1.95,0-.93-.89-1.47-2.45-1.47-1.06,0-2.1.25-3.05.7-.42.18-.78.46-1.06.82l-1.39-.5c.27-.42.5-.87.69-1.33.43-1,.81-2.01,1.14-3.05-.72,0-1.44-.04-2.17-.1-.18-.01-.32-.01-.41-.01-.04,0-.07,0-.11.01l.03-1.34Z"/><path id="_パス_73417" d="M353.71,89.1c.36.06.72.08,1.09.07h.92c.35,0,.71-.02,1.06-.07-.06.49-.08.99-.07,1.48v2.79c.16.4.44.74.81.96.6.4,1.44.54,3.28.54,1.88.03,3.75-.05,5.62-.23-.2.42-.33.87-.38,1.33-1.53.04-3.12.07-4.47.07-.78,0-1.77-.03-2.36-.08-1.24,0-2.4-.59-3.11-1.61-.49.51-1.03.98-1.59,1.4-.19.15-.38.3-.51.41l-.58-1.29c.76-.39,1.47-.89,2.09-1.48v-3.05h-.82c-.33,0-.65.02-.98.07v-1.31ZM354.67,83.99c.85.74,1.61,1.58,2.26,2.5l-.96.91c-.63-.95-1.38-1.81-2.23-2.57l.92-.84ZM360.36,85.11c.3-.46.55-.94.74-1.46l1.32.23c-.28.5-.5.87-.73,1.22h2.28c.33,0,.66-.01.99-.05-.03.3-.04.6-.04.95v1.8c0,.41.01.73.04,1-.36-.03-.55-.04-.99-.04h-4.64v1.15h5.04c.33,0,.66,0,.99-.04-.04.35-.06.69-.06,1.04v1.94c0,.31.02.63.06.94-.32-.03-.59-.04-.96-.04h-5.29c-.4,0-.72.01-1.03.04.03-.3.04-.6.04-.95v-6.84c0-.32-.02-.63-.06-.95.36.04.73.06,1.1.05h1.2ZM359.33,87.71h4.38v-1.51h-4.38v1.51ZM359.33,92.66h4.77v-1.68h-4.77v1.68Z"/><path id="_パス_73418" d="M372.25,86.21c.5,0,1-.01,1.5-.06-.07.68-.09,1.36-.07,2.05.02,2.01-.12,4.02-.44,6.01-.25,1.28-.59,1.62-1.65,1.62-.51,0-1.02-.05-1.52-.12-.02-.42-.09-.84-.22-1.24.47.11.96.18,1.44.19.45,0,.58-.11.7-.66.22-1.12.35-2.26.38-3.4.06-1.28.07-1.32.08-3.2h-1.59c-.06,1.45-.27,2.89-.63,4.3-.4,1.64-1.15,3.16-2.21,4.47-.26-.43-.58-.81-.96-1.14.55-.6,1.01-1.28,1.35-2.02.78-1.77,1.21-3.67,1.25-5.61h-.76c-.47,0-.94.02-1.4.08v-1.36c.5.06,1.01.09,1.51.08h.69c.03-.48.03-.54.03-1.28.01-.4-.02-.8-.1-1.19h1.4c-.1.82-.14,1.65-.12,2.47h1.34ZM375.92,95.92h-1.3c.06-.52.09-1.04.08-1.57v-7.64c0-.48-.01-.96-.07-1.44.41.05.82.08,1.22.07h2.5c.41,0,.82-.01,1.22-.07-.05.48-.08.96-.07,1.44v7.68c0,.48.02.96.08,1.44h-1.31v-.98h-2.36v1.06ZM375.92,93.72h2.36v-7.24h-2.36v7.24Z"/><path id="_パス_73419" d="M381.61,85.84q.26.01.48.01c.28,0,.56,0,.83-.04,1.61-.11,4.88-.29,8.11-.44.53,0,1.07-.05,1.59-.14l.1,1.46c-.08-.01-.16-.01-.23-.01-.89.03-1.77.26-2.57.66-1.87.93-3.02,2.42-3.02,3.9.02,1.12.78,2.09,1.87,2.36.65.21,1.33.34,2.02.38.08,0,.17,0,.25-.01l-.21,1.55c-.18-.03-.23-.04-.45-.07-1.09-.09-2.15-.43-3.11-.98-1.12-.64-1.81-1.83-1.79-3.12.05-1.41.71-2.73,1.8-3.63.47-.47,1.03-.84,1.65-1.1-.96.14-1.51.19-2.97.29-1.43.07-2.86.21-4.27.43l-.08-1.51ZM391.25,89.92c-.32-.67-.73-1.29-1.21-1.86l.88-.44c.49.55.9,1.16,1.21,1.83l-.88.47ZM392.66,89.21c-.32-.65-.72-1.25-1.18-1.8l.85-.43c.48.52.88,1.11,1.2,1.75l-.87.48Z"/></g></g></g></svg>