<svg xmlns="http://www.w3.org/2000/svg" xmlns:xlink="http://www.w3.org/1999/xlink" width="123.193" height="524.477" viewBox="0 0 123.193 524.477">
  <defs>
    <clipPath id="clip-path">
      <rect id="長方形_9366" data-name="長方形 9366" width="64.89" height="64.89" fill="none"/>
    </clipPath>
    <clipPath id="clip-path-2">
      <rect id="長方形_9370" data-name="長方形 9370" width="94.836" height="94.837" fill="none"/>
    </clipPath>
    <clipPath id="clip-path-3">
      <rect id="長方形_9371" data-name="長方形 9371" width="110.562" height="110.562" fill="none"/>
    </clipPath>
  </defs>
  <g id="グループ_21516" data-name="グループ 21516" transform="translate(-300.041 -94.204)">
    <g id="グループ_21132" data-name="グループ 21132" transform="translate(347.459 285.303)">
      <g id="グループ_20358" data-name="グループ 20358" transform="translate(0 0)">
        <g id="グループ_20357" data-name="グループ 20357" clip-path="url(#clip-path)">
          <path id="パス_82344" data-name="パス 82344" d="M2.994,165.552" transform="translate(-2.407 -133.107)" fill="#c9caca"/>
          <path id="パス_82345" data-name="パス 82345" d="M165.552,328.11Z" transform="translate(-133.107 -263.806)" fill="#c9caca"/>
          <path id="パス_82346" data-name="パス 82346" d="M328.11,165.552" transform="translate(-263.807 -133.107)" fill="#c9caca"/>
        </g>
      </g>
      <path id="パス_82347" data-name="パス 82347" d="M0,157.676l1.92,1.92v-3.84Z" transform="translate(0 -125.23)" fill="#c9caca"/>
      <path id="パス_82348" data-name="パス 82348" d="M54.282,125.375V104.1l1.748-1.748v24.773Z" transform="translate(-43.644 -82.291)" fill="#c9caca"/>
      <path id="パス_82349" data-name="パス 82349" d="M107.687,92.9V50.693l1.748-1.748V94.651Z" transform="translate(-86.582 -39.353)" fill="#c9caca"/>
      <path id="パス_82350" data-name="パス 82350" d="M161.966,0l-.874.874V64.016l.58.58.294.294.874-.874V.873Z" transform="translate(-129.521 0.001)" fill="#c9caca"/>
      <path id="パス_82351" data-name="パス 82351" d="M27.579,141.611V130.8l1.748-1.748v14.306Z" transform="translate(-22.174 -103.761)" fill="#c9caca"/>
      <path id="パス_82352" data-name="パス 82352" d="M80.985,109.139V77.4l1.748-1.748v35.239Z" transform="translate(-65.113 -60.822)" fill="#c9caca"/>
      <path id="パス_82353" data-name="パス 82353" d="M134.39,76.667V23.991l1.748-1.748V78.415Z" transform="translate(-108.052 -17.884)" fill="#c9caca"/>
      <path id="パス_82354" data-name="パス 82354" d="M214.5,48.945l1.748,1.748V92.9L214.5,94.651Z" transform="translate(-172.46 -39.353)" fill="#c9caca"/>
      <path id="パス_82355" data-name="パス 82355" d="M267.9,102.35l1.748,1.748v21.277l-1.748,1.748Z" transform="translate(-215.398 -82.291)" fill="#c9caca"/>
      <path id="パス_82356" data-name="パス 82356" d="M321.307,159.6l1.92-1.92-1.92-1.92Z" transform="translate(-258.337 -125.23)" fill="#c9caca"/>
      <path id="パス_82357" data-name="パス 82357" d="M187.795,22.242l1.748,1.748V76.667l-1.748,1.748Z" transform="translate(-150.99 -17.883)" fill="#c9caca"/>
      <path id="パス_82358" data-name="パス 82358" d="M241.2,75.647l1.748,1.748v31.743l-1.748,1.748Z" transform="translate(-193.929 -60.822)" fill="#c9caca"/>
      <path id="パス_82359" data-name="パス 82359" d="M294.6,129.052l1.748,1.748v10.81l-1.748,1.748Z" transform="translate(-236.868 -103.76)" fill="#c9caca"/>
    </g>
    <rect id="長方形_9825" data-name="長方形 9825" width="32.899" height="32.899" transform="matrix(0.707, -0.707, 0.707, 0.707, 306.738, 291.791)" fill="#fcfcfc" opacity="0.797"/>
    <g id="グループ_21131" data-name="グループ 21131" transform="translate(300.041 94.204)" opacity="0.695">
      <g id="グループ_20364" data-name="グループ 20364" transform="translate(0 0)">
        <g id="グループ_20363" data-name="グループ 20363" clip-path="url(#clip-path-2)">
          <path id="パス_82360" data-name="パス 82360" d="M2.994,165.552" transform="translate(-2.136 -118.134)" fill="#d9d191"/>
          <path id="パス_82361" data-name="パス 82361" d="M165.552,328.11Z" transform="translate(-118.134 -234.131)" fill="#d9d191"/>
          <path id="パス_82362" data-name="パス 82362" d="M328.11,165.552" transform="translate(-234.132 -118.134)" fill="#d9d191"/>
        </g>
      </g>
      <path id="パス_82363" data-name="パス 82363" d="M0,158.562l2.806,2.806v-5.612Z" transform="translate(0 -111.143)" fill="#d9d191"/>
      <path id="パス_82364" data-name="パス 82364" d="M54.282,136v-31.1l2.555-2.555v36.205Z" transform="translate(-38.735 -73.034)" fill="#d9d191"/>
      <path id="パス_82365" data-name="パス 82365" d="M107.687,113.189V51.5l2.555-2.555v66.8Z" transform="translate(-76.843 -34.926)" fill="#d9d191"/>
      <path id="パス_82366" data-name="パス 82366" d="M162.37,0l-1.277,1.277V93.559l.848.848.429.429,1.277-1.277V1.277Z" transform="translate(-114.952 0.001)" fill="#d9d191"/>
      <path id="パス_82367" data-name="パス 82367" d="M27.58,147.407v-15.8l2.555-2.555v20.909Z" transform="translate(-19.68 -92.088)" fill="#d9d191"/>
      <path id="パス_82368" data-name="パス 82368" d="M80.985,124.595V78.2l2.555-2.555v51.5Z" transform="translate(-57.789 -53.98)" fill="#d9d191"/>
      <path id="パス_82369" data-name="パス 82369" d="M134.39,101.783V24.8l2.555-2.555v82.1Z" transform="translate(-95.898 -15.872)" fill="#d9d191"/>
      <path id="パス_82370" data-name="パス 82370" d="M214.5,48.945l2.555,2.555v61.689l-2.555,2.555Z" transform="translate(-153.06 -34.926)" fill="#d9d191"/>
      <path id="パス_82371" data-name="パス 82371" d="M267.9,102.35l2.555,2.555V136l-2.555,2.555Z" transform="translate(-191.169 -73.034)" fill="#d9d191"/>
      <path id="パス_82372" data-name="パス 82372" d="M321.307,161.367l2.806-2.806-2.806-2.806Z" transform="translate(-229.278 -111.143)" fill="#d9d191"/>
      <path id="パス_82373" data-name="パス 82373" d="M187.795,22.242,190.35,24.8v76.985l-2.555,2.555Z" transform="translate(-134.006 -15.871)" fill="#d9d191"/>
      <path id="パス_82374" data-name="パス 82374" d="M241.2,75.647l2.555,2.555v46.392l-2.555,2.555Z" transform="translate(-172.115 -53.98)" fill="#d9d191"/>
      <path id="パス_82375" data-name="パス 82375" d="M294.6,129.052l2.555,2.555v15.8l-2.555,2.555Z" transform="translate(-210.223 -92.088)" fill="#d9d191"/>
    </g>
    <g id="グループ_21371" data-name="グループ 21371" transform="translate(312.672 508.119)" opacity="0.497">
      <g id="グループ_20367" data-name="グループ 20367" transform="translate(0 0)">
        <g id="グループ_20366" data-name="グループ 20366" clip-path="url(#clip-path-3)">
          <path id="パス_82376" data-name="パス 82376" d="M2.994,165.552" transform="translate(-1.994 -110.271)" fill="#d9d191"/>
          <path id="パス_82377" data-name="パス 82377" d="M165.552,328.11Z" transform="translate(-110.271 -218.548)" fill="#d9d191"/>
          <path id="パス_82378" data-name="パス 82378" d="M328.11,165.552" transform="translate(-218.548 -110.271)" fill="#d9d191"/>
        </g>
      </g>
      <path id="パス_82379" data-name="パス 82379" d="M0,159.027,3.271,162.3v-6.542Z" transform="translate(0 -103.746)" fill="#d9d191"/>
      <path id="パス_82380" data-name="パス 82380" d="M54.282,141.58V105.329l2.979-2.979v42.209Z" transform="translate(-36.156 -68.173)" fill="#d9d191"/>
      <path id="パス_82381" data-name="パス 82381" d="M107.687,123.841V51.924l2.979-2.979V126.82Z" transform="translate(-71.728 -32.601)" fill="#d9d191"/>
      <path id="パス_82382" data-name="パス 82382" d="M162.582,0l-1.489,1.489V109.072l.989.989.5.5,1.489-1.489V1.489Z" transform="translate(-107.301 0.001)" fill="#d9d191"/>
      <path id="パス_82383" data-name="パス 82383" d="M27.58,150.45V132.031l2.979-2.979v24.376Z" transform="translate(-18.37 -85.959)" fill="#d9d191"/>
      <path id="パス_82384" data-name="パス 82384" d="M80.984,132.711V78.626l2.979-2.979v60.042Z" transform="translate(-53.942 -50.387)" fill="#d9d191"/>
      <path id="パス_82385" data-name="パス 82385" d="M134.39,114.972V25.221l2.979-2.979V117.95Z" transform="translate(-89.515 -14.815)" fill="#d9d191"/>
      <path id="パス_82386" data-name="パス 82386" d="M214.5,48.945l2.979,2.979v71.917l-2.979,2.979Z" transform="translate(-142.873 -32.601)" fill="#d9d191"/>
      <path id="パス_82387" data-name="パス 82387" d="M267.9,102.35l2.979,2.979V141.58l-2.979,2.979Z" transform="translate(-178.445 -68.173)" fill="#d9d191"/>
      <path id="パス_82388" data-name="パス 82388" d="M321.307,162.3l3.271-3.271-3.271-3.271Z" transform="translate(-214.017 -103.745)" fill="#d9d191"/>
      <path id="パス_82389" data-name="パス 82389" d="M187.795,22.242l2.979,2.979v89.75l-2.979,2.979Z" transform="translate(-125.087 -14.815)" fill="#d9d191"/>
      <path id="パス_82390" data-name="パス 82390" d="M241.2,75.647l2.979,2.979V132.71l-2.979,2.979Z" transform="translate(-160.659 -50.387)" fill="#d9d191"/>
      <path id="パス_82391" data-name="パス 82391" d="M294.6,129.052l2.979,2.979V150.45l-2.979,2.979Z" transform="translate(-196.231 -85.959)" fill="#d9d191"/>
    </g>
  </g>
</svg>
