<?xml version="1.0" encoding="UTF-8"?><svg id="_レイヤー_1" xmlns="http://www.w3.org/2000/svg" xmlns:xlink="http://www.w3.org/1999/xlink" viewBox="0 0 320 388"><defs><style>.cls-1{fill:none;}.cls-2{fill:#211613;}.cls-3{fill:#e8dd58;}.cls-4{fill:#fff;}.cls-5{clip-path:url(#clippath);}</style><clipPath id="clippath"><rect class="cls-1" width="317.54" height="260.31"/></clipPath></defs><g id="_グループ_17796"><g class="cls-5"><g id="_グループ_17795"><path id="_パス_64293" class="cls-4" d="M316.27,101.31c1.48,3.31-.93,7.6-5.38,9.59s-9.25.9-10.73-2.41.93-7.6,5.38-9.59,9.25-.9,10.73,2.41"/><path id="_パス_64294" class="cls-2" d="M306.45,112.73c-.75,0-1.49-.07-2.22-.23-2.11-.37-3.9-1.74-4.83-3.67-1.66-3.73.94-8.53,5.8-10.69,2.18-1.02,4.64-1.31,7-.83,3.44.51,5.82,3.72,5.31,7.16-.14.91-.47,1.78-.98,2.55-1.23,2.08-3.08,3.7-5.3,4.65-1.5.68-3.13,1.04-4.78,1.07M309.98,98.74c-1.42.02-2.82.34-4.11.92-4.02,1.79-6.24,5.6-4.96,8.48.72,1.44,2.08,2.45,3.67,2.71,4.12.73,8.27-1.12,10.48-4.67,1.47-2.1.95-4.99-1.14-6.45-.62-.43-1.34-.71-2.09-.8-.61-.13-1.23-.2-1.85-.19"/><path id="_パス_64295" class="cls-3" d="M315.15,99.05c1.48,3.31-.93,7.6-5.38,9.59s-9.25.9-10.73-2.41.93-7.6,5.38-9.59,9.25-.9,10.73,2.41"/><path id="_パス_64296" class="cls-2" d="M305.32,110.47c-.75,0-1.49-.07-2.22-.23-2.11-.37-3.9-1.74-4.83-3.67-1.66-3.73.94-8.53,5.8-10.69,2.18-1.02,4.64-1.31,7-.83,2.11.37,3.9,1.74,4.83,3.67,1.66,3.73-.94,8.53-5.8,10.69-1.5.68-3.13,1.04-4.78,1.07M308.87,96.48c-1.42.02-2.82.34-4.11.92-4.02,1.79-6.24,5.6-4.96,8.48.72,1.44,2.08,2.45,3.67,2.71,2.01.4,4.1.14,5.95-.73,4.02-1.79,6.24-5.6,4.96-8.48-.72-1.44-2.08-2.45-3.67-2.71-.61-.13-1.23-.2-1.85-.19"/><path id="_パス_64297" class="cls-4" d="M43.16,248.95c1.46,3.32-.98,7.6-5.44,9.56s-9.26.85-10.71-2.47.98-7.6,5.44-9.56,9.26-.85,10.71,2.47"/><path id="_パス_64298" class="cls-2" d="M33.29,260.31c-3.18,0-5.94-1.41-7.05-3.93-1.64-3.74.99-8.52,5.87-10.66,2.19-1,4.65-1.28,7.01-.79,3.44.53,5.8,3.75,5.26,7.19-.14.91-.48,1.78-.99,2.55-1.24,2.07-3.11,3.69-5.33,4.62-1.5.67-3.12,1.02-4.77,1.03M36.89,246.35c-1.42.01-2.82.32-4.11.9-4.03,1.77-6.28,5.56-5.01,8.45s5.58,3.81,9.61,2.04c1.89-.79,3.49-2.16,4.55-3.91,1.48-2.09.98-4.98-1.11-6.46-.62-.44-1.33-.72-2.09-.81-.61-.14-1.22-.2-1.85-.2"/><path id="_パス_64299" class="cls-3" d="M42.06,246.69c1.46,3.32-.98,7.6-5.44,9.56s-9.26.85-10.71-2.47.98-7.6,5.44-9.56,9.26-.85,10.71,2.47"/><path id="_パス_64300" class="cls-2" d="M32.17,258.05c-.75,0-1.49-.08-2.22-.25-3.44-.53-5.8-3.75-5.26-7.19.14-.91.48-1.78.99-2.55,1.24-2.07,3.11-3.69,5.33-4.62,4.88-2.14,10.18-.84,11.82,2.9s-.99,8.52-5.87,10.66c-1.51.67-3.14,1.03-4.79,1.04M35.82,244.08c-1.43.01-2.83.32-4.14.9-1.89.79-3.49,2.16-4.55,3.91-1.48,2.09-.98,4.98,1.11,6.46.62.44,1.33.72,2.09.81,2.01.41,4.1.16,5.96-.7,4.03-1.77,6.28-5.56,5.01-8.45-.83-1.89-2.97-2.94-5.47-2.94"/><path id="_パス_64301" class="cls-4" d="M297.72,11.67c-.69,3.56-5.13,5.69-9.91,4.76s-8.1-4.57-7.4-8.13,5.13-5.69,9.91-4.76,8.1,4.57,7.4,8.13"/><path id="_パス_64302" class="cls-2" d="M294.03,16.76c-2.04.77-4.25.94-6.38.5-2.37-.42-4.55-1.59-6.21-3.34-1.51-1.51-2.2-3.66-1.85-5.77.78-4.01,5.67-6.44,10.89-5.43s8.84,5.1,8.07,9.11c-.55,2.31-2.26,4.17-4.51,4.92M284.68,4.78c-1.71.55-3.02,1.95-3.45,3.69-.24,1.59.3,3.2,1.45,4.33,1.42,1.48,3.27,2.47,5.3,2.82,4.32.84,8.32-1,8.93-4.1s-2.42-6.31-6.74-7.15c-1.83-.38-3.72-.24-5.48.41"/><path id="_パス_64303" class="cls-3" d="M298.1,9.18c-.69,3.56-5.13,5.69-9.91,4.76s-8.1-4.57-7.4-8.13,5.12-5.69,9.91-4.76c4.78.93,8.1,4.57,7.4,8.13"/><path id="_パス_64304" class="cls-2" d="M294.42,14.27c-2.04.77-4.26.94-6.39.49-5.23-1.02-8.84-5.1-8.07-9.11s5.66-6.44,10.89-5.43c2.37.42,4.55,1.59,6.21,3.34,1.51,1.51,2.2,3.66,1.85,5.78-.47,2.09-1.91,3.82-3.88,4.66-.2.1-.41.19-.62.27M285.06,2.28c-1.71.55-3.02,1.95-3.45,3.69-.6,3.1,2.42,6.31,6.74,7.15,2,.43,4.09.21,5.96-.63,1.49-.61,2.59-1.91,2.96-3.47.24-1.59-.3-3.2-1.45-4.33-1.42-1.48-3.27-2.47-5.29-2.82-1.83-.38-3.72-.24-5.48.41M298.1,9.18h0Z"/><path id="_パス_64305" class="cls-4" d="M198.39,49.9c-1.93,3.07-6.84,3.45-10.96.85s-5.89-7.19-3.96-10.26,6.84-3.45,10.96-.85,5.89,7.19,3.96,10.26"/><path id="_パス_64306" class="cls-2" d="M193.11,53.31c-2.18-.02-4.3-.66-6.13-1.84-2.06-1.25-3.67-3.13-4.59-5.36-.86-1.96-.73-4.21.36-6.05,2.18-3.46,7.61-3.96,12.12-1.12s6.4,7.96,4.22,11.41c-1.35,1.95-3.61,3.07-5.99,2.96M188.72,38.76c-1.79-.1-3.52.72-4.55,2.19-.8,1.4-.88,3.09-.22,4.56.79,1.89,2.16,3.48,3.92,4.54,3.72,2.35,8.12,2.08,9.81-.59s.02-6.76-3.7-9.1c-1.57-1.02-3.39-1.57-5.25-1.6"/><path id="_パス_64307" class="cls-3" d="M199.65,47.72c-1.93,3.07-6.84,3.45-10.96.85s-5.89-7.19-3.96-10.26,6.84-3.45,10.96-.85c4.12,2.6,5.89,7.19,3.96,10.26"/><path id="_パス_64308" class="cls-2" d="M194.37,51.13c-2.18-.02-4.31-.67-6.14-1.85-4.5-2.84-6.4-7.96-4.22-11.41s7.62-3.96,12.12-1.12c2.06,1.25,3.67,3.13,4.58,5.36,1.49,3.15.14,6.9-3,8.39-.83.39-1.74.6-2.67.61-.22.02-.45.03-.67.03M189.98,36.57c-1.79-.1-3.52.72-4.55,2.19-1.68,2.67-.02,6.76,3.7,9.1,1.71,1.13,3.74,1.68,5.79,1.57,2.56.05,4.68-1.98,4.73-4.54.02-.76-.15-1.51-.5-2.18-.79-1.89-2.16-3.49-3.92-4.54-1.57-1.02-3.39-1.57-5.25-1.6M199.65,47.71h0Z"/><path id="_パス_64309" class="cls-4" d="M18.37,113.1c-.47,3.6-4.77,5.99-9.6,5.36s-8.36-4.07-7.88-7.66,4.77-5.99,9.6-5.36c4.83.64,8.36,4.07,7.88,7.66"/><path id="_パス_64310" class="cls-2" d="M14.99,118.39c-1.99.89-4.18,1.2-6.34.89-2.39-.28-4.64-1.31-6.4-2.95-1.6-1.42-2.42-3.52-2.2-5.65.53-4.05,5.26-6.77,10.54-6.08s9.14,4.56,8.6,8.6c-.41,2.34-2,4.3-4.2,5.19M4.93,107c-1.67.65-2.89,2.13-3.22,3.89-.14,1.6.49,3.18,1.71,4.23,1.51,1.39,3.42,2.26,5.46,2.49,4.36.58,8.25-1.5,8.66-4.64s-2.8-6.15-7.16-6.72c-1.85-.27-3.73-.01-5.44.74"/><path id="_パス_64311" class="cls-3" d="M18.6,110.58c-.47,3.6-4.77,5.99-9.6,5.36s-8.36-4.07-7.88-7.67,4.77-5.99,9.6-5.36,8.36,4.07,7.88,7.66"/><path id="_パス_64312" class="cls-2" d="M15.23,115.89c-1.99.89-4.19,1.19-6.35.88-5.28-.7-9.14-4.56-8.6-8.6s5.26-6.78,10.54-6.08c2.39.28,4.64,1.31,6.4,2.95,2.67,2.24,3.01,6.21.78,8.88-.59.71-1.33,1.27-2.17,1.66-.2.11-.4.21-.6.31M5.16,104.49c-1.68.66-2.89,2.13-3.22,3.9-.41,3.13,2.8,6.15,7.16,6.73,2.03.31,4.1-.04,5.92-.99,2.35-1.02,3.42-3.75,2.4-6.1-.3-.69-.77-1.3-1.36-1.78-1.51-1.39-3.42-2.26-5.46-2.49-1.85-.27-3.73-.02-5.44.74M18.59,110.59h0Z"/><path id="_パス_64313" class="cls-3" d="M22.53,158.34l-10.85,12.14s14.87.84,21.07,7.39c5.44,5.74,13.43,7.07,13.43,7.07l9.97-11.96c-4.96-1.03-9.46-3.61-12.87-7.35-7.9-8.33-20.76-7.28-20.76-7.28"/><path id="_パス_64314" class="cls-2" d="M46.53,185.86c-.16.06-.34.08-.51.05-.34-.06-8.39-1.45-13.99-7.36-5.86-6.19-20.27-7.08-20.42-7.09-.54-.03-.96-.5-.93-1.04.01-.22.1-.43.25-.6l10.85-12.14c.17-.19.4-.3.65-.32.54-.04,13.42-.99,21.55,7.59,3.27,3.57,7.56,6.04,12.29,7.06.54.08.91.57.84,1.11-.03.18-.1.35-.22.49l-9.97,11.96c-.11.13-.25.23-.41.29M13.71,169.68c2.15.24,4.29.6,6.4,1.08,6.15,1.41,10.65,3.57,13.36,6.43,4.34,4.58,10.5,6.25,12.34,6.66l8.56-10.27c-4.52-1.32-8.59-3.84-11.8-7.29-6.73-7.1-17.44-7.08-19.59-7l-9.27,10.38Z"/><path id="_パス_64315" class="cls-4" d="M37.98,172.39c-2.03,1.94-5.04,2.08-6.73.32s-1.41-4.76.62-6.7,5.04-2.08,6.73-.32,1.41,4.76-.62,6.7"/><path id="_パス_64316" class="cls-2" d="M36.4,174.53c-.6.23-1.23.36-1.87.39-1.49.1-2.95-.46-3.99-1.53-2.06-2.15-1.76-5.78.65-8.09,1.11-1.08,2.58-1.73,4.12-1.82,2.75-.21,5.15,1.85,5.36,4.61.02.33.02.65-.02.98-.16,1.54-.87,2.98-2,4.04-.65.62-1.42,1.11-2.26,1.43M34.16,165.7c-.59.23-1.14.57-1.59,1.01-1.63,1.56-1.9,3.95-.59,5.32.65.66,1.56,1,2.48.93,2.21-.17,3.99-1.88,4.26-4.08.23-1.66-.93-3.2-2.6-3.43-.23-.03-.46-.04-.69-.02-.43.02-.86.11-1.27.26"/></g></g></g><rect class="cls-1" width="320" height="388"/></svg>