<svg xmlns="http://www.w3.org/2000/svg" xmlns:xlink="http://www.w3.org/1999/xlink" width="511.093" height="35.722" viewBox="0 0 511.093 35.722">
  <defs>
    <clipPath id="clip-path">
      <rect id="長方形_9683" data-name="長方形 9683" width="511.093" height="35.722" fill="none"/>
    </clipPath>
  </defs>
  <g id="グループ_20664" data-name="グループ 20664" transform="translate(0 0)">
    <g id="グループ_20663" data-name="グループ 20663" transform="translate(0 0)" clip-path="url(#clip-path)">
      <path id="パス_84427" data-name="パス 84427" d="M219.107,43.593A53.491,53.491,0,0,0,230.089,32.4c-3.056.393-3.994.484-7.2.7l-.515-3.479c.847.06,2.3.151,3.147.151,1.724,0,7.08-.453,9.742-1.573l1.392,2.39c-1.846,1.361-3.54,3.267-6.687,6.867a9.119,9.119,0,0,1,2.511-.332c6.021,0,7.17,4.448,7.17,6.989,0,5.234-4.236,8.653-9.712,8.653-2.027,0-6.2-.515-6.2-4.387,0-1.966,1.331-4.083,4.72-4.083a6.062,6.062,0,0,1,5.779,3.963,4.981,4.981,0,0,0,2.178-4.175c0-1.724-.7-4.236-4.871-4.236s-6.384,2.451-9.863,6.263Zm9.318,3.268a1.636,1.636,0,0,0-1.755,1.422c0,1.15,1.6,1.664,2.9,1.664a6.137,6.137,0,0,0,1.876-.3c-.272-.907-.817-2.783-3.026-2.783" transform="translate(-139.232 -17.915)" fill="#414141"/>
      <path id="パス_84428" data-name="パス 84428" d="M311.268,49.182c0,2-3.751,2.239-5.082,2.33L304.794,48.4c1.362.061,3.449.121,3.449-1.15V41.195c-.484.211-3.056,1.3-3.147,1.452-.242.393-.272.424-.424.424-.242,0-.272-.212-.3-.635l-.272-3.146c2.511-.7,3.449-1,4.145-1.239V32.905H304.16V29.879h4.083V25.372l2.661.091c.7.03,1.12.091,1.12.365,0,.151-.061.182-.484.484a.684.684,0,0,0-.272.454v3.114h2.965v3.026h-2.963V37.02c1.089-.424,1.482-.605,2.027-.817v2.753c-.3.151-1.755.786-2.027.907Zm6.263-8.229a21.91,21.91,0,0,0,2.965,3.3,19.879,19.879,0,0,0,2.843-3.358h-8.985V38.049h12.132l1.239,1.392a23.323,23.323,0,0,1-4.84,6.685c1.725,1.18,2.9,1.786,6.687,2.843L327.7,51.845a22.456,22.456,0,0,1-7.291-3.752,42.893,42.893,0,0,1-6.414,3.752L311.6,48.97a24.79,24.79,0,0,0,6.535-2.905c-.514-.575-2.572-2.843-3-3.328Zm12.1-8.29c-.242,2.874-.484,4.236-2.42,4.236h-2.723c-1.694,0-2.118-.575-2.118-1.966V29.246h-3.722c.061,4.265-.454,5.749-3,8.38l-2.45-1.877a7.665,7.665,0,0,0,2.541-6.444c0-.182,0-1.089-.091-2.843h9.8v6.234c0,.484,0,1.27.635,1.27.666,0,.877-.847,1.089-2.3Z" transform="translate(-193.239 -16.123)" fill="#414141"/>
      <path id="パス_84429" data-name="パス 84429" d="M401.356,34.477c-1.271.454-3.722,1.362-5.628,1.815-.3.061-.365.242-.484.575a.353.353,0,0,1-.333.242c-.3,0-.544-.575-.7-1.059l-.726-2.208a23.353,23.353,0,0,0,6.928-2ZM395.4,26.913a22.223,22.223,0,0,1,4.63,1.483l-1.21,2.6a26.051,26.051,0,0,0-4.478-1.572Zm22.359,11.408c-.938-.3-1.089-.365-1.634-.575v9.347h-5.295a30.262,30.262,0,0,0,7.988,2.572l-1.967,2.6a34.052,34.052,0,0,1-8.713-3.419l2.057-1.755h-6.383l1.239,1.3c.212.242.3.333.3.514,0,.151-.121.212-.272.212-.121,0-.333-.061-.454-.061a3.678,3.678,0,0,0-.6.3,32,32,0,0,1-7.776,2.722l-1.664-2.722c1.452-.212,5.2-.848,7.353-2.269h-4.569V36.323h5.749L401.6,34.749c3.358-1.059,4.992-2.965,5.687-4.478l2.965.3c.424.03.635.091.635.333s-.211.3-.786.424a17.731,17.731,0,0,0,9.379,4.387ZM404.5,30.182a14.412,14.412,0,0,1-2.269,2.511l-2.36-1.6a13.57,13.57,0,0,0,3.661-5.054l2.572.484c.575.121.817.151.817.333,0,.121-.454.333-.666.424-.121.151-.3.424-.453.635h11.95l1.544,1.331c-1.453,1.725-1.544,1.815-3.721,4.145l-2.542-1.543a15.43,15.43,0,0,0,1.573-1.665Zm8.592,8.139H400.357v1.12h12.737Zm0,2.783H400.357v1.089h12.737Zm-12.737,3.961h12.737v-1.21H400.357Zm12.586-8.744a16.6,16.6,0,0,1-4.265-3.086,13.911,13.911,0,0,1-3.752,3.086Z" transform="translate(-250.043 -16.545)" fill="#414141"/>
      <path id="パス_84430" data-name="パス 84430" d="M480.724,37.616a6.449,6.449,0,0,1,1.906-4.78,8.163,8.163,0,0,1,5.809-2.239c3.6,0,7.109,1.936,7.109,6.353,0,3.449-2,5.023-4.205,6.717-1.392,1.089-1.392,1.694-1.392,3.933h-3.66c0-3.631.393-4.72,2.3-6.263,2.148-1.755,2.934-2.39,2.934-4.054a3.16,3.16,0,0,0-3.208-3.328c-2.179,0-3.328,1.392-3.449,3.661ZM486.2,49.566h3.842v3.842H486.2Z" transform="translate(-305.476 -19.442)" fill="#414141"/>
      <path id="パス_84431" data-name="パス 84431" d="M602.17,47.752c-2.39,5.052-4.083,6.565-5.9,6.565-3,0-5.265-4.84-5.265-10.892a27.457,27.457,0,0,1,.575-5.5c.121-.605.726-3.449.847-4.115l3.237,1.482c.3.151.817.393.817.666,0,.182-.212.333-.605.635a17.962,17.962,0,0,0-1.513,7.5c0,4.083,1.271,6.081,2.239,6.081,1.057,0,2.329-2.814,3.056-4.569Zm9.137,1.755a22.183,22.183,0,0,0-3.963-12.556l3.237-1.362c2.9,4.083,4.083,9.379,4.448,13.433Z" transform="translate(-375.555 -21.482)" fill="#414141"/>
      <path id="パス_84432" data-name="パス 84432" d="M683.955,51.742A81.1,81.1,0,0,0,679.538,37.1a49.759,49.759,0,0,0-4.508,2.935l-2.269-3.146c.847-.393,3.782-1.786,5.5-2.661a20.174,20.174,0,0,0-3.208-5.325l2.965-1.119a2.512,2.512,0,0,1,.908-.273.27.27,0,0,1,.3.236.246.246,0,0,1,0,.037c0,.091-.151.484-.151.544a10.044,10.044,0,0,0,.545,1.12c.756,1.513,1.18,2.329,1.6,3.388.665-.3,2.118-.938,4.265-1.694a17.794,17.794,0,0,0-3.3-3.631l2.965-1.422a36.462,36.462,0,0,1,3.328,4.236,15.86,15.86,0,0,1,3.362-.395,5.909,5.909,0,0,1,6.172,5.839c0,3.994-3.328,6.5-8.381,6.5a16.046,16.046,0,0,1-2.239-.182l-.635-3.146a16.7,16.7,0,0,0,2.9.272c4.719,0,5.2-2.632,5.2-3.57a3.232,3.232,0,0,0-3.419-3.146,7.9,7.9,0,0,0-1.452.151c.817,1.3,1.239,2.087,1.815,3.208l-3.267.968a25.931,25.931,0,0,0-1.543-3.328c-1.936.726-3.267,1.361-4.6,2a150.77,150.77,0,0,1,5.143,14.764Z" transform="translate(-427.506 -16.578)" fill="#414141"/>
      <path id="パス_84433" data-name="パス 84433" d="M749.886,79.281a12.857,12.857,0,0,1,5.96,4.265l-2.3,2.3A14.512,14.512,0,0,0,748.706,81Z" transform="translate(-475.765 -50.379)" fill="#414141"/>
      <path id="パス_84434" data-name="パス 84434" d="M808.588,38.785c0,3.032-1.01,3.609-5.341,4.15l-1.552-3.753c3.212.217,3.32-.361,3.32-1.408V31.822c-.469.18-2.815,1.083-3.032,1.263a7.626,7.626,0,0,0-.433.722.3.3,0,0,1-.253.146c-.289,0-.361-.289-.541-1.011l-.794-3.536a44.26,44.26,0,0,0,5.053-1.48V20.959h-4.583V17.674h4.583V12.08l3.392.18c.433.036.794.073.794.361,0,.146-.036.18-.433.469a.572.572,0,0,0-.18.433v4.15h3.573v3.285h-3.573v5.7c1.011-.361,2.31-.9,3.1-1.227v-3h7.759V19.154h-6.424v-3.32h6.424V11.972l3.427.217c.542.036.794.144.794.361a.425.425,0,0,1-.146.252c-.433.361-.47.4-.47.614v2.418H830.2v3.32h-7.145v3.284h8.553v3.393h-4.436v3.284h4.258v3.393h-4.258v6.278c0,3.5-.974,4.042-6.063,4.186l-1.588-3.895a21.373,21.373,0,0,0,2.815.18c1.083,0,1.083-.325,1.083-1.191V32.507H811.8V29.115h11.621V25.831H811.764v2.923c-.541.289-1.083.577-3.176,1.516Zm8.084-5.594a20.746,20.746,0,0,1,2.779,4.15l-2.923,1.949a28.473,28.473,0,0,0-2.851-4.367Z" transform="translate(-508.336 -7.608)" fill="#bfae0a"/>
      <path id="パス_84435" data-name="パス 84435" d="M922.116,13.1c.289.073,1.119.325,1.119.577a.518.518,0,0,1-.109.361c-.109.109-.614.4-.686.505-.109.146-.938,3.646-1.083,4.186a17.794,17.794,0,0,0,5.811-2.165l.146,4.006a30.568,30.568,0,0,1-7.036,2.021,111.968,111.968,0,0,1-7.4,19.308l-4.114-1.552c4.367-6.532,6.568-14.111,7.435-17.215-2.057.18-3.212.253-5.522.289l-.18-4.078a19.516,19.516,0,0,0,3.5.289,28.872,28.872,0,0,0,3.14-.182,29.572,29.572,0,0,0,1.155-7.291Zm13.823,28.259a32.338,32.338,0,0,1-5.847.4c-6.713,0-9.564-1.083-9.564-4.981a14.649,14.649,0,0,1,.4-3.32l3.718.9a3.006,3.006,0,0,0-.325,1.335c0,1.371.758,2.237,4.764,2.237a21.718,21.718,0,0,0,6.677-.866Zm-.361-13.57a31.6,31.6,0,0,0-5.847-.722,23.586,23.586,0,0,0-4.944.541V23.678c.938-.036,5.125-.18,5.955-.18a18.12,18.12,0,0,1,4.836.4Z" transform="translate(-577.473 -7.729)" fill="#bfae0a"/>
      <path id="パス_84436" data-name="パス 84436" d="M1017.636,11.9c.4.146,1.155.4,1.155.722,0,.109-.614.5-.794.614a19.542,19.542,0,0,0-1.48,3.646,17.96,17.96,0,0,0,4.656-1.3l-.253,4.078a37.154,37.154,0,0,1-5.7,1.011,110.234,110.234,0,0,1-7.506,15.194l-4.006-1.877a42.027,42.027,0,0,0,7.435-13.028c-1.48.073-3.427.144-4.908.18l-.182-3.826c.794.073,2.057.217,3.427.217,1.011,0,1.949-.073,2.959-.146a63.381,63.381,0,0,0,1.841-6.6Zm9.275,29.125a21.775,21.775,0,0,0-3.429-2.815c-.289,1.516-.974,4.259-5.991,4.259-4.006,0-7.218-2.021-7.218-5.269,0-2.815,2.527-5.089,6.1-5.089a12.785,12.785,0,0,1,3.356.433c-.036-.794-.146-4.258-.146-4.98a4.733,4.733,0,0,1,1.8-4.259l3.573,2.166c-1.7,1.407-1.7,1.985-1.7,3,0,.866.146,4.655.146,5.413a27.2,27.2,0,0,1,5.883,3.9Zm-10.791-5.594c-2.093,0-2.31,1.335-2.31,1.732,0,1.552,2.165,1.913,3.176,1.913,2.6,0,2.707-1.768,2.779-2.779a10.264,10.264,0,0,0-3.646-.866m13.245-10.069a21.8,21.8,0,0,0-7.9-4.367l1.949-2.851a20.823,20.823,0,0,1,8.12,4.114Z" transform="translate(-637.804 -6.851)" fill="#bfae0a"/>
      <path id="パス_84437" data-name="パス 84437" d="M1106.522,39.2c-2.851,6.027-4.873,7.831-7.036,7.831-3.573,0-6.28-5.774-6.28-12.992a32.769,32.769,0,0,1,.686-6.568c.146-.722.866-4.114,1.01-4.908l3.861,1.768c.361.182.974.469.974.794,0,.219-.252.4-.721.758-.289.217-1.8,4.33-1.8,8.95,0,4.873,1.516,7.255,2.671,7.255,1.263,0,2.779-3.356,3.646-5.45Zm10.9,2.093a26.456,26.456,0,0,0-4.728-14.977l3.862-1.624c3.463,4.872,4.872,11.188,5.305,16.024Z" transform="translate(-694.678 -14.339)" fill="#bfae0a"/>
      <path id="パス_84438" data-name="パス 84438" d="M1194.614,39.584c0,2.382-4.475,2.67-6.063,2.779l-1.66-3.718c1.624.073,4.114.146,4.114-1.371V30.055c-.578.252-3.646,1.552-3.755,1.732-.289.469-.325.505-.505.505-.289,0-.324-.253-.361-.758l-.325-3.755c3-.83,4.114-1.191,4.944-1.48V20.165h-4.87V16.556H1191V11.181l3.176.109c.83.036,1.335.109,1.335.433,0,.18-.073.219-.577.577a.813.813,0,0,0-.325.541v3.718h3.536V20.17h-3.536v4.908c1.3-.505,1.768-.722,2.418-.974v3.284c-.361.18-2.093.938-2.418,1.083Zm7.47-9.817a26.268,26.268,0,0,0,3.536,3.934,23.688,23.688,0,0,0,3.39-4.006h-10.718V26.3h14.473l1.48,1.66a27.841,27.841,0,0,1-5.774,7.976c2.057,1.408,3.463,2.129,7.976,3.39l-2.238,3.429a26.8,26.8,0,0,1-8.7-4.475,51.217,51.217,0,0,1-7.651,4.476l-2.851-3.429a29.554,29.554,0,0,0,7.8-3.463c-.614-.685-3.068-3.39-3.573-3.97Zm14.436-9.889c-.289,3.427-.578,5.052-2.887,5.052h-3.248c-2.021,0-2.527-.685-2.527-2.346V15.8h-4.439c.073,5.088-.541,6.857-3.573,10l-2.923-2.238c3.032-2.6,3.032-5.774,3.032-7.687,0-.217,0-1.3-.109-3.393h11.693v7.435c0,.577,0,1.516.758,1.516.794,0,1.047-1.011,1.3-2.743Z" transform="translate(-753.681 -7.105)" fill="#bfae0a"/>
      <path id="パス_84439" data-name="パス 84439" d="M1292.17,22.042c-1.516.541-4.439,1.624-6.713,2.165-.361.073-.433.289-.578.686a.422.422,0,0,1-.4.289c-.361,0-.65-.686-.83-1.263l-.866-2.635a27.838,27.838,0,0,0,8.265-2.382Zm-7.109-9.022a26.457,26.457,0,0,1,5.522,1.768l-1.444,3.1a31.066,31.066,0,0,0-5.341-1.876Zm26.671,13.606c-1.119-.361-1.3-.433-1.949-.686V37.092h-6.317a36.072,36.072,0,0,0,9.528,3.068l-2.346,3.1a40.584,40.584,0,0,1-10.394-4.079l2.454-2.093h-7.615l1.479,1.552c.253.289.361.4.361.614,0,.18-.144.253-.324.253-.146,0-.4-.073-.542-.073a4.4,4.4,0,0,0-.722.361,38.192,38.192,0,0,1-9.275,3.248l-1.985-3.248c1.732-.253,6.208-1.011,8.77-2.707h-5.45V24.243h6.857l-1.8-1.876c4.006-1.263,5.955-3.536,6.785-5.342l3.536.361c.505.036.758.109.758.4s-.253.361-.939.505a21.154,21.154,0,0,0,11.188,5.233Zm-15.807-9.708a17.2,17.2,0,0,1-2.707,3L1290.4,18a16.177,16.177,0,0,0,4.367-6.027l3.068.577c.686.146.974.18.974.4,0,.144-.542.4-.794.5-.146.182-.361.505-.541.758h14.254l1.841,1.588c-1.732,2.058-1.841,2.165-4.439,4.944L1306.1,18.9a18.6,18.6,0,0,0,1.876-1.985Zm10.249,9.708h-15.2v1.335h15.194Zm0,3.32h-15.2v1.3h15.194Zm-15.2,4.727h15.194V33.23h-15.194Zm15.014-10.43a19.806,19.806,0,0,1-5.088-3.682,16.619,16.619,0,0,1-4.475,3.682Z" transform="translate(-815.146 -7.608)" fill="#bfae0a"/>
      <path id="パス_84440" data-name="パス 84440" d="M1389.147,81.289a3.666,3.666,0,1,1,0-.031v.031m-6.28,0a2.6,2.6,0,1,0,0-.008v.008" transform="translate(-878.054 -49.315)" fill="#bfae0a"/>
      <rect id="長方形_9671" data-name="長方形 9671" width="24.088" height="1.458" transform="translate(4.176)" fill="#bfae0a"/>
      <rect id="長方形_9672" data-name="長方形 9672" width="24.088" height="1.458" transform="translate(4.176 2.355)" fill="#bfae0a"/>
      <rect id="長方形_9673" data-name="長方形 9673" width="24.088" height="1.458" transform="translate(4.176 4.71)" fill="#bfae0a"/>
      <rect id="長方形_9674" data-name="長方形 9674" width="19.984" height="1.458" transform="translate(47.854)" fill="#bfae0a"/>
      <rect id="長方形_9675" data-name="長方形 9675" width="19.984" height="1.458" transform="translate(47.854 2.355)" fill="#bfae0a"/>
      <rect id="長方形_9676" data-name="長方形 9676" width="19.984" height="1.458" transform="translate(47.854 4.71)" fill="#bfae0a"/>
      <rect id="長方形_9677" data-name="長方形 9677" width="31.153" height="1.458" transform="translate(0 11.776)" fill="#bfae0a"/>
      <rect id="長方形_9678" data-name="長方形 9678" width="31.153" height="1.458" transform="translate(0 14.131)" fill="#bfae0a"/>
      <rect id="長方形_9679" data-name="長方形 9679" width="31.153" height="1.458" transform="translate(0 16.487)" fill="#bfae0a"/>
      <rect id="長方形_9680" data-name="長方形 9680" width="31.153" height="1.458" transform="translate(42.68 9.35)" fill="#bfae0a"/>
      <rect id="長方形_9681" data-name="長方形 9681" width="31.153" height="1.458" transform="translate(42.68 11.705)" fill="#bfae0a"/>
      <rect id="長方形_9682" data-name="長方形 9682" width="31.153" height="1.458" transform="translate(42.68 14.06)" fill="#bfae0a"/>
      <path id="パス_84441" data-name="パス 84441" d="M45.569,33.177a91.219,91.219,0,0,1-9.591-.384A5.4,5.4,0,0,1,32.065,27.9V1.315h1.458V27.9a3.976,3.976,0,0,0,2.724,3.458,101.205,101.205,0,0,0,13.867.208l.188,1.446a46.567,46.567,0,0,1-4.734.164" transform="translate(-20.376 -0.836)" fill="#bfae0a"/>
      <path id="パス_84442" data-name="パス 84442" d="M51.819,30.753c-2.01,0-4.682-.15-6.8-.27-1.34-.075-2.5-.14-3.028-.14-2.686,0-4.048-1.362-4.048-4.048V1.315H39.4v24.98c0,1.6.433,2.59,2.589,2.59.571,0,1.692.063,3.11.143a70.415,70.415,0,0,0,8.643.184l.188,1.446a17.677,17.677,0,0,1-2.11.1" transform="translate(-24.108 -0.836)" fill="#bfae0a"/>
      <path id="パス_84443" data-name="パス 84443" d="M54.316,28.344c-1.395,0-2.879-.049-4.118-.09-.846-.028-1.577-.052-2.044-.052-3.649,0-4.048-1.022-4.048-3.191V1.314h1.458v23.7c0,1.536,0,1.733,2.59,1.733.491,0,1.233.025,2.092.053a55.1,55.1,0,0,0,7.092-.047l.189,1.446a26.8,26.8,0,0,1-3.211.149" transform="translate(-28.027 -0.835)" fill="#bfae0a"/>
      <path id="パス_84444" data-name="パス 84444" d="M135.807,51.956l-.435-1.391c2.153-.673,7.016-3.125,9.042-6s1.827-8.594,1.662-13.179c-.042-1.167-.082-2.269-.082-3.246h1.458c0,.95.039,2.039.081,3.193.173,4.8.388,10.781-1.927,14.071-2.359,3.351-7.718,5.906-9.8,6.557" transform="translate(-86.022 -17.879)" fill="#bfae0a"/>
      <path id="パス_84445" data-name="パス 84445" d="M133.066,49.887l-.435-1.392c1.207-.377,5.328-1.868,7.686-5.219,1.956-2.78,1.84-6.1,1.68-10.693-.049-1.4-.1-2.848-.1-4.447h1.458c0,1.573.05,3.008.1,4.4.164,4.694.294,8.4-1.945,11.583-2.623,3.727-7.126,5.36-8.444,5.772" transform="translate(-84.28 -17.879)" fill="#bfae0a"/>
      <path id="パス_84446" data-name="パス 84446" d="M131.7,47.532l-.435-1.392a13.181,13.181,0,0,0,6.35-4.033c1.191-1.538,1.124-5.157,1.04-9.74-.025-1.344-.05-2.733-.05-4.231h1.458c0,1.484.026,2.867.05,4.2.093,5.06.16,8.715-1.344,10.659a14.632,14.632,0,0,1-7.068,4.532" transform="translate(-83.41 -17.88)" fill="#bfae0a"/>
    </g>
  </g>
</svg>
