<?xml version="1.0" encoding="UTF-8"?><svg id="_レイヤー_1" xmlns="http://www.w3.org/2000/svg" xmlns:xlink="http://www.w3.org/1999/xlink" viewBox="0 0 264 328"><defs><style>.cls-1{fill:none;}.cls-2{fill:#211613;}.cls-3{fill:#e8dd58;}.cls-4{fill:#fff;}.cls-5{clip-path:url(#clippath);}</style><clipPath id="clippath"><rect class="cls-1" width="258.61" height="173.33"/></clipPath></defs><g id="_グループ_17798"><g class="cls-5"><g id="_グループ_17797"><path id="_パス_64317" class="cls-4" d="M238.27,126.51c-1.62,3.65,1.03,8.37,5.92,10.55s10.18.99,11.8-2.65-1.03-8.37-5.92-10.55-10.18-1-11.8,2.65"/><path id="_パス_64318" class="cls-2" d="M243.81,137.9c-2.44-1.04-4.48-2.83-5.83-5.12-2.11-3.19-1.24-7.49,1.95-9.6.85-.56,1.81-.93,2.81-1.08,2.6-.52,5.3-.2,7.7.92,5.35,2.38,8.22,7.66,6.39,11.76-1.02,2.12-3,3.62-5.31,4.03-.8.18-1.62.26-2.44.26-1.82-.02-3.61-.42-5.26-1.17M243.14,123.9c-2.8.34-4.78,2.89-4.44,5.68.1.83.4,1.62.88,2.3,2.43,3.91,7,5.94,11.53,5.14,1.75-.29,3.25-1.4,4.04-2.99,1.42-3.18-1.03-7.36-5.45-9.33-1.42-.65-2.96-.99-4.52-1.01-.68,0-1.36.07-2.03.21"/><path id="_パス_64319" class="cls-3" d="M239.5,124.03c-1.62,3.65,1.03,8.37,5.92,10.55s10.18.99,11.8-2.65-1.03-8.37-5.92-10.55-10.18-1-11.8,2.65"/><path id="_パス_64320" class="cls-2" d="M245.04,135.42c-5.35-2.38-8.21-7.66-6.39-11.76,1.02-2.12,3-3.62,5.32-4.03,2.6-.52,5.3-.2,7.7.92,5.35,2.38,8.22,7.66,6.39,11.76-1.02,2.12-3,3.63-5.32,4.03-.8.18-1.62.26-2.44.26-1.82-.02-3.61-.42-5.26-1.17M244.37,121.42c-1.75.29-3.25,1.4-4.04,2.99-1.42,3.18,1.03,7.36,5.45,9.33,2.04.96,4.34,1.24,6.55.8,1.75-.29,3.25-1.4,4.04-2.99,1.42-3.18-1.03-7.36-5.45-9.33-1.42-.65-2.96-.99-4.52-1.01-.68,0-1.36.07-2.03.21"/><path id="_パス_64321" class="cls-4" d="M3.17,16.49c2.13,3.38,7.53,3.8,12.06.94s6.48-7.91,4.36-11.28-7.53-3.8-12.06-.94c-4.53,2.86-6.49,7.91-4.36,11.28"/><path id="_パス_64322" class="cls-2" d="M2.39,16.99C0,13.19,2.08,7.55,7.04,4.43s10.94-2.57,13.33,1.23c1.2,2.03,1.35,4.51.4,6.66-1.01,2.45-2.78,4.52-5.05,5.9-2.01,1.3-4.35,2-6.75,2.02-2.61.12-5.1-1.11-6.59-3.25M8.02,5.99c-4.1,2.58-5.92,7.08-4.07,10.02s6.69,3.23,10.79.65c1.93-1.17,3.44-2.92,4.31-5,.73-1.61.64-3.48-.24-5.01-1.14-1.62-3.04-2.53-5.01-2.41-2.05.03-4.06.64-5.78,1.76"/><path id="_パス_64323" class="cls-3" d="M1.79,14.09c2.13,3.38,7.53,3.8,12.06.94s6.48-7.91,4.35-11.29S10.68-.05,6.14,2.8C1.61,5.66-.34,10.71,1.79,14.09"/><path id="_パス_64324" class="cls-2" d="M6.84,17.82c-2.35-.08-4.53-1.28-5.84-3.24C-.19,12.55-.34,10.07.61,7.92,1.62,5.47,3.38,3.4,5.65,2.03c4.96-3.13,10.94-2.57,13.33,1.23,2.39,3.8.31,9.43-4.65,12.56-2.01,1.3-4.35,2.01-6.75,2.04-.25,0-.5-.01-.74-.03M6.64,3.58c-1.93,1.17-3.44,2.92-4.31,5-.73,1.61-.64,3.48.24,5.02,1.01,1.46,2.65,2.34,4.42,2.38,2.25.12,4.48-.49,6.37-1.73,4.1-2.58,5.92-7.07,4.07-10.02-1.14-1.61-3.04-2.53-5.01-2.41-2.05.03-4.06.64-5.78,1.76M1.78,14.09h0Z"/><path id="_パス_64325" class="cls-4" d="M218.2,55.83c.52,3.96,5.25,6.59,10.56,5.89s9.2-4.48,8.67-8.43-5.25-6.59-10.56-5.89-9.2,4.48-8.67,8.43"/><path id="_パス_64326" class="cls-2" d="M217.29,55.95c-.59-4.45,3.66-8.7,9.47-9.47s11.01,2.23,11.6,6.69c.24,2.34-.66,4.66-2.42,6.22-1.94,1.81-4.41,2.94-7.05,3.25-2.37.34-4.79,0-6.98-.98-2.42-.98-4.17-3.13-4.62-5.71M227,48.31c-4.8.63-8.34,3.95-7.88,7.4.46,3.45,4.73,5.73,9.53,5.1,2.24-.25,4.34-1.21,6-2.74,1.34-1.16,2.03-2.89,1.88-4.66-.36-1.94-1.7-3.56-3.55-4.28-1.88-.83-3.95-1.11-5.98-.81"/><path id="_パス_64327" class="cls-3" d="M217.95,53.06c.52,3.96,5.25,6.59,10.56,5.89s9.2-4.48,8.67-8.43-5.25-6.59-10.56-5.89-9.2,4.48-8.67,8.43"/><path id="_パス_64328" class="cls-2" d="M220.99,58.56c-3.47-1.61-4.98-5.73-3.37-9.2.43-.93,1.06-1.75,1.84-2.4,1.94-1.81,4.41-2.94,7.05-3.25,5.81-.77,11.01,2.23,11.6,6.69s-3.66,8.7-9.47,9.47c-2.37.34-4.8,0-6.99-.97-.23-.11-.45-.22-.66-.34M226.74,45.54c-2.24.25-4.34,1.21-6,2.74-2.2,1.76-2.56,4.96-.81,7.17.52.65,1.19,1.16,1.95,1.5,2,1.05,4.28,1.43,6.51,1.09,4.8-.63,8.34-3.95,7.88-7.4-.37-1.94-1.71-3.56-3.55-4.28-1.88-.83-3.95-1.11-5.98-.81M217.95,53.07h0Z"/><path id="_パス_64329" class="cls-3" d="M15.04,154.99l-4.82,17.25s15.09-6.39,24.4-2.93c8.15,3.02,16.7.45,16.7.45l4.04-16.65s-7.13,2.38-16.28-1.01c-11.85-4.39-24.03,2.89-24.03,2.89"/><path id="_パス_64330" class="cls-2" d="M52.1,170.51c-.13.14-.29.24-.48.3-.36.11-8.99,2.64-17.38-.48-8.79-3.26-23.45,2.85-23.6,2.92-.55.23-1.18-.03-1.42-.58-.1-.23-.11-.48-.05-.71l4.82-17.25c.07-.27.25-.5.49-.64.51-.31,12.77-7.49,24.96-2.97,4.96,1.94,10.4,2.29,15.56,1,.57-.19,1.18.12,1.37.69.06.19.07.4.02.59l-4.04,16.65c-.04.18-.13.35-.26.49M11.84,170.48c2.24-.8,4.52-1.48,6.84-2.04,6.76-1.6,12.25-1.64,16.31-.13,6.51,2.42,13.4,1.07,15.42.59l3.47-14.3c-5.1.89-10.35.38-15.19-1.46-10.1-3.74-20.66,1.48-22.74,2.6l-4.12,14.75Z"/><path id="_パス_64331" class="cls-4" d="M37.12,161.36c-1.06,2.9-3.97,4.5-6.49,3.58s-3.7-4.02-2.64-6.92,3.97-4.5,6.49-3.58,3.7,4.02,2.64,6.92"/><path id="_パス_64332" class="cls-2" d="M36.59,164.24c-.48.51-1.04.95-1.65,1.29-1.42.82-3.14.98-4.68.43-3.08-1.13-4.55-4.85-3.28-8.31.57-1.61,1.7-2.96,3.19-3.8,2.62-1.54,5.99-.67,7.53,1.94.18.31.34.64.45.98.59,1.6.59,3.36-.02,4.96-.34.93-.86,1.79-1.54,2.51M30.08,156.62c-.48.51-.84,1.12-1.08,1.77-.85,2.34.04,4.82,2,5.54.96.33,2.02.23,2.9-.29,2.1-1.24,3.03-3.79,2.23-6.1-.58-1.75-2.47-2.7-4.23-2.12-.24.08-.48.19-.7.32-.42.23-.8.53-1.12.88"/></g></g></g><rect class="cls-1" width="264" height="328"/></svg>