<svg xmlns="http://www.w3.org/2000/svg" xmlns:xlink="http://www.w3.org/1999/xlink" width="248.582" height="161.937" viewBox="0 0 248.582 161.937">
  <defs>
    <clipPath id="clip-path">
      <rect id="長方形_10037" data-name="長方形 10037" width="230.592" height="123.776" fill="none"/>
    </clipPath>
  </defs>
  <g id="グループ_21354" data-name="グループ 21354" transform="matrix(0.985, 0.174, -0.174, 0.985, 21.493, 0)">
    <g id="グループ_21353" data-name="グループ 21353" clip-path="url(#clip-path)">
      <path id="パス_88511" data-name="パス 88511" d="M95.507,120.946s19.907-15.637-21.713-18.291c-16.308-1.036-35.913.2-51.432-7.288C7.81,88.344-2.078,70.98.373,54.927c2.881-18.874,22.161-33,38.652-39.907,47.725-20,108.808-21.549,155.222,4.64,9.846,5.556,21.264,14.08,27.567,24.8,7.979,13.546,8.515,30.333-1.947,42.531-12.119,14.128-28.725,15.079-46.131,15.109a182,182,0,0,0-53.148,7.642c-10.956,3.273-25.081,11.21-25.081,11.21" transform="translate(1.412 1.415)" fill="#fff"/>
      <path id="パス_88512" data-name="パス 88512" d="M96.919,123.776a1.415,1.415,0,0,1-.876-2.526c1.452-1.147,5.01-4.8,4.053-7.86-.751-2.406-4.995-6.633-24.981-7.907-3.434-.218-6.962-.333-10.7-.455-13.481-.439-28.76-.936-41.26-6.971A41.623,41.623,0,0,1,5.164,80.631a39.057,39.057,0,0,1-4.778-24.5c1.369-8.969,6.3-17.468,14.656-25.261A85.835,85.835,0,0,1,39.89,15.13,197.8,197.8,0,0,1,118.559.02c28.636.409,55.536,7.263,77.794,19.822,7.381,4.165,20.845,12.991,28.091,25.312a42.536,42.536,0,0,1,6.137,22.521,34.1,34.1,0,0,1-8.229,21.647,41.14,41.14,0,0,1-21.806,13.291c-8.231,2.107-17.059,2.3-25.4,2.312a180.257,180.257,0,0,0-52.745,7.583c-10.676,3.188-24.653,11.009-24.793,11.087a1.408,1.408,0,0,1-.692.182M115.778,2.829a194.932,194.932,0,0,0-74.795,14.91,82.94,82.94,0,0,0-24.012,15.2c-7.879,7.349-12.518,15.3-13.789,23.62A36.218,36.218,0,0,0,7.642,79.265,38.778,38.778,0,0,0,24.388,95.509c11.961,5.775,26.277,6.24,40.122,6.691,3.758.122,7.307.238,10.785.459,16.772,1.07,25.769,4.307,27.505,9.9a7.4,7.4,0,0,1-.527,5.372,127.935,127.935,0,0,1,19.321-8.132,183.006,183.006,0,0,1,53.55-7.7c17.821-.031,33.512-1.152,45.06-14.615a31.3,31.3,0,0,0,7.549-19.872,39.718,39.718,0,0,0-5.747-21.019c-6.911-11.75-19.91-20.257-27.043-24.283C173.116,9.979,146.683,3.251,118.519,2.849q-1.37-.02-2.741-.019" transform="translate(0 0)" fill="#231815"/>
      <path id="パス_88513" data-name="パス 88513" d="M21.232,21.683l-1.46,1.593a66.646,66.646,0,0,0-7.484-3.185l1.221-1.035H7.219L8.546,20.17a31.865,31.865,0,0,1-7.272,3.4L0,21.922a25,25,0,0,0,7.086-2.866H2.521V9.714H18.79v9.342H13.934a66.022,66.022,0,0,1,7.3,2.627M.558,0H10.7V1.3H6.608V2.548h3.662v3.4H6.608v1.3H10.7v1.3H.558ZM4.99,1.3H2.229V2.548H4.99ZM8.652,3.662H2.229V4.857H8.652ZM2.229,7.245H4.99v-1.3H2.229Zm14.756,3.822H4.326v1.354h12.66Zm0,2.627H4.326v1.327h12.66ZM4.326,17.649h12.66V16.3H4.326ZM14.969,5.892A15.2,15.2,0,0,1,12.129,1.7h-.955V.212H19.56l.929.823a17.267,17.267,0,0,1-3.105,4.751,17.585,17.585,0,0,0,4.591,1.99l-.982,1.592a21.036,21.036,0,0,1-4.8-2.468,15.684,15.684,0,0,1-4.167,2.362l-1.168-1.38a15.52,15.52,0,0,0,4.114-1.99M16.163,4.83A11.1,11.1,0,0,0,18.233,1.7H13.774A9.289,9.289,0,0,0,16.163,4.83" transform="translate(22.126 46.028)" fill="#beb143"/>
      <path id="パス_88514" data-name="パス 88514" d="M1.447,23.914a.173.173,0,0,1-.137-.067L.036,22.2a.173.173,0,0,1,.093-.274A26.555,26.555,0,0,0,6.65,19.4H2.694a.173.173,0,0,1-.173-.173V9.887a.173.173,0,0,1,.173-.173H18.963a.173.173,0,0,1,.173.173v9.342a.173.173,0,0,1-.173.173H15.291c2.325.726,4.491,1.592,6.18,2.294a.173.173,0,0,1,.061.277l-1.46,1.592a.172.172,0,0,1-.2.039A66.36,66.36,0,0,0,12.4,20.427a.173.173,0,0,1-.055-.3l.861-.73H7.867l.963.809a.173.173,0,0,1-.018.278A31.98,31.98,0,0,1,1.5,23.9a.178.178,0,0,1-.054.009M.47,22.2l1.039,1.342a31.688,31.688,0,0,0,6.918-3.214l-1.106-.929A25.163,25.163,0,0,1,.47,22.2m12.333-2a67.292,67.292,0,0,1,7.1,3.036l1.205-1.315A65.626,65.626,0,0,0,14.059,19.4a.173.173,0,0,1,.047-.339H18.79v-9H2.867v9H7.259a.174.174,0,0,1,.066.013.174.174,0,0,1,.066-.013h6.29a.173.173,0,0,1,.112.3Zm4.355-2.205H4.5a.173.173,0,0,1-.173-.173V16.469A.173.173,0,0,1,4.5,16.3h12.66a.173.173,0,0,1,.173.173v1.353a.173.173,0,0,1-.173.173M4.672,17.649H16.985V16.641H4.672Zm12.487-2.282H4.5a.173.173,0,0,1-.173-.173V13.867a.173.173,0,0,1,.173-.173h12.66a.173.173,0,0,1,.173.173v1.327a.173.173,0,0,1-.173.173M4.672,15.022H16.985v-.981H4.672Zm12.487-2.255H4.5a.173.173,0,0,1-.173-.173V11.24a.173.173,0,0,1,.173-.173h12.66a.173.173,0,0,1,.173.173v1.354a.173.173,0,0,1-.173.173M4.672,12.421H16.985V11.413H4.672ZM21.166,9.715A.173.173,0,0,1,21.1,9.7,21.283,21.283,0,0,1,16.368,7.29,16.03,16.03,0,0,1,12.258,9.6a.173.173,0,0,1-.194-.05L11.042,8.34v.379a.173.173,0,0,1-.173.173H.73a.173.173,0,0,1-.173-.173V.173A.173.173,0,0,1,.73,0H10.868a.173.173,0,0,1,.173.173v1.3a.173.173,0,0,1-.173.173H6.954v.9h3.49a.173.173,0,0,1,.173.173v3.4a.173.173,0,0,1-.173.173H6.954v.955h3.914a.173.173,0,0,1,.173.173V7.87a15.425,15.425,0,0,0,3.831-1.832,15.543,15.543,0,0,1-2.682-3.993h-.844a.173.173,0,0,1-.173-.173V.386a.173.173,0,0,1,.173-.173h8.387a.174.174,0,0,1,.115.043l.929.823a.174.174,0,0,1,.042.2,17.943,17.943,0,0,1-2.99,4.644A18.019,18.019,0,0,0,22.2,7.784a.173.173,0,0,1,.1.256l-.982,1.592a.173.173,0,0,1-.147.082M16.362,6.9a.171.171,0,0,1,.1.033,20.421,20.421,0,0,0,4.631,2.4l.788-1.279A17.543,17.543,0,0,1,17.462,6.1a.173.173,0,0,1-.029-.266,17.023,17.023,0,0,0,3.016-4.586L19.667.558H11.519V1.7H12.3a.173.173,0,0,1,.158.1,15,15,0,0,0,2.8,4.142.173.173,0,0,1-.025.265,15.837,15.837,0,0,1-3.911,1.933l.92,1.088a15.568,15.568,0,0,0,4.006-2.29.173.173,0,0,1,.109-.038M.9,8.546H10.7V7.591H6.782a.173.173,0,0,1-.173-.173v-1.3a.173.173,0,0,1,.173-.173h3.489V2.894H6.782a.173.173,0,0,1-.173-.173V1.474A.173.173,0,0,1,6.782,1.3H10.7V.346H.9Zm4.259-.955H2.4a.173.173,0,0,1-.173-.173v-1.3A.173.173,0,0,1,2.4,5.945h2.76a.173.173,0,0,1,.173.173v1.3a.173.173,0,0,1-.173.173M2.575,7.245H4.989V6.291H2.575ZM8.825,5.2H2.4a.173.173,0,0,1-.173-.173V3.836A.173.173,0,0,1,2.4,3.662H8.825A.173.173,0,0,1,9,3.836V5.03a.173.173,0,0,1-.173.173m-6.25-.346H8.652V4.009H2.575Zm13.76.32a.172.172,0,0,1-.109-.039,9.48,9.48,0,0,1-2.435-3.19.173.173,0,0,1,.156-.249h4.459a.173.173,0,0,1,.158.243,11.31,11.31,0,0,1-2.1,3.182.173.173,0,0,1-.124.053M14.228,2.044a9.1,9.1,0,0,0,2.094,2.722,11,11,0,0,0,1.815-2.722Zm-9.066.849H2.4a.173.173,0,0,1-.173-.173V1.474A.173.173,0,0,1,2.4,1.3h2.76a.173.173,0,0,1,.173.173V2.721a.173.173,0,0,1-.173.173M2.575,2.548H4.989v-.9H2.575Z" transform="translate(21.953 45.855)" fill="#beb143"/>
      <path id="パス_88515" data-name="パス 88515" d="M.73,13.641A3.268,3.268,0,0,1,.57,9.74c1.486-1.99,4.3-6,6.874-9.74l1.7,1.141c-2.521,3.716-5.414,7.7-6.98,9.74a1.322,1.322,0,0,0,.053,1.486c1.831,2.044,5.069,5.972,7.245,9.05L7.736,22.532c-2.15-3.026-5.308-6.9-7.006-8.891" transform="translate(51.414 46.161)" fill="#beb143"/>
      <path id="パス_88516" data-name="パス 88516" d="M7.911,22.878a.173.173,0,0,1-.141-.073c-2.281-3.21-5.574-7.211-7-8.879A3.433,3.433,0,0,1,.606,9.81C2.226,7.64,5.218,3.359,7.476.075A.174.174,0,0,1,7.716.029l1.7,1.141a.173.173,0,0,1,.047.241C7,5.032,4.086,9.056,2.475,11.16a1.157,1.157,0,0,0,.05,1.273c1.944,2.169,5.15,6.085,7.252,9.058a.175.175,0,0,1,.029.133.173.173,0,0,1-.076.113L8,22.851a.173.173,0,0,1-.094.028M1.036,13.7c1.406,1.648,4.636,5.572,6.92,8.768l1.434-.927C7.3,18.6,4.173,14.789,2.262,12.656a1.5,1.5,0,0,1-.064-1.7c1.59-2.075,4.446-6.014,6.879-9.591L7.665.412C5.416,3.679,2.484,7.874.884,10.017A3.075,3.075,0,0,0,1.036,13.7Z" transform="translate(51.239 45.988)" fill="#beb143"/>
      <path id="パス_88517" data-name="パス 88517" d="M1.141,18.79,0,16.8A29.569,29.569,0,0,0,4.06,7.3H.531V5.573H4.353V0H6.131V5.573h3.5V7.3h-3.5V9.846a31.881,31.881,0,0,1,3.875,3.928L8.917,15.738a35.689,35.689,0,0,0-2.787-3.716v11.81H4.353V11.067A33.715,33.715,0,0,1,1.141,18.79M12.314,21.5v1.858H10.563V1.725H21.63v21.63H19.852V21.5Zm0-13.827h7.537v-4.3H12.314Zm0,5.918h7.537V9.262H12.314Zm0,6.29h7.537v-4.7H12.314Z" transform="translate(70.643 45.418)"/>
      <path id="パス_88518" data-name="パス 88518" d="M6.3,24.179H4.526a.173.173,0,0,1-.173-.173V12.4a32.018,32.018,0,0,1-2.89,6.653.173.173,0,0,1-.3,0L.023,17.059a.173.173,0,0,1,.006-.182A29.332,29.332,0,0,0,4.013,7.644H.7a.173.173,0,0,1-.173-.173V5.746A.173.173,0,0,1,.7,5.573H4.353V.173A.173.173,0,0,1,4.526,0H6.3a.173.173,0,0,1,.173.173v5.4h3.33a.173.173,0,0,1,.173.173V7.471a.173.173,0,0,1-.173.173H6.477v2.3a31.532,31.532,0,0,1,3.836,3.9.173.173,0,0,1,.017.193L9.242,15.995a.173.173,0,0,1-.145.089.169.169,0,0,1-.151-.078,36.361,36.361,0,0,0-2.469-3.34v11.34a.173.173,0,0,1-.173.173M4.7,23.833H6.131V12.2a.173.173,0,0,1,.3-.113,35.534,35.534,0,0,1,2.642,3.5l.893-1.613A31.562,31.562,0,0,0,6.19,10.15a.173.173,0,0,1-.059-.131V7.471A.173.173,0,0,1,6.3,7.3h3.33V5.919H6.3a.173.173,0,0,1-.173-.173V.346H4.7v5.4a.173.173,0,0,1-.173.173H.877V7.3H4.234a.173.173,0,0,1,.168.214A29.837,29.837,0,0,1,.376,16.979l.939,1.639A33.8,33.8,0,0,0,4.36,11.191a.173.173,0,0,1,.339.049ZM21.8,23.7H20.025a.173.173,0,0,1-.173-.173V21.843H12.66v1.685a.173.173,0,0,1-.173.173H10.736a.173.173,0,0,1-.173-.173V1.9a.173.173,0,0,1,.173-.173H21.8a.173.173,0,0,1,.173.173v21.63a.173.173,0,0,1-.173.173m-1.6-.346H21.63V2.071H10.909V23.355h1.406V21.67a.173.173,0,0,1,.173-.173h7.537a.173.173,0,0,1,.173.173Zm-.173-3.131H12.488a.173.173,0,0,1-.173-.173v-4.7a.173.173,0,0,1,.173-.173h7.537a.173.173,0,0,1,.173.173v4.7a.173.173,0,0,1-.173.173m-7.364-.346h7.191V15.527H12.66Zm7.364-5.944H12.488a.173.173,0,0,1-.173-.173V9.435a.173.173,0,0,1,.173-.173h7.537a.173.173,0,0,1,.173.173v4.326a.173.173,0,0,1-.173.173m-7.364-.346h7.191V9.608H12.66Zm7.364-5.573H12.488a.173.173,0,0,1-.173-.173v-4.3a.173.173,0,0,1,.173-.173h7.537a.173.173,0,0,1,.173.173v4.3a.173.173,0,0,1-.173.173M12.66,7.67h7.191V3.717H12.66Z" transform="translate(70.47 45.245)"/>
      <path id="パス_88519" data-name="パス 88519" d="M.345,5.016,1.486,3.769c.371.372.663.716.982,1.088A27.611,27.611,0,0,0,4.883,0l1.7.929a43.18,43.18,0,0,1-3.158,5.2c.4.61.823,1.168,1.221,1.778.929-1.513,1.778-3.052,2.6-4.671L8.811,4.246a56.582,56.582,0,0,1-4.777,7.219c1.088-.027,2.2-.133,3.291-.213a15.506,15.506,0,0,0-.956-2.176L7.8,8.44A32.482,32.482,0,0,1,9.82,13.4l-1.566.823-.106-.318c-.159-.451-.239-.876-.372-1.327l-1.937.292h.053v11.12H4.167V13.084c-1.194.133-2.442.212-3.636.318L0,11.625l2.229-.08c.4-.558.8-1.141,1.168-1.725l.319-.478A37.823,37.823,0,0,0,.345,5.016m1.088,9.82,1.672.212a37.037,37.037,0,0,1-1.168,7.166l-1.672-.9H.239a27.9,27.9,0,0,0,1.194-6.476m5.122.027,1.46-.478a32.2,32.2,0,0,1,1.592,5.679l-1.7.743H7.856a41.7,41.7,0,0,0-1.3-5.945m6.184,4.565c.584-1.38.664-4.352.664-5.866h1.725a22.736,22.736,0,0,1-.849,6.661,9.746,9.746,0,0,1-3.955,4.008L9.209,22.691a6.732,6.732,0,0,0,3.53-3.264m9.607-16.11V4.91h-5.6V7.325h5.1V8.891h-11.6V7.325h4.777V4.91H9.607V3.318h5.414V.106h1.725V3.318Zm-10.775,9.1v3.424h-1.7V10.828H22.24v4.83H20.515V12.421Zm7.882,9.448a1.2,1.2,0,0,0,1.247-.69,16.733,16.733,0,0,0,.265-2.734c0-.159.027-.292.027-.425l1.672.5c-.053.876-.186,3.875-.849,4.538a4.061,4.061,0,0,1-2.495.584c-1.274,0-2.6,0-2.6-1.619V13.562h1.725v7.643c0,.611.531.664,1.009.664" transform="translate(96.732 45.259)"/>
      <path id="パス_88520" data-name="パス 88520" d="M10.5,24.577a.173.173,0,0,1-.14-.071L9.242,22.966a.173.173,0,0,1,.067-.258,6.468,6.468,0,0,0,3.444-3.176c.586-1.387.649-4.516.649-5.8a.173.173,0,0,1,.173-.173H15.3a.173.173,0,0,1,.173.173,23.109,23.109,0,0,1-.861,6.725,9.892,9.892,0,0,1-4.034,4.1.173.173,0,0,1-.081.02m-.852-1.645.9,1.248A9.536,9.536,0,0,0,14.3,20.318a22.386,22.386,0,0,0,.83-6.41H13.748a18.979,18.979,0,0,1-.677,5.76v0a6.683,6.683,0,0,1-3.426,3.261M12.912,19.6h0ZM6.065,24.338H4.34a.173.173,0,0,1-.173-.173V13.45c-.721.076-1.465.136-2.186.194-.424.034-.846.068-1.261.1a.174.174,0,0,1-.181-.123L.007,11.847a.174.174,0,0,1,.025-.15.172.172,0,0,1,.134-.072l2.144-.077c.405-.57.78-1.124,1.113-1.648l.256-.383A37.165,37.165,0,0,0,.391,5.306a.173.173,0,0,1,0-.234L1.532,3.825a.172.172,0,0,1,.124-.056.183.183,0,0,1,.126.051c.316.316.575.612.838.92A27.806,27.806,0,0,0,4.9.11.173.173,0,0,1,5.139.021l1.7.929a.173.173,0,0,1,.071.231,43.307,43.307,0,0,1-3.1,5.127c.177.268.36.527.542.785.155.221.311.441.463.667.834-1.372,1.637-2.823,2.453-4.427a.175.175,0,0,1,.109-.089.173.173,0,0,1,.139.022L9.078,4.274a.173.173,0,0,1,.056.232,59.029,59.029,0,0,1-4.556,6.947c.7-.028,1.424-.085,2.123-.139l.557-.043A14.965,14.965,0,0,0,6.39,9.331a.173.173,0,0,1,.082-.24l1.433-.637a.173.173,0,0,1,.224.079,30.738,30.738,0,0,1,1.744,4.136V11a.173.173,0,0,1,.173-.173H22.413a.173.173,0,0,1,.173.173v4.83a.173.173,0,0,1-.173.173H20.688a.173.173,0,0,1-.173-.173V12.766h-8.6v3.251a.173.173,0,0,1-.173.173h-1.7a.173.173,0,0,1-.173-.173V13.834l-1.366.718a.174.174,0,0,1-.131.012A32.269,32.269,0,0,1,9.95,20.2a.173.173,0,0,1-.1.191l-1.7.743a.171.171,0,0,1-.069.015H8.029a.173.173,0,0,1-.171-.146,41.956,41.956,0,0,0-1.295-5.92.173.173,0,0,1,.112-.216l1.46-.478a.17.17,0,0,1,.109,0l-.086-.259c-.1-.281-.169-.556-.237-.822-.031-.121-.062-.243-.1-.366l-1.586.239V24.165a.173.173,0,0,1-.173.173m-1.552-.346H5.892V13.17a.173.173,0,0,1,.094-.3l1.937-.292a.173.173,0,0,1,.192.122c.052.177.1.351.14.523.069.271.134.527.228.8l.043.128,1.256-.66A31.9,31.9,0,0,0,7.9,8.837l-1.114.5a15.74,15.74,0,0,1,.879,2.035.173.173,0,0,1-.15.231l-.783.06c-.828.065-1.683.132-2.516.153a.173.173,0,0,1-.139-.282A55.89,55.89,0,0,0,8.752,4.475L7.486,3.66C6.65,5.3,5.824,6.773,4.965,8.172a.173.173,0,0,1-.292,0c-.2-.3-.4-.594-.607-.884S3.652,6.7,3.452,6.4a.173.173,0,0,1,0-.2A42.809,42.809,0,0,0,6.524,1.172L5.146.419a27.562,27.562,0,0,1-2.358,4.7.173.173,0,0,1-.134.079.171.171,0,0,1-.143-.06l-.057-.067c-.257-.3-.5-.585-.789-.883l-.911,1A38.322,38.322,0,0,1,4.031,9.417a.173.173,0,0,1,0,.194l-.319.477c-.349.548-.743,1.131-1.171,1.73a.174.174,0,0,1-.135.073L.4,11.962l.426,1.428c.371-.032.746-.062,1.123-.092.783-.062,1.592-.127,2.368-.213a.173.173,0,0,1,.192.172Zm2.431-8.845a42.086,42.086,0,0,1,1.224,5.606l1.416-.62a31.9,31.9,0,0,0-1.5-5.361Zm3.275.7h1.353V12.594a.173.173,0,0,1,.173-.173h8.944a.173.173,0,0,1,.173.173v3.065H22.24V11.174H10.219Zm9.275,8.149c-1.236,0-2.774,0-2.774-1.792V13.735a.173.173,0,0,1,.173-.173h1.725a.173.173,0,0,1,.173.173v7.643c0,.367.211.491.835.491.582,0,.937-.189,1.086-.579a16.64,16.64,0,0,0,.254-2.678c0-.084.008-.165.015-.243.006-.061.012-.119.012-.177a.174.174,0,0,1,.07-.139.172.172,0,0,1,.153-.026l1.672.5a.173.173,0,0,1,.123.176l-.011.18c-.1,1.769-.3,3.876-.889,4.471a3.865,3.865,0,0,1-2.617.635M17.066,13.908V22.2c0,1.349.917,1.446,2.428,1.446a3.654,3.654,0,0,0,2.375-.536c.574-.574.733-3.335.785-4.243l0-.044-1.333-.4a1.938,1.938,0,0,0-.012.2,16.69,16.69,0,0,1-.27,2.775,1.338,1.338,0,0,1-1.415.821c-.353,0-1.182,0-1.182-.837v-7.47ZM2.11,22.56a.176.176,0,0,1-.082-.021L.376,21.647a.18.18,0,0,1-.091-.062.178.178,0,0,1-.036-.157,27.827,27.827,0,0,0,1.185-6.436.173.173,0,0,1,.194-.155l1.672.212a.173.173,0,0,1,.15.185,36.854,36.854,0,0,1-1.174,7.2.173.173,0,0,1-.167.126M.627,21.39,2,22.132a36.68,36.68,0,0,0,1.091-6.76L1.761,15.2A28.033,28.033,0,0,1,.627,21.39M22.015,9.237h-11.6a.173.173,0,0,1-.173-.173V7.5a.173.173,0,0,1,.173-.173h4.6V5.256H9.781a.173.173,0,0,1-.173-.173V3.491a.173.173,0,0,1,.173-.173h5.241V.279a.173.173,0,0,1,.173-.173H16.92a.173.173,0,0,1,.173.173V3.317H22.52a.173.173,0,0,1,.173.173V5.083a.173.173,0,0,1-.173.173H17.093V7.325h4.923a.173.173,0,0,1,.173.173V9.064a.173.173,0,0,1-.173.173M10.59,8.891H21.842V7.671H16.92a.173.173,0,0,1-.173-.173V5.083a.173.173,0,0,1,.173-.173h5.427V3.663H16.92a.173.173,0,0,1-.173-.173V.452H15.368V3.491a.173.173,0,0,1-.173.173H9.953V4.91h5.241a.173.173,0,0,1,.173.173V7.5a.173.173,0,0,1-.173.173h-4.6Z" transform="translate(96.559 45.086)"/>
      <path id="パス_88521" data-name="パス 88521" d="M.982,19.029,0,17.251A29.039,29.039,0,0,0,3.981,8.731H.4V7.059H4.246V3.477l-3.025.531L.4,2.442A32.759,32.759,0,0,0,8.227.372L9.5,2.017a36.391,36.391,0,0,1-3.53,1.035H6V7.059H9.581V8.731H6v1.831A32.281,32.281,0,0,1,9.66,14.278L8.546,16.163A30.206,30.206,0,0,0,6,12.739V23.567H4.246V12.182A26.98,26.98,0,0,1,.982,19.029M18.286,0l1.937.77a48.726,48.726,0,0,1-2.309,4.936h3.53v7.935H18.339v6.927c0,.77.4.743.955.743h.186c.478,0,1.115-.053,1.327-.584a20.933,20.933,0,0,0,.212-3.052v-.106l1.831.716c-.053.876-.133,3.769-.929,4.432a4.446,4.446,0,0,1-2.495.477c-1.486,0-2.893.027-2.893-1.831V13.641h-1.99c-.026,4.485-.982,7.59-5.069,10.032L8.227,22.081c3.61-1.858,4.485-4.618,4.512-8.44H10.271V5.706h5.785A29.248,29.248,0,0,0,18.286,0M10.961,1.141,12.606.265a20.687,20.687,0,0,1,2.017,4.06l-1.672.849H12.9a18.18,18.18,0,0,0-1.937-4.034m8.732,6.21H12.049v4.671h7.643Z" transform="translate(123.193 45.683)"/>
      <path id="パス_88522" data-name="パス 88522" d="M9.648,24.019a.173.173,0,0,1-.136-.066L8.264,22.361a.173.173,0,0,1,.057-.261c3.573-1.839,4.367-4.575,4.416-8.113H10.444a.173.173,0,0,1-.173-.173V5.879a.173.173,0,0,1,.173-.173h5.68A28.991,28.991,0,0,0,18.292.127a.173.173,0,0,1,.231-.115l1.937.77a.173.173,0,0,1,.1.227,50.787,50.787,0,0,1-2.175,4.7h3.236a.173.173,0,0,1,.173.173v7.935a.173.173,0,0,1-.173.173H18.685v6.754a.671.671,0,0,0,.117.464c.107.107.331.108.611.106h.24c.483,0,1-.056,1.167-.475a21.588,21.588,0,0,0,.2-2.988v-.106a.173.173,0,0,1,.236-.161l1.831.716a.174.174,0,0,1,.11.172l-.015.271c-.094,1.795-.284,3.707-.976,4.283a4.488,4.488,0,0,1-2.605.518h-.062a5.348,5.348,0,0,1-2.033-.243,1.705,1.705,0,0,1-.971-1.761v-7.55H14.889C14.84,18.3,13.937,21.486,9.736,24a.172.172,0,0,1-.089.024m-.983-1.709L9.69,23.619c4-2.448,4.829-5.572,4.854-9.806a.173.173,0,0,1,.173-.172h1.99a.173.173,0,0,1,.173.173v7.723c0,1,.435,1.3.763,1.444a5.114,5.114,0,0,0,1.895.214H19.6a4.379,4.379,0,0,0,2.382-.436c.67-.559.8-3.086.854-4.037l.008-.148L21.365,18a19.726,19.726,0,0,1-.218,2.954c-.251.629-.929.708-1.493.708h-.239a1.157,1.157,0,0,1-.857-.208.95.95,0,0,1-.218-.708V13.814a.173.173,0,0,1,.173-.173h2.933V6.052H18.087a.173.173,0,0,1-.151-.258,46.97,46.97,0,0,0,2.232-4.756L18.574.4a29.344,29.344,0,0,1-2.191,5.554.173.173,0,0,1-.154.093H10.617v7.589h2.3a.173.173,0,0,1,.123.051.17.17,0,0,1,.05.123c-.026,3.686-.793,6.548-4.421,8.5m-2.493,1.6H4.42a.173.173,0,0,1-.173-.173V13.37A25.519,25.519,0,0,1,1.3,19.3a.169.169,0,0,1-.151.074A.173.173,0,0,1,1,19.286L.022,17.507a.173.173,0,0,1,.008-.181A28.732,28.732,0,0,0,3.925,9.078H.571A.173.173,0,0,1,.4,8.9V7.232a.173.173,0,0,1,.173-.173H4.247v-3.2l-2.823.5a.175.175,0,0,1-.183-.09L.418,2.7a.172.172,0,0,1,0-.159.175.175,0,0,1,.129-.093A32.416,32.416,0,0,0,8.334.385a.173.173,0,0,1,.2.054L9.811,2.084a.172.172,0,0,1-.08.269c-1.125.393-2.235.721-3.387,1v3.7H9.754a.173.173,0,0,1,.173.173V8.9a.173.173,0,0,1-.173.173H6.344v1.58a32.194,32.194,0,0,1,3.623,3.684.173.173,0,0,1,.015.2L8.868,16.424a.174.174,0,0,1-.145.085.183.183,0,0,1-.148-.077,33.224,33.224,0,0,0-2.231-3.057V23.74a.173.173,0,0,1-.173.173m-1.579-.346H6V12.912a.173.173,0,0,1,.3-.115,28.849,28.849,0,0,1,2.41,3.214l.913-1.543a32.188,32.188,0,0,0-3.566-3.6A.173.173,0,0,1,6,10.736V8.9a.173.173,0,0,1,.173-.173h3.41V7.406H6.171A.173.173,0,0,1,6,7.232V3.289a.147.147,0,0,1-.012-.044A.164.164,0,0,1,6.1,3.057c1.121-.268,2.2-.58,3.286-.952L8.344.755a32.643,32.643,0,0,1-7.507,2l.651,1.239,2.9-.509a.174.174,0,0,1,.141.038.173.173,0,0,1,.062.133V7.232a.173.173,0,0,1-.173.173H.745V8.731h3.41a.173.173,0,0,1,.166.22A29.069,29.069,0,0,1,.376,17.433l.8,1.44A27.51,27.51,0,0,0,4.256,12.3a.173.173,0,0,1,.337.056Zm15.273-11.2H12.222a.173.173,0,0,1-.173-.173V7.524a.173.173,0,0,1,.173-.173h7.643a.173.173,0,0,1,.173.173V12.2a.173.173,0,0,1-.173.173m-7.471-.346h7.3V7.7h-7.3Zm.73-6.5h-.053a.173.173,0,0,1-.163-.115,17.807,17.807,0,0,0-1.919-4,.174.174,0,0,1,.063-.249L12.7.285a.173.173,0,0,1,.227.06A20.915,20.915,0,0,1,14.959,4.44a.172.172,0,0,1-.085.213L13.2,5.5a.17.17,0,0,1-.078.019M11.383,1.378a18.192,18.192,0,0,1,1.793,3.75l1.406-.714A20.608,20.608,0,0,0,12.719.667Z" transform="translate(123.02 45.511)"/>
      <path id="パス_88523" data-name="パス 88523" d="M9.1,6.953a31.218,31.218,0,0,1-1.752,7.591H7.325c1.088,1.407,2.1,2.84,3.105,4.3L8.917,20.277c-.77-1.3-1.593-2.495-2.442-3.742a22.232,22.232,0,0,1-5.043,6.821L0,21.869a18.513,18.513,0,0,0,5.228-7.006c-1.3-1.752-2.681-3.424-4.14-5.043l1.3-1.141a53.4,53.4,0,0,1,3.636,4.14A31.423,31.423,0,0,0,7.272,6.688H.08V4.963H5.042V0h1.8V4.963h4.538V6.237h5.972V0h1.831V6.237h3V8.015H19.294V21.152c0,1.539-.955,2.1-2.415,2.1a22.08,22.08,0,0,1-3.238-.186L13.3,21.019a15.526,15.526,0,0,0,3.291.318.747.747,0,0,0,.849-.849V8.015H11.173V6.688H9.129a1,1,0,0,1-.026.265m1.884,3.955L12.553,9.9a36.7,36.7,0,0,1,3.264,5.759l-1.592,1.194h-.079a33.462,33.462,0,0,0-3.158-5.945" transform="translate(149.628 45.79)"/>
      <path id="パス_88524" data-name="パス 88524" d="M1.606,23.7a.173.173,0,0,1-.125-.053L.049,22.162a.173.173,0,0,1,.018-.257A18.275,18.275,0,0,0,5.2,15.058c-1.254-1.684-2.587-3.3-4.07-4.95a.173.173,0,0,1,.014-.246l1.3-1.141a.173.173,0,0,1,.238.009c1.154,1.177,2.282,2.454,3.443,3.9A31.194,31.194,0,0,0,7.253,7.034h-7A.173.173,0,0,1,.08,6.861V5.136a.173.173,0,0,1,.173-.173h4.79V.173A.173.173,0,0,1,5.216,0h1.8a.173.173,0,0,1,.173.173v4.79h4.365a.173.173,0,0,1,.173.173v1.1h5.626V.173A.173.173,0,0,1,17.53,0h1.831a.173.173,0,0,1,.173.173V6.237H22.36a.173.173,0,0,1,.173.173V8.188a.173.173,0,0,1-.173.173h-2.72V21.325c0,1.506-.871,2.27-2.588,2.27a22.4,22.4,0,0,1-3.263-.188.172.172,0,0,1-.146-.143L13.3,21.221a.174.174,0,0,1,.051-.154.172.172,0,0,1,.156-.044,15.2,15.2,0,0,0,3.255.315c.474,0,.676-.2.676-.676V8.361H11.346a.173.173,0,0,1-.173-.173V7.034h-1.7a.991.991,0,0,1-.022.122,31.194,31.194,0,0,1-1.735,7.555c1.081,1.4,2.1,2.85,3.034,4.207a.173.173,0,0,1-.023.224L9.21,20.575a.173.173,0,0,1-.268-.037c-.712-1.2-1.461-2.3-2.254-3.467l-.018-.026a21.974,21.974,0,0,1-4.95,6.614.17.17,0,0,1-.113.042M.43,22.059l1.187,1.231a22.148,22.148,0,0,0,4.878-6.661.173.173,0,0,1,.3-.019l.181.266c.756,1.109,1.471,2.159,2.155,3.3l1.248-1.183c-.934-1.35-1.943-2.784-3.015-4.17a.173.173,0,0,1,.029-.241A30.855,30.855,0,0,0,9.1,7.108a.191.191,0,0,1,0-.024.831.831,0,0,0,.021-.224A.173.173,0,0,1,9.3,6.688h2.044a.173.173,0,0,1,.173.173V8.015h6.09a.173.173,0,0,1,.173.173V20.662a.914.914,0,0,1-1.022,1.022,15.808,15.808,0,0,1-3.078-.271l.282,1.67a22.613,22.613,0,0,0,3.089.167c1.529,0,2.242-.611,2.242-1.924V8.188a.173.173,0,0,1,.173-.173h2.72V6.583H19.361a.173.173,0,0,1-.173-.173V.346H17.7V6.41a.173.173,0,0,1-.173.173H11.559a.173.173,0,0,1-.173-.173v-1.1H7.02a.173.173,0,0,1-.173-.173V.346H5.389v4.79a.173.173,0,0,1-.173.173H.426V6.688H7.445a.173.173,0,0,1,.172.191,31.5,31.5,0,0,1-1.254,6.165.173.173,0,0,1-.3.056c-1.187-1.491-2.337-2.8-3.51-4.01l-1.046.917C2.974,11.642,4.3,13.255,5.54,14.932a.173.173,0,0,1,.02.171A18.771,18.771,0,0,1,.43,22.059M14.4,17.2h-.079a.173.173,0,0,1-.16-.106,33.387,33.387,0,0,0-3.142-5.914.174.174,0,0,1-.026-.132.171.171,0,0,1,.076-.111l1.566-1.009a.173.173,0,0,1,.236.048,36.875,36.875,0,0,1,3.28,5.787.173.173,0,0,1-.054.209L14.5,17.164a.174.174,0,0,1-.1.034m-3-6.068A33.817,33.817,0,0,1,14.411,16.8l1.365-1.024a36.539,36.539,0,0,0-3.1-5.467Z" transform="translate(149.455 45.616)"/>
      <path id="パス_88525" data-name="パス 88525" d="M8.891,6.741l-1.7.611A20.962,20.962,0,0,0,6.025,4.14H3.875a16.946,16.946,0,0,1-2.6,3.636L0,6.635A16.865,16.865,0,0,0,3.636.053L5.388.5,4.644,2.548h6.847V4.14H7.776a23.9,23.9,0,0,1,1.115,2.6M22.9,21.073l-1.168,1.8a26.239,26.239,0,0,1-9.421-5.759v6.847h-1.8V17.33A21.41,21.41,0,0,1,1.38,23.3L.186,21.71c4.034-1.248,7.8-3.291,10.351-6.741H10.51V13.641H4.8V18.71H3.026V12.049H10.51V10.032H.292V8.387H10.51V6.768h1.8V8.387H22.771v1.646H12.314v2.017H20.2V16.64c0,1.035-.584,1.539-1.646,1.539a11.286,11.286,0,0,1-2.123-.159l-.345-1.592a8.387,8.387,0,0,0,1.752.239.539.539,0,0,0,.584-.611V13.641h-6.1v1.38C15,18.1,19.082,19.9,22.9,21.073M18.711,6.582l-1.752.743c-.425-.982-.955-2.15-1.513-3.185H13.695a1.507,1.507,0,0,1-.212.345,14.259,14.259,0,0,1-1.566,2.229L10.51,5.732A14.873,14.873,0,0,0,13.429,0l1.8.451a14.255,14.255,0,0,1-.8,2.1h8.307V4.14H17.277c.5.8.956,1.619,1.433,2.442" transform="translate(175.717 45.285)"/>
      <path id="パス_88526" data-name="パス 88526" d="M12.488,24.311h-1.8a.173.173,0,0,1-.173-.173V17.961a21.877,21.877,0,0,1-8.9,5.677.174.174,0,0,1-.2-.059L.22,21.986a.173.173,0,0,1,.087-.269c4.607-1.424,7.945-3.583,10.2-6.6V13.987H5.15v4.9a.173.173,0,0,1-.173.173H3.2a.173.173,0,0,1-.173-.173V12.222a.173.173,0,0,1,.173-.173H10.51V10.378H.465a.173.173,0,0,1-.173-.173V8.559a.173.173,0,0,1,.173-.173H10.51V6.941a.173.173,0,0,1,.173-.173h.932l-1.032-.72a.173.173,0,0,1-.033-.254,12.288,12.288,0,0,0,.974-1.307h-3.3a23.857,23.857,0,0,1,1,2.37.173.173,0,0,1-.1.221l-1.7.611A.172.172,0,0,1,7.2,7.573,21.563,21.563,0,0,0,6.089,4.486H4.152A17.162,17.162,0,0,1,1.572,8.068a.173.173,0,0,1-.241.01L.058,6.937A.173.173,0,0,1,.046,6.69,16.571,16.571,0,0,0,3.644.174.173.173,0,0,1,3.852.059L5.6.51a.173.173,0,0,1,.12.227L5.065,2.548h6.6a.173.173,0,0,1,.173.173V3.979a16.487,16.487,0,0,0,1.6-3.853.173.173,0,0,1,.208-.121l1.8.451a.173.173,0,0,1,.124.217,14.683,14.683,0,0,1-.691,1.874h8.035a.173.173,0,0,1,.173.173V4.313a.173.173,0,0,1-.173.173H17.763c.3.494.593,1,.875,1.492.131.229.262.459.4.689a.173.173,0,0,1-.082.246L17.2,7.657a.173.173,0,0,1-.227-.091c-.533-1.234-1.011-2.243-1.458-3.08H13.974a1.312,1.312,0,0,1-.18.278,15.534,15.534,0,0,1-1.372,2h.066a.173.173,0,0,1,.173.173V8.387H22.944a.173.173,0,0,1,.173.173v1.646a.173.173,0,0,1-.173.173H12.661v1.671H20.37a.173.173,0,0,1,.173.173v4.591a1.594,1.594,0,0,1-1.818,1.712,12.093,12.093,0,0,1-1.992-.133,30.311,30.311,0,0,0,6.4,2.687.173.173,0,0,1,.095.26l-1.168,1.8a.173.173,0,0,1-.207.067,26.547,26.547,0,0,1-9.186-5.5v6.43a.173.173,0,0,1-.173.173m-1.632-.346h1.459V17.291a.173.173,0,0,1,.3-.121,25.586,25.586,0,0,0,9.229,5.668l.967-1.495c-4.795-1.493-8.215-3.468-10.45-6.035a.173.173,0,0,1-.043-.113v-1.38a.173.173,0,0,1,.173-.173h6.1a.173.173,0,0,1,.173.173v2.415a.708.708,0,0,1-.757.783,7.738,7.738,0,0,1-1.526-.187l.264,1.218a11.6,11.6,0,0,0,1.978.136c.991,0,1.473-.447,1.473-1.366V12.4h-7.71a.173.173,0,0,1-.173-.173V10.205a.173.173,0,0,1,.173-.173H22.771v-1.3H12.488a.173.173,0,0,1-.173-.173V7.114H10.856V8.559a.173.173,0,0,1-.173.173H.638v1.3H10.683a.173.173,0,0,1,.173.173v2.017a.173.173,0,0,1-.173.173H3.372V18.71H4.8v-4.9a.173.173,0,0,1,.173-.173h5.706a.173.173,0,0,1,.173.173v1.26a.168.168,0,0,1-.007.17c-2.264,3.066-5.6,5.269-10.2,6.73l.97,1.294a21.185,21.185,0,0,0,8.937-5.878.173.173,0,0,1,.3.113Zm1.8-8.836a15.941,15.941,0,0,0,3.768,3.083l-.341-1.575a.173.173,0,0,1,.047-.159.175.175,0,0,1,.159-.047,8.3,8.3,0,0,0,1.715.235c.28,0,.411-.139.411-.437V13.987H12.661ZM.419,6.8l1.018.912A16.917,16.917,0,0,0,3.9,4.232a.173.173,0,0,1,.153-.092H6.2a.173.173,0,0,1,.156.1A20.607,20.607,0,0,1,7.479,7.3l1.363-.49A24.007,24.007,0,0,0,7.795,4.39a.173.173,0,0,1,.155-.25h3.543V2.894H4.818a.173.173,0,0,1-.163-.232L5.333.8,3.925.434A16.906,16.906,0,0,1,.419,6.8M13.868,4.14H15.62a.173.173,0,0,1,.152.091c.446.829.922,1.825,1.451,3.041l1.413-.6c-.1-.174-.2-.348-.3-.522-.33-.578-.671-1.174-1.032-1.745a.173.173,0,0,1,.146-.265h5.294V2.894H14.611a.173.173,0,0,1-.156-.248,13.824,13.824,0,0,0,.734-1.9L13.722.381a15.026,15.026,0,0,1-2.785,5.491l1.124.785a14.824,14.824,0,0,0,1.446-2.088.158.158,0,0,1,.025-.032,1.454,1.454,0,0,0,.18-.3.173.173,0,0,1,.155-.1" transform="translate(175.544 45.112)"/>
      <path id="パス_88527" data-name="パス 88527" d="M.568,18.076l2.921.549L2.921,21.65,0,21.1ZM3.966,0,6.887.549,3.493,16.168l-2.034-.382Z" transform="translate(204.174 47.912)"/>
      <path id="パス_88528" data-name="パス 88528" d="M3.095,22l-.032,0L.141,21.444a.173.173,0,0,1-.138-.2l.569-3.025a.173.173,0,0,1,.2-.138l2.921.549a.173.173,0,0,1,.138.2l-.569,3.026a.172.172,0,0,1-.17.141m-2.719-.86,2.581.485.5-2.686L.88,18.451Zm3.291-4.622a.165.165,0,0,1-.032,0L1.6,16.129a.174.174,0,0,1-.139-.2L3.968.146A.173.173,0,0,1,4.171,0L7.092.552a.173.173,0,0,1,.137.207L3.835,16.378a.173.173,0,0,1-.169.137M1.828,15.82l1.7.32L6.853.859,4.282.376Z" transform="translate(204.001 47.739)"/>
    </g>
  </g>
</svg>
