<svg id="グループ_20662" data-name="グループ 20662" xmlns="http://www.w3.org/2000/svg" xmlns:xlink="http://www.w3.org/1999/xlink" width="577.245" height="136.889" viewBox="0 0 577.245 136.889">
  <defs>
    <clipPath id="clip-path">
      <rect id="長方形_9565" data-name="長方形 9565" width="577.245" height="136.889" fill="#fff"/>
    </clipPath>
  </defs>
  <path id="パス_84401" data-name="パス 84401" d="M0,0H577.245V136.889H0Z" fill="#637389"/>
  <g id="グループ_20559" data-name="グループ 20559">
    <g id="グループ_20558" data-name="グループ 20558" clip-path="url(#clip-path)">
      <path id="パス_83671" data-name="パス 83671" d="M115.426,71.685c-7.014-1.654-20.046-1.72-31.688-1.72-13.032,0-22.36-.264-25.866-1.257-3.043-.86-4.168-2.646-4.168-5.094,0-2.776.925-4.564,4.564-5.887,4.3-1.589,12.7-2.782,25.732-2.782a202.36,202.36,0,0,1,34.8,3.179l.926-5.094A206.058,206.058,0,0,0,84,49.787c-14.552,0-24.079,1.719-29.372,3.771-5.16,1.984-7.674,5.293-7.674,10.32,0,4.233,1.786,7.541,6.152,9,4.564,1.521,15.876,2.249,33.275,2.249h0c11.178,0,20.97.2,25.072.991,4.63.926,5.887,3.042,5.887,5.822,0,3.043-1.059,5.226-4.365,6.616-5.093,2.117-13.761,2.911-26,2.911a210.694,210.694,0,0,1-37.84-3.639l-.861,5.226c7.013,1.653,21.7,3.572,38.7,3.572,12.5,0,24.873-1.19,30.7-4.035,4.234-2.116,6.417-5.094,6.417-10.651,0-4.9-2.382-8.8-8.666-10.254" transform="translate(-5.209 -5.523)" fill="#fff"/>
      <path id="パス_83672" data-name="パス 83672" d="M360.1,88.139h-.2C339,75.7,318.158,63.4,297.319,50.828H291.9V95.813h6.615V58.5h.2v0c20.906,12.506,41.678,24.874,62.582,37.311h5.423V50.828H360.1Z" transform="translate(-32.381 -5.639)" fill="#fff"/>
      <path id="パス_83673" data-name="パス 83673" d="M442.1,50.828,401.34,95.349v.464h7.944l9.2-10.054h51.533l9.262,10.055h7.937V95.35l-40.75-44.522ZM465.314,80.6H423.241l12.834-13.958c4.036-4.433,8.137-9.195,8.137-9.195h.132c.529.66,4.036,4.762,8.137,9.195Z" transform="translate(-44.522 -5.639)" fill="#fff"/>
      <path id="パス_83674" data-name="パス 83674" d="M529.839,90.257V75.239l60.664-.007V70.075H529.839V56.383h63.3V50.827H523.215V95.813h70.325V90.257Z" transform="translate(-58.042 -5.638)" fill="#fff"/>
      <path id="パス_83675" data-name="パス 83675" d="M242.191,62.806V54.092l-7.39-4.981H221.869l-13.021-8.774-13.021,8.774H182.894l-7.39,4.981v8.715l-12.94,8.72,12.94,8.72v8.716l7.389,4.979h12.933l13.021,8.775,13.021-8.775H234.8l7.4-4.984v-8.71l12.939-8.72ZM236.036,54v4.658L229.126,54Zm0,10.554V78.5L220.376,89.051H197.32L181.659,78.5V64.555L197.32,54h23.055ZM208.848,46.233l4.272,2.878h-8.544ZM181.659,54h6.911l-6.911,4.658ZM171.314,71.526,175.5,68.7V74.35Zm10.345,17.524V84.394l6.911,4.657Zm27.189,7.769-4.272-2.879h8.544Zm27.189-7.769h-6.911l6.911-4.657ZM242.191,68.7l4.19,2.824-4.19,2.824Z" transform="translate(-18.034 -4.475)" fill="#fff"/>
    </g>
  </g>
</svg>
