<?xml version="1.0" encoding="UTF-8"?>
<svg xmlns="http://www.w3.org/2000/svg" version="1.1" viewBox="0 0 270 78">
  <defs>
    <style>
      .cls-1 {
        fill: #414141;
      }

      .cls-2 {
        isolation: isolate;
      }
    </style>
  </defs>
  <!-- Generator: Adobe Illustrator 28.7.6, SVG Export Plug-In . SVG Version: 1.2.0 Build 188)  -->
  <g>
    <g id="_レイヤー_1" data-name="レイヤー_1">
      <g id="_土地を持たない_新しい不動産投資" class="cls-2">
        <g class="cls-2">
          <path class="cls-1" d="M36.8.6h4.9v7.5h10.5v4.8h-10.5v11.3h12.2v4.8h-29.3v-4.8h12.2v-11.3h-10.4v-4.8h10.4V.6Z"/>
          <path class="cls-1" d="M66.1,12.1h-1.5v7.9c.7-.2,1.1-.3,2-.7v4.3c-2.8,1.3-6.8,2.5-9.3,3.2l-.7-4.9c.8-.1,1.4-.2,3.4-.7v-9.1h-2.9v-4.5h2.9V.5h4.6v7.2h2.1v2.2l1.1-.3V3.3h4.3v5.2l2.4-.6V.5h4.3v6.2l6.9-1.8c0,3.5-.2,10.9-.5,13.1,0,.8-.4,3.1-3,3.1h-2.3l-.9-4.6h1c1,0,1.3,0,1.3-5.7l-2.5.7v11.1h-4.3v-10l-2.4.6v10.9c0,.3.2.7.8.7h7.9c1,0,1.4,0,1.6-3.5l4.2,1c-.2,3.8-.6,7.1-4.1,7.1h-11.3c-3.3,0-3.5-2.2-3.5-3.4v-11.7l-1.5.4-.3-2.6Z"/>
        </g>
        <g class="cls-2">
          <path class="cls-1" d="M98.2,12.7c-.2.8-.2,1.1-.3,1.5h7v2.8h-7.9c-.2.5-.4.9-.6,1.4,1.2-.6,2.1-.6,2.2-.6.8,0,2.2.2,3,1.7,1.9-.8,3.4-1.2,4.2-1.4l.7,2.9c-1,.2-2.4.6-4.4,1.3,0,.6,0,1.4,0,2.1s0,.8,0,1.1h-2.9c0-.4,0-.7,0-2-1.2.6-2.1,1.1-2.1,2s1.5,1.3,3.5,1.3,2.6,0,4.8-.2v2.9c-3.4,0-3.8,0-4.2,0-2.8,0-4.2-.3-5.1-.6-1.1-.4-2.1-1.5-2.1-3,0-2.3,2.2-3.7,4.9-5.1-.3-.4-.7-.5-1.2-.5-1.5,0-2.8,1.3-3.3,1.8-.4.5-2.1,2.8-2.5,3.2l-2.1-2.1c2.8-3,3.4-4.3,4.1-6.1h-3.3v-2.8h4.1c.2-.6.2-1.2.3-1.8l3.2.3Z"/>
        </g>
        <g class="cls-2">
          <path class="cls-1" d="M109.3,15.9c.9-.2,2-.4,3.5-.7v-5.2h-3.3v-4.4h3.3V.5h4.4v5.1h2.7v3.8h7.1v-2.3h-6.1V2.9h6.1V.5h4.7v2.4h6.4v4.2h-6.4v2.3h7.2v4.4h-2.7v2h2.5v4.4h-2.5v7c0,2.1-2,2.7-2.8,2.7h-5.9l-.7-4.3-2,1.2c-1.6-3-2.2-3.8-3.5-5.1l2.9-1.6h-3.8v-4.4h11.2v-2h-11.7v-3.8h-2.7v4c.5-.2,1-.3,2.4-.9v4.4c-.7.3-1.3.6-2.4,1v8.7c0,.6-.4,2.7-3.1,2.7h-3.9l-.6-4.8h2.3c.6,0,.8,0,.8-.8v-4.4c-1,.3-1.7.5-2.9.7l-.6-4.7ZM125.8,20.2c.6.6,1.8,1.9,3.1,4.2l-1.5.9h3.2c.5,0,1,0,1-.9v-4.2h-5.8Z"/>
          <path class="cls-1" d="M153.5,1.7c0,.8-.1,1.1-.4,3.3h7.1v4.6h-7.7c-1.2,7.3-1.9,10.8-4.6,19.2l-5.1-1.6c2.3-5,3.8-12,4.8-17.6h-4v-4.6h4.6c.1-1.1.2-2,.3-3.6l5.1.3ZM159.8,19.6c-.5.6-1.4,1.5-1.4,2.5,0,1.6,1.9,1.9,5,1.9s5.4-.2,6.5-.3v4.8c-.7,0-1.6,0-4.1,0-4.7,0-7.1-.2-9.1-1.1-.7-.3-3-1.6-3-4.5s0-2.9,2.5-5.6l3.5,2.2ZM169.6,14.1c-1,0-1.9,0-3.3,0-4.4,0-6.5.6-8.5,1.3l-1.5-4.1c2.9-1.3,6.3-2,13.2-2v4.8Z"/>
          <path class="cls-1" d="M185.8,1.4c0,.6-.5,2.9-.6,3.4h5.4v4.7h-6.2c-1,4.7-3,11.4-4.7,16.1l-5.1-1.4c1.4-2.9,3.7-9.4,4.7-14.6h-4.2v-4.7h5c.2-1.7.3-2.5.4-3.6l5.2.2ZM202.6,9.6c-.7,0-1.5-.2-2.5-.2s-2.1.1-2.9.2l.2,8.3c3.9,2.2,5,3.3,5.8,4l-2.8,4.7c-.8-.9-2-2-3.4-3.3v.7c-.2,3.5-3.2,4.8-6.6,4.8-5.2,0-7.7-2.8-7.7-6.2s1.8-6.4,7.9-6.4,1.3,0,1.9,0l-.3-11.2c1.5-.3,3.9-.7,10-.9l.4,5.3ZM192.7,20.9c-.6-.2-1.2-.4-2.2-.4s-3.3,0-3.3,2.1.3,2.1,3,2.1,2.6-1.3,2.6-2.1v-1.7Z"/>
          <path class="cls-1" d="M213.6,3.3c-.5,3.2-.9,6.3-.9,9.5s.2,9.6,2.7,9.6,2.9-3.3,3.8-5.8l4,2.4c-.9,2.7-3.3,9.1-8.2,9.1s-7.3-10.6-7.3-15.8.3-7,.6-9.5l5.2.5ZM229.9,25c0-.6,0-1.3,0-2.2,0-10.6-3.5-15.1-5.5-16.7l4-2.6c2.8,2.8,7,7.1,6.8,21.3l-5.4.3Z"/>
          <path class="cls-1" d="M246.4,29c-1.5-2.2-3.5-4.9-6.1-7.7l3.9-2.6c2.3,2,5.2,5.4,6.7,7.3l-4.5,2.9Z"/>
        </g>
        <g class="cls-2">
          <path class="cls-1" d="M5.7,70.7c1.3-.9,3.3-2.2,5-4.1h-4.1v-4h5.6v-1.8h-5.9v-4.1h2.9c0-.4-.3-1.8-.7-3.2h-1.6v-4.1h5.3v-2h4.3v2h4.9v4.1h-1.5c-.2,1.1-.3,1.7-.7,3.2h2.4v4.1h-5.2v1.8h4.9v4h-3.5c1.7,1.9,2.6,2.6,3.1,2.9l-2.1,3.9c-1.1-1.1-1.6-1.9-2.4-3.1v6.6h-4.2v-6.1c-2.1,2.8-3.8,4-4.7,4.7l-1.9-4.8ZM12.6,53.5c.4,1.6.5,2.4.6,3.2h2.1c.2-1,.5-2,.6-3.2h-3.3ZM35.7,51.6c-2.5,1-6.1,1.8-8.8,1.9v3.2h8.8v4.6h-2.4v15.7h-4.5v-15.7h-1.9v1.2c0,8.7-2.7,12.9-3.8,14.5l-4.1-2.7c2-2.9,3.5-6,3.5-11.8v-13.2c6.4-.3,8.7-1,11.3-2l1.9,4.4Z"/>
          <path class="cls-1" d="M47.2,48.6c-.2,4.6-.4,15.2-.4,16.2,0,4,.8,6,4.9,6,6.8,0,8.2-5.5,8.8-9.6l4.7,2.1c-2.4,11.8-10,12.3-13.5,12.3-9.3,0-10-5.7-10-12.1s0-12.9,0-15h5.4Z"/>
          <path class="cls-1" d="M75.6,50.3c-.5,3.2-.9,6.3-.9,9.5s.2,9.6,2.7,9.6,2.9-3.3,3.8-5.8l4,2.4c-.9,2.7-3.3,9.1-8.2,9.1s-7.3-10.6-7.3-15.8.3-7,.6-9.5l5.2.5ZM91.8,72c0-.6,0-1.3,0-2.2,0-10.6-3.5-15.1-5.5-16.7l4-2.6c2.8,2.8,7,7.1,6.8,21.3l-5.4.3Z"/>
          <path class="cls-1" d="M128.1,69.6c-1.7-1.2-5.6-4.1-9.7-10.2v17.5h-4.9v-15.5c-2.9,3.3-6.3,6-10,8.1l-2.5-4.7c6.9-3.3,11.2-7.8,13.1-11.7h-12.7v-4.8h29.3v4.8h-11.6c-.3.6-.7,1.4-1.5,2.7h.8v2.2l3.2-1.9c3.1,4,5.3,6.1,9.5,8.8l-3,4.6Z"/>
          <path class="cls-1" d="M149.5,75.6c-1,0-5.9.4-6.9.5-1.1,0-7.3.2-8.7.3l-.2-3.6c.9,0,5.5-.1,6.5-.2v-1.4h-5.9v-3.1h5.9v-1.1h-5.7v-10.5h5.7v-1h-6.4v-3.2h6.4v-.9c-1.5,0-4.4,0-5.8,0l-.4-3.2c2.8,0,10.5,0,14.9-.9l1.1,3.2c-1.1.2-1.9.3-5.8.6v1.1h6.3v.7h1.8v-5.5h4.5v5.5h5.6c0,1.3,0,17.2-.9,20.7-.5,1.7-1.1,3.2-3.6,3.2h-3.2l-.8-4.5c-1.2,2.5-2.2,3.6-3,4.6l-1.5-1.4ZM138.2,58.9v1.6h2v-1.6h-2ZM138.2,62.7v1.6h2v-1.6h-2ZM150.5,57.6v-2.1h-6.3v1h5.7v10.5h-5.7v1.1h5.9v1.7c1-1.9,2-4.7,2.2-12.2h-1.9ZM144.2,58.9v1.6h2v-1.6h-2ZM144.2,62.7v1.6h2v-1.6h-2ZM144.2,71.1v1.3c1.8-.1,2.4-.2,4.5-.3.4-.5.5-.7.7-1h-5.1ZM156.2,72.1c1.1,0,1.3-.2,1.5-1.6.2-1.5.4-3.9.6-13h-1.4c-.2,4.3-.7,10-2.7,14.5h2.1Z"/>
          <path class="cls-1" d="M174.6,66.6l-2.1-1.6c0,1.1-.2,7.9-2.8,11.8l-3.8-3.4c.8-1.5,2.1-3.9,2.1-9.2v-9.2h5c0-.6-.3-1.5-.5-2.1h-4.6v-3.9h10.7v-1.6h4.8v1.6h10.8v3.9h-4.5c-.2.9-.6,1.8-.7,2.1h6.6v3.9h-9.3v2h8.1v3.8h-8.1v1.8h7v3.5h-7v1.9h9.3v4.1h-23.5v-4.1h9.7v-1.9h-7.2v-3.5ZM172.4,59v5c1.2-1.3,2.2-3.2,2.9-5h-2.9ZM181.7,61v-2h-6.1l3.9.7c-.2.7-.3.9-.5,1.4h2.7ZM181.7,66.6v-1.8h-4.5c-.7,1.1-1,1.6-1.2,1.8h5.7ZM177.1,52.9c.2.5.2.7.6,2.1h6.5c.3-1,.4-1.3.6-2.1h-7.6Z"/>
          <path class="cls-1" d="M206.5,56.9v4c1.4-.4,1.7-.6,2.4-.8v4.5c-.6.3-.8.4-2.4.9v8.7c0,1.8-.8,2.7-2.7,2.7h-4.2l-.7-4.7h2.4c.7,0,.7-.2.7-.9v-4.4c-1.1.3-1.7.5-2.9.8l-.4-4.8c.9-.2,1.5-.2,3.3-.8v-5.3h-3.2v-4.3h3.2v-5h4.4v5h2.5v3.7c1.8-1.6,2.6-3,2.6-5.5v-2.6h11.2v6c0,.6.2.8.6.8h.7c.4,0,.5-.4.6-.6,0-.4.2-1.6.2-3.1l3.7,1.1c-.1,5.5-.8,7.2-3.5,7.2h-3.9c-2.4,0-2.7-1.3-2.7-2.8v-4.3h-2.4c-.3,4.2-1.9,6.4-4.7,8.4l-3.1-3.8h-1.6ZM225.9,65.3c-.6,1.1-1.5,3-3.7,5.1,3.2,1.1,5.2,1.5,6.4,1.8l-2.1,4.8c-2.4-.7-5.5-1.7-8.7-3.4-3.3,1.9-6.4,2.7-8.8,3.3l-1.7-4.8c1.2-.2,3.3-.5,6.1-1.5-1.8-1.6-2.5-2.7-3.2-3.7l2.9-1.5h-3.4v-4.5h16.2v4.5ZM214.4,65.3c1.4,1.6,2.6,2.5,3.3,3,1.6-1.2,2.2-2.1,2.8-3h-6.2Z"/>
          <path class="cls-1" d="M259.1,60.5c-.9-.2-1-.2-1.2-.2v11.6h-5.2c.7.2,4.1,1.3,8.3,1.2l-1.9,4.1c-4.4-.7-6.7-1.3-10.7-3.2l1.8-2.1h-8.7l1.9,2.1c-4.2,2.4-9,3-10.4,3.2l-1.9-4c4.7-.2,6.8-.8,8.2-1.4h-5.3v-12c-1.1.4-1.3.5-1.9.7l-1-4.5c2-.4,6-1.7,8-2.5l.4,4c-.6.3-.7.4-2.3,1.1h4.2l-1.2-2.8c6-.8,6.8-2.8,7.1-3.6h-2.4c-1.7,1.5-2.6,2-3.6,2.5l-2.3-3.2c2.2-1.1,4.1-2.7,5-4l4.7.2c-.3.5-.4.7-.7,1.2h12.1v2.9c-.3.7-.6,1.5-1.8,3.4l-4.1-1.3c.3-.4.8-1,1.1-1.6h-3.5c1,1.6,2.8,3.6,9.1,4.1l-1.9,4.2ZM233.7,47.6c2.7.7,4.3,1.4,5.7,2l-2.1,3.8c-1.7-1-4-1.8-5.5-2.2l1.9-3.5ZM238.7,62.2h14.6v-1.1h-14.6v1.1ZM238.7,65.6h14.6v-1.1h-14.6v1.1ZM238.7,69h14.6v-1.2h-14.6v1.2ZM253.9,58.5c-1.1-.7-2.6-1.6-4-3.4-1.2,1.6-2.9,2.7-4.7,3.4h8.7Z"/>
        </g>
      </g>
    </g>
  </g>
</svg>