<svg xmlns="http://www.w3.org/2000/svg" xmlns:xlink="http://www.w3.org/1999/xlink" width="264" height="110" viewBox="0 0 264 110">
  <defs>
    <clipPath id="clip-path">
      <rect id="長方形_9568" data-name="長方形 9568" width="177.374" height="22.409" fill="#fff"/>
    </clipPath>
  </defs>
  <g id="グループ_26476" data-name="グループ 26476" transform="translate(-825.687 -6203.428)">
    <g id="グループ_26472" data-name="グループ 26472" transform="translate(66.687 -161.572)">
      <g id="グループ_26470" data-name="グループ 26470" transform="translate(793.965 6369.929)">
        <g id="グループ_20564" data-name="グループ 20564" transform="translate(0 0)" clip-path="url(#clip-path)">
          <path id="パス_83678" data-name="パス 83678" d="M24.6,17.315c-2.52-.594-7.2-.618-11.384-.618-4.682,0-8.033-.095-9.292-.452a1.763,1.763,0,0,1-1.5-1.83c0-1,.332-1.639,1.64-2.115,1.545-.571,4.562-1,9.244-1a72.695,72.695,0,0,1,12.5,1.142l.333-1.83A74.023,74.023,0,0,0,13.308,9.449c-5.228,0-8.65.618-10.552,1.355A3.722,3.722,0,0,0,0,14.511a3.1,3.1,0,0,0,2.21,3.233c1.64.546,5.7.808,11.954.808h0a67.292,67.292,0,0,1,9.007.356C24.835,19.24,25.286,20,25.286,21a2.3,2.3,0,0,1-1.568,2.377c-1.83.76-4.943,1.046-9.34,1.046A75.689,75.689,0,0,1,.784,23.114L.475,24.992a68.215,68.215,0,0,0,13.9,1.283c4.492,0,8.935-.428,11.027-1.45A3.786,3.786,0,0,0,27.71,21,3.533,3.533,0,0,0,24.6,17.315" transform="translate(0 -6.431)" fill="#fff"/>
          <path id="パス_83679" data-name="パス 83679" d="M269.44,23.893h-.071c-7.508-4.468-14.995-8.888-22.481-13.4H244.94V26.65h2.376v-13.4h.071c7.51,4.492,14.972,8.936,22.482,13.4h1.948V10.49H269.44Z" transform="translate(-166.709 -7.14)" fill="#fff"/>
          <path id="パス_83680" data-name="パス 83680" d="M369.025,10.49,354.384,26.484v.167h2.854l3.3-3.612h18.513l3.327,3.612h2.851v-.167L370.593,10.49Zm8.341,10.7H362.252l4.611-5.014c1.45-1.592,2.923-3.3,2.923-3.3h.047c.19.237,1.45,1.711,2.923,3.3Z" transform="translate(-241.199 -7.14)" fill="#fff"/>
          <path id="パス_83681" data-name="パス 83681" d="M478.64,24.654v-5.4l21.793,0V17.4H478.64V12.485h22.74v-2H476.26V26.65h25.263v-2Z" transform="translate(-324.149 -7.139)" fill="#fff"/>
          <path id="パス_83682" data-name="パス 83682" d="M144.214,8.072V4.941l-2.655-1.789h-4.646L132.236,0l-4.678,3.152h-4.646l-2.655,1.789V8.072L115.609,11.2l4.649,3.133v3.131l2.654,1.789h4.646l4.678,3.152,4.678-3.152h4.644l2.657-1.79V14.337l4.648-3.133ZM142,4.909V6.582L139.52,4.909ZM142,8.7v5.009L136.377,17.5h-8.282l-5.626-3.791V8.7l5.626-3.791h8.282Zm-9.767-6.582,1.535,1.034H130.7Zm-9.767,2.79h2.483l-2.483,1.673Zm-3.716,6.3,1.505-1.014v2.029Zm3.716,6.3V15.827l2.483,1.673Zm9.767,2.791L130.7,19.256h3.069ZM142,17.5H139.52L142,15.827Zm2.211-7.31,1.505,1.014-1.505,1.014Z" transform="translate(-78.685 0)" fill="#fff"/>
        </g>
      </g>
      <g id="グループ_26471" data-name="グループ 26471" transform="translate(684 6365)">
        <text id="_は_1_2階併用型の_メゾネット賃貸に限定" data-name="　　　　　　　　　は、
1・2階併用型の
メゾネット賃貸に限定" transform="translate(207 24)" fill="#fff" font-size="21" font-family="NotoSansJP-Medium, Noto Sans JP" font-weight="500" letter-spacing="0.15em"><tspan x="-131.25" y="0">　　　　　　　　　は、</tspan><tspan x="-85.995" y="38">1・2</tspan><tspan y="38">階併用型</tspan><tspan y="38">の</tspan><tspan fill="#eae35a" font-family="NotoSansJP-Regular, Noto Sans JP" font-weight="400"><tspan x="-119.175" y="76">メゾネット</tspan><tspan y="76">賃貸</tspan><tspan y="76" fill="#fff" font-family="NotoSansJP-Medium, Noto Sans JP" font-weight="500">に</tspan><tspan y="76" fill="#fff" font-family="NotoSansJP-Medium, Noto Sans JP" font-weight="500">限定</tspan></tspan></text>
        <line id="線_403" data-name="線 403" x2="164.569" transform="translate(89.357 109)" fill="none" stroke="#eae35a" stroke-width="2"/>
      </g>
    </g>
  </g>
</svg>
