<svg xmlns="http://www.w3.org/2000/svg" xmlns:xlink="http://www.w3.org/1999/xlink" width="456.591" height="215.403" viewBox="0 0 456.591 215.403">
  <defs>
    <clipPath id="clip-path">
      <rect id="長方形_9486" data-name="長方形 9486" width="63.385" height="136.52" fill="#414141" stroke="#414141" stroke-width="2"/>
    </clipPath>
    <clipPath id="clip-path-2">
      <rect id="長方形_9485" data-name="長方形 9485" width="456.591" height="167.908" fill="none"/>
    </clipPath>
    <clipPath id="clip-path-3">
      <rect id="長方形_9567" data-name="長方形 9567" width="63.385" height="136.52" fill="#c7bb5d" stroke="#414141" stroke-width="2"/>
    </clipPath>
  </defs>
  <g id="グループ_20496" data-name="グループ 20496" transform="translate(-770.178 -2244.66)">
    <g id="グループ_20562" data-name="グループ 20562" transform="translate(959.003 2323.544)">
      <g id="グループ_20494" data-name="グループ 20494" transform="translate(0 0)" clip-path="url(#clip-path)">
        <path id="パス_83492" data-name="パス 83492" d="M4.225,122.544c22.429,0,36.243-10.726,36.243-28.279,0-16.415-12.027-30.231-26.653-33.154v-.489L39,13.653H0V0H63.385L34.291,55.1c13.977,6.827,22.755,20.966,22.755,38.357,0,26.49-20.315,43.068-52.821,43.068Z" transform="translate(0 -0.001)" fill="#414141"/>
        <path id="パス_83492_-_アウトライン" data-name="パス 83492 - アウトライン" d="M6.225,134.5c14.593-.319,26.78-4.15,35.336-11.128a35.535,35.535,0,0,0,9.984-12.844,40.793,40.793,0,0,0,3.5-17.074A45.721,45.721,0,0,0,53.524,81.6,40.1,40.1,0,0,0,49.2,71.342a37.463,37.463,0,0,0-15.782-14.45l-1.855-.906L60.067,2H2v9.653H42.347L16.57,59.715a35.286,35.286,0,0,1,17.6,11.642,36.53,36.53,0,0,1,6.065,10.517,35.46,35.46,0,0,1,2.233,12.391c0,9.245-3.624,16.956-10.481,22.3A35.463,35.463,0,0,1,19.9,122.516a55.289,55.289,0,0,1-13.678,2V134.5m-2,2.022V122.544c22.429,0,36.243-10.726,36.243-28.279,0-16.415-12.027-30.231-26.653-33.154v-.489L39,13.653H0V0H63.385L34.291,55.1c13.977,6.827,22.755,20.966,22.755,38.357C57.046,119.943,36.73,136.521,4.225,136.521Z" transform="translate(0 -0.001)" fill="#414141"/>
      </g>
    </g>
    <g id="グループ_20493" data-name="グループ 20493" transform="translate(770.178 2244.66)">
      <g id="グループ_20492" data-name="グループ 20492" transform="translate(0 0)" clip-path="url(#clip-path-2)">
        <path id="パス_83474" data-name="パス 83474" d="M3.033,87.052a11,11,0,0,1,8.312-3.15,58.062,58.062,0,0,1,10.819,1.05L21,94.284a42.643,42.643,0,0,0-7.934-1.343q-2.744,0-2.741,2.218,0,.875,1.313,1.691a34.235,34.235,0,0,0,3.178,1.72,30.724,30.724,0,0,1,3.733,2.16,10.263,10.263,0,0,1,3.178,3.586,10.742,10.742,0,0,1,1.313,5.366q0,5.543-2.975,8.574t-8.427,3.033A34.121,34.121,0,0,1,.993,119.6l.639-8.691a37.554,37.554,0,0,0,8.692,1.808q2.452,0,2.45-2.158a2.581,2.581,0,0,0-1.312-2.041,24.574,24.574,0,0,0-3.178-1.866,39.1,39.1,0,0,1-3.763-2.158,9.878,9.878,0,0,1-3.208-3.558A11.125,11.125,0,0,1,0,95.392a11.512,11.512,0,0,1,3.033-8.341" transform="translate(0 41.576)" fill="#595757"/>
        <path id="パス_83475" data-name="パス 83475" d="M24.218,88.278q3.351-4.374,11-4.376T46.148,88.22q3.3,4.316,3.295,14.027t-3.381,14.377q-3.383,4.668-10.965,4.666T24.19,116.681q-3.327-4.6-3.325-14.318t3.353-14.085m14.348,6.736a3.381,3.381,0,0,0-3.441-1.9q-2.6,0-3.353,1.9t-.76,7.2v1.4q0,5.655.848,7.437t3.44,1.778q2.6,0,3.354-1.693t.757-7v-1.868q0-5.364-.845-7.261" transform="translate(10.339 41.576)" fill="#595757"/>
        <path id="パス_83476" data-name="パス 83476" d="M72.948,120.513H63.383l-7.524-16.856h-.465v16.856H46.526V84.292h9.857l7.174,17.381h.467V84.292h8.924Z" transform="translate(23.055 41.77)" fill="#595757"/>
        <path id="パス_83477" data-name="パス 83477" d="M98.234,120.513h-9.74L87.385,114.8H80.5l-1.108,5.717H70.121l6.649-36.22H91.585Zm-11.957-12.54L84.236,95.025h-.408l-2.041,12.948Z" transform="translate(34.747 41.77)" fill="#595757"/>
        <path id="パス_83478" data-name="パス 83478" d="M114.444,120.513h-19.6V84.292h20.181l-.583,8.924H104.82V98.64h8.341v7.7H104.82v6.008h10.207Z" transform="translate(46.999 41.77)" fill="#595757"/>
        <path id="パス_83479" data-name="パス 83479" d="M175.1,95.472q1.088-.2,2.566-.564t2.527-.643q1.05-.31,2.955-.912t4.258-1.225q2.351-.624,4.8-1.05a26.72,26.72,0,0,1,4.588-.429,15.71,15.71,0,0,1,6.649,1.362,11.137,11.137,0,0,1,4.7,3.986,11.34,11.34,0,0,1,1.751,6.434,12.485,12.485,0,0,1-.935,4.823,12.807,12.807,0,0,1-2.78,4.122,17.86,17.86,0,0,1-4.569,3.265,28.059,28.059,0,0,1-6.3,2.257,42.562,42.562,0,0,1-7.973,1.048l-2.761-6.259a46.054,46.054,0,0,0,7.428-.7,24.663,24.663,0,0,0,5.87-1.771,10.384,10.384,0,0,0,3.869-2.876,6.606,6.606,0,0,0,.642-7.077,5.235,5.235,0,0,0-2.215-2.119,7.785,7.785,0,0,0-3.657-.778,18.612,18.612,0,0,0-3.558.387,40.485,40.485,0,0,0-4.044,1.032q-2.082.642-4.122,1.4t-3.85,1.518q-1.808.758-3.206,1.38Z" transform="translate(86.77 44.919)" fill="#595757"/>
        <path id="パス_83480" data-name="パス 83480" d="M224.531,91.538q-.426,2.954-1.048,6.3a63.117,63.117,0,0,1-1.75,7,35.58,35.58,0,0,1-2.684,6.8,15.414,15.414,0,0,1-3.479,4.549,6.389,6.389,0,0,1-4.219,1.633,6.667,6.667,0,0,1-4.339-1.575,10.593,10.593,0,0,1-3.03-4.277,16.411,16.411,0,0,1,.29-12.558,17.361,17.361,0,0,1,3.89-5.465,18.462,18.462,0,0,1,5.831-3.733,19.014,19.014,0,0,1,7.232-1.361,18.007,18.007,0,0,1,6.707,1.186,14.587,14.587,0,0,1,8.342,8.321,16.663,16.663,0,0,1,1.125,6.165,16.366,16.366,0,0,1-1.63,7.367,14.072,14.072,0,0,1-4.938,5.483,21.423,21.423,0,0,1-8.361,3.052l-3.577-5.6q1.243-.155,2.1-.329t1.708-.371a13.555,13.555,0,0,0,3.384-1.321,9.854,9.854,0,0,0,2.605-2.1,8.866,8.866,0,0,0,1.672-2.858,10.314,10.314,0,0,0,.583-3.517,12.279,12.279,0,0,0-.643-4.084,8.629,8.629,0,0,0-1.9-3.148,8.378,8.378,0,0,0-3.091-2.023,11.733,11.733,0,0,0-4.2-.7,12.373,12.373,0,0,0-5.309,1.069,11.681,11.681,0,0,0-3.79,2.761,12.049,12.049,0,0,0-2.276,3.6,9.62,9.62,0,0,0-.757,3.538,9.776,9.776,0,0,0,.348,2.819,4.216,4.216,0,0,0,.912,1.73,1.726,1.726,0,0,0,1.265.583,1.947,1.947,0,0,0,1.458-.776,8.628,8.628,0,0,0,1.321-2.314q.644-1.537,1.344-3.791a51.468,51.468,0,0,0,1.515-5.97,60.958,60.958,0,0,0,.893-6.28Z" transform="translate(100.531 44.03)" fill="#595757"/>
        <path id="パス_83481" data-name="パス 83481" d="M232.869,91.441h7.162q-.227,3.468-.513,7.3t-.625,7.386q-.339,3.553-.74,6.338l-7.1-1.08q.4-2.672.77-6.054t.651-7.017q.285-3.636.4-6.878m1.419,0h7.844v-5h-9.888V79.165h17.731V98.772H234.288Zm8.128,11.082h7.5c-.036.721-.055,1.318-.055,1.792a11.4,11.4,0,0,1-.057,1.222q-.287,6.705-.625,11.11a52.913,52.913,0,0,1-.881,6.875,8.964,8.964,0,0,1-1.392,3.552,6.423,6.423,0,0,1-2.1,1.848,9.987,9.987,0,0,1-2.559.823,20.241,20.241,0,0,1-3.01.286q-1.824.054-3.864,0a18.586,18.586,0,0,0-.8-4.15,16.247,16.247,0,0,0-1.7-3.921q1.707.173,3.211.2c1,.021,1.792.03,2.36.03a3.969,3.969,0,0,0,1.108-.142,1.88,1.88,0,0,0,.879-.6,5.68,5.68,0,0,0,.882-2.474,50.44,50.44,0,0,0,.624-5.625q.256-3.724.483-9.691Zm-7.274,0h10.514v7.047H234.288Zm14.493,18.186q3.8-.17,8.694-.453t10.228-.655q5.341-.368,10.515-.709v7.5q-5,.455-10.087.854t-9.776.766q-4.684.37-8.608.655Zm.739-34.382q3.692-.17,8.5-.4t10.171-.511q5.373-.285,10.656-.568l-.057,6.933q-4.944.455-10,.852t-9.718.767q-4.662.37-8.526.652Zm1.192,10.457h30.516v16.992H251.566Zm8.356-20.8,8.921,1.989q-1.306,2.389-2.756,4.745t-2.842,4.434q-1.393,2.075-2.641,3.664l-6.823-1.989q1.14-1.759,2.3-3.977t2.16-4.546q.992-2.331,1.676-4.321m-.909,31.143h15.23v-3.637h-15.23Zm3.58-14.833h7.9v30.576l-7.9.226Zm7.557-9.832,6.935-3.011q1.588,1.873,3.18,4.092t2.87,4.4a25.2,25.2,0,0,1,1.964,4.065l-7.5,3.351a22.668,22.668,0,0,0-1.676-4.007q-1.166-2.243-2.67-4.573a53.014,53.014,0,0,0-3.1-4.321m1.422,34.1,6.7-2.783q1.481,2.046,2.9,4.433t2.557,4.717a23.577,23.577,0,0,1,1.648,4.261l-7.274,3.069a22.732,22.732,0,0,0-1.419-4.234q-1.025-2.358-2.36-4.829t-2.755-4.633" transform="translate(114.492 37.652)" fill="#595757"/>
        <path id="パス_83482" data-name="パス 83482" d="M279.7,79.609q1.2.114,2.644.2t2.358.085q1.306,0,2.842-.028t3.1-.085q1.561-.056,3.012-.142t2.472-.142a22.083,22.083,0,0,0,2.415-.369,12.634,12.634,0,0,0,2.074-.6l5.456,4.262c-.455.492-.872.948-1.25,1.364a6.513,6.513,0,0,0-.909,1.25q-.967,1.649-2.245,4.461t-2.643,6.024q-1.364,3.212-2.671,6.223-.852,1.99-1.733,4.093t-1.79,4.119q-.911,2.019-1.762,3.808a31.343,31.343,0,0,1-1.706,3.154,13,13,0,0,1-4.147,4.177,10.892,10.892,0,0,1-5.683,1.392,9.393,9.393,0,0,1-6.763-2.614q-2.728-2.613-2.729-7.388a13.94,13.94,0,0,1,1.593-6.564,16.39,16.39,0,0,1,4.49-5.314,21.505,21.505,0,0,1,6.848-3.523,28.419,28.419,0,0,1,8.61-1.25,40.27,40.27,0,0,1,9.745,1.165,54.854,54.854,0,0,1,8.723,2.927,68.446,68.446,0,0,1,7.276,3.667q3.239,1.9,5.456,3.38l-3.978,9.6a65.981,65.981,0,0,0-5.854-4.745,55.272,55.272,0,0,0-6.764-4.177,38.082,38.082,0,0,0-7.614-2.984,31.616,31.616,0,0,0-8.411-1.108,16.593,16.593,0,0,0-6.535,1.165,10.642,10.642,0,0,0-4.149,2.9,5.507,5.507,0,0,0-1.421,3.5,2.385,2.385,0,0,0,.54,1.7,1.768,1.768,0,0,0,1.336.568,2.115,2.115,0,0,0,1.364-.453,7.785,7.785,0,0,0,1.307-1.479,21.693,21.693,0,0,0,1.25-2.245q.624-1.279,1.307-2.785t1.364-3.126q.682-1.62,1.421-3.211.965-2.158,1.961-4.518t1.932-4.573q.938-2.219,1.733-3.809c-.568,0-1.214.01-1.932.028s-1.478.048-2.275.085-1.57.078-2.329.114-1.46.076-2.1.114q-.852.058-2.3.2t-2.584.313Zm38.476,13.98a97.861,97.861,0,0,1-1.222,11.11,38.376,38.376,0,0,1-2.785,9.293,26.884,26.884,0,0,1-5.228,7.642,33.35,33.35,0,0,1-8.5,6.166l-7.388-5.967a29.607,29.607,0,0,0,8.58-5.314,21.834,21.834,0,0,0,4.747-6.138,23.326,23.326,0,0,0,2.1-6.052,49.827,49.827,0,0,0,.71-5q.112-1.875.114-3.637a25.472,25.472,0,0,0-.17-3.126Z" transform="translate(133.813 38.914)" fill="#595757"/>
        <path id="パス_83483" data-name="パス 83483" d="M144.8,47.38a2.244,2.244,0,0,1-2.243-2.243V2.242a2.243,2.243,0,1,1,4.487,0V45.137A2.244,2.244,0,0,1,144.8,47.38" transform="translate(70.642 -0.001)" fill="#beb143"/>
        <path id="パス_83484" data-name="パス 83484" d="M137.021,58.433a2.243,2.243,0,0,1-2.128-1.534L119.521,10.784a2.243,2.243,0,1,1,4.256-1.419l15.371,46.115a2.244,2.244,0,0,1-1.418,2.839,2.27,2.27,0,0,1-.71.115" transform="translate(59.169 3.88)" fill="#beb143"/>
        <path id="パス_83485" data-name="パス 83485" d="M126.4,56.755a2.238,2.238,0,0,1-1.79-.89L92.549,13.483a2.244,2.244,0,0,1,3.579-2.707l32.06,42.382a2.243,2.243,0,0,1-1.787,3.6" transform="translate(45.636 4.899)" fill="#beb143"/>
        <path id="パス_83486" data-name="パス 83486" d="M124.652,67.426a2.225,2.225,0,0,1-1.286-.407L84.387,39.663a2.243,2.243,0,0,1,2.577-3.673l38.978,27.356a2.243,2.243,0,0,1-1.289,4.08" transform="translate(41.343 17.633)" fill="#beb143"/>
        <path id="パス_83487" data-name="パス 83487" d="M115.253,71.959a2.22,2.22,0,0,1-.657-.1L62.113,55.829a2.243,2.243,0,0,1,1.312-4.291l52.481,16.031a2.244,2.244,0,0,1-.654,4.389" transform="translate(29.992 25.49)" fill="#beb143"/>
        <path id="パス_83488" data-name="パス 83488" d="M157.869,58.433a2.27,2.27,0,0,1-.71-.115,2.244,2.244,0,0,1-1.418-2.839L171.111,9.365a2.243,2.243,0,1,1,4.256,1.419L160,56.9a2.245,2.245,0,0,1-2.128,1.534" transform="translate(77.117 3.88)" fill="#beb143"/>
        <path id="パス_83489" data-name="パス 83489" d="M174.018,56.755a2.243,2.243,0,0,1-1.787-3.6l32.06-42.382a2.244,2.244,0,0,1,3.579,2.707L175.808,55.865a2.238,2.238,0,0,1-1.79.89" transform="translate(85.121 4.899)" fill="#beb143"/>
        <path id="パス_83490" data-name="パス 83490" d="M178.058,67.426a2.243,2.243,0,0,1-1.289-4.08l38.98-27.356a2.243,2.243,0,0,1,2.575,3.673l-38.98,27.356a2.222,2.222,0,0,1-1.286.407" transform="translate(87.121 17.632)" fill="#beb143"/>
        <path id="パス_83491" data-name="パス 83491" d="M191.932,71.959a2.243,2.243,0,0,1-.652-4.389l52.48-16.031a2.243,2.243,0,0,1,1.312,4.291L192.589,71.86a2.22,2.22,0,0,1-.657.1" transform="translate(93.997 25.49)" fill="#beb143"/>
      </g>
    </g>
    <g id="グループ_20563" data-name="グループ 20563" transform="translate(956.598 2321.138)" clip-path="url(#clip-path-3)">
      <path id="パス_83677" data-name="パス 83677" d="M4.225,122.544c22.429,0,36.243-10.726,36.243-28.279,0-16.415-12.027-30.231-26.653-33.154v-.489L39,13.653H0V0H63.385L34.291,55.1c13.977,6.827,22.755,20.966,22.755,38.357,0,26.49-20.315,43.068-52.821,43.068Z" transform="translate(0 -0.001)" fill="#c7bb5d"/>
      <path id="パス_83677_-_アウトライン" data-name="パス 83677 - アウトライン" d="M6.225,134.5c14.593-.319,26.78-4.15,35.336-11.128a35.535,35.535,0,0,0,9.984-12.844,40.793,40.793,0,0,0,3.5-17.074A45.721,45.721,0,0,0,53.524,81.6,40.1,40.1,0,0,0,49.2,71.342a37.463,37.463,0,0,0-15.782-14.45l-1.855-.906L60.067,2H2v9.653H42.347L16.57,59.715a35.286,35.286,0,0,1,17.6,11.642,36.53,36.53,0,0,1,6.065,10.517,35.46,35.46,0,0,1,2.233,12.391c0,9.245-3.624,16.956-10.481,22.3A35.463,35.463,0,0,1,19.9,122.516a55.289,55.289,0,0,1-13.678,2V134.5m-2,2.022V122.544c22.429,0,36.243-10.726,36.243-28.279,0-16.415-12.027-30.231-26.653-33.154v-.489L39,13.653H0V0H63.385L34.291,55.1c13.977,6.827,22.755,20.966,22.755,38.357C57.046,119.943,36.73,136.521,4.225,136.521Z" transform="translate(0 -0.001)" fill="#414141"/>
    </g>
  </g>
</svg>
