<?xml version="1.0" encoding="UTF-8"?><svg id="_レイヤー_1" xmlns="http://www.w3.org/2000/svg" viewBox="0 0 80 80"><defs><style>.cls-1{fill:#b4b4b5;}</style></defs><path id="_パス_81899" class="cls-1" d="M34.43,35.84c-.37,0-.73-.15-1-.41L.42,2.41C-.13,1.87-.14.98.4.42s1.43-.57,1.99-.02c0,0,.01.01.02.02l33.02,33.02c.55.55.55,1.44,0,1.99-.26.26-.62.41-1,.41"/><path id="_パス_81900" class="cls-1" d="M78.6,80c-.37,0-.73-.15-1-.41l-33.02-33.02c-.54-.55-.53-1.44.02-1.99.55-.53,1.42-.53,1.96,0l33.02,33.02c.55.55.55,1.44,0,1.99-.26.26-.62.41-1,.41"/><path id="_パス_81901" class="cls-1" d="M45.58,35.84c-.78,0-1.41-.62-1.41-1.4,0-.37.15-.73.41-1L77.6.42c.56-.54,1.44-.53,1.99.02.53.55.53,1.42,0,1.96l-33.02,33.02c-.26.26-.62.41-1,.41"/><path id="_パス_81902" class="cls-1" d="M1.41,80c-.78,0-1.41-.62-1.41-1.4,0-.37.15-.73.41-1l33.02-33.02c.55-.54,1.44-.53,1.99.02.53.55.53,1.42,0,1.96L2.4,79.59c-.26.26-.62.41-1,.41"/></svg>