<svg xmlns="http://www.w3.org/2000/svg" width="198.839" height="98.488" viewBox="0 0 198.839 98.488">
  <g id="グループ_29655" data-name="グループ 29655" transform="translate(-859.494 -1177.731)">
    <path id="パス_149526" data-name="パス 149526" d="M9.537,0H189.3a9.537,9.537,0,0,1,9.537,9.537V88.951a9.537,9.537,0,0,1-9.537,9.537H9.537A9.537,9.537,0,0,1,0,88.951V9.537A9.537,9.537,0,0,1,9.537,0Z" transform="translate(859.494 1177.731)" fill="#eae35a"/>
    <path id="パス_81911" data-name="パス 81911" d="M653.69,28.881a48.868,48.868,0,0,1,5.873,3.47,30.19,30.19,0,0,0,2.869-6.629l3.737,1.135a40.481,40.481,0,0,1-3.715,7.63,45.6,45.6,0,0,1,4.471,4.049l-2.892,3.07a40.953,40.953,0,0,0-3.893-3.982,26.026,26.026,0,0,1-9.41,6.985l-2.269-2.825A22.286,22.286,0,0,0,657.45,35.4a43.035,43.035,0,0,0-6.028-3.826Z" transform="translate(239.948 1165.616)" fill="#637389"/>
    <path id="パス_81912" data-name="パス 81912" d="M692.3,33.31a25.913,25.913,0,0,0-4.049-6.184l3.026-1.735a27.127,27.127,0,0,1,4.36,5.873Zm-2.648,6.829c5.806-1.535,10.722-3.848,12.636-13.08l3.871.89c-1.891,7.363-4.894,12.791-14.192,15.282ZM703.51,22.276a17.339,17.339,0,0,1,1.669,4.294l-1.89.667a17.2,17.2,0,0,0-1.558-4.271Zm3.4-.044a18.922,18.922,0,0,1,1.579,4.338l-1.913.689a16.95,16.95,0,0,0-1.468-4.382Z" transform="translate(221.207 1167.26)" fill="#637389"/>
    <path id="パス_81913" data-name="パス 81913" d="M733.635,25.428h3.559v2.558h5.65v3a40.428,40.428,0,0,1-5.65,5.295v8.164h-3.559V38.575a37.117,37.117,0,0,1-6.451,2.714l-1.713-3.181c7.5-1.935,10.967-5.093,12.835-6.873l-11.211.067V27.986h6.54ZM743.823,41.6a27.319,27.319,0,0,0-5.918-3.8l1.98-2.647a26.727,26.727,0,0,1,5.85,3.292Z" transform="translate(203.675 1165.754)" fill="#637389"/>
    <path id="パス_81914" data-name="パス 81914" d="M769.538,40.794a23,23,0,0,0-1.757-5.606l2.8-.756a24.173,24.173,0,0,1,1.958,5.651Zm-.267,5.116c7.607-1.712,9.81-4.582,11.233-12.256l3.448.823c-1.134,4.961-2.8,11.745-12.413,14.1ZM774.5,39.7a26.843,26.843,0,0,0-1.557-5.562l2.8-.556a21.148,21.148,0,0,1,1.647,5.472Z" transform="translate(183.746 1161.912)" fill="#637389"/>
    <path id="パス_81915" data-name="パス 81915" d="M820.5,38.817a40.733,40.733,0,0,0-8.431-4.494V44.445h-3.827V25.47h3.827v5.138a49.727,49.727,0,0,1,10.321,4.516Z" transform="translate(164.689 1165.734)" fill="#637389"/>
    <path id="パス_81916" data-name="パス 81916" d="M851.476,26.7h5.606v1.847h-5.606v.734h5.116V31.15h-13.48V29.282h5.094v-.734H842.6V26.7h5.606v-.734c-2.4.044-3.07.044-4.739.022l-.222-1.668a11.026,11.026,0,0,1-1.58,1.958V31.2h-3.314v-2.18a9.339,9.339,0,0,1-1.224.668L835.7,26.746A10.7,10.7,0,0,0,840.4,23.12l2.781.8V23.81a69.809,69.809,0,0,0,12.3-.779l1.224,2.291a41.125,41.125,0,0,1-5.228.512Zm4.4,17.841a25.124,25.124,0,0,1-7.83-2.135l1.624-1.623h-6.318l1.668,1.557a22.64,22.64,0,0,1-7.942,2.158l-1.312-2.8a21.545,21.545,0,0,0,5.761-.912h-3.648V31.773h17.262v9.009H851.41a20.614,20.614,0,0,0,5.85.956Zm-4.048-11.056H841.154v.823h10.678Zm0,2.224H841.154v.8h10.678Zm0,2.269H841.154v.8h10.678Z" transform="translate(151.752 1166.884)" fill="#637389"/>
    <path id="パス_81917" data-name="パス 81917" d="M884.767,30.475H881.5V28.984a9.145,9.145,0,0,1-1.6.823l-1.335-3.092A9.932,9.932,0,0,0,883.388,23l3.048,1.045a22.077,22.077,0,0,1-1.669,2.114Zm.934-2.292-.089-2.691,3.693-.178c-.245-.556-.423-.979-.779-2l3.359-.267a13.841,13.841,0,0,0,.822,2.091l2.225-.111a9.558,9.558,0,0,0-1.268-1.046l2.469-1.2a13.293,13.293,0,0,1,2.447,2.069l1.268-.045.111,2.67-5.383.267c.2.2,1.312,1.268,2.114,1.268.533,0,.889-.711,1.134-1.379l2.492,1.646c-.422,1.135-1.112,2.469-2.292,2.759v8.653h-4.048a19.187,19.187,0,0,0,6.139.89l-1.357,2.936a20.9,20.9,0,0,1-7.83-2.247l1.557-1.58h-6.162l1.379,1.58a22.133,22.133,0,0,1-7.652,2.224l-1.335-2.936a22.032,22.032,0,0,0,5.984-.868h-3.893V30.92h12.88a10.534,10.534,0,0,1-2.914-3Zm8.942,4.672H884.189v.868h10.455Zm0,2.447H884.189v.868h10.455Zm0,2.469H884.189v.89h10.455Z" transform="translate(131.565 1167.003)" fill="#637389"/>
    <path id="パス_81918" data-name="パス 81918" d="M723.75,122.726h-9.942l-7.819-17.519H705.5v17.519H696.29V85.082h10.245l7.456,18.064h.485V85.082h9.275Z" transform="translate(217.42 1137.656)" fill="#637389"/>
    <path id="パス_81919" data-name="パス 81919" d="M755.763,115.1q0-7.97,3.062-11.548T768.4,99.98q6.516,0,9.487,3.516t2.97,11.548q0,8.033-2.91,11.669t-9.517,3.637q-6.609,0-9.638-3.637T755.763,115.1m14.578-5.728a1.819,1.819,0,0,0-1.97-1.212,1.87,1.87,0,0,0-2,1.212,19.014,19.014,0,0,0-.424,5.092v1.455a22.321,22.321,0,0,0,.424,5.577,2.161,2.161,0,0,0,3.94,0,20.157,20.157,0,0,0,.424-5.214v-1.758a20.824,20.824,0,0,0-.394-5.152" transform="translate(189.406 1130.639)" fill="#637389"/>
    <path id="パス_81920" data-name="パス 81920" d="M807.444,144.189a4.694,4.694,0,0,1,1.273-3.607,7.568,7.568,0,0,1,8.123,0,4.869,4.869,0,0,1,1.273,3.728q0,4.669-5.335,4.668t-5.334-4.789" transform="translate(165.064 1112.071)" fill="#637389"/>
    <path id="パス_81921" data-name="パス 81921" d="M847.7,116.716H835.764V83.69h-5.147V76.184l7.291-3.86H847.7Z" transform="translate(154.149 1143.665)" fill="#637389"/>
  </g>
</svg>
