<svg xmlns="http://www.w3.org/2000/svg" width="198.839" height="98.488" viewBox="0 0 198.839 98.488">
  <g id="グループ_29654" data-name="グループ 29654" transform="translate(-545.391 -1177.731)">
    <path id="パス_83636" data-name="パス 83636" d="M11.354,0H187.485a11.353,11.353,0,0,1,11.353,11.353V87.135a11.353,11.353,0,0,1-11.353,11.353H11.354A11.354,11.354,0,0,1,0,87.134V11.354A11.354,11.354,0,0,1,11.354,0Z" transform="translate(545.391 1177.731)" fill="#eae35a"/>
    <path id="パス_81903" data-name="パス 81903" d="M111.191,33.054h-4.36V30.028H118.91v3.025h-4.4v2.113h6.451v3.047h-6.451v2.647c.378.023.6.045,1.2.045h7.941l-.69,3.314h-7.852c-4.516,0-6.385-1.712-7.875-3.515a11.429,11.429,0,0,1-2.914,4L102.026,42c.823-.711,3.181-2.781,3.827-8.23l3.225.423a21.563,21.563,0,0,1-.756,3.6,5.779,5.779,0,0,0,2.869,2.4Zm3.337-9.477v1.58h8.32V30.94h-3.315V28.115H106.208V30.94h-3.315V25.157h8.275v-1.58Z" transform="translate(497.333 1166.626)" fill="#637389"/>
    <path id="パス_81904" data-name="パス 81904" d="M155.843,42.484l-1.468,1.223a23,23,0,0,0-2.358-3.225l2.069-1.4h-5.116l2.335,1.268a12.606,12.606,0,0,1-3.315,4.36l-2.224-2.18A14.079,14.079,0,0,0,148.7,39.08H146.01V36.233h1.38V27.958h-1.112v-2.87h1.112V23.62H150.5v1.468h2.87V23.62h3.092v1.468h1.2v2.87h-1.2v8.275h1.357a29.2,29.2,0,0,0,.2-3.471v-8.7h8.409V42.573c0,1.936-1.135,2.024-2.136,2.024h-3l-.556-3.137h1.891c.645,0,.645-.423.645-.8V37.923h-2.558a14.3,14.3,0,0,1-2.4,6.762ZM150.5,29.048h2.87v-1.09H150.5Zm0,3.6h2.87V31.472H150.5Zm0,3.582h2.87V34.92H150.5Zm3.849,2.847a17.152,17.152,0,0,1,1.935,2.292,9.767,9.767,0,0,0,.979-2.292Zm6.584-6.473-.067,2.358h2.4V32.607Zm0-2.87h2.336V27.312h-2.336Z" transform="translate(476.731 1166.606)" fill="#637389"/>
    <path id="パス_81905" data-name="パス 81905" d="M194.409,44.542H191.25V34.91a11.717,11.717,0,0,1-1.046,1.135l-.867-4.827c2.314-2.825,2.8-6.83,2.914-7.808l3.292.267a29.071,29.071,0,0,1-1.135,5.005Zm6.918-21.021v2.068h3.158V23.521h3.292v2.068h2.38V28.5h-2.38v1.579h2.892v2.936H195.143V30.083H198.1V28.5h-2.425V25.589H198.1V23.521ZM209.269,44.1H196.522V34.02h12.747ZM206,36.422H199.77v1.335H206Zm0,3.671H199.77V41.45H206ZM204.486,28.5h-3.159v1.579h3.159Z" transform="translate(456.208 1166.706)" fill="#637389"/>
    <path id="パス_81906" data-name="パス 81906" d="M239.885,31.835h-1.09v5.651c.467-.134.756-.245,1.468-.49l.067,3.115a50.369,50.369,0,0,1-6.74,2.291l-.512-3.537c.6-.089,1-.156,2.447-.467V31.835h-2.09v-3.2h2.09V23.493h3.27v5.138h1.535v1.6l.8-.222V25.5h3.115V29.21L246,28.765V23.493h3.115v4.449l4.938-1.268c.022,2.514-.156,7.83-.379,9.365a2.178,2.178,0,0,1-2.158,2.224H249.9l-.623-3.292h.712c.69,0,.934,0,.956-4.071l-1.824.467v7.964H246V32.191l-1.757.445v7.853c0,.244.111.512.6.512h5.65c.711,0,1.023,0,1.112-2.514l3.047.689c-.133,2.759-.445,5.095-2.914,5.095h-8.1c-2.4,0-2.514-1.58-2.514-2.425V33.437l-1.045.289Z" transform="translate(435.605 1166.666)" fill="#637389"/>
    <path id="パス_81907" data-name="パス 81907" d="M129.953,122.726h-9.942l-7.819-17.519h-.485v17.519h-9.214V85.082h10.245l7.456,18.064h.485V85.082h9.275Z" transform="translate(497.114 1137.656)" fill="#637389"/>
    <path id="パス_81908" data-name="パス 81908" d="M161.966,115.1q0-7.97,3.062-11.548T174.6,99.98q6.516,0,9.487,3.516t2.97,11.548q0,8.033-2.91,11.669t-9.517,3.637q-6.609,0-9.638-3.637T161.966,115.1m14.578-5.728a1.819,1.819,0,0,0-1.97-1.212,1.871,1.871,0,0,0-2,1.212,19.018,19.018,0,0,0-.424,5.092v1.455a22.325,22.325,0,0,0,.424,5.577,2.161,2.161,0,0,0,3.94,0,20.159,20.159,0,0,0,.424-5.214v-1.758a20.817,20.817,0,0,0-.394-5.152" transform="translate(469.1 1130.639)" fill="#637389"/>
    <path id="パス_81909" data-name="パス 81909" d="M213.647,144.189a4.694,4.694,0,0,1,1.273-3.607,7.568,7.568,0,0,1,8.123,0,4.869,4.869,0,0,1,1.273,3.728q0,4.669-5.335,4.668t-5.334-4.789" transform="translate(444.757 1112.071)" fill="#637389"/>
    <path id="パス_81910" data-name="パス 81910" d="M253.905,116.716H241.967V83.69H236.82V76.184l7.291-3.86h9.794Z" transform="translate(433.842 1143.665)" fill="#637389"/>
  </g>
</svg>
