<svg xmlns="http://www.w3.org/2000/svg" width="198.839" height="98.488" viewBox="0 0 198.839 98.488">
  <g id="グループ_29656" data-name="グループ 29656" transform="translate(-1175.772 -1177.731)">
    <path id="パス_83637" data-name="パス 83637" d="M11.354,0h176.13a11.354,11.354,0,0,1,11.354,11.354V87.134a11.354,11.354,0,0,1-11.354,11.354H11.354A11.354,11.354,0,0,1,0,87.134V11.354A11.354,11.354,0,0,1,11.354,0Z" transform="translate(1175.772 1177.731)" fill="#eae35a"/>
    <path id="パス_81926" data-name="パス 81926" d="M1288.658,64.516a26.421,26.421,0,0,1-6.985-7.318V69.744h-3.537V58.621a28.41,28.41,0,0,1-7.207,5.828l-1.824-3.381c4.961-2.38,8.052-5.628,9.365-8.364h-9.076V49.256h21.044V52.7h-8.3a21.782,21.782,0,0,1-1.045,1.958h.578v1.557l2.292-1.335a23.556,23.556,0,0,0,6.851,6.34Z" transform="translate(-52.391 1154.531)" fill="#637389"/>
    <path id="パス_81927" data-name="パス 81927" d="M1325.411,68.071c-.712.067-4.2.312-4.983.356-.756.022-5.25.178-6.228.223l-.178-2.6c.668.022,3.959-.089,4.694-.112V64.912h-4.2V62.687h4.2v-.778h-4.071V54.346h4.071v-.69h-4.6V51.342h4.6v-.668c-1.046.023-3.181.067-4.138.045l-.289-2.292a66.56,66.56,0,0,0,10.722-.645l.779,2.314c-.8.111-1.379.2-4.137.423v.823h4.516v.534h1.312V47.961h3.226v3.915h4.049c0,.934,0,12.346-.645,14.86-.333,1.245-.778,2.269-2.6,2.269h-2.268l-.556-3.248a12.908,12.908,0,0,1-2.158,3.292Zm-8.1-10.745h1.4V56.147h-1.4Zm0,2.648h1.4V58.816h-1.4Zm8.831-4.805V53.656h-4.493v.69h4.07v7.563h-4.07v.778h4.249v1.2c.712-1.335,1.468-3.337,1.579-8.721Zm-4.493,2.158h1.446V56.147h-1.446Zm0,2.648h1.446V58.816h-1.446Zm0,4.938v.912c1.312-.089,1.713-.111,3.2-.2.267-.356.356-.512.49-.712Zm8.609.69c.823,0,.913-.178,1.046-1.135a92.561,92.561,0,0,0,.4-9.3h-1a29.772,29.772,0,0,1-1.935,10.433Z" transform="translate(-73.548 1155.225)" fill="#637389"/>
    <path id="パス_81928" data-name="パス 81928" d="M1363.573,61.744l-1.535-1.179c-.022.823-.156,5.673-1.98,8.5l-2.758-2.447a11.971,11.971,0,0,0,1.535-6.584V53.447h3.559a9.72,9.72,0,0,0-.378-1.535h-3.27V49.087h7.652V47.953h3.448v1.134h7.764v2.825h-3.2a13.282,13.282,0,0,1-.512,1.535h4.716v2.8h-6.674v1.468h5.828V60.41h-5.828V61.7h5.005v2.536h-5.005v1.357h6.674v2.914h-16.884V65.593h6.985V64.236h-5.139Zm-1.513-5.494v3.582a10.177,10.177,0,0,0,2.047-3.582Zm6.652,1.468V56.25h-4.405l2.825.489a8.733,8.733,0,0,1-.356.979Zm0,3.982V60.41h-3.226a11.258,11.258,0,0,1-.846,1.29Zm-3.292-9.788a12.467,12.467,0,0,1,.4,1.535h4.671c.2-.734.267-.956.4-1.535Z" transform="translate(-93.933 1155.145)" fill="#637389"/>
    <path id="パス_81929" data-name="パス 81929" d="M1434.288,70.157h-10.336l-1.175-6.065h-7.3l-1.176,6.065h-9.841l7.056-38.434h15.72ZM1421.6,56.851l-2.166-13.74H1419l-2.166,13.74Z" transform="translate(-116.145 1162.789)" fill="#637389"/>
    <rect id="長方形_9304" data-name="長方形 9304" width="10.521" height="38.434" transform="translate(1324.455 1194.512)" fill="#637389"/>
    <path id="パス_81930" data-name="パス 81930" d="M1255.145,124.322c.734.512,2,1.4,3.493,2.647a15.442,15.442,0,0,0,5.316-5.383h-13.925v-3.4h19.153c-1.113,5.294-4.182,8.275-8.031,11.056,1.758,1.779,1.958,1.958,3.27,3.493l-3.137,2.58a39.62,39.62,0,0,0-8.876-8.609Z" transform="translate(-43.405 1122.065)" fill="#637389"/>
    <rect id="長方形_9305" data-name="長方形 9305" width="19.041" height="3.67" transform="translate(1227.068 1246.187)" fill="#637389"/>
    <path id="パス_81931" data-name="パス 81931" d="M1328.575,130.977c5.138-1,8.342-2.358,8.786-9.165h-4.515a14.524,14.524,0,0,1-3.693,4.338l-2.58-2.424a13.485,13.485,0,0,0,5.072-9.076l3.737.356a26.525,26.525,0,0,1-1,3.47h11.59v3.337h-4.828c-.534,6.273-2.781,10.7-10.9,12.324Z" transform="translate(-79.46 1123.729)" fill="#637389"/>
    <path id="パス_81932" data-name="パス 81932" d="M1367.449,131.66c6.362-.979,6.829-3.315,7.118-6.607h-7.83v-3.292h18.286v3.292h-6.807c-.356,5.606-2.6,8.5-9.343,9.788Zm15.861-12.1h-14.86v-3.27h14.86Z" transform="translate(-98.378 1122.957)" fill="#637389"/>
    <path id="パス_81933" data-name="パス 81933" d="M1417.957,137.038h-3.292V129.92a32.2,32.2,0,0,1-5.939,2.669l-1.446-2.87a26.484,26.484,0,0,0,12.992-8.72l2.714,2.046a30.506,30.506,0,0,1-5.027,4.671Z" transform="translate(-117.474 1120.737)" fill="#637389"/>
    <path id="パス_81934" data-name="パス 81934" d="M1451.357,123.2a28.35,28.35,0,0,0-6.94-3.381l1.58-3.026a28.5,28.5,0,0,1,7.229,3.181Zm-6.518,7.564c7.474-.645,12.791-3.226,15.349-13.014l3.115,2.158c-2.981,9.765-8.431,13.525-17.662,14.681Z" transform="translate(-134.967 1122.719)" fill="#637389"/>
    <path id="パス_81935" data-name="パス 81935" d="M1481.845,129.616c9.432-1.313,11.746-6.985,12.68-11.523H1488.3a16.3,16.3,0,0,1-5.272,5.272l-2.269-2.625a12.723,12.723,0,0,0,5.227-5.917h9.054l2.892,3.892c-1.313,5.695-3.893,12.28-14.637,14.192Zm14.993-17.084a19.53,19.53,0,0,1,2.514,4.048l-1.58,1.046a18.181,18.181,0,0,0-2.4-4.115Zm2.936-.868a18.806,18.806,0,0,1,2.469,4.093l-1.579,1.024a19.123,19.123,0,0,0-2.38-4.16Z" transform="translate(-152.083 1125.135)" fill="#637389"/>
  </g>
</svg>
