<svg xmlns="http://www.w3.org/2000/svg" width="298.097" height="149.594" viewBox="0 0 298.097 149.594">
  <g id="グループ_21520" data-name="グループ 21520" transform="translate(-797.951 -2622.993)">
    <path id="パス_81954" data-name="パス 81954" d="M0,0H298.1V78.912H0Z" transform="translate(797.951 2622.993)" fill="#fff"/>
    <path id="パス_81954_-_アウトライン" data-name="パス 81954 - アウトライン" d="M6,6V72.912H292.1V6H6M0,0H298.1V78.912H0Z" transform="translate(797.951 2622.993)" fill="#bfae0a"/>
    <path id="パス_88530" data-name="パス 88530" d="M-102.307,0h-12.42V-27.12h-4.2V-33.9l6.66-3.36h9.96Zm21.78-18v-1.14q0-7.26-1.26-8.22a2.581,2.581,0,0,0-1.56-.48,3.565,3.565,0,0,0-1.38.21,1.616,1.616,0,0,0-.78.84,10.388,10.388,0,0,0-.48,1.17,13.854,13.854,0,0,0-.36,3.84V-18a45.739,45.739,0,0,0,.33,6.81,4.018,4.018,0,0,0,.96,2.34,2.744,2.744,0,0,0,1.77.51,2.2,2.2,0,0,0,2.34-1.98A44.868,44.868,0,0,0-80.527-18Zm9.18-14.76a17.087,17.087,0,0,1,2.22,5.94,47.286,47.286,0,0,1,.6,8.25,47.286,47.286,0,0,1-.6,8.25,16.484,16.484,0,0,1-2.22,5.88Q-74.347.6-83.437.6t-12.15-5.04a16.9,16.9,0,0,1-2.25-5.88,44.879,44.879,0,0,1-.63-8.22,47.606,47.606,0,0,1,.6-8.25,17.094,17.094,0,0,1,2.22-5.97q3.12-5.1,12.18-5.1T-71.347-32.76ZM-48.187-18v-1.14q0-7.26-1.26-8.22a2.581,2.581,0,0,0-1.56-.48,3.565,3.565,0,0,0-1.38.21,1.616,1.616,0,0,0-.78.84,10.386,10.386,0,0,0-.48,1.17,13.854,13.854,0,0,0-.36,3.84V-18a45.739,45.739,0,0,0,.33,6.81,4.018,4.018,0,0,0,.96,2.34,2.744,2.744,0,0,0,1.77.51,2.2,2.2,0,0,0,2.34-1.98A44.868,44.868,0,0,0-48.187-18Zm9.18-14.76a17.087,17.087,0,0,1,2.22,5.94,47.286,47.286,0,0,1,.6,8.25,47.286,47.286,0,0,1-.6,8.25,16.484,16.484,0,0,1-2.22,5.88Q-42.007.6-51.1.6t-12.15-5.04a16.9,16.9,0,0,1-2.25-5.88,44.879,44.879,0,0,1-.63-8.22,47.606,47.606,0,0,1,.6-8.25,17.094,17.094,0,0,1,2.22-5.97q3.12-5.1,12.18-5.1T-39.007-32.76ZM-18.4-16.146-23.573,0H-27.4l5.148-16.146Zm-10.634,5.772v-1.118a4.05,4.05,0,0,0-.091-1.118q-.091-.234-.208-.494a.508.508,0,0,0-.52-.26.891.891,0,0,0-.585.156q-.364.26-.364,2.5v.338a13.334,13.334,0,0,0,.1,2.106,1.169,1.169,0,0,0,.3.676.83.83,0,0,0,.533.156.67.67,0,0,0,.7-.611A13.43,13.43,0,0,0-29.033-10.374Zm-.884-6.032q2.678,0,3.6,1.4a8.327,8.327,0,0,1,.923,4.459,8.183,8.183,0,0,1-.923,4.433q-.923,1.378-3.588,1.378t-3.614-1.391a8.009,8.009,0,0,1-.949-4.42,8.242,8.242,0,0,1,.936-4.446Q-32.6-16.406-29.917-16.406ZM-14.993-5.382V-6.5a4.05,4.05,0,0,0-.091-1.118q-.091-.234-.208-.494a.508.508,0,0,0-.52-.26.891.891,0,0,0-.585.156q-.364.26-.364,2.5v.338a13.334,13.334,0,0,0,.1,2.106,1.169,1.169,0,0,0,.3.676.83.83,0,0,0,.533.156.67.67,0,0,0,.7-.611A13.43,13.43,0,0,0-14.993-5.382Zm-.884-6.032q2.678,0,3.6,1.4a8.327,8.327,0,0,1,.923,4.459,8.183,8.183,0,0,1-.923,4.433Q-13.2.26-15.864.26t-3.614-1.391a8.009,8.009,0,0,1-.949-4.42A8.242,8.242,0,0,1-19.491-10Q-18.555-11.414-15.877-11.414Zm14.612,10.4A9.477,9.477,0,0,1,.269,1.144,16.355,16.355,0,0,0,5.287-4.472a17.888,17.888,0,0,0-.078,1.95V-.286a15.715,15.715,0,0,1-.13,2.392h2.86A15.353,15.353,0,0,1,7.783-.338v-2.21c0-.65,0-1.04-.052-1.976,1.508,2.6,2.5,3.64,5.434,5.746a12.408,12.408,0,0,1,1.43-2.652,14.81,14.81,0,0,1-3.874-2.86A10.2,10.2,0,0,1,9.083-6.24h2.548a15.426,15.426,0,0,1,2.444.13V-8.918a14.136,14.136,0,0,1-2.574.156H7.783V-10.4h2.938a21.239,21.239,0,0,1,2.5.1c-.052-.676-.078-1.508-.078-2.522v-5.85a21.748,21.748,0,0,1,.078-2.5,13.986,13.986,0,0,1-2.158.1H2.427a18.139,18.139,0,0,1-2.34-.1,17.927,17.927,0,0,1,.1,2.444v6.032a14.214,14.214,0,0,1-.1,2.392,19.667,19.667,0,0,1,2.366-.1H5.235v1.638H1.907A13.8,13.8,0,0,1-.667-8.918V-6.11a15.227,15.227,0,0,1,2.444-.13h1.95A13.716,13.716,0,0,1-1.265-1.326V-4.342c0-.962.026-1.352.052-1.872a13.17,13.17,0,0,1-1.716.078H-6.907a13.909,13.909,0,0,1-2.028-.078,15.708,15.708,0,0,1,.1,2.028V-.364c0,.806-.052,1.69-.13,2.522h2.678V.936h2.574v.858h2.548a12.5,12.5,0,0,1-.1-1.82Zm6.5-17.758v1.846h-2.6v-1.846Zm2.548,0h2.834v1.846H7.783Zm-2.548,4.03v2.08h-2.6v-2.08Zm2.548,0h2.834v2.08H7.783ZM-6.361-3.926h2.678v2.548H-6.361ZM-8.935-18.512a15.468,15.468,0,0,1,2.106-.1h3.458a15.713,15.713,0,0,1,2.106.1v-2.6a11.249,11.249,0,0,1-2.106.13H-6.829a11.081,11.081,0,0,1-2.106-.13Zm-.858,3.77a15.963,15.963,0,0,1,2.106-.1h4.862a18.611,18.611,0,0,1,1.976.078V-17.42a14.072,14.072,0,0,1-2.106.1H-7.687a11.592,11.592,0,0,1-2.106-.13Zm.91,3.64a13.167,13.167,0,0,1,1.638-.078h4.316a12.986,12.986,0,0,1,1.612.078V-13.52a11.882,11.882,0,0,1-1.612.078H-7.245a12.882,12.882,0,0,1-1.638-.078Zm0,3.692a13.167,13.167,0,0,1,1.638-.078h4.29a13.167,13.167,0,0,1,1.638.078V-9.828a11.882,11.882,0,0,1-1.612.078H-7.245a13.167,13.167,0,0,1-1.638-.078Zm29.016-7.7H18.469a10.942,10.942,0,0,1-2.08-.13v2.756a10.777,10.777,0,0,1,2.08-.13h1.3A21.871,21.871,0,0,1,18.261-9a18.485,18.485,0,0,1-2.444,3.562,9.361,9.361,0,0,1,1.326,2.7,16.731,16.731,0,0,0,3.146-5.98c-.052.65-.156,2.7-.156,3.2v4.5a25.8,25.8,0,0,1-.156,3.2h3.016a20.709,20.709,0,0,1-.156-3.2v-5.2c0-.832-.078-2.34-.156-2.964a13.41,13.41,0,0,0,2,3.432,16.083,16.083,0,0,1,.936-2.028l.234-.468a12.006,12.006,0,0,1-2.756-4,2.247,2.247,0,0,1-.182-.364h.728a11.412,11.412,0,0,1,1.82.1v-2.7a11,11,0,0,1-1.82.1h-.806V-18.59a24.748,24.748,0,0,0,2.444-.884c.39-.182.416-.208.676-.312l-1.612-2.262a5.76,5.76,0,0,1-1.118.6,23.8,23.8,0,0,1-6.812,1.638,7.431,7.431,0,0,1,1.014,2.392c1.352-.208,1.82-.286,2.7-.468Zm8.112-1.534a16.837,16.837,0,0,1-2.08-.1c.052.6.078,1.274.078,1.9v4.68c0,.728-.026,1.352-.078,1.95a16.671,16.671,0,0,1,2.054-.1h.39c0,4.16-1.56,6.812-4.914,8.346a7.472,7.472,0,0,1,1.924,2.288,9.249,9.249,0,0,0,4.524-4.758A15.7,15.7,0,0,0,31.365-8.32H33V-.312c0,1.716.624,2.21,2.86,2.21,2.444,0,3.276-.182,3.77-.884.468-.624.624-1.43.806-4.264A7.343,7.343,0,0,1,38-4.42C37.943-.832,37.891-.7,36.825-.7c-.988,0-1.118-.052-1.118-.546V-8.32h1.17a18.467,18.467,0,0,1,2.158.1,14.305,14.305,0,0,1-.1-1.924v-4.784a12.733,12.733,0,0,1,.1-1.82,17.9,17.9,0,0,1-2.158.1h-.806a36.034,36.034,0,0,0,2.158-4.342l-2.886-.936a21.74,21.74,0,0,1-2.106,5.278Zm.6,2.5h7.306v3.276H28.843Zm2.7-3.77a22.71,22.71,0,0,0-2.158-4.03l-2.522,1.17a17.358,17.358,0,0,1,2.132,4Zm15.678.078H44.859a18.731,18.731,0,0,1-2.574-.156v2.834a16.728,16.728,0,0,1,2.418-.13h4.81A25.212,25.212,0,0,1,48.5-9.776c-.988-1.144-1.43-1.638-1.638-1.846-1.534-1.586-1.534-1.586-2.054-2.106l-1.9,1.924a47.3,47.3,0,0,1,4.42,4.784A18.045,18.045,0,0,1,42-.65a9.305,9.305,0,0,1,1.976,2.418,25.552,25.552,0,0,0,5.174-6.422,37.344,37.344,0,0,1,2.99,4.5l2.054-2.288C52.347-5.044,52.139-5.33,50.5-7.41a26.634,26.634,0,0,0,1.768-7.878,19.4,19.4,0,0,1,2.028.078v-2.782a13.885,13.885,0,0,1-2.5.156H49.955v-1.456a20.634,20.634,0,0,1,.13-2.444H47.069a12.314,12.314,0,0,1,.156,2.444Zm13.416,3.952v12.4c0,.546-.156.624-1.56.624a26.121,26.121,0,0,1-3.146-.312,8.616,8.616,0,0,1,.806,2.886c1.04.078,2,.1,3.068.1,1.716,0,2.652-.26,3.146-.884.39-.468.468-.91.468-2.262V-13.884h.338a15.11,15.11,0,0,1,1.82.078c.39.052.39.052.6.078V-16.64a14.909,14.909,0,0,1-2.444.156h-.312v-2.054a23.413,23.413,0,0,1,.156-3.094h-3.12a17.443,17.443,0,0,1,.182,3.094v2.054h-3.3a15.79,15.79,0,0,1-2.47-.13v2.86a16.2,16.2,0,0,1,2.47-.13ZM53.543-11a23.179,23.179,0,0,1,3.64,6.292l2.366-1.56a32.65,32.65,0,0,0-3.666-6.006Zm34.216.312c1.092,0,1.768.026,2.444.078a19.367,19.367,0,0,1-.1-2.288v-1.95a20.535,20.535,0,0,1,.1-2.288,23.774,23.774,0,0,1-2.73.1H83.547c.78-.7,1.17-1.092,1.872-1.794.286-.338.39-.416.624-.676l-1.456-1.326c-.286.052-1.612.1-2.5.1H77.879l.988-1.144-3.2-.52a13.851,13.851,0,0,1-2.834,3.146A18.875,18.875,0,0,1,67.973-16.2a7.433,7.433,0,0,1,1.274,2.418,17.7,17.7,0,0,0,1.768-1.04V-12.9a16.034,16.034,0,0,1-.1,2.288c.858-.052,1.508-.078,2.548-.078h3.354a30.688,30.688,0,0,1-8.164,2.262A6.805,6.805,0,0,1,69.9-6.24a32.155,32.155,0,0,0,7.7-2.5,7.807,7.807,0,0,1,.6.78,36.032,36.032,0,0,1-9.568,3.2A7.184,7.184,0,0,1,69.9-2.626a38.441,38.441,0,0,0,9.282-3.562c.156.364.208.494.364.936A37.324,37.324,0,0,1,68.259-.832a7.382,7.382,0,0,1,1.508,2.34,39.735,39.735,0,0,0,10.27-4.55,1.868,1.868,0,0,1,.052.494c0,1.768-.286,2.08-1.95,2.08a16.973,16.973,0,0,1-2.21-.208,6.713,6.713,0,0,1,.988,2.756c.6.026,1.04.052,1.352.052,3.458,0,4.55-1.014,4.55-4.264a10.061,10.061,0,0,0-.7-4.03,9.59,9.59,0,0,0-2.314-3.8c.494-.312.65-.442,1.066-.728h.7a26,26,0,0,0,2.886,6.318,15.8,15.8,0,0,0,6.4,5.642A11.186,11.186,0,0,1,92.6-1.508,12.6,12.6,0,0,1,86.849-5.72a24.4,24.4,0,0,0,3.3-2.5,6.035,6.035,0,0,1,.65-.546l-2.418-1.716a11.51,11.51,0,0,1-2.86,2.626,15.339,15.339,0,0,1-1.17-2.834ZM74.135-17.03A17.208,17.208,0,0,0,75.9-18.59h5.9A11.769,11.769,0,0,1,80.3-17.03Zm-.39,3.952v-1.664h5.278v1.664Zm7.956,0v-1.664h5.642v1.664Zm18.33,13.7C100,.286,100,.078,100-.078a21.345,21.345,0,0,1,2.314-7.878l-2.08-.936A26.516,26.516,0,0,0,98.887-5.46c.026-.65.052-.858.052-1.43a43.409,43.409,0,0,1,.39-5.746,35.846,35.846,0,0,1,1.638-7.774l-3.432-.364a17.013,17.013,0,0,1-.39,2.418A49.915,49.915,0,0,0,96.079-8.19a45.351,45.351,0,0,0,.676,7.774c.078.6.1.754.13,1.222Zm3.588-15.574a30.864,30.864,0,0,0,4.68.286,46.572,46.572,0,0,0,5.564-.312c1.248-.156,1.638-.208,1.846-.234l-.156-3.146a28.671,28.671,0,0,1-7.072.7,18.747,18.747,0,0,1-4.81-.416Zm1.794,4.29c-1.612,1.924-2.392,3.666-2.392,5.356a4.355,4.355,0,0,0,.78,2.548c1.144,1.534,3.224,2.262,6.448,2.262a32.062,32.062,0,0,0,5.382-.494,8.69,8.69,0,0,1,1.066-.156l-.26-3.3a18.272,18.272,0,0,1-6.188.988c-2.7,0-4.134-.78-4.134-2.262,0-1.118.546-2.236,1.846-3.744Z" transform="translate(947 2679.992)" fill="#bfae0a"/>
    <path id="パス_82590" data-name="パス 82590" d="M34.514,0V37.987H0L71.085,73.215l71.1-35.228H107.667V0Z" transform="translate(876.326 2699.372)" fill="#bfae0a"/>
  </g>
</svg>
