<svg id="グループ_20292" data-name="グループ 20292" xmlns="http://www.w3.org/2000/svg" xmlns:xlink="http://www.w3.org/1999/xlink" width="427.742" height="103.584" viewBox="0 0 427.742 103.584">
  <defs>
    <clipPath id="clip-path">
      <rect id="長方形_9308" data-name="長方形 9308" width="427.742" height="103.584" fill="none"/>
    </clipPath>
  </defs>
  <g id="グループ_20291" data-name="グループ 20291" clip-path="url(#clip-path)">
    <path id="パス_81936" data-name="パス 81936" d="M391.127,9.532c-45.092-11.08-88.863-1.3-145.943-1.3-62.92,0-123.242-6.512-159.131-8C12.973-2.792,0,24.02,0,46.5,0,62.3,6.591,88.232,47.134,91.044c34.764,2.41,82.593-6.271,129.159-3.595,11.168.642,22.115,1.293,32.779,1.93l-7.346,14.2,26.99-13.029c52.954,3.154,90.971,3.737,115.061,3.3,71.35-1.3,81.562-20.964,83.675-38.918,2.594-22.054-12.321-39.507-36.324-45.4" transform="translate(0 0)" fill="#fff"/>
    <path id="パス_81937" data-name="パス 81937" d="M134.587,42.648h2.226q-.041,1.688-.17,3.439a28.343,28.343,0,0,1-.466,3.448,16.564,16.564,0,0,1-1,3.26,11.41,11.41,0,0,1-1.789,2.893,10.92,10.92,0,0,1-2.853,2.346,5.01,5.01,0,0,0-.686-.906,6.648,6.648,0,0,0-.864-.8,9.325,9.325,0,0,0,4.243-4.652,13.933,13.933,0,0,0,.865-2.912,25.31,25.31,0,0,0,.369-3.071q.088-1.552.129-3.041m-4.87-1.749h17.512v2.087H129.717Zm6.321,5.566h8.071v2.047h-8.071Zm7.3,0h2.226c-.013.239-.02.434-.02.585a2.66,2.66,0,0,1-.021.368q-.119,2.347-.248,4t-.3,2.763a10.839,10.839,0,0,1-.388,1.77,3.122,3.122,0,0,1-.5.993,2.407,2.407,0,0,1-.9.646,4,4,0,0,1-1.113.25,14.232,14.232,0,0,1-1.539.05q-.964-.01-1.959-.05a4.559,4.559,0,0,0-.239-1.054,3.777,3.777,0,0,0-.516-1.035q1.052.081,2,.1c.631.013,1.083.02,1.362.02a2.035,2.035,0,0,0,.558-.031.8.8,0,0,0,.4-.229,2.473,2.473,0,0,0,.536-1.251,22.828,22.828,0,0,0,.379-2.823q.159-1.849.278-4.711Z" transform="translate(13.461 4.268)" fill="#414141"/>
    <path id="パス_81938" data-name="パス 81938" d="M149.861,40.791h15.585V42.9H152.008V58.067h-2.147Zm1.154,7.375h14.472v2.107H151.015Zm6-6.242h2.146v7.294h-2.146Zm7.415-1.133H166.6V55.5a3.4,3.4,0,0,1-.229,1.382,1.6,1.6,0,0,1-.825.785,4.361,4.361,0,0,1-1.481.318q-.906.06-2.256.06a3.878,3.878,0,0,0-.168-.686c-.086-.257-.183-.517-.289-.775a5.582,5.582,0,0,0-.318-.666c.4.028.8.04,1.193.04h1.71a.542.542,0,0,0,.388-.109.508.508,0,0,0,.109-.368Z" transform="translate(15.64 4.257)" fill="#414141"/>
    <path id="パス_81939" data-name="パス 81939" d="M168.688,53.591q1.015-.356,2.356-.883t2.824-1.144q1.481-.616,2.952-1.232l.5,2.087q-1.352.616-2.743,1.223t-2.7,1.174q-1.314.567-2.446,1.043Zm2.287-12.9,2.246-.081.417,12.981-2.226.1Zm12.146-.061,2.366.219a43.739,43.739,0,0,1-1.044,6.113,20.812,20.812,0,0,1-1.829,4.822,13.6,13.6,0,0,1-2.882,3.666,16.088,16.088,0,0,1-4.244,2.674,4.367,4.367,0,0,0-.447-.6c-.205-.239-.42-.477-.647-.716a7.642,7.642,0,0,0-.6-.576,14.138,14.138,0,0,0,4.086-2.295,11.414,11.414,0,0,0,2.713-3.3,17.839,17.839,0,0,0,1.649-4.4,38.96,38.96,0,0,0,.875-5.606m-7.971,2.228,1.968-.935a19.923,19.923,0,0,1,1.252,1.57q.616.855,1.1,1.69a15.326,15.326,0,0,1,.785,1.511l-2.088,1.113a10.737,10.737,0,0,0-.715-1.549,19.971,19.971,0,0,0-1.084-1.76q-.6-.883-1.221-1.639m5.248,8.726,1.65-1.491q.674.716,1.461,1.521t1.552,1.65q.764.845,1.42,1.62a14.792,14.792,0,0,1,1.072,1.412l-1.828,1.749a16.435,16.435,0,0,0-1.015-1.462q-.615-.805-1.35-1.669t-1.5-1.731q-.767-.863-1.461-1.6" transform="translate(17.605 4.238)" fill="#414141"/>
    <path id="パス_81940" data-name="パス 81940" d="M188.795,55.042h18.07v2.146h-18.07Zm7.236-15.187h2.286V56.214h-2.286Zm1.211,5.844h8.251v2.146h-8.251Z" transform="translate(19.704 4.16)" fill="#414141"/>
    <path id="パス_81941" data-name="パス 81941" d="M218.957,42.631q-.22,1.531-.527,3.23a31.777,31.777,0,0,1-.826,3.429,18.958,18.958,0,0,1-1.351,3.44,7.172,7.172,0,0,1-1.66,2.186,2.974,2.974,0,0,1-1.938.755,3.028,3.028,0,0,1-1.928-.716,5.006,5.006,0,0,1-1.442-2,7.426,7.426,0,0,1-.546-2.933,7.544,7.544,0,0,1,.7-3.2,8.8,8.8,0,0,1,1.918-2.684,8.967,8.967,0,0,1,2.863-1.839,9.342,9.342,0,0,1,3.548-.666,8.71,8.71,0,0,1,3.27.586,7.169,7.169,0,0,1,4.085,4.066,7.944,7.944,0,0,1,.557,2.981,7.82,7.82,0,0,1-.865,3.717,7.064,7.064,0,0,1-2.535,2.684,10.528,10.528,0,0,1-4.155,1.411l-1.333-2.107c.371-.04.7-.085,1-.139s.569-.106.834-.159a7.072,7.072,0,0,0,1.8-.676,5.71,5.71,0,0,0,1.482-1.143,5.107,5.107,0,0,0,1-1.61,5.5,5.5,0,0,0,.369-2.057A6.237,6.237,0,0,0,222.9,47a4.971,4.971,0,0,0-1.082-1.739,4.888,4.888,0,0,0-1.739-1.153,6.361,6.361,0,0,0-2.356-.408,6.6,6.6,0,0,0-4.95,2.067,6.617,6.617,0,0,0-1.3,1.989,5.314,5.314,0,0,0-.447,2.046,5.163,5.163,0,0,0,.258,1.759,2.553,2.553,0,0,0,.646,1.054,1.177,1.177,0,0,0,.785.348,1.26,1.26,0,0,0,.875-.437,4.81,4.81,0,0,0,.865-1.362,18.9,18.9,0,0,0,.864-2.356,31.629,31.629,0,0,0,1.214-6.242Z" transform="translate(21.785 4.346)" fill="#414141"/>
    <path id="パス_81942" data-name="パス 81942" d="M227.3,53.2q.954-.219,2.178-.537t2.593-.7q1.37-.378,2.723-.755l.278,1.888q-1.869.557-3.788,1.123t-3.449,1Zm.457-12.623h6.938v1.988h-6.938Zm.179,5.665h6.56v1.967h-6.56Zm2.327-4.87h2.046V53.063l-2.046.318Zm6.837,9.8h2.088a15.431,15.431,0,0,1-.4,2.356,6.426,6.426,0,0,1-.865,1.968,5.654,5.654,0,0,1-1.62,1.57,9.876,9.876,0,0,1-2.643,1.163,3.9,3.9,0,0,0-.3-.586q-.2-.328-.427-.646a3.3,3.3,0,0,0-.447-.517,8.8,8.8,0,0,0,2.266-.875,4.4,4.4,0,0,0,1.352-1.173,4.231,4.231,0,0,0,.686-1.471,12.231,12.231,0,0,0,.308-1.789m-1.589-10.834h9.661V51.473h-9.661Zm1.986,3.181h5.587V42.09h-5.587Zm0,3.1h5.587V45.171h-5.587Zm0,3.081h5.587V48.253h-5.587Zm3.1.974h2.028v4.85a1.058,1.058,0,0,0,.079.527c.053.074.172.109.358.109h1.034a.314.314,0,0,0,.278-.159,1.773,1.773,0,0,0,.149-.666c.033-.338.055-.838.07-1.5a3.83,3.83,0,0,0,.537.318,5.73,5.73,0,0,0,.656.278q.338.119.616.2a10.421,10.421,0,0,1-.317,2.047,1.832,1.832,0,0,1-.636,1.024,1.926,1.926,0,0,1-1.113.288H242.7a3.113,3.113,0,0,1-1.322-.219,1.2,1.2,0,0,1-.616-.765,5.108,5.108,0,0,1-.169-1.461Z" transform="translate(23.722 4.21)" fill="#414141"/>
    <path id="パス_81943" data-name="パス 81943" d="M247.259,46.805h7.554v1.888h-7.554Zm.437-6.382h6.38v1.869H247.7Zm2.6,7.375h2.046V55.79A3.335,3.335,0,0,1,252.168,57a1.27,1.27,0,0,1-.695.7,3.836,3.836,0,0,1-1.242.307q-.726.07-1.74.071a5.831,5.831,0,0,0-.247-1.044,6.284,6.284,0,0,0-.409-1q.677.022,1.292.021h.816a.423.423,0,0,0,.288-.071.318.318,0,0,0,.07-.229Zm-2.188-3.3,1.075-1.393c.557.253,1.136.55,1.738.9s1.171.7,1.7,1.064a9.109,9.109,0,0,1,1.292,1.044l-1.172,1.57a9.056,9.056,0,0,0-1.232-1.075q-.775-.576-1.67-1.132t-1.731-.974m5.309-4.076h.457l.4-.118,1.313.934q-.477.775-1.093,1.589t-1.272,1.56a14.3,14.3,0,0,1-1.292,1.3,4.612,4.612,0,0,0-.567-.667c-.246-.244-.454-.44-.626-.586a12.275,12.275,0,0,0,1.014-1.113q.517-.634.974-1.3a7.677,7.677,0,0,0,.7-1.2Zm.774,6.382h.279l.3-.08,1.311.318q-.34,1.213-.736,2.485t-.754,2.126L253,51.3c.133-.343.271-.758.417-1.242s.285-.986.417-1.51.252-1.017.357-1.482Zm4.017,7.494,1.769,1.132a11.333,11.333,0,0,1-1.312,1.035,16.963,16.963,0,0,1-1.6.964,15.16,15.16,0,0,1-1.62.745c-.172-.2-.4-.435-.675-.706s-.531-.5-.757-.686q.775-.3,1.58-.707a13.022,13.022,0,0,0,1.49-.875,7.754,7.754,0,0,0,1.124-.9m-2.664-13.916h10.158v1.789H255.548Zm.716,3.281h8.826V54.179h-8.826Zm1.948,3.041h4.831V45.255h-4.831Zm0,2.921h4.831v-1.45h-4.831Zm0,2.962h4.831v-1.47h-4.831Zm1.332-11.25,2.425.278q-.258.913-.547,1.8t-.547,1.521l-1.867-.358c.078-.318.155-.665.227-1.043s.136-.76.189-1.143.093-.736.119-1.054m1.61,14.154,1.57-1.075q.576.338,1.223.806t1.242.914a11.111,11.111,0,0,1,.994.825l-1.691,1.213a8.05,8.05,0,0,0-.9-.845q-.567-.467-1.213-.964t-1.223-.875" transform="translate(25.806 4.206)" fill="#414141"/>
    <path id="パス_81944" data-name="パス 81944" d="M276.33,41.672a17.364,17.364,0,0,1-2.067,2.375,26.507,26.507,0,0,1-2.774,2.346,24.991,24.991,0,0,1-3.171,2,6.323,6.323,0,0,0-.357-.576c-.146-.211-.3-.421-.477-.626a5.722,5.722,0,0,0-.5-.527,19.47,19.47,0,0,0,3.3-2.028,23.827,23.827,0,0,0,2.832-2.515,15.031,15.031,0,0,0,2-2.535h2.226a20.183,20.183,0,0,0,1.789,2.127,20.945,20.945,0,0,0,2.108,1.918,21.836,21.836,0,0,0,2.295,1.6,16.815,16.815,0,0,0,2.356,1.193,8.121,8.121,0,0,0-.744.914q-.369.517-.647.994a24.566,24.566,0,0,1-2.316-1.371q-1.163-.777-2.256-1.671t-2.018-1.809a15.169,15.169,0,0,1-1.58-1.809m-8.369,14.094h16.916V57.6H267.961Zm.974-6.1h14.849v1.849H268.935Zm1.372,2.664,1.71-.7a9.9,9.9,0,0,1,.764,1.113q.369.616.667,1.2a6.254,6.254,0,0,1,.437,1.064l-1.848.815a7.256,7.256,0,0,0-.389-1.093,13.5,13.5,0,0,0-.625-1.242q-.359-.626-.717-1.163m1.073-6.719h10V47.5h-10Zm3.8.755h2.266V56.7h-2.266Zm5.308,5.268,2.028.755q-.578.914-1.213,1.849a19.291,19.291,0,0,1-1.193,1.59l-1.59-.676q.338-.477.7-1.093t.707-1.252a12.887,12.887,0,0,0,.557-1.173" transform="translate(27.865 4.131)" fill="#414141"/>
    <path id="パス_81945" data-name="パス 81945" d="M287.237,45.114a9.987,9.987,0,0,0,1,.03q.489-.01,1.025-.03c.3-.013.692-.036,1.163-.07s.971-.07,1.5-.109,1.059-.083,1.59-.129,1.024-.086,1.481-.119.825-.049,1.1-.049a4.451,4.451,0,0,1,1.79.337,2.667,2.667,0,0,1,1.242,1.143,4.445,4.445,0,0,1,.465,2.216q0,1.153-.108,2.525a23.029,23.029,0,0,1-.357,2.624,8.366,8.366,0,0,1-.667,2.087,2.737,2.737,0,0,1-1.282,1.411,4.377,4.377,0,0,1-1.879.378,9.135,9.135,0,0,1-1.232-.089c-.437-.06-.823-.123-1.152-.189l-.379-2.346c.265.067.553.133.865.2s.606.116.885.149a5.977,5.977,0,0,0,.676.05,2.2,2.2,0,0,0,.914-.179,1.4,1.4,0,0,0,.656-.716,6.907,6.907,0,0,0,.467-1.541,17.819,17.819,0,0,0,.278-2.038q.089-1.093.089-2.087a2.544,2.544,0,0,0-.229-1.232,1.148,1.148,0,0,0-.675-.537,3.61,3.61,0,0,0-1.064-.139q-.461,0-1.263.07c-.536.046-1.107.1-1.71.159s-1.166.123-1.69.189-.924.119-1.2.159-.623.086-1.033.139-.764.107-1.056.159Zm7.792-4.155c-.04.226-.089.474-.149.745s-.116.527-.169.765c-.053.278-.117.606-.189.984s-.146.763-.219,1.153-.156.772-.248,1.143q-.2.835-.5,1.948t-.7,2.385q-.4,1.272-.885,2.574t-1.054,2.535a19.728,19.728,0,0,1-1.2,2.246l-2.325-.914a15.736,15.736,0,0,0,1.3-2.086,25.508,25.508,0,0,0,1.1-2.387q.5-1.232.885-2.425t.676-2.216q.287-1.024.447-1.779.278-1.29.436-2.554a16.674,16.674,0,0,0,.14-2.4Zm6.858,2.087a16.364,16.364,0,0,1,.975,1.57q.515.934,1.014,1.978t.9,2.018q.408.974.646,1.67l-2.266,1.034a17.975,17.975,0,0,0-.557-1.809q-.359-.994-.815-2.028t-.974-1.958a9.958,9.958,0,0,0-1.054-1.56Zm-.2-2.8c.172.239.353.525.547.855s.381.663.567.994.345.629.477.895l-1.451.616c-.133-.278-.288-.579-.467-.9s-.364-.653-.557-.984a9.755,9.755,0,0,0-.567-.875Zm2.306-.875c.172.253.36.547.568.885s.4.669.6.994.348.606.468.845l-1.452.616q-.3-.634-.747-1.411a13.173,13.173,0,0,0-.864-1.332Z" transform="translate(29.978 4.109)" fill="#414141"/>
    <path id="パス_81946" data-name="パス 81946" d="M320.078,45.464c-.04.106-.1.256-.169.447s-.142.388-.209.586-.119.364-.158.5a18.314,18.314,0,0,1-1.4,3.3,15.532,15.532,0,0,1-1.789,2.614,13.083,13.083,0,0,1-1.918,1.859,11.5,11.5,0,0,1-2.2,1.252,6.025,6.025,0,0,1-2.435.537,2.872,2.872,0,0,1-1.283-.288,2.193,2.193,0,0,1-.944-.914,3.152,3.152,0,0,1-.357-1.58,5.2,5.2,0,0,1,.436-2.057,7.769,7.769,0,0,1,1.214-1.948,9.65,9.65,0,0,1,1.788-1.65,8.81,8.81,0,0,1,2.188-1.143,13.2,13.2,0,0,1,2.136-.576,12.1,12.1,0,0,1,2.236-.219,7.742,7.742,0,0,1,3.3.666,5.513,5.513,0,0,1,2.247,1.829,4.55,4.55,0,0,1,.814,2.674,6.212,6.212,0,0,1-.348,2.057,5.234,5.234,0,0,1-1.113,1.839,6.588,6.588,0,0,1-2.017,1.441,10.826,10.826,0,0,1-3.062.885L315.865,55.7a8.829,8.829,0,0,0,3.091-.865,4.638,4.638,0,0,0,1.818-1.59,3.681,3.681,0,0,0,.6-2,2.9,2.9,0,0,0-.486-1.63,3.415,3.415,0,0,0-1.442-1.183,5.5,5.5,0,0,0-2.346-.447,8.78,8.78,0,0,0-2.374.3,12.122,12.122,0,0,0-1.8.636,7,7,0,0,0-1.849,1.232,6.458,6.458,0,0,0-1.283,1.6,3.3,3.3,0,0,0-.466,1.58,1.145,1.145,0,0,0,.237.785.935.935,0,0,0,.736.268,3.822,3.822,0,0,0,1.661-.457,8.453,8.453,0,0,0,1.858-1.292,14.32,14.32,0,0,0,2.157-2.525,12.877,12.877,0,0,0,1.641-3.638,4.6,4.6,0,0,0,.108-.478c.034-.184.066-.377.1-.575s.056-.358.071-.477Zm-8.488-2.743q1.85,0,3.519-.089t3.22-.288q1.552-.2,3.041-.537l.021,2.067q-1.035.179-2.277.328t-2.574.248q-1.334.1-2.614.149t-2.4.05q-.5,0-1.123-.02c-.417-.012-.832-.03-1.242-.05l-1.073-.05-.06-2.067.985.109q.625.07,1.322.109t1.251.04m3.439-2.266q-.079.258-.139.517c-.039.172-.08.338-.118.5q-.181.895-.339,2.107t-.258,2.554q-.1,1.342-.1,2.614a21.048,21.048,0,0,0,.169,2.763,21.312,21.312,0,0,0,.447,2.375q.278,1.1.6,2.077l-2.048.616a21.062,21.062,0,0,1-.567-2.117q-.268-1.223-.436-2.6a22.6,22.6,0,0,1-.17-2.773q0-.994.071-2.028c.045-.688.1-1.365.158-2.028s.123-1.292.189-1.888.126-1.133.179-1.61q.02-.278.04-.586a3.75,3.75,0,0,0,0-.547Z" transform="translate(32.063 4.216)" fill="#414141"/>
    <path id="パス_81947" data-name="パス 81947" d="M328.468,41.307c.265.027.549.05.854.068s.584.031.835.031c.212,0,.538-.007.974-.02s.929-.027,1.471-.04l1.641-.04q.825-.02,1.481-.06l.994-.06c.371-.027.665-.056.885-.089a3.191,3.191,0,0,0,.506-.109l1.173,1.61q-.316.2-.656.417c-.225.146-.444.3-.655.457-.266.186-.59.434-.975.745s-.794.649-1.232,1.014-.867.719-1.291,1.063l-1.153.934A5.113,5.113,0,0,1,334.4,47c.351-.033.707-.05,1.065-.05a6.833,6.833,0,0,1,2.992.635,5.333,5.333,0,0,1,2.1,1.74,4.3,4.3,0,0,1,.776,2.535,5.111,5.111,0,0,1-.806,2.823,5.424,5.424,0,0,1-2.385,1.978,9.343,9.343,0,0,1-3.905.726A7.082,7.082,0,0,1,331.8,57a3.907,3.907,0,0,1-1.67-1.093,2.467,2.467,0,0,1-.607-1.66,2.659,2.659,0,0,1,.428-1.451,3.157,3.157,0,0,1,1.2-1.093,3.711,3.711,0,0,1,1.788-.417,4.407,4.407,0,0,1,2.277.547,3.761,3.761,0,0,1,1.421,1.461,4.444,4.444,0,0,1,.537,1.968l-2.067.3a3.039,3.039,0,0,0-.617-1.85A1.888,1.888,0,0,0,332.94,53a1.417,1.417,0,0,0-.963.318.945.945,0,0,0-.368.736,1.073,1.073,0,0,0,.606.953,3.117,3.117,0,0,0,1.6.359,8.424,8.424,0,0,0,2.832-.417,3.682,3.682,0,0,0,1.76-1.213,3.1,3.1,0,0,0,.6-1.909,2.541,2.541,0,0,0-.557-1.619,3.679,3.679,0,0,0-1.51-1.1,5.538,5.538,0,0,0-2.147-.4,7.553,7.553,0,0,0-2.148.288,7.839,7.839,0,0,0-1.83.805,10.308,10.308,0,0,0-1.658,1.262q-.805.745-1.661,1.66l-1.609-1.67c.371-.292.786-.629,1.252-1.015s.934-.774,1.411-1.172.927-.775,1.352-1.134.782-.655,1.073-.893.609-.5.994-.815.781-.649,1.192-.994.8-.673,1.174-.984.676-.573.914-.785c-.2,0-.472.009-.815.03s-.722.036-1.135.05-.821.03-1.23.05-.793.04-1.143.06l-.846.049q-.378.022-.785.05t-.744.089Z" transform="translate(34.011 4.278)" fill="#414141"/>
    <path id="パス_81948" data-name="パス 81948" d="M349.7,44.081h2.385q-.08,1.59-.25,3.21a22.783,22.783,0,0,1-.564,3.2,13.826,13.826,0,0,1-1.144,3.012,10.718,10.718,0,0,1-1.978,2.654,11.969,11.969,0,0,1-3.1,2.157,5.91,5.91,0,0,0-.667-.944,6.27,6.27,0,0,0-.843-.845,10.2,10.2,0,0,0,2.842-1.869,8.84,8.84,0,0,0,1.759-2.336,11.379,11.379,0,0,0,.964-2.645,18.916,18.916,0,0,0,.426-2.8q.111-1.421.17-2.793m-5.864-1.193h17.969v2.047H343.839Zm6.6,4.83h7.713v2.008h-7.713Zm1.172-8.17h2.228V43.7H351.61Zm5.766,8.17h2.187q-.02.358-.02.567a1.581,1.581,0,0,1-.04.368q-.179,2.763-.4,4.512a18.654,18.654,0,0,1-.5,2.713,3.381,3.381,0,0,1-.675,1.382,2.239,2.239,0,0,1-.9.626,4.663,4.663,0,0,1-1.132.229q-.557.04-1.481.03c-.615-.007-1.257-.023-1.918-.05a3.572,3.572,0,0,0-.239-1.054,4.215,4.215,0,0,0-.537-1.034q1.052.08,2,.108t1.362.031a2.722,2.722,0,0,0,.567-.05.9.9,0,0,0,.409-.21,2.237,2.237,0,0,0,.546-1.142,20.116,20.116,0,0,0,.419-2.525q.187-1.64.327-4.165Z" transform="translate(35.854 4.128)" fill="#414141"/>
    <path id="パス_81949" data-name="パス 81949" d="M44.772,46.9q0,11.228-9.957,11.227a23.03,23.03,0,0,1-8.585-1.575l.611-7.874a30.854,30.854,0,0,0,7.06,1.575q2.593,0,2.591-2.819t-1.981-2.819a1.6,1.6,0,0,0-1.473,1.016l-6.755-1.016V26.07H43.351v7.569H34.156v4.521a7.027,7.027,0,0,1,3.353-.711q7.264,0,7.263,9.449" transform="translate(2.738 2.721)" fill="#bfae0a"/>
    <path id="パス_81950" data-name="パス 81950" d="M51.875,47.829q4.724,0,4.724,4.673a6.454,6.454,0,0,1-1.016,3.43,11.708,11.708,0,0,1-2.134,2.642q-1.118.989-3.2,2.515l-3-1.119,3.2-4.215-.1-.255a3.411,3.411,0,0,1-2.743-3.606q0-4.064,4.267-4.064" transform="translate(4.932 4.992)" fill="#bfae0a"/>
    <path id="パス_81951" data-name="パス 81951" d="M80.308,34.856a47.613,47.613,0,0,1,.431,7.012,47.58,47.58,0,0,1-.431,7.009,16.149,16.149,0,0,1-1.6,5.029q-2.286,4.267-8.941,4.267-6.553,0-8.842-4.267A16.657,16.657,0,0,1,59.3,48.851a44.831,44.831,0,0,1-.456-6.984q0-8.536,2.261-12.4t8.663-3.861q6.706,0,8.941,4.216a16.168,16.168,0,0,1,1.6,5.029m-7.7,7.265v-.761a31.2,31.2,0,0,0-.279-5.818,11.424,11.424,0,0,0-.583-1.448,2.07,2.07,0,0,0-1.981-1.016,1.95,1.95,0,0,0-1.93,1.016,6.966,6.966,0,0,0-.662,2.692q-.1,2.541-.1,4.573v.761a37.455,37.455,0,0,0,.279,6.426,10.019,10.019,0,0,0,.584,1.5,2.139,2.139,0,0,0,2.184,1.118q1.678,0,2.083-1.905a40.787,40.787,0,0,0,.406-7.138" transform="translate(6.141 2.673)" fill="#bfae0a"/>
    <path id="パス_81952" data-name="パス 81952" d="M102.065,34.856a47.461,47.461,0,0,1,.431,7.012,47.429,47.429,0,0,1-.431,7.009,16.12,16.12,0,0,1-1.6,5.029q-2.286,4.267-8.941,4.267-6.553,0-8.84-4.267a16.6,16.6,0,0,1-1.626-5.055,44.679,44.679,0,0,1-.457-6.984q0-8.536,2.261-12.4t8.663-3.861q6.706,0,8.941,4.216a16.139,16.139,0,0,1,1.6,5.029m-7.7,7.265v-.761a31.205,31.205,0,0,0-.279-5.818,11.425,11.425,0,0,0-.583-1.448,2.067,2.067,0,0,0-1.981-1.016,1.95,1.95,0,0,0-1.93,1.016,6.986,6.986,0,0,0-.662,2.692q-.1,2.541-.1,4.573v.761a37.457,37.457,0,0,0,.279,6.426,10.012,10.012,0,0,0,.585,1.5,2.138,2.138,0,0,0,2.183,1.118q1.678,0,2.083-1.905a40.786,40.786,0,0,0,.406-7.138" transform="translate(8.412 2.673)" fill="#bfae0a"/>
    <path id="パス_81953" data-name="パス 81953" d="M123.822,34.856a47.309,47.309,0,0,1,.431,7.012,47.276,47.276,0,0,1-.431,7.009,16.091,16.091,0,0,1-1.6,5.029q-2.286,4.267-8.941,4.267-6.553,0-8.839-4.267a16.536,16.536,0,0,1-1.626-5.055,44.678,44.678,0,0,1-.457-6.984q0-8.536,2.261-12.4t8.662-3.861q6.706,0,8.941,4.216a16.11,16.11,0,0,1,1.6,5.029m-7.7,7.265v-.761a31.205,31.205,0,0,0-.279-5.818,11.417,11.417,0,0,0-.584-1.448,2.066,2.066,0,0,0-1.981-1.016,1.951,1.951,0,0,0-1.93,1.016,6.984,6.984,0,0,0-.66,2.692q-.1,2.541-.1,4.573v.761a37.4,37.4,0,0,0,.281,6.426,10.14,10.14,0,0,0,.584,1.5,2.139,2.139,0,0,0,2.184,1.118q1.676,0,2.083-1.905a40.786,40.786,0,0,0,.406-7.138" transform="translate(10.683 2.673)" fill="#bfae0a"/>
  </g>
</svg>
