<svg xmlns="http://www.w3.org/2000/svg" xmlns:xlink="http://www.w3.org/1999/xlink" width="162.57" height="162.57" viewBox="0 0 162.57 162.57">
  <defs>
    <clipPath id="clip-path">
      <circle id="楕円形_69" data-name="楕円形 69" cx="81.285" cy="81.285" r="81.285" fill="none"/>
    </clipPath>
  </defs>
  <g id="グループ_21224" data-name="グループ 21224" transform="translate(-12.523 0.001)">
    <g id="グループ_21223" data-name="グループ 21223" transform="translate(12.523 -0.001)" clip-path="url(#clip-path)">
      <path id="パス_87279" data-name="パス 87279" d="M76.365,131.313c11.03,3.983,44.122,2.758,43.815-6.741S115.2,75.778,115.2,75.778l-17.848.191s-2.643,29.108-2.337,32.786A89.233,89.233,0,0,0,72.65,69.842c-1.225-.613-13.481-5.822-26.962-5.208s-5.822,49.637-5.822,49.637Z" transform="translate(1.702 36.493)" fill="#231815"/>
      <path id="パス_87280" data-name="パス 87280" d="M94.031,135.289c-7.057,0-13.736-.793-17.636-2.2-.041-.014-.077-.03-.116-.045L39.78,116a1.366,1.366,0,0,1-.773-1.025c-.246-1.576-5.936-38.7,2.132-48.576a6.66,6.66,0,0,1,4.977-2.636c14.61-.643,27.513,5.291,27.637,5.352a1.336,1.336,0,0,1,.313.218c.581.535,12.948,12.1,20.383,32.18.631-9.619,1.959-24.316,2.039-25.174A1.361,1.361,0,0,1,97.83,75.1l17.846-.192a1.424,1.424,0,0,1,1.369,1.2c.191,1.606,4.683,39.464,4.988,48.911.044,1.377-.437,3.406-2.98,5.254-4.819,3.5-15.278,5.016-25.023,5.016m-16.655-4.747c8.636,3.078,32.52,3.014,40.076-2.476,1.283-.933,1.891-1.9,1.858-2.959-.272-8.393-4.038-40.758-4.827-47.461l-15.389.167c-.793,8.827-2.457,28.538-2.227,31.32a1.364,1.364,0,0,1-2.675.476A89.11,89.11,0,0,0,72.364,71.478c-1.51-.675-13.074-5.628-26.125-4.991a3.985,3.985,0,0,0-2.988,1.634c-5.927,7.251-3.3,34.772-1.659,45.712Z" transform="translate(1.211 36.001)" fill="#231815"/>
      <path id="パス_87281" data-name="パス 87281" d="M53.089,64.5c-9.47,3.457-14.9,0-24.094,4.166-4.3,1.945-8.626,4.114-11.857,7.592C12.42,81.339,10.647,88.546,9.845,95.5c-2.061,17.876-1.51,35.47-2.747,53.429-1,14.494-1.465,28.881-3.355,43.131-.609,4.59-.4,9.609,2.268,13.37,3.945,5.565,11.68,6.445,18.4,6.049,26.745-1.579,51.2-15.145,74.267-28.972,2.046-1.225,4.152-2.517,5.5-4.506,3.172-4.678.554-9.833-.052-14.9-.941-7.883-2.1-14.425-1.377-22.54,1.26-14.2-2.679-21.759-4.622-35.908C95.962,88.9,91.487,78.209,78.208,68.8c-4.568-3.237-9.47-2.842-15.013-2.452-3.366.238-6.919-3.01-10.105-1.847" transform="translate(-17.644 36.306)" fill="#231815"/>
      <path id="パス_87282" data-name="パス 87282" d="M22.2,213.414c-8,0-13.65-2.249-16.81-6.7-2.465-3.478-3.308-8.3-2.507-14.339,1.377-10.378,2.01-21.061,2.62-31.392.23-3.875.459-7.761.728-11.652.5-7.262.711-14.588.914-21.673.3-10.392.607-21.141,1.837-31.82.665-5.77,2.182-14.124,7.65-20.009,3.462-3.726,8.16-6.035,12.292-7.907,5.079-2.3,9.118-2.391,13.024-2.481a31.629,31.629,0,0,0,11.165-1.722c2.249-.826,4.512.039,6.509.8a9.9,9.9,0,0,0,3.969.97l.225-.017c5.539-.388,10.767-.757,15.672,2.715,14.232,10.082,18.388,21.546,20.479,36.777.656,4.772,1.532,8.75,2.38,12.6,1.662,7.54,3.1,14.054,2.249,23.62-.595,6.7.108,12.223.922,18.627.15,1.185.3,2.391.452,3.631s.426,2.5.718,3.82c.878,3.96,1.786,8.054-.892,12.005-1.548,2.283-3.978,3.739-5.93,4.909C76.7,198.054,51.837,211.744,24.978,213.329q-1.432.085-2.778.085M54.049,66.277A34.245,34.245,0,0,1,42.01,68.164c-3.8.088-7.39.171-11.962,2.24-4.068,1.844-8.3,3.922-11.42,7.279-3.745,4.032-5.95,9.9-6.938,18.463-1.216,10.564-1.524,21.252-1.82,31.589-.205,7.112-.415,14.464-.919,21.779-.268,3.883-.5,7.759-.726,11.628-.613,10.378-1.249,21.111-2.639,31.586-.707,5.334-.025,9.506,2.028,12.4,2.931,4.135,8.719,5.967,17.2,5.475,26.241-1.548,50.771-15.067,73.646-28.779,1.811-1.086,3.864-2.316,5.074-4.1,2.019-2.977,1.275-6.332.487-9.882-.294-1.332-.6-2.708-.764-4.088-.147-1.235-.3-2.434-.449-3.611-.8-6.287-1.554-12.224-.933-19.212.811-9.148-.582-15.47-2.2-22.792-.859-3.9-1.748-7.93-2.42-12.811-1.991-14.508-5.924-25.41-19.352-34.922-4.11-2.906-8.648-2.587-13.9-2.219l-.227.016a12.171,12.171,0,0,1-5.129-1.139c-1.7-.648-3.312-1.254-4.6-.787M53.581,65h0Z" transform="translate(-18.136 35.814)" fill="#231815"/>
      <path id="パス_87283" data-name="パス 87283" d="M32.931,51.293c1.1,3.442-1.405,14.394-2.695,20.349a13.568,13.568,0,0,1-2.894,5.122c2.379,3.761,5.808,9.09,9.584,11.478,5.856,3.7,15.755,1.82,21.479-1.157,2.183-1.135,4.388-2.856,4.72-5.293-6.655-2.593-4.332-4.212-3.886-9.758.336-4.176,2-9.345,1.014-13.414A23.63,23.63,0,0,0,54,47.9a15,15,0,0,0-5.562-3.877,12.027,12.027,0,0,0-3.97-.634c-4.9-.008-9.22,3.593-11.536,7.908" transform="translate(-4.15 24.516)" fill="#fff"/>
      <path id="パス_87284" data-name="パス 87284" d="M45.775,92.14a17.029,17.029,0,0,1-9.085-2.252c-4.133-2.615-7.811-8.429-10.008-11.9a1.36,1.36,0,0,1,.144-1.645,12.26,12.26,0,0,0,2.57-4.493l.239-1.106c1.191-5.47,3.409-15.649,2.488-18.539a1.359,1.359,0,0,1,.1-1.06c2.814-5.243,7.8-8.626,12.719-8.626a14.93,14.93,0,0,1,4.445.712,16.02,16.02,0,0,1,6.082,4.21,24.993,24.993,0,0,1,6.6,11.354c.739,3.041.163,6.437-.394,9.722-.249,1.463-.484,2.848-.585,4.124a31.484,31.484,0,0,1-.473,3.294c-.542,2.942-.64,3.473,3.493,5.082a1.365,1.365,0,0,1,.856,1.455c-.34,2.493-2.171,4.622-5.442,6.321A31.233,31.233,0,0,1,45.775,92.14M29.516,77.361c2.107,3.31,5.31,8.119,8.633,10.221,5.534,3.5,15.1,1.4,20.12-1.214a8.191,8.191,0,0,0,3.7-3.293c-4.78-2.143-4.659-4.255-4.036-7.637a28.846,28.846,0,0,0,.435-3.021c.113-1.394.357-2.836.617-4.362.51-3.011,1.039-6.126.432-8.62a22.267,22.267,0,0,0-5.9-10.094A13.472,13.472,0,0,0,48.476,45.8a10.639,10.639,0,0,0-3.52-.556h-.014c-3.787,0-7.691,2.626-10.066,6.736.72,3.615-.8,11.207-2.574,19.342l-.241,1.1a13.472,13.472,0,0,1-2.545,4.938" transform="translate(-4.642 24.024)" fill="#231815"/>
      <path id="パス_87285" data-name="パス 87285" d="M30.13,61.98c-1.781-5.6,1-18.6,3.484-24.145,3.712-8.276,8.569-11.268,17.33-11.2A68.59,68.59,0,0,1,64.279,27.9a30.334,30.334,0,0,1,3.891.989c4.7,1.653,8.5,5.268,9.4,10.282.668,3.72,0,7.536-.657,11.257q-1.843,10.346-3.686,20.694a24.411,24.411,0,0,1-1.8,6.522,7.278,7.278,0,0,1-6.445,4.293,29.638,29.638,0,0,1-10.7-1.338Z" transform="translate(-2.894 15.048)" fill="#fff"/>
      <path id="パス_87286" data-name="パス 87286" d="M63.809,83.839a30.061,30.061,0,0,1-9.473-1.457,1.363,1.363,0,0,1,.883-2.579A28.44,28.44,0,0,0,65.4,81.067a5.906,5.906,0,0,0,5.293-3.529,23.431,23.431,0,0,0,1.681-6.162l3.686-20.694c.634-3.565,1.291-7.251.657-10.777-.75-4.177-3.93-7.63-8.5-9.237a28.674,28.674,0,0,0-3.7-.934,66.445,66.445,0,0,0-13.09-1.249c-8.262-.042-12.647,2.761-16.075,10.4-2.495,5.564-5.024,18.159-3.429,23.174a1.364,1.364,0,0,1-2.6.828c-1.989-6.252,1.161-19.815,3.54-25.117,3.869-8.625,9.016-12.012,18.3-12.012.094,0,.185,0,.279,0a69.088,69.088,0,0,1,13.6,1.3A31.015,31.015,0,0,1,69.117,28.1c5.514,1.936,9.359,6.169,10.285,11.326.72,4.008-.013,8.115-.659,11.739L75.059,71.854a25.468,25.468,0,0,1-1.916,6.881,8.684,8.684,0,0,1-7.6,5.057c-.576.031-1.157.047-1.739.047" transform="translate(-3.386 14.555)" fill="#231815"/>
      <path id="パス_87287" data-name="パス 87287" d="M49.062,47.584a1.727,1.727,0,0,1,.848-3.348,1.723,1.723,0,0,1,1.343,2.058,1.743,1.743,0,0,1-2.075,1.319l-.116-.03" transform="translate(7.406 24.974)" fill="#231815"/>
      <path id="パス_87288" data-name="パス 87288" d="M47.243,42.8a1.509,1.509,0,0,1-.286-.03,1.39,1.39,0,0,1-1.052-1.643c.46-2.28,3.662-2.933,6.443-2.565,3.431.449,3.7,2.133,3.657,2.836a1.364,1.364,0,0,1-2.692.219,6.447,6.447,0,0,0-3.077-.383,2.918,2.918,0,0,0-1.689.506A1.314,1.314,0,0,1,47.243,42.8" transform="translate(6.323 21.734)" fill="#231815"/>
      <path id="パス_87289" data-name="パス 87289" d="M62.066,43.287a1.328,1.328,0,0,1-.193-.014,1.365,1.365,0,0,1-1.168-1.227,4.27,4.27,0,0,0-2.726-.192A1.364,1.364,0,0,1,55.745,40.3c.988-1.579,3.909-1.548,5.637-.919,2.135.778,2.1,2.291,2.033,2.736a1.365,1.365,0,0,1-1.349,1.174" transform="translate(11.782 22.023)" fill="#231815"/>
      <path id="パス_87290" data-name="パス 87290" d="M56.86,47.463a1.749,1.749,0,1,1,.116.03c-.041-.009-.078-.019-.116-.03" transform="translate(11.813 24.906)" fill="#231815"/>
      <path id="パス_87291" data-name="パス 87291" d="M53.535,59.926a6.277,6.277,0,0,1-4.776-2.117,1.364,1.364,0,0,1,2.082-1.762,3.6,3.6,0,0,0,4.6.587,1.364,1.364,0,1,1,1.573,2.229,6.029,6.029,0,0,1-3.482,1.064" transform="translate(7.769 31.397)" fill="#231815"/>
      <path id="パス_87292" data-name="パス 87292" d="M25.353,36.776A13.721,13.721,0,0,0,33.8,38.321a6.253,6.253,0,0,0,2.919-.908A4.27,4.27,0,0,0,38.076,35.7c1.3-2.78.258-6.2-2.013-8.4a15.261,15.261,0,0,0-8.334-3.4,4.8,4.8,0,0,0-1.891.387,6.325,6.325,0,0,0-3.7,3.967,6.951,6.951,0,0,0,3.211,8.525" transform="translate(-7.308 13.504)" fill="#231815"/>
      <path id="パス_87293" data-name="パス 87293" d="M32.454,40.285a14.414,14.414,0,0,1-7.306-1.844c-3.675-2.189-5.068-5.866-3.822-10.084a7.674,7.674,0,0,1,4.493-4.845,5.806,5.806,0,0,1,2.435-.484,16.647,16.647,0,0,1,9.252,3.787c2.816,2.729,3.759,6.824,2.3,9.955A5.577,5.577,0,0,1,38,39.02a7.518,7.518,0,0,1-3.55,1.149,17.234,17.234,0,0,1-2,.116m-4.316-14.53a3.509,3.509,0,0,0-1.294.288,4.988,4.988,0,0,0-2.9,3.088c-1.124,3.806.793,5.891,2.6,6.966v0a12.366,12.366,0,0,0,7.592,1.362,5.156,5.156,0,0,0,2.287-.665,2.9,2.9,0,0,0,.909-1.175c.98-2.1.271-4.911-1.723-6.844a14.067,14.067,0,0,0-7.418-3.021Z" transform="translate(-7.8 13.011)" fill="#231815"/>
      <path id="パス_87294" data-name="パス 87294" d="M36.685,70.261a22.477,22.477,0,0,1-5.512-4.952c-4.365-5-4.326-10.469-4.19-16.813a46.741,46.741,0,0,1,2.407-14.467,7.828,7.828,0,0,1,1.952-3.382,6.225,6.225,0,0,1,3.59-1.377,21.144,21.144,0,0,1,6.431.718c2.792.6,5.158,1,7.949,1.6-1.568,1.255-2.08,3.481-2.122,5.484a6.373,6.373,0,0,0,1.479,3.512c-.349,1.106-3.035,14.309-2.95,14.309-1.578.006-2.836.388-3.675-.793-.568-.8-.285-1.988-1.039-2.812-4.075-4.459-8.727.66-7.994,5.257a7.359,7.359,0,0,0,4.861,5.709q-.608,3.636-1.216,7.271Z" transform="translate(-4.375 16.512)" fill="#fff"/>
      <path id="パス_87295" data-name="パス 87295" d="M37.179,72.118a1.346,1.346,0,0,1-.678-.182A23.488,23.488,0,0,1,30.64,66.7c-4.791-5.484-4.662-11.437-4.526-17.74A47.615,47.615,0,0,1,28.6,34.072a9.05,9.05,0,0,1,2.332-3.95A7.458,7.458,0,0,1,35.3,28.4a22.63,22.63,0,0,1,6.849.745c1.385.3,2.664.546,3.944.793,1.3.252,2.6.5,4,.808a1.363,1.363,0,0,1,.563,2.4c-1.343,1.075-1.587,3.247-1.612,4.448a5.505,5.505,0,0,0,1.24,2.709,1.359,1.359,0,0,1,.178,1.183c-.321,1.016-2.72,12.807-2.891,13.966a1.361,1.361,0,0,1-1.357,1.3c-.3,0-.581.019-.851.033-1.266.069-2.837.153-3.941-1.4a4.315,4.315,0,0,1-.654-1.8,1.922,1.922,0,0,0-.279-.876c-1.108-1.21-2.219-1.557-3.3-1.036a5.137,5.137,0,0,0-2.337,5.16,5.97,5.97,0,0,0,3.941,4.628,1.367,1.367,0,0,1,.919,1.521l-1.193,7.132.023.593a1.363,1.363,0,0,1-1.363,1.419M36.5,31.078c-.316,0-.631.013-.944.042a5.014,5.014,0,0,0-2.811,1.038,6.736,6.736,0,0,0-1.571,2.816,44.964,44.964,0,0,0-2.329,14.045c-.13,6.01-.241,11.2,3.853,15.887a29.082,29.082,0,0,0,3.357,3.4l.789-4.72a8.79,8.79,0,0,1-4.683-6.335c-.515-3.224,1.175-6.759,3.845-8.046,2.2-1.064,4.571-.46,6.5,1.654a4.174,4.174,0,0,1,.948,2.219,2.4,2.4,0,0,0,.2.723c.182.258.343.318,1.449.261.434-3.587,2.064-10.53,2.595-12.719a6.811,6.811,0,0,1-1.377-3.809,10.4,10.4,0,0,1,1.045-4.567c-.6-.121-1.2-.235-1.792-.351-1.3-.25-2.6-.5-4-.806a24.434,24.434,0,0,0-5.072-.736" transform="translate(-4.869 16.02)" fill="#231815"/>
      <path id="パス_87296" data-name="パス 87296" d="M41.734,24.607a28.671,28.671,0,0,1,8.994-2.751,29.474,29.474,0,0,1,17.92,3.55c4.747,2.576,9.589,9,8.8,11.844-.773.017-4.593-.6-5.894-.684-1.011-.067-10.58-2.675-13.164-2.966-2.4-.272-4.855-.828-7,.246-2.058,1.031-4.14,4.559-4.14,4.559s-12.059.576-19.178,1.6c-.512.074,1.332-4.546,5.049-8.73a37.618,37.618,0,0,1,8.614-6.665" transform="translate(-3.785 12.213)" fill="#231815"/>
      <path id="パス_87297" data-name="パス 87297" d="M28.563,41.857a1.49,1.49,0,0,1-1.279-.751c-.944-1.756,2.945-7.6,5.295-10.248a38.869,38.869,0,0,1,9.01-6.974A29.909,29.909,0,0,1,51.018,21a30.888,30.888,0,0,1,18.759,3.7c5,2.717,10.492,9.7,9.464,13.411a1.36,1.36,0,0,1-1.283,1c-.507-.016-1.562-.128-3.255-.352-1.086-.146-2.18-.294-2.759-.333a49.719,49.719,0,0,1-4.888-1.106c-3.086-.761-6.927-1.706-8.339-1.866-.366-.041-.732-.088-1.1-.138-1.9-.246-3.684-.48-5.14.249-1.232.615-2.847,2.8-3.576,4.032a1.366,1.366,0,0,1-1.108.668c-.121,0-12.077.587-19.05,1.587a1.167,1.167,0,0,1-.182.014M54.738,23.468A24.127,24.127,0,0,0,51.4,23.7a27.2,27.2,0,0,0-8.559,2.612v0a36.5,36.5,0,0,0-8.22,6.36,28.188,28.188,0,0,0-4.179,6.2c6.088-.729,14.082-1.178,16.51-1.305.761-1.164,2.463-3.528,4.309-4.451,2.2-1.1,4.6-.789,6.712-.513.351.045.7.091,1.052.131,1.587.178,5.359,1.108,8.686,1.927,1.891.466,4.032.994,4.429,1.034.6.042,1.77.194,2.927.351.441.058.981.13,1.474.192-.668-2.462-4.071-6.98-8.062-9.146a29.1,29.1,0,0,0-13.738-3.625M42.213,25.1h0Z" transform="translate(-4.264 11.722)" fill="#231815"/>
      <path id="パス_87298" data-name="パス 87298" d="M41.663,77.124a31.291,31.291,0,0,1,.369,5.914c-.069,6.648.365,13.256.074,19.921-.584,13.318-2.11,26.581-2.457,39.91a7.17,7.17,0,0,0,.324,2.877,7.279,7.279,0,0,0,2.164,2.587C53.972,158.673,64.7,168.758,71.957,183a54.838,54.838,0,0,0-13.869,22.742,78.922,78.922,0,0,1-37.005-20.48c-4.246-4.141-9.545-7.09-12.769-12.124a48.01,48.01,0,0,1-6.731-19.1c-1.358-9.5-.535-19.175.484-28.722,1.614-15.1,3.858-30.587,11.447-43.741,2.232-3.864,4.974-7.548,8.67-10.049S30.658,67.84,34.907,69.2c4.374,1.405,6.1,4.376,6.756,7.921" transform="translate(-19.108 38.78)" fill="#231815"/>
      <path id="パス_87299" data-name="パス 87299" d="M58.579,207.6a1.3,1.3,0,0,1-.308-.036,79.852,79.852,0,0,1-37.65-20.834c-1.449-1.412-3.072-2.722-4.643-3.986-3-2.424-6.111-4.93-8.32-8.378A48.984,48.984,0,0,1,.723,154.718c-1.387-9.7-.524-19.676.479-29.06,1.6-14.987,3.816-30.751,11.622-44.276,2.808-4.867,5.7-8.2,9.085-10.5C26.274,67.932,31.471,67,35.814,68.4c4.31,1.385,6.822,4.32,7.681,8.971a32.974,32.974,0,0,1,.393,6.176c-.028,2.7.028,5.445.083,8.1.08,3.873.163,7.882-.013,11.865-.26,5.938-.714,11.954-1.152,17.773-.546,7.246-1.111,14.74-1.3,22.112a6.173,6.173,0,0,0,.227,2.332,6.289,6.289,0,0,0,1.794,2.067c11.65,10.179,22.721,20.522,30.139,35.079a1.363,1.363,0,0,1-.258,1.592,53.376,53.376,0,0,0-13.523,22.173,1.366,1.366,0,0,1-1.3.959M31.623,70.485a14.813,14.813,0,0,0-8.185,2.657c-3.035,2.055-5.658,5.107-8.252,9.6-7.539,13.065-9.7,28.507-11.271,43.2-.984,9.213-1.833,18.993-.49,28.385a46.3,46.3,0,0,0,6.529,18.561c1.969,3.072,4.77,5.332,7.736,7.722,1.621,1.305,3.3,2.656,4.836,4.158a77.262,77.262,0,0,0,35.143,19.837,56.156,56.156,0,0,1,13.11-21.378c-7.2-13.667-17.846-23.594-29.049-33.382a8.46,8.46,0,0,1-2.531-3.105,8.338,8.338,0,0,1-.423-3.421c.192-7.442.761-14.968,1.31-22.249.437-5.8.889-11.789,1.147-17.686.171-3.9.089-7.857.009-11.689-.055-2.678-.111-5.446-.083-8.187a30.544,30.544,0,0,0-.347-5.651c-.678-3.673-2.477-5.791-5.833-6.869a10.924,10.924,0,0,0-3.357-.509" transform="translate(-19.599 38.289)" fill="#231815"/>
      <path id="パス_87300" data-name="パス 87300" d="M74.2,88.03a4.983,4.983,0,0,1,2.831,2.061c.8,1.056,1.135,3.515,1.459,4.8,1.108,4.379,4.454,3.193,7.852,3.025,7.008-.344,8.808-2.451,9.5-6.129A43.938,43.938,0,0,0,94.151,68.19a52.854,52.854,0,0,1-2.41-18.929c.089-1.227.125-2.712-.959-3.323-1.773-1-3.69.092-4.611,1.042-3.205,3.307-4.618,7.188-2.092,11.213-5.745-2.183-9.116-.5-10.8,1.034a3.989,3.989,0,0,0,2.6,6.778c-5.057-.689-6.166,5.938-2.374,7.891-4.138-.23-3.371,6.434-1.15,6.357-2.911,1.992-.574,6.941,1.839,7.775" transform="translate(20.262 25.735)" fill="#fff"/>
      <path id="パス_87301" data-name="パス 87301" d="M83.211,100.031c-2.274,0-4.633-.681-5.553-4.318-.081-.318-.163-.706-.252-1.128a10.85,10.85,0,0,0-.973-3.179,3.693,3.693,0,0,0-2.188-1.593v0c-1.945-.671-3.726-3.116-4.057-5.564a4.988,4.988,0,0,1,.557-3.186,3.776,3.776,0,0,1-.344-.5,5.945,5.945,0,0,1,0-5.692,3.9,3.9,0,0,1,.944-1.063,6.006,6.006,0,0,1-.692-5.066,5.187,5.187,0,0,1,1.914-2.7,4.873,4.873,0,0,1-1.053-1.875,5.509,5.509,0,0,1,1.34-5.453c1.452-1.319,4.44-3.124,9.31-2.149-.856-3.324.33-6.745,3.521-10.04,1.5-1.546,4.016-2.543,6.257-1.282,1.911,1.075,1.736,3.463,1.651,4.611a51.18,51.18,0,0,0,2.335,18.372,44.9,44.9,0,0,1,1.742,24.3c-.914,4.874-3.935,6.9-10.772,7.238-.523.025-1.045.078-1.557.128-.667.066-1.394.136-2.13.136m-8.076-12.8a6.333,6.333,0,0,1,3.474,2.528,11.371,11.371,0,0,1,1.466,4.265c.08.38.153.731.227,1.017.61,2.418,1.7,2.44,4.772,2.135.556-.053,1.122-.108,1.689-.135,6.825-.335,7.714-2.291,8.226-5.016a42.306,42.306,0,0,0-1.629-22.886,54.231,54.231,0,0,1-2.487-19.488c.033-.448.133-1.809-.268-2.035-1.117-.632-2.426.25-2.961.8-3.227,3.33-3.855,6.451-1.917,9.54a1.363,1.363,0,0,1-1.64,2c-4.985-1.894-7.863-.628-9.4.77a2.821,2.821,0,0,0-.563,2.643,2.689,2.689,0,0,0,2.456,1.778,1.363,1.363,0,0,1-.388,2.7,2.449,2.449,0,0,0-2.938,1.712,3.05,3.05,0,0,0,1.371,3.617,1.363,1.363,0,0,1-.7,2.573,1.207,1.207,0,0,0-1.382.953,3.079,3.079,0,0,0,.391,2.708,1.3,1.3,0,0,1,1.277.925,1.378,1.378,0,0,1-.59,1.537,1.925,1.925,0,0,0-.729,2.01,4.5,4.5,0,0,0,2.243,3.349" transform="translate(19.77 25.241)" fill="#231815"/>
      <path id="パス_87302" data-name="パス 87302" d="M71.427,40.113a2.048,2.048,0,0,1-1.25-2.62L75.46,22.21a2.042,2.042,0,0,1,2.6-1.286l8.519,2.944a1.228,1.228,0,0,1-.8,2.321l-7.642-2.642a.4.4,0,0,0-.495.241L72.847,37.657a.4.4,0,0,0,.23.523l6.312,2.18a.385.385,0,0,0,.506-.269L82.242,33.3A.377.377,0,0,0,82,32.8l-2.208-.762a1.2,1.2,0,0,1,.784-2.265L83.6,30.823a2.045,2.045,0,0,1,1.249,2.618l-2.817,8.151a2.045,2.045,0,0,1-2.6,1.29Z" transform="translate(19.988 11.761)"/>
      <path id="パス_87303" data-name="パス 87303" d="M85.692,43.165l-5.349-1.85A2.044,2.044,0,0,1,79.094,38.7l3.492-10.1a2.021,2.021,0,0,1,2.59-1.26l6,2.074c.864.712,1.6,1.506,1.232,2.581l-3.277,9.481a2.711,2.711,0,0,1-3.438,1.7m-1.161-13.14-3.024,8.747a.4.4,0,0,0,.241.495l4.67,1.615a.407.407,0,0,0,.524-.232L89.965,31.9a.429.429,0,0,0-.258-.534l-4.67-1.614a.425.425,0,0,0-.506.269" transform="translate(25.026 15.381)"/>
      <path id="パス_87304" data-name="パス 87304" d="M93.306,45.8l-5.349-1.85a2.044,2.044,0,0,1-1.249-2.618l3.492-10.1a2.021,2.021,0,0,1,2.59-1.26l6,2.074c.864.712,1.6,1.506,1.232,2.581L96.745,44.1a2.711,2.711,0,0,1-3.438,1.7m-1.161-13.14L89.121,41.4a.4.4,0,0,0,.241.495l4.67,1.615a.407.407,0,0,0,.524-.232l3.022-8.747A.429.429,0,0,0,97.321,34l-4.67-1.614a.425.425,0,0,0-.506.269" transform="translate(29.328 16.868)"/>
      <path id="パス_87305" data-name="パス 87305" d="M100.667,49.242l-5.094-1.761a2.046,2.046,0,0,1-1.25-2.618l3.493-10.105A2.02,2.02,0,0,1,100.4,33.5l4.9,1.692a.41.41,0,0,0,.534-.258l1.1-3.2a1.257,1.257,0,0,1,2.377.82l-5.185,15a2.735,2.735,0,0,1-3.465,1.687m-.775-13.07L96.81,45.089a.4.4,0,0,0,.232.523l4.16,1.438a.409.409,0,0,0,.534-.258l3.082-8.916a.41.41,0,0,0-.26-.534L100.4,35.9a.4.4,0,0,0-.506.269" transform="translate(33.631 17.453)"/>
      <path id="パス_87306" data-name="パス 87306" d="M106.051,52.841a1.437,1.437,0,0,1-1.751.853,1.416,1.416,0,0,1-.851-1.754l.47-1.358a1.414,1.414,0,0,1,1.751-.85,1.433,1.433,0,0,1,.851,1.75Zm2.016-5.831a1.437,1.437,0,0,1-1.751.853,1.417,1.417,0,0,1-.853-1.753l4.872-14.1a1.413,1.413,0,0,1,1.753-.85,1.432,1.432,0,0,1,.851,1.75Z" transform="translate(38.814 17.57)"/>
      <rect id="長方形_9880" data-name="長方形 9880" width="24.751" height="1.564" transform="translate(126.314 83.75) rotate(-15.079)"/>
      <rect id="長方形_9881" data-name="長方形 9881" width="1.565" height="24.709" transform="translate(81.347 46.296) rotate(-18.433)"/>
    </g>
  </g>
</svg>
