<svg xmlns="http://www.w3.org/2000/svg" viewBox="0 0 345 54"><defs><style>.cls-1{fill:none;}.cls-2{fill:#eeeef1;}.cls-3{fill:#525a70;}.cls-4{fill:#fff;}</style></defs><g id="レイヤー_1" data-name="レイヤー 1"><rect class="cls-1" width="345" height="54"/></g><g id="レイヤー_3" data-name="レイヤー 3"><polygon class="cls-2" points="231 54 114 54 114 0 231 0 243 27 231 54"/><path class="cls-3" d="M147.8,44.932a1.922,1.922,0,0,0-1.188,1.247c-.048.12-.095.168-.155.168a2.943,2.943,0,0,1-.9-.54,8.367,8.367,0,0,1-2.423-3.166,12.189,12.189,0,0,1-.851-2.675,8.784,8.784,0,0,1-5.625,6.549l-.072-.132a9.2,9.2,0,0,0,3.226-3.61,10.89,10.89,0,0,0,.96-2.807,11.69,11.69,0,0,0,.275-1.859v-.18c.564.108.564.108.972.192-.012-.443-.024-.659-.024-.911v-.144h-2.147c-.192,0-.36.012-.8.048l-.06-.408a4.968,4.968,0,0,0,.912.108h1.859c.228-.3.3-.384.54-.684.335.264.444.348.768.624.095.084.131.132.131.168,0,.108-.168.192-.947.444a9.387,9.387,0,0,0,.719,3.13,7.3,7.3,0,0,0,2.555,3.238,7.989,7.989,0,0,0,2.291,1.08Z"/><path class="cls-3" d="M152.745,38.671c.06-.9.084-1.571.084-2.039a4.073,4.073,0,0,0-.06-.731c1.787.131,2.026.168,2.026.36,0,.131-.131.215-.467.323-.036.984-.06,1.392-.132,2.087h2.986c.276-.348.36-.456.672-.8.479.371.647.491,1.115.851.12.108.156.168.156.228,0,.12-.156.228-.468.36a27.551,27.551,0,0,1-.611,5.769,1.884,1.884,0,0,1-.972,1.259,3.9,3.9,0,0,1-1.367.264c-.084,0-.12-.024-.12-.12-.048-.384-.1-.528-.264-.684a4.948,4.948,0,0,0-1.9-.707l.012-.144c1.715.107,2.615.156,2.7.156.432,0,.516-.084.659-.648a33.245,33.245,0,0,0,.492-5.529h-3.118a9.942,9.942,0,0,1-1.535,4.953,7.5,7.5,0,0,1-2.327,2.111,12.231,12.231,0,0,1-1.583.78l-.072-.132c2.662-1.8,3.778-3.922,4.078-7.712h-2.507a5.834,5.834,0,0,0-1.02.072l-.083-.444a7.022,7.022,0,0,0,1.163.12Z"/><path class="cls-3" d="M166.616,38.215a8.193,8.193,0,0,1-.276,1.655,16.155,16.155,0,0,1,1.739.96c.839.564,1.055.839,1.055,1.343,0,.528-.347,1.032-.719,1.032-.156,0-.24-.108-.42-.492a7.639,7.639,0,0,0-1.715-2.639,5.05,5.05,0,0,1-1.391,2.183,8.144,8.144,0,0,1-1.859,1.3l-.108-.132a6.9,6.9,0,0,0,2.387-5.2h-2.567l.012,5.529c0,1.248.012,1.475.036,2.471v.06c0,.192-.06.264-.276.312a3.173,3.173,0,0,1-.66.06c-.383,0-.48-.072-.48-.336v-.024c.024-.9.024-.9.048-1.871.024-.672.024-1.091.024-3.694,0-2.063,0-2.1-.083-3.55.671.312.875.42,1.547.791h2.422c.024-.455.036-.815.036-1.343a8.01,8.01,0,0,0-.048-.959c.336.036.6.072.756.084.971.072,1.211.132,1.211.3,0,.145-.048.168-.563.348-.037.864-.048,1.02-.084,1.571h2.746c.408-.455.408-.455.695-.791.457.324.6.42,1.044.743.132.1.18.157.18.24,0,.12-.12.228-.468.42v4.21c.024,2.075.024,2.075.036,2.65a.958.958,0,0,1-.635.972,3.263,3.263,0,0,1-1.152.252c-.131,0-.156-.012-.168-.228a1,1,0,0,0-.18-.492c-.263-.336-.491-.432-1.655-.72v-.143c1.128.071,1.271.084,2.147.12.192,0,.24-.036.24-.18v-6.8Z"/><path class="cls-3" d="M172.547,43.792a14.53,14.53,0,0,0,3.082-2.242,8.609,8.609,0,0,0,1.835-2.147c1.583.467,1.68.5,1.68.635s-.121.156-.528.192a5.242,5.242,0,0,0,2.014,1.32,10.463,10.463,0,0,0,3.179.707l-.012.108a1.409,1.409,0,0,0-.924,1.139c-.024.12-.072.168-.144.168a3.337,3.337,0,0,1-1.127-.479c-.084.06-.1.072-.18.132v.959c0,.552,0,.732.036,2.111-.012.12-.036.168-.132.2a3.219,3.219,0,0,1-.851.084c-.3,0-.384-.048-.384-.2v-.5h-4.006v.456a.178.178,0,0,1-.084.18,2.037,2.037,0,0,1-.779.1c-.372,0-.468-.036-.48-.216.024-.936.036-1.272.036-2.375V43.049a12.725,12.725,0,0,1-2.171.851ZM177.38,37.3v-.648a6.171,6.171,0,0,0-.071-.971c1.727.108,1.954.144,1.954.336,0,.12-.2.24-.527.3V37.3h2.842c.3-.312.4-.42.708-.72.575.4.755.528,1.319.972.108.1.144.144.144.2,0,.083-.084.155-.228.191a1.942,1.942,0,0,1-.324.036,1.66,1.66,0,0,0-.24.025c-.576.323-.647.359-1.583.827l-.084-.108a8.861,8.861,0,0,0,.372-1.175h-7.28c0,1.187-.492,2.1-1.139,2.1-.372,0-.648-.384-.648-.9a.494.494,0,0,1,.312-.516c.635-.359.791-.491.959-.851a3.076,3.076,0,0,0,.228-.936h.132a3.769,3.769,0,0,1,.156.852Zm-4.449,3.922a10.4,10.4,0,0,0,2.171-1.991A5.832,5.832,0,0,0,175.917,38c.791.2,1.5.408,1.619.456.084.048.12.084.12.144a.183.183,0,0,1-.072.12.74.74,0,0,1-.324.06c-.048.012-.132.012-.24.024A8.995,8.995,0,0,1,173,41.334Zm7.136,1.655c.192-.2.216-.228.384-.408a8.13,8.13,0,0,1-1.991-2.1,10.1,10.1,0,0,1-2.783,2.183c.216.168.216.168.42.324Zm-3.982,2.842h4.006v-2.59h-4.006Zm2.807-7.532a13.813,13.813,0,0,1,2.626.816,2.389,2.389,0,0,1,.839.6.835.835,0,0,1,.181.563c0,.444-.24.84-.5.84-.144,0-.264-.1-.48-.4-.12-.156-.576-.636-.888-.936a10.379,10.379,0,0,0-1.835-1.367Z"/><path class="cls-3" d="M189.62,45.735a6.211,6.211,0,0,0,2.9-1.7,4.46,4.46,0,0,0,1.2-3.154,3.029,3.029,0,0,0-3.31-3.274,3.734,3.734,0,0,0-.48.024,1.781,1.781,0,0,1,.552,1.283A9.72,9.72,0,0,1,189.008,43c-.779,1.3-1.475,1.955-2.074,1.955a.79.79,0,0,1-.648-.348,2.96,2.96,0,0,1-.276-.792,2.074,2.074,0,0,0-.515-.887,2.3,2.3,0,0,1-.468-1.379,3.958,3.958,0,0,1,1.007-2.4,5.954,5.954,0,0,1,4.522-1.967c2.674,0,4.581,1.691,4.581,4.066a4.228,4.228,0,0,1-2.7,3.934,8.943,8.943,0,0,1-2.77.719Zm-2.243-6.824a4.09,4.09,0,0,0-1.283,2.854c0,.828.408,1.68.816,1.68s1.187-1,1.966-2.471a7.129,7.129,0,0,0,.96-2.651,1.379,1.379,0,0,0-.048-.4,1.154,1.154,0,0,0-.1-.263A4.35,4.35,0,0,0,187.377,38.911Z"/><path class="cls-3" d="M205.794,37.22c.3-.348.4-.456.707-.8.552.42.72.552,1.224,1,.108.084.144.144.144.2,0,.132-.228.192-.792.2a9.583,9.583,0,0,1-1.151.7c.1.024.144.072.144.12,0,.1-.144.144-.552.168a13.629,13.629,0,0,1-1.151,1.079h1.3c.324-.384.432-.491.755-.863.48.4.648.54,1.14.959a.175.175,0,0,1,.06.1c0,.036-.048.06-.108.06H205.17v1.655h.492c.324-.372.419-.479.744-.839.455.4.6.516,1.043.923.036.048.06.072.06.108s-.036.06-.12.06H205.17v1.631h.54c.3-.359.384-.479.7-.839.479.4.635.528,1.1.947.036.036.06.06.06.084s-.048.06-.132.06H205.17v1.883h.588c.36-.419.468-.552.827-.971.516.444.672.587,1.176,1.043.06.048.084.084.084.108,0,.048-.06.072-.144.072h-5.025v.456c-.012.252-.18.312-.864.312-.336,0-.408-.048-.42-.228.012-.684.036-2.591.036-3.191V41.43a4.223,4.223,0,0,1-.515.5c-.108.084-.144.12-.348.3,0,.888.012,2,.048,3.358a.215.215,0,0,1-.168.24,3.252,3.252,0,0,1-.7.072c-.251,0-.324-.048-.324-.252v-.743h-.887v1.115c-.012.108-.036.168-.1.2a1.951,1.951,0,0,1-.756.108c-.288,0-.372-.048-.372-.264.037-.971.049-1.643.049-2.638V41.657a8.046,8.046,0,0,1-.984,1.128l-.12-.084a12.9,12.9,0,0,0,1.32-3.538,18.93,18.93,0,0,0,.371-2.123h-.515a3.115,3.115,0,0,0-.8.072l-.072-.432a3.3,3.3,0,0,0,.9.108h1.6c.336-.42.444-.552.791-.959.5.419.648.551,1.152,1.007.047.048.071.084.071.12s-.06.084-.155.084h-1.62a10.9,10.9,0,0,1-1.007,3.094l.144.12h.839c.264-.288.36-.384.624-.659.4.287.516.371.864.659.095.072.132.12.132.18,0,.084-.084.156-.324.288v1.235a17.307,17.307,0,0,0,2.122-4.485h-.935a3.034,3.034,0,0,1,.012.324,1.747,1.747,0,0,1-.252,1.007.939.939,0,0,1-.72.48c-.311,0-.551-.384-.551-.876a.4.4,0,0,1,.24-.395c.479-.3.563-.384.707-.648a1.8,1.8,0,0,0,.2-.912h.156a2.942,2.942,0,0,1,.168.768h1.044a6.561,6.561,0,0,0,.287-1.607,13.638,13.638,0,0,1,1.787.372c.037.023.084.059.084.1,0,.108-.155.191-.564.287-.143.408-.167.492-.3.852Zm-7.256,7.436h.887v-4.15h-.887Zm5.409-2.867V40.134h-1.271v1.655Zm-1.271,1.883h1.271V42.041h-1.271Zm1.271.252h-1.271v1.883h1.271Zm.036-4.042a8.982,8.982,0,0,0,.384-1.822c.551.143.707.192,1.223.335a5.846,5.846,0,0,0,.336-.923h-1.967a11.341,11.341,0,0,1-1.272,2.41Z"/><path class="cls-3" d="M208.535,37.915a5.023,5.023,0,0,0,.9.1h1.99c.324-.384.42-.492.744-.864.528.384.672.5,1.163.912.06.059.084.095.084.119,0,.048-.06.084-.144.084h-3.837a4.141,4.141,0,0,0-.828.072Zm.288,1.548a3.658,3.658,0,0,0,.863.1h1.4c.288-.372.384-.48.684-.828a13.544,13.544,0,0,1,1.116.9.164.164,0,0,1,.06.107c0,.036-.06.072-.12.072H209.65a4.216,4.216,0,0,0-.743.06Zm.072,1.547a3.606,3.606,0,0,0,.8.1h1.391c.276-.372.36-.48.648-.828.48.372.624.492,1.092.9a.166.166,0,0,1,.06.108c0,.036-.06.072-.144.072h-3.059a3.747,3.747,0,0,0-.707.059Zm.036-4.642a3.5,3.5,0,0,0,.851.1h1.332c.323-.395.419-.515.755-.887.5.408.648.527,1.1.947.047.048.071.084.071.12s-.047.072-.144.072h-3.118a4.4,4.4,0,0,0-.791.06Zm1.343,10.075c0,.276-.144.336-.779.336-.384,0-.456-.048-.456-.264.023-.816.036-1.487.036-2.567,0-.911-.013-1.175-.048-1.931.587.288.767.384,1.355.72h.935c.24-.288.24-.288.612-.7.4.288.516.372.876.66.095.084.131.144.131.2,0,.1-.095.18-.383.348v.575c0,.372.024,2.027.036,2.411a.317.317,0,0,1-.048.216q-.108.144-.756.144c-.312,0-.384-.048-.4-.24v-.4h-1.116Zm0-.732h1.116V42.989h-1.116Zm3.19-8.119c1.032.12,1.032.12,1.428.18a6.782,6.782,0,0,0,.084-1.1h-.756a5.23,5.23,0,0,0-.864.06l-.084-.408a4.955,4.955,0,0,0,.936.1h3.55c.3-.3.4-.395.7-.683a11.231,11.231,0,0,1,.971.791c.084.072.108.108.108.168,0,.108-.072.168-.372.324-.156,2.543-.3,3.37-.671,3.814a1.672,1.672,0,0,1-1.32.5c-.131,0-.156-.012-.18-.144a.967.967,0,0,0-.311-.552c-.168-.144-.276-.18-1.056-.4l.024-.168c.875.1,1.235.132,1.523.132.312,0,.4-.1.5-.516a17.164,17.164,0,0,0,.276-3.022h-1.739a8.343,8.343,0,0,1-.18,1.331l.168.048a1.123,1.123,0,0,1,.647.312.818.818,0,0,1,.216.576c0,.336-.144.624-.324.624-.083,0-.167-.048-.3-.18a4.927,4.927,0,0,0-.659-.5,5.021,5.021,0,0,1-3.118,2.95l-.072-.107a6.122,6.122,0,0,0,1.439-1.512,6.021,6.021,0,0,0,.756-1.9,7.63,7.63,0,0,0-1.356-.6Zm.54,4.989a5.645,5.645,0,0,1,.108,1.091c0,1.164-.432,2.135-.947,2.135a.486.486,0,0,1-.4-.324,1.7,1.7,0,0,1-.12-.551c0-.192.12-.384.4-.612a2.319,2.319,0,0,0,.816-1.751Zm.588.684a9.063,9.063,0,0,0-.06-1.068c1.475.132,1.595.156,1.595.312,0,.084-.072.144-.36.264V45.1c0,.227,0,.227.695.227.409,0,.552-.036.636-.18a9.086,9.086,0,0,0,.624-1.714l.12.012-.048,1.5v.012a.222.222,0,0,0,.18.24.479.479,0,0,1,.372.491.655.655,0,0,1-.6.636,9.422,9.422,0,0,1-1.655.084c-1.247,0-1.464-.1-1.511-.684v-.288c0-.059,0-.059.012-.959Zm.528-2.087c1.919.431,2.374.659,2.374,1.2,0,.432-.288.9-.552.9-.132,0-.192-.072-.407-.432a4.141,4.141,0,0,0-1.475-1.571Zm2.974,1.343a4.87,4.87,0,0,1,1.5,1.259,1.3,1.3,0,0,1,.312.756c0,.492-.432,1.091-.78,1.091-.192,0-.288-.167-.335-.563a9.984,9.984,0,0,0-.336-1.536,4.178,4.178,0,0,0-.444-.923Z"/><path class="cls-4" d="M190.159,17.029a9.424,9.424,0,0,1-9.545,9.24H143.487a9.423,9.423,0,0,1-9.544-9.24,9.423,9.423,0,0,1,9.544-9.239h37.127A9.423,9.423,0,0,1,190.159,17.029Z"/><path class="cls-3" d="M143.176,18.962h.44c.154,1.653.816,2.435,2.049,2.435a1.416,1.416,0,0,0,1.554-1.52c0-.75-.43-1.2-1.807-1.873a8.555,8.555,0,0,1-1.443-.783,1.993,1.993,0,0,1-.9-1.751,2.234,2.234,0,0,1,1.3-2.06,3.217,3.217,0,0,1,1.41-.254,5.753,5.753,0,0,1,1.344.187,1.738,1.738,0,0,0,.385.045,1.78,1.78,0,0,0,.661-.155l-.088,2.468h-.44a2.778,2.778,0,0,0-.375-1.377,1.7,1.7,0,0,0-1.52-.87,1.365,1.365,0,0,0-1.433,1.432,1.272,1.272,0,0,0,.364.925,4.888,4.888,0,0,0,1.432.849,5.926,5.926,0,0,1,1.829,1.123,2.105,2.105,0,0,1,.573,1.532,2.187,2.187,0,0,1-.771,1.773,3.212,3.212,0,0,1-2.016.628,6.609,6.609,0,0,1-1.488-.187,2.574,2.574,0,0,0-.418-.033,3.564,3.564,0,0,0-.728.1Z"/><path class="cls-3" d="M153.6,20.119c0,1.014.111,1.124,1.146,1.146v.286h-3.735v-.286c1.025-.022,1.135-.132,1.135-1.146V13.6a2.3,2.3,0,0,0-1.884.639,3.83,3.83,0,0,0-.661,1.895l-.4-.022.21-2.8h6.929l.21,2.8-.4.022a3.382,3.382,0,0,0-.76-1.983,2.424,2.424,0,0,0-1.8-.551Z"/><path class="cls-3" d="M157.052,21.265c.892-.022.991-.132.991-1.146V14.743c0-1.014-.11-1.135-.991-1.146V13.31H163.1l.2,2.347-.385.011c-.232-1.531-.816-2.038-2.369-2.038h-1.08v3.459h.794c1.189,0,1.476-.231,1.6-1.267h.352V18.7h-.352c-.132-1.069-.408-1.289-1.6-1.289h-.794v3.823h1.212c1.488,0,2.1-.573,2.424-2.292l.363.044-.231,2.567h-6.18Z"/><path class="cls-3" d="M166.732,20.13c0,1,.1,1.1,1.058,1.135v.286h-3.481v-.286c.9-.033.991-.132.991-1.135V14.743c0-1-.088-1.1-.947-1.146V13.31h3.316c2.247,0,3.228.7,3.228,2.292a2.09,2.09,0,0,1-1.41,2.192,7.068,7.068,0,0,1-2.215.287h-.54Zm.573-2.369a2.2,2.2,0,0,0,1.521-.451,2.269,2.269,0,0,0,.54-1.642c0-1.355-.651-2.038-1.929-2.038h-.705v4.131Z"/><path class="cls-3" d="M175.4,21.551a4.794,4.794,0,0,1,.739-2.148,9.976,9.976,0,0,1,2.181-2.2,3.253,3.253,0,0,0,.914-1.013,2.268,2.268,0,0,0,.232-1.014c0-.958-.518-1.586-1.3-1.586a1,1,0,0,0-1.025.738,3.028,3.028,0,0,0-.121,1c-.022.429-.22.606-.705.606-.529,0-.782-.188-.782-.584a1.9,1.9,0,0,1,.914-1.554,3.2,3.2,0,0,1,1.829-.495c1.663,0,2.655.76,2.655,2.038a2.042,2.042,0,0,1-.5,1.388,4.62,4.62,0,0,1-1.212.9,10.413,10.413,0,0,0-2.291,1.5,2.934,2.934,0,0,0-.87,1.245h3.194c.9,0,1.223-.286,1.422-1.277l.374.076-.385,2.38Z"/><polygon class="cls-4" points="230 0 241.85 27 230 54 232.15 54 244 27 232.15 0 230 0"/></g></svg>