<svg xmlns="http://www.w3.org/2000/svg" viewBox="0 0 345 54"><defs><style>.cls-1{fill:none;}.cls-2{fill:#525a70;}.cls-3{fill:#fff;}</style></defs><g id="レイヤー_1" data-name="レイヤー 1"><rect class="cls-1" width="345" height="54"/></g><g id="レイヤー_4" data-name="レイヤー 4"><rect class="cls-2" x="231" width="114" height="54"/><path class="cls-3" d="M261.417,38.527c-.011.84-.035,1.451-.095,1.979H262.8c.347-.444.468-.576.827-1.008.576.444.744.576,1.32,1.056a.258.258,0,0,1,.06.108c0,.06-.06.1-.144.1h-3.574c-.048.264-.084.4-.156.684a16.469,16.469,0,0,1,2.195,1.019c.623.36.851.648.851,1.055,0,.588-.336,1.152-.7,1.152-.168,0-.263-.084-.383-.348a7.6,7.6,0,0,0-2.027-2.674,4.133,4.133,0,0,1-1.739,2.218,6.656,6.656,0,0,1-1.943.864,4.23,4.23,0,0,0,2.47.515c1.632,0,3.9-.12,5.47-.275v.12a1.366,1.366,0,0,0-.744,1.187c-.012.132-.06.156-.276.168H264.2c-.276.012-.8.024-1.5.024a21.45,21.45,0,0,1-3.334-.084,3.008,3.008,0,0,1-2.279-1.247,4.9,4.9,0,0,1-.492-.96,17.728,17.728,0,0,1-1.619,2.075c0,.084.012.156.012.2v.1c0,.156-.048.239-.144.239a.246.246,0,0,1-.168-.119,6.508,6.508,0,0,1-.419-.828c-.073-.168-.193-.432-.36-.767a6.642,6.642,0,0,0,1.655-.816V41.01h-.96a2.53,2.53,0,0,0-.6.084l-.084-.432a3.017,3.017,0,0,0,.683.1h.888a6.677,6.677,0,0,1,.636-.8c.455.3.587.408,1.043.756a.208.208,0,0,1,.1.168c0,.1-.048.144-.4.408v2.866a1.857,1.857,0,0,0,.408.48,4.941,4.941,0,0,0,2.687-3.874h-1.824a5.713,5.713,0,0,0-.635.072l-.108-.408c.276.036.635.084.743.084h1.859a17.214,17.214,0,0,0,.072-1.979h-1.631a5.053,5.053,0,0,0-.731.084l-.12-.432a4.852,4.852,0,0,0,.863.1h2.639a10.355,10.355,0,0,0,.852-2.59,18.259,18.259,0,0,1,1.846.611c.06.048.1.084.1.144,0,.132-.132.18-.611.216-.564.564-1.368,1.32-1.74,1.619H262.7c.324-.395.42-.515.779-.9a14.02,14.02,0,0,1,1.224.935c.06.048.084.084.084.12s-.06.1-.144.1Zm-6.943-2.638a12.9,12.9,0,0,1,1.678.815c.588.372.828.672.828,1.08a1.35,1.35,0,0,1-.456,1.007.944.944,0,0,1-.48.2c-.131,0-.215-.072-.287-.264-.036-.084-.084-.228-.276-.816a5.823,5.823,0,0,0-1.1-1.942Zm3.933-.18c1.415.539,2.027,1.019,2.027,1.571a.942.942,0,0,1-.779.972.376.376,0,0,1-.4-.253,2.566,2.566,0,0,1-.156-.527,3.728,3.728,0,0,0-.78-1.655Z"/><path class="cls-3" d="M265.778,41.837a18.2,18.2,0,0,0,1.559-3.3,11.377,11.377,0,0,0,.767-2.89c1.788.42,1.919.455,1.919.612,0,.107-.144.179-.479.239a18.886,18.886,0,0,1-1.5,2.843c.121.024.121.024.648.108.168.024.288.1.288.168s-.06.119-.4.263v6.5a.234.234,0,0,1-.168.264,2.934,2.934,0,0,1-.851.108q-.306,0-.36-.144c-.012-.012-.012-.06-.012-.156.036-1.056.084-3.155.084-3.814V40.422a12.023,12.023,0,0,1-1.391,1.511Zm3.418-3.765a6.02,6.02,0,0,0,1.043.095H274.8c.4-.431.515-.563.9-1,.636.444.828.588,1.416,1.031.048.06.083.1.083.12,0,.06-.072.1-.155.1h-6.789a5.371,5.371,0,0,0-.971.072Zm.552,1.594a5.313,5.313,0,0,0,.959.1h3.562c.348-.384.348-.384.84-.924.623.42.8.552,1.367.96.06.059.084.1.084.131s-.06.084-.144.084h-5.709a5.032,5.032,0,0,0-.876.06Zm.012,1.608a4.551,4.551,0,0,0,.959.1h3.6c.36-.408.468-.54.827-.948.6.432.78.564,1.344.984.048.06.072.1.072.132s-.06.084-.144.084h-5.685a4.316,4.316,0,0,0-.876.071Zm1.475,5.049c-.012.132-.036.2-.12.24a1.915,1.915,0,0,1-.8.12c-.348,0-.443-.048-.443-.252.047-1.247.06-1.367.06-2.075a20.3,20.3,0,0,0-.06-2.135,12.131,12.131,0,0,1,1.535.732h3.106c.3-.312.384-.408.684-.708.467.312.611.42,1.031.72.12.1.168.156.168.2,0,.084-.12.18-.444.335V44c0,.5.012,1.284.048,2.3,0,.132-.024.2-.084.252a1.649,1.649,0,0,1-.852.156c-.359,0-.431-.048-.443-.252v-.528h-3.382Zm-1.115-9.847a4.545,4.545,0,0,0,.983.1h3.118c.384-.407.5-.528.864-.911.611.408.791.539,1.319.947.06.06.1.1.1.132,0,.06-.06.084-.168.084H271.1a4.761,4.761,0,0,0-.9.072Zm1.115,9.2h3.382v-2.47h-3.382Z"/><path class="cls-3" d="M285.382,45.04c0,.287.059.312.815.312.828,0,1.152-.037,1.272-.156a8.419,8.419,0,0,0,.9-2.327l.1.012-.036,1.943a1.457,1.457,0,0,0,.024.276c.024.06.024.06.3.143a.491.491,0,0,1,.324.456.621.621,0,0,1-.348.552,6.409,6.409,0,0,1-2.543.228c-1.319,0-1.679-.048-1.907-.288a.768.768,0,0,1-.18-.456,6.169,6.169,0,0,1-.024-.935V41.585h-1.415c-.072,3.155-1.235,4.474-4.557,5.146l-.048-.12a5.9,5.9,0,0,0,2.566-1.979,5.412,5.412,0,0,0,.7-3.047h-1.871a5.039,5.039,0,0,0-.936.1l-.119-.443a5.186,5.186,0,0,0,1.067.1h7.184c.384-.432.5-.552.9-.972.588.432.78.576,1.4,1.08.035.036.06.06.06.084a.076.076,0,0,1-.06.059h-3.562Zm-2.6-7.568v-.684a6.907,6.907,0,0,0-.072-1.043c.408.048.72.084.912.108.935.1,1.079.132,1.079.275,0,.12-.024.133-.516.336v1.008h2.795l.7-.768c.636.444.816.588,1.391,1.044.108.072.144.132.144.192,0,.155-.215.215-.827.239-.648.408-1.02.624-1.487.864.192.144.275.216.527.42.036.035.06.06.06.1a.08.08,0,0,1-.084.072h-6.308a5.707,5.707,0,0,0-.744.084l-.108-.432a4.758,4.758,0,0,0,.852.1h4.21c.324-.4.431-.516.791-.924.3.216.408.288.636.456a7.573,7.573,0,0,0,.384-1.187h-7.125v.156c0,1.067-.5,1.894-1.151,1.894a.528.528,0,0,1-.492-.311,1.23,1.23,0,0,1-.156-.576.626.626,0,0,1,.1-.348c.059-.084.084-.1.4-.287a1.894,1.894,0,0,0,.984-1.644h.108a3.862,3.862,0,0,1,.2.864Z"/><path class="cls-3" d="M298.017,36.572c.384-.348.5-.455.864-.779a17.411,17.411,0,0,1,1.5,1.175c.12.108.168.168.168.24,0,.12-.168.192-.444.192-.084,0-.2,0-.36-.012a31.212,31.212,0,0,1-3.238,1.823c.216.048.3.1.3.192,0,.132-.144.216-.528.324v2.986l.024,2.578c-.024.756-.263,1.044-1.031,1.248a4.991,4.991,0,0,1-.924.144c-.156,0-.18-.024-.2-.252a.839.839,0,0,0-.373-.648,5.549,5.549,0,0,0-1.9-.66v-.131c1.164.072,1.572.084,2.747.108.156-.012.216-.06.216-.2V40.014a8.554,8.554,0,0,0-.084-1.067c.672.084.876.108,1.319.18a18.391,18.391,0,0,0,1.931-2.3h-6.212a6.625,6.625,0,0,0-1.151.084l-.084-.456a6.216,6.216,0,0,0,1.259.12Z"/><path class="cls-3" d="M307.63,17.029a9.424,9.424,0,0,1-9.545,9.24H260.958a9.423,9.423,0,0,1-9.544-9.24,9.423,9.423,0,0,1,9.544-9.239h37.127A9.423,9.423,0,0,1,307.63,17.029Z"/><path class="cls-2" d="M260.646,18.962h.441c.154,1.653.815,2.435,2.049,2.435a1.416,1.416,0,0,0,1.553-1.52c0-.75-.429-1.2-1.806-1.873a8.584,8.584,0,0,1-1.444-.783,1.992,1.992,0,0,1-.9-1.751,2.235,2.235,0,0,1,1.3-2.06,3.222,3.222,0,0,1,1.411-.254,5.74,5.74,0,0,1,1.343.187,1.753,1.753,0,0,0,.386.045,1.784,1.784,0,0,0,.661-.155l-.088,2.468h-.441a2.768,2.768,0,0,0-.374-1.377,1.7,1.7,0,0,0-1.521-.87,1.365,1.365,0,0,0-1.432,1.432,1.272,1.272,0,0,0,.363.925,4.9,4.9,0,0,0,1.433.849,5.926,5.926,0,0,1,1.829,1.123,2.109,2.109,0,0,1,.572,1.532,2.184,2.184,0,0,1-.771,1.773,3.21,3.21,0,0,1-2.016.628,6.6,6.6,0,0,1-1.487-.187,2.578,2.578,0,0,0-.419-.033,3.565,3.565,0,0,0-.727.1Z"/><path class="cls-2" d="M271.066,20.119c0,1.014.11,1.124,1.145,1.146v.286h-3.734v-.286c1.024-.022,1.135-.132,1.135-1.146V13.6a2.3,2.3,0,0,0-1.885.639,3.831,3.831,0,0,0-.66,1.895l-.4-.022.209-2.8h6.93l.21,2.8-.4.022a3.389,3.389,0,0,0-.76-1.983,2.425,2.425,0,0,0-1.8-.551Z"/><path class="cls-2" d="M274.522,21.265c.892-.022.992-.132.992-1.146V14.743c0-1.014-.111-1.135-.992-1.146V13.31h6.048l.2,2.347-.386.011c-.232-1.531-.816-2.038-2.369-2.038h-1.079v3.459h.793c1.189,0,1.476-.231,1.6-1.267h.353V18.7h-.353c-.132-1.069-.408-1.289-1.6-1.289h-.793v3.823h1.211c1.488,0,2.1-.573,2.424-2.292l.364.044-.232,2.567h-6.18Z"/><path class="cls-2" d="M284.2,20.13c0,1,.1,1.1,1.057,1.135v.286h-3.481v-.286c.9-.033.991-.132.991-1.135V14.743c0-1-.088-1.1-.947-1.146V13.31h3.316c2.248,0,3.228.7,3.228,2.292a2.09,2.09,0,0,1-1.41,2.192,7.065,7.065,0,0,1-2.214.287h-.54Zm.572-2.369a2.2,2.2,0,0,0,1.521-.451,2.269,2.269,0,0,0,.54-1.642c0-1.355-.651-2.038-1.928-2.038H284.2v4.131Z"/><path class="cls-2" d="M295.887,17.332c1.675.132,2.534.859,2.534,2.126,0,1.41-1.09,2.269-2.875,2.269-1.565,0-2.7-.716-2.7-1.707,0-.419.308-.661.826-.661a.671.671,0,0,1,.562.209c.066.088.066.11.088.617a1.705,1.705,0,0,0,.3.881,1.146,1.146,0,0,0,.9.375c.914,0,1.432-.738,1.432-2.016a1.879,1.879,0,0,0-.606-1.6,2.633,2.633,0,0,0-1.432-.352h-.331v-.342h.309a1.7,1.7,0,0,0,1.894-1.906c0-1.068-.407-1.641-1.189-1.641a.91.91,0,0,0-.871.463,2.052,2.052,0,0,0-.22.892c-.011.364-.033.441-.132.551a.811.811,0,0,1-.573.165c-.507,0-.771-.187-.771-.54,0-1.024,1.135-1.817,2.6-1.817a3.112,3.112,0,0,1,1.961.6,1.8,1.8,0,0,1,.606,1.356c0,1.079-.837,1.8-2.314,1.983Z"/></g></svg>