<svg xmlns="http://www.w3.org/2000/svg" viewBox="0 0 800 50"><defs><style>.cls-1{fill:none;}.cls-2{fill:#eeeef1;}.cls-3{fill:#525a70;}.cls-4{fill:#fff;}</style></defs><g id="レイヤー_1" data-name="レイヤー 1"><rect class="cls-1" width="800" height="50"/></g><g id="レイヤー_3" data-name="レイヤー 3"><polygon class="cls-2" points="533 50 266.667 50 266.667 0 533 0 544 25 533 50"/><path class="cls-3" d="M391.678,30.385A2.727,2.727,0,0,0,390,32.153c-.067.17-.136.238-.221.238a4.182,4.182,0,0,1-1.275-.765,11.877,11.877,0,0,1-3.434-4.488,17.266,17.266,0,0,1-1.206-3.79,12.446,12.446,0,0,1-7.972,9.281l-.1-.187a13.052,13.052,0,0,0,4.572-5.117,15.406,15.406,0,0,0,1.36-3.977,16.634,16.634,0,0,0,.391-2.635v-.255c.8.153.8.153,1.377.272-.017-.629-.034-.935-.034-1.292v-.2h-3.043c-.271,0-.51.017-1.138.068l-.085-.578a7.028,7.028,0,0,0,1.292.153h2.634c.323-.425.425-.544.765-.969.476.374.629.493,1.088.884.136.119.186.187.186.238,0,.153-.237.272-1.342.629a13.315,13.315,0,0,0,1.02,4.437,10.338,10.338,0,0,0,3.62,4.589,11.328,11.328,0,0,0,3.247,1.53Z"/><path class="cls-3" d="M398.684,21.512c.085-1.275.118-2.227.118-2.89a5.8,5.8,0,0,0-.085-1.037c2.533.187,2.873.238,2.873.51,0,.187-.187.306-.663.459-.051,1.394-.085,1.972-.187,2.958h4.233c.39-.493.509-.646.952-1.139.68.527.918.7,1.58,1.207.17.153.222.238.222.323,0,.17-.222.323-.664.51-.238,4.742-.442,6.68-.867,8.176a2.669,2.669,0,0,1-1.377,1.785,5.527,5.527,0,0,1-1.937.374c-.119,0-.17-.034-.17-.17-.068-.544-.136-.748-.374-.969a7.026,7.026,0,0,0-2.686-1l.017-.2c2.431.153,3.706.221,3.825.221.612,0,.731-.119.935-.918a47.254,47.254,0,0,0,.7-7.836h-4.42c-.34,3.28-.986,5.32-2.176,7.02a10.609,10.609,0,0,1-3.3,2.992,17.2,17.2,0,0,1-2.244,1.1l-.1-.187c3.773-2.55,5.354-5.559,5.779-10.93h-3.553a8.261,8.261,0,0,0-1.444.1l-.119-.629a9.966,9.966,0,0,0,1.648.17Z"/><path class="cls-3" d="M418.335,20.866a11.709,11.709,0,0,1-.391,2.346,22.6,22.6,0,0,1,2.465,1.36c1.19.8,1.5,1.189,1.5,1.9,0,.748-.493,1.462-1.019,1.462-.221,0-.34-.153-.595-.7a10.809,10.809,0,0,0-2.431-3.739,7.16,7.16,0,0,1-1.972,3.093,11.538,11.538,0,0,1-2.635,1.836l-.152-.187c2.141-1.853,3.11-3.978,3.382-7.377h-3.637l.016,7.836c0,1.768.018,2.091.051,3.5v.085c0,.272-.085.374-.391.442a4.484,4.484,0,0,1-.934.085c-.544,0-.681-.1-.681-.476v-.034c.035-1.275.035-1.275.069-2.652.034-.952.034-1.547.034-5.236,0-2.923,0-2.974-.119-5.031.952.442,1.241.595,2.192,1.122h3.434c.034-.646.051-1.156.051-1.9a11.371,11.371,0,0,0-.068-1.36c.476.051.85.1,1.071.119,1.377.1,1.717.187,1.717.425,0,.2-.068.238-.8.493-.052,1.224-.068,1.445-.119,2.227h3.893c.578-.646.578-.646.985-1.122.647.459.851.595,1.48,1.054.186.136.254.221.254.34,0,.17-.17.323-.663.6v5.966c.035,2.941.035,2.941.051,3.757a1.358,1.358,0,0,1-.9,1.377,4.631,4.631,0,0,1-1.632.357c-.188,0-.222-.017-.238-.323a1.433,1.433,0,0,0-.255-.7c-.374-.476-.7-.612-2.346-1.02v-.2c1.6.1,1.8.119,3.043.17.271,0,.34-.051.34-.255V20.866Z"/><path class="cls-3" d="M426.733,28.77a20.594,20.594,0,0,0,4.37-3.179,12.205,12.205,0,0,0,2.6-3.042c2.244.663,2.38.714,2.38.9,0,.17-.17.221-.748.271a7.436,7.436,0,0,0,2.856,1.87,14.782,14.782,0,0,0,4.5,1l-.017.153a2,2,0,0,0-1.309,1.615c-.034.17-.1.238-.2.238a4.722,4.722,0,0,1-1.6-.68c-.119.085-.135.1-.255.187v1.36c0,.782,0,1.037.051,2.992-.016.17-.051.238-.186.289a4.579,4.579,0,0,1-1.207.119c-.425,0-.544-.068-.544-.289v-.714h-5.678v.646a.252.252,0,0,1-.119.255,2.89,2.89,0,0,1-1.105.136c-.527,0-.663-.051-.679-.306.034-1.326.05-1.8.05-3.366V27.716a18.032,18.032,0,0,1-3.077,1.207Zm6.851-9.2v-.918a8.6,8.6,0,0,0-.1-1.377c2.448.153,2.771.2,2.771.476,0,.17-.289.34-.748.425v1.394h4.028c.425-.442.562-.6,1-1.02.817.561,1.071.748,1.87,1.377.154.136.2.2.2.289,0,.119-.119.221-.323.272a2.752,2.752,0,0,1-.459.051,2.571,2.571,0,0,0-.34.034c-.815.459-.918.51-2.244,1.173l-.118-.153a12.566,12.566,0,0,0,.526-1.666H429.335c0,1.683-.7,2.975-1.615,2.975-.528,0-.918-.544-.918-1.275a.7.7,0,0,1,.442-.731c.9-.51,1.121-.7,1.36-1.207a4.387,4.387,0,0,0,.323-1.326h.186a5.344,5.344,0,0,1,.222,1.207Zm-6.307,5.558a14.681,14.681,0,0,0,3.078-2.821,8.253,8.253,0,0,0,1.156-1.751c1.121.289,2.124.578,2.294.646.119.068.17.119.17.2a.259.259,0,0,1-.1.17,1.048,1.048,0,0,1-.459.085c-.068.017-.186.017-.34.034a12.742,12.742,0,0,1-5.694,3.586Zm10.115,2.346c.272-.289.305-.323.544-.578a11.529,11.529,0,0,1-2.822-2.975,14.3,14.3,0,0,1-3.944,3.094c.307.238.307.238.6.459Zm-5.644,4.029h5.678V27.835h-5.678Zm3.978-10.675a19.56,19.56,0,0,1,3.722,1.156,3.42,3.42,0,0,1,1.191.85,1.186,1.186,0,0,1,.255.8c0,.628-.34,1.189-.714,1.189-.2,0-.374-.136-.681-.561-.17-.221-.815-.9-1.258-1.325a14.653,14.653,0,0,0-2.6-1.938Z"/><path class="cls-3" d="M450.924,31.524a8.81,8.81,0,0,0,4.114-2.414,6.325,6.325,0,0,0,1.7-4.471c0-2.906-1.767-4.64-4.691-4.64a5.289,5.289,0,0,0-.68.034,2.526,2.526,0,0,1,.781,1.819,13.782,13.782,0,0,1-2.089,5.8c-1.106,1.836-2.091,2.771-2.942,2.771a1.12,1.12,0,0,1-.918-.493,4.2,4.2,0,0,1-.39-1.122,2.937,2.937,0,0,0-.732-1.258,3.27,3.27,0,0,1-.662-1.955,5.605,5.605,0,0,1,1.428-3.4A8.441,8.441,0,0,1,452.25,19.4c3.791,0,6.493,2.4,6.493,5.762a5.993,5.993,0,0,1-3.824,5.576,12.647,12.647,0,0,1-3.927,1.02Zm-3.179-9.672a5.793,5.793,0,0,0-1.818,4.045c0,1.173.578,2.38,1.155,2.38s1.684-1.411,2.788-3.5a10.1,10.1,0,0,0,1.361-3.756,1.952,1.952,0,0,0-.069-.561,1.628,1.628,0,0,0-.136-.374A6.164,6.164,0,0,0,447.745,21.852Z"/><path class="cls-3" d="M473.84,19.455c.425-.493.56-.646,1-1.139.781.6,1.019.782,1.733,1.411.154.119.2.2.2.289,0,.187-.323.272-1.122.289a13.352,13.352,0,0,1-1.632.986c.136.034.2.1.2.17,0,.136-.2.2-.783.238a19.422,19.422,0,0,1-1.632,1.53h1.836c.459-.544.613-.7,1.072-1.224.679.561.918.765,1.614,1.36a.242.242,0,0,1,.085.136c0,.051-.067.085-.153.085h-3.315v2.345h.7c.459-.527.6-.68,1.054-1.19.647.561.851.731,1.48,1.309.05.068.084.1.084.153s-.051.085-.169.085h-3.146V28.6h.766c.424-.51.544-.68.985-1.19.681.561.9.748,1.564,1.343.051.051.086.085.086.119,0,.051-.069.085-.188.085h-3.213v2.669h.833c.511-.6.663-.782,1.173-1.377.731.629.952.833,1.666,1.479.085.068.119.119.119.153,0,.068-.085.1-.2.1H469.42v.646c-.017.357-.255.442-1.224.442-.476,0-.578-.068-.594-.323.016-.969.05-3.672.05-4.522v-2.8a5.9,5.9,0,0,1-.731.714c-.152.119-.2.17-.493.425,0,1.258.017,2.839.068,4.76a.3.3,0,0,1-.238.34,4.6,4.6,0,0,1-.986.1c-.357,0-.459-.068-.459-.357V30.351h-1.257v1.581c-.018.153-.051.238-.136.289a2.768,2.768,0,0,1-1.071.153c-.408,0-.528-.068-.528-.374.052-1.377.069-2.329.069-3.74V25.744a11.4,11.4,0,0,1-1.394,1.6l-.17-.119a18.232,18.232,0,0,0,1.869-5.014,26.659,26.659,0,0,0,.528-3.009h-.732a4.4,4.4,0,0,0-1.138.1l-.1-.612a4.664,4.664,0,0,0,1.274.153h2.261c.477-.595.629-.782,1.122-1.36.714.595.918.782,1.632,1.428.068.068.1.119.1.17,0,.068-.085.119-.222.119h-2.3a15.4,15.4,0,0,1-1.428,4.386l.2.17h1.191c.374-.408.51-.544.884-.935.56.408.73.527,1.223.935.136.1.187.169.187.255,0,.118-.118.221-.459.407v1.751a24.511,24.511,0,0,0,3.008-6.357h-1.325a4.3,4.3,0,0,1,.017.459,2.477,2.477,0,0,1-.357,1.428,1.331,1.331,0,0,1-1.02.68c-.441,0-.781-.544-.781-1.241a.566.566,0,0,1,.34-.561c.679-.425.8-.544,1-.918a2.561,2.561,0,0,0,.29-1.292h.22a4.167,4.167,0,0,1,.238,1.088h1.479a9.239,9.239,0,0,0,.408-2.278,19.41,19.41,0,0,1,2.533.527c.05.034.119.085.119.136,0,.153-.221.272-.8.408-.2.578-.239.7-.425,1.207ZM463.556,29.994h1.257V24.112h-1.257Zm7.666-4.063V23.586h-1.8v2.345Zm-1.8,2.669h1.8V26.288h-1.8Zm1.8.357h-1.8v2.669h1.8Zm.05-5.728a12.62,12.62,0,0,0,.544-2.584c.783.2,1,.272,1.735.476a8.234,8.234,0,0,0,.475-1.309h-2.788a16,16,0,0,1-1.8,3.417Z"/><path class="cls-3" d="M477.717,20.441a7.25,7.25,0,0,0,1.274.136h2.822c.459-.544.6-.7,1.054-1.224.748.544.952.714,1.649,1.292.086.085.119.136.119.17,0,.068-.085.119-.2.119h-5.44a5.867,5.867,0,0,0-1.173.1Zm.408,2.193a5.193,5.193,0,0,0,1.224.136h1.989c.407-.527.544-.68.969-1.173a19.172,19.172,0,0,1,1.58,1.275.235.235,0,0,1,.085.153c0,.051-.085.1-.17.1h-4.5a5.849,5.849,0,0,0-1.054.085Zm.1,2.192a5.118,5.118,0,0,0,1.138.136h1.973c.391-.527.51-.68.917-1.173.681.527.885.7,1.547,1.275a.231.231,0,0,1,.085.153c0,.051-.085.1-.2.1h-4.335a5.213,5.213,0,0,0-1,.085Zm.05-6.578a4.973,4.973,0,0,0,1.207.136h1.887c.459-.561.6-.731,1.071-1.258.714.578.918.748,1.564,1.343.068.068.1.119.1.17q0,.1-.2.1h-4.42a6.251,6.251,0,0,0-1.122.085Zm1.905,14.279c0,.391-.2.476-1.106.476-.544,0-.645-.068-.645-.374.034-1.156.05-2.108.05-3.638,0-1.292-.016-1.666-.067-2.737.833.408,1.088.544,1.921,1.02h1.325c.34-.408.34-.408.867-.986.561.408.731.527,1.242.935.135.119.186.2.186.289,0,.136-.136.255-.544.493v.816c0,.527.034,2.873.051,3.417a.456.456,0,0,1-.067.306c-.1.136-.459.2-1.072.2-.441,0-.544-.068-.56-.34v-.561h-1.581Zm0-1.037h1.581V27.631h-1.581ZM484.7,19.982c1.462.17,1.462.17,2.023.255a9.45,9.45,0,0,0,.119-1.564h-1.071a7.41,7.41,0,0,0-1.224.085l-.119-.578a7.028,7.028,0,0,0,1.326.136h5.031c.426-.425.562-.561.986-.969a15.731,15.731,0,0,1,1.377,1.122c.119.1.154.153.154.238,0,.153-.1.238-.528.459-.22,3.6-.424,4.777-.952,5.406a2.372,2.372,0,0,1-1.87.713c-.186,0-.221-.017-.255-.2a1.356,1.356,0,0,0-.441-.781c-.239-.2-.392-.256-1.5-.561l.034-.238c1.241.136,1.751.187,2.158.187.442,0,.562-.136.715-.731a24.564,24.564,0,0,0,.391-4.284H488.6a11.871,11.871,0,0,1-.255,1.887l.238.068a1.6,1.6,0,0,1,.918.442,1.163,1.163,0,0,1,.306.816c0,.476-.2.884-.459.884-.119,0-.238-.068-.425-.255a7.037,7.037,0,0,0-.936-.714c-.748,1.955-1.937,3.076-4.419,4.181l-.1-.153a8.671,8.671,0,0,0,2.04-2.141A8.538,8.538,0,0,0,486.573,21a10.814,10.814,0,0,0-1.921-.85Zm.765,7.071a8,8,0,0,1,.153,1.547c0,1.649-.612,3.026-1.343,3.026a.692.692,0,0,1-.561-.459,2.409,2.409,0,0,1-.17-.782c0-.272.17-.544.561-.867a3.286,3.286,0,0,0,1.156-2.482Zm.833.969a12.84,12.84,0,0,0-.085-1.513c2.091.187,2.261.221,2.261.442,0,.119-.1.2-.51.374v3.3c0,.323,0,.323.986.323.577,0,.781-.051.9-.255a12.981,12.981,0,0,0,.883-2.431l.17.017L490.84,30.4v.017a.313.313,0,0,0,.255.34.681.681,0,0,1,.526.7.927.927,0,0,1-.85.9,13.343,13.343,0,0,1-2.345.119c-1.768,0-2.074-.136-2.142-.969V31.1c0-.085,0-.085.017-1.36Zm.748-2.958c2.72.612,3.365.935,3.365,1.7,0,.612-.407,1.275-.781,1.275-.188,0-.273-.1-.578-.612a5.881,5.881,0,0,0-2.091-2.227Zm4.216,1.9a6.884,6.884,0,0,1,2.125,1.785,1.84,1.84,0,0,1,.441,1.071c0,.7-.612,1.547-1.1,1.547-.273,0-.409-.238-.477-.8a13.818,13.818,0,0,0-.476-2.176,5.816,5.816,0,0,0-.629-1.309Z"/><path class="cls-4" d="M364.574,25a10.91,10.91,0,0,1-11.05,10.7H310.54A10.911,10.911,0,0,1,299.49,25a10.911,10.911,0,0,1,11.05-10.7h42.984A10.91,10.91,0,0,1,364.574,25Z"/><path class="cls-3" d="M310.18,27.237h.509c.179,1.914.945,2.819,2.373,2.819a1.639,1.639,0,0,0,1.8-1.76c0-.868-.5-1.391-2.092-2.169a10.1,10.1,0,0,1-1.671-.9,2.311,2.311,0,0,1-1.046-2.029,2.588,2.588,0,0,1,1.506-2.385,3.735,3.735,0,0,1,1.632-.294,6.659,6.659,0,0,1,1.556.217,2.036,2.036,0,0,0,.447.051,2.083,2.083,0,0,0,.765-.178l-.1,2.857h-.51a3.2,3.2,0,0,0-.434-1.594,1.973,1.973,0,0,0-1.76-1.008,1.581,1.581,0,0,0-1.659,1.658,1.476,1.476,0,0,0,.421,1.072,5.685,5.685,0,0,0,1.659.982,6.847,6.847,0,0,1,2.117,1.3,2.436,2.436,0,0,1,.663,1.773,2.531,2.531,0,0,1-.892,2.054,3.722,3.722,0,0,1-2.335.727,7.613,7.613,0,0,1-1.722-.217,3.045,3.045,0,0,0-.485-.038,4.156,4.156,0,0,0-.842.115Z"/><path class="cls-3" d="M322.243,28.576c0,1.174.128,1.3,1.327,1.327v.332h-4.324V29.9c1.186-.025,1.314-.153,1.314-1.327V21.025a2.662,2.662,0,0,0-2.182.74,4.431,4.431,0,0,0-.765,2.194l-.46-.026.242-3.24h8.025l.242,3.24-.459.026a3.912,3.912,0,0,0-.881-2.3,2.8,2.8,0,0,0-2.079-.638Z"/><path class="cls-3" d="M326.244,29.9c1.033-.025,1.149-.153,1.149-1.327V22.351c0-1.173-.128-1.314-1.149-1.326v-.332h7l.229,2.717-.447.013c-.267-1.773-.943-2.36-2.742-2.36h-1.25v4.005h.918c1.378,0,1.71-.267,1.85-1.466h.408v3.329h-.408c-.153-1.237-.472-1.493-1.85-1.493h-.918v4.427h1.4c1.722,0,2.437-.663,2.807-2.653l.42.051-.268,2.972h-7.156Z"/><path class="cls-3" d="M337.453,28.589c0,1.161.114,1.276,1.224,1.314v.332h-4.031V29.9c1.046-.038,1.148-.153,1.148-1.314V22.351c0-1.16-.1-1.275-1.1-1.326v-.332h3.84c2.6,0,3.737.8,3.737,2.653a2.421,2.421,0,0,1-1.632,2.539,8.211,8.211,0,0,1-2.564.332h-.625Zm.663-2.742a2.545,2.545,0,0,0,1.76-.523,2.62,2.62,0,0,0,.625-1.9c0-1.569-.752-2.36-2.232-2.36h-.816v4.784Z"/><path class="cls-3" d="M347.485,30.235a5.553,5.553,0,0,1,.855-2.488,11.581,11.581,0,0,1,2.526-2.551,3.789,3.789,0,0,0,1.059-1.174,2.641,2.641,0,0,0,.267-1.173c0-1.11-.6-1.837-1.5-1.837a1.156,1.156,0,0,0-1.186.855,3.5,3.5,0,0,0-.141,1.161c-.025.5-.255.7-.816.7-.612,0-.9-.217-.9-.676a2.2,2.2,0,0,1,1.058-1.8,3.7,3.7,0,0,1,2.118-.574c1.926,0,3.074.88,3.074,2.36a2.365,2.365,0,0,1-.574,1.608,5.392,5.392,0,0,1-1.4,1.046,12.1,12.1,0,0,0-2.653,1.734,3.4,3.4,0,0,0-1.008,1.442h3.7c1.046,0,1.416-.332,1.646-1.48l.433.089-.446,2.756Z"/><polygon class="cls-4" points="532 0 543 25 532 50 534 50 545 25 534 0 532 0"/></g></svg>