<?xml version="1.0" encoding="UTF-8"?><svg xmlns="http://www.w3.org/2000/svg" viewBox="0 0 311.05 107.3"><defs><style>.d{fill:#fff;}</style></defs><g id="a"/><g id="b"><g id="c"><g><path class="d" d="M28.39,70.83c10.49-14.31,18.33-25.57,23.51-33.8,5.19-8.23,7.78-13.46,7.78-15.71,0-.83-.35-1.51-1.05-2.05-.7-.54-1.52-.81-2.46-.81-1.82,0-6.94,1.46-15.38,4.39-6.97,2.44-12.07,4.38-15.29,5.82-3.22,1.44-7.66,3.5-13.32,6.19-5.65,2.69-8.89,4.03-9.71,4.03-1.64,0-2.46-.95-2.46-2.86,0-3.61,2.84-8.47,8.53-14.58,5.68-6.1,13.33-11.45,22.94-16.04,1.17-.63,1.76-.59,1.76,.15,0,.24-.7,.81-2.11,1.68-1.41,.88-2.65,1.77-3.74,2.67-1.08,.9-2.3,2.26-3.65,4.06,12.3-5.13,21.34-8.74,27.11-10.84,5.77-2.1,10.71-3.15,14.81-3.15,3.57,0,6.39,.62,8.44,1.87,2.05,1.25,3.08,3.04,3.08,5.38,0,2.05-.98,5.03-2.94,8.94-1.96,3.91-4.82,8.66-8.57,14.25-3.75,5.59-7.57,11.12-11.47,16.59-3.9,5.47-10.94,15.36-21.14,29.66,11.37-11.87,21.83-22.24,31.38-31.13,9.55-8.89,17.87-16.11,24.96-21.68,7.09-5.57,13.07-9.75,17.93-12.56,4.86-2.81,8.44-4.21,10.72-4.21,.82,0,1.79,.65,2.9,1.94,1.11,1.29,2.11,2.87,2.99,4.72,.88,1.86,1.32,3.37,1.32,4.54,0,3.22-.98,6.42-2.94,9.59-1.96,3.17-4.88,6.98-8.75,11.43-11.02,12.4-19.06,22.17-24.13,29.3-5.07,7.13-7.6,12.87-7.6,17.21,0,3.27,2.05,4.91,6.15,4.91,1.87,0,4.07-.59,6.59-1.76,2.52-1.17,5.54-2.98,9.05-5.42,3.52-2.44,7.06-5.1,10.63-7.98l.18,5.71c-5.04,4.3-9.55,7.97-13.54,11.02-3.99,3.05-7.75,5.73-11.29,8.02-3.55,2.29-6.72,4.03-9.54,5.2-2.81,1.17-5.27,1.76-7.38,1.76-3.05,0-5.49-.87-7.34-2.6-1.85-1.73-2.77-4.02-2.77-6.85,0-2.64,.69-5.82,2.07-9.56,1.38-3.74,3.49-8.04,6.33-12.93,2.84-4.88,6.36-10.18,10.55-15.89,4.19-5.71,8.92-11.67,14.19-17.87,5.16-6.15,7.73-10.11,7.73-11.87,0-1.03-.65-1.54-1.93-1.54-5.22,0-17.11,8.67-35.68,26-1.17,1.07-3.21,3.06-6.11,5.97-2.9,2.91-5.86,5.99-8.88,9.27-3.02,3.27-6.4,6.95-10.15,11.02-3.75,4.08-7.56,8.22-11.43,12.41-1.82,2-3.37,3-4.66,3-1.41,0-3.25-.95-5.54-2.86-2.29-1.9-3.43-3.3-3.43-4.17,0-1.03,1.63-3.59,4.88-7.69,3.25-4.1,5.87-7.54,7.87-10.33Z"/><path class="d" d="M127.79,78.74v1.83c0,2.88,.85,5.13,2.55,6.74,1.7,1.61,3.92,2.42,6.68,2.42s5.84-.56,8.92-1.68c3.08-1.12,6.14-2.61,9.19-4.47,3.05-1.86,6.77-4.35,11.16-7.47v4.47c-6.62,6.64-12.83,11.73-18.63,15.27-5.8,3.54-11.69,5.31-17.67,5.31-5.22,0-9.35-1.68-12.39-5.05-3.05-3.37-4.57-7.98-4.57-13.84,0-5.13,1.44-9.78,4.31-13.95,2.87-4.17,7.56-8.58,14.06-13.22,4.45-3.17,8.88-5.57,13.27-7.18,4.39-1.61,8.32-2.42,11.78-2.42,2.75,0,4.94,.53,6.55,1.57,1.61,1.05,2.42,2.63,2.42,4.72,0,3.08-1.38,6.14-4.13,9.19-2.75,3.05-6.96,6.08-12.61,9.08-5.66,3-12.61,5.9-20.87,8.68Zm.88-4.76c5.27-1.71,9.79-3.83,13.54-6.37,3.75-2.54,6.52-4.97,8.31-7.29,1.79-2.32,2.68-4.02,2.68-5.09s-.62-1.68-1.85-1.68c-1.05,0-2.77,.56-5.14,1.68-2.37,1.12-4.78,2.59-7.21,4.39-2.43,1.81-4.61,3.93-6.55,6.37-1.93,2.44-3.19,5.1-3.78,7.98Z"/><path class="d" d="M212.26,84.74c0,2.2,1,3.3,2.99,3.3,2.58,0,7.09-3.64,13.54-10.91-.23-1.37-.35-2.27-.35-2.71,0-2.64,1.26-5.86,3.78-9.67,2.52-3.81,5.42-7.13,8.7-9.96,3.28-2.83,5.77-4.25,7.47-4.25,2.05,0,3.08,2.05,3.08,6.15,0,3.37-.87,6.69-2.59,9.96-1.73,3.27-4.23,6.62-7.51,10.03,.53,.44,1.11,.89,1.76,1.35,.64,.46,1.33,.85,2.07,1.17,.73,.32,1.51,.48,2.33,.48,1.93,0,4.39-1.29,7.38-3.88v5.2c-4.63,4-8.64,6.01-12.04,6.01-1.99,0-3.56-.21-4.7-.62-1.14-.41-2.59-1.16-4.35-2.23-10.78,10.79-18.98,16.19-24.61,16.19-2.17,0-3.88-.67-5.14-2.01-1.26-1.34-1.89-3.21-1.89-5.6,0-1.17,.58-5.57,1.76-13.18-2.29,2.2-4.95,4.79-8,7.76-3.05,2.98-5.51,5.26-7.38,6.85-1.88,1.59-3.62,2.82-5.23,3.7-1.61,.88-3.24,1.32-4.88,1.32s-3.47-.83-5.67-2.49c-2.2-1.66-4.06-3.87-5.58-6.63-1.52-2.76-2.29-5.72-2.29-8.9s.53-5.71,1.58-7.91c1.05-2.2,3.46-5.49,7.21-9.89,3.4-3.91,6.42-7.1,9.05-9.59,2.64-2.49,5.02-4.42,7.16-5.79,2.14-1.37,3.88-2.05,5.23-2.05,.82,0,1.89,.16,3.21,.48,1.32,.32,2.49,.74,3.52,1.28,1.02,.54,1.54,1.1,1.54,1.68,0,1.86-.98,4.2-2.94,7.03-1.96,2.83-4.88,6.01-8.75,9.52-3.87,3.52-8.29,7.1-13.27,10.77-1.35,3.37-2.02,6.1-2.02,8.2,0,.68,.25,1.33,.75,1.94,.5,.61,1.1,.92,1.8,.92,2.4,0,7.02-3.12,13.84-9.38,6.83-6.25,15.83-15.72,27.03-28.42,.41-.49,1.29-.73,2.64-.73,1.46,0,2.8,.27,4,.81,1.2,.54,1.8,1.27,1.8,2.2,0,.54-1.54,3.39-4.61,8.57-3.08,5.18-5.74,9.92-8,14.25-2.26,4.32-3.38,7.56-3.38,9.7Z"/><path class="d" d="M254.18,78.15v-1.76c15.12-13.28,25.52-22.58,31.2-27.91,1.29-6.01,4.39-9.01,9.32-9.01,1.23,0,2.55,.29,3.95,.88l.53,1.39c-.23,.59-.35,1.42-.35,2.49,0,.93,.42,2.65,1.27,5.16,.85,2.52,1.51,4.63,1.98,6.34,.47,1.71,.7,3.64,.7,5.79,0,3.22-.88,6.31-2.64,9.27-1.76,2.95-4.31,5.79-7.65,8.5-3.34,2.71-7.65,5.48-12.92,8.31,2.11,.29,3.78,.44,5.01,.44,2.4,0,5-.5,7.78-1.5,2.78-1,5.62-2.34,8.53-4.03,2.9-1.68,6.28-3.87,10.15-6.56v4.91c-7.5,6.1-14.21,10.73-20.13,13.88-5.92,3.15-11.02,4.72-15.29,4.72-5.51,0-10.61-1.95-15.29-5.86-2.75-2.34-4.47-4.59-5.14-6.74-.67-2.15-1.01-5.05-1.01-8.72Zm32.78-11.21l-1.58-10.69c-3.63,3.42-11.4,9.99-23.29,19.7,3.52,.64,5.92,1.49,7.21,2.56,1.29,1.07,3.11,3.15,5.45,6.23,3.98-1.37,7.04-3.23,9.18-5.6,2.14-2.37,3.21-5.6,3.21-9.7,0-.49-.01-.93-.04-1.32-.03-.39-.07-.78-.13-1.17Z"/></g></g></g></svg>