<svg id="レイヤー_1" data-name="レイヤー 1" xmlns="http://www.w3.org/2000/svg" viewBox="0 0 165 55"><defs><style>.cls-1{fill:#00bc00;}.cls-2{fill:none;stroke:#fff;stroke-miterlimit:10;stroke-width:2px;}.cls-3{fill:#fff;}</style></defs><path class="cls-1" d="M137.5,55H27.5A27.5,27.5,0,0,1,0,27.5H0A27.5,27.5,0,0,1,27.5,0h110A27.5,27.5,0,0,1,165,27.5h0A27.5,27.5,0,0,1,137.5,55Z"/><polyline class="cls-2" points="142.3 19.8 150 27.5 142.3 35.2"/><path class="cls-3" d="M36.252,25.105a17.848,17.848,0,0,1-1.066,3.784A12.9,12.9,0,0,1,36.525,31L35.29,32.048a12.091,12.091,0,0,0-.885-1.6,8.731,8.731,0,0,1-2.665,2.808,6.743,6.743,0,0,0-1.04-1.209A7.217,7.217,0,0,0,33.469,29.1c-.689-.924-1.456-1.847-2.171-2.64l1.105-.871c.56.6,1.144,1.261,1.716,1.951a15.088,15.088,0,0,0,.624-2.627Zm6.708.481H41.569v5.85c0,.872-.156,1.327-.65,1.574a5.184,5.184,0,0,1-2.34.337,6.419,6.419,0,0,0-.494-1.664c.728.039,1.43.026,1.65.026.235,0,.313-.065.313-.273v-5.85H36.785V24.65h-5.72V23.22h2.261V21.231h1.483V23.22h2.4V24.1h2.835V21.218h1.521V24.1H42.96Zm-5.07,1.027a10.22,10.22,0,0,1,1.443,2.743l-1.339.689a10.885,10.885,0,0,0-1.34-2.834Z"/><path class="cls-3" d="M55.687,28.043a23.9,23.9,0,0,1-2.743,1.521A6.542,6.542,0,0,0,55.96,31.67a6.836,6.836,0,0,0-.988,1.3c-2.47-1.015-3.9-3.042-4.719-5.811-.338.208-.7.4-1.08.585,2.653,1.78,2.653,4.407,1.327,5.251a2.533,2.533,0,0,1-1.509.43c-.311,0-.689-.014-1.04-.026a2.922,2.922,0,0,0-.442-1.379A17.447,17.447,0,0,1,44.87,33a8.683,8.683,0,0,0-.884-1.118,15.818,15.818,0,0,0,5.37-2.236,3.312,3.312,0,0,0-.273-.351,15.187,15.187,0,0,1-4.044,1.651,6.3,6.3,0,0,0-.832-1.04,15.315,15.315,0,0,0,4.057-1.325c-.131-.092-.274-.183-.416-.273a27.047,27.047,0,0,1-2.9.87,8.1,8.1,0,0,0-.779-1.092,20.235,20.235,0,0,0,3.744-.975H45.455V25.092a4.992,4.992,0,0,1-.442.286,5.073,5.073,0,0,0-1.027-1.092,9.484,9.484,0,0,0,3.523-3.12l1.613.312q-.2.273-.39.546H51.02l.233-.065,1.054.689a10.692,10.692,0,0,1-.871,1.209h3.133v3.25H51.618a9.522,9.522,0,0,0,.663,1.482,16.375,16.375,0,0,0,2.158-1.456Zm-8.776-2.054h2.223v-1H46.911Zm.832-2.808a8.492,8.492,0,0,1-.689.676h2.588a6.8,6.8,0,0,0,.52-.676ZM49.862,30.7a14.818,14.818,0,0,1-2.327,1.313,10.358,10.358,0,0,0,1.2.051,1.21,1.21,0,0,0,.793-.194A1.058,1.058,0,0,0,49.862,30.7Zm3.2-5.708H50.643v1h2.418Z"/><path class="cls-3" d="M61.953,28.316c-.468.13-.924.286-1.405.43v4.627H59.132v-4.2c-.7.208-1.353.416-1.951.572L56.8,28.277c.65-.143,1.443-.351,2.328-.6V25.2H58.26a11.682,11.682,0,0,1-.481,1.664,11.293,11.293,0,0,0-1.091-.715,16.252,16.252,0,0,0,.74-4.186l1.287.221c-.052.52-.117,1.027-.194,1.547h.611v-2.5h1.416v2.5h1.08V25.2h-1.08v2.093l1.2-.337Zm6.994-5.083s-.013.52-.026.7c-.247,5.8-.481,7.917-.975,8.567a1.423,1.423,0,0,1-1.014.677,7.433,7.433,0,0,1-1.469.039,4.333,4.333,0,0,0-.429-1.509,10.341,10.341,0,0,0,1.156.053.546.546,0,0,0,.482-.247c.325-.416.559-2.185.767-6.852h-.065c-.637,3.276-1.976,6.657-4.069,8.386a5.7,5.7,0,0,0-1.261-.9c2.08-1.5,3.38-4.447,4.03-7.489h-.611a13.148,13.148,0,0,1-2.978,5.694,5.44,5.44,0,0,0-1.183-.871,10.078,10.078,0,0,0,2.874-4.823h-.663a9.648,9.648,0,0,1-1.34,2.327A8.815,8.815,0,0,0,61,26.12a10.77,10.77,0,0,0,2.133-4.9l1.4.26c-.13.6-.3,1.183-.481,1.755Z"/><path class="cls-3" d="M74.069,21.738a22.03,22.03,0,0,1-1.275,2.769v8.84H71.325V26.808c-.26.325-.52.65-.779.937a10.536,10.536,0,0,0-.833-1.613A13.752,13.752,0,0,0,72.6,21.27Zm7.878,7.255H78.619v4.368h-1.56V28.993H73.548V27.484h3.511V25.248H75.473a9.24,9.24,0,0,1-.806,1.677,9.943,9.943,0,0,0-1.34-.741,11.913,11.913,0,0,0,1.534-4.251l1.5.312c-.1.507-.234,1-.377,1.495h1.079V21.387h1.56V23.74h2.717v1.508H78.619v2.236h3.328Z"/><path class="cls-3" d="M85.808,23.35a34.564,34.564,0,0,0-.624,5.031,6.143,6.143,0,0,0,.051.845c.169-.455.391-.9.585-1.338l.793.649c-.363,1.066-.779,2.393-.936,3.1a3.617,3.617,0,0,0-.065.611c0,.129.014.351.026.533l-1.469.116a15.316,15.316,0,0,1-.519-4.16,41.2,41.2,0,0,1,.532-5.421,12.392,12.392,0,0,0,.131-1.274l1.794.156A8.3,8.3,0,0,0,85.808,23.35Zm6.565-.455c-.014.286-.026.767-.039,1.339a17.812,17.812,0,0,0,2.015-.3V25.56c-.624.091-1.3.169-2.015.221.025,1.261.091,2.3.143,3.185A8.547,8.547,0,0,1,95,30.643l-.9,1.366A13.436,13.436,0,0,0,92.516,30.7c-.078,1.248-.781,2.132-2.535,2.132-1.794,0-2.912-.754-2.912-2.12,0-1.313,1.118-2.223,2.886-2.223a5.792,5.792,0,0,1,.845.052c-.026-.806-.078-1.755-.091-2.678-.312.013-.624.013-.923.013-.767,0-1.508-.026-2.276-.078V24.247a21.7,21.7,0,0,0,2.276.117c.3,0,.611,0,.909-.013,0-.637-.012-1.17-.012-1.443a5.52,5.52,0,0,0-.091-.858h1.859A8.141,8.141,0,0,0,92.373,22.9Zm-2.575,8.4c.794,0,1.067-.416,1.067-1.183v-.234a4.014,4.014,0,0,0-1.04-.143c-.741,0-1.236.312-1.236.806C88.589,31.073,89.109,31.293,89.8,31.293Z"/><path class="cls-3" d="M98.014,29.6c0,.832.793,1.431,2.665,1.431a17.9,17.9,0,0,0,4.564-.52l.013,1.833a20.043,20.043,0,0,1-4.512.441c-2.977,0-4.472-1-4.472-2.782a8.419,8.419,0,0,1,.26-1.872l1.7.156A4.834,4.834,0,0,0,98.014,29.6Zm2.665-6.669c1.287,0,2.769-.078,3.77-.182v1.729c-.909.078-2.522.156-3.756.156-1.366,0-2.5-.052-3.55-.143V22.778A34.13,34.13,0,0,0,100.679,22.934Z"/><path class="cls-3" d="M111.015,23.194c-.026.117-.052.26-.078.4a31.831,31.831,0,0,0,4.81-.611l.026,1.547c-1.352.221-3.419.468-5.161.559-.182.793-.39,1.625-.585,2.262a6.335,6.335,0,0,1,3.224-.819c2.106,0,3.5,1.118,3.5,2.782,0,2.926-2.821,3.979-7.02,3.524l-.455-1.678c2.847.469,5.72.118,5.72-1.793,0-.781-.663-1.431-1.937-1.431a4.5,4.5,0,0,0-3.6,1.521,4.74,4.74,0,0,0-.364.573l-1.534-.547a20.8,20.8,0,0,0,1.482-4.368c-.819-.013-1.586-.052-2.249-.117V23.389a18.565,18.565,0,0,0,2.548.247c.026-.2.052-.377.078-.533a5.9,5.9,0,0,0,.065-1.313l1.846.078C111.184,22.323,111.106,22.765,111.015,23.194Z"/><path class="cls-3" d="M120.57,27.419a6.364,6.364,0,0,1,3.835-1.235c2.276,0,3.6,1.4,3.6,2.978,0,2.366-1.873,4.185-7.281,3.73l-.494-1.7c3.9.533,5.967-.416,5.967-2.067,0-.845-.8-1.469-1.937-1.469a4.629,4.629,0,0,0-3.613,1.534,3.164,3.164,0,0,0-.482.754l-1.5-.377a47.959,47.959,0,0,0,.65-5.434l1.743.247C120.9,25.092,120.661,26.678,120.57,27.419Zm5.617-4.641-.39,1.586c-1.314-.169-4.213-.78-5.227-1.04l.416-1.56A39.772,39.772,0,0,0,126.187,22.778Z"/></svg>