<svg id="レイヤー_1" data-name="レイヤー 1" xmlns="http://www.w3.org/2000/svg" viewBox="0 0 39 122"><defs><style>.cls-1{fill:#00bc00;}.cls-2{fill:none;stroke:#fff;stroke-miterlimit:10;stroke-width:0.8px;}.cls-3{fill:#fff;}</style></defs><path class="cls-1" d="M39,0H6A6.018,6.018,0,0,0,0,6V116a6.018,6.018,0,0,0,6,6H39"/><polyline class="cls-2" points="18.333 105.735 20.667 108.068 18.333 110.402"/><circle class="cls-2" cx="19.5" cy="108.068" r="5"/><path class="cls-3" d="M18.929,13.583a14.971,14.971,0,0,1-.9,3.2,10.842,10.842,0,0,1,1.134,1.782l-1.045.891a10.269,10.269,0,0,0-.748-1.353,7.41,7.41,0,0,1-2.256,2.376,5.77,5.77,0,0,0-.88-1.023,6.1,6.1,0,0,0,2.343-2.5c-.583-.781-1.232-1.562-1.837-2.233l.935-.738c.474.507.968,1.068,1.453,1.651a12.883,12.883,0,0,0,.528-2.223Zm5.677.406H23.428V18.94c0,.737-.131,1.123-.55,1.331a4.38,4.38,0,0,1-1.98.287,5.385,5.385,0,0,0-.418-1.409c.616.033,1.21.022,1.4.022s.264-.055.264-.231V13.989H19.38V13.2H14.539V11.987h1.914V10.3h1.255v1.683h2.035v.748h2.4V10.293h1.287v2.442h1.178Zm-4.291.87a8.635,8.635,0,0,1,1.221,2.321l-1.133.583a9.166,9.166,0,0,0-1.133-2.4Z"/><path class="cls-3" d="M24.375,27.069a20.364,20.364,0,0,1-2.322,1.287,5.555,5.555,0,0,0,2.553,1.783,5.805,5.805,0,0,0-.836,1.1,6.992,6.992,0,0,1-3.994-4.918,10.257,10.257,0,0,1-.913.495c2.244,1.507,2.244,3.73,1.122,4.445a2.14,2.14,0,0,1-1.276.363c-.264,0-.583-.011-.88-.022a2.474,2.474,0,0,0-.374-1.167,14.9,14.9,0,0,1-2.234.826,7.422,7.422,0,0,0-.748-.946,13.4,13.4,0,0,0,4.544-1.893,2.719,2.719,0,0,0-.231-.3,12.916,12.916,0,0,1-3.422,1.4,5.337,5.337,0,0,0-.7-.881,12.97,12.97,0,0,0,3.433-1.122c-.11-.077-.232-.154-.352-.231a22.84,22.84,0,0,1-2.454.737,6.865,6.865,0,0,0-.66-.924,17.185,17.185,0,0,0,3.169-.825h-2.08V24.572a4.351,4.351,0,0,1-.374.242,4.335,4.335,0,0,0-.869-.924,8.046,8.046,0,0,0,2.982-2.641l1.364.264-.33.462h1.936l.2-.055.891.583a9.054,9.054,0,0,1-.737,1.024h2.651v2.75h-2.5a8.057,8.057,0,0,0,.561,1.254A13.937,13.937,0,0,0,23.319,26.3Zm-7.427-1.738H18.83v-.847H16.948Zm.7-2.376a7.2,7.2,0,0,1-.584.572h2.19a5.632,5.632,0,0,0,.44-.572Zm1.793,6.359a12.7,12.7,0,0,1-1.969,1.111,8.773,8.773,0,0,0,1.012.043,1.017,1.017,0,0,0,.671-.165A.9.9,0,0,0,19.446,29.314Zm2.707-4.83H20.106v.847h2.047Z"/><path class="cls-3" d="M18.676,38.3c-.4.11-.781.242-1.189.363V42.58h-1.2V39.026c-.6.176-1.145.352-1.651.484l-.319-1.243c.55-.121,1.221-.3,1.97-.506v-2.1h-.738a9.974,9.974,0,0,1-.407,1.409,9.57,9.57,0,0,0-.924-.6,13.765,13.765,0,0,0,.627-3.543l1.089.187c-.044.44-.1.869-.164,1.309h.517V32.3h1.2v2.112H18.4v1.243h-.914v1.772l1.013-.286ZM24.6,34s-.011.44-.022.594c-.21,4.907-.407,6.7-.825,7.25a1.208,1.208,0,0,1-.859.573,6.447,6.447,0,0,1-1.243.033,3.662,3.662,0,0,0-.363-1.277,8.923,8.923,0,0,0,.979.044.459.459,0,0,0,.407-.209c.275-.352.473-1.848.65-5.8h-.056c-.539,2.773-1.672,5.633-3.443,7.1a4.88,4.88,0,0,0-1.067-.759c1.76-1.265,2.86-3.762,3.41-6.337h-.517a11.123,11.123,0,0,1-2.519,4.819,4.623,4.623,0,0,0-1-.737,8.531,8.531,0,0,0,2.431-4.082H20a8.2,8.2,0,0,1-1.133,1.97,7.464,7.464,0,0,0-.99-.737,9.114,9.114,0,0,0,1.8-4.148l1.188.22c-.11.506-.253,1-.407,1.485Z"/><path class="cls-3" d="M17.928,43.733a18.635,18.635,0,0,1-1.078,2.343v7.482H15.607V48.024c-.221.275-.441.55-.661.792a8.939,8.939,0,0,0-.7-1.364,11.663,11.663,0,0,0,2.443-4.115ZM24.6,49.872H21.778v3.7h-1.32v-3.7H17.487V48.6h2.971V46.7H19.116a7.762,7.762,0,0,1-.682,1.419A8.467,8.467,0,0,0,17.3,47.5a10.09,10.09,0,0,0,1.3-3.6l1.265.264c-.088.429-.2.847-.319,1.265h.913V43.436h1.32v1.991h2.3V46.7h-2.3V48.6H24.6Z"/><path class="cls-3" d="M17.169,54.92a9.249,9.249,0,0,0-.265.969,28.133,28.133,0,0,0-.517,4.18,4.991,4.991,0,0,0,.044.682c.143-.374.32-.737.485-1.1l.671.539a25.583,25.583,0,0,0-.782,2.575,2.924,2.924,0,0,0-.054.495c0,.121,0,.3.01.451L15.54,63.8a12.96,12.96,0,0,1-.429-3.455,31.9,31.9,0,0,1,.451-4.488,7.672,7.672,0,0,0,.1-1.067Zm5.258-.12c-.033.22-.055.473-.066.7s-.033.638-.033,1.122c.583-.066,1.156-.143,1.673-.253v1.353c-.517.066-1.09.132-1.683.165.022,1.045.076,1.914.12,2.64a7.166,7.166,0,0,1,2.09,1.386l-.736,1.156A9.989,9.989,0,0,0,22.483,62c-.067,1.023-.661,1.76-2.113,1.76-1.485,0-2.42-.638-2.42-1.76,0-1.1.935-1.86,2.4-1.86a4.838,4.838,0,0,1,.7.044c-.033-.66-.066-1.452-.077-2.211-.264,0-.517.011-.77.011-.638,0-1.243-.022-1.881-.066V56.626a17.494,17.494,0,0,0,1.881.1c.253,0,.506,0,.759-.011-.011-.528-.011-.957-.022-1.188a6.125,6.125,0,0,0-.066-.726Zm-1.32,6.5a3.314,3.314,0,0,0-.869-.121c-.605,0-1.023.253-1.023.661,0,.45.429.637,1,.637.66,0,.891-.351.891-.99Z"/><path class="cls-3" d="M17.19,71.608c0,.683.65,1.178,2.2,1.178a14.527,14.527,0,0,0,3.784-.43l.012,1.53a17.026,17.026,0,0,1-3.741.363c-2.464,0-3.719-.825-3.719-2.3a6.864,6.864,0,0,1,.232-1.562l1.4.121A5.036,5.036,0,0,0,17.19,71.608Zm2.2-5.523c1.067,0,2.3-.065,3.124-.153v1.441c-.748.055-2.09.121-3.113.121-1.133,0-2.068-.055-2.949-.11v-1.43A28.209,28.209,0,0,0,19.391,66.085Z"/><path class="cls-3" d="M18.819,76.6q-.033.148-.066.33a27.216,27.216,0,0,0,3.993-.507l.033,1.3a40.094,40.094,0,0,1-4.29.462c-.154.649-.32,1.331-.5,1.859a5.461,5.461,0,0,1,2.684-.671c1.738,0,2.9.935,2.9,2.31,0,2.432-2.333,3.312-5.831,2.938l-.374-1.408c2.365.385,4.753.1,4.753-1.486,0-.649-.562-1.188-1.618-1.188a3.694,3.694,0,0,0-2.981,1.276,2.706,2.706,0,0,0-.3.474l-1.288-.452a17.554,17.554,0,0,0,1.233-3.63c-.682-.011-1.32-.055-1.86-.1V76.756a15.257,15.257,0,0,0,2.113.209c.022-.165.054-.308.066-.44a5.336,5.336,0,0,0,.044-1.078l1.54.055C18.973,75.887,18.907,76.249,18.819,76.6Z"/><path class="cls-3" d="M17.378,90.858a5.3,5.3,0,0,1,3.168-1.034c1.9,0,3,1.177,3,2.475,0,1.97-1.573,3.488-6.05,3.1l-.408-1.419c3.235.451,4.94-.341,4.94-1.717,0-.7-.66-1.21-1.606-1.21a3.84,3.84,0,0,0-2.981,1.276,1.73,1.73,0,0,0-.4.617l-1.265-.3a39,39,0,0,0,.551-4.51l1.452.2C17.631,88.933,17.455,90.242,17.378,90.858ZM22.031,87l-.33,1.331c-1.089-.143-3.488-.649-4.334-.858l.352-1.3A33.7,33.7,0,0,0,22.031,87Z"/><path class="cls-3" d="M18.929,13.583a14.971,14.971,0,0,1-.9,3.2,10.842,10.842,0,0,1,1.134,1.782l-1.045.891a10.269,10.269,0,0,0-.748-1.353,7.41,7.41,0,0,1-2.256,2.376,5.77,5.77,0,0,0-.88-1.023,6.1,6.1,0,0,0,2.343-2.5c-.583-.781-1.232-1.562-1.837-2.233l.935-.738c.474.507.968,1.068,1.453,1.651a12.883,12.883,0,0,0,.528-2.223Zm5.677.406H23.428V18.94c0,.737-.131,1.123-.55,1.331a4.38,4.38,0,0,1-1.98.287,5.385,5.385,0,0,0-.418-1.409c.616.033,1.21.022,1.4.022s.264-.055.264-.231V13.989H19.38V13.2H14.539V11.987h1.914V10.3h1.255v1.683h2.035v.748h2.4V10.293h1.287v2.442h1.178Zm-4.291.87a8.635,8.635,0,0,1,1.221,2.321l-1.133.583a9.166,9.166,0,0,0-1.133-2.4Z"/><path class="cls-3" d="M24.375,27.069a20.364,20.364,0,0,1-2.322,1.287,5.555,5.555,0,0,0,2.553,1.783,5.805,5.805,0,0,0-.836,1.1,6.992,6.992,0,0,1-3.994-4.918,10.257,10.257,0,0,1-.913.495c2.244,1.507,2.244,3.73,1.122,4.445a2.14,2.14,0,0,1-1.276.363c-.264,0-.583-.011-.88-.022a2.474,2.474,0,0,0-.374-1.167,14.9,14.9,0,0,1-2.234.826,7.422,7.422,0,0,0-.748-.946,13.4,13.4,0,0,0,4.544-1.893,2.719,2.719,0,0,0-.231-.3,12.916,12.916,0,0,1-3.422,1.4,5.337,5.337,0,0,0-.7-.881,12.97,12.97,0,0,0,3.433-1.122c-.11-.077-.232-.154-.352-.231a22.84,22.84,0,0,1-2.454.737,6.865,6.865,0,0,0-.66-.924,17.185,17.185,0,0,0,3.169-.825h-2.08V24.572a4.351,4.351,0,0,1-.374.242,4.335,4.335,0,0,0-.869-.924,8.046,8.046,0,0,0,2.982-2.641l1.364.264-.33.462h1.936l.2-.055.891.583a9.054,9.054,0,0,1-.737,1.024h2.651v2.75h-2.5a8.057,8.057,0,0,0,.561,1.254A13.937,13.937,0,0,0,23.319,26.3Zm-7.427-1.738H18.83v-.847H16.948Zm.7-2.376a7.2,7.2,0,0,1-.584.572h2.19a5.632,5.632,0,0,0,.44-.572Zm1.793,6.359a12.7,12.7,0,0,1-1.969,1.111,8.773,8.773,0,0,0,1.012.043,1.017,1.017,0,0,0,.671-.165A.9.9,0,0,0,19.446,29.314Zm2.707-4.83H20.106v.847h2.047Z"/><path class="cls-3" d="M18.676,38.3c-.4.11-.781.242-1.189.363V42.58h-1.2V39.026c-.6.176-1.145.352-1.651.484l-.319-1.243c.55-.121,1.221-.3,1.97-.506v-2.1h-.738a9.974,9.974,0,0,1-.407,1.409,9.57,9.57,0,0,0-.924-.6,13.765,13.765,0,0,0,.627-3.543l1.089.187c-.044.44-.1.869-.164,1.309h.517V32.3h1.2v2.112H18.4v1.243h-.914v1.772l1.013-.286ZM24.6,34s-.011.44-.022.594c-.21,4.907-.407,6.7-.825,7.25a1.208,1.208,0,0,1-.859.573,6.447,6.447,0,0,1-1.243.033,3.662,3.662,0,0,0-.363-1.277,8.923,8.923,0,0,0,.979.044.459.459,0,0,0,.407-.209c.275-.352.473-1.848.65-5.8h-.056c-.539,2.773-1.672,5.633-3.443,7.1a4.88,4.88,0,0,0-1.067-.759c1.76-1.265,2.86-3.762,3.41-6.337h-.517a11.123,11.123,0,0,1-2.519,4.819,4.623,4.623,0,0,0-1-.737,8.531,8.531,0,0,0,2.431-4.082H20a8.2,8.2,0,0,1-1.133,1.97,7.464,7.464,0,0,0-.99-.737,9.114,9.114,0,0,0,1.8-4.148l1.188.22c-.11.506-.253,1-.407,1.485Z"/><path class="cls-3" d="M17.928,43.733a18.635,18.635,0,0,1-1.078,2.343v7.482H15.607V48.024c-.221.275-.441.55-.661.792a8.939,8.939,0,0,0-.7-1.364,11.663,11.663,0,0,0,2.443-4.115ZM24.6,49.872H21.778v3.7h-1.32v-3.7H17.487V48.6h2.971V46.7H19.116a7.762,7.762,0,0,1-.682,1.419A8.467,8.467,0,0,0,17.3,47.5a10.09,10.09,0,0,0,1.3-3.6l1.265.264c-.088.429-.2.847-.319,1.265h.913V43.436h1.32v1.991h2.3V46.7h-2.3V48.6H24.6Z"/><path class="cls-3" d="M17.169,54.92a9.249,9.249,0,0,0-.265.969,28.133,28.133,0,0,0-.517,4.18,4.991,4.991,0,0,0,.044.682c.143-.374.32-.737.485-1.1l.671.539a25.583,25.583,0,0,0-.782,2.575,2.924,2.924,0,0,0-.054.495c0,.121,0,.3.01.451L15.54,63.8a12.96,12.96,0,0,1-.429-3.455,31.9,31.9,0,0,1,.451-4.488,7.672,7.672,0,0,0,.1-1.067Zm5.258-.12c-.033.22-.055.473-.066.7s-.033.638-.033,1.122c.583-.066,1.156-.143,1.673-.253v1.353c-.517.066-1.09.132-1.683.165.022,1.045.076,1.914.12,2.64a7.166,7.166,0,0,1,2.09,1.386l-.736,1.156A9.989,9.989,0,0,0,22.483,62c-.067,1.023-.661,1.76-2.113,1.76-1.485,0-2.42-.638-2.42-1.76,0-1.1.935-1.86,2.4-1.86a4.838,4.838,0,0,1,.7.044c-.033-.66-.066-1.452-.077-2.211-.264,0-.517.011-.77.011-.638,0-1.243-.022-1.881-.066V56.626a17.494,17.494,0,0,0,1.881.1c.253,0,.506,0,.759-.011-.011-.528-.011-.957-.022-1.188a6.125,6.125,0,0,0-.066-.726Zm-1.32,6.5a3.314,3.314,0,0,0-.869-.121c-.605,0-1.023.253-1.023.661,0,.45.429.637,1,.637.66,0,.891-.351.891-.99Z"/><path class="cls-3" d="M17.19,71.608c0,.683.65,1.178,2.2,1.178a14.527,14.527,0,0,0,3.784-.43l.012,1.53a17.026,17.026,0,0,1-3.741.363c-2.464,0-3.719-.825-3.719-2.3a6.864,6.864,0,0,1,.232-1.562l1.4.121A5.036,5.036,0,0,0,17.19,71.608Zm2.2-5.523c1.067,0,2.3-.065,3.124-.153v1.441c-.748.055-2.09.121-3.113.121-1.133,0-2.068-.055-2.949-.11v-1.43A28.209,28.209,0,0,0,19.391,66.085Z"/><path class="cls-3" d="M18.819,76.6q-.033.148-.066.33a27.216,27.216,0,0,0,3.993-.507l.033,1.3a40.094,40.094,0,0,1-4.29.462c-.154.649-.32,1.331-.5,1.859a5.461,5.461,0,0,1,2.684-.671c1.738,0,2.9.935,2.9,2.31,0,2.432-2.333,3.312-5.831,2.938l-.374-1.408c2.365.385,4.753.1,4.753-1.486,0-.649-.562-1.188-1.618-1.188a3.694,3.694,0,0,0-2.981,1.276,2.706,2.706,0,0,0-.3.474l-1.288-.452a17.554,17.554,0,0,0,1.233-3.63c-.682-.011-1.32-.055-1.86-.1V76.756a15.257,15.257,0,0,0,2.113.209c.022-.165.054-.308.066-.44a5.336,5.336,0,0,0,.044-1.078l1.54.055C18.973,75.887,18.907,76.249,18.819,76.6Z"/><path class="cls-3" d="M17.378,90.858a5.3,5.3,0,0,1,3.168-1.034c1.9,0,3,1.177,3,2.475,0,1.97-1.573,3.488-6.05,3.1l-.408-1.419c3.235.451,4.94-.341,4.94-1.717,0-.7-.66-1.21-1.606-1.21a3.84,3.84,0,0,0-2.981,1.276,1.73,1.73,0,0,0-.4.617l-1.265-.3a39,39,0,0,0,.551-4.51l1.452.2C17.631,88.933,17.455,90.242,17.378,90.858ZM22.031,87l-.33,1.331c-1.089-.143-3.488-.649-4.334-.858l.352-1.3A33.7,33.7,0,0,0,22.031,87Z"/></svg>