<svg id="レイヤー_1" data-name="レイヤー 1" xmlns="http://www.w3.org/2000/svg" viewBox="0 0 56 155"><defs><style>.cls-1{fill:#00bc00;}.cls-2{fill:none;stroke:#fff;stroke-miterlimit:10;}.cls-3{fill:#fff;}</style></defs><path class="cls-1" d="M56,0H10A10.029,10.029,0,0,0,0,10V145a10.029,10.029,0,0,0,10,10H56"/><polyline class="cls-2" points="26.367 132.822 29.633 136.088 26.367 139.355"/><circle class="cls-2" cx="28" cy="136.088" r="7"/><path class="cls-3" d="M27.275,16.555a19.148,19.148,0,0,1-1.148,4.076A13.806,13.806,0,0,1,27.569,22.9l-1.33,1.135a13.093,13.093,0,0,0-.953-1.723,9.423,9.423,0,0,1-2.871,3.026,7.236,7.236,0,0,0-1.121-1.3,7.776,7.776,0,0,0,2.984-3.18c-.743-.994-1.569-1.989-2.34-2.843l1.191-.939c.6.645,1.233,1.359,1.849,2.1a16.329,16.329,0,0,0,.672-2.829Zm7.228.518H33v6.3c0,.939-.168,1.429-.7,1.7a5.585,5.585,0,0,1-2.521.364,6.82,6.82,0,0,0-.533-1.793c.785.042,1.542.028,1.779.028.253,0,.337-.07.337-.295v-6.3H27.85V16.064H21.687v-1.54h2.437V12.381h1.6v2.143h2.591v.953h3.054v-3.11H33v3.11h1.5ZM29.041,18.18A10.994,10.994,0,0,1,30.6,21.135l-1.443.743a11.649,11.649,0,0,0-1.443-3.054Z"/><path class="cls-3" d="M34.209,33.721a25.852,25.852,0,0,1-2.956,1.639,7.074,7.074,0,0,0,3.25,2.269,7.41,7.41,0,0,0-1.065,1.4c-2.661-1.093-4.2-3.278-5.084-6.261a12.936,12.936,0,0,1-1.163.63c2.858,1.919,2.858,4.748,1.429,5.659A2.727,2.727,0,0,1,27,39.52c-.336,0-.742-.014-1.12-.028a3.144,3.144,0,0,0-.477-1.485,19.042,19.042,0,0,1-2.843,1.051,9.454,9.454,0,0,0-.952-1.2,17.076,17.076,0,0,0,5.785-2.409,3.581,3.581,0,0,0-.3-.379,16.356,16.356,0,0,1-4.356,1.78,6.756,6.756,0,0,0-.9-1.121A16.485,16.485,0,0,0,26.211,34.3c-.14-.1-.294-.2-.448-.294a28.921,28.921,0,0,1-3.124.938,8.748,8.748,0,0,0-.841-1.176,21.786,21.786,0,0,0,4.035-1.051H23.185V30.541a5.538,5.538,0,0,1-.476.308A5.517,5.517,0,0,0,21.6,29.673,10.238,10.238,0,0,0,25.4,26.311l1.737.336-.42.588h2.466l.252-.069,1.134.742a11.515,11.515,0,0,1-.938,1.3H33v3.5H29.825a10.266,10.266,0,0,0,.714,1.6,17.583,17.583,0,0,0,2.325-1.569Zm-9.455-2.213h2.395V30.429H24.754Zm.9-3.026a9.145,9.145,0,0,1-.742.728H27.7a7.169,7.169,0,0,0,.56-.728Zm2.284,8.1a15.98,15.98,0,0,1-2.508,1.414,10.949,10.949,0,0,0,1.289.056,1.3,1.3,0,0,0,.854-.21A1.139,1.139,0,0,0,27.934,36.579Zm3.445-6.15H28.774v1.079h2.605Z"/><path class="cls-3" d="M26.953,48.015c-.5.14-1,.308-1.513.462v4.987H23.914V48.939c-.757.225-1.457.449-2.1.617l-.407-1.583c.7-.154,1.555-.378,2.508-.644V44.653h-.939a12.74,12.74,0,0,1-.518,1.793,12.012,12.012,0,0,0-1.177-.77,17.521,17.521,0,0,0,.8-4.511l1.386.238c-.056.56-.126,1.107-.21,1.667h.659V40.381H25.44V43.07H26.6v1.583H25.44v2.255l1.289-.364Zm7.536-5.477s-.014.56-.028.756c-.266,6.248-.518,8.531-1.05,9.231a1.534,1.534,0,0,1-1.093.728,7.93,7.93,0,0,1-1.583.043,4.653,4.653,0,0,0-.462-1.625,11.373,11.373,0,0,0,1.247.056.583.583,0,0,0,.518-.267c.35-.448.6-2.353.826-7.381h-.07c-.686,3.529-2.129,7.171-4.384,9.035a6.2,6.2,0,0,0-1.359-.967c2.241-1.611,3.642-4.791,4.343-8.068h-.659a14.162,14.162,0,0,1-3.208,6.135,5.921,5.921,0,0,0-1.274-.939,10.864,10.864,0,0,0,3.1-5.2h-.715a10.4,10.4,0,0,1-1.443,2.507,9.505,9.505,0,0,0-1.26-.939,11.592,11.592,0,0,0,2.3-5.28l1.513.28c-.14.644-.323,1.274-.518,1.891Z"/><path class="cls-3" d="M26,54.927a23.665,23.665,0,0,1-1.372,2.984v9.525H23.045V60.39c-.28.35-.56.7-.84,1.008a11.386,11.386,0,0,0-.9-1.736,14.842,14.842,0,0,0,3.11-5.239Zm8.489,7.816H30.9V67.45h-1.68V62.743H25.44V61.118h3.783V58.709H27.514a9.924,9.924,0,0,1-.869,1.807,10.773,10.773,0,0,0-1.443-.8,12.867,12.867,0,0,0,1.653-4.581l1.611.336c-.112.547-.252,1.079-.406,1.611h1.163V54.549H30.9v2.535h2.928v1.625H30.9v2.409h3.586Z"/><path class="cls-3" d="M25.034,69.166A11.652,11.652,0,0,0,24.7,70.4a35.85,35.85,0,0,0-.658,5.323,6.17,6.17,0,0,0,.056.869c.182-.477.406-.939.616-1.4l.854.686a32.853,32.853,0,0,0-.994,3.278,3.606,3.606,0,0,0-.07.63c0,.155,0,.379.014.574l-1.555.113a16.5,16.5,0,0,1-.546-4.4,40.652,40.652,0,0,1,.574-5.715A9.963,9.963,0,0,0,23.115,69Zm6.7-.154c-.042.28-.07.6-.084.9s-.042.812-.042,1.429c.742-.084,1.471-.182,2.129-.322v1.722c-.658.085-1.387.169-2.143.211.028,1.33.1,2.437.154,3.362a9.13,9.13,0,0,1,2.661,1.764l-.938,1.471A12.747,12.747,0,0,0,31.8,78.172c-.084,1.3-.841,2.242-2.69,2.242-1.891,0-3.081-.813-3.081-2.242,0-1.4,1.19-2.367,3.054-2.367a6.158,6.158,0,0,1,.9.056c-.042-.84-.084-1.849-.1-2.815-.337,0-.658.014-.981.014-.812,0-1.583-.028-2.395-.084V71.337a22.3,22.3,0,0,0,2.395.126c.323,0,.644,0,.967-.014-.014-.673-.014-1.219-.028-1.513a7.8,7.8,0,0,0-.084-.924ZM30.049,77.29a4.225,4.225,0,0,0-1.107-.154c-.77,0-1.3.322-1.3.841,0,.574.546.812,1.274.812.841,0,1.135-.449,1.135-1.261Z"/><path class="cls-3" d="M25.062,90.408c0,.868.827,1.5,2.8,1.5a18.513,18.513,0,0,0,4.818-.547l.014,1.948a21.662,21.662,0,0,1-4.762.462c-3.138,0-4.735-1.051-4.735-2.928a8.835,8.835,0,0,1,.294-1.989l1.779.154A6.422,6.422,0,0,0,25.062,90.408Zm2.8-7.032c1.359,0,2.928-.084,3.978-.2v1.835c-.953.07-2.661.154-3.964.154-1.443,0-2.634-.07-3.754-.14V83.208A35.5,35.5,0,0,0,27.864,83.376Z"/><path class="cls-3" d="M27.135,96.76c-.028.127-.056.266-.084.421a34.713,34.713,0,0,0,5.085-.645l.042,1.653a51.091,51.091,0,0,1-5.463.588c-.2.827-.406,1.7-.63,2.368a6.943,6.943,0,0,1,3.417-.854c2.214,0,3.7,1.19,3.7,2.941,0,3.1-2.97,4.216-7.425,3.74l-.476-1.793c3.012.49,6.052.126,6.052-1.891,0-.827-.715-1.513-2.06-1.513a4.7,4.7,0,0,0-3.8,1.625,3.374,3.374,0,0,0-.379.6l-1.639-.574a22.4,22.4,0,0,0,1.569-4.622c-.868-.014-1.681-.071-2.367-.126V96.957a19.589,19.589,0,0,0,2.689.266c.028-.21.07-.392.085-.56a6.8,6.8,0,0,0,.055-1.373l1.962.07C27.332,95.85,27.248,96.312,27.135,96.76Z"/><path class="cls-3" d="M25.3,114.907a6.742,6.742,0,0,1,4.034-1.317c2.424,0,3.825,1.5,3.825,3.152,0,2.507-2,4.44-7.7,3.949l-.519-1.806c4.118.574,6.29-.435,6.29-2.185,0-.9-.841-1.541-2.045-1.541a4.891,4.891,0,0,0-3.8,1.625,2.176,2.176,0,0,0-.5.784l-1.611-.378a49.973,49.973,0,0,0,.7-5.743l1.848.252C25.623,112.455,25.4,114.122,25.3,114.907Zm5.926-4.917-.421,1.7c-1.387-.183-4.44-.827-5.519-1.093l.448-1.653A42.775,42.775,0,0,0,31.226,109.99Z"/><path class="cls-3" d="M27.275,16.555a19.148,19.148,0,0,1-1.148,4.076A13.806,13.806,0,0,1,27.569,22.9l-1.33,1.135a13.093,13.093,0,0,0-.953-1.723,9.423,9.423,0,0,1-2.871,3.026,7.236,7.236,0,0,0-1.121-1.3,7.776,7.776,0,0,0,2.984-3.18c-.743-.994-1.569-1.989-2.34-2.843l1.191-.939c.6.645,1.233,1.359,1.849,2.1a16.329,16.329,0,0,0,.672-2.829Zm7.228.518H33v6.3c0,.939-.168,1.429-.7,1.7a5.585,5.585,0,0,1-2.521.364,6.82,6.82,0,0,0-.533-1.793c.785.042,1.542.028,1.779.028.253,0,.337-.07.337-.295v-6.3H27.85V16.064H21.687v-1.54h2.437V12.381h1.6v2.143h2.591v.953h3.054v-3.11H33v3.11h1.5ZM29.041,18.18A10.994,10.994,0,0,1,30.6,21.135l-1.443.743a11.649,11.649,0,0,0-1.443-3.054Z"/><path class="cls-3" d="M34.209,33.721a25.852,25.852,0,0,1-2.956,1.639,7.074,7.074,0,0,0,3.25,2.269,7.41,7.41,0,0,0-1.065,1.4c-2.661-1.093-4.2-3.278-5.084-6.261a12.936,12.936,0,0,1-1.163.63c2.858,1.919,2.858,4.748,1.429,5.659A2.727,2.727,0,0,1,27,39.52c-.336,0-.742-.014-1.12-.028a3.144,3.144,0,0,0-.477-1.485,19.042,19.042,0,0,1-2.843,1.051,9.454,9.454,0,0,0-.952-1.2,17.076,17.076,0,0,0,5.785-2.409,3.581,3.581,0,0,0-.3-.379,16.356,16.356,0,0,1-4.356,1.78,6.756,6.756,0,0,0-.9-1.121A16.485,16.485,0,0,0,26.211,34.3c-.14-.1-.294-.2-.448-.294a28.921,28.921,0,0,1-3.124.938,8.748,8.748,0,0,0-.841-1.176,21.786,21.786,0,0,0,4.035-1.051H23.185V30.541a5.538,5.538,0,0,1-.476.308A5.517,5.517,0,0,0,21.6,29.673,10.238,10.238,0,0,0,25.4,26.311l1.737.336-.42.588h2.466l.252-.069,1.134.742a11.515,11.515,0,0,1-.938,1.3H33v3.5H29.825a10.266,10.266,0,0,0,.714,1.6,17.583,17.583,0,0,0,2.325-1.569Zm-9.455-2.213h2.395V30.429H24.754Zm.9-3.026a9.145,9.145,0,0,1-.742.728H27.7a7.169,7.169,0,0,0,.56-.728Zm2.284,8.1a15.98,15.98,0,0,1-2.508,1.414,10.949,10.949,0,0,0,1.289.056,1.3,1.3,0,0,0,.854-.21A1.139,1.139,0,0,0,27.934,36.579Zm3.445-6.15H28.774v1.079h2.605Z"/><path class="cls-3" d="M26.953,48.015c-.5.14-1,.308-1.513.462v4.987H23.914V48.939c-.757.225-1.457.449-2.1.617l-.407-1.583c.7-.154,1.555-.378,2.508-.644V44.653h-.939a12.74,12.74,0,0,1-.518,1.793,12.012,12.012,0,0,0-1.177-.77,17.521,17.521,0,0,0,.8-4.511l1.386.238c-.056.56-.126,1.107-.21,1.667h.659V40.381H25.44V43.07H26.6v1.583H25.44v2.255l1.289-.364Zm7.536-5.477s-.014.56-.028.756c-.266,6.248-.518,8.531-1.05,9.231a1.534,1.534,0,0,1-1.093.728,7.93,7.93,0,0,1-1.583.043,4.653,4.653,0,0,0-.462-1.625,11.373,11.373,0,0,0,1.247.056.583.583,0,0,0,.518-.267c.35-.448.6-2.353.826-7.381h-.07c-.686,3.529-2.129,7.171-4.384,9.035a6.2,6.2,0,0,0-1.359-.967c2.241-1.611,3.642-4.791,4.343-8.068h-.659a14.162,14.162,0,0,1-3.208,6.135,5.921,5.921,0,0,0-1.274-.939,10.864,10.864,0,0,0,3.1-5.2h-.715a10.4,10.4,0,0,1-1.443,2.507,9.505,9.505,0,0,0-1.26-.939,11.592,11.592,0,0,0,2.3-5.28l1.513.28c-.14.644-.323,1.274-.518,1.891Z"/><path class="cls-3" d="M26,54.927a23.665,23.665,0,0,1-1.372,2.984v9.525H23.045V60.39c-.28.35-.56.7-.84,1.008a11.386,11.386,0,0,0-.9-1.736,14.842,14.842,0,0,0,3.11-5.239Zm8.489,7.816H30.9V67.45h-1.68V62.743H25.44V61.118h3.783V58.709H27.514a9.924,9.924,0,0,1-.869,1.807,10.773,10.773,0,0,0-1.443-.8,12.867,12.867,0,0,0,1.653-4.581l1.611.336c-.112.547-.252,1.079-.406,1.611h1.163V54.549H30.9v2.535h2.928v1.625H30.9v2.409h3.586Z"/><path class="cls-3" d="M25.034,69.166A11.652,11.652,0,0,0,24.7,70.4a35.85,35.85,0,0,0-.658,5.323,6.17,6.17,0,0,0,.056.869c.182-.477.406-.939.616-1.4l.854.686a32.853,32.853,0,0,0-.994,3.278,3.606,3.606,0,0,0-.07.63c0,.155,0,.379.014.574l-1.555.113a16.5,16.5,0,0,1-.546-4.4,40.652,40.652,0,0,1,.574-5.715A9.963,9.963,0,0,0,23.115,69Zm6.7-.154c-.042.28-.07.6-.084.9s-.042.812-.042,1.429c.742-.084,1.471-.182,2.129-.322v1.722c-.658.085-1.387.169-2.143.211.028,1.33.1,2.437.154,3.362a9.13,9.13,0,0,1,2.661,1.764l-.938,1.471A12.747,12.747,0,0,0,31.8,78.172c-.084,1.3-.841,2.242-2.69,2.242-1.891,0-3.081-.813-3.081-2.242,0-1.4,1.19-2.367,3.054-2.367a6.158,6.158,0,0,1,.9.056c-.042-.84-.084-1.849-.1-2.815-.337,0-.658.014-.981.014-.812,0-1.583-.028-2.395-.084V71.337a22.3,22.3,0,0,0,2.395.126c.323,0,.644,0,.967-.014-.014-.673-.014-1.219-.028-1.513a7.8,7.8,0,0,0-.084-.924ZM30.049,77.29a4.225,4.225,0,0,0-1.107-.154c-.77,0-1.3.322-1.3.841,0,.574.546.812,1.274.812.841,0,1.135-.449,1.135-1.261Z"/><path class="cls-3" d="M25.062,90.408c0,.868.827,1.5,2.8,1.5a18.513,18.513,0,0,0,4.818-.547l.014,1.948a21.662,21.662,0,0,1-4.762.462c-3.138,0-4.735-1.051-4.735-2.928a8.835,8.835,0,0,1,.294-1.989l1.779.154A6.422,6.422,0,0,0,25.062,90.408Zm2.8-7.032c1.359,0,2.928-.084,3.978-.2v1.835c-.953.07-2.661.154-3.964.154-1.443,0-2.634-.07-3.754-.14V83.208A35.5,35.5,0,0,0,27.864,83.376Z"/><path class="cls-3" d="M27.135,96.76c-.028.127-.056.266-.084.421a34.713,34.713,0,0,0,5.085-.645l.042,1.653a51.091,51.091,0,0,1-5.463.588c-.2.827-.406,1.7-.63,2.368a6.943,6.943,0,0,1,3.417-.854c2.214,0,3.7,1.19,3.7,2.941,0,3.1-2.97,4.216-7.425,3.74l-.476-1.793c3.012.49,6.052.126,6.052-1.891,0-.827-.715-1.513-2.06-1.513a4.7,4.7,0,0,0-3.8,1.625,3.374,3.374,0,0,0-.379.6l-1.639-.574a22.4,22.4,0,0,0,1.569-4.622c-.868-.014-1.681-.071-2.367-.126V96.957a19.589,19.589,0,0,0,2.689.266c.028-.21.07-.392.085-.56a6.8,6.8,0,0,0,.055-1.373l1.962.07C27.332,95.85,27.248,96.312,27.135,96.76Z"/><path class="cls-3" d="M25.3,114.907a6.742,6.742,0,0,1,4.034-1.317c2.424,0,3.825,1.5,3.825,3.152,0,2.507-2,4.44-7.7,3.949l-.519-1.806c4.118.574,6.29-.435,6.29-2.185,0-.9-.841-1.541-2.045-1.541a4.891,4.891,0,0,0-3.8,1.625,2.176,2.176,0,0,0-.5.784l-1.611-.378a49.973,49.973,0,0,0,.7-5.743l1.848.252C25.623,112.455,25.4,114.122,25.3,114.907Zm5.926-4.917-.421,1.7c-1.387-.183-4.44-.827-5.519-1.093l.448-1.653A42.775,42.775,0,0,0,31.226,109.99Z"/></svg>