<svg id="レイヤー_1" data-name="レイヤー 1" xmlns="http://www.w3.org/2000/svg" viewBox="0 0 39 122"><defs><style>.cls-1{fill:#009ee7;}.cls-2{fill:none;stroke:#fff;stroke-miterlimit:10;stroke-width:0.8px;}.cls-3{fill:#fff;}</style></defs><path class="cls-1" d="M39,0H6A6.018,6.018,0,0,0,0,6V116a6.018,6.018,0,0,0,6,6H39"/><polyline class="cls-2" points="18.333 107.503 20.667 109.836 18.333 112.169"/><circle class="cls-2" cx="19.5" cy="109.836" r="5"/><path class="cls-3" d="M20.975,13.554a10.2,10.2,0,0,0,3.73,2.773,6.1,6.1,0,0,0-.913,1.1,11.119,11.119,0,0,1-3.6-3.015V17.79H18.808V14.435a11.42,11.42,0,0,1-3.609,2.97,6.208,6.208,0,0,0-.924-1.1,10.39,10.39,0,0,0,3.763-2.751H14.583V12.3h2.08a7.672,7.672,0,0,0-.825-1.892l1.132-.429H15.1V8.725h3.708v-1.2h1.386v1.2H24V9.979H22.174l1.266.374A20.49,20.49,0,0,1,22.284,12.3h2.135v1.254Zm-3.96-3.575a7.838,7.838,0,0,1,.935,1.914L16.9,12.3h1.9V9.979Zm3.179,0V12.3h1.848l-.924-.319a12.389,12.389,0,0,0,.935-2Z"/><path class="cls-3" d="M20.26,24.038c-.088.175-.2.352-.308.527h4.467s-.011.3-.022.452c-.154,2.145-.331,3.025-.627,3.344a1.026,1.026,0,0,1-.726.374,6.93,6.93,0,0,1-1.112.022,2.609,2.609,0,0,0-.3-1.023c.352.033.638.033.781.033a.377.377,0,0,0,.33-.121,4.8,4.8,0,0,0,.407-2.057h-.429a7.839,7.839,0,0,1-2.2,3.256,3.6,3.6,0,0,0-.924-.726,6.05,6.05,0,0,0,2.046-2.53H21a8.393,8.393,0,0,1-2.574,2.761,3.887,3.887,0,0,0-.858-.77,6.645,6.645,0,0,0,2.244-1.991H19.16a6.835,6.835,0,0,1-1.287,1.078,4.531,4.531,0,0,0-.858-.77c-.793.4-1.585.792-2.256,1.122l-.484-1.32c.374-.143.836-.33,1.353-.539v-3.1h-1.1V20.825h1.1V18.658h1.21v2.167h1.035v1.232H16.838v2.6l.881-.385.231.935a5.382,5.382,0,0,0,1.012-1.166H17.719v-1.1h6.92v1.1Zm3.631-1.519h-5.2V18.8h5.2ZM22.68,19.7H19.842v.528H22.68Zm0,1.386H19.842v.528H22.68Z"/><path class="cls-3" d="M24.6,34.08a14.7,14.7,0,0,1-1.76,2.871L21.712,36.3a13.6,13.6,0,0,0,.858-1.353H20.249v3.422c0,.693-.154,1.023-.682,1.21a6.873,6.873,0,0,1-2.167.2,4.428,4.428,0,0,0-.474-1.254c.65.022,1.464.022,1.684.022s.275-.055.275-.22V34.949H14.539V33.706h5.006c-.814-.341-1.705-.693-2.41-.957l.65-.99c.5.176,1.111.385,1.727.616a11.45,11.45,0,0,0,1.4-1.034H15.6v-1.2h6.579l.3-.077.935.737a18.135,18.135,0,0,1-2.541,2.09c.363.143.693.264.946.385l-.264.429h1.738l.243-.088Z"/><path class="cls-3" d="M15.86,47.148a10.2,10.2,0,0,1-.661,2.839,6.466,6.466,0,0,0-1-.473,8,8,0,0,0,.583-2.553Zm8.559-4.763s0,.44-.011.605c-.143,4.819-.3,6.557-.759,7.14a1.367,1.367,0,0,1-1.057.6,10.5,10.5,0,0,1-1.716.033,3.127,3.127,0,0,0-.44-1.32c.693.066,1.321.066,1.617.066a.543.543,0,0,0,.462-.187c.33-.341.5-1.948.617-5.7H20.1a9.063,9.063,0,0,1-.935,1.419,8.406,8.406,0,0,0-1.034-.726,8.761,8.761,0,0,1,.858,2.057l-.99.462a5.986,5.986,0,0,0-.154-.594l-.627.044v4.522H16.057V46.378l-1.628.11-.11-1.144.814-.033c.165-.209.341-.44.506-.682a10.363,10.363,0,0,0-1.32-1.507l.616-.9c.088.077.176.153.264.231a14.7,14.7,0,0,0,.8-1.915l1.154.407c-.4.76-.846,1.607-1.243,2.223.143.154.276.319.385.462a17.506,17.506,0,0,0,1.013-1.8l1.111.462a35.194,35.194,0,0,1-2.1,2.981l1.112-.044c-.121-.264-.253-.528-.386-.759l.925-.407.076.132a8.746,8.746,0,0,0,1.816-3.664l1.342.286a12.574,12.574,0,0,1-.539,1.574ZM18.2,46.9a12.553,12.553,0,0,1,.715,2.069l-1.034.363a11.277,11.277,0,0,0-.649-2.124Zm2.574,1.123a10.378,10.378,0,0,0-1.342-2.542l1.045-.528a10.346,10.346,0,0,1,1.43,2.464Z"/><path class="cls-3" d="M20.909,53.913A1.408,1.408,0,1,1,19.5,52.505,1.418,1.418,0,0,1,20.909,53.913Z"/><path class="cls-3" d="M18.819,57.191c-.033.2-.077.66-.1.946l-.033.759a15.17,15.17,0,0,0,1.991-.4l.022,1.342a20.465,20.465,0,0,1-2.057.352c-.011.319-.011.649-.011.957v.386a9.261,9.261,0,0,1,2.068-.275c1.661,0,2.981.88,2.981,2.365,0,1.276-.671,2.244-2.387,2.662a9.788,9.788,0,0,1-1.419.176l-.5-1.4a6.989,6.989,0,0,0,1.32-.077c.869-.154,1.573-.594,1.573-1.375,0-.737-.649-1.156-1.595-1.156a7.158,7.158,0,0,0-2.024.3c.022.847.055,1.683.055,2.057,0,1.331-.484,1.683-1.2,1.683-1.044,0-2.53-.9-2.53-2.046,0-.946,1.09-1.925,2.41-2.5V60.3c-.209.011-.407.022-.584.022-.715,0-1.133-.022-1.507-.055l-.022-1.309a13.26,13.26,0,0,0,1.485.066c.2,0,.408-.011.639-.022v-.858a8.718,8.718,0,0,0-.066-.957ZM17.1,65.035c.2,0,.341-.088.341-.462,0-.275-.011-.759-.022-1.331-.661.341-1.1.781-1.1,1.155C16.321,64.738,16.828,65.035,17.1,65.035Zm4.785-6.667a23.2,23.2,0,0,1,2.662,1.507l-.659,1.1a17.658,17.658,0,0,0-2.6-1.562Z"/><path class="cls-3" d="M16.2,72.184v5.765H14.9V68.092h4.2v4.092Zm0-3.091v.594h1.684v-.594Zm1.684,2.1v-.627H16.2v.627Zm.671,5.2v.616H17.334V72.943h4.257V76.4Zm0-2.377v1.3H20.37v-1.3Zm5.611,2.366c0,.726-.143,1.1-.605,1.309a5.409,5.409,0,0,1-2.157.253,4.684,4.684,0,0,0-.44-1.342c.638.044,1.386.033,1.6.022s.286-.066.286-.264v-4.17H19.864v-4.1h4.3Zm-3.059-7.305v.605h1.738v-.605Zm1.738,2.123v-.638H21.107v.638Z"/><path class="cls-3" d="M20.084,78.685a11.053,11.053,0,0,0,4.709,3.784,6.4,6.4,0,0,0-.848,1.177A13.264,13.264,0,0,1,22.262,82.6v.759H16.783v-.77a15.326,15.326,0,0,1-1.705,1.078,5.333,5.333,0,0,0-.825-1.067,11.641,11.641,0,0,0,4.478-3.916ZM16.057,84.45h6.975v4.51H21.69v-.407H17.344v.407H16.057Zm5.666-2.245a12.05,12.05,0,0,1-2.255-2.233,11.219,11.219,0,0,1-2.19,2.233Zm-4.379,3.4V87.4H21.69V85.605Z"/><path class="cls-3" d="M22.361,90.081c-.033.176-.055.649-.065.935-.012.418-.023.814-.023,1.166.286-.022.562-.044.8-.055.308-.022.726-.044,1.034-.077v1.331c-.175-.011-.748.011-1.034.011-.231.011-.517.023-.836.044a14.833,14.833,0,0,1-.154,2.157c-.11.572-.4.715-.935.715a16,16,0,0,1-1.628-.165l.033-1.188a8.239,8.239,0,0,0,.99.121c.22,0,.3-.034.33-.243a12.058,12.058,0,0,0,.077-1.3c-.946.077-2,.176-2.927.275,0,.99-.01,1.981.012,2.443.022,1.056.11,1.287,1.727,1.287a19.908,19.908,0,0,0,3.223-.275l-.055,1.485c-.715.077-2.046.176-3.069.176-2.8,0-3.135-.594-3.179-2.464-.012-.462-.012-1.5-.012-2.5-.3.034-.539.056-.726.077-.34.044-1.012.132-1.287.176l-.154-1.386c.308,0,.8-.022,1.354-.066.187-.022.473-.044.813-.077V91.61a8.1,8.1,0,0,0-.087-1.2h1.529a8.427,8.427,0,0,0-.067,1.122c0,.242,0,.605-.01,1.023.913-.088,1.958-.187,2.937-.264V91.071a8.837,8.837,0,0,0-.077-.99Z"/><path class="cls-3" d="M20.975,13.554a10.2,10.2,0,0,0,3.73,2.773,6.1,6.1,0,0,0-.913,1.1,11.119,11.119,0,0,1-3.6-3.015V17.79H18.808V14.435a11.42,11.42,0,0,1-3.609,2.97,6.208,6.208,0,0,0-.924-1.1,10.39,10.39,0,0,0,3.763-2.751H14.583V12.3h2.08a7.672,7.672,0,0,0-.825-1.892l1.132-.429H15.1V8.725h3.708v-1.2h1.386v1.2H24V9.979H22.174l1.266.374A20.49,20.49,0,0,1,22.284,12.3h2.135v1.254Zm-3.96-3.575a7.838,7.838,0,0,1,.935,1.914L16.9,12.3h1.9V9.979Zm3.179,0V12.3h1.848l-.924-.319a12.389,12.389,0,0,0,.935-2Z"/><path class="cls-3" d="M20.26,24.038c-.088.175-.2.352-.308.527h4.467s-.011.3-.022.452c-.154,2.145-.331,3.025-.627,3.344a1.026,1.026,0,0,1-.726.374,6.93,6.93,0,0,1-1.112.022,2.609,2.609,0,0,0-.3-1.023c.352.033.638.033.781.033a.377.377,0,0,0,.33-.121,4.8,4.8,0,0,0,.407-2.057h-.429a7.839,7.839,0,0,1-2.2,3.256,3.6,3.6,0,0,0-.924-.726,6.05,6.05,0,0,0,2.046-2.53H21a8.393,8.393,0,0,1-2.574,2.761,3.887,3.887,0,0,0-.858-.77,6.645,6.645,0,0,0,2.244-1.991H19.16a6.835,6.835,0,0,1-1.287,1.078,4.531,4.531,0,0,0-.858-.77c-.793.4-1.585.792-2.256,1.122l-.484-1.32c.374-.143.836-.33,1.353-.539v-3.1h-1.1V20.825h1.1V18.658h1.21v2.167h1.035v1.232H16.838v2.6l.881-.385.231.935a5.382,5.382,0,0,0,1.012-1.166H17.719v-1.1h6.92v1.1Zm3.631-1.519h-5.2V18.8h5.2ZM22.68,19.7H19.842v.528H22.68Zm0,1.386H19.842v.528H22.68Z"/><path class="cls-3" d="M24.6,34.08a14.7,14.7,0,0,1-1.76,2.871L21.712,36.3a13.6,13.6,0,0,0,.858-1.353H20.249v3.422c0,.693-.154,1.023-.682,1.21a6.873,6.873,0,0,1-2.167.2,4.428,4.428,0,0,0-.474-1.254c.65.022,1.464.022,1.684.022s.275-.055.275-.22V34.949H14.539V33.706h5.006c-.814-.341-1.705-.693-2.41-.957l.65-.99c.5.176,1.111.385,1.727.616a11.45,11.45,0,0,0,1.4-1.034H15.6v-1.2h6.579l.3-.077.935.737a18.135,18.135,0,0,1-2.541,2.09c.363.143.693.264.946.385l-.264.429h1.738l.243-.088Z"/><path class="cls-3" d="M15.86,47.148a10.2,10.2,0,0,1-.661,2.839,6.466,6.466,0,0,0-1-.473,8,8,0,0,0,.583-2.553Zm8.559-4.763s0,.44-.011.605c-.143,4.819-.3,6.557-.759,7.14a1.367,1.367,0,0,1-1.057.6,10.5,10.5,0,0,1-1.716.033,3.127,3.127,0,0,0-.44-1.32c.693.066,1.321.066,1.617.066a.543.543,0,0,0,.462-.187c.33-.341.5-1.948.617-5.7H20.1a9.063,9.063,0,0,1-.935,1.419,8.406,8.406,0,0,0-1.034-.726,8.761,8.761,0,0,1,.858,2.057l-.99.462a5.986,5.986,0,0,0-.154-.594l-.627.044v4.522H16.057V46.378l-1.628.11-.11-1.144.814-.033c.165-.209.341-.44.506-.682a10.363,10.363,0,0,0-1.32-1.507l.616-.9c.088.077.176.153.264.231a14.7,14.7,0,0,0,.8-1.915l1.154.407c-.4.76-.846,1.607-1.243,2.223.143.154.276.319.385.462a17.506,17.506,0,0,0,1.013-1.8l1.111.462a35.194,35.194,0,0,1-2.1,2.981l1.112-.044c-.121-.264-.253-.528-.386-.759l.925-.407.076.132a8.746,8.746,0,0,0,1.816-3.664l1.342.286a12.574,12.574,0,0,1-.539,1.574ZM18.2,46.9a12.553,12.553,0,0,1,.715,2.069l-1.034.363a11.277,11.277,0,0,0-.649-2.124Zm2.574,1.123a10.378,10.378,0,0,0-1.342-2.542l1.045-.528a10.346,10.346,0,0,1,1.43,2.464Z"/><path class="cls-3" d="M20.909,53.913A1.408,1.408,0,1,1,19.5,52.505,1.418,1.418,0,0,1,20.909,53.913Z"/><path class="cls-3" d="M18.819,57.191c-.033.2-.077.66-.1.946l-.033.759a15.17,15.17,0,0,0,1.991-.4l.022,1.342a20.465,20.465,0,0,1-2.057.352c-.011.319-.011.649-.011.957v.386a9.261,9.261,0,0,1,2.068-.275c1.661,0,2.981.88,2.981,2.365,0,1.276-.671,2.244-2.387,2.662a9.788,9.788,0,0,1-1.419.176l-.5-1.4a6.989,6.989,0,0,0,1.32-.077c.869-.154,1.573-.594,1.573-1.375,0-.737-.649-1.156-1.595-1.156a7.158,7.158,0,0,0-2.024.3c.022.847.055,1.683.055,2.057,0,1.331-.484,1.683-1.2,1.683-1.044,0-2.53-.9-2.53-2.046,0-.946,1.09-1.925,2.41-2.5V60.3c-.209.011-.407.022-.584.022-.715,0-1.133-.022-1.507-.055l-.022-1.309a13.26,13.26,0,0,0,1.485.066c.2,0,.408-.011.639-.022v-.858a8.718,8.718,0,0,0-.066-.957ZM17.1,65.035c.2,0,.341-.088.341-.462,0-.275-.011-.759-.022-1.331-.661.341-1.1.781-1.1,1.155C16.321,64.738,16.828,65.035,17.1,65.035Zm4.785-6.667a23.2,23.2,0,0,1,2.662,1.507l-.659,1.1a17.658,17.658,0,0,0-2.6-1.562Z"/><path class="cls-3" d="M16.2,72.184v5.765H14.9V68.092h4.2v4.092Zm0-3.091v.594h1.684v-.594Zm1.684,2.1v-.627H16.2v.627Zm.671,5.2v.616H17.334V72.943h4.257V76.4Zm0-2.377v1.3H20.37v-1.3Zm5.611,2.366c0,.726-.143,1.1-.605,1.309a5.409,5.409,0,0,1-2.157.253,4.684,4.684,0,0,0-.44-1.342c.638.044,1.386.033,1.6.022s.286-.066.286-.264v-4.17H19.864v-4.1h4.3Zm-3.059-7.305v.605h1.738v-.605Zm1.738,2.123v-.638H21.107v.638Z"/><path class="cls-3" d="M20.084,78.685a11.053,11.053,0,0,0,4.709,3.784,6.4,6.4,0,0,0-.848,1.177A13.264,13.264,0,0,1,22.262,82.6v.759H16.783v-.77a15.326,15.326,0,0,1-1.705,1.078,5.333,5.333,0,0,0-.825-1.067,11.641,11.641,0,0,0,4.478-3.916ZM16.057,84.45h6.975v4.51H21.69v-.407H17.344v.407H16.057Zm5.666-2.245a12.05,12.05,0,0,1-2.255-2.233,11.219,11.219,0,0,1-2.19,2.233Zm-4.379,3.4V87.4H21.69V85.605Z"/><path class="cls-3" d="M22.361,90.081c-.033.176-.055.649-.065.935-.012.418-.023.814-.023,1.166.286-.022.562-.044.8-.055.308-.022.726-.044,1.034-.077v1.331c-.175-.011-.748.011-1.034.011-.231.011-.517.023-.836.044a14.833,14.833,0,0,1-.154,2.157c-.11.572-.4.715-.935.715a16,16,0,0,1-1.628-.165l.033-1.188a8.239,8.239,0,0,0,.99.121c.22,0,.3-.034.33-.243a12.058,12.058,0,0,0,.077-1.3c-.946.077-2,.176-2.927.275,0,.99-.01,1.981.012,2.443.022,1.056.11,1.287,1.727,1.287a19.908,19.908,0,0,0,3.223-.275l-.055,1.485c-.715.077-2.046.176-3.069.176-2.8,0-3.135-.594-3.179-2.464-.012-.462-.012-1.5-.012-2.5-.3.034-.539.056-.726.077-.34.044-1.012.132-1.287.176l-.154-1.386c.308,0,.8-.022,1.354-.066.187-.022.473-.044.813-.077V91.61a8.1,8.1,0,0,0-.087-1.2h1.529a8.427,8.427,0,0,0-.067,1.122c0,.242,0,.605-.01,1.023.913-.088,1.958-.187,2.937-.264V91.071a8.837,8.837,0,0,0-.077-.99Z"/></svg>