<svg id="レイヤー_1" data-name="レイヤー 1" xmlns="http://www.w3.org/2000/svg" viewBox="0 0 460.416 319.523"><defs><style>.cls-1,.cls-6,.cls-7,.cls-8{fill:none;}.cls-2{fill:#525a70;}.cls-3{fill:#fff;}.cls-4{fill:#aeb5bf;opacity:0.5;}.cls-5{fill:#fdfaf6;}.cls-6,.cls-7{stroke:#525a70;}.cls-6,.cls-7,.cls-8{stroke-miterlimit:10;}.cls-6{stroke-width:8px;}.cls-7{stroke-width:2.022px;}.cls-8{stroke:#9ba0ac;}</style></defs><rect class="cls-1" y="0.459" width="460" height="1"/><circle class="cls-2" cx="198.177" cy="35.667" r="15.675"/><polygon class="cls-2" points="198.177 17.158 195.734 7.921 200.619 7.921 198.177 17.158"/><polygon class="cls-2" points="182.148 26.413 172.928 23.91 175.369 19.679 182.148 26.413"/><polygon class="cls-2" points="182.148 44.922 175.369 51.655 172.928 47.424 182.148 44.922"/><polygon class="cls-2" points="198.177 54.177 200.619 63.413 195.734 63.413 198.177 54.177"/><polygon class="cls-2" points="214.207 44.922 223.427 47.424 220.984 51.655 214.207 44.922"/><polygon class="cls-2" points="214.207 26.413 220.984 19.679 223.427 23.91 214.207 26.413"/><rect class="cls-3" x="257.519" y="0.459" width="202.481" height="318.315"/><rect class="cls-2" x="8.165" y="229.411" width="215.064" height="89.757"/><polygon class="cls-4" points="185.706 229.074 39.545 229.074 39.545 119.722 113.641 72.017 185.706 119.722 185.706 229.074"/><rect class="cls-5" x="81.455" y="134.803" width="29.306" height="29.306"/><rect class="cls-5" x="114.49" y="134.803" width="29.306" height="29.306"/><rect class="cls-5" x="81.455" y="168.379" width="29.306" height="29.305"/><rect class="cls-5" x="114.49" y="168.379" width="29.306" height="29.305"/><line class="cls-6" x1="194.259" y1="112.238" x2="118.198" y2="60.574"/><path class="cls-3" d="M45.533,250.5c.667-.874.851-1.15,1.494-1.955,1.036.92,1.357,1.2,2.346,2.139a.318.318,0,0,1,.115.207c0,.069-.115.138-.253.138H41.187v9.98h5.978c.691-.874.92-1.127,1.633-1.932,1.035.92,1.357,1.2,2.323,2.093a.52.52,0,0,1,.092.207c0,.069-.115.161-.23.161H32.448a7.667,7.667,0,0,0-2.046.184l-.184-.9a11.849,11.849,0,0,0,2.23.184h7.129v-9.98H33.736a10.435,10.435,0,0,0-1.816.138l-.184-.874a7.746,7.746,0,0,0,2,.207h5.841v-5.312c0-1.058-.046-1.632-.137-2.851a26.12,26.12,0,0,1,2.621.322c.161.069.253.138.253.253,0,.207-.207.345-1.127.644V250.5Z" transform="translate(0 0)"/><path class="cls-3" d="M60.255,249.254c.46-.6.6-.8,1.058-1.379.85.805.85.805,1.656,1.563a.479.479,0,0,1,.114.207c0,.069-.092.138-.207.138h-3.31v7.336c1.08-.368,1.7-.621,3.425-1.311l.161.3a30.209,30.209,0,0,1-3.242,1.909c-1.816.942-1.909,1.011-3.288,1.747-.046.23-.069.414-.092.529-.069.368-.184.552-.322.552-.207,0-.207,0-.9-2.438a17.923,17.923,0,0,0,2.782-.805v-7.818H56.783a7.771,7.771,0,0,0-1.471.138l-.162-.828a6.757,6.757,0,0,0,1.633.161h1.311v-3.748c0-.713-.024-.988-.139-2.989,2.231.253,2.576.345,2.576.6,0,.161-.253.3-.965.483v5.656Zm7.818-.206c-.023-5.519-.023-5.519-.115-6.922,2.185.3,2.185.3,2.415.437a.258.258,0,0,1,.114.184c0,.161-.091.207-.988.552v5.219l3.242-1.195a11.6,11.6,0,0,1,.621-1.2c.759.414.989.552,1.679.943.207.184.23.23.23.322,0,.138-.276.414-.759.736a47.51,47.51,0,0,1-.552,7.358,1.991,1.991,0,0,1-.8,1.311,3.422,3.422,0,0,1-1.471.46c-.092-.966-.484-1.334-1.817-1.564v-.368c.851.092,1.472.138,1.908.138.667,0,.783-.161.943-1.472a47.2,47.2,0,0,0,.276-6.208l-3.5,1.31v3.887c0,2.138.023,2.989.092,5.311-.023.3-.3.391-1.127.391-.321,0-.437-.069-.46-.3.046-4.277.069-5.127.069-6.944v-1.817l-2.8,1.035v9.382c0,.322.023.414.138.46a14.571,14.571,0,0,0,3.173.161c1.311,0,3.772-.046,4.232-.069.85-.046.942-.092,1.195-.667a43.916,43.916,0,0,0,1.449-4.484l.345.046-.345,4.047c-.047.368-.047.368-.047.391,0,.207.047.253.507.483a.512.512,0,0,1,.3.483c0,.483-.529.874-1.357.989a27.605,27.605,0,0,1-3.771.138c-2.369.022-2.483.022-2.921.022-3.909,0-4.323-.137-4.391-1.54l.045-5.105v-4.208l-.85.322a4.871,4.871,0,0,0-1.38.713l-.46-.713A7.383,7.383,0,0,0,62.784,251l1.035-.368v-3.012c0-1.265-.023-1.771-.091-2.9,2.276.3,2.483.345,2.483.6,0,.184-.253.322-.943.529v4.231Z" transform="translate(0 0)"/><path class="cls-3" d="M80.151,253.118A23.767,23.767,0,0,0,84.107,247a24.368,24.368,0,0,0,1.908-5.082c2.667.874,2.667.9,2.667,1.1s-.23.276-1.034.345a34,34,0,0,1-3.243,5.61c1.472.3,1.633.345,1.633.552,0,.138-.184.276-.575.391v4.921l.069,7.52c-.047.229-.115.275-.621.367-.161.023-.621.07-.736.07-.3,0-.414-.093-.414-.345.047-1.288.047-1.288.139-7.52v-5.266a20.132,20.132,0,0,1-3.473,3.7Zm17.661-4.783c.528-.782.689-1.035,1.218-1.794.919.713,1.219.943,2.092,1.679a.381.381,0,0,1,.161.207c0,.114-.092.161-.368.184l-7.4.574a18.624,18.624,0,0,0,1.4,5.312,13.835,13.835,0,0,0,4.069,5.45c.667-1.357.667-1.357,2.071-4.576l.253.115-.852,4.254-.068.6c0,.184.092.368.436.828a1.121,1.121,0,0,1,.3.644.83.83,0,0,1-.9.712c-1.173,0-3.4-1.885-5.082-4.276a20.361,20.361,0,0,1-3.2-8.946l-2.621.207a17.569,17.569,0,0,0-2.644.345l-.277-.966a13.544,13.544,0,0,0,1.518.092c.392,0,1.081-.023,1.4-.045l2.53-.185a40.692,40.692,0,0,1-.3-4.208c-.07-1.287-.092-1.586-.207-2.46,2.115.253,2.621.368,2.621.6,0,.161-.184.276-.851.506v1.057a28.32,28.32,0,0,0,.322,4.392Zm-3.473-5.243a15.158,15.158,0,0,1,2.9,1.379c.644.391.851.69.851,1.288,0,.713-.345,1.449-.689,1.449-.139,0-.231-.092-.369-.345a12.041,12.041,0,0,0-2.92-3.472Z" transform="translate(0 0)"/><path class="cls-3" d="M115.454,260.66a10.458,10.458,0,0,0,5.381-3.2,8.185,8.185,0,0,0,2.047-5.542,5.706,5.706,0,0,0-2.6-5.082,7.586,7.586,0,0,0-3.978-1.058,5.294,5.294,0,0,0-.805.046,3,3,0,0,1,.713,1.909c0,1.793-1.288,5.151-3.035,7.956-1.449,2.3-2.575,3.426-3.427,3.426a1.335,1.335,0,0,1-1.012-.483,4.5,4.5,0,0,1-.643-1.471A14.317,14.317,0,0,0,107.084,255a4.416,4.416,0,0,1-.529-2.092,7.183,7.183,0,0,1,2.07-4.553,11.148,11.148,0,0,1,7.91-3.22,8.736,8.736,0,0,1,5.933,2.116,7.019,7.019,0,0,1,2.207,5.4,7.925,7.925,0,0,1-4.575,6.967,13.731,13.731,0,0,1-4.485,1.426Zm-7.565-7.152a5.374,5.374,0,0,0,.92,3.036c.322.414.621.667.874.667.506,0,1.609-1.242,2.736-3.036,1.7-2.713,2.92-5.679,2.92-7.105a2.563,2.563,0,0,0-.321-1.15C111.017,246.633,107.889,249.967,107.889,253.508Z" transform="translate(0 0)"/><path class="cls-3" d="M141.329,244.15c.414-.437.552-.575,1.012-1.012.736.575.966.759,1.633,1.333.161.115.276.23.276.322a.386.386,0,0,1-.139.138,2.866,2.866,0,0,1-.6.138c-.46.069-.759.138-.92.161a21.354,21.354,0,0,1-2.966,2.53h5.105c.344-.437.459-.575.828-.989.621.437.8.575,1.334.989.229.184.3.253.3.345,0,.138-.069.161-.736.528-.022,3.358-.022,3.358-.022,4.048,0,.9,0,.9.022,3.242.024.782.024,1.633.046,2.529-.022.23-.068.3-.207.368a6.583,6.583,0,0,1-1.149.115c-.184,0-.23-.046-.253-.207v-.437h-10.21v.667c0,.322-.138.391-.805.414a2.246,2.246,0,0,0-.437.023h-.023c-.229,0-.345-.115-.345-.276v-.092c.07-3.242.116-4.852.116-6.714,0-.736-.046-2.231-.093-4.553a16.079,16.079,0,0,1-3.541,2.345l-.207-.253a22.652,22.652,0,0,0,4.852-4.875,13.249,13.249,0,0,0,2.07-3.311c.643.184.643.184,1.839.506.391.115.575.23.575.391a.306.306,0,0,1-.138.207,7.267,7.267,0,0,1-.942.207c-.506.6-.645.759-1.012,1.173ZM129.4,262.431a21.385,21.385,0,0,0,4.691-1.84,10.49,10.49,0,0,0,2.483-1.656c2.139.805,2.414.92,2.414,1.127s-.3.253-1.333.276a22,22,0,0,1-8.094,2.391Zm9.681-14.671a24,24,0,0,0,2.139-3.082h-5.082c-.943,1.058-1.5,1.633-2.369,2.484.3.184.437.276.92.6Zm5.818,3.357v-2.828h-10.21v2.828Zm-10.21.529v2.828h10.21v-2.828Zm0,3.357v2.76h10.21V255Zm6.852,4.208a34.279,34.279,0,0,1,5.174.759c1.311.322,1.7.506,1.978.874a2.525,2.525,0,0,1,.505,1.472.452.452,0,0,1-.367.459c-.138,0-.138,0-1.863-.988a27.851,27.851,0,0,0-5.5-2.3Z" transform="translate(0 0)"/><path class="cls-3" d="M159.294,247.116a15.8,15.8,0,0,1,.988-1.265c.645.736.645.736,1.265,1.449a.586.586,0,0,1,.093.23c0,.069-.07.115-.161.115h-2.944v4.6c1.472-.575,1.771-.713,2.944-1.219l.091.276c-1.081.736-1.587,1.058-3.035,1.885v4.14c0,2.667,0,2.667.023,3.817,0,.575-.092.782-.46,1.011a4.534,4.534,0,0,1-1.954.621c-.138-.666-.253-.85-.53-1.057a3.654,3.654,0,0,0-.942-.276l-.414-.069c-.138-.023-.253-.046-.391-.069l.023-.368c1.058.046,1.242.046,2.851.046.207-.023.231-.069.231-.368v-6.761c-.392.207-.392.207-1.173.644-.552.3-.552.3-.943.529-.092.69-.162.874-.322.874-.184,0-.437-.506-1.057-2.047a24.213,24.213,0,0,0,3.517-1.08v-5.128h-1.517a6.45,6.45,0,0,0-1.494.138l-.139-.828a7.416,7.416,0,0,0,1.633.161h1.517v-2.553c0-.873-.046-2.115-.068-2.667,2.253.322,2.552.391,2.552.621,0,.184-.092.23-.943.575v4.024Zm.022,13.659a10.2,10.2,0,0,0,2.185.184h9.8c.736-.874.736-.874,1.449-1.7.92.782,1.195,1.035,2.07,1.863a.531.531,0,0,1,.091.207c0,.092-.115.161-.253.161H161.387a9.61,9.61,0,0,0-1.886.161Zm4.37-2.346c-.023.322-.276.391-1.287.391-.231,0-.323-.069-.323-.253.046-2.069.07-4.76.07-9.4,0-2.852,0-3.726-.07-6.255a11.055,11.055,0,0,1,1.794,1.1h6.554a10.97,10.97,0,0,1,.988-1.1c.575.437.759.552,1.311.965.23.185.322.277.322.392,0,.16-.115.253-.782.689v2.967c0,4.139.046,8.669.115,10.347-.046.276-.207.345-.874.391-.253.023-.437.046-.506.046h-.046c-.161,0-.229-.069-.253-.23v-1.287h-7.013ZM170.7,244.54h-7.013v5.634H170.7Zm-7.013,6.163v5.956H170.7V250.7Z" transform="translate(0 0)"/><path class="cls-3" d="M183.26,257.739a11.655,11.655,0,0,0,3.563,1.564c.507,0,.9-.483,1.5-1.931a17.671,17.671,0,0,0,1.357-6.163q0-1.449-.62-1.863a1.726,1.726,0,0,0-1.035-.23,8.032,8.032,0,0,0-2.392.46c-.322.805-.322.805-1.334,3.128-.114.276-.574,1.356-1.356,3.219-.92,2.161-1.679,3.817-2.047,4.461-.16.3-.345.437-.552.437-.414,0-.667-.6-.667-1.587a1.535,1.535,0,0,1,.529-1.288c1.035-1.264,2.024-3.15,4.232-8a16.215,16.215,0,0,0-2.99,1.2,1.2,1.2,0,0,1-.667.253,1.7,1.7,0,0,1-1.011-.69,3.648,3.648,0,0,1-.759-1.748,1.523,1.523,0,0,1,.138-.505c.482.942.9,1.264,1.747,1.264a23.958,23.958,0,0,0,3.909-.805,12.953,12.953,0,0,0,.943-3.771c0-.713-.46-1.126-1.77-1.54a.94.94,0,0,1,.667-.253,6.487,6.487,0,0,1,1.563.3c1.034.3,1.61.736,1.61,1.219,0,.161-.046.253-.323.667a24.453,24.453,0,0,0-1.471,3.1,8.805,8.805,0,0,1,2-.252c1.977,0,2.92,1.172,2.92,3.587,0,2.943-1.173,6.76-2.506,8.232a3.364,3.364,0,0,1-2.208,1.035.533.533,0,0,1-.62-.529c-.047-.6-.139-.713-2.553-2.69Zm10.14-9.266a7.98,7.98,0,0,1,4.208,2.759,5.41,5.41,0,0,1,1.311,3.242c0,.805-.345,1.265-.92,1.265a.913.913,0,0,1-.528-.161,1.4,1.4,0,0,0-.944-.253,20.338,20.338,0,0,0-2.874.207l-.091-.3a34.884,34.884,0,0,0,3.517-1.173,6.917,6.917,0,0,0-3.862-5.266Zm.783-4.6a9.731,9.731,0,0,1,2.046,1.426c.828.736,1.15,1.265,1.15,1.817s-.322.966-.713.966c-.3,0-.3,0-1.013-1.5a10.829,10.829,0,0,0-1.77-2.414Zm2.368-1.333a10.166,10.166,0,0,1,2.207,1.311c.874.667,1.173,1.126,1.173,1.77,0,.552-.23.943-.574.943-.207,0-.346-.115-.53-.437a11.74,11.74,0,0,0-2.529-3.288Z" transform="translate(0 0)"/><path class="cls-3" d="M45.387,284.023a21.356,21.356,0,0,0,16.305,16.815l-.036.472a6.083,6.083,0,0,0-3.522,3.7c-.182.508-.327.654-.545.654A6.087,6.087,0,0,1,55.3,304.4a24.093,24.093,0,0,1-8.244-11.186,38.557,38.557,0,0,1-2.034-7.989c-.618,6.028-2.542,10.459-6.065,13.982a26.961,26.961,0,0,1-7.7,5.374,44.251,44.251,0,0,1-4.358,1.743l-.217-.472c5.411-3.45,8.061-5.956,10.349-9.623a27.751,27.751,0,0,0,3.741-12.2H31.151a20.189,20.189,0,0,0-3.377.255l-.182-1.344a19.184,19.184,0,0,0,3.6.327h9.66c.145-1.78.181-3.45.181-5.847a31.916,31.916,0,0,0-.181-3.85c1.307.11,2.288.182,2.941.255,2.542.181,3.305.4,3.305.871,0,.363-.4.618-1.562,1.017-.109,3.886-.145,5.3-.327,7.554H53.34l2.761-3.523c2.033,1.526,2.614,2,4.539,3.6.181.218.254.327.254.436,0,.145-.182.254-.436.254Z" transform="translate(0 0)"/><path class="cls-3" d="M77.159,279.992c.763-.762.981-.98,1.78-1.743a26.453,26.453,0,0,1,2.433,1.816c.254.218.327.363.327.508,0,.291-.181.436-1.09.945V290.6l.037,1.961-.037,2.07.037,2.07a1.642,1.642,0,0,1-.037.363c0,1.271-.253,1.816-.944,2.215a4.677,4.677,0,0,1-2,.545c-.363,0-.363,0-.4-.981-.037-1.38-.364-2-1.272-2.324,0,2.506.036,3.922.11,8.861,0,.545-.074.763-.364.908a8.726,8.726,0,0,1-2.142.254c-.727,0-.981-.218-.981-.8v-.254c.109-3.377.109-3.377.109-12.856l.036-11.875H71.349V298.8c-.036.436-.109.654-.364.763a6.058,6.058,0,0,1-1.96.254c-.69,0-.981-.182-.981-.69v-.109c.109-4.685.109-5.484.109-8.171v-8.462c0-1.2,0-1.525-.109-4.358a33.893,33.893,0,0,1,3.6,1.961h1.125v-1.815c0-.945-.109-3.886-.182-5.048,3.923.218,4.867.4,4.867.908,0,.363-.327.581-1.417.944-.036,1.2-.036,1.634-.036,2.433v2.578ZM76,280.755c.036,4.685.036,6.319.036,9.115,0,1.489,0,3.341-.036,6.138.4,0,.545.036,1.017.036.363,0,.472-.109.472-.472V280.755Zm4.794-5.592a19.117,19.117,0,0,0,2.4.29H94.809c1.053-1.235,1.343-1.634,2.433-2.76,1.743,1.235,2.288,1.634,3.994,2.978a.439.439,0,0,1,.219.327.243.243,0,0,1-.255.218H83.151a20.527,20.527,0,0,0-2.178.145Zm18.957,18.3v1.416c0,4.43.036,8.353.146,10.423v.29c0,.581-.4.763-1.817.835-.4,0-.726.037-.944.037h-.182c-.653,0-.871-.182-.871-.727v-1.416H85.512v1.344a.583.583,0,0,1-.326.581,7.518,7.518,0,0,1-2.107.29c-1.017,0-1.271-.145-1.271-.871v-.036c.109-3.378.145-5.956.145-10.06,0-2.978-.036-4.5-.145-6.755,1.816.8,2.36,1.09,4.1,1.961h9.878c.836-.908,1.09-1.2,2-2.106a23.039,23.039,0,0,1,2.76,2.106c.327.327.472.545.472.654,0,.327-.364.617-1.271,1.089Zm-5.339-13.8a25.9,25.9,0,0,1,1.961-2.033c1.272.871,1.635,1.126,2.833,2.033.29.255.363.364.363.509,0,.291-.181.472-1.2,1.053-.037.4-.037,1.017-.037,1.78v.98c0,.145,0,.872.037,1.889.036.4.036,1.053.036,1.852v.145a.788.788,0,0,1-.217.654,12.489,12.489,0,0,1-2.8.254c-.508,0-.654-.145-.69-.763v-.98H86.929v.835c-.037.581-.327.763-1.381.763-.254.036-.69.036-1.271.072h-.109c-.653,0-.944-.218-.944-.726v-.109c.073-1.453.109-2.324.109-2.724a72.486,72.486,0,0,0-.182-7.517c1.853.835,2.4,1.126,4.213,2.033Zm-5.483,17.178v-5.3H85.512v5.3Zm-3.414,6.718h3.414v-5.955H85.512Zm1.417-17.286H94.7v-5.847H86.929Zm9.151,5.266H92.448v5.3H96.08Zm-3.632,6.065v5.955H96.08v-5.955Z" transform="translate(0 0)"/><path class="cls-3" d="M122.549,292.086c0,.544.036,1.561.073,2.76,0,.726-.4.908-2.142.908-.981,0-1.126-.073-1.163-.545v-.763h-2.251V298.7h1.924c.981-1.089,1.271-1.416,2.288-2.433,1.38,1.126,1.78,1.489,3.123,2.651.109.182.182.254.182.327,0,.145-.145.218-.4.218h-7.118c.072,4.721.072,4.721.109,6.355,0,.763-.437.944-2.252.944-1.017,0-1.272-.145-1.272-.69v-.109c.074-1.815.074-1.815.11-6.5h-4.54a8.8,8.8,0,0,0-2.215.254l-.182-1.344a7.369,7.369,0,0,0,2.4.327H113.8v-4.249h-2.179v.981c0,.653-.435.8-2.034.8-1.126,0-1.307-.073-1.307-.69.109-2.615.145-4.976.145-8.244,0-3.051-.036-4.576-.145-6.5a26.006,26.006,0,0,1,3.595,1.852H113.8v-3.667h-4.213a8.533,8.533,0,0,0-2.106.254l-.218-1.308a8.853,8.853,0,0,0,2.324.291H113.8a42.3,42.3,0,0,0-.182-5.084c.981.109,1.743.181,2.216.254,2.287.218,2.8.363,2.8.762,0,.327-.4.545-1.561.836v3.232h1.779c.944-1.053,1.234-1.38,2.142-2.433,1.38,1.126,1.817,1.452,3.087,2.651.146.145.218.254.218.327,0,.145-.144.218-.363.218h-6.863v3.667H119.1c.8-.8,1.017-1.053,1.78-1.815a29.287,29.287,0,0,1,2.36,1.852c.4.29.508.436.508.617,0,.254-.218.4-1.2.872v7.917Zm-8.752-8.68h-2.179v4.54H113.8Zm0,5.3h-2.179v4.976H113.8Zm5.52-5.3h-2.251v4.54h2.251Zm0,5.3h-2.251v4.976h2.251Zm9.551,4.685a27.1,27.1,0,0,0-.218-3.813c4.975.508,5.448.617,5.448,1.089,0,.291-.364.509-1.416.872v4.1h2.142c1.017-1.162,1.307-1.488,2.287-2.65,1.562,1.234,2,1.6,3.487,2.832.145.182.218.291.218.363,0,.146-.145.218-.363.218h-7.771v7.917h2.8c1.052-1.271,1.416-1.707,2.5-2.978,1.634,1.344,2.143,1.78,3.668,3.232.146.146.182.218.182.291,0,.109-.145.218-.363.218h-18.7a7.011,7.011,0,0,0-2.106.29l-.255-1.416a7.622,7.622,0,0,0,2.361.363h6.1v-7.917h-3.595a6.011,6.011,0,0,0-1.78.255l-.254-1.308a7.211,7.211,0,0,0,2.034.29h3.595Zm-6.174-3.014a32.935,32.935,0,0,0,6.864-5.738,20.217,20.217,0,0,1-4.212-8.1h-.218a6.083,6.083,0,0,0-1.889.255l-.217-1.308a7.012,7.012,0,0,0,2.106.291h9.479c.943-.908,1.234-1.2,2.142-2.034,1.307.944,1.706,1.271,3.014,2.324.363.364.509.545.509.69,0,.327-.437.545-1.6.836-2.215,3.668-3.268,5.12-5.048,6.863,1.889.944,3.741,1.344,8.172,1.816v.436a4.911,4.911,0,0,0-2.434,3.413c-.108.255-.217.364-.4.364a3.553,3.553,0,0,1-1.09-.327,24.387,24.387,0,0,1-6.536-3.777,32.315,32.315,0,0,1-8.462,4.431Zm3.269-13.837c.108.218.108.218.327.69a14.7,14.7,0,0,0,4.721,5.7,24.452,24.452,0,0,0,3.74-6.392Z" transform="translate(0 0)"/><path class="cls-3" d="M146.732,281.736a18.528,18.528,0,0,1,4.43,1.561,2.5,2.5,0,0,1,1.634,2.325c0,1.561-1.017,2.941-2.179,2.941-.509,0-.69-.254-1.053-1.235a13.633,13.633,0,0,0-3.05-5.266Zm0,13.182a10.15,10.15,0,0,0,2.36.509c.581,0,.653-.109,2.106-3.2a100.309,100.309,0,0,0,4.068-9.769l.471.145-3.413,12.747a8.856,8.856,0,0,0-.255,1.707,5.263,5.263,0,0,0,.364,1.67,11.305,11.305,0,0,1,.581,3.2,4.334,4.334,0,0,1-1.2,3.16,3.514,3.514,0,0,1-2.252.98.937.937,0,0,1-.981-1.053,5.415,5.415,0,0,1,.109-.98,38.125,38.125,0,0,0,.509-5.157c0-2.034-.4-2.542-2.615-3.45Zm1.96-21.208c4.831,1.271,6.392,2.251,6.392,4,0,1.452-1.126,2.868-2.288,2.868-.545,0-.617-.072-1.053-1.271a12.727,12.727,0,0,0-3.3-5.265ZM164.744,284.1c.835-.944,1.089-1.235,1.925-2.215,1.162,1.017,1.562,1.344,2.76,2.4l.072.072c-.072-1.162-.182-2.869-.218-4.43h-9.151c-.182,6.137-.363,9.406-.69,12.311a24.118,24.118,0,0,1-2.5,9.188,18.457,18.457,0,0,1-3.814,5.157l-.363-.255a27.872,27.872,0,0,0,3.087-10.749,140.284,140.284,0,0,0,.581-14.454c0-1.307-.036-2.36-.146-4.467a37.878,37.878,0,0,1,4.285,2.506h8.68c-.036-.908-.036-1.235-.036-1.852-.036-2.4-.072-2.833-.182-4.176l2.434.326c2.179.255,2.687.4,2.687.763,0,.291-.327.508-1.271.8-.073,2.179-.073,2.869-.073,4.14h3.051c.4-.472.508-.581.8-.908-.581-.145-.762-.363-.943-1.126a5.851,5.851,0,0,0-1.381-2.76l.182-.29a11.446,11.446,0,0,1,3.087.763,1.629,1.629,0,0,1,1.126,1.452,2.1,2.1,0,0,1-.364,1.126,31.042,31.042,0,0,1,2.542,2.034.375.375,0,0,1,.182.29c0,.109-.145.182-.363.182h-7.917a62,62,0,0,0,.762,11.657,29.432,29.432,0,0,0,2.144-8.57c4.176,1.38,4.829,1.67,4.829,2.033,0,.327-.4.509-1.561.69a36.432,36.432,0,0,1-4.212,10.024,15.374,15.374,0,0,0,2.977,4.612,58.393,58.393,0,0,0,2.869-6.356l.4.109-1.054,6.247a7.126,7.126,0,0,0-.108.98c0,.472.036.545.545,1.38a1.962,1.962,0,0,1,.363,1.2,1.855,1.855,0,0,1-1.853,1.924c-1.815,0-4.43-2.832-6.464-6.972-2.687,3.087-5.556,4.9-11.185,7.118l-.218-.4a31.472,31.472,0,0,0,10.2-9.805,44.9,44.9,0,0,1-1.706-10.968l-.291.037h-6.9a8.058,8.058,0,0,0-1.706.218l-.255-1.235a8.812,8.812,0,0,0,1.961.254Zm-1.09,15.108c0,.653-.326.8-1.815.8-.908,0-1.054-.072-1.054-.581.073-2.723.11-5.193.11-8.316,0-2-.037-2.8-.11-4.176a21.8,21.8,0,0,1,3.051,1.634H165.8c.581-.69.8-.908,1.38-1.562.944.69,1.235.908,2.106,1.6.218.182.291.291.291.436,0,.218-.181.363-.944.763v3.2c0,2,0,2,.072,4.939,0,.689-.363.871-1.815.871-.835,0-.981-.073-.981-.508V297.17h-2.252Zm0-2.8h2.252v-7.081h-2.252Z" transform="translate(0 0)"/><path class="cls-3" d="M196.589,295.39a73.892,73.892,0,0,0-2.07-15.906,11.521,11.521,0,0,1-.218-1.707c0-1.452.98-2.106,3.051-2.106s3.014.654,3.014,2.106c0,.763,0,.763-.762,4.394a74.123,74.123,0,0,0-1.526,13.219Zm3.74,5.593a3.014,3.014,0,1,1-3.013-3.014A2.96,2.96,0,0,1,200.329,300.983Z" transform="translate(0 0)"/><line class="cls-7" x1="165.292" y1="51.43" x2="150.695" y2="70.271"/><polygon class="cls-2" points="148.314 60.025 150.327 59.835 151.26 69.76 161.092 68.105 161.426 70.101 149.451 72.114 148.314 60.025"/><line class="cls-7" x1="180.504" y1="63.118" x2="165.907" y2="81.959"/><polygon class="cls-2" points="163.525 71.713 165.54 71.522 166.472 81.447 176.304 79.792 176.638 81.789 164.663 83.801 163.525 71.713"/><line class="cls-7" x1="195.716" y1="74.805" x2="181.12" y2="93.647"/><polygon class="cls-2" points="178.737 83.401 180.752 83.209 181.685 93.134 191.516 91.479 191.85 93.475 179.875 95.489 178.737 83.401"/><path class="cls-2" d="M298.548,159.437c2.161-.047,2.819-.141,3.524-.564,1.081-.564,1.411-1.786,1.411-4.794V132.461a13.313,13.313,0,0,0-.141-2.82c-.189-1.034-.8-1.269-3.2-1.269h-1.269v-1.316c4.465-.376,7.9-.846,11-1.41q-.423,5.005-.423,11.843v16.59c0,2.867.282,4.042,1.128,4.7.657.517,1.222.611,3.618.658v1.316H298.548Z" transform="translate(0 0)"/><path class="cls-2" d="M330.32,157.51a3.972,3.972,0,1,1-7.943,0,3.972,3.972,0,0,1,7.943,0Z" transform="translate(0 0)"/><path class="cls-2" d="M347.24,142.753c7.143.564,10.809,3.666,10.809,9.07,0,6.016-4.652,9.682-12.266,9.682-6.674,0-11.514-3.055-11.514-7.285,0-1.786,1.315-2.82,3.524-2.82a2.853,2.853,0,0,1,2.4.893c.282.376.282.47.375,2.632a7.32,7.32,0,0,0,1.269,3.76,4.9,4.9,0,0,0,3.854,1.6c3.9,0,6.11-3.149,6.11-8.6,0-3.243-.894-5.593-2.585-6.815a11.218,11.218,0,0,0-6.11-1.5h-1.41v-1.457h1.316c5.31-.047,8.084-2.82,8.084-8.13,0-4.559-1.739-7-5.076-7a3.879,3.879,0,0,0-3.713,1.974,8.75,8.75,0,0,0-.94,3.807c-.047,1.55-.14,1.879-.564,2.349a3.45,3.45,0,0,1-2.443.705c-2.163,0-3.291-.8-3.291-2.3,0-4.371,4.841-7.755,11.092-7.755a13.257,13.257,0,0,1,8.366,2.585,7.673,7.673,0,0,1,2.584,5.78c0,4.606-3.572,7.661-9.869,8.46Z" transform="translate(0 0)"/><path class="cls-2" d="M373.394,139.988a49.1,49.1,0,0,1-.405,5.857h6.937c.729-.755.945-1,1.646-1.754,1.134.756,1.486,1,2.511,1.754.243.189.324.3.324.405,0,.243-.243.432-1.052.864-.433,5.993-.459,6.478-.892,8.746-.594,3.239-1.322,4.508-2.941,5.074a9.2,9.2,0,0,1-2.484.405c-.243,0-.351-.108-.378-.432a2.163,2.163,0,0,0-1.134-1.889c-.567-.3-.567-.3-3.914-1.188l.054-.324c2.592.216,5.075.378,6.073.378.7,0,.918-.189,1.189-.971.675-1.863,1.214-6.452,1.3-10.5h-7.288A18.578,18.578,0,0,1,362.057,161.8l-.162-.27a19.482,19.482,0,0,0,4.319-4.8A23.09,23.09,0,0,0,369.75,146.2a46.231,46.231,0,0,0,.323-6.208h-4.858a20.368,20.368,0,0,0-2.888.162l-.189-1a14.994,14.994,0,0,0,3.077.27H381.06c.918-1.08,1.215-1.4,2.186-2.456,1.512,1.106,2,1.458,3.483,2.591.107.135.162.189.162.27s-.109.162-.271.162Z" transform="translate(0 0)"/><path class="cls-2" d="M393.619,154.888c0,1.053,0,1.4.054,5.669,0,.431-.081.648-.271.755a4.015,4.015,0,0,1-1.753.3c-1.027,0-1.215-.135-1.243-.837.136-3.859.162-6.478.162-13.334,0-7.126-.026-8.233-.134-10.068,1.592.756,2.051.971,3.617,1.754h14.414c.647-.755.863-.971,1.565-1.754,1.053.81,1.377,1.053,2.4,1.916.3.27.378.405.378.513-.028.27-.028.3-1,.837V152c.027,4.94.027,4.94.027,6.613a2.18,2.18,0,0,1-1.377,2.294,8.95,8.95,0,0,1-2.78.594c-.242,0-.324-.081-.351-.351a2.074,2.074,0,0,0-.431-1.241,2.992,2.992,0,0,0-1.809-1.026c-.405-.108-.54-.135-2.268-.513v-.378c2.268.162,2.484.162,5.4.3h.135c.27,0,.377-.108.377-.405V149.22H393.619Zm5.939-15.2h-5.939v8.962h5.939Zm9.176,8.962v-8.962H402.58v8.962Z" transform="translate(0 0)"/><path class="cls-2" d="M422.644,138.962h1.619l-8.988,24.969h-1.62Z" transform="translate(0 0)"/><path class="cls-2" d="M432.715,151.541a14.308,14.308,0,0,1-2.835,6.964,14.964,14.964,0,0,1-3.752,3.428l-.188-.216a16.491,16.491,0,0,0,3.374-7.558c.459-2.348.593-4.507.593-9.717,0-3.59-.027-5.156-.162-7.5a40.663,40.663,0,0,1,3.752,1.835h8.881c.675-.782.863-1,1.593-1.754,1.079.729,1.376.972,2.4,1.7.27.216.378.351.378.486,0,.243-.243.432-1,.81v9.313c0,2.537.027,5.317.108,9.015a2.841,2.841,0,0,1-.351,1.755,4.2,4.2,0,0,1-2.861,1.376,4.33,4.33,0,0,1-.891.108c-.3,0-.351-.081-.4-.486a2.139,2.139,0,0,0-1.458-1.808,17.1,17.1,0,0,0-3.7-.972l.028-.351c2.267.135,2.753.162,5.8.243.458,0,.567-.081.567-.459v-6.208Zm9.879-6.127h-9.556a52.569,52.569,0,0,1-.243,5.56h9.8Zm0-6.074h-9.5c0,2,0,2-.027,5.507h9.528Z" transform="translate(0 0)"/><path class="cls-2" d="M284.442,156.11h-1.876v-7.748h-7.41v-1.753h7.41v-7.164h1.876v7.164h7.379v1.753h-7.379Z" transform="translate(0 0)"/><path class="cls-2" d="M350.844,187.661a6.721,6.721,0,0,1,10.836,0,14.19,14.19,0,0,1,2.043,7.952,14.029,14.029,0,0,1-2.043,7.924,6.681,6.681,0,0,1-10.836,0,14.446,14.446,0,0,1-2.045-7.924A14.255,14.255,0,0,1,350.844,187.661Zm2.576,15.512q.923,2.436,2.855,2.436c1.428,0,2.409-.952,3.024-2.912a24.136,24.136,0,0,0,.728-7.084c0-3.64-.279-5.964-.9-7.56-.615-1.652-1.539-2.436-2.856-2.436-2.6,0-3.751,3.052-3.751,10C352.524,199.169,352.8,201.577,353.42,203.173Z" transform="translate(0 0)"/><path class="cls-2" d="M372.264,203.929a2.367,2.367,0,1,1-4.733,0,2.367,2.367,0,0,1,4.733,0Z" transform="translate(0 0)"/><path class="cls-2" d="M384.024,195.137c4.255.336,6.439,2.184,6.439,5.4,0,3.584-2.772,5.768-7.307,5.768-3.976,0-6.861-1.82-6.861-4.34,0-1.064.785-1.68,2.1-1.68a1.7,1.7,0,0,1,1.427.532c.168.224.168.28.223,1.568a4.379,4.379,0,0,0,.756,2.24,2.927,2.927,0,0,0,2.3.952c2.324,0,3.64-1.876,3.64-5.124,0-1.932-.533-3.332-1.541-4.06a6.678,6.678,0,0,0-3.638-.9h-.842v-.868h.785c3.164-.028,4.816-1.68,4.816-4.844,0-2.716-1.037-4.172-3.025-4.172a2.31,2.31,0,0,0-2.211,1.176,5.2,5.2,0,0,0-.56,2.268c-.028.924-.084,1.12-.336,1.4a2.055,2.055,0,0,1-1.455.42c-1.29,0-1.961-.476-1.961-1.372,0-2.6,2.884-4.62,6.607-4.62a7.9,7.9,0,0,1,4.984,1.54,4.567,4.567,0,0,1,1.541,3.444c0,2.744-2.129,4.564-5.88,5.04Z" transform="translate(0 0)"/><path class="cls-2" d="M400.129,193.736a28.944,28.944,0,0,1-.24,3.474H404c.432-.448.559-.592.977-1.041.671.449.878.593,1.488,1.041.142.112.191.176.191.24,0,.144-.144.256-.625.512a36.533,36.533,0,0,1-.527,5.186c-.352,1.921-.785,2.673-1.744,3.009a5.47,5.47,0,0,1-1.473.24c-.144,0-.209-.064-.225-.256a1.282,1.282,0,0,0-.671-1.12,10.143,10.143,0,0,0-2.323-.7l.034-.193c1.537.129,3.009.225,3.6.225.416,0,.543-.112.7-.577a25.326,25.326,0,0,0,.77-6.226h-4.322a11.023,11.023,0,0,1-6.452,9.124l-.1-.161a11.538,11.538,0,0,0,2.56-2.849,13.684,13.684,0,0,0,2.1-6.242,27.406,27.406,0,0,0,.191-3.682h-2.881a12.109,12.109,0,0,0-1.713.1l-.111-.592a8.891,8.891,0,0,0,1.824.16h9.4c.543-.64.721-.832,1.3-1.456.9.656,1.183.864,2.064,1.536.065.08.1.112.1.16s-.065.1-.16.1Z" transform="translate(0 0)"/><path class="cls-2" d="M412.432,202.572c0,.624,0,.832.033,3.361,0,.256-.049.384-.16.449a2.393,2.393,0,0,1-1.041.176c-.608,0-.721-.081-.737-.5.081-2.289.1-3.841.1-7.907,0-4.226-.015-4.882-.08-5.97.945.448,1.217.576,2.147,1.04h8.546c.385-.448.512-.576.928-1.04.625.48.817.624,1.426,1.136.176.16.223.24.223.3-.016.16-.016.176-.592.5v6.738c.015,2.93.015,2.93.015,3.922a1.292,1.292,0,0,1-.816,1.36,5.323,5.323,0,0,1-1.648.353c-.145,0-.192-.049-.207-.209a1.252,1.252,0,0,0-.256-.736,1.777,1.777,0,0,0-1.075-.608c-.24-.064-.318-.08-1.343-.3v-.224c1.343.1,1.472.1,3.2.176h.08c.16,0,.225-.064.225-.24v-5.138h-8.965Zm3.521-9.012h-3.521v5.314h3.521Zm5.444,5.314V193.56h-3.651v5.314Z" transform="translate(0 0)"/><path class="cls-2" d="M429.953,193.128h.959l-5.33,14.806h-.959Z" transform="translate(0 0)"/><path class="cls-2" d="M436.24,200.587a8.489,8.489,0,0,1-1.679,4.13,8.928,8.928,0,0,1-2.227,2.033l-.111-.128a9.777,9.777,0,0,0,2-4.482,28.211,28.211,0,0,0,.353-5.763c0-2.129-.015-3.057-.1-4.449a24.084,24.084,0,0,1,2.224,1.088h5.266c.4-.464.512-.592.943-1.04.641.432.817.576,1.426,1.008.16.128.225.208.225.288,0,.144-.145.256-.594.48v5.523c0,1.5.017,3.153.064,5.346a1.685,1.685,0,0,1-.207,1.04,3.717,3.717,0,0,1-2.226.88c-.176,0-.207-.047-.239-.288a1.266,1.266,0,0,0-.865-1.072,10.151,10.151,0,0,0-2.193-.576l.015-.208c1.346.08,1.633.1,3.442.144.273,0,.338-.048.338-.273v-3.681Zm5.86-3.633h-5.668a31.681,31.681,0,0,1-.143,3.3H442.1Zm0-3.6h-5.635c0,1.185,0,1.185-.016,3.266H442.1Z" transform="translate(0 0)"/><rect class="cls-2" x="271.375" y="185.701" width="69.92" height="20.243"/><path class="cls-3" d="M281.031,194.554c1.428.432,2.16,1.067,2.16,1.655,0,.324-.18.539-.445.539-.2,0-.3-.084-.491-.5a3.944,3.944,0,0,0-1.224-1.475v1.439c0,2.327.025,3.682.025,4.1,0,.289-.18.4-.564.4-.264,0-.372-.107-.372-.324,0-.383.084-2.026.132-5.361a9.757,9.757,0,0,1-2.639,3.275c-.059.048-.168-.06-.12-.12a13.664,13.664,0,0,0,2.484-4.618H278.6a4.6,4.6,0,0,0-.78.072l-.12-.467a3.937,3.937,0,0,0,.888.095h1.6v-1.823a17.119,17.119,0,0,1-2.206.324c-.084.012-.12-.168-.036-.192a12.762,12.762,0,0,0,3.238-1.187,3.973,3.973,0,0,0,.827-.588c.779.588.888.708.888.828,0,.144-.216.216-.576.108a9.6,9.6,0,0,1-1.284.48v2.05h.984c.456-.551.551-.6.624-.6s.156.048.647.432c.216.191.277.275.277.359s-.049.108-.168.108h-2.364Zm4.078-1.391c0,2.662.06,3.825.06,4.185,0,.276-.191.4-.552.4-.275,0-.4-.1-.4-.324,0-.264.048-1.427.048-3.85,0-1.7,0-2.087-.048-2.722,1.176.12,1.283.18,1.283.336,0,.107-.06.179-.4.312Zm2.747,1.571c.012,3.19.06,3.993.06,4.8a.841.841,0,0,1-.408.84,1.321,1.321,0,0,1-.684.215c-.191,0-.275-.059-.3-.251-.037-.336-.373-.552-1.356-.744-.071-.012-.071-.192,0-.18.7.072,1.272.12,1.619.12.156,0,.2-.072.2-.228v-6.74a18.8,18.8,0,0,0-.072-2.519c1.176.132,1.319.18,1.319.348,0,.108-.084.18-.383.312Z" transform="translate(0 0)"/><path class="cls-3" d="M291.76,196.2a10.236,10.236,0,0,1-.287,1.631,5.275,5.275,0,0,1-1.7,2.794c-.061.06-.216-.011-.168-.083a8.068,8.068,0,0,0,1.115-2.843,23.278,23.278,0,0,0,.252-4.27c0-2.086-.025-2.65-.084-3.322a5.243,5.243,0,0,1,1.1.552h6.584c.432-.42.493-.468.577-.468s.143.048.551.4c.18.144.228.216.228.288,0,.1-.048.156-.336.348v2.374c0,4.906.048,5.3.048,5.865a.848.848,0,0,1-.444.876,1.284,1.284,0,0,1-.7.215c-.168,0-.217-.072-.24-.251-.06-.408-.312-.528-1.3-.72-.084-.012-.084-.192,0-.192.719.048,1.115.072,1.511.072.156,0,.227-.072.227-.228V196.2H295.67c.012,1.823.036,3.19.036,3.67,0,.288-.168.4-.563.4-.313,0-.42-.1-.42-.372,0-.168.048-.828.048-2.543V196.2Zm.12-2.687c0,.792-.036,1.595-.1,2.387h2.987V193.51Zm0-2.554v2.254h2.891v-2.254Zm3.79,2.254H298.7v-2.254H295.67Zm3.034.3H295.67V195.9H298.7Z" transform="translate(0 0)"/><path class="cls-3" d="M303.1,191.783c-.012.876-.3,1.559-.911,1.559a.446.446,0,0,1-.445-.455c0-.216.061-.312.384-.492a1.564,1.564,0,0,0,.768-1.355c.011-.072.144-.084.156-.012.023.156.036.312.048.455h3.5v-.923h-2.531a4.018,4.018,0,0,0-.815.072l-.12-.444a6.608,6.608,0,0,0,.924.072h5.732c.516-.576.6-.636.672-.636s.168.06.72.48c.239.192.3.264.3.336s-.048.12-.156.12h-3.91v.923h3.767c.347-.383.407-.431.491-.431s.143.048.647.491c.216.192.264.276.264.348,0,.168-.119.228-.5.228-.12,0-.156.012-.3.18a4.862,4.862,0,0,1-.767.648c-.036.024-.1-.024-.084-.072a8.327,8.327,0,0,0,.347-1.092h-3.862v.54c0,1,.036,1.907.036,2.171s-.179.384-.527.384c-.288,0-.384-.1-.384-.372,0-.144.06-.66.06-1.643v-1.08Zm-.228,2.123a2.671,2.671,0,0,0,.671.072h1.212c.359-.444.443-.5.516-.5s.168.06.575.408c.18.132.228.2.228.276s-.036.12-.156.12H303.58a4.536,4.536,0,0,0-.6.06Zm4.5,5.325c0,.54.144.588,1.919.588,1.655,0,2.027-.036,2.279-.228.216-.192.324-.54.623-1.5.012-.06.157-.024.145.036-.049.408-.084.935-.084,1.055,0,.168.035.2.144.264a.383.383,0,0,1,.227.372c0,.264-.191.456-.575.575a13.169,13.169,0,0,1-3.011.18c-2.062,0-2.507-.2-2.507-1.2,0-.2,0-.42.013-.827h-2.507v.311c0,.276-.156.384-.527.384-.252,0-.36-.1-.36-.288,0-.263.047-.731.047-2.278a16.067,16.067,0,0,0-.071-1.847,7.156,7.156,0,0,1,1.019.455h5.805c.36-.4.419-.443.492-.443s.156.048.576.384c.191.143.227.215.227.287,0,.108-.059.18-.324.36v.66c0,1.259.036,1.859.036,2.038,0,.276-.191.4-.527.4-.264,0-.372-.084-.372-.312v-.107H307.37Zm-4.077-6.548a3.2,3.2,0,0,0,.659.06h.864c.324-.42.419-.48.479-.48s.168.06.576.408c.144.12.2.192.2.264s-.036.108-.156.108h-1.942a3.161,3.161,0,0,0-.577.059Zm.743,2.9v1.152h2.507v-1.152Zm2.507,1.451h-2.507v1.212h2.507Zm.827-.3h2.687v-1.152H307.37Zm2.687,1.511v-1.212H307.37v1.212Zm-2.147-5.565a3.025,3.025,0,0,0,.648.06h.9c.348-.42.443-.48.5-.48s.168.06.564.384c.156.132.2.216.2.288s-.037.108-.145.108h-2a2.952,2.952,0,0,0-.564.059Zm.024,1.223a2.822,2.822,0,0,0,.683.072h1.332c.4-.468.48-.528.552-.528s.167.06.623.42c.18.144.228.216.228.288s-.036.12-.144.12h-2.542a4.652,4.652,0,0,0-.624.06Z" transform="translate(0 0)"/><path class="cls-3" d="M321.829,191.279c.552-.659.648-.707.72-.707s.168.048.743.516c.276.228.324.3.324.371s-.036.121-.156.121h-6.933a7.82,7.82,0,0,1-2.614,2.95c-.072.048-.191-.072-.132-.132a10.729,10.729,0,0,0,2.171-3.538,5.612,5.612,0,0,0,.312-1.14c.912.252,1.26.42,1.26.564s-.121.216-.493.264c-.107.252-.227.5-.347.731Zm-1.643,8.084a.437.437,0,0,1-.408.492c-.215,0-.36-.144-.624-.588a6.816,6.816,0,0,0-.851-1.187,8.988,8.988,0,0,1-4.126,2.363c-.084.023-.144-.133-.071-.168a10.63,10.63,0,0,0,3.645-2.747,15.985,15.985,0,0,0-2.075-1.607c-.06-.036.013-.18.084-.156a15.15,15.15,0,0,1,2.375,1.271,9.566,9.566,0,0,0,.744-1.211,7.99,7.99,0,0,0,.335-.767c.84.335,1.14.527,1.14.683s-.121.228-.5.228a10.867,10.867,0,0,1-1.043,1.547C319.67,198.2,320.186,198.872,320.186,199.363Zm1.212-5.025c.407-.432.467-.48.539-.48s.156.048.551.384c.193.156.229.228.229.3,0,.108-.049.192-.313.36a9.693,9.693,0,0,0,.348,2.674,4.149,4.149,0,0,0,.72,1.355c.144.18.24.276.336.276s.228-.324.6-1.523c.013-.06.157-.024.145.036-.145,1.1-.181,1.547-.181,1.667a.462.462,0,0,0,.168.4.431.431,0,0,1,.132.324.422.422,0,0,1-.443.42,1.3,1.3,0,0,1-.72-.288,4.265,4.265,0,0,1-1.356-1.835,9.374,9.374,0,0,1-.635-3.766H315.88a4.171,4.171,0,0,0-.852.084l-.12-.456a6.354,6.354,0,0,0,.96.072Zm-5.194-1.667a4.622,4.622,0,0,0,.888.084h3.754c.479-.552.575-.624.647-.624s.18.072.684.48c.227.18.288.252.288.324s-.048.12-.168.12h-5.205a4.393,4.393,0,0,0-.768.06Z" transform="translate(0 0)"/><path class="cls-3" d="M328.084,195.765c0,2.831.012,4.15.012,4.558,0,.288-.168.419-.5.419-.24,0-.42-.1-.42-.36,0-.239.036-1.1.06-3.873.011-.744.011-1.488.024-2.231a9.838,9.838,0,0,1-1.6,1.559c-.071.048-.2-.084-.143-.144a12.468,12.468,0,0,0,2.446-4.234,7.519,7.519,0,0,0,.4-1.595c.9.252,1.331.432,1.331.576s-.131.2-.456.24a14.769,14.769,0,0,1-1.415,2.83c.54.1.623.156.623.264,0,.084-.047.156-.359.288Zm1.619-1.871a6.113,6.113,0,0,0-.779.132l-.18-.408c.419.012.743,0,.923-.012l1.7-.144c-.072-.635-.12-1.331-.143-2.1a8.561,8.561,0,0,0-.132-1.451c1.295.18,1.39.216,1.39.36,0,.108-.071.18-.407.324a23.1,23.1,0,0,0,.144,2.782l2.5-.215c.443-.66.5-.708.575-.708.1,0,.168.036.779.432.265.168.3.24.3.323,0,.06-.048.1-.143.109l-3.97.347a11.71,11.71,0,0,0,.5,2.243,5.78,5.78,0,0,0,2.362,3.262.842.842,0,0,0,.408.168c.084,0,.264-.312.768-1.583.023-.06.143-.024.132.036-.168,1.031-.229,1.547-.229,1.655a.3.3,0,0,0,.12.276.509.509,0,0,1,.216.384.447.447,0,0,1-.479.408,3.077,3.077,0,0,1-1.524-.588,6.97,6.97,0,0,1-2.482-3.358,12.632,12.632,0,0,1-.648-2.819Zm4.281-1.943a2.974,2.974,0,0,0-.983-1.283c-.048-.036.013-.132.072-.12,1.1.228,1.824.815,1.824,1.355a.448.448,0,0,1-.409.5C334.273,192.407,334.129,192.311,333.984,191.951Z" transform="translate(0 0)"/><path class="cls-2" d="M279.881,92.992a11.587,11.587,0,0,0,1.74,3.969,11.029,11.029,0,0,0,3.367,3.221,9.9,9.9,0,0,0,2.375,1.089l-.065.228c-.7.033-.943.228-1.382,1.09a12.708,12.708,0,0,1-3.237-2.847,14.6,14.6,0,0,1-3.107-6.75h-.048a11.478,11.478,0,0,1-5.743,8.816,12.619,12.619,0,0,1-1.821.895l-.146-.26a12.831,12.831,0,0,0,4.538-4.018,12.669,12.669,0,0,0,2.033-5.433h-4.538a10.725,10.725,0,0,0-1.448.1l-.114-.651a7.3,7.3,0,0,0,1.659.179h4.49c.081-.992.146-2.424.146-3.367a5.42,5.42,0,0,0-.082-1.009,7.811,7.811,0,0,1,1.888.228c.113.049.179.114.179.2,0,.179-.179.277-.749.472-.1,1.692-.146,2.391-.26,3.481h4.8c.389-.553.52-.716.975-1.285a14.417,14.417,0,0,1,1.627,1.318.428.428,0,0,1,.081.211c0,.065-.1.13-.227.13Zm-1.789,5.433a10.99,10.99,0,0,1,2.375,1.431,1.135,1.135,0,0,1,.553.976,1.781,1.781,0,0,1-.26.879.323.323,0,0,1-.293.211c-.147,0-.179-.016-.472-.553a9.548,9.548,0,0,0-.976-1.545,6.167,6.167,0,0,0-1.074-1.22Z" transform="translate(0 0)"/><path class="cls-2" d="M291.816,99.287c0,.179.032,1.35.081,3.546,0,.228-.147.293-.6.293a1.712,1.712,0,0,0-.325.016h-.017c-.13,0-.195-.081-.211-.211.081-2.359.1-3.384.1-5.5,0-3.221-.049-7.3-.1-9.174a8.4,8.4,0,0,1,1.155.764h1.837a8.054,8.054,0,0,1,.733-.764c.439.374.586.488.975.862.131.13.164.179.164.244,0,.1-.164.179-.586.293-.781,1.333-.927,1.561-1.025,1.724l-1.073,1.724a7.894,7.894,0,0,1,1.366,1.464,3.662,3.662,0,0,1,.618,2.131,3.223,3.223,0,0,1-.488,1.838,2.055,2.055,0,0,1-1.643.846c-.048-.6-.309-.846-.959-.944Zm.016-1.106c.667.065.992.081,1.269.081.406,0,.5-.032.618-.227a2.968,2.968,0,0,0,.244-1.318,4.607,4.607,0,0,0-1.5-3.481,30.53,30.53,0,0,0,1.35-3.839h-1.984Zm10.491-1.009a10.7,10.7,0,0,1-1.382,2.473,11.6,11.6,0,0,1-2.716,2.619,7.647,7.647,0,0,1-1.578.846l-.147-.2a8.146,8.146,0,0,0,2.18-1.773,12.972,12.972,0,0,0,2.586-3.969h-1.318a9.076,9.076,0,0,1-1.529,2.294,9.605,9.605,0,0,1-3.822,2.8l-.162-.179a10.151,10.151,0,0,0,3.057-2.717,6.831,6.831,0,0,0,1.366-2.2h-1.2a11.835,11.835,0,0,1-1.35,1.546,9.413,9.413,0,0,1-2.667,1.968l-.114-.244a7.648,7.648,0,0,0,1.74-1.578,12.524,12.524,0,0,0,2.147-3.318h-1.627c-.162,0-.374.016-.764.032l-.13-.569a8.125,8.125,0,0,0,1.545.163h6.311c.391-.5.521-.651.911-1.106a17.049,17.049,0,0,1,1.383,1.252.237.237,0,0,1,.081.13c0,.065-.049.1-.163.1h-6.376a7.7,7.7,0,0,1-.667,1.252h5.156c.245-.292.326-.39.586-.667a10.173,10.173,0,0,1,.863.667c.113.114.162.179.162.228,0,.163-.179.325-.553.488a13.418,13.418,0,0,1-.781,4.083c-.374.943-.813,1.236-2.033,1.35a1.045,1.045,0,0,0-.439-.781,2.222,2.222,0,0,0-.651-.228l-.374-.081c-.114-.033-.244-.065-.358-.1v-.244c1.057.1,1.789.147,2.407.147.309,0,.44-.163.667-.9a13.982,13.982,0,0,0,.5-3.595Zm-4.847-3.025c-.016.179-.114.211-.553.228-.13,0-.211.016-.26.016h-.049c-.179,0-.244-.065-.244-.244.032-1.025.049-1.757.049-4.148,0-.407-.017-.992-.049-1.74a6.693,6.693,0,0,1,1.252.764h3.823c.26-.341.341-.439.618-.764a11.5,11.5,0,0,1,.992.7c.1.1.131.146.131.2,0,.1-.082.163-.489.423v1.139c.017,2.131.017,2.131.049,3.2v.065c0,.179-.114.212-.878.212-.146,0-.212-.049-.228-.179V93.61h-4.164Zm4.164-4.75h-4.164v1.627h4.164Zm-4.164,2v1.838h4.164V91.4Z" transform="translate(0 0)"/><path class="cls-2" d="M319.967,94.261c.488-.6.65-.781,1.122-1.35.749.618.96.8,1.676,1.447a.847.847,0,0,1,.065.147c0,.081-.082.13-.195.13h-5.449v6.393c0,.39.016.39,1.691.39,1.691,0,1.789-.016,1.984-.326a24.925,24.925,0,0,0,.977-3.171l.243.016-.211,2.7-.032.293c0,.162.1.26.341.358s.342.211.342.423c0,.26-.2.439-.553.553a17.025,17.025,0,0,1-2.733.13c-2.017,0-2.472-.033-2.782-.212-.26-.146-.357-.406-.389-.943,0-.992,0-.992.015-2.944v-3.66H314.03a13.357,13.357,0,0,1-.179,1.838,7.523,7.523,0,0,1-2.652,4.847,9.059,9.059,0,0,1-2.732,1.48l-.13-.26a8.59,8.59,0,0,0,2.57-1.936c1.269-1.4,1.789-2.992,1.951-5.969h-3.805a5.761,5.761,0,0,0-.928.081l-.113-.634a8.952,8.952,0,0,0,1.838.179h4.782v-4a11.307,11.307,0,0,0-.1-1.854c1.708.179,2,.244,2,.439,0,.147-.212.26-.732.358v5.059ZM310.256,89.2a19.8,19.8,0,0,1,2.018,1.936,1.984,1.984,0,0,1,.6,1.2c0,.553-.391,1.22-.7,1.22-.179,0-.244-.114-.374-.6a11.006,11.006,0,0,0-1.774-3.595Zm6.8,4.652a21.223,21.223,0,0,0,2.277-4.6c1.74.634,1.838.683,1.838.846,0,.179-.31.276-.862.276a31.931,31.931,0,0,1-3.026,3.66Z" transform="translate(0 0)"/><path class="cls-2" d="M332.113,88.877c.293-.39.375-.5.684-.862.455.325.586.439.992.764.081.082.163.179.163.244a.222.222,0,0,1-.082.1c-.015.016-.162.081-.423.211a11.054,11.054,0,0,0,1.253,1.725,14.807,14.807,0,0,0,1.562-2.668,5.462,5.462,0,0,1,1.3.65c.1.082.146.131.146.179a.164.164,0,0,1-.1.131,1.173,1.173,0,0,1-.276.032,2.84,2.84,0,0,0-.325.016c-.406.342-.406.342-1.74,1.513-.049.049-.1.081-.391.325a9.621,9.621,0,0,0,1.529,1.334,13.227,13.227,0,0,0,1.838-2.635c.488.228,1.073.5,1.269.618.1.065.146.114.146.179,0,.13-.049.147-.7.2a16.433,16.433,0,0,1-2.343,1.79,12.436,12.436,0,0,0,4.2,1.772l-.016.114c-.6.131-.667.179-1.22,1.041a15.128,15.128,0,0,1-3.432-2.309,12.539,12.539,0,0,1-2.994-3.92,16.219,16.219,0,0,1-7.449,6.571l-.114-.211a16.217,16.217,0,0,0,3.855-3.042,14.515,14.515,0,0,0,2.522-3.481h-3.059c-.081,0-.455.032-1.138.081l-.13-.536c.293.032,1.024.081,1.268.081Zm-1.512,8.6c.065-.911.082-1.2.082-2.781h-.391a11.408,11.408,0,0,0-1.155.081l-.081-.569a8.487,8.487,0,0,0,1.3.114h4.407c.293-.407.39-.537.716-.927.6.472.781.618,1.35,1.106a.2.2,0,0,1,.065.114c0,.048-.049.081-.163.081h-1.626v2.781h2.423c.391-.455.5-.6.9-1.041.635.5.83.667,1.48,1.237a.239.239,0,0,1,.065.1c0,.049-.049.082-.162.082h-4.7l.016,3.432c0,.2.065.309.211.325a5.734,5.734,0,0,0,.879.049c1.626,0,1.9-.033,2.065-.2a9.269,9.269,0,0,0,.748-2.424l.229.033-.065,2.082a.71.71,0,0,0,.048.276c.033.081.033.081.277.114a.586.586,0,0,1,.358.423c0,.228-.244.455-.537.52a26.559,26.559,0,0,1-3.155.163c-1.188,0-1.5-.032-1.757-.179-.229-.13-.325-.374-.325-.83V97.856h-2.49c-.406,2.862-2,4.359-5.595,5.221l-.1-.244a6.981,6.981,0,0,0,3.692-2.456,5.217,5.217,0,0,0,.944-2.521h-2.928c-.016,0-.438.032-1.252.1l-.114-.585c.423.048,1.236.113,1.627.113Zm-3.871-7.612a9.683,9.683,0,0,1,2,.878c.471.293.6.472.6.83,0,.553-.179.96-.423.96-.113,0-.195-.082-.308-.277a4.684,4.684,0,0,0-.6-.911,5.882,5.882,0,0,0-1.366-1.317Zm7.369,7.612V94.7h-2.36a27.486,27.486,0,0,1-.1,2.781Z" transform="translate(0 0)"/><path class="cls-2" d="M350.148,89.218h-3.041c-.619.017-.619.017-1.009.033a2.921,2.921,0,0,0-.651.049l-.114-.618a13.315,13.315,0,0,0,1.774.162h7.253c.408-.472.538-.6.96-1.041.635.505.814.667,1.448,1.2a.239.239,0,0,1,.065.1c0,.066-.081.114-.179.114H351.3v1.334h5.042q.318-.342.683-.683a13.743,13.743,0,0,1,1.334,1.025c.13.13.179.195.179.26a.214.214,0,0,1-.1.146.679.679,0,0,1-.293.065c-.276.033-.455.049-.569.066-.146.162-.26.292-.341.374a5.972,5.972,0,0,1-1.008.959l-.115-.081a15.244,15.244,0,0,0,.489-1.757h-5.3v1.22c.016.748.016,1.3.016,1.676,0,.487,0,.487.016.911-.016.276-.244.357-.959.357-.18,0-.228-.032-.277-.162.016-.472.016-.472.049-2.619V90.926h-4.6a4.751,4.751,0,0,1-.342,1.448c-.212.472-.683.943-.96.943-.293,0-.5-.406-.5-.959,0-.179.016-.212.147-.293a2.862,2.862,0,0,0,1.447-2.31h.244v.8h4.571Zm-5.059,4.636a7.969,7.969,0,0,0,1.464.13h1.269c.326-.358.423-.471.781-.829a14.505,14.505,0,0,1,1.089.976.237.237,0,0,1,.082.13c0,.065-.049.1-.13.1h-3.091a12,12,0,0,0-1.318.049Zm6.084,7.58c0,.228.016.26.081.309.1.049.13.049.488.065.114,0,2.1.049,2.131.049.992,0,2.359-.033,2.521-.065.212-.049.277-.114.422-.39a7.8,7.8,0,0,0,.472-1.22c.293-.83.456-1.3.5-1.415h.195l-.276,2.569v.212c0,.146.016.163.276.26a.4.4,0,0,1,.26.358.5.5,0,0,1-.357.472,20.5,20.5,0,0,1-3.969.195,14.486,14.486,0,0,1-3.189-.163c-.422-.162-.585-.488-.585-1.236v-1.35h-3.6v.716a.285.285,0,0,1-.162.228,3.658,3.658,0,0,1-.684.064c-.179,0-.26-.064-.276-.227.081-2.066.081-2.18.081-2.587,0-.992-.049-2.8-.081-3.285a10.217,10.217,0,0,1,1.253.667h8.2c.293-.309.374-.407.667-.684a8.154,8.154,0,0,1,.992.716c.1.082.131.13.131.212,0,.114-.1.2-.586.455v.992c0,.586,0,.911.032,3.123a.257.257,0,0,1-.146.212,2.738,2.738,0,0,1-.732.1c-.146,0-.212-.048-.227-.179v-.52h-3.839Zm-5.53-9.239a7.047,7.047,0,0,0,1.187.114h1.089l.667-.781a14.2,14.2,0,0,1,1.123.944.288.288,0,0,1,.049.113c0,.049-.066.1-.147.1H346.83a7.875,7.875,0,0,0-1.09.049Zm4.505,3.823h-3.6v1.594h3.6Zm0,1.968h-3.6V99.71h3.6Zm4.864-.374V96.018h-3.839v1.594Zm0,2.1V97.986h-3.839V99.71ZM351.758,92.2a5.271,5.271,0,0,0,1.334.114h1.122c.277-.342.358-.456.651-.8l1.09.96a.453.453,0,0,1,.065.113c0,.066-.065.1-.162.1h-2.766c-.455,0-.683,0-1.22.033Zm0,1.676a6.48,6.48,0,0,0,1.529.113h1.529c.326-.374.423-.471.765-.829a11.908,11.908,0,0,1,1.2,1.008.187.187,0,0,1,.049.1c0,.048-.065.1-.13.1h-3.416a10.64,10.64,0,0,0-1.415.082Z" transform="translate(0 0)"/><path class="cls-2" d="M368.264,101.467a7.4,7.4,0,0,0,3.805-2.261,5.786,5.786,0,0,0,1.449-3.92,4.036,4.036,0,0,0-1.838-3.595,5.368,5.368,0,0,0-2.815-.748,3.808,3.808,0,0,0-.569.032,2.119,2.119,0,0,1,.5,1.35,13.348,13.348,0,0,1-2.148,5.628c-1.024,1.627-1.822,2.424-2.423,2.424a.941.941,0,0,1-.716-.342,3.165,3.165,0,0,1-.455-1.041,10.172,10.172,0,0,0-.716-1.529,3.111,3.111,0,0,1-.374-1.48,5.085,5.085,0,0,1,1.464-3.221,7.886,7.886,0,0,1,5.6-2.277,6.18,6.18,0,0,1,4.2,1.5,4.963,4.963,0,0,1,1.561,3.822,5.605,5.605,0,0,1-3.237,4.929,9.706,9.706,0,0,1-3.172,1.008Zm-5.352-5.059a3.8,3.8,0,0,0,.651,2.147c.227.293.439.472.618.472.358,0,1.138-.879,1.935-2.147a12.578,12.578,0,0,0,2.067-5.027,1.81,1.81,0,0,0-.229-.813C365.124,91.544,362.912,93.9,362.912,96.408Z" transform="translate(0 0)"/><path class="cls-2" d="M390.934,94.619c.341-.326.455-.423.8-.716.52.39.683.521,1.2.976.131.114.179.179.179.228,0,.13-.13.179-.943.309a19.716,19.716,0,0,1-2.018,1.5l-.162-.146a9.062,9.062,0,0,0,.993-1.773h-10.7a3.637,3.637,0,0,1-.569,1.805c-.261.407-.586.683-.829.683-.1,0-.195-.081-.277-.227a2.089,2.089,0,0,1-.211-.716c0-.163.1-.293.357-.455a2.887,2.887,0,0,0,1.3-2.326h.227a5.01,5.01,0,0,1,.033.634,1.457,1.457,0,0,1-.016.228Zm-12.526,8.1a8.076,8.076,0,0,0,3.157-1.887,6.01,6.01,0,0,0,1.4-4.164c0-.146,0-.406-.016-.715,1.773.26,1.822.276,1.822.422,0,.114-.13.212-.586.374a7.108,7.108,0,0,1-.764,3.156,5.923,5.923,0,0,1-2.993,2.456,9.551,9.551,0,0,1-1.92.6Zm11.761-12.574c.455-.52.6-.666,1.058-1.138.682.521.894.7,1.561,1.269a.286.286,0,0,1,.081.13l-.016.016a.131.131,0,0,1-.147.1h-6.652V92.7h3.269c.455-.455.585-.6,1.041-1.025.634.472.814.635,1.415,1.139.1.065.13.13.13.163,0,.065-.064.1-.195.1H381.386a7.663,7.663,0,0,0-1.123.1l-.1-.6a5.041,5.041,0,0,0,1.236.13h3.563V90.52h-4.8a3.894,3.894,0,0,0-1.22.13l-.1-.634a6.188,6.188,0,0,0,1.334.129h4.782v-.39c0-.39-.017-.716-.081-1.675.325.032.6.065.764.081.878.1,1.138.163,1.138.326,0,.13-.211.26-.731.39v1.268Zm-3.709,7.4c0-.96,0-1.058-.032-1.594,1.415.162,1.757.227,1.757.406,0,.13-.13.2-.619.374v4.2c0,.309.033.374.2.423a16.4,16.4,0,0,0,1.757.081c.552,0,1.528-.032,1.642-.049.163-.016.163-.016.391-.585a20.294,20.294,0,0,0,.682-2.391l.277.016-.179,2.505a.723.723,0,0,0-.016.146c0,.13.082.2.244.244.341.114.456.212.456.456s-.179.406-.521.471a23.48,23.48,0,0,1-2.651.13,22.078,22.078,0,0,1-2.749-.1c-.44-.1-.618-.358-.651-.927.016-1.188.016-1.285.016-1.578Z" transform="translate(0 0)"/><path class="cls-2" d="M402.69,89.218h-3.041c-.619.017-.619.017-1.009.033a2.921,2.921,0,0,0-.651.049l-.114-.618a13.315,13.315,0,0,0,1.774.162H406.9c.408-.472.538-.6.96-1.041.635.505.814.667,1.448,1.2a.239.239,0,0,1,.065.1c0,.066-.081.114-.179.114h-5.351v1.334h5.042q.318-.342.683-.683a13.743,13.743,0,0,1,1.334,1.025c.13.13.179.195.179.26a.214.214,0,0,1-.1.146.679.679,0,0,1-.293.065c-.276.033-.455.049-.569.066-.146.162-.26.292-.342.374a5.933,5.933,0,0,1-1.007.959l-.115-.081a15.244,15.244,0,0,0,.489-1.757h-5.3v1.22c.016.748.016,1.3.016,1.676,0,.487,0,.487.016.911-.016.276-.244.357-.959.357-.18,0-.228-.032-.277-.162.016-.472.016-.472.049-2.619V90.926h-4.6a4.751,4.751,0,0,1-.342,1.448c-.212.472-.683.943-.96.943-.293,0-.5-.406-.5-.959,0-.179.016-.212.147-.293a2.862,2.862,0,0,0,1.447-2.31h.244v.8h4.571Zm-5.059,4.636a7.969,7.969,0,0,0,1.464.13h1.269c.326-.358.423-.471.781-.829a14.505,14.505,0,0,1,1.089.976.237.237,0,0,1,.082.13c0,.065-.049.1-.13.1H399.1a12,12,0,0,0-1.318.049Zm6.084,7.58c0,.228.016.26.081.309.1.049.13.049.488.065.114,0,2.1.049,2.131.049.992,0,2.359-.033,2.521-.065.212-.049.277-.114.422-.39a7.8,7.8,0,0,0,.472-1.22c.293-.83.456-1.3.5-1.415h.195l-.276,2.569v.212c0,.146.016.163.276.26a.4.4,0,0,1,.26.358.5.5,0,0,1-.357.472,20.5,20.5,0,0,1-3.969.195,14.486,14.486,0,0,1-3.189-.163c-.422-.162-.585-.488-.585-1.236v-1.35H399.1v.716a.285.285,0,0,1-.162.228,3.658,3.658,0,0,1-.684.064c-.179,0-.26-.064-.276-.227.081-2.066.081-2.18.081-2.587,0-.992-.049-2.8-.081-3.285a10.217,10.217,0,0,1,1.253.667h8.2c.293-.309.374-.407.667-.684a8.154,8.154,0,0,1,.992.716c.1.082.131.13.131.212,0,.114-.1.2-.586.455v.992c0,.586,0,.911.032,3.123a.257.257,0,0,1-.146.212,2.738,2.738,0,0,1-.732.1c-.146,0-.212-.048-.227-.179v-.52h-3.839Zm-5.53-9.239a7.046,7.046,0,0,0,1.186.114h1.09l.667-.781a14.2,14.2,0,0,1,1.123.944.288.288,0,0,1,.049.113c0,.049-.066.1-.147.1h-2.782a7.867,7.867,0,0,0-1.089.049Zm4.5,3.823H399.1v1.594h3.595Zm0,1.968H399.1V99.71h3.595Zm4.864-.374V96.018h-3.839v1.594Zm0,2.1V97.986h-3.839V99.71ZM404.3,92.2a5.271,5.271,0,0,0,1.334.114h1.122c.277-.342.358-.456.651-.8l1.09.96a.453.453,0,0,1,.065.113c0,.066-.065.1-.162.1h-2.766c-.455,0-.683,0-1.22.033Zm0,1.676a6.48,6.48,0,0,0,1.529.113h1.529c.326-.374.423-.471.765-.829a11.908,11.908,0,0,1,1.2,1.008.187.187,0,0,1,.049.1c0,.048-.065.1-.13.1h-3.416a10.64,10.64,0,0,0-1.415.082Z" transform="translate(0 0)"/><path class="cls-2" d="M416.511,98.7c.781-.195,1.35-.341,2.326-.65l.017-3.465c0-3.221-.034-5.677-.1-6.36,1.464.244,1.821.342,1.821.488,0,.114,0,.114-.682.374.015,8.589.015,11.549.064,13.6-.016.147-.049.2-.145.245a3.853,3.853,0,0,1-.831.113c-.146,0-.21-.048-.21-.195.047-1.236.047-1.236.064-4.424a28.124,28.124,0,0,1-3.773,1.805c-.1.472-.164.619-.293.619-.147,0-.163-.049-.83-1.692a8.542,8.542,0,0,0,1.529-.244V94.245A22.671,22.671,0,0,0,415.323,90c1.449.244,1.855.374,1.855.537,0,.114-.065.163-.667.342Zm12.72,2.9c-.537.032-.878.309-1.22,1.008a14.572,14.572,0,0,1-3.513-3.481,12.752,12.752,0,0,1-4.148,3.66l-.162-.2a16.244,16.244,0,0,0,3.79-4.245,19.742,19.742,0,0,1-2.538-8.052,4.086,4.086,0,0,0-.944.114l-.146-.635a9.946,9.946,0,0,0,1.448.114h4.814a9.213,9.213,0,0,1,.6-.764c.52.407.684.537,1.171.959.1.1.131.147.131.2,0,.1-.18.211-.652.423a22.672,22.672,0,0,1-2.764,7.579,10.722,10.722,0,0,0,4.164,3.156Zm-7.369-11.338a15.512,15.512,0,0,0,.554,2.717,16.336,16.336,0,0,0,2.066,4.489,22.794,22.794,0,0,0,2.13-7.206Z" transform="translate(0 0)"/><path class="cls-2" d="M435.244,89.528a7.778,7.778,0,0,0,1.481.162h2.245c.26-.358.341-.472.634-.829.422.357.553.471.96.829.129.114.178.179.178.212,0,.13-.081.162-1.073.6a11.7,11.7,0,0,0,.927,4.376,12.138,12.138,0,0,0,3.53,4.652,8.924,8.924,0,0,0,2.928,1.48l-.017.179c-.862.179-1.122.39-1.366,1.187a10.3,10.3,0,0,1-3.709-3.448,14.35,14.35,0,0,1-2.179-5.384A12.647,12.647,0,0,1,437,98.978a11.289,11.289,0,0,1-4.814,3.53l-.13-.228a11.861,11.861,0,0,0,3.431-2.944,15.9,15.9,0,0,0,2.961-5.514,12.743,12.743,0,0,0,.683-3.758H436.66c-.212,0-.309,0-1.318.081Z" transform="translate(0 0)"/><path class="cls-2" d="M275.807,108.18a11.677,11.677,0,0,0-1.021,1.552,6.609,6.609,0,0,0-.745,3.256,6.694,6.694,0,0,0,.745,3.247,11.739,11.739,0,0,0,1.021,1.551l-.154.153a5.425,5.425,0,0,1-1.265-1.378,6.348,6.348,0,0,1-1.1-3.563,6.425,6.425,0,0,1,2.368-4.971Z" transform="translate(0 0)"/><path class="cls-2" d="M283.009,114.693c0,1.225-.99,2-2.553,2-1.511,0-2.47-.735-2.47-1.889a1.908,1.908,0,0,1,.766-1.48,4.3,4.3,0,0,1,.98-.5,5.04,5.04,0,0,1-.909-.541,1.458,1.458,0,0,1-.541-1.235,1.9,1.9,0,0,1,.388-1.184,2.506,2.506,0,0,1,1.889-.735,2.242,2.242,0,0,1,1.868.826,1.655,1.655,0,0,1,.286.991,1.422,1.422,0,0,1-.593,1.194,2.39,2.39,0,0,1-.929.459C282.427,113.09,283.009,113.764,283.009,114.693Zm-3.665-1.286a1.72,1.72,0,0,0-.592,1.327,1.638,1.638,0,0,0,1.776,1.684,1.512,1.512,0,0,0,1.663-1.511,1.4,1.4,0,0,0-.754-1.214,6.394,6.394,0,0,0-.94-.511l-.408-.184A1.791,1.791,0,0,0,279.344,113.407Zm2.634-2.44a1.413,1.413,0,0,0-1.522-1.562,1.3,1.3,0,0,0-1.408,1.358c0,.541.225.868.847,1.225.132.071.132.071.725.337.071.041.173.081.3.153A1.536,1.536,0,0,0,281.978,110.967Z" transform="translate(0 0)"/><path class="cls-2" d="M285.394,117.705c.541-.317.786-.623.786-.991,0-.122-.041-.163-.195-.2-.438-.1-.6-.275-.6-.612a.656.656,0,0,1,.683-.674c.48,0,.787.367.787.939a1.973,1.973,0,0,1-.44,1.194,2.248,2.248,0,0,1-.816.6Z" transform="translate(0 0)"/><path class="cls-2" d="M289.251,116.53a4.217,4.217,0,0,1,.755-1.99,9.978,9.978,0,0,1,2.134-2.042,3.171,3.171,0,0,0,.775-.8,1.682,1.682,0,0,0,.225-.857,1.343,1.343,0,0,0-1.388-1.44,1.186,1.186,0,0,0-1.215.8,2.747,2.747,0,0,0-.1.746c-.021.347-.133.439-.491.439-.377,0-.52-.123-.52-.419,0-1.051,1.021-1.837,2.389-1.837a2.453,2.453,0,0,1,1.96.765,1.653,1.653,0,0,1,.327,1.082c0,.848-.378,1.368-1.511,2.062a9.486,9.486,0,0,0-2,1.429,2.907,2.907,0,0,0-.837,1.3h2.95c.735,0,.99-.225,1.195-1.082l.305.071-.275,1.776Z" transform="translate(0 0)"/><path class="cls-2" d="M297.118,112.764a2.345,2.345,0,0,1,1.807-.735,2.132,2.132,0,0,1,2.246,2.286,2.328,2.328,0,0,1-2.593,2.369c-1.194,0-2.184-.6-2.184-1.317,0-.3.183-.449.551-.449.327,0,.418.081.439.418a1.112,1.112,0,0,0,1.224,1.072c.97,0,1.614-.807,1.614-2.021a2.744,2.744,0,0,0-.367-1.46,1.351,1.351,0,0,0-1.154-.582,1.954,1.954,0,0,0-1.725,1.184l-.317-.041.337-4.2h3.859l-.143.8h-3.379Z" transform="translate(0 0)"/><path class="cls-2" d="M304.6,115.255c0,.949.051,1.031.734,1.051v.224h-2.276v-.224c.674-.02.724-.1.724-1.051v-4.972c0-.868-.04-.919-.724-.929v-.224l1.6-.082c-.04.684-.06,1.511-.06,2.042v3.236l1.6-1.756a1.123,1.123,0,0,0,.358-.633c0-.214-.2-.317-.644-.337v-.225h2.256v.225a1.472,1.472,0,0,0-.684.225,3.7,3.7,0,0,0-1,.908l-.53.572,1.429,2.245c.348.552.52.685.97.756v.224h-1.388c-.1-.214-.429-.8-.531-.98l-1.041-1.694-.8.888Z" transform="translate(0 0)"/><path class="cls-2" d="M312.7,116.571h-.653l-1.5-6.114a1.756,1.756,0,0,0-.4-.9c-.113-.1-.256-.143-.6-.173v-.255h2.634v.255a1.205,1.205,0,0,0-.572.092.412.412,0,0,0-.235.4,2.947,2.947,0,0,0,.144.755l1.142,4.808,1.807-6.227h.653l1.675,6.156,1.184-4.461a4.122,4.122,0,0,0,.153-.919.527.527,0,0,0-.367-.541,1.663,1.663,0,0,0-.5-.061v-.255h2.327v.255c-.653.061-.868.326-1.185,1.47l-1.582,5.716h-.582l-1.694-6.257Z" transform="translate(0 0)"/><path class="cls-2" d="M321.372,117.786a7.411,7.411,0,0,0,0-9.606l.153-.153a6.333,6.333,0,0,1,2.369,4.941,6.423,6.423,0,0,1-2.369,4.971Z" transform="translate(0 0)"/><path class="cls-2" d="M436.857,132.272l-.265.264-4.169-4.159-4.148,4.159-.264-.264,4.147-4.159-4.125-4.125.264-.264,4.126,4.125,4.125-4.125.265.264-4.126,4.125Zm-6.216-4.159a.991.991,0,1,1-.991-.99A1,1,0,0,1,430.641,128.113Zm2.76-2.761a.99.99,0,1,1-.99-.99A1,1,0,0,1,433.4,125.352Zm0,5.523a.99.99,0,1,1-.99-.99A1,1,0,0,1,433.4,130.875Zm2.762-2.762a.99.99,0,1,1-.99-.99A1,1,0,0,1,436.163,128.113Z" transform="translate(0 0)"/><path class="cls-2" d="M439.143,125.308c-.11.033-.154.022-.2-.121s-.021-.154.111-.2a17.357,17.357,0,0,0,2.123-.946c.11,0,.177.066.177.132-.012.869-.044,1.5-.044,2.387v3.378c0,1.089.01,1.221.12,1.441s.528.231.979.275c.077.011.1.044.1.165s-.022.154-.1.154c-.484-.022-1.078-.044-1.54-.044-.528,0-1.067.022-1.584.044-.088,0-.11-.022-.11-.154s.033-.154.11-.165c.44-.033.825-.044.957-.275a4.1,4.1,0,0,0,.121-1.441v-3.895a1.728,1.728,0,0,0-.121-.814.313.313,0,0,0-.286-.132,1.293,1.293,0,0,0-.4.077Z" transform="translate(0 0)"/><path class="cls-2" d="M344.124,231.559h6.58v2.352h-6.58Z" transform="translate(0 0)"/><path class="cls-2" d="M356.136,240.127a3.933,3.933,0,0,0,2.1-.336c.644-.336.84-1.064.84-2.856v-12.88a7.931,7.931,0,0,0-.084-1.68c-.112-.616-.475-.756-1.9-.756h-.756v-.784c2.66-.224,4.7-.5,6.552-.84q-.252,2.982-.252,7.056v9.884c0,1.708.168,2.408.672,2.8.392.308.728.364,2.156.392v.784h-9.324Z" transform="translate(0 0)"/><path class="cls-2" d="M373.385,238.979a2.367,2.367,0,1,1-4.733,0,2.367,2.367,0,0,1,4.733,0Z" transform="translate(0 0)"/><path class="cls-2" d="M385.173,227.751c3.752,0,6.271,2.6,6.271,6.468a6.774,6.774,0,0,1-7.195,7.14c-4.761,0-7.336-3.5-7.336-10,0-3.78.783-6.86,2.212-8.764a6.611,6.611,0,0,1,5.684-2.66c3.387,0,5.935,1.512,5.935,3.528,0,1.008-.756,1.624-2.015,1.624a1.957,1.957,0,0,1-1.54-.532c-.168-.224-.168-.308-.252-1.456-.084-1.6-.9-2.464-2.212-2.464-1.708,0-2.912,1.288-3.5,3.7a24.312,24.312,0,0,0-.588,5.32A5.9,5.9,0,0,1,385.173,227.751Zm-4.032,2.884a5.375,5.375,0,0,0-.56,2.8,13.372,13.372,0,0,0,.9,5.1,3.164,3.164,0,0,0,2.828,2.128c2.128,0,3.416-2.38,3.416-6.356,0-3.472-1.317-5.628-3.472-5.628A3.638,3.638,0,0,0,381.141,230.635Z" transform="translate(0 0)"/><path class="cls-2" d="M400.13,227.787a29.152,29.152,0,0,1-.24,3.473H404c.432-.448.56-.592.977-1.041.671.449.879.593,1.488,1.041.143.112.192.176.192.24,0,.144-.144.256-.625.512a36.306,36.306,0,0,1-.528,5.186c-.352,1.921-.784,2.673-1.744,3.009a5.464,5.464,0,0,1-1.473.24c-.144,0-.208-.064-.224-.256a1.283,1.283,0,0,0-.672-1.12,10.143,10.143,0,0,0-2.322-.7l.033-.193c1.537.129,3.009.225,3.6.225.416,0,.544-.112.7-.577a25.286,25.286,0,0,0,.769-6.226h-4.322a11.02,11.02,0,0,1-6.451,9.124l-.095-.161a11.538,11.538,0,0,0,2.56-2.849,13.684,13.684,0,0,0,2.1-6.242,27.752,27.752,0,0,0,.191-3.681H395.28a12.123,12.123,0,0,0-1.713.095l-.112-.592a8.908,8.908,0,0,0,1.825.16h9.4c.544-.64.721-.832,1.3-1.456.9.656,1.184.864,2.064,1.536.065.08.1.113.1.16s-.065.1-.16.1Z" transform="translate(0 0)"/><path class="cls-2" d="M412.433,236.622c0,.624,0,.832.032,3.361,0,.256-.048.385-.16.449a2.388,2.388,0,0,1-1.04.176c-.609,0-.721-.08-.737-.5.08-2.289.1-3.841.1-7.907,0-4.226-.016-4.882-.08-5.97.944.448,1.217.576,2.146,1.04h8.546c.385-.448.513-.576.929-1.04.624.48.817.624,1.425,1.136.176.16.224.24.224.3-.016.16-.016.177-.592.5v6.738c.015,2.93.015,2.93.015,3.922a1.293,1.293,0,0,1-.816,1.36,5.3,5.3,0,0,1-1.648.353c-.145,0-.193-.048-.208-.209a1.239,1.239,0,0,0-.256-.736,1.777,1.777,0,0,0-1.074-.608c-.24-.064-.319-.08-1.343-.3v-.224c1.343.1,1.471.1,3.2.176h.08c.16,0,.224-.064.224-.24v-5.138h-8.964Zm3.521-9.012h-3.521v5.314h3.521Zm5.443,5.314V227.61h-3.65v5.314Z" transform="translate(0 0)"/><path class="cls-2" d="M429.953,227.178h.96l-5.33,14.806h-.96Z" transform="translate(0 0)"/><path class="cls-2" d="M436.241,234.637a8.49,8.49,0,0,1-1.68,4.13,8.922,8.922,0,0,1-2.226,2.033l-.111-.128a9.787,9.787,0,0,0,2-4.482,28.306,28.306,0,0,0,.352-5.763c0-2.128-.015-3.057-.1-4.449a24.084,24.084,0,0,1,2.224,1.088h5.266c.4-.464.512-.592.944-1.04.641.432.817.576,1.425,1.008.16.128.225.208.225.288,0,.144-.145.256-.593.48v5.523c0,1.5.016,3.153.064,5.346a1.683,1.683,0,0,1-.208,1.04,2.492,2.492,0,0,1-1.7.817,2.552,2.552,0,0,1-.528.063c-.176,0-.208-.047-.24-.288a1.266,1.266,0,0,0-.865-1.072,10.116,10.116,0,0,0-2.192-.576l.015-.208c1.345.08,1.633.1,3.442.144.272,0,.337-.048.337-.272v-3.682ZM442.1,231h-5.667a31.646,31.646,0,0,1-.144,3.3H442.1Zm0-3.6h-5.635c0,1.185,0,1.185-.016,3.266H442.1Z" transform="translate(0 0)"/><path class="cls-2" d="M370.148,294.081c0,3.767.589,4.4,4.084,4.447V299.8h-13.66v-1.225c2.133-.091,2.633-.182,3.177-.635.681-.5.953-1.68.953-3.858v-3.222H350.045v-2.178l15.883-22.554h4.22v22.69H375v2.042h-4.855ZM364.7,270.847l-12.615,17.97H364.7Z" transform="translate(0 0)"/><path class="cls-2" d="M389.371,290.094h4.511c.814-.88,1.057-1.166,1.826-2.046,1.166.88,1.54,1.188,2.751,2.2.088.066.132.132.132.176,0,.066-.088.132-.176.132h-9.044v2.685c.044,4.246.067,6.689.111,7.283v.154c0,.44-.529.616-1.915.616-.682,0-.9-.132-.9-.506v-.176c.132-2.948.176-5,.176-7.349v-2.707h-6.293c-.638,0-1.386.044-2.046.11l-.154-.77a14.976,14.976,0,0,0,2.2.2h6.293V284.9a59.5,59.5,0,0,1-7.327.616l-.044-.242a62.839,62.839,0,0,0,8.911-2.333,15.222,15.222,0,0,0,4.312-2.024c2.62,1.628,2.95,1.87,2.95,2.134,0,.154-.177.242-.463.242a5.8,5.8,0,0,1-.792-.11,35.843,35.843,0,0,1-5.017,1.3Z" transform="translate(0 0)"/><path class="cls-2" d="M403.956,295.6c0,.858,0,1.144.044,4.621,0,.352-.065.528-.22.616a3.277,3.277,0,0,1-1.429.242c-.837,0-.991-.11-1.013-.682.11-3.147.132-5.281.132-10.87,0-5.809-.022-6.711-.11-8.207,1.3.616,1.672.792,2.949,1.43h11.75c.527-.616.7-.792,1.275-1.43.858.66,1.123.858,1.959,1.562.242.22.308.33.308.418-.022.22-.022.242-.815.682v9.264c.023,4.026.023,4.026.023,5.391a1.778,1.778,0,0,1-1.122,1.87,7.338,7.338,0,0,1-2.267.484c-.2,0-.264-.066-.286-.286a1.685,1.685,0,0,0-.352-1.012,2.44,2.44,0,0,0-1.474-.837c-.33-.087-.44-.109-1.848-.417v-.309c1.848.132,2.023.132,4.4.243h.11c.221,0,.308-.089.308-.33v-7.063H403.956Zm4.841-12.388h-4.841v7.305H408.8Zm7.481,7.305v-7.305h-5.016v7.305Z" transform="translate(0 0)"/><path class="cls-2" d="M427.607,282.613h1.32L421.6,302.966h-1.321Z" transform="translate(0 0)"/><path class="cls-2" d="M435.813,292.867a11.656,11.656,0,0,1-2.311,5.676,12.154,12.154,0,0,1-3.059,2.8l-.153-.176A13.431,13.431,0,0,0,433.04,295a38.866,38.866,0,0,0,.485-7.921c0-2.927-.023-4.2-.132-6.117a33.194,33.194,0,0,1,3.058,1.5h7.239c.55-.638.7-.814,1.3-1.43.88.594,1.122.792,1.958,1.386.22.176.308.286.308.4,0,.2-.2.352-.813.66v7.591c0,2.069.021,4.335.087,7.35a2.315,2.315,0,0,1-.286,1.43,3.42,3.42,0,0,1-2.332,1.122,3.528,3.528,0,0,1-.726.088c-.243,0-.286-.066-.33-.4a1.741,1.741,0,0,0-1.189-1.474,13.9,13.9,0,0,0-3.014-.792l.022-.287c1.849.111,2.244.133,4.73.2.374,0,.463-.065.463-.374v-5.06Zm8.053-5h-7.79a43.157,43.157,0,0,1-.2,4.533h7.987Zm0-4.951h-7.745c0,1.628,0,1.628-.022,4.489h7.767Z" transform="translate(0 0)"/><path class="cls-2" d="M289.4,228.953c.482-.632.615-.831,1.08-1.413.748.665.98.864,1.695,1.546a.226.226,0,0,1,.083.149c0,.05-.083.1-.183.1h-5.816v7.212h4.32c.5-.632.665-.815,1.18-1.4.748.664.98.864,1.679,1.512a.378.378,0,0,1,.066.149c0,.05-.083.117-.166.117H279.94a5.514,5.514,0,0,0-1.479.133l-.133-.648a8.613,8.613,0,0,0,1.612.133h5.151v-7.212H280.87a7.585,7.585,0,0,0-1.312.1l-.133-.631a5.614,5.614,0,0,0,1.445.15h4.221v-3.839c0-.764-.033-1.18-.1-2.06a18.738,18.738,0,0,1,1.9.232c.116.05.182.1.182.183,0,.15-.149.249-.814.465v5.019Z" transform="translate(0 0)"/><path class="cls-2" d="M300.025,228.055c.333-.432.432-.581.765-1,.614.582.614.582,1.2,1.13a.345.345,0,0,1,.083.15c0,.05-.066.1-.149.1h-2.393v5.3c.781-.266,1.23-.449,2.476-.947l.116.216a21.738,21.738,0,0,1-2.343,1.379c-1.312.682-1.379.731-2.376,1.263-.033.166-.049.3-.066.382-.051.266-.134.4-.233.4-.15,0-.15,0-.648-1.761a13.3,13.3,0,0,0,2.011-.582v-5.65h-.947a5.661,5.661,0,0,0-1.064.1l-.116-.6a4.878,4.878,0,0,0,1.18.116h.947v-2.708c0-.516-.017-.715-.1-2.161,1.613.183,1.862.25,1.862.433,0,.116-.183.216-.7.349v4.087Zm5.65-.149c-.017-3.988-.017-3.988-.083-5,1.579.216,1.579.216,1.745.316a.186.186,0,0,1,.083.133c0,.116-.066.149-.715.4v3.773l2.344-.864a8.5,8.5,0,0,1,.448-.865c.548.3.715.4,1.213.682.149.133.166.166.166.232,0,.1-.2.3-.548.532a34.174,34.174,0,0,1-.4,5.318,1.44,1.44,0,0,1-.581.947,2.488,2.488,0,0,1-1.064.332c-.066-.7-.349-.964-1.312-1.13v-.266a13.707,13.707,0,0,0,1.379.1c.481,0,.564-.117.68-1.064a33.8,33.8,0,0,0,.2-4.486l-2.527.947v2.808c0,1.546.017,2.16.067,3.839-.017.216-.216.282-.814.282-.233,0-.316-.05-.333-.216.033-3.091.05-3.7.05-5.018v-1.313l-2.027.748v6.78c0,.232.016.3.1.332a10.551,10.551,0,0,0,2.293.116c.947,0,2.725-.033,3.058-.05.614-.033.68-.066.863-.481a31.408,31.408,0,0,0,1.047-3.241l.25.034-.25,2.924c-.033.266-.033.266-.033.283,0,.149.033.182.366.348a.371.371,0,0,1,.216.349c0,.349-.382.632-.981.715a20.181,20.181,0,0,1-2.725.1c-1.711.016-1.794.016-2.111.016-2.824,0-3.124-.1-3.174-1.113l.034-3.689v-3.041l-.615.233a3.527,3.527,0,0,0-1,.515l-.332-.515a5.355,5.355,0,0,0,1.2-.366l.747-.266v-2.177c0-.913-.017-1.279-.067-2.093,1.646.216,1.8.249,1.8.432,0,.133-.182.232-.681.382v3.057Z" transform="translate(0 0)"/><path class="cls-2" d="M314.4,230.847a17.143,17.143,0,0,0,2.858-4.42,17.533,17.533,0,0,0,1.379-3.672c1.928.631,1.928.648,1.928.8s-.166.2-.748.249a24.5,24.5,0,0,1-2.343,4.055c1.063.216,1.18.249,1.18.4,0,.1-.133.2-.416.282v3.556l.05,5.434c-.033.166-.083.2-.448.266-.117.016-.449.05-.532.05-.216,0-.3-.067-.3-.25.033-.93.033-.93.1-5.433v-3.806a14.557,14.557,0,0,1-2.509,2.676Zm12.761-3.456c.383-.565.5-.748.881-1.3.665.515.881.681,1.513,1.213a.277.277,0,0,1,.116.149c0,.083-.066.116-.266.133l-5.351.416a13.486,13.486,0,0,0,1.014,3.838A10,10,0,0,0,328,235.782c.482-.98.482-.98,1.5-3.307l.183.084-.616,3.073-.049.433c0,.132.066.265.315.6a.808.808,0,0,1,.217.465.6.6,0,0,1-.649.515c-.847,0-2.459-1.362-3.671-3.091a14.692,14.692,0,0,1-2.311-6.463l-1.894.149a12.87,12.87,0,0,0-1.911.249l-.2-.7a9.765,9.765,0,0,0,1.1.067c.282,0,.78-.017,1.013-.033l1.828-.133a29.4,29.4,0,0,1-.216-3.041c-.05-.931-.067-1.147-.15-1.778,1.529.183,1.895.266,1.895.432,0,.116-.133.2-.615.365v.765a20.358,20.358,0,0,0,.232,3.174Zm-2.508-3.789a10.889,10.889,0,0,1,2.093,1c.465.283.616.5.616.93,0,.516-.25,1.047-.5,1.047-.1,0-.167-.066-.266-.249a8.739,8.739,0,0,0-2.11-2.509Z" transform="translate(0 0)"/><polyline class="cls-8" points="257.541 167.879 257.541 0.5 459.916 0.5 459.916 319.023 257.541 319.023 257.541 173.413 233.598 188.879"/><path class="cls-2" d="M287.54,24.317c.792-.968,1.034-1.276,1.8-2.178,1.188.968,1.54,1.276,2.663,2.244.088.132.132.176.132.242,0,.088-.111.154-.286.154h-7.768V34.9H288.6c.858-.968.858-.968,1.98-2.245,1.189,1.013,1.563,1.32,2.685,2.333.109.11.154.176.154.22,0,.088-.11.154-.242.154H274.646a6.579,6.579,0,0,0-1.695.176L272.8,34.7a6.8,6.8,0,0,0,1.848.2h6.777V24.779h-5.545a6.408,6.408,0,0,0-1.519.132l-.131-.792a6.152,6.152,0,0,0,1.65.2h5.545V20.07a29.6,29.6,0,0,0-.176-3.278c.836.066,1.474.132,1.892.154,1.629.11,2.047.22,2.047.506,0,.22-.265.374-1.1.638v6.227Z" transform="translate(0 0)"/><path class="cls-2" d="M304.917,29.84a47.283,47.283,0,0,1-6.007,3.895c-.11.858-.2,1.078-.418,1.078-.088,0-.176-.088-.264-.242-.044-.11-.374-1.123-.947-3.037a12.98,12.98,0,0,0,2.421-.462v-7.5H298.58a5.768,5.768,0,0,0-1.254.132l-.154-.792a5.057,5.057,0,0,0,1.408.2H299.7V20.07a25.459,25.459,0,0,0-.154-3.168,14.768,14.768,0,0,1,3.1.4c.176.044.264.154.264.264,0,.176-.241.33-.924.528v5.017h.265c.462-.66.594-.88,1.033-1.518.7.7.925.924,1.563,1.65a.41.41,0,0,1,.11.22c0,.066-.088.11-.22.11H301.99v6.909c1.277-.374,1.695-.506,2.8-.924Zm-.4-4.467a5,5,0,0,0-1.188.594l-.419-.726a7.628,7.628,0,0,0,1.5-.33l.682-.242V21.853a29.455,29.455,0,0,0-.132-3.125c2.971.264,2.971.264,3.168.374a.259.259,0,0,1,.133.22c0,.176-.2.309-.837.529v4.026l2-.7c-.023-5.083-.023-5.083-.132-6.645.682.066,1.231.132,1.562.154,1.518.176,1.782.242,1.782.484,0,.2-.2.33-.858.55v4.643l2.178-.748c.4-.7.528-.9.969-1.562.924.484,1.21.638,2.023,1.1.221.132.33.242.33.374,0,.2-.175.352-.769.682-.155,3.586-.2,4.313-.309,5.457-.2,2.112-.439,2.816-1.143,3.19a3.984,3.984,0,0,1-1.673.374c-.22,0-.264-.066-.286-.33a2.328,2.328,0,0,0-.484-1.5,2.115,2.115,0,0,0-.814-.462c0,1.056,0,1.364.044,2.728,0,.528-.2.594-1.628.594-.727,0-.836-.066-.836-.484.065-4.312.065-4.4.065-5.963,0-.11,0-.924-.021-2.134l-2.025.7V33.3c0,.329.044.462.176.5a8.833,8.833,0,0,0,2.135.155c4.181,0,5.017-.044,5.368-.242.4-.242.815-1.255,1.959-4.665l.264.044-.264,3.652a2.6,2.6,0,0,0-.022.352c0,.221.066.308.374.463a.978.978,0,0,1,.637.924c0,.682-.395,1.078-1.254,1.3a30.818,30.818,0,0,1-4.95.264c-.66,0-3.983-.044-4.357-.066-1.936-.066-2.376-.374-2.4-1.8.022-3.5.022-6.491.022-9Zm7.261-2.508c0,2.134,0,4.049.022,5.787.66.066,1.122.088,1.408.088.462,0,.572-.11.66-.726a44.312,44.312,0,0,0,.308-5.985Z" transform="translate(0 0)"/><path class="cls-2" d="M321.486,27.816a30.015,30.015,0,0,0,4.8-11.222c.66.176,1.189.286,1.541.374,1.65.374,2.069.528,2.069.77s-.286.352-1.034.418a24.71,24.71,0,0,1-2.839,5.171c1.276.264,1.54.352,1.54.594,0,.132-.132.242-.594.418v5.017c0,2.552,0,4.2.044,6.6,0,.33-.067.484-.22.594a3.872,3.872,0,0,1-1.452.22h-.33c-.419,0-.616-.176-.616-.506v-.044c.088-1.694.175-5.325.175-6.8V25.241a17.343,17.343,0,0,1-2.882,2.751Zm16.5-4.951c.506-.726.7-.968,1.035-1.386a.947.947,0,0,1-.573.2c-.351,0-.484-.154-.7-.726a7.653,7.653,0,0,0-2.178-3.081l.154-.22a11.066,11.066,0,0,1,3.234,1.122,1.456,1.456,0,0,1,.815,1.122,2.218,2.218,0,0,1-.33,1.123c1.5.968,1.5.968,2.375,1.562.133.11.2.176.2.242,0,.088-.132.154-.352.176l-6.975.55a15.214,15.214,0,0,0,1.166,5.105,10.458,10.458,0,0,0,3.63,4.467c1.057-1.981,1.409-2.663,2.267-4.445l.242.11-.77,4.224a1.976,1.976,0,0,0-.066.418c0,.265.022.287.55.947a1.313,1.313,0,0,1,.374.88,1.283,1.283,0,0,1-1.32,1.254c-1.431,0-3.828-1.826-5.545-4.225-1.628-2.244-2.464-4.73-2.86-8.537l-2.9.242a8.005,8.005,0,0,0-1.452.242l-.221-.792a6.7,6.7,0,0,0,1.145.088,3.092,3.092,0,0,0,.462-.022l2.927-.22c-.132-1.54-.155-2.046-.2-3.718-.021-1.343-.065-1.827-.154-2.773.551.066,1.1.132,1.364.154,1.849.2,2.135.264,2.135.55,0,.2-.176.286-.88.528-.022.924-.044,1.672-.044,2.135,0,1.012.022,1.65.132,2.948Z" transform="translate(0 0)"/><path class="cls-2" d="M346.837,34.461a9.561,9.561,0,0,1,1.474-4.291,19.968,19.968,0,0,1,4.356-4.4,6.505,6.505,0,0,0,1.826-2.024,4.539,4.539,0,0,0,.463-2.024c0-1.914-1.034-3.169-2.6-3.169a1.993,1.993,0,0,0-2.045,1.475,5.992,5.992,0,0,0-.243,2c-.044.858-.44,1.21-1.408,1.21-1.056,0-1.562-.374-1.562-1.166a3.8,3.8,0,0,1,1.826-3.1,6.375,6.375,0,0,1,3.652-.99c3.322,0,5.3,1.518,5.3,4.071a4.078,4.078,0,0,1-.99,2.772,9.243,9.243,0,0,1-2.42,1.8A20.818,20.818,0,0,0,349.9,29.62a5.879,5.879,0,0,0-1.739,2.486h6.382c1.8,0,2.442-.572,2.838-2.552l.748.154-.769,4.753Z" transform="translate(0 0)"/><path class="cls-2" d="M371.4,18.838a40.216,40.216,0,0,1-.331,4.775h5.655c.593-.616.77-.814,1.342-1.43.924.616,1.21.814,2.046,1.43.2.154.264.242.264.33,0,.2-.2.352-.857.7a50.232,50.232,0,0,1-.727,7.129c-.484,2.641-1.078,3.675-2.4,4.137a7.507,7.507,0,0,1-2.025.33c-.2,0-.286-.088-.307-.352a1.765,1.765,0,0,0-.925-1.54c-.462-.242-.462-.242-3.191-.969l.045-.263c2.112.176,4.136.307,4.95.307.573,0,.749-.154.968-.792a34.776,34.776,0,0,0,1.057-8.559h-5.941A15.879,15.879,0,0,1,367.57,32.5a15.826,15.826,0,0,1-5.413,4.115l-.132-.22a15.855,15.855,0,0,0,3.521-3.917,18.82,18.82,0,0,0,2.883-8.581,37.684,37.684,0,0,0,.263-5.061h-3.959a16.607,16.607,0,0,0-2.355.132l-.154-.814a12.229,12.229,0,0,0,2.509.22h12.915c.748-.88.99-1.144,1.782-2,1.232.9,1.629,1.188,2.839,2.112.088.11.131.154.131.22s-.087.132-.219.132Z" transform="translate(0 0)"/><path class="cls-2" d="M390.263,30.984c0,.858,0,1.144.044,4.621,0,.352-.066.528-.22.616a3.279,3.279,0,0,1-1.43.242c-.837,0-.99-.11-1.012-.682.11-3.147.131-5.281.131-10.87,0-5.809-.021-6.711-.109-8.207,1.3.616,1.672.792,2.948,1.43h11.75c.528-.616.7-.792,1.276-1.43.858.66,1.122.858,1.959,1.562.242.22.307.33.307.418-.021.22-.021.242-.814.682V28.63c.022,4.026.022,4.026.022,5.391a1.778,1.778,0,0,1-1.122,1.87,7.326,7.326,0,0,1-2.266.484c-.2,0-.264-.066-.286-.286a1.685,1.685,0,0,0-.352-1.012,2.435,2.435,0,0,0-1.475-.836c-.33-.088-.439-.11-1.847-.418v-.308c1.847.132,2.023.132,4.4.242h.109c.221,0,.309-.088.309-.331V26.363H390.263ZM395.1,18.6h-4.841V25.9H395.1Zm7.481,7.305V18.6h-5.017V25.9Z" transform="translate(0 0)"/><path class="cls-2" d="M411.478,20.247a3.911,3.911,0,0,0,3.014,1.078,9.007,9.007,0,0,0,2.178-.264,5.905,5.905,0,0,0,.771-2.421c0-.748-.506-1.144-1.761-1.43a1.955,1.955,0,0,1,1.188-.33,7.064,7.064,0,0,1,2.487.506c.616.264.968.594.968.968a1.111,1.111,0,0,1-.375.682,15.489,15.489,0,0,0-1.166,1.629,7.008,7.008,0,0,0,2.905-1.409.884.884,0,0,1,.616-.22c.969,0,1.782.484,1.782,1.057,0,.462-.395.7-1.826,1.188A29.958,29.958,0,0,1,417.7,22.4c-.66.946-.836,1.21-1.078,1.562-.836,1.232-.836,1.232-1.143,1.65a6.313,6.313,0,0,1,3.146-.99,2.571,2.571,0,0,1,1.87.748,2.522,2.522,0,0,1,.616,1.166c.374-.219.374-.219,2.09-1.078.66-.33,1.452-.792,1.893-1.078.307-.2.439-.4.439-.594,0-.44-.418-.858-1.21-1.232a1.829,1.829,0,0,1,.683-.132c1.3,0,3.234,1.672,3.234,2.816,0,.44-.22.66-.858.814a30.63,30.63,0,0,0-5.941,2.091c.044,1.474.044,1.518.044,1.738a4.61,4.61,0,0,1-.176,1.8,1.2,1.2,0,0,1-1.079.572.879.879,0,0,1-.967-.924c0-.066,0-.066.066-.88.022-.506.044-.814.044-1.408-2.354,1.32-3.234,2.244-3.234,3.366,0,1.057,1.034,1.541,3.278,1.541a13.438,13.438,0,0,0,4.048-.594,2.56,2.56,0,0,1,.925-.265,2.7,2.7,0,0,1,1.341.506,1.509,1.509,0,0,1,.727,1.167c0,.4-.309.726-.814.88a17.428,17.428,0,0,1-4.291.374c-2.42,0-3.916-.286-4.973-.946a2.7,2.7,0,0,1-1.276-2.4,4.571,4.571,0,0,1,1.672-3.212,16.836,16.836,0,0,1,2.6-1.892,3.562,3.562,0,0,0-.265-1.541,1.175,1.175,0,0,0-1.055-.616c-1.343,0-2.883,1.122-4.6,3.345-.572.726-.77.88-1.122.88-.551,0-.969-.77-.969-1.8a1.306,1.306,0,0,1,.177-.682c.153-.221.176-.242.857-.7a17.519,17.519,0,0,0,3.456-3.916c-.353.022-.573.044-.727.044a4.5,4.5,0,0,1-2.508-.66A4.154,4.154,0,0,1,411.3,20.4Z" transform="translate(0 0)"/><path class="cls-2" d="M289.41,53.992l1.21-1.21c1.034.682,1.342.9,2.332,1.628.2.176.265.242.265.352,0,.242-.286.352-1.189.418a20.821,20.821,0,0,1-3.543,2.245l-.2-.154a16.366,16.366,0,0,0,1.32-2.817H275.966a2.423,2.423,0,0,1,.044.528c0,1.8-.924,3.257-2.046,3.257-.66,0-1.145-.682-1.145-1.607a1,1,0,0,1,.265-.791c.066-.089.153-.111.55-.309a3.052,3.052,0,0,0,1.276-1.21,2.8,2.8,0,0,0,.462-1.5h.264a7.7,7.7,0,0,1,.264,1.166ZM272.842,65.544a10.227,10.227,0,0,0,4.2-3.037,6.743,6.743,0,0,0,1.3-3.146,13.26,13.26,0,0,0,.241-2.464c0-.4,0-.639-.044-1.277.748.066,1.32.132,1.694.176,1.5.154,1.805.243,1.805.506,0,.176-.22.33-.88.55a11.282,11.282,0,0,1-.814,4.269,7.36,7.36,0,0,1-4.269,3.851,15.664,15.664,0,0,1-3.146.858Zm15.6-17.273c.771-.836,1.013-1.1,1.783-1.892,1.1.836,1.43,1.1,2.509,1.98.087.11.131.176.131.22,0,.088-.109.154-.286.154h-8.6v2.905h3.387c.6-.616,1.145-1.188,1.695-1.716,1.078.77,1.408,1.012,2.442,1.826.088.088.132.154.132.22q0,.132-.264.132H276.517a7.123,7.123,0,0,0-1.409.132l-.154-.77a6.248,6.248,0,0,0,1.584.176h4.885V48.733h-6.447a5.529,5.529,0,0,0-1.409.154l-.153-.792a6.361,6.361,0,0,0,1.584.176h6.425v-.462a15.8,15.8,0,0,0-.132-2.266c3.5.286,3.63.308,3.63.66,0,.2-.2.308-.945.55v1.518Zm-4.774,9.77c0-.946-.021-1.409-.088-2.377,3.235.308,3.345.33,3.345.638,0,.176-.2.309-.836.528v5.677c0,.551.044.551,1.694.551,1.672,0,1.958-.067,2.288-.485a19.161,19.161,0,0,0,1.5-3.938l.287.022-.2,3.564V62.4c0,.22.088.308.33.374.638.176.859.44.859,1.013,0,.682-.462,1.144-1.255,1.276a36.49,36.49,0,0,1-4.422.154c-1.936,0-2.575-.066-2.993-.352-.374-.22-.483-.506-.527-1.145l.021-2.486Z" transform="translate(0 0)"/><path class="cls-2" d="M305.722,47h-4.489a9.919,9.919,0,0,0-1.716.11l-.132-.792a7.458,7.458,0,0,0,1.848.22h10.078c.66-.7.88-.9,1.54-1.584,1.012.7,1.32.946,2.354,1.716a.447.447,0,0,1,.111.2c0,.066-.111.132-.243.132h-7.019v1.716H313.8c.484-.506.616-.638,1.1-1.122,1.011.7,1.3.924,2.244,1.672.219.2.307.33.307.441a.253.253,0,0,1-.175.22c-.176.065-.176.065-1.145.11-1.078.858-1.5,1.166-2.574,1.936l-.176-.044.154-.462-.132.022h-3.653c-.307,0-.55.022-1.056.066l-.131-.66a4.774,4.774,0,0,0,1.187.132h1.013c.462-.506.616-.66,1.1-1.211.748.595.947.793,1.629,1.387l.088.132c.155-.616.242-.946.485-2.156h-6.008v1.76c.022,1.848.045,2.948.045,3.234a.5.5,0,0,1-.155.374,2.915,2.915,0,0,1-1.408.242c-.682,0-.858-.088-.88-.462.066-1.364.066-1.76.066-3.278v-1.87h-5.9c.022.33.022.4.022.659,0,1.849-.7,3.081-1.782,3.081-.617,0-1.056-.66-1.056-1.606a.863.863,0,0,1,.132-.506c.066-.088.066-.088.462-.286a3.58,3.58,0,0,0,1.364-1.255,2.9,2.9,0,0,0,.4-1.518l.242-.022a6.3,6.3,0,0,1,.176.99h5.941Zm2.222,15.974c0,.242.044.352.176.4a10.024,10.024,0,0,0,2.6.154c.725,0,2.97-.043,3.19-.065a1,1,0,0,0,.968-.661,19.073,19.073,0,0,0,1.387-3.366h.22l-.243,3.1a1.438,1.438,0,0,0-.021.264c0,.242.065.308.439.463a.851.851,0,0,1,.6.858,1.187,1.187,0,0,1-1.144,1.21,31.094,31.094,0,0,1-4.049.176,34.971,34.971,0,0,1-5.259-.176c-.924-.22-1.166-.66-1.166-2V61.5h-3.9v.792c0,.242-.044.352-.154.44a3.163,3.163,0,0,1-1.474.22c-.638,0-.814-.11-.814-.506l.022-.044c.066-2.332.088-3.19.088-3.938,0-1.65-.044-3.433-.088-4.247a22.821,22.821,0,0,1,2.706,1.232h9.835a13.364,13.364,0,0,1,1.255-1.232c.792.528,1.035.682,1.783,1.232.175.132.242.22.242.308,0,.2-.133.33-.771.682,0,2.993,0,3.191.044,5.215a.474.474,0,0,1-.132.4,2.75,2.75,0,0,1-1.474.286c-.529,0-.7-.088-.748-.374V61.5h-4.115Zm-8.449-9.9a6.4,6.4,0,0,0,1.321.154h1.759c.462-.506.616-.66,1.078-1.166.7.55.925.726,1.584,1.32.089.088.111.132.111.176,0,.066-.088.132-.2.132h-4.334a10.183,10.183,0,0,0-1.189.066Zm.77-2.178a5.177,5.177,0,0,0,1.211.132H302.6c.439-.484.593-.638,1.055-1.144.7.55.925.726,1.584,1.3.089.088.111.132.111.176,0,.066-.088.132-.2.132h-3.674a6.186,6.186,0,0,0-1.1.088Zm5.369,5.016h-3.9v2.245h3.9Zm0,2.707h-3.9v2.42h3.9Zm6.425-.462V55.906h-4.115v2.245Zm0,2.882v-2.42h-4.115v2.42Zm-3.5-7.965a5.263,5.263,0,0,0,1.254.154h2.244l1.188-1.254a18.737,18.737,0,0,1,1.8,1.408c.089.088.11.132.11.176,0,.088-.088.132-.22.132h-5.126a6.276,6.276,0,0,0-1.123.088Z" transform="translate(0 0)"/><path class="cls-2" d="M325.353,59.185c1.033-.22,1.033-.22,2.332-.528l.021-4.643c0-.352-.044-6.205-.044-6.887a10.712,10.712,0,0,0-.065-1.518c2.926.352,3.278.418,3.278.726,0,.22-.2.33-.9.572v1.342l-.022,7.2c0,3.631.022,6.755.088,9.748a.475.475,0,0,1-.418.462,9.076,9.076,0,0,1-1.541.11c-.351,0-.483-.11-.483-.4.044-1.738.044-1.738.088-6.051a45.485,45.485,0,0,1-4.511,2.662c-.154.792-.242.99-.441.99-.109,0-.2-.087-.286-.22,0-.044-.374-1.034-1.078-2.97.572-.044,1.1-.11,1.761-.22V51.572a29.029,29.029,0,0,0-.176-3.851c.66.088,1.188.154,1.518.176,1.386.132,1.782.242,1.782.528,0,.2-.109.242-.9.506ZM337.96,47.7c.55-.616.726-.814,1.32-1.43.924.7,1.21.924,2.09,1.65.132.11.176.176.176.264,0,.2-.065.242-.945.638a34.039,34.039,0,0,1-1.321,5.589,22.591,22.591,0,0,1-2.112,4.731,13.6,13.6,0,0,0,5.368,3.52l-.021.2a3.245,3.245,0,0,0-1.893,2.069c-.065.176-.154.242-.264.242-.175,0-.66-.33-1.672-1.144a20.51,20.51,0,0,1-2.794-3.059,18.006,18.006,0,0,1-5.435,4.511l-.177-.2a22.209,22.209,0,0,0,4.578-5.919c-1.672-2.948-2.619-6.359-3.037-11.178a11.121,11.121,0,0,0-1.166.11l-.154-.748a11.6,11.6,0,0,0,1.716.154Zm-5.611.462a21.549,21.549,0,0,0,1.012,4.709,19.624,19.624,0,0,0,2.4,4.621,35.785,35.785,0,0,0,2.288-9.33Z" transform="translate(0 0)"/><path class="cls-2" d="M366.54,62.485a3.528,3.528,0,0,0-2.178,2.289c-.087.22-.175.308-.286.308a5.385,5.385,0,0,1-1.65-.991,15.337,15.337,0,0,1-4.444-5.808,22.231,22.231,0,0,1-1.563-4.907c-1.5,6.007-4.818,9.858-10.319,12.014l-.132-.242a16.9,16.9,0,0,0,5.919-6.623,19.986,19.986,0,0,0,1.76-5.149,21.5,21.5,0,0,0,.5-3.41v-.331c1.035.2,1.035.2,1.783.352-.022-.813-.044-1.21-.044-1.672v-.264h-3.939c-.351,0-.66.022-1.473.088l-.111-.748a9.117,9.117,0,0,0,1.672.2h3.411c.418-.55.55-.7.99-1.254.616.484.814.638,1.409,1.144.175.154.241.242.241.308,0,.2-.308.352-1.738.814a17.231,17.231,0,0,0,1.32,5.743,13.377,13.377,0,0,0,4.687,5.941,14.654,14.654,0,0,0,4.2,1.98Z" transform="translate(0 0)"/><path class="cls-2" d="M375.368,60.791a10.591,10.591,0,0,0,3.169,1.254c.462,0,.771-.286,1.145-1.056a17.332,17.332,0,0,0,1.6-6.689c0-1.276-.351-1.782-1.276-1.782a6,6,0,0,0-1.936.4c-2.883,7.063-2.883,7.063-3.587,8.713-1.011,2.333-1.408,2.883-2.024,2.883s-1.034-.836-1.034-2.069a1.762,1.762,0,0,1,.638-1.584c.991-1.012,2.42-3.631,4-7.349a17.537,17.537,0,0,0-2.4,1.166,1.109,1.109,0,0,1-.66.242,1.638,1.638,0,0,1-1.233-.836,4.033,4.033,0,0,1-.748-2.024,1.305,1.305,0,0,1,.132-.572,1.98,1.98,0,0,0,1.937,1.364,17.7,17.7,0,0,0,3.388-.66,12.329,12.329,0,0,0,.77-3.521c0-.9-.528-1.452-1.782-1.87a1.55,1.55,0,0,1,.858-.242,7.292,7.292,0,0,1,1.914.33c1.254.4,1.914.9,1.914,1.5a1.381,1.381,0,0,1-.286.748,13.567,13.567,0,0,0-1.364,2.729,7,7,0,0,1,1.606-.2,2.8,2.8,0,0,1,2.377.99,4.577,4.577,0,0,1,.726,3.014c0,2.707-1.012,6.161-2.223,7.657a3.6,3.6,0,0,1-2.75,1.431.853.853,0,0,1-.748-.352c-.11-.176-.11-.176-.154-.837,0-.462-.726-1.32-2.134-2.53Zm9.418-9.219a7.708,7.708,0,0,1,4.334,2.178,5.3,5.3,0,0,1,1.695,3.741c0,1.364-.572,2.178-1.54,2.178a1.334,1.334,0,0,1-.968-.44c-.374-.418-.991-.506-3.389-.528l-.044-.2a25.985,25.985,0,0,0,3.234-.99.326.326,0,0,0,.155-.33A7,7,0,0,0,387.691,55a5.813,5.813,0,0,0-3.015-3.19Zm.4-4.511a8.135,8.135,0,0,1,2.354,1.056c1.013.682,1.475,1.32,1.475,2.025,0,.506-.265.858-.683.858-.286,0-.439-.132-.748-.638a9.67,9.67,0,0,0-2.6-2.927Zm2.245-1.716a7.509,7.509,0,0,1,2.574.968c.88.572,1.275,1.078,1.275,1.694,0,.528-.263.88-.659.88-.242,0-.4-.132-.726-.594a9.577,9.577,0,0,0-2.641-2.6Z" transform="translate(0 0)"/><path class="cls-2" d="M400.119,55.708c.4.176.462.22.726.352a11.342,11.342,0,0,0,1.3-2.838,11.874,11.874,0,0,1,1.694,1.078c0-2.574,0-2.684-.065-3.7,1.1.528,1.452.682,2.486,1.276h1.98V49.635h-3.587a5.151,5.151,0,0,0-1.3.154l-.2-.792a10.875,10.875,0,0,0,1.5.177h3.587V47.589c0-.506-.022-.748-.11-1.958.616.066,1.1.11,1.408.132,1.145.088,1.563.22,1.563.462,0,.176-.177.286-.683.462-.021.814-.021.814-.021,2.487h2.9c.572-.661.726-.859,1.3-1.5.814.7,1.078.924,1.914,1.7a.2.2,0,0,1,.066.109c0,.067-.11.154-.219.154H410.4c0,.176,0,.176-.023,2.245h2.179c.483-.572.638-.748,1.143-1.276.837.55,1.1.7,1.893,1.276.132.176.176.242.176.308,0,.176-.22.374-.77.682-.022.638-.022,1.342-.022,1.452,0,1.871.022,7.327.044,8.713v.837a1.439,1.439,0,0,1-1.188,1.562,6.541,6.541,0,0,1-1.386.264c-.2,0-.243-.044-.264-.308-.088-1.386-.4-1.782-1.5-2v-.264l.924.066c.439.022.439.022.836.045.263-.023.33-.111.33-.375V59.471H410.4c0,3.146.021,5.017.021,5.567-.044.506-.264.572-1.738.572-.418,0-.528-.088-.528-.418.066-1.166.066-1.518.066-2.509V59.471h-2.2v5.765c0,.286-.088.418-.308.462a4.7,4.7,0,0,1-1.276.132c-.573,0-.683-.066-.7-.418.065-1.871.131-5.677.131-7.789,0-.749,0-.749-.022-2.817-.2.022-.264.022-.483.044-.353.308-1.189.88-2.025,1.452,1.364.748,1.782,1.233,1.782,2.047,0,.836-.549,1.606-1.144,1.606a.49.49,0,0,1-.44-.286,10.75,10.75,0,0,1-.4-1.452,4.723,4.723,0,0,0-1.012-2.135v5.941c.044,1.959.066,3.037.088,3.235,0,.264-.066.374-.265.462a5.932,5.932,0,0,1-1.584.132c-.417,0-.528-.088-.528-.4.067-1.144.111-2.443.111-3.1v-5.17a17.09,17.09,0,0,1-2.6,2.222l-.2-.176a22.405,22.405,0,0,0,3.037-4.533,26.043,26.043,0,0,0,1.8-4.268h-3.08a7.612,7.612,0,0,0-1.3.132l-.176-.771c.176.044.66.089,1.452.177h.969V47.523c0-.484-.023-.9-.111-1.892.683.066,1.21.11,1.54.132,1.277.088,1.717.22,1.717.484,0,.176-.154.286-.88.594v3.125h.33c.462-.485.594-.638,1.056-1.145a11.661,11.661,0,0,1,1.606,1.255c.155.154.2.22.2.308a.261.261,0,0,1-.111.2c-.066.044-.352.154-.814.352a23.788,23.788,0,0,1-2.266,3.784Zm8.141-.44V52.342h-2.267v2.926Zm-.022.462h-2.222v3.279h2.2Zm4.533-3.388h-2.4v2.926h2.4Zm0,3.388h-2.4l.023,3.279h2.376Zm-1.365-9.791c1.783.33,2.575.748,2.575,1.43a1.33,1.33,0,0,1-1.056,1.276c-.242,0-.33-.11-.528-.638a4.424,4.424,0,0,0-1.079-1.914Z" transform="translate(0 0)"/><path class="cls-2" d="M428.106,51.968c-.023-.814-.023-1.166-.067-2.244,1.122.461,1.475.616,2.574,1.166h1.5V48.623h-3.873a4.941,4.941,0,0,0-1.341.132l-.133-.77a5.629,5.629,0,0,0,1.474.176h3.873v-.176a23.719,23.719,0,0,0-.11-2.552c3.257.308,3.389.33,3.389.638,0,.2-.242.33-.947.506v1.584h2.729c.638-.7.836-.924,1.5-1.606.968.726,1.276.968,2.178,1.76a.459.459,0,0,1,.133.176c0,.088-.088.132-.243.132h-6.293V50.89h1.827c.506-.528.681-.7,1.166-1.188.77.528,1.012.682,1.716,1.21.2.132.286.242.286.352,0,.2-.2.352-.7.594,0,4.774,0,4.774.088,7.217,0,.2-.022.286-.088.352-.154.176-.682.264-1.628.264-.573,0-.682-.066-.682-.374v-.484h-6.007v.55c0,.462-.265.55-1.452.55-.814,0-.9-.044-.9-.462.044-3.521.044-3.521.044-7.349l-.2.044h-2.75V58.5c.66-.2.858-.264,2.376-.814l.088.242a34.182,34.182,0,0,1-5.61,3.916c-.044.792-.132,1.056-.374,1.056s-.242,0-1.343-3.212a13.838,13.838,0,0,0,2.553-.528v-7h-1.254a3.638,3.638,0,0,0-1.122.154l-.133-.814a4.61,4.61,0,0,0,1.255.2h1.254V48.887c0-1.408-.023-1.914-.111-3.1.683.066,1.21.11,1.54.132,1.431.11,1.805.22,1.805.484,0,.2-.264.352-.924.55V51.7h.2c.484-.616.638-.792,1.123-1.408.725.7.945.9,1.584,1.606Zm3.058,10.143c1.32.528,1.628.7,1.628.9,0,.176-.2.308-.484.308-.066,0-.352-.022-.682-.043a17.251,17.251,0,0,1-6.953,2.662l-.11-.22a14.315,14.315,0,0,0,5.083-4.225Zm6.4-1.408c.639-.7.837-.9,1.453-1.54.946.726,1.232.946,2.178,1.694a.447.447,0,0,1,.111.2c0,.066-.088.11-.221.11h-13.62a5.917,5.917,0,0,0-1.254.132l-.109-.77a4.545,4.545,0,0,0,1.363.176Zm-1.143-7.437V51.352h-6.007v1.914Zm-6.007.462v2h6.007v-2Zm0,2.465v2.178h6.007V56.193Zm3.718,5.632c4.731.594,5.9,1.1,5.9,2.553,0,.858-.418,1.562-.9,1.562-.264,0-.462-.11-.771-.484a15.364,15.364,0,0,0-4.333-3.389Z" transform="translate(0 0)"/><path class="cls-2" d="M289.047,284.287c.639-.836.814-1.1,1.431-1.871.99.881,1.3,1.144,2.244,2.047a.3.3,0,0,1,.11.2c0,.066-.11.132-.242.132h-7.7v9.549h5.72c.661-.836.88-1.078,1.563-1.848.99.88,1.3,1.144,2.223,2a.5.5,0,0,1,.088.2c0,.066-.111.154-.221.154H276.527a7.342,7.342,0,0,0-1.958.176l-.175-.858a11.313,11.313,0,0,0,2.133.176h6.822v-9.549H277.76a9.985,9.985,0,0,0-1.738.132l-.176-.836a7.408,7.408,0,0,0,1.914.2h5.589V279.2c0-1.012-.044-1.562-.132-2.728a24.414,24.414,0,0,1,2.508.308c.154.066.242.131.242.242,0,.2-.2.33-1.078.616v6.645Z" transform="translate(0 0)"/><path class="cls-2" d="M301.806,283.1c.44-.573.572-.771,1.012-1.321.814.77.814.77,1.584,1.5a.449.449,0,0,1,.11.2c0,.066-.088.131-.2.131h-3.169v7.019c1.034-.352,1.628-.594,3.278-1.254l.154.286a29.006,29.006,0,0,1-3.1,1.827c-1.739.9-1.826.968-3.147,1.672-.044.22-.065.4-.088.506-.066.352-.175.528-.307.528-.2,0-.2,0-.859-2.332a17.35,17.35,0,0,0,2.662-.77V283.6h-1.254a7.467,7.467,0,0,0-1.408.133l-.154-.792a6.514,6.514,0,0,0,1.562.154h1.254v-3.587c0-.682-.021-.946-.131-2.86,2.133.241,2.463.33,2.463.572,0,.154-.241.286-.923.462V283.1Zm7.481-.2c-.022-5.28-.022-5.28-.11-6.622,2.091.285,2.091.285,2.31.417a.25.25,0,0,1,.11.177c0,.154-.088.2-.946.528v4.994l3.1-1.144a10.9,10.9,0,0,1,.594-1.144c.725.4.946.528,1.606.9.2.176.22.22.22.308,0,.132-.264.4-.727.7a45.387,45.387,0,0,1-.527,7.041,1.9,1.9,0,0,1-.77,1.254,3.282,3.282,0,0,1-1.409.441c-.088-.925-.462-1.277-1.738-1.5v-.352c.814.088,1.408.132,1.826.132.639,0,.748-.154.9-1.408A45.225,45.225,0,0,0,314,281.69l-3.344,1.255v3.718c0,2.046.022,2.86.088,5.083-.022.286-.286.374-1.078.374-.308,0-.418-.066-.44-.286.044-4.093.066-4.907.066-6.645v-1.738l-2.684.99v8.977c0,.308.021.4.131.44a13.969,13.969,0,0,0,3.037.154c1.254,0,3.608-.044,4.048-.066.815-.044.9-.088,1.145-.638a42.006,42.006,0,0,0,1.386-4.291l.33.044-.33,3.873c-.044.352-.044.352-.044.374,0,.2.044.242.484.462a.49.49,0,0,1,.286.462c0,.462-.506.836-1.3.946a26.414,26.414,0,0,1-3.608.132c-2.266.022-2.376.022-2.794.022-3.74,0-4.137-.132-4.2-1.474l.044-4.885v-4.026l-.814.308a4.672,4.672,0,0,0-1.32.682l-.44-.682a7.087,7.087,0,0,0,1.585-.484l.989-.352v-2.883c0-1.21-.022-1.694-.088-2.772,2.179.286,2.377.33,2.377.572,0,.176-.242.308-.9.506v4.049Z" transform="translate(0 0)"/><path class="cls-2" d="M319.515,286.8a22.741,22.741,0,0,0,3.785-5.853,23.273,23.273,0,0,0,1.826-4.862c2.552.835,2.552.857,2.552,1.056s-.22.264-.99.33a32.535,32.535,0,0,1-3.1,5.368c1.408.287,1.562.33,1.562.528,0,.133-.176.264-.55.375v4.708l.066,7.195c-.045.22-.11.264-.595.352-.154.022-.593.066-.7.066-.286,0-.395-.088-.395-.33.044-1.232.044-1.232.132-7.195V283.5a19.265,19.265,0,0,1-3.323,3.542Zm16.9-4.577c.506-.748.66-.99,1.166-1.716.881.682,1.167.9,2,1.606a.366.366,0,0,1,.153.2c0,.11-.087.154-.351.176l-7.085.55a17.8,17.8,0,0,0,1.342,5.083,13.244,13.244,0,0,0,3.894,5.215c.639-1.3.639-1.3,1.981-4.379l.242.11-.815,4.071-.065.572c0,.176.088.352.418.792a1.072,1.072,0,0,1,.286.616.8.8,0,0,1-.858.682c-1.122,0-3.257-1.8-4.863-4.092a19.472,19.472,0,0,1-3.058-8.559l-2.509.2a16.69,16.69,0,0,0-2.53.33l-.264-.924a13.164,13.164,0,0,0,1.452.087c.374,0,1.034-.022,1.342-.044l2.421-.176a39.233,39.233,0,0,1-.286-4.026c-.067-1.232-.088-1.518-.2-2.355,2.024.243,2.507.352,2.507.573,0,.154-.175.264-.813.483V278.3a26.868,26.868,0,0,0,.308,4.2Zm-3.322-5.016a14.453,14.453,0,0,1,2.772,1.32c.617.374.815.66.815,1.232,0,.682-.33,1.386-.66,1.386-.133,0-.221-.088-.353-.33a11.524,11.524,0,0,0-2.794-3.322Z" transform="translate(0 0)"/><line class="cls-8" x1="269.541" y1="253.687" x2="447.977" y2="253.687"/></svg>