<svg id="レイヤー_1" data-name="レイヤー 1" xmlns="http://www.w3.org/2000/svg" viewBox="0 0 460 235.903"><defs><style>.cls-1,.cls-2,.cls-6{fill:none;}.cls-2,.cls-6{stroke:#525a70;stroke-miterlimit:10;}.cls-2{stroke-width:1.364px;stroke-dasharray:1.838 1.838;}.cls-3{fill:#525a70;}.cls-4{fill:#aeb5bf;opacity:0.5;}.cls-5{fill:#fdfaf6;}.cls-6{stroke-width:8px;}.cls-7{fill:#fff;}</style></defs><rect class="cls-1" y="3.309" width="460" height="1"/><line class="cls-2" x1="185.281" y1="84.559" x2="254.093" y2="84.559"/><path class="cls-3" d="M272.233,96.921a11.994,11.994,0,0,1,2.147-5.657c1.132-1.624,2.35-2.785,6.062-5.8a9.067,9.067,0,0,0,2.206-2.263,4.788,4.788,0,0,0,.637-2.436,3.815,3.815,0,0,0-3.945-4.09,3.367,3.367,0,0,0-3.451,2.262,7.745,7.745,0,0,0-.29,2.118c-.059.986-.377,1.247-1.393,1.247-1.073,0-1.479-.348-1.479-1.189,0-2.988,2.9-5.222,6.788-5.222a6.969,6.969,0,0,1,5.569,2.176,4.686,4.686,0,0,1,.928,3.075c0,2.407-1.073,3.887-4.293,5.859-3.626,2.234-4.409,2.814-5.686,4.061a8.247,8.247,0,0,0-2.378,3.684h8.383c2.088,0,2.814-.638,3.394-3.075l.87.2-.783,5.048Z" transform="translate(0 2.85)"/><path class="cls-3" d="M292.069,97.256c1.539-.9,2.235-1.769,2.235-2.813,0-.348-.116-.464-.552-.58-1.247-.291-1.711-.784-1.711-1.741a1.866,1.866,0,0,1,1.943-1.914c1.364,0,2.234,1.044,2.234,2.668a5.626,5.626,0,0,1-1.247,3.394,6.386,6.386,0,0,1-2.321,1.712Z" transform="translate(0 2.85)"/><path class="cls-3" d="M313.445,93.353c0,1.392.145,2.088.522,2.378.262.232.493.29,1.625.319v.871H308.63V96.05c1.276-.029,1.509-.087,1.827-.319.377-.29.523-.986.523-2.378V91.264h-9.833V89.9l10.47-14.011h1.828v14.1h3.017v1.276h-3.017ZM310.98,78.53l-8.5,11.458h8.5Z" transform="translate(0 2.85)"/><path class="cls-3" d="M322.113,79.11a6.5,6.5,0,0,1,11.226,0,17.9,17.9,0,0,1,0,15.026,6.154,6.154,0,0,1-5.6,3.22,6.224,6.224,0,0,1-5.628-3.22,17.9,17.9,0,0,1,0-15.026ZM327.741,96.6c3.1,0,4.467-3.046,4.467-9.979s-1.363-9.978-4.467-9.978-4.467,3.074-4.467,10.007C323.274,93.556,324.637,96.6,327.741,96.6Z" transform="translate(0 2.85)"/><path class="cls-3" d="M340.905,79.11a6.5,6.5,0,0,1,11.226,0,17.89,17.89,0,0,1,0,15.026,6.154,6.154,0,0,1-5.6,3.22,6.224,6.224,0,0,1-5.628-3.22,17.9,17.9,0,0,1,0-15.026ZM346.533,96.6c3.1,0,4.467-3.046,4.467-9.979s-1.363-9.978-4.467-9.978-4.467,3.074-4.467,10.007C342.066,93.556,343.429,96.6,346.533,96.6Z" transform="translate(0 2.85)"/><path class="cls-3" d="M365.759,81.455a27.814,27.814,0,0,1-.3,4.321h5.721a11.676,11.676,0,0,1,.841-.921c.639.441.819.581,1.4,1,.119.1.159.16.159.2,0,.14-.1.2-.76.56a51.116,51.116,0,0,1-.5,5.4c-.36,2.4-.76,3.641-1.38,4.181-.44.38-.8.5-2.3.72a1.226,1.226,0,0,0-.841-1.12,14.232,14.232,0,0,0-2.86-.58V94.9c2.06.14,3.48.22,4.34.22.481,0,.621-.04.761-.2.319-.36.54-1.08.84-2.82a38.116,38.116,0,0,0,.54-5.861h-6.041a16.484,16.484,0,0,1-1.641,5.341,14.206,14.206,0,0,1-3.8,4.4,13.981,13.981,0,0,1-2.021,1.26l-.16-.3a13.74,13.74,0,0,0,3.741-3.861c1.681-2.48,2.561-5.541,2.74-9.682.04-.6.04-.9.04-1.94h-3.92a18.825,18.825,0,0,0-2.34.14l-.12-.78a11.992,11.992,0,0,0,2.46.18H372.58c.561-.7.721-.9,1.28-1.581.88.72,1.141.94,1.981,1.7.08.08.12.14.12.2,0,.08-.08.14-.24.14Z" transform="translate(0 2.85)"/><path class="cls-3" d="M381.478,92.037c0,1.92,0,2,.019,4.6-.019.34-.26.44-1.08.44-.34,0-.46-.08-.46-.34.061-4.421.1-10.042.1-14.483,0-1.641,0-1.661-.04-2.6a13.654,13.654,0,0,1,1.66,1.021H393.46a5.918,5.918,0,0,1,.761-1c.54.4.72.54,1.28,1,.159.159.22.24.22.32,0,.12-.08.18-.641.58v9.3c.021,1.52.021,3.02.021,4.481-.021.94-.361,1.16-2.461,1.56a1.678,1.678,0,0,0-.62-1.08,2.665,2.665,0,0,0-1.08-.32c-.02,0-.22-.04-.621-.08-.2-.02-.419-.04-.62-.08l.021-.34c.979.06.979.06,3.56.2h.08c.24,0,.3-.06.3-.24V87.936H381.478Zm5.281-10.9h-5.281v6.341h5.281Zm6.9,6.341V81.135h-5.481v6.341Z" transform="translate(0 2.85)"/><path class="cls-3" d="M272.226,64.366a11.551,11.551,0,0,0,2.72-3.94,13.021,13.021,0,0,1-1.48-3.281,3,3,0,0,0-.52-1.16l.84-.26a.944.944,0,0,0-.04.3,8.894,8.894,0,0,0,1.5,3.7,18.09,18.09,0,0,0,1.18-5.481h-1.92c-.1.16-.16.3-.221.38-.12.22-.239.28-.66.3h-.22c-.32,0-.5-.08-.5-.24v-.06a50.99,50.99,0,0,0,2.881-6.281h-2.06a4.384,4.384,0,0,0-1.141.14l-.18-.74c.18.02.62.08,1.321.14h2.06a9.9,9.9,0,0,1,.74-.86c.581.46.76.6,1.321,1.02.059.06.079.1.079.14,0,.14-.079.2-.92.56-.8,1.98-1.22,2.921-2.28,5.041h1.62c.3-.4.4-.52.72-.92.541.38.7.5,1.22.92.141.12.181.18.181.22,0,.1-.261.3-.8.6a15.96,15.96,0,0,1-1.66,6,5.494,5.494,0,0,0,1.56,1.12,12.975,12.975,0,0,0,6.082,1.08c2,0,4.1-.1,7.582-.32v.26a1.855,1.855,0,0,0-1.061.56,1.22,1.22,0,0,0-.26.88c-1.28.08-2.121.1-3.421.1-4.241,0-6.341-.28-8.261-1.14a8.119,8.119,0,0,1-2.621-1.86,10.145,10.145,0,0,1-3.181,3.281ZM289.09,51.044a13.507,13.507,0,0,1,.8-1.181,13.848,13.848,0,0,1,1.1,1.3.62.62,0,0,1,.1.22.115.115,0,0,1-.12.12h-2.16c0,.3.019.54.019.54,0,1.92,0,1.92.04,2.46,0,.28-.1.34-.639.38a3.383,3.383,0,0,1-.42.06h-.04c-.161,0-.241-.1-.241-.3v-.46h-3.041l.021,2.281h2.921c.42-.48.54-.64.939-1.141.7.521.941.7,1.681,1.341a.548.548,0,0,1,.08.14c0,.06-.08.12-.2.12h-5.421l.019,2.2h3.242c.479-.58.639-.74,1.059-1.3.66.56.9.78,1.681,1.44a.348.348,0,0,1,.06.14.2.2,0,0,1-.2.18h-5.842c0,1.321,0,1.8.021,2.5a.23.23,0,0,1-.141.16,8.705,8.705,0,0,1-.979.08c-.141,0-.181-.04-.221-.14,0-.44,0-.44.04-2.1v-.5h-3.341a7.833,7.833,0,0,0-1.559.12l-.261-.7a8.608,8.608,0,0,0,1.82.12h3.362v-2.2h-2.9a7.3,7.3,0,0,0-1.421.12l-.2-.76a10.529,10.529,0,0,0,1.621.18h2.9V54.184h-2.421a5.916,5.916,0,0,0-1.481.14l-.259-.76c.56.08,1.36.16,1.66.16h2.5V51.5h-3.362a5.9,5.9,0,0,0-1.559.16l-.221-.8a9.337,9.337,0,0,0,1.78.18h3.341V48.8h-2.62a7.168,7.168,0,0,0-1.181.1l-.219-.74a10.306,10.306,0,0,0,1.4.18h2.6c0-.76,0-.76-.061-1.9a10.608,10.608,0,0,1,1.9.3.167.167,0,0,1,.121.16c0,.18-.161.28-.741.44v1h3.081a7.846,7.846,0,0,1,.621-.86c.56.38.719.5,1.2.86a.21.21,0,0,1,.1.18.363.363,0,0,1-.1.22c-.02.02-.1.06-.241.16a1.761,1.761,0,0,0-.32.2v.54l.021.76v.641ZM287.529,48.8h-3.06v2.241h3.06Zm-3.06,2.7.019,2.22h3.041V51.5Z" transform="translate(0 2.85)"/><path class="cls-3" d="M299.406,51.044V48.2a16.045,16.045,0,0,0-.059-1.82c.46.06.82.1,1.04.14.94.12,1.26.2,1.26.36s-.34.34-.92.46v3.7h.46l.88-1.141a15.987,15.987,0,0,1,1.281,1.321.263.263,0,0,1,.059.14.155.155,0,0,1-.16.14h-2.52l-.02,4.481c1.42-.44,1.8-.58,2.721-.941l.119.221a14.91,14.91,0,0,1-2.82,1.56v2.26l.06,5.362v.12c0,.2-.461.34-1.2.34-.22,0-.3-.04-.3-.16v-.06c.1-3.161.12-4.361.12-5.482v-1.82a19.14,19.14,0,0,1-2.26,1.08c-.02.2-.04.36-.04.48,0,.28-.06.4-.18.4-.22,0-.521-.62-1-2.1a21.167,21.167,0,0,0,3.48-.86V51.5h-1.58a21.02,21.02,0,0,1-1.78,3.62l-.261-.12a23.129,23.129,0,0,0,1.181-4.04,21.709,21.709,0,0,0,.4-2.941,2.783,2.783,0,0,0-.02-.34c1.72.4,2.02.5,2.02.66,0,.1-.179.22-.66.42-.2.6-.2.6-.36,1.1l-.36,1.181Zm12.1-.02a23.255,23.255,0,0,1-.86,3.02,15.184,15.184,0,0,1-4.841,7.222,21.26,21.26,0,0,1-3.841,2.44l-.22-.26a19.818,19.818,0,0,0,3.9-3.14c2.14-2.281,3.541-5.222,4.46-9.282h-1.839a13.375,13.375,0,0,1-1.961,4.281,14.73,14.73,0,0,1-4.561,4.46l-.2-.24a15.682,15.682,0,0,0,3.9-4.841,12.555,12.555,0,0,0,1.4-3.66h-1.821a20.651,20.651,0,0,1-2.96,3.58l-.22-.18a24.932,24.932,0,0,0,2.581-4.521c.18-.46.78-2.16.92-2.62a2.478,2.478,0,0,0,.12-.78c1.761.52,2.221.7,2.221.88,0,.16-.341.28-.881.36a18.679,18.679,0,0,1-1.5,2.86h6.741c.36-.4.46-.52.8-.9l1.139.88c.141.12.181.181.181.26,0,.1-.221.341-.58.641-.221,5.721-.62,9.082-1.36,11.142-.521,1.48-1.041,1.84-3,2.1-.08-.7-.161-.9-.46-1.1a5,5,0,0,0-1.481-.48l-.7-.12c-.2-.04-.38-.08-.58-.12v-.28c1.12.1,3.541.26,3.82.26.541,0,.7-.06.841-.3.78-1.4,1.32-5.5,1.521-11.562Z" transform="translate(0 2.85)"/><path class="cls-3" d="M320.44,52.4a2.8,2.8,0,0,0,2.125.8,9.019,9.019,0,0,0,1.819-.221,4.591,4.591,0,0,0,.595-1.734c0-.458-.324-.73-1.207-.952a1.355,1.355,0,0,1,.764-.186,3.592,3.592,0,0,1,1.326.289c.425.169.613.356.613.56,0,.119-.069.238-.273.493-.153.2-.356.51-.493.7-.306.493-.306.493-.425.663a5.606,5.606,0,0,0,2.449-1.088.474.474,0,0,1,.322-.119c.663,0,1.139.238,1.139.561,0,.2-.221.374-.731.544a27.286,27.286,0,0,1-3.705.969c-.307.425-.511.731-.9,1.326-.459.714-.6.9-.918,1.36a4.6,4.6,0,0,1,2.192-.68,1.885,1.885,0,0,1,1.9,1.7c.289-.136.289-.136,1.666-.833,1.683-.85,2.091-1.122,2.091-1.428,0-.289-.289-.595-.782-.8a.827.827,0,0,1,.39-.1,2.386,2.386,0,0,1,1.921,1.717c0,.306-.135.425-.611.527a27.638,27.638,0,0,0-4.556,1.751c.017.544.017.646.017,1.377a4.712,4.712,0,0,1-.136,1.461.538.538,0,0,1-.475.323.509.509,0,0,1-.544-.51,1.948,1.948,0,0,1,.016-.288,16,16,0,0,0,.119-1.819,8.723,8.723,0,0,0-1.989,1.342,2.279,2.279,0,0,0-.833,1.581c0,.918.936,1.36,2.839,1.36a12.292,12.292,0,0,0,3.417-.476,1.256,1.256,0,0,1,.323-.051c.527,0,1.19.476,1.19.85,0,.221-.187.391-.528.459a18.874,18.874,0,0,1-3.042.238,8.8,8.8,0,0,1-3.451-.493,1.864,1.864,0,0,1-1.258-1.8,3.233,3.233,0,0,1,1.224-2.328,12.281,12.281,0,0,1,2.108-1.513,2.862,2.862,0,0,0-.238-1.343.966.966,0,0,0-.867-.51c-1.121,0-2.464.9-3.688,2.465-.323.442-.459.544-.629.544-.272,0-.459-.357-.459-.9,0-.357.017-.374.493-.765a13.692,13.692,0,0,0,3.162-3.655,6.456,6.456,0,0,1-1.14.1,2.746,2.746,0,0,1-2.532-1.309Z" transform="translate(0 2.85)"/><path class="cls-3" d="M337.409,64.3a17.138,17.138,0,0,0,1.749-3.124,7.293,7.293,0,0,0,.725-2.075c.426.1.75.175.95.225,1.075.25,1.4.375,1.4.55s-.2.275-1.025.4a16.1,16.1,0,0,1-3.574,4.224Zm3.074-6.024c-.025.2-.05.275-.2.3a5.3,5.3,0,0,1-1.05.1c-.174,0-.25-.05-.25-.225.026-1.674.026-6.873.026-14.371,0-.5-.026-1.125-.075-1.925a13.529,13.529,0,0,1,1.724,1.025h2.6c.4-.45.524-.6.9-1.025.576.425.75.575,1.325,1.05.175.15.225.225.225.3,0,.1-.125.225-.7.575-.024,1.649-.024,2.349-.024,3.4,0,2.6.049,9.5.074,10.547,0,.25-.025.3-.175.35a3.757,3.757,0,0,1-1.05.15c-.224,0-.3-.05-.324-.25v-.725h-3.025Zm3.025-14.521h-3.025v3.824h3.025Zm-3.025,4.4v4.1h3.025v-4.1Zm0,4.674v4.149h3.025V52.824Zm2.525,6.323c1.725,1.3,2.6,2.3,2.6,2.974,0,.75-.4,1.625-.749,1.625-.2,0-.25-.1-.576-1.125a14.559,14.559,0,0,0-1.5-3.249Zm15.421-.475c.375-.7.5-.925.9-1.6.7.774.9,1.024,1.526,1.774a.569.569,0,0,1,.074.25c0,.075-.074.15-.2.15H358.1c0,.925,0,.925.025,3.174,0,1.275-.3,1.5-2.5,1.975a1.691,1.691,0,0,0-.824-1.1,5.18,5.18,0,0,0-2.425-.575v-.35c2.25.125,2.449.125,3.85.15.3,0,.349-.05.349-.35V59.247h-8.2v5c0,.35-.2.4-1.3.4-.175,0-.2-.05-.2-.25.024-.875.024-2.6.074-5.149h-.2a5.574,5.574,0,0,0-1.4.125l-.175-.85a5.908,5.908,0,0,0,1.575.15h.2c0-.875.026-2.024.026-2.7,0-2.325-.026-3.224-.1-4.2a13.937,13.937,0,0,1,1.749,1.025h2.975V50.774h-4.724a7.783,7.783,0,0,0-1.55.125l-.15-.85a7.964,7.964,0,0,0,1.774.15h2.375V47.85h-1.375a10.114,10.114,0,0,0-1.55.1l-.149-.85a7.843,7.843,0,0,0,1.7.175h1.375V45h-1.05a16.286,16.286,0,0,0-2.25.125l-.149-.874a11.332,11.332,0,0,0,2.4.175h1.05V43a5.1,5.1,0,0,0-.125-1.225c.425.05.75.1.949.125,1.226.15,1.5.225,1.5.425,0,.175-.25.3-.9.5v1.6h3V43c0-.45,0-.675-.025-1.225.4.075.75.125.95.15,1.1.15,1.474.275,1.474.475,0,.175-.2.3-.875.475v1.55h1.7c.5-.65.649-.825,1.124-1.425.875.7,1.15.9,1.974,1.625a.307.307,0,0,1,.1.225c0,.075-.1.149-.2.149h-4.7v2.275h1.3c.475-.65.65-.825,1.15-1.425a24.865,24.865,0,0,1,1.95,1.625c.1.1.125.15.125.2,0,.1-.125.175-.226.175h-4.3V50.2h2.175c.525-.65.7-.85,1.225-1.449.925.724,1.2.974,2.024,1.674a.3.3,0,0,1,.1.2c0,.075-.1.15-.2.15H353.03V52.8h3.4c.35-.475.475-.6.825-1.025.65.45.85.6,1.425,1.025.175.125.25.225.25.3,0,.15-.175.3-.825.674v4.9Zm-6.823-5.3h-3.225v2.249h3.225Zm0,2.824h-3.225v2.474h3.225Zm-.85-8.923h3V45h-3Zm0,2.924h3V47.85h-3Zm5.823,3.175H353.03v2.249h3.549Zm0,2.824H353.03v2.474h3.549Z" transform="translate(0 2.85)"/><path class="cls-3" d="M372.358,43.8a11.826,11.826,0,0,0,2.274.25h3.449c.4-.55.525-.725.975-1.275.65.55.849.725,1.474,1.275.2.175.276.275.276.325,0,.2-.125.25-1.65.925a17.989,17.989,0,0,0,1.424,6.723A18.66,18.66,0,0,0,386,59.172a13.755,13.755,0,0,0,4.5,2.275l-.024.274c-1.326.275-1.725.6-2.1,1.825a15.832,15.832,0,0,1-5.7-5.3,22.059,22.059,0,0,1-3.349-8.273,19.431,19.431,0,0,1-4.274,8.348,17.322,17.322,0,0,1-7.4,5.424l-.2-.35a18.262,18.262,0,0,0,5.274-4.524,24.442,24.442,0,0,0,4.548-8.473,19.484,19.484,0,0,0,1.05-5.773h-3.8c-.325,0-.475,0-2.024.125Z" transform="translate(0 2.85)"/><path class="cls-3" d="M279.715,173.265c.492-.646.629-.85,1.1-1.445.765.68,1,.884,1.735,1.581a.235.235,0,0,1,.085.153c0,.051-.085.1-.188.1H276.5v7.377h4.42c.51-.646.68-.833,1.206-1.428.766.68,1,.884,1.717,1.547a.385.385,0,0,1,.068.153c0,.051-.085.119-.17.119h-13.7a5.678,5.678,0,0,0-1.514.136l-.135-.663a8.748,8.748,0,0,0,1.649.136h5.269v-7.377h-4.318a7.724,7.724,0,0,0-1.343.1l-.135-.646a5.724,5.724,0,0,0,1.478.153h4.318v-3.927c0-.782-.034-1.207-.1-2.108a19.342,19.342,0,0,1,1.938.238c.119.051.187.1.187.187,0,.153-.153.255-.833.476v5.134Z" transform="translate(0 2.85)"/><path class="cls-3" d="M291.955,172.347c.34-.442.442-.595.781-1.02l1.225,1.156a.35.35,0,0,1,.085.153c0,.051-.068.1-.153.1h-2.448v5.422c.8-.272,1.258-.459,2.533-.969l.119.221a22.418,22.418,0,0,1-2.4,1.411c-1.342.7-1.411.748-2.43,1.292-.035.17-.052.306-.069.391-.051.272-.135.408-.238.408-.152,0-.152,0-.663-1.8a13.372,13.372,0,0,0,2.058-.595v-5.779h-.97a5.757,5.757,0,0,0-1.088.1l-.118-.612a4.986,4.986,0,0,0,1.206.119h.97v-2.771c0-.527-.018-.731-.1-2.21,1.649.187,1.9.255,1.9.442,0,.119-.187.221-.714.357v4.182Zm5.779-.153c-.016-4.08-.016-4.08-.084-5.117,1.614.221,1.614.221,1.785.323a.2.2,0,0,1,.085.136c0,.119-.069.153-.732.408V171.8l2.4-.884a8.571,8.571,0,0,1,.459-.884c.561.306.731.408,1.241.7.153.136.17.17.17.238,0,.1-.2.306-.561.544a35.1,35.1,0,0,1-.408,5.439,1.472,1.472,0,0,1-.6.969,2.534,2.534,0,0,1-1.088.34c-.068-.714-.357-.986-1.342-1.156v-.272c.629.068,1.088.1,1.41.1.493,0,.578-.12.7-1.088a34.912,34.912,0,0,0,.2-4.59l-2.584.969V175.1c0,1.58.018,2.209.069,3.926-.018.221-.222.289-.833.289-.239,0-.324-.051-.34-.221.034-3.161.05-3.79.05-5.133v-1.343l-2.074.765v6.935c0,.238.018.306.1.34a10.76,10.76,0,0,0,2.345.119c.969,0,2.789-.034,3.128-.051.629-.034.7-.068.884-.493a32.3,32.3,0,0,0,1.071-3.315l.254.034-.254,2.992c-.034.272-.034.272-.034.289,0,.153.034.187.373.357a.378.378,0,0,1,.222.357c0,.357-.392.646-1,.731a20.411,20.411,0,0,1-2.788.1c-1.751.017-1.836.017-2.158.017-2.891,0-3.2-.1-3.247-1.139l.034-3.774v-3.11l-.629.238a3.61,3.61,0,0,0-1.02.527l-.34-.527a5.44,5.44,0,0,0,1.223-.374l.766-.272V171.14c0-.935-.018-1.309-.068-2.142,1.682.221,1.836.255,1.836.442,0,.136-.187.238-.7.391v3.128Z" transform="translate(0 2.85)"/><path class="cls-3" d="M312.356,174.863c-.307,1.071-.783,2.923-.987,3.756a5.8,5.8,0,0,0-.22,1.445c-.018.544-.035.612-.12.748a.385.385,0,0,1-.323.187c-.289,0-.526-.238-.73-.765a10.069,10.069,0,0,1-.544-3.417,25.068,25.068,0,0,1,.764-5.66,7.447,7.447,0,0,0,.255-1.53,2.637,2.637,0,0,0-.493-1.5c.392.017.714.238,1.191.85a2.419,2.419,0,0,1,.611,1.292c0,.187,0,.187-.272.748a13.289,13.289,0,0,0-1.292,5.541,6.744,6.744,0,0,0,.273,2.108l.714-1.7.917-2.192Zm1.7-3.077a3.534,3.534,0,0,0,2.193.7,9.129,9.129,0,0,0,1.938-.238V171.5c0-1.9-.017-2.125-.239-2.363a1.733,1.733,0,0,0-1.122-.391.944.944,0,0,1,.817-.272,5,5,0,0,1,1.156.153c.492.153.747.357.747.612,0,.119,0,.136-.152.527a7.631,7.631,0,0,0-.358,2.278,4.116,4.116,0,0,0,1.565-.7c.17-.17.22-.187.374-.187a2.026,2.026,0,0,1,.8.221.364.364,0,0,1,.22.306c0,.374-1.241.884-3.009,1.224a33.5,33.5,0,0,0,.221,4.623c1.972.527,2.805,1.19,2.805,2.176,0,.357-.152.629-.34.629-.136,0-.255-.085-.6-.425a5.237,5.237,0,0,0-1.836-1.36,3.362,3.362,0,0,1,.018.408c0,1.224-1.021,1.955-2.72,1.955-1.479,0-2.516-.714-2.516-1.734,0-1.173,1.257-1.921,3.2-1.921.322,0,.56.017,1.037.051v-.289l-.034-1.818-.018-2.176a7.533,7.533,0,0,1-1.5.136,3.383,3.383,0,0,1-2.805-1.19Zm2.6,6.2c-1.342,0-2.175.442-2.175,1.19,0,.595.663,1,1.666,1a1.956,1.956,0,0,0,1.87-.8,2.138,2.138,0,0,0,.22-1.19A5.486,5.486,0,0,0,316.655,177.99Z" transform="translate(0 2.85)"/><path class="cls-3" d="M327,171.71a30,30,0,0,0,3.425-6.723A32.47,32.47,0,0,0,332,159.363c2.324.65,2.725.8,2.725,1.05s-.35.4-1.125.475a31.969,31.969,0,0,1-2.825,6.273c1.575.25,1.95.375,1.95.6,0,.175-.075.225-.725.475v8.223c0,1.725,0,1.949.025,5.174,0,.3-.15.35-.8.4a5.965,5.965,0,0,0-.625.05h-.05c-.226,0-.325-.1-.351-.375.051-4.7.075-7.249.075-8.948v-4.724a25.629,25.629,0,0,1-2.973,3.874Zm16.172-7.9v-2.674a13.319,13.319,0,0,0-.1-1.65c2.575.275,2.85.35,2.85.65,0,.225-.1.275-1.075.65v3.024h1.474c.55-.7.7-.925,1.3-1.6.925.825,1.175,1.075,2.025,1.875a1.019,1.019,0,0,1,.05.175c0,.125-.025.125-.25.125h-4.6v4.149H346.7l1.375-1.7c.95.8,1.225,1.025,2.124,1.825.1.125.151.2.151.25,0,.1-.175.2-.375.2H335.45a16.025,16.025,0,0,0-2.249.15l-.275-1a12.011,12.011,0,0,0,2.524.275h1.85v-4.149h-1.375a13.174,13.174,0,0,0-1.949.125l-.175-.975a8.393,8.393,0,0,0,2.124.275H337.3v-2.6a13.832,13.832,0,0,0-.1-1.725c1,.1,2.15.25,2.45.325.2.05.3.15.3.25,0,.225-.174.325-1,.6v3.149Zm-6.1,17.8c-.025.15-.05.225-.175.275a6.529,6.529,0,0,1-1.25.15c-.2,0-.3-.075-.3-.25.024-1.5.075-6.5.075-9.423,0-.825,0-1.2-.075-2.174.874.474,1.149.624,2.074,1.149h7.423c.4-.5.525-.65.974-1.149.6.4,1.1.749,1.526,1.024.2.15.3.25.3.35,0,.15-.151.325-.75.775v1.8c0,3.025.049,6.249.1,7.374-.024.225-.05.25-.224.325a6.812,6.812,0,0,1-1.2.125c-.35,0-.425-.05-.425-.35v-1.375h-8.073Zm8.073-6.3v-3.4h-8.073v3.4Zm-8.073.575v3.774h8.073v-3.774Zm1.874-7.348h4.225v-4.149h-4.225Z" transform="translate(0 2.85)"/><path class="cls-3" d="M362.626,181.783a13.1,13.1,0,0,0,6.6-11.922,11.8,11.8,0,0,0-.925-5.149,2.048,2.048,0,0,0-1.775-1.1c-1.25,0-2.4,1.075-3.3,3.124a14.061,14.061,0,0,0-1.175,5.374c0,.425.025.7.1,1.55a3.514,3.514,0,0,1,.025.525c0,.474-.225.749-.65.749-.95,0-1.574-2.024-1.574-5.123a29.952,29.952,0,0,1,.8-6.7,10.477,10.477,0,0,0,.274-1.824c0-.8-.349-1.275-1.349-1.775a1.543,1.543,0,0,1,.45-.125,3.88,3.88,0,0,1,2,.825c.7.5.975.9.975,1.4a1.483,1.483,0,0,1-.35.949,17.981,17.981,0,0,0-1.8,7.448c0,.225,0,.475.026.925h.049c.75-3.2,1.675-5.273,2.9-6.548a4.049,4.049,0,0,1,3.049-1.475c2.4,0,4.1,2.95,4.1,7.124a12.411,12.411,0,0,1-2.724,8.172,12.675,12.675,0,0,1-5.524,3.95Z" transform="translate(0 2.85)"/><path class="cls-3" d="M391.825,162.712c-.975.3-3.324,1.225-5.049,1.975a2.95,2.95,0,0,1-1.025.325c-.449,0-.949-.35-1.425-1.05a3.577,3.577,0,0,1-.7-1.849,1.025,1.025,0,0,1,.225-.65c.375,1.174,1.049,1.824,1.875,1.824a27.225,27.225,0,0,0,4.723-1.075,3.179,3.179,0,0,0,1.55-.774.6.6,0,0,1,.35-.125c.325,0,.724.25,1.349.874.576.55.75.825.75,1.125,0,.175-.125.325-.424.475a6.963,6.963,0,0,0-2.075,1.675c-1.575,1.574-2.5,2.5-3.675,3.749-2.4,2.574-2.4,2.574-2.923,3.1l.049.05c2.675-1.675,4.7-2.374,6.8-2.374,3.2,0,5.35,1.874,5.35,4.673,0,3.574-3.324,6.224-7.849,6.224-2.449,0-4.024-.975-4.024-2.5,0-1.225,1.15-2.125,2.7-2.125a4.611,4.611,0,0,1,3.174,1.225,5.148,5.148,0,0,1,1.1,1.549,4.921,4.921,0,0,0,3.024-4.674,3.451,3.451,0,0,0-1.55-3.1,5.541,5.541,0,0,0-2.474-.5c-2.45,0-5.874,2-7.948,4.649-.425.525-.6.675-.85.675-.375,0-.825-.875-.825-1.625a1.194,1.194,0,0,1,.525-.874,23.1,23.1,0,0,0,3.474-3.474c3.049-3.425,4-4.524,5.974-7.074a1.451,1.451,0,0,0,.25-.4s-.051-.05-.075-.05a.024.024,0,0,0-.025.025h-.076a.987.987,0,0,1-.124.05Zm-3.849,14.347c-.95,0-1.575.5-1.575,1.274,0,.925,1.1,1.525,2.849,1.525a6.64,6.64,0,0,0,1.775-.225A3.274,3.274,0,0,0,387.976,177.059Z" transform="translate(0 2.85)"/><path class="cls-3" d="M273.152,190.6a14.784,14.784,0,0,0-1.3,1.976,8.413,8.413,0,0,0-.95,4.147,8.505,8.505,0,0,0,.95,4.134,14.784,14.784,0,0,0,1.3,1.976l-.195.195a6.881,6.881,0,0,1-1.612-1.755,8.084,8.084,0,0,1-1.4-4.537,8.181,8.181,0,0,1,3.016-6.331Z" transform="translate(0 2.85)"/><path class="cls-3" d="M276.961,200.163l-.234.806c-.065.143-.13.195-.247.195h-.026c-.1-.013-.195-.013-.3-.026-.312-.013-.429-.052-.429-.156a.694.694,0,0,1,.065-.234,28.254,28.254,0,0,0,.962-3.536h-1.145c-.181,0-.285,0-.935.052l-.078-.429a7.567,7.567,0,0,0,1.092.078h1.118a30.017,30.017,0,0,0,.546-3.2,8.126,8.126,0,0,1,1.066.624h4.888a8.378,8.378,0,0,1,.586-.624c.338.273.441.351.754.624.1.078.142.13.142.208,0,.1-.1.195-.429.351-.039.663-.039.663-.143,2.015h.508c.311-.377.416-.507.779-.91.494.429.65.572,1.118,1.027a.136.136,0,0,1,.039.091.114.114,0,0,1-.117.091H284.19c-.066,1.04-.157,1.872-.274,2.652h.455c.325-.39.429-.52.793-.923.494.429.637.572,1.106,1.014a.153.153,0,0,1,.051.1.128.128,0,0,1-.13.1h-2.314a4.5,4.5,0,0,1-.519,1.612c-.274.442-.546.585-1.561.793-.078-.663-.078-.663-1.924-1.092v-.195c2.015.169,2.015.169,2.21.169.482,0,.637-.234.858-1.287Zm6.981-7.631c.351-.429.468-.559.833-.962.533.442.7.572,1.221,1.04a.374.374,0,0,1,.052.117c0,.052-.065.1-.155.1h-8.464a11.669,11.669,0,0,1-2.665,2.9l-.13-.117a14.1,14.1,0,0,0,2.119-3.289,7,7,0,0,0,.676-1.69c1.287.351,1.521.442,1.521.572s-.091.156-.65.26c-.3.507-.4.663-.663,1.066Zm-4.446,7.332.1-.416c.131-.559.26-1.222.429-2.236h-2.353c-.195.962-.364,1.638-.637,2.652Zm.585-2.951a21.918,21.918,0,0,0,.3-2.275h-2.236c-.156,1-.234,1.456-.4,2.275Zm.819.3c-.221,1.352-.286,1.677-.52,2.652h2.613c.13-.819.208-1.391.312-2.652Zm2.431-.3c.078-1.144.1-1.417.144-2.275h-2.25c-.117,1.248-.117,1.248-.273,2.275Z" transform="translate(0 2.85)"/><path class="cls-3" d="M290.377,197.81a7.852,7.852,0,0,1-.818,2.639,6.664,6.664,0,0,1-1.821,2.184l-.117-.117a8.081,8.081,0,0,0,1.691-3.445,22.5,22.5,0,0,0,.311-4.511c0-1.781-.025-2.925-.078-3.666.521.3.689.39,1.2.715h4.85c.169-.208.338-.416.493-.585.378.247.482.325.846.585.169.13.195.156.195.195,0,.065-.039.091-.508.377v5.33c0,2.028,0,2.028.014,3.861-.014.663-.234.832-1.509,1.144a.706.706,0,0,0-.532-.663,8.373,8.373,0,0,0-1.69-.325v-.208c1.052.052,1.157.052,2.535.091h.039l.051.013c.013,0,.013,0,.118-.052.025-.013.039-.039.039-.13V197.81Zm5.305-2.964h-5.136a21.911,21.911,0,0,1-.116,2.665h5.252Zm0-2.938h-5.1c0,.208-.013,1.092-.025,2.639h5.122Z" transform="translate(0 2.85)"/><path class="cls-3" d="M299.321,199.617a11.811,11.811,0,0,1,2.536,1.248,1.315,1.315,0,0,1,.688,1.144c0,.416-.247.858-.468.858a.427.427,0,0,1-.182-.078c-.091-.078-.091-.078-.662-.936a10.176,10.176,0,0,0-2-2.067Z" transform="translate(0 2.85)"/><path class="cls-3" d="M305.444,194.4a14.8,14.8,0,0,0,2.353-2.353,4.768,4.768,0,0,0,.78-1.248c1,.364,1.236.481,1.236.6s-.144.156-.534.156a16.646,16.646,0,0,1-1.482,1.43c.7.13.845.169.845.273,0,.065-.091.117-.312.169v2.015a.123.123,0,0,1-.1.117c-.052.013-.468.052-.6.052s-.156-.039-.156-.169c.026-.845.026-.962.026-1.794v-.4a13.749,13.749,0,0,1-1.95,1.313Zm.195,8.19a11.061,11.061,0,0,0,2.691-.936,3.955,3.955,0,0,0,1.106-.715c.935.338,1.3.507,1.3.611s-.129.169-.351.169a4.5,4.5,0,0,1-.494-.039,10.958,10.958,0,0,1-4.212,1.079Zm8.567-6.578c.222-.234.286-.3.507-.52.3.221.391.286.689.52.1.091.143.143.143.182,0,.065-.1.143-.39.312v1.56c0,1.118,0,1.82.027,2.535a.181.181,0,0,1-.078.169,2.5,2.5,0,0,1-.69.091c-.091,0-.117-.039-.117-.13v-.208h-5.72v.286c-.012.078-.039.1-.091.117a2.746,2.746,0,0,1-.663.065c-.143,0-.182-.039-.182-.169.039-.988.052-1.859.052-3.107s0-1.612-.013-2.054a7.938,7.938,0,0,1,.9.351Zm.091.3h-5.72v1.118h5.72Zm-5.72,1.417v1.027h5.72v-1.027Zm0,1.326v1.17h5.72v-1.17Zm4.486-5.824h2.508c.3-.377.4-.494.715-.845.533.4.676.533,1.17.949a.248.248,0,0,1,.053.1c0,.039-.066.091-.117.091h-4.329v1.235h1.962c.273-.351.365-.455.637-.767.482.364.624.481,1.067.858a.16.16,0,0,1,.078.117c0,.039-.066.091-.13.091H310.41a7.9,7.9,0,0,0-1.04.052l-.065-.455a4.148,4.148,0,0,0,1.105.1h1.872v-1.235H309.89a4.75,4.75,0,0,0-.962.065l-.065-.455a4.134,4.134,0,0,0,1.027.091h2.392V192.1a20.112,20.112,0,0,1-2.9.156l-.013-.208a24.379,24.379,0,0,0,3.887-.689,7.8,7.8,0,0,0,1.664-.572c.937.559,1.171.715,1.171.806,0,.052-.092.1-.183.1a3.252,3.252,0,0,1-.558-.117c-1.04.221-1.431.3-2.288.429Zm-.5,7.813a23.554,23.554,0,0,1,3.549.481,1.092,1.092,0,0,1,.585.442,1.357,1.357,0,0,1,.235.663.2.2,0,0,1-.183.221c-.116,0-.155-.013-.493-.221a13.542,13.542,0,0,0-3.732-1.391Z" transform="translate(0 2.85)"/><path class="cls-3" d="M321.8,196.484a10.965,10.965,0,0,1,1.105.546,1.916,1.916,0,0,1,.6.494c.078.091.091.182.091.4,0,.39-.155.754-.312.754-.09,0-.169-.078-.247-.247a4.344,4.344,0,0,0-1.235-1.677c0,.338.026,2.262.065,5.746-.026.1-.065.13-.169.156a2.578,2.578,0,0,1-.506.065c-.183,0-.261-.052-.274-.221.065-1.079.065-1.079.078-3.419l.091-2.431a14.957,14.957,0,0,1-1.313,2.626,8.305,8.305,0,0,1-1.183,1.56l-.13-.078a17.656,17.656,0,0,0,1.573-3.133,12.047,12.047,0,0,0,.663-1.963h-1.378a3.164,3.164,0,0,0-.572.078l-.052-.494a2.28,2.28,0,0,0,.624.117h1.677v-2.834a13.917,13.917,0,0,0-.117-1.716c1.275.13,1.456.169,1.456.312,0,.117-.142.2-.546.286v3.952h.781a5.6,5.6,0,0,1,.584-.767,7.428,7.428,0,0,1,.936.871.19.19,0,0,1,.065.1c0,.052-.065.091-.168.091H321.8Zm-2.782-4.589a6.463,6.463,0,0,1,.9,1.209,1.61,1.61,0,0,1,.338.806c0,.377-.26.806-.494.806-.091,0-.13-.039-.169-.182a5.529,5.529,0,0,0-.117-.689,10.037,10.037,0,0,0-.572-1.9Zm3.146,2.821a11.988,11.988,0,0,0,.572-1.755,6.462,6.462,0,0,0,.248-1.157c.974.273,1.195.364,1.195.481,0,.091-.116.143-.429.169-.221.442-.273.546-.689,1.248a5.373,5.373,0,0,1-.767,1.066Zm6.852,3.484c.247-.442.324-.572.571-1a12.865,12.865,0,0,1,1.132.65c.13.091.194.169.194.221a.165.165,0,0,1-.142.13l-2.093.4.013,1.248c0,.364.012.91.039,1.664.012.4.012.442.012.923a.2.2,0,0,1-.078.156,2.092,2.092,0,0,1-.649.091c-.156,0-.222-.052-.222-.182,0-.572.014-2.561.014-3.731l-3.628.689a3.346,3.346,0,0,0-.637.208l-.169-.455h.117a4.675,4.675,0,0,0,.612-.052l3.7-.728v-2.743c0-2.691-.027-4.16-.105-4.875,1.183.13,1.522.208,1.522.351,0,.117-.13.182-.56.312-.012,1.092-.012,2.015-.012,2.548,0,.78.012,2.808.026,4.238Zm-4.655-2.808a6.792,6.792,0,0,1,2,.949.616.616,0,0,1,.208.572c0,.39-.143.728-.312.728-.13,0-.221-.091-.4-.39a7.472,7.472,0,0,0-1.574-1.755Zm.429-3.276a10.549,10.549,0,0,1,1.6.832.9.9,0,0,1,.455.923c0,.429-.116.689-.324.689-.118,0-.157-.052-.377-.481a7,7,0,0,0-1.444-1.82Z" transform="translate(0 2.85)"/><path class="cls-3" d="M332.289,193.091a2.139,2.139,0,0,0,1.625.611,6.891,6.891,0,0,0,1.391-.169,3.511,3.511,0,0,0,.455-1.326c0-.351-.247-.559-.923-.728a1.031,1.031,0,0,1,.585-.143,2.75,2.75,0,0,1,1.014.221c.325.13.468.273.468.429,0,.091-.052.182-.208.377-.117.156-.273.39-.377.533-.234.377-.234.377-.325.507a4.273,4.273,0,0,0,1.872-.832.366.366,0,0,1,.247-.091c.507,0,.871.182.871.429,0,.156-.168.286-.559.416a20.845,20.845,0,0,1-2.834.741c-.233.325-.39.559-.689,1.014-.351.546-.455.689-.7,1.04a3.518,3.518,0,0,1,1.677-.52,1.442,1.442,0,0,1,1.456,1.3c.221-.1.221-.1,1.275-.637,1.287-.65,1.6-.858,1.6-1.092s-.221-.455-.6-.611a.633.633,0,0,1,.3-.078,1.824,1.824,0,0,1,1.469,1.313c0,.234-.1.325-.468.4a21.143,21.143,0,0,0-3.484,1.339c.014.416.014.494.014,1.053a3.561,3.561,0,0,1-.1,1.118.412.412,0,0,1-.364.247.39.39,0,0,1-.416-.39,1.417,1.417,0,0,1,.013-.221,12.417,12.417,0,0,0,.091-1.391,6.607,6.607,0,0,0-1.521,1.027,1.74,1.74,0,0,0-.637,1.209c0,.7.715,1.04,2.171,1.04a9.4,9.4,0,0,0,2.613-.364.96.96,0,0,1,.247-.039c.4,0,.911.364.911.65,0,.169-.144.3-.4.351a14.451,14.451,0,0,1-2.327.182,6.722,6.722,0,0,1-2.639-.377,1.424,1.424,0,0,1-.962-1.378,2.472,2.472,0,0,1,.936-1.781,9.392,9.392,0,0,1,1.612-1.157,2.176,2.176,0,0,0-.182-1.027.74.74,0,0,0-.663-.39,4.117,4.117,0,0,0-2.821,1.885c-.247.338-.351.416-.481.416-.208,0-.351-.273-.351-.689,0-.273.013-.286.377-.585a10.47,10.47,0,0,0,2.418-2.795,4.929,4.929,0,0,1-.871.078,2.1,2.1,0,0,1-1.937-1Z" transform="translate(0 2.85)"/><path class="cls-3" d="M352.7,193.026c.351-.429.455-.559.806-.962.6.442.78.585,1.339,1.066.039.065.065.091.065.117,0,.052-.051.078-.143.078h-5.5v2.3h1.807c.234-.26.312-.338.585-.6.416.3.533.39.936.7.091.078.13.13.13.182,0,.117-.156.195-.7.364a14.33,14.33,0,0,1-2.588,3.146,10.121,10.121,0,0,0,1.4.741,11.835,11.835,0,0,0,4.057.988v.169a1.134,1.134,0,0,0-.976,1.014,12.778,12.778,0,0,1-3.744-1.534,10.72,10.72,0,0,1-1.287-.9,11.025,11.025,0,0,1-1.872,1.222,13.076,13.076,0,0,1-3.926,1.339l-.066-.195a15.066,15.066,0,0,0,5.305-2.9,10.468,10.468,0,0,1-1.6-2.093,8.449,8.449,0,0,1-.637-1.352h-.624a5.938,5.938,0,0,0-1.131.078l-.078-.52a4.973,4.973,0,0,0,1.274.143h2.873v-2.3h-3.887a8.566,8.566,0,0,0-1.288.078l-.09-.507a7.085,7.085,0,0,0,1.468.13h3.8v-.819a13.064,13.064,0,0,0-.052-1.43c1.131.117,1.222.13,1.339.156s.169.091.169.143c0,.117-.169.208-.6.351v1.6Zm-6.279,2.9a9.191,9.191,0,0,0,2.366,3.029,11.855,11.855,0,0,0,2.288-3.029Z" transform="translate(0 2.85)"/><path class="cls-3" d="M359.914,193.741l.676-.832c.455.4.6.546,1.04.988a.185.185,0,0,1,.026.078c0,.039-.052.065-.131.065h-2.274v2.574c.871-.273,1.235-.4,2.158-.754l.078.156c-.936.52-1.287.7-2.223,1.131V199.4c0,1.742,0,1.742.012,2.379a.589.589,0,0,1-.35.572,2.778,2.778,0,0,1-.936.338c-.131-.416-.182-.507-.351-.611a2.45,2.45,0,0,0-1.092-.26l.013-.247c1.183.065,1.183.065,1.7.078.13-.013.143-.026.143-.156v-3.978c-.637.312-.715.351-1.2.559-.052.611-.065.676-.183.676s-.169-.078-.61-1.339a14.711,14.711,0,0,0,1.989-.533V194.04h-1.183a5.561,5.561,0,0,0-.82.052l-.064-.429a3.316,3.316,0,0,0,.871.078h1.2v-1.417a10.6,10.6,0,0,0-.091-1.56,6.419,6.419,0,0,1,1.3.143c.1.026.156.065.156.13,0,.1-.13.169-.52.3v2.405Zm4.694,2.34a28.786,28.786,0,0,1,2.2,2.873,3.568,3.568,0,0,1,.871,1.885c0,.65-.26,1.287-.532,1.287-.144,0-.2-.1-.286-.52a11.185,11.185,0,0,0-.4-1.339,60.43,60.43,0,0,1-5.915,1.4c-.052.533-.091.676-.222.676-.155,0-.208-.143-.532-1.573h.3a7.58,7.58,0,0,0,.806-.052c.494-1.417.793-2.418,1.339-4.485.338-1.3.755-3.237.949-4.407a5.287,5.287,0,0,0,.078-.793c1.417.26,1.586.312,1.586.468,0,.117-.117.169-.637.286a47.2,47.2,0,0,1-1.859,6.266c-.442,1.183-.767,1.989-1.066,2.613a47.946,47.946,0,0,0,5.057-.715,19.751,19.751,0,0,0-1.885-3.744Z" transform="translate(0 2.85)"/><path class="cls-3" d="M372.537,202.542a7.17,7.17,0,0,0,1.717-1.872,7.994,7.994,0,0,0,1.1-3.952c0-1.287-.467-2.08-1.235-2.08a3.99,3.99,0,0,0-2.5,1.534c-.246.247-.324.3-.532.3a1.189,1.189,0,0,1-.859-.585,1.646,1.646,0,0,1-.35-.871.7.7,0,0,1,.208-.481c.116.572.377.9.715.9a3.523,3.523,0,0,0,1.195-.507,4.135,4.135,0,0,1,2.2-.741,2.057,2.057,0,0,1,1.613.871,3.433,3.433,0,0,1,.494,1.911,6.34,6.34,0,0,1-1.613,4.2,5.965,5.965,0,0,1-2.041,1.521Zm-.715-11.817a3.825,3.825,0,0,0,2.432.832h.3a1.007,1.007,0,0,1,.7.312.645.645,0,0,1,.272.442c0,.182-.181.286-.533.286-.546.013-.546.013-3.236.793l-.066-.182c.975-.442,1.873-.845,2.2-.962a3.025,3.025,0,0,1-2.2-1.417Z" transform="translate(0 2.85)"/><path class="cls-3" d="M382.509,201.19a1.678,1.678,0,1,1-1.677-1.677A1.681,1.681,0,0,1,382.509,201.19Zm-2.939,0a1.272,1.272,0,0,0,1.262,1.261,1.261,1.261,0,1,0-1.262-1.261Z" transform="translate(0 2.85)"/><path class="cls-3" d="M268.017,220.993a8.093,8.093,0,0,0,1.365-1.7,7.331,7.331,0,0,0,.624-1.235c1.014.351,1.2.429,1.2.546s-.1.143-.494.208a10.758,10.758,0,0,1-2.535,2.353Zm4.511-9.4v-.767c0-.377-.013-.793-.052-1.2,1.248.117,1.378.143,1.378.3,0,.091-.1.156-.481.286v1.378h.3c.26-.312.338-.4.585-.7.377.351.494.455.858.806a.181.181,0,0,1,.052.117c0,.052-.039.078-.169.078h-1.625v5.486h.221a5.6,5.6,0,0,1,.559-.767c.338.364.455.481.793.858a1.059,1.059,0,0,1,.026.117c0,.065-.026.091-.143.091h-5.746a6.7,6.7,0,0,0-.923.065l-.065-.468a3.8,3.8,0,0,0,1.066.1h.377v-5.486h-.611a2.267,2.267,0,0,0-.767.091l-.065-.494a2.807,2.807,0,0,0,.832.1h.611v-.533c0-.442-.026-1.053-.065-1.469,1.261.13,1.443.169,1.443.312,0,.117-.117.182-.546.286v1.4Zm-2.158,1.833h2.158v-1.534H270.37Zm0,1.859h2.158v-1.56H270.37Zm0,2.093h2.158v-1.794H270.37Zm1.613.806c1.248.455,1.767.832,1.767,1.274,0,.351-.169.7-.338.7-.13,0-.169-.039-.39-.481a8.661,8.661,0,0,0-.611-.884,6.522,6.522,0,0,0-.533-.546Zm4.082-1.781a8.032,8.032,0,0,1-.781,2.743,7.026,7.026,0,0,1-1.69,2.184l-.208-.143a7.554,7.554,0,0,0,1.639-3.159,22.769,22.769,0,0,0,.35-5.148,24.283,24.283,0,0,0-.078-3.081,8.717,8.717,0,0,1,1.053.611h1.911c.208-.26.286-.351.494-.611.352.234.455.3.78.546.1.078.143.13.143.195,0,.117-.116.221-.429.377v7.306l.013.754c0,.234.013.52.013.884a1.378,1.378,0,0,1-.1.676c-.182.338-.416.455-1.313.6a.871.871,0,0,0-.325-.585,2.116,2.116,0,0,0-1.2-.325l.013-.221c1.287.091,1.287.091,1.834.091.142-.013.194-.078.194-.247V216.4Zm.129-2.886a24.256,24.256,0,0,1-.09,2.587h2.274v-2.587Zm2.184-.3V210.71h-2.184c.013.468.013.715.013.936,0,.1,0,.7-.013,1.573Z" transform="translate(0 2.85)"/><path class="cls-3" d="M282.525,213.648V221.2c-.013.091-.039.117-.13.156a3.494,3.494,0,0,1-.624.052c-.117,0-.156-.026-.169-.13.039-1.1.052-3.172.052-6.435,0-3.38-.013-4.537-.052-5.278.39.247.52.325.923.585h2.665c.234-.26.312-.338.52-.585.312.26.4.338.69.585.09.078.116.13.116.169,0,.078-.1.169-.377.325v1.417c0,.676.013,1.1.039,1.9-.013.1-.026.143-.078.169a2.964,2.964,0,0,1-.65.052c-.091-.013-.117-.039-.156-.143v-.39Zm2.769-3.2h-2.769v1.274h2.769Zm0,1.573h-2.769v1.326h2.769Zm0,8.06c-.013.078-.026.1-.117.13a2.986,2.986,0,0,1-.533.065c-.117,0-.156-.039-.169-.13.013-1.066.026-1.651.026-2.223,0-1.534-.013-2.743-.039-3.237.429.234.559.312.975.559h3.043c.247-.221.324-.286.558-.507.274.221.364.3.637.546.117.091.143.13.143.182,0,.078-.052.117-.429.312v1.43c0,.884.013,1.378.039,2.392v.013c-.013.117-.026.143-.116.182a2.717,2.717,0,0,1-.56.052c-.117,0-.169-.026-.182-.117v-.455h-3.276Zm3.276-4.537h-3.276V217h3.276Zm-3.276,1.755v1.677h3.276V217.3Zm3.276-3.653v.338c-.026.156-.129.2-.481.2-.325,0-.364-.026-.364-.169.026-.819.039-1.222.039-1.95,0-1.872,0-1.976-.039-2.483.416.234.547.312.936.572h2.717c.234-.26.313-.338.533-.585.351.26.455.338.78.585.1.091.143.13.143.182,0,.091-.039.117-.4.377v6.253c0,2.171,0,2.171.012,3.393-.039.6-.273.767-1.4,1.014a1.036,1.036,0,0,0-.455-.6,2.03,2.03,0,0,0-.688-.195c-.456-.078-.7-.13-.742-.13v-.195c1.053.065,1.313.078,2.12.091.194,0,.233-.039.233-.182v-6.513Zm2.938-3.2H288.57v1.274h2.938Zm0,1.573H288.57v1.326h2.938Z" transform="translate(0 2.85)"/><path class="cls-3" d="M297.124,215.624c-.234.819-.6,2.236-.754,2.873a4.4,4.4,0,0,0-.169,1.1c-.013.416-.026.468-.092.572a.292.292,0,0,1-.247.143c-.22,0-.4-.182-.558-.585a7.7,7.7,0,0,1-.416-2.613,19.122,19.122,0,0,1,.585-4.329,5.7,5.7,0,0,0,.195-1.17,2.022,2.022,0,0,0-.377-1.144c.3.013.546.182.91.65a1.847,1.847,0,0,1,.468.988c0,.143,0,.143-.208.572a10.163,10.163,0,0,0-.988,4.238,5.158,5.158,0,0,0,.208,1.612l.546-1.3.7-1.677Zm1.3-2.353a2.7,2.7,0,0,0,1.677.533,6.975,6.975,0,0,0,1.482-.182v-.572c0-1.456-.013-1.625-.183-1.807a1.32,1.32,0,0,0-.857-.3.72.72,0,0,1,.624-.208,3.821,3.821,0,0,1,.884.117c.377.117.572.273.572.468,0,.091,0,.1-.117.4a5.842,5.842,0,0,0-.273,1.742,3.143,3.143,0,0,0,1.2-.533c.13-.13.169-.143.286-.143a1.543,1.543,0,0,1,.611.169.278.278,0,0,1,.169.234c0,.286-.949.676-2.3.936a25.632,25.632,0,0,0,.169,3.536c1.508.4,2.145.91,2.145,1.664,0,.273-.117.481-.26.481-.1,0-.195-.065-.455-.325a4,4,0,0,0-1.4-1.04,2.721,2.721,0,0,1,.013.312c0,.936-.78,1.5-2.08,1.5-1.131,0-1.924-.546-1.924-1.326,0-.9.961-1.469,2.444-1.469.247,0,.429.013.793.039v-.221l-.026-1.391-.013-1.664a5.763,5.763,0,0,1-1.144.1,2.587,2.587,0,0,1-2.145-.91Zm1.989,4.745c-1.027,0-1.664.338-1.664.91,0,.455.507.767,1.274.767a1.5,1.5,0,0,0,1.43-.611,1.634,1.634,0,0,0,.169-.91A4.2,4.2,0,0,0,300.413,218.016Z" transform="translate(0 2.85)"/><path class="cls-3" d="M307.121,215.182a2.985,2.985,0,0,1,2.3-.936,2.717,2.717,0,0,1,2.86,2.912c0,1.833-1.287,3.016-3.3,3.016-1.521,0-2.783-.767-2.783-1.677,0-.377.235-.572.7-.572.416,0,.533.1.559.533a1.416,1.416,0,0,0,1.56,1.365c1.235,0,2.054-1.027,2.054-2.574a3.483,3.483,0,0,0-.468-1.859,1.719,1.719,0,0,0-1.469-.741,2.49,2.49,0,0,0-2.2,1.508l-.4-.052.43-5.356h4.914l-.182,1.014h-4.3Z" transform="translate(0 2.85)"/><path class="cls-3" d="M314.336,212a2.914,2.914,0,0,1,5.031,0,8.02,8.02,0,0,1,0,6.734,2.757,2.757,0,0,1-2.509,1.443,2.788,2.788,0,0,1-2.522-1.443,8.02,8.02,0,0,1,0-6.734Zm2.522,7.839c1.391,0,2-1.365,2-4.472s-.611-4.472-2-4.472-2,1.378-2,4.485S315.467,219.836,316.858,219.836Z" transform="translate(0 2.85)"/><path class="cls-3" d="M328.194,214.194h1.951c.338-.364.441-.468.779-.832.481.39.638.507,1.105.923a.19.19,0,0,1,.065.1c0,.052-.078.1-.155.1h-3.745v2.925h2.73c.351-.4.469-.52.832-.91.546.416.715.546,1.209.975.053.052.078.091.078.117a.132.132,0,0,1-.143.117h-4.706v1.625c0,.377,0,.429.052,1.807-.026.208-.156.26-.663.26-.286,0-.364-.039-.377-.208.027-.455.065-1.443.065-1.859v-1.625h-4.758c-.351,0-.923.026-1.236.052l-.078-.455a8.083,8.083,0,0,0,1.314.1h1.118v-2.509a11.7,11.7,0,0,0-.039-1.339,10.722,10.722,0,0,1,1.157.624h2.522V211.8h-2.964a12.521,12.521,0,0,1-2.653,2.9l-.129-.143a9.039,9.039,0,0,0,1.169-1.521,13.817,13.817,0,0,0,1.743-3.575c1.443.468,1.521.507,1.521.611a.176.176,0,0,1-.091.143,2.2,2.2,0,0,1-.585.117l-.78,1.17h6.084c.338-.39.442-.507.78-.871.52.4.676.52,1.209.962a.193.193,0,0,1,.066.1c0,.065-.066.1-.144.1h-4.3Zm-3.628.3v2.925h2.705v-2.925Z" transform="translate(0 2.85)"/><path class="cls-3" d="M334.551,221.578c1.716-2.288,2.249-3.744,2.249-6.11a8.918,8.918,0,0,0-2.249-6.123l.195-.195a8.064,8.064,0,0,1,3.016,6.292,8.183,8.183,0,0,1-3.016,6.331Z" transform="translate(0 2.85)"/><rect class="cls-3" x="8.165" y="172.146" width="215.064" height="63.757"/><polygon class="cls-4" points="185.706 171.809 39.545 171.809 39.545 62.456 113.641 14.751 185.706 62.456 185.706 171.809"/><rect class="cls-5" x="81.455" y="77.538" width="29.306" height="29.306"/><rect class="cls-5" x="114.49" y="77.538" width="29.306" height="29.306"/><rect class="cls-5" x="81.455" y="111.114" width="29.306" height="29.306"/><rect class="cls-5" x="114.49" y="111.114" width="29.306" height="29.306"/><line class="cls-6" x1="194.259" y1="54.973" x2="118.198" y2="3.309"/><path class="cls-7" d="M53.97,213.382a14.028,14.028,0,0,1,2.515-6.629c1.326-1.9,2.754-3.264,7.106-6.8a10.621,10.621,0,0,0,2.583-2.652,5.6,5.6,0,0,0,.748-2.856,4.471,4.471,0,0,0-4.623-4.793,3.947,3.947,0,0,0-4.046,2.651,9.125,9.125,0,0,0-.34,2.482c-.068,1.156-.442,1.462-1.632,1.462-1.257,0-1.734-.408-1.734-1.394,0-3.5,3.4-6.119,7.956-6.119,2.855,0,5.235.918,6.527,2.549a5.5,5.5,0,0,1,1.088,3.6c0,2.822-1.259,4.556-5.032,6.867-4.249,2.618-5.167,3.3-6.663,4.76a9.668,9.668,0,0,0-2.788,4.317H65.46c2.448,0,3.3-.747,3.978-3.6l1.02.238-.918,5.915Z" transform="translate(0 2.85)"/><path class="cls-7" d="M77.144,205.286c1.975-2.782,3.874-4.082,6.032-4.082,1.43,0,2.756.546,6.6,2.808,2.991,1.716,4.343,2.288,5.565,2.288a3.84,3.84,0,0,0,2.106-.78,9.08,9.08,0,0,0,2.106-2.262l.6.39a9.958,9.958,0,0,1-2.392,3.068,4.547,4.547,0,0,1-3.328,1.4,6.453,6.453,0,0,1-1.69-.234c-1.014-.286-1.846-.7-4.862-2.5-2.731-1.638-4.681-2.418-6.007-2.418-1.143,0-2.7,1.066-4.16,2.834Z" transform="translate(0 2.85)"/><path class="cls-7" d="M115.242,200.736a9.473,9.473,0,0,1,3.808.951,5.723,5.723,0,0,1,3.06,5.27c0,4.181-3.366,6.969-8.431,6.969-4.42,0-7.717-2.108-7.717-4.929,0-1.088.611-1.6,1.938-1.6.985,0,1.359.34,1.427,1.292.069,1.666.239,2.311.85,3.059a4.26,4.26,0,0,0,3.366,1.258c3.365,0,5.337-2.243,5.337-6.085,0-2.38-.815-4.148-2.277-4.93a8.931,8.931,0,0,0-3.944-.816h-1.5V200.09h1.5a6.941,6.941,0,0,0,3.7-1.02,4.962,4.962,0,0,0,1.939-4.318,6.536,6.536,0,0,0-.851-3.4,3.751,3.751,0,0,0-3.535-1.7c-2.55,0-3.842,1.325-4.012,4.045-.068,1.292-.374,1.632-1.563,1.632-1.259,0-1.8-.374-1.8-1.292,0-2.89,3.366-5.3,7.412-5.3,4.318,0,7.479,2.515,7.479,5.949a5.369,5.369,0,0,1-2.787,4.624,11.351,11.351,0,0,1-3.4,1.122Z" transform="translate(0 2.85)"/><path class="cls-7" d="M133.393,198.019a28.467,28.467,0,0,1-.306,4.406h5.834a12.322,12.322,0,0,1,.857-.938c.653.449.836.591,1.428,1.02.122.1.163.163.163.2,0,.143-.1.2-.775.571a51.718,51.718,0,0,1-.51,5.508c-.367,2.448-.775,3.713-1.407,4.264-.449.388-.817.51-2.347.735a1.248,1.248,0,0,0-.856-1.143,14.612,14.612,0,0,0-2.918-.592v-.326c2.1.143,3.55.224,4.427.224.49,0,.632-.04.776-.2.326-.368.551-1.1.856-2.877a38.791,38.791,0,0,0,.551-5.978h-6.161a16.822,16.822,0,0,1-1.673,5.448,14.479,14.479,0,0,1-3.876,4.488,14.306,14.306,0,0,1-2.06,1.285l-.163-.306a14.059,14.059,0,0,0,3.814-3.937c1.714-2.53,2.611-5.652,2.8-9.874.041-.613.041-.919.041-1.979h-4a19.366,19.366,0,0,0-2.388.142l-.122-.795a12.235,12.235,0,0,0,2.51.183H140.35c.571-.714.734-.918,1.305-1.611.9.734,1.162.958,2.02,1.734.081.081.122.143.122.2,0,.081-.081.143-.244.143Z" transform="translate(0 2.85)"/><path class="cls-7" d="M148.2,208.811c0,1.958,0,2.04.021,4.692-.021.347-.266.449-1.1.449-.347,0-.47-.082-.47-.347.062-4.509.1-10.241.1-14.77,0-1.673,0-1.694-.041-2.653a13.964,13.964,0,0,1,1.693,1.041h12.016a6.142,6.142,0,0,1,.775-1.02c.551.408.735.551,1.306,1.02.163.163.225.245.225.326,0,.123-.082.184-.654.592v9.486c.021,1.551.021,3.081.021,4.57-.021.959-.367,1.184-2.509,1.592a1.714,1.714,0,0,0-.633-1.1,2.715,2.715,0,0,0-1.1-.327c-.021,0-.225-.04-.633-.081-.2-.02-.428-.041-.632-.082l.02-.347c1,.062,1,.062,3.631.2h.082c.245,0,.306-.061.306-.244v-7.181H148.2Zm5.386-11.119H148.2v6.467h5.386Zm7.038,6.467v-6.467h-5.59v6.467Z" transform="translate(0 2.85)"/><path class="cls-7" d="M170.6,197.345h1L164.687,215.4h-1.021Z" transform="translate(0 2.85)"/><path class="cls-7" d="M177.4,206.771a12.33,12.33,0,0,1-1.286,4.141,10.434,10.434,0,0,1-2.856,3.427l-.184-.183a12.667,12.667,0,0,0,2.653-5.407,35.321,35.321,0,0,0,.489-7.079c0-2.795-.041-4.59-.122-5.753.815.469,1.081.612,1.877,1.122h7.609c.265-.326.531-.653.776-.918.59.388.755.51,1.326.918.264.2.305.245.305.306,0,.1-.061.143-.8.592V206.3c0,3.183,0,3.183.02,6.059-.02,1.041-.367,1.306-2.366,1.8a1.11,1.11,0,0,0-.837-1.041,13.146,13.146,0,0,0-2.652-.51v-.326c1.653.081,1.816.081,3.978.143h.062l.081.02c.02,0,.02,0,.183-.082.041-.02.062-.061.062-.2v-5.385Zm8.323-4.652h-8.059a34.412,34.412,0,0,1-.183,4.182h8.242Zm0-4.61h-8c0,.326-.021,1.713-.041,4.141h8.038Z" transform="translate(0 2.85)"/><line class="cls-2" x1="207.432" y1="203.456" x2="253.078" y2="203.456"/></svg>