<svg id="レイヤー_1" data-name="レイヤー 1" xmlns="http://www.w3.org/2000/svg" viewBox="0 0 233 118"><defs><style>.cls-1{fill:none;}.cls-2{fill:#525a70;}.cls-3{fill:#8e8b7a;}</style></defs><rect class="cls-1" width="233" height="118"/><g id="_2" data-name="2"><path class="cls-2" d="M117.262,113.41l-.263.263-4.161-4.148-4.138,4.148-.264-.263,4.139-4.149-4.117-4.115.264-.264L112.838,109l4.117-4.116.263.264-4.116,4.115Zm-6.2-4.149a.988.988,0,1,1-.988-.988A1,1,0,0,1,111.06,109.261Zm2.755-2.755a.988.988,0,1,1-.987-.987A1,1,0,0,1,113.815,106.506Zm0,5.51a.988.988,0,1,1-.987-.988A1,1,0,0,1,113.815,112.016Zm2.756-2.755a.988.988,0,1,1-.988-.988A1,1,0,0,1,116.571,109.261Z"/><path class="cls-2" d="M121.268,112.235c.91,0,1.119-.066,1.327-.241a2.432,2.432,0,0,0,.583-.856c.033-.077.065-.088.175-.055s.121.066.109.132c-.142.559-.361,1.338-.547,1.909-.7-.032-1.329-.032-2.032-.032s-1.34,0-2.042.032c-.1,0-.131-.022-.131-.2a.355.355,0,0,1,.077-.285,25.878,25.878,0,0,1,1.921-2.766c.9-1.163,1.416-1.756,1.416-2.755,0-.867-.363-1.525-1.043-1.525a.977.977,0,0,0-.944.614,2.042,2.042,0,0,0-.11.79c0,.3-.384.494-.746.494-.231,0-.407-.088-.407-.395a2.22,2.22,0,0,1,2.207-1.844,1.917,1.917,0,0,1,2.118,1.91c0,1.372-.888,1.9-1.921,2.919a9.827,9.827,0,0,0-1.811,2.151Z"/><path class="cls-3" d="M46.112,12.109l-5.1.121V10.6c7.033,0,8.921-.847,10.95-2.177l.708.544c-.094,1.875-.188,3.751-.188,5.567V51.862l5.1.061V53.5H41.014V51.923l5.1-.061Z"/><path class="cls-3" d="M62.635,60.152c2.926-1.574,4.2-3.389,4.484-6.354a2.874,2.874,0,0,1-1.653.545c-1.935,0-3.256-1.816-3.256-4.357,0-2.723,1.463-4.719,3.54-4.719,2.266,0,3.681,2.3,3.681,5.929a10.883,10.883,0,0,1-6.325,10.226Z"/><path class="cls-3" d="M83.639,54.161c-6.844,0-12.177-9.983-12.177-22.75S76.8,8.66,83.639,8.66c6.891,0,12.225,9.863,12.225,22.69C95.864,44.238,90.53,54.161,83.639,54.161Zm-4.154-6.05c.661,3.388,2.171,4.6,4.2,4.6,2.313,0,3.587-1.513,4.248-4.9.566-2.844.944-9.016.944-16.458,0-7.563-.378-13.856-.991-16.578-.755-3.389-2.124-4.6-4.248-4.6-2.313,0-3.587,1.512-4.2,4.6-.613,3.146-.991,8.773-.991,16.457A104.651,104.651,0,0,0,79.485,48.111Z"/><path class="cls-3" d="M111.585,54.161c-6.845,0-12.178-9.983-12.178-22.75S104.74,8.66,111.585,8.66c6.89,0,12.224,9.863,12.224,22.69C123.809,44.238,118.475,54.161,111.585,54.161Zm-4.154-6.05c.66,3.388,2.171,4.6,4.2,4.6,2.312,0,3.586-1.513,4.247-4.9.567-2.844.944-9.016.944-16.458,0-7.563-.377-13.856-.991-16.578-.755-3.389-2.124-4.6-4.247-4.6-2.313,0-3.588,1.512-4.2,4.6-.614,3.146-.991,8.773-.991,16.457A104.651,104.651,0,0,0,107.431,48.111Z"/><path class="cls-3" d="M139.532,54.161c-6.845,0-12.178-9.983-12.178-22.75S132.687,8.66,139.532,8.66c6.89,0,12.224,9.863,12.224,22.69C151.756,44.238,146.422,54.161,139.532,54.161Zm-4.154-6.05c.66,3.388,2.171,4.6,4.2,4.6,2.313,0,3.587-1.513,4.248-4.9.567-2.844.944-9.016.944-16.458,0-7.563-.377-13.856-.991-16.578-.755-3.389-2.124-4.6-4.247-4.6-2.314,0-3.588,1.512-4.2,4.6-.614,3.146-.992,8.773-.992,16.457A104.617,104.617,0,0,0,135.378,48.111Z"/><path class="cls-3" d="M167.5,36.573c3.778.623,5.273,1.7,5.273,3.819a2.574,2.574,0,0,1-2.657,2.657c-1.246,0-1.661-.582-1.661-2.242v-.456a3.969,3.969,0,0,0-1-3.155c.083,2.532.291,17.1.291,18.388a1.556,1.556,0,0,1-.582,1.329,4.487,4.487,0,0,1-2.657.83c-1.328,0-1.827-.374-1.827-1.37,0-.373.083-1.328.083-1.868.124-3.445.291-7.886.374-11.83a22.18,22.18,0,0,1-3.654,4.691c-.748.7-1.2,1.121-1.536,1.369a1.351,1.351,0,0,1-.5.249c-.083,0-.124-.124-.124-.207s.083-.208.291-.54c2.283-3.32,4.525-11.041,5.148-17.683H160.65a19.328,19.328,0,0,0-2.2.125c-.54-.747-.581-.831-.581-.914a.3.3,0,0,1,.332-.29c.539.042,1.246.083,1.578.083h3.2V27.607c0-.913-.042-4.027-.084-7.347,0-.291.042-.374.208-.374.125,0,.789.083,1.2.124,3.2.291,4.485.748,4.485,1.495,0,.415-.167.623-1.246,1.245-.042,1.2-.083,4.857-.083,6.808H168c.333-.5.5-.789,1.08-1.7a1.341,1.341,0,0,1,1-.789c.663,0,2.408,2.034,2.408,2.823a.687.687,0,0,1-.748.7H167.46Zm18.435,5.313a11.921,11.921,0,0,0,3.944,5.936,25.326,25.326,0,0,0,6.394,3.985c.914.374,1.245.5,1.245.664,0,.083-.041.125-.331.249a8.214,8.214,0,0,0-3.446,3.487,1.108,1.108,0,0,1-.913.623c-1.288,0-3.779-2.366-5.025-4.857-1.2-2.49-1.868-5.272-2.366-10.087h-.249c.249,6.476.373,10.585.373,12.744v.539c0,1.038-.042,1.287-.457,1.7a4.806,4.806,0,0,1-3.2.913c-1.162,0-1.66-.331-1.66-1.2v-.374c0-.706.125-4.151.29-7.223a20.888,20.888,0,0,1-8.22,6.476,19.289,19.289,0,0,1-4.194,1.453c-.166,0-.29-.042-.29-.166s.083-.208.5-.415a17.748,17.748,0,0,0,4.317-3.2,32.062,32.062,0,0,0,7.433-11.249h-2.533v.5c0,.955-1.411,1.7-3.155,1.7-.873,0-1.288-.29-1.288-1.037l.167-6.1V32.754c0-1.992-.042-3.072-.042-3.736,0-.207.042-.249.208-.249a14.051,14.051,0,0,1,3.321.706,2.5,2.5,0,0,1,1.288.83h2.532l-.042-4.151h-4.359c-1.578,0-3.2.042-4.775.166-.747-.83-.788-.913-.788-1a.3.3,0,0,1,.331-.291c1.371.083,3.156.166,4.028.166h5.563c-.041-1.826-.083-4.608-.083-5.064,0-.373,0-.456.208-.456.083,0,.83.041,1.827.124a15.415,15.415,0,0,1,3.2.54c.457.166.788.5.788.83,0,.374-.29.664-1.2,1.2V25.2h4.235c1.91-2.656,2.45-3.237,3.03-3.237,1.039,0,3.7,2.532,3.7,3.528,0,.373-.374.664-.872.664H185.23v4.151H188.3c1.33-1.826,1.454-1.951,1.993-1.951.582,0,1.744.706,3.114,1.868.872.747,1.163,1.121,1.163,1.536,0,.207-.166.539-1.121,1.287,0,1.12.083,3.57.208,7.347.041.706.041,1.2.041,1.411a1.393,1.393,0,0,1-.623,1.328,5.039,5.039,0,0,1-2.74.789,2.072,2.072,0,0,1-1.66-.539,5.377,5.377,0,0,1-.167-1.495ZM180.58,31.26h-2.574a1.075,1.075,0,0,0-.457.7V35.7h3.072Zm-3.031,5.355v4.4h3.031l.041-4.4ZM188.51,31.8c0-.416-.125-.54-.581-.54h-2.7V35.7h3.322Zm-3.28,4.815v4.4h3.322v-4.4Z"/><path class="cls-3" d="M50.726,91.271c.025,4.939-3.573,8.965-3.573,8.965s-3.644-3.989-3.671-8.926,3.571-8.961,3.571-8.961,3.647,3.98,3.673,8.922"/><path class="cls-3" d="M33.855,93.2c4.928.359,8.658,4.261,8.658,4.261s-4.256,3.32-9.182,2.959-8.662-4.256-8.662-4.256,4.257-3.323,9.186-2.964"/><path class="cls-3" d="M22.116,81.121c4.9.621,8.417,4.715,8.417,4.715S26.1,88.925,21.2,88.3s-8.421-4.717-8.421-4.717,4.434-3.087,9.336-2.464"/><path class="cls-3" d="M14.178,65.888c4.752,1.352,7.612,5.928,7.612,5.928S16.947,74.2,12.2,72.851,4.584,66.92,4.584,66.92s4.844-2.388,9.594-1.032"/><path class="cls-3" d="M9.477,48.4c4.156,2.68,5.559,7.89,5.559,7.89s-5.331.873-9.48-1.8S0,46.59,0,46.59s5.327-.869,9.477,1.808"/><path class="cls-3" d="M40.162,83.5c-.7,4.886-4.854,8.339-4.854,8.339S32.29,87.362,33,82.473s4.855-8.341,4.855-8.341,3.014,4.481,2.311,9.372"/><path class="cls-3" d="M31.61,71.948c-1.123,4.81-5.563,7.888-5.563,7.888s-2.616-4.725-1.488-9.532,5.559-7.888,5.559-7.888,2.614,4.724,1.492,9.532"/><path class="cls-3" d="M25.136,58.943c-2.374,4.332-7.474,6.1-7.474,6.1s-1.253-5.25,1.125-9.58,7.477-6.1,7.477-6.1,1.246,5.252-1.128,9.581"/><path class="cls-3" d="M22.359,44.4c-2.81,4.064-8.068,5.3-8.068,5.3s-.7-5.352,2.113-9.413,8.067-5.3,8.067-5.3.7,5.354-2.112,9.414"/><path class="cls-3" d="M16.063,33.318c.348,4.928-2.982,9.18-2.982,9.18s-3.894-3.74-4.244-8.666,2.982-9.177,2.982-9.177,3.891,3.735,4.244,8.663"/><path class="cls-3" d="M82.886,115.918,82.461,118c-.67-.141-66.883-14.455-70.627-77.109l2.119-.13C17.6,101.778,82.234,115.786,82.886,115.918Z"/><path class="cls-3" d="M182.275,91.271c-.027,4.939,3.572,8.965,3.572,8.965s3.644-3.989,3.671-8.926-3.571-8.961-3.571-8.961-3.647,3.98-3.672,8.922"/><path class="cls-3" d="M199.146,93.2c-4.929.359-8.659,4.261-8.659,4.261s4.256,3.32,9.182,2.959,8.662-4.256,8.662-4.256-4.257-3.323-9.185-2.964"/><path class="cls-3" d="M210.884,81.121c-4.9.621-8.417,4.715-8.417,4.715S206.9,88.925,211.8,88.3s8.42-4.717,8.42-4.717-4.434-3.087-9.336-2.464"/><path class="cls-3" d="M218.821,65.888c-4.75,1.352-7.611,5.928-7.611,5.928s4.844,2.385,9.593,1.035,7.612-5.931,7.612-5.931-4.842-2.388-9.594-1.032"/><path class="cls-3" d="M223.523,48.4c-4.156,2.68-5.558,7.89-5.558,7.89s5.331.873,9.479-1.8S233,46.59,233,46.59s-5.326-.869-9.477,1.808"/><path class="cls-3" d="M192.838,83.5c.7,4.886,4.854,8.339,4.854,8.339s3.018-4.481,2.311-9.37-4.854-8.341-4.854-8.341-3.014,4.481-2.311,9.372"/><path class="cls-3" d="M201.39,71.948c1.123,4.81,5.563,7.888,5.563,7.888s2.616-4.725,1.488-9.532-5.559-7.888-5.559-7.888-2.615,4.724-1.492,9.532"/><path class="cls-3" d="M207.864,58.943c2.375,4.332,7.474,6.1,7.474,6.1s1.253-5.25-1.125-9.58-7.476-6.1-7.476-6.1-1.247,5.252,1.127,9.581"/><path class="cls-3" d="M210.641,44.4c2.81,4.064,8.068,5.3,8.068,5.3s.7-5.352-2.113-9.413-8.068-5.3-8.068-5.3-.7,5.354,2.113,9.414"/><path class="cls-3" d="M216.937,33.318c-.348,4.928,2.982,9.18,2.982,9.18s3.894-3.74,4.244-8.666-2.983-9.177-2.983-9.177-3.89,3.735-4.243,8.663"/><path class="cls-3" d="M150.114,115.918l.425,2.082c.669-.141,66.883-14.455,70.627-77.109l-2.119-.13C215.405,101.778,150.766,115.786,150.114,115.918Z"/><path class="cls-3" d="M73.84,70.856H71.611a8.636,8.636,0,0,0-1.247.075v-.868a8.169,8.169,0,0,0,1.247.075h5.213a8.145,8.145,0,0,0,1.246-.075v.868a8.264,8.264,0,0,0-1.246-.075h-2.2v2.052h2.43a7.479,7.479,0,0,0,1.209-.076v.856a6.817,6.817,0,0,0-1.209-.075H74.62v2.794a11.263,11.263,0,0,0,2.053.139c1.02,0,1.888-.038,2.946-.126a2.32,2.32,0,0,0-.277.881c-1.1.026-1.184.026-1.523.026a17.073,17.073,0,0,1-2.758-.1c-1.964-.277-3.2-1.032-3.865-2.367a8.525,8.525,0,0,1-1.915,2.858,2.327,2.327,0,0,0-.654-.592,6.693,6.693,0,0,0,1.7-2.241,7.958,7.958,0,0,0,.768-2.87v-.126l.881.176c-.037.164-.037.164-.151.655-.063.3-.252,1.032-.34,1.334a3.843,3.843,0,0,0,1,1.385,4.217,4.217,0,0,0,1.36.768Zm-.189-3.563a4.279,4.279,0,0,0-.076-.793h.982a3.306,3.306,0,0,0-.088.781V67.9h3.677c.491,0,.856-.013,1.259-.051a5.675,5.675,0,0,0-.05.856V69.5a5.981,5.981,0,0,0,.05.893h-.818V68.628H69.8V70.39h-.831a5.981,5.981,0,0,0,.05-.893V68.7a5.667,5.667,0,0,0-.05-.856c.4.038.768.051,1.272.051h3.412Z"/><path class="cls-3" d="M82.393,67.772a8.008,8.008,0,0,0-.075-1.2H83.2a8.169,8.169,0,0,0-.063,1.208v.227h2.317v-.239a7.3,7.3,0,0,0-.063-1.2h.869a7.474,7.474,0,0,0-.076,1.208v.227a5.31,5.31,0,0,0,1.045-.076v.806a6.961,6.961,0,0,0-1.045-.05v5.375A6.178,6.178,0,0,0,87.178,74v.78c-.29-.024-.655-.037-1.146-.037H82.053a5.327,5.327,0,0,0-1.02.063V74a5.169,5.169,0,0,0,1.007.063h.353V68.691h-.075a5.653,5.653,0,0,0-1.083.063v-.819a5.24,5.24,0,0,0,1.083.076h.075Zm1.3,7.8a7.146,7.146,0,0,1-1.964,2.178,1.766,1.766,0,0,0-.579-.6,5.013,5.013,0,0,0,1.888-1.964ZM85.453,70V68.691H83.136V70Zm0,1.964V70.642H83.136v1.322Zm0,2.1v-1.46H83.136v1.46Zm-.189,1.108a4.653,4.653,0,0,0,1.234,1.3,2.611,2.611,0,0,0-.579.542A6.361,6.361,0,0,1,84.7,75.564Zm3.211-1.435A6.756,6.756,0,0,1,87,77.818a2,2,0,0,0-.617-.58,4.884,4.884,0,0,0,1.246-2.845,56.593,56.593,0,0,0,.214-5.84,12.7,12.7,0,0,0-.05-1.486,10.116,10.116,0,0,0,1.209.05h1.737a9.769,9.769,0,0,0,1.2-.05,9.9,9.9,0,0,0-.051,1.221v8.485c0,.427-.113.692-.34.818a2.451,2.451,0,0,1-1.02.138c-.176,0-.315-.012-.994-.05a3.388,3.388,0,0,0-.2-.894,6.944,6.944,0,0,0,1.385.164c.3,0,.4-.076.4-.277V73.739Zm.113-3.009c-.025,1.234-.025,1.5-.075,2.3h2.606v-2.3Zm2.531-2.908H88.6v2.2h2.518Z"/><path class="cls-3" d="M95.115,72.14c0-.453.012-.843.05-1.549a9.792,9.792,0,0,1-1.259,1.952,2.57,2.57,0,0,0-.5-.692,11.409,11.409,0,0,0,2.216-3.84,7.341,7.341,0,0,0,.478-1.75l.882.227c-.076.189-.076.189-.365,1.082a18.231,18.231,0,0,1-.718,1.889V76.37c0,.579.026,1.045.063,1.472h-.919a12.568,12.568,0,0,0,.076-1.51Zm6.811-4.066V67.6a7,7,0,0,0-.075-1.132h.919a7.336,7.336,0,0,0-.076,1.158v.453h.706a8.9,8.9,0,0,0,1.259-.063v.805a9.848,9.848,0,0,0-1.247-.05h-.718v1.725h1.121a8.046,8.046,0,0,0,1.272-.076v.856a8.193,8.193,0,0,0-1.272-.075H97.9a9.546,9.546,0,0,0-1.284.063v-.831a7.327,7.327,0,0,0,1.259.063h.969V68.766H98.3a10,10,0,0,0-1.234.05v-.805a11.046,11.046,0,0,0,1.259.063h.516V67.6a7.332,7.332,0,0,0-.075-1.132h.919a7.025,7.025,0,0,0-.075,1.158v.453ZM97.7,73.185a6.729,6.729,0,0,0-.05-.944,8.723,8.723,0,0,0,1.121.05h3.992a8.468,8.468,0,0,0,1.12-.05,6.919,6.919,0,0,0-.051.994V76.5a10.1,10.1,0,0,0,.064,1.359h-.831v-.692h-4.6v.692h-.831a11.988,11.988,0,0,0,.062-1.322Zm.769,1.158h4.6V73h-4.6Zm0,2.14h4.6v-1.46h-4.6Zm3.462-5.992V68.766H99.61v1.725Z"/><path class="cls-3" d="M107.873,67.973a10.367,10.367,0,0,0-.075-1.4h.932a10.389,10.389,0,0,0-.076,1.41v1.875h.352a4.714,4.714,0,0,0,1.008-.063v.819a7.822,7.822,0,0,0-1.02-.05h-.34v3.952c.542-.251.768-.365,1.423-.73l.075.768a24.233,24.233,0,0,1-3.248,1.536c-.176.063-.365.151-.5.214l-.214-.869a7.072,7.072,0,0,0,1.687-.566V70.567h-.466a4.778,4.778,0,0,0-1.057.075v-.856a4.652,4.652,0,0,0,1.057.075h.466Zm3.854,8.158c0,.3.075.4.377.478a9.17,9.17,0,0,0,2.027.113c1.775,0,2.3-.075,2.506-.365a3.653,3.653,0,0,0,.264-1.7,2.324,2.324,0,0,0,.806.327c-.151,2.329-.377,2.48-3.651,2.48-2.607,0-3.123-.189-3.123-1.171v-4.62l-.277.088a6.992,6.992,0,0,0-1.045.4l-.226-.856a4.892,4.892,0,0,0,1.095-.251l.453-.152V68.93a9.032,9.032,0,0,0-.076-1.284h.945a8.844,8.844,0,0,0-.075,1.246v1.762l1.8-.6V67.722a8.163,8.163,0,0,0-.075-1.172h.931a8.446,8.446,0,0,0-.076,1.184V69.8l1.939-.642a8.893,8.893,0,0,0,1-.39c-.05,1.259-.1,2.14-.2,3.374-.088,1.12-.252,1.649-.579,1.838a1.721,1.721,0,0,1-.906.176c-.114,0-.265-.013-.555-.037a2.935,2.935,0,0,0-.189-.794,4.483,4.483,0,0,0,.97.114c.289,0,.352-.063.416-.429a25.544,25.544,0,0,0,.2-3.184l-2.091.717v3.475a8.291,8.291,0,0,0,.076,1.208h-.931A8.389,8.389,0,0,0,113.527,74v-3.2l-1.8.6Z"/><path class="cls-3" d="M120.619,67.7a7.711,7.711,0,0,0-.062-1.3h.881a8.255,8.255,0,0,0-.063,1.284v1.158h.315a4.991,4.991,0,0,0,.819-.05v.78a7.447,7.447,0,0,0-.782-.038h-.315a4.613,4.613,0,0,0,1.448,1.989,3.1,3.1,0,0,0-.465.617,5.428,5.428,0,0,1-1.07-1.573c.025.692.05,1.422.05,2.026v3.84a10.4,10.4,0,0,0,.075,1.46h-.906a8.724,8.724,0,0,0,.088-1.46V72.87a10.087,10.087,0,0,1,.038-1.108c.038-.491.051-.642.063-1.12a9.91,9.91,0,0,1-1.674,3.9,2.936,2.936,0,0,0-.517-.667,10.737,10.737,0,0,0,1.964-4.343h-.7a5.115,5.115,0,0,0-.868.051v-.793a5.045,5.045,0,0,0,.868.05h.818Zm6.447,7.138h1.423a5.527,5.527,0,0,0,1.045-.063v.768a6.209,6.209,0,0,0-1.045-.063h-1.423V76.6H128.7a9.049,9.049,0,0,0,1.3-.063v.806a10.407,10.407,0,0,0-1.31-.076h-4.557v.617h-.819a7.151,7.151,0,0,0,.088-1.309V73.764c0-.315.013-.667.038-.995a7.472,7.472,0,0,1-1.02.957,1.777,1.777,0,0,0-.5-.541,9.57,9.57,0,0,0,2.707-3.021h-.73a5.05,5.05,0,0,0-1.057.075v-.818a5.918,5.918,0,0,0,1.07.063h1.082a6.935,6.935,0,0,0,.492-1.221h-1.347a9.45,9.45,0,0,1-.869,1.057,1.44,1.44,0,0,0-.592-.453,5.19,5.19,0,0,0,1.234-1.574,4.161,4.161,0,0,0,.378-.918l.742.239c-.176.39-.264.566-.478.956h3.765a9.054,9.054,0,0,0,1.36-.075v.83a10.309,10.309,0,0,0-1.372-.062h-2.066c-.2.553-.29.78-.49,1.221h3.009a8.01,8.01,0,0,0,1.284-.076v.831a8.6,8.6,0,0,0-1.284-.075h-3.362A8.227,8.227,0,0,1,124.5,71.5h1.965a4.426,4.426,0,0,0,.567-1.146l.692.252a6.208,6.208,0,0,1-.517.894h1.474a7.006,7.006,0,0,0,1.158-.076v.793a10.8,10.8,0,0,0-1.171-.062h-1.6v1.019h1.423a5.861,5.861,0,0,0,1.045-.063v.768a7.691,7.691,0,0,0-1.045-.063h-1.423Zm-.692-2.681h-2.241v1.019h2.241Zm-2.241,1.661v1.02h2.241v-1.02Zm0,2.782h2.241v-1.12h-2.241Z"/><path class="cls-3" d="M134.134,76.319c0,.579.025,1.058.063,1.5h-.944a12.835,12.835,0,0,0,.076-1.524v-4.2c0-.554.012-.945.049-1.523a10.511,10.511,0,0,1-1.41,1.938l-.087-.139a1.932,1.932,0,0,0-.467-.553,12.413,12.413,0,0,0,2.531-3.84,6.892,6.892,0,0,0,.554-1.611l.907.289a5.062,5.062,0,0,0-.315.718c-.176.441-.579,1.309-.957,2.027Zm6.812.151c0,.831-.264,1.033-1.4,1.033-.491,0-.969-.026-1.524-.076a2.768,2.768,0,0,0-.238-.856,10.218,10.218,0,0,0,1.724.151c.517,0,.63-.063.63-.327V70.176h-3.953a9.638,9.638,0,0,0-1.348.076V69.37a9.176,9.176,0,0,0,1.31.076h3.991V68a9.5,9.5,0,0,0-.088-1.472h.97A11.828,11.828,0,0,0,140.946,68v1.448h.617a7.636,7.636,0,0,0,1.2-.076v.857c-.39-.038-.793-.051-1.2-.051h-.617ZM136.325,71.3a16.03,16.03,0,0,1,2.128,2.844l-.706.542a12.876,12.876,0,0,0-2.077-2.933Z"/><path class="cls-3" d="M145.5,72.165c0-.566.026-1.07.064-1.649a10.353,10.353,0,0,1-1.348,1.913,1.528,1.528,0,0,0-.453-.717,11.416,11.416,0,0,0,2.367-3.638,8.829,8.829,0,0,0,.529-1.687l.831.264a23.592,23.592,0,0,1-1.184,2.77v6.835a10.361,10.361,0,0,0,.089,1.473h-.983a9.6,9.6,0,0,0,.088-1.511Zm3.224-2.316c-.479,0-.945.025-1.323.063v-.881a8.961,8.961,0,0,0,1.323.075h4.973a9.5,9.5,0,0,0,1.335-.075v.881c-.365-.038-.844-.063-1.322-.063h-2.242v2.656h1.865a9.307,9.307,0,0,0,1.309-.076v.857c-.378-.038-.844-.063-1.3-.063h-1.877v3.26h2.607a9.8,9.8,0,0,0,1.373-.076v.869c-.378-.038-.857-.063-1.373-.063H148.2c-.528,0-1.006.025-1.385.063v-.869a9.734,9.734,0,0,0,1.361.076h2.467v-3.26h-1.561c-.466,0-.919.025-1.31.063v-.857a9.113,9.113,0,0,0,1.3.076h1.574V69.849Zm1.145-3.374a15.617,15.617,0,0,1,2.531,1.6l-.592.642a10.3,10.3,0,0,0-2.492-1.675Z"/><path class="cls-3" d="M161.125,71.12c-1.51.29-1.951.365-3.424.58a2.752,2.752,0,0,0-.391-.769,29.678,29.678,0,0,0,6.547-1.3,5.62,5.62,0,0,0,1.411-.579l.705.692c-.29.076-.29.076-1.221.39-.768.265-1.977.6-2.783.806v1.825l4.571-.554a9.879,9.879,0,0,0,1.246-.239l.089.907h-.189a9.3,9.3,0,0,0-1.084.075l-4.633.579v2.594c0,.327.05.427.314.516a8.82,8.82,0,0,0,1.852.113,5.874,5.874,0,0,0,2.392-.239c.289-.164.365-.5.415-1.762a2.187,2.187,0,0,0,.806.352c-.088,1.284-.264,1.787-.7,2.065-.4.264-1.107.339-2.946.339a7.158,7.158,0,0,1-2.543-.239c-.34-.164-.429-.378-.429-1.007V73.638l-2.933.352a8.974,8.974,0,0,0-1.26.24l-.1-.907h.2a9.084,9.084,0,0,0,1.07-.075l3.022-.378Zm.655-3.915a3.27,3.27,0,0,0-.088-.768h.982a4,4,0,0,0-.076.768V67.8h3.715a12.634,12.634,0,0,0,1.271-.05,5.594,5.594,0,0,0-.049.856v.831a5.757,5.757,0,0,0,.049.881h-.83V68.54h-8.8v1.775h-.831a5.8,5.8,0,0,0,.051-.881V68.6a5.537,5.537,0,0,0-.051-.856,12.393,12.393,0,0,0,1.259.05h3.4Z"/><path class="cls-3" d="M84.433,83.34c-.051.152-.1.277-.189.555a18.173,18.173,0,0,1-.957,2.378v6.874c0,.541.025,1.07.063,1.472h-.931a12.307,12.307,0,0,0,.075-1.51V88.98c0-.579.013-.944.037-1.523A9.1,9.1,0,0,1,81.21,89.4a.821.821,0,0,1-.076-.138A1.914,1.914,0,0,0,80.9,88.9c-.114-.125-.176-.2-.189-.213a11.833,11.833,0,0,0,2.115-3.248,9.571,9.571,0,0,0,.731-2.367Zm2.808,8.17a10.989,10.989,0,0,1-2.821,3.022,2.558,2.558,0,0,0-.667-.6,8.2,8.2,0,0,0,2.77-2.882Zm2.153-5.551V84.41a6.367,6.367,0,0,0-.076-1.044h.945a5.271,5.271,0,0,0-.076,1.044v1.549h.806a7.283,7.283,0,0,0,1.171-.076v.881a7.65,7.65,0,0,0-1.171-.075h-.806v3.1H91.32a8.13,8.13,0,0,0,1.222-.075V90.6a8.362,8.362,0,0,0-1.222-.076H85.125a8.291,8.291,0,0,0-1.208.076V89.71a7.6,7.6,0,0,0,1.208.075h1.058v-3.1h-.629a7.449,7.449,0,0,0-1.172.075v-.881a7.418,7.418,0,0,0,1.172.076h.629V84.4a6.9,6.9,0,0,0-.075-1.032h.931a6.491,6.491,0,0,0-.063,1.044v1.549Zm0,3.826v-3.1H86.976v3.1Zm.29,1.209a9.414,9.414,0,0,0,2.845,2.883,4.243,4.243,0,0,0-.629.692,12.279,12.279,0,0,1-2.909-3.134Z"/><path class="cls-3" d="M93.641,88.7a4.611,4.611,0,0,0,.592.026c.113,0,.176,0,.466-.013.516-.68.516-.68.743-1.02a14.863,14.863,0,0,0-1.8-2.1l.491-.554c.252.277.315.352.5.554a9.362,9.362,0,0,0,1.146-2.417l.793.315a4.194,4.194,0,0,0-.479.868,18.144,18.144,0,0,1-1.019,1.75c.415.5.5.629.768.982a13.538,13.538,0,0,0,1.41-2.581l.768.39a5.624,5.624,0,0,0-.3.491c-.592,1-1.524,2.405-2.191,3.286a18.823,18.823,0,0,0,1.977-.189,9.4,9.4,0,0,0-.592-1.095l.592-.265a17.706,17.706,0,0,1,1.12,2.3l-.642.34c-.1-.327-.138-.428-.226-.667-.517.076-.693.088-1.272.151v4.167a8.674,8.674,0,0,0,.076,1.259h-.907a9.344,9.344,0,0,0,.075-1.259v-4.1c-.453.038-.453.038-1.41.1a4.257,4.257,0,0,0-.567.075Zm1.4,1.662a12.953,12.953,0,0,1-.7,3.562l-.693-.314a10.41,10.41,0,0,0,.68-3.4Zm2.594-.277a18.634,18.634,0,0,1,.755,2.857l-.693.2A12.214,12.214,0,0,0,97,90.314Zm4.193-6.735a6.917,6.917,0,0,0,1.813,2.367,9.852,9.852,0,0,0,1.763,1.258,2.731,2.731,0,0,0-.454.731,10.79,10.79,0,0,1-3.55-3.575,9.694,9.694,0,0,1-3.073,3.5,2.1,2.1,0,0,0-.5-.642,8.017,8.017,0,0,0,3.122-3.638ZM99.735,94.582h-.856a9.035,9.035,0,0,0,.076-1.234V90.365a7.586,7.586,0,0,0-.05-.995,8.688,8.688,0,0,0,.893.038h3.627a8.434,8.434,0,0,0,.881-.038,7.184,7.184,0,0,0-.05.995V93.3a10.582,10.582,0,0,0,.063,1.284h-.869v-.768H99.735Zm-.428-7.516a5.274,5.274,0,0,0,1.133.076h2.267a5.129,5.129,0,0,0,1.12-.076v.869a7.344,7.344,0,0,0-1.158-.063h-2.2a7.366,7.366,0,0,0-1.159.063Zm.428,6.056h3.728V90.113H99.735Z"/><path class="cls-3" d="M112.482,90.868a5.9,5.9,0,0,0,1.637,1.574,9.6,9.6,0,0,0,3.488,1.284,3.244,3.244,0,0,0-.479.818c-2.67-.7-4.218-1.712-5.427-3.537a4.858,4.858,0,0,1-1.976,2.354,8.706,8.706,0,0,1-2.859,1.158,2.942,2.942,0,0,0-.466-.793,7.671,7.671,0,0,0,2.695-.906,4.191,4.191,0,0,0,1.851-1.952h-3.2a8.355,8.355,0,0,0-1.171.076V90.1a7.025,7.025,0,0,0,1.158.075h3.45a7.368,7.368,0,0,0,.176-1.208h-2.278a6.175,6.175,0,0,0-1.1.062v-.792a6.258,6.258,0,0,0,1.1.062h2.341c.025-.491.025-.629.038-1.12h-2.43a7.7,7.7,0,0,0-1.209.076v-.819a7.493,7.493,0,0,0,1.209.076h2.443a4.609,4.609,0,0,0-.076-1.02h.932a4.559,4.559,0,0,0-.063,1.02H114.9a7.376,7.376,0,0,0,1.208-.076v.819a6.629,6.629,0,0,0-1.208-.076h-2.645c-.012.4-.025.7-.05,1.12H114.7a6.107,6.107,0,0,0,1.083-.062v.792a6.1,6.1,0,0,0-1.083-.062h-2.544a9.571,9.571,0,0,1-.188,1.208h4.306a7.2,7.2,0,0,0,1.171-.075v.843a8.3,8.3,0,0,0-1.184-.076Zm-1.033-6.9a3.3,3.3,0,0,0-.088-.781h.983a3.955,3.955,0,0,0-.076.781v.478h3.7a12.256,12.256,0,0,0,1.259-.05,5.7,5.7,0,0,0-.05.843v.743a5.641,5.641,0,0,0,.05.869h-.819V85.141h-8.864v1.712h-.831a5.741,5.741,0,0,0,.05-.869v-.73a5.769,5.769,0,0,0-.05-.856,12.377,12.377,0,0,0,1.272.05h3.462Z"/><path class="cls-3" d="M120.217,90.264a12.823,12.823,0,0,1-.718,3.626l-.667-.353a9.762,9.762,0,0,0,.692-3.412Zm-1.373-1.6a2.968,2.968,0,0,0,.466.026c.089,0,.2,0,.529-.013.491-.68.554-.755.856-1.246a13.56,13.56,0,0,0-1.762-1.926l.415-.592c.276.277.3.315.529.541a8.019,8.019,0,0,0,1.108-2.329l.755.378a7.3,7.3,0,0,0-.5.932,13.6,13.6,0,0,1-.894,1.485c.416.453.555.6.768.881a12.152,12.152,0,0,0,1.171-2.19l.73.39a6.674,6.674,0,0,0-.453.7,31.16,31.16,0,0,1-1.914,2.921c.806-.051,1.071-.089,1.738-.177a8.707,8.707,0,0,0-.491-.956l.516-.252a11.6,11.6,0,0,1,1.058,2.354l-.617.264c-.1-.4-.139-.529-.226-.793-.341.063-.643.1-1.021.151v4.154a9.576,9.576,0,0,0,.076,1.284H120.8a9.591,9.591,0,0,0,.075-1.284V89.3c-.743.075-1.133.113-1.183.113a6.321,6.321,0,0,0-.717.088Zm3.79,1.46a17.032,17.032,0,0,1,.554,2.719l-.679.164a14.566,14.566,0,0,0-.479-2.706Zm3.173,3.135a7.833,7.833,0,0,1-2.921,1.423,2.255,2.255,0,0,0-.479-.63,6.631,6.631,0,0,0,2.834-1.246Zm-1.359-8.522a8.957,8.957,0,0,0-1.159.05v-.742a7.711,7.711,0,0,0,1.183.075h1.713a5.015,5.015,0,0,0-.076-.932h.857a4.043,4.043,0,0,0-.076.932h1.9A8.079,8.079,0,0,0,130,84.046v.742a9.237,9.237,0,0,0-1.2-.05H126.89v.743h1.5a6.357,6.357,0,0,0,1.133-.063v.73a8.523,8.523,0,0,0-1.107-.051H126.89V86.9h2.216a7.608,7.608,0,0,0,1.171-.076v.743a10.7,10.7,0,0,0-1.171-.063h-4.885A11.325,11.325,0,0,0,123,87.57v-.743a6.685,6.685,0,0,0,1.221.076h1.964V86.1h-1.36a9.328,9.328,0,0,0-1.146.051v-.73a6.546,6.546,0,0,0,1.146.063h1.36v-.743Zm.415,7.905c-.453,0-.819.013-1.133.038a9.319,9.319,0,0,0,.05-1.158V89.27a9.251,9.251,0,0,0-.05-1.133c.3.025.578.037,1.107.037h3.551c.542,0,.793-.012,1.121-.037a9.763,9.763,0,0,0-.051,1.17V91.46a10.444,10.444,0,0,0,.051,1.221c-.378-.025-.655-.038-1.083-.038Zm-.378-3.185h4.256v-.7h-4.256Zm0,1.3h4.256v-.743h-4.256Zm0,1.309h4.256v-.755h-4.256Zm3.236.743a8.18,8.18,0,0,0,2.77,1.2,2.821,2.821,0,0,0-.466.667,9.22,9.22,0,0,1-2.845-1.4Z"/><path class="cls-3" d="M135.959,90.642a16.31,16.31,0,0,0-2.656-1.788l.592-.491c.554.34.692.441,1.058.68a9.4,9.4,0,0,0,1.359-1.208h-2.443a9.1,9.1,0,0,0-1.12.063,9.732,9.732,0,0,0,.05-1.159v-1.9a10.377,10.377,0,0,0-.05-1.208,10.337,10.337,0,0,0,1.2.063h6.346a10.757,10.757,0,0,0,1.209-.063,9.942,9.942,0,0,0-.051,1.208v1.9A9.426,9.426,0,0,0,141.5,87.9a7.554,7.554,0,0,0-1.146-.063h-3.072a13.008,13.008,0,0,1-1.788,1.6c.453.328.541.39,1.071.806a11.064,11.064,0,0,0,2.417-2.115l.755.441c-.276.239-.276.239-.844.717a17.058,17.058,0,0,1-2.317,1.662c2.141-.076,2.343-.088,4-.214a11.828,11.828,0,0,0-1.045-.932l.567-.4a17.209,17.209,0,0,1,2.5,2.455l-.591.5c-.4-.5-.542-.68-.87-1.033-1.662.126-2.405.177-3.727.227V93.4a7.891,7.891,0,0,0,.089,1.284h-.982a8.361,8.361,0,0,0,.087-1.284V91.586c-1.372.05-2.405.088-3.122.1a8.91,8.91,0,0,0-1.524.075l-.151-.856a10.534,10.534,0,0,0,1.763.076c.428,0,.856,0,1.876-.013Zm-.465,1.8a10.4,10.4,0,0,1-2.959,2.039,2.5,2.5,0,0,0-.654-.655A7.464,7.464,0,0,0,134.8,92Zm-1.952-7.012h3.136V84.322h-3.136Zm0,1.787h3.136v-1.17h-3.136Zm3.865-2.895V85.43h3.287V84.322Zm.013,1.725v1.17h3.274v-1.17Zm1.8,5.816a8.691,8.691,0,0,0,3.085,1.888,3.029,3.029,0,0,0-.555.7,11.04,11.04,0,0,1-3.16-2.165Z"/><path class="cls-3" d="M144.211,85.443a6.943,6.943,0,0,0,1.095.075h3.035a6.215,6.215,0,0,0,1.1-.075v.83a6.806,6.806,0,0,0-1.1-.062h-3.047a7.327,7.327,0,0,0-1.083.062Zm.592-1.712a5.814,5.814,0,0,0,1.02.063h2.052a5.6,5.6,0,0,0,1-.063v.793a7.649,7.649,0,0,0-1-.051h-2.052a7.56,7.56,0,0,0-1.02.051Zm.012,3.486a5.536,5.536,0,0,0,.907.051h2.241a5.545,5.545,0,0,0,.894-.051v.769a6.317,6.317,0,0,0-.894-.051h-2.241a6.056,6.056,0,0,0-.907.051Zm0,1.738a5.585,5.585,0,0,0,.907.05h2.241a5.807,5.807,0,0,0,.894-.05v.768a5.87,5.87,0,0,0-.894-.051h-2.241a5.954,5.954,0,0,0-.907.051Zm.894,5.664h-.843a8.519,8.519,0,0,0,.076-1.208V91.737a6.3,6.3,0,0,0-.064-1.032,5.717,5.717,0,0,0,.882.05h2.3a7.816,7.816,0,0,0,.856-.038,7.04,7.04,0,0,0-.05,1.007v1.662a6.488,6.488,0,0,0,.076,1.07H148.1v-.491h-2.393ZM145.7,93.3h2.417V91.435H145.7Zm6.283-8.6a9.086,9.086,0,0,0-.088-1.4h.994a9.108,9.108,0,0,0-.088,1.4v2.543H154a11.865,11.865,0,0,0,1.51-.076v.907A12.8,12.8,0,0,0,154,88h-1.2v4.809a11.425,11.425,0,0,0,.1,1.8h-1.007a12.872,12.872,0,0,0,.088-1.8V88h-1.108a12.143,12.143,0,0,0-1.448.076v-.907a11.066,11.066,0,0,0,1.448.076h1.108Z"/></g></svg>