<svg id="レイヤー_1" data-name="レイヤー 1" xmlns="http://www.w3.org/2000/svg" viewBox="0 0 233 118"><defs><style>.cls-1{fill:none;}.cls-2{fill:#8e8b7a;}</style></defs><rect class="cls-1" width="233" height="118"/><g id="_3" data-name="3"><path class="cls-2" d="M50.726,91.271c.026,4.939-3.573,8.965-3.573,8.965s-3.643-3.989-3.672-8.926,3.573-8.961,3.573-8.961,3.646,3.98,3.672,8.922"/><path class="cls-2" d="M33.855,93.2c4.928.359,8.658,4.261,8.658,4.261s-4.256,3.32-9.182,2.959-8.662-4.256-8.662-4.256,4.257-3.323,9.186-2.964"/><path class="cls-2" d="M22.116,81.121c4.9.621,8.417,4.715,8.417,4.715S26.1,88.925,21.2,88.3s-8.421-4.717-8.421-4.717,4.435-3.087,9.337-2.464"/><path class="cls-2" d="M14.179,65.888c4.75,1.352,7.611,5.928,7.611,5.928S16.947,74.2,12.2,72.851,4.585,66.92,4.585,66.92s4.842-2.388,9.594-1.032"/><path class="cls-2" d="M9.477,48.4c4.156,2.68,5.558,7.89,5.558,7.89s-5.331.873-9.479-1.8S0,46.59,0,46.59s5.327-.869,9.477,1.808"/><path class="cls-2" d="M40.163,83.5c-.7,4.886-4.855,8.339-4.855,8.339S32.29,87.362,33,82.473s4.854-8.341,4.854-8.341,3.014,4.481,2.312,9.372"/><path class="cls-2" d="M31.61,71.948c-1.123,4.81-5.563,7.888-5.563,7.888s-2.616-4.725-1.488-9.532,5.559-7.888,5.559-7.888,2.615,4.724,1.492,9.532"/><path class="cls-2" d="M25.136,58.943c-2.375,4.332-7.474,6.1-7.474,6.1s-1.253-5.25,1.125-9.58,7.477-6.1,7.477-6.1,1.247,5.252-1.128,9.581"/><path class="cls-2" d="M22.359,44.4c-2.81,4.064-8.068,5.3-8.068,5.3s-.7-5.352,2.113-9.413,8.068-5.3,8.068-5.3.7,5.354-2.113,9.414"/><path class="cls-2" d="M16.063,33.318c.348,4.928-2.982,9.18-2.982,9.18s-3.894-3.74-4.244-8.666,2.983-9.177,2.983-9.177,3.89,3.735,4.243,8.663"/><path class="cls-2" d="M82.886,115.918,82.461,118c-.669-.141-66.883-14.455-70.627-77.109l2.119-.13C17.6,101.778,82.234,115.786,82.886,115.918Z"/><path class="cls-2" d="M182.274,91.271c-.026,4.939,3.573,8.965,3.573,8.965s3.643-3.989,3.671-8.926-3.572-8.961-3.572-8.961-3.647,3.98-3.672,8.922"/><path class="cls-2" d="M199.145,93.2c-4.928.359-8.659,4.261-8.659,4.261s4.257,3.32,9.183,2.959,8.662-4.256,8.662-4.256-4.257-3.323-9.186-2.964"/><path class="cls-2" d="M210.883,81.121c-4.9.621-8.416,4.715-8.416,4.715S206.9,88.925,211.8,88.3s8.42-4.717,8.42-4.717-4.434-3.087-9.337-2.464"/><path class="cls-2" d="M218.821,65.888c-4.751,1.352-7.611,5.928-7.611,5.928s4.843,2.385,9.593,1.035,7.612-5.931,7.612-5.931-4.844-2.388-9.594-1.032"/><path class="cls-2" d="M223.522,48.4c-4.155,2.68-5.558,7.89-5.558,7.89s5.331.873,9.48-1.8S233,46.59,233,46.59s-5.327-.869-9.478,1.808"/><path class="cls-2" d="M192.837,83.5c.7,4.886,4.855,8.339,4.855,8.339s3.018-4.481,2.311-9.37-4.855-8.341-4.855-8.341-3.013,4.481-2.311,9.372"/><path class="cls-2" d="M201.39,71.948c1.123,4.81,5.562,7.888,5.562,7.888s2.616-4.725,1.489-9.532-5.559-7.888-5.559-7.888-2.615,4.724-1.492,9.532"/><path class="cls-2" d="M207.864,58.943c2.374,4.332,7.474,6.1,7.474,6.1s1.253-5.25-1.125-9.58-7.477-6.1-7.477-6.1-1.247,5.252,1.128,9.581"/><path class="cls-2" d="M210.641,44.4c2.81,4.064,8.068,5.3,8.068,5.3s.7-5.352-2.114-9.413-8.067-5.3-8.067-5.3-.7,5.354,2.113,9.414"/><path class="cls-2" d="M216.937,33.318c-.349,4.928,2.982,9.18,2.982,9.18s3.894-3.74,4.244-8.666-2.983-9.177-2.983-9.177-3.89,3.735-4.243,8.663"/><path class="cls-2" d="M150.114,115.918l.425,2.082c.669-.141,66.883-14.455,70.627-77.109l-2.119-.13C215.405,101.778,150.766,115.786,150.114,115.918Z"/><path class="cls-2" d="M68.152,27.669c.968.061,1.756.061,2.239.061,7.565,0,10.047-2.541,10.047-10.347,0-5.385-2-8.047-6.112-8.047-2.966,0-5.932,1.755-5.932,3.57,0,.544.242.847,1.452,1.573a2.955,2.955,0,0,1,1.7,2.783c0,1.936-1.393,3.207-3.511,3.207-2.239,0-3.631-1.633-3.631-4.175A7.779,7.779,0,0,1,67,10.727C69.181,8.67,72.025,7.7,75.9,7.7c8.05,0,13.134,3.872,13.134,9.863,0,6.05-3.753,9.378-12.225,10.952,4.478.3,6.717.847,9.32,2.3a10.26,10.26,0,0,1,5.386,9.56c0,7.866-6.415,12.827-16.582,12.827-4.3,0-7.384-1.029-9.624-3.146A9.126,9.126,0,0,1,62.4,43.4c0-2.784,1.573-4.538,3.994-4.538a3.578,3.578,0,0,1,3.813,3.63c0,1.332-.364,2-1.755,3.086s-1.514,1.271-1.514,2c0,2.239,2.967,3.993,6.718,3.993,5.871,0,8.958-4.054,8.958-11.556,0-4.236-.908-6.535-3.268-8.411-2.119-1.633-4.237-2.178-8.474-2.178-.544,0-1.512,0-2.723.06Z"/><path class="cls-2" d="M112.815,53.2c-8.774,0-15.614-9.983-15.614-22.75S104.041,7.7,112.815,7.7c8.836,0,15.676,9.863,15.676,22.69C128.491,43.28,121.651,53.2,112.815,53.2Zm-5.325-6.051c.847,3.389,2.784,4.6,5.386,4.6,2.966,0,4.6-1.513,5.447-4.9.727-2.844,1.211-9.016,1.211-16.458,0-7.563-.484-13.856-1.272-16.579-.968-3.388-2.723-4.6-5.447-4.6-2.965,0-4.6,1.512-5.385,4.6-.788,3.147-1.272,8.774-1.272,16.458C106.158,38.016,106.763,44.369,107.49,47.152Z"/><path class="cls-2" d="M161.686,44.249c2.159-3.238,3.031-4.275,3.612-4.275.79,0,2.243,1.037,4.028,2.864.705.747,1,1.162,1,1.618,0,.5-.539.872-1.37.872H155.459c.083,3.57.248,6.642.248,9.215v.208a1.578,1.578,0,0,1-.872,1.619,7.667,7.667,0,0,1-3.653.788c-1.246,0-1.827-.415-1.827-1.369,0-.208,0-.54.042-1.038.124-1.536.248-5.479.248-9.423H135.571c-.955,0-1.994.042-2.949.125-.747-.913-.788-1-.788-1.079a.3.3,0,0,1,.332-.291c1.038.083,2.408.166,3.073.166h3.819c.041-4.857.083-5.728.083-7.763v-1.66c0-.539-.042-1.12-.042-2.075,0-.374,0-.5.416-.5a19.519,19.519,0,0,1,4.028.788A3.627,3.627,0,0,1,145.41,34h4.318c-.041-1.245-.041-2.158-.041-2.781,0-1.868,0-3.487-.083-5.23h-6.436a30.262,30.262,0,0,1-7.764,8.384,16,16,0,0,1-3.2,1.91.277.277,0,0,1-.29-.249c0-.125.042-.249.415-.622,3.487-3.82,5.729-9.548,6.643-16.854,6.81,1.121,7.972,1.5,7.972,2.491,0,.581-.416.913-1.7,1.37-.624,1.121-1.039,1.826-1.412,2.449H159.9c.664-.872,1.328-1.7,1.993-2.574.622-.871,1.079-1.2,1.535-1.2,1.371,0,4.859,3.031,4.859,4.193,0,.5-.457.706-1.5.706H156.372a.519.519,0,0,1,.042.249c0,.166-.167.332-.375.456-.58.291-.622.332-.622.83L155.334,34h3.612L160.357,32c.789-1.121,1.371-1.661,1.786-1.661a8.867,8.867,0,0,1,3.28,2.034c.913.789,1.328,1.329,1.328,1.785,0,.5-.54.872-1.287.872h-10.13l.125,9.215ZM145.2,35.034a.77.77,0,0,0-.5.581c-.084.29-.125,3.445-.125,6.89,0,.5,0,.83.041,1.744h5.066l.041-9.215Z"/><path class="cls-2" d="M90.185,64.264a5.2,5.2,0,0,0,.919.982,9.088,9.088,0,0,0,1.826,1.259,2.974,2.974,0,0,0-.4.692,9.893,9.893,0,0,1-2.72-2.3,8.308,8.308,0,0,1-1.284,1.574,12.577,12.577,0,0,1-1.914,1.548,2.263,2.263,0,0,0-.529-.629A10.767,10.767,0,0,0,88.523,65.4a5.882,5.882,0,0,0,.819-1.133Zm-2.228,7.113A9.118,9.118,0,0,1,86.722,75.1a2.929,2.929,0,0,0-.642-.566c.92-1.422,1.273-2.958,1.273-5.513a9.882,9.882,0,0,0-.051-1.184,11.47,11.47,0,0,0,1.221.051h2.821a8.086,8.086,0,0,0,.982-.051,6.81,6.81,0,0,0-.051.957V70.47a6.374,6.374,0,0,0,.051.944c-.3-.025-.5-.037-.907-.037Zm.78,3.55v.616h-.793a8.415,8.415,0,0,0,.063-1.045V73.114c0-.491-.012-.693-.037-1a8.449,8.449,0,0,0,.944.038h2.643a6.858,6.858,0,0,0,.895-.05,6.487,6.487,0,0,0-.051.944v1.271a6.238,6.238,0,0,0,.063,1.032h-.793v-.427Zm-.667-5.036c-.013.353-.025.491-.063.869H91.57v-.869Zm3.5-.6v-.781H88.082v.781Zm-3.047-2.808a3.991,3.991,0,0,0,.756.051h1.3a3.847,3.847,0,0,0,.743-.051v.706a3.451,3.451,0,0,0-.693-.051H89.254a3.7,3.7,0,0,0-.731.051ZM88.75,74.3h2.909V72.786H88.75Zm5.779-9.2a7.137,7.137,0,0,0-.076,1.372v4.809a8.361,8.361,0,0,0,.064,1.409H93.6a9.082,9.082,0,0,0,.062-1.409V66.467a8.879,8.879,0,0,0-.075-1.372Zm2.669-.818a9.1,9.1,0,0,0-.087,1.523v8.358c0,.92-.252,1.108-1.487,1.108-.289,0-.591-.013-1.158-.05a2.42,2.42,0,0,0-.226-.806,9.323,9.323,0,0,0,1.523.126c.441,0,.542-.076.542-.378V65.813a9.35,9.35,0,0,0-.088-1.536Z"/><path class="cls-2" d="M100.816,69.01a9.866,9.866,0,0,0-1.347.063v-.781a9.064,9.064,0,0,0,1.347.063h1.826a7.588,7.588,0,0,0-.667-1.422h-1.587A13.339,13.339,0,0,0,98.966,67V66.19a9.828,9.828,0,0,0,1.4.076h.869a6.572,6.572,0,0,0-1.033-1.335l.719-.34a7.484,7.484,0,0,1,1.12,1.675H103.1V65.3a6.014,6.014,0,0,0-.076-1.057h.857a7.04,7.04,0,0,0-.051,1.045v.982h1.335v-.982a7.475,7.475,0,0,0-.049-1.045h.855a5.835,5.835,0,0,0-.075,1.057v.97H107.1a8.049,8.049,0,0,0,.995-1.737l.768.327a12.468,12.468,0,0,1-.944,1.41h.755a9.818,9.818,0,0,0,1.411-.076V67a13.382,13.382,0,0,0-1.424-.063h-1.485a14.254,14.254,0,0,1-.68,1.422h1.788a9.371,9.371,0,0,0,1.36-.063v.781a9.959,9.959,0,0,0-1.36-.063h-3.425v.919H107.5a9.512,9.512,0,0,0,1.359-.063v.768a9.679,9.679,0,0,0-1.359-.063h-2.645v.969h3.815a9.507,9.507,0,0,0,1.435-.075v.818a11.827,11.827,0,0,0-1.422-.076h-3.3a9.953,9.953,0,0,0,5,2.178,2.917,2.917,0,0,0-.491.781,13.518,13.518,0,0,1-3.085-1.184,8.259,8.259,0,0,1-2-1.536c.038.567.051.794.051,1.07v.844a9.426,9.426,0,0,0,.076,1.309h-.907a8.308,8.308,0,0,0,.076-1.322v-.831c0-.289.013-.566.05-1.057a10.014,10.014,0,0,1-4.734,2.707,2.61,2.61,0,0,0-.517-.73,9.561,9.561,0,0,0,4.672-2.229h-3.085a11.715,11.715,0,0,0-1.423.076v-.818a9.679,9.679,0,0,0,1.423.075H104.1v-.969h-2.494a9.475,9.475,0,0,0-1.346.063v-.768a9.628,9.628,0,0,0,1.346.063H104.1V69.01Zm4.861-.655a6.52,6.52,0,0,0,.642-1.422h-3.5a10.447,10.447,0,0,1,.591,1.422Z"/><path class="cls-2" d="M115.629,72.245a1.9,1.9,0,0,0,.768,1.2,2.778,2.778,0,0,0,1.625.453c1.46,0,2.379-.755,2.379-1.951,0-1.246-.893-1.926-2.568-1.926a8.784,8.784,0,0,0-1.008.063v-1a5.411,5.411,0,0,0,.932.076,2.515,2.515,0,0,0,1.838-.579,1.733,1.733,0,0,0,.5-1.221c0-1.083-.755-1.712-2.027-1.712a1.98,1.98,0,0,0-1.675.667,2.382,2.382,0,0,0-.4.894l-1.046-.227a2.892,2.892,0,0,1,.68-1.259,3.272,3.272,0,0,1,2.506-.919c1.826,0,2.984.957,2.984,2.468a2.21,2.21,0,0,1-.882,1.838,2.582,2.582,0,0,1-1.183.453,2.7,2.7,0,0,1,1.549.541,2.306,2.306,0,0,1,.844,1.9c0,1.7-1.31,2.757-3.413,2.757a3.6,3.6,0,0,1-2.821-1.033,3.274,3.274,0,0,1-.642-1.22Z"/><path class="cls-2" d="M124.5,68.657a3.8,3.8,0,0,1-.1.567,3.061,3.061,0,0,1,2.2-.869,3.155,3.155,0,0,1,2.267.857,2.918,2.918,0,0,1,.844,2.215,3.141,3.141,0,0,1-3.4,3.323,3.408,3.408,0,0,1-2.405-.856,3.911,3.911,0,0,1-.793-1.183l1.032-.3a1.913,1.913,0,0,0,.4.73,2.344,2.344,0,0,0,1.788.743,2.248,2.248,0,0,0,2.355-2.405,2.113,2.113,0,0,0-2.2-2.291,2.616,2.616,0,0,0-1.649.529,1.61,1.61,0,0,0-.579.755l-.944-.088a10.11,10.11,0,0,0,.188-1.3l.277-2.845c.026-.365.037-.516.037-.755a5.284,5.284,0,0,0-.024-.541,8.6,8.6,0,0,0,1.334.063h2.594a8.218,8.218,0,0,0,1.473-.1v1.07a8.784,8.784,0,0,0-1.473-.1h-2.958Z"/><path class="cls-2" d="M136.625,69.135a7.026,7.026,0,0,0-.038-.742c.264.025.542.038.9.038h2.732V66.379h-2.959a10.382,10.382,0,0,1-2.091,2.568,1.966,1.966,0,0,0-.6-.6,8.2,8.2,0,0,0,2.518-3.387,4.893,4.893,0,0,0,.315-.918l.9.251c-.051.1-.089.189-.164.34l-.479,1.02h6.245a6.653,6.653,0,0,0,1.134-.063v.856a6.814,6.814,0,0,0-1.134-.063h-2.846v2.052h2.279a6.847,6.847,0,0,0,1.121-.063V69.2a9.059,9.059,0,0,0-1.108-.051h-2.292v2.468h3.174a8.368,8.368,0,0,0,1.271-.076v.906a9.13,9.13,0,0,0-1.271-.075h-3.174v2.077a5.664,5.664,0,0,0,.089,1.171h-1a5.6,5.6,0,0,0,.076-1.171V72.371h-4.546a9.12,9.12,0,0,0-1.271.075V71.54a8.588,8.588,0,0,0,1.271.076h.957Zm3.589,2.481V69.148h-2.77v2.468Z"/><path class="cls-2" d="M60.145,85.4H57.916a8.621,8.621,0,0,0-1.246.075V84.6a8.145,8.145,0,0,0,1.246.075h5.213a8.169,8.169,0,0,0,1.247-.075v.868a8.287,8.287,0,0,0-1.247-.075h-2.2v2.052h2.431a7.488,7.488,0,0,0,1.209-.076v.856a6.729,6.729,0,0,0-1.209-.075H60.925v2.794a11.284,11.284,0,0,0,2.053.138c1.02,0,1.889-.037,2.946-.125a2.319,2.319,0,0,0-.276.881c-1.1.025-1.184.025-1.524.025a17.129,17.129,0,0,1-2.758-.1c-1.964-.278-3.2-1.033-3.866-2.367a8.514,8.514,0,0,1-1.913,2.858,2.319,2.319,0,0,0-.655-.592,6.717,6.717,0,0,0,1.7-2.241,7.958,7.958,0,0,0,.768-2.87v-.126l.882.176-.152.655c-.062.3-.252,1.032-.339,1.334a3.842,3.842,0,0,0,.994,1.385,4.228,4.228,0,0,0,1.36.768Zm-.189-3.563a4.364,4.364,0,0,0-.075-.793h.982a3.3,3.3,0,0,0-.089.78v.618h3.677c.491,0,.856-.013,1.259-.051a5.8,5.8,0,0,0-.05.856v.793a6.125,6.125,0,0,0,.05.894h-.818V83.169H56.1v1.762h-.831a5.98,5.98,0,0,0,.051-.894v-.793a5.655,5.655,0,0,0-.051-.856c.4.038.768.051,1.271.051h3.413Z"/><path class="cls-2" d="M68.7,82.312a7.993,7.993,0,0,0-.075-1.195H69.5a8.161,8.161,0,0,0-.063,1.208v.227h2.317v-.24a7.291,7.291,0,0,0-.063-1.195h.869a7.493,7.493,0,0,0-.075,1.208v.227a5.305,5.305,0,0,0,1.044-.076v.806a6.955,6.955,0,0,0-1.044-.05v5.375a6.274,6.274,0,0,0,.994-.063v.78c-.29-.025-.655-.037-1.146-.037H68.358a5.245,5.245,0,0,0-1.02.063v-.806a5.174,5.174,0,0,0,1.008.063H68.7V83.232h-.075a5.772,5.772,0,0,0-1.083.062v-.818a5.24,5.24,0,0,0,1.083.076H68.7ZM70,90.117A7.144,7.144,0,0,1,68.031,92.3a1.757,1.757,0,0,0-.579-.6,5.016,5.016,0,0,0,1.889-1.964Zm1.763-5.576V83.232H69.441v1.309Zm0,1.963V85.183H69.441V86.5Zm0,2.1V87.146H69.441v1.461Zm-.189,1.107a4.632,4.632,0,0,0,1.235,1.3,2.571,2.571,0,0,0-.58.542A6.387,6.387,0,0,1,71,90.105Zm3.211-1.435a6.746,6.746,0,0,1-1.474,4.079,2,2,0,0,0-.616-.579,4.881,4.881,0,0,0,1.247-2.845,56.706,56.706,0,0,0,.213-5.841,13.006,13.006,0,0,0-.049-1.485,10.087,10.087,0,0,0,1.208.05h1.737a9.759,9.759,0,0,0,1.2-.05,9.9,9.9,0,0,0-.051,1.221v8.485c0,.427-.113.692-.34.817a2.43,2.43,0,0,1-1.019.139c-.176,0-.315-.012-1-.05a3.388,3.388,0,0,0-.2-.894,6.942,6.942,0,0,0,1.385.163c.3,0,.4-.075.4-.276V88.279Zm.114-3.008c-.026,1.233-.026,1.5-.076,2.3h2.606v-2.3Zm2.53-2.908H74.906v2.2h2.518Z"/><path class="cls-2" d="M81.419,86.681c0-.453.013-.843.051-1.549a9.7,9.7,0,0,1-1.259,1.952,2.613,2.613,0,0,0-.5-.693,11.388,11.388,0,0,0,2.216-3.839A7.374,7.374,0,0,0,82.4,80.8l.882.226c-.076.189-.076.189-.366,1.083A17.99,17.99,0,0,1,82.2,84v6.912c0,.578.025,1.044.063,1.472h-.919a12.606,12.606,0,0,0,.075-1.51Zm6.813-4.066v-.479A6.981,6.981,0,0,0,88.156,81h.919A7.322,7.322,0,0,0,89,82.161v.454h.706a9.047,9.047,0,0,0,1.259-.063v.8a9.84,9.84,0,0,0-1.246-.05H89v1.725H90.12a8.046,8.046,0,0,0,1.272-.076v.856a8.193,8.193,0,0,0-1.272-.075H84.2a9.392,9.392,0,0,0-1.284.063v-.831a7.327,7.327,0,0,0,1.259.063h.97V83.307h-.542a10,10,0,0,0-1.234.05v-.8a11.059,11.059,0,0,0,1.259.063h.517v-.479A7.45,7.45,0,0,0,85.072,81h.918a7,7,0,0,0-.076,1.157v.454ZM84,87.726a6.875,6.875,0,0,0-.05-.944,8.713,8.713,0,0,0,1.121.05h3.991a8.468,8.468,0,0,0,1.12-.05,6.935,6.935,0,0,0-.05.994v3.26A10.136,10.136,0,0,0,90.2,92.4h-.831V91.7h-4.6V92.4h-.83A12.215,12.215,0,0,0,84,91.074Zm.767,1.158h4.6V87.537h-4.6Zm0,2.14h4.6V89.563h-4.6Zm3.464-5.992V83.307H85.914v1.725Z"/><path class="cls-2" d="M94.178,82.514a10.367,10.367,0,0,0-.075-1.4h.932a10.379,10.379,0,0,0-.076,1.41V84.4h.353a4.778,4.778,0,0,0,1.007-.063v.819a7.791,7.791,0,0,0-1.02-.051h-.34V89.06c.542-.252.769-.365,1.424-.73l.075.768a24.246,24.246,0,0,1-3.249,1.535c-.176.063-.364.152-.5.214l-.213-.868a7.1,7.1,0,0,0,1.686-.567V85.107h-.465a4.777,4.777,0,0,0-1.058.076v-.856a4.711,4.711,0,0,0,1.058.075h.465Zm3.853,8.157c0,.3.076.4.378.479a9.176,9.176,0,0,0,2.027.113c1.776,0,2.3-.076,2.506-.365a3.669,3.669,0,0,0,.265-1.7,2.3,2.3,0,0,0,.805.327c-.151,2.329-.377,2.48-3.651,2.48-2.606,0-3.123-.189-3.123-1.171v-4.62l-.277.088a6.877,6.877,0,0,0-1.045.4l-.226-.856a4.819,4.819,0,0,0,1.095-.252l.453-.151V83.471a9.2,9.2,0,0,0-.075-1.284h.944a8.983,8.983,0,0,0-.076,1.246V85.2l1.8-.6V82.262a8.006,8.006,0,0,0-.075-1.171h.932a8.287,8.287,0,0,0-.076,1.184v2.064l1.939-.642a8.97,8.97,0,0,0,.995-.39c-.051,1.259-.1,2.14-.2,3.374-.088,1.12-.252,1.649-.579,1.838a1.721,1.721,0,0,1-.906.176c-.114,0-.265-.013-.555-.038a2.891,2.891,0,0,0-.189-.793,4.542,4.542,0,0,0,.97.113c.289,0,.353-.063.416-.428a25.334,25.334,0,0,0,.2-3.184l-2.09.717v3.475a8.153,8.153,0,0,0,.076,1.208h-.932a8.259,8.259,0,0,0,.075-1.221v-3.2l-1.8.6Z"/><path class="cls-2" d="M106.925,82.237a7.581,7.581,0,0,0-.063-1.3h.881a8.43,8.43,0,0,0-.062,1.284v1.159H108a4.846,4.846,0,0,0,.818-.051v.781a7.153,7.153,0,0,0-.781-.038h-.315a4.6,4.6,0,0,0,1.448,1.989,3.074,3.074,0,0,0-.466.617,5.439,5.439,0,0,1-1.07-1.574c.026.693.051,1.423.051,2.027v3.839a10.261,10.261,0,0,0,.075,1.461h-.906a8.75,8.75,0,0,0,.087-1.461V87.411a9.829,9.829,0,0,1,.039-1.108c.038-.491.05-.642.063-1.12a9.925,9.925,0,0,1-1.675,3.9,2.936,2.936,0,0,0-.517-.667,10.724,10.724,0,0,0,1.965-4.343h-.706a5.142,5.142,0,0,0-.868.05v-.793a4.93,4.93,0,0,0,.868.051h.819Zm6.447,7.138h1.422a5.545,5.545,0,0,0,1.046-.063v.768a6.214,6.214,0,0,0-1.046-.063h-1.422v1.12h1.637a9.2,9.2,0,0,0,1.3-.063v.806A10.234,10.234,0,0,0,115,91.8h-4.557v.617h-.819a7.249,7.249,0,0,0,.088-1.309V88.305c0-.315.012-.668.038-1a7.535,7.535,0,0,1-1.02.957,1.765,1.765,0,0,0-.5-.541,9.57,9.57,0,0,0,2.707-3.021h-.73a5.044,5.044,0,0,0-1.057.075v-.818a5.911,5.911,0,0,0,1.07.063h1.082a6.878,6.878,0,0,0,.491-1.222h-1.346a9.382,9.382,0,0,1-.87,1.058,1.435,1.435,0,0,0-.591-.453,5.205,5.205,0,0,0,1.234-1.574,4.2,4.2,0,0,0,.378-.919l.742.24c-.176.39-.264.566-.478.956h3.765a9.038,9.038,0,0,0,1.359-.075v.83a10.263,10.263,0,0,0-1.372-.063H112.54c-.2.554-.289.781-.49,1.222h3.009a8.136,8.136,0,0,0,1.285-.076v.831a8.486,8.486,0,0,0-1.285-.075H111.7a8.36,8.36,0,0,1-.895,1.334h1.964a4.428,4.428,0,0,0,.568-1.146l.691.252a6.081,6.081,0,0,1-.516.894h1.473a7.131,7.131,0,0,0,1.159-.076v.793a10.783,10.783,0,0,0-1.171-.063h-1.6v1.02h1.422a5.873,5.873,0,0,0,1.046-.063v.768a7.7,7.7,0,0,0-1.046-.063h-1.422Zm-.692-2.682h-2.241v1.02h2.241Zm-2.241,1.662v1.02h2.241v-1.02Zm0,2.782h2.241v-1.12h-2.241Z"/><path class="cls-2" d="M122.958,87.109H120a8,8,0,0,0-1.183.063v-.781a7.253,7.253,0,0,0,1.208.063h2.934v-.818h-2.632a8.084,8.084,0,0,0-1.032.05,6.068,6.068,0,0,0,.05-.843v-.554a6.378,6.378,0,0,0-.05-.856,8.36,8.36,0,0,0,1.045.05h2.619v-.831h-3.651a10.838,10.838,0,0,0-1.411.076V81.9a9.276,9.276,0,0,0,1.435.075h3.627a5.051,5.051,0,0,0-.076-1.132h.92a4.07,4.07,0,0,0-.089,1.132h3.853a9.458,9.458,0,0,0,1.448-.075v.831a11.306,11.306,0,0,0-1.423-.076h-3.878v.831h2.9a8.037,8.037,0,0,0,1.033-.05,6.091,6.091,0,0,0-.051.856v.554a5.921,5.921,0,0,0,.051.843,8,8,0,0,0-1.02-.05h-2.909v.818h2.745a12.284,12.284,0,0,0,1.411-.05,9.986,9.986,0,0,0-.038,1.045v.528a6.405,6.405,0,0,0,1.334-.075V88.7a8.6,8.6,0,0,0-1.334-.063v.818a7.473,7.473,0,0,0,.075,1.259h-.818v-.516h-3.375v1.045c0,.869-.251,1.045-1.473,1.045-.264,0-.491-.013-1.2-.051a2.08,2.08,0,0,0-.214-.793,10.9,10.9,0,0,0,1.561.126c.454,0,.567-.063.567-.34V90.193h-3.034a8.321,8.321,0,0,0-1.235.063v-.781a7.444,7.444,0,0,0,1.209.064h3.06v-.907H119.18a9.181,9.181,0,0,0-1.372.063V87.9a8.249,8.249,0,0,0,1.372.075h3.778ZM120.1,84.1v.932h2.858V84.1Zm3.613.932h3.123V84.1h-3.123Zm3.375,2.945v-.868h-3.375v.868Zm-3.375,1.562h3.375v-.907h-3.375Z"/><path class="cls-2" d="M132.305,85.8a9.892,9.892,0,0,0-1.347.062v-.78a9.2,9.2,0,0,0,1.347.063h1.826a7.629,7.629,0,0,0-.668-1.422h-1.586a13.409,13.409,0,0,0-1.423.062v-.8a9.867,9.867,0,0,0,1.4.075h.87a6.67,6.67,0,0,0-1.033-1.334l.718-.34a7.5,7.5,0,0,1,1.12,1.674h1.058v-.969a6.133,6.133,0,0,0-.076-1.058h.856a7.081,7.081,0,0,0-.05,1.045v.982h1.335v-.982a7.277,7.277,0,0,0-.051-1.045h.856a6.044,6.044,0,0,0-.075,1.058v.969h1.209a8.058,8.058,0,0,0,.994-1.737l.768.328a12.368,12.368,0,0,1-.944,1.409h.755a9.849,9.849,0,0,0,1.411-.075v.8a13.409,13.409,0,0,0-1.423-.062h-1.485a14.447,14.447,0,0,1-.681,1.422h1.789a9.512,9.512,0,0,0,1.359-.063v.78a9.979,9.979,0,0,0-1.359-.062h-3.426v.919h2.645a9.335,9.335,0,0,0,1.359-.064v.769a9.679,9.679,0,0,0-1.359-.063h-2.645v.969h3.815a9.532,9.532,0,0,0,1.436-.075v.817A12.083,12.083,0,0,0,140.174,89h-3.3a9.945,9.945,0,0,0,5,2.178,2.911,2.911,0,0,0-.491.78,13.525,13.525,0,0,1-3.085-1.183,8.26,8.26,0,0,1-2-1.536c.038.567.05.793.05,1.07v.844a9.584,9.584,0,0,0,.076,1.309h-.907a8.192,8.192,0,0,0,.076-1.322v-.831c0-.289.013-.566.05-1.057a10,10,0,0,1-4.734,2.706,2.6,2.6,0,0,0-.516-.73A9.553,9.553,0,0,0,135.062,89h-3.085a11.909,11.909,0,0,0-1.422.075v-.817a9.654,9.654,0,0,0,1.422.075h3.614v-.969H133.1a9.482,9.482,0,0,0-1.347.063v-.769a9.464,9.464,0,0,0,1.347.064h2.493V85.8Zm4.86-.655a6.494,6.494,0,0,0,.642-1.422h-3.5a10.321,10.321,0,0,1,.591,1.422Z"/><path class="cls-2" d="M147.118,89.035a1.905,1.905,0,0,0,.767,1.2,2.782,2.782,0,0,0,1.625.453c1.461,0,2.379-.755,2.379-1.951,0-1.247-.893-1.927-2.568-1.927a8.751,8.751,0,0,0-1.007.064v-1a5.411,5.411,0,0,0,.932.076,2.512,2.512,0,0,0,1.838-.58,1.734,1.734,0,0,0,.5-1.221c0-1.082-.755-1.711-2.026-1.711a1.982,1.982,0,0,0-1.676.666,2.39,2.39,0,0,0-.4.894l-1.046-.226a2.876,2.876,0,0,1,.681-1.259,3.269,3.269,0,0,1,2.5-.919c1.826,0,2.984.957,2.984,2.468a2.21,2.21,0,0,1-.881,1.837,2.575,2.575,0,0,1-1.183.453,2.7,2.7,0,0,1,1.548.542,2.3,2.3,0,0,1,.844,1.9c0,1.7-1.31,2.757-3.413,2.757A3.594,3.594,0,0,1,146.7,90.52a3.264,3.264,0,0,1-.644-1.221Z"/><path class="cls-2" d="M155.594,90.659a3.127,3.127,0,0,1-.756-1.158,8.7,8.7,0,0,1-.478-2.908,7.364,7.364,0,0,1,.73-3.424,3.373,3.373,0,0,1,5.125-.655,3.164,3.164,0,0,1,.755,1.158,8.662,8.662,0,0,1,.478,2.921,6.573,6.573,0,0,1-.88,3.638,3.081,3.081,0,0,1-2.67,1.322A3.144,3.144,0,0,1,155.594,90.659Zm.73-7.528a2.566,2.566,0,0,0-.566.919,7.792,7.792,0,0,0-.391,2.543,6.954,6.954,0,0,0,.592,3,2.145,2.145,0,0,0,1.951,1.095,2.1,2.1,0,0,0,1.55-.592,2.481,2.481,0,0,0,.591-.982,7.814,7.814,0,0,0,.391-2.543,7.138,7.138,0,0,0-.567-2.933,2.127,2.127,0,0,0-1.977-1.145A2.05,2.05,0,0,0,156.324,83.131Z"/><path class="cls-2" d="M168.113,85.925a6.768,6.768,0,0,0-.038-.742c.264.025.542.037.9.037H171.7V83.169h-2.959a10.375,10.375,0,0,1-2.09,2.568,1.992,1.992,0,0,0-.6-.6,8.205,8.205,0,0,0,2.518-3.386,5.035,5.035,0,0,0,.314-.919l.9.252c-.051.1-.089.189-.164.34l-.478,1.02h6.245a6.647,6.647,0,0,0,1.133-.063v.856a6.808,6.808,0,0,0-1.133-.063h-2.847V85.22h2.28a6.852,6.852,0,0,0,1.12-.062v.831a9.038,9.038,0,0,0-1.108-.051h-2.292v2.468h3.174a8.525,8.525,0,0,0,1.272-.076v.906a9.145,9.145,0,0,0-1.272-.075h-3.174v2.077a5.718,5.718,0,0,0,.089,1.17h-1a5.513,5.513,0,0,0,.076-1.17V89.161h-4.545a9.125,9.125,0,0,0-1.272.075V88.33a8.733,8.733,0,0,0,1.272.076h.956Zm3.589,2.481V85.938h-2.77v2.468Z"/></g></svg>