<svg id="レイヤー_1" data-name="レイヤー 1" xmlns="http://www.w3.org/2000/svg" viewBox="0 0 233 118"><defs><style>.cls-1{fill:none;}.cls-2{fill:#525a70;}.cls-3{fill:#8e8b7a;}</style></defs><rect class="cls-1" width="233" height="118"/><g id="_1" data-name="1"><path class="cls-2" d="M117.062,114.008l-.264.263-4.16-4.148-4.139,4.148-.263-.263,4.138-4.149-4.116-4.115.263-.264,4.117,4.116,4.116-4.116.264.264-4.116,4.115Zm-6.2-4.149a.989.989,0,1,1-.989-.988A1,1,0,0,1,110.86,109.859Zm2.755-2.754a.988.988,0,1,1-.988-.988A1,1,0,0,1,113.615,107.105Zm0,5.509a.988.988,0,1,1-.988-.988A1,1,0,0,1,113.615,112.614Zm2.755-2.755a.988.988,0,1,1-.988-.988A1,1,0,0,1,116.37,109.859Z"/><path class="cls-2" d="M119.343,107.061c-.109.032-.153.022-.2-.121s-.022-.154.11-.2a17.351,17.351,0,0,0,2.119-.943c.109,0,.175.066.175.131-.011.867-.044,1.493-.044,2.382v3.369c0,1.087.011,1.218.121,1.438s.527.23.977.274c.077.011.1.044.1.165s-.022.154-.1.154c-.483-.022-1.076-.045-1.537-.045-.527,0-1.065.023-1.581.045-.088,0-.11-.022-.11-.154s.034-.154.11-.165c.44-.033.824-.044.956-.274a4.121,4.121,0,0,0,.12-1.438V107.8a1.735,1.735,0,0,0-.12-.812.314.314,0,0,0-.286-.132,1.288,1.288,0,0,0-.4.077Z"/><path class="cls-3" d="M50.726,91.271c.025,4.939-3.573,8.965-3.573,8.965s-3.644-3.989-3.672-8.926,3.572-8.961,3.572-8.961,3.647,3.98,3.673,8.922"/><path class="cls-3" d="M33.854,93.2c4.929.359,8.659,4.261,8.659,4.261s-4.256,3.32-9.182,2.959-8.662-4.256-8.662-4.256,4.256-3.323,9.185-2.964"/><path class="cls-3" d="M22.117,81.121c4.9.621,8.416,4.715,8.416,4.715S26.1,88.925,21.2,88.3s-8.422-4.717-8.422-4.717,4.435-3.087,9.338-2.464"/><path class="cls-3" d="M14.178,65.888c4.751,1.352,7.612,5.928,7.612,5.928S16.946,74.2,12.2,72.851,4.584,66.92,4.584,66.92s4.844-2.388,9.594-1.032"/><path class="cls-3" d="M9.477,48.4c4.156,2.68,5.558,7.89,5.558,7.89s-5.331.873-9.479-1.8S0,46.59,0,46.59s5.326-.869,9.477,1.808"/><path class="cls-3" d="M40.162,83.5c-.7,4.886-4.854,8.339-4.854,8.339S32.29,87.362,33,82.473s4.855-8.341,4.855-8.341,3.014,4.481,2.311,9.372"/><path class="cls-3" d="M31.61,71.948c-1.123,4.81-5.563,7.888-5.563,7.888s-2.616-4.725-1.488-9.532,5.559-7.888,5.559-7.888,2.614,4.724,1.492,9.532"/><path class="cls-3" d="M25.136,58.943c-2.374,4.332-7.474,6.1-7.474,6.1s-1.253-5.25,1.125-9.58,7.477-6.1,7.477-6.1,1.246,5.252-1.128,9.581"/><path class="cls-3" d="M22.359,44.4c-2.81,4.064-8.068,5.3-8.068,5.3s-.7-5.352,2.113-9.413,8.067-5.3,8.067-5.3.7,5.354-2.112,9.414"/><path class="cls-3" d="M16.063,33.318c.348,4.928-2.983,9.18-2.983,9.18s-3.894-3.74-4.243-8.666,2.982-9.177,2.982-9.177,3.89,3.735,4.244,8.663"/><path class="cls-3" d="M82.886,115.918,82.461,118c-.669-.141-66.883-14.455-70.627-77.109l2.118-.13C17.6,101.778,82.234,115.786,82.886,115.918Z"/><path class="cls-3" d="M182.274,91.271c-.025,4.939,3.573,8.965,3.573,8.965s3.644-3.989,3.672-8.926-3.572-8.961-3.572-8.961-3.647,3.98-3.673,8.922"/><path class="cls-3" d="M199.146,93.2c-4.929.359-8.659,4.261-8.659,4.261s4.256,3.32,9.182,2.959,8.662-4.256,8.662-4.256-4.256-3.323-9.185-2.964"/><path class="cls-3" d="M210.883,81.121c-4.9.621-8.416,4.715-8.416,4.715S206.9,88.925,211.8,88.3s8.422-4.717,8.422-4.717-4.435-3.087-9.338-2.464"/><path class="cls-3" d="M218.822,65.888c-4.751,1.352-7.612,5.928-7.612,5.928s4.844,2.385,9.594,1.035,7.612-5.931,7.612-5.931-4.844-2.388-9.594-1.032"/><path class="cls-3" d="M223.523,48.4c-4.156,2.68-5.558,7.89-5.558,7.89s5.331.873,9.479-1.8S233,46.59,233,46.59s-5.326-.869-9.477,1.808"/><path class="cls-3" d="M192.838,83.5c.7,4.886,4.854,8.339,4.854,8.339s3.018-4.481,2.312-9.37-4.855-8.341-4.855-8.341-3.014,4.481-2.311,9.372"/><path class="cls-3" d="M201.39,71.948c1.124,4.81,5.563,7.888,5.563,7.888s2.616-4.725,1.488-9.532-5.559-7.888-5.559-7.888-2.614,4.724-1.492,9.532"/><path class="cls-3" d="M207.864,58.943c2.374,4.332,7.474,6.1,7.474,6.1s1.253-5.25-1.125-9.58-7.477-6.1-7.477-6.1-1.246,5.252,1.128,9.581"/><path class="cls-3" d="M210.641,44.4c2.81,4.064,8.069,5.3,8.069,5.3s.695-5.352-2.114-9.413-8.067-5.3-8.067-5.3-.7,5.354,2.112,9.414"/><path class="cls-3" d="M216.938,33.318c-.349,4.928,2.982,9.18,2.982,9.18s3.894-3.74,4.243-8.666-2.982-9.177-2.982-9.177-3.89,3.735-4.243,8.663"/><path class="cls-3" d="M150.114,115.918l.425,2.082c.669-.141,66.883-14.455,70.627-77.109l-2.118-.13C215.405,101.778,150.766,115.786,150.114,115.918Z"/><path class="cls-3" d="M68.192,28.946a28.235,28.235,0,0,1-7.043,9.206A23.926,23.926,0,0,1,53.8,42.283c-.184.065-.4.13-.615.2a2.326,2.326,0,0,1-.492.1.144.144,0,0,1-.154-.13c0-.1.062-.163.277-.261a20.97,20.97,0,0,0,5.475-4.944,34.253,34.253,0,0,0,5.6-11.288,31.086,31.086,0,0,1,5.075,1.139.835.835,0,0,1,.523.651c0,.422-.123.553-.708.91a11,11,0,0,0,3.845,4.717,26.1,26.1,0,0,0,9.073,4c.215.065.307.131.307.228s-.031.13-.215.227a7.464,7.464,0,0,0-3.045,3.416c-.123.261-.246.358-.492.358-1.538,0-3.937-1.431-5.936-3.481a13.127,13.127,0,0,1-3.506-7.026c-.062-.358-.184-1.106-.369-2.31Zm6.274,25.275c2.214-3.123,2.368-3.285,2.83-3.285.584,0,1.445.65,2.675,2.017.615.683.923,1.138.923,1.464,0,.422-.4.65-1.138.65H57.4c-1.661,0-1.907,0-3.2.065-.461-.846-.492-.911-.492-1.008s.092-.13.185-.13a25.521,25.521,0,0,0,3.168.227H64.5c.093-2.927.093-3.806.093-6.31H58.535a9.907,9.907,0,0,0-1.384.1c-.492-.585-.523-.651-.523-.715a.225.225,0,0,1,.246-.228c.369.032.861.065,1.107.065h6.643c0-1.529-.03-4.587-.092-5.5H60.073c-.677,0-1.385.032-2.061.1-.461-.618-.492-.683-.492-.748a.225.225,0,0,1,.246-.228c.492.033,1.107.065,1.415.065H70.037c.246-.357.431-.618.554-.813.646-1.041.892-1.3,1.23-1.3.738,0,2.953,1.854,2.953,2.407,0,.325-.277.521-.708.521h-4.4c-.061.26-.092.325-.4.455-.461.2-.461.26-.492,5.042h2.861c.492-.683.922-1.4,1.383-2.115.37-.552.585-.715.923-.715.954,0,3.261,2.114,3.261,2.993,0,.423-.431.618-1.354.618H68.776c.062,3.415.093,5.5.123,6.31Z"/><path class="cls-3" d="M108.907,28.783a4.32,4.32,0,0,0,.246-.357c.769-1.106.954-1.3,1.323-1.3a6.3,6.3,0,0,1,2.553,1.333c.984.716,1.322,1.106,1.322,1.529,0,.293-.154.488-.523.878l-.461.456c-.031,1.008-.031,1.822-.031,2.342,0,5.335.185,16.232.277,18.769.03.781.03,1.236.03,1.626,0,.911-.122,1.269-.676,1.595a4.53,4.53,0,0,1-2.43.585c-1.015,0-1.292-.293-1.292-1.236,0-.716,0-.878.031-1.3H92.269v.845a1.166,1.166,0,0,1-.739,1.139,4,4,0,0,1-1.937.488c-1.138,0-1.507-.26-1.507-1.041,0-.358.061-3.253.123-5.432.092-3.708.215-13.077.215-17.11,0-1.041,0-1.237-.061-4.912,0-.228.031-.293.154-.293a17.506,17.506,0,0,1,3.383.65,1.7,1.7,0,0,1,1.137.748Zm.462,9.043c0-2.5-.062-5.106-.093-7.676,0-.456-.153-.586-.769-.586H92.791c-.614.2-.614.228-.645,5.3l-.031,7.808c0,2.6.031,8.067.092,10.246h17.069Zm-5.136,10.7c1.384-2.179,1.66-2.472,2.091-2.472a3.893,3.893,0,0,1,1.753,1.171c.738.749,1.015,1.171,1.015,1.562,0,.325-.277.488-.8.488H94.883a14.557,14.557,0,0,0-1.692.1c-.43-.619-.461-.684-.461-.749a.225.225,0,0,1,.246-.228c.8.066,1.815.13,2.307.13h3.075c.092-1.951.092-2.244.123-7.839H95.9a14.767,14.767,0,0,0-1.692.1c-.461-.618-.492-.683-.492-.748a.225.225,0,0,1,.246-.228c.8.065,1.846.13,2.338.13H98.45c0-2.407,0-2.472-.061-5.823H95.1a14.737,14.737,0,0,0-1.691.1c-.462-.618-.492-.683-.492-.748a.225.225,0,0,1,.246-.228c.8.065,1.845.13,2.337.13h8.15l.431-.65c.922-1.4,1.168-1.659,1.538-1.659.338,0,.676.162,1.261.65,1.107.976,1.568,1.5,1.568,1.92,0,.357-.185.487-.708.487H102.91v.131c0,.26-.215.423-.707.617-.062,1.041-.062,1.3-.062,3.253v1.822h1.507c.338-.455.431-.618.831-1.2s.646-.878.891-.878c.646,0,2.461,1.659,2.461,2.277,0,.326-.277.52-.738.52h-4.952c0,2.245,0,2.863.062,7.872Zm1.352-2.732a1.52,1.52,0,0,1-.984-.358c-.184-.2-.215-.292-.307-.975A4.443,4.443,0,0,0,103,41.925a.237.237,0,0,1-.123-.2c0-.163.277-.227.831-.227,2.245,0,3.721.943,3.721,2.342A1.83,1.83,0,0,1,105.585,45.8Z"/><path class="cls-3" d="M128.319,4.289l-7.178.141v-1.9c9.9,0,12.561-.984,15.418-2.531l1,.633c-.132,2.18-.265,4.359-.265,6.468V50.482l7.177.071V52.38H121.141V50.553l7.178-.071Z"/><path class="cls-3" d="M153.836,35.449c-1.647,2.408-4.747,5.6-5.492,5.6a.173.173,0,0,1-.157-.166,10.749,10.749,0,0,1,.784-1.329,53.032,53.032,0,0,0,4.513-11.664,66.059,66.059,0,0,0,1.765-8.925c5.925,1.62,6.827,1.993,6.827,2.906,0,.664-.235.913-1.569,1.536-1.138,2.532-1.844,4.109-2.825,5.894,1.1.457,1.765.955,1.765,1.412,0,.29-.235.539-.941.913.117,8.551.117,15.9.157,19.675,0,1,.039,1.952.039,2.283,0,1.2-.118,1.578-.589,1.993a5.166,5.166,0,0,1-3.1.872c-1.452,0-1.766-.291-1.766-1.578,0-.7.2-4.151.353-10.377Zm23.385,17.766c2.629-4.068,3.1-4.649,3.688-4.649.628,0,1.648.83,2.943,2.366.9,1.121,1.216,1.744,1.216,2.366s-.392.955-1.1.955h-20.6a32.651,32.651,0,0,0-3.492.166c-.706-.913-.746-1-.746-1.079a.286.286,0,0,1,.314-.291c.863.083,2,.166,2.551.166h8.671a139.6,139.6,0,0,0,3.374-22.54c4.944,1.287,6.945,2.283,6.945,3.4,0,.623-.236.872-1.648,1.411-2,6.352-3.728,11.083-6.474,17.725Zm-.432-24.823c2.315-3.611,2.629-3.86,3.022-3.86.47,0,1.491.872,2.942,2.325.864.912,1.138,1.286,1.138,1.743,0,.5-.432.83-1.02.83H162.939c-.824,0-1.687,0-2.511.083-.588-.872-.628-.954-.628-1.038a.286.286,0,0,1,.314-.29,18.051,18.051,0,0,0,2.315.207H167.8l-.117-7.554v-.291c0-.747,0-.913.353-.913a45.56,45.56,0,0,1,4.708.581c1.256.332,1.766.664,1.766,1.2,0,.5-.2.747-1.334,1.453v5.52Zm-12.28,14.7c.157-4.318-.864-8.551-2.041-10a.436.436,0,0,1-.117-.332c0-.083.078-.166.235-.166.824,0,3.767,3.238,5.022,5.562a15.806,15.806,0,0,1,2.2,7.721c0,2.989-1.138,4.69-3.179,4.69-1.491,0-2.275-1.162-2.275-3.4,0-.665.078-2.284.117-2.906Z"/><path class="cls-3" d="M67.193,73.13H64.965a8.636,8.636,0,0,0-1.247.075v-.868a8.16,8.16,0,0,0,1.247.075h5.212a8.169,8.169,0,0,0,1.247-.075v.868a8.287,8.287,0,0,0-1.247-.075h-2.2v2.052H70.4a7.5,7.5,0,0,0,1.209-.076v.856a6.729,6.729,0,0,0-1.209-.075h-2.43v2.794a11.251,11.251,0,0,0,2.052.139c1.02,0,1.889-.038,2.947-.126a2.315,2.315,0,0,0-.277.881c-1.1.025-1.184.025-1.524.025a16.938,16.938,0,0,1-2.757-.1c-1.965-.277-3.2-1.032-3.866-2.366a8.494,8.494,0,0,1-1.914,2.857,2.34,2.34,0,0,0-.654-.591,6.73,6.73,0,0,0,1.7-2.241,7.975,7.975,0,0,0,.767-2.87v-.126l.882.176-.151.655c-.063.3-.252,1.032-.34,1.334a3.854,3.854,0,0,0,.994,1.385,4.246,4.246,0,0,0,1.36.768ZM67,69.567a4.364,4.364,0,0,0-.075-.793h.982a3.3,3.3,0,0,0-.088.78v.618H71.5c.491,0,.857-.013,1.26-.051a5.667,5.667,0,0,0-.05.856v.793a5.987,5.987,0,0,0,.05.894H71.94V70.9H63.151v1.762H62.32a5.98,5.98,0,0,0,.051-.894v-.793a5.655,5.655,0,0,0-.051-.856c.4.038.769.051,1.272.051H67Z"/><path class="cls-3" d="M75.747,70.045a7.978,7.978,0,0,0-.076-1.2h.882a8.026,8.026,0,0,0-.063,1.208v.227h2.316v-.24a7.315,7.315,0,0,0-.062-1.2h.868a7.611,7.611,0,0,0-.075,1.208v.227a5.317,5.317,0,0,0,1.045-.076v.806a6.978,6.978,0,0,0-1.045-.05V76.34a6.3,6.3,0,0,0,.995-.063v.78c-.29-.025-.655-.037-1.146-.037H75.407a5.332,5.332,0,0,0-1.02.062v-.8a5.169,5.169,0,0,0,1.007.063h.353V70.965h-.076a5.772,5.772,0,0,0-1.083.062v-.818a5.246,5.246,0,0,0,1.083.076h.076Zm1.3,7.8a7.148,7.148,0,0,1-1.965,2.178,1.748,1.748,0,0,0-.579-.6,5.009,5.009,0,0,0,1.889-1.964Zm1.762-5.576V70.965H76.49v1.309Zm0,1.963V72.916H76.49v1.321Zm0,2.1V74.879H76.49V76.34Zm-.189,1.107a4.632,4.632,0,0,0,1.235,1.3,2.614,2.614,0,0,0-.58.542,6.412,6.412,0,0,1-1.221-1.448Zm3.212-1.435a6.752,6.752,0,0,1-1.474,4.079,1.988,1.988,0,0,0-.617-.579,4.881,4.881,0,0,0,1.247-2.845,56.617,56.617,0,0,0,.214-5.841,12.615,12.615,0,0,0-.051-1.485,10.127,10.127,0,0,0,1.209.05H84.1a9.751,9.751,0,0,0,1.2-.05,9.942,9.942,0,0,0-.05,1.221v8.484c0,.428-.113.693-.341.818A2.444,2.444,0,0,1,83.881,80c-.177,0-.315-.013-1-.051a3.427,3.427,0,0,0-.2-.893,6.927,6.927,0,0,0,1.385.163c.3,0,.4-.075.4-.276V76.012ZM81.942,73c-.025,1.233-.025,1.5-.076,2.3h2.607V73ZM84.473,70.1H81.954v2.2h2.519Z"/><path class="cls-3" d="M88.468,74.414c0-.453.012-.844.051-1.549a9.792,9.792,0,0,1-1.259,1.952,2.613,2.613,0,0,0-.5-.693,11.421,11.421,0,0,0,2.216-3.839,7.414,7.414,0,0,0,.478-1.75l.881.226c-.075.189-.075.189-.365,1.083a17.982,17.982,0,0,1-.717,1.888v6.912c0,.578.025,1.044.063,1.472h-.92a12.374,12.374,0,0,0,.076-1.51Zm6.812-4.066v-.479a6.869,6.869,0,0,0-.076-1.132h.92a7.2,7.2,0,0,0-.076,1.157v.454h.7a9.039,9.039,0,0,0,1.259-.063v.805a9.83,9.83,0,0,0-1.246-.05h-.718v1.725h1.121a8.054,8.054,0,0,0,1.272-.076v.856a8.2,8.2,0,0,0-1.272-.075H91.251a9.58,9.58,0,0,0-1.285.062V72.7a7.334,7.334,0,0,0,1.259.063h.97V71.04h-.541a9.99,9.99,0,0,0-1.234.05v-.805a11.046,11.046,0,0,0,1.259.063H92.2v-.479a7.188,7.188,0,0,0-.076-1.132h.92a6.894,6.894,0,0,0-.076,1.157v.454Zm-4.231,5.111a6.72,6.72,0,0,0-.05-.944,8.715,8.715,0,0,0,1.12.05h3.992a8.475,8.475,0,0,0,1.121-.05,6.91,6.91,0,0,0-.051.994v3.26a10.306,10.306,0,0,0,.063,1.36h-.831v-.692h-4.6v.692h-.831a11.962,11.962,0,0,0,.063-1.322Zm.768,1.158h4.6V75.27h-4.6Zm0,2.14h4.6V77.3h-4.6Zm3.463-5.992V71.04H92.963v1.725Z"/><path class="cls-3" d="M101.227,70.247a10.178,10.178,0,0,0-.076-1.4h.932a10.571,10.571,0,0,0-.075,1.41v1.875h.352a4.8,4.8,0,0,0,1.008-.063v.819a7.811,7.811,0,0,0-1.02-.051h-.34v3.953c.541-.252.768-.365,1.423-.73l.075.768a24.356,24.356,0,0,1-3.248,1.536c-.177.062-.366.15-.5.213l-.214-.868a7.1,7.1,0,0,0,1.687-.567v-4.3h-.466a4.783,4.783,0,0,0-1.058.076V72.06a4.716,4.716,0,0,0,1.058.075h.466ZM105.08,78.4c0,.3.076.4.378.479a9.17,9.17,0,0,0,2.027.113c1.776,0,2.3-.076,2.506-.365a3.659,3.659,0,0,0,.264-1.7,2.316,2.316,0,0,0,.806.327c-.151,2.329-.378,2.48-3.651,2.48-2.607,0-3.123-.189-3.123-1.171v-4.62l-.277.088a6.831,6.831,0,0,0-1.045.4l-.227-.856a4.851,4.851,0,0,0,1.1-.252l.453-.151V71.2a9.032,9.032,0,0,0-.076-1.284h.945a8.83,8.83,0,0,0-.076,1.246v1.762l1.8-.6V70a7.858,7.858,0,0,0-.076-1.171h.932a8.3,8.3,0,0,0-.075,1.184v2.064l1.939-.642a8.951,8.951,0,0,0,.994-.39c-.05,1.259-.1,2.14-.2,3.374-.088,1.12-.252,1.649-.58,1.837a1.706,1.706,0,0,1-.906.177c-.113,0-.265-.013-.554-.038a2.928,2.928,0,0,0-.189-.793,4.533,4.533,0,0,0,.969.113c.29,0,.353-.062.416-.428a25.458,25.458,0,0,0,.2-3.184l-2.09.717v3.474a8.172,8.172,0,0,0,.075,1.209h-.932a8.108,8.108,0,0,0,.076-1.221v-3.2l-1.8.605Z"/><path class="cls-3" d="M113.974,69.97a7.443,7.443,0,0,0-.064-1.3h.882a8.271,8.271,0,0,0-.063,1.284v1.159h.315a4.839,4.839,0,0,0,.818-.051v.781a7.147,7.147,0,0,0-.78-.038h-.315a4.589,4.589,0,0,0,1.448,1.989,3,3,0,0,0-.466.617,5.42,5.42,0,0,1-1.07-1.574c.025.692.05,1.423.05,2.027v3.84a10.222,10.222,0,0,0,.076,1.46H113.9a8.617,8.617,0,0,0,.088-1.46V75.144a10.077,10.077,0,0,1,.038-1.108c.038-.491.05-.642.063-1.12a9.9,9.9,0,0,1-1.675,3.9,2.906,2.906,0,0,0-.516-.667,10.737,10.737,0,0,0,1.964-4.343h-.7a5.128,5.128,0,0,0-.868.05v-.793a4.922,4.922,0,0,0,.868.051h.819Zm6.447,7.138h1.422a5.533,5.533,0,0,0,1.045-.063v.768a6.2,6.2,0,0,0-1.045-.063h-1.422v1.12h1.636a9.19,9.19,0,0,0,1.3-.063v.806a10.223,10.223,0,0,0-1.31-.076h-4.557v.617h-.819a7.158,7.158,0,0,0,.088-1.309V76.038c0-.315.013-.668.038-.995a7.414,7.414,0,0,1-1.02.957,1.762,1.762,0,0,0-.5-.541,9.582,9.582,0,0,0,2.707-3.021h-.731a5.05,5.05,0,0,0-1.057.075v-.818a5.918,5.918,0,0,0,1.07.063h1.083a6.955,6.955,0,0,0,.491-1.222h-1.347a9.356,9.356,0,0,1-.869,1.058,1.44,1.44,0,0,0-.592-.453,5.174,5.174,0,0,0,1.234-1.574,4.151,4.151,0,0,0,.378-.919l.743.24c-.177.39-.265.566-.479.956h3.765a9.054,9.054,0,0,0,1.36-.075v.83a10.289,10.289,0,0,0-1.373-.063h-2.065c-.2.554-.289.781-.491,1.222h3.01a8.122,8.122,0,0,0,1.284-.076v.831a8.471,8.471,0,0,0-1.284-.075h-3.362a8.349,8.349,0,0,1-.894,1.334h1.964a4.426,4.426,0,0,0,.567-1.146l.692.252a6.266,6.266,0,0,1-.516.894h1.473a7.118,7.118,0,0,0,1.158-.076v.793a10.778,10.778,0,0,0-1.17-.063h-1.6v1.02h1.422a5.861,5.861,0,0,0,1.045-.063v.768a7.68,7.68,0,0,0-1.045-.063h-1.422Zm-.693-2.682h-2.241v1.02h2.241Zm-2.241,1.662v1.02h2.241v-1.02Zm0,2.782h2.241V77.75h-2.241Z"/><path class="cls-3" d="M127.488,78.593c0,.579.025,1.058.063,1.5h-.944a12.843,12.843,0,0,0,.075-1.523v-4.2c0-.554.013-.945.051-1.524a10.535,10.535,0,0,1-1.411,1.939l-.088-.139a1.925,1.925,0,0,0-.466-.554,12.409,12.409,0,0,0,2.531-3.839,6.907,6.907,0,0,0,.554-1.611l.907.289a5.186,5.186,0,0,0-.315.718c-.176.44-.579,1.309-.957,2.026Zm6.812.151c0,.831-.264,1.033-1.4,1.033-.491,0-.969-.026-1.523-.076a2.79,2.79,0,0,0-.239-.856,10.341,10.341,0,0,0,1.724.151c.517,0,.63-.063.63-.328V72.45h-3.953a9.648,9.648,0,0,0-1.348.076v-.882a9.186,9.186,0,0,0,1.31.076h3.991V70.272a9.4,9.4,0,0,0-.088-1.473h.97a11.857,11.857,0,0,0-.076,1.473V71.72h.617a7.627,7.627,0,0,0,1.2-.076V72.5c-.39-.038-.793-.05-1.2-.05H134.3Zm-4.621-5.174a15.953,15.953,0,0,1,2.128,2.845l-.7.541a12.879,12.879,0,0,0-2.078-2.933Z"/><path class="cls-3" d="M139.794,75.648a7.8,7.8,0,0,1-1.763,4.582,3.739,3.739,0,0,0-.717-.592c1.4-1.624,1.75-2.933,1.75-6.622,0-.679-.013-1.057-.051-1.472a12.078,12.078,0,0,0,1.259.05H146.3a10.657,10.657,0,0,0,1.2-.05,9,9,0,0,0-.05,1.133v2.6a8.218,8.218,0,0,0,.062,1.259h-.894v-.893Zm8.738-5.452a8.98,8.98,0,0,0-1.4-.075H139.3a11.2,11.2,0,0,0-1.4.075V69.3a10.493,10.493,0,0,0,1.4.076h7.832a10.218,10.218,0,0,0,1.4-.076Zm-1.914,4.709V72.337H139.9V73.47c0,.34-.025,1.12-.063,1.435Z"/><path class="cls-3" d="M151.218,74.489a5.753,5.753,0,0,0,.781,1.9,9.716,9.716,0,0,0,.718-2.82h-1.083c-.352,0-.793.013-1.146.038a21.937,21.937,0,0,0,2.04-3.55h-1.511a4.439,4.439,0,0,0-.857.063V69.3a4.423,4.423,0,0,0,.87.063h1.2a5.387,5.387,0,0,0,.931-.051l.366.479a5.258,5.258,0,0,0-.278.516,19.7,19.7,0,0,1-1.485,2.581h.818a5.6,5.6,0,0,0,1-.051c-.038.189-.038.189-.1.63a12.255,12.255,0,0,1-.994,3.625c1.07,1.36,2.417,1.851,5.061,1.851,1.247,0,2.771-.076,3.929-.177a2.667,2.667,0,0,0-.265.869c-.931.025-2.518.05-3.487.05-2.985,0-4.269-.44-5.591-1.938a9.182,9.182,0,0,1-1.75,2.215,2.011,2.011,0,0,0-.592-.617,7.887,7.887,0,0,0,1.851-2.228,8.672,8.672,0,0,1-.856-1.636c-.151-.353-.151-.353-.315-.693Zm5.528-4.28h-1.612a6.486,6.486,0,0,0-.906.051v-.743a4.775,4.775,0,0,0,.931.063h1.587a8.453,8.453,0,0,0-.063-.957h.856a4.756,4.756,0,0,0-.063.957h1.99a8.418,8.418,0,0,0,.919-.038,1.814,1.814,0,0,1-.013.214c-.012.126-.012.39-.012.579v.894h.063a5.249,5.249,0,0,0,.944-.075v.755a6.383,6.383,0,0,0-.944-.051h-.063v1.033c0,.264.012.591.025.717-.4-.025-.567-.025-.894-.025h-2.015v1.083h2.015a7.755,7.755,0,0,0,1.121-.063v.742a9.415,9.415,0,0,0-1.134-.05h-2V76.4h2.582a7.058,7.058,0,0,0,1.17-.076V77.1a9.535,9.535,0,0,0-1.17-.05h-2.582v.315a7.226,7.226,0,0,0,.063,1.17h-.856a9.485,9.485,0,0,0,.063-1.158v-.327h-2.015a7.1,7.1,0,0,0-1.12.063v-.781a6.676,6.676,0,0,0,1.133.076h2V75.3h-1.687a8.079,8.079,0,0,0-1.033.063V74.6a6.355,6.355,0,0,0,1.033.063h1.687V73.583H155.1a6.363,6.363,0,0,0-.881.05v-.742a4.5,4.5,0,0,0,.919.062h1.612V71.858h-2.1a7.152,7.152,0,0,0-1.158.063v-.767a6.887,6.887,0,0,0,1.171.075h2.09Zm2.883,1.02v-1.02h-2.153v1.02Zm-2.153,1.724h2.153V71.858h-2.153Z"/><path class="cls-3" d="M163.222,70.864h.453c.177,0,.328-.013.718-.038,1.5-.113,5.528-.34,7.152-.415a8.5,8.5,0,0,0,1.5-.139l.076.944a5.863,5.863,0,0,0-1.411.164,6.414,6.414,0,0,0-2.417,1.271,3.851,3.851,0,0,0-1.549,2.908,2.469,2.469,0,0,0,1.763,2.329,6.441,6.441,0,0,0,1.889.4h.126l-.164,1.019c-.139-.024-.189-.037-.39-.075a6.347,6.347,0,0,1-2.72-.969,3.064,3.064,0,0,1-1.4-2.568,4.771,4.771,0,0,1,2.355-3.865,8.321,8.321,0,0,1,1.2-.667,24.339,24.339,0,0,1-2.77.277,37.078,37.078,0,0,0-4.344.415Z"/><path class="cls-3" d="M82.171,91.229c0-.567.024-1.07.062-1.65a10.344,10.344,0,0,1-1.347,1.914,1.53,1.53,0,0,0-.453-.718A11.428,11.428,0,0,0,82.8,87.138a8.835,8.835,0,0,0,.529-1.688l.831.265a23.752,23.752,0,0,1-1.184,2.769V95.32a10.53,10.53,0,0,0,.088,1.473h-.982a9.593,9.593,0,0,0,.089-1.511Zm3.223-2.316c-.479,0-.945.024-1.322.062v-.881a8.911,8.911,0,0,0,1.322.076h4.974a9.472,9.472,0,0,0,1.334-.076v.881c-.365-.038-.843-.062-1.322-.062H88.138v2.656H90a9.467,9.467,0,0,0,1.31-.076v.856c-.378-.038-.844-.063-1.3-.063H88.138v3.26h2.607a9.986,9.986,0,0,0,1.373-.075v.868c-.378-.037-.856-.062-1.373-.062H84.878c-.529,0-1.008.025-1.386.062v-.868a9.908,9.908,0,0,0,1.36.075H87.32v-3.26H85.759c-.466,0-.919.025-1.31.063v-.856a9.264,9.264,0,0,0,1.3.076H87.32V88.913Zm1.145-3.375a15.606,15.606,0,0,1,2.532,1.6l-.592.642a10.311,10.311,0,0,0-2.494-1.675Z"/><path class="cls-3" d="M97.8,90.184c-1.511.289-1.951.365-3.425.579a2.692,2.692,0,0,0-.39-.768,29.7,29.7,0,0,0,6.548-1.3,5.642,5.642,0,0,0,1.41-.579l.7.693c-.29.075-.29.075-1.221.39-.769.264-1.977.6-2.783.806v1.825l4.571-.554a10.061,10.061,0,0,0,1.246-.239l.088.906h-.189a9.294,9.294,0,0,0-1.082.076l-4.634.579v2.593c0,.327.05.428.314.516a8.72,8.72,0,0,0,1.852.114,5.866,5.866,0,0,0,2.392-.24c.289-.163.365-.5.416-1.762a2.15,2.15,0,0,0,.806.352c-.089,1.284-.265,1.788-.706,2.065-.4.264-1.108.34-2.946.34a7.123,7.123,0,0,1-2.543-.24c-.34-.163-.429-.377-.429-1.006V92.7l-2.934.353a9,9,0,0,0-1.259.239l-.1-.906h.2a8.9,8.9,0,0,0,1.07-.076l3.022-.377Zm.655-3.915a3.264,3.264,0,0,0-.088-.768h.982a3.92,3.92,0,0,0-.075.768v.591h3.714a12.377,12.377,0,0,0,1.272-.05,5.446,5.446,0,0,0-.051.856V88.5a5.58,5.58,0,0,0,.051.881h-.831V87.6h-8.8v1.775H93.8a5.8,5.8,0,0,0,.051-.881v-.831a5.545,5.545,0,0,0-.051-.856,12.108,12.108,0,0,0,1.259.05h3.4Z"/><path class="cls-3" d="M109.275,85.614c-.051.151-.1.277-.189.554a18.135,18.135,0,0,1-.957,2.379v6.874c0,.541.026,1.069.063,1.472h-.932a12.082,12.082,0,0,0,.076-1.51V91.254c0-.579.013-.944.038-1.524a9.124,9.124,0,0,1-1.322,1.939.821.821,0,0,1-.076-.138,1.914,1.914,0,0,0-.239-.353c-.114-.126-.176-.2-.189-.214a11.833,11.833,0,0,0,2.115-3.248,9.566,9.566,0,0,0,.731-2.366Zm2.808,8.17a10.971,10.971,0,0,1-2.821,3.021,2.555,2.555,0,0,0-.667-.6,8.206,8.206,0,0,0,2.77-2.883Zm2.153-5.551V86.684a6.38,6.38,0,0,0-.076-1.045h.945a5.287,5.287,0,0,0-.076,1.045v1.549h.806a7.4,7.4,0,0,0,1.171-.076v.881a7.65,7.65,0,0,0-1.171-.075h-.806v3.1h1.133a8.265,8.265,0,0,0,1.222-.075v.894a8.225,8.225,0,0,0-1.222-.076h-6.2a8.144,8.144,0,0,0-1.208.076v-.894a7.725,7.725,0,0,0,1.208.075h1.058v-3.1H110.4a7.449,7.449,0,0,0-1.172.075v-.881a7.54,7.54,0,0,0,1.172.076h.629V86.671a6.923,6.923,0,0,0-.075-1.032h.931a6.511,6.511,0,0,0-.063,1.045v1.549Zm0,3.826v-3.1h-2.418v3.1Zm.29,1.209a9.436,9.436,0,0,0,2.845,2.883,4.288,4.288,0,0,0-.629.692,12.3,12.3,0,0,1-2.909-3.134Z"/><path class="cls-3" d="M118.483,90.977a4.794,4.794,0,0,0,.592.025c.113,0,.176,0,.466-.012.516-.68.516-.68.743-1.02a14.929,14.929,0,0,0-1.8-2.1l.492-.554c.251.278.314.353.5.554a9.332,9.332,0,0,0,1.146-2.417l.793.315a4.257,4.257,0,0,0-.479.869,18.266,18.266,0,0,1-1.019,1.75c.415.5.5.629.768.982a13.538,13.538,0,0,0,1.41-2.581l.768.39a5.471,5.471,0,0,0-.3.491c-.592,1-1.524,2.4-2.191,3.286a19.094,19.094,0,0,0,1.977-.189,9.315,9.315,0,0,0-.592-1.095l.592-.265a17.781,17.781,0,0,1,1.121,2.3l-.643.34c-.1-.327-.138-.428-.226-.667-.517.075-.693.088-1.272.151V95.7a8.655,8.655,0,0,0,.076,1.259H120.5a9.31,9.31,0,0,0,.076-1.259v-4.1c-.454.038-.454.038-1.411.1a4.431,4.431,0,0,0-.567.076Zm1.4,1.661a12.916,12.916,0,0,1-.7,3.563l-.693-.315a10.4,10.4,0,0,0,.68-3.4Zm2.594-.276a18.634,18.634,0,0,1,.755,2.857l-.692.2a12.249,12.249,0,0,0-.693-2.833Zm4.193-6.735a6.914,6.914,0,0,0,1.813,2.366,9.854,9.854,0,0,0,1.763,1.259,2.726,2.726,0,0,0-.454.73,10.79,10.79,0,0,1-3.55-3.575,9.7,9.7,0,0,1-3.073,3.5,2.1,2.1,0,0,0-.5-.642,8.022,8.022,0,0,0,3.122-3.638Zm-2.091,11.229h-.856a9.035,9.035,0,0,0,.076-1.234V92.638a7.58,7.58,0,0,0-.05-.994,8.688,8.688,0,0,0,.893.038h3.627a8.421,8.421,0,0,0,.881-.038,7.338,7.338,0,0,0-.05.994v2.934a10.582,10.582,0,0,0,.063,1.284h-.869v-.768h-3.715Zm-.428-7.516a5.279,5.279,0,0,0,1.134.076h2.266a5.145,5.145,0,0,0,1.121-.076v.869a7.366,7.366,0,0,0-1.159-.063h-2.2a7.366,7.366,0,0,0-1.159.063Zm.428,6.055h3.728V92.387h-3.728Z"/><path class="cls-3" d="M137.324,93.142a5.865,5.865,0,0,0,1.637,1.573A9.577,9.577,0,0,0,142.449,96a3.226,3.226,0,0,0-.479.818c-2.669-.7-4.218-1.712-5.427-3.538a4.851,4.851,0,0,1-1.976,2.355,8.706,8.706,0,0,1-2.859,1.158,2.922,2.922,0,0,0-.465-.793,7.65,7.65,0,0,0,2.694-.907,4.184,4.184,0,0,0,1.851-1.951h-3.2a8.227,8.227,0,0,0-1.171.076v-.844a6.9,6.9,0,0,0,1.158.076h3.45a7.383,7.383,0,0,0,.176-1.209h-2.278a6.155,6.155,0,0,0-1.1.063v-.793a6.238,6.238,0,0,0,1.1.063h2.341c.026-.491.026-.629.038-1.12h-2.43a7.846,7.846,0,0,0-1.209.075v-.818a7.522,7.522,0,0,0,1.209.075h2.443a4.6,4.6,0,0,0-.076-1.019h.932a4.543,4.543,0,0,0-.063,1.019h2.631a7.4,7.4,0,0,0,1.209-.075v.818a6.639,6.639,0,0,0-1.209-.075H137.1c-.012.4-.025.705-.05,1.12h2.493a6.088,6.088,0,0,0,1.083-.063V91.3a6.081,6.081,0,0,0-1.083-.063H137a9.382,9.382,0,0,1-.188,1.209h4.306a7.072,7.072,0,0,0,1.171-.076v.844a8.159,8.159,0,0,0-1.184-.076Zm-1.032-6.9a3.3,3.3,0,0,0-.089-.781h.983a3.955,3.955,0,0,0-.076.781v.478h3.7a12.241,12.241,0,0,0,1.259-.051,5.72,5.72,0,0,0-.05.844v.743a5.619,5.619,0,0,0,.05.868h-.818V87.414h-8.865v1.712h-.831a5.735,5.735,0,0,0,.05-.868v-.73a5.791,5.791,0,0,0-.05-.857,12.347,12.347,0,0,0,1.272.051h3.463Z"/><path class="cls-3" d="M145.059,92.538a12.833,12.833,0,0,1-.717,3.626l-.668-.353a9.74,9.74,0,0,0,.692-3.412Zm-1.372-1.6a3.065,3.065,0,0,0,.466.025c.088,0,.2,0,.528-.012.491-.68.554-.755.857-1.246a13.511,13.511,0,0,0-1.763-1.926l.415-.592c.277.276.3.315.529.541a8.016,8.016,0,0,0,1.108-2.329l.756.378a7.325,7.325,0,0,0-.5.931,13.828,13.828,0,0,1-.894,1.486c.416.453.554.6.768.881a12.218,12.218,0,0,0,1.171-2.19l.73.39a6.567,6.567,0,0,0-.453.7,31,31,0,0,1-1.914,2.92c.806-.05,1.07-.088,1.738-.176a8.8,8.8,0,0,0-.491-.957l.516-.251a11.626,11.626,0,0,1,1.058,2.354l-.617.264c-.1-.4-.139-.529-.227-.793-.34.063-.642.1-1.02.151v4.154a9.413,9.413,0,0,0,.076,1.284h-.882a9.413,9.413,0,0,0,.076-1.284V91.569c-.743.075-1.133.113-1.184.113a6.321,6.321,0,0,0-.717.088Zm3.79,1.46a17.12,17.12,0,0,1,.554,2.719l-.68.164a14.4,14.4,0,0,0-.479-2.706Zm3.173,3.135a7.814,7.814,0,0,1-2.922,1.422,2.233,2.233,0,0,0-.478-.629,6.634,6.634,0,0,0,2.833-1.246Zm-1.36-8.523a8.891,8.891,0,0,0-1.158.051v-.743a7.676,7.676,0,0,0,1.183.076h1.713a5.1,5.1,0,0,0-.076-.932h.856a4.1,4.1,0,0,0-.075.932h1.9a8.067,8.067,0,0,0,1.209-.076v.743a9.221,9.221,0,0,0-1.2-.051h-1.913v.743h1.5a6.275,6.275,0,0,0,1.133-.063v.731a8.53,8.53,0,0,0-1.108-.051h-1.523v.806h2.216a7.627,7.627,0,0,0,1.171-.076v.743a10.732,10.732,0,0,0-1.171-.063h-4.886a11.339,11.339,0,0,0-1.221.063V89.1a6.7,6.7,0,0,0,1.221.076h1.965v-.806h-1.361a9.32,9.32,0,0,0-1.145.051v-.731a6.428,6.428,0,0,0,1.145.063h1.361v-.743Zm.415,7.906c-.453,0-.818.013-1.133.038a9.319,9.319,0,0,0,.05-1.158V91.543a9.272,9.272,0,0,0-.05-1.133c.3.026.579.038,1.108.038h3.551c.542,0,.793-.012,1.12-.038a10.032,10.032,0,0,0-.05,1.171v2.153a10.722,10.722,0,0,0,.05,1.221c-.377-.025-.654-.038-1.082-.038Zm-.377-3.185h4.256v-.7h-4.256Zm0,1.3h4.256v-.743h-4.256Zm0,1.309h4.256v-.755h-4.256Zm3.235.743a8.194,8.194,0,0,0,2.771,1.2,2.772,2.772,0,0,0-.466.667,9.238,9.238,0,0,1-2.846-1.4Z"/></g></svg>