<svg id="レイヤー_1" data-name="レイヤー 1" xmlns="http://www.w3.org/2000/svg" viewBox="0 0 364 50"><defs><style>.cls-1{fill:#525a70;}</style></defs><path class="cls-1" d="M362.308,1,335.891,49H1V1H362.308M364,0H0V50H336.482L364,0Z"/><path class="cls-1" d="M60.723,27.117A35.025,35.025,0,0,0,64.2,19.444,23.249,23.249,0,0,0,65.5,14.1a24.124,24.124,0,0,1,3.65.85c.25.1.375.225.375.4,0,.25-.3.4-1.1.55a37.553,37.553,0,0,1-3.049,6.049c1.7.224,1.9.274,1.9.549,0,.2-.25.375-.825.6v5.6c0,1.825,0,1.825.05,7.673,0,.275-.075.425-.225.5a4.393,4.393,0,0,1-1.774.25c-.675,0-.875-.15-.875-.625v-.05c.125-2.6.175-5.224.175-7.323V24.143a23.708,23.708,0,0,1-2.875,3.149Zm12.9.325h-3.7a8.83,8.83,0,0,0-1.724.125l-.151-.85a10.065,10.065,0,0,0,1.925.2h3.649v-6.4H69.57a7.146,7.146,0,0,0-1.624.15l-.175-.9a8.491,8.491,0,0,0,1.874.225h9.6l1.9-2.2c1.249.949,1.624,1.249,2.8,2.274a.5.5,0,0,1,.175.275c0,.1-.125.175-.3.175h-7.4v6.4h2.325c.8-.9,1.05-1.174,1.85-2.074,1.2.9,1.549,1.174,2.674,2.149a.5.5,0,0,1,.175.275c0,.1-.15.175-.35.175H76.418v8.123h3.025c.849-.925.849-.925,2.075-2.2,1.249.975,1.624,1.274,2.849,2.324.1.1.15.175.15.25,0,.1-.125.15-.325.15H69.021a10.679,10.679,0,0,0-1.75.125L67.1,35.34a9.205,9.205,0,0,0,1.974.225h4.549ZM71.32,14.4c3.424.65,4.524.95,5.223,1.5a1.605,1.605,0,0,1,.726,1.475c0,.974-.7,2-1.375,2-.3,0-.425-.125-.825-.8a14.583,14.583,0,0,0-1.625-2.124,9.972,9.972,0,0,0-2.249-1.85Z"/><path class="cls-1" d="M108.518,17.745c.725-.75.95-.975,1.649-1.625,1.25.925,1.625,1.225,2.874,2.2a.888.888,0,0,1,.326.525c0,.1-.076.175-.2.25a4.009,4.009,0,0,1-.574.075c-.525.025-.85.05-.975.05-1.9,1.05-2.274,1.25-3.424,1.8.15.125.225.225.225.325,0,.175-.2.325-.45.325-.025,0-.375-.025-1.05-.1a41.568,41.568,0,0,1-5.749,1.824v4.1l6.3-.7c.775-1.074,1-1.424,1.7-2.424,1.425.85,1.9,1.125,3.375,2.049.075.075.125.125.125.175,0,.1-.075.15-.2.175l-11.3,1.275v5.674c0,.2.051.3.15.35a16.545,16.545,0,0,0,4.025.2c2.6,0,3.3-.1,3.649-.575a30.729,30.729,0,0,0,1.949-4.9l.25.025-.175,3.924v.325c0,.4.1.5.55.675.65.225.925.55.925,1.1a1.5,1.5,0,0,1-1.025,1.425c-.675.25-1.55.325-4.3.4-.725,0-2.024.025-2.924.025-3.274,0-4.574-.175-5.3-.675-.4-.275-.575-.675-.6-1.549,0-.825,0-.825.025-2.625V28.367l-4.974.55c-.824.1-1.9.3-2.774.5l-.3-.925h.45c.725,0,2.1-.05,2.575-.1l5.023-.575V23.943a56.883,56.883,0,0,1-6.923.675l-.025-.275c5.7-1.1,11.672-3.324,13.922-5.149,1.224.75,1.624.975,2.424,1.525a13.888,13.888,0,0,0,.975-2.449h-14.9v.474a5.308,5.308,0,0,1-.55,2.575,2.443,2.443,0,0,1-2,1.374c-.725,0-1.25-.8-1.25-1.924,0-.6.175-.85.85-1.225a3.625,3.625,0,0,0,1.874-1.774,6.073,6.073,0,0,0,.476-1.85h.274a13.758,13.758,0,0,1,.275,1.825H99.97V16.17a17.65,17.65,0,0,0-.1-1.825c2.749.15,3.349.2,3.749.4.2.075.3.2.3.325,0,.2-.25.35-1.1.6v2.075Z"/><path class="cls-1" d="M121.521,18.694a8.913,8.913,0,0,1,3.525,1.275c.525-.025,4.349-.475,7.973-.9,2.074-.25,2.25-.3,2.849-.625a1,1,0,0,1,.575-.2,3.543,3.543,0,0,1,1.849,1.05c.8.7,1.2,1.3,1.2,1.725,0,.25-.05.325-.525,1.024-.275.375-.324.575-.925,2.8-1.1,4.174-1.2,4.549-1.349,5.2q1.425.75,1.425,1.649a.705.705,0,0,1-.8.725,10.813,10.813,0,0,1-1.15-.1,30.316,30.316,0,0,0-3.674-.2,44.139,44.139,0,0,0-6.349.45v.4c0,1.175-.224,1.6-.874,1.6-.525,0-1.1-.524-1.575-1.449a3.134,3.134,0,0,1-.475-1.525,2.419,2.419,0,0,1,.125-.65,8.856,8.856,0,0,0,.175-1.924,36.949,36.949,0,0,0-.825-8.023,3.812,3.812,0,0,0-2-2.15A1.681,1.681,0,0,1,121.521,18.694Zm4.524,12.1c1.075-.051,6.924-.551,8.273-.675.775-4.549,1.076-6.6,1.375-9.548-1.8,0-7.523.525-10.247.95C125.671,25.493,125.971,30.017,126.045,30.792Z"/><path class="cls-1" d="M150.771,24.068a3.816,3.816,0,0,0,2.5.525c1,0,5.574-.075,9.9-.175.426-.025,2.05-.025,2.8-.025,2.5,0,3.274.1,3.674.45a.979.979,0,0,1,.3.75c0,.624-.55,1.024-1.625,1.174-1.4.175-3.6.25-11.147.3-1.15,0-1.275.025-3.1.1a2.912,2.912,0,0,0-1.1.225,2.244,2.244,0,0,1-.85.2c-.6,0-1.274-.55-1.849-1.55a5.487,5.487,0,0,1-.875-2.6.933.933,0,0,1,.3-.825A3.835,3.835,0,0,0,150.771,24.068Z"/><path class="cls-1" d="M180.171,17.944c2.8.451,4.3.875,5.474,1.625a2.348,2.348,0,0,1,1.225,2.15c0,1.174-.575,2.074-1.35,2.074-.425,0-.675-.2-1.049-.85a11.733,11.733,0,0,0-4.425-4.724Zm19,1.45a26.727,26.727,0,0,1-5.624,7.748,40.164,40.164,0,0,1-7.248,5.7,5.657,5.657,0,0,0-1.35,1.1,1.37,1.37,0,0,1-1.05.624c-.649,0-1.574-.7-2.449-1.824a4.767,4.767,0,0,1-1.2-2.775,1.92,1.92,0,0,1,.125-.674c.674,1.149,1.5,1.849,2.174,1.849,1.05,0,4.324-1.724,7.3-3.849a49.052,49.052,0,0,0,9.023-8.048Z"/><path class="cls-1" d="M205.9,24.468a6.924,6.924,0,0,0,1.325.15h1.75c.574-.7.75-.925,1.4-1.625.9.65,1.15.85,2.025,1.525.2.125.275.225.275.3,0,.15-.175.3-.85.8v6.1a4.249,4.249,0,0,0,1.6,1.475,8.664,8.664,0,0,0,4.45.8,102.718,102.718,0,0,0,11.722-.65v.3a3.151,3.151,0,0,0-1.6,2.424c-.05.25-.125.325-.4.35-.325.025-4.549.1-6.1.1-4.924,0-6.4-.275-7.873-1.475a7.183,7.183,0,0,1-2.325-3.3,27.066,27.066,0,0,1-3.249,4.224c.025.275.05.525.05.575,0,.3-.15.625-.3.625a.525.525,0,0,1-.375-.3c-.225-.35-1-1.949-1.6-3.274a13.244,13.244,0,0,0,3.275-1.625V25.143h-1.875a5.474,5.474,0,0,0-1.15.1Zm1.15-9.948A16.916,16.916,0,0,1,211.1,16.6a2.539,2.539,0,0,1,1.175,2.024c0,1.05-1.025,2.35-1.875,2.35-.45,0-.55-.15-.924-1.275a12.7,12.7,0,0,0-2.575-5Zm16.921,5.9c.55-.625.75-.825,1.4-1.5,1.025.725,1.324.95,2.249,1.7.175.175.25.275.25.375,0,.2-.275.375-1,.675a14.73,14.73,0,0,1-2.4,4.948c2.824,2.05,3.374,2.7,3.374,3.925,0,.949-.65,2.1-1.2,2.1-.3,0-.4-.125-1.174-1.3a32.88,32.88,0,0,0-2.3-3.149,15.521,15.521,0,0,1-3.624,2.924,22.2,22.2,0,0,1-4.174,1.825l-.175-.225a21.883,21.883,0,0,0,4.049-3.2,17.636,17.636,0,0,0,2.449-3.05,34.8,34.8,0,0,0-3.524-3.349l.125-.225a35.241,35.241,0,0,1,4.149,2.35,13.69,13.69,0,0,0,1.575-4.3h-6.5c-.3,5.923-1.3,8.5-4.4,11.522l-.226-.125c1.55-3.249,2-6.3,2-13.522a35.787,35.787,0,0,0-.175-4.5,21.835,21.835,0,0,1,3.224,1.7h6.249c.8-.9,1.075-1.175,1.924-2.1,1.15.875,1.525,1.175,2.75,2.175.125.125.174.2.174.275,0,.1-.1.175-.249.175H217.669c-.049,1.749-.049,2.074-.125,3.874Z"/><path class="cls-1" d="M235.022,20.219a16.048,16.048,0,0,1,3.3,1.1,1.934,1.934,0,0,1,1.2,1.724c0,1-.725,1.975-1.475,1.975-.349,0-.574-.2-.774-.725a9.286,9.286,0,0,0-2.4-3.849Zm.1,9.048a8.44,8.44,0,0,0,1.75.325c.4,0,.525-.15,1.1-1.25.874-1.7,2.749-5.7,4.173-8.848l.326.1-3.15,10.048a4.959,4.959,0,0,0-.3,1.275,2.913,2.913,0,0,0,.3,1.074,5.541,5.541,0,0,1,.575,2.324,2.663,2.663,0,0,1-2.474,2.6.7.7,0,0,1-.75-.775,8.194,8.194,0,0,1,.125-.95,19.39,19.39,0,0,0,.3-2.924c0-1.575-.275-1.925-2.05-2.674Zm1.35-14.672c3.749.925,4.8,1.55,4.8,2.925a1.98,1.98,0,0,1-1.625,1.949c-.25,0-.475-.2-.7-.7a10.833,10.833,0,0,0-2.624-3.974Zm4.2,11.023a22.244,22.244,0,0,0,3.474-1.4,20.526,20.526,0,0,0,3.549-2.1,13.017,13.017,0,0,1-3.249-4.275h-.85a6.473,6.473,0,0,0-1.575.176l-.174-.9a7.511,7.511,0,0,0,1.749.2h4.074v-1.3c0-.575-.025-1-.075-1.85.8.075,1.425.125,1.825.15,1.6.125,2.049.25,2.049.55,0,.2-.25.35-1.05.575V17.32h3.25c.8-.95,1.05-1.225,1.85-2.1,1.2.925,1.574,1.225,2.724,2.224.1.125.15.176.15.25,0,.1-.1.15-.3.15h-3.074a15.372,15.372,0,0,1-4.024,4.324,27.109,27.109,0,0,0,7.847,1.075l-.025.3a2.623,2.623,0,0,0-1.5,2.025c-.1.425-.15.474-.375.474a17.789,17.789,0,0,1-2.1-.424v5.623c0,1.925,0,2.375.1,5.174,0,.575-.349.725-1.849.725-.9,0-1-.05-1.025-.525.025-1.9.05-3.9.05-4.5v-.95h-6.4a7.376,7.376,0,0,1-1.6,3.324,9.885,9.885,0,0,1-4.074,2.9l-.175-.25c2.9-2.425,3.574-4.424,3.574-10.5v-1.2c-1.074.225-1.474.3-2.674.474Zm4.274-7.774a10.5,10.5,0,0,0,3.874,3.375,13.554,13.554,0,0,0,2.924-3.375Zm7.173,12.8V27.417H246.1a23.426,23.426,0,0,1-.25,3.224Zm0-3.749V24.743a20.337,20.337,0,0,1-2.849-1.475,19.289,19.289,0,0,1-3.149,1.425v2.2Z"/><path class="cls-1" d="M275.745,18.619a28.452,28.452,0,0,1-2.475,1.75c.5.325.75.5,1.425,1,.175.15.25.25.25.35,0,.225-.25.35-1.05.5a19.026,19.026,0,0,1-1.75,2.5c2.425,1.049,2.95,1.524,2.95,2.574,0,.9-.425,1.625-.975,1.625-.275,0-.375-.1-1.075-1.025a11.329,11.329,0,0,0-1.949-2,18.719,18.719,0,0,1-3.224,2.675l.7.575H271.6c.474-.5.624-.675,1.1-1.15.725.7.95.925,1.725,1.65.175.175.25.275.25.4,0,.174-.1.25-.55.475v1.2c0,1.225,0,2.025.05,3.649a.855.855,0,0,1-.075.425q-.225.3-1.65.3c-.7,0-.824-.075-.824-.475v-.5h-3.25v1.1c0,.475-.35.6-1.574.6-.9,0-1.025-.075-1.025-.55.025-.475.075-1.95.125-4.449v-2.1c-.575.3-.975.475-2.05.95l-.175-.3a24.442,24.442,0,0,0,4.449-3.849,16.4,16.4,0,0,0,1.45-1.724l-1.875-1.25a17.917,17.917,0,0,1-3.724,3.149l-.2-.225a21,21,0,0,0,2.95-4.374,12.8,12.8,0,0,0,1.374-3.749c.675.176,1.225.325,1.575.4,1.275.325,1.675.475,1.675.7,0,.25-.35.4-1.075.475-.325.55-.5.825-.7,1.15H271.5c.474-.525.624-.675,1.1-1.15l.325.225a9.806,9.806,0,0,0,.6-2.249h-6.973a6.3,6.3,0,0,1,.025.724c0,1.5-.875,2.95-1.8,2.95-.625,0-1.149-.75-1.149-1.575,0-.5.174-.75.849-1.175a2.93,2.93,0,0,0,1.45-2.774l.325-.025c.15.775.2.95.25,1.35h2.374V16.22a11.88,11.88,0,0,0-.125-2c.75.075,1.325.125,1.7.15,1.474.1,1.874.225,1.874.5,0,.2-.25.35-.949.55v1.95h1.974l1.2-1.2c.874.75,1.149.975,1.975,1.725.174.174.224.25.224.349a.654.654,0,0,1-.15.225c.75.4,1.075.575,2.075,1.2h.725c.125-.775.225-1.874.325-3.274h-2.6a7.541,7.541,0,0,0-1.6.125l-.175-.85a6.417,6.417,0,0,0,1.774.2h6.124c.775-.925,1.025-1.175,1.774-2.025,1.15.9,1.5,1.175,2.575,2.15.1.1.15.175.15.25,0,.1-.1.15-.275.15h-4.549a29.534,29.534,0,0,1-2.649,3.274h3c.6-.65.8-.85,1.4-1.475.85.6,1.1.8,1.875,1.4.2.175.3.3.3.425,0,.2-.225.4-.825.7v1.874c0,3.749.025,6.774.1,8.873a.808.808,0,0,1-.075.4c-.15.175-.7.275-1.75.275-.725,0-.8-.05-.824-.425v-.45h-4.874v.375c0,.275-.075.35-.4.425q1.313.637,1.425.675c1.374.65,1.6.8,1.6,1,0,.25-.25.325-1.25.35a19.01,19.01,0,0,1-7.048,3.324l-.125-.275a14.9,14.9,0,0,0,5.274-5.049c-.775.05-1,.05-1.25.05-.674,0-.85-.125-.85-.575.075-2.374.1-3.2.1-5.6,0-5.923,0-6.323-.1-7.373ZM269.2,21.594a12.635,12.635,0,0,1-1.225,1.624c.25.075.25.075.625.2.6.175.95.3,1.6.525a15.929,15.929,0,0,0,1.3-2.349Zm-.825,13h3.25V29.667h-3.25Zm15.1-14.4h-4.874v2.924h4.874Zm-4.874,3.449v3.174h4.874V23.643Zm0,3.7v3.4h4.874v-3.4Zm2.849,4.949c4.649,1.1,5.723,1.65,5.723,3.049,0,.975-.649,1.95-1.3,1.95-.35,0-.45-.075-1.05-1.1a11.853,11.853,0,0,0-3.5-3.649Z"/></svg>