<svg id="レイヤー_1" data-name="レイヤー 1" xmlns="http://www.w3.org/2000/svg" viewBox="0 0 88.11 73.872"><defs><style>.cls-1{fill:#738da0;}</style></defs><path class="cls-1" d="M41.88,25.444V49.175A56.16,56.16,0,0,1,41,60.952a16.3,16.3,0,0,1-3.647,6.9,15.722,15.722,0,0,1-6.68,4.614,25.727,25.727,0,0,1-8.745,1.406A32.55,32.55,0,0,1,11.338,72.4a14.517,14.517,0,0,1-6.724-4.592,19.652,19.652,0,0,1-3.559-6.57Q0,57.788,0,50.273V25.444q0-9.8,1.692-14.677A14.475,14.475,0,0,1,8.416,2.944,23.761,23.761,0,0,1,20.61,0,25.583,25.583,0,0,1,31.069,2.043a17.48,17.48,0,0,1,6.9,4.988,16.478,16.478,0,0,1,3.1,6.636A60.616,60.616,0,0,1,41.88,25.444ZM24.126,19.468q0-5.67-.549-7.1a2.432,2.432,0,0,0-2.571-1.429,2.543,2.543,0,0,0-2.615,1.516q-.637,1.516-.637,7.01V54.185q0,6.195.593,7.47a2.537,2.537,0,0,0,2.571,1.275,2.506,2.506,0,0,0,2.593-1.494q.615-1.494.615-6.724Z"/><path class="cls-1" d="M86.528,60.381V72.51H47.461l.011-10.152Q64.83,33.971,68.105,27.224T71.378,16.7a7.647,7.647,0,0,0-.99-4.328,3.421,3.421,0,0,0-3.015-1.429,3.314,3.314,0,0,0-3.014,1.582q-.99,1.583-.99,6.285v6.767H47.461V22.983a56.337,56.337,0,0,1,.615-9.426,16.542,16.542,0,0,1,3.032-6.789,15.206,15.206,0,0,1,6.284-5.054A22.776,22.776,0,0,1,66.665,0q10.59,0,16.018,5.251A17.715,17.715,0,0,1,88.11,18.545a31.626,31.626,0,0,1-3.054,12.92q-3.055,6.811-18,28.916Z"/></svg>