<svg id="レイヤー_1" data-name="レイヤー 1" xmlns="http://www.w3.org/2000/svg" viewBox="0 0 89.605 73.96"><defs><style>.cls-1{fill:#738da0;}</style></defs><path class="cls-1" d="M41.88,25.488V49.219A56.167,56.167,0,0,1,41,61a16.294,16.294,0,0,1-3.647,6.9,15.733,15.733,0,0,1-6.68,4.615,25.727,25.727,0,0,1-8.745,1.406,32.55,32.55,0,0,1-10.591-1.472,14.517,14.517,0,0,1-6.724-4.592,19.661,19.661,0,0,1-3.559-6.57Q0,57.834,0,50.317V25.488q0-9.8,1.692-14.677A14.475,14.475,0,0,1,8.416,2.988,23.761,23.761,0,0,1,20.61.044,25.583,25.583,0,0,1,31.069,2.087a17.48,17.48,0,0,1,6.9,4.988,16.478,16.478,0,0,1,3.1,6.636A60.616,60.616,0,0,1,41.88,25.488ZM24.126,19.512q0-5.668-.549-7.1a2.432,2.432,0,0,0-2.571-1.429A2.543,2.543,0,0,0,18.391,12.5q-.637,1.516-.637,7.01V54.229q0,6.2.593,7.47a2.537,2.537,0,0,0,2.571,1.275,2.506,2.506,0,0,0,2.593-1.494q.615-1.494.615-6.724Z"/><path class="cls-1" d="M81.606,32.234A11,11,0,0,1,87.627,36.7q1.977,3.1,1.978,14.532,0,8.486-1.934,13.168a13.747,13.747,0,0,1-6.68,7.123q-4.746,2.439-12.173,2.44-8.437,0-13.249-2.834a13.744,13.744,0,0,1-6.328-6.944q-1.517-4.109-1.516-14.26V44.3H65.479V55.855q0,4.614.549,5.866a2.37,2.37,0,0,0,2.439,1.253,2.643,2.643,0,0,0,2.724-1.582q.66-1.583.66-8.262V48.208a14.408,14.408,0,0,0-.923-5.976A4.571,4.571,0,0,0,68.2,39.749a28.1,28.1,0,0,0-6.987-.682V28.74q6.327,0,7.822-.483a3.416,3.416,0,0,0,2.153-2.109,14.513,14.513,0,0,0,.66-5.1V17.1q0-3.735-.769-4.922a2.653,2.653,0,0,0-2.4-1.187,2.615,2.615,0,0,0-2.526,1.253q-.683,1.252-.681,5.339v5.845H47.725V17.358q0-10.194,4.658-13.776T67.192,0q12.7,0,17.227,4.962t4.526,13.789q0,5.973-1.626,8.63A14.528,14.528,0,0,1,81.606,32.234Z"/></svg>