<svg id="レイヤー_1" data-name="レイヤー 1" xmlns="http://www.w3.org/2000/svg" viewBox="0 0 89.517 73.872"><defs><style>.cls-1{fill:#738da0;}</style></defs><path class="cls-1" d="M41.88,25.444V49.175A56.167,56.167,0,0,1,41,60.952a16.3,16.3,0,0,1-3.647,6.9,15.74,15.74,0,0,1-6.68,4.614,25.727,25.727,0,0,1-8.745,1.406A32.55,32.55,0,0,1,11.338,72.4a14.517,14.517,0,0,1-6.724-4.592,19.652,19.652,0,0,1-3.559-6.57Q0,57.79,0,50.273V25.444q0-9.8,1.692-14.677A14.475,14.475,0,0,1,8.416,2.944,23.761,23.761,0,0,1,20.61,0,25.583,25.583,0,0,1,31.069,2.043a17.48,17.48,0,0,1,6.9,4.988,16.478,16.478,0,0,1,3.1,6.636A60.616,60.616,0,0,1,41.88,25.444ZM24.126,19.468q0-5.668-.549-7.1a2.432,2.432,0,0,0-2.571-1.429,2.543,2.543,0,0,0-2.615,1.516q-.637,1.516-.637,7.01V54.184q0,6.2.593,7.471a2.537,2.537,0,0,0,2.571,1.275,2.505,2.505,0,0,0,2.593-1.495q.615-1.493.615-6.723Z"/><path class="cls-1" d="M84.463,1.362V47.856h5.054V59.985H84.463V72.51H66.709V59.985H45.615V47.856L60.952,1.362ZM66.709,47.856V17.578L58.865,47.856Z"/></svg>