<svg id="レイヤー_1" data-name="レイヤー 1" xmlns="http://www.w3.org/2000/svg" viewBox="0 0 90.483 73.872"><defs><style>.cls-1{fill:#738da0;}</style></defs><path class="cls-1" d="M41.88,25.444V49.175A56.16,56.16,0,0,1,41,60.952a16.3,16.3,0,0,1-3.647,6.9,15.722,15.722,0,0,1-6.68,4.614,25.727,25.727,0,0,1-8.745,1.406A32.55,32.55,0,0,1,11.338,72.4a14.509,14.509,0,0,1-6.724-4.592,19.652,19.652,0,0,1-3.559-6.57Q0,57.79,0,50.273V25.444q0-9.8,1.692-14.677A14.479,14.479,0,0,1,8.416,2.944,23.771,23.771,0,0,1,20.61,0,25.583,25.583,0,0,1,31.069,2.044a17.469,17.469,0,0,1,6.9,4.987,16.485,16.485,0,0,1,3.1,6.636A60.623,60.623,0,0,1,41.88,25.444ZM24.126,19.468q0-5.668-.549-7.1a2.432,2.432,0,0,0-2.571-1.429,2.543,2.543,0,0,0-2.615,1.517q-.637,1.517-.637,7.009V54.185q0,6.2.593,7.47a2.536,2.536,0,0,0,2.571,1.275,2.506,2.506,0,0,0,2.593-1.494q.615-1.492.615-6.724Z"/><path class="cls-1" d="M87.012,1.362V12.744H65V24.829A13.3,13.3,0,0,1,75.63,19.951q7.338,0,11.1,4.11t3.757,15.8V50.01a60.8,60.8,0,0,1-.725,11.1,15.5,15.5,0,0,1-3.1,6.548,14.89,14.89,0,0,1-6.614,4.615,29.405,29.405,0,0,1-10.349,1.6,28.761,28.761,0,0,1-12.085-2.394,14.451,14.451,0,0,1-7.427-7.142q-2.2-4.746-2.2-14.678V45.791H65.742v4.438a67.849,67.849,0,0,0,.484,9.8,3.079,3.079,0,0,0,3.339,2.9,2.956,2.956,0,0,0,3.011-2.637q.066-.966.153-8.394V37.793q0-4-.834-5.449a2.941,2.941,0,0,0-2.769-1.45,2.987,2.987,0,0,0-2.066.747,3.434,3.434,0,0,0-1.076,1.6,19.361,19.361,0,0,0-.242,3.977H48.164l.747-35.86Z"/></svg>