<?xml version="1.0" encoding="UTF-8"?><svg id="_レイヤー_2" xmlns="http://www.w3.org/2000/svg" viewBox="0 0 235.303 95.123"><defs><style>.cls-1{fill:#c3ba9b;}.cls-2{fill:none;}.cls-3{fill:#746957;}.cls-4{fill:#c40018;}.cls-5{fill:#6a0000;}.cls-6{fill:#101010;}</style></defs><g id="_レイヤー_1-2"><polygon class="cls-1" points="77.236 31.818 52.318 56.736 40.917 45.335 25.741 60.51 52.318 87.087 92.412 46.994 77.236 31.818"/><rect class="cls-3" x="17.52" y="72.674" width="37.586" height="7.684" transform="translate(64.741 -3.266) rotate(45)"/><rect class="cls-5" x="45.983" y="32.191" width="8.273" height="17.425" transform="translate(-14.243 47.42) rotate(-45)"/><polygon class="cls-4" points="74.381 28.963 46.884 1.466 1.357 46.994 16.532 62.169 46.884 31.818 59.205 44.139 74.381 28.963"/><polygon class="cls-6" points="121.275 21.075 121.275 16.808 101.593 16.808 101.593 21.075 108.897 21.075 108.897 43.025 113.971 43.025 113.971 21.075 121.275 21.075"/><path class="cls-6" d="M134.882,16.462c-7.927,0-12.293,4.109-12.293,11.571v3.768c0,7.461,4.366,11.571,12.293,11.571s12.34-4.109,12.34-11.571v-3.768c0-7.461-4.382-11.571-12.34-11.571ZM142.147,31.8c0,4.94-2.378,7.342-7.271,7.342-4.854,0-7.214-2.402-7.214-7.342v-3.768c0-4.94,2.36-7.342,7.214-7.342,4.892,0,7.271,2.402,7.271,7.342v3.768Z"/><path class="cls-6" d="M159.897,43.371c5.633,0,8.995-2.831,8.995-7.573,0-4.389-2.146-6.558-7.918-8-3.385-.846-5.344-1.777-5.344-4.032,0-1.954,1.415-3.075,3.882-3.075,2.527,0,4.019.739,5.27,2.626l3.785-2.704c-1.838-2.755-4.897-4.151-9.093-4.151-5.668,0-8.919,2.662-8.919,7.304,0,4.198,2.383,6.702,7.728,8.116,4.138,1.072,5.534,2.118,5.534,4.146,0,1.163-.554,3.114-4.267,3.114-2.581,0-4.271-.755-5.795-2.599l-3.863,2.672c2.251,2.873,5.345,4.156,10.005,4.156Z"/><polygon class="cls-6" points="189.84 43.025 194.914 43.025 194.914 16.808 189.84 16.808 189.84 27.34 177.827 27.34 177.827 16.808 172.753 16.808 172.753 43.025 177.827 43.025 177.827 31.569 189.84 31.569 189.84 43.025"/><rect class="cls-6" x="201.208" y="16.808" width="5.074" height="26.217"/><polygon class="cls-6" points="229.004 43.025 233.268 43.025 233.268 16.808 228.463 16.808 228.463 33.794 216.8 16.808 212.575 16.808 212.575 43.025 217.381 43.025 217.381 26.273 229.004 43.025"/><polygon class="cls-6" points="132.808 50.962 127.944 61.043 123.12 50.962 117.244 50.962 125.408 66.455 125.408 77.18 130.482 77.18 130.482 66.455 138.646 50.962 132.808 50.962"/><path class="cls-6" d="M152.136,77.525c6.47,0,10.033-3.891,10.033-10.956v-15.607h-5.074v15.645c0,4.626-1.53,6.689-4.959,6.689s-4.958-2.063-4.958-6.689v-15.645h-5.075v15.645c0,9.499,6.286,10.918,10.033,10.918Z"/><polygon class="cls-6" points="176.1 65.873 182.937 77.18 188.996 77.18 179.397 61.525 187.385 50.962 181.391 50.962 172.779 62.734 172.779 50.962 167.705 50.962 167.705 77.18 172.779 77.18 172.779 70.247 176.1 65.873"/><polygon class="cls-6" points="197.391 55.23 208.538 55.23 208.538 50.962 192.316 50.962 192.316 77.18 208.538 77.18 208.538 72.951 197.391 72.951 197.391 65.724 207.385 65.724 207.385 61.495 197.391 61.495 197.391 55.23"/><path class="cls-6" d="M113.972,72.413v-21.45h-5.075v21.45c0,4.368-1.192,6.15-4.113,6.15h-3.191v4.229h3.537c5.95,0,8.842-3.395,8.842-10.379Z"/><polygon class="cls-6" points="229.004 77.18 233.268 77.18 233.268 50.962 228.463 50.962 228.463 67.949 216.8 50.962 212.575 50.962 212.575 77.18 217.381 77.18 217.381 60.428 229.004 77.18"/><rect class="cls-2" width="235.303" height="95.123"/></g></svg>