<?xml version="1.0" encoding="UTF-8"?><svg id="_レイヤー_2" xmlns="http://www.w3.org/2000/svg" viewBox="0 0 284 241.787"><defs><style>.cls-1{fill:#fff;}.cls-2{fill:#796a56;}.cls-3{fill:#c8bb9b;}.cls-4{fill:#e50012;}</style></defs><g id="_レイヤー_1-2"><polygon class="cls-4" points="23.366 202.857 23.366 76.61 260.634 28.749 260.634 202.857 284 202.857 284 0 0 57.289 0 202.857 23.366 202.857"/><polygon class="cls-3" points="283.999 0 0 0 0 57.289 283.999 0"/><path class="cls-1" d="M31.979,41.57L15.497,19.023v22.547h-5.544V9.977h5.685l16.153,21.931V9.977h5.542v31.593h-5.354Z"/><path class="cls-1" d="M42.327,25.733c0-6.036,4.397-10.907,10.562-10.907,6.251,0,10.26,4.785,10.26,11.338v1.078h-16.08c.345,3.147,2.716,5.734,6.639,5.734,2.026,0,4.44-.819,5.906-2.285l2.069,2.975c-2.069,1.983-5.13,3.018-8.45,3.018-6.251,0-10.907-4.354-10.907-10.95ZM52.889,18.533c-3.88,0-5.648,2.975-5.863,5.518h11.726c-.086-2.457-1.768-5.518-5.863-5.518Z"/><path class="cls-1" d="M87.069,36.165l-4.828-15.261-4.828,15.261h-4.742l-6.467-20.823h4.699l4.397,15.132,4.958-15.132h3.966l4.958,15.132,4.397-15.132h4.699l-6.467,20.823h-4.742Z"/><path class="cls-4" d="M80.588,109.805v-5.41c4.486.264,10.094.957,14.581,1.782v5.575c-4.223-.858-10.293-1.683-14.581-1.946ZM81.049,132.203v-5.443c12.173-.858,19.793-4.322,21.013-17.649h5.872c-1.188,16.296-10.655,22.63-26.886,23.092Z"/><path class="cls-4" d="M145.381,121.251v-17.352h5.74v17.352h-5.74ZM148.944,132.368v-5.113c10.721-.594,16.329-2.936,16.329-13.03v-10.325h5.773v10.358c0,13.162-7.785,17.814-22.102,18.111Z"/><path class="cls-4" d="M175.897,119.074v-5.245h28.601v5.245h-28.601Z"/><path class="cls-4" d="M48.369,186.66v-32.411h32.888v32.411h-32.888ZM74.608,160.421h-19.59v20.107h19.59v-20.107Z"/><path class="cls-4" d="M124.003,188.213v-7.327c5.972-5.494,7.645-14.493,7.645-24.567v-3.026h6.809v2.906c0,17.719-5.375,27.633-14.454,32.013ZM145.345,156.24v-2.946h6.928v3.066c0,10.033,1.673,18.952,7.605,24.447v7.406c-9.158-4.42-14.533-14.493-14.533-31.973Z"/><path class="cls-4" d="M222.048,176.307c-5.853,6.291-13.578,10.113-20.545,11.547v-6.41c9.158-2.548,18.913-9.954,21.899-21.222h-19.829v-6.211h27.952c-.438,6.37-2.31,11.865-5.057,16.444,2.11,5.335,6.291,8.76,9.914,10.711v7.047c-6.331-2.071-11.308-6.61-14.334-11.905Z"/><rect class="cls-4" x="48.554" y="126.134" width="18.178" height="5.179"/><rect class="cls-4" x="48.587" y="105.087" width="18.145" height="5.146"/><polygon class="cls-4" points="68.808 105.087 68.808 110.233 68.808 126.134 68.808 131.313 74.68 131.313 74.68 105.087 68.808 105.087"/><polygon class="cls-4" points="217.168 117.985 217.168 112.51 217.168 103.075 211.461 103.075 211.461 132.863 217.168 132.863 217.168 117.985"/><path class="cls-4" d="M219.245,112.893v5.503c5.391,1.08,11.744,2.472,16.991,3.813v-5.641c-5.034-1.296-11.197-2.59-16.991-3.674Z"/><path class="cls-4" d="M121.957,109.475v-5.113h-4.223c-.957,4.718-3.497,8.082-6.664,10.062v5.542c4.981-1.683,8.907-5.674,10.886-10.49Z"/><path class="cls-4" d="M124.034,104.361v5.113h10.393c-1.32,10.985-7.521,16.857-18.573,18.012v5.047c15.241-.891,24.213-9.732,24.576-26.985v-1.188h-16.397Z"/><path class="cls-4" d="M98.378,160.062v-6.171h-5.057c-1.194,5.694-4.221,9.755-8.043,12.144v6.689c6.012-2.031,10.75-6.848,13.1-12.662Z"/><path class="cls-4" d="M119.202,150.666v3.225h-1.274v-3.225h-3.942v3.225h-13.102v6.171h12.385c-1.593,13.259-9.118,20.346-22.417,21.74v6.092c18.037-1.075,28.827-11.388,29.584-31.534h2.747v-5.694h-3.982Z"/><polygon class="cls-4" points="169.7 163.287 169.7 157.275 163.25 157.275 163.25 171.729 169.7 171.729 169.7 163.287"/><path class="cls-4" d="M183.636,157.275v-5.255h-6.928v5.255h-4.502v6.012h18.079c-.517,11.348-7.047,17.161-17.957,18.754v6.211c17.798-2.071,25.403-11.746,25.403-29.902v-1.075h-14.095Z"/><path class="cls-2" d="M11.606,236.915l-8.65-11.832v11.832H.048v-16.579h2.983l8.476,11.508v-11.508h2.908v16.579h-2.809Z"/><path class="cls-2" d="M17.373,230.9c0-3.48,2.535-6.289,6.09-6.289,3.604,0,5.916,2.759,5.916,6.537v.622h-9.271c.199,1.815,1.566,3.306,3.828,3.306,1.168,0,2.56-.472,3.405-1.317l1.193,1.715c-1.193,1.143-2.958,1.74-4.872,1.74-3.604,0-6.289-2.51-6.289-6.313ZM23.463,226.749c-2.237,0-3.256,1.715-3.38,3.182h6.761c-.05-1.417-1.019-3.182-3.38-3.182Z"/><path class="cls-2" d="M42.677,236.915l-2.784-8.799-2.784,8.799h-2.734l-3.729-12.006h2.709l2.535,8.725,2.858-8.725h2.287l2.858,8.725,2.535-8.725h2.709l-3.729,12.006h-2.734Z"/><path class="cls-4" d="M57.168,228.638c0-5.096,3.803-8.576,8.7-8.576,3.356,0,5.419,1.74,6.661,3.729l-2.486,1.267c-.795-1.367-2.386-2.411-4.176-2.411-3.281,0-5.717,2.511-5.717,5.99s2.436,5.99,5.717,5.99c1.79,0,3.38-1.019,4.176-2.411l2.486,1.267c-1.268,1.989-3.306,3.728-6.661,3.728-4.897,0-8.7-3.48-8.7-8.575Z"/><path class="cls-4" d="M74.294,230.9c0-3.43,2.361-6.289,6.164-6.289,3.853,0,6.189,2.859,6.189,6.289,0,3.455-2.336,6.313-6.189,6.313-3.803,0-6.164-2.858-6.164-6.313ZM83.938,230.9c0-2.113-1.243-3.977-3.48-3.977-2.212,0-3.455,1.864-3.455,3.977,0,2.138,1.243,4.002,3.455,4.002,2.237,0,3.48-1.864,3.48-4.002Z"/><path class="cls-4" d="M97.635,236.915v-7.506c0-1.864-.945-2.486-2.411-2.486-1.342,0-2.486.795-3.082,1.615v8.376h-2.61v-12.006h2.61v1.641c.795-.945,2.336-1.939,4.225-1.939,2.585,0,3.878,1.392,3.878,3.853v8.451h-2.61Z"/><path class="cls-4" d="M103.128,230.9c0-3.629,2.56-6.289,6.214-6.289,2.336,0,3.753.994,4.598,2.138l-1.715,1.591c-.671-.945-1.591-1.417-2.759-1.417-2.187,0-3.629,1.641-3.629,3.977s1.442,4.002,3.629,4.002c1.168,0,2.088-.497,2.759-1.417l1.715,1.591c-.845,1.143-2.262,2.138-4.598,2.138-3.654,0-6.214-2.66-6.214-6.313Z"/><path class="cls-4" d="M116.476,236.915v-12.006h2.61v1.765c.895-1.143,2.336-2.038,3.902-2.038v2.585c-.224-.05-.497-.075-.82-.075-1.094,0-2.56.746-3.082,1.591v8.178h-2.61Z"/><path class="cls-4" d="M124.603,230.9c0-3.48,2.535-6.289,6.09-6.289,3.604,0,5.916,2.759,5.916,6.537v.622h-9.271c.199,1.815,1.566,3.306,3.828,3.306,1.168,0,2.56-.472,3.405-1.317l1.193,1.715c-1.193,1.143-2.958,1.74-4.872,1.74-3.604,0-6.289-2.51-6.289-6.313ZM130.693,226.749c-2.237,0-3.256,1.715-3.38,3.182h6.761c-.05-1.417-1.019-3.182-3.38-3.182Z"/><path class="cls-4" d="M139.965,234.132v-6.935h-1.988v-2.287h1.988v-3.281h2.61v3.281h2.436v2.287h-2.436v6.289c0,.82.397,1.417,1.143,1.417.497,0,.969-.199,1.168-.422l.621,1.964c-.472.448-1.243.771-2.46.771-2.014,0-3.082-1.093-3.082-3.082Z"/><path class="cls-4" d="M146.875,230.9c0-3.48,2.535-6.289,6.09-6.289,3.604,0,5.916,2.759,5.916,6.537v.622h-9.272c.199,1.815,1.566,3.306,3.828,3.306,1.168,0,2.56-.472,3.405-1.317l1.193,1.715c-1.193,1.143-2.958,1.74-4.872,1.74-3.604,0-6.289-2.51-6.289-6.313ZM152.964,226.749c-2.237,0-3.256,1.715-3.38,3.182h6.761c-.05-1.417-1.019-3.182-3.381-3.182Z"/><path class="cls-4" d="M168.425,236.915v-16.579h2.908v14.019h7.308v2.56h-10.216Z"/><path class="cls-4" d="M180.704,230.9c0-3.43,2.361-6.289,6.164-6.289,3.853,0,6.189,2.859,6.189,6.289,0,3.455-2.337,6.313-6.189,6.313-3.803,0-6.164-2.858-6.164-6.313ZM190.348,230.9c0-2.113-1.243-3.977-3.48-3.977-2.212,0-3.455,1.864-3.455,3.977,0,2.138,1.243,4.002,3.455,4.002,2.237,0,3.48-1.864,3.48-4.002Z"/><path class="cls-4" d="M195.792,239.998l1.218-1.889c.969,1.118,2.212,1.541,3.803,1.541,1.715,0,3.554-.796,3.554-3.256v-1.441c-.919,1.193-2.286,1.989-3.853,1.989-3.057,0-5.319-2.212-5.319-6.164,0-3.878,2.237-6.164,5.319-6.164,1.516,0,2.883.696,3.853,1.964v-1.666h2.61v11.384c0,4.325-3.207,5.493-6.164,5.493-2.038,0-3.554-.448-5.021-1.789ZM204.367,233.013v-4.474c-.571-.895-1.864-1.615-3.082-1.615-2.063,0-3.38,1.541-3.38,3.853s1.317,3.853,3.38,3.853c1.218,0,2.511-.721,3.082-1.615Z"/><path class="cls-4" d="M225.371,236.915v-7.556c0-1.864-.97-2.436-2.436-2.436-1.318,0-2.461.795-3.082,1.615v8.376h-2.61v-16.579h2.61v6.214c.796-.945,2.361-1.939,4.25-1.939,2.585,0,3.878,1.342,3.878,3.803v8.501h-2.61Z"/><path class="cls-4" d="M230.864,230.9c0-3.43,2.361-6.289,6.164-6.289,3.853,0,6.189,2.859,6.189,6.289,0,3.455-2.337,6.313-6.189,6.313-3.803,0-6.164-2.858-6.164-6.313ZM240.508,230.9c0-2.113-1.243-3.977-3.48-3.977-2.212,0-3.455,1.864-3.455,3.977,0,2.138,1.243,4.002,3.455,4.002,2.237,0,3.48-1.864,3.48-4.002Z"/><path class="cls-4" d="M254.204,236.915v-1.591c-.87.97-2.361,1.889-4.25,1.889-2.585,0-3.853-1.342-3.853-3.803v-8.501h2.61v7.557c0,1.864.945,2.436,2.411,2.436,1.318,0,2.461-.746,3.082-1.566v-8.427h2.61v12.006h-2.61Z"/><path class="cls-4" d="M259.399,235.35l1.193-1.889c.845.87,2.511,1.69,4.077,1.69s2.361-.671,2.361-1.615c0-2.361-7.258-.671-7.258-5.27,0-1.964,1.69-3.654,4.723-3.654,2.038,0,3.579.721,4.673,1.69l-1.094,1.839c-.721-.82-2.063-1.441-3.554-1.441-1.367,0-2.237.621-2.237,1.467,0,2.138,7.258.547,7.258,5.319,0,2.113-1.765,3.728-4.996,3.728-2.038,0-3.903-.646-5.145-1.864Z"/><path class="cls-4" d="M271.678,230.9c0-3.48,2.535-6.289,6.09-6.289,3.604,0,5.916,2.759,5.916,6.537v.622h-9.272c.199,1.815,1.566,3.306,3.828,3.306,1.168,0,2.56-.472,3.405-1.317l1.193,1.715c-1.193,1.143-2.958,1.74-4.872,1.74-3.604,0-6.289-2.51-6.289-6.313ZM277.768,226.749c-2.237,0-3.256,1.715-3.38,3.182h6.761c-.05-1.417-1.019-3.182-3.381-3.182Z"/></g></svg>