<svg id="レイヤー_1" data-name="レイヤー 1" xmlns="http://www.w3.org/2000/svg" viewBox="0 0 50 50"><defs><style>.cls-1{fill:#231815;}.cls-2{fill:#fff;}</style></defs><rect class="cls-1" width="50" height="50"/><path class="cls-2" d="M5.56,27.81a8.22,8.22,0,0,0,.07-1.35V18.78a7.64,7.64,0,0,0-.07-1.23H7.2a7.75,7.75,0,0,0,0,1.26V21a35.36,35.36,0,0,1,5.45,2.53L11.76,25A27.46,27.46,0,0,0,7.51,22.7a2.82,2.82,0,0,1-.4-.21,7.5,7.5,0,0,1,0,.82v3.17a12.07,12.07,0,0,0,0,1.33Z"/><path class="cls-2" d="M15.73,20.37a13.36,13.36,0,0,1,1.18,2.84l-1.36.44a11.9,11.9,0,0,0-1.09-2.91Zm6.89.09a2.37,2.37,0,0,0-.17.61,10.2,10.2,0,0,1-1.66,4A9.17,9.17,0,0,1,17.14,28a4.37,4.37,0,0,0-1-1.19,7.58,7.58,0,0,0,2-1.1,6.92,6.92,0,0,0,2.72-4.16,5.21,5.21,0,0,0,.22-1.38Zm-4.33-.58a12,12,0,0,1,1.16,2.76l-1.33.42A13.47,13.47,0,0,0,17,20.24Z"/><path class="cls-2" d="M31.27,18.55a5.16,5.16,0,0,0,.66,0,1.32,1.32,0,1,1,1.33,1.36h-.13a12.19,12.19,0,0,1-1.62,3.87,10.45,10.45,0,0,1-3,2.9,12.54,12.54,0,0,1-2.28,1.19,4.63,4.63,0,0,0-1.06-1.43,9.45,9.45,0,0,0,2.63-1.22A8.31,8.31,0,0,0,31.45,20H25.74a9.57,9.57,0,0,0-1.51.07V18.46a7.71,7.71,0,0,0,1.54.09Zm1.3,0a.68.68,0,0,0,1.36,0,.67.67,0,0,0-.68-.68A.69.69,0,0,0,32.57,18.55Z"/><path class="cls-2" d="M35.14,23.24a15.48,15.48,0,0,0,2.61-2.94,4.12,4.12,0,0,1,.75-.76,1.64,1.64,0,0,1,1-.36,1.71,1.71,0,0,1,1.08.46,7.55,7.55,0,0,1,.8.86,37.5,37.5,0,0,0,3.59,3.67,8,8,0,0,0,1.3,1l-.73,1.7a2.28,2.28,0,0,0-.35-.34c-.62-.56-1.57-1.45-2.44-2.33s-.94-1-2.22-2.44c-.74-.85-.82-.91-1-.91s-.32.11-.72.65a34.78,34.78,0,0,1-2.37,2.9,2.39,2.39,0,0,0-.25.33Z"/><path class="cls-2" d="M16.38,37.42c-.06,2.77-.45,4.19-1.58,5.79a5.46,5.46,0,0,0-1-1c1.11-1.55,1.37-2.82,1.37-6.65a11,11,0,0,0-.05-1.2c.37,0,.77,0,1.31,0H23a9.52,9.52,0,0,0,1.08,0c0,.25,0,.49,0,.88v1.29c0,.42,0,.64,0,.92a7.87,7.87,0,0,0-1.08,0Zm8.46-3.6a12.25,12.25,0,0,0-1.39-.06H15.62a13.4,13.4,0,0,0-1.39.06V32.53a10.86,10.86,0,0,0,1.39.07h7.83a10.16,10.16,0,0,0,1.39-.07Zm-3.63,6a3.75,3.75,0,0,0,1.52,1.41,6.77,6.77,0,0,0,2.32.68,5.14,5.14,0,0,0-.47,1.3,7.35,7.35,0,0,1-2.71-1.06,5,5,0,0,1-1.56-1.65A4,4,0,0,1,19,42a7.91,7.91,0,0,1-2.62,1.17A4.55,4.55,0,0,0,15.67,42c2-.38,3-1,3.62-2.15H17.83a9.7,9.7,0,0,0-1.25.06V38.62a8.18,8.18,0,0,0,1.25.06H19.6a4.68,4.68,0,0,0,.06-.79s0-.12,0-.25H21a3.26,3.26,0,0,0-.06.51c0,.15,0,.26-.06.53h2.59a8.61,8.61,0,0,0,1.29-.06v1.26a10.35,10.35,0,0,0-1.29-.07Zm1.63-3.43v-.91H16.4v.42c0,.19,0,.34,0,.49Z"/><path class="cls-2" d="M29.75,37.31a5.91,5.91,0,0,1,2.52-.55c2.06,0,3.37,1.06,3.37,2.7A2.92,2.92,0,0,1,34,42.11a5.87,5.87,0,0,1-2.9.68,4.06,4.06,0,0,1-2.33-.55,1.72,1.72,0,0,1-.72-1.38,1.85,1.85,0,0,1,2.07-1.71,2.58,2.58,0,0,1,2.07,1,3.29,3.29,0,0,1,.55,1.08c1-.37,1.43-.89,1.43-1.74s-.92-1.54-2.37-1.54a7.33,7.33,0,0,0-4.94,2l-.82-1.29a11.21,11.21,0,0,0,1.69-1.13,39.59,39.59,0,0,0,3.59-3.12l.21-.22h0c-.46.06-1.22.11-3.39.21a3.34,3.34,0,0,0-.58.06L27.5,33a12.68,12.68,0,0,0,1.42.07c1,0,2.48-.06,3.64-.15a1.7,1.7,0,0,0,.75-.15l.74,1a2.47,2.47,0,0,0-.63.5c-.59.55-1.47,1.33-1.88,1.68-.21.17-1.08.82-1.32,1s-.3.2-.49.31Zm.37,3c-.44,0-.71.22-.71.55s.54.76,1.42.76a3.19,3.19,0,0,0,.63,0C31.24,40.73,30.79,40.3,30.12,40.3Z"/><polygon class="cls-2" points="27.55 12.13 21.11 12.13 24.33 6.56 27.55 12.13"/></svg>