<?xml version="1.0" encoding="UTF-8"?>
<svg id="_レイヤー_2" data-name="レイヤー 2" xmlns="http://www.w3.org/2000/svg" viewBox="0 0 29.44 35.48">
  <defs>
    <style>
      .cls-1 {
        fill: #fff;
      }

      .cls-2 {
        fill: none;
        stroke: #fff;
        stroke-miterlimit: 10;
        stroke-width: 2px;
      }
    </style>
  </defs>
  <g id="_レイヤー_1-2" data-name="レイヤー 1">
    <g>
      <polyline class="cls-2" points="1.15 11.92 14.84 1.27 28.52 11.92"/>
      <g>
        <path class="cls-1" d="M1.69,22.37c.14-.1.21-.15.32-.26.25-.25,1.12-1.27,1.57-1.86.3-.4.48-.59.66-.69.18-.12.39-.18.6-.18.43,0,.64.14,1.31.9.91,1.01,1.81,1.91,2.85,2.8.47.4.62.54.83.67l-.55,1.2c-1.76-1.62-2.15-2-3.72-3.72q-.56-.62-.71-.62c-.14,0-.18.03-.54.51-.37.49-.96,1.22-1.57,1.96-.13.15-.18.21-.3.37l-.75-1.08ZM9.2,19.65c0,.54-.43.97-.97.97s-.97-.44-.97-.97.43-.97.97-.97.97.43.97.97ZM7.74,19.65c0,.27.23.5.5.5s.5-.23.5-.5-.22-.5-.5-.5-.5.23-.5.5Z"/>
        <path class="cls-1" d="M11.03,21.2c.39.05.55.06,1.42.06h4.68c.87,0,1.04,0,1.42-.06v1.22c-.35-.04-.45-.04-1.43-.04h-4.67c-.98,0-1.08,0-1.43.04v-1.22Z"/>
        <path class="cls-1" d="M20.88,20.4c.91.36,1.58.71,2.34,1.2l-.54.99c-.7-.52-1.49-.94-2.38-1.28l.59-.91ZM20.49,24.34c.67,0,1.63-.22,2.54-.57,1.09-.42,1.84-.99,2.54-1.92.47-.64.75-1.17,1.02-1.95.36.38.49.49.91.78-.4.98-.77,1.59-1.32,2.22-1.12,1.29-2.61,2.07-4.77,2.5-.32.06-.44.1-.62.15l-.31-1.2ZM21.56,18.27c.91.35,1.6.69,2.34,1.13l-.56.97c-.8-.54-1.58-.94-2.35-1.2l.57-.9ZM26.24,18.31c.36.38.53.61.83,1.15l-.66.38c-.27-.5-.5-.83-.83-1.18l.66-.35ZM27.36,19.28c-.25-.47-.48-.78-.8-1.13l.62-.34c.35.36.56.64.82,1.1l-.64.38Z"/>
        <path class="cls-1" d="M3.58,34.19c0,.47.02.78.07,1.14h-1.33c.05-.37.07-.67.07-1.14v-4.8h-1.19c-.52,0-.9.02-1.2.06v-1.18c.32.04.69.06,1.2.06h3.48c.63,0,.96-.02,1.29-.06v1.18c-.33-.04-.66-.06-1.29-.06h-1.1v4.8Z"/>
        <path class="cls-1" d="M12.34,29.08c.64.64.98,1.6.98,2.74,0,2.22-1.29,3.67-3.29,3.67s-3.28-1.43-3.28-3.67c0-1.13.35-2.11,1-2.74.61-.6,1.34-.88,2.27-.88s1.71.28,2.31.88ZM12.1,31.82c0-.89-.25-1.6-.69-2.05-.36-.35-.83-.54-1.35-.54-1.27,0-2.07,1-2.07,2.59,0,.88.25,1.62.71,2.07.36.35.83.54,1.36.54,1.26,0,2.04-1,2.04-2.62Z"/>
        <path class="cls-1" d="M14.62,35.33c.05-.35.07-.66.07-1.13v-4.75c0-.42-.02-.74-.07-1.13.38.02.65.03,1.12.03h1.84c.85,0,1.45.2,1.87.62.36.35.54.88.54,1.51,0,.67-.2,1.21-.59,1.62-.43.43-1.03.63-1.87.63h-1.68v1.47c0,.47.02.81.07,1.14h-1.3ZM17.53,31.71c.81,0,1.25-.43,1.25-1.2,0-.35-.1-.64-.29-.84-.2-.22-.49-.32-.96-.32h-1.68v2.36h1.68Z"/>
        <path class="cls-1" d="M21.31,32.28c.38-.26.76-.69,1.92-2.15.23-.28.38-.44.54-.55.24-.18.48-.26.7-.26.26,0,.53.11.79.33.12.11.32.31.59.63.8.94,1.65,1.81,2.63,2.69.45.4.67.57.96.74l-.54,1.25c-.09-.11-.12-.14-.25-.25-.46-.4-1.15-1.06-1.79-1.71-.67-.69-.69-.71-1.63-1.78-.54-.62-.6-.67-.76-.67-.14,0-.23.08-.53.47-.72.97-1.2,1.56-1.73,2.13-.1.11-.11.13-.18.24l-.71-1.1Z"/>
      </g>
    </g>
  </g>
</svg>