<svg id="レイヤー_1" data-name="レイヤー 1" xmlns="http://www.w3.org/2000/svg" viewBox="0 0 202 36"><defs><style>.cls-1{fill:#fff;}</style></defs><path class="cls-1" d="M33.25,3.85a5.14,5.14,0,0,1,8.29,0A10.85,10.85,0,0,1,43.1,9.94,10.75,10.75,0,0,1,41.54,16a5.11,5.11,0,0,1-8.29,0,11.08,11.08,0,0,1-1.57-6.07A10.89,10.89,0,0,1,33.25,3.85Zm2,11.88c.47,1.24,1.2,1.86,2.18,1.86s1.85-.72,2.32-2.23a18.72,18.72,0,0,0,.55-5.42,16.91,16.91,0,0,0-.68-5.79c-.47-1.27-1.18-1.87-2.19-1.87-2,0-2.87,2.34-2.87,7.66A17.12,17.12,0,0,0,35.22,15.73Z"/><path class="cls-1" d="M57.16,13.63c0,2.74-2.22,4.5-5.72,4.5-3.32,0-5.35-1.5-5.35-4A3.9,3.9,0,0,1,47.67,11a7.11,7.11,0,0,1,1.93-1c-2.25-1.18-3.06-2.21-3.06-4,0-2.61,2-4.31,5.16-4.31,2.91,0,4.86,1.53,4.86,3.76,0,1.69-1.09,2.91-3.17,3.54C56.05,10.2,57.16,11.57,57.16,13.63ZM49,11.31a4,4,0,0,0-.83,2.6,3.34,3.34,0,0,0,3.4,3.66,3,3,0,0,0,3.15-3.09,3,3,0,0,0-1.52-2.61,12.72,12.72,0,0,0-2-1.1l-1-.42A3.54,3.54,0,0,0,49,11.31Zm4.84-3.47a3.82,3.82,0,0,0,.67-2.34A4,4,0,0,0,54,3.55,2.72,2.72,0,0,0,51.59,2.3,2.53,2.53,0,0,0,48.85,5a2.92,2.92,0,0,0,1.56,2.57,13.55,13.55,0,0,0,1.4.73l.94.43A3,3,0,0,0,53.86,7.84Z"/><path class="cls-1" d="M61.71,3.85a5.14,5.14,0,0,1,8.29,0,10.85,10.85,0,0,1,1.57,6.09A10.75,10.75,0,0,1,70,16a5.11,5.11,0,0,1-8.29,0,11.08,11.08,0,0,1-1.56-6.07A10.89,10.89,0,0,1,61.71,3.85Zm2,11.88q.71,1.86,2.19,1.86c1.09,0,1.84-.72,2.31-2.23a18.29,18.29,0,0,0,.56-5.42,16.85,16.85,0,0,0-.69-5.79c-.47-1.27-1.17-1.87-2.18-1.87-2,0-2.87,2.34-2.87,7.66A17.18,17.18,0,0,0,63.68,15.73Z"/><path class="cls-1" d="M75.94,3.85a5.14,5.14,0,0,1,8.29,0A10.85,10.85,0,0,1,85.8,9.94,10.75,10.75,0,0,1,84.23,16a5.11,5.11,0,0,1-8.29,0,11.17,11.17,0,0,1-1.56-6.07A10.89,10.89,0,0,1,75.94,3.85Zm2,11.88c.48,1.24,1.2,1.86,2.19,1.86s1.84-.72,2.31-2.23A18.29,18.29,0,0,0,83,9.94a16.91,16.91,0,0,0-.68-5.79c-.48-1.27-1.18-1.87-2.19-1.87-2,0-2.87,2.34-2.87,7.66A17.18,17.18,0,0,0,77.91,15.73Z"/><path class="cls-1" d="M88.87,10.62h5v1.81h-5Z"/><path class="cls-1" d="M99.13,17.19a3.12,3.12,0,0,0,1.61-.26c.49-.26.64-.82.64-2.19V4.88a6.47,6.47,0,0,0-.06-1.29C101.23,3.12,101,3,99.86,3h-.58v-.6c2-.17,3.6-.39,5-.64-.13,1.52-.2,3.32-.2,5.4v7.57c0,1.31.13,1.85.52,2.15s.56.27,1.65.3v.6H99.13Z"/><path class="cls-1" d="M114.46,4.36a1.61,1.61,0,0,0-1.69.86,6,6,0,0,0-.65,1.91l-.7-.09.66-5h10.24V3.59a28.22,28.22,0,0,0-3.4,6.45,24.08,24.08,0,0,0-1,3.8,17.86,17.86,0,0,0-.26,2.87,1.37,1.37,0,0,1-.43,1.16,2.29,2.29,0,0,1-1.37.35c-.94,0-1.41-.35-1.41-1,0-1.42,1.13-4.31,3-7.45.86-1.52,1.76-2.91,3.47-5.38Z"/><path class="cls-1" d="M127,3.85a5.14,5.14,0,0,1,8.29,0,10.85,10.85,0,0,1,1.56,6.09A10.75,10.75,0,0,1,135.27,16,5.11,5.11,0,0,1,127,16a11.08,11.08,0,0,1-1.57-6.07A10.89,10.89,0,0,1,127,3.85Zm2,11.88c.47,1.24,1.2,1.86,2.18,1.86s1.85-.72,2.32-2.23A18.72,18.72,0,0,0,134,9.94a16.91,16.91,0,0,0-.68-5.79c-.47-1.27-1.18-1.87-2.19-1.87-2,0-2.87,2.34-2.87,7.66A17.12,17.12,0,0,0,129,15.73Z"/><path class="cls-1" d="M139.9,10.62h5v1.81h-5Z"/><path class="cls-1" d="M149.87,9.81A5.55,5.55,0,0,1,154,8.07c3.13,0,5.08,1.85,5.08,4.83,0,3.19-2.25,5.23-5.81,5.23-2.8,0-5-1.35-5-3.11,0-.81.54-1.24,1.52-1.24a1.37,1.37,0,0,1,1.07.36c.15.17.2.34.22,1a2.5,2.5,0,0,0,.6,1.76,2.26,2.26,0,0,0,1.67.7,2.46,2.46,0,0,0,2.1-1.09,6.24,6.24,0,0,0,.81-3.3c0-2.71-1.11-4.27-3-4.27a4.31,4.31,0,0,0-3.6,2.34l-.71-.18.71-9h8.77L158,4.47H150.3Z"/><path class="cls-1" d="M164.4,17.19a3.12,3.12,0,0,0,1.61-.26c.49-.26.64-.82.64-2.19V4.88a5.1,5.1,0,0,0-.07-1.29c-.08-.47-.36-.58-1.45-.58h-.58v-.6c2-.17,3.6-.39,5-.64-.12,1.52-.19,3.32-.19,5.4v7.57c0,1.31.13,1.85.51,2.15s.56.27,1.66.3v.6H164.4Z"/><path class="cls-1" d="M178,3.85a5.14,5.14,0,0,1,8.29,0,10.85,10.85,0,0,1,1.57,6.09A10.75,10.75,0,0,1,186.3,16,5.11,5.11,0,0,1,178,16a11.08,11.08,0,0,1-1.56-6.07A10.89,10.89,0,0,1,178,3.85Zm2,11.88q.71,1.86,2.19,1.86c1.09,0,1.84-.72,2.31-2.23A18.29,18.29,0,0,0,185,9.94a16.85,16.85,0,0,0-.69-5.79c-.47-1.27-1.18-1.87-2.18-1.87-2,0-2.87,2.34-2.87,7.66A17.18,17.18,0,0,0,180,15.73Z"/><path class="cls-1" d="M199.61,15.08c0,1.79.28,2.08,1.93,2.11v.6h-6.45v-.58c1-.05,1.24-.09,1.5-.3s.45-.8.45-1.83V13.56h-6.92v-1l7.5-10.66h2V12.6h2.3v1h-2.3ZM197,4.1l-5.95,8.5H197Z"/><path class="cls-1" d="M32.64,34.12A1.93,1.93,0,0,0,33.4,34c.25-.11.31-.35.31-1.18V28c0-1,0-1-.12-1.08s-.23-.11-.52-.11h-.43v-.33a13.17,13.17,0,0,0,2.18-.3c0,.91-.09,1.89-.09,3.25v3.43c0,.77.05,1,.21,1.14s.19.13.84.16v.33H32.64Z"/><path class="cls-1" d="M39.33,27.37a2.58,2.58,0,0,1,4.46,0,7.2,7.2,0,0,1,0,6,2.58,2.58,0,0,1-4.46,0,7.1,7.1,0,0,1,0-6Zm2.23,7c1.24,0,1.78-1.21,1.78-4s-.54-4-1.78-4-1.77,1.22-1.77,4S40.33,34.33,41.56,34.33Z"/><path class="cls-1" d="M48.14,29.28a.82.82,0,1,1-.81-.81A.79.79,0,0,1,48.14,29.28Zm0,4.51a.82.82,0,1,1-.81-.81A.79.79,0,0,1,48.14,33.79Z"/><path class="cls-1" d="M50.87,27.37a2.58,2.58,0,0,1,4.46,0,7.1,7.1,0,0,1,0,6,2.58,2.58,0,0,1-4.46,0,7.1,7.1,0,0,1,0-6Zm2.23,7c1.24,0,1.78-1.21,1.78-4s-.54-4-1.78-4-1.77,1.22-1.77,4S51.87,34.33,53.1,34.33Z"/><path class="cls-1" d="M58.22,27.37a2.58,2.58,0,0,1,4.46,0,7.2,7.2,0,0,1,0,6,2.58,2.58,0,0,1-4.46,0,7.1,7.1,0,0,1,0-6Zm2.23,7c1.24,0,1.78-1.21,1.78-4s-.54-4-1.78-4-1.77,1.22-1.77,4S59.22,34.33,60.45,34.33Z"/><path class="cls-1" d="M65.07,30.76C66,29.53,66.79,29,67.74,29c.64,0,1.22.25,2.93,1.25a5.44,5.44,0,0,0,2.47,1,1.69,1.69,0,0,0,.93-.34,4.09,4.09,0,0,0,.93-1l.27.18a4.54,4.54,0,0,1-1.06,1.36,2,2,0,0,1-1.48.62,2.87,2.87,0,0,1-.75-.1,9.27,9.27,0,0,1-2.15-1.11,6,6,0,0,0-2.66-1.07A2.94,2.94,0,0,0,65.32,31Z"/><path class="cls-1" d="M78.32,34.12a1.93,1.93,0,0,0,.76-.12c.25-.11.31-.35.31-1.18V28c0-1,0-1-.12-1.08s-.23-.11-.52-.11h-.43v-.33a13.47,13.47,0,0,0,2.19-.3c-.06.91-.1,1.89-.1,3.25v3.43c0,.77,0,1,.21,1.14s.19.13.84.16v.33H78.32Z"/><path class="cls-1" d="M90.08,32.38c0,1.38-1.12,2.26-2.88,2.26s-2.79-.83-2.79-2.13a2.17,2.17,0,0,1,.86-1.68,4.9,4.9,0,0,1,1.11-.56,6.76,6.76,0,0,1-1-.61,1.68,1.68,0,0,1-.61-1.4,2.13,2.13,0,0,1,.44-1.34,2.85,2.85,0,0,1,2.13-.83,2.52,2.52,0,0,1,2.11.94,1.85,1.85,0,0,1,.32,1.12,1.61,1.61,0,0,1-.66,1.35A2.78,2.78,0,0,1,88,30C89.42,30.57,90.08,31.33,90.08,32.38Zm-4.14-1.45a1.93,1.93,0,0,0-.67,1.49,1.85,1.85,0,0,0,2,1.91,1.71,1.71,0,0,0,1.88-1.71,1.59,1.59,0,0,0-.86-1.37,7,7,0,0,0-1.06-.58l-.46-.21A2,2,0,0,0,85.94,30.93Zm3-2.76A1.59,1.59,0,0,0,87.2,26.4a1.46,1.46,0,0,0-1.59,1.54c0,.61.25,1,1,1.38.15.08.15.08.82.38.08.05.2.09.34.18A1.74,1.74,0,0,0,88.91,28.17Z"/><path class="cls-1" d="M93.82,29.28a.82.82,0,1,1-.81-.81A.79.79,0,0,1,93.82,29.28Zm0,4.51A.82.82,0,1,1,93,33,.79.79,0,0,1,93.82,33.79Z"/><path class="cls-1" d="M96.55,27.37a2.58,2.58,0,0,1,4.46,0,7.2,7.2,0,0,1,0,6,2.58,2.58,0,0,1-4.46,0,7.1,7.1,0,0,1,0-6Zm2.23,7c1.24,0,1.78-1.21,1.78-4s-.54-4-1.78-4S97,27.61,97,30.37,97.55,34.33,98.78,34.33Z"/><path class="cls-1" d="M103.9,27.37a2.58,2.58,0,0,1,4.46,0,7.2,7.2,0,0,1,0,6,2.58,2.58,0,0,1-4.46,0,7.1,7.1,0,0,1,0-6Zm2.23,7c1.24,0,1.78-1.21,1.78-4s-.54-4-1.78-4-1.77,1.22-1.77,4S104.9,34.33,106.13,34.33Z"/><path class="cls-1" d="M127.49,26.77V26.1a4,4,0,0,0-.06-1c1.07.1,1.34.16,1.33.29s-.13.16-.45.26v1.07h3.3l.48-.61,1.1.77c.05.05.06.07.06.11s0,0-.06.07a.77.77,0,0,1-.26.09,3,3,0,0,0-.45.13c-.3.35-.43.49-.79.88l-.17,0a3.2,3.2,0,0,1,.07-.39c.06-.38.07-.48.1-.75h-7.58a2.88,2.88,0,0,1-.44,1.37c-.19.3-.41.51-.54.51s-.41-.39-.41-.74a.32.32,0,0,1,.09-.23l.23-.16a2.5,2.5,0,0,0,.7-1A5.21,5.21,0,0,0,124,26h.18v.48a1.94,1.94,0,0,1,0,.29Zm-2.8,2.45a7.83,7.83,0,0,0-.92.06l-.11-.43a8.36,8.36,0,0,0,1,.1h6a9.68,9.68,0,0,0,.64-.77c.41.36.55.47,1,.88a.11.11,0,0,1,0,.07.12.12,0,0,1-.1.09h-3.85v2.33h2c.26-.33.34-.43.63-.76.46.37.6.48,1,.9,0,0,0,0,0,0a.11.11,0,0,1-.08.08h-3.57v2.71a8.06,8.06,0,0,0,1.21.06,29.24,29.24,0,0,0,3.58-.21v.13c-.53.27-.63.38-.71.84-.73,0-1.18,0-1.48,0-2.57,0-3.57-.19-4.41-.81a4.06,4.06,0,0,1-1.35-1.78,7.82,7.82,0,0,1-.77,1.3,5.81,5.81,0,0,1-1.59,1.52l-.12-.13a6.32,6.32,0,0,0,1.28-1.76,8.21,8.21,0,0,0,1-3.45l.63.12c.6.13.73.18.73.28s-.2.22-.58.27a8.66,8.66,0,0,1-.48,1.55,2.94,2.94,0,0,0,.84,1.16,3.58,3.58,0,0,0,1.4.74V29.22Z"/><path class="cls-1" d="M137.81,25.4c.48.14.65.24.65.36s-.13.15-.5.16a4.33,4.33,0,0,0-.22.46,20.57,20.57,0,0,1-1.23,2.41c.64.06.78.08.78.19s-.1.13-.35.2v2.44c0,2.65,0,2.65,0,3.81-.05.13-.15.18-.5.19h-.15c-.15,0-.22,0-.22-.12v0c.05-.68.05-.68.07-3.9V29.31a9.62,9.62,0,0,1-1.46,1.75l-.16-.13a15.18,15.18,0,0,0,1.82-3.32,10.35,10.35,0,0,0,.78-2.42Zm2.89.9a8.88,8.88,0,0,0-.06-1l.61.07c.51.06.75.14.75.24s-.15.18-.48.26V28h1.88a8.21,8.21,0,0,1,.7-.86c.49.41.64.53,1.13,1,0,0,0,.06,0,.08s0,.07-.11.07h-3.55a6.67,6.67,0,0,0,1,1.87A7.6,7.6,0,0,0,144.43,32a5.22,5.22,0,0,0,1.09.59l-.05.16a1.12,1.12,0,0,0-.92.71,9,9,0,0,1-1.88-2.11,10.73,10.73,0,0,1-1.15-2.58l0,2.35c0,.59,0,.61,0,2.62,0,.81,0,.81,0,1.76,0,.1,0,.15-.15.17a4.17,4.17,0,0,1-.52,0c-.16,0-.2,0-.21-.18,0-1.66,0-2.34.08-4.44l.06-2.33a12,12,0,0,1-1.75,3.08,8.59,8.59,0,0,1-1.89,1.76l-.13-.15a9.61,9.61,0,0,0,2.21-3,12.16,12.16,0,0,0,1-2.2h-1.88a6.66,6.66,0,0,0-1,.07l-.1-.44a4.29,4.29,0,0,0,1.13.11h2.32Z"/><path class="cls-1" d="M148.1,27.53c0-.85,0-1.14,0-1.9a10.07,10.07,0,0,1,.92.58h4.83c.21-.23.26-.3.47-.52.32.22.43.29.74.52.09.07.13.11.13.15s-.11.16-.4.32v3.66c0,.88,0,2.48.08,4.77v0a.13.13,0,0,1-.09.12,2.22,2.22,0,0,1-.62.08c-.16,0-.2,0-.2-.08v-.8h-5v.78c0,.06,0,.08,0,.1a1.63,1.63,0,0,1-.69.11c-.13,0-.16,0-.18-.15,0-1,0-1.2.06-3.66Zm5.82-1.06h-5v3.62h5Zm-5,3.89V34.2h5V30.36Z"/><path class="cls-1" d="M168.29,25.24,157.43,36l-.31-.31L168,24.93Z"/><path class="cls-1" d="M169.8,28.42a3.9,3.9,0,0,0,1,.12h1.9c.2-.24.26-.33.46-.54l.68.57c.1.09.14.15.14.2s-.13.17-.45.27a10.47,10.47,0,0,1-1.71,3.42,8.93,8.93,0,0,1-2.43,2.18l-.1-.15a10.56,10.56,0,0,0,2-2.37,11,11,0,0,0,1.38-3.32h-1.9a5.65,5.65,0,0,0-.92.07Zm9.13-.36a13,13,0,0,1-2.37,2.16A7.71,7.71,0,0,0,178,32a6.54,6.54,0,0,0,2.28,1.44v.15c-.56.09-.64.16-.94.77a7.13,7.13,0,0,1-1.95-1.81,9.94,9.94,0,0,1-1.88-4.11c-.09-.43-.13-.62-.32-1.64l.06,4.45.05,3.31c0,.33,0,.46-.16.6a2.13,2.13,0,0,1-1.22.46c-.06-.37-.14-.49-.38-.61a5.16,5.16,0,0,0-1.46-.37v-.18c1.4.09,1.43.09,2.18.1.15,0,.19-.06.19-.2V27c0-.7,0-1-.06-1.74,1.38.21,1.38.21,1.38.32s-.11.16-.53.28A11.83,11.83,0,0,0,176.43,30a8.37,8.37,0,0,0,.87-1.06,6.35,6.35,0,0,0,1-1.74c.88.44,1.22.64,1.22.74s-.1.13-.43.13Z"/><path class="cls-1" d="M190.19,31.72l.55-.64c.38.32.49.42.87.76a.12.12,0,0,1,0,.09s0,.06-.09.06h-2.52v1.17h1.18c.23-.29.3-.38.53-.64l.86.71a.17.17,0,0,1,.08.13s0,.07-.12.07h-2.53v1.35h1.54c.25-.34.33-.43.58-.74.43.35.57.46,1,.84.05.06.06.08.06.11a.06.06,0,0,1-.06,0h-5.66v.49a.14.14,0,0,1-.1.15,2.47,2.47,0,0,1-.47,0c-.15,0-.19,0-.19-.1v0c0-.86,0-.86,0-2.91V31.08a11.86,11.86,0,0,1-1.07,1c0,1.39,0,1.39.05,2.08v0c0,.06,0,.09-.1.12a3,3,0,0,1-.53.06c-.1,0-.13,0-.14-.13v-.68h-1.18V34.7c0,.17-.1.2-.59.2-.14,0-.16,0-.16-.12,0-.91,0-2.24,0-5.55,0-1.57,0-3.2,0-3.84l.85.49h1l.41-.49.6.52c.09.1.1.11.1.15s-.07.09-.31.23V31.1c0,.14,0,.14,0,.76a10.8,10.8,0,0,0,1.15-1.7,5.7,5.7,0,0,0,.59-1.21c1.07.36,1.07.36,1.07.43s-.09.12-.52.2c-.23.34-.32.46-.51.71h1.92a8.77,8.77,0,0,0,.63-1.35,3.63,3.63,0,0,0,.49.14c.5.15.58.18.6.25h0c0,.07-.13.12-.48.16a7.44,7.44,0,0,1-.91.79h1.84c.24-.29.31-.37.56-.63.4.31.52.4.9.72,0,0,.06.07.06.09s-.06.09-.14.09h-2.92v1.16ZM184,26.15h-1.18V29.5H184Zm-1.18,3.61v3.55H184V29.76Zm3.24-2.58a5.82,5.82,0,0,0-.82.05l-.06-.39a3.77,3.77,0,0,0,.88.07h1.27v-1h-1.27a5.1,5.1,0,0,0-.84.06l-.06-.41a4.09,4.09,0,0,0,.9.09h1.14l.41-.49.58.4c.08.09.13.13.13.17s0,.09-.29.24v1.07c0,.65,0,1,0,1.73,0,.07,0,.09-.09.12a3.08,3.08,0,0,1-.48.05c-.11,0-.15,0-.15-.11v-.34h-1.27a4.15,4.15,0,0,0-.85.06l-.06-.4a3.88,3.88,0,0,0,.91.08h1.27V27.18Zm2.3,3.38h-1.85v1.16h1.85ZM186.51,32v1.17h1.85V32Zm0,1.44v1.35h1.85V33.43Zm3.19-6.25a8.58,8.58,0,0,0-1,.05l-.05-.4a4.79,4.79,0,0,0,1,.08h1.16v-1h-1.28a4,4,0,0,0-.86.06l-.06-.41a4.56,4.56,0,0,0,.92.09h1.19l.37-.47.66.41c.11.09.16.12.16.17s0,.06-.37.31c0,1.29,0,1.47,0,2.74v0c0,.08,0,.1-.09.13a2.89,2.89,0,0,1-.53,0c-.12,0-.16,0-.16-.14v-.37h-1.28a6.62,6.62,0,0,0-.91.06l0-.41a4.23,4.23,0,0,0,1,.09h1.28V27.18Z"/><path class="cls-1" d="M195,27.53c0-.85,0-1.14,0-1.9a10.21,10.21,0,0,1,.93.58h4.82l.48-.52.73.52c.1.07.13.11.13.15s-.1.16-.39.32v3.66c0,.88,0,2.48.08,4.77v0a.14.14,0,0,1-.09.12,2.3,2.3,0,0,1-.63.08c-.16,0-.19,0-.19-.08v-.8h-5v.78a.12.12,0,0,1,0,.1,1.63,1.63,0,0,1-.69.11c-.13,0-.16,0-.17-.15,0-1,0-1.2.06-3.66Zm5.82-1.06h-5v3.62h5Zm-5,3.89V34.2h5V30.36Z"/><path class="cls-1" d="M0,0V15.86H26.14V0ZM9.15,15.32H5.91V4.06A3.54,3.54,0,0,1,9.53.44h3.82v3h-3a1.16,1.16,0,0,0-1.24,1v2h8.54v3H9.15Zm11,0H18.56a3.54,3.54,0,0,1-3.63-3.62V10.06h2.76v1.53a.8.8,0,0,0,.86.79h1.59Zm0-11.93H18.55a.79.79,0,0,0-.86.79V5.72H14.93V4.06A3.54,3.54,0,0,1,18.56.44h1.58Z"/><path class="cls-1" d="M3.94,16.86a3.91,3.91,0,0,1-.71,2.36A3.57,3.57,0,0,1,1,20.46l-.31-.67c2-.34,2.28-1.33,2.43-2.23H.37v-.7Z"/><path class="cls-1" d="M5.42,19.15H4.68V16.72h.74Zm2.13-.67c0,1.69-1.32,1.88-2.38,2l-.27-.68a3.77,3.77,0,0,0,1.5-.35,1,1,0,0,0,.4-.88V16.65h.75Z"/><rect class="cls-1" x="8.3" y="18.14" width="3.89" height="0.74"/><polygon class="cls-1" points="16.15 16.93 16.15 20.19 12.81 20.19 12.81 19.49 15.41 19.49 15.41 17.62 12.86 17.62 12.86 16.93 16.15 16.93"/><rect class="cls-1" x="16.96" y="18.14" width="3.89" height="0.74"/><path class="cls-1" d="M22.62,17.83a8,8,0,0,1-.13,1.46,2.35,2.35,0,0,1-.67,1.27L21.27,20a1.69,1.69,0,0,0,.53-1,5.38,5.38,0,0,0,.12-1.08V16.8h.7Zm1.21,1.71A1.07,1.07,0,0,0,24.5,19a2.59,2.59,0,0,0,.3-1l.66.32a2.76,2.76,0,0,1-.75,1.49,2.44,2.44,0,0,1-1.58.61V16.65h.7Z"/></svg>