<svg id="レイヤー_1" data-name="レイヤー 1" xmlns="http://www.w3.org/2000/svg" viewBox="0 0 177 177"><defs><style>.cls-1{fill:#f63402;}.cls-2{fill:#fff;}</style></defs><path class="cls-1" d="M177,88.5A88.5,88.5,0,1,1,88.5,0,88.5,88.5,0,0,1,177,88.5Z"/><path class="cls-2" d="M20.21,76.32a22.71,22.71,0,0,1-1.06-2.92c.07,1,.17,2.47.17,3v10.1a15.14,15.14,0,0,0,.18,2.78H17.36a15.72,15.72,0,0,0,.19-2.78V74.2a16.39,16.39,0,0,0-.19-2.81h2.73a12.11,12.11,0,0,0,.78,2.34l5.83,13,5.8-13a12.15,12.15,0,0,0,.81-2.34H36a16.24,16.24,0,0,0-.19,2.81V86.54A15,15,0,0,0,36,89.32H33.87a15.87,15.87,0,0,0,.19-2.78V76.3c0-.66.07-1.94.17-2.9a15.66,15.66,0,0,1-1,2.87L28.4,86.87a13.54,13.54,0,0,0-.9,2.45H25.83A12.17,12.17,0,0,0,25,86.84Z"/><path class="cls-2" d="M55.35,89.49a15.17,15.17,0,0,0-2.64-.17H45.79c-1.13,0-1.79,0-2.59.07a16.31,16.31,0,0,0,.19-2.81V74a17.56,17.56,0,0,0-.19-2.69c.82.05,1.46.07,2.59.07h6.73a17.21,17.21,0,0,0,2.64-.17v2A16.19,16.19,0,0,0,52.52,73H45.25v6h6.21a19.71,19.71,0,0,0,2.64-.16v2a15.71,15.71,0,0,0-2.64-.17H45.25v6.94h7.48a17.11,17.11,0,0,0,2.62-.17Z"/><path class="cls-2" d="M64.77,76.32a20,20,0,0,1-1.06-2.92c.07,1,.16,2.47.16,3v10.1a15,15,0,0,0,.19,2.78H61.91a15.72,15.72,0,0,0,.19-2.78V74.2a16.39,16.39,0,0,0-.19-2.81h2.74a10.89,10.89,0,0,0,.78,2.34l5.83,13,5.8-13a12,12,0,0,0,.8-2.34h2.72a15.3,15.3,0,0,0-.19,2.81V86.54a14.19,14.19,0,0,0,.19,2.78H78.43a15.87,15.87,0,0,0,.19-2.78V76.3c0-.66.07-1.94.16-2.9a14.9,14.9,0,0,1-1,2.87L73,86.87a12.82,12.82,0,0,0-.9,2.45H70.38a12,12,0,0,0-.87-2.48Z"/><path class="cls-2" d="M90.35,89.32c-1,0-1.77,0-2.59.07A14.87,14.87,0,0,0,88,86.47V73.84a13.81,13.81,0,0,0-.19-2.5c.73,0,1.2,0,2.57,0h5c3.42,0,5.33,1.56,5.33,4.34a4,4,0,0,1-1.28,3.16,4.66,4.66,0,0,1-1.86,1,4.37,4.37,0,0,1,2.29,1,4.42,4.42,0,0,1,1.46,3.54c0,3.16-2.07,4.95-5.68,4.95Zm5-10.24c2.2,0,3.49-1.15,3.49-3.14s-1.18-3-3.51-3H89.78v6.09Zm-5.57,8.64h5.69c2.57,0,3.94-1.23,3.94-3.49s-1.37-3.54-4-3.54H89.78Z"/><path class="cls-2" d="M120.25,89.49a15.17,15.17,0,0,0-2.64-.17h-6.92c-1.13,0-1.79,0-2.59.07a16.31,16.31,0,0,0,.19-2.81V74a17.56,17.56,0,0,0-.19-2.69c.82.05,1.46.07,2.59.07h6.73a17.21,17.21,0,0,0,2.64-.17v2a16.27,16.27,0,0,0-2.64-.17h-7.27v6h6.21a19.71,19.71,0,0,0,2.64-.16v2a15.71,15.71,0,0,0-2.64-.17h-6.21v6.94h7.48a17.11,17.11,0,0,0,2.62-.17Z"/><path class="cls-2" d="M138.75,89.32a16.38,16.38,0,0,0-1.39-4c-1.37-3.24-2.29-4.16-4.18-4.16h-4.36v5.53a14.3,14.3,0,0,0,.19,2.66h-2.2a14.35,14.35,0,0,0,.19-2.64V74a17,17,0,0,0-.19-2.71c.83.05,1.49.07,2.58.07h5.19c3.42,0,5.3,1.6,5.3,4.53a4.26,4.26,0,0,1-1.41,3.47,4.9,4.9,0,0,1-2.55,1.18c1,.28,1.56.92,2.41,2.59.56,1.11,1.13,2.34,1.86,4a20.8,20.8,0,0,0,1.06,2.19Zm-4.34-9.81a3.78,3.78,0,0,0,2.67-1,3.12,3.12,0,0,0,.89-2.38c0-2-1.18-3.09-3.42-3.09h-5.73v6.49Z"/><path class="cls-2" d="M157.84,76a3.74,3.74,0,0,0-.82-2,4.37,4.37,0,0,0-3.49-1.37c-2.43,0-4.13,1.3-4.13,3.21a2.78,2.78,0,0,0,2,2.67,17.28,17.28,0,0,0,3.37.85c3.78.8,5.29,2.24,5.29,5,0,3.33-2.29,5.22-6.35,5.22-2.64,0-4.6-.78-5.68-2.24A6,6,0,0,1,147,84.27L149,84a3.71,3.71,0,0,0,.73,2.34A4.78,4.78,0,0,0,153.69,88c2.81,0,4.51-1.32,4.51-3.52a2.68,2.68,0,0,0-1.37-2.52c-.78-.45-1-.52-3.89-1.16a11,11,0,0,1-3.21-1.08,4,4,0,0,1-2.2-3.73c0-3,2.39-4.89,6-4.89a6.24,6.24,0,0,1,5.22,2.17,5.5,5.5,0,0,1,1,2.51Z"/><path class="cls-2" d="M67,115.76c0,5.68-3.18,9.32-8.16,9.32s-8.14-3.64-8.14-9.32,3.21-9.32,8.16-9.32S67,110.07,67,115.76Zm-4,6a8.49,8.49,0,0,0,2.1-6,8.27,8.27,0,0,0-2.08-6,5.71,5.71,0,0,0-4.13-1.63c-3.77,0-6.25,3-6.25,7.64s2.5,7.67,6.28,7.67A5.58,5.58,0,0,0,63,121.8Z"/><path class="cls-2" d="M76.1,106.79a12.4,12.4,0,0,0,1.2,2.12l7.46,11.16c.25.4,1,1.56,1.53,2.58-.09-1.89-.14-2.93-.14-3.14v-10a15.1,15.1,0,0,0-.19-2.71h2.19A14.89,14.89,0,0,0,88,109.5v12.58a13.54,13.54,0,0,0,.19,2.64H85.58a16.1,16.1,0,0,0-1.23-2.12l-7.57-11.37c-.19-.29-1-1.63-1.3-2.27.1,1.11.15,2.27.15,2.88v10.07a15.37,15.37,0,0,0,.18,2.81H73.62a15.16,15.16,0,0,0,.19-2.81V109.43a14.93,14.93,0,0,0-.19-2.64Z"/><path class="cls-2" d="M98,124.72c-1.09,0-1.75,0-2.57.07a16.7,16.7,0,0,0,.19-2.81V109.57a15.44,15.44,0,0,0-.19-2.78H97.6a14.38,14.38,0,0,0-.19,2.78v13.48h7.43a18.43,18.43,0,0,0,2.74-.17v2a15.93,15.93,0,0,0-2.74-.17Z"/><path class="cls-2" d="M118.29,124.72a15.07,15.07,0,0,0,.19-2.64V117.2l-5.43-8.36a22.9,22.9,0,0,0-1.41-2h2.57a9.25,9.25,0,0,0,1.16,2.17l4.08,6.56,4.08-6.56a9.33,9.33,0,0,0,1.11-2.17h2.59a17.08,17.08,0,0,0-1.44,2l-5.42,8.38v4.86a14.56,14.56,0,0,0,.19,2.64Z"/></svg>