<svg id="レイヤー_1" data-name="レイヤー 1" xmlns="http://www.w3.org/2000/svg" viewBox="0 0 30 30"><defs><style>.cls-1{fill:#fff;}</style></defs><path class="cls-1" d="M8.788.1a10.967,10.967,0,0,0-3.639.7A7.352,7.352,0,0,0,2.5,2.543,7.352,7.352,0,0,0,.77,5.2,11.012,11.012,0,0,0,.08,8.845c-.07,1.6-.086,2.11-.078,6.184s.025,4.584.1,6.184a10.992,10.992,0,0,0,.7,3.638,7.352,7.352,0,0,0,1.735,2.654A7.36,7.36,0,0,0,5.2,29.23a11.006,11.006,0,0,0,3.642.69c1.6.07,2.111.086,6.183.078s4.585-.026,6.185-.1a11.015,11.015,0,0,0,3.638-.7A7.663,7.663,0,0,0,29.229,24.8a10.954,10.954,0,0,0,.69-3.641c.07-1.6.087-2.112.079-6.185s-.026-4.583-.1-6.183a10.993,10.993,0,0,0-.7-3.639A7.373,7.373,0,0,0,27.457,2.5,7.336,7.336,0,0,0,24.8.771a10.961,10.961,0,0,0-3.642-.69C19.555.01,19.045-.006,14.971,0S10.388.027,8.788.1M8.963,27.22a8.29,8.29,0,0,1-2.786-.51A4.661,4.661,0,0,1,4.45,25.591a4.658,4.658,0,0,1-1.126-1.722A8.348,8.348,0,0,1,2.8,21.084c-.074-1.581-.091-2.055-.1-6.061s.007-4.478.076-6.061a8.32,8.32,0,0,1,.51-2.785A4.665,4.665,0,0,1,4.409,4.45,4.635,4.635,0,0,1,6.132,3.325,8.3,8.3,0,0,1,8.916,2.8c1.582-.075,2.056-.091,6.06-.1s4.479.006,6.062.075a8.287,8.287,0,0,1,2.785.511A4.646,4.646,0,0,1,25.55,4.409a4.643,4.643,0,0,1,1.125,1.724A8.262,8.262,0,0,1,27.2,8.916c.076,1.582.093,2.056.1,6.06s-.007,4.48-.076,6.061a8.3,8.3,0,0,1-.511,2.787,4.966,4.966,0,0,1-2.842,2.852,8.3,8.3,0,0,1-2.783.521c-1.582.075-2.055.092-6.061.1s-4.478-.007-6.06-.076M21.191,6.982a1.8,1.8,0,1,0,1.8-1.8,1.8,1.8,0,0,0-1.8,1.8M7.3,15.015A7.7,7.7,0,1,0,14.985,7.3,7.7,7.7,0,0,0,7.3,15.015m2.7-.006A5,5,0,1,1,15.009,20,5,5,0,0,1,10,15.009"/></svg>