<?xml version="1.0" encoding="UTF-8"?>
<svg id="_レイヤー_2" data-name="レイヤー 2" xmlns="http://www.w3.org/2000/svg" viewBox="0 0 32.27 22.59">
  <defs>
    <style>
      .cls-1 {
        fill: #6f808d;
      }
    </style>
  </defs>
  <g id="_レイヤー_1-2" data-name="レイヤー 1">
    <path class="cls-1" d="M31.59,3.53c-.37-1.39-1.46-2.48-2.85-2.85-2.52-.67-12.61-.67-12.61-.67,0,0-10.09,0-12.61.67-1.39.37-2.48,1.46-2.85,2.85-.67,2.52-.67,7.77-.67,7.77,0,0,0,5.25.67,7.77.37,1.39,1.46,2.48,2.85,2.85,2.52.67,12.61.67,12.61.67,0,0,10.09,0,12.61-.67,1.39-.37,2.48-1.46,2.85-2.85.67-2.52.67-7.77.67-7.77,0,0,0-5.25-.67-7.77ZM12.91,16.13h0s0,0,0,0V6.45l8.38,4.84h0s0,0,0,0l-8.38,4.84Z"/>
  </g>
</svg>