<?xml version="1.0" encoding="UTF-8"?>
<svg id="_レイヤー_2" data-name="レイヤー 2" xmlns="http://www.w3.org/2000/svg" viewBox="0 0 35.21 24.64">
  <defs>
    <style>
      .cls-1 {
        fill: #b8b7bb;
      }
    </style>
  </defs>
  <g id="_レイヤー_1-2" data-name="レイヤー 1">
    <path class="cls-1" d="M34.47,3.85c-.4-1.51-1.6-2.71-3.11-3.11-2.75-.74-13.76-.74-13.76-.74,0,0-11.01,0-13.76.74-1.51.4-2.71,1.6-3.11,3.11-.74,2.75-.74,8.47-.74,8.47,0,0,0,5.73.74,8.47.4,1.51,1.6,2.71,3.11,3.11,2.75.74,13.76.74,13.76.74,0,0,11.01,0,13.76-.74,1.51-.4,2.71-1.6,3.11-3.11.74-2.75.74-8.47.74-8.47,0,0,0-5.73-.74-8.47ZM14.08,17.6h0s0,0,0,0V7.04l9.15,5.28h0s0,0,0,0l-9.15,5.28Z"/>
  </g>
</svg>