<?xml version="1.0" encoding="UTF-8"?><svg id="_レイヤー_2" xmlns="http://www.w3.org/2000/svg" viewBox="0 0 42.857 30"><defs><style>.cls-1{fill:#fff;stroke-width:0px;}</style></defs><g id="_レイヤー_1-2"><path class="cls-1" d="M41.962,4.684c-.493-1.844-1.945-3.296-3.789-3.789-3.342-.896-16.744-.896-16.744-.896,0,0-13.402,0-16.744.896-1.844.493-3.296,1.945-3.789,3.789-.896,3.342-.896,10.316-.896,10.316,0,0,0,6.973.896,10.316.493,1.844,1.945,3.296,3.789,3.789,3.342.896,16.744.896,16.744.896,0,0,13.402,0,16.744-.896,1.844-.493,3.296-1.945,3.789-3.789.896-3.342.896-10.316.896-10.316,0,0,0-6.973-.896-10.316ZM17.143,21.43h0s0-.001,0-.001v-12.857l11.134,6.429h-.001s.001.001.001.001l-11.134,6.428Z"/></g></svg>