<?xml version="1.0" encoding="UTF-8"?>
<svg id="_レイヤー_2" data-name="レイヤー 2" xmlns="http://www.w3.org/2000/svg" viewBox="0 0 28.36 28.36">
  <defs>
    <style>
      .cls-1 {
        fill: #6f808d;
      }
    </style>
  </defs>
  <g id="_レイヤー_1-2" data-name="レイヤー 1">
    <path class="cls-1" d="M9.45,14.19c0-2.61,2.11-4.73,4.72-4.74,2.61,0,4.73,2.11,4.74,4.72,0,2.61-2.11,4.73-4.72,4.74h-.01c-2.61,0-4.72-2.11-4.73-4.72M14.17,6.9c-4.02,0-7.28,3.27-7.27,7.3,0,4.02,3.27,7.28,7.3,7.27,4.02,0,7.28-3.27,7.27-7.3,0-4.02-3.27-7.27-7.28-7.27,0,0,0,0-.01,0M21.73,4.9c-.94,0-1.7.77-1.7,1.7s.77,1.7,1.7,1.7c.94,0,1.7-.77,1.7-1.7,0-.94-.76-1.7-1.7-1.7h0M8.47,25.74c-1.38-.06-2.13-.29-2.63-.48-.66-.26-1.14-.56-1.63-1.06-.5-.5-.81-.97-1.06-1.63-.19-.5-.43-1.25-.49-2.63-.07-1.49-.09-1.94-.09-5.73,0-3.79,0-4.23.07-5.73.06-1.38.29-2.13.48-2.63.26-.66.56-1.14,1.06-1.63.5-.5.97-.81,1.63-1.06.5-.2,1.25-.43,2.63-.49,1.5-.07,1.94-.09,5.73-.09,3.79,0,4.24,0,5.73.07,1.38.06,2.13.29,2.63.48.66.26,1.14.56,1.63,1.06.5.5.81.97,1.06,1.63.2.5.43,1.25.49,2.63.07,1.5.09,1.94.09,5.73,0,3.79,0,4.24-.07,5.73-.06,1.38-.29,2.13-.48,2.63-.26.66-.56,1.13-1.06,1.63-.5.5-.97.81-1.63,1.06-.5.19-1.25.43-2.63.49-1.5.07-1.94.09-5.73.09-.58,0-1.09,0-1.53,0-2.42,0-2.93-.02-4.2-.07M14.15,0c-3.85,0-4.33.02-5.85.1-1.51.07-2.54.31-3.44.67-.93.36-1.72.85-2.51,1.64-.79.79-1.27,1.58-1.63,2.51-.35.9-.59,1.93-.65,3.44C0,9.88,0,10.36,0,14.21c0,3.85.02,4.33.1,5.85.07,1.51.31,2.54.67,3.44.36.93.85,1.72,1.64,2.51.79.79,1.58,1.27,2.52,1.63.9.35,1.93.59,3.44.65,1.51.07,2,.08,5.85.07,3.85,0,4.33-.02,5.85-.1,1.51-.07,2.54-.31,3.44-.67.93-.36,1.72-.85,2.51-1.64.79-.79,1.27-1.58,1.63-2.52.35-.9.59-1.93.65-3.44.07-1.51.08-2,.07-5.85,0-3.85-.02-4.33-.1-5.85-.07-1.51-.31-2.54-.67-3.44-.36-.93-.85-1.72-1.64-2.51-.79-.79-1.58-1.27-2.52-1.63-.9-.35-1.93-.59-3.44-.65-1.28-.06-1.83-.08-4.32-.08-.44,0-.95,0-1.53,0"/>
  </g>
</svg>