<?xml version="1.0" encoding="UTF-8"?>
<svg id="_レイヤー_2" data-name="レイヤー 2" xmlns="http://www.w3.org/2000/svg" viewBox="0 0 25.7 25.7">
  <defs>
    <style>
      .cls-1 {
        fill: #fff;
      }

      .cls-2 {
        fill: #6f808d;
      }
    </style>
  </defs>
  <g id="_レイヤー_1-2" data-name="レイヤー 1">
    <g>
      <rect class="cls-2" x="0" width="25.7" height="25.7" rx="3.64" ry="3.64"/>
      <g>
        <path class="cls-1" d="M21.42,11.64c0-3.83-3.84-6.95-8.57-6.95s-8.57,3.12-8.57,6.95c0,3.44,3.05,6.32,7.17,6.86.28.06.66.18.75.42.09.22.06.56.03.77,0,0-.1.6-.12.73-.04.22-.17.85.74.46.91-.39,4.93-2.91,6.73-4.97h0c1.24-1.36,1.84-2.74,1.84-4.28Z"/>
        <g>
          <path class="cls-2" d="M18.57,13.85h-2.41c-.09,0-.16-.07-.16-.16h0v-3.74h0c0-.09.07-.17.16-.17h2.41c.09,0,.16.07.16.16v.61c0,.09-.07.16-.16.16h-1.64v.63h1.64c.09,0,.16.07.16.16v.61c0,.09-.07.16-.16.16h-1.64v.63h1.64c.09,0,.16.07.16.16v.61c0,.09-.07.16-.16.16Z"/>
          <path class="cls-2" d="M9.66,13.85c.09,0,.16-.07.16-.16v-.61c0-.09-.07-.16-.16-.16h-1.64v-2.97c0-.09-.07-.16-.16-.16h-.61c-.09,0-.16.07-.16.16v3.74h0c0,.09.07.17.16.17h2.41Z"/>
          <rect class="cls-2" x="10.34" y="9.79" width=".93" height="4.07" rx=".16" ry=".16"/>
          <path class="cls-2" d="M15.25,9.79h-.61c-.09,0-.16.07-.16.16v2.22l-1.71-2.31s0-.01-.01-.02c0,0,0,0,0,0,0,0,0,0,0-.01,0,0,0,0,0,0,0,0,0,0,0,0,0,0,0,0,0,0,0,0,0,0,0,0,0,0,0,0,0,0,0,0,0,0,0,0,0,0,0,0,0,0,0,0,0,0,0,0,0,0,0,0,0,0,0,0,0,0,0,0,0,0,0,0,0,0,0,0,0,0,0,0,0,0,0,0,0,0,0,0,0,0,0,0,0,0,0,0,0,0,0,0,0,0,0,0h-.6c-.09,0-.16.07-.16.16v3.74c0,.09.07.16.16.16h.61c.09,0,.16-.07.16-.16v-2.22l1.71,2.31s.03.03.04.04c0,0,0,0,0,0,0,0,0,0,.01,0,0,0,0,0,0,0,0,0,0,0,0,0,0,0,0,0,0,0h0s0,0,.01,0c0,0,0,0,0,0,.01,0,.03,0,.04,0h.6c.09,0,.16-.07.16-.16v-3.74c0-.09-.07-.16-.16-.16Z"/>
        </g>
      </g>
    </g>
  </g>
</svg>