<?xml version="1.0" encoding="UTF-8"?>
<svg id="_レイヤー_2" data-name="レイヤー 2" xmlns="http://www.w3.org/2000/svg" viewBox="0 0 28.04 28.04">
  <defs>
    <style>
      .cls-1 {
        fill: #b8b7bb;
      }

      .cls-2 {
        fill: #59575f;
      }
    </style>
  </defs>
  <g id="_レイヤー_1-2" data-name="レイヤー 1">
    <g>
      <rect class="cls-1" y="0" width="28.04" height="28.04" rx="3.64" ry="3.64"/>
      <g>
        <path class="cls-2" d="M23.37,12.7c0-4.18-4.19-7.59-9.35-7.59s-9.35,3.4-9.35,7.59c0,3.75,3.33,6.89,7.82,7.49.3.07.72.2.82.46.09.24.06.61.03.85,0,0-.11.66-.13.8-.04.24-.19.92.81.5,1-.42,5.38-3.17,7.35-5.43h0c1.35-1.49,2-2.99,2-4.67Z"/>
        <g>
          <path class="cls-1" d="M20.26,15.12h-2.63c-.1,0-.18-.08-.18-.18h0v-4.08h0c0-.1.08-.18.18-.18h2.63c.1,0,.18.08.18.18v.66c0,.1-.08.18-.18.18h-1.79v.69h1.79c.1,0,.18.08.18.18v.66c0,.1-.08.18-.18.18h-1.79v.69h1.79c.1,0,.18.08.18.18v.66c0,.1-.08.18-.18.18Z"/>
          <path class="cls-1" d="M10.54,15.12c.1,0,.18-.08.18-.18v-.66c0-.1-.08-.18-.18-.18h-1.79v-3.24c0-.1-.08-.18-.18-.18h-.66c-.1,0-.18.08-.18.18v4.08h0c0,.1.08.18.18.18h2.63Z"/>
          <rect class="cls-1" x="11.28" y="10.68" width="1.02" height="4.44" rx=".18" ry=".18"/>
          <path class="cls-1" d="M16.64,10.68h-.66c-.1,0-.18.08-.18.18v2.42l-1.87-2.52s0-.01-.01-.02c0,0,0,0,0,0,0,0,0,0-.01-.01,0,0,0,0,0,0,0,0,0,0,0,0,0,0,0,0,0,0,0,0,0,0,0,0,0,0,0,0,0,0,0,0,0,0,0,0,0,0,0,0,0,0,0,0,0,0-.01,0,0,0,0,0,0,0,0,0,0,0-.01,0,0,0,0,0,0,0,0,0,0,0-.01,0,0,0,0,0,0,0,0,0,0,0,0,0,0,0,0,0,0,0,0,0,0,0,0,0h-.66c-.1,0-.18.08-.18.18v4.08c0,.1.08.18.18.18h.66c.1,0,.18-.08.18-.18v-2.42l1.87,2.52s.03.03.05.05c0,0,0,0,0,0,0,0,0,0,.01,0,0,0,0,0,0,0,0,0,0,0,0,0,0,0,0,0,0,0h0s0,0,.01,0c0,0,0,0,0,0,.01,0,.03,0,.05,0h.66c.1,0,.18-.08.18-.18v-4.08c0-.1-.08-.18-.18-.18Z"/>
        </g>
      </g>
    </g>
  </g>
</svg>