<?xml version="1.0" encoding="UTF-8"?><svg id="_レイヤー_2" xmlns="http://www.w3.org/2000/svg" viewBox="0 0 30 30"><defs><style>.cls-1{fill:#000;}</style></defs><g id="_レイヤー_1-2"><path class="cls-1" d="M25,0H5C2.25,0,0,2.25,0,5v20c0,2.75,2.25,5,5,5h20c2.75,0,5-2.25,5-5V5c0-2.75-2.25-5-5-5ZM7.941,20.04c0,.138-.112.25-.25.25H3.521c-.138,0-.25-.112-.25-.25v-9.362c0-.138.112-.25.25-.25h1.507c.138,0,.25.112.25.25v7.715h2.413c.138,0,.25.112.25.25v1.397ZM11.493,20.04c0,.138-.112.25-.25.25h-1.519c-.138,0-.25-.112-.25-.25v-9.352c0-.138.112-.25.25-.25h1.519c.138,0,.25.112.25.25v9.352ZM19.931,20.04c0,.138-.112.25-.25.25h-1.298c-.094,0-.18-.053-.223-.137l-2.607-5.116c-.074-.152-.179-.379-.289-.623.014.349.024.695.024.938v4.687c0,.138-.112.25-.25.25h-1.408c-.138,0-.25-.112-.25-.25v-9.362c0-.138.112-.25.25-.25h1.32c.093,0,.179.051.222.134l2.497,4.775c.106.201.244.485.381.773-.015-.43-.027-.871-.027-1.141l-.011-4.29c0-.066.026-.13.073-.177s.11-.073.177-.073h1.419c.138,0,.25.112.25.25v9.362ZM26.729,12.042c0,.138-.112.25-.25.25h-2.687v1.811h2.236c.138,0,.25.112.25.25v1.364c0,.138-.112.25-.25.25h-2.236v2.459h2.687c.138,0,.25.112.25.25v1.353c0,.138-.112.25-.25.25h-4.412c-.138,0-.25-.112-.25-.25v-9.34c0-.138.112-.25.25-.25h4.412c.138,0,.25.112.25.25v1.353Z"/></g></svg>