<svg id="レイヤー_1" data-name="レイヤー 1" xmlns="http://www.w3.org/2000/svg" viewBox="0 0 26 30"><defs><style>.cls-1{fill:#fff;}.cls-2{fill:#101010;}</style></defs><path class="cls-1" d="M25.87,2.32A3.19,3.19,0,0,0,23.67.14,2.83,2.83,0,0,0,22.74,0H3.26A3.25,3.25,0,0,0,0,3.22V26.86A3.24,3.24,0,0,0,3.21,30H15.37a4.37,4.37,0,0,0,1.81-.39,4.29,4.29,0,0,0,1.28-.88l6.26-6.18a4.38,4.38,0,0,0,.89-1.29A4.2,4.2,0,0,0,26,19.48V3.22A2.88,2.88,0,0,0,25.87,2.32Z"/><path class="cls-2" d="M25.87,2.32A3.19,3.19,0,0,0,23.67.14,2.83,2.83,0,0,0,22.74,0H3.26A3.25,3.25,0,0,0,0,3.22V26.86A3.24,3.24,0,0,0,3.21,30H15.37a4.37,4.37,0,0,0,1.81-.39,4.29,4.29,0,0,0,1.28-.88l6.26-6.18a4.38,4.38,0,0,0,.89-1.29A4.2,4.2,0,0,0,26,19.48V3.22A2.88,2.88,0,0,0,25.87,2.32Zm-10,18.57v6.44a1.74,1.74,0,0,1-.45.06H3.25a.61.61,0,0,1-.61-.59V3.22a.61.61,0,0,1,.62-.61H22.74a.52.52,0,0,1,.17,0,.64.64,0,0,1,.44.47.35.35,0,0,1,0,.12V19.48a1.74,1.74,0,0,1-.06.45H16.79A1,1,0,0,0,15.82,20.89Z"/><path class="cls-2" d="M7.83,7.92H18.17a.13.13,0,0,0,.13-.13v-.9a.13.13,0,0,0-.13-.13H7.83a.13.13,0,0,0-.13.13v.9A.13.13,0,0,0,7.83,7.92Z"/><path class="cls-2" d="M7.83,12.47H18.17a.13.13,0,0,0,.13-.14v-.9a.13.13,0,0,0-.13-.13H7.83a.13.13,0,0,0-.13.13v.9A.13.13,0,0,0,7.83,12.47Z"/><path class="cls-2" d="M18.3,16.88V16a.13.13,0,0,0-.13-.13H7.83A.13.13,0,0,0,7.7,16v.91a.13.13,0,0,0,.13.13H18.17A.13.13,0,0,0,18.3,16.88Z"/><path class="cls-2" d="M13.16,20.38H7.83a.13.13,0,0,0-.13.13v.91a.13.13,0,0,0,.13.13h5.33a.13.13,0,0,0,.14-.13v-.91A.13.13,0,0,0,13.16,20.38Z"/></svg>