<svg id="レイヤー_1" data-name="レイヤー 1" xmlns="http://www.w3.org/2000/svg" viewBox="0 0 380 26"><defs><style>.cls-1{fill:#fff;}</style></defs><path class="cls-1" d="M13.91,22.36h-3.8L3.61,11.73V22.36H0V6.87H4.72l5.57,8.87V6.87h3.62Z"/><path class="cls-1" d="M27.2,22.36H16.13V6.87H27.2v3H20.06v2.67h6.62v3H20.06v3.82H27.2Z"/><path class="cls-1" d="M51.2,6.87,47.08,22.36H42.71L40,12.27,37.3,22.36H32.93L28.81,6.87h4.12l2.35,10.66L38.1,6.87H42l2.68,10.66L47.18,6.87Z"/><path class="cls-1" d="M56,6.85V2.23H75.9a63.79,63.79,0,0,1-4.47,11.4,76.73,76.73,0,0,1,7.12,12h-6a45.09,45.09,0,0,0-3.69-7.23c-2.63,4.8-6.27,7.2-11.34,7.53H54.06V21.2H55.8c4.19,0,6.35-1,8.38-4.14A53.72,53.72,0,0,0,69,6.85Z"/><path class="cls-1" d="M81.25,11.2c3.29-1.17,4.5-3.52,5-9.8h5a27.9,27.9,0,0,1-1.08,5.22h14.87v4.55H99v5.2c0,5.58-3.45,9.21-8.69,9.26H82.91V21.28h5.88c3.35.08,5.07-1.57,5.18-4.91v-5.2h-5.6c-1.41,2.57-3.23,3.88-7.12,5Z"/><path class="cls-1" d="M116.12,1.68V13.82c.1,7.09-2.87,11.42-8.39,12.15v-5.3c2.67-.82,3.53-2.33,3.69-6.4V1.68Zm3,0h4.78v18.4c3.83-.2,4.32-.89,4.38-6.34V7.21h4.63v7.2c0,4.69-.55,6.79-2.22,8.41s-3.78,2.26-7.4,2.28h-4.17Z"/><path class="cls-1" d="M144.57,1.25V8.71a110.87,110.87,0,0,1,12.83,3.67v5.16a109.91,109.91,0,0,0-12.83-3.8V26h-5V1.25Z"/><path class="cls-1" d="M185.69,4.16v8.41c0,4.89-1.3,8-4.19,10.13-2.43,1.91-5.48,2.63-11.34,2.68h-7.64V20.54h7.73c3.29,0,5.95-.46,7.25-1.22a6.31,6.31,0,0,0,3.28-5.75V4.16ZM162.75,1.84c4.91,1.29,10.17,2.88,12.63,3.83v5c-4.28-1.48-9-3-12.63-3.91Z"/><path class="cls-1" d="M192.31,20.44A4.77,4.77,0,0,0,197,18l4.47-7h-8.75V6.62H206v-5h5v5h5.32V11H211v15h-5v-13l-4.83,7.49c-2.15,3.57-4.33,4.79-8.85,5Z"/><path class="cls-1" d="M242.78,11.26V16H220.19V11.26Z"/><path class="cls-1" d="M246.91,11.14c2.65-.58,4.08-3.21,4.35-8h13.8V5.17h5.15v6.7c0,6.34-.74,8.65-3.3,11.12-2.3,2-4.06,2.47-9.49,2.51h-9.49V20.94h8.85c3.78,0,5.16-.25,6.13-1a4.41,4.41,0,0,0,1.93-3.38H253.89V12.2h11.39V7.32h-9.9c-1,5.13-4.06,8.26-8.47,8.68ZM268.48,0v4.3h-2.57V0ZM272,0V4.33h-2.62V0Z"/><path class="cls-1" d="M297.38,11.26V16H274.79V11.26Z"/><path class="cls-1" d="M300.38,20.33c2.1-.15,3-1.53,3.85-6l1.92-12.14h5L309,15c-.6,3.93-1.43,6.34-2.7,8a8.85,8.85,0,0,1-6,3ZM320.29,2.18a151.09,151.09,0,0,1,5.17,23.23h-5.41c-.66-6.75-3.12-18.29-4.94-23.23Z"/><path class="cls-1" d="M330,5.34h8.54V1.42h5V5.34h8.7v9.23c0,4.5-.94,7-3.23,8.8C347,25,344.92,25.5,340,25.6h-9.13V21H340c5.69.06,7.26-1.32,7.33-6.4V9.81H334.72v5.41H330Z"/><path class="cls-1" d="M357.41,6.85V2.23h19.94a62.33,62.33,0,0,1-4.47,11.39,77.2,77.2,0,0,1,7.12,12h-6a44.34,44.34,0,0,0-3.7-7.23c-2.62,4.81-6.26,7.21-11.33,7.54h-3.47V21.19h1.73c4.19,0,6.34-1,8.39-4.13a53.48,53.48,0,0,0,4.85-10.21Z"/></svg>