<svg id="レイヤー_1" data-name="レイヤー 1" xmlns="http://www.w3.org/2000/svg" viewBox="0 0 243 34"><defs><style>.cls-1{fill:#000;}.cls-2{fill:#d61518;}</style></defs><path class="cls-1" d="M18.58,14.49H6.91v-3H18.58ZM.51,4V6.65H18.58V9.06h-15V22.25H16c-4.05,3.63-9.85,6.3-16,8.17l2,2.77c6.32-2.2,12.7-5.64,16.54-9.7V33.87H22V23.46a46.57,46.57,0,0,0,16.63,9.69l2-2.77c-4.78-1.31-11.68-4.18-16-8.13H37.22V9.06H22V6.65H40.15V4H22V.94H18.58V4ZM18.58,19.85H6.91V16.8H18.58Zm15.35-5.36H22v-3h11.9Zm0,5.36H22V16.8h11.9Z"/><path class="cls-1" d="M95.21,33.93H91.76V15.45a21.31,21.31,0,0,1-3.57,3.73l-1.8-3.34c3.84-3.26,7.33-9.19,8.74-15l3.5.5a33,33,0,0,1-3.42,8.79ZM114.83,7.58a43.8,43.8,0,0,0-8.4-4.51L108.56.73A34.14,34.14,0,0,1,117,5.05Zm10.91,3.26H114.15V18.5h10v2.73h-10V30h12.53v2.77H97.82V30h12.75V21.23H100.29V18.5h10.28V10.84H98.79V8.07h26.95Z"/><path class="cls-1" d="M163.58,13.49h-7.24V10.76h7.24ZM156.34,1H153v2.3h-8.78V5.7H153V8.38H141.42v2.38H153v2.73h-8.78v2.35H153v2.48H142.87V20.7H153v2.73H141.42v2.41H153v3.27h3.33V25.84h13V23.43h-13V20.7h11.43V18.32H156.34V15.84h10.44V10.76h2.77V8.38h-2.77V3.28H156.34Zm-4.9,29.33a38.59,38.59,0,0,1-4-.21c-5.84-.82-9-3.44-9.29-3.69a36.16,36.16,0,0,0,2.68-12.92h-6.94c3.58-3.68,4.51-4.67,6.9-8.51V2.39H130.08V5.05H137a41,41,0,0,1-6.78,8.09v2.95h7.43a27.32,27.32,0,0,1-1.58,7.59A19.41,19.41,0,0,1,134,18l-3,.62a19.81,19.81,0,0,0,3.66,7.87,17.89,17.89,0,0,1-4.91,4.89l2.1,2.58a18.08,18.08,0,0,0,5-5.17c3.62,3,8.91,4.26,14.07,4.26h18.28l.73-2.74ZM163.58,8.38h-7.24V5.7h7.24Z"/><path class="cls-2" d="M52,12.15a43.39,43.39,0,0,0-1.24-5.46h7.43a32,32,0,0,1-1.29,5.46ZM62.4,25.71a24.84,24.84,0,0,1-5.8-4.65h7V18.47H56.18V14.74h8.14V12.15H60a54.26,54.26,0,0,0,1.36-5.46h2.35V4.1H56.18V.94H52.89V4.1H44.5V6.69h3.11a34.79,34.79,0,0,1,1.28,5.46H43.78v2.59h9.11v3.73H44.15v2.59h8.11A31.38,31.38,0,0,1,43,28.51l1.83,2.58a38.31,38.31,0,0,0,8.1-6.95V34h3.29V24a30,30,0,0,0,4.34,4.19ZM66,6V16.73a27.75,27.75,0,0,1-1.33,8.73A16.37,16.37,0,0,1,60.27,32l3.15,1.88c1.88-2,5.93-6.35,5.93-17.14V15h5.54V34h3.53V15H83v-2.7H69.35V6Z"/><polygon class="cls-2" points="66.64 8.45 84.44 3.55 75.33 0.94 76.92 2.94 65.96 5.97 66.64 8.45"/><path class="cls-1" d="M188.56,27.15c3.91-.16,11.92-.51,11.92-10.39,0-2.52-.89-8.32-8.64-8.8-.52,5.29-1.08,11-3.58,15.56-.56,1-2.49,4.49-6.3,4.49-4.3,0-6.47-4.78-6.47-9.24,0-7.69,5.58-14.16,15.33-14.16,10.91,0,13.76,7.27,13.76,12.5,0,12.66-11.65,13.26-15.07,13.42Zm-9.49-7.91c0,3.45,1.38,5.27,3,5.27,4.4,0,5.68-11.93,6-16.39C180.25,9.46,179.07,16.44,179.07,19.24Z"/><path class="cls-1" d="M241.94,14.44a26,26,0,0,1-4.16,3.37c-.61.45-2,1.4-3.18,2.1,3,5,5.45,7.38,8.4,9.44l-2.91,3.23A40.88,40.88,0,0,1,227.87,11.5h-1a16.63,16.63,0,0,1-2.43,2.24c2.46,2.42,5.41,5.65,5.41,13,0,1.32,0,7.16-5,7.16h-5.71l-.72-3.67h5c1.24,0,2.79,0,2.79-4a20,20,0,0,0-.11-2,47.49,47.49,0,0,1-17,8.34L207.52,29a46.94,46.94,0,0,0,18-7.86,11.8,11.8,0,0,0-.75-1.88c-3.22,2.54-8.29,4.89-14.61,6.54l-1.62-3.45a40,40,0,0,0,14.71-5.29,14.7,14.7,0,0,0-1.51-1.54,37.77,37.77,0,0,1-11.92,4.11l-1.43-3.53c5.67-.62,10.28-1.94,14-4.62h-8.7V8.37H237V11.5h-5.83A29.67,29.67,0,0,0,233,16.86a36.78,36.78,0,0,0,5.79-4.81ZM223.41,2.79V0h4V2.79h14.56v7.75h-3.78V6.13h-25.5v4.41h-3.78V2.79Z"/></svg>