<svg id="レイヤー_1" data-name="レイヤー 1" xmlns="http://www.w3.org/2000/svg" viewBox="0 0 122 24"><defs><style>.cls-1{fill:#fff;}.cls-2{fill:#e00012;}</style></defs><path class="cls-1" d="M13.34,9.93H5V7.78h8.38ZM.36,2.36V4.27h13V6H2.57v9.51h8.91C8.56,18.14,4.41,20.06,0,21.42l1.47,2c4.53-1.58,9.12-4.07,11.87-7v7.47h2.47V16.4a33.75,33.75,0,0,0,11.94,7l1.44-2c-3.42-.95-8.39-3-11.5-5.86h9V6H15.81V4.27h13V2.36h-13V.16H13.34v2.2Zm13,11.43H5v-2.2h8.38Zm11-3.86H15.81V7.78h8.55Zm0,3.86H15.81v-2.2h8.55Z"/><path class="cls-1" d="M68.35,24H65.87V10.62a15.45,15.45,0,0,1-2.56,2.69L62,10.9A21.91,21.91,0,0,0,68.29.1l2.52.36a24.12,24.12,0,0,1-2.46,6.35Zm14.08-19a32.54,32.54,0,0,0-6-3.24L77.94,0A24.81,24.81,0,0,1,84,3.12ZM90.27,7.3H82v5.52h7.19v2H82v6.32h9v2H70.23v-2h9.14V14.79H72v-2h7.37V7.3H70.93v-2H90.27Z"/><path class="cls-1" d="M117.44,9.21h-5.21v-2h5.21Zm-5.21-9h-2.38V1.85h-6.31V3.58h6.31v2h-8.32V7.24h8.32v2h-6.31V10.9h6.31v1.79h-7.28v1.72h7.28v2h-8.32v1.73h8.32v2.36h2.38V18.11h9.34V16.38h-9.34v-2h8.21V12.69h-8.21V10.9h7.51V7.24h2V5.53h-2V1.85h-7.51Zm-3.51,21.16a28.39,28.39,0,0,1-2.85-.15,13.16,13.16,0,0,1-6.67-2.67,26.4,26.4,0,0,0,1.93-9.31h-5a29,29,0,0,0,5-6.13V1.2H93.38V3.12h5A30,30,0,0,1,93.47,9v2.12H98.8a19.67,19.67,0,0,1-1.13,5.48,14.11,14.11,0,0,1-1.5-4.13L94,12.87a14.27,14.27,0,0,0,2.63,5.68,13.16,13.16,0,0,1-3.52,3.53L94.64,24a13.09,13.09,0,0,0,3.61-3.74c2.6,2.18,6.4,3.07,10.1,3.07h13.13l.52-2Zm8.72-15.81h-5.21V3.58h5.21Z"/><path class="cls-2" d="M44.8,18a17.86,17.86,0,0,1-4.17-3.35h5V12.8H40.33V10.11h5.84V8.24H43.08a39.89,39.89,0,0,0,1-3.94h1.68V2.44H40.33V.15H38V2.44h-6V4.3h2.24a25.06,25.06,0,0,1,.91,3.94H31.42v1.87H38V12.8H31.7v1.87h5.81A22.55,22.55,0,0,1,30.84,20l1.31,1.86a27.17,27.17,0,0,0,5.82-5V24h2.36V16.79a21.66,21.66,0,0,0,3.12,3ZM37.33,8.24a31.51,31.51,0,0,0-.89-3.94h5.33a22.74,22.74,0,0,1-.92,3.94Z"/><path class="cls-2" d="M49.78,5,60.62,2,54.08.15,55.22,1.6,47.35,3.78h0v7.75a20.2,20.2,0,0,1-1,6.3,12.05,12.05,0,0,1-3.12,4.73l2.26,1.36c1.35-1.44,4.25-4.58,4.25-12.36V10.26h4V24H56.3V10.26h3.28V8.32h-9.8Z"/></svg>