<svg id="レイヤー_1" data-name="レイヤー 1" xmlns="http://www.w3.org/2000/svg" viewBox="0 0 501.459 62.26"><defs><style>.cls-1{fill:#0098d8;}.cls-2{fill:#58b331;}.cls-3{fill:#d6a600;}.cls-4{fill:#c60f28;}.cls-5{fill:#00963b;}.cls-6{fill:#417935;}.cls-7{fill:#f9bc00;}.cls-8{fill:#e73819;}.cls-9{fill:#f4a100;}.cls-10{fill:#0076ba;}.cls-11{fill:#960b31;}.cls-12{fill:#00a6d8;}.cls-13{fill:#ec6a02;}.cls-14{fill:#e4001e;}.cls-15{fill:#dc007a;}.cls-16{fill:#003067;}.cls-17{fill:#d29100;}.cls-18{fill:#004c87;}</style></defs><path class="cls-1" d="M293.746,53.81a21.19,21.19,0,0,1-9.27,6.184,38.988,38.988,0,0,1-13.324,2.265A26.424,26.424,0,0,1,257.647,59a22.378,22.378,0,0,1-9.013-9.678A34.287,34.287,0,0,1,245.3,34.334l-.028-4.025a36.429,36.429,0,0,1,2.886-15.372,22.1,22.1,0,0,1,8.553-9.982,24.836,24.836,0,0,1,13.173-3.526q10.53-.071,16.5,4.909t7.136,14.572l-11.876.082Q280.8,15.913,278,13.574a11.5,11.5,0,0,0-7.681-2.307,10.819,10.819,0,0,0-9.444,4.742q-3.222,4.7-3.2,13.93l.026,3.782q.063,9.314,3.633,14.047t10.4,4.687q6.87-.046,9.781-2.995l-.071-10.207-11.1.075-.06-8.987,23.3-.158Z"/><path class="cls-1" d="M394.492,48.405,373.1,48.55,369.12,60.778l-12.973.089,21.637-59.36,11.305-.077,22.567,59.058-12.973.088Zm-18.163-9.758,14.8-.1-7.594-22.112Z"/><polygon class="cls-1" points="427.488 50.579 453.392 50.402 453.458 60.203 415.355 60.463 414.952 1.253 427.151 1.17 427.488 50.579"/><path class="cls-1" d="M489.218,44.424a6.261,6.261,0,0,0-2.476-5.29q-2.452-1.834-8.811-3.846a62.141,62.141,0,0,1-10.072-3.977q-10.122-5.38-10.185-14.611a14.292,14.292,0,0,1,2.646-8.578,17.643,17.643,0,0,1,7.727-5.93A29.24,29.24,0,0,1,479.4,0,26.61,26.61,0,0,1,490.72,2.22a18,18,0,0,1,7.749,6.434,16.957,16.957,0,0,1,2.811,9.5l-12.2.083a7.981,7.981,0,0,0-2.606-6.306Q483.9,9.69,479.262,9.72a11.269,11.269,0,0,0-6.942,1.939,5.958,5.958,0,0,0-2.444,5,5.707,5.707,0,0,0,2.94,4.82,32.826,32.826,0,0,0,8.584,3.6q10.431,3.062,15.221,7.663a15.47,15.47,0,0,1,4.838,11.517,14.252,14.252,0,0,1-5.733,12.1q-5.787,4.411-15.628,4.479a30.244,30.244,0,0,1-12.46-2.417,19.68,19.68,0,0,1-8.606-6.793,17.532,17.532,0,0,1-3.018-10.066l12.24-.083q.067,9.8,11.778,9.72a11.388,11.388,0,0,0,6.78-1.815,5.751,5.751,0,0,0,2.406-4.957"/><path class="cls-2" d="M313.53,23.159a17.049,17.049,0,0,1,2.7-3.466l-8.835-9.686a30.259,30.259,0,0,0-5.608,7.3Z"/><path class="cls-3" d="M335.186,16.316a16.814,16.814,0,0,1,3.705,2.321l8.859-9.672a30.164,30.164,0,0,0-7.852-4.9Z"/><path class="cls-4" d="M355.473,19.228l-11.74,5.852a16.853,16.853,0,0,1,1.174,4.15L357.969,28a29.787,29.787,0,0,0-2.5-8.768"/><path class="cls-5" d="M342.89,23.384l11.739-5.851a30.17,30.17,0,0,0-5.485-7.285l-8.859,9.671a16.99,16.99,0,0,1,2.6,3.465"/><path class="cls-6" d="M311.2,31.727c0-.264.009-.528.021-.789l-13.064-1.17c-.04.647-.067,1.3-.067,1.959a30.107,30.107,0,0,0,.89,7.267l12.617-3.62a16.925,16.925,0,0,1-.4-3.647"/><path class="cls-7" d="M341.246,42.464a17.185,17.185,0,0,1-3.187,3l6.9,11.168a30.3,30.3,0,0,0,6.755-6.272Z"/><path class="cls-8" d="M345.09,31.727a16.722,16.722,0,0,1-.389,3.6l12.616,3.626a29.937,29.937,0,0,0,.882-7.23q0-.927-.059-1.845l-13.062,1.234c.008.205.012.407.012.611"/><path class="cls-9" d="M315.255,42.714,304.812,50.65a30.34,30.34,0,0,0,6.819,6.178l6.9-11.157a17.031,17.031,0,0,1-3.272-2.957"/><path class="cls-10" d="M311.41,29.052a16.647,16.647,0,0,1,1.252-4.208L300.924,19a29.887,29.887,0,0,0-2.591,8.883Z"/><path class="cls-11" d="M343.352,57.64l-6.886-11.154a16.809,16.809,0,0,1-4.021,1.633l2.431,12.9a29.847,29.847,0,0,0,8.476-3.381"/><path class="cls-12" d="M344.2,37.159a17.071,17.071,0,0,1-1.835,3.776l10.475,7.9a29.9,29.9,0,0,0,3.965-8.054Z"/><path class="cls-13" d="M330.589,48.5a16.861,16.861,0,0,1-4.418.062l-2.43,12.9a30.214,30.214,0,0,0,9.275-.074Z"/><path class="cls-14" d="M329.226,14.814a16.911,16.911,0,0,1,4.194.81l4.713-12.245a29.837,29.837,0,0,0-8.907-1.685Z"/><path class="cls-15" d="M324.3,48.234a16.768,16.768,0,0,1-4.159-1.573l-6.9,11.162a29.906,29.906,0,0,0,8.633,3.3Z"/><path class="cls-16" d="M323.051,15.564a16.765,16.765,0,0,1,4.281-.762V1.683a29.874,29.874,0,0,0-9.025,1.645Z"/><path class="cls-17" d="M314.1,41.206a16.9,16.9,0,0,1-2-4.006L299.5,40.817a29.964,29.964,0,0,0,4.165,8.326Z"/><path class="cls-18" d="M317.644,18.436a16.96,16.96,0,0,1,3.636-2.2L316.537,4.006a30,30,0,0,0-7.732,4.735Z"/><path class="cls-1" d="M13.819,20.932a2.507,2.507,0,0,0-.944-2.081,11.759,11.759,0,0,0-3.321-1.542,32.148,32.148,0,0,1-3.885-1.544Q.763,13.356.764,9.141a5.935,5.935,0,0,1,1.222-3.7,7.9,7.9,0,0,1,3.458-2.5,13.474,13.474,0,0,1,5.029-.892,11.751,11.751,0,0,1,4.879.971,7.72,7.72,0,0,1,3.357,2.765,7.23,7.23,0,0,1,1.2,4.1H13.836A3.049,3.049,0,0,0,12.891,7.5a3.677,3.677,0,0,0-2.556-.851,4.155,4.155,0,0,0-2.576.721,2.207,2.207,0,0,0-.946,1.829,2.227,2.227,0,0,0,1.042,1.76,13.142,13.142,0,0,0,3.658,1.629,22.46,22.46,0,0,1,4.3,1.812q4.092,2.358,4.092,6.5a6.163,6.163,0,0,1-2.5,5.2,11.108,11.108,0,0,1-6.849,1.89A13.585,13.585,0,0,1,5,26.888,8.383,8.383,0,0,1,1.257,23.87,7.865,7.865,0,0,1,0,19.458H6.1a3.868,3.868,0,0,0,1.049,2.99,4.954,4.954,0,0,0,3.407.962,3.923,3.923,0,0,0,2.384-.649,2.146,2.146,0,0,0,.875-1.829"/><path class="cls-1" d="M43.181,2.4V18.919a9.489,9.489,0,0,1-1.2,4.864,7.76,7.76,0,0,1-3.432,3.131,12.108,12.108,0,0,1-5.289,1.074A10.449,10.449,0,0,1,26,25.6a8.539,8.539,0,0,1-2.7-6.555V2.4h6.121V19.163q.105,4.143,3.849,4.143a3.725,3.725,0,0,0,2.861-1.04,4.859,4.859,0,0,0,.971-3.38V2.4Z"/><path class="cls-1" d="M60.356,20.932a2.505,2.505,0,0,0-.945-2.081,11.787,11.787,0,0,0-3.321-1.542,32.058,32.058,0,0,1-3.884-1.544Q47.3,13.356,47.3,9.141a5.936,5.936,0,0,1,1.223-3.7,7.892,7.892,0,0,1,3.458-2.5,13.465,13.465,0,0,1,5.028-.892,11.757,11.757,0,0,1,4.881.971,7.74,7.74,0,0,1,3.356,2.765,7.237,7.237,0,0,1,1.2,4.1H60.373A3.053,3.053,0,0,0,59.428,7.5a3.682,3.682,0,0,0-2.558-.851,4.154,4.154,0,0,0-2.575.721,2.206,2.206,0,0,0-.945,1.829,2.23,2.23,0,0,0,1.04,1.76,13.161,13.161,0,0,0,3.66,1.629,22.5,22.5,0,0,1,4.3,1.812q4.09,2.358,4.092,6.5a6.161,6.161,0,0,1-2.5,5.2,11.106,11.106,0,0,1-6.849,1.89,13.587,13.587,0,0,1-5.556-1.1,8.375,8.375,0,0,1-3.745-3.018,7.851,7.851,0,0,1-1.259-4.412h6.1a3.872,3.872,0,0,0,1.05,2.99,4.954,4.954,0,0,0,3.406.962,3.917,3.917,0,0,0,2.384-.649,2.143,2.143,0,0,0,.877-1.829"/><polygon class="cls-1" points="89.736 7.095 82.159 7.095 82.159 27.641 76.072 27.641 76.072 7.095 68.634 7.095 68.634 2.396 89.736 2.396 89.736 7.095"/><path class="cls-1" d="M104.914,22.925H96.575l-1.457,4.717h-6.5L97.874,2.4H103.6l9.329,25.245h-6.538Zm-6.883-4.7h5.427l-2.722-8.756Z"/><rect class="cls-1" x="115.535" y="2.397" width="6.068" height="25.245"/><polygon class="cls-1" points="147.272 27.641 141.22 27.641 132.273 11.933 132.273 27.641 126.188 27.641 126.188 2.396 132.273 2.396 141.203 18.105 141.203 2.396 147.272 2.396 147.272 27.641"/><path class="cls-1" d="M166.127,22.925h-8.34l-1.456,4.717h-6.5L159.087,2.4h5.722l9.328,25.245H167.6Zm-6.883-4.7h5.426l-2.722-8.756Z"/><path class="cls-1" d="M176.331,27.642V2.4H185.4q4.874,0,7.413,1.785a5.944,5.944,0,0,1,2.54,5.185,6.01,6.01,0,0,1-.9,3.346A5.267,5.267,0,0,1,191.8,14.76a5.319,5.319,0,0,1,3.035,1.941,5.654,5.654,0,0,1,1.057,3.468,6.681,6.681,0,0,1-2.349,5.574q-2.35,1.865-6.961,1.9Zm6.086-14.721h3.172a4.512,4.512,0,0,0,2.844-.73,2.593,2.593,0,0,0,.85-2.1,2.725,2.725,0,0,0-.92-2.3,4.921,4.921,0,0,0-2.965-.7h-2.981Zm0,3.988v6.052H186.4a3.79,3.79,0,0,0,2.531-.755,2.641,2.641,0,0,0,.885-2.125q0-3.154-3.138-3.172Z"/><polygon class="cls-1" points="205.675 22.961 216.268 22.961 216.268 27.641 199.59 27.641 199.59 2.397 205.675 2.397 205.675 22.961"/><polygon class="cls-1" points="234.848 16.926 225.277 16.926 225.277 22.961 236.582 22.961 236.582 27.641 219.19 27.641 219.19 2.396 236.616 2.396 236.616 7.096 225.277 7.096 225.277 12.418 234.848 12.418 234.848 16.926"/><path class="cls-1" d="M.773,61.785V37.051H8.741a11.728,11.728,0,0,1,5.9,1.485,10.453,10.453,0,0,1,4.084,4.2,12.681,12.681,0,0,1,1.488,6.073v1.137a12.737,12.737,0,0,1-1.437,6.091,10.486,10.486,0,0,1-4.043,4.213A11.458,11.458,0,0,1,8.91,61.785ZM6.736,41.653V57.2H8.809a4.636,4.636,0,0,0,3.941-1.826,8.948,8.948,0,0,0,1.376-5.429V48.874a8.868,8.868,0,0,0-1.376-5.4,4.718,4.718,0,0,0-4.009-1.819Z"/><polygon class="cls-1" points="37.299 51.286 28.542 51.286 28.542 57.198 38.998 57.198 38.998 61.785 22.581 61.785 22.581 37.05 39.031 37.05 39.031 41.653 28.542 41.653 28.542 46.869 37.299 46.869 37.299 51.286"/><polygon class="cls-1" points="52.073 55.057 57 37.05 63.659 37.05 55.334 61.785 48.811 61.785 40.554 37.05 47.163 37.05 52.073 55.057"/><polygon class="cls-1" points="80.093 51.286 71.422 51.286 71.422 57.198 81.793 57.198 81.793 61.785 65.461 61.785 65.461 37.05 81.827 37.05 81.827 41.653 71.422 41.653 71.422 46.869 80.093 46.869 80.093 51.286"/><polygon class="cls-1" points="89.805 57.198 99.242 57.198 99.242 61.785 83.842 61.785 83.842 37.051 89.805 37.051 89.805 57.198"/><path class="cls-1" d="M121.425,49.927a14.573,14.573,0,0,1-1.341,6.4,9.931,9.931,0,0,1-3.814,4.291,10.622,10.622,0,0,1-5.631,1.5,10.784,10.784,0,0,1-5.608-1.452,9.915,9.915,0,0,1-3.812-4.154,14.147,14.147,0,0,1-1.436-6.2V48.925a14.634,14.634,0,0,1,1.334-6.413,9.879,9.879,0,0,1,3.822-4.289,11.306,11.306,0,0,1,11.272-.018,10.08,10.08,0,0,1,3.831,4.255,14.211,14.211,0,0,1,1.383,6.329Zm-6.063-1.036a10.408,10.408,0,0,0-1.232-5.6,3.952,3.952,0,0,0-3.525-1.911q-4.486,0-4.74,6.726l-.017,1.818a10.688,10.688,0,0,0,1.207,5.589,3.939,3.939,0,0,0,3.584,1.954,3.9,3.9,0,0,0,3.482-1.921,10.4,10.4,0,0,0,1.241-5.52Z"/><path class="cls-1" d="M129.758,53.392v8.393h-5.964V37.05h9.871a11.485,11.485,0,0,1,5.019,1.045,7.9,7.9,0,0,1,3.381,2.972,8.108,8.108,0,0,1,1.2,4.375,7.153,7.153,0,0,1-2.591,5.784,10.741,10.741,0,0,1-7.109,2.166Zm0-4.6h3.907a3.686,3.686,0,0,0,2.642-.867,3.22,3.22,0,0,0,.909-2.446,3.975,3.975,0,0,0-.936-2.768,3.315,3.315,0,0,0-2.548-1.055h-3.974Z"/><polygon class="cls-1" points="153.282 37.05 158.803 54.259 164.308 37.05 172.156 37.05 172.156 61.785 166.176 61.785 166.176 56.009 166.754 44.186 160.773 61.785 156.832 61.785 150.835 44.168 151.413 56.009 151.413 61.785 145.45 61.785 145.45 37.05 153.282 37.05"/><polygon class="cls-1" points="189.555 51.286 180.775 51.286 180.775 57.198 191.255 57.198 191.255 61.785 174.812 61.785 174.812 37.05 191.289 37.05 191.289 41.653 180.775 41.653 180.775 46.869 189.555 46.869 189.555 51.286"/><polygon class="cls-1" points="213.918 61.785 207.989 61.785 199.224 46.394 199.224 61.785 193.261 61.785 193.261 37.051 199.224 37.051 207.972 52.441 207.972 37.051 213.918 37.051 213.918 61.785"/><polygon class="cls-1" points="236.616 41.653 229.191 41.653 229.191 61.785 223.227 61.785 223.227 41.653 215.94 41.653 215.94 37.051 236.616 37.051 236.616 41.653"/></svg>