<svg id="レイヤー_1" data-name="レイヤー 1" xmlns="http://www.w3.org/2000/svg" viewBox="0 0 185.091 36.296"><defs><style>.cls-1{fill:#e30012;}</style></defs><path d="M20.242,15.012H7.523V11.76H20.242ZM.551,3.569V6.462H20.242V9.1H3.9V23.485H17.41C12.994,27.433,6.688,30.336,0,32.389L2.225,35.4C9.1,33.01,16.06,29.252,20.242,24.833v11.3h3.75V24.8A50.855,50.855,0,0,0,42.105,35.368l2.185-3.017c-5.195-1.434-12.728-4.563-17.456-8.866H40.528V9.1H23.992V6.462H43.733V3.569H23.992V.234h-3.75V3.569ZM20.242,20.855H7.523V17.529H20.242Zm16.713-5.843H23.992V11.76H36.955Zm0,5.843H23.992V17.529H36.955Z"/><path d="M103.7,36.215H99.937V16.061a23.387,23.387,0,0,1-3.89,4.068l-1.954-3.644c4.174-3.56,7.986-10.023,9.517-16.331L107.421.7A36.084,36.084,0,0,1,103.7,10.3ZM125.064,7.46a49.527,49.527,0,0,0-9.145-4.91L118.238,0a37.626,37.626,0,0,1,9.2,4.718Zm11.883,3.575H124.325V19.38h10.91v2.983h-10.91v9.562h13.652v3.021H106.543V31.925h13.88V22.363H109.234V19.38h11.189V11.035H107.611V8.01h29.336Z"/><path d="M178.172,13.919h-7.906V10.947h7.906ZM170.266.266h-3.607V2.791h-9.574V5.419h9.574V8.356H154.03v2.591h12.629v2.972h-9.574v2.566h9.574V19.2H155.617v2.592h11.042v2.977H154.03v2.628h12.629v3.559h3.607V27.393h14.177V24.765H170.266V21.788h12.457V19.2H170.266V16.485h11.39V10.947h3.018V8.356h-3.018V2.791h-11.39ZM164.94,32.274a41.043,41.043,0,0,1-4.32-.234c-6.357-.894-9.84-3.754-10.128-4.031,1.587-3.4,2.651-8.39,2.933-14.09h-7.566c3.9-4.013,4.921-5.1,7.519-9.271V1.823h-11.7v2.9H149.2a45.575,45.575,0,0,1-7.384,8.828v3.208h8.08a29.309,29.309,0,0,1-1.72,8.283A21.179,21.179,0,0,1,145.9,18.8l-3.247.665a21.493,21.493,0,0,0,3.993,8.586,19.787,19.787,0,0,1-5.341,5.349l2.274,2.819a19.7,19.7,0,0,0,5.474-5.649c3.954,3.3,9.706,4.643,15.327,4.643H184.3l.792-2.979ZM178.172,8.356h-7.906V5.419h7.906Z"/><path class="cls-1" d="M67.966,27.246a26.548,26.548,0,0,1-6.323-5.069h7.572V19.353H61.19V15.294h8.858V12.466H65.361a58.637,58.637,0,0,0,1.494-5.959H69.41V3.684H61.19V.229H57.612V3.684H48.461V6.507h3.392a37.025,37.025,0,0,1,1.387,5.959H47.674v2.828h9.938v4.059h-9.52v2.824h8.819A33.788,33.788,0,0,1,46.78,30.3l2,2.82a41.758,41.758,0,0,0,8.832-7.59V36.3H61.19v-10.9a33.108,33.108,0,0,0,4.724,4.562ZM56.633,12.466a46.165,46.165,0,0,0-1.347-5.959h8.082a33.921,33.921,0,0,1-1.4,5.959Z"/><path class="cls-1" d="M75.528,7.616l16.44-4.537L82.044.229l1.737,2.182L71.831,5.72v0h-.015V17.453a30.4,30.4,0,0,1-1.441,9.519,18.128,18.128,0,0,1-4.731,7.167l3.434,2.047c2.041-2.169,6.45-6.929,6.45-18.69V15.523H81.56V36.3h3.858V15.523h4.973V12.58H75.528Z"/></svg>