<?xml version="1.0" encoding="UTF-8"?><svg id="_レイヤー_1" xmlns="http://www.w3.org/2000/svg" viewBox="0 0 130 51.042"><defs><style>.cls-1{fill:#6a0000;}.cls-1,.cls-2,.cls-3,.cls-4,.cls-5{stroke-width:0px;}.cls-2{fill:#c40018;}.cls-3{fill:#c3ba9b;}.cls-4{fill:#fff;}.cls-5{fill:#746957;}</style></defs><polygon class="cls-3" points="42.535 17.014 28.567 30.982 22.176 24.591 13.669 33.098 28.567 47.996 51.042 25.521 42.535 17.014"/><rect class="cls-5" x="9.06" y="39.916" width="21.069" height="4.308" transform="translate(35.487 -1.534) rotate(45)"/><rect class="cls-1" x="25.016" y="17.223" width="4.637" height="9.767" transform="translate(-7.626 25.803) rotate(-45)"/><polygon class="cls-2" points="40.934 15.414 25.521 0 0 25.521 8.507 34.028 25.521 17.014 32.428 23.921 40.934 15.414"/><polygon class="cls-4" points="67.221 10.992 67.221 8.6 56.188 8.6 56.188 10.992 60.283 10.992 60.283 23.296 63.127 23.296 63.127 10.992 67.221 10.992"/><path class="cls-4" d="M74.848,8.406c-4.444,0-6.891,2.304-6.891,6.486v2.112c0,4.183,2.447,6.486,6.891,6.486s6.917-2.304,6.917-6.486v-2.112c0-4.183-2.457-6.486-6.917-6.486ZM78.921,17.004c0,2.769-1.333,4.116-4.076,4.116-2.721,0-4.044-1.346-4.044-4.116v-2.112c0-2.769,1.323-4.116,4.044-4.116,2.742,0,4.076,1.346,4.076,4.116v2.112Z"/><path class="cls-4" d="M88.871,23.49c3.157,0,5.042-1.587,5.042-4.245,0-2.46-1.203-3.676-4.438-4.485-1.897-.474-2.996-.996-2.996-2.26,0-1.095.793-1.724,2.176-1.724,1.416,0,2.253.414,2.954,1.472l2.122-1.516c-1.03-1.544-2.745-2.327-5.097-2.327-3.177,0-4.999,1.492-4.999,4.094,0,2.353,1.336,3.757,4.332,4.55,2.319.601,3.102,1.187,3.102,2.324,0,.652-.311,1.746-2.392,1.746-1.447,0-2.394-.423-3.249-1.457l-2.166,1.498c1.262,1.61,2.996,2.33,5.608,2.33Z"/><polygon class="cls-4" points="105.656 23.296 108.5 23.296 108.5 8.6 105.656 8.6 105.656 14.504 98.922 14.504 98.922 8.6 96.077 8.6 96.077 23.296 98.922 23.296 98.922 16.875 105.656 16.875 105.656 23.296"/><rect class="cls-4" x="112.028" y="8.6" width="2.844" height="14.696"/><polygon class="cls-4" points="127.61 23.296 130 23.296 130 8.6 127.306 8.6 127.306 18.122 120.769 8.6 118.4 8.6 118.4 23.296 121.094 23.296 121.094 13.906 127.61 23.296"/><polygon class="cls-4" points="73.686 27.746 70.96 33.396 68.255 27.746 64.962 27.746 69.538 36.43 69.538 42.442 72.382 42.442 72.382 36.43 76.959 27.746 73.686 27.746"/><path class="cls-4" d="M84.52,42.636c3.627,0,5.624-2.181,5.624-6.141v-8.749h-2.844v8.77c0,2.593-.857,3.749-2.78,3.749s-2.779-1.156-2.779-3.749v-8.77h-2.845v8.77c0,5.325,3.524,6.12,5.624,6.12Z"/><polygon class="cls-4" points="97.954 36.104 101.786 42.442 105.183 42.442 99.802 33.666 104.28 27.746 100.92 27.746 96.092 34.344 96.092 27.746 93.248 27.746 93.248 42.442 96.092 42.442 96.092 38.556 97.954 36.104"/><polygon class="cls-4" points="109.889 30.138 116.137 30.138 116.137 27.746 107.044 27.746 107.044 42.442 116.137 42.442 116.137 40.071 109.889 40.071 109.889 36.02 115.491 36.02 115.491 33.65 109.889 33.65 109.889 30.138"/><path class="cls-4" d="M63.127,39.77v-12.024h-2.845v12.024c0,2.449-.668,3.447-2.306,3.447h-1.789v2.371h1.982c3.335,0,4.956-1.903,4.956-5.818Z"/><polygon class="cls-4" points="127.61 42.442 130 42.442 130 27.746 127.306 27.746 127.306 37.267 120.769 27.746 118.4 27.746 118.4 42.442 121.094 42.442 121.094 33.051 127.61 42.442"/></svg>