<?xml version="1.0" encoding="UTF-8"?>
<svg id="_レイヤー_2" data-name="レイヤー 2" xmlns="http://www.w3.org/2000/svg" viewBox="0 0 225.08 31.49">
  <defs>
    <style>
      .cls-1 {
        fill: red;
      }
    </style>
  </defs>
  <g id="_レイヤー_1-2" data-name="レイヤー 1">
    <g>
      <g>
        <path d="M17.08,12.67H6.35v-2.75h10.73v2.75ZM.47,3v2.45h16.61v2.22H3.29v12.13h11.4c-3.73,3.35-9.05,5.8-14.69,7.52l1.87,2.55c5.81-2.02,11.68-5.19,15.21-8.92v9.55h3.17v-9.58c4.16,3.96,9.49,6.87,15.29,8.92l1.84-2.55c-4.39-1.21-10.74-3.85-14.74-7.49h11.56V7.67h-13.96v-2.22h16.66v-2.45h-16.66V.2h-3.17v2.8H.47ZM17.08,17.6H6.35v-2.81h10.73v2.81ZM31.19,12.67h-10.94v-2.75h10.94v2.75ZM31.19,17.6h-10.94v-2.81h10.94v2.81Z"/>
        <path d="M87.52,30.56h-3.18V13.55c-1.52,1.96-2.46,2.75-3.28,3.44l-1.65-3.08c3.53-3,6.73-8.46,8.03-13.78l3.22.46c-.51,2.06-1.26,4.76-3.14,8.1v21.88ZM105.55,6.3c-2.23-1.54-4.82-2.97-7.72-4.15l1.96-2.15c2.43.85,5.25,2.18,7.76,3.98l-2,2.32ZM115.58,9.31h-10.65v7.05h9.2v2.52h-9.2v8.07h11.52v2.55h-26.53v-2.55h11.72v-8.07h-9.44v-2.52h9.44v-7.05h-10.82v-2.55h24.77v2.55Z"/>
        <path d="M150.37,11.75h-6.66v-2.51h6.66v2.51ZM143.71.23h-3.06v2.12h-8.07v2.23h8.07v2.47h-10.65v2.19h10.65v2.51h-8.07v2.16h8.07v2.28h-9.32v2.19h9.32v2.51h-10.65v2.22h10.65v3h3.06v-3h11.96v-2.22h-11.96v-2.51h10.51v-2.19h-10.51v-2.28h9.6v-4.67h2.54v-2.19h-2.54V2.35h-9.6V.23ZM139.2,27.23c-.75,0-2.27-.04-3.64-.2-5.37-.75-8.31-3.16-8.54-3.4,1.33-2.88,2.23-7.09,2.46-11.89h-6.38c3.29-3.39,4.15-4.3,6.35-7.83V1.53h-9.88v2.45h6.35c-1.45,2.52-4.23,5.55-6.23,7.45v2.71h6.82c-.31,3.56-.9,5.55-1.45,6.99-1.09-2-1.56-3.6-1.92-5.27l-2.74.57c.43,1.79,1.21,4.47,3.36,7.24-1.56,2.38-3.48,3.79-4.51,4.51l1.93,2.38c.97-.71,2.82-1.98,4.62-4.76,3.33,2.78,8.19,3.92,12.93,3.92h16.8l.67-2.51-17.01.04ZM150.37,7.05h-6.66v-2.47h6.66v2.47Z"/>
        <path class="cls-1" d="M47.8,10.52c-.08-.36-.51-3.19-1.14-5.03h6.83c-.16,1.27-.68,3.63-1.19,5.03h-4.5ZM57.36,22.99c-2.9-1.76-4.51-3.34-5.34-4.28h6.4v-2.39h-6.78v-3.43h7.48v-2.39h-3.96c.51-1.5,1.17-4.51,1.25-5.03h2.16v-2.38h-6.94V.19h-3.02v2.91h-7.72v2.38h2.86c.66,1.66,1.1,4.67,1.18,5.03h-4.7v2.39h8.38v3.43h-8.03v2.39h7.45c-2.94,3.62-6.58,5.77-8.55,6.86l1.68,2.38c2-1.34,4.9-3.39,7.45-6.4v9.07h3.02v-9.2c1.37,1.6,2.43,2.58,3.99,3.85l1.73-2.29ZM60.62,4.83v9.9c0,1.24,0,4.15-1.22,8.04-.97,3.03-3.01,5.05-3.99,6.04l2.9,1.73c1.72-1.83,5.45-5.84,5.45-15.78v-1.66h5.09v17.53h3.25V13.1h4.2v-2.48h-12.54v-5.78h-3.13Z"/>
        <polygon class="cls-1" points="61.26 7.11 77.62 2.6 69.24 .19 70.71 2.03 60.63 4.83 61.26 7.11"/>
      </g>
      <g>
        <path d="M172.55,8.92c-4.28,0-7.91,1.17-10.5,3.37-2.43,2.07-3.77,4.98-3.77,8.18,0,1.91.55,3.78,1.51,5.13,1.06,1.5,2.52,2.3,4.21,2.3,2.92,0,5.36-2.25,7.04-6.49,1.43-3.6,1.98-7.73,2.02-10.23,4.35.13,8.97,2.21,8.97,7.65,0,1.91-.45,4.56-2.59,6.37-1.64,1.39-4.03,2.04-8.85,2.41h-.12s.94,2.33.94,2.33h.07c3.38-.22,13.69-.89,13.69-10.96,0-6.21-4.83-10.07-12.61-10.07ZM164.07,25.42c-2.38,0-3.01-3.1-3.01-4.74,0-1.52.42-5.32,4.26-7.72h0c1.91-1.2,3.76-1.48,4.88-1.63-.22,5.7-2,10.11-3.02,11.81-.66,1.06-1.61,2.28-3.11,2.28Z"/>
        <path d="M215.54,18.27c.84-.41,5.33-2.64,8.15-5.07l-2.59-1.72c-2.59,2.33-6.05,4.16-6.84,4.56-.48-.95-1.43-2.84-2.15-5.68h7.32v-2.23h-25.53v2.23h10.46c-4.65,3.38-10.46,4.63-15.23,5.27l1.31,2.54c4.53-.78,8.95-2.1,12.81-4.29.6.51,1.15.98,1.83,1.69-2.94,1.93-7.84,4.29-15.79,5.65l1.39,2.5c7.6-1.62,12.69-4.12,15.71-6.42.16.27.64,1.08,1.03,2.3-3.7,2.81-10.06,5.92-19.37,7.54l1.31,2.6c9.67-2.1,15.35-5.31,18.57-7.71.08.37.28,1.72.28,2.67,0,4.09-1.87,4.06-2.98,4.06l-5.21-.03.64,2.77h5.57c4.77,0,5.05-4.67,5.05-6.63,0-7.64-4.14-11.06-5.73-12.37,1.35-.95,1.91-1.49,2.51-2.13h1.31c1.07,5.04,4.38,12.88,13.28,19.51l2.43-2.33c-1.67-1.05-5.93-3.65-9.55-9.26Z"/>
        <polygon points="192.59 5.52 220.87 5.52 220.87 10.12 224.01 10.12 224.01 3.09 208.38 3.09 208.38 .35 205.04 .35 205.04 3.09 189.4 3.09 189.4 10.12 192.59 10.12 192.59 5.52"/>
      </g>
    </g>
  </g>
</svg>