<?xml version="1.0" encoding="UTF-8"?><svg id="_レイヤー_2" xmlns="http://www.w3.org/2000/svg" viewBox="0 0 183.124 71.9"><defs><style>.cls-1{fill:#c8bb9b;}.cls-1,.cls-2,.cls-3,.cls-4,.cls-5{stroke-width:0px;}.cls-2{fill:#231815;}.cls-3{fill:#e50012;}.cls-4{fill:#7d0000;}.cls-5{fill:#796a56;}</style></defs><g id="_レイヤー_1-2"><polygon class="cls-1" points="59.916 23.967 40.24 43.643 31.238 34.64 19.254 46.623 40.24 67.609 71.9 35.95 59.916 23.967"/><rect class="cls-5" x="12.763" y="56.228" width="29.679" height="6.068" transform="translate(49.989 -2.16) rotate(45)"/><rect class="cls-4" x="35.239" y="24.261" width="6.532" height="13.759" transform="translate(-10.742 36.347) rotate(-44.999)"/><polygon class="cls-3" points="57.662 21.712 35.95 0 0 35.95 11.983 47.933 35.95 23.967 45.679 33.696 57.662 21.712"/><polygon class="cls-2" points="94.691 15.484 94.691 12.114 79.149 12.114 79.149 15.484 84.917 15.484 84.917 32.816 88.924 32.816 88.924 15.484 94.691 15.484"/><path class="cls-2" d="M105.435,11.841c-6.259,0-9.707,3.245-9.707,9.137v2.975c0,5.892,3.447,9.137,9.707,9.137s9.744-3.245,9.744-9.137v-2.975c0-5.892-3.461-9.137-9.744-9.137ZM111.172,23.952c0,3.901-1.878,5.797-5.741,5.797-3.833,0-5.696-1.896-5.696-5.797v-2.975c0-3.901,1.863-5.797,5.696-5.797,3.863,0,5.741,1.896,5.741,5.797v2.975Z"/><path class="cls-2" d="M125.188,33.089c4.448,0,7.103-2.236,7.103-5.98,0-3.466-1.694-5.178-6.252-6.317-2.673-.668-4.22-1.403-4.22-3.184,0-1.543,1.117-2.428,3.065-2.428,1.995,0,3.174.583,4.161,2.074l2.989-2.135c-1.451-2.175-3.866-3.278-7.18-3.278-4.476,0-7.042,2.102-7.042,5.767,0,3.315,1.882,5.292,6.102,6.409,3.267.846,4.37,1.672,4.37,3.274,0,.918-.438,2.459-3.37,2.459-2.038,0-3.372-.596-4.576-2.052l-3.051,2.109c1.777,2.269,4.221,3.282,7.9,3.282Z"/><polygon class="cls-2" points="148.832 32.816 152.839 32.816 152.839 12.114 148.832 12.114 148.832 20.431 139.346 20.431 139.346 12.114 135.339 12.114 135.339 32.816 139.346 32.816 139.346 23.77 148.832 23.77 148.832 32.816"/><rect class="cls-2" x="157.808" y="12.114" width="4.007" height="20.702"/><polygon class="cls-2" points="179.757 32.816 183.124 32.816 183.124 12.114 179.33 12.114 179.33 25.527 170.121 12.114 166.785 12.114 166.785 32.816 170.579 32.816 170.579 19.588 179.757 32.816"/><polygon class="cls-2" points="103.798 39.084 99.957 47.044 96.148 39.084 91.508 39.084 97.954 51.317 97.954 59.786 101.961 59.786 101.961 51.317 108.408 39.084 103.798 39.084"/><path class="cls-2" d="M119.06,60.059c5.109,0,7.922-3.072,7.922-8.651v-12.324h-4.007v12.354c0,3.653-1.208,5.282-3.916,5.282s-3.915-1.629-3.915-5.282v-12.354h-4.007v12.354c0,7.501,4.964,8.621,7.922,8.621Z"/><polygon class="cls-2" points="137.982 50.858 143.381 59.786 148.166 59.786 140.586 47.424 146.893 39.084 142.16 39.084 135.36 48.379 135.36 39.084 131.353 39.084 131.353 59.786 135.36 59.786 135.36 54.311 137.982 50.858"/><polygon class="cls-2" points="154.794 42.453 163.597 42.453 163.597 39.084 150.787 39.084 150.787 59.786 163.597 59.786 163.597 56.446 154.794 56.446 154.794 50.74 162.686 50.74 162.686 47.401 154.794 47.401 154.794 42.453"/><path class="cls-2" d="M88.924,56.022v-16.938h-4.007v16.938c0,3.449-.941,4.856-3.248,4.856h-2.519v3.34h2.793c4.698,0,6.982-2.681,6.982-8.196Z"/><polygon class="cls-2" points="179.757 59.786 183.124 59.786 183.124 39.084 179.33 39.084 179.33 52.497 170.121 39.084 166.785 39.084 166.785 59.786 170.579 59.786 170.579 46.558 179.757 59.786"/></g></svg>