<svg id="レイヤー_1" data-name="レイヤー 1" xmlns="http://www.w3.org/2000/svg" viewBox="0 0 156 46"><defs><style>.cls-1{fill:#101010;}</style></defs><path class="cls-1" d="M12.39,17.28H9.24l-5.4-8.7v8.7h-3V4.6H4.75l4.64,7.26V4.6h3Z"/><path class="cls-1" d="M23.44,17.28h-9.2V4.6h9.2V7.05H17.5V9.24H23v2.45H17.5v3.13h5.94Z"/><path class="cls-1" d="M43.39,4.6,40,17.28H36.33L34.05,9l-2.22,8.26H28.2L24.77,4.6H28.2l1.95,8.73L32.5,4.6h3.27L38,13.33,40.05,4.6Z"/><path class="cls-1" d="M47.35,4.58V.8H63.92a51.49,51.49,0,0,1-3.72,9.33,62.57,62.57,0,0,1,5.92,9.81h-5A36.43,36.43,0,0,0,58.08,14c-2.19,3.93-5.21,5.89-9.43,6.17H45.77V16.33h1.44c3.49,0,5.28-.85,7-3.39a43.39,43.39,0,0,0,4-8.36Z"/><path class="cls-1" d="M68.36,8.14c2.74-1,3.74-2.88,4.18-8h4.17a22.71,22.71,0,0,1-.9,4.27H88.17V8.12h-5v4.25c0,4.57-2.87,7.54-7.22,7.59H69.74V16.4h4.89c2.79.06,4.21-1.29,4.3-4V8.12H74.28c-1.17,2.1-2.68,3.18-5.92,4.11Z"/><path class="cls-1" d="M97.34.35v9.94c.09,5.81-2.38,9.35-7,10V15.89c2.22-.66,2.94-1.9,3.07-5.23V.35Zm2.52,0h4V15.42c3.18-.17,3.59-.74,3.64-5.2V4.87h3.85v5.9c0,3.84-.46,5.56-1.85,6.89s-3.14,1.85-6.15,1.86H99.86Z"/><path class="cls-1" d="M121,0V6.11a90,90,0,0,1,10.66,3v4.22A95.1,95.1,0,0,0,121,10.22v10H116.8V0Z"/><path class="cls-1" d="M155.17,2.38V9.27c0,4-1.08,6.51-3.48,8.29-2,1.56-4.56,2.15-9.43,2.2h-6.35v-4h6.42c2.74,0,4.95-.37,6-1a5.14,5.14,0,0,0,2.73-4.7V2.38ZM136.1.48c4.08,1.05,8.46,2.36,10.5,3.14V7.73c-3.55-1.21-7.52-2.43-10.5-3.2Z"/><path class="cls-1" d="M0,41.52a4,4,0,0,0,3.87-2l3.72-5.73H.32V30.2h11V26.14h4.12V30.2h4.43v3.55H15.49V46H11.37V35.35l-4,6.12C5.57,44.4,3.75,45.4,0,45.57Z"/><path class="cls-1" d="M42,34v3.88H23.17V34Z"/><path class="cls-1" d="M45.38,33.91c2.21-.48,3.4-2.63,3.62-6.59H60.47V29h4.28V34.5c0,5.19-.61,7.09-2.75,9.1-1.9,1.64-3.37,2-7.88,2.06H46.23V41.93h7.36c3.14,0,4.29-.21,5.09-.78a3.61,3.61,0,0,0,1.6-2.76h-9.1V34.77h9.47v-4H52.42c-.82,4.2-3.37,6.76-7,7.1ZM63.31,24.8v3.53H61.18V24.8Zm2.91,0v3.55H64V24.78Z"/><path class="cls-1" d="M87.33,34v3.88H68.56V34Z"/><path class="cls-1" d="M89.83,41.42c1.74-.11,2.49-1.25,3.19-4.91l1.6-9.94h4.17L97,37c-.51,3.22-1.2,5.19-2.25,6.51a7.46,7.46,0,0,1-5,2.43Zm16.54-14.85a122,122,0,0,1,4.3,19h-4.5a100.76,100.76,0,0,0-4.1-19Z"/><path class="cls-1" d="M114.42,29.15h7.11V26h4.17v3.2h7.22v7.57c0,3.68-.78,5.73-2.68,7.2-1.69,1.32-3.4,1.74-7.52,1.82h-7.58V42h7.58c4.73,0,6-1.08,6.1-5.23V32.81H118.36v4.43h-3.94Z"/><path class="cls-1" d="M137.23,30.39V26.61H153.8a50.81,50.81,0,0,1-3.71,9.32A63.72,63.72,0,0,1,156,45.74h-5A37.27,37.27,0,0,0,148,39.82c-2.18,3.94-5.21,5.91-9.42,6.18h-2.89V42.14h1.44c3.49,0,5.27-.85,7-3.39a43.39,43.39,0,0,0,4-8.36Z"/></svg>