<?xml version="1.0" encoding="UTF-8"?><svg id="_レイヤー_1" xmlns="http://www.w3.org/2000/svg" viewBox="0 0 368.582 172.997"><defs><style>.cls-1{fill:#ff64a5;}.cls-2{fill:#4c4345;}.cls-3{fill:#ecff00;}.cls-4{fill:none;stroke:#ff64a5;stroke-miterlimit:10;stroke-width:2.01px;}</style></defs><path class="cls-1" d="M292.296,155.272c.72-5.65,1.29-8.21,2.62-11.16l2.9,1.29c-.982,2.076-1.634,4.293-1.93,6.57,2.052-1.552,4.529-2.442,7.1-2.55,4,0,6.47,2.61,6.47,6.34,0,7.64-9.71,7.92-13.42,8l-1.24-3.19c.58,0,1.44.09,2.39.09,1.43,0,9.05-.14,9.05-5,.062-1.827-1.368-3.359-3.195-3.421-.085-.003-.17-.003-.255.001-1.676.107-3.293.663-4.68,1.61-1.243.801-2.333,1.817-3.22,3l-2.59-1.58h0ZM303.076,145.832c-2.09-1.607-4.465-2.805-7-3.53l1.21-2.87c2.625.766,5.109,1.948,7.36,3.5l-1.57,2.9h0Z"/><polyline class="cls-4" points="318.276 152.002 341.136 152.002 332.826 146.042"/><path class="cls-2" d="M92.898,12.53c-1.218,0-1.885.029-2.64.116v-3.104c.725.116,1.334.145,2.698.145h.696c-.406-1.624-.696-2.379-1.276-3.423l2.552-.638h-1.363c-1.276,0-1.943.029-2.727.116v-3.104c.725.116,1.393.145,2.785.145h2.205v-.435c0-.986-.029-1.392-.145-2.117h3.51c-.116.696-.145,1.073-.145,2.117v.435h1.973c1.363,0,1.943-.029,2.698-.145v3.104c-.783-.087-1.479-.116-2.727-.116h-1.189l2.465.696c-.116.251-.261.59-.435,1.015-.116.193-.28.551-.493,1.073-.203.493-.319.696-.638,1.276h.58c1.306,0,1.915-.029,2.669-.145v3.104c-.812-.087-1.421-.116-2.669-.116h-2.349v2.06h2.233c1.247,0,1.885-.029,2.64-.145v3.046c-.754-.087-1.421-.116-2.64-.116h-1.073c.87,1.015,1.595,1.624,2.988,2.553-.638,1.073-.958,1.682-1.393,2.756-1.45-1.305-1.915-1.798-2.843-3.133.019.251.039.628.058,1.131,0,.087.029.986.029,1.131v2.901c0,1.015.058,1.711.174,2.408h-3.336c.087-.667.145-1.363.145-2.292v-2.901c0-.551.029-1.305.087-1.973-1.189,2.234-2.524,3.742-4.787,5.366-.406-1.189-.812-2.001-1.479-2.959,2.205-1.363,3.829-2.959,5.076-4.989h-1.886c-1.247,0-1.856.029-2.64.145v-3.075c.754.116,1.334.145,2.698.145h2.93v-2.06h-3.017v.002ZM95.132,5.626c.638,1.247.871,1.856,1.248,3.365l-2.582.696h3.974c.812-1.508,1.189-2.437,1.625-4.061h-4.265ZM114.509,9.136c1.276,0,2.001-.058,2.64-.174v3.22c-.725-.087-1.189-.116-2.321-.116h-.725v11.69c0,1.74.029,2.552.174,3.423h-3.394c.145-.899.174-1.74.174-3.423v-11.69h-3.104c-.029,3.684-.377,6.73-1.073,9.369-.58,2.262-1.479,4.293-2.582,5.83-1.161-.957-1.653-1.276-2.872-1.914,2.756-3.365,3.481-7.165,3.481-18.158,0-2.437-.029-3.365-.174-4.525,3.278-.087,8.296-1.363,9.775-2.466l2.378,2.814c-.319.087-.435.145-.957.319-2.321.87-4.148,1.305-7.948,1.972v3.829h6.528Z"/><path class="cls-2" d="M139.535,7.425c.928,0,1.653-.029,2.292-.116-.087.754-.116,1.479-.116,2.669v2.959c0,.464.087.522.667.522.551,0,.696-.058.812-.29.087-.261.203-1.392.203-2.407l-.029-.319c0-.155.01-.3.029-.435.899.493,1.595.812,2.495,1.073-.116,4.38-.551,4.989-3.539,4.989-1.392,0-2.117-.087-2.61-.348-.609-.319-.783-.725-.783-1.74v-4.032h-4.38c-.029.783-.029,1.073-.116,1.624l1.683-1.189c1.189,1.421,1.682,2.06,2.552,3.394l-2.06,1.537c-.812-1.537-1.392-2.379-2.262-3.336-.348,1.595-.841,2.552-1.973,3.742h1.566c-.087.551-.116.928-.116,1.798h8.296c1.508,0,2.523-.058,3.48-.174v2.988c-1.015-.116-2.088-.174-3.48-.174h-5.744c2.756,1.856,5.772,2.988,9.775,3.684-.87,1.218-1.131,1.711-1.683,3.075-4.728-1.363-8.093-3.133-10.732-5.627.029.406.058,1.044.087,1.856v1.421c0,1.334.029,1.943.174,2.611h-3.51c.145-.783.174-1.421.174-2.611v-1.392c0-.435,0-.725.087-1.856-1.508,1.392-2.755,2.263-4.699,3.278-1.828.957-3.133,1.45-5.627,2.205-.58-1.334-.87-1.798-1.77-2.959,3.974-.783,6.643-1.798,9.659-3.684h-5.337c-1.392,0-2.407.058-3.452.174v-2.988c.783.116,2.001.174,3.423.174h7.716v-.667c-.435-.609-1.276-1.363-2.088-1.972.783-.406,1.102-.609,1.595-1.015-1.74.609-2.698.899-4.902,1.45-1.364.348-2.146.522-3.597.812-.657.135-1.17.242-1.537.319l-.638-2.901c1.363-.058,2.32-.203,4.554-.58v-2.698h-1.218c-1.16,0-1.624.029-2.378.116v-2.727c.406.058.522.058.812.087-.581-.609-.754-.754-2.205-1.74,2.437-1.973,3.684-3.626,4.438-5.975l3.133.58c-.058.058-.348.609-.899,1.653h3.742c1.393,0,2.147-.029,2.843-.174v2.349c1.131-1.305,2.001-3.017,2.321-4.438l3.075.58c-.116.203-.377.783-.783,1.711h5.598c1.538,0,2.205-.029,3.162-.174v2.959c-.899-.116-1.741-.145-3.017-.145h-2.146c.348.493.377.551.986,1.566l-2.263.928h.261-.001ZM130.281,13.777c1.189-1.073,1.596-2.349,1.596-4.786,0-.725-.029-1.16-.087-1.653.435.058.638.058,1.392.087-.522-.58-1.334-1.247-2.118-1.769.377-.319.522-.464.754-.667-.522-.058-1.073-.087-1.625-.087h-1.595c.435.696.58.928,1.073,1.856l-2.785.754c-.377-1.015-.551-1.392-1.276-2.611h-1.479c-.899,1.218-1.508,1.943-2.465,2.843.493.029.638.029,1.189.029h5.164c1.363,0,1.682-.029,2.378-.116v2.727c-.725-.087-1.276-.116-2.146-.116h-1.305v2.117c1.247-.29,1.74-.406,3.19-.841l.145,2.234h0ZM134.023,7.425h4.728c-.29-.725-.638-1.45-1.276-2.495h-1.972c-.667.957-1.248,1.653-2.06,2.495h.58Z"/><path class="cls-2" d="M174.568,15.112c-1.334-.145-2.669-.203-4.409-.203h-17.172c-1.624,0-3.133.087-4.438.203v-3.829c1.248.145,2.553.203,4.438.203h17.172c1.943,0,3.278-.058,4.409-.203,0,0,0,3.829,0,3.829Z"/><path class="cls-2" d="M183.669,17.287c-.435,4.206-1.566,7.107-4.003,10.123-.261-.261-.464-.435-.58-.551-.928-.899-.986-.928-2.234-1.827,1.276-1.537,1.944-2.611,2.495-4.09.87-2.263,1.276-5.511,1.276-10.443,0-1.566-.029-2.495-.145-3.51.928.058,1.683.087,3.046.087h15.025c1.219,0,1.857-.029,2.67-.087-.088.754-.117,1.392-.117,2.698v6.498c0,1.45.029,2.147.146,2.93h-3.452v-1.828h-14.127ZM203.278,4.611c-.928-.116-1.799-.145-3.365-.145h-18.419c-1.479,0-2.35.029-3.365.145V1.42c1.044.145,1.856.174,3.365.174h18.419c1.538,0,2.35-.029,3.365-.174v3.191ZM197.795,14.386v-4.409h-13.865v2.117c0,.435,0,.841-.029,1.218-.029.377-.029.609-.058.667,0,.203,0,.232-.029.406h13.981Z"/><path class="cls-2" d="M213.278,9.803c1.307,0,1.538,0,2.09-.087-.059.522-.088.754-.146,1.276-.319,4.032-.929,6.498-2.233,9.282,1.016.986,1.973,1.653,3.104,2.118,1.305.551,2.582.783,5.135.957.754.058,1.769.087,2.204.087,3.538,0,7.136-.145,9.892-.377-.494,1.305-.58,1.682-.783,3.22-2.727.058-5.512.087-8.674.087-6.381,0-9.369-.899-12.27-3.655-1.276,1.914-2.06,2.843-3.713,4.322-.609-1.044-1.103-1.682-2.06-2.669,1.798-1.537,2.669-2.466,3.741-4.09-.521-.754-.898-1.421-1.392-2.407-.058-.116-.319-.58-.667-1.305-.146-.261-.348-.725-.639-1.276l2.582-1.363c.609,1.798.898,2.524,1.537,3.655.668-1.653.957-2.756,1.276-5.047h-2.755c-.812,0-1.654.029-2.35.087,1.199-1.953,2.03-3.375,2.494-4.264,1.073-2.03,1.305-2.582,1.827-4.003h-2.9c-.783,0-1.276.029-1.973.145V1.42c.667.116,1.218.145,2.06.145h3.074c1.103,0,1.596-.029,2.089-.116l1.393,1.885c-.232.319-.261.377-.726,1.479-.58,1.363-1.885,3.887-2.553,4.989h1.336ZM221.69,4.408h-3.393c-.783,0-1.451.029-2.061.116V1.943c.726.087,1.219.116,2.234.116h3.219c0-.928-.028-1.247-.145-1.915h3.191c-.088.551-.146.928-.146,1.915h4.265c.898,0,1.565-.029,2.203-.087-.057.551-.086,1.102-.086,1.828v2.117c.928,0,1.421-.029,2.059-.174v2.698c-.638-.116-1.131-.145-2.059-.145v2.205c0,.667.029,1.305.086,1.74-.754-.029-1.275-.058-2.029-.058h-4.438v1.653h4.496c1.015,0,1.624-.029,2.437-.116v2.524c-.696-.087-1.422-.116-2.466-.116h-4.467v1.711h5.511c1.219,0,1.857-.029,2.582-.145v2.727c-.696-.087-1.508-.116-2.582-.116h-5.511c0,1.305.028,1.74.146,2.437h-3.191c.116-.754.145-1.305.145-2.437h-4.176c-1.219,0-1.77.029-2.495.116v-2.727c.667.116,1.45.145,2.523.145h4.147v-1.711h-3.451c-.87,0-1.596.029-2.32.145v-2.553c.754.087,1.363.116,2.32.116h3.451v-1.653h-3.538c-.783,0-1.218.029-1.856.087v-2.524c.609.087,1.044.116,2.03.116h3.364v-1.566h-4.467c-1.247,0-1.77.029-2.494.116v-2.64c.725.116,1.131.145,2.61.145h4.351v-1.508h.001ZM228.129,5.916v-1.508h-3.538v1.508h3.538ZM224.591,9.861h3.538v-1.566h-3.538v1.566Z"/><path class="cls-2" d="M236.333,4.553c.638.029.957.029,1.102.029.348,0,1.944-.097,4.787-.29,1.623-.087,6.439-.348,14.474-.725,2.379-.116,2.813-.145,3.336-.29l.203,3.713c-.213-.019-.416-.029-.609-.029-1.74,0-3.887.58-5.743,1.566-3.684,1.915-5.859,4.815-5.859,7.745,0,2.263,1.422,4.003,3.857,4.728,1.422.435,3.278.754,4.322.754.029,0,.29,0,.58-.029l-.521,3.945c-.349-.087-.494-.116-.986-.174-3.191-.406-5.019-.928-6.788-1.914-2.669-1.508-4.147-3.974-4.147-6.991,0-2.466.986-4.902,2.756-6.846,1.102-1.189,2.146-1.943,4.031-2.901-2.35.348-3.48.435-9.775.899-1.943.145-3.684.348-4.814.58l-.203-3.771h-.003Z"/><rect class="cls-3" y="105.046" width="368.582" height="19.432"/><path class="cls-2" d="M255.06,96.292c-1.168,7.803-2.851,14.858-11.774,21.539l-4.625-3.084c5.093-4.065,8.55-7.195,10.652-14.344,1.168-4.018,1.215-8.223,1.354-15.652h-12.101v-4.672h40.274v4.672h-22.987c0,3.317,0,4.439-.14,6.868h18.268c-.14,4.485-.98,15.325-2.709,20.745-1.776,5.7-6.401,5.7-11.588,5.7l-1.495-6.074c.935.14,2.477.374,4.532.374,2.43,0,3.831-.748,4.812-6.868.187-1.215.654-4.532.981-9.204h-13.456.002Z"/><path class="cls-2" d="M310.332,113.112c4.578.047,4.812-.234,4.812-2.43v-9.157h-25.23v16.913h-4.952v-38.78h35.135v33.266c0,4.299-1.215,5.14-7.709,5.513l-2.056-5.326h0ZM299.958,84.471h-10.045v12.241h10.045v-12.241ZM315.144,84.471h-10.279v12.241h10.279v-12.241Z"/><path class="cls-2" d="M327.478,98.067c2.103-2.103,5.187-5.139,9.858-5.139,3.364,0,7.71,2.102,9.438,2.99,1.542.748,5.279,2.616,7.85,2.616,3.316,0,5.56-2.289,7.102-3.878l3.69,3.691c-2.99,3.271-6.214,5.233-10.466,5.233-3.224,0-6.868-1.495-10.278-3.224-1.215-.654-4.485-2.336-6.588-2.336-3.178,0-5.14,2.009-6.868,3.785l-3.738-3.738h0Z"/><path class="cls-1" d="M252.196,161.422c-2.44.23-5.69.54-9.16.54-5.92,0-9.26-1-9.26-4.42,0-2.35,1.67-4.1,2.76-5.22l2.24,2c-1.2,1.07-1.83,2-1.83,2.79,0,1,.8,1.81,6.09,1.81,2.989.081,5.976-.238,8.88-.95l.28,3.45h0ZM250.676,144.112c-2.49,1.33-4.773,3.015-6.78,5l-2.13-2.27c.857-.549,1.648-1.193,2.36-1.92-4.54,0-4.6,0-8.08-.09l-.46-3.42c2.423.398,4.875.592,7.33.58,2.139.018,4.275-.166,6.38-.55l1.38,2.67Z"/><path class="cls-1" d="M271.926,139.632c.49.17,1,.34,1,.63.011.102-.035.202-.12.26-.165.144-.346.268-.54.37-.06.09-1,3.07-1.12,3.53,2.551-.282,5.059-.869,7.47-1.75v3.13c-2.761.725-5.577,1.224-8.42,1.49-.35,1.18-.92,3.13-1.61,5.23,3.39-2,5.14-2,6.15-2,2.58,0,6.32,1.46,6.32,5.77-.018,2.355-1.231,4.539-3.22,5.8-1.55,1-3.85,1.75-7.84,1.75-1.84,0-3-.15-3.8-.2l-.8-3.28c1.412.336,2.859.501,4.31.49,1.64,0,8.3,0,8.3-4.65,0-2-1.58-3-3.36-3-3.65,0-5.83,2.09-7.64,3.84l-2.65-2.09c1.206-2.371,2.151-4.865,2.82-7.44-1.595.11-3.198.016-4.77-.28l-.26-3.07c1.902.384,3.84.555,5.78.51.528-1.965.883-3.973,1.06-6l2.94.96h0Z"/><line class="cls-4" x1="227.836" y1="171.992" x2="350.196" y2="171.992"/><path class="cls-2" d="M28.027,152.559c-.624.26-1.239.503-1.846.728v7.54c0,1.326-.338,1.924-1.248,2.236-.572.182-1.456.312-2.34.312-.364,0-.65,0-1.326-.052-.13-1.144-.234-1.638-.598-2.73.806.104,1.326.156,1.924.156.676,0,.832-.156.832-.78v-5.694c-.754.26-.806.286-1.456.494-.39.13-.702.26-1.092.416l-.572-2.886c.78-.078,1.352-.234,3.12-.754v-4.68h-1.014c-.676,0-1.248.026-1.872.104v-2.782c.624.104,1.144.156,1.924.156h.962v-2.132c0-1.222-.026-1.846-.156-2.652h3.068c-.13.806-.156,1.43-.156,2.626v2.158h.832c.494,0,.806-.026,1.144-.052v-2.132c0-.728-.026-1.248-.078-1.794.65.078,1.3.104,2.496.104h10.816c1.248,0,1.898-.026,2.548-.104-.052.52-.078.91-.078,1.742v1.352c0,.806.026,1.248.104,1.768h-2.756v-2.262h-2.21v3.926c0,.468.182.546,1.353.546,1.716,0,1.768-.052,1.846-1.794.884.338,1.248.442,2.184.572-.26,3.198-.754,3.588-4.42,3.588-1.56,0-2.236-.104-2.834-.39-.078.39-.104.832-.104,1.456v1.092h4.524c1.066,0,1.846-.052,2.652-.156v2.834c-.91-.104-1.664-.13-2.6-.13h-3.146c.728.962,1.794,2.028,2.886,2.86,1.066.832,2.132,1.43,3.562,2.028-.546.806-.832,1.378-1.378,2.704-2.782-1.482-4.654-3.146-6.552-5.824,0,.364.026.65.026.832.026.624.026.754.026,1.43v2.782c0,.884.052,1.456.156,2.158h-3.016c.104-.78.156-1.404.156-2.21v-2.938c0-.572.026-1.586.052-2.028-1.586,2.444-3.432,4.16-6.24,5.798-.598-1.118-.936-1.586-1.69-2.366,2.626-1.196,4.992-3.094,6.396-5.226h-2.184c-1.144,0-1.872.026-2.626.13v-2.08h-.001ZM28.495,151.883c.65.052,1.3.078,2.288.078h3.536v-.676c0-.91-.052-1.456-.156-2.054h2.73c-.286-.286-.364-.598-.364-1.222v-5.044h-1.43c-.078,1.508-.13,1.872-.312,2.626-.624,2.262-2.21,3.926-5.018,5.174-.546-.91-.91-1.378-1.664-2.106,1.716-.52,2.886-1.274,3.614-2.262.65-.858.91-1.846.962-3.432h-2.002v2.574h-2.21v1.404c-.468-.052-.858-.078-1.43-.078h-.858v3.822c.858-.312,1.144-.416,2.236-.858l.078,2.054h0Z"/><path class="cls-2" d="M67.989,161.373c-.191.017-.581.061-1.17.13-1.898.208-5.33.39-7.046.39-4.862,0-6.968-.936-7.748-3.432-.364-1.17-.468-2.626-.468-7.098,0-.39,0-.494.026-2.522-2.427.173-4.031.329-4.811.468l-.208-3.042c.364.026.624.026.754.026.234,0,1.664-.078,4.238-.234.026-.416.026-.65.026-.806,0-2.756-.026-3.484-.182-4.42h3.484c-.104.641-.182,2.331-.234,5.07,2.427-.121,4.931-.243,7.514-.364,0-2.756-.052-4.472-.156-5.148h3.25c-.104.832-.13,1.144-.13,1.794v3.25c2.791-.087,4.472-.165,5.044-.234l.052,3.094c-.598-.078-.832-.078-1.482-.078-.91,0-2.392.026-3.614.026-.026,2.626-.26,4.576-.676,5.512-.572,1.3-1.638,1.95-3.172,1.95-1.222,0-2.366-.26-3.718-.884.026-.52.026-.676.026-1.04,0-.702-.052-1.196-.182-2.132,1.404.806,2.626,1.274,3.406,1.274.676,0,.962-.338,1.118-1.352.13-.754.208-1.794.234-3.25-2.635.104-5.157.225-7.566.364v.702c0,.087-.009.589-.026,1.508v.546c0,1.352.078,4.186.13,4.706.208,2.184,1.326,2.73,5.564,2.73,3.38,0,5.824-.312,7.514-.988l.208,3.484h0Z"/><path class="cls-2" d="M81.795,150.557c2.366-.936,3.51-1.196,5.46-1.196,4.446,0,7.307,2.288,7.307,5.85,0,2.47-1.222,4.446-3.536,5.746-1.69.962-3.9,1.482-6.292,1.482-2.184,0-4.004-.416-5.044-1.196-.988-.728-1.56-1.82-1.56-2.99,0-2.158,1.872-3.718,4.472-3.718,1.82,0,3.406.754,4.498,2.132.52.65.806,1.222,1.196,2.34,2.158-.806,3.094-1.924,3.094-3.77,0-2.028-2.002-3.354-5.148-3.354-3.796,0-7.592,1.534-10.712,4.368l-1.768-2.808c.91-.442,1.95-1.144,3.666-2.444,2.418-1.846,5.798-4.758,7.774-6.76l.468-.468-.026-.026c-.988.13-2.652.234-7.358.442-.572.026-.754.052-1.248.13l-.13-3.12c.884.104,1.638.156,3.068.156,2.21,0,5.382-.13,7.904-.312.91-.078,1.196-.13,1.612-.338l1.612,2.288c-.442.234-.624.39-1.353,1.066-1.3,1.196-3.198,2.886-4.082,3.64-.468.39-2.34,1.794-2.86,2.132-.433.295-.789.52-1.066.676,0,0,.052.052.052.052ZM82.575,157.031c-.937,0-1.534.468-1.534,1.196,0,1.04,1.17,1.638,3.094,1.638.494,0,.624,0,1.353-.104-.468-1.794-1.456-2.73-2.912-2.73h0Z"/><path class="cls-2" d="M119.885,143.224c1.092,0,1.69-.026,2.158-.104-.069.537-.121,1.629-.156,3.276-.182,8.84-.521,12.766-1.222,14.561-.598,1.56-1.716,2.158-4.004,2.158-.572,0-1.222-.052-2.496-.156,0-1.092-.208-1.95-.676-2.938,1.326.286,2.366.416,3.224.416,1.04,0,1.43-.546,1.716-2.392.442-2.808.676-7.046.754-12.298h-.312c-.728,4.264-1.534,6.89-2.782,9.412-1.56,3.146-3.38,5.304-6.76,7.982-.598-.936-1.04-1.378-2.184-2.132,3.198-2.106,5.174-4.264,6.76-7.384,1.196-2.418,1.924-4.732,2.496-7.878h-1.066c-1.3,5.096-3.432,8.58-6.968,11.388-.494-.962-.962-1.508-1.924-2.262,1.43-.884,2.106-1.482,3.068-2.626,1.586-1.898,2.574-3.822,3.328-6.5h-1.222c-.884,1.846-1.82,3.25-3.094,4.576-.806-.988-1.3-1.43-2.158-1.976.624-.572.884-.832,1.248-1.248-.52-.052-.858-.052-1.456-.052h-.624v4.862c.91-.312,1.3-.442,2.444-.962l.026,2.6c-1.222.52-1.586.676-2.47,1.04v5.902c0,1.092.052,2.002.156,2.99h-3.068c.13-.91.182-1.846.182-2.99v-4.914c-1.066.39-1.846.65-2.34.806-.702.234-.858.312-1.378.546l-.598-3.094c1.196-.078,1.82-.234,4.316-1.014v-5.772h-1.3c-.234,1.456-.468,2.444-.988,4.212-.858-.702-1.378-.988-2.366-1.404.494-1.17.676-1.898.988-3.614.208-1.3.338-2.6.338-3.666,0-.39,0-.624-.052-1.092l2.6.286c-.104,1.56-.13,1.69-.208,2.652h.988v-2.938c0-.806-.052-1.404-.182-2.132h3.068c-.104.676-.156,1.274-.156,2.132v2.938h.624c.832,0,1.248-.026,1.69-.13v2.496c.754-1.04,1.353-2.158,1.846-3.406.65-1.612,1.04-2.938,1.144-4.004l3.016.52c-.139.364-.416,1.153-.832,2.366-.078.234-.182.52-.338.962h7.202,0Z"/><path class="cls-2" d="M127.269,152.949c0-.884.026-1.716.078-2.86-.65,1.17-1.222,1.976-2.184,3.016-.442-1.69-.65-2.314-1.17-3.198,1.976-2.184,3.38-4.498,4.472-7.384.52-1.404.78-2.34.936-3.38l2.938.832c-.13.39-.182.52-.416,1.17-.65,1.976-.884,2.548-1.82,4.55v14.743c0,1.17.052,2.028.13,3.016h-3.12c.13-1.066.156-1.794.156-3.042v-7.462h0ZM138.709,142.392c0-1.196-.052-1.872-.182-2.73h3.224c-.156.858-.182,1.482-.182,2.756v2.392h3.25c1.326,0,2.08-.052,2.808-.156v2.964c-1.17-.104-1.95-.156-2.782-.156h-3.276v4.862h4.056c1.248,0,2.08-.052,2.912-.156v2.99c-.884-.104-1.794-.156-2.86-.156h-4.108v5.408c0,1.404.026,2.054.182,2.99h-3.224c.13-.936.182-1.664.182-2.99v-5.408h-4.446c-1.196,0-2.132.052-2.912.156v-2.99c.754.104,1.664.156,2.912.156h4.446v-4.862h-3.588c-.65,1.534-1.118,2.34-2.106,3.796-.728-.78-.858-.884-2.314-1.872,1.196-1.638,2.054-3.276,2.808-5.356.442-1.274.702-2.262.806-3.302l2.86.728c-.182.598-.234.754-.468,1.56-.26.806-.364,1.144-.572,1.794h2.574v-2.418Z"/><path class="cls-2" d="M150.148,151.311c.65-2.288.832-3.9.858-6.864l2.054.468c-.052,2.834-.286,4.992-.832,7.254l-2.08-.858ZM156.311,160.229c0,1.352.052,2.262.156,3.224h-3.042c.13-.884.182-2.054.182-3.302v-17.993c0-1.144-.052-1.872-.182-2.782h3.042c-.13.91-.156,1.56-.156,2.782v2.158l1.534-.598c.65,1.3.702,1.456,1.326,3.38l-.702.312c.65.052,1.17.078,2.184.078h3.848v-1.04h-2.964c-1.014,0-1.456.026-2.184.104v-2.314c.676.078,1.144.104,2.21.104h2.938v-.962h-3.354c-1.378,0-1.872.026-2.574.13v-2.496c.754.13,1.3.156,2.704.156h3.224c0-.78-.026-1.17-.156-1.768h2.99c-.13.624-.156.962-.156,1.768h3.978c1.43,0,1.95-.026,2.704-.156v2.496c-.754-.104-1.404-.13-2.652-.13h-4.03v.962h3.666c1.118,0,1.534-.026,2.158-.104v2.314c-.624-.078-1.144-.104-2.21-.104h-3.614v1.04h4.55c1.248,0,1.872-.026,2.574-.13v2.548c-.78-.104-1.508-.156-2.574-.156h-11.077c-1.274,0-1.898.026-2.626.156v-2.288l-.806.364c-.26-1.092-.52-1.898-.91-2.886v15.133h.001ZM161.953,160.437c0,1.274.052,2.184.156,2.964h-2.99c.104-.858.13-1.456.13-2.964v-7.488c0-.988-.026-1.482-.078-2.21.624.052,1.17.078,2.08.078h9.152c1.144,0,1.794-.026,2.34-.104-.078.624-.104,1.404-.104,2.678v7.332c0,1.976-.702,2.496-3.328,2.496-.572,0-1.066-.026-2.34-.104-.156-1.118-.26-1.56-.598-2.496,1.066.156,1.898.234,2.548.234.832,0,.988-.104.988-.624v-.884h-7.956v1.092h0ZM169.909,154.041v-1.066h-7.956v1.066h7.956ZM169.909,157.213v-1.066h-7.956v1.066h7.956Z"/><path class="cls-2" d="M185.924,146.344c1.093,0,1.561-.026,2.263-.13v2.756c-.494-.078-.832-.078-1.456-.104-.286,1.248-.416,1.742-.858,2.886h.312c.936,0,1.43-.026,2.002-.13v2.756c-.702-.078-1.248-.104-2.263-.104h-2.027v2.08h1.768c.988,0,1.508-.026,2.158-.104v2.73c-.676-.078-1.196-.104-2.158-.104h-1.768v1.898c0,.858.052,1.82.13,2.652h-2.86c.104-.858.156-1.638.156-2.652v-1.898h-1.872c-.988,0-1.43.026-2.158.104v-2.73c.65.078,1.17.104,2.158.104h1.872v-2.08h-2.314c-.988,0-1.534.026-2.262.104v-2.756c.65.104,1.066.13,2.262.13h.286c-.156-1.04-.312-1.742-.676-2.886-.858,0-1.274.026-1.872.104v-2.756c.676.104,1.222.13,2.262.13h2.34v-2.002h-1.768c-.936,0-1.456.026-2.158.104v-2.704c.624.078,1.118.104,2.158.104h1.768v-.468c0-.728-.052-1.612-.156-1.976h2.808c-.078.598-.104,1.144-.104,1.976v.468h1.533c1.04,0,1.534-.026,2.158-.104v2.704c-.676-.078-1.248-.104-2.158-.104h-1.533v2.002h2.027ZM183.429,151.753c.338-.884.572-1.794.78-2.886h-3.12c.364,1.248.468,1.742.65,2.886h1.69ZM199.914,149.907c-.131.338-.183.494-.312,1.144-.546,2.392-1.326,4.706-2.21,6.448,1.014,1.248,1.872,1.95,3.588,3.016-.806,1.248-1.065,1.742-1.508,2.756-1.508-1.196-2.393-2.028-3.536-3.38-.91,1.274-1.769,2.21-3.094,3.354-.494-.91-.858-1.456-1.456-2.262.025,1.04.077,1.56.182,2.444h-2.964c.155-1.092.182-1.742.182-3.094v-17.395c0-.936-.052-1.95-.13-2.652.754.104,1.482.13,2.444.13h6.396c1.171,0,1.977-.052,2.419-.13-.078.754-.105,1.066-.131,1.69-.312,4.784-.676,5.33-3.536,5.33-.701,0-1.17-.026-2.34-.13-.156-1.144-.26-1.612-.572-2.444,1.04.182,2.106.312,2.679.312.806,0,.936-.26,1.04-2.184h-5.668v5.694h4.888c1.248,0,1.924-.026,2.47-.104l1.171,1.456h-.002ZM191.385,160.619c1.195-.936,2.054-1.82,2.886-3.016-1.118-1.846-1.638-3.224-2.47-6.578h-.416v9.594h0ZM194.167,151.025c.442,1.794.832,2.834,1.561,4.134.546-1.222.884-2.262,1.274-4.134h-2.835Z"/><path class="cls-2" d="M204.982,162.257c-.025-.26-.025-.416-.13-1.014-.494-3.042-.702-5.538-.702-8.268,0-2.34.156-4.628.494-6.89.087-.52.321-1.759.702-3.718.183-.91.286-1.664.286-1.924v-.104l3.51.364c-1.065,2.262-2.054,8.528-2.08,13.052-.017.624-.025,1.075-.025,1.352v.416c0,.208,0,.26-.026.546h.026c.087-.191.191-.442.312-.754.053-.182.183-.468.312-.884.155-.364.32-.754.494-1.17.052-.078.078-.156.312-.806l2.158.962c-1.534,3.016-2.574,6.24-2.574,7.956,0,.182,0,.208.052.702l-3.12.182h0ZM210.859,145.226c1.222.312,2.574.416,4.706.416.91,0,1.481,0,2.392-.052,0-1.534-.025-2.834-.025-3.9,0-.572-.026-.962-.078-1.248l3.25-.078c-.13.728-.183,1.976-.183,3.822v1.196c1.353-.156,2.496-.364,3.511-.624.103-.035.294-.104.571-.208l.209-.052.104,2.938c-.26.026-.286.026-.754.13-.884.182-2.236.416-3.614.572v.572c0,1.456,0,1.508.26,5.876,1.872.884,2.522,1.248,4.082,2.366.339.234.469.312.729.442l-1.248,3.146c-.442-.52-1.222-1.196-1.95-1.664-.884-.572-1.482-.962-1.638-1.066v.364c0,.572-.078,1.092-.208,1.456-.599,1.534-2.418,2.444-4.94,2.444-3.406,0-5.486-1.612-5.486-4.264,0-2.522,2.21-4.29,5.356-4.29.962,0,1.612.104,2.314.364-.078-.65-.104-1.924-.208-5.538-1.04.026-1.664.052-2.341.052-.962,0-2.002-.026-3.224-.13-.364,0-.65-.026-.78-.026-.234-.026-.39-.026-.442-.026-.13-.026-.208-.026-.26-.026-.025,0-.078,0-.156.026l.053-2.99h-.002ZM216.137,156.121c-1.664,0-2.704.65-2.704,1.716,0,.962.936,1.612,2.392,1.612.962,0,1.716-.286,2.106-.806.233-.312.338-.702.338-1.404v-.702c-.858-.312-1.353-.416-2.132-.416Z"/><path class="cls-2" d="M13.961,107.378l26.148-35.804c2.438-3.402,3.633-6.373,3.633-10.369,0-6.912-3.537-11.611-9.847-11.611-3.872,0-7.266,1.728-8.939,5.562-.765,1.728-1.195,3.834-1.195,6.211h-9.752c0-6.265,2.056-11.611,5.354-15.391,3.585-3.996,8.605-6.265,14.532-6.265,5.975,0,10.899,2.214,14.436,6.156,3.298,3.78,5.163,8.965,5.163,15.337,0,7.128-2.438,11.503-6.358,16.741l-21.367,29.432h27.725v9.883H13.961v-9.883Z"/><path class="cls-2" d="M66.31,97.526h11.042v19.009l-11.042,10.261v-29.27Z"/><path class="cls-2" d="M115.693,105.758h-27.487v-10.261l23.901-55.138h10.612l-23.948,55.138h16.922v-17.983h9.417v17.983h7.267v10.261h-7.267v11.503h-9.417v-11.503Z"/><path class="cls-2" d="M145.718,111.267c-3.394-3.834-5.449-9.18-5.449-15.607,0-3.726.716-6.75,1.864-9.342,1.768-4.05,4.684-6.859,7.552-8.802-2.581-1.837-4.972-4.267-6.597-7.885-1.052-2.484-1.721-5.292-1.721-8.695,0-5.995,2.008-11.179,5.306-14.851,3.633-4.104,8.795-6.373,14.58-6.373s10.947,2.268,14.58,6.373c3.299,3.672,5.306,8.856,5.306,14.851,0,3.402-.669,6.211-1.769,8.695-1.577,3.618-3.967,6.048-6.548,7.885,2.868,1.944,5.784,4.752,7.553,8.802,1.147,2.592,1.816,5.616,1.816,9.342,0,6.427-2.008,11.773-5.401,15.607-3.873,4.32-9.369,6.643-15.536,6.643s-11.663-2.322-15.536-6.643ZM153.319,104.354c2.008,2.268,4.78,3.672,7.935,3.672s5.927-1.404,7.935-3.672c2.056-2.322,3.251-5.454,3.251-9.073,0-3.672-1.195-6.804-3.251-9.072-2.008-2.322-4.779-3.672-7.935-3.672s-5.927,1.35-7.935,3.672c-2.056,2.268-3.299,5.4-3.299,9.072,0,3.619,1.243,6.751,3.299,9.073ZM154.084,69.738c1.769,2.052,4.254,3.186,7.171,3.186s5.401-1.134,7.171-3.186c1.864-2.106,2.963-5.022,2.963-8.478s-1.099-6.373-2.963-8.479c-1.769-1.998-4.254-3.186-7.171-3.186s-5.401,1.188-7.171,3.186c-1.864,2.106-2.963,5.022-2.963,8.479s1.099,6.372,2.963,8.478Z"/><path class="cls-2" d="M197.972,111.699c-3.442-3.889-5.45-9.451-5.45-15.877v-34.022c0-6.426,2.008-11.989,5.45-15.877,3.585-3.996,8.557-6.21,14.245-6.21s10.66,2.214,14.245,6.21c3.442,3.889,5.45,9.451,5.45,15.877v34.022c0,6.426-2.008,11.989-5.45,15.877-3.585,3.996-8.556,6.21-14.245,6.21s-10.66-2.214-14.245-6.21ZM212.217,108.026c6.262,0,9.943-5.184,9.943-12.475v-33.483c0-7.29-3.681-12.475-9.943-12.475s-9.942,5.184-9.942,12.475v33.483c0,7.29,3.68,12.475,9.942,12.475Z"/></svg>