<svg xmlns="http://www.w3.org/2000/svg" viewBox="0 0 744.09 484.11"><defs><style>.cls-1{isolation:isolate;}.cls-10,.cls-2,.cls-5,.cls-6{fill:#231815;}.cls-21,.cls-23,.cls-29,.cls-3,.cls-34,.cls-7,.cls-9{fill:#fff;}.cls-10,.cls-11,.cls-12,.cls-13,.cls-14,.cls-15,.cls-16,.cls-19,.cls-20,.cls-21,.cls-23,.cls-24,.cls-25,.cls-29,.cls-3,.cls-30,.cls-33,.cls-34,.cls-35,.cls-36,.cls-5,.cls-6,.cls-8,.cls-9{stroke:#231815;}.cls-10,.cls-11,.cls-12,.cls-13,.cls-14,.cls-15,.cls-16,.cls-19,.cls-20,.cls-21,.cls-23,.cls-24,.cls-25,.cls-29,.cls-3,.cls-30,.cls-33,.cls-34,.cls-35,.cls-8,.cls-9{stroke-linecap:round;}.cls-10,.cls-11,.cls-12,.cls-13,.cls-14,.cls-15,.cls-16,.cls-19,.cls-20,.cls-21,.cls-23,.cls-24,.cls-25,.cls-29,.cls-3,.cls-30,.cls-33,.cls-34,.cls-35,.cls-36,.cls-8,.cls-9{stroke-linejoin:round;}.cls-3,.cls-8{stroke-width:1.9px;}.cls-14,.cls-4{fill:#ecff00;}.cls-5,.cls-6{stroke-miterlimit:10;}.cls-5{stroke-width:1.43px;}.cls-6{stroke-width:0.95px;}.cls-11,.cls-13,.cls-16,.cls-20,.cls-24,.cls-30,.cls-33,.cls-35,.cls-8{fill:none;}.cls-10,.cls-11,.cls-12,.cls-14,.cls-15,.cls-19,.cls-25,.cls-9{stroke-width:2.09px;}.cls-12{fill:#39d800;}.cls-13{stroke-width:1.91px;}.cls-15{fill:#ffb500;}.cls-16{stroke-width:1.04px;}.cls-17{fill:#bb0d23;}.cls-18{fill:#e1d9ff;}.cls-19{fill:#e1baff;}.cls-20{stroke-width:2.61px;}.cls-21{stroke-width:3.13px;}.cls-22{fill:#e5e7ac;}.cls-23,.cls-24{stroke-width:2.08px;}.cls-25,.cls-32{fill:#c8c9ca;}.cls-26{fill:#e5e6e6;}.cls-27{mix-blend-mode:multiply;}.cls-28{fill:#66ebd6;}.cls-29,.cls-30{stroke-width:2.13px;}.cls-31{fill:#a80092;}.cls-33,.cls-34{stroke-width:2.22px;}.cls-35{stroke-width:2.48px;}.cls-36{fill:#86c2ba;stroke-width:1.78px;}</style></defs><g class="cls-1"><g id="レイヤー_1" data-name="レイヤー 1"><path class="cls-2" d="M453.44,65s5,4.81,6.9,9.7S463.08,84,462,91.57c-.74,4.93,1.13,12.63,1.13,12.63s-10.41-1-15.65-5.12-7-13.24-6.44-19.39S453.44,65,453.44,65Z"/><path class="cls-3" d="M405.2,111.56h59.22c3.27-7.2-4.08-13.94-4.08-13.94-9.78-3-12.65-6.17-12.65-6.17-4-7-2-17.48-2-17.48H424.47s2,10.51-2,17.48c0,0-2.87,3.2-12.65,6.17C409.81,97.62,399.71,104.41,405.2,111.56Z"/><path class="cls-4" d="M411,101s9.61,4.36,24.08,4.36a90.38,90.38,0,0,0,25.24-3.49l-1.24,33H404.54Z"/><path class="cls-3" d="M460.54,49.05c-1-1.22-2.91-.43-3-.41a77.74,77.74,0,0,0-.51-9.13c-.71-4.58-7.71-17.41-11.59-19.7l-18.18-.92a40.69,40.69,0,0,0-11.13,15.45,53.91,53.91,0,0,0-3.28,14.51l-.29-.21s-1.95-.83-3,.41c-2.24,2.74-1.46,9.43-.13,13.1,1.07,2.93,2.92,4.35,4.44,4.21a19.69,19.69,0,0,0,2,5.22c2.95,5,9.06,11.29,15.11,13.69a8.28,8.28,0,0,0,8.07,0c6.05-2.4,12.16-8.72,15.12-13.69a19.68,19.68,0,0,0,2-5.22c1.52.14,3.38-1.28,4.44-4.21C462,58.48,462.77,51.79,460.54,49.05Z"/><path class="cls-2" d="M467.36,43.24c1.44-17.11-7.08-27.53-11.85-31.3s-11.89-2.63-11.89-2.63a23,23,0,0,0-15-1.76c-4.2,1-10.93,4.53-14.47,9-9.05,11.39-10,17.13-9.45,27.3s9.25,18.79,9.25,18.79a106.31,106.31,0,0,1-.55-13.07c3.77-8.41,13.35-14.3,13.35-14.3C421,41.8,420.63,47,420.63,47,428.52,35.27,441,27.59,441,27.59s.63,8.3,10.64,17.79c0,0-2.16-5.22-4.34-9.32,0,0,5.06.64,10.21,9.83a57.16,57.16,0,0,1-.59,15.65S466.45,54.1,467.36,43.24Z"/><path class="cls-5" d="M422.39,45.46c-3-.29-9.07-.62-9.62,4.21a6.11,6.11,0,0,0,4,6.73c1.67.62,6.92,2.15,11.91,0,4.53-2,5.23-5.34,5.13-5.94C433.22,47.15,427.36,45.94,422.39,45.46Z"/><path class="cls-5" d="M447.77,45.46c3-.29,9.07-.62,9.62,4.21a6.12,6.12,0,0,1-4,6.73c-1.67.62-6.92,2.15-11.9,0-4.54-2-5.24-5.34-5.13-5.94C436.94,47.15,442.8,45.94,447.77,45.46Z"/><path class="cls-6" d="M457.16,47.78a6.87,6.87,0,0,1,1.56.19c.56.24.45,1.81,0,2.17l-1.41.19S456.55,48.13,457.16,47.78Z"/><path class="cls-6" d="M413,47.78a6.87,6.87,0,0,0-1.56.19c-.56.24-.45,1.81,0,2.17l1.41.19S413.57,48.13,413,47.78Z"/><path class="cls-6" d="M434.11,49.8a2.94,2.94,0,0,0,1.86,0c.72-.36,1.06,1.37,1,1.59s-.66.68-.66.68a3.8,3.8,0,0,0-2.45,0c-1,.48-.71-1.14-.63-1.31S433.47,49.67,434.11,49.8Z"/><path class="cls-2" d="M437.1,77.26a7.06,7.06,0,0,1-4,0c-1.35-.34-1.17-2,0-1.79a11.51,11.51,0,0,0,4,0C438.21,75.24,438.42,76.84,437.1,77.26Z"/><path class="cls-2" d="M440.4,71.55a20.77,20.77,0,0,1-10.57,0c-3.48-.78-2.89-3.25,0-2.26a15.76,15.76,0,0,0,10.57,0C443.12,68.28,443.84,70.81,440.4,71.55Z"/><path class="cls-2" d="M437.08,65.67a4.19,4.19,0,0,1-4,0c-1.26-.56-1.16-2,0-1.79a11.56,11.56,0,0,0,4,0C438.19,63.65,438.33,65.07,437.08,65.67Z"/><path class="cls-7" d="M422.79,46c-2.82-.29-8.06-.35-8.59,3.78a5.33,5.33,0,0,0,3.68,6.2c1.35.39,5.95,1.89,10.23-.16s4.14-4.85,4-5.42C431.59,47.3,426.09,46.34,422.79,46Z"/><path class="cls-7" d="M447.37,46c2.82-.29,8.05-.35,8.59,3.78a5.33,5.33,0,0,1-3.68,6.2c-1.36.39-5.95,1.89-10.23-.16s-4.15-4.85-4-5.42C438.57,47.3,444.07,46.34,447.37,46Z"/><path class="cls-2" d="M426.19,50.33a1.75,1.75,0,1,1-1.72-2A1.88,1.88,0,0,1,426.19,50.33Z"/><path class="cls-3" d="M382.24,134.91s3.44-15.78,6-22.33c3.31-8.61,6.92-10,10.22-11.4,5.51-2.28,14-5.3,14-5.3s2.74,33.27,2.95,39"/><path class="cls-2" d="M429.77,43.74a17,17,0,0,0-6-1.89,13.6,13.6,0,0,0-7.52,1.74c-.93.6-1.45,1.87.23,1.23a14.12,14.12,0,0,1,6.9-.9,33,33,0,0,1,6,1.35C429.87,45.59,430.44,44.13,429.77,43.74Z"/><path class="cls-2" d="M444,50.33a1.75,1.75,0,1,0,1.73-2A1.89,1.89,0,0,0,444,50.33Z"/><path class="cls-3" d="M487.92,134.91s-3.45-15.78-6-22.33c-3.31-8.61-6.91-10-10.22-11.4-5.5-2.28-14-5.3-14-5.3s-2.86,32.75-3.56,39"/><path class="cls-2" d="M440.38,43.74a17.09,17.09,0,0,1,6-1.89,13.62,13.62,0,0,1,7.52,1.74c.92.6,1.44,1.87-.23,1.23a14.14,14.14,0,0,0-6.91-.9,33.25,33.25,0,0,0-6,1.35C440.29,45.59,439.71,44.13,440.38,43.74Z"/><path class="cls-8" d="M412.94,101.75a70.25,70.25,0,0,0,22.16,3.61,91.43,91.43,0,0,0,21.82-2.56"/><path class="cls-9" d="M698.39,215.51s.49-2.4,3.58-1.38c3.63,1.19,1.14,9.29,0,12.26-1.88,4.92-4.81,3.17-4.81,3.17s-2.76,8.09-6.25,12.5-7,8.64-13.76,11.21a17,17,0,0,1-4.6.85,14.11,14.11,0,0,1-4.59-.85c-6.79-2.57-10.28-6.8-13.77-11.21s-6.24-12.5-6.24-12.5-2.93,1.75-4.82-3.17c-1.13-3-3.62-11.07,0-12.26,3.1-1,3.58,1.38,3.58,1.38s1.2-11.5,2.44-14.8c0,0,15-3.31,23.6-3.31s24.85,3.44,24.85,3.44Z"/><path class="cls-9" d="M671.94,295.76s17-3.85,24.31-10.49,4.54-19.47,4.54-19.47l-12.46-5.92c-3.33-1.65-3.12-9.72-2.43-10.14,0,0-9-4.41-13.45-4.41s-13.24,4.41-13.24,4.41c.69.42.9,8.49-2.43,10.14l-12.33,5.92s-2,14.16,4.63,21.51S671.94,295.76,671.94,295.76Z"/><path class="cls-2" d="M664.88,205.9a29.23,29.23,0,0,0-8.35-.33c-1.41.36-1.23,2.13,0,1.89a47.4,47.4,0,0,1,8.35.32C666.06,208,666.27,206.34,664.88,205.9Z"/><path class="cls-2" d="M676.42,238.88a25,25,0,0,1-7.73,0c-2.62-.36-2.28-2.62,0-2.38a41.58,41.58,0,0,0,7.73,0C678.59,236.26,679,238.44,676.42,238.88Z"/><path class="cls-10" d="M684.41,194a26.2,26.2,0,0,0,3,5.23c1.27,1.74,5.22,3.14,5.22,3.14s4.63,11.93,4.63,18.81c0,0,2.39-6,3-7.3,0,0,.89-2.74,1.44-5.27a15,15,0,0,0,.35-5.19,48.41,48.41,0,0,0-2.69-12.12c-2.8-6.92-3.09-6.87-3.09-6.87s0-5.1-3.28-8c-5.14-4.5-9.56-3.21-9.56-3.21s-2.37-4.51-8.71-4c-7.81.68-8.94,5-8.94,5s-4-2.39-9.32,1.14c-3.85,2.58-4.67,8.6-4.67,8.6a10,10,0,0,0-5.84,7c-1.38,5.53-2.82,12.39-2.82,12.39a21.4,21.4,0,0,0,.76,6.62c.64,2.19,1,3.84,1,3.84.6,1.35,3,7.3,3,7.3,0-6.88,4.62-18.81,4.62-18.81a13.17,13.17,0,0,0,5.23-3.14c1.58-1.46,3-5.23,3-5.23,9.79,1.92,13.85-3.11,13.85-3.11a10.79,10.79,0,0,0,4.82,3A12.51,12.51,0,0,0,684.41,194Z"/><path class="cls-11" d="M670.19,215.46s-.4,5.88-.4,11.29c0,0,2,2.42,5.14.31"/><path class="cls-2" d="M670.42,210.34a7.43,7.43,0,0,1,4.18,0c1.42.36,1.23,2.13,0,1.89a12.22,12.22,0,0,0-4.18,0C669.24,212.47,669,210.78,670.42,210.34Z"/><path class="cls-9" d="M743,304.12c-3.92-12.92-9-22.89-17.29-28.43s-24.44-11.08-24.44-11.08-6,17-28.95,17c-20.46,0-28.56-17-28.56-17s-16.14,5.54-24.44,11.08S606,291.2,602.06,304.12"/><path class="cls-11" d="M651.42,209.26s14.3-3.27,18.43,0c0,0-.35,8.32-1.29,9.78s-12.39,1.8-14.66,0C652.38,217.85,651.42,209.26,651.42,209.26Z"/><path class="cls-11" d="M665.6,232.53a55.91,55.91,0,0,0-1.66,6c-.82,3.72-1.56,6.76-1.56,6.76"/><line class="cls-11" x1="672.36" y1="231.35" x2="671.52" y2="234"/><line class="cls-11" x1="667.77" y1="231.06" x2="666.85" y2="234"/><line class="cls-11" x1="670.14" y1="231.06" x2="669.04" y2="234"/><path class="cls-2" d="M680.21,205.9a29.24,29.24,0,0,1,8.35-.33c1.42.36,1.23,2.13,0,1.89a47.44,47.44,0,0,0-8.35.32C679,208,678.82,206.34,680.21,205.9Z"/><path class="cls-11" d="M693.68,209.26s-14.3-3.27-18.43,0c0,0,.34,8.32,1.28,9.78s12.4,1.8,14.67,0C692.71,217.85,693.68,209.26,693.68,209.26Z"/><path class="cls-10" d="M676.4,248.22l.49-1.52,2.82,1.21a11.62,11.62,0,0,0,2.51-3.41l2.24,1.65,4-3.37.93,1.07,3.47-4.71-5,11.22-.9-1L684.46,253l-1.22-.83-2.79,3.18-1.2-.14-2.83,2.26-1.46-.88-2.6,2.27-1.81-2.34-1.51.36-2.19-2H665.6l-2.07-1.54-1.71.46-2.3-3-.6.28-1.58-2-1,.33-4-10.18,4,5.52,1.59-1.54,2.5,3.82,2.08-3.29c-.1,1.65,2.19,4.57,2.19,4.57l3.48-1.58,1.65,1a32.52,32.52,0,0,0,2.66-2.34Z"/><path class="cls-11" d="M679.5,232.53s1,3.18,1.84,6.9,1.28,5.9,1.28,5.9"/><line class="cls-11" x1="673.58" y1="231.35" x2="673.58" y2="234"/><line class="cls-11" x1="677.47" y1="231.52" x2="678.24" y2="234"/><line class="cls-11" x1="675.13" y1="231.52" x2="676.06" y2="234"/><path class="cls-12" d="M701.25,194.33s-4.41-18.92-10.32-23.56c0,0-7.16-5.24-15.8-5.24s-21,5.24-21,5.24c-5.92,4.64-10.32,23.56-10.32,23.56l-.92,5.11h58.32A8.7,8.7,0,0,0,701.25,194.33Z"/><path class="cls-12" d="M701.53,212.25s11.38-2.89,13.76-5.65-1.24-5.92-11.43-9.74c-6.7-2.5-23.9-4.41-28.9-4.41h-4.82c-5,0-22.07,2.3-28.9,4.41-11.91,3.68-13.82,7-11.44,9.74s13.77,5.65,13.77,5.65V206.6s9.83-4.18,27.95-4.18h2.06c18.12,0,27.95,4.18,27.95,4.18Z"/><path class="cls-11" d="M638.18,266.69s8.79,20.62,34.27,20.62c26.28,0,33.62-20.62,33.62-20.62"/><path class="cls-7" d="M719.2,133.39C717.8,120,710.39,100,710.39,100c1.73,1,5.21,1.23,5.21,1.23-4.34-4.18-7.22-13.32-9.16-19.8-.76-2.52-2.28-6.21-3.38-8.76h.09a8.75,8.75,0,0,0,4.65,3.5s2.45-6.35,5.47-9.23,3.17-10.23,0-16.14-6.91-14.41-7.63-18.31-4.46-6.63-7.2-6.34c0,0-6.82-6.5-18.87-6.5s-18.87,6.5-18.87,6.5c-2.73-.29-6.48,2.45-7.2,6.34s-4.46,12.4-7.63,18.31-3,13.26,0,16.14,5.47,9.23,5.47,9.23a8.92,8.92,0,0,0,4.92-3.9,97.9,97.9,0,0,0-3.55,9.16c-1.94,6.48-4.82,15.62-9.16,19.8,0,0,3.48-.22,5.2-1.23,0,0-7.4,20-8.8,33.42Z"/><path class="cls-2" d="M682.1,57a4.16,4.16,0,0,1-2.53,1,4.54,4.54,0,0,1-2.5-1,3.08,3.08,0,0,1-1.42-2.23c0-.87,1.14-2.16,3.92-2.16s3.94,1.4,3.94,2.16S682.61,56.5,682.1,57Z"/><path class="cls-2" d="M670,46.87a1.76,1.76,0,0,1-2.73,0,2.09,2.09,0,0,1,0-2.77,1.81,1.81,0,0,1,2.73,0A2.09,2.09,0,0,1,670,46.87Z"/><path class="cls-13" d="M658.4,34.63a94.92,94.92,0,0,0-1.87,17c0,8.22.14,12.11.93,15.57s-2.66,8.07-6.12,8.94c0,0-2.44-6.35-5.47-9.23s-3.16-10.23,0-16.14,6.91-14.41,7.63-18.31,4.47-6.63,7.2-6.34c0,0,6.83-6.5,18.87-6.5s18.87,6.5,18.87,6.5c2.74-.29,6.48,2.45,7.2,6.34s4.47,12.4,7.63,18.31,3,13.26,0,16.14-5.47,9.23-5.47,9.23c-3.45-.87-6.91-5.48-6.12-8.94s.94-7.35.94-15.57a94.92,94.92,0,0,0-1.87-17"/><path class="cls-13" d="M657.38,69.73a124.54,124.54,0,0,0-4.67,11.67c-1.94,6.48-4.82,15.62-9.16,19.8,0,0,3.48-.22,5.2-1.23,0,0-7.4,20-8.8,33.42"/><path class="cls-13" d="M670.94,51.79a15,15,0,0,1,8.63-2.92,15.27,15.27,0,0,1,8.69,2.92"/><path class="cls-13" d="M679.57,62.32S676.88,65,674,64.91s-3.78-1.3-3.78-1.3"/><path class="cls-13" d="M674.18,74.36a12.09,12.09,0,0,0,5.39,1.19,14.15,14.15,0,0,0,5.67-1.19"/><path class="cls-13" d="M652.49,109.45s-.14,6.33-1.08,8.78c0,0,3.1.69,4.4-1.18,0,0-1.83,7.08-2.91,10a24.31,24.31,0,0,0,4.78-3.11s2.12,5.72,2.57,7.8"/><path class="cls-2" d="M689.16,46.87a1.76,1.76,0,0,0,2.73,0,2.09,2.09,0,0,0,0-2.77,1.81,1.81,0,0,0-2.73,0A2.09,2.09,0,0,0,689.16,46.87Z"/><path class="cls-13" d="M701.77,69.73a124.54,124.54,0,0,1,4.67,11.67c1.94,6.48,4.82,15.62,9.16,19.8,0,0-3.48-.22-5.21-1.23,0,0,7.41,20,8.81,33.42"/><path class="cls-13" d="M679.57,62.32s2.7,2.64,5.56,2.59,3.78-1.3,3.78-1.3"/><path class="cls-13" d="M706.65,109.45s.15,6.33,1.08,8.78c0,0-3.1.69-4.4-1.18,0,0,.76,6.82,1.84,9.7a29.09,29.09,0,0,1-3.65-3s-2.15,5.83-2.59,7.91"/><line class="cls-13" x1="679.57" y1="57.13" x2="679.57" y2="62.32"/><path class="cls-9" d="M518.66,242.82c.64.42.83,10-2.2,11.61l4.94,9.46h16.41l7.33-9.46c-3-1.66-2.84-11.19-2.21-11.61Z"/><path class="cls-9" d="M547.05,255.47a24,24,0,0,1-2.43-4.82A45.16,45.16,0,0,1,534.36,255h-6.19A67.17,67.17,0,0,1,517,250.65a24,24,0,0,1-2.43,4.82l-2.23,8.42,15.15,38.33h6.66l16.55-39.74Z"/><path class="cls-7" d="M530.79,304.2c-7.61-19-17.12-50.76-17.12-50.76l-7.6,9.64s-20.17,5.54-28.47,11.08-13.37,17.31-17.29,31.19h141c-3.92-13.88-9-25.65-17.29-31.19s-28.47-11.08-28.47-11.08l-7.6-9.64s-7,22.07-8.42,26.16S530.79,304.2,530.79,304.2Z"/><path class="cls-9" d="M556.64,211.34s.49-2.4,3.58-1.38c3.62,1.2,1.14,9.3,0,12.27-1.88,4.91-4.82,3.17-4.82,3.17s-2.75,8.08-6.24,12.49-7,8.64-13.77,11.21a16.84,16.84,0,0,1-4.6.86,14,14,0,0,1-4.59-.86c-6.79-2.57-10.27-6.8-13.76-11.21s-6.24-12.49-6.24-12.49-2.94,1.74-4.82-3.17c-1.14-3-3.63-11.07,0-12.27,3.09-1,3.58,1.38,3.58,1.38s.43-16.19,3.18-21.71S531,176.27,531,176.27s15,3.44,21.76,11.16S556.64,211.34,556.64,211.34Z"/><path class="cls-2" d="M521.14,212.62a1.32,1.32,0,0,1-2.35,0,2.91,2.91,0,0,1,0-3.12,1.35,1.35,0,0,1,2.35,0A2.91,2.91,0,0,1,521.14,212.62Z"/><path class="cls-2" d="M522.07,203.26a7.43,7.43,0,0,0-4.18,0c-1.42.36-1.23,2.13,0,1.88a12.22,12.22,0,0,1,4.18,0C523.25,205.39,523.46,203.7,522.07,203.26Z"/><path class="cls-2" d="M534.66,236.06a25,25,0,0,1-7.73,0c-2.61-.36-2.27-2.62,0-2.37a41.58,41.58,0,0,0,7.73,0C536.83,233.44,537.23,235.62,534.66,236.06Z"/><path class="cls-11" d="M530.61,303.14c-7.62-19-16.94-49.7-16.94-49.7l-7.6,9.64s-20.17,5.54-28.47,11.08-13.37,17.31-17.29,30.24"/><path class="cls-9" d="M529.69,210.08s.21,8.64-1.65,13.7c0,0,2,2.43,5.14.32"/><path class="cls-2" d="M540.46,212.62a1.32,1.32,0,0,0,2.35,0,2.91,2.91,0,0,0,0-3.12,1.35,1.35,0,0,0-2.35,0A2.91,2.91,0,0,0,540.46,212.62Z"/><path class="cls-2" d="M539.53,203.26a7.43,7.43,0,0,1,4.18,0c1.42.36,1.23,2.13,0,1.88a12.22,12.22,0,0,0-4.18,0C538.35,205.39,538.14,203.7,539.53,203.26Z"/><path class="cls-11" d="M531,303.14c7.62-19,16.94-49.7,16.94-49.7l7.6,9.64s20.17,5.54,28.47,11.08,13.37,17.31,17.29,30.24"/><polygon class="cls-14" points="537.52 284.86 533.28 265.25 536.86 260.47 534.01 255.03 527.55 255.03 524.69 260.47 528.32 265.25 524.08 284.86 530.79 304.2 537.52 284.86"/><line class="cls-9" x1="533.18" y1="265.25" x2="528.62" y2="265.25"/><polyline class="cls-11" points="506.07 263.08 502.78 273.08 515.2 276.23 503.69 283.48 526.54 305.35"/><polyline class="cls-11" points="555.52 263.08 558.81 273.08 546.39 276.23 557.9 283.48 535.05 305.35"/><path class="cls-9" d="M506.46,215.63s-.63,3.08-.81,4.09"/><path class="cls-9" d="M507,219.15s-.57,2-.76,3"/><path class="cls-9" d="M507,222.58s-1.06,2-.78,2.82"/><path class="cls-9" d="M507,224a31.33,31.33,0,0,0,.44,4.23"/><line class="cls-9" x1="530.66" y1="247.57" x2="530.61" y2="251.15"/><line class="cls-9" x1="533.27" y1="247.66" x2="532.71" y2="249.96"/><line class="cls-9" x1="527.41" y1="247.18" x2="528.62" y2="250.65"/><line class="cls-9" x1="526.2" y1="249.1" x2="523.03" y2="245.57"/><line class="cls-9" x1="522.69" y1="247.48" x2="520.68" y2="244.09"/><polyline class="cls-9" points="530.79 228.22 529.78 230.84 528.96 227.74"/><line class="cls-9" x1="528.44" y1="228.14" x2="527.47" y2="230.77"/><line class="cls-9" x1="526.2" y1="228.7" x2="524.59" y2="230.82"/><line class="cls-9" x1="524.07" y1="229" x2="522.55" y2="231.33"/><line class="cls-9" x1="521.4" y1="230.16" x2="520.35" y2="232.32"/><line class="cls-9" x1="532.19" y1="228.22" x2="533.27" y2="230.77"/><line class="cls-9" x1="534.18" y1="228.22" x2="536.99" y2="230.82"/><line class="cls-9" x1="537.81" y1="229.29" x2="539.03" y2="231.33"/><line class="cls-9" x1="540" y1="230.77" x2="540.71" y2="232.32"/><path class="cls-9" d="M503.54,189s-2.19,9.19-1.9,12.66a58.59,58.59,0,0,0,1.49,8c.6,1.35,2.52,9.44,2.52,9.44.14-11.71.87-15.09.87-15.09a13.27,13.27,0,0,1,3.61-5.88l-.63-9.88Z"/><path class="cls-9" d="M555.12,215.63s.64,3.08.82,4.09"/><path class="cls-9" d="M554.6,219.15s.58,2,.76,3"/><path class="cls-9" d="M554.6,222.58s1.06,2,.79,2.82"/><path class="cls-9" d="M554.6,224.71a22.29,22.29,0,0,1-.44,3.51"/><line class="cls-9" x1="534.18" y1="247.18" x2="532.97" y2="250.65"/><line class="cls-9" x1="535.38" y1="249.1" x2="538.55" y2="245.57"/><line class="cls-9" x1="538.9" y1="247.48" x2="540.91" y2="244.09"/><path class="cls-9" d="M558.05,189s2.19,9.19,1.89,12.66a59.29,59.29,0,0,1-1.48,8c-.6,1.35-2.52,9.44-2.52,9.44-.14-11.71-.88-15.09-.88-15.09a13.31,13.31,0,0,0-3.6-5.88l.63-9.88Z"/><path class="cls-10" d="M557.41,195.65c-1.54-.22-3.83-1.72-7.62-2.57a20.85,20.85,0,0,1-7-3.23,5.5,5.5,0,0,0-4.27-1.92,55.53,55.53,0,0,1-6.34.56c-3,.13-3.78-1.84-3.78-1.84a29.16,29.16,0,0,1-5.41.78,11.49,11.49,0,0,1-6.14-1.79c-1.92.69-3.82,5.86-6.76,8.73-3.91,3.81-11.82,3.16-11.82,3.16,3.31-.87,3.31-3.44,3.31-3.44-1.5.41-4.19-.83-4.19-.83,3.17-1.79,2.89-4,3.17-8.17s5-8.18,5-8.18.87-4.59,3.08-6.8a14,14,0,0,1,12.33-3.6s2.18-3.76,4.34-4.45,5-1.6,12.64,1.8c5,2.22,10.45,2,12.32,1a38.43,38.43,0,0,1-4.78,3.7,11.16,11.16,0,0,1,11.17,2.28s-4.13-2.38-7,.29c0,0,5.16.17,7.23,2.92a17,17,0,0,1,2.72,6.08s.59,3.52,3.64,4.49a4.2,4.2,0,0,1-3.52,1.88s1.6,2,5,.78c0,0-.93,2.31-5.51,4.69,0,0,4,1.32,5.51.28C564.89,192.26,561.38,196.22,557.41,195.65Z"/><line class="cls-9" x1="525.1" y1="259.6" x2="519.05" y2="270.44"/><line class="cls-9" x1="536.49" y1="259.6" x2="542.54" y2="270.44"/><path class="cls-9" d="M599.22,99.67H574.45c-1.67-2,0-5.72,0-5.72,2.62-1.57,2.06-15,1.49-15.41,0,0-.2-5,1.78-5h19.41a8.24,8.24,0,0,1,.61,5c-.1.68-1.13,13.84,1.48,15.41C599.22,94,602.53,96.75,599.22,99.67Z"/><path class="cls-9" d="M611.39,46s.46-2.27,3.4-1.31c3.44,1.14,1.08,8.83,0,11.66-1.79,4.67-4.58,3-4.58,3s-2.62,7.68-5.93,11.87-6.63,8.2-13.08,10.65a11.63,11.63,0,0,1-8.73,0c-6.45-2.45-9.76-6.46-13.07-10.65s-5.93-11.87-5.93-11.87-2.79,1.66-4.58-3c-1.08-2.83-3.44-10.52,0-11.66,2.94-1,3.4,1.31,3.4,1.31s.48-16.22,24.55-16.22S611.39,46,611.39,46Z"/><path class="cls-2" d="M577.66,53.08a1.25,1.25,0,0,1-2.23,0,2.74,2.74,0,0,1,0-2.95,1.28,1.28,0,0,1,2.23,0A2.74,2.74,0,0,1,577.66,53.08Z"/><path class="cls-2" d="M588.81,62.33a7.06,7.06,0,0,1-4,0c-1.35-.35-1.17-2,0-1.8a11.51,11.51,0,0,0,4,0C589.93,60.31,590.13,61.91,588.81,62.33Z"/><path class="cls-2" d="M578.55,43.31a7.09,7.09,0,0,0-4,0c-1.34.34-1.17,2,0,1.79a11.56,11.56,0,0,1,4,0C579.66,45.33,579.87,43.73,578.55,43.31Z"/><path class="cls-2" d="M590.17,69.45a19.65,19.65,0,0,1-6.67,0c-2.26-.35-2-2,0-1.8a32.32,32.32,0,0,0,6.67,0C592.05,67.43,592.39,69,590.17,69.45Z"/><path class="cls-2" d="M596,53.08a1.25,1.25,0,0,0,2.23,0,2.74,2.74,0,0,0,0-2.95,1.28,1.28,0,0,0-2.23,0A2.74,2.74,0,0,0,596,53.08Z"/><path class="cls-2" d="M595.13,43.31a7.06,7.06,0,0,1,4,0c1.35.34,1.17,2,0,1.79a11.51,11.51,0,0,0-4,0C594,45.33,593.81,43.73,595.13,43.31Z"/><path class="cls-9" d="M640.4,134.91c-3-12.28-6.83-21.47-13.14-26.73S602,94.82,602,94.82c-.84-1.27-1.61-10.12-1.61-10.12s-3.2,1.87-13.56,1.87a52.24,52.24,0,0,1-13.55-1.87s-.77,8.85-1.62,10.12c0,0-18.94,8.1-25.25,13.36s-10.17,14.45-13.15,26.73"/><path class="cls-15" d="M593.14,41.15c5.09.38,10.59,1.7,13.08,2.92s4.7,5.85,4.7,5.85.59-7.53,5.05-4.28c0,0,5.2-7.09,2.27-18.89-3.39-13.63-12-21.55-27.36-23a10.87,10.87,0,0,0-4,.46,14.85,14.85,0,0,0-4.18-.66c-13.16.92-23.85,9.55-27.23,23.18-2.93,11.8,2.27,18.89,2.27,18.89,4.45-3.25,5,4.28,5,4.28s2.22-4.63,4.71-5.85a39.32,39.32,0,0,1,13.08-2.92S589.16,40.85,593.14,41.15Z"/><path class="cls-11" d="M578.09,85.78s-.48,4.86-.75,6.78"/><path class="cls-11" d="M583.55,86.46s-.28,5.05-.45,6.62"/><path class="cls-11" d="M575.43,12.78s-7.33,18.77-8,31.29"/><path class="cls-11" d="M558.89,44.7S556.38,28.84,566,14.88"/><path class="cls-11" d="M581.91,10a88.25,88.25,0,0,0-5.36,31.45"/><path class="cls-11" d="M595.57,85.78s.49,4.86.75,6.78"/><path class="cls-11" d="M590.12,86.46s.27,5.05.45,6.62"/><path class="cls-11" d="M598.23,12.78s7.33,18.77,8,31.29"/><path class="cls-11" d="M614.78,44.7s1.07-15.86-8.56-29.82"/><path class="cls-11" d="M591.71,10s3.86,11.65,3.86,31.41"/><path class="cls-11" d="M584.45,40.1s-1.11-19.9,2.39-32.2"/><path class="cls-9" d="M360.73,304.4c.22-7.43,1.49-11,1.79-13.48a101.06,101.06,0,0,1,3.13-14.42,36.56,36.56,0,0,1,4.72-11.07,7.74,7.74,0,0,0,1.06-6.77s-1.68-2.34-2.94-4.23c-2.24-3.37-3.74-8.78-4.28-11.92a47.08,47.08,0,0,1-.12-11.3c-.89-2.86-4.82-21,.36-22.5s15.34,12.56,15.34,12.56a25.38,25.38,0,0,1,15.17,0s10.17-14.05,15.34-12.56,1.25,19.64.36,22.5a95.47,95.47,0,0,1-.12,11.3,32.44,32.44,0,0,1-4.28,11.92c-.89,1.45-2.94,4.23-2.94,4.23a6.3,6.3,0,0,0,.17,4.92c2.43,5.15,4,7.81,4.86,10.5,2.24,6.85,2.46,10.53,4,18.32a60.31,60.31,0,0,1,1.69,12"/><path class="cls-11" d="M402.86,221.09l-4.42,1.81s5-6.33,6.91-8.31,3.79-1.76,4.06-1.28"/><path class="cls-11" d="M401,223.47a64.64,64.64,0,0,1,7.1-1.87"/><line class="cls-11" x1="405.1" y1="225.12" x2="407.47" y2="223.77"/><path class="cls-2" d="M398.2,239.79a1.84,1.84,0,0,1-2.85,0,2.2,2.2,0,0,1,0-2.91,1.9,1.9,0,0,1,2.85,0A2.2,2.2,0,0,1,398.2,239.79Z"/><path class="cls-9" d="M387.37,249.68a3.5,3.5,0,0,1,2.29.95,4.67,4.67,0,0,0,6.25,0"/><path class="cls-16" d="M398.28,244s10.59.53,17.54,3.45"/><path class="cls-16" d="M399.75,246.24s9.17,1.65,14.61,5.66"/><path class="cls-16" d="M396.75,247.61s9.48,4.28,12.29,10.89"/><path class="cls-2" d="M388.58,246.52a7.35,7.35,0,0,0,2-2c.82-1-.09-1.64-.59-1.64h-5.3c-.52,0-1.4.52-.58,1.64a7,7,0,0,0,2,2A2.3,2.3,0,0,0,388.58,246.52Z"/><path class="cls-2" d="M376.55,239.79a1.84,1.84,0,0,0,2.85,0,2.2,2.2,0,0,0,0-2.91,1.9,1.9,0,0,0-2.85,0A2.2,2.2,0,0,0,376.55,239.79Z"/><path class="cls-9" d="M387.37,249.68a3.52,3.52,0,0,0-2.29.95,4.65,4.65,0,0,1-6.24,0"/><path class="cls-9" d="M378.87,259.08a13.56,13.56,0,0,0,17,0"/><line class="cls-9" x1="387.37" y1="245.75" x2="387.37" y2="249.31"/><polyline class="cls-9" points="398.75 301.96 397.31 300.11 395.88 304.4"/><path class="cls-9" d="M399.4,293.54a57,57,0,0,0,1.05,6.33"/><path class="cls-9" d="M404.53,282.87a28.08,28.08,0,0,0-1.93,11.64l-2.15-3.24"/><path class="cls-11" d="M371.89,221.09l4.42,1.81s-5-6.33-6.91-8.31-3.79-1.76-4.06-1.28"/><path class="cls-11" d="M373.77,223.47a64.64,64.64,0,0,0-7.1-1.87"/><line class="cls-11" x1="369.64" y1="225.12" x2="367.28" y2="223.77"/><path class="cls-16" d="M376.47,244s-10.59.53-17.55,3.45"/><path class="cls-16" d="M375,246.24s-9.17,1.65-14.61,5.66"/><path class="cls-16" d="M378,247.61s-9.48,4.28-12.29,10.89"/><polyline class="cls-9" points="376.47 302.02 378 300.5 380.45 304.4"/><path class="cls-9" d="M376.52,294s-.43,1.28-1.52,4.75"/><path class="cls-9" d="M371.85,282.87a30.9,30.9,0,0,1,1,10.67l3.23-2.75"/><path class="cls-9" d="M316.7,269.59c13.89-4.44,16.43-13.68,16.43-13.68,10.17-6.49,13.9-15.74,10.53-34.93S329,188.2,321.41,185.55c-8.55-3-14.07,1.44-14.07,1.44s-5.33-4.44-13.23,1.39c-6.87,5.06-15.11,18.65-16.52,30.5s1.85,20.07-1,28,6.8,14.76,6.8,14.76l19.46,9.12Z"/><path class="cls-11" d="M322.42,262.85s5.56-5.42,4.21-11.9"/><path class="cls-9" d="M300.12,268.62c2.36-1.41,2.21-11.91,1.72-12.27,0,0,.63-4,1.56-4.57h14.51c2.21,0,2.79,4.57,2.79,4.57-.49.36-.64,10.86,1.72,12.27l-11.15,8.86Z"/><path class="cls-17" d="M300.11,262.85s7.5.94,11.13.94,11.18-.94,11.18-.94.61,4,1.44,4.95c1.19,1.33,8.23,3.58,8.23,3.58s2.26,19.35.06,23.35-8.66,11-8.66,11H298.1s-13.67-13.84-14.26-18.34,6.77-15.77,6.77-15.77,7.06-3.28,8.3-5.4A11.29,11.29,0,0,0,300.11,262.85Z"/><path class="cls-7" d="M328.72,270.4s-5.28,21.59-10.81,35.38h41.57s-2.57-13.71-9-22.87C346.17,276.83,328.72,270.4,328.72,270.4Z"/><path class="cls-7" d="M293.81,270.4s5.28,21.59,10.81,35.38H263.05s2.57-13.71,9-22.87C276.36,276.83,293.81,270.4,293.81,270.4Z"/><path class="cls-11" d="M328.72,270.4s-5.28,21.59-10.81,35.38"/><path class="cls-11" d="M263.05,305.78c2.68-11,6.15-21.12,11.83-25.86s23.79-12.12,23.79-12.12c.94-1.14,1.44-4.95,1.44-4.95a99.68,99.68,0,0,0,11.13.94,100.84,100.84,0,0,0,11.18-.94s.5,3.81,1.44,4.95c0,0,18.11,7.39,23.79,12.12s9.14,14.81,11.83,25.86"/><path class="cls-11" d="M293.81,270.4s5.28,21.59,10.81,35.38"/><path class="cls-9" d="M333.36,227.08s.42-2.05,3.06-1.18c3.1,1,1,7.95,0,10.49-1.61,4.2-4.12,2.71-4.12,2.71S330,246,327,249.78s-5.56,7.18-11.77,9.59a10.47,10.47,0,0,1-7.86,0c-5.73-2.39-8.79-5.81-11.77-9.59s-5.34-10.68-5.34-10.68-2.51,1.49-4.11-2.71c-1-2.54-3.1-9.46,0-10.49,2.64-.87,3.06,1.18,3.06,1.18s-1.63-5.24,2.29-14.19,9.67-11.67,9.67-11.67h18s8.5,6.25,11.09,12.26A48.87,48.87,0,0,1,333.36,227.08Z"/><path class="cls-2" d="M303,231a1.13,1.13,0,0,1-2,0,2.48,2.48,0,0,1,0-2.66,1.15,1.15,0,0,1,2,0A2.46,2.46,0,0,1,303,231Z"/><path class="cls-2" d="M313.05,241.76a6.32,6.32,0,0,1-3.58,0c-1.21-.3-1.05-1.81,0-1.61a10.25,10.25,0,0,0,3.58,0C314.05,240,314.24,241.39,313.05,241.76Z"/><path class="cls-2" d="M305.14,223.36a8.51,8.51,0,0,0-7.63,0c-2,1-2.3,2,0,1.61a22,22,0,0,1,7.63,0C306.15,225.18,306.25,223.94,305.14,223.36Z"/><path class="cls-2" d="M315.18,248.17a11.05,11.05,0,0,1-7.81,0c-2.64-1.06-2.19-2.33,0-1.61a11.69,11.69,0,0,0,7.81,0C317.29,245.93,317.67,247.34,315.18,248.17Z"/><path class="cls-2" d="M319.53,231a1.13,1.13,0,0,0,2,0,2.48,2.48,0,0,0,0-2.66,1.15,1.15,0,0,0-2,0A2.46,2.46,0,0,0,319.53,231Z"/><path class="cls-7" d="M301.13,262.49s0,2.82-4,5.09c0,0,3.43,3.5-1.91,8.45a15.75,15.75,0,0,1,1.91,5.44c.21,1.49-.34,2.84-1.91,4.39,0,0,2.58,4.25-.84,5.74,0,0,3.1,3.34,2.27,7.21s-5.4,5.67-10.17,4.24c0,0,2.87-.88,3.23-3.16,0,0-3.65,1.49-6.12.55,0,0,4.35-2,4-4.6s-2.24-4.06.35-7.57c0,0-5.41-2.68-5.77-5.74s2.67-5.93,2.67-5.93-4.85-3.67-5.44-7.25,2-9.33,2-9.33,5.64-6.52,9.25-6.52S301.47,259.93,301.13,262.49Z"/><path class="cls-2" d="M317.39,223.36a8.51,8.51,0,0,1,7.63,0c2,1,2.3,2,0,1.61a22,22,0,0,0-7.63,0C316.38,225.18,316.28,223.94,317.39,223.36Z"/><path class="cls-11" d="M334.23,248.89a21.44,21.44,0,0,1-2.83,10.42,18.28,18.28,0,0,1-7.54,7"/><path class="cls-11" d="M289,273.06s4.25-4.05,8.13-5.48"/><path class="cls-9" d="M302,260.29s-.8,5-4.84,7.29c0,0,3.43,3.5-1.91,8.45a15.75,15.75,0,0,1,1.91,5.44c.21,1.49-.34,2.84-1.91,4.39,0,0,2.58,4.25-.84,5.74,0,0,3.09,3.34,2.27,7.21s-5.4,5.67-10.18,4.24c0,0,2.88-.88,3.23-3.16,0,0-3.65,1.49-6.12.55,0,0,4.36-2,4-4.6s-2.23-4.06.36-7.57c0,0-5.42-2.68-5.77-5.74s2.67-5.93,2.67-5.93-4.85-3.67-5.44-7.25,2-9.33,2-9.33,8,3.85,9.19,6.25"/><path class="cls-14" d="M284.88,276.6a34.54,34.54,0,0,1,5.73,3.58"/><path class="cls-11" d="M288,288.27a22,22,0,0,1,3.49,1.6"/><path class="cls-11" d="M295.26,276a9.54,9.54,0,0,1-2.16,2"/><path class="cls-11" d="M295.26,285.86a13.64,13.64,0,0,1-2.53,1.58"/><path class="cls-11" d="M290.21,260.23S295,255.43,295,249"/><path class="cls-7" d="M341.88,236.62c.55-4.79-4-20.85-7.88-25.73s-10.14-12.59-10.14-12.59H297.17S290.69,203,288,208s-8.83,20.5-8.12,26.7,6.67,11.19,6.67,11.19a14.37,14.37,0,0,1,1.64-9.36c2.67-4.54,1.5-12.07,1.5-12.07s4.25-11.57,11.46-16.21c0,0-2.33,12.46,2.68,16.55h4s-4.85-11.39.19-18.73c0,0-.13,15.24,6.72,18.85h5s-7.85-7.69-5.85-18.85a13.35,13.35,0,0,1,6.16,6.76c2,4.87,6.65,11.16,11.61,13.15a53.6,53.6,0,0,1,3,18.71S341.18,242.87,341.88,236.62Z"/><path class="cls-11" d="M334.64,244.51a53.6,53.6,0,0,0-3-18.71c-5-2-9.61-8.28-11.61-13.15a13.3,13.3,0,0,0-6.16-6.75c-2,11.15,5.85,18.84,5.85,18.84h-5c-6.85-3.6-6.72-18.84-6.72-18.84-5,7.33-.19,18.72-.19,18.72h-4c-5-4.09-2.68-16.55-2.68-16.55-7.21,4.64-11.46,16.21-11.46,16.21s1.17,7.53-1.5,12.07a14.37,14.37,0,0,0-1.64,9.36s-.41,3.2,3.68,6.8"/><path class="cls-11" d="M289.67,224.28a28.22,28.22,0,0,1-4.79,8"/><path class="cls-11" d="M331.64,225.8s4.95,2.88,6.4,7"/><path class="cls-11" d="M307.33,193.31s-7.41-6-14.23,2.59c-6,7.6-9.26,20.17-9.26,20.17"/><path class="cls-11" d="M310.86,197.89a9.43,9.43,0,0,1,9.67-1.21c5.3,2.06,7,8.51,9.7,16.8a30.66,30.66,0,0,0,6.24,10"/><path class="cls-11" d="M306.57,200.16a7,7,0,0,0-6.45-.31s-4.91,1.81-8.82,9.5a102.69,102.69,0,0,0-5.59,14.41"/><path class="cls-7" d="M81.79,98.65V108H63.73V98.65S58,94.5,57.39,85.45c0,0,3.32-1.41,3.83-3.64.69-3,.73-11.7.73-11.7H83.27s-.68,8.51,1.18,12.26a7,7,0,0,0,3.37,3.08S85.69,96.18,81.79,98.65Z"/><rect class="cls-18" x="63.42" y="107.87" width="18.37" height="22.74"/><path class="cls-7" d="M63.42,98.65s-5.06-3.6-6-13.2l-7,3.29,3.67,16.53-1.21,25.34H63Z"/><path class="cls-7" d="M81.79,98.65s5.06-3.6,6-13.2l7,3.29-3.67,16.53,1.21,25.34H82.17Z"/><path class="cls-7" d="M53.63,130.61H19.06S22.55,113.15,29,103.5c0,0,9.22-11,19.63-14.8l1.21-5.44s7.23-4.07,12-4.09c0,0-.84,2.85-1.39,4.3L52.84,88s1.43,8.58,2,11.11a105.24,105.24,0,0,1,.89,17.46C55.43,120.37,53.63,130.61,53.63,130.61Z"/><path class="cls-7" d="M91.59,130.61h34.57s-3.49-17.46-9.9-27.11c0,0-9.22-11-19.62-14.8l-1.22-5.44s-7.23-4.07-12-4.09c0,0,.84,2.85,1.39,4.3L92.38,88s-1.43,8.58-2,11.11a105.5,105.5,0,0,0-.88,17.46C89.78,120.37,91.59,130.61,91.59,130.61Z"/><path class="cls-10" d="M42.51,48.44c-4.76-2.26-7.76-7.91-8.34-9.34-2.07-5.1-.84-9,2.43-14.88,3.58-6.47,12.52-15.47,18.06-18,7-3.18,29.39-7.65,37.72-3.52C99,6,106.2,16.47,109.27,22.36c2.83,5.42,5.73,9.1,3.79,14s-9.87,12.26-9.87,12.26A28.61,28.61,0,0,1,91.05,52.3C83.86,52.85,42.51,48.44,42.51,48.44Z"/><path class="cls-19" d="M93.7,77.63a13.92,13.92,0,0,1,.48-6.36,12,12,0,0,0,3.07,6.41h4.19a15.62,15.62,0,0,1,0-7.32c.28,3.44,3.7,6.38,3.7,6.38S103.58,70.13,106,65s2.27-7,.88-13.23c-1-4.67-2.55-15.51-2.55-15.51a27.17,27.17,0,0,0-7.55-5.37,33.14,33.14,0,0,0-9-2.29c-.6,5.35,7.36,20.7,6.32,22.59-1.65,3-9.91,19.18-9.91,19.18s-1.16,4.1-.81,6.34c0,0,3.84.5,4.7.77A39.21,39.21,0,0,0,93.7,77.63Z"/><path class="cls-9" d="M96,39.44a74.87,74.87,0,0,0,1.22,8.07s1.28-6.43,2.44-8.35a2.59,2.59,0,0,1,2.32-.67c3.62,1.19,1.13,9.29,0,12.26-1.89,4.92-4.82,3.17-4.82,3.17S94.43,62,91,66.42s-7,8.63-13.77,11.21a11.33,11.33,0,0,1-9.19,0A34.45,34.45,0,0,1,54.23,66.42C50.74,62,48,53.92,48,53.92s-2.93,1.75-4.81-3.17C42,47.78,42.55,39.16,44.6,38c2.83-1.62,2.15,1.87,2.15,1.87l.64-7c2.51-1.71,8.27-3.38,10-4s10.09-2.67,20.9-1.56c2.42.25,7.49.59,9.58,1.31,0,0,.56,4.73,3.59,7.48S96,39.44,96,39.44Z"/><path class="cls-11" d="M83.62,74.1c-.58.42-.75,8.49,2,10.14L92.38,88"/><path class="cls-2" d="M69.07,64.1a20.74,20.74,0,0,0,7,0c2.38-.36,2.07-2.12,0-1.88a34.41,34.41,0,0,1-7,0C67.1,62,66.74,63.66,69.07,64.1Z"/><path class="cls-11" d="M83.42,79.17c8.89.89,12,4.09,12,4.09s1,4.09,2.08,5.42A149.19,149.19,0,0,1,113,100.05c6.31,5.54,10.16,17.31,13.14,30.24"/><path class="cls-11" d="M71.71,47.51a21.73,21.73,0,0,1-1.56,7.75,5.06,5.06,0,0,0,5,.27"/><path class="cls-11" d="M61.55,74.1c.58.42.75,8.49-2,10.14"/><path class="cls-2" d="M62.09,45.77a1.32,1.32,0,0,1-2.35,0,2.91,2.91,0,0,1,0-3.11,1.35,1.35,0,0,1,2.35,0A2.87,2.87,0,0,1,62.09,45.77Z"/><path class="cls-2" d="M63,38.3a7.43,7.43,0,0,0-4.18,0c-1.41.36-1.23,2.13,0,1.88a12.22,12.22,0,0,1,4.18,0C64.2,40.43,64.42,38.74,63,38.3Z"/><path class="cls-19" d="M57.34,28.88s-5.41,9-5.55,14.88,1.53,11.94,4.56,19.93c1.89,5,2,7,1,12.45A10.06,10.06,0,0,1,54,74.9s-2,2.78-6.48.74a9.51,9.51,0,0,0-5.27-.74L37,74.1s4.3-6.09,3.54-19.85a43,43,0,0,1,2.65-17.07s2.28-3.3,4.23-4.27C49.92,31.63,57.34,28.88,57.34,28.88Z"/><path class="cls-11" d="M92.38,84.73A37.46,37.46,0,0,1,91,96.53c-1.86,7-2.13,24,.64,33.76"/><path class="cls-11" d="M95.42,83.26a84.93,84.93,0,0,0,3.66,13.28L93,105.36l9.11,11.1a31.48,31.48,0,0,0-7.35,11.48"/><path class="cls-11" d="M87.82,85.45s-.65,8.52-6,13.2v31.64"/><path class="cls-11" d="M61.6,74.1c.57.42.75,8.49-2,10.14L52.84,88"/><path class="cls-11" d="M61.8,79.17c-8.89.89-12,4.09-12,4.09s-.57,4.57-2.08,5.42c-7,3.94-9,5.06-15.51,11.37-6,5.84-10.17,17.31-13.14,30.24"/><path class="cls-2" d="M83.12,45.77a1.32,1.32,0,0,0,2.35,0,2.87,2.87,0,0,0,0-3.11,1.35,1.35,0,0,0-2.35,0A2.89,2.89,0,0,0,83.12,45.77Z"/><path class="cls-2" d="M82.19,38.3a7.46,7.46,0,0,1,4.19,0c1.41.36,1.23,2.13,0,1.88a12.28,12.28,0,0,0-4.19,0C81,40.43,80.8,38.74,82.19,38.3Z"/><path class="cls-11" d="M52.84,84.24a40,40,0,0,0,1.43,12.29c1.86,7,2.13,24-.64,33.76"/><path class="cls-11" d="M49.79,83.26a85.06,85.06,0,0,1-3.65,13.28l6.13,8.82-9.11,11.1a31.62,31.62,0,0,1,7.35,11.48"/><path class="cls-11" d="M57.39,85.45s.66,8.52,6,13.2v31.64"/><line class="cls-11" x1="81.79" y1="107.87" x2="63.42" y2="107.87"/><path class="cls-11" d="M54,74.9a28.05,28.05,0,0,0-2-12.71"/><path class="cls-11" d="M46.68,39.16A84.38,84.38,0,0,0,46,63.3c1.29,9.85,1.45,12.34,1.45,12.34"/><path class="cls-11" d="M106.2,39.81s.22-2.25-4.14-5.54c0,0-3.54-3.85-12.53-5.53-16.9-3.17-28.61-2.33-40.16,3.35a21.68,21.68,0,0,0-9.47,8.77"/><path class="cls-11" d="M104.52,76.14s-6-4.45-1.5-18.74"/><path class="cls-11" d="M96.18,76.14A9.92,9.92,0,0,1,95.12,66a25.87,25.87,0,0,0,2.07-12"/><path class="cls-9" d="M209,119.36l-56.6-1.24c-4.3-8.63-1.21-20.72-1.21-20.72a83.55,83.55,0,0,0,17.32-9.32c2.61-1.57,2.45-9.22,1.91-9.61,0,0-.11-3.67,1.44-4.66h16.82c2.35.86,2.65,4.66,2.65,4.66-.55.39-.71,8,1.9,9.61,0,0,10.31,5.81,17.31,9.32C210.53,97.4,214.57,113.26,209,119.36Z"/><path class="cls-9" d="M203.22,27.48h-42.9A58.33,58.33,0,0,0,156.37,46s-.46-2.27-3.39-1.31c-3.44,1.13-1.08,8.81,0,11.63,1.78,4.66,4.56,3,4.56,3s2.61,7.67,5.92,11.85,6.61,8.18,13,10.62a14.18,14.18,0,0,0,4.33.88,14.7,14.7,0,0,0,4.38-.88c6.43-2.44,9.74-6.44,13.05-10.62s5.91-11.85,5.91-11.85,2.79,1.66,4.57-3c1.08-2.82,3.43-10.5,0-11.63-2.93-1-3.39,1.31-3.39,1.31S206.55,34.91,203.22,27.48Z"/><path class="cls-4" d="M234.31,131.73c-3-12.25-6.82-23.41-13.12-28.66a87.56,87.56,0,0,0-10.66-5.67s-8.68,14.47-29.67,14.47S151.18,97.4,151.18,97.4a87.56,87.56,0,0,0-10.66,5.67c-6.29,5.25-10.14,16.41-13.11,28.66Z"/><path class="cls-7" d="M154.46,108.65a5.32,5.32,0,1,0,10.64,0h0a34.85,34.85,0,0,1-7.77-4.69A5.3,5.3,0,0,0,154.46,108.65Z"/><ellipse class="cls-7" cx="212.32" cy="124.13" rx="5.32" ry="5.33"/><path class="cls-7" d="M139,123.09a5.3,5.3,0,0,0-4.18,8.59h8.36a5.3,5.3,0,0,0-4.18-8.59Z"/><path class="cls-7" d="M145.61,107.18a3.72,3.72,0,0,0,.52-7.4c-1.5.81-2.92,1.63-4,2.24a3.8,3.8,0,0,0-.29,1.43A3.73,3.73,0,0,0,145.61,107.18Z"/><path class="cls-7" d="M186.63,116.11a3.73,3.73,0,0,0,3.73-3.73,3.68,3.68,0,0,0-.35-1.56,40.35,40.35,0,0,1-7,.94,4.2,4.2,0,0,0-.06.62A3.73,3.73,0,0,0,186.63,116.11Z"/><path class="cls-7" d="M159.78,119.36a3.73,3.73,0,1,0,3.72,3.73A3.73,3.73,0,0,0,159.78,119.36Z"/><path class="cls-7" d="M198.58,129.06a3.73,3.73,0,1,0-6.37,2.62h5.3A3.75,3.75,0,0,0,198.58,129.06Z"/><path class="cls-7" d="M222,115.75a3.73,3.73,0,0,0,7.45.06q-.58-1.44-1.2-2.79a3.71,3.71,0,0,0-6.25,2.73Z"/><path class="cls-7" d="M150.53,114.51a2.46,2.46,0,1,0-2.46,2.47A2.46,2.46,0,0,0,150.53,114.51Z"/><path class="cls-7" d="M200.76,121.08a2.47,2.47,0,1,0-2.46-2.46A2.46,2.46,0,0,0,200.76,121.08Z"/><path class="cls-7" d="M170.44,126a2.47,2.47,0,1,0,2.46,2.46A2.46,2.46,0,0,0,170.44,126Z"/><circle class="cls-7" cx="168.47" cy="116.15" r="1.97"/><path class="cls-7" d="M216.45,116.89a2,2,0,1,0-2-2A2,2,0,0,0,216.45,116.89Z"/><circle class="cls-7" cx="224.03" cy="126.81" r="2.46"/><path class="cls-7" d="M220.1,108.13a2.47,2.47,0,1,0-2.46-2.47A2.47,2.47,0,0,0,220.1,108.13Z"/><path class="cls-7" d="M135.84,113a3.21,3.21,0,1,0,3.2,3.2A3.2,3.2,0,0,0,135.84,113Z"/><path class="cls-7" d="M207,109.83a4.16,4.16,0,0,0,.1-8.32,34.6,34.6,0,0,1-4.2,3.56,3.8,3.8,0,0,0-.06.59A4.17,4.17,0,0,0,207,109.83Z"/><path class="cls-7" d="M178.62,118.62a3.2,3.2,0,1,0,3.2,3.2A3.2,3.2,0,0,0,178.62,118.62Z"/><circle class="cls-7" cx="149.33" cy="126.59" r="2.46"/><path class="cls-2" d="M184.86,70.07c-3,1-4.76.85-8,0-2.64-.68-2.29-2.36,0-1.78a13.56,13.56,0,0,0,8,0C187,67.62,187.42,69.25,184.86,70.07Z"/><path class="cls-2" d="M182.71,74.15a8.69,8.69,0,0,1-3.73,0c-1.26-.24-1.09-1.41,0-1.25a14.55,14.55,0,0,0,3.73,0C183.76,72.74,184,73.86,182.71,74.15Z"/><path class="cls-11" d="M127.41,131.73c3-12.25,6.82-23.41,13.11-28.66a87.56,87.56,0,0,1,10.66-5.67s8.68,14.47,29.68,14.47S210.53,97.4,210.53,97.4a87.56,87.56,0,0,1,10.66,5.67c6.3,5.25,10.14,16.41,13.12,28.66"/><path class="cls-11" d="M179.84,57.32a13.91,13.91,0,0,1-2.64,5.09,7.5,7.5,0,0,0,6.55.65"/><line class="cls-20" x1="178.62" y1="45.79" x2="183.09" y2="45.79"/><path class="cls-9" d="M165.1,80c-3.81-.4-4.78-3.1-4.78-3.1a7.08,7.08,0,0,1-6.16.2c-5.46-2-5.95-4.17-5.95-4.17-8.56,1.7-9.17-6.74-9.17-6.74,7.05,2.77,9.13-1.26,8.62-5.75S146,49.6,146,49.6a43.22,43.22,0,0,1,0-11.15,42.46,42.46,0,0,1,6.7-16.32s2.81-8,10.44-12c15.48-8.23,22.59,0,22.59,0s9.41-5,17.34.52c5.47,3.81,9.52,12.28,9.52,12.28s4.92,6.75,5.88,14.15c1,8-.79,12.12-.79,12.12s-2,7.41-3,12.35c-.83,4.44,4.79,7.39,9.31,4.79,0,0-3.9,8.27-10.53,6.57a7,7,0,0,1-4.43,4.49,13.74,13.74,0,0,1-7.83-.52,11.34,11.34,0,0,1-5.36,3.31,6.06,6.06,0,0,1-4.75-.77,81.83,81.83,0,0,0,7.14-8.21,39.45,39.45,0,0,0,5-9.56S206,51.39,205.23,49s-2.68-11.06-2.68-11.06a19.65,19.65,0,0,1-5,.77,20.94,20.94,0,0,1-10.16-2.31,14.84,14.84,0,0,1-4.61-4.12,7.8,7.8,0,0,0,2.91,6c-9,3.27-14.08-2.35-14.08-2.35s-.55,1.7-4,2.48-8.54-.78-8.54-.78S157.27,46.6,156.48,49s1.92,12.64,1.92,12.64a45,45,0,0,0,7.72,12.78A44.52,44.52,0,0,0,171,78.86S169.05,80.37,165.1,80Z"/><path class="cls-21" d="M155.42,45.72s3.65-3.19,12.66-3.19a19.72,19.72,0,0,1,10.36,3.26v7.49s-2.89,4.81-10.36,4.81A19.17,19.17,0,0,1,156.37,54Z"/><path class="cls-21" d="M206.3,45.72S203,42.53,194,42.53a21.72,21.72,0,0,0-10.7,3.26v7.49s2.9,4.81,10.36,4.81A19.21,19.21,0,0,0,205.35,54Z"/><path class="cls-11" d="M191.13,25.78S194,37,201.83,37.67a15.49,15.49,0,0,0,8.41-1.7"/><path class="cls-11" d="M182.82,32.27a11.91,11.91,0,0,1-.77-11.84"/><path class="cls-11" d="M173.19,21.67S168.41,30,171.65,36"/><path class="cls-11" d="M209.51,61.27s-2.63,8.69,4,11.62"/><path class="cls-11" d="M201.24,76.86s3.14-3.24,2.34-9.21"/><path class="cls-11" d="M148.21,72.89s6.24-1.71,6.25-7"/><path class="cls-11" d="M160.32,76.86a11,11,0,0,1-1.68-6.11"/><path class="cls-2" d="M171.71,50.64a1.25,1.25,0,0,1-2.23,0,2.74,2.74,0,0,1,0-3,1.28,1.28,0,0,1,2.23,0A2.76,2.76,0,0,1,171.71,50.64Z"/><path class="cls-2" d="M190,50.64a1.25,1.25,0,0,0,2.23,0,2.76,2.76,0,0,0,0-3,1.28,1.28,0,0,0-2.23,0A2.74,2.74,0,0,0,190,50.64Z"/><path class="cls-9" d="M491,462.46c-8.1.52-14.15-22.71-14.15-22.71,2.54-5,0-13.37,0-13.37s.53-5,3.21-5h22.55c3.39,0,2.6,5,2.6,5s-2.55,8.41,0,13.37C505.19,439.75,496.79,462.09,491,462.46Z"/><path class="cls-22" d="M469.76,482.47h42.43s-2.47-26.83-2.68-30.28-1.94-15.83-1.94-15.83L505,434s-2.65,7.43-14,16c0,0-7.87-7.06-9.89-8.81s-4.28-8.08-4.28-8.08l-2,2.75S469.86,480.18,469.76,482.47Z"/><path class="cls-9" d="M509.65,360.11H477.53c-13.75,12.3-10.55,30-10.55,30-1.54-3.71-4.63-1.73-5.07-.14s-.74,9.14,1.15,13.57c1.55,3.64,4.15,3,4.15,3s2.86,16.38,8,21.8c0,0,4.93,5.3,15.73,5.3s15.79-5.3,15.79-5.3c5.18-5.42,8-21.8,8-21.8s2.6.66,4.15-3c1.89-4.43,1.59-12,1.15-13.57s-3.53-3.57-5.07.14C515,390.08,518.52,370.34,509.65,360.11Z"/><path class="cls-11" d="M468.63,475.79c0-13.42,5.11-36.89,5.82-39.43l2.25-3.3s1.66,5,3.45,7C483.45,443.88,491,450,491,450a65.41,65.41,0,0,0,10.87-9.86,21.7,21.7,0,0,0,3.45-7l2.25,3.3s6.78,32.42,7,39.43"/><path class="cls-9" d="M427.57,482.47c1.1-6.9,4.13-21,10.24-24.34,8.76-4.78,26.32-12.6,26.32-12.6l7.25-8.95a8.76,8.76,0,0,1,3.49-1,444.49,444.49,0,0,0-5,46.86"/><path class="cls-9" d="M554.45,482.47c-3.53-12.93-4-20-10.24-24.34-8.19-5.71-26.32-12.6-26.32-12.6l-7.25-8.95a8.76,8.76,0,0,0-3.49-1,444.49,444.49,0,0,1,5,46.86"/><path class="cls-2" d="M478.07,414.24a7.47,7.47,0,0,1,2.8-3.1c1.22-.81,2.49-.07,1.48.68a15.55,15.55,0,0,0-2.89,3.69C478.85,416.54,477.46,415.57,478.07,414.24Z"/><path class="cls-2" d="M483.29,388.31c-2-1-5.29-2-6.78-1.73-2.33.44-1.49,3.87-.21,3.62a34,34,0,0,1,7,0C484.51,390.44,484.62,389,483.29,388.31Z"/><path class="cls-2" d="M494.09,423.08a20,20,0,0,1-6.18,0c-2.09-.29-1.82-2.1,0-1.9a33.57,33.57,0,0,0,6.18,0C495.83,421,496.15,422.72,494.09,423.08Z"/><polyline class="cls-11" points="464.13 445.53 458.95 453.22 467.49 457.63 456.47 464.27 465.42 482.47"/><path class="cls-2" d="M482,396.85a1.9,1.9,0,1,1-1.86-2.33A2.15,2.15,0,0,1,482,396.85Z"/><path class="cls-9" d="M520.07,378.31c-.31,2.86-1.22,10.08-1.22,10.08s-1.32-1-2.33,1.05c-.43.88-1.94,9.85-1.94,9.85s.2-13.87,0-16,0-6.89-.88-8.49a63.85,63.85,0,0,0-4.81-6l1.88-.53c-2-3-7.28-3.51-7.28-3.51l-3.42-2.44-3.41,1.59-2.32-2-2.2,2.44-6.62-1-1.1,2.23-4.68-.42v3.18l-6.45,1.49a40.67,40.67,0,0,0-4.69,10.5c-.39,2.23-1.93,18-1.93,18s-.22-4.77-.55-7.11a4.76,4.76,0,0,0-2.53-3.36c-.45-1.67-.44-8.77,0-12.45.65-5.51,6.34-11.74,7.38-13.26,1.66-2.45,8.49-7,14.44-8.39a29.84,29.84,0,0,1,9.37-1s1.88-2,7.54-2c2.37,0,7.2,5.06,7.2,5.06s4.49,1.87,5.59,4.2,1.13,6.95,1.13,6.95A12.2,12.2,0,0,1,519,371a4.17,4.17,0,0,1-.44,3.29A5.35,5.35,0,0,1,520.07,378.31Z"/><path class="cls-2" d="M491.05,410.72a6.25,6.25,0,0,1-4.71-2.11,1.11,1.11,0,0,1,.17-1.55,1.09,1.09,0,0,1,1.54.17,4,4,0,0,0,3.14,1.28,3.94,3.94,0,0,0,3-1.19,1.11,1.11,0,0,1,1.54-.22,1.1,1.1,0,0,1,.24,1.52,6,6,0,0,1-4.68,2.09Z"/><path class="cls-2" d="M491,417.54a15.82,15.82,0,0,1-8.2-2.15,1.1,1.1,0,0,1-.19-1.55,1.09,1.09,0,0,1,1.54-.19h0a12.22,12.22,0,0,0,13.7,0,1.1,1.1,0,0,1,1.35,1.74A15.82,15.82,0,0,1,491,417.54Z"/><path class="cls-11" d="M509.5,355.91a9.23,9.23,0,0,0-7.89-2.7c-5,.64-9.49,11.09-9.49,11.09"/><path class="cls-11" d="M496.64,363.87s6.63-6.74,11.9-7.52"/><path class="cls-11" d="M494.76,352.83a11.5,11.5,0,0,0-3.95,10.41"/><path class="cls-2" d="M498.73,388.31c2-1,5.29-2,6.78-1.73,2.33.44,1.49,3.87.21,3.62a34,34,0,0,0-7,0C497.51,390.44,497.39,389,498.73,388.31Z"/><polyline class="cls-11" points="517.89 445.53 523.07 453.22 514.53 457.63 525.54 464.27 516.6 482.47"/><ellipse class="cls-2" cx="501.87" cy="396.85" rx="1.85" ry="2.33"/><path class="cls-11" d="M491,450s-5.29-.25-6.94-.07-12,10.54-12,10.54"/><path class="cls-11" d="M489.1,363.24a10.55,10.55,0,0,0-9.46-7.33"/><path class="cls-11" d="M479.72,365.15s-8.07-1.19-12.7,2.3"/><path class="cls-11" d="M485.5,363.34s-7.22-4.84-13.92-1.93"/><path class="cls-11" d="M473.27,369.82a16.7,16.7,0,0,0-9.7,5.62"/><path class="cls-11" d="M500.05,362.28s9.31-4.67,15.32-.11"/><path class="cls-11" d="M510.09,367.45s7.45,4.56,9.09,7.62"/><path class="cls-2" d="M472.71,371.26s-6.51,5.26-9.14,9.88v6.75A8.08,8.08,0,0,1,467,393l1.84-13.75Z"/><path class="cls-2" d="M511.46,371.81a47.58,47.58,0,0,1,7.74,9.33v6.75a8.08,8.08,0,0,0-3.45,5.1l-1.52-16.08Z"/><path class="cls-2" d="M504,414.24a7.49,7.49,0,0,0-2.81-3.1c-1.21-.81-2.48-.07-1.48.68a15.3,15.3,0,0,1,2.89,3.69C503.17,416.54,504.57,415.57,504,414.24Z"/><path class="cls-11" d="M491,450s5.36-.25,7-.07S510,460.42,510,460.42"/><line class="cls-9" x1="487.73" y1="455.12" x2="487.73" y2="482.47"/><line class="cls-9" x1="487.73" y1="454.42" x2="491" y2="449.95"/><path class="cls-9" d="M80.81,264.59c-3.53-1.65-4.07-22.13-3.38-22.55H50.74c.69.42.16,20.9-3.38,22.55l-7.42,4.46,24.15,14L88,269.6Z"/><path class="cls-9" d="M89.93,212.85s.48-2.39,3.58-1.37c3.62,1.19,1.13,11.43,0,14.4-1.89,4.91-4.82,3.17-4.82,3.17s-4.94,8.21-8.08,12.62-9.3,8-11.93,8.94a14.05,14.05,0,0,1-9.19,0c-2.65-1.08-8.79-4.53-11.93-8.94s-8.08-12.62-8.08-12.62-2.93,1.74-4.81-3.17c-1.14-3-3.63-13.21,0-14.4,3.09-1,3.58,1.37,3.58,1.37s.43-16.19,3.18-21.7,22.85-13.37,22.85-13.37,15,3.44,21.75,11.16S89.93,212.85,89.93,212.85Z"/><path class="cls-2" d="M70.32,208c1.39-.44,5.06-2.21,8.18-1.65,1.44.26,1.51,2.85.27,2.66-2.83-.45-7.28.63-8.45.87S68.92,208.39,70.32,208Z"/><path class="cls-2" d="M55.74,216.66a3.58,3.58,0,0,1-3.35,0s-.75-1.49,0-2.43a2.39,2.39,0,0,1,3.35,0A1.74,1.74,0,0,1,55.74,216.66Z"/><path class="cls-2" d="M57.85,208c-1.39-.44-5.06-2.21-8.18-1.65-1.44.26-1.52,2.85-.28,2.66,2.84-.45,7.29.63,8.46.87S59.24,208.39,57.85,208Z"/><path class="cls-2" d="M68.73,238.34a11.45,11.45,0,0,1-9.28,0c-3-1.1-2.57-3.32,0-2.38a11.61,11.61,0,0,0,9.28,0C71.19,235.07,71.63,237.21,68.73,238.34Z"/><path class="cls-10" d="M33.34,189.81c.38-5.68,2.06-7.95,3.85-11.26s5.17-6,9.45-7.76c7.51-3.12,11.53.22,11.53.22a23.09,23.09,0,0,1,9-3.48,24.69,24.69,0,0,1,10.82.53,33.66,33.66,0,0,1,11.69,6.27c3.55,3.06,6.7,5.89,6.15,12.12-.38,4.24,1.14,5,1.14,5s3.13,3.45,4.09,6.75.53,5-.64,8,1.37,5.62,1.37,5.62c-2.46,1.43-5-1.95-5-1.95s-1.27,1.64,1.4,5a4,4,0,0,1-.24,5.6,10.53,10.53,0,0,0-5.85-4.22c-2.68,1.28-1.4,5-1.4,5-4.4-2.09-3.57-7.7-3.57-7.7,0,3.41-3.73,4.84-3.73,4.84,1.24-1.52.47-6.79-4.9-8-4.26-1-1.54-5.72-2.38-8.35a3.83,3.83,0,0,0-4.17-2.89c2,8.53-3.22,11.24-3.22,11.24,1-1.1,2.34-6-.28-7.66-4.17-2.62-3.77-7.17-4.16-8.41s-1-4.68-4.45-6.06c0,0-3.6-1.79-7.77,1.61-1.69,1.39-3.54,4.05-3.54,8.86,0,3.77-2.33,5.23-2.33,5.23a5.76,5.76,0,0,0-2.53,6.43c1.07,5.06-3.72,4.29-4.18,11.38,0,0-2.47-9.14-3.06-10.49,0,0-3.83-.13-3.65,3.63s-1.09,5.81-4.53,6.39c0,0,3.58-3.07,1.52-5.93s-4.48-8.92-1.58-15.07C29.83,196.71,32.77,198.26,33.34,189.81Z"/><path class="cls-9" d="M63,219a30.55,30.55,0,0,1-1.65,10.38s2.94,2.27,5.14.32"/><path class="cls-9" d="M127.13,305.91c-3.51-12.92-8-24.7-15.47-30.24S84,264.59,84,264.59L78.54,255l-14.62,15.2L49.63,255l-5.45,9.64s-20.25,5.54-27.67,11.08S4.55,293,1,305.91"/><circle class="cls-2" cx="64.06" cy="278.33" r="2.31"/><circle class="cls-2" cx="64.06" cy="299.55" r="2.31"/><polyline class="cls-9" points="63.92 270.15 52.18 283.01 44.18 264.59"/><path class="cls-2" d="M72.42,216.66a3.58,3.58,0,0,0,3.35,0s.75-1.49,0-2.43a2.39,2.39,0,0,0-3.35,0A1.76,1.76,0,0,0,72.42,216.66Z"/><polyline class="cls-9" points="64.25 270.15 75.99 283.01 83.99 264.59"/><line class="cls-11" x1="59.06" y1="275.3" x2="59.06" y2="305.91"/><path class="cls-11" d="M57.37,178.69s-6.06-1.67-12,4.68a14.68,14.68,0,0,0-3.49,13.17c.41,1.79.45,3.6-1.89,6.13s-2,5.35-1.1,8.92c0,0-1.07,3.92-.39,6.39"/><path class="cls-11" d="M32.77,214.85s1.5-4.19,0-7.36-.81-6.06,2.36-8.4,2.34-5.18,2.47-9.28,1.93-9.17,7.44-11.32"/><path class="cls-11" d="M71.94,199.09a8.41,8.41,0,0,0-1.62-3.59c-1.19-1.24-.19-4-1-7.16s-5.09-5.79-10.29-3.72"/><path class="cls-11" d="M61.75,179.52s7.6-1.74,11.65,2.34c4.45,4.5.22,8.62,2.71,11.44,3,3.37,3.53,1.93,5.21,5.79,1.15,2.67-2.82,7.21,1.71,8.93,7.09,2.7,2.33,9.13,2.33,9.13"/><path class="cls-11" d="M81.38,179.15c.77.23,7.47,5.27,7.3,12.33s-2.34,9.81,0,11.47,6.72,6.91,1.89,15"/><path class="cls-11" d="M96.78,209.86s1.53-7.74-5.21-10.77"/><path class="cls-23" d="M216.24,443.56h11.69c2.5,0,2.1,2.85,2.1,2.85-.4.35-.52,8.11,1.4,9.49a96.68,96.68,0,0,0,12.07,8.38c5.28,3.12-13.2,12.05-13.2,12.05H216.94S201,463,203.72,461.46c6.82-3.78,9.54-5.56,9.54-5.56,1.92-1.38,1.8-9.14,1.4-9.49C214.66,446.41,214.76,443.56,216.24,443.56Z"/><path class="cls-7" d="M258.07,482.92c-1.83-8.57-2.86-11.62-7.75-15.78A85.38,85.38,0,0,0,239.39,460c-1-1.12-1.67-1.14-1.67-1.14s-3.91,8.52-15.92,8.52-15.88-8.52-15.88-8.52-.69,0-1.67,1.14a78.67,78.67,0,0,0-10.93,7.19c-5,4.08-6,7.21-7.75,15.78Z"/><path class="cls-2" d="M244.44,440.69S239,449.5,238,453.56a5.87,5.87,0,0,1-2.16-1.76,7.73,7.73,0,0,0-1.16,3.35s-7-3.32-6.71-7.42c.26-3,2.59-9.85,2.59-9.85l9.68-.62S244.92,437.89,244.44,440.69Z"/><path class="cls-2" d="M199.64,440.69s6.49,8.95,7.49,13a6.48,6.48,0,0,0,1.66-3.11,13.68,13.68,0,0,1,1.8,4.56s6.07-2.39,6.33-5.39-3.24-11.88-3.24-11.88l-9.68-.62S199.16,437.89,199.64,440.69Z"/><path class="cls-23" d="M244.92,429s.68-1.85,1.81-1.85c3.19,0,1,9.07,0,11.55-1.58,4.12-4,2.66-4,2.66a15.69,15.69,0,0,1-4.61,5.83c-3.72,2.94-6.62,4.07-12.14,6.63a9.53,9.53,0,0,1-7.69,0c-5.59-2.54-9-3.74-12.14-6.63a18.91,18.91,0,0,1-4.61-5.83s-2.46,1.46-4-2.66c-.95-2.48-3-10.55,0-11.55,2.59-.85,3,1.15,3,1.15s2.19-16.06,6.05-21.13,16.23-6.58,16.23-6.58,13,2.77,16.41,7S244.92,429,244.92,429Z"/><path class="cls-2" d="M214.21,434.46a1.45,1.45,0,0,1-2.36,0,2.07,2.07,0,0,1,0-2.6,1.49,1.49,0,0,1,2.36,0A2.09,2.09,0,0,1,214.21,434.46Z"/><path class="cls-2" d="M223.66,437.89a2.67,2.67,0,0,1-3.15,0c-.93-.74-.93-2,0-1.73a7.6,7.6,0,0,0,3.15,0C224.55,435.93,224.9,437,223.66,437.89Z"/><path class="cls-2" d="M226.76,444.25a14.38,14.38,0,0,1-9.17,0c-1.91-.69-1.29-2.06.39-1.58a14.19,14.19,0,0,0,8.24,0C228.05,442.1,228.41,443.58,226.76,444.25Z"/><path class="cls-2" d="M230,434.46a1.45,1.45,0,0,0,2.36,0,2.07,2.07,0,0,0,0-2.6,1.49,1.49,0,0,0-2.36,0A2.08,2.08,0,0,0,230,434.46Z"/><path class="cls-2" d="M229.16,425a7.82,7.82,0,0,1,5.34.07c1.19.3,1,1.78,0,1.58a9.09,9.09,0,0,0-5-.12C228.21,427,228,425.36,229.16,425Z"/><path class="cls-24" d="M239.84,409.35s.92,8.76,5.76,14.45"/><path class="cls-24" d="M246.53,414.08a21.84,21.84,0,0,1,.69,18.81"/><polygon class="cls-2" points="207.42 460.28 204.85 460.28 204.85 458.59 205.98 458.3 207.42 460.28"/><polygon class="cls-2" points="236.22 460.28 238.78 460.28 238.78 458.59 237.66 458.3 236.22 460.28"/><polygon class="cls-2" points="238.78 460.27 240.55 460.27 238.78 459.17 238.78 460.27"/><path class="cls-24" d="M258.07,482.92c-1.83-8.57-2.86-11.62-7.75-15.78A85.38,85.38,0,0,0,239.39,460c-1-1.12-1.67-1.14-1.67-1.14s-3.91,8.52-15.92,8.52-15.88-8.52-15.88-8.52-.69,0-1.67,1.14a78.67,78.67,0,0,0-10.93,7.19c-5,4.08-6,7.21-7.75,15.78"/><path class="cls-2" d="M214.48,425a7.82,7.82,0,0,0-5.34.07c-1.19.3-1,1.78,0,1.58a9.09,9.09,0,0,1,5-.12C215.43,427,215.65,425.36,214.48,425Z"/><path class="cls-2" d="M207.78,428.54a56.62,56.62,0,0,0,8.35-6.7,21.8,21.8,0,0,0-.76,4.07,39.85,39.85,0,0,0,6.77-5.59l.26,5.59c6.84-7.46,9.46-12.18,9.46-12.18,1.49,2.36,3.49,7.89,10.23,15.11,1.38,1.48,1.32,3.62.63,9,0,0,2.85-3.23,3.24-5.31,0,0-.16-.05.33,1.94s3.62,3.95,3.62,3.95c9.08-21.25,2-33-4.31-39.68A18.17,18.17,0,0,0,228,393.24s-5.2-3.64-15.8.34c-13.71,5.16-16.88,15-18.08,23-1.18,7.84,0,19,0,19,2.12-1.53,4.92-3.3,4.92-3.3a15,15,0,0,0,2.63,5.39l.44-6.82s5-4,6.49-5.62Z"/><path class="cls-2" d="M292.33,393s-4.08,6.9-5.93,10.72-2.2,8.74,2,10.8,2.91,3.78,2.38,6.6.69,6.27,3.71,7.31c0,0,5.16,2.26,2.5,8.13-2.5,5.51,2.66,9.37,2.66,9.37s.27-5,4.4-7c7.1-3.55,8.4,6.75,13.91-1.83S320.74,409,320.74,409l-8.23-18.72Z"/><path class="cls-2" d="M347.37,371.42c-2.64-11.36-7.51-16.95-12.56-20.68a11.92,11.92,0,0,0-11.94-1.51s-4.78-3-9.37-2.41c-17.08,2.19-25.91,17.47-27.61,23.43a40.55,40.55,0,0,0,3,25.55c6.29,13,25.37,14.43,25.37,14.43l25.2-9.75S350.59,385.32,347.37,371.42Z"/><path class="cls-9" d="M343,441.43l-11.89-7.76c-4.53-5.07-3-15.44-2.48-15.86,0,0,1.58-6.91-2.05-6.91H306c-2.36,0-2.1,6.91-2.1,6.91.55.42,2.05,10.79-2.48,15.86l-11.89,7.76s11.85,19.88,26.76,19.88S343,441.43,343,441.43Z"/><path class="cls-9" d="M341.7,389a4,4,0,0,0-2.62-.14c.09-.72.15-1.15.15-1.15s-.34-11.2-4.56-17S320.55,358,320.55,358s-18.91,6.41-21.38,10.81-5.82,18.9-5.82,18.9l.16,1.16a4,4,0,0,0-2.64.13c-5.89,2.22-.93,12.43.74,14.77a4.33,4.33,0,0,0,4,2c0,.29,2,7.52,2.1,7.78,3.77,8.34,10.62,11.21,13.31,12.68,4.1,2.12,6.77,1.94,10.58,0,2.22-1.06,9.61-5.26,13.31-12.68.13-.26,2.07-7.49,2.1-7.78a4.31,4.31,0,0,0,4-2C342.64,401.4,347.59,391.19,341.7,389Z"/><path class="cls-2" d="M343.78,376.14c-1.2-6.66-8.5-17.29-16-21.08s-19.91-.22-24.54,2.7-13.58,19.16-11.78,38.55c1,10.57,5.14,23.05,5.14,23.05-.39-14.17-.78-23.05-.78-23.05s.26-8.05,3.33-12.73c2-3,4.68-8.35,10.53-11.32a40.87,40.87,0,0,0,11.39-8.87A56.68,56.68,0,0,1,333.41,376c2.56,3.58,3.49,7.2,2.58,14.3-.4,3.08-1,11,1,15.4a13.46,13.46,0,0,1-.09,11.54s5.42-6.72,4.06-13.51c-1.48-7.43-.14-8.49,1.43-13.43A37.78,37.78,0,0,0,343.78,376.14Z"/><path class="cls-2" d="M306.49,395.91a1.32,1.32,0,0,1-2.39,0,3.16,3.16,0,0,1,0-3.29,1.35,1.35,0,0,1,2.39,0A3.19,3.19,0,0,1,306.49,395.91Z"/><path class="cls-2" d="M318.49,417.78a7.94,7.94,0,0,1-4.43,0c-1.49-.39-1.3-2.25,0-2a12.68,12.68,0,0,0,4.43,0C319.73,415.53,320,417.31,318.49,417.78Z"/><path class="cls-2" d="M309.37,386.79a18.47,18.47,0,0,0-9.28.43c-1.44.56-1.06,1.27.24,1,2.78-.61,7.8.32,9,.58S310.84,387.26,309.37,386.79Z"/><path class="cls-2" d="M320.79,412.31c-3.83.59-5.41.75-9,0-3-.62-2.61-2.49,0-2,3.86.74,5.37.81,9,0C323.26,409.77,323.78,411.86,320.79,412.31Z"/><path class="cls-11" d="M313.94,391.89s1.19,7-.37,12.83c0,0,1.67,2.08,5.43.47"/><path class="cls-2" d="M326.09,395.91a1.32,1.32,0,0,0,2.39,0,3.18,3.18,0,0,0,0-3.29,1.35,1.35,0,0,0-2.39,0A3.19,3.19,0,0,0,326.09,395.91Z"/><path class="cls-2" d="M323.21,386.79a18.47,18.47,0,0,1,9.28.43c1.44.56,1.06,1.27-.24,1-2.78-.61-7.8.32-9,.58S321.74,387.26,323.21,386.79Z"/><path class="cls-7" d="M373.13,482.47c-1.23-6.61-3.79-29.34-12.35-35.57-5-3.62-12.59-6.66-17.74-9.93,0,0-3-1.79-8.73-1.24l7.05,4.6S331,457.26,316.28,457.26c-11.08,0-20.69-10.16-25.08-16.93l7.06-4.6c-5.79-.55-8.74,1.24-8.74,1.24-5.14,3.27-12.76,6.31-17.73,9.93-8.56,6.23-11.12,29-12.35,35.57Z"/><polygon class="cls-2" points="287.9 482.47 284.5 482.47 284.5 439.95 287.9 437.95 287.9 482.47"/><polygon class="cls-2" points="277.8 482.47 274.4 482.47 274.4 445.18 277.8 443.08 277.8 482.47"/><polygon class="cls-2" points="267.71 482.47 264.31 482.47 264.31 457.25 267.71 450.89 267.71 482.47"/><polygon class="cls-2" points="307.9 482.47 304.51 482.47 304.51 453.78 307.9 455.53 307.9 482.47"/><polygon class="cls-2" points="297.81 482.47 294.41 482.47 294.41 444.55 297.81 448.36 297.81 482.47"/><polygon class="cls-2" points="344.7 482.47 348.1 482.47 348.1 439.95 344.7 437.95 344.7 482.47"/><polygon class="cls-2" points="354.8 482.47 358.19 482.47 358.19 445.18 354.8 443.08 354.8 482.47"/><polygon class="cls-2" points="364.89 482.47 368.29 482.47 368.29 457.25 364.89 450.89 364.89 482.47"/><polygon class="cls-2" points="324.7 482.47 328.09 482.47 328.09 453.78 324.7 455.53 324.7 482.47"/><polygon class="cls-2" points="334.79 482.47 338.19 482.47 338.19 444.55 334.79 448.36 334.79 482.47"/><rect class="cls-2" x="314.6" y="457.25" width="3.4" height="25.21"/><path class="cls-11" d="M373.13,482.47c-1.23-6.61-3.79-29.34-12.35-35.57-5-3.62-12.59-6.66-17.74-9.93,0,0-3-1.79-8.73-1.24l7.05,4.6S331,457.26,316.28,457.26c-11.08,0-20.69-10.16-25.08-16.93l7.06-4.6c-5.79-.55-8.74,1.24-8.74,1.24-5.14,3.27-12.76,6.31-17.73,9.93-8.56,6.23-11.12,29-12.35,35.57"/><path class="cls-9" d="M291.2,440.33s-2.44-3.5.48-4.22"/><path class="cls-9" d="M341.4,440.33s2.44-3.5-.47-4.22"/><path class="cls-9" d="M135.32,425.11c-.76.42-2.24,10,1.09,11.62,0,0,9.11,6.84,5.25,14.63H99.81c-3.57-8.55,5-14.63,5-14.63,3.33-1.66,1.86-11.2,1.1-11.62a145.19,145.19,0,0,0,14.65.75A147,147,0,0,0,135.32,425.11Z"/><path class="cls-7" d="M139.31,482.28H102v-39.6s9.42,5.27,18.64,5.27c9.5,0,18.64-5.27,18.64-5.27Z"/><path class="cls-11" d="M103.66,443.27a38.14,38.14,0,0,0,17,4.41,39,39,0,0,0,17.07-4.41"/><path class="cls-9" d="M102.57,361.3c-5.65,8.82-7.77,29.58-7.77,29.58s-.49-2.4-3.58-1.38c-3.63,1.19-1.14,9.29,0,12.27,1.88,4.91,4.82,3.16,4.82,3.16s2.75,14.36,6.24,18.77,7,5.52,13.76,8.1a15.52,15.52,0,0,0,9.19,0c7-2.06,10.28-3.69,13.77-8.1s6.24-18.77,6.24-18.77,2.94,1.75,4.82-3.16c1.14-3,3.62-11.08,0-12.27-3.09-1-3.58,1.38-3.58,1.38s-1.1-23.1-8.81-30.27Z"/><path class="cls-2" d="M122.72,423.27a7.46,7.46,0,0,1-4.19,0c-1.41-.36-1.23-2.12,0-1.88a12.28,12.28,0,0,0,4.19,0C123.89,421.15,124.11,422.83,122.72,423.27Z"/><path class="cls-2" d="M111,392.91a1.32,1.32,0,0,1-2.35,0,2.89,2.89,0,0,1,0-3.11,1.35,1.35,0,0,1,2.35,0A2.89,2.89,0,0,1,111,392.91Z"/><path class="cls-2" d="M114.28,383.43c-1.39-.44-7.29-1.82-8.71-1.46s-2,3.23-.16,3.12a80.93,80.93,0,0,1,8.72.77C115.31,386.1,115.68,383.87,114.28,383.43Z"/><path class="cls-2" d="M125.71,418.46a31.5,31.5,0,0,1-10.12,0c-2.59-.38-2.41-2.35,0-1.88a31.24,31.24,0,0,0,10.12,0C128.52,416.09,129,417.83,125.71,418.46Z"/><path class="cls-11" d="M119.64,396.85l-1,8.69c-2.43,1.44-1.91,4.82-.92,5.81,0,0,3.65,1.28,6,.2"/><path class="cls-2" d="M130.3,393.5a1.32,1.32,0,0,0,2.35,0,2.89,2.89,0,0,0,0-3.11,1.35,1.35,0,0,0-2.35,0A2.89,2.89,0,0,0,130.3,393.5Z"/><path class="cls-25" d="M97.55,363.23s-3.93,7.16-4.76,13.23S95.17,398,95.17,398h1.39s-.27-17.83,2.85-23.34l3.26-2.21,2.24-11.11Z"/><ellipse class="cls-11" cx="109.8" cy="392.81" rx="8.41" ry="8.42" transform="translate(-0.43 0.12) rotate(-0.06)"/><path class="cls-2" d="M100.92,393.09l-9-3.9a1.11,1.11,0,0,1,.88-2l8.6,2.54C101.91,389.94,101.06,393.15,100.92,393.09Z"/><path class="cls-2" d="M127,383.43c1.39-.44,7.3-1.88,8.71-1.52s2,3.23.16,3.12a81.19,81.19,0,0,0-8.72.83C126,386.1,125.59,383.87,127,383.43Z"/><path class="cls-25" d="M143.72,363.23s3.93,7.16,4.75,13.23S146.1,398,146.1,398h-1.39s.27-17.83-2.86-23.34l-3.25-2.21-2.25-11.11Z"/><ellipse class="cls-11" cx="131.46" cy="392.81" rx="8.42" ry="8.41" transform="translate(-261.49 523.83) rotate(-89.94)"/><path class="cls-2" d="M140.35,393.09l9-3.9a1.11,1.11,0,0,0-.88-2l-8.59,2.54C139.35,389.94,140.21,393.15,140.35,393.09Z"/><path class="cls-9" d="M104.21,365.47s8.06-1.45,11.24-1.17l.55,1.61s2.91-.67,5.45-1.47l.71,2s5-.86,9.93-1.35l1,1.35c5.23-.33,10.28-.79,11.78-2.38,1.11-1.16,2.6-4-1.24-6.47-4.92-3.14-7.88-7.85-20.37-8.73s-17,3.51-20.56,4.87c-5.38,2-5.92,7.58-5.16,9.51C98.16,364.79,104.21,365.47,104.21,365.47Z"/><path class="cls-11" d="M118.21,392.81a4.05,4.05,0,0,1,4.85,0"/><line class="cls-11" x1="118.21" y1="429.67" x2="119.09" y2="433.69"/><line class="cls-11" x1="123.06" y1="429.67" x2="121.69" y2="433.69"/><line class="cls-11" x1="126.86" y1="428.38" x2="125.23" y2="431.8"/><path class="cls-11" d="M112.86,364.33s-3.34-4.69-1.43-8.54,6.92-7.57,11.84-6.94"/><path class="cls-11" d="M115.45,364.3s-1.43-6.69,2.09-10a23.5,23.5,0,0,1,8.23-4.78"/><path class="cls-11" d="M116,365.91a12.69,12.69,0,0,1,7.06-11.59c7.87-4.11,12.6-2.3,12.6-2.3"/><path class="cls-11" d="M122.16,366.43s-2.69-5.35-.47-8.57,9.78-6.58,9.78-6.58"/><path class="cls-11" d="M123.06,366.28a13.28,13.28,0,0,1,4.66-9.73c5.91-5.27,7.94-4.53,7.94-4.53"/><path class="cls-11" d="M115.16,349.91s-9.15,1.37-8.23,7.67c.5,3.42,3.91,6.72,3.91,6.72"/><path class="cls-2" d="M111.85,364.41s-7.23-1.67-7.91-6c-.82-5.35,9.23-8.9,9.23-8.9s-12.78,4.75-14.51,7.41-1.11,6.33-1.11,6.33a45.43,45.43,0,0,0,6.66,2.24C106,365.71,111.85,364.41,111.85,364.41Z"/><path class="cls-2" d="M123.05,366.88s5.56-7.68,9.12-11.16a37.21,37.21,0,0,1,4.18-3.73s11,6.55,9.76,9.31-1.82,3.23-4.61,4.2-8.4.93-8.4.93l-2.23-1.62Z"/><line class="cls-11" x1="113.58" y1="428.14" x2="116.04" y2="431.8"/><path class="cls-7" d="M55.75,482.41c3.6-12.92,8.31-25.68,16-31.22s26.47-12.13,26.47-12.13c1.1-1.33,6.69-7.77,6.69-7.77s3.31,14.31,4.09,38.18c0,0-.19,9.63,0,12.94Z"/><polygon class="cls-26" points="94.37 439.99 90.98 441.49 90.98 482.41 94.37 482.41 94.37 439.99"/><polygon class="cls-26" points="104.29 431.83 100.89 435.58 100.89 482.41 104.29 482.41 104.29 431.83"/><polygon class="cls-26" points="74.55 449.04 71.16 451.75 71.16 482.41 74.55 482.41 74.55 449.04"/><polygon class="cls-26" points="64.64 459.17 61.24 465.95 61.24 482.41 64.64 482.41 64.64 459.17"/><polygon class="cls-26" points="84.46 444.18 81.07 445.74 81.07 482.41 84.46 482.41 84.46 444.18"/><g class="cls-27"><polygon class="cls-4" points="74.53 449.25 69.8 452.64 107.76 452.64 107.76 449.25 74.53 449.25"/><polygon class="cls-4" points="95.96 439.32 88.16 442.72 106.81 442.72 106.33 439.32 95.96 439.32"/><polygon class="cls-4" points="59.92 469.09 58.77 472.49 108.97 472.49 108.97 469.09 59.92 469.09"/><polygon class="cls-4" points="56.47 479.01 55.74 482.41 108.88 482.41 108.88 479.01 56.47 479.01"/><polygon class="cls-4" points="64.43 459.17 62.94 462.57 108.3 462.57 108.3 459.17 64.43 459.17"/></g><path class="cls-11" d="M55.75,482.28c3.6-12.92,8.31-25.68,16-31.22s26.47-12.13,26.47-12.13c1.1-1.33,6.69-7.77,6.69-7.77s3.31,14.31,4.09,38.18c0,0-.19,9.64,0,12.94"/><polyline class="cls-11" points="98.17 438.94 94.15 448.75 104.11 450.95 95 456.72 108.88 481.3"/><path class="cls-7" d="M185.52,482.41c-3.6-12.92-8.32-25.68-16-31.22s-26.47-12.13-26.47-12.13c-1.1-1.33-6.7-7.77-6.7-7.77s-3.31,14.31-4.08,38.18c0,0,.18,9.63,0,12.94Z"/><polygon class="cls-26" points="146.89 439.99 150.29 441.49 150.29 482.41 146.89 482.41 146.89 439.99"/><polygon class="cls-26" points="136.98 431.83 140.38 435.58 140.38 482.41 136.98 482.41 136.98 431.83"/><polygon class="cls-26" points="166.72 449.04 170.11 451.75 170.11 482.41 166.72 482.41 166.72 449.04"/><polygon class="cls-26" points="176.63 459.17 180.02 465.95 180.02 482.41 176.63 482.41 176.63 459.17"/><polygon class="cls-26" points="156.8 444.18 160.2 445.74 160.2 482.41 156.8 482.41 156.8 444.18"/><g class="cls-27"><polygon class="cls-4" points="166.74 449.25 171.47 452.64 133.5 452.64 133.5 449.25 166.74 449.25"/><polygon class="cls-4" points="145.31 439.32 153.11 442.72 134.46 442.72 134.94 439.32 145.31 439.32"/><polygon class="cls-4" points="181.35 469.09 182.5 472.49 132.3 472.49 132.3 469.09 181.35 469.09"/><polygon class="cls-4" points="184.79 479.01 185.52 482.41 132.39 482.41 132.39 479.01 184.79 479.01"/><polygon class="cls-4" points="176.83 459.17 178.32 462.57 132.97 462.57 132.97 459.17 176.83 459.17"/></g><path class="cls-11" d="M185.52,482.28c-3.6-12.92-8.32-25.68-16-31.22s-26.47-12.13-26.47-12.13c-1.1-1.33-6.7-7.77-6.7-7.77s-3.31,14.31-4.08,38.18c0,0,.18,9.64,0,12.94"/><polyline class="cls-11" points="143.1 438.94 147.11 448.75 137.16 450.95 146.27 456.72 132.39 481.3"/><path class="cls-9" d="M195.82,260c-2.62-1.57-2.46-13.62-1.91-14H173c.55.4.71,12.45-1.91,14l12.39,18.2Z"/><path class="cls-9" d="M162.06,189.17c-4.77,4.45-7.58,15.74-7.58,24.85a22.12,22.12,0,0,0,5.58,14.7s.93,8.89,4.52,13.08,10.92,8.17,14,9.44c3.89,1.58,5.76,1.75,9.6,0,6.79-3.09,10.47-5.25,14.06-9.44s4.51-13.08,4.51-13.08,3.31-1.59,4.7-13.14-.26-19.55-5.72-26.41Z"/><path class="cls-28" d="M238.9,306c-3-12.28-8.63-29-13.86-32.49-4.9-3.26-22-9.73-22-9.73-1-1.26-4.65-11.33-4.65-11.33l-14.93,14.26c-7.63-6.8-15-14.26-15-14.26s-3.61,10.07-4.65,11.33c0,0-17.13,6.47-22,9.73-5.23,3.49-10.89,20.21-13.87,32.49Z"/><path class="cls-11" d="M183.14,223.1a21.55,21.55,0,0,1-2.63,7.73s1.94,1.74,5.32.3"/><path class="cls-2" d="M173.45,221.1a1.55,1.55,0,0,1-2.57,0,2.46,2.46,0,0,1,0-3,1.59,1.59,0,0,1,2.57,0A2.46,2.46,0,0,1,173.45,221.1Z"/><path class="cls-2" d="M175.76,212.21a10.85,10.85,0,0,0-8.29-.15c-1.35.35-1.17,2,0,1.79a17.7,17.7,0,0,1,8.29.15C176.88,214.23,177,212.76,175.76,212.21Z"/><path class="cls-2" d="M187.85,237.75a34.34,34.34,0,0,1-8.83,0c-3-.34-2.6-2,0-1.79a56.58,56.58,0,0,0,8.83,0C190.33,235.73,190.79,237.33,187.85,237.75Z"/><path class="cls-2" d="M185.43,242.62a7,7,0,0,1-4,0c-1.35-.34-1.17-2,0-1.79a11.51,11.51,0,0,0,4,0C186.55,240.6,186.75,242.2,185.43,242.62Z"/><path class="cls-10" d="M192.73,173.72c10.2,1.39,14.78,6.94,20.42,18.07,3.82,7.53,6.43,17.68,6.91,30.92.4,11,6.07,8,6.07,8-2.4,6.29-9.68,3.44-9.68,3.44-6.54,5.23-10.38-.46-10.38-.46-3.73-.94-4-3.81-4-3.81,3.4,1,5.58-4,6.39-8.6s1-14.27,1-14.27c-.21-9.45-6.22-12.07-6.22-12.07a86.94,86.94,0,0,0-39.56,0s-6,2.62-6.23,12.07a133.33,133.33,0,0,0,1,14.27c.8,4.57,3,9.65,6.38,8.6,0,0-.32,2.87-4.05,3.81,0,0-3.83,5.69-10.37.46,0,0-7.28,2.85-9.68-3.44,0,0,5.66,3,6.06-8,.48-13.24,3.09-23.39,6.91-30.92,5.64-11.13,10.17-17.1,20.42-18.07,6.93-.65,9.3,2.23,9.3,2.23S186.46,172.87,192.73,173.72Z"/><path class="cls-2" d="M193.39,221.1a1.54,1.54,0,0,0,2.56,0,2.43,2.43,0,0,0,0-3,1.58,1.58,0,0,0-2.56,0A2.46,2.46,0,0,0,193.39,221.1Z"/><path class="cls-2" d="M191.07,212.21a10.88,10.88,0,0,1,8.3-.15c1.34.35,1.17,2,0,1.79a17.74,17.74,0,0,0-8.3.15C190,214.23,189.8,212.76,191.07,212.21Z"/><path class="cls-11" d="M163.64,194.93s.65-8.31,5.62-13.54"/><path class="cls-11" d="M169.26,192.91s1.36-7.6,5.26-11.52"/><path class="cls-11" d="M179.76,180.21a28.77,28.77,0,0,0-3.14,12.7"/><line class="cls-11" x1="183.4" y1="192.65" x2="183.43" y2="180.21"/><path class="cls-11" d="M187.39,180.21s2.52,7.2,1.94,12.44"/><path class="cls-11" d="M193.58,181.39a23.66,23.66,0,0,1,2.87,12.22"/><path class="cls-11" d="M200.31,182.3s4.13,5.75,2.89,12.63"/><path class="cls-11" d="M153,225s2,8.71,7.72,8.7"/><path class="cls-11" d="M150.39,234.14s-2-1.68-1.4-5.42"/><path class="cls-11" d="M206.07,233.68s3.6-.13,6-4.35,1.3-15.31,1.3-15.31"/><path class="cls-11" d="M216.45,234.14a16.41,16.41,0,0,0,.81-9.16"/><polygon class="cls-7" points="178.94 268.02 177.6 269.37 176.26 268.02 177.6 266.68 178.94 268.02"/><polygon class="cls-7" points="178.94 274.39 177.6 275.73 176.26 274.39 177.6 273.05 178.94 274.39"/><polygon class="cls-7" points="178.94 280.7 177.6 282.05 176.26 280.7 177.6 279.36 178.94 280.7"/><polygon class="cls-7" points="178.94 287.03 177.6 288.37 176.26 287.03 177.6 285.68 178.94 287.03"/><polygon class="cls-7" points="178.94 293.34 177.6 294.69 176.26 293.34 177.6 292 178.94 293.34"/><polygon class="cls-7" points="178.94 299.68 177.6 301.03 176.26 299.68 177.6 298.34 178.94 299.68"/><polygon class="cls-7" points="178.94 306.05 176.26 306.05 177.6 304.7 178.94 306.05"/><polygon class="cls-7" points="172.53 261.61 171.18 262.95 169.84 261.61 171.18 260.26 172.53 261.61"/><polygon class="cls-7" points="172.53 268.02 171.18 269.37 169.84 268.02 171.18 266.68 172.53 268.02"/><polygon class="cls-7" points="172.53 274.39 171.18 275.73 169.84 274.39 171.18 273.05 172.53 274.39"/><polygon class="cls-7" points="172.53 280.7 171.18 282.05 169.84 280.7 171.18 279.36 172.53 280.7"/><polygon class="cls-7" points="172.53 287.03 171.18 288.37 169.84 287.03 171.18 285.68 172.53 287.03"/><polygon class="cls-7" points="172.53 293.34 171.18 294.69 169.84 293.34 171.18 292 172.53 293.34"/><polygon class="cls-7" points="172.53 299.68 171.18 301.03 169.84 299.68 171.18 298.34 172.53 299.68"/><polygon class="cls-7" points="172.53 306.05 169.84 306.05 171.18 304.7 172.53 306.05"/><polygon class="cls-7" points="166.12 268.02 164.78 269.37 163.44 268.02 164.78 266.68 166.12 268.02"/><polygon class="cls-7" points="166.12 274.39 164.78 275.73 163.44 274.39 164.78 273.05 166.12 274.39"/><polygon class="cls-7" points="166.12 280.7 164.78 282.05 163.44 280.7 164.78 279.36 166.12 280.7"/><polygon class="cls-7" points="166.12 287.03 164.78 288.37 163.44 287.03 164.78 285.68 166.12 287.03"/><polygon class="cls-7" points="166.12 293.34 164.78 294.69 163.44 293.34 164.78 292 166.12 293.34"/><polygon class="cls-7" points="166.12 299.68 164.78 301.03 163.44 299.68 164.78 298.34 166.12 299.68"/><polygon class="cls-7" points="166.12 306.05 163.44 306.05 164.78 304.7 166.12 306.05"/><polygon class="cls-7" points="140.46 280.7 139.12 282.05 137.77 280.7 139.12 279.36 140.46 280.7"/><polygon class="cls-7" points="140.46 287.03 139.12 288.37 137.77 287.03 139.12 285.68 140.46 287.03"/><polygon class="cls-7" points="140.46 293.34 139.12 294.69 137.77 293.34 139.12 292 140.46 293.34"/><polygon class="cls-7" points="140.46 299.68 139.12 301.03 137.77 299.68 139.12 298.34 140.46 299.68"/><polygon class="cls-7" points="140.46 306.05 137.77 306.05 139.12 304.7 140.46 306.05"/><polygon class="cls-7" points="134.05 293.34 132.71 294.69 131.37 293.34 132.71 292 134.05 293.34"/><polygon class="cls-7" points="134.05 299.68 132.71 301.03 131.37 299.68 132.71 298.34 134.05 299.68"/><polygon class="cls-7" points="134.05 306.05 131.37 306.05 132.71 304.7 134.05 306.05"/><polygon class="cls-7" points="159.7 268.02 158.36 269.37 157.02 268.02 158.36 266.68 159.7 268.02"/><polygon class="cls-7" points="159.7 274.39 158.36 275.73 157.02 274.39 158.36 273.05 159.7 274.39"/><polygon class="cls-7" points="159.7 280.7 158.36 282.05 157.02 280.7 158.36 279.36 159.7 280.7"/><polygon class="cls-7" points="159.7 287.03 158.36 288.37 157.02 287.03 158.36 285.68 159.7 287.03"/><polygon class="cls-7" points="159.7 293.34 158.36 294.69 157.02 293.34 158.36 292 159.7 293.34"/><polygon class="cls-7" points="159.7 299.68 158.36 301.03 157.02 299.68 158.36 298.34 159.7 299.68"/><polygon class="cls-7" points="159.7 306.05 157.02 306.05 158.36 304.7 159.7 306.05"/><polygon class="cls-7" points="153.28 274.39 151.94 275.73 150.6 274.39 151.94 273.05 153.28 274.39"/><polygon class="cls-7" points="153.28 280.7 151.94 282.05 150.6 280.7 151.94 279.36 153.28 280.7"/><polygon class="cls-7" points="153.28 287.03 151.94 288.37 150.6 287.03 151.94 285.68 153.28 287.03"/><polygon class="cls-7" points="153.28 293.34 151.94 294.69 150.6 293.34 151.94 292 153.28 293.34"/><polygon class="cls-7" points="153.28 299.68 151.94 301.03 150.6 299.68 151.94 298.34 153.28 299.68"/><polygon class="cls-7" points="153.28 306.05 150.6 306.05 151.94 304.7 153.28 306.05"/><polygon class="cls-7" points="146.88 274.39 145.54 275.73 144.19 274.39 145.54 273.05 146.88 274.39"/><polygon class="cls-7" points="146.88 280.7 145.54 282.05 144.19 280.7 145.54 279.36 146.88 280.7"/><polygon class="cls-7" points="146.88 287.03 145.54 288.37 144.19 287.03 145.54 285.68 146.88 287.03"/><polygon class="cls-7" points="146.88 293.34 145.54 294.69 144.19 293.34 145.54 292 146.88 293.34"/><polygon class="cls-7" points="146.88 299.68 145.54 301.03 144.19 299.68 145.54 298.34 146.88 299.68"/><polygon class="cls-7" points="146.88 306.05 144.19 306.05 145.54 304.7 146.88 306.05"/><polygon class="cls-7" points="187.9 268.02 189.25 269.37 190.59 268.02 189.25 266.68 187.9 268.02"/><polygon class="cls-7" points="187.9 274.39 189.25 275.73 190.59 274.39 189.25 273.05 187.9 274.39"/><polygon class="cls-7" points="187.9 280.7 189.25 282.05 190.59 280.7 189.25 279.36 187.9 280.7"/><polygon class="cls-7" points="187.9 287.03 189.25 288.37 190.59 287.03 189.25 285.68 187.9 287.03"/><polygon class="cls-7" points="187.9 293.34 189.25 294.69 190.59 293.34 189.25 292 187.9 293.34"/><polygon class="cls-7" points="187.9 299.68 189.25 301.03 190.59 299.68 189.25 298.34 187.9 299.68"/><polygon class="cls-7" points="187.9 306.05 190.59 306.05 189.25 304.7 187.9 306.05"/><polygon class="cls-7" points="194.32 261.61 195.66 262.95 197.01 261.61 195.66 260.26 194.32 261.61"/><polygon class="cls-7" points="194.32 268.02 195.66 269.37 197.01 268.02 195.66 266.68 194.32 268.02"/><polygon class="cls-7" points="194.32 274.39 195.66 275.73 197.01 274.39 195.66 273.05 194.32 274.39"/><polygon class="cls-7" points="194.32 280.7 195.66 282.05 197.01 280.7 195.66 279.36 194.32 280.7"/><polygon class="cls-7" points="194.32 287.03 195.66 288.37 197.01 287.03 195.66 285.68 194.32 287.03"/><polygon class="cls-7" points="194.32 293.34 195.66 294.69 197.01 293.34 195.66 292 194.32 293.34"/><polygon class="cls-7" points="194.32 299.68 195.66 301.03 197.01 299.68 195.66 298.34 194.32 299.68"/><polygon class="cls-7" points="194.32 306.05 197.01 306.05 195.66 304.7 194.32 306.05"/><polygon class="cls-7" points="200.73 268.02 202.07 269.37 203.41 268.02 202.07 266.68 200.73 268.02"/><polygon class="cls-7" points="200.73 274.39 202.07 275.73 203.41 274.39 202.07 273.05 200.73 274.39"/><polygon class="cls-7" points="200.73 280.7 202.07 282.05 203.41 280.7 202.07 279.36 200.73 280.7"/><polygon class="cls-7" points="200.73 287.03 202.07 288.37 203.41 287.03 202.07 285.68 200.73 287.03"/><polygon class="cls-7" points="200.73 293.34 202.07 294.69 203.41 293.34 202.07 292 200.73 293.34"/><polygon class="cls-7" points="200.73 299.68 202.07 301.03 203.41 299.68 202.07 298.34 200.73 299.68"/><polygon class="cls-7" points="200.73 306.05 203.41 306.05 202.07 304.7 200.73 306.05"/><polygon class="cls-7" points="226.39 280.7 227.73 282.05 229.07 280.7 227.73 279.36 226.39 280.7"/><polygon class="cls-7" points="226.39 287.03 227.73 288.37 229.07 287.03 227.73 285.68 226.39 287.03"/><polygon class="cls-7" points="226.39 293.34 227.73 294.69 229.07 293.34 227.73 292 226.39 293.34"/><polygon class="cls-7" points="226.39 299.68 227.73 301.03 229.07 299.68 227.73 298.34 226.39 299.68"/><polygon class="cls-7" points="226.39 306.05 229.07 306.05 227.73 304.7 226.39 306.05"/><polygon class="cls-7" points="232.79 293.34 234.14 294.69 235.48 293.34 234.14 292 232.79 293.34"/><polygon class="cls-7" points="232.79 299.68 234.14 301.03 235.48 299.68 234.14 298.34 232.79 299.68"/><polygon class="cls-7" points="232.79 306.05 235.48 306.05 234.14 304.7 232.79 306.05"/><polygon class="cls-7" points="207.15 268.02 208.49 269.37 209.83 268.02 208.49 266.68 207.15 268.02"/><polygon class="cls-7" points="207.15 274.39 208.49 275.73 209.83 274.39 208.49 273.05 207.15 274.39"/><polygon class="cls-7" points="207.15 280.7 208.49 282.05 209.83 280.7 208.49 279.36 207.15 280.7"/><polygon class="cls-7" points="207.15 287.03 208.49 288.37 209.83 287.03 208.49 285.68 207.15 287.03"/><polygon class="cls-7" points="207.15 293.34 208.49 294.69 209.83 293.34 208.49 292 207.15 293.34"/><polygon class="cls-7" points="207.15 299.68 208.49 301.03 209.83 299.68 208.49 298.34 207.15 299.68"/><polygon class="cls-7" points="207.15 306.05 209.83 306.05 208.49 304.7 207.15 306.05"/><polygon class="cls-7" points="213.57 274.39 214.91 275.73 216.25 274.39 214.91 273.05 213.57 274.39"/><polygon class="cls-7" points="213.57 280.7 214.91 282.05 216.25 280.7 214.91 279.36 213.57 280.7"/><polygon class="cls-7" points="213.57 287.03 214.91 288.37 216.25 287.03 214.91 285.68 213.57 287.03"/><polygon class="cls-7" points="213.57 293.34 214.91 294.69 216.25 293.34 214.91 292 213.57 293.34"/><polygon class="cls-7" points="213.57 299.68 214.91 301.03 216.25 299.68 214.91 298.34 213.57 299.68"/><polygon class="cls-7" points="213.57 306.05 216.25 306.05 214.91 304.7 213.57 306.05"/><polygon class="cls-7" points="219.97 274.39 221.31 275.73 222.65 274.39 221.31 273.05 219.97 274.39"/><polygon class="cls-7" points="219.97 280.7 221.31 282.05 222.65 280.7 221.31 279.36 219.97 280.7"/><polygon class="cls-7" points="219.97 287.03 221.31 288.37 222.65 287.03 221.31 285.68 219.97 287.03"/><polygon class="cls-7" points="219.97 293.34 221.31 294.69 222.65 293.34 221.31 292 219.97 293.34"/><polygon class="cls-7" points="219.97 299.68 221.31 301.03 222.65 299.68 221.31 298.34 219.97 299.68"/><polygon class="cls-7" points="219.97 306.05 222.65 306.05 221.31 304.7 219.97 306.05"/><path class="cls-11" d="M238.9,306c-3-12.28-8.63-29-13.86-32.49-4.9-3.26-22-9.73-22-9.73-1-1.26-4.65-11.33-4.65-11.33l-14.93,14.26c-7.63-6.8-15-14.26-15-14.26s-3.61,10.07-4.65,11.33c0,0-17.13,6.47-22,9.73-5.23,3.49-10.89,20.21-13.87,32.49"/><path class="cls-11" d="M163.83,263.82s1.7,5.22,6.35,16.15l11.24-11.65"/><path class="cls-11" d="M203,263.82S201.3,269,196.66,280l-11.25-11.65"/><line class="cls-11" x1="183.43" y1="266.68" x2="183.43" y2="305.56"/><path class="cls-29" d="M627.41,463.07H591.82c-4.68-2.58-8.09-13.86-8.09-13.86s9-4.82,11.5-8a14.53,14.53,0,0,0,1.68-13.09s-.18-2.73,3.12-2.73h19.18c3.29,0,3.11,2.73,3.11,2.73A14.56,14.56,0,0,0,624,441.22c2.47,3.17,11.51,8,11.51,8S631.36,462,627.41,463.07Z"/><path class="cls-29" d="M623.13,425.21c5,1.77,11.12,1.22,14.45-3.52a24.55,24.55,0,0,1,5.89-6.48c7.13-5.72,2.84-13.72,2.84-13.72s-2-.62-3.65-4.86c-1.14-2.88,0-9.81,0-9.81.33-6.84-2.51-14.89-6.2-18.65-3.43-3.5-6.11-4.9-11.86-4.9a17.56,17.56,0,0,0-7.36,1.56,11.82,11.82,0,0,0-10.09-5c-7.21.1-14.36,4.37-18.44,7.7s-8.68,10.79-8.35,17.64c0,0,.09,7.54-2.28,10.4A10,10,0,0,1,573,399.1s-5.74,8.71,2.41,14.07c3.6,2.37,4,2.77,5.88,7.42,1.38,3.49,6.1,6.15,16,4.19,0,0,8.75,2.73,12,3.11S623.13,425.21,623.13,425.21Z"/><path class="cls-29" d="M630,375.08l-20.28-6.91-18.49,5.75c-9.45,15.47-5.9,28.26-5.9,28.26a1.81,1.81,0,0,0-2.37-1.25c-3.25,1.19-1,10.41,0,13.11,1.71,4.45,4.37,2.87,4.37,2.87s2.59,12.06,5.16,15,5.13,3.75,9.45,4.58c0,0,4.06,2.84,7.67,2.84,3.38,0,7.7-2.84,7.7-2.84,5.07-1,7-1.67,9.45-4.58,3.33-3.92,5.17-15,5.17-15s2.66,1.58,4.36-2.87c1-2.7,3.3-12.05,0-13.11a1.66,1.66,0,0,0-2.37,1.25S637.07,387.16,630,375.08Z"/><path class="cls-30" d="M609.21,409.45s-.73,5.05-2.85,7.34a4.94,4.94,0,0,0,6.25.21"/><path class="cls-2" d="M599,424a6.14,6.14,0,0,1,2.29-2.53c1-.66,2-.06,1.21.56a12.41,12.41,0,0,0-2.36,3C599.67,425.89,598.54,425.1,599,424Z"/><path class="cls-2" d="M620.16,424a6.07,6.07,0,0,0-2.29-2.53c-1-.66-2-.06-1.21.56a12.41,12.41,0,0,1,2.36,3C619.52,425.89,620.66,425.1,620.16,424Z"/><path class="cls-2" d="M603.58,396.89c-4.67-2.52-8.74-1.31-10.28-.32-1.89,1.23-.45,1.45.67,1.21a12.34,12.34,0,0,1,8.86,1.08C603.8,399.35,604.74,397.52,603.58,396.89Z"/><path class="cls-2" d="M614.09,425.51a11.24,11.24,0,0,1-8.92,0c-2.86-1-2.49-2.57,0-1.71a12.31,12.31,0,0,0,8.92,0C616.47,423,616.9,424.49,614.09,425.51Z"/><path class="cls-2" d="M582.62,394.76c1,5.5,1.9,14.69,3.72,16.42l1-17.53Z"/><path class="cls-2" d="M612.14,430.34a16.08,16.08,0,0,1-5,0c-1.71-.23-1.49-1.7,0-1.55a26.52,26.52,0,0,0,5,0C613.56,428.64,613.82,430.06,612.14,430.34Z"/><path class="cls-2" d="M601.43,404.57a1.72,1.72,0,1,1-1.68-2.11A1.94,1.94,0,0,1,601.43,404.57Z"/><path class="cls-2" d="M617.76,404.57a1.72,1.72,0,1,0,1.68-2.11A1.94,1.94,0,0,0,617.76,404.57Z"/><path class="cls-2" d="M597,413.78a11.23,11.23,0,0,1-5.76-1.45c-2.85-1.87-3.86-5.49-3.86-8.25,0-3.77,3.39-5.61,5.68-5.93a25.57,25.57,0,0,1,9.66.34c3.87.83,4.46,4.7,4.36,6v.11c-.38,5.25-2.94,7.35-5,8.19A13.46,13.46,0,0,1,597,413.78Zm-.18-14.92a21.29,21.29,0,0,0-3.58.27h0c-1.87.25-4.83,1.82-4.83,4.94,0,2.38.89,5.76,3.41,7.42a11.63,11.63,0,0,0,9.89.35c1.82-.73,4.06-2.59,4.4-7.33v-.11s.15-4.15-3.58-5A27,27,0,0,0,596.85,398.86Zm-3.68-.22h0Z"/><path class="cls-2" d="M589.33,400.58h-6a.67.67,0,0,0,0,1.34c1.76.15,4.79.54,4.79.54Z"/><path class="cls-2" d="M605.82,401.19a17.32,17.32,0,0,1,7.65,0l-.45,1.75a16.17,16.17,0,0,0-6.66,0Z"/><path class="cls-2" d="M615.66,396.89c4.66-2.52,8.73-1.31,10.27-.32,1.9,1.23.45,1.45-.66,1.21a12.33,12.33,0,0,0-8.86,1.08C615.43,399.35,614.49,397.52,615.66,396.89Z"/><path class="cls-2" d="M636.61,394.76c-1,5.5-1.9,14.69-3.71,16.42l-1-17.53Z"/><path class="cls-2" d="M622.2,413.78a13.5,13.5,0,0,1-5.05-1c-2.08-.84-4.64-2.94-5-8.19v-.11a5.91,5.91,0,0,1,4.34-6,21.18,21.18,0,0,1,9.7-.34c2.29.33,5.67,2.17,5.67,5.93,0,2.76-1,6.38-3.86,8.25A11.3,11.3,0,0,1,622.2,413.78Zm0-15a21.9,21.9,0,0,0-5.49.7,4.87,4.87,0,0,0-3.59,5v.11c.34,4.73,2.58,6.6,4.39,7.33a11.65,11.65,0,0,0,9.9-.35c2.51-1.66,3.41-5,3.41-7.42,0-3.12-3-4.69-4.84-4.94l0,0A17.64,17.64,0,0,0,622.2,398.76Z"/><path class="cls-2" d="M629.91,400.58h6c.69,0,.9,1.27,0,1.34-1.76.15-4.8.54-4.8.54Z"/><path class="cls-7" d="M642.66,409.45s-7.16-1.81-9.86-8.87-2.89-8.58-6.3-10c0,0-4.68-2.36-6.52-4.86s-2.82-7.25-2.82-7.25a5.5,5.5,0,0,0-4.2.3L610.11,376c.88,1.25,0,3.73,0,3.73a7.67,7.67,0,0,0-4.21-.9s-.74,6.14-3.07,9.8c-2.05,3.22-8.9,4.51-8.9,4.51-3.87,1.32-6.21,3-7.49,7.47-2.09,7.26-9.87,8.87-9.87,8.87s4.81-11.14,5.08-15.57c.93-14.81,4.73-21.68,10.17-25.05,3.69-2.28,9.61-5.5,16.58-4.5,4.21.6,8.54,3.84,8.54,3.84s11.37-2.84,16.24,1.78,7.8,11.87,6.42,27.64C639.36,400.36,642.66,409.45,642.66,409.45Z"/><path class="cls-30" d="M576.57,409.45s7.16-1.81,9.87-8.87,7-7.17,10.82-8.48a8.39,8.39,0,0,0,5.57-3.5c1.67-2.62,3.07-9.8,3.07-9.8a7.67,7.67,0,0,1,4.21.9,12,12,0,0,0,0-3.73l2.85,2.79a5.5,5.5,0,0,1,4.2-.3s1,4.76,2.82,7.25,6.52,4.86,6.52,4.86c3.41,1.43,3.59,2.95,6.3,10s9.86,8.87,9.86,8.87"/><path class="cls-30" d="M618.32,371.1s4.16-2.66,8.53-1.23c3.06,1,6.82,3.91,8.19,7.24"/><path class="cls-30" d="M610.11,376s-4.21-3.15-8.68-1.53"/><path class="cls-30" d="M610.57,371.65s-4.21-4.41-11.66-1.29"/><path class="cls-30" d="M621,375.11a9.26,9.26,0,0,1,7,1.28,17.63,17.63,0,0,1,7.07,9.69"/><path class="cls-30" d="M622.33,380.14s2.37,4.71,6.73,6.66"/><path class="cls-30" d="M635,396.6s2.54,7.13,7.62,9.16"/><path class="cls-30" d="M576.57,405.09s6-2.73,7.16-9"/><path class="cls-30" d="M589.28,390s9-1.93,10.47-8.18"/><path class="cls-30" d="M588.41,385.89a13.79,13.79,0,0,0,8.5-7.41"/><path class="cls-31" d="M664,483c-3-12.46-5-21.3-11.6-26.35-4.74-3.6-16-7.57-18.94-10.49,0,0-2.23,7.68-6.35,11.67h-35c-4.11-4-6.34-11.67-6.34-11.67-2.91,2.92-14.2,6.89-18.94,10.49-6.64,5.05-8.58,13.89-11.61,26.35Z"/><path class="cls-30" d="M555.25,483c3-12.46,5-21.3,11.61-26.35,4.74-3.6,16-7.57,18.94-10.49,0,0,2.23,7.68,6.34,11.67h35c4.12-4,6.35-11.67,6.35-11.67,2.91,2.92,14.2,6.89,18.94,10.49,6.63,5.05,8.58,13.89,11.6,26.35"/><rect class="cls-2" x="586.37" y="460.56" width="2.69" height="2.7" transform="translate(130.38 -129.37) rotate(14.11)"/><rect class="cls-2" x="584.46" y="457.27" width="2.69" height="2.7" transform="translate(129.5 -128.99) rotate(14.11)"/><rect class="cls-2" x="582.5" y="454.04" width="2.69" height="2.7" transform="translate(128.65 -128.61) rotate(14.11)"/><rect class="cls-2" x="580.51" y="450.76" width="2.69" height="2.7" transform="translate(127.8 -128.23) rotate(14.11)"/><polygon class="cls-2" points="611.56 463.79 609.65 465.7 607.75 463.79 609.65 461.89 611.56 463.79"/><polygon class="cls-2" points="607.75 463.79 605.85 465.7 603.94 463.79 605.85 461.89 607.75 463.79"/><polygon class="cls-2" points="603.95 463.79 602.04 465.7 600.14 463.79 602.04 461.89 603.95 463.79"/><polygon class="cls-2" points="600.14 463.79 598.24 465.7 596.33 463.79 598.24 461.89 600.14 463.79"/><polygon class="cls-2" points="596.36 463.79 594.45 465.7 592.54 463.79 594.45 461.89 596.36 463.79"/><polygon class="cls-2" points="592.74 463.78 590.84 465.68 588.93 463.78 590.84 461.87 592.74 463.78"/><rect class="cls-2" x="630.23" y="460.56" width="2.69" height="2.7" transform="translate(1356.72 755.87) rotate(165.89)"/><rect class="cls-2" x="632.14" y="457.27" width="2.69" height="2.7" transform="translate(1359.68 748.93) rotate(165.89)"/><rect class="cls-2" x="634.09" y="454.04" width="2.69" height="2.7" transform="translate(1362.73 742.09) rotate(165.89)"/><rect class="cls-2" x="636.09" y="450.76" width="2.69" height="2.7" transform="translate(1365.86 735.16) rotate(165.89)"/><polygon class="cls-2" points="611.54 463.79 613.44 465.7 615.35 463.79 613.44 461.89 611.54 463.79"/><polygon class="cls-2" points="615.34 463.79 617.25 465.7 619.15 463.79 617.25 461.89 615.34 463.79"/><polygon class="cls-2" points="619.15 463.79 621.05 465.7 622.96 463.79 621.05 461.89 619.15 463.79"/><polygon class="cls-2" points="622.94 463.79 624.84 465.7 626.75 463.79 624.84 461.89 622.94 463.79"/><polygon class="cls-2" points="626.55 463.78 628.45 465.68 630.36 463.78 628.45 461.87 626.55 463.78"/><path class="cls-32" d="M381,133.94c-1.64-8.25-2.68-16.75-7.46-20.68a32.22,32.22,0,0,0-6.75-4.14l-21,19.24-20.94-19.24a32.18,32.18,0,0,0-6.74,4.14c-4.78,3.93-5.83,12.43-7.47,20.68Z"/><path class="cls-33" d="M310.7,133.94c1.64-8.25,2.69-16.75,7.47-20.68a32.18,32.18,0,0,1,6.74-4.14l20.94,19.24,21-19.24a32.22,32.22,0,0,1,6.75,4.14c4.78,3.93,5.82,12.43,7.46,20.68"/><path class="cls-2" d="M322.82,53.49s-5.43-1.68-8.17,3.21c-2.92,5.21-6.13,22.94-3.48,29.47a69.24,69.24,0,0,0,3.37,7.53c1.81,3.33-.24,6.94-.24,6.94A6.06,6.06,0,0,0,318.52,96a11.3,11.3,0,0,1,.72,2.54s4.12-2.67,2.92-12.67-1.46-17.59-1.46-17.59Z"/><path class="cls-2" d="M368.94,53.49s5.43-1.68,8.17,3.21c2.92,5.21,5.58,23.46,3.64,30.24-.92,3.24-2.33,5-3.42,7.36-1.25,2.68.13,6.34.13,6.34a6.76,6.76,0,0,1-4.15-6.22,8.86,8.86,0,0,0,0,4.46S368,95.7,369.19,85.7s1.87-17.42,1.87-17.42Z"/><path class="cls-2" d="M345.91,39c-3.67,0-17.5,0-23.56,13.68-3.91,8.84-4.88,18.12,1.48,31.31l2.08-13.31H368l.47,12.08s8.64-15.43.43-31.05C362.79,40,349.54,39,345.91,39Z"/><path class="cls-34" d="M340.23,90.56h11.26c2.4,0,2,2.74,2,2.74-.39.34-.5,7.81,1.35,9.14a92.6,92.6,0,0,0,11.63,8.07c5.07,3-12.72,11.6-12.72,11.6l-7.92,6.25-5-6.25s-15.31-12.88-12.72-14.32c6.56-3.64,9.19-5.35,9.19-5.35,1.84-1.33,1.73-8.8,1.34-9.14C338.71,93.3,338.81,90.56,340.23,90.56Z"/><path class="cls-34" d="M367.85,76.53s.66-1.78,1.74-1.78c3.08,0,.92,8.73,0,11.12-1.52,4-3.88,2.56-3.88,2.56a16.34,16.34,0,0,1-4.44,5.1,34.6,34.6,0,0,1-11.69,5.91,12.33,12.33,0,0,1-7.41,0c-3.91-1.3-8.7-3.13-11.69-5.91a22.66,22.66,0,0,1-4.44-5.1s-2.36,1.41-3.88-2.56c-.92-2.39-2.92-10.16,0-11.12,2.49-.82,2.89,1.11,2.89,1.11s2.11-15.47,5.83-20.35,15.63-6.34,15.63-6.34S359.05,51.84,362.3,56,367.85,76.53,367.85,76.53Z"/><path class="cls-2" d="M338.28,81.24a1.4,1.4,0,0,1-2.27,0,2,2,0,0,1,0-2.51,1.43,1.43,0,0,1,2.27,0A2,2,0,0,1,338.28,81.24Z"/><path class="cls-2" d="M347.34,85.21a2.58,2.58,0,0,1-3,0c-.9-.71-.89-1.89,0-1.67a7.36,7.36,0,0,0,3,0C348.2,83.32,348.53,84.33,347.34,85.21Z"/><path class="cls-2" d="M350.36,91.23a13.89,13.89,0,0,1-8.83,0c-1.84-.67-1.24-2,.38-1.52a13.85,13.85,0,0,0,7.94,0C351.61,89.15,352,90.57,350.36,91.23Z"/><path class="cls-2" d="M353.47,81.24a1.41,1.41,0,0,0,2.28,0,2,2,0,0,0,0-2.51,1.44,1.44,0,0,0-2.28,0A2,2,0,0,0,353.47,81.24Z"/><path class="cls-2" d="M352.67,72a7.58,7.58,0,0,1,5.15.07c1.14.29,1,1.71,0,1.52a8.82,8.82,0,0,0-4.84-.12C351.76,73.85,351.55,72.32,352.67,72Z"/><path class="cls-33" d="M368.51,71.53C363.85,66.05,363,57.62,363,57.62"/><path class="cls-2" d="M338.54,72a7.56,7.56,0,0,0-5.14.07c-1.14.29-1,1.71,0,1.52a8.79,8.79,0,0,1,4.83-.12C339.46,73.85,339.66,72.32,338.54,72Z"/><path class="cls-2" d="M326.55,73.27s6.51.58,14.36,1l2-9.71v9.71s1.93.13,6,0V63.89l1.94,10.4s10.12-.39,15.39-1a64.73,64.73,0,0,1-.5,11.76s4.49-4.74,4.86-13.5-3.52-27.22-24.47-27.22-23.4,19.83-23.72,25.13a26.08,26.08,0,0,0,3.78,15.45S326,76,326.55,73.27Z"/><path class="cls-35" d="M351.6,129.45a11.38,11.38,0,0,1,1,4.49"/><path class="cls-2" d="M334.18,104l-16.08,7.35s4.25,9.86,29.18,18.61c0,0-8.51-13.33-10.14-16.54S334.18,104,334.18,104Z"/><path class="cls-7" d="M345.64,128.3c-6.15-2.4-13-5.46-16.21-7.7-4.76-3.3-7.75-5.89-10.13-9l1.21-.56c2.61,3.24,4.62,5.11,9.82,8.61,3.2,2.15,9.62,5.07,14.22,7Z"/><path class="cls-33" d="M334.18,104l-16.08,7.35s4.25,9.86,29.18,18.61c0,0-8.51-13.33-10.14-16.54S334.18,104,334.18,104Z"/><path class="cls-2" d="M357.58,104l16.07,7.35S371,120.37,346.92,129l-1.07-1.38s7.13-11.06,8.76-14.27S357.58,104,357.58,104Z"/><path class="cls-7" d="M346.12,128.3c6.14-2.4,13-5.46,16.2-7.7,4.77-3.3,7.75-5.89,10.14-9l-1.21-.56c-2.62,3.24-4.63,5.11-9.83,8.61-3.19,2.15-9.62,5.07-14.22,7Z"/><path class="cls-33" d="M346.92,129c22.76-8.52,26.73-17.72,26.73-17.72L357.58,104s-1.34,6.22-3,9.42c-1.17,2.32-5.93,9.9-8.49,13.94Z"/><path class="cls-34" d="M336.5,101.21a68.9,68.9,0,0,0,9.41,7.62l-7.19,6.48a32.36,32.36,0,0,1-4.87-10.74Z"/><path class="cls-34" d="M355.25,101.21a68.5,68.5,0,0,1-9.4,7.62l7.19,6.48a32.36,32.36,0,0,0,4.87-10.74Z"/><path class="cls-36" d="M344.17,112.42a39.68,39.68,0,0,1,.37,5.73c-.14,1.87-3.18,6.93-3.18,6.93l-8.67-5.73s2.65-4,5-5.2A18.08,18.08,0,0,1,344.17,112.42Z"/><path class="cls-36" d="M347.28,113.34a42.18,42.18,0,0,0-.07,4.81c.14,1.87,2.13,7.23,2.13,7.23l8.85-6s-3.66-3.86-6-5.06C349.08,112.71,347.28,113.34,347.28,113.34Z"/><path class="cls-36" d="M345.23,110.1s-5.1-2.7-10.28-1.27l1.34,8.47a26.88,26.88,0,0,0,8.94-5.23Z"/><path class="cls-36" d="M346.29,110.1s5.27-2.7,10.44-.32l-2.39,7.85s-5.37-1.32-8-5.56Z"/><rect class="cls-36" x="344.17" y="110.07" width="3.37" height="3.87"/></g></g></svg>