<svg id="レイヤー_1" data-name="レイヤー 1" xmlns="http://www.w3.org/2000/svg" viewBox="0 0 850 100"><defs><style>.cls-1{fill:#ff64a5;}.cls-2{fill:#fff;}</style></defs><polygon class="cls-1" points="103.75 77.51 9.58 77.51 9.58 0 49.22 0 49.22 37.89 64.11 37.89 64.11 0.6 103.75 0.6 103.75 77.51"/><rect class="cls-1" x="29.94" y="17.36" width="54.06" height="71.27"/><rect class="cls-1" y="11.52" width="113.94" height="54.46"/><rect class="cls-1" x="42.55" y="58.48" width="28.83" height="41.52"/><path class="cls-2" d="M51.42,39.43c1.46,0,2.1-.7,2.92-1.72.64-.82,1.15-1.39,1.47-1.39.5,0,4,3,4,3.81,0,.95-.38.95-3.75.95H39.72c-3,0-3.75.07-6,.13-.39,0-2.23.19-2.61.19a.83.83,0,0,1-.51-.25l-1.4-1.66c-.19-.25-.25-.25-.25-.38s.19-.12.25-.12,1.46.12,1.72.12c2.48.13,6.23.32,8.46.32Zm-1.4,10a3.28,3.28,0,0,0,2.92-1.72c.64-.76,1.15-1.4,1.47-1.4.5,0,4,3.05,4,3.88s-.32.95-3.75.95H47c-.19,0-1.14,0-1.14.7s.19.7,2.28,1.78C52.88,56,55,57.16,55,60c0,1.39-.76,2.73-2,2.73s-1.27-.32-2.61-2.92c-.76-1.47-2.92-5.22-3.94-5.22-.7,0-.7,1-.76,1.72s-.07,6.67-.07,7.88.13,5.59.13,6.48A12.91,12.91,0,0,1,45.63,74,3.45,3.45,0,0,1,43,75.4c-1.46,0-1.46-.89-1.46-1.4,0-1.84.38-10,.38-11.69,0-3.69,0-4.07-.51-4.07-.19,0-.51.45-.76.89a51.18,51.18,0,0,1-6.68,8.07,25,25,0,0,1-3.37,2.67.3.3,0,0,1-.32-.32c0-.19,2.93-4.19,3.5-5,3.12-4.57,6-10.55,6-12.39,0-.76-.26-1-1.66-1-1.78,0-3.18.07-4.57.19-.2,0-1,.13-1.21.13a.57.57,0,0,1-.51-.32l-1.46-1.65c-.2-.19-.2-.25-.2-.32s.13-.12.26-.12,1.59.12,1.91.12c2.92.13,6.23.32,8.14.32,1.33,0,1.46-.63,1.46-1.46,0-1.08-.06-2.35-.06-3.43-.07-.32-.32-1.65-.32-1.91s.51-.44.7-.44c.44,0,4.83.44,4.83,1.71,0,.38-1.08,1.85-1.14,2.16s-.07,2-.07,2.23c0,.63.32,1.08,1.21,1.08ZM43,28.18c-4.2,0-6,.07-6.74.07-.38.06-2.16.25-2.54.25a.86.86,0,0,1-.58-.32l-1.4-1.59a1.9,1.9,0,0,1-.19-.38c0-.12.13-.19.26-.19,1.21,0,6.68.45,7.76.45,2,0,2-.13,2-4.26a8.3,8.3,0,0,0-.26-2.61c0-.12-.25-1-.25-1.08s.13-.57.76-.57c.19,0,5,1,5,1.65,0,.13-.7,1.59-.82,1.85a5.91,5.91,0,0,0-.58,2.92c0,1.46.07,2.1,1.4,2.1h1.46a2.75,2.75,0,0,0,2.17-1.15c1.52-1.71,1.71-1.9,2.16-1.9,1.4,0,4.83,3,4.83,3.87s-1.27.89-3.37.89H51.23c-.19,0-.51.07-.51.38,0,.64,3,2,3,2.61s-1.78,1.78-2,2.1c-.7.76-3.56,4.38-4.26,5.08a6,6,0,0,1-1.52.89c-.2,0-.26-.25-.26-.38a27,27,0,0,1,1.15-2.8c1.33-3.49,1.65-5.14,1.65-6.1,0-1.14-.19-1.78-1.91-1.78Zm-6.55,1.4c1.34,0,5.09,2.61,5.09,6,0,1.21-.77,2.86-2.23,2.86S37.68,38.1,37.05,34a20.45,20.45,0,0,0-1-3.81c0-.13-.12-.45,0-.51A.42.42,0,0,1,36.41,29.58Zm31.8,12.07c-2.1,0-2.1,1-2.23,4.64-.32,7.63-.83,14.43-5,20.78C58,71.58,53.64,74,53.2,74c-.19,0-.45,0-.45-.19,0-.38,1.34-1.53,1.59-1.78,7-9.09,7.57-14.81,7.57-30,0-7.5-.13-9.28-.38-13.16-.07-.7-.38-4-.38-4.26s0-.57.31-.57a17.31,17.31,0,0,1,2.42.83,7.32,7.32,0,0,0,1.85.32c1.9,0,9.41-2.74,12.14-4.32a12.1,12.1,0,0,1,1.85-1.21c.69,0,6.16,3.43,6.16,4.13s-.25.63-3.56.82c-1.46.13-14.56,1.59-15.32,1.91s-1,.64-1,8.2C66,39.49,66,40,68.27,40h9.47a2.64,2.64,0,0,0,2.67-1.2c1.59-2.1,1.78-2.36,2.36-2.36s.89.32,3.43,2.86c1,1,1.08,1.08,1.08,1.47,0,.88-1.21.88-3.75.88h-4c-.44,0-1.33.32-1.46,1.78-.06.45-.13,18.37-.13,19.7s.13,7.76.13,9-.44,3.24-3.18,3.24c-1.52,0-1.65-.51-1.65-1.46,0-.64.19-5.79.38-11.06.06-2.35.06-13.15.06-16.46,0-3.49-.19-4.77-1.65-4.77Z"/><path d="M136.71,42.3a.55.55,0,0,1,.57-.51c.19,0,3.5.89,4.2.89,1.84,0,10.55-1.84,10.68-1.91,1.08-.76,1.14-7.18,1.14-7.5a8,8,0,0,0-1.59-5.4c-1-1.14-1.08-1.27-1.08-1.46,0-.44.77-.51,1-.51,4.26,0,6.74,2.42,6.74,4.07,0,.13-2.42,8.2-2.42,9.4,0,.39.26.58.7.58s3.25-.32,3.76-.32c4.77,0,8.45,2.29,8.45,8.13,0,5-1.78,16-5.47,20.4-1.78,2.1-4.32,3.88-6.48,3.88-2.42,0-3.05-2.35-3.75-4.39-.13-.32-.83-2-.83-2.09a.3.3,0,0,1,.32-.32,12.3,12.3,0,0,1,1.59.44,19.57,19.57,0,0,0,3.24.45c1.85,0,4.2-.89,6-7.76.7-2.54,2-7.68,2-11,0-4.45-2.54-4.77-4.38-4.77-2,0-5.66,1-6.11,1.53-.25.31-.32.57-1,2.73-2.55,8.64-8.71,24.27-13.87,24.27a1.87,1.87,0,0,1-2-2c0-1.33.45-1.84,4.26-6,1.72-1.9,4.39-4.83,7.82-14.36a16.53,16.53,0,0,0,.89-3c0-.2-.06-.51-.44-.51-1.4,0-7.32,2.54-8.59,2.54C139.63,47.7,136.71,43.7,136.71,42.3Zm44.38,13.22c-.63,0-3.56-1.72-4.32-1.91-.32-.13-2-.26-2-.45,0-.38,2.1-1.46,2.48-1.78,2.36-1.77,2.61-2,2.61-3.68a8.17,8.17,0,0,0-5.15-7.31c-.51-.25-1.53-.7-1.53-1s.26-.38.45-.38c8.14,0,11.13,8,11.13,11.24C184.72,51.07,183.76,55.52,181.09,55.52Z"/><path d="M238.57,30.8c0,.89-.32,1.58-2.41,3a166.15,166.15,0,0,0-14.44,12.9c-2.48,2.54-5.79,6.55-5.79,7,0,.26.26.38.51.38,1.21,0,7.82-2.6,11.32-4,8.65-3.43,10.43-4.13,12.78-4.13,1.34,0,5.92.7,5.92,3,0,1.59-2.36,2.1-3.31,2.1-4.77,0-5.28,0-8.71,1-9.67,2.67-10.62,8.32-10.62,10.68,0,6.1,4.2,7,11.51,8.57,3.18.7,3.88,2.61,3.88,3.18,0,1.27-1.78,2.1-4.26,2.1s-7.76-1.14-10.88-4.26a9.62,9.62,0,0,1-2.73-7.24A15.69,15.69,0,0,1,224,56.47a24.63,24.63,0,0,0,1.52-2c0-.12-.06-.19-.25-.19a21.18,21.18,0,0,0-4.71,2.55c-3.37,2.6-4.32,3.24-6.29,3.24-2.61,0-3.31-3-3.31-3.63,0-1.2.51-1.71,2.35-3.43.58-.57,11.45-13.79,13.74-16.2,1.91-2,5.72-6,5.72-7.5a1.08,1.08,0,0,0-1.08-1.14c-1.08,0-2.86,1.2-4,2.41-1.58,1.72-2.41,2.61-4.64,2.61-.7,0-2.6,0-3.62-2.74a24.26,24.26,0,0,1-1-2.79.4.4,0,0,1,.45-.45c.19,0,2.54.32,3,.32a8.38,8.38,0,0,0,2.29-.32c6.29-1.71,7-1.9,8.45-1.9A5.67,5.67,0,0,1,238.57,30.8Zm13.93,6.92c0,1-.89,2.42-2,2.42s-1.52-.83-3.05-3.24c-.95-1.59-1.46-2-3.94-4.39-.19-.19-.83-.76-.83-1,0-.44,1-.44,1.21-.44C246.71,31.05,252.5,34,252.5,37.72Zm6.67-5a1.81,1.81,0,0,1-1.65,1.91c-1.33,0-2.16-1.15-3.18-2.61a14.77,14.77,0,0,0-5.28-4c-.63-.32-.76-.57-.76-.76,0-.57,1.53-.57,2.42-.57C253.07,26.67,259.17,28.51,259.17,32.7Z"/><path d="M300.63,23.55c1.53,0,7.82,3.24,7.82,5.59,0,1.72-17,18.18-17,20.91,0,1.08.51,2,1.91,3.5,5.66,6.16,14.3,15.5,14.3,19.89a2.7,2.7,0,0,1-2.73,3c-2,0-2.35-1.21-3.69-5-2-5.6-8.9-14-10.55-16.08-2-2.42-2.48-3.37-2.48-4.7,0-1.72.82-3.63,5.15-9,6.29-7.88,8.64-11.18,8.64-13.53,0-1.34-.57-2.29-1.58-3.69-.2-.32-.32-.57-.2-.76S300.44,23.55,300.63,23.55Z"/><path d="M369.75,31.94c0,.19.12.44.12.7a47.78,47.78,0,0,1,.64,6.86c0,4.26-1,10.17-6.55,18.62-5.09,7.75-8.33,9.28-10.87,9.28-4.2,0-7.95-6.55-7.95-14.3,0-3.37.7-9.79,7.05-16.2a26.33,26.33,0,0,1,20.29-8.26c5.79,0,8.46,1.14,10.24,2,6.87,3.37,11.06,10.17,11.06,18.49a23.7,23.7,0,0,1-16,22.37,38.94,38.94,0,0,1-10.56,2.35c-.25,0-.63-.06-.63-.44,0-.2.12-.26,1.71-.89,6.62-2.61,20.42-8.07,20.42-23.9,0-2.48-.26-17.6-17.62-17.6C369.81,31.05,369.75,31.56,369.75,31.94ZM349.08,51.45c0,4.13,1.65,9.78,5.53,9.78,1.85,0,3.37-.76,7.76-7.37,3.37-5.14,6.23-12.2,6.23-18.49,0-3.81-.25-4.13-1.08-4.13C361.48,31.24,349.08,39.44,349.08,51.45Z"/><path d="M428.5,32.58c-2.1,0-2.1.12-2.1,6.1,0,1.65,0,2.47,1.21,2.47.63,0,10.55-2.47,14.56-3.49.63-.13.63-.51.63-1,0-.82.13-4.83.13-5.72a61.92,61.92,0,0,0-.32-6.61c-.06-.38-.7-2.09-.7-2.47s.2-.39.51-.39c1.4,0,6.49,1.66,6.49,2.48,0,.26-1.08,1.08-1.21,1.34-.25.44-.57,1-.57,4.57,0,1.59,0,2.29,1.08,2.29.63,0,9.28-4.13,12-6.48.19-.19,1.15-1.46,1.53-1.46.89,0,4.2,4.64,4.2,5.59a1.07,1.07,0,0,1-1.15,1c-.32,0-1.91-.51-2.22-.51-1.15,0-6.49,1.84-7.7,2.16-.95.25-5.66,1.08-6.67,1.46s-1,.44-1,6.35c0,2.61,1.91,3.12,8.2,3.12,7,0,7.12-.32,8.14-2.93.25-.63,1.46-4.19,1.46-4.19.07.57.26,1.91.32,2.61.26,2,.38,2.47,1.65,3.81.77.89.83,1.21.83,1.59,0,1.65-.83,3.3-11.06,3.3-12.78,0-13.87-.82-13.87-8.77,0-.19-.06-.44-.25-.44s-23.53,8.26-26,9.85c-.32.25-1.52,1.78-2,1.78-1.21,0-3.43-5-3.43-6.23,0-.45.06-.7.57-.7.13,0,.19.06,1,.25a11,11,0,0,0,1.52.07,18.05,18.05,0,0,0,5.09-.64c2.1-.38,2.29-.38,2.54-1,.19-.39.19-11.32.19-12.71a24.87,24.87,0,0,0-.25-4.77c-.06-.38-.7-2-.7-2.41a.45.45,0,0,1,.51-.45c.13,0,5.72,1.65,5.72,2.73,0,.26-.63,1.53-.7,1.85a17.83,17.83,0,0,0-.25,3.17c0,1.78,1.33,1.78,2,1.78h1.27c2.55,0,2.87,0,3.31-.51s2.1-3.36,2.8-3.36,4.45,3.43,4.45,4.57c0,1-.89,1-2.61,1Zm.19,41.49c-1.34,0-1.85.38-2,1.72-.25,1.84-1.27,3-2.8,3-2.35,0-2.35-2.54-2.35-3.49,0-.13.07-.45.19-3.31.13-2.16.19-9.08.19-11.94a32.61,32.61,0,0,0-.38-6.23c-.06-.38-.7-2.1-.7-2.54,0-.19.13-.26.32-.26a16.26,16.26,0,0,1,3.5,1.08c2.29.89,2.54,1,3.75,1h1.4c.89,0,1.46-.06,2-1a45.56,45.56,0,0,0,2.16-7.25c.26-1.14.26-1.39.51-1.39s5.53,1.58,5.53,3c0,.45-.12.57-1.46,1.27-1,.51-4.45,4.2-4.45,4.77s.64.57,1,.57h16.34a2.45,2.45,0,0,0,2.36-1c.57-.7.95-1,1.4-1,.63,0,4.51,2.79,4.51,3.62,0,.38-.13.44-1.27,1.21a2.13,2.13,0,0,0-.83,1.71c-.25,2.23,0,13.86,0,16.46,0,1.84-.06,4.26-3,4.26-2.09,0-2.09-1.15-2.09-2.67s-1.15-1.59-2-1.59Zm-.38-19.32c-1.91,0-1.91.7-1.91,3.56,0,4.07,0,4.51,1.91,4.51H451c2,0,2-.7,2-3.56,0-4.06,0-4.51-2-4.51Zm.06,9.73c-2,0-2,.63-2,3.3,0,4.19,0,4.64,2,4.64h22.51c2,0,2-.32,2-6,0-1.15-.12-2-2-2Z"/><path d="M500,43.31c-6.55,0-9.35-4.89-9.35-6.1,0-.31.06-.57.51-.57a16.46,16.46,0,0,1,2.61,1.21,15.9,15.9,0,0,0,6.55,1.72c2.41,0,6.74-1.15,6.74-2.17,0-.57-2.1-2-2.93-2.6-1.72-1.21-4.07-3.37-4.07-5.21a3.07,3.07,0,0,1,3.18-3.05c1.34,0,2,.38,4.9,2.1a10.66,10.66,0,0,0,6,1.46c.76,0,4-.07,4.7,0A2.2,2.2,0,0,1,521,32.38c0,1.66-3,3.94-3.88,4.45-1.71,1.08-1.9,1.21-1.9,1.66a1.81,1.81,0,0,0,.76,1.2c3.31,2.93,11.64,10.3,11.64,16.78a4,4,0,0,1-4.2,4.26c-1.14,0-1.59-.26-5.41-2.36-2.41-1.33-6.48-3.3-10.81-3.3-6.16,0-8.9,5-8.9,7.37,0,4.07,4,5.66,9.41,5.66,1.08,0,6.49-.57,6.62-.57A2.68,2.68,0,0,1,517.45,70c0,3.37-6.1,3.37-7.25,3.37-5.28,0-8.07-.89-10.23-2-3.25-1.59-5.47-4.76-5.47-7.88,0-6.29,6.48-10.1,13.54-10.1a22.89,22.89,0,0,1,6.87,1.14c3.94,1.15,4.32,1.27,5.21,1.27a2,2,0,0,0,2.23-2c0-4.13-8.46-13.6-10.3-13.6-.38,0-6.74,2.35-8.08,2.67A18.62,18.62,0,0,1,500,43.31Zm11.19-7.49c.38,0,2.35-.64,2.35-2,0-.82-.19-1-2.22-2.22-4.2-2.54-4.71-2.8-5.41-2.8a1.19,1.19,0,0,0-1.21,1.15c0,1.52,2.29,3.36,2.8,3.75C508.42,34.35,510.39,35.82,511.22,35.82Z"/><path d="M581.55,32.07c0,1-.39,1.39-3.5,4.83-5.28,5.78-6.81,7.62-8.4,10.61a16.71,16.71,0,0,0-1.27,2.67c0,.19.07.25.26.25.7-.51,1.9-1.21,2.48-1.59,4.13-2.73,6.93-2.79,8.14-2.79,7.82,0,8.26,8.45,8.26,11,0,1-.38,5.15-.38,6a4.23,4.23,0,0,0,4.64,4.64c3.5,0,6.81-2.61,9.86-5.79.25-.25,1.08-1.52,1.27-1.52s.19.13.19.32c0,1.08-1.52,4.19-3,5.91-3.37,3.87-8.26,6.22-12,6.22-3.57,0-5.66-3.17-5.66-6.67,0-1.46,1-8.13,1-9.47,0-3.56-1.27-8.58-6-8.58-1.09,0-11.77,1.21-14.06,17.48-.13.76-.38,4.13-.57,4.77-.13.44-.51,2.09-2.1,2.09-.76,0-3-.63-3-4.76,0-1.85.19-2.23,1.78-5.91.51-1.15,2.55-6.17,3-7.12,2.23-4.7,3-5.85,9.48-16.14.31-.57,3-5.66,3.49-6.8a6.43,6.43,0,0,0,.58-2.54c0-.38-.45-2.67-.45-2.93s.13-.38.45-.38C578.24,25.9,581.55,30.16,581.55,32.07Z"/><path d="M629.93,54.94c0-1.9,1.78-3.94,6.11-9,2.86-3.3,5.4-8.58,5.4-9.47,0-.38-.44-.44-.7-.44-.63,0-3.24.51-3.81.51-2.42,0-5.66-3.12-5.66-5.59,0-.19,0-.45.38-.45a14.3,14.3,0,0,1,2.41,1.21,10.22,10.22,0,0,0,4.2,1.14c5.22,0,5.22-1.71,5.22-3a5.18,5.18,0,0,0-.51-2.23c-.19-.32-1.53-1.46-1.53-1.84s1.66-1,2.8-1c1.52,0,3.12.57,3.24,2,.07.83.32,1,2.86,1.15.45,0,2.86.31,2.86,1.65,0,2.1-4.64,3.87-7.56,5-1,.38-1,.51-2.42,3.75a49.22,49.22,0,0,1-3.43,6.86c-.32.57-.45.76-.45,1a.24.24,0,0,0,.26.25,12.08,12.08,0,0,0,2-.7,5.93,5.93,0,0,1,2.48-.51c.82,0,3.75.13,5.4,3.88.45,1.08.51,1.21.64,1.21a30.89,30.89,0,0,0,2.61-3.43c2.1-2.93,6.23-8.71,11.76-8.71a6,6,0,0,1,6,5.66c0,3-5,5.08-9,6.8-1.59.69-8.77,3.55-9.92,4.25s-1.08,1.34-1.08,2.67c0,.57.13,3.24.13,3.82,0,1,0,4.63-2.35,4.63-1.72,0-2-2.09-2-3.24,0-.63.19-3.68.19-3.75,0-.25,0-.76-.44-.76s-6.17,3.94-6.17,7.56c0,4.39,6.36,4.39,8.2,4.39a20,20,0,0,0,4.07-.38c.89-.13,5-1.15,5.79-1.15,1.34,0,3.12.64,3.12,2.16,0,3.94-9.86,4.2-11.39,4.2-8.07,0-12.33-3.31-12.33-8.33,0-4.06,2.41-6.1,8.39-10.93a2.7,2.7,0,0,0,1-2.22c0-2.86-.51-6.42-3.06-6.42s-6.17,2.92-7.82,6.74c-.7,1.59-1.4,3.11-3.43,3.11C631.14,57,629.93,56.66,629.93,54.94Zm16.22-24c.12,0,3.18-.82,3.18-1.52s-1.59-1-2.17-1c-.89,0-1.14,1.78-1.14,2S646,30.92,646.15,30.92Zm5.78,20.59c0,.13.07.32.26.32s12.72-5.08,12.72-9.28c0-1.59-1.4-1.9-2.23-1.9C657.4,40.65,651.93,50.5,651.93,51.51Z"/><path d="M735,31.43c2.67,0,3,0,4.32-1.46,1.72-2,1.91-2.22,2.42-2.22,1.27,0,5.53,3.74,5.53,4.44,0,1-.38,1-3.37,1H702.1c-1.14,0-2.35,0-2.35,2,0,1.08.19,5.91.19,6.92,0,15.06-1.46,22.56-3.5,27-2.22,4.7-5.4,9.34-6.49,9.34a.42.42,0,0,1-.38-.44c0-.19,1.47-2.8,1.72-3.31,3.94-8.32,4.07-20.78,4.07-27.45a124.66,124.66,0,0,0-.76-15.25c-.07-.38-.38-2.35-.38-2.73,0-.7.5-.77.82-.77.83,0,4,2.23,4.71,2.55a5.93,5.93,0,0,0,2.73.44h12.59c2.16,0,2.16-.7,2.16-3.81a19.15,19.15,0,0,0-.25-4.2c-.06-.25-.38-1.33-.38-1.52,0-.51.38-.64.83-.64s3.3.7,3.62.77c1.72.38,2.61.57,2.61,1.27,0,.32-.13.44-1,1.33-.38.38-.7.7-.7,2.73,0,4,.25,4.07,2.29,4.07ZM706.36,71.34a4,4,0,0,1-3.5,2,2.42,2.42,0,0,1-2.48-2.67c0-1.46.51-2.35,2.48-5.59.51-.83,2.36-4.38,2.36-12.77,0-.51-.13-2.8-.13-3.31a.42.42,0,0,1,.44-.44c.7,0,3.18,6,3.18,11.88C708.71,62.19,708.14,68.42,706.36,71.34Zm11.76-7.5c0,2.8.26,6.61.7,7.31.64,1.08,2.29,1.59,5.47,1.59,8.14,0,10-.07,11.2-5.34.38-1.65,1.2-5.21,1.65-5.21s1.33,3.24,1.65,3.81,2.48,2.86,2.48,3.43c0,1-1.84,4.58-4.89,6.17-1.53.82-3,1.39-10,1.39-9.22,0-12.66-.82-12.66-7.94,0-.83.13-9.28.13-9.59s-.19-12.78-.32-14.68c0-.39-.25-2.1-.25-2.42,0-.51.06-.7.63-.7S720,43,720,44.14a11.81,11.81,0,0,1-.89,1.4,3.69,3.69,0,0,0-.76,2.35C718.32,50.43,718.12,61.55,718.12,63.84Zm11-11.31c-1.72,0-1.78-.32-3.88-7.06a40.67,40.67,0,0,0-2.8-6.86c-1.08-1.84-1.21-2-1.21-2.22s.13-.38.32-.38,10.24,6.67,10.24,12.9C731.8,50.88,730.78,52.53,729.13,52.53ZM745,63.65c-2.22,0-2.79-2.61-3.11-4.26a38.83,38.83,0,0,0-3.5-9.4c-.19-.26-2.16-3.63-2.16-3.82a.17.17,0,0,1,.19-.19c1.21,0,3.5,2,4.77,3.18,4.51,4.32,6,7.5,6,11.44C747.19,62.25,746.3,63.65,745,63.65Z"/><path d="M775.61,36.26c-.83,0-1.85,0-2.17,1.14-.06.45-.06,7.82-.06,9a1.15,1.15,0,0,0,1.21,1.14c.51,0,5.91-2.86,6.55-2.86.06,0,.25,0,.25.19,0,.45-.89,1.15-6.23,5.21A3.61,3.61,0,0,0,773.44,53c0,2.35.38,13.91.38,16.52,0,7.69-6,9.28-6.29,9.28a1.53,1.53,0,0,1-1.08-.64c-.19-.25-1-1.65-1.21-1.91-.45-.5-3.12-2.6-3.12-3s.45-.26,1-.26,2.8.07,3.3.07c2.68,0,3,0,3-9.66,0-1-.06-5.72-.12-6.55a1.15,1.15,0,0,0-1.15-1.2,8.51,8.51,0,0,0-3.37,2.73c-.13.25-.51.76-.89.76-1,0-3.43-5.15-3.43-5.78,0-.32.44-.38.82-.45,1.08-.19,6.94-1.39,7.83-3.81.19-.51.19-8.9.19-10.36s0-2.48-1.78-2.48c-.77,0-4.65.26-5.22.26-.25,0-.38-.13-.57-.38l-1.27-1.46c-.26-.32-.26-.32-.26-.45s.13-.13.26-.13c1,0,5.72.39,6.8.39,2,0,2-1.21,2-2.61,0-1.72,0-6.23-.19-7.69-.06-.38-.82-2-.82-2.41s.5-.58.76-.58,3.18.89,3.75,1c1.84.45,2.93.76,2.93,1.59,0,.38-1.53,1.65-1.79,2-.44.83-.44,5.27-.44,6.54,0,.89,0,2.23,2,2.23,1.78,0,1.91-.19,2.67-1.08.58-.7,1.34-1.59,2-1.59s3.43,2.86,3.43,3.49c0,.83-1.27.83-3.37.83Zm3.3,13.15a.84.84,0,0,1-.25-.38.17.17,0,0,1,.19-.19c.38,0,2,.19,2.29.19.82.07,6,.26,7.44.26,1.21,0,1.91,0,2.22-.89a32.9,32.9,0,0,0,.64-4.83c0-.38-.13-1.59-1.91-1.59-.57,0-3.37.25-3.88.25-.19,0-.32-.19-.51-.38l-1.27-1.46c-.19-.25-.25-.32-.25-.44s.06-.13.25-.13c.38,0,2.35.19,2.8.19,3.12.13,5.72.25,8.71.25h7.12c2.67,0,2.93,0,3.44-.44s2.29-2.61,2.86-2.61c.32,0,5.28,3,5.28,3.82s-1.28.89-3.44.89H798.18c-1.85,0-1.85,1.2-2,2.09s-.64,3.5-.64,3.94a1.23,1.23,0,0,0,1.4,1.34h9.16c2.67,0,2.92,0,3.43-.45s2.48-2.92,3.05-2.92,5.6,3.43,5.6,4.19-1.27.89-3.37.89h-18a2.43,2.43,0,0,0-2.29,1.21c-.12.26-.82,2.67-.82,2.73,0,.7.51,1.08,1.27,1.08h10.75a3.28,3.28,0,0,0,2.54-.89c.38-.31,1-.89,1.27-.89a40.58,40.58,0,0,1,4.64,2.86c.32.26.58.39.58.83,0,.7-.39.83-1.91,1.33-.64.26-1,.58-1.72,1.85a38,38,0,0,1-4.51,6.1,1.1,1.1,0,0,0-.32.89c0,1,1.59,1.84,4.32,3.11a44.94,44.94,0,0,0,6.93,2.23c.26.06,1,.31,1,.57s-2.74,1.71-3.25,2.09a8.44,8.44,0,0,0-1.84,1.78c-.32.38-.38.51-.64.51s-3.3-1-9-5.65a1.82,1.82,0,0,0-1.46-.58,2.76,2.76,0,0,0-1.72.64c-5.34,3.62-15.19,5.85-17.61,5.85-.19,0-.7,0-.7-.26s.19-.38,2.23-1.14a46.09,46.09,0,0,0,13.61-7.37,1.79,1.79,0,0,0,.76-1.4c0-.45-.51-1.08-.89-1.65a62.3,62.3,0,0,1-4.39-7.31.79.79,0,0,0-.83-.57c-.63,0-.76.19-2,2.22-6,10.55-15.58,15.44-16.47,15.44-.06,0-.12-.12-.12-.19a11.06,11.06,0,0,1,1.71-1.9c3.69-3.56,8.33-8,12-16a24.19,24.19,0,0,0,2-5.91C790,51,788.32,51,787.56,51c-.25,0-4.39.07-6,.19-.13,0-.76.13-.89.13s-.38-.19-.57-.44Zm16.79-21.6c-2.23.13-7.31.32-9.48.32-.31,0-4.45-.07-4.45-.64,0-.38.32-.44,3.12-.76,4.58-.57,17.1-2.29,20.47-3.81.51-.26,2.74-1.78,3.31-1.78.19,0,5.66,3.11,6.36,4a1,1,0,0,1,.13.45c0,1-1.47,1-2.86,1C811.09,26.6,798.12,27.62,795.7,27.81Zm-8.27,11.06c-1.65,0-1.71-1-2-4.9a11.46,11.46,0,0,0-.77-2.92,5.12,5.12,0,0,1-.31-1.4c0-.13.06-.19.25-.19a6.87,6.87,0,0,1,5.09,6.36C789.66,37.34,788.89,38.87,787.43,38.87Zm8.65,18.87c-.76,0-1.27.38-1.27,1.08,0,1.27,6.17,6.8,7.38,6.8.63,0,1.33-1,2.79-2.86.13-.19,2.1-3.24,2.1-4a.89.89,0,0,0-1-1ZM798.75,38c-1.46,0-1.46-.45-1.84-4.64a36.71,36.71,0,0,0-.7-3.88c-.07-.25-.32-.7-.32-.82s0-.26.19-.26,5.47,3.75,5.47,6.74C801.55,36,800.53,38,798.75,38Zm16.09-8.26c.51.31.57.57.57.69,0,.39-1.78.89-2,1.15-.64.63-3.31,3.68-4,4.19a42.68,42.68,0,0,1-3.68,2.67.13.13,0,0,1-.13-.13c0-.89,3.94-8.26,3.94-9.21,0-.19-.13-.89-.13-1s.07-.57.51-.57a10.24,10.24,0,0,1,2.93,1.21C813.19,28.89,814.58,29.52,814.84,29.72Z"/><path d="M843.13,72A3.44,3.44,0,0,1,850,72a3.44,3.44,0,0,1-6.87,0Zm6.74-41.88c0,1.46-1,6.74-1.14,8.45a220,220,0,0,0-1,24.21c0,1.66-.06,2.61-1.14,2.61s-1.15-.89-1.15-2.48a208,208,0,0,0-1.08-24.4c-.13-1.27-1.08-7.25-1.08-8.39a3.38,3.38,0,0,1,3.31-3.37A3.42,3.42,0,0,1,849.87,30.16Z"/></svg>