<svg xmlns="http://www.w3.org/2000/svg" viewBox="0 0 871.26 251.69"><defs><style>.cls-1{isolation:isolate;}.cls-12,.cls-2,.cls-5,.cls-6{fill:#231815;}.cls-11,.cls-23,.cls-29,.cls-3,.cls-34,.cls-7,.cls-9{fill:#fff;}.cls-10,.cls-11,.cls-12,.cls-13,.cls-14,.cls-15,.cls-16,.cls-17,.cls-18,.cls-21,.cls-22,.cls-23,.cls-25,.cls-29,.cls-3,.cls-30,.cls-33,.cls-34,.cls-35,.cls-36,.cls-5,.cls-6,.cls-8,.cls-9{stroke:#231815;}.cls-10,.cls-11,.cls-12,.cls-13,.cls-14,.cls-15,.cls-16,.cls-17,.cls-18,.cls-21,.cls-22,.cls-23,.cls-25,.cls-29,.cls-3,.cls-30,.cls-33,.cls-34,.cls-35,.cls-8,.cls-9{stroke-linecap:round;}.cls-10,.cls-11,.cls-12,.cls-13,.cls-14,.cls-15,.cls-16,.cls-17,.cls-18,.cls-21,.cls-22,.cls-23,.cls-25,.cls-29,.cls-3,.cls-30,.cls-33,.cls-34,.cls-35,.cls-36,.cls-8,.cls-9{stroke-linejoin:round;}.cls-3,.cls-8{stroke-width:1.54px;}.cls-16,.cls-4{fill:#ecff00;}.cls-5,.cls-6{stroke-miterlimit:10;}.cls-5{stroke-width:1.15px;}.cls-6{stroke-width:0.77px;}.cls-10,.cls-13,.cls-15,.cls-18,.cls-22,.cls-30,.cls-33,.cls-35,.cls-8{fill:none;}.cls-10,.cls-9{stroke-width:1.68px;}.cls-11,.cls-12,.cls-13,.cls-14,.cls-16,.cls-17,.cls-21,.cls-25{stroke-width:1.69px;}.cls-14{fill:#39d800;}.cls-15{stroke-width:1.54px;}.cls-17{fill:#ffb500;}.cls-18{stroke-width:0.84px;}.cls-19{fill:#bb0d23;}.cls-20{fill:#e1d9ff;}.cls-21{fill:#e1baff;}.cls-22{stroke-width:2.11px;}.cls-23{stroke-width:2.53px;}.cls-24{fill:#e5e7ac;}.cls-25,.cls-32{fill:#c8c9ca;}.cls-26{fill:#e5e6e6;}.cls-27{mix-blend-mode:multiply;}.cls-28{fill:#66ebd6;}.cls-29,.cls-30{stroke-width:1.71px;}.cls-31{fill:#a80092;}.cls-33,.cls-34{stroke-width:1.79px;}.cls-35{stroke-width:2px;}.cls-36{fill:#86c2ba;stroke-width:1.43px;}</style></defs><g class="cls-1"><g id="レイヤー_1" data-name="レイヤー 1"><path class="cls-2" d="M822.75,193.76s4,3.87,5.58,7.81,2.21,7.47,1.29,13.58c-.59,4,.92,10.17.92,10.17s-8.41-.83-12.64-4.12-5.65-10.67-5.21-15.62S822.75,193.76,822.75,193.76Z"/><path class="cls-3" d="M783.77,231.24h47.85c2.64-5.79-3.29-11.22-3.29-11.22-7.91-2.39-10.23-5-10.23-5-3.24-5.61-1.61-14.08-1.61-14.08H799.34s1.62,8.47-1.62,14.08c0,0-2.32,2.58-10.22,5C787.5,220,779.34,225.49,783.77,231.24Z"/><path class="cls-4" d="M788.48,222.74a51.21,51.21,0,0,0,19.45,3.52,73,73,0,0,0,20.4-2.82l-1,26.61H783.25Z"/><path class="cls-3" d="M828.48,180.9c-.81-1-2.35-.35-2.39-.33a63,63,0,0,0-.42-7.36c-.57-3.68-6.22-14-9.36-15.86l-14.68-.74a32.76,32.76,0,0,0-9,12.44A43.47,43.47,0,0,0,790,180.74l-.23-.17s-1.58-.67-2.41.33c-1.8,2.21-1.17,7.6-.1,10.55.86,2.36,2.36,3.51,3.59,3.39a15.69,15.69,0,0,0,1.61,4.21c2.39,4,7.33,9.09,12.21,11a6.68,6.68,0,0,0,6.52,0c4.89-1.93,9.83-7,12.22-11a16.39,16.39,0,0,0,1.61-4.21c1.22.12,2.72-1,3.58-3.39C829.66,188.5,830.29,183.11,828.48,180.9Z"/><path class="cls-2" d="M834,176.22c1.16-13.78-5.72-22.17-9.58-25.21s-9.6-2.12-9.6-2.12a18.72,18.72,0,0,0-12.14-1.41c-3.39.82-8.83,3.64-11.69,7.23-7.31,9.17-8.1,13.8-7.64,22s7.48,15.13,7.48,15.13a85.32,85.32,0,0,1-.44-10.53c3-6.77,10.78-11.52,10.78-11.52-4.65,5.28-4.93,9.46-4.93,9.46,6.38-9.44,16.46-15.62,16.46-15.62s.51,6.68,8.59,14.32c0,0-1.74-4.2-3.5-7.5,0,0,4.09.52,8.25,7.92a46.22,46.22,0,0,1-.48,12.6S833.26,185,834,176.22Z"/><path class="cls-5" d="M797.66,178c-2.4-.24-7.33-.5-7.77,3.39a4.93,4.93,0,0,0,3.24,5.42,13.49,13.49,0,0,0,9.61,0c3.67-1.62,4.23-4.3,4.15-4.78C806.41,179.37,801.68,178.4,797.66,178Z"/><path class="cls-5" d="M818.17,178c2.39-.24,7.32-.5,7.77,3.39a4.94,4.94,0,0,1-3.24,5.42,13.49,13.49,0,0,1-9.61,0c-3.67-1.62-4.24-4.3-4.15-4.78C809.42,179.37,814.15,178.4,818.17,178Z"/><path class="cls-6" d="M825.75,179.88A5.57,5.57,0,0,1,827,180c.45.2.36,1.46,0,1.75l-1.14.15S825.26,180.16,825.75,179.88Z"/><path class="cls-6" d="M790.05,179.88a5.51,5.51,0,0,0-1.27.15c-.45.2-.36,1.46,0,1.75l1.14.15S790.54,180.16,790.05,179.88Z"/><path class="cls-6" d="M807.13,181.51a2.43,2.43,0,0,0,1.5,0c.58-.29.86,1.1.84,1.28s-.54.54-.54.54a3.11,3.11,0,0,0-2,0c-.82.39-.57-.92-.5-1.06S806.61,181.4,807.13,181.51Z"/><path class="cls-2" d="M809.55,203.62a5.66,5.66,0,0,1-3.21,0c-1.09-.28-1-1.63,0-1.44a9.61,9.61,0,0,0,3.21,0C810.45,202,810.61,203.28,809.55,203.62Z"/><path class="cls-2" d="M812.21,199a16.79,16.79,0,0,1-8.54,0c-2.81-.63-2.33-2.62,0-1.82a12.75,12.75,0,0,0,8.54,0C814.41,196.39,815,198.42,812.21,199Z"/><path class="cls-2" d="M809.53,194.29a3.44,3.44,0,0,1-3.21,0c-1-.45-.94-1.63,0-1.44a9.61,9.61,0,0,0,3.21,0C810.43,192.66,810.54,193.81,809.53,194.29Z"/><path class="cls-7" d="M798,178.45c-2.28-.23-6.51-.28-6.94,3.05a4.28,4.28,0,0,0,3,5c1.09.32,4.8,1.53,8.26-.13s3.35-3.9,3.27-4.36C805.1,179.5,800.65,178.72,798,178.45Z"/><path class="cls-7" d="M817.84,178.45c2.28-.23,6.51-.28,6.94,3.05a4.28,4.28,0,0,1-3,5c-1.09.32-4.81,1.53-8.26-.13s-3.35-3.9-3.27-4.36C810.73,179.5,815.18,178.72,817.84,178.45Z"/><path class="cls-2" d="M800.73,181.93a1.41,1.41,0,1,1-1.39-1.62A1.51,1.51,0,0,1,800.73,181.93Z"/><path class="cls-3" d="M765.22,250.05s2.79-12.71,4.82-18c2.68-6.94,5.59-8.09,8.26-9.19,4.45-1.83,11.31-4.26,11.31-4.26s2.21,26.8,2.38,31.43"/><path class="cls-2" d="M803.63,176.63a13.86,13.86,0,0,0-4.87-1.53,11.12,11.12,0,0,0-6.07,1.4c-.75.49-1.17,1.51.18,1a11.33,11.33,0,0,1,5.58-.73,27.64,27.64,0,0,1,4.84,1.08C803.7,178.12,804.17,176.94,803.63,176.63Z"/><path class="cls-2" d="M815.09,181.93a1.41,1.41,0,1,0,1.4-1.62A1.52,1.52,0,0,0,815.09,181.93Z"/><path class="cls-3" d="M850.6,250.05s-2.78-12.71-4.82-18c-2.67-6.94-5.58-8.09-8.25-9.19-4.45-1.83-11.31-4.26-11.31-4.26s-2.31,26.37-2.87,31.43"/><path class="cls-2" d="M812.2,176.63a13.76,13.76,0,0,1,4.87-1.53,11.12,11.12,0,0,1,6.07,1.4c.75.49,1.17,1.51-.18,1a11.33,11.33,0,0,0-5.58-.73,27.18,27.18,0,0,0-4.84,1.08C812.12,178.12,811.66,176.94,812.2,176.63Z"/><path class="cls-8" d="M790,223.35a56.81,56.81,0,0,0,17.9,2.91,73.79,73.79,0,0,0,17.63-2.07"/><path class="cls-9" d="M578.67,78.88h9.45c2,0,1.69,2.3,1.69,2.3-.32.28-.42,6.53,1.13,7.64a78.74,78.74,0,0,0,9.76,6.75c4.26,2.51-10.67,9.7-10.67,9.7H579.24s-12.85-10.78-10.68-12c5.51-3,7.71-4.47,7.71-4.47,1.55-1.11,1.45-7.36,1.13-7.64C577.4,81.18,577.48,78.88,578.67,78.88Z"/><path class="cls-7" d="M612.47,110.58c-1.48-6.9-2.31-9.36-6.26-12.71a69.73,69.73,0,0,0-8.83-5.79c-.79-.9-1.35-.92-1.35-.92S592.87,98,583.17,98s-12.83-6.86-12.83-6.86-.56,0-1.35.92a64.33,64.33,0,0,0-8.83,5.79c-4,3.28-4.89,5.81-6.27,12.71Z"/><path class="cls-2" d="M601.46,76.57s-4.43,7.1-5.24,10.37a4.88,4.88,0,0,1-1.74-1.42,6.21,6.21,0,0,0-.94,2.7s-5.7-2.68-5.42-6a51.68,51.68,0,0,1,2.09-7.93l7.82-.5S601.84,74.31,601.46,76.57Z"/><path class="cls-2" d="M565.26,76.57s5.25,7.21,6.06,10.48a5.23,5.23,0,0,0,1.33-2.51,10.8,10.8,0,0,1,1.46,3.68s4.9-1.93,5.12-4.34-2.62-9.57-2.62-9.57l-7.82-.5S564.88,74.31,565.26,76.57Z"/><path class="cls-9" d="M601.85,67.15s.55-1.49,1.46-1.49c2.58,0,.77,7.3,0,9.3-1.28,3.32-3.26,2.14-3.26,2.14a12.69,12.69,0,0,1-3.73,4.7c-3,2.36-5.35,3.27-9.8,5.33a7.7,7.7,0,0,1-6.22,0c-4.52-2-7.3-3-9.81-5.33a15.26,15.26,0,0,1-3.72-4.7s-2,1.18-3.26-2.14c-.77-2-2.45-8.5,0-9.3,2.09-.69,2.42.93,2.42.93s1.78-12.94,4.89-17,13.12-5.3,13.12-5.3,10.53,2.23,13.25,5.67S601.85,67.15,601.85,67.15Z"/><path class="cls-2" d="M577,71.55a1.16,1.16,0,0,1-1.9,0,1.66,1.66,0,0,1,0-2.09,1.2,1.2,0,0,1,1.9,0A1.64,1.64,0,0,1,577,71.55Z"/><path class="cls-2" d="M584.67,74.32a2.18,2.18,0,0,1-2.54,0c-.76-.6-.75-1.58,0-1.4a6,6,0,0,0,2.54,0C585.39,72.74,585.67,73.58,584.67,74.32Z"/><path class="cls-2" d="M587.17,79.44a11.66,11.66,0,0,1-7.41,0c-1.54-.56-1-1.66.33-1.27a11.58,11.58,0,0,0,6.65,0C588.22,77.7,588.51,78.89,587.17,79.44Z"/><path class="cls-2" d="M589.78,71.55a1.17,1.17,0,0,0,1.91,0,1.66,1.66,0,0,0,0-2.09,1.21,1.21,0,0,0-1.91,0A1.67,1.67,0,0,0,589.78,71.55Z"/><path class="cls-2" d="M589.11,63.92a6.41,6.41,0,0,1,4.32.06c1,.25.83,1.44,0,1.27a7.52,7.52,0,0,0-4.06-.1C588.35,65.5,588.17,64.22,589.11,63.92Z"/><path class="cls-10" d="M597.74,51.33s.75,7.05,4.66,11.64"/><path class="cls-10" d="M603.14,55.14a17.51,17.51,0,0,1,.56,15.14"/><polygon class="cls-2" points="571.55 92.35 569.48 92.35 569.48 90.99 570.38 90.76 571.55 92.35"/><polygon class="cls-2" points="594.82 92.35 596.89 92.35 596.89 90.99 595.98 90.76 594.82 92.35"/><polygon class="cls-2" points="596.89 92.34 598.32 92.34 596.89 91.45 596.89 92.34"/><path class="cls-10" d="M612.47,110.58c-1.48-6.9-2.31-9.36-6.26-12.71a69.73,69.73,0,0,0-8.83-5.79c-.79-.9-1.35-.92-1.35-.92S592.87,98,583.17,98s-12.83-6.86-12.83-6.86-.56,0-1.35.92a64.33,64.33,0,0,0-8.83,5.79c-4,3.28-4.89,5.81-6.27,12.71"/><path class="cls-2" d="M577.26,63.92a6.4,6.4,0,0,0-4.32.06c-1,.25-.83,1.44,0,1.27a7.51,7.51,0,0,1,4.06-.1C578,65.5,578.2,64.22,577.26,63.92Z"/><path class="cls-2" d="M571.84,66.79a45.9,45.9,0,0,0,6.75-5.4,17.25,17.25,0,0,0-.62,3.28,32.29,32.29,0,0,0,5.47-4.5l.21,4.5a59.09,59.09,0,0,0,7.65-9.81c1.2,1.9,2.81,6.35,8.26,12.17,1.11,1.18,1.07,2.91.51,7.22,0,0,2.3-2.59,2.61-4.27,0,0-.12,0,.28,1.56s2.92,3.19,2.92,3.19c7.33-17.12,1.61-26.57-3.48-32a14.73,14.73,0,0,0-14.25-4.42s-4.2-2.93-12.76.28c-11.08,4.15-13.64,12.06-14.61,18.52s0,15.3,0,15.3c1.71-1.23,4-2.66,4-2.66a12.09,12.09,0,0,0,2.12,4.35l.35-5.5s4-3.23,5.25-4.52Z"/><path class="cls-11" d="M632,178.48s.39-1.93,2.89-1.11c2.93,1,.92,7.49,0,9.88-1.52,4-3.89,2.56-3.89,2.56s-2.22,6.51-5,10.06-5.64,6.95-11.12,9a13.85,13.85,0,0,1-3.72.68,11.54,11.54,0,0,1-3.71-.68c-5.48-2.08-8.3-5.48-11.12-9s-5-10.06-5-10.06-2.37,1.4-3.89-2.56c-.92-2.39-2.93-8.91,0-9.88,2.5-.82,2.89,1.11,2.89,1.11s1-9.25,2-11.92c0,0,12.11-2.66,19.07-2.66s20.08,2.77,20.08,2.77Z"/><path class="cls-11" d="M610.59,243.12s13.71-3.1,19.64-8.45S633.9,219,633.9,219l-10.07-4.77c-2.69-1.33-2.52-7.83-2-8.16,0,0-7.29-3.56-10.87-3.56s-10.7,3.56-10.7,3.56c.56.33.73,6.83-2,8.16l-10,4.77s-1.6,11.41,3.74,17.33S610.59,243.12,610.59,243.12Z"/><path class="cls-2" d="M604.89,170.74a23.87,23.87,0,0,0-6.75-.26c-1.14.29-1,1.71,0,1.52a39.93,39.93,0,0,1,6.75.26C605.84,172.46,606,171.1,604.89,170.74Z"/><path class="cls-2" d="M614.21,197.31a20.46,20.46,0,0,1-6.25,0c-2.11-.29-1.84-2.11,0-1.92a32.62,32.62,0,0,0,6.25,0C616,195.2,616.28,197,614.21,197.31Z"/><path class="cls-12" d="M620.67,161.16a20.58,20.58,0,0,0,2.4,4.22c1,1.4,4.22,2.52,4.22,2.52s3.74,9.61,3.74,15.15c0,0,1.93-4.79,2.41-5.88,0,0,.71-2.2,1.16-4.24a12.14,12.14,0,0,0,.29-4.18,38.89,38.89,0,0,0-2.18-9.76c-2.26-5.57-2.5-5.53-2.5-5.53s0-4.12-2.65-6.46c-4.15-3.62-7.72-2.59-7.72-2.59s-1.92-3.62-7-3.18c-6.31.55-7.23,4-7.23,4s-3.25-1.92-7.53.93c-3.11,2.07-3.77,6.92-3.77,6.92a8,8,0,0,0-4.72,5.67c-1.12,4.45-2.28,10-2.28,10a17.16,17.16,0,0,0,.61,5.33c.52,1.76.84,3.09.84,3.09.48,1.09,2.41,5.88,2.41,5.88,0-5.54,3.74-15.15,3.74-15.15a10.63,10.63,0,0,0,4.22-2.52,14,14,0,0,0,2.4-4.22c7.91,1.55,11.19-2.5,11.19-2.5a8.73,8.73,0,0,0,3.9,2.44A10.08,10.08,0,0,0,620.67,161.16Z"/><path class="cls-13" d="M609.17,178.45s-.31,4.73-.31,9.09a3,3,0,0,0,4.15.25"/><path class="cls-2" d="M609.36,174.32a6.07,6.07,0,0,1,3.38,0c1.14.29,1,1.71,0,1.52a10.09,10.09,0,0,0-3.38,0C608.41,176,608.24,174.68,609.36,174.32Z"/><path class="cls-11" d="M668,249.86c-3.17-10.42-7.27-18.44-14-22.9S634.32,218,634.32,218s-4.83,13.66-23.39,13.66A26.1,26.1,0,0,1,587.85,218s-13,4.47-19.74,8.93-10.81,12.48-14,22.9"/><path class="cls-13" d="M594,173.45s11.55-2.63,14.89,0c0,0-.28,6.7-1,7.88s-10,1.45-11.85,0C594.79,180.37,594,173.45,594,173.45Z"/><path class="cls-13" d="M605.46,192.2a46,46,0,0,0-1.33,4.86c-.67,3-1.26,5.44-1.26,5.44"/><line class="cls-13" x1="610.93" y1="191.24" x2="610.25" y2="193.38"/><line class="cls-13" x1="607.22" y1="191.01" x2="606.48" y2="193.38"/><line class="cls-13" x1="609.13" y1="191.01" x2="608.25" y2="193.38"/><path class="cls-2" d="M617.27,170.74a23.89,23.89,0,0,1,6.75-.26c1.14.29,1,1.71,0,1.52a40,40,0,0,0-6.75.26C616.32,172.46,616.15,171.1,617.27,170.74Z"/><path class="cls-13" d="M628.15,173.45s-11.55-2.63-14.89,0c0,0,.28,6.7,1,7.88s10,1.45,11.85,0C627.37,180.37,628.15,173.45,628.15,173.45Z"/><path class="cls-12" d="M614.19,204.83l.39-1.22,2.29,1a9.16,9.16,0,0,0,2-2.75l1.82,1.34,3.22-2.72.75.86,2.8-3.79-4.05,9-.73-.83-2,2.94-1-.67-2.25,2.56-1-.11-2.28,1.81-1.18-.7-2.1,1.83-1.46-1.89-1.22.29-1.77-1.64h-1l-1.66-1.24-1.39.37-1.86-2.44-.48.22-1.28-1.6-.83.27-3.28-8.2L598,202l1.28-1.24,2,3.08,1.68-2.65c-.08,1.33,1.76,3.68,1.76,3.68l2.82-1.28,1.34.83A24.28,24.28,0,0,0,611,202.5Z"/><path class="cls-13" d="M616.7,192.2s.81,2.55,1.48,5.55,1,4.75,1,4.75"/><line class="cls-13" x1="611.91" y1="191.24" x2="611.91" y2="193.38"/><line class="cls-13" x1="615.05" y1="191.38" x2="615.68" y2="193.38"/><line class="cls-13" x1="613.17" y1="191.38" x2="613.92" y2="193.38"/><path class="cls-14" d="M634.27,161.43s-3.56-15.24-8.34-19c0,0-5.78-4.21-12.76-4.21s-16.94,4.21-16.94,4.21c-4.78,3.74-8.34,19-8.34,19l-.74,4.11h47.12A7,7,0,0,0,634.27,161.43Z"/><path class="cls-14" d="M634.49,175.86s9.2-2.33,11.12-4.55-1-4.77-9.23-7.84c-5.41-2-19.31-3.56-23.35-3.56h-3.9c-4,0-17.83,1.86-23.34,3.56-9.62,3-11.17,5.62-9.24,7.84s11.12,4.55,11.12,4.55v-4.55s7.94-3.37,22.58-3.37h1.66c14.64,0,22.58,3.37,22.58,3.37Z"/><path class="cls-13" d="M583.31,219.7s7.1,16.62,27.69,16.62c21.23,0,27.16-16.62,27.16-16.62"/><path class="cls-7" d="M169.61,249.32c-1.13-10.78-7.12-26.91-7.12-26.91a12.36,12.36,0,0,0,4.21,1c-3.51-3.36-5.83-10.73-7.4-15.95-.61-2-1.84-5-2.73-7.05h.07a7,7,0,0,0,3.76,2.82s2-5.11,4.42-7.43,2.56-8.24,0-13-5.58-11.61-6.16-14.75-3.61-5.34-5.82-5.1c0,0-5.51-5.24-15.25-5.24s-15.24,5.24-15.24,5.24c-2.21-.24-5.24,2-5.82,5.1s-3.6,10-6.16,14.75-2.44,10.68,0,13,4.42,7.43,4.42,7.43a7.21,7.21,0,0,0,4-3.14c-.89,2.05-2.23,5.24-2.87,7.37-1.57,5.22-3.89,12.59-7.4,15.95a12.27,12.27,0,0,0,4.2-1s-6,16.13-7.11,26.91Z"/><path class="cls-2" d="M139.63,187.78a3.34,3.34,0,0,1-2,.82,3.64,3.64,0,0,1-2-.82,2.45,2.45,0,0,1-1.14-1.79c0-.7.91-1.74,3.16-1.74s3.19,1.13,3.19,1.74S140.05,187.39,139.63,187.78Z"/><path class="cls-2" d="M129.85,179.64a1.42,1.42,0,0,1-2.2,0,1.68,1.68,0,0,1,0-2.24,1.48,1.48,0,0,1,2.2,0A1.69,1.69,0,0,1,129.85,179.64Z"/><path class="cls-15" d="M120.49,169.77a76.44,76.44,0,0,0-1.51,13.7c0,6.62.11,9.75.75,12.54s-2.15,6.5-4.94,7.2c0,0-2-5.11-4.42-7.43s-2.56-8.24,0-13S116,171.17,116.53,168s3.61-5.34,5.82-5.1c0,0,5.51-5.24,15.24-5.24s15.25,5.24,15.25,5.24c2.21-.24,5.23,2,5.82,5.1s3.6,10,6.16,14.75,2.44,10.68,0,13-4.42,7.43-4.42,7.43c-2.79-.7-5.58-4.41-4.94-7.2s.75-5.92.75-12.54a76.44,76.44,0,0,0-1.51-13.7"/><path class="cls-15" d="M119.66,198.05s-2.75,6-3.77,9.39c-1.57,5.22-3.89,12.59-7.4,15.95a12.27,12.27,0,0,0,4.2-1s-6,16.13-7.11,26.91"/><path class="cls-15" d="M130.62,183.59a12.16,12.16,0,0,1,7-2.34,12.37,12.37,0,0,1,7,2.34"/><path class="cls-15" d="M137.59,192.08s-2.17,2.13-4.48,2.08-3.06-1-3.06-1"/><path class="cls-15" d="M133.24,201.77a9.75,9.75,0,0,0,4.35,1,11.43,11.43,0,0,0,4.58-1"/><path class="cls-15" d="M115.72,230s-.12,5.11-.88,7.08c0,0,2.51.55,3.56-1,0,0-1.48,5.7-2.35,8a20,20,0,0,0,3.86-2.5s1.71,4.6,2.07,6.28"/><path class="cls-2" d="M145.34,179.64a1.42,1.42,0,0,0,2.2,0,1.68,1.68,0,0,0,0-2.24,1.48,1.48,0,0,0-2.2,0A1.69,1.69,0,0,0,145.34,179.64Z"/><path class="cls-15" d="M155.53,198.05s2.75,6,3.77,9.39c1.57,5.22,3.89,12.59,7.4,15.95a12.36,12.36,0,0,1-4.21-1s6,16.13,7.12,26.91"/><path class="cls-15" d="M137.59,192.08s2.18,2.13,4.49,2.08,3-1,3-1"/><path class="cls-15" d="M159.47,230s.12,5.11.87,7.08c0,0-2.5.55-3.55-1a46.53,46.53,0,0,0,1.49,7.81,22.82,22.82,0,0,1-3-2.39s-1.73,4.7-2.08,6.38"/><line class="cls-15" x1="137.59" y1="187.9" x2="137.59" y2="192.08"/><path class="cls-11" d="M486.76,200.48c.51.34.66,8-1.79,9.35l4,7.62h13.26l5.92-7.62c-2.45-1.33-2.3-9-1.79-9.35Z"/><path class="cls-11" d="M509.69,210.67a19.15,19.15,0,0,1-2-3.89,36.39,36.39,0,0,1-8.29,3.51h-5a54.44,54.44,0,0,1-9-3.51,19.15,19.15,0,0,1-2,3.89l-1.8,6.78,12.24,30.87h5.38l13.37-32Z"/><path class="cls-7" d="M496.56,249.92C490.4,234.6,482.72,209,482.72,209l-6.14,7.76s-16.29,4.46-23,8.92-10.8,13.95-14,25.12h113.9c-3.17-11.17-7.27-20.65-14-25.12s-23-8.92-23-8.92L510.4,209s-5.68,17.77-6.8,21.06S496.56,249.92,496.56,249.92Z"/><path class="cls-11" d="M517.44,175.13s.39-1.93,2.89-1.11c2.93,1,.92,7.48,0,9.88-1.52,4-3.89,2.55-3.89,2.55s-2.23,6.51-5.05,10.06-5.63,7-11.12,9a13.66,13.66,0,0,1-3.71.69,11.32,11.32,0,0,1-3.71-.69c-5.49-2.07-8.31-5.48-11.12-9s-5.05-10.06-5.05-10.06-2.37,1.41-3.89-2.55c-.92-2.4-2.93-8.92,0-9.88,2.5-.82,2.89,1.11,2.89,1.11s.35-13,2.58-17.48,18.45-10.77,18.45-10.77,12.13,2.77,17.58,9S517.44,175.13,517.44,175.13Z"/><path class="cls-2" d="M488.76,176.16a1.07,1.07,0,0,1-1.9,0,2.31,2.31,0,0,1,0-2.51,1.09,1.09,0,0,1,1.9,0A2.37,2.37,0,0,1,488.76,176.16Z"/><path class="cls-2" d="M489.51,168.62a6,6,0,0,0-3.38,0c-1.14.29-1,1.71,0,1.52a9.59,9.59,0,0,1,3.38,0C490.46,170.33,490.63,169,489.51,168.62Z"/><path class="cls-2" d="M499.68,195a20.4,20.4,0,0,1-6.24,0c-2.12-.29-1.84-2.11,0-1.92a32.52,32.52,0,0,0,6.24,0C501.44,192.93,501.76,194.68,499.68,195Z"/><path class="cls-13" d="M496.41,249.07c-6.16-15.32-13.69-40-13.69-40l-6.14,7.76s-16.29,4.46-23,8.92-10.8,13.95-14,24.36"/><path class="cls-11" d="M495.67,174.11s.16,7-1.34,11a3,3,0,0,0,4.15.25"/><path class="cls-2" d="M504.36,176.16a1.07,1.07,0,0,0,1.9,0,2.31,2.31,0,0,0,0-2.51,1.09,1.09,0,0,0-1.9,0A2.35,2.35,0,0,0,504.36,176.16Z"/><path class="cls-2" d="M503.61,168.62a6,6,0,0,1,3.38,0c1.14.29,1,1.71,0,1.52a9.59,9.59,0,0,0-3.38,0C502.66,170.33,502.49,169,503.61,168.62Z"/><path class="cls-13" d="M496.71,249.07c6.16-15.32,13.69-40,13.69-40l6.14,7.76s16.29,4.46,23,8.92,10.8,13.95,14,24.36"/><polygon class="cls-16" points="501.99 234.34 498.57 218.55 501.46 214.7 499.15 210.31 493.93 210.31 491.63 214.7 494.55 218.55 491.13 234.34 496.56 249.92 501.99 234.34"/><line class="cls-11" x1="498.48" y1="218.55" x2="494.8" y2="218.55"/><polyline class="cls-13" points="476.58 216.8 473.93 224.85 483.95 227.39 474.66 233.23 493.12 250.84"/><polyline class="cls-13" points="516.53 216.8 519.19 224.85 509.16 227.39 518.45 233.23 499.99 250.84"/><path class="cls-11" d="M476.9,178.59s-.51,2.48-.66,3.29"/><path class="cls-11" d="M477.32,181.42s-.47,1.61-.61,2.42"/><path class="cls-11" d="M477.32,184.18s-.86,1.65-.64,2.27"/><path class="cls-11" d="M477.32,185.32a24.6,24.6,0,0,0,.35,3.4"/><line class="cls-11" x1="496.45" y1="204.3" x2="496.41" y2="207.19"/><line class="cls-11" x1="498.56" y1="204.38" x2="498.11" y2="206.23"/><line class="cls-11" x1="493.82" y1="204" x2="494.8" y2="206.78"/><line class="cls-11" x1="492.85" y1="205.54" x2="490.29" y2="202.7"/><line class="cls-11" x1="490.01" y1="204.23" x2="488.38" y2="201.51"/><polyline class="cls-11" points="496.56 188.72 495.74 190.83 495.07 188.34"/><line class="cls-11" x1="494.65" y1="188.66" x2="493.87" y2="190.77"/><line class="cls-11" x1="492.85" y1="189.11" x2="491.55" y2="190.82"/><line class="cls-11" x1="491.13" y1="189.35" x2="489.9" y2="191.22"/><line class="cls-11" x1="488.97" y1="190.29" x2="488.12" y2="192.02"/><line class="cls-11" x1="497.69" y1="188.72" x2="498.56" y2="190.77"/><line class="cls-11" x1="499.29" y1="188.72" x2="501.56" y2="190.82"/><line class="cls-11" x1="502.23" y1="189.58" x2="503.21" y2="191.22"/><line class="cls-11" x1="504" y1="190.77" x2="504.56" y2="192.02"/><path class="cls-11" d="M474.53,157.16s-1.77,7.41-1.53,10.2a49.09,49.09,0,0,0,1.2,6.46c.49,1.08,2,7.6,2,7.6.11-9.44.71-12.15.71-12.15a10.74,10.74,0,0,1,2.91-4.74l-.51-8Z"/><path class="cls-11" d="M516.21,178.59s.51,2.48.66,3.29"/><path class="cls-11" d="M515.79,181.42s.47,1.61.62,2.42"/><path class="cls-11" d="M515.79,184.18s.86,1.65.64,2.27"/><path class="cls-11" d="M515.79,185.89a18.54,18.54,0,0,1-.35,2.83"/><line class="cls-11" x1="499.29" y1="204" x2="498.31" y2="206.78"/><line class="cls-11" x1="500.26" y1="205.54" x2="502.82" y2="202.7"/><line class="cls-11" x1="503.1" y1="204.23" x2="504.73" y2="201.51"/><path class="cls-11" d="M518.58,157.16s1.77,7.41,1.53,10.2a49.09,49.09,0,0,1-1.2,6.46c-.49,1.08-2,7.6-2,7.6-.11-9.44-.71-12.15-.71-12.15a10.74,10.74,0,0,0-2.91-4.74l.51-8Z"/><path class="cls-12" d="M518.06,162.49c-1.24-.17-3.1-1.38-6.16-2.07a17,17,0,0,1-5.62-2.6,4.39,4.39,0,0,0-3.45-1.54,46.56,46.56,0,0,1-5.13.44c-2.41.11-3.05-1.48-3.05-1.48a24,24,0,0,1-4.36.63,9.22,9.22,0,0,1-5-1.44c-1.56.55-3.09,4.72-5.47,7-3.15,3.07-9.55,2.55-9.55,2.55,2.67-.7,2.67-2.78,2.67-2.78-1.2.34-3.38-.66-3.38-.66,2.56-1.44,2.34-3.26,2.56-6.59s4.08-6.58,4.08-6.58.71-3.7,2.49-5.48a11.34,11.34,0,0,1,10-2.9s1.76-3,3.51-3.58,4-1.29,10.21,1.45c4,1.79,8.44,1.59,9.95.81a30.13,30.13,0,0,1-3.86,3,9,9,0,0,1,9,1.83s-3.33-1.91-5.63.24c0,0,4.17.13,5.84,2.35a13.69,13.69,0,0,1,2.21,4.9s.47,2.84,2.94,3.61a3.41,3.41,0,0,1-2.85,1.52s1.29,1.63,4.07.63c0,0-.75,1.86-4.45,3.77,0,0,3.19,1.07,4.45.23C524.1,159.76,521.27,163,518.06,162.49Z"/><line class="cls-11" x1="491.95" y1="214" x2="487.07" y2="222.72"/><line class="cls-11" x1="501.16" y1="214" x2="506.05" y2="222.72"/><path class="cls-11" d="M72.68,222.16h-20c-1.35-1.58,0-4.6,0-4.6,2.11-1.27,1.66-12.1,1.2-12.42,0,0-.16-4,1.43-4H71a6.64,6.64,0,0,1,.49,4c-.08.55-.91,11.15,1.2,12.42C72.68,217.56,75.35,219.81,72.68,222.16Z"/><path class="cls-11" d="M82.51,179s.37-1.84,2.74-1.06c2.79.92.88,7.11,0,9.39-1.44,3.76-3.7,2.42-3.7,2.42s-2.11,6.19-4.79,9.56-5.35,6.61-10.56,8.58a16.62,16.62,0,0,1-3.53.68,16.48,16.48,0,0,1-3.52-.68c-5.22-2-7.89-5.2-10.57-8.58s-4.79-9.56-4.79-9.56-2.25,1.34-3.7-2.42c-.87-2.28-2.78-8.47,0-9.39,2.38-.78,2.75,1.06,2.75,1.06s.38-13.07,19.83-13.07S82.51,179,82.51,179Z"/><path class="cls-2" d="M55.26,184.64a1,1,0,0,1-1.8,0,2.18,2.18,0,0,1,0-2.38,1,1,0,0,1,1.8,0A2.22,2.22,0,0,1,55.26,184.64Z"/><path class="cls-2" d="M64.27,192.08a5.66,5.66,0,0,1-3.21,0c-1.09-.27-1-1.62,0-1.44a9.11,9.11,0,0,0,3.21,0C65.17,190.46,65.34,191.75,64.27,192.08Z"/><path class="cls-2" d="M56,176.77a5.66,5.66,0,0,0-3.21,0c-1.08.27-.94,1.62,0,1.44a9.61,9.61,0,0,1,3.21,0C56.88,178.39,57,177.11,56,176.77Z"/><path class="cls-2" d="M65.37,197.82a16,16,0,0,1-5.4,0c-1.82-.28-1.58-1.63,0-1.44a27.06,27.06,0,0,0,5.4,0C66.88,196.19,67.16,197.48,65.37,197.82Z"/><path class="cls-2" d="M70.09,184.64a1,1,0,0,0,1.8,0,2.2,2.2,0,0,0,0-2.38,1,1,0,0,0-1.8,0A2.18,2.18,0,0,0,70.09,184.64Z"/><path class="cls-2" d="M69.37,176.77a5.66,5.66,0,0,1,3.21,0c1.09.27,1,1.62,0,1.44a9.61,9.61,0,0,0-3.21,0C68.47,178.39,68.3,177.11,69.37,176.77Z"/><path class="cls-11" d="M106,250.54c-2.41-9.89-5.52-17.29-10.62-21.53s-20.41-10.76-20.41-10.76c-.68-1-1.3-8.14-1.3-8.14s-2.58,1.5-11,1.5a42.47,42.47,0,0,1-11-1.5s-.62,7.13-1.31,8.14c0,0-15.31,6.53-20.4,10.76s-8.21,11.64-10.62,21.53"/><path class="cls-17" d="M67.76,175a34.45,34.45,0,0,1,10.57,2.35c2,1,3.8,4.71,3.8,4.71s.48-6.06,4.08-3.45c0,0,4.2-5.7,1.83-15.21-2.74-11-9.68-17.36-22.1-18.51a9.11,9.11,0,0,0-3.27.37,12.23,12.23,0,0,0-3.37-.52c-10.64.73-19.27,7.69-22,18.66-2.37,9.51,1.83,15.21,1.83,15.21,3.6-2.61,4.07,3.45,4.07,3.45s1.8-3.72,3.81-4.71A31.92,31.92,0,0,1,57.57,175S64.55,174.79,67.76,175Z"/><path class="cls-13" d="M55.61,211s-.4,3.91-.61,5.45"/><path class="cls-13" d="M60,211.52s-.22,4.07-.36,5.33"/><path class="cls-13" d="M53.46,152.18S47.54,167.3,47,177.38"/><path class="cls-13" d="M40.09,177.89s-2-12.77,5.76-24"/><path class="cls-13" d="M58.69,149.93a70.8,70.8,0,0,0-4.33,25.34"/><path class="cls-13" d="M69.73,211s.39,3.91.6,5.45"/><path class="cls-13" d="M65.32,211.52s.22,4.07.37,5.33"/><path class="cls-13" d="M71.88,152.18s5.92,15.12,6.45,25.2"/><path class="cls-13" d="M85.24,177.89a41.58,41.58,0,0,0-6.91-24"/><path class="cls-13" d="M66.61,149.93s3.12,9.39,3.12,25.3"/><path class="cls-13" d="M60.74,174.18s-.89-16,1.93-25.93"/><path class="cls-11" d="M826.33,110.39c.18-6,1.21-8.85,1.45-10.85a80.32,80.32,0,0,1,2.53-11.62A29.42,29.42,0,0,1,834.12,79a6.25,6.25,0,0,0,.85-5.46s-1.35-1.88-2.37-3.4a28.59,28.59,0,0,1-3.46-9.6,37.9,37.9,0,0,1-.09-9.1c-.72-2.3-3.89-16.93.29-18.13s12.39,10.12,12.39,10.12a20.63,20.63,0,0,1,12.25,0s8.22-11.32,12.4-10.12,1,15.83.29,18.13a75.45,75.45,0,0,1-.1,9.1,25.9,25.9,0,0,1-3.46,9.6c-.71,1.17-2.37,3.4-2.37,3.4a5.11,5.11,0,0,0,.14,4c2,4.14,3.21,6.29,3.92,8.46,1.81,5.51,2,8.48,3.22,14.75a47.45,47.45,0,0,1,1.36,9.66"/><path class="cls-13" d="M860.37,43.3l-3.58,1.46s4-5.11,5.59-6.7,3.06-1.42,3.28-1"/><path class="cls-13" d="M858.85,45.21a51.66,51.66,0,0,1,5.74-1.5"/><line class="cls-13" x1="862.18" y1="46.54" x2="864.09" y2="45.45"/><path class="cls-2" d="M856.6,58.36a1.49,1.49,0,0,1-2.3,0,1.76,1.76,0,0,1,0-2.34,1.53,1.53,0,0,1,2.3,0A1.76,1.76,0,0,1,856.6,58.36Z"/><path class="cls-11" d="M847.86,66.32a2.83,2.83,0,0,1,1.85.77,3.76,3.76,0,0,0,5,0"/><path class="cls-18" d="M856.67,61.71s8.55.43,14.17,2.78"/><path class="cls-18" d="M857.86,63.55s7.4,1.33,11.8,4.56"/><path class="cls-18" d="M855.43,64.65s7.66,3.46,9.93,8.78"/><path class="cls-2" d="M848.83,63.78a6,6,0,0,0,1.64-1.61c.67-.81-.07-1.32-.47-1.32h-4.28c-.43,0-1.14.42-.48,1.32a5.66,5.66,0,0,0,1.65,1.61A1.84,1.84,0,0,0,848.83,63.78Z"/><path class="cls-2" d="M839.11,58.36a1.49,1.49,0,0,0,2.3,0,1.75,1.75,0,0,0,0-2.34,1.53,1.53,0,0,0-2.3,0A1.76,1.76,0,0,0,839.11,58.36Z"/><path class="cls-11" d="M847.86,66.32a2.81,2.81,0,0,0-1.85.77,3.78,3.78,0,0,1-5,0"/><path class="cls-11" d="M841,73.9a11,11,0,0,0,13.74,0"/><line class="cls-11" x1="847.86" y1="63.16" x2="847.86" y2="66.03"/><polyline class="cls-11" points="857.05 108.43 855.89 106.94 854.73 110.39"/><path class="cls-11" d="M857.58,101.65a45.76,45.76,0,0,0,.84,5.1"/><path class="cls-11" d="M861.72,93.05a22.56,22.56,0,0,0-1.56,9.38l-1.74-2.61"/><path class="cls-13" d="M835.34,43.3l3.58,1.46s-4-5.11-5.59-6.7-3.06-1.42-3.27-1"/><path class="cls-13" d="M836.87,45.21a52.29,52.29,0,0,0-5.74-1.5"/><line class="cls-13" x1="833.53" y1="46.54" x2="831.62" y2="45.45"/><path class="cls-18" d="M839.05,61.71s-8.56.43-14.18,2.78"/><path class="cls-18" d="M837.86,63.55s-7.41,1.33-11.8,4.56"/><path class="cls-18" d="M840.28,64.65s-7.66,3.46-9.93,8.78"/><polyline class="cls-11" points="839.04 108.48 840.28 107.26 842.26 110.39"/><path class="cls-11" d="M839.09,102s-.35,1-1.23,3.83"/><path class="cls-11" d="M835.32,93.05a24.91,24.91,0,0,1,.81,8.6l2.61-2.22"/><path class="cls-11" d="M790.76,82.36c11.22-3.58,13.27-11,13.27-11,8.22-5.23,11.24-12.68,8.51-28.14s-11.89-26.39-18-28.52c-6.9-2.42-11.36,1.16-11.36,1.16s-4.31-3.58-10.69,1.11C767,21,760.3,32,759.16,41.51s1.49,16.17-.81,22.58S763.85,76,763.85,76l15.72,7.35Z"/><path class="cls-13" d="M795.38,76.93s4.49-4.37,3.4-9.59"/><path class="cls-11" d="M777.36,81.58c1.91-1.14,1.79-9.59,1.39-9.88,0,0,.51-3.25,1.26-3.69h11.72c1.79,0,2.26,3.69,2.26,3.69-.4.29-.52,8.74,1.39,9.88l-9,7.13Z"/><path class="cls-19" d="M777.36,76.93s6,.76,9,.76,9-.76,9-.76.5,3.24,1.16,4c1,1.08,6.65,2.89,6.65,2.89s1.83,15.58,0,18.81-7,8.89-7,8.89H775.73s-11.05-11.14-11.52-14.77S769.68,84,769.68,84s5.7-2.64,6.71-4.35A9.21,9.21,0,0,0,777.36,76.93Z"/><path class="cls-7" d="M800.47,83s-4.27,17.39-8.74,28.49h33.59s-2.07-11-7.29-18.42C814.57,88.19,800.47,83,800.47,83Z"/><path class="cls-7" d="M772.27,83s4.26,17.39,8.73,28.49H747.42s2.07-11,7.29-18.42C758.16,88.19,772.27,83,772.27,83Z"/><path class="cls-13" d="M800.47,83s-4.27,17.39-8.74,28.49"/><path class="cls-13" d="M747.42,111.5c2.16-8.9,5-17,9.55-20.82s19.22-9.77,19.22-9.77c.76-.91,1.17-4,1.17-4a80.51,80.51,0,0,0,9,.76,81.39,81.39,0,0,0,9-.76s.4,3.07,1.16,4c0,0,14.63,6,19.22,9.77s7.39,11.92,9.56,20.82"/><path class="cls-13" d="M772.27,83s4.26,17.39,8.73,28.49"/><path class="cls-11" d="M804.22,48.12s.34-1.65,2.47-.95c2.51.83.79,6.4,0,8.45-1.3,3.39-3.33,2.18-3.33,2.18s-1.9,5.57-4.31,8.61-4.49,5.77-9.51,7.72a8.42,8.42,0,0,1-6.34,0c-4.63-1.93-7.1-4.69-9.51-7.72s-4.31-8.61-4.31-8.61-2,1.21-3.33-2.18c-.79-2-2.51-7.62,0-8.45,2.14-.7,2.47.95,2.47.95s-1.31-4.22,1.85-11.43,7.82-9.39,7.82-9.39h14.54s6.87,5,9,9.87A39.37,39.37,0,0,1,804.22,48.12Z"/><path class="cls-2" d="M779.7,51.28a.92.92,0,0,1-1.63,0,2,2,0,0,1,0-2.14.94.94,0,0,1,1.63,0A2,2,0,0,1,779.7,51.28Z"/><path class="cls-2" d="M787.81,60a5.16,5.16,0,0,1-2.89,0c-1-.25-.85-1.47,0-1.3a8.76,8.76,0,0,0,2.89,0C788.62,58.48,788.77,59.64,787.81,60Z"/><path class="cls-2" d="M781.42,45.13a6.87,6.87,0,0,0-6.16,0c-1.62.81-1.87,1.62,0,1.29a18.06,18.06,0,0,1,6.16,0C782.23,46.59,782.31,45.59,781.42,45.13Z"/><path class="cls-2" d="M789.53,65.11a9,9,0,0,1-6.31,0c-2.13-.86-1.77-1.88,0-1.3a9.49,9.49,0,0,0,6.31,0C791.24,63.31,791.54,64.44,789.53,65.11Z"/><path class="cls-2" d="M793,51.28a.92.92,0,0,0,1.63,0,2,2,0,0,0,0-2.14.94.94,0,0,0-1.63,0A2,2,0,0,0,793,51.28Z"/><path class="cls-7" d="M778.18,76.64s0,2.27-3.26,4.1c0,0,2.77,2.82-1.55,6.8a12.73,12.73,0,0,1,1.55,4.38c.17,1.21-.28,2.3-1.55,3.55,0,0,2.09,3.41-.67,4.61,0,0,2.49,2.7,1.83,5.81s-4.36,4.57-8.22,3.42c0,0,2.32-.71,2.61-2.55,0,0-2.95,1.2-4.95.44,0,0,3.52-1.61,3.24-3.7s-1.81-3.27.28-6.09c0,0-4.37-2.17-4.66-4.63S765,88,765,88s-3.92-3-4.4-5.84,1.61-7.51,1.61-7.51,4.56-5.25,7.47-5.25S778.45,74.58,778.18,76.64Z"/><path class="cls-2" d="M791.31,45.13a6.9,6.9,0,0,1,6.17,0c1.61.81,1.86,1.62,0,1.29a18.13,18.13,0,0,0-6.17,0C790.5,46.59,790.42,45.59,791.31,45.13Z"/><path class="cls-13" d="M804.92,65.68a17.24,17.24,0,0,1-2.29,8.4,14.68,14.68,0,0,1-6.09,5.6"/><path class="cls-13" d="M768.41,85.15s3.44-3.26,6.57-4.41"/><path class="cls-11" d="M778.89,74.87s-.64,4-3.91,5.87c0,0,2.77,2.82-1.55,6.8A12.73,12.73,0,0,1,775,91.92c.17,1.21-.28,2.3-1.55,3.55,0,0,2.09,3.41-.67,4.61,0,0,2.5,2.7,1.83,5.81s-4.36,4.57-8.22,3.42c0,0,2.32-.71,2.61-2.55,0,0-3,1.2-4.94.44,0,0,3.51-1.61,3.23-3.7s-1.81-3.27.28-6.09c0,0-4.37-2.17-4.66-4.63S765.05,88,765.05,88s-3.92-3-4.4-5.84,1.61-7.51,1.61-7.51,6.47,3.1,7.42,5"/><path class="cls-16" d="M765.05,88a28.19,28.19,0,0,1,4.63,2.89"/><path class="cls-13" d="M767.55,97.41a18.06,18.06,0,0,1,2.82,1.28"/><path class="cls-13" d="M773.43,87.54a7.68,7.68,0,0,1-1.74,1.6"/><path class="cls-13" d="M773.43,95.47a10.9,10.9,0,0,1-2,1.26"/><path class="cls-13" d="M769.35,74.82s3.87-3.87,3.87-9"/><path class="cls-7" d="M811.11,55.81c.43-3.87-3.24-16.8-6.38-20.73s-8.19-10.14-8.19-10.14H775s-5.24,3.82-7.43,7.8S760.42,49.26,761,54.25s5.39,9,5.39,9a11.56,11.56,0,0,1,1.33-7.54c2.16-3.65,1.21-9.72,1.21-9.72s3.43-9.32,9.26-13c0,0-1.88,10,2.16,13.33h3.22s-3.92-9.18.15-15.08c0,0-.1,12.27,5.43,15.17h4.06s-6.34-6.19-4.73-15.17a10.77,10.77,0,0,1,5,5.44c1.61,3.92,5.37,9,9.38,10.59a43.16,43.16,0,0,1,2.43,15.07S810.54,60.84,811.11,55.81Z"/><path class="cls-13" d="M805.26,62.16a43.22,43.22,0,0,0-2.43-15.07c-4-1.6-7.77-6.67-9.38-10.59a10.77,10.77,0,0,0-5-5.44c-1.61,9,4.73,15.18,4.73,15.18h-4.06c-5.53-2.91-5.43-15.18-5.43-15.18-4.07,5.91-.15,15.08-.15,15.08h-3.22c-4-3.29-2.16-13.33-2.16-13.33-5.83,3.74-9.26,13.06-9.26,13.06s1,6.06-1.21,9.72a11.56,11.56,0,0,0-1.33,7.54s-.33,2.58,3,5.47"/><path class="cls-13" d="M768.92,45.87a22.66,22.66,0,0,1-3.87,6.42"/><path class="cls-13" d="M802.83,47.09s4,2.32,5.17,5.67"/><path class="cls-13" d="M783.18,20.92s-6-4.81-11.49,2.09c-4.87,6.12-7.48,16.24-7.48,16.24"/><path class="cls-13" d="M786,24.61a7.67,7.67,0,0,1,7.82-1c4.28,1.67,5.64,6.86,7.83,13.54a24.75,24.75,0,0,0,5,8.08"/><path class="cls-13" d="M782.58,26.44a5.67,5.67,0,0,0-5.22-.25s-4,1.45-7.12,7.65a82.52,82.52,0,0,0-4.52,11.61"/><path class="cls-7" d="M51.53,85.22v7.55H36.94V85.22s-4.64-3.34-5.12-10.63c0,0,2.67-1.14,3.09-2.93.56-2.44.59-9.43.59-9.43H52.72s-.55,6.86,1,9.88a5.62,5.62,0,0,0,2.72,2.48S54.68,83.23,51.53,85.22Z"/><rect class="cls-20" x="36.69" y="92.64" width="14.84" height="18.31"/><path class="cls-7" d="M36.69,85.22s-4.09-2.9-4.87-10.63l-5.67,2.64,3,13.32-1,20.41h8.24Z"/><path class="cls-7" d="M51.53,85.22s4.09-2.9,4.87-10.63l5.67,2.64-3,13.32,1,20.41H51.84Z"/><path class="cls-7" d="M28.77,111H.84s2.83-14.07,8-21.84c0,0,7.45-8.82,15.85-11.91l1-4.38s5.84-3.28,9.69-3.3c0,0-.67,2.29-1.12,3.46L28.14,76.6s1.15,6.91,1.59,9a84.71,84.71,0,0,1,.71,14.06C30.23,102.71,28.77,111,28.77,111Z"/><path class="cls-7" d="M59.45,111H87.37s-2.82-14.07-8-21.84c0,0-7.45-8.82-15.85-11.91l-1-4.38s-5.84-3.28-9.7-3.3c0,0,.68,2.29,1.13,3.46l6.11,3.61s-1.16,6.91-1.59,9a84.71,84.71,0,0,0-.71,14.06C58,102.71,59.45,111,59.45,111Z"/><path class="cls-12" d="M19.79,44.78c-3.85-1.82-6.27-6.37-6.74-7.52-1.67-4.11-.67-7.22,2-12,2.89-5.22,10.11-12.47,14.59-14.5C35.27,8.22,53.35,4.62,60.08,8,65.45,10.61,71.25,19,73.73,23.78,76,28.14,78.36,31.11,76.79,35s-8,9.87-8,9.87a23,23,0,0,1-9.8,3C53.2,48.33,19.79,44.78,19.79,44.78Z"/><path class="cls-21" d="M61.15,68.29a11.19,11.19,0,0,1,.39-5.12A9.62,9.62,0,0,0,64,68.33h3.39a12.46,12.46,0,0,1,0-5.9c.22,2.78,3,5.14,3,5.14s-1.26-5.32.69-9.43,1.84-5.63.72-10.66C71,43.72,69.74,35,69.74,35a22.2,22.2,0,0,0-6.1-4.32,26.74,26.74,0,0,0-7.24-1.84c-.48,4.3,5.94,16.67,5.11,18.19-1.34,2.42-8,15.45-8,15.45a16.31,16.31,0,0,0-.66,5.1s3.11.4,3.8.63A32.5,32.5,0,0,0,61.15,68.29Z"/><path class="cls-11" d="M63,37.53A60,60,0,0,0,64,44s1-5.18,2-6.72a2.06,2.06,0,0,1,1.87-.54c2.93,1,.92,7.48,0,9.87C66.34,50.6,64,49.2,64,49.2s-2.23,6.51-5,10.06-5.63,7-11.12,9a9.19,9.19,0,0,1-7.42,0,27.77,27.77,0,0,1-11.12-9c-2.82-3.55-5-10.06-5-10.06s-2.38,1.4-3.9-2.56c-.92-2.39-.49-9.33,1.16-10.27,2.28-1.3,1.73,1.51,1.73,1.51l.52-5.61c2-1.37,6.69-2.72,8.05-3.24a44.25,44.25,0,0,1,16.88-1.26c2,.2,6.05.47,7.74,1.06,0,0,.45,3.81,2.9,6A13.67,13.67,0,0,0,63,37.53Z"/><path class="cls-13" d="M53,65.45c-.46.33-.6,6.83,1.62,8.17l5.46,3"/><path class="cls-2" d="M41.25,57.39a16.67,16.67,0,0,0,5.68,0c1.92-.29,1.67-1.71,0-1.51a28.37,28.37,0,0,1-5.68,0C39.66,55.68,39.37,57,41.25,57.39Z"/><path class="cls-13" d="M52.84,69.53c7.18.72,9.7,3.3,9.7,3.3s.79,3.29,1.68,4.36a121.25,121.25,0,0,1,12.54,9.16c5.09,4.46,8.21,13.94,10.61,24.35"/><path class="cls-13" d="M43.38,44a17.42,17.42,0,0,1-1.26,6.24,4.1,4.1,0,0,0,4,.22"/><path class="cls-13" d="M35.18,65.45c.46.33.6,6.83-1.62,8.17"/><path class="cls-2" d="M35.61,42.63a1.06,1.06,0,0,1-1.89,0,2.31,2.31,0,0,1,0-2.51,1.09,1.09,0,0,1,1.89,0A2.33,2.33,0,0,1,35.61,42.63Z"/><path class="cls-2" d="M36.37,36.61a6.07,6.07,0,0,0-3.38,0c-1.15.29-1,1.71,0,1.52a10.09,10.09,0,0,1,3.38,0C37.32,38.32,37.49,37,36.37,36.61Z"/><path class="cls-21" d="M31.78,29s-4.38,7.21-4.49,12S28.52,50.63,31,57.07c1.53,4,1.65,5.65.81,10a8.16,8.16,0,0,1-2.74-1s-1.63,2.24-5.23.6a7.73,7.73,0,0,0-4.26-.6l-4.24-.64s3.48-4.91,2.87-16a34.69,34.69,0,0,1,2.13-13.75s1.85-2.65,3.42-3.44C25.78,31.25,31.78,29,31.78,29Z"/><path class="cls-13" d="M60.08,74a29.9,29.9,0,0,1-1.16,9.5c-1.5,5.6-1.72,19.36.53,27.19"/><path class="cls-13" d="M62.54,72.83a68.3,68.3,0,0,0,2.95,10.69l-4.95,7.1,7.36,8.95A25.52,25.52,0,0,0,62,108.81"/><path class="cls-13" d="M56.4,74.59s-.53,6.86-4.87,10.63V110.7"/><path class="cls-13" d="M35.21,65.45c.47.33.61,6.83-1.62,8.17l-5.45,3"/><path class="cls-13" d="M35.37,69.53c-7.17.72-9.69,3.3-9.69,3.3s-.47,3.68-1.68,4.36c-5.63,3.17-7.27,4.07-12.54,9.16C6.59,91.05,3.25,100.29.84,110.7"/><path class="cls-2" d="M52.6,42.63a1.07,1.07,0,0,0,1.9,0,2.31,2.31,0,0,0,0-2.51,1.09,1.09,0,0,0-1.9,0A2.35,2.35,0,0,0,52.6,42.63Z"/><path class="cls-2" d="M51.85,36.61a6.07,6.07,0,0,1,3.38,0c1.14.29,1,1.71,0,1.52a10.09,10.09,0,0,0-3.38,0C50.9,38.32,50.73,37,51.85,36.61Z"/><path class="cls-13" d="M28.14,73.62a32.09,32.09,0,0,0,1.15,9.89c1.51,5.6,1.72,19.36-.52,27.19"/><path class="cls-13" d="M25.68,72.83a70.33,70.33,0,0,1-2.95,10.69l4.95,7.1-7.36,8.95a25.43,25.43,0,0,1,5.93,9.24"/><path class="cls-13" d="M31.82,74.59s.53,6.86,4.87,10.63V110.7"/><line class="cls-13" x1="51.53" y1="92.64" x2="36.69" y2="92.64"/><path class="cls-13" d="M29,66.09a22.34,22.34,0,0,0-1.63-10.23"/><path class="cls-13" d="M23.16,37.31a67.7,67.7,0,0,0-.52,19.44c1,7.93,1.17,9.94,1.17,9.94"/><path class="cls-13" d="M71.25,37.83s.17-1.82-3.35-4.46c0,0-2.85-3.1-10.12-4.46C44.13,26.36,34.66,27,25.34,31.61a17.44,17.44,0,0,0-7.65,7.07"/><path class="cls-13" d="M69.89,67.09S65,63.5,68.68,52"/><path class="cls-13" d="M63.16,67.09a8,8,0,0,1-.86-8.21A20.83,20.83,0,0,0,64,49.2"/><path class="cls-11" d="M154.3,101.9l-45.73-1c-3.48-7-1-16.69-1-16.69a67.57,67.57,0,0,0,14-7.5c2.11-1.27,2-7.43,1.54-7.75,0,0-.08-2.95,1.17-3.75h13.59C139.77,65.9,140,69,140,69c-.44.32-.58,6.48,1.53,7.75,0,0,8.33,4.67,14,7.5C155.54,84.21,158.8,97,154.3,101.9Z"/><path class="cls-11" d="M149.63,27.9H115a46.82,46.82,0,0,0-3.19,14.93s-.37-1.83-2.74-1c-2.78.91-.87,7.09,0,9.36,1.44,3.75,3.69,2.42,3.69,2.42s2.11,6.17,4.78,9.54,5.34,6.59,10.54,8.56a11.46,11.46,0,0,0,3.5.71,12,12,0,0,0,3.54-.71c5.2-2,7.87-5.19,10.54-8.56s4.78-9.54,4.78-9.54,2.25,1.33,3.69-2.42c.87-2.27,2.77-8.45,0-9.36-2.37-.78-2.74,1-2.74,1S152.32,33.88,149.63,27.9Z"/><path class="cls-4" d="M174.75,111.86c-2.41-9.87-5.51-18.86-10.6-23.08a71.19,71.19,0,0,0-8.61-4.57s-7,11.65-24,11.65-24-11.65-24-11.65A71.19,71.19,0,0,0,99,88.78C93.89,93,90.78,102,88.38,111.86Z"/><path class="cls-7" d="M110.24,93.27a4.3,4.3,0,1,0,8.59,0h0a28.09,28.09,0,0,1-6.27-3.79A4.27,4.27,0,0,0,110.24,93.27Z"/><ellipse class="cls-7" cx="156.98" cy="105.74" rx="4.3" ry="4.29"/><path class="cls-7" d="M97.78,104.9a4.3,4.3,0,0,0-4.3,4.29,4.25,4.25,0,0,0,.93,2.63h6.75a4.24,4.24,0,0,0,.92-2.63A4.29,4.29,0,0,0,97.78,104.9Z"/><path class="cls-7" d="M103.09,92.09a3,3,0,0,0,.42-6c-1.21.65-2.36,1.31-3.2,1.81a2.91,2.91,0,0,0-.23,1.15A3,3,0,0,0,103.09,92.09Z"/><path class="cls-7" d="M136.23,99.28a3,3,0,0,0,3-3A3.1,3.1,0,0,0,139,95a33.6,33.6,0,0,1-5.69.76,2.73,2.73,0,0,0-.05.5A3,3,0,0,0,136.23,99.28Z"/><ellipse class="cls-7" cx="114.53" cy="104.9" rx="3.01" ry="3"/><path class="cls-7" d="M145.89,109.71a3,3,0,1,0-5.15,2.11H145A3,3,0,0,0,145.89,109.71Z"/><path class="cls-7" d="M164.8,99a3,3,0,0,0,6,.05c-.31-.77-.63-1.53-1-2.25a3,3,0,0,0-5,2.2Z"/><path class="cls-7" d="M107.06,98a2,2,0,1,0-2,2A2,2,0,0,0,107.06,98Z"/><path class="cls-7" d="M147.65,103.28a2,2,0,1,0-2-2A2,2,0,0,0,147.65,103.28Z"/><path class="cls-7" d="M123.15,107.21a2,2,0,1,0,2,2A2,2,0,0,0,123.15,107.21Z"/><path class="cls-7" d="M123.15,99.32a1.59,1.59,0,1,0-1.59,1.58A1.59,1.59,0,0,0,123.15,99.32Z"/><path class="cls-7" d="M160.32,99.91a1.59,1.59,0,1,0-1.59-1.59A1.59,1.59,0,0,0,160.32,99.91Z"/><path class="cls-7" d="M166.45,109.89a2,2,0,1,0-2-2A2,2,0,0,0,166.45,109.89Z"/><path class="cls-7" d="M163.27,92.85a2,2,0,1,0-2-2A2,2,0,0,0,163.27,92.85Z"/><path class="cls-7" d="M95.2,96.74a2.58,2.58,0,1,0,2.58,2.58A2.58,2.58,0,0,0,95.2,96.74Z"/><path class="cls-7" d="M152.68,94.22a3.35,3.35,0,0,0,.09-6.7,27.18,27.18,0,0,1-3.4,2.87,3.71,3.71,0,0,0-.05.48A3.36,3.36,0,0,0,152.68,94.22Z"/><ellipse class="cls-7" cx="129.76" cy="103.88" rx="2.58" ry="2.58"/><path class="cls-7" d="M106.1,105.74a2,2,0,1,0,2,2A2,2,0,0,0,106.1,105.74Z"/><path class="cls-2" d="M134.8,62.2a9.74,9.74,0,0,1-6.46,0c-2.13-.55-1.85-1.9,0-1.44a10.92,10.92,0,0,0,6.46,0C136.54,60.23,136.87,61.54,134.8,62.2Z"/><path class="cls-2" d="M133.07,65.49a7.15,7.15,0,0,1-3,0c-1-.19-.89-1.14,0-1a11.74,11.74,0,0,0,3,0C133.91,64.35,134.07,65.25,133.07,65.49Z"/><path class="cls-13" d="M88.38,111.86C90.78,102,93.89,93,99,88.78a71.19,71.19,0,0,1,8.61-4.57s7,11.65,24,11.65,24-11.65,24-11.65a71.19,71.19,0,0,1,8.61,4.57c5.09,4.22,8.19,13.21,10.6,23.08"/><path class="cls-13" d="M130.74,51.93a11,11,0,0,1-2.13,4.1,6.1,6.1,0,0,0,5.29.53"/><line class="cls-22" x1="129.76" y1="42.65" x2="133.37" y2="42.65"/><path class="cls-11" d="M118.83,70.17a4.39,4.39,0,0,1-3.86-2.5,5.73,5.73,0,0,1-5,.16c-4.41-1.63-4.8-3.36-4.8-3.36C98.27,65.85,97.78,59,97.78,59c5.7,2.23,7.37-1,7-4.63s-1.34-8.69-1.34-8.69a34.94,34.94,0,0,1,0-9,34.21,34.21,0,0,1,5.42-13.15,19.39,19.39,0,0,1,8.43-9.68c12.51-6.63,18.25,0,18.25,0s7.61-4,14,.42c4.42,3.06,7.69,9.89,7.69,9.89s4,5.43,4.75,11.4c.83,6.43-.63,9.76-.63,9.76s-1.64,6-2.39,9.94c-.68,3.58,3.86,6,7.52,3.86,0,0-3.15,6.66-8.51,5.29a5.67,5.67,0,0,1-3.58,3.62,11.15,11.15,0,0,1-6.33-.42,9.16,9.16,0,0,1-4.33,2.66,4.9,4.9,0,0,1-3.84-.61,66.55,66.55,0,0,0,5.77-6.62,32,32,0,0,0,4.08-7.7s2.18-8.25,1.55-10.17-2.17-8.91-2.17-8.91a16,16,0,0,1-4,.62,17.16,17.16,0,0,1-8.21-1.86,12,12,0,0,1-3.72-3.32,6.27,6.27,0,0,0,2.35,4.87c-7.27,2.63-11.38-1.89-11.38-1.89s-.44,1.37-3.2,2-6.9-.63-6.9-.63-1.51,7.19-2.15,9.12,1.55,10.17,1.55,10.17a36.23,36.23,0,0,0,6.24,10.3,36.76,36.76,0,0,0,3.9,3.58S122,70.49,118.83,70.17Z"/><path class="cls-23" d="M111,42.59S114,40,121.25,40a16,16,0,0,1,8.36,2.63v6s-2.34,3.87-8.36,3.87a15.54,15.54,0,0,1-9.47-3.27Z"/><path class="cls-23" d="M152.12,42.59s-2.67-2.57-10-2.57a17.53,17.53,0,0,0-8.64,2.63v6s2.34,3.87,8.36,3.87a15.54,15.54,0,0,0,9.47-3.27Z"/><path class="cls-13" d="M139.87,26.53s2.35,9,8.64,9.58a12.55,12.55,0,0,0,6.8-1.37"/><path class="cls-13" d="M133.15,31.76a9.58,9.58,0,0,1-.62-9.54"/><path class="cls-13" d="M125.37,23.22s-3.86,6.73-1.25,11.52"/><path class="cls-13" d="M154.71,55.11s-2.12,7,3.23,9.36"/><path class="cls-13" d="M148,67.67a9.16,9.16,0,0,0,1.89-7.42"/><path class="cls-13" d="M105.19,64.47s5-1.38,5-5.64"/><path class="cls-13" d="M115,67.67a8.86,8.86,0,0,1-1.36-4.92"/><path class="cls-2" d="M124.17,46.55a1,1,0,0,1-1.8,0,2.19,2.19,0,0,1,0-2.37,1,1,0,0,1,1.8,0A2.19,2.19,0,0,1,124.17,46.55Z"/><path class="cls-2" d="M139,46.55a1,1,0,0,0,1.8,0,2.21,2.21,0,0,0,0-2.37,1,1,0,0,0-1.8,0A2.19,2.19,0,0,0,139,46.55Z"/><path class="cls-11" d="M263.05,232.05c-6.54.42-11.43-18.29-11.43-18.29,2-4,0-10.77,0-10.77s.43-4,2.6-4h18.21c2.74,0,2.1,4,2.1,4s-2.06,6.78,0,10.77C274.53,213.76,267.74,231.75,263.05,232.05Z"/><path class="cls-24" d="M245.91,248.16h34.28s-2-21.6-2.17-24.38S276.46,211,276.46,211l-2-1.94s-2.14,6-11.34,12.88c0,0-6.36-5.68-8-7.09s-3.46-6.51-3.46-6.51L250,210.59S246,246.33,245.91,248.16Z"/><path class="cls-11" d="M278.13,149.62H252.18c-11.1,9.91-8.52,24.14-8.52,24.14-1.24-3-3.74-1.4-4.1-.12s-.59,7.37.93,10.93c1.25,2.94,3.36,2.4,3.36,2.4s2.31,13.2,6.49,17.56c0,0,4,4.27,12.71,4.27s12.76-4.27,12.76-4.27C280,200.17,282.3,187,282.3,187s2.11.54,3.36-2.4c1.52-3.56,1.28-9.64.93-10.93s-2.86-2.87-4.1.12C282.49,173.76,285.3,157.86,278.13,149.62Z"/><path class="cls-13" d="M245,242.79c0-10.81,4.12-29.71,4.69-31.76l1.83-2.66s1.34,4,2.78,5.67a92.48,92.48,0,0,0,8.77,7.93,52.46,52.46,0,0,0,8.78-7.93,17.51,17.51,0,0,0,2.78-5.67l1.83,2.66s5.47,26.11,5.62,31.76"/><path class="cls-11" d="M211.82,248.16c.89-5.55,3.34-16.91,8.27-19.6,7.08-3.85,21.27-10.14,21.27-10.14l5.85-7.21a7.08,7.08,0,0,1,2.83-.79A355.48,355.48,0,0,0,246,248.16"/><path class="cls-11" d="M314.33,248.16c-2.85-10.41-3.25-16.1-8.28-19.6-6.61-4.6-21.26-10.14-21.26-10.14l-5.85-7.21a7.08,7.08,0,0,0-2.83-.79,355.48,355.48,0,0,1,4.08,37.74"/><path class="cls-2" d="M252.62,193.22a6,6,0,0,1,2.27-2.5c1-.65,2-.06,1.19.55a12.33,12.33,0,0,0-2.33,3C253.25,195.07,252.13,194.29,252.62,193.22Z"/><path class="cls-2" d="M256.84,172.33c-1.61-.83-4.28-1.62-5.48-1.39-1.89.35-1.2,3.11-.17,2.92a27.36,27.36,0,0,1,5.65,0C257.82,174,257.92,172.89,256.84,172.33Z"/><path class="cls-2" d="M265.57,200.33a15.82,15.82,0,0,1-5,0c-1.69-.23-1.47-1.68,0-1.53a26.1,26.1,0,0,0,5,0C267,198.65,267.23,200.05,265.57,200.33Z"/><polyline class="cls-13" points="241.36 218.42 237.18 224.61 244.07 228.16 235.17 233.51 242.4 248.16"/><path class="cls-2" d="M255.8,179.21a1.54,1.54,0,1,1-1.5-1.88A1.72,1.72,0,0,1,255.8,179.21Z"/><path class="cls-11" d="M286.56,164.27c-.26,2.31-1,8.13-1,8.13s-1.07-.82-1.89.84c-.34.71-1.56,7.93-1.56,7.93s.16-11.17,0-12.88,0-5.55-.71-6.84a51.77,51.77,0,0,0-3.88-4.87l1.51-.43c-1.6-2.39-5.88-2.82-5.88-2.82l-2.76-2-2.76,1.28L265.75,151,264,153l-5.34-.77-.89,1.8-3.79-.34v2.56l-5.21,1.2A33,33,0,0,0,245,165.9c-.31,1.79-1.55,14.53-1.55,14.53s-.18-3.85-.45-5.73a3.85,3.85,0,0,0-2-2.71,47.24,47.24,0,0,1,0-10c.53-4.44,5.13-9.46,6-10.69,1.34-2,6.86-5.64,11.67-6.75a24.1,24.1,0,0,1,7.56-.77s1.52-1.6,6.1-1.6c1.91,0,5.82,4.07,5.82,4.07s3.62,1.51,4.51,3.39.91,5.59.91,5.59a9.87,9.87,0,0,1,2.23,3.17,3.37,3.37,0,0,1-.36,2.65A4.3,4.3,0,0,1,286.56,164.27Z"/><path class="cls-2" d="M263.11,190.38a5.06,5.06,0,0,1-3.81-1.7.89.89,0,0,1,.14-1.25.9.9,0,0,1,1.25.14,3.22,3.22,0,0,0,2.53,1,3.12,3.12,0,0,0,2.4-1,.9.9,0,0,1,1.24-.17.88.88,0,0,1,.2,1.22,4.86,4.86,0,0,1-3.78,1.68Z"/><path class="cls-2" d="M263.05,195.88a12.81,12.81,0,0,1-6.63-1.74.89.89,0,1,1,1.1-1.4h0a9.91,9.91,0,0,0,11.07,0,.89.89,0,0,1,1.24.15.9.9,0,0,1-.15,1.25A12.81,12.81,0,0,1,263.05,195.88Z"/><path class="cls-13" d="M278,146.23a7.47,7.47,0,0,0-6.38-2.17c-4.06.52-7.67,8.93-7.67,8.93"/><path class="cls-13" d="M267.62,152.65s5.36-5.43,9.62-6.06"/><path class="cls-13" d="M266.1,143.76a9.24,9.24,0,0,0-3.19,8.38"/><path class="cls-2" d="M269.31,172.33c1.61-.83,4.28-1.62,5.48-1.39,1.88.35,1.2,3.11.17,2.92a27.36,27.36,0,0,0-5.65,0C268.33,174,268.23,172.89,269.31,172.33Z"/><polyline class="cls-13" points="284.79 218.42 288.97 224.61 282.08 228.16 290.98 233.51 283.75 248.16"/><path class="cls-2" d="M270.35,179.21a1.54,1.54,0,1,0,1.5-1.88A1.72,1.72,0,0,0,270.35,179.21Z"/><path class="cls-13" d="M263.07,222s-4.28-.2-5.61-.05-9.69,8.49-9.69,8.49"/><path class="cls-13" d="M261.53,152.14a8.51,8.51,0,0,0-7.64-5.91"/><path class="cls-13" d="M254,153.68s-6.52-1-10.25,1.85"/><path class="cls-13" d="M258.63,152.22s-5.84-3.9-11.25-1.55"/><path class="cls-13" d="M248.74,157.44A13.54,13.54,0,0,0,240.9,162"/><path class="cls-13" d="M270.38,151.37s7.52-3.77,12.38-.09"/><path class="cls-13" d="M278.49,155.53s6,3.68,7.34,6.14"/><path class="cls-2" d="M248.29,158.6s-5.26,4.24-7.39,8V172a6.54,6.54,0,0,1,2.8,4.11L245.18,165Z"/><path class="cls-2" d="M279.6,159a38.36,38.36,0,0,1,6.25,7.52V172a6.55,6.55,0,0,0-2.79,4.11l-1.23-12.95Z"/><path class="cls-2" d="M273.54,193.22a6,6,0,0,0-2.27-2.5c-1-.65-2-.06-1.2.55a12.13,12.13,0,0,1,2.34,3C272.9,195.07,274,194.29,273.54,193.22Z"/><path class="cls-13" d="M263.07,222s4.33-.2,5.66-.05,9.65,8.49,9.65,8.49"/><line class="cls-11" x1="260.43" y1="226.14" x2="260.43" y2="248.16"/><line class="cls-11" x1="260.43" y1="225.58" x2="263.07" y2="221.97"/><path class="cls-11" d="M276.42,79.32c-2.85-1.33-3.28-17.83-2.72-18.17H252.13c.56.34.13,16.84-2.73,18.17l-6,3.59,19.5,11.24,19.35-10.8Z"/><path class="cls-11" d="M283.79,37.65s.39-1.93,2.89-1.11c2.93,1,.92,9.21,0,11.6-1.52,4-3.89,2.55-3.89,2.55s-4,6.62-6.53,10.17-7.51,6.41-9.63,7.2a11.4,11.4,0,0,1-7.43,0c-2.14-.87-7.1-3.65-9.64-7.2S243,50.69,243,50.69s-2.37,1.41-3.89-2.55c-.92-2.39-2.93-10.64,0-11.6,2.49-.82,2.89,1.11,2.89,1.11s.35-13,2.57-17.48S263.07,9.4,263.07,9.4s12.13,2.77,17.58,9S283.79,37.65,283.79,37.65Z"/><path class="cls-2" d="M268,33.7c1.12-.36,4.09-1.78,6.61-1.33,1.16.21,1.22,2.3.22,2.14-2.29-.36-5.88.51-6.83.7S266.82,34.05,268,33.7Z"/><path class="cls-2" d="M256.18,40.71a2.86,2.86,0,0,1-2.71,0s-.61-1.2,0-2a1.92,1.92,0,0,1,2.71,0A1.41,1.41,0,0,1,256.18,40.71Z"/><path class="cls-2" d="M257.88,33.7c-1.13-.36-4.09-1.78-6.61-1.33-1.17.21-1.23,2.3-.23,2.14,2.29-.36,5.89.51,6.84.7S259,34.05,257.88,33.7Z"/><path class="cls-2" d="M266.67,58.17a9.24,9.24,0,0,1-7.5,0c-2.39-.88-2.08-2.67,0-1.91a9.4,9.4,0,0,0,7.5,0C268.65,55.54,269,57.26,266.67,58.17Z"/><path class="cls-12" d="M238.07,19.09c.31-4.58,1.67-6.4,3.12-9.07a15,15,0,0,1,7.63-6.25c6.06-2.52,9.31.17,9.31.17a18.85,18.85,0,0,1,7.24-2.8,20.06,20.06,0,0,1,8.75.43,27.09,27.09,0,0,1,9.44,5.05c2.86,2.46,5.41,4.75,5,9.77-.3,3.41.92,4.05.92,4.05a16.92,16.92,0,0,1,3.3,5.43c.78,2.67.43,4-.51,6.41s1.11,4.53,1.11,4.53c-2,1.15-4-1.58-4-1.58s-1,1.32,1.13,4a3.22,3.22,0,0,1-.19,4.5,8.51,8.51,0,0,0-4.73-3.39c-2.17,1-1.13,4-1.13,4-3.56-1.68-2.89-6.2-2.89-6.2,0,2.74-3,3.9-3,3.9,1-1.22.38-5.47-4-6.49-3.44-.8-1.24-4.61-1.92-6.72a3.1,3.1,0,0,0-3.37-2.33c1.62,6.87-2.61,9.05-2.61,9.05.85-.88,1.9-4.84-.22-6.16-3.37-2.11-3-5.78-3.36-6.77s-.79-3.78-3.59-4.89c0,0-2.91-1.44-6.28,1.3-1.37,1.11-2.86,3.26-2.86,7.14a4.91,4.91,0,0,1-1.89,4.21,4.62,4.62,0,0,0-2,5.17c.87,4.08-3,3.46-3.37,9.17,0,0-2-7.36-2.48-8.45,0,0-3.09-.1-2.94,2.93s-.88,4.68-3.66,5.14c0,0,2.89-2.47,1.22-4.77a12.28,12.28,0,0,1-1.28-12.14C235.24,24.65,237.62,25.89,238.07,19.09Z"/><path class="cls-11" d="M262,42.62A24.55,24.55,0,0,1,260.69,51s2.37,1.83,4.15.26"/><path class="cls-11" d="M313.85,112.6c-2.84-10.41-6.5-19.9-12.5-24.36S279,79.32,279,79.32l-4.41-7.77L262.78,83.8,251.24,71.55l-4.41,7.77s-16.35,4.46-22.35,8.92-9.67,14-12.5,24.36"/><path class="cls-2" d="M264.76,90.38a1.87,1.87,0,1,1-1.87-1.86A1.87,1.87,0,0,1,264.76,90.38Z"/><path class="cls-2" d="M264.76,107.47a1.87,1.87,0,1,1-1.87-1.86A1.87,1.87,0,0,1,264.76,107.47Z"/><polyline class="cls-11" points="262.78 83.8 253.29 94.16 246.83 79.32"/><path class="cls-2" d="M269.65,40.71a2.86,2.86,0,0,0,2.71,0s.6-1.2,0-2a1.92,1.92,0,0,0-2.71,0A1.4,1.4,0,0,0,269.65,40.71Z"/><polyline class="cls-11" points="263.05 83.8 272.53 94.16 278.99 79.32"/><line class="cls-13" x1="258.85" y1="87.94" x2="258.85" y2="112.6"/><path class="cls-13" d="M257.49,10.13s-4.9-1.34-9.74,3.77a11.81,11.81,0,0,0-2.82,10.61c.34,1.44.37,2.9-1.52,4.94s-1.63,4.31-.89,7.18c0,0-.86,3.16-.31,5.14"/><path class="cls-13" d="M237.62,39.26s1.21-3.38,0-5.93-.66-4.88,1.9-6.77,1.89-4.17,2-7.47,1.56-7.39,6-9.12"/><path class="cls-13" d="M269.26,26.56A6.68,6.68,0,0,0,268,23.67c-1-1-.16-3.21-.78-5.77s-4.11-4.66-8.32-3"/><path class="cls-13" d="M261,10.8s6.14-1.4,9.41,1.89c3.6,3.62.18,6.94,2.19,9.21,2.4,2.72,2.85,1.55,4.2,4.66.94,2.15-2.27,5.81,1.39,7.2,5.73,2.17,1.88,7.35,1.88,7.35"/><path class="cls-13" d="M276.89,10.5c.62.19,6,4.24,5.89,9.94s-1.89,7.9,0,9.23,5.43,5.56,1.53,12.1"/><path class="cls-13" d="M289.33,35.23s1.24-6.23-4.21-8.67"/><path class="cls-2" d="M640.15,38.16s-3.29,5.56-4.79,8.63-1.78,7,1.59,8.7,2.35,3,1.92,5.32.56,5,3,5.89c0,0,4.17,1.82,2,6.54-2,4.44,2.15,7.55,2.15,7.55s.22-4,3.56-5.66c5.73-2.86,6.78,5.43,11.23-1.48S663.1,51,663.1,51L656.46,36Z"/><path class="cls-2" d="M684.61,20.78c-2.13-9.15-6.06-13.65-10.14-16.66a9.66,9.66,0,0,0-9.65-1.21S661,.49,657.25,1C643.45,2.73,636.32,15,635,19.83a32.51,32.51,0,0,0,2.44,20.58C642.47,50.89,657.88,52,657.88,52l20.37-7.85S687.22,32,684.61,20.78Z"/><path class="cls-11" d="M681.12,77.16l-9.61-6.24c-3.66-4.09-2.44-12.44-2-12.78,0,0,1.28-5.56-1.66-5.56H651.18c-1.9,0-1.69,5.56-1.69,5.56.44.34,1.65,8.69-2,12.78l-9.61,6.24s9.57,16,21.62,16S681.12,77.16,681.12,77.16Z"/><path class="cls-11" d="M680,34.91a3.2,3.2,0,0,0-2.12-.1c.08-.59.12-.93.12-.93s-.27-9-3.68-13.72S663,10,663,10s-15.28,5.16-17.27,8.71S641,33.88,641,33.88s0,.34.13.93a3.17,3.17,0,0,0-2.13.1c-4.76,1.79-.75,10,.6,11.9a3.48,3.48,0,0,0,3.21,1.58c0,.24,1.61,6.06,1.7,6.28,3,6.71,8.58,9,10.75,10.2,3.32,1.71,5.47,1.57,8.55,0,1.8-.85,7.77-4.23,10.75-10.2.11-.21,1.68-6,1.7-6.28a3.49,3.49,0,0,0,3.21-1.58C680.79,44.93,684.8,36.7,680,34.91Z"/><path class="cls-2" d="M681.72,24.58c-1-5.37-6.87-13.93-12.91-17S652.72,7.43,649,9.78s-11,15.43-9.51,31.05c.79,8.51,4.15,18.56,4.15,18.56C643.3,48,643,40.83,643,40.83s.22-6.49,2.7-10.26c1.6-2.43,3.78-6.72,8.5-9.11a33.37,33.37,0,0,0,9.21-7.15,45.83,45.83,0,0,1,10,10.16c2.07,2.89,2.82,5.81,2.08,11.53-.32,2.47-.8,8.86.81,12.39a10.81,10.81,0,0,1-.07,9.3s4.38-5.41,3.28-10.88c-1.19-6-.11-6.83,1.16-10.82A30.28,30.28,0,0,0,681.72,24.58Z"/><path class="cls-2" d="M651.59,40.51a1.07,1.07,0,0,1-1.93,0,2.55,2.55,0,0,1,0-2.65,1.09,1.09,0,0,1,1.93,0A2.57,2.57,0,0,1,651.59,40.51Z"/><path class="cls-2" d="M661.28,58.11a6.29,6.29,0,0,1-3.57,0c-1.21-.3-1.05-1.81,0-1.6a10.69,10.69,0,0,0,3.57,0C662.29,56.3,662.47,57.74,661.28,58.11Z"/><path class="cls-2" d="M653.92,33.16a14.79,14.79,0,0,0-7.5.35c-1.16.44-.85,1,.19.79,2.25-.49,6.31.26,7.31.47S655.11,33.54,653.92,33.16Z"/><path class="cls-2" d="M663.14,53.72a16.61,16.61,0,0,1-7.26,0c-2.43-.51-2.11-2,0-1.61a14.28,14.28,0,0,0,7.26,0C665.14,51.66,665.56,53.35,663.14,53.72Z"/><path class="cls-13" d="M657.61,37.27a28.2,28.2,0,0,1-.3,10.33s1.35,1.67,4.39.38"/><path class="cls-2" d="M667.43,40.51a1.06,1.06,0,0,0,1.92,0,2.51,2.51,0,0,0,0-2.65,1.08,1.08,0,0,0-1.92,0A2.53,2.53,0,0,0,667.43,40.51Z"/><path class="cls-2" d="M665.1,33.16a14.75,14.75,0,0,1,7.49.35c1.17.44.86,1-.19.79-2.25-.49-6.3.26-7.3.47S663.91,33.54,665.1,33.16Z"/><path class="cls-7" d="M705.43,110.22c-1-5.33-3.06-23.63-10-28.65-4-2.91-10.17-5.36-14.33-8,0,0-2.38-1.44-7.06-1l5.7,3.71s-8.39,13.64-20.26,13.64c-9,0-16.72-8.19-20.26-13.64l5.7-3.71c-4.67-.44-7.06,1-7.06,1-4.15,2.64-10.31,5.09-14.33,8-6.91,5-9,23.32-10,28.65Z"/><polygon class="cls-2" points="636.57 110.22 633.82 110.22 633.82 75.98 636.57 74.36 636.57 110.22"/><polygon class="cls-2" points="628.41 110.22 625.67 110.22 625.67 80.18 628.41 78.49 628.41 110.22"/><polygon class="cls-2" points="620.25 110.22 617.51 110.22 617.51 89.91 620.25 84.78 620.25 110.22"/><polygon class="cls-2" points="652.73 110.22 649.99 110.22 649.99 87.11 652.73 88.52 652.73 110.22"/><polygon class="cls-2" points="644.58 110.22 641.83 110.22 641.83 79.68 644.58 82.75 644.58 110.22"/><polygon class="cls-2" points="682.46 110.22 685.21 110.22 685.21 75.98 682.46 74.36 682.46 110.22"/><polygon class="cls-2" points="690.62 110.22 693.36 110.22 693.36 80.18 690.62 78.49 690.62 110.22"/><polygon class="cls-2" points="698.78 110.22 701.52 110.22 701.52 89.91 698.78 84.78 698.78 110.22"/><polygon class="cls-2" points="666.3 110.22 669.04 110.22 669.04 87.11 666.3 88.52 666.3 110.22"/><polygon class="cls-2" points="674.46 110.22 677.2 110.22 677.2 79.68 674.46 82.75 674.46 110.22"/><rect class="cls-2" x="658.14" y="89.91" width="2.74" height="20.31"/><path class="cls-13" d="M705.43,110.22c-1-5.33-3.06-23.63-10-28.65-4-2.91-10.17-5.36-14.33-8,0,0-2.38-1.44-7.06-1l5.7,3.71s-8.39,13.64-20.26,13.64c-9,0-16.72-8.19-20.26-13.64l5.7-3.71c-4.67-.44-7.06,1-7.06,1-4.15,2.64-10.31,5.09-14.33,8-6.91,5-9,23.32-10,28.65"/><path class="cls-11" d="M639.24,76.28s-2-2.82.38-3.4"/><path class="cls-11" d="M679.79,76.28s2-2.82-.38-3.4"/><path class="cls-11" d="M513.3,64c-.62.34-1.81,8,.88,9.36,0,0,7.36,5.51,4.25,11.78H484.61c-2.89-6.88,4.08-11.78,4.08-11.78,2.69-1.33,1.5-9,.89-9.36a116.56,116.56,0,0,0,11.84.61A118.15,118.15,0,0,0,513.3,64Z"/><path class="cls-7" d="M516.52,110.07H486.41V78.17s7.6,4.25,15,4.25c7.68,0,15.06-4.25,15.06-4.25Z"/><path class="cls-13" d="M487.72,78.64a30.86,30.86,0,0,0,13.7,3.56,31.41,31.41,0,0,0,13.78-3.56"/><path class="cls-11" d="M486.84,12.63c-4.56,7.1-6.28,23.82-6.28,23.82s-.39-1.93-2.89-1.11c-2.93,1-.92,7.49,0,9.88,1.52,4,3.89,2.55,3.89,2.55s2.23,11.56,5,15.12,5.64,4.45,11.13,6.52a12.57,12.57,0,0,0,7.42,0c5.63-1.66,8.3-3,11.12-6.52s5-15.12,5-15.12,2.38,1.41,3.9-2.55c.92-2.39,2.93-8.92,0-9.88-2.5-.82-2.89,1.11-2.89,1.11s-.89-18.61-7.12-24.38Z"/><path class="cls-2" d="M503.12,62.54a6,6,0,0,1-3.38,0c-1.15-.29-1-1.71,0-1.52a9.59,9.59,0,0,0,3.38,0C504.07,60.83,504.24,62.19,503.12,62.54Z"/><path class="cls-2" d="M493.63,38.09a1.06,1.06,0,0,1-1.89,0,2.31,2.31,0,0,1,0-2.51,1.09,1.09,0,0,1,1.89,0A2.33,2.33,0,0,1,493.63,38.09Z"/><path class="cls-2" d="M496.3,30.45c-1.12-.35-5.89-1.47-7-1.18s-1.63,2.61-.13,2.52a65.52,65.52,0,0,1,7,.62C497.13,32.6,497.43,30.81,496.3,30.45Z"/><path class="cls-2" d="M505.53,58.67a25.72,25.72,0,0,1-8.17,0c-2.1-.31-1.95-1.9,0-1.52a25.16,25.16,0,0,0,8.17,0C507.8,56.75,508.23,58.16,505.53,58.67Z"/><path class="cls-13" d="M500.63,41.26l-.82,7a3.27,3.27,0,0,0-.74,4.68s2.95,1,4.83.16"/><path class="cls-2" d="M509.24,38.56a1.06,1.06,0,0,0,1.9,0,2.29,2.29,0,0,0,0-2.5,1.09,1.09,0,0,0-1.9,0A2.31,2.31,0,0,0,509.24,38.56Z"/><path class="cls-25" d="M482.78,14.18s-3.17,5.77-3.84,10.66,1.92,17.31,1.92,17.31H482s-.22-14.35,2.31-18.79l2.63-1.78,1.81-8.95Z"/><path class="cls-13" d="M499.48,38a6.8,6.8,0,1,1-6.8-6.77A6.78,6.78,0,0,1,499.48,38Z"/><path class="cls-2" d="M485.5,38.23l-7.29-3.14a.89.89,0,0,1,.71-1.63l6.94,2C486.31,35.7,485.62,38.28,485.5,38.23Z"/><path class="cls-2" d="M506.56,30.45c1.13-.35,5.9-1.51,7-1.22s1.63,2.6.13,2.51a67.93,67.93,0,0,0-7,.67C505.74,32.6,505.44,30.81,506.56,30.45Z"/><path class="cls-25" d="M520.08,14.18s3.18,5.77,3.85,10.66S522,42.15,522,42.15h-1.11s.21-14.35-2.31-18.79L516,21.58l-1.81-8.95Z"/><path class="cls-13" d="M503.39,38a6.79,6.79,0,1,0,6.79-6.77A6.78,6.78,0,0,0,503.39,38Z"/><path class="cls-2" d="M517.36,38.23l7.3-3.14a.89.89,0,0,0-.71-1.63l-6.94,2C516.56,35.7,517.25,38.28,517.36,38.23Z"/><path class="cls-11" d="M488.16,16s6.51-1.17,9.09-.94l.44,1.29s2.35-.54,4.4-1.19l.58,1.61s4-.69,8-1.08l.82,1.08c4.22-.26,8.31-.64,9.52-1.91.89-.94,2.09-3.25-1-5.22-4-2.53-6.37-6.32-16.45-7S489.84,5.43,487,6.52a6.49,6.49,0,0,0-4.17,7.66C483.28,15.44,488.16,16,488.16,16Z"/><path class="cls-13" d="M499.48,38a3.28,3.28,0,0,1,3.91,0"/><line class="cls-13" x1="499.48" y1="67.69" x2="500.19" y2="70.94"/><line class="cls-13" x1="503.39" y1="67.69" x2="502.29" y2="70.94"/><line class="cls-13" x1="506.47" y1="66.65" x2="505.15" y2="69.41"/><path class="cls-13" d="M495.16,15.07S492.45,11.3,494,8.19s5.59-6.09,9.57-5.59"/><path class="cls-13" d="M497.25,15.05S496.09,9.66,498.94,7a19,19,0,0,1,6.64-3.85"/><path class="cls-13" d="M497.69,16.34A10.24,10.24,0,0,1,503.39,7c6.36-3.31,10.19-1.84,10.19-1.84"/><path class="cls-13" d="M502.67,16.76s-2.18-4.31-.38-6.9,7.9-5.3,7.9-5.3"/><path class="cls-13" d="M503.39,16.64a10.67,10.67,0,0,1,3.77-7.83c4.78-4.25,6.42-3.65,6.42-3.65"/><path class="cls-13" d="M497,3.45s-7.4,1.11-6.66,6.18c.4,2.76,3.16,5.42,3.16,5.42"/><path class="cls-2" d="M494.34,15.13s-5.85-1.34-6.39-4.84c-.67-4.32,7.45-7.17,7.45-7.17s-10.32,3.82-11.72,6a8.09,8.09,0,0,0-.9,5.1A36.31,36.31,0,0,0,488.16,16C489.62,16.18,494.34,15.13,494.34,15.13Z"/><path class="cls-2" d="M503.39,17.12a95.43,95.43,0,0,1,7.36-9,28.94,28.94,0,0,1,3.39-3s8.88,5.28,7.88,7.5-1.47,2.6-3.73,3.38a27.62,27.62,0,0,1-6.78.75l-1.8-1.3Z"/><line class="cls-13" x1="495.74" y1="66.46" x2="497.73" y2="69.41"/><path class="cls-7" d="M449,110.17c2.91-10.41,6.72-20.68,12.89-25.14s21.38-9.77,21.38-9.77c.89-1.07,5.41-6.26,5.41-6.26s2.68,11.52,3.3,30.75c0,0-.15,7.76,0,10.42Z"/><polygon class="cls-26" points="480.22 76.01 477.48 77.22 477.48 110.17 480.22 110.17 480.22 76.01"/><polygon class="cls-26" points="488.23 69.43 485.48 72.46 485.48 110.17 488.23 110.17 488.23 69.43"/><polygon class="cls-26" points="464.2 83.3 461.46 85.48 461.46 110.17 464.2 110.17 464.2 83.3"/><polygon class="cls-26" points="456.2 91.45 453.45 96.91 453.45 110.17 456.2 110.17 456.2 91.45"/><polygon class="cls-26" points="472.21 79.38 469.47 80.63 469.47 110.17 472.21 110.17 472.21 79.38"/><g class="cls-27"><polygon class="cls-4" points="464.19 83.46 460.37 86.2 491.04 86.2 491.04 83.46 464.19 83.46"/><polygon class="cls-4" points="481.5 75.47 475.2 78.21 490.27 78.21 489.88 75.47 481.5 75.47"/><polygon class="cls-4" points="452.38 99.44 451.45 102.18 492.01 102.18 492.01 99.44 452.38 99.44"/><polygon class="cls-4" points="449.6 107.44 449.01 110.17 491.94 110.17 491.94 107.44 449.6 107.44"/><polygon class="cls-4" points="456.03 91.45 454.82 94.19 491.47 94.19 491.47 91.45 456.03 91.45"/></g><path class="cls-13" d="M449,110.07c2.91-10.41,6.72-20.68,12.89-25.15s21.38-9.76,21.38-9.76c.89-1.08,5.41-6.26,5.41-6.26s2.68,11.52,3.3,30.75c0,0-.15,7.76,0,10.42"/><polyline class="cls-13" points="483.29 75.16 480.04 83.06 488.09 84.83 480.72 89.48 491.94 109.28"/><path class="cls-7" d="M553.86,110.17C550.94,99.76,547.14,89.49,541,85s-21.39-9.77-21.39-9.77c-.89-1.07-5.41-6.26-5.41-6.26s-2.67,11.52-3.29,30.75c0,0,.14,7.76,0,10.42Z"/><polygon class="cls-26" points="522.65 76.01 525.39 77.22 525.39 110.17 522.65 110.17 522.65 76.01"/><polygon class="cls-26" points="514.64 69.43 517.38 72.46 517.38 110.17 514.64 110.17 514.64 69.43"/><polygon class="cls-26" points="538.66 83.3 541.41 85.48 541.41 110.17 538.66 110.17 538.66 83.3"/><polygon class="cls-26" points="546.67 91.45 549.42 96.91 549.42 110.17 546.67 110.17 546.67 91.45"/><polygon class="cls-26" points="530.66 79.38 533.4 80.63 533.4 110.17 530.66 110.17 530.66 79.38"/><g class="cls-27"><polygon class="cls-4" points="538.68 83.46 542.5 86.2 511.83 86.2 511.83 83.46 538.68 83.46"/><polygon class="cls-4" points="521.37 75.47 527.67 78.21 512.6 78.21 512.99 75.47 521.37 75.47"/><polygon class="cls-4" points="550.49 99.44 551.41 102.18 510.86 102.18 510.86 99.44 550.49 99.44"/><polygon class="cls-4" points="553.27 107.44 553.86 110.17 510.93 110.17 510.93 107.44 553.27 107.44"/><polygon class="cls-4" points="546.84 91.45 548.04 94.19 511.4 94.19 511.4 91.45 546.84 91.45"/></g><path class="cls-13" d="M553.86,110.07c-2.92-10.41-6.72-20.68-12.89-25.15s-21.39-9.76-21.39-9.76c-.89-1.08-5.41-6.26-5.41-6.26s-2.67,11.52-3.29,30.75c0,0,.14,7.76,0,10.42"/><polyline class="cls-13" points="519.58 75.16 522.83 83.06 514.78 84.83 522.15 89.48 510.93 109.28"/><path class="cls-11" d="M369.34,75.58c-2.11-1.26-2-11-1.54-11.29H350.87c.44.32.57,10-1.54,11.29l10,14.66Z"/><path class="cls-11" d="M342.07,18.57c-3.85,3.59-6.12,12.68-6.12,20a17.8,17.8,0,0,0,4.5,11.84s.76,7.16,3.65,10.53,8.83,6.58,11.36,7.61c3.14,1.27,4.65,1.41,7.75,0,5.48-2.5,8.46-4.23,11.36-7.61s3.65-10.53,3.65-10.53,2.67-1.28,3.79-10.58-.21-15.75-4.62-21.28Z"/><path class="cls-28" d="M404.15,112.7c-2.41-9.89-7-23.36-11.2-26.16-4-2.63-17.8-7.84-17.8-7.84-.85-1-3.76-9.13-3.76-9.13L359.33,81.05c-6.16-5.47-12.08-11.48-12.08-11.48s-2.91,8.11-3.75,9.13c0,0-13.84,5.21-17.8,7.84-4.23,2.8-8.79,16.27-11.2,26.16Z"/><path class="cls-13" d="M359.1,45.9A17.38,17.38,0,0,1,357,52.12s1.56,1.4,4.29.24"/><path class="cls-2" d="M351.27,44.29a1.26,1.26,0,0,1-2.08,0,2,2,0,0,1,0-2.39,1.3,1.3,0,0,1,2.08,0A2,2,0,0,1,351.27,44.29Z"/><path class="cls-2" d="M353.14,37.13a8.79,8.79,0,0,0-6.7-.12c-1.09.28-.95,1.62,0,1.44a14.27,14.27,0,0,1,6.7.12C354,38.75,354.17,37.57,353.14,37.13Z"/><path class="cls-2" d="M362.91,57.7a27.52,27.52,0,0,1-7.14,0c-2.41-.28-2.1-1.63,0-1.44a47.27,47.27,0,0,0,7.14,0C364.91,56.07,365.28,57.36,362.91,57.7Z"/><path class="cls-2" d="M361,61.62a5.66,5.66,0,0,1-3.21,0c-1.09-.27-.94-1.62,0-1.44a9.11,9.11,0,0,0,3.21,0C361.85,60,362,61.29,361,61.62Z"/><path class="cls-12" d="M366.85,6.13c8.24,1.12,11.94,5.59,16.5,14.55,3.08,6.07,5.19,14.24,5.58,24.91.32,8.83,4.9,6.43,4.9,6.43-1.94,5.07-7.82,2.77-7.82,2.77-5.28,4.22-8.38-.37-8.38-.37-3-.75-3.28-3.07-3.28-3.07,2.75.85,4.51-3.24,5.16-6.92a105.27,105.27,0,0,0,.82-11.5c-.17-7.61-5-9.72-5-9.72a70.31,70.31,0,0,0-32,0s-4.86,2.11-5,9.72a108,108,0,0,0,.82,11.5c.66,3.68,2.42,7.77,5.16,6.92A3.94,3.94,0,0,1,341,54.42s-3.1,4.59-8.38.37c0,0-5.89,2.3-7.82-2.77,0,0,4.58,2.4,4.9-6.43.38-10.67,2.49-18.84,5.58-24.91,4.56-9,8.22-13.77,16.5-14.55,5.6-.53,7.51,1.79,7.51,1.79S361.78,5.44,366.85,6.13Z"/><path class="cls-2" d="M367.38,44.29a1.25,1.25,0,0,0,2.07,0,2,2,0,0,0,0-2.39,1.29,1.29,0,0,0-2.07,0A2,2,0,0,0,367.38,44.29Z"/><path class="cls-2" d="M365.51,37.13a8.8,8.8,0,0,1,6.7-.12c1.09.28,1,1.62,0,1.44a14.27,14.27,0,0,0-6.7.12C364.61,38.75,364.48,37.57,365.51,37.13Z"/><path class="cls-13" d="M343.34,23.21s.53-6.69,4.55-10.91"/><path class="cls-13" d="M347.89,21.58s1.1-6.11,4.24-9.28"/><path class="cls-13" d="M356.37,11.36a23,23,0,0,0-2.54,10.22"/><line class="cls-13" x1="359.31" y1="21.37" x2="359.33" y2="11.36"/><path class="cls-13" d="M362.53,11.36s2,5.79,1.57,10"/><path class="cls-13" d="M367.53,12.3a19,19,0,0,1,2.32,9.85"/><path class="cls-13" d="M373,13a14.62,14.62,0,0,1,2.33,10.17"/><path class="cls-13" d="M334.78,47.42s1.59,7,6.24,7"/><path class="cls-13" d="M332.64,54.79s-1.66-1.35-1.13-4.36"/><path class="cls-13" d="M377.63,54.42a6.25,6.25,0,0,0,4.81-3.5c1.9-3.4,1.05-12.33,1.05-12.33"/><path class="cls-13" d="M386,54.79a13.13,13.13,0,0,0,.65-7.37"/><polygon class="cls-7" points="355.71 82.08 354.63 83.16 353.54 82.08 354.63 81 355.71 82.08"/><polygon class="cls-7" points="355.71 87.21 354.63 88.29 353.54 87.21 354.63 86.13 355.71 87.21"/><polygon class="cls-7" points="355.71 92.3 354.63 93.38 353.54 92.3 354.63 91.21 355.71 92.3"/><polygon class="cls-7" points="355.71 97.39 354.63 98.47 353.54 97.39 354.63 96.31 355.71 97.39"/><polygon class="cls-7" points="355.71 102.47 354.63 103.56 353.54 102.47 354.63 101.39 355.71 102.47"/><polygon class="cls-7" points="355.71 107.58 354.63 108.66 353.54 107.58 354.63 106.5 355.71 107.58"/><polygon class="cls-7" points="355.71 112.7 353.54 112.7 354.63 111.62 355.71 112.7"/><polygon class="cls-7" points="350.52 76.91 349.44 78 348.35 76.91 349.44 75.83 350.52 76.91"/><polygon class="cls-7" points="350.52 82.08 349.44 83.16 348.35 82.08 349.44 81 350.52 82.08"/><polygon class="cls-7" points="350.52 87.21 349.44 88.29 348.35 87.21 349.44 86.13 350.52 87.21"/><polygon class="cls-7" points="350.52 92.3 349.44 93.38 348.35 92.3 349.44 91.21 350.52 92.3"/><polygon class="cls-7" points="350.52 97.39 349.44 98.47 348.35 97.39 349.44 96.31 350.52 97.39"/><polygon class="cls-7" points="350.52 102.47 349.44 103.56 348.35 102.47 349.44 101.39 350.52 102.47"/><polygon class="cls-7" points="350.52 107.58 349.44 108.66 348.35 107.58 349.44 106.5 350.52 107.58"/><polygon class="cls-7" points="350.52 112.7 348.35 112.7 349.44 111.62 350.52 112.7"/><polygon class="cls-7" points="345.35 82.08 344.26 83.16 343.18 82.08 344.26 81 345.35 82.08"/><polygon class="cls-7" points="345.35 87.21 344.26 88.29 343.18 87.21 344.26 86.13 345.35 87.21"/><polygon class="cls-7" points="345.35 92.3 344.26 93.38 343.18 92.3 344.26 91.21 345.35 92.3"/><polygon class="cls-7" points="345.35 97.39 344.26 98.47 343.18 97.39 344.26 96.31 345.35 97.39"/><polygon class="cls-7" points="345.35 102.47 344.26 103.56 343.18 102.47 344.26 101.39 345.35 102.47"/><polygon class="cls-7" points="345.35 107.58 344.26 108.66 343.18 107.58 344.26 106.5 345.35 107.58"/><polygon class="cls-7" points="345.35 112.7 343.18 112.7 344.26 111.62 345.35 112.7"/><polygon class="cls-7" points="324.62 92.3 323.53 93.38 322.45 92.3 323.53 91.21 324.62 92.3"/><polygon class="cls-7" points="324.62 97.39 323.53 98.47 322.45 97.39 323.53 96.31 324.62 97.39"/><polygon class="cls-7" points="324.62 102.47 323.53 103.56 322.45 102.47 323.53 101.39 324.62 102.47"/><polygon class="cls-7" points="324.62 107.58 323.53 108.66 322.45 107.58 323.53 106.5 324.62 107.58"/><polygon class="cls-7" points="324.62 112.7 322.45 112.7 323.53 111.62 324.62 112.7"/><polygon class="cls-7" points="319.44 102.47 318.36 103.56 317.27 102.47 318.36 101.39 319.44 102.47"/><polygon class="cls-7" points="319.44 107.58 318.36 108.66 317.27 107.58 318.36 106.5 319.44 107.58"/><polygon class="cls-7" points="319.44 112.7 317.27 112.7 318.36 111.62 319.44 112.7"/><polygon class="cls-7" points="340.16 82.08 339.08 83.16 337.99 82.08 339.08 81 340.16 82.08"/><polygon class="cls-7" points="340.16 87.21 339.08 88.29 337.99 87.21 339.08 86.13 340.16 87.21"/><polygon class="cls-7" points="340.16 92.3 339.08 93.38 337.99 92.3 339.08 91.21 340.16 92.3"/><polygon class="cls-7" points="340.16 97.39 339.08 98.47 337.99 97.39 339.08 96.31 340.16 97.39"/><polygon class="cls-7" points="340.16 102.47 339.08 103.56 337.99 102.47 339.08 101.39 340.16 102.47"/><polygon class="cls-7" points="340.16 107.58 339.08 108.66 337.99 107.58 339.08 106.5 340.16 107.58"/><polygon class="cls-7" points="340.16 112.7 337.99 112.7 339.08 111.62 340.16 112.7"/><polygon class="cls-7" points="334.98 87.21 333.89 88.29 332.81 87.21 333.89 86.13 334.98 87.21"/><polygon class="cls-7" points="334.98 92.3 333.89 93.38 332.81 92.3 333.89 91.21 334.98 92.3"/><polygon class="cls-7" points="334.98 97.39 333.89 98.47 332.81 97.39 333.89 96.31 334.98 97.39"/><polygon class="cls-7" points="334.98 102.47 333.89 103.56 332.81 102.47 333.89 101.39 334.98 102.47"/><polygon class="cls-7" points="334.98 107.58 333.89 108.66 332.81 107.58 333.89 106.5 334.98 107.58"/><polygon class="cls-7" points="334.98 112.7 332.81 112.7 333.89 111.62 334.98 112.7"/><polygon class="cls-7" points="329.8 87.21 328.72 88.29 327.63 87.21 328.72 86.13 329.8 87.21"/><polygon class="cls-7" points="329.8 92.3 328.72 93.38 327.63 92.3 328.72 91.21 329.8 92.3"/><polygon class="cls-7" points="329.8 97.39 328.72 98.47 327.63 97.39 328.72 96.31 329.8 97.39"/><polygon class="cls-7" points="329.8 102.47 328.72 103.56 327.63 102.47 328.72 101.39 329.8 102.47"/><polygon class="cls-7" points="329.8 107.58 328.72 108.66 327.63 107.58 328.72 106.5 329.8 107.58"/><polygon class="cls-7" points="329.8 112.7 327.63 112.7 328.72 111.62 329.8 112.7"/><polygon class="cls-7" points="362.95 82.08 364.03 83.16 365.12 82.08 364.03 81 362.95 82.08"/><polygon class="cls-7" points="362.95 87.21 364.03 88.29 365.12 87.21 364.03 86.13 362.95 87.21"/><polygon class="cls-7" points="362.95 92.3 364.03 93.38 365.12 92.3 364.03 91.21 362.95 92.3"/><polygon class="cls-7" points="362.95 97.39 364.03 98.47 365.12 97.39 364.03 96.31 362.95 97.39"/><polygon class="cls-7" points="362.95 102.47 364.03 103.56 365.12 102.47 364.03 101.39 362.95 102.47"/><polygon class="cls-7" points="362.95 107.58 364.03 108.66 365.12 107.58 364.03 106.5 362.95 107.58"/><polygon class="cls-7" points="362.95 112.7 365.12 112.7 364.03 111.62 362.95 112.7"/><polygon class="cls-7" points="368.13 76.91 369.22 78 370.3 76.91 369.22 75.83 368.13 76.91"/><polygon class="cls-7" points="368.13 82.08 369.22 83.16 370.3 82.08 369.22 81 368.13 82.08"/><polygon class="cls-7" points="368.13 87.21 369.22 88.29 370.3 87.21 369.22 86.13 368.13 87.21"/><polygon class="cls-7" points="368.13 92.3 369.22 93.38 370.3 92.3 369.22 91.21 368.13 92.3"/><polygon class="cls-7" points="368.13 97.39 369.22 98.47 370.3 97.39 369.22 96.31 368.13 97.39"/><polygon class="cls-7" points="368.13 102.47 369.22 103.56 370.3 102.47 369.22 101.39 368.13 102.47"/><polygon class="cls-7" points="368.13 107.58 369.22 108.66 370.3 107.58 369.22 106.5 368.13 107.58"/><polygon class="cls-7" points="368.13 112.7 370.3 112.7 369.22 111.62 368.13 112.7"/><polygon class="cls-7" points="373.31 82.08 374.39 83.16 375.48 82.08 374.39 81 373.31 82.08"/><polygon class="cls-7" points="373.31 87.21 374.39 88.29 375.48 87.21 374.39 86.13 373.31 87.21"/><polygon class="cls-7" points="373.31 92.3 374.39 93.38 375.48 92.3 374.39 91.21 373.31 92.3"/><polygon class="cls-7" points="373.31 97.39 374.39 98.47 375.48 97.39 374.39 96.31 373.31 97.39"/><polygon class="cls-7" points="373.31 102.47 374.39 103.56 375.48 102.47 374.39 101.39 373.31 102.47"/><polygon class="cls-7" points="373.31 107.58 374.39 108.66 375.48 107.58 374.39 106.5 373.31 107.58"/><polygon class="cls-7" points="373.31 112.7 375.48 112.7 374.39 111.62 373.31 112.7"/><polygon class="cls-7" points="394.04 92.3 395.13 93.38 396.21 92.3 395.13 91.21 394.04 92.3"/><polygon class="cls-7" points="394.04 97.39 395.13 98.47 396.21 97.39 395.13 96.31 394.04 97.39"/><polygon class="cls-7" points="394.04 102.47 395.13 103.56 396.21 102.47 395.13 101.39 394.04 102.47"/><polygon class="cls-7" points="394.04 107.58 395.13 108.66 396.21 107.58 395.13 106.5 394.04 107.58"/><polygon class="cls-7" points="394.04 112.7 396.21 112.7 395.13 111.62 394.04 112.7"/><polygon class="cls-7" points="399.22 102.47 400.3 103.56 401.38 102.47 400.3 101.39 399.22 102.47"/><polygon class="cls-7" points="399.22 107.58 400.3 108.66 401.38 107.58 400.3 106.5 399.22 107.58"/><polygon class="cls-7" points="399.22 112.7 401.38 112.7 400.3 111.62 399.22 112.7"/><polygon class="cls-7" points="378.5 82.08 379.58 83.16 380.66 82.08 379.58 81 378.5 82.08"/><polygon class="cls-7" points="378.5 87.21 379.58 88.29 380.66 87.21 379.58 86.13 378.5 87.21"/><polygon class="cls-7" points="378.5 92.3 379.58 93.38 380.66 92.3 379.58 91.21 378.5 92.3"/><polygon class="cls-7" points="378.5 97.39 379.58 98.47 380.66 97.39 379.58 96.31 378.5 97.39"/><polygon class="cls-7" points="378.5 102.47 379.58 103.56 380.66 102.47 379.58 101.39 378.5 102.47"/><polygon class="cls-7" points="378.5 107.58 379.58 108.66 380.66 107.58 379.58 106.5 378.5 107.58"/><polygon class="cls-7" points="378.5 112.7 380.66 112.7 379.58 111.62 378.5 112.7"/><polygon class="cls-7" points="383.68 87.21 384.77 88.29 385.85 87.21 384.77 86.13 383.68 87.21"/><polygon class="cls-7" points="383.68 92.3 384.77 93.38 385.85 92.3 384.77 91.21 383.68 92.3"/><polygon class="cls-7" points="383.68 97.39 384.77 98.47 385.85 97.39 384.77 96.31 383.68 97.39"/><polygon class="cls-7" points="383.68 102.47 384.77 103.56 385.85 102.47 384.77 101.39 383.68 102.47"/><polygon class="cls-7" points="383.68 107.58 384.77 108.66 385.85 107.58 384.77 106.5 383.68 107.58"/><polygon class="cls-7" points="383.68 112.7 385.85 112.7 384.77 111.62 383.68 112.7"/><polygon class="cls-7" points="388.86 87.21 389.94 88.29 391.02 87.21 389.94 86.13 388.86 87.21"/><polygon class="cls-7" points="388.86 92.3 389.94 93.38 391.02 92.3 389.94 91.21 388.86 92.3"/><polygon class="cls-7" points="388.86 97.39 389.94 98.47 391.02 97.39 389.94 96.31 388.86 97.39"/><polygon class="cls-7" points="388.86 102.47 389.94 103.56 391.02 102.47 389.94 101.39 388.86 102.47"/><polygon class="cls-7" points="388.86 107.58 389.94 108.66 391.02 107.58 389.94 106.5 388.86 107.58"/><polygon class="cls-7" points="388.86 112.7 391.02 112.7 389.94 111.62 388.86 112.7"/><path class="cls-13" d="M404.15,112.7c-2.41-9.89-7-23.36-11.2-26.16-4-2.63-17.8-7.84-17.8-7.84-.85-1-3.76-9.13-3.76-9.13L359.33,81.05c-6.16-5.47-12.08-11.48-12.08-11.48s-2.91,8.11-3.75,9.13c0,0-13.84,5.21-17.8,7.84-4.23,2.8-8.79,16.27-11.2,26.16"/><path class="cls-13" d="M343.5,78.7s1.38,4.2,5.13,13l9.08-9.38"/><path class="cls-13" d="M375.15,78.7s-1.38,4.2-5.13,13l-9.09-9.38"/><line class="cls-13" x1="359.33" y1="81" x2="359.33" y2="112.31"/><path class="cls-29" d="M373.28,232.55H344.52c-3.78-2.08-6.54-11.17-6.54-11.17s7.3-3.88,9.3-6.43a11.69,11.69,0,0,0,1.35-10.55s-.14-2.2,2.52-2.2h15.5c2.66,0,2.52,2.2,2.52,2.2A11.66,11.66,0,0,0,370.52,215c2,2.55,9.29,6.43,9.29,6.43S376.47,231.67,373.28,232.55Z"/><path class="cls-29" d="M369.82,202.05c4.06,1.42,9,1,11.67-2.84a19.91,19.91,0,0,1,4.76-5.21c5.76-4.61,2.29-11.05,2.29-11.05s-1.59-.51-2.94-3.92c-.92-2.32,0-7.9,0-7.9.27-5.51-2-12-5-15-2.77-2.82-4.93-4-9.58-4a14.15,14.15,0,0,0-5.94,1.26,9.53,9.53,0,0,0-8.15-4c-5.83.07-11.61,3.51-14.9,6.2s-7,8.69-6.75,14.2c0,0,.07,6.08-1.84,8.37a8,8,0,0,1-4.14,2.85s-4.64,7,2,11.33c2.91,1.91,3.27,2.24,4.75,6,1.11,2.81,4.93,4.95,12.94,3.37a86.84,86.84,0,0,0,9.72,2.51C361.29,204.51,369.82,202.05,369.82,202.05Z"/><path class="cls-29" d="M375.36,161.68,359,156.11,344,160.74c-7.64,12.46-4.77,22.76-4.77,22.76a1.45,1.45,0,0,0-1.91-1c-2.63,1-.84,8.38,0,10.55,1.37,3.59,3.52,2.32,3.52,2.32s2.1,9.7,4.18,12,4.14,3,7.63,3.69c0,0,3.28,2.29,6.19,2.29,2.73,0,6.23-2.29,6.23-2.29,4.09-.84,5.63-1.34,7.63-3.69,2.69-3.15,4.17-12,4.17-12s2.16,1.27,3.53-2.32c.84-2.17,2.67-9.7,0-10.55a1.34,1.34,0,0,0-1.92,1S381.08,171.4,375.36,161.68Z"/><path class="cls-30" d="M358.57,189.36s-.59,4.06-2.3,5.91a4,4,0,0,0,5.05.17"/><path class="cls-2" d="M350.35,201.09A4.94,4.94,0,0,1,352.2,199c.8-.53,1.64,0,1,.46a9.86,9.86,0,0,0-1.9,2.42C350.87,202.6,350,202,350.35,201.09Z"/><path class="cls-2" d="M367.42,201.09a4.94,4.94,0,0,0-1.85-2.05c-.81-.53-1.64,0-1,.46a10.15,10.15,0,0,1,1.91,2.42C366.9,202.6,367.82,202,367.42,201.09Z"/><path class="cls-2" d="M354,179.24a8.46,8.46,0,0,0-8.3-.25c-1.53,1-.36,1.16.53,1a9.91,9.91,0,0,1,7.16.87C354.2,181.22,355,179.75,354,179.24Z"/><path class="cls-2" d="M362.51,202.29a9.12,9.12,0,0,1-7.21,0c-2.31-.81-2-2.07,0-1.37a10.07,10.07,0,0,0,7.21,0C364.44,200.28,364.79,201.47,362.51,202.29Z"/><path class="cls-2" d="M337.09,177.53c.77,4.43,1.54,11.83,3,13.22l.82-14.12Z"/><path class="cls-2" d="M360.94,206.19a13.29,13.29,0,0,1-4.08,0c-1.38-.19-1.2-1.38,0-1.25a23.16,23.16,0,0,0,4.08,0C362.08,204.81,362.29,206,360.94,206.19Z"/><path class="cls-2" d="M352.29,185.43a1.4,1.4,0,1,1-1.36-1.71A1.56,1.56,0,0,1,352.29,185.43Z"/><path class="cls-2" d="M365.48,185.43a1.39,1.39,0,1,0,2.71,0,1.39,1.39,0,1,0-2.71,0Z"/><path class="cls-2" d="M348.73,192.84a9.21,9.21,0,0,1-4.66-1.16c-2.29-1.51-3.11-4.43-3.11-6.65,0-3,2.74-4.52,4.59-4.78a20.83,20.83,0,0,1,7.8.28,4.64,4.64,0,0,1,3.53,4.83v.08c-.31,4.23-2.38,5.92-4.06,6.6A10.84,10.84,0,0,1,348.73,192.84Zm-.15-12a15.78,15.78,0,0,0-2.89.22h0c-1.51.21-3.91,1.47-3.91,4,0,1.92.72,4.64,2.76,6a9.43,9.43,0,0,0,8,.28c1.47-.59,3.28-2.09,3.55-5.91v-.08s.12-3.34-2.89-4A22.38,22.38,0,0,0,348.58,180.83Zm-3-.18h0Z"/><path class="cls-2" d="M342.51,182.21H337.7a.54.54,0,0,0,0,1.08c1.42.12,3.87.43,3.87.43Z"/><path class="cls-2" d="M355.83,182.71a13.91,13.91,0,0,1,6.18,0l-.36,1.41a13.06,13.06,0,0,0-5.39,0Z"/><path class="cls-2" d="M363.78,179.24a8.46,8.46,0,0,1,8.3-.25c1.53,1,.36,1.16-.54,1a9.91,9.91,0,0,0-7.16.87C363.6,181.22,362.84,179.75,363.78,179.24Z"/><path class="cls-2" d="M380.71,177.53c-.77,4.43-1.54,11.83-3,13.22l-.82-14.12Z"/><path class="cls-2" d="M369.07,192.84A10.84,10.84,0,0,1,365,192c-1.69-.68-3.76-2.37-4.06-6.6v-.08a4.76,4.76,0,0,1,3.51-4.83,17,17,0,0,1,7.83-.27c1.85.26,4.58,1.74,4.58,4.77,0,2.22-.82,5.14-3.12,6.65A9.16,9.16,0,0,1,369.07,192.84Zm0-12.09a18,18,0,0,0-4.44.56,3.92,3.92,0,0,0-2.9,4v.08c.28,3.82,2.09,5.32,3.56,5.91a9.44,9.44,0,0,0,8-.28c2-1.34,2.76-4.06,2.76-6,0-2.51-2.4-3.77-3.91-4h-.05A14,14,0,0,0,369.07,180.75Z"/><path class="cls-2" d="M375.29,182.21h4.81a.54.54,0,0,1,0,1.08c-1.42.12-3.87.43-3.87.43Z"/><path class="cls-7" d="M385.6,189.36a12.45,12.45,0,0,1-8-7.15c-2.19-5.68-2.34-6.9-5.09-8.06,0,0-3.78-1.9-5.27-3.91a18.71,18.71,0,0,1-2.28-5.85,4.43,4.43,0,0,0-3.39.25l-2.3-2.25c.71,1,0,3,0,3a6.2,6.2,0,0,0-3.41-.73s-.59,5-2.48,7.89c-1.65,2.59-7.19,3.64-7.19,3.64-3.12,1.06-5,2.42-6.05,6-1.68,5.85-8,7.15-8,7.15s3.88-9,4.11-12.55c.75-11.92,3.81-17.45,8.21-20.17,3-1.84,7.77-4.43,13.4-3.62a18.1,18.1,0,0,1,6.9,3.09s9.18-2.29,13.12,1.44,6.29,9.56,5.18,22.25C382.93,182,385.6,189.36,385.6,189.36Z"/><path class="cls-30" d="M332.2,189.36a12.45,12.45,0,0,0,8-7.15c2.19-5.68,5.62-5.77,8.75-6.83a6.74,6.74,0,0,0,4.49-2.82c1.35-2.1,2.48-7.89,2.48-7.89a6.2,6.2,0,0,1,3.41.73,9.6,9.6,0,0,0,0-3l2.3,2.25a4.43,4.43,0,0,1,3.39-.25,18.71,18.71,0,0,0,2.28,5.85c1.49,2,5.27,3.91,5.27,3.91,2.75,1.16,2.9,2.38,5.09,8.06a12.45,12.45,0,0,0,8,7.15"/><path class="cls-30" d="M365.93,158.47a9,9,0,0,1,6.89-1,11.63,11.63,0,0,1,6.62,5.83"/><path class="cls-30" d="M359.3,162.39s-3.41-2.54-7-1.23"/><path class="cls-30" d="M359.67,158.91s-3.4-3.55-9.42-1"/><path class="cls-30" d="M368.08,161.7a7.53,7.53,0,0,1,5.65,1,14.24,14.24,0,0,1,5.71,7.81"/><path class="cls-30" d="M369.17,165.75a12.9,12.9,0,0,0,5.44,5.36"/><path class="cls-30" d="M379.44,179s2.05,5.74,6.16,7.38"/><path class="cls-30" d="M332.2,185.85s4.88-2.2,5.78-7.23"/><path class="cls-30" d="M342.47,173.67s7.24-1.55,8.46-6.58"/><path class="cls-30" d="M341.76,170.38a11.11,11.11,0,0,0,6.87-6"/><path class="cls-31" d="M402.85,248.63c-2.44-10-4-17.16-9.37-21.22-3.83-2.91-13-6.1-15.3-8.45,0,0-1.8,6.18-5.13,9.39H344.78c-3.32-3.21-5.13-9.39-5.13-9.39-2.35,2.35-11.47,5.54-15.3,8.45-5.36,4.06-6.93,11.18-9.37,21.22Z"/><path class="cls-30" d="M315,248.63c2.44-10,4-17.16,9.37-21.22,3.83-2.91,12.95-6.1,15.3-8.45,0,0,1.81,6.18,5.13,9.39h28.27c3.33-3.21,5.13-9.39,5.13-9.39,2.35,2.35,11.47,5.54,15.3,8.45,5.36,4.06,6.93,11.18,9.37,21.22"/><rect class="cls-2" x="340.12" y="230.52" width="2.18" height="2.17" transform="translate(66.54 -75.99) rotate(14.07)"/><rect class="cls-2" x="338.57" y="227.87" width="2.18" height="2.17" transform="translate(65.86 -75.71) rotate(14.07)"/><rect class="cls-2" x="336.99" y="225.27" width="2.18" height="2.17" transform="translate(65.18 -75.41) rotate(14.07)"/><polygon class="cls-2" points="337.26 225.03 335.15 224.5 335.68 222.4 337.79 222.93 337.26 225.03"/><polygon class="cls-2" points="360.47 233.13 358.93 234.66 357.39 233.13 358.93 231.59 360.47 233.13"/><polygon class="cls-2" points="357.39 233.13 355.86 234.66 354.32 233.13 355.86 231.59 357.39 233.13"/><polygon class="cls-2" points="354.32 233.13 352.78 234.66 351.24 233.13 352.78 231.59 354.32 233.13"/><polygon class="cls-2" points="351.25 233.13 349.71 234.66 348.17 233.13 349.71 231.59 351.25 233.13"/><polygon class="cls-2" points="348.19 233.13 346.65 234.66 345.11 233.13 346.65 231.59 348.19 233.13"/><polygon class="cls-2" points="345.27 233.11 343.73 234.65 342.19 233.11 343.73 231.57 345.27 233.11"/><rect class="cls-2" x="375.55" y="230.52" width="2.18" height="2.17" transform="translate(798.28 364.72) rotate(165.93)"/><rect class="cls-2" x="377.1" y="227.87" width="2.18" height="2.17" transform="translate(800.69 359.09) rotate(165.93)"/><rect class="cls-2" x="378.67" y="225.27" width="2.18" height="2.17" transform="translate(803.16 353.58) rotate(165.93)"/><polygon class="cls-2" points="380.58 225.03 382.69 224.5 382.16 222.4 380.05 222.93 380.58 225.03"/><polygon class="cls-2" points="360.45 233.13 361.99 234.66 363.53 233.13 361.99 231.59 360.45 233.13"/><polygon class="cls-2" points="363.52 233.13 365.06 234.66 366.6 233.13 365.06 231.59 363.52 233.13"/><polygon class="cls-2" points="366.6 233.13 368.14 234.66 369.68 233.13 368.14 231.59 366.6 233.13"/><polygon class="cls-2" points="369.66 233.13 371.2 234.66 372.74 233.13 371.2 231.59 369.66 233.13"/><polygon class="cls-2" points="372.58 233.11 374.12 234.65 375.66 233.11 374.12 231.57 372.58 233.11"/><path class="cls-32" d="M764.24,249.27c-1.32-6.64-2.17-13.49-6-16.65a25.86,25.86,0,0,0-5.45-3.34l-16.94,15.5-16.91-15.5a25.61,25.61,0,0,0-5.45,3.34c-3.86,3.16-4.71,10-6,16.65Z"/><path class="cls-33" d="M707.43,249.27c1.32-6.64,2.17-13.49,6-16.65a25.61,25.61,0,0,1,5.45-3.34l16.91,15.5,16.94-15.5a25.86,25.86,0,0,1,5.45,3.34c3.86,3.16,4.71,10,6,16.65"/><path class="cls-2" d="M717.22,184.47s-4.39-1.35-6.6,2.59c-2.36,4.2-5,18.48-2.82,23.74a57.17,57.17,0,0,0,2.73,6.06c1.46,2.68-.2,5.59-.2,5.59a4.88,4.88,0,0,0,3.41-3.74,8.87,8.87,0,0,1,.58,2s3.34-2.15,2.37-10.2-1.19-14.17-1.19-14.17Z"/><path class="cls-2" d="M754.48,184.47s4.39-1.35,6.6,2.59c2.36,4.2,4.51,18.9,2.94,24.36-.74,2.61-1.88,4-2.76,5.92-1,2.17.1,5.11.1,5.11a5.44,5.44,0,0,1-3.35-5,7.14,7.14,0,0,0,0,3.59s-4.28-2.56-3.31-10.61,1.5-14,1.5-14Z"/><path class="cls-2" d="M735.87,172.83c-3,0-14.13,0-19,11-3.16,7.12-3.94,14.59,1.19,25.22l1.69-10.72h34l.38,9.72s7-12.42.35-25C749.51,173.65,738.81,172.83,735.87,172.83Z"/><path class="cls-34" d="M731.28,214.34h9.11c1.93,0,1.62,2.2,1.62,2.2-.31.27-.4,6.29,1.09,7.36a75,75,0,0,0,9.4,6.5c4.1,2.42-10.28,9.35-10.28,9.35l-6.4,5-4-5s-12.37-10.38-10.28-11.54c5.3-2.93,7.42-4.31,7.42-4.31,1.49-1.07,1.4-7.09,1.09-7.36C730.06,216.54,730.14,214.34,731.28,214.34Z"/><path class="cls-34" d="M753.6,203s.53-1.43,1.41-1.43c2.48,0,.74,7,0,9-1.23,3.19-3.14,2.06-3.14,2.06a13.12,13.12,0,0,1-3.59,4.11,28,28,0,0,1-9.44,4.75,10,10,0,0,1-6,0c-3.16-1-7-2.52-9.44-4.75a18.34,18.34,0,0,1-3.59-4.11s-1.91,1.13-3.13-2.06c-.74-1.93-2.36-8.19,0-9,2-.66,2.33.89,2.33.89s1.71-12.45,4.71-16.39,12.63-5.1,12.63-5.1,10.13,2.15,12.76,5.46S753.6,203,753.6,203Z"/><path class="cls-2" d="M729.71,206.82a1.13,1.13,0,0,1-1.84,0,1.61,1.61,0,0,1,0-2,1.17,1.17,0,0,1,1.84,0A1.62,1.62,0,0,1,729.71,206.82Z"/><path class="cls-2" d="M737,210a2.09,2.09,0,0,1-2.45,0c-.73-.57-.72-1.52,0-1.34a6,6,0,0,0,2.45,0C737.72,208.5,738,209.32,737,210Z"/><path class="cls-2" d="M739.47,214.87a11.22,11.22,0,0,1-7.13,0c-1.49-.53-1-1.6.31-1.22a11.16,11.16,0,0,0,6.4,0C740.48,213.2,740.76,214.34,739.47,214.87Z"/><path class="cls-2" d="M742,206.82a1.13,1.13,0,0,0,1.84,0,1.61,1.61,0,0,0,0-2,1.17,1.17,0,0,0-1.84,0A1.62,1.62,0,0,0,742,206.82Z"/><path class="cls-2" d="M741.34,199.35a6,6,0,0,1,4.15.06c.93.23.81,1.38,0,1.22a7.15,7.15,0,0,0-3.9-.09C740.6,200.87,740.43,199.64,741.34,199.35Z"/><path class="cls-33" d="M754.13,199c-3.76-4.42-4.48-11.21-4.48-11.21"/><path class="cls-2" d="M729.92,199.35a6.08,6.08,0,0,0-4.16.06c-.92.23-.8,1.38,0,1.22a7.19,7.19,0,0,1,3.91-.09C730.66,200.87,730.83,199.64,729.92,199.35Z"/><path class="cls-2" d="M720.23,200.41s5.26.47,11.6.82l1.6-7.82v7.82s1.56.11,4.86,0v-8.38l1.57,8.38s8.18-.31,12.43-.82a52,52,0,0,1-.4,9.47A17.58,17.58,0,0,0,755.81,199c.29-7-2.84-21.93-19.77-21.93s-18.9,16-19.16,20.24a20.93,20.93,0,0,0,3,12.45S719.77,202.59,720.23,200.41Z"/><path class="cls-35" d="M740.47,245.65a9.09,9.09,0,0,1,.78,3.62"/><path class="cls-2" d="M726.39,225.12l-13,5.92S716.84,239,737,246c0,0-6.87-10.73-8.19-13.32A40.86,40.86,0,0,1,726.39,225.12Z"/><path class="cls-7" d="M735.65,244.72c-5-1.93-10.47-4.39-13.09-6.2a34.83,34.83,0,0,1-8.19-7.21l1-.45c2.11,2.61,3.74,4.12,7.94,6.93a80.39,80.39,0,0,0,11.48,5.62Z"/><path class="cls-33" d="M726.39,225.12l-13,5.92S716.84,239,737,246c0,0-6.87-10.73-8.19-13.32A40.86,40.86,0,0,1,726.39,225.12Z"/><path class="cls-2" d="M745.3,225.12l13,5.92s-2.15,7.3-21.6,14.27l-.87-1.1s5.77-8.91,7.08-11.5A40.86,40.86,0,0,0,745.3,225.12Z"/><path class="cls-7" d="M736,244.72c5-1.93,10.48-4.39,13.09-6.2a34.62,34.62,0,0,0,8.19-7.21l-1-.45c-2.11,2.61-3.73,4.12-7.94,6.93a80.39,80.39,0,0,1-11.48,5.62Z"/><path class="cls-33" d="M736.69,245.31c18.39-6.85,21.6-14.27,21.6-14.27l-13-5.92a40.86,40.86,0,0,1-2.4,7.59c-.95,1.87-4.79,8-6.86,11.23Z"/><path class="cls-34" d="M728.27,222.91a55.44,55.44,0,0,0,7.61,6.14l-5.82,5.22a26.1,26.1,0,0,1-3.93-8.65Z"/><path class="cls-34" d="M743.42,222.91a55,55,0,0,1-7.6,6.14l5.82,5.22a26.1,26.1,0,0,0,3.93-8.65Z"/><path class="cls-36" d="M734.46,231.94a30.77,30.77,0,0,1,.3,4.61c-.11,1.51-2.56,5.59-2.56,5.59l-7-4.62s2.14-3.21,4-4.18A14.69,14.69,0,0,1,734.46,231.94Z"/><path class="cls-36" d="M737,232.68a34.27,34.27,0,0,0-.06,3.87,38,38,0,0,0,1.73,5.83l7.15-4.87a25.7,25.7,0,0,0-4.88-4.08C738.43,232.17,737,232.68,737,232.68Z"/><path class="cls-36" d="M735.33,230.07s-4.13-2.18-8.31-1l1.08,6.82a21.82,21.82,0,0,0,7.23-4.21Z"/><path class="cls-36" d="M736.18,230.07s4.26-2.17,8.44-.26l-1.94,6.32s-4.34-1.06-6.5-4.47Z"/><rect class="cls-36" x="734.46" y="230.05" width="2.72" height="3.12"/></g></g></svg>