<?xml version="1.0" encoding="UTF-8"?><svg id="_レイヤー_2" xmlns="http://www.w3.org/2000/svg" viewBox="0 0 274.5 66.5"><defs><style>.cls-1{stroke:#101010;}.cls-1,.cls-2{fill:none;stroke-linecap:round;stroke-linejoin:round;stroke-width:1.001px;}.cls-2{stroke:#000;}</style></defs><g id="_レイヤー_1-2"><path d="M41.109,7.671c2.147,4.162,5.217,7.245,9.71,9.701-.949,1.027-1.173,1.328-1.922,2.657-2.246-1.58-3.594-2.707-4.818-3.986-1.672-1.754-2.795-3.358-4.044-5.69.125,1.127.175,2.055.175,2.833v7.019c0,1.203.051,2.206.176,3.108h-3.246c.125-.952.176-1.905.176-3.133v-6.969c0-.627.05-1.754.125-2.733-1.873,3.861-4.544,6.869-8.562,9.651-.599-1.128-1.098-1.83-1.847-2.556,4.143-2.406,7.613-6.067,9.385-9.902h-5.466c-1.124,0-2.047.05-2.995.175v-2.958c.948.125,1.797.175,2.995.175h6.366v-2.357c0-.977-.051-1.629-.176-2.331h3.246c-.125.702-.176,1.354-.176,2.307v2.381h6.715c1.273,0,2.196-.05,3.02-.175v2.958c-.924-.125-1.947-.175-3.02-.175h-5.816Z"/><path d="M55.193,3.359c0-1.304-.05-2.106-.15-2.882h2.871c-.125.802-.15,1.503-.15,2.907v3.209h.549c.924,0,1.273-.024,1.673-.1v2.632c-.525-.074-.973-.1-1.748-.1h-.474v6.819c.973-.452,1.248-.577,2.371-1.154l.075,2.657c-2.271,1.228-3.619,1.831-6.165,2.783-.699.276-.924.376-1.298.551l-.525-2.882c.749-.1,1.473-.326,2.971-.903v-7.871h-.574c-.948,0-1.348.025-1.947.125v-2.682c.549.1.973.124,1.947.124h.574v-3.233ZM64.154,19.327c0,.501.175.677.724.777.65.125,1.573.176,3.395.176,2.971,0,3.769-.125,4.144-.652.299-.426.449-1.278.449-2.982.799.351,1.873.677,2.721.827-.299,5.014-.824,5.364-7.938,5.364-5.042,0-6.14-.476-6.14-2.682v-8.624c-.224.075-.399.125-.499.151-.749.251-1.023.351-1.522.577l-.624-2.733c.699-.1,1.573-.276,2.422-.551l.224-.075v-3.434c0-1.204-.024-1.831-.149-2.657h2.945c-.1.802-.15,1.529-.15,2.556v2.733l2.422-.777V2.958c0-1.153-.025-1.679-.125-2.506h2.896c-.1.828-.15,1.63-.15,2.557v3.509l3.595-1.128c.973-.301,1.372-.452,2.046-.752-.05,1.103-.075,1.278-.125,2.632-.125,3.535-.299,5.816-.549,6.894-.325,1.429-.999,1.855-2.821,1.855-.325,0-.549,0-1.173-.05-.125-1.078-.299-1.805-.674-2.583.574.125,1.023.201,1.398.201.624,0,.774-.1.874-.627.125-.827.225-2.381.299-4.813l-2.87.903v6.241c0,1.028.05,1.73.15,2.507h-2.896c.099-.852.125-1.404.125-2.582v-5.314l-2.422.777v8.648Z"/><path d="M80.31,13.386c0-1.253,0-1.503.051-2.807-.799,1.278-1.149,1.754-2.222,2.958-.325-1.128-.375-1.278-1.148-3.033,1.547-1.579,2.821-3.459,3.919-5.74.898-1.88,1.447-3.459,1.622-4.738l2.846.827q-.2.527-.773,2.106c-.4,1.128-.6,1.58-1.523,3.535v13.913c0,1.077.025,1.905.125,2.907h-3.045c.099-1.002.149-1.754.149-2.932v-6.994ZM90.419,3.209c0-1.178-.05-1.955-.15-2.682h3.121c-.125.777-.15,1.453-.15,2.707v4.462h4.293c1.173,0,2.022-.051,2.846-.176v3.033c-.949-.125-1.947-.175-2.821-.175h-4.319v9.375h3.669c1.124,0,1.972-.05,2.821-.175v2.908c-.799-.125-1.772-.175-2.845-.175h-9.486c-1.073,0-2.072.05-2.821.175v-2.908c.799.125,1.697.175,2.796.175h3.045v-9.375h-3.494c-.874,0-1.897.05-2.846.175v-3.033c.824.125,1.722.176,2.921.176h3.419V3.209Z"/><path d="M114.663,19.653h7.189c1.322,0,2.446-.05,3.37-.151v3.009c-1.048-.125-2.072-.176-3.32-.176h-15.85c-1.173,0-2.321.051-3.445.176v-3.009c.973.101,2.022.151,3.445.151h5.691V3.459c0-1.103-.05-1.855-.175-2.882h3.27c-.125.928-.175,1.755-.175,2.882v4.287h5.865c1.098,0,1.997-.05,2.896-.151v2.983c-.898-.101-1.847-.151-2.896-.151h-5.865v9.225Z"/><path d="M135.637,13.612c-1.647,3.033-2.796,6.266-2.846,8.072l-2.896.15c-.024-.351-.05-.476-.175-.952-.624-2.833-.898-5.314-.898-8.172,0-2.807.149-4.286.924-9.501.149-1.027.175-1.304.175-1.83l3.295.326c-.299.977-.45,1.579-.724,3.058-.4,2.131-.499,2.833-.65,4.938-.124,1.654-.175,2.381-.175,2.858,0,.075,0,.351.025.752,0,.301,0,.727.025,1.929v.452c.024.402.05.551.05.977.424-1.379,1.048-3.008,1.647-4.136l2.222,1.078ZM135.012,6.393c1.098.251,2.421.351,4.443.351.948,0,1.348-.025,2.646-.125-.15-4.411-.176-4.638-.325-5.515l3.17-.05c-.05.402-.05.551-.05.852,0,.226,0,.477.05,1.604,0,.251.05,1.204.1,2.834,1.772-.276,2.87-.577,3.719-.953l.175,2.958c-.424.05-.573.075-1.398.276-1.124.25-1.348.275-2.422.401.025.551.025.752.025,1.204,0,2.682-.175,4.762-.525,5.99-.549,2.106-1.447,3.61-2.845,4.864-.774.701-1.448,1.178-2.721,1.905-.874-1.103-1.273-1.504-2.422-2.331,1.698-.778,2.871-1.63,3.819-2.758,1.298-1.554,1.748-3.334,1.748-7.019,0-.526,0-.777-.025-1.579-.848.05-2.147.1-3.394.1-.699,0-1.623-.025-2.271-.05-.725-.05-.824-.05-1.124-.05h-.375v-2.908ZM146.894.878c.748,1.204,1.148,2.03,1.598,3.485l-1.823.701c-.424-1.328-.948-2.431-1.622-3.534l1.847-.652ZM149.365,4.061c-.424-1.228-.924-2.331-1.572-3.434l1.772-.627c.724,1.154,1.199,2.106,1.598,3.31l-1.797.751Z"/><path d="M163.125,15.467c-1.423,3.233-3.02,4.712-5.068,4.712-2.846,0-4.892-2.908-4.892-6.943,0-2.758.973-5.34,2.745-7.295,2.097-2.307,5.042-3.509,8.586-3.509,5.991,0,9.885,3.66,9.885,9.3,0,4.337-2.246,7.796-6.065,9.351-1.198.501-2.171.751-3.919,1.053-.424-1.329-.724-1.881-1.522-2.933,2.296-.301,3.794-.702,4.967-1.379,2.172-1.203,3.469-3.584,3.469-6.266,0-2.406-1.073-4.361-3.07-5.565-.773-.451-1.422-.651-2.521-.752-.474,3.936-1.348,7.396-2.595,10.228ZM159.455,6.493c-2.096,1.504-3.394,4.086-3.394,6.768,0,2.056.873,3.686,1.972,3.686.823,0,1.672-1.053,2.571-3.209.948-2.257,1.772-5.641,2.072-8.473-1.298.151-2.196.501-3.22,1.228Z"/><path d="M190.263,12.86v6.567c0,.501.1.728.35.828.349.151,1.073.201,2.222.201,3.494,0,4.093-.05,4.442-.352.35-.25.45-.902.499-2.732,1.124.476,1.423.576,2.496.777-.199,2.331-.549,3.435-1.297,4.036-.725.601-1.623.727-5.642.727-4.442,0-5.466-.452-5.466-2.406v-6.969c-.324.1-.573.201-.823.326l-.624-2.557.274-.05c.574-.1.65-.125,1.173-.276v-1.228c0-.376,0-.601-.024-.977-.225.301-.325.426-.624.802-.674-.928-1.098-1.354-1.897-1.955.573-.627.749-.828,1.124-1.329-.574-.05-.874-.05-1.748-.05h-2.671q-.024,2.331-.05,2.707h2.347c.848,0,1.348-.024,1.897-.1-.024.201-.05,1.128-.05,1.278v1.128c0,1.579-.099,4.838-.2,6.292-.2,2.733-.474,4.061-1.023,4.713-.375.451-1.074.651-2.222.651q-.175,0-.898-.025-.275-.024-.674-.024c-.075-1.178-.176-1.755-.499-2.657.149.05.274.05.349.075.624.1.999.15,1.373.15.698,0,.823-.201,1.048-1.604.25-1.604.399-4.361.424-7.47h-1.972c-.25,3.033-.45,4.562-.848,6.192-.574,2.381-1.298,4.086-2.471,5.765-.65-1.027-1.148-1.629-1.897-2.281,1.398-2.08,2.022-3.91,2.421-7.094.375-2.833.4-3.584.45-7.695h-.274c-.874,0-1.573.05-2.047.125v-2.707c.724.125,1.198.151,2.296.151h1.423v-1.304c0-.903-.05-1.554-.149-2.207h2.945c-.1.702-.125,1.154-.125,2.207v1.304h1.073c1.074,0,1.623-.025,2.271-.125v1.929c1.149-1.73,2.197-4.111,2.447-5.49l2.821.551c-.125.175-.25.477-.424.953-.075.175-.25.577-.65,1.504h6.366c1.098,0,1.921-.051,2.571-.151v2.707c-.6-.05-1.647-.1-2.546-.1h-7.588c-.475.802-.824,1.378-1.399,2.231h1.847c-.099.651-.125.928-.125,1.955v.551l1.972-.527v-1.354c0-.902-.05-1.654-.099-2.08h2.571c-.099.476-.15,1.078-.15,1.955v.853l2.521-.702c.125-.025.425-.125.874-.276.225-.074.424-.15.599-.2.45-.101.475-.125.774-.251-.125,6.091-.25,7.62-.65,8.523-.349.751-.873.977-2.271.977q-.175,0-.973-.025c-.099-.952-.25-1.529-.573-2.357.474.101.848.151,1.198.151.525,0,.599-.151.699-1.204.075-.877.099-1.754.099-2.833l-2.297.652v4.462c0,1.127.025,1.503.1,2.08h-2.521c.075-.652.099-1.003.099-2.08v-3.811l-1.972.577Z"/><path d="M207.044,5.139c-1.373,0-2.247.05-3.22.151v-2.958c.874.1,1.722.15,3.245.15h13.43c1.473,0,2.271-.05,3.219-.15v2.958c-1.023-.101-1.847-.151-3.195-.151h-5.491v13.411h6.689c1.447,0,2.396-.051,3.394-.175v3.032c-.923-.125-2.046-.175-3.394-.175h-15.925c-1.298,0-2.347.05-3.395.175v-3.032c1.024.124,1.922.175,3.445.175h6.241V5.139h-5.042Z"/><path d="M237.128,12.835h-5.915c-.899,0-1.623.025-2.297.101v-2.181c.599.075,1.248.1,2.347.1h5.865v-.952h-5.292c-.898,0-1.522.024-2.096.075.05-.527.074-1.053.074-1.68v-1.654c0-.702-.024-1.154-.074-1.755.649.05,1.172.075,2.121.075h5.267v-.953h-6.839c-1.223,0-2.047.05-2.921.151V1.68c.774.1,1.623.151,3.07.151h6.689c-.024-.878-.05-1.154-.149-1.705h3.02c-.125.551-.15.802-.176,1.705h7.014c1.448,0,2.271-.051,3.07-.151v2.482c-.848-.101-1.722-.151-2.92-.151h-7.164v.953h5.642c.948,0,1.497-.025,2.097-.075-.051.551-.075.977-.075,1.755v1.654c0,.752.024,1.128.075,1.68-.55-.051-1.199-.075-1.997-.075h-5.741v.952h5.591c1.473,0,1.972-.024,2.671-.074-.075.626-.075.977-.075,2.281v.877c1.074,0,1.673-.05,2.172-.125v2.382c-.599-.075-1.074-.125-2.172-.125v1.453c0,1.304.025,1.98.125,2.707h-2.795v-.977h-5.517v1.405c0,2.256-.623,2.732-3.669,2.732-.599,0-1.598-.05-2.396-.1-.149-1.003-.299-1.504-.773-2.482,1.348.151,2.271.225,3.17.225.774,0,.973-.124.973-.576v-1.204h-5.865c-1.124,0-1.722.025-2.471.125v-2.331c.674.075,1.098.1,2.371.1h5.966v-1.077h-7.163c-1.423,0-2.097.025-2.745.125v-2.382c.649.101,1.273.125,2.696.125h7.213v-1.103ZM232.46,6.919v1.028h4.668v-1.028h-4.668ZM239.823,7.947h5.018v-1.028h-5.018v1.028ZM245.34,13.937v-1.103h-5.517v1.103h5.517ZM239.823,17.146h5.517v-1.077h-5.517v1.077Z"/><path d="M256.604,20.179c0,1.329.024,2.056.125,3.009h-2.771c.099-.928.149-1.705.149-3.009v-6.692c0-1.204,0-1.855.051-2.983-.699,1.278-.949,1.654-1.648,2.532-.299-1.254-.674-2.206-1.098-2.932,2.147-2.432,3.894-6.317,4.518-9.978l2.571.953c-.125.301-.325,1.003-.4,1.278-.349,1.304-.748,2.406-1.497,4.086v13.737ZM266.713,7.546c-.05.326-.05.452-.125,1.003-.773,6.742-2.945,10.979-7.588,14.789-.65-.902-1.074-1.379-1.897-2.106,2.371-1.704,3.893-3.434,5.142-5.816-.674-.827-.973-1.127-2.446-2.506-.499.802-.848,1.304-1.573,2.206-.474-1.002-.873-1.704-1.473-2.456,2.047-2.381,3.171-5.088,3.67-8.748-.899,0-1.199.025-1.773.1V1.379c.674.1,1.248.125,2.347.125h3.619c1.173,0,1.797-.025,2.446-.125v2.632c-.549-.074-1.073-.1-1.947-.1h-2.271c-.175,1.404-.25,1.704-.45,2.607h1.598c.899,0,1.399-.025,1.847-.101l.874,1.128ZM261.72,8.874c-.274.728-.449,1.154-.748,1.831,1.473,1.354,1.598,1.479,2.321,2.281.499-1.429.674-2.281.898-4.112h-2.471ZM274.376,20.406c0,2.106-.724,2.582-3.893,2.582-.65,0-1.173,0-2.222-.05-.125-1.078-.275-1.63-.674-2.583,1.023.101,2.271.201,2.896.201,1.273,0,1.423-.075,1.423-.651V3.184c0-1.154-.051-1.755-.15-2.582h2.745c-.099.677-.125,1.378-.125,2.582v17.221ZM267.587,17.197c.075-.627.125-1.204.125-2.131V4.186c0-.902-.025-1.404-.099-2.13h2.67c-.075.601-.099,1.128-.099,2.13v10.855c0,1.027.024,1.579.099,2.156h-2.696Z"/><path class="cls-1" d="M3.116,17.618c3.487,3.502,9.141,3.502,12.628,0,3.487-3.502,3.487-9.18,0-12.682-3.487-3.502-9.141-3.502-12.628,0C-.371,8.439-.371,14.116,3.116,17.618Z"/><line class="cls-1" x1="15.744" y1="17.618" x2="17.385" y2="19.267"/><path class="cls-1" d="M19.363,24.311l-2.337-2.347c-.64-.643-.64-1.695,0-2.337l.717-.72c.64-.643,1.687-.643,2.327,0l2.337,2.347"/><ellipse class="cls-1" cx="9.43" cy="11.278" rx="6.496" ry="6.523"/><path class="cls-1" d="M9.199,7.13c.162-.009.322-.008.481.003"/><path class="cls-1" d="M11.343,7.607c.804.438,1.435,1.156,1.764,2.023"/><polyline class="cls-2" points="242.893 31.341 142.419 66 41.946 31.341"/></g></svg>