<?xml version="1.0" encoding="UTF-8"?><svg id="_レイヤー_2" xmlns="http://www.w3.org/2000/svg" viewBox="0 0 147 67.449"><defs><style>.cls-1{stroke-width:1.991px;}.cls-1,.cls-2{fill:none;stroke:#000;stroke-linecap:round;stroke-linejoin:round;}.cls-2{stroke-width:.908px;}</style></defs><g id="_レイヤー_1-2"><path d="M8.445,28.992c1.288,2.472,3.129,4.305,5.824,5.763-.569.611-.703.789-1.153,1.578-1.348-.938-2.156-1.608-2.89-2.368-1.003-1.041-1.677-1.995-2.425-3.38.075.67.105,1.222.105,1.683v4.169c0,.716.03,1.311.105,1.847h-1.946c.075-.566.105-1.131.105-1.862v-4.14c0-.372.03-1.042.075-1.623-1.123,2.293-2.725,4.08-5.136,5.733-.36-.67-.659-1.087-1.108-1.518,2.485-1.43,4.567-3.605,5.63-5.883h-3.279c-.674,0-1.228.03-1.797.105v-1.757c.569.074,1.078.104,1.797.104h3.819v-1.399c0-.582-.03-.969-.105-1.386h1.946c-.075.417-.105.804-.105,1.37v1.415h4.028c.764,0,1.318-.03,1.812-.104v1.757c-.554-.075-1.168-.105-1.812-.105h-3.489Z"/><path d="M16.891,26.43c0-.774-.03-1.251-.09-1.712h1.722c-.075.477-.09.894-.09,1.728v1.906h.329c.554,0,.764-.016,1.004-.06v1.565c-.315-.045-.584-.06-1.048-.06h-.284v4.051c.584-.269.749-.343,1.422-.685l.045,1.578c-1.362.73-2.171,1.087-3.699,1.653-.419.164-.554.223-.778.328l-.314-1.712c.449-.06.883-.194,1.782-.536v-4.676h-.345c-.569,0-.809.016-1.168.074v-1.593c.33.059.584.075,1.168.075h.345v-1.922ZM22.266,35.916c0,.299.105.403.434.462.389.075.944.104,2.037.104,1.782,0,2.261-.074,2.485-.387.18-.253.27-.759.27-1.772.479.208,1.123.402,1.632.492-.18,2.979-.494,3.187-4.762,3.187-3.025,0-3.684-.283-3.684-1.593v-5.123c-.135.045-.239.074-.299.089-.449.149-.614.208-.913.343l-.374-1.624c.419-.059.943-.164,1.453-.328l.135-.045v-2.04c0-.715-.015-1.087-.09-1.578h1.767c-.06.476-.09.908-.09,1.519v1.623l1.452-.462v-2.592c0-.685-.015-.998-.075-1.489h1.737c-.06.492-.09.969-.09,1.519v2.085l2.156-.67c.584-.179.824-.269,1.228-.447-.03.655-.045.76-.075,1.564-.075,2.099-.18,3.455-.33,4.095-.195.849-.599,1.102-1.692,1.102-.195,0-.33,0-.704-.03-.075-.64-.18-1.072-.405-1.534.345.075.614.12.839.12.374,0,.464-.06.524-.372.075-.493.135-1.416.179-2.86l-1.722.537v3.708c0,.611.03,1.028.09,1.489h-1.737c.06-.506.075-.834.075-1.534v-3.157l-1.452.462v5.137Z"/><path d="M31.954,32.387c0-.745,0-.893.03-1.668-.479.76-.689,1.043-1.333,1.757-.194-.669-.224-.758-.689-1.801.929-.939,1.692-2.055,2.351-3.41.539-1.117.869-2.055.973-2.815l1.707.492q-.12.313-.465,1.251c-.239.67-.359.938-.913,2.099v8.266c0,.641.015,1.131.075,1.728h-1.826c.059-.596.09-1.042.09-1.742v-4.156ZM38.018,26.341c0-.7-.03-1.162-.09-1.593h1.871c-.075.462-.09.864-.09,1.609v2.651h2.576c.704,0,1.213-.03,1.707-.105v1.802c-.569-.075-1.168-.104-1.692-.104h-2.59v5.569h2.201c.674,0,1.183-.03,1.692-.105v1.728c-.479-.075-1.063-.105-1.707-.105h-5.69c-.644,0-1.243.03-1.692.105v-1.728c.479.075,1.018.105,1.677.105h1.827v-5.569h-2.096c-.524,0-1.138.029-1.707.104v-1.802c.494.075,1.033.105,1.752.105h2.052v-2.666Z"/><path d="M52.558,36.11h4.312c.794,0,1.468-.029,2.021-.089v1.787c-.629-.075-1.243-.104-1.991-.104h-9.508c-.704,0-1.393.029-2.066.104v-1.787c.584.06,1.213.089,2.066.089h3.414v-9.62c0-.655-.03-1.101-.105-1.712h1.961c-.075.551-.105,1.042-.105,1.712v2.546h3.519c.659,0,1.198-.029,1.737-.089v1.772c-.539-.059-1.108-.089-1.737-.089h-3.519v5.48Z"/><path d="M64.897,32.521c-.988,1.802-1.677,3.723-1.707,4.796l-1.737.089c-.015-.207-.03-.283-.105-.565-.374-1.682-.539-3.158-.539-4.855,0-1.668.09-2.546.554-5.645.09-.61.105-.774.105-1.086l1.976.193c-.179.581-.27.938-.434,1.817-.24,1.265-.3,1.682-.389,2.933-.075.983-.105,1.416-.105,1.699,0,.045,0,.207.015.446,0,.178,0,.432.015,1.147v.269c.015.238.03.328.03.58.254-.818.629-1.786.988-2.457l1.333.64ZM64.523,28.232c.659.149,1.453.208,2.665.208.569,0,.809-.015,1.587-.074-.09-2.622-.105-2.756-.194-3.277l1.901-.029c-.03.239-.03.328-.03.506,0,.134,0,.283.03.953,0,.148.03.715.06,1.682,1.063-.163,1.722-.342,2.231-.565l.105,1.757c-.254.03-.344.046-.838.164-.674.149-.809.164-1.453.239.015.328.015.446.015.715,0,1.593-.105,2.83-.314,3.559-.33,1.251-.869,2.145-1.707,2.889-.464.417-.869.7-1.632,1.131-.524-.654-.764-.893-1.453-1.386,1.018-.462,1.722-.968,2.291-1.638.778-.923,1.048-1.981,1.048-4.17,0-.312,0-.462-.015-.938-.509.03-1.287.059-2.036.059-.419,0-.973-.015-1.363-.029-.434-.03-.494-.03-.674-.03h-.225v-1.728ZM71.65,24.956c.449.716.689,1.206.958,2.07l-1.093.417c-.254-.789-.569-1.444-.973-2.099l1.108-.388ZM73.132,26.848c-.254-.73-.554-1.386-.943-2.041l1.063-.372c.434.685.719,1.251.958,1.966l-1.078.447Z"/><path d="M80.47,33.624c-.853,1.92-1.811,2.799-3.04,2.799-1.707,0-2.934-1.728-2.934-4.126,0-1.638.584-3.172,1.647-4.334,1.258-1.369,3.025-2.085,5.151-2.085,3.593,0,5.929,2.175,5.929,5.525,0,2.577-1.347,4.633-3.638,5.556-.718.298-1.302.446-2.351.625-.254-.789-.434-1.117-.912-1.742,1.377-.178,2.275-.417,2.979-.819,1.302-.715,2.081-2.13,2.081-3.723,0-1.43-.643-2.592-1.842-3.305-.464-.269-.854-.388-1.513-.448-.284,2.339-.808,4.394-1.557,6.077ZM78.269,28.292c-1.258.894-2.037,2.428-2.037,4.022,0,1.221.524,2.189,1.183,2.189.494,0,1.003-.626,1.542-1.906.568-1.341,1.063-3.351,1.243-5.034-.779.089-1.318.298-1.932.729Z"/><path d="M96.477,32.075v3.902c0,.298.06.432.21.492.21.089.644.119,1.333.119,2.097,0,2.456-.03,2.665-.208.21-.149.27-.536.3-1.624.674.283.853.343,1.496.462-.119,1.386-.329,2.041-.778,2.399-.435.357-.974.431-3.384.431-2.665,0-3.279-.269-3.279-1.43v-4.14c-.195.06-.344.12-.494.194l-.374-1.518.165-.03c.344-.059.389-.075.704-.164v-.729c0-.224,0-.359-.015-.582-.136.178-.195.254-.374.477-.405-.551-.659-.805-1.139-1.162.344-.372.449-.492.674-.789-.344-.03-.524-.03-1.048-.03h-1.602q-.016,1.386-.03,1.609h1.408c.509,0,.808-.016,1.138-.06-.015.12-.03.671-.03.76v.67c0,.938-.059,2.874-.119,3.738-.12,1.623-.285,2.412-.614,2.8-.225.268-.644.387-1.333.387q-.105,0-.539-.015-.165-.016-.405-.016c-.045-.7-.104-1.042-.299-1.578.09.03.165.03.21.045.374.06.599.089.824.089.419,0,.494-.118.629-.952.149-.954.24-2.592.254-4.439h-1.183c-.15,1.802-.27,2.711-.51,3.679-.344,1.415-.778,2.428-1.482,3.426-.39-.611-.689-.969-1.138-1.355.838-1.236,1.213-2.323,1.452-4.215.225-1.683.24-2.129.27-4.572h-.165c-.524,0-.944.03-1.228.075v-1.609c.435.075.719.089,1.377.089h.854v-.775c0-.535-.03-.923-.09-1.31h1.766c-.059.417-.075.685-.075,1.31v.775h.644c.643,0,.973-.015,1.363-.075v1.147c.688-1.028,1.317-2.442,1.467-3.261l1.691.327c-.074.105-.149.283-.254.566-.045.104-.149.342-.389.893h3.819c.658,0,1.152-.029,1.542-.089v1.609c-.36-.03-.989-.059-1.528-.059h-4.552c-.285.476-.494.818-.838,1.324h1.107c-.059.388-.075.552-.075,1.162v.328l1.183-.312v-.805c0-.535-.03-.982-.06-1.235h1.542c-.059.283-.09.64-.09,1.162v.506l1.512-.417c.075-.016.255-.075.524-.164.135-.045.254-.089.36-.119.269-.06.285-.074.464-.149-.075,3.619-.15,4.528-.39,5.064-.21.447-.524.581-1.362.581q-.105,0-.584-.016c-.06-.565-.15-.908-.345-1.4.285.06.51.09.719.09.314,0,.359-.09.419-.715.045-.522.059-1.043.059-1.683l-1.377.388v2.65c0,.67.016.894.06,1.236h-1.513c.045-.388.06-.595.06-1.236v-2.264l-1.183.343Z"/><path d="M106.54,27.488c-.823,0-1.347.03-1.931.09v-1.758c.524.059,1.033.089,1.947.089h8.055c.883,0,1.363-.03,1.932-.089v1.758c-.614-.06-1.108-.09-1.917-.09h-3.295v7.967h4.014c.869,0,1.437-.029,2.037-.104v1.802c-.555-.076-1.228-.105-2.037-.105h-9.553c-.779,0-1.408.029-2.037.105v-1.802c.613.075,1.152.104,2.066.104h3.743v-7.967h-3.025Z"/><path d="M124.584,32.059h-3.549c-.539,0-.973.016-1.377.06v-1.295c.36.045.749.059,1.408.059h3.518v-.565h-3.174c-.539,0-.913.015-1.258.045.03-.313.045-.626.045-.999v-.982c0-.418-.015-.685-.045-1.042.389.029.704.045,1.272.045h3.16v-.566h-4.102c-.734,0-1.228.03-1.752.089v-1.474c.464.059.973.089,1.842.089h4.013c-.015-.522-.03-.685-.09-1.012h1.811c-.074.327-.09.476-.104,1.012h4.208c.869,0,1.363-.03,1.842-.089v1.474c-.509-.059-1.033-.089-1.752-.089h-4.297v.566h3.384c.569,0,.899-.016,1.258-.045-.029.328-.045.58-.045,1.042v.982c0,.448.016.671.045.999-.33-.03-.718-.045-1.197-.045h-3.444v.565h3.354c.884,0,1.183-.015,1.603-.045-.045.372-.045.581-.045,1.355v.521c.643,0,1.003-.029,1.302-.074v1.414c-.36-.045-.643-.074-1.302-.074v.863c0,.776.015,1.177.075,1.609h-1.678v-.582h-3.309v.834c0,1.341-.374,1.624-2.201,1.624-.359,0-.958-.03-1.437-.059-.091-.596-.18-.894-.464-1.475.808.089,1.362.134,1.901.134.464,0,.584-.075.584-.342v-.716h-3.518c-.674,0-1.033.016-1.483.076v-1.386c.405.045.659.059,1.422.059h3.579v-.64h-4.297c-.853,0-1.258.015-1.648.074v-1.414c.39.059.764.074,1.617.074h4.327v-.655ZM121.784,28.546v.611h2.8v-.611h-2.8ZM126.201,29.156h3.009v-.611h-3.009v.611ZM129.51,32.715v-.655h-3.309v.655h3.309ZM126.201,34.621h3.309v-.64h-3.309v.64Z"/><path d="M136.264,36.423c0,.789.015,1.221.075,1.787h-1.662c.059-.551.09-1.012.09-1.787v-3.976c0-.716,0-1.101.03-1.772-.419.76-.569.983-.989,1.505-.179-.745-.405-1.311-.659-1.743,1.288-1.445,2.336-3.752,2.71-5.926l1.542.565c-.074.179-.194.596-.239.759-.21.775-.449,1.43-.899,2.428v8.161ZM142.328,28.918c-.03.194-.03.268-.075.595-.464,4.006-1.767,6.523-4.552,8.786-.39-.536-.644-.818-1.139-1.251,1.422-1.012,2.336-2.04,3.084-3.456-.404-.491-.584-.669-1.467-1.489-.299.477-.509.776-.944,1.311-.284-.595-.524-1.012-.883-1.459,1.228-1.415,1.902-3.023,2.201-5.198-.539,0-.718.016-1.063.06v-1.563c.404.058.749.074,1.407.074h2.171c.704,0,1.078-.016,1.468-.074v1.563c-.33-.045-.644-.06-1.168-.06h-1.363c-.105.834-.15,1.013-.27,1.549h.958c.539,0,.839-.016,1.108-.06l.524.671ZM139.334,29.707c-.165.431-.27.685-.449,1.087.883.804.958.878,1.392,1.354.3-.848.405-1.354.539-2.441h-1.482ZM146.925,36.557c0,1.251-.434,1.534-2.336,1.534-.389,0-.704,0-1.333-.03-.075-.64-.165-.968-.405-1.534.614.06,1.363.119,1.737.119.763,0,.853-.045.853-.387v-9.933c0-.685-.029-1.042-.09-1.534h1.648c-.06.402-.075.819-.075,1.534v10.231ZM142.852,34.651c.045-.372.075-.715.075-1.265v-6.463c0-.537-.015-.834-.059-1.266h1.602c-.045.357-.059.67-.059,1.266v6.448c0,.611.015.939.059,1.281h-1.617Z"/><path class="cls-2" d="M66.215,14.27c3.178,3.161,8.33,3.161,11.508,0,3.178-3.161,3.178-8.285,0-11.446-3.178-3.161-8.33-3.161-11.508,0-3.178,3.161-3.178,8.285,0,11.446Z"/><line class="cls-2" x1="77.724" y1="14.27" x2="79.22" y2="15.758"/><path class="cls-2" d="M81.022,20.311l-2.13-2.118c-.583-.58-.583-1.529,0-2.11l.654-.65c.583-.58,1.538-.58,2.121,0l2.13,2.118"/><path class="cls-2" d="M67.784,12.71c-2.312-2.299-2.312-6.027,0-8.326,2.312-2.299,6.06-2.299,8.372,0s2.312,6.027,0,8.326c-2.312,2.299-6.06,2.299-8.372,0Z"/><path class="cls-2" d="M71.76,4.803c.147-.008.294-.007.438.003"/><path class="cls-2" d="M73.713,5.234c.733.395,1.308,1.043,1.607,1.826"/><polyline class="cls-1" points="143.693 46.597 73.815 66.454 3.936 46.597"/></g></svg>