<?xml version="1.0" encoding="UTF-8"?><svg id="_レイヤー_2" xmlns="http://www.w3.org/2000/svg" viewBox="0 0 141.992 57.45"><defs><style>.cls-1{stroke-width:.908px;}.cls-1,.cls-2{fill:none;stroke:#000;stroke-linecap:round;stroke-linejoin:round;}.cls-2{stroke-width:1.992px;}</style></defs><g id="_レイヤー_1-2"><path d="M32.685,25.996c0-.61-.03-1.055-.09-1.472h1.86c-.06.386-.09.833-.09,1.472v3.987h3.81c.51,0,.795-.015,1.2-.075-.045.386-.06.728-.06,1.249v5.503c0,.729.03,1.219.09,1.696h-1.74v-.729h-8.655c-.705-.015-1.215.015-1.635.089v-1.696c.42.06.825.075,1.56.075h8.76v-1.591h-8.295c-.66,0-1.08.015-1.44.059v-1.666c.345.045.735.059,1.455.059h8.28v-1.427h-8.655c-.66,0-1.095.015-1.545.059v-1.696c.495.075.885.09,1.56.09h3.63v-3.987ZM28.98,25.238c1.11,1.413,1.725,2.365,2.34,3.644l-1.47.863c-.69-1.457-1.305-2.455-2.31-3.704l1.44-.803ZM39.48,25.922c-.885,1.815-1.365,2.603-2.34,3.838l-1.395-.863c.99-1.219,1.5-2.082,2.145-3.703l1.59.728Z"/><path d="M45.211,36.764c0,.699.015,1.071.075,1.517h-1.815c.075-.446.09-.847.09-1.546v-3.734c-.585.535-.9.774-1.665,1.265-.18-.566-.45-1.101-.765-1.546,1.05-.596,1.77-1.16,2.58-2.008.705-.728,1.14-1.338,1.635-2.29h-2.445c-.54,0-.855.015-1.26.059v-1.651c.375.045.69.06,1.185.06h.75v-1.249c0-.387-.03-.788-.09-1.131h1.815c-.06.343-.09.669-.09,1.16v1.22h.615c.465,0,.675-.015.87-.045l.72.773c-.135.224-.225.372-.33.625-.495,1.071-.78,1.562-1.5,2.544.705.788,1.395,1.324,2.385,1.889-.36.475-.585.892-.825,1.457-.78-.505-1.29-.937-1.935-1.681v4.313ZM51.57,36.066h1.8c.75,0,1.245-.03,1.71-.09v1.8c-.525-.075-1.11-.105-1.71-.105h-5.13c-.6,0-1.17.03-1.695.105v-1.8c.48.06,1.005.09,1.725.09h1.635v-5.816h-1.125c-.51,0-.99.03-1.47.075v-1.681c.435.06.825.075,1.47.075h1.125v-2.617c0-.61-.03-.967-.105-1.547h1.875c-.09.596-.105.907-.105,1.547v2.617h1.59c.675,0,1.05-.015,1.47-.075v1.681c-.48-.045-.945-.075-1.47-.075h-1.59v5.816Z"/><path d="M64.125,32.035v3.897c0,.297.06.432.21.491.21.089.645.119,1.335.119,2.1,0,2.46-.03,2.67-.208.21-.149.27-.535.3-1.621.675.283.855.342,1.5.461-.12,1.383-.33,2.037-.78,2.395-.435.356-.975.431-3.39.431-2.67,0-3.285-.267-3.285-1.427v-4.135c-.195.059-.345.119-.495.194l-.375-1.517.165-.03c.345-.059.39-.075.705-.164v-.728c0-.224,0-.357-.015-.58-.135.178-.195.253-.375.475-.405-.55-.66-.803-1.14-1.16.345-.372.45-.491.675-.788-.345-.03-.525-.03-1.05-.03h-1.605q-.015,1.384-.03,1.606h1.41c.51,0,.81-.015,1.14-.059-.015.119-.03.669-.03.758v.669c0,.937-.06,2.87-.12,3.733-.12,1.622-.285,2.41-.615,2.797-.225.267-.645.386-1.335.386q-.105,0-.54-.015-.165-.015-.405-.015c-.045-.699-.105-1.042-.3-1.577.09.03.165.03.21.046.375.059.6.089.825.089.42,0,.495-.119.63-.952.15-.952.24-2.588.255-4.432h-1.185c-.15,1.799-.27,2.706-.51,3.673-.345,1.413-.78,2.425-1.485,3.421-.39-.61-.69-.966-1.14-1.354.84-1.235,1.215-2.32,1.455-4.208.225-1.681.24-2.127.27-4.567h-.165c-.525,0-.945.03-1.23.075v-1.606c.435.075.72.089,1.38.089h.855v-.773c0-.535-.03-.923-.09-1.309h1.77c-.06.416-.075.685-.075,1.309v.773h.645c.645,0,.975-.015,1.365-.074v1.145c.69-1.026,1.32-2.439,1.47-3.257l1.695.326c-.075.105-.15.283-.255.566-.045.105-.15.342-.39.893h3.825c.66,0,1.155-.03,1.545-.089v1.606c-.36-.029-.99-.059-1.53-.059h-4.56c-.285.475-.495.818-.84,1.324h1.11c-.06.386-.075.55-.075,1.16v.327l1.185-.313v-.803c0-.535-.03-.982-.06-1.235h1.545c-.06.283-.09.64-.09,1.16v.505l1.515-.416c.075-.015.255-.075.525-.164.135-.045.255-.089.36-.119.27-.059.285-.074.465-.148-.075,3.614-.15,4.521-.39,5.057-.21.446-.525.58-1.365.58q-.105,0-.585-.015c-.06-.566-.15-.907-.345-1.398.285.059.51.089.72.089.315,0,.36-.089.42-.714.045-.521.06-1.041.06-1.681l-1.38.387v2.646c0,.67.015.893.06,1.235h-1.515c.045-.386.06-.595.06-1.235v-2.26l-1.185.342Z"/><path d="M74.206,27.454c-.825,0-1.35.03-1.935.09v-1.756c.524.06,1.034.089,1.949.089h8.07c.885,0,1.364-.029,1.935-.089v1.756c-.615-.06-1.11-.09-1.92-.09h-3.3v7.958h4.02c.87,0,1.44-.03,2.04-.105v1.8c-.555-.075-1.229-.105-2.04-.105h-9.569c-.78,0-1.41.03-2.04.105v-1.8c.615.075,1.155.105,2.07.105h3.75v-7.958h-3.03Z"/><path d="M92.281,32.02h-3.556c-.539,0-.975.015-1.38.059v-1.294c.36.045.75.059,1.41.059h3.525v-.565h-3.181c-.539,0-.914.015-1.26.045.03-.313.045-.625.045-.996v-.982c0-.416-.015-.685-.045-1.041.391.03.705.045,1.275.045h3.165v-.566h-4.11c-.734,0-1.229.03-1.755.089v-1.472c.465.059.976.089,1.845.089h4.021c-.016-.521-.03-.685-.09-1.011h1.814c-.075.326-.09.475-.105,1.011h4.215c.87,0,1.365-.03,1.846-.089v1.472c-.511-.059-1.035-.089-1.755-.089h-4.306v.566h3.391c.569,0,.899-.015,1.26-.045-.03.327-.045.58-.045,1.041v.982c0,.446.015.669.045.996-.33-.03-.72-.045-1.2-.045h-3.45v.565h3.36c.885,0,1.185-.015,1.604-.045-.045.372-.045.58-.045,1.354v.521c.646,0,1.005-.03,1.306-.075v1.413c-.36-.045-.646-.075-1.306-.075v.863c0,.774.016,1.175.075,1.606h-1.68v-.58h-3.315v.833c0,1.338-.375,1.621-2.204,1.621-.36,0-.96-.03-1.44-.059-.09-.596-.18-.893-.465-1.473.81.089,1.365.134,1.905.134.465,0,.585-.075.585-.342v-.714h-3.525c-.675,0-1.035.015-1.484.075v-1.384c.404.045.659.06,1.425.06h3.585v-.64h-4.305c-.855,0-1.261.015-1.65.075v-1.413c.39.059.765.075,1.62.075h4.335v-.655ZM89.475,28.51v.61h2.806v-.61h-2.806ZM93.9,29.12h3.016v-.61h-3.016v.61ZM97.216,32.675v-.655h-3.315v.655h3.315ZM93.9,34.579h3.315v-.64h-3.315v.64Z"/><path d="M103.981,36.378c0,.788.015,1.22.074,1.785h-1.664c.06-.55.09-1.011.09-1.785v-3.971c0-.714,0-1.1.029-1.77-.42.759-.569.982-.989,1.503-.181-.744-.405-1.309-.66-1.74,1.29-1.443,2.34-3.748,2.715-5.919l1.545.565c-.075.179-.195.596-.24.759-.21.773-.45,1.427-.899,2.424v8.15ZM110.055,28.882c-.03.194-.03.267-.075.595-.465,4.001-1.77,6.515-4.56,8.775-.39-.535-.645-.817-1.14-1.249,1.425-1.011,2.34-2.037,3.09-3.45-.405-.491-.585-.669-1.47-1.487-.301.475-.511.774-.945,1.308-.285-.595-.525-1.011-.885-1.457,1.229-1.413,1.904-3.019,2.205-5.19-.54,0-.721.015-1.065.059v-1.561c.405.059.75.074,1.41.074h2.175c.705,0,1.08-.015,1.47-.074v1.561c-.33-.045-.645-.059-1.17-.059h-1.365c-.104.833-.149,1.011-.27,1.546h.96c.54,0,.84-.015,1.11-.059l.524.669ZM107.055,29.67c-.165.431-.27.685-.45,1.086.886.804.96.877,1.396,1.354.3-.848.405-1.354.54-2.439h-1.485ZM114.66,36.511c0,1.249-.435,1.532-2.34,1.532-.39,0-.704,0-1.335-.029-.074-.64-.165-.967-.404-1.532.614.059,1.364.118,1.739.118.766,0,.855-.045.855-.386v-9.921c0-.684-.03-1.041-.09-1.532h1.649c-.06.402-.075.818-.075,1.532v10.218ZM110.581,34.608c.045-.372.075-.714.075-1.264v-6.455c0-.535-.016-.833-.061-1.265h1.605c-.046.357-.061.669-.061,1.265v6.439c0,.61.015.937.061,1.279h-1.62Z"/><path class="cls-1" d="M63.383,14.253c3.183,3.157,8.345,3.157,11.528,0,3.183-3.157,3.183-8.274,0-11.431-3.183-3.157-8.345-3.157-11.528,0-3.183,3.157-3.183,8.275,0,11.431Z"/><line class="cls-1" x1="74.912" y1="14.253" x2="76.41" y2="15.738"/><path class="cls-1" d="M78.216,20.285l-2.133-2.115c-.584-.579-.584-1.527,0-2.107l.655-.649c.584-.579,1.54-.579,2.125,0l2.133,2.115"/><path class="cls-1" d="M64.954,12.695c-2.316-2.296-2.316-6.019,0-8.316,2.316-2.296,6.071-2.296,8.387,0s2.316,6.019,0,8.316c-2.316,2.296-6.071,2.296-8.387,0Z"/><path class="cls-1" d="M68.937,4.798c.148-.008.294-.007.439.003"/><path class="cls-1" d="M70.894,5.228c.734.395,1.31,1.042,1.61,1.823"/><polyline class="cls-2" points="140.996 36.622 70.996 56.454 .996 36.622"/></g></svg>