<?xml version="1.0" encoding="UTF-8"?><svg id="_レイヤー_2" xmlns="http://www.w3.org/2000/svg" viewBox="0 0 202.002 66.501"><defs><style>.cls-1{stroke:#101010;}.cls-1,.cls-2{fill:none;stroke-linecap:round;stroke-linejoin:round;stroke-width:1.002px;}.cls-2{stroke:#000;}</style></defs><g id="_レイヤー_1-2"><path d="M38.189,2.562c0-1.029-.05-1.783-.149-2.487h3.095c-.1.653-.149,1.406-.149,2.487v6.731h6.341c.85,0,1.324-.026,1.998-.126-.075.653-.1,1.231-.1,2.11v9.293c0,1.231.05,2.059.149,2.862h-2.896v-1.231h-14.406c-1.174-.025-2.022.026-2.722.151v-2.863c.699.1,1.374.126,2.597.126h14.58v-2.688h-13.807c-1.098,0-1.798.026-2.397.101v-2.813c.575.076,1.223.101,2.422.101h13.781v-2.411h-14.406c-1.098,0-1.823.025-2.572.1v-2.863c.823.126,1.473.151,2.596.151h6.042V2.562ZM32.022,1.282c1.848,2.386,2.872,3.993,3.895,6.153l-2.447,1.456c-1.148-2.461-2.173-4.143-3.846-6.253l2.397-1.356ZM49.499,2.437c-1.473,3.064-2.272,4.395-3.895,6.48l-2.322-1.456c1.648-2.06,2.497-3.517,3.57-6.254l2.647,1.231Z"/><path d="M59.517,20.746c0,1.181.025,1.808.125,2.561h-3.02c.124-.754.149-1.432.149-2.611v-6.304c-.974.904-1.498,1.305-2.772,2.134-.299-.955-.749-1.859-1.273-2.612,1.747-1.005,2.946-1.959,4.294-3.39,1.174-1.231,1.897-2.26,2.722-3.867h-4.07c-.898,0-1.423.025-2.097.1v-2.788c.624.076,1.148.1,1.973.1h1.249V1.96c0-.654-.051-1.332-.15-1.91h3.021c-.1.578-.15,1.13-.15,1.96v2.059h1.024c.774,0,1.123-.025,1.448-.075l1.199,1.306c-.225.376-.375.627-.549,1.055-.824,1.808-1.298,2.637-2.497,4.294,1.174,1.331,2.322,2.235,3.97,3.189-.6.804-.975,1.507-1.374,2.462-1.298-.855-2.147-1.583-3.221-2.838v7.283ZM70.104,19.565h2.996c1.249,0,2.073-.05,2.847-.151v3.039c-.874-.126-1.848-.176-2.847-.176h-8.539c-.998,0-1.947.05-2.821.176v-3.039c.799.101,1.673.151,2.872.151h2.721v-9.82h-1.872c-.849,0-1.648.05-2.447.126v-2.838c.724.1,1.373.125,2.447.125h1.872V2.738c0-1.029-.05-1.633-.175-2.612h3.121c-.149,1.005-.175,1.532-.175,2.612v4.42h2.647c1.124,0,1.748-.025,2.447-.125v2.838c-.799-.076-1.573-.126-2.447-.126h-2.647v9.82Z"/><path d="M91.008,12.759v6.58c0,.502.1.729.35.829.349.151,1.073.201,2.222.201,3.495,0,4.094-.05,4.444-.352.35-.25.45-.904.499-2.737,1.124.477,1.423.577,2.496.778-.199,2.335-.549,3.441-1.297,4.044-.725.603-1.623.728-5.643.728-4.444,0-5.468-.452-5.468-2.411v-6.982c-.324.1-.574.201-.823.327l-.624-2.562.274-.05c.575-.1.65-.126,1.174-.277v-1.231c0-.377,0-.603-.024-.979-.225.301-.325.427-.624.804-.674-.929-1.098-1.356-1.897-1.959.574-.628.749-.829,1.124-1.332-.575-.05-.874-.05-1.748-.05h-2.672q-.024,2.335-.05,2.712h2.347c.849,0,1.348-.025,1.897-.1-.024.201-.05,1.13-.05,1.281v1.13c0,1.582-.1,4.848-.2,6.304-.2,2.738-.474,4.068-1.023,4.722-.375.451-1.074.653-2.222.653q-.175,0-.898-.026-.275-.025-.674-.025c-.075-1.181-.176-1.758-.499-2.662.149.05.274.05.349.076.624.1.999.15,1.374.15.698,0,.823-.201,1.049-1.607.25-1.607.399-4.37.424-7.484h-1.973c-.25,3.039-.45,4.571-.849,6.204-.575,2.386-1.298,4.094-2.472,5.776-.65-1.029-1.148-1.632-1.897-2.285,1.398-2.084,2.022-3.917,2.421-7.108.375-2.838.4-3.591.45-7.71h-.274c-.874,0-1.574.05-2.048.126v-2.712c.724.126,1.198.151,2.296.151h1.423v-1.306c0-.905-.05-1.557-.149-2.211h2.946c-.1.704-.125,1.156-.125,2.211v1.306h1.073c1.074,0,1.623-.026,2.272-.126v1.933c1.149-1.733,2.198-4.119,2.448-5.5l2.821.552c-.125.176-.25.478-.424.955-.075.176-.25.578-.65,1.507h6.367c1.098,0,1.922-.051,2.572-.151v2.712c-.6-.05-1.648-.1-2.547-.1h-7.59c-.475.804-.824,1.381-1.399,2.235h1.848c-.1.653-.125.929-.125,1.959v.552l1.973-.528v-1.356c0-.904-.05-1.657-.1-2.084h2.572c-.1.477-.15,1.08-.15,1.959v.855l2.522-.704c.125-.026.425-.126.874-.277.225-.075.424-.15.599-.2.45-.101.475-.126.775-.251-.125,6.103-.25,7.634-.65,8.539-.349.753-.873.979-2.272.979q-.175,0-.974-.026c-.1-.954-.25-1.532-.574-2.361.474.101.849.151,1.198.151.525,0,.599-.151.699-1.206.075-.878.1-1.758.1-2.838l-2.297.654v4.471c0,1.129.025,1.506.1,2.084h-2.522c.075-.654.1-1.005.1-2.084v-3.818l-1.973.578Z"/><path d="M107.793,5.023c-1.374,0-2.248.05-3.221.151v-2.964c.874.1,1.723.15,3.246.15h13.433c1.473,0,2.272-.05,3.22-.15v2.964c-1.023-.101-1.848-.151-3.196-.151h-5.492v13.437h6.691c1.448,0,2.397-.051,3.395-.176v3.038c-.923-.126-2.047-.176-3.395-.176h-15.93c-1.298,0-2.347.05-3.396.176v-3.038c1.024.125,1.923.176,3.446.176h6.242V5.023h-5.044Z"/><path d="M137.884,12.733h-5.917c-.899,0-1.623.026-2.297.101v-2.185c.599.076,1.249.1,2.347.1h5.867v-.954h-5.293c-.898,0-1.523.025-2.096.076.05-.528.074-1.055.074-1.683v-1.657c0-.704-.024-1.156-.074-1.758.649.05,1.173.076,2.122.076h5.268v-.955h-6.84c-1.223,0-2.048.05-2.922.151V1.557c.775.1,1.623.151,3.071.151h6.691c-.024-.879-.05-1.156-.149-1.708h3.021c-.125.552-.15.804-.176,1.708h7.016c1.449,0,2.272-.051,3.071-.151v2.487c-.849-.101-1.723-.151-2.921-.151h-7.166v.955h5.643c.948,0,1.497-.026,2.097-.076-.051.552-.075.979-.075,1.758v1.657c0,.754.024,1.13.075,1.683-.55-.051-1.199-.076-1.998-.076h-5.743v.954h5.593c1.473,0,1.973-.025,2.672-.075-.075.627-.075.979-.075,2.285v.878c1.074,0,1.673-.05,2.173-.126v2.387c-.599-.076-1.074-.126-2.173-.126v1.456c0,1.306.025,1.984.125,2.712h-2.796v-.979h-5.519v1.407c0,2.26-.623,2.737-3.67,2.737-.599,0-1.598-.05-2.397-.1-.149-1.005-.299-1.507-.774-2.487,1.348.151,2.272.226,3.171.226.775,0,.974-.125.974-.577v-1.206h-5.867c-1.124,0-1.723.026-2.472.126v-2.335c.674.076,1.098.1,2.372.1h5.967v-1.079h-7.165c-1.423,0-2.097.026-2.746.126v-2.387c.649.101,1.273.126,2.696.126h7.215v-1.105ZM133.215,6.806v1.03h4.669v-1.03h-4.669ZM140.581,7.837h5.019v-1.03h-5.019v1.03ZM146.099,13.838v-1.105h-5.519v1.105h5.519ZM140.581,17.053h5.519v-1.079h-5.519v1.079Z"/><path d="M157.366,20.092c0,1.332.024,2.06.125,3.015h-2.772c.1-.929.149-1.708.149-3.015v-6.705c0-1.206,0-1.859.051-2.989-.699,1.281-.949,1.657-1.649,2.537-.299-1.256-.674-2.21-1.098-2.938,2.147-2.437,3.895-6.329,4.52-9.996l2.572.955c-.125.301-.325,1.005-.4,1.281-.349,1.306-.748,2.411-1.497,4.094v13.763ZM167.477,7.434c-.05.327-.05.452-.125,1.005-.774,6.755-2.946,11-7.59,14.818-.65-.904-1.074-1.382-1.897-2.11,2.372-1.707,3.894-3.44,5.143-5.827-.674-.828-.974-1.129-2.447-2.511-.499.804-.849,1.306-1.574,2.21-.474-1.004-.873-1.707-1.473-2.461,2.048-2.386,3.171-5.098,3.671-8.765-.899,0-1.199.026-1.774.1V1.256c.674.1,1.249.126,2.347.126h3.62c1.174,0,1.798-.026,2.447-.126v2.637c-.549-.075-1.073-.1-1.947-.1h-2.272c-.175,1.406-.25,1.707-.45,2.612h1.598c.899,0,1.399-.026,1.848-.101l.874,1.13ZM162.484,8.765c-.274.729-.449,1.156-.748,1.834,1.473,1.356,1.598,1.482,2.322,2.285.499-1.432.674-2.285.898-4.119h-2.472ZM175.142,20.319c0,2.11-.724,2.587-3.894,2.587-.65,0-1.174,0-2.222-.05-.125-1.08-.275-1.633-.674-2.588,1.023.101,2.272.201,2.896.201,1.273,0,1.423-.076,1.423-.653V3.065c0-1.156-.051-1.758-.15-2.587h2.746c-.1.678-.125,1.381-.125,2.587v17.254ZM168.351,17.104c.075-.628.125-1.206.125-2.135V4.068c0-.904-.025-1.406-.1-2.134h2.671c-.075.603-.1,1.13-.1,2.134v10.876c0,1.029.024,1.582.1,2.16h-2.696Z"/><path class="cls-1" d="M3.706,17.526c3.488,3.509,9.143,3.509,12.631,0,3.488-3.509,3.488-9.197,0-12.706-3.488-3.509-9.143-3.509-12.631,0C.218,8.329.218,14.018,3.706,17.526Z"/><line class="cls-1" x1="16.337" y1="17.526" x2="17.979" y2="19.178"/><path class="cls-1" d="M19.958,24.232l-2.338-2.351c-.64-.644-.64-1.698,0-2.342l.718-.722c.64-.644,1.688-.644,2.328,0l2.338,2.351"/><path class="cls-1" d="M5.427,15.795c-2.537-2.552-2.537-6.691,0-9.243,2.537-2.552,6.651-2.552,9.189,0,2.537,2.552,2.537,6.691,0,9.243-2.537,2.552-6.651,2.552-9.189,0Z"/><path class="cls-1" d="M9.792,7.018c.162-.009.322-.008.481.003"/><path class="cls-1" d="M11.935,7.496c.804.439,1.435,1.158,1.764,2.027"/><polyline class="cls-2" points="201.501 31.276 101.001 66 .501 31.276"/></g></svg>