<svg id="レイヤー_1" data-name="レイヤー 1" xmlns="http://www.w3.org/2000/svg" viewBox="0 0 345 90"><defs><style>.cls-1{fill:#525a70;}.cls-2{opacity:0.2;}</style></defs><path class="cls-1" d="M85.763,51.9c0,7.554-3.293,12.364-8.2,12.364-4.682,0-7.072-4.939-7.072-11.2,0-8.813,4.392-12.139,8.493-12.139C83.632,40.923,85.763,45.379,85.763,51.9Zm-7.75-9.362c-3.681,0-4.747,3.745-4.747,9.071,0,4.811,1.1,11.009,5.167,11.009,4.1,0,4.586-5.037,4.586-10.04C83.019,48.252,81.953,42.538,78.013,42.538Z"/><path class="cls-1" d="M103.237,52.384c1.841,1,3.81,2.389,3.81,5.23,0,3.519-3.358,6.682-7.556,6.682-4.65,0-6.588-3.421-6.588-5.843a4.13,4.13,0,0,1,1.486-3.389A23.843,23.843,0,0,1,98.1,52.448c-3.132-1.581-4.294-3.26-4.294-5.681,0-3.067,2.906-5.908,6.62-5.908a5.34,5.34,0,0,1,5.715,5.1c0,2.066-.839,3.39-4.359,5.649Zm1.228,6.263a4.556,4.556,0,0,0-2.52-4.1c-.872-.517-1.873-1.1-2.841-1.614-2.325,1.775-3.65,3.035-3.65,5.1a4.959,4.959,0,0,0,5.071,4.842C103.076,62.876,104.465,61.133,104.465,58.647Zm-3.65-7.554c2.1-1.679,2.939-2.874,2.939-4.649a4.163,4.163,0,0,0-4.23-4.229c-2.358,0-3.359,1.744-3.359,3.648a4.716,4.716,0,0,0,2.809,4.294Z"/><path class="cls-1" d="M129.4,51.9c0,7.554-3.293,12.364-8.2,12.364-4.683,0-7.072-4.939-7.072-11.2,0-8.813,4.392-12.139,8.493-12.139C127.265,40.923,129.4,45.379,129.4,51.9Zm-7.75-9.362c-3.681,0-4.747,3.745-4.747,9.071,0,4.811,1.1,11.009,5.167,11.009,4.1,0,4.585-5.037,4.585-10.04C126.651,48.252,125.586,42.538,121.646,42.538Z"/><path class="cls-1" d="M152,51.9c0,7.554-3.294,12.364-8.2,12.364-4.683,0-7.072-4.939-7.072-11.2,0-8.813,4.392-12.139,8.493-12.139C149.873,40.923,152,45.379,152,51.9Zm-7.75-9.362c-3.681,0-4.747,3.745-4.747,9.071,0,4.811,1.1,11.009,5.167,11.009,4.1,0,4.585-5.037,4.585-10.04C149.259,48.252,148.194,42.538,144.254,42.538Z"/><path class="cls-1" d="M158.95,54.58c.678-.065,6.943-.194,7.912-.162.678.032.774.162.774.452a1.816,1.816,0,0,1-.807,1.42c-.742.323-6.781.387-7.911.356-.227,0-.55-.065-.581-.42A2.378,2.378,0,0,1,158.95,54.58Z"/><path class="cls-1" d="M181.654,62.585c1.259.13,1.259,1.2-.065,1.2-1.292,0-2.454-.065-4.2-.065-1.712,0-3.132.065-4.327.065-1.324,0-1.356-1.065-.033-1.2,2.358-.29,2.584-.613,2.681-1.646.064-.807.161-2.13.161-4.262V45.9c0-1.1-.064-1.324-.355-1.259-.549.129-1.615.388-2.421.485-.937.1-1.454.128-1.454-.291,0-.387.452-.613.9-.774a20.807,20.807,0,0,0,3.972-1.9,10.327,10.327,0,0,1,2-1.259.387.387,0,0,1,.453.516,23.05,23.05,0,0,0-.42,5.779v9.49c0,1.679,0,3.487.064,4.133C178.715,62.1,178.941,62.3,181.654,62.585Z"/><path class="cls-1" d="M197.544,44.087a.442.442,0,0,0-.388-.161c-.613,0-7.2,0-8.88.13-1.163.064-1.389,1-1.906,2.162-.452,1.033-1.356.872-1.13-.29.1-.743.549-3.229.743-4.229a.606.606,0,0,1,.969-.485,3.513,3.513,0,0,0,1.55.226h7.363a20.287,20.287,0,0,0,3.81-.193c.453-.13.743.258.453.871-3.2,6.36-8.267,16.529-10.5,21.339-.194.452-.388.581-.742.581-.55,0-1.228-.419-1.228-.871C187.662,62.553,195.832,47.38,197.544,44.087Z"/><path class="cls-1" d="M220.054,51.9c0,7.554-3.293,12.364-8.2,12.364-4.683,0-7.072-4.939-7.072-11.2,0-8.813,4.392-12.139,8.493-12.139C217.923,40.923,220.054,45.379,220.054,51.9Zm-7.75-9.362c-3.681,0-4.747,3.745-4.747,9.071,0,4.811,1.1,11.009,5.167,11.009,4.1,0,4.585-5.037,4.585-10.04C217.309,48.252,216.244,42.538,212.3,42.538Z"/><path class="cls-1" d="M227,54.58c.679-.065,6.944-.194,7.912-.162.678.032.775.162.775.452a1.816,1.816,0,0,1-.807,1.42c-.743.323-6.782.387-7.912.356-.226,0-.549-.065-.581-.42A2.378,2.378,0,0,1,227,54.58Z"/><path class="cls-1" d="M241.211,62.392a1.653,1.653,0,0,1-.356-1.1,2.726,2.726,0,0,1,.614-1.55c.323-.387.678-.29.872.162a5.158,5.158,0,0,0,4.811,2.679,4.567,4.567,0,0,0,4.812-4.906c0-2.68-1.227-4.52-5.748-5.65a13.576,13.576,0,0,0-3.52-.485c-.549.033-.743-.193-.549-.839a72.534,72.534,0,0,0,2.164-8.781c.129-.645.517-.839.937-.613a1.788,1.788,0,0,0,.742.129c1.131,0,4.263,0,5.522-.064a2.338,2.338,0,0,0,1.97-.807c.678-.645,1.292-.161.872.645-1.227,2.357-2.228,2.583-2.551,2.648a47.867,47.867,0,0,1-6.168.129.383.383,0,0,0-.323.258c-.291,1.259-.872,3.907-1.163,4.939-.032.129.065.129.194.193,1.356.194,2.487.42,3.617.647,4.553,1,6.749,3.1,6.749,6.1,0,2.583-1.066,4.616-3.617,6.392a9.279,9.279,0,0,1-5.328,1.679C242.987,64.2,241.7,63.069,241.211,62.392Z"/><path class="cls-1" d="M268.63,62.585c1.259.13,1.259,1.2-.065,1.2-1.292,0-2.454-.065-4.2-.065-1.712,0-3.132.065-4.327.065-1.324,0-1.356-1.065-.033-1.2,2.358-.29,2.584-.613,2.681-1.646.064-.807.161-2.13.161-4.262V45.9c0-1.1-.064-1.324-.355-1.259-.549.129-1.615.388-2.421.485-.937.1-1.454.128-1.454-.291,0-.387.452-.613.9-.774a20.778,20.778,0,0,0,3.972-1.9c1.292-.84,1.711-1.228,2-1.259.356-.033.55.225.453.516a23.05,23.05,0,0,0-.42,5.779v9.49c0,1.679,0,3.487.064,4.133C265.691,62.1,265.917,62.3,268.63,62.585Z"/><path class="cls-1" d="M288.459,51.9c0,7.554-3.293,12.364-8.2,12.364-4.683,0-7.072-4.939-7.072-11.2,0-8.813,4.392-12.139,8.493-12.139C286.328,40.923,288.459,45.379,288.459,51.9Zm-7.75-9.362c-3.681,0-4.747,3.745-4.747,9.071,0,4.811,1.1,11.009,5.167,11.009,4.1,0,4.585-5.037,4.585-10.04C285.714,48.252,284.649,42.538,280.709,42.538Z"/><path class="cls-1" d="M309.129,55.483a9.335,9.335,0,0,0,2.616-.226c.291-.065.485.065.485.291A3.64,3.64,0,0,1,311.778,57c-.162.258-.453.324-1.163.324h-2.583v4.293a6.659,6.659,0,0,1-.065,1.775,3.56,3.56,0,0,1-2.261.711c-.354,0-.451-.259-.354-.614a8.233,8.233,0,0,0,.161-1.581c0-.517.065-1.711.065-4.584h-2.455c-6.071,0-6.878,0-7.3-.13a.505.505,0,0,1-.355-.452,2.876,2.876,0,0,1,.646-1.42c2.034-2.712,7.492-10.524,9.59-13.01a5.275,5.275,0,0,1,1-.839,3.81,3.81,0,0,1,1.356-.678c.194,0,.387.225.29.581a8.418,8.418,0,0,0-.322,2.2V55.483ZM305.578,44.54c-2.584,3.292-6.847,9.62-7.395,10.459-.065.162,0,.323.193.323.485.032,1.486.129,7.2.161Z"/><path class="cls-1" d="M38.293,58.8H65.055V42.591H38.293Zm9.372-.541H44.346V46.745a3.622,3.622,0,0,1,3.7-3.709h3.908v3.03H48.932a1.188,1.188,0,0,0-1.267,1.07v2h8.741v3.02H47.665Zm11.248.014H57.288a3.622,3.622,0,0,1-3.7-3.713V52.879l2.829-.008v1.573a.8.8,0,0,0,.87.8h1.63Zm0-12.207h-1.63a.8.8,0,0,0-.87.8v1.565H53.584V46.745a3.621,3.621,0,0,1,3.7-3.709h1.625Z"/><path class="cls-1" d="M42.324,60.555A3.963,3.963,0,0,1,41.6,62.97a3.67,3.67,0,0,1-2.289,1.268l-.32-.685C41,63.2,41.322,62.19,41.479,61.268H38.67v-.713Z"/><path class="cls-1" d="M43.841,62.9h-.76V60.418h.76Zm2.181-.684c0,1.728-1.354,1.925-2.433,2.05l-.276-.7a3.733,3.733,0,0,0,1.54-.36,1.027,1.027,0,0,0,.4-.892v-1.98h.767Z"/><rect class="cls-1" x="46.792" y="61.868" width="3.986" height="0.755"/><polygon class="cls-1" points="54.827 60.625 54.827 63.955 51.407 63.955 51.407 63.245 54.069 63.245 54.069 61.33 51.455 61.33 51.455 60.625 54.827 60.625"/><rect class="cls-1" x="55.653" y="61.868" width="3.989" height="0.755"/><path class="cls-1" d="M61.454,61.54a7.772,7.772,0,0,1-.136,1.495,2.386,2.386,0,0,1-.681,1.308l-.569-.59a1.716,1.716,0,0,0,.553-1.018,6.132,6.132,0,0,0,.108-1.112v-1.13h.725Zm1.237,1.76a1.109,1.109,0,0,0,.684-.59,2.728,2.728,0,0,0,.31-.975l.678.329a2.818,2.818,0,0,1-.77,1.521,2.432,2.432,0,0,1-1.62.62v-3.86h.718Z"/><path class="cls-1" d="M86.22,75.854h3.07a.156.156,0,0,1,.176.157.144.144,0,0,1-.093.147,4.452,4.452,0,0,0,0,7.927.144.144,0,0,1,.093.147.156.156,0,0,1-.176.157H86.22a.288.288,0,0,1-.286-.286V76.14A.288.288,0,0,1,86.22,75.854Z"/><path class="cls-1" d="M97.518,77.716c.147-.176.341-.351.442-.351.167,0,.775.563.775.821-.009.193-.249.2-.5.248-.249.24-.507.5-.7.655s-.379.028-.277-.184a8.224,8.224,0,0,0,.3-.821h-5.9c.009.093.018.175.018.258a1.073,1.073,0,0,1-.894,1.153.346.346,0,0,1-.4-.323c-.028-.369.461-.5.673-.94a1.48,1.48,0,0,0,.083-.83c-.009-.212.239-.258.332-.064.045.12.082.249.119.378h4.1c-.074-.028-.111-.129-.047-.258a5.7,5.7,0,0,0,.655-1.373c.019-.084.074-.148.175-.12.3.092.811.387.793.552,0,.139-.147.185-.424.148a5.108,5.108,0,0,1-.922.986.305.305,0,0,1-.12.065Zm-1,3.935c.13-.175.295-.349.388-.349.184,0,.737.4.737.608,0,.12-.147.2-.314.267-.018.534,0,1.438,0,1.714s-.147.35-.405.35a.282.282,0,0,1-.286-.313v-.2H92.456v.268c0,.193-.147.276-.424.276a.22.22,0,0,1-.249-.249c0-.553.046-1.825-.037-2.59a.111.111,0,0,1,.13-.12,2.269,2.269,0,0,1,.811.341h.949c.12-.322.24-.682.314-.967h-.812v.129c0,.193-.138.276-.405.276a.217.217,0,0,1-.24-.249c0-.507.037-1.474-.037-2.193a.118.118,0,0,1,.138-.12,2.19,2.19,0,0,1,.729.313h2.462c.12-.156.258-.3.341-.3.184,0,.728.4.728.6,0,.12-.157.194-.313.258-.019.434,0,1.079,0,1.309,0,.286-.139.35-.4.35-.212,0-.276-.166-.276-.313v-.064h-.95a.1.1,0,0,1,.028.064c0,.13-.111.166-.351.184-.12.231-.267.489-.406.719ZM92.2,76.361c-.092-.185.028-.341.24-.24.479.258.9.673.857,1.088a.371.371,0,0,1-.433.35c-.221-.028-.277-.267-.388-.571A6.25,6.25,0,0,0,92.2,76.361Zm4.454,7c0-.443.008-1.024.008-1.337H92.466c-.01.194-.01.737-.01.894v.443ZM93.13,80.315h2.747c0-.36.009-.839.009-1.106H93.147c-.009.157-.017.581-.017.746Zm.746-4.12c-.073-.194.055-.341.267-.212.434.267.821.682.738,1.087a.371.371,0,0,1-.461.314c-.221-.046-.24-.286-.322-.581A5.27,5.27,0,0,0,93.876,76.195Z"/><path class="cls-1" d="M104.611,81.965a5.9,5.9,0,0,0,3.181,1.281c.286.037.24.221.055.286a.73.73,0,0,0-.377.267c-.13.184-.194.239-.434.175a4.943,4.943,0,0,1-2.83-1.926c.009,1,.027,1.64.027,1.9,0,.194-.138.332-.442.332-.185,0-.249-.1-.249-.277,0-.258.018-.792.028-1.631a8.337,8.337,0,0,1-3.329,1.807c-.267.083-.387-.157-.138-.286a8.022,8.022,0,0,0,2.877-1.926h-2.758c-.119,0-.2-.037-.2-.185s.083-.184.2-.184h3.348v-.728h-2.582c-.12,0-.2-.037-.2-.184s.083-.185.2-.185h2.582v-.682h-3.126c-.12,0-.2-.037-.2-.184s.083-.185.2-.185h2.167c-.194-.055-.24-.276-.314-.506-.064-.157-.138-.323-.221-.48s-.037-.276.073-.3H100c-.12,0-.2-.037-.2-.184s.082-.184.2-.184h2.748c.009-.563.009-1.337-.028-1.715a.116.116,0,0,1,.129-.138c.157,0,.931.037.931.258,0,.147-.156.221-.4.276V77.79h.931c.01-.563.01-1.337-.027-1.715-.009-.092.037-.138.119-.138.157,0,.959.037.959.258,0,.166-.166.23-.414.285v1.31h.562c-.074-.037-.092-.129-.028-.259a5.167,5.167,0,0,0,.636-1.355c.028-.082.084-.147.185-.11.3.1.793.378.784.544-.01.138-.148.175-.425.147a3.916,3.916,0,0,1-.912.977.323.323,0,0,1-.111.056h1c.184-.268.424-.581.553-.581.175,0,.811.534.821.746,0,.129-.139.2-.5.2h-2.232c.295.111.619.314.627.443s-.138.184-.424.184a3.876,3.876,0,0,1-.59.663h1.3c.184-.267.414-.571.543-.571.175,0,.811.525.811.737,0,.129-.138.2-.479.2H104.39a.137.137,0,0,1,.018.055c0,.1-.064.148-.2.166V80.5h1.558c.166-.249.378-.516.5-.516.167,0,.766.5.766.7,0,.119-.129.184-.461.184h-2.36V81.6h2.323c.175-.258.4-.553.526-.553.175,0,.8.516.8.728,0,.12-.128.194-.479.194Zm-3.66-5.392c-.129-.2-.009-.4.249-.295.507.23.959.571.959.977a.4.4,0,0,1-.415.424c-.24,0-.323-.239-.461-.535A5.224,5.224,0,0,0,100.951,76.573Zm1.3,1.585a.465.465,0,0,1,.1.037c.433.23.8.525.755.894a.383.383,0,0,1-.3.359h1.651a.212.212,0,0,1,.027-.092,4.078,4.078,0,0,0,.415-1.143.154.154,0,0,1,.018-.055Z"/><path class="cls-1" d="M111.115,77.061c.129-.175.286-.359.388-.359.184,0,.728.405.728.6,0,.12-.147.2-.3.267-.065,1.116.027,4.683.027,5.272,0,.286-.166.36-.424.36a.277.277,0,0,1-.286-.314v-.58h-1.171l.01.912c0,.212-.138.323-.434.323a.236.236,0,0,1-.258-.268c0-1.013.1-5.216-.037-6.461a.127.127,0,0,1,.129-.129,2.452,2.452,0,0,1,.895.378Zm-1.014.379c-.028.395-.037,1.437-.037,2.092h1.2c.009-.9.009-1.724.009-2.1h-1.125Zm1.152,4.5.01-2.037h-1.2v.138l.009,1.9Zm1.052-2.507c-.12,0-.2-.037-.2-.184s.084-.185.2-.185h1.9c0-.368.009-.811,0-1.244h-1.521c-.12,0-.2-.037-.2-.184s.083-.185.2-.185H114.2c-.009-.543-.028-1.041-.065-1.308-.008-.083.046-.129.13-.129.157,0,1.078.027,1.078.267,0,.2-.2.276-.488.341v.829h.7c.185-.276.425-.6.563-.6.184,0,.8.544.8.765,0,.129-.175.2-.47.2h-1.595v1.244H116.2c.193-.285.442-.627.58-.627.184,0,.821.563.821.784,0,.138-.175.212-.48.212Zm4.029,1.346c.193-.3.442-.627.572-.627.184,0,.783.562.783.783,0,.139-.184.213-.442.213h-1.383c0,.755,0,1.677.009,2.433a.66.66,0,0,1-.7.691c-.3,0-.23-.286-.848-.489-.222-.073-.185-.313,0-.3s.488.056.618.056c.193-.01.3-.083.3-.286.018-.369.018-.968.009-1.475l-.009-.626h-2.9c-.12,0-.2-.037-.2-.185s.084-.184.2-.184h2.895c-.01-.387-.028-.774-.056-.977-.018-.12.019-.166.13-.166.488,0,1.013.074,1.013.267,0,.157-.239.231-.451.277l-.009.6ZM113.9,82.923c-.24.01-.332-.23-.48-.488a5.408,5.408,0,0,0-.331-.507c-.13-.194-.028-.4.239-.313.5.156.987.433,1,.847A.416.416,0,0,1,113.9,82.923Z"/><path class="cls-1" d="M119.545,80.057c0,.332.019,3.5.019,3.88,0,.212-.129.332-.425.332-.184,0-.258-.1-.258-.276,0-1.162.12-6.342-.037-7.743a.127.127,0,0,1,.13-.129,2.49,2.49,0,0,1,.9.387h1.466c.129-.175.286-.368.387-.368.176,0,.7.4.7.6,0,.12-.156.2-.313.258-.01.608.009,2,.009,2.313,0,.286-.138.351-.378.351-.221,0-.277-.166-.277-.314v-.1h-1.927Zm1.927-1.18.01-.848h-1.927c0,.277,0,.572-.01.848Zm-1.881-1.991c-.009.175-.018.452-.027.775h1.927v-.784h-1.844Zm3.956,3.328c.129-.167.277-.351.378-.351.175,0,.682.387.682.59,0,.12-.147.2-.3.258-.019.627.01,2.166.01,2.489,0,.286-.139.35-.378.35-.213,0-.268-.165-.268-.313V83h-1.909v.332c0,.2-.138.3-.4.3-.157,0-.231-.092-.231-.258,0-.645.056-2.488-.037-3.355a.1.1,0,0,1,.13-.111,2.109,2.109,0,0,1,.737.314Zm-1.771.368c-.009.166-.009.517-.017.82h1.935v-.82Zm1.91,2.046v-.857h-1.927v.074l.008.783Zm2.037-6.12c.148-.184.359-.405.424-.405.221,0,.83.507.83.682,0,.12-.175.212-.369.285-.056,1.586-.037,4.268-.046,6.342a.813.813,0,0,1-.839.839c-.341,0-.147-.4-.719-.572-.194-.064-.157-.294.018-.294.074,0,.387.036.562.036.222,0,.314-.082.332-.369.037-.645.019-2,.019-2.949v-.857h-2.01v.138c0,.193-.138.286-.415.286a.222.222,0,0,1-.24-.249c0-.618.055-2.305-.036-3.143a.109.109,0,0,1,.128-.12,2.119,2.119,0,0,1,.8.35Zm-1.789.369c-.009.166-.009.507-.018.784h2.019v-.784Zm2,2v-.848h-2.019l.009.848Z"/><path class="cls-1" d="M131.267,84.1a.287.287,0,0,1-.285.286h-3.071a.156.156,0,0,1-.175-.157.144.144,0,0,1,.093-.147,4.452,4.452,0,0,0,0-7.927.144.144,0,0,1-.093-.147.156.156,0,0,1,.175-.157h3.071a.287.287,0,0,1,.285.286Z"/><path class="cls-1" d="M135.607,83.3c.359.038.359.341-.019.341s-.7-.018-1.2-.018-.894.018-1.235.018c-.379,0-.388-.3-.01-.341.673-.083.738-.175.766-.47.018-.23.045-.608.045-1.216V78.536c0-.313-.018-.378-.1-.359-.157.036-.461.11-.691.138-.268.027-.415.037-.415-.083s.129-.175.258-.221a6.014,6.014,0,0,0,1.134-.544,2.927,2.927,0,0,1,.572-.36.111.111,0,0,1,.129.148,6.594,6.594,0,0,0-.12,1.65v2.71c0,.479,0,1,.018,1.179C134.768,83.163,134.833,83.218,135.607,83.3Z"/><path class="cls-1" d="M141.081,80.25c0,2.157-.94,3.53-2.342,3.53-1.337,0-2.019-1.41-2.019-3.2,0-2.516,1.254-3.466,2.425-3.466C140.472,77.116,141.081,78.389,141.081,80.25Zm-2.212-2.673c-1.052,0-1.356,1.07-1.356,2.591,0,1.373.314,3.142,1.475,3.142s1.31-1.437,1.31-2.866C140.3,79.209,139.993,77.577,138.869,77.577Z"/><path class="cls-1" d="M144.712,78.121a.627.627,0,0,1-.618.655.55.55,0,0,1-.535-.59.6.6,0,0,1,.618-.6A.541.541,0,0,1,144.712,78.121Zm0,4.065a.626.626,0,0,1-.618.654.549.549,0,0,1-.535-.589.6.6,0,0,1,.618-.6A.542.542,0,0,1,144.712,82.186Z"/><path class="cls-1" d="M151.52,80.25c0,2.157-.939,3.53-2.341,3.53-1.337,0-2.019-1.41-2.019-3.2,0-2.516,1.253-3.466,2.424-3.466C150.912,77.116,151.52,78.389,151.52,80.25Zm-2.212-2.673c-1.052,0-1.355,1.07-1.355,2.591,0,1.373.313,3.142,1.475,3.142s1.309-1.437,1.309-2.866C150.737,79.209,150.433,77.577,149.308,77.577Z"/><path class="cls-1" d="M157.169,80.25c0,2.157-.94,3.53-2.342,3.53-1.337,0-2.019-1.41-2.019-3.2,0-2.516,1.254-3.466,2.425-3.466C156.56,77.116,157.169,78.389,157.169,80.25Zm-2.212-2.673c-1.052,0-1.356,1.07-1.356,2.591,0,1.373.314,3.142,1.475,3.142s1.31-1.437,1.31-2.866C156.386,79.209,156.081,77.577,154.957,77.577Z"/><path class="cls-1" d="M164.486,81.273a3.929,3.929,0,0,1-2.139-.682,3.8,3.8,0,0,0-2.056-.719,2.71,2.71,0,0,0-1.881.793.209.209,0,0,1-.3-.286,3.068,3.068,0,0,1,2.379-1.253,4.025,4.025,0,0,1,2.157.7,3.707,3.707,0,0,0,2.037.7,2.712,2.712,0,0,0,1.882-.793.209.209,0,0,1,.3.286A3.042,3.042,0,0,1,164.486,81.273Z"/><path class="cls-1" d="M170.639,83.3c.361.038.361.341-.018.341s-.7-.018-1.2-.018-.894.018-1.235.018c-.378,0-.387-.3-.009-.341.673-.083.738-.175.765-.47.019-.23.046-.608.046-1.216V78.536c0-.313-.019-.378-.1-.359-.157.036-.461.11-.692.138-.267.027-.415.037-.415-.083s.129-.175.259-.221a6.075,6.075,0,0,0,1.134-.544,2.971,2.971,0,0,1,.571-.36c.1-.009.157.065.129.148a6.594,6.594,0,0,0-.12,1.65v2.71c0,.479,0,1,.019,1.179C169.8,83.163,169.865,83.218,170.639,83.3Z"/><path class="cls-1" d="M174.722,80.389a1.684,1.684,0,0,1,1.088,1.493,2.074,2.074,0,0,1-2.158,1.908,1.743,1.743,0,0,1-1.881-1.669,1.18,1.18,0,0,1,.424-.967,6.959,6.959,0,0,1,1.06-.747c-.893-.452-1.225-.931-1.225-1.622a1.824,1.824,0,0,1,1.89-1.687,1.524,1.524,0,0,1,1.631,1.456c0,.59-.239.968-1.245,1.614Zm.35,1.788a1.3,1.3,0,0,0-.719-1.171c-.249-.147-.535-.313-.811-.461-.664.507-1.042.867-1.042,1.457a1.415,1.415,0,0,0,1.447,1.383A1.084,1.084,0,0,0,175.072,82.177ZM174.03,80.02c.6-.479.839-.82.839-1.327a1.188,1.188,0,0,0-1.208-1.207.935.935,0,0,0-.959,1.041,1.347,1.347,0,0,0,.8,1.226Z"/><path class="cls-1" d="M179.44,78.121a.626.626,0,0,1-.617.655.55.55,0,0,1-.536-.59.6.6,0,0,1,.619-.6A.54.54,0,0,1,179.44,78.121Zm0,4.065a.626.626,0,0,1-.617.654.549.549,0,0,1-.536-.589.6.6,0,0,1,.619-.6A.541.541,0,0,1,179.44,82.186Z"/><path class="cls-1" d="M186.249,80.25c0,2.157-.94,3.53-2.342,3.53-1.337,0-2.019-1.41-2.019-3.2,0-2.516,1.254-3.466,2.425-3.466C185.64,77.116,186.249,78.389,186.249,80.25Zm-2.212-2.673c-1.052,0-1.356,1.07-1.356,2.591,0,1.373.314,3.142,1.475,3.142s1.31-1.437,1.31-2.866C185.466,79.209,185.161,77.577,184.037,77.577Z"/><path class="cls-1" d="M191.9,80.25c0,2.157-.94,3.53-2.342,3.53-1.337,0-2.019-1.41-2.019-3.2,0-2.516,1.253-3.466,2.425-3.466C191.289,77.116,191.9,78.389,191.9,80.25Zm-2.213-2.673c-1.051,0-1.355,1.07-1.355,2.591,0,1.373.313,3.142,1.475,3.142s1.31-1.437,1.31-2.866C191.115,79.209,190.81,77.577,189.685,77.577Z"/><path class="cls-1" d="M203.158,75.854h3.07a.155.155,0,0,1,.175.157.145.145,0,0,1-.092.147,4.452,4.452,0,0,0,0,7.927.145.145,0,0,1,.092.147.156.156,0,0,1-.175.157h-3.07a.287.287,0,0,1-.286-.286V76.14A.287.287,0,0,1,203.158,75.854Z"/><path class="cls-1" d="M211.726,83.218a19.317,19.317,0,0,0,3.725.01c.268-.019.258.258.028.313-.175.046-.2.111-.276.239s-.139.194-.361.2a13.676,13.676,0,0,1-3.752-.23,2.374,2.374,0,0,1-1.623-1.816,4.718,4.718,0,0,1-1.972,2.277c-.231.147-.4-.047-.2-.231a5.479,5.479,0,0,0,1.9-3.733c.009-.092.064-.129.175-.11.3.046.922.3.922.479,0,.147-.175.194-.452.184-.055.212-.119.443-.193.664a2.126,2.126,0,0,0,1.438,1.6V79.476h-2.923c-.12,0-.2-.037-.2-.184s.083-.184.2-.184h5.532c.185-.268.424-.563.562-.563.176,0,.821.516.821.728,0,.129-.147.2-.5.2H211.92a.125.125,0,0,1,.083.111c0,.1-.092.175-.277.23v1.291h1.245c.2-.305.461-.664.618-.664.193,0,.857.581.857.811,0,.138-.2.221-.507.221h-2.213ZM208.748,77.6v.184c-.046.6-.378,1.06-.857,1.06a.343.343,0,0,1-.359-.359c0-.378.414-.415.636-.867a1.868,1.868,0,0,0,.11-.746c0-.212.249-.24.332-.037.037.12.074.258.1.4h2.369a10.919,10.919,0,0,0-.027-1.124.115.115,0,0,1,.128-.138c.157,0,1.07.027,1.07.276,0,.184-.194.258-.48.323v.663h2.2c.157-.166.332-.341.433-.341.167,0,.775.507.775.783-.01.185-.239.2-.489.268a9.291,9.291,0,0,1-.792.562c-.2.12-.361-.018-.241-.23A5.146,5.146,0,0,0,214,77.6Z"/><path class="cls-1" d="M218.378,83.965c0,.2-.129.3-.415.3a.227.227,0,0,1-.249-.258c0-.59.055-3.355.009-4.673a8.451,8.451,0,0,1-1.079,1.244c-.193.194-.414.018-.249-.212a10.452,10.452,0,0,0,2.084-4.285c.018-.1.055-.148.166-.139.332.065.95.35.95.553.009.157-.175.2-.452.166a12.454,12.454,0,0,1-.912,1.889c.23.093.516.241.516.369s-.157.185-.351.212c-.027.442-.027,1.89-.027,2.185Zm3.9-5.217a5.422,5.422,0,0,0,2.812,3.171c.3.1.156.221.009.276a.75.75,0,0,0-.369.286c-.1.166-.175.23-.423.11a6.392,6.392,0,0,1-2.223-3.4V80c0,.645.038,3.539.038,3.926,0,.212-.121.323-.416.323a.251.251,0,0,1-.277-.268c0-.415.084-3.143.084-3.8v-.443a7.625,7.625,0,0,1-2.7,3.1c-.248.157-.424-.046-.212-.239a9.823,9.823,0,0,0,2.591-3.853h-2.084c-.12,0-.2-.037-.2-.184s.083-.185.2-.185h2.407a17.1,17.1,0,0,0-.121-2.221.107.107,0,0,1,.121-.129c.59,0,1.069.056,1.069.277,0,.156-.194.248-.47.313-.009.322-.019,1.05-.019,1.76h1.43c.2-.3.46-.654.608-.654.194,0,.848.571.848.8,0,.138-.184.221-.5.221Z"/><path class="cls-1" d="M231.98,77.034c.157-.2.341-.424.461-.424.212,0,.812.451.812.663,0,.138-.175.24-.379.314-.064,1.355.037,5.419.037,6.1,0,.286-.2.36-.47.36a.284.284,0,0,1-.3-.314v-.395h-3.789v.506c0,.212-.138.332-.443.332a.248.248,0,0,1-.276-.277c0-1.106.111-5.806-.037-7.143a.121.121,0,0,1,.129-.129,2.315,2.315,0,0,1,.95.406Zm.194,2.977c0-1.125.009-2.176,0-2.609h-3.7l-.092.019c-.037.488-.046,1.935-.046,2.59Zm-.018,2.958c0-.654.009-1.622.018-2.59h-3.835l.018,2.59Z"/><path class="cls-1" d="M238.806,84.1a.286.286,0,0,1-.285.286h-3.07a.156.156,0,0,1-.176-.157.144.144,0,0,1,.093-.147,4.452,4.452,0,0,0,0-7.927.144.144,0,0,1-.093-.147.156.156,0,0,1,.176-.157h3.07a.286.286,0,0,1,.285.286Z"/><path class="cls-1" d="M242.611,78.693c.148-.185.341-.387.443-.387.193,0,.756.47.756.663,0,.111-.157.221-.35.3a6.1,6.1,0,0,1-3,4.148c-.239.147-.451-.12-.221-.3a6.454,6.454,0,0,0,2.48-4.056h-2.185c-.12,0-.2-.037-.2-.184s.083-.184.2-.184Zm6.085,4.1a.724.724,0,0,0-.423.3.287.287,0,0,1-.443.12A6.169,6.169,0,0,1,244.8,78.8c0,1.483.019,3.216.01,4.644a.735.735,0,0,1-.71.83c-.313,0-.194-.323-.839-.535-.2-.082-.175-.3.018-.3s.406.028.554.028c.193,0,.3-.074.322-.359.037-.664.018-2.157.018-3.143,0-.692,0-2.867-.11-3.807-.009-.12.028-.157.176-.157.6,0,1.078.1,1.078.3,0,.148-.176.231-.488.314-.01.212-.01.442-.019.691a9.548,9.548,0,0,0,.82,2.507,8.322,8.322,0,0,0,1.964-2.175c.037-.074.074-.129.175-.083.3.111.867.488.84.673-.019.148-.2.175-.462.1a9.377,9.377,0,0,1-2.351,1.8,5.193,5.193,0,0,0,2.886,2.369C248.973,82.591,248.9,82.721,248.7,82.794Z"/><path class="cls-1" d="M256.813,83.347c.175-.248.4-.534.516-.534.176,0,.784.507.784.709,0,.13-.147.194-.47.194h-3.789v.258c0,.2-.13.3-.4.3a.222.222,0,0,1-.241-.249c.01-.322.037-1.981.019-2.968a4.374,4.374,0,0,1-.682.692c-.111.092-.222.082-.268.018,0,.406.01.719.01.857,0,.286-.167.35-.416.35-.211,0-.276-.165-.276-.313v-.608h-.968v.885c0,.211-.12.313-.4.313-.175,0-.249-.092-.249-.268,0-1,.1-5.133-.036-6.368a.126.126,0,0,1,.129-.13,2.233,2.233,0,0,1,.792.351h.582c.138-.185.3-.387.414-.387.185,0,.729.415.729.617,0,.12-.166.212-.332.286-.037.8-.009,2.894.009,4.212l.028-.036a5.732,5.732,0,0,0,1.281-2.36.136.136,0,0,1,.175-.111c.314.074.766.295.766.452.009.129-.12.193-.4.175-.055.111-.129.249-.221.4l.009.009h1.1a5.47,5.47,0,0,0,.258-.921c0-.074.064-.129.165-.12.369.055.794.258.784.433-.018.1-.194.147-.378.147-.111.176-.2.324-.3.461h1.245c.157-.23.341-.479.452-.479a1.33,1.33,0,0,1,.7.664c0,.129-.147.184-.4.184h-1.669v.018c0,.093-.065.157-.2.194v.461h.793c.147-.221.332-.461.442-.461.157,0,.692.47.692.655,0,.119-.138.174-.406.174h-1.521v.692h.876c.156-.231.341-.47.451-.47.157,0,.7.47.7.663.009.12-.129.175-.414.175h-1.614v.793ZM250.664,77.2c-.028.414-.037,1.428-.037,2.073h1V77.2Zm.949,4.479.009-2.037h-1V79.8l.009,1.88Zm2.646-3.2v-.673h-1.337c-.12,0-.2-.037-.2-.184s.082-.184.2-.184h1.347v-.646h-1.411c-.12,0-.2-.037-.2-.184s.083-.185.2-.185h1.263c.12-.166.276-.35.369-.35.166,0,.664.378.664.562,0,.111-.138.194-.277.249-.009.516.009,1.779.009,2.056s-.138.35-.368.35c-.212,0-.268-.166-.268-.313v-.13h-1.485c-.119,0-.2-.036-.2-.184s.083-.184.2-.184Zm.821,2.645v-.673h-1a1.1,1.1,0,0,1-.222.065c-.009.129-.009.36-.019.608Zm0,.368h-1.236v.692h1.236Zm-1.226,1.853h1.226v-.793h-1.236ZM257,78.481v-.673H255.55c-.12,0-.2-.037-.2-.184s.082-.184.2-.184h1.457v-.646h-1.494c-.12,0-.2-.037-.2-.184s.082-.185.2-.185h1.337c.129-.175.295-.378.4-.378.176,0,.692.4.692.6,0,.12-.147.2-.3.259-.009.571.009,1.815.009,2.111s-.138.35-.387.35c-.212,0-.268-.166-.268-.314v-.2h-1.5c-.12,0-.2-.036-.2-.184s.084-.184.2-.184Z"/><path class="cls-1" d="M264.968,77.034c.156-.2.341-.424.46-.424.213,0,.812.451.812.663,0,.138-.175.24-.378.314-.065,1.355.037,5.419.037,6.1,0,.286-.2.36-.471.36a.284.284,0,0,1-.3-.314v-.395h-3.789v.506c0,.212-.138.332-.443.332a.248.248,0,0,1-.276-.277c0-1.106.111-5.806-.037-7.143a.121.121,0,0,1,.129-.129,2.3,2.3,0,0,1,.95.406Zm.193,2.977c0-1.125.009-2.176,0-2.609h-3.7l-.092.019c-.037.488-.046,1.935-.046,2.59Zm-.018,2.958c0-.654.009-1.622.018-2.59h-3.835l.018,2.59Z"/><g class="cls-2"><rect class="cls-1" width="345" height="90"/></g><path class="cls-1" d="M138.314,8.275h-1.835v9.393h1.835v.318h-2.556V7.957h2.556Z"/><path class="cls-1" d="M146.668,10.374a1.849,1.849,0,0,0-.064-.721.36.36,0,0,0-.244-.191,1.645,1.645,0,0,0-.307-.053c-.085-.01-.138-.032-.138-.063s.021-.085.106-.149a.749.749,0,0,1,.456-.137,1.392,1.392,0,0,1,.689.233c.266.159.435.339.435.5a.252.252,0,0,1-.106.222.572.572,0,0,0-.2.319,4.477,4.477,0,0,0-.074.806,3.058,3.058,0,0,0,.838-.4.912.912,0,0,1,.615-.2c.234,0,.414.127.414.307a.312.312,0,0,1-.2.287,8.865,8.865,0,0,1-1.675.6c-.022.636-.043,1.3-.032,1.972a4.829,4.829,0,0,1,2.439-.774,2.241,2.241,0,0,1,1.41.456,1.53,1.53,0,0,1,.626,1.219,1.5,1.5,0,0,1-.583,1.187,2.006,2.006,0,0,1-1.283.414,2.232,2.232,0,0,1-1.952-.944.329.329,0,0,1-.042-.159.09.09,0,0,1,.085-.084.161.161,0,0,1,.127.063,2.181,2.181,0,0,0,1.5.594,1.47,1.47,0,0,0,1.019-.35,1.122,1.122,0,0,0,.36-.922,1.1,1.1,0,0,0-.4-.849,1.419,1.419,0,0,0-.965-.286,3.34,3.34,0,0,0-1.5.488c-.276.159-.562.318-.828.477.011.53.032,1.06.054,1.431.01.127.021.35.021.4a1.467,1.467,0,0,1-.075.466c-.127.382-.243.509-.413.509-.149,0-.233-.063-.286-.275a.776.776,0,0,0-.276-.371c-.308-.286-.6-.509-.965-.785a1.193,1.193,0,0,0-.339.35.246.246,0,0,1-.234.149.75.75,0,0,1-.435-.213.939.939,0,0,1-.4-.731c0-.138.032-.244.1-.244a.156.156,0,0,1,.106.074.631.631,0,0,0,.159.223.248.248,0,0,0,.159.074.743.743,0,0,0,.339-.117c.732-.413,1.294-.795,1.941-1.187,0-.806.021-1.452.032-2.12a5.973,5.973,0,0,1-1.167.137,1.078,1.078,0,0,1-.912-.519.9.9,0,0,1-.159-.392.105.105,0,0,1,.1-.106c.042,0,.084.021.138.085a.969.969,0,0,0,.763.413,5.582,5.582,0,0,0,1.241-.18Zm-.032,4.156c-.4.3-.827.636-1.166.9a4.854,4.854,0,0,0,.731.4,1.043,1.043,0,0,0,.329.106c.085,0,.106-.043.106-.2Zm5.589-3.16a1.127,1.127,0,0,1,.509.881.306.306,0,0,1-.318.318.329.329,0,0,1-.212-.074.38.38,0,0,0-.244-.085,1.287,1.287,0,0,0-.308.074c-.212.074-.361.138-.53.191a.493.493,0,0,1-.106.021.092.092,0,0,1-.085-.085c0-.042.021-.074.085-.116a6.434,6.434,0,0,0,.679-.53.138.138,0,0,0,.042-.107.2.2,0,0,0-.053-.117,1.337,1.337,0,0,0-1-.466,1.524,1.524,0,0,0-.636.17.464.464,0,0,1-.138.053.107.107,0,0,1-.106-.106.167.167,0,0,1,.085-.148,1.81,1.81,0,0,1,1.071-.35A2.24,2.24,0,0,1,152.225,11.37Z"/><path class="cls-1" d="M156.706,9.929c-.011.774-.266,1.378-.807,1.378a.394.394,0,0,1-.392-.4c0-.191.053-.275.34-.435a1.378,1.378,0,0,0,.678-1.2c.011-.064.127-.075.138-.011.022.138.032.276.043.4h3.1V8.847h-2.238a3.565,3.565,0,0,0-.721.064l-.106-.392a5.913,5.913,0,0,0,.817.063h5.069c.456-.508.53-.562.594-.562s.148.054.636.425c.212.169.265.233.265.3s-.042.106-.138.106h-3.457v.817h3.33c.308-.339.361-.382.435-.382s.128.043.573.435c.191.17.233.244.233.307,0,.149-.106.2-.446.2-.106,0-.137.01-.265.158a4.227,4.227,0,0,1-.678.573c-.032.021-.085-.021-.075-.063a7.117,7.117,0,0,0,.308-.965h-3.415v.477c0,.88.032,1.685.032,1.919s-.159.339-.467.339c-.254,0-.339-.085-.339-.329,0-.127.053-.583.053-1.452V9.929Zm-.2,1.876a2.365,2.365,0,0,0,.594.064h1.071c.318-.392.392-.445.456-.445s.148.053.509.36c.159.117.2.181.2.244s-.031.106-.137.106H157.13a3.972,3.972,0,0,0-.53.053Zm3.977,4.707c0,.477.127.52,1.7.52,1.463,0,1.792-.032,2.014-.2.191-.17.287-.478.552-1.326.011-.053.138-.021.127.032-.042.36-.074.827-.074.933,0,.148.032.18.127.233a.339.339,0,0,1,.2.329c0,.233-.17.4-.509.509a11.713,11.713,0,0,1-2.662.159c-1.824,0-2.216-.181-2.216-1.06,0-.181,0-.372.01-.732h-2.216v.276c0,.243-.138.339-.467.339-.223,0-.318-.085-.318-.255,0-.233.043-.646.043-2.014a14.172,14.172,0,0,0-.064-1.632,6.322,6.322,0,0,1,.9.4h5.133c.318-.349.371-.392.435-.392s.137.043.509.34c.169.126.2.19.2.254,0,.1-.053.159-.286.318v.583c0,1.113.032,1.643.032,1.8,0,.244-.17.35-.467.35-.233,0-.329-.074-.329-.276v-.1h-2.375Zm-3.606-5.788a2.872,2.872,0,0,0,.583.053h.764c.286-.371.371-.424.424-.424s.149.053.509.36c.128.106.18.17.18.234s-.031.1-.137.1h-1.719a2.758,2.758,0,0,0-.508.053Zm.658,2.565v1.018h2.216V13.289Zm2.216,1.283h-2.216v1.071h2.216Zm.732-.265h2.375V13.289h-2.375Zm2.375,1.336V14.572h-2.375v1.071Zm-1.9-4.919a2.711,2.711,0,0,0,.573.053h.795c.308-.371.393-.424.445-.424s.149.053.5.339c.138.117.18.191.18.255s-.032.1-.127.1h-1.771a2.585,2.585,0,0,0-.5.053Zm.021,1.081a2.5,2.5,0,0,0,.6.064h1.177c.35-.414.424-.466.488-.466s.148.052.551.371c.159.127.2.191.2.254s-.031.106-.127.106h-2.248a4.1,4.1,0,0,0-.551.053Z"/><path class="cls-1" d="M167.676,10.162a3.915,3.915,0,0,0,.775.074h2.057c.392-.445.467-.5.53-.5s.148.053.562.382c.17.138.223.222.223.286s-.032.095-.138.095h-3.224a3.162,3.162,0,0,0-.678.064Zm.382-1.41a3.286,3.286,0,0,0,.764.085h1.2c.4-.456.478-.509.541-.509s.148.053.573.382c.169.159.222.222.222.286s-.031.106-.138.106h-2.4a2.993,2.993,0,0,0-.658.064Zm.022,2.831a3.046,3.046,0,0,0,.721.084h1.336c.339-.434.424-.487.487-.487s.138.053.531.392c.148.127.2.2.2.265s-.031.1-.138.1H168.8a3.493,3.493,0,0,0-.615.064Zm.021,1.378a3.051,3.051,0,0,0,.721.085h1.325c.361-.424.435-.477.5-.477s.148.053.53.371c.159.127.212.212.212.275s-.032.1-.138.1h-2.428a3.278,3.278,0,0,0-.594.063Zm.816,4.548c0,.223-.138.329-.424.329-.212,0-.329-.075-.329-.265,0-.213.032-.573.032-1.792,0-.742,0-1.145-.042-1.675a6.669,6.669,0,0,1,.827.4h1.389c.3-.34.36-.382.424-.382s.127.042.424.286c.159.138.213.2.213.276s-.064.138-.287.286v.573c0,1.113.032,1.685.032,1.844,0,.223-.138.318-.435.318-.2,0-.3-.074-.3-.265V17.18h-1.527Zm1.527-2.735h-1.527v2.141h1.527Zm2.545,2.745c0,.223-.148.34-.434.34-.255,0-.361-.1-.361-.286,0-.255.042-.679.042-2.121a14.242,14.242,0,0,0-.074-1.8,4.3,4.3,0,0,1,.923.424h.922V11.911h-1.558a3.642,3.642,0,0,0-.743.064l-.106-.414a4.018,4.018,0,0,0,.849.085h1.558V9.59a16.68,16.68,0,0,1-2.014.233c-.075,0-.1-.159-.022-.17a14.305,14.305,0,0,0,3.108-.986,2.891,2.891,0,0,0,.89-.593c.753.572.838.646.838.752,0,.085-.148.138-.519.085a9.5,9.5,0,0,1-1.517.509v2.226h1.294c.477-.572.551-.615.615-.615s.159.043.647.456c.222.191.265.254.265.318s-.032.106-.138.106h-2.683v2.163h1.061c.318-.361.371-.4.435-.4s.137.042.477.318c.169.149.212.212.212.276s-.032.116-.3.307v.711c0,1.314.042,1.993.042,2.184,0,.233-.159.349-.467.349-.212,0-.328-.095-.328-.275v-.372h-2.917Zm2.917-3.18h-2.917v2.566h2.917Z"/><path class="cls-1" d="M184.64,11.212a.983.983,0,0,1,.838.434,2.223,2.223,0,0,1,.307,1.262,6.808,6.808,0,0,1-.414,2.247,3.469,3.469,0,0,1-.827,1.357,1.4,1.4,0,0,1-.944.477c-.244,0-.35-.063-.392-.275a.7.7,0,0,0-.159-.382c-.17-.2-.361-.4-.615-.668a.14.14,0,0,1-.053-.106c0-.042.053-.117.106-.117a.192.192,0,0,1,.116.054c.308.211.563.381.838.54a.7.7,0,0,0,.308.075.55.55,0,0,0,.4-.2,3.664,3.664,0,0,0,.753-1.442,7.041,7.041,0,0,0,.275-1.8,1.44,1.44,0,0,0-.18-.89.487.487,0,0,0-.456-.181,3.066,3.066,0,0,0-.732.127c-.329.679-.626,1.347-.943,1.962-.552,1.071-1.029,2-1.6,2.979a.4.4,0,0,1-.371.212.314.314,0,0,1-.339-.3.656.656,0,0,1,.137-.392c.626-.944,1.2-1.9,1.729-2.873.276-.52.509-.955.721-1.4-.392.138-.806.308-1.113.435a1.147,1.147,0,0,0-.308.159.382.382,0,0,1-.265.117.711.711,0,0,1-.477-.255,1.183,1.183,0,0,1-.4-.742c0-.116.053-.255.106-.255s.064.022.117.1c.191.244.349.392.519.392a3.241,3.241,0,0,0,.764-.138c.371-.084.774-.19,1.283-.328a11.722,11.722,0,0,0,.477-1.283,1.221,1.221,0,0,0,.074-.413c0-.1-.021-.149-.159-.244a1.487,1.487,0,0,0-.467-.159c-.106-.021-.148-.042-.148-.1s.064-.095.138-.137a.919.919,0,0,1,.382-.085,1.726,1.726,0,0,1,1.061.445.442.442,0,0,1,.169.35c0,.106-.063.18-.2.243a.738.738,0,0,0-.254.34c-.127.286-.276.594-.424.922A3.321,3.321,0,0,1,184.64,11.212Zm4.22,3.265a.485.485,0,0,1-.307-.117.6.6,0,0,0-.393-.116c-.339,0-.71.021-1.2.053a.132.132,0,0,1-.149-.138c0-.064.032-.106.117-.127a9.4,9.4,0,0,0,1.188-.3c.127-.043.17-.074.17-.191a1.734,1.734,0,0,0-.361-.817,4.542,4.542,0,0,0-1.166-1.112.221.221,0,0,1-.107-.149c0-.053.064-.106.159-.106a.2.2,0,0,1,.1.021,4.212,4.212,0,0,1,1.485,1.007,2.522,2.522,0,0,1,.848,1.633C189.242,14.339,189.062,14.477,188.86,14.477Z"/><path class="cls-1" d="M195.473,9.717a1.5,1.5,0,0,1-.446-.976c0-.095.042-.127.085-.127s.085.021.138.117a2.362,2.362,0,0,0,1.326.975,1.7,1.7,0,0,1,.625.34.6.6,0,0,1,.223.455.287.287,0,0,1-.286.3.964.964,0,0,1-.329-.053,1.583,1.583,0,0,0-.509-.063,3.893,3.893,0,0,0-1.337.307c-.169.074-.265.18-.265.286a.739.739,0,0,0,.085.286,1.155,1.155,0,0,1,.085.456,6.11,6.11,0,0,1-.074.743,11.263,11.263,0,0,0-.138,1.526c0,.043.01.074.053.074s.063-.01.127-.063a11.183,11.183,0,0,1,1.421-.955,3.784,3.784,0,0,1,1.962-.625,2.267,2.267,0,0,1,1.655.594,1.6,1.6,0,0,1,.5,1.166,2.427,2.427,0,0,1-1.707,2.131,8.863,8.863,0,0,1-3.362.7c-.117,0-.212-.032-.212-.128a.181.181,0,0,1,.159-.159,9.1,9.1,0,0,0,2.969-.911c.848-.488,1.336-1.071,1.336-1.75a1.319,1.319,0,0,0-.371-.986,1.514,1.514,0,0,0-1.028-.328,2.606,2.606,0,0,0-1.4.456,6.5,6.5,0,0,0-1.294,1.092,2.733,2.733,0,0,0-.562.784c-.064.2-.138.276-.308.276-.137,0-.276-.106-.4-.308a1.133,1.133,0,0,1-.169-.615,11.958,11.958,0,0,1,.254-2.162,4.1,4.1,0,0,0,.085-.806c0-.117-.021-.265-.021-.4a.7.7,0,0,1,.413-.615,6.554,6.554,0,0,1,1.336-.53A2.347,2.347,0,0,1,195.473,9.717Z"/><path class="cls-1" d="M209.242,7.957V17.975h-2.556v-.317h1.835V8.275h-1.835V7.957Z"/><path class="cls-1" d="M7.452,21.863a.1.1,0,0,1-.046.083,4.623,4.623,0,0,0-.015,7.029c.053.045.061.068.061.091a.04.04,0,0,1-.046.045.2.2,0,0,1-.1-.038,5.408,5.408,0,0,1-1.514-1.634,3.849,3.849,0,0,1,0-3.949,5.27,5.27,0,0,1,1.537-1.65.167.167,0,0,1,.075-.023A.044.044,0,0,1,7.452,21.863Z"/><path class="cls-1" d="M13.759,26.735a1.262,1.262,0,0,1,.469.711.292.292,0,0,1-.31.318c-.106,0-.2-.068-.325-.235A5.522,5.522,0,0,0,11.8,25.85a7.787,7.787,0,0,1-1.476,1.279,7.137,7.137,0,0,1-1.476.771.6.6,0,0,1-.2.053.1.1,0,0,1-.083-.091.13.13,0,0,1,.075-.1A9.532,9.532,0,0,0,11.087,25.9a9.437,9.437,0,0,0,1.431-1.922.141.141,0,0,0,.03-.068c0-.015-.015-.015-.06-.015a19.186,19.186,0,0,0-1.976.288.983.983,0,0,0-.31.1.387.387,0,0,1-.219.076.723.723,0,0,1-.47-.349.746.746,0,0,1-.2-.431c0-.076.038-.159.076-.159s.083.046.128.091c.2.19.333.288.5.288.121,0,.378-.023.6-.046.59-.06,1.219-.121,1.771-.2a.417.417,0,0,0,.257-.114.242.242,0,0,1,.182-.083c.113,0,.2.038.355.181.205.19.265.273.265.364,0,.075-.037.105-.189.166a.679.679,0,0,0-.318.28,12.287,12.287,0,0,1-.969,1.317A5.792,5.792,0,0,1,13.759,26.735Z"/><path class="cls-1" d="M21.051,24.594c.068-.083.091-.121.091-.144s-.016-.03-.06-.03-.129.008-.25.015c-1.083.106-2.263.235-3.346.417a.983.983,0,0,0-.477.143.287.287,0,0,1-.2.053c-.137,0-.28-.106-.477-.31a.762.762,0,0,1-.28-.5c0-.1.038-.143.075-.143s.061.022.107.068a1.687,1.687,0,0,0,.219.166.575.575,0,0,0,.371.091c.121,0,.3-.008.552-.03,1.2-.1,2.354-.212,3.52-.333a.565.565,0,0,0,.257-.068.31.31,0,0,1,.212-.1c.121,0,.25.091.431.258.212.2.348.355.348.484s-.083.166-.272.166a.466.466,0,0,0-.333.159,18.327,18.327,0,0,1-1.968,1.506c.462.461.552.689.552.9a.3.3,0,0,1-.31.31c-.128,0-.235-.09-.34-.279a5.054,5.054,0,0,0-.522-.78,5,5,0,0,0-.969-.87.111.111,0,0,1-.061-.1.093.093,0,0,1,.1-.091.745.745,0,0,1,.2.053,4.478,4.478,0,0,1,1.12.681A16.175,16.175,0,0,0,21.051,24.594Z"/><path class="cls-1" d="M28.2,24.314a.756.756,0,0,0,.424-.121.38.38,0,0,1,.2-.06,1.44,1.44,0,0,1,.613.174c.128.075.189.135.189.272a.191.191,0,0,1-.2.182c-.1,0-.227-.031-.355-.038a4.365,4.365,0,0,0-.575-.031c-.3,0-.833.016-1.491.053.007.726,0,1.332.015,1.869.015.484.037.711.037.893a.9.9,0,0,1-.113.439c-.136.2-.257.31-.378.31-.1,0-.152-.038-.189-.212a.34.34,0,0,0-.2-.257c-.166-.091-.4-.2-.582-.28-.091-.045-.106-.076-.106-.121a.076.076,0,0,1,.076-.076,1.331,1.331,0,0,1,.158.015c.228.038.6.083.689.083s.129-.022.129-.135c.007-.3.007-.652.007-1.128V24.783c-.484.053-.938.106-1.453.19a1.344,1.344,0,0,0-.348.083c-.091.052-.128.1-.235.1-.143,0-.287-.083-.468-.31-.144-.19-.182-.273-.182-.386,0-.046.022-.144.061-.144s.09.068.158.128a.546.546,0,0,0,.424.19,4.087,4.087,0,0,0,.439-.023c.424-.045.977-.1,1.6-.151,0-.341,0-.749-.008-1a.489.489,0,0,0-.03-.227.269.269,0,0,0-.189-.105c-.083-.016-.159-.023-.22-.031-.045-.008-.075-.023-.075-.06s.037-.1.128-.144a.693.693,0,0,1,.349-.106,1.1,1.1,0,0,1,.537.189c.143.1.2.152.2.265,0,.083-.068.136-.121.189s-.076.113-.084.287-.015.409-.022.7C27.457,24.375,27.9,24.337,28.2,24.314Zm-2.884,1.377a2.381,2.381,0,0,1-.045.5,1.688,1.688,0,0,1-.311.7.782.782,0,0,1-.552.356.26.26,0,0,1-.287-.265c0-.152.06-.257.28-.378a1.554,1.554,0,0,0,.454-.386,1.672,1.672,0,0,0,.265-.56c.022-.091.06-.113.106-.113S25.315,25.6,25.315,25.691Zm2.793-.159a3.234,3.234,0,0,1,.87.5,1.016,1.016,0,0,1,.432.688c0,.242-.114.371-.333.371-.144,0-.235-.076-.318-.31a2.594,2.594,0,0,0-.8-1.09.183.183,0,0,1-.076-.121.085.085,0,0,1,.091-.076A.386.386,0,0,1,28.108,25.532Z"/><path class="cls-1" d="M34.272,24.208a.7.7,0,0,1,.6.311,1.572,1.572,0,0,1,.219.9,4.871,4.871,0,0,1-.3,1.6,2.469,2.469,0,0,1-.59.968,1,1,0,0,1-.673.341c-.175,0-.25-.046-.281-.2a.5.5,0,0,0-.113-.273c-.121-.143-.258-.287-.439-.476a.1.1,0,0,1-.038-.076c0-.03.038-.083.076-.083a.136.136,0,0,1,.083.038c.22.151.4.272.6.385a.485.485,0,0,0,.219.054.393.393,0,0,0,.288-.144,2.61,2.61,0,0,0,.537-1.029,5.006,5.006,0,0,0,.2-1.286,1.032,1.032,0,0,0-.128-.636.349.349,0,0,0-.326-.128,2.174,2.174,0,0,0-.522.09c-.235.485-.447.961-.674,1.4-.393.764-.734,1.43-1.142,2.126a.284.284,0,0,1-.265.151.224.224,0,0,1-.243-.211.467.467,0,0,1,.1-.28c.446-.674.855-1.355,1.233-2.051.2-.37.364-.681.515-1-.28.1-.575.219-.794.31a.814.814,0,0,0-.22.113.273.273,0,0,1-.19.084.51.51,0,0,1-.34-.182.847.847,0,0,1-.287-.53c0-.083.038-.182.075-.182s.046.016.084.069c.135.174.249.28.37.28a2.294,2.294,0,0,0,.545-.1c.265-.06.552-.136.916-.234a8.441,8.441,0,0,0,.341-.916.858.858,0,0,0,.052-.294c0-.069-.014-.107-.113-.175a1.061,1.061,0,0,0-.333-.113c-.076-.015-.106-.031-.106-.068s.045-.068.1-.1a.652.652,0,0,1,.273-.061,1.23,1.23,0,0,1,.756.317.318.318,0,0,1,.122.25c0,.076-.045.129-.144.174a.525.525,0,0,0-.182.242c-.09.205-.2.424-.3.659A2.291,2.291,0,0,1,34.272,24.208Zm3.013,2.331a.349.349,0,0,1-.22-.083.423.423,0,0,0-.28-.084c-.243,0-.507.015-.855.038a.094.094,0,0,1-.106-.1c0-.046.022-.076.083-.091a6.494,6.494,0,0,0,.847-.212c.091-.03.121-.053.121-.136a1.235,1.235,0,0,0-.256-.583,3.264,3.264,0,0,0-.833-.794.161.161,0,0,1-.076-.106c0-.038.045-.076.114-.076a.139.139,0,0,1,.068.015,3,3,0,0,1,1.06.719,1.8,1.8,0,0,1,.605,1.165C37.557,26.44,37.428,26.539,37.285,26.539Z"/><path class="cls-1" d="M40.875,23.141a1.066,1.066,0,0,1-.318-.7c0-.068.03-.091.061-.091s.06.016.1.084a1.687,1.687,0,0,0,.947.7,1.192,1.192,0,0,1,.446.242.43.43,0,0,1,.159.326.205.205,0,0,1-.2.211.682.682,0,0,1-.234-.038,1.13,1.13,0,0,0-.364-.045,2.772,2.772,0,0,0-.953.219c-.121.053-.189.129-.189.205a.529.529,0,0,0,.06.2.814.814,0,0,1,.061.325,4.332,4.332,0,0,1-.053.53,8.155,8.155,0,0,0-.1,1.089c0,.031.008.054.039.054s.044-.008.09-.046a8,8,0,0,1,1.014-.681,2.708,2.708,0,0,1,1.4-.446,1.618,1.618,0,0,1,1.181.423,1.142,1.142,0,0,1,.356.833,1.733,1.733,0,0,1-1.219,1.521,6.3,6.3,0,0,1-2.4.5c-.083,0-.151-.022-.151-.09a.13.13,0,0,1,.113-.114,6.467,6.467,0,0,0,2.119-.65c.606-.348.954-.764.954-1.248a.94.94,0,0,0-.265-.7,1.077,1.077,0,0,0-.734-.235,1.868,1.868,0,0,0-1,.325,4.676,4.676,0,0,0-.923.779,1.986,1.986,0,0,0-.4.561c-.045.143-.1.2-.219.2-.1,0-.2-.075-.288-.219a.814.814,0,0,1-.121-.439,8.583,8.583,0,0,1,.182-1.543,2.976,2.976,0,0,0,.061-.575c0-.083-.016-.19-.016-.288a.5.5,0,0,1,.3-.439,4.66,4.66,0,0,1,.953-.378A1.694,1.694,0,0,1,40.875,23.141Z"/><path class="cls-1" d="M47.569,25.85a.3.3,0,0,1-.023.106,1.344,1.344,0,0,0-.09.5.762.762,0,0,0,.484.741,2.867,2.867,0,0,0,1.37.249,4.477,4.477,0,0,0,1.294-.159,1.454,1.454,0,0,1,.462-.068c.28,0,.484.129.484.326s-.159.272-.431.31a11.385,11.385,0,0,1-1.688.121A3.667,3.667,0,0,1,48,27.734a1.264,1.264,0,0,1-.62-1.876.124.124,0,0,1,.1-.076C47.524,25.782,47.569,25.812,47.569,25.85Zm.492-1.937a1.159,1.159,0,0,1-.477-.371.128.128,0,0,1-.03-.09.082.082,0,0,1,.075-.083.174.174,0,0,1,.1.037,1.43,1.43,0,0,0,.507.2,3.012,3.012,0,0,0,.56.045,5.073,5.073,0,0,0,.719-.068,4.442,4.442,0,0,0,.674-.151.9.9,0,0,1,.219-.053.95.95,0,0,1,.273.038c.189.06.249.159.249.295s-.091.219-.347.242a4.96,4.96,0,0,0-1.053.182,5.452,5.452,0,0,0-1.248.749.419.419,0,0,1-.167.068.116.116,0,0,1-.083-.084.294.294,0,0,1,.083-.121c.167-.151.5-.438.772-.68A2.021,2.021,0,0,1,48.061,23.913Zm3.11-1.271a1.709,1.709,0,0,1,.659.378c.182.159.288.3.288.454a.212.212,0,0,1-.212.228c-.1,0-.182-.069-.25-.205a2.611,2.611,0,0,0-.636-.726.121.121,0,0,1-.053-.076.078.078,0,0,1,.083-.076A.4.4,0,0,1,51.171,22.642Zm.659-.507a1.791,1.791,0,0,1,.606.295c.181.129.348.3.348.477a.215.215,0,0,1-.2.242c-.1,0-.16-.038-.243-.182a2.309,2.309,0,0,0-.7-.711.091.091,0,0,1-.053-.075.075.075,0,0,1,.076-.076A.988.988,0,0,1,51.83,22.135Z"/><path class="cls-1" d="M57.729,28.09c0,.249.121.279.908.279.652,0,.871-.022,1.015-.136s.226-.31.378-.787c.015-.038.091-.03.091.008v.529c.007.129.023.152.121.212a.209.209,0,0,1,.129.22c0,.166-.152.287-.447.355a7.635,7.635,0,0,1-1.362.084c-1.083,0-1.355-.106-1.355-.643,0-.091.007-.167.007-.288v-.461H55.89c.628.174.712.227.712.3s-.068.121-.3.144c-.5.727-1.286,1.036-2.686,1.1-.053,0-.061-.106-.008-.114a3.428,3.428,0,0,0,1.839-.794,1.358,1.358,0,0,0,.409-.635h-.6c0,.151-.1.211-.288.211-.159,0-.242-.045-.242-.181,0-.182.046-.5.046-1.536a8.077,8.077,0,0,0-.046-1.06,4.22,4.22,0,0,1,.591.273h3.148c.219-.242.257-.273.3-.273s.1.031.325.235c.106.106.136.152.136.2s-.037.106-.2.2v.477c0,.878.03,1.3.03,1.43,0,.167-.1.227-.317.227-.152,0-.22-.046-.22-.181v-.023h-.8Zm-1.46-5.032c.181-.189.219-.219.265-.219s.09.03.272.174c.1.083.121.128.121.174s-.023.075-.151.174v.159c0,.226.007.333.007.393,0,.144-.091.2-.3.2-.121,0-.174-.045-.174-.159h-.553v.575h.606c.219-.272.272-.3.318-.3s.113.031.378.235c.106.083.144.136.144.182s-.023.075-.1.075h-2.6v.129c0,.143-.106.212-.3.212-.159,0-.227-.053-.227-.19,0-.189.03-.484.03-1.588a11.147,11.147,0,0,0-.038-1.241,3.546,3.546,0,0,1,.591.3h1.748c.257-.3.3-.333.348-.333s.106.03.4.272c.114.091.144.136.144.182s-.053.068-.128.068h-1.31v.529Zm-.969-.529h-.795v.529H55.3Zm-.795,1.233h1.809v-.514H54.505Zm.795.764v-.575h-.795v.575Zm3.224.832H55.262v.492h3.262Zm-3.262,1.173h3.262v-.492H55.262Zm0,.742h3.262V26.72H55.262ZM59.4,22.99c.287-.333.341-.371.386-.371s.113.038.423.3c.137.105.167.151.167.2s-.023.068-.1.068H57.888a3.611,3.611,0,0,1-.817.848c-.03.022-.1-.031-.076-.061a4.239,4.239,0,0,0,.673-1.241,3.725,3.725,0,0,0,.19-.764c.59.174.711.227.711.318,0,.061-.053.106-.257.136-.106.219-.2.409-.3.575Zm-1.778,1a2.485,2.485,0,0,0,.552.053h1.029c.288-.333.34-.371.386-.371s.106.038.4.287c.136.107.174.152.174.2s-.022.076-.106.076H58.176a2.943,2.943,0,0,0-.477.046Z"/><path class="cls-1" d="M62.894,27.6a2.456,2.456,0,0,1-.734-1.468,6.992,6.992,0,0,1-.091-1.256,8.191,8.191,0,0,0-.023-.961.8.8,0,0,0-.3-.492c-.045-.038-.053-.052-.053-.075,0-.038.06-.046.121-.046a1.011,1.011,0,0,1,.492.25.87.87,0,0,1,.356.59.684.684,0,0,1-.069.235,3.907,3.907,0,0,0-.113,1.082A3.164,3.164,0,0,0,62.66,26.5c.136.341.287.477.393.477.061,0,.113-.037.182-.144.227-.37.553-.922.87-1.429a.2.2,0,0,1,.129-.1.1.1,0,0,1,.091.082.233.233,0,0,1-.031.1c-.234.484-.506,1.082-.628,1.392a1.138,1.138,0,0,0-.106.371.381.381,0,0,0,.046.189.54.54,0,0,1,.075.219c.008.121-.075.227-.249.227A1.02,1.02,0,0,1,62.894,27.6Zm3.565-3.163a2.5,2.5,0,0,1,.825.885,2.123,2.123,0,0,1,.28.961.74.74,0,0,1-.113.447.289.289,0,0,1-.22.121.223.223,0,0,1-.2-.121.483.483,0,0,0-.3-.212c-.128-.038-.287-.076-.469-.121-.091-.023-.121-.046-.121-.1,0-.038.061-.052.136-.06.212-.023.387-.03.553-.061.113-.022.151-.06.151-.173a2.086,2.086,0,0,0-.378-.939,2.563,2.563,0,0,0-.833-.764c-.045-.03-.068-.053-.068-.106s.03-.068.084-.068A2.062,2.062,0,0,1,66.459,24.435Z"/><path class="cls-1" d="M72.388,23.625a.994.994,0,0,1,.273-.083c.121,0,.272.076.272.22.008.128-.075.2-.242.265a12.433,12.433,0,0,1-1.241.408c-.454,1.241-.893,2.489-1.4,3.707-.076.19-.189.258-.31.258a.271.271,0,0,1-.175-.084.354.354,0,0,1-.075-.2.722.722,0,0,1,.1-.287c.53-1.075.976-2.142,1.415-3.292a3.9,3.9,0,0,1-.8.114,1.217,1.217,0,0,1-.734-.249c-.121-.1-.2-.182-.2-.265a.08.08,0,0,1,.068-.076.2.2,0,0,1,.113.038,1.083,1.083,0,0,0,.643.182,5.3,5.3,0,0,0,1.076-.205c.09-.295.158-.514.211-.719a1.347,1.347,0,0,0,.061-.37.215.215,0,0,0-.137-.205,1.277,1.277,0,0,0-.3-.1c-.053-.015-.068-.038-.068-.068s.037-.061.068-.076a.561.561,0,0,1,.288-.083,1.436,1.436,0,0,1,.68.287c.129.1.144.167.144.235a.224.224,0,0,1-.1.189.669.669,0,0,0-.219.333,3.814,3.814,0,0,0-.174.454A7.7,7.7,0,0,0,72.388,23.625Zm-.37,3.133c.045-.083.09-.137.136-.137a.058.058,0,0,1,.06.054.753.753,0,0,1-.022.121,1.375,1.375,0,0,0-.038.348.646.646,0,0,0,.25.529,1.683,1.683,0,0,0,.983.258,3.008,3.008,0,0,0,.787-.076.917.917,0,0,1,.319-.061.77.77,0,0,1,.34.076.273.273,0,0,1,.159.257c0,.144-.144.212-.4.25-.2.023-.56.046-.818.046a2.518,2.518,0,0,1-1.476-.356.9.9,0,0,1-.4-.787A1.062,1.062,0,0,1,72.018,26.758Zm1.21-1.642a2.9,2.9,0,0,0-.961.257.311.311,0,0,1-.083.023c-.038,0-.076-.03-.076-.06a.12.12,0,0,1,.054-.1,1.737,1.737,0,0,1,.506-.31,2.5,2.5,0,0,1,.924-.182,2.322,2.322,0,0,1,.885.151c.174.077.272.144.272.311a.189.189,0,0,1-.211.189.459.459,0,0,1-.174-.038.742.742,0,0,0-.242-.052.616.616,0,0,0-.311.105c-.189.114-.484.318-.741.477a.2.2,0,0,1-.114.045c-.023,0-.068-.052-.068-.083a.131.131,0,0,1,.053-.083c.174-.159.432-.394.719-.613.03-.023.023-.046-.023-.046A4,4,0,0,0,73.228,25.116Z"/><path class="cls-1" d="M79.9,23.663a.99.99,0,0,1,.272-.083c.121,0,.273.076.273.22.007.128-.076.2-.242.265a12.8,12.8,0,0,1-1.242.408c-.454,1.241-.893,2.489-1.4,3.708-.076.188-.189.256-.311.256a.265.265,0,0,1-.173-.083.341.341,0,0,1-.076-.2.721.721,0,0,1,.1-.288c.53-1.074.977-2.141,1.416-3.291a3.917,3.917,0,0,1-.8.114,1.212,1.212,0,0,1-.734-.25c-.121-.1-.2-.181-.2-.265a.08.08,0,0,1,.068-.075.2.2,0,0,1,.114.038,1.08,1.08,0,0,0,.643.181,5.271,5.271,0,0,0,1.074-.2c.091-.295.159-.515.212-.719a1.342,1.342,0,0,0,.061-.371.214.214,0,0,0-.136-.2,1.3,1.3,0,0,0-.3-.1c-.053-.014-.068-.037-.068-.067s.038-.061.068-.076a.565.565,0,0,1,.287-.083,1.442,1.442,0,0,1,.682.287c.128.1.144.167.144.235a.225.225,0,0,1-.1.189.671.671,0,0,0-.219.333,4.414,4.414,0,0,0-.175.454A7.413,7.413,0,0,0,79.9,23.663ZM79.529,26.8c.045-.084.091-.136.136-.136a.059.059,0,0,1,.061.052.717.717,0,0,1-.023.121,1.339,1.339,0,0,0-.038.349.648.648,0,0,0,.25.529,1.686,1.686,0,0,0,.984.258,3.014,3.014,0,0,0,.787-.076A.9.9,0,0,1,82,27.832a.768.768,0,0,1,.341.076.273.273,0,0,1,.159.257c0,.144-.144.212-.4.25-.2.022-.56.045-.817.045a2.5,2.5,0,0,1-1.476-.356.9.9,0,0,1-.4-.786A1.049,1.049,0,0,1,79.529,26.8Zm1.211-1.642a2.886,2.886,0,0,0-.961.257.329.329,0,0,1-.084.023.074.074,0,0,1-.075-.061.122.122,0,0,1,.052-.1,1.748,1.748,0,0,1,.508-.31,2.491,2.491,0,0,1,.923-.182,2.288,2.288,0,0,1,.886.152c.174.075.272.143.272.31a.19.19,0,0,1-.212.189.459.459,0,0,1-.174-.038.745.745,0,0,0-.242-.053.614.614,0,0,0-.31.106c-.19.113-.485.318-.742.476a.2.2,0,0,1-.114.046c-.022,0-.068-.053-.068-.083a.14.14,0,0,1,.053-.084c.174-.158.431-.393.719-.612.031-.023.023-.046-.023-.046A3.97,3.97,0,0,0,80.74,25.154Zm.605-2.323a1.706,1.706,0,0,1,.658.378c.182.16.288.3.288.454a.21.21,0,0,1-.211.227c-.1,0-.182-.067-.25-.2a2.625,2.625,0,0,0-.636-.726.119.119,0,0,1-.053-.076.078.078,0,0,1,.083-.076A.439.439,0,0,1,81.345,22.831ZM82,22.324a1.791,1.791,0,0,1,.606.295.7.7,0,0,1,.348.477.214.214,0,0,1-.2.242c-.1,0-.159-.038-.242-.181a2.305,2.305,0,0,0-.7-.712.091.091,0,0,1-.053-.075.076.076,0,0,1,.076-.076A.971.971,0,0,1,82,22.324Z"/><path class="cls-1" d="M85.61,27.6a2.457,2.457,0,0,1-.735-1.468,7,7,0,0,1-.09-1.256,8.191,8.191,0,0,0-.023-.961.8.8,0,0,0-.3-.492c-.045-.038-.053-.052-.053-.075,0-.038.061-.046.121-.046a1.007,1.007,0,0,1,.492.25.87.87,0,0,1,.356.59.7.7,0,0,1-.068.235,3.862,3.862,0,0,0-.114,1.082,3.164,3.164,0,0,0,.182,1.043c.136.341.288.477.394.477.06,0,.113-.037.181-.144.227-.37.552-.922.871-1.429a.2.2,0,0,1,.128-.1.1.1,0,0,1,.091.082.246.246,0,0,1-.03.1c-.235.484-.508,1.082-.629,1.392a1.13,1.13,0,0,0-.105.371.379.379,0,0,0,.045.189.542.542,0,0,1,.076.219c.007.121-.076.227-.25.227A1.014,1.014,0,0,1,85.61,27.6Zm3.564-3.163A2.5,2.5,0,0,1,90,25.32a2.11,2.11,0,0,1,.28.961.733.733,0,0,1-.113.447.286.286,0,0,1-.22.121.223.223,0,0,1-.2-.121.48.48,0,0,0-.3-.212c-.129-.038-.288-.076-.469-.121-.091-.023-.122-.046-.122-.1,0-.038.061-.052.137-.06.212-.023.385-.03.552-.061.114-.022.152-.06.152-.173a2.077,2.077,0,0,0-.379-.939,2.549,2.549,0,0,0-.832-.764c-.046-.03-.069-.053-.069-.106s.031-.068.083-.068A2.046,2.046,0,0,1,89.174,24.435Z"/><path class="cls-1" d="M95.1,23.625a.99.99,0,0,1,.272-.083c.122,0,.273.076.273.22.007.128-.076.2-.242.265a12.6,12.6,0,0,1-1.241.408c-.455,1.241-.894,2.489-1.4,3.707-.076.19-.189.258-.31.258a.266.266,0,0,1-.174-.084.341.341,0,0,1-.076-.2.722.722,0,0,1,.1-.287c.53-1.075.977-2.142,1.416-3.292a3.917,3.917,0,0,1-.8.114,1.217,1.217,0,0,1-.734-.249c-.121-.1-.2-.182-.2-.265a.08.08,0,0,1,.068-.076.2.2,0,0,1,.114.038,1.081,1.081,0,0,0,.643.182,5.28,5.28,0,0,0,1.074-.205c.091-.295.16-.514.212-.719a1.347,1.347,0,0,0,.061-.37.215.215,0,0,0-.136-.205,1.3,1.3,0,0,0-.3-.1c-.053-.015-.068-.038-.068-.068s.038-.061.068-.076A.565.565,0,0,1,94,22.453a1.443,1.443,0,0,1,.681.287c.129.1.144.167.144.235a.225.225,0,0,1-.1.189.683.683,0,0,0-.219.333,4.209,4.209,0,0,0-.174.454A7.618,7.618,0,0,0,95.1,23.625Zm-.371,3.133c.045-.083.091-.137.136-.137a.059.059,0,0,1,.061.054.66.66,0,0,1-.023.121,1.331,1.331,0,0,0-.038.348.648.648,0,0,0,.25.529,1.686,1.686,0,0,0,.984.258,3.014,3.014,0,0,0,.787-.076.9.9,0,0,1,.317-.061.768.768,0,0,1,.341.076.273.273,0,0,1,.159.257c0,.144-.144.212-.4.25-.2.023-.56.046-.817.046a2.518,2.518,0,0,1-1.476-.356.9.9,0,0,1-.4-.787A1.063,1.063,0,0,1,94.733,26.758Zm1.211-1.642a2.892,2.892,0,0,0-.961.257.329.329,0,0,1-.084.023c-.037,0-.075-.03-.075-.06a.121.121,0,0,1,.052-.1,1.748,1.748,0,0,1,.508-.31,2.491,2.491,0,0,1,.923-.182,2.327,2.327,0,0,1,.886.151c.174.077.272.144.272.311a.19.19,0,0,1-.212.189.459.459,0,0,1-.174-.038.742.742,0,0,0-.242-.052.613.613,0,0,0-.31.105c-.19.114-.485.318-.742.477a.2.2,0,0,1-.114.045c-.022,0-.068-.052-.068-.083a.136.136,0,0,1,.053-.083c.175-.159.431-.394.719-.613.031-.023.023-.046-.022-.046A3.985,3.985,0,0,0,95.944,25.116Z"/><path class="cls-1" d="M99.943,24.329h-.4a1.784,1.784,0,0,0-.423.046l-.077-.288a2.313,2.313,0,0,0,.485.053h.416v-.832a11.957,11.957,0,0,0-.037-1.2c.741.076.832.128.832.212,0,.053-.061.113-.257.2V24.14h.242c.25-.317.3-.355.348-.355s.106.038.371.264c.106.1.143.151.143.2s-.022.083-.1.083h-1.006v2.043c.325-.136.643-.287.923-.431.03-.016.076.061.046.083a10.263,10.263,0,0,1-1.915,1.3c-.015.25-.053.325-.137.325s-.128-.113-.431-.779a3.215,3.215,0,0,0,.447-.1c.166-.053.34-.121.529-.189Zm5,1.824c.2-.228.25-.258.3-.258s.091.03.34.228c.106.09.136.143.136.189s-.03.075-.2.2a6.072,6.072,0,0,1-.3,1.794.9.9,0,0,1-.348.454.951.951,0,0,1-.5.121c-.075,0-.1-.031-.121-.144-.037-.182-.151-.28-.7-.431-.046-.016-.046-.114,0-.107.461.046.7.069.885.069s.287-.1.37-.432a6.558,6.558,0,0,0,.2-1.49h-.47a4.568,4.568,0,0,1-2.951,2.565c-.046.015-.084-.076-.046-.1a5.254,5.254,0,0,0,2.43-2.466h-.545a4.392,4.392,0,0,1-2.483,1.914c-.045.015-.083-.068-.045-.091a4.457,4.457,0,0,0,1.937-1.823h-.575a4.728,4.728,0,0,1-1.627,1.021c-.045.015-.091-.076-.053-.1a4.739,4.739,0,0,0,1.529-1.423,2.067,2.067,0,0,0,.212-.423h-.522a3.129,3.129,0,0,0-.568.045l-.076-.287a3.832,3.832,0,0,0,.636.052h3.209c.3-.355.348-.393.393-.393s.114.038.424.3c.129.106.159.159.159.2s-.023.076-.1.076h-3.247c.318.1.409.143.409.2,0,.068-.076.106-.265.122-.106.144-.219.287-.333.416Zm-2.489-1.5c0,.159-.114.235-.333.235-.144,0-.228-.045-.228-.181s.03-.462.03-1.423c0-.568-.007-.764-.037-1.15a5.185,5.185,0,0,1,.62.3h1.832c.227-.242.265-.273.31-.273.061,0,.106.031.349.22.113.09.143.144.143.189s-.038.106-.212.227v.424c0,.817.023,1.225.023,1.339,0,.151-.1.227-.325.227-.167,0-.227-.061-.227-.2v-.075h-1.945Zm1.945-2.027h-1.945v.749h1.945Zm-1.945,1.7h1.945v-.764h-1.945Z"/><path class="cls-1" d="M111.761,24.178a5.471,5.471,0,0,0,1.877.809c.038.008.03.076-.008.084-.219.03-.325.121-.423.439-.031.075-.069.113-.114.113a.985.985,0,0,1-.265-.1,6.327,6.327,0,0,1-2.8-2.959,7,7,0,0,1-3.527,3.148c-.045.023-.1-.083-.053-.106a7.77,7.77,0,0,0,2.7-2.731,4.33,4.33,0,0,0,.386-.893c.855.242.885.265.885.348,0,.06-.075.091-.272.136A5.743,5.743,0,0,0,111.761,24.178Zm-3.474,4.457c0,.158-.114.242-.356.242-.166,0-.234-.069-.234-.212,0-.19.03-.5.03-1.612,0-.628-.008-.961-.03-1.377.287.136.4.205.674.356h3.072c.242-.288.28-.311.326-.311s.1.023.37.265c.137.114.167.159.167.2,0,.068-.038.114-.235.22v.56c0,1.029.023,1.513.023,1.657,0,.159-.129.25-.363.25-.167,0-.235-.077-.235-.212v-.333h-3.209Zm3.209-2.414h-3.209v1.921H111.5Zm-3-1.513a2.875,2.875,0,0,0,.538.053h1.332c.3-.356.347-.394.393-.394s.106.038.431.287c.137.129.175.175.175.22s-.031.076-.1.076h-2.24a2.568,2.568,0,0,0-.454.045Z"/><path class="cls-1" d="M115.692,27.606a1.1,1.1,0,0,1,.492.847.392.392,0,0,1-.393.416c-.2,0-.288-.144-.371-.325A2.536,2.536,0,0,0,114.3,27.2a.1.1,0,0,1-.038-.091.073.073,0,0,1,.083-.075A2.929,2.929,0,0,1,115.692,27.606Z"/><path class="cls-1" d="M122.6,23.292c-.008.553-.189.985-.575.985a.281.281,0,0,1-.28-.288c0-.136.038-.2.242-.31a.985.985,0,0,0,.484-.855c.008-.046.091-.053.1-.008.015.1.022.2.03.288h2.21v-.583h-1.6a2.6,2.6,0,0,0-.514.045l-.076-.28a4.067,4.067,0,0,0,.583.046h3.617c.326-.363.379-.4.424-.4s.106.038.454.3c.152.121.189.167.189.212s-.03.076-.1.076h-2.467V23.1H127.7c.219-.243.258-.273.31-.273s.091.03.409.31c.136.121.166.174.166.22,0,.106-.075.143-.317.143-.076,0-.1.008-.189.114a3.1,3.1,0,0,1-.485.409c-.022.015-.06-.016-.052-.046a5.262,5.262,0,0,0,.219-.689h-2.437v.341c0,.628.022,1.2.022,1.37s-.113.242-.333.242c-.181,0-.242-.061-.242-.235,0-.091.038-.416.038-1.036v-.682Zm-.143,1.34a1.671,1.671,0,0,0,.423.045h.765c.227-.279.279-.317.325-.317s.106.038.364.257c.113.083.143.128.143.174s-.022.075-.1.075H122.9a3.034,3.034,0,0,0-.379.038Zm2.837,3.359c0,.341.091.371,1.211.371,1.045,0,1.28-.023,1.438-.144.137-.121.2-.34.394-.945.007-.038.1-.016.091.022-.031.257-.053.59-.053.666,0,.106.022.129.09.166a.242.242,0,0,1,.144.235q0,.249-.363.363a8.387,8.387,0,0,1-1.9.114c-1.3,0-1.581-.129-1.581-.757,0-.129,0-.265.007-.522h-1.582v.2c0,.174-.1.242-.333.242-.158,0-.227-.061-.227-.182,0-.167.031-.461.031-1.438a10.054,10.054,0,0,0-.046-1.164,4.393,4.393,0,0,1,.643.287h3.663c.228-.25.266-.28.311-.28s.1.03.363.242c.121.091.144.136.144.182,0,.068-.038.113-.2.227v.416c0,.794.022,1.173.022,1.286,0,.174-.121.25-.333.25-.166,0-.234-.053-.234-.2V27.56h-1.7Zm-2.573-4.131a2.05,2.05,0,0,0,.416.038h.545c.2-.265.265-.3.3-.3s.106.038.363.258c.091.075.129.121.129.166s-.022.068-.1.068h-1.225a1.961,1.961,0,0,0-.363.038Zm.469,1.831v.726h1.582v-.726Zm1.582.916h-1.582v.764h1.582Zm.522-.19h1.7v-.726h-1.7Zm1.7.954v-.764h-1.7v.764Zm-1.355-3.511a1.926,1.926,0,0,0,.408.038h.568c.22-.265.28-.3.318-.3s.106.038.356.242c.1.084.129.137.129.182s-.023.068-.091.068h-1.264a1.852,1.852,0,0,0-.356.038Zm.015.772a1.774,1.774,0,0,0,.432.045h.839c.25-.295.3-.333.349-.333s.106.038.394.265c.113.091.143.136.143.182s-.022.075-.091.075h-1.6a3.076,3.076,0,0,0-.394.038Z"/><path class="cls-1" d="M129.3,23.459a2.782,2.782,0,0,0,.553.053h1.468c.28-.318.333-.355.379-.355s.106.037.4.272c.121.1.159.159.159.2s-.023.069-.1.069h-2.3a2.316,2.316,0,0,0-.485.044Zm.273-1.006a2.378,2.378,0,0,0,.545.06h.855c.288-.325.341-.363.386-.363s.106.038.409.273c.121.113.159.159.159.2s-.023.076-.1.076h-1.711a2.155,2.155,0,0,0-.469.045Zm.015,2.02a2.125,2.125,0,0,0,.515.06h.953c.242-.31.3-.347.349-.347s.1.037.378.279c.106.091.144.144.144.189s-.023.069-.1.069H130.1a2.483,2.483,0,0,0-.439.045Zm.015.984a2.182,2.182,0,0,0,.515.06h.946c.257-.3.311-.34.355-.34s.107.038.379.264c.114.091.152.152.152.2s-.023.068-.1.068h-1.733a2.262,2.262,0,0,0-.424.046Zm.583,3.245c0,.159-.1.235-.3.235-.151,0-.234-.053-.234-.189,0-.152.022-.409.022-1.279,0-.529,0-.817-.03-1.2a4.672,4.672,0,0,1,.59.287h.992c.212-.242.257-.272.3-.272s.091.03.3.2c.113.1.151.144.151.2s-.046.1-.205.2V27.3c0,.794.023,1.2.023,1.316,0,.159-.1.227-.31.227-.144,0-.212-.053-.212-.189v-.189h-1.09Zm1.09-1.952h-1.09v1.529h1.09Zm1.816,1.96c0,.159-.106.242-.31.242-.182,0-.257-.068-.257-.2,0-.182.03-.484.03-1.513a10.3,10.3,0,0,0-.053-1.287,3.122,3.122,0,0,1,.659.3h.658V24.708h-1.112a2.6,2.6,0,0,0-.531.045l-.075-.3a2.91,2.91,0,0,0,.606.061h1.112V23.05a11.673,11.673,0,0,1-1.438.167c-.053,0-.068-.113-.015-.121a10.139,10.139,0,0,0,2.217-.7,2.057,2.057,0,0,0,.636-.423c.537.408.6.461.6.537,0,.06-.106.1-.371.06a6.66,6.66,0,0,1-1.082.363v1.59h.923c.34-.409.394-.44.439-.44s.113.031.462.326c.159.136.189.181.189.227s-.023.076-.1.076h-1.915v1.543h.757c.227-.257.264-.288.31-.288s.1.031.34.227c.122.106.152.152.152.2s-.023.083-.212.22v.507c0,.938.03,1.422.03,1.558,0,.167-.114.25-.333.25-.151,0-.235-.068-.235-.2V28.46h-2.081Zm2.081-2.27h-2.081v1.831h2.081Z"/><path class="cls-1" d="M138.635,28.672c0,.189-.091.265-.326.265-.174,0-.227-.053-.227-.219,0-.235.031-.628.031-1.816,0-.416,0-.621-.016-.886a8.456,8.456,0,0,1-1.279.507c-.053.016-.083-.1-.037-.121a7.9,7.9,0,0,0,2.678-1.952h-1.907a3.142,3.142,0,0,0-.507.046l-.075-.288a2.561,2.561,0,0,0,.568.053h2.436V22.892c-.779.068-1.612.091-2.5.091-.053,0-.06-.129-.008-.137a20.881,20.881,0,0,0,3.747-.56,3.508,3.508,0,0,0,.817-.3c.515.356.621.461.621.537,0,.045-.038.083-.151.083a1.131,1.131,0,0,1-.3-.053,15.591,15.591,0,0,1-1.711.288v1.422h.674a5.394,5.394,0,0,0,.454-.87,2.89,2.89,0,0,0,.166-.514c.621.242.719.3.719.378,0,.091-.076.128-.3.151a5.007,5.007,0,0,1-.84.855h1.211c.34-.386.393-.424.439-.424s.106.038.454.311c.152.129.189.181.189.234s-.023.068-.1.068h-2.944a5.506,5.506,0,0,0,1.415.886,6.331,6.331,0,0,0,1.794.454c.03,0,.03.075,0,.083-.19.06-.25.121-.341.355-.045.137-.075.167-.144.167a1.259,1.259,0,0,1-.31-.083,6.6,6.6,0,0,1-1.158-.568,5.517,5.517,0,0,1-1.393-1.218c.023.689.038.953.038,1.105s-.105.234-.34.234c-.159,0-.227-.068-.227-.2,0-.106.015-.386.038-1.007a7.949,7.949,0,0,1-1.7,1.271c.136.061.242.121.431.228h3.095c.189-.2.228-.22.273-.22s.1.023.34.212c.129.106.159.151.159.2s-.038.1-.181.174v.552c0,.953.03,1.453.03,1.589,0,.174-.106.257-.341.257-.151,0-.219-.06-.219-.2v-.19h-3.239Zm.015-4.812a1.667,1.667,0,0,0-.379-.711c-.022-.022.023-.061.054-.053.567.166.878.439.878.727a.306.306,0,0,1-.3.332C138.771,24.155,138.7,24.072,138.65,23.86Zm-.015,2.482V27.2h1.339v-.855Zm1.339,2v-.953h-1.339v.953Zm1.9-2H140.5V27.2h1.377Zm0,1.044H140.5v.953h1.377Z"/><path class="cls-1" d="M147.13,25.252c-.129.333-.273.666-.431.992h2.55c.25-.25.288-.288.333-.288.061,0,.106.038.333.25.114.106.144.159.144.2s-.038.076-.227.2a4.893,4.893,0,0,1-.447,1.717,1.07,1.07,0,0,1-.408.462,1.193,1.193,0,0,1-.53.128c-.114,0-.152-.03-.167-.144-.023-.2-.158-.325-.847-.545-.054-.014-.046-.128.007-.121a6.683,6.683,0,0,0,1.15.152c.182,0,.281-.129.387-.348a5.261,5.261,0,0,0,.317-1.475H146.6c-.106.211-.212.4-.325.582a.263.263,0,0,1-.265.167c-.2,0-.364-.068-.364-.167,0-.061.023-.106.106-.234a8.635,8.635,0,0,0,.78-1.529h-1.415a3.76,3.76,0,0,0-.576.046l-.075-.288a3.83,3.83,0,0,0,.636.053h5.07c.364-.423.416-.454.462-.454s.106.031.462.333c.166.136.2.2.2.242s-.023.068-.1.068Zm-.871-.9c0,.189-.1.257-.333.257-.189,0-.234-.068-.234-.2s.022-.347.022-1.074a11.53,11.53,0,0,0-.045-1.21,4.18,4.18,0,0,1,.681.317h2.892c.257-.272.3-.3.34-.3s.1.031.348.25c.113.1.144.137.144.182,0,.076-.045.121-.2.227v.37c0,.735.015,1.075.015,1.189,0,.173-.114.249-.341.249-.167,0-.234-.06-.234-.2v-.174h-3.051Zm3.051-1.718h-3.051v1.408h3.051Z"/><path class="cls-1" d="M155.292,25.653c0-.431-.106-.613-.378-.613a1.468,1.468,0,0,0-.931.53,5.879,5.879,0,0,0-.6.757.385.385,0,0,1-.258.181c-.143,0-.25-.091-.25-.3,0-.114.084-.22.235-.371a7.975,7.975,0,0,0,.734-.87,9.857,9.857,0,0,0,.561-.893,4.451,4.451,0,0,1-.652.045.915.915,0,0,1-.878-.484.189.189,0,0,1-.03-.1.062.062,0,0,1,.061-.068.15.15,0,0,1,.091.06.972.972,0,0,0,.749.25,4.156,4.156,0,0,0,.855-.121,4.281,4.281,0,0,0,.25-.643.923.923,0,0,0,.038-.2c0-.1-.053-.143-.151-.174a1.823,1.823,0,0,0-.311-.06c-.038-.008-.06-.023-.06-.046a.143.143,0,0,1,.06-.083.462.462,0,0,1,.295-.1,1.287,1.287,0,0,1,.568.175c.182.105.249.2.249.3a.2.2,0,0,1-.083.174.711.711,0,0,0-.189.2c-.045.076-.128.227-.189.348a3.167,3.167,0,0,0,.659-.265.781.781,0,0,1,.385-.128c.167,0,.288.091.288.226s-.106.182-.249.235a12.8,12.8,0,0,1-1.325.378c-.235.394-.469.8-.727,1.158a1.707,1.707,0,0,1,.909-.363.655.655,0,0,1,.7.643c.015.091.015.227.023.356.6-.349,1.021-.6,1.513-.946a.226.226,0,0,0,.114-.159c0-.038-.031-.068-.091-.106a1.015,1.015,0,0,0-.227-.083c-.046-.015-.076-.031-.076-.054s.053-.075.113-.1a.474.474,0,0,1,.19-.03,1.351,1.351,0,0,1,.575.189c.227.121.348.25.348.4a.2.2,0,0,1-.2.2,1.041,1.041,0,0,0-.294.083c-.372.159-.75.333-1.272.606-.22.113-.47.264-.682.378v1.059c0,.212-.083.318-.234.318a.239.239,0,0,1-.257-.272c0-.182.015-.5.03-.871-.666.379-1.06.673-1.06,1.143,0,.31.273.552.976.552a8.242,8.242,0,0,0,1.06-.053c.189-.03.333-.061.447-.091a1.266,1.266,0,0,1,.257-.045c.265,0,.523.152.523.333,0,.121-.084.2-.379.242a10.174,10.174,0,0,1-1.43.075c-1.03,0-1.726-.249-1.726-.968,0-.658.522-1.09,1.332-1.574Z"/><path class="cls-1" d="M164.211,23.52a.414.414,0,0,0,.235-.114.234.234,0,0,1,.151-.083c.083,0,.174.046.348.181.2.152.28.25.28.356s-.06.151-.159.205a.8.8,0,0,0-.273.295c-.264.446-.544.877-.862,1.316.515.356.7.651.7.863a.276.276,0,0,1-.25.287c-.114,0-.2-.053-.333-.219a3.277,3.277,0,0,0-.447-.522,7.479,7.479,0,0,1-3.11,2.33.365.365,0,0,1-.114.03.1.1,0,0,1-.106-.091c0-.052.031-.09.1-.129a9.047,9.047,0,0,0,2.883-2.458,4.854,4.854,0,0,0-.908-.538c-.053-.022-.083-.06-.083-.083a.082.082,0,0,1,.075-.083.867.867,0,0,1,.175.023,5.355,5.355,0,0,1,1,.341,12.625,12.625,0,0,0,.893-1.483.266.266,0,0,0,.022-.091c0-.023-.007-.046-.053-.046-.128.008-.469.076-.741.129a3.055,3.055,0,0,1-.417.06,1.149,1.149,0,0,1-.386-.083c-.28.378-.613.795-.93,1.143a5.982,5.982,0,0,1-1.1.983.2.2,0,0,1-.113.038c-.053,0-.121-.031-.121-.1a.175.175,0,0,1,.06-.121,11.592,11.592,0,0,0,1.1-1.218,10.852,10.852,0,0,0,.795-1.2,1.2,1.2,0,0,0,.174-.461.17.17,0,0,0-.06-.129.735.735,0,0,0-.242-.144c-.054-.023-.068-.037-.068-.076s.121-.113.249-.113a.969.969,0,0,1,.5.182c.234.151.325.28.325.385a.222.222,0,0,1-.106.2.568.568,0,0,0-.151.144c-.053.076-.114.159-.174.25A10.782,10.782,0,0,0,164.211,23.52Z"/><path class="cls-1" d="M168.77,24.73a1.8,1.8,0,0,1,.508.394.76.76,0,0,1,.234.491c0,.212-.121.364-.272.364-.121,0-.22-.068-.265-.31a2.437,2.437,0,0,0-.137-.447,1.439,1.439,0,0,0-.2-.348.193.193,0,0,1-.052-.091.077.077,0,0,1,.075-.083A.216.216,0,0,1,168.77,24.73Zm3.618-.1c.22.143.28.212.28.333,0,.075-.038.113-.136.174a.435.435,0,0,0-.159.181,8.154,8.154,0,0,1-1.249,1.8,5.693,5.693,0,0,1-1.846,1.37.357.357,0,0,1-.137.045.094.094,0,0,1-.1-.106c0-.045.023-.068.068-.1a7.5,7.5,0,0,0,1.786-1.62,6.852,6.852,0,0,0,.946-1.513.869.869,0,0,0,.106-.317.16.16,0,0,0-.068-.137,1.249,1.249,0,0,0-.31-.174.082.082,0,0,1-.046-.06c0-.023.046-.053.076-.069a.639.639,0,0,1,.212-.03A1.308,1.308,0,0,1,172.388,24.632Zm-2.278-.22a1.994,1.994,0,0,1,.492.44.892.892,0,0,1,.189.5c-.007.212-.113.349-.288.356-.158,0-.226-.068-.256-.318a2.926,2.926,0,0,0-.107-.446,1.763,1.763,0,0,0-.2-.393.184.184,0,0,1-.045-.114.084.084,0,0,1,.09-.075A.258.258,0,0,1,170.11,24.412Z"/><path class="cls-1" d="M176.032,28.15c0-.053.046-.09.129-.136a7.979,7.979,0,0,0,2.248-1.937,9.47,9.47,0,0,0,1.18-1.975.425.425,0,0,0,.061-.174c0-.03-.03-.038-.076-.038s-.129.008-.3.023c-.749.076-1.763.2-2.354.287a.74.74,0,0,0-.355.107.307.307,0,0,1-.2.06c-.121,0-.31-.129-.492-.378a.78.78,0,0,1-.2-.431c0-.129.054-.167.084-.167s.091.061.151.121a.69.69,0,0,0,.545.265c.182,0,.371-.008.659-.031.764-.067,1.536-.135,2.278-.211a.448.448,0,0,0,.272-.091.329.329,0,0,1,.182-.106.688.688,0,0,1,.416.227c.182.159.287.28.287.409,0,.091-.083.136-.173.174a.5.5,0,0,0-.25.25,9.818,9.818,0,0,1-1.3,1.974,6.761,6.761,0,0,1-2.513,1.839.5.5,0,0,1-.166.045A.114.114,0,0,1,176.032,28.15Zm5.721-5.3a.689.689,0,1,1-.688-.689A.691.691,0,0,1,181.753,22.854Zm-1.134,0a.446.446,0,1,0,.446-.447A.441.441,0,0,0,180.619,22.854Z"/><path class="cls-1" d="M187.615,23.716a.939.939,0,0,0,.386-.075.54.54,0,0,1,.235-.053,1.368,1.368,0,0,1,.59.2.324.324,0,0,1,.189.28.18.18,0,0,1-.174.189,2.5,2.5,0,0,1-.4-.068,5.148,5.148,0,0,0-.916-.084c-.4,0-.764,0-1.181.031-.007.552-.014.945-.014,1.377a2.278,2.278,0,0,1,.128.832,2.113,2.113,0,0,1-.908,1.7,4.239,4.239,0,0,1-1.3.605.945.945,0,0,1-.234.045c-.068,0-.106-.038-.106-.083s.023-.076.1-.106a4.118,4.118,0,0,0,1.211-.7,2.043,2.043,0,0,0,.719-1.1.777.777,0,0,1-.522.174.819.819,0,0,1-.825-.931.891.891,0,0,1,.856-.923.907.907,0,0,1,.484.121c0-.325-.008-.628-.016-.953a15.016,15.016,0,0,0-1.869.333,1.632,1.632,0,0,0-.514.181.387.387,0,0,1-.22.076.69.69,0,0,1-.446-.219.782.782,0,0,1-.311-.492c0-.091.023-.144.061-.144a.083.083,0,0,1,.053.023c.235.227.348.287.568.287a2.806,2.806,0,0,0,.484-.06c.727-.121,1.491-.235,2.187-.318,0-.28,0-.476-.007-.741a1.06,1.06,0,0,0-.046-.333.234.234,0,0,0-.212-.121,1.888,1.888,0,0,0-.219-.023c-.046,0-.076-.015-.076-.045,0-.046.015-.069.068-.114a.651.651,0,0,1,.378-.151.96.96,0,0,1,.553.227c.151.113.212.181.212.272a.293.293,0,0,1-.1.212.333.333,0,0,0-.083.22c-.007.143-.015.325-.022.559C186.82,23.762,187.237,23.739,187.615,23.716Zm-2.7,2.165a.513.513,0,0,0,.531.559c.317,0,.514-.219.522-.582-.023-.333-.189-.621-.545-.621C185.163,25.237,184.92,25.449,184.92,25.881Z"/><path class="cls-1" d="M192.22,25.774a2.607,2.607,0,0,1,1.589-.6,1.547,1.547,0,0,1,1.726,1.513,1.927,1.927,0,0,1-2.142,1.785c-.825,0-1.408-.34-1.408-.855,0-.408.341-.628.757-.628a1.446,1.446,0,0,1,1.272.969,1.354,1.354,0,0,0,.953-1.309,1.109,1.109,0,0,0-1.2-1.2,2.418,2.418,0,0,0-1.71.772,5.745,5.745,0,0,0-.59.666.248.248,0,0,1-.189.1.282.282,0,0,1-.273-.295.383.383,0,0,1,.129-.273c.582-.627,1.211-1.278,1.756-1.944.325-.4.635-.779,1.014-1.279.052-.067.03-.083,0-.083a.673.673,0,0,0-.144.038c-.341.113-.726.257-1.029.378a.56.56,0,0,0-.258.159.279.279,0,0,1-.2.083.6.6,0,0,1-.378-.219.857.857,0,0,1-.273-.552c0-.076.045-.159.091-.159.03,0,.06.03.1.083.167.219.272.295.4.295a1.813,1.813,0,0,0,.394-.053c.341-.083.658-.174,1-.287a.486.486,0,0,0,.227-.137.242.242,0,0,1,.174-.075,1.063,1.063,0,0,1,.477.234c.151.106.227.2.227.326,0,.075-.061.128-.2.158-.076.016-.143.053-.31.22-.25.25-.56.575-1.007,1.1-.28.325-.689.719-.991,1.059Zm.431,1.453a.368.368,0,0,0-.416.348c0,.31.4.522,1.007.522a1.457,1.457,0,0,0,.3-.023A1.118,1.118,0,0,0,192.651,27.227Z"/><path class="cls-1" d="M200.087,24.791c-.038-.393-.046-.954-.076-1.589-.008-.166-.015-.219-.068-.28a.419.419,0,0,0-.212-.1,1.559,1.559,0,0,0-.182-.023c-.037-.007-.052-.015-.052-.045a.194.194,0,0,1,.09-.129.464.464,0,0,1,.281-.106,1.127,1.127,0,0,1,.658.287.353.353,0,0,1,.143.273.289.289,0,0,1-.083.181.4.4,0,0,0-.052.182,9.975,9.975,0,0,0-.023,1.452c.015.2.068.326.189.326a.838.838,0,0,0,.25-.053c.325-.144.726-.325,1.051-.5.069-.038.1-.061.1-.114,0-.083-.113-.2-.242-.287-.046-.031-.068-.038-.068-.061s.076-.091.159-.091a1.01,1.01,0,0,1,.552.311.639.639,0,0,1,.257.408c0,.137-.113.2-.234.227s-.265.068-.424.114c-.386.113-.795.25-1.211.408a4.689,4.689,0,0,0-1.128.621,1.1,1.1,0,0,0-.514.885.643.643,0,0,0,.378.567,2.647,2.647,0,0,0,1.211.182,6.159,6.159,0,0,0,1.135-.113,2.081,2.081,0,0,1,.379-.084.842.842,0,0,1,.325.068c.167.076.25.167.25.288,0,.151-.091.219-.416.272a10.942,10.942,0,0,1-1.416.076,3.721,3.721,0,0,1-1.574-.28,1,1,0,0,1-.613-.931,1.325,1.325,0,0,1,.371-.885,4.341,4.341,0,0,1,1.1-.824A.759.759,0,0,1,200.087,24.791Z"/><path class="cls-1" d="M209.831,28a.584.584,0,0,1,.348.159.47.47,0,0,1,.166.3c0,.121-.1.2-.37.2a3.205,3.205,0,0,1-1.6-.53,1.41,1.41,0,0,1-.582-1.157,2.121,2.121,0,0,1,.991-1.634,20.227,20.227,0,0,0-2.339.915,1.238,1.238,0,0,1-.363.151.452.452,0,0,1-.333-.174.5.5,0,0,1-.159-.272c0-.091.038-.129.114-.129a.717.717,0,0,1,.1.015.617.617,0,0,0,.121.016,1.235,1.235,0,0,0,.749-.3,8.33,8.33,0,0,0,.757-.659A17.68,17.68,0,0,0,209,23.141a.265.265,0,0,0,.052-.1c0-.023-.015-.031-.038-.031a.98.98,0,0,0-.113.023,9.756,9.756,0,0,0-1.31.537.373.373,0,0,1-.257.106c-.151,0-.28-.129-.409-.318a.679.679,0,0,1-.135-.4c0-.083.06-.189.09-.189s.045.023.083.083a.928.928,0,0,0,.174.212.353.353,0,0,0,.25.076,1.052,1.052,0,0,0,.2-.023c.295-.068.863-.234,1.188-.348a.414.414,0,0,0,.167-.113.2.2,0,0,1,.159-.076.621.621,0,0,1,.431.2.777.777,0,0,1,.272.393c0,.106-.037.159-.121.174a.676.676,0,0,0-.386.22c-.734.719-1.491,1.392-2.293,2.05.886-.288,1.96-.628,2.649-.825a2.311,2.311,0,0,0,.424-.181.439.439,0,0,1,.227-.061,1.374,1.374,0,0,1,.431.083c.167.068.28.151.28.28,0,.152-.1.22-.287.22s-.477.007-.689.03a2.414,2.414,0,0,0-1.211.5,1.585,1.585,0,0,0-.742,1.234.925.925,0,0,0,.576.832,2.245,2.245,0,0,0,1,.28Z"/><path class="cls-1" d="M216.1,24.042a3.035,3.035,0,0,1-.2.885,7.641,7.641,0,0,1-1.082,1.96,1.014,1.014,0,0,1-.765.491.7.7,0,0,1-.567-.3,1.657,1.657,0,0,1-.348-1.119,2.754,2.754,0,0,1,.711-1.786,3.236,3.236,0,0,1,2.422-.991,2.784,2.784,0,0,1,1.756.583,2.249,2.249,0,0,1,.022,3.488,4.511,4.511,0,0,1-2.52.847.107.107,0,0,1-.106-.091c0-.06.038-.083.136-.106a4.2,4.2,0,0,0,2.059-.96,2.139,2.139,0,0,0,.681-1.567,1.908,1.908,0,0,0-.636-1.445,2.19,2.19,0,0,0-1.407-.492,3.11,3.11,0,0,0-.4.016A.88.88,0,0,1,216.1,24.042Zm-1.907.181a2.359,2.359,0,0,0-.659,1.635,1.3,1.3,0,0,0,.167.7.425.425,0,0,0,.355.258c.159,0,.311-.137.53-.432a8,8,0,0,0,1.082-1.967,1.652,1.652,0,0,0,.106-.6.47.47,0,0,0-.121-.349A2.674,2.674,0,0,0,214.194,24.223Z"/><path class="cls-1" d="M223.975,27.666a.819.819,0,0,1-.295.688,1.346,1.346,0,0,1-.908.242c-.636,0-1.264-.249-1.264-.794,0-.575.681-.779,1.226-.779a6.038,6.038,0,0,1,.772.052c-.007-.431-.007-.885-.015-1.263-.174.015-.462.023-.666.023-.711,0-.992-.2-.992-.522a.674.674,0,0,1,.129-.409c.038-.052.076-.083.114-.083s.068.023.068.053a.33.33,0,0,1-.03.1.458.458,0,0,0-.038.2c0,.189.143.28.605.28.242,0,.56-.016.8-.038,0-.409-.007-.749-.015-1.158a11.259,11.259,0,0,1-1.43.1,1.119,1.119,0,0,1-1.052-.515.181.181,0,0,1-.03-.1.064.064,0,0,1,.06-.052.132.132,0,0,1,.091.038,1.364,1.364,0,0,0,.878.257,11.878,11.878,0,0,0,1.468-.136c0-.265,0-.644-.007-.878-.008-.181-.016-.258-.076-.318a.361.361,0,0,0-.2-.091,1.8,1.8,0,0,0-.19-.007.054.054,0,0,1-.053-.061c0-.045.038-.075.106-.121a.538.538,0,0,1,.28-.083,1.059,1.059,0,0,1,.507.167c.227.128.3.264.3.347a.223.223,0,0,1-.091.182.351.351,0,0,0-.121.258c-.023.242-.03.393-.03.537a8.067,8.067,0,0,0,.825-.174,1.311,1.311,0,0,0,.363-.144.612.612,0,0,1,.341-.084c.189,0,.469.084.469.258,0,.136-.084.2-.417.272a15.287,15.287,0,0,1-1.581.287c-.007.394-.007.75-.007,1.158a4.384,4.384,0,0,0,.673-.151.894.894,0,0,0,.242-.136.557.557,0,0,1,.326-.091c.226,0,.355.076.355.2s-.083.189-.257.257a6.2,6.2,0,0,1-1.332.325c.007.431.038.984.06,1.4a5.933,5.933,0,0,1,1.733.749.441.441,0,0,1,.25.371.266.266,0,0,1-.234.287.385.385,0,0,1-.265-.1,5.139,5.139,0,0,0-1.446-.87Zm-1.407-.333c-.356,0-.8.113-.8.439s.446.439.886.439a.934.934,0,0,0,.68-.19.7.7,0,0,0,.167-.552A3.778,3.778,0,0,0,222.568,27.333Z"/><path class="cls-1" d="M231.547,27.666a.819.819,0,0,1-.295.688,1.344,1.344,0,0,1-.908.242c-.636,0-1.264-.249-1.264-.794,0-.575.681-.779,1.226-.779a6.051,6.051,0,0,1,.772.052c-.008-.431-.008-.885-.015-1.263-.174.015-.462.023-.666.023-.712,0-.992-.2-.992-.522a.674.674,0,0,1,.129-.409c.038-.052.076-.083.113-.083s.068.023.068.053a.281.281,0,0,1-.03.1.473.473,0,0,0-.038.2c0,.189.144.28.606.28.242,0,.56-.016.8-.038,0-.409-.008-.749-.015-1.158a11.272,11.272,0,0,1-1.43.1,1.12,1.12,0,0,1-1.052-.515.183.183,0,0,1-.031-.1.066.066,0,0,1,.061-.052.134.134,0,0,1,.091.038,1.362,1.362,0,0,0,.878.257,11.878,11.878,0,0,0,1.468-.136c0-.265,0-.644-.008-.878-.007-.181-.015-.258-.075-.318a.364.364,0,0,0-.205-.091,1.77,1.77,0,0,0-.189-.007.054.054,0,0,1-.053-.061c0-.045.038-.075.106-.121a.538.538,0,0,1,.28-.083,1.056,1.056,0,0,1,.507.167c.227.128.3.264.3.347a.226.226,0,0,1-.091.182.351.351,0,0,0-.121.258c-.022.242-.03.393-.03.537a8.125,8.125,0,0,0,.825-.174,1.311,1.311,0,0,0,.363-.144.612.612,0,0,1,.341-.084c.188,0,.469.084.469.258,0,.136-.083.2-.416.272a15.458,15.458,0,0,1-1.582.287c-.008.394-.008.75-.008,1.158a4.372,4.372,0,0,0,.674-.151.909.909,0,0,0,.242-.136.556.556,0,0,1,.325-.091c.228,0,.356.076.356.2s-.083.189-.257.257a6.2,6.2,0,0,1-1.332.325c.008.431.038.984.06,1.4a5.964,5.964,0,0,1,1.734.749.442.442,0,0,1,.249.371.266.266,0,0,1-.235.287.381.381,0,0,1-.264-.1,5.152,5.152,0,0,0-1.446-.87Zm-1.408-.333c-.355,0-.794.113-.794.439s.446.439.885.439a.941.941,0,0,0,.682-.19.7.7,0,0,0,.166-.552A3.773,3.773,0,0,0,230.139,27.333Z"/><path class="cls-1" d="M236.175,23.292c-.008.553-.189.985-.575.985a.281.281,0,0,1-.28-.288c0-.136.037-.2.242-.31a.985.985,0,0,0,.484-.855c.008-.046.091-.053.1-.008.015.1.022.2.03.288h2.21v-.583h-1.6a2.6,2.6,0,0,0-.515.045l-.075-.28a4.054,4.054,0,0,0,.582.046H240.4c.325-.363.378-.4.424-.4s.106.038.454.3c.151.121.189.167.189.212s-.03.076-.1.076H238.9V23.1h2.377c.22-.243.257-.273.31-.273s.091.03.409.31c.136.121.167.174.167.22,0,.106-.077.143-.319.143-.075,0-.1.008-.189.114a3.046,3.046,0,0,1-.484.409c-.023.015-.061-.016-.053-.046a5.115,5.115,0,0,0,.219-.689H238.9v.341c0,.628.023,1.2.023,1.37s-.113.242-.333.242c-.181,0-.242-.061-.242-.235,0-.091.038-.416.038-1.036v-.682Zm-.144,1.34a1.679,1.679,0,0,0,.424.045h.764c.227-.279.28-.317.325-.317s.107.038.364.257c.113.083.144.128.144.174s-.023.075-.1.075h-1.476a3,3,0,0,0-.379.038Zm2.838,3.359c0,.341.091.371,1.211.371,1.044,0,1.279-.023,1.438-.144.136-.121.2-.34.394-.945.007-.038.1-.016.09.022-.03.257-.052.59-.052.666,0,.106.022.129.091.166a.244.244,0,0,1,.143.235q0,.249-.363.363a8.387,8.387,0,0,1-1.9.114c-1.3,0-1.582-.129-1.582-.757,0-.129,0-.265.008-.522h-1.582v.2c0,.174-.1.242-.333.242-.159,0-.227-.061-.227-.182,0-.167.03-.461.03-1.438a10.085,10.085,0,0,0-.045-1.164,4.393,4.393,0,0,1,.643.287H240.5c.226-.25.264-.28.31-.28s.1.03.363.242c.121.091.144.136.144.182,0,.068-.038.113-.2.227v.416c0,.794.023,1.173.023,1.286,0,.174-.121.25-.333.25-.167,0-.235-.053-.235-.2V27.56h-1.695ZM236.3,23.86a2.043,2.043,0,0,0,.416.038h.545c.2-.265.265-.3.3-.3s.106.038.363.258c.091.075.129.121.129.166s-.023.068-.1.068h-1.227a1.977,1.977,0,0,0-.363.038Zm.469,1.831v.726h1.582v-.726Zm1.582.916h-1.582v.764h1.582Zm.522-.19h1.695v-.726h-1.695Zm1.695.954v-.764h-1.695v.764Zm-1.355-3.511a1.945,1.945,0,0,0,.41.038h.567c.22-.265.28-.3.318-.3s.106.038.356.242c.1.084.128.137.128.182s-.023.068-.091.068h-1.264a1.844,1.844,0,0,0-.355.038Zm.016.772a1.771,1.771,0,0,0,.431.045h.841c.249-.295.3-.333.347-.333s.107.038.394.265c.114.091.144.136.144.182s-.023.075-.091.075h-1.6a3.063,3.063,0,0,0-.393.038Z"/><path class="cls-1" d="M242.876,23.459a2.782,2.782,0,0,0,.553.053H244.9c.28-.318.333-.355.378-.355s.106.037.4.272c.121.1.159.159.159.2s-.022.069-.1.069h-2.3a2.307,2.307,0,0,0-.484.044Zm.273-1.006a2.373,2.373,0,0,0,.545.06h.855c.287-.325.34-.363.386-.363s.106.038.408.273c.121.113.159.159.159.2s-.022.076-.1.076h-1.71a2.169,2.169,0,0,0-.47.045Zm.015,2.02a2.117,2.117,0,0,0,.514.06h.954c.242-.31.3-.347.348-.347s.1.037.379.279c.1.091.143.144.143.189s-.022.069-.1.069h-1.726a2.482,2.482,0,0,0-.438.045Zm.015.984a2.176,2.176,0,0,0,.515.06h.946c.257-.3.31-.34.356-.34s.1.038.378.264c.113.091.151.152.151.2s-.023.068-.1.068h-1.733a2.254,2.254,0,0,0-.424.046Zm.583,3.245c0,.159-.1.235-.3.235-.151,0-.235-.053-.235-.189,0-.152.023-.409.023-1.279,0-.529,0-.817-.03-1.2a4.672,4.672,0,0,1,.59.287h.991c.212-.242.258-.272.3-.272s.091.03.3.2c.114.1.151.144.151.2s-.045.1-.2.2V27.3c0,.794.023,1.2.023,1.316,0,.159-.1.227-.311.227-.144,0-.211-.053-.211-.189v-.189h-1.09Zm1.09-1.952h-1.09v1.529h1.09Zm1.816,1.96c0,.159-.106.242-.31.242-.182,0-.258-.068-.258-.2,0-.182.03-.484.03-1.513a10.326,10.326,0,0,0-.052-1.287,3.091,3.091,0,0,1,.658.3h.659V24.708h-1.113a2.582,2.582,0,0,0-.53.045l-.076-.3a2.916,2.916,0,0,0,.606.061H247.4V23.05a11.673,11.673,0,0,1-1.438.167c-.053,0-.069-.113-.016-.121a10.167,10.167,0,0,0,2.218-.7,2.039,2.039,0,0,0,.635-.423c.538.408.6.461.6.537,0,.06-.106.1-.371.06a6.673,6.673,0,0,1-1.083.363v1.59h.924c.341-.409.393-.44.439-.44s.114.031.461.326c.159.136.19.181.19.227s-.023.076-.1.076h-1.915v1.543h.757c.227-.257.265-.288.31-.288s.1.031.341.227c.121.106.152.152.152.2s-.023.083-.212.22v.507c0,.938.03,1.422.03,1.558,0,.167-.113.25-.333.25-.152,0-.235-.068-.235-.2V28.46h-2.081Zm2.081-2.27h-2.081v1.831h2.081Z"/><path class="cls-1" d="M253.725,25.653c0-.431-.106-.613-.378-.613a1.468,1.468,0,0,0-.931.53,5.793,5.793,0,0,0-.6.757c-.061.083-.159.181-.257.181-.145,0-.25-.091-.25-.3,0-.114.083-.22.234-.371a8.208,8.208,0,0,0,.735-.87,9.622,9.622,0,0,0,.559-.893,4.424,4.424,0,0,1-.65.045.912.912,0,0,1-.878-.484.18.18,0,0,1-.03-.1.062.062,0,0,1,.06-.068.147.147,0,0,1,.091.06.974.974,0,0,0,.749.25,4.156,4.156,0,0,0,.856-.121,4.382,4.382,0,0,0,.249-.643.863.863,0,0,0,.038-.2c0-.1-.053-.143-.152-.174a1.774,1.774,0,0,0-.31-.06c-.037-.008-.06-.023-.06-.046a.143.143,0,0,1,.06-.083.461.461,0,0,1,.3-.1,1.287,1.287,0,0,1,.567.175c.182.105.25.2.25.3a.205.205,0,0,1-.083.174.684.684,0,0,0-.189.2c-.046.076-.129.227-.19.348a3.132,3.132,0,0,0,.658-.265.785.785,0,0,1,.387-.128c.166,0,.287.091.287.226s-.106.182-.25.235a12.635,12.635,0,0,1-1.324.378c-.234.394-.469.8-.727,1.158a1.71,1.71,0,0,1,.909-.363.655.655,0,0,1,.7.643c.015.091.015.227.022.356a17.818,17.818,0,0,0,1.514-.946.226.226,0,0,0,.114-.159c0-.038-.03-.068-.091-.106a1.015,1.015,0,0,0-.227-.083c-.045-.015-.076-.031-.076-.054s.053-.075.114-.1a.466.466,0,0,1,.189-.03,1.347,1.347,0,0,1,.575.189c.227.121.348.25.348.4a.194.194,0,0,1-.2.2,1.048,1.048,0,0,0-.3.083c-.37.159-.749.333-1.271.606-.22.113-.469.264-.681.378v1.059c0,.212-.084.318-.235.318a.239.239,0,0,1-.257-.272c0-.182.015-.5.03-.871-.666.379-1.059.673-1.059,1.143,0,.31.272.552.976.552a8.252,8.252,0,0,0,1.06-.053,4.48,4.48,0,0,0,.446-.091,1.29,1.29,0,0,1,.257-.045c.265,0,.522.152.522.333,0,.121-.083.2-.378.242a10.164,10.164,0,0,1-1.43.075c-1.03,0-1.726-.249-1.726-.968,0-.658.523-1.09,1.332-1.574Z"/><path class="cls-1" d="M261.425,24.208a.7.7,0,0,1,.6.311,1.572,1.572,0,0,1,.22.9,4.871,4.871,0,0,1-.3,1.6,2.471,2.471,0,0,1-.591.968,1,1,0,0,1-.673.341c-.174,0-.25-.046-.28-.2a.512.512,0,0,0-.113-.273c-.122-.143-.258-.287-.44-.476a.1.1,0,0,1-.038-.076c0-.03.038-.083.076-.083a.136.136,0,0,1,.083.038c.22.151.4.272.6.385a.489.489,0,0,0,.22.054.4.4,0,0,0,.288-.144,2.623,2.623,0,0,0,.537-1.029,5,5,0,0,0,.2-1.286,1.032,1.032,0,0,0-.128-.636.349.349,0,0,0-.326-.128,2.183,2.183,0,0,0-.522.09c-.234.485-.446.961-.673,1.4-.394.764-.735,1.43-1.143,2.126a.284.284,0,0,1-.265.151.224.224,0,0,1-.242-.211.466.466,0,0,1,.1-.28c.447-.674.855-1.355,1.234-2.051.2-.37.363-.681.514-1-.279.1-.575.219-.794.31a.814.814,0,0,0-.22.113.273.273,0,0,1-.189.084.512.512,0,0,1-.341-.182.852.852,0,0,1-.287-.53c0-.083.038-.182.076-.182s.045.016.083.069c.136.174.25.28.371.28a2.311,2.311,0,0,0,.545-.1c.265-.06.552-.136.915-.234a8.441,8.441,0,0,0,.341-.916.86.86,0,0,0,.053-.294c0-.069-.015-.107-.114-.175a1.061,1.061,0,0,0-.333-.113c-.075-.015-.106-.031-.106-.068s.046-.068.1-.1a.647.647,0,0,1,.272-.061,1.235,1.235,0,0,1,.757.317.316.316,0,0,1,.121.25c0,.076-.045.129-.144.174a.524.524,0,0,0-.181.242c-.091.205-.2.424-.3.659A2.3,2.3,0,0,1,261.425,24.208Zm3.013,2.331a.351.351,0,0,1-.22-.083.423.423,0,0,0-.28-.084c-.242,0-.507.015-.855.038a.094.094,0,0,1-.106-.1c0-.046.022-.076.083-.091a6.512,6.512,0,0,0,.848-.212c.091-.03.121-.053.121-.136a1.228,1.228,0,0,0-.257-.583,3.248,3.248,0,0,0-.833-.794.159.159,0,0,1-.075-.106c0-.038.045-.076.113-.076a.139.139,0,0,1,.068.015,3,3,0,0,1,1.06.719,1.8,1.8,0,0,1,.6,1.165C264.71,26.44,264.582,26.539,264.438,26.539Z"/><path class="cls-1" d="M267.31,23.1a.988.988,0,0,1,.181.5.72.72,0,0,1-.068.28,1.95,1.95,0,0,0-.113.3,5.738,5.738,0,0,0-.318,1.7,2.748,2.748,0,0,0,.083.87c.015.045.046.068.068.068s.053-.038.068-.083c.212-.568.356-.938.522-1.4.023-.061.061-.106.121-.106a.074.074,0,0,1,.084.076.383.383,0,0,1-.023.121c-.114.416-.265.96-.34,1.256a1.919,1.919,0,0,0-.091.522c0,.159.037.363.037.476,0,.129-.06.227-.2.227s-.25-.106-.356-.3a3.137,3.137,0,0,1-.333-1.544,11.588,11.588,0,0,1,.25-2.05,3.271,3.271,0,0,0,.076-.552,1.3,1.3,0,0,0-.2-.6c-.03-.046-.053-.076-.053-.106a.075.075,0,0,1,.076-.061C266.939,22.687,267.181,22.922,267.31,23.1Zm3.867.862a.76.76,0,0,0,.235-.091.332.332,0,0,1,.189-.067.943.943,0,0,1,.325.053.221.221,0,0,1,.174.219c0,.121-.091.174-.257.2s-.325.045-.514.075-.379.054-.545.084c.007.4.007.945.007,1.3a2.945,2.945,0,0,1-.439,1.831,2.98,2.98,0,0,1-1.6,1.075.585.585,0,0,1-.2.037.076.076,0,0,1-.084-.083.126.126,0,0,1,.091-.106,2.884,2.884,0,0,0,1.4-1.142,3.713,3.713,0,0,0,.364-1.892c0-.25,0-.674-.008-.946l-.673.106a2.986,2.986,0,0,1-.424.031,1.074,1.074,0,0,1-.833-.349.2.2,0,0,1-.06-.128.075.075,0,0,1,.068-.076.15.15,0,0,1,.091.03,1.093,1.093,0,0,0,.62.167,7.422,7.422,0,0,0,1.211-.151c0-.3-.007-.522-.023-.863a1,1,0,0,0-.068-.393.273.273,0,0,0-.212-.114c-.083-.007-.189-.007-.242-.007s-.075-.008-.075-.039.045-.1.128-.151a.567.567,0,0,1,.341-.1,1.027,1.027,0,0,1,.477.174c.212.136.317.227.317.371a.21.21,0,0,1-.075.158.317.317,0,0,0-.076.212c-.015.235-.022.432-.022.659C270.919,24.019,271.086,23.981,271.177,23.958Z"/><path class="cls-1" d="M275.509,25.774a2.614,2.614,0,0,1,1.59-.6,1.548,1.548,0,0,1,1.726,1.513,1.927,1.927,0,0,1-2.142,1.785c-.825,0-1.408-.34-1.408-.855,0-.408.341-.628.757-.628a1.443,1.443,0,0,1,1.271.969,1.354,1.354,0,0,0,.954-1.309,1.109,1.109,0,0,0-1.2-1.2,2.416,2.416,0,0,0-1.71.772,5.765,5.765,0,0,0-.591.666.246.246,0,0,1-.189.1.282.282,0,0,1-.273-.295.383.383,0,0,1,.129-.273c.583-.627,1.211-1.278,1.756-1.944.325-.4.636-.779,1.014-1.279.053-.067.031-.083,0-.083a.7.7,0,0,0-.144.038c-.34.113-.726.257-1.029.378a.562.562,0,0,0-.257.159.283.283,0,0,1-.2.083.606.606,0,0,1-.378-.219.861.861,0,0,1-.272-.552c0-.076.045-.159.09-.159s.061.03.1.083c.166.219.273.295.4.295a1.806,1.806,0,0,0,.393-.053c.341-.083.659-.174,1-.287a.491.491,0,0,0,.227-.137.238.238,0,0,1,.173-.075,1.058,1.058,0,0,1,.477.234c.152.106.227.2.227.326,0,.075-.06.128-.2.158-.076.016-.144.053-.31.22-.25.25-.561.575-1.007,1.1-.28.325-.689.719-.991,1.059Zm.432,1.453a.368.368,0,0,0-.416.348c0,.31.4.522,1.006.522a1.468,1.468,0,0,0,.3-.023A1.119,1.119,0,0,0,275.941,27.227Z"/><path class="cls-1" d="M282.438,25.827a.319.319,0,0,1-.022.106,1.324,1.324,0,0,0-.091.5.762.762,0,0,0,.484.741,2.853,2.853,0,0,0,1.37.25,4.518,4.518,0,0,0,1.294-.159,1.43,1.43,0,0,1,.462-.068c.279,0,.484.128.484.325s-.159.272-.431.31a11.385,11.385,0,0,1-1.688.121,3.655,3.655,0,0,1-1.43-.242,1.216,1.216,0,0,1-.826-1.15,1.23,1.23,0,0,1,.205-.726.126.126,0,0,1,.1-.076C282.393,25.759,282.438,25.79,282.438,25.827Zm.492-1.937a1.165,1.165,0,0,1-.477-.37.13.13,0,0,1-.03-.091.082.082,0,0,1,.076-.083.181.181,0,0,1,.1.037,1.423,1.423,0,0,0,.507.2,2.929,2.929,0,0,0,.56.045,5.214,5.214,0,0,0,.719-.067,4.441,4.441,0,0,0,.674-.152.888.888,0,0,1,.219-.053.98.98,0,0,1,.272.038c.19.061.25.159.25.3s-.091.22-.348.242a5.014,5.014,0,0,0-1.052.182,5.477,5.477,0,0,0-1.249.749.416.416,0,0,1-.166.068.116.116,0,0,1-.083-.083.272.272,0,0,1,.083-.121c.166-.152.5-.439.772-.681A2.005,2.005,0,0,1,282.93,23.89Z"/><path class="cls-1" d="M290.948,24.791c-.037-.393-.045-.954-.075-1.589-.008-.166-.016-.219-.069-.28a.419.419,0,0,0-.212-.1,1.571,1.571,0,0,0-.181-.023c-.038-.007-.053-.015-.053-.045a.2.2,0,0,1,.091-.129.462.462,0,0,1,.28-.106,1.127,1.127,0,0,1,.658.287.352.352,0,0,1,.144.273.289.289,0,0,1-.083.181.39.39,0,0,0-.053.182,10.118,10.118,0,0,0-.023,1.452c.015.2.068.326.189.326a.832.832,0,0,0,.25-.053c.325-.144.727-.325,1.052-.5.068-.038.1-.061.1-.114,0-.083-.113-.2-.242-.287-.045-.031-.068-.038-.068-.061s.076-.091.159-.091a1.012,1.012,0,0,1,.553.311.643.643,0,0,1,.257.408c0,.137-.114.2-.235.227s-.264.068-.424.114c-.385.113-.8.25-1.211.408a4.7,4.7,0,0,0-1.127.621,1.1,1.1,0,0,0-.515.885.642.642,0,0,0,.379.567,2.642,2.642,0,0,0,1.211.182,6.157,6.157,0,0,0,1.134-.113,2.1,2.1,0,0,1,.379-.084.847.847,0,0,1,.326.068c.166.076.25.167.25.288,0,.151-.091.219-.417.272a10.936,10.936,0,0,1-1.415.076,3.726,3.726,0,0,1-1.575-.28,1,1,0,0,1-.612-.931,1.324,1.324,0,0,1,.37-.885,4.329,4.329,0,0,1,1.1-.824A.757.757,0,0,1,290.948,24.791Z"/><path class="cls-1" d="M299.231,24.261a.7.7,0,0,1,.6.31,1.584,1.584,0,0,1,.219.9,4.837,4.837,0,0,1-.3,1.6,2.475,2.475,0,0,1-.589.969,1,1,0,0,1-.674.341c-.174,0-.25-.046-.281-.2a.486.486,0,0,0-.113-.272c-.121-.144-.257-.288-.439-.477a.1.1,0,0,1-.037-.076c0-.03.037-.083.075-.083a.136.136,0,0,1,.083.038c.22.151.4.272.6.386a.5.5,0,0,0,.22.053.393.393,0,0,0,.287-.144,2.6,2.6,0,0,0,.537-1.029,5.011,5.011,0,0,0,.2-1.286,1.029,1.029,0,0,0-.129-.636.348.348,0,0,0-.325-.129,2.185,2.185,0,0,0-.523.091c-.234.484-.446.961-.674,1.4-.393.764-.734,1.43-1.142,2.126a.285.285,0,0,1-.265.152.224.224,0,0,1-.242-.212.466.466,0,0,1,.1-.28c.447-.674.855-1.354,1.234-2.051.2-.371.363-.681.515-1-.281.1-.576.219-.8.31a.83.83,0,0,0-.22.113.276.276,0,0,1-.189.083.506.506,0,0,1-.34-.181.846.846,0,0,1-.289-.53c0-.083.039-.181.077-.181s.045.015.083.067c.136.175.25.281.371.281a2.311,2.311,0,0,0,.545-.1c.264-.06.552-.136.915-.234a8.31,8.31,0,0,0,.341-.916.862.862,0,0,0,.053-.3c0-.068-.015-.106-.114-.174a1.087,1.087,0,0,0-.333-.113c-.075-.015-.1-.031-.1-.068s.044-.068.1-.1a.66.66,0,0,1,.272-.06,1.23,1.23,0,0,1,.757.318.313.313,0,0,1,.121.249c0,.076-.045.129-.144.174a.525.525,0,0,0-.182.242c-.09.205-.2.424-.3.659A2.379,2.379,0,0,1,299.231,24.261Zm3.013,2.33a.345.345,0,0,1-.22-.083.428.428,0,0,0-.28-.083c-.242,0-.507.015-.855.038a.094.094,0,0,1-.106-.1c0-.046.023-.076.083-.091a6.512,6.512,0,0,0,.848-.212c.091-.03.121-.053.121-.137a1.239,1.239,0,0,0-.257-.582,3.248,3.248,0,0,0-.833-.794.158.158,0,0,1-.076-.107c0-.037.046-.075.114-.075a.139.139,0,0,1,.068.015,3,3,0,0,1,1.06.719,1.8,1.8,0,0,1,.605,1.165C302.516,26.493,302.387,26.591,302.244,26.591Zm-1.28-3.676a1.693,1.693,0,0,1,.659.377c.182.16.288.3.288.454a.212.212,0,0,1-.212.228c-.1,0-.182-.068-.25-.205a2.611,2.611,0,0,0-.636-.726.119.119,0,0,1-.053-.076.078.078,0,0,1,.083-.075A.4.4,0,0,1,300.964,22.915Zm.659-.508a1.782,1.782,0,0,1,.605.3c.182.128.349.3.349.476a.214.214,0,0,1-.2.242c-.1,0-.16-.038-.243-.181a2.3,2.3,0,0,0-.7-.711.094.094,0,0,1-.053-.076.076.076,0,0,1,.076-.076A.988.988,0,0,1,301.623,22.407Z"/><path class="cls-1" d="M307.409,23.823c-.833.256-1.688.544-2.271.748a1.05,1.05,0,0,0-.325.174.278.278,0,0,1-.2.076c-.128.008-.31-.091-.507-.318a.808.808,0,0,1-.227-.424c0-.105.031-.189.068-.189s.068.031.1.061a.671.671,0,0,0,.567.265,2.711,2.711,0,0,0,.454-.083c1.1-.28,2.233-.575,3.346-.863a.936.936,0,0,0,.295-.113.507.507,0,0,1,.257-.076,1.228,1.228,0,0,1,.492.128c.106.046.2.122.2.235.007.159-.076.227-.265.235a4.838,4.838,0,0,0-1.332.166,2.423,2.423,0,0,0-1.09.7,2.174,2.174,0,0,0-.6,1.467,1.426,1.426,0,0,0,.522,1.136,2.577,2.577,0,0,0,1.385.461,1.01,1.01,0,0,1,.522.128.344.344,0,0,1,.2.326c0,.128-.083.219-.4.219a3.383,3.383,0,0,1-1.771-.559,1.827,1.827,0,0,1-.809-1.5,2.407,2.407,0,0,1,.34-1.293,3.231,3.231,0,0,1,1.052-1.082Zm1.256,1.006a1.7,1.7,0,0,1,.659.378c.181.159.287.295.287.454a.21.21,0,0,1-.212.227c-.1,0-.182-.068-.25-.205a2.635,2.635,0,0,0-.635-.726.116.116,0,0,1-.054-.075.079.079,0,0,1,.084-.076A.419.419,0,0,1,308.665,24.829Zm.659-.508a1.8,1.8,0,0,1,.6.3.693.693,0,0,1,.348.477.215.215,0,0,1-.2.242c-.1,0-.159-.038-.242-.182a2.316,2.316,0,0,0-.7-.712.087.087,0,0,1-.052-.075.076.076,0,0,1,.075-.076A1.133,1.133,0,0,1,309.324,24.321Z"/><path class="cls-1" d="M315,24.882a5.769,5.769,0,0,0,.734-.363c.03-.023.038-.038.038-.061a.109.109,0,0,0-.038-.06,3.447,3.447,0,0,0-.288-.265c-.038-.031-.053-.054-.053-.084a.082.082,0,0,1,.068-.06c.031,0,.053.015.106.045a2.016,2.016,0,0,0,.326.144.7.7,0,0,0,.235.045,1.473,1.473,0,0,1,.249-.015c.121.008.182.076.182.159a.247.247,0,0,1-.137.212,6.579,6.579,0,0,1-1.263.65,5.587,5.587,0,0,0,.688,1.052.7.7,0,0,1,.25.545c0,.272-.121.363-.2.363a.252.252,0,0,1-.2-.091,1.134,1.134,0,0,0-.485-.31,4.069,4.069,0,0,0-1.135-.167,1.77,1.77,0,0,0-.908.205.579.579,0,0,0-.318.469c0,.288.121.507.606.651a3.68,3.68,0,0,0,1.037.144c.113,0,.424-.008.545-.008a.414.414,0,0,1,.279.076.3.3,0,0,1,.114.249.21.21,0,0,1-.167.22,2.34,2.34,0,0,1-.484.038,4.373,4.373,0,0,1-1.4-.258,1.109,1.109,0,0,1-.863-1.013.872.872,0,0,1,.462-.773,2.581,2.581,0,0,1,1.309-.279c.25,0,.719.037,1.12.083-.151-.3-.34-.643-.56-1.082a4.552,4.552,0,0,1-1.385.265c-.431,0-.726-.144-.726-.484a.689.689,0,0,1,.143-.4c.046-.061.083-.069.106-.069s.068.023.068.054a.2.2,0,0,1-.022.083.592.592,0,0,0-.046.234c0,.159.061.227.379.227a4.169,4.169,0,0,0,1.332-.265c-.129-.325-.242-.62-.379-.968a4.559,4.559,0,0,1-1.218.219,1.724,1.724,0,0,1-.605-.09.732.732,0,0,1-.394-.273.177.177,0,0,1-.038-.09.066.066,0,0,1,.068-.061.207.207,0,0,1,.091.038,1.482,1.482,0,0,0,.749.128,4.551,4.551,0,0,0,1.234-.249c-.068-.235-.189-.575-.273-.825-.06-.174-.113-.25-.3-.265-.083-.007-.173,0-.226,0-.03,0-.053-.015-.053-.038a.146.146,0,0,1,.053-.106.622.622,0,0,1,.393-.144,1.725,1.725,0,0,1,.477.114c.151.053.234.152.234.219a.383.383,0,0,1-.045.175.313.313,0,0,0-.022.2,4.442,4.442,0,0,0,.105.545,3.437,3.437,0,0,0,.583-.28c.122-.068.182-.128.28-.189a.64.64,0,0,1,.3-.106c.181.008.264.091.264.2s-.03.182-.181.25a11.4,11.4,0,0,1-1.151.515A8.211,8.211,0,0,0,315,24.882Z"/><path class="cls-1" d="M322.409,27.666a.82.82,0,0,1-.3.688,1.344,1.344,0,0,1-.908.242c-.636,0-1.264-.249-1.264-.794,0-.575.682-.779,1.226-.779a6.051,6.051,0,0,1,.772.052c-.007-.431-.007-.885-.015-1.263-.174.015-.462.023-.666.023-.712,0-.991-.2-.991-.522a.68.68,0,0,1,.128-.409c.038-.052.076-.083.114-.083s.068.023.068.053a.285.285,0,0,1-.031.1.475.475,0,0,0-.037.2c0,.189.144.28.6.28.242,0,.56-.016.8-.038,0-.409-.007-.749-.015-1.158a11.246,11.246,0,0,1-1.43.1,1.121,1.121,0,0,1-1.052-.515.181.181,0,0,1-.03-.1.064.064,0,0,1,.06-.052.132.132,0,0,1,.091.038,1.364,1.364,0,0,0,.878.257,11.878,11.878,0,0,0,1.468-.136c0-.265,0-.644-.008-.878-.007-.181-.014-.258-.075-.318a.364.364,0,0,0-.2-.091,1.789,1.789,0,0,0-.189-.007.055.055,0,0,1-.054-.061c0-.045.038-.075.106-.121a.539.539,0,0,1,.281-.083,1.055,1.055,0,0,1,.506.167c.228.128.3.264.3.347a.223.223,0,0,1-.091.182.351.351,0,0,0-.121.258c-.022.242-.03.393-.03.537a8.125,8.125,0,0,0,.825-.174,1.318,1.318,0,0,0,.364-.144.606.606,0,0,1,.34-.084c.189,0,.469.084.469.258,0,.136-.083.2-.416.272a15.458,15.458,0,0,1-1.582.287c-.008.394-.008.75-.008,1.158a4.345,4.345,0,0,0,.674-.151.894.894,0,0,0,.242-.136.556.556,0,0,1,.325-.091c.228,0,.356.076.356.2s-.083.189-.257.257a6.185,6.185,0,0,1-1.332.325c.008.431.038.984.061,1.4a5.957,5.957,0,0,1,1.733.749.44.44,0,0,1,.249.371.266.266,0,0,1-.234.287.385.385,0,0,1-.265-.1,5.149,5.149,0,0,0-1.445-.87ZM321,27.333c-.355,0-.794.113-.794.439s.447.439.885.439a.941.941,0,0,0,.682-.19.7.7,0,0,0,.166-.552A3.773,3.773,0,0,0,321,27.333Z"/><path class="cls-1" d="M331.479,23.716a.939.939,0,0,0,.386-.075.535.535,0,0,1,.234-.053,1.364,1.364,0,0,1,.591.2.324.324,0,0,1,.189.28.18.18,0,0,1-.174.189,2.466,2.466,0,0,1-.4-.068,5.157,5.157,0,0,0-.916-.084c-.4,0-.764,0-1.181.031-.007.552-.015.945-.015,1.377a2.256,2.256,0,0,1,.129.832,2.11,2.11,0,0,1-.908,1.7,4.244,4.244,0,0,1-1.294.605.959.959,0,0,1-.235.045c-.068,0-.106-.038-.106-.083s.022-.076.1-.106a4.118,4.118,0,0,0,1.211-.7,2.043,2.043,0,0,0,.719-1.1.778.778,0,0,1-.522.174.819.819,0,0,1-.825-.931.89.89,0,0,1,.855-.923.9.9,0,0,1,.484.121c0-.325-.007-.628-.014-.953a15,15,0,0,0-1.87.333,1.641,1.641,0,0,0-.515.181.382.382,0,0,1-.219.076.692.692,0,0,1-.447-.219.779.779,0,0,1-.31-.492c0-.091.023-.144.061-.144a.085.085,0,0,1,.053.023c.234.227.348.287.567.287a2.784,2.784,0,0,0,.484-.06c.727-.121,1.492-.235,2.188-.318,0-.28,0-.476-.008-.741a1.038,1.038,0,0,0-.045-.333.235.235,0,0,0-.212-.121,1.877,1.877,0,0,0-.22-.023c-.045,0-.075-.015-.075-.045,0-.046.015-.069.068-.114a.647.647,0,0,1,.379-.151.96.96,0,0,1,.552.227c.151.113.212.181.212.272a.3.3,0,0,1-.1.212.324.324,0,0,0-.084.22c-.007.143-.015.325-.023.559C330.684,23.762,331.1,23.739,331.479,23.716Zm-2.694,2.165a.512.512,0,0,0,.529.559c.318,0,.515-.219.522-.582-.022-.333-.189-.621-.545-.621C329.027,25.237,328.785,25.449,328.785,25.881Z"/><path class="cls-1" d="M335.834,27.87a1,1,0,1,1-1-1A1.018,1.018,0,0,1,335.834,27.87Zm-1.733,0a.734.734,0,1,0,.734-.734A.749.749,0,0,0,334.1,27.87Z"/><path class="cls-1" d="M337.66,21.84a5.266,5.266,0,0,1,1.536,1.65,3.849,3.849,0,0,1,0,3.949,5.251,5.251,0,0,1-1.521,1.634.166.166,0,0,1-.091.038.043.043,0,0,1-.045-.045c0-.031.022-.061.06-.1a4.617,4.617,0,0,0-.022-7.029.117.117,0,0,1-.038-.083c0-.023.015-.038.045-.038A.13.13,0,0,1,337.66,21.84Z"/></svg>