<svg id="レイヤー_1" data-name="レイヤー 1" xmlns="http://www.w3.org/2000/svg" viewBox="0 0 180 62"><defs><style>.cls-1{fill:#965050;}.cls-2{fill:none;stroke:#965050;stroke-miterlimit:10;stroke-width:0.5px;}</style></defs><path class="cls-1" d="M33.074,9.625c1.3-1.634,1.338-1.688,1.537-1.688s.29.054,1.23.934c.615.575.814.79.814.916s-.091.2-.235.2H29.168c0,2.891.109,5.5.109,6.087,0,.521-.633.79-1.718.79-.723,0-.922-.143-.922-.682,0-.485.145-3.179.145-6.195H22.768c-.634,0-1.339.035-2.37.125l-.18-.61c1.193.089,1.916.125,2.55.125h4.014c0-5.549-.019-6.859-.073-7.506H23.544c-.632,0-1.284.036-2.314.126l-.181-.611c1.194.09,1.863.126,2.5.126h8.68C33.473.251,33.544.2,33.707.2s.235.054,1.266.916c.687.575.759.683.759.808s-.09.2-.234.2H29.656c-.017.18-.162.269-.488.5v7ZM21.827,3.592c-.09-.072,0-.18.108-.162,2.423.611,3.816,2.083,3.816,3.538A1.473,1.473,0,0,1,24.322,8.62c-.669,0-1.085-.5-1.085-1.257C23.22,5.6,22.821,4.346,21.827,3.592Zm9.981-.5c2.749,1.149,2.857,1.257,2.857,1.526,0,.216-.18.341-.669.431a19.692,19.692,0,0,1-4.014,3.915c-.09.054-.217-.036-.163-.126a17.294,17.294,0,0,0,1.79-4.705C31.664,3.9,31.737,3.52,31.808,3.089Z"/><path class="cls-1" d="M54.28,15.641c1.174-1.454,1.229-1.49,1.41-1.49s.253.054,1.1.808c.7.628.742.718.742.88,0,.09-.055.161-.182.161H44.786a11.469,11.469,0,0,0-1.844.126l-.182-.61a17.611,17.611,0,0,0,2.026.125h4.268V12.786H46.9a17.685,17.685,0,0,0-1.9.126l-.181-.611a19.524,19.524,0,0,0,2.079.126h2.153a16.116,16.116,0,0,0-.091-2.191c-.742.144-1.518.269-2.332.413-.163.431-.308.539-.453.539-.289,0-.379-.288-1.013-2.514.579.018,1.05.036,1.375.036l1.194.017c.325-.844.6-1.634.813-2.352H45.021a16.236,16.236,0,0,1-.9,5.711,10.705,10.705,0,0,1-3.382,4.471c-.09.072-.234-.036-.163-.126a9.719,9.719,0,0,0,1.646-3.842,29.49,29.49,0,0,0,.561-7.345A37.868,37.868,0,0,0,42.634.269c2.278.485,2.785.7,2.893.88H53.2C54.135.126,54.207.09,54.388.09c.2,0,.29.018,1.193.718.615.467.688.575.688.718,0,.18-.037.234-.561.611v.5c0,.592.072,1.113.072,1.4,0,.538-.6.844-1.537.844-.669,0-.778-.144-.8-.593H45.039v.036c0,.61,0,1.167-.018,1.688H54.28c1.067-1.257,1.139-1.293,1.3-1.293s.235.036.977.682c.651.575.724.665.724.809,0,.107-.073.161-.182.161H51.658c-.019.126-.182.233-.507.359-.669.7-1.357,1.383-2.043,2.011,1.5.018,3.11.018,4.647,0a3.611,3.611,0,0,0-1.447-1.4c-.09-.054-.017-.2.091-.2,2.568.126,3.978.988,3.978,2.335A1.165,1.165,0,0,1,55.2,10.631c-.578,0-.813-.251-.994-.826a6.142,6.142,0,0,0-.234-.611c-1.321.324-2.7.611-4.2.9,2.044.18,2.206.324,2.206.539,0,.162-.072.3-.669.5v1.293h1.772c1.121-1.365,1.176-1.383,1.32-1.383s.217.018,1.048.772c.6.539.652.629.652.754,0,.162-.073.216-.2.216H51.314v2.855ZM45.4,1.508a1.269,1.269,0,0,1-.362.216V3.933h8.409V1.508Z"/><path class="cls-1" d="M72.881,9.105c-.018.2-.091.3-.47.52v3.969c0,.485.144.647,1.338.647,1.41,0,1.682-.054,2.1-.431a7.3,7.3,0,0,0,1.59-2.73.093.093,0,0,1,.182.036q-.19,1.4-.218,2.1a1.4,1.4,0,0,0,.254,1.006,1.377,1.377,0,0,1,.38.969c0,.934-.959,1.383-4.377,1.383-3.038,0-3.544-.5-3.544-2.083,0-.449.073-2.137.073-3.358,0-.952-.019-1.562-.037-2.029H67.8c1.357.269,1.556.449,1.556.61,0,.216-.109.3-.489.485-.469,3.34-2.965,6.07-7.342,6.752-.107.018-.162-.161-.054-.2a7.614,7.614,0,0,0,4.9-7.094c0-.179,0-.377-.018-.556H64.689c-.651,0-1.483.036-2.477.125l-.163-.61a20.682,20.682,0,0,0,2.64.125h9.765c1.32-1.58,1.41-1.634,1.592-1.634s.27.018,1.32.97c.614.557.669.629.669.772,0,.162-.073.252-.345.252Zm-8.3-5.8a3.7,3.7,0,0,1,.181,1.114A1.711,1.711,0,0,1,63.026,6.2,1.09,1.09,0,0,1,61.85,5.064a1.448,1.448,0,0,1,.76-1.257,1.819,1.819,0,0,0,.9-1.921c0-.108.128-.126.2-.036a4.81,4.81,0,0,1,.723,1.095h4.177V1.526a10.024,10.024,0,0,0-.108-1.49c2.893.179,3.237.377,3.237.646,0,.216-.091.306-.741.593v1.67h3.67c.959-1.024,1.049-1.077,1.248-1.077.217,0,.434.107,1.3.915.7.665.922.952.922,1.24,0,.341-.2.52-.85.538a3.593,3.593,0,0,0-1.3.2c-.326.126-.813.359-1.465.682-.09.054-.162.018-.126-.089.307-.827.506-1.437.686-2.048Zm6.98,2.712c1.084-1.329,1.157-1.365,1.338-1.365s.253.036,1.066.754c.579.5.67.629.67.773s-.127.2-.271.2H67.221c-.416,0-1.194.036-2.043.126L65,5.89c.887.09,1.7.126,2.225.126Z"/><path class="cls-1" d="M92.313,4.346a18.108,18.108,0,0,0,1.266,5.082,22.8,22.8,0,0,0,.885-2.712c.127-.485.236-1.041.345-1.6,2.549,1.221,2.712,1.365,2.712,1.616,0,.216-.163.342-.687.467a16.822,16.822,0,0,1-2.152,4.13,7.8,7.8,0,0,0,1.447,1.527.835.835,0,0,0,.524.2c.325,0,.868-.574,2.134-2.226.072-.09.18-.036.144.071a16.755,16.755,0,0,0-.777,2.5,2.075,2.075,0,0,0,.181.772,2.08,2.08,0,0,1,.27.934,1.165,1.165,0,0,1-1.192,1.185,2.854,2.854,0,0,1-1.646-.539,10.081,10.081,0,0,1-2.55-2.55,13.122,13.122,0,0,1-5.967,3.376c-.109.036-.2-.126-.109-.179a12.849,12.849,0,0,0,5.1-4.813,12.434,12.434,0,0,1-.542-1.2,23.946,23.946,0,0,1-1.374-6.034H86.418a1.567,1.567,0,0,1-.4.233V7.47h1.916c.815-.987.851-1,1.031-1,.2,0,.272.018,1.158.736.524.431.6.521.6.664,0,.18-.055.234-.506.557a12.823,12.823,0,0,1-.688,4.184,2.657,2.657,0,0,1-2.242,1.635c-.362,0-.542-.072-.615-.378a1.442,1.442,0,0,0-1.1-1.311.09.09,0,0,1,.019-.179,7.779,7.779,0,0,0,1.265-.036c.416-.036.687-.377.814-.88a17.371,17.371,0,0,0,.452-3.627h-2.1v.233c0,4.418-1.609,7.363-3.779,8.764-.091.053-.181-.036-.109-.126,1.194-1.383,1.773-3.233,1.773-9.3a33.076,33.076,0,0,0-.163-4.167,8.26,8.26,0,0,1,2.676.755H90.27c-.037-.449-.091-.916-.127-1.383C90.053,1.508,90,.988,89.89.323c2.731.305,2.911.431,2.911.736,0,.2-.109.324-.669.575.018.826.073,1.6.144,2.353H95.55c1.139-1.545,1.193-1.563,1.392-1.563.181,0,.272.054,1.157.9.579.557.651.665.651.79,0,.144-.09.234-.271.234ZM93.054.5c2.152,0,3.092.844,3.092,1.832a1.189,1.189,0,0,1-1.211,1.221q-.95,0-1.085-1.132A2.305,2.305,0,0,0,92.982.7C92.891.646,92.946.5,93.054.5Z"/><path class="cls-1" d="M114.025,13.792c0,.628.09.682,1.7.682,1.644,0,2.115-.18,2.64-1.131a17.034,17.034,0,0,0,.922-1.976c.036-.107.162-.054.144.054-.108,1.1-.2,1.742-.2,2.119a1.255,1.255,0,0,0,.253.862,1.2,1.2,0,0,1,.361.844c0,1.006-.922,1.473-4.484,1.473-3.292,0-3.635-.413-3.635-1.814,0-.233.036-.575.036-2.173a32.15,32.15,0,0,0-.072-3.268H109.16c2.043.556,2.369.736,2.369.97,0,.179-.09.305-.633.52-.8,3.592-3.8,5.891-7.974,6.052-.109,0-.146-.179-.037-.2,2.84-.521,4.883-2.64,5.551-5.927.037-.2.073-.377.092-.538-.182.3-.6.467-1.357.467-.705,0-.814-.216-.814-.575,0-.305.09-1.634.09-6.195,0-2.425-.017-3.107-.072-3.807a8.714,8.714,0,0,1,2.659.79h5.171c.886-.97.977-1.024,1.158-1.024.235,0,.325.018,1.247.79.633.521.7.629.7.79,0,.2-.072.27-.506.575V4.13c0,4.49.073,5.352.073,5.711,0,.5-.507.79-1.592.79-.687,0-.832-.162-.832-.7V9.643a1.169,1.169,0,0,1-.433.288ZM109.07,1.383a.914.914,0,0,1-.416.251V3.7h5.8V1.383Zm-.416,2.676V6.375h5.8V4.059Zm0,2.675V9.105h5.8V6.734Z"/><path class="cls-1" d="M137.273,4.848c.958-1.023,1.048-1.077,1.247-1.077.218,0,.435.108,1.3.916.7.665.922.952.922,1.239,0,.341-.2.521-.85.539a3.622,3.622,0,0,0-1.3.2c-.362.144-.795.324-1.429.593-.108.036-.162.018-.126-.09.289-.808.488-1.365.651-1.957H126.658a3.178,3.178,0,0,1,.163,1.023,1.71,1.71,0,0,1-1.736,1.778,1.087,1.087,0,0,1-1.175-1.131,1.448,1.448,0,0,1,.759-1.257,1.818,1.818,0,0,0,.9-1.922c0-.107.127-.125.2-.036a4.619,4.619,0,0,1,.76,1.185h7.3a25.356,25.356,0,0,0,1.357-3.86c.054-.216.108-.467.163-.808,2.73.915,3.073,1.221,3.073,1.454,0,.27-.163.413-.94.521-.94.988-1.808,1.9-2.658,2.693Zm-.253,6.017c1.3-1.563,1.338-1.6,1.555-1.6.2,0,.271.018,1.139.844.742.7.778.755.778.9a.2.2,0,0,1-.2.216h-6.944c.019,1.724.109,2.621.109,3.268a2.01,2.01,0,0,1-1.3,2.191,4.418,4.418,0,0,1-1.464.287c-.362,0-.506-.161-.6-.556-.163-.755-.868-1.258-2.3-1.635-.109-.036-.109-.179,0-.179a19.867,19.867,0,0,0,2.405-.018c.615-.054.9-.323.9-1.024V11.224h-4.359c-.65,0-1.482.036-2.476.125l-.163-.61a20.5,20.5,0,0,0,2.639.126h4.359v-.324A13.683,13.683,0,0,0,131,8.727c1.013.108,1.7.2,2.17.27q.516-.674,1.139-1.67h-4.864a11.523,11.523,0,0,0-1.827.125l-.163-.61a18.589,18.589,0,0,0,1.99.126h4.792c.832-.88.9-.916,1.067-.916s.289.054,1.067.682c.831.683.958.88.958,1.042,0,.323-.127.377-1.284.413-.705.3-1.428.592-2.3.952.253.071.307.179.307.3,0,.179-.073.269-.705.574v.845ZM126.893.611c1.953.107,3.327,1.005,3.327,2.262a1.3,1.3,0,0,1-1.391,1.4c-.6,0-.959-.305-1.031-1.077-.236-1.635-.543-2.066-1.031-2.407C126.677.736,126.785.611,126.893.611Zm3.563-.288c-.073-.072.018-.2.126-.179,1.863.305,3.11,1.275,3.11,2.424a1.288,1.288,0,0,1-1.355,1.419c-.76,0-1.05-.485-1.086-1.132C131.179,1.185,130.871.7,130.456.323Z"/><path class="cls-1" d="M161.733,6.465a3.562,3.562,0,0,0-1.483,1.8c-.109.287-.216.377-.362.377a1.476,1.476,0,0,1-.523-.126,10.962,10.962,0,0,1-3.328-2.334A10.941,10.941,0,0,1,153.4,1.6a19.747,19.747,0,0,1-8.644,8.045c-.109.036-.2-.143-.109-.2,1.791-1.114,4.721-4.992,6.041-8.243a5.765,5.765,0,0,0,.361-1.2c2.785.539,3.182.79,3.182,1.042,0,.179-.144.3-.56.448a10.371,10.371,0,0,0,3.58,3.053,16.964,16.964,0,0,0,4.485,1.742C161.841,6.3,161.823,6.411,161.733,6.465Zm-5.244,3.609c1.1-1.49,1.157-1.526,1.32-1.526s.236.018,1.194.9c.651.592.705.646.705.808a.176.176,0,0,1-.2.18h-5.443c-.018.251-.127.413-.669.61-.669,1.042-1.338,2.029-2.026,3.017,1.629-.018,3.219-.072,4.648-.162a4.952,4.952,0,0,0-1.718-1.741c-.09-.054-.018-.18.09-.18,3.527.251,4.991,2.065,4.991,3.322a1.339,1.339,0,0,1-1.41,1.455,1.286,1.286,0,0,1-1.194-1.042,7.887,7.887,0,0,0-.415-1.131c-1.935.5-4.739,1.131-8.282,1.9-.218.342-.272.395-.452.395-.254,0-.344-.107-1.067-2.873.6.036,1.284.072,1.862.072h1.447c.307-1.131.6-2.388.868-3.645H148.7c-.65,0-1.482.035-2.477.125l-.162-.61a20.652,20.652,0,0,0,2.639.125ZM151.118,7.65a14.992,14.992,0,0,0-1.952.126L149,7.165a17.066,17.066,0,0,0,2.115.126h2.821c1.031-1.293,1.067-1.329,1.212-1.329s.2.018.94.7c.67.611.687.665.687.808,0,.126-.09.18-.216.18Z"/><path class="cls-1" d="M48.11,31.592v9.877c0,.629-.433.88-1.41.88-.686,0-.849-.126-.849-.664,0-.862.126-4.274.126-10.147,0-3.483-.018-4.6-.109-5.872a9.273,9.273,0,0,1,2.514.557h2.134c.7-.736.759-.79.922-.79s.253.036,1.158.736c.561.431.632.539.632.7s-.071.234-.488.575V28.4c0,1.257.072,2.693.072,3.071,0,.5-.433.79-1.32.79-.56,0-.7-.072-.741-.665Zm.362-5.01a.652.652,0,0,1-.362.251v1.832h2.641V26.582Zm-.362,2.442v2.209h2.641V29.024ZM56,36.836c0,2.083.109,3.933.109,4.256,0,.485-.345.7-1.3.7-.632,0-.849-.107-.849-.538,0-.342.072-2.353.072-4.418H52.831a5.3,5.3,0,0,1-4.106,5.046.08.08,0,1,1-.071-.144c1.374-.736,2.1-1.9,2.223-4.9h-.2a11.409,11.409,0,0,0-1.827.126l-.163-.611a18.574,18.574,0,0,0,1.99.126H50.9v-.7A13.529,13.529,0,0,0,50.823,34a11.067,11.067,0,0,0-1.627.125l-.163-.61a18.781,18.781,0,0,0,1.989.125h4.72c.868-1.149.9-1.185,1.048-1.185s.2.018.724.539c.651.646.7.718.7.826,0,.144-.072.18-.253.18H56.5c0,.143-.108.269-.506.466v2.012h.379c.868-1.15.905-1.185,1.05-1.185s.2.017.723.538c.651.647.7.719.7.826,0,.144-.072.18-.253.18Zm-3.129-1.024c0,.234,0,.449-.017.665h1.175c0-1.15-.036-1.832-.091-2.478h-.542c-.018.161-.127.233-.525.395Zm6-9.589c.85-.88.922-.9,1.068-.9.2,0,.289.018,1.157.736.723.593.777.7.777.844,0,.162-.036.2-.488.575v4.525c0,5.621.09,7.417.09,8.153a1.7,1.7,0,0,1-.7,1.652,3,3,0,0,1-1.754.557c-.362,0-.489-.09-.6-.5-.216-.826-.741-1.185-1.718-1.4-.108-.018-.09-.215.019-.215a16.836,16.836,0,0,0,1.88-.108c.362-.036.506-.467.506-.844v-7.7H56.23c-.072.593-.452.755-1.266.755-.615,0-.723-.126-.723-.629,0-.395.054-1.975.054-3.556,0-1.077,0-1.67-.072-2.514a7.359,7.359,0,0,1,2.405.575Zm-2.188.359a1.478,1.478,0,0,1-.434.269v1.814h2.857V26.582Zm2.423,4.651V29.024H56.248v2.209Z"/><path class="cls-1" d="M69.949,35.561c0,4.507.037,5.567.037,6.07s-.508.772-1.447.772c-.688,0-.8-.144-.8-.611s.073-1.688.109-4.363l.054-4.957a16.206,16.206,0,0,1-2.133,2.263c-.09.072-.235-.054-.163-.144a28.891,28.891,0,0,0,3.147-7.74,9.836,9.836,0,0,0,.235-1.293c2.549.844,2.8,1.1,2.8,1.347,0,.27-.18.449-.849.593a19.269,19.269,0,0,1-1.628,3c1,.395,1.193.557,1.193.754,0,.162-.108.287-.56.467ZM80,40.607c1.031-1.347,1.121-1.4,1.284-1.4.18,0,.272.054,1.176.9.56.521.578.593.578.7,0,.089-.072.161-.2.161H74.18v.683c0,.485-.47.718-1.247.718-.742,0-.922-.072-.905-.521l.109-4.292.072-2.388A12.963,12.963,0,0,1,70.2,36.674a.091.091,0,0,1-.109-.143,15.622,15.622,0,0,0,3.02-5.442,2.423,2.423,0,0,1-.379.018c-.56,0-.669-.125-.669-.628,0-.162.072-1.365.072-2.371a16.038,16.038,0,0,0-.072-1.9c2.405.18,2.531.323,2.531.592,0,.18-.072.27-.6.5v2.209h1.916V27.5c0-.772-.017-1.167-.072-1.922,2.477.162,2.73.342,2.73.593,0,.162-.072.269-.6.5v2.837h1.935V28.216a14.512,14.512,0,0,0-.09-2.011c2.567.18,2.8.323,2.8.592,0,.162-.091.288-.614.5v.772c0,.827.054,1.8.054,2.066,0,.413-.272.736-1.5.736-.6,0-.651-.144-.651-.611v-.4H74v.5c1.646.593,1.844.736,1.844.934s-.108.323-.651.431a6.825,6.825,0,0,1-.651.952l.054.035h1.971c.29-.807.525-1.544.669-2.082.037-.162.073-.36.109-.629,1.917.557,2.386.682,2.386.988,0,.215-.144.287-.614.359-.578.485-1.193.97-1.718,1.364H79.75c1.031-1.292,1.067-1.328,1.23-1.328s.271.054.939.718c.615.61.634.683.634.808,0,.09-.073.162-.2.162h-3.8a.444.444,0,0,1-.2.215v2.047h.959c.976-1.221,1.067-1.329,1.212-1.329s.253.09,1.031.845c.506.5.542.574.542.682,0,.09-.073.162-.2.162H78.357v2.262H79.3c.958-1.221,1.048-1.329,1.193-1.329s.271.09,1.049.844c.506.5.542.575.542.683,0,.09-.071.161-.2.161H78.357v2.281Zm-3.779-6.375c0-.539,0-.88-.018-1.149H74.578a2.208,2.208,0,0,1-.4.215v2.047h2.044Zm0,1.473H74.18v2.262h2.044Zm-2.044,4.9h2.044V38.326H74.18Z"/><path class="cls-1" d="M87.176,32.58a2.52,2.52,0,0,0-.741-1.975c-.073-.072-.055-.144.054-.144,1.935-.018,2.966.862,2.966,1.831a1.262,1.262,0,0,1-1.266,1.4C87.556,33.693,87.194,33.3,87.176,32.58Zm2.315,9.679a1.189,1.189,0,0,1-1.3-1.293c0-.413.108-1.221.108-1.742,0-.7-.253-1.275-1.429-1.706-.107-.036-.09-.215.019-.215.234.018.434.036.65.036.416,0,.634-.323.887-.934.9-2.245,2.079-5.262,3.436-9.23.036-.108.216-.054.2.053-.8,4.131-1.5,7.507-1.863,9.321a6.406,6.406,0,0,0-.09,1.2c0,1.113.958,2.065.958,2.981A1.5,1.5,0,0,1,89.491,42.259ZM87.882,25.846c1.934.054,3.127.844,3.127,2.029a1.257,1.257,0,0,1-1.265,1.383,1.018,1.018,0,0,1-1.086-1.024c-.09-1.221-.234-1.742-.831-2.245C87.736,25.918,87.773,25.846,87.882,25.846Zm9.8,8.3a8.248,8.248,0,0,0,2.695,3.9,10.909,10.909,0,0,0,3.544,1.975c.108.036.09.162-.019.2a3.853,3.853,0,0,0-1.79,1.76.518.518,0,0,1-.415.3.637.637,0,0,1-.489-.179,9.494,9.494,0,0,1-3.742-7.956,9.972,9.972,0,0,1-2.044,5.423,8.08,8.08,0,0,1-4.973,2.91c-.109.018-.181-.144-.072-.18a7.082,7.082,0,0,0,3.634-3.43,12.218,12.218,0,0,0,1.212-4.723H93.342a11.4,11.4,0,0,0-1.826.126l-.163-.61a18.8,18.8,0,0,0,1.989.125h1.917c.055-.862.09-1.832.09-3V29.419h-.777a13.583,13.583,0,0,0-2.08.126l-.163-.611a21.04,21.04,0,0,0,2.243.126h.777c-.018-2.083-.035-2.819-.108-3.555,2.514.179,2.984.359,2.984.628,0,.18-.127.323-.6.557l-.018,2.37h1.374c.94-1.095,1.013-1.131,1.193-1.131.2,0,.272.036,1.176.826.56.5.614.593.614.754,0,.144-.035.2-.542.593v3.681h.073c.886-1.473.921-1.508,1.067-1.508s.2.017.814.808c.523.664.56.772.56.88,0,.126-.108.179-.29.179ZM97.61,31.2c0,.952-.037,1.8-.109,2.586h1.718V29.419H97.61Z"/><path class="cls-1" d="M117.151,39.3a14.864,14.864,0,0,0,2.35.162,33.893,33.893,0,0,0,4.9-.287c.109-.019.127.143.037.2a2.652,2.652,0,0,0-1.32,2.047.532.532,0,0,1-.507.467,23.728,23.728,0,0,1-2.749.054c-3.055,0-4.447-.647-5.587-1.706a6.367,6.367,0,0,1-1.808-3.556,9.688,9.688,0,0,1-4.81,5.585c-.09.036-.2-.072-.108-.143,1.482-1.2,2.73-3.933,2.983-7.83.037-.431.037-.736.037-1.114,2.549.575,2.947.7,2.947.988,0,.162-.127.287-.579.449a8.5,8.5,0,0,1-.307,1.527,4.885,4.885,0,0,0,1.428,1.975,3.409,3.409,0,0,0,.778.521V33.783c0-.664,0-1.2-.054-1.832H112.5c-.416,0-1.193.036-2.043.126l-.181-.61c.886.089,1.7.125,2.224.125h5.949c1.122-1.418,1.157-1.454,1.3-1.454s.217.018,1.031.808c.56.539.669.664.669.808s-.126.2-.272.2h-3.634c-.036.108-.127.2-.4.341v3.269h1.337c1.14-1.509,1.194-1.562,1.374-1.562s.236.017,1.23.951c.489.449.651.629.651.79a.161.161,0,0,1-.18.18h-4.412Zm-6.474-10.559a3.7,3.7,0,0,1,.181,1.113,1.71,1.71,0,0,1-1.736,1.778,1.089,1.089,0,0,1-1.176-1.131,1.448,1.448,0,0,1,.76-1.257,1.819,1.819,0,0,0,.9-1.922c0-.108.128-.125.2-.036a4.837,4.837,0,0,1,.723,1.1h4.177V26.959a10.024,10.024,0,0,0-.108-1.49c2.893.179,3.237.377,3.237.646,0,.216-.091.305-.741.593v1.67h3.67c.959-1.024,1.049-1.078,1.248-1.078.217,0,.434.108,1.3.916.705.665.922.952.922,1.239,0,.324-.2.5-.85.521a3.888,3.888,0,0,0-1.32.18c-.4.143-.7.251-1.356.52-.109.036-.163.018-.127-.089.289-.826.416-1.257.6-1.85Z"/><path class="cls-1" d="M133.854,27.7a18.424,18.424,0,0,1-.687,3.52,22.6,22.6,0,0,0-.6,4.508,11.039,11.039,0,0,0,.073,1.185c0,.143-.217.323-.489.323-.09,0-.162-.108-.162-.2a11.017,11.017,0,0,0,.072-1.185,21.977,21.977,0,0,0-.6-4.507,17.763,17.763,0,0,1-.742-3.646,1.565,1.565,0,0,1,3.128,0Zm-.108,12.427a1.474,1.474,0,1,1-1.465-1.454A1.481,1.481,0,0,1,133.746,40.122Z"/><path class="cls-1" d="M0,58.112a.949.949,0,0,1,.433-.837,2.492,2.492,0,0,0,.976-2.536.074.074,0,0,1,.133-.048,4.857,4.857,0,0,1,.723,2.536A1.529,1.529,0,0,1,.867,58.9.772.772,0,0,1,0,58.112Zm4.516,1.52c0,.37.109.454,1.133.454,1.433,0,1.77-.155,2.024-.55a12.663,12.663,0,0,0,.818-1.663c.025-.072.108-.048.1.024-.072.634-.121,1.28-.121,1.555,0,.4.013.49.169.682a.71.71,0,0,1,.229.562c0,.61-.579.909-3.3.909-2.061,0-2.494-.263-2.494-1.244v-.108A10.236,10.236,0,0,1,.1,61.605c-.072.012-.121-.108-.06-.143a11.479,11.479,0,0,0,3.048-2.273c.011-.885.036-2.046.036-2.7a28.2,28.2,0,0,0-.061-2.979c1.651.287,1.891.407,1.891.586s-.121.287-.434.419v3.313c.253-.335.5-.693.687-.992a25.558,25.558,0,0,0,2.156-4.044,10.894,10.894,0,0,0,.458-1.339c1.8.861,1.879.933,1.879,1.112s-.084.239-.554.335a24.243,24.243,0,0,1-2.855,4.5,17.662,17.662,0,0,1-1.771,1.866ZM3.77,50.923c2.083.084,2.685.9,2.685,1.7a.884.884,0,0,1-.9.993c-.349,0-.674-.156-.783-.742a2.581,2.581,0,0,0-1.047-1.83C3.661,51.007,3.7,50.923,3.77,50.923Zm7.311,7.046a1.018,1.018,0,0,1-.975,1.1c-.446,0-.759-.251-.8-.873a3.954,3.954,0,0,0-1.24-2.835c-.06-.048,0-.131.072-.119C10.033,55.612,11.081,56.677,11.081,57.969Z"/><path class="cls-1" d="M20.121,56.1a5.088,5.088,0,0,1,.242,1.459,3.557,3.557,0,0,1-.747,2.261,5.965,5.965,0,0,1-3.758,1.926c-.048,0-.073-.024-.073-.048s0-.048.048-.072a5.279,5.279,0,0,0,2.8-2.476,3.543,3.543,0,0,1-1.06-1.017,1.915,1.915,0,0,1-.337-1.1,1.2,1.2,0,0,1,.566-.981,2.57,2.57,0,0,1,1.265-.383c0-.395-.013-.777-.013-1.16a19.563,19.563,0,0,0-3,.67,3.4,3.4,0,0,0-.566.239.789.789,0,0,1-.4.12,1.112,1.112,0,0,1-.759-.443c-.482-.5-.53-.6-.53-.969,0-.132.024-.167.048-.167s.024,0,.06.024a1.427,1.427,0,0,0,.832.263,4.758,4.758,0,0,0,.842-.1c1.17-.2,2.386-.395,3.458-.538-.012-.347-.025-.682-.037-.981-.011-.467-.071-.6-.18-.682a.838.838,0,0,0-.458-.12c-.1,0-.144-.035-.144-.083s.011-.06.072-.108a1.545,1.545,0,0,1,.843-.395,1.623,1.623,0,0,1,.759.3c.458.263.518.419.518.6a.514.514,0,0,1-.108.335,1.732,1.732,0,0,0-.157.993c.542-.06.939-.108,1.385-.143a1.314,1.314,0,0,0,.494-.108.718.718,0,0,1,.337-.12,2.435,2.435,0,0,1,1.132.407c.326.191.47.347.47.682,0,.2-.169.347-.445.347a3.114,3.114,0,0,1-.6-.084,6.4,6.4,0,0,0-1.423-.167,12.947,12.947,0,0,0-1.373.083ZM18.93,57.777a1.8,1.8,0,0,0,.108-.562c0-.658-.29-.849-.578-.849a1.232,1.232,0,0,0-.711.239.636.636,0,0,0-.241.443.74.74,0,0,0,.314.586,1.408,1.408,0,0,0,.842.323A.241.241,0,0,0,18.93,57.777ZM21.29,51.1a2.385,2.385,0,0,1,1.169.287.935.935,0,0,1,.554.789.509.509,0,0,1-.47.527.45.45,0,0,1-.482-.311,2.276,2.276,0,0,0-.916-1.149c-.06-.036-.1-.047-.1-.084s.025-.059.121-.059Zm2.494-.4c.433.2.662.419.662.813a.473.473,0,0,1-.494.455c-.18,0-.325-.084-.481-.383a2.279,2.279,0,0,0-.892-.945c-.072-.036-.109-.048-.109-.1s.048-.06.133-.06A2.827,2.827,0,0,1,23.784,50.708Z"/><path class="cls-1" d="M30.752,54.141c.519.144.711.359.711.694,0,.239-.144.43-.518.442-.121,0-.313,0-.518-.012a13.835,13.835,0,0,0-.349,1.436c-.036.191-.072.394-.109.586a4.276,4.276,0,0,0,.615-.036c.71.108,1.011.287,1.011.754,0,.359-.469.5-1.072.5-.216,0-.458-.012-.7-.024-.024.263-.036.538-.036.8,0,1.2.6,1.387,1.265,1.387,1.192,0,1.83-.885,1.83-2.2a3.343,3.343,0,0,0-1.2-2.512c-.037-.036-.048-.06-.048-.083s.011-.048.036-.048a.11.11,0,0,1,.06.012c1.747.98,2.59,1.77,2.59,3.157a2.747,2.747,0,0,1-3,2.465c-1.446,0-2.482-.718-2.482-2.8a2.9,2.9,0,0,1,.012-.323,3.369,3.369,0,0,1-.614-.2,1.456,1.456,0,0,1-.891-1.34,1.676,1.676,0,0,1,.228-.8,4.844,4.844,0,0,1,1.1-1.052c-1.036-.228-1.434-.623-1.59-1.376a.866.866,0,0,1-.025-.168c0-.059.012-.083.037-.083s.024,0,.072.047c.253.264.795.491,2.361.611a13.019,13.019,0,0,0,.289-1.735.661.661,0,0,0-.469-.61c-.073-.036-.085-.048-.085-.084s.024-.047.1-.084a1.006,1.006,0,0,1,.446-.131,1.381,1.381,0,0,1,.879.335c.506.383.639.562.639.813a.8.8,0,0,1-.145.419,4.908,4.908,0,0,0-.373,1.077Zm-2.626,1.6a.98.98,0,0,0-.409.682.621.621,0,0,0,.506.646,4.039,4.039,0,0,0,.722.143c.085-.646.2-1.28.314-1.914A1.87,1.87,0,0,0,28.126,55.744Z"/><path class="cls-1" d="M42.491,59.679a2.182,2.182,0,0,0,.963-1.734.982.982,0,0,0-1.036-1.112c-.807,0-1.553.526-2.673,1.71a4.344,4.344,0,0,0-.567.682.47.47,0,0,1-.457.275c-.169,0-.434-.1-.723-.526a1.786,1.786,0,0,1-.349-.91c0-.131.036-.3.059-.49.085-.754.157-1.447.278-2.022a4.624,4.624,0,0,1,.614-1.566,7.294,7.294,0,0,1,.783-.862.165.165,0,0,0,.06-.131.176.176,0,0,0-.1-.156,1.51,1.51,0,0,1-.6-1.363c0-.084.025-.12.061-.12a.145.145,0,0,1,.108.072,3.931,3.931,0,0,0,1.674.777c.784.251,1.229.634,1.229,1.137a.542.542,0,0,1-.59.538,2.686,2.686,0,0,1-.687-.132,2.587,2.587,0,0,0-.687-.084,1.631,1.631,0,0,0-.807.216.433.433,0,0,0-.216.43,1.889,1.889,0,0,0,.048.431,2.131,2.131,0,0,1,.072.479,2.476,2.476,0,0,1-.023.418c-.049.311-.085.634-.121.885s-.036.479-.036.646a2.6,2.6,0,0,0,.011.287.16.16,0,0,0,.157.156,1.109,1.109,0,0,0,.422-.144,6.82,6.82,0,0,1,3.155-1.112,2.211,2.211,0,0,1,2.422,1.95,2.455,2.455,0,0,1-1.567,2.141,11.978,11.978,0,0,1-4.36,1.076.068.068,0,0,1-.072-.059c0-.036.012-.06.06-.072A9.02,9.02,0,0,0,42.491,59.679Z"/><path class="cls-1" d="M51.711,57.61a1.85,1.85,0,0,1,.746.155c.361.192.566.395.711,1.2a1.867,1.867,0,0,0,.229.789.663.663,0,0,0,.506.191,2.825,2.825,0,0,0,1.337-.227c1,.227,1.277.61,1.277.945s-.253.467-.663.538a8.516,8.516,0,0,1-1.241.072,2.547,2.547,0,0,1-2.047-.622,2.169,2.169,0,0,1-.4-1.507c-.024-1-.192-1.22-.482-1.22a1.364,1.364,0,0,0-.927.634A25.444,25.444,0,0,0,49.278,60.7c-.23.359-.458.526-.711.526-.338,0-.591-.251-.591-.765a.909.909,0,0,1,.3-.814c.458-.43.868-.861,1.29-1.315.758-.826,1.542-1.723,2.264-2.656a.2.2,0,0,0,.06-.131.057.057,0,0,0-.06-.06.35.35,0,0,0-.108.024,18.416,18.416,0,0,0-1.891.981,1.01,1.01,0,0,1-.47.143.658.658,0,0,1-.446-.239,2.323,2.323,0,0,1-.434-.6,1.321,1.321,0,0,1-.108-.539c0-.083.012-.119.036-.119s.024,0,.084.036a1.283,1.283,0,0,0,.736.227,3.813,3.813,0,0,0,.782-.144,12.818,12.818,0,0,0,1.9-.693,1.262,1.262,0,0,0,.4-.252.4.4,0,0,1,.3-.155c.12,0,.3.06.831.4.41.263.518.383.518.622,0,.167-.073.251-.265.335a1.354,1.354,0,0,0-.518.323c-.566.55-1.12,1.124-1.735,1.806A1.813,1.813,0,0,1,51.711,57.61Zm-1.1-4.055a.056.056,0,0,1-.059-.06.073.073,0,0,1,.035-.072c.266-.167.542-.359.82-.574.035-.036.06-.06.06-.107a.115.115,0,0,0-.06-.084,1.471,1.471,0,0,1-.771-1.053,2.02,2.02,0,0,1,.012-.251c.011-.072.023-.072.048-.072s.036.012.1.06a3.287,3.287,0,0,0,1.361.478,4.582,4.582,0,0,0,.867.1.91.91,0,0,1,.9.8.517.517,0,0,1-.589.575c-.241,0-.687-.06-.94-.06a6.975,6.975,0,0,0-1.758.323Z"/><path class="cls-1" d="M61.823,56.641a3.643,3.643,0,0,1,2.072-.658c1.565,0,2.975.837,2.975,2.4,0,1.639-1.8,2.919-3.746,2.919-1.3,0-2.084-.574-2.084-1.328a1.268,1.268,0,0,1,1.4-1.112A2.04,2.04,0,0,1,64.316,60a2.167,2.167,0,0,0,1.108-2.009c0-.886-.735-1.46-1.782-1.46a2.931,2.931,0,0,0-1.506.515,5.909,5.909,0,0,0-1.59,1.662c-.289.431-.446.551-.735.551a.73.73,0,0,1-.614-.778c0-.3.06-.478.518-.921.566-.562,1.337-1.447,2.023-2.3.627-.765,1.277-1.662,1.555-2.081a.392.392,0,0,0,.06-.132c0-.023-.012-.035-.037-.035a.315.315,0,0,0-.084.024,13.439,13.439,0,0,0-1.759.909.626.626,0,0,1-.41.131c-.167,0-.336-.131-.589-.466a.967.967,0,0,1-.289-.67,2.727,2.727,0,0,1,.06-.479c.012-.048.024-.071.06-.071s.06.023.085.059a.893.893,0,0,0,.734.359,7.889,7.889,0,0,0,2.373-.789.944.944,0,0,1,.518-.264.812.812,0,0,1,.554.288c.41.383.6.634.6.813,0,.144-.06.239-.277.4a4.983,4.983,0,0,0-.915.873c-.723.814-1.313,1.507-2.168,2.488Zm.2,2.739c-.4.012-.591.156-.591.479,0,.371.531.646,1.024.646a2.266,2.266,0,0,0,.783-.108A1.44,1.44,0,0,0,62.028,59.38Z"/><path class="cls-1" d="M76.138,56.306a6.321,6.321,0,0,0,2.373,2.333,9.153,9.153,0,0,0,2.578,1.088c.072.012.072.1,0,.12a2.887,2.887,0,0,0-1.362,1.208c-.107.191-.192.227-.288.227a.553.553,0,0,1-.218-.048,4.6,4.6,0,0,1-1.7-1.315,7.123,7.123,0,0,1-1.578-3.613H75.9l.072,2.907c.024,1.232.06,1.938.06,2.249,0,.37-.229.538-1.108.538-.458,0-.518-.036-.518-.431,0-.335.036-1.387.072-2.344l.048-1.173A10.6,10.6,0,0,1,69.61,61.4c-.073.024-.121-.1-.06-.132a9.92,9.92,0,0,0,4.179-4.964h-2.06a12.056,12.056,0,0,0-1.5.084l-.109-.407a16.03,16.03,0,0,0,1.614.084h2.807V52.885H72.392a12.036,12.036,0,0,0-1.5.084l-.109-.407a16.015,16.015,0,0,0,1.614.084h2.084a13.567,13.567,0,0,0-.06-1.974c1.758.156,2.024.311,2.024.479,0,.119-.084.215-.47.394v1.1h1.71c.868-1.065.9-1.089,1.012-1.089s.168.024.831.658c.373.359.446.443.446.538s-.048.132-.133.132H75.97v3.182h.445A19.45,19.45,0,0,0,77.2,53.83c.048-.168.1-.383.157-.694,1.722.61,1.8.682,1.8.873,0,.132-.1.18-.41.24-.506.5-1.289,1.208-1.964,1.818h1.747c.867-1.065.9-1.089,1.012-1.089s.169.024.831.658c.374.359.446.443.446.539s-.049.131-.133.131Zm-4.553-2.871c-.06-.047,0-.119.073-.107,1.433.143,2.144.813,2.144,1.6a.9.9,0,0,1-.915.932.653.653,0,0,1-.7-.658A2.091,2.091,0,0,0,71.585,53.435Z"/><path class="cls-1" d="M86.505,57.634c.469-.1.939-.2,1.445-.323a.075.075,0,0,1,.06.131c-.9.646-2.023,1.4-3.24,2.118-.085.382-.181.454-.313.454-.181,0-.265-.155-.867-1.914a7.393,7.393,0,0,0,.771-.083c.276-.048.541-.084.794-.132V54.512H84.9a9.456,9.456,0,0,0-1.192.084l-.109-.407a12.356,12.356,0,0,0,1.3.084h.253v-.419c0-1.376,0-2.057-.06-2.715,1.7.119,1.879.227,1.879.43,0,.132-.06.239-.469.407v2.3h.1c.554-.874.6-.933.7-.933s.133.011.638.562c.351.371.362.406.362.5,0,.072-.048.108-.132.108H86.505ZM93,55.732c.747-.945.783-.957.879-.957s.157.024.723.55c.422.383.458.419.458.526,0,.072-.036.12-.134.12H90.66c0,.108-.073.227-.4.335a6.38,6.38,0,0,1-.531.778h3c.518-.622.555-.646.663-.646s.145,0,.747.454c.41.311.422.335.422.443s-.06.155-.361.371a11.185,11.185,0,0,1-.386,3.17,1.824,1.824,0,0,1-1.723,1.088c-.24,0-.336-.048-.409-.251a1.449,1.449,0,0,0-1.06-1.029c-.073-.024-.06-.132.012-.12a5.2,5.2,0,0,0,1.288.013.7.7,0,0,0,.627-.5,8.951,8.951,0,0,0,.3-2.249,7.233,7.233,0,0,1-6.131,3.924.061.061,0,0,1-.024-.12,7.954,7.954,0,0,0,4.975-4.306h-.253a8.239,8.239,0,0,1-5.095,3.409c-.072.012-.121-.1-.048-.12a7.621,7.621,0,0,0,3.589-3.289H89.54a7.536,7.536,0,0,1-3.71,2.392.059.059,0,0,1-.048-.108,6.794,6.794,0,0,0,3.083-3.636h-.614a8.344,8.344,0,0,0-1.181.084l-.12-.407a9.88,9.88,0,0,0,1.3.084Zm-3.12-.921c0,.335-.325.514-.868.514-.4,0-.493-.107-.493-.323,0-.383.048-1.172.048-2.093a19.734,19.734,0,0,0-.06-2.046c1.168.276,1.518.371,1.6.5h1.758c.579-.61.6-.622.723-.622s.181,0,.662.4.531.454.531.55-.025.143-.374.407v.55c0,1.208.048,1.938.048,2.057,0,.335-.349.491-.939.491-.422,0-.518-.1-.518-.407v-.108h-2.12Zm.181-3.206a.634.634,0,0,1-.181.084v1.232H92V51.605ZM92,54.44V53.16h-2.12v1.28Z"/><path class="cls-1" d="M98.811,61.091a.075.075,0,0,1-.084-.084.087.087,0,0,1,.048-.072A13.2,13.2,0,0,0,104,54.153a.234.234,0,0,0,.012-.084c0-.072-.048-.1-.144-.1s-.446.035-.711.059a27.889,27.889,0,0,0-3.216.574,2.3,2.3,0,0,0-.627.216.845.845,0,0,1-.349.131c-.228,0-.409-.131-.819-.574-.337-.359-.458-.586-.458-.777a1.029,1.029,0,0,1,.109-.371c.036-.084.036-.084.06-.084s.024,0,.072.036a1.33,1.33,0,0,0,.808.371,7.492,7.492,0,0,0,.975-.072c1.18-.143,2.433-.3,3.807-.478a1.3,1.3,0,0,0,.65-.192.571.571,0,0,1,.3-.119c.156,0,.313.059.879.526.506.419.686.61.686.789,0,.156-.059.216-.216.359a.976.976,0,0,0-.349.419c-1.686,3.433-3.421,5.191-6.613,6.3Zm8.8-9.283a1.193,1.193,0,1,1-1.193-1.184A1.2,1.2,0,0,1,107.616,51.808Zm-1.987,0a.795.795,0,1,0,.794-.789A.815.815,0,0,0,105.629,51.808Z"/><path class="cls-1" d="M112.475,53.95c-.119.179-.144.323-.18.837-.073,1.172-.108,2.667-.108,3.732,0,.131.023.2.1.2a.282.282,0,0,0,.1-.024,21.339,21.339,0,0,0,6.263-4.043c.037-.036.061-.048.085-.048a.057.057,0,0,1,.06.06.129.129,0,0,1-.024.084,15.163,15.163,0,0,1-6.083,5.443.976.976,0,0,0-.313.239.494.494,0,0,1-.313.179c-.181,0-.313-.083-.867-.622-.289-.287-.4-.454-.4-.6a.813.813,0,0,1,.1-.347,1.14,1.14,0,0,0,.073-.466V54.141c0-.753-.073-.945-.59-1.208-.048-.024-.073-.048-.073-.072a.088.088,0,0,1,.049-.072,1.835,1.835,0,0,1,.735-.323c.18,0,.337.048.83.395.518.359.675.574.675.742A.618.618,0,0,1,112.475,53.95Z"/><path class="cls-1" d="M126.142,57.993c0,.885.2,1.088,1.229,1.088a5.061,5.061,0,0,0,1.12-.119,3.643,3.643,0,0,1,.674-.1c.736,0,1.205.4,1.205.825a.464.464,0,0,1-.35.467,11.116,11.116,0,0,1-2.24.179c-1.421,0-1.927-.287-2.361-.813-.277-.347-.433-.718-.445-2.225v-.706c-.482.2-.916.395-1.494.658a2.712,2.712,0,0,0-.458.263.452.452,0,0,1-.361.156c-.168,0-.421-.12-.807-.479-.349-.335-.482-.49-.482-.646a1.665,1.665,0,0,1,.049-.37c.012-.048.023-.072.048-.072s.023,0,.1.036a1.768,1.768,0,0,0,.711.191,3.993,3.993,0,0,0,.867-.2c.639-.2,1.241-.4,1.831-.586V53.555c0-.419-.072-.6-.615-.766-.1-.024-.132-.059-.132-.095s.024-.06.1-.108a1.98,1.98,0,0,1,.868-.419,1.753,1.753,0,0,1,.842.431c.554.419.651.538.651.682s-.06.215-.181.359a.942.942,0,0,0-.192.634c-.013.263-.036.55-.048.861.626-.2,1.228-.4,1.795-.574a2.048,2.048,0,0,0,.867-.431c.156-.132.253-.2.361-.2.156,0,.325.095.927.574.651.526.879.753.879,1.005s-.12.335-.409.442a3.732,3.732,0,0,0-.723.383,16.808,16.808,0,0,1-2.023,1.112.315.315,0,0,1-.084.024.057.057,0,0,1-.061-.059c0-.024.013-.048.048-.1a7.841,7.841,0,0,0,1.048-1.747.534.534,0,0,0,.06-.2c0-.084-.048-.119-.132-.119a.324.324,0,0,0-.1.011c-.8.252-1.638.563-2.518.9C126.166,56.868,126.142,57.562,126.142,57.993Zm4.445-5.562c.434.251.6.514.6.837a.52.52,0,0,1-.53.562.514.514,0,0,1-.47-.383,2.951,2.951,0,0,0-.9-1.208c-.06-.048-.1-.06-.1-.1s.037-.047.133-.047A2.622,2.622,0,0,1,130.587,52.431Zm.012-1.3a2.678,2.678,0,0,1,1.108.215c.493.239.674.443.674.813a.5.5,0,0,1-.493.527c-.242,0-.374-.12-.518-.407a2.506,2.506,0,0,0-.928-.993c-.072-.048-.1-.06-.1-.108s.048-.047.132-.047Z"/><path class="cls-1" d="M137.11,55.373c-.4,0-.6-.191-.843-.6a3.912,3.912,0,0,0-1.494-1.615.066.066,0,0,1-.036-.06c0-.024.024-.059.084-.071a3.733,3.733,0,0,1,.4-.024c1.662,0,2.674.646,2.674,1.507A.778.778,0,0,1,137.11,55.373Zm-1.06,4.713a6.119,6.119,0,0,1-.807-.778.981.981,0,0,1-.253-.49c0-.108.012-.323.024-.478.012-.084.024-.1.072-.1.024,0,.061.024.133.072a1.286,1.286,0,0,0,.783.275,1.67,1.67,0,0,0,.675-.192,26.483,26.483,0,0,0,6.756-4.856.153.153,0,0,1,.1-.048.083.083,0,0,1,.085.084.068.068,0,0,1-.013.048,21.677,21.677,0,0,1-6.359,6.16c-.194.132-.326.239-.47.335a.517.517,0,0,1-.326.119A.558.558,0,0,1,136.05,60.086Z"/><path class="cls-1" d="M148.786,57.8c.012,1.208.025,1.89.025,2.835,0,.479-.253.73-.554.73s-.566-.156-.808-.634a1.665,1.665,0,0,1-.216-.837.7.7,0,0,1,.084-.311,1.149,1.149,0,0,0,.108-.479c.048-.586.072-2.141.072-3.588,0-1.508,0-2.309-.011-2.835-.013-.383-.146-.563-.566-.8-.073-.036-.1-.06-.1-.1s.012-.036.1-.084a1.963,1.963,0,0,1,.758-.263,1.85,1.85,0,0,1,.843.418c.446.311.554.455.554.61a.559.559,0,0,1-.12.3c-.073.108-.157.216-.169.981-.012.467-.012.933-.012,1.388,2.108,0,3.24.717,3.24,1.567a.775.775,0,0,1-.783.8,1.039,1.039,0,0,1-.807-.538,4.151,4.151,0,0,0-1.65-1.471C148.774,56.258,148.774,56.653,148.786,57.8Z"/><path class="cls-1" d="M160.188,55.038a.645.645,0,0,0-.23-.371.106.106,0,0,1-.035-.071c0-.036.035-.06.083-.06a.727.727,0,0,1,.145.024,1.756,1.756,0,0,1,.771.466,3.248,3.248,0,0,1,3.276,2.907,3.069,3.069,0,0,1-2.06,2.56,11.616,11.616,0,0,1-3.589.992c-.072,0-.1-.023-.1-.059s.011-.048.072-.072a8.969,8.969,0,0,0,2.879-1.591,3.2,3.2,0,0,0,1.373-2.5,1.817,1.817,0,0,0-1.831-1.9,8.043,8.043,0,0,1-1.65,2.979c.036.036.073.083.108.119.326.347.482.515.482.778a.491.491,0,0,1-.542.478,1.216,1.216,0,0,1-1-.562,8.28,8.28,0,0,1-1.181.766,2.669,2.669,0,0,1-1.2.346c-.554,0-.843-.394-.843-1.064a3.25,3.25,0,0,1,.832-1.914,6.721,6.721,0,0,1,1.914-1.531c.061-.455.133-.9.205-1.352a4.732,4.732,0,0,1-1.228.215c-.229,0-.735-.227-1.325-1.076-.049-.072-.049-.084-.049-.108a.044.044,0,0,1,.049-.047.157.157,0,0,1,.085.023,1.619,1.619,0,0,0,.77.18,9.1,9.1,0,0,0,1.289-.2c.265-.06.409-.1.626-.144a8.7,8.7,0,0,0,.169-1.137c0-.2-.06-.3-.422-.418-.1-.036-.133-.048-.133-.084s.013-.048.085-.1a1.026,1.026,0,0,1,.53-.2,1.437,1.437,0,0,1,.771.287c.3.18.518.359.518.526a.543.543,0,0,1-.169.383c-.06.12-.132.311-.193.479a4.781,4.781,0,0,0,.735-.275,1.308,1.308,0,0,0,.385-.24c.832.084,1.109.3,1.109.551,0,.287-.145.406-.507.526-.65.215-1.276.407-2.023.6-.1.4-.18.778-.265,1.172a11.167,11.167,0,0,1,1.314-.251Zm-3.711,2.608a1.9,1.9,0,0,0-.409,1.136c0,.215.084.311.193.311a1.8,1.8,0,0,0,.662-.167,5.315,5.315,0,0,0,1.023-.61,5.461,5.461,0,0,1-.18-1.436,5.224,5.224,0,0,1,.036-.562A5.8,5.8,0,0,0,156.477,57.646Zm3.674-2.225a6.446,6.446,0,0,0-1.349.359,5.356,5.356,0,0,0-.072.825,2.921,2.921,0,0,0,.12.9A7.257,7.257,0,0,0,160.151,55.421Z"/><path class="cls-1" d="M168.638,61.605a.051.051,0,0,1-.048-.048c0-.024,0-.024.023-.048a6.942,6.942,0,0,0,2.205-2.416,6.5,6.5,0,0,0,.71-3.337,9.84,9.84,0,0,0-.3-2.955c-.192-.478-.3-.622-.578-.622-.205,0-.506.275-.795.873a10.637,10.637,0,0,0-.626,2.07,7.951,7.951,0,0,0-.168,1.2,2.78,2.78,0,0,0,.132.73,2.056,2.056,0,0,1,.072.586.485.485,0,0,1-.506.466c-.325,0-.458-.119-.674-.43a3.116,3.116,0,0,1-.362-1.579,12.188,12.188,0,0,1,.181-1.938c.192-1.16.289-1.758.289-1.986a2.333,2.333,0,0,0-.12-.741.341.341,0,0,1-.025-.1.065.065,0,0,1,.06-.06.1.1,0,0,1,.073.024,3.372,3.372,0,0,1,.747.742,1.112,1.112,0,0,1,.192.61,4.147,4.147,0,0,1-.084.765,10.3,10.3,0,0,0-.157,1.077h.036a6.3,6.3,0,0,1,1.049-2.093,1.384,1.384,0,0,1,.9-.551c.675,0,1.312.335,1.722,1.448a7.635,7.635,0,0,1,.35,2.571,5.419,5.419,0,0,1-1.072,3.577,5.9,5.9,0,0,1-3.205,2.165Z"/><path class="cls-1" d="M180,52.215a12.305,12.305,0,0,1-.458,2.345,15,15,0,0,0-.4,3,7.266,7.266,0,0,0,.048.789c0,.1-.144.216-.326.216-.06,0-.108-.072-.108-.132a7.325,7.325,0,0,0,.048-.789,14.672,14.672,0,0,0-.4-3,11.832,11.832,0,0,1-.494-2.428.968.968,0,0,1,1.048-1.005A.958.958,0,0,1,180,52.215Zm-.073,8.278a.982.982,0,1,1-.975-.969A.986.986,0,0,1,179.927,60.493Z"/><line class="cls-2" x1="4.401" y1="3.442" x2="20.043" y2="39.017"/><line class="cls-2" x1="177.754" y1="3.442" x2="162.112" y2="39.017"/></svg>