<?xml version="1.0" encoding="UTF-8"?><svg id="_レイヤー_2" xmlns="http://www.w3.org/2000/svg" viewBox="0 0 380 270"><defs><style>.cls-1{stroke:#fff;stroke-width:.864px;}.cls-1,.cls-2,.cls-3{fill:none;}.cls-1,.cls-3{stroke-miterlimit:10;}.cls-4{fill:#000;}.cls-4,.cls-5,.cls-2,.cls-6,.cls-7,.cls-8,.cls-9,.cls-10{stroke-width:0px;}.cls-5{fill:#04aa89;}.cls-6{fill:#af8c70;}.cls-7{fill:#646464;}.cls-8{fill:#1e1e1e;}.cls-9{fill:#f5695a;}.cls-3{stroke:#646464;stroke-width:2.562px;}.cls-10{fill:#fff;}</style></defs><g id="_レイヤー_1-2"><rect class="cls-2" width="380" height="270"/><path class="cls-9" d="M99.212,176.815c.549,1.099,1.099,1.753,2.172,2.198.916.366,2.539.497,4.815.497,3.376,0,7.354-.209,11.253-.602-.367.523-.602,1.335-.707,2.067q-.131.837-.968.89c-3.324.157-6.438.236-9.159.236-2.695,0-5.024-.157-6.097-.707-1.152-.576-2.146-1.465-2.722-2.381-.812.785-1.806,1.649-2.643,2.329-.288.235-.419.366-.523.523-.104.157-.235.236-.393.236-.104,0-.262-.105-.366-.314-.367-.68-.707-1.518-1.073-2.46.681-.314,1.047-.497,1.544-.811.759-.471,1.649-1.073,2.303-1.701v-5.783h-1.282c-1.413,0-1.78.052-1.911.052-.288,0-.314-.026-.314-.314v-1.989c0-.262.026-.288.314-.288.131,0,.498.052,1.911.052h1.648c1.387,0,1.806-.052,1.963-.052.261,0,.288.026.288.288,0,.157-.052.89-.052,2.486v5.548ZM95.366,159.674c.157-.104.235-.157.314-.157.078,0,.157.052.262.131,1.204,1.125,2.329,2.407,3.271,3.899.157.209.131.262-.157.471l-1.492,1.256c-.157.131-.235.183-.314.183-.104,0-.157-.079-.235-.209-.785-1.361-2.094-3.062-3.192-4.082-.209-.183-.157-.262.131-.471l1.413-1.021ZM111.302,170.482c2.277,0,3.324-.052,3.48-.052.262,0,.288.026.288.314,0,.157-.053.785-.053,2.172v2.25c0,1.413.053,2.015.053,2.172,0,.262-.026.288-.288.288-.157,0-1.204-.052-3.48-.052h-5.81c-2.303,0-3.506.052-3.664.052-.262,0-.288-.026-.288-.288,0-.183.052-1.308.052-3.611v-8.217c0-2.303-.052-3.507-.052-3.664,0-.288.026-.314.288-.314.157,0,1.309.052,3.585.052h.157c.288-.523.55-1.021.812-1.675.157-.393.314-.864.366-1.308.837.078,1.989.235,2.695.419.209.052.34.183.34.314,0,.183-.052.288-.209.393-.209.157-.366.34-.471.55-.183.393-.393.837-.654,1.308h2.12c2.12,0,3.114-.052,3.271-.052.262,0,.288.026.288.314,0,.157-.052.759-.052,2.12v2.094c0,1.361.052,1.989.052,2.146,0,.261-.026.288-.288.288-.157,0-1.151-.052-3.271-.052h-6.307v2.041h7.04ZM111.433,163.783h-7.17v2.434h7.17v-2.434ZM112.375,172.707h-8.113v2.643h8.113v-2.643Z"/><path class="cls-9" d="M126.378,166.504c-.183,2.853-.523,5.417-1.073,7.589-.68,2.695-1.701,5.234-3.506,7.563-.236.288-.367.445-.498.445s-.235-.131-.445-.445c-.523-.811-1.073-1.387-1.648-1.858,1.779-2.094,2.774-4.03,3.48-6.673.549-1.989.837-4.03.968-6.621h-.34c-2.224,0-2.983.052-3.14.052-.262,0-.288-.026-.288-.288v-1.963c0-.262.026-.262.288-.262.157,0,.916.026,3.14.026h.419c.026-.497.026-1.021.026-1.596,0-1.623-.052-2.434-.183-3.69.942.026,1.884.079,2.826.157.262.052.393.157.393.288,0,.183-.131.471-.183.733-.079.34-.131.994-.131,2.591,0,.523,0,1.021-.026,1.518h1.701c2.25,0,3.009-.026,3.167-.026.262,0,.314.026.314.288-.052.89-.052,1.649-.052,2.486-.053,5.155-.288,9.316-.759,12.195-.34,2.041-1.36,2.931-3.323,2.931-.523,0-.942,0-1.439-.052q-.68-.052-.759-.89c-.079-.68-.235-1.308-.471-1.884.812.157,1.466.209,2.172.209.732,0,1.046-.288,1.256-1.622.367-2.277.602-6.045.681-11.2h-2.565ZM142.629,173.073c0,6.83.052,8.191.052,8.348,0,.288-.026.314-.288.314h-2.198c-.235,0-.262-.026-.262-.314v-1.78h-3.873v1.989c0,.288-.026.314-.314.314h-2.12c-.288,0-.314-.026-.314-.314,0-.157.052-1.544.052-8.453v-4.763c0-4.789-.052-6.228-.052-6.411,0-.262.026-.288.314-.288.157,0,.811.052,2.722.052h3.323c1.91,0,2.564-.052,2.722-.052.262,0,.288.026.288.288,0,.157-.052,1.596-.052,5.653v5.417ZM136.061,164.28v12.875h3.873v-12.875h-3.873Z"/><path class="cls-9" d="M158.917,160.198c-.026-.55-.079-1.047-.183-1.492.968,0,1.596.052,2.434.131.262.026.419.131.419.288,0,.104-.079.235-.157.418-.079.131-.131.314-.131.654h1.204c2.722,0,4.056-.052,4.213-.052.288,0,.314.026.314.288,0,.157-.052.55-.052,1.465v.942c0,.968.052,1.361.052,1.492,0,.262-.026.288-.314.288-.157,0-1.492-.052-4.213-.052h-1.204v1.099h3.664c2.539,0,3.428-.052,3.585-.052.262,0,.314.105.288.314-.026.419-.026.707-.079,1.073-.131,1.151-.262,1.989-.549,2.512-.445.811-1.178,1.099-2.355,1.099h-.34v5.391c0,1.649.052,2.355.052,2.512,0,.262-.026.288-.288.288-.183,0-1.413-.052-3.82-.052h-8.191c-2.408,0-3.638.052-3.794.052-.262,0-.288-.026-.288-.288,0-.183.052-1.021.052-2.774v-4.292c-.576.209-1.204.393-1.858.576-.785.183-.837.183-1.151-.55-.262-.628-.576-1.047-.863-1.335,3.35-.523,5.364-1.413,6.516-2.852h-2.669l-.209.471c-.104.236-.183.314-.523.288l-1.57-.131c-.393-.052-.419-.131-.314-.366.445-.942.812-1.858,1.099-2.905.131-.419.236-.916.314-1.387.026-.288.079-.366.314-.366.157,0,1.021.052,3.559.052h1.518c.052-.34.052-.68.079-1.073h-2.539c-2.512,0-3.376.052-3.533.052-.262,0-.288-.026-.288-.262v-1.23c0-.262.026-.288.288-.288.157,0,1.021.052,3.533.052h2.564c-.026-.576-.079-1.021-.183-1.492.968.026,1.623.052,2.381.131.262.026.471.131.471.288,0,.131-.105.261-.157.418-.052.131-.104.288-.104.654h3.009ZM154.756,179.746c.262.105.366.183.366.366,0,.157-.131.288-.393.314-.288.052-.602.131-1.047.393-1.361.759-3.559,1.492-5.888,1.91-.236.026-.445.052-.55.052-.288,0-.34-.105-.628-.55-.366-.602-.759-1.073-1.151-1.413,2.329-.236,4.396-.68,5.914-1.335.366-.157.733-.366,1.125-.707.968.34,1.622.628,2.25.968ZM152.768,165.667c.157-.34.261-.707.366-1.099h-2.983l-.314,1.099h2.931ZM151.747,170.77v1.099h11.227v-1.099h-11.227ZM162.973,174.407v-1.073h-11.227v1.073h11.227ZM162.973,175.951h-11.227v1.099h11.227v-1.099ZM163.863,169.069c-.078-.236-.157-.497-.235-.68.733.105,1.178.131,1.675.131.445,0,.602-.079.68-.393.053-.209.079-.55.105-.837h-4.789c.026.576.052.89.052.968,0,.262-.026.288-.288.288h-1.884c-.288,0-.314-.026-.314-.288,0-.105.026-.419.026-.968h-4.213c-.34.654-.759,1.256-1.334,1.78h10.52ZM158.917,165.667v-1.099h-3.323c-.079.393-.157.759-.262,1.099h3.585ZM158.917,162.946v-1.073h-3.036c0,.366-.026.733-.052,1.073h3.088ZM161.194,178.935c.34-.157.393-.183.628-.052,1.91,1.047,4.161,1.492,7.118,1.78-.419.393-.916.942-1.283,1.596-.209.366-.314.471-.576.471-.157,0-.34-.026-.628-.079-2.434-.445-5.181-1.335-7.04-2.538-.262-.183-.235-.236.105-.393l1.675-.785ZM161.298,161.873v1.073h3.062v-1.073h-3.062Z"/><path class="cls-9" d="M193.939,176.108c0,1.204.052,2.538.052,3.611,0,.968-.262,1.623-.863,2.12-.498.445-1.283.68-3.455.68-.811,0-.785.026-.968-.759-.183-.837-.418-1.439-.732-1.989,1.073.079,1.57.105,2.434.105.602,0,.837-.262.837-.864v-4.344h-6.15v3.114c0,2.538.052,3.716.052,3.873,0,.262-.026.288-.288.288h-2.25c-.262,0-.288-.026-.288-.288,0-.183.053-1.335.053-3.873v-3.114h-5.967c-.366,3.245-1.073,5.26-2.276,7.249-.209.366-.34.523-.471.523s-.262-.131-.55-.419c-.628-.628-1.23-1.021-1.858-1.335,1.911-2.46,2.695-5.574,2.695-11.881v-4.292c0-2.721-.052-4.135-.052-4.292,0-.288.026-.314.314-.314.157,0,1.073.052,3.585.052h12.299c2.538,0,3.428-.052,3.611-.052.262,0,.288.026.288.314,0,.157-.052,1.57-.052,4.292v11.593ZM182.373,172.235v-3.69h-5.705v.288c0,1.256-.026,2.381-.079,3.402h5.784ZM182.373,166.112v-3.637h-5.705v3.637h5.705ZM185.094,162.475v3.637h6.15v-3.637h-6.15ZM191.244,172.235v-3.69h-6.15v3.69h6.15Z"/><path class="cls-9" d="M209.507,163.338c.235-.079.34-.079.393.209.131.654.209,1.439.235,2.12,0,.236-.104.288-.314.314-1.413.288-2.695.471-4.318.707-1.675,4.422-3.219,8.034-5.103,11.226-.104.183-.183.262-.288.262-.079,0-.183-.052-.314-.131-.602-.366-1.361-.916-1.806-1.334-.131-.105-.183-.183-.183-.288,0-.078.026-.183.131-.314,1.962-3.245,3.35-5.993,4.527-9.133-.994.052-1.806.052-2.617.052-.576,0-.785,0-1.439-.026-.262,0-.314-.079-.366-.419-.131-.497-.209-1.361-.262-2.224,1.073.079,1.675.105,2.434.105,1.021,0,1.806-.026,3.009-.131.314-1.099.498-1.989.681-2.931.157-.916.157-1.309.157-2.12,1.125.157,2.251.314,3.062.55.262.052.418.209.418.392,0,.209-.078.34-.235.497-.157.209-.262.445-.418.968-.184.628-.393,1.439-.628,2.224,1.021-.105,2.225-.34,3.245-.576ZM210.24,170.351c-.026-.707-.053-1.125-.209-1.858,1.282.131,1.962.235,2.853.497.235.052.366.183.366.419,0,.052-.052.236-.157.55-.104.314-.131.628-.104,1.073,0,1.544.079,2.669.288,4.449,1.884.759,3.167,1.334,4.71,2.434.262.183.288.288.157.55-.393.811-.759,1.466-1.204,2.12-.079.131-.157.183-.236.183s-.157-.052-.262-.157c-1.151-.994-2.12-1.57-3.192-2.198,0,2.617-1.884,3.821-4.868,3.821-2.878,0-4.815-1.465-4.815-3.716,0-2.277,1.884-3.821,4.841-3.821.497,0,1.23.026,2.067.157-.157-1.675-.209-3.271-.235-4.501ZM208.381,176.946c-1.308,0-2.329.523-2.329,1.518,0,.837.732,1.256,2.224,1.256,1.413,0,2.277-.759,2.277-1.858,0-.236,0-.366-.026-.523-.628-.209-1.334-.393-2.146-.393ZM213.249,164.359c.157-.262.288-.288.549-.183,1.544.419,3.611,1.465,5.129,2.46.157.105.235.183.235.288,0,.079-.026.183-.104.314-.262.576-.733,1.387-1.099,1.937-.079.131-.157.183-.236.183-.078,0-.131-.026-.235-.105-1.544-1.047-3.428-2.198-5.417-2.852.445-.785.837-1.57,1.178-2.041Z"/><path class="cls-9" d="M228.024,160.512c.445.105.628.236.628.497,0,.288-.157.602-.262.864-.131.366-.235,1.178-.366,3.193-.262,4.03-.393,6.699-.393,10.127,0,2.643.314,3.245,2.407,3.245,2.329,0,5.967-1.413,9.159-4.815.105.994.34,1.858.602,2.486.131.288.209.471.209.628,0,.235-.105.445-.523.811-2.826,2.591-6.516,3.925-9.918,3.925-3.35,0-4.92-1.335-4.92-5.339,0-4.396.235-8.165.366-11.305.053-1.544.131-3.219-.261-4.789,1.204.131,2.459.262,3.271.471Z"/><path class="cls-9" d="M252.941,164.987c-3.192.602-5.993,1.151-8.792,1.727-.995.236-1.256.288-1.649.419-.183.078-.366.209-.576.209-.183,0-.393-.157-.497-.392-.34-.707-.628-1.623-.968-2.826,1.334-.052,2.12-.157,4.161-.445,3.219-.471,8.976-1.334,15.728-2.224.393-.052.523.105.55.288.131.602.262,1.57.288,2.303,0,.314-.157.393-.497.393-1.23.078-2.067.209-3.193.576-4.449,1.518-6.673,4.579-6.673,7.72,0,3.376,2.408,5.208,6.961,5.495.418,0,.576.105.576.393,0,.68-.104,1.596-.288,2.25-.078.393-.183.55-.497.55-4.605,0-9.656-2.643-9.656-8.086,0-3.716,1.858-6.228,5.024-8.295v-.052ZM258.123,167.813c.131-.105.235-.079.393.052.811.628,1.753,1.675,2.486,2.8.104.157.104.288-.079.419l-1.099.811c-.183.131-.314.105-.445-.079-.785-1.204-1.623-2.198-2.643-3.035l1.387-.968ZM260.452,166.112c.157-.105.236-.079.393.052.968.733,1.911,1.78,2.486,2.695.104.157.131.314-.079.471l-1.047.811c-.209.157-.34.079-.445-.078-.707-1.125-1.544-2.12-2.617-3.01l1.308-.942Z"/><path class="cls-9" d="M264.586,176.134c.184-.183.314-.209.393-.209.079,0,.183.026.34.157,1.937,1.204,3.664,2.774,5.208,4.789.157.209.183.288.183.393,0,.131-.052.236-.262.419l-1.596,1.361c-.183.157-.288.236-.366.236-.131,0-.235-.052-.366-.262-1.387-2.015-3.167-3.794-4.946-4.998-.157-.105-.235-.183-.235-.262s.052-.157.183-.314l1.465-1.309Z"/><path class="cls-9" d="M34.106,215.51c-.261,0-.288-.026-.288-.288,0-.157.052-1.544.052-8.531v-4.841c0-4.867-.052-6.307-.052-6.49,0-.262.026-.288.288-.288.184,0,1.099.052,3.638.052h1.701c.418-.837.654-1.518.968-2.46.131-.34.209-.733.288-1.23.89.079,2.041.262,2.8.393.235.052.366.209.366.34,0,.157-.104.262-.209.366-.183.209-.314.393-.393.628-.262.628-.497,1.178-.916,1.963h5.103c2.539,0,3.455-.052,3.638-.052.262,0,.288.026.288.288,0,.157-.052,1.623-.052,5.783v5.521c0,6.987.052,8.374.052,8.505,0,.262-.026.288-.288.288h-2.329c-.262,0-.288-.026-.288-.288v-1.177h-11.802v1.23c0,.262-.026.288-.288.288h-2.277ZM36.671,200.489h11.802v-2.853h-11.802v2.853ZM48.473,205.88v-2.931h-11.802v2.931h11.802ZM48.473,211.48v-3.14h-11.802v3.14h11.802Z"/><path class="cls-9" d="M70.808,192.22c.34-.157.393-.131.498.131,1.701,4.004,4.919,7.615,8.479,9.656-.471.419-1.073,1.204-1.518,1.963-.235.393-.34.576-.497.576-.131,0-.288-.131-.549-.34-.89-.654-1.727-1.361-2.486-2.12-.052.759-.052,1.675-.078,2.591-.079,2.8-.262,4.894-.654,7.327-.34,2.067-1.335,3.219-3.899,3.219-.654,0-1.151,0-1.779-.052-.812-.052-.785-.052-.968-.916-.183-.89-.445-1.596-.812-2.093,1.309.183,2.067.235,2.983.235,1.099,0,1.544-.419,1.753-1.622.262-1.518.445-3.533.497-6.49h-4.658c-.498,5.234-3.114,8.95-7.956,11.096-.288.131-.471.209-.628.209-.209,0-.288-.183-.55-.628-.34-.628-.837-1.204-1.334-1.57,4.763-1.727,7.065-4.501,7.563-9.107h-.314c-2.46,0-3.297.052-3.455.052-.262,0-.288-.026-.288-.288v-1.91c-.812.785-1.649,1.491-2.539,2.172-.288.209-.445.34-.576.34-.183,0-.288-.183-.55-.576-.418-.654-1.021-1.309-1.465-1.596,3.533-2.277,6.071-5.365,7.563-8.636.235-.523.393-1.021.523-1.675.942.236,2.015.602,2.721.916.288.131.367.262.367.445,0,.157-.079.262-.209.393-.262.209-.418.445-.602.837-1.308,2.826-2.905,5.051-4.789,6.935.366.026,1.282.052,3.297.052h7.039c2.277,0,3.14-.026,3.402-.052-2.434-2.46-4.318-5.312-5.626-8.295-.105-.288-.052-.314.235-.445l1.858-.733Z"/><path class="cls-9" d="M81.108,197.532c0-.262.026-.288.262-.288.157,0,.812.052,2.695.052.209-.968.393-1.937.55-2.957.104-.654.183-1.57.183-2.46.89.052,1.806.157,2.643.366.262.078.418.157.418.314s-.078.314-.235.55c-.183.262-.288.576-.393,1.23-.183,1.021-.34,2.015-.523,2.957h1.309c2.067,0,2.774-.052,2.931-.052.261,0,.34.052.314.34-.079.759-.131,1.439-.157,1.937-.262,3.219-.916,5.993-2.041,8.426.89.628,1.779,1.335,2.617,2.094.183.131.157.236-.026.523l-1.047,1.701c-.105.157-.183.209-.262.209-.052,0-.104-.026-.209-.131-.733-.759-1.518-1.466-2.329-2.12-1.204,1.779-2.721,3.297-4.605,4.553-.314.209-.498.314-.628.314-.184,0-.288-.183-.55-.576-.366-.576-.785-1.047-1.23-1.413,2.067-1.204,3.69-2.643,4.894-4.422-.654-.445-1.334-.864-1.962-1.23l-.34.785c-.157.34-.209.366-.628.183l-1.335-.602c-.288-.131-.418-.157-.418-.288,0-.078.052-.183.157-.392.916-2.198,1.728-4.737,2.408-7.51-1.492.026-2.067.052-2.198.052-.235,0-.262-.026-.262-.288v-1.858ZM86.185,199.626c-.445,1.963-.968,3.794-1.57,5.495.759.419,1.518.864,2.303,1.361.864-1.91,1.413-4.161,1.623-6.856h-2.355ZM95.004,205.016c-2.408,0-3.245.052-3.376.052-.288,0-.314-.026-.314-.262v-2.067c0-.262.026-.288.314-.288.131,0,.968.052,3.376.052h1.753c0-1.282-.026-2.198-.209-3.402l.968.052c1.204-1.204,2.041-2.146,2.904-3.376h-4.763c-2.276,0-3.035.052-3.192.052-.262,0-.288-.026-.288-.314v-1.989c0-.288.026-.314.288-.314.157,0,.916.052,3.192.052h5.915c.235,0,.393-.026.471-.078.105-.052.209-.105.34-.105.209,0,.471.078,1.099.68.68.654.837.916.837,1.151,0,.183-.079.34-.262.445-.235.157-.445.366-.968,1.099-.942,1.23-2.093,2.617-3.559,4.056-.052.314-.052.733-.052,1.518v.471h1.884c2.434,0,3.245-.052,3.402-.052.262,0,.288.026.288.288v2.067c0,.235-.026.262-.288.262-.157,0-.968-.052-3.402-.052h-1.884v2.853c0,1.91.052,2.983.052,3.925,0,1.544-.288,2.224-.916,2.748-.628.523-1.466.68-3.952.68q-.812.026-.968-.785c-.209-.811-.523-1.544-.864-1.989,1.021.104,1.806.157,2.879.157.707,0,1.046-.393,1.046-1.204v-6.385h-1.753Z"/><path class="cls-9" d="M123.544,200.489c.052-.576.052-1.073-.026-1.78,1.361.34,2.408.733,3.036,1.125.236.131.367.471.183.707-.157.34-.34.628-.418,1.021-.209,1.099-.471,2.25-.733,3.376,1.492.759,3.114,1.779,4.083,2.512.262.157.235.288.157.55-.262.628-.812,1.727-1.125,2.25-.079.131-.157.183-.235.183-.105,0-.209-.078-.314-.183-1.152-.994-2.198-1.753-3.428-2.46-1.335,3.01-2.748,4.92-5.286,6.883-.236.183-.367.288-.523.288-.104,0-.209-.052-.393-.183-.707-.576-1.361-.837-2.277-1.073,3.271-2.277,4.868-4.449,5.862-7.092-1.439-.733-3.297-1.309-5.181-1.596-1.387,2.879-2.146,4.187-3.193,5.234-.968,1.021-2.015,1.439-3.35,1.439-1.518,0-3.114-1.047-3.114-3.585,0-3.245,3.35-5.783,7.72-5.783.863-2.172,1.518-4.004,2.172-6.202-1.439.157-2.748.314-3.611.419-.366.052-.759.131-1.178.288-.13.052-.314.104-.471.104-.209,0-.34-.104-.419-.288-.235-.523-.497-1.544-.759-2.852.785.157,1.518.183,2.303.157,1.256,0,2.565-.131,4.056-.34.654-.105.942-.236,1.282-.445.105-.078.236-.104.34-.104.131,0,.262.026.366.104.654.393,1.283.916,1.78,1.439.157.157.235.288.235.445s-.104.288-.262.445c-.393.366-.497.864-.707,1.361-.68,1.78-1.413,3.821-2.198,5.705,1.649.209,3.193.602,5.077,1.308.262-1.204.445-2.198.549-3.376ZM109.727,207.79c0,.837.288,1.204.916,1.204.498,0,.995-.34,1.518-.994.602-.759,1.23-1.806,1.91-3.193-2.669.105-4.344,1.492-4.344,2.983Z"/><path class="cls-9" d="M145.288,197.584c-.602,4.449-1.701,8.531-3.271,11.279-1.125,1.963-2.486,3.009-4.449,3.009-2.303,0-4.632-2.46-4.632-6.725,0-2.512,1.073-4.92,2.957-6.804,2.198-2.198,4.972-3.35,8.505-3.35,6.28,0,9.97,3.873,9.97,9.081,0,4.867-2.748,7.929-8.06,9.525-.549.157-.785.052-1.125-.471-.288-.445-.838-1.047-1.832-1.648,4.422-1.047,7.903-2.879,7.903-7.824,0-3.114-2.355-6.071-5.862-6.071h-.104ZM137.777,200.123c-1.256,1.413-2.041,3.167-2.041,4.841,0,2.407.968,3.742,1.78,3.742.68,0,1.256-.34,1.962-1.596,1.151-2.12,2.329-5.888,2.774-9.368-1.832.366-3.297,1.099-4.475,2.381Z"/><path class="cls-9" d="M160.979,206.979c-2.303,0-3.114.052-3.271.052-.262,0-.288-.026-.288-.288v-2.146c0-.262.026-.288.288-.288.157,0,.968.052,3.271.052h6.568v-8.74h-5.155c-2.486,0-3.35.052-3.507.052-.262,0-.288-.026-.288-.314v-2.094c0-.288.026-.314.288-.314.157,0,1.021.052,3.507.052h13.503c2.486,0,3.35-.052,3.507-.052.262,0,.288.026.288.314v2.094c0,.288-.026.314-.288.314-.157,0-1.021-.052-3.507-.052h-5.495v8.74h6.777c2.329,0,3.114-.052,3.297-.052.262,0,.288.026.288.288v2.146c0,.262-.026.288-.288.288-.183,0-.968-.052-3.297-.052h-6.777v5.653c0,1.753.026,2.591.026,2.748,0,.261-.026.288-.262.288h-2.381c-.262,0-.288-.026-.288-.288,0-.183.052-.995.052-2.748v-5.653h-6.568ZM162,196.59c.288-.157.34-.105.497.131,1.099,1.57,2.146,3.559,2.853,5.469.079.236.079.288-.209.445l-1.779.785c-.34.157-.393.157-.497-.131-.681-1.91-1.492-3.611-2.669-5.469-.157-.209-.104-.236.235-.419l1.57-.811ZM175.032,197.925c.209-.419.393-.942.497-1.466.811.262,1.701.654,2.381,1.047.235.131.314.236.314.366s-.052.236-.235.393c-.209.157-.419.445-.602.837-.707,1.387-1.492,2.695-2.408,4.004-.261.366-.366.523-.549.523-.131,0-.314-.104-.628-.314-.55-.34-.968-.602-1.544-.785,1.151-1.491,2.015-2.983,2.774-4.605Z"/><path class="cls-9" d="M201.326,206.22c-3.664.288-7.562.523-11.305.68-.498.026-.654.052-.837.131-.131.052-.262.105-.393.105-.157,0-.288-.105-.34-.34-.131-.602-.262-1.387-.366-2.146.968.026,1.858.052,2.774.052.549-.785.968-1.57,1.308-2.303h-4.841c-.079,1.936-.262,3.978-.55,5.652-.445,2.46-1.021,4.58-2.25,6.621-.209.314-.288.471-.418.471-.105,0-.236-.131-.498-.419-.549-.628-1.23-1.204-1.727-1.518,1.334-1.91,1.884-3.794,2.277-6.097.366-2.172.576-4.867.576-8.662,0-3.69-.052-5.338-.052-5.495,0-.288.026-.314.261-.314.157,0,1.073.052,3.611.052h12.221c2.538,0,3.454-.052,3.611-.052.262,0,.288.026.288.314,0,.157-.052.602-.052,1.806v2.015c0,1.178.052,1.623.052,1.78,0,.262-.026.288-.288.288-.157,0-1.073-.052-3.611-.052h-13.398v1.465h14.053c2.564,0,3.454-.052,3.611-.052.288,0,.314.026.314.288v1.675c0,.262-.026.288-.314.288-.157,0-1.046-.052-3.611-.052h-.812c1.413,1.177,2.486,2.303,3.769,3.742.183.236.157.288-.157.497l-1.334.916c-.183.131-.262.183-.34.183s-.131-.052-.209-.183l-1.021-1.334ZM190.073,214.961c-2.539,0-3.402.052-3.559.052-.262,0-.288-.026-.288-.314v-1.675c0-.262.026-.288.288-.288.157,0,1.021.052,3.559.052h4.344v-1.78h-2.146c-2.486,0-3.376.052-3.533.052-.262,0-.288-.026-.288-.288v-1.57c0-.288.026-.314.288-.314.157,0,1.046.052,3.533.052h2.146v-.052c0-.837-.026-1.361-.131-1.91.812.026,1.623.079,2.46.157.314.026.523.157.523.288,0,.183-.052.288-.157.523-.079.209-.131.497-.131.916v.078h3.035c2.513,0,3.35-.052,3.507-.052.288,0,.314.026.314.314v1.57c0,.261-.026.288-.314.288-.157,0-.994-.052-3.507-.052h-3.035v1.78h4.972c2.539,0,3.428-.052,3.559-.052.262,0,.288.026.288.288v1.675c0,.288-.026.314-.288.314-.131,0-1.021-.052-3.559-.052h-11.88ZM201.928,194.837h-14.55v1.858h14.55v-1.858ZM198.709,203.446c-.209-.183-.236-.236.079-.419l1.204-.628h-5.103c-.418.837-.837,1.57-1.309,2.25,1.911-.079,3.978-.157,6.045-.314l-.916-.89Z"/><path class="cls-9" d="M215.748,195.7c.131-.785.262-1.806.262-2.905,1.361.288,2.094.471,3.141.864.262.079.418.288.418.523,0,.131-.052.262-.183.393-.262.34-.393.628-.523.994-.34,1.073-.602,2.041-.942,3.14.707-.078,1.492-.105,2.093-.105,2.434,0,3.742,1.701,3.742,5.051,0,2.826-.523,6.307-1.413,8.191-.759,1.675-2.015,2.46-3.533,2.46-1.256,0-2.146-.131-2.722-.393-.314-.131-.471-.34-.471-.733-.078-.837-.131-1.57-.497-2.434,1.178.55,2.198.68,3.009.68.864,0,1.256-.314,1.675-1.387.55-1.465,1.021-3.951,1.021-6.516,0-1.832-.34-2.408-1.492-2.408-.628,0-1.439.079-2.198.183-1.727,5.024-3.219,8.636-5.26,12.299-.157.34-.367.393-.681.236-.471-.236-1.492-.864-1.806-1.152-.131-.131-.209-.235-.209-.393,0-.078.026-.183.105-.288,2.093-3.637,3.454-6.411,4.789-10.258-1.021.157-1.858.314-2.564.445-.68.131-1.099.288-1.439.419-.367.131-.681.079-.837-.34-.236-.602-.523-1.544-.812-2.696,1.151,0,2.303-.078,3.455-.183,1.099-.105,2.067-.236,3.088-.393.418-1.492.602-2.407.785-3.297ZM226.111,197.454c.183-.105.314-.052.497.131,1.779,1.675,3.375,3.847,4.344,6.359.105.235.079.366-.104.523-.445.419-1.439,1.047-1.963,1.309-.261.131-.523.104-.602-.209-1.047-2.748-2.408-4.998-4.292-6.778.654-.445,1.413-.968,2.12-1.335ZM226.817,193.79c.131-.105.235-.079.392.052.812.628,1.753,1.675,2.486,2.8.104.157.104.288-.079.419l-1.099.811c-.183.131-.314.105-.445-.078-.785-1.204-1.623-2.198-2.643-3.036l1.387-.968ZM229.146,192.089c.157-.105.236-.079.393.052.968.733,1.911,1.78,2.486,2.695.104.157.131.314-.079.471l-1.047.811c-.209.157-.34.078-.445-.079-.707-1.125-1.544-2.12-2.617-3.01l1.308-.942Z"/><path class="cls-9" d="M237.146,207.764c-2.329,0-3.14.052-3.297.052-.262,0-.288-.026-.288-.288v-2.094c0-.262.026-.288.288-.288.157,0,.968.052,3.297.052h6.647v-3.14h-4.344c-2.564,0-3.428.052-3.585.052-.262,0-.288-.026-.288-.314v-2.094c0-.235.026-.262.288-.262.157,0,1.021.052,3.585.052h4.344v-3.114c-2.198.262-4.396.445-6.699.602q-.837.026-1.073-.759c-.209-.68-.498-1.308-.785-1.779,3.35-.105,5.94-.288,8.767-.68,2.486-.34,4.292-.707,5.705-1.073.916-.236,1.649-.523,2.329-.811.707.628,1.387,1.335,1.858,1.937.157.183.236.288.236.497,0,.131-.157.262-.445.262-.34.026-.654.052-1.229.209-1.832.497-3.742.89-5.836,1.204v3.507h4.449c2.539,0,3.402-.052,3.559-.052.262,0,.288.026.288.262v2.094c0,.288-.026.314-.288.314-.157,0-1.021-.052-3.559-.052h-4.449v3.14h6.516c2.329,0,3.14-.052,3.297-.052.262,0,.288.026.288.288v2.094c0,.262-.026.288-.288.288-.157,0-.968-.052-3.297-.052h-6.516v.864c0,1.23.079,2.434.079,3.559,0,1.177-.183,1.753-.837,2.303-.602.471-1.806.654-4.475.654-.785.026-.837.026-.994-.811-.157-.785-.393-1.544-.707-2.067,1.204.157,2.172.157,3.009.157.89,0,1.099-.314,1.099-.968v-3.69h-6.647Z"/><path class="cls-9" d="M264.535,194.654c.445.236.602.393.602.628,0,.183-.052.261-.392.785-.262.471-.393.837-.628,1.858-.732,3.245-1.099,6.464-1.099,8.452,0,1.282.053,2.146.157,3.062.549-1.204,1.021-2.067,1.779-3.899.209.654.55,1.073.916,1.649.079.131.183.288.183.393,0,.183-.052.288-.131.419-.602,1.361-1.099,2.486-1.492,3.951-.052.157-.078.445-.078.811,0,.314.052.523.052.733,0,.183-.105.288-.34.34-.654.183-1.387.34-2.146.418-.183.026-.288-.104-.34-.288-.733-1.832-1.204-5.155-1.204-7.798,0-2.355.288-5.208.89-8.583.34-1.937.471-2.8.471-3.899,1.178.288,2.015.55,2.8.968ZM270.135,206.979c.209-.026.262.105.262.393.157,1.806,1.413,2.46,4.266,2.46,1.962,0,3.245-.131,4.998-.34.262-.026.314,0,.366.34.079.55.157,1.57.157,2.25,0,.314,0,.34-.445.393-1.78.209-3.036.288-4.266.288-3.873,0-5.679-.628-6.804-2.172-.654-.837-.916-2.172-.916-3.402l2.381-.209ZM268.669,197.192c.026-.314.104-.393.366-.445,1.544-.288,4.475-.471,5.679-.471,1.57,0,2.774.052,3.873.157.549.026.602.078.602.34,0,.785,0,1.492-.052,2.224-.026.236-.104.34-.34.314-1.57-.104-2.931-.157-4.265-.157-1.753,0-3.455.157-5.94.602.026-1.466.026-2.12.079-2.565Z"/><path class="cls-9" d="M294.024,193.214c1.884,0,2.46-.052,2.617-.052.235,0,.34.052.34.314-.052.942,0,1.648.157,2.905.811,7.066,4.03,12.457,10.18,16.172-.471.445-1.073,1.099-1.544,1.989-.209.419-.314.602-.471.602-.131,0-.314-.131-.602-.34-4.763-3.507-7.667-7.772-8.976-12.98-1.413,5.365-4.894,10.101-9.63,13.032-.314.183-.471.314-.602.314-.183,0-.288-.209-.55-.628-.418-.707-1.021-1.335-1.544-1.727,6.49-3.193,10.18-9.447,10.52-16.931h-3.245c-1.884,0-2.459.052-2.617.052-.288,0-.314-.026-.314-.288v-2.198c0-.261.026-.288.314-.288.157,0,.733.052,2.617.052h3.35Z"/><path class="cls-9" d="M316.498,202.661c1.465-.837,2.695-1.177,4.161-1.177,3.821,0,6.49,2.512,6.49,6.281,0,4.37-3.533,7.17-9.133,7.17-3.297,0-5.286-1.413-5.286-3.847,0-1.753,1.648-3.193,3.689-3.193,2.46,0,4.266,1.308,4.92,3.821,1.832-.837,2.669-1.989,2.669-3.978,0-2.381-1.675-3.951-4.108-3.951-2.172,0-4.58.968-6.699,2.774-.759.68-1.492,1.439-2.276,2.224-.184.183-.314.288-.445.288-.104,0-.235-.078-.392-.235-.55-.471-1.125-1.152-1.544-1.701-.157-.209-.079-.393.131-.602,2.041-1.649,3.847-3.323,6.202-5.783,1.623-1.675,2.853-2.983,4.056-4.475-1.57.288-3.428.654-5.05.994-.34.078-.681.157-1.099.314-.131.052-.393.131-.523.131-.262,0-.445-.131-.576-.445-.314-.602-.55-1.335-.916-2.826.785.104,1.648.104,2.434.052,1.596-.157,3.899-.497,5.94-.89.654-.131,1.178-.262,1.439-.393.131-.079.366-.209.497-.209.262,0,.418.079.602.209.785.602,1.308,1.125,1.753,1.675.209.235.288.419.288.628,0,.262-.157.497-.445.628-.445.209-.654.393-1.151.837-1.911,1.858-3.664,3.69-5.653,5.6l.026.078ZM316.524,210.119c-.759,0-1.256.445-1.256.994,0,.811.707,1.361,2.277,1.361.471,0,.811-.026,1.204-.105-.34-1.439-1.125-2.25-2.224-2.25Z"/><path class="cls-9" d="M338.721,208.471h-2.643l-.733-15.57h4.083l-.707,15.57ZM339.218,211.009v3.533h-3.716v-3.533h3.716Z"/><path class="cls-4" d="M178.79,110.397c.145.036.218.097.218.194,0,.17-.084.339-.084.509,0,.242.036.533.061.812.109.848.23,1.454.388,2.084.605-.327,1.042-.557,1.72-.921.352-.206.642-.412.836-.654.388.4.703.824.884,1.139.049.073.085.17.085.254,0,.121-.073.218-.242.242-.364.061-.775.206-1.163.363-1.042.424-2.011.872-2.847,1.418-1.054.69-1.43,1.26-1.43,1.829,0,.715.533,1.018,1.926,1.018,1.527,0,2.762-.109,3.695-.279.133-.024.194,0,.218.146.061.327.097.763.121,1.127.012.133-.073.194-.218.206-1.103.146-2.072.182-3.61.182-2.29,0-3.501-.751-3.501-2.326,0-1.345.885-2.229,2.302-3.126-.291-.933-.509-2.023-.63-2.956-.084-.642-.169-1.066-.315-1.406.582,0,1.139.036,1.587.146Z"/><rect class="cls-7" x="121.591" y="95.627" width="50.856" height="26.639"/><path class="cls-10" d="M132.48,107.695c.078-.097.116-.136.174-.136s.116.039.194.116c.601.523,1.144,1.027,1.706,1.667.581-1.26,1.027-2.655,1.337-4.205h-2.751c-.833,1.783-1.919,3.372-3.294,4.864-.175.194-.291.291-.388.291-.097,0-.194-.116-.33-.388-.252-.465-.581-.853-.969-1.182,2.035-2.035,3.255-4.127,4.069-6.86.174-.601.232-1.027.252-1.531.794.136,1.337.233,1.977.426.194.058.291.155.291.271,0,.155-.059.252-.136.33-.155.155-.232.465-.388.988-.116.349-.213.678-.33.988h1.996c.31,0,.446-.039.582-.116.116-.058.155-.078.271-.078.136,0,.349.058.853.523.465.407.562.562.562.678s-.078.194-.194.329l-.116.194c.581.949,1.24,1.763,1.938,2.48v-4.108c0-1.376-.019-2.054-.155-2.946.717.02,1.473.058,2.131.155.175.02.291.078.291.194,0,.136-.058.271-.097.387-.097.252-.135.737-.135,2.151v5.872c1.337.93,2.849,1.647,4.554,2.325-.291.368-.64.949-.853,1.531-.136.349-.194.485-.349.485-.097,0-.232-.058-.445-.155-1.066-.504-2.016-1.027-2.907-1.628v2.791c0,2.17.039,3.275.039,3.372,0,.194-.02.213-.213.213h-1.686c-.194,0-.213-.02-.213-.213,0-.116.039-1.201.039-3.372v-4.399c-.891-.833-1.686-1.763-2.422-2.868-1.163,4.496-3.507,7.655-7.034,10.193-.232.174-.368.271-.465.271-.116,0-.213-.136-.426-.387-.31-.407-.698-.737-1.124-1.027,2.209-1.318,3.992-2.984,5.291-5.077-.698-.814-1.26-1.376-1.918-1.977-.078-.077-.116-.116-.116-.174s.039-.136.116-.233l.794-1.027Z"/><path class="cls-10" d="M150.168,106.222c-1.686,0-2.248.039-2.364.039-.174,0-.193-.02-.193-.213v-1.202c0-.194.019-.213.193-.213.117,0,.679.039,2.364.039h.988c.155-.446.31-.93.427-1.434h-1.279c-.194.31-.446.659-.736,1.027-.174.213-.271.31-.388.31-.097,0-.213-.077-.426-.232-.349-.233-.736-.427-1.027-.562.833-.853,1.317-1.589,1.802-2.48.155-.33.329-.756.426-1.202.581.116,1.066.213,1.531.33.174.039.291.116.291.271,0,.116-.077.194-.213.329-.116.116-.194.271-.407.717h2.268c1.686,0,2.229-.039,2.345-.039.194,0,.213.019.213.213v1.124c0,.213-.02.232-.213.232-.116,0-.659-.039-2.345-.039h-.039c-.116.504-.252.988-.407,1.434h.892c1.667,0,2.229-.039,2.345-.039.194,0,.213.02.213.213v1.202c0,.194-.019.213-.213.213-.116,0-.678-.039-2.345-.039h-1.512c-.291.581-.601,1.124-.988,1.647h1.318c.097-.174.155-.33.213-.465.116-.271.194-.543.252-.93.484.077,1.221.174,1.55.271.194.058.271.116.271.194,0,.097-.058.174-.136.232-.136.116-.194.194-.252.33l-.174.368c1.124,0,1.473-.039,1.589-.039.194,0,.213.019.213.213v1.008c0,.213-.02.232-.213.232-.116,0-.465-.039-1.667-.039h-.252v1.124c1.085,0,1.512-.039,1.608-.039.194,0,.213.02.213.213v.969c0,.194-.02.213-.213.213-.097,0-.523-.02-1.608-.039v1.124c1.085,0,1.512-.039,1.608-.039.194,0,.213.019.213.213v.949c0,.194-.02.213-.213.213-.097,0-.523-.019-1.608-.039v1.163c1.124,0,1.531-.039,1.647-.039.194,0,.213.02.213.233v.62c1.608-.872,2.209-2.17,2.364-4.167-.717.02-1.027.02-1.124.02-.194,0-.213,0-.213-.213,0-.116.039-.833.039-2.403v-5.755c0-1.55-.039-2.287-.039-2.403,0-.194.019-.213.213-.213.136,0,.62.039,2.151.039h2.791c1.511,0,2.035-.039,2.151-.039.213,0,.232.019.232.213,0,.116-.039.853-.039,2.403v5.755c0,1.57.039,2.287.039,2.403,0,.213-.02.213-.232.213-.097,0-.542-.02-1.531-.02v3.469c0,.349-.02.427.058.504.097.097.213.097.465.097.33,0,.523-.039.62-.174.174-.194.194-.756.232-2.054.407.31.892.523,1.24.639.368.116.368.155.349.581-.097,1.434-.33,2.035-.698,2.364-.407.349-1.104.388-1.938.388-.698,0-1.221-.02-1.628-.233-.329-.194-.503-.639-.503-1.279v-4.302h-.795c-.232,2.771-1.027,4.418-3.178,5.794-.252.155-.388.233-.523.233s-.232-.116-.407-.388c-.291-.426-.523-.698-.775-.891-.33,0-.872-.019-1.725-.019h-2.732v.93c0,.174-.02.194-.213.194h-1.337c-.194,0-.213-.019-.213-.194,0-.116.039-.485.039-1.744v-5.426l-.717.62c-.194.155-.31.252-.407.252s-.155-.136-.232-.426c-.155-.504-.368-.911-.562-1.182,1.473-.969,2.558-2.073,3.313-3.449h-.31ZM152.455,110.369v-1.124h-1.647v1.124h1.647ZM152.455,112.811v-1.124h-1.647v1.124h1.647ZM152.455,115.272v-1.163h-1.647v1.163h1.647ZM158.85,102.656v1.453h3.76v-1.453h-3.76ZM162.609,107.152v-1.492h-3.76v1.492h3.76ZM162.609,108.703h-3.76v1.589h3.76v-1.589Z"/><rect class="cls-6" x="186.493" y="95.627" width="92.025" height="26.639"/><path class="cls-10" d="M200.435,112.83c0,1.337.02,2.48.058,4.031.02.252-.078.329-.291.329-.62.039-1.318.039-1.938,0-.213,0-.291-.077-.271-.31.019-1.395.077-2.655.077-3.973v-4.515c-1.705,1.434-3.779,2.907-5.329,3.721-.097.058-.194.077-.291.077-.155,0-.271-.058-.407-.194-.445-.446-1.085-.833-1.667-1.143,2.674-1.376,4.322-2.5,6.104-3.973,1.531-1.26,2.926-2.616,4.127-4.05.659-.775.911-1.163,1.221-1.996.872.484,1.725,1.008,2.151,1.356.116.077.155.194.155.291,0,.155-.116.329-.271.426-.33.213-.64.504-1.163,1.066-.756.911-1.473,1.667-2.268,2.442v6.414Z"/><path class="cls-10" d="M208.647,102.87c.078-.097.174-.155.271-.155.078,0,.155.039.252.097.988.523,2.597,1.705,3.701,2.752.116.116.174.194.174.271s-.039.155-.116.252c-.291.388-.93,1.163-1.201,1.453-.097.097-.155.155-.233.155-.077,0-.155-.058-.252-.155-1.163-1.201-2.558-2.306-3.953-3.159.426-.523.988-1.124,1.356-1.511ZM210.333,113.082c2.364-1.221,3.624-2.035,5.581-3.604,2.364-1.918,3.663-3.159,5.31-5.271.117.969.291,1.628.543,2.267.058.135.097.252.097.368,0,.174-.097.329-.31.581-1.027,1.202-2.693,2.752-4.457,4.108-1.608,1.26-3.236,2.345-5.853,3.798-.872.523-1.124.717-1.298.891-.116.116-.232.194-.349.194-.097,0-.213-.077-.33-.213-.484-.542-1.085-1.337-1.55-2.151.988-.271,1.589-.446,2.616-.969Z"/><path class="cls-10" d="M233.583,108.528c-.116,2.17-.388,3.469-1.144,4.941-.775,1.511-2.17,2.926-3.411,3.663-.213.136-.407.233-.581.233-.136,0-.271-.058-.407-.194-.387-.388-1.046-.775-1.725-1.027,1.899-1.027,3.042-1.977,3.856-3.449.717-1.279.911-2.325.988-4.166h-3.682c-.969,0-1.918.058-2.907.116-.174.019-.232-.116-.252-.368-.097-.543-.155-1.279-.155-1.86,1.085.097,2.17.097,3.294.097h8.701c1.512,0,2.636-.039,3.779-.116.194,0,.213.116.213.388.02.252.02,1.24,0,1.492,0,.252-.116.329-.291.329-1.008-.039-2.345-.077-3.682-.077h-2.597ZM229.746,104.032c-.892,0-1.667.039-2.752.077-.252,0-.31-.097-.329-.329-.059-.465-.078-1.163-.136-1.86,1.356.077,2.345.097,3.217.097h4.341c1.085,0,2.306-.02,3.275-.078.194,0,.232.116.232.368.039.465.039.95,0,1.415,0,.271-.039.368-.252.368-1.046-.039-2.189-.058-3.255-.058h-4.341Z"/><path class="cls-10" d="M244.179,104.323c0-1.337-.058-2.073-.213-2.829.814.097,1.841.213,2.403.407.232.058.33.175.33.31,0,.097-.039.194-.078.291-.174.368-.213.853-.213,1.841v3.914c0,1.008.039,1.763.058,2.442,0,.291-.116.387-.427.387h-1.55c-.271,0-.388-.097-.369-.329,0-.678.058-1.802.058-2.635v-3.798ZM253.306,107.947c0,2.868-.426,4.787-1.569,6.318-.95,1.26-2.636,2.442-4.264,3.042-.155.058-.291.097-.407.097-.155,0-.291-.058-.465-.232-.465-.465-.969-.833-1.647-1.182,2.074-.639,3.701-1.55,4.729-2.829.891-1.104,1.298-2.713,1.298-5.174v-3.663c0-1.667-.039-2.287-.213-3.159.93.078,1.86.213,2.52.426.193.058.271.175.271.33,0,.097-.019.213-.078.31-.174.407-.174.911-.174,2.112v3.604Z"/><path class="cls-10" d="M261.538,104.575c-1.104,0-2.287.078-3.43.155-.233.019-.31-.116-.349-.291-.155-.542-.271-1.511-.349-2.093,1.318.097,2.383.136,3.934.136h8.313c.814,0,1.144-.039,1.337-.116.097-.039.271-.135.368-.135.155,0,.31.116.446.271.426.368.794.775,1.163,1.221.097.116.155.232.155.349,0,.155-.097.291-.271.407-.213.155-.368.349-.523.562-.911,1.376-2.112,2.713-3.411,3.74-.116.116-.252.175-.407.175s-.33-.078-.465-.194c-.484-.387-.969-.601-1.608-.794,1.55-1.163,2.5-1.996,3.469-3.391h-8.372ZM262.624,112.133c.736-1.376.95-2.694.95-4.573,0-.717-.039-1.163-.194-1.822.949.097,1.957.232,2.5.368.252.058.33.194.33.368,0,.116-.039.232-.097.349-.136.271-.155.465-.175.794-.058,1.88-.251,3.604-1.143,5.329-.756,1.453-1.918,2.829-3.527,3.856-.174.116-.349.194-.542.194-.136,0-.271-.058-.388-.175-.465-.407-1.027-.717-1.764-.988,2.112-1.104,3.217-2.151,4.05-3.701Z"/><path class="cls-8" d="M64.804,136.169c-.884.071-1.786.141-2.971.141-.3,0-.389-.106-.424-.371-.053-.336-.124-.92-.194-1.539.46.071.919.088,1.379.088.743,0,1.503-.071,2.246-.141,0-.584.018-1.256.018-2.016,0-.46-.018-.973-.124-1.433.884.053,1.627.177,2.104.318.212.053.354.177.354.336,0,.071-.036.159-.106.283-.124.23-.212.46-.248.69-.053.46-.071.902-.088,1.468.778-.159,1.503-.389,2.264-.654.159-.053.283-.018.301.159.071.442.106.92.106,1.379,0,.177-.053.23-.23.283-1.167.371-1.468.46-2.529.672-.018.849-.018,1.716-.035,2.564,1.662-.708,3.219-.99,4.351-.973,2.193.018,3.767,1.415,3.767,3.537,0,2.264-1.45,3.59-3.837,3.59-.513,0-1.079-.071-1.45-.159-.283-.071-.389-.248-.389-.531-.036-.389-.159-.99-.531-1.503.849.283,1.557.318,2.211.318.99,0,1.91-.566,1.91-1.822,0-1.15-.707-1.786-1.945-1.786-1.008,0-2.228.265-4.05,1.202.018.743.036,1.344.071,2.122.053.778.142,1.892.142,2.299,0,.248.035.513-.265.583-.389.106-.955.195-1.309.212-.194.018-.265-.124-.424-.354-.478-.655-1.397-1.503-2.511-2.264-.194.106-.407.248-.566.389-.088.088-.212.124-.301.124-.141,0-.283-.106-.389-.283-.194-.318-.548-1.061-.813-1.645.46-.106,1.043-.301,1.627-.619.76-.424,1.591-.902,2.882-1.645v-3.024ZM63.16,142.253c.495.265,1.096.566,1.662.796.142.035.195.018.177-.141-.036-.46-.071-1.273-.106-1.857-.495.336-1.096.743-1.733,1.202ZM71.613,132.968c.124-.195.177-.248.301-.212,1.627.478,2.83,1.22,3.75,2.158.07.071.106.124.106.177s-.036.106-.071.177c-.23.354-.69.902-.955,1.256-.053.071-.301.088-.354,0-.938-1.043-2.175-1.698-3.59-2.175.23-.478.513-.937.813-1.379Z"/><path class="cls-8" d="M77.713,133.87c0-.177.018-.195.177-.195.106,0,.548.035,1.822.035.142-.654.265-1.309.371-1.998.071-.442.124-1.061.124-1.663.601.035,1.22.106,1.786.248.177.053.283.106.283.212s-.053.212-.159.371c-.124.177-.195.389-.266.831-.124.69-.23,1.362-.354,1.998h.884c1.397,0,1.875-.035,1.98-.035.177,0,.23.035.212.23-.053.513-.088.973-.106,1.309-.177,2.175-.619,4.05-1.379,5.695.601.425,1.203.902,1.769,1.415.124.088.106.159-.018.354l-.707,1.149c-.071.106-.124.142-.177.142-.035,0-.071-.018-.141-.088-.495-.513-1.026-.99-1.574-1.433-.813,1.203-1.839,2.228-3.112,3.077-.212.142-.336.212-.425.212-.124,0-.194-.124-.371-.389-.248-.389-.531-.708-.831-.955,1.397-.813,2.493-1.786,3.307-2.989-.442-.301-.902-.583-1.326-.831l-.23.531c-.106.23-.142.248-.424.124l-.902-.407c-.195-.088-.283-.106-.283-.195,0-.053.036-.124.106-.265.619-1.485,1.167-3.201,1.627-5.075-1.008.018-1.397.035-1.486.035-.159,0-.177-.018-.177-.195v-1.256ZM81.145,135.285c-.301,1.326-.655,2.564-1.062,3.714.513.283,1.026.583,1.557.92.583-1.291.955-2.812,1.096-4.634h-1.591ZM87.104,138.928c-1.627,0-2.193.035-2.281.035-.194,0-.212-.018-.212-.177v-1.397c0-.177.018-.195.212-.195.088,0,.654.035,2.281.035h1.185c0-.866-.018-1.486-.142-2.299l.654.035c.813-.813,1.379-1.45,1.963-2.281h-3.219c-1.539,0-2.052.035-2.158.035-.177,0-.194-.018-.194-.212v-1.344c0-.195.018-.212.194-.212.106,0,.619.035,2.158.035h3.997c.159,0,.265-.018.318-.053.071-.035.142-.071.23-.071.142,0,.318.053.743.46.46.442.566.619.566.778,0,.124-.053.23-.177.301-.159.106-.301.248-.654.743-.637.831-1.415,1.769-2.405,2.741-.035.212-.035.495-.035,1.026v.318h1.273c1.645,0,2.193-.035,2.299-.035.177,0,.194.018.194.195v1.397c0,.159-.018.177-.194.177-.106,0-.654-.035-2.299-.035h-1.273v1.928c0,1.291.035,2.016.035,2.653,0,1.043-.194,1.503-.619,1.857-.424.354-.99.46-2.67.46q-.548.018-.654-.531c-.141-.548-.354-1.043-.583-1.344.69.071,1.22.106,1.945.106.478,0,.708-.265.708-.813v-4.315h-1.185Z"/><path class="cls-8" d="M106.946,135.869c.035-.389.035-.725-.018-1.202.919.23,1.627.495,2.051.76.159.089.248.318.124.478-.106.23-.23.425-.283.69-.142.743-.318,1.521-.495,2.281,1.008.513,2.104,1.203,2.759,1.698.177.106.159.195.106.371-.177.424-.548,1.167-.76,1.521-.053.088-.106.124-.159.124-.071,0-.142-.053-.212-.124-.778-.672-1.485-1.185-2.316-1.663-.902,2.034-1.857,3.325-3.572,4.651-.159.124-.248.195-.354.195-.071,0-.142-.035-.265-.124-.478-.389-.919-.566-1.539-.725,2.21-1.539,3.29-3.006,3.961-4.792-.973-.495-2.229-.884-3.501-1.079-.938,1.945-1.45,2.83-2.158,3.537-.654.69-1.362.973-2.264.973-1.026,0-2.104-.708-2.104-2.423,0-2.193,2.264-3.908,5.217-3.908.584-1.468,1.026-2.706,1.468-4.191-.973.106-1.857.212-2.441.283-.248.035-.513.089-.796.195-.088.035-.212.071-.318.071-.142,0-.23-.071-.283-.195-.159-.354-.336-1.043-.513-1.928.53.106,1.025.124,1.556.106.849,0,1.733-.088,2.741-.23.442-.071.637-.159.867-.301.07-.053.159-.071.229-.071.089,0,.177.018.248.071.442.265.867.619,1.203.973.106.106.159.195.159.301s-.071.195-.177.301c-.265.248-.336.583-.478.92-.459,1.202-.955,2.582-1.485,3.855,1.114.141,2.158.407,3.431.884.177-.813.301-1.486.372-2.281ZM97.608,140.803c0,.566.195.814.619.814.336,0,.672-.23,1.026-.672.407-.513.831-1.22,1.291-2.157-1.804.071-2.936,1.008-2.936,2.016Z"/><path class="cls-8" d="M121.8,133.906c-.407,3.006-1.149,5.765-2.21,7.622-.76,1.326-1.68,2.034-3.006,2.034-1.556,0-3.13-1.662-3.13-4.545,0-1.698.725-3.325,1.999-4.598,1.485-1.486,3.36-2.264,5.748-2.264,4.244,0,6.738,2.617,6.738,6.136,0,3.29-1.857,5.359-5.447,6.438-.372.106-.531.035-.76-.318-.195-.301-.566-.708-1.238-1.114,2.989-.707,5.341-1.945,5.341-5.288,0-2.104-1.591-4.103-3.961-4.103h-.071ZM116.725,135.621c-.849.955-1.379,2.14-1.379,3.272,0,1.627.654,2.529,1.202,2.529.46,0,.849-.23,1.327-1.079.778-1.432,1.574-3.979,1.875-6.331-1.238.248-2.229.743-3.024,1.609Z"/><path class="cls-8" d="M139.644,132.456c.637,0,.955-.018,1.22-.159.071-.053.124-.071.194-.071.106,0,.195.071.301.142.407.318.813.778,1.149,1.238.053.089.088.159.088.23,0,.106-.07.23-.229.354-.23.195-.46.46-.655.778-.725,1.238-1.415,2.228-2.264,3.307,1.698,1.256,3.272,2.635,4.899,4.28.088.088.142.177.142.248s-.036.159-.124.265c-.336.407-.743.831-1.185,1.203-.071.071-.142.106-.212.106-.088,0-.159-.053-.248-.142-1.485-1.733-3.006-3.13-4.598-4.386-1.999,2.087-4.015,3.59-5.942,4.669-.159.071-.283.142-.407.142-.106,0-.212-.053-.3-.159-.389-.478-.902-.831-1.486-1.15,2.759-1.397,4.404-2.653,6.225-4.51,1.273-1.326,2.246-2.582,3.325-4.439l-4.563.018c-.919,0-1.839.035-2.794.106-.142.018-.195-.106-.23-.301-.088-.371-.159-1.22-.159-1.839.955.071,1.839.071,2.989.071h4.863Z"/><path class="cls-8" d="M156.816,132.986c.513-.018.743-.124.973-.265.124-.089.212-.124.3-.124s.195.053.318.142c.389.23.884.707,1.203,1.079.106.106.142.212.142.318s-.053.212-.195.336c-.177.159-.354.336-.53.672-.761,1.503-1.592,2.953-2.6,4.28.725.584,1.397,1.203,1.91,1.786.071.071.106.159.106.248,0,.071-.036.159-.106.23-.248.301-.796.867-1.096,1.114-.071.053-.142.088-.212.088-.053,0-.124-.035-.194-.106-.425-.495-1.132-1.202-1.716-1.715-1.804,1.945-3.625,3.325-5.641,4.421-.159.089-.301.159-.442.159-.106,0-.212-.053-.336-.159-.566-.46-1.061-.69-1.68-.902,2.741-1.397,4.51-2.67,6.508-4.793-.672-.548-1.468-1.096-2.547-1.662.389-.424.761-.884,1.167-1.256.071-.071.142-.124.23-.124.053,0,.106.035.177.071.637.301,1.415.813,2.281,1.415.849-1.096,1.503-2.246,2.069-3.502l-4.386.089c-1.45,1.857-2.6,3.077-3.784,3.979-.124.088-.23.159-.354.159-.088,0-.194-.035-.283-.124-.442-.318-.902-.566-1.486-.813,2.476-1.963,3.802-3.59,5.005-5.553.566-.955.796-1.432.955-2.175.601.212,1.521.513,2.069.866.141.071.194.177.194.283,0,.124-.088.265-.212.354-.159.106-.283.248-.371.371-.142.248-.248.424-.548.884l3.113-.071Z"/><path class="cls-8" d="M170.485,141.439c0,1.22.018,2.264.053,3.678.018.23-.071.301-.265.301-.566.035-1.203.035-1.769,0-.195,0-.265-.071-.248-.283.018-1.273.071-2.423.071-3.625v-4.121c-1.557,1.309-3.449,2.653-4.864,3.396-.088.053-.177.071-.265.071-.142,0-.248-.053-.371-.177-.407-.407-.991-.76-1.521-1.043,2.44-1.256,3.944-2.281,5.571-3.625,1.397-1.15,2.67-2.387,3.767-3.696.602-.707.832-1.061,1.114-1.822.796.442,1.574.92,1.963,1.238.106.071.142.177.142.265,0,.141-.106.301-.248.389-.301.195-.583.46-1.061.973-.69.831-1.344,1.521-2.069,2.228v5.854Z"/><path class="cls-8" d="M181.326,133.534c.301.088.336.301.23.548-.194.389-.212.778-.212,1.203-.035,2.211-.371,3.891-.955,5.199-.46,1.079-1.238,2.228-2.512,3.325-.177.141-.318.23-.459.23-.106,0-.212-.053-.336-.142-.442-.301-.867-.513-1.503-.743,1.379-1.043,2.317-2.122,2.936-3.519.495-1.203.725-2.175.743-5.005,0-.672-.036-.955-.177-1.486,1.008.124,1.822.248,2.246.389ZM185.252,141.015c.866-.46,1.68-1.008,2.511-1.645,1.061-.813,2.104-1.751,3.095-3.006.071.619.248,1.202.548,1.786.053.124.106.212.106.301,0,.124-.071.248-.265.442-.884.902-1.698,1.627-2.618,2.317-.919.707-1.91,1.397-3.147,2.122-.318.212-.354.248-.513.371-.106.088-.23.142-.354.142-.106,0-.23-.053-.372-.142-.389-.265-.796-.725-1.061-1.079-.106-.159-.159-.265-.159-.371,0-.088.018-.159.071-.265.124-.23.106-.442.106-1.344v-5.535c0-1.539,0-2.264-.177-3.077.708.089,1.68.212,2.21.372.23.053.318.159.318.301,0,.106-.053.265-.141.442-.159.336-.159.69-.159,1.963v5.907Z"/><path class="cls-8" d="M202.529,142.2c0,.195-.106.283-.336.318s-.761.088-1.256.088c-.159,0-.23-.106-.23-.283,0-.637,0-1.521.018-2.157-1.574.813-2.14,1.503-2.14,2.352,0,.743.602,1.22,2.458,1.22,1.627,0,3.042-.159,4.403-.354.159-.018.23.035.248.195.088.407.159,1.026.159,1.45.018.212-.053.336-.194.336-1.521.195-2.67.23-4.386.23-2.9,0-4.438-.866-4.438-2.918,0-1.698,1.061-2.936,3.731-4.315-.053-.902-.266-1.256-1.061-1.22-.832.035-1.627.566-2.441,1.273-.76.743-1.202,1.256-1.768,1.928-.089.106-.142.159-.212.159-.053,0-.124-.053-.195-.124-.248-.248-.778-.796-1.008-1.167-.053-.071-.071-.124-.071-.159,0-.071.036-.124.124-.195,1.362-1.22,2.67-2.617,3.696-4.386-.831.035-1.786.053-2.83.053-.159,0-.212-.088-.248-.283-.053-.283-.124-.937-.177-1.468,1.344.071,2.724.053,4.067-.018.195-.477.354-.902.531-1.521.071-.301.124-.601.124-1.079.778.124,1.556.318,2.016.495.141.053.212.177.212.301,0,.088-.035.195-.124.265-.106.088-.212.248-.301.425-.106.248-.195.478-.407.955,1.079-.124,2.158-.301,3.219-.548.194-.035.248.018.283.177.088.354.159.76.177,1.273.018.177-.053.248-.3.283-1.327.195-2.848.389-4.139.531-.407.654-.795,1.309-1.326,1.963l.018.035c.566-.371,1.291-.548,1.769-.548,1.167,0,1.981.531,2.158,1.91.689-.318,1.698-.778,2.6-1.238.336-.177.902-.495,1.344-.955.583.619,1.043,1.238,1.238,1.556.106.159.142.283.142.389,0,.141-.088.212-.266.248-.371.053-.725.142-1.079.265-1.149.407-2.299.796-3.802,1.415v2.847Z"/><path class="cls-8" d="M215.138,143.066h2.529v1.716h-7.286v-1.716h2.653v-9.621c-.672.46-1.521.884-2.494,1.203l-.354-1.857c1.167-.336,2.211-.902,3.148-1.592h1.804v11.866Z"/><path class="cls-8" d="M223.096,134.578c2.724-.919,4.934-1.468,6.367-1.468,3.166,0,5.199,1.91,5.199,4.687,0,2.317-1.008,3.785-3.112,4.917-1.486.831-2.865,1.114-4.492,1.468-.354.071-.495.053-.619-.283-.212-.495-.655-1.026-1.238-1.397,2.334-.389,3.59-.725,4.793-1.309,1.503-.76,2.44-1.892,2.44-3.519,0-1.662-1.079-2.688-3.042-2.688-1.592,0-3.696.636-6.384,1.822-.566.283-1.008.477-1.22.636-.248.212-.389.265-.478.265-.177,0-.318-.106-.513-.371-.318-.389-.761-1.079-1.132-1.839.778-.088,1.432-.248,3.431-.92Z"/><path class="cls-8" d="M244.883,131.943c-.035-.513-.071-.76-.212-1.291.795.053,1.645.159,2.069.248.301.053.495.177.495.336,0,.141-.053.23-.159.407-.053.106-.106.283-.141.513-.018.23-.018.46-.036,1.132,1.91-.071,3.731-.089,5.429-.089.212,0,.248.035.266.265.018.442.018.902,0,1.344,0,.195-.089.248-.301.23-1.839-.053-3.555-.053-5.394-.035,0,1.079,0,2.211.018,3.289.177.478.266,1.167.266,1.751,0,2.051-.832,4.191-3.148,5.712-.301.195-.531.336-.69.336s-.354-.124-.53-.265c-.407-.336-.884-.566-1.344-.708,2.069-.92,3.307-2.405,3.625-3.891-.354.513-1.079.707-1.663.707-1.397,0-2.458-1.008-2.458-2.706,0-1.645,1.238-2.653,2.67-2.653.53,0,1.061.106,1.344.354,0-.619-.018-1.22-.018-1.804-2.228.124-4.722.336-6.119.531-.389.053-.672.212-.832.212-.177,0-.248-.071-.3-.248-.142-.354-.301-1.061-.442-1.786.654.071,1.22,0,2.158-.071,1.079-.088,3.36-.23,5.482-.354-.018-.548-.018-.99-.036-1.468ZM242.619,139.105c0,.778.495,1.203,1.132,1.203.654,0,1.203-.407,1.203-1.22,0-.725-.46-1.132-1.167-1.132-.548,0-1.167.371-1.167,1.149ZM249.587,130.033c.088-.071.159-.053.266.035.548.424,1.185,1.132,1.68,1.892.071.106.071.195-.053.283l-.743.548c-.124.088-.212.071-.301-.053-.531-.813-1.097-1.486-1.786-2.052l.937-.654ZM251.568,129.378c.106-.071.159-.053.265.035.654.495,1.291,1.202,1.68,1.822.071.106.088.212-.053.318l-.707.548c-.142.106-.23.053-.301-.053-.478-.76-1.043-1.433-1.769-2.034l.884-.637Z"/><path class="cls-8" d="M257.668,134.578c2.724-.919,4.934-1.468,6.367-1.468,3.166,0,5.199,1.91,5.199,4.687,0,2.317-1.008,3.785-3.112,4.917-1.486.831-2.865,1.114-4.492,1.468-.354.071-.495.053-.619-.283-.212-.495-.655-1.026-1.238-1.397,2.334-.389,3.59-.725,4.793-1.309,1.503-.76,2.44-1.892,2.44-3.519,0-1.662-1.079-2.688-3.042-2.688-1.592,0-3.696.636-6.384,1.822-.566.283-1.008.477-1.22.636-.248.212-.389.265-.478.265-.177,0-.318-.106-.513-.371-.318-.389-.761-1.079-1.132-1.839.778-.088,1.433-.248,3.431-.92Z"/><path class="cls-8" d="M275.601,142.377c.354.831.902,1.203,1.645,1.486.655.212,1.733.318,3.272.318,2.281,0,4.917-.088,7.569-.354-.266.371-.389.76-.442,1.185q-.088.566-.654.601c-2.246.124-4.351.177-6.19.177-1.821,0-3.325-.124-4.173-.478-.813-.336-1.379-.866-1.857-1.592-.46.495-1.008.973-1.645,1.503-.177.159-.283.248-.371.371s-.159.177-.248.177c-.106,0-.195-.088-.265-.23-.248-.46-.478-.99-.725-1.627.442-.212.689-.336,1.043-.583.46-.301.902-.69,1.327-1.096v-3.944h-.725c-.919,0-1.149.035-1.238.035-.195,0-.212-.018-.212-.212v-1.344c0-.177.018-.195.212-.195.088,0,.318.035,1.238.035h.99c.919,0,1.203-.035,1.291-.035.177,0,.195.018.195.195,0,.106-.036.619-.036,1.715v3.891ZM274.716,134.312c-.106.088-.177.124-.23.124-.053,0-.106-.035-.159-.124-.654-1.061-1.379-2.016-2.175-2.759-.141-.124-.106-.159.089-.301l.902-.654c.212-.141.248-.159.389-.035.814.76,1.574,1.627,2.229,2.635.088.142.088.195-.106.354l-.938.76ZM277.847,131.766c-1.079,0-1.433.035-1.539.035-.177,0-.195-.018-.195-.195v-.937c0-.177.018-.195.195-.195.106,0,.46.035,1.539.035h1.804c.849,0,1.149-.035,1.256-.035.194,0,.212.018.212.195,0,.106-.035.407-.035,1.132v.743c0,.708.035,1.026.035,1.132,0,.159-.018.177-.212.177-.106,0-.407-.035-1.256-.035h-1.786v.442c0,.407.036.531.106.601.124.106.318.124.902.124.636,0,.849-.035.973-.159.106-.124.106-.372.124-.796.354.177.708.301,1.167.424.336.089.354.106.283.566-.071.407-.177.619-.372.796-.318.283-.902.336-2.246.336-1.362,0-1.857-.053-2.14-.283-.336-.265-.424-.601-.424-1.344v-.955c0-.371-.036-.583-.036-.707,0-.177.018-.195.212-.195.106,0,.424.035,1.149.035h1.91v-.937h-1.627ZM278.908,141.192c-1.733,0-2.334.035-2.44.035-.177,0-.195-.018-.195-.212v-.955c0-.177.018-.195.195-.195.106,0,.708.035,2.44.035h.23v-1.114c-1.45,0-1.981.035-2.069.035-.194,0-.212-.018-.212-.212v-.955c0-.177.018-.195.212-.195.088,0,.619.035,2.069.035-.018-.478-.053-.778-.106-1.132.636.035,1.008.053,1.609.124.159.018.283.088.283.177,0,.106-.036.142-.106.265-.089.177-.089.301-.089.566h2.246c0-.513-.035-.813-.106-1.132.637.035,1.026.053,1.609.124.177.018.283.088.283.195s-.035.141-.106.265c-.088.142-.088.301-.088.531v.035c1.397-.018,1.91-.053,2.016-.053.194,0,.212.018.212.195v.955c0,.195-.018.212-.212.212-.106,0-.619-.018-2.016-.035v1.114h.318c1.733,0,2.334-.035,2.44-.035.177,0,.194.018.194.195v.955c0,.195-.018.212-.194.212-.106,0-.708-.035-2.44-.035h-.919c.902.548,1.998.973,3.554,1.291-.248.265-.477.601-.636.92s-.266.442-.442.442c-.088,0-.23-.053-.407-.106-1.203-.389-2.246-.902-3.325-1.645-.142-.106-.106-.141.053-.301l.601-.601h-3.431c.318.195.619.389.902.601.177.124.248.177.248.265s-.088.159-.23.195c-.124.035-.354.23-.566.336-.566.371-1.362.76-2.175,1.061-.194.071-.318.124-.424.124-.159,0-.265-.124-.495-.389-.23-.283-.513-.531-.813-.743,1.061-.301,1.945-.637,2.564-.973.23-.124.46-.283.69-.478h-.725ZM282.975,139.901v-1.114h-2.246v1.114h2.246ZM283.665,131.766c-1.097,0-1.415.035-1.521.035-.194,0-.212-.018-.212-.195v-.937c0-.177.018-.195.212-.195.106,0,.424.035,1.521.035h1.875c.831,0,1.149-.035,1.256-.035.177,0,.194.018.194.195,0,.106-.035.407-.035,1.132v.743c0,.708.035,1.026.035,1.132,0,.159-.018.177-.194.177-.106,0-.425-.035-1.256-.035h-1.786v.46c0,.407.018.495.106.583.106.089.301.124.955.124.548,0,.849-.035.955-.142.124-.106.159-.371.177-.813.336.177.796.336,1.185.407.407.071.407.124.336.601-.071.407-.177.601-.372.76-.336.301-1.008.354-2.423.354s-1.945-.053-2.228-.283c-.301-.265-.389-.601-.389-1.344v-.955c0-.371-.036-.583-.036-.707,0-.177.018-.195.195-.195.124,0,.424.035,1.185.035h1.91v-.937h-1.645Z"/><path class="cls-8" d="M294.169,138.787c.708-.584,1.468-.902,2.158-.902,1.91,0,2.388,1.645,2.582,3.343.142,1.291.354,1.875,1.026,1.875.637,0,1.167-.318,1.662-.849.619-.654,1.344-1.68,1.786-2.883.354.796.708,1.149,1.026,1.468.142.124.194.248.194.372,0,.106-.018.194-.07.301-.354.743-.938,1.556-1.521,2.193-.884.955-2.034,1.486-3.254,1.486-1.786,0-2.546-.937-2.776-3.431-.159-1.769-.548-2.281-1.167-2.281-.761,0-1.521.566-2.229,1.503-.637.849-1.379,2.299-2.069,3.926-.106.248-.195.283-.425.212-.478-.195-.955-.442-1.362-.76-.106-.071-.159-.159-.159-.23s.036-.159.089-.248c2.582-5.058,4.209-8.436,5.182-10.646.513-1.167.743-1.786.884-2.582.831.336,1.503.654,1.98.99.159.106.248.23.248.371,0,.106-.071.23-.194.354-.212.23-.389.495-.548.76-1.132,2.175-2.087,4.032-3.06,5.624l.018.035Z"/><path class="cls-8" d="M313.304,134.135c-2.158.407-4.05.778-5.942,1.167-.672.159-.849.195-1.114.283-.124.053-.248.142-.389.142-.124,0-.266-.106-.336-.265-.229-.477-.424-1.096-.654-1.91.902-.035,1.433-.106,2.812-.301,2.175-.318,6.066-.902,10.629-1.503.265-.035.354.071.371.195.088.407.177,1.061.195,1.556,0,.212-.106.265-.336.265-.831.053-1.397.142-2.157.389-3.006,1.026-4.51,3.095-4.51,5.217,0,2.281,1.627,3.519,4.704,3.714.283,0,.389.071.389.265,0,.46-.071,1.079-.194,1.521-.053.265-.124.371-.336.371-3.112,0-6.525-1.786-6.525-5.465,0-2.511,1.255-4.209,3.396-5.606v-.035ZM316.805,136.046c.088-.071.159-.053.265.035.548.424,1.185,1.132,1.68,1.892.071.106.071.195-.053.283l-.743.548c-.124.088-.212.071-.3-.053-.531-.813-1.097-1.486-1.787-2.052l.938-.654ZM318.379,134.896c.106-.071.159-.053.265.035.654.495,1.291,1.203,1.68,1.822.07.106.088.212-.053.318l-.708.548c-.142.106-.23.053-.301-.053-.477-.76-1.043-1.432-1.768-2.034l.884-.637Z"/><polygon class="cls-5" points="380 270 0 270 0 233 380 233 380 252.714 380 270"/><path class="cls-10" d="M118.49,246.403c1.443,0,1.918-.038,2.033-.038.19,0,.209.019.209.209v1.349c0,.209-.019.228-.209.228-.114,0-.589-.038-2.033-.038h-2.413c-1.444,0-1.919.038-2.033.038-.171,0-.19-.019-.19-.228v-1.349c0-.19.019-.209.19-.209.114,0,.589.038,2.033.038h2.413ZM120.333,257.193c0,2.204.038,2.622.038,2.736,0,.19-.019.209-.209.209h-1.387c-.19,0-.209-.019-.209-.209v-.513h-2.108v.855c0,.19-.019.209-.209.209h-1.387c-.209,0-.228-.019-.228-.209,0-.114.038-.551.038-2.85v-1.273c0-1.197-.038-1.653-.038-1.786,0-.19.019-.209.228-.209.114,0,.513.038,1.729.038h1.824c1.235,0,1.615-.038,1.748-.038.19,0,.209.019.209.209,0,.114-.038.57-.038,1.463v1.368ZM118.471,243.801c1.216,0,1.596-.038,1.709-.038.209,0,.228.019.228.209v1.254c0,.19-.019.209-.228.209-.114,0-.494-.038-1.709-.038h-1.824c-1.235,0-1.615.038-1.729.038-.19,0-.209-.019-.209-.209v-1.254c0-.19.019-.209.209-.209.114,0,.494.038,1.729.038h1.824ZM118.319,249.082c1.159,0,1.482-.038,1.596-.038.209,0,.228.019.228.209v1.235c0,.19-.019.209-.228.209-.114,0-.437-.038-1.596-.038h-1.615c-1.159,0-1.5.038-1.615.038-.19,0-.209-.019-.209-.209v-1.235c0-.19.019-.209.209-.209.114,0,.456.038,1.615.038h1.615ZM118.319,251.627c1.159,0,1.482-.038,1.596-.038.209,0,.228.019.228.209v1.216c0,.19-.019.209-.228.209-.114,0-.437-.038-1.596-.038h-1.615c-1.159,0-1.5.038-1.615.038-.19,0-.209-.019-.209-.209v-1.216c0-.19.019-.209.209-.209.114,0,.456.038,1.615.038h1.615ZM116.458,255.769v2.09h2.108v-2.09h-2.108ZM126.716,252.159v2.204h1.729c1.748,0,2.356-.038,2.47-.038.19,0,.209.019.209.209v1.425c0,.19-.019.209-.209.209-.114,0-.722-.038-2.47-.038h-1.729v1.311c0,1.805.038,2.679.038,2.792,0,.19-.019.209-.228.209h-1.539c-.19,0-.209-.019-.209-.209,0-.114.038-.988.038-2.792v-1.311h-1.083c-1.767,0-2.356.038-2.47.038-.19,0-.209-.019-.209-.209v-1.425c0-.19.019-.209.209-.209.114,0,.703.038,2.47.038h1.083v-2.204h-.626c-1.615,0-2.166.038-2.28.038-.19,0-.209-.019-.209-.209v-1.368c0-.19.019-.209.209-.209.114,0,.665.038,2.28.038h.626v-1.995h-.854c-1.71,0-2.28.038-2.413.038-.171,0-.19-.019-.19-.209v-1.368c0-.19.019-.209.19-.209.133,0,.703.038,2.413.038h2.127c.494-.893.855-1.71,1.197-2.679.095-.304.19-.646.266-1.007.551.152,1.235.361,1.729.608.152.076.228.171.228.266,0,.133-.057.209-.19.323-.133.133-.228.304-.323.551-.266.608-.57,1.254-.95,1.938h.152c1.709,0,2.298-.038,2.413-.038.19,0,.209.019.209.209v1.368c0,.19-.019.209-.209.209-.114,0-.703-.038-2.413-.038h-1.482v1.995h.969c1.615,0,2.166-.038,2.28-.038.19,0,.209.019.209.209v1.368c0,.19-.019.209-.209.209-.114,0-.665-.038-2.28-.038h-.969ZM123.429,243.23c.171-.076.247-.076.361.076.494.684.988,1.52,1.349,2.318.076.209.038.266-.19.361l-1.216.532c-.266.114-.285.095-.361-.095-.323-.836-.76-1.653-1.273-2.413-.095-.171-.076-.209.152-.304l1.178-.475Z"/><path class="cls-10" d="M139.294,244.313c.323.076.456.171.456.361,0,.209-.114.437-.19.627-.095.266-.171.855-.266,2.318-.19,2.926-.285,4.863-.285,7.352,0,1.919.228,2.356,1.748,2.356,1.691,0,4.332-1.026,6.649-3.495.076.722.247,1.349.437,1.805.095.209.152.342.152.456,0,.171-.076.323-.38.589-2.052,1.881-4.73,2.849-7.2,2.849-2.432,0-3.572-.969-3.572-3.875,0-3.192.171-5.927.266-8.207.038-1.121.095-2.337-.19-3.477.874.095,1.786.19,2.375.342Z"/><path class="cls-10" d="M161.961,244.978c.095.076.152.228.152.304,0,.171-.095.285-.266.361-.228.114-.513.285-.912.665-1.633,1.463-3.723,3.419-5.186,4.939-.171.209-.247.323-.247.418,0,.114.076.209.247.342,2.47,1.786,5.034,3.856,7.067,5.984.076.095.133.171.133.247s-.038.133-.133.228c-.437.475-.988,1.026-1.311,1.311-.114.095-.19.152-.266.152s-.133-.057-.228-.171c-2.204-2.469-4.332-4.445-6.915-6.421-.722-.551-1.007-.969-1.007-1.596s.342-1.045.931-1.672c1.615-1.748,3.191-3.324,4.825-5.11.513-.551.798-.95,1.026-1.425.836.494,1.558.988,2.089,1.444Z"/><path class="cls-10" d="M172.166,244.807c.209.114.285.228.285.38,0,.133-.057.266-.133.418-.133.228-.209.494-.342,1.045-.627,2.869-.95,5.528-.95,6.915,0,.76,0,1.634.057,2.432.38-.874.779-1.691,1.178-2.641.266.608.418.874.665,1.197.076.095.114.171.114.266s-.038.19-.114.304c-.665,1.501-.893,2.337-.969,2.887-.076.532-.038.817-.019,1.007.019.133-.057.19-.228.247-.361.133-.912.247-1.425.323-.209.057-.285.038-.38-.228-.532-1.349-.817-3.609-.817-5.794,0-1.824.152-3.344.779-7.2.095-.665.209-1.482.133-2.242.76.19,1.786.494,2.166.684ZM178.701,249.88c-1.292.038-2.622.076-3.914-.019-.247,0-.323-.057-.342-.247-.076-.456-.133-1.14-.133-1.729,1.425.133,2.906.152,4.331.057,0-.684-.019-1.292-.019-1.995-.019-.684-.076-1.178-.247-1.862,1.102.095,1.672.171,2.298.361.209.057.342.152.342.323,0,.095-.038.152-.114.323-.076.171-.133.418-.152.665-.038.646-.038,1.14-.038,2.014.893-.076,1.881-.209,2.698-.342.228-.057.266.019.304.228.076.342.114.95.114,1.349,0,.171-.076.266-.209.285-.684.171-1.938.323-2.926.399,0,2.128.038,3.458.133,5.091,1.121.456,2.089.988,3.153,1.824.171.114.19.171.095.38-.247.494-.551,1.026-.874,1.463-.057.076-.114.114-.171.114s-.114-.038-.171-.095c-.589-.551-1.216-1.026-2.052-1.52-.152,1.596-1.235,2.469-3.477,2.469-2.185,0-3.4-1.026-3.4-2.659,0-1.558,1.406-2.679,3.324-2.679.494,0,1.064.057,1.52.152-.038-1.463-.057-2.85-.076-4.35ZM177.162,255.788c-.893,0-1.425.323-1.425.912s.418.95,1.539.95c.95,0,1.558-.551,1.558-1.235,0-.133,0-.228-.019-.38-.608-.19-1.121-.247-1.653-.247Z"/><path class="cls-10" d="M191.925,253.128c.171.095.19.19.095.342-.285.437-.494,1.064-.494,1.444,0,1.197,1.235,1.786,4.502,1.786,1.843,0,3.59-.209,5.148-.551.266-.057.361,0,.399.171.095.361.266,1.387.304,1.862.019.171-.095.247-.323.285-1.767.323-3.249.456-5.661.456-4.255,0-6.44-1.368-6.44-3.837,0-.779.285-1.596,1.007-2.717.494.247.969.494,1.463.76ZM196.219,245.681c1.387,0,2.812-.095,4.027-.171.19-.019.266.057.285.209.057.437.095.969.095,1.615,0,.266-.095.38-.323.399-1.805.266-3.116.893-4.654,1.881-.152.114-.323.171-.475.171-.133,0-.266-.038-.399-.114-.38-.247-.779-.456-1.33-.608.988-.646,1.824-1.178,2.488-1.577-.418.057-1.007.057-1.558.057-.722,0-2.261-.133-3.324-.323-.171-.038-.247-.114-.247-.342,0-.456.038-1.007.076-1.691,1.444.342,3.268.494,5.338.494Z"/><path class="cls-10" d="M211.04,245.358c.076-.836.057-1.33-.038-1.843,1.083.114,1.786.247,2.279.399.247.076.38.19.38.342,0,.095-.076.228-.133.304-.133.171-.285.494-.323.703-.095.513-.171.893-.266,1.558.95-.133,2.508-.418,3.571-.703.266-.076.361-.057.399.19.076.437.133.95.133,1.406,0,.209-.057.266-.228.304-1.634.361-2.66.57-4.255.779-.266,1.577-.532,2.85-.874,4.179,1.482-1.292,3.381-2.014,5.452-2.014,2.527,0,4.236,1.634,4.236,3.59,0,1.672-.703,2.907-2.166,3.838-1.14.741-2.773,1.197-4.844,1.52-.475.076-.931.133-1.406.133-.19,0-.323-.095-.475-.456-.304-.627-.589-.988-1.026-1.349,2.774-.171,3.933-.418,5.452-1.045,1.463-.608,2.166-1.482,2.166-2.678,0-.988-.722-1.805-2.166-1.805-2.051,0-3.932.95-4.996,2.355-.171.247-.361.475-.532.722-.133.228-.19.304-.361.285-.418-.038-1.044-.247-1.425-.418-.304-.133-.417-.209-.417-.38,0-.076.019-.209.076-.38.095-.323.171-.608.247-.893.418-1.672.684-3.078,1.007-4.977-1.026.076-2.223.171-3.191.171-.209,0-.323-.095-.361-.266-.057-.228-.19-1.026-.266-1.653,1.481,0,2.66-.057,4.122-.171.095-.665.171-1.292.228-1.748Z"/><path class="cls-10" d="M229.66,248.303c.209.095.304.209.304.361,0,.095-.038.19-.095.285-.171.304-.304.646-.38,1.007-.19.969-.38,2.375-.456,3.458,1.748-1.767,4.027-3.002,6.345-3.002,2.773,0,4.426,1.615,4.426,4.065,0,2.071-1.235,3.438-2.869,4.255-1.273.646-3.229,1.102-4.863,1.311-.418.057-.589.038-.76-.247-.361-.646-.703-1.159-1.292-1.615,2.128-.133,3.952-.494,5.225-1.064,1.539-.665,2.241-1.653,2.241-2.868,0-1.026-.646-1.957-2.279-1.957-1.672,0-3.686,1.083-5.471,2.887-.342.342-.589.665-.817,1.045-.114.19-.19.19-.437.133-.437-.152-.893-.323-1.292-.513-.19-.076-.266-.114-.266-.38.114-2.204.361-4.446.589-6.136.076-.57.171-1.064.171-1.71.741.209,1.539.437,1.976.684ZM230.135,243.497c.095-.095.209-.152.361-.095,1.406.551,2.583,1.273,3.724,2.26.095.076.133.133.133.209,0,.057-.038.133-.095.228-.247.399-.646.95-.969,1.33-.076.095-.152.152-.209.152-.076,0-.133-.038-.228-.133-1.063-.931-2.336-1.805-3.837-2.47.456-.684.817-1.178,1.121-1.482Z"/><polyline class="cls-1" points="249.11 254.78 277.684 254.78 271.206 249.537"/><path class="cls-8" d="M186.579,58.199c0-1.086-.024-1.617-.145-2.269h2.8c-.072.652-.121,1.303-.121,2.269v1.352h1.714c1.014,0,1.593-.024,2.317-.145v2.583c-.58-.048-.893-.073-1.883-.073-.169,2.511-.724,4.949-1.642,7.314,1.521,1.931,1.714,2.197,3.428,4.611l-1.907,2.124c-1.014-1.738-1.376-2.293-2.776-4.176-1.352,2.342-2.583,3.862-4.804,5.962-.652-1.062-1.038-1.521-1.834-2.245,2.221-1.714,3.645-3.428,4.949-5.914-1.11-1.4-2.438-2.848-4.104-4.442l1.762-1.786q.483.483,1.907,1.955c.193.193.604.652,1.521,1.714.483-1.569.821-3.379.941-5.118h-4.465c-.894,0-1.569.024-2.245.121v-2.631c.724.096,1.448.145,2.39.145h2.197v-1.352ZM194.618,64.717c1.617,2.197,2.293,3.307,3.403,5.576l-2.196,1.448c-1.135-2.656-1.932-4.055-3.38-5.842l2.173-1.183ZM195.969,63.22c-1.038,0-1.617.024-2.293.121v-2.655c.651.096,1.231.121,2.293.121h3.066v-1.907c0-1.424-.048-2.197-.169-2.873h2.896c-.097.748-.145,1.569-.145,2.873v1.907h.29c1.014,0,1.666-.048,2.269-.145v2.704q-.193-.024-.555-.073c-.242-.048-1.038-.072-1.69-.072h-.314v11.659c0,1.255-.072,1.666-.434,2.1-.459.58-1.328.821-2.921.821-.99,0-1.883-.024-2.849-.096-.169-1.207-.338-1.811-.749-2.679.869.145,2.317.29,2.921.29,1.304,0,1.449-.072,1.449-.579v-11.514h-3.066Z"/><path class="cls-8" d="M221.055,66.189c.458,1.328.604,1.738,1.086,2.631,1.207-.845,2.148-1.69,2.655-2.438l2.245,1.593c-.266.193-.338.266-.604.507-1.159,1.014-2.221,1.811-3.066,2.317,1.424,1.835,3.307,3.211,5.335,3.911-.724.893-1.231,1.666-1.617,2.583-2.631-1.352-4.297-2.824-5.938-5.238-.99-1.448-1.979-3.669-2.68-5.866h-.651c-.386.266-.531.386-.99.676.99,1.014,1.666,2.1,2.148,3.524.507,1.4.651,2.221.651,3.741,0,3.018-1.014,3.959-4.224,3.959-.29,0-.7-.024-1.255-.048-.217-1.207-.362-1.593-.917-2.559.869.121,1.521.193,2.052.193,1.545,0,1.81-.29,1.81-1.931,0-.145,0-.241-.048-.458-2.921,1.834-6.083,3.235-9.535,4.224-.386-.893-.749-1.473-1.4-2.173,3.887-.869,7.604-2.317,10.477-4.104-.145-.41-.193-.531-.338-.869-2.583,1.424-5.504,2.535-8.618,3.307-.483-1.062-.652-1.352-1.183-1.979,3.259-.628,6.155-1.593,8.883-2.969-.217-.314-.29-.41-.555-.724-2.196,1.038-4.61,1.835-7.145,2.317-.41-1.014-.652-1.424-1.159-2.028,2.752-.386,5.456-1.135,7.58-2.1h-3.114c-.966,0-1.569.024-2.366.073.072-.507.097-1.062.097-2.124v-1.786c-.628.41-.869.555-1.642.966-.314-.941-.604-1.472-1.183-2.245,1.641-.7,3.162-1.666,4.514-2.824,1.207-1.038,2.028-1.955,2.631-2.921l2.969.483-.917,1.062h3.911c.821,0,2.052-.048,2.317-.097l1.352,1.231c-.217.241-.314.314-.58.628-.652.652-1.014,1.014-1.738,1.666h3.645c1.231,0,1.883-.024,2.535-.097-.073.749-.097,1.231-.097,2.124v1.811c0,.869.024,1.497.097,2.124-.628-.048-1.255-.073-2.269-.073h-3.163ZM216.106,63.968v-1.545h-4.9v1.545h4.9ZM217.289,60.299c.627-.555,1.014-.966,1.4-1.448h-5.479c-.604.604-.941.893-1.642,1.448h5.721ZM223.831,63.968v-1.545h-5.238v1.545h5.238Z"/><path class="cls-8" d="M250.027,59.333c1.014,0,1.569-.024,2.003-.097q-.097.748-.145,3.042c-.169,8.207-.482,11.852-1.134,13.518-.555,1.448-1.593,2.003-3.718,2.003-.531,0-1.134-.048-2.317-.145,0-1.014-.193-1.811-.627-2.728,1.231.266,2.197.386,2.993.386.966,0,1.328-.507,1.593-2.221.411-2.607.628-6.542.7-11.418h-.29c-.676,3.959-1.424,6.397-2.583,8.738-1.448,2.921-3.138,4.925-6.276,7.411-.555-.869-.965-1.279-2.028-1.979,2.969-1.955,4.804-3.959,6.276-6.855,1.11-2.245,1.786-4.393,2.317-7.314h-.99c-1.207,4.731-3.187,7.966-6.469,10.573-.458-.893-.893-1.4-1.787-2.1,1.328-.821,1.956-1.376,2.849-2.438,1.473-1.762,2.39-3.548,3.09-6.035h-1.134c-.821,1.714-1.69,3.017-2.873,4.249-.749-.917-1.207-1.328-2.004-1.835.58-.531.821-.772,1.159-1.159-.483-.048-.796-.048-1.352-.048h-.58v4.514c.845-.29,1.207-.41,2.269-.893l.024,2.414c-1.135.483-1.473.628-2.293.966v5.48c0,1.014.048,1.859.145,2.776h-2.849c.121-.845.169-1.714.169-2.776v-4.562c-.99.362-1.714.604-2.172.749-.652.217-.797.29-1.279.507l-.555-2.873c1.11-.073,1.689-.217,4.007-.941v-5.359h-1.207c-.217,1.352-.434,2.269-.917,3.91-.797-.652-1.279-.917-2.197-1.303.458-1.086.627-1.762.917-3.355.193-1.207.313-2.414.313-3.404,0-.362,0-.579-.048-1.014l2.414.266c-.097,1.448-.121,1.569-.193,2.462h.917v-2.728c0-.748-.048-1.303-.169-1.979h2.849c-.097.628-.145,1.183-.145,1.979v2.728h.58c.772,0,1.159-.024,1.569-.121v2.317c.7-.966,1.255-2.004,1.714-3.162.604-1.497.966-2.728,1.062-3.718l2.8.483q-.193.507-.772,2.197c-.072.217-.169.483-.313.893h6.687Z"/><path class="cls-8" d="M256.887,68.362c0-.821.024-1.593.073-2.655-.604,1.086-1.135,1.834-2.028,2.8-.41-1.569-.604-2.148-1.086-2.969,1.835-2.028,3.138-4.176,4.152-6.856.482-1.303.724-2.173.869-3.138l2.728.772c-.121.362-.169.483-.386,1.086-.604,1.834-.821,2.366-1.69,4.224v13.687c0,1.086.048,1.883.121,2.8h-2.896c.121-.99.145-1.666.145-2.824v-6.928ZM267.508,58.561c0-1.11-.048-1.738-.169-2.535h2.993c-.145.797-.169,1.376-.169,2.559v2.221h3.018c1.231,0,1.931-.048,2.607-.145v2.752c-1.086-.097-1.811-.145-2.583-.145h-3.042v4.514h3.766c1.159,0,1.931-.048,2.704-.145v2.776c-.821-.096-1.666-.145-2.655-.145h-3.814v5.021c0,1.303.024,1.907.169,2.776h-2.993c.121-.869.169-1.545.169-2.776v-5.021h-4.128c-1.11,0-1.979.048-2.704.145v-2.776c.7.096,1.545.145,2.704.145h4.128v-4.514h-3.331c-.604,1.424-1.038,2.172-1.956,3.524-.676-.724-.796-.821-2.148-1.738,1.11-1.521,1.907-3.042,2.607-4.973.411-1.183.652-2.1.749-3.066l2.655.676c-.169.555-.217.7-.435,1.448-.241.748-.338,1.062-.531,1.666h2.39v-2.245Z"/><path class="cls-8" d="M287.983,56.413q-.145.459-.386,1.617c-.121.579-.241,1.062-.507,2.124,1.666-.169,2.921-.386,3.862-.676l.073,2.776c-.266.024-.314.024-.772.121-.869.145-2.342.314-3.838.435-.7,2.414-1.569,4.707-2.655,7-.555,1.183-.772,1.617-1.69,3.307q-.313.58-.458.869l-2.776-1.545c.845-1.11,1.521-2.197,2.341-3.862.941-1.931,1.352-2.921,2.269-5.697-1.086.024-1.231.024-1.521.024-.314,0-.459,0-.966-.024l-1.279-.024v-2.752c.869.169,1.786.217,3.259.217.29,0,.7,0,1.231-.024.411-1.714.676-3.162.724-4.2l3.09.314ZM298.918,75.966c-.869-1.038-2.27-2.173-3.693-2.993.024.217.048.386.048.483,0,.893-.411,1.931-1.038,2.559-.845.869-2.293,1.352-4.007,1.352-3.187,0-5.262-1.593-5.262-4.055,0-2.438,2.148-4.152,5.214-4.152.724,0,1.231.048,2.245.217-.072-1.11-.121-2.052-.121-2.776,0-.941.048-1.641.193-2.438l2.8.145c-.241.893-.29,1.448-.29,2.438,0,.965.048,1.931.217,3.307,1.738.772,1.979.893,3.814,2.221.362.241.458.338.845.652q.193.193.362.338l-1.328,2.704ZM290.349,71.548c-1.569,0-2.583.652-2.583,1.666,0,.99.869,1.569,2.365,1.569,1.642,0,2.438-.676,2.438-2.028,0-.241-.048-.821-.048-.821-.845-.29-1.424-.386-2.173-.386ZM299.039,64.861c-2.1-1.4-4.249-2.438-6.952-3.379l1.448-2.342c2.849,1.086,4.659,1.931,6.807,3.235l-1.303,2.486Z"/><path class="cls-8" d="M309.689,61.144c-.362,1.328-.772,3.573-1.086,5.938q-.048.338-.121.7l.048.048c1.4-1.352,4.394-2.293,7.314-2.293,4.104,0,6.807,2.028,6.807,5.117,0,1.762-.941,3.549-2.486,4.659-1.569,1.135-3.573,1.642-6.373,1.642-2.076,0-3.404-.169-6.156-.845-.024-1.497-.072-1.979-.362-3.114,2.366.821,4.442,1.207,6.494,1.207,3.404,0,5.77-1.424,5.77-3.476,0-1.617-1.521-2.583-4.08-2.583-2.148,0-4.394.652-6.011,1.762-.435.314-.58.459-1.086,1.038l-3.042-.097c.072-.435.072-.531.193-1.448.193-1.497.579-4.176,1.014-7.025.097-.579.121-.869.145-1.4l3.017.169ZM310.003,56.413c1.666.917,6.276,2.293,9.004,2.679l-.99,2.776c-4.128-.941-6.663-1.738-9.414-3.018l1.4-2.438Z"/><rect class="cls-9" x="65.824" y="47.92" width="94.985" height="11.714"/><path class="cls-10" d="M82.701,51.348c.099.023.145.046.145.107,0,.03-.023.091-.167.122-.328,1.82-.967,3.609-2.163,4.927-.236-.183-.655-.35-.754-.388,1.294-1.371,1.881-3.076,2.132-4.957l.807.19ZM84.628,51.006c1.348,1.736,2.002,3.373,2.368,4.881-.251.114-.563.289-.792.449-.137-.67-.594-2.871-2.216-4.858l.64-.472Z"/><path class="cls-10" d="M94.304,53.328v.822h-6.51v-.822h6.51Z"/><path class="cls-10" d="M100.333,50.815c.32,0,.449-.046.525-.069l.586.495c-.122.198-.152.251-.221.442-.822,2.17-1.477,3.838-4.485,5.307-.198-.312-.51-.548-.609-.625,2.284-.982,3.365-2.147,4.249-4.812h-4.979v-.739h4.934Z"/><path class="cls-10" d="M102.402,52.734v-.754h3.586v-1.629l.822.061c.099.008.152.015.152.084s-.091.106-.152.137v1.348h1.759v.754h-1.759v3.373c0,.518-.175.731-.51.853-.251.091-.792.152-1.264.122-.106-.449-.114-.502-.304-.86.236.046.541.084.776.084.48,0,.48-.152.48-.716v-2.109c-1.256,1.774-2.749,2.498-3.229,2.734-.221-.396-.419-.563-.533-.655,1.493-.586,2.741-1.797,3.366-2.825h-3.19Z"/><path class="cls-10" d="M116.151,53.328v.822h-6.51v-.822h6.51Z"/><path class="cls-10" d="M119.416,53.001c.739.426,1.165.723,1.493.975.449-.663.693-1.432.776-1.69h-2.216c-.053.069-.776,1.142-1.782,1.904-.167-.198-.312-.335-.624-.563,1.287-.83,2.102-2.147,2.551-3.343l.807.251c.083.023.129.046.129.099,0,.092-.137.099-.175.099-.145.274-.305.579-.464.845h1.995c.267,0,.389-.038.503-.076l.38.335c-.053.099-.099.19-.152.32-.594,1.462-.7,1.721-1.111,2.307.51.434.708.677.883.906-.244.266-.45.563-.518.67-.129-.183-.35-.472-.845-.952-1.142,1.271-2.558,1.835-3.083,2.048-.16-.259-.19-.304-.533-.7.929-.259,2.216-.929,3.023-1.858-.739-.571-1.256-.875-1.523-1.028l.487-.548ZM121.906,50.031c.183.175.48.495.701.8-.152.084-.32.206-.457.335-.091-.122-.358-.479-.7-.807l.457-.327ZM122.987,50.001c.19.167.571.609.723.822-.167.114-.35.236-.457.335-.396-.533-.602-.746-.715-.86l.449-.297Z"/><path class="cls-10" d="M130.812,53.328v.822h-6.51v-.822h6.51Z"/><path class="cls-10" d="M135.592,54.029h3.03v.754h-3.03v2.437h-.853v-2.437h-3.068v-.754h3.068v-2.726h-2.756v-.739h6.328v.739h-2.718v2.726ZM133.247,51.676c.327.51.647,1.18.868,1.766-.259.099-.32.122-.754.327-.129-.381-.442-1.172-.845-1.797l.731-.297ZM137.77,51.858c.099.038.16.069.16.137,0,.076-.068.084-.221.084-.297.815-.533,1.294-.769,1.736-.19-.084-.251-.107-.762-.305.274-.495.663-1.371.792-1.942l.8.289Z"/><path class="cls-10" d="M145.847,50.503v1.698h-5.246c-.031,2.124-.046,3.693-.739,5.063-.114-.061-.305-.168-.776-.259.639-1.119.753-2.261.753-4.82v-1.683h6.008ZM140.601,51.089v.541h4.477v-.541h-4.477ZM143.601,55.11h1.804v.624h-1.804v.624h2.528v.625h-5.505v-.625h2.186v-.624h-1.866v-.624h1.866v-.594c-.259.015-1.409.084-1.645.099-.046.069-.076.129-.152.129-.061,0-.099-.068-.107-.137l-.106-.64c.259,0,.434,0,.921-.008.198-.289.411-.67.449-.746h-1.401v-.586h5.299v.586h-1.302c.434.373.853.784,1.211,1.233-.213.114-.472.373-.579.525-.107-.16-.145-.206-.495-.609-.472.061-1.112.099-1.371.114.16.008.297.015.297.129,0,.091-.152.122-.228.137v.366ZM144.08,53.214h-.929c.007.084-.061.091-.251.114-.175.304-.297.502-.366.609.503-.023,1.165-.046,1.866-.107-.206-.19-.244-.213-.548-.457l.229-.16Z"/><polyline class="cls-3" points="54.181 83.808 54.181 30.47 113.316 15.306 172.452 30.47 172.452 83.808"/><path class="cls-7" d="M77.039,69.724v-7.697h3.515v19.75h-3.515v-8.86h-7.895v8.86h-3.515v-19.75h3.515v7.697h7.895Z"/><path class="cls-7" d="M90.12,62.027v19.75h-3.564v-19.75h3.564Z"/><path class="cls-7" d="M101.841,62.027c1.832,0,2.748.099,3.886.693,1.955,1.015,2.92,2.822,2.92,5.099,0,1.856-.767,4.628-4.529,5.469l6.064,8.489h-4.183l-5.52-8.266h-.94v8.266h-3.44v-19.75h5.742ZM99.539,65.219v5.296h1.956c.94,0,3.688,0,3.688-2.673,0-2.624-2.351-2.624-3.663-2.624h-1.98Z"/><path class="cls-7" d="M116.79,76.926l-1.683,4.851h-3.861l7.301-19.75h4.48l7.301,19.75h-3.861l-1.683-4.851h-7.994ZM123.744,73.931l-2.945-8.489-2.97,8.489h5.916Z"/><path class="cls-7" d="M134.485,73.733l-6.856-11.707h4.01l4.579,8.167,4.604-8.167h4.009l-6.855,11.707v8.044h-3.49v-8.044Z"/><path class="cls-7" d="M147.651,76.926l-1.683,4.851h-3.861l7.301-19.75h4.48l7.301,19.75h-3.861l-1.683-4.851h-7.994ZM154.605,73.931l-2.945-8.489-2.97,8.489h5.916Z"/><path class="cls-7" d="M72.545,39.078v-4.447h2.03v11.409h-2.03v-5.118h-4.561v5.118h-2.03v-11.409h2.03v4.447h4.561Z"/><path class="cls-7" d="M78.71,43.238l-.972,2.802h-2.23l4.218-11.409h2.588l4.218,11.409h-2.23l-.972-2.802h-4.618ZM82.728,41.508l-1.701-4.904-1.716,4.904h3.417Z"/><path class="cls-7" d="M89.466,34.631v9.565h4.032v1.844h-6.048v-11.409h2.016Z"/><path class="cls-7" d="M101.606,39.378v1.816h-4.775v4.847h-2.016v-11.409h7.234v1.844h-5.219v2.902h4.775Z"/><path class="cls-7" d="M108.859,40.336c0-3.546,2.645-5.934,5.905-5.934s5.891,2.388,5.891,5.934-2.645,5.933-5.891,5.933-5.905-2.388-5.905-5.933ZM118.652,40.336c0-2.073-1.501-4.089-3.889-4.089-2.402,0-3.903,2.016-3.903,4.089,0,2.059,1.473,4.089,3.903,4.089s3.889-2.059,3.889-4.089Z"/><path class="cls-7" d="M125.419,34.631c1.058,0,1.587.057,2.245.4,1.129.586,1.687,1.63,1.687,2.945,0,1.072-.443,2.674-2.617,3.16l3.503,4.904h-2.416l-3.188-4.775h-.543v4.775h-1.987v-11.409h3.317ZM124.089,36.476v3.06h1.13c.543,0,2.13,0,2.13-1.544,0-1.515-1.358-1.515-2.116-1.515h-1.144Z"/><path class="cls-7" d="M131.584,34.631h4.303c1.244,0,1.902.072,2.874.429,2.788,1.044,3.16,3.975,3.16,5.276,0,1.229-.314,4.175-3.146,5.276-.815.315-1.73.429-3.002.429h-4.189v-11.409ZM133.6,44.196h1.859c1.701,0,4.432,0,4.432-3.86s-2.745-3.86-4.375-3.86h-1.916v7.72Z"/><path class="cls-7" d="M150.16,39.249v1.802h-4.761v3.145h5.404v1.844h-7.42v-11.409h7.235v1.844h-5.219v2.774h4.761Z"/><path class="cls-7" d="M155.753,34.631c1.058,0,1.587.057,2.245.4,1.129.586,1.687,1.63,1.687,2.945,0,1.072-.443,2.674-2.617,3.16l3.503,4.904h-2.416l-3.188-4.775h-.543v4.775h-1.987v-11.409h3.317ZM154.423,36.476v3.06h1.13c.543,0,2.13,0,2.13-1.544,0-1.515-1.358-1.515-2.116-1.515h-1.144Z"/></g></svg>