<svg id="レイヤー_1" data-name="レイヤー 1" xmlns="http://www.w3.org/2000/svg" viewBox="0 0 935 67"><defs><style>.cls-1{fill:#ee1b09;}.cls-2{fill:#231815;}</style></defs><path class="cls-1" d="M58.58,56c-7.85-4.06-19.19-19.69-22.24-34.66-.07,7.49-.15,11.41-.07,18.17,0,3.12.72,18.24.72,21.65,0,2.47,0,5.89-5.3,5.89-3.27,0-3.27-2.33-3.27-3.42,0-2.32.58-12.93.65-15.4s.15-14.68.15-17.44a65.55,65.55,0,0,1-9,11.92,62,62,0,0,1-20,14.68L0,57c13.66-12.42,22.24-27,25.15-36.33H10.47a40.61,40.61,0,0,0-7.85.51L1.45,18.46c3.42.29,6.91.43,10.32.43H29.22c-.15-9.44-.51-14-1.75-18.31L38.59,3.05c.44.07,1,.29,1,.87,0,1-1,1.53-3,2.62V8c0,1.6-.15,9.23-.15,10.9H52.62l3.63-5c.37-.51.66-1,1.09-1s1,.51,1.38.8l6.11,5c.22.22.73.58.73,1.09,0,.8-.73.8-1.09.8H37.57c6.55,15.11,20,25,30.17,28v.51C62.43,51,60.83,52.54,58.58,56Z"/><path class="cls-2" d="M113.68,60.46l-.15-.51c10.68-4.14,22.89-12.72,22.89-28.41,0-10.54-6.61-19.48-20.71-19.48a9.08,9.08,0,0,0-3.49.44c6.47,3.41,6.47,6.54,6.47,7.48,0,2.62-6.32,16.06-11,23.77-5.59,9.15-8.36,11.55-10.9,11.55-2.32,0-3-1.09-5.23-4.58a9.92,9.92,0,0,0-2.84-3c-2.25-1.89-3.27-5.38-3.27-8.79,0-16.06,13.81-29.29,32-29.29,14,0,27.69,8.21,27.69,23.76C145.07,56,119.49,59.66,113.68,60.46Zm-3.93-47.53c-8.36,2.48-18.1,12.94-18.1,25,0,3,1.38,10.1,4.44,10.1s6.54-7.41,9.52-13.73c1.74-3.56,6-12.35,6-16.64A7.09,7.09,0,0,0,109.75,12.93Z"/><path class="cls-2" d="M223.06,60.82c-12.64-7.19-22.6-22.16-24.85-37.64a54.55,54.55,0,0,1-6.84,4.36A31.25,31.25,0,0,1,203.58,52c0,13.88-8.94,14.53-13.66,14.9-.44-4.73-2.54-6.54-6.76-9l.15-.58a26.8,26.8,0,0,0,7.77,1.23c2.18,0,5.82,0,5.82-9.16a28.64,28.64,0,0,0-.37-4.57c-9.37,8.64-20.27,15.62-32.63,18.38l-.14-.51c9.15-4.65,24.2-16.93,30.88-25.43-.36-.87-.5-1.31-.87-2.18a63.74,63.74,0,0,1-30.45,14v-.51c10.83-5.59,22-13.51,27.33-19.4-.29-.36-.37-.51-.66-.87-9.15,4.8-19.18,8.65-26.67,8.65l.07-.37c8.07-2.47,21.73-11.55,26.68-16H185.2a40.68,40.68,0,0,0-7.64.51l-1.16-2.62c4.29.36,8.72.36,10.1.36h17.67l3.41-4.14c.36-.43.73-.87,1.16-.87a2.47,2.47,0,0,1,1.38.8l4.8,4.07.51.51a45.83,45.83,0,0,0,2.83-8.36H175c.29,5.23-2.25,10.17-6,10.17a3.47,3.47,0,0,1-3.56-3.48c0-1.82.29-2,3.85-4.95A13.26,13.26,0,0,0,173.49,6h.44a24.49,24.49,0,0,1,.8,3.13h19.19c-.15-5.6-.29-6.69-1.31-9.16l9.08,1.6c.73.14,1.46.36,1.46,1.09s-.44,1.16-2.4,2.32c0,.66-.07,3.56-.07,4.15H218l1.82-2.4c.36-.44.66-1,1.24-1a3.31,3.31,0,0,1,1.67.8l5.89,5.16a2.19,2.19,0,0,1,.79,1.75c0,1.52-1.74,2-3.12,2a19.62,19.62,0,0,1-2.4-.29c-2.69,1.53-6.9,3.92-8.07,4.51h-.14c.07.43,0,.87-1.09.87H201.62c-.65.58-1.82,1.45-2,1.6.58,2.47,2.25,6.9,6.1,12.71,4.51-4.21,8.44-7.92,9.31-12.2l7.92,5.3c.44.29,1,.94,1,1.38,0,1.09-.37,1.09-3.93,1.16-5.88,2.84-9,4.44-13.3,5.74,5.53,7.63,14.54,15,24,18V55A10.82,10.82,0,0,0,223.06,60.82Z"/><path class="cls-2" d="M278.16,60.46,278,60c10.69-4.14,22.9-12.72,22.9-28.41,0-10.54-6.62-19.48-20.72-19.48a9.12,9.12,0,0,0-3.49.44c6.47,3.41,6.47,6.54,6.47,7.48,0,2.62-6.32,16.06-11,23.77-5.6,9.15-8.36,11.55-10.91,11.55-2.32,0-3-1.09-5.23-4.58a9.87,9.87,0,0,0-2.83-3c-2.26-1.89-3.27-5.38-3.27-8.79,0-16.06,13.8-29.29,32-29.29,14,0,27.7,8.21,27.7,23.76C309.56,56,284,59.66,278.16,60.46Zm-3.93-47.53c-8.35,2.48-18.09,12.94-18.09,25,0,3,1.38,10.1,4.43,10.1s6.54-7.41,9.52-13.73c1.74-3.56,6-12.35,6-16.64A7.09,7.09,0,0,0,274.23,12.93Z"/><path class="cls-2" d="M378,22.16a4.35,4.35,0,0,0-2,2.91c-5.38,15.41-11.41,22.09-15.7,25.94-6.11,5.45-14.9,10.39-22.24,11.7l-.08-.51c13.74-7,28.42-25.28,31.47-43.16-5.16.29-22.89,2.83-27.54,4.58A23,23,0,0,1,338.34,25c-1.45,0-7-4.65-7-9.67a7.36,7.36,0,0,1,1-3.92c3.41,5.38,7.05,5.38,8.79,5.38s25.22-1.46,28.49-2.84c.58-.29,2.91-1.89,3.49-1.89,1.09,0,4.51,3.85,5.31,4.51,2,1.67,2,2.25,2,2.76C380.42,20.57,380.13,20.78,378,22.16Zm6.91-5.74a7,7,0,1,1,7-7A7,7,0,0,1,384.86,16.42Zm-.08-10.9a3.86,3.86,0,1,0,3.85,3.85A3.88,3.88,0,0,0,384.78,5.52Z"/><path class="cls-2" d="M457.39,21.58c-1.81,1.46-2,1.6-3.48,8.72-.51,2.26-3.06,13.66-3.2,14.25a2.64,2.64,0,0,0-.15.79c0,.59.15.66,1.31,1.53,2,1.38,2.76,2,2.76,3.2,0,1.09-.72,2.25-2.69,2.25-.21,0-1.74-.14-2.1-.14-3.06-.22-6.76-.37-12.43-.37a140.07,140.07,0,0,0-16.21.73c-.36,3.85-1.38,4.43-2.62,4.43-2.54,0-5.23-4.65-5.23-8.28,0-.44.15-2.55.15-3,0-6-.8-19.84-2.18-25.51-.8-3.12-2.11-3.92-4.8-5a6.87,6.87,0,0,1,4.07-1.31c2.4,0,3.71.65,7.27,2.4a4.74,4.74,0,0,0,2.32.65c.8,0,23.91-1.82,24.86-2,2.4-.36,2.69-.65,4.36-2a3,3,0,0,1,1.74-.79c1.17,0,3.64,2.18,4.8,3.27,2.76,2.54,3.2,3.12,3.2,4.07C459.14,20,459.07,20.27,457.39,21.58Zm-11.91-2A174.83,174.83,0,0,0,427.81,21c-1.45.15-3.7.66-5.16.66a34.66,34.66,0,0,1-3.56-1.17c-.29,0-.36.29-.36.66,0,2.18,1.45,24.92,1.74,26.59a32.32,32.32,0,0,0,3.42-.14c6.76-.44,13.52-.8,20.35-1.24,1.09-6.25,2.83-19.18,2.83-25.14C447.07,19.77,446.35,19.55,445.48,19.55Z"/><path class="cls-2" d="M525.06,20.71c-1,.58-1.67,1.09-2.39,3.42-7.27,22.38-20.5,33.06-37.43,37.42L485,60.9c18-9.31,30.09-31.83,31.25-43.31-3.34.07-21.8,3.05-26,4.21-.8.22-4.65,1.82-4.94,1.82-1.82,0-7-4.51-7-9.81a8.15,8.15,0,0,1,.87-3.71c3.49,4.14,4.36,5.23,9.16,5.23,5.6,0,25.95-1.6,28-2.76.59-.29,3.06-2,3.64-2,1.09,0,5.38,4.21,6.32,5.16a3.16,3.16,0,0,1,1.17,2.39C527.54,19.4,527.32,19.48,525.06,20.71Z"/><path class="cls-2" d="M594,56.39c-.73,0-4-.73-5.16-.94a55.67,55.67,0,0,0-11.12-1c-5.89,0-17.74,1-22.31,2.61a20.88,20.88,0,0,1-3,1.31c-1.68,0-6.18-4.5-6.18-7.7a8.35,8.35,0,0,1,.72-3.42c1.31,1.89,3.2,4.66,7,4.66.8,0,12.65-.88,14-1,.14-3.13.21-5.16.21-7.2,0-3.12,0-8.28-1.23-10.75-1.09.14-6,1.16-7.05,1.16-2.76,0-6.18-4.07-5.74-7.19a10.53,10.53,0,0,0,6.54,2.25,108.9,108.9,0,0,0,16.2-1.24c.8-.14,4-1.38,4.66-1.38,1.31,0,5.3,1.24,5.3,3.71,0,1.89-2.25,1.89-3.34,1.89-2.62,0-8.14,0-10.47.22,2.11,1.38,2.11,1.67,2.11,2s-.73,2.18-.8,2.62c-.65,2.54-1.16,13-1.16,13.51,2-.14,11-.43,12.79-.72.51-.08,2.76-.73,3.27-.73s7.05,2.62,7.05,5.23C596.22,56,595.06,56.39,594,56.39Z"/><path class="cls-2" d="M622,37.57c-2.11,0-3-2-3.7-3.92A25.85,25.85,0,0,0,613,25.43c9.09,1.24,11.85,5.31,11.85,8.51C624.86,36.19,623.48,37.57,622,37.57Zm30.16-7c-.43.8-2.1,4.51-2.47,5.23-8.72,16.79-18.38,23.11-31.54,26.89l-.07-.58a53.43,53.43,0,0,0,21.08-19.91c3.77-6.25,7.41-14.1,7.41-15.77,0-1.09-1.53-2.54-4-3.85a15.41,15.41,0,0,1,3.56-.51c3.85,0,8.29,4.29,8.29,5.45C654.37,28.05,652.4,30,652.11,30.52Zm-17.66,3.42c-2.18,0-2.61-1.31-3.63-4.15a23.35,23.35,0,0,0-4.51-8c3.64.73,11,3.78,11,8.58C637.29,31.68,636.71,33.94,634.45,33.94Z"/><path class="cls-2" d="M690.42,34.44c-1.16,0-1.74-.43-4-2.18-7.2-5.66-9.89-6.75-13.67-7.84a42.48,42.48,0,0,1,8.87-1c9.3,0,12.35,4.14,12.35,7.12C694,32.41,693,34.44,690.42,34.44Zm5.74-16.85a4.78,4.78,0,0,1-3.27-1.68c-7-6.25-9.37-8-13.37-9.15a35.13,35.13,0,0,1,6.25-.66c7.7,0,13.74,3.2,13.74,7.49C699.51,15,698.71,17.59,696.16,17.59Zm-.65,38.07c-3.56,2.47-3.93,2.77-5.67,4.8a2.08,2.08,0,0,1-1.67.8c-.87,0-8.43-3.63-8.43-11.48a8.13,8.13,0,0,1,.36-2.26c1.67,2.33,4.51,4.29,5.67,4.29,5.31,0,30.31-19.84,40.19-33.21l.51.22C722.62,30.59,710.63,44.91,695.51,55.66Z"/><path class="cls-2" d="M753.08,43.24c-.59.14-3.13,1.23-3.64,1.23-1.09,0-5-3.49-5-7.12a5.37,5.37,0,0,1,.58-2.47c1.16,2.33,2.83,3.63,5.23,3.63,2.11,0,11.56-.87,13.45-1,2.4-.15,3.85-.15,6.76-.29.21-4.22.21-4.65.29-9.31-3.42.3-16.79,1.53-19,2.18a27.08,27.08,0,0,1-3.06.88c-1.88,0-4.5-4-4.5-6.4a10.47,10.47,0,0,1,.65-3.27c2,3.78,4.22,3.78,6,3.78,2.83,0,17.37-.29,19.47-1.6.44-.29,2.4-2,2.91-2s6.18,4.72,6.18,5.59c0,.58-2.55,2.26-2.69,2.84-.44,2.32-1.09,21.72-1.75,25.72-.43,2.84-1.74,4.22-3.19,4.22-2.26,0-2.91-2.18-3.49-3.93a132.33,132.33,0,0,0-15.12,2c-.73.15-3.71,1.38-4.36,1.38-2,0-4.94-4.65-4.94-7.41a5.33,5.33,0,0,1,.65-2.61c1.24,2.25,2.91,3.92,5.67,3.92,1.09,0,17.73-1.23,19.19-1.38.43-5,.51-5.52.8-10.17A111.87,111.87,0,0,0,753.08,43.24Z"/><path class="cls-2" d="M852.94,28.56c-.87,0-5.6-.58-8.36-.87a26.66,26.66,0,0,0-3.92-.22c-4.22,0-6.76.07-8.72.14-.8,13.67-2.91,18.75-5,22.31A32.89,32.89,0,0,1,807.22,65.4l-.21-.58c5.67-3.85,16.28-12.35,17.8-36.7-5.45.66-11,1.31-15.84,3.71a6,6,0,0,1-2.76.87c-2.33,0-7.93-4.21-7.93-10.1a8.36,8.36,0,0,1,.44-3.12,9.48,9.48,0,0,0,8.94,5c1.45,0,7.63-.58,9.59-.73,2.55-.22,6.62-.51,7.71-.58.07-3.27,0-10.17-.44-12.28-.58-2.69-4.21-3.42-6-3.71a8.77,8.77,0,0,1,6.18-2.68c3,0,9.38,2.68,9.38,5.37a26.18,26.18,0,0,1-1.6,3.78c-.22.51-.29,7.63-.29,8.94,1.67-.22,10.9-1,11.41-1.09.72-.15,3.85-1.31,4.5-1.31,1.82,0,8.07,2.25,8.07,5.82C856.21,28.56,854,28.56,852.94,28.56Z"/><path class="cls-2" d="M895.1,23.18c-.29,1.31-1.53,10.25-1.89,12.21C890,51.16,880,58,874.09,60.53l-.43-.43c9.88-9.45,14.1-23,14.1-36.7,0-4.58-1.24-4.94-6-6.4,2.54-1.3,4.07-2,5.74-2,2.33,0,8.58,2.32,8.58,4.87C896.12,20.42,895.17,22.67,895.1,23.18Zm20.93,27c-1.38,1.09-7.34,5.74-8.5,6.76-1.38,1.09-1.67,1.16-2,1.16-1.81,0-5.52-6.39-5.52-8.13a42.22,42.22,0,0,1,1.16-4.29c.37-2,.73-11.7.73-17,0-2.54,0-13.44-.94-15-1-1.82-4.07-2.47-5.45-2.83,1-.73,2.9-2.11,5-2.11,2.54,0,9.67,2.62,9.67,5.3a44,44,0,0,1-1.31,4.36c-.66,3.13-1.53,22.46-1.53,27,0,.59.15,1.09.66,1.09,2.76,0,17.29-10.39,26.45-21.8l.51.44C932.46,32.34,927,41.49,916,50.21Z"/></svg>