<svg id="レイヤー_1" data-name="レイヤー 1" xmlns="http://www.w3.org/2000/svg" viewBox="0 0 390 85"><defs><style>.cls-1{fill:#231815;}</style></defs><path class="cls-1" d="M121.2,29.68c-2-.64-8.07-4.56-10.5-10.41.07,2.13.17,8.35.17,10.17s-1.92,2-2.29,2c-1.59,0-1.59-.82-1.59-1.32,0-.1,0-.27,0-.48.16-2.77.23-6.65.27-7.87a30.3,30.3,0,0,1-13.5,8l-.11-.27c4.86-2.57,9.93-7.91,11.38-10.55H102.2c.1,1.86-1.38,2.16-2.33,2.16-1.32,0-1.32-.84-1.32-1.35,0-.95.21-5.17.21-6.15a35.86,35.86,0,0,0-.41-6.36l4.22,1.56h4.76c0-.74,0-2.5-.07-3.31H98.12a17,17,0,0,0-3.65.23l-.54-1.25c2.06.17,4.42.2,4.79.2h8.54A17.3,17.3,0,0,0,106.59.1l4.72,1.08c.44.1.61.24.61.44s-.1.41-1.15,1c0,.17,0,1.72,0,2h7.73l1.68-2.09c.28-.34.38-.44.54-.44s.34.17.61.37l2.84,2.1a.7.7,0,0,1,.33.5c0,.34-.3.38-.54.38H110.74V8.79h4.82l1.15-1.35c.17-.17.31-.34.54-.34s.37.17.58.3l2.36,1.66c.24.17.44.34.44.64s-.1.47-1.18,1.08c0,1.36,0,3.28.06,5.61,0,.44.1,2.3.1,2.67,0,1.26-1.34,1.69-2.42,1.69-1.36,0-1.36-.84-1.32-1.82h-4.69a23.07,23.07,0,0,0,14,6.79V26A6.25,6.25,0,0,0,121.2,29.68ZM107.33,9.6h-5.16v3.75h5.16Zm0,4.56h-5.16v4h5.16ZM115.9,9.6h-5.16l0,3.75h5.2Zm0,4.56h-5.2v4h5.2Z"/><path class="cls-1" d="M147.66,19.13h-6.07c0,.95,0,1.15,0,1.49,1.93.24,5,1.25,5,3.45a1.69,1.69,0,0,1-1.65,1.72c-1,0-1.22-.84-1.49-1.66a7.21,7.21,0,0,0-1.86-3.07v1.59c0,1.05.11,5.71.11,6.66s0,1.86-2,1.86c-1.48,0-1.48-.82-1.48-1.39,0-.88.37-5.58.37-6.63a19.9,19.9,0,0,1-6.92,5.35l-.17-.27c3-2.78,5.17-7.14,6-9.1h-1.05a16.77,16.77,0,0,0-3.64.24l-.54-1.25c2.06.2,4.42.2,4.79.2h1.52c0-3,0-3.35-.4-4.87l4.11,1c.27.07.51.14.51.47s-.2.54-1.08.92c0,.44-.07,2.29-.07,2.53h1.66l1.45-1.69c.27-.3.4-.44.57-.44s.41.17.64.41l1.89,1.65a.82.82,0,0,1,.34.51C148.17,19.1,147.87,19.13,147.66,19.13Zm.41-5.78H136.15a16.77,16.77,0,0,0-3.64.24L132,12.34c2.06.17,4.42.2,4.79.2h4a19.59,19.59,0,0,0,1.69-6.89h-5.27a16.93,16.93,0,0,0-3.64.23l-.58-1.25c2.06.17,4.46.2,4.83.2h1.11a14.44,14.44,0,0,0-.57-4.76l4.46.91c.23,0,.54.17.54.47s-.68.71-1.22,1c0,.37,0,2.1,0,2.43h1.25l1.31-1.75c.24-.31.37-.44.51-.44s.34.1.64.37l2.16,1.76a.71.71,0,0,1,.34.5c0,.31-.27.38-.51.38h-5.3l3.82,1.65c.23.1.47.24.47.58s-.34.5-1.35.77a32.94,32.94,0,0,1-3.55,3.89h2.23l1.25-1.62c.24-.31.34-.44.54-.44s.51.27.61.37l1.79,1.62c.17.17.33.31.33.51S148.27,13.35,148.07,13.35Zm-10-1.15c-1.45,0-1.55-1.35-1.65-2.3A5.81,5.81,0,0,0,135,6.29l.24-.27c2.06.74,4.55,2,4.55,4.15A1.83,1.83,0,0,1,138.11,12.2Zm24.5.44h-4.08c0,3.75,0,10.28.1,13.76,0,.41.07,2.33.07,2.77,0,.61,0,2.2-2.5,2.2-1.35,0-1.35-.78-1.35-1.39s.14-2.84.17-3.38c.14-4.66.17-9.33.17-14h-2.8c-.07,5.75-.14,12.54-8.41,18l-.23-.3c4.22-5.14,5.36-8.38,5.36-19.3,0-2.23,0-6.93-.6-8.79l3.61,1.52c4.52-2.33,4.66-2.4,5.57-3.75l3.44,2.81a.9.9,0,0,1,.37.6c0,.34-.4.34-.57.34a7.24,7.24,0,0,1-1.25-.17,36.53,36.53,0,0,1-7.22,1c0,.61-.07,6.08-.07,7.23h5.23l1.55-2.3c.14-.2.31-.44.51-.44s.4.17.67.41l2.43,2.26a.76.76,0,0,1,.34.51C163.12,12.61,162.78,12.64,162.61,12.64Z"/><path class="cls-1" d="M180.71,4.19a36.55,36.55,0,0,1-2.16,4.19l.84.41c.13.07.47.24.47.51a.77.77,0,0,1-.3.5,5.86,5.86,0,0,1-.71.61c0,1.52.07,12.24.1,13.29,0,.84.14,4.93.14,5.3,0,.75,0,2.33-2.2,2.33-1.65,0-1.65-.77-1.65-1.75s.2-5.11.2-5.95c.07-3,0-3.38.14-10.95a22.24,22.24,0,0,1-4.76,4.59l-.21-.17c3.62-5.74,6.65-13.35,7-17l4.25,2.33a.74.74,0,0,1,.48.61C182.33,3.68,181.55,3.92,180.71,4.19Zm20.08,25.12H184a17.5,17.5,0,0,0-3.68.23l-.54-1.25c1.58.14,3.2.21,4.82.21h3.68V18.08h-2.36a16.55,16.55,0,0,0-3.65.24l-.57-1.25c1.62.14,3.21.2,4.83.2h1.75V8.62h-3.61a16.89,16.89,0,0,0-3.64.24l-.54-1.25c1.58.13,3.2.2,4.79.2h10.16l1.25-2.2c.1-.17.27-.51.54-.51s.47.27.6.38l2.77,2.26c.14.1.37.31.37.51s-.33.37-.54.37h-8.57v8.65h2.6l1.25-2c.1-.17.27-.44.5-.44s.51.27.65.37l2.66,2c.14.1.37.27.37.5s-.3.37-.54.37h-7.49V28.5h4l1.56-2.27c.1-.17.23-.44.5-.44a1,1,0,0,1,.64.37L201,28.43c.2.17.33.3.33.5S201,29.31,200.79,29.31ZM190.32,7.2c-1.11,0-1.28-.44-2-2.5A10.83,10.83,0,0,0,186.17.64l.21-.2c2.22.57,6,1.86,6,4.56A2.09,2.09,0,0,1,190.32,7.2Z"/><path class="cls-1" d="M237.44,30.42c-14.58.37-18.7-1.55-22-4.66a21.23,21.23,0,0,1-6.68,5.51l-.2-.24a20,20,0,0,0,5.23-7.1,18.68,18.68,0,0,1-3-7.33l.34-.17A17.45,17.45,0,0,0,214.53,22a26,26,0,0,0,1.75-8.45h-2c-.58,1.56-.81,2.16-2.13,2.16-.27,0-1.86,0-1.86-1.21a21.22,21.22,0,0,1,.81-2.27,89.25,89.25,0,0,0,3.14-8.62h-1.38a15,15,0,0,0-3.14.24l-.54-1.25c2.06.2,3.78.2,4.05.2h1l1-.94c.24-.24.41-.44.61-.44a1.28,1.28,0,0,1,.61.33l1.92,1.63c.17.13.44.37.44.61,0,.47-.4.7-1.42,1.11-.4,1.08-2.39,6.42-2.83,7.64H216l1.08-1.15c.17-.17.38-.44.54-.44s.44.2.68.44l2,1.76a1.23,1.23,0,0,1,.47.71c0,.37-.57.71-1.08,1a25.64,25.64,0,0,1-3,8.85c3.17,2.2,7.63,2.81,11.78,2.81a82.37,82.37,0,0,0,11.07-.78l.17.31A5.26,5.26,0,0,0,237.44,30.42ZM239.6,8.89h-4.32c0,.85.07,4.63,0,4.9-.31.85-1.62.85-1.86.85-.94,0-1.25-.48-1.25-1.29h-3v3.42h4l1.25-1.86c.17-.24.3-.44.5-.44s.51.27.64.37l2.1,1.86a.69.69,0,0,1,.33.51c0,.37-.3.37-.5.37h-8.27l0,3.72h4.65l1.45-2c.24-.3.38-.44.51-.44s.3.1.64.37l2.3,2a.7.7,0,0,1,.33.51c0,.33-.33.37-.5.37h-9.38a17.32,17.32,0,0,1-.17,3,1.94,1.94,0,0,1-1.79,1c-1.55,0-1.66-.68-1.66-1.39,0-.37.07-2.2.07-2.6h-1.85a20.09,20.09,0,0,0-3.65.2l-.67-1.22c1.58.14,3.2.21,4.82.21h1.39l.06-3.72h-1a19.24,19.24,0,0,0-3.64.23l-.54-1.25c1.75.17,3.54.21,5.19.21,0-1.12.07-3.18.07-3.42h-.64a19.06,19.06,0,0,0-3.65.24l-.54-1.25c2.3.2,4.59.2,4.83.2l0-3.65h-3.07a18.71,18.71,0,0,0-3.65.24l-.54-1.25a44.81,44.81,0,0,0,4.79.2h2.47V4.43H225a19.32,19.32,0,0,0-3.64.23l-.54-1.25c2.23.21,4.42.21,4.89.24a10.81,10.81,0,0,0-.5-3.58l4.28.91c.21,0,.68.17.68.54s-.1.44-.85.85c0,.4,0,.74,0,1.25H232l1-1.15c.14-.17.34-.41.47-.41s.37.21.54.31L236,3.75a1,1,0,0,1,.47.68c0,.4-.37.71-1.15,1.22,0,.3,0,2.06,0,2.43h.58L237,6.42c.17-.23.34-.44.54-.44a1.21,1.21,0,0,1,.61.38L239.77,8c.2.2.34.34.34.54S239.77,8.89,239.6,8.89Zm-7.46,0h-3v3.65h3Zm0-4.46h-2.93V8.08h2.93Z"/><path class="cls-1" d="M254.39,23.29a16.18,16.18,0,0,0-.14,1.72c0,.44.27,2.27.27,2.64,0,1-.37,1.62-1.41,1.62-3.35,0-3.65-7-3.65-9.23,0-3.71.37-5.94,1.49-12a11.4,11.4,0,0,0,.2-1.79,3.09,3.09,0,0,0-1.52-2.67,2.1,2.1,0,0,1,1.08-.27c2.12,0,4.28,1.75,4.28,3.41a3.15,3.15,0,0,1-.54,1.62A26.19,26.19,0,0,0,251.86,19c0,.37.06,3.17.64,3.17.2,0,.4-.5.5-.77.37-1,2.27-5.48,2.64-6.39l.3.1C255.91,15.21,254.42,23,254.39,23.29Zm20,4.5a2.73,2.73,0,0,1-1.42-.51c-.54-.34-2.67-2.16-3.14-2.47-.5,1.42-1.48,3.72-5.7,3.72-2.3,0-5.88-1-5.88-4,0-2.4,2.2-4.13,6.48-4.13a15.29,15.29,0,0,1,2.47.21c-.2-3.89-.31-5.62-.37-8.25a22.84,22.84,0,0,1-2.53.23c-2.64,0-4.93-1.08-5.71-3.11a13.29,13.29,0,0,0,4.39.78,21.66,21.66,0,0,0,3.78-.37c-.13-4.56-.13-4.6-.34-5.21-.27-.77-.87-.87-2.7-1.28A4.46,4.46,0,0,1,266.81,2c.94,0,3.51.78,3.51,2.34,0,.3-.31,1.69-.34,1.92a18.66,18.66,0,0,0-.37,2.94c2.56-.84,2.87-.91,3.44-.91s2.46.37,2.46,1.52c0,1.39-1.82,1.73-6,2.23a83.15,83.15,0,0,0,.5,9.37c4.93,1.82,5.81,3.17,5.81,4.49C275.82,27.41,274.91,27.79,274.37,27.79Zm-11.24-5.38c-.58,0-3.44,0-3.44,1.69,0,.58.57,1.79,3.1,1.79a5.49,5.49,0,0,0,3.07-.81,2.35,2.35,0,0,0,1-2A7.86,7.86,0,0,0,263.13,22.41Z"/><path class="cls-1" d="M291,30.25c-1.45,0-1.83-1-2.6-3a11.76,11.76,0,0,0-4.15-5.58l.17-.37c2.43.51,4.65,1,6.64,2.64a5.11,5.11,0,0,1,2.23,3.92A2.35,2.35,0,0,1,291,30.25Z"/><path class="cls-1" d="M9.82,82.33a10.75,10.75,0,0,1-3.24-.51,3.68,3.68,0,0,0-1.35-.34,7.43,7.43,0,0,0-3,.85L0,75.57l1-.37c.67,1.48,4,6,8.74,6a4.93,4.93,0,0,0,5.19-4.84c0-2.67-2.19-3.85-6.48-5.51-2.32-.87-7-2.67-7-7.67a6.7,6.7,0,0,1,7.05-6.86,16.35,16.35,0,0,1,3.41.51,5.07,5.07,0,0,0,.84.13,5,5,0,0,0,2.1-.61l2.06,6-.95.37a11,11,0,0,0-1.59-2.5,8.11,8.11,0,0,0-5.9-2.74c-2.74,0-4.56,1.66-4.56,4.16s2,3.82,6,5.38c4.83,1.82,7.77,3.58,7.77,7.67A7.62,7.62,0,0,1,9.82,82.33Z"/><path class="cls-1" d="M25.08,80.61h1c1.79,0,2.4-.78,2.4-2.34V60.46c0-1.62-.68-2.33-2.4-2.33h-1V57H34.9c7.83,0,12.55,5.58,12.55,12.44,0,6.39-3.91,12.24-12.65,12.24H25.08Zm9.79-22.48c-1.9,0-2.4.74-2.4,2.33V78.27c0,1.59.67,2.34,2.4,2.34a6.89,6.89,0,0,0,5.43-2c2.26-2.23,2.87-5.85,2.87-9.33,0-8.41-3.18-11.15-7.73-11.15Z"/><path class="cls-1" d="M75.77,72.26c-1.32,0-1.79.67-1.79,1.89V81a2.85,2.85,0,0,0-1.45-.34A3.58,3.58,0,0,0,71,81a12.48,12.48,0,0,1-5.3,1.32c-5.36,0-10.19-4.87-10.19-12.85s5-13.08,10.36-13.08a9.49,9.49,0,0,1,2.53.34,7.5,7.5,0,0,0,1.86.27,5.06,5.06,0,0,0,2.33-.61l2.26,6.43-1.18.47a11.31,11.31,0,0,0-2.4-3.55,7.72,7.72,0,0,0-4.93-2.27,5.62,5.62,0,0,0-4.65,2.84c-1.25,2-1.89,6.16-1.89,9.47,0,5.47,2,11.46,6.54,11.46a3.42,3.42,0,0,0,3.51-3.75V74.12a1.78,1.78,0,0,0-2-1.86H66.22V71.14H76.38v1.12Z"/><path class="cls-1" d="M90.42,82.33a8,8,0,0,1-2-.27c-.24-.07-1.72-.41-1.89-.41a4.77,4.77,0,0,0-2.06.68L82.76,77,84,76.48a7.26,7.26,0,0,0,1.48,2.33,7,7,0,0,0,4.73,2.07,2.46,2.46,0,0,0,2.7-2.27c0-1.15-.37-1.69-4.32-3.65-3.11-1.52-4.76-3-4.76-5.37a4.42,4.42,0,0,1,4.59-4.53,6.4,6.4,0,0,1,2,.37,4.17,4.17,0,0,0,1.48.27,3.35,3.35,0,0,0,2-.64l1.45,5.2-1,.34c-.47-1.08-1.92-4.36-5.57-4.36-1.45,0-2.33.64-2.33,2,0,1,.41,1.69,3.88,3.38,4,2,5.24,3.28,5.24,5.68A5,5,0,0,1,90.42,82.33Z"/><path class="cls-1" d="M118.47,73.47a31.94,31.94,0,0,0-.61,4.9c0,.41.24,2.24.24,2.61,0,.74-.21,1.62-1.32,1.62-2.06,0-4-3.25-4-10.21,0-1.59,0-3.82,1.45-10.71a16.33,16.33,0,0,0,.31-2.47A4.63,4.63,0,0,0,113,55.73a2.48,2.48,0,0,1,.82-.14c1.82,0,4.69,2.23,4.69,4.33a4.63,4.63,0,0,1-.71,2.13c-1.45,2.8-2.7,5.2-2.7,9.16,0,.57.13,3.72.81,3.72.3,0,.3-.07,1-1.69a63.67,63.67,0,0,1,2.84-5.85l.23.07C119.78,68.44,118.64,72.59,118.47,73.47Zm15.39,6.39C127,79.86,123,78.27,123,74.12a3.78,3.78,0,0,1,.68-2.44c.4,2.44,1.21,4.67,7.22,4.67A26.11,26.11,0,0,0,135,76c.37,0,.74-.07.88-.07,1.51,0,2.73,1.08,2.73,2.1C138.65,79.86,136,79.86,133.86,79.86Zm.87-18a13.74,13.74,0,0,0-6.65,2.67l-.2-.17a35.08,35.08,0,0,0,2.6-3.07c0-.44-.78-.44-1.08-.44a16.87,16.87,0,0,0-6.21,1.65c1.49-2.77,6-4.53,9.89-4.53,1.76,0,4.22.61,4.22,2.3C137.3,61.24,136.32,61.58,134.73,61.81Z"/><path class="cls-1" d="M175.27,74.45a18.74,18.74,0,0,1-10.73-9.29H161.3c-4.36,5.27-10.09,8.35-14.68,9.16l-.11-.24A29.21,29.21,0,0,0,157,65.16h-5.87a21.16,21.16,0,0,0-3.64.2L147,64.14c2.06.17,4.42.21,4.79.21h5.84a27.35,27.35,0,0,0,1.85-3.21,59.74,59.74,0,0,1-6.91,1.35c-.14.4-.38.81-.78.81-.24,0-.51-.34-.61-.54l-2.29-3.86a46,46,0,0,0,6.51.21,19.81,19.81,0,0,0,1.79-6l4.45,1.49c.24.07.51.2.51.48s-.51.5-1.08.64a40.05,40.05,0,0,1-4.29,3.34c3.82-.23,7-.44,10.8-1a15.68,15.68,0,0,0-2.76-2.4l.06-.27c4.43.27,8.58,2.34,8.58,4.77a2,2,0,0,1-2,2c-1.05,0-1.55-.81-2-1.56a11.43,11.43,0,0,0-1.31-1.89l-6.08,1.66,2,.91c.27.13.44.27.44.44,0,.37-.41.4-1.25.61a23.63,23.63,0,0,1-1.35,2h10.12l1.62-2.17c.21-.27.37-.44.54-.44a1.12,1.12,0,0,1,.61.38l2.46,2.16a.74.74,0,0,1,.34.51c0,.27-.23.37-.5.37H165.52c4.11,3.78,8.2,4.76,12.42,5.27v.27A5.37,5.37,0,0,0,175.27,74.45Zm-10.13-3.61a2.82,2.82,0,0,1-.6-.07A33.68,33.68,0,0,1,150,76.11l0-.27c5.37-1.93,10.67-6.12,12-8.38L165.52,70c.16.14.33.27.33.44S165.58,70.84,165.14,70.84ZM173.28,79c-.2,0-.54-.06-.71-.06-2.67,1.58-9.18,5.34-22.55,4.93v-.24A47.61,47.61,0,0,0,165.45,79a15.08,15.08,0,0,0,4.89-3.52L173.85,78c.17.13.37.3.37.47C174.22,78.85,173.79,79,173.28,79Zm-5-4.29c-4.29,2.81-11.07,4.83-17.82,4.9v-.24c7.35-1.89,13.29-5.27,15.39-7.8l3.3,2.4c.24.17.38.3.38.44C169.57,74.76,168.86,74.76,168.32,74.69Z"/><path class="cls-1" d="M215.16,56.84H202v4.94h2.29l.91-1.22c.14-.17.31-.37.51-.37s.37.17.57.34l2.13,1.69a.63.63,0,0,1,.27.47.68.68,0,0,1-.24.47c-.13.14-.61.54-.81.75-.07,3.34.07,8.68.07,12a2,2,0,0,1-2.06,2.2,1.22,1.22,0,0,1-1.25-1.39,5.22,5.22,0,0,1,.07-.78h-7.9c.1,1-.17,2.4-1.89,2.4-1.45,0-1.45-1-1.45-1.58,0-1.19.14-7,.14-8.39a63.07,63.07,0,0,0-.34-8.14l3.78,1.52H199V56.84H190a15.44,15.44,0,0,0-3.64.24l-.58-1.25c1.62.13,3.21.2,4.83.2h19.37l1.49-2.23c.1-.17.34-.44.54-.44s.44.24.61.37L215.33,56a.78.78,0,0,1,.34.51C215.67,56.81,215.37,56.84,215.16,56.84Zm-1.48,6.32c-.07,2.88,0,11.8.13,16,0,.44.11,2.43.11,2.84,0,.57-.07,2.09-2.33,2.09-1.08,0-1.42-.57-1.42-1.28V81.45h-18.8a5.49,5.49,0,0,1-.1,1.52c-.27,1-1.49,1.32-2.16,1.32a1.32,1.32,0,0,1-1.45-1.45,10,10,0,0,1,.07-1.32c.1-1.22.1-7.37.1-9,0-9.19-.1-10.48-.54-12l4.55,1.28a.55.55,0,0,1,.37.58c0,.33-.37.57-1,1,0,.78-.07,1.86-.07,3.52,0,2.13,0,3,.17,13.72h18.83c.07-9.06.1-16.06-.07-18.36a8.4,8.4,0,0,0-.37-2l4.32,1.09c.17,0,.54.17.54.5S214.32,62.52,213.68,63.16ZM199,62.59h-2.46V68.2H199ZM199,69h-2.46v6.15H199Zm5.5-6.42H202V68.2h2.49Zm0,6.42H202v6.15h2.49Z"/><path class="cls-1" d="M234.37,82.94c-6.82,0-7.26-4-7.26-9.47,0-2.23.37-12.06.37-14.09,0-1.52-.2-2-.47-2.33A4.52,4.52,0,0,0,224.18,56a5.36,5.36,0,0,1,3.37-1.35c1.93,0,4.46,1.62,4.46,3.08a24.23,24.23,0,0,1-.68,2.7c-.87,3.62-1.38,12-1.38,14.44,0,2.83,0,4.9,3.81,4.9,4.36,0,11.88-3.15,15.16-6.76l.2.2A15.81,15.81,0,0,1,234.37,82.94Z"/><path class="cls-1" d="M259.82,61.34c2.19,0,16.71-3.89,17-4a16.31,16.31,0,0,1,3.48-.91c1.69,0,3.61,1,3.61,2.4s-1.18,1.48-3.14,1.48c-4.89,0-6.41.71-7.46,1.32a11.53,11.53,0,0,0-5.56,9.43c0,3.45,2.32,6.22,7.52,6.8,2,.2,4.39.47,4.39,2.8,0,1.66-1.45,1.66-2.09,1.66s-12-.64-12-10c0-5.74,4.38-9.76,7.52-11.89-3.31.33-9.14,2.9-11.1,4.12-1.25.74-1.59,1-2.33,1a4,4,0,0,1-3.44-4.09,3.88,3.88,0,0,1,.77-2.44C257.93,61.07,258.81,61.34,259.82,61.34Z"/><path class="cls-1" d="M302.35,75.26a3.93,3.93,0,0,0-.21.95c0,.37.48,2,.48,2.27A1.51,1.51,0,0,1,301,80c-1.66,0-6.42-2.3-6.79-11.8,0-.77-.1-4.19-.17-4.9a9.89,9.89,0,0,0-1.52-4.76c2.4.2,5.47,1.65,5.47,4.39a5.47,5.47,0,0,1-.17,1.05,25.53,25.53,0,0,0-.84,5.61c0,3.18,1.52,5.34,2.16,5.34.44,0,1.28-1.08,1.76-1.72,1.14-1.52,3.67-5.14,4.32-6.16l.23.11C305.18,67.83,302.38,75.13,302.35,75.26Zm15.69-.7c-.57,0-.74-.17-2.13-1.7-.87-1-3.61-1.45-4.35-1.58V71c.27,0,3.41-.37,3.78-.51a.87.87,0,0,0,.54-.91A11.92,11.92,0,0,0,314.26,65a15.55,15.55,0,0,0-3.68-4C315,60.9,320,66.17,320,71,320,73,319,74.56,318,74.56Z"/><path class="cls-1" d="M350,60.7a47.86,47.86,0,0,1-7.76,1.92c-.11,1.69-.11,2.23-.11,4,.68-.21,3.92-1.36,4.29-1.36,1,0,2.46.48,2.46,1.59a1.1,1.1,0,0,1-.84,1,45.88,45.88,0,0,1-5.87,1.38A27.62,27.62,0,0,0,343,75.6c5.2.88,7.59,3.11,7.59,4.77A1.62,1.62,0,0,1,349,82.13a3.66,3.66,0,0,1-1.89-.88,25.81,25.81,0,0,0-3.89-2.47c-.2,1.49-.6,4.46-6.31,4.46-3.34,0-6-1.76-6-4,0-3.11,4-4.3,9.07-4-.23-2.19-.37-4.42-.37-5.47a37.86,37.86,0,0,1-4.38.27c-.82,0-3.95,0-3.95-1.73A3.36,3.36,0,0,1,334,65.7a2.11,2.11,0,0,0-.54,1.11c0,.75,1,.75,2,.75a26,26,0,0,0,4.12-.34c0-2.16,0-2.43,0-4.19a34.56,34.56,0,0,1-4.66.44c-1.65,0-4.86,0-6.28-3.62A11.33,11.33,0,0,0,334,61.07a31.79,31.79,0,0,0,5.67-.58c.06-3.14.06-3.55-.54-4.15a4.55,4.55,0,0,0-2.64-1A3.07,3.07,0,0,1,339.2,54c.78,0,4.43.37,4.43,2.4,0,.37-.11.5-.55,1.75a8.68,8.68,0,0,0-.43,1.66A30.65,30.65,0,0,0,347,58.36a2.39,2.39,0,0,1,1-.3c1.14,0,2.63.74,2.63,1.76A.9.9,0,0,1,350,60.7Zm-13.7,16.53c-.85,0-4,.16-4,1.92,0,.85,1.12,1.62,3.31,1.62,4.15,0,4.35-2,4.35-3.07A10.83,10.83,0,0,0,336.34,77.23Z"/><path class="cls-1" d="M388.68,63c-.57,0-3-.51-3.54-.57a37.79,37.79,0,0,0-4.35-.24c-1.66,0-2.67.07-3.38.13a36.52,36.52,0,0,0-.07,4.91A12.57,12.57,0,0,1,378.93,73c0,5.47-4.22,10.27-10.7,12l-.13-.24c3.71-2.09,6.88-7,7.25-10.44-.6.78-1.58,2-3,2-2.12,0-3.91-2.37-3.91-5.21s1.72-5.88,4.45-5.88a8,8,0,0,1,2.33.47c0-.17,0-2.13-.06-3.17a31.16,31.16,0,0,0-10.7,3.21,2.63,2.63,0,0,1-1.22.4c-1.25,0-3.37-1.82-3.37-4.26a2,2,0,0,1,.5-1.48c.85,1.31,1.42,2,2.87,2,.74,0,.88,0,6.75-.92.68-.1,4.26-.6,5.06-.74-.2-4.94-.47-5.64-3.57-6.08a3.08,3.08,0,0,1,2.77-1.29c1.65,0,4.21,1.25,4.21,2.37,0,.17-.23,1-.3,1.35a27.68,27.68,0,0,0-.54,3.35c2.09-.24,6-.68,7.69-1.09a6,6,0,0,1,1.08-.13c.82,0,3.65.84,3.65,2.37A1.36,1.36,0,0,1,388.68,63Zm-16,4.19c-1.42,0-2.4,1.59-2.4,3.35s1.08,3.21,2.2,3.21S375,72.05,375,70.13C375,68.4,374.07,67.15,372.72,67.15Z"/></svg>