<svg id="レイヤー_1" data-name="レイヤー 1" xmlns="http://www.w3.org/2000/svg" viewBox="0 0 136 325"><defs><style>.cls-1{fill:#738da0;}.cls-2{fill:#fff;}</style></defs><rect class="cls-1" width="136" height="136"/><rect class="cls-1" y="189" width="136" height="136"/><path class="cls-2" d="M56.69,51.66a28.22,28.22,0,0,0-2.49,4,29.12,29.12,0,0,1-7.51-7.51,19.14,19.14,0,0,1-7.36,8.61,18.25,18.25,0,0,0-2.56-3.91v6.79A31.88,31.88,0,0,0,37,64.18H31a35.31,35.31,0,0,0,.25-4.7V38.78a35.58,35.58,0,0,0-.14-3.67c1.45.11,2.45.15,4.69.15h8V34.08a20.09,20.09,0,0,0-.21-3.38h6A24.26,24.26,0,0,0,49.47,34c0,.39,0,.53,0,1.25h8.36a45.07,45.07,0,0,0,4.56-.15,25.5,25.5,0,0,0-.18,3.74V59.59c0,2.17-.82,3.41-2.56,3.91a17.38,17.38,0,0,1-4.81.43c-.81,0-.81,0-2.88,0a15.94,15.94,0,0,0-1.63-5.47c1.88.17,3.62.31,4.55.31,1.6,0,1.85-.14,1.85-1Zm-19.92-.29c3.84-2.6,5.69-5.66,6.61-11.06H36.77ZM48.93,40.31a15.64,15.64,0,0,1-.28,1.88,22.49,22.49,0,0,0,8,8V40.31Z" transform="translate(-0.02)"/><path class="cls-2" d="M91,55.71a19.39,19.39,0,0,0,4.3,4.95,29.38,29.38,0,0,0-3.91,3.52,33.36,33.36,0,0,1-4.41-6,21.5,21.5,0,0,1-4.41,6.19,23.07,23.07,0,0,0-3-3.06,25.4,25.4,0,0,0,.18,2.92H74.37a45.24,45.24,0,0,0,.21-4.7v-8.5c0-1.42,0-2.24.07-3.31a10.42,10.42,0,0,1-1.53,2.31,24.87,24.87,0,0,0-2.06-6.26,25.55,25.55,0,0,0,4.2-7.72,27.15,27.15,0,0,0,1.35-5.55L81,32.3l0-.64a18,18,0,0,0,2.28.11h7.43c.93,0,1.25,0,2.14-.07-.07.82-.11,1.49-.11,2.84V53c0,1.32,0,2,.11,2.81h-.25a8.35,8.35,0,0,0-1.32-.07Zm-8.26,0a14.13,14.13,0,0,0-1.74.11c0-.46,0-1.43.07-2.92V34.79a34.3,34.3,0,0,1-1.53,4.59V60a11.3,11.3,0,0,0,3.38-4.31ZM87,57.63l3.13-1.92h-6.4ZM85.54,38.39h2.63V36.32H85.54Zm0,6.29h2.63v-2.1H85.54Zm0,6.48h2.63V48.88H85.54Zm8.22,4.12a17.55,17.55,0,0,0,.14-2.52V35.9c0-1,0-1.57-.11-2.53h4.7a15.79,15.79,0,0,0-.14,2.53V52.72a24.33,24.33,0,0,0,.1,2.56Zm10.92-24a33.79,33.79,0,0,0-.18,3.91V59.09c0,3.77-1.25,4.7-6.23,4.7l-2,0a17.5,17.5,0,0,0-1.07-5.09,20.15,20.15,0,0,0,2.89.22c1.24,0,1.49-.15,1.49-1V35.11a32.13,32.13,0,0,0-.18-3.8Z" transform="translate(-0.02)"/><path class="cls-2" d="M17.64,88.41a10.81,10.81,0,0,0,.09,1.68H16.62a11.26,11.26,0,0,0,.09-1.68V78.74c0-.73,0-1.17-.06-1.65a12.74,12.74,0,0,0,1.57.06h2.14a12.12,12.12,0,0,0,1.53-.06c0,.42-.05.87-.05,1.42v1.86c0,.6,0,1,.05,1.39-.4,0-.91,0-1.51,0H17.64Zm0-9.33H21V77.89H17.64Zm0,1.92H21V79.79H17.64Zm7.86,5.67c0,.57,0,1,0,1.37C25.12,88,24.63,88,24,88H20.74V89h-.93a9.27,9.27,0,0,0,.07-1.41V84.31c0-.54,0-1,0-1.41a12.28,12.28,0,0,0,1.48.06h2.74a12.09,12.09,0,0,0,1.48-.06c0,.42,0,.81,0,1.41ZM20.74,85h3.9V83.71h-3.9Zm0,2.2h3.9V85.79h-3.9Zm8,1.4c0,1-.31,1.24-1.52,1.24-.32,0-1.13,0-1.5-.06a3.52,3.52,0,0,0-.27-1,16.18,16.18,0,0,0,1.64.15c.62,0,.74-.07.74-.43V81.72H24.78c-.63,0-1.11,0-1.51,0,0-.39,0-.84,0-1.39V78.51c0-.52,0-1,0-1.42a11.85,11.85,0,0,0,1.52.06h2.47a12.93,12.93,0,0,0,1.58-.06,14.25,14.25,0,0,0-.08,1.65Zm-4.59-9.56h3.68V77.89H24.17Zm0,1.92h3.68V79.79H24.17Z" transform="translate(-0.02)"/><path class="cls-2" d="M32.15,78a6.51,6.51,0,0,0-1.09.08v-1a10.08,10.08,0,0,0,1.17.07H37a7.24,7.24,0,0,0,1.13-.06V78c-.6,0-.66,0-1.08,0V88.64a10.14,10.14,0,0,0,.09,1.54H36a11.72,11.72,0,0,0,.09-1.56V86.87c-.94.28-2.11.58-4.13,1a5.83,5.83,0,0,0-.73.19L30.91,87a7.61,7.61,0,0,0,1.36-.17V78Zm1.06,2.22h2.86V78H33.21Zm0,3h2.86V81H33.21Zm0,3.42c1.16-.22,1.74-.36,2.86-.67V84H33.21Zm9.87-8.5a10.42,10.42,0,0,0,1.13-.06c0,.15-.09.55-.14.85a18.3,18.3,0,0,1-2.38,6.85,9.65,9.65,0,0,0,3.25,3,3,3,0,0,0-.58,1,11.18,11.18,0,0,1-3.24-3.13,12,12,0,0,1-3.28,3.15,2.83,2.83,0,0,0-.6-.9,10,10,0,0,0,3.36-3.08,16.45,16.45,0,0,1-2-6.77,5.88,5.88,0,0,0-.88.07v-1a8.87,8.87,0,0,0,1.26.07ZM39.49,79a18.94,18.94,0,0,0,.57,3.13,13.43,13.43,0,0,0,1.09,2.77,16.2,16.2,0,0,0,2-5.9Z" transform="translate(-0.02)"/><path class="cls-2" d="M50.36,77A8.9,8.9,0,0,0,50,78.56c-.24,1.51-.45,3.14-.49,3.91h0a3.27,3.27,0,0,0,.11-.43,6.68,6.68,0,0,1,.91-2.23,3.57,3.57,0,0,1,3-1.93A2.8,2.8,0,0,1,56,79.22a7,7,0,0,1-2.56,9.52,11,11,0,0,1-2.66.88,3,3,0,0,0-.6-1,7.84,7.84,0,0,0,3-1c1.75-1,2.57-2.57,2.57-5s-.83-3.8-2.27-3.8c-1.14,0-2.1.85-2.95,2.6a7.77,7.77,0,0,0-.81,3.34,3.47,3.47,0,0,0,0,.36l-1.08,0v-.17l0-.27,0-1.55V82.9a38.41,38.41,0,0,1,.51-5.52,3.13,3.13,0,0,0,.05-.48Z" transform="translate(-0.02)"/><path class="cls-2" d="M65.63,79a6.62,6.62,0,0,0,.72-2l1.19.21a3.37,3.37,0,0,0-.39.81c-.19.47-.39.88-.46,1H67a21,21,0,0,0,4.72-.57l.09,1a4.62,4.62,0,0,0-.6.07,48.11,48.11,0,0,1-4.94.39A10.82,10.82,0,0,1,64.92,82c-.15.18-.45.52-.51.57a1.07,1.07,0,0,0-.19.15h0v0l0,0c.54-.42.54-.42.69-.52a4,4,0,0,1,2.26-.74,1.82,1.82,0,0,1,2,1.67c1.09-.44,2-.75,2.61-1a3.21,3.21,0,0,0,1-.44l.48,1a26.15,26.15,0,0,0-4,1.32c0,.39,0,.54,0,.91,0,.2,0,.53,0,.83s0,.53,0,.67a3.26,3.26,0,0,0,0,.54h-1c0-.33.09-1.24.09-2.15a3,3,0,0,0,0-.45c-2,1-2.81,1.66-2.81,2.56s.93,1.42,3,1.42a12.62,12.62,0,0,0,4-.58L72.71,89c-.22,0-.3,0-.6.08a23.8,23.8,0,0,1-3.64.29c-2.68,0-4-.76-4-2.3A3.12,3.12,0,0,1,66,84.71a11.48,11.48,0,0,1,2.23-1.19c-.12-.83-.48-1.19-1.19-1.19a5.68,5.68,0,0,0-3.34,1.59,5,5,0,0,0-1.15,1.24l-.84-.84A14.71,14.71,0,0,0,65.09,80l.13-.22-.28,0-2.2,0H62.5a1.94,1.94,0,0,0-.33,0v-1a20.15,20.15,0,0,0,3.21.17Z" transform="translate(-0.02)"/><path class="cls-2" d="M81.16,78.5A8.29,8.29,0,0,0,82,76.4l1.08.2a16.18,16.18,0,0,1-.86,1.9H85.8a14.53,14.53,0,0,0,1.81-.08,14.73,14.73,0,0,0-.07,1.86v8A9.1,9.1,0,0,0,87.63,90h-1V89.1H78.67V90h-1a12.08,12.08,0,0,0,.09-1.75v-8a15.5,15.5,0,0,0-.07-1.86,13.75,13.75,0,0,0,1.76.08Zm-2.49,3.17h7.92V79.38H78.67Zm0,3.24h7.92V82.54H78.67Zm0,3.31h7.92V85.78H78.67Z" transform="translate(-0.02)"/><path class="cls-2" d="M102.11,79.52a11.12,11.12,0,0,0,1.5-.08,9.5,9.5,0,0,0-.07,1.35v7.89a11.75,11.75,0,0,0,.08,1.47h-1.06v-.86H92.67v.86h-1a12,12,0,0,0,.09-1.47V80.76a10.89,10.89,0,0,0-.08-1.32,10.48,10.48,0,0,0,1.47.08H97V78a9.09,9.09,0,0,0-.11-1.51h1.19A8.93,8.93,0,0,0,98,78v1.5Zm-9.44.9v3.42H97V80.42Zm0,4.28v3.73H97V84.7Zm9.89-.86V80.42H98v3.42Zm0,4.59V84.7H98v3.73Z" transform="translate(-0.02)"/><path class="cls-2" d="M109.21,77.53a21,21,0,0,0-.62,2.39,21.77,21.77,0,0,0-.45,4.69c0,1.17,0,2,.09,2.84a14.06,14.06,0,0,1,1-2.92l.72.35A13.12,13.12,0,0,0,108.71,89v.22l-1.08.09c0-.24,0-.31-.09-.6a21,21,0,0,1-.39-4.24,25,25,0,0,1,.67-5.93,8.29,8.29,0,0,0,.21-1.19Zm3.82,6a3.5,3.5,0,0,0-1.12,2.21c0,1.1.94,1.64,2.87,1.64a9.86,9.86,0,0,0,3.45-.52l.15,1.15c-.2,0-.23,0-.53.08a15.35,15.35,0,0,1-3.07.3c-1.7,0-2.78-.36-3.42-1.14a2.14,2.14,0,0,1-.45-1.38,4.11,4.11,0,0,1,1.3-2.78Zm-1.9-4.43a9.94,9.94,0,0,0,2.55.23,16,16,0,0,0,4-.41l.07,1.07-1,.13a25.11,25.11,0,0,1-3.22.2,20.83,20.83,0,0,1-2.39-.15Z" transform="translate(-0.02)"/><path class="cls-2" d="M34.14,105.77l-.46.48a13.25,13.25,0,0,1-2.47,2.07,15.72,15.72,0,0,0,5.89,1.42,3.67,3.67,0,0,0-.53,1,17.86,17.86,0,0,1-6.22-1.9,15.49,15.49,0,0,1-3.29,1.24,23.91,23.91,0,0,1-3.18.58,2.39,2.39,0,0,0-.51-.92,15.56,15.56,0,0,0,6.1-1.44,10.87,10.87,0,0,1-2.14-1.84A13.34,13.34,0,0,1,24.75,108a4.31,4.31,0,0,0-.57-.72,10.15,10.15,0,0,0,3.4-2.1,5.71,5.71,0,0,0,1.23-1.48l.88.39-.22.25c-.26.3-.54.63-.8.9h3.46a11,11,0,0,0,1.4-.07Zm-6.86-5.3a8.37,8.37,0,0,1-1.29,2,9,9,0,0,1-1.46,1.38,3.8,3.8,0,0,0-.78-.65A6.68,6.68,0,0,0,25.23,102a6,6,0,0,0,1.2-1.87Zm-1.87-.94a11.16,11.16,0,0,0-1.6.07v-1a10.71,10.71,0,0,0,1.65.09h4.25v-.43a5.13,5.13,0,0,0-.09-1.05h1.17a5.2,5.2,0,0,0-.09,1.05v.43H35a11.54,11.54,0,0,0,1.68-.09v1c-.48,0-1-.07-1.67-.07H32.36v3.41c0,.74-.26,1-1.07,1-.35,0-.85,0-1.25,0a2.29,2.29,0,0,0-.27-.89,7.6,7.6,0,0,0,1.27.11c.33,0,.4-.06.4-.35v-3.2H29.6c-.07,2.57-.69,3.7-2.68,4.88a2.89,2.89,0,0,0-.78-.66,3.85,3.85,0,0,0,2.1-1.83,5.2,5.2,0,0,0,.45-2.39ZM28,106a10.54,10.54,0,0,0,2.29,1.84A9.54,9.54,0,0,0,32.64,106Zm5.72-5.79a24.12,24.12,0,0,1,2.8,3l-.84.64a15.61,15.61,0,0,0-2.65-3.13Z" transform="translate(-0.02)"/><path class="cls-2" d="M40.18,98.65a12.66,12.66,0,0,0-1.57.09v-1a11.36,11.36,0,0,0,1.57.09H50.29a11.88,11.88,0,0,0,1.57-.09v1a12.43,12.43,0,0,0-1.57-.09H45.78v1.46h3a12.56,12.56,0,0,0,1.77-.07,15.33,15.33,0,0,0-.06,1.64v2.57a14.26,14.26,0,0,0,.06,1.58,13.28,13.28,0,0,0-1.73-.07H45.44a5.67,5.67,0,0,1-1,2.27,12.92,12.92,0,0,0,6.78,1.59h.88a3.51,3.51,0,0,0-.4,1.06,14.36,14.36,0,0,1-7.86-2A9.23,9.23,0,0,1,39,111a2.76,2.76,0,0,0-.45-.91,9.55,9.55,0,0,0,2.46-.63,6.62,6.62,0,0,0,2.1-1.23A9.84,9.84,0,0,1,41.77,107l-.33-.32.87-.51a6.17,6.17,0,0,0,1.37,1.42,4.51,4.51,0,0,0,.8-1.78H41.74a12.85,12.85,0,0,0-1.72.07c0-.52.06-1,.06-1.6v-2.55c0-.71,0-1.16-.06-1.64a12.15,12.15,0,0,0,1.73.07h3.09V98.65Zm.81,2.26v1.57h3.8c0-.69,0-1,0-1.57Zm0,2.35V105h3.64c.06-.57.09-.92.13-1.7Zm4.71,0c0,.72-.06,1-.13,1.7h4v-1.7Zm0-.78h3.84v-1.57h-3.8Z" transform="translate(-0.02)"/><path class="cls-2" d="M54.05,99.71h.54l.85,0c.84-.06.93-.08,2.77-.18l2.35-.15,2.53-.14.86,0A9.94,9.94,0,0,0,65.73,99l.09,1.11a6.29,6.29,0,0,0-1.68.21,7.32,7.32,0,0,0-2.87,1.49,4.6,4.6,0,0,0-1.85,3.46,2.94,2.94,0,0,0,2.1,2.77,7.66,7.66,0,0,0,2.25.48h.15l-.2,1.22c-.16,0-.19-.05-.46-.09A7.56,7.56,0,0,1,60,108.51a3.63,3.63,0,0,1-1.66-3.05,5.7,5.7,0,0,1,2.8-4.6,10.54,10.54,0,0,1,1.42-.79,31.81,31.81,0,0,1-3.29.33c-3,.21-4.63.36-5.17.49Zm10,2.23a11.68,11.68,0,0,1,1.54,2.32l-.77.45a10.16,10.16,0,0,0-1.52-2.38Zm1.69-.82a12.06,12.06,0,0,1,1.54,2.33l-.75.42A12.15,12.15,0,0,0,65,101.52Z" transform="translate(-0.02)"/><path class="cls-2" d="M70,99.93c.36,0,.61,0,1.12,0a29.56,29.56,0,0,0,3.55-.21,22.32,22.32,0,0,0-.9-2l1.12-.2a12.39,12.39,0,0,0,.8,2.11,19.13,19.13,0,0,0,4-1l.09,1c-1.33.36-2.93.7-3.77.84.23.49.63,1.28.85,1.69a15.38,15.38,0,0,0,3.43-.93l.12,1c-.25.06-.31.06-.81.2-1,.27-1.79.43-2.35.54a17.79,17.79,0,0,0,2.21,3l-.89.63a4,4,0,0,0-1.65-.57,14.08,14.08,0,0,0-2-.14c-2.15,0-3.55.68-3.55,1.71s1.14,1.53,3.19,1.53a10,10,0,0,0,4.43-1l.21,1.17c-.21,0-.21,0-.89.26a13.21,13.21,0,0,1-3.84.55,6.08,6.08,0,0,1-3.08-.63,2.09,2.09,0,0,1-1.12-1.86C70.26,106,72,105,74.82,105a8.87,8.87,0,0,1,3,.44,13.74,13.74,0,0,1-1.61-2.31,30.91,30.91,0,0,1-5.25.44c-.72,0-.78,0-1,.06l0-1a12,12,0,0,0,1.2,0,30.45,30.45,0,0,0,4.72-.37c-.39-.74-.48-.9-.86-1.71a30.84,30.84,0,0,1-4,.27,9,9,0,0,0-.93,0Z" transform="translate(-0.02)"/><path class="cls-2" d="M95.16,109.47a12.08,12.08,0,0,0-3-2.14c-.26-.14-.6-.28-1-.45a4.23,4.23,0,0,1,0,.54,2.6,2.6,0,0,1-.37,1.63,3,3,0,0,1-2.53.94,4,4,0,0,1-2.32-.59,2,2,0,0,1-.81-1.58c0-1,.78-1.76,2.1-2.06a6.2,6.2,0,0,1,1.55-.15,6.28,6.28,0,0,1,1.35.12.67.67,0,0,1,0-.18,1.09,1.09,0,0,1,0-.17c0-.13,0-.45,0-.88,0-.19,0-.48,0-.87-.54,0-1.29,0-1.77,0-.89,0-1.6,0-2.53-.1a2.77,2.77,0,0,0-.37,0h-.12v-1a18.42,18.42,0,0,0,3.43.24H90l0-2H89c-1.1,0-2.31,0-3.65-.15h-.48v-1a18.52,18.52,0,0,0,3.83.3H90a11.94,11.94,0,0,0-.08-2.16H91a18.34,18.34,0,0,0-.1,2.11,20.72,20.72,0,0,0,4.43-.61l.08,1a7.89,7.89,0,0,0-1,.12,32.05,32.05,0,0,1-3.47.36c0,1.22,0,1.22,0,2a17.75,17.75,0,0,0,4.15-.62l.06,1c-.2,0-.35,0-.87.1-1,.17-2.22.29-3.33.36,0,.84,0,.84.09,2.29a13,13,0,0,1,4.18,2.19,5.6,5.6,0,0,0,.51.34Zm-5.06-2.83a5.71,5.71,0,0,0-1.53-.16c-1.48,0-2.45.54-2.45,1.33s.75,1.24,2,1.24a2.18,2.18,0,0,0,1.65-.49,2,2,0,0,0,.3-1.35Z" transform="translate(-0.02)"/><path class="cls-2" d="M105.89,98.47a5.57,5.57,0,0,0-.06-.87H107a12.6,12.6,0,0,0-.07,1.87v.16c2.83,0,4,0,4.47-.1v1.06a27.17,27.17,0,0,0-2.86-.07l-1.6,0v3a4.22,4.22,0,0,1,.36,1.77,4.83,4.83,0,0,1-2,3.91,9.46,9.46,0,0,1-2.36,1.21,3.32,3.32,0,0,0-.66-.94,7.79,7.79,0,0,0,2.43-1.13,3.87,3.87,0,0,0,1.67-3.16,2,2,0,0,1-.4.74,2.35,2.35,0,0,1-1.89.81,2.32,2.32,0,0,1-2.45-2.37,2.49,2.49,0,0,1,2.65-2.47,2.3,2.3,0,0,1,1.73.67c0-.21,0-.27,0-.82,0-.06,0-.21,0-.39v-.78c-3,.06-6,.21-7,.38l-.05-1.1c.27,0,.37,0,.6,0,.43,0,.43,0,2.84-.09,1.44-.06,2.61-.09,3.63-.12Zm-.65,4.5a1.92,1.92,0,0,0-1-.24,1.59,1.59,0,0,0-1.66,1.58,1.45,1.45,0,0,0,1.54,1.48,1.68,1.68,0,0,0,1.75-1.77A1.08,1.08,0,0,0,105.24,103Z" transform="translate(-0.02)"/><path class="cls-2" d="M46.31,263.89a5.42,5.42,0,0,0-.09-1h1.13a5.16,5.16,0,0,0-.09,1v.3h4.68a10.58,10.58,0,0,0,1.48-.09v1a11,11,0,0,0-1.48-.08H41.86a11,11,0,0,0-1.48.08v-1a10.44,10.44,0,0,0,1.51.09h4.42Zm-5.44,7.37a11.47,11.47,0,0,0-.06-1.35,12.68,12.68,0,0,0,1.48.06h9.29a10.65,10.65,0,0,0,1.45-.06,11.15,11.15,0,0,0-.06,1.32v4c0,.51-.09.76-.35.93s-.49.21-1.28.21c-.35,0-.44,0-1.4,0a3.08,3.08,0,0,0-.19-.93,11.54,11.54,0,0,0,1.69.14c.54,0,.62-.05.62-.35v-4.38H41.8v4.31a8.8,8.8,0,0,0,.09,1.53H40.78a10.89,10.89,0,0,0,.09-1.52Zm2-4.21c0-.48,0-.82,0-1.13a13.11,13.11,0,0,0,1.42.06h5.55a11.32,11.32,0,0,0,1.28-.06c0,.43,0,.64,0,1.15v.81a6.64,6.64,0,0,0,0,1.16,13.32,13.32,0,0,0-1.38-.05H44.16c-.56,0-.86,0-1.34.05a11.09,11.09,0,0,0,0-1.16Zm.92,1.17h6.33v-1.47H43.78Zm6.1,5.47a8.84,8.84,0,0,0,0,1.06c-.39,0-.85-.05-1.38-.05h-3.8v.83h-1a9.79,9.79,0,0,0,.07-1.24v-1.5c0-.48,0-.78,0-1.1a9.79,9.79,0,0,0,1.21.05h3.59a12.31,12.31,0,0,0,1.32-.05,8.69,8.69,0,0,0,0,1Zm-5.15.27H49v-1.47H44.73Z" transform="translate(-0.02)"/><path class="cls-2" d="M56.55,264.39a8,8,0,0,0-1.37.07v-1a9,9,0,0,0,1.39.09h4.85a9.26,9.26,0,0,0,1.41-.09v1c-.44,0-.86-.07-1.4-.07H59.52a12.23,12.23,0,0,1-.8,2h2.19a14.35,14.35,0,0,0,1.5-.07,12.16,12.16,0,0,0-.06,1.5v7.33c0,.84-.3,1.07-1.39,1.07-.24,0-.45,0-.87,0a2.84,2.84,0,0,0-.21-.88,10.56,10.56,0,0,0,1.18.06c.39,0,.43,0,.43-.35v-7.84H60.36v6.39a11.4,11.4,0,0,0,.06,1.51h-1a12.25,12.25,0,0,0,.08-1.51v-6.39h-1.1v6.71a9.13,9.13,0,0,0,.08,1.51h-1a10.63,10.63,0,0,0,.08-1.51v-6.71H56.58v7.53a10.93,10.93,0,0,0,.08,1.66h-1a11.33,11.33,0,0,0,.1-1.66v-6.9c0-.45,0-1-.06-1.49a12.27,12.27,0,0,0,1.57.06h.55a9,9,0,0,0,.8-2Zm7.53,2.71a8.1,8.1,0,0,0-1.3.09v-1.05a8.33,8.33,0,0,0,1.33.09h2.33v-1.6a12.29,12.29,0,0,0-.09-1.63h1.12a12.33,12.33,0,0,0-.09,1.63v1.6h.21a9.59,9.59,0,0,0,1.38-.09v1.05a8.7,8.7,0,0,0-1.37-.09h-.22v8c0,1-.29,1.17-1.74,1.17-.3,0-.39,0-1,0l-.47,0a3.76,3.76,0,0,0-.29-1,17,17,0,0,0,2,.16c.44,0,.59-.1.59-.42V267.1Zm.53,5.36a13.36,13.36,0,0,0-1.48-3.61l.79-.37A17.22,17.22,0,0,1,65.46,272Z" transform="translate(-0.02)"/><path class="cls-2" d="M75,266.14a14,14,0,0,1-3.57,4.31,3,3,0,0,0-.78-.73,11.41,11.41,0,0,0,2.53-2.52,11.81,11.81,0,0,0,2.06-4.29l1.13.25c-.1.2-.15.29-.33.72s-.37.88-.61,1.39h3a7.65,7.65,0,0,0,1.25-.06l.54.56a10.88,10.88,0,0,0-.5,1.15,22.94,22.94,0,0,1-1.62,3.13,11,11,0,0,0,3.79,4.33,9.74,9.74,0,0,0,1.87,1,4,4,0,0,0-.7,1,12.75,12.75,0,0,1-5.54-5.53A17.59,17.59,0,0,1,75.74,273a18.81,18.81,0,0,1-2.53,2.1,18,18,0,0,1-2.34,1.35,2.89,2.89,0,0,0-.68-.89,17.11,17.11,0,0,0,3.92-2.44,16,16,0,0,0,3-3.37,17.86,17.86,0,0,0,1.78-3.59Z" transform="translate(-0.02)"/><path class="cls-2" d="M90.49,263.45a4.9,4.9,0,0,0-.24.95c-.1.51-.19.87-.4,1.64a12.1,12.1,0,0,0,2.68-.5l0,1-.52.09a17.11,17.11,0,0,1-2.45.32,28.53,28.53,0,0,1-1.67,4.37c-.36.72-.49,1-1.06,2-.14.21-.23.39-.3.51l-1-.6A13.18,13.18,0,0,0,87,270.89,22.87,22.87,0,0,0,88.55,267l-1.11,0h-1a2.57,2.57,0,0,0-.33,0h-.19v-1a9.45,9.45,0,0,0,1.78.12H88.8a15.51,15.51,0,0,0,.51-2.82Zm7.11,11.61A8.57,8.57,0,0,0,95,273a2.34,2.34,0,0,1,0,.48c0,1.54-1,2.39-2.85,2.39s-2.92-.84-2.92-2.17a2.11,2.11,0,0,1,1.39-1.9,4.5,4.5,0,0,1,1.77-.33,4.78,4.78,0,0,1,1.51.23c-.07-1-.1-1.68-.1-2.06a6.06,6.06,0,0,1,.15-1.45l1,.11a4.52,4.52,0,0,0-.19,1.39A17.63,17.63,0,0,0,95,272a11,11,0,0,1,2.93,1.82,1.58,1.58,0,0,0,.27.24Zm-5.27-2.68c-1.27,0-2.08.53-2.08,1.35S91,275,92.15,275s1.88-.51,1.88-1.63c0-.18,0-.65,0-.65A4.58,4.58,0,0,0,92.33,272.38Zm5.26-4.07a15.79,15.79,0,0,0-4-2l.56-.84a20.73,20.73,0,0,1,3.95,2Z" transform="translate(-0.02)"/><path class="cls-2" d="M35.61,287.33a7.32,7.32,0,0,0,1.54,2.74,4,4,0,0,0-.56.74,8.77,8.77,0,0,1-1.11-2.19c0,.71.07,1.62.07,2.32v4.52a10.79,10.79,0,0,0,.09,1.74h-1a15,15,0,0,0,.08-1.74v-4.19c0-.72,0-1.56.09-2.33a16.91,16.91,0,0,1-.92,2.72,12.28,12.28,0,0,1-.87,1.6,2.85,2.85,0,0,0-.65-.74,13.55,13.55,0,0,0,2.2-5.19H33.8a6.75,6.75,0,0,0-1,.06v-.94a5.59,5.59,0,0,0,1,.06h.87v-1.42a10,10,0,0,0-.07-1.54h1a9.64,9.64,0,0,0-.08,1.54v1.42h.53a5.38,5.38,0,0,0,1-.06v.94a6.8,6.8,0,0,0-1-.06Zm2.55,1.82a9.77,9.77,0,0,0-1.45.07v-.9a8.66,8.66,0,0,0,1.42.08h1v-1.07h-.37a10.7,10.7,0,0,0-1.26.06v-.83a10.58,10.58,0,0,0,1.26.06h.37v-1h-.82a12.1,12.1,0,0,0-1.32.06v-.85a7.89,7.89,0,0,0,1.32.07h.82a7.1,7.1,0,0,0-.09-1.3h1a5.58,5.58,0,0,0-.09,1.3h2.53a4.86,4.86,0,0,0-.09-1.3h1a5.89,5.89,0,0,0-.09,1.3h1.2a7.81,7.81,0,0,0,1.31-.09v.89a8.11,8.11,0,0,0-1.31-.08h-1.2v1h.76a7.39,7.39,0,0,0,1.26-.08v.87a7,7,0,0,0-1.26-.08h-.76v1.07h1.35a8.13,8.13,0,0,0,1.45-.09v.93a7.5,7.5,0,0,0-1.47-.09H41.47v1h2.09A10.92,10.92,0,0,0,45,290a11.47,11.47,0,0,0-.06,1.53v2.35h.12a4.56,4.56,0,0,0,1.12-.09v.9a10.37,10.37,0,0,0-1.12-.06h-.12v1.17c0,.93-.28,1.15-1.42,1.15-.47,0-.87,0-1.45,0a4.11,4.11,0,0,0-.18-.86,10.63,10.63,0,0,0,1.58.12c.5,0,.6-.06.6-.42v-1.12H38.32v.88a10.83,10.83,0,0,0,.06,1.65h-1a12.3,12.3,0,0,0,.07-1.65v-.88a6.29,6.29,0,0,0-1,.08v-.9a5.13,5.13,0,0,0,1,.07v-2.39a12.56,12.56,0,0,0-.06-1.44c.38,0,.87,0,1.64,0h1.63v-1Zm2.5,1.69H38.32V292h2.34Zm0,1.85H38.32v1.23h2.34Zm1.81-6.07v-1H39.94v1Zm0,1.78v-1.07H39.94v1.07Zm1.6,3.59v-1.15h-2.6V292Zm0,1.93v-1.23h-2.6v1.23Z" transform="translate(-0.02)"/><path class="cls-2" d="M47.75,289.58a6.12,6.12,0,0,0,1.15.07h.78a6.83,6.83,0,0,0,1.15-.07,11.58,11.58,0,0,0-.07,1.59v2.93a2.21,2.21,0,0,0,1.33,1.36,8.15,8.15,0,0,0,3.37.44,43.53,43.53,0,0,0,6-.3,3.78,3.78,0,0,0-.35,1.09c-1.57.08-3.29.11-5.06.11-2.55,0-3.38-.11-4.28-.53a3.44,3.44,0,0,1-1.54-1.4,14.68,14.68,0,0,1-1.8,1.57,6.17,6.17,0,0,0-.54.46l-.49-1a9.86,9.86,0,0,0,2.41-1.81v-3.61h-1a5.58,5.58,0,0,0-1.09.08Zm1-5.67a17.92,17.92,0,0,1,2.43,2.66l-.76.67A14,14,0,0,0,48,284.5Zm4.74,2.6a11.09,11.09,0,0,1-1,1.5,2.16,2.16,0,0,0-.8-.51,8.27,8.27,0,0,0,1.76-2.88,4.69,4.69,0,0,0,.19-.76l1,.29-.06.13c-.09.18-.09.18-.27.61s-.2.48-.34.8h2v-.53a9.19,9.19,0,0,0-.09-1.54h1.08a7.09,7.09,0,0,0-.09,1.54v.53h2.16a7.17,7.17,0,0,0,1.42-.09v1a13.29,13.29,0,0,0-1.41-.06H56.73v2h2.8a7.5,7.5,0,0,0,1.36-.08v1a12.12,12.12,0,0,0-1.36-.08H52.9a11.23,11.23,0,0,0-1.34.08v-1a7.7,7.7,0,0,0,1.37.08h2.9v-2Zm.82,8a10.84,10.84,0,0,0-1.5.07,8.75,8.75,0,0,0,.06-1.44v-1.25a8.26,8.26,0,0,0-.06-1.35,11.33,11.33,0,0,0,1.59.07h3.92a11.66,11.66,0,0,0,1.6-.07,8.09,8.09,0,0,0-.06,1.45v1.14a8.09,8.09,0,0,0,.06,1.45,11.69,11.69,0,0,0-1.57-.07Zm-.54-.84h5.17v-2.22H53.72Z" transform="translate(-0.02)"/><path class="cls-2" d="M67.73,284a26.08,26.08,0,0,0,1.12,5c.88-.36,1.3-.53,3.62-1.34a7,7,0,0,0,1-.39l.45,1.14a36.78,36.78,0,0,0-4.51,1.45c-2.56,1-3.67,2-3.67,3.25S66.86,295,69.79,295a14.64,14.64,0,0,0,4.28-.51l.12,1.24a7.68,7.68,0,0,0-1.1.09,30.41,30.41,0,0,1-3.31.2,10.16,10.16,0,0,1-3.33-.41,2.47,2.47,0,0,1-1.85-2.45,3.25,3.25,0,0,1,1.33-2.55,9.3,9.3,0,0,1,2-1.21,30.85,30.85,0,0,1-1.09-4.19,5.4,5.4,0,0,0-.26-.95Z" transform="translate(-0.02)"/><path class="cls-2" d="M79.6,290.48c0-.65,0-.93,0-1.83A11,11,0,0,1,78,291c-.12-.21-.18-.32-.27-.45a1.7,1.7,0,0,1-.23-.27,1.37,1.37,0,0,0-.1-.14,14.5,14.5,0,0,0,2.54-3.6,10.89,10.89,0,0,0,1.07-3l1,.34c-.1.27-.17.42-.29.76a18.75,18.75,0,0,1-1.17,2.71v8a15.85,15.85,0,0,0,.07,1.76H79.51a14.92,14.92,0,0,0,.09-1.8Zm6-5.3a9.11,9.11,0,0,0-.09-1.36H86.7a7.71,7.71,0,0,0-.09,1.37v3.18h3a9.69,9.69,0,0,0,1.61-.11v1.11a12.21,12.21,0,0,0-1.61-.1h-3v6.16h2.5a11.25,11.25,0,0,0,1.62-.1v1.09a11.74,11.74,0,0,0-1.62-.1H83.39a11.49,11.49,0,0,0-1.61.1v-1.09a11,11,0,0,0,1.6.1h2.23v-6.16H83a12.1,12.1,0,0,0-1.61.1v-1.11a9.87,9.87,0,0,0,1.63.11h2.56Z" transform="translate(-0.02)"/><path class="cls-2" d="M94.7,285.09a9.18,9.18,0,0,0-.07-1.56h1.05a9.72,9.72,0,0,0-.08,1.54v1.47h.58a5,5,0,0,0,.95-.06v.91a9.13,9.13,0,0,0-.95,0h-.53A8.1,8.1,0,0,0,97,289.79a4.9,4.9,0,0,0-.52.81,10.32,10.32,0,0,1-1-2.1c0,1.26.06,1.92.06,2.44v4.54a12.21,12.21,0,0,0,.09,1.74H94.61a12.8,12.8,0,0,0,.09-1.74v-4.24a12.75,12.75,0,0,1,0-1.32c0-.09,0-.35,0-.73,0-.12,0-.3,0-.55a12.23,12.23,0,0,1-1.94,4.58,3.76,3.76,0,0,0-.57-.93,8.44,8.44,0,0,0,1.4-2.37,14.18,14.18,0,0,0,.84-2.57h-.77a5.91,5.91,0,0,0-1,.06v-.93a5.58,5.58,0,0,0,1,.06h.92Zm3.91,1.36a7.45,7.45,0,0,0-1.3.08v-.95a7.65,7.65,0,0,0,1.31.08h.8a7.5,7.5,0,0,0-1-1.65l.79-.34a10,10,0,0,1,1.08,2h1.73a9.59,9.59,0,0,0,1-2l.89.31c-.24.48-.74,1.35-1,1.71h1.32a8.92,8.92,0,0,0,1.36-.09v1a8.83,8.83,0,0,0-1.36-.09h-2.73v1.29h2.26a8,8,0,0,0,1.36-.09v1a8.2,8.2,0,0,0-1.34-.08h-2.28v1.35h2.93a9,9,0,0,0,1.37-.09v1a9,9,0,0,0-1.35-.09h-2.86a8,8,0,0,0,1.23,2.25,8,8,0,0,0,1.63-1.93l.76.54a12,12,0,0,1-1.87,2,8.33,8.33,0,0,0,2.85,2.1,3.68,3.68,0,0,0-.63.87,10.78,10.78,0,0,1-2.2-1.72,9.47,9.47,0,0,1-2-3.06,11.47,11.47,0,0,1,.12,1.48v2.82c0,.81-.28,1-1.41,1-.4,0-.81,0-1.22-.06a2.62,2.62,0,0,0-.27-1,9.28,9.28,0,0,0,1.48.14c.43,0,.52-.06.52-.33v-2.11a21.21,21.21,0,0,1-3.17,1.93,6.11,6.11,0,0,0-.68.4l-.43-1a15.89,15.89,0,0,0,4.28-2.28V290.7H98.36a7.4,7.4,0,0,0-1.29.08v-.93a11.1,11.1,0,0,0,1.3.06h2.32v-1.35H99a7.31,7.31,0,0,0-1.3.08v-1a7.08,7.08,0,0,0,1.27.08h1.69v-1.29Zm-.55,4.6a13.8,13.8,0,0,1,1.42,1.81l-.69.49a9.19,9.19,0,0,0-1.41-1.84Z" transform="translate(-0.02)"/><path class="cls-2" d="M53,234a39.37,39.37,0,0,1-3.49-3.74,30.54,30.54,0,0,1-13.38,19.71,15.42,15.42,0,0,0-3.84-4.45,27,27,0,0,0,8.86-8.32,23.19,23.19,0,0,0-3.81-4c-1,1.28-1.38,1.81-2.49,3.09a17.62,17.62,0,0,0-3.2-5.05,23.81,23.81,0,0,0,5.73-10.07,23.47,23.47,0,0,0,1-4.8l5.73.93c-.22.64-.22.64-.89,3.23H47.8c1.46,0,2,0,3-.1-.11.6-.15,1-.25,2s-.07,1.11-.15,1.85A22.35,22.35,0,0,0,53,227.46V221a29.41,29.41,0,0,0-.22-4.48h5.91a29.41,29.41,0,0,0-.22,4.48v10.89A31.13,31.13,0,0,0,66,235.46,23.94,23.94,0,0,0,63.34,241a55,55,0,0,1-4.91-2.77v6.61a42.24,42.24,0,0,0,.25,5.09h-6a43.42,43.42,0,0,0,.25-5.09Zm-11.35-8.75c-.64,1.56-1,2.41-1.64,3.59a29.32,29.32,0,0,1,3.56,3.49,32,32,0,0,0,1.64-7.08Z" transform="translate(-0.02)"/><path class="cls-2" d="M92.66,241.44a19.36,19.36,0,0,0,4.3,4.94,30.2,30.2,0,0,0-3.91,3.53,33.72,33.72,0,0,1-4.41-6,21.64,21.64,0,0,1-4.41,6.19,22.47,22.47,0,0,0-3-3.06,25.56,25.56,0,0,0,.18,2.92H76.08a45.38,45.38,0,0,0,.21-4.7v-8.5c0-1.43,0-2.24.07-3.31a10.66,10.66,0,0,1-1.53,2.31,24.87,24.87,0,0,0-2.06-6.26A25.55,25.55,0,0,0,77,221.8a27.31,27.31,0,0,0,1.35-5.55L82.69,218l0-.64a18,18,0,0,0,2.28.11h7.43a18.78,18.78,0,0,0,2.14-.08c-.07.82-.11,1.5-.11,2.85V238.7c0,1.31,0,2,.11,2.81h-.25a8.35,8.35,0,0,0-1.32-.07Zm-8.26,0a14.15,14.15,0,0,0-1.74.1c0-.46,0-1.42.07-2.91V220.52a34.78,34.78,0,0,1-1.53,4.59v20.63a11.26,11.26,0,0,0,3.38-4.3Zm4.27,1.92,3.13-1.92H85.4Zm-1.42-19.25h2.63v-2.06H87.25Zm0,6.3h2.63v-2.1H87.25Zm0,6.47h2.63v-2.27H87.25ZM95.47,241a17.64,17.64,0,0,0,.14-2.52V221.62c0-1,0-1.56-.11-2.52h4.7a15.66,15.66,0,0,0-.14,2.52v16.83a24.46,24.46,0,0,0,.1,2.56Zm10.92-24a34,34,0,0,0-.18,3.92v23.87c0,3.77-1.25,4.69-6.23,4.69l-2,0a17.43,17.43,0,0,0-1.07-5.09,21.61,21.61,0,0,0,2.89.21c1.24,0,1.49-.14,1.49-1v-22.8a32.32,32.32,0,0,0-.18-3.81Z" transform="translate(-0.02)"/><path class="cls-1" d="M70.79,175H65.24V163.69H53.89v-5.51H65.24V146.83h5.55v11.35H82.15v5.51H70.79Z" transform="translate(-0.02)"/></svg>