<svg id="レイヤー_1" data-name="レイヤー 1" xmlns="http://www.w3.org/2000/svg" viewBox="0 0 487.95 353.46"><defs><style>.cls-1{fill:#e9edf0;}.cls-10,.cls-11,.cls-12,.cls-13,.cls-15,.cls-2,.cls-4,.cls-5,.cls-6,.cls-7,.cls-8,.cls-9{fill:none;stroke:#231815;}.cls-12,.cls-13,.cls-2,.cls-4,.cls-5,.cls-6{stroke-linecap:round;stroke-linejoin:round;}.cls-2{stroke-width:0.95px;}.cls-3{fill:#fff;}.cls-4{stroke-width:0.78px;}.cls-5{stroke-width:0.73px;}.cls-6{stroke-width:0.92px;}.cls-10,.cls-11,.cls-15,.cls-7,.cls-8,.cls-9{stroke-miterlimit:10;}.cls-10,.cls-11,.cls-7,.cls-8,.cls-9{stroke-width:0.88px;}.cls-7{stroke-dasharray:1.75 1.75;}.cls-9{stroke-dasharray:1.76 1.76;}.cls-10{stroke-dasharray:1.75 1.75;}.cls-11{stroke-dasharray:1.75 1.75;}.cls-12{stroke-width:0.95px;}.cls-13{stroke-width:0.78px;}.cls-14{fill:#ee1b09;}.cls-15{stroke-width:8.23px;}.cls-16{fill:#231815;}</style></defs><polygon class="cls-1" points="320 137.74 258.11 81.52 163.84 137.76 225.72 193.98 320 137.74"/><polygon class="cls-2" points="320 137.5 258.11 81.27 163.84 137.52 225.72 193.73 320 137.5"/><polygon class="cls-3" points="222.78 112.22 222.78 145.84 233.66 139.36 233.66 117.47 244.26 111.15 244.26 133.03 260.53 123.32 260.53 101.63 271.12 95.31 271.12 117.01 286.83 107.64 286.83 74.01 222.78 112.22"/><polygon class="cls-2" points="222.78 112.22 222.78 145.84 233.66 139.36 233.66 117.47 244.26 111.15 244.26 133.03 260.53 123.32 260.53 101.63 271.12 95.31 271.12 117.01 286.83 107.64 286.83 74.01 222.78 112.22"/><polygon class="cls-3" points="225.83 184.41 242.72 173.58 242.72 178.53 225.83 189.08 225.83 184.41"/><polygon class="cls-4" points="225.83 184.41 242.72 173.58 242.72 178.53 225.83 189.08 225.83 184.41"/><polygon class="cls-3" points="205.31 165.81 222.54 155.07 242.79 173.55 225.83 184.43 205.31 165.81"/><polygon class="cls-4" points="205.31 165.81 222.54 155.07 242.79 173.55 225.83 184.43 205.31 165.81"/><polygon class="cls-3" points="205.32 165.81 225.84 184.43 225.84 189.08 205.32 170.27 205.32 165.81"/><polygon class="cls-4" points="205.32 165.81 225.84 184.43 225.84 189.08 205.32 170.27 205.32 165.81"/><polygon class="cls-3" points="205.31 160.18 222.53 149.81 222.53 155.07 205.31 165.8 205.31 160.18"/><polygon class="cls-4" points="205.31 160.18 222.53 149.81 222.53 155.07 205.31 165.8 205.31 160.18"/><polygon class="cls-3" points="204.28 159.49 221.32 148.97 222.53 149.81 205.31 160.18 204.28 159.49"/><polygon class="cls-4" points="204.28 159.49 221.32 148.97 222.53 149.81 205.31 160.18 204.28 159.49"/><polygon class="cls-3" points="204.27 159.49 205.31 160.18 205.31 170.23 204.27 169.34 204.27 159.49"/><polygon class="cls-4" points="204.27 159.49 205.31 160.18 205.31 170.23 204.27 169.34 204.27 159.49"/><polygon class="cls-3" points="287.98 156.69 255.08 126.43 255.08 92.8 287.98 123.08 287.98 156.69"/><polygon class="cls-2" points="287.98 156.69 255.08 126.43 255.08 92.8 287.98 123.08 287.98 156.69"/><polygon class="cls-3" points="194.06 86.11 194.06 119.74 211.11 135.36 211.11 112.34 220.51 120.86 220.51 143.95 255.64 176.12 255.64 142.49 194.06 86.11"/><polygon class="cls-2" points="194.06 86.11 194.06 119.74 211.11 135.36 211.11 112.34 220.51 120.86 220.51 143.95 255.64 176.12 255.64 142.49 194.06 86.11"/><polygon class="cls-3" points="177.58 116.61 177.58 150.24 192.63 141.26 192.63 119.37 203.22 113.06 203.22 134.94 207.81 132.21 207.81 98.58 177.58 116.61"/><polygon class="cls-2" points="177.58 116.61 177.58 150.24 192.63 141.26 192.63 119.37 203.22 113.06 203.22 134.94 207.81 132.21 207.81 98.58 177.58 116.61"/><polygon class="cls-3" points="257.88 135.54 267.67 129.65 267.67 139.54 257.87 145.62 257.88 135.54"/><polygon class="cls-4" points="257.88 135.54 267.67 129.65 267.67 139.54 257.87 145.62 257.88 135.54"/><polygon class="cls-3" points="256.69 134.58 266.5 128.84 267.67 129.65 257.88 135.54 256.69 134.58"/><polygon class="cls-4" points="256.69 134.58 266.5 128.84 267.67 129.65 257.88 135.54 256.69 134.58"/><polygon class="cls-3" points="256.69 134.58 257.88 135.54 257.88 145.6 256.69 144.47 256.69 134.58"/><polygon class="cls-4" points="256.69 134.58 257.88 135.54 257.88 145.6 256.69 144.47 256.69 134.58"/><polygon class="cls-3" points="275.74 156.88 285.25 151.32 285.25 155.56 275.74 161.55 275.74 156.88"/><polygon class="cls-4" points="275.74 156.88 285.25 151.32 285.25 155.56 275.74 161.55 275.74 156.88"/><polygon class="cls-3" points="257.87 141.07 267.65 135.61 285.25 151.32 275.74 156.91 257.87 141.07"/><polygon class="cls-4" points="257.87 141.07 267.65 135.61 285.25 151.32 275.74 156.91 257.87 141.07"/><polygon class="cls-3" points="257.88 141.06 275.74 156.91 275.74 161.55 257.88 145.52 257.88 141.06"/><polygon class="cls-4" points="257.88 141.06 275.74 156.91 275.74 161.55 257.88 145.52 257.88 141.06"/><polygon class="cls-3" points="290.58 115.93 300.36 110.04 300.36 119.93 290.56 125.99 290.58 115.93"/><polygon class="cls-4" points="290.58 115.93 300.36 110.04 300.36 119.93 290.56 125.99 290.58 115.93"/><polygon class="cls-3" points="288.78 114.56 298.59 108.81 300.36 110.03 290.58 115.92 288.78 114.56"/><polygon class="cls-4" points="288.78 114.56 298.59 108.81 300.36 110.03 290.58 115.92 288.78 114.56"/><polygon class="cls-3" points="288.78 114.56 290.58 115.93 290.58 125.98 288.78 124.24 288.78 114.56"/><polygon class="cls-4" points="288.78 114.56 290.58 115.93 290.58 125.98 288.78 124.24 288.78 114.56"/><polygon class="cls-3" points="308.44 137.29 317.95 131.69 317.95 135.93 308.44 141.94 308.44 137.29"/><polygon class="cls-5" points="308.44 137.29 317.95 131.69 317.95 135.93 308.44 141.94 308.44 137.29"/><polygon class="cls-3" points="290.56 121.46 300.34 115.99 317.95 131.71 308.43 137.29 290.56 121.46"/><polygon class="cls-4" points="290.56 121.46 300.34 115.99 317.95 131.71 308.43 137.29 290.56 121.46"/><polygon class="cls-3" points="290.58 121.45 308.44 137.29 308.44 141.94 290.58 125.91 290.58 121.45"/><polygon class="cls-4" points="290.58 121.45 308.44 137.29 308.44 141.94 290.58 125.91 290.58 121.45"/><polygon class="cls-1" points="321.19 296.16 258.64 239.33 163.35 296.18 225.89 352.99 321.19 296.16"/><polygon class="cls-6" points="321.19 296.16 258.64 239.33 163.35 296.18 225.89 352.99 321.19 296.16"/><polygon class="cls-3" points="258.64 239.33 163.36 296.15 163.36 262.17 258.64 205.34 258.64 239.33"/><polygon class="cls-6" points="258.64 239.33 163.36 296.15 163.36 262.17 258.64 205.34 258.64 239.33"/><polygon class="cls-3" points="225.89 353 163.35 296.18 163.35 262.19 225.89 319.02 225.89 353"/><polygon class="cls-6" points="225.89 353 163.35 296.18 163.35 262.19 225.89 319.02 225.89 353"/><polygon class="cls-3" points="321.17 296.14 258.63 239.32 258.63 205.34 321.17 262.17 321.17 296.14"/><polygon class="cls-6" points="321.17 296.14 258.63 239.32 258.63 205.34 321.17 262.17 321.17 296.14"/><path class="cls-3" d="M225.89,319v34l95.28-56.83v-34Zm26.36,18.26-10.7,6.39V321.53l10.7-6.39Z"/><path class="cls-6" d="M225.89,319v34l95.28-56.83v-34Zm26.36,18.26-10.7,6.39V321.53l10.7-6.39Z"/><polyline class="cls-7" points="163.35 63.14 225.89 119.95 321.19 63.12"/><line class="cls-8" x1="163.69" y1="260.59" x2="163.69" y2="259.71"/><line class="cls-9" x1="163.69" y1="257.95" x2="163.69" y2="64.9"/><line class="cls-8" x1="163.69" y1="64.02" x2="163.69" y2="63.14"/><line class="cls-8" x1="226.57" y1="318.79" x2="226.57" y2="317.92"/><line class="cls-10" x1="226.57" y1="316.16" x2="226.57" y2="120.87"/><line class="cls-8" x1="226.57" y1="120" x2="226.57" y2="119.12"/><line class="cls-8" x1="320.53" y1="260.59" x2="320.53" y2="259.71"/><line class="cls-11" x1="320.53" y1="257.97" x2="320.53" y2="66.98"/><line class="cls-8" x1="320.53" y1="66.11" x2="320.53" y2="65.23"/><polygon class="cls-1" points="487.48 138.31 425.6 82.08 331.32 138.33 393.2 194.55 487.48 138.31"/><polygon class="cls-12" points="487.48 138.31 425.6 82.08 331.32 138.33 393.2 194.55 487.48 138.31"/><polygon class="cls-3" points="390.27 146.41 361.53 120.3 361.53 86.68 390.27 112.78 390.27 146.41"/><polygon class="cls-12" points="390.27 146.41 361.53 120.3 361.53 86.68 390.27 112.78 390.27 146.41"/><polygon class="cls-3" points="390.27 112.78 390.27 146.41 395.67 143.17 395.67 121.28 406.26 114.96 406.26 136.84 414.59 131.88 414.59 109.98 425.18 103.66 425.18 125.57 454.31 108.19 454.31 74.57 390.27 112.78"/><polygon class="cls-12" points="390.27 112.78 390.27 146.41 395.67 143.17 395.67 121.28 406.26 114.96 406.26 136.84 414.59 131.88 414.59 109.98 425.18 103.66 425.18 125.57 454.31 108.19 454.31 74.57 390.27 112.78"/><polygon class="cls-3" points="442.16 165.37 409.26 135.1 409.26 101.48 442.16 131.74 442.16 165.37"/><polygon class="cls-12" points="442.16 165.37 409.26 135.1 409.26 101.48 442.16 131.74 442.16 165.37"/><polygon class="cls-3" points="423.93 140.72 438.3 154.41 438.3 164.27 423.94 150.39 423.93 140.72"/><polygon class="cls-13" points="423.93 140.72 438.3 154.41 438.3 164.27 423.94 150.39 423.93 140.72"/><polygon class="cls-3" points="438.3 154.41 439.48 153.48 439.48 163.53 438.3 164.27 438.3 154.41"/><polygon class="cls-13" points="438.3 154.41 439.48 153.48 439.48 163.53 438.3 164.27 438.3 154.41"/><polygon class="cls-3" points="438.3 154.41 439.48 153.48 425.15 140.01 423.98 140.74 438.3 154.41"/><polygon class="cls-13" points="438.3 154.41 439.48 153.48 425.15 140.01 423.98 140.74 438.3 154.41"/><polygon class="cls-3" points="452.43 111.42 452.91 111.87 452.91 120.57 452.43 120.16 452.43 111.42"/><polygon class="cls-13" points="452.43 111.42 452.91 111.87 452.91 120.57 452.43 120.16 452.43 111.42"/><polygon class="cls-3" points="444.88 112 448.68 114.86 448.68 123.72 444.88 120.75 444.88 112"/><polygon class="cls-13" points="444.88 112 448.68 114.86 448.68 123.72 444.88 120.75 444.88 112"/><polygon class="cls-3" points="437.61 116.66 455.41 106.11 455.42 105.54 437.61 116.06 437.61 116.66"/><polygon class="cls-13" points="437.61 116.66 455.41 106.11 455.42 105.54 437.61 116.06 437.61 116.66"/><polygon class="cls-3" points="432.59 120.65 432.59 112.31 437.61 116.63 437.61 125.01 432.59 120.65"/><polygon class="cls-13" points="432.59 120.65 432.59 112.31 437.61 116.63 437.61 125.01 432.59 120.65"/><polygon class="cls-3" points="449.7 110.53 449.7 102.19 454.71 106.49 454.71 114.89 449.7 110.53"/><polygon class="cls-13" points="449.7 110.53 449.7 102.19 454.71 106.49 454.71 114.89 449.7 110.53"/><polygon class="cls-3" points="454.71 114.88 455.41 114.47 455.41 106.11 454.71 106.49 454.71 114.88"/><polygon class="cls-13" points="454.71 114.88 455.41 114.47 455.41 106.11 454.71 106.49 454.71 114.88"/><polygon class="cls-3" points="432.59 111.74 450.36 101.19 455.42 105.54 437.61 116.06 432.59 111.74"/><polygon class="cls-13" points="432.59 111.74 450.36 101.19 455.42 105.54 437.61 116.06 432.59 111.74"/><polygon class="cls-3" points="432.59 112.3 432.59 111.74 437.61 116.06 437.61 116.66 432.59 112.3"/><polygon class="cls-13" points="432.59 112.3 432.59 111.74 437.61 116.06 437.61 116.66 432.59 112.3"/><polygon class="cls-3" points="432.59 111.74 450.36 101.19 455.42 105.54 437.61 116.06 432.59 111.74"/><polygon class="cls-13" points="432.59 111.74 450.36 101.19 455.42 105.54 437.61 116.06 432.59 111.74"/><polygon class="cls-3" points="432.59 111.74 450.36 101.19 455.42 105.54 437.61 116.06 432.59 111.74"/><polygon class="cls-13" points="432.59 111.74 450.36 101.19 455.42 105.54 437.61 116.06 432.59 111.74"/><polygon class="cls-3" points="437.61 125.01 442.57 122.07 442.57 113.71 437.61 116.63 437.61 125.01"/><polygon class="cls-13" points="437.61 125.01 442.57 122.07 442.57 113.71 437.61 116.63 437.61 125.01"/><polygon class="cls-3" points="444.87 115.51 449.66 112.74 452.43 115.27 447.77 118.1 444.87 115.51"/><polygon class="cls-13" points="444.87 115.51 449.66 112.74 452.43 115.27 447.77 118.1 444.87 115.51"/><polygon class="cls-3" points="447.76 118.1 452.43 115.27 452.43 115.88 447.77 118.72 447.76 118.1"/><polygon class="cls-13" points="447.76 118.1 452.43 115.27 452.43 115.88 447.77 118.72 447.76 118.1"/><polygon class="cls-3" points="447.76 118.1 444.91 115.55 444.91 116.16 447.77 118.72 447.76 118.1"/><polygon class="cls-13" points="447.76 118.1 444.91 115.55 444.91 116.16 447.77 118.72 447.76 118.1"/><polygon class="cls-3" points="447.78 114.25 448.26 114.71 448.26 123.4 447.78 123 447.78 114.25"/><polygon class="cls-13" points="447.78 114.25 448.26 114.71 448.26 123.4 447.78 123 447.78 114.25"/><polygon class="cls-3" points="452.91 111.1 448.26 113.87 448.26 116.05 452.91 113.34 452.91 111.1"/><polygon class="cls-13" points="452.91 111.1 448.26 113.87 448.26 116.05 452.91 113.34 452.91 111.1"/><polygon class="cls-3" points="444.91 115.58 445.29 115.9 445.29 120.77 444.91 120.44 444.91 115.58"/><polygon class="cls-13" points="444.91 115.58 445.29 115.9 445.29 120.77 444.91 120.44 444.91 115.58"/><polygon class="cls-3" points="416.04 172.89 438.3 159.36 438.3 164.27 416.04 177.56 416.04 172.89"/><polygon class="cls-13" points="416.04 172.89 438.3 159.36 438.3 164.27 416.04 177.56 416.04 172.89"/><polygon class="cls-3" points="401.44 159.76 423.98 146.34 438.3 159.36 416.04 172.91 401.44 159.76"/><polygon class="cls-13" points="401.44 159.76 423.98 146.34 438.3 159.36 416.04 172.91 401.44 159.76"/><polygon class="cls-3" points="401.46 159.75 416.06 172.91 416.06 177.56 401.46 164.21 401.46 159.75"/><polygon class="cls-13" points="401.46 159.75 416.06 172.91 416.06 177.56 401.46 164.21 401.46 159.75"/><polygon class="cls-3" points="476.3 121.69 484.28 128.96 484.28 138.82 476.32 131.35 476.3 121.69"/><polygon class="cls-13" points="476.3 121.69 484.28 128.96 484.28 138.82 476.32 131.35 476.3 121.69"/><polygon class="cls-3" points="484.28 128.97 485.44 128.16 477.52 120.96 476.34 121.69 484.28 128.97"/><polygon class="cls-13" points="484.28 128.97 485.44 128.16 477.52 120.96 476.34 121.69 484.28 128.97"/><polygon class="cls-3" points="462.02 147.45 484.28 133.93 484.28 138.82 462.02 152.12 462.02 147.45"/><polygon class="cls-13" points="462.02 147.45 484.28 133.93 484.28 138.82 462.02 152.12 462.02 147.45"/><polygon class="cls-3" points="453.81 140.72 476.34 127.3 484.28 133.93 462.02 147.48 453.81 140.72"/><polygon class="cls-13" points="453.81 140.72 476.34 127.3 484.28 133.93 462.02 147.48 453.81 140.72"/><polygon class="cls-3" points="453.84 140.71 462.02 147.48 462.02 152.12 453.84 145.17 453.84 140.71"/><polygon class="cls-13" points="453.84 140.71 462.02 147.48 462.02 152.12 453.84 145.17 453.84 140.71"/><polygon class="cls-3" points="356.9 122.95 361.56 120.17 390.31 146.3 385.72 149.18 356.9 122.95"/><polygon class="cls-13" points="356.9 122.95 361.56 120.17 390.31 146.3 385.72 149.18 356.9 122.95"/><polygon class="cls-3" points="356.62 123.31 361.27 120.54 361.23 97.69 356.64 100.56 356.62 123.31"/><polygon class="cls-13" points="356.62 123.31 361.27 120.54 361.23 97.69 356.64 100.56 356.62 123.31"/><polygon class="cls-3" points="356.9 100.36 361.56 97.57 390.31 123.69 385.72 126.57 356.9 100.36"/><polygon class="cls-13" points="356.9 100.36 361.56 97.57 390.31 123.69 385.72 126.57 356.9 100.36"/><polygon class="cls-3" points="356.9 108.96 361.56 106.18 390.31 132.3 385.72 135.17 356.9 108.96"/><polygon class="cls-13" points="356.9 108.96 361.56 106.18 390.31 132.3 385.72 135.17 356.9 108.96"/><polygon class="cls-3" points="356.9 116.21 361.56 113.42 390.31 139.54 385.72 142.42 356.9 116.21"/><polygon class="cls-13" points="356.9 116.21 361.56 113.42 390.31 139.54 385.72 142.42 356.9 116.21"/><polygon class="cls-3" points="385.71 149.33 390.36 146.55 390.31 123.69 385.72 126.57 385.71 149.33"/><polygon class="cls-13" points="385.71 149.33 390.36 146.55 390.31 123.69 385.72 126.57 385.71 149.33"/><polygon class="cls-3" points="360.05 130.81 360.05 164.44 375.09 155.45 375.09 133.57 385.68 127.26 385.68 149.13 390.27 146.41 390.27 112.78 360.05 130.81"/><polygon class="cls-12" points="360.05 130.81 360.05 164.44 375.09 155.45 375.09 133.57 385.68 127.26 385.68 149.13 390.27 146.41 390.27 112.78 360.05 130.81"/><polygon class="cls-3" points="484.27 128.97 485.44 128.16 485.45 138.09 484.28 138.82 484.27 128.97"/><polygon class="cls-13" points="484.27 128.97 485.44 128.16 485.45 138.09 484.28 138.82 484.27 128.97"/><polygon class="cls-1" points="156.64 138.31 94.76 82.08 0.48 138.33 62.36 194.55 156.64 138.31"/><polygon class="cls-12" points="156.64 138.31 94.76 82.08 0.48 138.33 62.36 194.55 156.64 138.31"/><polygon class="cls-3" points="59.43 146.41 30.69 120.3 30.69 86.68 59.43 112.78 59.43 146.41"/><polygon class="cls-12" points="59.43 146.41 30.69 120.3 30.69 86.68 59.43 112.78 59.43 146.41"/><polygon class="cls-3" points="59.43 112.78 59.43 146.41 70.3 139.92 70.3 118.03 80.89 111.72 80.89 133.6 123.48 108.19 123.48 74.57 59.43 112.78"/><polygon class="cls-12" points="59.43 112.78 59.43 146.41 70.3 139.92 70.3 118.03 80.89 111.72 80.89 133.6 123.48 108.19 123.48 74.57 59.43 112.78"/><polygon class="cls-3" points="119.68 148.34 121.11 147.41 121.11 153.59 119.68 154.24 119.68 148.34"/><polygon class="cls-13" points="119.68 148.34 121.11 147.41 121.11 153.59 119.68 154.24 119.68 148.34"/><polygon class="cls-3" points="118.78 147.55 119.68 148.35 119.68 154.22 118.78 153.23 118.78 147.55"/><polygon class="cls-13" points="118.78 147.55 119.68 148.35 119.68 154.22 118.78 153.23 118.78 147.55"/><polygon class="cls-3" points="95.89 139.46 97.32 138.53 97.32 144.72 95.89 145.35 95.89 139.46"/><polygon class="cls-13" points="95.89 139.46 97.32 138.53 97.32 144.72 95.89 145.35 95.89 139.46"/><polygon class="cls-3" points="95 138.68 95.89 139.49 95.89 145.34 95 144.36 95 138.68"/><polygon class="cls-13" points="95 138.68 95.89 139.49 95.89 145.34 95 144.36 95 138.68"/><polygon class="cls-3" points="111.61 151.87 121.11 146.17 121.11 147.41 111.61 153.16 111.61 151.87"/><polygon class="cls-13" points="111.61 151.87 121.11 146.17 121.11 147.41 111.61 153.16 111.61 151.87"/><polygon class="cls-3" points="94.99 137.6 104.04 132.3 121.11 146.24 111.61 151.89 94.99 137.6"/><polygon class="cls-13" points="94.99 137.6 104.04 132.3 121.11 146.24 111.61 151.89 94.99 137.6"/><polygon class="cls-3" points="95 137.59 111.61 151.89 111.61 153.16 95 138.68 95 137.59"/><polygon class="cls-13" points="95 137.59 111.61 151.89 111.61 153.16 95 138.68 95 137.59"/><polygon class="cls-3" points="111.6 153.13 113.02 152.22 113.02 158.4 111.6 159.02 111.6 153.13"/><polygon class="cls-13" points="111.6 153.13 113.02 152.22 113.02 158.4 111.6 159.02 111.6 153.13"/><polygon class="cls-3" points="110.7 152.35 111.61 153.16 111.61 159.02 110.7 158.03 110.7 152.35"/><polygon class="cls-13" points="110.7 152.35 111.61 153.16 111.61 159.02 110.7 158.03 110.7 152.35"/><polygon class="cls-3" points="92.65 162.55 100 157.85 100 162.16 92.65 167 92.65 162.55"/><polygon class="cls-13" points="92.65 162.55 100 157.85 100 162.16 92.65 167 92.65 162.55"/><polygon class="cls-3" points="80.18 151.21 87.79 146.62 100 157.85 92.65 162.55 80.18 151.21"/><polygon class="cls-13" points="80.18 151.21 87.79 146.62 100 157.85 92.65 162.55 80.18 151.21"/><polygon class="cls-3" points="80.2 147.56 92.65 158.78 92.65 167.03 80.2 155.63 80.2 147.56"/><polygon class="cls-13" points="80.2 147.56 92.65 158.78 92.65 167.03 80.2 155.63 80.2 147.56"/><polygon class="cls-3" points="80.2 147.56 92.65 158.78 93.86 158.13 81.5 146.88 80.2 147.56"/><polygon class="cls-13" points="80.2 147.56 92.65 158.78 93.86 158.13 81.5 146.88 80.2 147.56"/><polygon class="cls-3" points="93.88 158.13 92.65 158.78 92.65 167.03 93.88 166.19 93.88 158.13"/><polygon class="cls-13" points="93.88 158.13 92.65 158.78 92.65 167.03 93.88 166.19 93.88 158.13"/><polygon class="cls-3" points="143.09 136.5 150.44 131.8 150.44 136.11 143.09 140.96 143.09 136.5"/><polygon class="cls-13" points="143.09 136.5 150.44 131.8 150.44 136.11 143.09 140.96 143.09 136.5"/><polygon class="cls-3" points="130.5 125.35 137.85 120.65 137.85 124.95 130.5 129.8 130.5 125.35"/><polygon class="cls-13" points="130.5 125.35 137.85 120.65 137.85 124.95 130.5 129.8 130.5 125.35"/><polygon class="cls-3" points="130.5 125.35 143.03 136.56 143.03 140.87 130.5 129.8 130.5 125.35"/><polygon class="cls-13" points="130.5 125.35 143.03 136.56 143.03 140.87 130.5 129.8 130.5 125.35"/><polygon class="cls-3" points="130.63 125.16 138.24 120.57 150.44 131.8 143.09 136.5 130.63 125.16"/><polygon class="cls-13" points="130.63 125.16 138.24 120.57 150.44 131.8 143.09 136.5 130.63 125.16"/><polygon class="cls-3" points="134.83 126.76 139.4 124.02 146.72 130.75 142.31 133.56 134.83 126.76"/><polygon class="cls-13" points="134.83 126.76 139.4 124.02 146.72 130.75 142.31 133.56 134.83 126.76"/><polygon class="cls-3" points="26.05 123.08 30.7 120.31 40.55 129.45 35.95 132.33 26.05 123.08"/><polygon class="cls-13" points="26.05 123.08 30.7 120.31 40.55 129.45 35.95 132.33 26.05 123.08"/><polygon class="cls-3" points="25.76 123.44 30.41 120.65 30.36 97.82 25.78 100.69 25.76 123.44"/><polygon class="cls-13" points="25.76 123.44 30.41 120.65 30.36 97.82 25.78 100.69 25.76 123.44"/><polygon class="cls-3" points="20.33 129.11 20.8 129.56 20.8 138.26 20.33 137.86 20.33 129.11"/><polygon class="cls-13" points="20.33 129.11 20.8 129.56 20.8 138.26 20.33 137.86 20.33 129.11"/><polygon class="cls-3" points="12.77 129.69 16.57 132.56 16.57 141.42 12.77 138.44 12.77 129.69"/><polygon class="cls-13" points="12.77 129.69 16.57 132.56 16.57 141.42 12.77 138.44 12.77 129.69"/><path class="cls-3" d="M141.62,128.51a1.57,1.57,0,1,1-1.57-1.56,1.57,1.57,0,0,1,1.57,1.56"/><path class="cls-13" d="M141.62,128.51a1.57,1.57,0,1,1-1.57-1.56A1.57,1.57,0,0,1,141.62,128.51Z"/><polygon class="cls-3" points="133.54 115.26 146.01 126.47 146.01 134.73 133.54 123.34 133.54 115.26"/><polygon class="cls-13" points="133.54 115.26 146.01 126.47 146.01 134.73 133.54 123.34 133.54 115.26"/><polygon class="cls-3" points="26.05 100.49 30.7 97.7 40.55 106.85 35.95 109.74 26.05 100.49"/><polygon class="cls-13" points="26.05 100.49 30.7 97.7 40.55 106.85 35.95 109.74 26.05 100.49"/><polygon class="cls-3" points="26.05 109.08 30.7 106.31 40.55 115.45 35.95 118.33 26.05 109.08"/><polygon class="cls-13" points="26.05 109.08 30.7 106.31 40.55 115.45 35.95 118.33 26.05 109.08"/><polygon class="cls-3" points="26.05 116.34 30.7 113.54 40.55 122.7 35.95 125.58 26.05 116.34"/><polygon class="cls-13" points="26.05 116.34 30.7 113.54 40.55 122.7 35.95 125.58 26.05 116.34"/><polygon class="cls-3" points="35.94 132.48 40.59 129.7 40.55 106.85 35.95 109.74 35.94 132.48"/><polygon class="cls-13" points="35.94 132.48 40.59 129.7 40.55 106.85 35.95 109.74 35.94 132.48"/><polygon class="cls-3" points="5.5 134.36 23.3 123.81 23.3 123.23 5.5 133.76 5.5 134.36"/><polygon class="cls-13" points="5.5 134.36 23.3 123.81 23.3 123.23 5.5 133.76 5.5 134.36"/><polygon class="cls-3" points="0.48 138.35 0.48 130 5.5 134.33 5.5 142.71 0.48 138.35"/><polygon class="cls-13" points="0.48 138.35 0.48 130 5.5 134.33 5.5 142.71 0.48 138.35"/><polygon class="cls-3" points="17.59 128.22 17.59 119.88 22.6 124.2 22.6 132.58 17.59 128.22"/><polygon class="cls-13" points="17.59 128.22 17.59 119.88 22.6 124.2 22.6 132.58 17.59 128.22"/><polygon class="cls-3" points="22.6 132.58 23.3 132.17 23.3 123.81 22.6 124.21 22.6 132.58"/><polygon class="cls-13" points="22.6 132.58 23.3 132.17 23.3 123.81 22.6 124.21 22.6 132.58"/><polygon class="cls-3" points="0.48 129.44 18.25 118.9 23.3 123.23 5.5 133.76 0.48 129.44"/><polygon class="cls-13" points="0.48 129.44 18.25 118.9 23.3 123.23 5.5 133.76 0.48 129.44"/><polygon class="cls-3" points="0.48 130 0.48 129.44 5.5 133.76 5.5 134.36 0.48 130"/><polygon class="cls-13" points="0.48 130 0.48 129.44 5.5 133.76 5.5 134.36 0.48 130"/><polygon class="cls-3" points="0.48 129.44 18.25 118.9 23.3 123.23 5.5 133.76 0.48 129.44"/><polygon class="cls-13" points="0.48 129.44 18.25 118.9 23.3 123.23 5.5 133.76 0.48 129.44"/><polygon class="cls-3" points="0.48 129.44 18.25 118.9 23.3 123.23 5.5 133.76 0.48 129.44"/><polygon class="cls-13" points="0.48 129.44 18.25 118.9 23.3 123.23 5.5 133.76 0.48 129.44"/><polygon class="cls-3" points="5.5 142.71 10.46 139.76 10.47 131.41 5.5 134.33 5.5 142.71"/><polygon class="cls-13" points="5.5 142.71 10.46 139.76 10.47 131.41 5.5 134.33 5.5 142.71"/><polygon class="cls-3" points="12.76 133.21 17.55 130.43 20.32 132.96 15.66 135.8 12.76 133.21"/><polygon class="cls-13" points="12.76 133.21 17.55 130.43 20.32 132.96 15.66 135.8 12.76 133.21"/><polygon class="cls-3" points="15.66 135.8 20.32 132.96 20.32 133.59 15.66 136.41 15.66 135.8"/><polygon class="cls-13" points="15.66 135.8 20.32 132.96 20.32 133.59 15.66 136.41 15.66 135.8"/><polygon class="cls-3" points="15.66 135.8 12.79 133.24 12.8 133.86 15.66 136.41 15.66 135.8"/><polygon class="cls-13" points="15.66 135.8 12.79 133.24 12.8 133.86 15.66 136.41 15.66 135.8"/><polygon class="cls-3" points="15.67 131.95 16.14 132.4 16.14 141.1 15.67 140.7 15.67 131.95"/><polygon class="cls-13" points="15.67 131.95 16.14 132.4 16.14 141.1 15.67 140.7 15.67 131.95"/><polygon class="cls-3" points="20.8 128.79 16.14 131.57 16.14 133.75 20.8 131.04 20.8 128.79"/><polygon class="cls-13" points="20.8 128.79 16.14 131.57 16.14 133.75 20.8 131.04 20.8 128.79"/><polygon class="cls-3" points="12.79 133.27 13.17 133.59 13.17 138.46 12.79 138.13 12.79 133.27"/><polygon class="cls-13" points="12.79 133.27 13.17 133.59 13.17 138.46 12.79 138.13 12.79 133.27"/><polygon class="cls-3" points="147.23 125.83 146.01 126.47 146.01 134.73 147.23 133.89 147.23 125.83"/><polygon class="cls-13" points="147.23 125.83 146.01 126.47 146.01 134.73 147.23 133.89 147.23 125.83"/><polygon class="cls-3" points="133.54 115.26 146.01 126.47 147.21 125.83 134.85 114.58 133.54 115.26"/><polygon class="cls-13" points="133.54 115.26 146.01 126.47 147.21 125.83 134.85 114.58 133.54 115.26"/><path class="cls-14" d="M111.08,32.79A32.81,32.81,0,1,0,78.27,65.58,32.8,32.8,0,0,0,111.08,32.79Z"/><path class="cls-3" d="M53.9,19.4a6.15,6.15,0,0,0,.66,0A13.3,13.3,0,0,0,58.34,19l.84,1.44a6.39,6.39,0,0,0-1.64,1.43,6.23,6.23,0,0,0-1.72,3.93,2.23,2.23,0,0,0,2.28,2.41,2.59,2.59,0,0,0,2.43-1.65A7,7,0,0,0,61,23.69a11,11,0,0,0-.71-4l1.59-.48A10.19,10.19,0,0,0,63,21.58a8.82,8.82,0,0,0,2.41,2.51l-.82,1.56-.31-.27a10.18,10.18,0,0,1-1.46-1.68c-.06-.08-.27-.42-.67-1.06A8.32,8.32,0,0,1,62.47,25c0,2.84-1.81,4.87-4.32,4.87a4.31,4.31,0,0,1-2.29-.62,4,4,0,0,1-1.64-3.39,6.61,6.61,0,0,1,.91-3.19,8.52,8.52,0,0,1,1.35-1.71l.22-.22.15-.13-.37.07a14,14,0,0,1-2.16.26l-.4,0Z"/><path class="cls-3" d="M70.63,24.11a4.82,4.82,0,0,1,2.43-.57c2.16,0,3.55,1.12,3.55,2.83a3.16,3.16,0,0,1-1.55,2.7,6.46,6.46,0,0,1-3.31.78,10.44,10.44,0,0,1-3.21-.49,6.28,6.28,0,0,0-.24-1.75,9,9,0,0,0,3.38.74c1.93,0,3.22-.78,3.22-2,0-1-.88-1.53-2.36-1.53a8,8,0,0,0-5.16,2.22l-1-1.38a11.67,11.67,0,0,0,1.74-1.25,42.7,42.7,0,0,0,4-3.7l.14-.14a.57.57,0,0,0,.1-.11h-.12c-.53.08-2.15.17-3.29.2a7.24,7.24,0,0,0-1.09.08l-.06-1.58a10.41,10.41,0,0,0,1.81.09c1.29,0,2.77-.06,3.78-.16a2,2,0,0,0,.73-.14l.85,1.21a18.06,18.06,0,0,0-2.3,2.12,20.07,20.07,0,0,1-2.13,1.82l0,0Z"/><path class="cls-3" d="M78.37,19.56a6.59,6.59,0,0,0,.67,0,13.35,13.35,0,0,0,3.77-.42l.84,1.44A6.25,6.25,0,0,0,82,22.05,6.22,6.22,0,0,0,80.3,26a2.22,2.22,0,0,0,2.27,2.4A2.59,2.59,0,0,0,85,26.74a7.18,7.18,0,0,0,.49-2.89,10.86,10.86,0,0,0-.72-4l1.6-.47a9.58,9.58,0,0,0,3.55,4.91l-.83,1.58-.1-.12-.2-.17a10.62,10.62,0,0,1-2.13-2.73A8.63,8.63,0,0,1,87,25.14C87,28,85.14,30,82.63,30a4.29,4.29,0,0,1-2.29-.63A4,4,0,0,1,78.69,26a6.53,6.53,0,0,1,.92-3.2A8.46,8.46,0,0,1,81,21.1a1.42,1.42,0,0,0,.23-.2.6.6,0,0,1,.14-.15l-.2,0-.17,0a18.36,18.36,0,0,1-2.22.25l-.33,0Zm9.16-1a8.17,8.17,0,0,1,1.4,1.95L88,21a8.92,8.92,0,0,0-1.4-2Zm2.06,1.6a9.69,9.69,0,0,0-1.35-1.92l.89-.47a7.54,7.54,0,0,1,1.38,1.88Z"/><path class="cls-3" d="M95.44,24.11a4.8,4.8,0,0,1,2.43-.57c2.15,0,3.55,1.12,3.55,2.83a3.15,3.15,0,0,1-1.56,2.7,6.43,6.43,0,0,1-3.31.78,10.43,10.43,0,0,1-3.2-.49,6.28,6.28,0,0,0-.24-1.75,9,9,0,0,0,3.38.74c1.92,0,3.21-.78,3.21-2,0-1-.87-1.53-2.35-1.53a8,8,0,0,0-5.16,2.22l-1-1.38a12.22,12.22,0,0,0,1.74-1.25,44,44,0,0,0,4-3.7l.14-.14a.57.57,0,0,0,.1-.11H97c-.53.08-2.15.17-3.29.2a7.41,7.41,0,0,0-1.1.08l0-1.58a10.33,10.33,0,0,0,1.81.09c1.29,0,2.77-.06,3.78-.16a2.06,2.06,0,0,0,.73-.14l.85,1.21a18.06,18.06,0,0,0-2.3,2.12,20.07,20.07,0,0,1-2.13,1.82l0,0Z"/><path class="cls-3" d="M65.14,41.14a9.08,9.08,0,0,0,5.58,6,5.65,5.65,0,0,0-1,1.53,10.79,10.79,0,0,1-3.28-2.43,10,10,0,0,1-2-3.22,8.05,8.05,0,0,1-2.16,3.56,10,10,0,0,1-3.18,2.09,5.41,5.41,0,0,0-.93-1.4,9.37,9.37,0,0,0,2.15-1.13,6.75,6.75,0,0,0,3-5H60.19a9.6,9.6,0,0,0-1.66.1V39.55a10.18,10.18,0,0,0,1.68.09h3.26c0-.66,0-.87,0-1.57a8,8,0,0,0-.09-1.32h1.76a9.94,9.94,0,0,0-.1,1.55c0,.55,0,.85,0,1.34h3.52a10.8,10.8,0,0,0,1.68-.09v1.69a11.33,11.33,0,0,0-1.67-.1Z"/><path class="cls-3" d="M74.36,45a10.15,10.15,0,0,0-1.53.08V43.59a10.26,10.26,0,0,0,1.4.08H81a13.22,13.22,0,0,0,1.57-.08v1.49A10.89,10.89,0,0,0,81,45H78.34v2H82a13,13,0,0,0,1.63-.08v1.48A12.54,12.54,0,0,0,82,48.27H73.39a12.68,12.68,0,0,0-1.65.08V46.87c.29,0,1.08.08,1.65.08h3.47V45Zm2.49-7.66a3.93,3.93,0,0,0-.08-.86H78.4a4.19,4.19,0,0,0-.08.86v.46H82a12.41,12.41,0,0,0,1.46-.07,8.56,8.56,0,0,0,0,1v.73a6.07,6.07,0,0,0,.07,1H82V39.08H79.45v2c0,.26.1.31.52.32.09,0,.25,0,.48,0h.07a4.34,4.34,0,0,0,1.1-.1c.17-.06.23-.24.23-.71A5.07,5.07,0,0,0,83.2,41c-.08.8-.2,1.13-.49,1.34s-.89.32-2.5.32c-1.78,0-2.14-.17-2.14-1.05V39.08H76.91A3.87,3.87,0,0,1,76,41.61a5.29,5.29,0,0,1-1.87,1.26,13.8,13.8,0,0,1-1.46.51,4.47,4.47,0,0,0-.85-1.25,6.12,6.12,0,0,0,2.66-1,2.33,2.33,0,0,0,1-2H73.39v1.77H71.91A6.21,6.21,0,0,0,72,39.78V38.73a7.05,7.05,0,0,0,0-1,12.29,12.29,0,0,0,1.46.07h3.46Z"/><path class="cls-3" d="M86.81,47.1a12,12,0,0,0,.08,1.63H85.34a12.39,12.39,0,0,0,.08-1.65V38.41a14.33,14.33,0,0,0-.06-1.49,12.2,12.2,0,0,0,1.37,0h2.36a11.28,11.28,0,0,0,1.35,0c0,.42,0,.72,0,1.23v2a11.71,11.71,0,0,0,0,1.21c-.34,0-.76,0-1.22,0H86.81Zm0-8.39H89.1v-.66H86.81Zm0,1.62H89.1v-.67H86.81Zm6.82,5.72c0,.5,0,.81,0,1.15.29,0,.77.07,1,.07s.49-.09.49-.36V41.36H92.56c-.47,0-.9,0-1.23,0,0-.39,0-.64,0-1.21v-2c0-.45,0-.82,0-1.23a11.58,11.58,0,0,0,1.36,0h2.55a12,12,0,0,0,1.37,0c0,.48,0,.81,0,1.47V47.1c0,.79-.16,1.14-.64,1.34a4,4,0,0,1-1.5.16c-.19,0-.24,0-.92,0a5,5,0,0,0-.35-1.37H89.59v.74H88.18a9.7,9.7,0,0,0,.09-1.33V43.35c0-.46,0-.84,0-1.2a10.81,10.81,0,0,0,1.24.06h3a10.38,10.38,0,0,0,1.23-.06c0,.35,0,.68,0,1.2Zm-4-1.93H92.3v-.8H89.59Zm0,1.94H92.3V45.2H89.59Zm3.1-7.35h2.48v-.66H92.69Zm0,1.62h2.48v-.67H92.69Z"/><path class="cls-14" d="M279.08,32.79a32.81,32.81,0,1,0-32.8,32.79A32.79,32.79,0,0,0,279.08,32.79Z"/><path class="cls-3" d="M232,23.12a6,6,0,0,0,1.14-.07v1.46a6.58,6.58,0,0,0-1.07-.06h-4.46a9.39,9.39,0,0,0-1.33.06V23.05a8.83,8.83,0,0,0,1.34.07h2.62A10.76,10.76,0,0,0,231,21l1.37.35a11.56,11.56,0,0,1-.7,1.82Zm-.19-3.59a6.26,6.26,0,0,0,1.21-.07V20.9a5.1,5.1,0,0,0-1.11-.07h-4.26a5.39,5.39,0,0,0-1.09.07V19.46a6.49,6.49,0,0,0,1.26.07h1.36v-.37a4.8,4.8,0,0,0-.08-.93h1.58a5.94,5.94,0,0,0-.06.93v.37Zm-3.35,10.92h-1.43a10.84,10.84,0,0,0,.05-1.25V26.32a10,10,0,0,0,0-1.09,9.93,9.93,0,0,0,1.06,0h3.43a6.57,6.57,0,0,0,1,0,9,9,0,0,0,0,1v3.23a6.49,6.49,0,0,0,.06,1h-1.46v-.76h-2.6Zm.21-9.61a9.09,9.09,0,0,1,.7,1.86l-1.32.4a8,8,0,0,0-.63-1.86Zm-.21,7.57h2.61V26.54h-2.61Zm10.13-8.95a5.43,5.43,0,0,0-.26.59,26.85,26.85,0,0,1-1.44,3.16,6,6,0,0,1,1.28,1.93,5,5,0,0,1,.37,1.84,1.61,1.61,0,0,1-.94,1.66,3.44,3.44,0,0,1-1.36.18,5.57,5.57,0,0,1-.66,0,3.22,3.22,0,0,0-.31-1.45,5.33,5.33,0,0,0,1,.08c.66,0,.87-.14.87-.57a3.88,3.88,0,0,0-.42-1.71,5.54,5.54,0,0,0-1.38-1.73,14.64,14.64,0,0,0,1.46-3.48H235V29a9.93,9.93,0,0,0,.09,1.55h-1.56a13.11,13.11,0,0,0,.08-1.51V19.67a10,10,0,0,0-.06-1.11,9.08,9.08,0,0,0,1.09.05h2.3a5.45,5.45,0,0,0,1.05-.06Z"/><path class="cls-3" d="M245.78,25.8l-1.05.05c-1.37.08-2,.12-2.2.16l-.2-1.29a4.16,4.16,0,0,0,.58,0h1a7.43,7.43,0,0,0,.64-1.1h-2.48a22.13,22.13,0,0,1-.45,3.79,9.11,9.11,0,0,1-1.08,3,6.15,6.15,0,0,0-1.18-1.21,7.16,7.16,0,0,0,1-2.6,32.88,32.88,0,0,0,.44-6.53,12.13,12.13,0,0,0-.08-1.51,12.83,12.83,0,0,0,1.74.08h7.3a11.13,11.13,0,0,0,1.46-.07,9,9,0,0,0,0,1.06v1.25a6.94,6.94,0,0,0,0,1c-.49,0-.86,0-1.42,0h-7.64l0,.7h7.79a11.27,11.27,0,0,0,1.55-.06v1.28a10.69,10.69,0,0,0-1.41-.06h-.87a28,28,0,0,1,2,2.07l-1.21.69-.68-.85-2.08.16v1.09h2.38a8.92,8.92,0,0,0,1.32,0V28a13.07,13.07,0,0,0-1.34-.05h-2.36v1h2.92a9.45,9.45,0,0,0,1.61-.07v1.35a11.2,11.2,0,0,0-1.77-.08h-6.78a12,12,0,0,0-1.67.08V28.88a9.19,9.19,0,0,0,1.54.07h2.72V28h-2a13.22,13.22,0,0,0-1.37.05V26.76a10.54,10.54,0,0,0,1.38,0h1.95Zm4-5.16v-.86h-7.63v.86Zm-3.73,3a10.92,10.92,0,0,1-.66,1.07c1.07,0,1.75,0,2-.07l1-.07c-.24-.24-.36-.35-.7-.64l.61-.29Z"/><path class="cls-3" d="M258.67,20.71a5.6,5.6,0,0,0,.85,0v1.22a7.82,7.82,0,0,0-.85,0h-.89a3.39,3.39,0,0,0,1.17.85,4.45,4.45,0,0,0-.77,1.09A4.64,4.64,0,0,1,257,22.53c0,.28,0,.44,0,.55v.48a2,2,0,0,0,0,.49h-1.42a3.42,3.42,0,0,0,0-.44V23.1a4.93,4.93,0,0,1,0-.57,7.73,7.73,0,0,1-2.17,2.09,4.49,4.49,0,0,0-.86-1.1,5.35,5.35,0,0,0,2.12-1.67h-.71a6.57,6.57,0,0,0-1.11.07V20.64a5.72,5.72,0,0,0,1.12.07h1.58V19.14a3.81,3.81,0,0,0-.07-.9h1.45a5.27,5.27,0,0,0-.05.88v1.59Zm-.68,9a6.38,6.38,0,0,0-1.23-.81,7.06,7.06,0,0,1-3.18,1.58,5.58,5.58,0,0,0-.69-1.22,7.27,7.27,0,0,0,2.63-1c-.66-.29-1-.44-2-.78a11.05,11.05,0,0,0,.87-1.32H254a6,6,0,0,0-1.05.07V24.94A5.91,5.91,0,0,0,254,25h1a9.5,9.5,0,0,0,.35-.94l1.38.27c-.12.33-.17.42-.28.67h2.1a5,5,0,0,0,1-.06v1.34a5.36,5.36,0,0,0-1.07-.07,5,5,0,0,1-.8,1.7,8.45,8.45,0,0,1,1.08.6Zm-3.51-11.38a6.58,6.58,0,0,1,.94,1.76l-1.17.44a6.7,6.7,0,0,0-.9-1.77Zm1.36,7.84c-.19.32-.23.39-.46.75.55.2.73.26,1.13.44a3.41,3.41,0,0,0,.59-1.19Zm3.6-7.37a10.49,10.49,0,0,1-1,1.79l-1.13-.5a6.67,6.67,0,0,0,.95-1.78Zm5.79,3a6.51,6.51,0,0,0-.93-.05A10.87,10.87,0,0,1,262.94,27a7,7,0,0,0,2.53,2.07,6.24,6.24,0,0,0-.77,1.41,9,9,0,0,1-2.6-2.28,10.11,10.11,0,0,1-3,2.37,4,4,0,0,0-.71-1.32,8.39,8.39,0,0,0,1.05-.58A8.07,8.07,0,0,0,261.31,27a9,9,0,0,1-1.12-3.12c-.24.37-.33.51-.61.88a4.85,4.85,0,0,0-1-1A9.8,9.8,0,0,0,260.41,20a8.81,8.81,0,0,0,.32-1.8l1.47.29a7,7,0,0,0-.19.73c-.08.35-.2.8-.35,1.32H264a7.44,7.44,0,0,0,1.25-.07Zm-4-.05c-.11.24-.11.24-.18.41a10.47,10.47,0,0,0,1.07,3.5,9.86,9.86,0,0,0,.82-3.91Z"/><path class="cls-3" d="M222.71,38.86a10.55,10.55,0,0,0,1.78.12l.62,0a15.83,15.83,0,0,0,.25-2,1.25,1.25,0,0,0,0-.24l1.76.16a8.4,8.4,0,0,0-.25,1.28c-.07.37-.08.45-.13.76a11.56,11.56,0,0,0,2.27-.4l.07,1.52-.43.07a18.09,18.09,0,0,1-2.18.28c-.15.82-.48,2.23-.83,3.44a43,43,0,0,1-1.49,4.4l-1.67-.65a28.3,28.3,0,0,0,2.38-7.15h-2.15Zm6.6,5.15a2.23,2.23,0,0,0-.69,1.47c0,.67.66,1,2,1a10.16,10.16,0,0,0,3-.49l.12,1.63c-.24,0-.35,0-.65.1a16.72,16.72,0,0,1-2.48.21,5.39,5.39,0,0,1-2.67-.53,1.93,1.93,0,0,1-.94-1.64,3.76,3.76,0,0,1,1-2.3Zm3.95-1.74a15.35,15.35,0,0,0-1.68-.09,14,14,0,0,0-3.51.39L228,41.1a17.55,17.55,0,0,1,4-.42h1.32Z"/><path class="cls-3" d="M242.93,37.82a21.07,21.07,0,0,0-1.64,1.46c-.67.63-1.61,1.37-3.16,2.56-.41.3-.51.41-.51.55s0,.23,1.2,1.11A45.45,45.45,0,0,1,243,47a3.25,3.25,0,0,0,.38.34L242,48.68a12.63,12.63,0,0,0-1.72-1.82A43,43,0,0,0,236.87,44c-.88-.68-1.12-1-1.12-1.65a1.53,1.53,0,0,1,.44-1.08,7.7,7.7,0,0,1,1.17-.95,30.88,30.88,0,0,0,3.07-2.59,6.42,6.42,0,0,0,1-1.11Z"/><path class="cls-3" d="M246.06,39.26a9.71,9.71,0,0,0,1.29.06c1,0,2.76-.12,3.59-.22-.23-.59-.8-2-.87-2.1l1.72-.23a11.33,11.33,0,0,0,.73,2.13,19.94,19.94,0,0,0,3.26-.79L256,39.7c-.34,0-.49.09-.94.18-.2,0-.85.19-2,.4.47.89.78,1.45.91,1.69.36.61,1,1.47,1.41,2.1l-1.54.7a2.39,2.39,0,0,0-.92-.57,6.65,6.65,0,0,0-2.1-.3c-1.81,0-2.87.54-2.87,1.48s1,1.35,2.79,1.35a9.14,9.14,0,0,0,4-.9l.22,1.71a13.89,13.89,0,0,1-4.22.71,5.46,5.46,0,0,1-3.69-1,2.45,2.45,0,0,1-.79-1.79,2.59,2.59,0,0,1,1-2,5.08,5.08,0,0,1,3.39-1,6.33,6.33,0,0,1,2.3.4,14.06,14.06,0,0,1-1.44-2.42,44.23,44.23,0,0,1-4.72.32l-.58,0Z"/><path class="cls-3" d="M260.76,42.78l.25-.29a2.47,2.47,0,0,1,1.71-.79,1.79,1.79,0,0,1,1.49.76c.27.43.34.9.34,2.43,0,1,.05,1.22.29,1.42a1.08,1.08,0,0,0,.7.19c.71,0,1.28-.49,1.66-1.42a8.43,8.43,0,0,0,.51-2.12,4.07,4.07,0,0,0,1.46,1c-.57,2.75-1.87,4.13-3.88,4.13a2.08,2.08,0,0,1-2.09-1.15,4,4,0,0,1-.22-1.48v-.13c0-.48,0-.8,0-.93a1.77,1.77,0,0,0-.11-.78.65.65,0,0,0-.6-.31c-.71,0-1.46.66-2.11,1.86a15.68,15.68,0,0,0-1.12,3l-1.71-.55c.18-.39.3-.71.73-1.86,3.06-8.5,3.06-8.5,3.15-9l1.8.45a12.21,12.21,0,0,0-.66,1.53c-.75,1.94-1.34,3.39-1.63,4Z"/><path class="cls-14" d="M447.09,32.79a32.81,32.81,0,1,0-32.81,32.79A32.8,32.8,0,0,0,447.09,32.79Z"/><path class="cls-3" d="M403.08,26.21c.55-.2.72-.25,1.36-.5V19.82a11.12,11.12,0,0,0-.08-1.53H406a10.85,10.85,0,0,0-.08,1.53v9.4a8.65,8.65,0,0,0,1.43-1,10.74,10.74,0,0,0,1.46-1.61,14.39,14.39,0,0,1-1.88-6.23,3.91,3.91,0,0,0-.69.06v-1.5a11.15,11.15,0,0,0,1.4.08h4.09a9.47,9.47,0,0,0,1.07,0c0,.16,0,.16-.07.48a17.46,17.46,0,0,1-2.19,7.12A10.78,10.78,0,0,0,413.41,29a7.18,7.18,0,0,0-.76,1.49,14.32,14.32,0,0,1-3-2.7,11.8,11.8,0,0,1-3,2.78,3.43,3.43,0,0,0-.79-1.26c0,.49,0,.77.08,1.16h-1.59a11.41,11.41,0,0,0,.08-1.53V27.08c-.75.3-1.68.66-2.73,1-.28.09-.34.12-.62.23l-.27-1.53a8.16,8.16,0,0,0,.87-.19V21.06a11.12,11.12,0,0,0-.08-1.53h1.55a9.45,9.45,0,0,0-.08,1.53Zm5.17-5.88a19.09,19.09,0,0,0,.39,2.3,9.71,9.71,0,0,0,1,2.59,14.09,14.09,0,0,0,1.46-4.89Z"/><path class="cls-3" d="M414.22,23.78a3.87,3.87,0,0,0,.62,0h.4a9.6,9.6,0,0,0,.66-.89,15.25,15.25,0,0,0-1.66-2l.73-1.13.39.42a7.83,7.83,0,0,0,1-2.1l1.31.48a3.46,3.46,0,0,0-.28.49,20.84,20.84,0,0,1-1.24,2.1,3.32,3.32,0,0,0,.21.27l.3.36A14.48,14.48,0,0,0,418,19.52l1.21.63c-.11.18-.21.3-.46.69-.45.74-1.56,2.3-2,2.91.39,0,.86-.05,1.39-.09a7.71,7.71,0,0,0-.41-1l1-.48a20.51,20.51,0,0,1,1,2.65V21.75a12.81,12.81,0,0,0-.05-1.4,10,10,0,0,0,1.21.06h1.41v-.88a9.1,9.1,0,0,0-.08-1.21h1.48a7.64,7.64,0,0,0-.07,1.22v.87H425a9,9,0,0,0,1.2-.06,9.47,9.47,0,0,0-.06,1.41v7.15c0,.76-.14,1.08-.56,1.25a3.33,3.33,0,0,1-1.42.16,7.31,7.31,0,0,1-.8,0,3.89,3.89,0,0,0-.36-1.42,8.47,8.47,0,0,0,1.31.12c.4,0,.53-.08.53-.33V26.48a5.7,5.7,0,0,0-.53,1,6.87,6.87,0,0,1-.91-1.5,7.89,7.89,0,0,1-.53-1.86,7.31,7.31,0,0,1-.57,2,6.45,6.45,0,0,1-.84,1.43,6.09,6.09,0,0,0-.58-1v2.55a12.55,12.55,0,0,0,.05,1.42h-1.42c0-.44.06-.87.06-1.53V25l-1,.44c-.08-.29-.1-.34-.15-.57l-.84.09v4.19a8.86,8.86,0,0,0,.08,1.4h-1.45a9,9,0,0,0,.08-1.4V25a10,10,0,0,0-1.95.15Zm1.66,2.07a17.74,17.74,0,0,1-.49,4l-1.16-.57a11.83,11.83,0,0,0,.46-3.62Zm3-.23a24.51,24.51,0,0,1,.4,3.2l-1.11.26a17.86,17.86,0,0,0-.3-3.24Zm2,.31a6.59,6.59,0,0,0,1.26-4.2h-1.26Zm2.59-4.2a6.53,6.53,0,0,0,.56,2.72,6,6,0,0,0,.81,1.38v-4.1Z"/><path class="cls-3" d="M390.2,38.86A10.55,10.55,0,0,0,392,39c.16,0,.31,0,.61,0a15.83,15.83,0,0,0,.25-2s0-.13,0-.24l1.76.16a6.73,6.73,0,0,0-.26,1.28c-.06.37-.08.45-.13.76a11.42,11.42,0,0,0,2.27-.4l.07,1.52-.43.07a17.84,17.84,0,0,1-2.18.28c-.14.82-.47,2.23-.82,3.44a45.63,45.63,0,0,1-1.49,4.4L390,47.55a28.7,28.7,0,0,0,2.38-7.15h-2.16ZM396.79,44a2.23,2.23,0,0,0-.69,1.47c0,.67.67,1,2,1a10.09,10.09,0,0,0,3-.49l.12,1.63c-.24,0-.34,0-.65.1a16.6,16.6,0,0,1-2.47.21,5.37,5.37,0,0,1-2.67-.53,1.94,1.94,0,0,1-.95-1.64,3.73,3.73,0,0,1,1-2.3Zm3.95-1.74a15.3,15.3,0,0,0-1.67-.09,14,14,0,0,0-3.51.39l-.12-1.47a17.44,17.44,0,0,1,4-.42h1.32Z"/><path class="cls-3" d="M403,41.64a7.38,7.38,0,0,0,1.38-.26,18.66,18.66,0,0,1,4.11-.55,3.42,3.42,0,0,1,3.14,1.35,3,3,0,0,1,.49,1.72c0,1.76-1.25,3.2-3.37,3.86a13,13,0,0,1-2.88.51,4.19,4.19,0,0,0-.57-1.52h.2a11.83,11.83,0,0,0,1.89-.2,4.79,4.79,0,0,0,2.22-.9,2.15,2.15,0,0,0,.94-1.79c0-1-.77-1.6-2.18-1.6a15.07,15.07,0,0,0-3.5.52,8.11,8.11,0,0,0-1.54.45Z"/><path class="cls-3" d="M417.23,42.82a.88.88,0,0,1-.06.18c0,.06-.05.19-.1.4a16,16,0,0,1-1.71,4.28,5.05,5.05,0,0,0-1.42-.89,13,13,0,0,0,1.74-4.46Zm5.34-3.22a3.18,3.18,0,0,0-1.13.48c-.85.55-1.32,1.1-1.32,1.6a1.28,1.28,0,0,0,.13.49c.13.25.18.32,1,1.17a4.84,4.84,0,0,1,.92,1.26,3,3,0,0,1,.26,1.17,2.41,2.41,0,0,1-.85,1.82,2.64,2.64,0,0,1-1.81.58,4.6,4.6,0,0,1-2.79-1,6.68,6.68,0,0,0,.37-1.62,3.57,3.57,0,0,0,2.29,1.1.94.94,0,0,0,1-.92,1.68,1.68,0,0,0-.21-.74,4.8,4.8,0,0,0-.83-1.12,2.82,2.82,0,0,1-1-2,2.59,2.59,0,0,1,.73-1.73,4.08,4.08,0,0,1,1-.79l-.18,0-.26,0a11.36,11.36,0,0,1-2.67-.71l-.46-.16.59-1.47a8.25,8.25,0,0,0,1.77.65,15.28,15.28,0,0,0,3.24.49h.27Zm1.48,2.49a16,16,0,0,1,2.16,4.58l-1.56.75a13.8,13.8,0,0,0-2-4.73Zm2.13-2.9a1.55,1.55,0,1,1-1.55-1.53A1.55,1.55,0,0,1,426.18,39.19Zm-2.42,0a.88.88,0,1,0,1.75,0,.88.88,0,0,0-1.75,0Z"/><path class="cls-3" d="M430.46,36.83a12.56,12.56,0,0,0-.48,2.56c-.09.56-.14,1-.17,1.33h0a1.77,1.77,0,0,0,.08-.29,5.17,5.17,0,0,1,.84-1.58,3.15,3.15,0,0,1,2.52-1.36,2.79,2.79,0,0,1,2.28,1.2,5.57,5.57,0,0,1,1,3.53,5.57,5.57,0,0,1-3.44,5.46,11.25,11.25,0,0,1-2.6.75,5,5,0,0,0-.79-1.57,8,8,0,0,0,2.92-.76A4.05,4.05,0,0,0,434.86,42c0-1.91-.64-3-1.78-3a2,2,0,0,0-1.43.7A6.36,6.36,0,0,0,430,44.05v.28l-1.6,0a.71.71,0,0,0,0-.17v-.26c0-.38,0-1.36,0-1.63,0-1.08.08-2.55.18-3.47l.2-1.65a2.57,2.57,0,0,0,0-.45Z"/><line class="cls-15" x1="205.57" y1="33.35" x2="134.71" y2="33.35"/><polygon class="cls-16" points="137.35 24.33 121.74 33.34 137.35 42.36 137.35 24.33"/><line class="cls-15" x1="287.28" y1="33.35" x2="358.14" y2="33.35"/><polygon class="cls-16" points="355.5 42.36 371.12 33.34 355.5 24.33 355.5 42.36"/></svg>