<svg id="レイヤー_1" data-name="レイヤー 1" xmlns="http://www.w3.org/2000/svg" viewBox="0 0 437 46"><defs><style>.cls-1{fill:#231815;}</style></defs><path class="cls-1" d="M3.41,12.11V4H39.1a110.58,110.58,0,0,1-8,20.16,136.87,136.87,0,0,1,12.74,21.2H33.13a77.83,77.83,0,0,0-6.62-12.8C21.82,41,15.31,45.26,6.22,45.85H0V37.5H3.11c7.5,0,11.36-1.83,15-7.31,2.42-3.41,6.22-11.32,8.69-18.08Z"/><path class="cls-1" d="M49.66,19.81c5.88-2.07,8.05-6.22,9-17.34h9a49.92,49.92,0,0,1-1.92,9.24H92.32v8.05H81.51V29C81.46,38.84,75.34,45.26,66,45.36H52.63V37.65H63.14c6,.15,9.09-2.77,9.28-8.7V19.76h-10c-2.52,4.55-5.78,6.87-12.74,8.9Z"/><path class="cls-1" d="M112.56,3v21.5c.2,12.55-5.14,20.21-15,21.49V36.56c4.79-1.43,6.32-4.1,6.61-11.31V3ZM118,3h8.54V35.53c6.86-.35,7.75-1.59,7.85-11.22V12.75h8.3V25.5c0,8.3-1,12-4,14.87-3.16,2.91-6.77,4-13.24,4.05H118Z"/><path class="cls-1" d="M163.75,2.22v13.2c11.51,2.76,15.7,4,23,6.47V31a201.9,201.9,0,0,0-23-6.72V46h-9V2.22Z"/><path class="cls-1" d="M240.57,7.36V22.23c0,8.65-2.32,14.09-7.5,17.94-4.35,3.36-9.83,4.64-20.3,4.74H199.1V36.37h13.82c5.88,0,10.67-.84,13-2.18,3.6-1.78,5.82-5.63,5.87-10.18V7.36Zm-41.08-4.1c8.79,2.27,18.22,5.09,22.62,6.77v8.89c-7.66-2.61-16.2-5.23-22.62-6.91Z"/><path class="cls-1" d="M246.93,36.17c4.1-.05,6.32-1.19,8.35-4.4l8-12.4H247.63V11.71h23.79V2.92h8.89v8.79h9.53v7.66h-9.53V45.85h-8.89v-23l-8.64,13.24c-3.85,6.32-7.75,8.5-15.85,8.84Z"/><path class="cls-1" d="M338.27,19.91v8.4H297.83v-8.4Z"/><path class="cls-1" d="M345.67,19.71c4.74-1,7.3-5.68,7.8-14.23h24.68V9.14h9.24V21c-.05,11.21-1.34,15.32-5.93,19.66-4.1,3.56-7.26,4.4-17,4.45h-17v-8h15.85c6.77-.05,9.23-.45,11-1.68,2.13-1.53,3-3,3.46-6h-19.6V21.59h20.39V13H360.82c-1.77,9.09-7.25,14.62-15.15,15.36ZM384.28.05V7.66h-4.59V.05Zm6.27,0V7.66h-4.69V0Z"/><path class="cls-1" d="M437,19.91v8.4H396.56v-8.4Z"/></svg>