<svg id="レイヤー_1" data-name="レイヤー 1" xmlns="http://www.w3.org/2000/svg" viewBox="0 0 772 51"><defs><style>.cls-1{fill:#738da0;}</style></defs><path class="cls-1" d="M28.82,20a33.28,33.28,0,0,0,7.83,13.37c3.89,4.21,7.94,6.88,14.18,9.38a28.59,28.59,0,0,0-4.64,7.3A42.3,42.3,0,0,1,32.45,39.7a38.18,38.18,0,0,1-6.93-11,31.8,31.8,0,0,1-7.46,12A39.51,39.51,0,0,1,4.42,50.09,26.45,26.45,0,0,0,0,43.33a36.13,36.13,0,0,0,9.06-4.8C15.72,33.73,19.13,28,20.25,20H8.58a46.93,46.93,0,0,0-7.09.32V12.63A59.78,59.78,0,0,0,8.58,13h12.3c.06-2.29.11-3.73.11-5.54a32.14,32.14,0,0,0-.37-5.7h8.31c-.32,2-.32,2.39-.37,7.56,0,1.44-.06,1.87-.11,3.68H41.66a62.92,62.92,0,0,0,7.09-.32v7.73a53.61,53.61,0,0,0-7-.32Z"/><path class="cls-1" d="M76.23,20.14c-.69-.05-.9-.05-1.7-.05h-.8V33.36c1.6-.69,2.29-1,4.58-2.13L78.47,38A105.89,105.89,0,0,1,65.2,43.81c-1.54.58-2,.8-2.77,1.11l-1.22-7.24a28.08,28.08,0,0,0,6-1.71V20.09h-.9a19.23,19.23,0,0,0-4,.27V13.64a19.23,19.23,0,0,0,4,.27h.9V7.41a38.35,38.35,0,0,0-.32-6.24h7.2a38,38,0,0,0-.32,6.29v6.45h1.06A14.4,14.4,0,0,0,78,13.7v5.54c1.28-.32,1.6-.37,2.77-.69V12.1a40.86,40.86,0,0,0-.27-5.76h7.3a44.24,44.24,0,0,0-.26,5.49v4.69l4.1-1.23V6.66a39.24,39.24,0,0,0-.27-5.54h7.25a49.71,49.71,0,0,0-.32,5.7v6.5l7.46-2.24a31.2,31.2,0,0,0,4.42-1.59c-.11,1.81-.11,2.07-.21,4.31-.06,1.23-.06,1.55-.22,5.23-.21,4.26-.37,6.71-.42,7.4-.43,4.85-1,6.34-2.4,7.3a8.39,8.39,0,0,1-4.37.86,23.25,23.25,0,0,1-2.45-.11A19.46,19.46,0,0,0,98.4,28a11.31,11.31,0,0,0,2.61.37c1.38,0,1.59-.16,1.81-1.81.21-1.49.32-3.89.42-8.31l-4.95,1.54V32.61a41.8,41.8,0,0,0,.26,5.44H91.36a40.43,40.43,0,0,0,.27-5.65V21.85l-4.1,1.28V41c0,.91.26,1.23,1.22,1.44a30.26,30.26,0,0,0,6.18.38c6.45,0,8-.27,8.85-1.34.58-.8.85-2.5.85-5.91a37,37,0,0,0,6.92,1.86c-.26,5.65-1,8.48-2.61,9.81-1.91,1.55-5.48,2.08-14.59,2.08-11.19,0-13.59-1-13.59-5.86V25.21l-.69.21a24.58,24.58,0,0,0-3,1.12Z"/><path class="cls-1" d="M166.8,40c-1.18,1-2.88,2.35-4,3.15a48.86,48.86,0,0,0,9.7,1.22,20.84,20.84,0,0,0-3.3,6.13c-8.69-1.07-14.07-3.2-18.55-7.14V47.8c-3.72.75-6.87,1.28-10.81,1.87-2.18.26-4,.53-5.65.8-.32.05-1,.16-1.92.37l-.9-6.55A27.75,27.75,0,0,1,127.8,51c-3.15-3.84-3.47-4.16-5.44-5.81,3.41-4.26,4.69-9.06,4.69-17.48a39.78,39.78,0,0,0-.21-4.69,57.23,57.23,0,0,0,5.75.22h31.7a45.72,45.72,0,0,0,5.49-.22v4.9a47.83,47.83,0,0,0-5.33-.21H133.71c0,3.2-.05,4.21-.21,6.45h31.59a43.31,43.31,0,0,0,5.22-.21v4.58a32.67,32.67,0,0,0-5.33-.21h-2.61ZM132.86,6.87a48.64,48.64,0,0,0-5.49.22V1.44a46.89,46.89,0,0,0,6,.27H162a49,49,0,0,0,6-.27V7.09a50.46,50.46,0,0,0-5.54-.22H150.65V8.31h15.19c2,0,3.94-.05,5.48-.21a24,24,0,0,0-.21,4.32V15a26.33,26.33,0,0,0,.27,4.53h-6.77V12.74h-14v4.47a34.76,34.76,0,0,0,.21,4.8h-7.13a39.89,39.89,0,0,0,.26-4.8V12.74H130.57V19.5H123.8a27.1,27.1,0,0,0,.32-4.53V12.42a30.39,30.39,0,0,0-.21-4.32,50.27,50.27,0,0,0,5.48.21H144V6.87Zm3.94,31.45H133a30.48,30.48,0,0,1-1.49,5.81,10.13,10.13,0,0,0,1.65.1c.32,0,1.55-.1,3.68-.26Zm-4.32-19.77c.7.05,1.34.1,2.67.1h4.15c1.28,0,2.08,0,2.67-.1v3.3c-.64-.05-1.33-.11-2.67-.11h-4.15a17.7,17.7,0,0,0-2.67.11Zm.06-4.48a16.8,16.8,0,0,0,2.66.11h4.16a16.06,16.06,0,0,0,2.66-.11v3.25a16.8,16.8,0,0,0-2.66-.11H135.2a18.7,18.7,0,0,0-2.66.11Zm3.3,14.81a34.34,34.34,0,0,0,5.06.22H161a35.34,35.34,0,0,0,5.12-.22v4a37.17,37.17,0,0,0-5.23-.21H141a36.24,36.24,0,0,0-5.17.21Zm7.51,14.29c1.55-.22,3.57-.59,6.08-1.07a15.42,15.42,0,0,1-2.77-3.78h-3.31Zm19.4-25.85a18.06,18.06,0,0,0-2.67-.11h-4.9a18.31,18.31,0,0,0-2.61.11V14.07a16.1,16.1,0,0,0,2.61.11h4.9a15.86,15.86,0,0,0,2.67-.11Zm0,4.53a18.85,18.85,0,0,0-2.67-.11h-4.9a18,18,0,0,0-2.61.11v-3.3a19.35,19.35,0,0,0,2.61.1h4.9a18.62,18.62,0,0,0,2.67-.1Zm-9.17,16.47a13.42,13.42,0,0,0,3.57,2.82,22.09,22.09,0,0,0,3.09-2.82Z"/><path class="cls-1" d="M184.69,14.71H185c1.6,0,8-.59,10.71-1a71.42,71.42,0,0,0,1.33-10.77,4.68,4.68,0,0,0-.06-.8l8.26.8a13.53,13.53,0,0,0-.37,1.55c0,.21-.48,2.5-1.23,6.87-.21,1.12-.21,1.17-.37,1.81,1.28-.05,2-.1,2.83-.1,3.78,0,6.55,1,8.31,3.09s2.5,4.79,2.5,9.8c0,9.54-1.6,17-4.31,19.88-1.6,1.76-3.31,2.4-6.24,2.4a28.11,28.11,0,0,1-8.15-1.49,20.52,20.52,0,0,0,.11-2.4,23.83,23.83,0,0,0-.7-5.7,23,23,0,0,0,7.57,2c1.33,0,2.13-.85,2.77-3a51.27,51.27,0,0,0,1.44-12.15c0-2.56-.37-4-1.33-4.8-.7-.69-1.55-.91-3.47-.91-.9,0-1.49.06-2.66.16-1.86,8.69-4.8,16.79-9.75,27.13-.48,1-.53,1.12-.85,1.81l-7.41-4c3.62-4.74,8.15-15.45,10.39-24.35a90.66,90.66,0,0,0-9,1.6ZM220.28,3.84a30.25,30.25,0,0,1,4.9,7l-4.64,2.35A33.85,33.85,0,0,0,215.59,6Zm5.22,8.68A53.83,53.83,0,0,1,234,30.91l-7.35,3.57a51.11,51.11,0,0,0-4-12A35.36,35.36,0,0,0,219,15.61ZM226.67,1a31.25,31.25,0,0,1,4.9,6.77L227,10.18a38.43,38.43,0,0,0-4.85-7Z"/><path class="cls-1" d="M256.12,19.18a35.27,35.27,0,0,0-5,.22V17.21h-5a22.32,22.32,0,0,0,.26-4.05V8.79a37.93,37.93,0,0,0-.21-4.15c1.81.16,3.31.21,6.13.21h13.42v-.8a17,17,0,0,0-.26-3.41h7.67A19.85,19.85,0,0,0,272.85,4v.85h14.23c2.82,0,4.26,0,6.13-.21A34.35,34.35,0,0,0,293,8.69v4.47a31.92,31.92,0,0,0,.22,4.05h-5V19.4a38.16,38.16,0,0,0-5-.22H272.69c-.05,1.66-.05,1.66-.05,2.62h10.28a32.26,32.26,0,0,0,4.85-.22v6a34.58,34.58,0,0,0-4.85-.21h-10.6c-.11,1-.16,1.44-.37,2.61h15.87a38.39,38.39,0,0,0,5.81-.27v6.4a56.06,56.06,0,0,0-6.12-.32H275a14.68,14.68,0,0,0,4.9,3.89c3.41,1.81,7.35,2.93,14.7,4.1a27.83,27.83,0,0,0-3.19,6.82c-6.18-1.33-9.11-2.34-13-4.31a27,27,0,0,1-9.43-8A21.37,21.37,0,0,1,261.35,46c-3.79,2.29-7.3,3.52-13.16,4.58a19.26,19.26,0,0,0-3.25-6.6c5.43-.59,8.36-1.34,11.5-2.94a15.26,15.26,0,0,0,6.34-5.27H251.92a56.67,56.67,0,0,0-6.08.32v-6.4a36.56,36.56,0,0,0,5.65.27H265a21.15,21.15,0,0,0,.43-2.61h-9.27a34.51,34.51,0,0,0-4.9.21v-6a33.07,33.07,0,0,0,4.9.22h9.64c.05-1.28.05-1.28.05-2.62ZM253,10.82v2.72c.8.05,1.6.05,3.09.05h9.81V10.82Zm19.77,0c-.05.69-.05.69-.05,2.77h10.49c1.49,0,2,0,3.15-.05V10.82Z"/><path class="cls-1" d="M306.09,9.27a23.12,23.12,0,0,0,4.32.27h11.4a29.27,29.27,0,0,0,4.31-.21v6.23a25.35,25.35,0,0,0-4.1-.16H310.41a32.31,32.31,0,0,0-4.32.21Zm1.39,41c.16-1.6.26-3.36.26-5.17V36.88a32.48,32.48,0,0,0-.21-4.11c1.12.11,2.4.16,4,.16h9.75a17.19,17.19,0,0,0,3.41-.16,35.69,35.69,0,0,0-.1,3.73v9.06a38.7,38.7,0,0,0,.1,4h-6.07V48h-4.74v2.35Zm.26-48.55a35.64,35.64,0,0,0,4.64.21h7.94A35.47,35.47,0,0,0,325,1.76V7.35c-1.33-.1-2.45-.16-4.63-.16h-7.94c-2.13,0-3.31.06-4.64.16Zm.16,15.93a25.33,25.33,0,0,0,3.36.16h10.23a23,23,0,0,0,3.25-.16v5.55a25.72,25.72,0,0,0-3.25-.16H311.26a26.37,26.37,0,0,0-3.36.16Zm0,7.46a19.47,19.47,0,0,0,3.36.16h10.23a16.89,16.89,0,0,0,3.25-.16V30.7a19.47,19.47,0,0,0-3.36-.16H311.2a26,26,0,0,0-3.3.16Zm5.86,17.38h4.85V38.1h-4.85ZM339.44,9.17h-5.86a51,51,0,0,0-6.39.32V2.34a49.22,49.22,0,0,0,6.39.32H349a50,50,0,0,0,6.4-.32V9.49a51.37,51.37,0,0,0-6.34-.32h-3v12h3.41a34.52,34.52,0,0,0,5.22-.27v7a35.65,35.65,0,0,0-5.22-.26H346.1V42.1h3.68a55.72,55.72,0,0,0,6.18-.32v7.14a55.25,55.25,0,0,0-6.34-.32H332.14a48.18,48.18,0,0,0-6.18.32v-7a18,18,0,0,0,2.77.21V22.22a50.35,50.35,0,0,0-.26-6.18h7.08a46.27,46.27,0,0,0-.26,6.18V42.1h4.15Z"/><path class="cls-1" d="M381.52,3.09c-.53,3.15-1.17,17.37-1.17,26.59,0,5.17.27,7,1.28,8.48,1.12,1.7,3.52,2.66,6.66,2.66,5.65,0,10-3.2,12.41-9.06a34.23,34.23,0,0,0,2.24-9.27,29.2,29.2,0,0,0,7.78,4.85c-2.13,7.62-3.78,11.24-6.55,14.33-4.11,4.53-9.49,6.83-16.31,6.83A18.61,18.61,0,0,1,378,46.1a12.22,12.22,0,0,1-4.8-6.45,30.78,30.78,0,0,1-.8-7.62c0-2.4.06-5.86.22-12.9.16-7.35.21-10.6.21-12.2a30.71,30.71,0,0,0-.21-4Z"/><path class="cls-1" d="M424.78,9.86a42.29,42.29,0,0,0,7.62.53c.37,0,.42,0,1.76-.05a62.3,62.3,0,0,0,.9-7.89v-.9l8.42.69a38.93,38.93,0,0,0-1.07,5.17C442.2,8.85,442.15,9,442,10a56.21,56.21,0,0,0,8.9-1.49l.26,7.3c-1,.1-1,.1-2.93.42a59.48,59.48,0,0,1-7.51.8,127.91,127.91,0,0,1-3.09,13.22c-1.6,5.81-2.19,7.57-4.64,14.6-.53,1.49-1,2.72-1.22,3.68l-8.21-3c3.57-6.87,7.46-18.49,9.33-28.19h-1.49l-5.71-.16c-.37,0-.53.05-1,.05Zm27.76,21.26c-2.13,2.83-2.72,4.11-2.72,5.86,0,2.51,2.45,3.73,7.62,3.73a38.93,38.93,0,0,0,11.93-2.07l.54,7.88-2.72.32a59.65,59.65,0,0,1-10.18.91c-4.9,0-8.36-.69-11-2.29A7.93,7.93,0,0,1,442,38.53c0-2.88,1.12-5.6,4.1-9.7ZM468,24.89a56.31,56.31,0,0,0-6.88-.38A65,65,0,0,0,446.68,26l-.54-7c7.94-1.44,10.6-1.7,16.79-1.7,1.33,0,1.54,0,4.9.05Z"/><path class="cls-1" d="M515.39,10.92a44.06,44.06,0,0,1-3.4,7h4.15a23.71,23.71,0,0,0,2.13-5.6l6.29,1.33a29,29,0,0,1-1.92,4.27h3.46a26.72,26.72,0,0,0,4.16-.22v6a32.62,32.62,0,0,0-4-.21h-4.48v3h3.47a25.33,25.33,0,0,0,4.21-.22v5.39a30.1,30.1,0,0,0-4.16-.22h-3.52v3.09h3.47a26,26,0,0,0,4.21-.21V39.7a30.68,30.68,0,0,0-4.16-.21h-3.52v3.09h4.59a37.9,37.9,0,0,0,4.95-.21V48.5a40.1,40.1,0,0,0-5.17-.32H510v2.29H503.3a47.21,47.21,0,0,0,.32-6.13V31.55c.05-1.71.05-2.72.05-3a18.8,18.8,0,0,1-1.81,2.24,19.52,19.52,0,0,0-1.7-3.67V42.9a23.25,23.25,0,0,0,.16,4h-5.81V44.71h-3V49.4H485.4c.16-1.65.27-3.52.27-5.65V33.36c0-1,0-2,.1-3.3a14.24,14.24,0,0,1-2.5,3.94,29.09,29.09,0,0,0-2.08-8.26,34,34,0,0,0,7.19-17.21h-.85a29.27,29.27,0,0,0-4.53.26V2.08a48.66,48.66,0,0,0,5.33.26h6.34a41.17,41.17,0,0,0,5.43-.26V4.8a20,20,0,0,0,2.88.1h7.57a42.33,42.33,0,0,0,1-4.9l7.13.8c-.37,1.22-.58,1.92-1.17,4.1h9.33a33.48,33.48,0,0,0,4.42-.21,34.62,34.62,0,0,0-.16,4.05V12a25.09,25.09,0,0,0,.21,3.79h-6.55V10.92ZM491.47,38.48h3.09V25.53h-3.09Zm14.12-27.56v5.23h-6.18a26.33,26.33,0,0,0,.21-3.57V8.69a16.63,16.63,0,0,0-2.34-.16h-2.4A46.74,46.74,0,0,1,492,19.4h5.17a29.53,29.53,0,0,0,3.2-.16,36.77,36.77,0,0,0-.16,3.73v.8A33.94,33.94,0,0,0,506.44,16a37.38,37.38,0,0,0,2.4-5.07Zm9.91,15.57v-3H510v3Zm-5.49,8h5.49V31.44H510Zm0,8h5.49V39.49H510Z"/><path class="cls-1" d="M544,14.23h.32c1.59,0,8-.59,10.71-1a72.82,72.82,0,0,0,1.33-10.77,4.12,4.12,0,0,0-.06-.8l8.26.8A13.53,13.53,0,0,0,564.19,4c-.05.16-.48,2.5-1.23,6.87-.21,1.12-.21,1.12-.37,1.81,1.28,0,2-.1,2.82-.1,3.79,0,6.56,1,8.32,3.09s2.5,4.79,2.5,9.8c0,9.54-1.6,17-4.32,19.88-1.59,1.76-3.3,2.4-6.23,2.4a28.11,28.11,0,0,1-8.15-1.49,21,21,0,0,0,.11-2.4,24.35,24.35,0,0,0-.7-5.76,21.91,21.91,0,0,0,7.57,2.08c1.33,0,2.13-.85,2.77-3a51.27,51.27,0,0,0,1.44-12.15c0-2.56-.38-3.95-1.33-4.8-.7-.69-1.55-.91-3.47-.91-.9,0-1.49.06-2.66.11-1.87,8.74-4.8,16.84-9.75,27.18-.48,1-.53,1.12-.85,1.81l-7.41-4c3.62-4.8,8.15-15.46,10.39-24.36a90.09,90.09,0,0,0-8.95,1.6Zm38.36-5.49a53.92,53.92,0,0,1,10.87,21.69L585.93,34c-1.81-9-5.33-16.68-10.23-22.17Z"/><path class="cls-1" d="M624.86,2.18a16.88,16.88,0,0,0-.74,2.88c-.11.48-.38,1.65-.75,3.52-.21.8-.21.8-.32,1.33a38,38,0,0,0,8.05-1.38l.16,7.35a12.22,12.22,0,0,0-1.66.21c-1.86.27-4,.48-8.31.86a105.17,105.17,0,0,1-5.8,15.45c-1.23,2.61-1.71,3.57-3.73,7.41-.7,1.33-.7,1.33-1,2l-7.3-4c3.84-5.06,7.46-12.52,10-20.62-1.6,0-1.6,0-2.88.05h-.64c-.58,0-.58,0-2.39-.1h-2V9.86a40.07,40.07,0,0,0,7.46.53c.32,0,1.33-.05,2.35-.1a43,43,0,0,0,1.43-8.9Zm23.66,44A31.42,31.42,0,0,0,641,39.92a8.49,8.49,0,0,1-1.81,5.7c-1.86,2.29-5.49,3.62-9.86,3.62-7.29,0-12.09-3.78-12.09-9.48,0-4,2.56-7.47,6.77-9a15.92,15.92,0,0,1,5.7-.8,23.38,23.38,0,0,1,3.89.32,46.85,46.85,0,0,1-.27-5.17,33.46,33.46,0,0,1,.43-5.91l7.4.37a16.32,16.32,0,0,0-.69,5.28,51.73,51.73,0,0,0,.48,7.19,36.44,36.44,0,0,1,8,4.64,24.74,24.74,0,0,1,2.08,1.6l.91.69Zm-19-9.86c-2.93,0-4.9,1.28-4.9,3.15s1.65,3.09,4.47,3.09c3.2,0,4.74-1.34,4.74-4a8.56,8.56,0,0,0-.1-1.49A11.21,11.21,0,0,0,629.5,36.29Zm19.34-14.87A69.7,69.7,0,0,0,633,13.86l3.78-6.19a83.35,83.35,0,0,1,15.51,7.14Z"/><path class="cls-1" d="M673.82,10.76a43.69,43.69,0,0,1-6.18,7.31,23.75,23.75,0,0,0-4.21-5.28A26.73,26.73,0,0,0,671.79.21l6.88,1.12c-.8,1.76-.8,1.76-1.5,3.41H683a23.16,23.16,0,0,0,4.9-.32V9.75A28.09,28.09,0,0,0,692.36.27l6.82,1c-1,2.56-1,2.56-1.33,3.41h9.43a37.16,37.16,0,0,0,5.43-.27V11a53.46,53.46,0,0,0-5.43-.27h-3.36a41.62,41.62,0,0,1,2.66,5.39L700,18a35.51,35.51,0,0,0-2.82-7.14h-2.29a44.55,44.55,0,0,1-2.78,4.26c2.19,2.35,5.39,4.37,9.91,6.34A58.09,58.09,0,0,0,714,25a26.8,26.8,0,0,0-3.19,6.88,77.74,77.74,0,0,1-10.71-4.11v2.83c-1.39-.11-3.2-.16-4.69-.16h-14c-2.29,0-3.09.05-4.74.16V27.76a56,56,0,0,1-10.39,4.32A26.61,26.61,0,0,0,663,25.53c8.1-1.71,15.45-5.23,19.88-9.44l-5.44,1.34a40.08,40.08,0,0,0-2.13-6.67Zm3.78,39.33h-6.93c.16-1.7.27-3.57.27-5.8V37.94a42.94,42.94,0,0,0-.21-5.11c1.22.1,2.55.16,4.9.16h25.73a37.07,37.07,0,0,0,5-.22A39.75,39.75,0,0,0,706.1,38v6.39a43.36,43.36,0,0,0,.27,5.76h-7V47.8H677.6Zm0-8.1h21.79V38.64H677.6Zm4.1-31.23a41.75,41.75,0,0,1,1.92,4.53l.59-.74h4.84A24.49,24.49,0,0,0,686,12l1-1.17a32.11,32.11,0,0,0-3.36-.11Zm13.11,14.13a37.83,37.83,0,0,1-6.77-5,44.82,44.82,0,0,1-6.34,5Z"/><path class="cls-1" d="M730.07,15.93c1.49.11,2.19.16,3.14.16a190.64,190.64,0,0,0,19.5-1.17,16.15,16.15,0,0,0,4.59-.9l4.15,5.38c-1,.64-1.44,1-4.42,3.78-3.2,2.93-3.36,3-6,5.33-.32.27-.69.59-1.22,1.07-.8.64-1,.85-1.65,1.33a6.78,6.78,0,0,1,2.77-.53,5,5,0,0,1,4.79,2.71c.53,1.07.59,1.39.91,4.75.26,3.57,1,4.26,4.05,4.26A28.76,28.76,0,0,0,771.2,40l.8,7.89a31.9,31.9,0,0,0-4.79.59,48.73,48.73,0,0,1-7.89.63c-4.58,0-7.14-1-8.58-3.35-.8-1.23-1-2.24-1.17-5.54A10.71,10.71,0,0,0,749,37a2.41,2.41,0,0,0-2.13-1.06c-2.35,0-4.69,1.49-9,5.7a103.66,103.66,0,0,0-7.19,7.78l-5.91-6.71c3.41-2.3,9.85-7.94,19.76-17.32,1.81-1.76,2.51-2.4,4.05-3.79a113.69,113.69,0,0,1-11.88,1.34c-2.72.21-4.58.42-6.18.69Zm6.77-14.06c6.34,1.81,13.32,2.66,22.16,2.77l-1.12,7.14c-11.35-.59-15.93-1.17-23.23-2.93Z"/></svg>