<svg id="レイヤー_1" data-name="レイヤー 1" xmlns="http://www.w3.org/2000/svg" viewBox="0 0 308 35"><defs><style>.cls-1{fill:none;}.cls-2{fill:#738da0;}</style></defs><rect class="cls-1" width="308" height="35"/><path class="cls-2" d="M29.8,22.88a12,12,0,0,1-1.18,1,15.89,15.89,0,0,0,3.1.28,11.18,11.18,0,0,0-1.41,2.62,11.86,11.86,0,0,1-6.61-2.47v1.57c-1.47.3-2.66.49-4.13.67-.69.1-1.36.17-2,.27a6.09,6.09,0,0,0-.71.14l-.29-2.27A9.48,9.48,0,0,1,15.33,27,13.81,13.81,0,0,0,13,24.43c1.22-1.51,1.69-3.23,1.69-6.21a13.87,13.87,0,0,0-.08-1.69c.68.06,1.19.08,2.21.08H28.64a17.74,17.74,0,0,0,2.1-.08v2a18.17,18.17,0,0,0-2-.08H17.57c0,1.12,0,1.53-.1,2.26H28.86a16.67,16.67,0,0,0,2-.08v1.74a16.12,16.12,0,0,0-2-.06H28ZM16.94,10.73c-1,0-1.53,0-2.14,0V8.53a19.25,19.25,0,0,0,2.34.1H27.72a19.25,19.25,0,0,0,2.34-.1v2.25c-.61,0-1.12,0-2.12,0h-4.2v.45h5.39c.79,0,1.49,0,2.14-.06a11.15,11.15,0,0,0-.08,1.63v.92a10,10,0,0,0,.1,1.72h-2.9V13H23.74v1.39c0,.94,0,1.39.06,1.83h-3a11.79,11.79,0,0,0,.1-1.83V13H16.45v2.37h-2.9a10,10,0,0,0,.1-1.7v-.92a11.51,11.51,0,0,0-.08-1.63c.65,0,1.08.06,2.12.06h5.19v-.45Zm1.37,11.6H17.25a13,13,0,0,1-.47,1.89h.49a9.87,9.87,0,0,0,1-.06ZM17,15a4.64,4.64,0,0,0,.86,0h1.57a7.25,7.25,0,0,0,.86,0v1.18a4.64,4.64,0,0,0-.86,0H17.86a4.88,4.88,0,0,0-.86,0Zm0-1.55a4.52,4.52,0,0,0,.86,0h1.57a4.29,4.29,0,0,0,.86,0v1.16a5,5,0,0,0-.86,0H17.88a6,6,0,0,0-.86,0Zm1.19,5.41a13.67,13.67,0,0,0,1.91.06h7.41a14.1,14.1,0,0,0,1.92-.06v1.45a19.62,19.62,0,0,0-2-.06h-7.3a19.54,19.54,0,0,0-2,.06Zm2.95,5c.76-.1,1-.13,1.76-.27a5.47,5.47,0,0,1-.9-1.26h-.86Zm6.66-9.25a5.64,5.64,0,0,0-.86,0H25.15a5.91,5.91,0,0,0-.86,0V13.45a4.58,4.58,0,0,0,.86,0H27a4.4,4.4,0,0,0,.86,0Zm0,1.57a.39.39,0,0,0-.14,0,6.29,6.29,0,0,0-.72,0H25.15a5.44,5.44,0,0,0-.86,0V15a5.19,5.19,0,0,0,.86,0H27a4.76,4.76,0,0,0,.86,0ZM25,22.33a4.61,4.61,0,0,0,1.11.81,8.94,8.94,0,0,0,.87-.81Z"/><path class="cls-2" d="M44.7,15.9a26.47,26.47,0,0,0-3-3.84A14.1,14.1,0,0,0,44.53,8.2l3.06,1.07a18.46,18.46,0,0,1-2.28,2.81,20.68,20.68,0,0,1,2.33,2.61L45.21,15.9h1.38A5.25,5.25,0,0,0,46.51,17a5.41,5.41,0,0,0,2.88,5.22,12.19,12.19,0,0,0,4.9,1.58,13.27,13.27,0,0,0-1.57,3.18,15.19,15.19,0,0,1-5.31-2.41,7.86,7.86,0,0,1-2.47-2.88,6.92,6.92,0,0,1-3.06,3.53A13.34,13.34,0,0,1,37.16,27a10.05,10.05,0,0,0-1.53-3c2.7-.35,4.37-1,5.68-2.12A6.21,6.21,0,0,0,43.41,17a6.41,6.41,0,0,0-.08-1.12ZM42.12,9.25a18.3,18.3,0,0,1-2.41,2.81A21.71,21.71,0,0,1,42.29,15l-2.82,1.43a19.72,19.72,0,0,0-3.39-4.37A15.39,15.39,0,0,0,39,8.18Zm-.34,8.14a17.55,17.55,0,0,1-2.62,4.47l-2.79-1.45a11.22,11.22,0,0,0,2.51-4Zm11.37-8.1a19.19,19.19,0,0,1-2.29,2.79,21,21,0,0,1,2.57,2.76L50.6,16.35a22.72,22.72,0,0,0-3.33-4.23,15.41,15.41,0,0,0,2.94-4Zm.08,8.51a20,20,0,0,1-3,3.81L47.62,19.9a10.82,10.82,0,0,0,2.83-3.49Z"/><path class="cls-2" d="M58.53,13.14h.18c.62,0,2.51-.16,3.78-.32a31.9,31.9,0,0,0,.45-3.88V8.61l3.55.33a8.79,8.79,0,0,0-.31,1.55c-.16.9-.3,1.65-.38,2.1.34,0,.57,0,.85,0a4.32,4.32,0,0,1,2.78.78c1,.81,1.39,2,1.39,4.22,0,3.06-.45,5.61-1.23,7a3.25,3.25,0,0,1-1.26,1.18A3.85,3.85,0,0,1,66.8,26a11.25,11.25,0,0,1-3.11-.53,10.27,10.27,0,0,0,.05-1.14A8.85,8.85,0,0,0,63.45,22a9.14,9.14,0,0,0,2.69.71c.41,0,.66-.26.88-.89a17.47,17.47,0,0,0,.53-4.35,2.29,2.29,0,0,0-.38-1.59c-.21-.25-.49-.33-1.17-.33a7.11,7.11,0,0,0-.79,0,37.61,37.61,0,0,1-1.39,4.88,40.28,40.28,0,0,1-2.08,5.06c-.15.33-.19.43-.31.71L58.2,24.49a29.77,29.77,0,0,0,3.68-8.67,26.63,26.63,0,0,0-3.06.55ZM73.08,11a20.35,20.35,0,0,1,4,8.37l-3.21,1.53a17.92,17.92,0,0,0-3.67-8.57Z"/><path class="cls-2" d="M86.37,12.76a43.29,43.29,0,0,0-.84,4.77A9.78,9.78,0,0,1,91.14,16c3.48,0,5.8,1.82,5.8,4.61a5,5,0,0,1-2.22,4.15,9.52,9.52,0,0,1-5.6,1.42,21,21,0,0,1-4.92-.59,13.3,13.3,0,0,0-.46-3.49A18.2,18.2,0,0,0,89,23c2.59,0,4.31-.92,4.31-2.31,0-1-1-1.65-2.78-1.65a8.47,8.47,0,0,0-4.3,1.18,3.31,3.31,0,0,0-1.09.88L81.86,21a2.44,2.44,0,0,0,.06-.39c.1-.94.51-4.08.9-6.79a11.06,11.06,0,0,0,.12-1.25ZM86,8.45a19.83,19.83,0,0,0,4,1.39c1.33.36,3,.71,3.94.85l-1,3.15a37.58,37.58,0,0,1-8.47-2.57Z"/><path class="cls-2" d="M103.43,21.51c0-.67,0-1,0-1.92a7.61,7.61,0,0,1-1,.9,13.63,13.63,0,0,0-1.1-3.06,13.49,13.49,0,0,0,4.28-4.8L108,14.35c-.71,1-1,1.41-1.65,2.28v7.86a21.25,21.25,0,0,0,.08,2.26h-3.1a13.3,13.3,0,0,0,.12-2ZM107.9,9.78a17.46,17.46,0,0,1-1.55,1.75,16.13,16.13,0,0,1-3.47,2.65,9,9,0,0,0-1.45-2.65A9.83,9.83,0,0,0,105.55,8Zm.84,11.73c-.9,0-1.33,0-1.9.06V19.1a16.18,16.18,0,0,0,1.94.08h6v-.63H109c-.88,0-1.41,0-1.9.06V16.27a13.34,13.34,0,0,0,1.92.06h8.8a15.27,15.27,0,0,0,2-.08v2.36c-.49,0-1-.06-1.9-.06h-.2v.63h.3a16.72,16.72,0,0,0,2-.08v2.49a14.82,14.82,0,0,0-1.9-.08h-.38v2.84a2.1,2.1,0,0,1-.64,1.79,3.8,3.8,0,0,1-2.41.47l-2,0a9.53,9.53,0,0,0-.42-2l-1.6,1.29a15,15,0,0,0-2.53-3.17l1.61-1.14Zm1.12-5.75c-.82,0-1.43,0-1.8,0,0-.6.06-1.17.06-2V10.65c0-.75,0-1.24-.06-1.85a18.18,18.18,0,0,0,2.1.08h6.56a18.35,18.35,0,0,0,2.12-.08,20.27,20.27,0,0,0-.08,2v3a17.77,17.77,0,0,0,.08,2c-.59,0-1.16,0-1.76,0ZM111,11.57h4.88v-.65H111Zm0,2.27h4.88v-.66H111Zm.23,7.67a17.11,17.11,0,0,1,1.91,2.24h.9c.63,0,.78-.09.78-.45v-1.8Z"/><path class="cls-2" d="M134.92,14a34.1,34.1,0,0,1,5.2-.29c.13,0,.54,0,1,0l0,3.31a17.26,17.26,0,0,0-2.56-.14,26.47,26.47,0,0,0-5.51.49l-.2-2.78c-.94.1-1.17.12-1.78.16-.34,1.84-.69,3.29-1.24,5.33-.49,1.72-.6,2.16-1.45,4.69-.31.94-.31.94-.45,1.41l-3.61-1.32a41.78,41.78,0,0,0,3.3-10h-.32c-.62,0-1,0-1.88-.05h-.65l.06-3.19a20.3,20.3,0,0,0,3,.19h.38a19.26,19.26,0,0,0,.33-2.94V8.53l3.67.27a6.26,6.26,0,0,0-.26,1.14c0,.12-.14.69-.31,1.69a23.27,23.27,0,0,0,3.21-.51Zm.69,5.39a3.46,3.46,0,0,0-1.06,2.14c0,.9.8,1.33,2.45,1.33a14.71,14.71,0,0,0,4.62-.76l.24,3.43-1,.12a24.52,24.52,0,0,1-3.82.31c-3.84,0-5.77-1.23-5.77-3.7a6.77,6.77,0,0,1,1.53-3.81Z"/><path class="cls-2" d="M164.64,14.22a9.61,9.61,0,0,0-1-.08,19.78,19.78,0,0,1-.43,3.9,11.09,11.09,0,0,1-1.29,3.33A10.5,10.5,0,0,0,165,23.69a12.1,12.1,0,0,0-1.77,2.9,14.26,14.26,0,0,1-3.17-2.84,14,14,0,0,1-4.24,3,9.53,9.53,0,0,0-2-2.59,11,11,0,0,0,4.57-2.86,13.4,13.4,0,0,1-1.22-3.12,9.39,9.39,0,0,1-.8.88,5.83,5.83,0,0,0-1.53-2.53,5.91,5.91,0,0,0,.75-.8,3.94,3.94,0,0,0-.47,0h-1.51c-.38.37-.51.53-1,.94h.88a5.1,5.1,0,0,0,.94,0l1.08,1.57s-.06,0-.06.06-.06,0-.22.21a12.73,12.73,0,0,1-1.8,1.61c.92-.14,1.35-.22,2.63-.45L156.2,22c-1.44.28-2,.35-2.95.51v2c0,1-.23,1.45-.88,1.72a6.16,6.16,0,0,1-2.29.3l-1.28,0a8.1,8.1,0,0,0-.64-2.55,14.64,14.64,0,0,0,2,.14c.29,0,.35-.06.35-.35V22.8c-.71.08-1.12.14-1.8.18a12.1,12.1,0,0,0-1.83.24l-.33-2.63H147c.69,0,1.94-.08,3.45-.22a4,4,0,0,0-.1-.84h.57a4.09,4.09,0,0,0,.9-.77H149.9a15,15,0,0,1-2.12,1.18,9.36,9.36,0,0,0-1.66-2.06,21.48,21.48,0,0,0,4-2.21h-1.65a14.32,14.32,0,0,0-1.86.11V13.27a18.4,18.4,0,0,0,1.94.1h1.33v-1h-1a12,12,0,0,0-1.6.08V10a13.09,13.09,0,0,0,1.66.1h1V9.71a8.46,8.46,0,0,0-.1-1.32h2.91a6.39,6.39,0,0,0-.1,1.36v.33h.23a5.54,5.54,0,0,0,1.08-.08v1.59A10.88,10.88,0,0,0,155,9L157.47,10a18.45,18.45,0,0,1-1.9,3.33,5.26,5.26,0,0,0,.66,0v1.4a19.46,19.46,0,0,0,1.55-4.4,9.19,9.19,0,0,0,.3-2l2.86.55c-.06.28-.1.39-.14.67a18.39,18.39,0,0,1-.49,1.94h2.26a12.86,12.86,0,0,0,2.07-.12Zm-12.07-.85a9.45,9.45,0,0,0,.76-1H152.2v1Zm6.84.77c-.2.51-.27.68-.45,1.08a11,11,0,0,0,1.1,3.47,12.24,12.24,0,0,0,.82-4.55Z"/><path class="cls-2" d="M168.83,11.39a8.51,8.51,0,0,0,1.58.1h4.51a11.28,11.28,0,0,0,1.37-.06V14A8.91,8.91,0,0,0,175,14h-4.55a11.82,11.82,0,0,0-1.58.08ZM176,25.22a2.65,2.65,0,0,0,0,.47v.47a.53.53,0,0,1,0,.19h-2.69v-.49h-1.21v.83h-2.83c.06-.61.1-1.36.1-1.91V21.61a11.53,11.53,0,0,0-.08-1.45,11.48,11.48,0,0,0,1.4,0h4.17a8.68,8.68,0,0,0,1.14-.06,10.14,10.14,0,0,0,0,1.31v2.1a6.56,6.56,0,0,0,.57-2,58.51,58.51,0,0,0,.33-8V10.75a15.61,15.61,0,0,0-.12-2.16h2.95a16.2,16.2,0,0,0-.1,2.33v5c0,5.85-.49,8.69-1.9,11a9.15,9.15,0,0,0-1.73-2ZM169.47,8.61a13.83,13.83,0,0,0,1.77.08h3A13.75,13.75,0,0,0,176,8.61v2.31c-.49,0-.94-.06-1.76-.06h-3c-.77,0-1.26,0-1.77.06Zm0,6a9.78,9.78,0,0,0,1.16,0h4.17a7.93,7.93,0,0,0,1.1,0V16.8a8.56,8.56,0,0,0-1.1,0h-4.17a8.77,8.77,0,0,0-1.16,0Zm0,2.76a9.6,9.6,0,0,0,1.16,0h4.15a7.94,7.94,0,0,0,1.12,0v2.22a8.36,8.36,0,0,0-1.15,0h-4.16a8.74,8.74,0,0,0-1.12,0Zm2.55,6.2h1.31V22.33h-1.31ZM183.23,9.47a16,16,0,0,0-.07,2V22.43a14,14,0,0,0,.07,2h-2.78a11.92,11.92,0,0,0,.1-2V11.53a15.53,15.53,0,0,0-.08-2.06ZM187,8.53a21.51,21.51,0,0,0-.12,2.72V23.92a24.22,24.22,0,0,0,.12,2.79h-3a18.19,18.19,0,0,0,.12-2.77V11.25a20.35,20.35,0,0,0-.1-2.72Z"/><path class="cls-2" d="M192.22,10.35a18.7,18.7,0,0,0,4.06.28h.55a7.14,7.14,0,0,0,.6-2.18l3.59.28a4.82,4.82,0,0,0-.41.92c-.26.57-.37.88-.39.92l1.19-.08a28.38,28.38,0,0,0,5-.63l.12,3.12-1.76.18c-1.4.13-3.85.27-5.85.33a10.39,10.39,0,0,1-.94,1.45,5.85,5.85,0,0,1,2.49-.59c1.63,0,2.61.63,3,1.9l1.37-.47,1.22-.39a7.87,7.87,0,0,0,1.57-.59l1.19,3.1a32.43,32.43,0,0,0-5,1.34c0,.52,0,.54,0,1.41a11.85,11.85,0,0,0,.08,1.68l-3.19.1a15.71,15.71,0,0,0,.1-2.08l-.18.08a4.25,4.25,0,0,0-1.37.83,1.31,1.31,0,0,0-.51,1c0,.74.72,1,2.62,1a18.53,18.53,0,0,0,6.28-1l.21,3.53a12.27,12.27,0,0,0-1.74.18,38,38,0,0,1-4.73.29,8.91,8.91,0,0,1-4.66-.9,3.16,3.16,0,0,1-1.55-2.78,3.63,3.63,0,0,1,1-2.47,8.67,8.67,0,0,1,2.82-2.1c.47-.24.67-.31,1.45-.67a.81.81,0,0,0-.78-.49,6.54,6.54,0,0,0-3.73,1.88,13.09,13.09,0,0,0-1.88,2l-2.49-2.47a13.21,13.21,0,0,0,2.08-2c.43-.52,1.22-1.66,1.51-2.13l.37-.63h-.62c-.85,0-.85,0-1.69,0-.27,0-.41,0-.69,0h-.29Z"/><path class="cls-2" d="M217.57,14.67a17.91,17.91,0,0,1-2.69,4.06,10.26,10.26,0,0,0-2-2.55,12.5,12.5,0,0,0,3.43-7.28l3.06.73c-.23.66-.23.66-.39,1.19s-.2.69-.33,1.12H221V11a21.72,21.72,0,0,0-.12-2.63h3.35a19.62,19.62,0,0,0-.11,2.63v.9h3.41c1.15,0,2.11,0,3.06-.12v3c-1-.07-1.91-.11-3-.11h-3.51v2.94H227a26.24,26.24,0,0,0,2.74-.12v3c-.88-.08-1.68-.12-2.72-.12h-2.9v3.2h4a28.32,28.32,0,0,0,3.12-.14v3c-1.12-.1-1.94-.14-3-.14H216.86c-1.11,0-2.09,0-3.23.14v-3a30.61,30.61,0,0,0,3.12.14H221v-3.2h-2.43c-1,0-1.84,0-2.69.12V17.51a23.65,23.65,0,0,0,2.63.1H221V14.67Z"/><path class="cls-2" d="M235.92,13.14h.18c.63,0,2.51-.16,3.78-.32a29.89,29.89,0,0,0,.45-3.88V8.61l3.55.33a8.79,8.79,0,0,0-.31,1.55c-.16.9-.3,1.65-.37,2.1.33,0,.56,0,.84,0a4.28,4.28,0,0,1,2.78.78c1,.81,1.39,2,1.39,4.22,0,3.06-.45,5.61-1.23,7a3.15,3.15,0,0,1-1.25,1.18,3.92,3.92,0,0,1-1.53.27,11.25,11.25,0,0,1-3.12-.53,8.57,8.57,0,0,0,.06-1.14,8.87,8.87,0,0,0-.3-2.33,9.14,9.14,0,0,0,2.69.71c.41,0,.67-.26.88-.89a17,17,0,0,0,.53-4.35,2.35,2.35,0,0,0-.37-1.59c-.22-.25-.49-.33-1.18-.33a7,7,0,0,0-.78,0,39.26,39.26,0,0,1-1.39,4.88,41.86,41.86,0,0,1-2.08,5.06c-.16.33-.2.43-.32.71l-3.23-1.71a30,30,0,0,0,3.69-8.67,25.81,25.81,0,0,0-3.06.55ZM250.47,11a20.49,20.49,0,0,1,4,8.37l-3.22,1.53a17.91,17.91,0,0,0-3.66-8.57Z"/><path class="cls-2" d="M264,9.14c-.21,1.23-.45,6.47-.45,9.74,0,2,.08,2.55.41,3.08a2.64,2.64,0,0,0,2.3.94,4.54,4.54,0,0,0,4.35-3.31,15.23,15.23,0,0,0,.78-3.55,11.91,11.91,0,0,0,3.35,2.06c-.74,2.94-1.39,4.37-2.47,5.57a8,8,0,0,1-6.15,2.53,6.33,6.33,0,0,1-4.55-1.49c-1.12-1.08-1.49-2.34-1.49-5.08,0-.51,0-.51.1-4.45,0-2,.08-3.85.08-4.61a9,9,0,0,0-.1-1.49Z"/><path class="cls-2" d="M278.1,10.71c.34,0,.59,0,.75,0,.51,0,1.21,0,3.35-.18,3.06-.2,4.49-.28,10.47-.49a11,11,0,0,0,2.15-.16l.18,3.55a2.89,2.89,0,0,0-.55,0A9.22,9.22,0,0,0,290,14.78c-2,1.2-3.12,2.87-3.12,4.47a2.51,2.51,0,0,0,1.65,2.42,10.36,10.36,0,0,0,3.75.7,3.24,3.24,0,0,0,.58,0l-.45,3.75a5.69,5.69,0,0,0-.72-.1,15.31,15.31,0,0,1-5-1.1,5.56,5.56,0,0,1-3.51-5.37,6.69,6.69,0,0,1,1.67-4.43,8.05,8.05,0,0,1,1.92-1.67L280,14a12.81,12.81,0,0,0-1.68.25Z"/></svg>