<svg id="レイヤー_1" data-name="レイヤー 1" xmlns="http://www.w3.org/2000/svg" viewBox="0 0 66 20"><defs><style>.cls-1{fill:#ffd900;}.cls-2{fill:#df1614;}</style></defs><rect class="cls-1" width="66" height="20" rx="5"/><path class="cls-2" d="M14.669,7.9c.813,2.612,2.749,5.361,5.248,6.411a2.007,2.007,0,0,0-.436.525c-.075.125-.114.187-.176.187-.037,0-.087-.037-.175-.087a11.4,11.4,0,0,1-4.874-6.3,8.807,8.807,0,0,1-.8,2.412,8.94,8.94,0,0,1-3.973,3.924.412.412,0,0,1-.188.075c-.062,0-.1-.037-.187-.162a1.575,1.575,0,0,0-.462-.45,8.058,8.058,0,0,0,4.086-3.7A8.431,8.431,0,0,0,13.581,7.9H10.745c-1.2,0-1.6.025-1.674.025s-.1-.012-.1-.087v-.6c0-.088.013-.1.1-.1s.474.025,1.674.025h2.924c.037-.513.063-1.05.075-1.6a8.389,8.389,0,0,0-.062-1.412c.25.012.625.037.875.075.125.025.175.075.175.137a.422.422,0,0,1-.075.238,2.378,2.378,0,0,0-.1.937c-.013.538-.038,1.087-.088,1.625H17.83c1.2,0,1.6-.025,1.675-.025s.1.012.1.1v.6c0,.075-.012.087-.1.087S19.031,7.9,17.83,7.9Zm-1,4.274c.1-.075.125-.062.188-.013a10.522,10.522,0,0,1,1.587,1.85c.049.075.049.1-.076.2l-.349.262c-.151.113-.188.113-.237.025a9.282,9.282,0,0,0-1.563-1.887c-.062-.062-.062-.087.088-.187Z"/><path class="cls-2" d="M24.307,4.537a.736.736,0,0,0,.275-.025.332.332,0,0,1,.15-.037c.075,0,.125.037.312.237s.238.275.238.338-.05.1-.113.162a1.084,1.084,0,0,0-.237.363c-.362.837-.662,1.462-1.188,2.449a3.754,3.754,0,0,1,1.213,2.512c0,.95-.413,1.562-1.6,1.649-.25.025-.25,0-.313-.262a1.03,1.03,0,0,0-.175-.437c.95.075,1.362-.238,1.362-1.038,0-.7-.337-1.3-1.237-2.349a21.685,21.685,0,0,0,1.3-2.887H22.545v7.423c0,1.75.025,2.55.025,2.612,0,.088-.012.1-.1.1H21.9c-.087,0-.1-.012-.1-.1,0-.062.026-.812.026-2.6v-5.4c0-1.8-.026-2.562-.026-2.637s.013-.1.1-.1.325.025.925.025Zm8.048,5.049c0,.088-.012.1-.1.1-.062,0-.487-.025-1.724-.025H26.857c.237.075.412.15.55.2s.162.1.162.15a.17.17,0,0,1-.076.137.671.671,0,0,0-.187.188l-.187.275h3.2c1.061,0,1.4-.025,1.474-.025s.113.025.113.112c-.039.425-.05.825-.088,1.225a14.311,14.311,0,0,1-.287,2.187c-.175.725-.5,1.012-1.2,1.012-.261,0-.474,0-.761-.025-.2-.025-.2-.025-.263-.275a1.637,1.637,0,0,0-.188-.512,5.329,5.329,0,0,0,1.087.1c.3,0,.513-.125.651-.612a15.556,15.556,0,0,0,.3-2.575h-.775a7.344,7.344,0,0,1-3.187,3.862.55.55,0,0,1-.188.087c-.062,0-.1-.05-.2-.162a1.025,1.025,0,0,0-.375-.263,6.578,6.578,0,0,0,3.224-3.524H28.581a7.61,7.61,0,0,1-2.875,2.987.434.434,0,0,1-.186.087c-.051,0-.075-.037-.138-.1a1.371,1.371,0,0,0-.463-.3,6.257,6.257,0,0,0,2.887-2.674H26.682a7.112,7.112,0,0,1-1.638,1.525.285.285,0,0,1-.175.087c-.049,0-.1-.05-.2-.162a1.018,1.018,0,0,0-.4-.25,5.564,5.564,0,0,0,2.2-2.012,2.163,2.163,0,0,0,.338-.75c-1.088,0-1.487.025-1.55.025-.088,0-.1-.012-.1-.1V9.1c0-.088.012-.1.1-.1s.487.025,1.725.025h3.549c1.237,0,1.662-.025,1.724-.025.088,0,.1.012.1.1ZM31.043,7.112c0,.737.025.987.025,1.062s-.012.1-.087.1-.413-.025-1.438-.025h-1.9c-1.025,0-1.362.025-1.425.025-.087,0-.1-.013-.1-.1s.025-.325.025-1.062V5.737c0-.737-.025-1-.025-1.062,0-.1.013-.113.1-.113.063,0,.4.025,1.425.025h1.9c1.025,0,1.363-.025,1.438-.025s.087.013.087.113c0,.062-.025.325-.025,1.062Zm-.7-1.937H26.831v.949h3.512Zm0,1.512H26.831v.975h3.512Z"/><path class="cls-2" d="M44.643,9.424c0,.1-.013.112-.088.112s-.462-.025-1.649-.025H40.644V13.26c0,.538-.013.75.138.913.112.137.375.2,1.162.2s1.224-.112,1.449-.337c.263-.262.362-.762.375-1.612a1.379,1.379,0,0,0,.525.262c.225.063.225.063.2.263a2.393,2.393,0,0,1-.511,1.624c-.375.363-.838.525-2.075.525-1.05,0-1.525-.087-1.762-.362s-.276-.6-.276-1.4V9.511H38.145c-.051,2.737-1,4.761-3.775,5.674a1.064,1.064,0,0,1-.187.05c-.075,0-.1-.063-.188-.213a1.589,1.589,0,0,0-.387-.425c2.675-.724,3.712-2.349,3.737-5.086H35.67c-1.187,0-1.587.025-1.649.025-.088,0-.1-.012-.1-.112v-.55c0-.088.013-.1.1-.1.062,0,.462.025,1.649.025h3.074V5.575a8.185,8.185,0,0,0-.075-1.413,8.289,8.289,0,0,1,.837.075c.088.013.151.063.151.125a.507.507,0,0,1-.088.238,3.334,3.334,0,0,0-.063.975V8.8h3.4c1.187,0,1.575-.025,1.649-.025s.088.012.088.1Zm-9-4.349c.138-.075.15-.075.2,0a12.505,12.505,0,0,1,1.438,2.449c.037.088.024.088-.138.175l-.362.2c-.164.087-.188.087-.226-.012a11.214,11.214,0,0,0-1.387-2.45c-.05-.062-.05-.087.113-.175Zm7.61.512a.964.964,0,0,0-.2.275,13.067,13.067,0,0,1-1.4,2.162c-.075.1-.125.15-.175.15a.451.451,0,0,1-.188-.1,1.737,1.737,0,0,0-.462-.213,11.643,11.643,0,0,0,1.537-2.374,2.15,2.15,0,0,0,.175-.5,4.828,4.828,0,0,1,.725.338c.075.037.088.062.088.112S43.33,5.525,43.255,5.587Z"/><path class="cls-2" d="M48.033,10.111c0-.475,0-1,.012-1.612a13.481,13.481,0,0,1-1.287,1.787c-.062.075-.112.112-.15.112s-.075-.037-.125-.125a1.839,1.839,0,0,0-.35-.5A13.7,13.7,0,0,0,48.9,5a3.1,3.1,0,0,0,.2-.85,5.58,5.58,0,0,1,.787.287c.087.038.138.075.138.138s-.038.112-.112.175-.151.187-.25.462c-.263.625-.539,1.275-.863,1.925v6.148c0,1.312.025,1.875.025,1.937,0,.088-.013.1-.1.1h-.612c-.088,0-.1-.012-.1-.1,0-.062.026-.625.026-1.937ZM57.268,7.8c0,.088-.013.1-.1.1-.062,0-.487-.025-1.723-.025h-.026V12.1c0,.687.013,1.337.013,1.937,0,.475-.075.687-.338.887-.237.175-.712.213-1.8.213-.249,0-.249,0-.311-.238a2.019,2.019,0,0,0-.25-.587c.449.037,1.024.062,1.412.062s.512-.112.512-.487V7.874H51.782c-1.238,0-1.663.025-1.725.025-.088,0-.1-.012-.1-.1v-.55c0-.087.012-.1.1-.1.062,0,.487.025,1.725.025h2.874V5.712a9.346,9.346,0,0,0-.075-1.525c.3.013.562.038.825.075.1.013.162.063.162.113a.617.617,0,0,1-.087.237,3.921,3.921,0,0,0-.063,1.075V7.174h.026c1.236,0,1.661-.025,1.723-.025.088,0,.1.013.1.1ZM51.132,9.324c.087-.063.1-.063.162,0a10.864,10.864,0,0,1,1.574,2.262c.039.075.026.1-.1.187l-.362.238c-.163.1-.188.1-.238,0A10.111,10.111,0,0,0,50.7,9.724c-.076-.075-.063-.088.087-.188Z"/></svg>