<?xml version="1.0" encoding="UTF-8"?><svg xmlns="http://www.w3.org/2000/svg" viewBox="0 0 273.35 114.46"><defs><style>.d{fill:#fff;}</style></defs><g id="a"/><g id="b"><g id="c"><g><g><path class="d" d="M49.93,87.2v2.28c-4.72,4.38-9.06,8-13.01,10.84-3.95,2.85-7.81,5.04-11.58,6.57-3.77,1.53-7.41,2.3-10.92,2.3-3.04,0-5.64-.5-7.82-1.51-2.18-1.01-3.82-2.48-4.93-4.41-1.11-1.93-1.67-4.22-1.67-6.87,0-2.08,.4-4.29,1.2-6.62,.8-2.33,1.96-4.69,3.48-7.06,1.52-2.38,3.38-4.83,5.59-7.36,2.21-2.53,4.8-5.19,7.78-7.98,3.09-2.88,6.14-5.37,9.15-7.47,3.01-2.1,5.74-3.74,8.18-4.94s4.72-2.09,6.81-2.67c2.09-.59,3.83-.88,5.21-.88s2.6,.28,3.59,.84c.98,.56,1.74,1.38,2.28,2.46,.53,1.08,.8,2.32,.8,3.73,0,2.65-1.08,5.59-3.25,8.84-2.16,3.25-4.86,6.38-8.1,9.4-3.23,3.02-6.32,5.49-9.26,7.4-2.94,1.91-5.05,2.86-6.35,2.86-.87,0-1.68-.29-2.43-.86-.75-.57-1.12-1.22-1.12-1.95,0-1.34,.85-2.95,2.55-4.85,1.7-1.9,3.56-3.64,5.57-5.22,2.01-1.58,3.21-2.37,3.61-2.37,.2,0,.3,.07,.3,.21,0,.21-.15,.57-.44,1.09-.3,.52-.44,.83-.44,.95,0,.19,.08,.28,.25,.28,.48,0,1.86-1.07,4.13-3.2,2.28-2.13,4.36-4.48,6.26-7.05,1.9-2.57,2.85-4.67,2.85-6.31,0-.68-.18-1.2-.53-1.56-.35-.36-.88-.54-1.58-.54-1.97,0-4.96,1.33-8.96,3.99-4.01,2.66-8.11,6.04-12.31,10.16-4.2,4.11-7.71,8.36-10.52,12.74-2.81,4.38-4.22,8.24-4.22,11.56,0,1.92,.34,3.53,1.03,4.81,.69,1.29,1.7,2.28,3.04,2.99,1.34,.7,2.94,1.05,4.83,1.05,4.08,0,8.7-1.32,13.88-3.97,5.17-2.65,10.87-6.55,17.08-11.7Z"/><path class="d" d="M80.15,85.88v2.65c-2.09,1.58-3.76,2.64-5.03,3.16-1.27,.53-3.08,.74-5.46,.63-4.11,4.06-7.73,6.09-10.87,6.09-1.77,0-3.38-.49-4.84-1.46-1.46-.98-2.62-2.31-3.49-3.99-.87-1.69-1.3-3.57-1.3-5.65,0-1.69,.67-3.56,2.02-5.61,1.34-2.06,3.08-3.97,5.22-5.75,2.14-1.78,4.42-3.22,6.86-4.31,2.44-1.09,4.7-1.64,6.79-1.64,1.49,0,2.66,.19,3.51,.57,.85,.38,1.28,.92,1.28,1.6,0,.53-.36,1.13-1.09,1.82,1.2,.21,2.02,.56,2.47,1.05,.44,.49,.66,1.38,.66,2.67s-.36,2.86-1.07,4.78c-.71,1.92-1.68,3.73-2.92,5.42l.85,.71h.71c.54,0,1.07-.11,1.59-.34,.52-.22,.99-.46,1.4-.71,.41-.25,1.31-.81,2.7-1.68Zm-9.77-10.4c-2.63,1.32-4.87,2.51-6.74,3.58-1.87,1.07-3.45,2.15-4.74,3.24-1.3,1.09-2.17,2.19-2.61,3.3-.79,2.95-1.19,4.55-1.19,4.78,0,1.74,1.45,2.61,4.37,2.61,1.36,0,3.64-.97,6.83-2.93-.54-1.24-.81-2.42-.81-3.56,0-1.66,.41-3.35,1.23-5.08,.82-1.73,2.04-3.71,3.65-5.95Z"/><path class="d" d="M101.73,91.37c4.37-3.22,8.11-6.02,11.24-8.4,3.13-2.39,5.59-4.26,7.38-5.63,1.79-1.37,3.36-2.53,4.72-3.48,1.36-.95,2.23-1.42,2.61-1.42,.73-.03,1.42,.6,2.09,1.88,.66,1.28,1,2.3,1,3.06,0,.5-1,1.68-3.01,3.54-2.01,1.86-3.51,3.34-4.51,4.45-1,1.11-1.49,2.27-1.49,3.48,0,.71,.28,1.29,.85,1.72,.57,.43,1.25,.65,2.04,.65,.92,0,2.02-.4,3.3-1.19,1.28-.79,3.3-2.2,6.05-4.23v2.81c-2.75,2.16-5.25,4.03-7.5,5.59-2.25,1.57-4.2,2.74-5.86,3.52-1.66,.78-3.04,1.17-4.15,1.17-.98,0-1.8-.31-2.47-.93-.66-.62-1-1.39-1-2.31s.19-1.81,.57-2.73c.38-.92,.96-2.02,1.76-3.28,.79-1.27,1.83-2.79,3.13-4.57,1.3-1.78,2.48-3.41,3.56-4.88-3.23,2.19-6.09,4.3-8.59,6.33-2.5,2.03-4.54,3.8-6.12,5.32-1.58,1.52-2.83,2.71-3.75,3.58-1.77,1.63-3.42,2.45-4.93,2.45-1.65,0-2.47-.97-2.47-2.93,0-.79,.62-2.21,1.85-4.25,1.23-2.04,2.99-4.65,5.27-7.81,.19-.21,.28-.54,.28-.99,0-.53-.32-.79-.95-.79-.7,0-1.7,.55-3.01,1.64-1.31,1.09-3.85,3.38-7.62,6.86-1.04,.98-2.22,2.25-3.53,3.82-1.31,1.57-2.25,2.62-2.82,3.14-.57,.53-1.14,.79-1.71,.79-1.14,0-2.2-.84-3.18-2.53-.98-1.69-1.47-3.65-1.47-5.89,0-1.63,.32-3.04,.97-4.23,.65-1.19,1.65-2.66,3.01-4.43,2.12-2.56,3.85-4.38,5.2-5.48,1.34-1.09,2.76-1.64,4.25-1.64,.92,0,1.69,.15,2.32,.45,.63,.3,.95,.72,.95,1.25,0,.55-.58,1.46-1.73,2.73-1.16,1.27-2.62,2.57-4.39,3.91-.95,.76-1.85,1.71-2.7,2.83-.85,1.12-1.28,1.93-1.28,2.43,0,.71,.33,1.07,1,1.07,.54,0,1.9-.92,4.08-2.77,2.18-1.84,4.58-3.86,7.19-6.03,2.61-2.17,5.03-3.98,7.26-5.42,2.23-1.44,4.12-2.15,5.67-2.15,.95,0,1.73,.3,2.35,.89,.62,.59,.93,1.32,.93,2.19,0,.58-.47,1.63-1.42,3.14-.95,1.52-2.33,3.39-4.15,5.61-1.82,2.23-4.17,4.92-7.05,8.09Z"/><path class="d" d="M133.1,89.28v-2.77c4.43-4.01,8.25-7.78,11.46-11.31,3.21-3.53,5.75-6.34,7.62-8.42,1.87-2.08,3.51-3.55,4.93-4.41,1.42-.86,3.21-1.29,5.36-1.29,1.07,0,1.61,.34,1.61,1.03,0,.55-.43,1.37-1.3,2.45-.87,1.08-1.99,2.19-3.34,3.32-1.8,1.48-3.57,3.33-5.29,5.56-1.72,2.23-3.68,5.07-5.86,8.52,1.71-1.11,3.68-2.42,5.91-3.93,2.23-1.52,4.05-2.7,5.46-3.56,1.41-.86,2.8-1.54,4.18-2.04,1.38-.5,2.76-.75,4.15-.75,.89,0,1.46,.13,1.73,.4,.27,.26,.4,.78,.4,1.54,0,2-.59,3.96-1.76,5.87-1.17,1.91-2.85,3.89-5.03,5.95-2.18,2.06-4.87,4.3-8.07,6.72,1.11,.34,2.25,.51,3.42,.51,3.67,0,8.59-2.33,14.76-7v2.85c-2.4,1.79-4.75,3.48-7.05,5.06-2.29,1.58-4.45,2.85-6.48,3.8-2.02,.95-3.89,1.42-5.6,1.42-.63,0-1.3-.06-2.02-.18-.71-.12-1.37-.26-1.97-.43-.6-.17-1.38-.42-2.32-.73-.95-.32-1.68-.54-2.18-.67-1.01,.21-1.58,.32-1.71,.32-1.11,0-2.4-.37-3.89-1.11-1.04,1.69-2.19,3.87-3.44,6.54-1.25,2.67-2.3,4.8-3.15,6.39-.85,1.58-1.99,3.1-3.42,4.55-.79,.66-1.34,.99-1.66,.99-1.36,0-2.04-1-2.04-3,0-1.74,.42-3.55,1.26-5.44,.84-1.89,1.87-3.67,3.08-5.36,1.22-1.69,2.55-3.39,4.01-5.12,1.45-1.73,2.48-3.01,3.08-3.85,5-7.17,8.89-13.27,11.67-18.31-7.28,7.38-12.78,12.68-16.51,15.89Zm19.26,1.94c3.13-2.74,5.46-5.07,7-7,1.53-1.92,2.3-3.4,2.3-4.43s-.59-1.46-1.76-1.46c-1.58,0-3.8,1.09-6.67,3.26-2.86,2.17-5.81,5.11-8.85,8.8,2.34-.21,3.91-.28,4.7-.22,.79,.07,1.88,.41,3.27,1.05Z"/><path class="d" d="M178.64,78.88c4.81-3.64,9.47-6.34,14-8.11,4.52-1.77,8.02-2.65,10.49-2.65,.66,0,1.28,.23,1.85,.69,.57,.46,1.02,1,1.35,1.6,.33,.61,.5,1.05,.5,1.34,0,.47-.22,.82-.66,1.05-.44,.22-1.22,.49-2.32,.81,.22,.42,.51,.96,.85,1.62,.35,.66,.62,1.19,.81,1.6,.19,.41,.28,.77,.28,1.09,0,.63-.77,1.81-2.3,3.54-1.53,1.73-2.61,3-3.23,3.82-.62,.82-.93,1.82-.93,3.01,0,1.95,1.08,2.93,3.23,2.93s5.68-1.73,10.39-5.18v2.41c-8,7.41-13.73,11.11-17.18,11.11-1.23,0-2.11-.34-2.63-1.01-.52-.67-.78-1.67-.78-2.98,0-2.08,.9-5.1,2.7-9.05-4.62,4.27-8.05,7.31-10.3,9.11-2.25,1.81-4.1,2.71-5.55,2.71-.7,0-1.57-.5-2.61-1.5-1.04-1-1.97-2.3-2.78-3.89-.81-1.59-1.21-3.25-1.21-4.96,0-1.24,.14-2.27,.43-3.1,.28-.83,.84-1.68,1.66-2.55,.82-.87,2.14-2.02,3.94-3.44Zm22.73-4.35c-8.22,3.14-14.08,5.8-17.58,7.99-3.5,2.19-5.24,4.44-5.24,6.76,0,.84,.17,1.54,.52,2.08,.35,.54,.82,.81,1.42,.81,.35,0,.96-.18,1.85-.55,3.32-1.63,6.36-3.76,9.11-6.39,2.75-2.62,6.06-6.19,9.92-10.7Z"/><path class="d" d="M212.33,87.06v-.95c8.16-7.17,13.77-12.19,16.84-15.06,.7-3.24,2.37-4.86,5.03-4.86,.66,0,1.38,.16,2.14,.47l.28,.75c-.13,.32-.19,.76-.19,1.34,0,.5,.23,1.43,.69,2.79,.46,1.36,.81,2.5,1.07,3.42,.25,.92,.38,1.96,.38,3.12,0,1.74-.47,3.41-1.42,5-.95,1.6-2.33,3.12-4.13,4.59-1.8,1.46-4.13,2.96-6.97,4.49,1.14,.16,2.04,.24,2.7,.24,1.3,0,2.7-.27,4.2-.81,1.5-.54,3.04-1.27,4.6-2.17,1.57-.91,3.39-2.09,5.48-3.54v2.65c-4.05,3.3-7.67,5.79-10.87,7.49-3.2,1.7-5.95,2.55-8.26,2.55-2.97,0-5.73-1.05-8.26-3.16-1.49-1.27-2.41-2.48-2.78-3.64-.36-1.16-.55-2.73-.55-4.71Zm17.7-6.05l-.85-5.77c-1.96,1.85-6.15,5.39-12.57,10.64,1.9,.34,3.19,.8,3.89,1.38,.7,.58,1.68,1.7,2.94,3.36,2.15-.74,3.8-1.75,4.96-3.02,1.15-1.28,1.73-3.02,1.73-5.24,0-.26,0-.5-.02-.71-.02-.21-.04-.42-.07-.63Z"/><path class="d" d="M242.65,87.06v-.95c8.16-7.17,13.77-12.19,16.84-15.06,.7-3.24,2.37-4.86,5.03-4.86,.66,0,1.38,.16,2.14,.47l.28,.75c-.13,.32-.19,.76-.19,1.34,0,.5,.23,1.43,.69,2.79,.46,1.36,.81,2.5,1.07,3.42,.25,.92,.38,1.96,.38,3.12,0,1.74-.47,3.41-1.42,5-.95,1.6-2.33,3.12-4.13,4.59-1.8,1.46-4.13,2.96-6.97,4.49,1.14,.16,2.04,.24,2.7,.24,1.3,0,2.7-.27,4.2-.81,1.5-.54,3.04-1.27,4.6-2.17,1.57-.91,3.39-2.09,5.48-3.54v2.65c-4.05,3.3-7.67,5.79-10.87,7.49-3.2,1.7-5.95,2.55-8.26,2.55-2.97,0-5.73-1.05-8.26-3.16-1.49-1.27-2.41-2.48-2.78-3.64-.36-1.16-.55-2.73-.55-4.71Zm17.7-6.05l-.85-5.77c-1.96,1.85-6.15,5.39-12.57,10.64,1.9,.34,3.19,.8,3.89,1.38,.7,.58,1.68,1.7,2.94,3.36,2.15-.74,3.8-1.75,4.96-3.02,1.15-1.28,1.73-3.02,1.73-5.24,0-.26,0-.5-.02-.71-.02-.21-.04-.42-.07-.63Z"/></g><g><path class="d" d="M115.08,10.39c.84-.18,1.69-.36,2.55-.55,.86-.18,1.73-.34,2.62-.47,.89-.13,1.76-.2,2.6-.2,1.81,0,3.37,.34,4.66,1.02,1.3,.68,2.27,1.6,2.91,2.75,.64,1.16,.96,2.42,.96,3.77,0,2.11-.46,4.53-1.38,7.25-.92,2.72-2.24,5.49-3.96,8.3-1.72,2.81-3.73,5.47-6.05,7.97-3.16,3.39-6.95,6.11-11.37,8.18-4.42,2.07-8.48,3.11-12.16,3.11-2.72,0-5.12-.62-7.2-1.86-2.08-1.24-3.7-3.03-4.88-5.39-1.17-2.36-1.76-5.12-1.76-8.3,0-4.27,1.4-8.55,4.2-12.83,2.8-4.28,6.33-8.16,10.59-11.64,4.27-3.48,8.57-6.26,12.91-8.36,4.34-2.1,7.87-3.14,10.59-3.14,2.22,0,3.92,.57,5.11,1.7,1.19,1.13,2.3,2.96,3.33,5.49-2.91,.08-5.44,.37-7.59,.88-2.16,.51-4.39,1.28-6.7,2.32Zm-11.81,7.93c-2.19,1.95-4.4,4.47-6.63,7.56-2.23,3.09-4.04,6.11-5.41,9.08-1.38,2.97-2.06,5.23-2.06,6.8,0,3.88,2.17,5.82,6.52,5.82,3.03,0,6.94-1.71,11.74-5.12,4.8-3.41,8.97-7.52,12.52-12.32,3.55-4.8,5.32-9.17,5.32-13.11,0-2.89-1.38-4.34-4.12-4.34-2.13,0-4.72,.7-7.78,2.11-3.06,1.41-6,3.4-8.81,5.98-1,.94-2.98,3.23-5.95,6.88,.56-2.45,2.12-5.56,4.69-9.34Z"/><path class="d" d="M147.15,35.51c-4.53,5-7.98,8.55-10.34,10.66-2.36,2.11-4.29,3.16-5.79,3.16-1.19,0-2.28-.41-3.28-1.23-1-.82-1.77-1.93-2.32-3.32-.55-1.39-.82-2.88-.82-4.47,0-1.04,.12-1.98,.35-2.81,.23-.83,.68-1.75,1.34-2.75,.66-1,1.52-2.09,2.6-3.26,1.08-1.17,2.4-2.5,3.96-3.98,.94-.91,1.73-1.68,2.37-2.3,.64-.62,1.27-1.05,1.87-1.27,.61-.22,1.6-.33,2.98-.33,1,0,1.95,.11,2.86,.33,.91,.22,1.36,.45,1.36,.68,0,.47-.46,1.32-1.38,2.54-.92,1.22-2.41,2.71-4.45,4.47-2.05,1.76-4.41,3.48-7.1,5.18-.59,1.54-.89,2.71-.89,3.52,0,1.12,.52,1.68,1.55,1.68,.37,0,1-.27,1.87-.8,.87-.53,2.35-1.56,4.43-3.09,2.08-1.52,3.94-2.87,5.6-4.04,1.22-.88,2.63-2.21,4.24-3.96,1.61-1.76,2.91-3.08,3.91-3.96,2.31-2.03,3.89-3.35,4.73-3.96,.84-.61,1.66-.92,2.44-.92s1.26,.2,1.52,.59c.27,.39,.4,1.19,.4,2.38,0,.55-.06,.99-.19,1.33-.12,.34-.38,.78-.77,1.31-.39,.53-1.18,1.52-2.37,2.95-1.19,1.43-2.59,3.12-4.22,5.08-.87,1.04-1.64,2.18-2.3,3.42-.66,1.24-.98,2.17-.98,2.79,0,1.35,.64,2.03,1.92,2.03,1.06,0,2.3-.36,3.7-1.09,1.41-.73,3.56-2.04,6.47-3.95v2.62c-3.66,2.81-6.36,4.86-8.11,6.13-1.75,1.28-3.27,2.24-4.55,2.89-1.28,.65-2.5,.98-3.66,.98-2.62,0-3.94-1.3-3.94-3.91,0-.99,.39-2.32,1.17-4,.78-1.68,2.05-4.11,3.8-7.29Z"/><path class="d" d="M161.54,41.17v-2.54c1.69-1.67,2.97-3.09,3.84-4.26-1-.29-1.73-.64-2.18-1.05-.45-.42-.68-1.04-.68-1.88,0-.94,.47-2.12,1.41-3.55,.94-1.43,2.09-2.77,3.47-4.02,1.37-1.25,2.62-2.06,3.75-2.42,.44-.18,.86-.27,1.27-.27,.62,0,.94,.25,.94,.74,0,.44-.48,1.34-1.45,2.7,6.44-.83,10.5-1.25,12.19-1.25,.66,0,1.11,.05,1.36,.16,.53,.23,.97,.78,1.31,1.64,.34,.86,.52,1.72,.52,2.58,0,.55-.29,1.14-.87,1.78-.58,.64-1.57,1.57-2.98,2.79-1.66,1.48-3.05,3.1-4.17,4.84-1.12,1.75-1.69,3.06-1.69,3.95,0,1.22,.91,1.84,2.72,1.84,1.91,0,5.22-1.61,9.94-4.84v2.62c-2.59,2.27-4.73,4.05-6.42,5.35-1.69,1.3-3.25,2.34-4.69,3.11-1.44,.77-2.72,1.15-3.84,1.15-1.31,0-2.41-.5-3.28-1.5-.87-1-1.31-2.45-1.31-4.36,0-1.12,.34-2.4,1.03-3.83,.69-1.43,1.69-2.99,3.02-4.67,1.33-1.68,2.82-3.35,4.48-5.02-.87,.16-1.86,.32-2.95,.49-1.09,.17-2.25,.35-3.47,.53-1.22,.18-2.16,.33-2.81,.43-1.94,3.23-4.75,6.16-8.44,8.79Z"/></g></g></g></g></svg>