<?xml version="1.0" encoding="UTF-8"?><svg xmlns="http://www.w3.org/2000/svg" viewBox="0 0 720.76 124.37"><defs><style>.d{fill:#fff;}</style></defs><g id="a"/><g id="b"><g id="c"><g><path class="d" d="M60.82,19.48c1.58-.34,3.18-.68,4.79-1.03,1.61-.34,3.25-.63,4.92-.88,1.67-.24,3.3-.37,4.88-.37,3.4,0,6.31,.64,8.75,1.9,2.43,1.27,4.25,2.99,5.45,5.16,1.2,2.17,1.8,4.53,1.8,7.07,0,3.96-.87,8.48-2.59,13.59-1.73,5.1-4.21,10.29-7.43,15.56-3.22,5.27-7,10.25-11.34,14.94-5.92,6.35-13.02,11.46-21.31,15.34-8.29,3.88-15.89,5.82-22.81,5.82-5.1,0-9.6-1.16-13.49-3.48-3.9-2.32-6.94-5.69-9.14-10.11-2.2-4.42-3.3-9.61-3.3-15.56,0-8.01,2.62-16.03,7.87-24.06,5.24-8.03,11.87-15.31,19.86-21.83,8-6.52,16.07-11.74,24.21-15.67C60.09,1.97,66.71,0,71.81,0c4.16,0,7.35,1.06,9.58,3.19,2.23,2.12,4.31,5.55,6.24,10.29-5.45,.15-10.2,.7-14.24,1.65-4.04,.95-8.23,2.41-12.57,4.36Zm-22.15,14.87c-4.1,3.66-8.25,8.39-12.44,14.17-4.19,5.79-7.57,11.46-10.15,17.03-2.58,5.57-3.87,9.81-3.87,12.74,0,7.28,4.07,10.91,12.22,10.91,5.68,0,13.02-3.2,22.02-9.59,8.99-6.4,16.82-14.1,23.47-23.11,6.65-9.01,9.98-17.2,9.98-24.57,0-5.42-2.58-8.13-7.73-8.13-3.99,0-8.85,1.32-14.59,3.96-5.74,2.64-11.25,6.37-16.52,11.21-1.88,1.76-5.6,6.06-11.16,12.89,1.05-4.59,3.98-10.42,8.79-17.5Z"/><path class="d" d="M120.96,66.58c-8.5,9.38-14.96,16.04-19.38,20-4.42,3.96-8.04,5.93-10.85,5.93-2.23,0-4.28-.77-6.15-2.31-1.88-1.54-3.33-3.61-4.35-6.23-1.03-2.61-1.54-5.41-1.54-8.39,0-1.95,.22-3.71,.66-5.27,.44-1.56,1.27-3.28,2.5-5.16,1.23-1.88,2.86-3.92,4.88-6.12,2.02-2.2,4.5-4.69,7.43-7.47,1.76-1.71,3.24-3.15,4.44-4.32,1.2-1.17,2.37-1.96,3.52-2.38,1.14-.41,3-.62,5.58-.62,1.87,0,3.66,.21,5.36,.62,1.7,.42,2.55,.84,2.55,1.28,0,.88-.87,2.47-2.59,4.76-1.73,2.3-4.51,5.09-8.35,8.39-3.84,3.3-8.28,6.53-13.32,9.7-1.11,2.88-1.67,5.08-1.67,6.59,0,2.1,.97,3.15,2.9,3.15,.7,0,1.87-.5,3.52-1.5,1.64-1,4.41-2.93,8.31-5.79,3.9-2.86,7.4-5.38,10.5-7.58,2.29-1.66,4.94-4.14,7.95-7.43,3.02-3.3,5.46-5.77,7.34-7.43,4.34-3.81,7.29-6.29,8.88-7.43,1.58-1.15,3.1-1.72,4.57-1.72s2.36,.37,2.86,1.1c.5,.73,.75,2.22,.75,4.47,0,1.03-.12,1.86-.35,2.49-.23,.64-.72,1.45-1.45,2.45-.73,1-2.21,2.84-4.44,5.53-2.23,2.69-4.86,5.86-7.91,9.52-1.64,1.95-3.08,4.09-4.31,6.41-1.23,2.32-1.85,4.06-1.85,5.24,0,2.54,1.2,3.81,3.6,3.81,1.99,0,4.31-.68,6.94-2.05,2.64-1.37,6.68-3.83,12.13-7.4v4.91c-6.86,5.27-11.92,9.11-15.2,11.5-3.28,2.39-6.12,4.2-8.53,5.42-2.4,1.22-4.69,1.83-6.86,1.83-4.92,0-7.38-2.44-7.38-7.32,0-1.86,.73-4.36,2.2-7.51,1.46-3.15,3.84-7.7,7.12-13.66Z"/><path class="d" d="M147.94,77.2v-4.76c3.16-3.12,5.57-5.79,7.21-7.98-1.88-.54-3.24-1.2-4.09-1.98-.85-.78-1.27-1.95-1.27-3.52,0-1.76,.88-3.98,2.64-6.66,1.76-2.68,3.92-5.2,6.5-7.54,2.58-2.34,4.92-3.86,7.03-4.54,.82-.34,1.61-.51,2.37-.51,1.17,0,1.76,.46,1.76,1.39,0,.83-.91,2.52-2.72,5.05,12.07-1.56,19.69-2.34,22.85-2.34,1.23,0,2.08,.1,2.55,.29,1,.44,1.82,1.46,2.46,3.08,.64,1.61,.97,3.22,.97,4.83,0,1.03-.54,2.14-1.63,3.33-1.08,1.2-2.94,2.94-5.58,5.24-3.11,2.78-5.71,5.81-7.82,9.08-2.11,3.27-3.16,5.74-3.16,7.4,0,2.3,1.7,3.44,5.1,3.44,3.57,0,9.79-3.03,18.63-9.08v4.91c-4.86,4.25-8.88,7.59-12.04,10.03-3.16,2.44-6.09,4.38-8.79,5.82-2.7,1.44-5.1,2.16-7.21,2.16-2.46,0-4.51-.94-6.15-2.82-1.64-1.88-2.46-4.6-2.46-8.17,0-2.1,.64-4.49,1.93-7.18,1.29-2.68,3.18-5.6,5.67-8.75,2.49-3.15,5.29-6.29,8.39-9.41-1.64,.29-3.49,.6-5.54,.92-2.05,.32-4.22,.65-6.5,.99-2.29,.34-4.04,.61-5.27,.81-3.63,6.06-8.91,11.55-15.82,16.48Z"/><path class="d" d="M306.7,59.94v3.81c-7.87,7.3-15.11,13.33-21.69,18.08-6.59,4.75-13.02,8.4-19.3,10.96-6.28,2.56-12.35,3.84-18.21,3.84-5.06,0-9.41-.84-13.04-2.52-3.63-1.68-6.37-4.13-8.23-7.35-1.85-3.22-2.78-7.04-2.78-11.46,0-3.48,.67-7.16,2-11.04,1.34-3.89,3.27-7.81,5.8-11.78,2.53-3.96,5.64-8.06,9.32-12.28,3.68-4.22,8-8.65,12.97-13.3,5.16-4.8,10.24-8.95,15.26-12.45,5.02-3.5,9.56-6.24,13.64-8.23,4.08-1.99,7.86-3.48,11.36-4.45,3.49-.98,6.39-1.46,8.68-1.46s4.33,.47,5.98,1.41c1.64,.94,2.91,2.31,3.8,4.1,.89,1.8,1.34,3.87,1.34,6.21,0,4.41-1.8,9.33-5.41,14.74-3.61,5.41-8.11,10.63-13.5,15.67-5.39,5.04-10.54,9.15-15.43,12.33-4.9,3.18-8.43,4.78-10.58,4.78-1.45,0-2.8-.48-4.04-1.44-1.24-.96-1.86-2.04-1.86-3.25,0-2.23,1.42-4.92,4.25-8.09,2.84-3.16,5.93-6.06,9.28-8.7,3.35-2.64,5.35-3.96,6.01-3.96,.33,0,.49,.12,.49,.35,0,.35-.25,.96-.74,1.82-.49,.86-.74,1.39-.74,1.58,0,.31,.14,.47,.42,.47,.8,0,3.09-1.78,6.89-5.33,3.8-3.55,7.28-7.47,10.44-11.75,3.16-4.28,4.75-7.78,4.75-10.52,0-1.13-.29-2-.88-2.61-.59-.61-1.47-.91-2.64-.91-3.28,0-8.26,2.22-14.94,6.65-6.68,4.43-13.52,10.08-20.53,16.93-7.01,6.86-12.86,13.94-17.54,21.24-4.69,7.3-7.03,13.73-7.03,19.28,0,3.2,.57,5.88,1.72,8.03,1.15,2.15,2.84,3.81,5.06,4.98,2.23,1.17,4.91,1.76,8.05,1.76,6.8,0,14.51-2.21,23.13-6.62,8.62-4.41,18.12-10.92,28.48-19.51Z"/><path class="d" d="M362.87,71.41v4.91c-3.87,2.93-6.97,4.88-9.32,5.86-2.34,.98-5.71,1.37-10.11,1.17-7.62,7.52-14.33,11.28-20.13,11.28-3.28,0-6.27-.9-8.96-2.71-2.7-1.81-4.85-4.27-6.46-7.4-1.61-3.12-2.42-6.62-2.42-10.47,0-3.12,1.24-6.59,3.74-10.4,2.49-3.81,5.71-7.36,9.67-10.66,3.96-3.3,8.19-5.96,12.7-7.98,4.51-2.03,8.7-3.04,12.57-3.04,2.75,0,4.92,.35,6.5,1.06,1.58,.71,2.37,1.7,2.37,2.97,0,.98-.67,2.1-2.02,3.37,2.23,.39,3.75,1.04,4.57,1.94,.82,.9,1.23,2.55,1.23,4.94s-.66,5.3-1.98,8.86c-1.32,3.56-3.12,6.91-5.41,10.03l1.58,1.32h1.32c1,0,1.98-.21,2.94-.62,.97-.41,1.83-.85,2.59-1.32,.76-.46,2.43-1.5,5.01-3.11Zm-18.11-19.26c-4.86,2.44-9.02,4.65-12.48,6.63-3.46,1.98-6.39,3.98-8.79,6.01-2.4,2.03-4.01,4.06-4.83,6.12-1.46,5.47-2.2,8.42-2.2,8.86,0,3.22,2.69,4.83,8.09,4.83,2.52,0,6.74-1.81,12.66-5.42-1-2.29-1.49-4.49-1.49-6.59,0-3.08,.76-6.21,2.29-9.41,1.52-3.2,3.78-6.87,6.77-11.02Z"/><path class="d" d="M402.86,81.59c8.09-5.96,15.03-11.14,20.83-15.56,5.8-4.42,10.36-7.9,13.67-10.44,3.31-2.54,6.23-4.69,8.75-6.45,2.52-1.76,4.13-2.64,4.83-2.64,1.35-.05,2.64,1.11,3.87,3.48,1.23,2.37,1.85,4.26,1.85,5.68,0,.93-1.86,3.11-5.58,6.56-3.72,3.44-6.5,6.19-8.35,8.24s-2.77,4.2-2.77,6.45c0,1.32,.53,2.38,1.58,3.19,1.05,.81,2.31,1.21,3.78,1.21,1.7,0,3.74-.73,6.11-2.2,2.37-1.46,6.11-4.08,11.21-7.84v5.2c-5.1,4-9.73,7.46-13.89,10.36-4.16,2.91-7.78,5.08-10.85,6.52s-5.64,2.16-7.69,2.16c-1.82,0-3.34-.57-4.57-1.72-1.23-1.15-1.85-2.57-1.85-4.28s.35-3.34,1.05-5.05c.7-1.71,1.79-3.74,3.25-6.08,1.46-2.34,3.4-5.16,5.8-8.46,2.4-3.3,4.6-6.31,6.59-9.05-5.98,4.05-11.28,7.96-15.91,11.72-4.63,3.76-8.41,7.04-11.34,9.85-2.93,2.81-5.24,5.02-6.94,6.63-3.28,3.03-6.33,4.54-9.14,4.54-3.05,0-4.57-1.81-4.57-5.42,0-1.46,1.14-4.09,3.43-7.87,2.29-3.78,5.54-8.61,9.76-14.47,.35-.39,.53-1,.53-1.83,0-.98-.59-1.46-1.76-1.46-1.29,0-3.15,1.01-5.58,3.04-2.43,2.03-7.13,6.26-14.11,12.71-1.93,1.81-4.12,4.16-6.55,7.07-2.43,2.91-4.17,4.85-5.23,5.82-1.05,.98-2.11,1.46-3.16,1.46-2.11,0-4.07-1.56-5.89-4.69-1.82-3.12-2.72-6.76-2.72-10.91,0-3.03,.6-5.64,1.8-7.84,1.2-2.2,3.06-4.93,5.58-8.2,3.92-4.74,7.13-8.12,9.62-10.14,2.49-2.03,5.11-3.04,7.87-3.04,1.7,0,3.13,.28,4.31,.84,1.17,.56,1.76,1.33,1.76,2.31,0,1.03-1.07,2.71-3.21,5.05-2.14,2.34-4.85,4.76-8.13,7.25-1.76,1.42-3.43,3.16-5.01,5.24-1.58,2.08-2.37,3.58-2.37,4.5,0,1.32,.62,1.98,1.85,1.98,1,0,3.52-1.71,7.56-5.13,4.04-3.42,8.48-7.14,13.32-11.17,4.83-4.03,9.32-7.37,13.45-10.03,4.13-2.66,7.63-3.99,10.5-3.99,1.76,0,3.21,.55,4.35,1.65,1.14,1.1,1.71,2.45,1.71,4.06,0,1.07-.88,3.02-2.64,5.82-1.76,2.81-4.32,6.27-7.69,10.4-3.37,4.13-7.72,9.12-13.05,14.98Z"/><path class="d" d="M460.95,77.71v-5.13c8.2-7.42,15.28-14.4,21.23-20.95,5.95-6.54,10.65-11.74,14.11-15.6,3.46-3.86,6.5-6.58,9.14-8.17,2.64-1.59,5.95-2.38,9.93-2.38,1.99,0,2.99,.64,2.99,1.9,0,1.03-.81,2.54-2.42,4.54-1.61,2-3.68,4.05-6.2,6.15-3.34,2.74-6.61,6.16-9.8,10.29-3.19,4.13-6.81,9.39-10.85,15.78,3.16-2.05,6.81-4.48,10.94-7.29,4.13-2.81,7.5-5,10.11-6.59,2.61-1.59,5.19-2.84,7.73-3.77,2.55-.93,5.11-1.39,7.69-1.39,1.64,0,2.71,.24,3.21,.73,.5,.49,.75,1.44,.75,2.86,0,3.71-1.08,7.34-3.25,10.88-2.17,3.54-5.27,7.21-9.32,11.02s-9.02,7.96-14.94,12.45c2.05,.64,4.16,.95,6.33,.95,6.8,0,15.91-4.32,27.33-12.96v5.27c-4.45,3.32-8.8,6.45-13.05,9.38-4.25,2.93-8.25,5.27-12,7.03-3.75,1.76-7.21,2.64-10.37,2.64-1.17,0-2.42-.11-3.74-.33-1.32-.22-2.54-.49-3.65-.81-1.11-.32-2.55-.77-4.31-1.35-1.76-.59-3.11-1-4.04-1.25-1.88,.39-2.93,.59-3.16,.59-2.05,0-4.45-.68-7.21-2.05-1.93,3.13-4.06,7.17-6.37,12.12-2.32,4.96-4.26,8.9-5.84,11.83-1.58,2.93-3.69,5.74-6.33,8.42-1.46,1.22-2.49,1.83-3.08,1.83-2.52,0-3.78-1.86-3.78-5.57,0-3.22,.78-6.58,2.33-10.07,1.55-3.49,3.46-6.8,5.71-9.92,2.26-3.13,4.73-6.29,7.43-9.48,2.69-3.2,4.6-5.58,5.71-7.14,9.26-13.28,16.46-24.58,21.62-33.91-13.48,13.67-23.67,23.49-30.59,29.44Zm35.68,3.59c5.8-5.08,10.12-9.4,12.96-12.96,2.84-3.56,4.26-6.3,4.26-8.2,0-1.81-1.08-2.71-3.25-2.71-2.93,0-7.05,2.01-12.35,6.04-5.3,4.03-10.77,9.46-16.39,16.3,4.34-.39,7.24-.52,8.7-.4,1.46,.12,3.49,.77,6.06,1.94Z"/><path class="d" d="M545.33,58.45c8.91-6.74,17.55-11.74,25.93-15.01,8.38-3.27,14.85-4.91,19.42-4.91,1.23,0,2.37,.43,3.43,1.28,1.05,.85,1.89,1.84,2.5,2.97,.62,1.12,.92,1.95,.92,2.49,0,.88-.41,1.53-1.23,1.94-.82,.42-2.26,.92-4.31,1.5,.41,.78,.94,1.78,1.58,3,.64,1.22,1.14,2.21,1.49,2.97,.35,.76,.53,1.43,.53,2.01,0,1.17-1.42,3.36-4.26,6.56-2.84,3.2-4.83,5.55-5.98,7.07-1.14,1.51-1.71,3.37-1.71,5.57,0,3.61,1.99,5.42,5.98,5.42s10.52-3.2,19.25-9.59v4.47c-14.82,13.72-25.43,20.58-31.82,20.58-2.29,0-3.91-.62-4.88-1.87s-1.45-3.09-1.45-5.53c0-3.86,1.67-9.45,5.01-16.77-8.56,7.91-14.91,13.54-19.07,16.88-4.16,3.35-7.59,5.02-10.28,5.02-1.29,0-2.9-.93-4.83-2.78-1.93-1.86-3.65-4.26-5.14-7.21-1.49-2.95-2.24-6.02-2.24-9.19,0-2.29,.26-4.21,.79-5.75,.53-1.54,1.55-3.11,3.08-4.72,1.52-1.61,3.95-3.74,7.29-6.37Zm42.1-8.06c-15.24,5.81-26.09,10.74-32.56,14.79-6.47,4.05-9.71,8.23-9.71,12.52,0,1.56,.32,2.85,.97,3.85,.64,1,1.52,1.5,2.64,1.5,.64,0,1.79-.34,3.43-1.03,6.15-3.03,11.78-6.97,16.88-11.83,5.1-4.86,11.22-11.46,18.37-19.81Z"/><path class="d" d="M607.73,73.61v-1.76c15.12-13.28,25.52-22.58,31.2-27.91,1.29-6.01,4.39-9.01,9.32-9.01,1.23,0,2.55,.29,3.96,.88l.53,1.39c-.23,.59-.35,1.42-.35,2.49,0,.93,.42,2.65,1.27,5.16,.85,2.52,1.51,4.63,1.98,6.34,.47,1.71,.7,3.64,.7,5.79,0,3.22-.88,6.31-2.64,9.27-1.76,2.95-4.31,5.79-7.65,8.5-3.34,2.71-7.65,5.48-12.92,8.31,2.11,.29,3.78,.44,5.01,.44,2.4,0,5-.5,7.78-1.5,2.78-1,5.62-2.34,8.53-4.03,2.9-1.68,6.28-3.87,10.15-6.56v4.91c-7.5,6.1-14.21,10.73-20.13,13.88-5.92,3.15-11.02,4.72-15.29,4.72-5.51,0-10.61-1.95-15.29-5.86-2.75-2.34-4.47-4.59-5.14-6.74-.67-2.15-1.01-5.05-1.01-8.72Zm32.78-11.21l-1.58-10.69c-3.63,3.42-11.4,9.99-23.29,19.7,3.52,.64,5.92,1.49,7.21,2.56,1.29,1.07,3.11,3.15,5.45,6.23,3.98-1.37,7.04-3.23,9.18-5.6,2.14-2.37,3.21-5.6,3.21-9.7,0-.49-.01-.93-.04-1.32-.03-.39-.07-.78-.13-1.17Z"/><path class="d" d="M663.89,73.61v-1.76c15.12-13.28,25.52-22.58,31.2-27.91,1.29-6.01,4.39-9.01,9.32-9.01,1.23,0,2.55,.29,3.96,.88l.53,1.39c-.23,.59-.35,1.42-.35,2.49,0,.93,.42,2.65,1.27,5.16,.85,2.52,1.51,4.63,1.98,6.34,.47,1.71,.7,3.64,.7,5.79,0,3.22-.88,6.31-2.64,9.27-1.76,2.95-4.31,5.79-7.65,8.5-3.34,2.71-7.65,5.48-12.92,8.31,2.11,.29,3.78,.44,5.01,.44,2.4,0,5-.5,7.78-1.5,2.78-1,5.62-2.34,8.53-4.03,2.9-1.68,6.28-3.87,10.15-6.56v4.91c-7.5,6.1-14.21,10.73-20.13,13.88-5.92,3.15-11.02,4.72-15.29,4.72-5.51,0-10.61-1.95-15.29-5.86-2.75-2.34-4.47-4.59-5.14-6.74-.67-2.15-1.01-5.05-1.01-8.72Zm32.78-11.21l-1.58-10.69c-3.63,3.42-11.4,9.99-23.29,19.7,3.52,.64,5.92,1.49,7.21,2.56,1.29,1.07,3.11,3.15,5.45,6.23,3.98-1.37,7.05-3.23,9.18-5.6,2.14-2.37,3.21-5.6,3.21-9.7,0-.49-.01-.93-.04-1.32-.03-.39-.07-.78-.13-1.17Z"/></g></g></g></svg>