<?xml version="1.0" encoding="UTF-8"?><svg xmlns="http://www.w3.org/2000/svg" xmlns:xlink="http://www.w3.org/1999/xlink" viewBox="0 0 84.92 66.99"><defs><style>.f{fill:url(#e);}.g{fill:url(#d);}</style><linearGradient id="d" x1="0" y1="33.5" x2="84.92" y2="33.5" gradientTransform="matrix(1, 0, 0, 1, 0, 0)" gradientUnits="userSpaceOnUse"><stop offset="0" stop-color="#0db0ff"/><stop offset=".12" stop-color="#0ba2ff"/><stop offset=".35" stop-color="#097eff"/><stop offset=".67" stop-color="#0544ff"/><stop offset="1" stop-color="blue"/></linearGradient><linearGradient id="e" x1="0" y1="33.5" x2="84.92" y2="33.5" xlink:href="#d"/></defs><g id="a"/><g id="b"><g id="c"><g><path class="g" d="M21.45,66.99C9.24,66.99,0,58.41,0,45.43V21.56C0,8.58,9.24,0,21.45,0s21.45,8.58,21.45,21.56v23.87c0,12.98-9.24,21.56-21.45,21.56Zm13.53-44.99c0-8.58-4.84-14.96-13.53-14.96S7.92,13.42,7.92,22v22.99c0,8.58,4.84,14.96,13.53,14.96s13.53-6.38,13.53-14.96V22Z"/><path class="f" d="M77,66.33V9.46l-14.63,12.87V13.31L77,.66h7.92V66.33h-7.92Z"/></g></g></g></svg>