<?xml version="1.0" encoding="UTF-8"?><svg xmlns="http://www.w3.org/2000/svg" xmlns:xlink="http://www.w3.org/1999/xlink" viewBox="0 0 99.66 69.19"><defs><style>.f{fill:url(#e);}.g{fill:url(#d);}</style><linearGradient id="d" x1="0" y1="35.7" x2="99.66" y2="35.7" gradientTransform="matrix(1, 0, 0, 1, 0, 0)" gradientUnits="userSpaceOnUse"><stop offset="0" stop-color="#0db0ff"/><stop offset=".12" stop-color="#0ba2ff"/><stop offset=".35" stop-color="#097eff"/><stop offset=".67" stop-color="#0544ff"/><stop offset="1" stop-color="blue"/></linearGradient><linearGradient id="e" x1="0" y1="34.27" x2="99.66" y2="34.27" xlink:href="#d"/></defs><g id="a"/><g id="b"><g id="c"><g><path class="g" d="M21.45,69.19C9.24,69.19,0,60.61,0,47.63V23.76C0,10.78,9.24,2.2,21.45,2.2s21.45,8.58,21.45,21.56v23.87c0,12.98-9.24,21.56-21.45,21.56Zm13.53-44.99c0-8.58-4.84-14.96-13.53-14.96S7.92,15.62,7.92,24.2v22.99c0,8.58,4.84,14.96,13.53,14.96s13.53-6.38,13.53-14.96V24.2Z"/><path class="f" d="M54.67,68.53v-7.04l27.61-26.62c4.62-4.51,7.48-9.35,7.48-14.74,0-7.37-5.5-13.09-13.42-13.09-7.37,0-13.53,5.17-13.53,13.31h-7.92c0-11.77,9.13-20.35,21.45-20.35s21.34,8.8,21.34,20.02c0,7.92-4.29,13.75-10.12,19.47l-22.44,22h34.54v7.04H54.67Z"/></g></g></g></svg>