<?xml version="1.0" encoding="UTF-8"?><svg xmlns="http://www.w3.org/2000/svg" xmlns:xlink="http://www.w3.org/1999/xlink" viewBox="0 0 99.99 79.75"><defs><style>.f{fill:url(#e);}.g{fill:url(#d);}</style><linearGradient id="d" x1="0" y1="33.5" x2="99.99" y2="33.5" gradientTransform="matrix(1, 0, 0, 1, 0, 0)" gradientUnits="userSpaceOnUse"><stop offset="0" stop-color="#0db0ff"/><stop offset=".12" stop-color="#0ba2ff"/><stop offset=".35" stop-color="#097eff"/><stop offset=".67" stop-color="#0544ff"/><stop offset="1" stop-color="blue"/></linearGradient><linearGradient id="e" x1="0" y1="40.21" x2="99.99" y2="40.21" xlink:href="#d"/></defs><g id="a"/><g id="b"><g id="c"><g><path class="g" d="M21.45,66.99C9.24,66.99,0,58.41,0,45.43V21.56C0,8.58,9.24,0,21.45,0s21.45,8.58,21.45,21.56v23.87c0,12.98-9.24,21.56-21.45,21.56Zm13.53-44.99c0-8.58-4.84-14.96-13.53-14.96S7.92,13.42,7.92,22v22.99c0,8.58,4.84,14.96,13.53,14.96s13.53-6.38,13.53-14.96V22Z"/><path class="f" d="M93.72,73.92c-3.63,3.63-8.69,5.83-15.62,5.83s-12.32-2.2-15.73-5.61c-3.41-3.52-5.06-8.03-5.5-13.64h7.92c.99,7.81,5.06,12.21,13.31,12.21,3.85,0,7.37-1.32,9.68-3.63,4.07-4.07,4.29-10.34,4.29-15.95,0-9.57-1.87-19.03-13.2-19.03-6.82,0-11.44,3.08-12.98,7.7h-7.15V.66h39.6V7.7h-32.45v24.86c3.08-3.41,7.92-5.39,14.08-5.39,5.83,0,10.45,1.87,13.53,4.95,5.72,5.72,6.49,13.64,6.49,21.01,0,7.81-.66,15.18-6.27,20.79Z"/></g></g></g></svg>