<svg xmlns="http://www.w3.org/2000/svg" xmlns:xlink="http://www.w3.org/1999/xlink" width="715.712" height="199.727" viewBox="0 0 715.712 199.727">
  <defs>
    <clipPath id="clip-path">
      <circle id="楕円形_69" data-name="楕円形 69" cx="81.692" cy="81.692" r="81.692" fill="none"/>
    </clipPath>
    <clipPath id="clip-path-2">
      <rect id="長方形_11605" data-name="長方形 11605" width="539.398" height="190.608" fill="none"/>
    </clipPath>
  </defs>
  <g id="グループ_29673" data-name="グループ 29673" transform="translate(-654.485 -8034.565)">
    <g id="グループ_26466" data-name="グループ 26466" transform="translate(654.485 8070.907)">
      <g id="グループ_21223" data-name="グループ 21223" transform="translate(0 0)" clip-path="url(#clip-path)">
        <path id="パス_87279" data-name="パス 87279" d="M76.559,131.648c11.086,4,44.343,2.771,44.034-6.774s-5-49.039-5-49.039l-17.937.192S95,105.28,95.3,108.976a89.681,89.681,0,0,0-22.48-39.108c-1.232-.617-13.549-5.851-27.1-5.235s-5.851,49.886-5.851,49.886Z" transform="translate(1.899 37)" fill="#231815"/>
        <path id="パス_87280" data-name="パス 87280" d="M94.317,135.648c-7.092,0-13.805-.8-17.725-2.213-.041-.014-.077-.03-.116-.046l-36.681-17.13a1.373,1.373,0,0,1-.777-1.03c-.247-1.584-5.966-38.9,2.142-48.819a6.694,6.694,0,0,1,5-2.649c14.683-.646,27.651,5.318,27.776,5.379a1.343,1.343,0,0,1,.315.219c.584.538,13.012,12.16,20.485,32.342.634-9.667,1.969-24.438,2.049-25.3a1.368,1.368,0,0,1,1.35-1.246l17.936-.193a1.431,1.431,0,0,1,1.376,1.21c.192,1.614,4.706,39.662,5.013,49.156.044,1.384-.439,3.423-2.995,5.28-4.843,3.519-15.354,5.041-25.149,5.041m-16.739-4.771c8.679,3.094,32.683,3.029,40.277-2.488,1.29-.937,1.9-1.909,1.867-2.974-.274-8.435-4.058-40.963-4.851-47.7l-15.466.168c-.8,8.871-2.469,28.682-2.238,31.477a1.371,1.371,0,0,1-2.688.478A89.557,89.557,0,0,0,72.542,71.517c-1.518-.678-13.14-5.656-26.256-5.016a4,4,0,0,0-3,1.642c-5.957,7.287-3.312,34.946-1.667,45.941Z" transform="translate(1.402 36.501)" fill="#231815"/>
        <path id="パス_87281" data-name="パス 87281" d="M53.338,64.505c-9.518,3.475-14.977,0-24.215,4.187-4.318,1.955-8.67,4.135-11.916,7.63-4.742,5.1-6.524,12.346-7.33,19.332-2.071,17.965-1.518,35.648-2.76,53.7-1,14.566-1.472,29.026-3.372,43.347-.612,4.613-.4,9.657,2.279,13.437,3.965,5.593,11.738,6.477,18.488,6.079,26.879-1.587,51.455-15.221,74.64-29.117,2.056-1.232,4.173-2.529,5.529-4.528,3.188-4.7.557-9.882-.052-14.974-.945-7.923-2.109-14.5-1.384-22.653,1.266-14.272-2.693-21.868-4.645-36.088-2.174-15.829-6.671-26.575-20.016-36.028-4.591-3.253-9.518-2.856-15.089-2.465-3.383.239-6.954-3.025-10.156-1.856" transform="translate(-17.715 36.81)" fill="#231815"/>
        <path id="パス_87282" data-name="パス 87282" d="M22.3,214.166c-8.044,0-13.719-2.26-16.894-6.738-2.477-3.495-3.325-8.344-2.52-14.411,1.384-10.43,2.02-21.166,2.633-31.549.231-3.894.461-7.8.731-11.71.5-7.3.714-14.661.919-21.781.3-10.444.61-21.246,1.847-31.98.668-5.8,2.193-14.2,7.688-20.109,3.479-3.745,8.2-6.065,12.353-7.946,5.1-2.311,9.164-2.4,13.09-2.493a31.788,31.788,0,0,0,11.221-1.73c2.26-.83,4.535.039,6.542.8a9.954,9.954,0,0,0,3.989.975l.226-.017c5.566-.39,10.821-.761,15.751,2.729,14.3,10.133,18.48,21.654,20.581,36.961.659,4.8,1.54,8.794,2.392,12.659,1.67,7.578,3.113,14.124,2.26,23.738-.6,6.729.109,12.284.926,18.72.151,1.191.305,2.4.455,3.649s.428,2.509.722,3.839c.882,3.979,1.795,8.094-.9,12.066-1.556,2.295-4,3.758-5.96,4.934-23.282,13.958-48.27,27.716-75.264,29.309q-1.439.085-2.792.085M54.307,66.291a34.416,34.416,0,0,1-12.1,1.9c-3.819.088-7.427.171-12.022,2.251-4.088,1.853-8.343,3.942-11.477,7.315-3.764,4.052-5.98,9.948-6.973,18.555-1.222,10.617-1.532,21.358-1.829,31.747-.206,7.147-.417,14.537-.923,21.888-.269,3.9-.5,7.8-.73,11.687C7.638,172.061,7,182.848,5.6,193.375c-.711,5.36-.025,9.554,2.038,12.467,2.946,4.156,8.763,6,17.289,5.5C51.3,209.788,75.956,196.2,98.945,182.42c1.82-1.092,3.883-2.328,5.1-4.123,2.029-2.992,1.282-6.364.489-9.931-.3-1.339-.6-2.721-.768-4.108-.148-1.241-.3-2.446-.451-3.629-.8-6.318-1.562-12.286-.937-19.309.815-9.193-.585-15.548-2.207-22.906-.864-3.918-1.757-7.97-2.432-12.876-2-14.581-5.953-25.537-19.449-35.1-4.13-2.921-8.692-2.6-13.973-2.23l-.228.016a12.232,12.232,0,0,1-5.154-1.145c-1.711-.651-3.328-1.26-4.627-.791M53.836,65h0Z" transform="translate(-18.214 36.311)" fill="#231815"/>
        <path id="パス_87283" data-name="パス 87283" d="M32.959,51.333c1.1,3.459-1.412,14.466-2.709,20.451a13.636,13.636,0,0,1-2.908,5.148c2.391,3.78,5.837,9.135,9.632,11.536C42.86,92.188,52.809,90.3,58.561,87.3c2.194-1.14,4.41-2.87,4.744-5.319-6.688-2.606-4.354-4.233-3.905-9.807.338-4.2,2.013-9.392,1.019-13.481a23.749,23.749,0,0,0-6.285-10.779,15.078,15.078,0,0,0-5.59-3.9,12.087,12.087,0,0,0-3.99-.637c-4.922-.008-9.266,3.611-11.594,7.948" transform="translate(-4.033 24.856)" fill="#fff"/>
        <path id="パス_87284" data-name="パス 87284" d="M45.872,92.389a17.114,17.114,0,0,1-9.131-2.263c-4.154-2.628-7.85-8.472-10.059-11.963a1.367,1.367,0,0,1,.145-1.653,12.321,12.321,0,0,0,2.583-4.516l.241-1.112c1.2-5.5,3.426-15.727,2.5-18.632a1.366,1.366,0,0,1,.1-1.065c2.828-5.269,7.844-8.67,12.783-8.67a15,15,0,0,1,4.467.716,16.1,16.1,0,0,1,6.112,4.231A25.118,25.118,0,0,1,62.25,58.872c.742,3.056.164,6.469-.4,9.771-.25,1.471-.486,2.863-.588,4.145A31.642,31.642,0,0,1,60.79,76.1c-.544,2.957-.643,3.49,3.511,5.107a1.372,1.372,0,0,1,.86,1.463c-.341,2.506-2.182,4.645-5.469,6.353a31.39,31.39,0,0,1-13.821,3.368M29.531,77.536c2.117,3.327,5.337,8.16,8.676,10.272,5.562,3.515,15.172,1.4,20.221-1.221a8.232,8.232,0,0,0,3.723-3.309c-4.8-2.153-4.682-4.277-4.056-7.676a28.992,28.992,0,0,0,.437-3.036c.113-1.4.359-2.85.62-4.384.513-3.026,1.044-6.156.434-8.663a22.379,22.379,0,0,0-5.934-10.145,13.54,13.54,0,0,0-5.065-3.561,10.693,10.693,0,0,0-3.537-.558h-.014c-3.806,0-7.729,2.639-10.117,6.77.724,3.633-.808,11.263-2.587,19.439l-.242,1.109a13.54,13.54,0,0,1-2.558,4.962" transform="translate(-4.533 24.357)" fill="#231815"/>
        <path id="パス_87285" data-name="パス 87285" d="M30.133,62.157c-1.79-5.625,1-18.7,3.5-24.266,3.731-8.317,8.612-11.325,17.417-11.26a68.934,68.934,0,0,1,13.4,1.276,30.486,30.486,0,0,1,3.91.994c4.727,1.661,8.539,5.294,9.444,10.334.672,3.739,0,7.573-.661,11.314q-1.852,10.4-3.7,20.8A24.534,24.534,0,0,1,71.635,77.9a7.315,7.315,0,0,1-6.477,4.314A29.786,29.786,0,0,1,54.409,80.87Z" transform="translate(-2.76 15.257)" fill="#fff"/>
        <path id="パス_87286" data-name="パス 87286" d="M63.985,84.13a30.212,30.212,0,0,1-9.521-1.464,1.37,1.37,0,1,1,.887-2.592,28.583,28.583,0,0,0,10.232,1.271A5.935,5.935,0,0,0,70.9,77.8,23.548,23.548,0,0,0,72.592,71.6l3.7-20.8c.637-3.583,1.3-7.287.661-10.831-.753-4.2-3.95-7.668-8.547-9.283a28.818,28.818,0,0,0-3.715-.939A66.778,66.778,0,0,0,51.539,28.5c-8.3-.042-12.71,2.775-16.155,10.452-2.507,5.592-5.049,18.25-3.446,23.29a1.371,1.371,0,1,1-2.613.832c-2-6.284,1.167-19.914,3.558-25.243,3.888-8.668,9.061-12.072,18.4-12.072.094,0,.186,0,.28,0a69.434,69.434,0,0,1,13.671,1.305,31.171,31.171,0,0,1,4.088,1.043c5.541,1.946,9.406,6.2,10.337,11.383.724,4.028-.013,8.155-.662,11.8l-3.7,20.8A25.6,25.6,0,0,1,73.366,79a8.727,8.727,0,0,1-7.633,5.082c-.579.031-1.162.047-1.747.047" transform="translate(-3.26 14.757)" fill="#231815"/>
        <path id="パス_87287" data-name="パス 87287" d="M49.068,47.6a1.736,1.736,0,0,1,.852-3.364,1.732,1.732,0,0,1,1.35,2.068,1.752,1.752,0,0,1-2.086,1.326l-.116-.03" transform="translate(7.683 25.321)" fill="#231815"/>
        <path id="パス_87288" data-name="パス 87288" d="M47.25,42.819a1.516,1.516,0,0,1-.288-.03,1.4,1.4,0,0,1-1.057-1.652c.462-2.292,3.681-2.948,6.476-2.578,3.448.451,3.72,2.144,3.676,2.85a1.371,1.371,0,0,1-2.705.22,6.479,6.479,0,0,0-3.092-.385,2.932,2.932,0,0,0-1.7.508,1.321,1.321,0,0,1-1.312,1.066" transform="translate(6.585 22.036)" fill="#231815"/>
        <path id="パス_87289" data-name="パス 87289" d="M62.1,43.309a1.335,1.335,0,0,1-.193-.014,1.372,1.372,0,0,1-1.173-1.233,4.291,4.291,0,0,0-2.74-.193A1.37,1.37,0,0,1,55.746,40.3c.992-1.587,3.929-1.556,5.666-.923,2.145.782,2.106,2.3,2.043,2.749a1.372,1.372,0,0,1-1.356,1.18" transform="translate(12.119 22.329)" fill="#231815"/>
        <path id="パス_87290" data-name="パス 87290" d="M56.867,47.48a1.757,1.757,0,1,1,.116.03c-.041-.009-.079-.019-.116-.03" transform="translate(12.151 25.252)" fill="#231815"/>
        <path id="パス_87291" data-name="パス 87291" d="M53.561,59.948a6.309,6.309,0,0,1-4.8-2.128,1.37,1.37,0,0,1,2.092-1.771,3.615,3.615,0,0,0,4.627.59,1.371,1.371,0,1,1,1.581,2.24,6.059,6.059,0,0,1-3.5,1.07" transform="translate(8.051 31.833)" fill="#231815"/>
        <path id="パス_87292" data-name="パス 87292" d="M25.371,36.841a13.79,13.79,0,0,0,8.49,1.552,6.284,6.284,0,0,0,2.933-.912,4.291,4.291,0,0,0,1.364-1.719c1.3-2.793.26-6.23-2.023-8.443A15.338,15.338,0,0,0,27.76,23.9a4.825,4.825,0,0,0-1.9.389,6.356,6.356,0,0,0-3.717,3.987,6.985,6.985,0,0,0,3.228,8.567" transform="translate(-7.235 13.691)" fill="#231815"/>
        <path id="パス_87293" data-name="パス 87293" d="M32.512,40.371a14.486,14.486,0,0,1-7.342-1.853c-3.693-2.2-5.093-5.9-3.841-10.134a7.712,7.712,0,0,1,4.516-4.87,5.835,5.835,0,0,1,2.447-.486,16.731,16.731,0,0,1,9.3,3.806c2.83,2.743,3.778,6.858,2.309,10.005a5.605,5.605,0,0,1-1.812,2.26,7.555,7.555,0,0,1-3.567,1.154,17.32,17.32,0,0,1-2.009.116m-4.338-14.6a3.527,3.527,0,0,0-1.3.289,5.014,5.014,0,0,0-2.915,3.1c-1.129,3.825.8,5.92,2.614,7v0a12.428,12.428,0,0,0,7.63,1.368,5.182,5.182,0,0,0,2.3-.668,2.915,2.915,0,0,0,.914-1.181c.985-2.108.272-4.936-1.732-6.878a14.138,14.138,0,0,0-7.455-3.036Z" transform="translate(-7.735 13.191)" fill="#231815"/>
        <path id="パス_87294" data-name="パス 87294" d="M36.734,70.467a22.59,22.59,0,0,1-5.54-4.977c-4.387-5.024-4.347-10.521-4.211-16.9A46.976,46.976,0,0,1,29.4,34.053a7.867,7.867,0,0,1,1.961-3.4,6.256,6.256,0,0,1,3.608-1.384,21.25,21.25,0,0,1,6.463.722c2.806.607,5.184,1,7.989,1.609-1.576,1.261-2.09,3.5-2.133,5.511a6.405,6.405,0,0,0,1.486,3.53c-.351,1.112-3.05,14.381-2.965,14.381-1.585.006-2.85.39-3.693-.8-.571-.808-.286-2-1.044-2.826-4.1-4.481-8.77.664-8.034,5.283a7.4,7.4,0,0,0,4.885,5.738q-.611,3.655-1.222,7.308Z" transform="translate(-4.262 16.741)" fill="#fff"/>
        <path id="パス_87295" data-name="パス 87295" d="M37.235,72.337a1.353,1.353,0,0,1-.681-.182,23.606,23.606,0,0,1-5.89-5.263c-4.815-5.511-4.686-11.495-4.549-17.829A47.854,47.854,0,0,1,28.609,34.1a9.1,9.1,0,0,1,2.344-3.97A7.5,7.5,0,0,1,35.344,28.4a22.743,22.743,0,0,1,6.883.749c1.392.3,2.677.549,3.964.8,1.305.253,2.613.5,4.025.812a1.37,1.37,0,0,1,.566,2.41c-1.35,1.081-1.595,3.264-1.62,4.47a5.533,5.533,0,0,0,1.246,2.723,1.366,1.366,0,0,1,.179,1.189c-.322,1.021-2.734,12.871-2.905,14.036a1.367,1.367,0,0,1-1.364,1.3c-.3,0-.584.019-.856.033-1.272.069-2.852.154-3.961-1.409a4.336,4.336,0,0,1-.657-1.814,1.931,1.931,0,0,0-.28-.881c-1.114-1.216-2.23-1.565-3.32-1.041A5.163,5.163,0,0,0,34.9,56.967a6,6,0,0,0,3.961,4.651,1.373,1.373,0,0,1,.923,1.529l-1.2,7.168.024.6a1.37,1.37,0,0,1-1.37,1.427m-.686-41.246c-.318,0-.634.013-.948.042a5.039,5.039,0,0,0-2.825,1.043,6.769,6.769,0,0,0-1.579,2.83,45.19,45.19,0,0,0-2.34,14.115c-.131,6.04-.242,11.256,3.872,15.966A29.227,29.227,0,0,0,36.1,68.509l.793-4.744A8.834,8.834,0,0,1,32.189,57.4c-.517-3.24,1.181-6.793,3.865-8.086,2.213-1.07,4.594-.462,6.534,1.663a4.194,4.194,0,0,1,.953,2.23,2.41,2.41,0,0,0,.2.727c.182.26.344.319,1.456.263.436-3.605,2.075-10.582,2.608-12.783a6.845,6.845,0,0,1-1.384-3.828,10.453,10.453,0,0,1,1.051-4.59c-.607-.121-1.2-.236-1.8-.352-1.305-.252-2.611-.5-4.023-.81a24.557,24.557,0,0,0-5.1-.739" transform="translate(-4.762 16.243)" fill="#231815"/>
        <path id="パス_87296" data-name="パス 87296" d="M41.8,24.623a28.814,28.814,0,0,1,9.039-2.765,29.622,29.622,0,0,1,18.009,3.567c4.771,2.589,9.637,9.043,8.844,11.9-.777.017-4.616-.6-5.923-.687-1.016-.068-10.633-2.688-13.23-2.981-2.416-.274-4.879-.832-7.037.247-2.068,1.037-4.16,4.582-4.16,4.582s-12.119.579-19.274,1.606c-.514.074,1.339-4.569,5.074-8.774a37.806,37.806,0,0,1,8.657-6.7" transform="translate(-3.664 12.383)" fill="#231815"/>
        <path id="パス_87297" data-name="パス 87297" d="M28.57,41.963a1.5,1.5,0,0,1-1.285-.755c-.948-1.765,2.96-7.643,5.321-10.3A39.064,39.064,0,0,1,41.661,23.9,30.059,30.059,0,0,1,51.138,21,31.042,31.042,0,0,1,69.99,24.715c5.029,2.731,10.545,9.753,9.511,13.478a1.367,1.367,0,0,1-1.29,1c-.51-.016-1.57-.129-3.272-.354-1.092-.146-2.191-.3-2.773-.335a49.967,49.967,0,0,1-4.912-1.112c-3.1-.764-6.962-1.714-8.38-1.875-.368-.041-.736-.088-1.1-.138-1.9-.247-3.7-.483-5.165.25-1.238.618-2.861,2.814-3.594,4.052a1.373,1.373,0,0,1-1.114.672c-.121,0-12.138.59-19.145,1.595a1.173,1.173,0,0,1-.182.014M54.876,23.482a24.249,24.249,0,0,0-3.358.23,27.337,27.337,0,0,0-8.6,2.625v0a36.678,36.678,0,0,0-8.261,6.392,28.329,28.329,0,0,0-4.2,6.233c6.119-.733,14.153-1.184,16.592-1.312.764-1.17,2.476-3.545,4.33-4.473,2.211-1.109,4.621-.793,6.746-.516.352.046.706.091,1.057.132,1.595.179,5.386,1.114,8.729,1.936,1.9.469,4.052,1,4.451,1.04.607.042,1.779.2,2.941.352.444.058.986.131,1.482.193-.672-2.474-4.091-7.015-8.1-9.192a29.243,29.243,0,0,0-13.807-3.643M42.289,25.119h0Z" transform="translate(-4.149 11.884)" fill="#231815"/>
        <path id="パス_87298" data-name="パス 87298" d="M41.867,77.166a31.447,31.447,0,0,1,.371,5.944c-.069,6.682.366,13.322.074,20.021-.587,13.385-2.12,26.714-2.469,40.11a7.206,7.206,0,0,0,.326,2.891,7.316,7.316,0,0,0,2.175,2.6c11.894,10.392,22.675,20.528,29.97,34.841a55.113,55.113,0,0,0-13.939,22.856,79.317,79.317,0,0,1-37.191-20.583c-4.267-4.162-9.593-7.125-12.833-12.185a48.251,48.251,0,0,1-6.765-19.2c-1.365-9.552-.538-19.271.486-28.866,1.622-15.177,3.877-30.74,11.5-43.96,2.243-3.883,5-7.586,8.714-10.1s8.517-3.7,12.788-2.331c4.4,1.412,6.133,4.4,6.79,7.96" transform="translate(-19.199 39.318)" fill="#231815"/>
        <path id="パス_87299" data-name="パス 87299" d="M58.873,208.3a1.311,1.311,0,0,1-.31-.036,80.253,80.253,0,0,1-37.839-20.938c-1.456-1.419-3.088-2.735-4.667-4.006-3.02-2.436-6.142-4.955-8.361-8.42A49.229,49.229,0,0,1,.726,155.154C-.667,145.4.2,135.38,1.208,125.949c1.607-15.062,3.835-30.906,11.68-44.5,2.822-4.892,5.724-8.245,9.131-10.551,4.387-2.966,9.61-3.9,13.975-2.5,4.332,1.392,6.856,4.341,7.72,9.016a33.139,33.139,0,0,1,.395,6.207c-.028,2.712.028,5.472.083,8.144.08,3.893.164,7.921-.013,11.924-.261,5.968-.717,12.014-1.158,17.862-.549,7.282-1.117,14.813-1.31,22.223a6.2,6.2,0,0,0,.228,2.344,6.32,6.32,0,0,0,1.8,2.078c11.709,10.23,22.835,20.625,30.291,35.255a1.37,1.37,0,0,1-.26,1.6,53.643,53.643,0,0,0-13.591,22.285,1.373,1.373,0,0,1-1.309.964M31.781,70.5a14.887,14.887,0,0,0-8.226,2.671c-3.05,2.065-5.686,5.132-8.294,9.651-7.577,13.13-9.75,28.65-11.328,43.419-.989,9.26-1.842,19.088-.492,28.527A46.531,46.531,0,0,0,10,173.421c1.979,3.088,4.794,5.359,7.775,7.761,1.63,1.312,3.312,2.669,4.86,4.179A77.65,77.65,0,0,0,57.957,205.3a56.438,56.438,0,0,1,13.176-21.486C63.9,170.076,53.2,160.1,41.939,150.262a8.5,8.5,0,0,1-2.543-3.121,8.38,8.38,0,0,1-.425-3.438c.193-7.479.764-15.043,1.317-22.36.439-5.824.893-11.849,1.153-17.775.171-3.915.09-7.9.009-11.748-.055-2.691-.112-5.474-.083-8.228a30.7,30.7,0,0,0-.349-5.68c-.681-3.692-2.49-5.82-5.862-6.9a10.979,10.979,0,0,0-3.374-.511" transform="translate(-19.697 38.82)" fill="#231815"/>
        <path id="パス_87300" data-name="パス 87300" d="M74.215,88.243a5.008,5.008,0,0,1,2.845,2.071c.8,1.062,1.14,3.533,1.466,4.819,1.114,4.4,4.476,3.209,7.891,3.04,7.043-.346,8.852-2.463,9.546-6.159A44.158,44.158,0,0,0,94.269,68.3a53.119,53.119,0,0,1-2.422-19.024c.09-1.233.126-2.726-.964-3.339-1.782-1-3.709.093-4.634,1.048-3.221,3.324-4.642,7.224-2.1,11.27-5.774-2.194-9.162-.5-10.854,1.04a4.009,4.009,0,0,0,2.617,6.812c-5.082-.692-6.2,5.968-2.386,7.93-4.159-.231-3.388,6.466-1.156,6.389-2.926,2-.577,6.976,1.848,7.814" transform="translate(20.718 26.092)" fill="#fff"/>
        <path id="パス_87301" data-name="パス 87301" d="M83.279,100.308c-2.285,0-4.656-.684-5.581-4.34-.082-.319-.164-.709-.253-1.134a10.9,10.9,0,0,0-.978-3.195,3.711,3.711,0,0,0-2.2-1.6v0c-1.955-.675-3.745-3.132-4.077-5.592a5.013,5.013,0,0,1,.56-3.2,3.792,3.792,0,0,1-.346-.5,5.975,5.975,0,0,1,0-5.721,3.917,3.917,0,0,1,.948-1.068,6.036,6.036,0,0,1-.7-5.091,5.213,5.213,0,0,1,1.924-2.716,4.9,4.9,0,0,1-1.059-1.884,5.536,5.536,0,0,1,1.346-5.48c1.46-1.326,4.462-3.139,9.357-2.16-.86-3.341.332-6.779,3.539-10.09,1.507-1.554,4.036-2.556,6.288-1.288,1.921,1.081,1.744,3.481,1.659,4.634a51.437,51.437,0,0,0,2.347,18.464,45.121,45.121,0,0,1,1.751,24.425c-.919,4.9-3.954,6.938-10.826,7.275-.525.025-1.051.079-1.565.129-.67.066-1.4.137-2.141.137M75.163,87.447a6.365,6.365,0,0,1,3.492,2.54,11.428,11.428,0,0,1,1.474,4.286c.08.382.154.735.228,1.022.613,2.43,1.711,2.452,4.8,2.145.558-.053,1.128-.109,1.7-.135,6.859-.337,7.753-2.3,8.267-5.041a42.518,42.518,0,0,0-1.637-23,54.5,54.5,0,0,1-2.5-19.586c.033-.45.134-1.818-.269-2.045-1.123-.635-2.438.252-2.976.807-3.243,3.347-3.874,6.483-1.927,9.588a1.37,1.37,0,0,1-1.648,2.009c-5.01-1.9-7.9-.631-9.447.774a2.835,2.835,0,0,0-.566,2.657,2.7,2.7,0,0,0,2.468,1.787,1.37,1.37,0,0,1-.39,2.712,2.461,2.461,0,0,0-2.952,1.721,3.066,3.066,0,0,0,1.378,3.635,1.37,1.37,0,0,1-.7,2.586,1.213,1.213,0,0,0-1.389.958,3.1,3.1,0,0,0,.393,2.721,1.3,1.3,0,0,1,1.283.93,1.385,1.385,0,0,1-.593,1.545,1.935,1.935,0,0,0-.733,2.02,4.519,4.519,0,0,0,2.254,3.366" transform="translate(20.218 25.591)" fill="#231815"/>
        <path id="パス_87302" data-name="パス 87302" d="M71.434,40.209a2.058,2.058,0,0,1-1.257-2.633l5.31-15.359A2.053,2.053,0,0,1,78.1,20.924l8.561,2.959a1.234,1.234,0,0,1-.805,2.333l-7.68-2.655a.4.4,0,0,0-.5.242L72.861,37.742a.406.406,0,0,0,.231.525l6.343,2.191a.387.387,0,0,0,.508-.271L82.3,33.361a.379.379,0,0,0-.242-.5L79.841,32.1a1.2,1.2,0,0,1,.788-2.276l3.044,1.051A2.055,2.055,0,0,1,84.928,33.5L82.1,41.7a2.056,2.056,0,0,1-2.613,1.3Z" transform="translate(20.439 11.924)"/>
        <path id="パス_87303" data-name="パス 87303" d="M85.726,43.245,80.35,41.386a2.054,2.054,0,0,1-1.255-2.631L82.6,28.6a2.032,2.032,0,0,1,2.6-1.266l6.03,2.084c.868.716,1.611,1.513,1.238,2.594L89.182,41.54a2.724,2.724,0,0,1-3.456,1.705M84.559,30.039,81.52,38.83a.4.4,0,0,0,.242.5l4.693,1.623a.409.409,0,0,0,.527-.233l3.037-8.791a.431.431,0,0,0-.26-.536l-4.693-1.622a.427.427,0,0,0-.508.271" transform="translate(25.548 15.595)"/>
        <path id="パス_87304" data-name="パス 87304" d="M93.34,45.877l-5.376-1.859a2.054,2.054,0,0,1-1.255-2.631l3.509-10.155a2.032,2.032,0,0,1,2.6-1.266l6.03,2.084c.868.716,1.611,1.513,1.238,2.594L96.8,44.172a2.724,2.724,0,0,1-3.456,1.705M92.173,32.671l-3.039,8.791a.4.4,0,0,0,.242.5l4.693,1.623a.409.409,0,0,0,.527-.233l3.037-8.791a.431.431,0,0,0-.26-.536L92.681,32.4a.427.427,0,0,0-.508.271" transform="translate(29.909 17.102)"/>
        <path id="パス_87305" data-name="パス 87305" d="M100.7,49.334l-5.12-1.769a2.056,2.056,0,0,1-1.257-2.631l3.511-10.156a2.03,2.03,0,0,1,2.6-1.265l4.922,1.7a.412.412,0,0,0,.536-.26L107,31.737a1.264,1.264,0,0,1,2.389.824l-5.211,15.078a2.748,2.748,0,0,1-3.482,1.7M99.92,36.2l-3.1,8.961a.4.4,0,0,0,.233.525l4.181,1.445a.411.411,0,0,0,.536-.26l3.1-8.961a.412.412,0,0,0-.261-.536l-4.181-1.445a.407.407,0,0,0-.508.271" transform="translate(34.272 17.696)"/>
        <path id="パス_87306" data-name="パス 87306" d="M106.064,52.95a1.444,1.444,0,0,1-1.76.857,1.423,1.423,0,0,1-.856-1.763l.472-1.365a1.421,1.421,0,0,1,1.76-.854,1.44,1.44,0,0,1,.856,1.758Zm2.026-5.861a1.444,1.444,0,0,1-1.76.857,1.424,1.424,0,0,1-.857-1.762l4.9-14.167a1.42,1.42,0,0,1,1.762-.854,1.44,1.44,0,0,1,.856,1.758Z" transform="translate(39.527 17.814)"/>
        <rect id="長方形_9880" data-name="長方形 9880" width="24.875" height="1.572" transform="translate(126.948 84.17) rotate(-15.079)"/>
        <rect id="長方形_9881" data-name="長方形 9881" width="1.572" height="24.833" transform="translate(81.755 46.528) rotate(-18.433)"/>
      </g>
    </g>
    <g id="グループ_26469" data-name="グループ 26469" transform="translate(830.799 8034.564)">
      <path id="パス_129405" data-name="パス 129405" d="M123.6,231.353H112.941v-29.48h-4.594v-6.7l6.509-3.446H123.6Z" transform="translate(-27.101 -47.956)"/>
      <g id="グループ_26468" data-name="グループ 26468">
        <g id="グループ_26467" data-name="グループ 26467" clip-path="url(#clip-path-2)">
          <path id="パス_129406" data-name="パス 129406" d="M148.36,190.875q12,0,12,10.4a10.44,10.44,0,0,1-1.148,5.168,10.8,10.8,0,0,1-3.765,3.7v.255a8.957,8.957,0,0,1,4.211,3.542,11.3,11.3,0,0,1,1.277,5.712q0,5.806-3.319,8.965t-9.635,3.158a22.629,22.629,0,0,1-5.329-.542,38.8,38.8,0,0,1-5.647-2.01l2.234-8.933q5.3,1.913,7.338,1.914,3,0,3-3.319,0-3.572-4.02-3.573H141.6v-8.36h4.02a3.317,3.317,0,0,0,2.521-.8,3.433,3.433,0,0,0,.733-2.393q0-3.063-3-3.063-2.106,0-7.465,2.169l-2.49-8.615a29.177,29.177,0,0,1,6.254-2.648,23.992,23.992,0,0,1,6.189-.734" transform="translate(-33.997 -47.743)"/>
          <path id="パス_129407" data-name="パス 129407" d="M182.655,231.977q5.934,0,5.934,5.871a8.108,8.108,0,0,1-1.276,4.307,14.749,14.749,0,0,1-2.68,3.318q-1.4,1.244-4.02,3.158l-3.765-1.4,4.02-5.3-.127-.319a4.286,4.286,0,0,1-3.446-4.531q0-5.1,5.361-5.1" transform="translate(-44.235 -58.024)"/>
          <path id="パス_129408" data-name="パス 129408" d="M225.251,202.489a71.688,71.688,0,0,1,0,17.612,20.209,20.209,0,0,1-2.01,6.318q-2.872,5.36-11.231,5.36-8.231,0-11.1-5.36a20.785,20.785,0,0,1-2.042-6.35,56.089,56.089,0,0,1-.574-8.773q0-10.721,2.84-15.57t10.88-4.849q8.423,0,11.231,5.3a20.217,20.217,0,0,1,2.01,6.317m-9.667,9.125v-.957q0-6.254-.351-7.307a14.044,14.044,0,0,0-.733-1.818,2.6,2.6,0,0,0-2.489-1.276,2.451,2.451,0,0,0-2.424,1.276,8.775,8.775,0,0,0-.83,3.382q-.128,3.191-.127,5.743v.957q0,6.956.351,8.072a12.871,12.871,0,0,0,.733,1.882,2.691,2.691,0,0,0,2.745,1.4q2.106,0,2.616-2.393a51.262,51.262,0,0,0,.51-8.965" transform="translate(-49.598 -47.744)"/>
          <path id="パス_129409" data-name="パス 129409" d="M265.5,202.489a71.686,71.686,0,0,1,0,17.612,20.208,20.208,0,0,1-2.01,6.318q-2.872,5.36-11.231,5.36-8.231,0-11.1-5.36a20.786,20.786,0,0,1-2.042-6.35,56.1,56.1,0,0,1-.574-8.773q0-10.721,2.84-15.57t10.88-4.849q8.423,0,11.231,5.3a20.216,20.216,0,0,1,2.01,6.317m-9.667,9.125v-.957q0-6.254-.351-7.307a14.037,14.037,0,0,0-.733-1.818,2.6,2.6,0,0,0-2.489-1.276,2.451,2.451,0,0,0-2.424,1.276,8.774,8.774,0,0,0-.83,3.382q-.128,3.191-.128,5.743v.957q0,6.956.351,8.072a12.866,12.866,0,0,0,.733,1.882,2.691,2.691,0,0,0,2.745,1.4q2.106,0,2.616-2.393a51.265,51.265,0,0,0,.51-8.965" transform="translate(-59.666 -47.744)"/>
          <path id="パス_129410" data-name="パス 129410" d="M305.75,202.489a71.69,71.69,0,0,1,0,17.612,20.209,20.209,0,0,1-2.01,6.318q-2.872,5.36-11.231,5.36-8.231,0-11.1-5.36a20.786,20.786,0,0,1-2.042-6.35,56.1,56.1,0,0,1-.574-8.773q0-10.721,2.84-15.57t10.88-4.849q8.423,0,11.231,5.3a20.217,20.217,0,0,1,2.01,6.317m-9.667,9.125v-.957q0-6.254-.351-7.307a14.03,14.03,0,0,0-.733-1.818,2.6,2.6,0,0,0-2.489-1.276,2.451,2.451,0,0,0-2.424,1.276,8.774,8.774,0,0,0-.83,3.382q-.128,3.191-.128,5.743v.957q0,6.956.351,8.072a12.868,12.868,0,0,0,.733,1.882,2.691,2.691,0,0,0,2.745,1.4q2.106,0,2.616-2.393a51.263,51.263,0,0,0,.51-8.965" transform="translate(-69.733 -47.744)"/>
          <path id="パス_129411" data-name="パス 129411" d="M333.553,223.717a25.313,25.313,0,0,1-2.324,8.643,20.124,20.124,0,0,1-3.261,5.137,21.3,21.3,0,0,0-4.606-4,18.6,18.6,0,0,0,3.668-6.237c1.02-3.058,1.468-7.38,1.468-14.188,0-1.794-.082-3.179-.2-4.566,1.386.082,2.364.122,4.321.122h21.893c1.713,0,2.568-.04,3.71-.122a31.121,31.121,0,0,0-.163,3.873v9.458a35.092,35.092,0,0,0,.163,4.2h-5.626v-2.325Zm27.314-17.856a39.017,39.017,0,0,0-4.81-.2H329.926a40.685,40.685,0,0,0-4.811.2V200.48a32.71,32.71,0,0,0,4.811.244h26.132a31.733,31.733,0,0,0,4.81-.244Zm-8.276,12.883v-5.137H333.92v2.61c0,.448,0,.9-.04,1.3,0,.367-.041.652-.041.693a2.044,2.044,0,0,1-.04.53Z" transform="translate(-80.882 -50.146)"/>
          <path id="パス_129412" data-name="パス 129412" d="M381.656,203.47a36.481,36.481,0,0,0,7.461.53h2.038a16.215,16.215,0,0,0,1.467-4.77l6.319.571a20.837,20.837,0,0,0-1.509,3.383c-.163.367-.163.408-.325.734a24.6,24.6,0,0,1,2.528-.163,56.475,56.475,0,0,0,10.518-1.345l.244,5.5c-1.263.123-1.263.123-3.221.327-2.976.367-8.276.693-12.393.815a29.254,29.254,0,0,1-2.65,4.036,10.393,10.393,0,0,1,5.626-1.59c3.3,0,5.34,1.386,6.074,4.118.367-.122,1.1-.367,2.161-.734,1.59-.571,1.794-.652,3.628-1.264a13.922,13.922,0,0,0,3.18-1.223l2.16,5.544a30.86,30.86,0,0,0-4.607,1.06c-.979.244-.979.244-5.911,1.917l.04,1.345v2.772a24.646,24.646,0,0,0,.122,2.731l-5.667.163a30.333,30.333,0,0,0,.245-4.729,1.3,1.3,0,0,0-.041-.326,21.18,21.18,0,0,0-3.261,1.752,3.8,3.8,0,0,0-1.916,2.936c0,1.875,1.752,2.609,6.2,2.609a37.4,37.4,0,0,0,12.515-1.834l.448,6.237a15.343,15.343,0,0,0-2.038.2,75.487,75.487,0,0,1-10.477.733c-5.993,0-9.376-.9-11.252-3.017a6.624,6.624,0,0,1-1.59-4.4c0-2.528,1.63-5.056,4.729-7.3a31.517,31.517,0,0,1,5.952-3.139,1.857,1.857,0,0,0-2.079-1.631c-2.2,0-4.973,1.386-8.031,4.037a24.853,24.853,0,0,0-3.71,3.913l-4.4-4.361c2.283-1.672,5.829-5.911,7.95-9.54a6.27,6.27,0,0,1,.611-1.019c-2.283,0-2.609,0-3.791-.04-.775-.041-1.426-.041-1.549-.041a2.565,2.565,0,0,1-.693-.04h-.571a3.544,3.544,0,0,0-.612.04Z" transform="translate(-95.106 -49.833)"/>
          <path id="パス_129413" data-name="パス 129413" d="M459.853,220.4a15.962,15.962,0,0,0,6.535,5.036c3.389,1.6,6.779,2.323,11.862,2.614a22.879,22.879,0,0,0-2.905,6.778c-6.391-1.162-9.974-2.421-13.9-4.939a24.333,24.333,0,0,1-6.488-5.809c-2.13,3.485-4.744,5.713-9.005,7.746a35.63,35.63,0,0,1-9.538,2.856,19.693,19.693,0,0,0-3.2-6.148,33.62,33.62,0,0,0,9.877-2.325c3.534-1.549,5.664-3.292,7.02-5.81h-10.07a44.232,44.232,0,0,0-5.616.291V214.4a41.719,41.719,0,0,0,5.374.29h12.055a15.657,15.657,0,0,0,.193-3,9.973,9.973,0,0,0-.145-1.888h5.277c-.532-.629-.629-1.162-.629-2.856v-7.553h-3.147a16.7,16.7,0,0,1-1.453,5.374,13.979,13.979,0,0,1-6.148,6.148,24.825,24.825,0,0,1-7.892,2.275,18.983,18.983,0,0,0-3.293-5.519c8.279-.387,11.91-2.808,12.734-8.279h-6.585v5.278h-6.391a20.956,20.956,0,0,0,.291-3.777v-3.534a24.705,24.705,0,0,0-.193-3.68,55,55,0,0,0,5.568.193h11.813V193.1a15.575,15.575,0,0,0-.242-2.953h7.165a14.036,14.036,0,0,0-.242,2.953v.774h12.83a53.939,53.939,0,0,0,5.52-.193c-.1,1.066-.145,2.034-.145,3.68v3.583a27.93,27.93,0,0,0,.193,3.776h-2.566c-.194,3.485-.823,4.939-2.469,5.665-1.6.629-3.389.871-7.456.871a20.682,20.682,0,0,1-5.858-.629c0,.872-.146,2.324-.339,4.067h13.023a42.5,42.5,0,0,0,5.665-.29v6.294a42.566,42.566,0,0,0-5.519-.291Zm10.8-21.011h-8.231v5.616c0,.678.146.92.678,1.017a15.03,15.03,0,0,0,2.373.145c1.694,0,2.469-.194,2.808-.629a5.97,5.97,0,0,0,.339-2.664,7.7,7.7,0,0,0-.048-.919c1.017.436,1.356.581,2.082.823Z" transform="translate(-108.362 -47.56)"/>
          <path id="パス_129414" data-name="パス 129414" d="M541.347,210.074a23.732,23.732,0,0,0-1.4,3.341,39.042,39.042,0,0,1-5.131,10.361,27.663,27.663,0,0,0,8.908,4.938,25.52,25.52,0,0,0-3.146,6.537,43.611,43.611,0,0,1-9.732-6.729,37.135,37.135,0,0,1-8.956,6.729,19.533,19.533,0,0,0-3.2-4.987,26.34,26.34,0,0,1-2.808,5.132,15.927,15.927,0,0,0-4.648-4.213c.436-.629.58-.823.92-1.4h-6.2v4.261h-5.76c.145-1.452.241-3.147.241-5.035v-9.247c0-1.065,0-1.6.048-2.711a17.85,17.85,0,0,1-2.033,3.147,25.819,25.819,0,0,0-2.082-7.118,25.806,25.806,0,0,0,5.278-9.3A32.98,32.98,0,0,0,503.2,197.1h-1.162a26.917,26.917,0,0,0-4.115.242v-6.148a35.462,35.462,0,0,0,4.89.241h7.214a35.78,35.78,0,0,0,4.938-.241v6.1a36.879,36.879,0,0,0-4.309-.194H509.2a43.588,43.588,0,0,1-2.517,9.635h4.309a22.163,22.163,0,0,0,2.856-.145c-.1,1.21-.1,1.936-.1,3.389V226.2c1.888-5.131,2.614-11.91,2.614-25.321a52.839,52.839,0,0,0-.242-6.149,43.652,43.652,0,0,0,5.18.242h4.842v-.774a22.958,22.958,0,0,0-.291-4.5h6.488a25.839,25.839,0,0,0-.29,4.551v.726h3.728a25.662,25.662,0,0,0,4.744-.242l2.615,2.76a33.487,33.487,0,0,0-1.211,3.147c-.387,1.113-1.936,4.55-2.711,6.051a35.86,35.86,0,0,0-5.278-1.791,18.23,18.23,0,0,0,2.082-4.26h-4.164v6.875h2.614a25.351,25.351,0,0,0,3.923-.194Zm-35.634,14.137h2.857V212.3h-2.857Zm16.22-11.28c-.388,7.165-1.308,12.2-2.954,16.558a26.012,26.012,0,0,0,7.746-5.374,34.342,34.342,0,0,1-4.841-8.763l4.841-2.421Zm4.212-5.422v-6.875h-4.019v3.534c0,1.549,0,2.13-.049,3.341Zm.871,5.422a24.622,24.622,0,0,0,3.631,6.487,23.816,23.816,0,0,0,3.244-6.487Z" transform="translate(-124.156 -47.447)"/>
          <path id="パス_129415" data-name="パス 129415" d="M574.494,221.646c.049-1.21.1-1.743.1-2.276,0-.629,0-.629-.146-3.485l-.823-15.929c-.1-2.178-.291-4.55-.484-6.2h9.441c-.194,1.4-.388,3.68-.484,6.2l-.823,15.929c-.145,2.954-.145,2.954-.145,3.534,0,.533.048,1.017.1,2.227Zm-.775,3.68H582v7.843h-8.279Z" transform="translate(-143.358 -48.465)"/>
          <path id="パス_129416" data-name="パス 129416" d="M593.864,221.646c.048-1.21.1-1.743.1-2.276,0-.629,0-.629-.146-3.485l-.823-15.929c-.1-2.178-.291-4.55-.484-6.2h9.441c-.194,1.4-.388,3.68-.484,6.2l-.823,15.929c-.145,2.954-.145,2.954-.145,3.534,0,.533.048,1.017.1,2.227Zm-.775,3.68h8.279v7.843h-8.279Z" transform="translate(-148.203 -48.465)"/>
          <path id="パス_129417" data-name="パス 129417" d="M33.847,124.224a31.278,31.278,0,0,0-1.72,3.809,72.059,72.059,0,0,1-5.449,10.814,88.756,88.756,0,0,1,8.93,8.6l-5.571,5.817a63.048,63.048,0,0,0-7.742-8.4c-3.892,5.038-8.89,9.175-15.853,13.026a20.974,20.974,0,0,0-5.161-6.186,41.185,41.185,0,0,0,11.1-7.128,41.288,41.288,0,0,0,4.383-4.547,86.87,86.87,0,0,0-10.65-7.291l5.038-4.957a93.873,93.873,0,0,1,9.667,6.432,44.523,44.523,0,0,0,5.325-12.575Z" transform="translate(-0.321 -30.427)" fill="#beb143"/>
          <path id="パス_129418" data-name="パス 129418" d="M65.469,123.05a62.9,62.9,0,0,1,5.489,13.518l-7.661,2.54a61.052,61.052,0,0,0-5.038-13.846ZM84.8,126.942a23.33,23.33,0,0,0-2.909-5.694l4.1-1.189a22.35,22.35,0,0,1,3.031,5.9l-3.482,1.106,5.365.942a6.675,6.675,0,0,0-.491,1.515c-3.563,14.01-9.872,22.324-21.546,28.387A23.964,23.964,0,0,0,63.42,151.6c8.93-3.892,14.665-9.627,17.7-17.655a26.357,26.357,0,0,0,1.966-7.292Zm7.086-8.357a24.275,24.275,0,0,1,3.072,5.776l-3.932,1.311A27.782,27.782,0,0,0,88,119.732Z" transform="translate(-14.572 -29.662)" fill="#beb143"/>
          <path id="パス_129419" data-name="パス 129419" d="M124.371,158.182a41.366,41.366,0,0,0,.287-5.775v-7.374a50.941,50.941,0,0,1-11.8,4.752,23.029,23.029,0,0,0-3.359-6.309,61.591,61.591,0,0,0,12.289-3.891,33.859,33.859,0,0,0,10.323-6.841l-12.535.082a49.235,49.235,0,0,0-5.9.2V126.4a43.014,43.014,0,0,0,5.981.328h4.874v-2.253a25.949,25.949,0,0,0-.205-3.809h7.619a25.122,25.122,0,0,0-.246,3.728v2.293h6.513a6.03,6.03,0,0,0,2.622-.45l3.2,3.727c-.655.451-.655.451-1.884,1.884-2.089,2.335-2.54,2.786-7.537,7.087a60.508,60.508,0,0,1,13.272,6.431l-4.055,6.021a57.028,57.028,0,0,0-12-6.84v7.906a35.826,35.826,0,0,0,.247,5.734Z" transform="translate(-27.39 -30.181)" fill="#beb143"/>
          <path id="パス_129420" data-name="パス 129420" d="M175.219,133.142a51.548,51.548,0,0,1,3.974,10.364l-6.39,1.926a52.242,52.242,0,0,0-3.647-10.61Zm23.841.7a16.49,16.49,0,0,0-.614,2.5c-1.229,5.776-2.826,9.955-5.121,13.354a29.775,29.775,0,0,1-8.6,8.316,55.66,55.66,0,0,1-4.957,2.745,20.888,20.888,0,0,0-4.506-5.776c8.234-3.2,12.7-7.291,15.238-14.091a28.644,28.644,0,0,0,1.8-8.643Zm-14.829-2.417a41.877,41.877,0,0,1,3.974,10l-6.267,1.925a48.154,48.154,0,0,0-3.687-10.281Z" transform="translate(-42.311 -32.872)" fill="#beb143"/>
          <path id="パス_129421" data-name="パス 129421" d="M230.217,157.691a58.348,58.348,0,0,0,.246-6.267V127.583a38.708,38.708,0,0,0-.287-5.939h7.906a53.066,53.066,0,0,0-.2,5.98v5.612a86.868,86.868,0,0,1,18.638,8.52l-3.891,6.964a75.859,75.859,0,0,0-12.9-7.128,9.867,9.867,0,0,1-1.843-.82v10.65a59.962,59.962,0,0,0,.246,6.267Z" transform="translate(-57.574 -30.427)" fill="#beb143"/>
          <path id="パス_129422" data-name="パス 129422" d="M286.783,121.452h2.007c3.236,0,7.455-.246,11.183-.614a22.375,22.375,0,0,0,5.9-1.024l4.22,3.974c-2.826.451-5.53.778-9.258,1.065v1.393h6.8a23.55,23.55,0,0,0,3.932-.2v4.3a30.454,30.454,0,0,0-3.932-.164h-6.8v1.066h5.49c2.047,0,3.113-.041,3.932-.123v3.891c-.943-.082-1.885-.122-3.932-.122H290.675c-1.926,0-3.2.04-3.932.122V131.12c.778.082,1.926.123,3.932.123h4.26v-1.066h-5.284a31.2,31.2,0,0,0-3.974.164v-4.26a32.065,32.065,0,0,0,3.974.163h5.284v-1.106c-3.318.123-3.318.123-6.6.164a16.589,16.589,0,0,0-1.024-2.7,27.339,27.339,0,0,1-2.827,2.99v5.94a17.594,17.594,0,0,0,.205,3.4h-6.35a9.461,9.461,0,0,0,.246-2.334v-.738a6.62,6.62,0,0,1,.123-1.352,19.766,19.766,0,0,1-2.949,2.172,24.674,24.674,0,0,0-2.868-5.121c4.26-2.376,7.455-5.12,9.012-7.823l5.079,2.13Zm-5.857,30.681c-1.434,0-2.622.041-3.278.082.082-.943.123-1.966.123-3.564v-9.544a29.2,29.2,0,0,0-.123-3.359c1.27.082,1.435.082,3.933.082h21.751c2.458,0,2.7,0,4.015-.082a25.586,25.586,0,0,0-.164,3.6v8.725c0,2.253.041,3.359.123,4.178-1.065-.082-1.065-.082-4.752-.123h-1.105a33.27,33.27,0,0,0,10.568,1.884,26.428,26.428,0,0,0-3.523,4.915c-6.226-1.065-9.258-2.089-14.091-4.792l3.563-2.007H286.5l3.974,2.049a37.562,37.562,0,0,1-13.763,4.792,23.9,23.9,0,0,0-3.482-4.669,36.444,36.444,0,0,0,10.363-2.172Zm2.868-11.92H301.08v-1.065H283.793Zm0,4.1H301.08V143.2H283.793Zm0,4.1H301.08V147.3H283.793Z" transform="translate(-68.259 -29.948)" fill="#beb143"/>
          <path id="パス_129423" data-name="パス 129423" d="M333.234,133.154a12.943,12.943,0,0,0,.286-1.639l.04-.368a3.78,3.78,0,0,1,.041-.532,1.6,1.6,0,0,1,.082-.615,21.6,21.6,0,0,1-3.317,2.295,26.988,26.988,0,0,0-2.949-5.121c4.342-2.294,8.11-5.366,9.462-7.742l6.1,2.13-.532.573c-.164.164-.164.164-.655.7a31.565,31.565,0,0,1-2.335,2.417v5.489a11.674,11.674,0,0,0,.164,2.417Zm27.773-10.036a25.016,25.016,0,0,0,4.546-.573l.369,5.653a17.89,17.89,0,0,0-2.007-.082c-.9,0-1.352.04-2.581.122l-5.53.41c1.639,1.6,3.647,2.7,4.793,2.7.491,0,.861-1.065,1.024-2.908a20.67,20.67,0,0,0,5,2.622c-.737,4.506-1.925,5.98-4.957,6.1v10.077a36.535,36.535,0,0,0,.164,4.506c-1.024-.04-2.089-.082-4.1-.082h-1.761c3.032,1.229,5.694,1.72,10.527,1.966a27.069,27.069,0,0,0-3.523,4.957,36.231,36.231,0,0,1-7.619-1.884,32.989,32.989,0,0,1-6.513-3.113l3.482-1.925h-11.1l3.686,1.966c-4.792,2.868-7.66,3.891-13.763,5a24.155,24.155,0,0,0-3.482-4.711,33.141,33.141,0,0,0,10.241-2.253h-1.638c-2.089,0-3.031.041-4.137.082a34.074,34.074,0,0,0,.164-4.1v-9.913a34.525,34.525,0,0,0-.164-4.1c1.188.082,1.638.082,4.055.082h16.754a17,17,0,0,1-4.1-4.588l-3.523.286a23.972,23.972,0,0,0-4.26.491l-.409-5.694c.45.041.982.041,1.719.041.615,0,1.475-.041,2.663-.082l1.475-.123c-.246-.737-.41-1.311-.655-2.253-.2-.778-.287-1.024-.451-1.556l6.35-.492a12.175,12.175,0,0,0,.942,3.932l4.465-.328c-.7-.328-.737-.369-.982-.491-1.311-.7-1.475-.778-2.172-1.106l3.769-2.745a21.191,21.191,0,0,1,4.792,2.868Zm-22.694,15.771h17.2v-1.229h-17.2Zm0,4.343h17.2v-1.188h-17.2Zm0,4.342h17.2v-1.188h-17.2Z" transform="translate(-81.896 -29.771)" fill="#beb143"/>
          <path id="パス_129424" data-name="パス 129424" d="M6.583,90.164a3.293,3.293,0,0,0,.87,1.987,4.825,4.825,0,0,0,3.571,1.336c2.422,0,3.944-1.211,3.944-3.105a2.693,2.693,0,0,0-1.677-2.67,8.921,8.921,0,0,0-2.888-.4c-1.211,0-2.609.062-3.82.186V82.152a27.224,27.224,0,0,0,3.292.187c2.95,0,4.41-.994,4.41-2.981,0-1.677-1.18-2.64-3.23-2.64-2.205,0-3.323.87-3.789,2.857L.559,78.613a8.92,8.92,0,0,1,2.08-3.944c1.895-2.049,4.751-3.105,8.54-3.105,3.386,0,6.18.931,7.949,2.64a6.011,6.011,0,0,1,1.74,4.41c0,3.291-1.77,5.341-5.341,6.179a7,7,0,0,1,4.007,1.646,6.117,6.117,0,0,1,2.049,4.6,6.925,6.925,0,0,1-1.243,4.13,7.777,7.777,0,0,1-2.919,2.329A16.75,16.75,0,0,1,10.962,98.7a14.072,14.072,0,0,1-7.236-1.739,8.4,8.4,0,0,1-3.2-4.006A11.6,11.6,0,0,1,0,91.313Z" transform="translate(0 -17.9)" fill="#beb143"/>
          <path id="パス_129425" data-name="パス 129425" d="M35.365,95.754A9.773,9.773,0,0,1,33.1,92.307,20.6,20.6,0,0,1,31.887,85.2a18.153,18.153,0,0,1,1.956-8.6,10.106,10.106,0,0,1,9.037-4.906,10.558,10.558,0,0,1,7.546,2.888,9.773,9.773,0,0,1,2.267,3.447A20.65,20.65,0,0,1,53.9,85.165,18.285,18.285,0,0,1,51.948,93.8a10.164,10.164,0,0,1-9.067,4.845,10.306,10.306,0,0,1-7.515-2.889m2.888-10.806c0,5.559,1.584,8.416,4.658,8.416,3.044,0,4.6-2.795,4.6-8.323,0-5.311-1.614-8.105-4.627-8.105-2.919,0-4.627,2.951-4.627,8.012" transform="translate(-7.976 -17.931)" fill="#beb143"/>
          <path id="パス_129426" data-name="パス 129426" d="M74.031,82.163v-.622c-.745.777-1.024,1.057-1.894,1.863a14.058,14.058,0,0,0-3.105-4.1,18.958,18.958,0,0,0,5.9-7.2,9.215,9.215,0,0,0,.777-2.235l5.155.869c-.279.559-.31.621-.652,1.429-.155.342-.248.559-.466.994H93.378a27.6,27.6,0,0,0,3.572-.186v4.72a28.8,28.8,0,0,0-3.572-.187h-5.59v2.981h4.348c1.645,0,2.577-.031,3.6-.124v4.5c-1.024-.093-1.925-.124-3.446-.124h-4.5v4.037h6.521a29.022,29.022,0,0,0,3.665-.187V93.4a31.183,31.183,0,0,0-3.665-.186H87.789v2.608a24.332,24.332,0,0,0,.186,3.758H82.789a29.112,29.112,0,0,0,.186-3.851V93.218H73.318a31.034,31.034,0,0,0-3.7.186V88.591a30.655,30.655,0,0,0,3.7.187h.714Zm3.23-4.658a28.446,28.446,0,0,1-2.3,2.95c.466.031.653.031,1.15.031h6.863V77.5Zm5.714,7.236H78.658v4.037h4.317Z" transform="translate(-17.267 -17.475)" fill="#beb143"/>
          <path id="パス_129427" data-name="パス 129427" d="M113.373,75.3a31.2,31.2,0,0,0-.248-4.13H118.4a22.907,22.907,0,0,0-.155,3.26v.87L118.4,89.15a62.262,62.262,0,0,0,7.3-3.975l.839,4.565a87.941,87.941,0,0,1-13.6,7.173c-.186.094-.589.28-.931.466l-1.274-5.125a27.688,27.688,0,0,0,2.8-.962ZM137.6,71.108c-.062.59-.062.807-.093,1.956-.187,7.36-1.212,12.359-3.386,16.4a17.676,17.676,0,0,0,5.869,5.435,25.73,25.73,0,0,0-2.794,4.969,24.916,24.916,0,0,1-5.9-6.273,24.193,24.193,0,0,1-9.5,6.522,13.572,13.572,0,0,0-2.671-4.316c5.683-2.236,8.819-4.751,10.776-8.6,1.708-3.323,2.609-8.042,2.609-13.788a10.27,10.27,0,0,0-.186-2.3ZM123.9,72.692a50.623,50.623,0,0,1,6.3,7.763L125.763,83.5a42.656,42.656,0,0,0-6.024-8.229Z" transform="translate(-27.698 -17.786)" fill="#beb143"/>
          <path id="パス_129428" data-name="パス 129428" d="M168.458,94.026h7.67a43.963,43.963,0,0,0,4.844-.217v5.155a44.463,44.463,0,0,0-4.75-.217H157.5c-1.584,0-3.323.062-4.938.217V93.809a44.665,44.665,0,0,0,4.938.217h5.838V74.9a30.615,30.615,0,0,0-.186-3.913h5.5a36.654,36.654,0,0,0-.187,3.913v4.161H175.1c1.429,0,2.64-.062,3.975-.186v5c-1.365-.124-2.577-.187-3.975-.187h-6.645Z" transform="translate(-38.159 -17.755)" fill="#beb143"/>
          <path id="パス_129429" data-name="パス 129429" d="M208.048,91.324c-1.8,3.975-3.882,5.714-6.708,5.714-4.162,0-7.081-3.975-7.081-9.658a13.808,13.808,0,0,1,3.572-9.471,14.847,14.847,0,0,1,11.241-4.565,13.85,13.85,0,0,1,10.124,3.82,12.345,12.345,0,0,1,3.043,8.633,13.363,13.363,0,0,1-4.13,10.03C216,97.722,213.544,98.715,209.2,99.4a15.258,15.258,0,0,0-2.64-5.092,16.155,16.155,0,0,0,6.521-1.584c2.392-1.273,3.727-3.882,3.727-7.2a7.307,7.307,0,0,0-2.733-6.117,5.2,5.2,0,0,0-2.609-1.087,43.505,43.505,0,0,1-3.416,13.012m-5.341-11.366a10.047,10.047,0,0,0-3.385,7.391c0,2.2.838,3.944,1.926,3.944.776,0,1.583-1.087,2.515-3.447a40.257,40.257,0,0,0,2.329-9.472,6.21,6.21,0,0,0-3.385,1.584" transform="translate(-48.59 -18.345)" fill="#beb143"/>
          <path id="パス_129430" data-name="パス 129430" d="M241.25,81.708a18.394,18.394,0,0,0-2.826.124v-1.8h-3.011a13.487,13.487,0,0,0,.155-2.454V75.031c0-.807-.031-1.459-.125-2.515.994.093,2.019.124,3.727.124h7.546v-.217a13.029,13.029,0,0,0-.124-2.019h5.217a11.469,11.469,0,0,0-.155,1.987v.249h8.012c1.708,0,2.7-.031,3.726-.124a23.054,23.054,0,0,0-.124,2.422v2.671a20.093,20.093,0,0,0,.124,2.422h-2.981v1.8a20.5,20.5,0,0,0-2.889-.124h-5.993c0,.559,0,.559-.031,1.087h6.211a28.287,28.287,0,0,0,2.919-.094v3.788a20.881,20.881,0,0,0-2.919-.124h-6.4c-.062.59-.062.683-.124,1.149h8.788a25.434,25.434,0,0,0,3.571-.155v4.223a36.1,36.1,0,0,0-3.819-.186h-6.553A8.682,8.682,0,0,0,256,93.322a28.2,28.2,0,0,0,8.2,1.895,14.393,14.393,0,0,0-2.112,4.657,27.2,27.2,0,0,1-7.236-2.173,15.266,15.266,0,0,1-5.776-4.472,12.423,12.423,0,0,1-4.41,4.1,20.774,20.774,0,0,1-7.733,2.546,13.194,13.194,0,0,0-2.174-4.5,20.542,20.542,0,0,0,5.621-1.057A9.728,9.728,0,0,0,244.76,91.4h-5.683c-1.3,0-2.454.061-3.758.186V87.359a23.933,23.933,0,0,0,3.478.155h7.608c.093-.5.124-.715.186-1.149H241a20.369,20.369,0,0,0-2.889.124V82.7a28.41,28.41,0,0,0,2.889.094h5.807c.031-.59.031-.59.031-1.087Zm-1.117-4.969v1.336h6.738c0-.683,0-.838-.031-1.336Zm11.459,0c-.031.87-.031.9-.031,1.336H258.7V76.739Z" transform="translate(-58.72 -17.61)" fill="#beb143"/>
          <path id="パス_129431" data-name="パス 129431" d="M276.047,82.971a10.778,10.778,0,0,0,2.2.124h.435c.5-.683.5-.683.715-1.025a30.3,30.3,0,0,0-3.478-4.782l2.049-3.82.745.87a19.178,19.178,0,0,0,1.739-4.471l3.851,1.49a13.387,13.387,0,0,0-.87,1.677,33.719,33.719,0,0,1-2.328,4.409c.279.4.373.528.683.963,2.2-3.913,2.2-3.913,2.671-5.093l3.291,1.646V71.853a25.584,25.584,0,0,0,2.919.124H293.9a6.259,6.259,0,0,0-.155-1.677h4.783a5.984,5.984,0,0,0-.155,1.677h3.478a25.258,25.258,0,0,0,2.919-.124v3.323a17.066,17.066,0,0,0-2.7-.124h-3.7v.777h3.26c1.087,0,1.708-.031,2.453-.094v2.733a23.806,23.806,0,0,0-2.453-.062h-3.26v.776h4.193a24.5,24.5,0,0,0,2.888-.124v3.386a25.527,25.527,0,0,0-2.888-.124H290.053c-1.3,0-2.423.031-2.826.062a29.471,29.471,0,0,1,1.273,4.471l-2.577.87c-.093-.559-.093-.684-.155-1.087-.808.093-.808.093-1.46.155v8.788a24.647,24.647,0,0,0,.187,3.913h-4.286a25.139,25.139,0,0,0,.186-3.913V87.07a31.767,31.767,0,0,0-3.975.31Zm3.758,5.465a49.055,49.055,0,0,1-.9,9.72l-2.981-1.708a38.93,38.93,0,0,0,.963-8.477Zm3.012-5.465c.59,0,1.273-.062,2.081-.124-.217-.683-.279-.808-.684-1.833-.807,1.18-.962,1.367-1.4,1.957m7.609-7.919a20.038,20.038,0,0,0-2.423.094,18.734,18.734,0,0,0-1.429,2.3,37.714,37.714,0,0,1-2.235,3.385l2.018-.621a12.434,12.434,0,0,1,.683,1.645V79.057a20.976,20.976,0,0,0,2.951.124H293.9v-.776h-3.074c-1.3,0-1.833.031-2.485.062V75.734c.745.062,1.429.094,2.485.094H293.9v-.777Zm-3.137,13.1c.279,1.863.559,4.907.652,6.894l-2.639.559a53.447,53.447,0,0,0-.5-7.018Zm3.758,6.645c-.9,0-.9,0-2.485.063.032-.652.062-1.926.062-2.92V85.486a23.094,23.094,0,0,0-.062-2.391c.776.031.9.031,2.454.031h10.4A25.635,25.635,0,0,0,304,83.064a27.559,27.559,0,0,0-.124,2.888v5.838c0,1.119.031,2.112.124,3.075-1.584-.063-1.584-.063-2.515-.063h-1.117a14.543,14.543,0,0,0,5.652,1.4,16.239,16.239,0,0,0-2.143,3.633,16.269,16.269,0,0,1-7.36-3.291l2.112-1.74H293l2.516,1.74c-2.577,1.987-4.223,2.64-7.919,3.2a14.178,14.178,0,0,0-2.081-3.323c3.074-.217,4.658-.652,6.3-1.615ZM293,86.479h6.49V85.7H293Zm0,2.826h6.49v-.776H293Zm0,2.826h6.49v-.808H293Z" transform="translate(-69.016 -17.475)" fill="#beb143"/>
          <path id="パス_129432" data-name="パス 129432" d="M467.49,142.254H438.9L421.243,107.92h-.98v34.334H393.636V55.226H423.2l16.537,35.456h.841V55.226H467.49Z" transform="translate(-98.46 -13.814)" fill="#beb143"/>
          <path id="パス_129433" data-name="パス 129433" d="M502.4,114.486q0-18.425,8.2-26.7t25.646-8.269q17.447,0,25.436,8.129t7.988,26.7q0,18.572-7.778,26.977t-25.506,8.408q-17.73,0-25.855-8.408T502.4,114.486m37.488-11.912q-.773-2.449-3.714-2.453t-3.713,2.453q-.773,2.453-.772,10.441v3.363q0,8.969.772,11.562a3.956,3.956,0,0,0,7.427,0q.768-2.593.77-10.861v-3.924q0-8.126-.77-10.581" transform="translate(-125.665 -19.89)" fill="#beb143"/>
          <path id="パス_129434" data-name="パス 129434" d="M610.14,165.673q-7.568,0-10.65-2.733t-3.083-8.479q0-5.744,3.012-8.478t10.721-2.733q7.706,0,10.651,2.733t2.943,8.478q0,5.749-3.013,8.479t-10.581,2.733" transform="translate(-149.178 -35.831)" fill="#beb143"/>
          <path id="パス_129435" data-name="パス 129435" d="M700.211,128.44H657.4V34.955H642.92V11.583L665.878,0h34.334Z" transform="translate(-160.813 0)" fill="#beb143"/>
          <rect id="長方形_11603" data-name="長方形 11603" width="1.5" height="45.78" transform="matrix(0.707, -0.707, 0.707, 0.707, 36.352, 153.655)"/>
          <rect id="長方形_11604" data-name="長方形 11604" width="45.78" height="1.5" transform="translate(462.684 184.967) rotate(-45)"/>
        </g>
      </g>
    </g>
  </g>
</svg>
