<?xml version="1.0" encoding="UTF-8"?><svg id="_イヤー_2" xmlns="http://www.w3.org/2000/svg" width="444.64" height="96.61" viewBox="0 0 444.64 96.61"><defs><style>.cls-1{fill:#fff;}</style></defs><g id="_字"><g><path class="cls-1" d="M90.62,66.87c-1.47-2.25-3.66-4.27-6.59-6.08-2.93-1.81-6.23-3.26-9.89-4.36-3.66-1.1-7.49-1.92-11.47-2.45-11.84-1.46-22.88-4.66-33.13-9.59-.88-.39-1.82-1.22-2.81-2.49-1-1.27-1.49-2.49-1.49-3.66,0-4.3,.86-8.61,2.59-12.93,1.73-4.32,3.94-7.7,6.64-10.14,4.34-4.05,12.14-7.59,23.42-10.62C69.15,1.51,81.85,0,95.98,0c8.44,0,14.96,.54,19.56,1.61,4.6,1.07,6.9,2.74,6.9,4.98,0,3.66-.6,6.49-1.8,8.5-1.2,2-2.49,3.33-3.87,3.99-1.38,.66-3.79,1.55-7.25,2.67-3.69,1.07-6.9,2.2-9.62,3.37-2.72,1.17-5.05,2.3-6.99,3.37-1.93,1.07-3.14,1.61-3.6,1.61-.59,0-.88-.19-.88-.59,0-.83,1.04-2.09,3.12-3.77,2.08-1.68,4.64-3.16,7.69-4.43,3.22-1.42,4.83-2.32,4.83-2.71,0-.63-1.79-.95-5.36-.95-10.84,0-20.86,.81-30.06,2.42-9.2,1.61-16.45,3.74-21.75,6.37-5.3,2.64-7.95,5.32-7.95,8.06,0,1.71,1.1,2.92,3.3,3.63,2.2,.71,7.04,1.89,14.55,3.55,7.5,1.66,14.21,3.56,20.13,5.71,8.5,3.03,14.79,6.18,18.9,9.45,4.1,3.27,6.15,6.93,6.15,10.99,0,2.78-.81,5.58-2.42,8.39-1.61,2.81-3.97,5.38-7.08,7.73-3.11,2.34-6.68,4.27-10.72,5.79-3.46,1.22-7.81,2.37-13.05,3.44-5.24,1.07-10.93,1.92-17.05,2.53-6.12,.61-11.97,.92-17.53,.92-10.25,0-18.5-.81-24.74-2.42-6.24-1.61-9.36-4.05-9.36-7.32,0-1.46,1.05-3.75,3.16-6.85,2.11-3.1,4.6-5.19,7.47-6.26,2.52-.83,4.95-1.31,7.29-1.43,2.34-.12,3.52,.11,3.52,.7,0,.15-.09,.29-.26,.44s-.38,.27-.62,.37c-.23,.1-.47,.2-.7,.29-1.17,.39-2.12,.7-2.86,.92-.73,.22-1.32,.44-1.76,.66-.44,.22-.66,.53-.66,.92,0,1.03,6.06,1.54,18.19,1.54,10.55,0,19.19-.32,25.93-.95,6.74-.63,12.68-1.78,17.84-3.44,5.16-1.66,9.84-3.95,14.06-6.88Z"/><path class="cls-1" d="M129.99,67.6v1.83c0,2.88,.85,5.13,2.55,6.74,1.7,1.61,3.92,2.42,6.68,2.42s5.84-.56,8.92-1.68c3.08-1.12,6.14-2.61,9.18-4.47,3.05-1.86,6.77-4.35,11.16-7.47v4.47c-6.62,6.64-12.83,11.73-18.63,15.27-5.8,3.54-11.69,5.31-17.67,5.31-5.22,0-9.35-1.68-12.39-5.05-3.05-3.37-4.57-7.98-4.57-13.84,0-5.13,1.44-9.78,4.31-13.95,2.87-4.17,7.56-8.58,14.06-13.22,4.45-3.17,8.88-5.57,13.27-7.18,4.39-1.61,8.32-2.42,11.78-2.42,2.75,0,4.94,.53,6.55,1.57,1.61,1.05,2.42,2.63,2.42,4.72,0,3.08-1.38,6.14-4.13,9.19-2.75,3.05-6.96,6.08-12.61,9.08-5.66,3-12.61,5.9-20.87,8.68Zm.88-4.76c5.27-1.71,9.78-3.83,13.54-6.37,3.75-2.54,6.52-4.97,8.31-7.29,1.79-2.32,2.68-4.02,2.68-5.09s-.62-1.68-1.85-1.68c-1.05,0-2.77,.56-5.14,1.68-2.37,1.12-4.78,2.59-7.21,4.39-2.43,1.81-4.61,3.93-6.55,6.37-1.93,2.44-3.19,5.1-3.78,7.98Z"/><path class="cls-1" d="M168.13,67.02v-1.76c15.12-13.28,25.52-22.58,31.2-27.91,1.29-6.01,4.39-9.01,9.32-9.01,1.23,0,2.55,.29,3.96,.88l.53,1.39c-.23,.59-.35,1.42-.35,2.49,0,.93,.42,2.65,1.27,5.16,.85,2.52,1.51,4.63,1.98,6.34,.47,1.71,.7,3.64,.7,5.79,0,3.22-.88,6.31-2.64,9.27-1.76,2.95-4.31,5.79-7.65,8.5-3.34,2.71-7.65,5.48-12.92,8.31,2.11,.29,3.78,.44,5.01,.44,2.4,0,5-.5,7.78-1.5,2.78-1,5.62-2.34,8.53-4.03,2.9-1.68,6.28-3.87,10.15-6.56v4.91c-7.5,6.1-14.21,10.73-20.13,13.88-5.92,3.15-11.02,4.72-15.29,4.72-5.51,0-10.61-1.95-15.29-5.86-2.75-2.34-4.47-4.59-5.14-6.74-.67-2.15-1.01-5.05-1.01-8.72Zm32.78-11.21l-1.58-10.69c-3.63,3.42-11.4,9.99-23.29,19.7,3.52,.64,5.92,1.49,7.21,2.56,1.29,1.07,3.11,3.15,5.45,6.23,3.98-1.37,7.04-3.23,9.18-5.6,2.14-2.37,3.21-5.6,3.21-9.7,0-.49-.01-.93-.04-1.32-.03-.39-.07-.78-.13-1.17Z"/><path class="cls-1" d="M224.3,67.02v-1.76c15.12-13.28,25.52-22.58,31.2-27.91,1.29-6.01,4.39-9.01,9.32-9.01,1.23,0,2.55,.29,3.96,.88l.53,1.39c-.23,.59-.35,1.42-.35,2.49,0,.93,.42,2.65,1.27,5.16,.85,2.52,1.51,4.63,1.98,6.34,.47,1.71,.7,3.64,.7,5.79,0,3.22-.88,6.31-2.64,9.27-1.76,2.95-4.31,5.79-7.65,8.5-3.34,2.71-7.65,5.48-12.92,8.31,2.11,.29,3.78,.44,5.01,.44,2.4,0,5-.5,7.78-1.5,2.78-1,5.63-2.34,8.53-4.03,2.9-1.68,6.28-3.87,10.15-6.56v4.91c-7.5,6.1-14.21,10.73-20.13,13.88-5.92,3.15-11.02,4.72-15.29,4.72-5.51,0-10.61-1.95-15.29-5.86-2.76-2.34-4.47-4.59-5.14-6.74-.67-2.15-1.01-5.05-1.01-8.72Zm32.78-11.21l-1.58-10.69c-3.63,3.42-11.4,9.99-23.29,19.7,3.52,.64,5.92,1.49,7.21,2.56,1.29,1.07,3.11,3.15,5.45,6.23,3.98-1.37,7.04-3.23,9.18-5.6,2.14-2.37,3.21-5.6,3.21-9.7,0-.49-.01-.93-.04-1.32-.03-.39-.07-.78-.13-1.17Z"/><path class="cls-1" d="M322.82,64.97v5.35c-5.68,6.1-10.99,10.71-15.91,13.81-4.92,3.1-9.11,4.65-12.57,4.65-4.8,0-8.38-2.1-10.72-6.3-2.34-4.2-3.52-8.79-3.52-13.77,0-1.9,.23-3.72,.7-5.46,.47-1.73,1.02-3.16,1.67-4.28,.64-1.12,1.85-2.88,3.6-5.27,8.32-10.79,15.94-16.19,22.85-16.19,3.57,0,5.36,1.15,5.36,3.44,0,1.56-1.16,4-3.47,7.32-2.32,3.32-4.38,5.69-6.2,7.1-5.1,4.1-8.42,6.96-9.98,8.57-1.55,1.61-2.33,3.44-2.33,5.49,0,1.76,.79,3.22,2.37,4.39s3.63,1.76,6.15,1.76c2.75,0,5.79-.84,9.1-2.53,3.31-1.68,7.6-4.38,12.88-8.09Zm-5.98-32.74c-1.46,0-2.86-.46-4.17-1.39-1.32-.93-1.98-2.1-1.98-3.52,0-2.15,1.23-4.54,3.69-7.18,2.46-2.64,5.01-3.96,7.65-3.96,1.76,0,3.22,.45,4.39,1.35,1.17,.9,1.76,2.21,1.76,3.92,0,2.1-1.2,4.42-3.6,6.96-2.4,2.54-4.98,3.81-7.73,3.81Z"/><path class="cls-1" d="M378.55,64.82v4.91c-3.87,2.93-6.97,4.88-9.32,5.86-2.34,.98-5.71,1.37-10.11,1.17-7.62,7.52-14.33,11.28-20.13,11.28-3.28,0-6.27-.9-8.96-2.71-2.7-1.81-4.85-4.27-6.46-7.4-1.61-3.12-2.42-6.62-2.42-10.47,0-3.12,1.24-6.59,3.74-10.4,2.49-3.81,5.71-7.36,9.67-10.66s8.19-5.96,12.7-7.98c4.51-2.03,8.7-3.04,12.57-3.04,2.75,0,4.92,.35,6.5,1.06,1.58,.71,2.37,1.7,2.37,2.97,0,.98-.67,2.1-2.02,3.37,2.23,.39,3.75,1.04,4.57,1.94,.82,.9,1.23,2.55,1.23,4.94s-.66,5.3-1.98,8.86c-1.32,3.56-3.12,6.91-5.41,10.03l1.58,1.32h1.32c1,0,1.98-.21,2.94-.62,.97-.41,1.83-.85,2.59-1.32,.76-.46,2.43-1.5,5.01-3.11Zm-18.11-19.26c-4.86,2.44-9.02,4.65-12.48,6.63-3.46,1.98-6.39,3.98-8.79,6.01-2.4,2.03-4.01,4.06-4.83,6.12-1.46,5.47-2.2,8.42-2.2,8.86,0,3.22,2.69,4.83,8.09,4.83,2.52,0,6.74-1.81,12.66-5.42-1-2.29-1.49-4.49-1.49-6.59,0-3.08,.76-6.21,2.29-9.41,1.52-3.2,3.78-6.87,6.77-11.02Z"/><path class="cls-1" d="M437.61,51.71c-10.31,9.57-15.47,16.24-15.47,20,0,2.1,1.02,3.15,3.08,3.15,1.7,0,3.91-.74,6.64-2.23,2.72-1.49,6.99-4.14,12.79-7.95v5.05c-8.32,6.84-14.71,11.77-19.16,14.79-4.45,3.03-8.09,4.54-10.9,4.54-4.8,0-7.21-2.64-7.21-7.91,0-1.56,.29-3.1,.88-4.61,.58-1.51,1.39-3.09,2.42-4.72,1.02-1.64,2.59-3.98,4.7-7.03,2.11-3.05,4.54-6.51,7.29-10.36-3.34,1.42-7.53,4.22-12.57,8.42-3.28,2.64-6.06,5.14-8.35,7.51-2.29,2.37-4.73,5.01-7.34,7.91-2.61,2.91-4.51,4.86-5.71,5.86-1.2,1-2.42,1.5-3.65,1.5-1.88,0-3.6-1.64-5.19-4.91-1.58-3.27-2.37-7.08-2.37-11.43,0-2.68,.37-4.78,1.1-6.3,.73-1.51,2.18-3.66,4.35-6.45,4.04-5.18,7.53-8.97,10.46-11.39,2.93-2.42,5.74-3.63,8.44-3.63,1.88,0,3.38,.27,4.53,.81,1.14,.54,1.71,1.37,1.71,2.49,0,.49-.18,1-.53,1.54-.35,.54-.75,1.03-1.19,1.46-.44,.44-1.36,1.29-2.77,2.56-9.26,8.55-13.89,14.09-13.89,16.63,0,1.42,.56,2.12,1.67,2.12,.7,0,2.07-.94,4.09-2.82,2.02-1.88,4.63-4.35,7.82-7.4,3.19-3.05,6.97-6.24,11.34-9.56,4.36-3.32,9.33-6.52,14.9-9.59,3.11-1.81,5.68-2.71,7.73-2.71,.94,0,1.86,1.07,2.77,3.22,.91,2.15,1.36,4.32,1.36,6.52,0,1.07-1.26,2.71-3.78,4.91Z"/></g></g></svg>