<?xml version="1.0" encoding="UTF-8"?><svg id="_イヤー_2" xmlns="http://www.w3.org/2000/svg" width="709.87" height="76.22" xmlns:xlink="http://www.w3.org/1999/xlink" viewBox="0 0 709.87 76.22"><defs><style>.cls-1{fill:url(#_称未設定グラデーション_250);}.cls-2{fill:url(#_称未設定グラデーション_250-10);}.cls-3{fill:url(#_称未設定グラデーション_250-19);}.cls-4{fill:url(#_称未設定グラデーション_250-14);}.cls-5{fill:url(#_称未設定グラデーション_250-18);}.cls-6{fill:url(#_称未設定グラデーション_250-17);}.cls-7{fill:url(#_称未設定グラデーション_250-16);}.cls-8{fill:url(#_称未設定グラデーション_250-15);}.cls-9{fill:url(#_称未設定グラデーション_250-12);}.cls-10{fill:url(#_称未設定グラデーション_250-11);}.cls-11{fill:url(#_称未設定グラデーション_250-13);}.cls-12{fill:url(#_称未設定グラデーション_250-20);}.cls-13{fill:url(#_称未設定グラデーション_250-21);}.cls-14{opacity:.5;}.cls-15{fill:url(#_称未設定グラデーション_250-2);}.cls-16{fill:url(#_称未設定グラデーション_250-8);}.cls-17{fill:url(#_称未設定グラデーション_250-7);}.cls-18{fill:url(#_称未設定グラデーション_250-9);}.cls-19{fill:url(#_称未設定グラデーション_250-4);}.cls-20{fill:url(#_称未設定グラデーション_250-3);}.cls-21{fill:url(#_称未設定グラデーション_250-6);}.cls-22{fill:url(#_称未設定グラデーション_250-5);}</style><linearGradient id="_称未設定グラデーション_250" x1="0" y1="42.18" x2="709.88" y2="42.18" gradientTransform="matrix(1, 0, 0, 1, 0, 0)" gradientUnits="userSpaceOnUse"><stop offset="0" stop-color="blue"/><stop offset=".15" stop-color="#1a2aff"/><stop offset=".46" stop-color="#4b79ff"/><stop offset=".71" stop-color="#6fb3ff"/><stop offset=".9" stop-color="#85d7ff"/><stop offset="1" stop-color="#8ee5ff"/></linearGradient><linearGradient id="_称未設定グラデーション_250-2" x1="0" y1="31.09" x2="709.87" y2="31.09" xlink:href="#_称未設定グラデーション_250"/><linearGradient id="_称未設定グラデーション_250-3" x1="0" y1="42.86" x2="709.87" y2="42.86" xlink:href="#_称未設定グラデーション_250"/><linearGradient id="_称未設定グラデーション_250-4" x1="0" y1="37.17" x2="709.87" y2="37.17" xlink:href="#_称未設定グラデーション_250"/><linearGradient id="_称未設定グラデーション_250-5" x1="0" y1="29.48" x2="709.88" y2="29.48" xlink:href="#_称未設定グラデーション_250"/><linearGradient id="_称未設定グラデーション_250-6" x1="0" y1="42.86" x2="709.88" y2="42.86" xlink:href="#_称未設定グラデーション_250"/><linearGradient id="_称未設定グラデーション_250-7" x1="0" y1="37.04" x2="709.88" y2="37.04" xlink:href="#_称未設定グラデーション_250"/><linearGradient id="_称未設定グラデーション_250-8" x1="0" y1="41.81" x2="709.88" y2="41.81" xlink:href="#_称未設定グラデーション_250"/><linearGradient id="_称未設定グラデーション_250-9" x1="0" y1="40.56" x2="709.88" y2="40.56" xlink:href="#_称未設定グラデーション_250"/><linearGradient id="_称未設定グラデーション_250-10" x1="0" y1="37.17" x2="709.87" y2="37.17" xlink:href="#_称未設定グラデーション_250"/><linearGradient id="_称未設定グラデーション_250-11" x1="0" y1="34.54" x2="709.87" y2="34.54" xlink:href="#_称未設定グラデーション_250"/><linearGradient id="_称未設定グラデーション_250-12" x1="0" y1="37.17" x2="709.88" y2="37.17" xlink:href="#_称未設定グラデーション_250"/><linearGradient id="_称未設定グラデーション_250-13" x1="0" y1="42.86" x2="709.87" y2="42.86" xlink:href="#_称未設定グラデーション_250"/><linearGradient id="_称未設定グラデーション_250-14" x1="0" y1="46.56" x2="709.87" y2="46.56" xlink:href="#_称未設定グラデーション_250"/><linearGradient id="_称未設定グラデーション_250-15" x1="0" y1="13.36" x2="709.88" y2="13.36" xlink:href="#_称未設定グラデーション_250"/><linearGradient id="_称未設定グラデーション_250-16" x1="0" y1="13.36" x2="709.88" y2="13.36" xlink:href="#_称未設定グラデーション_250"/><linearGradient id="_称未設定グラデーション_250-17" x1="0" y1="38.07" x2="709.87" y2="38.07" xlink:href="#_称未設定グラデーション_250"/><linearGradient id="_称未設定グラデーション_250-18" x1="0" y1="38.07" x2="709.87" y2="38.07" xlink:href="#_称未設定グラデーション_250"/><linearGradient id="_称未設定グラデーション_250-19" x1="0" y1="37.34" x2="709.87" y2="37.34" xlink:href="#_称未設定グラデーション_250"/><linearGradient id="_称未設定グラデーション_250-20" x1="0" y1="37.34" x2="709.87" y2="37.34" xlink:href="#_称未設定グラデーション_250"/><linearGradient id="_称未設定グラデーション_250-21" x1="0" y1="31.79" x2="709.87" y2="31.79" xlink:href="#_称未設定グラデーション_250"/></defs><g id="_字"><g class="cls-14"><g><path class="cls-1" d="M62.19,36.67c5.34-4.04,10.53-7.05,15.56-9.01,5.03-1.96,8.91-2.94,11.65-2.94,.74,0,1.42,.26,2.06,.77,.63,.51,1.13,1.11,1.5,1.78,.37,.67,.55,1.17,.55,1.49,0,.53-.25,.92-.74,1.16-.49,.25-1.35,.55-2.58,.9,.25,.47,.56,1.07,.95,1.8,.39,.73,.69,1.33,.9,1.78,.21,.45,.32,.86,.32,1.21,0,.7-.85,2.01-2.56,3.93-1.71,1.92-2.9,3.33-3.59,4.24-.69,.91-1.03,2.02-1.03,3.34,0,2.17,1.19,3.25,3.59,3.25s6.31-1.92,11.55-5.76v2.68c-8.89,8.23-15.26,12.35-19.09,12.35-1.37,0-2.35-.37-2.93-1.12-.58-.75-.87-1.85-.87-3.32,0-2.31,1-5.67,3.01-10.06-5.13,4.75-8.95,8.12-11.44,10.13-2.5,2.01-4.55,3.01-6.17,3.01-.77,0-1.74-.56-2.9-1.67-1.16-1.11-2.19-2.56-3.08-4.33-.9-1.77-1.34-3.61-1.34-5.52,0-1.38,.16-2.53,.47-3.45,.32-.92,.93-1.87,1.85-2.83,.91-.97,2.37-2.24,4.38-3.82Zm25.26-4.83c-9.14,3.49-15.65,6.45-19.54,8.88-3.89,2.43-5.83,4.94-5.83,7.51,0,.94,.19,1.71,.58,2.31,.39,.6,.91,.9,1.58,.9,.39,0,1.07-.2,2.06-.62,3.69-1.82,7.07-4.18,10.12-7.1,3.06-2.91,6.73-6.88,11.02-11.89Z"/><path class="cls-15" d="M139.6,44.53v2.94c-3.94,3.84-7.24,6.75-9.91,8.72-2.67,1.98-4.9,2.97-6.7,2.97s-3.28-.43-4.67-1.27c-1.39-.85-2.64-2.02-3.74-3.52-1.11-1.49-2.42-3.57-3.93-6.24-1.79,1.85-3.41,3.57-4.85,5.16-1.44,1.6-2.44,2.66-3.01,3.19-.56,.53-1.07,.79-1.53,.79-.95,0-1.63-.51-2.06-1.52-.42-1.01-.63-2.48-.63-4.42,0-2.64,.38-5.18,1.13-7.62,.76-2.45,1.85-4.83,3.27-7.14,1.42-2.31,3.25-4.81,5.48-7.49,2.23-2.68,4.74-5.49,7.51-8.42,3.83-4.04,7.14-7.35,9.91-9.91,2.78-2.56,5.19-4.5,7.25-5.8,2.06-1.3,3.77-1.96,5.14-1.96,1.69,0,2.53,.63,2.53,1.89,0,1.08-3.11,4.99-9.33,11.71-6.22,6.72-15.29,15.9-27.21,27.53v3.78c7.98-7.12,14.4-12.41,19.27-15.86,4.87-3.46,8.64-5.19,11.31-5.19,1.09,0,1.93,.53,2.53,1.6,.6,1.07,.9,2.31,.9,3.71,0,2.87-1.48,5.53-4.43,7.98-2.95,2.45-7.49,5.25-13.61,8.42,1.05,1.32,1.99,2.28,2.79,2.88,.81,.6,1.83,.9,3.06,.9,1.09,0,2.27-.31,3.53-.92,1.27-.62,2.56-1.39,3.88-2.33,1.32-.94,3.35-2.46,6.09-4.57Zm-20.83,2.24c1.34-.73,3-1.87,4.98-3.41,1.99-1.54,3.68-3.13,5.09-4.79,1.41-1.65,2.11-3.04,2.11-4.15,0-.47-.25-.7-.74-.7-1.34,0-3.63,1.07-6.88,3.21-3.25,2.14-6.43,4.88-9.52,8.22,1.34,0,2.99,.54,4.96,1.63Z"/><path class="cls-20" d="M147.73,46.12v1.1c0,1.73,.51,3.08,1.53,4.04,1.02,.97,2.35,1.45,4.01,1.45s3.51-.34,5.35-1.01c1.85-.67,3.68-1.57,5.51-2.68,1.83-1.11,4.06-2.61,6.7-4.48v2.68c-3.97,3.98-7.7,7.04-11.18,9.16-3.48,2.12-7.01,3.19-10.6,3.19-3.13,0-5.61-1.01-7.44-3.03-1.83-2.02-2.74-4.79-2.74-8.31,0-3.08,.86-5.87,2.58-8.37,1.72-2.5,4.54-5.15,8.44-7.93,2.67-1.9,5.33-3.34,7.96-4.31s4.99-1.45,7.07-1.45c1.65,0,2.96,.32,3.93,.94,.97,.63,1.45,1.58,1.45,2.83,0,1.85-.83,3.68-2.48,5.52-1.65,1.83-4.18,3.65-7.57,5.45-3.39,1.8-7.57,3.54-12.52,5.21Zm.53-2.86c3.16-1.03,5.87-2.3,8.12-3.82,2.25-1.52,3.91-2.98,4.98-4.37,1.07-1.39,1.61-2.41,1.61-3.05s-.37-1.01-1.11-1.01c-.63,0-1.66,.34-3.08,1.01-1.42,.67-2.87,1.55-4.32,2.64-1.46,1.08-2.77,2.36-3.93,3.82-1.16,1.47-1.92,3.06-2.27,4.79Z"/><path class="cls-19" d="M219.66,21.73h2.27c1.86-2.78,3.55-4.75,5.06-5.91,1.51-1.16,3.23-1.74,5.17-1.74s2.9,.37,2.9,1.1c0,.35-.76,1.3-2.27,2.86-1.51,1.55-2.66,2.86-3.43,3.91,1.19,.12,2.26,.22,3.19,.31,.93,.09,1.66,.16,2.19,.22-2,3.11-4.52,6.28-7.54,9.54-.98-.06-1.81-.11-2.48-.15-.67-.04-1.34-.09-2.03-.13-.69-.04-1.52-.09-2.5-.15-1.9,2.55-3.49,4.83-4.77,6.83-1.28,2.01-2.27,3.85-2.95,5.52-.69,1.67-1.03,3.25-1.03,4.75,0,2.02,.97,3.03,2.9,3.03,1.34,0,3.08-.59,5.25-1.78,2.16-1.19,5.05-3.01,8.67-5.47v2.94c-9.49,8.58-16.51,12.88-21.04,12.88-1.58,0-2.86-.51-3.82-1.54-.97-1.03-1.45-2.34-1.45-3.96,0-1.08,.27-2.37,.82-3.87,.54-1.49,1.52-3.75,2.93-6.77-.49,.35-.96,.7-1.4,1.03-.44,.34-.84,.64-1.21,.92-.37,.28-.76,.57-1.19,.88-.42,.31-.84,.62-1.27,.94v-3.03c3.69-2.58,8.16-7.1,13.39-13.58-.53-.03-1.02-.05-1.48-.07-.46-.01-1-.02-1.63-.02-2.07,0-3.62,.12-4.64,.35-.42,.09-.82,.18-1.19,.29-.37,.1-.62,.15-.76,.15s-.21-.09-.21-.26c0-.97,.72-2.42,2.16-4.35,1.16-1.64,2.26-2.86,3.3-3.65,1.04-.79,2.3-1.33,3.8-1.6,1.49-.28,3.59-.42,6.3-.42Z"/><path class="cls-22" d="M267.59,44.53v2.77c-3.06,2.61-5.7,4.74-7.94,6.39-2.23,1.66-4.18,2.91-5.85,3.76-1.67,.85-3.08,1.27-4.25,1.27-2.74,0-4.11-1.35-4.11-4.04,0-2.17,.85-4.68,2.56-7.54,1.71-2.86,4.16-6.22,7.36-10.09-1.58,.73-3.08,1.58-4.48,2.53-1.41,.95-2.66,1.95-3.74,2.99-1.09,1.04-2,1.93-2.74,2.66-2.29,2.14-4.48,4.33-6.59,6.57s-3.53,3.7-4.27,4.37c-.74,.67-1.44,1.01-2.11,1.01-2.74,0-4.11-2.81-4.11-8.44,0-1.85,.33-3.88,1-6.11,.67-2.23,2.46-5.17,5.38-8.83,6.15-7.68,11.42-13.95,15.79-18.83,4.38-4.88,8.01-8.57,10.89-11.07,2.88-2.5,4.82-3.73,5.8-3.67,1.23,.09,2.22,.29,2.98,.62,.76,.32,1.13,.69,1.13,1.1,0,.73-.61,1.94-1.82,3.63-1.21,1.69-3.3,4.31-6.25,7.89-3.2,3.78-5.47,6.44-6.8,7.98-1.34,1.54-3.33,3.72-5.99,6.55-2.66,2.83-5.08,5.35-7.28,7.56-2.2,2.21-4.7,4.61-7.51,7.19v5.27c4.71-4.36,8.79-7.94,12.23-10.72,3.45-2.78,6.36-4.88,8.75-6.31,2.39-1.42,4.15-2.13,5.27-2.13,1.05,0,2.04,.52,2.95,1.56,.91,1.04,1.37,1.9,1.37,2.57,0,.29-.18,.66-.53,1.1-2.53,2.52-4.54,4.61-6.04,6.26-1.5,1.66-2.65,3.14-3.45,4.44-.81,1.3-1.21,2.42-1.21,3.36,0,1.38,.79,2.07,2.37,2.07,1.69,0,5.43-1.89,11.23-5.67Z"/><path class="cls-21" d="M276.03,46.12v1.1c0,1.73,.51,3.08,1.53,4.04,1.02,.97,2.35,1.45,4.01,1.45s3.51-.34,5.35-1.01c1.85-.67,3.68-1.57,5.51-2.68,1.83-1.11,4.06-2.61,6.7-4.48v2.68c-3.97,3.98-7.7,7.04-11.18,9.16-3.48,2.12-7.01,3.19-10.6,3.19-3.13,0-5.61-1.01-7.44-3.03-1.83-2.02-2.74-4.79-2.74-8.31,0-3.08,.86-5.87,2.58-8.37,1.72-2.5,4.54-5.15,8.44-7.93,2.67-1.9,5.33-3.34,7.96-4.31,2.64-.97,4.99-1.45,7.07-1.45,1.65,0,2.96,.32,3.93,.94,.97,.63,1.45,1.58,1.45,2.83,0,1.85-.83,3.68-2.48,5.52-1.65,1.83-4.17,3.65-7.57,5.45-3.39,1.8-7.57,3.54-12.52,5.21Zm.53-2.86c3.16-1.03,5.87-2.3,8.12-3.82,2.25-1.52,3.91-2.98,4.98-4.37,1.07-1.39,1.61-2.41,1.61-3.05s-.37-1.01-1.11-1.01c-.63,0-1.66,.34-3.08,1.01-1.42,.67-2.87,1.55-4.32,2.64-1.46,1.08-2.77,2.36-3.93,3.82-1.16,1.47-1.92,3.06-2.27,4.79Z"/><path class="cls-17" d="M415.3,44.53v3.21c-3.41,3.66-6.59,6.42-9.54,8.28-2.95,1.86-5.47,2.79-7.54,2.79-2.88,0-5.03-1.26-6.43-3.78-1.41-2.52-2.11-5.27-2.11-8.26,0-1.14,.14-2.23,.42-3.27,.28-1.04,.61-1.9,1-2.57,.39-.67,1.11-1.73,2.16-3.16,4.99-6.47,9.56-9.71,13.71-9.71,2.14,0,3.22,.69,3.22,2.07,0,.94-.69,2.4-2.08,4.39-1.39,1.99-2.63,3.41-3.72,4.26-3.06,2.46-5.05,4.17-5.99,5.14-.93,.97-1.4,2.07-1.4,3.3,0,1.05,.47,1.93,1.42,2.64,.95,.7,2.18,1.05,3.69,1.05,1.65,0,3.47-.51,5.46-1.52,1.99-1.01,4.56-2.63,7.73-4.86Zm-3.59-19.64c-.88,0-1.71-.28-2.5-.83-.79-.56-1.19-1.26-1.19-2.11,0-1.29,.74-2.72,2.21-4.31,1.48-1.58,3.01-2.37,4.59-2.37,1.05,0,1.93,.27,2.64,.81,.7,.54,1.05,1.33,1.05,2.35,0,1.26-.72,2.65-2.16,4.17-1.44,1.52-2.99,2.29-4.64,2.29Z"/><path class="cls-16" d="M414.3,47.92v-2.86c1.9-1.87,3.34-3.47,4.32-4.79-1.13-.32-1.94-.72-2.45-1.19-.51-.47-.76-1.17-.76-2.11,0-1.05,.53-2.39,1.58-4,1.05-1.61,2.35-3.12,3.9-4.53,1.55-1.41,2.95-2.31,4.22-2.72,.49-.2,.97-.31,1.42-.31,.7,0,1.05,.28,1.05,.83,0,.5-.55,1.51-1.63,3.03,7.24-.94,11.81-1.41,13.71-1.41,.74,0,1.25,.06,1.53,.18,.6,.26,1.09,.88,1.48,1.85,.39,.97,.58,1.93,.58,2.9,0,.62-.33,1.28-.98,2-.65,.72-1.77,1.77-3.35,3.14-1.86,1.67-3.43,3.49-4.69,5.45-1.27,1.96-1.9,3.44-1.9,4.44,0,1.38,1.02,2.07,3.06,2.07,2.14,0,5.87-1.82,11.18-5.45v2.94c-2.92,2.55-5.33,4.56-7.22,6.02-1.9,1.47-3.66,2.63-5.27,3.49-1.62,.86-3.06,1.3-4.32,1.3-1.48,0-2.71-.56-3.69-1.69-.98-1.13-1.48-2.76-1.48-4.9,0-1.26,.39-2.7,1.16-4.31,.77-1.61,1.91-3.36,3.4-5.25,1.49-1.89,3.17-3.77,5.04-5.65-.98,.18-2.09,.36-3.32,.55-1.23,.19-2.53,.39-3.9,.59-1.37,.21-2.43,.37-3.16,.48-2.18,3.63-5.34,6.93-9.49,9.89Z"/><path class="cls-18" d="M446.15,45.76v-1.05c9.07-7.97,15.31-13.55,18.72-16.74,.77-3.6,2.64-5.41,5.59-5.41,.74,0,1.53,.18,2.37,.53l.32,.83c-.14,.35-.21,.85-.21,1.49,0,.56,.25,1.59,.76,3.1,.51,1.51,.9,2.78,1.19,3.8,.28,1.03,.42,2.18,.42,3.47,0,1.93-.53,3.79-1.58,5.56-1.05,1.77-2.58,3.47-4.59,5.1s-4.59,3.29-7.75,4.99c1.27,.18,2.27,.26,3.01,.26,1.44,0,3-.3,4.67-.9,1.67-.6,3.38-1.41,5.12-2.42,1.74-1.01,3.77-2.32,6.09-3.93v2.94c-4.5,3.66-8.53,6.44-12.08,8.33-3.55,1.89-6.61,2.83-9.18,2.83-3.3,0-6.36-1.17-9.18-3.52-1.65-1.41-2.68-2.75-3.09-4.04-.4-1.29-.61-3.03-.61-5.23Zm19.67-6.72l-.95-6.42c-2.18,2.05-6.84,5.99-13.97,11.82,2.11,.38,3.55,.89,4.32,1.54,.77,.64,1.86,1.89,3.27,3.74,2.39-.82,4.23-1.94,5.51-3.36,1.28-1.42,1.92-3.36,1.92-5.82,0-.29,0-.56-.03-.79-.02-.23-.04-.47-.08-.7Z"/><path class="cls-2" d="M498.57,21.73h2.27c1.86-2.78,3.55-4.75,5.06-5.91,1.51-1.16,3.23-1.74,5.17-1.74s2.9,.37,2.9,1.1c0,.35-.76,1.3-2.27,2.86-1.51,1.55-2.66,2.86-3.43,3.91,1.19,.12,2.26,.22,3.19,.31,.93,.09,1.66,.16,2.19,.22-2,3.11-4.52,6.28-7.54,9.54-.98-.06-1.81-.11-2.48-.15-.67-.04-1.34-.09-2.03-.13-.69-.04-1.52-.09-2.5-.15-1.9,2.55-3.49,4.83-4.77,6.83-1.28,2.01-2.27,3.85-2.95,5.52-.69,1.67-1.03,3.25-1.03,4.75,0,2.02,.97,3.03,2.9,3.03,1.34,0,3.08-.59,5.25-1.78,2.16-1.19,5.05-3.01,8.67-5.47v2.94c-9.49,8.58-16.51,12.88-21.04,12.88-1.58,0-2.86-.51-3.82-1.54-.97-1.03-1.45-2.34-1.45-3.96,0-1.08,.27-2.37,.82-3.87,.54-1.49,1.52-3.75,2.93-6.77-.49,.35-.96,.7-1.4,1.03-.44,.34-.84,.64-1.21,.92-.37,.28-.76,.57-1.19,.88-.42,.31-.84,.62-1.27,.94v-3.03c3.69-2.58,8.16-7.1,13.39-13.58-.53-.03-1.02-.05-1.48-.07-.46-.01-1-.02-1.63-.02-2.08,0-3.62,.12-4.64,.35-.42,.09-.82,.18-1.19,.29-.37,.1-.62,.15-.76,.15s-.21-.09-.21-.26c0-.97,.72-2.42,2.16-4.35,1.16-1.64,2.26-2.86,3.3-3.65,1.04-.79,2.3-1.33,3.8-1.6,1.49-.28,3.59-.42,6.3-.42Z"/><path class="cls-10" d="M591.96,45.68c-.88-1.35-2.2-2.56-3.95-3.65-1.76-1.08-3.74-1.96-5.93-2.61-2.2-.66-4.49-1.15-6.88-1.47-7.1-.88-13.73-2.8-19.88-5.76-.53-.23-1.09-.73-1.69-1.49-.6-.76-.9-1.49-.9-2.2,0-2.58,.52-5.16,1.56-7.76,1.04-2.59,2.36-4.62,3.98-6.09,2.6-2.43,7.29-4.56,14.05-6.37,6.77-1.82,14.39-2.72,22.86-2.72,5.06,0,8.97,.32,11.73,.97,2.76,.64,4.14,1.64,4.14,2.99,0,2.2-.36,3.9-1.08,5.1-.72,1.2-1.5,2-2.32,2.39-.83,.4-2.28,.93-4.35,1.6-2.21,.64-4.14,1.32-5.77,2.02s-3.03,1.38-4.19,2.02c-1.16,.64-1.88,.97-2.16,.97-.35,0-.53-.12-.53-.35,0-.5,.62-1.25,1.87-2.26,1.25-1.01,2.79-1.9,4.61-2.66,1.93-.85,2.9-1.39,2.9-1.63,0-.38-1.07-.57-3.22-.57-6.5,0-12.52,.48-18.04,1.45-5.52,.97-9.87,2.24-13.05,3.82-3.18,1.58-4.77,3.19-4.77,4.83,0,1.03,.66,1.75,1.98,2.18,1.32,.43,4.23,1.14,8.73,2.13,4.5,1,8.52,2.14,12.08,3.43,5.1,1.82,8.88,3.71,11.34,5.67,2.46,1.96,3.69,4.16,3.69,6.59,0,1.67-.48,3.35-1.45,5.03-.97,1.69-2.38,3.23-4.25,4.64-1.86,1.41-4.01,2.56-6.43,3.47-2.08,.73-4.69,1.42-7.83,2.07-3.15,.64-6.56,1.15-10.23,1.52-3.67,.37-7.18,.55-10.52,.55-6.15,0-11.1-.48-14.84-1.45-3.74-.97-5.62-2.43-5.62-4.39,0-.88,.63-2.25,1.9-4.11,1.27-1.86,2.76-3.11,4.48-3.76,1.51-.5,2.97-.78,4.38-.86,1.41-.07,2.11,.07,2.11,.42,0,.09-.05,.18-.16,.26s-.23,.16-.37,.22c-.14,.06-.28,.12-.42,.18-.7,.23-1.27,.42-1.71,.55-.44,.13-.79,.26-1.05,.4-.26,.13-.4,.32-.4,.55,0,.62,3.64,.92,10.92,.92,6.33,0,11.51-.19,15.56-.57,4.04-.38,7.61-1.07,10.7-2.07,3.09-1,5.91-2.37,8.44-4.13Z"/><path class="cls-9" d="M625.66,21.73h2.27c1.86-2.78,3.55-4.75,5.06-5.91,1.51-1.16,3.23-1.74,5.17-1.74s2.9,.37,2.9,1.1c0,.35-.76,1.3-2.27,2.86-1.51,1.55-2.66,2.86-3.43,3.91,1.19,.12,2.26,.22,3.19,.31,.93,.09,1.66,.16,2.19,.22-2,3.11-4.52,6.28-7.54,9.54-.98-.06-1.81-.11-2.48-.15-.67-.04-1.34-.09-2.03-.13-.69-.04-1.52-.09-2.5-.15-1.9,2.55-3.49,4.83-4.77,6.83-1.28,2.01-2.27,3.85-2.95,5.52-.69,1.67-1.03,3.25-1.03,4.75,0,2.02,.97,3.03,2.9,3.03,1.34,0,3.08-.59,5.25-1.78,2.16-1.19,5.05-3.01,8.67-5.47v2.94c-9.49,8.58-16.51,12.88-21.04,12.88-1.58,0-2.86-.51-3.82-1.54-.97-1.03-1.45-2.34-1.45-3.96,0-1.08,.27-2.37,.82-3.87,.55-1.49,1.52-3.75,2.93-6.77-.49,.35-.96,.7-1.4,1.03-.44,.34-.84,.64-1.21,.92-.37,.28-.76,.57-1.19,.88-.42,.31-.84,.62-1.27,.94v-3.03c3.69-2.58,8.16-7.1,13.39-13.58-.53-.03-1.02-.05-1.48-.07-.46-.01-1-.02-1.63-.02-2.08,0-3.62,.12-4.64,.35-.42,.09-.82,.18-1.19,.29-.37,.1-.62,.15-.76,.15s-.21-.09-.21-.26c0-.97,.72-2.42,2.16-4.35,1.16-1.64,2.26-2.86,3.3-3.65,1.04-.79,2.3-1.33,3.8-1.6,1.49-.28,3.59-.42,6.3-.42Z"/><path class="cls-11" d="M642.59,46.12v1.1c0,1.73,.51,3.08,1.53,4.04,1.02,.97,2.35,1.45,4.01,1.45s3.51-.34,5.35-1.01c1.85-.67,3.68-1.57,5.51-2.68,1.83-1.11,4.06-2.61,6.7-4.48v2.68c-3.97,3.98-7.7,7.04-11.18,9.16-3.48,2.12-7.01,3.19-10.6,3.19-3.13,0-5.61-1.01-7.44-3.03-1.83-2.02-2.74-4.79-2.74-8.31,0-3.08,.86-5.87,2.58-8.37,1.72-2.5,4.54-5.15,8.44-7.93,2.67-1.9,5.33-3.34,7.96-4.31,2.64-.97,4.99-1.45,7.07-1.45,1.65,0,2.96,.32,3.93,.94,.97,.63,1.45,1.58,1.45,2.83,0,1.85-.83,3.68-2.48,5.52-1.65,1.83-4.17,3.65-7.57,5.45-3.39,1.8-7.57,3.54-12.52,5.21Zm.53-2.86c3.16-1.03,5.87-2.3,8.12-3.82,2.25-1.52,3.91-2.98,4.98-4.37,1.07-1.39,1.61-2.41,1.61-3.05s-.37-1.01-1.11-1.01c-.63,0-1.66,.34-3.09,1.01-1.42,.67-2.87,1.55-4.32,2.64-1.46,1.08-2.77,2.36-3.93,3.82-1.16,1.47-1.92,3.06-2.27,4.79Z"/><path class="cls-4" d="M665.05,48.23v-3.08c4.92-4.45,9.17-8.64,12.74-12.57,3.57-3.93,6.39-7.05,8.46-9.36,2.07-2.31,3.9-3.95,5.48-4.9,1.58-.95,3.57-1.43,5.96-1.43,1.19,0,1.79,.38,1.79,1.14,0,.62-.48,1.52-1.45,2.72-.97,1.2-2.21,2.43-3.72,3.69-2,1.64-3.96,3.7-5.88,6.17-1.92,2.48-4.09,5.63-6.51,9.47,1.9-1.23,4.09-2.69,6.57-4.37,2.48-1.68,4.5-3,6.06-3.95,1.56-.95,3.11-1.71,4.64-2.26,1.53-.56,3.07-.84,4.61-.84,.98,0,1.63,.15,1.92,.44,.3,.29,.45,.86,.45,1.71,0,2.23-.65,4.4-1.95,6.53-1.3,2.12-3.16,4.33-5.59,6.61-2.43,2.29-5.41,4.78-8.96,7.47,1.23,.38,2.5,.57,3.8,.57,4.08,0,9.54-2.59,16.4-7.78v3.16c-2.67,1.99-5.28,3.87-7.83,5.62-2.55,1.76-4.95,3.16-7.2,4.22-2.25,1.05-4.32,1.58-6.22,1.58-.7,0-1.45-.07-2.24-.2-.79-.13-1.52-.29-2.19-.48-.67-.19-1.53-.46-2.58-.81-1.05-.35-1.86-.6-2.43-.75-1.13,.23-1.76,.35-1.9,.35-1.23,0-2.67-.41-4.32-1.23-1.16,1.88-2.43,4.3-3.82,7.27-1.39,2.97-2.56,5.34-3.51,7.1-.95,1.76-2.21,3.44-3.8,5.05-.88,.73-1.49,1.1-1.85,1.1-1.51,0-2.27-1.11-2.27-3.34,0-1.93,.47-3.95,1.4-6.04,.93-2.09,2.08-4.08,3.43-5.95,1.35-1.88,2.84-3.77,4.46-5.69,1.62-1.92,2.76-3.35,3.43-4.28,5.55-7.97,9.88-14.75,12.97-20.35-8.09,8.2-14.2,14.09-18.35,17.67Zm21.41,2.15c3.48-3.05,6.07-5.64,7.78-7.78,1.7-2.14,2.56-3.78,2.56-4.92,0-1.08-.65-1.63-1.95-1.63-1.76,0-4.23,1.21-7.41,3.63-3.18,2.42-6.46,5.68-9.83,9.78,2.6-.23,4.34-.31,5.22-.24,.88,.07,2.09,.46,3.64,1.16Z"/></g><g><g><path class="cls-8" d="M360.27,24.85c-2.85,.71-3.97-4.5-2.77-7.18,1.2-2.68,3.88-4.35,6.5-5.68,15.99-8.12,34.5-9.2,52.4-10.14,4.41-.23,10.22,.56,11.05,4.9,.49,2.59-1.37,5.16-3.71,6.36-2.34,1.2-5.07,1.35-7.7,1.48-15.67,.74-31.35,1.48-47.02,2.22-3.89,.18-7.2,3.33-7.77,7.18,0,0-.18,.66-.98,.87Z"/><path class="cls-7" d="M360.27,24.85c-2.85,.71-3.97-4.5-2.77-7.18,1.2-2.68,3.88-4.35,6.5-5.68,15.99-8.12,34.5-9.2,52.4-10.14,4.41-.23,10.22,.56,11.05,4.9,.49,2.59-1.37,5.16-3.71,6.36-2.34,1.2-5.07,1.35-7.7,1.48-15.67,.74-31.35,1.48-47.02,2.22-3.89,.18-7.2,3.33-7.77,7.18,0,0-.18,.66-.98,.87Z"/></g><g><path class="cls-6" d="M373.5,16.61c-7.82,10.94-13.95,21.24-19.48,33.49-1.12,2.48-2.2,5.32-1.2,7.85,1.36,3.45,5.88,4.46,9.53,3.78,.61-.11,1.27-.29,1.63-.8,.25-.36,.31-.81,.36-1.24,1.78-14.87,8.88-28.49,15.25-42.04,.33-.7,.66-1.49,.42-2.22-.3-.91-1.4-1.34-2.35-1.2-.95,.14-1.77,.71-2.55,1.26l-1.6,1.12Z"/><path class="cls-5" d="M373.5,16.61c-7.82,10.94-13.95,21.24-19.48,33.49-1.12,2.48-2.2,5.32-1.2,7.85,1.36,3.45,5.88,4.46,9.53,3.78,.61-.11,1.27-.29,1.63-.8,.25-.36,.31-.81,.36-1.24,1.78-14.87,8.88-28.49,15.25-42.04,.33-.7,.66-1.49,.42-2.22-.3-.91-1.4-1.34-2.35-1.2-.95,.14-1.77,.71-2.55,1.26l-1.6,1.12Z"/></g><g><path class="cls-3" d="M353.24,34.17c9.57-1.53,16.77-1.91,26.45-1.5,2.29,.1,4.59,.25,6.78,.92-.13,1.36-1.75,1.96-3.08,2.26-10.19,2.31-20.4,4.62-30.72,6.21-1.77,.27-4.16,.14-4.6-1.59-.16-.64,.03-1.32,.3-1.93,.78-1.74,2.2-3.18,3.94-3.97l.93-.39Z"/><path class="cls-12" d="M353.24,34.17c9.57-1.53,16.77-1.91,26.45-1.5,2.29,.1,4.59,.25,6.78,.92-.13,1.36-1.75,1.96-3.08,2.26-10.19,2.31-20.4,4.62-30.72,6.21-1.77,.27-4.16,.14-4.6-1.59-.16-.64,.03-1.32,.3-1.93,.78-1.74,2.2-3.18,3.94-3.97l.93-.39Z"/></g></g><path class="cls-13" d="M62.15,14.76c-.62,.91-1.74,2.27-3.38,4.09-1.63,1.82-2.84,3.24-3.61,4.26-9.07,12.28-15.26,21.36-18.56,27.25l1.74,1.1c-.46,.82-.9,1.54-1.32,2.15-.42,.62-.93,1.36-1.53,2.24-.6,.88-1.05,1.54-1.37,1.98-2.64,3.84-5.12,5.76-7.44,5.76-.98,0-1.83-.32-2.53-.97-.7-.64-1.05-1.52-1.05-2.64,0-1.58,.68-3.75,2.03-6.5,1.35-2.75,3.44-6.14,6.28-10.17,2.83-4.03,6.39-8.59,10.68-13.69,4.29-5.1,9.12-10.47,14.5-16.13-3.09-.38-6.77-.57-11.02-.57-4.89,0-10.33,.45-16.32,1.36-5.99,.91-11.22,1.96-15.66,3.14-4.45,1.19-6.67,2.06-6.67,2.61,0,.21,.09,.34,.26,.42,.18,.07,.47,.13,.87,.18,.4,.04,.92,.1,1.56,.15,4.11,.47,6.17,1,6.17,1.58,0,.29-.9,.43-2.69,.42-1.79-.01-3.96-.02-6.49-.02-2,0-3.45-.07-4.35-.2-.9-.13-1.49-.38-1.79-.75-.3-.37-.45-.93-.45-1.69,0-.5,.18-1.58,.53-3.25,.67-3.11,1.7-5.6,3.08-7.47,1.39-1.87,3.52-3.41,6.38-4.59,2.86-1.19,6.81-2.13,11.84-2.83C30.27,.77,37.25,.17,42.77,.17c0,0,16.67-1.21,35.54,2.78,0,0,8.59,9.07-2.18,12.58,0,0,1.98-1.31-.32-1.43-2.3-.12-12.59-.57-12.59-.57l-1.08,1.23Z"/></g></g></svg>