<svg id="レイヤー_1" data-name="レイヤー 1" xmlns="http://www.w3.org/2000/svg" viewBox="0 0 42.396 59.706"><defs><style>.cls-1,.cls-2,.cls-3,.cls-4{fill:none;stroke:#ff64a5;stroke-linecap:round;stroke-linejoin:round;stroke-width:2.224px;}.cls-2{stroke-dasharray:3.1 4.68;}.cls-3{stroke-dasharray:2.296 3.466;}.cls-4{stroke-dasharray:2.302 3.474;}.cls-5{fill:#df1614;}.cls-6{fill:#ff64a5;}</style></defs><line class="cls-1" x1="23.116" y1="17.295" x2="23.115" y2="15.433"/><line class="cls-2" x1="23.113" y1="10.754" x2="23.11" y2="5.314"/><line class="cls-1" x1="23.109" y1="2.974" x2="23.108" y2="1.112"/><line class="cls-1" x1="9.542" y1="18.429" x2="8.33" y2="17.015"/><line class="cls-3" x1="6.074" y1="14.384" x2="3.452" y2="11.325"/><line class="cls-1" x1="2.324" y1="10.009" x2="1.112" y2="8.595"/><line class="cls-1" x1="41.285" y1="6.956" x2="40.414" y2="8.602"/><line class="cls-4" x1="38.79" y1="11.673" x2="36.902" y2="15.243"/><line class="cls-1" x1="36.09" y1="16.779" x2="35.22" y2="18.425"/><path class="cls-5" d="M21.268,42.278a5.376,5.376,0,0,0,2.648-.459q.729-.457.73-2.126V35.857a2.076,2.076,0,0,0-.563-1.5,2.018,2.018,0,0,0-1.522-.584,1.8,1.8,0,0,0-1.606.709,2.462,2.462,0,0,0-.479,1.376v2.418H16.223v-2.46a6.194,6.194,0,0,1,.5-2.46,6.015,6.015,0,0,1,1.376-2,6.87,6.87,0,0,1,2.043-1.334,6.291,6.291,0,0,1,2.5-.5,5.553,5.553,0,0,1,2.9.688,6.652,6.652,0,0,1,1.73,1.4,9.173,9.173,0,0,1,.73,1,4.895,4.895,0,0,1,.521,1.21A16.633,16.633,0,0,1,28.9,37.9q0,1.544-.062,2.5a5.235,5.235,0,0,1-.313,1.584,3.18,3.18,0,0,1-.813,1.126,9.721,9.721,0,0,1-1.438,1,8.14,8.14,0,0,1,1.521,1.167,3.441,3.441,0,0,1,.772,1.251,6.46,6.46,0,0,1,.291,1.772q.042,1.022.042,2.606,0,1.459-.062,2.418a12.56,12.56,0,0,1-.188,1.585,4.923,4.923,0,0,1-.334,1.126,6.813,6.813,0,0,1-.542.959,6.741,6.741,0,0,1-2.021,1.938,6.01,6.01,0,0,1-3.232.771,7.5,7.5,0,0,1-2.126-.333,5.792,5.792,0,0,1-2.044-1.084,5.872,5.872,0,0,1-1.521-1.959,6.563,6.563,0,0,1-.605-2.961V50.951h4.253v2.21a2.419,2.419,0,0,0,.563,1.647,2.116,2.116,0,0,0,3.044,0,2.545,2.545,0,0,0,.563-1.731V48.824a2.93,2.93,0,0,0-.668-2.293,1.861,1.861,0,0,0-1.021-.417,13.888,13.888,0,0,0-1.689-.083Z"/><path class="cls-6" d="M21.268,42.278a5.376,5.376,0,0,0,2.648-.459q.729-.457.73-2.126V35.857a2.076,2.076,0,0,0-.563-1.5,2.018,2.018,0,0,0-1.522-.584,1.8,1.8,0,0,0-1.606.709,2.462,2.462,0,0,0-.479,1.376v2.418H16.223v-2.46a6.194,6.194,0,0,1,.5-2.46,6.015,6.015,0,0,1,1.376-2,6.87,6.87,0,0,1,2.043-1.334,6.291,6.291,0,0,1,2.5-.5,5.553,5.553,0,0,1,2.9.688,6.652,6.652,0,0,1,1.73,1.4,9.173,9.173,0,0,1,.73,1,4.895,4.895,0,0,1,.521,1.21A16.633,16.633,0,0,1,28.9,37.9q0,1.544-.062,2.5a5.235,5.235,0,0,1-.313,1.584,3.18,3.18,0,0,1-.813,1.126,9.721,9.721,0,0,1-1.438,1,8.14,8.14,0,0,1,1.521,1.167,3.441,3.441,0,0,1,.772,1.251,6.46,6.46,0,0,1,.291,1.772q.042,1.022.042,2.606,0,1.459-.062,2.418a12.56,12.56,0,0,1-.188,1.585,4.923,4.923,0,0,1-.334,1.126,6.813,6.813,0,0,1-.542.959,6.741,6.741,0,0,1-2.021,1.938,6.01,6.01,0,0,1-3.232.771,7.5,7.5,0,0,1-2.126-.333,5.792,5.792,0,0,1-2.044-1.084,5.872,5.872,0,0,1-1.521-1.959,6.563,6.563,0,0,1-.605-2.961V50.951h4.253v2.21a2.419,2.419,0,0,0,.563,1.647,2.116,2.116,0,0,0,3.044,0,2.545,2.545,0,0,0,.563-1.731V48.824a2.93,2.93,0,0,0-.668-2.293,1.861,1.861,0,0,0-1.021-.417,13.888,13.888,0,0,0-1.689-.083Z"/></svg>