<svg id="レイヤー_1" data-name="レイヤー 1" xmlns="http://www.w3.org/2000/svg" viewBox="0 0 141.87 125"><defs><style>.cls-1{fill:#ff64a5;stroke:#4c4345;stroke-miterlimit:10;stroke-width:4px;}.cls-2{fill:#fff;}</style></defs><path class="cls-1" d="M137,89.1,121.3,75.65a61.26,61.26,0,0,0,1.44-13.15,60.43,60.43,0,1,0-7.2,28.68Z"/><path class="cls-2" d="M25,54.86a8.54,8.54,0,0,0,1.76-2.77,3.65,3.65,0,0,0,.23-.84,9.66,9.66,0,0,1,1.43.55c.17.08.26.15.26.23a.43.43,0,0,1-.15.31,2.06,2.06,0,0,0-.3.5,12.11,12.11,0,0,1-1.44,2.63c-.18.25-.3.37-.36.37s-.19-.08-.37-.24A4.66,4.66,0,0,0,25,54.86Zm4.54-16,1.68,0c.13,0,.19.07.19.22l0,2.6v6.52l0,2.62c0,.14-.06.22-.19.22l-1.68,0H27.87l-1.65,0a.29.29,0,0,1-.18,0,.36.36,0,0,1,0-.18l0-2.62V41.61L26,39a.3.3,0,0,1,0-.19.32.32,0,0,1,.17,0l1.65,0Zm-1.75,1.61v1.93h1.92V40.44Zm0,5.36h1.92V43.93H27.74Zm1.92,3.55v-2H27.74v2Zm2.55,4.9a4.43,4.43,0,0,0-1.05.76c-.15.15-.26.22-.34.22s-.21-.13-.39-.4A14.56,14.56,0,0,1,29,52.05a.44.44,0,0,1,0-.14c0-.07.07-.13.2-.19l.88-.38a.72.72,0,0,1,.24-.09c.05,0,.1,0,.14.16A12.89,12.89,0,0,0,32.21,54.25Zm5.85-.14a14.52,14.52,0,0,0,1.48.07.69.69,0,0,0,.51-.14.67.67,0,0,0,.09-.4V52.49H34.42v1l0,2.15a.18.18,0,0,1-.21.2H32.83a.18.18,0,0,1-.21-.2l0-2.11v-1l-.81,0c-.12,0-.19,0-.2,0s0-.09,0-.19v-1c0-.1,0-.16,0-.18a.38.38,0,0,1,.2,0h.25l.56,0V49l0-2.15c0-.1,0-.16,0-.18a.31.31,0,0,1,.18,0l2.41,0h1.11v-.91H34.69l-2.61,0c-.11,0-.17,0-.19,0a.31.31,0,0,1,0-.18v-1a.3.3,0,0,1,0-.19.36.36,0,0,1,.18,0l2.4,0v-1l-1.3,0h-.41c-.1,0-.16,0-.18,0a.43.43,0,0,1,0-.2v-.91c0-.12.07-.19.21-.19l1.71,0V41l-1.6,0H32.4a.31.31,0,0,1-.18,0,.34.34,0,0,1,0-.17v-1a.34.34,0,0,1,0-.2.32.32,0,0,1,.17,0l2.08,0V39.6a5.81,5.81,0,0,0-.12-1.49c.83,0,1.42.09,1.78.13q.3,0,.3.18a.48.48,0,0,1-.1.29,2.35,2.35,0,0,0-.11,1v0h2V39.6a6.51,6.51,0,0,0-.11-1.49c.82,0,1.41.09,1.78.13.2,0,.29.08.29.18a.57.57,0,0,1-.09.29,2.29,2.29,0,0,0-.12,1v0l2.48,0c.1,0,.16,0,.19,0a.66.66,0,0,1,0,.19v1a.31.31,0,0,1,0,.18.62.62,0,0,1-.18,0L40,41v1l2,0c.15,0,.22.07.22.19v.91c0,.12,0,.19,0,.21s-.07,0-.17,0h-.26l-1.73,0v1h.31l2.59,0c.1,0,.17,0,.19,0a.31.31,0,0,1,0,.18v1c0,.11,0,.17,0,.19a.31.31,0,0,1-.18,0l-2.59,0H38v.91h1.25l2.43,0c.11,0,.18,0,.19,0a.32.32,0,0,1,0,.17l0,2.32v2l.75,0h.26c.11,0,.17,0,.19,0a.29.29,0,0,1,0,.17v1a.33.33,0,0,1,0,.19s-.08,0-.18,0l-1,0c0,.62,0,1,0,1.19a2.14,2.14,0,0,1-.44,1.55,1.44,1.44,0,0,1-.8.35,9.64,9.64,0,0,1-1.49.1c-.31,0-.49,0-.54-.1a1.24,1.24,0,0,1-.17-.5A3.74,3.74,0,0,0,38.06,54.11ZM34.42,49h1.94V48H34.42Zm0,2.19h1.94v-1H34.42Zm1.81-9.07h2V41h-2Zm0,2.29h2v-1h-2ZM40.14,48H38v1h2.1ZM38,51.14h2.1v-1H38Z"/><path class="cls-2" d="M45.57,53.73a13.48,13.48,0,0,0,5.86-5.52,15.75,15.75,0,0,0,1.93-7.05H51L49,41.2a.42.42,0,0,1-.21,0,.32.32,0,0,1,0-.17V39.35c0-.1,0-.16,0-.18a.38.38,0,0,1,.19,0l1.93,0h2.48l1.94,0c.17,0,.26.08.26.23a4.26,4.26,0,0,0,0,.5,13.69,13.69,0,0,0,.13,1.66,15.35,15.35,0,0,0,7.54,12A5.61,5.61,0,0,0,62.14,55c-.15.29-.27.44-.35.44a1.2,1.2,0,0,1-.45-.25,16.83,16.83,0,0,1-6.64-9.63,16,16,0,0,1-2.9,5.83,15.63,15.63,0,0,1-4.24,3.83,2.29,2.29,0,0,1-.44.24c-.08,0-.21-.15-.41-.46A4.25,4.25,0,0,0,45.57,53.73Z"/><path class="cls-2" d="M68.58,42.66l-2.42,0a.3.3,0,0,1-.19,0,.43.43,0,0,1,0-.2V41a.29.29,0,0,1,0-.18.36.36,0,0,1,.18,0l2.42,0h2.28a14.35,14.35,0,0,0-1.08-1.93.3.3,0,0,1-.06-.14c0-.05.06-.11.2-.17l1.31-.5a.76.76,0,0,1,.24-.07s.11,0,.17.14A10.83,10.83,0,0,1,72.77,40a.4.4,0,0,1,0,.13c0,.06-.09.12-.26.18l-1.22.49h4.36a20.45,20.45,0,0,0,1.18-1.89,4.41,4.41,0,0,0,.37-1,19.44,19.44,0,0,1,1.93.53c.19.08.28.17.28.27s-.06.16-.17.26a2.44,2.44,0,0,0-.53.67c-.22.35-.49.73-.79,1.13h2.56l2.44,0c.1,0,.16,0,.19,0a.29.29,0,0,1,0,.17v1.48a.32.32,0,0,1-.05.21.29.29,0,0,1-.17,0l-2.44,0ZM70.4,53.9c.51,0,.94.05,1.3.05a.82.82,0,0,0,.53-.12.54.54,0,0,0,.1-.38V51.84H69.24v1.35l0,2.47a.36.36,0,0,1,0,.19.36.36,0,0,1-.18,0H67.5c-.1,0-.16,0-.18,0a.53.53,0,0,1,0-.18l0-2.52V46.73l0-2.59c0-.13.06-.19.2-.19l2,0H72l2,0c.14,0,.21.06.21.19l0,2.74V51.1l0,2.6a2.1,2.1,0,0,1-.46,1.61,4,4,0,0,1-2.19.41,1.14,1.14,0,0,1-.57-.08,1.25,1.25,0,0,1-.15-.5A3.48,3.48,0,0,0,70.4,53.9Zm1.93-8.19H69.24v1.5h3.09Zm-3.09,4.57h3.09v-1.5H69.24Zm6.65-5.82c.54,0,1.18.06,1.93.15.18,0,.27.09.27.22a2.88,2.88,0,0,1-.11.45,12.59,12.59,0,0,0-.07,1.91v2.3l0,2a.29.29,0,0,1,0,.17s-.08,0-.18,0H76.2c-.11,0-.17,0-.19,0a.28.28,0,0,1,0-.16l0-2V47.21A22.75,22.75,0,0,0,75.89,44.46ZM77,53.71a18.88,18.88,0,0,0,2,.09,1,1,0,0,0,.67-.17.81.81,0,0,0,.17-.59V46.35a15.89,15.89,0,0,0-.16-2.63c.74,0,1.4.06,2,.13.21,0,.31.1.31.22a1.24,1.24,0,0,1-.14.41,8.47,8.47,0,0,0-.11,1.87v3.74l0,3.38a2,2,0,0,1-.69,1.77,2.32,2.32,0,0,1-1,.35,14.49,14.49,0,0,1-1.77.08,1,1,0,0,1-.56-.09,1.44,1.44,0,0,1-.18-.52A3.63,3.63,0,0,0,77,53.71Z"/><path class="cls-2" d="M88.55,39.53a8.69,8.69,0,0,1,2.08.71c.3.16.45.31.45.46a1.47,1.47,0,0,1-.3.59,6.43,6.43,0,0,0-.46,1.38A29.26,29.26,0,0,0,89.51,49a19.66,19.66,0,0,0,.11,2.26l1.32-2.89a6.76,6.76,0,0,0,.68,1.22.84.84,0,0,1,.13.3.64.64,0,0,1-.09.31,19.71,19.71,0,0,0-1.11,2.93,2.14,2.14,0,0,0-.06.61l0,.54c0,.13-.09.22-.26.25a9.42,9.42,0,0,1-1.58.32h0c-.11,0-.18-.08-.22-.22a12.5,12.5,0,0,1-.68-2.87,21.46,21.46,0,0,1-.21-2.92,37.09,37.09,0,0,1,.66-6.37A19,19,0,0,0,88.55,39.53Zm4.47,10,1.76-.15h0q.15,0,.15.3a1.68,1.68,0,0,0,.93,1.47,5.47,5.47,0,0,0,2.23.35,33.7,33.7,0,0,0,3.7-.25h.08c.1,0,.17.09.19.26a11.42,11.42,0,0,1,.12,1.67c0,.12,0,.2,0,.22a.6.6,0,0,1-.28.06,26,26,0,0,1-3.16.22,10.47,10.47,0,0,1-3.44-.43,3.35,3.35,0,0,1-1.6-1.18A4.06,4.06,0,0,1,93,49.54ZM93.63,44c0-1.11,0-1.75.06-1.9a.35.35,0,0,1,.27-.34,23.44,23.44,0,0,1,4.22-.35c1.09,0,2,0,2.86.12a1,1,0,0,1,.39.07.22.22,0,0,1,.06.18c0,.74,0,1.29,0,1.65q0,.24-.21.24h0C100,43.62,99,43.58,98,43.58A25.12,25.12,0,0,0,93.63,44Z"/><path class="cls-2" d="M23.51,75.54h-.66a1,1,0,0,1,0,.26A11.28,11.28,0,0,0,26.4,80a5,5,0,0,0-.91,1.42c-.11.26-.21.39-.29.39s-.21-.1-.41-.29a13.35,13.35,0,0,1-2.53-3.43,12,12,0,0,1-3.35,5q-.27.24-.39.24c-.11,0-.25-.12-.41-.37a3.7,3.7,0,0,0-1.05-1.1,10.24,10.24,0,0,0,2.59-2.75,9.15,9.15,0,0,0,1.11-2.79,7.16,7.16,0,0,0,.14-.74h-1l-2.33,0c-.11,0-.18,0-.2,0a.53.53,0,0,1,0-.18V73.93c0-.09,0-.14,0-.16a.38.38,0,0,1,.19,0l2.33,0h1.24c.05-.62.09-1.61.11-3H20.08c-.33.6-.64,1.11-.93,1.54-.15.24-.27.37-.37.37s-.23-.1-.44-.3a4.46,4.46,0,0,0-1.11-.69,11.65,11.65,0,0,0,2.29-4.31,6.34,6.34,0,0,0,.22-1.25,13,13,0,0,1,1.8.41c.22.06.33.15.33.28a.59.59,0,0,1-.17.32,2.05,2.05,0,0,0-.42.72c-.12.4-.26.78-.41,1.15h2.29l2.37,0c.11,0,.18,0,.2,0a.27.27,0,0,1,0,.17v1.42c0,.1,0,.16-.05.18a.38.38,0,0,1-.19,0l-2.37,0c0,1.34-.06,2.33-.11,3h.46l2.35,0c.14,0,.21.06.21.19v1.42c0,.11,0,.18,0,.2a.29.29,0,0,1-.17,0Zm5,7.66H26.9a.29.29,0,0,1-.18,0,.36.36,0,0,1,0-.18l0-5.84V72.61l0-4.47c0-.13.08-.19.22-.19L29,68h2.71l2.11,0a.45.45,0,0,1,.21,0s0,.07,0,.16L34,72v5l0,5.74A.34.34,0,0,1,34,83a.38.38,0,0,1-.19,0h-1.6c-.1,0-.16,0-.18,0a.29.29,0,0,1,0-.17V81.6H28.71V83c0,.11,0,.17,0,.19A.31.31,0,0,1,28.49,83.2Zm.22-13.35v9.87H32V69.85Z"/><path class="cls-2" d="M41.89,66.83a10.61,10.61,0,0,1,2.11.59c.25.1.37.23.37.39a.49.49,0,0,1-.13.32,2.37,2.37,0,0,0-.35.91c-.18.85-.36,2.09-.54,3.71-.05.85-.08,1.4-.08,1.65s0,.33,0,.49c.47-.84.92-1.67,1.36-2.5a4.26,4.26,0,0,0,.6,1.27.47.47,0,0,1,.12.31,1,1,0,0,1-.19.48A18.17,18.17,0,0,0,44,76.94a2.82,2.82,0,0,0-.1.59.28.28,0,0,1-.25.3c-.24.06-.75.14-1.55.24-.13,0-.22-.07-.27-.26a11.38,11.38,0,0,1-.58-3.94A45.94,45.94,0,0,1,41.73,69,19,19,0,0,0,41.89,66.83Zm6.2,0a13.24,13.24,0,0,1,2.22.22q.39.1.39.36a1.09,1.09,0,0,1,0,.17,6.4,6.4,0,0,0,0,.9c.18,2.44.27,4.11.27,5q0,4.45-1.47,6.75a10.19,10.19,0,0,1-3.2,3.13.75.75,0,0,1-.39.13.6.6,0,0,1-.41-.22,4.14,4.14,0,0,0-1.65-.89,10.49,10.49,0,0,0,3.31-2.6,7.7,7.7,0,0,0,1.28-2.72,14.64,14.64,0,0,0,.35-3.48A41.64,41.64,0,0,0,48.5,69,10.39,10.39,0,0,0,48.09,66.87Z"/><path class="cls-2" d="M65.2,70.22c.8-.14,1.72-.36,2.76-.65l.1,0c.12,0,.19.07.2.21a13.32,13.32,0,0,1,.14,1.39v.09c0,.14-.1.24-.29.28a30.25,30.25,0,0,1-3.37.74q-1.92,6.28-3.55,10.51c-.06.15-.14.23-.24.23l-.19,0a14.15,14.15,0,0,1-1.55-.72A.31.31,0,0,1,59,82a.52.52,0,0,1,0-.11,76.19,76.19,0,0,0,3.36-9.2,32.08,32.08,0,0,1-3.39.22.35.35,0,0,1-.4-.31c-.07-.35-.17-.94-.28-1.78a9.4,9.4,0,0,0,1.44.07,25.93,25.93,0,0,0,3.13-.2c.15-.59.32-1.4.49-2.43a13,13,0,0,0,.12-1.78A12.66,12.66,0,0,1,66,67a.3.3,0,0,1,.22.31.53.53,0,0,1-.1.32,5.3,5.3,0,0,0-.4.76c-.07.26-.16.61-.27,1.08S65.25,70.07,65.2,70.22Zm.35,8.92a7.24,7.24,0,0,1,1.65-.3c.18,0,.27.1.29.28a1.73,1.73,0,0,0,1,1.5,4.69,4.69,0,0,0,2,.33,27,27,0,0,0,3.26-.28h.07c.1,0,.15.06.17.18a12.11,12.11,0,0,1,.15,1.7s0,.08,0,.1-.11.19-.31.21a18.86,18.86,0,0,1-2.64.21A11.72,11.72,0,0,1,68,82.73a3.5,3.5,0,0,1-1.59-.93A4,4,0,0,1,65.55,79.14Zm1.52-3.67Q67,74.09,67,73.7a.37.37,0,0,1,.08-.28.49.49,0,0,1,.27-.11,19.52,19.52,0,0,1,3.78-.44,13.38,13.38,0,0,1,2.27.19.56.56,0,0,1,.27.08.29.29,0,0,1,.06.21c0,.27,0,.57,0,.89s0,.42,0,.66-.08.37-.23.37l-.14,0A12.68,12.68,0,0,0,71,75,19.94,19.94,0,0,0,67.07,75.47Z"/><path class="cls-2" d="M79.12,68.87a7.27,7.27,0,0,1,2.46.63c.21.1.32.21.32.35a1.66,1.66,0,0,1-.16.54,6.84,6.84,0,0,0-.18,1.91,25.23,25.23,0,0,0,.36,4.43q.49,2.85,1.59,2.85c.32,0,.64-.22.93-.68a10.56,10.56,0,0,0,.92-2,8.09,8.09,0,0,0,1.24,1.5.56.56,0,0,1,.2.42.93.93,0,0,1-.06.3,5.46,5.46,0,0,1-1.53,2.35,2.69,2.69,0,0,1-1.76.68,2.9,2.9,0,0,1-2.32-1.48,8.74,8.74,0,0,1-1.31-3.59,34.1,34.1,0,0,1-.46-5.65A11.72,11.72,0,0,0,79.12,68.87Zm9.93,2.75c.64-.41,1.15-.7,1.52-.89a.53.53,0,0,1,.22-.08.31.31,0,0,1,.21.11A11.63,11.63,0,0,1,93.51,74a12,12,0,0,1,1.29,3.42.53.53,0,0,1,0,.12c0,.11-.07.21-.22.31a7.59,7.59,0,0,1-1.52.78.52.52,0,0,1-.17,0c-.12,0-.2-.08-.23-.24a15.6,15.6,0,0,0-1.43-3.91A13.42,13.42,0,0,0,89.05,71.62Z"/><path class="cls-2" d="M104.31,67l-.52,11.56h-2L101.29,67ZM101.4,80.43h2.76v2.62H101.4Z"/></svg>