<?xml version="1.0" encoding="UTF-8"?><svg id="_レイヤー_2" xmlns="http://www.w3.org/2000/svg" viewBox="0 0 345 172"><defs><style>.cls-1{fill:#fff;}.cls-2,.cls-3,.cls-4{fill:none;}.cls-3{stroke:#000;stroke-linecap:round;stroke-linejoin:round;stroke-width:1.353px;}.cls-4{stroke:#fff;stroke-miterlimit:10;stroke-width:1.363px;}</style></defs><g id="_レイヤー_1-2"><rect class="cls-2" width="345" height="172"/><rect class="cls-1" x="12" y="88" width="116" height="24"/><path d="M22.243,99.096v4.976c1.161,1.81,3.366,1.81,5.928,1.81,1.713,0,3.798-.045,5.034-.12-.134.226-.283.678-.328.965-1.028.03-2.681.059-4.185.059-3.321,0-5.392,0-6.866-1.87-.655.679-1.355,1.342-1.906,1.87,0,.121-.029.166-.134.227l-.566-1.026c.626-.498,1.4-1.161,2.071-1.81v-4.117h-1.922v-.965h2.875ZM20.261,93.425c.909.724,1.922,1.779,2.353,2.548l-.834.589c-.402-.785-1.4-1.886-2.294-2.624l.774-.513ZM32.982,101.916v.814h-10.069v-.814h2.785v-1.509h-2.174v-.814h2.174v-1.207l1.251.09c-.016.106-.105.181-.298.196v.921h2.517v-1.207l1.25.09c-.015.106-.104.181-.297.212v.905h2.249v.814h-2.249v1.509h2.86ZM26.13,95.477v-1.056h-3.009v-.738h3.888v2.533h-2.651v.83c0,.287.074.346.551.346h1.697c.358,0,.432-.09.462-.784.178.136.521.227.759.287-.089.995-.342,1.236-1.102,1.236h-1.892c-1.057,0-1.34-.196-1.34-1.071v-1.583h2.637ZM27.396,103.273c-.074.121-.194.136-.313.105-.819.694-2.056,1.433-3.113,1.901-.164-.181-.477-.467-.685-.619,1.042-.407,2.279-1.101,3.039-1.824l1.073.438ZM26.651,100.407v1.509h2.517v-1.509h-2.517ZM31.238,95.477v-1.056h-3.202v-.738h4.095v2.533h-2.815v.83c0,.287.089.346.626.346h1.861c.387,0,.461-.09.492-.844.194.121.536.227.774.287-.105,1.04-.358,1.297-1.147,1.297h-2.055c-1.117,0-1.416-.196-1.416-1.086v-1.568h2.785ZM29.422,102.836c1.25.573,2.621,1.342,3.425,1.976l-.983.467c-.7-.619-1.951-1.388-3.158-1.976l.716-.467Z"/><path d="M34.103,106.018c1.103-3.197,2.935-8.536,3.516-10.135.283-.815.67-1.96.774-2.337l1.608.422c-.074.212-.283.287-.581.287-.819,2.066-2.085,5.595-2.636,7.103h.015c.879-1.086,2.219-1.855,3.262-1.855,1.296,0,1.921.89,1.877,2.293l-.045,1.795c-.015,1.13.581,1.749,1.549,1.749,1.341,0,2.577-1.553,3.262-4.147.297.211.655.407.968.557-.819,2.881-2.294,4.69-4.274,4.69-1.579,0-2.606-.965-2.606-2.503,0-.286.044-1.674.044-1.991,0-.95-.387-1.447-1.042-1.447-1.713,0-3.44,2.518-3.813,3.498-.208.528-.536,1.493-.819,2.368l-1.058-.346Z"/><path d="M48.302,95.099c1.117-.046,10.292-.709,12.229-.724l.015,1.13c-.194-.015-.372-.015-.551-.015-.863,0-1.594.15-2.547.769-2.234,1.357-4.394,3.785-4.394,5.731,0,2.111,1.46,3.363,5.153,3.846l-.492,1.055c-4.229-.618-5.808-2.216-5.808-4.901,0-2.126,2.071-4.705,4.795-6.439-1.638.121-6.032.452-7.953.634-.044.121-.208.226-.328.241l-.119-1.326ZM57.953,98.07c.715.542,1.564,1.432,2.026,2.081l-.566.468c-.417-.664-1.326-1.599-1.966-2.097l.506-.452ZM59.561,96.743c.73.543,1.594,1.418,2.026,2.082l-.566.452c-.402-.604-1.266-1.538-1.966-2.082l.506-.452Z"/><path d="M73.374,105.716c-1.281-1.026-2.905-2.006-4.469-2.518.03.588-.074,1.357-.194,1.749-.119,1.251-1.266,1.734-2.636,1.734-1.921,0-3.44-.95-3.456-2.474-.029-1.522,1.55-2.458,3.426-2.473.522,0,1.192.03,1.743.136,0-.407-.074-.754-.09-1.101-.134-1.976-.253-5.143-.268-7.314l1.55.091c0,.15-.135.286-.388.317-.015.407,0,2.398,0,2.85.969,0,3.143-.166,4.945-.483l.105,1.071c-1.698.271-3.902.423-5.034.438,0,.859.029,1.207.253,4.328,1.921.573,3.739,1.599,5.197,2.685l-.684.965ZM66.016,102.64c-1.43.03-2.428.634-2.428,1.493,0,1.101,1.176,1.584,2.368,1.584,1.042,0,1.906-.377,1.906-1.448,0-.346,0-.965-.029-1.402-.596-.181-1.251-.227-1.817-.227Z"/><path d="M81.392,93.787c-.029.181-.208.256-.492.272-.163.844-.431,2.307-.61,3.212.67-.076,1.281-.137,1.653-.137,2.263-.03,3.039,1.494,3.039,3.756,0,1.13-.209,2.473-.506,3.378-.462,1.538-1.416,2.278-2.651,2.278-.611,0-1.415-.256-2.695-1.313.163-.271.283-.603.402-.92,1.192.935,1.817,1.146,2.279,1.146.849,0,1.355-.543,1.653-1.509.313-.934.476-2.322.476-3.091-.015-1.718-.566-2.744-2.055-2.729-.447,0-1.058.06-1.817.15-.744,3.077-1.623,5.716-3.053,8.144l-.983-.483c1.445-2.337,2.263-4.674,2.963-7.54-.76.091-1.847.227-2.65.362l-.09-1.056c.73-.09,1.951-.226,2.95-.346.223-1.101.461-2.458.64-3.785l1.549.211ZM88.288,101.041c-.477-2.202-1.892-4.071-3.351-5.157l.805-.634c1.578,1.131,3.142,3.212,3.619,5.369l-1.073.422Z"/><path d="M90.601,99.02c.268-.06.819-.212,1.326-.362,1.847-.558,4.006-1.071,5.392-1.071,2.01,0,3.813,1.086,3.813,3.545,0,3.317-3.247,4.539-7.224,4.855-.06-.226-.208-.738-.298-.92,3.5-.256,6.464-1.282,6.464-3.875,0-1.886-1.326-2.699-2.905-2.685-1.191.015-3.113.452-4.989,1.101-.343.121-.715.256-.953.332-.03.121-.134.227-.239.256l-.387-1.176Z"/><path d="M112.381,96.367c-1.266.452-2.949.738-4.573.859-.626,3.454-1.534,6.892-2.726,9.425l-1.073-.407c1.222-2.428,2.116-5.549,2.696-8.973-.298.015-2.294.03-2.74.015l-.016-1.026c.239.015.551.015.894.015.135,0,1.624,0,2.011-.015.149-.965.298-2.021.387-2.941l1.534.151c-.015.165-.223.286-.431.301-.09.664-.239,1.478-.372,2.398,1.46-.136,2.934-.392,4.17-.844l.239,1.041ZM116.342,106.41c-.447.015-.908.03-1.37.03-1.4,0-2.726-.106-3.53-.332-1.057-.302-1.668-1.086-1.653-2.081.016-.664.298-1.418.924-2.187l.894.392c-.521.618-.774,1.206-.774,1.674,0,1.191,1.131,1.493,3.842,1.493.551,0,1.117-.015,1.668-.06v1.071ZM110.534,99.141c1.534-.498,3.649-.815,5.407-.769v1.026c-1.683-.046-3.634.196-5.153.678l-.253-.934Z"/><path d="M119.891,104.993c0-.543.417-.981.924-.981s.923.438.923.981-.416.98-.923.98c-.536,0-.924-.467-.924-.98ZM120.338,102.564l-.223-8.265h1.429l-.223,8.265h-.984Z"/><rect class="cls-1" x="12" y="118" width="192" height="24"/><path d="M28.173,135.792h-1.312l-1.222-3.725h-3.951l-1.193,3.725h-1.267l3.757-11.492h1.432l3.757,11.492ZM25.384,131.072l-1.119-3.408c-.239-.785-.433-1.509-.581-2.187h-.045c-.149.693-.357,1.418-.566,2.141l-1.133,3.454h3.444Z"/><path d="M35.764,135.792h-5.934v-11.492h1.237v10.421h4.697v1.071Z"/><path d="M44.832,135.445c-.522.256-1.536.513-2.832.513-2.922,0-5.278-1.915-5.278-5.807,0-3.709,2.28-6.017,5.606-6.017,1.356,0,2.146.286,2.504.467l-.328,1.055c-.522-.255-1.253-.467-2.147-.467-2.579,0-4.339,1.749-4.339,4.917,0,3.016,1.61,4.795,4.264,4.795.865,0,1.715-.196,2.281-.467l.268,1.011Z"/><path d="M56.598,123.184c-.015.106-.104.181-.298.211v6.696c1.088,1.011,2.311,1.87,3.504,2.413-.239.196-.552.588-.715.859-.94-.482-1.894-1.161-2.788-1.96v5.655h-1.029v-6.651c-.925-.965-1.76-2.035-2.401-3.152-.925,4.842-2.982,8.053-5.651,9.772-.164-.226-.552-.588-.805-.738,1.581-.965,2.938-2.428,3.936-4.419-.626-.619-1.655-1.387-2.535-1.9l.552-.709c.82.452,1.774,1.101,2.43,1.674.537-1.313.954-2.82,1.223-4.525h-3.116c-.597,1.674-1.372,3.167-2.297,4.223-.149-.196-.491-.513-.701-.679,1.343-1.508,2.341-4.147,2.908-6.907l1.238.302c-.03.105-.135.165-.313.165-.15.648-.313,1.297-.507,1.93h3.176l.194-.045.641.271c-.03.06-.09.136-.15.181l-.134.859.492-.196c.478.859,1.103,1.719,1.819,2.518v-5.941l1.326.09Z"/><path d="M62.493,128.433h-.016c-.149,1.116-.462,2.277-1.088,3.182-.134-.196-.477-.573-.67-.709.909-1.357,1.014-3.197,1.014-4.569v-2.729h5.039v3.317h-4.159c0,.362-.03.739-.075,1.131h4.503v3.363h-3.638v.815h-.909v-3.8ZM68.218,135.716h6.381v.905h-13.717v-.905h6.308v-1.689h-4.697v-.89h4.697v-1.478l1.326.075c-.015.106-.104.181-.298.211v1.192h4.771v.89h-4.771v1.689ZM65.847,124.421h-3.22v1.705h3.22v-1.705ZM66.116,128.854h-2.714v1.765h2.714v-1.765ZM70.44,129.081v-1.252h-3.116v-.844h1.938c-.089-.452-.298-1.086-.522-1.568l.805-.212c.268.529.536,1.252.611,1.69l-.298.09h1.998l-.239-.075c.239-.498.522-1.252.656-1.764l1.119.271c-.045.09-.134.136-.313.15-.149.392-.402.965-.641,1.418h2.073v.844h-3.132v1.252h2.788v.83h-2.788v2.231h-.939v-2.231h-2.788v-.83h2.788ZM74.018,124.3v.83h-6.187v-.83h2.609v-1.266l1.222.09c-.015.091-.09.166-.284.196v.98h2.64Z"/><path d="M84.595,129.594c-.284,1.749-.731,3.196-1.551,4.207.552.603,1.104,1.207,1.805,1.991h-1.492c-.313-.346-.611-.663-1.074-1.161-.984.95-2.043,1.342-3.236,1.342-2.087,0-3.325-1.478-3.325-3.197,0-1.523.88-2.608,2.162-3.378v-.046c-.581-.784-.94-1.628-.94-2.458,0-1.388.954-2.775,2.714-2.775,1.297,0,2.341.889,2.341,2.383,0,1.206-.686,2.141-2.475,3.076v.06c.94,1.146,2.057,2.474,2.863,3.408.522-.859.849-2.035,1.059-3.453h1.148ZM81.657,133.891c-.715-.844-1.983-2.292-3.205-3.77-.641.422-1.521,1.191-1.521,2.473,0,1.357.954,2.413,2.326,2.413.924,0,1.804-.408,2.4-1.117ZM78.093,126.774c0,.859.389,1.523.85,2.156,1.177-.678,1.938-1.342,1.938-2.352,0-.754-.388-1.553-1.342-1.553-.984,0-1.446.874-1.446,1.749Z"/><path d="M98.91,127.874h-5.561c1.386,2.639,3.787,5.308,6.053,6.59-.253.212-.597.604-.775.875-2.102-1.342-4.264-3.815-5.756-6.424v8.159h-1.043v-8.113c-1.461,2.669-3.608,5.097-5.77,6.439-.179-.256-.507-.648-.746-.844,2.326-1.297,4.682-3.967,6.038-6.681h-5.516v-1.011h5.993v-3.785l1.356.076c-.015.12-.105.196-.313.211v3.498h6.038v1.011Z"/><path d="M103.284,132.383l1.73-.694.194.875c-1.551.724-3.206,1.432-4.249,1.885,0,.121-.06.211-.164.256l-.522-1.146c.567-.196,1.282-.482,2.057-.784v-5.007h-1.804v-.965h1.804v-3.604l1.253.091c-.015.105-.105.165-.298.196v3.317h1.685v.965h-1.685v4.615ZM107.191,134.797c0,.829.194,1.025,1.237,1.025h3.802c.895,0,1.043-.422,1.163-2.231.239.181.626.346.91.407-.164,2.081-.492,2.745-2.058,2.745h-3.846c-1.685,0-2.162-.377-2.162-1.961v-5.082l-1.506.648-.388-.905,1.894-.814v-4.133l1.252.091c-.015.106-.104.181-.298.211v3.408l2.162-.934v-4.208l1.237.075c-.015.106-.089.181-.283.212v3.513l2.385-1.04.209-.166.819.302c-.015.06-.074.121-.149.166,0,2.865-.045,5.247-.163,5.821-.135.921-.642,1.071-2.222,1.071-.045-.287-.119-.663-.239-.905.373.03.895.03,1.058.03.239,0,.403-.075.478-.438.089-.376.119-2.246.119-4.78l-2.296.996v5.791h-.954v-5.369l-2.162.935v5.52Z"/><path d="M117.468,128.417c-.596.981-1.253,1.855-1.923,2.579-.119-.241-.373-.724-.537-.949,1.506-1.569,2.982-4.208,3.862-6.877l1.222.407c-.06.106-.163.15-.343.15-.403,1.086-.88,2.157-1.417,3.183l.418.121c-.015.105-.105.165-.283.196v9.848h-.999v-8.657ZM129.261,128.945h-4.502v6.5h4.248v.98h-9.244v-.98h3.966v-6.5h-4.324v-.996h4.324v-4.659l1.312.09c-.015.106-.089.181-.283.196v4.373h4.502v.996Z"/><path d="M137.124,135.324h6.77v1.026h-13.553v-1.026h5.74v-12.019l1.356.09c-.015.106-.104.181-.313.212v4.463h5.725v1.026h-5.725v6.228Z"/><path d="M148.148,124.285c-.015.136-.163.242-.388.271-.433,1.901-.775,4.54-.775,6.228,0,1.04.045,1.93.164,2.534.312-.679,1.043-2.111,1.505-2.987l.686.709c-.462.83-1.356,2.413-1.64,3.212-.074.211-.119.392-.119.603,0,.166.03.362.105.604l-1.029.211c-.403-1.086-.686-2.745-.686-4.855,0-1.93.298-4.525.731-6.772l1.446.242ZM150.25,127.768c1.238-.015,2.967-.03,4.026-.121-.075-1.734-.194-3.875-.239-4.192l1.536.06c-.015.166-.164.302-.402.347.029.83.104,2.427.163,3.724,1.029-.09,2.117-.226,2.937-.467l.09,1.071c-.82.181-1.879.346-2.997.422.015.333.029.8.029,1.313,0,3.182-.79,5.414-3.608,6.861-.118-.18-.551-.572-.804-.768,2.698-1.313,3.355-3.243,3.355-6.018,0-.542-.016-1.055-.03-1.342-.984.075-2.698.106-4.04.106l-.016-.996ZM156.14,124.12c.67.588,1.431,1.493,1.804,2.141l-.596.407c-.373-.648-1.148-1.614-1.745-2.126l.537-.422ZM157.646,122.928c.656.573,1.401,1.478,1.804,2.126l-.581.423c-.373-.648-1.164-1.614-1.76-2.126l.537-.423Z"/><path d="M167.804,125.808c-.06.136-.179.242-.373.242-.537,4.689-2.088,8.777-4.563,8.777-1.252,0-2.385-1.267-2.385-3.65,0-3.619,2.788-6.65,6.709-6.65,4.309,0,6.172,2.76,6.172,5.701,0,3.588-2.057,5.323-5.665,6.167-.134-.241-.388-.648-.626-.92,3.429-.663,5.189-2.352,5.189-5.203,0-2.488-1.581-4.751-5.07-4.751-.149,0-.313.016-.447.031l1.059.256ZM166.372,125.612c-3.011.377-4.875,2.895-4.875,5.535,0,1.614.685,2.624,1.401,2.624,1.804,0,3.1-4.027,3.473-8.159Z"/><path d="M182.912,128.206c.298.996.715,1.945,1.222,2.805.985-.619,2.147-1.463,2.893-2.126l.909.83c-.06.059-.194.075-.313.059-.76.604-1.998,1.403-2.997,1.991,1.074,1.494,2.49,2.639,4.249,3.212-.224.196-.507.588-.671.86-3.056-1.131-5.025-3.906-6.084-7.344-.477.361-1.043.724-1.639,1.04,2.057,1.493,2.937,3.423,2.937,4.947,0,1.628-1.014,2.623-2.565,2.623-.372,0-.849-.015-1.342-.045-.015-.256-.104-.679-.268-.95.552.046,1.074.06,1.401.06.433,0,.791-.031,1.104-.287.417-.271.656-.829.656-1.522,0-.423-.09-.89-.284-1.388-1.639,1.432-4.204,2.866-6.366,3.589-.119-.256-.328-.634-.536-.859,2.267-.619,5.01-2.097,6.515-3.544-.194-.317-.432-.634-.701-.935-1.282.965-3.294,2.006-4.86,2.579-.119-.242-.343-.588-.537-.799,1.581-.468,3.639-1.448,4.846-2.353-.253-.226-.537-.467-.85-.694-1.118.529-2.325.965-3.459,1.297-.119-.196-.358-.588-.507-.768,1.834-.468,3.922-1.267,5.383-2.278h-3.534v-.89h8.543v.89h-3.145ZM176.59,125.763v2.036h-.969v-2.971h5.681v-1.78l1.326.09c-.015.106-.104.181-.298.196v1.494h5.769v2.971h-1.014v-2.036h-10.496Z"/><path d="M26.458,36.12c-.646.219-1.449.377-2.362.486,0,.768-.013,1.62-.013,2.326.95-.329,1.973-.561,2.752-.561,2.07,0,3.361,1.121,3.361,2.838,0,1.606-.986,2.861-2.861,2.861-.901,0-1.717-.316-2.375-1.169.146-.183.316-.427.438-.634.597.755,1.242.999,1.948.999,1.291,0,1.973-.926,1.973-2.058,0-1.182-.864-2.107-2.496-2.095-.779.012-1.79.231-2.74.584,0,.901.024,2.351.024,2.691,0,1.096-.718,1.937-1.911,1.937-1.12,0-2.058-.694-2.058-1.876,0-.779.56-1.655,1.521-2.338.438-.304.999-.62,1.62-.876v-2.569c-.975.085-1.949.097-2.923.085l-.012-.828c1.071.013,2.045,0,2.935-.073v-2.276l1.229.072c-.013.146-.134.231-.341.256-.024.476-.037,1.193-.049,1.876.815-.098,1.559-.269,2.191-.512l.146.853ZM23.292,42.341c0-.316-.012-1.314-.012-2.313-.451.207-.877.463-1.242.719-.634.45-1.108,1.132-1.108,1.668,0,.633.414,1.157,1.242,1.157.621,0,1.12-.427,1.12-1.218v-.013ZM30.172,37.568c-.621-.62-1.79-1.327-2.776-1.753l.426-.719c1.048.451,2.217,1.145,2.886,1.754l-.535.718Z"/><path d="M40.254,36.351l.609.365c-.037.048-.098.085-.158.097-.597.877-1.449,1.645-2.436,2.302,1.412.682,3.104,1.157,4.883,1.388-.183.183-.402.536-.523.768-.597-.098-1.169-.219-1.741-.365v3.689h-.841v-.414h-5.175v.426h-.791v-3.543c-.646.194-1.304.377-1.937.512-.073-.207-.256-.548-.401-.719,1.668-.316,3.47-.901,5.004-1.705-.682-.45-1.291-.962-1.79-1.546-.572.463-1.242.901-2.009,1.278-.122-.183-.365-.45-.561-.572,1.705-.779,2.923-1.888,3.556-2.85l1.023.171c-.013.098-.098.146-.244.158-.146.194-.304.401-.487.608h3.86l.158-.048ZM33.156,35.316v1.425h-.792v-2.192h4.64v-1.254l1.084.073c-.013.085-.086.146-.244.158v1.022h4.713v2.192h-.828v-1.425h-8.572ZM40.546,40.82c-1.096-.305-2.131-.719-3.056-1.218-.841.475-1.766.876-2.703,1.218h5.759ZM34.873,43.474h5.175v-1.948h-5.175v1.948ZM35.579,37.069l-.036.037c.499.608,1.181,1.145,1.96,1.607.792-.487,1.474-1.035,1.997-1.645h-3.921Z"/><path d="M46.647,36.777v.815c.353.463,1.29,1.876,1.51,2.229-.098.134-.195.268-.476.609-.194-.402-.657-1.218-1.034-1.852v6.016h-.756v-6.003c-.426,1.425-.998,2.812-1.595,3.652-.098-.219-.292-.523-.426-.706.767-1.035,1.546-3.031,1.924-4.761h-1.681v-.768h1.777v-2.715l.999.073c-.013.073-.085.134-.243.158v2.483h1.448v.768h-1.448ZM47.609,43.34c.791-.39,1.973-1.048,3.117-1.681l.194.608c-.998.634-2.046,1.267-2.728,1.656,0,.098-.036.171-.109.22l-.475-.804ZM52.917,41.331v.013c.646.986,1.51,1.753,2.545,2.18-.183.158-.414.45-.536.657-1.218-.608-2.191-1.692-2.873-3.044v2.521c0,.913-.365.986-2.034.986-.036-.22-.134-.561-.243-.779.561.012,1.108.012,1.278.012.171-.012.207-.061.207-.219v-4.506h-3.166v-.706h3.166v-1.084h-2.472v-.682h2.472v-1.035h-2.861v-.706h1.534c-.122-.401-.39-.949-.646-1.376l.658-.219c.304.463.62,1.083.73,1.474l-.316.121h2.483l-.268-.098c.256-.426.597-1.107.755-1.546l.938.316c-.036.061-.122.109-.256.109-.17.341-.463.841-.719,1.218h1.778v.706h-3.02v1.035h2.69v.682h-2.69v1.084h3.178v.706h-3.178v.39c.194.597.462,1.169.791,1.681.512-.463,1.218-1.205,1.596-1.717l.742.548c-.049.061-.146.085-.256.073-.401.438-1.12,1.096-1.644,1.51l-.365-.305ZM49.776,41.599c-.243-.463-.779-1.169-1.267-1.681l.572-.365c.5.499,1.048,1.169,1.291,1.632l-.597.414Z"/><path d="M60.869,33.891c-.024.146-.17.207-.401.219-.134.683-.354,1.863-.499,2.594.548-.061,1.047-.109,1.352-.109,1.851-.024,2.483,1.205,2.483,3.032,0,.913-.17,1.997-.414,2.728-.377,1.241-1.156,1.838-2.167,1.838-.499,0-1.157-.207-2.204-1.059.134-.22.231-.487.329-.743.974.755,1.485.926,1.862.926.694,0,1.108-.438,1.352-1.218.256-.755.39-1.875.39-2.496-.012-1.389-.462-2.217-1.68-2.204-.365,0-.865.049-1.485.122-.609,2.483-1.328,4.614-2.497,6.575l-.803-.39c1.181-1.888,1.851-3.775,2.423-6.089-.621.073-1.51.183-2.168.293l-.072-.853c.597-.073,1.595-.183,2.41-.28.183-.889.378-1.984.524-3.057l1.266.171ZM66.506,39.748c-.39-1.777-1.546-3.287-2.739-4.164l.657-.512c1.291.913,2.569,2.594,2.959,4.335l-.877.341Z"/><path d="M70.792,35.924c-.049.122-.146.183-.316.207-.098,1.803-.328,3.337-.499,3.592h.012c1.193-.889,3.057-1.497,4.481-1.497,1.875,0,3.044.962,3.02,2.666-.036,2.241-1.887,3.239-6.6,3.435-.061-.231-.17-.572-.305-.804,4.25-.183,5.955-.877,5.991-2.618.013-1.169-.804-1.875-2.229-1.875-2.252,0-4.286,1.352-4.627,1.948l-.828-.402c.244-.231.67-2.411.694-4.797l1.205.146ZM71,33.562c1.656.195,3.531.572,4.725,1.071l-.305.841c-1.254-.536-3.068-.889-4.676-1.108l.256-.804Z"/><path d="M85.284,35.523c-.049.109-.146.194-.305.194-.438,3.787-1.705,7.087-3.727,7.087-1.022,0-1.948-1.022-1.948-2.946,0-2.923,2.277-5.37,5.479-5.37,3.52,0,5.041,2.229,5.041,4.603,0,2.898-1.68,4.299-4.627,4.98-.109-.195-.316-.523-.511-.743,2.8-.535,4.237-1.899,4.237-4.201,0-2.009-1.291-3.835-4.141-3.835-.121,0-.255.012-.365.024l.865.207ZM84.115,35.365c-2.46.304-3.982,2.338-3.982,4.469,0,1.303.561,2.118,1.145,2.118,1.474,0,2.533-3.251,2.838-6.587Z"/><path d="M20.894,56.617v-5.918l1.156.073c-.012.109-.097.194-.292.219v5.626h-.864ZM27.676,50.224c-.013.121-.098.183-.292.207v3.872c0,2.557-.877,4.895-4.372,6.246-.121-.183-.426-.499-.633-.657,3.373-1.254,4.128-3.337,4.128-5.589v-4.152l1.169.073Z"/><path d="M39.914,50.991c-.024.049-.098.085-.158.109-.657,1.559-1.705,2.91-2.886,3.896-.183-.158-.523-.377-.743-.499,1.121-.815,2.021-1.997,2.424-3.02h-8.719v-.828h9.182l.134-.061.767.401ZM35.165,53.207c-.012.098-.121.183-.279.207-.354,2.874-1.34,5.614-3.849,7.062-.17-.146-.486-.426-.718-.56,2.483-1.364,3.373-3.909,3.665-6.844l1.181.134Z"/><path d="M43.615,51.794c-.012.109-.121.183-.279.207-.073,3.275-.341,6.259-2.217,8.438-.194-.146-.486-.329-.73-.463,1.814-1.973,2.033-5.017,2.07-8.292l1.156.109ZM46.769,58.808c2.033-.986,3.349-2.764,4.055-4.895.183.158.548.365.755.475-.864,2.46-2.374,4.273-4.968,5.504-.037.098-.122.194-.207.243l-.634-.804.135-.183v-8.938l1.132.061c-.012.11-.098.207-.268.231v8.305Z"/><path d="M57.216,49.895c-.036.098-.158.194-.377.207-.086.536-.195,1.169-.305,1.644,1.193-.073,2.521-.28,3.58-.597l.134.828c-1.133.28-2.472.475-3.872.585-.585,2.338-1.389,4.237-2.581,5.99l-.816-.328c1.108-1.596,1.948-3.422,2.472-5.638h-2.423v-.792h1.449c.377,0,.767-.012,1.12-.012.146-.646.256-1.34.341-2.059l1.278.171ZM60.456,55.083c.012.986.085,1.655.158,2.496.779.304,1.79.828,2.594,1.412l-.438.779c-.67-.512-1.498-.986-2.155-1.278,0,1.218-.487,2.167-2.277,2.167-1.352,0-2.386-.608-2.374-1.753,0-1.218,1.278-1.803,2.398-1.803.438,0,.89.086,1.376.22-.049-.779-.109-1.571-.109-2.144l.828-.097ZM59.786,58.126c-.499-.195-1.011-.28-1.449-.28-.73,0-1.595.292-1.606,1.047,0,.694.682,1.023,1.631,1.023.877,0,1.438-.427,1.438-1.23,0-.194,0-.377-.013-.56ZM63.123,53.828c-1.376.013-3.045.231-4.311.597l-.134-.767c1.388-.402,3.068-.657,4.396-.657l.049.827Z"/><path d="M74.812,54.352v4.055h-.816v-.621h-7.269c-.195,1.096-.646,2.24-1.559,3.129-.122-.17-.451-.45-.621-.572,1.327-1.278,1.521-3.044,1.521-4.347v-1.644h8.743ZM75.652,51.307h-4.932v1.303h4.359v.719h-9.29v-.719h4.103v-1.303h-4.846v-.718h4.846v-1.084l1.06.073c-.012.085-.073.146-.231.17v.841h4.932v.718ZM69.905,55.058h-3.02v.949c0,.329-.013.683-.049,1.06h3.068v-2.009ZM73.996,57.067v-2.009h-3.287v2.009h3.287Z"/><path d="M87.341,54.753c-.024.012-.049.024-.073.024-.073,0-.134-.036-.183-.073-.926.305-2.277.804-3.288,1.242.024.28.037.597.037.95,0,.389-.013.827-.037,1.303l-.889.049c.037-.438.062-.999.062-1.474,0-.183,0-.354-.013-.487-1.376.67-2.496,1.485-2.496,2.216,0,.707.84,1.048,2.521,1.048,1.182,0,2.277-.024,3.057-.122l.012.815c-.719.073-1.814.098-3.068.098-2.338,0-3.373-.56-3.373-1.802,0-1.071,1.413-2.106,3.239-3.02-.073-.768-.414-1.146-.901-1.146-.889,0-1.814.5-2.91,1.718-.341.377-.815.852-1.339,1.327l-.597-.597c1.217-1.072,2.362-2.095,3.068-4.493l-.682.012h-2.034v-.791c.743.012,1.607.012,2.106.012l.828-.012c.134-.561.244-1.084.329-1.741l1.193.146c-.024.122-.122.195-.305.22-.085.487-.194.913-.305,1.352.828-.013,2.606-.207,4.189-.706l.146.815c-1.521.475-3.36.646-4.566.682-.292.913-.597,1.645-.876,2.058h.012c.536-.475,1.34-.791,1.961-.791.827,0,1.352.597,1.51,1.583,1.022-.463,2.313-.962,3.287-1.34l.378.926Z"/><path d="M95.377,52.355c-.646.219-1.449.377-2.362.486,0,.768-.013,1.62-.013,2.326.95-.329,1.973-.561,2.752-.561,2.07,0,3.361,1.12,3.361,2.838,0,1.606-.986,2.861-2.861,2.861-.901,0-1.718-.316-2.375-1.169.146-.183.316-.427.438-.634.597.755,1.242.999,1.948.999,1.291,0,1.973-.926,1.973-2.058,0-1.182-.864-2.106-2.496-2.095-.779.012-1.79.231-2.74.584,0,.901.024,2.351.024,2.691,0,1.096-.718,1.937-1.911,1.937-1.12,0-2.058-.694-2.058-1.876,0-.779.56-1.655,1.521-2.338.438-.304.999-.621,1.619-.876v-2.569c-.974.085-1.947.098-2.922.085l-.012-.828c1.071.013,2.045,0,2.934-.073v-2.276l1.23.073c-.013.146-.134.23-.341.255-.024.476-.037,1.193-.049,1.876.815-.098,1.559-.269,2.191-.512l.146.853ZM92.211,58.577c0-.316-.013-1.314-.013-2.313-.45.207-.876.463-1.241.719-.634.45-1.108,1.132-1.108,1.668,0,.633.414,1.157,1.242,1.157.621,0,1.12-.427,1.12-1.218v-.013ZM99.091,53.803c-.621-.62-1.79-1.327-2.776-1.753l.426-.719c1.048.451,2.217,1.145,2.886,1.754l-.535.718Z"/><path d="M111.085,53.341h-8.28v.426c0,2.082-.183,5.065-1.461,7.074-.158-.134-.512-.341-.719-.426,1.242-1.937,1.352-4.676,1.352-6.648v-3.604h9.108v3.179ZM110.257,50.917h-7.452v1.669h7.452v-1.669ZM107.749,54.96h3.422v5.894h-.804v-.463h-5.93v.463h-.779v-5.894h3.3v-1.461l1.035.061c-.013.085-.086.146-.244.171v1.229ZM106.958,55.715h-2.521v1.57h2.521v-1.57ZM104.437,57.98v1.668h2.521v-1.668h-2.521ZM110.367,55.715h-2.618v1.57h2.618v-1.57ZM107.749,59.648h2.618v-1.668h-2.618v1.668Z"/><path d="M115.42,50.528c-.024.11-.134.195-.316.22-.354,1.534-.634,3.665-.634,5.028,0,.841.037,1.559.122,2.046.268-.548.864-1.704,1.242-2.411l.56.572c-.889,1.583-1.448,2.594-1.448,3.068,0,.146.036.305.097.5l-.852.17c-.317-.877-.561-2.216-.561-3.921,0-1.559.256-3.652.608-5.467l1.182.194ZM117.222,53.292c.975,0,2.411-.024,3.288-.086-.073-1.412-.158-3.093-.195-3.348l1.255.048c-.013.135-.135.244-.329.28.024.67.085,1.912.134,2.972.828-.073,1.717-.195,2.387-.378l.085.864c-.682.146-1.546.269-2.447.329,0,.073.013.268.013.986,0,2.63-.585,4.493-2.935,5.662-.098-.134-.451-.463-.658-.608,2.253-1.097,2.728-2.691,2.728-4.98l-.012-1.011c-.816.049-2.217.085-3.3.085l-.013-.815Z"/><path d="M126.306,59.173c0-.438.341-.791.755-.791s.755.353.755.791-.341.792-.755.792c-.438,0-.755-.378-.755-.792ZM126.671,57.213l-.183-6.673h1.169l-.183,6.673h-.804Z"/><path class="cls-3" d="M12.176,61.113c8.437,6.677,19.793,8.054,30.524,8.833,12.982.943,26,1.382,39.015,1.314,12.379-.064,25.556-.384,36.116,6.076-.186-2.407-.371-4.814-.557-7.22,7.071,2.541,15.776-3.273,16.135-10.778"/><rect x="215" y="148" width="130" height="24"/><path class="cls-1" d="M233.168,157.47c-.574.198-1.289.341-2.102.439,0,.691-.011,1.459-.011,2.095.845-.296,1.755-.504,2.448-.504,1.841,0,2.989,1.009,2.989,2.555,0,1.447-.878,2.577-2.545,2.577-.802,0-1.527-.285-2.111-1.052.13-.165.282-.384.39-.57.531.679,1.105.899,1.732.899,1.149,0,1.755-.834,1.755-1.853,0-1.064-.769-1.898-2.22-1.887-.693.011-1.592.209-2.437.527,0,.812.022,2.116.022,2.423,0,.987-.639,1.744-1.701,1.744-.996,0-1.83-.626-1.83-1.689,0-.702.498-1.492,1.354-2.106.39-.274.888-.559,1.44-.79v-2.313c-.866.076-1.732.087-2.599.076l-.011-.745c.953.011,1.82,0,2.61-.066v-2.05l1.094.065c-.011.132-.119.209-.303.231-.022.428-.032,1.075-.043,1.689.725-.088,1.386-.242,1.949-.46l.13.767ZM230.352,163.074c0-.285-.011-1.184-.011-2.084-.401.187-.779.417-1.105.647-.563.406-.985,1.02-.985,1.502,0,.571.368,1.042,1.105,1.042.552,0,.996-.384.996-1.097v-.011ZM236.47,158.774c-.552-.559-1.591-1.195-2.468-1.579l.378-.646c.932.405,1.972,1.03,2.567,1.579l-.477.646Z"/><path class="cls-1" d="M245.441,157.679l.542.329c-.032.044-.087.076-.141.088-.531.789-1.288,1.48-2.166,2.072,1.256.615,2.761,1.042,4.343,1.25-.163.164-.358.483-.466.691-.531-.087-1.039-.197-1.548-.329v3.322h-.747v-.372h-4.603v.384h-.704v-3.191c-.574.175-1.158.34-1.721.46-.065-.186-.228-.493-.358-.647,1.484-.285,3.087-.811,4.451-1.534-.607-.406-1.149-.867-1.592-1.393-.509.417-1.105.811-1.787,1.151-.108-.164-.325-.406-.498-.516,1.516-.702,2.598-1.7,3.161-2.566l.91.153c-.011.088-.087.132-.217.143-.13.175-.271.362-.433.548h3.433l.141-.044ZM239.128,156.746v1.283h-.704v-1.974h4.126v-1.129l.964.065c-.011.077-.075.132-.216.143v.922h4.19v1.974h-.737v-1.283h-7.623ZM245.701,161.703c-.975-.274-1.895-.646-2.718-1.097-.747.429-1.57.79-2.404,1.097h5.122ZM240.655,164.093h4.603v-1.754h-4.603v1.754ZM241.283,158.325l-.032.033c.444.548,1.05,1.031,1.743,1.448.704-.439,1.311-.932,1.776-1.481h-3.487Z"/><path class="cls-1" d="M251.132,158.062v.736c.314.417,1.148,1.689,1.343,2.007-.087.121-.174.242-.422.548-.174-.362-.585-1.097-.921-1.667v5.417h-.672v-5.406c-.379,1.283-.888,2.533-1.418,3.289-.087-.197-.26-.471-.379-.636.682-.932,1.375-2.731,1.711-4.288h-1.494v-.691h1.581v-2.445l.888.065c-.011.066-.075.121-.216.143v2.237h1.288v.691h-1.288ZM251.987,163.972c.704-.35,1.755-.942,2.772-1.513l.173.548c-.888.57-1.819,1.14-2.425,1.491,0,.088-.032.153-.098.198l-.422-.725ZM256.708,162.164v.011c.574.888,1.343,1.579,2.263,1.963-.162.143-.368.405-.476.592-1.083-.548-1.949-1.524-2.555-2.742v2.27c0,.823-.325.889-1.808.889-.033-.198-.119-.505-.217-.702.498.011.985.011,1.137.011.152-.011.185-.055.185-.198v-4.057h-2.816v-.637h2.816v-.976h-2.198v-.614h2.198v-.932h-2.545v-.636h1.365c-.108-.362-.346-.856-.574-1.239l.585-.198c.271.417.552.976.65,1.327l-.282.11h2.209l-.238-.088c.228-.384.531-.998.672-1.393l.834.285c-.032.054-.108.099-.228.099-.152.307-.412.756-.638,1.097h1.581v.636h-2.685v.932h2.393v.614h-2.393v.976h2.826v.637h-2.826v.35c.173.538.412,1.053.704,1.514.455-.417,1.083-1.086,1.418-1.546l.661.493c-.044.055-.13.077-.228.066-.358.395-.996.987-1.462,1.36l-.325-.274ZM253.915,162.404c-.217-.417-.693-1.052-1.126-1.514l.509-.329c.444.449.931,1.053,1.148,1.47l-.531.372Z"/><path class="cls-1" d="M265.246,156.932c-.044.099-.13.176-.271.176-.39,3.41-1.516,6.382-3.314,6.382-.91,0-1.733-.922-1.733-2.654,0-2.632,2.025-4.836,4.873-4.836,3.13,0,4.484,2.007,4.484,4.145,0,2.61-1.495,3.872-4.115,4.485-.098-.175-.282-.471-.455-.669,2.491-.482,3.768-1.711,3.768-3.783,0-1.809-1.148-3.454-3.682-3.454-.108,0-.227.011-.325.022l.769.186ZM264.206,156.79c-2.188.274-3.54,2.106-3.54,4.025,0,1.173.498,1.909,1.018,1.909,1.31,0,2.252-2.928,2.523-5.934Z"/><path class="cls-1" d="M279.436,159.268v3.652h-.725v-.559h-6.465c-.173.987-.574,2.017-1.386,2.818-.108-.153-.401-.406-.552-.516,1.18-1.151,1.354-2.741,1.354-3.915v-1.48h7.775ZM280.183,156.526h-4.385v1.174h3.877v.646h-8.262v-.646h3.649v-1.174h-4.31v-.646h4.31v-.976l.942.065c-.011.077-.065.132-.205.153v.757h4.385v.646ZM275.071,159.904h-2.685v.856c0,.296-.011.614-.043.953h2.728v-1.81ZM278.711,161.713v-1.81h-2.925v1.81h2.925Z"/><path class="cls-1" d="M282.332,164.51c-.336-.789-.466-2.423-.466-3.86,0-1.459.228-3.29.585-5.122l1.051.209c-.022.11-.13.186-.282.197-.39,1.503-.628,3.455-.628,4.727,0,.834.012,1.667.098,2.073.238-.658.672-1.712.899-2.226l.487.46c-.357.745-1.115,2.412-1.115,2.928,0,.153.032.318.108.527l-.736.087ZM285.082,158.051c.91.011,1.82.022,2.729-.044-.043-.943-.075-1.755-.098-2.566l1.094.033c-.011.11-.108.197-.282.231.011.702.032,1.415.055,2.248.855-.088,1.548-.242,2.122-.44l.098.768c-.52.164-1.267.318-2.188.395.043,1.217.098,2.501.13,3.202.823.34,1.646.877,2.209,1.392l-.422.702c-.445-.449-1.083-.932-1.755-1.249-.011.932-.184,1.974-1.808,1.974-1.267,0-2.111-.615-2.111-1.58,0-1.119,1.115-1.612,2.111-1.612.335,0,.693.044,1.028.143-.032-.691-.097-1.842-.152-2.917-.335.022-.79.033-1.105.033h-1.646l-.011-.713ZM288.049,162.361c-.347-.11-.715-.197-1.072-.197-.661,0-1.451.241-1.451.932,0,.615.649.922,1.44.922.802,0,1.094-.395,1.094-1.272l-.011-.384Z"/><path class="cls-1" d="M299.965,163.995c-.953.175-2.209.251-3.292.251-.909,0-1.7-.054-2.122-.143-1.31-.296-1.873-1.129-1.873-2.095,0-.844.465-1.689,1.104-2.346l.628.329c-.606.637-.953,1.338-.953,1.952,0,.637.422,1.218,1.354,1.425.379.088,1.018.132,1.765.132,1.05,0,2.306-.088,3.335-.296l.054.79ZM295.103,158.457c.563-.439,1.332-.976,1.917-1.272v-.011c-.823.099-2.708.143-3.909.132,0-.209,0-.57-.011-.768.238.012,4.396.077,6.172-.35l.087.812c-1.289.153-2.946,1.294-3.639,1.853l-.617-.395Z"/><path class="cls-1" d="M309.218,157.152c-1.409.361-3.368.592-4.657.636-.141,1.371-.335,2.501-.509,2.906.845-.691,2.155-1.162,3.076-1.162,1.613,0,2.598.877,2.598,2.358,0,2.182-2.176,2.916-5.696,3.004-.043-.208-.119-.538-.216-.724,3.107-.066,5.122-.603,5.122-2.259,0-.987-.65-1.667-1.906-1.667-.964,0-2.621.592-3.335,1.678l-.758-.362c.347-.395.704-1.963.867-3.762h-2.535v-.767c.455.011,1.787.011,2.599.011.043-.625.065-1.326.065-1.985l1.149.11c-.022.186-.152.219-.347.241-.022.548-.054,1.108-.097,1.623,1.148-.033,3.14-.285,4.44-.669l.141.79Z"/><path class="cls-1" d="M313.347,157.295c-.043.11-.13.164-.282.186-.087,1.623-.292,3.005-.444,3.235h.011c1.062-.8,2.718-1.348,3.985-1.348,1.668,0,2.707.866,2.685,2.402-.032,2.017-1.678,2.917-5.869,3.092-.055-.209-.152-.516-.271-.724,3.779-.165,5.295-.79,5.327-2.358.011-1.053-.715-1.689-1.981-1.689-2.004,0-3.812,1.217-4.115,1.754l-.736-.361c.216-.209.595-2.172.617-4.321l1.072.132ZM313.531,155.167c1.473.175,3.141.515,4.202.965l-.271.756c-1.115-.482-2.729-.801-4.158-.998l.227-.724Z"/><polyline class="cls-4" points="327.462 154.514 332.879 160 327.462 165.486"/></g></svg>