<svg id="レイヤー_1" data-name="レイヤー 1" xmlns="http://www.w3.org/2000/svg" viewBox="0 0 772.98 185.59"><defs><style>.cls-1,.cls-2{fill:#fff;}.cls-1{stroke:#fff;stroke-linecap:round;stroke-linejoin:round;stroke-width:0.508px;}</style></defs><path class="cls-1" d="M47.12,132.018a1.975,1.975,0,0,1-2.2,1.691,55.53,55.53,0,0,0-10.518.151c-1.254.082-3.6.417-6.3.751-.778,3.643-1.255,7.879-1.762,12.454,2.845,2.971,3.587,8.481,2.94,12.632-.5,3.559-2.562,8.555-4.988,12.7-1.053,1.778-4.679,7.364-5.225,8.465a15.605,15.605,0,0,0-1.122,2.54,1.965,1.965,0,0,1-2.365,1.522c-1.3-.342-1.323-1.1-1.134-2.206a11.579,11.579,0,0,1,1.711-3.132c.627-1.016,4.559-7.026,5.5-8.55,2.1-3.47,4.343-8.551,4.792-11.516A16.082,16.082,0,0,0,25.9,151.9a31.368,31.368,0,0,1-2.675,8.809c-1.4,2.624-2.717,4.4-4.853,4.4-1.513,0-2.635-1.361-3.215-2.8a16.479,16.479,0,0,1-.108-8.559c.836-3.3,2.81-7.368,6.018-8.379a4.935,4.935,0,0,1,2.492,0l.077-.847c.264-2.881.759-6.354,1.313-9.489-4.69.67-9.744,1.424-12.008,1.843-1.722.336-7.616,1.512-8.618,1.764a12.231,12.231,0,0,0-1.835.59,1.518,1.518,0,0,1-2.148-.851,1.6,1.6,0,0,1,1.077-2.032c2.948-1.1,14.957-2.939,24.151-4.194l.144-.593a25.688,25.688,0,0,1,2.658-6.69,1.9,1.9,0,0,1,2.643-.673,1.639,1.639,0,0,1,.2,2.627,6.891,6.891,0,0,0-1.462,2.37,22.942,22.942,0,0,0-.856,2.541l5.4-.583c6.826-.666,8.978-.832,10.4-.829C46.029,130.321,47.259,130.493,47.12,132.018ZM23.389,148.162a2.538,2.538,0,0,0-1.3-.426c-1.958,0-3.634,3.722-4.408,6.348a16.009,16.009,0,0,0-.356,5.846c.174,1.018.731,2.713,1.459,2.545,1.729-.42,3.722-7.62,4.354-11.6Z"/><path class="cls-1" d="M69.465,161.21a27.807,27.807,0,0,1,11.661-15.573c3.4-2.112,6.927-3.716,9.906-1.253,5.3,4.331,7.4,11.538,13.017,15.362,1.006.679,2.949.852,3.472,1.955a1.931,1.931,0,0,1-1.924,2.539c-2.121-.173-5.077-2.89-7.321-5.606-1.366-1.613-6-8.316-7.217-9.674-.886-1.018-2.31-2.97-3.92-2.888-3.308.163-8.645,4.984-11.525,9.216a24.552,24.552,0,0,0-3.173,7.452,1.849,1.849,0,0,1-2.349,1.352C69.314,163.836,68.842,163.158,69.465,161.21Zm40.178-28.572c-.171,1.864-.651,3.219.394,5.424.743,1.611,1.718,2.63,3.32,2.633a1.813,1.813,0,0,1,2,1.444,1.858,1.858,0,0,1-1.787,2.031c-2.4,0-4.091-1.024-5.67-3.231s-2-5.342-1.74-8.223l.007-.085a2.017,2.017,0,0,1,1.936-1.691A1.5,1.5,0,0,1,109.643,132.638Zm7.194-5.665a8.065,8.065,0,0,0,1.521,5.765c1.358,1.7,3.168,3.311,4.592,3.313A1.554,1.554,0,0,1,124.375,138c-.206,1.271-1.506,1.861-3.491,1.18-3.1-1.107-5.855-5.095-6.838-7.978a8.967,8.967,0,0,1-.808-3.815,2.112,2.112,0,0,1,1.691-1.946A1.549,1.549,0,0,1,116.837,126.973Z"/><path class="cls-1" d="M145,136.345a40.734,40.734,0,0,1,16.643,3.927c3.908,2.041,7.5,4.675,4.083,8.906-2.714,3.385-6.406,6.768-9.61,10.66-1.3,1.608-2.326,3.047-2.384,4.657-.054,2.542,2.225,3.9,4.493,4.415a24.877,24.877,0,0,0,9.024.609c1.172-.167,2.62-.419,2.941.937a1.931,1.931,0,0,1-1.722,2.285,43.655,43.655,0,0,1-7.38-.1c-6.1-.435-11.23-3.749-10.335-8.663.688-3.642,4.709-7.7,9.171-12.695,1.289-1.438,2.918-2.707,3.77-4.23.53-.932.5-1.61-1.014-2.545a31.6,31.6,0,0,0-14.163-4.77c-.793-.087-1.853-.173-2.655-.175-1.157,0-2.329.166-2.658-1.106A1.768,1.768,0,0,1,145,136.345Z"/><path class="cls-1" d="M233.843,162.6c-.681,1.609-3.219,6.011-4.179,6.772a1.759,1.759,0,0,1-2.624-.513c-.383-.679.348-1.864,1.138-2.71,3.85-4.146,5.9-11.006,3.584-15.841a8.28,8.28,0,0,0-6.815-4.334c-.247.762-.584,1.525-.832,2.287-3.552,9.654-5.415,15.413-9.2,14.983-4.144-.431-3.9-6.956-3.269-10.006.96-4.659,4.083-8.636,9.168-9.729a17.884,17.884,0,0,1,2.078-.335c.449-1.016.9-2.032,1.436-3.048a2.251,2.251,0,0,1,2.438-1.352,1.661,1.661,0,0,1,.723,2.8l-1.223,1.693a10.744,10.744,0,0,1,7.2,4C236.63,151.592,235.9,157.692,233.843,162.6Zm-12.73-14.6.711-1.948a10.593,10.593,0,0,0-2.294.759c-2.972,1.351-4.594,4.483-5.035,7.364-.252,1.779-.627,4.914.947,6.188C216.108,160.877,219.1,153.51,221.113,148.005Z"/><path class="cls-1" d="M285.455,124.815a4.928,4.928,0,0,1-1.892.251c-1.173.167-2.337.25-3.429.5a40.16,40.16,0,0,0-10.235,3.88c-2.253,1.268-2.361,2.454-3.735,2.875-.089,0-.089,0-.185.084.328,5.17,1.4,10.935,3.021,14.667a9.478,9.478,0,0,0,1.377,2.46c.724.848,1.06,2.035.019,2.711a2.076,2.076,0,0,1-2.484-.089c-1.16-.934-1.548-2.545-1.958-3.9-1.772-5.936-4.05-18.99-3.284-23.48.387-2.288,3.94-2.2,3.552.091a27.639,27.639,0,0,0-.348,3.813c3.757-3.129,10.39-5.575,16.01-6.667a9.261,9.261,0,0,1,3.413-.333A1.678,1.678,0,0,1,285.455,124.815Z"/><path class="cls-2" d="M314.778,154.613a3.386,3.386,0,0,1,.309.509q.471.679.789,1.1,1.579,2.207,2.377,3.224a9.488,9.488,0,0,1,.878,1.1,17.809,17.809,0,0,0,2.6,2.717l.082.085a2.738,2.738,0,0,1,1.318.171,1.61,1.61,0,0,1,.96,1.189,2.212,2.212,0,0,1-.235,1.609,3,3,0,0,1-1.719,1.268,2.865,2.865,0,0,1-1.692,0,9.075,9.075,0,0,1-1.768-1.1,25.369,25.369,0,0,1-3.087-3.226,5.556,5.556,0,0,1-.44-.552,6.223,6.223,0,0,0-.52-.636q-1.034-1.358-2.458-3.31a1.2,1.2,0,0,0-.234-.339q-.16.762-.363,2.5t-.281,2.584a14.513,14.513,0,0,1-.235,1.61q-1.065,8.727-1.329,11.608a2.054,2.054,0,0,1-.8,1.439,2.466,2.466,0,0,1-1.611.59,1.932,1.932,0,0,1-1.459-.6,1.753,1.753,0,0,1-.491-1.441q.262-2.88,1.336-11.692a4.8,4.8,0,0,0,.173-.932q-.707.931-1.512,1.946-3.018,3.808-4.6,5.5a26.8,26.8,0,0,1-5.581,4.566q-1.89,1.185-2.972-.6a1.876,1.876,0,0,1-.128-1.526,2.438,2.438,0,0,1,1.014-1.354q3.575-2.11,8.817-8.8,4.761-6.348,4.963-6.6a2.841,2.841,0,0,1,.872-.762,3.037,3.037,0,0,1,.166-.847,2.963,2.963,0,0,1-.639.169,4.032,4.032,0,0,1-.631.083q-8.032,2.19-12.815,3.876-.552.169-1.653.547t-1.652.548a1.892,1.892,0,0,1-2.748-1.106,1.836,1.836,0,0,1,.192-1.61,2.671,2.671,0,0,1,1.3-1.1q1.844-.675,3.4-1.181,5.607-1.938,13.181-3.959c.3-.055.726-.154,1.273-.294s.94-.238,1.184-.3q.114-2.2.29-6.1a85.1,85.1,0,0,0-10.216,4.643,2.417,2.417,0,0,1-1.71.209,1.884,1.884,0,0,1-1.329-2.5,2.21,2.21,0,0,1,1.14-1.269q3.188-1.773,6.621-3.293a3.529,3.529,0,0,1-.523-1.1,17.191,17.191,0,0,1-.433-5q.186-2.034.415-3.559l.07-.762a57.341,57.341,0,0,0-6.482,1.768,1.962,1.962,0,0,1-1.643-.046,1.718,1.718,0,0,1-1.008-1.145q-.624-1.95,1.494-2.709a91.347,91.347,0,0,1,13.281-3.112q.728-.168,2.894-.5,5.613-1.007,6.792-1.259a47.641,47.641,0,0,0,6.653-1.683,2.279,2.279,0,0,1,1.678.13,1.731,1.731,0,0,1,.956,1.231q.541,1.866-1.574,2.624c-.127.057-.689.225-1.693.506s-1.812.477-2.414.588a2.4,2.4,0,0,1,.02.763c-.173.565-.336,1.073-.5,1.525a3.928,3.928,0,0,1-.158.762,52.182,52.182,0,0,1-2.319,6.86q.446,0,1.205-.04c.507-.027.879-.041,1.117-.04a2.051,2.051,0,0,1,1.548.6,1.865,1.865,0,0,1,.484,1.527,2.057,2.057,0,0,1-.8,1.439,2.471,2.471,0,0,1-1.611.59,31.109,31.109,0,0,0-7.659,1,48.7,48.7,0,0,1-.216,6.27q.636-.168,6.368-1.514,3.274-.756,3.364-.757a1.88,1.88,0,0,1,2.531,1.53A2.144,2.144,0,0,1,323.116,152q-.087,0-3.362.757-4,.927-5.634,1.261A2.292,2.292,0,0,1,314.778,154.613Zm-.4-15.17a1.91,1.91,0,0,1,.052-1.526,38.9,38.9,0,0,0,2.294-6.6,2.218,2.218,0,0,1,.087-.466,1.834,1.834,0,0,0,.072-.3,2.371,2.371,0,0,1,.076-.339,2.627,2.627,0,0,0,.076-.338q-1.367.336-5.435,1.007-2.166.336-2.894.5c-.721.113-1.235.2-1.537.252,0,.057-.037.254-.1.593s-.115.762-.161,1.271q-.224,1.442-.392,3.3a13.212,13.212,0,0,0,.3,3.56c.184.565.424.877.715.933a1.154,1.154,0,0,0,.321-.084,1.079,1.079,0,0,0,.326-.169A49.91,49.91,0,0,1,314.383,139.443Zm-5.045-14.924q-.488-2.457-.931-4.408a4.881,4.881,0,0,0-.249-1.187c.041-.452,0-.678-.116-.678a18.5,18.5,0,0,0-.7-2.035,1.709,1.709,0,0,1,.011-1.568,2.613,2.613,0,0,1,1.225-1.227,2.024,2.024,0,0,1,1.659-.124,2.076,2.076,0,0,1,1.192,1.062,20.035,20.035,0,0,1,.983,2.883l.058.339a1.391,1.391,0,0,1,.06.339c.075.453.131.82.164,1.1q.39,1.611.941,4.323a2.1,2.1,0,0,1-.28,1.61,2.274,2.274,0,0,1-1.384,1.014,2.135,2.135,0,0,1-1.675-.172A1.857,1.857,0,0,1,309.338,124.519Zm43.93-5.345q-.678.593-3.557,2.875-1.25,1.014-4.419,3.551-2.985,2.454-3.958,3.383a29.61,29.61,0,0,0-3.86,4.23,8.594,8.594,0,0,1,.077,1.1q.018.762.072,1.186a169.423,169.423,0,0,1,19.449-4.372c.361-.055.886-.139,1.58-.251s1.219-.195,1.581-.252a5.188,5.188,0,0,0,1.083-.167.406.406,0,0,0,.275-.084,8.936,8.936,0,0,1,2.3-.844,3.486,3.486,0,0,1,1.774.088,2.109,2.109,0,0,1,1.392,2.291,1.942,1.942,0,0,1-.852,1.524,3.4,3.4,0,0,1-1.121.591.682.682,0,0,1-.324.126,1.931,1.931,0,0,1-.315.042,9.356,9.356,0,0,0-1.626.251h-.356a4.946,4.946,0,0,0-.517.3,4.418,4.418,0,0,1-.515.295.575.575,0,0,1-.371.169l-.1.085-.1.084a1.913,1.913,0,0,1-2.646-.259,3.048,3.048,0,0,0-.449.042,2.79,2.79,0,0,1-.36.042q-1.089.252-3.257.587a81.813,81.813,0,0,1,1.352,10.511q.291,3.645.283,11.525.01.847,0,1.992c-.011.762,0,1.313.026,1.652a121.814,121.814,0,0,0,.635,12.543,2.089,2.089,0,0,1-.455,1.567,2.316,2.316,0,0,1-1.461.887,2.129,2.129,0,0,1-1.619-.3,1.749,1.749,0,0,1-.816-1.315,125.334,125.334,0,0,1-.684-12.967q-.026-.678-.022-3.644-.015-7.628-.209-11.356a71.5,71.5,0,0,0-1.385-10.172q-4.535.925-11.751,2.945h-.178a82.212,82.212,0,0,1-7.034,35.071,2.216,2.216,0,0,1-2.884,1.351,1.768,1.768,0,0,1-1.184-2.629,78.332,78.332,0,0,0,5.97-20.031,81.56,81.56,0,0,0,.206-21.228,1.959,1.959,0,0,1,.45-1.525,2.373,2.373,0,0,1,1.458-.845,34.329,34.329,0,0,1,3.536-3.637q1.179-1.183,4.161-3.637.669-.507,2.06-1.606t2.545-2.029q2.775-2.114,3.363-2.706a2.305,2.305,0,0,1,1.568-.591,1.941,1.941,0,0,1,1.458.6,1.658,1.658,0,0,1,.581,1.442A2.29,2.29,0,0,1,353.268,119.174Z"/><path class="cls-1" d="M384.151,152.363a10.781,10.781,0,0,1,6.078,4.587,3.159,3.159,0,0,1,.441,2.967,2.175,2.175,0,0,1-2.924.842c-.926-.595-.737-1.7-1.283-2.544a6.044,6.044,0,0,0-2.979-2.463c-1.036-.341-2.243-.767-1.764-2.122A1.974,1.974,0,0,1,384.151,152.363Z"/><path class="cls-1" d="M446.619,155.525c-1.154,4.828-9.04,9.306-13.963,8.619-3.343-.43-4.736-2.72-4.99-5.771l-1.916,2.454a97.765,97.765,0,0,0-5.818,8.125,7.917,7.917,0,0,0-1.033,2.54,2.022,2.022,0,0,1-1.691,1.946c-.987.083-1.927-.342-1.781-1.952s2.795-5.249,3.914-6.772c1.834-2.539,6.939-8.717,8.548-10.748l.4-.507a27.25,27.25,0,0,1,1.319-3.727,9.574,9.574,0,0,0-1.9,1.268,2.089,2.089,0,0,1-2.619.419c-1.007-.68-.7-2.035.345-2.8a16.414,16.414,0,0,1,6.024-2.616c.105-.17.113-.254.209-.339A19.244,19.244,0,0,1,436.465,140c1.719-1.268,4.455-1.009,4.324.431-.109,1.187-1.356,3.133-2.273,4.4a3.868,3.868,0,0,0-.514.762,16.333,16.333,0,0,1,4.617,1.11C445.95,148.236,447.637,151.205,446.619,155.525Zm-3.083-4.243c-1.336-1.951-4.269-2.973-7.384-2.979h-.268c-.6.677-1.094,1.269-1.6,1.946-1.706,2.116-3.011,3.723-4.026,5.077a7.533,7.533,0,0,0,0,2.882c.38,1.695,1.479,3.307,3.065,3.48,3.351.345,8.51-2.527,10.027-5.491C444.219,154.5,444.244,152.3,443.536,151.282ZM474,166.675a1.8,1.8,0,0,1-2.311-1.021c-1.18-3.646-2.874-10.428-5.157-14.67-.839-1.527-3.532-7.124-4.469-8.567a12.325,12.325,0,0,0-3.634-4.074,1.66,1.66,0,0,1-.5-2.374,2.041,2.041,0,0,1,2.643-.673,9.2,9.2,0,0,1,1.912,2.461c1.018,1.527,5.166,8.738,6.748,11.876a95.173,95.173,0,0,1,6.129,14.757A1.943,1.943,0,0,1,474,166.675Z"/><path class="cls-1" d="M522.768,148.288a35.019,35.019,0,0,0-4.075.755,1.3,1.3,0,0,0,.487.51,1.748,1.748,0,0,1,.175,2.966,1.991,1.991,0,0,1-2.64-.344,6.994,6.994,0,0,1-1.69-1.952,30.771,30.771,0,0,0-4.749,2.28c-.848.507-2.864,2.113-2.423,3.131s2.051.936,3.4.769c1.982-.251,3.874-.5,5.774-.837,1.722-.336,3.467-.926,5.182-1.178a11.778,11.778,0,0,1,3.413-.332c.963.171,1.539.68,1.544,1.612,0,1.95-2.125,2.793-3.817,4.739-2.094,2.454-3.854,5.163-3.332,8.214.406,2.374,1.842,5.173,4.458,5.771,1.482.342,3.011.175,2.96,1.7a1.977,1.977,0,0,1-2.128,1.861c-3.293-.006-5.894-2.723-7.182-5.182a10.865,10.865,0,0,1-.5-9.154c1.137-2.709,2.329-4.063,4.755-6.262-2.531.419-5.433,1.007-7.875,1.426-2.984.5-7.673,1.173-9.369-1.711-1.621-2.715,1.863-5.759,4.235-7.365a23.172,23.172,0,0,1,4.11-2.112c-.089,0-.082-.084-.163-.169-2.67-3.9-6.381-11.028-7.163-12.216s-.851-2.374.279-3.05a1.7,1.7,0,0,1,2.43.682c1.281,2.544,4.477,8.482,5.642,10.349.465.763,1.32,2.121,2.183,3.393a50.389,50.389,0,0,1,9.047-1.594c1.075-.083,2.774-.164,3.7.431a1.613,1.613,0,0,1,.614,2.034,2.267,2.267,0,0,1-2.244,1.183C526.208,148.633,525.194,148.038,522.768,148.288Zm23.858-8.771c-.2,1.186-2.017,1.607-3.208,1.011-2.554-1.275-4.71-3.991-4.423-7.126a14.191,14.191,0,0,1,.755-3.388,2.226,2.226,0,0,1,2.511-1.182c.867.255,1.753,1.274.723,2.8a4.25,4.25,0,0,0-.584,3.474,3.858,3.858,0,0,0,2.891,2.463A1.577,1.577,0,0,1,546.626,139.517Zm8.838-3.2c-3.32-.684-6.66-4.08-8.11-6.71-.611-1.1-1.571-2.291-1.536-3.646a2.19,2.19,0,0,1,1.439-2.116,1.552,1.552,0,0,1,2.117,1.19,8.322,8.322,0,0,0,2.441,5.428c1.642,1.528,3.766,2.633,5.2,2.551a1.708,1.708,0,0,1,1.805,1.7C558.878,135.98,557.562,136.74,555.464,136.313Z"/><path class="cls-1" d="M596.123,144.351c-1.548,1.353-9.122,5.322-11.286,6.59a69.2,69.2,0,0,1-9.883,4.9,168.764,168.764,0,0,0,21.357,8.852,29.2,29.2,0,0,0,4.179,1.024c1.053.171,2.156.767,1.966,1.868-.349,1.864-2.025,1.691-4.2,1.179a60.157,60.157,0,0,1-7.584-2.726c-4.994-1.873-9.777-4.085-14.656-6.212-3-1.276-4.945-2.382-5.564-3.4a1.732,1.732,0,0,1-.016-1.779,1.432,1.432,0,0,1,1.672-.76c.956.256,2.183-.5,6.857-2.954a160.8,160.8,0,0,0,14.423-8.787c1.331-.93,2.609-1.267,3.258-.588Q597.865,142.829,596.123,144.351Z"/><path class="cls-1" d="M638.485,181.459c-2.438,1.352-7.619,2.529-11.687,3.2-2.709.419-4.016,1.094-5.282.329-1.434-.85-.41-3.306,1.356-3.133,3.707.346,10.366-1.422,13.443-2.942.557-.253.952-.676,1.412-.845-.2-6.61.277-21.524,1.329-25.251a3.92,3.92,0,0,1,1.278-2.286,1.663,1.663,0,0,1,2.483,2.038c-1.2,2.371-1.354,5.083-1.675,7.624a84.328,84.328,0,0,0-.477,15.931c.1.848.1,2.8.418,3.221C642.108,180.788,639.817,182.478,638.485,181.459Z"/><path class="cls-1" d="M701.3,175.978c.677,1.357-1.222,3.642-2.377,4.572-3.072,2.452-6.493.92-8.525-1.2-6.013-6.281-5.838-16.959-4.03-27.972,1.034-6.439,5.091-21.6,7.606-23.8a1.91,1.91,0,0,1,2.426-.25,1.664,1.664,0,0,1,.317,2.374c-4.187,6.856-7.717,20.155-8.229,29.645-.263,4.83-.193,9.915,1.718,14.325,1.4,3.223,5.068,6.873,7.177,4.25.605-.762.617-1.863,1.463-2.37A1.654,1.654,0,0,1,701.3,175.978Zm30.549-22.572a6.008,6.008,0,0,1-2.054,2.03,31.025,31.025,0,0,1-8.48,4.137c-1.374.422-2.925.842-4.206.247a1.681,1.681,0,0,1-.44-2.967,1.139,1.139,0,0,1,1.009-.337c.891,0,1.734-1.438,2.248-2.2,1.239-1.862,2.482-4.742,1.688-6.777-.572-1.526-2.9-1.446-4.365-.94a10.587,10.587,0,0,0-4.059,2.535c-.887.931-2.268,1.437-3.023.927-.924-.595-.978-1.951.271-2.965a23.261,23.261,0,0,1,4.713-2.873,8.938,8.938,0,0,1,5.062-.839c6.5,1.029,5.042,8.145,2.163,12.377l-.411.592c.089,0,.186-.084.275-.084a18.233,18.233,0,0,0,4.386-2.2,6.37,6.37,0,0,0,1.554-1.438c.4-.507.539-1.016,1.282-1.353a1.859,1.859,0,0,1,1.772.088A1.556,1.556,0,0,1,731.848,153.406Z"/><path class="cls-1" d="M771.306,174.577c-2.07,4.149-5.837,7.362-8.959,9.391-1.985,1.267-2.988,1.52-3.606.5-.538-.933-.178-1.95,1.509-2.879a8.34,8.34,0,0,0,1.13-.676c-3.371-1.107-6.478-3.147-6.664-6.961a10.773,10.773,0,0,1,3.375-7.705c2.845-2.876,7.814-4.647,11.486-2.946C773.76,165.26,773.16,170.852,771.306,174.577Zm-1.459-6.443c-.866-4.154-6.7-2.639-9.395-.44-2.508,2.114-4.125,6.179-1.583,8.556a7.407,7.407,0,0,0,2.894,1.446c1.037.34,2.113.258,3.239.6C767.838,175.5,770.583,171.779,769.847,168.134Z"/><path class="cls-1" d="M137.694,50.074a34.113,34.113,0,0,0,4.044,1.532,34.643,34.643,0,0,0,11.114,1.122c2.879-.334,3.889-.671,4.373.855.278.848-.534,1.948-2.071,2.2-3.251.5-9.573-.441-14.4-1.212-.526-.086-4.179-1.025-4.7-1.2a1.732,1.732,0,0,1-1.32-2.121A2.117,2.117,0,0,1,137.694,50.074Zm6.786-30.411a21.451,21.451,0,0,1,2,1.444,44.958,44.958,0,0,1,7.643,6.963,6.379,6.379,0,0,1,1.532,4.663,1.986,1.986,0,0,1-1.951,1.861,1.591,1.591,0,0,1-1.714-1.7c.341-3.728-5.262-8.653-9.225-10.1a1.6,1.6,0,0,1-.77-2.289A2.014,2.014,0,0,1,144.48,19.663Z"/><path class="cls-1" d="M242.514,39.837c-1.521,3.98-11,8.37-15.959,9.039-3.607.5-5.836-.434-6.025-3.231-.069-1.187.7-6.694.728-7.965.054-2.542-.364-3.814-4.265-2.041a81.722,81.722,0,0,0-9.427,5.746c-.854.591-1.807,1.268-2.67,1.944a57.037,57.037,0,0,0,.87,12.883c.905,3.73,2.414,6.7,4.992,7.72a1.609,1.609,0,0,1,.867,2.2,1.906,1.906,0,0,1-2.489.928c-5.9-2.638-7.607-12.217-7.475-21.454l-4.775,3.551c-3.437,2.536-5.368,3.211-6.707,2.276-1.591-1.1-1.215-4.239.314-8.3,1.649-4.4,3.1-6.689,3.889-10.417a9.206,9.206,0,0,0,.2-2.2c-1.51.93-5.1,4.144-7.45,4.563-1.083.168-2.047,0-2.139-.936s.6-1.693,1.787-2.03c2.74-.758,4.981-2.873,6.393-3.718a4.032,4.032,0,0,1,2.837-.842c2.972.6,1.258,6.7-.538,10.761-1.692,3.9-3.615,8.384-3.209,10.757,1.42-.929,5.816-4.227,9.535-6.932l.357-3.9c.836-7.2,4.513-24.06,8.066-29.816a2.143,2.143,0,0,1,2.489-.928,1.575,1.575,0,0,1,.77,2.29c-.651,1.27-1.352,2.116-2,3.386-3.146,6.181-5.4,17.193-6.3,25.158l-.131,1.44c.282-.169.572-.423.855-.592a71.013,71.013,0,0,1,10.178-6.168c1.864-.929,4.33-1.6,6.025-.667,2.457,1.36,2.016,4.241,1.365,11.358-.124,1.356-.039,2.373,1.741,2.376,4,.007,13.262-3.875,14.2-7.347a1.849,1.849,0,0,1,2.163-1.268C242.715,37.634,242.867,38.905,242.514,39.837Z"/><path class="cls-1" d="M293.374,39.5c-1.154,4.828-9.04,9.305-13.963,8.619-3.344-.43-4.737-2.721-4.992-5.772L272.5,44.805a98.061,98.061,0,0,0-5.817,8.125,7.888,7.888,0,0,0-1.033,2.541,2.024,2.024,0,0,1-1.692,1.946c-.986.083-1.927-.343-1.779-1.952s2.794-5.25,3.912-6.773c1.834-2.539,6.939-8.716,8.549-10.747l.4-.508a27.786,27.786,0,0,1,1.32-3.726,9.567,9.567,0,0,0-1.9,1.268,2.091,2.091,0,0,1-2.62.419c-1.006-.68-.7-2.035.345-2.8a16.4,16.4,0,0,1,6.025-2.617c.1-.169.112-.254.209-.338a19.217,19.217,0,0,1,4.791-5.67c1.719-1.268,4.454-1.009,4.323.432-.109,1.186-1.355,3.133-2.272,4.4a3.831,3.831,0,0,0-.515.762,16.316,16.316,0,0,1,4.617,1.11C292.7,32.214,294.391,35.183,293.374,39.5Zm-3.084-4.243c-1.335-1.952-4.269-2.974-7.384-2.979h-.267c-.6.677-1.1,1.269-1.6,1.947-1.707,2.115-3.011,3.723-4.025,5.077a7.488,7.488,0,0,0,0,2.881c.379,1.7,1.478,3.308,3.065,3.48,3.351.345,8.509-2.527,10.026-5.49C290.975,38.482,291,36.279,290.29,35.261Zm30.462,15.393a1.8,1.8,0,0,1-2.311-1.021c-1.18-3.646-2.875-10.429-5.157-14.67-.84-1.527-3.533-7.125-4.469-8.567a12.358,12.358,0,0,0-3.634-4.074,1.657,1.657,0,0,1-.5-2.374,2.04,2.04,0,0,1,2.643-.673,9.206,9.206,0,0,1,1.912,2.461c1.017,1.527,5.165,8.737,6.748,11.876a95.4,95.4,0,0,1,6.129,14.756A1.944,1.944,0,0,1,320.752,50.654Z"/><path class="cls-1" d="M350.943,22.234a14.875,14.875,0,0,0-2.248,2.2c-2.415,3.046-4.087,9.653-3.712,12.366.368,2.8,1.018,3.476,3.727,3.057,3.97-.586,7.968-2.443,11.133-.065a6.8,6.8,0,0,1,3.057,5.514c.05,2.373-.422,3.643-2.326,6.945a59.492,59.492,0,0,1-9.865,11.508c-.58.507-1.072,1.015-1.563,1.522a1.865,1.865,0,0,1-2.492,0,1.6,1.6,0,0,1,.217-2.373c1.354-1.184,4.249-3.636,6.126-5.667,4.155-4.568,7.608-9.223,6.776-12.784a3.819,3.819,0,0,0-1.831-2.376c-4.663-2.551-9.612,1.932-12.75.232a5.931,5.931,0,0,1-2.674-2.886,16.031,16.031,0,0,1-.328-5.17,23.957,23.957,0,0,1,3.8-11.349,22.723,22.723,0,0,1,3.269-3.638,1.876,1.876,0,0,1,2.574.089C352.554,20.2,351.807,21.557,350.943,22.234Zm13.073-8.621c1.3,3.307,2.99,13.056,2.657,16.7a1.992,1.992,0,0,1-2.105,1.607,1.582,1.582,0,0,1-1.52-1.867c.681-3.558.023-8.051-.994-11.527a11.237,11.237,0,0,0-1.471-3.393,1.686,1.686,0,0,1,.411-2.541A1.894,1.894,0,0,1,364.016,13.613Z"/><path class="cls-2" d="M423.42,15.244a21.524,21.524,0,0,1,4.094,1.957,33.426,33.426,0,0,1,3.165,2.378,7.618,7.618,0,0,1,1.242,1.019,6.375,6.375,0,0,0,.618.552,6.365,6.365,0,0,1,.536.467q.672.427,1.842,1.275a1.933,1.933,0,0,1,.766,1.357,2.052,2.052,0,0,1-.407,1.525,2.557,2.557,0,0,1-1.5.844,2.112,2.112,0,0,1-1.578-.257q-.756-.51-2.087-1.529a1.407,1.407,0,0,1-.373-.3,5.3,5.3,0,0,0-.41-.382c-.139-.113-.291-.226-.458-.34-.055-.056-.262-.225-.622-.509s-.568-.453-.62-.51a2.543,2.543,0,0,0-.248-.212,2.056,2.056,0,0,1-.249-.213,2.186,2.186,0,0,1-2.058,1.1,23.613,23.613,0,0,0-4.446.925q-5.212,1.515-7.136,2.106a.288.288,0,0,0-.186.084q-1.827.505-3.842,1.137t-2.656.8a43.242,43.242,0,0,1-5.359,1.176,5.414,5.414,0,0,1-2.218-.088A2.4,2.4,0,0,1,397,27.655a3.6,3.6,0,0,1,.782-2.711,12.332,12.332,0,0,1,1.974-2.115q6.134-5.751,11.06-9.98a72.991,72.991,0,0,0-16.1,4.717,2.008,2.008,0,0,1-1.657.124,1.723,1.723,0,0,1-1.1-1.146,1.7,1.7,0,0,1,.009-1.567,2.222,2.222,0,0,1,1.306-1.142,79.536,79.536,0,0,1,20-5.473,1.714,1.714,0,0,1-.31-.509A4.526,4.526,0,0,1,411.99,5.9a10.469,10.469,0,0,1-.41-1.356,1.811,1.811,0,0,1-.191-.848,4.7,4.7,0,0,1-.175-.509,1.656,1.656,0,0,1-.095-.424,2.09,2.09,0,0,1,.281-1.609A2.266,2.266,0,0,1,412.783.141a1.884,1.884,0,0,1,2.643,1.276,4.654,4.654,0,0,0,.263,1.017.928.928,0,0,0,.2.763l.247,1.187.441,1.018q.732.763,1.553,1.528a1.214,1.214,0,0,1,.552.764q5.379-.414,10.1-.406a2.053,2.053,0,0,1,1.548.6,1.859,1.859,0,0,1,.484,1.526,2.05,2.05,0,0,1-.8,1.439,2.464,2.464,0,0,1-1.612.591,103.156,103.156,0,0,0-10.548.489,4.285,4.285,0,0,1-.709.931Q410.4,18.441,403.1,25.208q3.086-.672,9.141-2.611h.177q3.757-1.179,7.322-2.19a29.637,29.637,0,0,1,3.184-.757l-1.288-.511a1.775,1.775,0,0,1-1.2-1.019,2,2,0,0,1,.015-1.61,2.609,2.609,0,0,1,1.267-1.226A2.092,2.092,0,0,1,423.42,15.244Zm-4.9,35.075q-4.339.756-7.719,1.682t-8.436,2.7h-.09l-.186.085a25.249,25.249,0,0,0,.91,8.56,1.747,1.747,0,0,1-.14,1.525,2.434,2.434,0,0,1-1.347,1.1,1.985,1.985,0,0,1-1.6,0,1.9,1.9,0,0,1-1.056-1.1q-2.031-6.019-.561-16.271.51-3.642,1.8-9.912a1.968,1.968,0,0,0,.187-.593c.056-.282.089-.479.1-.593a6.751,6.751,0,0,1,.286-1.186q.195-1.185.468-2.2a2.271,2.271,0,0,1,.884-1.4,2.344,2.344,0,0,1,1.69-.463,1.794,1.794,0,0,1,1.713,1.7q7.015-3.716,11.091-4.472,4.965-.755,6.9,2.385,1.32,2.121,1.048,7.036-.135,2.459-1.289,9.234l-.031.339q-.205,1.271-.48,5.254-.082,1.865-.289,4.151a44.718,44.718,0,0,1-.922,6.185,12.233,12.233,0,0,1-2.342,5.165,2.95,2.95,0,0,1-1.234.845,4.077,4.077,0,0,1-.9.084,4.923,4.923,0,0,1-1.053-.172,12.165,12.165,0,0,1-1.726-.6l-.51-.255c-.623-.34-.99-.54-1.1-.595a2.679,2.679,0,0,0-.6-.256,1.609,1.609,0,0,1-.96-1.188,2.207,2.207,0,0,1,.236-1.609,2.1,2.1,0,0,1,1.339-1.015,2.451,2.451,0,0,1,1.684.088.948.948,0,0,1,.68.34c.114.056.269.141.467.255s.352.2.466.255a.565.565,0,0,1,.43.17.238.238,0,0,1,.17.085,28.539,28.539,0,0,0,1.514-7.793q.2-2.2.283-4.068Q418.352,52.185,418.522,50.319Zm1.1-7.116h-.356a38.394,38.394,0,0,0-5.434,1.008q-3.089.673-6.191,1.514-.55.17-1.37.379c-.547.14-.99.267-1.326.379s-.627.2-.869.252a1.642,1.642,0,0,1-1.164.083c-.022.227-.067.565-.138,1.017s-.114.762-.13.932q-.03.339-.121.847t-.115.762q4.865-1.6,7.516-2.359A71.779,71.779,0,0,1,419,46.083h.177c.032-.339.09-.832.18-1.482A9.945,9.945,0,0,1,419.619,43.2Zm.468-4.152.007-.084q.318-3.474-.537-4.832a1.444,1.444,0,0,0-.665-.509,3.957,3.957,0,0,0-1.95-.089q-3.26.588-9.9,4.135a2.14,2.14,0,0,1-2.315,0l-.031.339a2.568,2.568,0,0,1-.143.593,2.469,2.469,0,0,0-.143.593q-.282,1.1-.666,3.388.728-.167,3.1-.841,4.38-1.179,6.378-1.6a57.308,57.308,0,0,1,6.064-1.091Z"/><path class="cls-1" d="M487.2,47.9c-.844,1.439-2.024,1.692-3.727.841-3.064-1.531-7.812-1.2-12.3.148L471,50.836a13.793,13.793,0,0,1-5.214,9.313c-1.911,1.437-5.162,1.94-7.062.326-1.567-1.358-1.869-3.9-.673-6.272,1.517-2.963,4.55-4.992,7.627-6.512a17.906,17.906,0,0,1,2.221-.928c-.139-2.373-.27-4.831-.32-7.2-3.339.5-6.931.836-9.8,1-1.521.082-4.5.5-5.351-.857-.848-1.442.782-2.71,2.279-2.538a49.782,49.782,0,0,0,9.724-.237c1.084-.168,2.16-.251,3.154-.418.008-2.034.025-4.153.129-6.271l.135-4.407a69.654,69.654,0,0,0-8.52,1.68,15.318,15.318,0,0,0-4.517,1.687c-1.323.845-2.369.589-2.9-.429-.375-.763.138-1.525.816-2.117a9.443,9.443,0,0,1,3.515-1.434,64.043,64.043,0,0,1,8.7-1.68c1.084-.167,2.071-.25,3.065-.418a13.018,13.018,0,0,1,.709-2.88c.336-.762.7-1.863,2.225-1.945a1.765,1.765,0,0,1,1.524,2.8,10.574,10.574,0,0,0-.777,1.693l2.515-.249a15.624,15.624,0,0,1,5.147.178c1.726.6,1.714,1.7,1.3,2.376a2.056,2.056,0,0,1-2.57.842,8.146,8.146,0,0,0-3.5-.6c-1.069,0-2.234.081-3.4.163-.085.932-.081,1.865-.166,2.8-.24,2.626-.206,5.169-.259,7.711l2.159-.251c1.35-.167,3.251-.5,4.121-1.263,1.354-1.184,2.659-.843,3.131-.164a1.793,1.793,0,0,1-.864,2.625c-1.315.761-4.588,1.517-8.559,2.1-.031,2.288.2,4.576.359,6.78,5.286-1.347,11.532-1.505,14.976-.228C487.192,46.035,487.73,46.968,487.2,47.9Zm-19.248,2.169a26.291,26.291,0,0,0-3.085,1.605c-3.018,1.859-4.914,5.076-3.873,6.349s3.011.175,4.837-2.28A10.984,10.984,0,0,0,467.951,50.068Z"/><path class="cls-1" d="M570.224,40.42c-1.521,3.98-11,8.37-15.96,9.039-3.606.5-5.836-.434-6.024-3.231-.07-1.186.7-6.693.727-7.964.054-2.543-.363-3.814-4.263-2.042a81.922,81.922,0,0,0-9.428,5.746c-.856.592-1.808,1.268-2.67,1.944a57.029,57.029,0,0,0,.87,12.883c.9,3.73,2.414,6.7,4.991,7.721a1.609,1.609,0,0,1,.868,2.2,1.906,1.906,0,0,1-2.489.928c-5.9-2.637-7.608-12.216-7.475-21.453l-4.776,3.55c-3.436,2.537-5.368,3.211-6.706,2.277-1.591-1.1-1.216-4.24.314-8.3,1.648-4.4,3.1-6.689,3.888-10.416a9.064,9.064,0,0,0,.2-2.2c-1.509.929-5.1,4.143-7.45,4.563-1.083.167-2.047,0-2.139-.936s.6-1.694,1.788-2.031c2.74-.758,4.98-2.872,6.393-3.717a4.031,4.031,0,0,1,2.836-.843c2.972.6,1.257,6.7-.538,10.762-1.691,3.895-3.615,8.383-3.209,10.756,1.421-.929,5.817-4.226,9.536-6.932l.357-3.9c.836-7.2,4.512-24.059,8.065-29.816a2.14,2.14,0,0,1,2.488-.927,1.572,1.572,0,0,1,.77,2.289c-.65,1.27-1.35,2.116-2,3.386-3.146,6.181-5.4,17.194-6.306,25.158l-.131,1.44c.283-.169.573-.422.856-.591a70.765,70.765,0,0,1,10.177-6.168c1.866-.929,4.33-1.6,6.025-.668,2.457,1.361,2.016,4.241,1.365,11.358-.124,1.356-.039,2.373,1.742,2.376,4,.007,13.261-3.874,14.2-7.347a1.849,1.849,0,0,1,2.164-1.267C570.425,38.217,570.576,39.489,570.224,40.42Z"/><path class="cls-1" d="M631.5,36.123c-.154,1.694-1.593,1.861-2.839,1.859-3.382-.006-8.9,1.933-13.116,4.214-1.033.591-2.066,1.182-3.018,1.859,1.54,2.629,3.5,5.6,3.029,8.734-.653,4.236-6.617,8.123-10.208,6.507a4.783,4.783,0,0,1-2.663-3.988c-.642-4.662,2.223-8.725,5.891-11.854-1.621-2.714-3.308-5.683-2.732-9.072.624-3.9,3.588-7.112,6.654-9.479.96-.761,2.225-1.946,1.9-2.285-1.057-1.1-8.594,1.51-11.523,3.369a5.433,5.433,0,0,0-1.936,1.691,2.377,2.377,0,0,1-2.987,1.521c-.778-.256-.944-1.358-.2-2.628,2.425-4.148,14.34-8.872,18.388-6.408,1.687,1.02,1.615,2.8.48,4.493-2.067,3.131-5.8,4.989-7.361,8.461-1.339,2.964.17,5.932,1.807,8.477l.379-.253a47.949,47.949,0,0,1,11.435-5.319,29.127,29.127,0,0,1,6.452-1.429C630.94,34.511,631.59,35.191,631.5,36.123Zm-21.369,9.792a14.954,14.954,0,0,0-2.472,2.707c-1.425,1.947-2.69,5.08-1.645,7.285,1.192,2.545,5.742-.5,6.366-2.446C613.239,50.92,611.536,48.121,610.135,45.915Z"/></svg>