<svg id="レイヤー_1" data-name="レイヤー 1" xmlns="http://www.w3.org/2000/svg" viewBox="0 0 44 35.707"><defs><style>.cls-1{fill:#fff;}.cls-2{fill:none;stroke:#fff;stroke-miterlimit:10;}</style></defs><path class="cls-1" d="M1.773,3.831a3.958,3.958,0,0,0,.827.216c.311.06.634.108.958.155,1.293.18,2.61.455,2.61,1.928V7.208c0,1.484-1.377,1.939-2.635,1.939H.276V8.333H3.522C4.4,8.333,5.2,8.154,5.2,7.124V6.178c0-.515-.324-.79-.815-.958a4.93,4.93,0,0,0-.826-.191c-.311-.048-.635-.084-.958-.132C1.294,4.705,0,4.37,0,2.754V1.94C0,.467,1.138.024,2.444.024H5.533V.838H2.348C1.582.838.97,1.161.97,2.011v.731A1.1,1.1,0,0,0,1.773,3.831Z"/><path class="cls-1" d="M10.341,0h3.15V.814H10.5C9.442.814,8.748.9,8.748,2.155V7c0,1.3.659,1.317,1.748,1.317h2.995v.826h-3.15c-1.426,0-2.551-.395-2.551-2.011V2.023C7.79.4,8.915,0,10.341,0Z"/><path class="cls-1" d="M17.651,5.34h-1.63V9.147h-.958V0h4.012a2,2,0,0,1,2.276,2.131V3.2a1.967,1.967,0,0,1-2.072,2.095A2.338,2.338,0,0,1,20.273,6.5l1.234,2.646H20.452l-.934-2.191C19.123,6.022,18.669,5.34,17.651,5.34Zm2.73-2.059V2.119A1.176,1.176,0,0,0,19.075.814H16.021v3.76h3.066A1.173,1.173,0,0,0,20.381,3.281Z"/><path class="cls-1" d="M29.692,2.143V7.028a2.019,2.019,0,0,1-2.276,2.119H25.691a2.01,2.01,0,0,1-2.263-2.119V2.143A2.022,2.022,0,0,1,25.691,0h1.725A2.031,2.031,0,0,1,29.692,2.143ZM27.44.85H25.691c-.921,0-1.293.419-1.293,1.293V7.028c0,1.281.862,1.293,1.293,1.293h1.737c.431,0,1.294-.012,1.294-1.293V2.143C28.722,1.257,28.362.85,27.44.85Z"/><path class="cls-1" d="M37.29,9.147H31.805V0h.946V8.333H37.29Z"/><path class="cls-1" d="M44,9.147H38.515V0h.946V8.333H44Z"/><polyline class="cls-2" points="33.312 23.431 21.739 35 10.166 23.431"/></svg>