<?xml version="1.0" encoding="UTF-8"?><svg xmlns="http://www.w3.org/2000/svg" viewBox="0 0 160 160"><defs><style>.cls-1{isolation:isolate;}.cls-2{fill:#a9aaaa;}.cls-3{mix-blend-mode:multiply;}</style></defs><g class="cls-1"><g id="_レイヤー_2"><g id="_レイヤー_1-2"><path class="cls-3" d="M159.409,160H.591c-.327,0-.591-.265-.591-.591V.591c0-.327.265-.591.591-.591h158.817c.327,0,.591.265.591.591v158.817c0,.327-.265.591-.591.591ZM38.594,122h82.812c.328,0,.594-.266.594-.594V38.594c0-.328-.266-.594-.594-.594H38.594c-.328,0-.594.266-.594.594v82.812c0,.328.266.594.594.594Z"/><g class="cls-3"><path d="M99.123,102.306c-1.319,0-5.757-1.491-6.895-1.913-5.215-1.935-8.695-4.344-11.637-8.055-.229-.228-.311-.299-.542-.299-.241,0-.436.194-.608.365-2.829,3.805-7.182,6.571-13.287,8.431-1.268.37-4.339,1.227-5.52,1.227-1.546,0-2.526-2.939-2.526-4.181,0-.753.558-.883,1.231-.967,6.951-.994,12.009-3.275,15.03-6.779.051-.08.137-.208.137-.282,0-.097,0-.324-.569-.396l-7.513.002c-.97,0-1.928.037-2.885.073-.964.037-1.929.073-2.905.073-1.261,0-1.261-.828-1.261-2.332,0-1.534,0-2.379,1.261-2.379.976,0,1.939.024,2.902.048.959.024,1.918.048,2.889.048h9.148c.901,0,1.197-.238,1.321-1.062l.023-.139c.037-.219.071-.411.071-.604,0-.757-.256-1.026-.977-1.026h-10.657c-.94,0-1.893.024-2.852.048-.975.025-1.957.049-2.938.049-1.261,0-1.261-.793-1.261-2.234,0-1.552,0-2.332,1.261-2.332.982,0,1.965.037,2.941.074.958.036,1.91.072,2.849.072h10.949c.633,0,.879-.261.879-.929v-.729c0-.685-.23-.928-.879-.928h-5.499c-.892,0-1.796.024-2.706.048-.926.024-1.859.049-2.792.049-1.31,0-1.31-.73-1.31-2.186,0-1.44,0-2.234,1.31-2.234.896,0,1.804.024,2.719.048.922.024,1.851.049,2.779.049h5.499c.649,0,.879-.23.879-.88v-.632c0-.685-.23-.928-.879-.928h-9.489c-.941,0-1.882.024-2.828.048-.963.024-1.932.049-2.914.049-1.31,0-1.31-.715-1.31-2.283,0-1.602,0-2.332,1.31-2.332.981,0,1.951.024,2.914.049.946.024,1.887.048,2.828.048h3.456c.431,0,.49-.189.49-.393,0-.098-.035-.198-.106-.306-.675-1.012-1.461-1.946-2.222-2.849l-.108-.136c-.172-.209-.386-.47-.386-.749,0-1.241,3.386-2.04,3.889-2.04.901,0,1.912,1.317,2.788,2.552l.228.318c.092.144.21.31.341.493.549.771.969,1.396.969,1.839,0,.658-.72,1.026-1.278,1.257l7.414.011c.946,0,1.256-.103,1.799-.872.777-1.188,2.012-3.395,2.604-4.773.15-.351.312-.729.852-.729.584,0,2.649.804,3.067.994,1.765.736,2.427,1.012,2.427,1.63,0,.624-.669.715-1.028.764-.407.052-.497.082-.745.33-.215.306-.431.643-.647.979-.221.344-.443.689-.689,1.034-.124.175-.15.216-.15.299,0,.299.307.344.49.344h3.212c.971,0,1.93-.024,2.889-.049.963-.024,1.926-.048,2.901-.048.424,0,.715.093.915.293.348.349.347.948.346,1.856v.359c0,.883.002,1.466-.343,1.812-.201.201-.492.294-.918.294-.976,0-1.938-.024-2.901-.048-.959-.024-1.918-.048-2.889-.048h-9.635c-.694,0-.928.234-.928.928v.632c0,.65.243.88.928.88h5.596c.922,0,1.833-.024,2.743-.049.915-.024,1.829-.049,2.756-.049.473,0,.776.091.981.297.332.332.331.871.33,1.765v.338c0,.869.002,1.394-.327,1.722-.206.206-.509.297-.984.297-.927,0-1.841-.024-2.756-.048-.91-.024-1.821-.049-2.743-.049h-5.596c-.694,0-.928.234-.928.928v.729c0,.668.26.929.928.929h10.9c.97,0,1.928-.037,2.885-.073.964-.037,1.929-.073,2.905-.073,1.31,0,1.31.715,1.31,2.283,0,1.424,0,2.283-1.31,2.283-.976,0-1.939-.024-2.902-.049-.959-.024-1.918-.049-2.889-.049h-11.456c.359.153.6.375.6.734,0,.482-.462.691-.769.829l-.142.066c-.15.076-.173.096-.304.27-.007.022-.098.204-.098.294,0,.526.531.637.977.637h10.121c.947,0,1.905-.024,2.864-.048.963-.024,1.926-.048,2.877-.048.423,0,.713.093.913.293.351.351.35.933.349,1.898v.377c0,.943.002,1.512-.338,1.853-.198.198-.491.29-.923.29-.982,0-1.952-.037-2.916-.074-.946-.036-1.885-.072-2.825-.072h-8.223c-.361.063-.394.172-.394.296,0,.082.026.122.101.228,3.479,3.496,8.355,5.701,15.371,6.982.8.15,1.365.338,1.365,1.403,0,1.352-1.079,3.938-2.77,3.938Z"/></g><path class="cls-2" d="M36.994,150.636c-.842,0-1.269.023-1.877.072.374-1.015.59-1.717,1.005-3.264l3.517-13.126c.298-1.112.488-1.982.682-2.972.596.048.829.048,1.816.048h3.425c2.25,0,3.058,1.693,2.249,4.714-.395,1.474-.947,2.562-1.726,3.408-.455.507-.775.725-1.419,1.015.669.266.938.507,1.168,1.112.348.918.33,2.127-.092,3.699-.906,3.383-2.767,5.294-5.177,5.294h-3.57ZM37.915,147.904h3.12c1.292,0,2.304-1.064,2.828-3.021.259-.967.288-1.619.1-2.103-.222-.532-.695-.822-1.362-.822h-3.092l-1.594,5.947ZM43.246,139.274c1.104,0,2.022-.99,2.462-2.634.207-.774.238-1.427.103-1.789-.19-.483-.612-.749-1.192-.749h-3.005l-1.386,5.172h3.018Z"/><path class="cls-2" d="M55.612,144.496c-.284,1.33-.334,2.006-.189,2.707.189.87.712,1.354,1.452,1.354.711,0,1.438-.436,2.066-1.209.264-.339.437-.605.758-1.257l1.467.918c-.644,1.161-.956,1.62-1.481,2.224-1.085,1.232-2.269,1.861-3.489,1.861-2.569,0-3.43-2.852-2.22-7.372,1.199-4.471,3.593-7.397,6.075-7.397,1.698,0,2.658,1.402,2.591,3.819-.035,1.161-.167,2.031-.563,3.674-.013.049-.032.121-.153.677h-6.314ZM60.681,142.103c.184-1.064.184-1.716-.018-2.32-.216-.653-.626-.968-1.308-.968-1.131,0-2.297,1.257-3.057,3.288h4.383Z"/><path class="cls-2" d="M74.178,149.064c-.827.919-1.281,1.257-1.947,1.523-.473.194-.963.29-1.428.29-1.771,0-2.437-1.522-1.756-4.061.453-1.693,1.5-3.215,2.689-3.917,1.118-.652,2.257-.894,4.352-.966l.33-1.233c.375-1.402.003-2.128-1.1-2.128-.581,0-1.247.267-1.697.701-.367.338-.587.677-.995,1.547l-1.708-.555c.71-1.402,1.139-2.031,1.866-2.683.945-.87,1.855-1.233,3.102-1.233,1.393,0,2.125.411,2.477,1.427.286.773.229,1.692-.211,3.335l-1.742,6.503c-.343,1.281-.489,1.933-.693,3.021h-1.959l.421-1.572ZM75.525,144.036c-2.797.098-4.101.895-4.605,2.781-.305,1.136.016,1.836.828,1.836.77,0,1.654-.483,2.361-1.281.504-.58.865-1.281,1.092-2.127l.324-1.209Z"/><path class="cls-2" d="M95.638,136.761c-.38,1.039-.595,1.789-.958,3.143l-2.034,7.59c-.356,1.329-.548,2.151-.726,3.143h-1.974l.343-1.281c.097-.364.116-.436.293-1.04-1.304,1.885-2.29,2.587-3.669,2.587-.74,0-1.205-.218-1.554-.702-.572-.845-.587-2.199-.056-4.181l1.639-6.116c.356-1.33.559-2.248.726-3.143h2.105c-.378,1.088-.613,1.91-.944,3.143l-1.437,5.366c-.376,1.402-.398,2.297-.071,2.756.165.194.432.338.708.338,1.045,0,2.189-1.185,3.484-3.578l1.308-4.883c.318-1.184.519-2.103.726-3.143h2.09Z"/><path class="cls-2" d="M108.021,133.038c-.286.847-.606,1.885-.898,2.973l-.201.749h.609c.682,0,1.008-.024,1.505-.145l-.765,2.852c-.447-.121-.716-.145-1.383-.145h-.653l-2.007,7.494c-.318,1.184-.173,1.619.523,1.619.377,0,.642-.121,1.202-.532l-.425,2.562c-.727.387-1.196.508-1.95.508-1.669,0-2.071-.991-1.391-3.53l2.177-8.121h-.551c-.538,0-.82.023-1.331.145l.765-2.852c.388.12.657.145,1.267.145h.537l.2-.749c.279-1.039.52-2.103.695-2.973h2.076Z"/><path class="cls-2" d="M116.055,139.758c.003-2.393.007-2.466-.024-2.998h2.206c-.115.701-.201,1.837-.206,2.829l-.068,6.865,3.443-6.841c.745-1.474,1.023-2.079,1.317-2.852h2.162c-.171.314-.698,1.305-1.586,2.998l-6.775,12.932c-.957,1.837-2.039,2.683-3.389,2.683-.435,0-.838-.072-1.447-.29l1.073-2.755c.33.29.573.411.906.411.507,0,1.051-.459,1.456-1.209l.991-1.861-.058-9.911Z"/></g></g></g></svg>