<?xml version="1.0" encoding="UTF-8"?><svg xmlns="http://www.w3.org/2000/svg" viewBox="0 0 160 160"><defs><style>.cls-1{isolation:isolate;}.cls-2{fill:#a9aaaa;}.cls-3{mix-blend-mode:multiply;}</style></defs><g class="cls-1"><g id="_レイヤー_2"><g id="_レイヤー_1-2"><path class="cls-3" d="M159.409,160H.591c-.327,0-.591-.265-.591-.591V.591c0-.327.265-.591.591-.591h158.817c.327,0,.591.265.591.591v158.817c0,.327-.265.591-.591.591ZM38.594,122h82.812c.328,0,.594-.266.594-.594V38.594c0-.328-.266-.594-.594-.594H38.594c-.328,0-.594.266-.594.594v82.812c0,.328.266.594.594.594Z"/><g class="cls-3"><path d="M74.648,102.16c-.785,0-.952-.811-1.354-2.77-.335-1.506-.492-2.374-.492-2.725,0-.71,1.05-.775,2.763-.823,2.667-.048,5.236-.232,7.956-.427l.16-.011c.768-.081,1.043-.388,1.043-1.172v-3.066c0-.818-.305-1.123-1.124-1.123h-1.46c-1.471,0-1.481.117-1.513.464,0,1.046-.597,1.096-1.743,1.096h-1.443c-.664-.001-1.122-.017-1.432-.229-.36-.246-.434-.688-.434-1.278,0-.489.012-.977.024-1.466.013-.484.025-.969.025-1.454v-6.423c0-.436-.012-.859-.025-1.283-.012-.428-.024-.856-.024-1.297,0-1.714.902-1.991,3.062-1.991.411,0,.861.009,1.361.02.625.013,1.331.028,2.142.028h1.46c.792,0,1.034-.236,1.125-1.099-.025-.326-.038-.645-.05-.963-.012-.314-.024-.628-.048-.991-.123-.69-.418-.944-1.124-.944-1.074.096-2.17.182-3.265.267-1.094.085-2.188.17-3.283.267-.205.03-.215.044-.378.291l-.131.179c-.167.225-.374.505-.777.505-.292,0-.687-.165-.912-.952-.047-.207-.836-3.95-.836-4.299,0-.872.62-.872,2.672-.872h1.363c.891-.091,1.24-.246,1.635-1.036,1.382-2.713,2.308-5,3.098-7.649.117-.41.311-1.095.911-1.095.406,0,1.897.448,3.448.932l.321.1.3.104c.714.241,1.523.515,1.523,1.147,0,.603-.601.752-.998.85l-.208.05c-.278.065-.362.084-.479.289-.482.991-1.001,1.982-1.518,2.966-.408.778-.814,1.552-1.201,2.326-.087.133-.122.233-.122.331,0,.324.357.417.569.444,1.548-.066,3.135-.175,4.723-.283.795-.054,1.59-.108,2.386-.157.197-.025.554-.119.554-.443,0-.221-.172-.451-.338-.673-.056-.075-.11-.147-.156-.217l-.205-.283c-.665-.918-1.101-1.546-1.101-1.893,0-1.13,2.876-1.845,3.596-1.845.626,0,.887.298,1.218.677.47.631,1.53,2.329,2.231,3.453l.57.914c2.003,3.271,2.936,5.068,2.936,5.658,0,1.273-2.627,2.136-3.5,2.136-.925,0-1.253-.671-1.797-1.784l-.217-.44c-.38-.761-.718-.89-1.538-.89l-3.84.347c.191.116.332.296.332.583,0,.457-.399.706-.786.946-.502.333-.53.6-.479,1.965,0,.821.261,1.083,1.074,1.083h1.849c.778,0,1.468-.015,2.084-.028.502-.011.956-.021,1.371-.021,1.878,0,3.11.135,3.11,1.942,0,.44-.012.88-.024,1.321-.012.436-.024.872-.024,1.308v4.817c0,.436.012.858.024,1.282.012.428.024.856.024,1.297,0,1.942-1.521,1.942-2.526,1.942-.689,0-1.377-.012-2.06-.024-.667-.012-1.329-.024-1.979-.024h-1.849c-.818,0-1.123.305-1.123,1.123v2.677c0,.75.251,1.029.927,1.029l.135-.004,1.892-.146c.386-.1.461-.223.461-.442,0-.07-.017-.122-.053-.221l-.15-.28c-.28-.466-.479-.814-.479-1.056,0-1.086,3.199-1.748,3.694-1.748.64,0,.94.347,1.216.733.751,1.148,1.486,2.395,2.255,3.821.218.371,2.169,3.717,2.169,4.591,0,1.3-3.299,1.991-3.694,1.991-.933,0-1.207-.68-1.753-2.035l-.123-.304c-.289-.625-.624-.873-1.189-.873h-.39c-6.622.875-13.226,1.523-18.809,2.042-.154.022-.181.066-.291.296l-.053.109-.068.123c-.18.324-.383.69-.826.69ZM90.914,80.848c-.705.087-1.056.442-1.139,1.151v2.308c.084.686.439,1.041,1.152,1.125h2.21c.685-.084,1.041-.439,1.125-1.152v-2.308c-.084-.685-.44-1.041-1.153-1.125h-2.196ZM81.766,80.848c-.705.087-1.056.442-1.139,1.151v2.308c.084.686.439,1.041,1.152,1.125h1.821c.685-.084,1.041-.439,1.125-1.152v-2.308c-.084-.685-.44-1.041-1.153-1.125h-1.807ZM62.662,102.019c-.641,0-1.37-.049-1.915-.635-.573-.616-.839-1.697-.839-3.404,0-.523,0-1.748,1.261-1.748.304,0,.742.033,1.203.068.497.038,1.021.078,1.425.078,2.064,0,2.329-.607,2.69-1.87.588-2.01,1.061-6.105,1.061-8.157,0-.795-.262-.882-1.295-.882h-2.358c-.431.001-.548.176-.807.558l-.115.169c-.277.417-.675.491-1.656.491-.945,0-3.159,0-3.159-1.456,0-.177.098-1.013.235-2.174.071-.598.135-1.14.155-1.351.058-.483.22-2.193.401-4.11.493-5.209.627-6.517.686-6.662.397-1.367,1.649-1.367,2.753-1.367.464,0,.94.012,1.417.024.473.012.945.024,1.406.024h1.557c.839,0,1.123-.283,1.123-1.123v-2.823c0-.803-.284-1.074-1.123-1.074h-3.795c-.566,0-1.132.027-1.661.053-.472.023-.917.044-1.307.044-1.407,0-1.407-.714-1.407-2.623,0-1.874,0-2.575,1.407-2.575.352,0,.752.01,1.194.021.537.013,1.133.028,1.774.028h4.623c.46,0,.92-.012,1.38-.024.464-.012.929-.024,1.394-.024,1.363,0,2.624.247,2.624,2.039,0,.689-.012,1.378-.024,2.061-.012.667-.024,1.329-.024,1.979v4.866c0,.648.024,1.296.048,1.95.025.671.049,1.35.049,2.04,0,1.359-.948,1.359-2.26,1.359h-.899c-.848,0-1.482-.07-1.823-.411l-.133-.158c-.241-.292-.468-.568-.791-.6h-1.631q-1.186,0-1.414,2.87c-.02.223-.044.432-.07.655-.045.387-.095.82-.126,1.312-.039.375.016.644.162.807.151.167.426.253.816.253h2.627c.489,0,.978-.025,1.46-.05.479-.024.951-.048,1.411-.048,2.331,0,2.526,1.58,2.526,3.062,0,3.852-.635,9.876-1.812,13.456-1.364,4.294-3.719,5.08-7.867,5.08l-.551.005Z"/></g><path class="cls-2" d="M39.021,145.028c-.233,1.088-.275,1.571-.163,2.127.175.919.793,1.426,1.737,1.426,1.452,0,2.614-1.087,3.1-2.9.265-.991.21-1.813-.13-2.224-.332-.387-.412-.411-2.208-1.184-.978-.411-1.455-.798-1.796-1.474-.481-.967-.503-2.297-.068-3.916.901-3.36,3.108-5.536,5.606-5.536,1.654,0,2.675.846,2.96,2.441.149.797.129,1.523-.041,2.804l-2.186.411c.133-.822.142-1.232.024-1.716-.176-.749-.705-1.16-1.503-1.16-1.263,0-2.404,1.063-2.826,2.635-.272,1.015-.14,1.716.398,2.2.261.218.364.266,1.813.87,1.036.411,1.61.87,1.97,1.474.555,1.015.576,2.345.09,4.157-.46,1.716-1.154,3.118-2.015,4.11-1.1,1.232-2.408,1.837-3.961,1.837-1.19,0-2.221-.484-2.711-1.257-.406-.653-.58-1.571-.539-2.755.018-.556.084-1.016.262-2.006l2.186-.363Z"/><path class="cls-2" d="M60.235,133.426c-.284.846-.606,1.885-.897,2.973l-.201.749h.609c.682,0,1.008-.024,1.505-.145l-.765,2.852c-.446-.121-.716-.145-1.383-.145h-.653l-2.008,7.494c-.317,1.185-.173,1.619.524,1.619.377,0,.642-.12,1.202-.531l-.426,2.562c-.727.387-1.196.507-1.95.507-1.669,0-2.071-.991-1.391-3.529l2.176-8.122h-.551c-.538,0-.82.024-1.33.145l.764-2.852c.388.121.657.145,1.267.145h.537l.201-.749c.279-1.039.52-2.103.695-2.973h2.075Z"/><path class="cls-2" d="M73.771,140.194c-.532-.29-.811-.387-1.188-.387-.726,0-1.381.387-2.001,1.185-.55.701-.845,1.257-1.242,2.417l-1.199,4.472c-.35,1.305-.509,2.006-.74,3.143h-2.076c.389-1.184.607-1.885.944-3.143l2.034-7.59c.395-1.474.562-2.151.74-3.142h1.974l-.608,2.272c.982-1.716,2.101-2.538,3.408-2.538.349,0,.678.072,1.279.266l-1.324,3.045Z"/><path class="cls-2" d="M80.465,144.109c1.205-4.496,3.66-7.372,6.302-7.372,2.626,0,3.531,2.853,2.333,7.324-1.199,4.472-3.686,7.421-6.27,7.421-2.656,0-3.575-2.853-2.364-7.373ZM82.338,144.109c-.796,2.973-.36,4.81,1.15,4.81s2.924-1.813,3.714-4.762c.836-3.118.43-4.907-1.108-4.907-1.524,0-2.945,1.837-3.756,4.859Z"/><path class="cls-2" d="M95.209,151.023c.366-1.039.595-1.788.958-3.143l2.034-7.59c.356-1.329.548-2.151.726-3.142h1.974l-.343,1.281c-.097.363-.116.435-.308,1.039,1.391-1.885,2.342-2.562,3.647-2.562,1.118,0,1.784.604,1.989,1.788.135.798.022,1.765-.413,3.384l-1.555,5.801c-.356,1.33-.574,2.248-.726,3.143h-2.104c.364-1.087.613-1.91.944-3.143l1.438-5.366c.272-1.015.374-1.668.324-2.127-.065-.628-.403-.991-.954-.991-1.045,0-2.225,1.209-3.505,3.602l-1.308,4.882c-.318,1.185-.534,2.103-.726,3.143h-2.09Z"/><path class="cls-2" d="M112.63,151.579c.215,1.305.712,1.837,1.756,1.837,1.118,0,2.149-.653,2.867-1.813.441-.725.769-1.571,1.239-3.215-1.134,1.523-2.172,2.199-3.435,2.199-2.308,0-3.082-2.635-1.974-6.768,1.121-4.182,3.37-6.889,5.721-6.889,1.292,0,1.973.653,2.203,2.128.1-.484.113-.532.185-.798l.297-1.112h1.945c-.351,1.039-.561,1.716-.911,3.021l-2.17,8.098c-.777,2.901-1.653,4.762-2.812,5.946-.991.991-2.345,1.547-3.84,1.547-1.698,0-2.482-.653-2.969-2.514l1.899-1.668ZM114.738,147.228c.189.652.696,1.087,1.248,1.087.798,0,1.819-.773,2.529-1.91.477-.749.848-1.644,1.145-2.755.415-1.547.448-2.756.088-3.578-.258-.556-.652-.87-1.175-.87-1.451,0-2.836,1.813-3.607,4.689-.382,1.427-.467,2.611-.227,3.336Z"/></g></g></g></svg>