<?xml version="1.0" encoding="UTF-8"?><svg id="_レイヤー_2" xmlns="http://www.w3.org/2000/svg" viewBox="0 0 595.096 115.333"><defs><style>.cls-1{fill:#fff;}.cls-2{stroke-linejoin:round;}.cls-2,.cls-3{fill:none;stroke:#010101;stroke-linecap:round;stroke-width:2px;}.cls-4{fill:#ea5902;}.cls-3{stroke-miterlimit:10;}</style></defs><g id="_レイヤー_1-2"><path d="M17.271,49.785c-1.15-1.2-2.975-2.474-5.099-3.574-.425-.225-1-.475-1.675-.75q.05.575.05.9c0,1.325-.175,2.125-.625,2.724-.725,1.025-2.249,1.574-4.224,1.574-1.649,0-3.024-.35-3.874-1-.85-.625-1.35-1.6-1.35-2.624,0-1.65,1.3-2.949,3.499-3.449.75-.175,1.5-.25,2.6-.25.824,0,1.175.025,2.249.2q-.024-.075-.024-.3c0-.025-.025-.125-.025-.275-.025-.225-.025-.75-.05-1.475-.025-.325-.025-.8-.05-1.45-.9.025-2.15.05-2.95.05-1.499,0-2.674-.05-4.224-.175-.274-.025-.475-.025-.625-.025h-.199l.024-1.65c1.125.25,3.199.4,5.724.4.65,0,1.524,0,2.225-.025l-.05-3.424c-.725.025-1.125.025-1.7.025-1.824,0-3.849-.075-6.098-.25-.176-.025-.325-.025-.45-.025-.075,0-.2,0-.351.025l.025-1.7c1.075.3,3.674.5,6.398.5.5,0,1.35-.025,2.175-.025q-.025-3.049-.125-3.599h1.925c-.101.525-.15,1.724-.176,3.524,3.449-.225,6.023-.575,7.398-1.025l.125,1.699q-.425.025-1.725.2c-2.35.35-3.024.425-5.799.6q.025,2.05.051,3.374c3.398-.25,5.548-.55,6.923-1.025l.1,1.725c-.324.025-.574.05-1.449.175-1.725.275-3.699.475-5.549.6q.05,1.4.15,3.824c2.174.6,4.349,1.75,6.973,3.649.4.3.525.375.851.575l-1,1.75ZM8.823,45.061c-.949-.225-1.449-.275-2.549-.275-2.475,0-4.1.9-4.1,2.225s1.25,2.074,3.425,2.074c1.324,0,2.274-.275,2.749-.825.35-.35.5-1.05.5-2.249l-.025-.95Z"/><path d="M35.123,31.489c0-.65-.025-.925-.1-1.45h1.874c-.1.8-.125,1.175-.125,3.124v.275c4.724-.025,6.648-.075,7.474-.175v1.775c-.925-.1-1.8-.125-4.774-.125-.375,0-.649,0-2.674.05v4.949c.425,1.05.6,1.85.6,2.949,0,2.599-1.2,4.899-3.35,6.523-1.024.75-2.124,1.325-3.948,2.025-.425-.8-.575-1.025-1.1-1.575,1.949-.625,3.049-1.125,4.049-1.875,1.824-1.375,2.699-2.999,2.799-5.274-.225.6-.375.875-.675,1.225-.75.9-1.824,1.35-3.149,1.35-2.399,0-4.099-1.649-4.099-3.949,0-2.374,1.874-4.124,4.424-4.124,1.2,0,2.249.4,2.899,1.125-.025-.35-.025-.45-.025-1.375,0-.1-.024-.35-.024-.65v-1.3c-5.024.1-10.073.35-11.747.625l-.075-1.825c.45.025.625.025,1,.025q.725,0,4.748-.15c2.399-.1,4.35-.15,6.049-.2l-.05-1.974ZM34.048,39.013c-.475-.275-.999-.4-1.674-.4-1.575,0-2.774,1.125-2.774,2.624,0,1.45,1.05,2.474,2.574,2.474,1.725,0,2.924-1.2,2.924-2.949,0-.825-.324-1.35-1.05-1.75ZM41.396,29.09c.825,1.075,1.3,1.85,1.925,3.199l-1.275.55c-.55-1.25-1.149-2.299-1.899-3.249l1.25-.5ZM44.021,28.365c.726.9,1.375,1.925,2,3.099l-1.3.55c-.475-1.1-1.2-2.3-1.899-3.174l1.199-.475Z"/><path d="M53.1,30.739c-1.074,2.5-1.925,7.623-1.925,11.722,0,.875.051,2.35.101,3.499,0,.2,0,.25.024.7v.475l.101.025c.449-1.875.625-2.349,1.475-4.399.1-.225.149-.325.2-.5l1.225.575c-1.175,2.449-2.149,5.624-2.149,7.098,0,.125,0,.15.05.5l-1.774.175c-.025-.225-.051-.35-.15-.925-.45-2.324-.7-4.899-.7-7.423,0-3.324.325-5.948,1.3-10.272.226-1.1.25-1.25.275-1.574l1.949.325ZM55.624,35.388c1.225.3,2.3.4,4.499.4.975,0,1.649-.025,2.674-.075q-.024-2.349-.024-4.249c0-.425-.025-.775-.075-1.025h1.875c-.125.675-.176,1.85-.176,3.924,0,.275,0,.675.025,1.225,1.925-.225,3.374-.525,4.324-.925l.075,1.7q-.051,0-1.75.35c-.649.15-1.35.25-2.649.4.025,2.474.075,3.749.275,7.073,1.824.825,2.524,1.225,4.174,2.449.3.2.35.25.625.425l-.775,1.75c-.774-.875-1.774-1.575-3.549-2.599q-.1-.05-.25-.15-.1-.075-.225-.15c.05.375.05.425.05.65,0,.65-.101,1.25-.3,1.699-.601,1.325-2.125,2.1-4.174,2.1-2.899,0-4.725-1.375-4.725-3.549,0-2.075,1.975-3.549,4.749-3.549,1.024,0,2.199.2,2.774.5-.075-.525-.175-2.874-.25-6.523-1.125.05-1.899.075-2.85.075-1.024,0-1.949-.025-2.824-.075-.425-.05-.699-.05-.8-.05-.225-.025-.375-.025-.425-.025-.125-.025-.2-.025-.25-.025h-.1l.05-1.75ZM60.423,44.761c-1.949,0-3.224.825-3.224,2.074,0,1.225,1.149,2.024,2.898,2.024,1.1,0,2.075-.325,2.55-.875.325-.375.475-.975.475-1.949,0-.175-.024-.75-.024-.75-1.025-.4-1.675-.525-2.675-.525Z"/><path d="M86.147,35.239c-.3.05-.399.075-.749.15-2.05.425-3.25.625-4.425.75v4.324c2.175-.65,3.699-.9,5.374-.9,1.774,0,3.274.35,4.424,1.05,1.649.975,2.574,2.574,2.574,4.424,0,2.924-2.225,5.174-5.099,5.174-1.975,0-3.374-1.025-3.849-2.824-.226-.825-.325-1.574-.3-2.824.774-.2,1.024-.3,1.649-.65-.05.45-.05.675-.05.975,0,2.599.749,3.674,2.574,3.674,1.949,0,3.349-1.475,3.349-3.524,0-2.449-2.074-3.974-5.349-3.974-1.6,0-3.199.3-5.299.975v6.249c0,1.35-.6,2-1.824,2-1.399,0-3.024-.625-4.124-1.6-.774-.675-1.149-1.45-1.149-2.35,0-1.1.625-2.174,1.975-3.324.925-.775,1.949-1.375,3.523-2.05v-4.724q-.225.025-.999.075c-.45.025-.875.025-1.6.025-.375,0-1.05,0-1.325-.025h-1.024v-1.65c.725.125,1.425.175,2.549.175.675,0,1.65-.025,2.399-.075v-2.474c0-1-.024-1.625-.125-2.375h1.85c-.1.7-.125,1.175-.125,2.324v2.399c2.149-.275,3.725-.6,5.1-1.075l.074,1.675ZM79.374,42.612c-2.474,1.2-3.874,2.549-3.874,3.749,0,.525.351,1.025,1.075,1.5.675.425,1.574.725,2.225.725.5,0,.574-.15.574-1.225v-4.749ZM93.096,37.913c-1.324-1.85-3.099-3.574-5.049-4.899l1.3-.975c2.3,1.625,3.55,2.824,5.049,4.749l-1.3,1.125Z"/><path d="M97.826,39.262c.625.1,1,.125,1.949.125h1.774c.75,0,1.275-.025,1.899-.125-.1.775-.125,1.45-.125,2.649v4.649c.375.85.851,1.4,1.775,2.024,1.149.775,2.774,1.05,6.373,1.05,4.274,0,7.298-.15,9.397-.475-.35.825-.449,1.075-.574,1.824-2.649.1-5.899.175-8.724.175-3.874,0-5.523-.3-7.173-1.325-.7-.45-1.274-1.025-1.899-1.925-1.125,1.125-1.975,1.875-3.249,2.824-.45.35-.525.4-.9.725l-.824-1.699c.524-.2.6-.25.975-.475.975-.625,2.225-1.6,3.299-2.674v-5.774h-2.124c-.825,0-1.225.025-1.85.125v-1.7ZM99.801,30.015c1.699,1.574,2.6,2.574,4.049,4.524l-1.25,1.125c-1.524-2.149-2.324-3.074-3.999-4.599l1.2-1.05ZM108.799,38.013c-.176,4.949-.851,7.573-2.6,9.897-.525-.625-.675-.75-1.3-1.175,1.824-2.249,2.35-4.774,2.35-11.522,0-1.725-.025-2.55-.101-3.274h.325c1.55,0,4.724-.575,7.173-1.3,1.65-.475,2.399-.8,3.074-1.275l1.375,1.425q-.2.075-.925.35c-2.524,1-5.549,1.7-9.348,2.175v3.224h8.923c1.05,0,1.625-.025,2.25-.125v1.725c-.676-.1-1.275-.125-2.225-.125h-2.024v7.898c0,1.125.05,1.9.175,2.5h-1.899c.1-.575.149-1.275.149-2.5v-7.898h-5.373Z"/><path d="M138.622,31.189c-.274.225-.475.4-3.074,2.899-1.25,1.175-2.6,2.299-5.749,4.724-.924.7-1.1.9-1.1,1.25,0,.45.2.625,2.225,2.199,3.624,2.774,4.324,3.349,7.998,6.823.375.375.425.4.7.625l-1.575,1.55c-.6-.85-1.574-1.899-3.224-3.424-1.675-1.55-2.675-2.375-6.323-5.224-1.4-1.1-1.8-1.65-1.8-2.5,0-.6.25-1.175.725-1.675q.3-.3,2.125-1.7c3.324-2.549,6.448-5.474,7.323-6.848l1.749,1.3Z"/><path d="M157.799,43.386c-1.45,3.299-2.925,4.799-4.724,4.799-2.375,0-4.149-2.599-4.149-6.098,0-2.55.95-5.024,2.624-6.898,2-2.199,4.725-3.324,8.073-3.324,2.8,0,5.249.875,6.873,2.474,1.575,1.525,2.425,3.699,2.425,6.099,0,3.874-2.1,7.073-5.724,8.623-1.125.475-2.074.775-3.799,1.15-.25-.825-.4-1.075-.875-1.675,1.824-.3,2.999-.625,4.174-1.175,2.749-1.25,4.424-3.924,4.424-6.998,0-2.849-1.449-5.149-3.974-6.273-.925-.4-1.649-.575-2.899-.625-.375,3.474-1.325,7.298-2.449,9.923ZM154.725,34.664c-2.524,1.525-4.074,4.349-4.074,7.448,0,2.399,1.05,4.249,2.399,4.249,1.05,0,2.05-1.175,3.124-3.624,1.025-2.349,1.949-6.048,2.274-9.248-1.499.125-2.574.475-3.724,1.175Z"/><path d="M426.575,40.412c-1.325,0-2.024.025-2.874.125v-1.875c.874.125,1.399.15,2.898.15h5.1v-5.249h-3.699c-1.45,0-2.1.025-2.85.125v-1.9c.825.15,1.325.175,2.874.175h11.497c1.575,0,2.075-.025,2.899-.175v1.9c-.749-.1-1.399-.125-2.874-.125h-6.049v5.249h7.599c1.475,0,2.024-.025,2.899-.15v1.875c-.85-.1-1.55-.125-2.875-.125h-7.623v4.924c0,1.574.101,2,.625,2.324.475.325,1.575.5,3.249.5.95,0,2.325-.075,3.725-.2.975-.075,1.35-.15,2.175-.375v1.949c-.125-.025-.226-.025-.301-.025-.25,0-.3,0-1.874.15-.925.075-2.725.15-3.874.15-4.424,0-5.523-.775-5.523-3.899v-5.499h-5.124Z"/><path d="M460.148,39.137c-.025.75-.125,1.675-.275,2.649-.425,2.949-1.475,4.999-3.374,6.598-1.1.95-2.35,1.65-4.399,2.474-.35-.75-.55-1.025-1.175-1.625,3.274-1.05,5.299-2.649,6.324-4.924.574-1.25.949-3.224.999-5.174h-6.772c-1.3,0-2.025.025-2.875.125v-1.849c.875.125,1.475.15,2.899.15h14.621c1.425,0,2.025-.025,2.899-.15v1.849c-.85-.1-1.574-.125-2.874-.125h-5.998ZM451.125,31.215c.825.15,1.325.175,2.875.175h8.072c1.475,0,1.95-.025,2.875-.175v1.899c-.75-.1-1.4-.125-2.85-.125h-8.123c-1.45,0-2.1.025-2.85.125v-1.899ZM466.722,31.989c.824,1.15,1.225,1.9,1.999,3.624l-1.374.55c-.601-1.5-1.075-2.424-1.95-3.649l1.325-.525ZM469.221,30.965c.8,1.1,1.274,1.949,2,3.599l-1.35.575c-.601-1.524-1.101-2.449-1.975-3.674l1.324-.5Z"/><path d="M480.199,31.114q-.1.625-.15,2.149c-.199,6.773-.399,8.623-1.35,11.147-.85,2.324-2.049,3.999-4.323,6.173-.5-.65-.75-.875-1.5-1.35,2.05-1.625,3.399-3.424,4.224-5.749.775-2.175,1.125-5.449,1.125-10.722,0-.9-.025-1.2-.1-1.775l2.074.125ZM486.397,30.84c-.125.6-.149,1.05-.149,2.199l-.15,15.096c2.074-.775,3.35-1.575,4.649-2.899,1.374-1.425,2.349-3.074,2.949-4.999.524.675.725.9,1.399,1.45-1.225,2.874-2.874,4.949-5.023,6.423-1.101.75-2.1,1.25-3.574,1.824q-.45.175-.8.3c-.3.125-.351.15-.575.275l-1-1.15c.15-.425.175-.625.175-1.7l.15-14.621q0-1.625-.1-2.224l2.049.025Z"/><path d="M506.324,32.239c-.101.325-.15.525-.325,1.699-1.05,7.123-3.024,11.822-6.599,15.596-.649-.7-.875-.875-1.6-1.3,1.55-1.45,2.574-2.849,3.624-4.949,1.225-2.474,2.1-5.399,2.575-8.673.149-1,.249-1.9.249-2.35,0-.075,0-.225-.024-.4l2.1.375ZM513.247,31.864c.05,1.3.525,3.774,1.149,5.999,1.226,4.474,3.125,7.898,5.674,10.323-.699.475-.949.675-1.55,1.4-1.674-1.8-2.924-3.774-4.174-6.498-1.199-2.699-2.1-5.824-2.624-9.198-.15-.925-.2-1.25-.325-1.65l1.85-.375Z"/><path d="M539.972,34.089c1.55,0,1.649,0,2.1-.15l1.024.975q-.225.4-.55,2.524c-.6,3.774-2.124,6.848-4.523,9.123-1.899,1.774-4.324,3.149-7.323,4.149-.35-.75-.5-1-1.149-1.699,2.374-.625,3.849-1.3,5.523-2.425,3.499-2.424,5.323-5.849,5.799-10.922h-13.647v3.749c0,.8.025,1.375.075,1.849h-2.05c.051-.425.101-1.225.101-1.875v-3.374c0-.775-.025-1.425-.101-2.025.775.075,1.35.1,2.3.1h5.299v-2.524c0-.725-.025-1-.125-1.6h2.1c-.075.475-.125.975-.125,1.574v2.55h5.273Z"/><path d="M567.496,50.26c-1.975-2.524-4.799-5.249-7.998-7.723-1.749,2-2.975,3.149-4.773,4.474-1.725,1.25-3.05,2.074-4.899,2.999-.399-.75-.6-1.025-1.225-1.65,1.925-.775,3.149-1.45,5.074-2.874,3.999-2.949,7.098-6.898,8.923-11.272.05-.15.075-.175.125-.3.05-.075.05-.1.074-.175-.225.025-.3.025-.6.025l-8.348.125c-1.125.025-1.85.075-2.574.2l-.05-2.025c.675.1,1.124.125,1.974.125h.65l8.923-.1c.875-.025,1.175-.05,1.6-.2l1.05,1.075c-.25.3-.425.6-.7,1.225-1.399,3.099-2.574,5.074-4.124,6.998,3.274,2.5,5.474,4.474,8.323,7.498l-1.425,1.574Z"/><path d="M572.926,41.962c.95-.625,2.925-2.799,5.024-5.574.725-.95.925-1.2,1.249-1.5.7-.625,1.35-.95,2-.95.699,0,1.374.35,2.149,1.125.25.225.675.7,1.824,2.025,2.3,2.649,5.724,5.999,7.923,7.698.95.75,1.45,1.075,2,1.3l-.85,2.149c-.226-.225-.275-.275-.601-.525-1.549-1.225-4.398-3.774-6.073-5.424-1.475-1.5-2.424-2.524-4.849-5.349-.675-.775-1.075-1.075-1.5-1.075-.55,0-.774.2-1.975,1.8-1.475,1.975-2.773,3.549-4.373,5.324-.45.5-.5.55-.726.825l-1.225-1.85Z"/><polygon class="cls-4" points="396.778 70.258 396.778 19.371 196.024 19.371 196.024 70.258 296.401 114.24 396.778 70.258"/><polyline class="cls-3" points="419.307 60.081 296.401 114.24 173.496 60.081"/><line class="cls-2" x1="296.401" y1="21.816" x2="296.401" y2="7.593"/><line class="cls-2" x1="296.401" y1="3.029" x2="296.401" y2="1"/><line class="cls-2" x1="270.044" y1="12.292" x2="268.74" y2="10.738"/><line class="cls-2" x1="288.832" y1="22.991" x2="283.967" y2="9.626"/><line class="cls-2" x1="282.12" y1="26.684" x2="272.978" y2="15.789"/><line class="cls-2" x1="322.759" y1="12.292" x2="324.063" y2="10.738"/><line class="cls-2" x1="310.682" y1="26.684" x2="319.825" y2="15.789"/><line class="cls-2" x1="277.077" y1="32.449" x2="264.759" y2="25.338"/><line class="cls-2" x1="303.971" y1="22.991" x2="308.835" y2="9.626"/><line class="cls-2" x1="315.726" y1="32.449" x2="328.043" y2="25.338"/><path class="cls-1" d="M231.057,60.434c-1.47,0-2.275.035-3.186.14v-3.745c.876.14,1.61.175,3.256.175h.84c-.49-1.96-.84-2.87-1.54-4.13l3.08-.77h-1.645c-1.54,0-2.346.035-3.291.14v-3.745c.875.14,1.681.175,3.36.175h2.66v-.525c0-1.19-.034-1.68-.175-2.555h4.235c-.14.84-.175,1.295-.175,2.555v.525h2.38c1.646,0,2.346-.035,3.256-.175v3.745c-.945-.105-1.785-.14-3.29-.14h-1.436l2.976.84q-.21.455-.525,1.225-.21.35-.595,1.295c-.245.595-.386.84-.771,1.54h.7c1.575,0,2.311-.035,3.221-.175v3.745c-.98-.105-1.716-.14-3.221-.14h-2.835v2.485h2.695c1.505,0,2.275-.035,3.185-.175v3.676c-.909-.105-1.715-.14-3.185-.14h-1.296c1.051,1.225,1.926,1.96,3.605,3.08-.77,1.295-1.154,2.03-1.68,3.325-1.75-1.575-2.311-2.17-3.431-3.781q.035.455.07,1.365c0,.105.035,1.19.035,1.365v3.5c0,1.225.069,2.065.21,2.905h-4.025c.104-.805.175-1.645.175-2.765v-3.5c0-.665.035-1.575.105-2.38-1.436,2.695-3.046,4.516-5.776,6.476-.49-1.435-.979-2.415-1.785-3.57,2.66-1.645,4.621-3.571,6.126-6.021h-2.275c-1.505,0-2.24.035-3.186.175v-3.71c.91.14,1.61.175,3.256.175h3.535v-2.485h-3.641ZM233.752,52.104c.771,1.505,1.051,2.24,1.505,4.061l-3.115.84h4.796c.98-1.82,1.436-2.94,1.96-4.901h-5.146ZM257.135,56.339c1.54,0,2.415-.07,3.186-.21v3.885c-.875-.105-1.436-.14-2.801-.14h-.875v14.107c0,2.1.035,3.08.21,4.13h-4.096c.176-1.085.21-2.1.21-4.13v-14.107h-3.745c-.035,4.446-.455,8.121-1.295,11.306-.7,2.73-1.785,5.18-3.115,7.036-1.4-1.155-1.995-1.54-3.466-2.31,3.325-4.06,4.201-8.646,4.201-21.912,0-2.94-.035-4.061-.211-5.461,3.956-.105,10.012-1.645,11.797-2.975l2.87,3.396c-.385.105-.525.175-1.155.385-2.8,1.05-5.006,1.575-9.591,2.38v4.621h7.876Z"/><path class="cls-1" d="M272.918,60.609c-1.086.035-1.471.07-2.346.14v-1.54c-2.065,1.4-3.36,2.135-6.16,3.396-.596-1.26-1.12-2.1-2.065-3.22,2.695-1.015,4.34-1.855,6.686-3.395-1.96-2.275-3.15-3.36-4.9-4.585l2.87-2.135q.561.455,1.12.91v-3.64c.665.105,1.681.175,2.905.175h6.476c1.646,0,2.205-.035,3.011-.14.35,1.4.84,2.205,2.17,3.815,1.12-1.12,1.365-1.33,2.065-2.24.49-.63.595-.735.735-1.015q.175-.28.279-.455l3.221,1.785c-.105.14-.561.665-1.365,1.61-.63.735-1.715,1.82-2.59,2.625.944.805,1.33,1.12,2.064,1.68,1.506-1.365,2.801-2.87,3.641-4.236l3.221,1.82c-.21.21-.28.315-.98,1.085-.91,1.12-1.925,2.135-3.15,3.22,1.891,1.12,3.046,1.68,5.601,2.66-.805,1.05-1.015,1.435-1.96,3.466-2.87-1.33-3.886-1.89-5.775-3.15v1.505c-1.051-.105-1.681-.14-3.36-.14v3.781h5.565c1.715,0,2.625-.035,3.675-.21v3.745c-1.085-.14-2.1-.21-3.675-.21h-5.565v5.216c0,.735.034.805.56.945.455.14,1.05.175,2.24.175,1.926,0,2.766-.175,3.15-.665.315-.42.525-1.575.63-3.5,1.365.665,2.381,1.015,3.78,1.225-.77,5.916-1.399,6.441-8.12,6.441-4.761,0-5.881-.595-5.881-3.045v-6.791h-4.516c-.455,2.1-1.12,3.641-2.17,5.041-1.75,2.31-3.851,3.71-8.156,5.391-.665-1.295-1.365-2.31-2.485-3.43,3.256-.91,4.936-1.715,6.476-3.115,1.226-1.085,1.961-2.205,2.485-3.885h-4.48c-1.61,0-2.52.035-3.675.21v-3.745c1.085.175,1.96.21,3.675.21h5.006c.035-.455.035-.7.035-1.085l.035-2.695ZM270.257,50.038c-.63,0-1.399.035-2.135.14,1.855,1.54,2.66,2.31,3.815,3.605,1.47-1.33,2.38-2.31,3.431-3.745h-5.111ZM284.224,57.319h.735c-2.485-2.03-4.025-3.64-5.951-6.336-1.96,2.73-3.43,4.305-5.915,6.336h11.131ZM276.593,63.585v.805h4.096v-3.781h-4.061l-.035,2.975Z"/><path class="cls-1" d="M311.838,64.39c-.104.42-.14.665-.21,1.505-.315,3.325-1.505,6.091-3.396,8.016-1.085,1.085-2.625,2.135-4.13,2.87-.945.455-1.82.77-3.78,1.33-.771-1.68-1.331-2.52-2.521-3.885,2.17-.315,3.29-.595,4.795-1.295,2.45-1.12,3.851-2.485,4.516-4.34.315-.945.561-2.31.561-3.29,0-.315-.035-.735-.105-1.12l4.271.21ZM298.467,67.155c.14-.805.175-1.575.175-2.52v-2.485c0-1.085-.035-1.785-.14-2.59,1.085.105,2.03.14,3.745.14h23.138c1.68,0,2.555-.035,3.78-.14-.105.735-.141,1.33-.141,2.485v2.555c0,1.05.035,1.785.176,2.555h-4.096v-4.06h-22.612v4.06h-4.025ZM311.698,48.323c0-1.26-.035-1.855-.175-2.695h4.27c-.175.7-.21,1.4-.21,2.695v.42h9.451c1.926,0,3.29-.07,4.2-.21v3.71c-1.085-.105-2.274-.175-4.095-.175h-9.557v2.31h7.807c1.785,0,2.66-.035,3.57-.175v3.605c-.98-.105-1.82-.14-3.57-.14h-19.147c-1.646,0-2.521.035-3.535.14v-3.605c.91.14,1.785.175,3.535.175h7.456v-2.31h-8.996c-1.855,0-2.94.035-4.131.175v-3.71c.91.14,2.275.21,4.235.21h8.892v-.42ZM318.979,72.756c0,.91.315,1.05,2.695,1.05,2.45,0,3.221-.14,3.535-.595.315-.455.455-1.4.631-4.34,1.189.595,2.24.945,3.745,1.19-.28,3.535-.806,5.426-1.75,6.301-.806.77-2.45,1.015-6.476,1.015-5.321,0-6.266-.455-6.266-3.01v-7.176c0-1.435-.035-2.17-.141-2.905h4.2c-.14.805-.175,1.435-.175,2.73v5.74Z"/><path class="cls-1" d="M346.873,68.1c.035-.735.07-1.085.07-1.505q0-.385-.105-2.485l-.49-11.901c-.069-1.54-.175-3.29-.314-4.27h5.74c-.104.945-.245,2.765-.315,4.27l-.489,11.901q-.07,2.03-.07,2.52c0,.42,0,.77.07,1.47h-4.096ZM346.383,75.766v-4.796h5.075v4.796h-5.075Z"/></g></svg>