<?xml version="1.0" encoding="UTF-8"?><svg id="_レイヤー_2" xmlns="http://www.w3.org/2000/svg" viewBox="0 0 262 80.922"><defs><style>.cls-1{fill:none;stroke:#000;stroke-linecap:round;stroke-miterlimit:10;stroke-width:2px;}.cls-2{fill:#fff;}.cls-3{fill:#ea5902;}</style></defs><g id="_レイヤー_1-2"><polygon class="cls-3" points="237.171 53.93 237.171 23.892 24.829 23.892 24.829 53.93 131 79.892 237.171 53.93"/><polyline class="cls-1" points="261 47.922 131 79.892 1 47.922"/><path class="cls-2" d="M53.912,42.014c-.63,0-.975.015-1.365.06v-1.605c.375.06.69.075,1.395.075h.36c-.21-.84-.36-1.23-.66-1.77l1.32-.33h-.705c-.66,0-1.005.015-1.41.06v-1.605c.375.06.72.075,1.44.075h1.14v-.225c0-.51-.015-.72-.075-1.095h1.815c-.06.36-.075.555-.075,1.095v.225h1.02c.705,0,1.005-.015,1.395-.075v1.605c-.405-.045-.765-.06-1.41-.06h-.615l1.275.36q-.09.195-.225.525-.09.15-.255.555c-.105.255-.165.36-.33.66h.3c.675,0,.99-.015,1.38-.075v1.605c-.42-.045-.735-.06-1.38-.06h-1.215v1.065h1.155c.645,0,.975-.015,1.365-.075v1.575c-.39-.045-.735-.06-1.365-.06h-.555c.45.525.825.84,1.545,1.32-.33.555-.495.87-.72,1.425-.75-.675-.99-.93-1.47-1.62q.015.195.03.585c0,.045.015.51.015.585v1.5c0,.525.03.885.09,1.245h-1.725c.045-.345.075-.705.075-1.185v-1.5c0-.285.015-.675.045-1.02-.615,1.155-1.305,1.935-2.475,2.775-.21-.615-.42-1.035-.765-1.53,1.14-.705,1.98-1.53,2.625-2.58h-.975c-.645,0-.96.015-1.365.075v-1.59c.39.06.69.075,1.395.075h1.515v-1.065h-1.56ZM55.067,38.444c.33.645.45.96.645,1.74l-1.335.36h2.055c.42-.78.615-1.26.84-2.1h-2.205ZM65.086,40.259c.66,0,1.035-.03,1.365-.09v1.665c-.375-.045-.615-.06-1.2-.06h-.375v6.045c0,.9.015,1.32.09,1.77h-1.755c.075-.465.09-.9.09-1.77v-6.045h-1.605c-.015,1.905-.195,3.48-.555,4.845-.3,1.17-.765,2.22-1.335,3.015-.6-.495-.855-.66-1.485-.99,1.425-1.74,1.8-3.705,1.8-9.39,0-1.26-.015-1.74-.09-2.34,1.695-.045,4.29-.705,5.055-1.275l1.23,1.455c-.165.045-.225.075-.495.165-1.2.45-2.145.675-4.11,1.02v1.98h3.375Z"/><path class="cls-2" d="M71.851,42.089c-.465.015-.63.03-1.005.06v-.66c-.885.6-1.44.915-2.64,1.455-.255-.54-.48-.9-.885-1.38,1.155-.435,1.86-.795,2.865-1.455-.84-.975-1.35-1.44-2.1-1.965l1.23-.915q.24.195.48.39v-1.56c.285.045.72.075,1.245.075h2.775c.705,0,.945-.015,1.29-.06.15.6.36.945.93,1.635.48-.48.585-.57.885-.96.21-.27.255-.315.315-.435q.075-.12.12-.195l1.38.765c-.045.06-.24.285-.585.69-.27.315-.735.78-1.11,1.125.405.345.57.48.885.72.645-.585,1.2-1.23,1.56-1.815l1.38.78c-.09.09-.12.135-.42.465-.39.48-.825.915-1.35,1.38.81.48,1.305.72,2.4,1.14-.345.45-.435.615-.84,1.485-1.23-.57-1.665-.81-2.475-1.35v.645c-.45-.045-.72-.06-1.44-.06v1.62h2.385c.735,0,1.125-.015,1.575-.09v1.605c-.465-.06-.9-.09-1.575-.09h-2.385v2.235c0,.315.015.345.24.405.195.06.45.075.96.075.825,0,1.185-.075,1.35-.285.135-.18.225-.675.27-1.5.585.285,1.02.435,1.62.525-.33,2.535-.6,2.76-3.48,2.76-2.04,0-2.52-.255-2.52-1.305v-2.91h-1.935c-.195.9-.48,1.56-.93,2.16-.75.99-1.65,1.59-3.495,2.31-.285-.555-.585-.99-1.065-1.47,1.395-.39,2.115-.735,2.775-1.335.525-.465.84-.945,1.065-1.665h-1.92c-.69,0-1.08.015-1.575.09v-1.605c.465.075.84.09,1.575.09h2.145c.015-.195.015-.3.015-.465l.015-1.155ZM70.712,37.559c-.27,0-.6.015-.915.06.795.66,1.14.99,1.635,1.545.63-.57,1.02-.99,1.47-1.605h-2.19ZM76.697,40.679h.315c-1.065-.87-1.725-1.56-2.55-2.715-.84,1.17-1.47,1.845-2.535,2.715h4.77ZM73.427,43.364v.345h1.755v-1.62h-1.74l-.015,1.275Z"/><path class="cls-2" d="M88.532,43.709c-.045.18-.06.285-.09.645-.135,1.425-.645,2.61-1.455,3.435-.465.465-1.125.915-1.77,1.23-.405.195-.78.33-1.62.57-.33-.72-.57-1.08-1.08-1.665.93-.135,1.41-.255,2.055-.555,1.05-.48,1.65-1.065,1.935-1.86.135-.405.24-.99.24-1.41,0-.135-.015-.315-.045-.48l1.83.09ZM82.802,44.894c.06-.345.075-.675.075-1.08v-1.065c0-.465-.015-.765-.06-1.11.465.045.87.06,1.605.06h9.915c.72,0,1.095-.015,1.62-.06-.045.315-.06.57-.06,1.065v1.095c0,.45.015.765.075,1.095h-1.755v-1.74h-9.689v1.74h-1.725ZM88.471,36.824c0-.54-.015-.795-.075-1.155h1.83c-.075.3-.09.6-.09,1.155v.18h4.05c.825,0,1.41-.03,1.8-.09v1.59c-.465-.045-.975-.075-1.755-.075h-4.095v.99h3.345c.765,0,1.14-.015,1.53-.075v1.545c-.42-.045-.78-.06-1.53-.06h-8.205c-.705,0-1.08.015-1.515.06v-1.545c.39.06.765.075,1.515.075h3.195v-.99h-3.855c-.795,0-1.26.015-1.77.075v-1.59c.39.06.975.09,1.815.09h3.81v-.18ZM91.592,47.293c0,.39.135.45,1.155.45,1.05,0,1.38-.06,1.515-.255.135-.195.195-.6.27-1.86.51.255.96.405,1.605.51-.12,1.515-.345,2.325-.75,2.7-.345.33-1.05.435-2.775.435-2.28,0-2.685-.195-2.685-1.29v-3.075c0-.615-.015-.93-.06-1.245h1.8c-.06.345-.075.615-.075,1.17v2.46Z"/><path class="cls-2" d="M103.547,45.299c.015-.315.03-.465.03-.645q0-.165-.045-1.065l-.21-5.1c-.03-.66-.075-1.41-.135-1.83h2.46c-.045.405-.105,1.185-.135,1.83l-.21,5.1q-.03.87-.03,1.08c0,.18,0,.33.03.63h-1.755ZM103.337,48.583v-2.055h2.175v2.055h-2.175Z"/><path class="cls-2" d="M114.992,42.944c-.975,0-1.365.015-1.89.075v-1.815c.555.09.885.105,1.92.105h2.715v-2.595h-1.83c-1.08,0-1.395.015-1.905.075v-1.815c.555.09.87.105,1.935.105h6.839c1.08,0,1.395-.015,1.95-.105v1.815c-.51-.06-.825-.075-1.92-.075h-3.225v2.595h4.17c1.02,0,1.365-.015,1.92-.105v1.815c-.525-.06-.915-.075-1.89-.075h-4.2v2.4c0,.9.075,1.125.405,1.275.285.135.75.195,1.545.195.54,0,1.455-.045,2.235-.12.57-.06.87-.105,1.395-.255l.045,1.905c-.105-.015-.195-.015-.255-.015q-.135,0-1.215.09c-.66.045-1.665.09-2.385.09-2.925,0-3.615-.495-3.615-2.61v-2.955h-2.745Z"/><path class="cls-2" d="M135.587,42.209c-.075,1.725-.405,2.97-1.05,4.035-.795,1.32-1.89,2.145-3.915,2.955-.39-.78-.585-1.05-1.23-1.665,1.785-.555,2.925-1.35,3.555-2.49.39-.69.615-1.635.66-2.835h-3.645c-1.02,0-1.365.015-1.905.075v-1.785c.57.09.9.105,1.935.105h8.775c1.02,0,1.365-.015,1.935-.105v1.785c-.54-.06-.885-.075-1.904-.075h-3.21ZM139.021,37.214c.57.87.75,1.23,1.05,2.1l-1.154.48c-.271-.81-.495-1.26-.99-2.055v.795c-.495-.06-.855-.075-1.905-.075h-4.545c-1.05,0-1.41.015-1.905.075v-1.83c.555.09.855.105,1.935.105h4.484c1.08,0,1.38-.015,1.936-.105v.93l1.095-.42ZM140.596,39.119c-.3-.78-.51-1.215-1.035-2.055l1.11-.435c.569.855.779,1.245,1.05,2.01l-1.125.48Z"/><path class="cls-2" d="M147.452,36.689q-.061.42-.15,3.36c-.105,2.925-.435,4.62-1.215,6.165-.51,1.035-1.08,1.8-2.07,2.775-.585-.75-.81-.975-1.515-1.455.735-.6,1.095-1.005,1.545-1.725,1.08-1.725,1.425-3.66,1.425-7.86,0-.825,0-.96-.06-1.365l2.04.105ZM151.427,36.509c-.075.435-.09.69-.105,1.425l-.074,8.535c1.05-.495,1.649-.945,2.295-1.71.689-.81,1.124-1.635,1.47-2.745.524.675.72.87,1.41,1.41-.615,1.485-1.396,2.61-2.386,3.495-.854.735-1.635,1.185-3.194,1.8-.33.12-.45.18-.646.27l-.96-1.02c.105-.435.12-.765.136-1.59l.074-8.46v-.45c0-.375-.015-.705-.06-.99l2.04.03Z"/><path class="cls-2" d="M163.186,37.454c-.06.18-.09.345-.194,1.155-.301,2.04-.676,3.705-1.186,5.13-.675,1.845-1.439,3.195-2.654,4.635-.721-.69-.96-.87-1.71-1.29.899-.9,1.515-1.815,2.145-3.195.645-1.395,1.17-3.255,1.41-5.145.09-.615.135-1.125.135-1.455v-.21l2.055.375ZM167.446,37.079c.045.84.285,2.13.63,3.45.721,2.745,1.71,4.665,3.346,6.48-.796.51-1.051.72-1.65,1.38-1.065-1.29-1.845-2.64-2.55-4.41-.646-1.575-1.17-3.585-1.425-5.46-.09-.57-.135-.855-.21-1.08l1.859-.36Z"/><path class="cls-2" d="M185.371,39.179c-.135.285-.149.375-.225.825-.255,1.725-.48,2.565-.945,3.63-.734,1.725-1.935,3.06-3.704,4.14-.9.555-1.681.9-2.985,1.35-.345-.765-.525-1.035-1.2-1.785,1.425-.345,2.25-.66,3.195-1.245,2.175-1.35,3.314-3.255,3.6-6.015h-7.319v1.935c0,.465.015.87.045,1.2h-2.01c.045-.375.074-.84.074-1.26v-2.175c0-.63-.015-1.02-.06-1.425.525.06.795.075,1.62.075h2.939v-1.29c0-.48-.015-.75-.075-1.095h2.085c-.045.255-.074.66-.074,1.08v1.29h2.699q1.11,0,1.471-.12l.869.885Z"/><path class="cls-2" d="M199.471,48.808c-1.245-1.53-2.97-3.21-4.605-4.455-1.694,1.89-3.419,3.21-5.714,4.335-.421-.78-.601-1.02-1.216-1.665,1.155-.45,1.875-.855,3-1.65,2.266-1.59,4.065-3.765,5.04-6.105l.165-.39q-.24.015-4.965.09c-.72.015-1.125.045-1.635.12l-.061-1.92c.421.075.705.09,1.32.09h.36l5.279-.075c.84-.015.96-.03,1.335-.165l.99,1.02c-.195.225-.315.435-.48.81-.689,1.605-1.425,2.91-2.34,4.14.945.63,1.755,1.26,2.775,2.175q.375.33,2.189,2.085l-1.439,1.56Z"/><path class="cls-2" d="M202.532,43.274c.645-.45,1.29-1.185,3.27-3.675.39-.48.646-.75.93-.945.405-.3.825-.45,1.2-.45.45,0,.9.195,1.35.57.21.18.54.525,1.006,1.08,1.364,1.605,2.819,3.09,4.484,4.59.765.675,1.14.975,1.635,1.26l-.915,2.13c-.149-.18-.21-.24-.435-.435-.78-.69-1.965-1.815-3.06-2.91-1.141-1.17-1.171-1.215-2.775-3.045-.93-1.065-1.02-1.14-1.305-1.14-.24,0-.391.135-.9.81-1.229,1.65-2.055,2.655-2.955,3.63-.165.18-.194.225-.314.405l-1.215-1.875Z"/><path d="M97.057,12.439c-.616-.687-1.583-1.401-2.591-1.919-.308-.168-.42-.21-.756-.351v.154c0,.882-.252,1.485-.785,1.891-.532.406-1.289.602-2.311.602-2.045,0-3.222-.798-3.222-2.185,0-1.527,1.387-2.423,3.74-2.423.336,0,.575.014.939.056q0-.168-.014-.336v-.308q-.014-.196-.028-.756c-.672.014-1.106.028-1.4.028-.854,0-1.373-.014-2.536-.098-.182-.014-.322-.014-.532-.014l.028-1.513c.602.14,1.933.238,3.264.238.28,0,.756-.014,1.148-.028,0-.126,0-.602-.014-1.401-.448.014-.672.014-.882.014-.687,0-2.493-.07-3.432-.14-.154-.014-.266-.014-.308-.014h-.224l.014-1.555c.714.182,2.157.294,3.768.294.224,0,.701-.014,1.051-.028-.014-1.401-.014-1.415-.07-1.765h1.779c-.07.378-.084.56-.098,1.708,1.905-.112,3.124-.266,4.034-.532l.07,1.555q-.308.014-1.106.126c-1.233.168-1.779.21-3.012.28.014.35.014.518.028,1.387q.7-.042,1.989-.182c.882-.112,1.106-.14,1.737-.308l.042,1.541c-.238.014-.588.056-.91.098-.21.028-.841.098-1.891.196-.196.014-.406.028-.953.056q.042,1.359.056,1.695c1.232.364,2.325.91,3.838,1.975.238.154.308.21.504.322l-.953,1.639ZM90.936,9.595c-1.135,0-1.821.364-1.821.967,0,.518.602.84,1.597.84.588,0,1.022-.168,1.219-.448.112-.182.168-.476.168-.896v-.336c-.462-.098-.742-.126-1.163-.126Z"/><path d="M108.34,6.359c0,.042.014.168.014.322.308.645.448,1.219.448,1.975,0,1.541-.729,2.857-2.087,3.796-.588.393-1.232.687-2.535,1.135-.393-.854-.532-1.064-.995-1.583,1.148-.224,1.723-.42,2.381-.798.953-.56,1.513-1.261,1.625-2.059-.406.645-1.135.995-2.06.995-.644,0-1.148-.154-1.625-.504-.659-.476-.967-1.092-.967-1.891,0-1.484,1.163-2.549,2.788-2.549.603,0,1.135.154,1.457.42q-.014-.056-.014-.168c-.014-.028-.014-.798-.014-1.191-2.003.056-3.32.098-3.936.154q-2.115.14-2.493.21l-.056-1.681c.308.028.434.028.687.028.35,0,.574,0,2.381-.07.911-.028,1.051-.028,2.199-.056q.462-.014,1.191-.028c-.014-1.331-.014-1.345-.084-1.708h1.765c-.056.42-.056.448-.07,1.653,2.438-.014,3.53-.028,4.048-.084l.014,1.611c-.518-.056-1.19-.07-2.353-.07-.336,0-.588,0-1.695.014v.911l-.014,1.218ZM104.18,7.606c0,.644.49,1.106,1.19,1.106.798,0,1.373-.532,1.373-1.261,0-.266-.084-.476-.267-.63-.238-.21-.574-.336-.938-.336-.77,0-1.358.49-1.358,1.121ZM110.693.364c.491.687.687,1.064.967,1.835l-1.135.266c-.224-.658-.532-1.261-.966-1.863l1.134-.238ZM112.234,2.115c-.21-.63-.504-1.19-.938-1.821l1.079-.294c.476.645.687,1.051.966,1.779l-1.106.336Z"/><path d="M115.294,12.803c-.014-.14-.014-.224-.07-.546-.266-1.639-.378-2.984-.378-4.455,0-1.261.084-2.493.266-3.712q.07-.42.378-2.003c.098-.49.154-.896.154-1.037v-.056l1.891.196c-.574,1.219-1.106,4.594-1.121,7.032q-.014.504-.014.729v.224c0,.112,0,.14-.014.294h.014q.07-.154.168-.406c.028-.098.098-.252.168-.476q.126-.294.266-.63c.028-.042.042-.084.168-.435l1.163.519c-.826,1.625-1.387,3.362-1.387,4.286,0,.098,0,.112.028.378l-1.681.098ZM118.46,3.628c.658.168,1.387.224,2.535.224.49,0,.798,0,1.289-.028,0-.827-.014-1.527-.014-2.101,0-.308-.014-.519-.042-.672l1.751-.042c-.07.392-.098,1.064-.098,2.059v.644c.728-.084,1.345-.196,1.891-.336q.084-.028.309-.112l.112-.028.056,1.583c-.14.014-.154.014-.406.07-.477.098-1.205.224-1.947.308v.308c0,.785,0,.812.14,3.166,1.009.476,1.359.672,2.199,1.274.182.126.252.168.392.238l-.672,1.695c-.238-.28-.658-.644-1.05-.896-.477-.308-.798-.518-.883-.574v.196c0,.308-.042.588-.112.784-.322.827-1.303,1.317-2.662,1.317-1.835,0-2.956-.869-2.956-2.297,0-1.359,1.191-2.311,2.886-2.311.518,0,.869.056,1.247.196-.042-.35-.056-1.037-.112-2.983-.561.014-.896.028-1.261.028-.519,0-1.079-.014-1.737-.07-.196,0-.35-.014-.42-.014-.126-.014-.21-.014-.238-.014-.07-.014-.112-.014-.14-.014-.014,0-.042,0-.084.014l.028-1.611ZM121.303,9.497c-.896,0-1.457.351-1.457.925,0,.518.504.868,1.289.868.518,0,.924-.154,1.134-.434.126-.168.182-.378.182-.756v-.378c-.462-.168-.728-.224-1.148-.224Z"/><path d="M133.216,10.758c0,.574-.028.911-.112,1.191-.126.49-.63.812-1.289.812-.882,0-1.947-.393-2.647-.995-.504-.435-.771-.98-.771-1.583,0-.658.434-1.401,1.205-2.073.504-.434,1.121-.798,2.045-1.19l-.014-2.157q-.112,0-.574.028c-.21.014-.406.014-.756.014-.21,0-.603-.014-.771-.014-.182-.014-.308-.014-.35-.014-.056,0-.168,0-.294.014l-.014-1.569c.392.084.952.126,1.695.126.14,0,.294,0,.49-.014.336-.014.406-.014.56-.014v-.924c0-.798-.014-1.163-.084-1.611h1.751c-.07.448-.084.742-.084,1.527v.896c1.051-.126,1.989-.308,2.703-.532l.057,1.569c-.252.042-.519.084-1.485.252-.462.084-.742.126-1.274.182v1.821c.953-.28,1.835-.392,2.857-.392,2.34,0,4.006,1.429,4.006,3.418,0,1.821-1.358,3.194-3.18,3.194-1.134,0-1.933-.546-2.297-1.555-.182-.476-.238-.938-.238-1.793.714-.196.952-.294,1.555-.616-.027.266-.027.392-.027.616,0,.588.056.967.195,1.233.154.294.49.476.883.476.826,0,1.415-.658,1.415-1.555,0-1.205-.98-1.989-2.479-1.989-.841,0-1.695.154-2.689.462l.014,2.759ZM131.633,8.503c-1.051.56-1.667,1.176-1.667,1.681,0,.238.14.448.462.645.28.196.63.308.896.308.238,0,.308-.126.308-.588v-2.045ZM139.393,5.673c-.7-1.107-1.723-2.213-2.802-3.026l1.316-.882c1.219.938,2.031,1.779,2.774,2.872l-1.289,1.037Z"/><path d="M142.075,5.883c.378.056.603.07,1.121.07h1.232c.42,0,.7-.014,1.064-.07-.042.434-.056.798-.056,1.541v2.815c.28.462.574.729,1.106,1.022.561.322,1.345.42,3.46.42,2.199,0,3.782-.084,5.183-.252-.238.63-.336,1.009-.42,1.625-1.093.056-3.698.112-4.735.112-3.165,0-4.174-.309-5.309-1.597-.63.603-.98.896-1.905,1.583-.084.042-.098.056-.266.196l-.687-1.639q.07-.042.224-.098c.309-.112,1.289-.798,1.892-1.345v-2.857h-.938c-.378,0-.589.014-.967.07v-1.597ZM143.391.771c1.177,1.064,1.499,1.387,2.438,2.563l-1.162,1.121c-.854-1.163-1.373-1.737-2.409-2.647l1.134-1.037ZM148.644,5.925c-.111,2.465-.518,3.81-1.54,5.197-.477-.532-.757-.798-1.205-1.135,1.009-1.247,1.316-2.717,1.316-6.289,0-1.022-.027-1.597-.069-2.017.321.014.35.014.434.014,1.009,0,3.166-.336,4.524-.714.519-.14.896-.294,1.148-.448l1.149,1.331c-1.541.56-3.446.938-5.716,1.148v1.471h4.637c.645,0,1.009-.014,1.443-.07v1.583c-.435-.042-.869-.07-1.387-.07h-.812v3.754c0,.729.027,1.163.084,1.499h-1.682c.057-.364.084-.771.084-1.499v-3.754h-2.409Z"/><path d="M165.642,1.891c-.238.168-.504.406-1.723,1.541-.715.658-1.695,1.443-3.334,2.689-.435.322-.532.434-.532.588,0,.21.027.238,1.261,1.163,2.185,1.653,2.591,2.003,4.412,3.656.14.14.224.21.406.35l-1.442,1.457c-.364-.504-.869-1.037-1.821-1.919-.995-.925-1.457-1.303-3.614-2.984-.924-.714-1.177-1.092-1.177-1.737,0-.42.154-.798.463-1.135.182-.196.195-.21,1.232-1.008,1.513-1.149,2.297-1.821,3.235-2.731.631-.63.785-.812,1.022-1.163l1.611,1.232Z"/><path d="M176.056,9.021c-.799,1.807-1.695,2.633-2.844,2.633-1.597,0-2.745-1.625-2.745-3.88,0-1.541.546-2.984,1.541-4.076,1.176-1.289,2.829-1.961,4.818-1.961,3.361,0,5.547,2.045,5.547,5.197,0,2.423-1.261,4.356-3.404,5.225-.672.28-1.218.42-2.199.588-.237-.743-.406-1.051-.854-1.639,1.288-.168,2.129-.392,2.787-.77,1.219-.672,1.947-2.003,1.947-3.502,0-1.345-.603-2.438-1.724-3.11-.434-.252-.798-.364-1.414-.42-.267,2.199-.757,4.132-1.457,5.715ZM173.997,4.006c-1.176.84-1.904,2.283-1.904,3.782,0,1.148.49,2.059,1.106,2.059.462,0,.938-.588,1.442-1.793.532-1.261.995-3.152,1.163-4.735-.729.084-1.233.28-1.808.687Z"/></g></svg>