<?xml version="1.0" encoding="UTF-8"?><svg id="_レイヤー_2" xmlns="http://www.w3.org/2000/svg" viewBox="0 0 345 50"><defs><style>.cls-1{fill:none;stroke:#fff;stroke-linecap:round;stroke-linejoin:round;stroke-width:.6px;}.cls-2{fill:#fff;}.cls-3{fill:#f08c00;}</style></defs><g id="_レイヤー_1-2"><polygon class="cls-3" points="0 50 345 50 335 25 345 0 0 0 10 25 0 50"/><path class="cls-2" d="M50.709,14.352c-.51,0-.84.011-1.209.061v-1.1c.35.05.72.07,1.279.07h2.639c-.01-.41-.02-.58-.07-.899h1.22c-.05.31-.06.52-.06.899h2.729c.62,0,1-.021,1.309-.07v1.1c-.33-.04-.75-.061-1.239-.061h-2.798v.561h2.089c.609,0,.799-.011,1.109-.04-.03.3-.04.629-.04,1.009v1.85q0,.56.04,1.02c-.29-.04-.57-.051-1.12-.051h-1.199c.89.84,1.949,1.359,3.468,1.709-.26.4-.35.58-.57,1.06-.81-.27-1.409-.539-2.049-.909-.74-.439-1.209-.819-1.749-1.439.01.33.02.52.02.689v.72c0,.51.01.8.07,1.14h-1.229c.05-.39.07-.68.07-1.14v-.72c0-.119.01-.489.02-.68-.51.63-1.12,1.13-1.909,1.58-.479.279-1.109.56-1.709.77-.22-.5-.31-.67-.56-1.01.75-.21,1.269-.41,1.879-.739.609-.33,1.089-.68,1.429-1.03h-1.08c-.62,0-.819.011-1.129.051q0-.101.03-.29,0-.04.01-.729v-1.839c0-.521-.01-.68-.04-1.03.27.04.51.051,1.089.051h1.969v-.561h-2.708ZM51.458,15.772v.609h1.959v-.609h-1.959ZM51.458,17.211v.63h1.959v-.63h-1.959ZM54.507,16.382h2.099v-.609h-2.099v.609ZM54.507,17.841h2.099v-.63h-2.099v.63Z"/><path class="cls-2" d="M60.339,16.691c-.419,0-.649.011-.909.04v-1.069c.25.04.459.05.929.05h.24c-.14-.56-.24-.819-.44-1.179l.879-.22h-.47c-.44,0-.669.01-.939.039v-1.069c.25.04.48.051.959.051h.76v-.15c0-.34-.01-.479-.05-.729h1.209c-.04.24-.05.37-.05.729v.15h.68c.47,0,.669-.011.929-.051v1.069c-.27-.029-.51-.039-.939-.039h-.41l.85.239q-.06.13-.15.35-.06.101-.17.37c-.07.17-.11.24-.22.439h.2c.45,0,.66-.01.919-.05v1.069c-.28-.029-.49-.04-.919-.04h-.81v.71h.77c.43,0,.649-.01.91-.05v1.049c-.26-.029-.49-.04-.91-.04h-.37c.3.351.549.561,1.029.88-.22.37-.33.58-.48.949-.5-.449-.66-.619-.979-1.079q.01.13.02.39c0,.03.01.34.01.39v1c0,.35.02.59.06.829h-1.149c.03-.229.05-.47.05-.789v-1c0-.189.01-.449.03-.68-.41.77-.869,1.29-1.649,1.85-.14-.41-.28-.69-.51-1.02.76-.47,1.319-1.02,1.749-1.72h-.649c-.43,0-.64.011-.91.051v-1.06c.26.04.46.05.93.05h1.009v-.71h-1.04ZM61.108,14.313c.22.43.3.64.43,1.159l-.89.239h1.369c.28-.52.41-.839.56-1.398h-1.469ZM67.785,15.522c.439,0,.689-.021.909-.061v1.109c-.25-.029-.41-.039-.799-.039h-.25v4.027c0,.6.01.88.06,1.18h-1.169c.05-.311.06-.6.06-1.18v-4.027h-1.069c-.01,1.269-.13,2.318-.37,3.228-.2.78-.51,1.479-.889,2.009-.4-.329-.57-.439-.99-.659.95-1.159,1.199-2.469,1.199-6.257,0-.84-.01-1.159-.06-1.559,1.129-.03,2.858-.47,3.368-.85l.819.969c-.11.03-.15.051-.33.11-.8.3-1.429.45-2.739.68v1.319h2.249Z"/><path class="cls-2" d="M70.399,17.631c0-.26.01-.459.03-1.139-.33.52-.46.699-.78,1.069-.16-.58-.22-.74-.45-1.21.72-.77,1.239-1.608,1.649-2.639.21-.549.33-.959.38-1.299l1.149.29c-.21.669-.49,1.359-.89,2.188v5.617c0,.439.02.779.07,1.159h-1.229c.06-.399.07-.659.07-1.169v-2.869ZM75.516,14.453c-.53-.45-1.169-.85-1.979-1.26l.77-.739c.8.38,1.429.75,2.099,1.239l-.75.76h1.509c.5,0,.86-.021,1.189-.061v1.12c-.35-.03-.729-.051-1.159-.051h-1.499v1.749h1.239c.439,0,.79-.02,1.109-.06v1.1c-.32-.03-.68-.05-1.1-.05h-1.249v2.099h1.729c.45,0,.859-.021,1.189-.06v1.119c-.359-.03-.699-.05-1.199-.05h-4.417c-.49,0-.819.02-1.189.05v-1.119c.32.039.72.06,1.149.06h1.619v-2.099h-1.06c-.419,0-.77.02-1.099.05v-1.1c.31.04.66.06,1.099.06h1.06v-1.749h-1.309c-.42,0-.79.021-1.14.051v-1.12c.31.051.6.061,1.129.061h2.259Z"/><path class="cls-2" d="M81.848,15.752c.45,0,.53,0,.72-.029-.02.18-.03.26-.05.439-.11,1.389-.32,2.238-.77,3.198.35.34.68.569,1.07.729.45.189.889.27,1.769.33.26.02.609.029.759.029,1.219,0,2.458-.05,3.408-.13-.17.45-.2.58-.27,1.109-.939.021-1.899.03-2.988.03-2.199,0-3.228-.31-4.228-1.259-.44.659-.709.979-1.279,1.488-.21-.359-.38-.579-.709-.919.62-.529.919-.85,1.289-1.409-.18-.26-.31-.49-.479-.83-.02-.04-.11-.199-.23-.449-.05-.09-.12-.25-.22-.439l.889-.47c.21.619.31.869.53,1.259.23-.569.33-.949.44-1.739h-.95c-.28,0-.57.011-.81.03q.62-1.01.86-1.469c.37-.7.45-.89.629-1.38h-1c-.27,0-.439.01-.68.05v-1.059c.23.039.42.05.71.05h1.059c.38,0,.55-.011.72-.04l.48.649c-.08.11-.09.13-.25.51-.2.47-.65,1.339-.879,1.719h.459ZM84.747,13.893h-1.169c-.27,0-.5.01-.709.04v-.89c.25.029.42.04.77.04h1.109c0-.32-.01-.43-.05-.66h1.099c-.03.19-.05.32-.05.66h1.469c.31,0,.54-.011.759-.03-.02.189-.03.38-.03.63v.729c.32,0,.49-.01.709-.061v.93c-.22-.04-.39-.05-.709-.05v.76c0,.229.01.449.03.6-.26-.01-.439-.021-.699-.021h-1.529v.57h1.549c.35,0,.56-.01.839-.04v.869c-.24-.029-.49-.04-.85-.04h-1.539v.59h1.899c.42,0,.64-.01.89-.05v.939c-.24-.03-.52-.04-.89-.04h-1.899c0,.45.01.6.05.84h-1.099c.04-.26.05-.45.05-.84h-1.439c-.42,0-.61.01-.86.04v-.939c.23.04.5.05.87.05h1.429v-.59h-1.189c-.3,0-.549.011-.799.051v-.88c.26.03.47.04.799.04h1.189v-.57h-1.219c-.27,0-.42.011-.64.03v-.869c.21.03.36.04.7.04h1.159v-.54h-1.539c-.43,0-.61.01-.859.04v-.909c.25.04.39.05.899.05h1.499v-.52ZM86.965,14.413v-.52h-1.219v.52h1.219ZM85.746,15.772h1.219v-.54h-1.219v.54Z"/><path class="cls-2" d="M90.209,21.259c-.01-.1-.01-.159-.05-.39-.189-1.169-.27-2.129-.27-3.178,0-.899.06-1.779.19-2.648q.05-.3.27-1.43c.07-.35.11-.64.11-.739v-.04l1.349.14c-.41.87-.79,3.278-.8,5.018q-.01.359-.01.52v.16c0,.08,0,.1-.01.21h.01q.05-.11.12-.29c.02-.07.07-.18.12-.34q.09-.21.19-.45c.02-.029.03-.06.12-.31l.83.37c-.59,1.159-.99,2.398-.99,3.058,0,.07,0,.08.02.271l-1.199.069ZM92.468,14.713c.47.12.989.16,1.809.16.35,0,.569,0,.919-.021,0-.59-.01-1.089-.01-1.499,0-.22-.01-.37-.03-.479l1.249-.03c-.05.28-.07.76-.07,1.47v.459c.52-.06.959-.14,1.349-.239q.06-.021.22-.08l.08-.021.04,1.13c-.1.01-.11.01-.29.05-.34.07-.86.16-1.389.22v.22c0,.56,0,.58.1,2.259.72.34.97.48,1.569.91.13.09.18.119.28.17l-.479,1.209c-.17-.2-.47-.46-.75-.64-.34-.22-.569-.37-.629-.41v.141c0,.22-.03.419-.08.56-.23.59-.93.939-1.899.939-1.309,0-2.109-.62-2.109-1.64,0-.969.85-1.648,2.059-1.648.37,0,.62.04.889.14-.03-.25-.04-.739-.08-2.129-.4.01-.64.02-.9.02-.37,0-.77-.01-1.239-.05-.14,0-.25-.01-.3-.01-.09-.01-.15-.01-.17-.01-.05-.01-.08-.01-.1-.01-.01,0-.03,0-.06.01l.02-1.149ZM94.497,18.9c-.64,0-1.04.25-1.04.66,0,.369.36.619.919.619.37,0,.66-.109.81-.31.09-.12.13-.27.13-.54v-.27c-.33-.12-.52-.16-.819-.16Z"/><path class="cls-2" d="M99.899,18.6c.919.699,1.479,1.249,2.249,2.199l-.93.869c-.729-.989-1.299-1.589-2.169-2.278l.85-.79Z"/><path class="cls-2" d="M105.529,21.01c-.78,0-.939.01-1.29.05.06-.57.13-.92.26-1.279.27-.729.72-1.369,1.37-1.959.35-.31.649-.54,1.649-1.21.919-.629,1.199-.959,1.199-1.469,0-.68-.53-1.1-1.379-1.1-.58,0-1.02.2-1.27.59-.17.24-.24.46-.31.92l-1.429-.17c.14-.76.32-1.17.689-1.6.5-.579,1.289-.89,2.289-.89,1.749,0,2.829.84,2.829,2.209,0,.66-.22,1.14-.709,1.6-.28.26-.38.34-1.679,1.229-.44.311-.939.729-1.189,1-.3.319-.42.52-.57.899h2.799c.629,0,1.129-.03,1.459-.08v1.319c-.47-.04-.87-.06-1.509-.06h-3.208Z"/><path class="cls-2" d="M112.269,20.359c-.3-.3-.53-.649-.66-1.009-.26-.71-.39-1.489-.39-2.299,0-1.06.24-2.159.609-2.769.54-.899,1.439-1.39,2.549-1.39.85,0,1.579.28,2.109.81.3.3.53.649.66,1.01.26.699.39,1.499.39,2.318,0,1.229-.27,2.309-.74,2.959-.56.779-1.389,1.179-2.429,1.179-.849,0-1.569-.279-2.099-.81ZM115.457,19.59c.45-.47.7-1.399.7-2.568,0-1.159-.25-2.068-.7-2.559-.24-.27-.64-.42-1.089-.42-.479,0-.83.16-1.119.51-.44.52-.66,1.34-.66,2.429,0,1.05.19,1.919.51,2.379.31.439.729.649,1.279.649.439,0,.83-.149,1.079-.42Z"/><path class="cls-2" d="M120.908,21.01c.06-.391.08-.78.08-1.3v-5.507h-.48c-.37,0-.659.02-1.029.06v-1.269c.31.05.53.06,1,.06h.919c.51,0,.66-.01,1.02-.05-.06.59-.08,1.049-.08,1.648v5.058c0,.53.02.89.08,1.3h-1.509Z"/><path class="cls-2" d="M130.187,15.003c-.26-.729-.629-1.01-1.339-1.01s-1.229.35-1.569,1.039c-.25.521-.36,1-.41,1.77.54-.729,1.129-1,2.139-1,1.02,0,1.879.44,2.319,1.189.24.39.36.91.36,1.499,0,1.58-1.199,2.699-2.898,2.699-.8,0-1.539-.24-2.029-.66-.74-.64-1.16-1.839-1.16-3.348,0-1.229.31-2.409.82-3.089.589-.799,1.389-1.189,2.438-1.189.859,0,1.569.261,2.049.76.26.271.41.5.63,1.02l-1.35.32ZM127.068,18.49c0,.91.71,1.58,1.689,1.58.58,0,1.09-.261,1.37-.7.15-.229.229-.56.229-.909,0-.989-.589-1.569-1.579-1.569-.979,0-1.709.68-1.709,1.599Z"/><path class="cls-2" d="M134.289,16.372c0-.22-.01-.37-.03-.58.209.021.43.03.699.03h2.179v-1.3h-2.088c-.52.81-1.01,1.39-1.649,1.97-.29-.43-.4-.561-.74-.89,1.02-.87,1.54-1.529,1.949-2.509.14-.32.21-.529.24-.729l1.189.239c-.06.12-.08.15-.15.3-.01.03-.11.24-.29.63h4.678c.47,0,.719-.01,1.02-.05v1.09c-.31-.04-.57-.051-1.02-.051h-2.039v1.3h1.609c.459,0,.729-.01,1.029-.05v1.06c-.3-.03-.57-.04-1-.04h-1.639v1.619h2.319c.459,0,.779-.021,1.089-.061v1.14c-.31-.04-.66-.06-1.089-.06h-2.319v1.249c0,.51.01.779.06,1.069h-1.219c.04-.29.06-.56.06-1.09v-1.229h-3.358c-.44,0-.76.02-1.089.06v-1.14c.32.04.64.061,1.089.061h.51v-2.039ZM137.137,18.411v-1.619h-1.799v1.619h1.799Z"/><path class="cls-2" d="M147.227,12.674c-.05.33-.07.819-.07,1.549,0,.141,0,.17.01.65,1.199-.011,2.299-.13,2.928-.34l.1,1.209q-.2.01-.65.06c-.839.11-1.559.16-2.349.181.02.779.04,1.229.11,2.208.56.17,1.03.38,1.559.68.36.2.53.32,1.29.85.13.09.18.13.3.2l-.78,1.129c-.18-.22-.34-.369-.709-.659-.479-.37-.79-.569-1.319-.819-.13-.07-.21-.11-.32-.18.01.079.02.17.02.319,0,1.119-.79,1.709-2.279,1.709-1.02,0-1.729-.29-2.099-.859-.15-.25-.25-.58-.25-.89,0-1.039,1.029-1.789,2.469-1.789.37,0,.729.04.93.101q-.01-.03-.01-.101c-.04-.359-.13-3.088-.14-4.338-.01-.499-.01-.6-.05-.879l1.31.01ZM145.208,18.95c-.75,0-1.25.3-1.25.74,0,.239.11.399.34.52.19.09.46.149.729.149.38,0,.71-.1.91-.27.14-.12.21-.31.21-.56,0-.18-.01-.46-.01-.47-.37-.09-.549-.11-.929-.11Z"/><path class="cls-2" d="M154.027,12.723c-.12.34-.17.6-.359,1.929-.07.42-.11.76-.13,1h.03q.02-.06.06-.22c.1-.35.36-.84.629-1.189.55-.68,1.169-1.02,1.899-1.02.68,0,1.279.319,1.709.899.5.67.72,1.479.72,2.658,0,1.93-.899,3.368-2.579,4.108-.51.229-1.209.43-1.959.56-.2-.569-.31-.79-.589-1.18,1-.109,1.579-.26,2.188-.569,1.16-.59,1.689-1.539,1.689-3.059,0-1.439-.48-2.238-1.339-2.238-.38,0-.729.17-1.08.529-.779.81-1.259,2.039-1.259,3.229v.21l-1.199.02c.01-.06.01-.109.01-.13v-.189c-.01-.29-.03-1.029-.03-1.229,0-.81.06-1.919.14-2.608l.15-1.239c.02-.17.03-.21.03-.34l1.269.069Z"/><path class="cls-2" d="M164.147,20.019c0,.15.02.221.09.28.15.1.6.13,2.019.13,1.259,0,1.729-.05,1.889-.18.14-.12.22-.38.26-.91-.48-.01-.53-.01-.61-.01h-1.969c-.55.01-.89.021-1.009.03.02-.24.03-.53.03-.939v-4.258c0-.479-.01-.819-.03-1.09.24.04.52.051,1.029.051h1.879c.54,0,.82-.011,1.06-.051-.02.32-.03.54-.03,1.22v3.908c0,.369,0,.55.01.799.33.13.45.17.709.221-.09,1.059-.21,1.519-.49,1.799-.32.33-.83.409-2.449.409-2.139,0-2.668-.04-3.068-.21-.3-.13-.399-.329-.399-.829v-.08l.1-4.787h-.709c-.05,1.289-.19,2.559-.38,3.368-.13.59-.34,1.219-.56,1.709-.19.42-.33.659-.66,1.1-.13-.21-.16-.24-.42-.53-.209-.22-.24-.25-.45-.39.58-.709.91-1.449,1.14-2.559.16-.77.24-1.559.28-2.698h-.32c-.42,0-.65.01-.879.05v-1.169c.28.04.439.05.859.05h.37c.01-.25.01-.28.01-.52,0-.71-.02-1.05-.06-1.35h1.169q-.05.31-.07,1.869h.62c.62,0,.92-.01,1.16-.05-.03.449-.03.55-.04,1.029l-.08,4.587ZM165.866,15.682h1.859v-1.59h-1.859v1.59ZM165.866,18.36h1.859v-1.759h-1.859v1.759Z"/><path class="cls-2" d="M171.628,17.681c0-.351,0-.45.02-1.12-.23.36-.64.88-1.029,1.3-.2-.59-.23-.64-.53-1.18.64-.649.969-1.079,1.399-1.779.529-.879.899-1.799,1.009-2.479l1.169.34c-.09.2-.13.31-.22.55-.229.64-.27.729-.719,1.739v5.367c0,.409.02.859.06,1.279h-1.229c.05-.44.07-.819.07-1.3v-2.718ZM175.586,20.09c0,.27.181.33.979.33.899,0,1.26-.061,1.39-.22.17-.23.229-.62.279-1.829.391.189.73.31,1.08.39-.08,1.239-.22,1.898-.46,2.198-.31.38-.859.49-2.479.49s-1.919-.17-1.919-1.079v-6.587c0-.5-.021-.909-.061-1.199h1.25c-.04.3-.061.68-.061,1.199v2.229c1.149-.609,2.179-1.419,2.729-2.148l.87.88c-.08.06-.12.1-.22.18-1.09.979-2.029,1.629-3.379,2.339v2.828Z"/><path class="cls-2" d="M188.735,15.971q-.061.15-.22.53c-.44,1.079-.84,1.809-1.35,2.498.189.351.39.63.6.86.17.18.39.359.45.359.039,0,.079-.06.13-.189q.069-.23.189-1.17c.34.34.47.439.899.67-.229,1.35-.579,1.938-1.129,1.938-.51,0-1.3-.669-1.879-1.608-.75.739-1.529,1.309-2.419,1.749-.31-.46-.42-.58-.76-.87,1.05-.43,1.929-1.029,2.688-1.839-.42-1.029-.64-2.229-.749-3.987h-3.099q-.01.959-.021,1.319h1.84c.35,0,.499-.011.709-.04-.02.18-.04.459-.06.85-.101,1.799-.16,2.328-.33,2.748-.16.399-.52.55-1.289.55-.28,0-.44-.01-.76-.03-.05-.43-.11-.67-.26-1.06.529.07.68.08.97.08.31,0,.399-.06.449-.31.08-.35.13-1,.15-1.81h-1.46c-.069,1.14-.159,1.829-.31,2.509-.18.8-.38,1.25-.819,1.949-.31-.399-.51-.59-.869-.85.35-.54.56-1.01.689-1.579.199-.84.3-2.169.3-3.948,0-.77-.01-1.019-.061-1.419.36.03.77.05,1.29.05h2.898c-.011-.079-.011-.34-.03-.779-.01-.37-.01-.41-.05-.63h1.189c-.03.21-.051.62-.051.95v.459h1.319c-.279-.369-.47-.579-.879-.919l.77-.49c.46.39.63.56,1.009,1.05l-.52.359h.3c.53,0,.8-.01,1.06-.06v1.1c-.33-.03-.71-.05-1.219-.05h-1.8c.09,1.309.23,2.229.46,2.988.5-.81.84-1.64.96-2.339l1.069.409Z"/><path class="cls-2" d="M192.589,15.752c.449,0,.529,0,.719-.029-.02.18-.029.26-.05.439-.109,1.389-.319,2.238-.77,3.198.35.34.68.569,1.069.729.45.189.89.27,1.77.33.26.02.609.029.76.029,1.219,0,2.458-.05,3.408-.13-.17.45-.2.58-.271,1.109-.939.021-1.898.03-2.988.03-2.198,0-3.229-.31-4.228-1.259-.439.659-.71.979-1.279,1.488-.21-.359-.38-.579-.71-.919.62-.529.92-.85,1.29-1.409-.181-.26-.311-.49-.48-.83-.02-.04-.109-.199-.229-.449-.05-.09-.12-.25-.22-.439l.89-.47c.21.619.31.869.529,1.259.229-.569.33-.949.439-1.739h-.949c-.279,0-.569.011-.81.03q.62-1.01.859-1.469c.37-.7.45-.89.63-1.38h-.999c-.271,0-.44.01-.68.05v-1.059c.229.039.419.05.709.05h1.06c.38,0,.55-.011.72-.04l.479.649c-.08.11-.09.13-.25.51-.199.47-.649,1.339-.879,1.719h.46ZM195.487,13.893h-1.17c-.27,0-.5.01-.71.04v-.89c.25.029.42.04.771.04h1.109c0-.32-.011-.43-.051-.66h1.1c-.03.19-.05.32-.05.66h1.469c.311,0,.54-.011.76-.03-.02.189-.029.38-.029.63v.729c.319,0,.489-.01.709-.061v.93c-.22-.04-.39-.05-.709-.05v.76c0,.229.01.449.029.6-.26-.01-.439-.021-.699-.021h-1.529v.57h1.549c.35,0,.56-.01.84-.04v.869c-.24-.029-.49-.04-.85-.04h-1.539v.59h1.898c.42,0,.641-.01.89-.05v.939c-.239-.03-.52-.04-.89-.04h-1.898c0,.45.01.6.05.84h-1.1c.04-.26.051-.45.051-.84h-1.439c-.42,0-.61.01-.859.04v-.939c.229.04.499.05.869.05h1.43v-.59h-1.189c-.3,0-.55.011-.8.051v-.88c.26.03.47.04.8.04h1.189v-.57h-1.22c-.27,0-.42.011-.64.03v-.869c.21.03.359.04.699.04h1.16v-.54h-1.54c-.43,0-.609.01-.859.04v-.909c.25.04.39.05.899.05h1.5v-.52ZM197.706,14.413v-.52h-1.22v.52h1.22ZM196.486,15.772h1.22v-.54h-1.22v.54Z"/><path class="cls-2" d="M202.979,15.292c.31.68.709,1.189,1.369,1.779-.24.31-.37.54-.55.93-.439-.5-.51-.609-.939-1.379.06.619.07.89.07,1.659v2.288c0,.47.02.84.06,1.159h-1.159c.04-.31.06-.689.06-1.159v-1.979q.01-.38.01-.55,0-.35.061-1.029c-.34,1.049-.779,1.929-1.319,2.608-.15-.45-.32-.8-.56-1.14.55-.669.829-1.129,1.209-1.959.21-.47.29-.659.479-1.229h-.499c-.36,0-.63.021-.91.061v-1.09c.28.04.51.051.95.051h.579v-.85c0-.4-.02-.68-.06-.979h1.159c-.04.279-.06.539-.06.979v.85h.539c.29,0,.53-.021.779-.051v1.08c-.249-.03-.509-.051-.77-.051h-.499ZM205.577,15.312c-.47,0-.8.02-1.069.05v-1.079c.289.03.609.05,1.079.05h1.439v-.62c0-.499-.021-.81-.07-1.199h1.209c-.04.36-.05.729-.05,1.199v.62h.3c.44,0,.74-.02.989-.06v1.099c-.249-.04-.579-.06-.989-.06h-.29l.03,5.167c0,.54-.12.819-.409.96-.19.09-.5.13-1.06.13-.33,0-.66-.011-1.01-.04-.05-.44-.1-.68-.26-1.09.489.08.76.101,1.1.101.459,0,.55-.04.55-.25l-.021-3.729c-.2.41-.55.97-.939,1.489-.54.71-1.089,1.249-1.909,1.879-.26-.39-.399-.56-.729-.89,1.489-1.02,2.489-2.198,3.158-3.728h-1.049Z"/><path class="cls-2" d="M214.297,18.56c-.569,1.289-1.209,1.879-2.028,1.879-1.14,0-1.959-1.159-1.959-2.769,0-1.1.39-2.129,1.099-2.908.84-.919,2.02-1.399,3.438-1.399,2.398,0,3.958,1.459,3.958,3.708,0,1.729-.899,3.108-2.429,3.729-.479.199-.87.3-1.569.419-.17-.529-.29-.749-.609-1.169.919-.12,1.519-.28,1.988-.55.87-.479,1.39-1.429,1.39-2.498,0-.96-.43-1.739-1.229-2.219-.31-.181-.569-.261-1.01-.3-.189,1.568-.539,2.948-1.039,4.077ZM212.828,14.982c-.84.6-1.359,1.629-1.359,2.699,0,.819.35,1.469.789,1.469.33,0,.67-.42,1.029-1.279.38-.899.71-2.249.83-3.378-.52.06-.88.199-1.289.489Z"/><path class="cls-2" d="M225.706,21.01c-.06-.33-.17-.76-.279-1.05l-.4-1.09h-3.198l-.399,1.09c-.18.479-.22.63-.3,1.05h-1.639c.149-.271.35-.72.529-1.18l2.199-5.767c.189-.5.27-.75.319-1.01h1.739c.05.24.109.399.34,1.01l2.219,5.767c.25.64.37.919.51,1.18h-1.64ZM223.598,14.762c-.04-.11-.07-.229-.18-.56q-.16.47-.19.56l-1.039,2.958h2.479l-1.069-2.958Z"/><path class="cls-2" d="M233.816,21.079c-.359-.05-.71-.069-1.419-.069h-2.959c-.56,0-.909.01-1.269.029.06-.369.08-.739.08-1.319v-5.187c0-.689-.021-1.05-.08-1.479h1.509c-.06.41-.08.739-.08,1.469v5.277h2.799c.68,0,.999-.02,1.419-.069v1.349Z"/><path class="cls-2" d="M241.396,18.581c-.189.719-.37,1.109-.67,1.499-.569.699-1.529,1.089-2.729,1.089-1.089,0-1.959-.329-2.568-.959-.699-.729-1.089-1.859-1.089-3.139,0-1.319.419-2.479,1.169-3.228.6-.61,1.499-.95,2.499-.95.779,0,1.369.15,1.919.479.449.28.81.65,1.059,1.09.12.21.19.39.311.77l-1.39.32c-.14-.44-.229-.63-.43-.86-.34-.409-.84-.619-1.459-.619-1.419,0-2.279,1.109-2.279,2.948,0,1.829.88,2.969,2.279,2.969.699,0,1.299-.271,1.619-.74.17-.25.25-.459.33-.919l1.429.25Z"/><path class="cls-2" d="M244.588,16.092c.47.37.75.63,1.089,1.01.3-.75.45-1.3.64-2.369h-1.459c-.46,1.17-1.06,2.129-1.919,3.089-.199-.44-.3-.58-.659-.96.81-.829,1.419-1.879,1.829-3.108.13-.399.26-.999.289-1.309l1.149.199c-.069.2-.109.32-.18.58-.069.229-.109.37-.17.56h1.439c.38,0,.569-.01.81-.03-.04.21-.04.25-.09.68.27.59.449.85.979,1.449v-2.219c0-.51-.021-.779-.07-1.149h1.229c-.06.37-.07.63-.07,1.149v3.248c.271.2.47.33.95.61.729.43.85.479,1.349.669-.22.311-.399.66-.579,1.09-.82-.43-1.12-.62-1.72-1.06v2.159c0,.6.021.89.07,1.329h-1.229c.05-.43.07-.77.07-1.329v-3.078c-.6-.59-.859-.899-1.199-1.449-.28,1.299-.729,2.408-1.35,3.338-.609.899-1.469,1.769-2.499,2.498-.239-.39-.479-.669-.789-.909.52-.31.699-.449,1.18-.879.729-.66,1.109-1.12,1.519-1.829-.369-.45-.709-.77-1.209-1.17l.6-.81Z"/><path class="cls-2" d="M256.307,18.69c0-.22-.01-.399-.04-.56q-.3-.01-.52-.01h-1.199c-.39,0-.59.01-.869.03.02-.25.029-.41.029-.84v-1.199c-.18.829-.42,1.389-.869,2.019-.21-.37-.42-.619-.72-.859.6-.75.84-1.839.84-3.768,0-.38-.011-.54-.04-.771.21.021.479.03.89.03h1.868c.38,0,.67-.01.87-.03-.03.17-.04.42-.04.771v.919c0,.41,0,.58.02.76-.119-.01-.409-.021-.759-.021h-1.93q-.04.351-.06.55c.16.021.31.021.58.021h1.309c.51,0,.66-.01.85-.04-.02.21-.02.34-.02.8v.889c0,.4,0,.55.02.7h.899c-.05.189-.06.34-.06.609v.11h2.068c.54,0,.74-.01,1.03-.061v.99c-.33-.04-.561-.051-1.03-.051h-2.068v.8h2.738c.54,0,.859-.01,1.149-.05v1.039c-.35-.04-.739-.06-1.229-.06h-6.437c-.479,0-.859.02-1.219.06v-1.039c.3.03.64.05,1.159.05h2.788v-.8h-2.059c-.47,0-.699.011-1.029.051v-.99c.29.051.489.061,1.029.061h2.059v-.11ZM255.527,14.352v-.749h-1.579v.24c0,.199,0,.249-.03.509h1.609ZM254.538,17.321h1.069v-.819h-1.069v.819ZM258.405,13.053c0-.25-.02-.41-.05-.59h1.109c-.04.15-.05.3-.05.6v.101h.77c.38,0,.67-.021.92-.051v.96c-.18-.03-.29-.03-.59-.04-.17.51-.24.71-.39.999h.39c.359,0,.6-.01.819-.05v.96c-.25-.03-.47-.04-.859-.04h-1.05v.689h.87c.39,0,.51-.01.749-.04v.949c-.26-.04-.39-.05-.77-.05h-.85v.1c0,.4.021.64.061.87h-1.119c.039-.27.05-.479.05-.87v-.1h-.729c-.311,0-.5.01-.77.05v-.949c.26.03.39.04.789.04h.71v-.689h-.899c-.34,0-.58.01-.83.04v-.95c.22.03.39.04.779.04h.271c-.101-.34-.18-.539-.41-.999-.22.01-.33.01-.489.04v-.96c.239.03.529.051.909.051h.659v-.11ZM259.215,15.032c.15-.35.24-.6.32-.999h-1.239c.17.39.25.63.35.999h.569Z"/><path class="cls-2" d="M262.629,13.703c.41.09,1.05.13,2.319.13.27-.6.359-.899.399-1.239l1.31.14q-.061.101-.4.9c-.05.109-.069.14-.09.18q.08-.01.63-.04c1.159-.07,2.068-.18,2.618-.34l.07,1.14q-.28.02-.789.079c-.73.091-1.999.17-3.009.2-.29.57-.569.97-.92,1.329l.011.021q.069-.05.199-.15c.37-.279.899-.449,1.409-.449.78,0,1.27.369,1.43,1.06.77-.28,1.279-.46,1.529-.54.539-.19.579-.2.739-.3l.47,1.149c-.279.04-.579.12-1.109.27-.14.04-.64.21-1.499.51v.11q.01.26.01.399v.399c-.01.17-.01.261-.01.33,0,.22.01.36.03.53l-1.16.029c.04-.18.061-.689.061-1.159v-.239c-.49.229-.75.369-.96.52-.35.26-.52.529-.52.819,0,.52.479.729,1.689.729,1.199,0,2.229-.149,2.938-.42l.1,1.289c-.17,0-.22.011-.46.04-.72.11-1.679.181-2.559.181-1.06,0-1.719-.12-2.229-.42-.46-.26-.729-.74-.729-1.289,0-.41.12-.73.439-1.11.45-.56,1.02-.939,2.149-1.409-.051-.369-.25-.539-.61-.539-.579,0-1.279.35-2.049,1.029-.42.35-.649.6-.869.909l-.909-.899c.26-.2.549-.479.899-.89.39-.459.999-1.329,1.199-1.709q.04-.08.08-.13c-.04,0-.17.01-.17.01-.16,0-1.04-.02-1.26-.02q-.189-.01-.279-.01c-.03,0-.091,0-.16.01l.02-1.14Z"/><path class="cls-2" d="M275.498,18.161c-.43,0-.7.01-1,.04v-.68q-.439.189-.669.279v2.879c0,.409-.08.64-.261.779-.18.15-.479.2-1.109.2-.17,0-.31-.01-.6-.021-.04-.439-.09-.64-.229-1.029.35.05.54.061.79.061.279,0,.34-.061.34-.3v-2.169c-.32.109-.34.12-.641.21-.159.06-.27.1-.399.149l-.16-1.129c.32-.04.67-.13,1.2-.29v-1.819h-.431c-.229,0-.459.021-.729.05v-1.079c.24.04.46.06.75.06h.41v-.819c0-.479-.011-.699-.061-1.02h1.189c-.05.311-.06.54-.06,1.01v.829h.22c.25,0,.39-.01.55-.039v1.039c-.17-.021-.3-.03-.55-.03h-.22v1.439c.31-.12.419-.16.759-.32v.73c.24.02.48.029.91.029h1.438v-.109c0-.28-.01-.44-.05-.61h1.14c-.04.17-.05.311-.05.61v.109h1.688c.36,0,.7-.02.99-.06v1.069c-.29-.03-.65-.05-.99-.05h-1.239c.32.479.57.76,1,1.1.46.379.939.669,1.519.929-.27.42-.39.64-.539,1.05-.47-.27-.979-.63-1.39-.989-.46-.41-.76-.79-1.069-1.34.021.3.03.521.03.75v1.039c0,.41.02.72.06,1.04h-1.159c.04-.33.06-.67.06-1.05v-1.01c0-.239.011-.399.03-.759-.5.929-1.14,1.579-2.289,2.338-.209-.399-.399-.659-.659-.919,1.069-.53,1.839-1.22,2.448-2.179h-.969ZM280.465,13.393c-.09.02-.109.03-.229.07-1.52.449-3.158.699-5.337.81-.13-.48-.19-.63-.38-.96,1.149-.01,2.588-.13,3.508-.3.68-.13,1.299-.319,1.669-.52l.77.899ZM275.478,16.702c-.239-.79-.409-1.21-.77-1.85l.89-.319c.37.609.52.959.81,1.799l-.93.37ZM277.247,16.271c-.141-.699-.25-1.039-.58-1.729l.949-.25c.271.52.44.989.62,1.729l-.989.249ZM278.456,16.452c.58-.859.83-1.39,1.119-2.369l1.02.41c-.43,1.049-.72,1.589-1.229,2.328l-.909-.369Z"/><path class="cls-2" d="M283.288,18.57c-.14,1.33-.439,2.27-1.02,3.158-.42-.399-.56-.51-.969-.789.359-.52.589-1.05.729-1.689.1-.47.17-.989.199-1.529.051-.839.09-2.259.09-3.438,0-.72-.01-1.04-.05-1.449.351.03.61.04,1.149.04h5.607c.56,0,.839-.01,1.149-.04-.03.34-.04.59-.04,1.129v6.566c0,.83-.3,1.04-1.439,1.04-.31,0-.819-.021-1.119-.04-.05-.38-.12-.62-.28-1.04.5.051.939.08,1.26.08.409,0,.499-.04.499-.25v-1.749h-2.398v1.64c0,.579.01.899.05,1.189h-1.179c.04-.3.06-.59.06-1.18v-1.649h-2.299ZM285.587,16.212h-2.209c0,.29-.01.49-.01.63-.01.47-.01.539-.01.739h2.229v-1.369ZM285.587,13.923h-2.179v1.03l-.01.279h2.188v-1.31ZM289.055,15.232v-1.31h-2.398v1.31h2.398ZM289.055,17.581v-1.369h-2.398v1.369h2.398Z"/><path class="cls-2" d="M294.778,19.979c0,.939-.76,1.699-1.689,1.699s-1.688-.76-1.688-1.699c0-.929.759-1.688,1.688-1.688.939,0,1.689.76,1.689,1.688ZM292.18,19.979c0,.51.41.92.909.92s.91-.41.91-.92c0-.499-.41-.909-.91-.909s-.909.41-.909.909Z"/><path class="cls-2" d="M37.981,33.701v-5.287h2.988v1.09h-1.799v4.197h-1.189Z"/><path class="cls-2" d="M41.584,33.021c.26-.869.35-1.459.36-2.599l.83.17c-.09,1.52-.15,1.979-.39,2.818l-.799-.39ZM43.983,36.63c0,.47.02.759.06,1.109h-1.169c.05-.32.07-.78.07-1.26v-6.937c0-.449-.02-.699-.07-1.059h1.169c-.05.35-.06.6-.06,1.059v.99l.59-.271c.29.66.479,1.14.629,1.64l-.739.359c-.13-.59-.27-1.009-.48-1.489v5.857ZM48.031,33.771c.34.729.85,1.389,1.489,1.908.5.41.89.64,1.529.899-.27.4-.41.67-.59,1.13-.72-.359-1.109-.64-1.639-1.13-.66-.609-1.099-1.229-1.439-1.988-.28.84-.64,1.459-1.16,2.009-.43.46-.919.84-1.479,1.149-.22-.43-.36-.62-.689-.96,1.289-.629,2.089-1.619,2.438-3.018h-.85c-.44,0-.859.02-1.169.06v-1.159c.27.03.64.05,1.169.05h1.009c.05-.58.07-1.01.08-1.769h-.62c-.42,0-.819.02-1.069.05v-1.14c.28.03.68.05,1.1.05h.589v-.54c0-.339-.02-.619-.06-.879h1.189c-.04.279-.06.51-.06.869v.55h1.489c.35,0,.64-.01.87-.04-.03.25-.04.51-.04.87v1.979c.35,0,.61-.02.879-.06v1.169c-.33-.04-.719-.06-1.099-.06h-1.869ZM49.04,32.721v-1.769h-1.239c-.01.579-.03,1.239-.07,1.769h1.309Z"/><path class="cls-2" d="M51.754,32.282c.25.04.41.05.799.05h.729c.3,0,.52-.01.76-.05-.03.31-.04.56-.04,1.089v2.159c.15.27.26.399.43.529.21.15.43.25.65.3.45.09.969.141,1.619.141,2.009,0,3.308-.061,4.417-.2-.19.479-.22.59-.3,1.14-.989.04-2.089.06-3.188.06-1.689,0-2.349-.05-2.888-.21-.5-.149-.89-.42-1.27-.909-.41.399-.83.749-1.429,1.199l-.49-1.14c.37-.149.88-.51,1.399-.979v-2.148h-.53c-.27,0-.43.01-.669.05v-1.079ZM52.594,28.584c.74.67,1.109,1.05,1.709,1.819l-.83.81c-.6-.82-1.029-1.3-1.679-1.879l.799-.75ZM57.042,35.25v.46h-.899c.02-.21.03-.38.03-.659v-1.21c0-.31-.01-.439-.03-.659.169.02.33.029.699.029h.29v-.489h-.44c-.33,0-.549.01-.819.04v-.81c.25.03.479.04.819.04h.44v-.479h-1.469v3.397c0,.46.01.939.04,1.13h-1.08c.02-.271.04-.71.04-1.13v-3.228c0-.521-.01-.72-.03-1.04.29.021.53.03,1.039.03h.28c-.1-.24-.18-.42-.29-.63h-.3c-.53,0-.729.01-1.029.04v-.979c.29.04.58.061,1.049.061h1.659c-.01-.351-.02-.48-.06-.72h1.179c-.04.239-.05.359-.06.72h1.709c.47,0,.75-.021,1.029-.061v.989c-.28-.04-.55-.05-.97-.05h-.399q-.1.24-.3.63h.439c.45,0,.69-.01.979-.04-.03.3-.04.54-.04,1.069v3.428c0,.54-.13.771-.479.88-.18.061-.56.09-1.129.09-.06,0-.19,0-.37-.01-.05-.39-.08-.489-.18-.84h-1.349ZM58.101,30.673c.07-.16.15-.359.25-.63h-1.599q.12.24.27.63h1.079ZM57.021,34.541h1.119v-.62h-1.119v.62ZM59,34.72v.439h.17c.32,0,.379-.03.379-.21v-3.438h-1.499v.479h.46c.34,0,.58-.01.83-.04v.81c-.28-.03-.49-.04-.83-.04h-.46v.489h.31c.3,0,.479-.01.669-.029-.02.189-.03.39-.03.669v.87Z"/><path class="cls-2" d="M64.723,32.481v5.287h-2.988v-1.089h1.799v-4.198h1.189Z"/><path class="cls-2" d="M69.873,28.674c.04.67.34,2.109.66,3.128q.649-.239,2.588-.879c.18-.061.23-.08.38-.15l.43,1.26c-.87.17-2.179.55-3.298.959-1.459.54-2.188,1.18-2.188,1.899,0,.729.679,1.039,2.289,1.039,1.25,0,2.479-.149,3.228-.409l.11,1.369c-.22,0-.27.01-.81.069-1.08.11-1.639.15-2.339.15-1.389,0-2.259-.17-2.898-.55-.55-.33-.87-.949-.87-1.669,0-.67.32-1.31.89-1.789.39-.33.709-.53,1.359-.859-.25-.81-.42-1.479-.67-2.709-.1-.479-.11-.499-.16-.649l1.299-.21Z"/><path class="cls-2" d="M76.611,33.701v-5.287h2.988v1.09h-1.799v4.197h-1.189Z"/><path class="cls-2" d="M81.144,29.923c-.32,0-.49.011-.719.051v-1.07c.26.04.5.061.859.061h.979c.38,0,.62-.021.879-.061v1.07c-.23-.04-.39-.051-.629-.051h-.11v1.97c.28,0,.36-.011.59-.04v.999c-.21-.02-.38-.03-.59-.03v1.859c.28-.11.45-.18.97-.41v1.029c-.91.431-1.529.69-2.339.979-.16.061-.4.16-.52.221l-.26-1.149c.18-.011.479-.09,1.109-.29v-2.239h-.11c-.28,0-.47.011-.68.04v-1.02c.22.04.379.051.699.051h.09v-1.97h-.22ZM89.309,35.15c-.08.07-.11.1-.28.24-.25.22-.459.379-.739.579.56.31.929.46,1.509.609-.19.28-.37.62-.54,1-.78-.31-1.209-.54-1.719-.92-.47-.35-.709-.589-1.009-.989.03.31.04.479.04.75v.55c0,.359.01.569.05.81h-1.149c.04-.25.05-.44.05-.86v-.539c0-.18.01-.5.03-.7-.64.75-1.25,1.189-2.559,1.829-.17-.359-.36-.609-.66-.909,1.299-.45,2.179-.999,2.878-1.809h-.799c-.32,0-.66.01-.8.029.03-.149.04-.319.04-.63v-.829c0-.28-.01-.43-.03-.62.24.021.5.03.839.03h3.628c.4,0,.68-.01.899-.03-.02.181-.03.36-.03.63v.85c0,.27.01.43.03.6-.12-.02-.16-.02-.34-.02l.66.35ZM83.212,31.372c.29.051.54.061.959.061h4.418c.41,0,.66-.01.959-.05v1.009c-.31-.04-.56-.05-.95-.05h-4.438c-.39,0-.669.01-.95.05v-1.02ZM83.413,29.433c0-.36-.01-.53-.04-.72.23.03.479.04.799.04h4.298c.24,0,.56-.021.799-.04-.03.27-.04.47-.04.71v.959c0,.22.01.479.03.689-.23-.01-.4-.02-.77-.02h-4.318c-.37,0-.5,0-.79.02.02-.17.03-.319.03-.699v-.939ZM85.082,29.573h-.729v.75h.729v-.75ZM84.672,34.001h3.248v-.489h-3.248v.489ZM86.691,29.573h-.74v.75h.74v-.75ZM86.831,34.791c.22.279.37.43.7.669.35-.239.479-.35.79-.669h-1.489ZM88.31,29.573h-.759v.75h.759v-.75Z"/><path class="cls-2" d="M91.394,29.713c0-.489-.02-.81-.06-1.109h1.16c-.05.311-.06.59-.06,1.12v1.329c.34,0,.47-.01.689-.03v1.04c-.21-.03-.38-.04-.689-.04v2.458c.25-.109.39-.17.879-.399l.04,1.069c-.68.33-1.309.59-2.409,1.039-.17.07-.32.13-.46.2l-.22-1.159c.26-.04.53-.12,1.129-.34v-2.868h-.22c-.29,0-.54.02-.79.05v-1.069c.26.04.5.05.799.05h.21v-1.34ZM94.502,35.33c-.31,0-.46.01-.859.03.02-.2.03-.35.03-.729v-1.799c0-.351-.01-.59-.04-.79.26.021.48.03.95.03h3.488c.46,0,.68-.01.939-.03-.03.229-.04.439-.04.79v1.738c0,.33.01.57.04.79-.25-.021-.43-.03-.839-.03h-.78v1.14c0,.21.05.229.6.229.42,0,.56-.029.62-.13.06-.109.08-.39.08-.979.33.17.59.26.99.35-.1,1.52-.3,1.699-1.779,1.699-.62,0-.959-.04-1.199-.149-.26-.11-.33-.26-.33-.64v-1.52h-.7c-.09.67-.27,1.069-.64,1.47-.47.489-1.049.759-2.229,1.029-.18-.43-.31-.64-.57-.949,1.679-.21,2.309-.601,2.439-1.55h-.17ZM98.21,29.294c.439,0,.79-.021,1.079-.051v.93c-.34-.029-.51-.04-1.019-.04-.14.34-.19.44-.32.689h.58c.52,0,.72-.01,1.009-.05v1c-.34-.04-.57-.05-1.049-.05h-4.238c-.5,0-.62,0-.919.029v-.969c.32.029.48.039.89.039h.41c-.09-.27-.14-.419-.27-.689-.47,0-.6.011-.869.04v-.93c.31.04.629.051,1.069.051h1.199v-.221c0-.239-.02-.409-.05-.6h1.169c-.04.21-.05.34-.05.59v.23h1.379ZM94.692,33.281h3.228v-.399h-3.228v.399ZM94.692,34.48h3.228v-.439h-3.228v.439ZM96.891,30.822c.13-.27.2-.409.3-.689h-1.779c.1.23.189.46.27.689h1.209Z"/><path class="cls-2" d="M101.384,33.691c0-.33,0-.56.02-1.1-.25.41-.41.63-.77,1.01-.189-.61-.24-.75-.479-1.21.74-.729,1.279-1.569,1.689-2.648.19-.5.33-1.01.38-1.359l1.12.36q-.06.14-.15.449c-.209.68-.399,1.13-.77,1.859v5.487c0,.43.01.759.05,1.159h-1.149c.04-.4.06-.7.06-1.17v-2.838ZM105.631,32.152h-1.06c-.439,0-.75.01-1.02.04.03-.3.04-.55.04-.97v-1.459c0-.38-.01-.62-.04-.91.29.04.57.05,1.109.05h3.188c.479,0,.81-.01,1.099-.05-.03.311-.04.51-.04.97v1.419c0,.42.01.66.04.939q-.11-.01-.29-.01c-.04,0-.12,0-.22-.01-.19-.01-.35-.01-.48-.01h-1.269v.819h1.749c.37,0,.759-.021,1.089-.061v1.12c-.37-.04-.75-.061-1.06-.061h-1.339c.42.52.64.74,1.069,1.1.54.45.97.72,1.599,1.02-.29.38-.439.609-.669,1.069-.709-.479-.919-.64-1.27-.949-.51-.45-.79-.779-1.199-1.419.02.329.03.799.03,1.069v.929c0,.32.02.61.06.92h-1.179c.04-.32.06-.6.06-.93v-.939c0-.08.01-.439.02-1.06-.4.67-.69,1.02-1.279,1.55-.45.399-.75.619-1.199.889-.25-.489-.31-.579-.68-.989.649-.34,1.169-.699,1.719-1.199.39-.35.57-.55.959-1.06h-1.189c-.39,0-.77.021-1.09.061v-1.109c.32.029.64.05,1.09.05h1.649v-.819ZM104.642,31.173h3.198v-1.29h-3.198v1.29Z"/><path class="cls-2" d="M113.062,32.832c-.479,0-.819.02-1.089.05v-.71c-.479.28-.66.38-1.089.569q-.3-.56-.66-1.059c.95-.37,1.759-.81,2.419-1.319.33-.26.79-.689,1.099-1.05.21-.229.32-.37.54-.72h1.269c.56.76,1.04,1.239,1.779,1.77.829.59,1.489.929,2.448,1.269-.36.521-.479.74-.64,1.149-.45-.21-.739-.369-1.189-.629v.729c-.29-.03-.6-.05-1.06-.05h-1.409v1.129h1.619c.52,0,.839-.02,1.099-.05v1.119c-.27-.03-.609-.05-1.099-.05h-1.619v1.35h2.599c.53,0,.959-.021,1.269-.061v1.17c-.33-.051-.75-.07-1.259-.07h-6.236c-.51,0-.919.02-1.25.07v-1.17c.29.04.72.061,1.279.061h2.479v-1.35h-1.469c-.5,0-.839.02-1.109.05v-1.119c.31.04.61.05,1.109.05h1.469v-1.129h-1.299ZM116.94,31.822c.21,0,.28,0,.47-.01-1.099-.729-1.729-1.31-2.458-2.27-.58.86-1.299,1.54-2.409,2.27.2.01.29.01.44.01h3.958Z"/><path class="cls-2" d="M123.353,32.481v5.287h-2.988v-1.089h1.799v-4.198h1.189Z"/><path class="cls-2" d="M125.794,29.703c.41.09,1.05.13,2.319.13.27-.6.36-.899.4-1.239l1.309.14q-.06.101-.399.9c-.05.109-.07.14-.09.18q.08-.01.63-.04c1.159-.07,2.069-.18,2.619-.34l.07,1.14q-.28.02-.79.079c-.729.091-1.999.17-3.008.2-.29.57-.57.97-.919,1.329l.01.021q.07-.05.2-.15c.37-.279.899-.449,1.409-.449.779,0,1.269.369,1.429,1.06.77-.28,1.279-.46,1.529-.54.54-.19.58-.2.739-.3l.47,1.149c-.28.04-.58.12-1.109.27-.14.04-.64.21-1.499.51v.11q.01.26.01.399v.399c-.01.17-.01.261-.01.33,0,.22.01.36.03.53l-1.159.029c.04-.18.06-.689.06-1.159v-.239c-.49.229-.75.369-.959.52-.35.26-.52.529-.52.819,0,.52.48.729,1.689.729,1.199,0,2.229-.149,2.938-.42l.1,1.289c-.17,0-.22.011-.46.04-.719.11-1.679.181-2.559.181-1.059,0-1.719-.12-2.229-.42-.46-.26-.729-.74-.729-1.289,0-.41.12-.73.439-1.11.45-.56,1.02-.939,2.149-1.409-.05-.369-.25-.539-.609-.539-.58,0-1.279.35-2.049,1.029-.419.35-.649.6-.869.909l-.91-.899c.26-.2.55-.479.899-.89.39-.459,1-1.329,1.199-1.709q.04-.08.08-.13c-.04,0-.17.01-.17.01-.16,0-1.04-.02-1.259-.02q-.19-.01-.28-.01c-.03,0-.09,0-.16.01l.02-1.14Z"/><path class="cls-2" d="M135.954,29.783c-.5,0-.969.021-1.229.061v-1.09c.37.04.759.06,1.239.06h6.696c.47,0,.859-.02,1.259-.06v1.09c-.4-.04-.74-.061-1.229-.061h-2.848v.93h2.648c.4,0,.689-.01.979-.04-.03.27-.04.51-.04.989v4.907c0,.51-.07.71-.28.859-.18.13-.5.181-1.149.181-.19,0-.23,0-.78-.03-.03-.39-.11-.699-.3-1.06.43.07.81.11,1.109.11.27,0,.31-.03.31-.25v-4.718h-2.499v3.299h.779v-1.899c0-.3-.01-.52-.04-.75h1.06c-.03.221-.04.41-.04.73v2.488c0,.359.01.56.04.77h-.979v-.41h-2.668v.82h-.989c.04-.25.05-.54.05-.89v-2.778c0-.301-.01-.51-.04-.73h1.049c-.02.221-.03.42-.03.73v1.919h.779v-3.299h-2.508v4.878c0,.399.02.839.05,1.169h-1.189c.04-.38.06-.859.06-1.279v-4.758c0-.399-.01-.68-.04-.999.27.03.54.04.919.04h2.708v-.93h-2.858Z"/><path class="cls-2" d="M149.632,36.13c.609-1.27,1.379-3.748,1.499-4.787l1.29.369c-.11.21-.12.271-.34.96-.36,1.199-.89,2.608-1.279,3.458h1.799c.51,0,.93-.021,1.27-.06v1.199c-.35-.051-.74-.07-1.27-.07h-6.516c-.53,0-.97.02-1.299.07v-1.199c.35.039.759.06,1.299.06h3.548ZM148.682,29.313c0-.29-.02-.5-.07-.779h1.259c-.05.239-.07.489-.07.77v.68h2.409c.54,0,.979-.021,1.289-.07v1.199c-.33-.04-.77-.06-1.289-.06h-5.807c-.5,0-.939.02-1.259.06v-1.199c.3.05.72.07,1.259.07h2.279v-.67ZM147.393,31.432c.44,1.199.68,1.999,1.139,3.888l-1.119.399c-.26-1.419-.62-2.718-1.1-3.907l1.08-.38Z"/><path class="cls-2" d="M157.143,28.924c-.06.29-.08.58-.12,1.35-.04.929-.1,2.958-.1,3.668,0,.949.06,1.309.26,1.608.23.33.709.521,1.339.521,1.08,0,1.949-.61,2.418-1.71.22-.52.35-.989.46-1.679.54.439.72.55,1.209.77-.4,1.35-.7,1.999-1.189,2.549-.75.85-1.739,1.27-2.999,1.27-.689,0-1.329-.16-1.749-.44-.689-.459-.979-1.229-.979-2.568,0-.52.02-1.52.08-4.027.01-.3.01-.51.01-.65,0-.279-.01-.419-.04-.68l1.399.021Z"/><path class="cls-2" d="M163.834,30.253c.359.061.759.09,1.339.09.12,0,.23,0,.46-.01.09-.479.19-1.249.19-1.529,0-.04,0-.1-.01-.18l1.319.12q-.07.229-.19.959c-.05.28-.06.34-.1.57.739-.07,1.209-.15,1.709-.3l.05,1.149q-.08.01-.32.05c-.51.1-1.309.199-1.639.21-.11.619-.36,1.679-.62,2.588-.29,1.04-.459,1.539-1.119,3.309l-1.259-.49c.689-1.269,1.459-3.598,1.789-5.377-.07.011-.11.011-.13.011h-.58c-.05,0-.15,0-.32-.011-.18-.01-.32-.01-.4-.01-.05,0-.1,0-.189.01l.02-1.159ZM168.792,34.131c-.4.5-.52.75-.52,1.1,0,.51.5.77,1.499.77.729,0,1.689-.16,2.269-.37l.09,1.229c-.18.021-.26.03-.49.07-.83.119-1.27.159-1.859.159-.889,0-1.529-.13-2.009-.399-.43-.25-.709-.729-.709-1.229,0-.529.19-.979.74-1.729l.989.399ZM171.76,32.821c-.479-.05-.759-.069-1.259-.069-.989,0-1.649.069-2.639.29l-.09-1.1c1.419-.271,1.899-.32,2.979-.32.27,0,.36,0,.989.01l.02,1.189Z"/><path class="cls-2" d="M177.622,31.732c-.21.189-.31.27-.539.439.399.439.609.739.879,1.27.46.909.689,1.779.689,2.658,0,.66-.149,1.09-.459,1.329-.221.17-.55.24-1.14.24-.27,0-.68-.02-1.1-.05-.06-.479-.12-.689-.29-1.069.5.09.92.14,1.27.14.479,0,.649-.189.649-.729,0-.2-.02-.38-.04-.569-1.099.81-2.158,1.369-3.808,1.988-.23-.409-.37-.619-.63-.919,1.569-.42,3.148-1.17,4.198-2.009-.08-.23-.13-.34-.23-.57-.869.58-2.108,1.159-3.348,1.569-.181-.34-.32-.56-.561-.85,1.35-.319,2.56-.81,3.509-1.399-.15-.22-.229-.319-.399-.52-.68.37-1.359.649-2.369.949-.17-.329-.26-.479-.53-.839.89-.19,1.13-.25,1.64-.44.55-.189.92-.369,1.279-.619h-.699c-.37,0-.67.02-.979.05v-1.01c.26.04.47.05.979.05h4.098c.569,0,.749-.01.989-.05v1.01c-.32-.03-.62-.05-.989-.05h-.7c.101.52.25.97.49,1.529.539-.4.899-.75,1.309-1.27l.95.729c-.23.18-.311.24-.57.47-.529.46-.739.62-1.209.949.569.85,1.289,1.489,2.349,2.089-.26.25-.479.51-.8.97-.909-.68-1.289-1.02-1.729-1.549-.84-1.029-1.409-2.299-1.77-3.918h-.39ZM177.003,29.053c0-.229-.021-.399-.061-.6h1.22c-.04.2-.05.35-.05.59v.22h2.769c.479,0,.799-.01,1.109-.04-.03.21-.04.38-.04.699v.78c0,.3.01.489.04.709h-1.08v-1.189h-6.526v1.189h-1.09c.03-.22.051-.399.051-.709v-.78c0-.289-.021-.489-.04-.699.3.03.609.04,1.1.04h2.599v-.21Z"/><path class="cls-2" d="M182.925,30.892c.34-.03.5-.06,1.169-.2,2.279-.489,2.819-.569,3.979-.569,1.979,0,3.268,1.109,3.268,2.809,0,1.359-.799,2.509-2.219,3.198-.909.449-1.688.63-3.518.829-.13-.539-.22-.749-.51-1.289,1.599-.069,2.438-.22,3.288-.59.72-.319,1.31-.89,1.509-1.479.07-.2.11-.45.11-.71,0-.55-.28-1.029-.76-1.299-.319-.181-.739-.271-1.289-.271-1.039,0-2.329.23-3.938.71-.51.149-.59.17-.8.279l-.29-1.419ZM190.281,28.834c.359.42.589.749.879,1.319l-.779.359c-.27-.52-.569-.959-.899-1.319l.8-.359ZM191.51,29.983c-.3-.56-.539-.91-.879-1.3l.749-.35c.34.36.63.76.899,1.27l-.77.38Z"/><path class="cls-2" d="M198.711,29.473c-.17.12-.359.29-1.229,1.1-.51.47-1.209,1.029-2.379,1.919-.31.229-.379.31-.379.419,0,.15.02.17.899.83,1.559,1.18,1.849,1.429,3.148,2.608.1.1.159.15.289.25l-1.029,1.039c-.26-.359-.619-.739-1.299-1.369-.71-.659-1.04-.93-2.579-2.129-.659-.51-.839-.779-.839-1.239,0-.3.109-.569.329-.81.13-.14.141-.149.88-.72,1.079-.819,1.639-1.299,2.309-1.948.45-.45.56-.58.729-.83l1.149.88Z"/><path class="cls-2" d="M203.123,28.723c-.12.34-.17.6-.359,1.929-.07.42-.11.76-.13,1h.029q.021-.06.061-.22c.1-.35.359-.84.63-1.189.549-.68,1.169-1.02,1.898-1.02.68,0,1.279.319,1.709.899.5.67.72,1.479.72,2.658,0,1.93-.899,3.368-2.578,4.108-.51.229-1.21.43-1.959.56-.2-.569-.311-.79-.59-1.18.999-.109,1.579-.26,2.188-.569,1.159-.59,1.689-1.539,1.689-3.059,0-1.439-.479-2.238-1.34-2.238-.38,0-.729.17-1.079.529-.779.81-1.259,2.039-1.259,3.229v.21l-1.2.02c.011-.06.011-.109.011-.13v-.189c-.011-.29-.03-1.029-.03-1.229,0-.81.06-1.919.14-2.608l.15-1.239c.02-.17.029-.21.029-.34l1.27.069Z"/><path class="cls-2" d="M209.654,29.703c.41.09,1.05.13,2.319.13.27-.6.359-.899.399-1.239l1.31.14q-.061.101-.4.9c-.05.109-.069.14-.09.18q.08-.01.63-.04c1.159-.07,2.068-.18,2.618-.34l.07,1.14q-.28.02-.789.079c-.73.091-1.999.17-3.009.2-.29.57-.569.97-.92,1.329l.011.021q.069-.05.199-.15c.37-.279.899-.449,1.409-.449.78,0,1.27.369,1.43,1.06.77-.28,1.279-.46,1.529-.54.539-.19.579-.2.739-.3l.47,1.149c-.279.04-.579.12-1.109.27-.14.04-.64.21-1.499.51v.11q.01.26.01.399v.399c-.01.17-.01.261-.01.33,0,.22.01.36.03.53l-1.16.029c.04-.18.061-.689.061-1.159v-.239c-.49.229-.75.369-.96.52-.35.26-.52.529-.52.819,0,.52.479.729,1.689.729,1.199,0,2.229-.149,2.938-.42l.1,1.289c-.17,0-.22.011-.46.04-.72.11-1.679.181-2.559.181-1.06,0-1.719-.12-2.229-.42-.46-.26-.729-.74-.729-1.289,0-.41.12-.73.439-1.11.45-.56,1.02-.939,2.149-1.409-.051-.369-.25-.539-.61-.539-.579,0-1.279.35-2.049,1.029-.42.35-.649.6-.869.909l-.909-.899c.26-.2.549-.479.899-.89.39-.459.999-1.329,1.199-1.709q.04-.08.08-.13c-.04,0-.17.01-.17.01-.16,0-1.04-.02-1.26-.02q-.189-.01-.279-.01c-.03,0-.091,0-.16.01l.02-1.14Z"/><path class="cls-2" d="M218.655,32.311c.25.04.41.051.8.051h.77c.3,0,.52-.011.76-.051-.03.311-.04.55-.04,1.09v2.089c.14.3.279.46.55.64.419.27,1.019.359,2.318.359,1.938,0,3.128-.05,4.147-.159-.18.479-.229.68-.3,1.139-1.119.03-2.089.04-3.229.04-1.459,0-2.208-.069-2.738-.239-.489-.17-.879-.45-1.27-.93-.419.409-.729.689-1.129.979-.15.12-.3.239-.37.3l-.479-1.14c.34-.13.93-.54,1.459-.999v-2.089h-.56c-.279,0-.439.01-.689.05v-1.13ZM219.445,28.624c.77.689,1.079,1.02,1.709,1.829l-.85.81c-.61-.859-.979-1.279-1.659-1.909l.8-.729ZM223.442,29.424c.21-.32.39-.67.53-1.02l1.159.17c-.19.35-.31.55-.51.85h1.639c.311,0,.521-.011.72-.04-.02.22-.029.439-.029.699v1.369c0,.34,0,.56.029.75-.25-.01-.409-.021-.72-.021h-3.378v.72h3.668c.36,0,.51-.01.7-.029-.021.209-.03.419-.03.759v1.51c0,.25.01.47.03.689-.221-.021-.42-.03-.68-.03h-4.038c-.29,0-.51.01-.729.03.02-.21.03-.439.03-.689v-5.058c0-.229-.021-.449-.04-.699.249.029.489.04.779.04h.869ZM222.883,31.272h3.019v-.899h-3.019v.899ZM222.883,34.841h3.288v-1.02h-3.288v1.02Z"/><path class="cls-2" d="M233.763,31.133c.22.729.46,1.27.869,1.909.609-.48,1.18-1.09,1.529-1.64l.92.699q-.101.101-.59.62c-.35.35-.74.699-1.279,1.129.27.33.52.59.89.91.55.489.859.699,1.719,1.179-.32.351-.52.62-.75,1.03-.969-.67-1.519-1.149-2.078-1.81-.63-.739-.92-1.199-1.31-2.068.02.459.04,1.029.04,1.459v2.108c0,.729-.29.95-1.239.95-.39,0-.81-.021-1.26-.051-.05-.449-.1-.629-.27-1.079.5.09.909.13,1.31.13.31,0,.38-.06.38-.33v-5.146h-2.769c-.44,0-.78.02-1.09.06v-1.1c.3.04.63.061,1.149.061h2.709v-.57c0-.499-.021-.799-.061-1.089h1.199c-.04.31-.06.609-.06,1.1v.56h1.699c-.34-.45-.55-.67-1.06-1.1l.779-.58q.67.58,1.239,1.229l-.6.45h.689c.51,0,.84-.021,1.149-.061v1.1c-.31-.04-.64-.06-1.149-.06h-2.708ZM232.533,34.631c-.97.72-1.159.839-2.618,1.699-.25.149-.38.229-.561.359l-.529-1.129c.43-.141.829-.33,1.469-.68.76-.43,1.189-.71,1.88-1.25l.359,1ZM230.424,31.392c.58.609.92,1.049,1.38,1.749l-.939.67c-.39-.71-.79-1.25-1.3-1.779l.859-.64Z"/><path class="cls-2" d="M241.004,28.924c-.061.29-.08.58-.12,1.35-.04.929-.101,2.958-.101,3.668,0,.949.061,1.309.261,1.608.229.33.709.521,1.339.521,1.079,0,1.949-.61,2.419-1.71.22-.52.35-.989.459-1.679.54.439.72.55,1.21.77-.4,1.35-.7,1.999-1.189,2.549-.75.85-1.739,1.27-2.998,1.27-.69,0-1.33-.16-1.749-.44-.69-.459-.979-1.229-.979-2.568,0-.52.02-1.52.08-4.027.01-.3.01-.51.01-.65,0-.279-.01-.419-.04-.68l1.399.021Z"/><path class="cls-2" d="M248.624,34.201c-.06,1.389-.159,2.148-.399,3.038l-.859-.43c.26-.819.329-1.279.39-2.738l.869.13ZM247.395,32.721c.141.02.221.02.41.02h.359q.29-.39.521-.719c-.37-.521-.75-.95-1.31-1.51l.5-.869.38.409c.35-.589.6-1.169.729-1.629l.959.37c-.069.1-.109.17-.21.37-.31.609-.609,1.149-.89,1.549.19.229.24.29.391.47.579-.92.759-1.26.899-1.659l.899.489q-.12.16-.48.76c-.319.51-.939,1.399-1.339,1.93.56-.03.729-.051,1.029-.08-.09-.29-.14-.41-.29-.77l.68-.24c.271.609.44,1.129.57,1.669v-.239c0-.391-.01-.53-.04-.72.189.02.399.029.899.029h3.458c.46,0,.71-.01.959-.05-.02.22-.029.39-.029.71v.6c0,.31.01.529.04.71h-1.04v-1.1h-3.317v1.1h-.97c.03-.261.04-.28.04-.65l-.65.23c-.029-.21-.05-.29-.079-.43-.221.029-.3.04-.6.069v3.158c0,.5.01.75.06,1.05h-1.079c.05-.33.06-.58.06-1.05v-3.078c-.17.01-.3.021-.39.03-.2.01-.33.02-.39.03-.36.02-.47.029-.63.06l-.11-1.02ZM250.863,34.02c.18.95.22,1.18.319,2.189l-.81.239c-.06-1.059-.1-1.419-.27-2.238l.76-.19ZM253.472,33.691q-.021.189-.05.72c-.05.899-.271,1.568-.68,2.099-.37.479-.7.72-1.609,1.169-.16-.39-.37-.659-.68-.919.819-.29,1.13-.48,1.459-.859.33-.38.5-.97.5-1.749,0-.181-.01-.29-.03-.46h1.09ZM252.202,30.213c-.52,0-.829.01-1.089.05v-.999c.289.04.619.06,1.109.06h.929v-.1c0-.31-.02-.52-.06-.75h1.149c-.04.221-.06.42-.06.76v.09h1.219c.47,0,.84-.02,1.109-.06v.999c-.27-.04-.55-.05-1.079-.05h-1.249v.71h1.019c.48,0,.72-.01,1.02-.05v.969c-.249-.029-.55-.05-1.009-.05h-2.919c-.46,0-.749.01-1.009.05v-.969c.289.04.539.05,1.02.05h.849v-.71h-.949ZM254.98,33.691c-.04.21-.06.409-.06.709v1.949c0,.17.06.21.3.21.18,0,.33-.04.38-.1.1-.12.149-.5.17-1.3.31.18.619.29.949.35-.06.83-.13,1.239-.25,1.5-.18.39-.499.52-1.319.52-.969,0-1.229-.17-1.229-.83v-2.299c0-.31-.01-.52-.05-.709h1.109Z"/><path class="cls-2" d="M260.713,33.801c-.659,1.21-1.119,2.489-1.14,3.209l-1.159.06c-.01-.14-.02-.189-.069-.38-.25-1.129-.36-2.119-.36-3.248s.061-1.719.37-3.788c.06-.42.069-.529.069-.739l1.319.13c-.119.399-.18.63-.289,1.219-.16.85-.2,1.13-.261,1.97-.05.659-.069.949-.069,1.139,0,.03,0,.15.01.311,0,.109,0,.279.01.77v.18c.011.16.021.22.021.38.17-.55.42-1.199.659-1.649l.89.439ZM260.463,30.923c.44.09.97.13,1.779.13.38,0,.54-.01,1.06-.04-.061-1.759-.07-1.849-.13-2.209l1.27-.02c-.021.159-.021.22-.021.34,0,.1,0,.189.021.64,0,.109.02.489.039,1.129.71-.109,1.149-.22,1.489-.38l.07,1.189c-.17.021-.229.03-.56.1-.45.101-.54.12-.97.17.01.21.01.3.01.48,0,1.06-.069,1.889-.21,2.389-.22.829-.579,1.438-1.139,1.938-.311.27-.58.46-1.09.76-.35-.45-.51-.6-.97-.939.68-.31,1.149-.64,1.529-1.09.521-.629.7-1.329.7-2.808,0-.21,0-.3-.01-.63-.34.029-.86.04-1.359.04-.28,0-.65-.011-.91-.021-.289-.02-.329-.02-.449-.02h-.15v-1.149Z"/><path class="cls-2" d="M266.815,29.943c.22.01.329.01.379.01q.181,0,1.649-.1c.56-.03,2.219-.12,4.987-.25.819-.04.97-.05,1.149-.1l.07,1.279q-.11-.011-.21-.011c-.6,0-1.34.2-1.979.54-1.269.659-2.019,1.659-2.019,2.669,0,.779.489,1.379,1.329,1.629.49.149,1.13.26,1.489.26.01,0,.1,0,.2-.01l-.18,1.358c-.12-.029-.17-.039-.34-.06-1.1-.14-1.729-.319-2.339-.659-.92-.521-1.43-1.37-1.43-2.409,0-.85.34-1.688.949-2.358.38-.41.74-.67,1.39-1-.81.12-1.199.15-3.368.311-.67.05-1.27.119-1.659.199l-.069-1.299Z"/><path class="cls-2" d="M277.724,29.543c-.05.37-.08.86-.08,1.52,0,.869.08,2.069.19,2.679.17,1.039.489,1.679.81,1.679.149,0,.29-.149.409-.43.24-.539.42-1.14.53-1.809.35.399.51.55.999.909-.52,1.949-1.1,2.759-1.948,2.759-.67,0-1.21-.49-1.609-1.449-.41-1-.59-2.449-.63-5.218-.01-.35-.01-.419-.04-.64h1.369ZM282.451,29.993c1.26,1.509,1.959,3.179,2.249,5.377l-1.239.47c-.061-.939-.29-1.979-.64-2.889-.34-.909-.819-1.719-1.42-2.458l1.05-.5Z"/><path class="cls-2" d="M292.981,36.999c-.44-.489-1.13-.999-1.85-1.369-.22-.12-.3-.149-.539-.25v.11c0,.63-.18,1.06-.56,1.35-.38.289-.92.43-1.649.43-1.459,0-2.299-.57-2.299-1.56,0-1.089.989-1.729,2.669-1.729.239,0,.409.01.669.039q0-.119-.01-.239v-.22q-.01-.141-.02-.54c-.48.01-.79.021-1,.021-.609,0-.979-.011-1.809-.07-.13-.01-.23-.01-.38-.01l.02-1.08c.43.101,1.38.17,2.329.17.2,0,.54-.01.819-.02,0-.09,0-.43-.01-1-.32.011-.479.011-.63.011-.489,0-1.779-.051-2.448-.101-.11-.01-.19-.01-.22-.01h-.16l.01-1.109c.51.13,1.539.21,2.688.21.16,0,.5-.01.75-.021-.011-.999-.011-1.009-.05-1.259h1.269c-.05.27-.06.399-.069,1.22,1.359-.08,2.229-.19,2.878-.38l.05,1.109q-.22.01-.789.09c-.88.12-1.27.149-2.149.199.011.25.011.37.021.99q.5-.03,1.419-.13c.63-.08.79-.101,1.239-.221l.03,1.1c-.17.01-.42.04-.649.07-.15.02-.6.07-1.35.14-.14.01-.29.021-.68.04q.03.97.04,1.209c.88.261,1.659.65,2.738,1.41.17.109.22.149.36.229l-.68,1.169ZM288.613,34.97c-.81,0-1.299.26-1.299.689,0,.37.43.6,1.14.6.419,0,.729-.12.869-.32.08-.13.12-.339.12-.64v-.239c-.33-.07-.53-.09-.83-.09Z"/><path class="cls-2" d="M300.412,32.431c0,.04.01.12.01.24.22.46.32.869.32,1.409,0,1.089-.521,2.028-1.489,2.698-.42.29-.88.5-1.81.819-.279-.619-.38-.77-.709-1.129.819-.16,1.229-.3,1.699-.58.679-.39,1.079-.899,1.159-1.459-.29.46-.81.71-1.47.71-.46,0-.819-.11-1.159-.36-.47-.34-.689-.779-.689-1.349,0-1.06.829-1.819,1.989-1.819.43,0,.81.11,1.039.3q-.01-.05-.01-.12c-.011-.02-.011-.579-.011-.85-1.429.04-2.368.07-2.808.101q-1.51.109-1.779.149l-.04-1.189c.22.021.31.021.489.021.25,0,.41,0,1.699-.05.65-.021.75-.021,1.569-.04q.33-.011.85-.03-.01-.949-.06-1.209l1.259-.011c-.04.311-.04.33-.05,1.189,1.739-.01,2.519-.029,2.889-.069l.01,1.149c-.37-.03-.85-.051-1.679-.051-.24,0-.42,0-1.21.021v.649l-.01.859ZM298.373,32.532c-.51,0-.93.359-.93.799,0,.46.351.79.85.79.57,0,.979-.38.979-.899,0-.42-.35-.689-.899-.689Z"/><path class="cls-2" d="M307.434,35.979c0,.939-.76,1.699-1.689,1.699s-1.688-.76-1.688-1.699c0-.929.759-1.688,1.688-1.688.939,0,1.689.76,1.689,1.688ZM304.835,35.979c0,.51.409.92.909.92s.91-.41.91-.92c0-.499-.41-.909-.91-.909s-.909.41-.909.909Z"/><line class="cls-1" x1="320.128" y1="25" x2="327.438" y2="25"/><line class="cls-1" x1="329.784" y1="25" x2="330.827" y2="25"/><line class="cls-1" x1="325.023" y1="11.453" x2="325.822" y2="10.783"/><line class="cls-1" x1="319.524" y1="21.109" x2="326.393" y2="18.609"/><line class="cls-1" x1="317.626" y1="17.66" x2="323.226" y2="12.961"/><line class="cls-1" x1="325.023" y1="38.547" x2="325.822" y2="39.217"/><line class="cls-1" x1="317.626" y1="32.34" x2="323.226" y2="37.039"/><line class="cls-1" x1="314.663" y1="15.068" x2="318.318" y2="8.737"/><line class="cls-1" x1="319.524" y1="28.891" x2="326.393" y2="31.391"/><line class="cls-1" x1="314.663" y1="34.932" x2="318.318" y2="41.263"/><line class="cls-1" x1="24.872" y1="25" x2="17.562" y2="25"/><line class="cls-1" x1="15.216" y1="25" x2="14.173" y2="25"/><line class="cls-1" x1="19.977" y1="11.453" x2="19.178" y2="10.783"/><line class="cls-1" x1="25.476" y1="21.109" x2="18.607" y2="18.609"/><line class="cls-1" x1="27.374" y1="17.66" x2="21.774" y2="12.961"/><line class="cls-1" x1="19.977" y1="38.547" x2="19.178" y2="39.217"/><line class="cls-1" x1="27.374" y1="32.34" x2="21.774" y2="37.039"/><line class="cls-1" x1="30.337" y1="15.068" x2="26.682" y2="8.737"/><line class="cls-1" x1="25.476" y1="28.891" x2="18.607" y2="31.391"/><line class="cls-1" x1="30.337" y1="34.932" x2="26.682" y2="41.263"/></g></svg>