<?xml version="1.0" encoding="UTF-8"?><svg id="_レイヤー_2" xmlns="http://www.w3.org/2000/svg" viewBox="0 0 1000 82"><defs><style>.cls-1{fill:#fff;}.cls-2{fill:#f08c00;}.cls-3{fill:none;stroke:#fff;stroke-linecap:round;stroke-linejoin:round;}</style></defs><g id="_レイヤー_1-2"><polygon class="cls-2" points="1000 0 0 0 17.124 41 0 82 1000 82 982.876 41 1000 0"/><path class="cls-1" d="M179.549,16.553c-1.475,0-2.125.025-2.949.15v-1.75c.85.125,1.6.175,3.024.175h7.098v-.2c0-1.1-.05-1.674-.175-2.424h1.85c-.125.75-.175,1.449-.175,2.424v.2h7.473c1.625,0,2.45-.05,3.125-.175v1.75c-.7-.101-1.725-.15-3.074-.15h-7.523v2.074h5.448c1.575,0,2.175-.024,2.85-.125-.075.7-.1,1.25-.1,2.625v3.674c0,1.5,0,1.875.1,2.649-.675-.125-1.375-.15-2.85-.15h-4.299c2.699,2.8,5.674,4.399,10.298,5.549-.45.601-.625.85-.95,1.575-2.249-.75-3.824-1.425-5.623-2.475-1.975-1.15-3.399-2.324-4.949-4.1.05.65.075,1.475.075,1.95v2.549c0,1.35.025,2,.175,2.774h-1.85c.125-.85.175-1.475.175-2.774v-2.524c0-.475.025-1.225.075-1.924-1.074,1.299-1.675,1.874-2.949,2.849-2.024,1.55-4.224,2.7-6.974,3.649-.375-.75-.524-1.025-.925-1.5,2.3-.625,4.074-1.399,6.074-2.674,1.624-1.05,2.549-1.8,3.499-2.925h-3.649c-1.6,0-2.199.025-2.899.15l.025-.325c.05-.524.075-.949.075-2.324v-3.624c0-1.45-.025-1.899-.101-2.699.6.125,1.275.149,2.774.149h4.974v-2.074h-7.173ZM180.623,19.927v2.3h6.099v-2.3h-6.099ZM180.623,23.501v2.524h6.099v-2.524h-6.099ZM188.222,22.226h6.648v-2.3h-6.648v2.3ZM188.222,26.025h6.648v-2.524h-6.648v2.524Z"/><path class="cls-1" d="M203.549,26.2c-.975,0-1.449.025-2.05.15v-1.649c.575.125,1.075.149,2.1.149h3.05v-1.324c0-.325-.05-.726-.125-1.025h1.675c-.075.3-.101.7-.101,1.025v1.324h2.75c.874,0,1.374-.024,2.024-.149v1.624c-.575-.1-1.075-.125-2.024-.125h-2.375c.95,1.325,1.649,1.975,3.524,3.175-.4.475-.575.774-.875,1.35-1.625-1.375-2.149-1.95-3.124-3.449.05.55.075,1.274.1,2.199v3.624c0,.875.025,1.475.125,2.149h-1.725c.101-.649.15-1.324.15-2.149v-3.549c0-.601.024-1.25.075-2.075-1.025,2.15-2.45,3.8-4.725,5.549-.274-.574-.55-.975-.949-1.399,1.249-.825,2.324-1.725,3.249-2.749.75-.85,1.125-1.375,1.824-2.675h-2.574ZM207.998,20.627c.875-1.475,1.324-2.6,1.675-4.1l1.499.476c-.6,1.499-1.124,2.649-1.699,3.624h1.475c.949,0,1.449-.025,2.024-.125v1.674c-.625-.1-1.125-.125-2.024-.125h-7.423c-.976,0-1.5.025-2.075.125v-1.674c.55.1,1.075.125,2.075.125h4.474ZM210.547,14.878c1.025,0,1.5-.024,2.1-.125v1.675c-.675-.1-1.149-.125-2.124-.125h-6.398c-1.05,0-1.524.025-2.175.125v-1.675c.575.101,1.1.125,2.199.125h2.5v-.675c0-.8-.025-1.199-.125-1.75h1.824c-.1.525-.125.926-.125,1.75v.675h2.324ZM204.823,20.402c-.425-1.4-.749-2.175-1.424-3.35l1.324-.5c.7,1.25,1,2,1.425,3.374l-1.325.476ZM221.944,20.451c1.125,0,1.725-.049,2.3-.149v1.725c-.625-.1-1.175-.125-2.199-.125h-.925v10.897c0,1.25.024,1.875.149,2.499h-1.925c.101-.649.15-1.274.15-2.499v-10.897h-3.924v.975c-.025,3.324-.55,6.698-1.425,8.974-.5,1.324-1,2.273-1.85,3.424-.524-.5-.8-.725-1.425-1.05,2.399-2.949,3.149-6.448,3.149-14.797,0-2.824-.05-3.898-.125-4.624h.3c1.325,0,3.874-.5,5.924-1.149,1.05-.35,1.675-.625,2.299-1.075l1.275,1.4c-.226.074-.25.074-.9.35-2.074.85-3.974,1.324-7.198,1.85v4.273h6.349Z"/><path class="cls-1" d="M229.249,23.951c0-1.125.05-2.125.125-3.274-.975,1.675-1.5,2.449-2.675,3.799-.1-.45-.325-.8-.899-1.425,2.05-2.124,3.524-4.424,4.698-7.223.525-1.3.925-2.55,1.05-3.35l1.65.525c-.9,2.424-1.101,2.898-2.35,5.498v13.572c0,1.125.05,1.999.175,2.924h-1.949c.125-.875.175-1.6.175-2.999v-8.048ZM235.647,19.351c-.95,0-1.875.051-2.625.125v-1.749c.65.1,1.475.149,2.625.149h9.872c1.1,0,1.975-.05,2.649-.149v1.749c-.725-.074-1.675-.125-2.624-.125h-4.449v5.274h3.699c1.024,0,1.925-.05,2.6-.15v1.7c-.75-.075-1.675-.125-2.574-.125h-3.725v6.473h5.174c1.1,0,2.074-.05,2.725-.149v1.725c-.75-.075-1.7-.125-2.725-.125h-11.647c-1.049,0-1.999.05-2.749.125v-1.725c.675.1,1.6.149,2.699.149h4.899v-6.473h-3.1c-.925,0-1.824.05-2.6.125v-1.7c.675.101,1.55.15,2.574.15h3.125v-5.274h-3.824ZM237.922,12.654c2.05,1.074,3.174,1.773,5.023,3.174l-1.175,1.274c-1.524-1.374-2.574-2.074-4.948-3.324l1.1-1.124Z"/><path class="cls-1" d="M253.799,24.051c.35,1.5.7,2.35,1.55,3.774.725-1.75,1.05-2.899,1.425-5.599h-2.149c-.7,0-1.575.025-2.274.074,1.799-2.624,2.974-4.674,4.049-7.048h-2.999c-.7,0-1.15.025-1.7.125v-1.624c.55.1.975.125,1.725.125h2.375c.925,0,1.424-.025,1.85-.101l.725.95c-.15.225-.3.524-.55,1.024-.726,1.55-1.925,3.649-2.949,5.124h1.624c1.1,0,1.55-.025,1.975-.101q-.075.375-.2,1.25c-.324,2.649-1.024,5.174-1.975,7.198,2.125,2.699,4.799,3.674,10.048,3.674,2.475,0,5.499-.149,7.798-.35-.324.75-.399.925-.524,1.725-1.85.05-4.999.1-6.924.1-5.923,0-8.473-.875-11.097-3.849-.975,1.699-1.824,2.774-3.475,4.399-.399-.601-.75-.95-1.175-1.226,1.775-1.574,2.675-2.674,3.675-4.424-.601-.874-1.05-1.725-1.7-3.249q-.3-.699-.625-1.375l1.5-.6ZM264.771,15.553h-3.199c-.725,0-1.225.025-1.8.1v-1.475c.55.101,1,.125,1.85.125h3.149c-.025-.924-.05-1.299-.125-1.898h1.699c-.1.524-.125.975-.125,1.898h3.949c.825,0,1.375-.024,1.824-.074q0,.125-.024.425c-.025.25-.025.774-.025,1.149v1.774h.125c.775,0,1.274-.05,1.875-.149v1.5c-.55-.076-1.025-.101-1.875-.101h-.125v2.05c0,.524.025,1.174.05,1.424-.8-.049-1.124-.049-1.774-.049h-3.999v2.148h3.999c.85,0,1.524-.024,2.225-.125v1.475c-.649-.074-1.274-.1-2.249-.1h-3.975v2.199h5.124c1.024,0,1.699-.05,2.324-.149v1.524c-.6-.075-1.3-.1-2.324-.1h-5.124v.625c0,1.1.025,1.674.125,2.324h-1.699c.075-.7.125-1.275.125-2.3v-.649h-3.999c-.975,0-1.524.024-2.225.125v-1.55c.6.1,1.274.149,2.249.149h3.975v-2.199h-3.35c-.8,0-1.449.05-2.05.125v-1.5c.601.101,1.25.125,2.05.125h3.35v-2.148h-3.274c-.7,0-1.149.024-1.75.1v-1.475c.525.1.95.125,1.825.125h3.199v-2.175h-4.174c-1.05,0-1.675.024-2.3.125v-1.524c.649.1,1.199.149,2.324.149h4.149v-2.024ZM270.495,17.577v-2.024h-4.274v2.024h4.274ZM266.221,21.002h4.274v-2.175h-4.274v2.175Z"/><path class="cls-1" d="M281.873,14.053c-1.074,2.5-1.925,7.624-1.925,11.723,0,.875.051,2.35.101,3.499,0,.2,0,.25.024.7v.475l.101.025c.449-1.875.625-2.35,1.475-4.399.1-.225.149-.325.2-.5l1.225.575c-1.175,2.449-2.149,5.623-2.149,7.098,0,.125,0,.15.05.5l-1.774.176c-.025-.226-.051-.351-.15-.925-.45-2.325-.7-4.899-.7-7.424,0-3.323.325-5.948,1.3-10.272.226-1.1.25-1.25.275-1.574l1.949.324ZM284.397,18.702c1.225.3,2.3.399,4.499.399.975,0,1.649-.024,2.675-.074q-.025-2.35-.025-4.249c0-.425-.025-.774-.075-1.024h1.875c-.125.674-.175,1.85-.175,3.924,0,.274,0,.675.024,1.225,1.925-.225,3.374-.525,4.324-.925l.075,1.699q-.051,0-1.75.351c-.649.149-1.35.25-2.649.399.025,2.475.075,3.749.275,7.073,1.824.825,2.524,1.225,4.174,2.449.3.2.35.25.625.425l-.775,1.75c-.774-.875-1.774-1.575-3.549-2.6q-.1-.05-.25-.149-.1-.075-.225-.15c.05.375.05.425.05.65,0,.649-.101,1.249-.3,1.699-.601,1.324-2.125,2.1-4.174,2.1-2.899,0-4.725-1.375-4.725-3.549,0-2.075,1.975-3.55,4.749-3.55,1.024,0,2.199.2,2.774.5-.075-.524-.175-2.874-.25-6.523-1.125.05-1.899.075-2.85.075-1.024,0-1.949-.025-2.824-.075-.425-.05-.699-.05-.8-.05-.225-.025-.375-.025-.425-.025-.125-.025-.2-.025-.25-.025h-.1l.05-1.749ZM289.196,28.075c-1.949,0-3.225.824-3.225,2.074,0,1.225,1.15,2.024,2.899,2.024,1.101,0,2.075-.324,2.55-.875.325-.375.475-.975.475-1.949,0-.175-.024-.75-.024-.75-1.025-.399-1.675-.524-2.675-.524Z"/><path class="cls-1" d="M302.624,28.375c2.05,1.649,3.324,2.999,5.024,5.299l-1.4,1.324c-1.6-2.324-3.049-3.898-4.924-5.448l1.3-1.175Z"/><path class="cls-1" d="M329.398,33.199c-1.574,0-1.949.024-2.749.125.275-1.975.35-2.35.725-3.3.625-1.575,1.675-2.949,3.249-4.299.875-.75.925-.774,3.824-2.749,2.475-1.675,3.3-2.774,3.3-4.299,0-1.9-1.6-3.125-4.149-3.125-1.649,0-2.874.55-3.624,1.625-.475.675-.7,1.274-.875,2.524l-2.1-.351c.375-1.799.75-2.674,1.575-3.599,1.124-1.274,2.824-1.925,5.023-1.925,3.774,0,6.198,1.9,6.198,4.85,0,1.274-.5,2.474-1.475,3.549-.75.85-1.399,1.324-4.249,3.225-1.975,1.324-2.774,2.023-3.599,3.074-.775,1.024-1.125,1.699-1.425,2.898h7.973c1.25,0,2.1-.05,3.05-.175v2.1c-1-.101-1.824-.149-3.074-.149h-7.599Z"/><path class="cls-1" d="M345.224,31.799c-.675-.675-1.199-1.449-1.5-2.299-.624-1.75-.949-3.725-.949-5.773,0-2.65.575-5.35,1.449-6.799,1.2-2.024,3.125-3.074,5.599-3.074,1.85,0,3.449.6,4.574,1.774.7.7,1.2,1.475,1.5,2.3.624,1.725.949,3.724.949,5.799,0,3.023-.649,5.698-1.749,7.223-1.25,1.75-3,2.624-5.299,2.624-1.85,0-3.399-.6-4.574-1.774ZM346.674,16.852c-.525.575-.925,1.2-1.125,1.825-.525,1.524-.775,3.224-.775,5.049,0,2.324.5,4.773,1.175,5.948.875,1.449,2.175,2.175,3.874,2.175,1.25,0,2.325-.4,3.074-1.176.55-.574.95-1.225,1.175-1.949.525-1.55.775-3.199.775-5.049,0-2.174-.476-4.648-1.125-5.823-.825-1.5-2.175-2.274-3.924-2.274-1.3,0-2.324.425-3.124,1.274Z"/><path class="cls-1" d="M362.049,14.078c.649.1,1.124.125,2.074.125h1.574c.85,0,1.25-.025,2.075-.125-.15,1.525-.226,2.8-.226,4.149v12.146c0,1.175.05,1.899.2,2.825h-2.374c.149-.875.199-1.675.199-2.825v-14.472h-1.35c-.8,0-1.449.051-2.174.15v-1.975Z"/><path class="cls-1" d="M386.996,18.352c-.325-.8-.5-1.149-.875-1.575-.75-.824-1.725-1.249-2.974-1.249-1.95,0-3.425,1.05-4.324,3.099-.65,1.5-.875,2.649-1.05,5.374.45-.774.7-1.125,1.25-1.6,1.175-1.05,2.499-1.524,4.224-1.524,3.874,0,6.273,2.399,6.273,6.248,0,3.874-2.6,6.424-6.549,6.424-1.774,0-3.448-.575-4.523-1.575-1.625-1.499-2.524-4.299-2.524-7.848,0-3.124.7-5.924,1.899-7.548,1.325-1.8,3.1-2.725,5.273-2.725,1.5,0,2.85.375,3.8,1.05.874.625,1.374,1.3,2.1,2.799l-2,.65ZM382.972,22.551c-1.249,0-2.574.551-3.448,1.425-.825.825-1.25,1.925-1.25,3.175,0,2.699,2.024,4.699,4.724,4.699,1.625,0,3.124-.775,3.899-2.025.399-.649.649-1.674.649-2.649,0-2.949-1.649-4.624-4.574-4.624Z"/><path class="cls-1" d="M402.923,22.401c0-.55-.025-.975-.075-1.475.524.05,1.075.075,1.774.075h5.424v-4.074h-5.874c-1.274,2.125-2.474,3.6-4.148,5.099-.4-.575-.65-.825-1.2-1.2,2.475-2.099,3.824-3.924,4.999-6.723.325-.725.5-1.3.625-1.824l1.774.499c-.1.2-.175.375-.325.675l-.949,2.025h12.396c1.1,0,1.625-.025,2.25-.125v1.699c-.625-.1-1.225-.125-2.25-.125h-5.648v4.074h4.524c1.024,0,1.574-.025,2.224-.125v1.649c-.649-.075-1.249-.101-2.199-.101h-4.549v4.899h6.299c1.124,0,1.824-.05,2.524-.15v1.8c-.725-.1-1.5-.15-2.524-.15h-6.299v4.125c0,1.074.05,1.674.175,2.324h-1.975c.125-.625.15-1.175.15-2.324v-4.125h-9.022c-1.025,0-1.8.051-2.524.15v-1.8c.725.101,1.424.15,2.524.15h1.899v-4.924ZM410.046,27.325v-4.899h-5.499v4.899h5.499Z"/><path class="cls-1" d="M435.321,13.203c-.125.625-.15,1.35-.15,3.3,0,.55,0,.825.05,2.599,2.749,0,5.948-.399,7.323-.949l.225,1.85q-.425.025-1.499.175c-2.25.351-3.949.5-6.023.55.075,2.425.199,4.849.324,6.448,2.025.575,4.074,1.675,6.674,3.55.524.375.524.399,1.149.774l-1.175,1.749c-.524-.649-1.249-1.274-2.599-2.174-1.15-.775-2.524-1.55-3.375-1.925-.35-.149-.374-.149-.6-.274.05.274.101.75.101,1.074,0,1.05-.226,1.975-.625,2.524-.775,1.1-2.375,1.725-4.449,1.725-3.225,0-5.198-1.399-5.198-3.699,0-2.399,2.324-3.948,5.873-3.948.75,0,1.649.1,2.175.225.125.025.125.05.225.05q.05,0,.125.05c0-.1,0-.125-.025-.225v-.15c-.199-2.874-.374-7.697-.399-11.271-.025-1.225-.025-1.425-.125-2.025h2ZM431.321,28.125c-2.549,0-4.099.899-4.099,2.35,0,.399.15.824.375,1.074.524.625,1.675,1,2.999,1,1.2,0,2.175-.3,2.774-.824.425-.4.6-.926.6-1.875,0-.375-.05-1.375-.074-1.375-1.025-.274-1.6-.35-2.575-.35Z"/><path class="cls-1" d="M455.722,13.304c-.199.524-.35,1.225-.574,2.574-.4,2.524-.75,5.249-.825,6.523l.1.024q.051-.199.176-.725c.3-1.374.8-2.6,1.524-3.724,1.399-2.149,3.049-3.225,4.998-3.225,1.625,0,3.024.775,4,2.225,1.049,1.55,1.499,3.399,1.499,6.073,0,4.524-2.024,7.948-5.773,9.823-1.2.6-2.699,1.1-4.449,1.475-.3-.75-.449-1.024-.999-1.7,2.324-.35,3.624-.75,5.073-1.574,2.925-1.675,4.299-4.299,4.299-8.298,0-4.024-1.399-6.349-3.799-6.349-1.899,0-3.499,1.425-4.924,4.349-.875,1.825-1.35,3.749-1.35,5.574,0,.1,0,.225.024.6l-1.799.075v-.275l-.025-.449-.05-2.6v-.575c0-2.449.225-4.799.85-9.223.05-.375.075-.5.075-.8l1.949.2Z"/><path class="cls-1" d="M479.872,18.102c1.55,0,2.3-.025,2.824-.125-.05.649-.075,1.3-.1,2.1l-.226,11.571c0,.426.051.65.226.801.35.35,1.425.449,5.148.449,4.249,0,5.474-.1,6.049-.449.524-.325.699-1,.824-3.324.5.324.95.524,1.55.675-.225,2.449-.5,3.274-1.249,3.849-.775.575-2.125.725-6.574.725-4.573,0-5.974-.1-6.823-.524-.574-.275-.75-.7-.75-1.75,0-.024,0-.125.025-.2l.225-12.297h-2.549c-.101,3.675-.351,5.974-.85,8.224-.7,3.099-1.625,5.099-3.375,7.248-.425-.6-.749-.95-1.299-1.35,1.449-1.6,2.299-3.175,2.949-5.474.425-1.55.774-3.774.899-5.773,0-.2.025-.7.05-1.425.025-.325.05-.825.075-1.45h-1c-1.199,0-1.799.025-2.424.15v-1.8c.699.125,1.175.15,2.399.15h1.074c.025-.375.025-.675.025-.875.024-.45.024-.75.024-.875,0-1.874-.05-2.849-.175-3.574h1.875c-.125.625-.15,1.05-.15,1.6v1.825c0,.1,0,.425-.024.949,0,.2,0,.55-.025.95h1.35ZM486.971,29.524c-.8,0-1.75.025-2.35.075.05-.6.075-1.475.075-2.449v-10.098c0-1.15-.025-1.899-.075-2.6.575.075,1.225.1,2.374.1h4.824c1.199,0,1.874-.024,2.424-.1-.05.7-.074,1.375-.074,2.85v9.522c0,1.399.024,2.074.074,2.774-.499-.05-1.449-.075-2.374-.075h-4.898ZM486.245,21.026h6.374v-5.049h-6.374v5.049ZM486.245,28.125h6.374v-5.699h-6.374v5.699Z"/><path class="cls-1" d="M502.423,24.225c0-1.399,0-1.725.05-3.049-.75,1.374-1.699,2.624-3.174,4.198-.275-.475-.726-1.074-1.075-1.449,2.624-2.574,4.374-5.198,5.648-8.423.525-1.325.726-2.024.85-2.999l1.85.524q-.1.25-.524,1.399c-.225.575-1.075,2.575-2,4.649v13.097c0,.975.051,2,.15,3.024h-1.949c.1-1,.175-1.95.175-3.1v-7.873ZM510.846,31.773c0,.875.375,1,3.274,1,2.849,0,3.799-.149,4.174-.6.399-.55.649-1.875.85-4.574.6.4,1.125.625,1.649.775-.3,2.749-.649,4.174-1.175,4.898-.624.825-1.85,1.05-5.599,1.05-4.174,0-4.823-.3-4.823-2.249V15.503c0-1.1-.075-2.074-.15-2.699h1.95c-.101.675-.15,1.6-.15,2.699v7.073c1.699-.949,2.975-1.8,4.374-2.874,1.725-1.35,2.725-2.325,3.574-3.475l1.449,1.325q-.35.3-1.524,1.375c-2.175,1.974-4.499,3.599-7.873,5.473v7.373Z"/><path class="cls-1" d="M543.943,20.826c-.074.125-.324.676-.749,1.675-1.425,3.324-1.9,4.225-3.324,6.099.774,1.574,1.399,2.375,2.524,3.324.449.35.85.575,1.074.575.4,0,.825-1.3,1.125-3.6.524.525.899.825,1.35,1.101-.325,1.648-.525,2.324-.9,3.049-.399.8-.899,1.199-1.549,1.199s-1.65-.574-2.625-1.549c-.749-.726-1.425-1.65-2.074-2.8-2.05,2.175-4.049,3.624-6.923,4.974-.4-.6-.65-.85-1.226-1.274,3.125-1.25,5.399-2.824,7.424-5.174-1.149-2.675-1.875-6.224-2.125-10.397h-8.798c0,2.175-.024,3.024-.05,4.074h4.774c.899,0,1.324-.025,1.874-.1q-.075.524-.175,2.799c-.15,2.824-.4,4.648-.75,5.373-.375.775-.925,1-2.324,1-.899,0-1.5-.05-2.624-.225-.051-.65-.101-1.024-.301-1.625,1.375.301,2.125.4,2.95.4s1.024-.225,1.199-1.324c.175-1.051.3-2.925.325-4.899h-4.999c-.15,3.199-.35,5.049-.8,6.898-.425,1.774-.875,2.849-1.899,4.374-.45-.525-.8-.825-1.325-1.125.925-1.3,1.4-2.35,1.75-3.749.55-2.249.825-5.624.825-10.497,0-1.675-.025-2.074-.15-2.925.875.101,1.774.125,3.049.125h7.374c-.101-3.074-.125-3.474-.25-4.049h1.924c-.1.5-.125,1.1-.125,2.05,0,.449,0,.824.051,1.999h5.448c1.399,0,2.05-.024,2.675-.149v1.699c-.775-.1-1.476-.125-2.8-.125h-5.273c.175,3.574.725,6.599,1.649,8.998,1.5-2.149,2.799-5.049,3.074-6.873l1.699.674ZM542.569,16.203c-1.4-1.275-1.925-1.675-3.6-2.649l1.075-.875c1.649.95,1.949,1.149,3.574,2.475l-1.05,1.05Z"/><path class="cls-1" d="M550.748,24.051c.35,1.5.7,2.35,1.55,3.774.725-1.75,1.05-2.899,1.425-5.599h-2.149c-.7,0-1.575.025-2.274.074,1.799-2.624,2.974-4.674,4.049-7.048h-2.999c-.7,0-1.15.025-1.7.125v-1.624c.55.1.975.125,1.725.125h2.375c.925,0,1.424-.025,1.85-.101l.725.95c-.15.225-.3.524-.55,1.024-.726,1.55-1.925,3.649-2.949,5.124h1.624c1.1,0,1.55-.025,1.975-.101q-.075.375-.2,1.25c-.324,2.649-1.024,5.174-1.975,7.198,2.125,2.699,4.799,3.674,10.048,3.674,2.475,0,5.499-.149,7.798-.35-.324.75-.399.925-.524,1.725-1.85.05-4.999.1-6.924.1-5.923,0-8.473-.875-11.097-3.849-.975,1.699-1.824,2.774-3.475,4.399-.399-.601-.75-.95-1.175-1.226,1.775-1.574,2.675-2.674,3.675-4.424-.601-.874-1.05-1.725-1.7-3.249q-.3-.699-.625-1.375l1.5-.6ZM561.721,15.553h-3.199c-.725,0-1.225.025-1.8.1v-1.475c.55.101,1,.125,1.85.125h3.149c-.025-.924-.05-1.299-.125-1.898h1.699c-.1.524-.125.975-.125,1.898h3.949c.825,0,1.375-.024,1.824-.074q0,.125-.024.425c-.025.25-.025.774-.025,1.149v1.774h.125c.775,0,1.274-.05,1.875-.149v1.5c-.55-.076-1.025-.101-1.875-.101h-.125v2.05c0,.524.025,1.174.05,1.424-.8-.049-1.124-.049-1.774-.049h-3.999v2.148h3.999c.85,0,1.524-.024,2.225-.125v1.475c-.649-.074-1.274-.1-2.249-.1h-3.975v2.199h5.124c1.024,0,1.699-.05,2.324-.149v1.524c-.6-.075-1.3-.1-2.324-.1h-5.124v.625c0,1.1.025,1.674.125,2.324h-1.699c.075-.7.125-1.275.125-2.3v-.649h-3.999c-.975,0-1.524.024-2.225.125v-1.55c.6.1,1.274.149,2.249.149h3.975v-2.199h-3.35c-.8,0-1.449.05-2.05.125v-1.5c.601.101,1.25.125,2.05.125h3.35v-2.148h-3.274c-.7,0-1.149.024-1.75.1v-1.475c.525.1.95.125,1.825.125h3.199v-2.175h-4.174c-1.05,0-1.675.024-2.3.125v-1.524c.649.1,1.199.149,2.324.149h4.149v-2.024ZM567.444,17.577v-2.024h-4.274v2.024h4.274ZM563.17,21.002h4.274v-2.175h-4.274v2.175Z"/><path class="cls-1" d="M579.822,18.877c.75,2.05,1.899,3.674,3.674,5.199-.399.425-.649.774-.949,1.399-1.4-1.45-2.125-2.55-3-4.599.125,1.624.175,3.074.175,4.873v6.898c0,1.175.051,1.95.15,2.649h-1.874c.1-.649.149-1.524.149-2.649v-6.573c0-1.374.05-3.449.125-4.698-.975,3.424-2.199,5.873-4.049,8.272-.375-.725-.575-1.024-1.024-1.449,2.149-2.475,3.523-5.199,4.698-9.323h-1.8c-.85,0-1.424.051-2.124.15v-1.699c.625.125,1.1.149,2.175.149h1.999v-2.6c0-.975-.05-1.624-.149-2.349h1.874c-.125.674-.15,1.174-.15,2.324v2.624h1.575c.7,0,1.274-.05,1.874-.125v1.649c-.574-.074-1.199-.125-1.874-.125h-1.475ZM586.546,18.902c-1.15,0-1.875.025-2.575.125v-1.65c.726.101,1.375.125,2.55.125h4.449v-2.148c0-1.1-.051-1.925-.15-2.75h1.875c-.125.875-.15,1.6-.15,2.75v2.148h1.225c1,0,1.625-.049,2.3-.149v1.7c-.65-.101-1.325-.15-2.3-.15h-1.225l.1,13.871c0,1.6-.499,1.975-2.749,1.975-.875,0-1.824-.05-2.799-.149-.075-.625-.175-1.05-.425-1.649,1.274.199,2.099.274,3.023.274,1.125,0,1.325-.1,1.325-.625l-.025-11.946c-.85,1.799-1.824,3.398-3.049,4.923-1.5,1.899-2.8,3.149-5.299,4.999-.325-.525-.7-.925-1.149-1.274,2.199-1.35,4.549-3.524,6.173-5.773.95-1.351,1.875-2.925,2.649-4.624h-3.773Z"/><path class="cls-1" d="M608.521,26.7c-1.45,3.3-2.925,4.799-4.724,4.799-2.375,0-4.149-2.6-4.149-6.099,0-2.549.95-5.023,2.624-6.898,2-2.199,4.725-3.324,8.073-3.324,2.8,0,5.249.875,6.873,2.475,1.575,1.524,2.425,3.699,2.425,6.099,0,3.874-2.1,7.073-5.724,8.623-1.125.475-2.074.774-3.799,1.149-.25-.824-.4-1.074-.875-1.674,1.824-.301,2.999-.625,4.174-1.176,2.749-1.249,4.424-3.924,4.424-6.998,0-2.85-1.449-5.148-3.974-6.273-.925-.399-1.649-.574-2.899-.625-.375,3.475-1.325,7.299-2.449,9.923ZM605.447,17.977c-2.524,1.524-4.074,4.349-4.074,7.448,0,2.399,1.05,4.249,2.399,4.249,1.05,0,2.05-1.175,3.124-3.624,1.024-2.35,1.949-6.049,2.274-9.248-1.499.125-2.574.475-3.724,1.175Z"/><path class="cls-1" d="M644.195,33.199c-.2-.9-.475-1.775-.775-2.55l-1.299-3.225h-8.724l-1.3,3.225c-.374.95-.6,1.675-.774,2.55h-2.6c.5-.825.675-1.2,1.35-2.875l5.599-13.797c.476-1.174.675-1.749.8-2.324h2.524c.101.475.226.8.851,2.324l5.599,13.797c.624,1.5.949,2.225,1.324,2.875h-2.574ZM638.297,17.453c-.075-.201-.075-.226-.55-1.6-.125.374-.226.649-.275.824-.149.4-.225.675-.274.775l-3.199,8.247h7.522l-3.224-8.247Z"/><path class="cls-1" d="M651.772,33.199c-1.149,0-1.85.024-2.724.074.149-.949.199-1.749.199-2.975v-13.146c0-1.299-.05-2.074-.199-2.949h2.35c-.15.925-.2,1.574-.2,2.949v14.271h7.873c1.25,0,1.925-.05,2.899-.175v2.124c-.8-.125-1.5-.174-2.899-.174h-7.299Z"/><path class="cls-1" d="M677.595,19.601c-.375-1.074-.649-1.6-1.175-2.199-.999-1.175-2.499-1.799-4.323-1.799-4.049,0-6.599,3.099-6.599,8.072s2.574,8.098,6.599,8.098c1.975,0,3.648-.749,4.674-2.099.524-.726.774-1.35,1-2.5l2.074.5c-.425,1.475-.75,2.175-1.35,2.975-1.4,1.874-3.675,2.899-6.474,2.899-2.399,0-4.424-.75-5.849-2.199-1.75-1.75-2.699-4.475-2.699-7.599,0-3.224,1-5.948,2.85-7.773,1.449-1.399,3.349-2.124,5.724-2.124,2.349,0,4.248.675,5.599,2.024.874.85,1.35,1.6,1.949,3.149l-2,.574Z"/><path class="cls-1" d="M693.923,21.502c1.524,1.149,2.399,1.924,3.398,3.049.925-2.1,1.425-3.699,2.05-6.898h-4.698c-1.2,2.975-2.75,5.398-4.874,7.748-.375-.625-.55-.85-1.1-1.324,2.224-2.25,3.898-4.999,5.099-8.473.375-1.051.699-2.3.8-3.125l1.8.35c-.226.525-.301.75-.5,1.426-.2.649-.325,1.024-.675,1.974h3.898c.9,0,1.425-.024,1.975-.075-.05.325-.075.426-.1.7.875,2.449,1.574,3.724,3.049,5.448v-7.022c0-1-.05-1.725-.175-2.6h1.925c-.125.875-.175,1.575-.175,2.6v8.522c1.975,1.75,3.799,2.899,6.198,3.924-.375.4-.75.95-1.05,1.575-2.25-1.125-3.524-2-5.148-3.499v6.298c0,1.351.05,2.1.175,3.05h-1.925c.125-.975.175-1.75.175-3.05v-7.723c-1.749-1.95-2.6-3.225-3.449-5.274-.6,3.25-1.574,5.999-2.974,8.448-1.625,2.8-3.824,5.174-6.999,7.523-.35-.575-.699-.95-1.225-1.375,3.374-2.299,5.524-4.599,7.224-7.723-1.2-1.399-2.074-2.2-3.624-3.3l.925-1.174Z"/><path class="cls-1" d="M717.073,18.702c-.25,3.1-1,5.448-2.425,7.673-.399-.574-.649-.824-1.175-1.149,1.7-2.324,2.325-5.049,2.325-10.048,0-1-.025-1.449-.075-1.924.475.05,1.124.074,2.124.074h4.049c.851,0,1.725-.024,2.1-.074-.05.375-.075,1.049-.075,1.874v1.75c0,1.1,0,1.475.051,1.874q-.15-.024-.5-.024c-.05,0-.175,0-.375-.025h-6.023ZM724.196,28.55c0-.875-.05-1.325-.15-1.899h1.825c-.101.6-.125.949-.125,1.899v.25h5.299c1.35,0,1.949-.025,2.624-.149v1.648c-.774-.1-1.425-.125-2.624-.125h-5.299v2.825h7.223c1.375,0,2.125-.025,2.774-.125v1.649c-.85-.1-1.774-.15-2.824-.15h-16.146c-1.05,0-2,.051-2.8.15v-1.649c.625.075,1.425.125,2.725.125h7.498v-2.825h-5.349c-1.225,0-1.875.025-2.624.125v-1.648c.675.124,1.225.149,2.624.149h5.349v-.25ZM722.446,17.428v-2.824h-5.173v.774c0,.649-.025,1.175-.075,2.05h5.248ZM717.298,22.801c0-1.1-.024-1.499-.075-2.1.55.075.851.075,1.925.075h2.725c1.225,0,1.675-.024,2.124-.1-.05.6-.05.899-.05,2.074v1.649c0,1.2,0,1.575.05,2.1-.675-.05-1.3-.074-2.124-.074h-2.475c-1.125,0-1.5.024-2.175.074.051-.699.075-1.024.075-2.124v-1.575ZM718.673,25.176h3.898v-3.149h-3.898v3.149ZM727.695,19.202c-.35-1.024-.55-1.475-1.25-2.649l1.325-.425c.675,1.274.975,1.999,1.324,3.074h1.95c.5-.975.824-1.8,1.199-3.074l1.5.425c-.5,1.1-.925,1.949-1.3,2.649h1.074c1.101,0,1.75-.025,2.35-.125v1.524c-.725-.1-1.249-.125-2.399-.125h-2.749v2.475h2.249c1.05,0,1.475-.025,2.125-.125v1.55c-.675-.125-1.149-.15-2.149-.15h-2.225v.476c0,1.35.025,2.1.15,2.749h-1.75c.1-.774.15-1.425.15-2.749v-.476h-1.825c-.975,0-1.499.025-2.149.15v-1.55c.65.1,1.1.125,2.149.125h1.825v-2.475h-2.5c-1.05,0-1.675.025-2.324.125v-1.524c.55.1,1.149.125,2.3.125h.949ZM729.22,14.004c0-.7-.05-1.125-.149-1.65h1.774c-.1.425-.15.825-.15,1.65v.475h2.175c1.1,0,1.8-.051,2.425-.15v1.574c-.625-.1-1.25-.125-2.325-.125h-5.548c-1.05,0-1.65.025-2.25.125v-1.574c.575.1,1.3.15,2.375.15h1.674v-.475Z"/><path class="cls-1" d="M746.397,16.527c.824-1.749,1.124-2.624,1.199-3.424l2,.35q-.226.325-.65,1.35c-.325.801-.649,1.475-.774,1.7q.3-.025.524-.025c3.999-.2,6.499-.5,7.873-.949l.15,1.699c-.4.024-.55.05-1,.125-2.6.35-5.224.55-8.248.649-.75,1.475-1.375,2.475-2.249,3.55-.25.3-.75.874-.851.949-.175.125-.3.226-.324.25,0,.025-.025.025-.025.025v.024q.025.051.05.075.9-.7,1.15-.874c1.149-.801,2.474-1.226,3.773-1.226,1.85,0,2.975.925,3.3,2.774,1.824-.725,3.249-1.25,4.349-1.649,1.225-.425,1.3-.45,1.699-.725l.8,1.749c-1.3.226-3.549.975-6.673,2.2.05.649.05.899.05,1.524,0,.324,0,.875-.025,1.375-.024.549-.024.899-.024,1.124,0,.351,0,.55.05.899l-1.699.025c.074-.55.149-2.074.149-3.599,0-.4,0-.45-.024-.75-3.399,1.6-4.699,2.774-4.699,4.274,0,1.648,1.55,2.374,5.074,2.374,2.474,0,5.248-.4,6.673-.975l.225,1.925c-.375.024-.499.049-.999.125-1.975.324-4.149.499-6.074.499-4.474,0-6.648-1.274-6.648-3.849,0-1.375.851-2.675,2.55-3.949.85-.625,2.05-1.274,3.724-2-.199-1.374-.8-1.975-1.974-1.975-1.575,0-3.55.926-5.574,2.65-.975.824-1.524,1.399-1.925,2.074l-1.399-1.4c1.725-1.324,3.799-3.948,5.599-7.147q.075-.125.225-.375c-.1.024-.35.05-.475.05-.399,0-2.749-.05-3.674-.075h-.4c-.225,0-.274,0-.55.025l.025-1.725c.899.175,2.799.274,5.349.274h.4Z"/><path class="cls-1" d="M765.448,19.002c-.625,0-1.199.051-1.85.15v-1.699c.625.1,1.15.149,1.875.149h1.425v-2.399c0-1.05-.051-1.699-.175-2.524h1.899c-.125.75-.176,1.475-.176,2.499v2.425h.625c.851,0,1.25-.025,1.7-.125v1.624c-.55-.074-.975-.1-1.675-.1h-.65v4.749c.95-.425,1.3-.575,2.3-1.125v1.575c-.925.449-1.199.574-2.3,1.074v7.898c0,1.475-.524,1.824-2.674,1.824-.375,0-.975-.025-1.55-.05-.05-.649-.125-1.024-.35-1.575.875.125,1.449.176,2.1.176.725,0,.925-.15.925-.7v-6.898c-.851.351-1.15.45-1.7.675-.5.2-.8.325-1.225.55l-.449-1.724c.899-.15,1.699-.4,3.374-1.051v-5.398h-1.45ZM783.544,24.626c.925,0,1.699-.05,2.375-.15v1.649c-.7-.1-1.5-.149-2.375-.149h-4.474c1.85,2.699,4.249,4.648,7.548,6.148-.475.524-.725.899-1.024,1.524-3.124-1.824-5.024-3.549-7.099-6.523.075.55.125,1.449.125,2.399v3.225c0,.975.05,1.824.15,2.549h-1.774c.1-.749.149-1.6.149-2.549v-3.175c0-.899.05-1.774.125-2.424-1.75,2.774-3.474,4.424-6.673,6.373-.4-.649-.575-.85-1.15-1.35,2.999-1.425,5.499-3.574,7.224-6.198h-3.499c-1.1,0-1.8.024-2.425.125v-1.6c.6.1,1.25.125,2.425.125h3.974v-.3c0-.75-.025-1.175-.125-1.6h1.725c-.1.425-.125.824-.125,1.6v.3h4.924ZM785.094,14.129q-.325.1-1.125.374c-3.099,1.125-7.448,1.875-12.396,2.149-.2-.649-.325-.924-.625-1.449,3.249-.05,6.148-.375,8.822-1,1.875-.425,3.324-.925,4.175-1.449l1.149,1.375ZM773.771,22.826c-.575-1.899-1.075-2.999-2.074-4.674l1.3-.525c1.024,1.65,1.399,2.475,2.149,4.6l-1.375.6ZM778.096,21.927c-.425-1.85-.8-2.8-1.774-4.524l1.374-.425c.925,1.575,1.35,2.649,1.85,4.524l-1.449.425ZM780.645,22.476c1.675-2.225,2.449-3.749,3.249-6.349l1.5.75c-1.125,2.724-1.949,4.198-3.449,6.224l-1.3-.625Z"/><path class="cls-1" d="M800.746,31.624c0,1.325.024,2.124.125,2.725h-1.8c.1-.65.125-1.399.125-2.725v-4.724h-6.849c-.375,3.773-1.024,5.823-2.699,8.197-.55-.524-.8-.699-1.449-1.074,1.074-1.399,1.624-2.524,2.024-4.224.55-2.3.774-5.948.774-12.122,0-2.524,0-3-.1-4.074.75.075,1.5.1,2.749.1h13.447c1.249,0,1.924-.024,2.649-.1-.075.675-.101,1.324-.101,2.449v16.771c0,1.574-.574,1.949-2.999,1.949-.8,0-2.05-.05-3.1-.125-.05-.575-.149-1-.375-1.625,1.45.176,2.675.275,3.574.275,1.1,0,1.325-.125,1.325-.75v-5.648h-7.323v4.724ZM792.573,21.002c-.025.699-.025,1.299-.025,1.649-.025,1.55-.025,1.649-.1,2.8h6.748v-4.449h-6.623ZM799.196,15.203h-6.573v2.975l-.025,1.399h6.599v-4.374ZM808.069,19.577v-4.374h-7.323v4.374h7.323ZM800.746,25.451h7.323v-4.449h-7.323v4.449Z"/><path class="cls-1" d="M821.197,31.224c0,2.074-1.675,3.748-3.749,3.748s-3.749-1.674-3.749-3.748,1.674-3.75,3.749-3.75,3.749,1.675,3.749,3.75ZM815.124,31.224c0,1.274,1.049,2.324,2.324,2.324s2.324-1.05,2.324-2.324-1.05-2.325-2.324-2.325-2.324,1.05-2.324,2.325Z"/><path class="cls-1" d="M129.696,60.35v-13.021h6.623v1.55h-4.924v11.472h-1.699Z"/><path class="cls-1" d="M138.274,58.851c.775-2.1,1.101-3.824,1.2-6.475l1.35.351c-.225,3.099-.524,4.674-1.274,6.748l-1.275-.624ZM141.674,70.323c.125-.825.175-1.8.175-2.85v-17.396c0-.949-.05-1.675-.175-2.524h1.925c-.125.85-.175,1.55-.175,2.524v17.496c0,1.049.05,1.899.175,2.749h-1.925ZM145.373,56.826c-.35-1.649-.725-2.699-1.449-4.224l1.124-.55c.75,1.55,1.175,2.699,1.575,4.148l-1.25.625ZM153.246,60.076c1.625,3.898,4.349,6.697,8.123,8.397-.45.524-.725.975-1.024,1.624-3.85-2.049-6.773-5.298-8.173-9.122-1.05,4.149-3.199,6.998-6.924,9.197-.325-.6-.575-.899-1.125-1.374,1.725-.95,2.85-1.825,4.024-3.149,1.274-1.475,2.124-3.249,2.649-5.573h-3.05c-1.024,0-1.949.05-2.648.149v-1.749c.624.1,1.524.149,2.624.149h3.324c.175-1.6.25-3.074.25-5.023v-.55h-2.274c-1.1,0-1.774.024-2.449.125v-1.725c.675.1,1.399.125,2.474.125h2.25v-1.575c0-.975-.05-1.675-.175-2.399h1.899c-.125.775-.175,1.375-.175,2.399v1.575h3.874c1.05,0,1.674-.025,2.174-.101-.075.525-.1,1.2-.1,2.175v4.974h.475c.8,0,1.475-.05,2.125-.149v1.749c-.7-.1-1.55-.149-2.524-.149h-5.624ZM157.245,53.053h-4.398v.399c0,1.75-.101,3.974-.25,5.174h4.648v-5.573Z"/><path class="cls-1" d="M163.725,57.426c.6.101,1,.125,1.925.125h1.225c.725,0,1.324-.05,1.925-.125-.101.775-.125,1.4-.125,2.65v4.924c.35.799.624,1.174,1.199,1.624,1.3,1.05,2.8,1.399,5.823,1.399,4.975,0,8.474-.149,10.973-.5-.375.825-.425.975-.574,1.8-2.7.125-5.274.175-8.549.175-4.224,0-5.648-.175-7.098-.85-1.05-.5-1.85-1.25-2.6-2.399-1.199,1.225-1.6,1.575-3.074,2.725-.025.024-.25.2-.575.5-.024.024-.1.075-.175.149l-.824-1.649c1.124-.524,2.474-1.55,3.924-2.999v-6.023h-1.575c-.824,0-1.249.024-1.824.125v-1.65ZM165.249,48.054c1.75,1.624,2.574,2.574,3.999,4.424l-1.274,1.125c-1.375-1.975-2.3-3.05-3.874-4.55l1.149-.999ZM183.345,49.578c1.175,0,1.899-.05,2.574-.15v1.55c-.749-.1-1.399-.124-2.524-.124h-1.175c-.324.774-.649,1.499-1.1,2.374h1.375c1.274,0,1.899-.025,2.649-.101-.075.775-.1,1.45-.1,2.725v8.823c0,1.55-.426,1.85-2.6,1.85-.45,0-1.05-.025-1.774-.05-.075-.65-.15-.9-.375-1.5.75.1,1.649.175,2.399.175.725,0,.875-.101.875-.575v-10.122h-11.073v9.147c0,1.3.051,2.274.125,2.875h-1.725c.075-.7.125-1.65.125-2.875v-7.823c0-1.35-.024-1.849-.074-2.624.774.05,1.3.075,2.849.075h1.025c-.3-.875-.65-1.675-1-2.374h-1.125c-1.225,0-1.899.024-2.599.124v-1.55c.649.101,1.424.15,2.624.15h4.449c0-1.125-.025-1.449-.125-2.1h1.824c-.125.625-.15.875-.15,2.1h4.624ZM175.572,57.826c-.825,0-1.45.025-2.125.1v-1.399c.675.101,1.2.125,2.125.125h1.774c0-.85-.025-1.149-.101-1.675h1.5c-.075.525-.1.775-.1,1.675h1.899c.975,0,1.499-.024,2.199-.125v1.399c-.675-.074-1.325-.1-2.199-.1h-1.899v1.875h.874c.9,0,1.425-.025,2-.101-.075.525-.101,1.024-.101,1.825v1.324c0,1.024,0,1.25.051,1.649-.476-.05-1.15-.075-1.825-.075h-3.824v1.25h-1.424c.05-.525.074-1.1.074-1.824v-2.375c0-.725-.024-1.125-.074-1.774.55.075.949.101,1.924.101h1.025v-1.875h-1.774ZM179.646,53.227c.375-.7.726-1.5,1.025-2.374h-5.349c.399.799.749,1.648.975,2.374h3.349ZM175.797,63.2h4.299v-2.375h-4.299v2.375Z"/><path class="cls-1" d="M195.298,57.351v13.021h-6.623v-1.55h4.924v-11.472h1.699Z"/><path class="cls-1" d="M222.223,48.353c.1,1.675,1.024,5.773,1.874,8.273,1.476-.601,2.175-.875,6.049-2.225.875-.325,1.1-.4,1.6-.65l.75,1.9c-1.75.374-5.323,1.523-7.523,2.424-4.273,1.699-6.123,3.35-6.123,5.424,0,2.274,1.925,3.148,6.823,3.148,2.874,0,5.674-.324,7.148-.85l.199,2.075q-.475,0-1.849.149c-2.575.25-3.774.325-5.524.325-2.474,0-4.349-.225-5.548-.675-2.05-.75-3.1-2.125-3.1-4.1,0-1.6.75-3.049,2.225-4.248.949-.775,1.725-1.25,3.273-2.025-.699-2.049-1.174-3.799-1.824-6.998-.225-1.049-.274-1.174-.425-1.574l1.975-.375Z"/><path class="cls-1" d="M254.696,60.35v-13.021h6.623v1.55h-4.924v11.472h-1.699Z"/><path class="cls-1" d="M265.649,50.278c-.925,0-1.399.024-2,.125v-1.649c.601.125,1.1.149,2.1.149h2.475c.975,0,1.475-.024,2.1-.149v1.649c-.6-.101-1.1-.125-1.899-.125h-.4v5.898h.351c.749,0,1.049-.025,1.624-.125v1.574c-.524-.075-1-.1-1.624-.1h-.351v5.923c1-.374,1.524-.6,2.949-1.274v1.55c-2.35,1.075-3.274,1.449-5.798,2.375-.525.199-.976.399-1.325.549l-.5-1.773c.675-.051,1.5-.275,3.149-.851v-6.498h-.774c-.7,0-1.15.024-1.7.125v-1.6c.55.1.95.125,1.7.125h.774v-5.898h-.85ZM285.669,63.5q-.1.05-.324.225-.101.075-.476.375c-.949.775-1.549,1.225-2.574,1.899,1.425.925,2.649,1.5,4.674,2.125-.399.499-.649.949-.874,1.449-2.1-.875-3.5-1.649-4.899-2.8-1.175-.924-1.874-1.674-2.774-3.074.05.575.101,1.575.101,2.45v1.899c0,1.149.05,1.799.149,2.399h-1.749c.1-.601.149-1.3.149-2.425v-1.824c0-.7.05-1.725.101-2.375-1.025,1.25-1.925,2.075-3.449,3.125-1.175.824-2.149,1.35-3.999,2.249-.301-.524-.601-.899-1.075-1.324,2.175-.75,4.124-1.75,5.749-2.999.85-.676,1.424-1.225,2.474-2.35h-3.099c-.8,0-1.55.024-1.95.074.051-.399.075-.949.075-1.549v-1.65c0-.6-.024-1.1-.075-1.549.601.05,1.15.074,2,.074h8.772c.95,0,1.475-.024,2.075-.074-.051.449-.075.924-.075,1.549v1.675c0,.65.024,1.075.075,1.524-.15-.024-.175-.024-.325-.024l1.324.925ZM270.623,54.902c.675.1,1.375.149,2.374.149h10.897c.925,0,1.675-.05,2.35-.125v1.55c-.725-.075-1.425-.125-2.3-.125h-10.972c-.9,0-1.649.05-2.35.125v-1.574ZM271.223,49.828c0-.75-.024-1.175-.1-1.675.5.075,1.1.101,1.999.101h10.373c.85,0,1.475-.025,1.999-.101-.075.5-.1,1-.1,1.649v2.15c0,.649.024,1.174.1,1.649-.55-.05-1.149-.075-1.924-.075h-10.448c-.8,0-1.249.025-1.975.075.051-.45.075-.775.075-1.7v-2.074ZM275.572,49.478h-2.925v2.85h2.925v-2.85ZM273.397,61.301h9.673v-2.175h-9.673v2.175ZM279.646,49.478h-2.749v2.85h2.749v-2.85ZM278.721,62.525c.95,1.249,1.45,1.774,2.475,2.648,1.5-.924,2.649-1.898,3.124-2.599-.399-.025-.975-.05-1.499-.05h-4.1ZM283.995,49.478h-3.024v2.85h3.024v-2.85Z"/><path class="cls-1" d="M291.674,50.528c0-1.125-.05-2-.149-2.75h1.824c-.1.775-.15,1.524-.15,2.75v3.648h.351c.925,0,1.374-.024,1.975-.1v1.6c-.575-.075-1.125-.101-2-.101h-.325v7.174c1.05-.475,1.5-.675,2.75-1.324l.125,1.524c-1.975.999-3.3,1.6-6.148,2.749-.325.15-.726.325-1.025.475l-.449-1.725c.725-.125,1.449-.35,3.224-1.074v-7.799h-.824c-.8,0-1.45.025-2.175.125v-1.648c.675.1,1.3.124,2.225.124h.774v-3.648ZM299.072,63.849c-.725,0-1.225.025-2.125.1.075-.449.101-.899.101-1.749v-4.024c0-.875-.025-1.424-.101-1.949.601.075,1.351.1,2.399.1h7.873c1.025,0,1.7-.024,2.35-.1-.074.45-.1,1.025-.1,2v3.824c0,.899.025,1.424.1,1.898-.699-.074-1.225-.1-2.049-.1h-1.975v3.899c0,.475.274.55,2.199.55,1.35,0,1.8-.1,1.999-.4.2-.324.325-1.25.351-2.648.574.35.85.449,1.475.624-.15,2.125-.375,2.949-.95,3.374-.5.375-1.149.476-3.199.476-1.675,0-2.249-.075-2.824-.351-.399-.199-.575-.55-.575-1.199v-4.324h-2.549c-.1.975-.15,1.275-.35,1.85-.476,1.324-1.375,2.375-2.75,3.199-1.1.675-2.074,1.025-3.898,1.425-.275-.625-.525-1.024-1-1.475,2.799-.45,4.249-1.024,5.273-2.075.775-.824,1.075-1.549,1.2-2.924h-.875ZM307.945,49.703c1.1,0,1.85-.025,2.524-.125v1.5c-.726-.075-1.45-.101-2.524-.101h-.25c-.45,1.075-.825,1.825-1.225,2.524h2.174c1.225,0,1.774-.024,2.475-.125v1.575c-.725-.101-1.375-.125-2.499-.125h-10.272c-1.05,0-1.625.024-2.375.1v-1.55c.726.101,1.3.125,2.35.125h1.6c-.274-.899-.575-1.649-1.05-2.524h-.225c-1,0-1.575.025-2.274.101v-1.5c.675.1,1.399.125,2.475.125h3.549v-.699c0-.676-.025-1.125-.125-1.625h1.8c-.101.475-.125.949-.125,1.649v.675h3.999ZM298.473,59.4h9.522v-1.774h-9.522v1.774ZM298.473,62.625h9.522v-1.975h-9.522v1.975ZM304.945,53.502c.5-.85.875-1.649,1.2-2.524h-5.724c.35.75.7,1.625,1,2.524h3.523Z"/><path class="cls-1" d="M316.624,59.176c0-.975.025-1.899.075-2.999-.725,1.324-1.325,2.124-2.625,3.524q-.524-.85-1.024-1.425c2.199-2.175,3.725-4.499,4.849-7.448.5-1.275.875-2.574,1-3.449l1.699.55c-.149.35-.25.649-.449,1.35-.4,1.25-1.075,2.874-2,4.674v13.297c0,1.149.025,2.024.125,2.924h-1.8c.101-.949.15-1.724.15-2.999v-7.998ZM327.047,56.377h-2.774c-1.25,0-1.85.024-2.649.1.05-.675.1-1.324.1-2.25v-3.249c0-.949-.024-1.499-.1-2.224.699.1,1.399.125,2.749.125h7.373c1.375,0,2.05-.025,2.75-.125-.101.774-.101,1.249-.101,2.273v3.225c0,1.025.025,1.574.101,2.225-.551-.05-1.675-.1-2.625-.1h-3.324v2.648h5.099c.925,0,1.75-.05,2.45-.149v1.699c-.851-.1-1.7-.149-2.425-.149h-4.699c1.425,1.85,2.05,2.499,3.374,3.574,1.45,1.199,2.774,2.024,4.524,2.799-.475.5-.75.9-1.125,1.55-1.524-.925-2.699-1.749-3.974-2.874-1.399-1.2-2.149-2.074-3.35-3.85.075.775.125,1.55.125,2.675v3.424c0,.925.025,1.7.15,2.449h-1.8c.1-.774.15-1.55.15-2.449v-3.399c0-1.174.024-1.999.1-2.699-1.175,1.875-2.1,2.925-3.799,4.35-1.225,1.049-2.075,1.649-3.449,2.424-.325-.55-.675-.975-1.15-1.399,2-.975,3.324-1.874,4.899-3.274,1.199-1.074,1.749-1.699,2.874-3.299h-4.324c-.949,0-1.774.05-2.474.149v-1.699c.725.1,1.475.149,2.474.149h4.85v-2.648ZM323.272,54.952h9.548v-4.649h-9.548v4.649Z"/><path class="cls-1" d="M350.821,47.903c1.351,2.024,2.75,3.475,4.874,5.074,2,1.499,4.124,2.724,6.174,3.499-.475.55-.75.975-1.075,1.649-2.274-1.124-4.398-2.474-6.348-4.024-1.975-1.574-3.149-2.824-4.574-4.799-1.225,1.825-2.25,2.975-3.999,4.5-1.949,1.674-3.999,3.023-6.424,4.248-.3-.625-.524-.899-1.1-1.499,2.149-.925,4.499-2.35,6.273-3.824,1.774-1.5,3.124-3.024,4.225-4.824h1.974ZM345.173,57.951c-1.05,0-1.649.025-2.324.125v-1.699c.7.1,1.2.125,2.25.125h9.598c1.049,0,1.574-.025,2.249-.125v1.699c-.649-.1-1.274-.125-2.3-.125h-4.049v3.799h4.649c1.074,0,1.649-.024,2.299-.125v1.7c-.649-.101-1.249-.125-2.299-.125h-4.649v4.474h7.548c1.15,0,2.025-.05,2.75-.15v1.825c-.825-.125-1.75-.175-2.725-.175h-16.321c-.999,0-1.949.05-2.774.175v-1.825c.726.101,1.6.15,2.8.15h7.099v-4.474h-4.175c-1.05,0-1.674.024-2.324.125v-1.7c.625.101,1.25.125,2.324.125h4.175v-3.799h-3.8Z"/><path class="cls-1" d="M370.298,57.351v13.021h-6.623v-1.55h4.924v-11.472h1.699Z"/><path class="cls-1" d="M396.573,51.527c.824-1.749,1.124-2.624,1.199-3.424l2,.35q-.226.325-.65,1.35c-.325.801-.649,1.475-.774,1.7q.3-.025.524-.025c3.999-.2,6.499-.5,7.873-.949l.15,1.699c-.4.024-.55.05-1,.125-2.6.35-5.224.55-8.248.649-.75,1.475-1.375,2.475-2.249,3.55-.25.3-.75.874-.851.949-.175.125-.3.226-.324.25,0,.025-.025.025-.025.025v.024q.025.051.05.075.9-.7,1.15-.874c1.149-.801,2.474-1.226,3.773-1.226,1.85,0,2.975.925,3.3,2.774,1.824-.725,3.249-1.25,4.349-1.649,1.225-.425,1.3-.45,1.699-.725l.8,1.749c-1.3.226-3.549.975-6.673,2.2.05.649.05.899.05,1.524,0,.324,0,.875-.025,1.375-.024.549-.024.899-.024,1.124,0,.351,0,.55.05.899l-1.699.025c.074-.55.149-2.074.149-3.599,0-.4,0-.45-.024-.75-3.399,1.6-4.699,2.774-4.699,4.274,0,1.648,1.55,2.374,5.074,2.374,2.474,0,5.248-.4,6.673-.975l.225,1.925c-.375.024-.499.049-.999.125-1.975.324-4.149.499-6.074.499-4.474,0-6.648-1.274-6.648-3.849,0-1.375.851-2.675,2.55-3.949.85-.625,2.05-1.274,3.724-2-.199-1.374-.8-1.975-1.974-1.975-1.575,0-3.55.926-5.574,2.65-.975.824-1.524,1.399-1.925,2.074l-1.399-1.4c1.725-1.324,3.799-3.948,5.599-7.147q.075-.125.225-.375c-.1.024-.35.05-.475.05-.399,0-2.749-.05-3.674-.075h-.4c-.225,0-.274,0-.55.025l.025-1.725c.899.175,2.799.274,5.349.274h.4Z"/><path class="cls-1" d="M416.349,49.953c-.999,0-1.974.05-2.624.15v-1.75c.75.1,1.575.15,2.649.15h17.196c1.049,0,1.874-.051,2.648-.15v1.75c-.774-.101-1.6-.15-2.624-.15h-7.873v3.299h6.873c1.05,0,1.675-.024,2.35-.1-.075.699-.1,1.3-.1,2.299v12.397c0,.975-.175,1.399-.65,1.675-.399.25-.899.324-2.049.324q-.45,0-2.475-.124c-.075-.625-.2-1.075-.45-1.649.95.174,2.25.299,3.05.299s.975-.125.975-.699v-13.021h-7.523v9.147h3.249v-5.124c0-.75-.024-1.3-.1-1.799h1.699c-.075.524-.1.999-.1,1.799v5.574c0,1,.024,1.574.1,2.1h-1.55v-1.176h-7.998v2.35h-1.574c.075-.674.125-1.449.125-2.424v-6.424c0-.75-.025-1.25-.1-1.799h1.699c-.075.499-.1,1.024-.1,1.799v5.124h3.124v-9.147h-7.423v12.871c0,1.075.05,2,.149,2.699h-1.899c.1-.799.15-1.725.15-2.773v-11.947c0-.95-.025-1.625-.101-2.35.675.075,1.274.1,2.324.1h6.799v-3.299h-7.849Z"/><path class="cls-1" d="M450.847,66.999c1.925-4.024,3.824-9.598,4.199-12.397l1.925.65q-.25.6-1,3.024c-.95,3.074-2.075,6.023-3.35,8.723h5.773c1.15,0,2-.05,2.75-.149v1.898c-.8-.125-1.525-.175-2.75-.175h-16.646c-1.25,0-2.074.05-2.874.175v-1.898c.8.1,1.649.149,2.874.149h9.098ZM448.973,49.828c0-.725-.051-1.274-.176-2.05h1.975c-.125.726-.175,1.351-.175,2.024v2.05h6.674c1.249,0,2.1-.05,2.874-.175v1.875c-.825-.101-1.675-.15-2.874-.15h-14.646c-1.15,0-1.975.05-2.774.15v-1.875c.699.125,1.524.175,2.774.175h6.349v-2.024ZM444.849,54.877c1.199,3.274,1.899,5.773,2.699,9.873l-1.625.624c-.649-3.724-1.524-6.897-2.725-9.897l1.65-.6Z"/><path class="cls-1" d="M470.473,48.853c-.149.85-.25,2.124-.324,5.273-.101,3-.175,6.398-.175,7.523,0,.3.024.925.05,1.5.1,1.499.425,2.324,1.175,2.999.699.624,1.824.975,3.124.975,2.974,0,5.273-1.5,6.698-4.349.575-1.2.875-2.175,1.225-3.924.7.6,1,.799,1.8,1.199-.95,2.924-1.675,4.398-2.774,5.674-1.774,2.1-4.124,3.124-7.049,3.124-2.124,0-3.698-.601-4.698-1.75-1.024-1.175-1.375-2.499-1.375-5.124,0-1.674.025-2.299.226-10.172.024-.75.024-1.225.024-1.625,0-.524-.024-.824-.1-1.324h2.174Z"/><path class="cls-1" d="M490.274,52.652c.8.15,1.8.225,3.124.225.5,0,.775,0,1.5-.05.5-3.074.55-3.499.55-4.599l1.975.2q-.15.6-.45,2.374c-.125.8-.2,1.15-.325,1.899,1.95-.2,3.3-.45,4.499-.85l.125,1.725q-.2.025-.699.125c-1.275.274-3,.5-4.225.6-.375,1.975-1.074,4.799-1.749,7.073-.825,2.675-1.55,4.574-2.875,7.623l-1.824-.774c1.85-3.224,3.774-8.923,4.699-13.821-.5.024-.8.024-1.725.024-.875,0-1.1,0-2.075-.05h-.1c-.05,0-.2,0-.425.025v-1.75ZM501.446,61.725c-.5.6-.574.675-.75.949-.399.525-.624,1.175-.624,1.774,0,1.5,1.524,2.3,4.374,2.3,1.874,0,4.099-.35,5.523-.85l.175,1.874q-.275.051-1.1.176c-1.675.299-3.124.424-4.449.424-4.099,0-6.224-1.274-6.224-3.748,0-1.125.351-1.9,1.675-3.6l1.399.7ZM509.17,57.401c-1.2-.125-1.899-.175-2.949-.175-2.225,0-3.975.225-6.249.85l-.175-1.699c2.899-.625,4.524-.825,6.623-.825.476,0,.851,0,2.725.075l.025,1.774Z"/><path class="cls-1" d="M523.497,56.351c2.149,1.875,3.574,5.674,3.574,9.548,0,1.6-.25,2.749-.725,3.324-.45.55-1.1.774-2.324.774-.775,0-1.825-.074-2.949-.175-.051-.725-.15-1.075-.4-1.675,1.25.25,2.3.375,3.225.375,1.274,0,1.624-.6,1.624-2.999,0-.725-.024-1.149-.1-1.874-2.649,2.174-5.948,3.823-10.548,5.323-.324-.601-.55-.925-.975-1.399,4.524-1.15,8.398-3.05,11.223-5.475-.2-.85-.375-1.35-.7-2.099-2.574,1.774-5.648,3.174-9.348,4.249-.274-.6-.5-.9-.925-1.375,2.274-.55,3.649-1,5.724-1.899,1.524-.675,2.624-1.274,3.899-2.175-.5-.8-.875-1.25-1.45-1.75-1.85,1.025-3.724,1.775-6.673,2.575-.35-.65-.5-.875-.925-1.325,3.898-.85,6.349-1.799,8.723-3.424h-3.674c-.9,0-1.675.05-2.425.125v-1.6c.65.1,1.3.15,2.425.15h10.572c1.175,0,1.824-.025,2.449-.15v1.6c-.75-.075-1.499-.125-2.449-.125h-2.699c.55,2.274.8,3.124,1.499,4.674,1.775-1.3,3.3-2.799,3.824-3.725l1.4,1.15q-.551.449-1.5,1.35c-.8.774-1.5,1.35-3.05,2.524,1.575,2.774,3.425,4.549,6.599,6.398-.425.375-.774.774-1.225,1.399-2.05-1.475-2.999-2.274-4.049-3.475-1.875-2.099-3.35-4.823-4.274-7.897-.199-.649-.3-1.05-.624-2.399h-.75c-.725.625-1,.824-1.8,1.35l-.2.125ZM523.997,49.053c0-.549-.05-.999-.175-1.549h1.949c-.1.55-.149.975-.149,1.524v.8h7.397c1.075,0,1.725-.025,2.524-.1-.074.475-.1.899-.1,1.649v1.55c0,.774.025,1.174.1,1.699h-1.624v-3.424h-17.671v3.424h-1.625c.075-.574.101-.975.101-1.725v-1.524c0-.675-.025-1.125-.101-1.649.8.074,1.425.1,2.5.1h6.873v-.775Z"/><path class="cls-1" d="M539.449,54.127q.75-.05,5.199-1.05c2.774-.624,5.174-.925,7.248-.925,4.574,0,7.474,2.425,7.474,6.249,0,3.124-1.85,5.748-5.199,7.373-2.3,1.1-4.398,1.6-8.273,1.925-.199-.9-.324-1.175-.774-1.875,2.8-.075,5.049-.45,6.948-1.149,3.424-1.25,5.349-3.499,5.349-6.299s-2.074-4.499-5.474-4.499c-2.6,0-5.873.575-10.197,1.775-1.05.299-1.375.399-1.8.6l-.5-2.125ZM557.12,48.504c1.149,1.249,1.85,2.174,2.624,3.499l-1.299.699c-.75-1.374-1.425-2.299-2.6-3.524l1.274-.674ZM559.495,47.228c1.149,1.225,1.849,2.149,2.648,3.5l-1.299.674c-.75-1.374-1.425-2.273-2.625-3.499l1.275-.675Z"/><path class="cls-1" d="M579.721,49.503c-.274.226-.475.4-3.074,2.899-1.25,1.175-2.6,2.3-5.749,4.725-.924.699-1.1.899-1.1,1.249,0,.45.2.625,2.225,2.199,3.624,2.774,4.324,3.35,7.998,6.823.375.375.425.4.7.625l-1.575,1.55c-.6-.85-1.574-1.899-3.224-3.424-1.675-1.55-2.675-2.375-6.323-5.224-1.4-1.1-1.8-1.65-1.8-2.5,0-.6.25-1.174.725-1.674q.3-.301,2.125-1.7c3.324-2.55,6.448-5.474,7.323-6.849l1.749,1.3Z"/><path class="cls-1" d="M596.098,48.304c-.2.524-.35,1.225-.574,2.574-.4,2.524-.75,5.249-.825,6.523l.1.024q.051-.199.176-.725c.3-1.374.8-2.6,1.524-3.724,1.399-2.149,3.049-3.225,4.999-3.225,1.624,0,3.023.775,3.998,2.225,1.05,1.55,1.5,3.399,1.5,6.073,0,4.524-2.024,7.948-5.773,9.823-1.2.6-2.699,1.1-4.449,1.475-.3-.75-.449-1.024-.999-1.7,2.324-.35,3.624-.75,5.073-1.574,2.925-1.675,4.299-4.299,4.299-8.298,0-4.024-1.399-6.349-3.799-6.349-1.899,0-3.499,1.425-4.924,4.349-.875,1.825-1.35,3.749-1.35,5.574,0,.1,0,.225.025.6l-1.8.075v-.275l-.025-.449-.05-2.6v-.575c0-2.449.225-4.799.85-9.223.05-.375.075-.5.075-.8l1.949.2Z"/><path class="cls-1" d="M621.573,51.527c.824-1.749,1.124-2.624,1.199-3.424l2,.35q-.226.325-.65,1.35c-.325.801-.649,1.475-.774,1.7q.3-.025.524-.025c3.999-.2,6.499-.5,7.873-.949l.15,1.699c-.4.024-.55.05-1,.125-2.6.35-5.224.55-8.248.649-.75,1.475-1.375,2.475-2.249,3.55-.25.3-.75.874-.851.949-.175.125-.3.226-.324.25,0,.025-.025.025-.025.025v.024q.025.051.05.075.9-.7,1.15-.874c1.149-.801,2.474-1.226,3.773-1.226,1.85,0,2.975.925,3.3,2.774,1.824-.725,3.249-1.25,4.349-1.649,1.225-.425,1.3-.45,1.699-.725l.8,1.749c-1.3.226-3.549.975-6.673,2.2.05.649.05.899.05,1.524,0,.324,0,.875-.025,1.375-.024.549-.024.899-.024,1.124,0,.351,0,.55.05.899l-1.699.025c.074-.55.149-2.074.149-3.599,0-.4,0-.45-.024-.75-3.399,1.6-4.699,2.774-4.699,4.274,0,1.648,1.55,2.374,5.074,2.374,2.474,0,5.248-.4,6.673-.975l.225,1.925c-.375.024-.499.049-.999.125-1.975.324-4.149.499-6.074.499-4.474,0-6.648-1.274-6.648-3.849,0-1.375.851-2.675,2.55-3.949.85-.625,2.05-1.274,3.724-2-.199-1.374-.8-1.975-1.974-1.975-1.575,0-3.55.926-5.574,2.65-.975.824-1.524,1.399-1.925,2.074l-1.399-1.4c1.725-1.324,3.799-3.948,5.599-7.147q.075-.125.225-.375c-.1.024-.35.05-.475.05-.399,0-2.749-.05-3.674-.075h-.4c-.225,0-.274,0-.55.025l.025-1.725c.899.175,2.799.274,5.349.274h.4Z"/><path class="cls-1" d="M638.925,57.501c.6.101,1,.125,1.925.125h1.35c.699,0,1.3-.05,1.874-.125-.075.775-.1,1.351-.1,2.625v4.874c.35.924.8,1.475,1.649,2.023,1.175.775,2.725,1.025,6.198,1.025,4.424,0,7.623-.15,9.923-.45-.375.825-.45,1.05-.575,1.8-3.299.1-5.448.15-8.298.15-4.099,0-5.799-.226-7.223-.926-1.075-.524-1.675-1.1-2.524-2.349-1.125,1.149-1.65,1.6-3,2.674-.3.226-.55.45-.925.775l-.824-1.625c1.1-.524,2.649-1.699,4.023-3.024v-6.023h-1.649c-.824,0-1.199.025-1.824.125v-1.675ZM640.274,48.129c1.699,1.574,2.475,2.475,3.974,4.474l-1.274,1.125c-1.475-2.149-2.3-3.1-3.874-4.55l1.175-1.049ZM651.122,50.203c.649-1.05,1.024-1.75,1.424-2.774l1.675.399c-.55,1.025-1,1.775-1.399,2.375h4.249c.8,0,1.3-.025,1.8-.1-.075.524-.075,1.049-.075,1.674v3.05c0,.725,0,1.249.075,1.699-.65-.05-1.1-.075-1.825-.075h-8.473v2.574h9.223c1,0,1.3,0,1.8-.074-.05.55-.075,1.024-.075,1.924v3.175c0,.55.025,1.024.075,1.675-.55-.051-1.075-.075-1.75-.075h-8.997c-.75,0-1.351.024-1.925.075.05-.551.075-1.075.075-1.7v-12.222c0-.5-.025-.949-.101-1.699.7.074,1.3.1,2,.1h2.225ZM648.572,55.101h8.673v-3.523h-8.673v3.523ZM648.572,64.25h9.397v-3.875h-9.397v3.875Z"/><path class="cls-1" d="M666.824,53.577c-1.05,0-1.825.05-2.524.15v-1.725c.699.1,1.425.149,2.574.149h7.273v-1.924c0-1.2-.051-1.95-.15-2.675h1.899c-.1.774-.149,1.475-.149,2.675v1.924h7.423c1.125,0,1.875-.05,2.574-.149v1.725c-.675-.101-1.449-.15-2.574-.15h-7.373c.5,1.999,1.399,4.049,2.574,5.898,2.124-1.774,3.524-3.299,4.324-4.724l1.399,1.074q-.175.2-1.475,1.625c-.825.925-2.1,2.1-3.449,3.199.85,1.125,1.649,2.05,2.649,2.975,1.399,1.324,2.449,2.049,4.299,3.023-.45.45-.774.851-1.175,1.476-1.824-1.125-2.85-1.95-4.349-3.475-1.3-1.35-2.449-2.874-3.399-4.573-.699-1.225-1.05-1.975-1.6-3.675.025.7.125,3.399.15,4.149v7.373c0,1.449-.55,1.875-2.475,1.875-1,0-2.125-.051-3.149-.15-.075-.65-.149-1-.399-1.649,1.225.2,2.349.3,3.273.3.95,0,1.15-.125,1.15-.7v-14.021h-7.323ZM673.447,62.275c-2.374,1.699-3.399,2.324-6.948,4.249-.524.274-.8.449-1.225.725l-.825-1.7c1.15-.324,2.125-.749,3.749-1.649,2.075-1.149,3.149-1.849,4.799-3.124l.45,1.5ZM667.898,54.952c1.55,1.574,2.274,2.474,3.499,4.299l-1.324,1.05c-1.125-1.925-1.975-3-3.399-4.399l1.225-.949ZM678.971,47.754c1.774,1.05,2.375,1.5,3.874,2.824l-1.124,1.074c-1.375-1.374-2.1-1.924-3.824-2.924l1.074-.975Z"/><path class="cls-1" d="M695.473,48.853c-.149.85-.25,2.124-.324,5.273-.101,3-.175,6.398-.175,7.523,0,.3.024.925.05,1.5.1,1.499.425,2.324,1.175,2.999.699.624,1.824.975,3.124.975,2.974,0,5.273-1.5,6.698-4.349.575-1.2.875-2.175,1.225-3.924.7.6,1,.799,1.8,1.199-.95,2.924-1.675,4.398-2.774,5.674-1.774,2.1-4.124,3.124-7.049,3.124-2.124,0-3.698-.601-4.698-1.75-1.024-1.175-1.375-2.499-1.375-5.124,0-1.674.025-2.299.226-10.172.024-.75.024-1.225.024-1.625,0-.524-.024-.824-.1-1.324h2.174Z"/><path class="cls-1" d="M713.649,58.451c.351.05.55.05.875.05.175,0,.675,0,1-.024q1.024-1.375,1.725-2.4c-1.175-1.549-1.975-2.449-3.574-3.948l.824-1.175c.65.649.801.8,1.226,1.225,1.124-1.875,1.924-3.574,2.174-4.725l1.524.726c-.149.2-.274.425-.475.8-.925,1.899-1.35,2.624-2.35,4.124.75.825.851.95,1.475,1.725,1.475-2.35,2.05-3.399,2.375-4.449l1.425.85q-.275.4-1.25,2.05c-.875,1.449-2.425,3.725-3.499,5.099,2.199-.175,2.674-.2,3.499-.325-.275-.799-.425-1.149-.899-2.074l1.074-.475c.825,1.649,1.225,2.649,1.75,4.523l-1.175.525c-.15-.625-.2-.8-.351-1.3-.824.149-1.049.175-1.874.274v8.299c0,1.024.05,1.749.149,2.474h-1.749c.1-.774.149-1.524.149-2.474v-8.148c-1.174.125-1.699.175-2.174.2-.9.075-1.2.1-1.625.2l-.25-1.625ZM716.424,61.45c-.3,3.425-.6,5.049-1.35,7.224l-1.35-.7c.825-2.175,1.05-3.324,1.325-6.798l1.374.274ZM721.323,61c.55,1.875.8,2.975,1.174,5.174l-1.299.45c-.25-2.274-.476-3.349-1.05-5.224l1.175-.4ZM727.996,60.051c-.075.425-.1.625-.149,1.55-.176,2.324-.625,3.898-1.55,5.273-.925,1.399-1.95,2.199-4.049,3.149-.275-.55-.55-.875-1.101-1.325,2.1-.749,3.199-1.55,4.05-2.924.725-1.149,1.149-2.85,1.149-4.599,0-.426-.025-.7-.1-1.125h1.749ZM725.021,51.402c-1.124,0-1.774.025-2.524.15v-1.625c.7.101,1.425.15,2.55.15h3.1v-.55c0-.85-.05-1.425-.15-2.05h1.75c-.101.625-.15,1.175-.15,2.074v.525h3.749c1.075,0,1.85-.05,2.524-.15v1.625c-.675-.1-1.399-.15-2.499-.15h-3.774v2.625h3.1c1.074,0,1.749-.051,2.475-.15v1.625c-.675-.1-1.4-.15-2.45-.15h-7.223c-1.075,0-1.725.051-2.475.15v-1.625c.7.1,1.399.15,2.475.15h2.649v-2.625h-3.125ZM722.723,61.7c.075-.625.1-.975.1-1.6v-1.249c0-.851-.024-1.176-.1-1.65.5.051,1.149.075,2.374.075h8.099c1.225,0,1.949-.024,2.624-.125-.05.475-.075.95-.075,1.624v1.426c0,.674.025,1.149.075,1.499h-1.574v-3.074h-9.998v3.074h-1.524ZM731.62,60.051c-.1.625-.149,1.149-.149,2.1v5.398c0,.5.25.6,1.425.6,1.074,0,1.424-.1,1.624-.524.225-.425.4-1.55.45-3.274.574.375.925.525,1.499.625-.175,1.999-.374,2.924-.725,3.574-.45.824-1.024,1.024-2.849,1.024-2.4,0-2.899-.274-2.899-1.624v-5.799c0-.925-.051-1.5-.15-2.1h1.774Z"/><path class="cls-1" d="M744.323,49.078c-.8,2.375-1.524,7.498-1.524,10.897,0,1.375.1,3.225.2,4.074.1.55.149,1.075.149,1.35.5-1.774.675-2.225,2.1-5.299l1.274.6c-.725,1.475-1.35,3.024-1.85,4.374-.499,1.475-.699,2.324-.699,3.174l-1.725.15c-.05-.324-.075-.399-.2-.875-.625-2.35-.925-4.773-.925-7.397,0-2.95.225-4.999,1-9.623.175-1.024.2-1.274.225-1.725l1.975.3ZM746.873,54.127c.949.225,2.399.325,4.249.325.999,0,1.924-.05,3.174-.15-.125-4.349-.175-5.073-.3-5.823l1.925-.025c-.051.4-.075.551-.075.85,0,.176,0,.301.024.75q.025.575.15,4.049c1.899-.274,3.049-.6,3.974-1.049l.125,1.799c-.524.101-.574.101-1.324.301-.95.225-1.725.375-2.725.5.025.674.025,1.074.025,1.799,0,4.749-.45,6.799-1.925,8.798-.925,1.225-1.999,2.1-3.924,3.225-.5-.65-.7-.851-1.35-1.35,1.749-.851,2.924-1.725,3.824-2.874,1.274-1.625,1.674-3.449,1.674-7.449,0-.699,0-1.249-.05-1.975-1.1.101-2.549.15-3.649.15-.699,0-2.124-.05-3.023-.1-.226-.025-.351-.025-.45-.025-.075,0-.2,0-.375.025l.025-1.75Z"/><path class="cls-1" d="M764.949,51.852h.9c.35,0,.649-.024,1.424-.075,2.975-.225,10.973-.675,14.197-.824,1.399-.051,2.574-.15,2.974-.275l.15,1.875c-1,0-1.85.1-2.8.324-1.674.45-3.424,1.35-4.799,2.525-1.999,1.674-3.074,3.698-3.074,5.773,0,2.1,1.275,3.773,3.499,4.623,1.226.45,2.8.801,3.75.801h.249l-.324,2.023c-.275-.05-.375-.074-.775-.149-2.474-.425-3.974-.95-5.398-1.925-1.774-1.199-2.774-3.049-2.774-5.099,0-2.899,1.7-5.674,4.674-7.673.775-.525,1.425-.875,2.375-1.324-1.475.249-2.725.374-5.499.549-5.174.351-7.398.551-8.623.825l-.125-1.975Z"/><path class="cls-1" d="M792.999,50.652c-.125.775-.176,1.6-.176,2.975,0,2.75.275,6.174.65,7.773.55,2.549,1.574,4.273,2.524,4.273.45,0,.875-.424,1.25-1.249.574-1.25.975-2.575,1.299-4.274.55.65.775.875,1.475,1.425-1.225,4.374-2.374,6.049-4.148,6.049-1.399,0-2.699-1.399-3.549-3.8-.875-2.374-1.226-5.573-1.35-11.722-.025-.95-.025-1.024-.075-1.475l2.1.024ZM805.07,51.977c1.625,1.925,2.649,3.574,3.574,5.698.95,2.1,1.425,3.875,1.875,6.674l-1.774.725c-.45-4.648-2.274-8.923-5.199-12.322l1.524-.774Z"/><path class="cls-1" d="M833.37,68.098c-1.15-1.2-2.975-2.475-5.099-3.574-.425-.225-1-.475-1.675-.75q.05.575.05.9c0,1.324-.175,2.124-.625,2.724-.725,1.025-2.249,1.575-4.224,1.575-1.649,0-3.024-.351-3.874-1-.85-.625-1.35-1.6-1.35-2.624,0-1.65,1.3-2.949,3.499-3.449.75-.175,1.5-.25,2.6-.25.824,0,1.175.025,2.249.199q-.024-.074-.024-.299c0-.025-.025-.125-.025-.275-.025-.225-.025-.75-.05-1.475-.025-.325-.025-.8-.05-1.449-.9.024-2.15.05-2.95.05-1.499,0-2.674-.05-4.224-.175-.274-.025-.475-.025-.625-.025h-.199l.024-1.649c1.125.25,3.199.399,5.724.399.65,0,1.524,0,2.225-.024l-.05-3.425c-.725.025-1.125.025-1.7.025-1.824,0-3.849-.075-6.098-.25-.176-.025-.325-.025-.45-.025-.075,0-.2,0-.351.025l.025-1.699c1.075.3,3.674.5,6.398.5.5,0,1.35-.025,2.175-.025q-.025-3.049-.125-3.6h1.925c-.101.525-.15,1.725-.176,3.524,3.449-.225,6.023-.575,7.398-1.024l.125,1.699q-.425.025-1.725.2c-2.35.35-3.024.425-5.799.6q.025,2.05.051,3.374c3.398-.25,5.548-.55,6.923-1.024l.1,1.725c-.324.024-.574.05-1.449.175-1.725.275-3.699.475-5.549.6q.05,1.4.15,3.824c2.174.6,4.349,1.75,6.973,3.649.4.3.525.375.851.575l-1,1.749ZM824.922,63.375c-.949-.225-1.449-.275-2.549-.275-2.475,0-4.1.9-4.1,2.225s1.25,2.074,3.425,2.074c1.324,0,2.274-.274,2.749-.824.35-.35.5-1.05.5-2.25l-.025-.949Z"/><path class="cls-1" d="M851.271,49.728c0-.65-.024-.925-.1-1.45h1.874c-.1.8-.125,1.175-.125,3.124v.275c4.725-.025,6.648-.075,7.474-.175v1.774c-.925-.1-1.8-.125-4.774-.125-.374,0-.649,0-2.674.05v4.949c.425,1.05.6,1.85.6,2.949,0,2.599-1.199,4.898-3.349,6.523-1.025.749-2.125,1.324-3.949,2.024-.425-.8-.575-1.025-1.1-1.574,1.949-.625,3.049-1.125,4.049-1.875,1.824-1.375,2.699-2.999,2.799-5.273-.225.6-.375.875-.675,1.225-.749.899-1.824,1.35-3.148,1.35-2.399,0-4.1-1.65-4.1-3.949,0-2.375,1.875-4.124,4.424-4.124,1.2,0,2.25.399,2.899,1.125-.024-.351-.024-.45-.024-1.375,0-.1-.025-.35-.025-.649v-1.3c-5.023.1-10.072.35-11.747.624l-.075-1.824c.45.025.625.025,1,.025q.725,0,4.749-.15c2.399-.1,4.349-.149,6.048-.199l-.05-1.975ZM850.197,57.252c-.476-.275-1-.4-1.675-.4-1.575,0-2.774,1.125-2.774,2.624,0,1.45,1.05,2.475,2.574,2.475,1.725,0,2.925-1.2,2.925-2.949,0-.825-.325-1.35-1.05-1.749Z"/><path class="cls-1" d="M871.373,66.224c0,2.074-1.675,3.748-3.749,3.748s-3.749-1.674-3.749-3.748,1.674-3.75,3.749-3.75,3.749,1.675,3.749,3.75ZM865.3,66.224c0,1.274,1.049,2.324,2.324,2.324s2.324-1.05,2.324-2.324-1.05-2.325-2.324-2.325-2.324,1.05-2.324,2.325Z"/><line class="cls-3" x1="919.194" y1="41" x2="931.378" y2="41"/><line class="cls-3" x1="935.288" y1="41" x2="937.025" y2="41"/><line class="cls-3" x1="927.353" y1="18.422" x2="928.684" y2="17.305"/><line class="cls-3" x1="918.188" y1="34.516" x2="929.636" y2="30.349"/><line class="cls-3" x1="915.025" y1="28.767" x2="924.358" y2="20.936"/><line class="cls-3" x1="927.353" y1="63.578" x2="928.684" y2="64.695"/><line class="cls-3" x1="915.025" y1="53.233" x2="924.358" y2="61.065"/><line class="cls-3" x1="910.086" y1="24.446" x2="916.177" y2="13.895"/><line class="cls-3" x1="918.188" y1="47.484" x2="929.636" y2="51.651"/><line class="cls-3" x1="910.086" y1="57.554" x2="916.177" y2="68.105"/><line class="cls-3" x1="80.806" y1="41" x2="68.622" y2="41"/><line class="cls-3" x1="64.712" y1="41" x2="62.975" y2="41"/><line class="cls-3" x1="72.647" y1="18.422" x2="71.316" y2="17.305"/><line class="cls-3" x1="81.812" y1="34.516" x2="70.364" y2="30.349"/><line class="cls-3" x1="84.975" y1="28.767" x2="75.642" y2="20.936"/><line class="cls-3" x1="72.647" y1="63.578" x2="71.316" y2="64.695"/><line class="cls-3" x1="84.975" y1="53.233" x2="75.642" y2="61.065"/><line class="cls-3" x1="89.914" y1="24.446" x2="83.823" y2="13.895"/><line class="cls-3" x1="81.812" y1="47.484" x2="70.364" y2="51.651"/><line class="cls-3" x1="89.914" y1="57.554" x2="83.823" y2="68.105"/></g></svg>