<?xml version="1.0" encoding="UTF-8"?><svg id="_レイヤー_2" xmlns="http://www.w3.org/2000/svg" viewBox="0 0 155 82"><defs><style>.cls-1{fill:#505050;}.cls-2{fill:#fff;}.cls-3{fill:none;stroke:#fff;stroke-miterlimit:10;stroke-width:2px;}</style></defs><g id="_レイヤー_1-2"><rect class="cls-1" width="155" height="82" rx="16" ry="16"/><path class="cls-2" d="M71.532,36.124s-.021.819-.021,1.113c-.189,8.587-.357,11.632-1.029,12.598-.483.693-.966.903-1.659,1.05-.63.126-1.596.105-2.604.084-.042-.693-.315-1.701-.735-2.394.924.084,1.722.105,2.121.105.315,0,.525-.084.714-.357.441-.567.651-3.128.777-9.91h-1.89c-.273,5.627-1.239,9.952-4.766,12.745-.315-.504-.924-1.197-1.47-1.659-3.023.315-6.047.63-8.314.819l-.294-2.1c1.176-.084,2.646-.189,4.262-.294v-1.26h-3.695v-1.764h3.695v-.819h-3.611v-6.488h3.611v-.819h-4.136v-1.806h4.136v-.84c-1.218.084-2.415.147-3.548.168-.084-.504-.315-1.281-.546-1.764,3.107-.168,6.74-.525,9.049-1.029l1.092,1.869c-1.113.231-2.415.42-3.779.567v1.029h4.031v1.155h1.974c.021-1.386.021-2.834.021-4.388h2.394c0,1.533,0,3.002-.042,4.388h4.262ZM54.987,40.092h1.638v-.924h-1.638v.924ZM56.625,42.528v-.945h-1.638v.945h1.638ZM58.893,47.735c1.197-.084,2.436-.189,3.653-.294,1.638-2.268,2.142-5.27,2.289-9.028h-1.911v-1.638h-4.031v.819h3.716v6.488h-3.716v.819h3.8v1.764h-3.8v1.071ZM60.53,40.092v-.924h-1.638v.924h1.638ZM58.893,41.583v.945h1.638v-.945h-1.638Z"/><path class="cls-2" d="M102.234,32.66v2.331h-8.23v1.68h3.821v9.511h-9.994v-9.511h3.674v-1.68h-8.062v-2.331h18.792ZM99.19,36.376h2.415v14.613h-2.415v-1.218h-12.682v1.239h-2.436v-14.634h2.436v11.044h12.682v-11.044ZM89.868,40.47h1.827v-1.764h-1.827v1.764ZM89.868,44.145h1.827v-1.785h-1.827v1.785ZM95.663,38.707h-1.827v1.764h1.827v-1.764ZM95.663,42.36h-1.827v1.785h1.827v-1.785Z"/><polyline class="cls-3" points="125 31 135 41 125 51"/></g></svg>