<?xml version="1.0" encoding="UTF-8"?><svg id="_レイヤー_2" xmlns="http://www.w3.org/2000/svg" viewBox="0 0 153.004 72.502"><defs><style>.cls-1{fill:none;stroke:#101010;stroke-linecap:round;stroke-linejoin:round;stroke-width:1.004px;}</style></defs><g id="_レイヤー_1-2"><path d="M31.698,2.326c0-.592-.021-1.184-.063-1.607.378.041.778.063,1.45.063h3.129c.63,0,.966-.022,1.281-.085l.694.846c-.042.063-.042.085-.084.169-.021.022-.042.085-.084.147-.084.169-.106.233-.19.487-.567,1.48-1.239,2.77-2.373,4.63,1.029,1.099,1.449,1.712,1.849,2.747.316.783.462,1.544.462,2.326,0,.951-.252,1.585-.778,1.965-.357.233-.945.359-1.869.359-.294,0-.652,0-.988-.021-.063-.613-.125-.888-.315-1.332.588.085,1.03.128,1.47.128.84,0,1.176-.297,1.176-1.079,0-.719-.189-1.627-.504-2.325-.378-.888-.82-1.48-1.912-2.621,1.156-1.839,1.723-3.022,2.521-5.179h-3.57v15.263c0,.739.021,1.268.105,1.965h-1.533c.084-.571.125-1.184.125-1.965V2.326ZM39.428,4.968c-.756,0-1.281.021-1.911.105v-1.458c.61.085,1.176.127,2.038.127h3.025v-1.882c0-.633-.043-1.14-.127-1.627h1.576c-.084.465-.126.972-.126,1.627v1.882h3.823c1.05,0,1.596-.022,2.185-.127v1.458c-.63-.085-1.24-.105-2.164-.105h-5.671c-.021,1.649-.021,1.755-.127,2.98h4.58c.903,0,1.428-.021,1.849-.085-.043.318-.064.529-.084,1.396-.19,4.375-.526,7.165-1.072,8.371-.378.846-1.05,1.14-2.541,1.14-.694,0-1.051-.021-2.648-.147-.041-.57-.125-.952-.293-1.416,1.323.19,2.163.254,2.877.254.945,0,1.24-.148,1.449-.698.484-1.268.778-3.911.862-7.631h-5.104c-.336,2.706-.904,4.545-1.87,6.216-.924,1.543-1.891,2.557-3.676,3.805-.358-.487-.61-.74-1.072-1.058,2.563-1.627,3.823-3.191,4.642-5.75.61-1.945.84-3.805.904-7.377h-1.324Z"/><path d="M62.035.423c-.084.592-.105,1.142-.105,3.192,0,2.811.252,4.566.945,6.447.883,2.389,2.416,4.481,4.349,5.898,1.05.782,2.037,1.289,3.424,1.84-.463.443-.715.761-1.03,1.353-2.122-.973-3.655-2.051-5.063-3.615-1.133-1.248-1.933-2.557-2.583-4.27-.336-.867-.483-1.395-.714-2.558-.273,1.691-.63,2.749-1.324,4.122-1.008,1.965-2.562,3.636-4.558,4.925-.777.507-1.408.867-2.521,1.374-.294-.55-.546-.867-1.029-1.331,2.751-.994,4.662-2.367,6.134-4.44,1.113-1.522,1.827-3.298,2.163-5.305.231-1.374.336-2.896.336-5.2,0-1.289-.021-1.86-.106-2.431h1.68ZM52.771,10.041c.861-1.099,1.197-1.649,1.66-2.706.525-1.141.735-1.86,1.049-3.403l1.408.443c-.4,1.564-.652,2.325-1.176,3.487-.504,1.163-.82,1.734-1.66,2.918l-1.281-.74ZM64.577,9.365c1.618-1.902,2.458-3.277,3.382-5.623l1.385.676c-1.197,2.43-2.079,3.847-3.592,5.687l-1.176-.74Z"/><path d="M72.5,9.661c.651-1.923.924-3.404,1.029-5.538l1.113.19c-.168,2.283-.441,3.848-1.049,5.793l-1.092-.444ZM75.21,19.3c.105-.719.148-1.585.148-2.43V2.135c0-.783-.043-1.416-.148-2.135h1.638c-.106.698-.147,1.312-.147,2.135v14.818c0,.908.041,1.648.147,2.346h-1.638ZM78.13,7.272c-.19-1.353-.379-2.071-.883-3.254l.967-.381c.377.867.713,2.009.965,3.235l-1.049.401ZM81.28,5.919c-.588,1.691-.965,2.495-1.89,3.953q-.42-.274-1.176-.656c1.26-1.776,2.017-3.572,2.499-6.024.126-.676.168-1.079.19-1.649l1.449.296c-.064.148-.084.211-.336,1.395-.105.529-.21.908-.357,1.48h2.709v-2.537c0-.761-.042-1.458-.148-2.134h1.618c-.106.633-.147,1.353-.147,2.134v2.537h3.255c1.071,0,1.68-.042,2.163-.127v1.459c-.713-.085-1.469-.128-2.142-.128h-3.277v4.397h2.857c.945,0,1.553-.041,2.121-.126v1.437c-.609-.085-1.218-.128-2.143-.128h-2.835v5.56h3.57c.988,0,1.66-.042,2.29-.127v1.5c-.694-.105-1.428-.147-2.29-.147h-8.633c-.862,0-1.596.042-2.29.147v-1.5c.61.085,1.324.127,2.29.127h3.739v-5.56h-2.311c-.862,0-1.575.043-2.143.128v-1.437c.546.085,1.156.126,2.037.126h2.416v-4.397h-3.088Z"/><path d="M99.538,3.425c.694-1.481.946-2.22,1.008-2.896l1.68.296q-.189.274-.545,1.141c-.274.676-.547,1.247-.652,1.437q.252-.022.441-.022c3.361-.169,5.462-.423,6.617-.802l.126,1.437c-.336.021-.462.041-.84.105-2.185.296-4.391.465-6.932.55-.63,1.247-1.156,2.092-1.891,3.002-.21.254-.63.74-.714.803-.148.106-.252.191-.273.211,0,.021-.021.021-.021.021v.022q.021.042.042.063.756-.592.966-.739c.966-.676,2.079-1.036,3.171-1.036,1.555,0,2.5.783,2.773,2.347,1.534-.613,2.732-1.057,3.656-1.395,1.029-.36,1.092-.38,1.428-.614l.672,1.481c-1.092.19-2.984.824-5.609,1.86.042.549.042.761.042,1.289,0,.274,0,.74-.021,1.163-.021.464-.021.761-.021.951,0,.296,0,.465.042.761l-1.428.021c.063-.464.126-1.754.126-3.044,0-.338,0-.38-.021-.633-2.857,1.353-3.949,2.346-3.949,3.614,0,1.395,1.301,2.008,4.264,2.008,2.079,0,4.411-.338,5.608-.824l.19,1.628c-.315.021-.42.041-.84.105-1.659.274-3.487.423-5.104.423-3.761,0-5.589-1.079-5.589-3.255,0-1.162.715-2.261,2.144-3.34.713-.528,1.722-1.079,3.129-1.691-.168-1.163-.672-1.67-1.66-1.67-1.323,0-2.982.783-4.684,2.242-.819.697-1.282,1.184-1.618,1.754l-1.176-1.184c1.45-1.121,3.193-3.34,4.705-6.046q.064-.105.19-.318c-.084.022-.294.043-.399.043-.336,0-2.312-.043-3.088-.064h-.336c-.189,0-.232,0-.462.021l.021-1.458c.756.148,2.353.233,4.494.233h.336Z"/><path d="M35.606,32.634c-1.512.211-2.29.274-3.887.402-.084-.381-.168-.571-.526-1.121,3.382-.063,7.332-.739,8.76-1.459l.924,1.079q-.294.064-1.05.254c-.798.233-1.785.443-3.004.656v1.669h2.521c.924,0,1.45-.022,1.849-.106v1.268c-.377-.063-.672-.085-1.68-.085h-2.689v1.312h2.185c.82,0,1.344-.022,1.849-.064-.063.402-.084.761-.084,1.86v2.452c0,1.057.021,1.564.084,2.009-.504-.043-1.049-.064-1.933-.064h-2.101v1.417h2.122c1.092,0,1.45-.022,1.911-.085v1.268c-.441-.064-.735-.085-1.722-.085h-2.312v1.522c1.344-.169,2.06-.275,3.908-.592v1.12c-2.941.507-5.041.782-8.613,1.141-.545.063-.713.085-1.113.169l-.273-1.459c.336.022.693.043.881.043.652,0,1.849-.085,3.992-.297v-1.648h-2.332c-.652,0-1.344.041-1.912.105v-1.311c.504.085,1.03.106,1.933.106h2.312v-1.417h-1.996c-.882,0-1.449.021-1.953.064.041-.466.063-.93.063-1.988v-2.473c0-1.057,0-1.268-.063-1.86.545.042,1.113.064,1.995.064h1.954v-1.312h-2.857c-.883,0-1.344.022-1.892.106v-1.311c.568.085,1.072.127,1.912.127h2.836v-1.48ZM32.917,37.518v1.543h2.689v-1.543h-2.689ZM32.917,40.033v1.649h2.689v-1.649h-2.689ZM36.824,39.06h2.773v-1.543h-2.773v1.543ZM36.824,41.682h2.773v-1.649h-2.773v1.649ZM47.348,35.107c.84,0,1.302-.021,1.87-.085-.043.466-.064.889-.106,2.22-.147,6.384-.42,9.364-.987,10.738-.295.761-.862,1.036-2.017,1.036-.568,0-1.324-.064-2.228-.169-.021-.466-.084-.93-.231-1.417,1.071.211,1.68.296,2.269.296.778,0,1.008-.147,1.155-.783.463-1.817.756-5.855.756-10.61h-2.583c-.147,3.065-.399,5.052-.862,6.785-.651,2.452-1.533,4.101-3.297,6.215-.252-.296-.736-.655-1.197-.908,1.197-1.227,1.785-2.029,2.437-3.425.965-2.071,1.428-4.566,1.617-8.666h-.546c-.862,0-1.366.021-1.954.105v-1.437c.547.085.967.105,1.87.105h.694c.021-.718.021-1.331.021-2.114,0-1.5-.021-1.86-.126-2.43h1.554c-.105.401-.126.846-.126,1.607-.021,1.5-.021,2.22-.042,2.938h2.059Z"/><path d="M64.703,34.769c.756,0,1.197-.021,1.744-.085-.064.507-.084.889-.084,1.501v7.525c0,.634.021.93.084,1.48-.588-.063-1.03-.085-1.807-.085h-6.89c-.777,0-1.217.022-1.806.085.063-.55.084-.846.084-1.48v-7.525c0-.613-.021-.994-.084-1.501.545.064,1.008.085,1.743.085h2.815v-2.578h-6.344c-.862,0-1.47.041-2.206.126v-1.458c.61.085,1.282.127,2.206.127h14.158c.904,0,1.533-.042,2.205-.127v1.458c-.651-.085-1.385-.126-2.205-.126h-6.554v2.578h2.941ZM70.122,35.256c-.084.634-.126,1.332-.126,2.178v9.533c0,1.226.042,1.86.126,2.537h-1.47v-1.205h-14.788v1.205h-1.47c.084-.655.126-1.353.126-2.558v-9.511c0-.889-.042-1.544-.126-2.178h1.575c-.084.528-.125,1.079-.125,2.029v9.808h14.829v-9.829c0-.889-.041-1.417-.125-2.009h1.575ZM57.245,35.911v3.213h3.256v-3.213h-3.256ZM57.245,40.244v3.741h3.256v-3.741h-3.256ZM61.762,39.124h3.381v-3.213h-3.381v3.213ZM61.762,43.985h3.381v-3.741h-3.381v3.741Z"/><path d="M72.667,33.86c.4.022.609.022.756.022.294,0,.546-.022,1.197-.064,2.5-.19,9.222-.592,11.931-.697,1.176-.064,2.164-.148,2.5-.233l.126,1.564c-.84,0-1.554.085-2.353.296-1.407.359-2.878,1.12-4.033,2.114-1.68,1.417-2.583,3.128-2.583,4.883,0,1.776,1.071,3.191,2.941,3.91,1.029.38,2.353.676,3.15.676h.211l-.274,1.712c-.231-.041-.315-.063-.651-.126-2.08-.36-3.34-.804-4.537-1.628-1.492-1.015-2.332-2.558-2.332-4.312,0-2.452,1.428-4.777,3.929-6.489.651-.444,1.197-.74,1.995-1.121-1.239.211-2.29.317-4.621.465-4.348.296-6.218.465-7.248.697l-.105-1.669ZM86.573,36.291c.798.973,1.218,1.607,1.933,2.959l-1.071.551c-.568-1.205-1.114-2.073-1.892-3.003l1.03-.507ZM88.611,35.298c.797.972,1.217,1.607,1.933,2.959l-1.051.55c-.588-1.204-1.133-2.072-1.911-3.002l1.03-.507Z"/><path d="M98.929,35.489c.778,0,1.324-.022,1.933-.106-.063.465-.084,1.036-.084,1.882v10.315c0,1.162-.399,1.437-2.079,1.437-.294,0-.442,0-1.618-.064-.021-.487-.084-.803-.252-1.289.799.105,1.555.169,1.954.169.651,0,.819-.085.819-.444v-3.551h-4.978c-.232,2.643-.484,3.699-1.26,5.411-.609-.55-.63-.55-1.176-.846.714-1.247,1.008-2.305,1.197-4.291.127-1.437.168-2.727.168-6.279,0-.592,0-1.162-.021-1.628-.189.254-.273.36-.546.698-.336-.401-.483-.529-.987-.846,1.407-1.416,2.289-2.79,3.045-4.672.21-.57.316-.887.42-1.373l1.324.318c-.084.169-.106.21-.252.57-.211.529-.336.803-.358.846h1.995c.694,0,.924-.022,1.176-.063l.631.697c-.211.296-.336.528-.756,1.332-.232.507-.694,1.31-.967,1.776h.672ZM96.955,35.489c.483-.783.924-1.607,1.407-2.643h-2.689c-.462.93-.903,1.649-1.575,2.621.545.022.777.022,1.512.022h1.344ZM96.619,42.739v-2.621h-1.87q-.021,1.649-.063,2.621h1.933ZM94.771,36.608v1.395l-.021,1.036h1.87v-2.431h-1.849ZM99.601,36.608h-1.89v2.431h1.89v-2.431ZM99.601,40.117h-1.89v2.621h1.89v-2.621ZM103.425,32.317c-.946,0-1.512.043-1.996.128v-1.353c.525.085,1.092.126,2.101.126h4.789c.82,0,1.386-.021,1.933-.085-.042.338-.042.402-.084.804-.084,1.099-.232,2.324-.378,3.107-.274,1.459-.694,1.839-1.954,1.839-.504,0-1.092-.041-1.933-.147-.041-.507-.084-.739-.252-1.247.82.169,1.387.254,1.87.254.61,0,.819-.128.946-.592.189-.698.293-1.437.399-2.834h-3.087c-.232,1.268-.42,1.84-.904,2.643-.652,1.121-1.324,1.733-2.92,2.706-.209-.38-.441-.676-.861-1.036,1.386-.739,2.101-1.331,2.647-2.198.399-.613.546-1.056.714-2.114h-1.029ZM103.425,40.794c-.252.698-.463,1.121-.988,1.945-.441-.296-.693-.423-1.134-.57.778-1.058,1.176-1.86,1.534-3.235.147-.507.209-.803.209-1.015l1.282.296q-.358,1.057-.483,1.417h1.953v-.529c0-.634-.042-1.162-.126-1.691h1.45c-.064.55-.106,1.036-.106,1.691v.529h1.596c1.008,0,1.554-.043,1.975-.128v1.396c-.504-.085-1.072-.106-1.975-.106h-1.596v2.558h2.163c.82,0,1.366-.043,1.976-.128v1.396c-.504-.064-1.008-.085-1.912-.085h-2.227v2.916c0,.804.042,1.312.126,1.882h-1.47c.084-.592.126-1.099.126-1.882v-2.916h-2.625c-.736,0-1.219.021-1.807.105v-1.417c.568.085,1.072.128,1.828.128h2.605v-2.558h-2.373Z"/><path d="M113.448,33.967c.484.085.882.105,1.68.105h4.054c.883,0,1.219-.021,1.68-.105v1.373c-.441-.064-.777-.085-1.533-.085h-4.201c-.736,0-1.176.021-1.68.085v-1.373ZM114.331,49.376c.063-.634.106-1.395.106-2.05v-2.896c0-.634-.021-1.205-.084-1.733.357.064.651.085,1.344.085h3.213c.714,0,.924-.021,1.281-.064-.041.444-.063.889-.063,1.67v2.347c0,.676,0,.951.042,1.437-.652-.043-.672-.043-1.218-.043h-3.298v1.248h-1.323ZM114.393,36.947c.379.064.756.085,1.428.085h2.941c.672,0,.988-.021,1.387-.085v1.311c-.463-.063-.778-.085-1.387-.085h-2.941c-.672,0-1.008.022-1.428.085v-1.311ZM114.393,39.864c.4.063.736.085,1.428.085h2.92c.693,0,1.05-.022,1.408-.085v1.311c-.463-.064-.736-.085-1.408-.085h-2.941c-.672,0-.945.021-1.408.085v-1.311ZM114.415,31.028c.462.085.819.105,1.512.105h2.794c.693,0,1.029-.021,1.512-.105v1.332c-.504-.064-.904-.085-1.512-.085h-2.794c-.63,0-1.03.021-1.512.085v-1.332ZM115.633,47.008h3.319v-3.128h-3.319v3.128ZM123.048,40.477c-.504,0-.924.021-1.449.085.042-.402.064-.867.064-1.437v-3.108c0-.676-.021-1.268-.084-1.649.525.063.965.085,1.785.085h3.718c.862-1.437,1.282-2.41,1.828-4.101l1.365.507c-.713,1.67-1.197,2.579-1.849,3.593h1.24c.736,0,1.156-.022,1.66-.085-.043.507-.064.972-.064,1.522v3.319c0,.549.021.951.064,1.353-.588-.064-.988-.085-1.492-.085h-1.512v6.806c0,.529.148.614,1.176.614.798,0,1.176-.085,1.324-.338.231-.36.336-1.205.399-2.896.546.36.84.487,1.239.592-.293,3.51-.588,3.869-2.982,3.869-2.122,0-2.437-.19-2.437-1.543v-7.102h-1.912c-.042,2.409-.252,3.868-.756,5.199-.63,1.691-1.596,2.834-3.256,3.805-.273-.423-.545-.697-1.008-1.035,1.807-.909,2.732-1.965,3.256-3.72.336-1.099.462-2.262.484-4.248h-.799ZM124.056,34.199c-.461-1.226-.903-2.029-1.764-3.235l1.156-.592c.861,1.227,1.24,1.903,1.807,3.172l-1.198.655ZM122.901,39.294h7.121v-3.636h-7.121v3.636Z"/><path class="cls-1" d="M3.236,23.599c3.493,3.515,9.157,3.515,12.65,0,3.493-3.515,3.493-9.215,0-12.73-3.493-3.515-9.157-3.515-12.65,0-3.493,3.515-3.493,9.215,0,12.73Z"/><line class="cls-1" x1="15.887" y1="23.599" x2="17.531" y2="25.254"/><path class="cls-1" d="M19.513,30.318l-2.341-2.356c-.641-.645-.641-1.701,0-2.346l.719-.723c.641-.645,1.69-.645,2.332,0l2.341,2.356"/><path class="cls-1" d="M4.96,21.865c-2.541-2.557-2.541-6.703,0-9.261s6.662-2.557,9.203,0,2.541,6.703,0,9.261-6.662,2.557-9.203,0Z"/><path class="cls-1" d="M9.331,13.07c.162-.009.323-.008.482.003"/><path class="cls-1" d="M11.478,13.549c.805.44,1.437,1.16,1.767,2.03"/><polyline class="cls-1" points="152.502 45.73 76.502 72 .502 45.73"/></g></svg>