<?xml version="1.0" encoding="UTF-8"?><svg id="_レイヤー_2" xmlns="http://www.w3.org/2000/svg" viewBox="0 0 345 212"><defs><style>.cls-1{opacity:.2;}.cls-1,.cls-2,.cls-3{fill:#fff;}.cls-4,.cls-5,.cls-6,.cls-7{fill:#231815;}.cls-8{fill:#f8bc42;}.cls-9,.cls-10{fill:#a7c7d3;}.cls-3,.cls-5,.cls-11,.cls-12,.cls-6,.cls-7,.cls-13,.cls-14{stroke-linecap:round;stroke-linejoin:round;}.cls-3,.cls-11{stroke:#040000;stroke-width:.215px;}.cls-15{fill:#f9bc42;}.cls-16{fill:#13222a;}.cls-5{font-family:UDShinMGoPro-Regular-90ms-RKSJ-H, 'A-OTF UD Shin Maru Go Pro';font-size:4.424px;}.cls-5,.cls-10,.cls-12,.cls-6,.cls-7,.cls-13,.cls-14{stroke:#231815;}.cls-5,.cls-6,.cls-7{stroke-width:.076px;}.cls-10{stroke-miterlimit:10;stroke-width:.248px;}.cls-11,.cls-12,.cls-13,.cls-14{fill:none;}.cls-17{fill:#7eaac8;}.cls-18{fill:#123a44;}.cls-19{fill:#e7e6e5;}.cls-12{stroke-width:.331px;}.cls-6{font-family:UDShinMGoPro-Medium-90ms-RKSJ-H, 'A-OTF UD Shin Maru Go Pro';font-size:2.863px;font-weight:500;}.cls-7{font-family:UDShinMGoPro-DeBold-90ms-RKSJ-H, 'A-OTF UD Shin Maru Go Pro';font-size:1.933px;font-weight:700;}.cls-20{fill:#dfdfdf;}.cls-21{fill:#ebc844;}.cls-22{fill:#f2ad34;}.cls-13{stroke-width:.414px;}.cls-23{fill:#f3eee1;}.cls-14{stroke-width:.192px;}</style></defs><g id="_レイヤー_1-2"><rect class="cls-23" width="345" height="212"/><polygon class="cls-16" points="139.552 123.317 138.064 129.491 136.148 128.285 130.448 120.644 135.164 120.098 139.552 123.317"/><path class="cls-16" d="M79.567,152.448c7.257-3.516,8.473,2.022,8.068,6.053l-.829-.442c.115-.714.169-1.446.169-2.184,0-2.186-1.792-3.758-3.758-3.758-.587,0-1.199.145-1.774.454l-.81.436c-4.619,2.481-7.518,7.281-7.565,12.523l-.007.133c-.006.848,2.307,3.038,2.742,3.649,0,0-2.992-.647-4.619-2.995-2.225-3.213,3.117-11.312,8.383-13.867Z"/><path class="cls-16" d="M125.164,125.384c3.771-3.159,5.287-3.997,6.834-3.553,3.23.927,3.954,2.455,3.954,2.455-.708-.829-1.762-1.331-2.869-1.331-.593,0-1.198.145-1.773.454l-.818.436c-4.612,2.482-7.517,7.281-7.565,12.517v.139c-.006.848,1.809,2.86,2.245,3.471,0,0-1.752-.95-2.984-1.637-2.412-1.348-2.383-1.93-2.383-1.93,0,0,1.898-7.62,3.122-8.713.533-.739,2.213-2.284,2.237-2.308Z"/><path class="cls-22" d="M29.271,142.752c-.036,4.007.261,9.696.261,9.696,0,0,6.458,12.577,33.494,17.686,0,0,5.847-.739,8.068-1.544,0,0,.091-.951.376-2.403.745-3.837,2.832-11.185,8.098-13.739,7.257-3.516,8.473,2.022,8.068,6.053l28.84-16.099,3.802-1.411s-.091-7.928,4.14-13.799c.006,0,.006-.012.006-.012.539-.793,1.137-1.519,1.816-2.094.327-.321.678-.624,1.04-.914,6.186-4.891,8.825-2.609,9.951.333l.006.006c.872,2.294.829,4.981.829,4.981l2.621-1.615s5.853-8.474.811-14.121c-.333-.376-.653-.726-.95-1.059-3.02-3.354-6.488-6.258-10.325-8.631-7.772-4.806-21.65-13.352-23.236-14.072-2.221-1.011-6.355-1.247-6.355-1.247l-3.323-.06v.06s1.901,1.646,1.901,1.646l28.071,14.998s4.722,1.041,3.311,6.288c-2.119,3.783-12.994,10.526-12.994,10.526l-1.514.836.007.006s1.428,2.899,1.743,4.812c0,0-3.002,6.718-2.5,10.695l-23.569,12.74-1.18-7.705-2.481-4.963c-.067-.018-.134-.042-.2-.066h-.006l-.672.369c-5.036.853-10.592,1.276-10.592,1.276,0,0-1.713,3.008-7.263,6.531-3.485,2.203-14.211,6.525-14.211,6.525,0,0-3.837,3.426-12.462-1.858-4.667-2.863-6.319-5.708-6.881-7.614l-1.659.139c.169.581.278.932.278.932-.472,2.13-3.377.163-5.096-2.107h-.067ZM54.334,157.115s2.197-.925,5.235-2.682c3.038-1.754,6.67-3.08,7.275-1.816.605,1.265-1.816,6.053-4.643,6.386-2.82.327-9.078-.073-7.868-1.889ZM33.671,149.223s4.54,5.247,17.649,10.894v3.831s-12.922-5.447-17.649-10.688v-4.037Z"/><path class="cls-8" d="M78.296,140.059c2.025-.189,5.586-.565,8.927-1.131l.672-.369h.006c.066.023.133.048.2.066l2.481,4.963,1.18,7.705,23.569-12.74c-.503-3.976,2.5-10.695,2.5-10.695-.315-1.913-1.743-4.812-1.743-4.812l-.007-.006,1.514-.836s10.876-6.743,12.994-10.526c1.411-5.247-3.311-6.288-3.311-6.288l-28.071-14.998-1.901-1.646v-.06l3.323.06s4.134.236,6.355,1.247c1.586.72,15.464,9.266,23.236,14.072,3.837,2.373,7.305,5.277,10.325,8.631.297.333.617.684.95,1.059,5.042,5.647-.811,14.121-.811,14.121l-2.621,1.615s.043-2.687-.829-4.981l-.006-.006c-1.126-2.942-3.765-5.223-9.951-.333-.362.29-.713.593-1.04.914-.678.575-1.277,1.301-1.816,2.1,0,0,0,.006-.006.006-4.231,5.871-4.14,13.799-4.14,13.799l-3.802,1.411-28.84,16.099c.405-4.031-.811-9.569-8.068-6.053-5.266,2.554-7.354,9.902-8.098,13.739-.285,1.452-.376,2.403-.376,2.403-1.664.603-5.363,1.169-7.113,1.414-.038-5.039.906-9.915,3.572-14.393,1.621-2.722,10.693-15.318,10.743-15.553Z"/><path class="cls-18" d="M122.927,136.361v.139c-.006.848.254,1.598.69,2.21,1.06,1.483,3.16,2.106,4.939,1.077l1.102-.635c4.442-2.566,7.178-7.305,7.178-12.438,0-.95-.339-1.785-.883-2.427-.708-.829-1.762-1.331-2.869-1.331-.593,0-1.198.145-1.773.454l-.818.436c-4.612,2.482-7.517,7.281-7.565,12.517ZM126.25,134.098c.03-2.736,1.543-5.242,3.952-6.538l.424-.223c.302-.164.617-.236.926-.236,1.029,0,1.961.823,1.961,1.961,0,2.681-1.429,5.157-3.746,6.494l-.575.333c-1.314.756-2.954-.2-2.942-1.719v-.072Z"/><path class="cls-20" d="M130.202,127.56l.424-.223c.302-.164.617-.236.926-.236,1.029,0,1.961.823,1.961,1.961,0,2.681-1.429,5.157-3.746,6.494l-.575.333c-1.314.756-2.954-.2-2.942-1.719v-.072c.03-2.736,1.543-5.242,3.952-6.538Z"/><polygon class="cls-9" points="127.278 105.39 119.326 105.39 92.416 89.803 99.631 89.471 127.278 105.39"/><path class="cls-9" d="M124.314,111.032c1.719.538,2.136,2.778.732,3.904-2.494,1.997-4.581,3.565-8.055,5.453l-2.717-10.598,2.105-1.501,7.935,2.742Z"/><path class="cls-15" d="M62.814,102.358c4.624-4.007,15.028-8.449,22.636-12.238,1.356-.678,2.796-1.138,4.279-1.374l3.425,1.646h.007l26.165,14.998h-1.332c-2.324,0-4.605.605-6.622,1.762l-23.344,12.945c-14.732-3.474-23.32-12.571-25.021-14.52l.236-.175c-.896-1.295-.43-3.045-.43-3.045Z"/><path class="cls-8" d="M92.707,135.907l24.181-13.312s2.122,2.487,2.437,4.4c0,0-4.496,7.58-3.993,11.557l-23.569,12.74-1.18-7.705-2.481-4.963c.435.145,4.788-2.506,4.605-2.717Z"/><path class="cls-4" d="M88.149,138.481l-.346-.115,2.633,5.269,1.21,7.893,23.757-12.842.091-.05-.013-.103c-.49-3.88,3.928-11.385,3.973-11.46l.028-.048-.009-.054c-.318-1.932-2.383-4.372-2.471-4.475l-.081-.094-24.288,13.373-.163.088.059.07c-.462.515-3.997,2.572-4.382,2.547ZM88.33,138.744c1.064-.288,4.252-2.339,4.489-2.691.012-.018.021-.034.028-.05l24.004-13.216c.38.465,2.018,2.545,2.315,4.18-.413.705-4.401,7.62-3.997,11.501l-23.289,12.59-1.149-7.492-2.401-4.82Z"/><path class="cls-9" d="M91.158,122.132l21.752-11.809,2.422,11.325-23.841,13.218c-.248-.157-.526-.303-.835-.43-1.096-.448-2.004-.533-2.694-.472l.067-5.024,3.13-6.809Z"/><path class="cls-18" d="M93.476,88.613l5.35.073,1.814,1.216-7.955.058.47.433-3.425-1.646c1.229-.206,2.487-.248,3.746-.134Z"/><path class="cls-8" d="M84.397,133.026l2.009,1.41s.551-.387,1.556-.472c.69-.061,1.598.024,2.694.472.309.127.587.273.835.43.502.314.902.678,1.216,1.041.182.211.339.417.472.623.503.769.078,1.798-.817,2.01-.847.2-1.943.381-3.045.339-.369-.018-.781-.109-1.216-.254l-.073-.139-.127.073h-.006c-2.179-.787-4.708-2.742-4.708-2.742-.909-2.651,1.21-2.79,1.21-2.79Z"/><path class="cls-22" d="M93.236,136.647c.393.753-.022,1.692-.874,1.893-.847.2-1.943.381-3.045.339-.369-.018-.781-.109-1.216-.254l-.073-.139-.127.073h-.006c-2.179-.787-4.708-2.742-4.708-2.742-.063-.183-.108-.352-.144-.513.087.029.171.061.268.079,3.453.648,6.657,2.515,9.925,1.264Z"/><path class="cls-19" d="M88.101,138.625c-.067-.018-.134-.042-.2-.066l.127-.073.073.139Z"/><path class="cls-17" d="M63.008,105.578c1.701,1.949,10.289,11.046,25.021,14.52l-9.478,17.625s-21.589-2.972-28.852-17.625l12.994-14.889s.103.134.315.369Z"/><path class="cls-1" d="M72.878,113.75c3.49,2.186,7.85,4.331,13.049,5.799-7.886,2.122-15.93,3.643-23.988,4.969-2.73.449-5.462.896-8.196,1.338-1.583-1.683-2.971-3.592-4.044-5.757l.867-.993c7.432-1.816,14.819-3.838,22.313-5.355Z"/><path class="cls-18" d="M73.067,165.528l-.007.133c-.006.848.254,1.598.69,2.21,1.059,1.482,3.16,2.106,4.945,1.077l1.095-.63c3.801-2.197,6.361-5.992,7.015-10.259.115-.714.169-1.446.169-2.184,0-2.186-1.792-3.758-3.758-3.758-.587,0-1.199.145-1.774.454l-.81.436c-4.619,2.481-7.518,7.281-7.565,12.523ZM76.384,163.331l.006-.066c.024-2.742,1.537-5.248,3.946-6.543l.424-.224c.302-.163.617-.236.926-.236,1.029,0,1.961.824,1.961,1.962,0,2.681-1.429,5.157-3.747,6.494l-.575.333c-1.314.756-2.954-.2-2.942-1.719Z"/><path class="cls-20" d="M80.336,156.721l.424-.224c.302-.163.617-.236.926-.236,1.029,0,1.961.824,1.961,1.962,0,2.681-1.429,5.157-3.747,6.494l-.575.333c-1.314.756-2.954-.2-2.942-1.719l.006-.066c.024-2.742,1.537-5.248,3.946-6.543Z"/><path class="cls-8" d="M46.521,122.737c.515-.369,1.865-1.713,1.865-1.713l.103-.042c.884,2.258,3.256,6.924,8.777,10.531,10.295,6.725,19.367,8.691,19.367,8.691,0,0-1.713,3.008-7.263,6.531-3.485,2.203-14.211,6.525-14.211,6.525-11.904-4.236-19.574-11.791-19.574-11.791,0,0,6.489-15.536,10.937-18.732Z"/><path class="cls-10" d="M59.57,154.433c3.038-1.754,6.67-3.08,7.275-1.816.605,1.265-1.816,6.053-4.643,6.386-2.82.327-9.078-.073-7.868-1.889,0,0,2.197-.925,5.235-2.682Z"/><path class="cls-18" d="M49.995,117.144c-.884,1.114-1.568,1.992-1.955,2.493.018.067.146.563.448,1.344.884,2.258,3.256,6.924,8.777,10.531,10.295,6.724,19.367,8.691,19.367,8.691,0,0,5.556-.424,10.592-1.276l.672-.369c-2.179-.787-4.708-2.742-4.708-2.742-.909-2.651,1.21-2.79,1.21-2.79l2.009,1.41s.551-.387,1.556-.472l.067-5.024,3.13-6.809,21.752-11.809,2.422,11.325-23.841,13.218c.502.314.902.678,1.216,1.041l23.375-12.867,1.514-.836s10.876-6.743,12.994-10.526c1.411-5.247-3.311-6.288-3.311-6.288h-7.952s-1.332,0-1.332,0c-2.324,0-4.605.605-6.622,1.762l-23.344,12.945-9.478,17.625s-21.589-2.972-28.852-17.625l12.994-14.889s.103.134.315.369l.236-.175c-.896-1.295-.43-3.045-.43-3.045-2.379,2.064-6.482,6.924-9.823,11.034-1.114,1.38-2.148,2.675-2.996,3.753ZM114.273,109.791l2.105-1.501,7.935,2.742c1.719.539,2.136,2.778.732,3.904-2.494,1.997-4.581,3.565-8.055,5.453l-2.717-10.598Z"/><path class="cls-16" d="M87.348,123.929c-3.265,6.511-6.594,12.224-9.053,16.13-.036.059,5.344-.524,8.927-1.131l.672-.369c-2.179-.787-4.708-2.742-4.708-2.742-.909-2.651,1.21-2.79,1.21-2.79l2.009,1.41s.551-.387,1.556-.472l.067-5.024,3.13-6.809,21.752-11.809,2.422,11.325-23.841,13.218c.502.314.902.678,1.216,1.041l23.375-12.867,1.514-.836s10.876-6.743,12.994-10.526c1.411-5.247-3.311-6.288-3.311-6.288h-9.284c-.812,0-1.619.079-2.412.224-1.653.794-3.272,1.642-4.849,2.661-1.882,1.216-12.826,6.969-18.654,10.372-2.093,1.222-3.644,3.114-4.731,5.281ZM114.273,109.791l2.105-1.501,7.935,2.742c1.719.539,2.136,2.778.732,3.904-2.494,1.997-4.581,3.565-8.055,5.453l-2.717-10.598Z"/><path class="cls-8" d="M49.486,111.685c.878.079,1.979.387,3.026,1.258.176.146.339.296.478.448-1.114,1.38-2.148,2.675-2.996,3.753-.321-.314-.599-.629-.787-.944-.551-.956-.908-2.016-1.126-2.851-.23-.896.485-1.749,1.404-1.664Z"/><path class="cls-22" d="M51.778,114.901c-.648.809-1.255,1.571-1.784,2.243-.321-.314-.599-.629-.787-.944-.551-.956-.908-2.016-1.126-2.851-.049-.19-.047-.377-.017-.554.727,1.32,2.197,2.02,3.713,2.106Z"/><path class="cls-18" d="M55.157,153.26s-3.837,3.426-12.462-1.858c-4.667-2.863-6.319-5.708-6.881-7.614-.418-1.416-.231-2.319-.231-2.319,0,0,7.669,7.554,19.574,11.791Z"/><path class="cls-18" d="M51.32,160.117v3.831s-12.922-5.447-17.649-10.688v-4.037s4.54,5.247,17.649,10.894Z"/><path class="cls-22" d="M47.683,120.098s.127-.163.357-.46c.018.067.146.563.448,1.344l-.103.042s-1.35,1.344-1.865,1.713c-4.448,3.196-10.937,18.732-10.937,18.732,0,0-.187.903.231,2.319l-1.659.139c-.514-1.749-1.622-5.556-2.251-8.11l-.491-.097c.872-1.241,2.167-2.972,4.17-5.666,4.587-6.149,12.1-9.956,12.1-9.956Z"/><path class="cls-10" d="M31.413,135.72l.491.097c.629,2.554,1.737,6.361,2.251,8.11.169.581.278.932.278.932-.472,2.13-3.377.163-5.096-2.107h-.067c.012-1.688.085-3.08.261-3.619.339-1.023.762-1.816,1.882-3.413Z"/><path class="cls-18" d="M62.693,104.05c.653.98,3.196,4.237,8.265,7.629,5.069,3.393,9.835,5.46,12.861,6.519,3.026,1.059,5.039,1.44,5.039,1.44l-.045.751c-18.536-4.769-26.12-15.18-26.12-15.18v-.787s-.653-1.352,0-.372Z"/><polygon class="cls-18" points="120.521 105.39 119.326 105.39 91.234 89.482 91.533 88.956 120.521 105.39"/><polygon class="cls-18" points="127.682 105.525 126.262 105.404 98.675 89.482 98.977 88.959 127.682 105.525"/><path class="cls-18" d="M113.124,127.346l2.801-1.559c.309-.172.648-.056.76.259.113.318-.047.718-.359.892l-2.839,1.605c-.101.057-.204.083-.3.083-.214,0-.398-.13-.465-.359-.098-.333.082-.743.403-.921Z"/><path class="cls-13" d="M29.532,152.448s6.458,12.577,33.494,17.686c0,0,7.881-1.476,8.068-1.544,0,0,.071-.765.298-1.996.942,1.404,2.894,2.183,2.894,2.183-.003-.003,1.519.536,1.517.532.922.266,1.708.145,3.223-.552l1.481-.882c3.701-2.811,5.645-5.549,6.299-9.817l.829.442,29.409-16.816,3.232-.695s-.015-1.518.315-3.702c.352.277,1.413.792,2.164,1.212,1.232.687.919.641,2.692,1.303,1.773.662,2.556.303,3.669-.341l1.403-.852c3.323-2.14,5.597-5.602,6.187-9.975l1.358.855,3.19-2.332s5.283-7.758.242-13.404c-.333-.376-.653-.726-.95-1.059-1.642-1.823-3.723-4.063-5.691-5.365-1.653-1.093-2.59-2-4.342-3.083-7.771-4.806-21.188-13.136-22.774-13.855-2.222-1.011-5.98-1.55-5.98-1.55l-1.979-.157-1.731-.011-3.845-.125c-1.259-.114-2.051,0-3.877,0-1.502,0-2.952.176-4.309.853-7.608,3.789-17.872,8.365-22.496,12.371-2.379,2.064-7.191,7.507-10.532,11.617-.139-.152-.756-.642-.932-.788-1.047-.871-2.358-1.388-3.179-1.068-.691.269-1.027.918-.798,1.813.218.835,1.592,3.481,1.912,3.795-.884,1.114-.999,1.275-1.385,1.777-.23.297-.357.46-.357.46,0,0-7.512,3.807-12.1,9.956-2.002,2.694-3.066,4.023-3.938,5.264-1.12,1.597-2.225,2.682-2.737,3.931-.215.525-.372,1.805-.385,3.493-.036,4.007.438,10.423.438,10.423Z"/><polygon class="cls-8" points="51.668 60.126 60.908 56.544 34.538 36.005 51.668 60.126"/><polygon class="cls-8" points="50.525 54.845 41.285 58.427 67.655 78.966 50.525 54.845"/><polygon class="cls-8" points="72.149 45.202 82.059 45.202 64.895 16.52 72.149 45.202"/><polygon class="cls-8" points="72.992 39.865 63.082 39.865 80.247 68.547 72.992 39.865"/><path class="cls-12" d="M83.216,135.737s2.825,2.548,5.642,3.085,4.364-.587,4.536-1.099c.172-.512-.469-2.466-3.097-3.364-2.628-.897-3.913.16-3.913.16l-2.079-1.493s-2.051.404-1.089,2.711Z"/><g id="Axo_Extrusion"><g id="Axo_Surface"><polygon id="Axo_panel" class="cls-15" points="243.816 192.415 315.708 150.908 315.708 153.773 243.816 195.28 243.816 192.415"/><path class="cls-4" d="M243.816,195.48c-.035,0-.069-.009-.1-.027-.062-.036-.1-.102-.1-.173v-2.865c0-.071.038-.137.1-.173l71.891-41.506c.061-.036.138-.036.2,0,.062.036.1.102.1.173v2.865c0,.071-.038.137-.1.173l-71.891,41.507c-.031.018-.065.027-.1.027ZM244.016,192.53v2.404l71.491-41.276v-2.403l-71.491,41.275Z"/></g><g id="Axo_Surface_"><polygon id="Axo_panel-2" class="cls-15" points="156.042 141.63 243.816 192.415 243.816 195.28 156.042 144.495 156.042 141.63"/><path class="cls-4" d="M243.816,195.48c-.035,0-.069-.009-.1-.027l-87.775-50.785c-.061-.036-.1-.102-.1-.173v-2.865c0-.072.038-.138.1-.173.063-.035.139-.035.2,0l87.775,50.785c.061.036.1.102.1.173v2.865c0,.071-.038.138-.1.173-.031.018-.066.027-.1.027ZM156.242,144.379l87.374,50.554v-2.403l-87.374-50.553v2.403Z"/></g><g id="Axo_cap"><polygon id="Axo_base" class="cls-2" points="156.042 141.63 227.933 100.123 315.708 150.908 243.816 192.415 156.042 141.63"/><path class="cls-4" d="M243.816,192.615c-.035,0-.069-.009-.1-.027l-87.775-50.785c-.061-.036-.1-.102-.1-.173s.038-.138.1-.173l71.891-41.507c.062-.036.138-.036.2,0l87.775,50.785c.061.036.1.102.1.173s-.038.138-.1.173l-71.891,41.506c-.031.018-.065.027-.1.027ZM156.441,141.63l87.375,50.554,71.492-41.275-87.375-50.554-71.492,41.276Z"/></g></g><polygon class="cls-2" points="158.282 59.697 158.282 142.926 227.934 102.713 227.934 19.486 158.282 59.697"/><path class="cls-4" d="M158.282,143.127c-.035,0-.069-.009-.1-.027-.062-.036-.1-.102-.1-.173V59.697c0-.071.038-.138.1-.173l69.652-40.211c.061-.036.138-.036.2,0,.062.036.1.102.1.173v83.227c0,.071-.038.138-.1.173l-69.652,40.213c-.031.018-.065.027-.1.027ZM158.482,59.812v82.768l69.252-39.982V19.833l-69.252,39.98Z"/><polygon class="cls-2" points="227.934 19.486 227.934 102.713 313.467 152.203 313.467 68.973 227.934 19.486"/><path class="cls-4" d="M313.467,152.403c-.035,0-.069-.009-.1-.027l-85.533-49.49c-.061-.036-.1-.102-.1-.173V19.486c0-.072.038-.137.1-.173.061-.035.137-.036.2,0l85.533,49.487c.061.036.1.102.1.173v83.23c0,.071-.038.138-.1.173-.031.018-.065.027-.1.027ZM228.134,102.598l85.133,49.258v-82.768l-85.133-49.255v82.765Z"/><polygon class="cls-15" points="158.282 59.697 158.282 142.926 156.041 141.628 156.041 58.401 158.282 59.697"/><path class="cls-4" d="M158.282,143.127c-.035,0-.069-.009-.1-.027l-2.241-1.298c-.062-.036-.1-.102-.1-.173V58.401c0-.072.038-.137.1-.173.061-.035.138-.036.2,0l2.241,1.296c.061.036.1.102.1.173v83.23c0,.072-.038.138-.1.173-.031.018-.066.027-.1.027ZM156.241,141.513l1.841,1.066V59.812l-1.841-1.064v82.765Z"/><polygon class="cls-15" points="315.708 67.68 315.708 150.907 313.467 152.203 313.467 68.973 315.708 67.68"/><path class="cls-4" d="M313.467,152.403c-.035,0-.069-.009-.1-.027-.062-.036-.1-.102-.1-.173v-83.23c0-.072.038-.138.1-.173l2.241-1.293c.061-.035.137-.036.2,0,.061.036.1.102.1.173v83.227c0,.071-.038.137-.1.173l-2.241,1.296c-.031.017-.066.027-.1.027ZM313.667,69.088v82.768l1.84-1.064v-82.765l-1.84,1.062Z"/><polygon class="cls-15" points="315.708 67.68 313.467 68.973 227.934 19.486 158.282 59.697 156.041 58.401 227.934 16.895 315.708 67.68"/><path class="cls-4" d="M313.467,69.173c-.035,0-.069-.009-.1-.027l-85.433-49.429-69.552,40.153c-.061.036-.137.036-.2,0l-2.241-1.296c-.062-.036-.1-.102-.1-.173s.038-.137.1-.173l71.893-41.506c.061-.036.137-.036.2,0l87.774,50.785c.061.036.1.102.1.173s-.038.137-.1.173l-2.241,1.293c-.031.018-.065.027-.1.027ZM227.934,19.286c.035,0,.069.009.1.027l85.433,49.429,1.841-1.062-87.374-50.553-71.493,41.275,1.841,1.064,69.552-40.153c.031-.018.065-.027.1-.027Z"/><g id="Axo_Extrusion-2"><g id="Axo_Surface-2"><polygon id="Axo_panel-3" class="cls-15" points="210.308 110.229 210.308 124.591 200.791 119.096 200.791 104.734 210.308 110.229"/><path class="cls-4" d="M210.308,124.791c-.035,0-.069-.009-.1-.027l-9.517-5.495c-.062-.036-.1-.102-.1-.173v-14.362c0-.071.038-.138.1-.173.061-.036.138-.036.2,0l9.517,5.495c.062.036.1.102.1.173v14.362c0,.071-.038.138-.1.173-.031.018-.065.027-.1.027ZM200.991,118.981l9.117,5.264v-13.9l-9.117-5.264v13.9Z"/></g><g id="Axo_Surface_-2"><polygon id="Axo_panel-4" class="cls-15" points="221.27 103.9 210.308 110.229 200.791 104.734 211.753 98.405 221.27 103.9"/><path class="cls-4" d="M210.308,110.429c-.035,0-.069-.009-.1-.027l-9.517-5.495c-.062-.036-.1-.102-.1-.173s.038-.138.1-.173l10.962-6.329c.061-.036.138-.036.2,0l9.517,5.495c.062.036.1.102.1.173s-.038.137-.1.173l-10.962,6.329c-.031.018-.065.027-.1.027ZM201.191,104.734l9.117,5.264,10.562-6.098-9.117-5.264-10.562,6.098Z"/></g><g id="Axo_cap-2"><polygon id="Axo_base-2" class="cls-2" points="221.27 103.9 221.27 118.262 210.308 124.591 210.308 110.229 221.27 103.9"/><path class="cls-4" d="M210.308,124.791c-.035,0-.069-.009-.1-.027-.062-.036-.1-.102-.1-.173v-14.362c0-.071.038-.137.1-.173l10.962-6.329c.062-.036.138-.036.2,0,.062.036.1.102.1.173v14.362c0,.071-.038.137-.1.173l-10.962,6.329c-.031.018-.065.027-.1.027ZM210.508,110.345v13.9l10.562-6.098v-13.9l-10.562,6.098Z"/></g><path class="cls-4" d="M210.308,115.609c-.069,0-.136-.036-.173-.1-.055-.096-.022-.218.074-.273l10.767-6.217c.093-.055.218-.023.273.073.055.096.022.218-.074.273l-10.767,6.217c-.031.018-.066.027-.1.027Z"/></g><path class="cls-2" d="M213.49,102.129c1.417.818,1.417,2.145,0,2.963-1.417.818-3.715.818-5.132,0-1.417-.818-1.417-2.145,0-2.963,1.417-.818,3.715-.818,5.132,0Z"/><path class="cls-4" d="M210.924,105.902c-.966,0-1.931-.212-2.666-.637-.75-.433-1.163-1.02-1.163-1.655s.413-1.222,1.162-1.655c1.471-.849,3.863-.849,5.332,0h0c.749.433,1.162,1.021,1.162,1.655s-.413,1.222-1.163,1.655c-.735.425-1.7.637-2.666.637ZM210.924,101.714c-.893,0-1.786.196-2.466.589-.621.359-.962.823-.962,1.309s.342.95.962,1.308c1.361.785,3.572.785,4.933,0,.621-.358.962-.823.962-1.308s-.342-.95-.962-1.309h0c-.68-.392-1.573-.589-2.466-.589Z"/><path class="cls-4" d="M210.924,103.655c-.111,0-.2-.09-.2-.2v-7.203c0-.11.089-.2.2-.2s.2.09.2.2v7.203c0,.11-.089.2-.2.2Z"/><path class="cls-2" d="M216.692,96.1c0,.852-.564,1.705-1.693,2.353-2.249,1.3-5.902,1.3-8.155,0-1.124-.648-1.689-1.501-1.689-2.353l.24-.956,1.901-5.538c0,.536.352,1.072,1.06,1.481,1.416.82,3.717.82,5.134,0,.708-.408,1.06-.944,1.06-1.481l1.901,5.538.24.956Z"/><path class="cls-4" d="M210.923,99.624c-1.513,0-3.026-.333-4.179-.998-1.154-.664-1.789-1.562-1.789-2.526l.245-1.005,1.906-5.554c.031-.093.125-.151.222-.132.096.016.167.099.167.197,0,.486.341.95.961,1.307,1.361.788,3.573.787,4.934,0,.62-.357.961-.821.961-1.307,0-.098.071-.181.167-.197.094-.018.19.04.222.132l1.901,5.538.245.973c.003.016.006.032.006.049,0,.965-.637,1.862-1.793,2.526-1.15.665-2.663.998-4.176.998ZM207.269,90.301l-1.685,4.908-.234.94c.006.767.57,1.541,1.594,2.131,2.196,1.267,5.764,1.267,7.955,0,1.017-.584,1.582-1.349,1.593-2.156l-.234-.932-1.679-4.892c-.187.362-.523.691-.988.959-1.47.851-3.863.851-5.334,0-.465-.268-.8-.596-.987-.959Z"/><path class="cls-2" d="M214.551,89.606c0,.536-.352,1.072-1.06,1.481-1.417.82-3.717.82-5.134,0-.708-.408-1.06-.944-1.06-1.481s.352-1.072,1.06-1.481c1.416-.82,3.717-.82,5.134,0,.708.408,1.06.944,1.06,1.481Z"/><path class="cls-4" d="M210.924,91.898c-.966,0-1.932-.213-2.667-.639-.748-.431-1.161-1.019-1.161-1.654s.412-1.223,1.161-1.654c1.47-.852,3.863-.852,5.334,0,.748.431,1.16,1.018,1.16,1.654s-.412,1.222-1.161,1.654c-.735.425-1.701.638-2.667.638ZM210.924,87.707c-.893,0-1.787.197-2.466.591-.62.357-.961.821-.961,1.307s.341.95.961,1.307c1.361.788,3.573.787,4.934,0,.62-.357.961-.821.961-1.307s-.341-.95-.96-1.307c-.68-.394-1.574-.591-2.468-.591Z"/><polygon class="cls-2" points="259.09 151.2 271.598 143.979 228.542 119.12 216.035 126.341 259.09 151.2"/><path class="cls-4" d="M259.09,151.4c-.035,0-.069-.009-.1-.027l-43.056-24.858c-.062-.036-.1-.102-.1-.173s.038-.137.1-.173l12.507-7.221c.061-.036.138-.036.2,0l43.056,24.858c.062.036.1.102.1.173s-.038.138-.1.173l-12.507,7.221c-.031.018-.065.027-.1.027ZM216.435,126.341l42.655,24.627,12.107-6.99-42.655-24.627-12.107,6.99Z"/><g id="Axo_Extrusion-3"><g id="Axo_Surface-3"><path id="Axo_panel-5" class="cls-15" d="M225.073,165.564c0,.504.332,1.009.998,1.394,1.331.769,3.49.769,4.821,0,.665-.384.998-.887.998-1.389v6.707c0,.503-.334,1.006-.998,1.389-1.331.769-3.49.769-4.821,0-.667-.385-.998-.889-.998-1.394v-6.707Z"/><path class="cls-4" d="M228.482,174.437c-.909,0-1.818-.2-2.51-.599-.709-.409-1.099-.966-1.099-1.567v-6.707c0-.111.089-.2.2-.2s.2.089.2.2c0,.452.319.886.899,1.22,1.274.735,3.346.735,4.621,0,.579-.335.898-.766.898-1.216,0-.111.089-.2.2-.2s.2.089.2.2v6.707c0,.599-.39,1.154-1.098,1.563-.693.4-1.602.599-2.511.599ZM225.273,166.569v5.702c0,.452.319.886.899,1.22,1.274.735,3.346.735,4.621,0,.579-.335.898-.766.898-1.216v-5.705c-.178.206-.412.396-.698.561-1.385.799-3.637.799-5.021,0-.287-.166-.521-.356-.699-.562Z"/></g><g id="Axo_cap-3"><path id="Axo_base-3" class="cls-21" d="M225.073,165.564c0-.503.334-1.006.998-1.389,1.331-.769,3.49-.769,4.821,0,.667.385.998.889.998,1.394s-.334,1.006-.998,1.389c-1.331.769-3.49.769-4.821,0-.667-.385-.998-.889-.998-1.394Z"/><path class="cls-4" d="M228.482,167.73c-.909,0-1.818-.2-2.51-.599-.709-.409-1.099-.966-1.099-1.567s.39-1.154,1.099-1.563c1.385-.799,3.636-.799,5.021,0,.709.41,1.099.966,1.099,1.567s-.39,1.154-1.098,1.563c-.693.4-1.602.599-2.511.599ZM228.483,163.796c-.837,0-1.673.184-2.311.552-.579.335-.898.767-.898,1.216,0,.452.319.886.899,1.22,1.274.735,3.346.735,4.621,0,.579-.335.898-.766.898-1.216,0-.452-.319-.886-.898-1.22-.637-.368-1.473-.552-2.31-.552Z"/></g></g><g id="Axo_Extrusion-4"><g id="Axo_Surface-4"><path id="Axo_panel-6" class="cls-15" d="M169,133.19c0,.504.332,1.009.998,1.394,1.331.769,3.49.769,4.821,0,.665-.384.998-.886.998-1.389v6.707c0,.503-.334,1.006-.998,1.389-1.331.769-3.49.769-4.821,0-.667-.385-.998-.889-.998-1.394v-6.707Z"/><path class="cls-4" d="M172.409,142.063c-.909,0-1.818-.2-2.51-.599-.708-.409-1.099-.965-1.099-1.567v-6.707c0-.11.089-.2.2-.2s.2.09.2.2c0,.453.319.886.898,1.221,1.274.736,3.347.736,4.621,0,.579-.335.898-.767.898-1.216,0-.11.089-.2.2-.2s.2.09.2.2v6.707c0,.599-.39,1.154-1.099,1.563-.692.4-1.601.599-2.51.599ZM169.2,134.195v5.702c0,.453.319.886.898,1.221,1.274.735,3.347.735,4.621,0,.579-.335.898-.767.898-1.216v-5.705c-.178.206-.412.396-.699.561-1.385.799-3.637.799-5.02,0-.287-.165-.521-.355-.698-.561Z"/></g><g id="Axo_cap-4"><path id="Axo_base-4" class="cls-21" d="M169,133.19c0-.503.334-1.006.998-1.389,1.331-.769,3.49-.769,4.821,0,.667.385.998.889.998,1.394s-.334,1.006-.998,1.389c-1.331.769-3.49.769-4.821,0-.667-.385-.998-.889-.998-1.394Z"/><path class="cls-4" d="M172.409,135.356c-.909,0-1.818-.2-2.51-.599-.708-.409-1.099-.965-1.099-1.567s.39-1.154,1.099-1.562c1.384-.8,3.636-.8,5.021,0,.708.408,1.099.965,1.099,1.567,0,.599-.39,1.154-1.099,1.563-.692.4-1.601.599-2.51.599ZM172.409,131.422c-.836,0-1.673.184-2.31.552-.579.334-.898.766-.898,1.216,0,.453.319.886.898,1.221,1.274.736,3.347.736,4.621,0,.579-.335.898-.767.898-1.216,0-.453-.319-.886-.898-1.22-.638-.368-1.474-.552-2.311-.552Z"/></g></g><g id="Axo_Extrusion-5"><g id="Axo_Surface-5"><path id="Axo_panel-7" class="cls-15" d="M249.64,151.38c0,.504.332,1.009.998,1.394,1.331.769,3.49.769,4.821,0,.665-.384.998-.887.998-1.39v6.707c0,.503-.334,1.006-.998,1.389-1.331.769-3.49.769-4.821,0-.667-.385-.998-.889-.998-1.394v-6.707Z"/><path class="cls-4" d="M253.049,160.253c-.909,0-1.818-.2-2.51-.599-.708-.409-1.099-.965-1.099-1.567v-6.707c0-.11.089-.2.2-.2s.2.09.2.2c0,.453.319.886.898,1.22,1.275.736,3.346.736,4.621,0,.579-.334.898-.766.898-1.216,0-.111.089-.2.2-.2s.2.089.2.2v6.707c0,.599-.39,1.154-1.099,1.563-.692.4-1.601.599-2.51.599ZM249.84,152.386v5.701c0,.453.319.886.898,1.22,1.275.736,3.346.736,4.621,0,.579-.334.898-.766.898-1.216v-5.705c-.177.206-.412.395-.698.56-1.385.799-3.637.799-5.02,0-.287-.165-.521-.355-.698-.561Z"/></g><g id="Axo_cap-5"><path id="Axo_base-5" class="cls-21" d="M249.64,151.38c0-.503.334-1.006.998-1.39,1.331-.769,3.49-.769,4.821,0,.667.385.998.889.998,1.394s-.334,1.006-.998,1.39c-1.331.769-3.49.769-4.821,0-.667-.385-.998-.889-.998-1.394Z"/><path class="cls-4" d="M253.049,153.546c-.909,0-1.818-.2-2.51-.599-.708-.409-1.099-.965-1.099-1.567,0-.599.39-1.154,1.098-1.563,1.384-.799,3.636-.8,5.021,0,.708.409,1.099.966,1.099,1.567s-.39,1.154-1.099,1.563c-.692.4-1.601.599-2.51.599ZM253.049,149.612c-.837,0-1.673.184-2.311.552-.579.335-.898.767-.898,1.216,0,.453.319.886.898,1.22,1.275.736,3.346.736,4.621,0,.579-.334.898-.766.898-1.216,0-.453-.319-.886-.898-1.221-.637-.367-1.474-.552-2.31-.552Z"/></g></g><g id="Axo_Extrusion-6"><g id="Axo_Surface-6"><path id="Axo_panel-8" class="cls-21" d="M193.567,119.006c0,.504.332,1.009.998,1.394,1.331.769,3.49.769,4.821,0,.665-.384.998-.886.998-1.389v6.707c0,.503-.334,1.006-.998,1.389-1.331.769-3.49.769-4.821,0-.667-.385-.998-.889-.998-1.394v-6.707Z"/><path class="cls-4" d="M196.976,127.88c-.909,0-1.818-.2-2.51-.599-.709-.409-1.099-.965-1.099-1.567v-6.707c0-.11.089-.2.2-.2s.2.09.2.2c0,.452.319.886.898,1.221,1.274.736,3.347.736,4.621,0,.579-.334.898-.767.898-1.216,0-.11.089-.2.2-.2s.2.09.2.2v6.707c0,.599-.39,1.154-1.099,1.563-.692.4-1.601.599-2.51.599ZM193.767,120.011v5.702c0,.452.319.886.898,1.221,1.274.735,3.347.735,4.621,0,.579-.334.898-.767.898-1.216v-5.705c-.177.207-.412.396-.698.561-1.385.799-3.637.799-5.02,0-.287-.165-.521-.355-.699-.562Z"/></g><g id="Axo_cap-6"><path id="Axo_base-6" class="cls-21" d="M193.567,119.006c0-.503.334-1.006.998-1.389,1.331-.769,3.49-.769,4.821,0,.667.385.998.889.998,1.394s-.334,1.006-.998,1.389c-1.331.769-3.49.769-4.821,0-.667-.385-.998-.889-.998-1.394Z"/><path class="cls-4" d="M196.976,121.173c-.909,0-1.818-.2-2.51-.599-.709-.409-1.099-.965-1.099-1.567s.39-1.154,1.099-1.563c1.384-.8,3.636-.799,5.02,0,.708.409,1.099.965,1.099,1.567s-.39,1.154-1.099,1.563c-.692.4-1.601.599-2.51.599ZM196.976,117.238c-.837,0-1.673.184-2.311.552-.579.335-.898.767-.898,1.216,0,.452.319.886.898,1.221,1.274.736,3.347.736,4.621,0,.579-.334.898-.767.898-1.216,0-.453-.319-.886-.898-1.221-.637-.367-1.474-.552-2.31-.552Z"/></g></g><g id="Axo_Extrusion-7"><g id="Axo_Surface-7"><polygon id="Axo_panel-9" class="cls-15" points="168.5 115.966 196.632 99.724 196.632 117.836 168.5 134.078 168.5 115.966"/><path class="cls-4" d="M168.5,134.278c-.035,0-.069-.009-.1-.027-.062-.036-.1-.102-.1-.173v-18.111c0-.071.038-.137.1-.173l28.132-16.242c.061-.036.138-.036.2,0,.062.036.1.102.1.173v18.111c0,.071-.038.137-.1.173l-28.132,16.242c-.031.018-.065.027-.1.027ZM168.7,116.082v17.649l27.732-16.011v-17.649l-27.732,16.011Z"/></g><g id="Axo_Surface_-3"><polygon id="Axo_panel-10" class="cls-2" points="167.16 115.193 168.5 115.966 168.5 134.078 167.16 133.304 167.16 115.193"/><path class="cls-4" d="M168.5,134.278c-.035,0-.069-.009-.1-.027l-1.34-.773c-.062-.036-.1-.102-.1-.173v-18.111c0-.071.038-.138.1-.173.061-.036.138-.036.2,0l1.34.773c.062.036.1.102.1.173v18.111c0,.071-.038.138-.1.173-.031.018-.065.027-.1.027ZM167.36,133.189l.94.542v-17.649l-.94-.542v17.649Z"/></g><g id="Axo_cap-7"><polygon id="Axo_base-7" class="cls-2" points="167.16 115.193 195.292 98.951 196.632 99.724 168.5 115.966 167.16 115.193"/><path class="cls-4" d="M168.5,116.166c-.035,0-.069-.009-.1-.027l-1.34-.773c-.062-.036-.1-.102-.1-.173s.038-.138.1-.173l28.132-16.242c.062-.036.138-.036.2,0l1.34.773c.062.036.1.102.1.173s-.038.138-.1.173l-28.132,16.242c-.031.018-.065.027-.1.027ZM167.56,115.193l.94.542,27.732-16.011-.94-.542-27.732,16.011Z"/></g></g><g id="Axo_Surface-8"><polygon id="Axo_panel-11" class="cls-2" points="228.462 162.409 256.594 146.167 256.594 152.473 228.462 168.715 228.462 162.409"/><path class="cls-4" d="M228.462,168.915c-.035,0-.069-.009-.1-.027-.062-.036-.1-.102-.1-.173v-6.306c0-.071.038-.137.1-.173l28.132-16.242c.061-.036.138-.036.2,0,.062.036.1.102.1.173v6.306c0,.071-.038.138-.1.173l-28.132,16.242c-.031.018-.065.027-.1.027ZM228.662,162.524v5.844l27.732-16.011v-5.844l-27.732,16.011Z"/></g><g id="Axo_Surface_-4"><polygon id="Axo_panel-12" class="cls-2" points="168.5 127.789 228.462 162.409 228.462 168.715 168.5 134.095 168.5 127.789"/><path class="cls-4" d="M228.462,168.915c-.035,0-.069-.009-.1-.027l-59.963-34.619c-.062-.036-.1-.102-.1-.173v-6.306c0-.071.038-.137.1-.173.061-.036.138-.036.2,0l59.963,34.619c.062.036.1.102.1.173v6.306c0,.071-.038.137-.1.173-.031.018-.065.027-.1.027ZM168.7,133.98l59.562,34.388v-5.844l-59.562-34.389v5.844Z"/></g><polygon id="Axo_base-8" class="cls-2" points="168.5 127.789 196.632 111.547 256.594 146.167 228.462 162.409 168.5 127.789"/><path class="cls-4" d="M228.462,162.609c-.035,0-.069-.009-.1-.027l-59.963-34.62c-.062-.036-.1-.102-.1-.173s.038-.137.1-.173l28.132-16.242c.061-.036.138-.036.2,0l59.963,34.619c.062.036.1.102.1.173s-.038.138-.1.173l-28.132,16.242c-.031.018-.065.027-.1.027ZM168.9,127.789l59.562,34.389,27.732-16.011-59.562-34.388-27.732,16.011Z"/><path class="cls-2" d="M190.462,114.117c-.801.169-5.03,2.515-6.116,3.258-1.086.743-7.145,4.001-7.83,4.458-.686.457-1.257,1.372-.171,2.572,1.086,1.2,3.83,2.629,4.801,3.029s3.772,1.143,4.401.972c.629-.171,5.087-3.544,6.459-4.401,1.439-.899,7.545-3.658,7.773-4.23.229-.572-1.829-2.801-3.83-3.772-2-.972-4.401-2.115-5.487-1.886Z"/><path class="cls-4" d="M185.299,128.63c-1.016,0-3.415-.675-4.23-1.01-.852-.35-3.705-1.789-4.874-3.08-.495-.547-.712-1.091-.647-1.617.081-.651.571-1.066.856-1.256.298-.199,1.554-.896,3.008-1.703,1.97-1.093,4.204-2.332,4.82-2.754,1.093-.748,5.346-3.111,6.187-3.289h0c1.093-.23,3.28.768,5.616,1.902,1.994.968,4.233,3.264,3.927,4.027-.152.38-1.626,1.149-4.719,2.692-1.329.664-2.586,1.29-3.133,1.633-.543.34-1.578,1.079-2.674,1.862-2.07,1.48-3.455,2.457-3.838,2.562-.077.021-.179.03-.3.03ZM190.503,114.312c-.742.157-4.879,2.43-6.043,3.227-.632.432-2.874,1.676-4.852,2.774-1.386.769-2.696,1.496-2.981,1.686-.228.152-.62.48-.68.972-.05.405.133.842.546,1.299,1.061,1.172,3.776,2.586,4.729,2.978,1.055.434,3.74,1.111,4.272.964.343-.093,2.211-1.429,3.711-2.501,1.101-.787,2.14-1.53,2.694-1.876.564-.353,1.828-.983,3.167-1.652,1.729-.862,4.34-2.166,4.529-2.489.14-.352-1.668-2.509-3.734-3.512-1.716-.833-4.306-2.093-5.358-1.871h0Z"/><path class="cls-2" d="M180.86,123.948c-1.429-.8-4.058-1.2-4.515-1.429l9.145,5.087c-.114-.857-3.201-2.858-4.63-3.658Z"/><path class="cls-4" d="M185.49,127.806c-.099,0-.185-.073-.198-.173-.09-.677-2.736-2.505-4.53-3.51-.922-.517-2.407-.874-3.389-1.11-.548-.132-.944-.227-1.118-.314-.099-.049-.139-.169-.09-.268.05-.099.171-.139.269-.09.134.067.551.167,1.033.283,1.003.241,2.52.606,3.491,1.15.045.025,4.57,2.609,4.73,3.806.014.11-.062.21-.172.225-.009.001-.018.002-.027.002Z"/><path class="cls-2" d="M198.703,118.314c-2.31.107-2.794,1.558-5.319,4.567-2.499,2.978-2.757,2.513-3.753,4.01-.497.746-.555,1.536-.883,3.742-.086.58,1.782,1.354,2.372,1.51,2.221.588,14.568-4.148,14.568-4.148v-4.631c-1.612-.967-5.696-5.111-6.985-5.051Z"/><path class="cls-4" d="M191.589,132.391c-.207,0-.382-.017-.52-.054-.027-.007-2.654-.831-2.519-1.733l.113-.774c.242-1.669.343-2.36.801-3.049.484-.728.811-1.017,1.264-1.416.503-.443,1.192-1.051,2.502-2.612.564-.672,1.024-1.264,1.43-1.787,1.431-1.84,2.149-2.764,4.033-2.852h0c.887-.043,2.764,1.549,4.58,3.089.994.843,1.933,1.64,2.517,1.99.06.036.097.102.097.172v4.631c0,.083-.051.157-.128.187-.476.182-11.011,4.209-14.17,4.209ZM198.703,118.314l.009.2c-1.7.079-2.338.9-3.736,2.698-.408.525-.871,1.12-1.44,1.798-1.329,1.584-2.031,2.202-2.543,2.655-.446.393-.74.653-1.196,1.338-.408.614-.505,1.279-.738,2.885l-.114.776c-.049.327,1.412,1.073,2.226,1.287,1.694.448,10.027-2.452,14.317-4.092v-4.382c-.612-.39-1.517-1.158-2.473-1.968-1.592-1.35-3.588-3.03-4.303-2.994l-.009-.2Z"/><path class="cls-4" d="M192.688,126.086c-.044,0-.088-.014-.125-.044-.417-.333-.636-.889-.559-1.417.016-.109.112-.185.227-.169.109.016.185.118.169.227-.056.384.11.804.413,1.046.086.069.1.195.031.281-.039.049-.097.075-.156.075Z"/><path class="cls-2" d="M194.746,120.515c-.852-.532-1.824-1.196-2.615-1.773l-1.505,5.266c.573.125.949.466,1.413.754.823.511.913.752,1.612.484,1.394-.536,1.505-3.17,2.257-4.675-.269,0-.641.27-1.163-.056Z"/><path class="cls-4" d="M193.172,125.556c-.299,0-.515-.145-.835-.361-.114-.077-.244-.165-.403-.263-.116-.072-.226-.147-.336-.221-.318-.217-.619-.421-1.015-.508-.108-.023-.176-.13-.153-.238.023-.108.129-.176.238-.153.471.103.818.339,1.154.568.105.071.211.143.322.212.164.102.299.193.415.271.46.309.555.374,1.019.195.829-.319,1.179-1.555,1.518-2.751.142-.5.288-1.014.47-1.466-.238.05-.557.074-.929-.157-.811-.507-1.793-1.173-2.626-1.781-.089-.065-.109-.19-.044-.28.066-.089.192-.108.28-.043.827.603,1.8,1.263,2.603,1.765.305.19.535.132.759.075.173-.044.38-.099.468.045.037.059.04.133.009.195-.246.493-.429,1.135-.605,1.757-.365,1.29-.744,2.624-1.759,3.015-.223.086-.398.124-.552.124Z"/><path class="cls-2" d="M191.911,131.613c-1.079,1.532,1.721,2.464,3.064,1.831,1.343-.633,4.731-7.345,4.953-8.383l-4.451-.999c-.223,1.037-2.488,6.018-3.567,7.55Z"/><path class="cls-4" d="M193.951,133.846c-.85,0-1.761-.311-2.201-.836-.374-.445-.375-.982-.002-1.512,1.073-1.522,3.32-6.478,3.535-7.477.023-.108.131-.177.237-.153.108.023.177.129.154.238-.225,1.049-2.477,6.032-3.599,7.623-.266.378-.272.722-.019,1.024.53.631,2.014.898,2.834.511,1.251-.589,4.62-7.203,4.843-8.244.023-.108.132-.177.237-.153.108.023.177.129.154.238-.217,1.011-3.609,7.836-5.063,8.521-.318.15-.707.22-1.11.22Z"/><path class="cls-2" d="M196.366,118.914c-.882.632-.934,1.801-1.028,2.785-.135,1.416-.343,2.824-.642,4.215.862-.466,1.895-.57,2.858-.384.967.187,1.988.723,2.746,1.323.127-1.39.444-2.09.874-3.38l.217-1.826c.07-.722-.307-1.606-.671-2.211-.846-1.406-3.079-1.436-4.355-.522Z"/><path class="cls-4" d="M200.301,127.052c-.044,0-.088-.015-.124-.043-.804-.637-1.799-1.117-2.659-1.283-.977-.189-1.944-.059-2.725.364-.068.037-.153.031-.215-.016s-.092-.126-.075-.202c.284-1.322.498-2.733.638-4.192l.017-.19c.09-.981.193-2.093,1.093-2.738.791-.566,1.897-.79,2.893-.586.772.16,1.393.574,1.75,1.167.24.399.787,1.424.698,2.334-.01.11-.111.193-.218.18-.11-.011-.191-.108-.18-.219.079-.813-.473-1.804-.644-2.088-.382-.636-1.02-.884-1.488-.981-.876-.181-1.887.023-2.578.519-.752.539-.845,1.554-.928,2.45l-.018.191c-.127,1.33-.316,2.621-.563,3.843.787-.323,1.702-.406,2.618-.228.821.158,1.751.58,2.547,1.148.119-.962.338-1.597.63-2.44.068-.197.14-.405.216-.631.035-.105.148-.162.253-.126.105.035.161.148.126.253-.076.228-.148.437-.217.636-.317.916-.546,1.578-.647,2.699-.007.073-.053.137-.121.166-.025.011-.052.016-.079.016Z"/><path class="cls-4" d="M195.748,124.855c-.066,0-.131-.033-.169-.093-.059-.093-.031-.217.061-.276,1.415-.896,3.416-2.233,4.466-3.505.07-.086.196-.097.282-.027.085.07.097.197.027.282-1.086,1.316-3.123,2.678-4.56,3.588-.034.021-.071.031-.107.031Z"/><path class="cls-2" d="M187.492,115.769c-2.625.159-4.298,2.495-3.869,4.746.406,2.128,1.476,2.195,2.221,2.776.555.433,1.09.852,1.522,1.003,2.093.73,2.55.608,3.037.073.38-.419.661-1.243.864-1.954l.863-3.671c-1.54-1.684-2.673-3.092-4.639-2.973Z"/><path class="cls-4" d="M189.465,125.003c-.476,0-1.139-.162-2.164-.52-.46-.16-.997-.579-1.566-1.023-.168-.131-.342-.23-.525-.335-.68-.388-1.45-.828-1.783-2.572-.219-1.15.079-2.356.82-3.308.778-1.001,1.927-1.596,3.233-1.676,1.942-.114,3.065,1.131,4.499,2.709l.3.329c.074.082.068.208-.013.283-.081.075-.207.069-.283-.012l-.3-.33c-1.363-1.5-2.45-2.686-4.179-2.579-1.19.072-2.235.613-2.942,1.522-.669.861-.94,1.95-.742,2.987.298,1.563.954,1.938,1.588,2.3.188.107.382.218.559.356.556.434,1.068.833,1.466.972,2.125.742,2.445.543,2.823.127.371-.408.645-1.265.819-1.874.031-.106.139-.168.248-.137.106.03.168.141.137.247-.186.648-.481,1.563-.908,2.033-.292.321-.586.501-1.088.501Z"/><path class="cls-15" d="M193.887,119.996c-.463-.33-1.2-1.039-1.433-1.379-.233-.34-.471-.955-1.666-1.988-1.712-1.481-3.367-2.006-5.104-1.254-.554.24-1.909,1.565-2.121,2.453-.615.795-.943.911-.655,2.206.292,1.314-.146,1.947.487,2.58.487.487.584.876.438,1.022.682-.049.487-.682.487-.925.243.292.535.292.535.292.146-.292-.438-1.168-.292-1.704.131-.481.143-1.784.003-2.573.484-.012.949-.166.949-.166,0,0,1.225-.016,1.742.126.517.141,1.851.786,2.069,1.037,0,0,.517-.141-.545-1.1-.218-.157.463-2.059,2.45.063.517.55.613.79,1.204,1.22,0,0,.157-.371.13-.481.444.445.967.681,1.321.571Z"/><path class="cls-4" d="M183.832,123.837c-.078,0-.149-.045-.182-.117-.035-.076-.019-.166.041-.224.027-.047-.024-.325-.439-.739-.434-.434-.432-.887-.43-1.411.002-.354.004-.754-.111-1.267-.256-1.152-.048-1.466.446-2.066.068-.083.142-.173.222-.274.261-.968,1.639-2.293,2.225-2.547,1.717-.743,3.455-.323,5.315,1.286,1,.865,1.345,1.441,1.573,1.822.046.078.087.146.128.205.217.318.941,1.013,1.383,1.329.062.044.093.12.082.194-.012.075-.066.137-.139.16-.352.11-.816-.035-1.255-.383-.02.056-.043.116-.07.18-.024.056-.072.099-.131.115-.059.016-.121.005-.171-.031-.42-.305-.605-.524-.839-.8-.108-.127-.229-.27-.393-.444-.727-.776-1.357-1.082-1.777-.866-.262.135-.368.436-.367.543.548.501.765.86.698,1.139-.039.162-.165.251-.262.277-.075.022-.154-.004-.204-.062-.175-.203-1.446-.831-1.97-.975-.44-.121-1.472-.121-1.657-.119-.097.03-.4.117-.751.152.105.8.09,1.959-.041,2.44-.063.228.059.583.166.896.121.355.217.635.111.845-.065.132-.231.15-.489.035-.005.159-.041.328-.158.467-.12.142-.301.223-.539.24-.005,0-.01,0-.015,0ZM187.266,115.232c-.503,0-1.001.109-1.503.327-.51.221-1.814,1.512-2.005,2.316-.007.028-.019.054-.037.076-.092.118-.176.221-.254.316-.429.52-.589.715-.364,1.724.124.556.122.999.12,1.356-.002.505-.004.81.313,1.126.308.308.498.609.547.863.085-.104.064-.311.048-.462-.006-.063-.012-.118-.012-.163,0-.084.053-.16.132-.188.079-.029.168-.005.222.06.061.073.125.122.183.155-.028-.112-.076-.253-.113-.36-.125-.367-.268-.784-.173-1.131.118-.431.141-1.688-.001-2.485-.01-.057.005-.117.042-.162.037-.045.092-.072.15-.073.446-.011.887-.155.891-.156.02-.006.04-.01.061-.01.052,0,1.26-.014,1.797.133.417.114,1.37.549,1.878.874-.075-.12-.227-.312-.54-.595-.042-.029-.136-.138-.095-.383.053-.32.309-.725.741-.855.584-.177,1.285.164,2.084,1.016.169.18.294.328.406.459.179.211.318.375.557.572.017-.057.028-.104.027-.125-.021-.087.02-.17.098-.213.078-.044.177-.022.241.042.131.131.269.242.406.329-.346-.319-.676-.667-.825-.883-.045-.065-.089-.14-.14-.225-.215-.359-.539-.901-1.491-1.724-1.2-1.038-2.305-1.548-3.391-1.548ZM188.899,118.461c.008.007.015.014.023.02-.006-.007-.013-.014-.023-.02Z"/><path class="cls-2" d="M190.33,117.439c-1.143-.433-2.046.411-1.324.969l1.387.869c.248.23.647.17.895-.035.295-.245-.006-.481-.111-.697-.219-.45-.137-.837-.846-1.106Z"/><path class="cls-4" d="M190.787,119.623c-.19,0-.379-.06-.529-.199-.081-.075-.086-.202-.011-.283.075-.081.202-.086.282-.011.169.156.458.1.631-.042.071-.059.086-.072-.054-.277-.041-.061-.081-.12-.11-.179-.06-.122-.099-.24-.136-.353-.096-.293-.16-.486-.601-.653-.654-.248-1.147-.022-1.276.209-.098.175.024.322.144.415.088.068.103.193.036.281-.068.088-.194.103-.281.036-.395-.306-.387-.68-.249-.927.24-.428.966-.692,1.766-.387.62.235.731.574.839.902.032.097.065.198.116.303.02.042.05.084.081.128.112.164.346.506-.022.811-.169.14-.4.227-.629.227Z"/><path class="cls-2" d="M189.699,118.6c.215.08.292.086.377.151.089.067.088.133.094.183.009.064.197.183.359.018l-.723-1.263c-.576.21-.62.721-.107.912Z"/><path class="cls-4" d="M190.346,119.235c-.045,0-.089-.007-.134-.022-.131-.043-.225-.143-.24-.253l.104-.21-.119.16c-.029-.022-.057-.031-.143-.059-.049-.016-.108-.036-.185-.064-.306-.113-.488-.338-.487-.601.001-.29.229-.553.596-.687.104-.04.218.016.256.12.038.104-.016.219-.12.256-.245.089-.332.224-.332.312,0,.088.084.172.226.224.07.026.125.044.171.059.097.032.175.057.257.119.11.082.147.174.162.242.009-.003.018-.01.028-.021.077-.079.204-.08.283-.003s.08.204.002.283c-.092.094-.208.144-.325.144ZM190.368,118.897h.005-.005Z"/><path class="cls-2" d="M189.529,118.444l1.046.287c.178-.633-.939-.764-1.046-.287Z"/><path class="cls-4" d="M190.574,118.932c-.018,0-.036-.002-.054-.008-.107-.03-.169-.14-.139-.247.025-.088.011-.152-.044-.207-.1-.099-.314-.143-.475-.094-.056.016-.125.049-.139.112-.025.108-.13.176-.24.151-.108-.024-.175-.131-.151-.239.044-.195.196-.344.417-.409.299-.088.666-.007.869.194.16.158.212.371.148.6-.025.088-.105.146-.193.146Z"/><path class="cls-4" d="M186.513,124.019c-.056,0-.105-.01-.146-.031-.207-.104-.334-.477-.523-1.538l-.02-.112c-.02-.109.052-.213.161-.233.11-.021.213.053.233.161l.02.113c.124.696.228,1.112.309,1.239.126-.024.448-.203.729-.407.089-.064.214-.045.28.044.065.09.045.215-.044.28-.443.322-.777.483-.998.483Z"/><path class="cls-4" d="M186.074,123.16c-.037,0-.074-.01-.107-.031l-.187-.119c-.093-.059-.121-.183-.061-.276.06-.093.184-.12.276-.061l.187.119c.093.059.121.183.061.276-.038.06-.103.093-.169.093Z"/><path class="cls-4" d="M185.15,122.937c-.073,0-.144-.041-.179-.111-.063-.126-.068-.264-.015-.399.099-.252.382-.434.593-.513.104-.039.219.014.258.117.039.104-.014.219-.117.258-.166.062-.322.185-.361.285-.013.033-.009.054.001.074.049.099.009.219-.09.268-.029.014-.059.021-.089.021Z"/><path class="cls-2" d="M181.879,128.987l.108-1.123c-.107.263-.289.643-.108,1.123Z"/><path class="cls-2" d="M183.841,130.298c-.205-.218-.117-.92-.258-1.553-.163-.692-.276-1.357-.721-1.64-.529-.336-.818-.693-1.195-.718-.65.493-.058.702.352,1.148.064.07.028.182-.032.328l-.108,1.123c-.181-.48.001-.86.108-1.123l.032-.328s-.923-.512-.996-.562c-1.757-1.201-2.855,1.796-2.803,1.993.121.459.963,1.063,1.678,1.537.774.512,1.768,1.188,2.335,1.667.566.48,6.965,5.007,8.069,5.051,1.103.395,2.242-2.105,1.463-3.27-.888-1.329-7.187-2.87-7.925-3.654Z"/><path class="cls-4" d="M190.539,137.465c-.093,0-.186-.015-.277-.044-1.289-.127-7.732-4.736-8.158-5.097-.437-.37-1.195-.911-2.316-1.653-.795-.526-1.625-1.133-1.762-1.653-.067-.256.466-1.639,1.309-2.232.57-.401,1.193-.393,1.801.022.007.005.022.014.044.027-.002-.019-.002-.039-.002-.06.009-.247.214-.431.368-.548.038-.029.086-.044.134-.04.309.02.553.207.835.424.133.102.28.215.454.325.472.3.613.916.763,1.568l.045.195c.063.282.082.568.1.822.017.252.039.566.109.64.276.293,1.639.783,2.957,1.257,2.079.747,4.435,1.595,4.989,2.423.548.82.251,2.222-.37,3.017-.309.396-.669.606-1.023.606ZM180.206,126.89c-.154,0-.305.037-.455.112-.807.399-1.321,1.742-1.332,1.95.111.406,1.225,1.143,1.59,1.385,1.135.751,1.904,1.301,2.354,1.682.631.534,6.957,4.964,7.947,5.004.02,0,.04.005.059.011.379.135.711-.207.878-.422.524-.671.797-1.883.352-2.549-.48-.719-2.871-1.578-4.791-2.269-1.719-.618-2.788-1.014-3.112-1.359-.168-.179-.19-.492-.218-.887-.016-.239-.035-.51-.091-.76l-.045-.195c-.13-.57-.254-1.108-.587-1.32-.184-.117-.341-.237-.482-.345-.219-.167-.384-.294-.548-.331-.133.113-.146.174-.146.192-.003.075.15.208.285.325.098.086.203.178.299.282.003.003.005.006.008.008.152.171.065.383-.019.587-.101.245-.226.55-.085.925.039.103-.013.219-.117.258-.104.039-.219-.014-.258-.117-.196-.523-.024-.941.09-1.218.023-.055.052-.125.065-.171-.275-.153-.87-.484-.937-.53-.242-.166-.476-.248-.704-.248Z"/><path class="cls-2" d="M180.766,125.886c-.231-.3-1.016.093-1.032.093,0,0,.287.52.498.776.211.256.461.652.982.441.52-.212-.217-1.009-.447-1.31Z"/><path class="cls-4" d="M180.933,127.456c-.396,0-.641-.307-.802-.507l-.054-.067c-.22-.267-.506-.785-.519-.806-.034-.062-.033-.137.003-.199.024-.042.063-.073.108-.088.258-.111.959-.411,1.255-.026l.096.12c.346.427.648.839.56,1.182-.026.1-.097.236-.292.314-.13.053-.249.076-.356.076ZM180.022,126.078c.1.169.247.406.364.55l.058.072c.222.277.373.442.694.311.049-.02.053-.037.055-.044.046-.177-.339-.652-.484-.831l-.102-.128h0s-.093-.113-.585.07Z"/><path class="cls-2" d="M180.566,126.729c-.258-.3-.72-.611-1.083-.911-.206-.002-1.042.256-1.221.58-.079.143.08.613.037,1.01-.039.352,1.074-.335,1.221-.191.263.258,1.247-.183,1.045-.488Z"/><path class="cls-4" d="M178.406,127.709c-.078,0-.145-.019-.202-.063-.077-.059-.115-.155-.103-.261.019-.173-.008-.373-.031-.55-.031-.236-.054-.406.017-.535.23-.414,1.161-.668,1.398-.683.046,0,.09.017.125.046.109.091.228.182.347.274.279.215.568.438.76.661.005.006.01.013.015.02.093.141.102.366-.154.577-.286.236-.854.418-1.151.203-.085.013-.273.085-.401.135-.253.097-.459.176-.62.176ZM179.419,126.023c-.249.038-.87.269-.981.471-.006.03.014.18.029.289.02.15.043.33.04.508.11-.03.269-.091.376-.132.374-.143.621-.238.778-.087.017.018.114.039.288-.005.223-.058.393-.179.436-.242-.166-.183-.423-.38-.671-.572-.1-.077-.201-.155-.295-.231Z"/><path class="cls-2" d="M178.727,126.667c-.172.149-.6.608-.487.846.189.4.208.96.126,1.131l.865-.966c.349.482.748.296,1.018.066.256-.218-.355-.739-.536-.946-.432-.493-.781-.309-.986-.131Z"/><path class="cls-4" d="M178.366,128.844c-.03,0-.059-.006-.087-.02-.1-.048-.141-.168-.093-.267.05-.102.043-.603-.126-.959-.201-.424.461-1.017.537-1.082.415-.363.867-.309,1.268.15.03.034.072.077.121.126.295.301.538.572.526.836-.005.106-.05.198-.132.267-.25.213-.494.307-.734.278-.218-.026-.411-.154-.575-.379-.065-.089-.045-.215.044-.279.091-.066.215-.045.28.044.096.132.196.204.299.217.151.02.316-.091.427-.186-.004-.093-.317-.413-.421-.518-.055-.056-.102-.105-.136-.143-.318-.362-.526-.268-.705-.112-.247.215-.455.527-.436.612.209.441.238,1.063.124,1.301-.035.071-.106.113-.18.113Z"/><path class="cls-2" d="M179.817,127.942c-.296-.182-.68-.578-.927-.372-.248.206-.667,1.022-.667,1.396l.805-.323c.407.261.801.231,1.069,0,.315-.271.016-.52-.28-.702Z"/><path class="cls-4" d="M178.222,129.167c-.111,0-.2-.09-.2-.2,0-.433.447-1.307.739-1.55.31-.259.686.015.959.215.07.051.137.101.201.14.226.139.487.333.507.6.009.107-.02.267-.202.424-.352.302-.853.309-1.307.017-.093-.06-.12-.184-.06-.276.059-.093.184-.12.276-.061.31.198.612.204.831.017.041-.036.066-.07.064-.089-.002-.023-.03-.113-.318-.291-.072-.044-.148-.1-.227-.158-.149-.108-.4-.289-.467-.23-.21.175-.595.935-.595,1.242,0,.111-.09.2-.2.2Z"/><path class="cls-2" d="M185.699,129.053c-.024-.515.017-1.259-.384-1.544-.65-.461-2.309-.946-2.813-1.056-.803-.175-1.797-.504-2.147-.019-.306.425.378.786.274,1.11-.104.324-.444.438-.412.744.065.617.482.461.547.743.065.282-.158.298.017.663.108.226.302.175.395.283.074.085.102.489.45.502.469.018,1.525.402,2.064.523.232.052,9.281,3.004,10.67,2.597l.812-3.957c-.884-.48-9.456-.247-9.473-.59Z"/><path class="cls-4" d="M194.009,133.835c-1.273,0-4.509-.815-9.839-2.476-.299-.093-.487-.152-.525-.162-.198-.044-.468-.124-.753-.209-.469-.14-1.001-.298-1.274-.309-.39-.015-.515-.352-.575-.514-.01-.028-.018-.053-.028-.07.005.01-.027-.001-.049-.009-.099-.035-.264-.093-.366-.305-.126-.263-.095-.411-.047-.553.02-.061.03-.089.015-.153-.004-.018-.014-.027-.097-.071-.151-.081-.403-.215-.454-.695-.027-.26.121-.427.24-.56.076-.085.147-.165.18-.266.014-.045-.074-.176-.133-.262-.147-.218-.371-.546-.113-.904.379-.527,1.244-.321,2.007-.14.117.028.233.055.345.08.641.14,2.752.906,3.037,1.3.15.208.261.581.311,1.372.422.093,2.164.127,3.714.157,3.106.06,5.179.119,5.661.38.097.053.133.174.08.271-.053.097-.175.132-.272.08-.432-.235-3.348-.291-5.477-.332-3.97-.077-4.085-.128-4.1-.424-.037-.796-.179-1.111-.282-1.341-.129-.288-1.974-.902-2.758-1.074-.114-.025-.232-.053-.352-.081-.641-.152-1.368-.324-1.59-.016-.081.113-.044.205.12.445.12.178.256.379.182.609-.059.182-.172.309-.262.411-.108.121-.149.175-.141.252.028.268.119.317.244.384.107.057.253.135.299.335.04.174.002.287-.026.369-.026.076-.038.114.028.252.031.063.062.075.138.101.066.023.157.055.228.138.043.05.065.11.091.18.064.175.109.249.215.253.324.012.857.171,1.374.325.275.082.535.16.727.203.032.007.232.069.556.17,7.331,2.285,9.49,2.582,10.014,2.43.107-.031.218.03.248.136.031.106-.03.217-.136.248-.1.03-.236.044-.407.044Z"/><path class="cls-2" d="M197,142.515s9.284-8.567,15.286-12.169c6.002-3.601,10.592-2.773,10.592-2.773.8-.46,1.789-.464,2.589-.004l-9.664-5.582c-.804-.464-1.797-.464-2.601,0,0,0-4.59-.828-10.592,2.773-6.002,3.601-15.286,12.169-15.286,12.169-.928.536-1.501,1.525-1.501,2.597v6.226l9.676,5.586v-6.226c0-1.072.572-2.061,1.501-2.597Z"/><path class="cls-4" d="M195.499,151.538c-.035,0-.069-.009-.1-.027l-9.676-5.586c-.062-.036-.1-.102-.1-.173v-6.226c0-1.139.613-2.2,1.601-2.77.057-.06,9.332-8.597,15.283-12.167,5.662-3.398,10.027-2.905,10.658-2.81.852-.463,1.895-.451,2.737.035l9.664,5.581s0,0,0,0h0c.095.055.128.178.073.273-.056.096-.18.128-.273.074h0c-.736-.422-1.651-.421-2.389.004-.041.024-.088.032-.135.024-.046-.007-4.594-.768-10.454,2.748-5.916,3.549-15.16,12.059-15.253,12.144-.011.01-.023.019-.035.026-.864.499-1.401,1.428-1.401,2.424v6.226c0,.071-.038.137-.1.173-.031.018-.065.027-.1.027ZM186.023,145.637l9.275,5.355v-5.88c0-1.131.606-2.186,1.581-2.759.443-.407,9.469-8.679,15.303-12.179,5.662-3.398,10.027-2.906,10.658-2.81.401-.217.844-.33,1.288-.337l-8.426-4.867c-.739-.427-1.66-.428-2.401,0-.041.023-.089.032-.135.023-.046-.008-4.593-.768-10.454,2.748-5.916,3.55-15.16,12.059-15.253,12.144-.9.525-1.436,1.454-1.436,2.45v6.111ZM197,142.515h.005-.005Z"/><path class="cls-2" d="M255.666,145.004l-30.188-17.431s-.008-.004-.012-.004c-.8-.46-1.789-.456-2.589.004,0,0-4.59-.828-10.592,2.773-6.002,3.601-15.286,12.169-15.286,12.169-.928.536-1.501,1.525-1.501,2.597v6.226l33.177,19.155,28.571-16.494v-6.262c0-1.128-.604-2.169-1.581-2.733Z"/><path class="cls-4" d="M228.676,170.694c-.035,0-.069-.009-.1-.027l-33.177-19.155c-.062-.036-.1-.102-.1-.173v-6.226c0-1.138.613-2.2,1.6-2.77.057-.06,9.332-8.597,15.284-12.167,5.662-3.398,10.027-2.906,10.658-2.81.846-.457,1.876-.45,2.712.023.009.004.017.008.025.012h0s30.188,17.431,30.188,17.431h0c1.037.599,1.68,1.713,1.68,2.906v6.263c0,.071-.038.138-.1.173l-28.571,16.494c-.031.018-.065.027-.1.027ZM195.699,151.223l32.977,19.04,28.371-16.379v-6.147c0-1.051-.567-2.032-1.48-2.56l-30.173-17.422c-.009-.004-.018-.008-.027-.013-.735-.423-1.651-.421-2.39.004-.041.024-.088.032-.135.024-.046-.007-4.594-.768-10.454,2.748-5.915,3.549-15.16,12.059-15.253,12.144-.9.525-1.436,1.454-1.436,2.45v6.111Z"/><path class="cls-4" d="M226.981,162.364c-.034,0-.068-.009-.1-.027l-39.402-22.749c-.096-.055-.129-.178-.074-.273.055-.096.179-.129.273-.073l39.402,22.748c.096.056.129.177.074.273-.037.064-.104.1-.173.1Z"/><path class="cls-4" d="M228.677,168.325c-.11,0-.2-.089-.2-.2l-.018-4.885c-.015-.083.024-.166.097-.208l26.937-15.552c.094-.055.218-.023.273.073.055.096.022.218-.074.273l-26.819,15.484.003,4.814c0,.111-.09.2-.2.2Z"/><path class="cls-4" d="M231.128,137.458c-.031,0-.063-.007-.092-.023-1.113-.58-1.921-.984-2.542-1.295q-2.086-1.044-4.335-3.026c-.389-.343-.846-.746-1.394-1.224-.807-.705-1.607-1.461-2.381-2.193-2.543-2.403-5.173-4.888-8.48-5.975-.105-.035-.162-.147-.128-.252.035-.105.147-.163.253-.128,3.392,1.115,6.055,3.631,8.63,6.064.771.729,1.568,1.482,2.37,2.182.548.479,1.006.882,1.395,1.226q2.21,1.947,4.249,2.968c.622.311,1.433.717,2.548,1.298.098.051.136.172.085.27-.036.068-.106.108-.177.108Z"/><polygon class="cls-3" points="259.084 52.04 276.338 62.001 294.416 72.439 294.416 101.045 293.031 101.845 276.058 92.046 274.953 91.408 274.672 91.246 257.699 81.446 257.699 52.84 259.084 52.04"/><line class="cls-11" x1="262.678" y1="56.426" x2="269.658" y2="68.515"/><line class="cls-11" x1="260.052" y1="54.91" x2="267.032" y2="66.999"/><line class="cls-11" x1="285.098" y1="69.614" x2="292.077" y2="81.704"/><line class="cls-11" x1="282.472" y1="68.098" x2="289.452" y2="80.187"/><g id="Axo_Compound_Extrusion"><g id="Axo_Extrusion-8"><g id="Axo_Inversion"><g id="Axo_Surface-9"><polygon id="Axo_panel-13" class="cls-3" points="257.869 80.861 257.869 53.745 259.361 52.883 259.361 79.999 257.869 80.861"/><polygon id="Axo_panel-14" class="cls-3" points="274.566 90.5 257.869 80.861 259.361 79.999 276.058 89.639 274.566 90.5"/></g></g><g id="Axo_Inversion-2"><g id="Axo_Surface-10"><polygon id="Axo_panel-15" class="cls-3" points="276.058 91.362 276.058 64.246 277.55 63.385 277.55 90.5 276.058 91.362"/><polygon id="Axo_panel-16" class="cls-3" points="292.754 101.002 276.058 91.362 277.55 90.5 294.247 100.14 292.754 101.002"/></g></g><g id="Axo_Surface-11"><polygon id="Axo_panel-17" class="cls-3" points="294.34 72.953 294.34 103.766 295.832 102.905 295.832 72.091 294.34 72.953"/></g><g id="Axo_Surface_-5"><polygon id="Axo_panel-18" class="cls-3" points="256.283 50.981 274.867 61.71 294.34 72.953 295.832 72.091 276.359 60.849 257.775 50.119 256.283 50.981"/></g></g><g id="Axo_compound_cap"><path id="Axo_Compound" class="cls-3" d="M292.754,101.002v-27.116l-16.697-9.64v27.116l16.697,9.64ZM257.869,80.861l16.697,9.64v-27.116l-16.697-9.64v27.116ZM256.283,50.981l18.584,10.73,19.473,11.243v30.813l-18.283-10.555h0l-1.19-.687-.302-.174h0l-18.283-10.555v-30.813Z"/></g></g><path class="cls-2" d="M297.012,72.674v35.479l-.015.01c-1.286.46-2.529-.6-2.994-.775-1.25-.475-1.833.038-3.349-.833-1.771-1.015-1.273-1.883-3.044-2.899-1.768-1.015-2.266-.148-4.034-1.163-1.771-1.015-1.273-1.883-3.041-2.899-1.768-1.015-2.266-.148-4.037-1.163-1.768-1.015-1.27-1.881-3.039-2.896-1.771-1.015-2.268-.148-4.037-1.163-1.771-1.015-1.27-1.883-3.041-2.899-1.768-1.015-2.266-.148-4.034-1.16-1.771-1.015-1.273-1.883-3.041-2.899-1.768-1.015-2.266-.148-4.037-1.163-1.768-1.015-1.27-1.883-3.039-2.896,0,0,2.148-1.551,2.476-5.157.328-3.609.8-29.486.8-29.486l.45.26s.005.002.007.005c1.256.898.995,1.696,2.598,2.614,1.546.888,2.121.338,3.421.86.002.002.005.002.005.002l1.198.693c1.088.853.913,1.623,2.451,2.506,1.491.853,2.078.375,3.284.805.002.002.005.002.008.002l1.448.838c.963.818.855,1.563,2.336,2.413,1.451.833,2.046.4,3.186.775l1.628.94s.005.003.007.005c.878.788.82,1.516,2.256,2.341,1.406.805,2.008.423,3.086.743l1.808,1.043c.8.763.785,1.473,2.181,2.273,1.373.788,1.981.443,3.006.72l1.948,1.125c.743.74.763,1.436,2.123,2.216,1.335.765,1.946.46,2.926.698l.14.083Z"/><path class="cls-4" d="M296.327,108.478c-.808,0-1.535-.422-2.013-.7-.158-.091-.294-.171-.38-.203-.494-.188-.873-.213-1.274-.239-.58-.038-1.18-.077-2.104-.608-.925-.53-1.262-1.029-1.588-1.51-.314-.465-.61-.903-1.456-1.388-.843-.485-1.371-.519-1.93-.555-.579-.038-1.179-.077-2.104-.608-.926-.531-1.262-1.029-1.588-1.511-.314-.464-.61-.903-1.454-1.387-.843-.485-1.372-.519-1.93-.555-.58-.038-1.18-.077-2.106-.608-.924-.531-1.26-1.028-1.585-1.509-.313-.464-.609-.902-1.453-1.387-.845-.485-1.374-.519-1.933-.555-.58-.038-1.179-.077-2.104-.608-.926-.531-1.262-1.029-1.587-1.511-.313-.465-.609-.903-1.454-1.388-.845-.485-1.372-.519-1.932-.555-.579-.037-1.179-.076-2.102-.605-.927-.531-1.263-1.03-1.589-1.512-.314-.464-.61-.903-1.453-1.387-.844-.485-1.372-.519-1.931-.555-.58-.038-1.18-.077-2.106-.608-.924-.531-1.26-1.029-1.585-1.51-.313-.464-.61-.903-1.453-1.386-.059-.034-.097-.095-.1-.163-.004-.068.027-.133.082-.173.02-.015,2.079-1.549,2.394-5.013.323-3.56.795-29.213.799-29.472.001-.071.04-.135.102-.171.062-.035.137-.034.199.001l.45.26h0c.022.012.042.028.057.045.559.394.832.797,1.096,1.188.313.463.608.901,1.452,1.385.846.486,1.374.52,1.933.556.432.028.878.057,1.464.292.006.002.012.005.017.008.005.002.009.004.013.007l1.198.693c.509.397.756.763.995,1.117.313.465.609.903,1.455,1.389.846.484,1.374.518,1.934.554.394.026.802.052,1.317.236,0,0,.001,0,.002,0,.013.004.026.01.038.017l1.448.838c.437.367.663.702.881,1.025.313.464.609.903,1.454,1.388.845.485,1.372.519,1.932.556.368.024.749.049,1.218.203l1.665.957c.013.007.025.016.037.025.361.324.571.634.774.934.314.464.611.903,1.453,1.387.842.483,1.37.517,1.929.554.34.022.692.045,1.114.171l1.851,1.061c.347.323.539.608.726.885.314.465.61.904,1.455,1.388.846.485,1.374.519,1.933.555.316.021.643.042,1.026.145.017.005.033.011.048.02l1.948,1.125c.014.009.028.019.041.031.274.273.454.54.629.798.313.464.61.903,1.454,1.387.845.485,1.374.519,1.933.555.292.019.593.038.94.122.019.004.037.012.055.022l.14.082c.061.036.099.102.099.173v35.479c0,.067-.033.129-.088.166-.014.009-.044.027-.06.032-.25.09-.497.127-.737.127ZM252.576,83.33c.742.475,1.046.925,1.341,1.361.313.464.609.903,1.453,1.387.845.484,1.373.519,1.932.555.58.038,1.18.077,2.104.608.923.53,1.26,1.028,1.585,1.51.314.465.61.904,1.457,1.389.843.483,1.37.517,1.929.553.58.038,1.18.076,2.106.608.925.531,1.261,1.029,1.586,1.511.313.465.609.903,1.455,1.388.843.484,1.371.519,1.93.555.58.038,1.18.077,2.106.608.924.531,1.26,1.028,1.585,1.509.313.464.609.902,1.453,1.387.845.484,1.373.519,1.933.555.579.038,1.179.077,2.104.608.924.53,1.26,1.029,1.586,1.51.314.465.61.903,1.455,1.388.844.484,1.372.519,1.93.555.58.038,1.179.077,2.104.608.926.531,1.262,1.029,1.588,1.511.314.465.61.903,1.455,1.388.844.485,1.372.519,1.931.556.413.027.841.055,1.39.264.117.044.259.127.44.231.571.332,1.422.826,2.298.58v-35.223l-.016-.009c-.301-.07-.564-.087-.843-.105-.581-.037-1.181-.076-2.107-.607-.924-.53-1.26-1.028-1.586-1.51-.166-.247-.324-.48-.561-.72l-1.903-1.099c-.334-.088-.62-.106-.922-.126-.58-.037-1.18-.076-2.106-.608-.925-.53-1.262-1.029-1.587-1.511-.183-.271-.355-.526-.632-.791l-1.77-1.014c-.336-.094-.651-.115-.984-.137-.579-.038-1.179-.077-2.102-.606-.923-.531-1.26-1.028-1.585-1.51-.195-.288-.38-.561-.691-.844l-1.615-.933c-.383-.122-.722-.144-1.081-.167-.58-.038-1.18-.077-2.105-.608-.925-.531-1.262-1.03-1.586-1.511-.212-.315-.413-.612-.779-.923l-1.403-.808c-.458-.162-.819-.186-1.2-.21-.581-.038-1.18-.077-2.107-.606-.926-.532-1.262-1.03-1.588-1.512-.232-.343-.451-.668-.888-1.01l-1.165-.671c-.521-.207-.914-.233-1.33-.26-.581-.038-1.18-.077-2.106-.608-.925-.529-1.26-1.027-1.585-1.508-.255-.377-.495-.733-1.026-1.114l-.151-.087c-.057,3.065-.491,25.812-.794,29.161-.272,2.994-1.754,4.596-2.331,5.114Z"/><path class="cls-4" d="M261.986,52.651c-.025,0-.05-.005-.075-.015-.526-.211-.922-.237-1.341-.264-.58-.038-1.18-.077-2.106-.608h0c-.925-.53-1.261-1.027-1.586-1.508-.255-.378-.496-.735-1.03-1.116-.086-.062-.11-.181-.052-.271.059-.09.176-.118.268-.065l6.02,3.474c.091.053.126.166.08.261-.034.071-.106.113-.18.113ZM257.092,49.858c.041.058.079.116.119.174.313.463.608.901,1.452,1.385,0,0,0,0,0,0,.845.486,1.373.52,1.933.556.06.004.121.008.182.012l-3.687-2.127Z"/><path class="cls-4" d="M268.923,56.658c-.023,0-.045-.004-.067-.012-.462-.165-.825-.188-1.209-.213-.581-.038-1.18-.077-2.107-.606,0,0,0,0,0,0-.926-.531-1.262-1.03-1.587-1.512-.232-.343-.451-.668-.888-1.01-.082-.065-.101-.182-.042-.269.059-.088.175-.114.266-.061l5.734,3.311c.09.052.125.163.082.257-.034.072-.106.116-.182.116ZM265.739,55.479c.846.483,1.374.518,1.934.554.043.003.086.006.13.009l-3.608-2.084c.031.044.06.088.09.132.313.465.609.903,1.455,1.389h0Z"/><path class="cls-4" d="M275.901,60.687c-.021,0-.042-.003-.063-.01-.42-.138-.759-.16-1.118-.184-.58-.038-1.18-.077-2.105-.608-.925-.531-1.262-1.03-1.586-1.511-.212-.315-.413-.612-.779-.923-.079-.067-.094-.183-.034-.268.06-.085.173-.11.263-.058l5.522,3.189c.089.051.125.161.083.255-.033.074-.106.118-.183.118ZM271.301,58.061c.02.029.04.059.06.088.313.464.609.903,1.454,1.388h0c.845.485,1.372.519,1.932.556.028.002.056.004.084.006l-3.529-2.038Z"/><path class="cls-4" d="M282.879,64.716c-.019,0-.038-.003-.057-.008-.379-.112-.694-.133-1.027-.155-.579-.038-1.179-.077-2.102-.606h0c-.923-.531-1.259-1.028-1.585-1.51-.198-.293-.385-.569-.705-.856-.077-.068-.089-.183-.028-.266.06-.083.173-.108.262-.056l5.342,3.084c.088.05.124.159.084.252-.032.075-.106.121-.184.121ZM279.893,63.6c.843.483,1.37.517,1.929.554.011,0,.022.001.033.002l-3.447-1.99c.01.016.021.031.032.047.314.464.611.903,1.453,1.387h0Z"/><path class="cls-4" d="M289.874,68.752c-.017,0-.035-.002-.052-.007-.345-.093-.637-.112-.947-.132-.58-.037-1.18-.076-2.106-.608h0c-.925-.53-1.262-1.029-1.587-1.511-.183-.271-.355-.526-.632-.791-.073-.07-.083-.184-.022-.264.061-.081.173-.104.26-.053l5.187,2.994c.087.05.124.157.085.25-.032.076-.106.123-.185.123ZM285.509,66.264s.002.004.004.006c.314.465.61.904,1.455,1.388h0c.838.481,1.364.519,1.918.555l-3.376-1.949Z"/><path class="cls-4" d="M296.872,72.792c-.016,0-.031-.002-.047-.006-.313-.076-.584-.093-.871-.112-.581-.037-1.181-.076-2.107-.607-.924-.53-1.26-1.028-1.586-1.51-.171-.253-.332-.492-.579-.738-.071-.071-.079-.184-.018-.263.061-.079.173-.102.259-.052l5.049,2.914c.086.05.123.155.086.248-.031.077-.106.126-.186.126ZM292.613,70.365c.306.453.608.883,1.432,1.355.813.466,1.334.515,1.87.55l-3.302-1.906Z"/><path class="cls-4" d="M289.234,105.214c-.032,0-.064-.008-.095-.024-.097-.052-.134-.174-.082-.271,1.679-3.12,2.022-16.18,2.025-16.311v-19.021c0-.111.089-.2.2-.2s.2.09.2.2v19.026c-.013.546-.349,13.292-2.073,16.496-.037.067-.105.105-.176.105Z"/><path class="cls-4" d="M281.996,100.908c-.032,0-.065-.008-.095-.024-.097-.052-.133-.174-.081-.271,1.679-3.118,2.024-16.18,2.027-16.311v-18.891c0-.11.09-.2.2-.2.111,0,.2.09.2.2v18.896c-.013.546-.351,13.295-2.075,16.496-.037.067-.105.105-.176.105Z"/><path class="cls-4" d="M274.758,96.603c-.032,0-.065-.008-.095-.024-.097-.052-.133-.174-.081-.271,1.681-3.12,2.024-16.18,2.027-16.311v-18.766c0-.111.09-.2.2-.2.111,0,.2.09.2.2v18.771c-.013.546-.349,13.292-2.075,16.496-.037.067-.106.105-.176.105Z"/><path class="cls-4" d="M267.52,92.296c-.032,0-.065-.008-.095-.024-.097-.053-.133-.174-.081-.271,1.681-3.118,2.024-16.18,2.027-16.311v-18.638c0-.11.09-.2.2-.2s.2.09.2.2v18.643c-.013.546-.349,13.295-2.075,16.496-.037.067-.106.105-.176.105Z"/><path class="cls-4" d="M260.285,87.993c-.032,0-.064-.008-.095-.024-.097-.053-.134-.174-.082-.271,1.678-3.12,2.023-17.433,2.027-17.578v-17.244c0-.11.09-.2.2-.2.111,0,.2.09.2.2v17.249c-.013.597-.351,14.558-2.074,17.763-.036.067-.105.105-.176.105Z"/><polygon id="Axo_panel-19" class="cls-2" points="296.515 74.336 296.515 76.531 299.452 74.835 299.452 72.64 296.515 74.336"/><path class="cls-4" d="M296.515,76.731c-.035,0-.069-.009-.1-.027-.062-.036-.1-.102-.1-.173v-2.195c0-.071.038-.138.1-.173l2.937-1.696c.061-.036.138-.036.2,0,.062.036.1.102.1.173v2.195c0,.071-.038.137-.1.173l-2.937,1.696c-.031.018-.065.027-.1.027ZM296.715,74.451v1.733l2.537-1.465v-1.733l-2.537,1.465Z"/><polygon id="Axo_panel-20" class="cls-15" points="253.825 49.689 296.515 74.336 299.452 72.64 256.762 47.993 253.825 49.689"/><path class="cls-4" d="M296.515,74.536c-.035,0-.069-.009-.1-.027l-42.69-24.647c-.062-.036-.1-.102-.1-.173s.038-.138.1-.173l2.937-1.696c.061-.036.138-.036.2,0l42.69,24.647c.062.036.1.102.1.173s-.038.137-.1.173l-2.937,1.696c-.031.018-.065.027-.1.027ZM254.225,49.689l42.29,24.416,2.537-1.465-42.29-24.416-2.537,1.465Z"/><polygon id="Axo_base-9" class="cls-2" points="253.825 49.689 253.825 51.884 296.515 76.531 296.515 74.336 253.825 49.689"/><path class="cls-4" d="M296.515,76.731c-.035,0-.069-.009-.1-.027l-42.69-24.647c-.062-.036-.1-.102-.1-.173v-2.195c0-.071.038-.138.1-.173.062-.036.138-.036.2,0l42.69,24.647c.062.036.1.102.1.173v2.195c0,.071-.038.137-.1.173-.031.018-.065.027-.1.027ZM254.025,51.769l42.29,24.416v-1.733l-42.29-24.416v1.733Z"/><path class="cls-14" d="M186.604,121.555s.543-.174.767-.918"/><path class="cls-14" d="M185.69,121.259c-.002-.282.153-1.005,1.132-1.377"/><path class="cls-14" d="M188.545,122.864c-.051.419-.339.885-.611,1.07"/><text class="cls-6" transform="translate(187.978 111.274) rotate(4.986) scale(.999 .95) skewX(-.69)"><tspan x="0" y="0">Z</tspan></text><text class="cls-7" transform="translate(187.823 113.508) rotate(21.125) scale(1.001 .95) skewX(-.181)"><tspan x="0" y="0">Z</tspan></text><text class="cls-5" transform="translate(189.609 107.85) rotate(11.951) scale(.999 .95) skewX(.012)"><tspan x="0" y="0">Z</tspan></text></g></svg>