<?xml version="1.0" encoding="UTF-8"?><svg id="_レイヤー_2" xmlns="http://www.w3.org/2000/svg" viewBox="0 0 88 90"><defs><style>.cls-1{fill:#ed5f42;}.cls-2{fill:#5b4c4c;}.cls-3{fill:#fff05b;}.cls-4{fill:#fff;}</style></defs><g id="_レイヤー_1-2"><g id="_お金01"><path class="cls-3" d="M3.438,52.091s-8.448-15.059,15.312-30.381c0,0,22.967-19.021,48.443-1.453,0,0,27.588,18.889,15.972,31.834,0,0-16.368-27.475-37.223-23.776,0,0-22.176-4.755-42.504,23.776Z"/><path class="cls-2" d="M3.239,55.783l-1.527-2.723c-.1-.178-2.434-4.43-1.485-10.71,1.223-8.101,7.064-15.585,17.358-22.246,1.204-.969,11.964-9.277,26.86-9.277,8.336,0,16.368,2.624,23.871,7.798.734.503,18.127,12.539,19.584,24.673.455,3.793-.642,7.197-3.262,10.117l-1.797,2.002-1.377-2.311c-.169-.281-14.048-23.152-31.633-23.152-1.183,0-2.376.105-3.544.312l-.382.067-.379-.081s-1.25-.253-3.368-.253c-6.178,0-22.163,2.265-37.108,23.242l-1.811,2.542h0ZM49.831,25.991c16.269,0,28.983,16.146,33.386,22.549.713-1.46.959-3.036.752-4.765-1.239-10.352-17.728-21.768-17.894-21.882-6.835-4.714-14.111-7.102-21.63-7.102-14.013,0-24.332,8.364-24.435,8.448l-.188.137C4.392,33.326,3.378,42.937,4.162,47.812c6.253-7.989,13.234-13.888,20.792-17.564,7.158-3.481,13.307-4.211,17.205-4.211,1.864,0,3.168.166,3.793.267,1.281-.208,2.584-.313,3.879-.313h0Z"/><path class="cls-1" d="M83.598,59.884c0,19.478-17.729,28.135-39.599,28.135S4.4,79.361,4.4,59.884,22.129,21.842,43.999,21.842s39.599,18.564,39.599,38.042Z"/><path class="cls-2" d="M43.999,90c-11.804,0-21.856-2.447-29.07-7.077-8.184-5.252-12.509-13.219-12.509-23.039,0-21.321,19.429-40.023,41.579-40.023s41.579,18.702,41.579,40.023c0,9.82-4.326,17.787-12.509,23.039-7.214,4.63-17.266,7.077-29.07,7.077h0ZM43.999,23.823c-20.04,0-37.619,16.851-37.619,36.06,0,16.377,14.063,26.154,37.619,26.154s37.619-9.777,37.619-26.154c0-19.21-17.579-36.06-37.619-36.06h0Z"/><path class="cls-3" d="M42.544,5.199c1.531,2.653,1.237,5.691-.657,6.785-1.894,1.094-4.67-.169-6.201-2.823-1.531-2.654-1.237-5.692.657-6.786,1.894-1.094,4.67.169,6.201,2.823Z"/><path class="cls-2" d="M40.372,14.359c-2.413,0-4.926-1.651-6.401-4.207-2.109-3.656-1.502-7.826,1.382-9.493.757-.438,1.6-.659,2.505-.659,2.414,0,4.927,1.652,6.401,4.208.945,1.638,1.375,3.47,1.211,5.159-.185,1.908-1.13,3.487-2.594,4.333-.757.438-1.6.659-2.505.659h0ZM37.858,3.963c-.204,0-.375.042-.525.129-.81.468-.952,2.312.067,4.079.883,1.529,2.159,2.226,2.972,2.226.204,0,.375-.042.525-.129.486-.28.604-.991.632-1.283.084-.861-.171-1.88-.699-2.796-.883-1.53-2.159-2.227-2.972-2.227h0Z"/><path class="cls-3" d="M52.312,9.161c-1.53,2.653-4.307,3.917-6.201,2.823-1.894-1.093-2.188-4.132-.657-6.785,1.531-2.654,4.308-3.918,6.201-2.823,1.894,1.094,2.189,4.132.658,6.786Z"/><path class="cls-2" d="M47.626,14.359c-.905,0-1.748-.222-2.505-.659-1.463-.845-2.409-2.424-2.594-4.333-.164-1.689.266-3.522,1.212-5.159,1.474-2.556,3.987-4.208,6.401-4.208.905,0,1.748.222,2.505.659,2.885,1.666,3.492,5.836,1.382,9.493-1.475,2.556-3.987,4.207-6.401,4.207h0ZM50.14,3.963c-.813,0-2.089.697-2.972,2.227-.528.915-.783,1.934-.7,2.796.029.292.147,1.003.632,1.283.15.087.322.129.526.129.812,0,2.089-.697,2.971-2.226,1.02-1.768.877-3.612.067-4.079-.15-.086-.321-.129-.525-.129h0Z"/><path class="cls-4" d="M16.089,67.809c-1.027,0-1.895-.793-1.972-1.835-.554-7.481,2.625-16.067,2.76-16.429.384-1.025,1.525-1.544,2.549-1.159,1.024.384,1.543,1.526,1.159,2.551-.048.128-3.006,8.164-2.519,14.745.081,1.091-.738,2.041-1.828,2.122-.05.004-.099.005-.148.005h0Z"/><path class="cls-4" d="M24.011,42.58c0,1.459-1.182,2.642-2.64,2.642s-2.64-1.183-2.64-2.642,1.182-2.642,2.64-2.642,2.64,1.183,2.64,2.642Z"/><path class="cls-4" d="M39.955,67.856v-7.323h-7.562v-3.539h7.562v-2.97h-7.562v-3.54h5.57l-8.05-13.019h8.782l3.09,6.876c.895,1.953,1.423,3.539,2.114,5.289h.041c.732-1.627,1.342-3.458,2.154-5.289l3.171-6.876h8.822l-8.863,13.019h5.692v3.54h-7.562v2.97h7.562v3.539h-7.562v7.323h-7.399Z"/></g></g></svg>