<?xml version="1.0" encoding="UTF-8"?><svg id="_レイヤー_2" xmlns="http://www.w3.org/2000/svg" viewBox="0 0 470 240"><defs><style>.cls-1{opacity:.2;}.cls-1,.cls-2,.cls-3{fill:#fff;}.cls-4{stroke-miterlimit:10;stroke-width:.3px;}.cls-4,.cls-5,.cls-6,.cls-7,.cls-8{stroke:#231815;}.cls-4,.cls-9{fill:#a7c7d3;}.cls-10,.cls-6{fill:#231815;}.cls-5{stroke-width:.4px;}.cls-5,.cls-11,.cls-6,.cls-3,.cls-7,.cls-8{stroke-linecap:round;stroke-linejoin:round;}.cls-5,.cls-11,.cls-7,.cls-8{fill:none;}.cls-12{fill:#f8bc42;}.cls-13{fill:#f9bc42;}.cls-14{fill:#13222a;}.cls-11,.cls-3{stroke:#040000;stroke-width:.28px;}.cls-6{stroke-width:.1px;}.cls-15{fill:#7eaac8;}.cls-16{fill:#123a44;}.cls-17{fill:#e7e6e5;}.cls-7{stroke-width:.5px;}.cls-18{fill:#dfdfdf;}.cls-8{stroke-width:.25px;}.cls-19{fill:#ebc844;}.cls-20{fill:#f4eee2;}.cls-21{fill:#f2ad34;}</style></defs><g id="_レイヤー_1-2"><rect class="cls-20" width="470" height="240"/><polygon class="cls-14" points="173.039 144.378 171.242 151.835 168.928 150.378 162.044 141.15 167.739 140.49 173.039 144.378"/><path class="cls-14" d="M100.592,179.561c8.764-4.247,10.233,2.442,9.744,7.31l-1.002-.534c.139-.862.205-1.746.205-2.638,0-2.64-2.164-4.539-4.539-4.539-.709,0-1.448.175-2.143.548l-.979.526c-5.578,2.997-9.079,8.794-9.137,15.124l-.008.161c-.007,1.024,2.786,3.669,3.312,4.407,0,0-3.614-.781-5.578-3.618-2.687-3.881,3.764-13.662,10.125-16.747Z"/><path class="cls-14" d="M155.662,146.874c4.555-3.815,6.385-4.827,8.254-4.291,3.901,1.119,4.776,2.965,4.776,2.965-.856-1.001-2.128-1.608-3.466-1.608-.716,0-1.447.176-2.141.548l-.988.526c-5.57,2.998-9.079,8.794-9.137,15.117v.168c-.007,1.024,2.185,3.454,2.711,4.193,0,0-2.116-1.147-3.603-1.977-2.914-1.629-2.878-2.33-2.878-2.33,0,0,2.292-9.203,3.77-10.523.643-.892,2.673-2.758,2.702-2.787Z"/><path class="cls-21" d="M39.846,167.851c-.044,4.84.315,11.711.315,11.711,0,0,7.799,15.191,40.452,21.36,0,0,7.062-.892,9.744-1.864,0,0,.11-1.148.454-2.902.899-4.635,3.42-13.509,9.781-16.594,8.764-4.247,10.233,2.442,9.744,7.31l34.831-19.444,4.591-1.704s-.11-9.576,5-16.666c.007,0,.007-.014.007-.014.651-.958,1.374-1.835,2.193-2.53.395-.387.819-.753,1.256-1.103,7.472-5.907,10.658-3.151,12.019.402l.007.007c1.053,2.771,1.002,6.016,1.002,6.016l3.165-1.951s7.069-10.234.98-17.054c-.402-.454-.789-.877-1.148-1.279-3.648-4.05-7.836-7.558-12.47-10.424-9.386-5.804-26.148-16.126-28.063-16.996-2.683-1.221-7.675-1.506-7.675-1.506l-4.014-.073v.073s2.296,1.988,2.296,1.988l33.903,18.114s5.703,1.257,3.999,7.595c-2.559,4.569-15.694,12.712-15.694,12.712l-1.828,1.009.008.007s1.724,3.502,2.105,5.812c0,0-3.626,8.114-3.019,12.917l-28.465,15.387-1.425-9.305-2.997-5.994c-.081-.022-.162-.051-.241-.079h-.008l-.812.446c-6.082,1.03-12.792,1.542-12.792,1.542,0,0-2.069,3.633-8.772,7.888-4.209,2.661-17.164,7.88-17.164,7.88,0,0-4.634,4.138-15.051-2.244-5.636-3.458-7.632-6.893-8.311-9.196l-2.004.168c.204.702.336,1.126.336,1.126-.57,2.573-4.079.197-6.155-2.544h-.081ZM70.116,185.197s2.654-1.118,6.323-3.239c3.669-2.119,8.056-3.72,8.787-2.193.731,1.528-2.193,7.31-5.607,7.713-3.406.395-10.964-.088-9.502-2.281ZM45.16,175.666s5.483,6.338,21.316,13.158v4.627s-15.606-6.578-21.316-12.909v-4.876Z"/><path class="cls-12" d="M99.056,164.598c2.445-.228,6.746-.682,10.782-1.366l.812-.446h.008c.08.028.161.058.241.079l2.997,5.994,1.425,9.305,28.465-15.387c-.607-4.802,3.019-12.917,3.019-12.917-.381-2.31-2.105-5.812-2.105-5.812l-.008-.007,1.828-1.009s13.136-8.144,15.694-12.712c1.704-6.337-3.999-7.595-3.999-7.595l-33.903-18.114-2.296-1.988v-.073l4.014.073s4.993.285,7.675,1.506c1.915.87,18.677,11.192,28.063,16.996,4.635,2.866,8.822,6.374,12.47,10.424.359.402.745.826,1.148,1.279,6.09,6.82-.98,17.054-.98,17.054l-3.165,1.951s.051-3.245-1.002-6.016l-.007-.007c-1.36-3.553-4.547-6.309-12.019-.402-.438.35-.862.716-1.256,1.103-.819.695-1.542,1.571-2.193,2.536,0,0,0,.008-.007.008-5.11,7.09-5,16.666-5,16.666l-4.591,1.704-34.831,19.444c.489-4.869-.98-11.557-9.744-7.31-6.36,3.085-8.881,11.959-9.781,16.594-.344,1.754-.454,2.902-.454,2.902-2.01.728-6.477,1.411-8.591,1.708-.046-6.086,1.094-11.974,4.314-17.383,1.958-3.288,12.915-18.501,12.975-18.785Z"/><path class="cls-16" d="M152.96,160.132v.168c-.007,1.024.307,1.93.833,2.669,1.28,1.791,3.816,2.543,5.965,1.301l1.331-.767c5.365-3.099,8.669-8.823,8.669-15.022,0-1.147-.409-2.156-1.067-2.931-.856-1.001-2.128-1.608-3.466-1.608-.716,0-1.447.176-2.141.548l-.988.526c-5.57,2.998-9.079,8.794-9.137,15.117ZM156.973,157.398c.036-3.305,1.864-6.331,4.773-7.896l.512-.269c.365-.198.746-.285,1.119-.285,1.243,0,2.368.993,2.368,2.368,0,3.239-1.726,6.228-4.524,7.844l-.695.402c-1.587.914-3.568-.241-3.553-2.076v-.088Z"/><path class="cls-18" d="M161.747,149.502l.512-.269c.365-.198.746-.285,1.119-.285,1.243,0,2.368.993,2.368,2.368,0,3.239-1.726,6.228-4.524,7.844l-.695.402c-1.587.914-3.568-.241-3.553-2.076v-.088c.036-3.305,1.864-6.331,4.773-7.896Z"/><polygon class="cls-9" points="158.215 122.727 148.611 122.727 116.11 103.902 124.824 103.501 158.215 122.727"/><path class="cls-9" d="M154.634,129.54c2.076.65,2.58,3.355.884,4.715-3.012,2.412-5.533,4.306-9.729,6.586l-3.282-12.8,2.543-1.813,9.584,3.312Z"/><path class="cls-13" d="M80.358,119.065c5.585-4.839,18.151-10.205,27.339-14.781,1.638-.818,3.377-1.374,5.168-1.659l4.137,1.988h.008l31.6,18.114h-1.609c-2.807,0-5.562.731-7.997,2.128l-28.194,15.635c-17.792-4.196-28.165-15.183-30.219-17.536l.285-.212c-1.082-1.564-.52-3.677-.52-3.677Z"/><path class="cls-12" d="M116.461,159.584l29.205-16.078s2.563,3.004,2.943,5.314c0,0-5.43,9.155-4.823,13.958l-28.465,15.387-1.425-9.305-2.997-5.994c.526.175,5.782-3.027,5.562-3.282Z"/><path class="cls-10" d="M110.956,162.692l-.418-.139,3.181,6.364,1.461,9.533,28.693-15.51.11-.06-.015-.124c-.592-4.686,4.745-13.75,4.799-13.841l.034-.058-.011-.066c-.384-2.333-2.878-5.28-2.984-5.405l-.098-.114-29.334,16.152-.197.107.072.085c-.557.622-4.827,3.106-5.292,3.076ZM111.175,163.01c1.285-.348,5.135-2.824,5.421-3.25.014-.022.025-.042.034-.061l28.991-15.962c.459.562,2.437,3.074,2.796,5.048-.499.851-5.315,9.203-4.827,13.89l-28.127,15.205-1.387-9.049-2.9-5.822Z"/><path class="cls-9" d="M114.591,142.947l26.271-14.262,2.925,13.677-28.794,15.965c-.3-.19-.636-.366-1.009-.519-1.323-.541-2.42-.643-3.253-.57l.08-6.068,3.78-8.223Z"/><path class="cls-16" d="M117.39,102.464l6.461.088,2.191,1.469-9.608.07.567.523-4.137-1.988c1.484-.249,3.004-.299,4.525-.161Z"/><path class="cls-12" d="M106.425,156.104l2.426,1.703s.665-.467,1.879-.57c.833-.074,1.93.029,3.253.57.373.154.708.33,1.009.519.607.38,1.089.818,1.469,1.257.219.255.41.504.571.752.607.929.094,2.171-.987,2.427-1.023.241-2.347.46-3.677.409-.446-.022-.943-.132-1.469-.307l-.088-.168-.153.089h-.008c-2.632-.95-5.687-3.312-5.687-3.312-1.098-3.202,1.462-3.37,1.462-3.37Z"/><path class="cls-21" d="M117.101,160.477c.475.909-.027,2.043-1.056,2.286-1.023.241-2.347.46-3.677.409-.446-.022-.943-.132-1.469-.307l-.088-.168-.153.089h-.008c-2.632-.95-5.687-3.312-5.687-3.312-.077-.222-.131-.425-.174-.62.105.036.206.074.324.095,4.171.782,8.04,3.037,11.988,1.527Z"/><path class="cls-17" d="M110.899,162.866c-.081-.022-.162-.051-.241-.079l.153-.089.088.168Z"/><path class="cls-15" d="M80.592,122.954c2.054,2.354,12.427,13.341,30.219,17.536l-11.447,21.287s-26.075-3.59-34.847-21.287l15.694-17.982s.125.161.38.446Z"/><path class="cls-1" d="M92.512,132.823c4.215,2.64,9.481,5.23,15.76,7.004-9.525,2.563-19.24,4.4-28.972,6.001-3.297.542-6.597,1.082-9.899,1.616-1.912-2.033-3.588-4.338-4.885-6.954l1.047-1.199c8.976-2.193,17.898-4.635,26.948-6.468Z"/><path class="cls-16" d="M92.741,195.359l-.008.161c-.007,1.024.307,1.93.833,2.669,1.279,1.79,3.816,2.543,5.973,1.301l1.323-.76c4.59-2.654,7.682-7.237,8.472-12.391.139-.862.205-1.746.205-2.638,0-2.64-2.164-4.539-4.539-4.539-.709,0-1.448.175-2.143.548l-.979.526c-5.578,2.997-9.079,8.794-9.137,15.124ZM96.747,192.705l.007-.08c.029-3.312,1.856-6.338,4.766-7.903l.512-.27c.365-.197.745-.285,1.118-.285,1.243,0,2.368.995,2.368,2.369,0,3.239-1.726,6.228-4.525,7.844l-.694.402c-1.587.913-3.567-.242-3.553-2.076Z"/><path class="cls-18" d="M101.52,184.722l.512-.27c.365-.197.745-.285,1.118-.285,1.243,0,2.368.995,2.368,2.369,0,3.239-1.726,6.228-4.525,7.844l-.694.402c-1.587.913-3.567-.242-3.553-2.076l.007-.08c.029-3.312,1.856-6.338,4.766-7.903Z"/><path class="cls-12" d="M60.679,143.677c.622-.446,2.252-2.068,2.252-2.068l.124-.051c1.067,2.727,3.933,8.363,10.6,12.719,12.434,8.122,23.391,10.497,23.391,10.497,0,0-2.069,3.633-8.772,7.888-4.209,2.661-17.164,7.88-17.164,7.88-14.378-5.117-23.64-14.24-23.64-14.24,0,0,7.837-18.764,13.209-22.624Z"/><path class="cls-4" d="M76.44,181.959c3.669-2.119,8.056-3.72,8.787-2.193.731,1.528-2.193,7.31-5.607,7.713-3.406.395-10.964-.088-9.502-2.281,0,0,2.654-1.118,6.323-3.239Z"/><path class="cls-16" d="M64.875,136.923c-1.067,1.346-1.894,2.405-2.361,3.011.022.081.176.68.541,1.623,1.067,2.727,3.933,8.363,10.6,12.719,12.434,8.121,23.391,10.497,23.391,10.497,0,0,6.71-.512,12.792-1.542l.812-.446c-2.632-.95-5.687-3.312-5.687-3.312-1.098-3.202,1.462-3.37,1.462-3.37l2.426,1.703s.665-.467,1.879-.57l.08-6.068,3.78-8.223,26.271-14.262,2.925,13.677-28.794,15.965c.607.38,1.089.818,1.469,1.257l28.231-15.541,1.828-1.009s13.136-8.144,15.694-12.712c1.704-6.337-3.999-7.595-3.999-7.595h-9.604s-1.609,0-1.609,0c-2.807,0-5.562.731-7.997,2.128l-28.194,15.635-11.447,21.287s-26.075-3.59-34.847-21.287l15.694-17.982s.125.161.38.446l.285-.212c-1.082-1.564-.52-3.677-.52-3.677-2.873,2.493-7.829,8.363-11.864,13.326-1.345,1.667-2.595,3.231-3.618,4.532ZM142.507,128.041l2.543-1.813,9.584,3.312c2.076.65,2.58,3.355.884,4.715-3.012,2.412-5.533,4.306-9.729,6.586l-3.282-12.8Z"/><path class="cls-14" d="M109.989,145.117c-3.944,7.864-7.964,14.764-10.933,19.481-.044.071,6.455-.633,10.782-1.366l.812-.446c-2.632-.95-5.687-3.312-5.687-3.312-1.098-3.202,1.462-3.37,1.462-3.37l2.426,1.703s.665-.467,1.879-.57l.08-6.068,3.78-8.223,26.271-14.262,2.925,13.677-28.794,15.965c.607.38,1.089.818,1.469,1.257l28.231-15.541,1.828-1.009s13.136-8.144,15.694-12.712c1.704-6.337-3.999-7.595-3.999-7.595h-11.213c-.981,0-1.956.096-2.913.271-1.996.959-3.952,1.984-5.856,3.214-2.273,1.469-15.49,8.417-22.529,12.527-2.528,1.476-4.401,3.761-5.714,6.378ZM142.507,128.041l2.543-1.813,9.584,3.312c2.076.65,2.58,3.355.884,4.715-3.012,2.412-5.533,4.306-9.729,6.586l-3.282-12.8Z"/><path class="cls-12" d="M64.261,130.33c1.06.095,2.39.468,3.655,1.52.212.176.41.358.577.541-1.345,1.667-2.595,3.231-3.618,4.532-.388-.38-.723-.76-.95-1.14-.665-1.155-1.096-2.435-1.359-3.443-.277-1.082.585-2.112,1.696-2.01Z"/><path class="cls-21" d="M67.029,134.214c-.783.977-1.516,1.898-2.154,2.709-.388-.38-.723-.76-.95-1.14-.665-1.155-1.096-2.435-1.359-3.443-.059-.229-.057-.455-.021-.669.879,1.594,2.653,2.44,4.485,2.544Z"/><path class="cls-16" d="M71.11,180.541s-4.634,4.138-15.051-2.244c-5.636-3.458-7.632-6.893-8.311-9.196-.505-1.71-.279-2.8-.279-2.8,0,0,9.262,9.124,23.64,14.24Z"/><path class="cls-16" d="M66.476,188.823v4.627s-15.606-6.578-21.316-12.909v-4.876s5.483,6.338,21.316,13.158Z"/><path class="cls-21" d="M62.083,140.49s.153-.197.431-.556c.022.081.176.68.541,1.623l-.124.051s-1.63,1.623-2.252,2.068c-5.372,3.86-13.209,22.624-13.209,22.624,0,0-.226,1.09.279,2.8l-2.004.168c-.621-2.112-1.959-6.71-2.718-9.795l-.593-.117c1.053-1.499,2.618-3.59,5.037-6.843,5.541-7.427,14.613-12.025,14.613-12.025Z"/><path class="cls-4" d="M42.434,159.358l.593.117c.759,3.084,2.097,7.683,2.718,9.795.204.702.336,1.126.336,1.126-.57,2.573-4.079.197-6.155-2.544h-.081c.015-2.039.102-3.72.315-4.371.409-1.235.921-2.193,2.273-4.122Z"/><path class="cls-16" d="M80.211,121.108c.789,1.183,3.86,5.117,9.982,9.214,6.122,4.098,11.878,6.594,15.533,7.873,3.655,1.28,6.085,1.739,6.085,1.739l-.055.907c-22.387-5.76-31.546-18.333-31.546-18.333v-.95s-.788-1.633,0-.449Z"/><polygon class="cls-16" points="150.054 122.727 148.611 122.727 114.683 103.513 115.044 102.878 150.054 122.727"/><polygon class="cls-16" points="158.703 122.89 156.988 122.743 123.669 103.514 124.034 102.882 158.703 122.89"/><path class="cls-16" d="M141.12,149.244l3.383-1.883c.373-.208.782-.068.918.312.136.384-.057.867-.434,1.078l-3.429,1.939c-.122.068-.246.101-.362.101-.258,0-.48-.157-.562-.434-.119-.402.099-.898.486-1.113Z"/><path class="cls-7" d="M40.161,179.561s7.799,15.191,40.452,21.36c0,0,9.519-1.782,9.744-1.864,0,0,.086-.923.36-2.41,1.137,1.696,3.495,2.636,3.495,2.636-.004-.004,1.835.647,1.832.643,1.114.322,2.063.175,3.893-.667l1.788-1.065c4.47-3.395,6.818-6.702,7.608-11.856l1.002.534,35.519-20.309,3.903-.839s-.019-1.833.38-4.471c.426.334,1.706.957,2.614,1.464,1.487.83,1.109.774,3.251,1.574,2.141.8,3.087.366,4.431-.412l1.695-1.029c4.014-2.584,6.759-6.766,7.472-12.047l1.64,1.032,3.853-2.816s6.381-9.369.292-16.189c-.403-.454-.788-.877-1.148-1.279-1.983-2.201-4.496-4.908-6.873-6.48-1.996-1.32-3.128-2.416-5.244-3.724-9.386-5.804-25.59-15.865-27.505-16.734-2.683-1.221-7.222-1.872-7.222-1.872l-2.39-.189-2.09-.013-4.643-.151c-1.521-.138-2.477,0-4.683,0-1.814,0-3.566.212-5.204,1.031-9.188,4.576-21.585,10.102-27.17,14.942-2.873,2.493-8.686,9.067-12.721,14.03-.167-.183-.914-.775-1.125-.952-1.265-1.052-2.848-1.676-3.839-1.29-.834.325-1.241,1.108-.963,2.19.263,1.008,1.923,4.204,2.31,4.584-1.067,1.346-1.206,1.54-1.672,2.146-.278.359-.431.556-.431.556,0,0-9.073,4.598-14.614,12.025-2.418,3.253-3.703,4.859-4.756,6.357-1.353,1.929-2.687,3.239-3.306,4.748-.26.634-.449,2.18-.464,4.218-.044,4.84.529,12.588.529,12.588Z"/><polygon class="cls-12" points="66.897 68.059 78.056 63.733 46.207 38.926 66.897 68.059"/><polygon class="cls-12" points="65.515 61.681 54.356 66.007 86.205 90.813 65.515 61.681"/><polygon class="cls-12" points="91.633 50.034 103.601 50.034 82.871 15.393 91.633 50.034"/><polygon class="cls-12" points="92.65 43.588 80.681 43.588 101.412 78.229 92.65 43.588"/><path class="cls-5" d="M104.998,159.378s3.411,3.078,6.814,3.725c3.403.648,5.271-.709,5.478-1.327.208-.618-.566-2.979-3.74-4.062-3.173-1.084-4.726.194-4.726.194l-2.511-1.804s-2.477.488-1.316,3.274Z"/><g id="Axo_Extrusion"><g id="Axo_Surface"><polygon id="Axo_panel" class="cls-13" points="328.884 230.485 422.457 176.46 422.457 180.189 328.884 234.214 328.884 230.485"/><path class="cls-10" d="M328.884,234.475c-.045,0-.09-.011-.13-.035-.081-.047-.131-.133-.131-.226v-3.73c0-.093.05-.179.131-.226l93.573-54.024c.08-.047.18-.047.26,0,.081.047.131.133.131.226v3.729c0,.093-.05.179-.131.226l-93.573,54.025c-.04.023-.085.035-.13.035ZM329.145,230.635v3.129l93.052-53.724v-3.128l-93.052,53.724Z"/></g><g id="Axo_Surface_"><polygon id="Axo_panel-2" class="cls-13" points="214.638 164.384 328.884 230.485 328.884 234.214 214.638 168.113 214.638 164.384"/><path class="cls-10" d="M328.884,234.475c-.045,0-.09-.012-.131-.035l-114.247-66.102c-.08-.046-.13-.133-.13-.225v-3.729c0-.093.05-.179.131-.226.082-.046.18-.046.26,0l114.247,66.101c.08.047.13.133.13.226v3.73c0,.093-.05.179-.131.226-.04.023-.085.035-.13.035ZM214.898,167.962l113.726,65.8v-3.128l-113.726-65.8v3.127Z"/></g><g id="Axo_cap"><polygon id="Axo_base" class="cls-2" points="214.638 164.384 308.211 110.359 422.457 176.46 328.884 230.485 214.638 164.384"/><path class="cls-10" d="M328.884,230.745c-.045,0-.09-.012-.131-.035l-114.247-66.101c-.08-.046-.13-.133-.13-.225s.05-.179.131-.225l93.573-54.024c.08-.047.179-.047.261,0l114.246,66.101c.08.047.13.133.13.226s-.05.179-.131.226l-93.573,54.024c-.04.023-.085.035-.13.035ZM215.158,164.384l113.726,65.8,93.053-53.724-113.726-65.801-93.053,53.724Z"/></g></g><polygon class="cls-2" points="217.554 57.741 217.554 166.071 308.212 113.731 308.212 5.403 217.554 57.741"/><path class="cls-10" d="M217.554,166.332c-.045,0-.09-.012-.13-.035-.081-.046-.131-.133-.131-.225V57.741c0-.093.05-.179.131-.225L308.082,5.177c.08-.047.18-.047.26,0,.081.046.131.133.131.225v108.328c0,.093-.05.179-.131.225l-90.658,52.341c-.04.023-.085.035-.13.035ZM217.815,57.891v107.73l90.137-52.04V5.854l-90.137,52.037Z"/><polygon class="cls-2" points="308.212 5.403 308.212 113.731 419.541 178.145 419.541 69.814 308.212 5.403"/><path class="cls-10" d="M419.542,178.406c-.045,0-.09-.012-.131-.035l-111.329-64.415c-.08-.046-.13-.133-.13-.225V5.403c0-.093.05-.179.131-.226.08-.046.179-.046.26,0l111.329,64.412c.08.046.13.132.13.225v108.331c0,.093-.05.179-.131.226-.04.023-.084.035-.13.035ZM308.473,113.58l110.808,64.114v-107.73L308.473,5.854v107.726Z"/><polygon class="cls-13" points="217.554 57.741 217.554 166.071 214.637 164.382 214.637 56.054 217.554 57.741"/><path class="cls-10" d="M217.554,166.332c-.045,0-.09-.012-.131-.035l-2.917-1.69c-.08-.046-.13-.133-.13-.225V56.054c0-.093.05-.179.131-.226.08-.046.179-.046.26,0l2.917,1.686c.08.046.13.133.13.225v108.331c0,.093-.05.179-.131.226-.04.023-.085.035-.13.035ZM214.898,164.232l2.396,1.388V57.891l-2.396-1.385v107.726Z"/><polygon class="cls-13" points="422.458 68.131 422.458 176.459 419.541 178.145 419.541 69.814 422.458 68.131"/><path class="cls-10" d="M419.542,178.406c-.045,0-.09-.011-.13-.035-.081-.047-.131-.133-.131-.226v-108.331c0-.093.05-.179.131-.226l2.917-1.683c.08-.046.179-.046.26,0,.08.046.13.133.13.225v108.327c0,.093-.05.179-.13.226l-2.917,1.687c-.041.023-.085.035-.131.035ZM419.802,69.965v107.73l2.396-1.385v-107.726l-2.396,1.382Z"/><polygon class="cls-13" points="422.458 68.131 419.541 69.814 308.212 5.403 217.554 57.741 214.637 56.054 308.212 2.031 422.458 68.131"/><path class="cls-10" d="M419.542,70.075c-.045,0-.09-.012-.131-.035L308.212,5.704l-90.528,52.262c-.08.047-.179.047-.26,0l-2.917-1.686c-.08-.046-.13-.133-.13-.225s.05-.179.131-.225L308.082,1.805c.08-.047.179-.047.26,0l114.246,66.101c.08.046.13.133.13.225s-.05.179-.131.226l-2.917,1.683c-.04.023-.084.035-.13.035ZM308.212,5.142c.045,0,.09.012.131.035l111.199,64.336,2.396-1.382L308.212,2.331l-93.054,53.723,2.396,1.385L308.082,5.177c.04-.023.085-.035.13-.035Z"/><g id="Axo_Extrusion-2"><g id="Axo_Surface-2"><polygon id="Axo_panel-3" class="cls-13" points="285.271 123.513 285.271 142.206 272.883 135.054 272.883 116.361 285.271 123.513"/><path class="cls-10" d="M285.271,142.467c-.045,0-.09-.012-.13-.035l-12.388-7.152c-.081-.046-.131-.133-.131-.225v-18.693c0-.093.05-.179.131-.225.08-.047.18-.047.26,0l12.388,7.152c.081.046.131.133.131.225v18.693c0,.093-.05.179-.131.225-.04.023-.084.035-.13.035ZM273.143,134.904l11.867,6.851v-18.092l-11.867-6.851v18.092Z"/></g><g id="Axo_Surface_-2"><polygon id="Axo_panel-4" class="cls-13" points="299.539 115.275 285.271 123.513 272.883 116.361 287.151 108.123 299.539 115.275"/><path class="cls-10" d="M285.271,123.773c-.045,0-.09-.012-.13-.035l-12.388-7.152c-.081-.046-.131-.133-.131-.225s.05-.179.131-.225l14.268-8.238c.08-.047.18-.047.26,0l12.388,7.152c.081.046.131.133.131.225s-.05.179-.131.225l-14.268,8.238c-.04.023-.084.035-.13.035ZM273.404,116.361l11.867,6.851,13.747-7.937-11.867-6.851-13.747,7.937Z"/></g><g id="Axo_cap-2"><polygon id="Axo_base-2" class="cls-2" points="299.539 115.275 299.539 133.969 285.271 142.206 285.271 123.513 299.539 115.275"/><path class="cls-10" d="M285.271,142.467c-.045,0-.09-.012-.13-.035-.081-.046-.131-.133-.131-.225v-18.693c0-.093.05-.179.131-.225l14.268-8.238c.08-.047.18-.047.26,0,.081.046.131.133.131.225v18.694c0,.093-.05.179-.131.225l-14.268,8.238c-.04.023-.084.035-.13.035ZM285.531,123.663v18.092l13.747-7.937v-18.092l-13.747,7.937Z"/></g><path class="cls-10" d="M285.271,130.515c-.09,0-.177-.047-.226-.13-.072-.125-.029-.284.096-.356l14.015-8.092c.122-.072.283-.03.356.095.072.125.029.284-.096.356l-14.015,8.091c-.041.024-.085.035-.13.035Z"/></g><path class="cls-2" d="M289.412,112.971c1.845,1.065,1.845,2.792,0,3.857-1.845,1.065-4.835,1.065-6.68,0-1.845-1.065-1.845-2.792,0-3.857,1.845-1.065,4.835-1.065,6.68,0Z"/><path class="cls-10" d="M286.072,117.881c-1.257,0-2.513-.276-3.47-.829-.976-.563-1.514-1.328-1.514-2.154s.538-1.59,1.513-2.154c1.915-1.105,5.027-1.105,6.941,0h0c.975.564,1.513,1.329,1.513,2.154s-.538,1.59-1.514,2.154c-.957.553-2.213.829-3.47.829ZM286.072,112.429c-1.163,0-2.325.256-3.21.766-.808.467-1.252,1.072-1.252,1.703s.445,1.236,1.252,1.703c1.771,1.021,4.649,1.021,6.42,0,.808-.467,1.253-1.071,1.253-1.703s-.445-1.236-1.253-1.703h0c-.886-.511-2.047-.766-3.21-.766Z"/><path class="cls-10" d="M286.072,114.956c-.144,0-.26-.117-.26-.26v-9.375c0-.144.116-.26.26-.26s.26.117.26.26v9.375c0,.144-.116.26-.26.26Z"/><path class="cls-2" d="M293.58,105.123c0,1.109-.734,2.219-2.203,3.063-2.927,1.693-7.682,1.693-10.615,0-1.464-.844-2.198-1.953-2.198-3.063l.312-1.245,2.474-7.208c0,.698.458,1.396,1.38,1.927,1.844,1.068,4.839,1.068,6.682,0,.922-.531,1.38-1.229,1.38-1.927l2.474,7.208.312,1.245Z"/><path class="cls-10" d="M286.071,109.71c-1.969,0-3.939-.433-5.439-1.299-1.502-.865-2.328-2.033-2.328-3.288l.319-1.308,2.481-7.229c.041-.12.162-.196.289-.172.125.021.217.129.217.257,0,.633.444,1.237,1.25,1.701,1.771,1.025,4.651,1.024,6.422,0,.806-.465,1.25-1.069,1.25-1.702,0-.127.092-.236.217-.257.122-.024.248.052.289.172l2.474,7.208.319,1.266c.004.021.007.042.007.063,0,1.256-.829,2.424-2.334,3.288-1.497.866-3.466,1.299-5.435,1.299ZM281.315,97.574l-2.193,6.388-.305,1.224c.008.998.741,2.005,2.075,2.773,2.858,1.65,7.503,1.649,10.354,0,1.324-.761,2.06-1.756,2.074-2.806l-.305-1.213-2.186-6.367c-.244.472-.68.899-1.286,1.248-1.913,1.108-5.028,1.108-6.943,0-.605-.349-1.042-.776-1.285-1.248Z"/><path class="cls-2" d="M290.793,96.67c0,.698-.458,1.396-1.38,1.927-1.844,1.068-4.839,1.068-6.682,0-.922-.531-1.38-1.229-1.38-1.927s.458-1.396,1.38-1.927c1.844-1.068,4.839-1.068,6.682,0,.922.531,1.38,1.229,1.38,1.927Z"/><path class="cls-10" d="M286.072,99.653c-1.257,0-2.514-.277-3.471-.831-.974-.561-1.511-1.326-1.511-2.152s.537-1.592,1.511-2.153c1.913-1.108,5.028-1.109,6.943,0,.973.561,1.51,1.325,1.51,2.152s-.537,1.591-1.511,2.153c-.957.554-2.214.831-3.471.831ZM286.072,94.199c-1.163,0-2.325.256-3.21.769-.807.465-1.251,1.069-1.251,1.702s.444,1.237,1.25,1.701c1.771,1.025,4.651,1.024,6.422,0,.806-.465,1.25-1.069,1.25-1.702s-.444-1.237-1.249-1.701c-.886-.513-2.049-.769-3.212-.769Z"/><polygon class="cls-2" points="348.765 176.84 365.044 167.441 309.004 135.086 292.724 144.484 348.765 176.84"/><path class="cls-10" d="M348.765,177.1c-.045,0-.09-.011-.13-.035l-56.041-32.355c-.081-.046-.131-.133-.131-.225s.05-.179.131-.225l16.279-9.399c.08-.047.18-.047.26,0l56.041,32.355c.081.046.131.133.131.225s-.05.179-.131.225l-16.279,9.399c-.04.023-.085.035-.13.035ZM293.246,144.484l55.52,32.055,15.758-9.098-55.52-32.055-15.758,9.098Z"/><g id="Axo_Extrusion-3"><g id="Axo_Surface-3"><path id="Axo_panel-5" class="cls-13" d="M304.489,195.536c0,.657.432,1.313,1.3,1.814,1.733,1,4.542,1,6.275,0,.865-.499,1.3-1.154,1.3-1.809v8.73c0,.655-.434,1.309-1.3,1.809-1.733,1-4.542,1-6.275,0-.868-.501-1.3-1.158-1.3-1.814v-8.73Z"/><path class="cls-10" d="M308.926,207.085c-1.183,0-2.366-.26-3.267-.78-.923-.533-1.431-1.258-1.431-2.04v-8.73c0-.144.116-.26.261-.26s.26.116.26.26c0,.589.415,1.153,1.17,1.588,1.658.957,4.355.957,6.014,0,.754-.436,1.169-.997,1.169-1.583,0-.144.116-.26.26-.26s.26.116.26.26v8.73c0,.779-.507,1.502-1.429,2.035-.902.52-2.085.78-3.268.78ZM304.749,196.844v7.421c0,.589.415,1.153,1.17,1.588,1.658.957,4.355.957,6.014,0,.754-.436,1.169-.997,1.169-1.583v-7.425c-.231.268-.536.515-.908.73-1.803,1.04-4.734,1.04-6.535,0-.373-.216-.679-.463-.91-.732Z"/></g><g id="Axo_cap-3"><path id="Axo_base-3" class="cls-19" d="M304.489,195.536c0-.655.434-1.309,1.3-1.809,1.733-1,4.542-1,6.275,0,.868.501,1.3,1.158,1.3,1.814s-.434,1.309-1.3,1.809c-1.733,1-4.542,1-6.275,0-.868-.501-1.3-1.158-1.3-1.814Z"/><path class="cls-10" d="M308.926,198.356c-1.183,0-2.366-.26-3.267-.78-.923-.533-1.431-1.258-1.431-2.04s.508-1.502,1.43-2.035c1.802-1.04,4.733-1.04,6.535,0,.923.533,1.43,1.257,1.43,2.04s-.507,1.502-1.429,2.035c-.902.52-2.085.78-3.268.78ZM308.926,193.235c-1.089,0-2.178.239-3.008.718-.754.436-1.169.998-1.169,1.583,0,.589.415,1.153,1.17,1.588,1.658.957,4.355.957,6.014,0,.754-.436,1.169-.997,1.169-1.583,0-.589-.415-1.153-1.169-1.588-.829-.479-1.918-.718-3.006-.718Z"/></g></g><g id="Axo_Extrusion-4"><g id="Axo_Surface-4"><path id="Axo_panel-6" class="cls-13" d="M231.505,153.398c0,.657.432,1.313,1.3,1.814,1.733,1,4.542,1,6.275,0,.865-.499,1.3-1.154,1.3-1.809v8.73c0,.655-.434,1.309-1.3,1.809-1.733,1-4.542,1-6.275,0-.868-.501-1.3-1.158-1.3-1.814v-8.73Z"/><path class="cls-10" d="M235.942,164.948c-1.184,0-2.367-.26-3.268-.78-.922-.532-1.43-1.257-1.43-2.04v-8.73c0-.144.116-.26.261-.26s.26.117.26.26c0,.589.415,1.153,1.169,1.589,1.659.957,4.356.957,6.015,0,.754-.436,1.169-.998,1.169-1.583,0-.144.116-.26.26-.26s.26.117.26.26v8.73c0,.779-.508,1.502-1.431,2.034-.901.52-2.084.78-3.267.78ZM231.765,154.707v7.421c0,.589.415,1.153,1.169,1.589,1.659.957,4.356.957,6.015,0,.754-.436,1.169-.998,1.169-1.583v-7.426c-.231.268-.537.515-.91.73-1.802,1.04-4.734,1.04-6.534,0-.373-.215-.678-.462-.909-.731Z"/></g><g id="Axo_cap-4"><path id="Axo_base-4" class="cls-19" d="M231.505,153.398c0-.655.434-1.309,1.3-1.809,1.733-1,4.542-1,6.275,0,.868.501,1.3,1.158,1.3,1.814s-.434,1.309-1.3,1.809c-1.733,1-4.542,1-6.275,0-.868-.501-1.3-1.158-1.3-1.814Z"/><path class="cls-10" d="M235.942,156.218c-1.184,0-2.367-.26-3.268-.78-.922-.532-1.43-1.257-1.43-2.04s.508-1.502,1.43-2.034c1.801-1.042,4.732-1.041,6.535,0,.922.532,1.43,1.256,1.43,2.039,0,.779-.508,1.502-1.431,2.034-.901.52-2.084.78-3.267.78ZM235.941,151.097c-1.089,0-2.177.239-3.006.718-.754.435-1.169.997-1.169,1.583,0,.589.415,1.153,1.169,1.589,1.659.957,4.356.957,6.015,0,.754-.436,1.169-.998,1.169-1.583,0-.589-.415-1.153-1.169-1.588-.83-.479-1.918-.718-3.008-.718Z"/></g></g><g id="Axo_Extrusion-5"><g id="Axo_Surface-5"><path id="Axo_panel-7" class="cls-13" d="M336.465,177.074c0,.657.432,1.313,1.3,1.814,1.733,1,4.542,1,6.275,0,.865-.499,1.3-1.154,1.3-1.809v8.73c0,.655-.434,1.309-1.3,1.809-1.733,1-4.542,1-6.275,0-.868-.501-1.3-1.158-1.3-1.814v-8.73Z"/><path class="cls-10" d="M340.902,188.624c-1.184,0-2.367-.26-3.268-.78-.922-.532-1.43-1.256-1.43-2.04v-8.73c0-.143.116-.26.26-.26s.26.117.26.26c0,.59.415,1.154,1.169,1.588,1.659.957,4.355.958,6.015,0,.753-.435,1.169-.997,1.169-1.582,0-.144.116-.26.26-.26s.26.116.26.26v8.73c0,.78-.508,1.502-1.43,2.034-.901.52-2.084.78-3.267.78ZM336.726,178.383v7.421c0,.59.415,1.154,1.169,1.588,1.659.957,4.355.958,6.015,0,.753-.435,1.169-.997,1.169-1.582v-7.425c-.231.268-.536.514-.909.729-1.803,1.04-4.734,1.04-6.534,0-.373-.215-.678-.462-.909-.731Z"/></g><g id="Axo_cap-5"><path id="Axo_base-5" class="cls-19" d="M336.465,177.074c0-.655.434-1.309,1.3-1.809,1.733-1,4.542-1,6.275,0,.868.501,1.3,1.158,1.3,1.814s-.434,1.309-1.3,1.809c-1.733,1-4.542,1-6.275,0-.868-.501-1.3-1.158-1.3-1.814Z"/><path class="cls-10" d="M340.902,179.894c-1.184,0-2.367-.26-3.268-.78-.922-.532-1.43-1.256-1.43-2.04,0-.779.507-1.502,1.429-2.034,1.801-1.04,4.732-1.041,6.535,0,.922.532,1.43,1.257,1.43,2.04s-.508,1.502-1.43,2.034c-.901.52-2.084.78-3.267.78ZM340.902,174.773c-1.089,0-2.178.239-3.008.718-.753.436-1.169.998-1.169,1.583,0,.59.415,1.154,1.169,1.588,1.659.957,4.355.958,6.015,0,.753-.435,1.169-.997,1.169-1.582,0-.59-.415-1.154-1.169-1.589-.829-.478-1.918-.718-3.007-.718Z"/></g></g><g id="Axo_Extrusion-6"><g id="Axo_Surface-6"><path id="Axo_panel-8" class="cls-19" d="M263.481,134.937c0,.657.432,1.313,1.3,1.814,1.733,1,4.542,1,6.275,0,.865-.499,1.3-1.154,1.3-1.809v8.73c0,.655-.434,1.309-1.3,1.809-1.733,1-4.542,1-6.275,0-.868-.501-1.3-1.158-1.3-1.814v-8.73Z"/><path class="cls-10" d="M267.918,146.487c-1.184,0-2.367-.26-3.268-.78-.923-.532-1.431-1.257-1.431-2.04v-8.73c0-.144.116-.26.26-.26s.26.117.26.26c0,.589.415,1.153,1.169,1.589,1.659.957,4.356.957,6.015,0,.753-.435,1.169-.998,1.169-1.583,0-.144.116-.26.26-.26s.26.117.26.26v8.73c0,.78-.508,1.502-1.43,2.034-.901.52-2.084.78-3.267.78ZM263.741,136.245v7.421c0,.589.415,1.153,1.169,1.589,1.659.957,4.356.957,6.015,0,.753-.435,1.169-.998,1.169-1.583v-7.426c-.231.269-.536.515-.909.73-1.802,1.04-4.734,1.04-6.534,0-.373-.215-.679-.462-.91-.731Z"/></g><g id="Axo_cap-6"><path id="Axo_base-6" class="cls-19" d="M263.481,134.937c0-.655.434-1.309,1.3-1.809,1.733-1,4.542-1,6.275,0,.868.501,1.3,1.158,1.3,1.814s-.434,1.309-1.3,1.809c-1.733,1-4.542,1-6.275,0-.868-.501-1.3-1.158-1.3-1.814Z"/><path class="cls-10" d="M267.918,137.757c-1.184,0-2.367-.26-3.268-.78-.923-.532-1.431-1.257-1.431-2.04s.508-1.502,1.431-2.034c1.801-1.041,4.733-1.04,6.534,0,.922.532,1.43,1.257,1.43,2.04s-.508,1.502-1.43,2.034c-.901.52-2.084.78-3.267.78ZM267.918,132.636c-1.089,0-2.178.239-3.008.718-.754.436-1.169.998-1.169,1.583,0,.589.415,1.153,1.169,1.589,1.659.957,4.356.957,6.015,0,.753-.435,1.169-.998,1.169-1.583,0-.589-.415-1.153-1.169-1.589-.829-.478-1.918-.718-3.007-.718Z"/></g></g><g id="Axo_Extrusion-7"><g id="Axo_Surface-7"><polygon id="Axo_panel-9" class="cls-13" points="230.853 130.98 267.47 109.84 267.47 133.414 230.853 154.554 230.853 130.98"/><path class="cls-10" d="M230.853,154.814c-.045,0-.09-.012-.13-.035-.081-.046-.131-.133-.131-.225v-23.573c0-.093.05-.179.131-.225l36.617-21.141c.08-.047.18-.047.26,0,.081.046.131.133.131.225v23.573c0,.093-.05.179-.131.225l-36.616,21.141c-.04.023-.085.035-.13.035ZM231.114,131.131v22.972l36.096-20.84v-22.972l-36.096,20.84Z"/></g><g id="Axo_Surface_-3"><polygon id="Axo_panel-10" class="cls-2" points="229.109 129.974 230.853 130.98 230.853 154.554 229.109 153.547 229.109 129.974"/><path class="cls-10" d="M230.853,154.814c-.045,0-.09-.012-.13-.035l-1.744-1.007c-.081-.046-.131-.133-.131-.225v-23.573c0-.093.05-.179.131-.225.08-.047.18-.047.26,0l1.744,1.007c.081.046.131.133.131.225v23.573c0,.093-.05.179-.131.225-.04.023-.085.035-.13.035ZM229.37,153.397l1.223.706v-22.972l-1.223-.706v22.972Z"/></g><g id="Axo_cap-7"><polygon id="Axo_base-7" class="cls-2" points="229.109 129.974 265.726 108.833 267.47 109.84 230.853 130.98 229.109 129.974"/><path class="cls-10" d="M230.853,131.241c-.045,0-.09-.012-.13-.035l-1.744-1.007c-.081-.046-.131-.133-.131-.225s.05-.179.131-.225l36.616-21.141c.08-.047.18-.047.26,0l1.744,1.007c.081.046.131.133.131.225s-.05.179-.131.225l-36.616,21.141c-.04.023-.085.035-.13.035ZM229.63,129.974l1.223.706,36.096-20.84-1.223-.706-36.096,20.84Z"/></g></g><g id="Axo_Surface-8"><polygon id="Axo_panel-11" class="cls-2" points="308.9 191.429 345.516 170.289 345.516 178.497 308.9 199.637 308.9 191.429"/><path class="cls-10" d="M308.9,199.897c-.045,0-.09-.011-.13-.035-.081-.047-.131-.133-.131-.226v-8.207c0-.093.05-.179.131-.226l36.617-21.14c.08-.047.18-.047.26,0,.081.046.131.133.131.225v8.208c0,.093-.05.179-.131.226l-36.617,21.14c-.04.023-.085.035-.13.035ZM309.16,191.58v7.606l36.096-20.84v-7.606l-36.096,20.84Z"/></g><g id="Axo_Surface_-4"><polygon id="Axo_panel-12" class="cls-2" points="230.853 146.369 308.9 191.429 308.9 199.637 230.853 154.577 230.853 146.369"/><path class="cls-10" d="M308.9,199.897c-.045,0-.09-.011-.13-.035l-78.047-45.06c-.081-.046-.131-.133-.131-.225v-8.208c0-.093.05-.179.131-.225.08-.047.18-.047.26,0l78.047,45.06c.081.047.131.133.131.226v8.207c0,.093-.05.179-.131.226-.04.023-.085.035-.13.035ZM231.114,154.427l77.526,44.759v-7.606l-77.526-44.76v7.607Z"/></g><polygon id="Axo_base-8" class="cls-2" points="230.853 146.369 267.47 125.229 345.516 170.289 308.9 191.429 230.853 146.369"/><path class="cls-10" d="M308.9,191.69c-.045,0-.09-.011-.13-.035l-78.047-45.061c-.081-.046-.131-.133-.131-.225s.05-.179.131-.225l36.617-21.14c.08-.047.18-.047.26,0l78.047,45.06c.081.046.131.133.131.225s-.05.179-.131.225l-36.617,21.141c-.04.023-.085.035-.13.035ZM231.374,146.369l77.526,44.76,36.096-20.84-77.526-44.759-36.096,20.839Z"/><path class="cls-2" d="M259.439,128.573c-1.042.219-6.547,3.273-7.96,4.241-1.413.967-9.299,5.208-10.192,5.803-.893.595-1.637,1.785-.223,3.348,1.414,1.562,4.984,3.422,6.249,3.943s4.91,1.488,5.728,1.265c.818-.223,6.621-4.612,8.407-5.728,1.873-1.17,9.82-4.761,10.118-5.505.298-.744-2.381-3.645-4.984-4.91-2.604-1.265-5.728-2.753-7.142-2.455Z"/><path class="cls-10" d="M252.72,147.463c-1.322,0-4.445-.878-5.505-1.315-1.109-.456-4.823-2.329-6.344-4.009-.644-.712-.927-1.42-.842-2.104.106-.847.744-1.388,1.114-1.635.388-.259,2.023-1.166,3.915-2.216,2.565-1.423,5.472-3.036,6.274-3.585,1.422-.973,6.958-4.05,8.053-4.281h0c1.422-.299,4.269,1,7.31,2.476,2.595,1.26,5.509,4.248,5.112,5.241-.198.495-2.116,1.495-6.143,3.504-1.73.864-3.366,1.679-4.078,2.125-.707.442-2.054,1.405-3.48,2.424-2.694,1.926-4.497,3.198-4.996,3.335-.1.027-.233.04-.39.04ZM259.493,128.828c-.966.204-6.35,3.163-7.866,4.201-.822.563-3.741,2.182-6.315,3.611-1.804,1.001-3.509,1.947-3.88,2.194-.297.198-.806.625-.886,1.265-.066.528.174,1.097.711,1.691,1.381,1.525,4.914,3.366,6.155,3.877,1.373.565,4.867,1.446,5.56,1.254.446-.122,2.877-1.86,4.83-3.256,1.433-1.024,2.786-1.992,3.507-2.442.735-.459,2.38-1.28,4.122-2.15,2.25-1.122,5.649-2.819,5.895-3.239.183-.458-2.171-3.265-4.86-4.571-2.233-1.084-5.604-2.724-6.975-2.435h0Z"/><path class="cls-2" d="M246.941,141.369c-1.86-1.041-5.282-1.562-5.877-1.86l11.903,6.621c-.149-1.116-4.166-3.72-6.026-4.761Z"/><path class="cls-10" d="M252.967,146.391c-.129,0-.241-.095-.258-.226-.118-.882-3.561-3.261-5.896-4.569-1.2-.672-3.132-1.137-4.411-1.445-.713-.171-1.228-.296-1.456-.409-.129-.064-.181-.22-.117-.349.065-.129.223-.181.35-.117.174.087.717.217,1.345.369,1.306.314,3.28.789,4.544,1.497.059.033,5.948,3.396,6.157,4.954.019.143-.081.274-.224.293-.012.002-.023.002-.035.002Z"/><path class="cls-2" d="M270.166,134.036c-3.007.14-3.637,2.028-6.924,5.945-3.253,3.876-3.588,3.271-4.885,5.22-.646.971-.722,1.999-1.149,4.87-.112.755,2.319,1.762,3.088,1.966,2.891.765,18.962-5.399,18.962-5.399v-6.027c-2.098-1.259-7.414-6.652-9.092-6.574Z"/><path class="cls-10" d="M260.907,152.359c-.27,0-.497-.023-.677-.07-.035-.009-3.454-1.081-3.279-2.256l.147-1.008c.316-2.172.446-3.072,1.043-3.968.63-.948,1.056-1.324,1.646-1.843.655-.577,1.551-1.368,3.256-3.399.734-.875,1.333-1.645,1.862-2.325,1.863-2.396,2.797-3.598,5.249-3.712h0c1.154-.057,3.598,2.016,5.961,4.02,1.294,1.098,2.516,2.135,3.276,2.59.079.047.127.132.127.224v6.027c0,.108-.066.205-.167.243-.619.237-14.332,5.478-18.444,5.478ZM270.166,134.036l.012.26c-2.213.103-3.043,1.171-4.862,3.512-.532.683-1.134,1.458-1.875,2.34-1.73,2.061-2.643,2.867-3.311,3.455-.581.512-.963.85-1.557,1.741-.532.799-.657,1.664-.96,3.754l-.148,1.01c-.063.426,1.838,1.396,2.897,1.675,2.205.583,13.051-3.192,18.634-5.326v-5.703c-.797-.507-1.975-1.507-3.218-2.562-2.072-1.757-4.67-3.944-5.6-3.897l-.012-.26Z"/><path class="cls-10" d="M262.337,144.153c-.057,0-.115-.018-.162-.057-.543-.433-.828-1.157-.728-1.844.021-.142.146-.241.295-.22.142.021.241.153.22.296-.073.499.143,1.047.538,1.362.112.09.131.254.041.366-.051.064-.127.098-.203.098Z"/><path class="cls-2" d="M265.016,136.901c-1.109-.693-2.374-1.557-3.403-2.308l-1.958,6.854c.746.163,1.235.606,1.84.982,1.071.665,1.189.979,2.098.629,1.815-.698,1.958-4.126,2.937-6.085-.35,0-.834.352-1.513-.073Z"/><path class="cls-10" d="M262.967,143.462c-.39,0-.67-.188-1.086-.47-.148-.1-.318-.214-.525-.343-.151-.094-.294-.191-.437-.288-.414-.282-.806-.548-1.321-.661-.14-.031-.23-.169-.199-.31.03-.14.168-.229.31-.199.613.134,1.065.442,1.502.739.137.093.274.186.419.276.213.132.389.251.541.353.599.403.722.487,1.326.254,1.079-.415,1.535-2.024,1.976-3.58.185-.651.374-1.32.612-1.908-.31.065-.725.096-1.209-.205-1.056-.66-2.334-1.527-3.419-2.319-.116-.085-.142-.248-.057-.364.086-.116.25-.141.364-.057,1.076.784,2.343,1.644,3.388,2.297.397.247.696.172.987.098.226-.057.495-.129.609.058.048.077.052.173.012.254-.321.641-.558,1.478-.787,2.287-.476,1.679-.968,3.416-2.29,3.924-.291.112-.519.161-.718.161Z"/><path class="cls-2" d="M261.326,151.347c-1.405,1.994,2.24,3.207,3.988,2.384,1.748-.824,6.157-9.56,6.447-10.911l-5.793-1.3c-.29,1.35-3.238,7.833-4.642,9.827Z"/><path class="cls-10" d="M263.981,154.252c-1.106,0-2.292-.405-2.865-1.088-.487-.58-.488-1.279-.003-1.968,1.396-1.981,4.322-8.431,4.601-9.732.03-.141.171-.231.309-.2.141.03.23.168.2.309-.293,1.366-3.224,7.851-4.684,9.922-.346.492-.354.94-.024,1.333.69.821,2.621,1.168,3.689.665,1.628-.767,6.013-9.375,6.303-10.73.029-.141.172-.23.309-.2.141.03.23.168.2.309-.282,1.316-4.698,10.199-6.59,11.091-.414.195-.92.286-1.444.286Z"/><path class="cls-2" d="M267.124,134.817c-1.148.823-1.216,2.345-1.338,3.624-.176,1.842-.447,3.676-.835,5.486,1.122-.607,2.467-.741,3.72-.5,1.259.243,2.588.941,3.574,1.722.165-1.81.578-2.721,1.138-4.399l.283-2.376c.092-.94-.4-2.091-.873-2.877-1.101-1.831-4.007-1.869-5.668-.679Z"/><path class="cls-10" d="M272.245,145.41c-.057,0-.115-.019-.162-.056-1.047-.83-2.341-1.454-3.462-1.67-1.271-.245-2.53-.077-3.547.473-.088.049-.199.04-.28-.021s-.12-.164-.098-.263c.369-1.721.648-3.557.83-5.456l.023-.247c.118-1.277.251-2.724,1.423-3.564,1.029-.737,2.47-1.029,3.765-.762,1.005.208,1.813.747,2.278,1.519.312.519,1.025,1.854.909,3.037-.014.143-.145.251-.284.234-.143-.014-.248-.141-.234-.285.103-1.058-.615-2.348-.838-2.718-.498-.827-1.327-1.151-1.937-1.277-1.141-.235-2.456.03-3.356.676-.979.701-1.1,2.023-1.208,3.188l-.023.249c-.165,1.732-.411,3.411-.732,5.002,1.025-.421,2.215-.528,3.407-.296,1.068.206,2.278.755,3.315,1.494.155-1.252.44-2.078.82-3.176.089-.256.183-.527.281-.822.045-.136.193-.211.329-.165.137.045.21.193.165.329-.099.297-.193.569-.282.827-.412,1.192-.71,2.054-.843,3.512-.009.096-.07.178-.157.216-.033.014-.068.021-.103.021Z"/><path class="cls-10" d="M266.319,142.549c-.086,0-.171-.043-.22-.121-.077-.122-.041-.282.08-.359,1.841-1.166,4.446-2.907,5.813-4.562.091-.112.255-.126.367-.035.111.092.126.256.035.367-1.414,1.712-4.065,3.485-5.936,4.67-.044.027-.092.04-.14.04Z"/><path class="cls-2" d="M255.574,130.723c-3.416.207-5.594,3.247-5.035,6.178.528,2.77,1.922,2.858,2.891,3.613.722.563,1.419,1.109,1.982,1.305,2.724.95,3.319.792,3.953.095.495-.545.86-1.618,1.125-2.543l1.124-4.778c-2.005-2.191-3.48-4.025-6.038-3.87Z"/><path class="cls-10" d="M258.141,142.742c-.62,0-1.482-.211-2.816-.676-.599-.209-1.298-.754-2.038-1.332-.219-.171-.445-.3-.684-.436-.885-.505-1.887-1.077-2.321-3.348-.285-1.497.103-3.066,1.068-4.306,1.013-1.304,2.508-2.078,4.208-2.181,2.528-.148,3.989,1.472,5.856,3.526l.39.428c.097.106.089.271-.017.368-.105.097-.27.09-.368-.016l-.39-.43c-1.774-1.952-3.188-3.495-5.439-3.356-1.549.094-2.909.797-3.829,1.981-.871,1.121-1.224,2.538-.966,3.888.388,2.035,1.242,2.522,2.067,2.993.245.139.497.283.728.464.723.564,1.39,1.084,1.908,1.265,2.766.966,3.182.707,3.675.165.482-.531.84-1.647,1.066-2.44.04-.138.18-.218.322-.179.138.039.218.183.179.322-.242.843-.626,2.035-1.182,2.647-.38.417-.763.652-1.416.652Z"/><path class="cls-13" d="M263.897,136.225c-.602-.43-1.562-1.352-1.865-1.795-.303-.443-.614-1.243-2.168-2.588-2.228-1.928-4.383-2.611-6.644-1.632-.721.312-2.485,2.037-2.76,3.193-.8,1.034-1.227,1.186-.853,2.872.38,1.711-.19,2.534.633,3.358.634.634.76,1.14.57,1.331.887-.063.634-.887.634-1.204.317.38.697.38.697.38.19-.38-.57-1.521-.38-2.218.171-.626.186-2.321.004-3.35.63-.015,1.236-.216,1.236-.216,0,0,1.594-.02,2.268.164.673.184,2.409,1.023,2.693,1.35,0,0,.673-.184-.709-1.432-.283-.205.602-2.68,3.189.082.673.716.798,1.028,1.567,1.588,0,0,.204-.483.169-.626.577.58,1.259.886,1.72.743Z"/><path class="cls-10" d="M250.81,141.224c-.101,0-.194-.059-.237-.153-.045-.099-.024-.216.053-.292.035-.062-.032-.424-.571-.962-.565-.566-.563-1.155-.559-1.837.002-.46.005-.982-.144-1.649-.333-1.5-.063-1.908.581-2.689.089-.108.185-.225.288-.356.34-1.26,2.133-2.985,2.895-3.316,2.235-.967,4.497-.42,6.918,1.674,1.302,1.126,1.75,1.875,2.047,2.371.06.101.113.189.166.267.282.413,1.225,1.319,1.801,1.73.081.057.122.156.106.253-.016.098-.086.178-.18.208-.458.143-1.062-.046-1.634-.498-.026.073-.057.151-.091.234-.031.073-.094.128-.171.15-.076.021-.158.006-.223-.04-.547-.398-.787-.682-1.092-1.042-.14-.166-.298-.351-.511-.578-.947-1.01-1.767-1.409-2.313-1.127-.341.176-.479.567-.477.707.713.653.996,1.119.909,1.482-.051.211-.215.327-.341.361-.098.028-.2-.005-.266-.081-.228-.264-1.882-1.082-2.565-1.269-.573-.157-1.916-.157-2.157-.155-.126.039-.52.152-.977.198.137,1.041.118,2.55-.053,3.176-.081.297.077.759.216,1.166.158.462.282.826.145,1.1-.084.172-.3.195-.636.046-.007.206-.053.427-.205.608-.156.185-.392.291-.702.313-.007,0-.013,0-.019,0ZM255.279,130.024c-.655,0-1.303.142-1.956.425-.664.287-2.362,1.969-2.61,3.015-.009.036-.025.07-.048.099-.119.154-.229.288-.331.411-.558.677-.766.93-.474,2.245.161.724.159,1.301.156,1.764-.003.657-.005,1.054.407,1.466.401.401.648.793.712,1.124.11-.136.083-.405.063-.601-.008-.082-.015-.154-.015-.212,0-.109.069-.208.171-.245.103-.037.218-.006.289.078.079.096.163.159.239.202-.036-.146-.099-.329-.147-.469-.163-.478-.349-1.021-.226-1.472.153-.561.183-2.197-.001-3.235-.013-.075.007-.152.055-.211.048-.059.119-.094.196-.095.581-.014,1.154-.202,1.16-.203.026-.008.052-.013.079-.013.067,0,1.64-.018,2.339.173.543.148,1.783.715,2.444,1.137-.098-.156-.295-.406-.703-.775-.055-.038-.177-.179-.123-.499.07-.417.402-.943.965-1.113.759-.231,1.673.214,2.712,1.322.22.234.383.427.528.598.232.274.414.488.725.744.022-.075.036-.135.035-.163-.027-.114.026-.221.128-.278.101-.057.231-.029.313.054.17.171.35.316.528.428-.451-.415-.88-.868-1.074-1.15-.058-.085-.116-.182-.183-.293-.279-.467-.702-1.173-1.941-2.245-1.561-1.351-3-2.015-4.414-2.015ZM257.404,134.228c.01.009.02.018.029.026-.007-.009-.017-.018-.029-.026Z"/><path class="cls-2" d="M259.268,132.897c-1.487-.564-2.663.535-1.723,1.262l1.805,1.131c.323.299.842.221,1.164-.045.384-.318-.008-.627-.145-.907-.285-.586-.178-1.09-1.101-1.44Z"/><path class="cls-10" d="M259.862,135.74c-.248,0-.493-.078-.689-.259-.106-.098-.112-.262-.014-.368.098-.105.263-.112.368-.014.22.203.596.13.821-.055.093-.077.112-.093-.07-.36-.054-.079-.106-.157-.143-.233-.078-.159-.129-.313-.177-.46-.125-.381-.208-.633-.782-.85-.851-.323-1.493-.028-1.66.272-.128.228.032.419.188.54.114.088.134.252.047.365-.088.114-.252.134-.365.047-.514-.398-.504-.885-.324-1.207.313-.558,1.258-.901,2.299-.504.806.305.952.747,1.092,1.174.042.126.085.258.151.395.026.054.066.11.105.166.146.214.45.659-.028,1.055-.22.182-.52.295-.818.295Z"/><path class="cls-2" d="M258.446,134.408c.28.104.38.112.491.196.116.087.114.174.123.238.011.084.256.238.467.023l-.941-1.644c-.749.273-.807.939-.14,1.186Z"/><path class="cls-10" d="M259.289,135.235c-.058,0-.116-.01-.174-.028-.17-.057-.293-.186-.313-.329l.136-.273-.155.209c-.038-.028-.075-.041-.186-.077-.063-.021-.141-.046-.241-.083-.398-.148-.635-.44-.634-.782.001-.377.298-.72.775-.894.135-.052.284.02.334.156.049.135-.02.285-.156.334-.319.116-.432.291-.433.406,0,.114.109.223.294.292.091.034.163.057.222.077.127.042.227.074.334.155.143.107.191.227.211.316.011-.004.023-.014.037-.028.1-.103.266-.104.368-.003s.104.266.003.368c-.12.122-.27.187-.424.187ZM259.317,134.795h.007-.007Z"/><path class="cls-2" d="M258.224,134.205l1.361.374c.232-.824-1.222-.995-1.361-.374Z"/><path class="cls-10" d="M259.586,134.84c-.023,0-.047-.003-.07-.01-.139-.039-.22-.183-.18-.321.032-.115.014-.198-.057-.269-.131-.129-.408-.186-.618-.123-.073.021-.162.063-.18.146-.032.14-.169.23-.312.197-.14-.032-.228-.171-.197-.311.057-.254.255-.447.543-.532.389-.115.867-.009,1.131.253.208.205.276.483.193.781-.032.115-.137.19-.251.19Z"/><path class="cls-10" d="M254.3,141.461c-.073,0-.137-.014-.19-.04-.27-.135-.435-.621-.681-2.002l-.026-.145c-.026-.142.068-.277.209-.303.143-.027.277.068.303.21l.026.148c.162.906.297,1.447.402,1.613.164-.032.583-.264.949-.53.116-.083.279-.059.364.057.085.117.059.279-.057.364-.576.419-1.012.629-1.299.629Z"/><path class="cls-10" d="M253.728,140.344c-.048,0-.097-.013-.14-.041l-.243-.155c-.122-.077-.157-.238-.08-.359.079-.121.24-.156.359-.08l.243.155c.122.077.157.238.08.359-.05.078-.134.121-.22.121Z"/><path class="cls-10" d="M252.526,140.053c-.095,0-.187-.053-.233-.144-.081-.165-.088-.344-.02-.52.129-.328.497-.565.772-.668.135-.051.285.018.335.153.051.135-.018.285-.153.335-.217.081-.419.241-.47.371-.017.043-.012.07.001.096.064.129.011.285-.117.349-.038.019-.077.028-.116.028Z"/><path class="cls-2" d="M248.268,147.928l.141-1.462c-.139.343-.376.837-.141,1.462Z"/><path class="cls-2" d="M250.821,149.635c-.267-.283-.153-1.198-.336-2.022-.213-.901-.359-1.766-.938-2.134-.688-.437-1.065-.902-1.555-.935-.845.641-.076.914.458,1.494.084.091.036.237-.041.427l-.141,1.462c-.235-.625.002-1.12.141-1.462l.041-.427s-1.202-.667-1.296-.731c-2.287-1.563-3.716,2.338-3.648,2.595.157.597,1.253,1.384,2.184,2,1.008.667,2.302,1.546,3.039,2.17.737.625,9.066,6.517,10.502,6.575,1.436.514,2.918-2.739,1.905-4.256-1.156-1.73-9.354-3.736-10.315-4.756Z"/><path class="cls-10" d="M259.54,158.962c-.122,0-.242-.019-.361-.057-1.678-.165-10.064-6.164-10.618-6.634-.569-.482-1.555-1.186-3.014-2.152-1.034-.684-2.115-1.475-2.294-2.151-.087-.333.606-2.133,1.703-2.905.742-.522,1.552-.511,2.344.029.009.006.029.018.057.035-.002-.025-.003-.051-.002-.078.011-.322.279-.561.479-.713.05-.038.112-.058.174-.052.402.026.72.27,1.086.552.173.133.365.279.59.423.615.391.798,1.192.993,2.04l.059.254c.082.367.107.74.131,1.069.023.328.051.737.142.834.359.381,2.133,1.019,3.848,1.636,2.706.973,5.773,2.076,6.494,3.154.713,1.067.327,2.892-.481,3.927-.402.515-.871.789-1.332.789ZM246.09,145.199c-.2,0-.397.048-.593.145-1.051.52-1.72,2.267-1.734,2.537.145.529,1.595,1.488,2.07,1.803,1.477.977,2.479,1.693,3.064,2.189.821.695,9.055,6.461,10.344,6.514.026.001.052.006.077.015.493.176.926-.27,1.142-.549.682-.874,1.037-2.45.458-3.317-.625-.936-3.736-2.054-6.236-2.953-2.237-.804-3.629-1.32-4.051-1.769-.219-.233-.247-.64-.283-1.155-.021-.311-.045-.664-.119-.989l-.059-.254c-.17-.741-.33-1.442-.764-1.718-.24-.152-.444-.308-.627-.449-.285-.218-.5-.383-.713-.431-.173.147-.189.226-.19.249-.004.097.196.27.371.424.128.111.264.231.39.367.004.003.007.007.011.011.198.223.085.498-.025.764-.131.319-.294.716-.111,1.205.051.134-.017.285-.153.335-.136.05-.285-.018-.335-.152-.255-.68-.031-1.225.117-1.586.029-.071.067-.163.085-.222-.358-.199-1.132-.63-1.219-.69-.316-.216-.619-.323-.916-.323Z"/><path class="cls-2" d="M246.819,143.891c-.3-.391-1.322.121-1.343.121,0,0,.374.676.648,1.01.274.334.6.849,1.278.573.677-.275-.282-1.314-.582-1.705Z"/><path class="cls-10" d="M247.036,145.936c-.516,0-.834-.399-1.043-.66l-.07-.088c-.286-.348-.659-1.021-.675-1.049-.045-.081-.043-.179.004-.259.032-.054.082-.094.14-.114.336-.145,1.248-.535,1.633-.034l.125.156c.45.556.844,1.092.729,1.539-.034.13-.127.307-.38.409-.17.069-.325.099-.464.099ZM245.85,144.142c.13.219.321.529.474.715l.076.093c.288.361.485.575.904.404.063-.026.07-.048.071-.057.06-.23-.441-.848-.63-1.081l-.132-.166h0s-.121-.147-.762.091Z"/><path class="cls-2" d="M246.559,144.988c-.335-.39-.937-.796-1.409-1.186-.267-.003-1.356.334-1.589.754-.103.186.105.798.048,1.314-.05.458,1.398-.436,1.59-.249.343.335,1.623-.238,1.36-.635Z"/><path class="cls-10" d="M243.748,146.265c-.101,0-.189-.024-.263-.081-.1-.077-.15-.201-.134-.34.025-.226-.01-.486-.04-.715-.041-.307-.07-.528.023-.697.299-.538,1.511-.869,1.82-.889.06,0,.117.022.163.06.142.118.297.237.452.356.363.28.739.57.989.861.007.008.014.017.02.026.121.183.132.477-.201.752-.372.308-1.111.544-1.499.264-.11.017-.355.111-.522.176-.329.126-.597.229-.807.229ZM245.066,144.07c-.325.05-1.133.351-1.277.613-.007.039.019.234.038.376.026.196.057.429.052.662.143-.039.35-.118.49-.172.486-.186.808-.31,1.012-.113.023.023.149.051.375-.007.291-.075.512-.233.567-.315-.217-.239-.55-.495-.873-.744-.131-.101-.261-.201-.384-.3Z"/><path class="cls-2" d="M244.165,144.908c-.224.194-.78.791-.634,1.101.247.521.27,1.25.163,1.472l1.126-1.258c.455.627.973.385,1.325.086.333-.283-.462-.962-.697-1.231-.562-.642-1.017-.402-1.284-.17Z"/><path class="cls-10" d="M243.695,147.742c-.039,0-.077-.008-.113-.026-.13-.063-.183-.218-.122-.348.065-.133.056-.785-.164-1.248-.261-.552.599-1.323.698-1.409.541-.472,1.128-.402,1.65.196.039.044.094.1.157.165.384.392.701.744.685,1.088-.006.138-.066.258-.172.348-.325.277-.643.4-.956.362-.284-.034-.535-.2-.748-.494-.085-.116-.059-.279.057-.364.118-.085.279-.058.364.058.125.171.255.266.389.282.196.026.411-.119.556-.242-.005-.121-.413-.538-.547-.675-.071-.072-.133-.136-.177-.186-.414-.472-.684-.348-.917-.146-.322.28-.593.686-.567.797.272.574.31,1.383.161,1.693-.045.093-.138.147-.235.147Z"/><path class="cls-2" d="M245.584,146.568c-.385-.237-.885-.752-1.207-.484-.322.269-.868,1.331-.868,1.817l1.048-.42c.53.34,1.043.3,1.391,0,.41-.353.021-.677-.364-.914Z"/><path class="cls-10" d="M243.508,148.162c-.144,0-.26-.117-.26-.26,0-.564.582-1.701.962-2.017.404-.337.892.019,1.249.28.091.066.179.131.262.182.294.181.633.434.661.781.011.139-.026.347-.263.552-.458.393-1.111.402-1.702.022-.122-.078-.156-.239-.079-.36.077-.122.24-.156.359-.079.403.258.797.266,1.081.022.054-.046.086-.091.084-.116-.002-.03-.039-.147-.415-.379-.094-.057-.193-.13-.296-.205-.194-.141-.52-.376-.608-.3-.273.228-.775,1.217-.775,1.617,0,.144-.117.26-.26.26Z"/><path class="cls-2" d="M253.24,148.014c-.032-.67.022-1.639-.5-2.01-.846-.601-3.006-1.232-3.662-1.375-1.045-.228-2.339-.657-2.794-.024-.398.553.492,1.023.356,1.445-.136.422-.578.57-.536.969.084.804.627.6.712.967.084.367-.206.388.023.864.141.294.393.228.514.368.096.111.133.637.585.654.61.023,1.985.524,2.687.681.302.067,12.08,3.91,13.888,3.38l1.057-5.15c-1.151-.625-12.308-.322-12.33-.768Z"/><path class="cls-10" d="M264.056,154.239c-1.656,0-5.868-1.061-12.806-3.223-.39-.122-.633-.198-.683-.21-.258-.058-.609-.162-.98-.272-.611-.182-1.303-.388-1.659-.402-.508-.019-.67-.458-.748-.669-.014-.036-.023-.068-.036-.091.006.013-.035-.002-.063-.012-.128-.045-.343-.12-.476-.398-.165-.342-.123-.535-.061-.719.026-.079.039-.116.02-.2-.005-.023-.019-.035-.127-.093-.196-.105-.525-.28-.59-.905-.035-.339.158-.555.313-.729.099-.11.192-.214.235-.347.019-.059-.097-.229-.173-.341-.192-.283-.482-.711-.147-1.177.494-.686,1.619-.417,2.612-.182.153.036.304.072.449.104.834.183,3.581,1.179,3.953,1.693.196.27.34.757.405,1.786.549.122,2.817.165,4.834.204,4.043.078,6.74.154,7.368.495.126.069.173.227.104.353-.069.127-.227.172-.353.105-.562-.306-4.358-.379-7.129-.432-5.168-.1-5.317-.166-5.336-.552-.048-1.036-.233-1.446-.367-1.745-.168-.375-2.57-1.174-3.59-1.397-.149-.032-.302-.069-.458-.106-.834-.198-1.78-.422-2.069-.021-.106.147-.057.267.156.58.156.231.334.493.237.793-.076.237-.224.402-.341.535-.141.158-.194.227-.183.328.037.349.155.412.318.499.139.074.329.176.389.436.052.227.003.374-.033.481-.033.099-.05.149.037.328.04.083.081.097.18.132.086.03.205.072.297.179.056.065.085.143.119.234.084.228.142.324.279.33.421.016,1.116.223,1.788.423.358.107.696.208.946.264.042.009.302.09.724.221,9.542,2.974,12.352,3.361,13.034,3.163.139-.04.283.039.323.177.041.138-.039.283-.177.323-.131.039-.307.057-.53.057Z"/><path class="cls-2" d="M267.949,165.535s12.083-11.151,19.896-15.839c7.813-4.688,13.787-3.609,13.787-3.609,1.042-.599,2.328-.604,3.37-.005l-12.578-7.266c-1.047-.604-2.339-.604-3.385,0,0,0-5.974-1.078-13.787,3.609-7.813,4.688-19.896,15.839-19.896,15.839-1.208.698-1.953,1.984-1.953,3.38v8.104l12.594,7.271v-8.104c0-1.396.745-2.682,1.953-3.38Z"/><path class="cls-10" d="M265.995,177.28c-.045,0-.09-.011-.13-.035l-12.594-7.271c-.081-.046-.131-.133-.131-.225v-8.104c0-1.482.798-2.864,2.084-3.605.074-.078,12.146-11.189,19.892-15.837,7.37-4.422,13.051-3.782,13.873-3.657,1.109-.602,2.466-.587,3.563.046l12.578,7.264s0,0,0,0h0c.124.072.167.231.095.356-.072.125-.234.166-.356.096h0c-.958-.55-2.149-.547-3.11.005-.054.031-.115.041-.176.031-.06-.009-5.979-1-13.607,3.577-7.7,4.62-19.732,15.695-19.853,15.807-.014.013-.029.025-.046.034-1.125.65-1.823,1.859-1.823,3.155v8.104c0,.093-.05.179-.131.226-.04.023-.085.035-.13.035ZM253.662,169.599l12.073,6.97v-7.654c0-1.472.788-2.845,2.058-3.591.576-.529,12.325-11.296,19.918-15.852,7.37-4.422,13.051-3.782,13.873-3.657.522-.283,1.098-.429,1.676-.439l-10.968-6.335c-.962-.555-2.16-.556-3.125,0-.053.031-.116.042-.176.031-.06-.01-5.979-1-13.607,3.577-7.7,4.62-19.732,15.695-19.853,15.807-1.171.684-1.869,1.892-1.869,3.189v7.954ZM267.948,165.536h.007-.007Z"/><path class="cls-2" d="M344.309,168.775l-39.292-22.688c-.005-.005-.01-.005-.016-.005-1.042-.599-2.328-.594-3.37.005,0,0-5.974-1.078-13.787,3.609-7.813,4.688-19.896,15.839-19.896,15.839-1.208.698-1.953,1.984-1.953,3.38v8.104l43.183,24.932,37.188-21.469v-8.151c0-1.469-.786-2.823-2.057-3.557Z"/><path class="cls-10" d="M309.178,202.213c-.045,0-.09-.011-.13-.035l-43.183-24.932c-.081-.047-.131-.133-.131-.226v-8.104c0-1.482.798-2.863,2.083-3.605.075-.078,12.147-11.189,19.893-15.837,7.37-4.422,13.051-3.782,13.873-3.657,1.101-.595,2.442-.586,3.53.03.011.005.023.01.033.016h0s39.292,22.688,39.292,22.688h0c1.349.78,2.187,2.229,2.187,3.782v8.151c0,.093-.05.179-.131.226l-37.188,21.469c-.04.023-.085.035-.13.035ZM266.256,176.87l42.922,24.782,36.928-21.318v-8.001c0-1.368-.738-2.645-1.927-3.332l-39.272-22.676c-.012-.005-.023-.01-.035-.017-.957-.55-2.149-.548-3.111.005-.054.031-.115.041-.176.031-.06-.009-5.979-1-13.607,3.577-7.699,4.62-19.732,15.695-19.853,15.807-1.171.684-1.869,1.893-1.869,3.189v7.954Z"/><path class="cls-10" d="M306.973,191.371c-.045,0-.089-.011-.13-.035l-51.285-29.61c-.125-.072-.168-.231-.096-.356.072-.125.233-.168.356-.095l51.285,29.609c.125.072.168.231.096.356-.048.084-.136.131-.226.131Z"/><path class="cls-10" d="M309.179,199.13c-.143,0-.26-.116-.26-.26l-.023-6.358c-.019-.108.032-.216.127-.271l35.061-20.242c.122-.072.283-.029.356.095.072.125.029.284-.096.356l-34.907,20.154.004,6.266c0,.144-.117.26-.261.26Z"/><path class="cls-10" d="M312.37,158.954c-.041,0-.082-.009-.12-.029-1.449-.755-2.501-1.281-3.308-1.685q-2.716-1.359-5.643-3.938c-.506-.446-1.101-.971-1.814-1.593-1.05-.918-2.092-1.902-3.099-2.854-3.31-3.127-6.733-6.362-11.038-7.777-.137-.045-.211-.192-.166-.328.045-.137.192-.213.329-.166,4.415,1.451,7.881,4.726,11.233,7.893,1.003.949,2.041,1.929,3.084,2.84.713.624,1.309,1.148,1.816,1.595q2.876,2.535,5.531,3.863c.81.405,1.865.933,3.316,1.689.128.066.177.224.111.351-.047.089-.137.14-.231.14Z"/><polygon class="cls-3" points="348.757 47.775 371.214 60.74 394.745 74.326 394.745 111.56 392.942 112.601 370.85 99.846 369.411 99.015 369.047 98.805 346.954 86.05 346.954 48.816 348.757 47.775"/><line class="cls-11" x1="353.435" y1="53.484" x2="362.519" y2="69.219"/><line class="cls-11" x1="350.017" y1="51.51" x2="359.102" y2="67.246"/><line class="cls-11" x1="382.616" y1="70.649" x2="391.701" y2="86.384"/><line class="cls-11" x1="379.198" y1="68.676" x2="388.283" y2="84.411"/><g id="Axo_Compound_Extrusion"><g id="Axo_Extrusion-8"><g id="Axo_Inversion"><g id="Axo_Surface-9"><polygon id="Axo_panel-13" class="cls-3" points="347.175 85.287 347.175 49.994 349.117 48.873 349.117 84.166 347.175 85.287"/><polygon id="Axo_panel-14" class="cls-3" points="368.908 97.834 347.175 85.287 349.117 84.166 370.85 96.713 368.908 97.834"/></g></g><g id="Axo_Inversion-2"><g id="Axo_Surface-10"><polygon id="Axo_panel-15" class="cls-3" points="370.85 98.956 370.85 63.662 372.792 62.541 372.792 97.834 370.85 98.956"/><polygon id="Axo_panel-16" class="cls-3" points="392.582 111.503 370.85 98.956 372.792 97.834 394.524 110.382 392.582 111.503"/></g></g><g id="Axo_Surface-11"><polygon id="Axo_panel-17" class="cls-3" points="394.646 74.995 394.646 115.101 396.588 113.98 396.588 73.873 394.646 74.995"/></g><g id="Axo_Surface_-5"><polygon id="Axo_panel-18" class="cls-3" points="345.111 46.396 369.3 60.361 394.646 74.995 396.588 73.873 371.242 59.24 347.053 45.274 345.111 46.396"/></g></g><g id="Axo_compound_cap"><path id="Axo_Compound" class="cls-3" d="M392.582,111.503v-35.293l-21.732-12.547v35.293l21.732,12.547ZM347.175,85.287l21.732,12.547v-35.293l-21.732-12.547v35.293ZM345.111,46.396l24.189,13.966,25.345,14.633v40.106l-23.796-13.739h0l-1.549-.894-.393-.227h0l-23.796-13.739v-40.106Z"/></g></g><path class="cls-2" d="M398.123,74.632v46.179l-.019.013c-1.673.599-3.291-.781-3.897-1.009-1.628-.618-2.386.049-4.359-1.084-2.305-1.322-1.657-2.451-3.962-3.773-2.301-1.322-2.949-.192-5.251-1.514-2.305-1.322-1.657-2.451-3.958-3.773-2.301-1.322-2.949-.192-5.254-1.514-2.301-1.322-1.654-2.448-3.955-3.77-2.305-1.322-2.952-.192-5.254-1.514-2.305-1.322-1.654-2.451-3.958-3.773-2.302-1.322-2.949-.192-5.251-1.51-2.305-1.322-1.657-2.451-3.958-3.773-2.302-1.322-2.949-.192-5.254-1.514-2.301-1.322-1.654-2.451-3.955-3.77,0,0,2.796-2.018,3.223-6.712.426-4.697,1.042-38.379,1.042-38.379l.586.339s.006.003.01.006c1.634,1.169,1.296,2.207,3.382,3.402,2.012,1.156,2.76.44,4.453,1.12.003.003.007.003.007.003l1.559.902c1.416,1.11,1.188,2.113,3.19,3.262,1.94,1.11,2.705.488,4.274,1.048.003.003.006.003.01.003l1.885,1.091c1.253,1.064,1.113,2.034,3.04,3.141,1.888,1.084,2.663.521,4.147,1.009l2.119,1.224s.006.003.01.007c1.143,1.025,1.068,1.973,2.936,3.047,1.829,1.048,2.614.55,4.017.967l2.353,1.357c1.042.993,1.022,1.917,2.839,2.959,1.787,1.025,2.578.576,3.913.937l2.536,1.465c.967.964.993,1.868,2.764,2.884,1.738.996,2.533.599,3.809.908l.182.107Z"/><path class="cls-10" d="M397.232,121.234c-1.052,0-1.998-.55-2.62-.911-.205-.119-.383-.222-.495-.264-.643-.244-1.136-.277-1.659-.311-.755-.049-1.536-.101-2.739-.792-1.204-.69-1.642-1.339-2.066-1.966-.408-.605-.794-1.175-1.895-1.807-1.098-.631-1.785-.675-2.513-.723-.754-.049-1.535-.1-2.738-.791-1.205-.691-1.643-1.34-2.066-1.967-.408-.604-.793-1.176-1.892-1.806-1.098-.631-1.786-.675-2.513-.723-.755-.049-1.536-.1-2.741-.791-1.203-.691-1.641-1.338-2.063-1.964-.408-.604-.793-1.174-1.891-1.805-1.1-.631-1.788-.676-2.516-.723-.755-.049-1.535-.1-2.738-.791-1.205-.691-1.642-1.339-2.066-1.967-.408-.605-.793-1.175-1.893-1.806-1.099-.631-1.786-.675-2.514-.723-.754-.049-1.534-.099-2.736-.787-1.206-.692-1.644-1.34-2.068-1.968-.408-.604-.794-1.175-1.891-1.805-1.098-.631-1.786-.675-2.513-.723-.755-.049-1.536-.1-2.741-.791-1.203-.691-1.641-1.339-2.063-1.966-.408-.604-.794-1.175-1.891-1.804-.077-.044-.126-.124-.131-.212-.005-.088.035-.173.107-.225.026-.02,2.707-2.016,3.116-6.525.42-4.634,1.034-38.024,1.04-38.36.001-.092.052-.176.132-.222.081-.045.178-.045.259.001l.586.339h0c.029.016.054.036.075.059.728.512,1.083,1.038,1.426,1.546.407.603.792,1.173,1.89,1.802,1.101.632,1.788.677,2.516.724.562.036,1.143.074,1.906.38.008.003.015.006.022.01.006.003.011.006.017.009l1.56.902c.663.517.984.994,1.296,1.454.408.605.793,1.176,1.893,1.807,1.101.63,1.789.674,2.517.721.513.033,1.044.068,1.715.307,0,0,.002,0,.003.001.017.006.034.013.05.022l1.885,1.091c.569.478.863.913,1.147,1.334.408.604.793,1.175,1.893,1.807,1.099.632,1.786.676,2.514.724.479.031.975.063,1.585.264l2.168,1.246c.017.009.033.02.048.032.47.422.743.826,1.007,1.216.408.604.795,1.175,1.891,1.805,1.096.628,1.783.673,2.51.721.443.029.901.059,1.45.222l2.41,1.381c.451.42.702.792.945,1.152.408.605.794,1.177,1.893,1.807,1.101.632,1.788.676,2.516.723.411.027.837.054,1.335.189.022.006.043.015.063.026l2.536,1.465c.019.011.037.025.053.041.357.356.591.703.818,1.038.408.604.793,1.175,1.892,1.805,1.1.631,1.788.675,2.516.722.38.025.772.049,1.223.159.025.006.048.015.071.028l.183.107c.079.047.128.132.128.225v46.179c0,.087-.043.168-.115.216-.018.012-.057.035-.078.042-.325.117-.647.165-.96.165ZM340.287,88.502c.966.618,1.362,1.203,1.746,1.772.408.604.793,1.175,1.891,1.806,1.099.63,1.787.675,2.515.723.755.049,1.536.1,2.739.791,1.202.69,1.64,1.339,2.063,1.965.408.605.794,1.176,1.896,1.808,1.097.629,1.783.673,2.51.719.755.049,1.536.099,2.741.791,1.204.691,1.641,1.339,2.065,1.966.408.605.793,1.176,1.893,1.807,1.098.63,1.785.675,2.513.722.755.049,1.536.1,2.741.791,1.203.691,1.64,1.338,2.063,1.964.408.604.793,1.174,1.891,1.805,1.1.63,1.787.675,2.516.723.754.049,1.535.1,2.738.791,1.203.69,1.641,1.339,2.064,1.966.408.605.794,1.176,1.894,1.807,1.098.63,1.786.675,2.513.723.755.049,1.535.1,2.738.791,1.205.691,1.643,1.339,2.067,1.966.409.605.794,1.175,1.894,1.806,1.098.631,1.786.676,2.513.723.538.035,1.094.071,1.809.343.152.057.337.165.572.301.744.432,1.851,1.075,2.991.755v-45.846l-.02-.012c-.392-.091-.735-.113-1.097-.137-.756-.049-1.537-.099-2.743-.79-1.203-.69-1.641-1.339-2.064-1.966-.217-.321-.422-.625-.73-.937l-2.476-1.43c-.434-.114-.806-.138-1.2-.163-.755-.049-1.536-.099-2.741-.791-1.204-.69-1.642-1.339-2.066-1.967-.238-.352-.462-.685-.823-1.029l-2.304-1.32c-.438-.123-.847-.149-1.28-.178-.754-.049-1.534-.1-2.735-.789-1.202-.691-1.64-1.339-2.063-1.965-.254-.375-.495-.73-.9-1.098l-2.103-1.214c-.498-.158-.94-.187-1.407-.217-.755-.049-1.536-.1-2.74-.792-1.204-.692-1.642-1.34-2.065-1.967-.276-.41-.538-.796-1.014-1.201l-1.826-1.051c-.596-.211-1.066-.242-1.562-.274-.756-.049-1.536-.1-2.742-.789-1.206-.692-1.643-1.34-2.066-1.968-.302-.447-.587-.869-1.155-1.315l-1.516-.874c-.678-.27-1.19-.303-1.731-.338-.756-.049-1.536-.1-2.741-.792-1.203-.689-1.641-1.336-2.063-1.963-.331-.491-.645-.954-1.336-1.45l-.197-.114c-.075,3.99-.639,33.596-1.034,37.956-.354,3.897-2.283,5.982-3.034,6.656Z"/><path class="cls-10" d="M352.534,48.57c-.032,0-.066-.006-.097-.019-.685-.275-1.2-.309-1.745-.344-.755-.049-1.536-.1-2.741-.792h0c-1.204-.689-1.641-1.337-2.064-1.963-.332-.492-.646-.956-1.341-1.453-.112-.081-.143-.236-.067-.353.076-.117.23-.154.349-.085l7.836,4.522c.119.068.164.217.104.34-.045.092-.137.147-.234.147ZM346.164,44.935c.053.076.103.151.155.227.407.603.792,1.173,1.89,1.802,0,0,0,0,0,0,1.1.632,1.787.676,2.516.724.078.005.157.01.237.016l-4.799-2.769Z"/><path class="cls-10" d="M361.564,53.785c-.029,0-.059-.005-.088-.015-.602-.215-1.074-.245-1.573-.278-.756-.049-1.536-.1-2.742-.789,0,0,0,0,0,0-1.205-.692-1.642-1.34-2.066-1.967-.302-.447-.587-.869-1.155-1.315-.107-.085-.131-.237-.055-.351.077-.114.228-.148.346-.08l7.464,4.31c.117.067.163.213.106.335-.044.094-.137.151-.236.151ZM357.42,52.251c1.101.629,1.789.674,2.517.721.056.004.112.007.169.011l-4.697-2.712c.04.057.079.115.117.172.408.605.793,1.176,1.893,1.807h0Z"/><path class="cls-10" d="M370.646,59.029c-.027,0-.054-.004-.082-.013-.547-.18-.988-.209-1.456-.239-.755-.049-1.536-.1-2.74-.792-1.204-.692-1.642-1.34-2.065-1.967-.276-.41-.538-.796-1.014-1.201-.103-.087-.122-.239-.045-.348.078-.111.226-.144.343-.075l7.187,4.15c.116.066.162.21.108.332-.043.096-.137.154-.238.154ZM364.658,55.612c.026.038.052.077.078.115.408.604.793,1.175,1.893,1.807h0c1.099.632,1.786.676,2.514.724.036.002.073.005.109.007l-4.593-2.653Z"/><path class="cls-10" d="M379.728,64.274c-.025,0-.05-.003-.074-.011-.494-.146-.903-.173-1.336-.202-.754-.049-1.534-.1-2.735-.789h0c-1.201-.691-1.639-1.339-2.063-1.965-.258-.381-.501-.741-.917-1.114-.1-.089-.116-.238-.037-.346.079-.108.225-.14.341-.072l6.953,4.014c.115.066.162.207.109.328-.042.097-.137.157-.239.157ZM375.841,62.821c1.097.628,1.783.673,2.51.721.014.001.029.002.043.003l-4.486-2.59c.014.02.028.041.042.061.408.604.795,1.175,1.891,1.805h0Z"/><path class="cls-10" d="M388.833,69.527c-.023,0-.045-.003-.068-.009-.448-.121-.829-.146-1.233-.172-.755-.049-1.536-.099-2.741-.791h0c-1.204-.69-1.642-1.339-2.066-1.967-.238-.352-.462-.685-.823-1.029-.095-.091-.108-.239-.029-.344.079-.106.225-.136.338-.07l6.751,3.896c.113.065.161.205.111.325-.042.099-.138.16-.241.16ZM383.152,66.289s.003.005.005.008c.408.605.794,1.177,1.893,1.807h0c1.091.626,1.776.675,2.496.722l-4.395-2.537Z"/><path class="cls-10" d="M397.941,74.785c-.02,0-.041-.002-.061-.008-.408-.098-.76-.121-1.134-.145-.756-.049-1.537-.099-2.743-.79-1.203-.69-1.641-1.339-2.064-1.966-.223-.329-.433-.641-.753-.96-.093-.093-.103-.239-.023-.343.08-.103.225-.132.337-.068l6.572,3.793c.112.065.16.202.112.322-.04.101-.137.164-.242.164ZM392.398,71.626c.398.589.791,1.149,1.864,1.764,1.059.607,1.736.671,2.433.717l-4.297-2.48Z"/><path class="cls-10" d="M387.999,116.985c-.042,0-.084-.01-.123-.031-.127-.068-.174-.226-.106-.353,2.186-4.061,2.632-21.06,2.636-21.231v-24.757c0-.144.116-.261.26-.261s.26.117.26.261v24.764c-.017.711-.454,17.301-2.698,21.471-.048.087-.137.137-.229.137Z"/><path class="cls-10" d="M378.579,111.38c-.042,0-.085-.01-.124-.031-.126-.068-.174-.226-.106-.353,2.186-4.058,2.635-21.06,2.639-21.231v-24.588c0-.144.117-.26.26-.26.144,0,.261.117.261.26v24.595c-.017.711-.457,17.304-2.701,21.471-.048.087-.137.137-.23.137Z"/><path class="cls-10" d="M369.158,105.778c-.042,0-.085-.01-.124-.031-.126-.068-.174-.226-.106-.353,2.188-4.061,2.635-21.06,2.639-21.231v-24.425c0-.144.117-.26.26-.26.144,0,.26.117.26.26v24.432c-.017.711-.454,17.301-2.701,21.471-.048.088-.137.137-.229.137Z"/><path class="cls-10" d="M359.737,100.172c-.042,0-.084-.01-.124-.031-.126-.068-.174-.226-.106-.353,2.188-4.058,2.635-21.059,2.639-21.231v-24.259c0-.144.117-.26.261-.26s.26.117.26.26v24.265c-.017.711-.454,17.304-2.701,21.471-.048.088-.137.137-.23.137Z"/><path class="cls-10" d="M350.32,94.57c-.042,0-.084-.01-.123-.031-.127-.068-.174-.226-.106-.353,2.184-4.061,2.633-22.691,2.638-22.879v-22.445c0-.144.117-.26.26-.26.144,0,.26.117.26.26v22.451c-.017.778-.457,18.949-2.7,23.12-.047.087-.137.137-.229.137Z"/><polygon id="Axo_panel-19" class="cls-2" points="397.476 76.795 397.476 79.652 401.3 77.445 401.3 74.587 397.476 76.795"/><path class="cls-10" d="M397.476,79.913c-.045,0-.09-.012-.13-.035-.081-.046-.131-.132-.131-.225v-2.858c0-.093.05-.179.131-.225l3.823-2.207c.08-.047.18-.047.26,0,.081.046.131.133.131.225v2.858c0,.093-.05.179-.131.225l-3.823,2.207c-.04.023-.085.035-.13.035ZM397.737,76.945v2.256l3.302-1.906v-2.256l-3.302,1.906Z"/><polygon id="Axo_panel-20" class="cls-13" points="341.911 44.714 397.476 76.795 401.3 74.587 345.735 42.507 341.911 44.714"/><path class="cls-10" d="M397.476,77.055c-.045,0-.09-.012-.13-.035l-55.565-32.08c-.081-.046-.131-.133-.131-.225s.05-.179.131-.225l3.823-2.208c.08-.047.18-.047.26,0l55.565,32.081c.081.046.131.133.131.225s-.05.179-.131.225l-3.823,2.207c-.04.023-.085.035-.13.035ZM342.432,44.714l55.044,31.779,3.302-1.906-55.044-31.78-3.302,1.907Z"/><polygon id="Axo_base-9" class="cls-2" points="341.911 44.714 341.911 47.572 397.476 79.652 397.476 76.795 341.911 44.714"/><path class="cls-10" d="M397.476,79.913c-.045,0-.09-.012-.13-.035l-55.565-32.08c-.081-.046-.131-.133-.131-.225v-2.858c0-.093.05-.179.131-.225.08-.047.18-.047.26,0l55.565,32.08c.081.046.131.133.131.225v2.858c0,.093-.05.179-.131.225-.04.023-.085.035-.13.035ZM342.172,47.422l55.044,31.779v-2.256l-55.044-31.779v2.256Z"/><path class="cls-8" d="M254.417,138.254s.707-.226.998-1.195"/><path class="cls-8" d="M253.228,137.869c-.003-.367.2-1.309,1.473-1.792"/><path class="cls-8" d="M256.944,139.958c-.066.545-.442,1.151-.795,1.392"/><path class="cls-6" d="M258.674,124.675c.104.009.199.059.185.208-.013.133-.09.191-.224.179l-1.996-.174c-.125-.011-.341-.03-.318-.255.014-.13.103-.208.219-.312l1.884-1.705-1.635-.143c-.108-.01-.205-.061-.19-.212.014-.137.098-.187.229-.175l1.913.167c.115.01.327.029.305.254-.013.13-.104.211-.21.305l-1.889,1.711,1.729.151Z"/><path class="cls-6" d="M257.64,128.093c.049.019.152.066.099.202-.041.105-.112.126-.212.088l-1.219-.471c-.088-.034-.255-.099-.188-.268.039-.101.122-.138.229-.189l1.429-.691-.96-.371c-.035-.014-.157-.061-.102-.204.041-.105.113-.125.215-.086l1.17.452c.083.032.245.095.178.267-.038.098-.124.139-.22.184l-1.436.693,1.018.394Z"/><path class="cls-6" d="M262.156,120.737c.225.048.213.219.198.288-.033.154-.14.216-.298.183l-3.14-.665c-.164-.035-.417-.088-.36-.355.032-.155.144-.238.324-.367l3.404-2.474-2.685-.568c-.22-.046-.217-.196-.197-.287.031-.15.128-.219.297-.184l3.022.64c.13.028.389.083.333.345-.034.16-.171.249-.311.353l-3.413,2.494,2.824.598Z"/></g></svg>