<svg id="レイヤー_1" data-name="レイヤー 1" xmlns="http://www.w3.org/2000/svg" viewBox="0 0 70 56"><defs><style>.cls-1{fill:#f63402;}</style></defs><path class="cls-1" d="M62.41,1A6.6,6.6,0,0,1,69,7.59V48.41A6.6,6.6,0,0,1,62.41,55H7.59A6.6,6.6,0,0,1,1,48.41V7.59A6.6,6.6,0,0,1,7.59,1H62.41m0-1H7.59A7.62,7.62,0,0,0,0,7.59V48.41A7.62,7.62,0,0,0,7.59,56H62.41A7.62,7.62,0,0,0,70,48.41V7.59A7.62,7.62,0,0,0,62.41,0Z"/><path class="cls-1" d="M16.65,26.47c0-.36-.16-1-.27-1.51L15.17,19.4c-.12-.58-.22-1.15-.32-1.91-.13.85-.24,1.43-.34,1.91L13.31,25a13.68,13.68,0,0,0-.26,1.51h-1.5c-.06-.37-.06-.37-.31-1.54L9.45,16.35c-.2-.87-.31-1.33-.46-1.78H10.8A11.09,11.09,0,0,0,11,16.19l1.05,5.69c.08.46.2,1.23.27,1.75.14-.93.22-1.35.31-1.76L13.9,16.1a15.28,15.28,0,0,0,.25-1.53h1.38c0,.36.14.94.26,1.5l1.27,5.75c.08.39.14.69.32,1.81.05-.34.05-.34.12-.87,0-.24.12-.82.15-1l1.05-5.64a10.56,10.56,0,0,0,.19-1.6H20.7a16.39,16.39,0,0,0-.44,1.78l-1.81,8.57c-.08.41-.14.68-.16.82a4.36,4.36,0,0,0-.12.73Z"/><path class="cls-1" d="M28.49,26.58A6.8,6.8,0,0,0,27,26.47H23.51c-.67,0-1,0-1.43.05a15.69,15.69,0,0,0,.09-2V16.45a16.83,16.83,0,0,0-.09-1.92c.45,0,.74,0,1.43,0h3.41a9.75,9.75,0,0,0,1.46-.1v2a7.22,7.22,0,0,0-1.46-.11H23.67v3.08h2.75a9.39,9.39,0,0,0,1.46-.1v2a6.56,6.56,0,0,0-1.46-.11H23.66v3.53h3.39a8.62,8.62,0,0,0,1.44-.1Z"/><path class="cls-1" d="M31.72,26.47c-.66,0-1,0-1.45.05a14.07,14.07,0,0,0,.1-2V16.38a17.72,17.72,0,0,0-.09-1.84c.48,0,.66,0,1.42,0h2.67c1.75,0,2.73,1,2.73,2.92a3.14,3.14,0,0,1-.63,2.1,1.81,1.81,0,0,1-.89.63,2,2,0,0,1,1.14.69,3.52,3.52,0,0,1,.7,2.29c0,2.09-1.05,3.27-2.93,3.27Zm2.49-7c.86,0,1.37-.61,1.37-1.63a1.76,1.76,0,0,0-.3-1.1,1.35,1.35,0,0,0-1.08-.46H31.86v3.19Zm-2.35,5.34h2.43c1,0,1.57-.66,1.57-1.87a1.92,1.92,0,0,0-.36-1.3,1.56,1.56,0,0,0-1.23-.51H31.86Z"/><path class="cls-1" d="M39.37,15.51c0-.46,0-.71,0-1.37a5.55,5.55,0,0,0,.83,0h1.66a3.1,3.1,0,0,0,.82-.07l.64,1c-.07.2-.11.32-.35,1.14a25.08,25.08,0,0,1-.87,2.56,6.39,6.39,0,0,1,1,3.39c0,.88-.21,1.45-.61,1.7a2.31,2.31,0,0,1-1.44.27,4.73,4.73,0,0,0-.23-1.57,2.85,2.85,0,0,0,.49.06c.44,0,.59-.16.59-.65a5.12,5.12,0,0,0-.25-1.54A6,6,0,0,0,40.81,19a21.07,21.07,0,0,0,1-3.36H40.55V25.78c0,.63,0,1.18.06,1.72H39.3c0-.45.07-1,.07-1.72ZM44.54,21v4.3a11.23,11.23,0,0,0,1.87-.65l0,1.51a37,37,0,0,1-3.61,1.2,3.76,3.76,0,0,0-.57.21L42,25.83a7.4,7.4,0,0,0,1.33-.26V15.83c0-.68,0-1,0-1.6a4.48,4.48,0,0,0,1.08.07h3.23a4.64,4.64,0,0,0,1-.07c0,.36,0,.7,0,1.66v3.48c0,.85,0,1.14.05,1.63l-.32,0,.91,1a3,3,0,0,0-.31.31c-.35.41-1,1.11-1.53,1.56A6.48,6.48,0,0,0,49.54,26a6.46,6.46,0,0,0-.71,1.53,8.69,8.69,0,0,1-2.36-2.9A12,12,0,0,1,45.35,21Zm0-4h3V15.74h-3Zm0,2.64h3V18.26h-3ZM46.44,21a8.22,8.22,0,0,0,.44,1.69A8.75,8.75,0,0,0,48.34,21a4.87,4.87,0,0,0-.55,0Z"/><path class="cls-1" d="M55.35,19.5H53.69a6,6,0,0,0-1.14.08V18a5.62,5.62,0,0,0,1.14.08H58A5.91,5.91,0,0,0,59.18,18v1.59A6,6,0,0,0,58,19.5H56.54v1.92h2.13a4.69,4.69,0,0,0,1.11-.09v1.6a5.74,5.74,0,0,0-1.11-.08H56.54v2.57a9.52,9.52,0,0,0,1.84.15A20.68,20.68,0,0,0,61,25.39a7.19,7.19,0,0,0-.31,1.71c-.93,0-1.52,0-2.41,0-2.64,0-4.12-.76-5-2.57a11,11,0,0,1-1.55,2.93,3.56,3.56,0,0,0-1-1.22,9.74,9.74,0,0,0,2-4.23,12.5,12.5,0,0,0,.22-1.62l1.26.32c-.06.25-.06.26-.16.88-.06.3-.13.64-.3,1.34a3.87,3.87,0,0,0,1.72,2.08Zm-.19-4.79a5.77,5.77,0,0,0-.07-1h1.39a6.55,6.55,0,0,0-.06.94v.57h3c.46,0,.84,0,1.26-.06a9.15,9.15,0,0,0,0,1.1v1.17a11,11,0,0,0,0,1.17H59.51V16.77h-7.3v1.87H51a9.86,9.86,0,0,0,0-1.18V16.3c0-.38,0-.76,0-1.1a12.27,12.27,0,0,0,1.24.06h2.95Z"/><path class="cls-1" d="M10.05,34.33a10.17,10.17,0,0,0,0,1.21c0,2.55-.35,4-1.12,5.29A7,7,0,0,1,6,43.52a5.39,5.39,0,0,0-.9-1.7,4.85,4.85,0,0,0,2-1.27c1.15-1.22,1.52-2.5,1.52-5.33a5.32,5.32,0,0,0-.06-.89Zm4.59-1.89a4.5,4.5,0,0,0-.45,1.05,9.58,9.58,0,0,1-1.74,3,6.62,6.62,0,0,1-1.36,1.24,4.59,4.59,0,0,0-1-1.36A5.39,5.39,0,0,0,11.73,35a6.44,6.44,0,0,0,1.07-1.9H6.87a8.76,8.76,0,0,0-1.54.09V31.32a6.83,6.83,0,0,0,1.56.12h5.9a2.36,2.36,0,0,0,1.09-.13Z"/><path class="cls-1" d="M25.11,33.64a2.81,2.81,0,0,0-.16.82,16.25,16.25,0,0,1-.72,3.62,8.36,8.36,0,0,1-2.79,4.13,9.28,9.28,0,0,1-2.24,1.34,5.9,5.9,0,0,0-.91-1.78,6.45,6.45,0,0,0,2.41-1.24c1.64-1.34,2.49-3.24,2.71-6H17.9v1.92q0,.7,0,1.2H16.42c0-.37,0-.84,0-1.26V34.24c0-.63,0-1,0-1.42a6.69,6.69,0,0,0,1.22.07h2.21V31.61a8.75,8.75,0,0,0-.05-1.1h1.57a7.9,7.9,0,0,0-.06,1.08v1.29h2c.84,0,.84,0,1.11-.12Z"/><path class="cls-1" d="M28.05,43.42a12.71,12.71,0,0,0,.07-1.68V32.16a11.83,11.83,0,0,0-.07-1.53H29.6a15,15,0,0,0,0,1.57V35a30.13,30.13,0,0,1,5.12,3.16l-.79,1.76a25.53,25.53,0,0,0-4-2.85,3.42,3.42,0,0,1-.39-.26,8.71,8.71,0,0,1,0,1v3.95c0,.77,0,1.16,0,1.66Z"/><path class="cls-1" d="M39.15,31a13.57,13.57,0,0,0-.07,1.51L39,41a7.17,7.17,0,0,0,3.09-1.65A8.41,8.41,0,0,0,44.41,36a6.53,6.53,0,0,0,1.08,1.53A10.57,10.57,0,0,1,43,41,9.05,9.05,0,0,1,38.86,43a2.35,2.35,0,0,0-.68.25l-.73-1.15a6.68,6.68,0,0,0,.11-1.54l0-8.07A10.77,10.77,0,0,0,37.55,31Z"/><path class="cls-1" d="M48.6,34.15a20.56,20.56,0,0,1,1.1,3.54l-1.27.54a18.63,18.63,0,0,0-1-3.62Zm6.48.1a4.05,4.05,0,0,0-.16.76,15.3,15.3,0,0,1-1.56,5,9.67,9.67,0,0,1-3.44,3.61A5.33,5.33,0,0,0,49,42.12a7.14,7.14,0,0,0,1.92-1.38,9.12,9.12,0,0,0,2.57-5.19,9.06,9.06,0,0,0,.2-1.72ZM51,33.53A18.07,18.07,0,0,1,52.1,37l-1.26.53a20,20,0,0,0-1-3.52Z"/><path class="cls-1" d="M58.33,43.42a12.71,12.71,0,0,0,.07-1.68V32.16a11.83,11.83,0,0,0-.07-1.53h1.55a15,15,0,0,0,0,1.57V35A30.13,30.13,0,0,1,65,38.14l-.79,1.76a25.53,25.53,0,0,0-4-2.85,3.42,3.42,0,0,1-.39-.26,8.71,8.71,0,0,1,.05,1v3.95c0,.77,0,1.16,0,1.66Z"/></svg>