<svg id="レイヤー_1" data-name="レイヤー 1" xmlns="http://www.w3.org/2000/svg" viewBox="0 0 149 46"><defs><style>.cls-1{fill:#f63402;}.cls-2{fill:none;stroke:#231815;stroke-miterlimit:10;stroke-width:2px;}.cls-3{fill:#fff;}</style></defs><rect class="cls-1" x="1" y="1" width="147" height="44" rx="10"/><rect class="cls-2" x="1" y="1" width="147" height="44" rx="10"/><path class="cls-3" d="M68.33,27.28c.08.22.28.81.48,1.41l.46-1.41L73,16.94a9.51,9.51,0,0,0,.58-2.05h2.07a14.46,14.46,0,0,0-1,2.34L70.39,28.35a15,15,0,0,0-.62,1.88H67.83a10.05,10.05,0,0,0-.64-1.88L62.91,17.23a17.74,17.74,0,0,0-1-2.34H64a14.06,14.06,0,0,0,.58,2.05Z"/><path class="cls-3" d="M87.59,30.23a14,14,0,0,0-1.18-3.45c-1.16-2.77-1.94-3.56-3.53-3.56h-3.7V28a12.29,12.29,0,0,0,.16,2.28H77.48A12.33,12.33,0,0,0,77.64,28V17.15a14.49,14.49,0,0,0-.16-2.32c.7,0,1.26.06,2.18.06h4.39c2.9,0,4.5,1.37,4.5,3.87a3.67,3.67,0,0,1-1.2,3,4.12,4.12,0,0,1-2.16,1c.82.24,1.32.79,2,2.22.48.95,1,2,1.58,3.39a19,19,0,0,0,.9,1.88Zm-3.68-8.4A3.16,3.16,0,0,0,86.17,21a2.67,2.67,0,0,0,.76-2c0-1.71-1-2.64-2.9-2.64H79.18v5.55Z"/><path class="cls-3" d="M96.38,26c-1.12,0-1.64,0-2.26.06a15.81,15.81,0,0,0,.1-2.12V17.07a26.76,26.76,0,0,0-.1-2.69,17.08,17.08,0,0,0,2.14.1h8.36a21.16,21.16,0,0,0,2.13-.1,26.91,26.91,0,0,0-.1,2.69v6.84a15.45,15.45,0,0,0,.1,2.12c-.55,0-1.15-.06-2.23-.06h-1.74v3.65c0,.63.2.69,2.24.69s2.35-.08,2.63-.51a6.77,6.77,0,0,0,.48-2.64,6,6,0,0,0,1.26.54c-.46,3.62-.68,3.8-4.47,3.8a7,7,0,0,1-2.94-.34c-.36-.23-.48-.49-.48-1.13V26H99.06a6,6,0,0,1-1.76,3.67A9.72,9.72,0,0,1,92.18,32a4.41,4.41,0,0,0-.69-1.21A11.5,11.5,0,0,0,94.54,30a5,5,0,0,0,2.78-2.6A4.69,4.69,0,0,0,97.68,26Zm-.92-8.1h10v-2.2h-10Zm0,3.46h10V19h-10Zm0,3.53h10v-2.4h-10Z"/><path class="cls-3" d="M121.12,30.17c0,1.25-.38,1.49-2.24,1.49-.56,0-1.6,0-2.3-.12a5.92,5.92,0,0,0-.42-1.29,20.85,20.85,0,0,0,2.62.22c.92,0,1.06-.06,1.06-.48V25.93h-6a15.26,15.26,0,0,0-2.1.12V24.66a14.89,14.89,0,0,0,2.07.12h6v-.35c0-.4,0-.76-.06-1.19h.84A16.47,16.47,0,0,0,124.2,21h-7.32a17.9,17.9,0,0,0-1.9.1V19.75a18.11,18.11,0,0,0,1.94.1h7.22a8.64,8.64,0,0,0,1.48-.08l.76.81c-.26.2-.26.2-.7.58a22.79,22.79,0,0,1-4.56,3v.63h5.94a14.51,14.51,0,0,0,2.09-.12v1.39a15,15,0,0,0-2.11-.12h-5.92Zm-5.4-13.35a13.38,13.38,0,0,0-1.87-2.62l1.19-.38a19.21,19.21,0,0,1,2,3H120a12,12,0,0,0-1.46-2.9l1.24-.35a17.64,17.64,0,0,1,1.52,3.25h2.2a11.93,11.93,0,0,0,2.06-3.25l1.26.55a18.45,18.45,0,0,1-1.92,2.7h1.56a22.39,22.39,0,0,0,2.29-.08,15.47,15.47,0,0,0-.08,1.68v1.49a9.46,9.46,0,0,0,.11,1.41h-1.32V17.91H113.35V21.3H112a10.51,10.51,0,0,0,.1-1.41V18.4a13.28,13.28,0,0,0-.08-1.68,17.84,17.84,0,0,0,2.27.1Z"/><path class="cls-3" d="M30.06,39.51c-10.64,0-19.29-5.27-19.29-11.75,0-3,1.83-5.86,5.17-8l.73,1.15c-2.93,1.91-4.54,4.36-4.54,6.88,0,5.72,8,10.38,17.93,10.38S48,33.48,48,27.76c0-2.52-1.62-5-4.55-6.88l.74-1.15c3.33,2.17,5.16,5,5.16,8C49.35,34.24,40.7,39.51,30.06,39.51Z"/><polygon class="cls-3" points="17.54 23.47 14.34 17.64 18.82 18.94 17.54 23.47"/><polygon class="cls-3" points="42.59 23.47 45.78 17.64 41.3 18.94 42.59 23.47"/><path class="cls-3" d="M20.59,30.35l1.58-.19a1.49,1.49,0,0,0,.4.93,1.12,1.12,0,0,0,.81.33,1.1,1.1,0,0,0,.85-.39A1.53,1.53,0,0,0,24.57,30a1.4,1.4,0,0,0-.33-1,1.06,1.06,0,0,0-.81-.36,2.82,2.82,0,0,0-.74.12l.18-1.34a1.47,1.47,0,0,0,1-.29,1.05,1.05,0,0,0,.34-.82.93.93,0,0,0-.25-.69.89.89,0,0,0-.68-.26,1,1,0,0,0-.72.29,1.48,1.48,0,0,0-.36.86l-1.5-.26A3.55,3.55,0,0,1,21.18,25a2.22,2.22,0,0,1,.89-.73A2.87,2.87,0,0,1,23.33,24a2.49,2.49,0,0,1,1.93.78A2,2,0,0,1,24.64,28a2,2,0,0,1,1.6,2A2.57,2.57,0,0,1,25.42,32a2.75,2.75,0,0,1-2,.8,2.79,2.79,0,0,1-1.92-.67A2.63,2.63,0,0,1,20.59,30.35Z"/><path class="cls-3" d="M32.79,26.14l-1.58.18a1.2,1.2,0,0,0-.3-.73.93.93,0,0,0-.64-.23,1.05,1.05,0,0,0-.87.47,3.91,3.91,0,0,0-.45,2,1.92,1.92,0,0,1,1.51-.73,2.3,2.3,0,0,1,1.75.79,2.84,2.84,0,0,1,.73,2A2.91,2.91,0,0,1,32.18,32a2.59,2.59,0,0,1-2,.8,2.63,2.63,0,0,1-2.12-1,5.26,5.26,0,0,1-.83-3.32,5.36,5.36,0,0,1,.86-3.4A2.79,2.79,0,0,1,30.37,24a2.42,2.42,0,0,1,1.61.55A2.64,2.64,0,0,1,32.79,26.14Zm-3.7,3.6A1.91,1.91,0,0,0,29.45,31a1.1,1.1,0,0,0,.84.44.94.94,0,0,0,.75-.36,1.78,1.78,0,0,0,.31-1.18A1.87,1.87,0,0,0,31,28.66a1,1,0,0,0-1.61,0A1.66,1.66,0,0,0,29.09,29.74Z"/><path class="cls-3" d="M36.63,24a2.3,2.3,0,0,1,1.93.9,5.68,5.68,0,0,1,.83,3.5,5.79,5.79,0,0,1-.83,3.5,2.31,2.31,0,0,1-1.93.88,2.41,2.41,0,0,1-2-1,5.74,5.74,0,0,1-.76-3.44,5.72,5.72,0,0,1,.83-3.5A2.33,2.33,0,0,1,36.63,24Zm0,1.37a.8.8,0,0,0-.53.19,1.39,1.39,0,0,0-.36.68,9.72,9.72,0,0,0-.17,2.16,9.42,9.42,0,0,0,.15,2.07,1.52,1.52,0,0,0,.38.76.86.86,0,0,0,.53.19.81.81,0,0,0,.53-.2,1.3,1.3,0,0,0,.36-.68,9.51,9.51,0,0,0,.17-2.14,8.7,8.7,0,0,0-.16-2.08,1.44,1.44,0,0,0-.38-.76A.76.76,0,0,0,36.63,25.37Z"/><polygon class="cls-3" points="30.06 5.86 37.61 13.56 35.09 13.56 35.09 20.6 35.09 20.61 31.46 20.61 31.46 17.56 28.66 17.56 28.66 20.61 28.66 20.61 25.03 20.61 25.03 13.56 23.53 13.56 22.5 13.55 30.02 5.9 30.06 5.86"/></svg>