<svg id="レイヤー_1" data-name="レイヤー 1" xmlns="http://www.w3.org/2000/svg" viewBox="0 0 800 640"><defs><style>.cls-1{fill:#d3bc19;stroke:#221714;stroke-miterlimit:10;stroke-width:2px;}.cls-2{fill:#fff;}</style></defs><path class="cls-1" d="M86.74,5.71H713.26a81,81,0,0,1,81,81V553.26a81,81,0,0,1-81,81H86.74a81,81,0,0,1-81-81V86.74A81,81,0,0,1,86.74,5.71Z"/><path d="M713.26,11.43a75.42,75.42,0,0,1,75.31,75.31V553.26a75.42,75.42,0,0,1-75.31,75.31H86.74a75.42,75.42,0,0,1-75.31-75.31V86.74A75.42,75.42,0,0,1,86.74,11.43H713.26m0-11.43H86.74A87.08,87.08,0,0,0,0,86.74V553.26A87.08,87.08,0,0,0,86.74,640H713.26A87.08,87.08,0,0,0,800,553.26V86.74A87.08,87.08,0,0,0,713.26,0Z"/><path class="cls-2" d="M161,501.94c.69,1.95,2.4,7,4.11,12.23,1.72-5.49,2.75-8.57,4-12.23l32.69-89.14a77.82,77.82,0,0,0,5-17.83h18A118.39,118.39,0,0,0,216,415.2l-37.14,96a132.35,132.35,0,0,0-5.37,16.23h-16.8a87.73,87.73,0,0,0-5.6-16.23l-36.8-96a158.39,158.39,0,0,0-8.8-20.23h17.82a119.51,119.51,0,0,0,5,17.83Z"/><path class="cls-2" d="M328.34,527.43a123.09,123.09,0,0,0-10.28-29.83C308,473.71,301.26,467,287.31,467H255.2v40.69a108.12,108.12,0,0,0,1.37,19.77H240a107.46,107.46,0,0,0,1.37-19.54V414.52a125,125,0,0,0-1.37-20h57.14c25.15,0,39.09,11.42,39.09,33.48a31.55,31.55,0,0,1-10.4,25.6A36,36,0,0,1,307,462.29c7.2,2,11.43,6.85,17.72,19.2,4.22,8.11,8.34,17.25,13.71,29.25A154.74,154.74,0,0,0,346.29,527Zm-32-72.46A27.73,27.73,0,0,0,316,447.43a22.88,22.88,0,0,0,6.63-17.6c0-14.86-8.69-22.86-25.26-22.86H255.2v48Z"/><path class="cls-2" d="M415.09,490.63H395.43a120.36,120.36,0,0,0,.91-18.4v-58.4a210.22,210.22,0,0,0-.91-22.86,152.43,152.43,0,0,0,18.63.92h72.57a168.33,168.33,0,0,0,18.51-.92c0,3.66-.8,13.37-.8,22.86v59a138.06,138.06,0,0,0,.8,18.63H470.63V523c0,5.37,1.71,5.94,19.43,5.94s20.46-.68,22.85-4.34A60.34,60.34,0,0,0,517,501.71a50.19,50.19,0,0,0,11.43,4.69c-4,31.2-5.94,32.8-38.86,32.8a61.93,61.93,0,0,1-25.6-3c-3.09-1.94-4.11-4.23-4.11-9.83V490.63H438.4a51.69,51.69,0,0,1-15.54,31.66,85,85,0,0,1-44.46,20.57,34.15,34.15,0,0,0-6.06-10.4,105.49,105.49,0,0,0,26.74-6.74,43.1,43.1,0,0,0,23.78-22.86,40.85,40.85,0,0,0,3.19-11.43Zm-8-69.83H493.6v-19H407.09Zm0,29.72H493.6v-20H407.09Zm0,30.51H493.6V460.34H407.09Z"/><path class="cls-2" d="M629.94,526.86c0,10.74-3.31,12.91-19.43,12.91-4.8,0-13.83,0-19.88-1A56,56,0,0,0,587,527.31a171.55,171.55,0,0,0,22.86,2c7.88,0,9.14,0,9.14-4.23V490.28H566.74a134.75,134.75,0,0,0-18.17,1.15V479.31a131.33,131.33,0,0,0,18.06,1h52.23V467.09h7.2a143.26,143.26,0,0,0,31.08-19.66h-64a143.45,143.45,0,0,0-16.45.91V436.91c4.91,0,10.4.8,16.8.8h62.74A69.39,69.39,0,0,0,669,437l6.63,7a69.36,69.36,0,0,0-6.06,5,195.38,195.38,0,0,1-39.66,25.83V480h51.55a129.87,129.87,0,0,0,18.28-1v12.46a133.12,133.12,0,0,0-18.4-1H629.94v36.46ZM582.86,411.43a115.58,115.58,0,0,0-16.35-22.86L577,385.26a171.3,171.3,0,0,1,17.83,26.17h25.37a103.28,103.28,0,0,0-12.69-25l11.43-3a148.08,148.08,0,0,1,12.57,28h19.09a105,105,0,0,0,17.83-28l11.42,4.69a165.39,165.39,0,0,1-17,23.31h13.6c10,0,13.83,0,19.88-.69a126.09,126.09,0,0,0-.68,14.4v12.92a87.85,87.85,0,0,0,.91,12.23H685.14V421.14H562.52V450.4H551.09a84.89,84.89,0,0,0,.91-12.23V425.26a125.31,125.31,0,0,0-.8-13.83,155.19,155.19,0,0,0,20.23,0Z"/><path class="cls-2" d="M403.77,323c-89.26,0-161.83-43.88-161.83-97.94,0-25,15.43-48.8,43.32-67l6.17,9.6c-24.57,16-38.17,36.34-38.17,57.14,0,47.77,67.54,86.52,150.51,86.52S554.29,272.8,554.29,225c0-21-13.49-41.37-38.18-57.14l6.29-9.6c27.89,18.17,43.31,41.94,43.31,67C565.71,279.09,493,323,403.77,323Z"/><polygon class="cls-2" points="298.74 189.26 271.89 140.57 309.49 151.54 298.74 189.26"/><polygon class="cls-2" points="508.91 189.26 535.77 140.57 498.06 151.54 508.91 189.26"/><path class="cls-2" d="M324.34,246.63,337.6,245A12,12,0,0,0,341,252.8a9,9,0,0,0,6.74,2.74,9.24,9.24,0,0,0,7.09-3.31,12.21,12.21,0,0,0,2.85-8.69,11.4,11.4,0,0,0-2.74-8.23,9,9,0,0,0-6.74-3,23.18,23.18,0,0,0-6.29,1l1.49-11.43a11.43,11.43,0,0,0,8.46-2.4,8.71,8.71,0,0,0,3-6.86,7.92,7.92,0,0,0-2.17-5.71A7.53,7.53,0,0,0,347,204.8a8.21,8.21,0,0,0-5.94,2.4,11.41,11.41,0,0,0-3.09,7.2l-12.57-2.17a28.21,28.21,0,0,1,4-10.4,16.65,16.65,0,0,1,7.32-6.06,25.14,25.14,0,0,1,10.74-2.29A21,21,0,0,1,363.54,200a16.67,16.67,0,0,1,5,11.43,16.91,16.91,0,0,1-10.28,15.08,16.69,16.69,0,0,1,9.82,5.83,17.66,17.66,0,0,1,3.66,11.43,21.46,21.46,0,0,1-6.86,16.11,23.51,23.51,0,0,1-17.14,6.63,22.83,22.83,0,0,1-16-5.6A21.5,21.5,0,0,1,324.34,246.63Z"/><path class="cls-2" d="M426.63,211.54,413.37,213a9.07,9.07,0,0,0-2.51-6.06A7.41,7.41,0,0,0,405.6,205a8.78,8.78,0,0,0-7.31,3.88,31.79,31.79,0,0,0-3.77,16.35,15.84,15.84,0,0,1,12.68-6.17,19.32,19.32,0,0,1,14.63,6.62A23.53,23.53,0,0,1,428,242.63a24.43,24.43,0,0,1-6.4,17.6A22.09,22.09,0,0,1,405,266.86a21.8,21.8,0,0,1-17.71-8.35,43.46,43.46,0,0,1-7-27.65,44.88,44.88,0,0,1,7.2-28.46,22.88,22.88,0,0,1,18.86-8.11,19.63,19.63,0,0,1,13.49,4.57A21.14,21.14,0,0,1,426.63,211.54Zm-31,29.94a15.66,15.66,0,0,0,3.08,10.41,9,9,0,0,0,7,3.65,8.3,8.3,0,0,0,6.4-3,15.87,15.87,0,0,0,2.52-9.83,15.77,15.77,0,0,0-2.74-10.28,8.79,8.79,0,0,0-12.4-1.09,8.63,8.63,0,0,0-1.09,1.09,13.43,13.43,0,0,0-2.74,9Z"/><path class="cls-2" d="M459,194.29a19.77,19.77,0,0,1,16.23,7.42,48.1,48.1,0,0,1,7,29.15,47.5,47.5,0,0,1-7.08,29.25A19.31,19.31,0,0,1,459,267.43a20.23,20.23,0,0,1-16.8-8,47.26,47.26,0,0,1-6.4-28.69,47.56,47.56,0,0,1,7-29.14A19.43,19.43,0,0,1,459,194.29Zm0,11.42a6.31,6.31,0,0,0-4.46,1.61,10.33,10.33,0,0,0-3.08,5.59,82.47,82.47,0,0,0-1.37,18,80.9,80.9,0,0,0,1.25,17.37,12.84,12.84,0,0,0,3.2,6.28,6.8,6.8,0,0,0,4.46,1.6,6.7,6.7,0,0,0,4.34-1.6,10,10,0,0,0,3.09-5.71,81.15,81.15,0,0,0,1.37-17.94,73.46,73.46,0,0,0-1.26-17.26,11.36,11.36,0,0,0-3.2-6.29A6.19,6.19,0,0,0,459,205.71Z"/><polygon class="cls-2" points="403.77 42.4 467.2 106.63 446.06 106.63 446.06 165.37 446.06 165.49 415.54 165.49 415.54 140 392.11 140 392.11 165.49 392.11 165.49 361.6 165.49 361.6 106.63 349.03 106.63 340.46 106.63 403.43 42.86 403.77 42.4"/></svg>