<?xml version="1.0" encoding="UTF-8"?><svg xmlns="http://www.w3.org/2000/svg" viewBox="0 0 455.07 135.73"><defs><style>.d{fill:#002fcd;}.e{fill:#fff;}</style></defs><g id="a"/><g id="b"><g id="c"><g><g><g><g><path class="d" d="M188.18,83.4c0,1.19,.97,2.16,2.17,2.16l55.13-.09c1.19,0,2.16-.97,2.16-2.17l-.07-38.55-59.45,.1,.07,38.55Z"/><g><polygon class="e" points="219.5 52.69 224.48 52.68 225.97 46.95 220.98 46.95 219.5 52.69"/><polygon class="e" points="209.73 52.7 214.71 52.7 216.19 46.96 211.21 46.97 209.73 52.7"/><polygon class="e" points="199.96 52.72 204.94 52.71 206.42 46.98 201.44 46.99 199.96 52.72"/><polygon class="e" points="190.18 52.74 195.17 52.73 196.65 47 191.67 47 190.18 52.74"/><polygon class="e" points="229.27 52.67 234.26 52.66 235.74 46.93 230.75 46.94 229.27 52.67"/><polygon class="e" points="240.53 46.92 239.04 52.65 244.03 52.65 245.51 46.91 240.53 46.92"/></g></g><g><rect class="d" x="181.44" y="21.91" width="59.45" height="10.47" transform="translate(12.32 103.21) rotate(-28.26)"/><g><polygon class="e" points="213.98 28.89 218.37 26.53 216.97 20.78 212.58 23.14 213.98 28.89"/><polygon class="e" points="205.37 33.52 209.76 31.16 208.36 25.4 203.97 27.76 205.37 33.52"/><polygon class="e" points="196.76 38.14 201.15 35.78 199.75 30.03 195.36 32.39 196.76 38.14"/><polygon class="e" points="188.15 42.77 192.54 40.41 191.15 34.66 186.76 37.02 188.15 42.77"/><polygon class="e" points="222.58 24.26 226.98 21.9 225.58 16.15 221.19 18.51 222.58 24.26"/><polygon class="e" points="229.79 13.88 231.19 19.64 235.58 17.28 234.18 11.52 229.79 13.88"/></g></g><polygon class="e" points="211.27 59.35 211.3 78 227.17 68.65 211.27 59.35"/></g><g><path class="d" d="M254.35,28.4c.32,1.16,.83,3.38,1.5,6.66,.04,.2-.04,.33-.23,.38l-1.91,.54c-.14,.04-.26,0-.34-.15-.08-.14-.18-.17-.3-.1-.52,.32-1.1,.56-1.73,.72-1.07,.29-2.04,.22-2.9-.19-.98-.46-1.6-1.33-1.86-2.61-.46-2.25,.67-3.75,3.4-4.5,.56-.16,1.11-.23,1.62-.2,.19,0,.25-.08,.2-.27-.25-.99-.94-1.35-2.06-1.06-.73,.19-1.82,.56-3.28,1.11-.2,.06-.32-.01-.35-.2l-.32-1.59c-.04-.19,.04-.32,.23-.38,1.25-.46,2.31-.81,3.2-1.04,1.4-.36,2.51-.32,3.32,.13,.81,.45,1.42,1.37,1.82,2.74Zm-1.82,3.38c-.05-.23-.14-.39-.27-.5-.43-.38-1.01-.46-1.73-.24-1.24,.38-1.77,1.07-1.59,2.08,.09,.47,.3,.84,.63,1.1,.33,.26,.72,.36,1.19,.28,.12-.02,.27-.06,.46-.11,.76-.21,1.25-.57,1.47-1.07,.07-.16,.08-.36,.04-.61-.02-.11-.08-.42-.2-.94Z"/><path class="d" d="M267.24,24.38c.09,.2,.03,.33-.17,.39l-1.79,.5c-.17,.05-.3-.02-.38-.21-.2-.51-.53-.89-.98-1.13-.45-.24-.93-.3-1.45-.17-1.71,.41-2.25,1.91-1.59,4.49,.26,1.02,.6,1.78,1.02,2.29,.59,.69,1.34,.9,2.24,.63,1.13-.33,1.65-1.11,1.57-2.36-.01-.2,.07-.32,.26-.37l1.79-.5c.2-.06,.31,.01,.33,.2,.36,2.59-.78,4.24-3.4,4.95-3.27,.87-5.37-.5-6.28-4.11-.96-3.79,.22-6.14,3.53-7.07,2.58-.72,4.34,.1,5.29,2.48Z"/><path class="d" d="M276.62,18.23l.29,1.32c.04,.2-.04,.33-.23,.38l-1.79,.5c-.2,.06-.28,.18-.24,.36l1.23,5.46c.18,.79,.52,1.11,1.02,.97,.42-.12,.74-.21,.96-.29,.07-.02,.13,0,.2,.04,.07,.04,.11,.1,.13,.17l.34,1.59c.04,.19-.04,.31-.24,.37-.2,.06-.49,.14-.89,.25l-.59,.17c-.92,.26-1.63,.23-2.12-.09-.49-.32-.87-.93-1.13-1.85-.1-.34-.17-.63-.22-.85l-1.15-5.23c-.04-.19-.16-.25-.35-.2l-1.18,.33c-.18,.05-.3-.02-.34-.22l-.27-1.33c-.04-.2,.03-.33,.21-.38l1.14-.32c.18-.05,.26-.17,.22-.36l-.48-2.16c-.04-.2,.04-.33,.23-.38l1.88-.51c.2-.06,.32,.01,.35,.2l.48,2.16c.04,.19,.16,.25,.35,.2l1.83-.51c.18-.05,.3,.02,.34,.22Z"/><path class="d" d="M282.74,12.21l.54,2.4c.04,.19-.03,.31-.22,.36l-1.89,.53c-.2,.06-.32-.01-.35-.2l-.52-2.41c-.04-.2,.03-.33,.21-.38l1.89-.53c.18-.05,.3,.02,.34,.22Zm1,4.46l2.18,9.83c.04,.19-.04,.31-.24,.36l-1.87,.52c-.2,.06-.32-.02-.36-.22l-2.17-9.81c-.04-.19,.04-.31,.24-.36l1.87-.52c.2-.06,.31,.01,.35,.2Z"/><path class="d" d="M299,17.53c.8,3.66-.35,5.92-3.44,6.79-1.6,.45-2.95,.28-4.04-.51-1.01-.72-1.73-1.92-2.15-3.59-.44-1.72-.38-3.19,.19-4.39,.62-1.29,1.76-2.16,3.44-2.6,1.8-.46,3.26-.1,4.38,1.07,.78,.82,1.32,1.89,1.61,3.23Zm-2.58,.04c-.55-1.97-1.56-2.76-3.02-2.37-.91,.25-1.47,.85-1.7,1.77-.18,.73-.13,1.6,.13,2.6,.23,.88,.57,1.58,1.01,2.1,.58,.69,1.26,.93,2.05,.72,1.78-.47,2.29-2.08,1.52-4.83Z"/><path class="d" d="M311.92,12.12l1.51,6.68c.04,.19-.04,.31-.24,.36l-1.87,.55c-.09,.03-.17,.02-.23-.01-.06-.03-.1-.1-.13-.21l-1.51-6.7c-.15-.68-.32-1.13-.53-1.34-.29-.32-.74-.38-1.35-.2-.78,.25-1.58,.93-2.38,2.05-.11,.16-.15,.34-.1,.54l1.54,6.86c.04,.2-.03,.33-.21,.38l-1.9,.51c-.18,.05-.3-.02-.33-.2l-2.31-10.22c-.04-.19,.04-.31,.24-.36l1.87-.54c.09-.03,.17-.02,.24,0,.07,.03,.11,.1,.12,.21l.06,.3c.02,.11,.08,.15,.2,.11,.03,0,.05-.02,.07-.04,.94-.9,1.85-1.47,2.73-1.72,1.29-.36,2.3-.28,3.05,.25,.68,.5,1.17,1.42,1.47,2.74Z"/><path class="d" d="M323.53,.24l2.25,10.62c.04,.19-.03,.31-.22,.36l-1.82,.51c-.18,.05-.29-.02-.33-.2l-2.45-10.57c-.04-.2,.03-.33,.21-.38l2.01-.56c.18-.05,.3,.02,.34,.22Zm3.03,13.25l.58,2.22c.05,.18-.01,.3-.2,.35l-2.25,.63c-.2,.06-.31-.01-.33-.2l-.4-2.25c-.03-.2,.06-.33,.25-.39l1.99-.56c.18-.05,.3,.01,.35,.2Z"/></g></g><g><path class="d" d="M6.81,115.06c-2.66,2.51-3.94,5.58-3.83,9.22,.08,3.37,1.09,6.14,3.02,8.33,.17,.2,.18,.39,.03,.56l-1.35,1.47c-.19,.2-.37,.21-.56,.03C1.48,132.04,.11,128.64,0,124.46c-.12-4.3,1.54-8.07,4.98-11.32,.19-.19,.37-.18,.56,.03l1.24,1.4c.19,.19,.19,.36,.03,.51Z"/><path class="d" d="M27.53,118.74l-.1,.91c-.03,.24-.08,.47-.15,.71-1.35,4.32-3.59,8.7-6.7,13.15-.12,.17-.28,.19-.48,.05l-2.16-1.55c-.2-.14-.24-.3-.1-.51,1.54-2.29,2.63-3.99,3.28-5.13,.96-1.68,1.76-3.37,2.39-5.08,.08-.22,0-.33-.25-.33H13.34c-.24,0-.35-.13-.33-.38l.13-1.85c.02-.24,.15-.36,.41-.36h13.66c.25,0,.36,.12,.33,.36Z"/><path class="d" d="M39.93,116.71c-.19,2.89-.41,6.3-.69,10.21-.02,.24-.14,.36-.38,.36l-2.59,.03c-.1,0-.19-.03-.25-.1-.07-.07-.09-.15-.08-.25l.66-10.23c.02-.25,.15-.38,.41-.38h2.56c.25,0,.37,.13,.36,.38Zm7.26,1.52c-.73,6.3-1.6,11.67-2.62,16.12-.05,.25-.2,.36-.46,.3l-2.51-.51c-.24-.05-.33-.19-.28-.43,1.07-4.79,1.93-9.97,2.59-15.54,.03-.24,.17-.36,.41-.36l2.54,.03c.25,0,.36,.13,.33,.38Z"/><path class="d" d="M59.43,126.92c.02,.24-.1,.36-.36,.38l-1.68,.13c-.25,.02-.39-.09-.41-.33l-.33-4.47c-.02-.24,.1-.36,.36-.38l1.68-.13c.25-.02,.39,.1,.41,.36l.33,4.44Zm4.6-.48c.02,.24-.09,.36-.33,.38l-1.73,.13c-.25,.02-.39-.1-.41-.36l-.25-4.57c-.02-.24,.09-.36,.33-.38l1.73-.13c.25-.02,.39,.1,.41,.36l.25,4.57Zm7.03-2.92c-1.85,3.83-4.23,7.59-7.16,11.3-.14,.19-.3,.19-.51,.03l-1.68-1.4c-.19-.15-.2-.33-.05-.53,2.88-3.66,5.13-7.2,6.75-10.64,.1-.24,.27-.3,.51-.18l1.96,.94c.22,.1,.28,.26,.18,.48Z"/><path class="d" d="M91.68,119.35l-.1,.91c-.03,.32-.08,.56-.13,.71-1.35,4.32-3.59,8.7-6.7,13.15-.14,.19-.3,.2-.51,.05l-2.13-1.55c-.2-.15-.24-.32-.1-.51,1.54-2.29,2.63-3.99,3.28-5.13,1-1.74,1.79-3.44,2.39-5.08,.08-.22,0-.33-.25-.33l-9.9-.03c-.25,0-.37-.12-.36-.36l.15-1.85c.02-.24,.15-.36,.41-.36h13.63c.25,0,.36,.12,.33,.36Zm5.15-2.36c-.1,1.46-.91,2.18-2.41,2.18s-2.22-.73-2.13-2.18c.08-1.47,.89-2.21,2.41-2.21,.69,0,1.24,.2,1.62,.6,.39,.4,.56,.94,.51,1.61Zm-1.47,0c.03-.63-.21-.95-.74-.96-.54-.02-.83,.29-.86,.91-.03,.66,.21,.99,.74,.99s.83-.31,.86-.94Z"/><path class="d" d="M102.5,130.63c.02,.24-.1,.37-.36,.41l-4.42,.43c-.25,.03-.38-.08-.38-.33l-.08-1.7c-.03-.52,.14-3.9,.51-10.13,.02-.24,.14-.36,.38-.36l2.56-.03c.1,0,.19,.04,.25,.11,.07,.08,.1,.17,.1,.29-.22,3.25-.38,6.22-.48,8.91-.02,.14,0,.23,.08,.28,.07,.05,.15,.07,.25,.05l1.09-.1c.24-.03,.36,.08,.38,.33l.1,1.83Zm15.39-10.26v1.85c0,.24-.12,.36-.36,.38l-2.51,.08c-.25,0-.38,.13-.38,.38l-.13,3.07c-.02,.25,.09,.38,.33,.38h1.8c.25,0,.37,.13,.36,.38l-.05,1.85c-.02,.24-.14,.36-.38,.36-.78-.02-1.41-.03-1.9-.03-.24,0-.37,.12-.41,.36l-.05,.74c-.14,1.37-.59,2.43-1.36,3.19-.77,.75-1.76,1.13-2.96,1.13-1.13,0-2.08-.35-2.84-1.04-.81-.74-1.2-1.7-1.17-2.87,.07-2.52,1.72-3.88,4.95-4.06,.24-.02,.36-.14,.38-.38,.03-.69,.08-1.68,.13-2.97,0-.1-.03-.19-.1-.25-.07-.07-.15-.1-.25-.1l-2.89,.1c-.24,0-.36-.12-.36-.36v-1.85c0-.24,.12-.36,.36-.38l2.97-.1c.25,0,.39-.13,.41-.38l.13-3.88c0-.25,.13-.38,.38-.38l2.56,.03c.25,0,.37,.13,.36,.38l-.13,3.76c0,.1,.03,.19,.1,.25,.07,.07,.15,.1,.25,.1l2.41-.08c.24,0,.36,.12,.36,.36Zm-6.91,9.22c0-.14-.03-.23-.08-.29-.05-.06-.14-.09-.25-.09-.56,.03-1.02,.19-1.4,.46-.37,.27-.56,.6-.56,.99s.09,.66,.27,.86c.18,.2,.48,.3,.9,.28,.66-.02,1.03-.75,1.12-2.21Z"/><path class="d" d="M123.35,133.45c.1,.22,.04,.38-.18,.48l-1.62,.81c-.22,.12-.38,.07-.48-.15-.51-1.08-1.27-2.7-2.29-4.85-.1-.22-.04-.38,.18-.48l1.62-.79c.22-.1,.38-.04,.48,.18,.91,1.86,1.68,3.46,2.29,4.8Z"/><path class="d" d="M148.7,130.14l-.61,1.35c-.1,.2-.25,.26-.46,.18l-.99-.43c-.24-.1-.4-.03-.48,.2-.05,.12-.33,.82-.84,2.11-.08,.22-.24,.28-.46,.18l-1.9-.86c-.22-.1-.28-.27-.18-.51,.34-.74,.63-1.44,.86-2.08,.08-.22,.02-.38-.2-.48l-2.69-1.22c-.22-.1-.32-.28-.3-.53l.51-5.71c.02-.25-.09-.38-.33-.38h-.99c-.24,0-.36-.12-.36-.36l.05-1.45c0-.24,.13-.36,.38-.36h1.09c.25,0,.39-.13,.41-.38l.3-3.66c.02-.24,.15-.35,.41-.33l2.29,.13c.24,.02,.35,.15,.33,.41l-.33,3.45c-.02,.25,.1,.38,.36,.38h3.35c.25,0,.37,.12,.36,.36l-.08,1.45c-.02,.24-.14,.36-.38,.36h-3.45c-.25,0-.39,.13-.41,.38l-.43,4.77c-.02,.24,.08,.41,.3,.51l.36,.15c.2,.09,.35,0,.43-.23,.17-.54,.32-1.04,.46-1.5,.07-.24,.21-.32,.43-.25l1.93,.53c.24,.07,.32,.21,.25,.43l-.56,1.9c-.07,.22,0,.38,.23,.48l1.17,.53c.22,.1,.28,.26,.18,.48Zm14.14-3.07l-.13,1.47c-.02,.24-.15,.36-.41,.36h-2.69c-.25,0-.39,.12-.41,.36-.15,1.62-.47,3.56-.94,5.81-.05,.24-.19,.36-.43,.36l-2.72-.03c-.24,0-.33-.11-.28-.33,.58-2.39,.96-4.32,1.14-5.79,.03-.25-.08-.38-.33-.38h-3.91c-.24,0-.35-.12-.33-.36l.15-1.47c.03-.25,.17-.38,.41-.38h3.86c.25,0,.38-.12,.38-.36,0-1.05-.32-2.13-.96-3.25-.12-.2-.11-.41,.03-.63l1.65-2.54c.39-.59,.82-1.46,1.29-2.59,.1-.24,.03-.36-.23-.36h-4.49c-.24,0-.35-.13-.33-.38l.13-1.68c.02-.25,.15-.38,.41-.38l8.07,.03c.25,0,.37,.12,.36,.36l-.08,1.09c-.02,.27-.06,.5-.13,.69-.63,1.73-1.62,3.71-3,5.94-.12,.2-.14,.42-.05,.66,.36,.91,.52,1.93,.51,3.05,0,.24,.12,.36,.36,.36h2.74c.25,0,.37,.13,.36,.38Z"/><path class="d" d="M179.17,125.3c.02,.24-.09,.36-.33,.38l-2.34,.23c-.24,.02-.36,.15-.36,.41v3.58c0,.24-.13,.37-.38,.41l-5.74,.58c-.24,.02-.33,.15-.28,.41,.19,.75,.46,1.49,.81,2.23,.1,.24,.05,.41-.15,.51l-2.34,1.24c-.22,.12-.38,.06-.48-.18-.59-1.29-1.02-2.78-1.27-4.49-.12-.74,.22-1.16,1.02-1.24l5.13-.56c.25-.02,.38-.15,.38-.41v-1.78c0-.25-.13-.36-.38-.33l-4.9,.46c-.24,.02-.36-.09-.38-.33l-.1-1.85c-.02-.24,.1-.36,.36-.38l5.03-.48c.24-.02,.36-.15,.36-.41v-2.21c0-.24-.12-.36-.36-.36l-6.27,.28c-.24,0-.36-.12-.36-.36v-1.83c0-.25,.13-.39,.38-.41l6.25-.25c.24-.02,.36-.14,.36-.38v-2.84c0-.24,.13-.36,.38-.36l2.59-.03c.25,0,.38,.13,.38,.38l-.03,2.69c0,.25,.13,.37,.38,.36l2.01-.08c.25-.02,.38,.09,.38,.33l-.03,1.85c0,.24-.12,.36-.36,.38l-2.01,.08c-.25,.02-.38,.15-.38,.41v2.03c0,.25,.13,.36,.38,.33l2.16-.2c.25-.02,.39,.09,.41,.33l.08,1.85Z"/><path class="d" d="M195.65,118.01l-.08,1.85c0,.24-.13,.36-.38,.36h-4.82c-.24,0-.37,.13-.41,.38l-.61,4.93c-.02,.24-.15,.36-.41,.36h-2.54c-.25,0-.36-.12-.33-.36l.58-4.93c.03-.24-.08-.36-.33-.36h-1.09c-.25,0-.37-.13-.36-.38l.05-1.83c.02-.25,.15-.38,.41-.38h1.29c.25,0,.4-.12,.43-.36l.3-2.54c.02-.25,.15-.38,.41-.38l2.56,.03c.24,0,.34,.12,.3,.36l-.3,2.51c-.02,.25,.09,.38,.33,.38h4.62c.25,0,.37,.12,.36,.36Zm8.07,4.67l-.08,1.85c0,.25-.13,.37-.38,.36-1.39-.02-2.5-.03-3.33-.05-.24,0-.36,.13-.38,.38-.02,.75-.03,1.35-.05,1.83-.02,.24,.1,.36,.36,.38,.66,.03,1.37,.09,2.13,.15,.24,.02,.35,.15,.33,.41l-.18,1.78c-.03,.24-.18,.35-.43,.33-.85-.1-1.54-.17-2.08-.2-.24-.02-.36,.09-.38,.33-.22,3.17-1.58,4.75-4.09,4.75-1.13,0-2.06-.36-2.78-1.09-.72-.73-1.08-1.62-1.08-2.69,0-1.27,.42-2.24,1.27-2.92,.78-.63,1.85-.95,3.22-.96,.24-.02,.36-.14,.38-.38,.02-.46,.04-1.02,.08-1.68,0-.08-.03-.16-.1-.23-.07-.07-.14-.1-.23-.1l-1.12,.03c-.1,0-.18-.03-.24-.1-.06-.07-.09-.15-.09-.25l.08-1.83c.02-.24,.14-.36,.38-.38,3.15-.07,5.95-.09,8.4-.08,.25,0,.38,.13,.38,.38Zm-7.72,7.46c0-.1-.03-.19-.1-.25-.07-.07-.14-.1-.23-.1-1.02,.08-1.55,.52-1.6,1.29-.02,.39,.08,.69,.3,.9,.22,.21,.47,.32,.74,.32,.46-.02,.73-.41,.81-1.17,.02-.19,.04-.52,.08-.99Z"/><path class="d" d="M224.73,121.56l-.43,7.06c-.02,.25-.15,.38-.41,.38h-10.49c-.24,0-.36,.13-.38,.38l-.18,2.56c-.02,.24,.1,.36,.36,.36,3.67,.03,7.04,0,10.11-.1,.1-.02,.19,.01,.25,.09,.07,.08,.1,.17,.1,.27l-.1,2.13c-.02,.24-.15,.36-.41,.38-4.59,.12-8.87,.14-12.85,.08-.25,0-.39-.12-.41-.36l-.03-1.83,.69-11.4c0-.25,.13-.38,.38-.38h4.39c.24,0,.41-.1,.51-.3,.29-.68,.55-1.37,.79-2.08,.08-.24,0-.37-.23-.41l-3.33-.41c-.25-.03-.44,.05-.56,.25-.83,1.29-1.68,2.53-2.56,3.73-.17,.2-.35,.23-.53,.08l-1.83-1.45c-.19-.15-.21-.33-.08-.53,1.79-2.44,3.42-4.92,4.87-7.44,.12-.2,.29-.25,.51-.15l1.98,.89c.22,.1,.27,.26,.15,.48-.27,.52-.53,1.02-.79,1.47-.12,.22-.06,.35,.18,.38l5.69,.71c.24,.03,.31,.17,.23,.41-.29,.81-.8,2.17-1.55,4.06-.08,.2,0,.3,.23,.3h5.38c.24,0,.35,.13,.33,.38Zm-8.58,2.21c.02-.24-.09-.36-.33-.36h-2.11c-.25,0-.39,.12-.41,.36l-.13,2.67c-.02,.24,.1,.36,.36,.36h2.06c.25,0,.39-.12,.41-.36l.15-2.67Zm5.59,0c.02-.24-.09-.36-.33-.36h-2.21c-.24,0-.36,.12-.38,.36l-.18,2.67c0,.24,.12,.36,.36,.36h2.16c.24,0,.36-.13,.38-.38l.2-2.64Z"/><path class="d" d="M243.98,117.5l-.13,1.75c-.02,.25-.14,.38-.38,.38h-5.33c-.25,0-.4,.12-.43,.36l-.43,2.41c-.05,.24,.03,.42,.25,.56,.51,.3,.99,.68,1.45,1.12,.17,.17,.35,.19,.53,.05,.56-.46,1.18-.95,1.88-1.47,.2-.15,.38-.13,.53,.08l1.45,1.8c.15,.19,.13,.36-.08,.53-.69,.54-1.35,1.07-1.98,1.57-.19,.15-.22,.34-.1,.56,.32,.59,.55,1.05,.69,1.37,.1,.22,.04,.4-.18,.53l-1.47,.81c-.2,.12-.4,0-.58-.33-.1-.24-.21-.47-.32-.7-.11-.23-.26-.25-.44-.06-1.12,1.15-1.68,2.01-1.68,2.59,0,.51,.27,.8,.81,.86,.56,.07,1.63,.04,3.22-.08,.27-.02,.41,.09,.41,.33v1.88c.02,.24-.09,.36-.33,.38-1.56,.1-2.85,.11-3.88,.03-1.1-.07-1.96-.44-2.56-1.1-.61-.67-.87-1.59-.79-2.75,.12-1.4,1.1-2.98,2.95-4.72,.17-.17,.17-.33,0-.48-.83-.71-1.83-1.22-3-1.52-.24-.07-.34-.22-.3-.46l.69-3.76c.05-.25-.05-.38-.3-.38h-1.8c-.24,0-.35-.12-.33-.36l.13-1.78c.02-.24,.14-.36,.38-.36h2.08c.24,0,.38-.12,.43-.36l.48-2.67c.03-.24,.18-.36,.43-.36h2.54c.24,0,.34,.12,.3,.36l-.48,2.64c-.05,.25,.05,.38,.3,.38l5.03-.03c.25,0,.37,.13,.36,.38Z"/><path class="d" d="M270.87,133.17l-.03,1.83c0,.25-.14,.39-.41,.41-2.52,.22-5.07,.33-7.64,.33-4.71,0-8.91-.39-12.62-1.17-.24-.05-.34-.2-.3-.46l.25-1.78c.03-.25,.17-.36,.41-.3,.12,.03,.32,.08,.61,.13,.24,.03,.39-.06,.46-.28,.02-.05,.12-.51,.3-1.37,.05-.25-.04-.38-.28-.38h-1.24c-.25,0-.37-.12-.36-.36l.05-1.12c0-.1,.06-.19,.19-.28,.13-.08,.2-.21,.22-.38,.15-1.08,.26-2.09,.33-3.02,.02-.24-.09-.36-.33-.36h-.99c-.25,0-.37-.13-.36-.38l.05-1.09c.02-.25,.14-.38,.38-.38h3.55c.25,0,.37,.12,.36,.36-.12,1.83-.26,3.42-.43,4.77-.03,.25,.07,.38,.3,.38h1.09c.24,0,.34,.13,.3,.38-.25,1.66-.47,2.86-.63,3.61-.05,.24,.05,.37,.3,.41,2.72,.36,5.44,.53,8.15,.53,2.91,0,5.56-.12,7.95-.36,.08-.02,.16,0,.24,.08,.08,.07,.11,.15,.11,.25Zm-16.55-16.55l-.53,3.83c-.03,.24-.17,.34-.41,.3l-2.06-.28c-.24-.03-.34-.18-.3-.43l.53-3.83c.03-.24,.17-.34,.41-.3l2.03,.28c.25,.03,.36,.18,.33,.43Zm16.1,10.21l-.05,1.02c-.02,.24-.14,.36-.38,.36h-11.32c-.25,0-.37-.12-.36-.36l.05-1.02c.02-.25,.15-.38,.41-.38h1.73c.25,0,.38-.12,.38-.36l.03-.74c0-.24-.12-.36-.36-.36h-1.57c-.25,0-.37-.13-.36-.38l.05-1.04c.02-.24,.14-.36,.38-.36h1.6c.25,0,.39-.13,.41-.38l.03-.66c.02-.25,.14-.38,.38-.38l1.63,.03c.25,0,.37,.12,.36,.36l-.03,.66c-.02,.25,.1,.38,.36,.38h1.6c.24,0,.36-.13,.38-.38l.03-.56c.02-.24,.15-.36,.41-.36l1.62-.03c.1,0,.19,.04,.25,.11,.07,.08,.09,.17,.08,.27l-.03,.56c-.02,.25,.1,.38,.36,.38h1.47c.25,0,.37,.12,.36,.36l-.05,1.07c-.02,.24-.14,.36-.38,.36h-1.5c-.24,0-.36,.13-.38,.38l-.03,.71c0,.24,.11,.36,.33,.36h1.8c.24,0,.35,.13,.33,.38Zm-8.3,2.89c-.39,.71-.85,1.46-1.37,2.23-.14,.22-.31,.25-.53,.1l-1.29-.89c-.2-.14-.23-.31-.08-.53,.46-.61,.89-1.28,1.29-2.01,.12-.2,.29-.25,.51-.13l1.32,.71c.22,.12,.27,.29,.15,.51Zm2.11-16l-.23,3.55c-.02,.25-.14,.38-.38,.38h-2.11c-.25,0-.39,.12-.41,.36l-.03,.36c-.02,.24,.1,.36,.36,.36,.59,0,1.24,0,1.93-.03,.1,0,.19,.03,.27,.1,.08,.07,.11,.15,.11,.25l-.05,1.29c-.02,.25-.15,.38-.41,.38-.98,.02-2.36,.03-4.14,.03-.25,0-.38-.13-.38-.38v-.94l.2-2.82c.02-.24,.15-.36,.41-.36l2.01,.03c.25,0,.39-.13,.41-.38l.03-.41c0-.12-.03-.21-.09-.28-.06-.07-.15-.1-.27-.1l-2.23,.03c-.12,0-.21-.03-.28-.09-.07-.06-.09-.16-.08-.29l.08-1.07c.02-.24,.15-.36,.41-.36l4.52,.03c.25,0,.37,.12,.36,.36Zm1.4,11.65c.02-.25-.1-.38-.36-.38h-1.6c-.27,0-.41,.12-.41,.36l-.03,.74c0,.24,.12,.36,.36,.36h1.6c.27,0,.41-.12,.41-.36l.03-.71Zm5.26-11.65l-.23,3.55c-.02,.25-.14,.38-.38,.38h-2.13c-.24,0-.36,.12-.38,.36l-.03,.36c-.02,.24,.1,.36,.36,.36,.59,0,1.24,0,1.93-.03,.1,0,.19,.03,.27,.1,.08,.07,.11,.15,.11,.25l-.05,1.29c-.02,.25-.16,.38-.43,.38-1,.02-2.38,.03-4.14,.03-.25,0-.38-.13-.38-.38l.03-.94,.2-2.82c.02-.24,.15-.36,.41-.36l2.01,.03c.24,0,.36-.13,.38-.38l.03-.41c0-.14-.03-.23-.08-.29-.05-.06-.14-.09-.25-.09l-2.26,.03c-.12,0-.21-.03-.27-.09-.06-.06-.08-.16-.06-.29l.08-1.07c.02-.24,.15-.36,.41-.36l4.52,.03c.25,0,.37,.12,.36,.36Zm-1.47,16.78c.17,.2,.16,.38-.03,.53l-1.22,1.02c-.19,.15-.36,.14-.51-.05-.51-.61-1-1.34-1.47-2.18-.12-.22-.08-.39,.13-.51l1.27-.74c.22-.14,.4-.1,.53,.1,.51,.8,.94,1.41,1.29,1.83Z"/><path class="d" d="M289.56,132.28c.1,.22,.04,.38-.18,.48-1.66,.78-2.89,1.17-3.71,1.17-1.88,0-2.96-.93-3.25-2.79-.03-.29-.08-.82-.15-1.6-.03-.24-.15-.3-.36-.18l-3.12,1.8c-.22,.12-.36,.3-.43,.53l-.66,2.23c-.07,.24-.23,.32-.48,.25l-2.56-.58c-.24-.05-.32-.19-.25-.43l5.08-16.88c.07-.24,.22-.32,.46-.25l2.59,.58c.24,.05,.32,.19,.25,.43l-3.2,10.59c-.02,.07,0,.12,.05,.17,.05,.04,.11,.05,.18,.01l2.03-1.14c.22-.14,.45-.21,.69-.23l2.36-.18c.24-.02,.36,.09,.38,.33,.08,1.73,.2,3.01,.36,3.86,.08,.51,.36,.7,.84,.58,.58-.15,1.18-.41,1.83-.76,.24-.12,.41-.07,.51,.15l.76,1.85Z"/><path class="d" d="M311.28,119.38v1.83c-.02,.25-.14,.38-.38,.38l-2.03,.08c-.25,.02-.47,.12-.63,.3-2.25,2.69-3.4,4.75-3.45,6.17-.03,1.03,.63,1.74,2.01,2.13,.24,.07,.33,.21,.28,.43l-.74,2.51c-.07,.24-.21,.32-.43,.25-2.95-.86-4.38-2.66-4.29-5.38,.05-1.57,.97-3.56,2.77-5.97,.05-.05,.06-.11,.03-.18-.03-.07-.09-.1-.18-.1l-7.97,.33c-.1,0-.19-.04-.25-.11-.07-.08-.1-.16-.1-.24l.03-1.85c0-.24,.12-.36,.36-.38l14.65-.56c.1,0,.19,.03,.27,.1,.08,.07,.11,.15,.09,.25Zm.74-4.14l-.2,2.39c-.02,.24-.14,.36-.38,.36h-1.19c-.1,0-.19-.03-.25-.1-.07-.07-.09-.15-.08-.25l.2-2.39c.02-.24,.14-.36,.38-.36h1.19c.24,0,.35,.12,.33,.36Zm2.79,0l-.2,2.39c-.02,.24-.15,.36-.41,.36h-1.17c-.1,0-.19-.03-.25-.1-.07-.07-.1-.15-.1-.25l.2-2.39c.03-.24,.17-.36,.41-.36h1.19c.24,0,.35,.12,.33,.36Z"/><path class="d" d="M330.96,131.77c.15,.2,.14,.39-.05,.56-1.62,1.57-3.09,2.37-4.39,2.39-1.27,.03-2.2-.25-2.79-.86-.68-.69-1.02-1.89-1.04-3.58,0-.22,.02-.64,.05-1.27,.05-.78,.09-1.18,.1-1.22,0-.08-.03-.16-.1-.23-.07-.07-.15-.1-.25-.1l-1.65,.1c-.25,.02-.38-.1-.38-.36l-.05-1.83c-.02-.24,.1-.36,.36-.38l1.95-.13c.25-.02,.39-.15,.41-.41l.18-2.11c.02-.25-.09-.38-.33-.38h-1.93c-.25,0-.37-.12-.36-.36l.15-1.85c.02-.24,.15-.36,.41-.36h1.93c.25,0,.39-.12,.41-.36l.36-4.16c.03-.25,.17-.38,.41-.38h2.56c.25,.02,.37,.14,.36,.36-.08,.93-.21,2.32-.38,4.16-.03,.25,.08,.38,.33,.38h2.31c.24,0,.35,.12,.33,.36l-.13,1.85c-.02,.25-.15,.38-.41,.38l-2.36-.03c-.24,0-.36,.13-.38,.38l-.18,1.93c-.02,.1,0,.19,.08,.25,.07,.07,.15,.09,.25,.08l1.93-.1c.25-.02,.38,.09,.38,.33l.05,1.85c0,.24-.12,.36-.36,.38l-2.23,.13c-.24,.02-.36,.14-.38,.38-.12,1.47-.18,2.51-.18,3.1,.02,.86,.31,1.28,.89,1.24,.58-.02,1.42-.55,2.54-1.6,.17-.19,.33-.18,.48,.03l1.12,1.42Z"/><path class="d" d="M351.38,129.48c-.03,1.96-1.24,3.83-3.63,5.61-.2,.15-.38,.13-.53-.08l-1.45-1.83c-.15-.2-.14-.37,.05-.51,1.54-1.17,2.31-2.17,2.31-3,.02-.64-.14-1.11-.47-1.4-.33-.29-.8-.4-1.41-.33-.42,.05-1.49,.35-3.2,.89-.25,.07-.4-.02-.43-.25l-.15-.84c-.03-.25-.04-.49-.03-.71,.32-3.03,.54-5.21,.66-6.53,.03-.25,.17-.38,.41-.38h2.56c.25,0,.37,.12,.36,.36-.1,1.05-.25,2.58-.43,4.6-.02,.1,0,.18,.08,.24,.07,.06,.15,.08,.25,.06,.37-.07,.68-.1,.91-.1,1.35,.02,2.39,.4,3.11,1.14,.72,.75,1.06,1.76,1.03,3.05Zm1.65-11.71c.15,.17,.14,.35-.03,.53l-1.75,1.68c-.17,.17-.34,.17-.51,0-.96-1.12-2.23-2.55-3.78-4.29-.17-.19-.16-.36,.03-.51l1.75-1.57c.19-.15,.36-.14,.53,.05,1.08,1.17,2.34,2.54,3.76,4.11Z"/><path class="d" d="M376.85,123.37c.05,1.93,.05,4.1,0,6.5-.02,.24-.14,.36-.38,.36h-2.79c-.24,0-.36-.13-.36-.38,.05-1.66,.07-3.06,.05-4.19,0-.08-.03-.14-.1-.18-.07-.03-.14-.03-.2,.03l-6.98,5.03c-.2,.15-.43,.23-.69,.23h-2.44c-.24,0-.36-.13-.38-.38-.07-2.06-.06-4.7,.03-7.9,0-.24,.12-.36,.36-.36l2.79-.03c.25,0,.37,.13,.36,.38-.07,2.18-.08,4.03-.05,5.54,0,.08,.03,.14,.1,.18,.07,.02,.14,0,.2-.03l6.78-4.93c.2-.15,.42-.23,.66-.23h2.67c.25,0,.38,.12,.38,.36Z"/><path class="d" d="M396.58,117.04l-.13,1.85c-.02,.24-.14,.36-.38,.36h-2.08c-.24,0-.36,.12-.38,.36l-.1,2.21c-.02,.1,.01,.19,.09,.25,.08,.07,.16,.1,.24,.1l1.83-.08c.1-.02,.19,0,.25,.08,.07,.07,.1,.15,.1,.25l-.03,1.85c0,.24-.13,.36-.38,.38l-1.9,.1c-.24,0-.36,.12-.38,.36-.03,.46-.07,1.08-.1,1.88-.02,.25,.1,.38,.36,.38h2.03c.24,.02,.35,.14,.33,.38l-.08,1.88c-.02,.25-.14,.37-.38,.36-.78-.03-1.5-.05-2.16-.05-.24-.02-.36,.09-.38,.33-.15,1.57-.51,2.75-1.07,3.53-.69,.96-1.77,1.45-3.22,1.45-1.17,0-2.12-.37-2.84-1.12-.73-.74-1.08-1.68-1.07-2.79,.02-1.37,.58-2.4,1.68-3.1,.83-.51,1.87-.8,3.12-.86,.24-.02,.36-.14,.38-.38,.03-.32,.07-.89,.1-1.7,.02-.1-.01-.19-.09-.25-.08-.07-.17-.1-.27-.1l-3.33,.18c-.1,0-.19-.03-.27-.1-.08-.07-.11-.15-.11-.25l.03-1.83c.02-.25,.14-.39,.38-.41l3.43-.15c.25-.02,.39-.15,.41-.41l.1-2.31c.02-.27-.1-.41-.36-.41l-3.3,.03c-.24,0-.35-.13-.33-.38l.1-1.85c.02-.24,.15-.36,.41-.36h3.25c.25,0,.38-.12,.38-.36l.1-2.16c.02-.25,.14-.38,.38-.38h2.59c.24,0,.36,.13,.36,.38l-.1,2.11c-.02,.27,.09,.41,.33,.41l2.11-.03c.25,0,.37,.13,.36,.38Zm-6.93,13.28c0-.08-.03-.17-.09-.24-.06-.08-.14-.11-.24-.11-1.08,.12-1.66,.58-1.73,1.4-.03,.37,.04,.66,.23,.88,.19,.21,.43,.31,.74,.29,.63,0,.99-.74,1.09-2.21Z"/><path class="d" d="M417.81,131.8c.1,.22,.04,.39-.18,.51-2.39,1.25-4.12,1.88-5.21,1.88-1.32,0-2.28-.39-2.87-1.17-.73-.95-1.04-2.6-.94-4.95,.12-2.23,.36-5.99,.71-11.27,.02-.24,.15-.36,.41-.36h2.56c.24,0,.35,.13,.33,.38-.39,5.23-.63,9.07-.74,11.53-.05,1.42,.01,2.3,.19,2.64,.18,.34,.5,.44,.95,.3,.58-.15,1.7-.63,3.38-1.45,.22-.1,.38-.05,.48,.15l.91,1.8Z"/><path class="d" d="M437.01,119.89l-.1,1.83c-.02,.25-.14,.38-.38,.38h-4.82c-.25,0-.39,.12-.41,.36l-1.02,9.32c-.03,.24-.18,.36-.43,.36h-2.92c-.24,0-.35-.13-.33-.38l1.02-9.29c.03-.24-.07-.36-.3-.36h-2.13c-.25,0-.37-.13-.36-.38l.1-1.83c.02-.25,.14-.38,.38-.38h2.29c.24,0,.37-.12,.41-.36l.41-3.78c.03-.25,.17-.38,.41-.38l2.95,.03c.24,0,.34,.12,.3,.36l-.41,3.78c-.02,.24,.09,.36,.33,.36h4.7c.24,0,.35,.13,.33,.38Zm5.56,12.14l-.18,2.44c-.02,.25-.15,.37-.41,.36-2.4-.03-4.36-.4-5.87-1.09-.24-.1-.31-.27-.23-.51l.99-2.31c.08-.22,.25-.27,.48-.15,1.27,.56,2.89,.86,4.85,.89,.25,0,.37,.13,.36,.38Zm1.96-7.39l-.08,1.12c-.02,.29-.06,.54-.13,.76l-.81,2.34c-.08,.24-.25,.31-.48,.23l-1.8-.69c-.22-.08-.29-.24-.2-.46l.28-.81c.03-.08,.03-.16,0-.23-.03-.07-.09-.1-.18-.1-1.2,0-2.35,.03-3.45,.1-.1,0-.19-.03-.27-.09-.08-.06-.11-.14-.11-.24l.08-1.83c0-.24,.13-.36,.38-.38l1.83-.05c1.2-.03,2.73-.05,4.6-.05,.25,0,.37,.13,.36,.38Z"/><path class="d" d="M455.07,123.31c.12,4.3-1.54,8.07-4.98,11.32-.2,.19-.39,.18-.56-.03l-1.27-1.4c-.17-.19-.17-.36,0-.51,2.66-2.5,3.94-5.58,3.83-9.22-.1-3.37-1.11-6.14-3.02-8.33-.17-.2-.19-.38-.05-.53l1.37-1.5c.19-.2,.37-.21,.56-.03,2.62,2.62,4,6.03,4.11,10.21Z"/></g></g></g></g></svg>