<?xml version="1.0" encoding="UTF-8"?><svg xmlns="http://www.w3.org/2000/svg" viewBox="0 0 296.98 120.41"><defs><style>.d{fill:#fff;}</style></defs><g id="a"/><g id="b"><g id="c"><g><path class="d" d="M104.06,74.56v4.76c-9.84,9.13-18.88,16.66-27.11,22.6-8.23,5.93-16.27,10.5-24.13,13.7-7.85,3.2-15.44,4.8-22.76,4.8-6.33,0-11.76-1.05-16.3-3.15-4.54-2.1-7.97-5.16-10.28-9.19-2.32-4.03-3.47-8.8-3.47-14.32,0-4.35,.83-8.95,2.5-13.81,1.67-4.86,4.09-9.77,7.25-14.72,3.16-4.96,7.04-10.07,11.65-15.34,4.6-5.27,10-10.81,16.22-16.63,6.44-6.01,12.8-11.19,19.07-15.56,6.27-4.37,11.95-7.8,17.05-10.29,5.1-2.49,9.83-4.35,14.19-5.57,4.36-1.22,7.98-1.83,10.85-1.83s5.42,.59,7.47,1.76c2.05,1.17,3.63,2.88,4.75,5.13,1.11,2.25,1.67,4.83,1.67,7.76,0,5.52-2.26,11.66-6.77,18.42-4.51,6.76-10.14,13.29-16.87,19.59-6.74,6.3-13.17,11.44-19.29,15.42-6.12,3.98-10.53,5.97-13.23,5.97-1.82,0-3.5-.6-5.05-1.79-1.55-1.2-2.33-2.55-2.33-4.06,0-2.78,1.77-6.15,5.32-10.11,3.54-3.96,7.41-7.58,11.6-10.88,4.19-3.3,6.69-4.94,7.51-4.94,.41,0,.62,.15,.62,.44,0,.44-.31,1.2-.92,2.27-.62,1.07-.92,1.73-.92,1.98,0,.39,.18,.59,.53,.59,1,0,3.87-2.22,8.61-6.66,4.75-4.44,9.1-9.34,13.05-14.69s5.93-9.73,5.93-13.15c0-1.42-.37-2.5-1.1-3.26-.73-.76-1.83-1.14-3.3-1.14-4.1,0-10.33,2.77-18.68,8.31-8.35,5.54-16.91,12.6-25.66,21.17-8.76,8.57-16.07,17.42-21.93,26.55-5.86,9.13-8.79,17.16-8.79,24.1,0,4,.72,7.35,2.15,10.03,1.44,2.68,3.54,4.76,6.33,6.23,2.78,1.46,6.14,2.2,10.06,2.2,8.5,0,18.13-2.76,28.92-8.28,10.78-5.52,22.65-13.65,35.6-24.39Z"/><path class="d" d="M102.39,80.49v-4.76c3.16-3.12,5.57-5.79,7.21-7.98-1.88-.54-3.24-1.2-4.09-1.98-.85-.78-1.27-1.95-1.27-3.52,0-1.76,.88-3.98,2.64-6.66,1.76-2.68,3.92-5.2,6.5-7.54,2.58-2.34,4.92-3.86,7.03-4.54,.82-.34,1.61-.51,2.37-.51,1.17,0,1.76,.46,1.76,1.39,0,.83-.91,2.52-2.72,5.05,12.07-1.56,19.69-2.34,22.85-2.34,1.23,0,2.08,.1,2.55,.29,1,.44,1.82,1.46,2.46,3.08,.64,1.61,.97,3.22,.97,4.83,0,1.03-.54,2.14-1.63,3.33-1.08,1.2-2.94,2.94-5.58,5.24-3.11,2.78-5.71,5.81-7.82,9.08-2.11,3.27-3.16,5.74-3.16,7.4,0,2.3,1.7,3.44,5.1,3.44,3.57,0,9.78-3.03,18.63-9.08v4.91c-4.86,4.25-8.88,7.59-12.04,10.03-3.16,2.44-6.09,4.38-8.79,5.82-2.7,1.44-5.1,2.16-7.21,2.16-2.46,0-4.51-.94-6.15-2.82-1.64-1.88-2.46-4.6-2.46-8.17,0-2.1,.64-4.49,1.93-7.18,1.29-2.68,3.18-5.6,5.67-8.75,2.49-3.15,5.29-6.29,8.39-9.41-1.64,.29-3.49,.6-5.54,.92-2.05,.32-4.22,.65-6.5,.99-2.29,.34-4.04,.61-5.27,.81-3.63,6.06-8.91,11.55-15.82,16.48Z"/><path class="d" d="M169.89,77.49v1.83c0,2.88,.85,5.13,2.55,6.74,1.7,1.61,3.92,2.42,6.68,2.42s5.84-.56,8.92-1.68c3.08-1.12,6.14-2.61,9.18-4.47,3.05-1.86,6.77-4.35,11.16-7.47v4.47c-6.62,6.64-12.83,11.73-18.63,15.27-5.8,3.54-11.69,5.31-17.67,5.31-5.22,0-9.35-1.68-12.39-5.05-3.05-3.37-4.57-7.98-4.57-13.84,0-5.13,1.43-9.78,4.31-13.95,2.87-4.17,7.56-8.58,14.06-13.22,4.45-3.17,8.88-5.57,13.27-7.18s8.32-2.42,11.78-2.42c2.75,0,4.94,.53,6.55,1.57,1.61,1.05,2.42,2.63,2.42,4.72,0,3.08-1.38,6.14-4.13,9.19-2.75,3.05-6.96,6.08-12.61,9.08-5.66,3-12.61,5.9-20.87,8.68Zm.88-4.76c5.27-1.71,9.79-3.83,13.54-6.37,3.75-2.54,6.52-4.97,8.31-7.29,1.79-2.32,2.68-4.02,2.68-5.09s-.62-1.68-1.85-1.68c-1.05,0-2.77,.56-5.14,1.68-2.37,1.12-4.78,2.59-7.21,4.39-2.43,1.81-4.61,3.93-6.55,6.37-1.93,2.44-3.19,5.1-3.78,7.98Z"/><path class="d" d="M254.36,83.5c0,2.2,1,3.3,2.99,3.3,2.58,0,7.09-3.64,13.54-10.91-.23-1.37-.35-2.27-.35-2.71,0-2.64,1.26-5.86,3.78-9.67,2.52-3.81,5.42-7.13,8.7-9.96,3.28-2.83,5.77-4.25,7.47-4.25,2.05,0,3.08,2.05,3.08,6.15,0,3.37-.87,6.69-2.59,9.96-1.73,3.27-4.23,6.62-7.51,10.03,.53,.44,1.11,.89,1.76,1.35,.64,.46,1.33,.85,2.07,1.17,.73,.32,1.51,.48,2.33,.48,1.93,0,4.39-1.29,7.38-3.88v5.2c-4.63,4-8.64,6.01-12.04,6.01-1.99,0-3.56-.21-4.7-.62-1.14-.41-2.59-1.16-4.35-2.23-10.78,10.79-18.98,16.19-24.61,16.19-2.17,0-3.88-.67-5.14-2.01-1.26-1.34-1.89-3.21-1.89-5.6,0-1.17,.58-5.57,1.76-13.18-2.29,2.2-4.95,4.79-8,7.76-3.05,2.98-5.51,5.26-7.38,6.85-1.88,1.59-3.62,2.82-5.23,3.7-1.61,.88-3.24,1.32-4.88,1.32s-3.47-.83-5.67-2.49c-2.2-1.66-4.06-3.87-5.58-6.63-1.52-2.76-2.29-5.72-2.29-8.9s.53-5.71,1.58-7.91,3.46-5.49,7.21-9.89c3.4-3.91,6.42-7.1,9.05-9.59,2.64-2.49,5.02-4.42,7.16-5.79,2.14-1.37,3.88-2.05,5.23-2.05,.82,0,1.89,.16,3.21,.48,1.32,.32,2.49,.74,3.52,1.28,1.02,.54,1.54,1.1,1.54,1.68,0,1.86-.98,4.2-2.94,7.03-1.96,2.83-4.88,6.01-8.75,9.52s-8.29,7.1-13.27,10.77c-1.35,3.37-2.02,6.1-2.02,8.2,0,.68,.25,1.33,.75,1.94,.5,.61,1.1,.92,1.8,.92,2.4,0,7.02-3.12,13.84-9.38,6.83-6.25,15.83-15.72,27.03-28.42,.41-.49,1.29-.73,2.64-.73,1.46,0,2.8,.27,4,.81,1.2,.54,1.8,1.27,1.8,2.2,0,.54-1.54,3.39-4.61,8.57-3.08,5.18-5.74,9.92-8,14.25-2.26,4.32-3.38,7.56-3.38,9.7Z"/></g></g></g></svg>