<?xml version="1.0" encoding="UTF-8"?><svg xmlns="http://www.w3.org/2000/svg" xmlns:xlink="http://www.w3.org/1999/xlink" viewBox="0 0 552.4 61.7"><defs><style>.i{fill:url(#e);}.j{fill:url(#d);}.k{fill:url(#g);}.l{fill:url(#f);}.m{fill:url(#h);}.n{opacity:.5;}</style><linearGradient id="d" x1="-192.02" y1="30.24" x2="528.15" y2="30.24" gradientTransform="matrix(1, 0, 0, 1, 0, 0)" gradientUnits="userSpaceOnUse"><stop offset="0" stop-color="blue"/><stop offset=".15" stop-color="#1a2aff"/><stop offset=".46" stop-color="#4b79ff"/><stop offset=".71" stop-color="#6fb3ff"/><stop offset=".9" stop-color="#85d7ff"/><stop offset="1" stop-color="#8ee5ff"/></linearGradient><linearGradient id="e" x1="-279.72" y1="41.95" x2="1040.33" y2="41.95" xlink:href="#d"/><linearGradient id="f" x1="-663.44" y1="30.02" x2="1039.34" y2="30.02" xlink:href="#d"/><linearGradient id="g" x1="-1156.87" y1="36.94" x2="1338.05" y2="36.94" xlink:href="#d"/><linearGradient id="h" x1="-366.08" y1="32.62" x2="781.11" y2="32.62" xlink:href="#d"/></defs><g id="a"/><g id="b"><g id="c"><g class="n"><g><path class="j" d="M63.18,6.22c-2.32-1.8-5.2-3.2-8.65-4.2-3.45-1-7.22-1.49-11.34-1.49s-8.07,.37-12.18,1.1c-4.11,.73-7.88,1.6-11.31,2.61-3.43,1.01-6.5,2.08-9.23,3.21-2.73,1.13-4.7,2.1-5.93,2.92C1.51,12.39,0,15.9,0,20.88c0,1.93,.9,2.9,2.69,2.9,.56,0,1.23-.11,2-.33,.77-.22,2.05-.66,3.82-1.32,1.77-.66,3.5-1.26,5.17-1.8,1.67-.54,3.67-1.08,5.99-1.6-2.07,.03-4.39,.22-6.93,.57-2.55,.35-3.98,.53-4.3,.53-.46,0-.69-.1-.69-.31,0-.32,.93-.85,2.79-1.58,1.86-.73,4.15-1.49,6.86-2.29,2.71-.79,5.57-1.52,8.6-2.18,3.02-.66,5.8-1.11,8.33-1.34C21.78,26.31,12.97,38.07,7.91,47.42c-.74,1.38-1.27,2.59-1.58,3.65s-.47,2.42-.47,4.09c0,1.35,.16,2.37,.47,3.05s.85,1.15,1.61,1.38c.76,.23,1.78,.35,3.08,.35,6.96,0,14.03-1.04,21.2-3.12,7.17-2.08,13.61-4.9,19.33-8.46,5.71-3.56,10.28-7.67,13.71-12.33,3.43-4.66,5.14-9.46,5.14-14.41,0-3.25-.62-6.18-1.87-8.79-1.25-2.61-3.03-4.81-5.35-6.61Zm-2.69,28.19c-2.81,3.25-6.57,6.17-11.26,8.75-4.69,2.58-9.71,4.59-15.06,6.04-5.34,1.45-10.41,2.18-15.19,2.18-1.86,0-3.3-.15-4.3-.46-1-.31-1.5-.84-1.5-1.6,0-.35,.14-.86,.42-1.54,.28-.67,.73-1.48,1.34-2.42,.61-.94,1.06-1.61,1.34-2.02,.28-.41,.79-1.2,1.53-2.37,2.35-3.69,4.39-6.71,6.12-9.05,1.72-2.34,3.8-5.07,6.22-8.17,2.43-3.1,4.05-5.27,4.88-6.48,.83-1.22,1.24-2.16,1.24-2.83,0-.44-.07-.96-.21-1.56-.14-.6-.21-.93-.21-.99,2.5-.18,5.17-.26,8.02-.26,6.78,0,11.95,1.09,15.5,3.27,3.55,2.18,5.33,5.3,5.33,9.34,0,3.55-1.41,6.94-4.22,10.2Z"/><path class="i" d="M196.86,46.45c-.49,0-.96-.09-1.4-.29-.44-.19-.85-.42-1.24-.7-.39-.28-.74-.55-1.05-.81,1.97-2.05,3.47-4.06,4.51-6.02,1.04-1.96,1.56-3.96,1.56-5.98,0-2.46-.62-3.69-1.85-3.69-1.02,0-2.51,.85-4.48,2.55-1.97,1.7-3.71,3.69-5.22,5.98-1.51,2.29-2.27,4.22-2.27,5.8,0,.26,.07,.81,.21,1.63-3.87,4.37-6.57,6.55-8.12,6.55-1.2,0-1.79-.66-1.79-1.98s.68-3.23,2.03-5.82c1.35-2.59,2.95-5.44,4.8-8.55,1.85-3.1,2.77-4.82,2.77-5.14,0-.56-.36-1-1.08-1.32-.72-.32-1.52-.48-2.4-.48-.81,0-1.34,.15-1.58,.44-6.72,7.62-12.12,13.3-16.22,17.05-4.1,3.75-6.86,5.62-8.31,5.62-.42,0-.78-.18-1.08-.55-.3-.37-.45-.75-.45-1.16,0-1.26,.4-2.9,1.21-4.92,2.99-2.2,5.64-4.35,7.96-6.46,2.32-2.11,4.07-4.01,5.25-5.71,1.18-1.7,1.77-3.1,1.77-4.22,0-.35-.31-.69-.92-1.01-.62-.32-1.32-.58-2.11-.77-.79-.19-1.43-.29-1.92-.29-.81,0-1.86,.41-3.14,1.23-1.28,.82-2.72,1.98-4.3,3.47-1.58,1.49-3.39,3.41-5.43,5.76-2.25,2.64-3.69,4.61-4.32,5.93-.37,.78-.62,1.66-.78,2.61-4.65,3.28-8.13,4.94-10.4,4.94-2.39,0-3.59-1.08-3.59-3.25,0-1.32,.34-2.43,1.03-3.34,.69-.91,1.88-2.32,3.59-4.24,1.7-1.92,2.56-3.23,2.56-3.93,0-.35-.11-.75-.32-1.21-.21-.45-.51-1.05-.9-1.78-.39-.73-.7-1.33-.95-1.8,1.23-.35,2.09-.65,2.58-.9,.49-.25,.74-.64,.74-1.16,0-.32-.18-.82-.55-1.49-.37-.67-.87-1.27-1.5-1.78-.63-.51-1.32-.77-2.06-.77-2.74,0-6.63,.98-11.65,2.94-5.03,1.96-10.21,4.97-15.56,9.01-2,1.58-3.46,2.86-4.38,3.82-.91,.97-1.53,1.91-1.85,2.83-.16,.45-.27,.97-.35,1.53-4.97,3.35-8.51,5.04-10.56,5.04s-3.06-.69-3.06-2.07c0-1,.63-2.48,1.9-4.44,1.27-1.96,2.83-3.78,4.69-5.45,1.58-1.38,2.7-2.42,3.35-3.14,.65-.72,.98-1.38,.98-2,0-.97-.19-1.93-.58-2.9-.39-.97-.88-1.58-1.48-1.85-.28-.12-.79-.18-1.53-.18-1.9,0-6.47,.47-13.71,1.41,1.09-1.52,1.63-2.53,1.63-3.03,0-.56-.35-.83-1.05-.83-.46,0-.93,.1-1.42,.31-1.27,.41-2.67,1.32-4.22,2.72-1.55,1.41-2.85,2.92-3.9,4.53-1.05,1.61-1.58,2.94-1.58,4,0,.94,.25,1.64,.76,2.11,.51,.47,1.33,.86,2.45,1.19-.98,1.32-2.43,2.92-4.32,4.79v2.86c4.15-2.96,7.31-6.25,9.49-9.89,.74-.12,1.79-.28,3.16-.48,1.37-.2,2.67-.4,3.9-.59,1.23-.19,2.34-.37,3.32-.55-1.86,1.88-3.54,3.76-5.04,5.65-1.49,1.89-2.63,3.64-3.4,5.25-.77,1.61-1.16,3.05-1.16,4.31,0,2.14,.49,3.77,1.48,4.9,.98,1.13,2.21,1.69,3.69,1.69,1.27,0,2.71-.43,4.32-1.3,1.62-.86,3.38-2.03,5.27-3.49,1.75-1.35,3.95-3.18,6.56-5.44,.15,1.48,.57,2.92,1.27,4.32,.9,1.77,1.92,3.22,3.09,4.33,1.16,1.11,2.13,1.67,2.9,1.67,1.62,0,3.67-1,6.17-3.01,2.5-2.01,6.31-5.38,11.44-10.13-2,4.39-3.01,7.75-3.01,10.06,0,1.47,.29,2.57,.87,3.32,.58,.75,1.56,1.12,2.93,1.12,3.65,0,9.59-3.74,17.83-11.19,.12,1.57,.55,3.06,1.32,4.45,.91,1.66,2.03,2.98,3.35,3.98,1.32,1,2.45,1.49,3.4,1.49s1.96-.26,2.93-.79c.97-.53,2.01-1.27,3.14-2.22,1.12-.95,2.6-2.32,4.43-4.11,1.83-1.79,3.43-3.34,4.8-4.66-.7,4.57-1.05,7.21-1.05,7.91,0,1.44,.38,2.56,1.13,3.36,.76,.81,1.78,1.21,3.09,1.21,3.38,0,8.3-3.24,14.77-9.71,1.05,.65,1.92,1.09,2.61,1.34,.69,.25,1.63,.37,2.82,.37,2.04,0,4.45-1.2,7.22-3.6v-3.12c-1.79,1.55-3.27,2.33-4.43,2.33Zm-72.14-2.97c-3.06,2.92-6.43,5.28-10.12,7.1-.98,.41-1.67,.62-2.06,.62-.67,0-1.2-.3-1.58-.9-.39-.6-.58-1.37-.58-2.31,0-2.58,1.94-5.08,5.83-7.51,3.88-2.43,10.4-5.39,19.54-8.88-4.29,5.01-7.96,8.97-11.02,11.89Z"/></g><path class="l" d="M311.88,48.78c-1.83,1.11-3.67,2.01-5.51,2.68-1.85,.67-3.63,1.01-5.35,1.01s-2.99-.48-4.01-1.45c-1.02-.97-1.53-2.31-1.53-4.04v-1.1c4.96-1.67,9.13-3.41,12.52-5.21,3.39-1.8,5.91-3.62,7.57-5.45,1.65-1.83,2.48-3.67,2.48-5.52,0-1.26-.48-2.2-1.45-2.83-.97-.63-2.28-.94-3.93-.94-2.08,0-4.43,.48-7.07,1.45-2.64,.97-5.29,2.4-7.96,4.31-3.9,2.78-6.72,5.43-8.44,7.93-1.03,1.5-1.75,3.11-2.16,4.81v-.13c-5.8,3.78-9.54,5.67-11.23,5.67-1.58,0-2.37-.69-2.37-2.07,0-.94,.4-2.06,1.21-3.36,.81-1.3,1.96-2.78,3.45-4.44,1.49-1.65,3.51-3.74,6.04-6.26,.35-.44,.53-.81,.53-1.1,0-.67-.46-1.53-1.37-2.57-.92-1.04-1.9-1.56-2.95-1.56-1.13,0-2.88,.71-5.27,2.13-2.39,1.42-5.31,3.52-8.75,6.31-3.45,2.78-7.52,6.36-12.23,10.72v-5.27c2.81-2.58,5.32-4.97,7.51-7.19,2.2-2.21,4.62-4.73,7.28-7.56,2.65-2.83,4.65-5.01,5.99-6.55,1.34-1.54,3.6-4.2,6.8-7.98,2.95-3.57,5.04-6.2,6.25-7.89,1.21-1.68,1.82-2.89,1.82-3.63,0-.41-.38-.78-1.13-1.1-.76-.32-1.75-.53-2.98-.62-.98-.06-2.92,1.16-5.8,3.67-2.88,2.5-6.51,6.2-10.89,11.07-4.38,4.88-9.64,11.16-15.79,18.83-2.92,3.66-4.71,6.61-5.38,8.83-.22,.73-.39,1.44-.54,2.13-3.39,2.29-6.13,4.01-8.19,5.14-2.16,1.19-3.91,1.78-5.25,1.78-1.93,0-2.9-1.01-2.9-3.03,0-1.49,.34-3.08,1.03-4.75,.69-1.67,1.67-3.51,2.95-5.52,1.28-2.01,2.87-4.28,4.77-6.83,.98,.06,1.82,.11,2.5,.15,.69,.04,1.36,.09,2.03,.13,.67,.04,1.49,.1,2.48,.15,3.02-3.25,5.54-6.43,7.54-9.54-.53-.06-1.26-.13-2.19-.22-.93-.09-2-.19-3.19-.31,.77-1.05,1.92-2.36,3.43-3.91,1.51-1.55,2.27-2.5,2.27-2.86,0-.73-.97-1.1-2.9-1.1s-3.66,.58-5.17,1.74c-1.51,1.16-3.2,3.13-5.06,5.91h-2.27c-2.71,0-4.81,.14-6.3,.42-1.5,.28-2.76,.81-3.8,1.6-1.04,.79-2.14,2.01-3.3,3.65-1.44,1.93-2.16,3.38-2.16,4.35,0,.18,.07,.26,.21,.26s.4-.05,.76-.15c.37-.1,.76-.2,1.19-.29,1.02-.23,2.57-.35,4.64-.35,.63,0,1.18,0,1.63,.02,.46,.02,.95,.04,1.48,.07-5.24,6.48-9.7,11-13.39,13.58v3.03c.42-.32,.84-.64,1.27-.94,.42-.31,.82-.6,1.19-.88,.37-.28,.77-.59,1.21-.92,.44-.34,.9-.68,1.4-1.03-1.41,3.02-2.38,5.27-2.93,6.77-.55,1.49-.82,2.78-.82,3.87,0,1.61,.48,2.93,1.45,3.96,.97,1.03,2.24,1.54,3.82,1.54,4.39,0,11.1-4.02,20.12-12.05,0,.18-.02,.36-.02,.54,0,5.62,1.37,8.44,4.11,8.44,.67,0,1.37-.34,2.11-1.01,.74-.67,2.16-2.13,4.27-4.37s4.31-4.43,6.59-6.57c.74-.73,1.65-1.62,2.74-2.66,1.09-1.04,2.34-2.04,3.74-2.99,1.41-.95,2.9-1.79,4.48-2.53-3.2,3.87-5.65,7.23-7.36,10.09-1.71,2.86-2.56,5.37-2.56,7.54,0,2.7,1.37,4.04,4.11,4.04,1.16,0,2.58-.42,4.25-1.27,1.67-.85,3.62-2.1,5.85-3.76,2.13-1.58,4.65-3.61,7.54-6.06,0,.19-.02,.39-.02,.58,0,3.52,.91,6.28,2.74,8.31,1.83,2.02,4.31,3.03,7.44,3.03,3.59,0,7.12-1.06,10.6-3.19,3.48-2.12,7.21-5.18,11.18-9.16v-2.68c-2.64,1.88-4.87,3.37-6.7,4.48Zm-13.61-10.55c1.16-1.46,2.47-2.74,3.93-3.82,1.46-1.08,2.9-1.96,4.32-2.64,1.42-.67,2.45-1.01,3.08-1.01,.74,0,1.11,.34,1.11,1.01s-.54,1.66-1.61,3.05c-1.07,1.39-2.73,2.85-4.98,4.37-2.25,1.52-4.96,2.8-8.12,3.82,.35-1.73,1.11-3.32,2.27-4.79Z"/><g><path class="k" d="M545.71,48.78c-1.83,1.11-3.67,2.01-5.51,2.68-1.85,.67-3.63,1.01-5.35,1.01s-2.99-.48-4.01-1.45c-1.02-.97-1.53-2.31-1.53-4.04v-1.1c4.96-1.67,9.13-3.41,12.52-5.21,3.39-1.8,5.91-3.62,7.57-5.45,1.65-1.83,2.48-3.67,2.48-5.52,0-1.26-.48-2.2-1.45-2.83-.97-.63-2.28-.94-3.93-.94-2.08,0-4.43,.48-7.07,1.45s-5.29,2.4-7.96,4.31c-3.9,2.78-6.72,5.43-8.44,7.93-1.01,1.47-1.72,3.05-2.14,4.72-5.21,3.55-8.88,5.33-10.99,5.33s-3.06-.69-3.06-2.07c0-1,.63-2.48,1.9-4.44,1.27-1.96,2.83-3.78,4.69-5.45,1.58-1.38,2.7-2.42,3.35-3.14,.65-.72,.98-1.38,.98-2,0-.97-.19-1.93-.58-2.9-.39-.97-.88-1.58-1.48-1.85-.28-.12-.79-.18-1.53-.18-1.9,0-6.47,.47-13.71,1.41,1.09-1.52,1.63-2.53,1.63-3.03,0-.56-.35-.83-1.05-.83-.46,0-.93,.1-1.42,.31-1.27,.41-2.67,1.32-4.22,2.72-1.55,1.41-2.85,2.92-3.9,4.53-1.05,1.61-1.58,2.94-1.58,4,0,.94,.25,1.64,.76,2.11,.51,.47,1.33,.86,2.45,1.19-.98,1.32-2.43,2.92-4.32,4.79v.04c-2.77,1.79-4.86,3.05-6.28,3.79-1.58,.82-2.97,1.23-4.17,1.23-1.44,0-2.16-.76-2.16-2.29,0-.7,.37-1.75,1.11-3.14,.74-1.39,1.6-2.67,2.58-3.85,1.83-2.2,3.41-4.1,4.75-5.71,1.34-1.61,2.22-2.72,2.66-3.32,.44-.6,.73-1.09,.87-1.47,.14-.38,.21-.88,.21-1.49,0-1.35-.15-2.24-.45-2.68-.3-.44-.87-.66-1.71-.66s-1.79,.34-2.74,1.03c-.95,.69-2.72,2.18-5.33,4.46-1.13,1-2.59,2.48-4.4,4.46-1.81,1.98-3.4,3.46-4.77,4.46-1.86,1.32-3.96,2.83-6.3,4.55-2.34,1.71-4,2.87-4.98,3.47-.98,.6-1.69,.9-2.11,.9-1.16,0-1.74-.63-1.74-1.89,0-.91,.33-2.23,1-3.96,3.02-1.9,5.69-3.85,7.99-5.82,2.3-1.98,3.97-3.65,5.01-5.03,1.04-1.38,1.56-2.33,1.56-2.86,0-.26-.51-.52-1.53-.77-1.02-.25-2.09-.37-3.22-.37-1.55,0-2.66,.12-3.35,.37-.69,.25-1.39,.73-2.11,1.43-.72,.7-1.61,1.57-2.66,2.59-1.76,1.67-3.24,3.16-4.46,4.48s-2.19,2.54-2.93,3.67c-.74,1.13-1.24,2.16-1.5,3.1-.08,.3-.13,.63-.19,.95-3.42,2.31-6.17,4.05-8.25,5.18-2.16,1.19-3.91,1.78-5.25,1.78-1.93,0-2.9-1.01-2.9-3.03,0-1.49,.34-3.08,1.03-4.75s1.67-3.51,2.95-5.52c1.28-2.01,2.87-4.28,4.77-6.83,.98,.06,1.82,.11,2.5,.15s1.36,.09,2.03,.13c.67,.04,1.49,.1,2.48,.15,3.02-3.25,5.54-6.43,7.54-9.54-.53-.06-1.26-.13-2.19-.22-.93-.09-2-.19-3.19-.31,.77-1.05,1.92-2.36,3.43-3.91,1.51-1.55,2.27-2.5,2.27-2.86,0-.73-.97-1.1-2.9-1.1s-3.66,.58-5.17,1.74c-1.51,1.16-3.2,3.13-5.06,5.91h-2.27c-2.71,0-4.81,.14-6.3,.42-1.5,.28-2.76,.81-3.8,1.6-1.04,.79-2.14,2.01-3.3,3.65-1.44,1.93-2.16,3.38-2.16,4.35,0,.18,.07,.26,.21,.26s.4-.05,.76-.15c.37-.1,.76-.2,1.19-.29,1.02-.23,2.57-.35,4.64-.35,.63,0,1.18,0,1.63,.02,.46,.02,.95,.04,1.48,.07-5.24,6.48-9.7,11-13.39,13.58v.21c-2.77,1.79-4.86,3.05-6.28,3.79-1.58,.82-2.97,1.23-4.17,1.23-1.44,0-2.16-.76-2.16-2.29,0-.7,.37-1.75,1.11-3.14,.74-1.39,1.6-2.67,2.58-3.85,1.83-2.2,3.41-4.1,4.75-5.71,1.34-1.61,2.22-2.72,2.66-3.32,.44-.6,.73-1.09,.87-1.47,.14-.38,.21-.88,.21-1.49,0-1.35-.15-2.24-.45-2.68-.3-.44-.87-.66-1.71-.66s-1.79,.34-2.74,1.03c-.95,.69-2.72,2.18-5.33,4.46-1.13,1-2.59,2.48-4.4,4.46-1.81,1.98-3.4,3.46-4.77,4.46-1.86,1.32-3.96,2.83-6.3,4.55-2.34,1.71-4,2.87-4.98,3.47-.98,.6-1.69,.9-2.11,.9-1.16,0-1.74-.63-1.74-1.89,0-.91,.33-2.23,1-3.96,3.02-1.9,5.69-3.85,7.99-5.82,2.3-1.98,3.97-3.65,5.01-5.03,1.04-1.38,1.56-2.33,1.56-2.86,0-.26-.51-.52-1.53-.77-1.02-.25-2.09-.37-3.22-.37-1.55,0-2.66,.12-3.35,.37-.69,.25-1.39,.73-2.11,1.43-.72,.7-1.61,1.57-2.66,2.59-1.76,1.67-3.24,3.16-4.46,4.48s-2.19,2.54-2.93,3.67c-.74,1.13-1.24,2.16-1.5,3.1-.26,.94-.4,1.99-.4,3.16,0,1.79,.31,3.46,.92,5.03,.61,1.57,1.48,2.81,2.61,3.74,1.12,.92,2.35,1.38,3.69,1.38,1.69,0,3.86-1.19,6.51-3.56,2.65-2.37,6.53-6.37,11.63-12-1.97,3.57-3.39,6.31-4.27,8.2-.88,1.89-1.32,3.39-1.32,4.5,0,2.93,1.48,4.39,4.43,4.39,1.3,0,2.67-.37,4.11-1.1,1.44-.73,3.15-1.82,5.12-3.25,1.97-1.44,5.01-3.74,9.12-6.9v-.22c.09-.06,.18-.13,.26-.2,.42-.31,.82-.6,1.19-.88,.37-.28,.77-.59,1.21-.92,.44-.34,.9-.68,1.4-1.03-1.41,3.02-2.38,5.27-2.93,6.77-.55,1.49-.82,2.78-.82,3.87,0,1.61,.48,2.93,1.45,3.96,.97,1.03,2.24,1.54,3.82,1.54,4.44,0,11.26-4.12,20.45-12.35,.09,1.43,.38,2.79,.88,4.07,.61,1.57,1.48,2.81,2.61,3.74,1.12,.92,2.35,1.38,3.69,1.38,1.69,0,3.86-1.19,6.51-3.56,2.65-2.37,6.53-6.37,11.63-12-1.97,3.57-3.39,6.31-4.27,8.2-.88,1.89-1.32,3.39-1.32,4.5,0,2.93,1.48,4.39,4.43,4.39,1.3,0,2.67-.37,4.11-1.1,1.44-.73,3.15-1.82,5.12-3.25,1.97-1.44,5.01-3.74,9.12-6.9v-.22c3.65-2.76,6.49-5.81,8.49-9.14,.74-.12,1.79-.28,3.16-.48,1.37-.2,2.67-.4,3.9-.59,1.23-.19,2.34-.37,3.32-.55-1.86,1.88-3.54,3.76-5.04,5.65-1.5,1.89-2.63,3.64-3.4,5.25-.77,1.61-1.16,3.05-1.16,4.31,0,2.14,.49,3.77,1.48,4.9,.98,1.13,2.21,1.69,3.69,1.69,1.27,0,2.71-.43,4.32-1.3,1.62-.86,3.38-2.03,5.27-3.49,1.76-1.36,3.97-3.2,6.6-5.48,0,.1-.01,.2-.01,.3,0,3.52,.91,6.28,2.74,8.31,1.83,2.02,4.31,3.03,7.44,3.03,3.59,0,7.12-1.06,10.6-3.19,3.48-2.12,7.21-5.18,11.18-9.16v-2.68c-2.64,1.88-4.87,3.37-6.7,4.48Zm-13.61-10.55c1.16-1.46,2.47-2.74,3.93-3.82,1.46-1.08,2.9-1.96,4.32-2.64,1.42-.67,2.45-1.01,3.08-1.01,.74,0,1.11,.34,1.11,1.01s-.54,1.66-1.61,3.05c-1.07,1.39-2.73,2.85-4.98,4.37-2.25,1.52-4.96,2.8-8.12,3.82,.35-1.73,1.11-3.32,2.27-4.79Z"/><path class="m" d="M364.62,32.28c2.22-5,4.63-9.94,6.94-14.87,.33-.7,.66-1.49,.42-2.22-.05-.14-.12-.26-.2-.38,11.97,.65,23.94,1.3,35.92,1.95,2.63,.14,5.35,.27,7.81-.69,2.45-.96,4.56-3.33,4.33-5.96-.38-4.4-6.08-5.78-10.49-5.99-17.91-.88-36.43-1.67-53.16,4.78-2.74,1.06-5.58,2.45-7.04,5-1.46,2.54-.88,7.85,2.03,7.43,.82-.12,1.07-.76,1.07-.76,.96-3.77,4.57-6.57,8.45-6.36,2.45,.13,4.91,.27,7.36,.4-.33,.2-.66,.42-.98,.64l-1.6,1.12c-3.93,5.5-7.44,10.84-10.66,16.35-3.05,.27-6.18,.67-9.61,1.22l-.93,.39c-1.74,.79-3.16,2.23-3.94,3.97-.27,.61-.46,1.28-.3,1.93,.44,1.73,2.83,1.87,4.6,1.59,1.9-.29,3.8-.62,5.7-.96-1.5,2.9-2.94,5.89-4.35,9-1.12,2.48-2.2,5.32-1.2,7.85,1.36,3.45,5.88,4.46,9.53,3.78,.61-.11,1.27-.29,1.63-.8,.25-.36,.31-.81,.36-1.24,.86-7.21,2.98-14.12,5.65-20.87,4.48-.95,8.94-1.96,13.41-2.97,1.33-.3,2.94-.9,3.08-2.26-2.19-.67-4.5-.83-6.78-.92-2.49-.11-4.81-.16-7.05-.15Z"/></g></g></g></g></svg>