<?xml version="1.0" encoding="UTF-8"?>
<svg id="_レイヤー_2" data-name="レイヤー 2" xmlns="http://www.w3.org/2000/svg" viewBox="0 0 985 122.41">
  <defs>
    <style>
      .cls-1 {
        stroke-width: 1.94px;
      }

      .cls-1, .cls-2, .cls-3, .cls-4 {
        stroke: #002fcd;
        stroke-linecap: round;
      }

      .cls-1, .cls-2, .cls-4 {
        fill: none;
      }

      .cls-1, .cls-3 {
        stroke-linejoin: round;
      }

      .cls-5 {
        fill: #002fcd;
      }

      .cls-2, .cls-3 {
        stroke-width: 2.16px;
      }

      .cls-2, .cls-4 {
        stroke-miterlimit: 10;
      }

      .cls-3 {
        fill: #fff;
      }
    </style>
  </defs>
  <g id="_文字" data-name="文字">
    <g>
      <line class="cls-4" x1=".5" y1="113.79" x2="984.5" y2="113.79"/>
      <line class="cls-4" x1=".5" y1="110.26" x2="984.5" y2="110.26"/>
      <g>
        <g>
          <path class="cls-3" d="M610.48,94.36l1.92-.26c1.83-.25,3.58.81,4.23,2.54.98,2.62,1.83,5.48,1.77,8.41-.06,2.81-1.73,8.59-4.63,14.53-3.52,1.82-11.01,2.28-16.15,1.06-.91-.22-1.7-.79-2.2-1.58l-11.35-17.91c-.81-1.28-.54-2.96.63-3.91h0c1.14-.93,2.78-.94,3.93,0l4.87,3.95c-.54-5.99-1.54-11.8-3.03-17.42-.47-1.76.72-3.53,2.53-3.75h0c1.39-.16,2.7.68,3.12,2.01,1,3.17,1.8,6.26,2.32,9.24.31,1.8.74,5.7.82,7.41"/>
          <path class="cls-2" d="M605.87,99.69l-1.36-6.67c-.28-1.36-1.55-2.28-2.93-2.11l-3.09.37"/>
          <path class="cls-2" d="M611.9,100.12c-.2-2.04-1-4.5-1.64-6.22-.46-1.24-1.73-2-3.04-1.8l-2.85.42"/>
        </g>
        <g>
          <g id="_x3C_説莇琿_蘋糘褊_x3E__00000062165716078031646840000002076355056551908224_" data-name="_x3C_説莇琿蘋糘褊_x3E__00000062165716078031646840000002076355056551908224_">
            <line class="cls-1" x1="585.98" y1="82.24" x2="581.08" y2="82.25"/>
          </g>
          <g id="_x3C_説莇琿_蘋糘褊_x3E__00000023271969085027226450000011948808191733104830_" data-name="_x3C_説莇琿蘋糘褊_x3E__00000023271969085027226450000011948808191733104830_">
            <line class="cls-1" x1="588.09" y1="77.1" x2="584.62" y2="73.65"/>
          </g>
          <g id="_x3C_説莇琿_蘋糘褊_x3E__00000153674285806777641550000014678116326659410354_" data-name="_x3C_説莇琿蘋糘褊_x3E__00000153674285806777641550000014678116326659410354_">
            <line class="cls-1" x1="593.22" y1="74.97" x2="593.2" y2="70.07"/>
          </g>
          <g id="_x3C_説莇琿_蘋糘褊_x3E__00000013166721234191186660000016556608318616410044_" data-name="_x3C_説莇琿蘋糘褊_x3E__00000013166721234191186660000016556608318616410044_">
            <line class="cls-1" x1="598.35" y1="77.08" x2="601.8" y2="73.6"/>
          </g>
          <g id="_x3C_説莇琿_蘋糘褊_x3E__00000112616535196773791060000008459288130248205702_" data-name="_x3C_説莇琿蘋糘褊_x3E__00000112616535196773791060000008459288130248205702_">
            <line class="cls-1" x1="600.49" y1="82.2" x2="605.39" y2="82.19"/>
          </g>
        </g>
      </g>
      <g>
        <g>
          <path class="cls-5" d="M361.3,79.28c-1.42,0-1.91.03-2.01.03-.16,0-.18-.02-.18-.18v-1.18c0-.16.02-.18.18-.18.1,0,.59.03,2.01.03h4.17c0-.72-.03-1.13-.13-1.7.61.02,1.19.05,1.77.11.16.02.26.1.26.16,0,.15-.05.25-.1.36-.08.18-.1.47-.1,1.06h4.48c1.42,0,1.91-.03,2.01-.03.15,0,.16.02.16.18v1.18c0,.16-.02.18-.16.18-.1,0-.59-.03-2.01-.03h-4.48v1h2.54c1.6,0,2.18-.03,2.27-.03.18,0,.2.02.2.2,0,.1-.03.52-.03,1.54v2.7c0,1.01.03,1.44.03,1.54,0,.16-.02.18-.2.18-.1,0-.67-.03-2.27-.03h-1.36c1.59,1.37,3.71,2.32,6,2.91-.29.34-.52.7-.7,1.13-.13.31-.18.43-.31.43-.08,0-.2-.05-.38-.11-2.13-.77-4.32-1.95-5.84-3.66.02,2.01.11,3.63.11,3.88,0,.16-.02.18-.18.18h-1.47c-.16,0-.18-.02-.18-.18,0-.25.1-1.82.11-3.81-1.42,1.62-3.3,2.81-5.41,3.6-.18.07-.31.11-.39.11-.13,0-.2-.1-.33-.39-.2-.44-.43-.74-.69-1.03,2.24-.65,4.12-1.6,5.61-3.04h-1.06c-1.6,0-2.18.03-2.27.03-.16,0-.18-.02-.18-.18,0-.11.03-.52.03-1.54v-2.7c0-1.01-.03-1.44-.03-1.54,0-.18.02-.2.18-.2.1,0,.67.03,2.27.03h2.22v-1h-4.17ZM365.47,82.69v-1.15h-2.99v1.15h2.99ZM365.47,85.1v-1.16h-2.99v1.16h2.99ZM367.17,81.55v1.15h3.3v-1.15h-3.3ZM370.48,83.94h-3.3v1.16h3.3v-1.16Z"/>
          <path class="cls-5" d="M380.86,83c-1.44,0-1.91.03-2.01.03-.15,0-.16-.02-.16-.18v-1.18c0-.16.02-.18.16-.18.1,0,.57.03,2.01.03h2.11c.26-.51.46-1.05.62-1.55.08-.25.1-.44.11-.72.54.1.95.23,1.42.34.16.05.2.11.2.23,0,.1-.03.16-.13.25s-.16.18-.25.38c-.18.41-.31.7-.51,1.08,1.13,0,1.6-.03,1.77-.03s.18.02.18.18v1.18c0,.16-.02.18-.18.18-.1,0-.59-.03-2.01-.03h-.75c-.03.11-.03.33-.03.9v.29h.56c1.39,0,1.86-.03,1.96-.03.16,0,.18.02.18.18v1.16c0,.16-.02.18-.18.18-.1,0-.57-.03-1.96-.03h-.11c.62.72,1.32,1.29,2.09,1.72-.18.25-.34.51-.57,1.05-.07.16-.11.26-.2.26-.07,0-.18-.07-.34-.23-.51-.44-1-1-1.46-1.7.02,2.27.08,3.57.08,4.14,0,.16-.02.18-.2.18h-1.29c-.16,0-.18-.02-.18-.18,0-.54.05-1.73.07-3.78-.59,1-1.26,1.78-2.13,2.65-.16.15-.26.23-.34.23-.11,0-.18-.11-.26-.33-.18-.43-.41-.82-.64-1.1,1.16-.77,2.13-1.73,2.9-2.91h-.41c-1.41,0-1.88.03-1.98.03-.16,0-.18-.02-.18-.18v-1.16c0-.16.02-.18.18-.18.1,0,.57.03,1.98.03h.85v-.29c0-.38,0-.65-.02-.9h-.95ZM381.13,79.08c-1.36,0-1.83.03-1.93.03-.16,0-.18-.02-.18-.18v-1.13c0-.16.02-.18.18-.18.1,0,.57.03,1.93.03h.64v-.44c0-.38-.02-.74-.1-1.08.59.02,1.11.03,1.7.08.16.02.26.07.26.15,0,.1-.05.18-.1.28-.08.15-.08.28-.08.59v.43h.56c1.36,0,1.82-.03,1.91-.03.18,0,.2.02.2.18v1.13c0,.16-.02.18-.2.18-.1,0-.56-.03-1.91-.03h-2.88ZM380.89,81.4c-.21.07-.28.05-.33-.13-.13-.52-.23-.98-.46-1.44-.1-.18-.08-.23.15-.28l.83-.25c.2-.05.23-.02.29.11.26.46.46.98.61,1.47.05.16.02.21-.16.26l-.93.25ZM388.51,82.92c-.02,1.9-.11,3.47-.42,4.73-.26,1.03-.61,1.95-1.41,3.11-.15.2-.23.31-.34.31-.08,0-.18-.08-.36-.23-.34-.29-.72-.52-1.06-.65.93-1.11,1.39-2.09,1.69-3.32.25-1.01.33-2.37.33-4.71v-1.78c0-.97-.02-1.83-.1-2.8.57.1,1.01.21,1.5.39,1.1-.28,2.08-.7,2.83-1.13.36-.2.6-.38.87-.61.38.31.75.74,1.06,1.16.08.11.11.21.11.31s-.1.18-.25.2c-.18.02-.36.07-.64.2-1.08.52-2.37,1.01-3.81,1.34v2h2.8c1.59,0,2.13-.03,2.22-.03.16,0,.18.02.18.18v1.19c0,.16-.02.18-.18.18-.08,0-.52-.02-1.65-.03v5.76c0,1.54.03,2.18.03,2.26,0,.18-.02.2-.16.2h-1.34c-.16,0-.18-.02-.18-.2,0-.08.03-.72.03-2.26v-5.76h-1.75Z"/>
          <path class="cls-5" d="M399.94,82.76c-.29.39-.62.79-.95,1.16-.13.15-.23.21-.29.21s-.11-.08-.18-.28c-.11-.52-.34-1.1-.54-1.41,1.42-1.52,2.4-3.3,3.09-5.22.13-.38.21-.74.26-1.15.59.15,1.13.28,1.62.49.18.08.25.13.25.25s-.03.2-.16.29c-.11.08-.2.23-.34.65-.31.8-.67,1.6-1.08,2.37v8.29c0,1.6.03,2.4.03,2.49,0,.16-.02.18-.16.18h-1.41c-.15,0-.16-.02-.16-.18,0-.1.03-.88.03-2.49v-5.68ZM404.75,90.41c-1.6,0-2.18.03-2.27.03-.16,0-.18-.02-.18-.2v-1.26c0-.16.02-.18.18-.18.1,0,.67.03,2.27.03h2v-3.39h-1.1c-1.52,0-2.04.03-2.14.03-.18,0-.2-.02-.2-.18v-1.23c0-.16.02-.18.2-.18.1,0,.62.03,2.14.03h1.1v-2.83h-1.54c-1.59,0-2.13.03-2.22.03-.16,0-.18-.02-.18-.18v-1.24c0-.18.02-.18.18-.18.1,0,.64.02,2.22.02h5.12c1.57,0,2.13-.02,2.22-.02.18,0,.2,0,.2.18v1.24c0,.16-.02.18-.2.18-.1,0-.65-.03-2.22-.03h-1.83v2.83h1.29c1.54,0,2.06-.03,2.16-.03.16,0,.18.02.18.18v1.23c0,.16-.02.18-.18.18-.1,0-.62-.03-2.16-.03h-1.29v3.39h2.31c1.6,0,2.16-.03,2.26-.03.16,0,.18.02.18.18v1.26c0,.18-.02.2-.18.2-.1,0-.65-.03-2.26-.03h-6.05ZM406.17,76.31c.11-.13.2-.13.34-.07.95.39,1.93.98,2.85,1.65.08.07.13.1.13.15,0,.03-.05.1-.11.18l-.77.87c-.16.2-.23.2-.36.1-.82-.69-1.88-1.31-2.85-1.75-.08-.05-.11-.08-.11-.13s.03-.1.11-.18l.77-.82Z"/>
          <path class="cls-5" d="M421.67,87.7c1.06.9,2.52,1.37,5.05,1.37s4.12-.07,6.22-.31c-.23.38-.39.77-.46,1.19q-.11.54-.62.56c-1.64.11-3.04.16-5.15.16s-4.16-.25-5.59-1.5c-.11-.1-.23-.18-.33-.29-.47.64-1.05,1.23-1.72,1.82-.18.15-.28.23-.36.23-.1,0-.16-.11-.29-.33-.25-.43-.54-.75-.85-1.01.87-.64,1.57-1.28,2.13-2-.47-.69-.9-1.5-1.28-2.5-.11-.26-.11-.31.1-.43l.8-.43c.28-.15.29-.08.41.2.23.72.49,1.31.79,1.82.41-.87.69-1.9.85-3.16h-1.41l-.26.39c-.07.1-.11.15-.2.15-.11,0-.29-.08-.69-.26-.49-.23-.65-.29-.65-.39,0-.05.03-.11.1-.2,1.08-1.5,1.86-2.93,2.5-4.29h-1.08c-1.06,0-1.39.03-1.49.03-.16,0-.18-.02-.18-.18v-1.21c0-.18.02-.2.18-.2.1,0,.43.03,1.49.03h1.78c.16,0,.29-.02.36-.03s.13-.05.2-.05c.1,0,.21.07.54.47.28.36.43.56.43.7s-.07.2-.16.28c-.18.1-.31.38-.44.61-.38.69-.87,1.64-1.49,2.68h.79c.16,0,.28-.02.38-.08.1-.05.13-.08.21-.08.13,0,.26.1.59.47.33.34.39.46.39.59s-.05.2-.18.33c-.11.13-.15.31-.2.57-.23,1.65-.62,3.01-1.28,4.2l.08.07ZM425.24,87.39c-1.55,0-2.09.03-2.19.03-.16,0-.18-.02-.18-.2v-1c0-.18.02-.2.18-.2.1,0,.64.03,2.19.03h1.31v-.92h-.72c-1.47,0-2,.03-2.09.03-.16,0-.18-.02-.18-.18v-.95c0-.16.02-.18.18-.18.1,0,.62.03,2.09.03h.72v-.92h-.88c-1.28,0-1.69.03-1.78.03-.16,0-.18-.02-.18-.18v-.92c0-.16.02-.18.18-.18.1,0,.51.03,1.78.03h.88v-.92h-1.47c-1.5,0-2.01.03-2.11.03-.16,0-.18-.02-.18-.2v-.97c0-.16.02-.18.18-.18.1,0,.61.03,2.11.03h1.47v-.9h-.6c-1.46,0-1.93.03-2.03.03-.16,0-.18-.02-.18-.18v-.95c0-.16.02-.18.18-.18.1,0,.57.03,2.03.03h.6c-.02-.57-.05-.95-.11-1.32.62.02,1.06.05,1.6.11.16.02.26.07.26.16s-.05.16-.1.26c-.07.11-.1.28-.1.79h.95c1.5,0,2.22-.03,2.32-.03.18,0,.2.02.2.18,0,.1-.03.59-.03,1.62v.38c.51,0,1.01-.03,1.1-.03.16,0,.18.02.18.18v.98c0,.16-.02.18-.18.18-.08,0-.59-.02-1.1-.03v.39c0,1.03.03,1.5.03,1.59,0,.16-.02.18-.2.18-.1,0-.82-.03-2.32-.03h-.95v.92h1.37c1.47,0,1.98-.03,2.08-.03.18,0,.2.02.2.18v.95c0,.16-.02.18-.2.18-.1,0-.61-.03-2.08-.03h-1.37v.92h1.93c1.57,0,2.11-.03,2.21-.03.16,0,.18.02.18.2v1c0,.18-.02.2-.18.2-.1,0-.64-.03-2.21-.03h-1.93c.02.72.03,1.06.03,1.13,0,.18-.02.2-.18.2h-1.24c-.18,0-.2-.02-.2-.2,0-.03.02-.41.02-1.13h-1.29ZM428.1,78.69v.9h1.91v-.9h-1.91ZM430.01,80.86h-1.91v.92h1.91v-.92Z"/>
          <path class="cls-5" d="M446.02,79.8c-.38,2.78-1.06,5.33-2.04,7.05-.7,1.23-1.55,1.88-2.78,1.88-1.44,0-2.9-1.54-2.9-4.2,0-1.57.67-3.08,1.85-4.25,1.37-1.37,3.11-2.09,5.32-2.09,3.93,0,6.23,2.42,6.23,5.68,0,3.04-1.72,4.96-5.04,5.95-.34.1-.49.03-.7-.29-.18-.28-.52-.65-1.15-1.03,2.76-.65,4.94-1.8,4.94-4.89,0-1.95-1.47-3.79-3.66-3.79h-.07ZM441.33,81.39c-.79.88-1.28,1.98-1.28,3.03,0,1.5.61,2.34,1.11,2.34.43,0,.79-.21,1.23-1,.72-1.32,1.46-3.68,1.73-5.86-1.15.23-2.06.69-2.8,1.49Z"/>
          <path class="cls-5" d="M467.79,80.93h-5.71c-1.11,0-1.88.03-2.45.1-.18,0-.25-.08-.25-.28-.05-.44-.08-1.21-.08-1.75.98.1,1.55.11,2.73.11h4.86c.85,0,1.72-.03,2.58-.07.26,0,.34.07.33.28,0,.87-.03,1.72-.03,2.58v3.91c0,1.19.05,2.5.07,2.96,0,.16-.07.21-.29.23-.46.03-.98.03-1.44,0-.26-.02-.31-.03-.31-.28v-.65h-5.63c-1.03,0-1.9.05-2.68.07-.15,0-.21-.07-.23-.25-.05-.43-.08-1.01-.08-1.7.77.05,1.72.08,3.01.08h5.61v-5.35Z"/>
          <path class="cls-5" d="M487.41,80.93h-5.71c-1.11,0-1.88.03-2.45.1-.18,0-.25-.08-.25-.28-.05-.44-.08-1.21-.08-1.75.98.1,1.55.11,2.73.11h4.86c.85,0,1.72-.03,2.58-.07.26,0,.34.07.33.28,0,.87-.03,1.72-.03,2.58v3.91c0,1.19.05,2.5.07,2.96,0,.16-.07.21-.29.23-.46.03-.98.03-1.44,0-.26-.02-.31-.03-.31-.28v-.65h-5.63c-1.03,0-1.9.05-2.68.07-.15,0-.21-.07-.23-.25-.05-.43-.08-1.01-.08-1.7.77.05,1.72.08,3.01.08h5.61v-5.35Z"/>
          <path class="cls-5" d="M501.4,78.62c.08-.49.16-1.13.16-1.82.85.18,1.31.29,1.96.54.16.05.26.18.26.33,0,.08-.03.16-.11.25-.16.21-.25.39-.33.62-.21.67-.38,1.28-.59,1.96.44-.05.93-.07,1.31-.07,1.52,0,2.34,1.06,2.34,3.16,0,1.77-.33,3.94-.88,5.12-.47,1.05-1.26,1.54-2.21,1.54-.79,0-1.34-.08-1.7-.25-.2-.08-.29-.21-.29-.46-.05-.52-.08-.98-.31-1.52.74.34,1.37.43,1.88.43.54,0,.79-.2,1.05-.87.34-.92.64-2.47.64-4.07,0-1.15-.21-1.5-.93-1.5-.39,0-.9.05-1.37.11-1.08,3.14-2.01,5.4-3.29,7.69-.1.21-.23.25-.43.15-.29-.15-.93-.54-1.13-.72-.08-.08-.13-.15-.13-.25,0-.05.02-.11.06-.18,1.31-2.27,2.16-4.01,2.99-6.41-.64.1-1.16.2-1.6.28-.42.08-.69.18-.9.26-.23.08-.42.05-.52-.21-.15-.38-.33-.97-.51-1.68.72,0,1.44-.05,2.16-.11.69-.07,1.29-.15,1.93-.25.26-.93.38-1.5.49-2.06ZM507.88,79.72c.11-.07.2-.03.31.08,1.11,1.05,2.11,2.4,2.72,3.97.06.15.05.23-.07.33-.28.26-.9.65-1.23.82-.16.08-.33.07-.38-.13-.65-1.72-1.5-3.12-2.68-4.24.41-.28.88-.61,1.33-.83ZM508.32,77.43c.08-.07.15-.05.25.03.51.39,1.1,1.05,1.55,1.75.06.1.06.18-.05.26l-.69.51c-.12.08-.2.07-.28-.05-.49-.75-1.01-1.37-1.65-1.9l.87-.61ZM509.78,76.36c.1-.07.15-.05.25.03.61.46,1.19,1.11,1.55,1.68.07.1.08.2-.05.29l-.65.51c-.13.1-.21.05-.28-.05-.44-.7-.96-1.32-1.64-1.88l.82-.59Z"/>
          <path class="cls-5" d="M516.12,79.77c0-.16.02-.18.16-.18.1,0,.51.03,1.68.03.13-.61.25-1.21.34-1.85.07-.41.11-.98.11-1.54.56.03,1.13.1,1.65.23.16.05.26.1.26.2s-.05.2-.15.34c-.11.16-.18.36-.25.77-.12.64-.21,1.26-.33,1.85h.82c1.29,0,1.73-.03,1.83-.03.16,0,.21.03.2.21-.05.47-.08.9-.1,1.21-.16,2.01-.57,3.75-1.28,5.27.56.39,1.11.83,1.64,1.31.11.08.1.15-.02.33l-.65,1.06c-.06.1-.11.13-.16.13-.03,0-.07-.02-.13-.08-.46-.47-.95-.92-1.46-1.32-.75,1.11-1.7,2.06-2.88,2.85-.2.13-.31.2-.39.2-.11,0-.18-.11-.34-.36-.23-.36-.49-.65-.77-.88,1.29-.75,2.31-1.65,3.06-2.76-.41-.28-.83-.54-1.23-.77l-.21.49c-.1.21-.13.23-.39.11l-.83-.38c-.18-.08-.26-.1-.26-.18,0-.05.03-.11.1-.25.57-1.37,1.08-2.96,1.5-4.69-.93.02-1.29.03-1.37.03-.15,0-.16-.02-.16-.18v-1.16ZM519.29,81.07c-.28,1.23-.61,2.37-.98,3.44.47.26.95.54,1.44.85.54-1.19.88-2.6,1.01-4.29h-1.47ZM524.81,84.44c-1.5,0-2.03.03-2.11.03-.18,0-.2-.02-.2-.16v-1.29c0-.16.02-.18.2-.18.08,0,.61.03,2.11.03h1.1c0-.8-.02-1.37-.13-2.13l.6.03c.75-.75,1.28-1.34,1.82-2.11h-2.98c-1.42,0-1.9.03-2,.03-.16,0-.18-.02-.18-.2v-1.24c0-.18.02-.2.18-.2.1,0,.57.03,2,.03h3.7c.15,0,.25-.02.29-.05.07-.03.13-.07.21-.07.13,0,.29.05.69.43.42.41.52.57.52.72,0,.11-.05.21-.16.28-.15.1-.28.23-.61.69-.59.77-1.31,1.64-2.22,2.54-.03.2-.03.46-.03.95v.29h1.18c1.52,0,2.03-.03,2.13-.03.16,0,.18.02.18.18v1.29c0,.15-.02.16-.18.16-.1,0-.61-.03-2.13-.03h-1.18v1.78c0,1.19.03,1.86.03,2.45,0,.97-.18,1.39-.57,1.72s-.92.43-2.47.43q-.51.02-.61-.49c-.13-.51-.33-.97-.54-1.24.64.07,1.13.1,1.8.1.44,0,.65-.25.65-.75v-3.99h-1.1Z"/>
          <path class="cls-5" d="M541.4,77.9c-.15-.36-.29-.69-.57-1.05.65-.11,1.33-.18,1.98-.18.23,0,.36.13.36.29,0,.1-.03.21-.03.31,0,.15.03.31.07.49.11.43.16.57.26.85,1.28-.25,2.18-.49,3.34-.87.15-.07.23-.05.28.08.1.31.21.77.28,1.1.03.16-.08.26-.2.29-1.1.34-2.09.59-3.21.83.15.41.36.92.57,1.37,1.33-.28,2.19-.56,2.98-.85.16-.08.25-.05.29.1.15.38.21.69.29,1.08.03.15.03.23-.13.29-.82.31-1.85.61-2.76.8.7,1.18,1.34,2.09,2.14,2.83.16.15.16.21.08.39-.18.38-.41.7-.67,1.01-.1.11-.16.16-.26.16-.07,0-.13-.03-.23-.1-.26-.21-.59-.36-.97-.52-.83-.36-1.91-.52-3.08-.52-1.54,0-2.44.47-2.44,1.24,0,1.06,1.39,1.41,3.89,1.41.61,0,1.21-.07,1.8-.1.16,0,.21.08.2.21-.06.41-.18,1.05-.33,1.49-.05.16-.12.23-.34.25-.38.03-.77.05-1.18.05-3.76,0-5.76-1.06-5.76-3.08,0-1.75,1.5-2.85,4.06-2.85,1.19,0,2.16.13,2.81.41-.38-.44-.92-1.23-1.36-1.93-1.68.26-3.29.46-4.48.49-.18,0-.25-.07-.29-.23-.1-.33-.25-.88-.29-1.34,1.64-.03,2.94-.16,4.4-.41-.16-.34-.41-.9-.62-1.36-1.5.23-2.71.38-3.97.39-.2,0-.29-.07-.33-.23-.05-.18-.16-.79-.26-1.31,1.6.02,2.91-.11,4.07-.26-.13-.38-.23-.65-.39-1.06Z"/>
          <path class="cls-5" d="M563.53,86.6h-1.65l-.46-9.73h2.55l-.44,9.73ZM563.84,88.19v2.21h-2.32v-2.21h2.32Z"/>
        </g>
        <circle class="cls-5" cx="464.2" cy="69.78" r="1.81"/>
        <circle class="cls-5" cx="487.58" cy="69.78" r="1.81"/>
      </g>
      <g>
        <path class="cls-5" d="M367.72,53.22l-2.91-1.76c-.44-.31-.66-.64-.66-.98s.73-1.51,2.2-3.52c1.06-1.43,2.49-3.4,4.29-5.9,1.8-2.5,3.24-4.56,4.34-6.17,1.09-1.61,2.43-3.73,4.01-6.35,1.58-2.62,3.02-5.18,4.34-7.68,3.03-5.76,4.55-9.43,4.55-11.02,0-1.88-.88-2.81-2.63-2.81-1.31,0-3.18.55-5.6,1.66-2.42,1.11-4.93,2.56-7.53,4.36-2.6,1.8-4.75,3.67-6.47,5.63-1.72,1.95-2.58,3.67-2.58,5.16,0,.23.08.41.23.53.16.12.44.18.84.18.75,0,1.97-.36,3.66-1.09.75-.31,1.13-.26,1.13.16s-1.19,1.49-3.56,3.22c-2.38,1.73-4.13,2.6-5.25,2.6-.97,0-2.32-.7-4.06-2.09-1.74-1.39-2.6-2.66-2.6-3.81,0-.44.48-1.5,1.45-3.17.97-1.67,2.3-3.55,3.99-5.65,1.69-2.1,3.47-3.91,5.35-5.45,2.16-1.8,4.62-3.4,7.39-4.81,2.77-1.41,5.42-2.5,7.97-3.28,2.55-.78,4.6-1.17,6.17-1.17,2.25,0,4.01.71,5.27,2.13,1.27,1.42,1.9,3.41,1.9,5.96,0,3.39-1.59,8.28-4.78,14.69s-8.1,13.91-14.72,22.51c.09.26.2.54.33.84.12.3.19.58.19.84,0,.05-.05.15-.14.29-.09.14-.2.29-.33.45-.13.16-.2.26-.23.31l-3.42,4.69c-.38.55-.77.82-1.17.82-.38,0-.69-.1-.94-.31Z"/>
        <path class="cls-5" d="M442.79,39.35v2.89c-6.53,7.22-11.85,10.82-15.94,10.82-2.22,0-3.96-1.01-5.23-3.03-1.27-2.02-1.9-4.67-1.9-7.95,0-2.66.75-5.82,2.25-9.48,1.5-3.66,3.51-7.37,6.02-11.14,2.52-3.76,5.13-7.05,7.83-9.85,2.7-2.8,5.21-4.76,7.53-5.88.94-.47,1.67-.7,2.2-.7.66,0,1.09.24,1.31.72.22.48.33,1.31.33,2.48,0,3.62-1.77,8.07-5.3,13.34-3.53,5.27-8.46,10.66-14.77,16.16-.31,1.35-.47,2.4-.47,3.13,0,1.67.43,3.02,1.29,4.06.86,1.04,2.06,1.56,3.59,1.56.78,0,1.62-.25,2.53-.76.91-.51,1.86-1.14,2.86-1.9,1-.76,2.95-2.25,5.86-4.49ZM428.77,32.31c1.62-1.33,3.2-2.84,4.71-4.53,1.52-1.69,2.95-3.5,4.29-5.43,1.34-1.93,2.4-3.66,3.17-5.2.77-1.54,1.15-2.7,1.15-3.48,0-.6-.25-.9-.75-.9-.19,0-.55.14-1.08.43-1.91,1.3-4.05,3.85-6.42,7.64-2.38,3.79-4.06,7.61-5.06,11.47Z"/>
        <path class="cls-5" d="M464.78,39.78v2.85c-3.03,3.26-5.86,5.71-8.49,7.37-2.63,1.65-4.86,2.48-6.71,2.48-2.56,0-4.47-1.12-5.72-3.36-1.25-2.24-1.88-4.69-1.88-7.35,0-1.02.12-1.99.38-2.91.25-.92.55-1.69.89-2.29.34-.6.98-1.54,1.92-2.81,4.44-5.76,8.5-8.64,12.19-8.64,1.91,0,2.86.61,2.86,1.84,0,.83-.62,2.14-1.85,3.91-1.24,1.77-2.34,3.03-3.31,3.79-2.72,2.19-4.49,3.71-5.32,4.57-.83.86-1.24,1.84-1.24,2.93,0,.94.42,1.72,1.27,2.34.84.63,1.94.94,3.28.94,1.47,0,3.09-.45,4.85-1.35,1.77-.9,4.06-2.34,6.87-4.32ZM461.59,22.31c-.78,0-1.52-.25-2.23-.74-.7-.49-1.05-1.12-1.05-1.88,0-1.15.66-2.42,1.97-3.83s2.67-2.11,4.08-2.11c.94,0,1.72.24,2.34.72.62.48.94,1.18.94,2.09,0,1.12-.64,2.36-1.92,3.71-1.28,1.35-2.66,2.03-4.13,2.03Z"/>
        <path class="cls-5" d="M499.71,39.78v2.62c-3.5,3.41-6.44,6-8.81,7.76-2.38,1.76-4.36,2.64-5.96,2.64s-2.92-.38-4.15-1.13c-1.24-.76-2.34-1.8-3.33-3.13-.98-1.33-2.15-3.18-3.49-5.55-1.59,1.64-3.03,3.17-4.31,4.59-1.28,1.42-2.17,2.36-2.67,2.83-.5.47-.95.7-1.36.7-.84,0-1.45-.45-1.83-1.35s-.56-2.21-.56-3.93c0-2.34.34-4.6,1.01-6.78.67-2.17,1.64-4.29,2.91-6.35,1.27-2.06,2.89-4.28,4.88-6.66,1.98-2.38,4.21-4.88,6.68-7.48,3.41-3.59,6.35-6.53,8.81-8.81,2.47-2.28,4.62-4,6.45-5.16,1.83-1.16,3.35-1.74,4.57-1.74,1.5,0,2.25.56,2.25,1.68,0,.96-2.77,4.43-8.3,10.41-5.53,5.98-13.6,14.14-24.2,24.48v3.36c7.1-6.33,12.81-11.03,17.14-14.11,4.33-3.07,7.68-4.61,10.06-4.61.97,0,1.72.48,2.25,1.43.53.95.8,2.05.8,3.3,0,2.55-1.31,4.92-3.94,7.09-2.63,2.18-6.66,4.67-12.1,7.48.94,1.17,1.77,2.03,2.49,2.56.72.53,1.62.8,2.72.8.97,0,2.02-.27,3.14-.82,1.12-.55,2.27-1.24,3.45-2.07,1.17-.83,2.98-2.19,5.42-4.06ZM481.19,41.77c1.19-.65,2.67-1.66,4.43-3.03,1.77-1.37,3.27-2.79,4.52-4.26,1.25-1.47,1.88-2.7,1.88-3.69,0-.42-.22-.63-.66-.63-1.19,0-3.23.95-6.12,2.85-2.89,1.9-5.71,4.34-8.46,7.31,1.19,0,2.66.48,4.41,1.45Z"/>
        <path class="cls-5" d="M506.93,41.18v.98c0,1.54.45,2.74,1.36,3.59.91.86,2.09,1.29,3.56,1.29s3.12-.3,4.76-.9c1.64-.6,3.27-1.39,4.9-2.38,1.62-.99,3.61-2.32,5.96-3.99v2.38c-3.53,3.54-6.85,6.26-9.94,8.15-3.09,1.89-6.24,2.83-9.42,2.83-2.78,0-4.99-.9-6.61-2.7-1.63-1.8-2.44-4.26-2.44-7.39,0-2.74.77-5.22,2.3-7.44,1.53-2.23,4.03-4.58,7.5-7.05,2.38-1.69,4.74-2.97,7.08-3.83,2.34-.86,4.44-1.29,6.28-1.29,1.47,0,2.63.28,3.49.84.86.56,1.29,1.4,1.29,2.52,0,1.64-.73,3.28-2.2,4.9-1.47,1.63-3.71,3.24-6.73,4.85s-6.73,3.15-11.14,4.63ZM507.4,38.65c2.81-.91,5.22-2.04,7.22-3.4,2-1.35,3.48-2.65,4.43-3.89.95-1.24,1.43-2.14,1.43-2.72s-.33-.9-.98-.9c-.56,0-1.48.3-2.74.9-1.27.6-2.55,1.38-3.84,2.34-1.3.96-2.46,2.1-3.49,3.4-1.03,1.3-1.7,2.72-2.02,4.26Z"/>
        <path class="cls-5" d="M576.85,39.78v2.85c-3.03,3.26-5.86,5.71-8.49,7.37-2.63,1.65-4.86,2.48-6.71,2.48-2.56,0-4.47-1.12-5.72-3.36-1.25-2.24-1.88-4.69-1.88-7.35,0-1.02.12-1.99.38-2.91.25-.92.55-1.69.89-2.29.34-.6.98-1.54,1.92-2.81,4.44-5.76,8.5-8.64,12.19-8.64,1.91,0,2.86.61,2.86,1.84,0,.83-.62,2.14-1.85,3.91-1.23,1.77-2.34,3.03-3.31,3.79-2.72,2.19-4.49,3.71-5.32,4.57-.83.86-1.24,1.84-1.24,2.93,0,.94.42,1.72,1.27,2.34.84.63,1.94.94,3.28.94,1.47,0,3.09-.45,4.85-1.35,1.77-.9,4.06-2.34,6.87-4.32ZM573.66,22.31c-.78,0-1.52-.25-2.23-.74-.7-.49-1.06-1.12-1.06-1.88,0-1.15.66-2.42,1.97-3.83s2.67-2.11,4.08-2.11c.94,0,1.72.24,2.34.72.62.48.94,1.18.94,2.09,0,1.12-.64,2.36-1.92,3.71-1.28,1.35-2.66,2.03-4.13,2.03Z"/>
        <path class="cls-5" d="M592.88,19.5h2.02c1.66-2.47,3.16-4.23,4.5-5.26,1.34-1.03,2.88-1.54,4.59-1.54s2.58.33,2.58.98c0,.31-.67,1.16-2.02,2.54-1.34,1.38-2.36,2.54-3.05,3.48,1.06.1,2.01.2,2.84.27.83.08,1.48.14,1.95.2-1.78,2.76-4.02,5.59-6.71,8.48-.88-.05-1.61-.1-2.2-.14s-1.2-.08-1.81-.12c-.61-.04-1.35-.08-2.23-.14-1.69,2.27-3.1,4.29-4.24,6.08-1.14,1.78-2.02,3.42-2.63,4.9-.61,1.48-.91,2.89-.91,4.22,0,1.8.86,2.7,2.58,2.7,1.19,0,2.74-.53,4.67-1.58,1.92-1.05,4.49-2.68,7.71-4.86v2.62c-8.44,7.63-14.68,11.45-18.71,11.45-1.41,0-2.54-.46-3.4-1.37-.86-.91-1.29-2.08-1.29-3.52,0-.96.24-2.11.73-3.44.48-1.33,1.35-3.33,2.6-6.02-.44.31-.85.62-1.24.92-.39.3-.75.57-1.08.82-.33.25-.68.51-1.06.78-.38.27-.75.55-1.12.84v-2.7c3.28-2.29,7.25-6.32,11.91-12.07-.47-.03-.91-.05-1.31-.06-.41-.01-.89-.02-1.45-.02-1.84,0-3.22.1-4.13.31-.38.08-.73.16-1.06.25-.33.09-.55.14-.68.14s-.19-.08-.19-.23c0-.86.64-2.15,1.92-3.87,1.03-1.46,2.01-2.54,2.93-3.24.92-.7,2.05-1.18,3.38-1.43,1.33-.25,3.2-.37,5.6-.37Z"/>
        <path class="cls-5" d="M609.95,51.77c-.94,0-1.86-.34-2.77-1.04-.91-.69-1.36-1.66-1.36-2.91,0-1.64.51-3.49,1.52-5.55,1.02-2.06,2.07-3.09,3.17-3.09.69,0,1.38.2,2.09.61.7.4,1.3.97,1.81,1.7.5.73.75,1.54.75,2.42,0,1.43-.58,3.1-1.74,5-1.16,1.9-2.31,2.85-3.47,2.85ZM633.11,1.99c.66-.16,1.23-.23,1.73-.23,1.03,0,2.17.27,3.4.82,1.24.55,2.27,1.32,3.12,2.31-1.47,1.8-3.85,4.74-7.15,8.83-3.3,4.09-5.76,7.15-7.38,9.18-1.63,2.03-3.3,4.14-5.02,6.33-1.72,2.19-3.02,3.88-3.89,5.08.59.1.89.4.89.9,0,.31-.37.85-1.1,1.6-.74.76-1.4,1.13-1.99,1.13-.69,0-1.56-.52-2.63-1.56-1.06-1.04-1.59-1.94-1.59-2.7,0-.36.24-.99.73-1.88.48-.89,1.34-2.22,2.56-4.01,1.22-1.78,2.59-3.76,4.1-5.92,1.52-2.16,3.37-4.82,5.56-7.97,4.28-6.12,7.17-10.09,8.67-11.92Z"/>
      </g>
    </g>
  </g>
</svg>