<?xml version="1.0" encoding="UTF-8"?><svg xmlns="http://www.w3.org/2000/svg" viewBox="0 0 587.02 211.89"><defs><style>.d{fill:#002fcd;}.e{fill:#fff;}</style></defs><g id="a"/><g id="b"><g id="c"><g><g><path class="d" d="M60.66,44.21c-10.41,3.32-33.24,11.15-60.66,23.84l40.59,12.89-8.62,39.83s28.28-16.04,68.31-26.6l-22.13-4.22-17.49-45.75Z"/><g><path class="d" d="M78.14,89.96l22.13,4.22-3.87-10.64c-12.02,3.69-18.26,6.42-18.26,6.42Z"/><path class="e" d="M83.56,89.45l14.39,2.75-2.47-6.79c-5.13,1.6-9.12,3.01-11.92,4.04Z"/></g><path class="d" d="M526.37,44.21c10.41,3.32,33.24,11.15,60.66,23.84l-40.59,12.89,8.62,39.83s-28.28-16.04-68.31-26.6l22.13-4.22,17.49-45.75Z"/><g><path class="d" d="M508.88,89.96l-22.13,4.22,3.87-10.64c12.03,3.69,18.26,6.42,18.26,6.42Z"/><path class="e" d="M491.54,85.4l-2.47,6.79,14.39-2.75c-2.8-1.04-6.79-2.44-11.92-4.04Z"/></g><path class="d" d="M296.78,0c157.03,0,234,32.67,234,32.67l-21.9,57.29s-76.91-27.08-214.15-27.08h-2.44c-137.23,0-214.15,27.08-214.15,27.08l-21.9-57.29S133.21,0,290.24,0h6.54Z"/></g><g><path class="e" d="M101.51,39.38c-2.49,.53-3.34,.77-3.51,.8-.29,.06-.32,.04-.38-.25l-.44-2.06c-.06-.29-.04-.32,.25-.38,.17-.04,1.04-.16,3.53-.69l7.3-1.55c-.27-1.26-.48-1.96-.86-2.93,1.06-.2,2.11-.36,3.13-.46,.29-.03,.49,.07,.52,.19,.05,.26,0,.45-.04,.67-.08,.35,0,.87,.22,1.9l7.84-1.66c2.49-.53,3.34-.77,3.51-.8,.26-.05,.29-.03,.35,.25l.44,2.06c.06,.29,.04,.32-.22,.38-.17,.04-1.04,.16-3.53,.69l-7.84,1.66,.37,1.75,4.44-.94c2.81-.6,3.79-.86,3.97-.9,.31-.07,.35-.04,.42,.27,.04,.17,.14,.93,.51,2.7l1,4.72c.38,1.77,.59,2.51,.63,2.68,.06,.29,.04,.32-.28,.39-.17,.04-1.19,.19-3.99,.79l-2.38,.5c3.29,1.82,7.36,2.69,11.59,2.87-.39,.71-.65,1.43-.81,2.24-.11,.59-.16,.81-.39,.86-.14,.03-.36-.01-.7-.06-4.01-.56-8.28-1.8-11.58-4.24,.78,3.51,1.55,6.31,1.64,6.74,.06,.29,.04,.32-.25,.38l-2.58,.55c-.29,.06-.32,.04-.38-.25-.09-.43-.5-3.21-1.21-6.71-1.89,3.36-4.74,6.15-8.14,8.31-.29,.18-.5,.32-.64,.35-.23,.05-.38-.1-.72-.57-.51-.7-1.02-1.13-1.58-1.55,3.68-1.98,6.62-4.34,8.69-7.41l-1.86,.39c-2.81,.6-3.79,.87-3.97,.9-.29,.06-.32,.04-.38-.25-.04-.2-.14-.93-.51-2.7l-1-4.72c-.38-1.77-.59-2.51-.63-2.68-.07-.31-.04-.35,.24-.41,.17-.04,1.19-.19,3.99-.79l3.89-.83-.37-1.75-7.3,1.55Zm8.57,4.43l-.43-2-5.24,1.11,.43,2,5.24-1.11Zm.89,4.21l-.43-2.03-5.24,1.11,.43,2.03,5.24-1.11Zm1.66-6.84l.43,2,5.78-1.23-.42-2-5.78,1.23Zm6.67,2.95l-5.78,1.23,.43,2.03,5.78-1.23-.43-2.03Z"/><path class="e" d="M131.78,32.95c-2.4,.39-3.23,.58-3.4,.61-.29,.05-.32,.02-.37-.27l-.32-1.99c-.05-.29-.02-.32,.27-.37,.17-.03,1.02-.11,3.42-.49l1.13-.18-.13-.78c-.11-.66-.24-1.3-.48-1.88,1.04-.14,1.97-.26,3.03-.34,.29-.02,.48,.04,.5,.19,.03,.17-.04,.33-.09,.52-.1,.28-.06,.51,.02,1.06l.12,.75,.98-.16c2.4-.39,3.2-.58,3.37-.6,.32-.05,.35-.03,.4,.26l.32,1.99c.05,.29,.02,.32-.3,.37-.17,.03-.99,.1-3.39,.49l-5.08,.82Zm.63,7.01c-2.54,.41-3.37,.6-3.54,.63-.26,.04-.29,.02-.34-.27l-.34-2.08c-.05-.29-.02-.32,.24-.36,.17-.03,1.02-.11,3.56-.52l3.73-.6c.32-.97,.51-1.98,.65-2.92,.07-.46,.05-.81,0-1.3,.98,.02,1.74,.13,2.61,.2,.3,.04,.38,.15,.41,.35,.03,.17-.01,.3-.16,.47-.15,.17-.24,.36-.33,.73-.2,.77-.35,1.33-.59,2.05,1.99-.32,2.82-.52,3.11-.56,.29-.05,.32-.02,.37,.27l.34,2.08c.05,.29,.02,.32-.27,.37-.17,.03-1.05,.11-3.56,.52l-1.33,.21c-.02,.21,.04,.59,.2,1.6l.08,.52,.98-.16c2.46-.4,3.28-.59,3.46-.62,.29-.05,.32-.02,.37,.27l.33,2.05c.05,.29,.02,.32-.27,.37-.17,.03-1.02,.11-3.48,.5l-.2,.03c1.3,1.09,2.71,1.9,4.19,2.44-.25,.48-.46,.99-.71,2.01-.07,.31-.13,.49-.27,.52-.12,.02-.34-.06-.67-.31-1.02-.64-2.05-1.48-3.06-2.59,.68,4.01,1.16,6.27,1.33,7.28,.05,.29,.02,.32-.29,.37l-2.28,.37c-.29,.05-.32,.02-.37-.27-.15-.95-.41-3.08-.96-6.69-.75,1.93-1.72,3.51-3,5.29-.25,.31-.4,.48-.54,.5-.2,.03-.35-.15-.56-.5-.44-.7-.96-1.33-1.44-1.75,1.83-1.69,3.26-3.67,4.28-5.97l-.72,.12c-2.48,.4-3.31,.59-3.49,.62-.29,.05-.32,.02-.37-.27l-.33-2.05c-.05-.29-.02-.32,.27-.37,.17-.03,1.02-.11,3.5-.51l1.5-.24-.08-.52c-.11-.66-.19-1.16-.29-1.58l-1.68,.27Zm-.4-2.84c-.36,.18-.48,.17-.62-.14-.38-.89-.68-1.67-1.22-2.41-.22-.29-.21-.38,.18-.53l1.4-.67c.33-.14,.4-.09,.55,.12,.59,.73,1.09,1.6,1.49,2.43,.13,.27,.09,.37-.21,.51l-1.58,.7Zm13.89,.51c.51,3.36,.79,6.16,.6,8.47-.17,1.89-.51,3.61-1.6,5.89-.2,.39-.32,.61-.52,.65-.14,.02-.34-.09-.7-.3-.69-.42-1.42-.72-2.06-.85,1.33-2.23,1.86-4.09,2.03-6.34,.14-1.86-.1-4.28-.77-8.41l-.51-3.15c-.28-1.7-.55-3.23-.97-4.91,1.04,0,1.85,.09,2.77,.26,1.86-.8,3.47-1.83,4.67-2.8,.58-.45,.96-.84,1.36-1.32,.75,.44,1.54,1.09,2.21,1.75,.18,.18,.26,.34,.29,.52,.03,.17-.12,.35-.38,.42-.31,.08-.62,.22-1.07,.53-1.76,1.23-3.9,2.47-6.35,3.46l.57,3.52,4.94-.8c2.8-.45,3.75-.66,3.92-.69,.29-.05,.32-.02,.37,.27l.34,2.11c.05,.29,.02,.32-.27,.37-.14,.02-.93,.12-2.93,.41l1.64,10.17c.44,2.72,.68,3.83,.7,3.98,.05,.32,.03,.35-.23,.39l-2.37,.38c-.29,.05-.32,.02-.37-.3-.02-.14-.15-1.28-.59-4l-1.64-10.17-3.09,.5Z"/><path class="e" d="M161.24,35.06c-.44,.76-.94,1.53-1.44,2.27-.2,.29-.36,.43-.48,.44-.12,.01-.22-.12-.38-.46-.32-.91-.85-1.87-1.26-2.38,2.2-3.01,3.56-6.38,4.37-9.93,.15-.7,.22-1.35,.22-2.09,1.08,.14,2.06,.25,2.98,.52,.34,.11,.46,.18,.49,.38,.02,.2-.02,.36-.23,.56-.19,.17-.3,.45-.47,1.24-.38,1.49-.85,2.99-1.41,4.44l1.78,14.73c.34,2.85,.57,4.26,.59,4.41,.03,.29,0,.32-.25,.35l-2.5,.3c-.26,.03-.29,0-.33-.28-.02-.17-.13-1.58-.48-4.42l-1.22-10.08Zm10.18,12.56c-2.85,.34-3.86,.52-4.03,.55-.29,.04-.32,0-.36-.31l-.27-2.24c-.03-.29,0-.32,.28-.36,.17-.02,1.2-.09,4.05-.43l3.54-.43-.73-6.01-1.95,.24c-2.7,.33-3.62,.5-3.8,.52-.32,.04-.35,.01-.39-.28l-.26-2.18c-.04-.29,0-.32,.31-.36,.17-.02,1.11-.08,3.81-.4l1.95-.24-.61-5.03-2.73,.33c-2.82,.34-3.77,.51-3.94,.54-.29,.04-.32,0-.36-.28l-.27-2.21c-.04-.32,0-.32,.28-.36,.17-.02,1.14-.11,3.95-.45l9.09-1.1c2.79-.34,3.77-.49,3.95-.51,.32-.04,.35-.04,.39,.28l.27,2.21c.04,.29,0,.32-.31,.36-.17,.02-1.17,.08-3.96,.42l-3.25,.39,.61,5.03,2.29-.28c2.73-.33,3.65-.5,3.83-.52,.29-.04,.32,0,.36,.28l.26,2.18c.04,.29,0,.32-.28,.36-.17,.02-1.11,.08-3.84,.41l-2.3,.28,.73,6.01,4.1-.49c2.85-.34,3.83-.52,4-.54,.29-.03,.32,0,.36,.28l.27,2.24c.04,.32,.01,.35-.28,.39-.17,.02-1.17,.08-4.02,.43l-10.75,1.3Zm-.5-25.35c.18-.26,.32-.27,.6-.19,1.77,.49,3.64,1.33,5.41,2.32,.16,.1,.25,.15,.26,.23,0,.06-.07,.18-.16,.34l-1.18,1.7c-.25,.38-.36,.4-.62,.25-1.6-1.04-3.62-1.92-5.43-2.5-.16-.07-.22-.12-.23-.21-.01-.09,.04-.18,.16-.34l1.19-1.62Z"/><path class="e" d="M195.71,40.1c2.03,1.44,4.7,2.06,9.22,1.68,4.34-.37,7.34-.75,11.03-1.5-.35,.71-.58,1.43-.63,2.2q-.12,.98-1.02,1.09c-2.9,.45-5.4,.76-9.16,1.08-3.59,.31-7.44,.2-10.2-1.83-.22-.16-.44-.29-.63-.47-.75,1.21-1.68,2.35-2.78,3.5-.3,.29-.46,.45-.61,.46-.17,.01-.31-.18-.57-.54-.5-.72-1.08-1.26-1.67-1.68,1.45-1.27,2.6-2.51,3.49-3.88-.95-1.15-1.83-2.55-2.66-4.27-.24-.45-.25-.54,.11-.77l1.36-.88c.47-.31,.51-.19,.76,.29,.52,1.25,1.07,2.26,1.68,3.12,.6-1.61,.93-3.49,1.03-5.76l-2.51,.22-.41,.74c-.1,.18-.18,.28-.33,.29-.2,.02-.54-.1-1.26-.36-.91-.33-1.21-.42-1.23-.6,0-.09,.04-.21,.14-.36,1.69-2.85,2.88-5.5,3.81-8.02l-1.92,.17c-1.89,.16-2.47,.27-2.65,.29-.29,.03-.32,0-.35-.29l-.19-2.16c-.03-.32,0-.35,.29-.38,.17-.02,.76,0,2.66-.17l3.18-.27c.29-.03,.52-.07,.64-.11,.11-.04,.23-.11,.34-.12,.17-.02,.39,.08,1.03,.76,.55,.6,.84,.93,.87,1.19,.02,.26-.09,.36-.25,.52-.31,.2-.5,.72-.69,1.15-.57,1.28-1.29,3.05-2.24,5.01l1.4-.12c.29-.02,.49-.07,.66-.2,.17-.1,.22-.17,.37-.18,.23-.02,.48,.13,1.12,.76,.64,.56,.77,.76,.79,.99,.02,.23-.06,.36-.27,.61-.18,.25-.22,.58-.26,1.05-.16,2.98-.65,5.46-1.63,7.69l.16,.1Zm6.31-1.1c-2.77,.24-3.73,.38-3.9,.39-.29,.02-.32,0-.35-.32l-.15-1.78c-.03-.32,0-.35,.29-.38,.17-.02,1.14-.04,3.91-.28l2.33-.2-.14-1.63-1.28,.11c-2.62,.23-3.55,.36-3.73,.38-.29,.02-.32,0-.35-.29l-.14-1.69c-.02-.29,0-.32,.29-.35,.17-.01,1.11-.04,3.74-.26l1.28-.11-.14-1.63-1.57,.14c-2.27,.2-3,.32-3.17,.33-.29,.02-.32,0-.35-.29l-.14-1.63c-.02-.29,0-.32,.29-.35,.17-.01,.91-.02,3.18-.21l1.57-.14-.14-1.63-2.62,.23c-2.68,.23-3.58,.37-3.76,.38-.29,.02-.32,0-.35-.32l-.15-1.72c-.02-.29,0-.32,.29-.35,.17-.02,1.08-.03,3.77-.26l2.62-.23-.14-1.6-1.08,.09c-2.6,.22-3.44,.35-3.61,.37-.29,.02-.32,0-.35-.29l-.14-1.69c-.03-.29,0-.32,.29-.35,.18-.02,1.03-.03,3.62-.25l1.08-.09c-.12-1.02-.23-1.68-.41-2.34,1.11-.07,1.9-.08,2.87-.04,.29,0,.48,.08,.49,.25,.02,.17-.06,.3-.13,.48-.1,.21-.13,.51-.06,1.41l1.69-.15c2.68-.23,3.96-.4,4.14-.41,.32-.03,.35,0,.38,.29,.02,.17,.03,1.05,.19,2.89l.06,.67c.9-.08,1.8-.21,1.95-.23,.29-.03,.32,0,.35,.29l.15,1.75c.03,.29,0,.32-.29,.35-.15,.01-1.05,.06-1.96,.11l.06,.7c.16,1.84,.29,2.68,.3,2.82,.02,.29,0,.32-.32,.35-.17,.01-1.46,.07-4.15,.3l-1.69,.14,.14,1.63,2.45-.21c2.62-.23,3.52-.36,3.7-.38,.32-.03,.35,0,.38,.29l.15,1.69c.02,.29,0,.32-.32,.35-.17,.02-1.08,.03-3.71,.26l-2.45,.21,.14,1.63,3.44-.3c2.8-.24,3.76-.38,3.93-.4,.29-.02,.32,0,.35,.32l.15,1.78c.03,.32,0,.35-.29,.38-.18,.02-1.14,.04-3.94,.28l-3.44,.3c.14,1.28,.22,1.89,.23,2.01,.03,.32,0,.35-.29,.38l-2.22,.19c-.32,.03-.35,0-.38-.32,0-.06-.03-.73-.14-2.01l-2.3,.2Zm3.77-15.95l.14,1.6,3.41-.29-.14-1.6-3.41,.29Zm3.74,3.59l-3.41,.29,.14,1.63,3.41-.29-.14-1.63Z"/><path class="e" d="M224.99,20.4c.51,.24,.7,.4,.71,.66,.01,.2-.04,.3-.39,.9-.26,.54-.39,.96-.59,2.11-.62,3.67-.84,7.28-.71,9.5,.08,1.43,.19,2.39,.36,3.41,.54-1.38,1.01-2.37,1.75-4.46,.27,.72,.68,1.16,1.12,1.79,.1,.14,.22,.31,.23,.43,.01,.2-.04,.32-.12,.48-.59,1.56-1.08,2.84-1.43,4.5-.05,.18-.06,.5-.04,.91,.02,.35,.09,.58,.1,.82,.01,.2-.1,.33-.36,.4-.72,.24-1.53,.46-2.37,.6-.2,.04-.33-.1-.4-.3-.93-2-1.66-5.68-1.82-8.63-.14-2.63,0-5.83,.47-9.64,.26-2.18,.36-3.16,.29-4.38,1.33,.25,2.28,.49,3.19,.91Zm7,13.42c.23-.04,.3,.1,.32,.42,.28,2.01,1.73,2.66,4.91,2.49,2.19-.12,3.62-.34,5.56-.68,.29-.05,.35-.02,.43,.36,.12,.61,.27,1.74,.31,2.5,.02,.35,.02,.38-.47,.47-1.97,.34-3.37,.51-4.75,.58-4.32,.23-6.38-.36-7.73-2.01-.78-.9-1.15-2.37-1.23-3.74l2.65-.38Zm-2.23-10.84c.01-.35,.09-.44,.38-.52,1.71-.42,4.97-.8,6.31-.87,1.75-.1,3.1-.11,4.33-.06,.62,0,.68,.05,.69,.34,.05,.88,.09,1.67,.08,2.49-.02,.26-.1,.39-.36,.37-1.76-.02-3.28,0-4.77,.08-1.96,.11-3.85,.38-6.6,1.03-.06-1.64-.1-2.37-.07-2.87Z"/><path class="e" d="M253.16,35.65c-2.63,.06-3.54,.15-3.71,.15-.29,0-.32-.02-.33-.31l-.05-1.87c0-.26,.02-.29,.31-.3,.18,0,1.08,.03,3.72-.03l7.11-.17v-.15c-.02-.47-.03-.99-.07-1.49l-3.63,.09c-2.87,.07-3.92,.15-4.09,.16-.29,0-.32-.02-.33-.34,0-.18,.03-1.14-.02-3.31l-.11-4.65c-.54,.57-1.11,1.14-1.69,1.68-.29,.27-.46,.39-.6,.4-.18,0-.3-.2-.51-.6-.37-.69-.79-1.24-1.24-1.67,2.5-1.76,4.26-4.08,5.21-5.84,.42-.8,.58-1.24,.75-1.83,.94,.15,1.82,.34,2.77,.61,.27,.08,.39,.22,.39,.4,0,.18-.05,.29-.25,.45-.2,.18-.48,.51-.77,.96l-.48,.74,5.38-.13c.31-.56,.56-1.07,.75-1.57,.19-.5,.33-.97,.43-1.53,1.03,.15,1.94,.33,2.79,.55,.27,.08,.36,.25,.36,.4,0,.18-.14,.33-.28,.45-.17,.15-.43,.51-.54,.74-.17,.33-.31,.62-.48,.89l4.45-.11c2.84-.07,3.77-.15,3.98-.16,.29,0,.32,.02,.33,.28l.04,1.73c0,.32-.02,.35-.31,.36-.2,0-1.14-.03-3.98,.04l-5.06,.12,.04,1.46,3.69-.09c2.81-.07,3.77-.15,3.95-.16,.32,0,.35,.02,.36,.31l.04,1.46c0,.29-.02,.32-.34,.33-.18,0-1.14-.03-3.95,.04l-3.69,.09,.04,1.46,3.69-.09c2.81-.07,3.77-.15,3.95-.16,.32,0,.35,.02,.36,.31l.03,1.43c0,.29-.02,.32-.34,.33-.18,0-1.14-.03-3.95,.04l-3.69,.09,.04,1.55,5.32-.13c2.87-.07,3.86-.15,4.04-.16,.29,0,.32,.02,.33,.31l.04,1.64c0,.32-.02,.35-.31,.36-.18,0-1.17-.03-4.04,.04l-5.65,.14-.08,.18c-.08,.18-.07,.53-.06,1.29v.18l7.4-.18c2.63-.06,3.54-.15,3.71-.15,.29,0,.32,.02,.33,.28l.05,1.87c0,.29-.02,.32-.31,.33-.18,0-1.08-.03-3.72,.03l-5.5,.13c2.76,1.75,6.07,2.81,10.21,3.44-.51,.6-.85,1.28-1.09,1.99-.22,.59-.3,.8-.57,.8-.18,0-.35-.05-.68-.13-4.01-1.1-7.36-2.75-9.81-4.94,.08,3.25,.24,4.94,.25,5.55,0,.29-.02,.32-.28,.33l-2.52,.06c-.26,0-.29-.02-.3-.31-.02-.61,.03-2.25-.02-5.47-2.25,2.37-5.72,4.09-9.35,5.26-.32,.1-.52,.19-.7,.19-.26,0-.39-.2-.6-.75-.25-.64-.62-1.24-1.1-1.76,3.9-.97,7.03-2.16,9.62-4.1l-5.06,.12Zm7.55-13.36l-.04-1.46-5.91,.14,.04,1.46,5.91-.14Zm.09,3.45l-.04-1.46-5.91,.14,.04,1.46,5.91-.14Zm.09,3.51l-.04-1.55-5.91,.14,.04,1.55,5.91-.14Z"/><path class="e" d="M286.3,24.32c2.46-.81,4.48-1.44,6.71-1.44,3.92,.02,6.16,2.69,6.15,6.99-.01,2.87-1.05,5.21-2.4,6.98-1.38,1.87-3.35,3.41-5.67,4.63-.2,.09-.35,.14-.5,.14-.26,0-.44-.12-.7-.38-.64-.62-1.43-1.18-2.42-1.56,3.23-1.51,5.22-3.14,6.46-4.86,.85-1.2,1.62-2.8,1.63-5.17,.01-2.43-1.01-3.69-2.71-3.7-1.64,0-2.93,.43-4.6,1.24-1.73,.84-2.14,1.13-2.49,1.39-.23,.17-.41,.29-.64,.29-.38,0-.64-.38-.82-.65-.41-.62-1.02-1.91-1.48-3.08,1.2-.11,1.9-.34,3.49-.83Zm10.71-6.69c.32,.06,.44,.29,.38,.53-.12,.61-.45,2.02-.66,2.57-.09,.29-.18,.44-.41,.41-3.19-.54-5.47-1.11-8.48-2.29-.15-.06-.29-.21-.2-.59,.21-1.08,.54-1.87,.89-2.75,2.72,1.09,5.47,1.66,8.48,2.11Z"/><path class="e" d="M317.21,26.52c2.6-.74,5-1.6,7.38-2.6,1.6-.71,2.35-1.15,3.2-2,1,.88,1.92,2.11,2.34,2.71,.34,.42,.29,.92-.3,1.04-.83,.18-1.66,.56-2.46,.89-2.94,1.22-6.4,2.31-10.3,3.3l-.13,3.89c-.04,1.37,.15,1.85,.9,2.11,.75,.23,1.89,.38,3.68,.44,2.75,.09,5.21-.04,8.27-.41,.44-.04,.5,.07,.51,.43,.06,.82,.11,1.94,.09,2.55-.01,.38-.19,.49-.63,.51-3.32,.3-5.02,.36-8.7,.25-2.6-.08-4.32-.4-5.53-.97-1.44-.66-2.01-2.06-1.94-4.45l.35-10.79c.09-2.78,.07-3.89-.12-5.36,1.37,.19,2.74,.41,3.67,.7,.64,.17,.51,.66,.23,1.09-.25,.46-.33,1.25-.38,2.62l-.13,4.07Z"/><path class="e" d="M345.54,32.29c-2.89-.18-4.02,.1-4.31,.08-.35-.02-.57-.21-.63-.66-.1-.68-.19-2.06-.22-3.56,1.88,.41,3.34,.56,6.29,.74l9.4,.58c2.22,.14,4.47,.22,6.72,.33,.44,0,.52,.09,.5,.44,0,.88-.06,1.87-.17,2.75-.02,.35-.15,.46-.55,.41-2.19-.17-4.35-.33-6.51-.46l-10.51-.65Z"/><path class="e" d="M375.41,40.06l-.16,1.72c-.05,.5-.17,.54-.7,.52-.73-.04-1.58-.12-2.3-.22-.49-.08-.63-.15-.57-.49,.17-1.51,.42-3.57,.63-5.79l.67-7.14c.15-1.57,.33-3.14,.4-4.84,.03-.29,.16-.4,.36-.38,1.54,.23,3.25,.4,5.21,.58l6.93,.65c1.89,.18,4.11,.39,5.48,.46,.32,.03,.39,.18,.32,.62-.13,1.43-.31,3-.47,4.72l-.66,6.96c-.24,2.53-.29,3.97-.38,5.55-.04,.41-.19,.48-.6,.44-.88-.05-1.81-.14-2.68-.25-.35-.03-.37-.09-.33-.5l.15-1.54-11.3-1.07Zm12.54-12.07l-11.33-1.07-.95,10.05,11.33,1.07,.95-10.05Z"/><path class="e" d="M405.34,37.55c-2.87-.38-4.02-.17-4.31-.21-.35-.05-.56-.25-.59-.7-.06-.69-.05-2.07,.02-3.57,1.85,.54,3.29,.79,6.22,1.17l9.35,1.22c2.21,.29,4.45,.52,6.69,.79,.44,.03,.51,.13,.47,.47-.06,.88-.18,1.87-.36,2.73-.04,.35-.18,.45-.58,.37-2.17-.31-4.32-.62-6.46-.91l-10.45-1.37Z"/><path class="e" d="M432.29,41.94c-1.04,.71-2.08,1.36-3.15,1.92-.33,.18-.53,.3-.67,.27-.17-.03-.25-.28-.35-.74-.15-.86-.36-1.67-.65-2.22,3.75-1.55,7-4.19,9.01-7.23l-3.26-.57c-2.19-.38-2.89-.44-3.07-.47-.29-.05-.31-.08-.26-.37l.37-2.13c.05-.29,.08-.31,.37-.26,.17,.03,.85,.21,3.05,.59l.55,.1,.21-1.18c.26-1.53,.4-2.46,.38-3.56,1.09,.22,1.95,.43,2.96,.72,.28,.08,.43,.25,.41,.37-.05,.26-.16,.39-.28,.58-.23,.32-.32,.81-.57,2.28l-.22,1.3,1.21,.21c.26,.05,.41,.04,.57-.02,.12-.04,.25-.08,.34-.06,.17,.03,.43,.25,.94,.94,.45,.64,.63,.97,.6,1.17-.02,.14-.11,.28-.37,.41-.3,.21-.5,.33-.81,.72-.95,1.35-2.03,2.62-3.18,3.79,.9,1.49,2.07,2.77,3.65,4.11-.51,.39-1.04,1.01-1.48,1.67-.28,.4-.46,.57-.66,.54-.14-.02-.3-.17-.52-.45-.78-1-1.45-2.06-2.01-3.11l-1.41,8.1c-.37,2.13-.51,3.27-.53,3.41-.05,.29-.08,.31-.4,.26l-2.31-.4c-.32-.06-.34-.09-.29-.38,.03-.17,.28-1.26,.65-3.39l1.2-6.89Zm7.98,11.19c-2.74-.48-3.7-.58-3.88-.61-.29-.05-.31-.08-.26-.37l.4-2.28c.05-.29,.08-.31,.37-.26,.17,.03,1.11,.25,3.85,.73l2.42,.42,1.87-10.79-1.3-.23c-2.57-.45-3.47-.57-3.64-.6-.26-.05-.29-.05-.24-.34l.4-2.28c.05-.29,.08-.28,.34-.24,.17,.03,1.06,.21,3.63,.66l1.3,.23,.8-4.59c.36-2.05,.5-3.03,.53-4.39,1.09,.22,2.18,.47,3.17,.76,.25,.07,.44,.22,.41,.37-.04,.23-.09,.37-.25,.58-.23,.32-.42,1.03-.78,3.13l-.81,4.67,1.82,.32c2.57,.45,3.47,.57,3.64,.6,.29,.05,.32,.06,.27,.34l-.4,2.28c-.05,.29-.08,.28-.37,.23-.17-.03-1.06-.21-3.63-.66l-1.82-.32-1.87,10.79,2.62,.46c2.74,.48,3.67,.58,3.85,.61,.32,.06,.34,.09,.29,.38l-.4,2.28c-.05,.29-.08,.31-.4,.26-.17-.03-1.09-.25-3.83-.72l-8.1-1.41Z"/><path class="e" d="M464.65,53.64c.84,.64,1.45,1.29,1.91,1.78,.24,.26,.31,.37,.27,.54-.05,.2-.25,.3-.55,.3-.3,0-.62,.1-1.23,.26-1.68,.55-4.31,1-6.92,1.01-.3,0-.48,.01-.63-.02-.31-.07-.35-.29-.51-.93-.19-.73-.57-1.57-.9-2.1,2.53,.24,5.05,.1,6.76-.32,.44-.08,1.14-.28,1.63-.56l-.68-.16c-2.8-.64-3.81-.81-3.98-.84-.31-.07-.34-.11-.27-.39,.04-.17,.29-1.01,.74-2.98l1.35-5.94c.45-2,.59-2.87,.63-3.04,.06-.29,.1-.31,.41-.24,.17,.04,1.16,.32,3.95,.96l11.01,2.5c2.8,.64,3.81,.81,3.98,.84,.29,.06,.31,.1,.24,.39-.04,.17-.29,1.01-.74,3.01l-1.35,5.94c-.45,1.97-.59,2.87-.62,3.01-.07,.29-.1,.31-.39,.24-.17-.04-1.16-.32-3.95-.96l-10.16-2.31Zm12.28-1.08l-13.61-3.09-.34,1.48,13.61,3.09,.34-1.48Zm.43-1.91l.32-1.43-13.61-3.09-.32,1.43,13.61,3.09Zm.58-15.11c2.71,.62,3.67,.77,3.84,.81,.29,.06,.31,.1,.24,.39-.04,.17-.21,.64-.49,1.9l-.42,1.85c-.28,1.23-.33,1.73-.37,1.9-.06,.29-.1,.31-.38,.24-.17-.04-1.1-.31-3.81-.93l-8.13-1.85c-2.71-.62-3.64-.77-3.84-.81-.29-.06-.31-.1-.24-.39,.04-.2,.21-.64,.48-1.87l.42-1.85c.29-1.26,.34-1.75,.38-1.92,.07-.29,.1-.31,.39-.24,.2,.05,1.1,.31,3.81,.93l8.13,1.85Zm-13.44,8.71l13.61,3.09,.32-1.4-13.61-3.09-.32,1.4Zm14.05-6.23l-10.36-2.35-.41,1.8,10.36,2.35,.41-1.8Zm-5.11,17.86c.17-.08,.3-.11,.41-.09,.06,.01,.11,.05,.21,.14,1.85,1.74,4.29,3.19,7.28,4.29-.59,.35-1.25,.89-1.79,1.42-.47,.46-.63,.64-.91,.57-.14-.03-.3-.13-.57-.25-2.7-1.3-5.13-3.06-6.84-4.89-.09-.11-.14-.18-.12-.27,.02-.09,.12-.15,.35-.22l1.99-.72Z"/></g><g><g><g><g><path class="d" d="M329.56,168.67l-4.84,27.46c-.03,.16-.12,.31-.25,.43l-6.98,5.93c-.27,.23-.63,.24-.83,.02l-4.28-4.59c-.11-.11-.15-.28-.12-.45l5.31-30.14c.03-.17,.13-.33,.28-.45l5.9-4.59c.13-.1,.29-.16,.43-.16,.16,0,.3,.06,.39,.18l4.89,5.93c.09,.11,.13,.26,.1,.43Z"/><path class="d" d="M329.46,168.24l-4.89-5.93c-.09-.12-.24-.18-.39-.18-.14,0-.3,.05-.43,.16l-5.9,4.59c-.15,.11-.25,.28-.28,.45l-5.31,30.14c-.03,.17,.01,.33,.12,.45l4.28,4.59c.2,.22,.57,.21,.83-.02l6.98-5.93c.13-.11,.22-.27,.25-.43l4.84-27.46c.03-.16,0-.31-.1-.43Z"/></g><path class="d" d="M370.66,167.33l-5.32,30.14c-.03,.17-.13,.33-.28,.45l-5.9,4.59c-.28,.22-.64,.21-.83-.02l-4.89-5.93c-.1-.11-.13-.27-.1-.43l4.84-27.46c.03-.16,.12-.31,.25-.43l6.98-5.93c.14-.12,.3-.18,.46-.18,.14,0,.28,.05,.38,.16l4.28,4.59c.11,.11,.15,.28,.12,.45Z"/><path class="d" d="M356.88,204.45l-5.49,5.09c-.14,.13-.31,.2-.48,.2h-28.56c-.17,0-.32-.07-.41-.2l-3.7-5.09c-.17-.24-.1-.6,.17-.83l6.98-5.94c.13-.11,.3-.18,.46-.18h25.88c.16,0,.3,.06,.39,.18l4.89,5.94c.19,.23,.13,.59-.13,.83Z"/><path class="d" d="M337.22,125.26l-4.84,27.46c-.03,.16-.12,.31-.25,.43l-6.98,5.93c-.27,.23-.63,.24-.83,.02l-4.28-4.59c-.11-.11-.15-.28-.12-.45l5.32-30.14c.03-.17,.13-.33,.28-.45l5.9-4.6c.13-.1,.29-.16,.43-.16,.16,0,.3,.06,.4,.18l4.89,5.93c.09,.11,.13,.26,.1,.43Z"/><path class="d" d="M378.31,123.92l-5.31,30.14c-.03,.17-.13,.33-.28,.45l-5.9,4.59c-.28,.22-.64,.21-.83-.02l-4.89-5.93c-.1-.11-.13-.27-.1-.43l4.84-27.46c.03-.16,.12-.31,.25-.43l6.98-5.93c.14-.12,.3-.18,.46-.18,.14,0,.28,.05,.38,.16l4.28,4.6c.11,.11,.15,.28,.12,.45Z"/><path class="d" d="M371.84,117.4l-6.98,5.93s-.04,.02-.06,.02h-25.88s-.04,0-.05-.02l-4.89-5.93s-.02-.08,.02-.11l5.49-5.1s.04-.02,.06-.02h28.56s.04,0,.05,.02l3.7,5.1s.01,.07-.02,.1Z"/></g><g><path class="d" d="M294.7,168.75l-6.2,35.17c-.04,.2-.14,.39-.29,.52l-6.03,5.36c-.28,.25-.65,.24-.83-.02l-4.71-6.92c-.09-.13-.12-.31-.09-.5l5.65-32.04c.03-.19,.12-.37,.26-.5l7.15-6.92c.14-.14,.31-.21,.46-.21,.14,0,.28,.06,.37,.18l4.14,5.36c.1,.13,.14,.32,.11,.52Z"/><path class="d" d="M303.63,118.1l-6.2,35.17c-.04,.2-.14,.39-.29,.52l-6.03,5.36c-.28,.25-.65,.24-.83-.02l-4.71-6.92c-.09-.13-.12-.31-.09-.5l5.65-32.04c.03-.19,.12-.37,.26-.5l7.15-6.92c.14-.14,.31-.21,.46-.21,.14,0,.28,.06,.37,.18l4.14,5.36c.1,.13,.14,.32,.11,.52Z"/></g></g><g><path class="d" d="M32.32,180.16c-.53,.87-1.89,3.12-4.08,6.74,0,.21,.11,.32,.32,.32h1.19c.4,0,.58,.19,.56,.56l-.56,15.46c0,.37-.2,.55-.59,.55l-3.73,.04c-.19,0-.32-.05-.42-.16-.09-.11-.14-.25-.14-.44l.44-11.78c0-.08-.04-.13-.12-.16-.11-.03-.19,0-.24,.08-.24,.29-.69,.86-1.35,1.71-.24,.32-.5,.34-.79,.08l-2.5-2.18c-.29-.24-.32-.52-.08-.83,2.35-3.12,5.08-7.19,8.17-12.21,.21-.32,.49-.38,.83-.2l2.89,1.63c.32,.19,.38,.45,.2,.79Zm23.91,4.04l-.12,2.85c-.03,.4-.22,.59-.59,.59h-5.75c-.37,0-.57,.2-.59,.59l-.52,10.71c-.03,.4,.16,.59,.56,.59h5.11c.4,0,.58,.19,.56,.56l-.12,2.89c-.03,.4-.22,.59-.59,.59h-16.14c-.37,0-.54-.2-.52-.59l.12-2.89c.03-.37,.22-.56,.59-.56h4.6c.37,0,.57-.2,.59-.59l.52-10.71c.03-.37-.16-.56-.56-.56h-5.91c-.4,0-.58-.18-.56-.56l.12-2.89c.03-.37,.22-.56,.59-.56l5.95-.04c.37,0,.57-.18,.6-.55l.36-7.77c.03-.4,.22-.59,.59-.59h4.08c.4,0,.58,.2,.55,.59l-.36,7.73c0,.19,.05,.33,.14,.44,.09,.11,.23,.16,.42,.16l5.71-.04c.18,0,.32,.05,.42,.16,.09,.11,.14,.25,.14,.44Z"/><path class="d" d="M88.19,195.3l-.12,2.22c-.03,.4-.22,.59-.59,.59h-2.7c-.37,0-.57,.19-.59,.56l-.24,3.89c-.03,.4-.24,.59-.63,.59h-8.09c-.45,0-.73,.5-.83,1.51,0,.66-.01,1.32-.04,1.98-.03,.4-.24,.59-.63,.59l-3.65,.04c-.16,0-.29-.06-.4-.18-.11-.12-.15-.24-.12-.38l.32-3.05c.03-.34-.15-.52-.52-.52h-7.93c-.37,0-.54-.2-.52-.59l.16-2.22c.03-.4,.24-.59,.63-.59h7.97c.37,0,.57-.18,.59-.56,.03-.16,.05-.32,.08-.48,.03-.4-.15-.59-.52-.59h-10.94c-.4,0-.58-.2-.56-.59l.16-2.22c.03-.4,.22-.59,.6-.59h10.98c.37,0,.58-.33,.63-.99,.03-.4-.16-.59-.55-.59h-8.33c-.4,0-.58-.2-.56-.59l.12-2.22c.03-.4,.24-.59,.63-.59h8.37c.37,0,.57-.2,.59-.59l.08-1.07c.03-.4-.16-.59-.56-.59h-7.37c-.4,0-.58-.18-.55-.56l.48-7.06c.03-.37,.22-.56,.59-.56h7.26c.37,0,.57-.2,.59-.59l.04-.75c.03-.4-.16-.59-.56-.59h-9.95c-.37,0-.54-.18-.52-.55l.12-2.26c.03-.37,.22-.55,.59-.55h9.87c.37,0,.57-.2,.59-.59l.08-2.06c.03-.37,.22-.56,.59-.56l3.49,.04c.4,0,.58,.19,.56,.56-.03,.37-.05,1.04-.08,2.02-.03,.4,.16,.59,.55,.59h9.04c.37,0,.54,.19,.52,.55l-.12,2.26c-.03,.37-.24,.55-.63,.55h-8.96c-.37,0-.57,.2-.59,.59l-.04,.71c-.03,.4,.16,.59,.56,.59h7.22c.4,0,.58,.2,.56,.59l-.4,7.06c-.03,.37-.22,.56-.59,.56h-7.22c-.37,0-.57,.19-.59,.55l-.08,1.11c-.03,.4,.16,.59,.56,.59h8.05c.4,0,.58,.2,.56,.59l-.24,3.85c-.03,.37,.16,.56,.56,.56h2.66c.37,0,.54,.2,.52,.59Zm-16.89-12.33c.03-.42-.16-.63-.56-.63h-3.05c-.37,0-.57,.2-.59,.59l-.04,.79c-.03,.37,.15,.56,.52,.56l3.09,.04c.37,0,.57-.2,.59-.59l.04-.75Zm8.52,15.7c.03-.37-.15-.56-.52-.56h-3.73c-.37,0-.57,.19-.59,.56,0,.08-.01,.24-.04,.48-.03,.4,.14,.6,.52,.6h3.73c.37,0,.57-.18,.59-.56l.04-.52Zm.32-5c.03-.37-.16-.56-.56-.56h-3.69c-.4,0-.59,.19-.59,.56-.03,.05-.04,.2-.04,.44-.03,.4,.16,.59,.56,.59h3.65c.4,0,.61-.18,.63-.56l.04-.48Zm-.2-10.75c.03-.37-.16-.56-.56-.56l-2.89-.04c-.4,0-.61,.2-.63,.59l-.04,.75c-.03,.42,.16,.63,.56,.63h2.89c.4,0,.61-.2,.63-.59l.04-.79Z"/><path class="d" d="M120.63,195.86c.24,.26,.22,.53-.04,.79l-3.01,2.93c-.26,.29-.53,.28-.79-.04-4.34-5.08-7.73-8.93-10.19-11.58-.26-.29-.52-.3-.75-.04-1,.98-3.91,3.97-8.72,8.96-.24,.26-.49,.25-.75-.04l-3.09-3.49c-.24-.29-.23-.57,.04-.83,2.06-2.17,6.19-6.17,12.37-12.01,.26-.26,.54-.25,.83,.04,2.93,3.04,7.64,8.14,14.12,15.3Z"/><path class="d" d="M152.12,190.9c-.03,3.57-1.35,7.1-3.97,10.59-.24,.29-.52,.33-.83,.12l-3.01-2.1c-.29-.21-.33-.48-.12-.79,2.35-3.25,3.5-6.08,3.45-8.49-.05-1.69-.77-3.01-2.14-3.97-.32-.24-.55-.17-.71,.2-1.19,3.04-2.55,5.67-4.08,7.89-2.12,3.04-4.14,4.56-6.07,4.56-1.67,0-2.99-.62-3.98-1.86-.99-1.24-1.49-2.85-1.49-4.84,.05-3.28,1.22-5.93,3.49-7.97,2.19-1.96,4.92-2.95,8.17-2.97,3.59-.03,6.44,.94,8.52,2.89,1.88,1.77,2.8,4.02,2.78,6.74Zm-11.38-5.47c.05-.11,.03-.21-.06-.32-.09-.11-.2-.16-.34-.16-1.85,.19-3.45,.95-4.8,2.3-1.45,1.45-2.15,3.15-2.1,5.08,.03,1.3,.37,1.94,1.03,1.94,.37,0,.73-.18,1.07-.56,.74-.71,1.6-1.84,2.58-3.37,1.08-1.67,1.96-3.3,2.62-4.92Z"/><path class="d" d="M169.26,199.86c-.95,2.43-1.92,4.41-2.89,5.95-.21,.32-.48,.37-.79,.16l-2.74-1.74c-.32-.21-.37-.49-.16-.83,1.06-1.69,1.92-3.4,2.58-5.11,.13-.34,.38-.45,.75-.32l2.93,1.15c.34,.13,.45,.38,.32,.75Zm17.25-25.93l-.63,16.65c-.03,.37-.24,.56-.63,.56h-20.82c-.4,0-.58-.18-.56-.56l.71-16.61c.03-.37,.22-.56,.59-.56l20.78-.08c.4,0,.58,.2,.56,.59Zm-13.68,10.59c.03-.4-.16-.59-.55-.59h-2.97c-.37,0-.57,.2-.59,.59l-.16,2.62c-.03,.37,.16,.56,.56,.56h2.97c.37,0,.57-.18,.59-.56l.16-2.62Zm.4-7.1c0-.18-.05-.33-.14-.44-.09-.11-.23-.16-.42-.16l-3.01,.04c-.37,0-.57,.19-.59,.56l-.12,2.46c-.03,.4,.16,.59,.56,.59h2.97c.4,0,.61-.2,.63-.59l.12-2.46Zm7.89,25.34l-.52,3.21c-.08,.42-.3,.59-.67,.52-4.34-.79-6.91-3.49-7.73-8.09-.08-.4,.08-.63,.48-.71l3.17-.63c.37-.08,.58,.08,.63,.48,.37,2.46,1.74,3.98,4.12,4.56,.4,.11,.57,.33,.52,.67Zm.44-18.24c.03-.4-.16-.59-.55-.59h-2.93c-.4,0-.61,.2-.63,.59l-.12,2.62c-.03,.37,.14,.56,.52,.56h2.97c.37,0,.57-.18,.59-.56l.16-2.62Zm.32-7.14c.03-.37-.16-.56-.56-.56h-2.89c-.37,0-.57,.19-.59,.56l-.12,2.5c-.03,.4,.15,.59,.52,.59h2.93c.37,0,.57-.2,.6-.59l.12-2.5Zm2.18,18.64l-.16,3.25c-.03,.37-.23,.56-.6,.56l-2.38-.08c-.4,0-.58-.2-.56-.6l.12-3.25c.03-.4,.24-.58,.63-.56l2.34,.08c.42,.03,.62,.22,.59,.59Zm6.46,.32l-.4,3.33c-.05,.4-.26,.57-.63,.52l-2.42-.32c-.4-.05-.57-.26-.52-.63l.4-3.33c.05-.4,.26-.57,.63-.52l2.42,.32c.4,.05,.57,.26,.52,.63Z"/><path class="d" d="M220.85,187.53c.08,3.01,.08,6.4,0,10.15-.03,.37-.22,.56-.59,.56h-4.36c-.37,0-.56-.2-.56-.59,.08-2.59,.11-4.77,.08-6.54,0-.13-.05-.22-.16-.28-.11-.05-.21-.04-.32,.04l-10.9,7.85c-.32,.24-.67,.36-1.07,.36h-3.81c-.37,0-.57-.2-.59-.6-.11-3.22-.09-7.34,.04-12.33,0-.37,.18-.56,.55-.56l4.36-.04c.4,0,.58,.2,.56,.59-.11,3.41-.13,6.29-.08,8.64,0,.13,.05,.23,.16,.28,.11,.03,.21,.01,.32-.04l10.59-7.69c.32-.24,.66-.36,1.03-.36h4.16c.4,0,.59,.19,.59,.56Z"/><path class="d" d="M252.1,178.37l-.2,2.74c-.03,.4-.22,.59-.6,.59h-8.33c-.4,0-.62,.19-.67,.56l-.67,3.77c-.08,.37,.05,.66,.4,.87,.79,.48,1.55,1.06,2.26,1.74,.26,.26,.54,.29,.83,.08,.87-.71,1.85-1.48,2.93-2.3,.32-.24,.59-.2,.83,.12l2.26,2.82c.24,.29,.2,.57-.12,.83-1.08,.85-2.12,1.67-3.09,2.46-.29,.24-.34,.53-.16,.87,.5,.93,.86,1.64,1.07,2.14,.16,.34,.07,.62-.28,.83l-2.3,1.27c-.32,.19-.62,.01-.91-.52-.16-.37-.32-.73-.5-1.09-.17-.36-.4-.39-.69-.1-1.74,1.8-2.62,3.15-2.62,4.04,0,.79,.42,1.24,1.27,1.35,.87,.11,2.55,.07,5.04-.12,.42-.03,.63,.15,.63,.52v2.93c.03,.37-.15,.57-.52,.59-2.43,.16-4.45,.17-6.07,.04-1.72-.11-3.05-.68-4-1.72-.95-1.04-1.36-2.48-1.23-4.3,.18-2.19,1.72-4.65,4.6-7.38,.26-.26,.26-.52,0-.75-1.3-1.11-2.85-1.9-4.68-2.38-.37-.11-.53-.34-.48-.71l1.07-5.87c.08-.4-.08-.59-.48-.59h-2.81c-.37,0-.54-.18-.52-.55l.2-2.78c.03-.37,.22-.56,.59-.56h3.25c.37,0,.59-.18,.67-.55l.75-4.16c.05-.37,.28-.56,.67-.56h3.96c.37,0,.53,.19,.48,.56l-.75,4.12c-.08,.4,.08,.59,.48,.59l7.85-.04c.4,0,.58,.2,.56,.59Z"/></g><g><path class="d" d="M487.84,184.23v2.85c-.03,.4-.23,.59-.59,.59l-3.17,.12c-.4,.03-.73,.19-.99,.48-3.52,4.2-5.31,7.41-5.39,9.64-.05,1.61,.99,2.72,3.13,3.33,.37,.11,.52,.33,.44,.67l-1.15,3.93c-.11,.37-.33,.5-.67,.4-4.6-1.35-6.83-4.15-6.7-8.41,.08-2.46,1.52-5.56,4.32-9.32,.08-.08,.09-.17,.04-.28-.05-.11-.15-.16-.28-.16l-12.45,.52c-.16,0-.29-.06-.4-.18-.11-.12-.16-.24-.16-.38l.04-2.89c0-.37,.18-.57,.56-.59l22.88-.87c.16,0,.3,.05,.42,.16,.12,.11,.16,.24,.14,.4Zm1.15-6.46l-.32,3.73c-.03,.37-.22,.56-.59,.56h-1.86c-.16,0-.29-.05-.4-.16-.11-.11-.15-.24-.12-.4l.32-3.73c.03-.37,.22-.56,.59-.56h1.86c.37,0,.54,.19,.52,.56Zm4.36,0l-.32,3.73c-.03,.37-.24,.56-.63,.56h-1.82c-.16,0-.29-.05-.4-.16-.11-.11-.16-.24-.16-.4l.32-3.73c.05-.37,.26-.56,.63-.56h1.86c.37,0,.54,.19,.51,.56Z"/><path class="d" d="M503.71,184.15l-.12,2.3c0,.37-.2,.56-.59,.56h-9.75c-.37,0-.54-.18-.52-.56l.08-2.3c.03-.4,.24-.59,.63-.59h9.75c.37,0,.54,.2,.52,.59Zm-1.27,17.45l-.32,6.98c0,.37-.2,.55-.59,.55h-8.09c-.37,0-.56-.2-.56-.59l.32-6.94c.03-.4,.22-.59,.59-.59h8.09c.4,0,.58,.2,.55,.59Zm-.75-5.87l-.12,1.67c-.03,.4-.22,.59-.59,.59h-6.15c-.37,0-.56-.2-.56-.59l.08-1.7c.03-.4,.22-.59,.6-.59l6.18,.04c.37,.03,.56,.22,.56,.59Zm.16-5.51l-.08,1.7c-.03,.4-.24,.59-.63,.59h-5.99c-.37,0-.56-.2-.56-.59l.12-1.74c0-.37,.2-.56,.59-.56h5.99c.4,0,.58,.2,.55,.59Zm-3.01,14.19c.03-.37-.16-.56-.56-.56h-1.19c-.37,0-.57,.19-.59,.56l-.08,1.39c-.03,.4,.14,.59,.52,.59h1.19c.4,0,.61-.2,.63-.59l.08-1.39Zm2.7-28.15l-.87,5.04c-.05,.37-.28,.53-.67,.48l-2.85-.44c-.4-.05-.56-.28-.48-.67l.83-5c.08-.4,.3-.56,.67-.48l2.89,.44c.37,.05,.53,.26,.48,.63Zm27.08,14.99l-.12,2.3c0,.4-.2,.6-.59,.6l-17.96-.04c-.37,0-.55-.18-.55-.56l.12-2.3c0-.4,.2-.59,.59-.59h2.5c.4,0,.62-.18,.67-.56l.52-2.85c.05-.37-.11-.55-.48-.55h-1.23c-.4,0-.58-.18-.56-.56l.12-2.3c.03-.4,.22-.59,.59-.59h1.66c.4,0,.62-.18,.67-.56l.44-2.5c.05-.37-.11-.56-.48-.56h-3.21c-.37,0-.54-.2-.52-.59l.12-2.3c.03-.37,.22-.56,.59-.56h15.15c.4,0,.58,.19,.56,.56l-.12,2.3c-.03,.4-.24,.59-.63,.59h-6.03c-.37,0-.59,.19-.67,.56l-.52,2.46c-.05,.4,.11,.59,.48,.59l5.59-.04c.4,0,.58,.2,.55,.59l-.4,6.3c-.03,.4,.16,.59,.56,.59h2.02c.37,0,.56,.19,.56,.56Zm-4.04,8.13l-.36,9.6c-.03,.4-.24,.59-.63,.59h-11.42c-.37,0-.56-.2-.56-.59l.52-9.6c0-.4,.2-.59,.59-.59h11.3c.4,0,.58,.2,.55,.59Zm-4.72,3.45c0-.4-.19-.59-.56-.59h-2.14c-.4,0-.61,.2-.63,.59l-.12,2.7c-.03,.4,.15,.59,.52,.59h2.22c.37,0,.57-.2,.59-.59l.12-2.7Zm1.59-15.58c.03-.4-.15-.59-.52-.59l-1.86,.04c-.4,0-.62,.18-.67,.55l-.59,2.85c-.05,.37,.11,.56,.48,.56h2.38c.37,0,.57-.18,.59-.56l.2-2.85Z"/><path class="d" d="M543.92,208.5c-1.72,.03-3.19-.38-4.4-1.23-1.43-.98-2.14-2.39-2.14-4.24,0-1.61,.58-2.91,1.75-3.91,1.16-.99,2.64-1.5,4.44-1.53,1.27,0,2.48,.33,3.65,.99,.11,.05,.21,.05,.32,0,.11-.08,.15-.17,.12-.28-.19-1.03-.82-1.89-1.9-2.58-1.08-.69-2.37-1.03-3.85-1.03-.5,.03-.86,.19-1.07,.48l-.2,.24c-.26,.29-.53,.34-.79,.16l-2.89-2.1c-.32-.24-.38-.5-.2-.79l6.54-9.91c.08-.11,.09-.21,.04-.32-.05-.11-.15-.16-.28-.16l-5.39,.12c-.16,0-.29-.05-.4-.16-.11-.11-.16-.24-.16-.4l.16-2.93c.03-.37,.24-.55,.63-.55l11.93-.2c.16,0,.29,.05,.4,.16,.11,.11,.16,.24,.16,.4l-.12,2.1c-.03,.37-.15,.71-.36,1.03l-5.59,8.37c-.21,.32-.13,.5,.24,.56,2.41,.34,4.34,1.3,5.81,2.87,1.47,1.57,2.2,3.52,2.2,5.85,0,2.62-.79,4.76-2.36,6.42-1.57,1.67-3.67,2.52-6.29,2.58Zm2.74-5.31c.18-.37,.12-.67-.2-.91-.85-.66-1.77-.96-2.78-.91-1.24,.08-1.86,.69-1.86,1.82,0,.45,.21,.82,.63,1.11,.42,.29,.89,.44,1.39,.44,1.27,.03,2.21-.49,2.82-1.55Z"/><path class="d" d="M573.24,202.79l-.08,4.44c0,.37-.18,.55-.55,.55h-4.52c-.4,0-.57-.19-.52-.55l.44-4.4c.05-.4,.28-.59,.67-.59h4c.37,0,.55,.19,.55,.56Zm1.27-26.29l-1.35,20.98c-.03,.37-.22,.56-.59,.56h-3.65c-.37,0-.54-.18-.52-.56l.95-20.98c.03-.4,.22-.59,.59-.59h4.04c.37,0,.54,.2,.52,.59Z"/></g><path class="d" d="M410.53,190.89l-1.53,4.22c-.24,.68-.68,.9-1.31,.65l-3.49-1.38c-.68-.24-1.02-.02-1.02,.65l-.36,12.87c-.05,.68-.41,1.02-1.09,1.02h-6.33c-.73,0-1.09-.36-1.09-1.09l.36-12.8c0-.15-.07-.27-.22-.36-.15-.05-.29,0-.44,.15-.97,1.16-2.01,2.35-3.13,3.56-.49,.49-.97,.49-1.45,0l-3.64-3.78c-.49-.48-.49-.99,0-1.53,3.73-4.02,6.71-7.61,8.95-10.76,.19-.29,.32-.63,.36-1.02,0-.39-.19-.58-.58-.58h-5.96c-.68,0-1.02-.34-1.02-1.02l.22-4.29c.05-.73,.44-1.09,1.16-1.09h5.31c.68,0,1.04-.34,1.09-1.02l.15-5.53c0-.24-.1-.44-.29-.58-.19-.15-.41-.17-.65-.07-1.07,.44-2.11,.87-3.13,1.31-.63,.24-1.07,.03-1.31-.65l-2.11-5.24c-.24-.68-.05-1.14,.58-1.38,3.64-1.5,9.38-4.07,17.24-7.71,.63-.34,1.12-.19,1.46,.44l2.55,4.73c.34,.58,.17,1.04-.51,1.38l-4.29,2.25c-.63,.34-.95,.85-.95,1.53l-.29,9.53c0,.68,.34,1.02,1.02,1.02h4.22c.73,0,1.07,.36,1.02,1.09l-.22,4.29c-.05,.68-.41,1.02-1.09,1.02h-4.07c-.73,0-1.09,.36-1.09,1.09l-.15,4.22c0,.73,.34,1.21,1.02,1.45,.15,.05,1.96,.73,5.46,2.04,.68,.29,.9,.75,.65,1.38Zm17.67-22.18c-1.94,3.78-3.98,7.23-6.11,10.33-.39,.53-.87,.61-1.46,.22l-5.09-3.64c-.58-.39-.68-.87-.29-1.45,2.08-2.91,4.07-6.01,5.96-9.31,.39-.63,.87-.77,1.45-.44l5.09,2.84c.63,.34,.77,.82,.44,1.45Zm20.29,20c-4.27,8.15-9.65,15.73-16.15,22.76-.49,.53-1,.56-1.53,.07l-4.66-4.51c-.49-.49-.49-.99,0-1.53,5.82-6.21,10.86-13.07,15.13-20.58,.39-.63,.9-.8,1.53-.51l5.24,2.84c.63,.34,.78,.83,.44,1.45Zm-8.51-34.98c-.1,4.32-.22,8.05-.36,11.2-.34,7.03-.78,12.7-1.31,17.02-.1,.73-.49,1.09-1.16,1.09h-6.47c-.68,0-.97-.34-.87-1.02,.63-4.12,1.12-9.31,1.46-15.56,.1-2.38,.27-6.59,.51-12.65,0-.73,.34-1.09,1.02-1.09h6.11c.73,0,1.09,.34,1.09,1.02Zm16,19.71c.48,.53,.46,1.04-.07,1.53l-4.44,4.15c-.53,.44-1.04,.39-1.53-.15-1.89-2.13-4.39-5.28-7.49-9.45-.44-.58-.36-1.07,.22-1.45l4.65-3.42c.53-.39,1.02-.31,1.46,.22,1.94,2.52,4.34,5.38,7.2,8.58Z"/></g></g></g></g></svg>