<svg id="レイヤー_1" data-name="レイヤー 1" xmlns="http://www.w3.org/2000/svg" width="350" viewBox="0 0 350 80"><defs><style>.cls-1{fill:#fff;}.cls-2{fill:#738da0;}.cls-3{fill:none;stroke:#0098d8;}.cls-23,.cls-3{stroke-miterlimit:10;}.cls-4{fill:#0098d8;}.cls-5{fill:#58b331;}.cls-6{fill:#d6a600;}.cls-7{fill:#c60f28;}.cls-8{fill:#00963b;}.cls-9{fill:#417935;}.cls-10{fill:#f9bc00;}.cls-11{fill:#e73819;}.cls-12{fill:#f4a100;}.cls-13{fill:#0076ba;}.cls-14{fill:#960b31;}.cls-15{fill:#00a6d8;}.cls-16{fill:#ec6a02;}.cls-17{fill:#e4001e;}.cls-18{fill:#dc007a;}.cls-19{fill:#003067;}.cls-20{fill:#d29100;}.cls-21{fill:#004c87;}.cls-22{fill:#e30012;}.cls-23{stroke:#000;stroke-width:0.3px;}</style></defs><rect class="cls-1" x="0.5" y="0.5" width="349" height="79"/><path class="cls-2" d="M349,1V79H1V1H349m1-1H0V80H350V0Z"/><path d="M59.038,20.96a2.785,2.785,0,0,0-.011-.319,7.986,7.986,0,0,1-.946,2.442,5.148,5.148,0,0,0-.892-.968c.76-1.155,1.035-2.42,1.035-4.753,0-.44-.011-.649-.033-.979l-.2.132a3.724,3.724,0,0,0-.792-1,8.361,8.361,0,0,0,1.826-1.3A5.64,5.64,0,0,0,59.94,13.2h1.221A6.607,6.607,0,0,0,63.57,14.92,4.415,4.415,0,0,0,63,15.987a10.22,10.22,0,0,1-.9-.55v.506a5.281,5.281,0,0,0-.627-.033H59.93a4.528,4.528,0,0,0-.639.033v-.385c-.352.3-.7.561-.946.726.341.022.506.022.9.022h2.8c.395,0,.56-.011.869-.033-.022.242-.033.5-.033.825v1.816a7.925,7.925,0,0,0,.033.825c-.309-.011-.463-.022-.76-.022H59.192c-.022.209-.044.308-.066.429.187.011.319.011.583.011h2.563c.3,0,.506-.011.759-.033a6.12,6.12,0,0,0-.032.8v1.309a6.68,6.68,0,0,0,.044.88H61.888v-.33H60.127v.484H58.983a6.344,6.344,0,0,0,.055-.88Zm.275-2.541a3.489,3.489,0,0,1-.033.44h2.464v-.44Zm2.431-.8v-.451h-2.4v.451Zm-.308-2.541h.155a6.816,6.816,0,0,1-.969-.9,7.028,7.028,0,0,1-.8.9h1.617Zm-1.3,6.832h1.738v-.88H60.139Zm4.807-7.932a7.418,7.418,0,0,0-.055,1.144v4.4a7.459,7.459,0,0,0,.044,1.166H63.691a7.613,7.613,0,0,0,.056-1.177V15.14a9.875,9.875,0,0,0-.056-1.166Zm2.244-.748a7.909,7.909,0,0,0-.066,1.331v7.294c0,1.034-.3,1.265-1.639,1.265-.242,0-.275,0-1.023-.033a4.02,4.02,0,0,0-.286-1.166,9.528,9.528,0,0,0,1.287.11c.407,0,.506-.066.506-.341v-7.1a10.28,10.28,0,0,0-.066-1.364Z"/><path d="M70.031,17.549A8.171,8.171,0,0,0,68.9,17.6V16.559a10,10,0,0,0,1.133.044h1.332c-.165-.352-.286-.605-.407-.814H69.768c-.54,0-.958.022-1.31.055v-1.1a9.338,9.338,0,0,0,1.255.066h.351a4.617,4.617,0,0,0-.748-1.023l1.1-.418a7.777,7.777,0,0,1,.847,1.441h.627v-.781a6.118,6.118,0,0,0-.055-.858h1.2a7.408,7.408,0,0,0-.033.814v.825h.781v-.825a7.834,7.834,0,0,0-.033-.814h1.2a5.775,5.775,0,0,0-.055.858v.781h.694a5.869,5.869,0,0,0,.792-1.474l1.133.418c-.264.44-.441.715-.682,1.056h.308a8.92,8.92,0,0,0,1.243-.066v1.1c-.341-.033-.771-.055-1.31-.055h-1.1c-.209.44-.253.539-.408.814h1.277a10.116,10.116,0,0,0,1.133-.044V17.6a8.083,8.083,0,0,0-1.133-.055H73.971v.528h2.3a8.14,8.14,0,0,0,1.133-.054v.99a8.057,8.057,0,0,0-1.133-.055h-2.3v.55H77.04a9.716,9.716,0,0,0,1.331-.066v1.1a11.883,11.883,0,0,0-1.32-.066H74.84a5.71,5.71,0,0,0,1.5.88,9.428,9.428,0,0,0,2.288.627A4.327,4.327,0,0,0,78,23.105a8.582,8.582,0,0,1-4.082-2.178,7.53,7.53,0,0,1,.033.781v.539a6.355,6.355,0,0,0,.077,1.111h-1.3a8.21,8.21,0,0,0,.066-1.122v-.528a7.406,7.406,0,0,1,.033-.748,6.118,6.118,0,0,1-1.584,1.21A10.651,10.651,0,0,1,69,23.094a4.5,4.5,0,0,0-.671-1.056,7.907,7.907,0,0,0,3.6-1.562H69.878a12.079,12.079,0,0,0-1.331.066v-1.1a10.183,10.183,0,0,0,1.319.066h2.916v-.55H70.6a7.922,7.922,0,0,0-1.122.055v-.99a7.993,7.993,0,0,0,1.122.054h2.179v-.528Zm4.314-.946a6.264,6.264,0,0,0,.362-.814H72.2a7.021,7.021,0,0,1,.33.814Z"/><path d="M83.8,13.512a2.415,2.415,0,0,0-.088.341c-.023.143-.033.2-.067.374-.032.231-.032.231-.186,1.056-.044.242-.044.264-.077.407.319-.022.472-.033.681-.033a2.132,2.132,0,0,1,1.629.583,2.669,2.669,0,0,1,.517,1.948,6.975,6.975,0,0,1-.847,4,1.393,1.393,0,0,1-1.221.5,5.347,5.347,0,0,1-1.7-.319c.012-.22.023-.374.023-.484a4.142,4.142,0,0,0-.111-.935,4.56,4.56,0,0,0,1.607.429c.319,0,.5-.209.66-.748a9.777,9.777,0,0,0,.286-2.509c0-1.012-.253-1.309-1.122-1.309-.221,0-.386.011-.639.033a22.972,22.972,0,0,1-.671,2.388,23.323,23.323,0,0,1-1.32,3.091l-.165.33c-.033.066-.033.077-.088.187l-1.276-.7a12.018,12.018,0,0,0,1.144-2.068,18.726,18.726,0,0,0,1.068-3.114,19.693,19.693,0,0,0-1.97.352l-.132-1.3c.407,0,1.738-.132,2.344-.22a17.042,17.042,0,0,0,.285-2.222v-.209ZM87.44,14.92a10.689,10.689,0,0,1,2.267,4.291l-1.255.638a9.9,9.9,0,0,0-.88-2.5,7.117,7.117,0,0,0-1.264-1.881Z"/><path d="M93.2,15.569a23.492,23.492,0,0,0-.5,2.706c-.022.155-.022.155-.055.32l.022.022a5.217,5.217,0,0,1,3.334-1.046c1.87,0,3.1.924,3.1,2.333a2.678,2.678,0,0,1-1.133,2.123,4.753,4.753,0,0,1-2.905.748,10.1,10.1,0,0,1-2.8-.385,4.913,4.913,0,0,0-.166-1.419,8.885,8.885,0,0,0,2.959.55c1.552,0,2.63-.649,2.63-1.584,0-.737-.693-1.177-1.859-1.177a5,5,0,0,0-2.739.8,2.346,2.346,0,0,0-.5.473l-1.387-.044c.033-.2.033-.242.088-.66.088-.683.264-1.9.462-3.2a4.489,4.489,0,0,0,.066-.638Zm.144-2.156a16.488,16.488,0,0,0,4.1,1.221L97,15.9a19.92,19.92,0,0,1-4.291-1.375Z"/><path d="M108.727,19.618c-.166.143-.166.143-.661.638a12.886,12.886,0,0,1-1.4,1.188,11.543,11.543,0,0,0,3.894.649,4.323,4.323,0,0,0-.6,1.243,15.491,15.491,0,0,1-2.74-.561,9.155,9.155,0,0,1-1.7-.649,12.757,12.757,0,0,1-4.687,1.155,3.821,3.821,0,0,0-.594-1.155,11.1,11.1,0,0,0,4.115-.682,6.642,6.642,0,0,1-1.145-.957,7.682,7.682,0,0,1-1.683.825,4.039,4.039,0,0,0-.67-.968,7.314,7.314,0,0,0,2.332-1.188,4.455,4.455,0,0,0,1.144-1.211l1.089.451a1.667,1.667,0,0,1-.188.221,1.815,1.815,0,0,0-.142.165c-.023.033-.055.077-.1.132h2.08a4.3,4.3,0,0,0,.957-.067Zm-5.414-3.8a6.529,6.529,0,0,1-.879,1.408,7.22,7.22,0,0,1-1.035,1.079c-.11-.089-.187-.155-.231-.2-.286-.231-.286-.231-.429-.341l-.187-.132a1.152,1.152,0,0,1-.121-.088,6.477,6.477,0,0,0,.958-.847,4.3,4.3,0,0,0,.857-1.375Zm-1.54-.682a9.1,9.1,0,0,0-1.221.055V14.018a9.391,9.391,0,0,0,1.3.066h2.9v-.22a3.433,3.433,0,0,0-.055-.715h1.375a3.381,3.381,0,0,0-.056.7v.231h2.916a10.54,10.54,0,0,0,1.332-.066V15.2c-.364-.033-.771-.055-1.3-.055H107.23v2.233c0,.616-.253.825-1.023.825-.353,0-.649-.01-.869-.022A2.305,2.305,0,0,0,105,17.1a4.908,4.908,0,0,0,.836.077c.209,0,.253-.044.253-.209V15.14h-1.024a4.419,4.419,0,0,1-.439,2.1,3.617,3.617,0,0,1-1.441,1.4,3.719,3.719,0,0,0-.98-.738,2.614,2.614,0,0,0,1.42-1.232,3.491,3.491,0,0,0,.3-1.529Zm2.278,4.731a6.3,6.3,0,0,0,1.429,1.034,6.866,6.866,0,0,0,1.387-1.034Zm4.268-4.434a18.176,18.176,0,0,1,1.981,2.112l-1.034.782a10.162,10.162,0,0,0-1.849-2.289Z"/><path d="M111.248,19.783a25.851,25.851,0,0,0,1.991-1.76c.023-.672.023-.683.044-1.585a11.787,11.787,0,0,0-1.672.165l-.077-1.243c.176.011.264.022.363.022.2,0,.8-.033,1.419-.077.022-.286.034-.429.034-.825,0-.209.01-.363.01-.462v-.11a2.627,2.627,0,0,0-.044-.484l1.419.011a4.833,4.833,0,0,0-.109,1.056c-.012.209-.012.209-.033.517v.2a.5.5,0,0,0,.153-.055l.419.451a4.7,4.7,0,0,0-.628.715c-.021.473-.032.715-.044.748l.023-.011a1.975,1.975,0,0,1,.263-.209,5.093,5.093,0,0,1,3.169-1.21,3.073,3.073,0,0,1,2.146.9,3.226,3.226,0,0,1,.846,2.267,3.39,3.39,0,0,1-1.749,3.113,4.388,4.388,0,0,1-1.959.418,5.629,5.629,0,0,1-1.638-.242,4.125,4.125,0,0,0-.209-1.43,5.035,5.035,0,0,0,1.958.407,2.163,2.163,0,0,0,2.244-2.277,1.765,1.765,0,0,0-1.881-1.915,5.193,5.193,0,0,0-3.2,1.662l-.012,1.144c0,1.573.033,2.805.088,3.289h-1.43a10.891,10.891,0,0,0,.067-1.76v-.979a5.841,5.841,0,0,1,.021-.649h-.021a3.565,3.565,0,0,1-.485.517,6.665,6.665,0,0,0-.847.946Z"/><path d="M124.683,15.569a23.459,23.459,0,0,0-.5,2.706c-.021.155-.021.155-.054.32l.021.022a5.219,5.219,0,0,1,3.334-1.046c1.87,0,3.1.924,3.1,2.333a2.679,2.679,0,0,1-1.134,2.123,4.752,4.752,0,0,1-2.9.748,10.11,10.11,0,0,1-2.8-.385,4.916,4.916,0,0,0-.165-1.419,8.876,8.876,0,0,0,2.959.55c1.552,0,2.63-.649,2.63-1.584,0-.737-.694-1.177-1.86-1.177a5.006,5.006,0,0,0-2.739.8,2.4,2.4,0,0,0-.495.473l-1.387-.044c.034-.2.034-.242.088-.66.088-.683.265-1.9.462-3.2a4.5,4.5,0,0,0,.067-.638Zm.143-2.156a16.5,16.5,0,0,0,4.1,1.221l-.452,1.265a19.939,19.939,0,0,1-4.291-1.375Z"/><path d="M134.555,13.93a13.079,13.079,0,0,0,.308,1.87,5.311,5.311,0,0,1,2.431-.627,10.648,10.648,0,0,0,.342-1.738l1.352.242a7.236,7.236,0,0,0-.274.979c-.056.231-.088.374-.154.583a3.482,3.482,0,0,1,3.08,3.7,4.06,4.06,0,0,1-.253,1.508c.209.143.517.385.858.671l-.518,1.287a9.256,9.256,0,0,0-.89-.825,2.089,2.089,0,0,1-.627.649,2.751,2.751,0,0,1-1.529.451,3.232,3.232,0,0,1-1.089-.2,1.459,1.459,0,0,1-.936-1.386,1.667,1.667,0,0,1,1.155-1.595,2.2,2.2,0,0,1,.782-.121,3.348,3.348,0,0,1,1.65.44,3.682,3.682,0,0,0,.121-.957,2.311,2.311,0,0,0-2.124-2.509,13.989,13.989,0,0,1-2.013,4.313c-.726,1.045-1.441,1.54-2.211,1.54-1.056,0-1.793-.99-1.793-2.409a4.291,4.291,0,0,1,1.573-3.323c-.077-.275-.253-1.078-.429-1.87a2.306,2.306,0,0,0-.11-.385Zm-1.122,5.787c0,.715.264,1.2.638,1.2a1.469,1.469,0,0,0,.99-.759,12.453,12.453,0,0,1-.869-2.366A2.837,2.837,0,0,0,133.433,19.717Zm2.442-.7c.044-.1.044-.1.154-.319a11.474,11.474,0,0,0,.957-2.421,3.67,3.67,0,0,0-1.859.616c.176.66.253.891.33,1.112l.3.781.1.242Zm2.839,1.452c-.562,0-.9.22-.9.583,0,.33.341.539.87.539a1.285,1.285,0,0,0,.758-.231,1.055,1.055,0,0,0,.418-.5A1.989,1.989,0,0,0,138.714,20.465Z"/><path d="M146.048,16.768a23.425,23.425,0,0,1-2.267,1.166,3.978,3.978,0,0,0-.4.176l-.5-1.122a10.474,10.474,0,0,0,2.805-1.254Zm1.452-1.815a5.448,5.448,0,0,1-1.155,1.21,4.391,4.391,0,0,0-.836-.715,5.207,5.207,0,0,0,1.573-1.826,2.7,2.7,0,0,0,.242-.583l1.243.2a2.979,2.979,0,0,0-.209.363c-.077.154-.121.22-.219.4h3.124a6.644,6.644,0,0,0,1-.044l.6.473a2.866,2.866,0,0,0-.22.33,7.058,7.058,0,0,1-1.133,1.43,8.017,8.017,0,0,0-1.035-.495,3.345,3.345,0,0,0,.748-.737H149.5a1.457,1.457,0,0,0,.186.715c.506,1.034,1.486,1.562,3.334,1.782a3.5,3.5,0,0,0-.463,1.122,8.646,8.646,0,0,1-2.079-.737,4.5,4.5,0,0,1-.967-.715,2.685,2.685,0,0,1-.562-.814,3.1,3.1,0,0,1-1.517,1.529l1.088.188c-.1.12-.154.208-.3.407s-.166.241-.32.451h3.851a5.642,5.642,0,0,0,1.078-.066v1.177a9.338,9.338,0,0,0-1.2-.066h-.924a5.179,5.179,0,0,1-1.089,1.408,30.433,30.433,0,0,1,3.069,1.034l-.748.946a31.985,31.985,0,0,0-3.355-1.232,11.148,11.148,0,0,1-4.9,1.155,4.156,4.156,0,0,0-.549-1.111h.374a11.3,11.3,0,0,0,3.509-.506c-.847-.22-1.562-.385-2.6-.583a9.39,9.39,0,0,0,1.166-1.111h-1.4a9.31,9.31,0,0,0-1.211.066V18.815a6.552,6.552,0,0,0,1.078.066h2.443a4.917,4.917,0,0,0,.616-.88,7.406,7.406,0,0,1-1.749.582,2.953,2.953,0,0,0-.616-1.045,4.928,4.928,0,0,0,2.948-1.177,2,2,0,0,0,.671-1.408Zm-3.619-1.65a9.794,9.794,0,0,1,1.969,1.1l-.693.946a7.429,7.429,0,0,0-1.936-1.133Zm3.19,6.623c-.209.231-.3.319-.583.616.825.176.825.176,1.837.44a3.721,3.721,0,0,0,1.024-1.056Z"/><path d="M161.535,18.98a7.8,7.8,0,0,0-.781-.991,4.28,4.28,0,0,1-1.122,1.475,3.347,3.347,0,0,0-.727-.8v.4c-1.21.176-2.453.3-4,.385-.22.011-.4.033-.627.066l-.132-.968c.176.01.2.01.429.01s.979-.032,1.607-.066V18h-.595a3.9,3.9,0,0,0-.66.043v-.737c-.176.077-.264.11-.616.242a1.977,1.977,0,0,0-.473-.792,2.374,2.374,0,0,0,1.111-.44,1.214,1.214,0,0,0,.385-.44h-.451a7.012,7.012,0,0,0-.859.044v-.88a6.569,6.569,0,0,0,.892.044h1.2V14.6h-.8c-.353,0-.562.011-.815.033v-.88a5.524,5.524,0,0,0,.825.044h.792v-.066a3.709,3.709,0,0,0-.054-.583h1.176a3.557,3.557,0,0,0-.044.583V13.8h.759a5.813,5.813,0,0,0,.825-.044v.88a7.872,7.872,0,0,0-.8-.033h-.782v.484h1.056c.386,0,.628-.011.869-.033v.858a8.386,8.386,0,0,0-.846-.033h-.276v.4c0,.121.033.143.3.143.2,0,.241-.077.253-.407a2.227,2.227,0,0,0,.748.209,2.292,2.292,0,0,1-.033.264l.539-.55c.209.154.263.2.44.33a7.85,7.85,0,0,0,.1-.946h-.33c-.276,0-.473.011-.715.033V14.3a4.492,4.492,0,0,0,.726.044h.34a5.781,5.781,0,0,0-.054-1.188h1.155c-.022.187-.033.286-.044.495,0,.055,0,.055-.011.451v.242h.7a7.057,7.057,0,0,0,.935-.044,4.277,4.277,0,0,0-.055.781,15.927,15.927,0,0,0,.121,2.332c.077.584.155.836.253.836.067,0,.143-.451.2-1.232a1.9,1.9,0,0,0,.7.517c-.176,1.343-.462,1.926-.936,1.926-.429,0-.781-.363-1.023-1.079a9.752,9.752,0,0,1-.363-3.069h-.594A9.567,9.567,0,0,1,161.117,17a9.3,9.3,0,0,1,1.056,1.144Zm.088.979a12.264,12.264,0,0,0,1.254-.044c-.032.253-.032.253-.088.935a6.985,6.985,0,0,1-.253,1.54c-.209.649-.594.814-1.859.814-.286,0-.573-.011-.935-.044a2.349,2.349,0,0,0-.386-1.111,10.045,10.045,0,0,0,1.475.11c.429,0,.528-.055.616-.319a4.232,4.232,0,0,0,.132-.946h-2.718c-.527,1.265-1.947,2.079-4.169,2.4a2.417,2.417,0,0,0-.605-1.045,8.519,8.519,0,0,0,2.014-.385,2.705,2.705,0,0,0,1.485-.968h-1.805a7.252,7.252,0,0,0-1.078.055V19.9a9.488,9.488,0,0,0,1.089.055h2.145c.011-.132.023-.286.023-.374s-.012-.209-.023-.319l1.266.011a2.9,2.9,0,0,0-.066.473,1.787,1.787,0,0,1-.034.209Zm-5.336-4.082a2.048,2.048,0,0,1-1.21,1.353c.165.011.341.011.517.011h.572v-.132a5.332,5.332,0,0,0-.033-.693h.979v-.539Zm2.618,2.663a3.239,3.239,0,0,0,1.046-1.321c-.352-.3-.418-.341-.737-.583-.132.3-.3.341-1.254.341-.518,0-.65-.022-.771-.143,0,.11.011.154.011.286v.121h.562a4.127,4.127,0,0,0,.671-.044v.836a6.6,6.6,0,0,0-.682-.032H157.2v.429l.418-.034c.319-.022.639-.054,1.287-.132Z"/><path d="M168.173,21.389a1.86,1.86,0,1,1-1.86-1.859A1.867,1.867,0,0,1,168.173,21.389Zm-2.861,0a1,1,0,1,0,1-1A1.007,1.007,0,0,0,165.312,21.389Z"/><path d="M171.987,15.327a1.448,1.448,0,0,1,1.134-1.65l.4.583c-.671.187-.826.385-.836,1.067h.924v1.606h-1.618Zm2.223,0a1.448,1.448,0,0,1,1.133-1.65l.4.583c-.671.187-.825.385-.836,1.067h.924v1.606H174.21Z"/><path d="M186.769,14.161c-.252.055-.252.055-.693.143-.473.088-.813.154-1.375.231-.065.605-.065.605-.11.88H186a6.6,6.6,0,0,0,1.057-.055v1.111a9.791,9.791,0,0,0-1.045-.044h-1.574c-.066.374-.077.407-.143.726h1.243a10.552,10.552,0,0,0,1.09-.044,7.41,7.41,0,0,0-.056,1.134v3.751a9.989,9.989,0,0,0,.067,1.309h-1.21v-.429H182.8V23.3h-1.177a8.256,8.256,0,0,0,.055-1.2V18.3a8.556,8.556,0,0,0-.055-1.188,4.677,4.677,0,0,0,.759.044h.77c.088-.385.1-.451.143-.726h-1.914c-.044,3.345-.374,4.973-1.375,6.909a5.562,5.562,0,0,0-.737-.7c-.044-.033-.067-.055-.132-.11.01.374.021.528.044.792h-1.255a8.318,8.318,0,0,0,.066-1.221v-2c0-.451,0-.451.023-1.255a4.241,4.241,0,0,1-.782.826,5.1,5.1,0,0,0-.517-1.144,8.085,8.085,0,0,0,1.805-1.9,5.118,5.118,0,0,0,.549-.968l.936.693a3.816,3.816,0,0,0-.221.352,11.412,11.412,0,0,1-.648.968v4.654a7.666,7.666,0,0,0,.593-1.353,10.147,10.147,0,0,0,.429-2.223c.056-.627.133-2.365.133-3.069,0-.627-.033-1.474-.077-1.848.176.011.253.011.429.011a24.915,24.915,0,0,0,3.971-.352,5.632,5.632,0,0,0,1.408-.374Zm-6.688-.4c-.11.121-.11.121-.4.484a8.585,8.585,0,0,1-1.045,1.111,9.2,9.2,0,0,1-1.178.891,3.674,3.674,0,0,0-.616-1.023,5.81,5.81,0,0,0,2.256-2.167Zm3.366,1.65c.033-.253.044-.418.077-.737-.715.077-1.122.11-2.145.154v.583Zm-.638,3.3h2.619v-.573h-2.619Zm0,1.551h2.619v-.616h-2.619Zm0,1.595h2.619V21.2h-2.619Z"/><path d="M188.772,14.722a4.115,4.115,0,0,0-.792.055V13.6a5.8,5.8,0,0,0,.947.066h1.078a5.894,5.894,0,0,0,.968-.066v1.177a3.613,3.613,0,0,0-.694-.055h-.121v2.167a3.847,3.847,0,0,0,.65-.044v1.1a6.43,6.43,0,0,0-.65-.033v2.047c.309-.121.5-.2,1.068-.451v1.133a26.056,26.056,0,0,1-2.575,1.078c-.175.066-.44.176-.572.242l-.286-1.265a6.236,6.236,0,0,0,1.222-.319V17.912h-.121a4.98,4.98,0,0,0-.749.044V16.834a3.815,3.815,0,0,0,.77.055h.1V14.722Zm8.989,5.754c-.088.077-.121.11-.309.264a9.454,9.454,0,0,1-.813.638,6.257,6.257,0,0,0,1.661.671,7.267,7.267,0,0,0-.594,1.1,7.38,7.38,0,0,1-1.893-1.012,4.763,4.763,0,0,1-1.111-1.089,7.426,7.426,0,0,1,.044.825v.605a5.054,5.054,0,0,0,.055.891h-1.265a5.359,5.359,0,0,0,.055-.946v-.594c0-.2.011-.55.033-.77a7.58,7.58,0,0,1-2.816,2.013,3.347,3.347,0,0,0-.727-1,6.9,6.9,0,0,0,3.169-1.991h-.88a8.585,8.585,0,0,0-.881.033,3.527,3.527,0,0,0,.044-.693v-.913a6.007,6.007,0,0,0-.032-.683c.264.022.55.033.924.033h3.993c.44,0,.748-.011.99-.033a6.234,6.234,0,0,0-.032.694v.935a5.454,5.454,0,0,0,.032.66,1.786,1.786,0,0,0-.374-.022Zm-6.711-4.159a5.791,5.791,0,0,0,1.055.066h4.864a7.362,7.362,0,0,0,1.055-.055v1.111a7.488,7.488,0,0,0-1.045-.055H192.1a7.206,7.206,0,0,0-1.045.055Zm.219-2.134a4.726,4.726,0,0,0-.043-.792,6.771,6.771,0,0,0,.879.044h4.732c.264,0,.615-.022.88-.044a6.559,6.559,0,0,0-.044.781v1.056c0,.242.011.528.033.759-.254-.011-.44-.022-.848-.022h-4.753c-.407,0-.549,0-.869.022a5.729,5.729,0,0,0,.033-.77Zm1.837.154h-.8v.825h.8Zm-.45,4.874h3.575v-.54h-3.575Zm2.222-4.874h-.814v.825h.814Zm.154,5.743a3.282,3.282,0,0,0,.771.737,4.607,4.607,0,0,0,.869-.737h-1.64Zm1.628-5.743h-.836v.825h.836Z"/><path d="M203.51,18.209A1.309,1.309,0,1,1,202.2,16.9,1.306,1.306,0,0,1,203.51,18.209Z"/><path d="M208.921,14.447a7.241,7.241,0,0,0-.067-1.144h1.354a7.066,7.066,0,0,0-.065,1.133v.737h2.474v-.715a6.041,6.041,0,0,0-.065-1.144H213.9a7.983,7.983,0,0,0-.065,1.155v.7h.9a9.6,9.6,0,0,0,1.243-.066v1.309a12.043,12.043,0,0,0-1.243-.055h-.9v2.31h1.122a9.888,9.888,0,0,0,1.43-.076v1.342a10.055,10.055,0,0,0-1.419-.077h-7.129a9.876,9.876,0,0,0-1.408.077V18.6a9.833,9.833,0,0,0,1.408.076h1.078v-2.31h-.815a11.365,11.365,0,0,0-1.21.055V15.107a9.534,9.534,0,0,0,1.21.066h.815Zm1.65,6.282a8.009,8.009,0,0,1-1.683,1.606,8.547,8.547,0,0,1-1.607.935,5.066,5.066,0,0,0-.836-1.023,7.692,7.692,0,0,0,1.805-.935,4.7,4.7,0,0,0,1.276-1.232Zm2.046-2.058v-2.31h-2.474v2.31Zm.595,1.4a5.9,5.9,0,0,0,1.517,1.331,9.379,9.379,0,0,0,1.695.836,4.619,4.619,0,0,0-.814,1.078,9.177,9.177,0,0,1-1.936-1.177,8.717,8.717,0,0,1-1.475-1.375Z"/><path d="M219.648,16.405a9.746,9.746,0,0,1-1.5,2.311,3.328,3.328,0,0,0-.9-.936,7.978,7.978,0,0,0,1.859-3.212,5.97,5.97,0,0,0,.242-1.023l1.254.308a1.738,1.738,0,0,1-.1.286,3.007,3.007,0,0,0-.11.363q-.082.247-.3.825h1.793v-.836a8.954,8.954,0,0,0-.078-1.32h1.409a10.226,10.226,0,0,0-.067,1.309v.847h2.289c.561,0,1.034-.022,1.486-.066v1.21c-.474-.044-.925-.066-1.454-.066h-2.321V18.43h1.9a11.4,11.4,0,0,0,1.354-.067v1.211a12.234,12.234,0,0,0-1.354-.066h-1.9V21.84H225.8a12.057,12.057,0,0,0,1.529-.077v1.254a12.824,12.824,0,0,0-1.5-.077H219.1a14.146,14.146,0,0,0-1.562.077V21.763a12.9,12.9,0,0,0,1.529.077h2.828V19.508H220.2a11.538,11.538,0,0,0-1.331.066V18.363a10.061,10.061,0,0,0,1.32.067h1.706V16.405Z"/><path d="M230,15.371a1.448,1.448,0,0,1-1.133,1.65l-.4-.583c.671-.187.825-.385.836-1.067h-.924V13.765H230Zm2.223,0a1.449,1.449,0,0,1-1.133,1.65l-.4-.583c.671-.187.825-.385.836-1.067h-.924V13.765h1.618Z"/><path d="M232.362,18.694a14.374,14.374,0,0,0,2.4-2.7,3.37,3.37,0,0,1,.681-.693,1.516,1.516,0,0,1,.881-.33,1.559,1.559,0,0,1,.989.418,7.219,7.219,0,0,1,.738.792,34.9,34.9,0,0,0,3.29,3.367,7.014,7.014,0,0,0,1.2.924l-.672,1.562a2.113,2.113,0,0,0-.318-.319c-.572-.506-1.442-1.331-2.245-2.134-.836-.858-.858-.891-2.035-2.234-.682-.781-.749-.836-.958-.836-.175,0-.286.1-.66.594a30.9,30.9,0,0,1-2.167,2.663,1.87,1.87,0,0,0-.231.3Z"/><path d="M247.96,19.827c-.627,1.419-1.331,2.068-2.233,2.068-1.254,0-2.157-1.276-2.157-3.048a4.725,4.725,0,0,1,1.21-3.2,4.94,4.94,0,0,1,3.785-1.54c2.64,0,4.357,1.606,4.357,4.082a4.237,4.237,0,0,1-2.674,4.1,7.188,7.188,0,0,1-1.728.462,3.492,3.492,0,0,0-.67-1.287,5.846,5.846,0,0,0,2.189-.605,3.08,3.08,0,0,0,1.529-2.751,2.723,2.723,0,0,0-1.353-2.442,2.4,2.4,0,0,0-1.111-.33A15.964,15.964,0,0,1,247.96,19.827Zm-1.617-3.939a3.683,3.683,0,0,0-1.5,2.971c0,.9.384,1.617.869,1.617.362,0,.737-.462,1.133-1.408a14.515,14.515,0,0,0,.913-3.719A2.8,2.8,0,0,0,246.343,15.888Z"/><path d="M258.507,22.126a7.556,7.556,0,0,0,.066,1.188h-1.287a9.649,9.649,0,0,0,.066-1.188V21.1c-1.1.33-1.848.528-2.343.627a6.158,6.158,0,0,0-.88.231l-.309-1.254a5.242,5.242,0,0,0,.848-.11V14.59c-.374.011-.5.022-.737.044V13.446a8.923,8.923,0,0,0,.99.055h3.355a6.582,6.582,0,0,0,1-.055v.682c.2.011.429.022.7.022h2.883a7.908,7.908,0,0,0,.891-.055c-.023.143-.044.363-.077.693a12.942,12.942,0,0,1-1.574,5.226,6.613,6.613,0,0,0,2.123,1.936,6.29,6.29,0,0,0-.66,1.232A8.115,8.115,0,0,1,261.39,21.1a8.634,8.634,0,0,1-2.211,2.09,4.72,4.72,0,0,0-.672-1.221ZM255.823,15.8h1.529V14.59h-1.529Zm0,2.156h1.529V16.779h-1.529Zm0,2.421a15.319,15.319,0,0,0,1.529-.352V18.958h-1.529Zm2.684,1.573a6.765,6.765,0,0,0,2.2-1.936,10.355,10.355,0,0,1-.813-1.97,13.717,13.717,0,0,1-.506-2.783c-.209.011-.286.022-.463.044v-.7a3.807,3.807,0,0,0-.418-.011Zm2-6.7a10.356,10.356,0,0,0,.913,3.609,11.255,11.255,0,0,0,1.034-3.609Z"/><path d="M267.329,13.4a10.831,10.831,0,0,0-.395,2.123c-.078.462-.122.836-.144,1.1h.033a2.052,2.052,0,0,0,.067-.242,4.419,4.419,0,0,1,.692-1.309,2.626,2.626,0,0,1,2.091-1.122,2.3,2.3,0,0,1,1.881.99,4.607,4.607,0,0,1,.792,2.926,4.624,4.624,0,0,1-2.838,4.522,9.4,9.4,0,0,1-2.156.616,4.186,4.186,0,0,0-.65-1.3,6.416,6.416,0,0,0,2.409-.627,3.352,3.352,0,0,0,1.86-3.366c0-1.585-.529-2.465-1.474-2.465a1.636,1.636,0,0,0-1.188.583,5.271,5.271,0,0,0-1.387,3.554v.231l-1.32.022a.855.855,0,0,0,.011-.143v-.209c-.011-.319-.033-1.134-.033-1.354,0-.891.066-2.112.154-2.871L265.9,13.7a2.6,2.6,0,0,0,.034-.374Z"/><path d="M275.6,19.442a11.953,11.953,0,0,1-.583,3.234l-.957-.44a8.642,8.642,0,0,0,.583-2.948Zm-1.4-1.662a5.263,5.263,0,0,0,.715.033h.3c.264-.33.286-.363.495-.66A11.182,11.182,0,0,0,274.12,15.4l.561-.99c.242.231.308.3.484.484a8.41,8.41,0,0,0,.88-1.815l1.122.407a3.31,3.31,0,0,0-.209.352,16.494,16.494,0,0,1-1.089,1.815c.22.231.264.3.484.561a11.245,11.245,0,0,0,1.144-2.024l.99.55c-.088.121-.142.209-.3.451a30.739,30.739,0,0,1-1.793,2.574c.418-.022.561-.033,1.221-.11a8.277,8.277,0,0,0-.374-.781l.836-.385a10.738,10.738,0,0,1,.913,2.234l-.891.418c-.066-.275-.087-.352-.154-.562-.263.034-.56.066-.89.1v3.443a6.865,6.865,0,0,0,.065,1.177h-1.254a7,7,0,0,0,.066-1.177V18.771c-.286.022-.55.044-.792.055a5.963,5.963,0,0,0-.792.088ZM278.19,19.3a12.439,12.439,0,0,1,.374,2.1l-.9.2a12.861,12.861,0,0,0-.308-2.1Zm5.446,2.508a3.046,3.046,0,0,0,.682-.066v1.243a8.736,8.736,0,0,0-1.133-.066H279.1a8.22,8.22,0,0,0-1.122.066V21.741a3.868,3.868,0,0,0,.77.066h.319V14.689c0-.418-.01-.737-.044-1.122.353.022.65.033,1.112.033h2.3a10.569,10.569,0,0,0,1.156-.044c-.032.374-.044.671-.044,1.21v7.041Zm-3.41-5.545h2.2V14.711h-2.2Zm0,2.7h2.2V17.351h-2.2Zm0,2.849h2.2v-1.76h-2.2Z"/><path d="M286.443,13.842a6.544,6.544,0,0,0,1.112.055c.66,0,1.639-.044,2.047-.1a.833.833,0,0,0,.439-.132l.869.748a1.642,1.642,0,0,0-.23.462c-.056.132-.727,2.156-.826,2.5a8.971,8.971,0,0,1,2.432.693,11.971,11.971,0,0,0,.109-2.035,3.3,3.3,0,0,0-.043-.583l1.386.055a3.566,3.566,0,0,0-.066.737,18.326,18.326,0,0,1-.2,2.332c.352.176.836.43,1.177.628a3.884,3.884,0,0,0,.506.264l-.5,1.452a11.233,11.233,0,0,0-1.518-1.023,5.184,5.184,0,0,1-1.2,1.936,6.357,6.357,0,0,1-1.661,1.243,4,4,0,0,0-1-.99,5.172,5.172,0,0,0,1.705-1.155,4.467,4.467,0,0,0,.98-1.628,8.416,8.416,0,0,0-2.476-.759,14.655,14.655,0,0,1-1.089,2.706,1.738,1.738,0,0,1-1.508,1.045,1.893,1.893,0,0,1-1.759-2.09,2.771,2.771,0,0,1,1.364-2.41,3.917,3.917,0,0,1,2.079-.528c.286-.869.418-1.287.693-2.3-.561.044-.825.055-1.9.1a8.554,8.554,0,0,0-.869.066Zm.33,5.237a1.551,1.551,0,0,0-.418,1.056c0,.451.243.814.539.814.209,0,.375-.2.628-.693a14.348,14.348,0,0,0,.715-1.837A2.181,2.181,0,0,0,286.773,19.079Z"/><path d="M299.6,21.389a1.86,1.86,0,1,1-1.86-1.859A1.867,1.867,0,0,1,299.6,21.389Zm-2.861,0a1,1,0,1,0,1-1A1.006,1.006,0,0,0,296.738,21.389Z"/><polyline class="cls-3" points="220.5 64.692 335.83 64.692 328.082 59.928"/><path class="cls-4" d="M129.113,58.441a8.19,8.19,0,0,1-3.582,2.39,15.092,15.092,0,0,1-5.148.875,10.213,10.213,0,0,1-5.217-1.261,8.655,8.655,0,0,1-3.483-3.739,13.259,13.259,0,0,1-1.289-5.79l-.01-1.555a14.064,14.064,0,0,1,1.115-5.939,8.54,8.54,0,0,1,3.305-3.857,10.97,10.97,0,0,1,11.465.534,8.3,8.3,0,0,1,2.758,5.631l-4.589.031a4.556,4.556,0,0,0-1.41-2.866A4.443,4.443,0,0,0,120.06,42a4.178,4.178,0,0,0-3.648,1.832,9.5,9.5,0,0,0-1.236,5.382l.01,1.461a9.044,9.044,0,0,0,1.4,5.428,4.68,4.68,0,0,0,4.019,1.811,5.226,5.226,0,0,0,3.779-1.158l-.027-3.943-4.29.029-.023-3.472,9-.062Z"/><path class="cls-4" d="M168.039,56.353l-8.265.056-1.538,4.724-5.013.035,8.36-22.935,4.368-.03,8.72,22.819-5.013.034Zm-7.018-3.77,5.72-.04L163.807,44Z"/><polygon class="cls-4" points="180.788 57.193 190.796 57.125 190.822 60.912 176.1 61.012 175.944 38.135 180.657 38.102 180.788 57.193"/><path class="cls-4" d="M204.639,54.815a2.418,2.418,0,0,0-.957-2.044,12.358,12.358,0,0,0-3.4-1.486,23.965,23.965,0,0,1-3.892-1.537q-3.91-2.079-3.935-5.645a5.517,5.517,0,0,1,1.022-3.314,6.816,6.816,0,0,1,2.986-2.292,11.3,11.3,0,0,1,4.386-.846,10.273,10.273,0,0,1,4.374.857,6.958,6.958,0,0,1,2.994,2.486,6.553,6.553,0,0,1,1.086,3.67l-4.713.031a3.084,3.084,0,0,0-1.007-2.436,4.075,4.075,0,0,0-2.787-.853,4.351,4.351,0,0,0-2.682.749,2.3,2.3,0,0,0-.945,1.931,2.207,2.207,0,0,0,1.136,1.863,12.711,12.711,0,0,0,3.317,1.391A14.292,14.292,0,0,1,207.5,50.3a5.976,5.976,0,0,1,1.869,4.45,5.507,5.507,0,0,1-2.215,4.674,9.845,9.845,0,0,1-6.038,1.731,11.708,11.708,0,0,1-4.815-.934,7.607,7.607,0,0,1-3.325-2.625,6.773,6.773,0,0,1-1.165-3.889l4.729-.032q.026,3.786,4.55,3.755a4.4,4.4,0,0,0,2.62-.7,2.223,2.223,0,0,0,.93-1.915"/><path class="cls-5" d="M136.757,46.6a6.645,6.645,0,0,1,1.041-1.339l-3.413-3.742a11.7,11.7,0,0,0-2.167,2.82Z"/><path class="cls-6" d="M145.124,43.954a6.5,6.5,0,0,1,1.432.9l3.423-3.737a11.649,11.649,0,0,0-3.034-1.892Z"/><path class="cls-7" d="M152.963,45.08l-4.536,2.261a6.5,6.5,0,0,1,.453,1.6l5.047-.477a11.5,11.5,0,0,0-.964-3.387"/><path class="cls-8" d="M148.1,46.686l4.536-2.261a11.658,11.658,0,0,0-2.119-2.815L147.1,45.346a6.562,6.562,0,0,1,1.006,1.34"/><path class="cls-9" d="M135.856,49.909c0-.1,0-.2.008-.3l-5.047-.452c-.016.25-.026.5-.026.757a11.654,11.654,0,0,0,.344,2.808l4.875-1.4a6.541,6.541,0,0,1-.154-1.409"/><path class="cls-10" d="M147.466,54.058a6.653,6.653,0,0,1-1.231,1.157L148.9,59.53a11.7,11.7,0,0,0,2.61-2.423Z"/><path class="cls-11" d="M148.951,49.909a6.447,6.447,0,0,1-.15,1.392l4.875,1.4a11.592,11.592,0,0,0,.34-2.793c0-.239-.007-.476-.023-.713l-5.046.477c0,.079,0,.157,0,.236"/><path class="cls-12" d="M137.424,54.154l-4.035,3.066a11.713,11.713,0,0,0,2.634,2.387l2.665-4.31a6.605,6.605,0,0,1-1.264-1.143"/><path class="cls-13" d="M135.938,48.875a6.421,6.421,0,0,1,.484-1.626l-4.536-2.259a11.526,11.526,0,0,0-1,3.432Z"/><path class="cls-14" d="M148.28,59.921l-2.661-4.31a6.457,6.457,0,0,1-1.554.631l.94,4.986a11.555,11.555,0,0,0,3.275-1.307"/><path class="cls-15" d="M148.607,52.008a6.567,6.567,0,0,1-.709,1.459l4.048,3.052a11.582,11.582,0,0,0,1.532-3.112Z"/><path class="cls-16" d="M143.348,56.388a6.528,6.528,0,0,1-.945.069,6.62,6.62,0,0,1-.762-.045L140.7,61.4a11.6,11.6,0,0,0,3.583-.029Z"/><path class="cls-17" d="M142.822,43.374a6.559,6.559,0,0,1,1.62.313l1.821-4.731a11.505,11.505,0,0,0-3.441-.651Z"/><path class="cls-18" d="M140.92,56.287a6.469,6.469,0,0,1-1.607-.608l-2.667,4.313a11.552,11.552,0,0,0,3.336,1.274Z"/><path class="cls-19" d="M140.436,43.664a6.5,6.5,0,0,1,1.654-.3V38.3a11.538,11.538,0,0,0-3.487.635Z"/><path class="cls-20" d="M136.979,53.572a6.557,6.557,0,0,1-.772-1.549l-4.872,1.4a11.577,11.577,0,0,0,1.609,3.217Z"/><path class="cls-21" d="M138.347,44.773a6.584,6.584,0,0,1,1.405-.85L137.919,39.2a11.606,11.606,0,0,0-2.988,1.83Z"/><path class="cls-4" d="M20.957,45.738a.968.968,0,0,0-.365-.8,4.535,4.535,0,0,0-1.283-.6,12.373,12.373,0,0,1-1.5-.6,2.842,2.842,0,0,1-1.9-2.56,2.3,2.3,0,0,1,.473-1.43,3.056,3.056,0,0,1,1.336-.965,5.2,5.2,0,0,1,1.943-.345,4.544,4.544,0,0,1,1.885.376,2.981,2.981,0,0,1,1.3,1.068,2.79,2.79,0,0,1,.462,1.584H20.963a1.177,1.177,0,0,0-.365-.924,1.422,1.422,0,0,0-.988-.328,1.608,1.608,0,0,0-1,.278.819.819,0,0,0,.037,1.387,5.116,5.116,0,0,0,1.414.629,8.691,8.691,0,0,1,1.661.7,2.793,2.793,0,0,1,1.581,2.512,2.382,2.382,0,0,1-.964,2.01,4.294,4.294,0,0,1-2.647.73,5.237,5.237,0,0,1-2.146-.425A3.229,3.229,0,0,1,16.1,46.873a3.041,3.041,0,0,1-.486-1.7h2.359a1.5,1.5,0,0,0,.405,1.156A1.914,1.914,0,0,0,19.7,46.7a1.507,1.507,0,0,0,.921-.251.826.826,0,0,0,.339-.706"/><path class="cls-4" d="M32.3,38.576V44.96a3.673,3.673,0,0,1-.463,1.88,2.989,2.989,0,0,1-1.326,1.209,4.67,4.67,0,0,1-2.043.415,4.033,4.033,0,0,1-2.807-.924,3.3,3.3,0,0,1-1.045-2.532V38.576h2.365v6.479q.041,1.6,1.487,1.6a1.439,1.439,0,0,0,1.105-.4,1.88,1.88,0,0,0,.375-1.306V38.576Z"/><path class="cls-4" d="M38.937,45.738a.968.968,0,0,0-.365-.8,4.535,4.535,0,0,0-1.283-.6,12.35,12.35,0,0,1-1.5-.6,2.843,2.843,0,0,1-1.9-2.56,2.3,2.3,0,0,1,.473-1.43,3.05,3.05,0,0,1,1.336-.965,5.2,5.2,0,0,1,1.943-.345,4.553,4.553,0,0,1,1.886.376,2.984,2.984,0,0,1,1.3,1.068,2.79,2.79,0,0,1,.463,1.584H38.944a1.18,1.18,0,0,0-.365-.924,1.424,1.424,0,0,0-.988-.328,1.606,1.606,0,0,0-1,.278.852.852,0,0,0-.366.707.863.863,0,0,0,.4.68,5.116,5.116,0,0,0,1.414.629,8.691,8.691,0,0,1,1.661.7,2.794,2.794,0,0,1,1.582,2.512,2.383,2.383,0,0,1-.965,2.01,4.294,4.294,0,0,1-2.647.73,5.24,5.24,0,0,1-2.146-.425,3.226,3.226,0,0,1-1.447-1.166,3.034,3.034,0,0,1-.487-1.7h2.359a1.5,1.5,0,0,0,.4,1.156,1.914,1.914,0,0,0,1.316.371,1.513,1.513,0,0,0,.922-.251.828.828,0,0,0,.338-.706"/><polygon class="cls-4" points="50.289 40.392 47.361 40.392 47.361 48.33 45.009 48.33 45.009 40.392 42.136 40.392 42.136 38.576 50.289 38.576 50.289 40.392"/><path class="cls-4" d="M56.154,46.508H52.932l-.564,1.823H49.856l3.577-9.754h2.211l3.605,9.754H56.723Zm-2.66-1.815h2.1L54.539,41.31Z"/><rect class="cls-4" x="60.257" y="38.577" width="2.345" height="9.754"/><polygon class="cls-4" points="72.519 48.33 70.181 48.33 66.724 42.261 66.724 48.33 64.373 48.33 64.373 38.576 66.724 38.576 70.175 44.646 70.175 38.576 72.519 38.576 72.519 48.33"/><path class="cls-4" d="M79.805,46.508H76.582l-.563,1.823H73.507l3.577-9.754H79.3l3.6,9.754H80.374Zm-2.66-1.815h2.1L78.19,41.31Z"/><path class="cls-4" d="M83.747,48.331V38.577h3.5a4.967,4.967,0,0,1,2.864.689,2.3,2.3,0,0,1,.982,2,2.327,2.327,0,0,1-.348,1.294,2.038,2.038,0,0,1-1.026.79,2.057,2.057,0,0,1,1.173.75,2.187,2.187,0,0,1,.409,1.34A2.583,2.583,0,0,1,90.4,47.6a4.323,4.323,0,0,1-2.69.734ZM86.1,42.643h1.226a1.746,1.746,0,0,0,1.1-.282,1,1,0,0,0,.328-.813,1.054,1.054,0,0,0-.355-.891,1.906,1.906,0,0,0-1.146-.272H86.1Zm0,1.541v2.338h1.541a1.462,1.462,0,0,0,.978-.292,1.02,1.02,0,0,0,.342-.821,1.081,1.081,0,0,0-1.213-1.225Z"/><polygon class="cls-4" points="95.085 46.522 99.178 46.522 99.178 48.33 92.734 48.33 92.734 38.577 95.085 38.577 95.085 46.522"/><polygon class="cls-4" points="106.357 44.19 102.659 44.19 102.659 46.522 107.026 46.522 107.026 48.33 100.307 48.33 100.307 38.576 107.04 38.576 107.04 40.392 102.659 40.392 102.659 42.448 106.357 42.448 106.357 44.19"/><path class="cls-4" d="M15.916,61.523V51.966h3.078a4.531,4.531,0,0,1,2.279.574,4.044,4.044,0,0,1,1.578,1.621,4.9,4.9,0,0,1,.574,2.347v.439a4.931,4.931,0,0,1-.554,2.354,4.06,4.06,0,0,1-1.563,1.627,4.433,4.433,0,0,1-2.248.6Zm2.3-7.779V59.75h.8a1.794,1.794,0,0,0,1.523-.7,3.465,3.465,0,0,0,.531-2.1v-.413a3.432,3.432,0,0,0-.531-2.087,1.826,1.826,0,0,0-1.55-.7Z"/><polygon class="cls-4" points="30.029 57.466 26.645 57.466 26.645 59.75 30.685 59.75 30.685 61.523 24.342 61.523 24.342 51.966 30.698 51.966 30.698 53.744 26.645 53.744 26.645 55.759 30.029 55.759 30.029 57.466"/><polygon class="cls-4" points="35.737 58.923 37.641 51.966 40.213 51.966 36.997 61.523 34.477 61.523 31.286 51.966 33.84 51.966 35.737 58.923"/><polygon class="cls-4" points="46.563 57.466 43.213 57.466 43.213 59.75 47.22 59.75 47.22 61.523 40.91 61.523 40.91 51.966 47.233 51.966 47.233 53.744 43.213 53.744 43.213 55.759 46.563 55.759 46.563 57.466"/><polygon class="cls-4" points="50.316 59.75 53.962 59.75 53.962 61.523 48.012 61.523 48.012 51.966 50.316 51.966 50.316 59.75"/><path class="cls-4" d="M62.533,56.941a5.627,5.627,0,0,1-.518,2.474,3.838,3.838,0,0,1-1.474,1.658,4.107,4.107,0,0,1-2.176.581,4.162,4.162,0,0,1-2.166-.561,3.828,3.828,0,0,1-1.473-1.605,5.46,5.46,0,0,1-.555-2.4v-.538a5.651,5.651,0,0,1,.515-2.478,3.814,3.814,0,0,1,1.477-1.657,4.368,4.368,0,0,1,4.355-.007A3.886,3.886,0,0,1,62,54.056a5.482,5.482,0,0,1,.535,2.445Zm-2.343-.4a4.02,4.02,0,0,0-.476-2.163,1.527,1.527,0,0,0-1.362-.738q-1.732,0-1.831,2.6l-.007.7a4.145,4.145,0,0,0,.466,2.16,1.525,1.525,0,0,0,1.385.754,1.506,1.506,0,0,0,1.346-.742,4.015,4.015,0,0,0,.479-2.133Z"/><path class="cls-4" d="M65.752,58.28v3.243h-2.3V51.966h3.814a4.439,4.439,0,0,1,1.939.4,3.053,3.053,0,0,1,1.307,1.149,3.13,3.13,0,0,1,.462,1.69,2.767,2.767,0,0,1-1,2.235,4.152,4.152,0,0,1-2.747.837Zm0-1.779h1.51a1.423,1.423,0,0,0,1.021-.335,1.242,1.242,0,0,0,.351-.945,1.533,1.533,0,0,0-.362-1.069,1.28,1.28,0,0,0-.984-.408H65.752Z"/><polygon class="cls-4" points="74.842 51.966 76.975 58.615 79.102 51.966 82.134 51.966 82.134 61.523 79.823 61.523 79.823 59.291 80.047 54.723 77.736 61.523 76.213 61.523 73.896 54.716 74.119 59.291 74.119 61.523 71.815 61.523 71.815 51.966 74.842 51.966"/><polygon class="cls-4" points="88.857 57.466 85.464 57.466 85.464 59.75 89.513 59.75 89.513 61.523 83.16 61.523 83.16 51.966 89.526 51.966 89.526 53.744 85.464 53.744 85.464 55.759 88.857 55.759 88.857 57.466"/><polygon class="cls-4" points="98.27 61.523 95.979 61.523 92.592 55.576 92.592 61.523 90.288 61.523 90.288 51.966 92.592 51.966 95.973 57.912 95.973 51.966 98.27 51.966 98.27 61.523"/><polygon class="cls-4" points="107.04 53.744 104.171 53.744 104.171 61.523 101.867 61.523 101.867 53.744 99.051 53.744 99.051 51.966 107.04 51.966 107.04 53.744"/><path d="M226.111,39.551h-4.236V38.467h4.236Zm-6.557-3.811V36.7h6.557v.878H220.67v4.791h4.5a15.719,15.719,0,0,1-5.8,2.965l.741,1a15.729,15.729,0,0,0,6-3.52v3.765h1.249V42.81a16.936,16.936,0,0,0,6.032,3.519l.727-1a15.527,15.527,0,0,1-5.812-2.953h4.56V37.581H227.36V36.7h6.574V35.74H227.36V34.629h-1.249V35.74Zm6.557,5.757h-4.236V40.389h4.236Zm5.566-1.946H227.36V38.467h4.317Zm0,1.946H227.36V40.389h4.317Z"/><path d="M253.905,46.612h-1.254V39.9a7.807,7.807,0,0,1-1.3,1.355l-.65-1.214a11.026,11.026,0,0,0,3.169-5.438l1.269.182a11.993,11.993,0,0,1-1.238,3.2Zm7.113-9.577a16.542,16.542,0,0,0-3.045-1.635l.772-.849a12.52,12.52,0,0,1,3.065,1.572Zm3.958,1.191h-4.2v2.779h3.634V42h-3.634v3.184h4.547v1.006H254.851V45.183h4.622V42h-3.726v-.994h3.726V38.226h-4.267V37.219h9.77Z"/><path d="M278.7,39.187h-2.633V38.2H278.7Zm-2.633-4.547h-1.2v.841h-3.188v.875h3.188v.978h-4.2V38.2h4.2v.99h-3.188v.854h3.188v.9h-3.677v.863h3.677V42.8h-4.2v.875h4.2v1.186h1.2V43.673h4.721V42.8h-4.721v-.991h4.149v-.863h-4.149v-.9h3.793V38.2h1.006v-.863h-1.006V35.481h-3.793ZM274.3,45.3a13.747,13.747,0,0,1-1.439-.078,6.76,6.76,0,0,1-3.373-1.342,13.131,13.131,0,0,0,.977-4.692h-2.519a14.317,14.317,0,0,0,2.5-3.088v-.941h-3.9v.965h2.5a15.261,15.261,0,0,1-2.459,2.94v1.068h2.69a9.733,9.733,0,0,1-.573,2.758,7.061,7.061,0,0,1-.756-2.078l-1.081.221a7.158,7.158,0,0,0,1.329,2.859,6.566,6.566,0,0,1-1.778,1.781l.757.94a6.572,6.572,0,0,0,1.823-1.882,8.044,8.044,0,0,0,5.1,1.546h6.633l.263-.992Zm4.406-7.965h-2.633v-.978H278.7Z"/><path class="cls-22" d="M242,43.625a8.884,8.884,0,0,1-2.106-1.688h2.522V41h-2.672V39.644H242.7V38.7h-1.56a19.569,19.569,0,0,0,.5-1.985h.851v-.94h-2.737v-1.15h-1.192v1.15h-3.048v.94h1.13A12.345,12.345,0,0,1,237.1,38.7h-1.853v.941h3.309V41h-3.17v.941h2.937a11.253,11.253,0,0,1-3.374,2.706l.666.939a13.917,13.917,0,0,0,2.941-2.527v3.583h1.192V43.007a11.031,11.031,0,0,0,1.572,1.52ZM238.23,38.7a15.276,15.276,0,0,0-.449-1.985h2.692a11.329,11.329,0,0,1-.466,1.985Z"/><path class="cls-22" d="M244.522,37.088,250,35.577l-3.305-.949.578.726-3.979,1.1v0h0v3.905a10.115,10.115,0,0,1-.48,3.17,6.039,6.039,0,0,1-1.575,2.387l1.143.682c.68-.723,2.148-2.308,2.148-6.224v-.657h2.009v6.917h1.285V39.721h1.656v-.98h-4.95Z"/><path class="cls-23" d="M291.066,45.351c2.851-.915,3.7-2.877,3.7-4.561a3.875,3.875,0,0,0-3.7-4.031,25,25,0,0,1-1.751,7.027c-.848,1.8-1.578,1.844-1.909,1.844-1.233,0-2.6-1.844-2.6-4.244a5.61,5.61,0,0,1,5.82-5.715,5.022,5.022,0,0,1,5.344,5.158c0,1.525-.57,4.244-4.244,5.5Zm-5.131-3.925c0,1.764.861,2.983,1.418,2.983.424,0,.8-.848,1.075-1.485a22.31,22.31,0,0,0,1.484-6.126A4.534,4.534,0,0,0,285.935,41.426Z"/><path class="cls-23" d="M305.521,37.085a3.25,3.25,0,0,0-1.975-.663,1.814,1.814,0,0,0-2.029,1.763c0,1.114.876,1.459,1.949,1.817,1.38.451,2.957,1.021,2.957,3.063,0,1.7-1.3,3.089-3.659,3.089a5.129,5.129,0,0,1-2.917-.835l.371-1.127a4.1,4.1,0,0,0,2.492.822c1.207,0,2.453-.57,2.453-1.87a1.948,1.948,0,0,0-1.524-1.816c-2.082-.729-3.369-1.167-3.369-3.09a2.977,2.977,0,0,1,3.236-2.957,4.663,4.663,0,0,1,2.334.623Z"/><path class="cls-23" d="M308.077,35.493h3.832a6.985,6.985,0,0,1,2.692.4c2.626.981,2.851,3.846,2.851,4.827,0,1.379-.372,3.872-2.824,4.826a7.36,7.36,0,0,1-2.825.4h-3.726ZM309.31,44.8h2.175c1.617,0,4.72,0,4.72-4.084s-3.129-4.084-4.654-4.084H309.31Z"/><path class="cls-23" d="M327.551,37.443a5.115,5.115,0,0,0-3.2-1.021c-2.626,0-4.508,1.617-4.508,4.256,0,2.082,1.167,4.336,4.694,4.336A6.426,6.426,0,0,0,326.9,44.6V41.447h-2.917V40.32h4.151v5.1a9.274,9.274,0,0,1-3.647.729c-4.124,0-5.886-2.744-5.886-5.449,0-3.17,2.386-5.424,5.767-5.424a7.007,7.007,0,0,1,3.62.968Z"/><path class="cls-23" d="M334.308,39.5a3.207,3.207,0,0,0-1.738-.477c-.742,0-1.591.265-1.591,1.113,0,.8.438.942,1.9,1.393.875.278,2.227.7,2.227,2.267,0,1.79-1.763,2.36-3.156,2.36a5.4,5.4,0,0,1-2.532-.623l.4-1.021a4.364,4.364,0,0,0,2.162.557c.278,0,1.936,0,1.936-1.26,0-.875-.889-1.127-1.658-1.352-1.22-.345-2.452-.743-2.452-2.281,0-1.445,1.272-2.254,2.758-2.254a4.617,4.617,0,0,1,2.054.491Z"/><path class="cls-4" d="M243.852,54.28v.949H239.9V54.28Zm-.371,4.177v3.059h-2.108v.389h-1.02V58.457Zm-3.1-1.858v-.91h3.108v.91Zm0,1.369v-.9h3.108v.9Zm3.088-5.038v.91h-3.048v-.91Zm-1.03,6.477h-1.069v1.159h1.069Zm6.916-.74v1.09h-2.2v2.288h-1.189V59.757h-2.249v-1.09h2.249V57.648h-1.709v-1.08h1.709V55.6h-1.919V54.51h.909a7.2,7.2,0,0,0-.609-1.49l.969-.359a6.416,6.416,0,0,1,.719,1.659l-.48.19h1.89l-.41-.17a10.428,10.428,0,0,0,.729-1.749l1.29.449a.26.26,0,0,1-.27.11,13.728,13.728,0,0,1-.7,1.36H249.2V55.6H247.16v.969h1.789v1.08H247.16v1.019Z"/><path class="cls-4" d="M253.731,53.1c-.019.12-.109.2-.3.23-.09,1.329-.19,3.668-.19,5.137,0,1.28.65,1.879,1.719,1.879a4.725,4.725,0,0,0,3.228-1.649,8.437,8.437,0,0,0,.73,1.13,5.543,5.543,0,0,1-3.968,1.819c-2.219,0-3.078-1.21-3.078-3.179,0-1.339.069-4.237.14-5.447Z"/><path class="cls-4" d="M266.1,61.966a28.757,28.757,0,0,0-3.848-3.539c-.6-.469-.74-.749-.74-1.239a1.257,1.257,0,0,1,.469-.969c1-.93,2.789-2.7,3.559-3.508l1.429.919a.414.414,0,0,1-.39.11c-.919.85-2.328,2.079-3.148,2.838-.22.22-.45.42-.45.56,0,.16.25.36.61.61a31.632,31.632,0,0,1,3.788,3.228Z"/><path class="cls-4" d="M270.853,61.476a14.247,14.247,0,0,1-.41-3.818,25.027,25.027,0,0,1,.51-4.528l1.569.3c-.019.1-.15.18-.28.2a16.361,16.361,0,0,0-.609,4.857,6.06,6.06,0,0,0,.03.82c.14-.39.46-1.209.619-1.589l.651.829a18.23,18.23,0,0,0-.831,1.9,1.385,1.385,0,0,0-.1.53,1.723,1.723,0,0,0,.05.43Zm2.659-6.167c.729.03,1.469,0,2.2-.03-.04-.779-.07-1.459-.08-2.2l1.589.05a.278.278,0,0,1-.25.22l.009,1.829a10.845,10.845,0,0,0,1.74-.339l.1,1.219a8.845,8.845,0,0,1-1.8.28c.031.9.081,1.819.121,2.468A7.325,7.325,0,0,1,279,59.957l-.649,1.179a5.251,5.251,0,0,0-1.17-.95c-.13,1.27-1.049,1.48-1.9,1.48-1.229,0-1.97-.67-1.97-1.6a1.783,1.783,0,0,1,1.99-1.628,4.261,4.261,0,0,1,.6.049c-.04-.529-.08-1.329-.12-2.058-.289.02-.639.029-.859.029h-1.389ZM276,59.577a2.273,2.273,0,0,0-.691-.12c-.489,0-.958.16-.958.59,0,.379.419.569.929.569a.673.673,0,0,0,.73-.759C276.011,59.787,276.011,59.667,276,59.577Z"/><path class="cls-4" d="M288.019,61.106a20.615,20.615,0,0,1-3,.2,11.775,11.775,0,0,1-2.079-.14,2.081,2.081,0,0,1-1.839-2.049,3.135,3.135,0,0,1,.94-2.1l1.079.48a2.093,2.093,0,0,0-.729,1.4c0,1.189,1.439,1.189,2.448,1.189a17.124,17.124,0,0,0,3.079-.269Zm-4.887-5.2a10.778,10.778,0,0,1,1.279-.88v-.01a22.949,22.949,0,0,1-2.768.09c0-.3-.01-.939-.03-1.219.18.01.419.01.69.01,1.008,0,2.468-.04,3.168-.08a14.079,14.079,0,0,0,1.928-.23l.1,1.3a7.6,7.6,0,0,0-3.269,1.569Z"/><path class="cls-4" d="M297.909,55.109a22.773,22.773,0,0,1-3.947.53,9.693,9.693,0,0,1-.37,1.919,4.785,4.785,0,0,1,2.488-.82,2.122,2.122,0,0,1,2.4,2.229c0,2.059-1.909,2.8-5.327,2.869a6.345,6.345,0,0,0-.37-1.14c2.828-.07,4.407-.52,4.407-1.7,0-.719-.439-1.129-1.329-1.129a3.519,3.519,0,0,0-2.728,1.419l-1.219-.53a6.947,6.947,0,0,0,.8-3.1h-2.149V54.44c.46.02,1.53.02,2.249.02.04-.52.05-1.13.04-1.689l1.62.139c-.031.17-.151.22-.3.24-.021.43-.051.89-.08,1.28a18.863,18.863,0,0,0,3.618-.58Z"/><path class="cls-4" d="M303.142,54.909a.281.281,0,0,1-.26.17,7.5,7.5,0,0,1-.409,2.449h.009a6.451,6.451,0,0,1,3.248-1.02,2.271,2.271,0,0,1,2.549,2.3c-.01,1.909-1.449,2.839-5.447,3a6.344,6.344,0,0,0-.46-1.16c3.328-.13,4.538-.619,4.548-1.809.01-.709-.51-1.189-1.389-1.189a4.281,4.281,0,0,0-3.358,1.519l-1.159-.52a11.027,11.027,0,0,0,.588-3.928Zm-.2-2.109a17.4,17.4,0,0,1,3.848.79l-.41,1.229a16.92,16.92,0,0,0-3.808-.849Z"/></svg>