<?xml version="1.0" encoding="utf-8"?>
<!-- Generator: Adobe Illustrator 27.4.0, SVG Export Plug-In . SVG Version: 6.00 Build 0)  -->
<svg version="1.1" id="レイヤー_1" xmlns="http://www.w3.org/2000/svg" xmlns:xlink="http://www.w3.org/1999/xlink" x="0px"
	 y="0px" viewBox="0 0 450 200" style="enable-background:new 0 0 450 200;" xml:space="preserve">
<style type="text/css">
	.st0{fill:#2EFFFF;}
	.st1{clip-path:url(#SVGID_00000034075584840322112590000005293359200851646347_);}
	.st2{fill:#FFFFFF;}
	.st3{fill:#002CD0;}
	.st4{clip-path:url(#SVGID_00000057832778111117289950000007769364900290288058_);}
	.st5{fill:#FFFFFF;stroke:#002CD0;stroke-width:1.306;stroke-linecap:round;stroke-linejoin:round;}
	.st6{fill:none;stroke:#002CD0;stroke-width:1.306;stroke-linecap:round;stroke-linejoin:round;}
	.st7{fill:#231815;}
	.st8{fill:#2EFFFF;stroke:#002CD0;stroke-width:1.306;stroke-linecap:round;stroke-linejoin:round;}
	.st9{fill:none;stroke:#002CD0;stroke-width:0.9;stroke-miterlimit:10;}
</style>
<rect y="0" class="st0" width="450" height="200"/>
<g>
	<g>
		<defs>
			<rect id="SVGID_1_" y="0" width="450" height="200"/>
		</defs>
		<clipPath id="SVGID_00000146479744052750566130000017309543424902360203_">
			<use xlink:href="#SVGID_1_"  style="overflow:visible;"/>
		</clipPath>
		<g style="clip-path:url(#SVGID_00000146479744052750566130000017309543424902360203_);">
			<ellipse class="st2" cx="307.9" cy="162.4" rx="33.4" ry="33.4"/>
			<path class="st3" d="M293.3,144.4c0.8,0.1,1.6,0.2,2.4,0.1h2.4c0.8,0,1.6,0,2.4-0.1c-0.1,1.2-0.2,2.3-0.2,3.5v11.2c0,1,0,2,0.2,3
				h-4c0.1-1,0.2-2,0.2-3v-11.5h-1c-0.8,0-1.6,0-2.4,0.2V144.4z"/>
			<path d="M306.1,157.1c-0.3,0-0.6,0-0.9,0.1v-0.7c-0.4,0.5-0.9,0.9-1.4,1.2c-0.3-0.5-0.6-1-1-1.4c1.2-0.8,2.3-1.9,2.9-3.3
				c0.2-0.4,0.4-0.7,0.4-1.1l1.6,0.6c-0.1,0.2-0.2,0.4-0.3,0.6c-0.5,0.9-1,1.8-1.7,2.6h5c-0.7-0.8-1.3-1.7-1.7-2.7
				c-0.1-0.1-0.2-0.3-0.2-0.5l1.5-0.6c0.1,0.4,0.3,0.7,0.4,1c0.7,1.3,1.8,2.4,3.1,3.2c-0.4,0.5-0.7,1-1,1.5c-0.4-0.3-0.8-0.6-1.2-1
				c0,1.5-0.1,3-0.4,4.5c-0.2,0.8-0.7,1.1-2,1.1c-0.2,0-0.3,0-1,0c-0.1-0.5-0.2-1.1-0.4-1.6c0.4,0.1,0.9,0.1,1.3,0.1
				c0.5,0,0.6-0.1,0.7-0.3c0.2-1,0.3-2.1,0.3-3.1V157h-2c0,0.4-0.1,0.7-0.2,1.1c-0.3,1.3-1,2.4-2,3.3c-0.5,0.4-1.1,0.8-1.7,1.1
				c-0.3-0.5-0.6-0.9-1-1.3c1.1-0.4,2.1-1.2,2.7-2.2c0.3-0.6,0.5-1.2,0.5-1.9L306.1,157.1z"/>
			<path d="M314.8,153.5c0.3,0,0.4,0,0.4,0c0.2,0,0.3,0,1.9-0.1c0.8-0.1,2.8-0.2,5.9-0.3c0.4,0,0.9,0,1.3-0.1l0.1,1.8
				c-0.1,0-0.2,0-0.3,0c-0.9,0-1.7,0.3-2.4,0.7c-1.1,0.5-1.9,1.6-2.1,2.8c0,0.9,0.6,1.6,1.5,1.7c0.6,0.2,1.1,0.2,1.7,0.3
				c0.1,0,0.1,0,0.3,0l-0.2,1.9c-0.1,0-0.3,0-0.4-0.1c-1-0.1-1.9-0.3-2.8-0.7c-1.1-0.5-1.8-1.7-1.8-2.9c0-1.6,1-3,2.4-3.7
				c-1.1,0.1-1.2,0.1-3.7,0.3c-0.6,0-1.1,0.1-1.7,0.2L314.8,153.5z M322.7,157.5c-0.2-0.6-0.6-1.1-1-1.6l1-0.4c0.4,0.5,0.7,1,1,1.5
				L322.7,157.5z M324.1,156.8c-0.2-0.5-0.6-1.1-0.9-1.5l1-0.4c0.4,0.4,0.7,0.9,1,1.5L324.1,156.8z"/>
			<path d="M292.4,167.9c-0.2,0.1-0.2,0.1-0.4,0.3c-0.8,0.7-1.7,1.3-2.6,1.9c0.2,0.1,0.3,0.2,0.5,0.4l-0.3,0.2h1.7
				c0.4,0,0.9,0,1.3-0.1l0.9,0.9c-0.1,0.1-0.2,0.2-0.2,0.3c-0.7,1-1.5,2-2.5,2.8c-0.3-0.4-0.7-0.8-1.2-1.1c0.6-0.4,1.2-0.9,1.6-1.5
				h-2.3v3.7c0,0.6-0.1,0.9-0.5,1.1c-0.6,0.2-1.2,0.3-1.8,0.2c-0.5,0-0.6,0-1,0c-0.1-0.5-0.2-1-0.4-1.5c0.6,0.1,1.1,0.1,1.7,0.1
				c0.4,0,0.4,0,0.4-0.3V172h-2.8c-0.5,0-1,0-1.6,0.1v-1.5c0.5,0.1,1.1,0.1,1.6,0.1h3.1c-0.7-0.5-1.5-1-2.3-1.4l1-0.9
				c0.6,0.3,1.1,0.6,1.7,1c0.5-0.3,1-0.6,1.5-1h-4.1c-0.5,0-1,0-1.5,0.1V167c0.5,0.1,1,0.1,1.5,0.1h5c0.3,0,0.7,0,1-0.1L292.4,167.9
				z"/>
			<path d="M295.8,173.2c0,1.2-0.2,2.3-0.5,3.5l-1.1-0.5c0.3-1,0.5-2,0.5-3.1L295.8,173.2z M294.3,171.3c0.2,0,0.4,0.1,0.6,0h0.4
				c0.2-0.3,0.3-0.4,0.5-0.7c-0.4-0.6-0.9-1.2-1.5-1.7l0.7-1.2c0.2,0.2,0.2,0.3,0.3,0.4c0.4-0.5,0.6-1.1,0.8-1.7l1.3,0.5
				c-0.1,0.1-0.2,0.3-0.2,0.4c-0.3,0.6-0.7,1.2-1,1.7c0.1,0.2,0.2,0.2,0.4,0.5c0.4-0.6,0.8-1.3,1.2-1.9l1.2,0.7
				c-0.1,0.1-0.2,0.2-0.4,0.6c-0.5,0.8-1.4,1.9-1.8,2.4c0.6,0,0.7,0,1.1-0.1c-0.1-0.3-0.2-0.5-0.3-0.8l1-0.4
				c0.3,0.8,0.6,1.6,0.9,2.4l-1.1,0.4c0-0.2-0.1-0.3-0.1-0.5c-0.5,0.1-0.5,0.1-0.7,0.1v3.5c0,0.4,0,0.8,0.1,1.2h-1.5
				c0.1-0.4,0.1-0.8,0.1-1.2v-3.4c-0.5,0-0.5,0-1.3,0.1c-0.2,0-0.3,0-0.5,0.1L294.3,171.3z M298.9,173c0.2,1,0.4,2,0.5,3l-1.2,0.2
				c-0.1-1-0.2-2-0.3-3L298.9,173z M300.7,169.5c-0.3,0.6-0.7,1.2-1.1,1.7c-0.3-0.4-0.6-0.8-1.1-1.1c0.5-0.6,0.9-1.3,1.2-2.1
				c0.2-0.5,0.4-1,0.5-1.6l1.5,0.3c-0.1,0.2-0.1,0.3-0.2,0.5s-0.2,0.6-0.3,0.8h2.4c0.3,0,0.6,0,0.9,0c-0.1,0.7-0.1,1.4-0.1,2.1
				c0,1.4-0.1,3.4-0.2,4.3c-0.2,1.4-0.4,2-0.8,2.3c-0.5,0.3-1,0.4-1.6,0.3c-0.3,0-0.6,0-1,0c0-0.5-0.2-1-0.4-1.5
				c0.5,0.1,1,0.1,1.5,0.1s0.6-0.1,0.8-0.8c0.2-1.8,0.3-3.5,0.3-5.3H300.7z M301,174.3c-0.3-1-0.7-2-1.2-3l1.3-0.6
				c0.5,0.9,1,1.9,1.3,2.9L301,174.3z"/>
			<path d="M307.2,173c-0.4,0-0.8,0-1.3,0.1v-1.4c0.4,0,0.8,0.1,1.3,0.1h7.6c0.4,0,0.8,0,1.2-0.1v1.4c-0.4,0-0.8-0.1-1.2-0.1h-2v2.3
				c0,0.3,0.1,0.3,1,0.3c0.7,0,1-0.1,1-0.3c0.1-0.3,0.1-0.6,0.1-1v-0.2c0.4,0.2,0.9,0.3,1.4,0.4c0,1.2-0.2,1.8-0.6,2.1
				c-0.3,0.3-0.8,0.3-2.3,0.3c-1.8,0-2.1-0.2-2.1-1v-3h-1.1c0,0.4,0,0.4-0.1,0.5c-0.1,1.2-0.8,2.2-1.8,2.9c-0.6,0.4-1.3,0.7-1.9,0.9
				c-0.2-0.5-0.4-1-0.8-1.4c0.6-0.1,1.1-0.3,1.6-0.6c0.8-0.4,1.4-1.2,1.5-2.1c0-0.1,0-0.1,0-0.3L307.2,173z M310.1,167.3
				c0-0.3,0-0.5-0.1-0.8h1.7c0,0.3-0.1,0.5-0.1,0.8v0.2h3.1c0.6,0,0.9,0,1.3,0c0,0.3-0.1,0.6,0,0.9v1c0,0.3,0,0.6,0.1,0.9h-1.5v-1.5
				h-7.2v1.5h-1.5c0-0.3,0.1-0.6,0.1-0.9v-1c0-0.3,0-0.6,0-0.9c0.4,0,0.7,0,1.3,0h2.9L310.1,167.3z M307.6,169.5
				c0.4,0,0.8,0.1,1.1,0h4.4c0.4,0,0.8,0,1.1,0v1.4c-0.4,0-0.8-0.1-1.1,0h-4.4c-0.4,0-0.8,0-1.1,0V169.5z"/>
			<path d="M319.4,168.5c-0.7,0-1.1,0-1.6,0.1V167c0.5,0.1,1.1,0.1,1.6,0.1h5.8c0.4,0,0.9,0,1.3-0.1l0.9,1.1
				c-0.2,0.2-0.3,0.3-0.5,0.5c-0.5,0.5-1.1,1.1-1.7,1.5c-0.6,0.5-1.3,1-1.9,1.4v4.4c0,0.9-0.5,1.2-1.9,1.2c-0.4,0-0.7,0-1.6-0.1
				c-0.1-0.5-0.2-1.1-0.4-1.6c0.6,0.1,1.2,0.1,1.8,0.1c0.4,0,0.5-0.1,0.5-0.3v-4.1c0-0.4,0-0.8-0.1-1.2h1.2c0.7-0.4,1.4-0.9,2-1.5
				L319.4,168.5z"/>
			<path d="M330.4,173.7c0-0.3,0-0.4,0-0.5s0-0.1,0-0.8l-0.2-3.8c0-0.5-0.1-1.1-0.1-1.5h2.2c0,0.3-0.1,0.9-0.1,1.5l-0.2,3.8
				c0,0.7,0,0.7,0,0.8s0,0.2,0,0.5H330.4z M330.3,176.5v-1.9h2v1.9H330.3z"/>
			<path class="st3" d="M28.6,124.5l-7.1-3.2c1.8-1.4,3.5-3.1,5-4.9c1.7-2,3.2-4.1,4.6-6.3l7.6,2C36,116.8,32.6,121,28.6,124.5z
				 M39.9,88.9l0.8-2.4c-1.3,1-2.3,1.6-3,2c-1.5-2-3.2-3.9-5.1-5.4c3.1-1.6,5.9-3.6,8.6-5.8c2.7-2.2,5.1-4.7,7.3-7.4l7.5,2.4
				c-1.1,1.4-2.1,2.5-2.9,3.4h33.6L84.3,83h-5.1l-1.9,5.9h7.2l-2.3,7.5H75l-1.8,5.9h6.3l-2.3,7.4H26.8l2.3-7.4h6.6l1.8-5.9H30
				l2.3-7.5H39.9z M40.9,112.5l8-0.9c-0.3,3.8-1,7.5-1.9,11.1l-8.6,1.2C39.5,120.1,40.4,116.3,40.9,112.5z M44.9,96.4l-1.8,5.9H46
				l1.8-5.9H44.9z M49.1,83l-1.9,5.9h2.9L52,83H49.1z M52.1,112.7l8.3-1.3c0.4,3.6,0.3,7.3-0.2,10.9l-8.9,1.6
				C52,120.2,52.2,116.5,52.1,112.7z M57.6,96.4h-2.9l-1.8,5.9h2.9L57.6,96.4z M57,88.9h2.9l1.9-5.9h-2.9L57,88.9z M65.6,102.3
				l1.8-5.9h-3l-1.8,5.9H65.6z M63.4,112.4l8.8-2.5c1.5,3.8,2.7,7.7,3.4,11.7l-9.5,2.8C66.1,121.7,65.1,117.7,63.4,112.4L63.4,112.4
				z M69.8,88.9l1.9-5.9h-3l-1.9,5.9H69.8z"/>
			<path class="st3" d="M113.2,71.1h9.6c-0.4,1-0.8,2.3-1.4,3.8c-0.4,1.5-0.7,2.9-1,4.4s-0.6,3.4-0.8,5.7c-0.2,2.2-0.3,4.5-0.3,6.7
				c0,2.3,0.3,4.7,0.8,7c0.5,2.4,1.2,4.7,2.2,6.9c1.1,2.2,2.5,4.3,4.2,6.2c1.8,2,4,3.8,6.4,5.1c-3.2,1.9-6.2,4.3-8.7,7.1
				c-8.8-5.3-13.3-14.3-13.7-26.9c-7.2,11.3-17.1,20.6-28.8,27c-1.1-2.6-2.8-5-5-6.7c2.6-1.3,5.1-2.8,7.5-4.4
				c2.2-1.5,4.4-3.1,6.4-4.8c1.9-1.6,3.7-3.4,5.4-5.3c1.7-1.9,3.2-3.7,4.4-5.4c1.3-1.8,2.5-3.6,3.6-5.5c1.2-2,2.2-3.7,2.9-5.2
				c0.7-1.4,1.5-3.1,2.2-5c0.8-1.9,1.3-3.3,1.7-4.3c0.4-1,0.8-2.3,1.3-3.7C112.8,72.3,113.1,71.4,113.2,71.1z"/>
			<path d="M161.6,93l-1.7,5.4c-2.3,0.2-4.6,0.8-6.6,1.9c-1.9,0.9-3.7,2.1-5.4,3.5c-1.3,1.1-2.5,2.3-3.4,3.8
				c-0.9,1.6-1.3,2.9-1.1,3.8c0.1,0.9,0.7,1.6,1.4,2.1c0.7,0.4,1.4,0.7,2.2,0.7c0.9,0,1.8,0,2.7,0s1.7-0.1,2.4-0.2s1.1-0.1,1.1-0.1
				l-1.8,5.7c-1.2,0.2-2.3,0.2-3.5,0.3c-1,0-2,0-3-0.1c-1.1-0.1-2.2-0.3-3.2-0.7c-1.1-0.4-2.2-1-3-1.9c-0.8-1-1.3-2.2-1.4-3.5
				c0-1.9,0.4-3.7,1.2-5.4c0.7-1.5,1.6-2.8,2.6-4.1c0.9-1.1,2-2.1,3.1-3.1c1-0.8,1.9-1.5,2.6-1.9c0.3-0.3,0.7-0.5,1.1-0.7h-11.2
				l1.7-5.4L161.6,93z M151.3,105.8l1.6-5.1h2.4l-1.6,5.1H151.3z M155.1,105.8l1.6-5.1h2.4l-1.6,5.1H155.1z"/>
			<path d="M194.1,87.3h16.5c-0.5,1.4-0.8,2.3-1,2.8c-3.6,10.2-6.2,17.4-8,21.7c-1.8,4.3-3.3,7-4.4,8.1c-0.7,0.7-1.4,1.3-2.2,1.8
				c-0.7,0.4-1.5,0.7-2.3,0.8c-1.7,0.3-3.5,0.4-5.2,0.3c0.6-2.1,0.6-4.3,0.2-6.4c1.2,0.1,2.4,0.2,3.6,0.2c0.7-0.1,1.4-0.4,1.9-0.9
				c1.3-1.3,3.9-7.2,7.6-17.6c-6.4,11.2-13.1,19.2-20.2,23.9c-1-1.6-2.4-2.9-4.1-3.8c4.4-2.7,8.4-6.1,11.6-10.2
				c3.8-4.6,7.1-9.5,9.8-14.8h-1.2c-2.2,3.9-4.7,7.6-7.5,11.1c-2.4,3.1-5.2,5.9-8.4,8.3c-1-1.5-2.3-2.7-3.9-3.6
				c5-3.2,9.8-8.4,14.4-15.7H190c-2,2.8-4.3,5.4-6.9,7.8c-1.1-1.4-2.3-2.6-3.8-3.6c0.8-0.7,1.6-1.4,2.4-2.2h-2.5l-1.9,6.2l3.9-1
				l-1,5.7l-2.3,0.6c-1.1,0.3-1.9,0.5-2.6,0.7l-4.9,15.7h-6l4.4-14c-3.7,1-6,1.6-6.9,1.8l0.5-6.3c1.1-0.2,3.9-0.8,8.4-1.9l2.4-7.8
				h-2.4c-0.9,1.8-2,3.5-3.1,5.2c-1.1-1.1-2.3-2.1-3.6-3c2.1-3,4.3-7.8,6.7-14.3l5.1,0.9c-0.7,1.7-1.4,3.3-2.1,5h1.3l2.6-8.4h6
				l-2.6,8.4h3.2l-1.6,5c3.5-4.1,6.5-8.6,8.8-13.4l5.5,1.1C196.3,83.6,195.3,85.4,194.1,87.3z"/>
			<path d="M225.9,80.8l5.6,1.9c-2.3,3.3-4.7,6.5-7.4,9.5l-9.7,31h-6.2l6.7-21.5c-0.7,0.7-1.6,1.4-2.6,2.2c-0.1-1.2-0.2-2.3-0.4-3.5
				s-0.5-2.3-0.8-3.4c2.8-2.2,5.4-4.6,7.8-7.3C221.4,87,223.8,84,225.9,80.8z M252.8,102l-2,6.4h-11.2l-4.6,14.9h-6.6l4.6-14.9
				h-11.7l2-6.4H235l2.1-6.6h-4.6c-1.3,1.8-2.7,3.6-4.2,5.3c-1.4-1.3-3-2.3-4.7-3.1c3.3-3.4,6.6-8.2,9.7-14.4l5.9,1.3
				c-0.8,1.6-1.7,3.1-2.5,4.5h2.4l2.4-7.9h6.6l-2.4,7.9h8.9l-2,6.4h-8.9l-2.1,6.6C241.6,102,252.8,102,252.8,102z"/>
			<path d="M281.8,116.8h3.6c0.7,0,1.4-0.4,1.7-1c0.8-1.6,1.5-3.2,2-4.8c0.9,1.1,2.6,1.9,5.2,2.6c-1.5,3.7-2.9,6.2-4.3,7.5
				c-1.6,1.4-3.7,2.1-5.8,2H279c-2.9,0-4.7-0.6-5.4-1.7c-0.7-1.1-0.5-3.2,0.4-6.2l1.9-6.1h-4.3c-0.7,1.7-1.6,3.4-2.6,5
				c-1,1.5-2.2,2.8-3.6,4c-1.6,1.4-3.5,2.5-5.5,3.3c-2.5,1-5.2,1.8-7.9,2.3c-0.1-1-0.3-2-0.6-3s-0.7-1.9-1.3-2.8
				c2.6-0.4,5.2-1.1,7.7-2.1c1.6-0.6,3-1.6,4.3-2.7c1-1.2,1.9-2.5,2.5-3.9h-5.2l8.4-27.1h30.1l-8.4,27.1h-7l-1.9,6.1
				c-0.2,0.8-0.3,1.3-0.2,1.5S281,116.8,281.8,116.8z M267.9,101.6l-0.5,1.8h17.2l0.5-1.8H267.9z M270.1,94.6l-0.5,1.8h17.2l0.5-1.8
				H270.1z M272.3,87.6l-0.5,1.8H289l0.5-1.8H272.3z"/>
			<path d="M342.1,106.1l-1.9,6h-16.9l-1.4,4.5c-0.4,1.4-1,2.6-1.9,3.8c-0.8,0.9-1.9,1.6-3.1,2c-1.9,0.6-5.1,1-9.4,1
				c0.2-2.1,0-4.3-0.6-6.3c1.6,0.1,4,0.1,6.9,0.1c0.3,0,0.7,0,1-0.2c0.2-0.1,0.4-0.4,0.4-0.6l1.3-4.3h-16.8l1.9-6h16.8l0.8-2.7h2.9
				c1-0.6,1.9-1.1,2.7-1.7h-13.6l1.8-5.6h19.3l1.5-0.3l3.1,3.1c-3.2,2.7-6.7,5.1-10.3,7.2H342.1z M312.1,93.3l-1.8,5.8h-6.1
				l3.6-11.5h5.7c-0.3-1.4-0.8-2.8-1.4-4.1l6.3-2.5c1.1,1.7,1.9,3.7,2.2,5.7l-2,0.8h5.9c-0.1-1.7-0.4-3.4-1-5.1l6.5-2.1
				c0.9,2,1.4,4.1,1.5,6.3l-2.7,0.9h6.2c2-2,3.8-4.3,5.5-6.6l6.5,2c-2,2-3.6,3.5-4.8,4.6h5.4L344,99.1h-6.4l1.8-5.8L312.1,93.3z"/>
			<g>
				<g>
					<defs>
						<polygon id="SVGID_00000153677813834037059470000010886450200682392477_" points="447.5,202.5 323,202.5 327.1,63 447.5,63 
													"/>
					</defs>
					<clipPath id="SVGID_00000047018942012367023290000018349745897767824566_">
						<use xlink:href="#SVGID_00000153677813834037059470000010886450200682392477_"  style="overflow:visible;"/>
					</clipPath>
					<g style="clip-path:url(#SVGID_00000047018942012367023290000018349745897767824566_);">
						<path class="st0" d="M415.2,115.9c0.4-3.7,0.2-7.5-0.4-11.2c-0.8-4.8-1.6-13.5-2-16.2c-0.4-2.7-1-5.4-1.8-8.1
							c-0.9-3.4-2.6-6.2-6-9.4c-3.9-3.6-10.3-4.5-13.5-4.1c-5.2,0.7-7,2.5-7,2.5c-1.3-0.5-2.8-0.4-4.1,0.2c-2.9,1.1-5.3,3.4-6.5,6.3
							c-2,4.1-3,9.9-3.5,12.6s-1.3,11.4-2,16.2c-0.7,3.7-0.8,7.5-0.4,11.2c0,0,5.7,3.5,6.5,4.3s3.1,5.3,3.1,5.3s14.4,4.2,17.5,4.2
							s11.8-3.8,13.7-6.9c1.4-2.1,3.1-3.9,5.1-5.4L415.2,115.9z"/>
						<path class="st5" d="M381,110.5c1.2,3.7,1.5,7.6,0.9,11.5c-0.9,3.7-4.3,6.8-4.3,6.8l2.3,11.9h23.4l2.3-11.9c0,0-3.4-3-4.3-6.8
							c-0.6-3.8-0.3-7.8,0.9-11.5c0,0-4.4-4.8-10.6-4.8S381,110.5,381,110.5z"/>
						<path class="st2" d="M411.6,253.1c0,0-1.6,20.1-2.6,29.3h-34.8c-1-9.3-2.6-29.3-2.6-29.3L411.6,253.1z"/>
						<path class="st6" d="M391.6,255.4c0.2,3.1,0.1,27.1,0.1,27.1"/>
						<path class="st5" d="M371.6,253.1c0,0,1.6,20.1,2.6,29.3"/>
						<path class="st5" d="M411.6,253.1c0,0-1.6,20.1-2.6,29.3"/>
						<path class="st5" d="M403.1,131.4c-3.5,2.1-7.5,3.3-11.5,3.4c-4-0.1-7.8-1.3-11.2-3.4l-4.3,79.2h29.4L403.1,131.4z"/>
						<path class="st5" d="M415.7,265.8c0.5-13.3,3.1-19.9,4.3-35.5c0.7-9.7-1.8-27.2-3.7-34.4c0,0-12.8,4.6-25.5,4.6
							c-8.2-0.1-16.3-1.7-24-4.6c-1.8,7.3-4.4,24.7-3.7,34.4c1.2,15.6,3.7,22.2,4.3,35.5c7.9,2,15.9,3.1,24,3.1
							C399.7,268.8,407.8,267.8,415.7,265.8z"/>
						<path class="st5" d="M416.1,184.4c0,0,4.6,20.4,8.7,42c0,0-7.4,5-10.1,6c-7.7,2.8-12.9-3.3-13.7-10.5c-1.1-9-5.1-45.1-4.4-56
							s5.4-42.4,5.7-43.8s1-1,1.8,0.1c0.9,1.4,3.3,5,3.3,5s7.9,4.9,13.4,7.7l2.6,1.3c3.1,0.9,4.4,5.1,4.9,9.7
							c0.4,4.1,1.9,10.6,1.9,10.6c0.4,2.6,0.9,5.1,1.7,7.6c0.9,2.4,1.1,7.5,1.1,7.5s1.3,3.1,2,4.5c0.4,1.1,0.3,2.3-0.2,3.3
							c0,0-4.5,6.1-9.5,7.5S416.1,184.4,416.1,184.4z"/>
						<path class="st5" d="M365.6,173.7c0.6,4.2,1.3,8.5,1.5,10.7c0,0-5.5,25.6-8.7,42c0,0,6.9,4.7,9.6,5.7
							c7.7,2.8,12.9-1.6,14.1-9.9c1.3-9,5.2-45.5,4.5-56.4s-5.4-42.4-5.7-43.8s-1-1-1.8,0.1c-0.9,1.4-3.3,5-3.3,5
							c-2.9,1.9-5.9,3.6-8.9,5.2c-2.6,1.3-7.6,3.8-7.6,3.8s-2.8,0-3.7,3.8c-0.5,1.9-2.7,11.5-4,16.9c-1.8,7.3-2.9,8.8-2.9,8.8
							c-1,0.8-1.9,1.8-2.5,2.9c-0.8,1.5-0.6,2.2-0.6,2.2c-2,1.8-3.9,3.7-5.6,5.8c-3.9,5.3-5.2,13.5-2.2,18.6
							c2.6,4.4,9.3,5.4,13.8,2.4c1.8-1.2,5.4-4.6,7.3-6.2c1.3-1.1,2.5-2.4,3.5-3.8c1.9-5.6,0.4-8.7,0.4-8.7s0.4-1.3-0.7-3.6
							L365.6,173.7z"/>
						<path class="st5" d="M375.8,127.1c0,0-3.3,7-4,7.7l7.4,2.8l-7.2,1.6c0,0,6.7,16.1,14.8,33.6"/>
						<path class="st6" d="M365.6,173.7c-0.8-5.4-1.7-10.6-1.7-10.6s-0.8-10.2-1.4-17"/>
						<path class="st5" d="M381.5,162.9c1.4-1.1,3.3-1.5,5.1-1.2c1.9,0.4,2.7,1.9,0.5,2.9c-2.5,1.1-4.8,2.5-6.8,4.4
							c0,0-2.9,3.1-4.8,4.9s-9.1,4.1-9.1,4.1l-9.3,8.8c0,0-4.1-1-5.8-3.4s-0.3-7.7,2-9.3l8.4-3.5l1.8-7.2c0.4-1.1,1-2.1,1.7-3
							c1.6-1.9,3.4-3.6,5.3-5.2c1.4-1,4.4-1.4,4.4-1.4c2.1-0.4,4.2-0.9,6.3-1.6c2.5-0.9,7.6-3.4,9-4c1.6-0.7,1.6,2.1,0.5,3.1
							c-2.1,1.9-12,6-12,6c1.2,0.8,2.1,1.8,2.9,3c0.7,1.2,0.6,2-1.2,4.4c-0.6,0.8-1.5,1.3-2.4,1.6"/>
						<path class="st5" d="M373.4,158.1c0,0,3.3,2.1,4.2,2.9s2,2.4,1.5,3.7s-2.1,4.1-2.1,4.1c-0.8,0.6-1.7,1-2.6,1.2"/>
						<path class="st5" d="M378.7,157.2c0,0-1.5-1-2.2-1.5"/>
						<path class="st5" d="M369.2,168.3c-0.3,0.8-0.1,1.6,0.5,2.3c0.8,0.8,2,0.9,3,0.4c1.1-0.5,2-1.3,2.7-2.2c1.5-2.8,0.2-4-0.7-4.8
							s-3.9-2.6-3.9-2.6"/>
						<path class="st5" d="M370.4,167.3c-0.1,0.5,0,1,0.3,1.5"/>
						<path class="st5" d="M372.9,167c-0.9,0.4-2,0.5-3,0c-0.6-0.3-1.2-0.8-1.5-1.4"/>
						<path class="st5" d="M370.4,167.3c0,0.1-1.1,1.5-4,1.4"/>
						<path class="st5" d="M356.6,172.7c-1.4-0.7-2.9-1-4.5-1.1c0,0-3.5,1.7-8.4,4.3"/>
						<path class="st6" d="M421.8,183.4c0,0,3.5-2.3,9.9-1.4"/>
						<path class="st5" d="M407.7,92.4c0,0,2.1-0.5,2.7,2.7s-1.3,6.8-1.9,7.8s-1.6,1.6-2.7,1.8c-0.6,2-1.5,4-2.7,5.8
							c-1.4,2.3-4.7,4.6-6.5,5.8c0,0-2.7,2-5,2c-2.2,0-5-2-5-2c-1.8-1.3-5.5-4.2-6.5-5.8c-1.1-1.8-2-3.8-2.7-5.8
							c-1.1-0.2-2.1-0.9-2.7-1.8c-0.6-1-2.6-4.6-1.9-7.8s2.7-2.7,2.7-2.7s-0.4-10.3,1.2-12.8s14.4-6,14.4-6s14,3.2,15.4,6.1
							S407.7,92.4,407.7,92.4z"/>
						<path class="st3" d="M385.8,96c-0.2,0.7-0.9,1.2-1.6,1s-1.2-0.9-1-1.6c0.1-0.6,0.7-1.1,1.3-1.1
							C385.3,94.4,385.9,95.2,385.8,96z"/>
						<path class="st3" d="M391.4,110.3c-1.5,0-2.9-0.4-4-1.3c-0.3-0.2-0.3-0.6-0.1-0.9c0.2-0.3,0.6-0.3,0.9-0.1
							c0.1,0.1,2.8,2.2,6.9-0.1c0.3-0.2,0.7-0.1,0.9,0.2c0.2,0.3,0.1,0.7-0.2,0.9l0,0C394.4,109.8,392.9,110.3,391.4,110.3z"/>
						<path class="st3" d="M391.6,104.7c-0.8,0-1.6-0.2-2.3-0.6c-0.2-0.2-0.4-0.5-0.3-0.7c0,0,1-1.3,1.2-5.4c0-0.4,0.3-0.7,0.6-0.7
							c0.3-0.1,0.6,0.2,0.7,0.5v0.1c-0.4,4-0.8,4.5-1.1,5.3c0.8,0.3,1.6,0.3,2.4,0c0.3-0.2,0.7-0.2,0.9,0.1c0.2,0.3,0.2,0.7-0.1,0.9
							l0,0C393,104.6,392.3,104.7,391.6,104.7z"/>
						<path class="st3" d="M387.5,93.1c-0.1,0-0.2,0-0.3-0.1c-3.2-1.9-5.5-0.6-5.6-0.5c-0.4,0.2-0.8,0.1-1.1-0.2
							c-0.2-0.4-0.1-0.8,0.2-1.1c0.1-0.1,3.1-2,7.2,0.5c0.4,0.2,0.5,0.7,0.3,1.1C388.1,93,387.8,93.1,387.5,93.1L387.5,93.1z"/>
						<path class="st3" d="M397.3,96c0.2,0.7,0.9,1.2,1.6,1s1.2-0.9,1-1.6c-0.1-0.6-0.7-1.1-1.3-1.1C397.8,94.4,397.3,95.2,397.3,96
							z"/>
						<path class="st7" d="M395.8,92.9c0.1,0,0.2,0,0.3-0.1c3.4-1.5,5.1-0.2,5.2-0.1c0.3,0.3,0.8,0.2,1.1-0.1
							c0.3-0.3,0.2-0.8-0.1-1.1c-0.1-0.1-2.5-2.1-6.9-0.1c-0.4,0.2-0.6,0.6-0.4,1C395.2,92.7,395.5,92.9,395.8,92.9L395.8,92.9z"/>
						<path class="st6" d="M408.8,92.5c-0.8,2.4-2,5.7-2,5.7s-1,2-1.1-0.4c0-1.3-0.1-2.5-0.3-3.7"/>
						<path class="st6" d="M416,177c0,0,3.8,4,4.4,8.4c0.6,3.9-2.2,8.5-3.2,9.6"/>
						<path class="st6" d="M360,187.4c0,0-5.5,0-8.8-4"/>
						<path class="st5" d="M348.7,165.6c0,0,1.8-0.3,7,2.5"/>
						<path class="st5" d="M372.9,189.1c0,0-1.9,8.8-3.2,9.2c-2.4,0.7-6.1-0.6-6.1-0.6l3.1-11.7l3.5,0.6"/>
						<path class="st6" d="M407.3,127.1c0,0,3.3,7,4,7.7l-7.4,2.8l7.2,1.6c0,0-6.7,16.1-14.8,33.6"/>
						<path class="st8" d="M434.4,231.2c0.2-3.1,0.7-6.1,1.5-9.1c0.8-3.1,2.2-9,4.1-12.1c1.4-2.5,3.1-5.1,0.5-8.7
							c-3.3-4.7-6-9.7-8.1-15.1c-2.2-5.5-3.8-3.5-4.2-6.2c-0.4-2.4-5.2-3.4-6.3-1.6s-5.1,3.4-5.1,3.4l2.6,42.1
							C419.3,223.8,432.4,235.9,434.4,231.2z"/>
						<path class="st8" d="M410.1,179.2c0,0,2.4,14.9,2.5,22.6s-0.3,24.6-0.3,28.5s0.6,5.2,4.5,5.7c2.5,0.3,11.7-1.2,15.2-2.1
							c4.3-1.1,1.6-5.3,0.7-8.1s-8.3-24.8-9.6-30.5c-2.3-9.6-4.4-17.6-4.4-17.6s-0.6-2.7-1.9-1.1c-0.4,0.6-0.9,1-1.4,1.4
							c-0.9,0.4-2,0.3-2.9-0.1C410.9,177.3,410,177.4,410.1,179.2z"/>
						<path class="st6" d="M419.3,175.2c0.9-0.6,1.9-1.1,2.9-1.5c1.5-0.5,3-0.5,4.6-0.3"/>
						<path class="st6" d="M420.7,149.2c-0.9,5-1.5,10.1-1.6,15.2c0,0-2.4,15-2.9,20"/>
						<path class="st6" d="M432.9,171.5c0,0-1.7-2.6-6.7-3.8"/>
						<path class="st8" d="M421.3,133.7c-0.4-1.1-1.7-1.7-2.8-1.2l0,0c-1.6,0.4-4.5,4.8-6,11.9c-1.3,5.8,0.4,15,2.1,21.2
							s-0.5,13.3-0.5,13.3l4.7,0.5l-1.5-14c0,0-0.9-17.4,0.3-21.6S422.8,134.5,421.3,133.7z"/>
						<path class="st8" d="M420.1,177.1c-0.2-9-2.5-19.9-1-29.6c0.6-4.1,2-7.9,4.2-11.4c0.6-0.8,0.6-1.1-0.5-1.9
							c-1.5-1.2-2.4-0.9-2.4-0.9c-1.3,1.3-2.2,2.8-2.8,4.5c-1.1,2.8-1.9,5.7-2.2,8.7c-0.6,5.9-0.7,7.5,0.6,15.6
							c1,6.6,0.6,13.8,0.7,14.5L420.1,177.1z"/>
						<path class="st2" d="M434.8,179.8c0,0-1.6-2.8-3.1-3.1c-2.2-0.4-5.7-0.5-8.2-0.8c-2-0.3-7.2-0.6-8.7-1.3s-4.2,2.5-4.2,2.5
							s-2,6.2-1.7,9s1.8,7,6.3,10.9c0,0,2.3,0,8.2,2.8c4.3,2.1,8.8-1.3,10.8-4c3-4,2.8-9.7,1.7-13.4L434.8,179.8z"/>
						<path class="st6" d="M432.9,181.8c0,0-4.3-5.4-8.4-6c-2-0.3-8.1-0.6-9.6-1.3s-4.2,2.5-4.2,2.5s-2,6.2-1.7,9s1.8,7,6.3,10.9
							c0,0,2.3,0,8.2,2.8c4.3,2.1,8.4-1.7,10.8-4c3.7-3.5,2.9-11.6,0.6-16.5"/>
						<path class="st8" d="M398,186.8c1.8,0,2.4-0.7,2.4-2.3v-28.8c0-1.8-1-2.7-2.4-2.7h-14c-1.4,0-2.4,0.9-2.4,2.7v28.8
							c0,1.6,0.7,2.3,2.4,2.3H398z"/>
						<path class="st5" d="M402.6,163c-1-0.6-2.2-0.3-2.9,0.6c0,0,0,0,0,0.1c-1.1,1.8-0.9,5.6-1,7.6c0,0-0.7,2.2-4.2,1.5
							c0,0-2.3-0.6-3.8-1.2c-1.4-0.8-2.7-1.7-3.9-2.8c0,0-3.4-3.9-5.2-4.8c-1.6-0.8-2.4,0.4-2.1,1.5c0.1,0.4,0.3,0.9,0.5,1.3
							c-0.3,1.4-0.2,2.8,0.3,4.2c0,0-1.9,1.3-0.3,3.9c0.2,1.2,0.6,2.3,1.1,3.4c1.6,2.7,3.7,5.1,6.3,6.9c1.6,1,9,2.1,16.1,2.4
							c0,0,10.3,4.3,14.6,6c0,0,6.5-8.3-2.1-16.7c0,0-6.4,0.7-7.4,0.7c-1.5,0-2.4-1.8-2.4-1.8c-0.7-2-1.5-3.8-2.5-5.7
							C402.6,167.9,402.3,165.4,402.6,163z"/>
						<polyline class="st5" points="380,166.8 383.4,171.7 387.7,175.9 						"/>
						<path class="st5" d="M380.2,171c0.8,1.3,1.6,2.5,2.7,3.6l4.4,4.7"/>
						<path class="st5" d="M379.9,174.9c0,0,1.7,2.1,3.2,3.8c1,1.1,3.3,3,3.3,3"/>
						<path class="st6" d="M381.6,121.1c0,0-2.3-1.3-2.9-6.7"/>
						<path class="st0" d="M372.7,91.2c0.3,0.9,0.9,1.7,1.8,2.2c0.4,1.4,1.6,4.6,1.6,4.6s0.8,2,0.8-0.4c0-1.7-0.1-1.1,0-3.6
							c0,0,0-6,0.3-7.6c0.3-1.7,0.9-3.3,1.9-4.7c0.4-0.6,0.9-1.1,1.5-1.6l-0.8-0.7l2.9-1.8c0.4,3.8,2.2,7.4,5,10.1
							c2.8,2.4,6.1,4.2,9.7,5.2l-1.9-3.1c0,0,3.1,1.5,6,2.8c0,0,4,1.5,6.4,8.4c1.1,3.4,1.7,7,1.7,10.6c0,0,1.3,1.7,1.7,0
							c1.3-4.4,1.7-8.9,1.4-13.5c-0.3-6.3-2.4-16.2-4-19.5c-3.8-7.5-15.9-10.9-26.8-7.3S372.7,91.2,372.7,91.2z"/>
						<path class="st6" d="M372.9,91.2c0.3,0.9,0.9,1.7,1.8,2.2c0.4,1.4,1.6,4.6,1.6,4.6s0.8,2,0.8-0.4c0-1.7-0.1-1.1,0-3.6
							c0,0,0-6,0.3-7.6c0.3-1.7,0.9-3.3,1.9-4.7c0.7-0.9,1.6-2.2,1.6-2.2l-0.9-0.1l2.9-1.8c0.4,3.8,2.2,7.4,5,10.1
							c2.8,2.4,6.1,4.2,9.7,5.2l-1.9-3.1c0,0,3.1,1.5,6,2.8c0,0,4,1.5,6.4,8.4c1.1,3.4,1.7,7,1.7,10.6"/>
						<path class="st6" d="M410.1,103.8c-1.9-13.5-6.8-15.3-10.6-17.3c-5.6-2.9-7.7-4.7-9.4-7.9"/>
						<path class="st6" d="M372.9,98.6c-0.9,3.7-1.2,7.4-1.1,11.2"/>
						<path class="st0" d="M375,114.2c0.1,4.9,3.1,12.1,3.1,12.1c-5.8-4-6.2-5.9-6.2-5.9l0.4,5.2c-2.4-2.7-3.9-6.1-4.3-9.7
							c0,0,2.3-4.3,3.8-4.3S375,114.2,375,114.2z"/>
						<path class="st0" d="M415.2,115.9c-0.4,3.6-1.9,7-4.3,9.7l0.5-3.8c-1.7,2-3.9,3.6-6.3,4.5c1.1-3.8,1.4-7.8,1-11.8
							c1.5-0.4,3-0.5,4.5-0.3C412.2,114.6,413.7,115.2,415.2,115.9z"/>
						<path class="st6" d="M406.6,108.3c2.2,10.7-1.5,18-1.5,18c2.5-0.9,4.7-2.5,6.3-4.5l-0.5,3.8c5.1-5.7,5-13.3,3.8-20.9
							c-0.8-4.8-1.6-13.5-2-16.2c-0.4-2.7-1-5.4-1.8-8.1c-0.9-3.4-2.6-6.2-6-9.4c-3.9-3.6-10.3-4.5-13.5-4.1c-5.2,0.7-7,2.5-7,2.5
							c-1.3-0.5-2.8-0.4-4.1,0.2c-2.9,1.1-5.3,3.4-6.5,6.3c-2,4.1-3,9.9-3.5,12.6s-1.3,11.4-2,16.2c-1.2,7.7-1.3,15.2,3.8,20.9
							l-0.4-5.2c0,0,0.5,1.8,6.2,5.9c0,0-4.4-8.5-3.5-15.1"/>
					</g>
				</g>
			</g>
			<path class="st3" d="M37.3,37.9c-1,2.7-2.3,5.3-3.8,7.7H29c1.7-2.4,3.1-5,4.3-7.7H37.3z M35.9,24.4H55l-1.7,8
				c-0.8,3.4-1.8,4.2-5.6,4.1H33.2L35.9,24.4z M42.6,37.4l-1.2,5.4h6.3c2.6,0,3-0.1,4.7-1.1l-0.8,3.9c-1.3,0.6-1.7,0.7-5,0.7h-6.2
				c-3-0.1-3.6-0.9-2.9-3.8l1.1-5.1C38.6,37.4,42.6,37.4,42.6,37.4z M41.5,33.4l0.3-1.4h-3.6l-0.3,1.4H41.5z M42.4,28.9l0.3-1.4
				h-3.6l-0.3,1.4H42.4z M46.7,37.9c0.2,1.3,0.3,2,0.5,3.7h-3.8c-0.1-1.2-0.2-2.5-0.5-3.7H46.7z M48.8,33.4l0.3-1.4h-3.4l-0.3,1.4
				H48.8z M49.7,28.9l0.3-1.4h-3.4l-0.3,1.4H49.7z M51.8,37.9c0.4,2.2,0.4,2.4,0.5,3.7h-3.7c-0.3-2.1-0.3-2.4-0.5-3.7H51.8z"/>
			<path class="st3" d="M69.9,25.6l-2.5,11.5c-0.6,3-0.6,3-0.5,3.2s0.4,0.3,0.7,0.3c0.5,0,1.8-0.5,4.7-2l-1.1,5.1
				c-4.2,1.7-5.2,2.1-6.3,2.1c-1,0.1-2-0.4-2.6-1.3c-0.5-0.9-0.5-1.8,0-3.9l3.3-15L69.9,25.6z M77.1,44.9L79,36
				c0.5-2.6,0.6-3.6,0.1-4.1c-0.4-0.3-0.9-0.5-1.3-0.4h-2.4l1-4.5c4.7,0,5.6,0.3,6.8,1.5c1.4,1.7,1.4,2.7,0.4,7.6l-1.9,8.8
				C81.7,44.9,77.1,44.9,77.1,44.9z"/>
			<path class="st3" d="M91,42h4.6l0.6-11.1h-2.1l0.9-4h8.4l0.7-3.1h4.6l-0.7,3.1h8l-0.9,4H113L108.4,42h5l-0.9,4.1H90.1L91,42z
				 M104.1,42l4.4-11.1h-7.8L99.9,42H104.1z"/>
			<path class="st3" d="M125.8,29l9.8-0.1h0.4c4.1,0,5.7,0.5,6.9,2.2c1.1,1.7,1.4,3.8,0.9,5.8c-0.7,2.8-2.4,5.3-4.8,6.9
				c-2.2,1.4-4.9,1.9-9.7,1.9H124l0.8-3.7h5.2c2.3,0.1,4.6-0.3,6.7-1.2c1.4-0.9,2.3-2.3,2.7-3.9c0.3-1.1,0.1-2.3-0.6-3.3
				c-0.4-0.4-0.9-0.7-1.5-0.8c-0.1,0-2.5-0.1-2.7-0.1l-9.7,0.1L125.8,29z"/>
			<path class="st3" d="M159,27.3l0.8-2.8h4.5l-0.9,2.7l3.3-0.1l-0.5,2.1h9.8l-0.9,4.1h-10.3l0.5-2.1h-3.1c-3,8.3-4.8,12.7-5.9,14.7
				h-4.5c2.4-4.7,4.4-9.6,6-14.7l-3.2,0.1l0.9-4.2L159,27.3z M167.2,37c-0.9,0.9-1.5,2-1.9,3.1c-0.3,1.4,0.7,1.9,3.8,1.9
				c0.7,0,2.2-0.1,4.7-0.3l-0.9,4.1c-2.7,0.1-3.9,0.2-5.3,0.2c-3,0-4.7-0.3-5.7-1s-1.4-2.2-1-4c0.4-1.5,1.1-2.8,2.1-4H167.2z"/>
			<path class="st3" d="M184.7,42.1h5.5c4.4,0,4.4,0,5.2-0.1c1.6-0.1,2.2-0.3,2.8-0.8c0.5-0.5,0.8-1,0.9-1.6
				c0.3-1.5-0.8-2.4-2.9-2.4c-1.8,0-3.5,0.5-5,1.4c-0.8,0.5-1.5,1-2.2,1.7h-4l2.2-10.1h4.3l-1.2,5.4c3.6-1.6,5.6-2.2,7.7-2.2
				c4.2,0,6.7,2.5,5.9,6.2c-0.5,2.5-2.2,4.7-4.6,5.8c-1.4,0.7-3,1-4.6,0.9c-1.1,0-1.9,0-5.5,0h-5.6L184.7,42.1z M203.2,29.1
				c-5.9-0.4-9.1-0.5-13-0.5h-2.7l0.8-3.8c8.7,0.1,9.2,0.1,15.7,0.5L203.2,29.1z"/>
			<path class="st3" d="M222.7,24.4h18l-0.8,3.9h-6.8l-3.6,16.5H225l3.6-16.5h-6.8L222.7,24.4z"/>
			<path class="st3" d="M246.4,44.8c-2.6,0-3.7-1-3.5-3.1l0.8-3.7c0.3-1.4,1.3-2.5,2.6-3c0.8-0.3,1.6-0.4,2.4-0.3h6.5
				c0.2-1.6,0.2-1.7-1.7-1.7H245l0.8-3.7h9.4c4.2,0,5.3,1.2,4.3,5.4l-2.2,10.2L246.4,44.8z M254.7,38.1h-5.3c-1.3,0-1.6,0.2-1.8,1
				l-0.2,1.1c-0.2,0.7,0.1,0.9,1.4,0.9h5.3L254.7,38.1z"/>
			<path class="st3" d="M268,29.2h10.7c3.9-0.1,4.8,0.9,4,4.4l-1.2,5.7c-0.7,3.5-2,4.5-5.9,4.4h-6.5l-0.9,4.1H264L268,29.2z
				 M269.9,40h4.8c2.1,0,2.3-0.2,2.7-2.3l0.5-2.4c0.4-2.2,0.3-2.3-1.7-2.3h-4.8L269.9,40z"/>
			<path class="st3" d="M300.8,24.4h18l-0.8,3.9h-6.8l-3.6,16.5h-4.5l3.6-16.5h-6.8L300.8,24.4z"/>
			<path class="st3" d="M337,29.2c1.3-0.1,2.6,0.4,3.6,1.2c0.8,0.9,0.8,1.6,0.3,4.2l-1.3,5.8c-0.6,2.9-2.6,4.4-5.9,4.4H327
				c-3.1-0.1-4.2-1.5-3.6-4.7l1.2-5.5c0.9-4,2.5-5.4,6.1-5.5L337,29.2z M336.4,35.1c0.4-1.6,0-2.1-1.8-2.2h-3
				c-1.9,0-2.4,0.4-2.8,2.2l-0.9,4c-0.2,1.6,0,1.9,1.6,2h3.4c1.7,0,2.1-0.3,2.6-1.9L336.4,35.1z"/>
			<path class="st3" d="M379.1,28.3h-10.3c-3.4,0-4,0.4-4.7,3.5l-1.4,6.5c-0.5,2.3-0.2,2.6,2.1,2.7h4.4c2.3,0,2.7-0.2,3-1.7l0.6-2.8
				h-5l0.9-3.9h9.5l-1.3,6c-0.7,3-1.1,4-2.2,4.9c-1.4,1-3.1,1.6-4.8,1.5h-7.6c-2.1,0-3.3-0.5-4.1-1.7c-0.6-1-0.7-1.7-0.2-4l1.9-8.8
				c0.6-2.5,1.3-3.7,2.8-4.7c1.4-0.9,3-1.3,4.7-1.2H380L379.1,28.3z"/>
			<path class="st3" d="M398.6,29.2c1.3-0.1,2.6,0.4,3.6,1.2c0.8,0.9,0.8,1.6,0.3,4.2l-1.3,5.8c-0.6,2.9-2.6,4.4-5.9,4.4h-6.7
				c-3.1-0.1-4.2-1.5-3.6-4.7l1.2-5.5c0.9-4,2.5-5.4,6.1-5.5L398.6,29.2z M398,35.1c0.4-1.6,0-2.1-1.8-2.2h-3
				c-1.9,0-2.4,0.4-2.8,2.2l-0.9,4c-0.2,1.6,0,1.9,1.6,2h3.4c1.7,0,2.1-0.3,2.6-1.9L398,35.1z"/>
			<path class="st3" d="M417.2,40.6l-0.9,4.3h-4.4l0.9-4.3H417.2z M421.4,24.4L417,39.6h-3.5l2.3-15.2
				C415.8,24.4,421.4,24.4,421.4,24.4z"/>
			<line class="st9" x1="23.1" y1="54.2" x2="426.9" y2="54.2"/>
			<polygon class="st3" points="277.1,186 25.3,186 25.3,143.5 226.8,143.5 226.8,136.3 			"/>
			<path class="st2" d="M37.2,161.8v-2.6h9.4c-0.2,1.2-0.6,2.4-1.1,3.5c-0.4,1-1,2-1.6,2.9c0.5,0.6,1,1.2,1.5,1.8
				c0.4,0.4,0.8,0.9,1.3,1.2c0.4,0.3,0.5,0.4,0.5,0.4v3.1c-0.6-0.4-1.1-0.8-1.6-1.2c-0.5-0.5-1.1-0.9-1.5-1.5
				c-0.6-0.6-1.1-1.2-1.6-1.9c-0.6,0.8-1.3,1.5-2,2.1c-0.6,0.5-1.2,1-1.9,1.5c-0.5,0.3-0.9,0.6-1.4,0.8c-0.4,0.2-0.5,0.3-0.6,0.3
				v-2.9c0.9-0.5,1.8-1.1,2.6-1.8s1.5-1.5,2.1-2.4c0.8-1,1.4-2.2,1.8-3.4L37.2,161.8L37.2,161.8z"/>
			<path class="st2" d="M48.8,161.9v-2.7h10.7v2.7c-0.2,1.1-0.5,2.2-1.1,3.2c-0.5,0.9-1.1,1.7-1.8,2.4c-0.6,0.6-1.2,1.1-1.6,1.5
				l1.7,2.8h-3l-4.7-7.7h3l1.7,2.7c0.4-0.3,0.8-0.7,1.2-1.1c0.5-0.5,0.9-1.1,1.2-1.8c0.3-0.6,0.6-1.3,0.7-2.1L48.8,161.9z"/>
			<path class="st2" d="M65.7,172.1v-9.2h-4.2v-2.6h4.2v-1.9h2.4v1.9h4.2v2.6h-4.2v9.2H65.7z M64.6,163.9c0,1.8-0.1,3.4-0.2,4.6
				c-0.1,1.2-0.3,2.4-0.5,3.6h-2.3c0,0,0.1-0.4,0.2-1.1c0.1-0.7,0.2-1.7,0.4-2.9c0.2-1.4,0.2-2.8,0.2-4.3L64.6,163.9z M69.2,163.9
				h2.2c0,1.6,0.1,3,0.2,4.3c0.1,1.2,0.2,2.2,0.4,2.9c0.1,0.7,0.2,1.1,0.2,1.1h-2.3c-0.2-1.2-0.4-2.4-0.5-3.6
				C69.3,167.3,69.2,165.7,69.2,163.9L69.2,163.9z"/>
			<path class="st2" d="M84.8,159.3v2.5c-1,0.1-1.9,0.4-2.8,0.9c-0.7,0.4-1.4,1-2,1.6c-0.5,0.5-0.8,1.1-1,1.7
				c-0.2,0.6-0.2,1.2,0,1.8c0.2,0.4,0.5,0.8,1,1c0.4,0.2,0.7,0.3,1.1,0.3s0.8,0,1.3,0c0.4,0,0.8-0.1,1.1-0.1c0.3,0,0.5-0.1,0.5-0.1
				v2.6c-0.5,0.1-1.1,0.1-1.6,0.1s-0.9,0-1.4,0s-1.1-0.1-1.6-0.3c-0.6-0.2-1.2-0.5-1.7-0.9s-0.9-1-1.1-1.6c-0.3-0.8-0.4-1.7-0.2-2.5
				c0.1-0.7,0.3-1.3,0.6-1.9c0.3-0.5,0.6-1,1-1.4c0.3-0.3,0.6-0.6,0.9-0.9c0.1-0.1,0.3-0.2,0.4-0.3h-5.2v-2.5L84.8,159.3z
				 M81.9,165.2v-2.4H83v2.4H81.9z M83.6,165.2v-2.4h1.1v2.4H83.6z"/>
			<path class="st2" d="M101.8,158.2v1.8h-2.3c0.2,0.3,0.4,0.6,0.6,0.9l-2.1,0.6h3.2v9.1c0,0.4,0,0.9-0.2,1.3
				c-0.1,0.3-0.4,0.6-0.7,0.7c-0.9,0.3-1.9,0.4-2.8,0.4c-0.1-0.5-0.2-1-0.4-1.5h-4v0.6h-2.2v-5.4h6.4v4.2h1.2c0.2,0,0.3-0.1,0.3-0.3
				v-4.5h-4.3v-4.6h3.3c-0.2-0.5-0.5-1-0.9-1.5h-0.7c-0.4,0.5-0.7,0.9-1.2,1.3c-0.7-0.5-1.4-0.8-2.2-1.1l0.1-0.1
				c0.1,0,0.1-0.1,0.1-0.1h-1.6c0.2,0.3,0.3,0.6,0.5,0.9l-2.1,0.6c-0.2-0.5-0.4-1-0.7-1.4c-0.4,0.5-0.8,1-1.3,1.4
				c-0.6-0.5-1.3-0.9-2-1.3c1.1-0.9,2-2,2.5-3.3l2.3,0.6c-0.2,0.4-0.3,0.7-0.3,0.7h3.3v1.3c0.7-0.7,1.3-1.6,1.7-2.6l2.3,0.6
				c-0.1,0.3-0.2,0.5-0.3,0.7L101.8,158.2z M93.8,161.5v4.6h-4.3v6.8h-2.2v-11.4L93.8,161.5L93.8,161.5z M91.7,162.9h-2.1v0.3h2.1
				V162.9z M89.5,164.8h2.1v-0.4h-2.1V164.8z M95.2,167.9H93v0.5h2.1L95.2,167.9L95.2,167.9z M93,170.1h2.1v-0.5H93V170.1z
				 M98.9,163.2v-0.3h-2.1v0.3H98.9z M96.8,164.8h2.1v-0.4h-2.1V164.8z"/>
			<path class="st2" d="M118.5,168.1v2.3H112v2.6h-2.5v-2.6h-6.3v-2.3h6.3v-0.8h-4.9V160h1.3c-0.4-0.7-0.8-1.3-1.3-1.9l2.1-0.9
				c0.7,0.7,1.2,1.5,1.7,2.3l-1.1,0.5h2.6c-0.3-0.8-0.8-1.5-1.2-2.2l2.2-0.8c0.6,0.8,1.1,1.6,1.5,2.5l-1.3,0.5h2.3
				c0.6-0.9,1.1-1.9,1.5-2.9l2.7,0.8c-0.6,0.9-1.1,1.7-1.5,2.1h1v7.3H112v0.8L118.5,168.1z M109.5,162.7v-0.8H107v0.8H109.5z
				 M107,165.3h2.5v-0.8H107V165.3z M114.7,162.7v-0.8H112v0.8H114.7z M114.7,165.3v-0.8H112v0.8H114.7z"/>
			<path class="st2" d="M133.4,163.4l2,0.8c-0.6,1.6-1.5,3.1-2.5,4.5l-2.1-1.2c0.4-0.6,0.7-1.1,1-1.7h-2.9v4.6c0,0.5-0.1,1-0.3,1.4
				s-0.5,0.6-0.9,0.7c-1.1,0.3-2.3,0.4-3.5,0.4c-0.2-0.8-0.5-1.6-0.9-2.3c0.6,0,1.4,0,2.5,0c0.1,0,0.2,0,0.3-0.1
				c0.1-0.1,0.1-0.1,0.1-0.2v-4.5h-6.5v-2.3h6.9c-1-0.4-2-0.7-2.9-1l1.2-1.8c0.2,0.1,1,0.3,2.4,0.8c0.5-0.4,1.1-0.7,1.6-1.2h-7.5
				V158h9.8l0.5-0.1l1.7,1.4c-1.1,1.1-2.3,2.1-3.6,3c0.2,0.1,0.6,0.2,1.2,0.5l-0.5,0.8h2.2L133.4,163.4z"/>
			<path class="st2" d="M146.4,159.8h5.5c0,0.5,0,0.9,0,1.1c-0.1,3.8-0.2,6.4-0.4,7.9c0,1-0.3,2-0.7,3c-0.2,0.3-0.5,0.5-0.8,0.7
				s-0.6,0.3-1,0.3c-0.9,0.1-1.8,0.1-2.6,0.1c0-0.4-0.1-0.8-0.3-1.2c-0.1-0.4-0.3-0.8-0.6-1.2c0.7,0.1,1.5,0.1,2.4,0.1
				c0.3,0,0.5-0.1,0.7-0.3c0.4-0.7,0.6-1.5,0.5-2.2c0.1-1.2,0.2-3.2,0.3-5.9h-4.1c-0.4,0.7-0.8,1.4-1.4,2.1c-0.5-0.4-1-0.8-1.6-1.1
				c0.5,1,0.9,2,1.2,3l-1.8,0.8c-0.1-0.3-0.1-0.6-0.2-0.8h-0.7v1.3l1.5-0.5c0.4,1,0.8,2.1,1.1,3.1l-1.9,0.7
				c-0.2-0.8-0.4-1.6-0.7-2.4v4.6h-2.1v-5.2c-0.1,1.4-0.4,2.7-0.9,4c-0.6-0.4-1.2-0.7-1.8-0.9c0.5-1.2,0.7-2.5,0.8-3.9l2,0.3v-1.1
				l-2.4,0.2l-0.2-2.1h1.3l0.6-0.8c-0.6-0.8-1.2-1.6-1.9-2.2l1.1-1.7l0.3,0.3c0.4-0.9,0.8-1.8,1.1-2.8l2.1,0.7
				c-0.9,1.7-1.5,2.8-1.9,3.4c0,0,0.1,0.1,0.2,0.2c0.1,0.1,0.1,0.2,0.2,0.2c0.5-0.8,1-1.7,1.4-2.6l2,0.8c-0.9,1.3-1.6,2.4-2.2,3.2
				l1.4-0.6c1.3-1.6,2.2-3.5,2.6-5.5l2.5,0.6C147,158.2,146.7,158.9,146.4,159.8z M139.7,164.3h1.2c-0.2-0.5-0.3-0.8-0.4-0.9
				C140.2,163.7,139.9,164,139.7,164.3L139.7,164.3z M148,167.6l-2.1,1.1c-0.4-1.4-1.1-2.7-1.9-3.8l1.9-1
				C146.8,165,147.5,166.3,148,167.6L148,167.6z"/>
			<path class="st2" d="M153.7,169l1.9-1.5c1.3,1.5,2.3,2.7,3.2,3.8l-1.9,1.4C156,171.8,155,170.5,153.7,169z"/>
			<path class="st2" d="M167.8,167.6l0.3,2.1c-0.8,0.2-2.1,0.6-3.7,1.1c-1.6,0.5-2.5,0.7-2.5,0.7l-0.6-2.3l0.7-0.1
				c0.2-0.1,0.5-0.1,0.9-0.2c0.3-0.1,0.6-0.1,0.8-0.2v-3H162v-2.2h1.7V161h-1.9v-2.2h5.9v2.2H166v2.6h1.6v2.2H166v2.3
				C166.1,168.1,166.7,167.9,167.8,167.6z M175,171.6h0.3c0.1,0,0.1,0,0.1-0.1s0.1-0.2,0.1-0.3c0-0.2,0.1-0.4,0.1-0.6
				c0-0.3,0-0.6,0-1c0.6,0.4,1.3,0.7,2,0.9c0,0.8-0.2,1.7-0.6,2.4c-0.3,0.5-0.9,0.7-1.5,0.7h-1.1c-0.6,0.1-1.2-0.1-1.7-0.6
				c-0.3-0.6-0.5-1.4-0.4-2.1v-3h-0.7c0,0.7-0.2,1.3-0.3,1.9c-0.2,0.6-0.4,1.1-0.7,1.6c-0.4,0.6-0.9,1-1.4,1.4
				c-0.7,0.4-1.5,0.8-2.3,1c-0.3-0.8-0.7-1.4-1.3-2c0.6-0.1,1.3-0.3,1.8-0.6c0.4-0.2,0.8-0.5,1.1-0.9c0.2-0.3,0.4-0.7,0.5-1
				c0.1-0.4,0.2-0.9,0.2-1.3h-1.1v-9.5h8.4v9.5h-1.9v3c0,0.2,0,0.3,0,0.5C174.9,171.6,175,171.6,175,171.6z M170.6,160.4v0.7h3.8
				v-0.7H170.6z M170.6,162.9v0.7h3.8v-0.7H170.6z M170.6,165.4v0.7h3.8v-0.7H170.6z"/>
			<path class="st2" d="M182.5,167.4l1.4-0.6l0.5,2.1c-1.9,1-3.7,1.8-5.3,2.6l-1-2.4c0.2-0.1,0.6-0.2,1.1-0.4s0.8-0.3,1-0.4v-4.4
				h-1.8v-2.3h1.8v-3.5h2.3v3.5h1.6v2.3h-1.6V167.4z M188.3,171.3h2.8c0.3,0,0.7-0.1,0.9-0.4c0.2-0.5,0.3-1,0.3-1.6
				c0.6,0.4,1.4,0.7,2.1,0.9c0,0.9-0.3,1.8-0.9,2.5c-0.6,0.5-1.4,0.8-2.2,0.7H188c-0.9,0.1-1.8-0.1-2.5-0.7
				c-0.5-0.8-0.8-1.7-0.7-2.6v-3.8l-0.7,0.3l-0.9-2.1l1.6-0.7v-4.3h2.3v3.3l0.9-0.4v-4.6h2.3v3.6l0.8-0.4l0,0l0.4-0.2l0.4-0.3
				l1.7,0.6l-0.1,0.4c0,2.8,0,4.7-0.1,5.7c0.1,0.6-0.3,1.2-0.8,1.6c-0.6,0.2-1.2,0.3-1.8,0.3c-0.1-0.7-0.2-1.3-0.5-2v2.6H188v-4.8
				l-0.9,0.4v4.8c0,0.3,0,0.7,0.2,0.9C187.6,171.3,188,171.3,188.3,171.3L188.3,171.3z M191.3,163.5l-0.9,0.4v3.2c0.1,0,0.3,0,0.6,0
				c0.2,0,0.2-0.1,0.3-0.3C191.3,166.7,191.3,165.6,191.3,163.5L191.3,163.5z"/>
			<path class="st2" d="M195.5,165.3c0.4-0.7,0.8-1.4,1.1-1.9s0.6-1,0.9-1.5c0.3-0.5,0.5-0.9,0.7-1.1c0.2-0.3,0.4-0.5,0.6-0.7
				c0.2-0.1,0.4-0.2,0.6-0.2c0.2,0,0.2,0,0.2,0c0.3,0,0.6,0.1,0.8,0.2c0.2,0.1,0.4,0.3,0.6,0.6c0.1,0.2,0.4,0.6,0.8,1.2
				c0.4,0.6,0.8,1.3,1.3,2c0.5,0.8,1,1.5,1.5,2.2s1,1.6,1.7,2.6v4.7c-4.1-6.3-6.2-9.6-6.3-9.7c-0.1-0.1-0.1-0.2-0.3-0.3
				c-0.1,0-0.1,0-0.1,0s0,0-0.1,0c-0.1,0.1-0.2,0.2-0.2,0.3c-0.1,0.1-0.3,0.4-0.6,0.9s-0.6,1-1,1.6s-0.8,1.4-1.4,2.4
				c-0.6,1-0.9,1.5-0.9,1.5L195.5,165.3z"/>
			<path class="st2" d="M214.9,159.8c1.1,0,2.2,0.1,3.3,0.4v2.3c-1-0.3-2-0.5-3-0.5c-2.5,0-3.7,1.3-3.7,4c-0.1,1.1,0.2,2.2,0.9,3
				c0.7,0.7,1.6,1.1,2.6,1c0.4,0,0.8,0,1.2-0.2v-3h-2.7v-2.2h5.3v6.9c-1.3,0.5-2.7,0.7-4,0.7c-3.2,0.2-6-2.2-6.2-5.4
				c0-0.3,0-0.6,0-0.9c-0.3-3.2,2-6,5.2-6.3C214.1,159.7,214.5,159.7,214.9,159.8L214.9,159.8z"/>
			<path class="st2" d="M230.4,170.6c-2.3,2.2-6,2.2-8.4,0c-2-2.7-2-6.5,0-9.2c2.3-2.2,6-2.2,8.4,0
				C232.5,164.2,232.5,167.9,230.4,170.6z M229,166c0-2.6-0.9-3.9-2.8-3.9c-1.9,0-2.8,1.3-2.8,3.9c0,2.6,0.9,3.9,2.8,3.9
				S229,168.7,229,166z"/>
			<path class="st2" d="M234.2,159.9h3.4l-0.4,8.4h-2.6L234.2,159.9z M234.5,172.2v-2.5h2.9v2.5H234.5z"/>
		</g>
	</g>
</g>
</svg>
