<?xml version="1.0" encoding="UTF-8"?><svg id="_レイヤー_2" xmlns="http://www.w3.org/2000/svg" viewBox="0 0 395 43"><defs><style>.cls-1{fill:#f63402;}</style></defs><g id="_レイヤー_1-2"><path class="cls-1" d="M69.467,6.812c1.881-2.776,5.061-4.389,8.688-4.389,3.583,0,6.762,1.612,8.643,4.389,2.15,3.18,3.27,7.569,3.27,12.719s-1.12,9.539-3.27,12.674c-1.881,2.821-5.061,4.434-8.643,4.434-3.628,0-6.808-1.612-8.688-4.434-2.105-3.18-3.269-7.613-3.269-12.674,0-5.15,1.12-9.495,3.269-12.719ZM73.587,31.623c.985,2.597,2.508,3.896,4.568,3.896,2.284,0,3.851-1.522,4.836-4.658.806-2.463,1.165-6.046,1.165-11.33,0-5.822-.448-9.54-1.433-12.092-.985-2.642-2.463-3.896-4.568-3.896-4.165,0-6.001,4.881-6.001,15.988,0,5.688.448,9.539,1.433,12.092Z"/><path class="cls-1" d="M117.207,27.234c0,5.732-4.658,9.405-11.958,9.405-6.941,0-11.196-3.135-11.196-8.285,0-2.598,1.165-4.926,3.314-6.583,1.075-.851,2.104-1.343,4.03-2.104-4.702-2.463-6.404-4.613-6.404-8.285,0-5.464,4.209-9.002,10.793-9.002,6.091,0,10.166,3.18,10.166,7.837,0,3.538-2.284,6.091-6.628,7.39,5.553,2.463,7.882,5.329,7.882,9.628ZM100.189,22.397c-1.12,1.298-1.747,3.269-1.747,5.419,0,4.613,2.866,7.658,7.121,7.658,3.896,0,6.583-2.642,6.583-6.449,0-2.239-.94-3.852-3.18-5.464-.896-.672-2.329-1.433-4.12-2.284-.583-.269-1.971-.896-2.016-.896-1.343.717-1.97,1.209-2.642,2.016ZM110.31,15.142c.94-1.299,1.389-2.821,1.389-4.881,0-1.433-.403-3-1.03-4.076-1.03-1.657-2.821-2.597-5.105-2.597-3.538,0-5.732,2.194-5.732,5.643,0,2.239.985,3.852,3.27,5.375.671.403,1.522.896,2.911,1.522.493.224,1.971.896,1.971.896,1.209-.671,1.702-1.03,2.329-1.881Z"/><path class="cls-1" d="M124.461,6.812c1.881-2.776,5.061-4.389,8.688-4.389,3.583,0,6.762,1.612,8.643,4.389,2.15,3.18,3.27,7.569,3.27,12.719s-1.12,9.539-3.27,12.674c-1.881,2.821-5.061,4.434-8.643,4.434-3.628,0-6.808-1.612-8.688-4.434-2.105-3.18-3.269-7.613-3.269-12.674,0-5.15,1.12-9.495,3.269-12.719ZM128.582,31.623c.985,2.597,2.508,3.896,4.568,3.896,2.284,0,3.851-1.522,4.836-4.658.806-2.463,1.165-6.046,1.165-11.33,0-5.822-.448-9.54-1.433-12.092-.985-2.642-2.463-3.896-4.568-3.896-4.165,0-6.001,4.881-6.001,15.988,0,5.688.448,9.539,1.433,12.092Z"/><path class="cls-1" d="M151.958,6.812c1.881-2.776,5.061-4.389,8.688-4.389,3.583,0,6.762,1.612,8.643,4.389,2.15,3.18,3.27,7.569,3.27,12.719s-1.12,9.539-3.27,12.674c-1.881,2.821-5.061,4.434-8.643,4.434-3.628,0-6.808-1.612-8.688-4.434-2.105-3.18-3.269-7.613-3.269-12.674,0-5.15,1.12-9.495,3.269-12.719ZM156.079,31.623c.985,2.597,2.508,3.896,4.568,3.896,2.284,0,3.851-1.522,4.836-4.658.806-2.463,1.165-6.046,1.165-11.33,0-5.822-.448-9.54-1.433-12.092-.985-2.642-2.463-3.896-4.568-3.896-4.165,0-6.001,4.881-6.001,15.988,0,5.688.448,9.539,1.433,12.092Z"/><path class="cls-1" d="M176.724,20.964h10.524v3.762h-10.524v-3.762Z"/><path class="cls-1" d="M195.936,34.668c2.061-.045,2.688-.135,3.359-.538,1.03-.538,1.344-1.702,1.344-4.568V8.962q-.045-2.284-.135-2.687c-.179-.985-.761-1.209-3.045-1.209h-1.209v-1.254c4.255-.358,7.524-.806,10.48-1.343-.27,3.18-.403,6.941-.403,11.286v15.809c0,2.731.269,3.851,1.075,4.478.627.493,1.164.583,3.448.627v1.254h-14.914v-1.254Z"/><path class="cls-1" d="M225.718,7.887c-1.881,0-2.688.403-3.538,1.791-.537.851-.896,1.971-1.344,3.986l-1.478-.179,1.388-10.39h21.407v3.18c-3.225,4.702-5.553,9.091-7.12,13.48-.94,2.553-1.657,5.33-2.15,7.927q-.358,2.195-.537,6.001c-.045,1.254-.313,1.97-.896,2.418-.582.448-1.612.717-2.866.717-1.971,0-2.956-.717-2.956-2.149,0-2.956,2.374-9.002,6.181-15.541,1.791-3.18,3.672-6.091,7.255-11.241h-13.346Z"/><path class="cls-1" d="M249.632,6.812c1.881-2.776,5.061-4.389,8.688-4.389,3.583,0,6.763,1.612,8.644,4.389,2.149,3.18,3.269,7.569,3.269,12.719s-1.119,9.539-3.269,12.674c-1.881,2.821-5.061,4.434-8.644,4.434-3.628,0-6.808-1.612-8.688-4.434-2.104-3.18-3.27-7.613-3.27-12.674,0-5.15,1.12-9.495,3.27-12.719ZM253.752,31.623c.985,2.597,2.508,3.896,4.568,3.896,2.284,0,3.852-1.522,4.837-4.658.806-2.463,1.164-6.046,1.164-11.33,0-5.822-.448-9.54-1.434-12.092-.984-2.642-2.463-3.896-4.567-3.896-4.165,0-6.001,4.881-6.001,15.988,0,5.688.447,9.539,1.433,12.092Z"/><path class="cls-1" d="M274.397,20.964h10.524v3.762h-10.524v-3.762Z"/><path class="cls-1" d="M292.982,19.262c2.776-2.597,5.24-3.627,8.644-3.627,6.538,0,10.614,3.852,10.614,10.077,0,6.673-4.703,10.927-12.137,10.927-5.867,0-10.436-2.821-10.436-6.494,0-1.702,1.12-2.598,3.18-2.598,1.03,0,1.837.269,2.239.761.313.358.403.717.448,2.016.045,1.657.448,2.821,1.254,3.672.851.94,2.149,1.478,3.493,1.478,1.836,0,3.359-.806,4.389-2.284,1.075-1.657,1.702-4.12,1.702-6.897,0-5.643-2.329-8.912-6.359-8.912-2.956,0-5.732,1.836-7.523,4.881l-1.479-.358,1.479-18.81h18.316l-.806,5.016h-16.123l-.896,11.151Z"/><path class="cls-1" d="M321.106,34.668c2.061-.045,2.688-.135,3.358-.538,1.03-.538,1.344-1.702,1.344-4.568V8.962q-.045-2.284-.134-2.687c-.18-.985-.762-1.209-3.046-1.209h-1.209v-1.254c4.255-.358,7.523-.806,10.479-1.343-.269,3.18-.403,6.941-.403,11.286v15.809c0,2.731.27,3.851,1.075,4.478.627.493,1.164.583,3.448.627v1.254h-14.913v-1.254Z"/><path class="cls-1" d="M347.305,6.812c1.881-2.776,5.061-4.389,8.688-4.389,3.583,0,6.763,1.612,8.644,4.389,2.149,3.18,3.269,7.569,3.269,12.719s-1.119,9.539-3.269,12.674c-1.881,2.821-5.061,4.434-8.644,4.434-3.628,0-6.808-1.612-8.688-4.434-2.104-3.18-3.27-7.613-3.27-12.674,0-5.15,1.12-9.495,3.27-12.719ZM351.425,31.623c.985,2.597,2.508,3.896,4.568,3.896,2.284,0,3.852-1.522,4.837-4.658.806-2.463,1.164-6.046,1.164-11.33,0-5.822-.448-9.54-1.434-12.092-.984-2.642-2.463-3.896-4.567-3.896-4.165,0-6.001,4.881-6.001,15.988,0,5.688.447,9.539,1.433,12.092Z"/><path class="cls-1" d="M390.208,30.279c0,3.717.582,4.344,4.03,4.389v1.254h-13.48v-1.209c2.105-.089,2.598-.179,3.136-.627.671-.493.94-1.657.94-3.807v-3.18h-14.466v-2.149l15.675-22.258h4.165v22.393h4.792v2.015h-4.792v3.18ZM384.834,7.35l-12.45,17.735h12.45V7.35Z"/><path class="cls-1" d="M0,0v33.102h54.623V0H0ZM19.123,31.984h-6.767V8.479c0-3.184,2.185-7.566,7.561-7.566h7.972v6.187h-6.178c-1.195,0-2.589.792-2.589,2.177v4.089h17.843v6.174h-17.843v12.443ZM42.079,32.012h-3.309c-5.379,0-7.576-4.384-7.576-7.57v-3.433l5.777-.011v3.195c0,.798.57,1.645,1.78,1.645h3.327v6.174ZM42.079,7.101h-3.327c-1.21,0-1.78.833-1.78,1.638v3.194h-5.777v-3.454c0-3.184,2.197-7.566,7.576-7.566h3.309v6.187Z"/><path class="cls-1" d="M8.228,35.288c-.105,2.503-.701,3.917-1.488,4.921-.878,1.128-2.356,2.144-4.676,2.593l-.649-1.412c4.111-.713,4.767-2.769,5.086-4.658H.773v-1.445h7.455Z"/><path class="cls-1" d="M11.322,40.058h-1.547v-5.066h1.547v5.066ZM15.773,38.663c0,3.524-2.766,3.932-4.964,4.194l-.562-1.414c.634-.06,2.26-.174,3.133-.742.486-.319.836-.948.836-1.827v-4.029h1.557v3.819Z"/><rect class="cls-1" x="17.341" y="37.96" width="8.133" height="1.542"/><polygon class="cls-1" points="33.747 35.425 33.747 42.223 26.77 42.223 26.77 40.768 32.195 40.768 32.195 36.862 26.86 36.862 26.86 35.425 33.747 35.425"/><rect class="cls-1" x="35.433" y="37.96" width="8.134" height="1.542"/><path class="cls-1" d="M47.268,37.297c0,1.024-.083,2.035-.276,3.047-.206,1.001-.642,1.966-1.394,2.656l-1.151-1.19c.325-.304.881-.873,1.112-2.078.08-.382.232-1.304.232-2.268v-2.317h1.477v2.151ZM49.794,40.88c.307-.1.869-.286,1.402-1.2.444-.766.558-1.597.625-1.995l1.385.67c-.238,1.169-.714,2.289-1.583,3.108-1.259,1.169-2.72,1.234-3.294,1.263v-7.878h1.465v6.031Z"/></g></svg>