<?xml version="1.0" encoding="UTF-8"?><svg id="_レイヤー_2" xmlns="http://www.w3.org/2000/svg" viewBox="0 0 800 200"><defs><style>.cls-1{fill:#f63402;}.cls-2{fill:#fff;}.cls-3{stroke-width:2px;}.cls-3,.cls-4{fill:none;stroke:#f63402;stroke-miterlimit:10;}.cls-4{stroke-width:1.997px;}</style></defs><g id="_レイヤー_1-2"><rect class="cls-2" width="800" height="200"/><rect class="cls-1" width="8" height="200"/><rect class="cls-1" x="792" width="8" height="200"/><path d="M46.751,129.325h-3.25c1.116,1.175,2.915,2.279,4.498,2.807-.192.168-.432.479-.563.695-1.619-.635-3.454-1.871-4.642-3.226v3.406h-.828v-3.358c-1.175,1.319-2.974,2.519-4.545,3.154-.132-.204-.372-.516-.563-.671,1.547-.552,3.298-1.631,4.414-2.807h-3.059v-4.425h3.754v-1.092h-4.821v-.768h4.821v-1.163l1.067.06c-.012.084-.072.144-.24.167v.936h4.954v.768h-4.954v1.092h3.958v4.425ZM39.004,125.559v1.235h2.962v-1.235h-2.962ZM39.004,127.418v1.259h2.962v-1.259h-2.962ZM45.936,125.559h-3.143v1.235h3.143v-1.235ZM45.936,128.678v-1.259h-3.143v1.259h3.143Z"/><path d="M53.295,129.025c.444.312,1.703,1.332,2.003,1.595l-.48.612c-.276-.312-.983-.972-1.523-1.452v3.227h-.792v-3.31c-.576.947-1.319,1.835-1.991,2.362-.132-.192-.372-.456-.54-.587.852-.564,1.787-1.691,2.375-2.794h-2.146v-.708h2.303v-1.271h-2.459v-.708h1.475c-.06-.516-.264-1.271-.516-1.847l.648-.18c.276.6.503,1.379.563,1.895l-.444.132h2.015c-.156-.06-.324-.12-.336-.12.24-.528.528-1.367.672-1.943l.911.288c-.024.072-.108.108-.24.12-.168.468-.456,1.164-.696,1.655h1.751v.708h-2.435c-.036.012-.072.024-.12.024v1.248h2.375v.708h-2.375v.348ZM55.598,123.209v.696h-5.313v-.696h2.219v-1.343l1.019.06c-.012.084-.072.144-.228.168v1.115h2.303ZM61.187,125.991v.755h-1.416v6.261h-.792v-6.261h-1.895v.444c0,1.799-.228,4.174-1.955,5.841-.096-.18-.372-.456-.564-.564,1.571-1.511,1.751-3.586,1.751-5.289v-4.173l.588.192c1.247-.36,2.591-.852,3.346-1.295l.804.612c-.036.036-.12.06-.252.036-.888.444-2.363.936-3.718,1.271v2.171h4.102Z"/><path d="M64.864,126.099c-.456.755-.959,1.427-1.463,2.003-.084-.192-.288-.564-.42-.756,1.151-1.247,2.303-3.322,2.999-5.397l.959.324c-.048.084-.132.12-.275.108-.312.84-.684,1.679-1.104,2.483l.324.084c-.024.072-.084.132-.24.144v7.952h-.78v-6.944ZM70.92,131.808h3.478v.768h-7.879v-.768h3.586v-3.19h-2.854v-.768h2.854v-2.783h-3.262v-.768h4.293c-.563-.551-1.715-1.367-2.614-1.895l.528-.576c.923.527,2.11,1.307,2.687,1.859l-.528.611h3.022v.768h-3.31v2.783h2.938v.768h-2.938v3.19Z"/><path d="M79.611,126.099l.468.156c-.012.06-.048.108-.084.144-.192,1.619-.528,2.962-1.02,4.042,1.199,1.188,2.902,1.452,4.977,1.452.456,0,3.119,0,3.706-.012-.132.192-.276.563-.324.792h-3.394c-2.267,0-4.03-.312-5.325-1.523-.456.792-1.007,1.415-1.643,1.871-.12-.168-.432-.456-.6-.563.671-.456,1.247-1.091,1.703-1.919-.468-.624-.852-1.403-1.151-2.399l.636-.264c.228.768.516,1.403.875,1.919.335-.828.587-1.799.731-2.938h-1.535l-.252.492-.744-.204c.624-1.151,1.367-2.675,1.871-3.754h-2.051v-.732h2.519l.156-.036.516.216c-.024.048-.06.108-.096.156-.372.768-.959,1.979-1.547,3.13h1.451l.156-.024ZM83.161,126.147v-.959h-3.406v-.671h3.406v-.948h-2.458v-.66h2.458v-1.079l1.02.072c-.012.084-.072.144-.228.156v.852h2.639v1.607h.972v.671h-.972v1.619h-2.639v.996h2.843v.647h-2.843v.996h3.382v.671h-3.382v1.332h-.792v-1.332h-3.25v-.671h3.25v-.996h-2.71v-.647h2.71v-.996h-2.542v-.66h2.542ZM83.953,123.568v.948h1.847v-.948h-1.847ZM85.8,126.147v-.959h-1.847v.959h1.847Z"/><path d="M95.905,124.048c-.048.108-.144.192-.3.192-.432,3.73-1.679,6.98-3.67,6.98-1.008,0-1.919-1.007-1.919-2.902,0-2.878,2.243-5.289,5.397-5.289,3.466,0,4.965,2.195,4.965,4.533,0,2.854-1.655,4.234-4.558,4.905-.108-.191-.312-.516-.504-.731,2.759-.528,4.174-1.871,4.174-4.138,0-1.979-1.271-3.778-4.078-3.778-.12,0-.252.012-.36.024l.852.204ZM94.754,123.892c-2.423.3-3.922,2.303-3.922,4.402,0,1.283.552,2.087,1.127,2.087,1.451,0,2.495-3.203,2.794-6.489Z"/><path d="M109.261,125.955c.24.792.576,1.547.983,2.231.792-.492,1.727-1.164,2.327-1.691l.732.66c-.048.048-.156.06-.252.048-.612.479-1.607,1.115-2.411,1.583.863,1.188,2.003,2.099,3.418,2.555-.18.156-.408.468-.54.684-2.458-.899-4.042-3.106-4.894-5.841-.384.288-.839.576-1.319.828,1.655,1.187,2.362,2.722,2.362,3.934,0,1.295-.815,2.087-2.062,2.087-.3,0-.684-.012-1.08-.036-.012-.204-.084-.54-.216-.755.444.036.863.048,1.127.048.348,0,.636-.024.887-.228.336-.216.528-.66.528-1.211,0-.336-.072-.708-.228-1.104-1.319,1.139-3.382,2.279-5.121,2.854-.096-.204-.264-.504-.432-.684,1.823-.492,4.03-1.667,5.241-2.819-.156-.251-.348-.503-.564-.743-1.031.768-2.65,1.595-3.91,2.051-.096-.192-.276-.468-.432-.636,1.271-.372,2.926-1.151,3.898-1.871-.204-.18-.432-.372-.684-.552-.899.42-1.871.768-2.782,1.032-.096-.156-.288-.468-.408-.612,1.475-.372,3.154-1.007,4.33-1.811h-2.842v-.708h6.872v.708h-2.531ZM104.176,124.012v1.619h-.78v-2.363h4.569v-1.415l1.067.072c-.012.084-.083.144-.24.156v1.188h4.642v2.363h-.815v-1.619h-8.443Z"/><path d="M126.611,126.999c-.024.012-.048.024-.072.024-.072,0-.132-.036-.18-.072-.912.3-2.243.792-3.238,1.223.024.276.036.588.036.936,0,.384-.012.815-.036,1.283l-.875.048c.036-.432.06-.983.06-1.451,0-.18,0-.348-.012-.479-1.355.66-2.458,1.463-2.458,2.183,0,.696.828,1.032,2.482,1.032,1.164,0,2.243-.024,3.011-.12l.012.804c-.708.072-1.787.096-3.022.096-2.303,0-3.322-.552-3.322-1.775,0-1.056,1.391-2.075,3.19-2.975-.072-.755-.408-1.127-.887-1.127-.875,0-1.787.492-2.867,1.691-.336.372-.804.839-1.319,1.307l-.587-.587c1.199-1.056,2.327-2.063,3.022-4.426l-.671.012h-2.003v-.78c.731.012,1.583.012,2.075.012l.816-.012c.132-.552.24-1.067.324-1.715l1.175.144c-.024.12-.12.192-.3.216-.084.48-.192.9-.3,1.332.815-.012,2.566-.204,4.125-.696l.144.804c-1.499.468-3.31.636-4.498.672-.288.899-.587,1.619-.863,2.027h.012c.528-.468,1.319-.78,1.931-.78.815,0,1.331.588,1.487,1.559,1.008-.456,2.279-.947,3.238-1.319l.372.912Z"/><path d="M131.607,126.663v3.958c.936,1.439,2.71,1.439,4.773,1.439,1.379,0,3.058-.036,4.054-.096-.108.18-.228.54-.264.768-.828.024-2.159.048-3.37.048-2.675,0-4.342,0-5.529-1.487-.527.54-1.091,1.067-1.535,1.487,0,.096-.024.132-.108.18l-.456-.816c.504-.396,1.127-.923,1.667-1.439v-3.274h-1.547v-.768h2.314ZM130.012,122.153c.732.576,1.547,1.415,1.895,2.027l-.671.468c-.324-.624-1.127-1.5-1.847-2.087l.624-.408ZM140.255,128.905v.648h-8.108v-.648h2.243v-1.199h-1.751v-.647h1.751v-.959l1.007.072c-.012.084-.084.144-.24.156v.732h2.027v-.959l1.007.072c-.012.084-.084.144-.24.168v.72h1.811v.647h-1.811v1.199h2.303ZM134.738,123.784v-.839h-2.423v-.588h3.13v2.015h-2.135v.66c0,.228.06.276.444.276h1.367c.288,0,.348-.072.372-.624.144.108.42.18.612.228-.072.792-.276.983-.888.983h-1.523c-.852,0-1.08-.156-1.08-.852v-1.259h2.123ZM135.757,129.985c-.06.096-.156.108-.252.084-.66.552-1.655,1.139-2.507,1.511-.132-.144-.384-.372-.552-.492.84-.324,1.835-.875,2.447-1.451l.864.348ZM135.158,127.706v1.199h2.027v-1.199h-2.027ZM138.852,123.784v-.839h-2.579v-.588h3.298v2.015h-2.267v.66c0,.228.072.276.504.276h1.499c.312,0,.372-.072.396-.672.156.096.432.18.624.228-.084.828-.288,1.031-.923,1.031h-1.655c-.899,0-1.139-.156-1.139-.863v-1.248h2.243ZM137.388,129.637c1.007.456,2.111,1.067,2.759,1.571l-.792.372c-.563-.492-1.571-1.104-2.542-1.571l.576-.372Z"/><path d="M142.601,132.167c.887-2.542,2.362-6.788,2.83-8.06.228-.647.54-1.559.624-1.859l1.295.336c-.06.168-.228.228-.468.228-.66,1.643-1.679,4.449-2.123,5.649h.012c.708-.864,1.787-1.476,2.627-1.476,1.043,0,1.547.708,1.511,1.823l-.036,1.427c-.012.899.468,1.391,1.247,1.391,1.08,0,2.075-1.235,2.626-3.298.24.168.528.324.78.444-.66,2.291-1.847,3.73-3.442,3.73-1.271,0-2.099-.768-2.099-1.991,0-.228.036-1.332.036-1.583,0-.756-.312-1.151-.84-1.151-1.379,0-2.77,2.002-3.07,2.782-.167.42-.432,1.188-.66,1.883l-.851-.276Z"/><path d="M163.044,124.492c-1.019.36-2.375.588-3.682.684-.504,2.747-1.235,5.481-2.195,7.496l-.864-.324c.983-1.931,1.703-4.414,2.171-7.136-.24.012-1.847.024-2.207.012l-.012-.816c.192.012.444.012.72.012.108,0,1.307,0,1.619-.012.12-.768.24-1.607.312-2.338l1.235.12c-.012.132-.18.228-.348.24-.072.527-.192,1.175-.3,1.907,1.175-.108,2.363-.312,3.358-.671l.192.827ZM166.247,132.419c-.468.036-.972.06-1.463.06-.972,0-1.919-.084-2.495-.24-.852-.24-1.343-.864-1.332-1.655.012-.528.24-1.127.744-1.739l.72.312c-.42.492-.624.959-.624,1.332,0,.947.912,1.163,2.866,1.163.528,0,1.08-.024,1.559-.072l.024.839ZM161.558,126.699c1.235-.396,2.938-.647,4.354-.612v.816c-1.355-.036-2.927.156-4.15.54l-.204-.744ZM163.668,122.537c.587.432,1.295,1.127,1.667,1.631l-.444.384c-.348-.516-1.104-1.259-1.619-1.643l.396-.372ZM165.215,121.746c.588.432,1.295,1.103,1.655,1.619l-.444.384c-.336-.468-1.043-1.2-1.607-1.631l.396-.372Z"/><path d="M171.304,126.855v2.975l1.631-.48c.012.072.024.144.096.696-1.392.444-2.867.923-3.79,1.199-.012.096-.084.156-.156.18l-.324-.888c.492-.12,1.092-.288,1.763-.48v-3.202h-1.487v-.755h1.487v-2.699h-1.607v-.768h3.958v.768h-1.571v2.699h1.451v.755h-1.451ZM176.749,131.88h3.358v.744h-7.711v-.744h3.598v-1.859h-2.807v-.732h2.807v-1.403h-2.735v-5.325h6.297v5.325h-2.807v1.403h2.974v.732h-2.974v1.859ZM173.99,123.269v1.607h2.003v-1.607h-2.003ZM173.99,127.178h2.003v-1.631h-2.003v1.631ZM178.799,124.876v-1.607h-2.051v1.607h2.051ZM178.799,127.178v-1.631h-2.051v1.631h2.051Z"/><path d="M187.994,124.228h4.366v8.719h-.828v-.72h-7.855v.768h-.804v-8.767h4.293v-2.363l1.056.06c-.012.084-.072.144-.228.168v2.135ZM187.166,125.043h-3.49v2.759h3.49v-2.759ZM183.676,128.594v2.831h3.49v-2.831h-3.49ZM191.532,125.043h-3.538v2.759h3.538v-2.759ZM187.994,131.424h3.538v-2.831h-3.538v2.831Z"/><path d="M196.432,132.335c-.372-.863-.516-2.65-.516-4.222,0-1.595.252-3.598.647-5.601l1.164.228c-.024.12-.144.204-.312.216-.432,1.644-.696,3.778-.696,5.169,0,.912.012,1.823.108,2.267.264-.72.743-1.871.995-2.435l.54.504c-.396.815-1.235,2.638-1.235,3.202,0,.168.036.348.12.576l-.815.096ZM199.478,125.272c1.007.012,2.015.024,3.022-.048-.048-1.032-.084-1.919-.108-2.807l1.211.036c-.012.12-.12.216-.312.252.012.768.036,1.547.06,2.458.947-.096,1.715-.264,2.351-.48l.108.84c-.576.18-1.403.348-2.423.432.048,1.332.108,2.734.144,3.502.912.372,1.823.959,2.447,1.523l-.468.768c-.492-.492-1.2-1.02-1.943-1.367-.012,1.019-.204,2.159-2.003,2.159-1.403,0-2.339-.672-2.339-1.727,0-1.223,1.235-1.763,2.339-1.763.372,0,.768.048,1.139.156-.036-.756-.108-2.015-.168-3.19-.372.024-.875.036-1.223.036h-1.823l-.012-.78ZM202.765,129.985c-.384-.12-.792-.216-1.188-.216-.731,0-1.607.264-1.607,1.02,0,.671.72,1.007,1.595,1.007.887,0,1.211-.432,1.211-1.391l-.012-.42Z"/><path d="M213.302,129.481c-.084-.468-.096-.54-.096-.743,0-.672.312-1.295,1.139-2.039.863-.768,1.319-1.235,1.319-1.919,0-.744-.66-1.283-1.991-1.283-.731,0-1.487.192-1.991.468l-.324-.696c.66-.336,1.583-.552,2.423-.552,2.075,0,2.878.972,2.878,1.967,0,.924-.6,1.571-1.547,2.375-.696.587-.996,1.139-.996,1.751,0,.096.012.192.024.3l.06.372h-.899ZM213.086,131.4c0-.611.432-.803.708-.803.42,0,.696.324.696.779,0,.372-.24.744-.708.744-.396,0-.696-.324-.696-.72Z"/><path d="M232.582,129.793h-4.474c.864,1.367,2.471,2.195,4.618,2.507-.168.18-.384.503-.492.719-2.375-.443-4.066-1.463-4.977-3.226h-.18c-.612,1.223-1.955,2.363-4.809,3.226-.096-.18-.324-.492-.492-.66,2.507-.708,3.754-1.607,4.378-2.566h-4.282v-.708h4.642c.132-.372.192-.744.228-1.104h-3.394v-.695h3.418v-1.032h-3.742v-.684h3.742v-1.199l1.043.072c-.012.084-.072.144-.228.168v.959h3.826v-1.523h-8.419v1.583h-.792v-2.303h4.569v-1.475l1.067.072c-.012.084-.083.144-.24.156v1.248h4.642v2.303h-.768v.624h-3.886v1.032h3.61v.695h-3.634c-.036.372-.084.731-.204,1.104h5.229v.708Z"/><path d="M237.807,122.357l.492.3c-.012.036-.048.084-.084.108-.252.924-.624,2.183-.959,3.19.732,1.031,1.008,1.895,1.008,2.674,0,1.667-.792,1.691-1.643,1.644-.012-.192-.072-.492-.168-.672.156.012.3.012.432.012.372,0,.684,0,.684-1.032-.012-.695-.252-1.535-.996-2.555.3-.911.6-2.051.804-2.902h-1.343v9.895h-.72v-10.626h2.375l.12-.036ZM239.822,124c.3.168.647.408.911.624.156-.348.288-.708.396-1.092h-1.463c-.372.744-.852,1.416-1.367,1.883-.12-.108-.348-.3-.516-.396.792-.695,1.463-1.895,1.847-3.166l.839.228c-.024.084-.108.12-.24.12-.072.228-.168.468-.264.696h1.476l.144-.024c.348.132.408.156.456.192-.024.06-.06.096-.096.132-.528,2.303-1.823,4.065-3.322,5.001-.096-.168-.3-.419-.467-.552.563-.324,1.115-.803,1.595-1.403-.264-.264-.647-.588-.983-.816l.372-.36c.312.204.671.492.923.732.156-.216.288-.444.42-.672-.264-.252-.648-.54-.984-.731l.324-.396ZM240.278,130.393c-.42.804-1.104,1.655-1.751,2.207-.12-.132-.372-.348-.528-.468.612-.492,1.259-1.319,1.655-2.147.636.216.755.252.863.3-.024.072-.108.108-.24.108ZM245.255,129.481h-2.818v2.687c0,.756-.288.852-1.991.852-.036-.204-.156-.503-.264-.695.611.012,1.139.012,1.295,0,.156-.012.192-.036.192-.18v-2.663h-2.687v-.695h6.272v.695ZM240.122,127.598v-.671h3.91v.671h-3.91ZM245.399,122.861l.516.312c-.012.06-.083.083-.132.108-.335.911-.923,2.003-1.535,2.758.516.636,1.14,1.139,1.859,1.475-.167.144-.396.408-.503.612-1.967-1.043-3.154-3.167-3.742-5.877l.648-.144c.276,1.284.719,2.435,1.343,3.382.408-.552.792-1.283,1.043-1.955h-1.703v-.635h2.075l.132-.036ZM245.171,132.503c-.312-.576-1.043-1.463-1.703-2.099l.587-.372c.66.612,1.416,1.463,1.751,2.051l-.635.42Z"/><path d="M254.306,124.048c-.048.108-.144.192-.3.192-.432,3.73-1.679,6.98-3.67,6.98-1.008,0-1.919-1.007-1.919-2.902,0-2.878,2.243-5.289,5.397-5.289,3.466,0,4.965,2.195,4.965,4.533,0,2.854-1.655,4.234-4.558,4.905-.108-.191-.312-.516-.504-.731,2.759-.528,4.174-1.871,4.174-4.138,0-1.979-1.271-3.778-4.078-3.778-.12,0-.252.012-.36.024l.852.204ZM253.154,123.892c-2.423.3-3.922,2.303-3.922,4.402,0,1.283.552,2.087,1.127,2.087,1.451,0,2.495-3.203,2.794-6.489Z"/><path d="M262.864,126.099c-.456.755-.959,1.427-1.463,2.003-.084-.192-.288-.564-.42-.756,1.151-1.247,2.303-3.322,2.999-5.397l.959.324c-.048.084-.132.12-.275.108-.312.84-.684,1.679-1.104,2.483l.324.084c-.024.072-.084.132-.24.144v7.952h-.78v-6.944ZM268.92,131.808h3.478v.768h-7.879v-.768h3.586v-3.19h-2.854v-.768h2.854v-2.783h-3.262v-.768h4.293c-.563-.551-1.715-1.367-2.614-1.895l.528-.576c.923.527,2.11,1.307,2.687,1.859l-.528.611h3.022v.768h-3.31v2.783h2.938v.768h-2.938v3.19Z"/><path d="M284.423,125.332c-.036.132-.168.216-.348.216-.132.828-.324,1.703-.528,2.447.648.276,1.332.587,2.015.936l-.384.803c-.648-.324-1.271-.636-1.883-.899-.576,1.727-1.403,2.986-2.674,3.826-.168-.168-.468-.372-.684-.504,1.259-.828,2.039-1.955,2.59-3.67-1.211-.48-2.314-.815-3.202-.888-.828,3.022-1.571,3.814-3.01,3.814s-1.715-1.151-1.715-1.883c0-1.859,1.931-2.723,4.078-2.735.252-.959.479-2.135.647-3.382-.563.048-2.482.18-3.394.24-.048.084-.144.144-.252.168l-.108-.972c1.031-.036,3.262-.18,3.982-.251.132-.012.18-.072.264-.132l.744.444c-.06.096-.156.144-.3.192-.192,1.332-.479,2.71-.744,3.742.923.072,2.027.396,3.226.852.204-.72.384-1.643.516-2.615l1.163.252ZM278.487,127.55c-1.727.024-3.106.708-3.106,1.979,0,.671.324,1.127.888,1.127.875,0,1.451-.3,2.219-3.106Z"/><path d="M287.429,130.692c.84-1.067,1.248-2.878,1.415-4.449l.78.167c-.192,1.607-.587,3.562-1.463,4.726l-.731-.444ZM290.859,125.248l1.055.072c-.012.084-.072.144-.228.156v5.937c0,.563.132.671.828.671h2.362c.744,0,.864-.443.948-2.59.204.156.528.3.768.372-.12,2.291-.384,2.975-1.691,2.975h-2.447c-1.248,0-1.595-.312-1.595-1.439v-6.152ZM295.165,124.636c-.948-.684-2.734-1.583-4.209-2.099l.503-.624c1.463.503,3.25,1.379,4.21,2.015l-.504.708ZM298.199,130.776c-.288-1.283-1.199-3.178-2.243-4.569l.72-.348c1.091,1.391,2.015,3.25,2.327,4.545l-.804.372Z"/><path d="M303.195,129.277l1.392-.552.156.696c-1.247.576-2.579,1.139-3.418,1.499,0,.096-.048.168-.132.204l-.42-.912c.456-.156,1.031-.384,1.655-.624v-3.982h-1.451v-.768h1.451v-2.867l1.008.072c-.012.084-.084.132-.24.156v2.639h1.355v.768h-1.355v3.67ZM306.338,131.196c0,.66.156.815.996.815h3.058c.72,0,.839-.336.936-1.775.192.144.504.276.731.324-.132,1.655-.396,2.183-1.655,2.183h-3.095c-1.355,0-1.739-.3-1.739-1.559v-4.042l-1.211.516-.312-.72,1.523-.647v-3.286l1.007.072c-.012.084-.084.144-.24.168v2.71l1.739-.744v-3.346l.996.06c-.012.084-.072.144-.228.168v2.794l1.919-.828.168-.132.66.24c-.012.048-.06.096-.12.132,0,2.279-.036,4.174-.132,4.63-.108.731-.516.851-1.787.851-.036-.228-.096-.527-.192-.719.3.024.719.024.852.024.192,0,.324-.06.384-.348.072-.3.096-1.787.096-3.802l-1.847.792v4.605h-.768v-4.27l-1.739.744v4.39Z"/><path d="M315.232,132.335c-.372-.863-.516-2.65-.516-4.222,0-1.595.252-3.598.647-5.601l1.164.228c-.024.12-.144.204-.312.216-.432,1.644-.696,3.778-.696,5.169,0,.912.012,1.823.108,2.267.264-.72.744-1.871.996-2.435l.54.504c-.396.815-1.235,2.638-1.235,3.202,0,.168.036.348.12.576l-.815.096ZM318.279,125.272c1.007.012,2.015.024,3.022-.048-.048-1.032-.084-1.919-.108-2.807l1.211.036c-.012.12-.12.216-.312.252.012.768.036,1.547.06,2.458.948-.096,1.715-.264,2.351-.48l.108.84c-.576.18-1.403.348-2.423.432.048,1.332.108,2.734.144,3.502.912.372,1.823.959,2.447,1.523l-.468.768c-.492-.492-1.199-1.02-1.943-1.367-.012,1.019-.204,2.159-2.003,2.159-1.403,0-2.339-.672-2.339-1.727,0-1.223,1.235-1.763,2.339-1.763.372,0,.768.048,1.139.156-.036-.756-.108-2.015-.168-3.19-.372.024-.875.036-1.223.036h-1.823l-.012-.78ZM321.565,129.985c-.384-.12-.792-.216-1.188-.216-.731,0-1.607.264-1.607,1.02,0,.671.72,1.007,1.595,1.007.887,0,1.211-.432,1.211-1.391l-.012-.42Z"/><path d="M332.102,129.481c-.084-.468-.096-.54-.096-.743,0-.672.312-1.295,1.139-2.039.863-.768,1.319-1.235,1.319-1.919,0-.744-.66-1.283-1.991-1.283-.731,0-1.487.192-1.991.468l-.324-.696c.66-.336,1.583-.552,2.423-.552,2.075,0,2.878.972,2.878,1.967,0,.924-.6,1.571-1.547,2.375-.696.587-.996,1.139-.996,1.751,0,.096.012.192.024.3l.06.372h-.899ZM331.886,131.4c0-.611.432-.803.708-.803.42,0,.696.324.696.779,0,.372-.24.744-.708.744-.396,0-.696-.324-.696-.72Z"/><path d="M46.355,150.996c-1.055.192-2.458.276-3.682.276-.983,0-1.847-.06-2.315-.156-1.451-.324-2.075-1.235-2.075-2.291,0-.899.503-1.835,1.223-2.555l.696.36c-.672.684-1.056,1.463-1.056,2.123,0,.708.468,1.331,1.5,1.571.408.083,1.103.132,1.919.132,1.163,0,2.579-.096,3.73-.324l.06.864ZM40.971,144.952c.624-.492,1.475-1.068,2.123-1.392v-.012c-.911.108-2.998.144-4.33.144,0-.228,0-.624-.012-.839h.647c1.535,0,4.677-.024,6.188-.384l.096.875c-.396.06-.684.12-1.259.36-.672.276-1.835.923-2.771,1.679l-.684-.432ZM46.344,146.654c-.348-.527-1.091-1.247-1.607-1.631l.396-.372c.576.42,1.271,1.116,1.643,1.619l-.432.384ZM47.603,145.515c-.336-.48-1.043-1.199-1.607-1.619l.396-.384c.588.444,1.283,1.127,1.643,1.631l-.432.372Z"/><path d="M52.06,149.689c-.024.072-.096.12-.228.108-.288.875-.768,1.823-1.307,2.398-.132-.12-.396-.312-.576-.419.516-.528.971-1.439,1.211-2.351l.899.264ZM53.943,141.522v7.627h-3.382v-7.627h3.382ZM53.211,143.848v-1.643h-1.943v1.643h1.943ZM53.211,146.151v-1.655h-1.943v1.655h1.943ZM53.211,148.465v-1.667h-1.943v1.667h1.943ZM53.319,149.425c.396.576.828,1.355,1.02,1.859-.144.072-.288.132-.66.324-.18-.516-.6-1.319-.972-1.907l.612-.276ZM61.211,149.461v.636h-.888v1.259c0,.828-.348.863-2.171.863-.036-.204-.132-.479-.228-.671.384.012.755.024,1.031.024.564,0,.624,0,.624-.228v-1.247h-3.813v2.123h-.732v-2.123h-.911v-.636h.911v-2.926h2.243v-.875h-3.022v-.624h1.715v-.815h-1.031v-.612h1.031v-.792h-1.451v-.624h1.451v-1.115l.959.06c-.012.072-.072.132-.228.156v.899h1.919v-1.115l.959.06c-.012.084-.072.132-.228.156v.899h1.547v.624h-1.547v.792h1.223v.612h-1.223v.815h1.799v.624h-3.142v.875h2.314v2.926h.888ZM57.277,147.158h-1.511v.839h1.511v-.839ZM55.766,148.597v.864h1.511v-.864h-1.511ZM56.701,142.816v.792h1.919v-.792h-1.919ZM56.701,144.22v.815h1.919v-.815h-1.919ZM59.58,147.158h-1.571v.839h1.571v-.839ZM58.009,149.461h1.571v-.864h-1.571v.864Z"/><path d="M68.522,141.809h.815c0,2.147.276,6.8,5.121,9.679-.18.144-.503.48-.647.684-3.118-1.895-4.414-4.642-4.941-6.98-.863,3.202-2.423,5.601-4.941,6.992-.156-.168-.468-.468-.671-.612,2.65-1.379,4.198-3.934,4.953-7.424l.492.12c-.096-.6-.144-1.151-.156-1.631h-3.059v-.815h3.035v-.012Z"/><path d="M78.484,142.685c-.024.108-.156.18-.324.192-.144.899-.228,1.979-.228,2.986,0,.444.024.875.048,1.259.144,2.039.972,3.274,1.895,3.262.48,0,1.104-1.223,1.535-2.566.168.168.492.396.696.516-.552,1.619-1.248,2.938-2.243,2.962-1.523.024-2.579-1.823-2.747-4.125-.036-.456-.048-.959-.048-1.5,0-1.055.06-2.207.18-3.226l1.235.24ZM86.436,148.262c-.336-2.099-1.403-3.61-3.022-4.51l.528-.647c1.751.936,3.034,2.663,3.382,4.881l-.887.276Z"/><path d="M97.044,143.692c-1.019.36-2.375.588-3.682.684-.504,2.747-1.235,5.481-2.195,7.496l-.864-.324c.983-1.931,1.703-4.414,2.171-7.136-.24.012-1.847.024-2.207.012l-.012-.816c.192.012.444.012.72.012.108,0,1.307,0,1.619-.012.12-.768.24-1.607.312-2.338l1.235.12c-.012.132-.18.228-.348.24-.072.527-.192,1.175-.3,1.907,1.175-.108,2.363-.312,3.358-.671l.192.827ZM100.235,151.68c-.36.012-.731.024-1.104.024-1.127,0-2.195-.084-2.842-.264-.852-.24-1.343-.864-1.332-1.655.012-.528.24-1.127.744-1.739l.72.312c-.42.492-.624.959-.624,1.332,0,.947.912,1.187,3.094,1.187.444,0,.899-.012,1.343-.048v.852ZM95.558,145.899c1.235-.396,2.938-.647,4.354-.612v.816c-1.355-.036-2.927.156-4.15.54l-.204-.744Z"/><path d="M110.245,143.692c-1.019.36-2.375.588-3.682.684-.504,2.747-1.235,5.481-2.195,7.496l-.864-.324c.983-1.931,1.703-4.414,2.171-7.136-.24.012-1.847.024-2.207.012l-.012-.816c.192.012.444.012.72.012.108,0,1.307,0,1.619-.012.12-.768.24-1.607.312-2.338l1.235.12c-.012.132-.18.228-.348.24-.072.527-.192,1.175-.3,1.907,1.175-.108,2.363-.312,3.358-.671l.192.827ZM113.447,151.62c-.468.036-.972.06-1.463.06-.972,0-1.919-.084-2.495-.24-.852-.24-1.343-.864-1.332-1.655.012-.528.24-1.127.744-1.739l.72.312c-.42.492-.624.959-.624,1.332,0,.947.912,1.163,2.866,1.163.528,0,1.08-.024,1.559-.072l.024.839ZM108.758,145.899c1.235-.396,2.938-.647,4.354-.612v.816c-1.355-.036-2.927.156-4.15.54l-.204-.744ZM110.869,141.737c.587.432,1.295,1.127,1.667,1.631l-.444.384c-.348-.516-1.104-1.259-1.619-1.643l.396-.372ZM112.415,140.946c.588.432,1.295,1.103,1.655,1.619l-.444.384c-.336-.468-1.043-1.2-1.607-1.631l.396-.372Z"/><path d="M118.084,142.685c-.024.108-.156.18-.324.192-.144.899-.228,1.979-.228,2.986,0,.444.024.875.048,1.259.144,2.039.972,3.274,1.895,3.262.48,0,1.104-1.223,1.535-2.566.168.168.492.396.696.516-.552,1.619-1.248,2.938-2.243,2.962-1.523.024-2.579-1.823-2.747-4.125-.036-.456-.048-.959-.048-1.5,0-1.055.06-2.207.18-3.226l1.235.24ZM126.036,148.262c-.336-2.099-1.403-3.61-3.022-4.51l.528-.647c1.751.936,3.034,2.663,3.382,4.881l-.887.276Z"/><path d="M136.644,143.692c-1.02.36-2.375.588-3.682.684-.504,2.747-1.235,5.481-2.195,7.496l-.864-.324c.983-1.931,1.703-4.414,2.171-7.136-.24.012-1.847.024-2.207.012l-.012-.816c.192.012.444.012.72.012.108,0,1.307,0,1.619-.012.12-.768.24-1.607.312-2.338l1.235.12c-.012.132-.18.228-.348.24-.072.527-.192,1.175-.3,1.907,1.175-.108,2.363-.312,3.358-.671l.192.827ZM139.835,151.68c-.36.012-.731.024-1.104.024-1.127,0-2.195-.084-2.842-.264-.852-.24-1.343-.864-1.332-1.655.012-.528.24-1.127.744-1.739l.72.312c-.42.492-.624.959-.624,1.332,0,.947.912,1.187,3.094,1.187.444,0,.899-.012,1.343-.048v.852ZM135.158,145.899c1.235-.396,2.938-.647,4.354-.612v.816c-1.355-.036-2.926.156-4.15.54l-.204-.744Z"/><path d="M149.173,143.836c-.636.216-1.427.372-2.327.48,0,.755-.012,1.595-.012,2.291.936-.324,1.943-.552,2.71-.552,2.039,0,3.311,1.104,3.311,2.794,0,1.583-.972,2.818-2.819,2.818-.887,0-1.691-.312-2.338-1.151.144-.18.312-.419.432-.624.587.744,1.223.983,1.919.983,1.271,0,1.943-.911,1.943-2.027,0-1.163-.852-2.075-2.458-2.062-.768.012-1.763.228-2.699.576,0,.887.024,2.314.024,2.65,0,1.08-.708,1.907-1.883,1.907-1.104,0-2.027-.684-2.027-1.847,0-.768.552-1.631,1.499-2.303.432-.3.983-.612,1.595-.864v-2.531c-.959.084-1.919.096-2.878.084l-.012-.815c1.056.012,2.015,0,2.891-.072v-2.243l1.211.072c-.012.144-.132.228-.336.252-.024.468-.036,1.175-.048,1.847.803-.096,1.535-.264,2.159-.503l.144.839ZM146.055,149.965c0-.312-.012-1.295-.012-2.279-.444.204-.863.456-1.223.708-.624.444-1.092,1.115-1.092,1.643,0,.624.408,1.139,1.224,1.139.612,0,1.104-.419,1.104-1.199v-.012ZM152.831,145.263c-.611-.612-1.763-1.307-2.734-1.727l.42-.708c1.031.444,2.183,1.127,2.842,1.727l-.528.708Z"/><path d="M163.968,144.064l.6.36c-.036.048-.096.084-.156.096-.587.864-1.427,1.619-2.398,2.267,1.391.671,3.058,1.139,4.809,1.367-.18.18-.396.527-.516.755-.587-.096-1.151-.216-1.715-.36v3.634h-.828v-.408h-5.097v.419h-.78v-3.49c-.635.192-1.283.372-1.907.503-.072-.204-.252-.54-.396-.708,1.643-.312,3.418-.888,4.93-1.679-.672-.444-1.271-.947-1.763-1.523-.563.456-1.223.887-1.979,1.259-.12-.18-.36-.444-.552-.564,1.679-.768,2.878-1.859,3.502-2.806l1.007.168c-.012.096-.096.144-.24.156-.144.192-.3.396-.48.6h3.802l.156-.048ZM156.976,143.044v1.403h-.78v-2.159h4.569v-1.235l1.067.072c-.012.084-.083.144-.24.156v1.008h4.642v2.159h-.815v-1.403h-8.443ZM164.256,148.465c-1.079-.3-2.099-.708-3.01-1.199-.828.468-1.739.864-2.663,1.199h5.673ZM158.667,151.08h5.097v-1.919h-5.097v1.919ZM159.363,144.772l-.036.036c.492.6,1.164,1.127,1.931,1.583.779-.48,1.451-1.02,1.967-1.619h-3.862Z"/><path d="M171.471,144.484v.803c.348.456,1.271,1.847,1.487,2.195-.096.132-.192.264-.468.6-.192-.396-.647-1.199-1.02-1.823v5.925h-.743v-5.913c-.42,1.403-.984,2.771-1.571,3.598-.096-.216-.288-.516-.42-.695.756-1.02,1.523-2.987,1.895-4.689h-1.655v-.756h1.751v-2.674l.983.072c-.012.072-.084.132-.24.156v2.447h1.427v.756h-1.427ZM172.419,150.948c.779-.384,1.943-1.032,3.07-1.655l.192.6c-.983.624-2.015,1.248-2.687,1.631,0,.096-.036.168-.108.216l-.468-.792ZM177.648,148.969v.012c.636.972,1.487,1.728,2.507,2.147-.18.156-.408.444-.528.648-1.199-.6-2.159-1.667-2.831-2.999v2.482c0,.9-.36.972-2.003.972-.036-.216-.132-.552-.24-.768.552.012,1.091.012,1.259.012.168-.012.204-.06.204-.216v-4.438h-3.119v-.695h3.119v-1.067h-2.435v-.672h2.435v-1.02h-2.819v-.695h1.511c-.12-.396-.384-.936-.635-1.355l.647-.216c.3.456.612,1.067.72,1.451l-.312.12h2.447l-.264-.096c.252-.42.588-1.091.744-1.523l.924.312c-.036.06-.12.108-.252.108-.168.336-.456.828-.708,1.2h1.751v.695h-2.975v1.02h2.651v.672h-2.651v1.067h3.13v.695h-3.13v.384c.192.588.456,1.151.78,1.655.503-.456,1.199-1.188,1.571-1.691l.732.54c-.048.06-.144.084-.252.072-.396.432-1.104,1.08-1.619,1.487l-.36-.3ZM174.554,149.233c-.24-.456-.768-1.151-1.247-1.655l.563-.36c.492.492,1.031,1.151,1.271,1.607l-.588.408Z"/><path d="M188.306,143.249c-.048.108-.144.192-.3.192-.432,3.73-1.679,6.98-3.67,6.98-1.008,0-1.919-1.007-1.919-2.902,0-2.878,2.243-5.289,5.397-5.289,3.466,0,4.965,2.195,4.965,4.533,0,2.854-1.655,4.234-4.558,4.905-.108-.191-.312-.516-.504-.731,2.759-.528,4.174-1.871,4.174-4.138,0-1.979-1.271-3.778-4.078-3.778-.12,0-.252.012-.36.024l.852.204ZM187.154,143.092c-2.423.3-3.922,2.303-3.922,4.402,0,1.283.552,2.087,1.127,2.087,1.451,0,2.495-3.203,2.794-6.489Z"/><path d="M197.571,148.034v-5.829l1.14.072c-.012.108-.096.192-.288.216v5.541h-.852ZM204.252,141.737c-.012.12-.096.18-.288.204v3.814c0,2.519-.863,4.821-4.306,6.153-.12-.18-.419-.492-.624-.648,3.322-1.235,4.066-3.286,4.066-5.505v-4.09l1.151.072Z"/><path d="M219.071,142.493c-.024.048-.096.084-.156.108-.647,1.535-1.679,2.867-2.842,3.838-.18-.156-.516-.372-.731-.492,1.103-.804,1.991-1.967,2.387-2.974h-8.587v-.816h9.043l.132-.06.756.396ZM214.394,144.676c-.012.096-.12.18-.276.204-.348,2.831-1.319,5.529-3.79,6.956-.168-.144-.48-.419-.708-.552,2.447-1.343,3.322-3.85,3.61-6.74l1.163.132Z"/><path d="M224.883,143.284c-.012.108-.12.18-.276.204-.072,3.226-.336,6.165-2.183,8.312-.192-.144-.48-.324-.72-.456,1.787-1.943,2.003-4.941,2.039-8.167l1.139.108ZM227.989,150.192c2.003-.971,3.298-2.722,3.994-4.821.18.156.54.36.744.468-.852,2.423-2.339,4.21-4.894,5.421-.036.096-.12.192-.204.24l-.624-.792.132-.18v-8.803l1.115.06c-.012.108-.096.204-.264.228v8.179Z"/><path d="M239.486,141.414c-.036.096-.156.192-.372.204-.083.528-.191,1.151-.3,1.619,1.176-.072,2.483-.276,3.526-.587l.132.815c-1.115.276-2.435.468-3.814.576-.576,2.303-1.367,4.173-2.542,5.901l-.804-.324c1.091-1.571,1.919-3.37,2.435-5.553h-2.387v-.78h1.427c.372,0,.756-.012,1.104-.012.144-.636.252-1.319.336-2.027l1.259.168ZM242.677,146.522c.012.972.084,1.631.156,2.458.768.3,1.763.816,2.555,1.392l-.432.768c-.659-.504-1.475-.972-2.123-1.259,0,1.199-.48,2.135-2.243,2.135-1.332,0-2.351-.6-2.339-1.727,0-1.199,1.259-1.775,2.363-1.775.432,0,.875.083,1.355.216-.048-.768-.108-1.547-.108-2.111l.816-.096ZM242.017,149.521c-.492-.192-.996-.276-1.427-.276-.72,0-1.571.288-1.583,1.031,0,.684.672,1.007,1.607,1.007.863,0,1.415-.419,1.415-1.211,0-.192,0-.372-.012-.552ZM245.303,145.287c-1.355.012-2.999.228-4.246.588l-.132-.756c1.368-.396,3.022-.647,4.33-.647l.048.815Z"/><path d="M258.023,145.803v3.994h-.803v-.612h-7.16c-.192,1.08-.636,2.207-1.535,3.083-.12-.168-.444-.444-.612-.564,1.307-1.259,1.499-2.998,1.499-4.282v-1.619h8.611ZM258.851,142.805h-4.857v1.283h4.294v.708h-9.151v-.708h4.042v-1.283h-4.773v-.708h4.773v-1.067l1.043.072c-.012.084-.072.144-.228.168v.828h4.857v.708ZM253.19,146.499h-2.975v.936c0,.324-.012.671-.048,1.043h3.022v-1.979ZM257.22,148.478v-1.979h-3.238v1.979h3.238Z"/><path d="M271.811,146.199c-.024.012-.048.024-.072.024-.072,0-.132-.036-.18-.072-.912.3-2.243.792-3.238,1.223.024.276.036.588.036.936,0,.384-.012.815-.036,1.283l-.875.048c.036-.432.06-.983.06-1.451,0-.18,0-.348-.012-.479-1.355.66-2.458,1.463-2.458,2.183,0,.696.828,1.032,2.482,1.032,1.164,0,2.243-.024,3.011-.12l.012.804c-.708.072-1.787.096-3.022.096-2.303,0-3.322-.552-3.322-1.775,0-1.056,1.391-2.075,3.19-2.975-.072-.755-.408-1.127-.887-1.127-.875,0-1.787.492-2.867,1.691-.336.372-.803.839-1.319,1.307l-.587-.587c1.199-1.056,2.327-2.063,3.022-4.426l-.672.012h-2.003v-.78c.731.012,1.583.012,2.075.012l.816-.012c.132-.552.24-1.067.324-1.715l1.175.144c-.024.12-.12.192-.3.216-.084.48-.192.9-.3,1.332.815-.012,2.566-.204,4.125-.696l.144.804c-1.499.468-3.31.636-4.498.672-.288.899-.587,1.619-.863,2.027h.012c.528-.468,1.319-.78,1.931-.78.815,0,1.331.588,1.487,1.559,1.007-.456,2.278-.947,3.238-1.319l.372.912Z"/><path d="M283.956,150.996c-1.055.192-2.458.276-3.682.276-.984,0-1.847-.06-2.315-.156-1.451-.324-2.075-1.235-2.075-2.291,0-.899.503-1.835,1.223-2.555l.696.36c-.672.684-1.056,1.463-1.056,2.123,0,.708.468,1.331,1.5,1.571.408.083,1.103.132,1.919.132,1.163,0,2.578-.096,3.729-.324l.06.864ZM278.571,144.952c.624-.492,1.475-1.068,2.123-1.392v-.012c-.911.108-2.998.144-4.33.144,0-.228,0-.624-.012-.839h.647c1.535,0,4.677-.024,6.188-.384l.096.875c-.396.06-.684.12-1.259.36-.672.276-1.835.923-2.771,1.679l-.684-.432ZM283.944,146.654c-.348-.527-1.091-1.247-1.607-1.631l.396-.372c.576.42,1.271,1.116,1.643,1.619l-.432.384ZM285.203,145.515c-.336-.48-1.043-1.199-1.607-1.619l.396-.384c.588.444,1.283,1.127,1.643,1.631l-.432.372Z"/><path d="M291.398,146.391c-.228-.408-.492-.828-.755-1.188l.612-.288c.563.755,1.163,1.775,1.391,2.435l-.648.312c-.06-.192-.156-.42-.275-.66l-1.308.072v5.133h-.731v-5.097c-.684.024-1.307.06-1.799.072-.012.096-.084.132-.168.156l-.216-.899h.887c.264-.312.552-.671.828-1.055-.372-.54-1.02-1.235-1.595-1.739l.408-.528c.12.096.24.204.36.324.42-.708.912-1.679,1.188-2.375l.875.372c-.048.072-.12.096-.252.096-.336.696-.888,1.679-1.343,2.351.312.312.588.624.78.9.54-.804,1.055-1.655,1.427-2.351l.851.408c-.048.06-.144.096-.275.096-.624,1.02-1.607,2.447-2.471,3.49l2.23-.036ZM289.168,148.202c-.024.072-.096.12-.228.12-.168,1.019-.444,2.17-.815,2.878-.156-.108-.42-.228-.6-.312.348-.672.611-1.823.768-2.915l.875.228ZM291.747,150.528c-.108-.647-.444-1.643-.792-2.387l.624-.204c.36.755.708,1.715.839,2.362l-.671.228ZM298.079,141.677l.384.036c0,.072-.012.168-.012.264-.096,2.782-.204,3.754-.479,4.09-.192.24-.396.336-1.224.336-.252,0-.54-.012-.828-.024-.024-.228-.108-.527-.228-.731.54.048,1.055.06,1.247.06.18,0,.3-.024.384-.12.18-.204.276-1.019.348-3.154h-2.422c-.228,1.667-.684,3.322-2.423,4.246-.096-.18-.324-.443-.503-.575,1.475-.756,1.931-2.147,2.123-3.67h-1.895v-.755h5.529ZM292.874,152.219v-4.821h5.301v4.773h-.779v-.479h-3.766v.527h-.755ZM297.395,148.13h-3.766v2.83h3.766v-2.83Z"/><path d="M301.312,146.57c-.108-.18-.336-.467-.503-.635,2.146-1.14,4.186-3.154,5.121-4.917.144.012.288.024,1.187.072-.036.108-.132.156-.251.18,1.151,1.799,3.286,3.586,5.193,4.498-.192.204-.396.479-.54.72-1.943-1.056-4.054-2.854-5.157-4.594-.959,1.631-2.95,3.502-5.049,4.677ZM303.783,145.359c.6.048.839.06,1.067.072-.012.084-.084.144-.24.168v1.499c0,1.727-.264,3.694-2.723,5.121-.132-.18-.432-.443-.636-.576,2.315-1.307,2.531-3.046,2.531-4.557v-1.727ZM308.149,145.311l1.067.072c-.012.084-.072.144-.24.168v6.644h-.828v-6.884Z"/><path d="M317.967,141.581c-.024.144-.132.228-.372.264-.096,1.391-.216,4.569-.216,6.344,0,1.787.887,2.651,2.398,2.651,1.463,0,2.951-.732,4.318-2.279.12.192.396.576.54.708-1.403,1.595-3.106,2.435-4.869,2.435-2.183,0-3.298-1.259-3.298-3.526,0-1.511.108-5.229.192-6.705l1.307.108Z"/><path d="M328.204,142.924c.744.048,1.739.048,2.555.048.54,0,1.151-.012,1.655-.024-.012-.576-.024-1.248-.024-1.667l1.211.06c-.012.144-.12.216-.324.252-.012.192,0,1.115,0,1.319,1.403-.072,2.794-.192,3.982-.468l.108.792c-1.175.264-2.566.384-4.09.456.012.72.024,1.463.048,2.207,1.164-.072,2.411-.228,3.382-.468l.096.78c-1.008.216-2.267.359-3.466.419l.096,2.003c1.103.36,2.278.983,3.526,1.871l-.528.731c-1.079-.852-2.099-1.427-2.974-1.763,0,.192.012.408.012.563-.012,1.139-.695,1.799-2.147,1.799-1.523,0-2.638-.624-2.638-1.751,0-1.151,1.307-1.787,2.65-1.787.396,0,.815.036,1.259.144-.012-.516-.036-1.139-.048-1.787-.384.012-.815.024-1.164.024-2.051,0-2.626-.324-2.626-1.019,0-.456.348-.828,1.115-1.319l.576.372c-.54.3-.827.564-.827.804,0,.36.563.432,2.086.432.264,0,.54,0,.804-.012l-.072-2.219c-.516.024-1.116.024-1.655.024-.768,0-1.859,0-2.579-.024v-.792ZM332.642,149.173c-.479-.132-.923-.192-1.343-.192-.911,0-1.835.372-1.835,1.092,0,.708.84,1.055,1.883,1.055.947,0,1.307-.419,1.307-1.259l-.012-.695Z"/><path d="M346.37,143.044c-.012-.264-.048-1.571-.072-1.871l1.235.048c-.012.096-.096.216-.312.251,0,.144,0,.288.024,1.547,1.475-.048,3.022-.084,3.922-.096v.828c-1.02-.024-2.471,0-3.898.048.024.935.048,1.799.084,2.458.12.396.144.755.144,1.259,0,.384-.036.828-.12,1.163-.312,1.403-1.343,2.639-3.454,3.479-.156-.204-.419-.504-.611-.684,1.835-.66,2.818-1.655,3.118-2.795h-.012c-.251.36-.695.636-1.235.636-1.067,0-2.015-.875-2.015-2.099-.012-1.271,1.02-2.243,2.159-2.243.432,0,.875.156,1.115.372,0-.204-.024-1.007-.048-1.523-1.247.024-5.037.156-5.529.18l-.024-.792,2.734-.072,2.794-.096ZM346.598,147.254c0-.468,0-1.56-1.224-1.56-.827.012-1.415.648-1.427,1.523,0,.839.635,1.391,1.331,1.391.852,0,1.319-.66,1.319-1.355Z"/><path d="M356.991,150.528c0,.923-.755,1.679-1.679,1.679s-1.679-.756-1.679-1.679.755-1.679,1.679-1.679c.948,0,1.679.78,1.679,1.679ZM356.559,150.528c0-.696-.552-1.247-1.248-1.247-.684,0-1.235.551-1.235,1.247,0,.684.552,1.235,1.235,1.235.72,0,1.248-.576,1.248-1.235Z"/><path d="M58.738,70.871c-6.316,0-15.767-5.642-15.767-18.516s9.451-18.467,15.767-18.467c6.22,0,15.719,5.497,15.719,18.467s-9.451,18.516-15.719,18.516ZM58.738,35.286c-4.629,0-9.499,5.641-9.499,17.069,0,9.836,3.954,17.069,9.499,17.069,3.279,0,5.545-2.749,6.558-4.292,1.929-3.038,2.941-8.486,2.941-13.164,0-8.728-3.665-16.683-9.499-16.683Z"/><path d="M113.177,48.739c-1.543,0-2.073,1.302-2.362,2.073l-7.281,20.059h-.964l-6.317-16.297-5.931,16.297h-.964l-7.522-19.335c-1.109-2.797-2.363-2.797-3.472-2.797v-1.591h10.608v1.591c-.579,0-1.977,0-1.977,1.398,0,.289,0,.964.337,1.784l4.243,10.945,3.81-10.56-.338-.771c-.964-2.17-1.639-2.797-3.038-2.797h-.675v-1.591h11.379v1.591h-.82c-.82,0-1.736.289-1.736,1.398,0,.53.145,1.157.241,1.398l4.388,11.331,4.099-11.283c.193-.579.241-.868.241-1.157,0-1.205-.627-1.688-1.591-1.688h-1.64v-1.591h9.065v1.591h-1.784Z"/><path d="M117.663,68.412c1.784,0,3.038,0,3.038-2.556v-15.237c0-.289-.096-1.784-1.591-1.784-.578,0-1.109.096-1.639.192l-.241-1.205,8.486-1.591v4.195c1.206-1.35,3.857-4.195,7.715-4.195,3.375,0,5.883,2.845,5.883,7.04v12.633c0,1.35.626,2.507,2.169,2.507h1.157v1.543h-8.39v-16.587c0-3.183-2.073-4.146-3.52-4.146-2.411,0-4.388,2.362-5.015,3.134v13.501c0,2.556,2.025,2.556,3.279,2.556v1.543h-11.331v-1.543Z"/><path d="M156.721,70.871c-5.931,0-10.849-4.677-10.849-11.813,0-7.232,5.063-12.826,10.608-12.826,2.7,0,4.629,1.35,5.738,2.507,3.134,3.327,3.423,6.992,3.52,8.535h-14.61c-.29,8.101,3.713,11.138,7.04,11.138,3.472,0,6.076-3.375,7.185-4.773l1.157.916c-1.205,1.88-4.002,6.316-9.788,6.316ZM156.479,47.823c-4.388,0-5.015,5.642-5.256,7.908h9.306c-.048-2.797-.193-7.908-4.05-7.908Z"/><path d="M178.902,50.86c1.35-1.784,3.472-4.629,8.101-4.629,2.989,0,4.388,1.447,4.388,3.568,0,1.833-1.109,3.568-3.423,3.568-1.688,0-3.23-.964-3.279-2.893-.048-.82-.145-1.157-.868-1.157-2.7,0-4.532,5.015-4.918,6.172v9.595c0,2.267.964,3.327,3.423,3.327h1.302v1.543h-14.176v-1.543h.916c2.363,0,3.423-.964,3.423-3.327v-13.211c0-2.266-.868-2.556-2.025-2.556-.964,0-1.495.145-1.88.241l-.386-.964,9.402-2.363v4.629Z"/><path d="M195.828,46.135l-.579-.868c2.122-1.736,2.749-2.941,2.749-3.761,0-.627-.337-.724-.723-.868-1.35-.482-2.314-1.784-2.314-3.279,0-1.784,1.495-3.472,3.52-3.472,1.591,0,3.472,1.157,3.472,3.761s-2.17,5.834-6.124,8.486Z"/><path d="M213.09,70.871c-.916,0-1.832-.145-2.796-.386-.337-.096-2.459-.579-2.7-.579-1.109,0-2.314.627-2.941.964l-2.507-7.667,1.784-.675c.771,1.688,1.254,2.411,2.122,3.327,1.543,1.543,4.05,2.941,6.75,2.941,1.832,0,3.857-1.061,3.857-3.23,0-1.64-.53-2.411-6.172-5.208-4.436-2.17-6.799-4.243-6.799-7.667,0-3.086,2.17-6.461,6.558-6.461.724,0,1.35.096,2.845.53,1.254.386,1.64.386,2.122.386.434,0,1.591,0,2.893-.916l2.074,7.425-1.398.482c-.675-1.543-2.749-6.22-7.956-6.22-2.073,0-3.327.917-3.327,2.797,0,1.446.578,2.411,5.545,4.822,5.689,2.796,7.474,4.677,7.474,8.101,0,4.822-3.857,7.232-7.426,7.232Z"/><path d="M264.684,48.739c-1.88,0-2.604,1.832-2.845,2.411l-7.763,19.721h-1.35l-8.583-19.143c-1.35-2.989-2.314-2.989-3.568-2.989v-1.591h10.945v1.591h-.771c-.868,0-1.543.434-1.543,1.35,0,.579.29,1.253.482,1.639l5.449,12.103,5.063-12.681c.145-.338.192-.965.192-1.206,0-.531-.048-1.206-1.639-1.206h-1.639v-1.591h8.534v1.591h-.964Z"/><path d="M279.006,70.871c-5.689,0-10.656-5.545-10.656-12.295,0-6.654,4.822-12.344,10.656-12.344s10.656,5.69,10.656,12.344c0,6.75-4.966,12.295-10.656,12.295ZM279.006,47.533c-3.423,0-5.062,1.977-5.062,11.669,0,9.884,2.796,10.367,5.111,10.367,3.423,0,5.015-2.218,5.015-11.669,0-9.595-2.652-10.367-5.063-10.367Z"/><path d="M292.026,68.412h1.736c1.543,0,2.411-1.109,2.411-2.604v-14.272c0-1.061-.289-2.411-1.784-2.411-.145,0-.82,0-1.688.289l-.289-1.205,8.728-1.977v19.577c0,1.688.723,2.604,2.604,2.604h1.543v1.543h-13.26v-1.543ZM302.056,37.311c0,1.881-1.495,3.424-3.423,3.424-1.88,0-3.423-1.543-3.423-3.424,0-1.929,1.591-3.423,3.423-3.423,1.88,0,3.423,1.495,3.423,3.423Z"/><path d="M318.546,70.871c-6.22,0-10.222-4.918-10.222-11.62,0-6.558,3.761-13.019,11.669-13.019,1.253,0,7.329.145,7.329,4.822,0,1.977-1.736,3.134-3.183,3.134-1.253,0-2.652-.771-2.652-2.459,0-.289.097-1.543.097-1.784,0-.868-.724-2.122-2.459-2.122-4.05,0-5.304,6.124-5.304,10.029,0,6.124,2.749,10.415,6.992,10.415,2.845,0,4.629-1.977,6.316-4.243l1.157,1.061c-1.543,2.073-4.195,5.786-9.74,5.786Z"/><path d="M343.09,70.871c-5.931,0-10.849-4.677-10.849-11.813,0-7.232,5.063-12.826,10.608-12.826,2.7,0,4.629,1.35,5.738,2.507,3.134,3.327,3.424,6.992,3.52,8.535h-14.61c-.289,8.101,3.713,11.138,7.04,11.138,3.472,0,6.075-3.375,7.184-4.773l1.157.916c-1.206,1.88-4.002,6.316-9.788,6.316ZM342.849,47.823c-4.388,0-5.015,5.642-5.255,7.908h9.306c-.048-2.797-.193-7.908-4.05-7.908Z"/><path d="M168.667,101.4c-1.57,0-2.392-.965-2.723-2.276h.072c.302.461.821,1.282,2.146,1.282,1.397,0,2.002-.994,2.002-1.916,0-1.714-1.686-1.815-2.104-1.815-1.224,0-2.42.403-3.457,1.052.015.461.202,2.65.202,2.895,0,1.023-.591,1.613-.864,1.613-.173,0-.23-.072-.706-.763-.375-.562-.965-1.152-1.152-1.268-.173.23-.418.604-.562.835-.101.13-.188.23-.36.23-.619,0-1.066-.519-1.066-1.21,0-.302.058-.547.115-.72.245.302.36.446.576.446.115,0,.245-.086.605-.36.36-.288,1.44-1.109,2.348-1.729-.014-.965-.014-1.238,0-2.636-.273.101-.72.288-1.268.288-1.311,0-1.44-.965-1.469-1.282.489.288.648.375,1.065.375.317,0,.735-.029,1.686-.36,0-.288.015-1.57.015-1.829,0-.504-.015-.792-.317-1.081-.028-.029-.648-.375-.706-.403.245-.23.663-.346.965-.346.403,0,1.498.417,1.498.908,0,.101-.188.619-.274.85-.144.375-.245,1.296-.259,1.541.144-.072.519-.245.807-.446.389-.259.49-.331.749-.331.375,0,.706.245.706.504,0,.288-.274.461-.476.547-.49.216-1.239.504-1.873.735-.058,1.123-.043,2.146-.029,2.448,1.44-.85,3.126-1.181,4.148-1.181,1.311,0,2.809.777,2.809,2.578,0,1.483-1.123,2.823-2.852,2.823ZM163.755,98.332c-.864.706-1.195,1.182-1.628,1.801.663.288,1.268.461,1.47.461.058,0,.129-.015.158-.086.058-.086.058-.62.058-.807s-.043-1.152-.058-1.369ZM171.101,95.033c-.23,0-.288-.029-.778-.288-.058-.029-.13-.029-.259-.029-.202,0-1.095.115-1.268.144v-.058c.115-.101.72-.504.835-.59.144-.115.331-.274.331-.461,0-.663-1.368-1.009-2.017-1.109.188-.115.519-.303,1.196-.303,1.484,0,2.506,1.052,2.506,2.089,0,.115,0,.605-.547.605Z"/><path d="M187.171,98.894c-1.901-.274-3.688-1.051-5.157-2.291-1.152.979-2.146,1.556-2.953,1.974l.778.317h4.062l.476-.461c.086-.086.144-.144.23-.144.058,0,.144.043.303.144l.691.461c.058.043.086.086.086.144,0,.115-.028.13-.36.461.014.461.058,2.29.058,2.622,0,.288,0,.792-.807.792-.302,0-.504-.145-.447-.691h-4.58c.115.691-.461.777-.663.777-.302,0-.576-.144-.576-.417,0-.058.015-.144.015-.187.058-.332.086-.663.086-1.498,0-.317-.029-1.714-.029-2.002-1.671.72-2.737.835-3.284.893l-.015-.101c2.146-.648,4.739-2.593,6.137-3.832-.346-.36-.821-.893-1.21-1.671-.721.677-2.406,2.06-4.379,2.68l-.043-.087c2.593-1.814,3.789-3.63,3.99-4.177.101-.245.115-.447.145-.663h-2.392c.145,1.34-.519,2.031-1.123,2.031-.375,0-.706-.346-.706-.663,0-.389.23-.605.605-.965.634-.619.821-1.238.908-1.556h.043c.101.274.173.504.23.807h3.947c0-.835-.101-1.138-.302-1.786l1.757.461c.087.029.188.101.188.188,0,.173-.202.273-.476.418v.72h3.443l.519-.417c.115-.086.159-.144.302-.144.115,0,.23.101.288.158l.836.85c.115.115.173.274.173.375,0,.273-.101.288-1.095.432-.562.475-.994.735-1.297.908l-.072-.058c.144-.576.259-1.167.317-1.758h-6.079l1.412.764c.086.043.158.173.158.259,0,.144-.043.159-.489.317-.159.202-.202.273-.303.375h2.362l.605-.417c.202-.13.216-.159.317-.159.072,0,.158.072.288.173l.778.648c.101.087.101.159.101.216,0,.173-.115.259-.159.274-.115.058-.691.201-.807.23-.59.691-.979,1.08-1.397,1.469,1.771.937,3.803,1.225,5.819,1.182v.144c-.735.403-1.109,1.066-1.253,1.484ZM184.161,99.239h-4.639v2.636h4.639v-2.636ZM180.228,93.996c.504.864,1.354,1.455,1.397,1.484.216-.202.792-.764,1.138-1.484h-2.535Z"/><path d="M193.144,93.434c-.879,0-1.196.029-1.556.101l-.23-.533c.864.072,1.887.086,2.045.086h.26c-.029-1.167-.058-2.708-.274-3.442l1.498.461c.159.043.274.13.274.216,0,.072-.072.145-.13.188-.144.101-.202.13-.303.216-.014.433-.028,1.657-.028,2.362h.144l.375-.389c.129-.13.173-.188.23-.188.072,0,.158.087.273.159l.547.389c.058.043.144.115.144.216,0,.144-.13.158-.216.158h-1.498c0,.216.014,1.009.014,1.282.951.245,1.627.951,1.627,1.584,0,.375-.302.59-.634.59-.316,0-.446-.158-.576-.662-.23-.965-.259-1.081-.417-1.282,0,1.152.072,6.208.072,7.245,0,.735-.648.792-.763.792-.375,0-.547-.187-.547-.533,0-.36.115-2.593.144-3.429.014-.389.043-2.146.043-2.506-.447,1.022-1.383,2.463-2.65,3.5l-.087-.086c1.268-1.772,2.463-4.869,2.665-6.497h-.446ZM201.297,94.068l.418-.475c.144-.159.158-.173.216-.173.072,0,.087.014.274.144l.634.476c.072.058.144.129.144.23,0,.129-.115.144-.216.144h-2.449l.015,1.34h1.974l.59-.562c.101-.101.173-.173.23-.173.086,0,.202.086.274.158l.576.533c.086.072.144.144.144.23,0,.129-.115.158-.216.158h-3.558c.115,1.052.619,1.944,1.037,2.449.187-.288.734-1.124.864-2.002l1.238.821c.115.072.159.216.159.288,0,.13-.144.188-.23.188-.23,0-.259,0-.417.014-.403.259-1.066.634-1.47.878,1.225,1.455,2.867,1.959,3.385,2.118v.086c-.173.029-1.138.216-1.671.893-1.469-.965-2.463-2.751-2.895-4.494,0,.259.058,3.731.058,3.875,0,.821-.115,1.671-1.585,1.959-.245-.821-.821-1.426-1.181-1.613l.043-.129c.303.058.691.101,1.008.101.504,0,.562-.26.562-.864,0-.288-.015-1.613-.015-1.873l-2.161,2.233-.417.417c-.087.49-.145.548-.26.548-.086,0-.173-.043-.23-.145l-.893-1.368c.273-.029.72-.072,1.238-.303.879-.389,2.161-1.224,2.723-1.613v-2.463h-1.109c-.878,0-1.195.029-1.556.086l-.245-.519c.878.072,1.901.086,2.06.086h.85v-1.34h-.591c-.878,0-1.195.043-1.556.101l-.23-.533c.864.086,1.887.086,2.046.086h.331v-1.21h-1.253c-.894,0-1.196.043-1.556.101l-.245-.533c.879.086,1.686.086,2.06.086h1.83c.475-.907.878-1.872,1.023-2.895l1.339.663c.072.029.187.115.187.23,0,.158-.058.188-.504.36-.317.316-1.195,1.138-1.729,1.642h1.57l.504-.475c.13-.129.173-.159.23-.159s.058,0,.259.159l.62.461c.058.043.144.115.144.216,0,.129-.129.144-.23.144h-3.169v1.21h.979ZM196.328,96.762c.908.159,1.945.864,1.945,1.671,0,.504-.375.663-.62.663-.447,0-.576-.389-.663-.634-.303-.937-.49-1.282-.72-1.628l.058-.072ZM197.105,90.165c1.21.173,2.089.864,2.089,1.584,0,.461-.389.663-.663.663-.446,0-.562-.317-.835-1.037-.288-.734-.504-.965-.663-1.152l.072-.058Z"/><path d="M213.493,101.4c1.051-.403,4.523-1.771,4.523-5.301,0-2.002-1.296-3.86-4.148-3.86-.432,0-.72.043-.907.072.965.417,1.238,1.022,1.238,1.238,0,.202-1.065,2.55-1.858,4.033-1.498,2.823-1.988,2.924-2.391,2.924-.317,0-.476-.216-.922-.85-.202-.288-.259-.331-.576-.604-.432-.36-.648-1.124-.648-1.671,0-3.097,2.68-5.618,6.18-5.618,2.953,0,5.373,1.7,5.373,4.552,0,2.996-2.593,4.897-5.863,5.186v-.101ZM208.869,97.122c0,.922.432,2.161.965,2.161.461,0,1.022-1.066,1.325-1.628.461-.879,1.743-3.486,1.743-4.35,0-.101-.015-.49-.49-.908-1.959.447-3.543,2.867-3.543,4.725Z"/><path d="M233.855,96.56c.015.188.029,1.037.043,1.21.015.288.058.734.058,1.008,0,.519-.461.706-.807.706-.562,0-.547-.417-.547-.691h-6.425c-.489,2.665-2.434,4.019-3.773,4.581l-.043-.101c1.873-1.498,2.751-3.702,2.751-5.935,0-.965-.13-1.729-.216-2.261l1.584.749h6.064l.475-.519c.043-.043.129-.13.216-.13.101,0,.158.043.259.115l.663.49c.028.014.173.129.173.288,0,.115-.043.259-.476.49ZM235.67,92.339h-5.748v1.7h2.996l.504-.764c.058-.086.115-.188.216-.188.086,0,.216.101.273.159l.893.763c.072.072.144.13.144.216,0,.144-.13.159-.23.159h-8.931c-.879,0-1.195.028-1.556.101l-.23-.533c.864.072,1.887.087,2.045.087h2.607v-1.7h-3.788c-.879,0-1.195.029-1.556.101l-.23-.533c.864.072,1.887.086,2.045.086h3.515c-.014-.691-.014-.936-.317-2.261l1.815.432c.115.029.173.144.173.216,0,.101-.043.13-.389.418v1.195h3.774l.648-.835c.086-.115.144-.188.23-.188s.202.101.259.158l.922.836c.058.043.13.144.13.216,0,.13-.101.158-.216.158ZM228.843,96.171h-2.506c.014,1.44-.101,2.218-.101,2.275h2.607v-2.275ZM232.617,96.171h-2.506v2.275h2.506v-2.275Z"/><line class="cls-4" x1="38" y1="81" x2="358" y2="81"/><polyline class="cls-3" points="220.911 176.313 273.911 176.313 261.911 167.313"/><path class="cls-1" d="M137.493,174.936c.708.228,1.127.911,1.343,1.907.288,1.319.492,2.123.671,2.471h-1.031c-.144-.264-.348-1.067-.588-2.207-.264-1.271-.768-1.835-1.847-1.835h-1.116v4.042h-.995v-9.007c.563-.12,1.355-.192,2.075-.192,1.188,0,1.967.24,2.507.743.432.396.684,1.02.684,1.703,0,1.211-.732,1.991-1.703,2.339v.036ZM136.102,174.503c1.271,0,2.087-.719,2.087-1.823,0-1.355-1.02-1.775-2.135-1.775-.54,0-.923.048-1.127.096v3.502h1.176Z"/><path class="cls-1" d="M146.636,179.037c-.372.18-1.055.408-2.051.408-1.907,0-3.046-1.343-3.046-3.298,0-2.051,1.151-3.526,2.915-3.526,2.015,0,2.531,1.847,2.531,2.986,0,.228-.012.396-.024.552h-4.449c.012,1.811,1.043,2.495,2.219,2.495.815,0,1.307-.168,1.715-.336l.192.72ZM146,175.415c.012-.887-.359-2.039-1.643-2.039-1.199,0-1.727,1.139-1.823,2.039h3.466Z"/><path class="cls-1" d="M153.956,177.754c0,.54.012,1.104.096,1.559h-.911l-.096-.839h-.036c-.336.516-1.008.983-1.931.983-1.248,0-1.907-.912-1.907-1.859,0-1.571,1.367-2.423,3.79-2.411,0-.551,0-1.799-1.487-1.799-.564,0-1.151.156-1.595.468l-.24-.684c.528-.348,1.259-.552,1.991-.552,1.847,0,2.327,1.307,2.327,2.603v2.531ZM152.973,175.919c-1.235,0-2.783.18-2.783,1.559,0,.839.528,1.211,1.127,1.211.972,0,1.655-.744,1.655-1.535v-1.235Z"/><path class="cls-1" d="M162.356,177.694c0,.528.024,1.175.048,1.619h-.888l-.048-1.115h-.036c-.335.684-1.079,1.259-2.135,1.259-1.511,0-2.687-1.308-2.687-3.322,0-2.207,1.295-3.502,2.818-3.502.959,0,1.607.468,1.907,1.007h.024v-3.922h.996v7.976ZM161.36,175.391c0-1.307-.923-1.955-1.763-1.955-1.235,0-1.967,1.151-1.967,2.651,0,1.379.647,2.554,1.931,2.554,1.079,0,1.799-.947,1.799-1.991v-1.259Z"/><path class="cls-1" d="M178.422,179.313h-.984v-3.778c0-1.271-.456-2.087-1.439-2.087-.804,0-1.535.755-1.535,1.751v4.114h-.983v-4.03c0-1.043-.444-1.835-1.367-1.835-.852,0-1.607.839-1.607,1.859v4.006h-.983v-4.857c0-.671-.024-1.151-.048-1.691h.875l.06,1.055h.036c.36-.635.959-1.199,1.991-1.199.852,0,1.511.528,1.787,1.307h.024c.432-.779,1.091-1.307,2.099-1.307.804,0,2.075.516,2.075,2.759v3.934Z"/><path class="cls-1" d="M187.112,175.991c0,2.435-1.607,3.466-3.059,3.466-1.679,0-2.974-1.259-2.974-3.37,0-2.231,1.391-3.466,3.058-3.466,1.787,0,2.975,1.367,2.975,3.37ZM184.101,173.4c-1.415,0-2.003,1.391-2.003,2.65,0,1.451.804,2.626,1.979,2.626,1.188,0,2.015-1.175,2.015-2.65,0-1.164-.564-2.626-1.991-2.626Z"/><path class="cls-1" d="M192.812,173.616c-.108-.012-.216-.024-.36-.024-1.079,0-1.631,1.067-1.631,2.171v3.55h-.996v-4.582c0-.696-.012-1.331-.048-1.955h.875l.048,1.259h.036c.288-.815.971-1.403,1.775-1.403.108,0,.192.024.3.036v.948Z"/><path class="cls-1" d="M199.808,179.037c-.372.18-1.055.408-2.051.408-1.907,0-3.046-1.343-3.046-3.298,0-2.051,1.151-3.526,2.915-3.526,2.015,0,2.531,1.847,2.531,2.986,0,.228-.012.396-.024.552h-4.449c.012,1.811,1.043,2.495,2.219,2.495.815,0,1.307-.168,1.715-.336l.192.72ZM199.172,175.415c.012-.887-.359-2.039-1.643-2.039-1.199,0-1.727,1.139-1.823,2.039h3.466Z"/></g></svg>