<?xml version="1.0" encoding="UTF-8"?>
<svg id="_レイヤー_2" data-name="レイヤー 2" xmlns="http://www.w3.org/2000/svg" viewBox="0 0 398.79 36.96">
  <defs>
    <style>
      .cls-1 {
        fill: #6f808d;
      }
    </style>
  </defs>
  <g id="_レイヤー_1-2" data-name="レイヤー 1">
    <g>
      <g>
        <path class="cls-1" d="M66.89,36.28c-2.58,0-4.84-.54-6.77-1.62-1.94-1.08-3.44-2.59-4.52-4.52-1.08-1.93-1.62-4.19-1.62-6.77v-10.45c0-2.58.54-4.84,1.62-6.77,1.08-1.93,2.59-3.44,4.52-4.52,1.93-1.08,4.19-1.62,6.77-1.62s4.84.54,6.77,1.62c1.93,1.08,3.44,2.59,4.52,4.52,1.08,1.94,1.62,4.19,1.62,6.77v10.45c0,2.58-.54,4.84-1.62,6.77-1.08,1.94-2.59,3.44-4.52,4.52-1.94,1.08-4.19,1.62-6.77,1.62ZM66.89,30.04c1.16,0,2.21-.27,3.14-.82.94-.55,1.68-1.29,2.23-2.22.55-.93.82-1.98.82-3.14v-11.46c0-1.16-.27-2.21-.82-3.14-.55-.93-1.29-1.68-2.23-2.22s-1.98-.82-3.14-.82-2.21.27-3.14.82-1.68,1.29-2.22,2.22c-.55.94-.82,1.98-.82,3.14v11.46c0,1.16.27,2.21.82,3.14.55.94,1.29,1.68,2.22,2.22.94.55,1.98.82,3.14.82Z"/>
        <path class="cls-1" d="M97.26,36.28c-2.35,0-4.45-.48-6.28-1.44-1.83-.96-3.27-2.28-4.31-3.97-1.04-1.68-1.56-3.61-1.56-5.77,0-1.84.41-3.57,1.25-5.2s2.03-2.96,3.59-3.99l-.15,2.03c-1.18-1.14-2.1-2.35-2.77-3.63s-1-2.71-1-4.3c0-2.02.48-3.77,1.44-5.27.96-1.5,2.28-2.66,3.97-3.5,1.68-.83,3.62-1.25,5.82-1.25s4.13.42,5.82,1.25c1.68.83,3.01,2,3.97,3.5.96,1.5,1.44,3.26,1.44,5.27,0,1.6-.31,3.03-.94,4.29s-1.59,2.5-2.88,3.69v-2.03c1.53.97,2.71,2.27,3.54,3.92.83,1.64,1.25,3.39,1.25,5.22,0,2.16-.52,4.08-1.57,5.77-1.05,1.68-2.49,3.01-4.33,3.97-1.84.96-3.93,1.44-6.29,1.44ZM97.26,30.09c1.55,0,2.81-.42,3.77-1.26.97-.84,1.45-2.08,1.45-3.72s-.48-2.87-1.45-3.74c-.97-.86-2.22-1.29-3.77-1.29s-2.8.43-3.75,1.29c-.95.86-1.43,2.11-1.43,3.74s.48,2.89,1.43,3.72c.95.84,2.2,1.26,3.75,1.26ZM97.26,13.83c1.26,0,2.28-.31,3.07-.93.79-.62,1.19-1.58,1.19-2.89s-.4-2.28-1.19-2.91-1.81-.96-3.07-.96-2.28.32-3.07.96-1.19,1.61-1.19,2.91.4,2.27,1.19,2.89c.79.62,1.81.93,3.07.93Z"/>
        <path class="cls-1" d="M127.69,36.28c-2.58,0-4.84-.54-6.77-1.62-1.94-1.08-3.44-2.59-4.52-4.52-1.08-1.93-1.62-4.19-1.62-6.77v-10.45c0-2.58.54-4.84,1.62-6.77,1.08-1.93,2.59-3.44,4.52-4.52,1.93-1.08,4.19-1.62,6.77-1.62s4.84.54,6.77,1.62c1.93,1.08,3.44,2.59,4.52,4.52,1.08,1.94,1.62,4.19,1.62,6.77v10.45c0,2.58-.54,4.84-1.62,6.77-1.08,1.94-2.59,3.44-4.52,4.52-1.94,1.08-4.19,1.62-6.77,1.62ZM127.69,30.04c1.16,0,2.21-.27,3.14-.82.94-.55,1.68-1.29,2.23-2.22.55-.93.82-1.98.82-3.14v-11.46c0-1.16-.27-2.21-.82-3.14-.55-.93-1.29-1.68-2.23-2.22s-1.98-.82-3.14-.82-2.21.27-3.14.82-1.68,1.29-2.22,2.22c-.55.94-.82,1.98-.82,3.14v11.46c0,1.16.27,2.21.82,3.14.55.94,1.29,1.68,2.22,2.22.94.55,1.98.82,3.14.82Z"/>
        <path class="cls-1" d="M159.32,36.28c-2.58,0-4.84-.54-6.77-1.62-1.94-1.08-3.44-2.59-4.52-4.52-1.08-1.93-1.62-4.19-1.62-6.77v-10.45c0-2.58.54-4.84,1.62-6.77,1.08-1.93,2.59-3.44,4.52-4.52,1.93-1.08,4.19-1.62,6.77-1.62s4.84.54,6.77,1.62c1.93,1.08,3.44,2.59,4.52,4.52,1.08,1.94,1.62,4.19,1.62,6.77v10.45c0,2.58-.54,4.84-1.62,6.77-1.08,1.94-2.59,3.44-4.52,4.52-1.94,1.08-4.19,1.62-6.77,1.62ZM159.32,30.04c1.16,0,2.21-.27,3.14-.82.94-.55,1.68-1.29,2.23-2.22.55-.93.82-1.98.82-3.14v-11.46c0-1.16-.27-2.21-.82-3.14-.55-.93-1.29-1.68-2.23-2.22s-1.98-.82-3.14-.82-2.21.27-3.14.82-1.68,1.29-2.22,2.22c-.55.94-.82,1.98-.82,3.14v11.46c0,1.16.27,2.21.82,3.14.55.94,1.29,1.68,2.22,2.22.94.55,1.98.82,3.14.82Z"/>
        <path class="cls-1" d="M177.56,20.65v-5.08h14.51v5.08h-14.51Z"/>
        <path class="cls-1" d="M203.43,35.55V7.88l-6.53,4.02v-7.26l6.53-3.92h6.72v34.83h-6.72Z"/>
        <path class="cls-1" d="M220.12,35.55l11.71-28.63h-14.9V.73h21.96v6.19l-11.66,28.63h-7.11Z"/>
        <path class="cls-1" d="M256.64,36.28c-2.58,0-4.84-.54-6.77-1.62-1.94-1.08-3.44-2.59-4.52-4.52-1.08-1.93-1.62-4.19-1.62-6.77v-10.45c0-2.58.54-4.84,1.62-6.77,1.08-1.93,2.59-3.44,4.52-4.52,1.93-1.08,4.19-1.62,6.77-1.62s4.84.54,6.77,1.62c1.93,1.08,3.44,2.59,4.52,4.52,1.08,1.94,1.62,4.19,1.62,6.77v10.45c0,2.58-.54,4.84-1.62,6.77-1.08,1.94-2.59,3.44-4.52,4.52-1.94,1.08-4.19,1.62-6.77,1.62ZM256.64,30.04c1.16,0,2.21-.27,3.14-.82.94-.55,1.68-1.29,2.23-2.22.55-.93.82-1.98.82-3.14v-11.46c0-1.16-.27-2.21-.82-3.14-.55-.93-1.29-1.68-2.23-2.22s-1.98-.82-3.14-.82-2.21.27-3.14.82-1.68,1.29-2.22,2.22c-.55.94-.82,1.98-.82,3.14v11.46c0,1.16.27,2.21.82,3.14.55.94,1.29,1.68,2.22,2.22.94.55,1.98.82,3.14.82Z"/>
        <path class="cls-1" d="M274.87,20.65v-5.08h14.51v5.08h-14.51Z"/>
        <path class="cls-1" d="M305.06,36.28c-1.76,0-3.41-.36-4.95-1.09s-2.87-1.73-3.98-3.02c-1.11-1.29-1.91-2.79-2.39-4.5l6.34-1.69c.21.82.58,1.53,1.12,2.13.54.6,1.17,1.06,1.89,1.39.72.33,1.46.5,2.21.5,1,0,1.91-.24,2.75-.73.83-.48,1.49-1.14,1.98-1.96.49-.82.74-1.73.74-2.73s-.25-1.91-.74-2.73c-.49-.82-1.15-1.48-1.98-1.96-.83-.48-1.75-.73-2.75-.73-1.23,0-2.22.21-3,.62s-1.35.8-1.74,1.17l-5.56-1.69,1.06-18.53h19.01v6.14h-15.38l2.32-2.18-.73,11.95-1.11-1.35c.87-.71,1.86-1.23,2.97-1.55,1.11-.32,2.15-.48,3.12-.48,2.19,0,4.12.49,5.79,1.46,1.67.98,2.97,2.31,3.92,4.01s1.42,3.65,1.42,5.84-.57,4.17-1.72,5.94c-1.15,1.77-2.65,3.17-4.52,4.21-1.87,1.04-3.9,1.56-6.09,1.56Z"/>
        <path class="cls-1" d="M328.27,35.55V7.88l-6.53,4.02v-7.26l6.53-3.92h6.72v34.83h-6.72Z"/>
        <path class="cls-1" d="M356.13,36.28c-2.58,0-4.84-.54-6.77-1.62-1.94-1.08-3.44-2.59-4.52-4.52-1.08-1.93-1.62-4.19-1.62-6.77v-10.45c0-2.58.54-4.84,1.62-6.77,1.08-1.93,2.59-3.44,4.52-4.52,1.93-1.08,4.19-1.62,6.77-1.62s4.84.54,6.77,1.62c1.93,1.08,3.44,2.59,4.52,4.52,1.08,1.94,1.62,4.19,1.62,6.77v10.45c0,2.58-.54,4.84-1.62,6.77-1.08,1.94-2.59,3.44-4.52,4.52-1.94,1.08-4.19,1.62-6.77,1.62ZM356.13,30.04c1.16,0,2.21-.27,3.14-.82.94-.55,1.68-1.29,2.23-2.22.55-.93.82-1.98.82-3.14v-11.46c0-1.16-.27-2.21-.82-3.14-.55-.93-1.29-1.68-2.23-2.22s-1.98-.82-3.14-.82-2.21.27-3.14.82-1.68,1.29-2.22,2.22c-.55.94-.82,1.98-.82,3.14v11.46c0,1.16.27,2.21.82,3.14.55.94,1.29,1.68,2.22,2.22.94.55,1.98.82,3.14.82Z"/>
        <path class="cls-1" d="M389.02,35.55v-5.42h-15.14v-6.14l10.98-23.27h7.55l-10.98,23.27h7.59v-8.71h6.67v8.71h3.1v6.14h-3.1v5.42h-6.67Z"/>
      </g>
      <g>
        <path class="cls-1" d="M0,2.57v26.53h43.77V2.57H0ZM15.32,28.2h-5.42V9.37c0-2.55,1.75-6.06,6.06-6.06h6.39v4.96h-4.95c-.96,0-2.07.63-2.07,1.74v3.28h14.3v4.95h-14.3v9.97ZM33.72,28.22h-2.65c-4.31,0-6.07-3.51-6.07-6.07v-2.75h4.63s0,2.55,0,2.55c0,.64.46,1.32,1.43,1.32h2.67v4.95ZM33.72,8.26h-2.67c-.97,0-1.43.67-1.43,1.31v2.56h-4.63v-2.77c0-2.55,1.76-6.06,6.07-6.06h2.65v4.96Z"/>
        <path class="cls-1" d="M6.59,30.78c-.08,2.01-.56,3.14-1.19,3.94-.7.9-1.89,1.72-3.75,2.08l-.52-1.13c3.29-.57,3.82-2.22,4.08-3.73H.62v-1.16h5.97Z"/>
        <path class="cls-1" d="M9.07,34.61h-1.24v-4.06h1.24v4.06ZM12.64,33.49c0,2.82-2.22,3.15-3.98,3.36l-.45-1.13c.51-.05,1.81-.14,2.51-.59.39-.26.67-.76.67-1.46v-3.23h1.25v3.06Z"/>
        <rect class="cls-1" x="13.9" y="32.92" width="6.52" height="1.24"/>
        <polygon class="cls-1" points="27.04 30.89 27.04 36.34 21.45 36.34 21.45 35.17 25.8 35.17 25.8 32.04 21.52 32.04 21.52 30.89 27.04 30.89"/>
        <rect class="cls-1" x="28.39" y="32.92" width="6.52" height="1.24"/>
        <path class="cls-1" d="M37.88,32.39c0,.82-.07,1.63-.22,2.44-.17.8-.51,1.58-1.12,2.13l-.92-.95c.26-.24.71-.7.89-1.67.06-.31.19-1.04.19-1.82v-1.86h1.18v1.72ZM39.9,35.26c.25-.08.7-.23,1.12-.96.36-.61.45-1.28.5-1.6l1.11.54c-.19.94-.57,1.83-1.27,2.49-1.01.94-2.18.99-2.64,1.01v-6.31h1.17v4.83Z"/>
      </g>
    </g>
  </g>
</svg>