<svg id="レイヤー_1" data-name="レイヤー 1" xmlns="http://www.w3.org/2000/svg" viewBox="0 0 239 239"><defs><style>.cls-1,.cls-2{fill:none;}.cls-2{stroke:#505050;stroke-miterlimit:10;}.cls-3{fill:#505050;}</style></defs><rect class="cls-1" width="239" height="239"/><line class="cls-2" x1="35.076" y1="125.615" x2="203.924" y2="125.615"/><line class="cls-2" x1="203.924" y1="150.136" x2="35.076" y2="150.136"/><path class="cls-3" d="M75.937,142.912v-10.68h1.47l2.31,6.435h.031v-6.435h1.529v10.68h-1.44l-2.339-6.42h-.031v6.42Z"/><path class="cls-3" d="M84.457,142.912v-10.68h4.56v1.44h-3.03v3.135h2.64v1.44h-2.64v3.135h3.03v1.53Z"/><path class="cls-3" d="M99.742,132.232l-1.59,10.68h-1.44l-1.17-6.93h-.03l-1.155,6.93h-1.44l-1.59-10.68h1.62l.765,6.78h.03l1.2-6.78h1.17l1.245,6.945h.03l.735-6.945Z"/><path class="cls-3" d="M107.092,142.912v-10.68h2.3a3.412,3.412,0,0,1,1.11.165,2.13,2.13,0,0,1,.87.585,2.289,2.289,0,0,1,.54.983,6.14,6.14,0,0,1,.15,1.522,7.676,7.676,0,0,1-.082,1.215,2.559,2.559,0,0,1-.353.93,2.235,2.235,0,0,1-.84.818,2.827,2.827,0,0,1-1.38.292h-.78v4.17Zm1.53-9.24v3.63h.735a1.564,1.564,0,0,0,.72-.135.85.85,0,0,0,.375-.375,1.371,1.371,0,0,0,.143-.555c.014-.22.022-.465.022-.735q0-.375-.015-.712a1.544,1.544,0,0,0-.135-.593.852.852,0,0,0-.36-.39,1.429,1.429,0,0,0-.69-.135Z"/><path class="cls-3" d="M115,142.912v-10.68h2.46q2.7,0,2.7,3.135a3.934,3.934,0,0,1-.293,1.605,2.267,2.267,0,0,1-1.027,1.065l1.65,4.875h-1.62l-1.425-4.56h-.915v4.56Zm1.53-9.24V137h.87a1.54,1.54,0,0,0,.645-.112.878.878,0,0,0,.375-.323,1.463,1.463,0,0,0,.165-.517,5.663,5.663,0,0,0,0-1.425,1.428,1.428,0,0,0-.18-.533,1.217,1.217,0,0,0-1.08-.42Z"/><path class="cls-3" d="M123.1,134.752a2.729,2.729,0,0,1,.225-1.14,2.409,2.409,0,0,1,.6-.825,2.534,2.534,0,0,1,.817-.48,2.725,2.725,0,0,1,2.678.48,2.512,2.512,0,0,1,.585.825,2.729,2.729,0,0,1,.225,1.14v5.64a2.7,2.7,0,0,1-.225,1.155,2.383,2.383,0,0,1-.585.8,2.574,2.574,0,0,1-.833.495,2.661,2.661,0,0,1-1.845,0,2.4,2.4,0,0,1-.817-.495,2.29,2.29,0,0,1-.6-.8,2.7,2.7,0,0,1-.225-1.155Zm1.53,5.64a1.018,1.018,0,0,0,.307.818,1.141,1.141,0,0,0,1.455,0,1.018,1.018,0,0,0,.308-.818v-5.64a1.016,1.016,0,0,0-.308-.817,1.138,1.138,0,0,0-1.455,0,1.016,1.016,0,0,0-.307.817Z"/><path class="cls-3" d="M134.932,132.232v8.16a2.506,2.506,0,0,1-1.507,2.4,2.7,2.7,0,0,1-1.1.21,2.169,2.169,0,0,1-1.222-.322,4.038,4.038,0,0,1-.773-.638l1.2-.96a1.536,1.536,0,0,0,.383.278.98.98,0,0,0,.457.112,1.144,1.144,0,0,0,.315-.052.884.884,0,0,0,.345-.2.971.971,0,0,0,.27-.382,1.7,1.7,0,0,0,.1-.653v-7.95Z"/><path class="cls-3" d="M138.172,142.912v-10.68h4.56v1.44H139.7v3.135h2.64v1.44H139.7v3.135h3.03v1.53Z"/><path class="cls-3" d="M150.382,139.867v.66a2.38,2.38,0,0,1-.187.938,2.593,2.593,0,0,1-.518.787,2.494,2.494,0,0,1-.772.548,2.263,2.263,0,0,1-.953.2,3.425,3.425,0,0,1-.885-.12,2.094,2.094,0,0,1-.81-.42,2.319,2.319,0,0,1-.592-.772,2.737,2.737,0,0,1-.233-1.208V134.6a2.6,2.6,0,0,1,.18-.975,2.3,2.3,0,0,1,.51-.78,2.362,2.362,0,0,1,.788-.517,2.643,2.643,0,0,1,1.012-.188,2.32,2.32,0,0,1,1.755.705,2.508,2.508,0,0,1,.518.818,2.758,2.758,0,0,1,.187,1.027v.6h-1.53v-.51a1.238,1.238,0,0,0-.255-.78.826.826,0,0,0-.69-.33.777.777,0,0,0-.757.353,1.875,1.875,0,0,0-.188.892v5.46a1.414,1.414,0,0,0,.2.78.8.8,0,0,0,.727.315,1.113,1.113,0,0,0,.323-.052.961.961,0,0,0,.322-.173.915.915,0,0,0,.225-.33,1.337,1.337,0,0,0,.09-.525v-.525Z"/><path class="cls-3" d="M154.432,142.912v-9.24h-1.77v-1.44h5.07v1.44h-1.77v9.24Z"/><path class="cls-3" d="M49.16,93.589a2.152,2.152,0,0,1,0,4.3,1.085,1.085,0,0,1-.234-.017c-.054.2-.09.378-.144.54a18.174,18.174,0,0,1-2.7,6.553,14.463,14.463,0,0,1-7.239,4.988l-1.962-2.16a11.806,11.806,0,0,0,7.057-4.232,11.3,11.3,0,0,0,2.107-5.078H37.673c-.828,0-1.693.037-2.143.073V96.02a20.061,20.061,0,0,0,2.143.144h8.336a7.78,7.78,0,0,0,1.027-.072A1.994,1.994,0,0,1,47,95.75,2.167,2.167,0,0,1,49.16,93.589Zm0,3.187a1.035,1.035,0,1,0-1.044-1.026A1.038,1.038,0,0,0,49.16,96.776Z"/><path class="cls-3" d="M56.9,96.218h9.9c.45,0,1.134,0,1.783-.036-.037.54-.037,1.206-.037,1.746v8.823c0,.7.037,2.431.037,2.5H66.1c0-.036.018-.45.018-.973H57.437c.018.5.018.919.018.973H54.97c0-.09.054-1.657.054-2.521V97.928c0-.5,0-1.242-.036-1.746C55.727,96.2,56.411,96.218,56.9,96.218Zm.54,9.759h8.7V98.5h-8.7Z"/><path class="cls-3" d="M78.462,101.421l-1.315,2.017c-1.026-.72-2.9-1.927-4.105-2.575l1.3-1.98C75.563,99.531,77.543,100.773,78.462,101.421Zm1.44,4.1a18.223,18.223,0,0,0,7-6.751l1.387,2.448a21.714,21.714,0,0,1-7.148,6.482,22.632,22.632,0,0,1-6.014,2.215l-1.351-2.359A19.283,19.283,0,0,0,79.9,105.526Zm1.315-8.174-1.333,1.981c-1.008-.7-2.881-1.909-4.069-2.575l1.3-1.981C78.3,95.426,80.28,96.686,81.217,97.352Zm5.365.558-1.566.667a16.17,16.17,0,0,0-1.585-2.827l1.513-.63A30.609,30.609,0,0,1,86.582,97.91Zm2.521-.972-1.531.684a17.353,17.353,0,0,0-1.692-2.737l1.531-.63A23.245,23.245,0,0,1,89.1,96.938Z"/><path class="cls-3" d="M95.85,99.279H104.1a12.253,12.253,0,0,0,1.4-.09v2.269c-.45-.037-.99-.073-1.4-.073h-3.079v5.8h3.925c.486,0,.991-.072,1.369-.108v2.359a9.5,9.5,0,0,0-1.369-.09H94.985a10.632,10.632,0,0,0-1.476.09v-2.359a13.9,13.9,0,0,0,1.476.108h3.673v-5.8H95.85c-.379,0-1.027.036-1.423.073V99.189A9.436,9.436,0,0,0,95.85,99.279Z"/><path class="cls-3" d="M119.178,96.74c-.018.036-.036.054-.054.09h3.619a5.779,5.779,0,0,0,1.567-.216l1.836,1.134a7.218,7.218,0,0,0-.594,1.3,18.783,18.783,0,0,1-3.133,6.014,16.816,16.816,0,0,1-7.274,5.077l-2.124-1.908a14.35,14.35,0,0,0,7.255-4.448,12.788,12.788,0,0,0,2.557-4.915h-5.059a20.531,20.531,0,0,1-4.538,4.357l-2.016-1.494a15.855,15.855,0,0,0,5.617-5.8,8.67,8.67,0,0,0,.811-1.891l2.628.864C119.862,95.534,119.4,96.344,119.178,96.74Z"/><path class="cls-3" d="M134.693,96.866a12.5,12.5,0,0,0-.18-2.16h2.809a19.57,19.57,0,0,0-.162,2.16v2.665a58.611,58.611,0,0,1,7.526,2.791l-1.026,2.484a52.08,52.08,0,0,0-6.5-2.682v5.095c0,.522.09,1.783.162,2.521h-2.809a19.773,19.773,0,0,0,.18-2.521Z"/><path class="cls-3" d="M152.909,106.427c.7,1.206,1.963,1.71,3.8,1.783,2.161.089,6.41.036,8.9-.163a9.768,9.768,0,0,0-.666,2.089c-2.233.108-6.05.144-8.247.054-2.143-.09-3.583-.612-4.663-2-.72.7-1.459,1.386-2.377,2.16l-1.008-2.124a21.85,21.85,0,0,0,2.233-1.657v-3.925h-2.017v-1.963h4.051Zm-1.278-8.067a14.06,14.06,0,0,0-2.7-2.988l1.638-1.225A15.652,15.652,0,0,1,153.4,97.01Zm3.169,1.621c-.324.342-.649.648-.973.936a15.169,15.169,0,0,0-1.566-1.692,13.061,13.061,0,0,0,3.979-5.474l2.125.612a20.348,20.348,0,0,1-.919,1.909H159.5a22.335,22.335,0,0,0,.756-2.377l2.359.45c-.324.649-.648,1.315-.972,1.927h3.187v1.8h-3.583v1.135h3.1v1.728h-3.1v1.189h3.025v1.728h-3.025v1.225h3.889v1.8H154.8Zm4.411-1.909H156.87v1.135h2.341Zm0,2.863H156.87v1.189h2.341Zm0,2.917H156.87v1.225h2.341Z"/><path class="cls-3" d="M174.528,98.379a24,24,0,0,1-1.926,2.754v9.4h-2.144v-7.04c-.5.486-.99.936-1.476,1.332a21.091,21.091,0,0,0-1.458-1.854,17.545,17.545,0,0,0,4.951-5.383Zm-.666-3.835a24.207,24.207,0,0,1-4.952,4.735,12.454,12.454,0,0,0-1.188-1.747,16,16,0,0,0,4.069-3.835Zm10.587,7.166h-2.467v6.319c0,1.153-.216,1.747-1.008,2.071a9.943,9.943,0,0,1-3.511.36,9.081,9.081,0,0,0-.649-2.179c1.027.055,2.215.055,2.54.036.323,0,.45-.071.45-.342V101.71h-5.312V99.675h9.957ZM184,96.758h-8.751V94.723H184Z"/><path class="cls-3" d="M202.7,96.812V105.8H200.45v-.9h-4.069v5.617h-2.269V104.9h-4.051v.99H187.9V96.812h6.212V93.7h2.269v3.115Zm-8.589,5.978V98.919h-4.051v3.871Zm6.338,0V98.919h-4.069v3.871Z"/></svg>