<svg id="レイヤー_1" data-name="レイヤー 1" xmlns="http://www.w3.org/2000/svg" viewBox="0 0 239 239"><defs><style>.cls-1,.cls-3{fill:none;}.cls-2{fill:#fff;}.cls-3{stroke:#fff;stroke-miterlimit:10;}</style></defs><rect class="cls-1" width="239" height="239"/><path class="cls-2" d="M72.241,51.741a18.828,18.828,0,0,1-3.2,1.72,9.289,9.289,0,0,0-1.16-2.04A18.671,18.671,0,0,0,72.9,48.64a13.161,13.161,0,0,0,3.161-3.361h2.38A12.14,12.14,0,0,0,81.823,48.6a21.185,21.185,0,0,0,5.141,2.7,8.946,8.946,0,0,0-1.1,2.24,21.41,21.41,0,0,1-3.42-1.82v1.56a15.2,15.2,0,0,0-1.8-.08H73.961a16,16,0,0,0-1.72.08Zm-1.1,5.161a18.743,18.743,0,0,0-2.361.12V54.7a19.673,19.673,0,0,0,2.361.119H83.6a18.839,18.839,0,0,0,2.339-.119v2.32A18.591,18.591,0,0,0,83.6,56.9H76.722a21.815,21.815,0,0,1-2.08,3.881c3.54-.2,3.54-.2,6.34-.5-.639-.7-.979-1.06-2.1-2.221l1.98-.88a40.871,40.871,0,0,1,4.621,5.341l-1.92,1.26c-.66-.98-.86-1.26-1.2-1.74-1.66.22-2.861.36-3.6.44-1.981.18-5.942.54-6.742.6a23.778,23.778,0,0,0-2.581.28l-.32-2.44c.54.04.88.06,1.16.06.141,0,.741-.02,1.761-.08a20.752,20.752,0,0,0,2.141-4Zm9.482-5.781c.319,0,.5,0,.88-.02a16.3,16.3,0,0,1-4.181-3.881A17.1,17.1,0,0,1,73.161,51.1c.34.02.46.02.82.02Z"/><path class="cls-2" d="M98.74,60.2c-1,0-1.58.02-2.219.08.04-.5.08-1.1.08-2.1V53.121a20.055,20.055,0,0,0-.08-2.14c.6.06,1.28.08,2.219.08h10.643c.98,0,1.54-.02,2.24-.08a17.979,17.979,0,0,0-.08,2.14v5.061c0,.78.02,1.22.02,1.3a3.509,3.509,0,0,0,.06.8c-.62-.06-1.24-.08-2.24-.08h-1.6a15.874,15.874,0,0,0,5.762,1.7,6.683,6.683,0,0,0-1.24,1.96,15.05,15.05,0,0,1-6.682-2.68l1.08-.98h-5.441l1.26,1.06a17.4,17.4,0,0,1-3.64,1.78,23.826,23.826,0,0,1-3.061.8,6.471,6.471,0,0,0-1.22-1.98,15.065,15.065,0,0,0,5.681-1.66ZM110.8,48.74c0,.6.02,1.04.06,1.5-.6-.04-1.28-.06-2.16-.06H99.48c-.9,0-1.6.02-2.2.06.04-.5.08-.961.08-1.5V47.2a10.084,10.084,0,0,0-.1-1.54,17.712,17.712,0,0,0,2.28.1h9.082a17.382,17.382,0,0,0,2.26-.1,12.16,12.16,0,0,0-.08,1.54Zm-12.063,4.9h10.643v-.92H98.74Zm0,2.421h10.643v-.921H98.74Zm0,2.48h10.643v-.98H98.74Zm.821-11.082v1.1h9.022v-1.1Z"/><path class="cls-2" d="M122.54,47.58c0-.62-.02-.96-.061-1.84a12.6,12.6,0,0,0,1.461.06h2.941a6.709,6.709,0,0,0,1.46-.1l1.14,1.4a12.98,12.98,0,0,0-.62,1.52,32.324,32.324,0,0,1-1.541,3.421,8.177,8.177,0,0,1,1.421,2.56,6.841,6.841,0,0,1,.321,1.981,2.257,2.257,0,0,1-1.082,2.28,5.179,5.179,0,0,1-2.54.361,4.98,4.98,0,0,0-.419-2.1,6.85,6.85,0,0,0,.879.08c.781,0,1.04-.22,1.04-.88a5.477,5.477,0,0,0-.439-2.061,7.621,7.621,0,0,0-1.4-2.04,23.843,23.843,0,0,0,1.86-4.5h-2.32v13.6c0,.84.04,1.58.1,2.3h-2.32a17.918,17.918,0,0,0,.12-2.3Zm9.162,7.281V60.6a23.651,23.651,0,0,0,3.32-.86l.06,2.02c-2.08.62-3.42.94-6.381,1.6a9.354,9.354,0,0,0-1.02.28l-.4-2.26a17.969,17.969,0,0,0,2.361-.34V48c0-.9-.021-1.38-.08-2.141a10.106,10.106,0,0,0,1.919.1H137.2a10.725,10.725,0,0,0,1.86-.1c-.04.481-.06.941-.06,2.221v4.661a19.916,19.916,0,0,0,.08,2.18,3.8,3.8,0,0,0-.56-.04l1.621,1.381a3.672,3.672,0,0,0-.561.42c-.62.54-1.84,1.48-2.7,2.08a10.363,10.363,0,0,0,3.68,2.841,7.6,7.6,0,0,0-1.259,2.04,12.938,12.938,0,0,1-4.182-3.88,13.32,13.32,0,0,1-1.98-4.9Zm0-5.361h5.261V47.88H131.7Zm0,3.541h5.261v-1.78H131.7Zm3.36,1.82a10.17,10.17,0,0,0,.781,2.261,13.746,13.746,0,0,0,2.6-2.241c-.259-.02-.7-.02-.98-.02Z"/><path class="cls-2" d="M156.842,52.921H153.9a14.238,14.238,0,0,0-2.02.1V50.9a13.4,13.4,0,0,0,2.02.1h7.662a14.026,14.026,0,0,0,2.061-.1v2.12a14.362,14.362,0,0,0-2.061-.1h-2.621v2.561h3.782a10.259,10.259,0,0,0,1.96-.12V57.5a13.5,13.5,0,0,0-1.96-.1h-3.782v3.441a23.4,23.4,0,0,0,3.261.2c1.16,0,2.521-.06,4.562-.24a7.749,7.749,0,0,0-.561,2.28c-1.641.04-2.681.06-4.261.06-4.68,0-7.3-1.02-8.942-3.441a14.157,14.157,0,0,1-2.74,3.921,5.448,5.448,0,0,0-1.721-1.64,11.839,11.839,0,0,0,3.441-5.661,12.405,12.405,0,0,0,.4-2.161l2.221.42c-.1.34-.1.361-.281,1.181-.1.4-.219.86-.519,1.8a5.8,5.8,0,0,0,3.04,2.781ZM156.5,46.5a6.49,6.49,0,0,0-.12-1.281h2.461a6.084,6.084,0,0,0-.1,1.261v.76h5.4c.8,0,1.48-.02,2.22-.08a11,11,0,0,0-.08,1.48V50.2a12.913,12.913,0,0,0,.08,1.56H164.2v-2.5H151.281v2.5h-2.22a8.851,8.851,0,0,0,.1-1.58V48.64c0-.52-.04-1.02-.08-1.48.721.06,1.4.08,2.2.08H156.5Z"/><path class="cls-2" d="M140.789,105.863h-3.757c.042-.484.075-.972.075-1.467a17.607,17.607,0,0,0-35.214,0c0,.5.033.983.075,1.467H98.211a4.2,4.2,0,0,0-4.2,4.2v33.409a4.2,4.2,0,0,0,4.2,4.205h42.578a4.2,4.2,0,0,0,4.2-4.205V110.067A4.2,4.2,0,0,0,140.789,105.863Zm-19.456,22.566v6.412a1.834,1.834,0,0,1-3.668,0v-6.412a4.954,4.954,0,1,1,3.668,0Zm9.269-22.566H108.4a11.061,11.061,0,0,1-.149-1.467,11.251,11.251,0,0,1,22.5,0A11.061,11.061,0,0,1,130.6,105.863Z"/><path class="cls-2" d="M70.373,184.942v-10.68h1.469l1.965,5.655h.03l1.95-5.655h1.485v10.68h-1.53v-6.5h-.03l-1.515,4.59h-.765l-1.5-4.59H71.9v6.5Z"/><path class="cls-2" d="M80.512,184.942v-10.68h4.56v1.44h-3.03v3.135h2.64v1.44h-2.64v3.135h3.03v1.53Z"/><path class="cls-2" d="M87.862,184.942v-10.68h1.47l1.965,5.655h.03l1.95-5.655h1.485v10.68h-1.53v-6.5H93.2l-1.515,4.59h-.765l-1.5-4.59h-.03v6.5Z"/><path class="cls-2" d="M98,184.942v-10.68h2.235a3.131,3.131,0,0,1,1.252.225,2.365,2.365,0,0,1,.848.6,2.241,2.241,0,0,1,.472.863,3.587,3.587,0,0,1,.143,1.012v.39a3.4,3.4,0,0,1-.068.735,1.768,1.768,0,0,1-.2.525,2.112,2.112,0,0,1-.78.72,1.664,1.664,0,0,1,.8.75,2.977,2.977,0,0,1,.255,1.35v.6a3.1,3.1,0,0,1-.683,2.16,2.821,2.821,0,0,1-2.182.75Zm1.53-9.24v2.94h.69a1.166,1.166,0,0,0,1.027-.383,1.971,1.971,0,0,0,.263-1.117,1.687,1.687,0,0,0-.293-1.08,1.3,1.3,0,0,0-1.057-.36Zm0,4.29v3.42h.66a1.613,1.613,0,0,0,.727-.135.933.933,0,0,0,.4-.375,1.427,1.427,0,0,0,.165-.57c.019-.22.03-.46.03-.72a4.817,4.817,0,0,0-.045-.7,1.285,1.285,0,0,0-.18-.51.871.871,0,0,0-.405-.308,1.958,1.958,0,0,0-.675-.1Z"/><path class="cls-2" d="M106.192,184.942v-10.68h4.56v1.44h-3.03v3.135h2.64v1.44h-2.64v3.135h3.03v1.53Z"/><path class="cls-2" d="M113.542,184.942v-10.68H116q2.7,0,2.7,3.135a3.951,3.951,0,0,1-.293,1.605,2.267,2.267,0,0,1-1.027,1.065l1.65,4.875h-1.62l-1.425-4.56h-.915v4.56Zm1.53-9.24v3.33h.87a1.556,1.556,0,0,0,.645-.112.878.878,0,0,0,.375-.323,1.462,1.462,0,0,0,.165-.518,5.663,5.663,0,0,0,0-1.425,1.429,1.429,0,0,0-.18-.532,1.218,1.218,0,0,0-1.08-.42Z"/><path class="cls-2" d="M126.682,177.337h-1.53v-.345a1.63,1.63,0,0,0-.248-.907.913.913,0,0,0-.832-.383.96.96,0,0,0-.51.12,1.006,1.006,0,0,0-.315.3,1.271,1.271,0,0,0-.165.443,2.883,2.883,0,0,0-.045.517,5.09,5.09,0,0,0,.022.525,1,1,0,0,0,.113.375.832.832,0,0,0,.262.285,2.418,2.418,0,0,0,.473.24l1.17.465a2.9,2.9,0,0,1,.825.458,1.958,1.958,0,0,1,.494.607,2.812,2.812,0,0,1,.226.818,8.082,8.082,0,0,1,.06,1.042,5.5,5.5,0,0,1-.135,1.253,2.636,2.636,0,0,1-.435.982,2.167,2.167,0,0,1-.825.66,2.91,2.91,0,0,1-1.245.24,2.724,2.724,0,0,1-1.035-.2,2.462,2.462,0,0,1-.825-.54,2.62,2.62,0,0,1-.548-.8,2.431,2.431,0,0,1-.2-1v-.57h1.53v.48a1.246,1.246,0,0,0,.247.757.963.963,0,0,0,.833.338,1.354,1.354,0,0,0,.607-.112.81.81,0,0,0,.338-.323,1.2,1.2,0,0,0,.142-.5c.015-.2.023-.413.023-.653a6.466,6.466,0,0,0-.03-.69,1.187,1.187,0,0,0-.12-.435.845.845,0,0,0-.278-.27,3.545,3.545,0,0,0-.457-.225l-1.095-.45a2.427,2.427,0,0,1-1.328-1.073,3.684,3.684,0,0,1-.337-1.672,3.88,3.88,0,0,1,.165-1.14,2.593,2.593,0,0,1,.5-.93,2.279,2.279,0,0,1,.8-.623,2.7,2.7,0,0,1,1.163-.232,2.536,2.536,0,0,1,1.042.21,2.688,2.688,0,0,1,.818.555,2.318,2.318,0,0,1,.69,1.65Z"/><path class="cls-2" d="M134.122,176.782a2.729,2.729,0,0,1,.225-1.14,2.409,2.409,0,0,1,.6-.825,2.534,2.534,0,0,1,.817-.48,2.661,2.661,0,0,1,1.845,0,2.733,2.733,0,0,1,.833.48,2.526,2.526,0,0,1,.585.825,2.729,2.729,0,0,1,.224,1.14v5.64a2.7,2.7,0,0,1-.224,1.155,2.4,2.4,0,0,1-.585.8,2.585,2.585,0,0,1-.833.495,2.661,2.661,0,0,1-1.845,0,2.4,2.4,0,0,1-.817-.495,2.29,2.29,0,0,1-.6-.8,2.7,2.7,0,0,1-.225-1.155Zm1.53,5.64a1.018,1.018,0,0,0,.307.818,1.141,1.141,0,0,0,1.455,0,1.018,1.018,0,0,0,.308-.818v-5.64a1.02,1.02,0,0,0-.308-.818,1.141,1.141,0,0,0-1.455,0,1.019,1.019,0,0,0-.307.818Z"/><path class="cls-2" d="M142.342,184.942v-10.68h1.47l2.31,6.435h.03v-6.435h1.53v10.68h-1.44l-2.34-6.42h-.03v6.42Z"/><path class="cls-2" d="M150.862,184.942v-10.68h1.53v9.15h3.029v1.53Z"/><path class="cls-2" d="M159.636,184.942v-4.515l-2.1-6.165h1.62l1.23,4.245h.03l1.23-4.245h1.62l-2.1,6.165v4.515Z"/><line class="cls-3" x1="203.924" y1="192.166" x2="35.076" y2="192.166"/><line class="cls-3" x1="35.076" y1="167.644" x2="203.924" y2="167.644"/></svg>