<svg id="レイヤー_1" data-name="レイヤー 1" xmlns="http://www.w3.org/2000/svg" viewBox="0 0 1200 254"><defs><style>.cls-1{fill:none;}.cls-2{fill:#fff;}.cls-3{fill:#c3b376;}</style></defs><rect class="cls-1" width="1200" height="254"/><path class="cls-2" d="M446.57,50.08c.84.06,1.64.09,2.42.09.45,0,.9,0,1.33,0,1.28-.1,4.15-.47,8.63-1.13a6,6,0,0,0,2-.64,1.3,1.3,0,0,1,.72-.26,2,2,0,0,1,1,.57,11.42,11.42,0,0,1,1.84,1.89,1.71,1.71,0,0,1,.46,1c0,.36-.22.65-.68.89a8.49,8.49,0,0,0-1.55,1.12q-6.79,6-11.47,9.54l.07.11a159.9,159.9,0,0,1,18.23-4.16l.17,0c.3,0,.48.2.55.61a15.69,15.69,0,0,1,.43,3.09v.07c0,.26-.2.41-.61.44a30.2,30.2,0,0,0-7,1.22A11,11,0,0,0,458,67.77a5.74,5.74,0,0,0-1.38,3.68q0,4.72,9.45,4.73a.51.51,0,0,1,.58.57v.11c0,.3-.19,1.36-.5,3.18-.08.55-.35.83-.83.83a23.81,23.81,0,0,1-2.5-.22c-3.67-.37-6.36-1.42-8.09-3.14a7.31,7.31,0,0,1-2.12-5.41,7.68,7.68,0,0,1,1.31-4.18,9.07,9.07,0,0,1,3.31-3.14v-.07q-4.62,1.22-12.46,4a6.76,6.76,0,0,1-1.09.42q-.48,0-.75-.75a26.91,26.91,0,0,1-1.26-3.11c.55-.15,1.21-.35,2-.61a18.21,18.21,0,0,0,3.64-2.23,133.07,133.07,0,0,0,10.79-9.9q-2.16.59-6.75,1.46l-1.44.31a2.35,2.35,0,0,0-.35.15,2.1,2.1,0,0,1-.7.22c-.31,0-.61-.28-.91-.83A20.45,20.45,0,0,1,446.57,50.08Z"/><path class="cls-2" d="M516.64,55.64q-1.42,10.5-4.73,16.29-2.51,4.36-6.45,4.36a5.76,5.76,0,0,1-4.84-2.88,12,12,0,0,1-1.85-6.84A13.53,13.53,0,0,1,503,56.73a16.66,16.66,0,0,1,12.3-4.84q7.11,0,11.09,4.21a12.52,12.52,0,0,1,3.32,8.9q0,10.27-11.65,13.78a2,2,0,0,1-.56.1c-.37,0-.73-.26-1.07-.78a7.88,7.88,0,0,0-2.64-2.38q5.83-1.39,8.5-3.9a9.73,9.73,0,0,0,2.91-7.41A8.64,8.64,0,0,0,522.6,58a8,8,0,0,0-5.82-2.38Zm-4.4.22a11.69,11.69,0,0,0-6.47,3.43,10.45,10.45,0,0,0-2.95,7,8.15,8.15,0,0,0,.94,4.19c.49.81,1,1.22,1.63,1.22,1,0,2-.77,2.84-2.31a32.68,32.68,0,0,0,2.53-6.5A48.37,48.37,0,0,0,512.24,55.86Z"/><path class="cls-2" d="M568.08,47.51a19,19,0,0,1,2.31,2.25,1.14,1.14,0,0,1,.3.69c0,.25-.22.41-.65.46a4,4,0,0,0-1.2.33c-1.33.5-2.15.81-2.46.9v5.38l3.72-.07c.19,0,.31,0,.35.09a.87.87,0,0,1,0,.37v2.6c0,.2,0,.32-.07.37a.59.59,0,0,1-.33.06l-3.46-.09A19.27,19.27,0,0,0,570.17,66a8.41,8.41,0,0,0-1.48,2.16c-.21.46-.37.69-.5.69s-.27-.21-.52-.61a13.34,13.34,0,0,1-1.4-2.77l.22,16c0,.25-.13.37-.4.37H563c-.27,0-.41-.12-.41-.37,0-.09,0-.94.06-2.53q.18-7.14.24-13.41a31.49,31.49,0,0,1-3.79,8.74c-.27.41-.47.61-.59.61s-.28-.23-.42-.68a13,13,0,0,0-1.24-2.94,31.71,31.71,0,0,0,5.25-10.38h-.34l-3.78.09c-.2,0-.32,0-.36-.08a.75.75,0,0,1,0-.35v-2.6a.32.32,0,0,1,.41-.46l3.78.07h1v-4.3c-.9.22-1.69.4-2.35.53a6.17,6.17,0,0,1-.85.13c-.28,0-.54-.34-.78-1a8.42,8.42,0,0,0-1.05-2.13,31.64,31.64,0,0,0,8.85-2.31A10,10,0,0,0,568.08,47.51ZM586,72.17a9,9,0,0,0,2.49,1,3.81,3.81,0,0,1,.82.27.57.57,0,0,1,.16.47c0,.08,0,.25,0,.51a15.62,15.62,0,0,1-.86,4.34,3.34,3.34,0,0,1-1.22,1.52q-1.49.87-5.23.87c-2.49,0-4.15-.23-5-.69A2.58,2.58,0,0,1,575.8,78V75.57a34,34,0,0,1-5.13,3.77,2.37,2.37,0,0,1-.89.46q-.24,0-.66-.87a6.84,6.84,0,0,0-1.76-2.38,31.45,31.45,0,0,0,8.44-6.17v-11a25.66,25.66,0,0,0-.22-3.66,35.24,35.24,0,0,1,3.6.26q.72.06.72.42a5.18,5.18,0,0,1-.24.8,7.32,7.32,0,0,0-.18,1.81v7.68a40.83,40.83,0,0,0,5.74-13.13,17.54,17.54,0,0,0,.54-3.64,39.11,39.11,0,0,1,3.79,1.26c.4.18.61.38.61.61a1.62,1.62,0,0,1-.46.79,7,7,0,0,0-.84,1.88q-3.58,11.63-9.38,18v3.79c0,.6.2,1,.61,1.12a7.24,7.24,0,0,0,2.23.22A5.5,5.5,0,0,0,585,77.1a1.9,1.9,0,0,0,.68-1.4A24.81,24.81,0,0,0,586,72.17ZM572.48,60.51l2.12.8c.32.12.48.27.48.46a1.85,1.85,0,0,1,0,.26,33.59,33.59,0,0,1-2.79,9.57c-.09.17-.18.26-.28.26a1.1,1.1,0,0,1-.44-.19l-2.2-1.29c-.22-.12-.34-.27-.34-.43a1.3,1.3,0,0,1,.08-.29,27.09,27.09,0,0,0,2.75-9c0-.22.1-.33.19-.33A2,2,0,0,1,572.48,60.51Zm4.12-12.74A31.37,31.37,0,0,1,582.92,52c.14.12.22.22.22.29a1.29,1.29,0,0,1-.3.46l-1.7,2c-.21.25-.37.37-.48.37a.54.54,0,0,1-.31-.19A26.27,26.27,0,0,0,574,50.37c-.16-.1-.24-.18-.24-.26s.1-.23.3-.42l1.77-1.78a1,1,0,0,1,.46-.27A.73.73,0,0,1,576.6,47.77Zm12.74,13.61a30.89,30.89,0,0,1,3,8.41,1.66,1.66,0,0,1,0,.26c0,.16-.16.3-.46.44l-2,1.07a1.34,1.34,0,0,1-.57.22c-.15,0-.26-.16-.34-.5A37.16,37.16,0,0,0,586.24,63a.61.61,0,0,1-.09-.26c0-.11.16-.25.48-.43l2-1.09a1,1,0,0,1,.43-.18C589.14,61.05,589.23,61.16,589.34,61.38Z"/><path class="cls-2" d="M641.47,61.53a12.37,12.37,0,0,0,2.57.94,3.17,3.17,0,0,1,.74.26.48.48,0,0,1,.17.39,6.09,6.09,0,0,1-.08.64A4.89,4.89,0,0,1,643,67.4q-1.68,1-6.86,1c-3.64,0-5.9-.25-6.76-.76a67.89,67.89,0,0,1-9.24,3.62,3.05,3.05,0,0,1-.72.17c-.19,0-.41-.3-.64-.89a8.52,8.52,0,0,0-1.31-2.32A58.72,58.72,0,0,0,628,64.67v-5a24.47,24.47,0,0,0-.18-3.15c1.34,0,2.51.13,3.51.26.45.08.68.22.68.43a1.19,1.19,0,0,1-.19.59,4.33,4.33,0,0,0-.22,1.63v3.38a37,37,0,0,0,7.83-6.1,13.13,13.13,0,0,0,2-2.61,27.94,27.94,0,0,1,2.83,1.81,1.11,1.11,0,0,1,.46.76c0,.27-.2.46-.61.58a4.85,4.85,0,0,0-1.27,1.05,51.91,51.91,0,0,1-9,7c.44,0,1,.05,1.66.05.38,0,.8,0,1.25,0,2,0,3.26-.27,3.79-.68S641.44,63.18,641.47,61.53Zm4.29-11.38,5-.07c.21,0,.33,0,.37.07a.59.59,0,0,1,.06.33l-.08,1.83v1.55l.08,3.77a.67.67,0,0,1-.08.41.78.78,0,0,1-.35.05h-3.1c-.18,0-.28,0-.32-.09a.87.87,0,0,1,0-.37V53.4H634.49a32.79,32.79,0,0,1,3.2,3.25.58.58,0,0,1,.16.32c0,.08-.1.21-.29.37l-1.91,1.47a1.53,1.53,0,0,1-.44.26c-.07,0-.19-.1-.35-.29a20.76,20.76,0,0,0-3.32-3.68q-.21-.15-.21-.24c0-.07.13-.2.39-.37l1.55-1.09H622.91v4.23c0,.22,0,.36-.09.41a.9.9,0,0,1-.37.05h-3c-.22,0-.36,0-.4-.09a.69.69,0,0,1-.06-.37l.07-3.77V52.57L619,50.48c0-.19,0-.31.09-.35a.73.73,0,0,1,.37-.05l4.95.07h8.28V49.8a14.59,14.59,0,0,0-.22-2.79c1.24,0,2.58.06,4,.18.4,0,.61.16.61.37a2.21,2.21,0,0,1-.23.72,4.71,4.71,0,0,0-.18,1.57v.3Zm-22.21,7.72c.08-.21.16-.31.26-.31a1.35,1.35,0,0,1,.46.15l2.31,1.07c.27.12.41.25.41.38a.79.79,0,0,1-.07.3A22.59,22.59,0,0,1,623,65.82a.46.46,0,0,1-.33.22.86.86,0,0,1-.46-.22L620,64.3c-.26-.2-.39-.34-.39-.44a.43.43,0,0,1,.16-.28A17.29,17.29,0,0,0,623.55,57.87Zm20.62,13.19a36.29,36.29,0,0,1,3.88.3c.36,0,.54.2.54.46a6.5,6.5,0,0,1-.19.65,5.72,5.72,0,0,0-.18,1.73v4l.07,3c0,.2,0,.32-.09.35a.69.69,0,0,1-.37.06h-3a.57.57,0,0,1-.37-.08.59.59,0,0,1-.06-.33V79.87H625.75v1.37c0,.2,0,.32-.07.35a.65.65,0,0,1-.35.06h-3.07c-.2,0-.31,0-.35-.08a.59.59,0,0,1-.06-.33l.08-2.73V74.66a27.36,27.36,0,0,0-.19-3.3c1.16,0,2.44.14,3.85.31.35,0,.53.17.53.41a1,1,0,0,1-.09.4,1.62,1.62,0,0,0-.13.36,6.09,6.09,0,0,0-.15,1.58v2.13H633V72.84a16.86,16.86,0,0,0-.26-3.59c1.33,0,2.66.11,4,.22.4,0,.61.18.61.43a5.63,5.63,0,0,1-.28.66,9.18,9.18,0,0,0-.19,2.28v3.71h7.52V74.24A21.46,21.46,0,0,0,644.17,71.06Zm2.31-13.19a42,42,0,0,1,4.66,5.49.75.75,0,0,1,.11.33c0,.12-.11.28-.32.46l-2.14,1.7a1.2,1.2,0,0,1-.46.22c-.09,0-.19-.07-.3-.22a32.83,32.83,0,0,0-4.43-5.95c-.13-.12-.19-.22-.19-.29s.13-.23.37-.39l2-1.31a1.45,1.45,0,0,1,.42-.22A.73.73,0,0,1,646.48,57.87Z"/><path class="cls-2" d="M682.59,49.28a25.19,25.19,0,0,1,4.31,1.35.9.9,0,0,1,.57.76,2.07,2.07,0,0,1-.26.83,8.45,8.45,0,0,0-.68,2.09,68.43,68.43,0,0,0-1.89,13.78c0,2.17,0,3.78.12,4.84.18-.42.59-1.34,1.23-2.75q.69-1.5,1.11-2.52a11.06,11.06,0,0,0,1.33,2.39.83.83,0,0,1,.22.53,1.17,1.17,0,0,1-.22.61,23.33,23.33,0,0,0-1.94,5.75,8.52,8.52,0,0,0-.09,1.16c0,.22,0,.51.05.85V79c0,.18-.15.31-.46.41a15.49,15.49,0,0,1-2.82.65,1.53,1.53,0,0,1-.3,0c-.18,0-.34-.16-.46-.5q-1.63-4.12-1.63-11.54a97.82,97.82,0,0,1,1.56-14.36,27.16,27.16,0,0,0,.31-3.4A8.5,8.5,0,0,0,682.59,49.28ZM700.07,69.4q-.08-3.12-.15-8.66c-1.77.06-3.16.09-4.16.09-1.35,0-2.56,0-3.63-.11-.42,0-.64-.17-.67-.5a20.63,20.63,0,0,1-.28-3.46c1.68.16,3.36.24,5.05.24,1.18,0,2.37,0,3.58-.13l0-4a16.77,16.77,0,0,0-.49-3.69,24.3,24.3,0,0,1,4.58.7c.45.14.68.35.68.65a2.39,2.39,0,0,1-.22.64,4.2,4.2,0,0,0-.31,1.33c0,.85-.08,2.19-.08,4,1.69-.15,3.48-.37,5.38-.68a.8.8,0,0,1,.24,0c.18,0,.3.16.37.48a13.94,13.94,0,0,1,.22,2.7.5.5,0,0,1-.43.57,38.16,38.16,0,0,1-5.82.8c0,3.72.1,7.1.28,10.14a25.56,25.56,0,0,1,6.28,3.62q.3.2.3.39a1.31,1.31,0,0,1-.11.37,21.9,21.9,0,0,1-1.74,2.91.5.5,0,0,1-.35.23.48.48,0,0,1-.33-.19,23.46,23.46,0,0,0-4.09-3q-.48,4.92-6.92,4.92A7.62,7.62,0,0,1,692,78.12a5,5,0,0,1,.59-7.7,7.5,7.5,0,0,1,4.51-1.32A14.92,14.92,0,0,1,700.07,69.4Zm.09,3.6a10.83,10.83,0,0,0-3.29-.5c-1.89,0-2.84.61-2.84,1.81s1,1.91,3.07,1.91a3.33,3.33,0,0,0,2.36-.82,2.15,2.15,0,0,0,.74-1.64A5.35,5.35,0,0,0,700.16,73Z"/><path class="cls-2" d="M740.15,71.93a.74.74,0,0,1,.48.22,28.7,28.7,0,0,1,7.54,6.93,1.07,1.07,0,0,1,.26.57.87.87,0,0,1-.37.61l-2.31,2a1.39,1.39,0,0,1-.53.35.62.62,0,0,1-.52-.37A27.6,27.6,0,0,0,737.53,75c-.22-.15-.33-.27-.33-.37a.87.87,0,0,1,.26-.46l2.12-1.89A.86.86,0,0,1,740.15,71.93Z"/><rect class="cls-3" x="150" y="104" width="400" height="92" rx="3.76"/><path class="cls-2" d="M234.16,147l-5.93.09a.78.78,0,0,1-.48-.09.81.81,0,0,1-.06-.4v-3.23c0-.23,0-.36.11-.41a.9.9,0,0,1,.43-.06l5.93.09h12.41l5.93-.09c.23,0,.38,0,.43.09a.62.62,0,0,1,.07.38v3.23a.68.68,0,0,1-.09.43.86.86,0,0,1-.41.06l-5.93-.09h-3.73v5.85h5.37l5-.09q.38,0,.45.09a.6.6,0,0,1,.08.38v3.23c0,.2,0,.32-.08.36a.84.84,0,0,1-.45.07l-5-.09h-5.37v7.52a75.89,75.89,0,0,0,8.48.39c2.22,0,5.07-.13,8.53-.39a12.92,12.92,0,0,0-.84,3.16c-.08.7-.21,1.12-.38,1.24a3.15,3.15,0,0,1-1.18.26c-1.68.09-3.41.13-5.2.13q-11.7,0-16.37-2.15a14.34,14.34,0,0,1-5.93-5.5,25.59,25.59,0,0,1-5.38,7.52c-.45.5-.78.75-1,.75s-.45-.28-.88-.83a9.47,9.47,0,0,0-2.56-2.28,20.59,20.59,0,0,0,7.93-13.9,27.55,27.55,0,0,0,.26-2.82c1.27.19,2.67.47,4.18.84q.84.18.84.6a1.4,1.4,0,0,1-.41.84,4.12,4.12,0,0,0-.58,1.38,31.49,31.49,0,0,1-.79,3.46,15.69,15.69,0,0,0,2.81,4.06,10.52,10.52,0,0,0,3.81,2.23V147Zm18.39-12.5,5.8-.09c.33,0,.49.15.49.43l-.08,2.3V139l.08,4.84c0,.23,0,.36-.11.41a.69.69,0,0,1-.38.06h-3.61c-.23,0-.37,0-.41-.09a.74.74,0,0,1-.06-.38v-5.33H226.42v5.33c0,.23,0,.36-.11.41a.9.9,0,0,1-.43.06h-3.56c-.23,0-.37,0-.41-.09a.74.74,0,0,1-.06-.38l.08-4.84v-1.5l-.08-2.69c0-.28.15-.43.47-.43l5.86.09h9.41v-.39a18.94,18.94,0,0,0-.32-4.19c1.48,0,3,.08,4.71.22q.66.09.66.45a2.69,2.69,0,0,1-.26.84,10.86,10.86,0,0,0-.17,2.64v.43Z"/><path class="cls-2" d="M272.76,164.52a27.51,27.51,0,0,1-5.09,5.14,2.29,2.29,0,0,1-1,.49c-.22,0-.55-.26-1-.79a12,12,0,0,0-2.28-2.17,20.58,20.58,0,0,0,5.71-4.88,9.7,9.7,0,0,0,1.06-1.72,29.27,29.27,0,0,1,3.39,1.55c.42.2.62.42.62.66s-.16.45-.49.61A6.12,6.12,0,0,0,272.76,164.52Zm-2.64-4.27-5.5.08c-.23,0-.36,0-.41-.08a.81.81,0,0,1-.06-.39v-3c0-.23,0-.36.08-.4a.68.68,0,0,1,.39-.07l3.52.09v-17c-.78,0-1.51,0-2.19.06l-.71,0a.77.77,0,0,1-.47-.09.59.59,0,0,1-.06-.34V136c0-.23,0-.37.1-.41a.78.78,0,0,1,.43-.07l2.9.09v-.75a29.35,29.35,0,0,0-.25-4.58c1.63.06,3,.14,4.16.26.42.06.63.19.63.41a2.89,2.89,0,0,1-.26.83,12,12,0,0,0-.21,3v.8h6.05v-.84a29.87,29.87,0,0,0-.25-4.58c2.39.16,3.77.26,4.14.31s.63.19.63.4a4.23,4.23,0,0,1-.22.84,10.26,10.26,0,0,0-.28,3.07v.8l1.83-.07.64,0c.29,0,.43.16.43.48v3.05a.38.38,0,0,1-.43.43l-2.47-.05v17l1.87-.07.64,0c.29,0,.43.16.43.47v3c0,.32-.14.47-.43.47l-5.37-.08Zm2.09-17.43h6.05v-3.39h-6.05Zm0,6.77h6.05V146.3h-6.05Zm0,6.88h6.05v-3.4h-6.05Zm7.39,4.44a19.8,19.8,0,0,0,3.73,3.83,12.22,12.22,0,0,0-2.42,2.15c-.36.44-.61.66-.76.66s-.38-.18-.73-.53a23.45,23.45,0,0,1-3.18-4.09.74.74,0,0,1-.15-.38c0-.13.11-.27.33-.41l2.29-1.27a1.38,1.38,0,0,1,.52-.28C279.34,160.59,279.47,160.7,279.6,160.91Zm13.23,4.39c1.36.08,2.62.13,3.78.13q1.35,0,1.35-1.53V156H290.9a34.79,34.79,0,0,1-1.61,8,26.32,26.32,0,0,1-2.58,5.22c-.35.56-.61.83-.8.83s-.43-.22-.88-.66a11,11,0,0,0-2.73-2.06,19.91,19.91,0,0,0,3.89-8.4,69.42,69.42,0,0,0,.82-12.53v-7.26l-.09-7.28a.73.73,0,0,1,.09-.46.83.83,0,0,1,.41-.06l4.53.09h5.39l4.54-.09c.24,0,.38,0,.42.11a.7.7,0,0,1,.07.41l-.09,7.28V159l.13,6.08a4.54,4.54,0,0,1-1.27,3.61c-.94.76-2.75,1.14-5.41,1.14a2.42,2.42,0,0,1-1.31-.2,3.86,3.86,0,0,1-.41-1.16A9,9,0,0,0,292.83,165.3Zm-1.68-13.24H298v-6.42h-6.68v.79C291.28,148.51,291.24,150.39,291.15,152.06Zm6.81-16.6h-6.68v6.27H298Z"/><path class="cls-2" d="M307.29,147a39.3,39.3,0,0,0,7.93-14.11,16.36,16.36,0,0,0,.75-3.12,38.18,38.18,0,0,1,4.08,1.27c.5.23.75.45.75.67a1.15,1.15,0,0,1-.49.79,5.38,5.38,0,0,0-.93,1.8c-.65,1.8-1.47,3.74-2.44,5.85v22.92l.08,6.68c0,.33-.15.5-.45.5h-3.69c-.29,0-.43-.17-.43-.5l.08-6.68V152.94c0-2.32,0-4.09,0-5.32a34.13,34.13,0,0,1-2.6,3.28c-.35.42-.62.63-.79.63s-.3-.27-.43-.8A12.29,12.29,0,0,0,307.29,147Zm18.24,1-6.08.09A.71.71,0,0,1,319,148a.56.56,0,0,1-.07-.34v-3c0-.23,0-.37.09-.41a1,1,0,0,1,.43-.07l6.08.09h.54v-4.7c-1.42,0-2.67,0-3.74.06l-.82,0h-.26c-.23,0-.36,0-.4-.08a1,1,0,0,1-.07-.46v-2.94a.71.71,0,0,1,.09-.45.74.74,0,0,1,.38-.06l4.82.08v-1.35a23.69,23.69,0,0,0-.28-4.15c1.86.06,3.38.13,4.55.22.42,0,.62.19.62.45a2.72,2.72,0,0,1-.27.88,9.43,9.43,0,0,0-.22,2.64v1.31h5.63v-1.4a23.29,23.29,0,0,0-.28-4.14c1.78.06,3.29.13,4.56.21.41,0,.62.21.62.5a3,3,0,0,1-.28.84,9.16,9.16,0,0,0-.22,2.53v1.46l5.72-.08c.23,0,.36,0,.41.08a1,1,0,0,1,.06.43v2.94a.9.9,0,0,1-.08.48.76.76,0,0,1-.39.06l-5.72-.08v4.7h1.27l6-.09a.71.71,0,0,1,.45.09.81.81,0,0,1,.06.39v3c0,.2,0,.32-.08.36a.78.78,0,0,1-.43.07l-6-.09Zm.86,22.22H323c-.23,0-.36,0-.41-.09a.81.81,0,0,1-.06-.39l.08-7.69v-4.83l-.08-5.84c0-.25,0-.39.08-.43a.68.68,0,0,1,.39-.07l5.63.09h9.63l5.58-.09a.66.66,0,0,1,.43.09.79.79,0,0,1,.07.41l-.09,5.13V162l.09,7.65c0,.28-.17.42-.5.42h-3.5c-.33,0-.5-.14-.5-.42V168H326.9v1.71c0,.23,0,.37-.08.41A.78.78,0,0,1,326.39,170.22Zm.51-15.6v3.07h12.89v-3.07Zm0,9.75h12.89v-3.16H326.9Zm3.57-20.15h5.63v-4.7h-5.63Z"/><path class="cls-2" d="M366,154.53a11.46,11.46,0,0,0-.09,1.55c0,.39,0,.78,0,1.18s.05.62.05.73a1,1,0,0,1-.18.68,4.86,4.86,0,0,1-1,.61q-3.48,1.74-8.76,3.74a5.45,5.45,0,0,0-1.44.71,1.08,1.08,0,0,1-.75.3c-.29,0-.51-.18-.67-.54-.31-.83-.71-2.13-1.18-3.91a33.83,33.83,0,0,0,4.36-1.09l1-.3V145.68H357l-4,.09q-.34,0-.39-.09a1,1,0,0,1,0-.39v-3.35a.87.87,0,0,1,.06-.43.69.69,0,0,1,.37-.06l4,.09h.36v-4.13a41.15,41.15,0,0,0-.36-6.47c1.69.05,3.2.15,4.55.3.47,0,.71.23.71.54a3.43,3.43,0,0,1-.28.88,17.71,17.71,0,0,0-.26,4.17v4.71l3.61-.09c.29,0,.43.16.43.49v3.35c0,.32-.14.48-.43.48l-3.61-.09v10.87A46.11,46.11,0,0,0,366,154.53Zm22.1,4.71a12.68,12.68,0,0,0,3.18,1.39,2.63,2.63,0,0,1,.86.33.5.5,0,0,1,.18.45c0,.11,0,.34-.07.69a15,15,0,0,1-.86,4.23,3.77,3.77,0,0,1-1.52,1.7,8.26,8.26,0,0,1-3.53,1.16,57.6,57.6,0,0,1-6.89.3c-4.9,0-8-.41-9.28-1.23q-1.68-1-1.68-4.36V150.17c-.77.27-1.63.59-2.58,1l-.94.32-.3.06c-.13,0-.23-.13-.28-.4l-.56-3.44a1.51,1.51,0,0,1-.05-.28q0-.15.39-.3c1.19-.29,2.63-.71,4.32-1.27V141c0-.39,0-.78,0-1.19a40,40,0,0,0-.28-5.07c1.49.05,2.9.13,4.23.26.59.09.89.25.89.5a2.57,2.57,0,0,1-.28.92,16.2,16.2,0,0,0-.26,4.17v3.8l4.21-1.42v-6.38a56.94,56.94,0,0,0-.34-6.25,33.7,33.7,0,0,1,4.49.37c.47,0,.7.2.7.47a3.82,3.82,0,0,1-.27.88,15.77,15.77,0,0,0-.26,4v5.55l3.39-1.14q2.37-.78,4.47-1.53a12.91,12.91,0,0,1,1.29-.45h.11q.36,0,.36.45l-.13,5.63a42.85,42.85,0,0,1-1.05,9.93q-.85,3.34-3.78,3.35a11.23,11.23,0,0,1-1.63-.09c-.5,0-.81-.13-.91-.28a4.29,4.29,0,0,1-.28-1.18,9.73,9.73,0,0,0-.92-3.16,10.33,10.33,0,0,0,2.32.3,1,1,0,0,0,.88-.34,2.83,2.83,0,0,0,.45-1.29,47.88,47.88,0,0,0,.52-7.69l-5.09,1.76v7.65l.08,6.83c0,.22,0,.35-.07.4s-.19.07-.42.07h-3.52c-.23,0-.37,0-.41-.08a.68.68,0,0,1-.07-.39l.09-6.83v-6.19l-4.21,1.44v13.94c0,1,.28,1.72.84,2s2.66.48,6.31.48a37.47,37.47,0,0,0,5.2-.24,4,4,0,0,0,1.89-.69,2.57,2.57,0,0,0,.78-1.57A25.6,25.6,0,0,0,388.13,159.24Z"/><path class="cls-2" d="M418.6,139.84q-1.65,12.22-5.5,18.95-2.89,5.07-7.5,5.07-3.33,0-5.63-3.35a13.91,13.91,0,0,1-2.15-7.95,15.77,15.77,0,0,1,5-11.45,19.35,19.35,0,0,1,14.31-5.63q8.26,0,12.89,4.9a14.57,14.57,0,0,1,3.86,10.35q0,11.94-13.55,16a2.66,2.66,0,0,1-.65.11c-.43,0-.84-.31-1.24-.91a9.2,9.2,0,0,0-3.08-2.77q6.8-1.6,9.89-4.53a11.3,11.3,0,0,0,3.39-8.62,10,10,0,0,0-3.07-7.43,9.24,9.24,0,0,0-6.77-2.77Zm-5.11.26a13.51,13.51,0,0,0-7.52,4,12.09,12.09,0,0,0-3.44,8.14,9.41,9.41,0,0,0,1.1,4.88c.57.95,1.2,1.42,1.89,1.42,1.2,0,2.3-.9,3.3-2.69a37.39,37.39,0,0,0,2.95-7.56A56.36,56.36,0,0,0,413.49,140.1Z"/><path class="cls-2" d="M439.27,165a57,57,0,0,0,19.53-9.74,22.12,22.12,0,0,0-.88-2.1,63.38,63.38,0,0,1-13.9,6.66,7.18,7.18,0,0,1-1.06.3c-.23,0-.51-.31-.83-.92a10,10,0,0,0-1.94-2.48,49.21,49.21,0,0,0,16-6.59,18.91,18.91,0,0,0-1.27-1.85,56.43,56.43,0,0,1-9.45,3.8,4.37,4.37,0,0,1-1,.22c-.25,0-.51-.24-.8-.73a9.52,9.52,0,0,0-2-2.6,51.94,51.94,0,0,0,13.77-4.71h-2.29l-5.89.09c-.26,0-.42,0-.47-.11a.7.7,0,0,1-.07-.41v-2.77c0-.26,0-.41.11-.47a.93.93,0,0,1,.43-.06l5.89.08h12.5l5.93-.08c.23,0,.37,0,.43.08a1.07,1.07,0,0,1,.06.45v2.77a.83.83,0,0,1-.08.46.88.88,0,0,1-.41.06l-5.8-.09a35,35,0,0,0,2.15,6.47,36.3,36.3,0,0,0,2.72-2.86,16.87,16.87,0,0,0,1.9-2.64,30.1,30.1,0,0,1,3.22,2.47c.44.32.66.61.66.88s-.19.54-.58.67A13.47,13.47,0,0,0,473.9,151q-2.22,2.13-4,3.52a29,29,0,0,0,9.9,9.13,13.48,13.48,0,0,0-2.36,3c-.39.67-.68,1-.88,1a4.28,4.28,0,0,1-.93-.54,32.59,32.59,0,0,1-9.3-10.5,51.53,51.53,0,0,1-4.75-12.38h-.21a32.93,32.93,0,0,1-3,2,24.08,24.08,0,0,1,5.76,15.58q0,4.94-1.61,6.68-1.44,1.55-5,1.54a22.62,22.62,0,0,1-2.3-.08,2,2,0,0,1-1.1-.26,2.26,2.26,0,0,1-.3-.92,8.86,8.86,0,0,0-1.29-3.16,42.06,42.06,0,0,0,4.58.26,2.33,2.33,0,0,0,2.13-.86,7.07,7.07,0,0,0,.56-3.38,22.1,22.1,0,0,0-.13-2.36,63.91,63.91,0,0,1-16.42,8.94,6.88,6.88,0,0,1-1.05.3c-.26,0-.55-.32-.88-1A9,9,0,0,0,439.27,165Zm32.37-31.37,5.83-.09c.23,0,.36,0,.41.09a.86.86,0,0,1,.06.41l-.09,2.1V138l.09,4.7c0,.23,0,.37-.09.41a.71.71,0,0,1-.38.07h-3.61c-.25,0-.39,0-.43-.09a.68.68,0,0,1-.07-.39v-5.2h-28v5.2c0,.23,0,.37-.09.41a.77.77,0,0,1-.4.07h-3.61c-.23,0-.37,0-.41-.09a.78.78,0,0,1-.07-.39l.09-4.7v-1.46l-.09-2.45c0-.25,0-.39.09-.43a.68.68,0,0,1,.39-.07l5.82.09h9.62v-.09a17.63,17.63,0,0,0-.3-3.74c1.65,0,3.23.13,4.75.26.45.05.67.17.67.39a3.64,3.64,0,0,1-.28.88,7.3,7.3,0,0,0-.22,2.21v.09Z"/><polygon class="cls-3" points="605 173 595 173 595 155 577 155 577 145 595 145 595 127 605 127 605 145 623 145 623 155 605 155 605 173"/><rect class="cls-3" x="650" y="104" width="400" height="92" rx="3.76"/><path class="cls-2" d="M749.11,144.4l-5.63.09a.66.66,0,0,1-.43-.09A.74.74,0,0,1,743,144v-3.68c0-.23,0-.36.1-.41a.76.76,0,0,1,.39-.06l5.63.09H759c.12-2,.18-3.58.18-4.75,0-.3,0-.65,0-1.05a31.85,31.85,0,0,0-.24-4.07,45.34,45.34,0,0,1,5,.37c.53.1.79.3.79.6a1.81,1.81,0,0,1-.3.93,8.69,8.69,0,0,0-.36,3.09c-.06,2.16-.13,3.79-.22,4.88h11.37l5.62-.09c.23,0,.37,0,.41.09a.62.62,0,0,1,.07.38V144c0,.23,0,.36-.09.4a.68.68,0,0,1-.39.07l-5.62-.09h-10.4a36.26,36.26,0,0,0,7.24,12.77,27.73,27.73,0,0,0,10.5,7.6,14.61,14.61,0,0,0-2.55,3.31c-.38.7-.68,1-.93,1a2.26,2.26,0,0,1-1-.43,35.18,35.18,0,0,1-9.89-8.81,40,40,0,0,1-5.95-10.57,31.23,31.23,0,0,1-2.12,5.55q-4.35,8.59-14,14a2.74,2.74,0,0,1-1,.39c-.27,0-.61-.32-1-1a12.47,12.47,0,0,0-2.55-2.81Q751.78,161,755.79,153a28.18,28.18,0,0,0,2.69-8.62Zm12.68,14.12a36.75,36.75,0,0,1,5,6.29,1,1,0,0,1,.17.37c0,.1-.14.26-.43.47l-2.86,2.11a1.22,1.22,0,0,1-.58.28c-.11,0-.24-.12-.38-.35a30.52,30.52,0,0,0-4.84-6.53c-.14-.16-.21-.27-.21-.34s.15-.25.47-.45l2.81-1.94a.94.94,0,0,1,.46-.19C761.46,158.24,761.6,158.33,761.79,158.52Z"/><path class="cls-2" d="M797.06,143.72a11.76,11.76,0,0,1,3.31,8.72q0,5.09-5.37,5.91a7.28,7.28,0,0,1-.79.08.52.52,0,0,1-.56-.34,5.05,5.05,0,0,1-.18-1.08,5.65,5.65,0,0,0-.83-2.59l.51,0a3.08,3.08,0,0,0,2.45-.82,3.52,3.52,0,0,0,.62-2.32c0-2.29-1.15-4.76-3.45-7.39a63.92,63.92,0,0,0,3.52-8.81h-4.23v25l.08,9.51c0,.22,0,.35-.08.39a1,1,0,0,1-.39,0h-3.48a.85.85,0,0,1-.43-.06.67.67,0,0,1-.06-.37l.08-9.51V141l-.08-9.58c0-.23,0-.37.08-.41a.86.86,0,0,1,.41-.06l3.48.08h5.67a3.73,3.73,0,0,0,.88-.13,1.4,1.4,0,0,1,.6-.13c.33,0,.89.47,1.68,1.4s1.14,1.46,1.14,1.76a1.19,1.19,0,0,1-.43.8,3.77,3.77,0,0,0-.84,1.31Q798.73,140.36,797.06,143.72Zm2.13,20.43a22.47,22.47,0,0,0,9.45-7.69h-2.47A27.14,27.14,0,0,1,801,160.8a2.7,2.7,0,0,1-1,.49c-.23,0-.6-.29-1.1-.88a6.17,6.17,0,0,0-2.15-1.48,21.44,21.44,0,0,0,7.74-6.34,21.05,21.05,0,0,0,1-1.93q-1.72,0-3.09.06l-1,0c-.23,0-.37,0-.41-.08a.81.81,0,0,1-.06-.39v-2.84a.65.65,0,0,1,.08-.41.81.81,0,0,1,.39-.06l6,.09h12.23l5.88-.09c.26,0,.42,0,.47.09a.62.62,0,0,1,.07.38v2.84c0,.23,0,.36-.11.41a.93.93,0,0,1-.43.06l-5.88-.08H807.8l1.32.38c.47.15.7.35.7.63a.61.61,0,0,1-.25.51,2.66,2.66,0,0,0-.71.71h10.33l5.07-.09c.39,0,.58.18.58.54-.06.55-.11,1.28-.15,2.21s-.09,1.6-.11,1.87a42.41,42.41,0,0,1-1.11,8.75,4.42,4.42,0,0,1-1.68,2.7,5.18,5.18,0,0,1-2.9.69c-.85,0-1.53,0-2.06-.08s-.88-.15-1-.31a4.19,4.19,0,0,1-.34-1.2,7.34,7.34,0,0,0-1.06-2.86,18.72,18.72,0,0,0,3.1.33,2,2,0,0,0,2-1.42,39.56,39.56,0,0,0,.88-7.56h-1.33a28,28,0,0,1-4.39,7.71,23.94,23.94,0,0,1-6,5.09,3.2,3.2,0,0,1-1.06.47c-.2,0-.55-.29-1-.88a11.15,11.15,0,0,0-1.89-1.44,21.43,21.43,0,0,0,10.38-10.95H813a27,27,0,0,1-9.47,9.36,2.28,2.28,0,0,1-1,.45,3.43,3.43,0,0,1-1.14-.79A7.2,7.2,0,0,0,799.19,164.15Zm17.72-32.85,5.14-.09c.21,0,.34,0,.39.11a.93.93,0,0,1,.06.43l-.09,3.67v5.33l.09,3.7c0,.31-.15.47-.45.47l-5.14-.09h-7.79l-5,.09c-.25,0-.39,0-.43-.09a.62.62,0,0,1-.07-.38l.09-3.7v-5.33l-.09-3.67c0-.26,0-.42.09-.47a.7.7,0,0,1,.41-.07l5,.09Zm-9.19,3.31v2h10.5v-2Zm10.5,7.06v-2h-10.5v2Z"/><path class="cls-2" d="M837,150.2l-5.63.09c-.24,0-.38,0-.43-.11a.83.83,0,0,1-.06-.41v-3.43c0-.25,0-.39.09-.43a.68.68,0,0,1,.4-.07l5.63.09h10.34V135.32a44.72,44.72,0,0,0-.26-5.35,37.31,37.31,0,0,1,4.79.34c.44,0,.67.24.67.58a2.26,2.26,0,0,1-.33.92,13.19,13.19,0,0,0-.25,3.51v10.61h11.23l5.63-.09c.29,0,.43.17.43.5v3.43a.9.9,0,0,1-.06.43c-.05.06-.17.09-.37.09l-5.63-.09h-6.92v11.88a4.11,4.11,0,0,0,.43,2.37c.39.38,1.45.58,3.18.58,1.92,0,3.2-.3,3.83-.88a3.47,3.47,0,0,0,.81-1.94,24.21,24.21,0,0,0,.2-3.35,8.13,8.13,0,0,0,3.33,1.38,3.44,3.44,0,0,1,.92.28.51.51,0,0,1,.2.47,5,5,0,0,1-.07.6c-.24,2.94-.89,4.91-1.93,5.91a6,6,0,0,1-2.84,1.44,22,22,0,0,1-4.81.41,22.8,22.8,0,0,1-4.68-.35,3.81,3.81,0,0,1-2.05-1.07c-.76-.8-1.13-2.44-1.13-4.92V150.2h-4.82q-.27,8.13-3.46,12.68c-2,3-5.22,5.18-9.51,6.68a6.73,6.73,0,0,1-1,.22c-.29,0-.62-.37-1-1.1a10.19,10.19,0,0,0-2.19-2.81q7-1.94,9.8-5.8,2.44-3.47,2.6-9.87Zm1.64-17.33a40.58,40.58,0,0,1,4.92,8.55,1.3,1.3,0,0,1,.08.32c0,.11-.17.29-.51.51l-3,1.53a1.34,1.34,0,0,1-.51.22c-.15,0-.27-.13-.37-.39a33.69,33.69,0,0,0-4.7-8.57.7.7,0,0,1-.15-.35c0-.11.15-.25.47-.41l2.9-1.5a1.4,1.4,0,0,1,.49-.17C838.43,132.61,838.54,132.69,838.66,132.87Zm16.67,9.51a40,40,0,0,0,5.11-8.14,9.81,9.81,0,0,0,.6-1.85,26.7,26.7,0,0,1,4.17,2c.33.19.5.38.5.58s-.15.39-.43.64a3.65,3.65,0,0,0-.8,1.16,72.74,72.74,0,0,1-4.27,6.77c-.42.59-.74.88-1,.88a2.26,2.26,0,0,1-1-.53A31.81,31.81,0,0,0,855.33,142.38Z"/><path class="cls-2" d="M909,160.24a9.62,9.62,0,0,0,3,1.22,3.93,3.93,0,0,1,1,.35.58.58,0,0,1,.21.51,5.29,5.29,0,0,1-.06.65,13.86,13.86,0,0,1-.93,3.65,3.77,3.77,0,0,1-1.42,1.63q-1.69,1.09-6.33,1.1c-3.61,0-5.88-.33-6.81-1a2.69,2.69,0,0,1-1.14-1.42,7.84,7.84,0,0,1-.24-2.28v-7.26h-5.41a14,14,0,0,1-4.06,7.72,23.52,23.52,0,0,1-7.82,4.34,5.67,5.67,0,0,1-1,.3c-.24,0-.57-.37-1-1.1a9.61,9.61,0,0,0-2.23-2.86c3.72-1,6.42-2.12,8.1-3.43a9.46,9.46,0,0,0,3.2-5h-3.31l-5.89.09a.77.77,0,0,1-.47-.09.74.74,0,0,1-.06-.38v-3.18c0-.23,0-.37.1-.41a.89.89,0,0,1,.43-.07l5.89.09h4c0-1.29.08-2.36.08-3.22v-1.51l-2.17.07-.69,0a.77.77,0,0,1-.47-.09.74.74,0,0,1-.06-.38v-1.68A62.8,62.8,0,0,1,877.5,150a3.52,3.52,0,0,1-1,.34q-.35,0-.93-1.14a9.48,9.48,0,0,0-1.78-2.43,46.92,46.92,0,0,0,8.12-4,36.7,36.7,0,0,0-4.44-4.27c-.23-.19-.35-.34-.35-.45s.12-.2.35-.39l2.21-1.76a1.14,1.14,0,0,1,.49-.28.75.75,0,0,1,.39.19,57.33,57.33,0,0,1,4.79,4.45,26.58,26.58,0,0,0,4.92-5.24h-4.92l-4.62.08c-.26,0-.41,0-.45-.08a.58.58,0,0,1-.09-.39v-3c0-.23,0-.36.11-.41a.93.93,0,0,1,.43-.06l4.62.08h6.08l4-.08a.79.79,0,0,1,.75.54,13.68,13.68,0,0,0,2,3.78s.23.33.62.86a20.82,20.82,0,0,0,2.64-2.82,13,13,0,0,0,1.23-1.82,29.65,29.65,0,0,1,3.39,2,.87.87,0,0,1,.48.68c0,.27-.2.5-.58.67a5.12,5.12,0,0,0-1.49,1.18,41.72,41.72,0,0,1-3,2.92c1.06.93,1.86,1.61,2.41,2a36.5,36.5,0,0,0,3.76-3.65,13,13,0,0,0,1.22-1.89c1.41.77,2.55,1.45,3.42,2a1,1,0,0,1,.54.75c0,.26-.2.46-.58.6a4.87,4.87,0,0,0-1.53,1.2q-1.45,1.44-3.39,3.12a41.91,41.91,0,0,0,7.17,3,13.25,13.25,0,0,0-1.59,2.79c-.31.76-.59,1.14-.83,1.14a2.84,2.84,0,0,1-1-.3,47.24,47.24,0,0,1-6.77-3.55v2.09c0,.23,0,.36-.09.4a.72.72,0,0,1-.41.07l-1,0-2.11-.07v4.73h4.45l5.93-.09a.66.66,0,0,1,.43.09.81.81,0,0,1,.06.39V157c0,.21,0,.34-.07.39a.69.69,0,0,1-.42.08l-5.93-.09h-4.45v5.93c0,.8.16,1.32.47,1.55s1.47.45,3.23.45,3-.24,3.48-.71S908.81,162.63,909,160.24ZM894.21,136a33.13,33.13,0,0,1-8.27,8.86h16.25A30.67,30.67,0,0,1,894.21,136Zm-2.94,17.45h4.92v-4.73h-4.83v1.51C891.36,151,891.33,152.11,891.27,153.47Z"/><path class="cls-2" d="M928.27,134.76l-6,.08a.88.88,0,0,1-.47-.08.81.81,0,0,1-.06-.39v-2.88c0-.23,0-.36.11-.41a.88.88,0,0,1,.42-.06l6,.08H948l6-.08a.65.65,0,0,1,.41.08.81.81,0,0,1,.06.39v2.88c0,.23,0,.37-.09.41a.74.74,0,0,1-.38.06l-6-.08h-8v1.76H950.8l5.76-.09c.25,0,.39,0,.43.09a.72.72,0,0,1,.07.41l-.09,2.19v2.3l.09,4.49c0,.23,0,.36-.09.41a.86.86,0,0,1-.41.06h-3.41c-.25,0-.39,0-.43-.09a.62.62,0,0,1-.07-.38v-6H940v3.74l.09,4.4c0,.29-.16.43-.48.43H936c-.33,0-.49-.14-.49-.43l.09-4.4v-3.74H923.43v6a.65.65,0,0,1-.08.41.88.88,0,0,1-.41.06h-3.42c-.3,0-.45-.16-.45-.47l0-4.49v-1.94l0-2.55c0-.33.14-.5.43-.5l5.78.09h10.34v-1.76Zm17.16,14.65,6.9-.09c.24,0,.39,0,.43.11a.86.86,0,0,1,.06.41l-.08,4v5l.08,4a.68.68,0,0,1-.07.4c0,.05-.19.07-.42.07l-6.9-.08h-5.58v.66a2.25,2.25,0,0,0,.21,1.18,1.28,1.28,0,0,0,.63.37,40.32,40.32,0,0,0,5.84.26q5.33,0,6.47-.93a2.34,2.34,0,0,0,.79-1.29,19,19,0,0,0,.3-3.15,14,14,0,0,0,3.14,1.26,3.05,3.05,0,0,1,.92.37.71.71,0,0,1,.17.56c0,.11,0,.32,0,.62-.3,2.52-1.13,4.23-2.49,5.11s-4.52,1.36-9.17,1.36-7.44-.24-8.81-.71-2.24-1.88-2.24-4v-1.63h-8.1v1.8c0,.23,0,.37-.07.42a.69.69,0,0,1-.42.08H923.5c-.29,0-.43-.17-.43-.5l.08-4v-7.09l-.08-4.1a.81.81,0,0,1,.08-.45c.05,0,.16-.07.35-.07l6.62.09ZM933,141.35c.32,0,.49.14.49.41v1.76c0,.2-.17.3-.49.3l-2.45,0h-2.13l-2.45,0c-.33,0-.49-.11-.49-.34v-1.76c0-.25.16-.37.49-.37l2.45.07h2.13Zm0,3.89c.32,0,.49.13.49.39v1.67c0,.26-.17.39-.49.39l-2.45,0h-2.13l-2.45,0c-.33,0-.49-.13-.49-.39v-1.72c0-.22.16-.34.49-.34l2.45,0h2.13Zm-5.55,9.54h8.1v-2.21h-8.1Zm0,5.33h8.1v-2.3h-8.1Zm20.91-7.54h-8.53v2.21h8.53Zm0,7.54v-2.3h-8.53v2.3ZM950,141.27c.31,0,.47.13.47.4v1.72c0,.26-.16.39-.47.39l-2.6-.09h-2.15l-2.6.09c-.33,0-.49-.14-.49-.43v-1.72c0-.24.16-.36.49-.36l2.6,0h2.15Zm0,3.89c.31,0,.47.12.47.38v1.72c0,.23-.16.34-.47.34l-2.6,0h-2.15l-2.6,0c-.33,0-.49-.11-.49-.34V145.5c0-.23.16-.34.49-.34l2.6,0h2.15Z"/></svg>