<?xml version="1.0" encoding="UTF-8"?><svg id="_レイヤー_2" xmlns="http://www.w3.org/2000/svg" viewBox="0 0 344.56 90.997"><defs><style>.cls-1{fill:#fff;}.cls-2{fill:#004ea3;}.cls-3{fill:#1a1311;}</style></defs><g id="_レイヤー_1-2"><rect class="cls-2" width="344.56" height="37.91"/><path class="cls-1" d="M75.339,16.701c-.468.624-.988,1.248-1.508,1.846-.208.234-.364.338-.468.338-.104,0-.183-.13-.286-.442-.182-.832-.546-1.742-.858-2.236,2.263-2.418,3.822-5.252,4.914-8.294.208-.598.339-1.17.416-1.82.937.234,1.794.442,2.574.78.286.13.391.208.391.39s-.053.312-.261.468c-.182.13-.312.364-.546,1.04-.494,1.274-1.065,2.548-1.716,3.77v13.183c0,2.548.052,3.822.052,3.952,0,.26-.025.286-.26.286h-2.236c-.233,0-.26-.026-.26-.286,0-.156.052-1.404.052-3.952v-9.022ZM82.984,28.87c-2.548,0-3.458.052-3.614.052-.26,0-.286-.026-.286-.312v-2.002c0-.26.026-.286.286-.286.156,0,1.066.052,3.614.052h3.172v-5.382h-1.742c-2.418,0-3.25.052-3.406.052-.285,0-.312-.026-.312-.286v-1.95c0-.26.026-.286.312-.286.156,0,.988.052,3.406.052h1.742v-4.498h-2.443c-2.522,0-3.381.052-3.537.052-.26,0-.285-.026-.285-.286v-1.976c0-.286.025-.286.285-.286.156,0,1.015.026,3.537.026h8.138c2.496,0,3.38-.026,3.536-.026.286,0,.312,0,.312.286v1.976c0,.26-.026.286-.312.286-.156,0-1.04-.052-3.536-.052h-2.912v4.498h2.054c2.444,0,3.276-.052,3.433-.052.26,0,.286.026.286.286v1.95c0,.26-.026.286-.286.286-.156,0-.988-.052-3.433-.052h-2.054v5.382h3.666c2.548,0,3.433-.052,3.589-.052.26,0,.285.026.285.286v2.002c0,.286-.025.312-.285.312-.156,0-1.041-.052-3.589-.052h-9.62ZM85.245,6.457c.183-.208.312-.208.547-.104,1.508.624,3.067,1.56,4.523,2.626.13.104.208.156.208.234,0,.052-.078.156-.182.286l-1.222,1.378c-.261.312-.364.312-.572.156-1.301-1.092-2.99-2.08-4.524-2.782-.13-.078-.182-.13-.182-.208s.052-.156.182-.286l1.222-1.3Z"/><path class="cls-1" d="M120.19,18.833c2.236-.26,2.99-.416,3.276-.442.26-.026.286,0,.312.26l.208,1.95c.025.26,0,.312-.261.338-.26.026-1.117.078-3.354.338l-7.385.832v3.77c0,.754.156,1.066.729,1.17.441.104,1.378.182,2.782.182,2.132,0,3.25-.182,3.744-.624.416-.39.649-1.092.702-2.886.571.286,1.3.572,2.054.728q.702.182.649.884c-.207,1.794-.779,2.834-1.508,3.38-.779.624-2.574.962-5.486.962-2.027,0-4.16-.156-4.966-.442-1.014-.39-1.456-1.404-1.456-2.548v-4.29l-5.174.572c-2.236.286-2.912.39-3.25.442-.261.026-.312,0-.339-.286l-.208-1.976c-.025-.26,0-.286.286-.312.338-.026,1.04-.052,3.276-.312l5.408-.598v-2.886c-1.586.312-3.276.598-5.07.832q-.702.104-.962-.65c-.234-.702-.572-1.3-.937-1.742,4.395-.39,9.283-1.404,12.429-2.34.754-.208,1.353-.494,1.925-.832.676.494,1.3,1.144,1.716,1.638.155.182.26.286.26.52,0,.156-.13.286-.442.312-.285.052-.649.13-1.04.234-1.611.546-3.302,1.014-5.122,1.43v3.198l7.202-.806ZM119.904,8.875c2.393,0,3.251-.052,3.433-.052.26,0,.286.026.286.26,0,.156-.052.624-.052,1.378v1.144c0,2.34.052,2.756.052,2.912,0,.26-.026.286-.286.286h-2.158c-.286,0-.312-.026-.312-.286v-3.224h-16.485v3.276c0,.286-.025.312-.286.312h-2.184c-.26,0-.286-.026-.286-.312,0-.156.052-.546.052-2.912v-.936c0-.988-.052-1.456-.052-1.638,0-.234.026-.26.286-.26.182,0,1.04.052,3.432.052h5.721v-.208c0-1.118-.026-1.82-.182-2.47.962.026,1.872.078,2.781.156.261,0,.391.104.391.26,0,.182-.078.312-.13.494-.104.234-.13.546-.13,1.56v.208h6.109Z"/><path class="cls-1" d="M134.36,24.892v1.534c0,.442-.104.494-.571.52-.65.026-1.404.026-2.055,0-.441-.026-.572-.078-.546-.39.026-1.352.078-3.198.078-5.174v-6.37c0-1.404.026-2.808-.052-4.316,0-.26.104-.364.285-.364,1.379.078,2.912.078,4.654.078h6.188c1.69,0,3.666,0,4.889-.052.286,0,.363.13.338.52,0,1.274-.026,2.678-.026,4.212v6.214c0,2.262.078,3.536.13,4.94,0,.364-.13.442-.494.442-.779.026-1.611.026-2.392,0-.312,0-.338-.052-.338-.416v-1.378h-10.089ZM144.449,13.165h-10.114v8.97h10.114v-8.97Z"/><path class="cls-1" d="M159.788,19.899c-2.574,0-3.562.312-3.822.312-.312,0-.52-.156-.598-.546-.13-.598-.286-1.82-.39-3.146,1.689.26,2.989.312,5.616.312h8.372c1.976,0,3.978-.052,5.98-.078.39-.026.468.052.468.364.052.78.052,1.664,0,2.444,0,.312-.104.416-.468.39-1.95-.026-3.874-.052-5.799-.052h-9.36Z"/><path class="cls-1" d="M182.798,9.707c.104-.13.234-.208.364-.208.104,0,.208.052.338.13,1.326.702,3.484,2.288,4.967,3.692.155.156.233.26.233.364s-.052.208-.155.338c-.391.52-1.248,1.56-1.612,1.95-.13.13-.208.208-.312.208-.104,0-.208-.078-.338-.208-1.56-1.612-3.432-3.094-5.304-4.238.571-.702,1.326-1.508,1.819-2.028ZM185.061,23.409c3.172-1.638,4.862-2.73,7.488-4.836,3.172-2.574,4.914-4.238,7.124-7.072.156,1.3.391,2.184.729,3.042.078.182.13.338.13.494,0,.234-.13.442-.416.78-1.378,1.612-3.614,3.692-5.98,5.512-2.158,1.69-4.342,3.146-7.853,5.096-1.17.702-1.508.962-1.742,1.196-.155.156-.312.26-.468.26-.13,0-.286-.104-.442-.286-.649-.728-1.455-1.794-2.08-2.886,1.326-.364,2.133-.598,3.511-1.3Z"/><path class="cls-1" d="M211.477,24.215c.546,1.066,1.092,1.716,2.158,2.158.91.364,2.548.546,4.81.546,3.354,0,7.307-.182,11.181-.572-.364.546-.598,1.248-.702,1.976q-.13.832-.962.884c-3.302.182-6.396.26-9.101.26-2.678,0-4.836-.234-6.084-.754-1.195-.494-1.897-1.222-2.548-2.314-.806.78-1.716,1.56-2.678,2.288-.261.208-.416.364-.521.52-.13.182-.234.26-.39.26-.104,0-.261-.13-.364-.338-.364-.676-.702-1.508-1.066-2.444.677-.312,1.04-.494,1.534-.806.754-.468,1.509-1.066,2.185-1.664v-5.772h-1.248c-1.404,0-1.769.052-1.898.052-.286,0-.312-.026-.312-.312v-1.976c0-.26.025-.286.312-.286.13,0,.494.052,1.898.052h1.611c1.379,0,1.795-.052,1.95-.052.261,0,.286.026.286.286,0,.156-.052.884-.052,2.47v5.538ZM207.681,7.081c.156-.104.26-.156.338-.156s.13.052.234.13c1.273,1.144,2.496,2.496,3.51,3.978.156.208.182.286-.13.52l-1.456,1.118c-.156.104-.26.182-.338.182s-.156-.078-.234-.182c-1.066-1.586-2.236-3.068-3.432-4.16-.209-.208-.183-.286.104-.468l1.404-.962ZM224.763,12.775c.261,0,.416-.026.547-.104.13-.078.207-.104.338-.104.233,0,.416.078,1.092.728.624.624.702.832.702.988,0,.182-.078.286-.234.442-.208.182-.312.52-.494.936-.78,1.924-1.689,3.562-2.808,5.018,1.534,1.118,3.302,1.924,5.2,2.574-.364.52-.729,1.17-.988,1.872-.156.468-.286.65-.494.65-.13,0-.312-.078-.546-.182-1.872-.806-3.536-1.768-4.94-2.964-1.222,1.144-2.651,2.132-4.394,3.016-.312.156-.494.26-.624.26-.183,0-.286-.182-.521-.598-.364-.65-.728-1.04-1.248-1.43,2.055-.858,3.692-1.82,5.019-2.99-1.353-1.56-2.393-3.458-3.095-5.798h-.441c-.053,1.43-.156,2.782-.364,4.004-.312,2.028-1.014,4.108-2.21,5.954-.208.338-.312.494-.442.494s-.286-.156-.494-.468c-.493-.676-.962-1.118-1.43-1.404,1.248-1.664,1.769-3.38,2.132-5.538.286-1.586.338-3.926.338-6.37,0-2.704-.052-3.952-.052-4.108,0-.286.026-.312.286-.312.156,0,1.04.052,3.484.052h6.812c2.443,0,3.275-.052,3.432-.052.26,0,.286.026.286.312v1.924c0,.26-.026.286-.286.286-.156,0-.988-.052-3.432-.052h-8.009v2.964h7.878ZM219.641,15.089c.599,1.586,1.431,2.886,2.418,3.978.858-1.144,1.561-2.444,2.158-3.978h-4.576Z"/><path class="cls-1" d="M234.694,13.295c.208-.26.286-.26.521-.13,1.273.702,2.521,1.586,3.718,2.652.104.104.156.156.13.26,2.496-.234,4.732-.702,6.631-1.404-1.301-.962-2.419-2.132-3.328-3.562-1.223.026-1.769.052-1.873.052-.285,0-.312-.026-.312-.286v-1.69c0-.234.026-.26.312-.26.156,0,1.041.052,3.562.052h2.548v-.338c0-.884-.025-1.664-.182-2.496.962.026,1.846.078,2.756.182.261.026.416.156.416.26,0,.234-.104.364-.182.546-.104.234-.104.494-.104,1.43v.416h3.589c2.548,0,3.432-.052,3.588-.052.26,0,.286.026.286.26v1.69c0,.26-.026.286-.286.286-.156,0-.884-.026-2.756-.052-.91,1.378-1.977,2.522-3.251,3.51,2.028.728,4.421,1.144,6.995,1.404-.286.364-.572,1.066-.755,1.768-.182.728-.233.728-.962.624-.571-.078-1.092-.182-1.638-.286v8.242c0,2.054.052,3.042.052,3.198,0,.26-.025.286-.312.286h-2.055c-.26,0-.285-.026-.285-.286,0-.156.052-1.144.052-3.198v-1.378h-7.54c-.521,1.898-1.353,3.328-2.679,4.498-.312.26-.468.39-.624.39s-.312-.13-.598-.416c-.521-.52-1.092-.936-1.612-1.222,1.664-1.144,2.652-2.522,3.172-4.524.416-1.534.442-3.12.442-5.642-.494.104-.988.182-1.482.26-.728.104-.754.13-.988-.624-.182-.572-.416-1.092-.649-1.482l-1.274,1.768c-.078.13-.13.182-.208.182-.052,0-.13-.052-.233-.156-1.093-1.092-2.366-2.054-3.641-2.834-.13-.078-.208-.13-.208-.182,0-.078.078-.182.183-.312l1.065-1.404ZM234.928,25.983c.728-1.482,1.612-3.51,2.496-6.032.39.39.936.884,1.456,1.3.39.312.546.442.546.676,0,.13-.052.312-.156.598-.78,2.028-1.586,4.03-2.444,5.746-.208.442-.363.78-.39,1.04-.026.208-.156.338-.338.338-.13,0-.286-.052-.468-.182-.624-.39-1.301-.806-2.028-1.43.546-.676.884-1.196,1.326-2.054ZM235.76,6.769c.208-.26.286-.26.52-.13,1.274.754,2.444,1.664,3.589,2.704.104.078.155.156.155.234s-.052.156-.155.312l-1.171,1.638c-.208.26-.26.234-.468.078-1.144-1.118-2.418-2.184-3.666-2.938-.13-.078-.182-.13-.182-.182,0-.078.052-.156.182-.312l1.196-1.404ZM251.569,22.837v-2.002h-6.917c-.052.702-.104,1.352-.182,2.002h7.099ZM244.704,18.677h6.864v-1.196c-1.248-.364-2.418-.806-3.536-1.352-1.015.52-2.133.936-3.328,1.3v1.248ZM245.224,11.111c.754.962,1.717,1.742,2.834,2.392,1.093-.65,1.977-1.456,2.679-2.392h-5.513Z"/><path class="cls-1" d="M272.888,10.669c0,1.768.053,2.054.053,2.236,0,.26-.026.286-.312.286h-1.274l.261.234c.441.442.546.702.546.884,0,.156-.078.234-.234.364-.233.156-.364.338-.649.832-.572.988-1.171,1.872-1.898,2.652,1.3.754,2.808,1.3,4.498,1.638-.312.442-.624,1.066-.806,1.612q-.286.78-1.04.572l-.416-.156c-.026.26-.053.806-.053,1.664v1.612c0,1.534,0,2.392.026,2.886,1.534-.598,2.522-1.196,3.64-2.08.312-.234.599-.546.885-.91.676.338,1.248.728,1.768,1.118.234.156.286.286.286.416,0,.156-.13.234-.312.312-.208.104-.416.26-.677.468-1.118.962-2.34,1.846-3.926,2.574-.312.13-.494.208-.624.208-.208,0-.312-.156-.572-.598l-.468-.65c-.026.078-.104.078-.286.078h-1.82c-.26,0-.285-.026-.285-.286v-.546h-3.406v1.066c0,.286-.026.312-.286.312h-1.82c-.286,0-.312-.026-.312-.312,0-.156.052-.702.052-3.744v-1.482c0-.962-.026-1.534-.026-1.872-.182.078-.39.156-.572.208-.26.104-.441.156-.571.156-.183,0-.286-.13-.416-.468-.208-.624-.521-1.196-.807-1.534,2.106-.546,3.744-1.274,5.019-2.132-.521-.52-.962-1.092-1.404-1.716-.39.416-.832.806-1.273,1.17-.312.26-.469.39-.599.39s-.208-.156-.364-.416c-.312-.572-.676-1.014-.962-1.3,1.794-1.222,2.99-2.756,3.614-3.874.286-.494.468-.884.572-1.326.857.13,1.456.286,1.976.442.261.078.364.13.364.26s-.052.182-.182.286c-.183.13-.286.312-.364.468l-.13.234h2.574c.26,0,.363-.026.494-.078l.208-.078v-1.898h-6.215v2.054c0,.26-.025.286-.26.286h-1.769c-.26,0-.285-.026-.285-.286,0-.182.052-.468.052-2.236v-.572c0-.598-.052-.91-.052-1.092,0-.26.025-.286.285-.286.156,0,.91.052,3.043.052h.779v-.104c0-.884-.025-1.56-.182-2.47.962.026,1.716.104,2.626.182.26.026.416.182.416.286,0,.208-.104.364-.182.52-.13.312-.13.676-.13,1.482v.104h.884c2.158,0,2.886-.052,3.042-.052.286,0,.312.026.312.286,0,.156-.053.494-.053.936v.728ZM268.832,21.433c.884,0,1.456,0,1.846-.026-1.092-.494-2.08-1.04-2.964-1.69-.832.624-1.769,1.196-2.86,1.716h3.979ZM265.79,23.383v2.756h3.406v-2.756h-3.406ZM265.972,14.959c.468.728,1.014,1.378,1.69,1.95.624-.65,1.118-1.352,1.56-2.106h-3.12l-.13.156ZM276.945,9.525c-2.314,0-3.095.052-3.25.052-.261,0-.286-.026-.286-.286v-1.898c0-.26.025-.286.286-.286.155,0,.936.052,3.25.052h4.706c2.34,0,3.12-.052,3.276-.052.233,0,.26.026.26.286v1.898c0,.26-.026.286-.26.286-.156,0-.937-.052-3.276-.052h-1.586c-.261.728-.521,1.352-.807,1.95h1.404c2.08,0,2.809-.052,2.99-.052.26,0,.286.026.286.286,0,.13-.052,1.04-.052,3.016v6.916c0,1.976.052,2.86.052,2.99,0,.286-.026.312-.286.312-.182,0-.91-.052-2.99-.052h-3.328c-2.106,0-2.808.052-2.964.052-.286,0-.312-.026-.312-.312,0-.13.053-1.014.053-2.99v-6.812c0-2.08-.053-2.964-.053-3.12,0-.26.026-.286.312-.286.13,0,.728.052,2.314.052.312-.65.493-1.248.728-1.95h-.468ZM276.529,13.633v1.638h4.914v-1.638h-4.914ZM281.443,18.937v-1.716h-4.914v1.716h4.914ZM281.443,20.887h-4.914v1.846h4.914v-1.846ZM280.636,25.177c.131-.13.312-.208.547-.026,1.352,1.196,2.938,2.132,4.445,2.704-.363.338-.728.858-1.065,1.456-.234.442-.364.598-.546.598-.156,0-.312-.078-.624-.234-1.586-.832-2.86-1.872-3.979-2.99-.208-.208-.13-.26.13-.494l1.092-1.014Z"/><path class="cls-3" d="M3.598,65.666c-1.157,0-1.395.015-1.914.074.089-.845.193-1.365.386-1.898.4-1.083,1.068-2.032,2.032-2.907.52-.46.964-.801,2.447-1.795,1.365-.934,1.78-1.424,1.78-2.18,0-1.009-.786-1.632-2.046-1.632-.86,0-1.513.297-1.884.875-.252.356-.356.682-.46,1.365l-2.121-.252c.208-1.127.475-1.735,1.023-2.373.742-.86,1.914-1.32,3.396-1.32,2.596,0,4.197,1.246,4.197,3.278,0,.979-.326,1.691-1.053,2.373-.416.385-.563.504-2.492,1.824-.653.46-1.394,1.083-1.765,1.483-.445.475-.623.771-.845,1.335h4.153c.935,0,1.676-.044,2.166-.119v1.958c-.697-.06-1.291-.089-2.24-.089H3.598Z"/><path class="cls-3" d="M14.819,65.666c0,1.276-.326,1.75-1.528,2.225l-.534-.786c.905-.252,1.112-.519,1.127-1.439h-1.246v-2.165h2.18v2.165Z"/><path class="cls-3" d="M17.902,58.665c-.459-.475-.727-1.201-.727-1.958,0-1.898,1.602-3.1,4.138-3.1,1.794,0,3.114.578,3.752,1.617.252.415.4.949.4,1.483,0,1.379-.786,2.388-2.136,2.773.667.089,1.113.282,1.602.697.697.563,1.038,1.335,1.038,2.313,0,2.21-1.661,3.426-4.702,3.426-1.72,0-2.907-.371-3.752-1.187-.549-.534-.86-1.335-.86-2.225,0-1.038.4-1.854,1.216-2.432.49-.341.86-.489,1.469-.593-.623-.163-1.009-.385-1.439-.816ZM23.879,62.344c0-1.231-.964-1.973-2.565-1.973s-2.581.757-2.581,1.988c0,1.216.949,1.928,2.551,1.928,1.661,0,2.595-.697,2.595-1.943ZM19.162,56.915c0,1.083.831,1.765,2.18,1.765,1.32,0,2.121-.667,2.121-1.75,0-1.053-.831-1.72-2.15-1.72-1.306,0-2.151.667-2.151,1.706Z"/><path class="cls-3" d="M29.806,62.596c.133.43.237.623.445.86.416.504,1.038.757,1.824.757,1.468,0,2.433-.979,2.433-2.447,0-1.454-.919-2.388-2.329-2.388-.727,0-1.379.237-1.839.682-.208.208-.311.341-.445.667l-1.854-.178c.148-1.053.163-1.127.193-1.542l.341-3.678c.015-.267.044-.771.059-1.513.445.03.786.044,1.572.044h3.648c1.023,0,1.395-.015,2.062-.119v1.869c-.652-.089-1.231-.119-2.046-.119h-3.486l-.237,2.596c-.015.119-.044.326-.089.623.727-.623,1.513-.905,2.536-.905,1.202,0,2.166.356,2.893,1.112.727.712,1.053,1.602,1.053,2.788,0,2.61-1.706,4.227-4.464,4.227-1.468,0-2.566-.415-3.381-1.29-.4-.43-.608-.786-.935-1.616l2.047-.43Z"/><path class="cls-3" d="M39.886,64.702c-.445-.445-.786-.964-.979-1.498-.386-1.053-.579-2.21-.579-3.411,0-1.572.356-3.204.905-4.108.801-1.335,2.136-2.062,3.782-2.062,1.261,0,2.344.415,3.13,1.201.445.445.786.964.979,1.498.386,1.038.579,2.225.579,3.441,0,1.824-.4,3.426-1.098,4.39-.831,1.157-2.062,1.75-3.604,1.75-1.261,0-2.329-.415-3.115-1.201ZM44.618,63.56c.667-.697,1.038-2.076,1.038-3.812,0-1.72-.371-3.07-1.038-3.797-.356-.4-.949-.623-1.617-.623-.712,0-1.231.237-1.661.756-.652.771-.979,1.988-.979,3.604,0,1.557.282,2.848.756,3.53.46.653,1.083.964,1.898.964.653,0,1.231-.222,1.602-.623Z"/><path class="cls-3" d="M51.286,55.388c-.682,0-1.305.03-1.913.089v-1.75c.549.059,1.172.089,1.898.089h9.537c.712,0,1.32-.03,1.898-.089v1.75c-.579-.059-1.216-.089-1.884-.089h-5.562c-.03,1.157-.044,1.483-.134,2.299h4.257c.875,0,1.454-.015,1.898-.074-.044.341-.044.356-.089,1.676-.104,2.61-.4,4.969-.771,5.874-.371.919-1.023,1.246-2.492,1.246-.489,0-.801-.015-2.106-.119-.074-.667-.163-1.097-.4-1.691.86.178,1.75.297,2.329.297.727,0,.994-.119,1.157-.534.296-.727.504-2.536.608-5.117h-4.612c-.312,1.765-.801,3.07-1.646,4.435-.786,1.246-1.572,2.062-2.907,3.011-.341-.564-.712-.994-1.246-1.424,1.083-.697,1.631-1.187,2.284-2.032,1.038-1.35,1.676-2.922,1.973-4.895.148-.979.163-1.127.208-2.951h-2.284Z"/><path class="cls-3" d="M66.644,64.865c0,.935.015,1.379.074,1.721h-1.824c.059-.475.089-1.009.089-1.78v-9.7c0-.623-.015-.994-.059-1.424.475.044.86.059,1.646.059h9.018c.816,0,1.261-.015,1.617-.059-.044.43-.059.816-.059,1.617v9.507c0,.756-.178,1.172-.608,1.394-.282.148-.756.208-1.557.208-.579,0-1.394-.03-1.973-.059-.089-.579-.193-.994-.46-1.602.979.104,1.721.163,2.254.163.579,0,.667-.045.667-.401v-3.619h-8.825v3.975ZM70.16,55.314h-3.515v4.019h3.515v-4.019ZM75.469,59.333v-4.019h-3.708v4.019h3.708Z"/><path class="cls-3" d="M79.897,54.824c.608.134,1.557.193,3.441.193.4-.89.534-1.335.593-1.839l1.943.208q-.089.148-.593,1.335c-.074.163-.104.208-.133.267q.119-.015.934-.059c1.721-.104,3.07-.267,3.886-.504l.104,1.691q-.415.03-1.171.119c-1.083.134-2.966.252-4.464.297-.43.845-.846,1.439-1.365,1.973l.015.03q.104-.074.296-.222c.549-.415,1.335-.667,2.091-.667,1.157,0,1.884.549,2.121,1.572,1.142-.415,1.898-.682,2.269-.801.801-.282.86-.297,1.098-.445l.697,1.706c-.415.059-.86.178-1.646.4-.208.059-.949.312-2.225.756v.163q.015.385.015.593v.593c-.015.252-.015.385-.015.49,0,.326.015.534.045.786l-1.721.045c.06-.267.089-1.023.089-1.721v-.356c-.727.341-1.112.549-1.424.771-.519.385-.771.786-.771,1.216,0,.771.712,1.083,2.506,1.083,1.78,0,3.308-.223,4.36-.623l.148,1.913c-.252,0-.326.015-.682.059-1.068.163-2.492.267-3.797.267-1.572,0-2.551-.178-3.308-.623-.682-.386-1.083-1.098-1.083-1.913,0-.608.178-1.083.652-1.646.667-.831,1.513-1.394,3.189-2.091-.074-.549-.371-.801-.905-.801-.86,0-1.898.519-3.041,1.528-.623.519-.964.89-1.29,1.35l-1.35-1.335c.385-.297.815-.712,1.334-1.32.579-.682,1.483-1.973,1.78-2.536q.06-.119.119-.193c-.059,0-.252.015-.252.015-.237,0-1.542-.03-1.869-.03q-.282-.015-.416-.015c-.044,0-.133,0-.237.015l.03-1.691Z"/><path class="cls-3" d="M95.566,62.447c.193.682.326.92.697,1.216.489.385,1.083.578,1.794.578,1.468,0,2.403-.756,2.403-1.928,0-.682-.297-1.246-.831-1.557-.356-.208-1.053-.356-1.706-.356s-1.083.015-1.587.074v-1.839c.475.059.801.074,1.438.074,1.483,0,2.358-.682,2.358-1.824,0-1.023-.697-1.602-1.958-1.602-.727,0-1.261.163-1.617.46-.296.282-.445.534-.623,1.142l-2.121-.356c.371-1.097.712-1.617,1.409-2.121.756-.549,1.721-.816,2.907-.816,2.477,0,4.079,1.246,4.079,3.174,0,.89-.386,1.706-1.023,2.18-.326.252-.652.371-1.438.578,1.053.163,1.602.416,2.121.994.49.549.712,1.172.712,2.047,0,.801-.341,1.617-.89,2.166-.816.786-2.062,1.201-3.648,1.201-1.735,0-2.922-.445-3.768-1.409-.371-.415-.563-.801-.831-1.661l2.121-.415Z"/><path class="cls-3" d="M106.61,62.596c.133.43.237.623.445.86.416.504,1.038.757,1.824.757,1.468,0,2.433-.979,2.433-2.447,0-1.454-.919-2.388-2.329-2.388-.727,0-1.379.237-1.839.682-.208.208-.311.341-.445.667l-1.854-.178c.148-1.053.163-1.127.193-1.542l.341-3.678c.015-.267.044-.771.059-1.513.445.03.786.044,1.572.044h3.648c1.023,0,1.395-.015,2.062-.119v1.869c-.652-.089-1.231-.119-2.046-.119h-3.486l-.237,2.596c-.015.119-.044.326-.089.623.727-.623,1.513-.905,2.536-.905,1.202,0,2.166.356,2.893,1.112.727.712,1.053,1.602,1.053,2.788,0,2.61-1.706,4.227-4.464,4.227-1.468,0-2.566-.415-3.381-1.29-.4-.43-.608-.786-.935-1.616l2.047-.43Z"/><path class="cls-3" d="M117.669,58.784c0-.326-.015-.549-.044-.86.312.03.638.044,1.038.044h3.233v-1.928h-3.1c-.771,1.201-1.498,2.062-2.447,2.922-.43-.638-.593-.831-1.098-1.32,1.513-1.29,2.284-2.269,2.892-3.723.208-.475.312-.786.356-1.083l1.765.356c-.089.178-.119.223-.223.445-.015.044-.163.356-.43.934h6.941c.697,0,1.068-.015,1.513-.074v1.617c-.46-.059-.845-.074-1.513-.074h-3.026v1.928h2.388c.682,0,1.083-.015,1.527-.074v1.572c-.445-.045-.845-.06-1.483-.06h-2.433v2.403h3.441c.683,0,1.157-.03,1.617-.089v1.691c-.459-.059-.979-.089-1.617-.089h-3.441v1.854c0,.756.015,1.157.089,1.587h-1.81c.059-.43.089-.831.089-1.616v-1.824h-4.983c-.652,0-1.127.03-1.617.089v-1.691c.475.059.949.089,1.617.089h.756v-3.026ZM121.896,61.81v-2.403h-2.67v2.403h2.67Z"/><path class="cls-3" d="M131.44,62.091c1.364,1.038,2.195,1.854,3.337,3.263l-1.379,1.29c-1.083-1.468-1.928-2.358-3.219-3.381l1.261-1.172Z"/><path class="cls-3" d="M146.207,58.487c-.593,0-1.023.015-1.454.074v-.712c-.845.504-1.438.816-2.417,1.216-.356-.786-.46-.979-.86-1.528,2.759-.964,4.983-2.566,6.051-4.346h1.839c.593.875,1.231,1.513,2.284,2.284,1.216.919,2.329,1.483,3.931,2.002-.356.549-.579,1.023-.801,1.632-1.171-.49-1.661-.727-2.595-1.305v.756c-.43-.059-.831-.074-1.454-.074h-1.513v1.439h3.752c.771,0,1.231-.03,1.617-.089v1.646c-.416-.06-.935-.089-1.632-.089h-3.737v3.322h4.034c.756,0,1.261-.03,1.75-.089v1.706c-.549-.074-1.172-.104-1.78-.104h-9.374c-.682,0-1.216.03-1.839.104v-1.706c.534.06,1.083.089,1.839.089h3.723v-3.322h-3.515c-.638,0-1.157.03-1.602.089v-1.646c.4.059.875.089,1.617.089h3.5v-1.439h-1.364ZM145.154,61.528c.504.89.786,1.453,1.187,2.462l-1.483.593c-.312-.934-.697-1.72-1.172-2.462l1.468-.593ZM146.162,57.093l4.598.015q.133,0,.356-.015c-1.172-.831-1.898-1.513-2.67-2.492-.756,1.008-1.364,1.602-2.595,2.492h.312ZM153.252,62.136q-.193.341-.742,1.424c-.044.089-.104.193-.608,1.053l-1.395-.519c.46-.742.816-1.528,1.172-2.551l1.572.593Z"/><path class="cls-3" d="M159.814,55.521c-.964.193-1.275.237-2.165.371-.119-.504-.267-.86-.549-1.424,2.447-.252,4.791-.831,5.71-1.424l.964,1.365c-1.068.371-1.75.578-2.403.756v1.913h1.187c.534,0,.905-.015,1.246-.074v1.617c-.371-.059-.727-.074-1.275-.074h-1.083c.578,1.068,1.275,1.884,2.373,2.773-.297.401-.593.964-.786,1.454-.875-.89-1.201-1.35-1.735-2.373.044.504.074,1.112.074,1.869v2.581c0,.934.015,1.365.089,1.884h-1.765c.074-.549.104-1.038.104-1.884v-2.477c0-.593.03-1.275.074-1.78-.43,1.083-.638,1.498-1.009,2.091-.415.638-.727,1.038-1.29,1.632-.297-.697-.519-1.113-.831-1.557.638-.593,1.112-1.172,1.617-1.987.386-.623.964-1.721,1.157-2.225h-1.068c-.579,0-.949.03-1.364.089v-1.646c.385.074.727.089,1.394.089h1.334v-1.557ZM166.341,54.127c-.074.489-.089.919-.089,1.794v5.606c0,.949.015,1.32.074,1.765h-1.75c.059-.43.074-.741.074-1.735v-5.636c0-.86-.015-1.275-.089-1.794h1.78ZM169.87,53.237c-.074.593-.104,1.172-.104,2.017v9.537c0,.786-.193,1.216-.667,1.468-.356.193-.86.252-2.062.252-.371,0-.593,0-1.098-.03-.119-.667-.237-1.009-.504-1.646.845.089,1.409.134,1.958.134.653,0,.756-.059.756-.445v-9.27c0-.741-.03-1.364-.089-2.017h1.81Z"/><path class="cls-3" d="M175.721,65.666c.089-.578.119-1.157.119-1.928v-8.172h-.712c-.549,0-.979.03-1.527.089v-1.884c.459.074.786.089,1.483.089h1.365c.756,0,.979-.015,1.513-.074-.089.875-.119,1.557-.119,2.447v7.505c0,.786.03,1.32.119,1.928h-2.24Z"/><path class="cls-3" d="M183.087,65.666v-2.165h2.166v2.165h-2.166Z"/><path class="cls-3" d="M189.181,65.666c-1.157,0-1.395.015-1.914.074.089-.845.193-1.365.386-1.898.4-1.083,1.068-2.032,2.032-2.907.519-.46.964-.801,2.447-1.795,1.365-.934,1.78-1.424,1.78-2.18,0-1.009-.786-1.632-2.047-1.632-.86,0-1.513.297-1.883.875-.252.356-.356.682-.46,1.365l-2.121-.252c.208-1.127.475-1.735,1.023-2.373.741-.86,1.913-1.32,3.396-1.32,2.596,0,4.198,1.246,4.198,3.278,0,.979-.327,1.691-1.053,2.373-.416.385-.563.504-2.492,1.824-.653.46-1.394,1.083-1.765,1.483-.445.475-.623.771-.845,1.335h4.153c.934,0,1.676-.044,2.166-.119v1.958c-.697-.06-1.291-.089-2.24-.089h-4.761Z"/><path class="cls-3" d="M200.032,65.666c-1.157,0-1.395.015-1.914.074.089-.845.193-1.365.386-1.898.4-1.083,1.068-2.032,2.032-2.907.52-.46.964-.801,2.447-1.795,1.365-.934,1.78-1.424,1.78-2.18,0-1.009-.786-1.632-2.046-1.632-.86,0-1.513.297-1.884.875-.252.356-.356.682-.46,1.365l-2.121-.252c.208-1.127.475-1.735,1.023-2.373.742-.86,1.914-1.32,3.396-1.32,2.596,0,4.197,1.246,4.197,3.278,0,.979-.326,1.691-1.053,2.373-.416.385-.563.504-2.492,1.824-.653.46-1.394,1.083-1.765,1.483-.445.475-.623.771-.845,1.335h4.153c.935,0,1.676-.044,2.166-.119v1.958c-.697-.06-1.291-.089-2.24-.089h-4.761Z"/><path class="cls-3" d="M211.091,62.596c.133.43.237.623.445.86.416.504,1.038.757,1.824.757,1.468,0,2.433-.979,2.433-2.447,0-1.454-.919-2.388-2.329-2.388-.727,0-1.379.237-1.839.682-.208.208-.311.341-.445.667l-1.854-.178c.148-1.053.163-1.127.193-1.542l.341-3.678c.015-.267.044-.771.059-1.513.445.03.786.044,1.572.044h3.648c1.023,0,1.395-.015,2.062-.119v1.869c-.652-.089-1.231-.119-2.046-.119h-3.486l-.237,2.596c-.015.119-.044.326-.089.623.727-.623,1.513-.905,2.536-.905,1.202,0,2.166.356,2.893,1.112.727.712,1.053,1.602,1.053,2.788,0,2.61-1.706,4.227-4.464,4.227-1.468,0-2.566-.415-3.381-1.29-.4-.43-.608-.786-.935-1.616l2.047-.43Z"/><path class="cls-3" d="M220.458,59.511c-.563-.549-.86-1.454-.86-2.566,0-2.076,1.068-3.307,2.877-3.307.816,0,1.513.267,2.002.756.563.549.86,1.439.86,2.551,0,1.127-.297,2.017-.86,2.566-.504.504-1.187.756-2.002.756-.831,0-1.513-.252-2.017-.756ZM230.247,53.504l.771.593-9.344,11.954-.756-.608,9.329-11.939ZM221.126,56.915c0,1.365.475,2.106,1.35,2.106.86,0,1.35-.741,1.35-2.076,0-.534-.104-1.068-.267-1.379-.252-.46-.593-.667-1.083-.667-.86,0-1.35.727-1.35,2.017ZM227.444,65.147c-.563-.549-.86-1.439-.86-2.566,0-1.112.297-1.988.86-2.551.504-.49,1.201-.756,2.017-.756s1.513.267,2.002.756c.563.549.86,1.439.86,2.551,0,1.127-.296,2.017-.86,2.566-.504.504-1.187.756-2.002.756-.831,0-1.513-.252-2.017-.756ZM228.512,61.009c-.267.371-.4.875-.4,1.542,0,1.364.475,2.106,1.35,2.106.89,0,1.35-.742,1.35-2.18,0-.593-.148-1.127-.4-1.483-.252-.326-.519-.46-.949-.46s-.712.133-.949.475Z"/><path class="cls-3" d="M234.957,62.091c1.365,1.038,2.195,1.854,3.337,3.263l-1.379,1.29c-1.083-1.468-1.928-2.358-3.218-3.381l1.261-1.172Z"/><path class="cls-3" d="M249.309,58.977c-.03.104-.044.193-.06.222,0,.015-.029.104-.059.252-.475,2.165-1.409,4.301-2.492,5.755-.697-.504-1.009-.682-1.721-.949,1.142-1.231,2.299-3.886,2.507-5.725l1.824.445ZM256.013,55.818c-.4-.979-.741-1.587-1.29-2.344l1.098-.385c.578.771.919,1.365,1.32,2.344l-1.023.385c1.038,0,1.35-.015,1.854-.104v1.824c-.489-.059-.712-.074-1.884-.074h-3.426v7.193c0,.816.015,1.261.074,1.661h-2.018c.06-.4.089-.845.089-1.676v-7.178h-3.292c-1.157,0-1.379.015-1.869.074v-1.824c.519.089.801.104,1.898.104h3.263v-.831c0-.86-.03-1.187-.089-1.542h2.002c-.044.4-.059.638-.059,1.587v.786h3.352ZM255.894,58.532c.46,1.928,1.646,4.509,2.625,5.651-.756.386-1.038.563-1.706,1.038-1.068-1.676-1.735-3.189-2.433-5.547-.119-.4-.133-.475-.237-.697l1.75-.445ZM258,55.225c-.356-.875-.786-1.632-1.276-2.299l1.053-.386c.608.786.949,1.379,1.305,2.254l-1.083.43Z"/><path class="cls-3" d="M260.336,58.769c.652.089.934.104,2.402.104h7.905c1.468,0,1.75-.015,2.403-.104v2.062c-.593-.074-.756-.074-2.417-.074h-7.875c-1.661,0-1.824,0-2.417.074v-2.062Z"/><path class="cls-3" d="M285.676,57.049c1.038,0,1.35-.015,1.928-.104v1.869c-.534-.059-.92-.074-1.898-.074h-3.041c-.134,2.062-.386,3.04-1.068,4.182-.816,1.35-1.854,2.269-3.782,3.322-.504-.845-.727-1.112-1.35-1.602,1.78-.771,2.907-1.691,3.574-2.922.445-.801.608-1.469.727-2.981h-3.678c-.979,0-1.365.015-1.898.074v-1.869c.578.089.905.104,1.928.104h3.738c.015-.623.015-.89.015-1.157v-.875c0-.638-.015-1.023-.074-1.424h2.046c-.059.475-.059.49-.074,1.424l-.015.89q-.015.979-.015,1.142h2.937Z"/><path class="cls-3" d="M300.441,65.977c-1.231-1.513-2.937-3.174-4.553-4.405-1.676,1.869-3.382,3.174-5.651,4.286-.416-.771-.593-1.009-1.201-1.646,1.142-.445,1.854-.845,2.966-1.632,2.24-1.572,4.02-3.723,4.983-6.036l.164-.386q-.237.015-4.91.089c-.712.015-1.112.044-1.616.119l-.06-1.898c.416.074.697.089,1.305.089h.356l5.221-.074c.831-.015.949-.03,1.32-.163l.979,1.009c-.193.223-.312.43-.475.801-.682,1.587-1.409,2.877-2.313,4.094.934.623,1.735,1.246,2.744,2.15q.371.326,2.166,2.062l-1.424,1.542Z"/><path class="cls-3" d="M303.831,55.314c0-.667-.015-1.053-.06-1.498.327.03.608.044,1.306.044h1.794c.667,0,.934-.015,1.291-.044-.045.341-.045.608-.045,1.468v8.484c0,.786.015,1.112.045,1.483h-1.513v-.742h-1.35v1.246h-1.557c.059-.46.089-.979.089-1.765v-8.676ZM305.314,58.369h1.334v-3.1h-1.334v3.1ZM305.314,63.07h1.334v-3.337h-1.334v3.337ZM310.416,56.055q-1.231.03-1.587.074v-1.572c.416.059.89.089,1.542.089h1.305v-.4c0-.416-.029-.742-.089-1.113h1.706c-.044.341-.074.653-.074,1.113v.4h1.617c.638,0,1.127-.03,1.542-.089v1.572c-.415-.059-.86-.074-1.527-.074h-1.632v1.409h2.047c.712,0,1.246-.03,1.617-.089v1.572c-.4-.059-.801-.074-1.454-.074h-.252v1.26h.193c.712,0,1.112-.015,1.468-.074v1.616c-.43-.074-.801-.089-1.468-.089h-.193v3.352c0,.86-.148,1.216-.593,1.424-.371.163-.89.237-1.631.237q-.134,0-1.157-.015c-.029-.638-.133-1.083-.356-1.557.371.059,1.142.119,1.661.119.46,0,.549-.074.549-.401v-3.159h-3.544c-.549,0-1.113.03-1.587.089v-1.616c.386.059.846.074,1.617.074h3.515v-1.26h-3.515c-.623,0-1.171.03-1.631.074v-1.572c.371.059.935.089,1.646.089h1.527v-1.409h-1.261ZM310.994,65.028c-.593-.994-1.157-1.706-1.898-2.432l1.261-.831c.727.653,1.32,1.335,1.943,2.269l-1.305.994Z"/><path class="cls-3" d="M319.915,64.702c-.445-.445-.786-.964-.979-1.498-.386-1.053-.579-2.21-.579-3.411,0-1.572.356-3.204.905-4.108.801-1.335,2.136-2.062,3.782-2.062,1.261,0,2.344.415,3.13,1.201.445.445.786.964.979,1.498.386,1.038.579,2.225.579,3.441,0,1.824-.4,3.426-1.098,4.39-.831,1.157-2.062,1.75-3.604,1.75-1.261,0-2.329-.415-3.115-1.201ZM324.647,63.56c.667-.697,1.038-2.076,1.038-3.812,0-1.72-.371-3.07-1.038-3.797-.356-.4-.949-.623-1.617-.623-.712,0-1.231.237-1.661.756-.652.771-.979,1.988-.979,3.604,0,1.557.282,2.848.756,3.53.46.653,1.083.964,1.898.964.653,0,1.231-.222,1.602-.623Z"/><path class="cls-3" d="M331.553,64.865c0,.935.015,1.379.074,1.721h-1.824c.059-.475.089-1.009.089-1.78v-9.7c0-.623-.015-.994-.059-1.424.475.044.86.059,1.646.059h9.018c.816,0,1.261-.015,1.617-.059-.044.43-.059.816-.059,1.617v9.507c0,.756-.178,1.172-.608,1.394-.282.148-.756.208-1.557.208-.579,0-1.394-.03-1.973-.059-.089-.579-.193-.994-.46-1.602.979.104,1.721.163,2.254.163.579,0,.667-.045.667-.401v-3.619h-8.825v3.975ZM335.068,55.314h-3.515v4.019h3.515v-4.019ZM340.378,59.333v-4.019h-3.708v4.019h3.708Z"/><path class="cls-3" d="M7.632,85.123c-.846,1.913-1.795,2.788-3.011,2.788-1.691,0-2.907-1.72-2.907-4.108,0-1.631.579-3.159,1.631-4.316,1.246-1.365,2.996-2.076,5.102-2.076,3.56,0,5.874,2.166,5.874,5.503,0,2.566-1.335,4.613-3.604,5.532-.712.297-1.291.445-2.329.623-.252-.786-.43-1.113-.905-1.735,1.364-.178,2.254-.415,2.952-.816,1.29-.712,2.062-2.121,2.062-3.708,0-1.424-.638-2.581-1.824-3.292-.46-.267-.846-.386-1.498-.445-.282,2.329-.801,4.375-1.542,6.051ZM5.452,79.814c-1.246.89-2.017,2.417-2.017,4.004,0,1.216.519,2.18,1.171,2.18.49,0,.994-.623,1.528-1.898.563-1.335,1.053-3.337,1.231-5.013-.771.089-1.305.297-1.913.727Z"/><path class="cls-3" d="M17.517,83.744c0-.386.015-.682.044-1.691-.489.771-.682,1.038-1.157,1.587-.237-.86-.326-1.097-.667-1.794,1.068-1.142,1.839-2.388,2.447-3.916.312-.816.489-1.424.563-1.928l1.706.43c-.311.994-.727,2.017-1.32,3.248v8.335c0,.652.03,1.157.104,1.72h-1.825c.089-.593.104-.979.104-1.735v-4.257ZM25.111,79.028c-.786-.667-1.735-1.261-2.937-1.869l1.142-1.097c1.187.564,2.121,1.112,3.114,1.839l-1.112,1.127h2.24c.742,0,1.275-.03,1.765-.089v1.661c-.52-.044-1.083-.074-1.721-.074h-2.225v2.595h1.839c.653,0,1.172-.03,1.646-.089v1.631c-.475-.044-1.009-.074-1.631-.074h-1.854v3.115h2.566c.667,0,1.275-.03,1.765-.089v1.661c-.534-.044-1.038-.074-1.78-.074h-6.555c-.727,0-1.216.03-1.765.074v-1.661c.475.059,1.068.089,1.706.089h2.403v-3.115h-1.572c-.623,0-1.142.03-1.631.074v-1.631c.459.059.979.089,1.631.089h1.572v-2.595h-1.943c-.623,0-1.172.03-1.691.074v-1.661c.46.074.89.089,1.676.089h3.352Z"/><path class="cls-3" d="M36.272,82.157q-1.81.297-3.619.534c-.252-.697-.386-1.009-.683-1.498,1.914-.104,4.197-.43,6.066-.845,1.527-.341,2.492-.667,3.188-1.083l1.379,1.335c-.445.104-.593.134-1.142.312-1.72.519-2.551.742-3.544.949v1.557l5.072-.549c.623-.074,1.201-.163,1.602-.282l.164,1.691c-.119-.015-.193-.015-.267-.015-.267,0-.964.044-1.365.089l-5.206.564v2.462c0,.371.074.46.415.549.252.044.979.089,1.81.089,1.438,0,2.15-.089,2.432-.282.252-.193.327-.563.386-1.987.697.371.846.415,1.631.593-.089,1.142-.148,1.468-.341,1.913-.252.623-.608.919-1.32,1.097-.519.134-1.29.178-3.011.178-3.129,0-3.648-.237-3.648-1.676v-2.759l-3.218.356c-.712.074-1.112.148-1.617.267l-.163-1.676h.296c.297,0,.935-.044,1.335-.074l3.367-.371v-1.439ZM37.028,76.981c0-.326-.03-.549-.089-.86h1.824c-.06.312-.074.534-.074.86v.475h4.094c.756,0,1.142-.015,1.646-.06-.044.297-.059.579-.059,1.098v1.127c0,.445.015.801.059,1.142h-1.617v-1.795h-9.596v1.795h-1.632c.06-.371.074-.653.074-1.157v-1.112c0-.475-.015-.756-.059-1.098.475.045.89.06,1.631.06h3.797v-.475Z"/><path class="cls-3" d="M49.198,87.719v1.038h-1.914c.045-.356.06-.712.06-1.276v-8.498c0-.564-.015-.845-.06-1.246.356.03.667.044,1.261.044h8.424c.638,0,.905-.015,1.246-.044-.03.385-.044.682-.044,1.231v8.484c0,.549.015.949.059,1.29h-1.913v-1.023h-7.119ZM56.317,79.458h-7.119v6.57h7.119v-6.57Z"/><path class="cls-3" d="M61.144,81.861c.652.089.934.104,2.402.104h7.905c1.468,0,1.75-.015,2.403-.104v2.062c-.593-.074-.756-.074-2.417-.074h-7.875c-1.661,0-1.824,0-2.417.074v-2.062Z"/><path class="cls-3" d="M76.28,86.799c1.275-.074,3.041-.504,4.39-1.098,1.854-.801,3.233-1.943,4.405-3.634.653-.949,1.068-1.765,1.513-2.966.578.697.815.919,1.572,1.453-1.261,2.714-2.669,4.464-4.701,5.814-1.513,1.009-3.352,1.735-5.651,2.225-.593.119-.638.134-.979.252l-.549-2.047ZM77.541,77.589c1.765,1.098,2.685,1.78,3.827,2.863l-1.276,1.617c-1.187-1.261-2.402-2.24-3.782-3.011l1.231-1.468Z"/><path class="cls-3" d="M89.607,78.227c.326.015.489.015.563.015q.267,0,2.447-.148c1.083-.059,3.619-.193,7.579-.386,1.216-.059,1.29-.059,1.527-.119l.104,1.884q-.163-.015-.312-.015c-.89,0-1.987.297-2.937.801-1.884.979-2.996,2.462-2.996,3.96,0,1.157.727,2.047,1.973,2.417.727.222,1.676.385,2.21.385.015,0,.148,0,.296-.015l-.267,2.017c-.193-.044-.222-.044-.504-.089-1.632-.208-2.566-.475-3.471-.979-1.365-.771-2.121-2.032-2.121-3.574,0-1.261.504-2.507,1.409-3.485.563-.608,1.098-1.009,2.062-1.498-1.201.178-2.121.267-4.998.475-1.32.104-2.002.193-2.462.297l-.104-1.943ZM99.826,81.074c.653.697,1.053,1.261,1.558,2.18l-1.039.549c-.489-.905-.905-1.498-1.557-2.21l1.038-.519ZM102.125,82.869c-.445-.816-.934-1.513-1.513-2.151l.994-.519c.667.682,1.083,1.246,1.542,2.091l-1.023.578Z"/><path class="cls-3" d="M106.493,86.755c-.416,1.394-.727,2.047-1.409,3.026-.519-.445-.771-.638-1.216-.875.697-.905,1.009-1.557,1.365-2.773l1.261.623ZM105.499,86.073c-.519,0-.771.015-1.053.045.03-.43.044-1.038.044-1.572v-6.437c0-.638-.015-.994-.059-1.483.341.03.682.044,1.231.044h1.75c.549,0,.875-.015,1.171-.044-.029.326-.044.593-.044,1.335v6.763c0,.875,0,1.068.044,1.394-.326-.03-.534-.045-1.023-.045h-2.062ZM105.826,79.384h1.394v-1.335h-1.394v1.335ZM105.826,81.965h1.394v-1.305h-1.394v1.305ZM105.826,84.708h1.394v-1.453h-1.394v1.453ZM107.827,86.162c.341,1.009.667,1.661,1.246,2.477-.356.163-.608.341-1.172.816-.549-.949-.831-1.557-1.231-2.699l1.157-.593ZM110.097,81.95c-.534,0-.846.015-1.216.074v-1.32c.356.059.667.074,1.216.074h.712v-.697h-.416c-.43,0-.771.015-1.038.059v-1.187q.326.045,1.038.059h.416v-.653h-.667c-.475,0-.756.015-1.098.059v-1.261c.341.06.608.074,1.142.074h.623c0-.578-.015-.756-.089-1.038h1.617c-.074.267-.089.475-.089,1.038h1.706c0-.653-.015-.756-.089-1.038h1.617c-.06.297-.089.563-.089,1.038h.89c.519,0,.786-.015,1.083-.074v1.261c-.355-.044-.608-.059-1.067-.059h-.905v.653h.638c.43,0,.742-.015,1.008-.059v1.187c-.267-.044-.623-.059-1.038-.059h-.608v.697h.964c.608,0,.89-.015,1.187-.074v1.32c-.326-.059-.623-.074-1.201-.074h-2.581v.653h1.706c.594,0,.964-.015,1.379-.059-.029.208-.059.771-.059,1.246v2.373c.386-.015.549-.03.786-.074v1.32c-.267-.045-.386-.045-.786-.059v1.009c0,1.112-.326,1.379-1.661,1.379-.43,0-.771,0-1.335-.03-.074-.741-.089-.89-.252-1.32.504.074.919.104,1.231.104.489,0,.608-.06.608-.341v-.801h-4.42v.653c0,1.038.015,1.305.06,1.824h-1.557c.059-.549.074-.89.074-1.824v-.653c-.341,0-.548.015-.845.074v-1.335c.282.044.475.059.845.074v-2.24c0-.608-.015-.934-.044-1.364.371.03.727.044,1.395.044h1.498v-.653h-2.284ZM112.381,83.729h-1.424v.697h1.424v-.697ZM112.381,85.45h-1.424v.712h1.424v-.712ZM112.247,79.013h1.706v-.653h-1.706v.653ZM112.247,80.778h1.706v-.697h-1.706v.697ZM115.377,84.426v-.697h-1.602v.697h1.602ZM115.377,86.162v-.712h-1.602v.712h1.602Z"/><path class="cls-3" d="M123.097,78.42c-.4,0-.845.03-1.424.074v-1.78c.43.059.742.074,1.394.074h2.358c.608,0,1.008-.015,1.35-.074-.044.43-.044.563-.044.934,0,2.106.534,4.064,1.587,5.873.623,1.038,1.35,1.928,2.373,2.848.756.697,1.187,1.009,2.195,1.602-.564.549-.846.934-1.261,1.676-1.483-1.038-2.596-2.121-3.604-3.485-.549-.727-.875-1.291-1.305-2.195-.386-.816-.52-1.187-.757-2.106-.534,1.898-1.127,3.159-2.121,4.479-.949,1.231-2.062,2.269-3.678,3.352-.312-.653-.653-1.097-1.216-1.557,1.261-.727,1.987-1.291,2.981-2.329,1.157-1.201,2.062-2.788,2.537-4.39.296-1.023.43-1.795.489-2.996h-1.854Z"/><path class="cls-3" d="M137.729,76.758c-.089.43-.119.86-.178,2.002-.059,1.379-.148,4.39-.148,5.443,0,1.409.089,1.943.385,2.388.341.489,1.053.771,1.988.771,1.602,0,2.892-.905,3.589-2.536.326-.771.519-1.468.682-2.492.801.653,1.068.816,1.794,1.142-.593,2.002-1.038,2.966-1.765,3.782-1.113,1.261-2.581,1.884-4.45,1.884-1.023,0-1.973-.237-2.596-.652-1.023-.682-1.453-1.824-1.453-3.812,0-.771.029-2.254.119-5.977.015-.445.015-.756.015-.964,0-.415-.015-.623-.06-1.009l2.077.03Z"/><path class="cls-3" d="M147.941,78.731c.534.089,1.127.134,1.987.134.178,0,.341,0,.682-.015.133-.712.282-1.854.282-2.269,0-.059,0-.148-.015-.267l1.958.178q-.104.341-.282,1.424c-.074.415-.089.504-.148.845,1.098-.104,1.795-.223,2.537-.445l.074,1.706q-.118.015-.475.074c-.756.148-1.943.297-2.432.312-.163.919-.534,2.492-.919,3.841-.43,1.542-.683,2.284-1.661,4.909l-1.869-.727c1.023-1.884,2.166-5.339,2.655-7.979-.104.015-.163.015-.193.015h-.86c-.074,0-.223,0-.475-.015-.267-.015-.475-.015-.593-.015-.074,0-.148,0-.282.015l.03-1.72ZM155.298,84.486c-.593.741-.771,1.112-.771,1.632,0,.756.742,1.142,2.225,1.142,1.083,0,2.507-.237,3.367-.549l.133,1.824c-.267.03-.386.044-.727.104-1.231.178-1.883.237-2.758.237-1.32,0-2.27-.193-2.981-.593-.638-.371-1.053-1.083-1.053-1.824,0-.786.282-1.454,1.097-2.566l1.469.593ZM159.702,82.543c-.712-.074-1.127-.104-1.869-.104-1.468,0-2.447.104-3.916.43l-.134-1.631c2.106-.401,2.818-.475,4.42-.475.4,0,.534,0,1.468.015l.03,1.765Z"/><path class="cls-3" d="M167.868,85.227c-.623.549-.949.771-1.824,1.261-.178-.326-.252-.43-.564-.786-.845.519-1.572.905-2.951,1.557-.015.015-.089.059-.193.119-.03.015-.089.03-.148.074l-.371-1.735c.4-.089.935-.282,1.676-.593v-3.93h-.43c-.43,0-.771.015-1.157.074v-1.587c.341.059.682.074,1.172.074h.415v-1.839c0-.757-.029-1.201-.089-1.646h1.721c-.074.475-.089.875-.089,1.661v1.824h.267c.489,0,.786-.015,1.053-.059v1.557c-.356-.045-.638-.06-1.039-.06h-.282v3.189c.4-.208.519-.282.994-.549v1.023c.816-.49,1.335-.935,1.765-1.498h-.326c-.623,0-1.023.03-1.379.074v-1.483c.341.059.727.074,1.394.074h6.481c.712,0,1.172-.03,1.542-.089v1.483c-.415-.044-.89-.059-1.528-.059h-4.538c-.134.237-.208.341-.401.608h4.717c.727,0,1.008-.015,1.438-.045-.03.237-.044.43-.059.875-.074,1.869-.297,3.367-.608,4.034-.296.682-.771.875-2.076.875-.4,0-.667-.015-1.246-.044-.059-.549-.178-.934-.4-1.365-.801.697-1.424,1.112-2.447,1.631-.326-.489-.563-.741-1.068-1.127,1.305-.563,1.928-.934,2.699-1.602.608-.519,1.083-1.127,1.543-1.973h-.89c-.905,1.379-2.18,2.388-4.108,3.248-.252-.46-.475-.712-.949-1.127,1.691-.623,2.67-1.231,3.441-2.121h-1.157ZM168.312,81.401c-.578,0-1.068.015-1.364.059.044-.415.059-.845.059-1.439v-2.165c0-.638-.015-.89-.059-1.35.459.059.801.074,1.498.074h4.316c.741,0,1.157-.015,1.587-.074-.044.415-.06.712-.06,1.468v2.047c0,.653.015,1.083.06,1.424-.312-.03-.756-.044-1.35-.044h-4.687ZM168.535,78.509h4.197v-.623h-4.197v.623ZM168.535,80.199h4.197v-.608h-4.197v.608ZM173.058,85.227c-.578,1.261-1.157,2.062-2.076,2.907.608.089,1.097.119,1.527.119.549,0,.712-.148.846-.786.104-.519.178-1.172.252-2.24h-.549Z"/><path class="cls-3" d="M179.992,81.03c-.964.593-1.35.801-2.373,1.246-.252-.623-.43-.934-.86-1.513,1.379-.534,2.64-1.246,3.782-2.136,1.023-.816,1.721-1.557,2.329-2.477h1.765c.638.949,1.305,1.616,2.491,2.506,1.157.875,2.27,1.468,3.782,2.032-.386.623-.534.905-.815,1.632-1.053-.475-1.513-.712-2.418-1.305v1.038c-.371-.044-.741-.059-1.334-.059h-5.073c-.475,0-.89.015-1.275.059v-1.023ZM178.791,89.706c.059-.475.089-.92.089-1.572v-3.456c0-.608-.03-1.038-.074-1.469.326.045.682.06,1.275.06h7.416c.593,0,.949-.015,1.29-.06-.059.416-.074.831-.074,1.469v3.47c0,.682.015,1.098.089,1.557h-1.765v-.756h-6.481v.756h-1.765ZM180.556,87.497h6.481v-2.788h-6.481v2.788ZM186.325,80.452h.504c-1.305-.934-2.121-1.706-3.055-2.892-.89,1.275-1.542,1.913-2.907,2.892h5.458Z"/><path class="cls-3" d="M193.288,85.183c1.365,1.038,2.195,1.854,3.337,3.263l-1.379,1.29c-1.083-1.468-1.928-2.358-3.218-3.381l1.261-1.172Z"/><path class="cls-3" d="M212.564,78.598c-.475.46-.905,1.068-1.542,2.136-1.572,2.625-2.358,4.895-2.759,8.024h-2.343c.489-2.477.934-3.901,1.794-5.74.682-1.469,1.291-2.477,2.596-4.316h-4.583c-.875,0-1.335.03-1.943.104v-1.958c.682.074,1.157.104,2.032.104h4.716c1.113,0,1.498-.015,2.032-.074v1.72Z"/><path class="cls-3" d="M221.383,79.843c-.385-1.083-.934-1.498-1.987-1.498s-1.824.519-2.329,1.542c-.371.771-.534,1.483-.608,2.625.801-1.083,1.676-1.483,3.174-1.483,1.513,0,2.789.653,3.441,1.765.356.578.534,1.35.534,2.225,0,2.343-1.78,4.004-4.301,4.004-1.187,0-2.284-.356-3.011-.979-1.098-.949-1.721-2.729-1.721-4.969,0-1.824.46-3.574,1.216-4.583.875-1.187,2.062-1.765,3.619-1.765,1.276,0,2.329.385,3.041,1.127.386.4.608.741.935,1.513l-2.002.475ZM216.755,85.02c0,1.35,1.053,2.343,2.507,2.343.86,0,1.617-.385,2.032-1.038.223-.341.341-.831.341-1.35,0-1.468-.875-2.329-2.343-2.329-1.454,0-2.537,1.009-2.537,2.373Z"/><path class="cls-3" d="M227.71,88.757c0,1.276-.326,1.75-1.528,2.225l-.534-.786c.905-.252,1.112-.519,1.127-1.439h-1.246v-2.165h2.18v2.165Z"/><path class="cls-3" d="M230.793,81.757c-.459-.475-.727-1.201-.727-1.958,0-1.898,1.602-3.1,4.138-3.1,1.794,0,3.114.578,3.752,1.617.252.415.4.949.4,1.483,0,1.379-.786,2.388-2.136,2.773.667.089,1.113.282,1.602.697.697.563,1.038,1.335,1.038,2.313,0,2.21-1.661,3.426-4.702,3.426-1.72,0-2.907-.371-3.752-1.187-.549-.534-.86-1.335-.86-2.225,0-1.038.4-1.854,1.216-2.432.49-.341.86-.489,1.469-.593-.623-.163-1.009-.385-1.439-.816ZM236.77,85.435c0-1.231-.964-1.973-2.565-1.973s-2.581.757-2.581,1.988c0,1.216.949,1.928,2.551,1.928,1.661,0,2.595-.697,2.595-1.943ZM232.054,80.007c0,1.083.831,1.765,2.18,1.765,1.32,0,2.121-.667,2.121-1.75,0-1.053-.831-1.72-2.15-1.72-1.306,0-2.151.667-2.151,1.706Z"/><path class="cls-3" d="M242.698,85.687c.133.43.237.623.445.86.416.504,1.038.757,1.824.757,1.468,0,2.433-.979,2.433-2.447,0-1.454-.92-2.388-2.329-2.388-.727,0-1.379.237-1.839.682-.208.208-.312.341-.445.667l-1.854-.178c.148-1.053.163-1.127.193-1.542l.341-3.678c.015-.267.044-.771.059-1.513.445.03.786.044,1.572.044h3.648c1.023,0,1.394-.015,2.062-.119v1.869c-.652-.089-1.231-.119-2.046-.119h-3.485l-.237,2.596c-.015.119-.045.326-.089.623.727-.623,1.513-.905,2.536-.905,1.202,0,2.166.356,2.892,1.112.727.712,1.053,1.602,1.053,2.788,0,2.61-1.706,4.227-4.464,4.227-1.468,0-2.566-.415-3.381-1.29-.4-.43-.608-.786-.935-1.616l2.047-.43Z"/><path class="cls-3" d="M252.777,87.793c-.445-.445-.786-.964-.979-1.498-.386-1.053-.579-2.21-.579-3.411,0-1.572.356-3.204.905-4.108.801-1.335,2.136-2.062,3.782-2.062,1.26,0,2.343.415,3.129,1.201.445.445.786.964.979,1.498.386,1.038.579,2.225.579,3.441,0,1.824-.4,3.426-1.098,4.39-.831,1.157-2.062,1.75-3.604,1.75-1.261,0-2.329-.415-3.115-1.201ZM257.509,86.651c.667-.697,1.038-2.076,1.038-3.812,0-1.72-.371-3.07-1.038-3.797-.356-.4-.949-.623-1.617-.623-.712,0-1.231.237-1.661.756-.652.771-.979,1.988-.979,3.604,0,1.557.282,2.848.757,3.53.459.653,1.083.964,1.898.964.652,0,1.231-.222,1.602-.623Z"/><path class="cls-3" d="M264.415,87.956c0,.935.015,1.379.074,1.721h-1.824c.059-.475.089-1.009.089-1.78v-9.7c0-.623-.015-.994-.059-1.424.475.044.86.059,1.646.059h9.018c.816,0,1.261-.015,1.617-.059-.044.43-.059.816-.059,1.617v9.507c0,.756-.178,1.172-.608,1.394-.282.148-.756.208-1.557.208-.579,0-1.394-.03-1.973-.059-.089-.579-.193-.994-.46-1.602.979.104,1.721.163,2.254.163.579,0,.667-.045.667-.401v-3.619h-8.825v3.975ZM267.93,78.405h-3.515v4.019h3.515v-4.019ZM273.24,82.424v-4.019h-3.708v4.019h3.708Z"/><path class="cls-3" d="M283.911,76.951l-5.354,14.045h-1.824l5.369-14.045h1.81Z"/><path class="cls-3" d="M288.387,85.153c-.133.756-.252,1.246-.43,1.765-.4,1.127-.905,1.987-1.75,2.937-.43-.578-.801-.949-1.379-1.364.831-.831,1.246-1.498,1.587-2.61.445-1.379.593-3.115.593-6.971,0-1.068-.015-1.72-.074-2.24.579.059.979.074,1.735.074h6.185c.815,0,1.216-.015,1.72-.074-.059.4-.074.801-.074,1.676v9.611c0,.742-.163,1.172-.534,1.409-.327.222-.742.297-1.721.297-.475,0-.964-.015-1.72-.059-.089-.712-.178-1.053-.43-1.661.756.119,1.572.178,2.18.178.445,0,.549-.074.549-.401v-2.566h-6.437ZM294.824,83.64v-1.987h-6.14c0,.46-.03.786-.119,1.987h6.259ZM294.824,80.14v-1.854h-6.125v1.854h6.125Z"/></g></svg>