<svg id="レイヤー_1" data-name="レイヤー 1" xmlns="http://www.w3.org/2000/svg" width="384" viewBox="0 0 384 71.732"><defs><style>.cls-1{fill:#04aa89;}</style></defs><path class="cls-1" d="M9.2,16.805H5.331a21.133,21.133,0,0,0-2.294.087V15.013H.568A12.228,12.228,0,0,0,.677,13.09V11.058A16.191,16.191,0,0,0,.59,9.331c.874.066,1.682.088,2.622.088H8.543V8.982a6.777,6.777,0,0,0-.109-1.42h3.693a6.683,6.683,0,0,0-.109,1.4v.459h5.593c.9,0,1.748-.022,2.6-.088a15.134,15.134,0,0,0-.088,1.727v2.054a13.74,13.74,0,0,0,.109,1.9H17.808v1.879a21.535,21.535,0,0,0-2.338-.087H12.433v2.032h3.889a14.85,14.85,0,0,0,2.251-.11v3.147a20.217,20.217,0,0,0-2.251-.088H12.433V24.43c.83.066,1.442.087,2.228.087,1.923,0,3.5-.065,6.119-.283a19.591,19.591,0,0,0-.743,3.387c-2.294.065-3.169.087-4.392.087-3.5,0-5.616-.241-7.058-.831a7.791,7.791,0,0,1-3.3-2.447,16.4,16.4,0,0,1-2.666,3.78A11.69,11.69,0,0,0,0,25.654a12.477,12.477,0,0,0,3.583-5.747,13.859,13.859,0,0,0,.525-2.185l3.321.612c-.131.546-.219.9-.262,1.071-.131.524-.328,1.179-.612,2.032a5.64,5.64,0,0,0,1.114,1.376,5.5,5.5,0,0,0,1.53.962Zm7.713-4.371h-13v1.4c.481.022.787.022,1.42.022H15.47c.633,0,.94,0,1.442-.022Z"/><path class="cls-1" d="M36.25,21.437c-.349,3.387-.9,4.981-2.338,6.9A13.18,13.18,0,0,0,31.946,26.2a12.175,12.175,0,0,0-1.77,1.573A17.824,17.824,0,0,1,27.751,24.1l2.01-1.158H25.609l1.989,1.2a16.291,16.291,0,0,1-3.343,4.2,10.3,10.3,0,0,0-2.317-2.381,11.5,11.5,0,0,0,2.841-3.016h-1.07a13.088,13.088,0,0,0-1.618.066V20a7.683,7.683,0,0,0,1.464.087v-7.56a9.363,9.363,0,0,0-1.31.065V9.572a6.708,6.708,0,0,0,1.31.087V9.331a11.287,11.287,0,0,0-.087-1.616h3.256a11.133,11.133,0,0,0-.088,1.616v.328H28.69V9.331A10.782,10.782,0,0,0,28.6,7.715h3.255a10.918,10.918,0,0,0-.087,1.616v.328a10.972,10.972,0,0,0,1.136-.087v3.015c-.349-.043-.524-.043-1.136-.065v7.56A8.053,8.053,0,0,0,32.645,20V23.01a13.684,13.684,0,0,0-1.661-.066h-.611a10.961,10.961,0,0,0,1.573,2.1c1.2-1.835,1.486-4.282,1.486-13.242A29.006,29.006,0,0,0,33.3,8.2a23.321,23.321,0,0,0,2.731.109h3.321A18.869,18.869,0,0,0,41.975,8.2a25.148,25.148,0,0,0-.087,2.688V25.129a2.734,2.734,0,0,1-1,2.513,5.838,5.838,0,0,1-2.819.459c-.219,0-.546,0-.983-.022a14.243,14.243,0,0,0-.787-3.3,15.157,15.157,0,0,0,1.6.153c.656,0,.787-.066.787-.437V21.437Zm-7.56-8v-.918H26.636v.918Zm0,3.3v-.962H26.636v.962Zm0,3.343v-1H26.636v1Zm7.845-3.714c-.022,1.07-.022,1.376-.066,2.163h2.207V16.368Zm2.141-4.96h-2.12V13.44h2.12Z"/><path class="cls-1" d="M50.082,10.118c-.415,1.136-.589,1.552-1.136,2.775V25.566a25.085,25.085,0,0,0,.11,2.513H45.581a22.558,22.558,0,0,0,.131-2.513V19.12c.022-.415.022-.415.022-1.507l-.59.852a7.072,7.072,0,0,1-.546.677,21.832,21.832,0,0,0-1.114-4.02,14.1,14.1,0,0,0,3.124-5.2A10.876,10.876,0,0,0,47.33,7.19l3.474.765c-.044.131-.284.852-.437,1.333.5.043.9.065,1.638.065h.5V9.069A8.179,8.179,0,0,0,52.377,7.5h3.452a9.368,9.368,0,0,0-.087,1.595v.262h2.207v-.3a7.114,7.114,0,0,0-.11-1.552h3.5a7.937,7.937,0,0,0-.109,1.573v.284h.83a13.762,13.762,0,0,0,2.033-.109v3.1a16.586,16.586,0,0,0-2.01-.088h-.853v1.312h1.027a12.727,12.727,0,0,0,2.185-.11v3.168a14.291,14.291,0,0,0-2.25-.109H51.809a15.154,15.154,0,0,0-2.273.109V13.461a13.344,13.344,0,0,0,2.229.11h.743V12.259h-.5a14.827,14.827,0,0,0-1.923.088Zm.568,9.134a15.791,15.791,0,0,0-.087-1.989,15.635,15.635,0,0,0,2.032.088h8.391a14.68,14.68,0,0,0,2.12-.088,15.77,15.77,0,0,0-.088,2.076v5.9a27.651,27.651,0,0,0,.109,2.84H59.762v-.808h-5.9v.808H50.52a25.192,25.192,0,0,0,.13-2.622Zm3.213,1.726h5.9V20h-5.9Zm0,3.539h5.9V23.491h-5.9Zm4.086-10.946V12.259H55.742v1.312Z"/><path class="cls-1" d="M71.978,15.821c-.219-.021-.459-.021-.853-.021h-.218v4.894c.7-.306.852-.372,1.682-.743l.022,3.256a42.705,42.705,0,0,1-5.659,2.4,6.4,6.4,0,0,0-.918.393l-.546-3.5a9.646,9.646,0,0,0,2.272-.633V15.8h-.2a9.816,9.816,0,0,0-1.574.087V12.675a7.322,7.322,0,0,0,1.552.109h.218V10.293a16.033,16.033,0,0,0-.131-2.6h3.409a16.061,16.061,0,0,0-.131,2.622v2.469h.371a6.176,6.176,0,0,0,1.158-.066v2.01a8,8,0,0,0,.94-.2V12.3a17.573,17.573,0,0,0-.11-2.4h3.475a18.729,18.729,0,0,0-.11,2.272v1.442l1.246-.35V10.031a17.622,17.622,0,0,0-.109-2.382H81.22a22.164,22.164,0,0,0-.131,2.447v2.229l2.95-.83a11.792,11.792,0,0,0,1.857-.656c-.087,1.333-.131,2.491-.219,5.769a21.9,21.9,0,0,1-.349,3.365c-.306,1.158-1.027,1.573-2.688,1.573-.153,0-.349,0-.9-.022a10.166,10.166,0,0,0-.655-2.644v1.683a18.494,18.494,0,0,0,.109,2.272h-3.43a17.622,17.622,0,0,0,.109-2.382V16.477l-1.246.349v7.1c0,.611.241.655,3.147.655,3.168,0,3.234-.066,3.234-2.775a16.42,16.42,0,0,0,3.365.83,14.446,14.446,0,0,1-.415,3.082,2.307,2.307,0,0,1-1.989,1.7,26.239,26.239,0,0,1-4.872.306c-4.742,0-5.725-.437-5.725-2.469V17.788a9.174,9.174,0,0,0-1.246.459Zm9.111,2.666a4.853,4.853,0,0,0,.743.065c.481,0,.568-.087.634-.611a22.637,22.637,0,0,0,.152-2.863l-1.529.459Z"/><path class="cls-1" d="M95.358,20.716a7.678,7.678,0,0,0-.918-1.661c-.2.371-.262.481-.437.874a8.284,8.284,0,0,1-.852-1.4c.022.415.022.524.044,1.048v.547c0,.284.022.5.022.634v4.588a25.4,25.4,0,0,0,.131,2.8H89.939c.066-.765.131-1.748.131-2.8V21.917c0-.174.022-.328.022-.5,0-.59,0-.612.022-1.049a11.645,11.645,0,0,1-1.7,3.343,15.62,15.62,0,0,0-1.333-3.583A14.734,14.734,0,0,0,89.83,14.16h-.721a5.845,5.845,0,0,0-1.4.11V11.014a5.691,5.691,0,0,0,1.4.109h.939V9.812a16.794,16.794,0,0,0-.131-2.294h3.409a16.8,16.8,0,0,0-.109,2.294v1.311a4.828,4.828,0,0,0,.83-.043A8.585,8.585,0,0,0,96.56,7.409l3.146.524-.48.962H104.8a20.621,20.621,0,0,0,2.623-.132v2.994a20.693,20.693,0,0,0-2.623-.109h-2.862c-.131.415-.153.5-.284.874h3.736a22.671,22.671,0,0,0,2.447-.109v2.928a20.708,20.708,0,0,0-2.294-.11h-.611a5.962,5.962,0,0,1-.569.94h1.311a15.859,15.859,0,0,0,1.945-.088v2.469a15.611,15.611,0,0,0-1.879-.087h-1.879v.743h1.617a12.136,12.136,0,0,0,1.617-.066v2.142a12.359,12.359,0,0,0-1.617-.066h-1.617v.765H105.5a11.283,11.283,0,0,0,1.595-.066v2.142a13.147,13.147,0,0,0-1.595-.066h-1.639v.787h1.376a19.259,19.259,0,0,0,2.6-.109v2.84a22.588,22.588,0,0,0-2.621-.131H98.461v.7H95.227a18.422,18.422,0,0,0,.131-2.535V20.716Zm1.333-5.485a10.6,10.6,0,0,0-1.857.11V12.413a10.938,10.938,0,0,0,1.507.109A10.307,10.307,0,0,0,94.4,11.364v2.884a4.47,4.47,0,0,0-.962-.088h-.174a7.418,7.418,0,0,0,2.228,3.125,15.7,15.7,0,0,0,1.574-2.054Zm1.748-2.709c.131-.372.2-.5.306-.874h-1.2a6.006,6.006,0,0,1-.743.874Zm2.491,6.686v-.743H98.461v.743Zm-2.469,2.775h2.469v-.765H98.461Zm0,2.8h2.469v-.787H98.461Zm1.9-9.549c-.24.415-.328.546-.568.94h1.573a5.451,5.451,0,0,0,.546-.94Z"/><path class="cls-1" d="M115.309,25.37a26.443,26.443,0,0,0,.109,2.665h-3.562a22.457,22.457,0,0,0,.131-2.6V19.82c0-1.18,0-1.508.022-2.229a7.732,7.732,0,0,1-1.4,1.726,15.5,15.5,0,0,0-1.42-3.889,15.261,15.261,0,0,0,3.715-5.463,11.515,11.515,0,0,0,.808-2.687l3.474.9a9.451,9.451,0,0,0-.546,1.4c-.218.634-.786,1.967-1.332,3.124Zm11.973-.677a3.064,3.064,0,0,1-.83,2.556c-.546.415-1.333.546-3.583.546-.678,0-1.137-.022-2.054-.087a10.43,10.43,0,0,0-.984-3.452,17.523,17.523,0,0,0,2.579.24c1.267,0,1.507-.088,1.507-.568V14.947h-4.982a28.206,28.206,0,0,0-2.818.131V11.713a23.969,23.969,0,0,0,2.666.131h5.134V10.533a21.458,21.458,0,0,0-.153-2.84h3.649a21.594,21.594,0,0,0-.131,2.84v1.311h.219a11.526,11.526,0,0,0,2.119-.131v3.343a12.878,12.878,0,0,0-2.032-.109h-.306Zm-7.844-8.784a27.8,27.8,0,0,1,3.037,5.243L119.438,22.9a21.58,21.58,0,0,0-2.884-5.66Z"/><path class="cls-1" d="M133.292,10.468a21.186,21.186,0,0,0,2.491.109c1.246,0,2.928-.065,3.911-.153-.459-1.2-.721-1.792-.918-2.185L142.6,7.78a9.847,9.847,0,0,0,.677,2.273A40.912,40.912,0,0,0,149.2,8.829l.306,3.19c-.415.088-.415.088-1.617.328-1.267.262-1.289.284-3.474.634.175.415.415.983.5,1.136a29.755,29.755,0,0,0,5.09-1.158l.328,3.212c-.5.065-.5.065-2.687.524-.022,0-1.027.175-1.311.241a24.742,24.742,0,0,0,2.8,4.02l-3.211,1.66a9.4,9.4,0,0,0-4.589-.961c-2.426,0-3.758.5-3.758,1.42,0,.809,1.136,1.2,3.452,1.2a17.494,17.494,0,0,0,6.948-1.354l.5,3.692a14.51,14.51,0,0,0-1.529.306,28.07,28.07,0,0,1-6.119.677c-3.321,0-5.55-.7-6.62-2.075a4.078,4.078,0,0,1-.809-2.4,4,4,0,0,1,2.6-3.605,11.724,11.724,0,0,1,4.675-.809,14.472,14.472,0,0,1,3.016.263c-.24-.328-.568-.853-1.005-1.552-1.858.24-4.371.394-7.517.481a16.574,16.574,0,0,0-1.9.109l-.153-3.234a18.531,18.531,0,0,0,2.251.088,55.9,55.9,0,0,0,5.965-.306c-.066-.175-.24-.568-.5-1.158a46.345,46.345,0,0,1-5.7.24c-.984.022-1.137.022-1.64.044Z"/><path class="cls-1" d="M154.968,20.038c0-.262,0-.262.022-.852,0-.349,0-.349.022-1.42a13.154,13.154,0,0,1-1.18,1.486,19.406,19.406,0,0,0-1.092-4.021,15.5,15.5,0,0,0,3.1-5.222,12.966,12.966,0,0,0,.765-2.753l3.474.787a30.657,30.657,0,0,1-1.813,4.741V25.523a24.614,24.614,0,0,0,.131,2.512h-3.562a19,19,0,0,0,.131-2.512ZM165.5,11.451a27.391,27.391,0,0,0-3.431-1.923L164.5,7.256A27.894,27.894,0,0,1,169.258,9.9l-1.551,1.551h2.644a24.53,24.53,0,0,0,2.862-.131v3.387a25.849,25.849,0,0,0-2.753-.11h-2.709v3.038h2.185a22.473,22.473,0,0,0,2.6-.11v3.3c-.721-.065-1.529-.109-2.556-.109h-2.229v3.518h3.059c.983,0,1.9-.044,2.8-.132v3.387a25,25,0,0,0-2.819-.131h-9.133a25.971,25.971,0,0,0-2.841.131V24.1c.918.088,1.748.132,2.709.132h2.8V20.716H162.4c-1.048,0-1.813.044-2.534.109v-3.3a21.661,21.661,0,0,0,2.556.11h1.9V14.6h-2.4a25.08,25.08,0,0,0-2.688.11V11.342a20.994,20.994,0,0,0,2.688.109Z"/><path class="cls-1" d="M182.216,17c-2.971.415-2.971.415-4.413.546a11.939,11.939,0,0,0-1.093-2.6h-1.333a11.1,11.1,0,0,0,.11-1.835v-2.36a12.614,12.614,0,0,0-.088-1.726c.7.065,1.42.087,2.622.087h5.31V8.742a7.448,7.448,0,0,0-.11-1.224h3.672a7.285,7.285,0,0,0-.088,1.224v.371h5.616c1.223,0,1.922-.022,2.621-.087a12.008,12.008,0,0,0-.087,1.726v2.382a12.127,12.127,0,0,0,.109,1.813h-2.84A66.4,66.4,0,0,1,185.6,16.52v1.573l7.058-.677a18.3,18.3,0,0,0,2.535-.393l.305,3.387a4.151,4.151,0,0,0-.437-.022c-.48,0-1.4.065-2.141.131l-7.32.7v2.666c0,.524.088.612.678.721.327.044,1.354.088,2.469.088,1.639,0,2.447-.11,2.731-.394.306-.24.415-.939.459-2.775a12.772,12.772,0,0,0,3.3,1.027c-.131,2.644-.437,3.671-1.333,4.392-.917.721-1.966.874-6.227.874-4.523,0-5.463-.481-5.463-2.8v-3.5l-4.37.415a14.647,14.647,0,0,0-2.578.394l-.306-3.387c.284.022.415.022.525.022.524,0,1.376-.044,2.075-.11l4.654-.437Zm9.527-4.873H178.72v2.3A39.3,39.3,0,0,0,189.8,12.259l1.944,2.055Z"/><path class="cls-1" d="M216.981,14.794c-.109.35-.109.35-.262.983a16.855,16.855,0,0,1-.437,1.727,17.441,17.441,0,0,1-1.879,5,11.394,11.394,0,0,0,3.343,2.207,16.661,16.661,0,0,0-1.682,3.365,15.546,15.546,0,0,1-3.518-2.775,16.95,16.95,0,0,1-3.278,3.037,11.2,11.2,0,0,0-1.7-2.316,15.635,15.635,0,0,1-1.159,2.164,10.823,10.823,0,0,0-1.856-1.749,16.277,16.277,0,0,0-1.705,1.246,24.293,24.293,0,0,1-1.66-3.5,14.744,14.744,0,0,1-2.1,4.02,12.843,12.843,0,0,0-2.579-1.988,11.812,11.812,0,0,0,2.186-3.584,8.6,8.6,0,0,0-1.2.044c.065-.939.087-1.661.087-2.381V10.009a18.749,18.749,0,0,0-.087-1.966,19.028,19.028,0,0,0,1.922.087h3.89a14.408,14.408,0,0,0,1.77-.087c-.044.5-.066.917-.066,1.725v11.1c0,1,0,1.354.044,1.813a10.467,10.467,0,0,0-1.333-.044c.263.656.546,1.246.831,1.814a11.872,11.872,0,0,0,1.07-3.387c.24-1.6.24-1.639.394-6.729,0-.328.021-2.557.021-3.606a24.194,24.194,0,0,0-.109-2.666,23.871,23.871,0,0,0,2.644.131h6.009a18.959,18.959,0,0,0,2.709-.152v3.386a24.6,24.6,0,0,0-2.687-.109h-5.354v1.944h4.589a10.917,10.917,0,0,0,1.748-.087Zm-14.137,7.844h-3.387l1.727.983Zm-2.228-10.357h1.464V11.036h-1.464Zm0,3.693h1.464V14.728h-1.464Zm0,3.78h1.464V18.465h-1.464Zm7.363,5.266a15.585,15.585,0,0,0,2.556-2.338,15.507,15.507,0,0,1-1.463-3.212A21.438,21.438,0,0,1,207.979,25.02Zm2.906-8.828a11.809,11.809,0,0,0,1.4,3.628,15.411,15.411,0,0,0,1.027-3.628Z"/><path class="cls-1" d="M228.06,19.623c-.044.284-.065.372-.131.983a7.831,7.831,0,0,1-2.535,5.332,11.348,11.348,0,0,1-4.763,2.272,13.438,13.438,0,0,0-1.945-3.125,9.693,9.693,0,0,0,3.06-.851,4.26,4.26,0,0,0,2.643-2.775,5.647,5.647,0,0,0,.219-1.443,5.34,5.34,0,0,0-.044-.59Zm-9.024,1.617a10.037,10.037,0,0,0,.109-1.639V17.788a13.1,13.1,0,0,0-.087-1.705,23.726,23.726,0,0,0,2.469.088H236.3c1.2,0,1.748-.022,2.534-.088a10.609,10.609,0,0,0-.087,1.6v1.879a9.773,9.773,0,0,0,.109,1.683h-3.43V18.968H222.4V21.24ZM227.165,8.9a6.2,6.2,0,0,0-.11-1.4h3.584a5.854,5.854,0,0,0-.11,1.4V9h5.353a22.034,22.034,0,0,0,2.8-.131V11.91a22.208,22.208,0,0,0-2.709-.11h-5.441v.875h4.7a18.02,18.02,0,0,0,2.163-.088v2.885a18.256,18.256,0,0,0-2.163-.088H222.619a18.557,18.557,0,0,0-2.141.088V12.587a17.84,17.84,0,0,0,2.141.088h4.546V11.8h-5.223a22.61,22.61,0,0,0-2.731.11V8.873A22.437,22.437,0,0,0,222.029,9h5.136Zm5.528,15.273c0,.525.152.59,1.311.59.983,0,1.354-.065,1.486-.306a8.606,8.606,0,0,0,.283-2.513,11.38,11.38,0,0,0,3.169.853c-.153,2.556-.393,3.6-.962,4.216-.524.568-1.551.744-4.588.744-3.321,0-3.955-.328-3.955-2.12V21.415a14.073,14.073,0,0,0-.088-1.879h3.431a11.52,11.52,0,0,0-.087,1.7Z"/><path class="cls-1" d="M246.612,17.263a21.731,21.731,0,0,0-2.753.131V16a20.672,20.672,0,0,1-1.945.9,15.114,15.114,0,0,0-1.7-3.234,16.752,16.752,0,0,0,4.982-2.426,12.724,12.724,0,0,0,3.671-3.561h3.627a13.64,13.64,0,0,0,3.758,3.452,17.364,17.364,0,0,0,5.113,2.382,16.432,16.432,0,0,0-1.595,3.452,17.62,17.62,0,0,1-2.076-.939v1.376a21.721,21.721,0,0,0-2.644-.131h-2.622v1.9h3.059a21.887,21.887,0,0,0,2.775-.131v3.3a22.563,22.563,0,0,0-2.8-.131h-3.037v2.184h4.742a29.793,29.793,0,0,0,3.19-.13V27.6a28.656,28.656,0,0,0-3.125-.131H244.208a26.709,26.709,0,0,0-3.015.131V24.256a27.7,27.7,0,0,0,3.1.13h4.654V22.2h-2.8a21.78,21.78,0,0,0-2.753.131v-3.3a23.471,23.471,0,0,0,2.753.131h2.8v-1.9Zm8.194-2.993a17.16,17.16,0,0,1-4.065-3.649,15.937,15.937,0,0,1-4,3.649Z"/><path class="cls-1" d="M262.979,10.643c0-.853-.044-1.6-.131-2.579a20.5,20.5,0,0,0,2.578.088l14.509.022c.983,0,1.747-.044,2.556-.11a22.324,22.324,0,0,0-.109,2.579V25.02a26.163,26.163,0,0,0,.131,3.015h-3.452V26.877H266.3v1.158h-3.452a24.64,24.64,0,0,0,.131-3.015ZM266.3,23.906h12.739V11.167H266.3Zm2.819-9.156a11.282,11.282,0,0,0-1.923.11V11.888a13.581,13.581,0,0,0,1.923.088h7.145a13.926,13.926,0,0,0,1.944-.088V14.86a11.4,11.4,0,0,0-1.944-.11H274.1V16h1.792a9.063,9.063,0,0,0,1.769-.109v2.95a5.6,5.6,0,0,0-.852-.088A5.964,5.964,0,0,1,277.466,20l-1.115.284a11.773,11.773,0,0,0,2.032-.11v2.994a15.518,15.518,0,0,0-1.988-.088h-7.473a13.525,13.525,0,0,0-1.967.088V20.169a11.4,11.4,0,0,0,1.967.11h1.966V18.727h-1.42a9.36,9.36,0,0,0-1.791.11v-2.95a9.32,9.32,0,0,0,1.791.109h1.42V14.75Zm4.982,5.529h1.333a6.582,6.582,0,0,0-.7-1.355l.787-.2H274.1Z"/><path class="cls-1" d="M306.426,13.422a43.76,43.76,0,0,1,2.323,3.839c-.129-1.484-.194-2.968-.194-4.775V5.13a35.029,35.029,0,0,0-.258-4.9h6.872a35.182,35.182,0,0,0-.258,4.9V22.262a39.58,39.58,0,0,0,.258,4.807H308.1a34.789,34.789,0,0,0-2.42-4.1l-5.969-9A38.247,38.247,0,0,1,297.392,10a46.272,46.272,0,0,1,.226,4.807v7.227a35.418,35.418,0,0,0,.258,5.033H291A33.25,33.25,0,0,0,291.262,22V5.033A35.935,35.935,0,0,0,291,.226h7A21.5,21.5,0,0,0,300.3,4.259Z"/><path class="cls-1" d="M318.07,17.2c0-6.452,4.129-10.549,10.647-10.549s10.647,4.1,10.647,10.485c0,6.42-4.259,10.679-10.679,10.679C322.2,27.811,318.07,23.682,318.07,17.2Zm6.162-.032c0,3.581,1.678,5.743,4.485,5.743s4.42-2.1,4.42-5.678c0-3.614-1.646-5.743-4.388-5.743C325.91,11.486,324.232,13.615,324.232,17.164Z"/><path class="cls-1" d="M348.427,20.552v6.517H341.91V20.552Z"/><path class="cls-1" d="M354.653,0a20.986,20.986,0,0,0,3.872.226h4.1a32.006,32.006,0,0,0,4-.129,50.172,50.172,0,0,0-.226,5.194V22.2a37.256,37.256,0,0,0,.259,4.871h-7.034a36.943,36.943,0,0,0,.258-4.871V5.743h-1.29a34.19,34.19,0,0,0-3.936.226Z"/><path class="cls-1" d="M384,23.928a4.152,4.152,0,1,1-4.152-4.152A4.149,4.149,0,0,1,384,23.928Zm-6.053,0a1.9,1.9,0,1,0,1.9-1.9A1.9,1.9,0,0,0,377.947,23.928Z"/><path class="cls-1" d="M40.459,60.278a2.321,2.321,0,0,0,.612,1.4,3.4,3.4,0,0,0,2.513.94c1.7,0,2.775-.853,2.775-2.185a1.9,1.9,0,0,0-1.18-1.879,6.279,6.279,0,0,0-2.032-.285c-.852,0-1.835.044-2.688.131V54.64a19.08,19.08,0,0,0,2.317.131c2.075,0,3.1-.7,3.1-2.1,0-1.18-.83-1.857-2.272-1.857a2.351,2.351,0,0,0-2.666,2.01l-4.72-.677a6.283,6.283,0,0,1,1.464-2.776c1.333-1.442,3.343-2.184,6.009-2.184a7.955,7.955,0,0,1,5.594,1.856,4.237,4.237,0,0,1,1.223,3.1c0,2.315-1.245,3.757-3.758,4.348a4.913,4.913,0,0,1,2.819,1.158,4.3,4.3,0,0,1,1.442,3.234,4.871,4.871,0,0,1-.874,2.905,5.483,5.483,0,0,1-2.054,1.64,11.8,11.8,0,0,1-4.545.852,9.9,9.9,0,0,1-5.091-1.224A5.916,5.916,0,0,1,36.2,62.244a8.115,8.115,0,0,1-.371-1.158Z"/><path class="cls-1" d="M55.1,64.189a6.864,6.864,0,0,1-1.595-2.426,14.5,14.5,0,0,1-.852-5,12.78,12.78,0,0,1,1.376-6.053,7.111,7.111,0,0,1,6.358-3.452,7.429,7.429,0,0,1,5.31,2.032,6.886,6.886,0,0,1,1.6,2.425,14.54,14.54,0,0,1,.851,5.026,12.87,12.87,0,0,1-1.376,6.074,7.152,7.152,0,0,1-6.381,3.409A7.25,7.25,0,0,1,55.1,64.189Zm2.032-7.6c0,3.911,1.114,5.922,3.278,5.922,2.141,0,3.233-1.967,3.233-5.856,0-3.737-1.136-5.7-3.256-5.7C58.334,50.947,57.132,53.024,57.132,56.585Z"/><path class="cls-1" d="M78.394,54.946v-.437c-.525.547-.721.743-1.333,1.311a9.91,9.91,0,0,0-2.185-2.884,13.342,13.342,0,0,0,4.151-5.069,6.449,6.449,0,0,0,.546-1.573l3.628.611c-.2.394-.219.437-.459,1-.109.241-.175.394-.328.7h9.593a19.2,19.2,0,0,0,2.512-.132V51.8a20.183,20.183,0,0,0-2.512-.131H88.073v2.1h3.059c1.158,0,1.814-.022,2.535-.087v3.168c-.721-.065-1.355-.087-2.425-.087H88.073V59.6h4.589a20.357,20.357,0,0,0,2.578-.131v3.387a21.836,21.836,0,0,0-2.578-.131H88.073V64.56A17.136,17.136,0,0,0,88.2,67.2H84.556a20.484,20.484,0,0,0,.131-2.709v-1.77h-6.8a21.727,21.727,0,0,0-2.6.131V59.469a21.472,21.472,0,0,0,2.6.131h.5Zm2.272-3.277a19.925,19.925,0,0,1-1.617,2.075c.328.022.459.022.809.022h4.829v-2.1ZM84.687,59.6V56.76H81.649V59.6Z"/><path class="cls-1" d="M100.857,64.123a22.577,22.577,0,0,0,.131,2.928H97.47A22.705,22.705,0,0,0,97.6,64.1V49.659a24.755,24.755,0,0,0-.087-2.513,19.6,19.6,0,0,0,2.206.087h4.589a17.91,17.91,0,0,0,2.229-.087c-.044.655-.066,1.158-.066,2.01v3.977a18.793,18.793,0,0,0,.044,1.9c-.481-.022-1.136-.044-1.792-.044h-3.867Zm0-13.831h2.6v-.765h-2.6Zm0,2.578h2.6v-.786h-2.6Zm10.925,10.379V63.8a3.216,3.216,0,0,0,.371.022c1.18,0,1.224-.022,1.224-.5v-8.3h-4.064c-.59,0-1.333.022-1.792.044.044-.591.044-.787.044-1.923V49.156c0-.809-.022-1.355-.066-2.01a19.076,19.076,0,0,0,2.229.087h4.763a19.378,19.378,0,0,0,2.207-.087c-.065.743-.087,1.311-.087,2.469V63.84c0,2.6-.656,3.1-3.977,3.1-.284,0-.35,0-1.639-.044a17.328,17.328,0,0,0-.327-1.879H105.4v.918h-3.1c.065-.678.087-1.464.087-2.316V57.787c0-.765-.022-1.333-.065-1.858.59.044,1.114.066,1.9.066h5.725c.831,0,1.311-.022,1.9-.066-.043.5-.065,1.028-.065,1.858Zm-6.38-3.867h3.365v-.874H105.4Zm0,3.081h3.365v-.9H105.4Zm5.221-12.171h2.754v-.765h-2.754Zm0,2.578h2.754v-.786h-2.754Z"/><path class="cls-1" d="M119.277,49.2c.372.022.656.022.831.022.568,0,1.354-.044,3.736-.2,3.147-.2,5.266-.306,9.417-.459l2.251-.088.918-.043c.743-.022.874-.044.983-.044a1.867,1.867,0,0,0,.5-.087l.2,3.955a3.3,3.3,0,0,0-.612-.044,10.243,10.243,0,0,0-5,1.529c-2.186,1.333-3.474,3.169-3.474,4.96a2.792,2.792,0,0,0,1.835,2.71,11.544,11.544,0,0,0,4.173.786c.175,0,.328,0,.656-.021l-.5,4.151a5.411,5.411,0,0,0-.808-.109A16.478,16.478,0,0,1,128.848,65a6.212,6.212,0,0,1-3.912-5.986,7.48,7.48,0,0,1,1.858-4.939,8.936,8.936,0,0,1,2.141-1.857l-1.027.109c-.48.044-1.245.109-5.331.437a24.013,24.013,0,0,0-3.081.415Zm15.492,4.982a14.08,14.08,0,0,1,2.12,3.168l-2.1.961a13.577,13.577,0,0,0-2.12-3.234Zm2.928-1.268A15.122,15.122,0,0,1,139.839,56l-2.032.94a15.613,15.613,0,0,0-2.077-3.147Z"/><path class="cls-1" d="M152.54,39.081a20.986,20.986,0,0,0,3.872.226h4.1a32.025,32.025,0,0,0,4-.129,49.9,49.9,0,0,0-.226,5.2V61.279a37.247,37.247,0,0,0,.258,4.871h-7.034a36.931,36.931,0,0,0,.259-4.871V44.824h-1.291a34.19,34.19,0,0,0-3.936.226Z"/><path class="cls-1" d="M181.025,66.118a5.246,5.246,0,0,1-1.613,4.033,6.086,6.086,0,0,1-3.226,1.581l-1.42-2.452a4.8,4.8,0,0,0,2.549-.968,2.745,2.745,0,0,0,.9-2.194h-3.711V59.633h6.517Z"/><path class="cls-1" d="M187.284,63.731a10.162,10.162,0,0,1-2.355-3.581,21.384,21.384,0,0,1-1.259-7.389,18.867,18.867,0,0,1,2.033-8.937,10.5,10.5,0,0,1,9.388-5.1,10.969,10.969,0,0,1,7.84,3,10.149,10.149,0,0,1,2.355,3.581,21.459,21.459,0,0,1,1.259,7.421,19,19,0,0,1-2.033,8.969,10.56,10.56,0,0,1-9.421,5.033A10.706,10.706,0,0,1,187.284,63.731Zm3-11.228c0,5.775,1.646,8.744,4.84,8.744,3.162,0,4.775-2.9,4.775-8.647,0-5.517-1.678-8.421-4.808-8.421C192.059,44.179,190.284,47.244,190.284,52.5Z"/><path class="cls-1" d="M212.22,63.731a10.176,10.176,0,0,1-2.355-3.581,21.407,21.407,0,0,1-1.258-7.389,18.867,18.867,0,0,1,2.032-8.937,10.5,10.5,0,0,1,9.389-5.1,10.969,10.969,0,0,1,7.84,3,10.162,10.162,0,0,1,2.355,3.581,21.459,21.459,0,0,1,1.259,7.421,19,19,0,0,1-2.033,8.969,10.56,10.56,0,0,1-9.421,5.033A10.707,10.707,0,0,1,212.22,63.731Zm3-11.228c0,5.775,1.645,8.744,4.839,8.744,3.162,0,4.775-2.9,4.775-8.647,0-5.517-1.677-8.421-4.807-8.421C217,44.179,215.221,47.244,215.221,52.5Z"/><path class="cls-1" d="M237.157,63.731A10.162,10.162,0,0,1,234.8,60.15a21.407,21.407,0,0,1-1.258-7.389,18.867,18.867,0,0,1,2.032-8.937,10.5,10.5,0,0,1,9.389-5.1,10.972,10.972,0,0,1,7.84,3,10.162,10.162,0,0,1,2.355,3.581,21.459,21.459,0,0,1,1.258,7.421,19.01,19.01,0,0,1-2.032,8.969,10.561,10.561,0,0,1-9.421,5.033A10.707,10.707,0,0,1,237.157,63.731Zm3-11.228c0,5.775,1.646,8.744,4.84,8.744,3.162,0,4.775-2.9,4.775-8.647,0-5.517-1.678-8.421-4.807-8.421C241.932,44.179,240.157,47.244,240.157,52.5Z"/><path class="cls-1" d="M278.447,51.931h3.08c.9,0,1.333-.022,1.858-.066a16.591,16.591,0,0,0-.088,2.1v4.3a16.641,16.641,0,0,0,.088,2.076,19.415,19.415,0,0,0-2.12-.087h-1.289a12.1,12.1,0,0,0,4.567,3.1,16.835,16.835,0,0,0-1.552,3.343,14.818,14.818,0,0,1-3.3-2.622,7.935,7.935,0,0,1-1.289-1.661c.022.349.044.787.044,1.289v1.573a9.78,9.78,0,0,0,.131,1.9h-3.344a11.96,11.96,0,0,0,.11-1.9V63.752a9.874,9.874,0,0,1,.044-1.289,13.319,13.319,0,0,1-1.574,1.9A15.88,15.88,0,0,1,270.8,66.7a11.733,11.733,0,0,0-1.683-3.016,11.727,11.727,0,0,0,4.654-3.43h-1.158a15.779,15.779,0,0,0-1.9.087,16.744,16.744,0,0,0,.088-2.032V57.24c-.437.962-.59,1.268-.874,2.011a2.283,2.283,0,0,0-.175-.284,6.148,6.148,0,0,1-.721-1.42c.044.7.066,1.485.066,2.228v4.589a25.538,25.538,0,0,0,.131,2.818H265.8a26.375,26.375,0,0,0,.131-2.818V61.436c0-.874.022-1.595.066-2.12a10.854,10.854,0,0,1-1.705,3.5A17.911,17.911,0,0,0,263.2,59.1a14.926,14.926,0,0,0,2.491-5.812h-.568a6.1,6.1,0,0,0-1.4.109V50.139a5.869,5.869,0,0,0,1.4.109h.786v-1.4a15.214,15.214,0,0,0-.131-2.273h3.453a16.464,16.464,0,0,0-.131,2.273v1.4h.283a4.7,4.7,0,0,0,.809-.043V48.063a19.49,19.49,0,0,0,2.556.132h2.6v-.132a7.353,7.353,0,0,0-.11-1.464h3.322a6.054,6.054,0,0,0-.109,1.442V48.2h3.037A18.958,18.958,0,0,0,284,48.063v3.212a22.484,22.484,0,0,0-2.534-.109h-3.015Zm-5.7-.765a20.681,20.681,0,0,0-2.36.088v2.119a4.456,4.456,0,0,0-.961-.087h-.262A7.892,7.892,0,0,0,270.8,56v-2.12a16.356,16.356,0,0,0-.088-2.01c.59.044,1.136.066,2.1.066h2.535v-.765Zm1,3.125V55.1h1.6v-.808Zm0,2.775v.852h1.6v-.852Zm4.7-1.967h1.791v-.808h-1.791Zm0,2.819h1.813v-.852h-1.813Z"/><path class="cls-1" d="M295.556,60.78c-1.267,2.8-2.731,4.021-4.72,4.021-2.927,0-4.981-2.8-4.981-6.8a9.717,9.717,0,0,1,2.512-6.664,10.447,10.447,0,0,1,7.91-3.212,9.741,9.741,0,0,1,7.123,2.688,8.683,8.683,0,0,1,2.142,6.074,9.406,9.406,0,0,1-2.906,7.058c-1.486,1.332-3.213,2.032-6.272,2.512a10.716,10.716,0,0,0-1.857-3.583,11.347,11.347,0,0,0,4.589-1.115,5.42,5.42,0,0,0,2.622-5.069,5.139,5.139,0,0,0-1.923-4.3,3.661,3.661,0,0,0-1.836-.765A30.584,30.584,0,0,1,295.556,60.78Zm-3.758-8a7.072,7.072,0,0,0-2.382,5.2c0,1.551.59,2.774,1.355,2.774.546,0,1.114-.764,1.77-2.425a28.355,28.355,0,0,0,1.639-6.664A4.368,4.368,0,0,0,291.8,52.783Z"/><path class="cls-1" d="M311.792,54.531a12.909,12.909,0,0,0-1.989.088V53.351h-2.119a9.542,9.542,0,0,0,.109-1.726V49.833c0-.568-.022-1.027-.087-1.77.7.066,1.42.088,2.622.088h5.309V48a9.242,9.242,0,0,0-.087-1.421h3.671a8.02,8.02,0,0,0-.11,1.4v.175h5.638c1.2,0,1.9-.022,2.622-.088a16.081,16.081,0,0,0-.087,1.7v1.879a14.02,14.02,0,0,0,.087,1.7h-2.1v1.268a14.38,14.38,0,0,0-2.032-.088h-4.217c0,.393,0,.393-.022.765h4.37a19.821,19.821,0,0,0,2.054-.066V57.9a14.6,14.6,0,0,0-2.054-.087h-4.5c-.043.415-.043.48-.087.808h6.183a18,18,0,0,0,2.513-.109V61.48a25.262,25.262,0,0,0-2.687-.132h-4.61a6.084,6.084,0,0,0,1.988,1.355,19.842,19.842,0,0,0,5.768,1.333,10.146,10.146,0,0,0-1.486,3.278,19.127,19.127,0,0,1-5.091-1.53,10.759,10.759,0,0,1-4.064-3.146,8.736,8.736,0,0,1-3.1,2.884,14.621,14.621,0,0,1-5.441,1.792,9.267,9.267,0,0,0-1.529-3.169,14.519,14.519,0,0,0,3.955-.742,6.849,6.849,0,0,0,3.081-2.055h-4c-.917,0-1.726.044-2.644.132V58.508a16.953,16.953,0,0,0,2.448.109h5.353c.065-.35.087-.5.131-.808h-3.933a14.234,14.234,0,0,0-2.032.087V55.23a19.893,19.893,0,0,0,2.032.066H315.7c.022-.415.022-.415.022-.765Zm-.787-3.5v.939h4.742c0-.48,0-.589-.022-.939Zm8.063,0c-.022.612-.022.634-.022.939h5.025v-.939Z"/><path class="cls-1" d="M329.032,55.515a7.6,7.6,0,0,0,1.552.087h.306c.349-.481.349-.481.5-.721a21.206,21.206,0,0,0-2.447-3.365l1.442-2.688.524.612a13.469,13.469,0,0,0,1.224-3.146l2.71,1.048a9.344,9.344,0,0,0-.612,1.18,23.725,23.725,0,0,1-1.639,3.1c.2.284.262.371.481.677a23.678,23.678,0,0,0,1.879-3.583l2.316,1.158V47.692a17.9,17.9,0,0,0,2.054.087H341.6a4.389,4.389,0,0,0-.109-1.18h3.365a4.24,4.24,0,0,0-.109,1.18h2.447a17.666,17.666,0,0,0,2.054-.087V50.03a11.912,11.912,0,0,0-1.9-.088h-2.6v.547h2.294c.765,0,1.2-.022,1.727-.066v1.923a16.7,16.7,0,0,0-1.727-.044h-2.294v.547h2.949a17.232,17.232,0,0,0,2.033-.088v2.382a17.989,17.989,0,0,0-2.033-.087h-8.805c-.918,0-1.7.021-1.989.043a20.687,20.687,0,0,1,.9,3.147l-1.813.611c-.066-.393-.066-.48-.11-.764-.568.065-.568.065-1.026.109v6.184a17.259,17.259,0,0,0,.131,2.753H331.96a17.564,17.564,0,0,0,.132-2.753V58.4a22.406,22.406,0,0,0-2.8.219Zm2.644,3.845a34.549,34.549,0,0,1-.633,6.839l-2.1-1.2a27.428,27.428,0,0,0,.678-5.965Zm2.12-3.845c.415,0,.9-.044,1.464-.088-.153-.481-.2-.568-.481-1.289C334.211,54.968,334.1,55.1,333.8,55.515Zm5.353-5.573a14.04,14.04,0,0,0-1.7.066,13.368,13.368,0,0,0-1,1.617,26.6,26.6,0,0,1-1.574,2.382l1.421-.437a8.7,8.7,0,0,1,.48,1.158V52.761a14.735,14.735,0,0,0,2.076.088H341.6V52.3h-2.163c-.917,0-1.289.022-1.748.044V50.423c.525.044,1,.066,1.748.066H341.6v-.547Zm-2.206,9.221c.2,1.312.392,3.453.458,4.851l-1.857.394a37.54,37.54,0,0,0-.35-4.939Zm2.643,4.677c-.633,0-.633,0-1.748.043.022-.459.044-1.355.044-2.054V57.284a16.176,16.176,0,0,0-.044-1.682c.546.022.634.022,1.726.022h7.32a17.97,17.97,0,0,0,1.814-.044,19.228,19.228,0,0,0-.088,2.032V61.72c0,.787.022,1.486.088,2.163-1.115-.043-1.115-.043-1.77-.043h-.787a10.251,10.251,0,0,0,3.977.983,11.439,11.439,0,0,0-1.508,2.556,11.447,11.447,0,0,1-5.178-2.316l1.486-1.223h-3.955l1.77,1.223a10.036,10.036,0,0,1-5.572,2.251,9.986,9.986,0,0,0-1.464-2.338,9.2,9.2,0,0,0,4.435-1.136Zm1.377-5.856h4.567v-.547h-4.567Zm0,1.988h4.567v-.546h-4.567Zm0,1.988h4.567v-.568h-4.567Z"/></svg>