<svg id="レイヤー_1" data-name="レイヤー 1" xmlns="http://www.w3.org/2000/svg" viewBox="0 0 55 78"><defs><style>.cls-1{fill:#c3b376;}.cls-2{fill:#fff;}</style></defs><rect class="cls-1" width="55" height="78" rx="3.69"/><path class="cls-2" d="M18.71,60.79V58.53L24,58a2.06,2.06,0,0,0,1.23-.49A2.73,2.73,0,0,0,25.85,56a75.15,75.15,0,0,0,.37-9.68v-6.7q0-3.46-.09-7.49l-.08-2.4a2.46,2.46,0,0,0-.17-1.14.48.48,0,0,0-.42-.25,6.52,6.52,0,0,0-1.24.47c-3.65,1.6-6,2.66-7,3.18l-.34-.19c-.07-.37-.17-1-.28-1.79-.09-.61-.2-1.18-.31-1.7l0-.2q5-1.44,8-2.42c2-.66,5.07-1.76,9.27-3.33l.61.42c0,.3,0,1.17-.16,2.63s-.17,2.38-.17,2.79q-.09,2.43-.23,12.42v4.13q0,6.06.06,8.41a17.33,17.33,0,0,0,.36,4.18,1.15,1.15,0,0,0,.57.56,13.52,13.52,0,0,0,4.05.5,15,15,0,0,1,1.82.17v2.26c-4.07-.18-7.36-.28-9.9-.28Q28.05,60.51,18.71,60.79Z"/></svg>