<svg id="レイヤー_1" data-name="レイヤー 1" xmlns="http://www.w3.org/2000/svg" viewBox="0 0 55 78"><defs><style>.cls-1{fill:#c3b376;}.cls-2{fill:#fff;}</style></defs><rect class="cls-1" width="55" height="78" rx="3.69"/><path class="cls-2" d="M15.87,60.79V57.92l5.2-5.14q4-4.08,6-6.34a27.15,27.15,0,0,0,3.07-4.18,16.11,16.11,0,0,0,1.53-3.48,11.65,11.65,0,0,0,.43-3.17,6.66,6.66,0,0,0-1.65-4.88A6.05,6.05,0,0,0,26,29.05a7.42,7.42,0,0,0-3,.64,6.53,6.53,0,0,0-2.43,1.93c-.34,1.14-.72,2.61-1.15,4.41H17.19l.73-6.39c.12-1,.23-2,.34-3.1a11.92,11.92,0,0,1,4.23-2.63,15.94,15.94,0,0,1,5.36-.86,14.55,14.55,0,0,1,6.74,1.35,8.88,8.88,0,0,1,3.83,3.77,10.49,10.49,0,0,1,1.27,5,11,11,0,0,1-.48,3.22,14.61,14.61,0,0,1-1.67,3.46A24.48,24.48,0,0,1,35,43.15l-3.18,3.21-2.95,2.88c-1.56,1.52-3.23,3.09-5,4.71l.08.37h4.95q1.13,0,7.45-.14c1.35,0,3-.12,4.95-.23l.23.37a35.15,35.15,0,0,0-.28,3.85,17.79,17.79,0,0,0,.19,2.32l-.14.3L33,60.57c-1.88-.06-3.22-.08-4-.08Z"/></svg>