<svg id="レイヤー_1" data-name="レイヤー 1" xmlns="http://www.w3.org/2000/svg" viewBox="0 0 40 40"><defs><style>.cls-1{fill:#004EA3;}.cls-2{fill:#fff;}</style></defs><circle class="cls-1" cx="20" cy="20" r="20"/><path class="cls-2" d="M15.52,24.65a3.42,3.42,0,0,0,1.22,2.14,5,5,0,0,0,3.16,1c2.57,0,4.21-1.33,4.21-3.38a3.05,3.05,0,0,0-1.45-2.74,6.84,6.84,0,0,0-3-.62,21.08,21.08,0,0,0-2.78.13V18a18.38,18.38,0,0,0,2.52.13c2.6,0,4.14-1.2,4.14-3.2,0-1.8-1.22-2.82-3.44-2.82a4.32,4.32,0,0,0-2.83.81,3.85,3.85,0,0,0-1.1,2l-3.72-.63a6.44,6.44,0,0,1,2.47-3.72A8.42,8.42,0,0,1,20,9.11c4.34,0,7.16,2.18,7.16,5.57a4.77,4.77,0,0,1-1.8,3.83,6.42,6.42,0,0,1-2.53,1,5.53,5.53,0,0,1,3.73,1.74,5,5,0,0,1,1.25,3.6,5.53,5.53,0,0,1-1.56,3.8,9,9,0,0,1-6.41,2.11c-3.05,0-5.13-.78-6.61-2.47a6.93,6.93,0,0,1-1.46-2.92Z"/></svg>