<?xml version="1.0" encoding="UTF-8"?><svg id="_レイヤー_1" xmlns="http://www.w3.org/2000/svg" viewBox="0 0 426.037 251.978"><defs><style>.cls-1{fill:#1e1e1e;}.cls-1,.cls-2,.cls-3,.cls-4{stroke-width:0px;}.cls-2{fill:#d2d3d3;}.cls-5{stroke:#1a1311;stroke-dasharray:0 0 1.838 1.838;stroke-width:1.364px;}.cls-5,.cls-6{fill:none;stroke-miterlimit:10;}.cls-3{fill:#004ea3;}.cls-6{stroke:#39b0ea;stroke-width:8.184px;}.cls-4{fill:#fff;}</style></defs><path class="cls-1" d="M276.425,118.486c-2.275,0-2.742.029-3.764.146.175-1.663.38-2.684.759-3.734.788-2.13,2.101-3.997,3.997-5.718,1.02-.904,1.896-1.575,4.813-3.53,2.684-1.838,3.501-2.801,3.501-4.289,0-1.984-1.546-3.209-4.026-3.209-1.691,0-2.976.583-3.705,1.721-.496.7-.7,1.342-.904,2.684l-4.172-.496c.408-2.217.934-3.413,2.014-4.668,1.458-1.692,3.763-2.597,6.681-2.597,5.105,0,8.257,2.451,8.257,6.448,0,1.925-.643,3.326-2.072,4.668-.816.759-1.108.992-4.901,3.588-1.283.905-2.742,2.13-3.472,2.918-.875.934-1.225,1.517-1.663,2.626h8.169c1.838,0,3.297-.087,4.26-.233v3.851c-1.371-.117-2.538-.175-4.405-.175h-9.365Z"/><path class="cls-1" d="M297.922,118.486c0,2.509-.642,3.443-3.005,4.376l-1.051-1.546c1.78-.496,2.188-1.021,2.218-2.83h-2.451v-4.26h4.289v4.26Z"/><path class="cls-1" d="M318.692,98.501c-.934.904-1.78,2.101-3.034,4.201-3.093,5.164-4.639,9.628-5.427,15.784h-4.609c.963-4.872,1.838-7.673,3.53-11.291,1.342-2.888,2.538-4.872,5.105-8.49h-9.016c-1.721,0-2.625.058-3.821.204v-3.851c1.342.146,2.275.204,3.997.204h9.277c2.187,0,2.946-.029,3.997-.146v3.384Z"/><path class="cls-1" d="M324.727,116.59c-.875-.875-1.547-1.896-1.926-2.947-.759-2.072-1.138-4.347-1.138-6.71,0-3.093.7-6.302,1.779-8.082,1.576-2.626,4.201-4.055,7.44-4.055,2.479,0,4.609.817,6.155,2.363.875.875,1.546,1.896,1.926,2.947.759,2.042,1.138,4.376,1.138,6.769,0,3.588-.788,6.739-2.159,8.636-1.634,2.276-4.055,3.443-7.089,3.443-2.48,0-4.581-.817-6.127-2.363ZM334.033,114.343c1.312-1.371,2.042-4.084,2.042-7.498,0-3.384-.73-6.039-2.042-7.469-.7-.788-1.867-1.225-3.18-1.225-1.4,0-2.422.467-3.268,1.488-1.284,1.517-1.926,3.909-1.926,7.089,0,3.063.555,5.602,1.488,6.944.904,1.284,2.129,1.896,3.734,1.896,1.283,0,2.421-.438,3.15-1.225Z"/><path class="cls-1" d="M345.494,116.59c-.875-.875-1.547-1.896-1.926-2.947-.759-2.072-1.138-4.347-1.138-6.71,0-3.093.7-6.302,1.779-8.082,1.576-2.626,4.201-4.055,7.44-4.055,2.479,0,4.609.817,6.155,2.363.875.875,1.546,1.896,1.926,2.947.759,2.042,1.138,4.376,1.138,6.769,0,3.588-.788,6.739-2.159,8.636-1.634,2.276-4.055,3.443-7.089,3.443-2.48,0-4.581-.817-6.127-2.363ZM354.801,114.343c1.312-1.371,2.042-4.084,2.042-7.498,0-3.384-.729-6.039-2.042-7.469-.7-.788-1.867-1.225-3.18-1.225-1.4,0-2.422.467-3.268,1.488-1.284,1.517-1.926,3.909-1.926,7.089,0,3.063.555,5.602,1.488,6.944.904,1.284,2.129,1.896,3.734,1.896,1.283,0,2.421-.438,3.15-1.225Z"/><path class="cls-1" d="M365.216,104.547c-.806,0-1.54.035-2.258.105v-2.065c.647.07,1.383.105,2.24.105h11.254c.84,0,1.558-.035,2.24-.105v2.065c-.683-.07-1.436-.105-2.223-.105h-6.563c-.035,1.365-.053,1.75-.157,2.713h5.022c1.033,0,1.715-.018,2.24-.088-.053.403-.053.42-.104,1.978-.123,3.08-.473,5.863-.91,6.931-.437,1.085-1.208,1.47-2.94,1.47-.578,0-.945-.017-2.485-.14-.088-.788-.192-1.295-.473-1.995,1.015.21,2.065.35,2.748.35.857,0,1.172-.14,1.365-.63.35-.858.595-2.993.717-6.038h-5.442c-.368,2.083-.945,3.623-1.943,5.233-.927,1.47-1.854,2.433-3.43,3.553-.402-.665-.841-1.173-1.471-1.68,1.278-.823,1.926-1.4,2.695-2.398,1.226-1.593,1.977-3.448,2.328-5.776.175-1.155.192-1.33.245-3.483h-2.695Z"/><path class="cls-1" d="M382.997,115.731c0,1.103.018,1.628.088,2.03h-2.153c.07-.56.105-1.19.105-2.1v-11.446c0-.735-.018-1.173-.07-1.68.56.052,1.016.07,1.943.07h10.641c.963,0,1.487-.017,1.908-.07-.053.507-.07.962-.07,1.908v11.219c0,.893-.21,1.383-.718,1.645-.332.175-.893.245-1.838.245-.683,0-1.644-.035-2.327-.07-.105-.683-.228-1.173-.543-1.89,1.155.123,2.03.193,2.66.193.683,0,.788-.052.788-.473v-4.27h-10.414v4.69ZM387.146,104.46h-4.148v4.743h4.148v-4.743ZM393.411,109.203v-4.743h-4.376v4.743h4.376Z"/><path class="cls-1" d="M278.812,65.897c1.109,0,1.307,0,1.775-.074-.05.444-.074.641-.123,1.085-.271,3.428-.789,5.523-1.899,7.891.863.838,1.678,1.405,2.639,1.8,1.109.468,2.195.666,4.365.814.641.049,1.504.074,1.873.074,3.009,0,6.066-.123,8.409-.321-.419,1.11-.493,1.43-.666,2.737-2.317.049-4.685.074-7.373.074-5.425,0-7.964-.764-10.431-3.107-1.084,1.627-1.75,2.417-3.156,3.674-.518-.888-.936-1.43-1.75-2.269,1.528-1.307,2.269-2.096,3.181-3.477-.444-.641-.765-1.208-1.184-2.047-.05-.099-.271-.493-.567-1.11-.123-.222-.296-.617-.542-1.085l2.194-1.159c.518,1.529.765,2.145,1.307,3.107.567-1.405.814-2.342,1.085-4.291h-2.343c-.689,0-1.405.025-1.997.074q1.529-2.49,2.121-3.625c.912-1.726,1.109-2.195,1.554-3.403h-2.467c-.665,0-1.084.025-1.676.123v-2.614c.566.099,1.035.123,1.75.123h2.614c.936,0,1.356-.025,1.775-.099l1.184,1.603c-.197.271-.222.321-.616,1.258-.494,1.159-1.604,3.304-2.17,4.241h1.134ZM285.963,61.31h-2.886c-.665,0-1.233.025-1.751.099v-2.195c.617.074,1.036.099,1.899.099h2.737c0-.789-.025-1.06-.124-1.627h2.713c-.074.468-.124.789-.124,1.627h3.625c.765,0,1.332-.025,1.874-.074-.049.468-.073.937-.073,1.553v1.8c.789,0,1.208-.025,1.75-.148v2.293c-.542-.099-.961-.123-1.75-.123v1.874c0,.567.024,1.11.073,1.479-.641-.025-1.085-.049-1.726-.049h-3.774v1.405h3.822c.863,0,1.381-.025,2.071-.099v2.145c-.592-.074-1.208-.099-2.096-.099h-3.798v1.455h4.686c1.035,0,1.578-.025,2.194-.123v2.318c-.592-.074-1.282-.099-2.194-.099h-4.686c0,1.11.025,1.479.124,2.071h-2.713c.099-.641.124-1.11.124-2.071h-3.551c-1.036,0-1.505.025-2.121.099v-2.318c.567.099,1.232.123,2.145.123h3.526v-1.455h-2.935c-.74,0-1.356.025-1.973.123v-2.17c.641.074,1.159.099,1.973.099h2.935v-1.405h-3.009c-.666,0-1.036.025-1.578.074v-2.145c.518.074.888.099,1.726.099h2.861v-1.332h-3.798c-1.06,0-1.504.025-2.12.099v-2.244c.616.099.961.123,2.219.123h3.699v-1.282ZM291.437,62.593v-1.282h-3.009v1.282h3.009ZM288.428,65.946h3.009v-1.332h-3.009v1.332Z"/><path class="cls-1" d="M320.167,61.434c1.036,0,1.602-.025,2.047-.099q-.099.764-.147,3.107c-.173,8.384-.494,12.107-1.159,13.809-.567,1.479-1.628,2.047-3.798,2.047-.542,0-1.158-.049-2.367-.148,0-1.036-.197-1.849-.641-2.786,1.258.271,2.244.395,3.058.395.986,0,1.356-.518,1.627-2.269.419-2.663.642-6.682.716-11.663h-.297c-.689,4.044-1.454,6.534-2.638,8.926-1.479,2.984-3.206,5.03-6.411,7.57-.567-.888-.986-1.307-2.071-2.022,3.032-1.997,4.907-4.044,6.411-7.003,1.134-2.293,1.824-4.488,2.367-7.471h-1.012c-1.232,4.833-3.254,8.137-6.607,10.8-.469-.912-.913-1.43-1.825-2.145,1.356-.838,1.997-1.405,2.909-2.49,1.505-1.8,2.441-3.625,3.156-6.165h-1.158c-.839,1.751-1.727,3.082-2.935,4.34-.765-.937-1.233-1.356-2.047-1.874.592-.543.839-.789,1.184-1.184-.493-.049-.813-.049-1.381-.049h-.592v4.611c.863-.296,1.233-.419,2.318-.912l.024,2.466c-1.159.493-1.504.641-2.343.986v5.597c0,1.036.05,1.899.148,2.836h-2.91c.124-.863.173-1.751.173-2.836v-4.66c-1.011.37-1.751.617-2.219.764-.666.222-.814.296-1.308.518l-.567-2.934c1.135-.074,1.726-.222,4.094-.962v-5.474h-1.232c-.223,1.381-.444,2.318-.937,3.995-.813-.666-1.307-.937-2.244-1.331.469-1.11.642-1.8.938-3.428.197-1.233.32-2.466.32-3.477,0-.37,0-.592-.049-1.036l2.465.271c-.098,1.48-.123,1.603-.197,2.515h.937v-2.786c0-.764-.049-1.332-.173-2.022h2.91c-.099.641-.148,1.208-.148,2.022v2.786h.592c.789,0,1.184-.025,1.602-.123v2.367c.716-.986,1.283-2.047,1.751-3.23.616-1.529.986-2.786,1.085-3.797l2.86.493q-.197.518-.789,2.244c-.073.222-.173.493-.32.912h6.83Z"/><path class="cls-1" d="M327.261,67.962c.606.133,1.55.192,3.424.192.398-.885.531-1.328.59-1.83l1.933.207q-.088.148-.59,1.328c-.074.162-.104.207-.133.266q.118-.015.93-.059c1.712-.103,3.055-.266,3.866-.502l.102,1.682q-.413.029-1.165.118c-1.077.133-2.951.251-4.441.295-.428.841-.842,1.431-1.357,1.962l.015.03q.103-.074.295-.221c.546-.413,1.328-.664,2.08-.664,1.151,0,1.874.546,2.11,1.564,1.136-.413,1.889-.679,2.258-.797.797-.28.855-.295,1.092-.443l.693,1.697c-.413.059-.855.177-1.638.398-.207.059-.944.31-2.214.752v.162q.016.384.016.59v.59c-.016.251-.016.384-.016.487,0,.325.016.531.045.782l-1.712.044c.059-.266.089-1.018.089-1.712v-.354c-.724.339-1.106.546-1.417.767-.517.383-.767.782-.767,1.21,0,.767.708,1.077,2.493,1.077,1.77,0,3.29-.221,4.338-.62l.148,1.904c-.251,0-.324.015-.679.059-1.062.162-2.478.266-3.777.266-1.563,0-2.538-.177-3.29-.62-.679-.384-1.077-1.092-1.077-1.903,0-.605.177-1.077.649-1.638.664-.826,1.505-1.387,3.172-2.081-.073-.546-.369-.797-.899-.797-.856,0-1.889.517-3.025,1.52-.619.516-.959.885-1.283,1.343l-1.343-1.328c.383-.295.811-.708,1.327-1.313.576-.679,1.476-1.962,1.771-2.523q.058-.118.117-.192c-.059,0-.25.015-.25.015-.236,0-1.535-.029-1.859-.029q-.28-.015-.413-.015c-.045,0-.133,0-.236.015l.029-1.682Z"/><path class="cls-1" d="M347.844,74.836c-.85,2.854-1.487,4.19-2.885,6.194-1.062-.911-1.579-1.306-2.489-1.792,1.427-1.852,2.065-3.188,2.793-5.678l2.581,1.275ZM345.81,73.439c-1.062,0-1.579.03-2.156.091.061-.881.091-2.126.091-3.219v-13.178c0-1.306-.03-2.035-.121-3.036.698.061,1.396.091,2.52.091h3.583c1.123,0,1.791-.03,2.398-.091-.06.668-.091,1.215-.091,2.733v13.846c0,1.791,0,2.186.091,2.854-.668-.061-1.093-.091-2.095-.091h-4.221ZM346.478,59.745h2.854v-2.733h-2.854v2.733ZM346.478,65.028h2.854v-2.672h-2.854v2.672ZM346.478,70.646h2.854v-2.976h-2.854v2.976ZM350.577,73.622c.698,2.065,1.366,3.401,2.55,5.071-.729.334-1.244.698-2.398,1.67-1.123-1.943-1.7-3.188-2.52-5.526l2.369-1.215ZM355.223,64.998c-1.093,0-1.73.03-2.49.152v-2.702c.728.121,1.366.152,2.49.152h1.457v-1.427h-.85c-.881,0-1.579.03-2.126.122v-2.429q.668.091,2.126.121h.85v-1.336h-1.366c-.972,0-1.549.03-2.247.121v-2.581c.698.122,1.245.152,2.338.152h1.275c0-1.184-.03-1.549-.182-2.126h3.309c-.151.547-.182.972-.182,2.126h3.491c0-1.336-.03-1.549-.182-2.126h3.309c-.121.607-.183,1.154-.183,2.126h1.822c1.062,0,1.609-.03,2.217-.152v2.581c-.728-.091-1.245-.121-2.187-.121h-1.852v1.336h1.306c.881,0,1.518-.03,2.065-.121v2.429c-.547-.091-1.275-.122-2.126-.122h-1.245v1.427h1.975c1.244,0,1.821-.03,2.429-.152v2.702c-.668-.121-1.275-.152-2.46-.152h-5.283v1.336h3.492c1.215,0,1.974-.03,2.824-.121-.062.425-.122,1.579-.122,2.551v4.858c.79-.03,1.124-.061,1.609-.152v2.702c-.546-.091-.789-.091-1.609-.122v2.065c0,2.277-.668,2.824-3.4,2.824-.881,0-1.579,0-2.733-.061-.151-1.518-.182-1.822-.516-2.703,1.032.152,1.883.213,2.519.213,1.003,0,1.245-.122,1.245-.698v-1.64h-9.049v1.336c0,2.126.03,2.672.122,3.735h-3.188c.121-1.124.151-1.822.151-3.735v-1.336c-.698,0-1.123.03-1.73.152v-2.733c.577.091.972.121,1.73.152v-4.585c0-1.245-.03-1.913-.091-2.793.759.061,1.488.091,2.854.091h3.066v-1.336h-4.676ZM359.898,68.642h-2.915v1.427h2.915v-1.427ZM359.898,72.164h-2.915v1.458h2.915v-1.458ZM359.626,58.986h3.491v-1.336h-3.491v1.336ZM359.626,62.599h3.491v-1.427h-3.491v1.427ZM366.032,70.069v-1.427h-3.279v1.427h3.279ZM366.032,73.622v-1.458h-3.279v1.458h3.279Z"/><path class="cls-1" d="M384.277,57.771c-.82,0-1.731.061-2.915.152v-3.644c.88.121,1.518.152,2.853.152h4.828c1.245,0,2.065-.03,2.764-.152-.091.881-.091,1.154-.091,1.913,0,4.312,1.093,8.32,3.249,12.025,1.274,2.126,2.763,3.947,4.858,5.83,1.548,1.427,2.429,2.065,4.493,3.279-1.153,1.124-1.73,1.913-2.581,3.431-3.036-2.126-5.313-4.342-7.378-7.136-1.124-1.488-1.792-2.642-2.673-4.494-.789-1.67-1.062-2.429-1.548-4.312-1.094,3.887-2.308,6.468-4.343,9.17-1.943,2.52-4.221,4.646-7.53,6.863-.638-1.336-1.336-2.247-2.49-3.188,2.581-1.488,4.069-2.642,6.103-4.767,2.368-2.46,4.221-5.709,5.192-8.988.607-2.095.881-3.674,1.002-6.134h-3.795Z"/><path class="cls-1" d="M278.539,170.878c0-1.06-.05-1.973-.173-2.885h3.206c-.124.888-.173,1.775-.173,2.885v4.463h4.907c1.405,0,2.243-.049,3.181-.148v2.885c-.962-.099-1.874-.148-3.181-.148h-4.907v8.926h6.46c1.406,0,2.564-.049,3.452-.148v2.934c-.986-.123-2.071-.173-3.452-.173h-15.288c-1.405,0-2.54.049-3.526.173v-2.934c.913.099,2.047.148,3.526.148h5.968v-8.926h-4.463c-1.308,0-2.27.049-3.206.148v-2.885c.863.099,1.874.148,3.206.148h4.463v-4.463Z"/><path class="cls-1" d="M298.664,170.928c0-1.282-.05-2.071-.148-2.836h2.836c-.123.789-.148,1.479-.148,2.86v3.156h.543c.912,0,1.258-.025,1.652-.099v2.589c-.517-.074-.962-.099-1.726-.099h-.469v6.707c.962-.444,1.233-.567,2.343-1.134l.074,2.614c-2.244,1.208-3.575,1.8-6.091,2.737-.69.271-.912.37-1.282.542l-.518-2.836c.739-.099,1.455-.321,2.935-.888v-7.743h-.567c-.936,0-1.331.025-1.923.123v-2.638c.542.099.961.123,1.923.123h.567v-3.181ZM307.516,186.635c0,.493.173.666.716.764.641.123,1.554.173,3.353.173,2.934,0,3.724-.123,4.093-.641.296-.419.444-1.258.444-2.934.789.345,1.849.666,2.687.814-.296,4.932-.813,5.277-7.841,5.277-4.981,0-6.066-.469-6.066-2.638v-8.482c-.222.074-.394.123-.493.148-.739.247-1.011.345-1.504.567l-.616-2.688c.689-.099,1.553-.271,2.392-.543l.222-.074v-3.378c0-1.184-.024-1.8-.148-2.614h2.91c-.099.789-.148,1.504-.148,2.515v2.688l2.393-.764v-4.291c0-1.134-.025-1.652-.123-2.466h2.859c-.098.814-.147,1.603-.147,2.515v3.452l3.551-1.11c.962-.296,1.356-.444,2.022-.74-.05,1.085-.074,1.258-.124,2.589-.123,3.477-.296,5.721-.542,6.781-.32,1.405-.986,1.825-2.787,1.825-.32,0-.542,0-1.158-.049-.123-1.06-.296-1.775-.666-2.54.567.123,1.011.197,1.381.197.616,0,.765-.099.863-.616.123-.814.222-2.343.296-4.734l-2.836.888v6.14c0,1.011.05,1.701.147,2.466h-2.859c.098-.838.123-1.381.123-2.54v-5.228l-2.393.764v8.507Z"/><path class="cls-1" d="M323.841,189.129c-.015-.147-.015-.236-.074-.575-.28-1.726-.398-3.143-.398-4.692,0-1.328.089-2.627.28-3.91q.074-.443.398-2.11c.103-.516.162-.944.162-1.092v-.059l1.992.207c-.605,1.284-1.165,4.84-1.181,7.407q-.015.531-.015.767v.236c0,.118,0,.148-.015.31h.015q.074-.162.178-.428c.029-.103.102-.266.177-.502q.133-.31.28-.664c.029-.044.044-.089.177-.457l1.225.546c-.87,1.712-1.46,3.541-1.46,4.515,0,.103,0,.118.029.398l-1.77.103ZM327.175,179.464c.694.177,1.461.236,2.671.236.517,0,.841,0,1.357-.03,0-.87-.015-1.608-.015-2.213,0-.325-.015-.546-.044-.708l1.844-.044c-.073.413-.103,1.121-.103,2.169v.679c.767-.089,1.416-.207,1.991-.354q.089-.03.325-.118l.118-.029.059,1.667c-.147.015-.162.015-.428.074-.502.103-1.269.236-2.051.325v.325c0,.826,0,.856.147,3.335,1.062.502,1.432.708,2.316,1.343.192.133.266.177.413.251l-.708,1.785c-.251-.295-.693-.679-1.106-.944-.502-.325-.842-.546-.93-.605v.207c0,.325-.045.62-.118.826-.34.871-1.372,1.387-2.804,1.387-1.933,0-3.113-.915-3.113-2.42,0-1.431,1.254-2.435,3.04-2.435.546,0,.914.059,1.312.207-.044-.369-.059-1.092-.118-3.143-.59.015-.944.03-1.327.03-.546,0-1.137-.015-1.83-.074-.206,0-.369-.015-.442-.015-.133-.015-.222-.015-.251-.015-.074-.015-.118-.015-.147-.015-.015,0-.045,0-.089.015l.029-1.697ZM330.171,185.647c-.944,0-1.535.369-1.535.974,0,.546.531.915,1.358.915.546,0,.974-.162,1.195-.457.133-.177.192-.398.192-.797v-.398c-.487-.177-.768-.236-1.21-.236Z"/><path class="cls-1" d="M342.057,178.563c0-.729,0-.82.091-3.431-1.396,2.277-1.457,2.399-2.308,3.401-.425-1.488-.728-2.338-1.396-3.613,2.004-2.156,3.643-4.919,4.858-8.259.638-1.7.881-2.612,1.062-4.008l3.492.82q-.121.364-.759,2.247c-.547,1.761-1.033,2.976-1.853,4.767v17.126c0,1.366.03,2.368.151,3.522h-3.522c.122-1.123.183-2.095.183-3.553v-9.018ZM358.788,166.325v-.789c0-1.063-.061-1.791-.152-2.46h3.432c-.091.698-.152,1.427-.152,2.49v.759h1.488c1.215,0,2.064-.03,2.915-.152v3.128c-.729-.091-1.488-.121-2.885-.121h-1.519v2.976h2.126c1.488,0,2.368-.061,3.066-.152v3.249c-.759-.121-1.67-.182-3.127-.182h-14.333c-1.396,0-2.246.03-3.127.152v-3.219c.668.121,1.487.152,3.066.152h1.701v-2.976h-1.033c-1.336,0-2.095.03-2.793.121v-3.128c.728.121,1.579.152,2.823.152h1.003v-.759c0-1.063-.061-1.761-.183-2.49h3.462c-.122.638-.152,1.366-.152,2.52v.729h4.373ZM348.615,179.382c0-1.123-.03-1.791-.121-2.52.759.091,1.427.121,2.763.121h10.628c1.458,0,2.156-.03,2.824-.121-.091.668-.121,1.397-.121,2.642v8.016c0,1.488.06,2.52.151,3.613h-3.37v-1.397h-9.596v1.397h-3.34c.121-1.032.182-2.095.182-3.431v-8.32ZM351.773,181.994h9.596v-2.277h-9.596v2.277ZM351.773,186.974h9.596v-2.338h-9.596v2.338ZM358.788,172.155v-2.976h-4.373v2.976h4.373Z"/><path class="cls-1" d="M380.008,163.775c-.364,1.033-.516,1.822-1.093,5.861-.213,1.275-.334,2.308-.394,3.036h.091q.061-.182.183-.668c.303-1.063,1.093-2.551,1.912-3.613,1.671-2.065,3.553-3.097,5.769-3.097,2.065,0,3.887.972,5.192,2.733,1.518,2.035,2.186,4.494,2.186,8.077,0,5.86-2.732,10.233-7.834,12.48-1.549.698-3.675,1.306-5.952,1.7-.606-1.731-.94-2.399-1.791-3.583,3.036-.334,4.798-.79,6.649-1.731,3.522-1.792,5.132-4.676,5.132-9.292,0-4.373-1.457-6.802-4.068-6.802-1.154,0-2.217.516-3.279,1.609-2.369,2.46-3.826,6.194-3.826,9.808v.638l-3.644.061c.03-.182.03-.334.03-.395v-.577c-.03-.881-.092-3.128-.092-3.735,0-2.46.183-5.83.426-7.925l.455-3.765c.06-.516.091-.638.091-1.032l3.856.212Z"/><path class="cls-1" d="M411.128,176.042c2.764-1.093,4.1-1.397,6.377-1.397,5.192,0,8.532,2.672,8.532,6.832,0,2.885-1.427,5.192-4.13,6.711-1.974,1.123-4.555,1.731-7.348,1.731-2.551,0-4.677-.486-5.891-1.397-1.154-.85-1.822-2.126-1.822-3.492,0-2.52,2.187-4.342,5.223-4.342,2.126,0,3.978.881,5.253,2.49.607.759.941,1.427,1.397,2.733,2.52-.941,3.613-2.247,3.613-4.403,0-2.368-2.339-3.917-6.013-3.917-4.434,0-8.866,1.791-12.51,5.101l-2.065-3.279c1.062-.516,2.277-1.336,4.281-2.854,2.824-2.156,6.771-5.557,9.079-7.895.061-.061.365-.364.547-.547l-.03-.03c-1.154.152-3.098.273-8.594.516-.668.03-.88.061-1.457.152l-.151-3.644c1.032.121,1.912.182,3.583.182,2.581,0,6.285-.152,9.23-.364,1.062-.091,1.396-.152,1.883-.395l1.883,2.672c-.517.273-.729.455-1.579,1.245-1.518,1.397-3.735,3.37-4.768,4.251-.547.455-2.732,2.095-3.34,2.49q-.76.516-1.245.79l.06.061ZM412.039,183.603c-1.093,0-1.792.547-1.792,1.397,0,1.215,1.367,1.913,3.614,1.913.576,0,.728,0,1.578-.122-.546-2.095-1.7-3.188-3.4-3.188Z"/><path class="cls-1" d="M272.7,213.524c-.826-1.18-1.195-1.83-1.608-2.907-.531-1.357-.782-2.656-.782-4.072,0-1.387.236-2.612.753-3.94.428-1.077.782-1.726,1.623-2.907h2.065c-1.033,1.298-1.461,1.962-1.874,2.936-.517,1.21-.767,2.464-.767,3.91,0,1.49.25,2.818.781,4.043.413.974.826,1.623,1.874,2.936h-2.065Z"/><path class="cls-1" d="M279.51,206.663c.192-1.269.28-2.169.28-2.833v-.192c-.649.767-.944,1.077-1.652,1.682-.354-.62-.575-.915-.988-1.372,1.239-.9,2.169-1.992,2.817-3.305.222-.457.34-.782.398-1.033l1.727.266q-.177.325-.324.62c-.118.251-.162.354-.295.59h7.009c.811,0,1.327-.029,1.844-.103v1.667c-.561-.059-1.077-.088-1.844-.088h-7.88c-.266.384-.413.575-.679.9.222.03.575.044.989.044h6.787c.635,0,1.003-.015,1.357-.059-.029.28-.044.531-.074,1.092q-.044,1.092-.102,2.125h.472c.664,0,1.048-.015,1.417-.074v1.593c-.413-.044-.797-.059-1.446-.059h-.531c-.074.782-.118,1.166-.177,1.771h.25c.679,0,1.048-.015,1.343-.074v1.594c-.339-.059-.723-.074-1.401-.074h-.413c-.222,1.122-.384,1.505-.782,1.785-.295.221-.752.31-1.638.31-.222,0-.546-.015-1.254-.074-.029-.575-.104-1.003-.295-1.534.737.089,1.18.133,1.52.133.502,0,.664-.133.797-.62h-6.522c-.088.34-.118.413-.235.841l-1.697-.148c.428-1.225.782-2.567,1.003-3.91h-.516c-.724,0-1.092.015-1.461.074v-1.623c.428.074.826.088,1.608.088h.59ZM282.859,209.895q.029-.177.089-.502c.044-.266.103-.59.191-1.269h-2.272c-.133.797-.191,1.121-.324,1.771h2.316ZM283.331,206.663q.059-.531.148-1.697h-2.17c-.103.812-.133,1.048-.221,1.697h2.242ZM286.991,209.895c.103-.753.133-1.048.191-1.771h-2.509q-.102.871-.25,1.771h2.567ZM287.286,206.663q.029-.472.073-1.697h-2.375c-.06.885-.103,1.446-.133,1.697h2.434Z"/><path class="cls-1" d="M296.781,208.803c-.132.752-.25,1.239-.428,1.756-.398,1.122-.899,1.977-1.741,2.922-.428-.575-.796-.944-1.372-1.357.826-.826,1.239-1.49,1.579-2.597.442-1.372.59-3.099.59-6.935,0-1.062-.015-1.712-.073-2.228.575.059.974.074,1.727.074h6.152c.812,0,1.21-.015,1.712-.074-.06.398-.074.797-.074,1.667v9.561c0,.738-.162,1.166-.531,1.402-.324.221-.737.295-1.711.295-.473,0-.959-.015-1.712-.059-.089-.708-.177-1.048-.428-1.653.752.118,1.564.177,2.169.177.442,0,.546-.074.546-.398v-2.553h-6.404ZM303.186,207.298v-1.977h-6.108c0,.457-.03.782-.118,1.977h6.227ZM303.186,203.815v-1.844h-6.094v1.844h6.094Z"/><path class="cls-1" d="M309.922,208.832c1.357,1.033,2.184,1.844,3.32,3.246l-1.372,1.284c-1.077-1.461-1.919-2.346-3.202-3.364l1.254-1.166Z"/><path class="cls-1" d="M326.06,200.451q-.162.162-.724.782c-.133.162-.295.325-.546.546v2.139c0,.59.016.871.074,1.166h-1.652c.059-.28.073-.487.073-.93v-.428c0-.28.015-.457.059-.723-.517.443-.724.59-1.461,1.033-.236-.561-.384-.811-.782-1.284,1.594-.841,2.936-1.977,3.482-2.981l1.476.679ZM324.437,211.237c-.738,0-1.018.015-1.476.044.029-.221.044-.753.044-1.18v-3.113q-.015-1.18-.044-1.52c.339.044.531.059,1.49.059h7.2c.826,0,1.077-.015,1.476-.044-.029.354-.044.782-.044,1.431v2.981c0,.62.015,1.107.044,1.387q-.133-.015-.31-.015c-.34-.029-.546-.029-.811-.029h-1.048c1.225.516,2.096.723,3.925.915-.502.664-.531.723-.899,1.416-2.066-.354-3.099-.708-4.81-1.697l.723-.634h-3.836l.826.634c-1.608.959-2.434,1.254-4.678,1.697-.295-.576-.442-.826-.899-1.358,1.696-.207,2.817-.487,3.851-.974h-.723ZM324.54,207.091h7.009v-.546h-7.009v.546ZM324.54,208.611h7.009v-.576h-7.009v.576ZM324.54,210.101h7.009v-.546h-7.009v.546ZM329.129,201.573q-1.388.074-2.612.118c-.088-.428-.191-.723-.413-1.151h.561c1.166,0,3.32-.162,4.648-.339.826-.118,1.254-.221,1.727-.399l1.194,1.195c-.841.162-2.553.384-3.6.472v.664h2.804c.648,0,.943-.015,1.342-.074v1.358c-.353-.044-.708-.059-1.342-.059h-2.804v.516h2.316c.619,0,1.062-.015,1.343-.059v1.328c-.413-.044-.693-.059-1.343-.059h-5.726c-.575,0-1.106.03-1.357.059v-1.328c.251.03.768.059,1.357.059h1.904v-.516h-2.391c-.605,0-1.033.015-1.357.059v-1.358c.28.044.826.074,1.357.074h2.391v-.561Z"/><path class="cls-1" d="M343.242,209.408c-.074.192-.089.265-.162.501-.62-.693-1.033-1.269-1.49-2.08.073,1.003.088,1.21.088,1.682v2.435c0,.708.015,1.092.089,1.534h-1.712c.074-.472.104-.915.104-1.564v-1.904c0-.59.029-1.284.059-1.771-.663,1.623-1.136,2.449-1.918,3.32-.162-.575-.428-1.106-.752-1.52.619-.634,1.092-1.284,1.594-2.184.31-.546.368-.693.781-1.667h-.767c-.649,0-.975.015-1.328.074v-1.564c.339.059.649.074,1.328.074h.988v-3.497c0-.664-.015-1.092-.074-1.446h1.683c-.06.384-.074.723-.074,1.431v3.512h.693c.561,0,.811-.015,1.137-.059v1.535c-.354-.044-.649-.059-1.166-.059h-.531c.546.93,1.092,1.594,1.903,2.258-.206.369-.266.502-.413.826.34-.015.856-.103,1.357-.207l3.453-.767v-6.743c0-.856-.015-1.254-.089-1.711h1.786c-.074.487-.089.885-.089,1.697v6.404c.605-.148.87-.221,1.254-.369l.311,1.682c-.399.044-.812.118-1.417.266l-.148.03v2.154c0,.826.015,1.269.089,1.741h-1.786c.074-.502.089-.856.089-1.756v-1.785l-3.128.708c-.649.148-1.077.266-1.402.369l-.339-1.579ZM338.978,200.643c.473,1.313.693,2.066.9,3.187l-1.239.531c-.236-1.358-.502-2.272-.915-3.158l1.254-.561ZM344.039,201.159c-.384,1.357-.575,1.874-1.181,3.202l-1.077-.561c.473-.988.723-1.756,1.018-3.187l1.239.546ZM344.776,204.509c1.166.797,1.801,1.343,2.567,2.169l-1.003,1.195c-1.033-1.107-1.534-1.549-2.597-2.272l1.032-1.092ZM345.234,200.82c1.268.885,1.741,1.298,2.582,2.169l-1.004,1.239c-1.092-1.166-1.165-1.225-2.611-2.272l1.033-1.136Z"/><path class="cls-1" d="M354.331,201.602c.605.133,1.55.192,3.424.192.398-.885.531-1.328.59-1.83l1.933.207q-.088.148-.59,1.328c-.074.162-.103.207-.133.266q.118-.015.93-.059c1.712-.103,3.055-.266,3.866-.502l.102,1.682q-.413.03-1.165.118c-1.077.133-2.951.251-4.441.295-.428.841-.842,1.431-1.357,1.962l.015.03q.103-.074.295-.221c.546-.413,1.328-.664,2.08-.664,1.151,0,1.874.546,2.11,1.564,1.136-.413,1.889-.679,2.258-.797.797-.28.855-.295,1.092-.443l.693,1.697c-.413.059-.855.177-1.638.398-.207.059-.944.31-2.214.752v.162q.016.384.016.59v.59c-.016.251-.016.384-.016.487,0,.324.016.531.045.782l-1.712.044c.06-.266.089-1.018.089-1.712v-.354c-.724.339-1.106.546-1.417.767-.517.384-.767.782-.767,1.21,0,.767.708,1.077,2.493,1.077,1.77,0,3.29-.221,4.338-.62l.147,1.903c-.251,0-.324.015-.679.059-1.062.162-2.479.266-3.777.266-1.563,0-2.538-.177-3.29-.62-.679-.384-1.077-1.092-1.077-1.903,0-.605.177-1.077.649-1.638.664-.826,1.505-1.387,3.172-2.081-.073-.546-.369-.797-.899-.797-.856,0-1.889.516-3.025,1.52-.619.516-.959.885-1.283,1.343l-1.343-1.328c.383-.295.812-.708,1.327-1.313.576-.679,1.476-1.962,1.771-2.523q.059-.118.117-.192c-.059,0-.25.015-.25.015-.236,0-1.535-.03-1.859-.03q-.28-.015-.413-.015c-.045,0-.133,0-.236.015l.029-1.682Z"/><path class="cls-1" d="M374.82,201.13c0-.635-.03-.93-.089-1.298h1.874c-.06.339-.074.649-.074,1.298v.575h3.955c.767,0,1.343-.03,1.8-.088v1.682c-.428-.059-1.033-.088-1.785-.088h-3.97v1.889h1.977c.62,0,.974-.015,1.254-.074l.975.989c-.163.192-.398.531-.694.959-.693,1.062-1.652,2.11-2.744,3.01,1.505.841,3.173,1.372,5.297,1.697-.368.546-.546.944-.797,1.711-2.582-.575-4.176-1.225-5.932-2.39-1.858,1.18-3.629,1.874-6.005,2.331-.222-.59-.413-.959-.811-1.579,2.125-.31,3.836-.856,5.475-1.741-1.269-1.062-1.977-1.918-2.804-3.482-.693.015-.959.044-1.388.089v-1.608c.414.059,1.033.088,1.786.088h2.7v-1.889h-3.748c-.768,0-1.328.03-1.785.088v-1.682c.472.059,1.032.088,1.8.088h3.733v-.575ZM373.507,206.53c.649,1.092,1.283,1.756,2.42,2.582,1.092-.811,1.756-1.535,2.405-2.582h-4.825Z"/><path class="cls-1" d="M389.805,202.62c.442,0,.679-.015,1.076-.059v1.535c-.397-.044-.708-.059-1.076-.059h-.694v2.287c.531-.162.782-.251,1.697-.561l.044,1.431c-.368.133-.944.339-1.741.605v4.161c0,1.077-.486,1.402-2.051,1.402-.31,0-.664-.015-1.165-.044-.045-.62-.118-.944-.34-1.594.62.088,1.092.118,1.534.118.354,0,.443-.088.443-.428v-3.099c-.266.089-.443.133-1.048.31-.473.133-.635.177-.797.251l-.31-1.667c.546-.044.944-.133,2.154-.443v-2.73h-.842c-.383,0-.767.029-1.136.074v-1.579c.384.059.723.088,1.151.088h.826v-1.21c0-.664-.015-1.048-.089-1.505h1.756c-.059.443-.089.826-.089,1.49v1.225h.694ZM397.285,213.288c-.162-.649-.207-.826-.355-1.372-1.991.398-3.275.62-5.355.9-.827.118-1.24.177-1.594.266l-.31-1.815c.102.015.162.015.235.015.06,0,.354-.015.856-.059,1.269-3.836,2.375-8.897,2.435-11.184l1.889.295c-.074.339-.147.693-.797,3.866-.428,2.095-1.239,5.297-1.77,6.876,1.977-.221,2.449-.295,3.969-.575-.531-1.549-1.048-2.833-1.697-4.073l1.432-.59c1.077,2.154,1.845,4.087,2.686,6.773l-1.623.679Z"/><path class="cls-1" d="M401.854,204.863q.383-.015,1.711-.251c2.096-.369,3.379-.502,4.634-.502,1.195,0,2.109.192,2.788.605.915.546,1.432,1.535,1.432,2.7,0,1.682-1.019,3.217-2.804,4.235-1.21.693-2.242,1.003-4.647,1.387-.147-.782-.31-1.151-.768-1.844,1.712-.074,3.306-.487,4.441-1.122,1.166-.649,1.8-1.579,1.8-2.597,0-1.107-.781-1.667-2.316-1.667-1.667,0-4.618.516-5.843,1.018l-.428-1.962ZM404.155,200.156c1.638.546,3.821.856,6.152.856h.413l-.25,1.815c-2.685-.118-4.722-.383-6.892-.93l.576-1.741Z"/><path class="cls-1" d="M420.821,210.868c0,1.387-1.121,2.508-2.493,2.508s-2.494-1.121-2.494-2.508c0-1.372,1.122-2.494,2.494-2.494,1.387,0,2.493,1.121,2.493,2.494ZM416.985,210.868c0,.752.604,1.358,1.343,1.358s1.343-.605,1.343-1.358c0-.738-.605-1.343-1.343-1.343s-1.343.605-1.343,1.343Z"/><path class="cls-1" d="M269.657,222.237c0-.531-.015-.9-.074-1.254h1.608c-.059.354-.074.723-.074,1.254v.251h2.125v-.251c0-.575-.015-.93-.073-1.254h1.608c-.059.339-.074.708-.074,1.254v.251c.517-.015.753-.03,1.004-.074v1.49c-.251-.044-.473-.059-1.004-.059v5.695c.487-.015.62-.015.886-.059v1.475c-.28-.029-.635-.044-1.24-.044h-4.839c-.605,0-.856.015-1.137.059v-1.49c.295.044.531.059,1.092.059h.192v-5.695c-.62,0-.856.015-1.122.059v-1.49c.251.059.502.074,1.122.074v-.251ZM271.781,231.813c-.752,1.239-1.15,1.697-2.271,2.685-.325-.443-.546-.679-1.137-1.166,1.018-.723,1.535-1.269,2.154-2.287l1.254.767ZM273.242,224.819v-.974h-2.125v.974h2.125ZM273.242,227.121v-1.003h-2.125v1.003h2.125ZM273.242,229.541v-1.121h-2.125v1.121h2.125ZM273.597,231.075c.517.797.546.826,1.372,1.579-.457.354-.797.679-1.106,1.092q-.841-.93-1.432-1.904l1.166-.767ZM277.492,229.806c-.222,2.331-.591,3.408-1.623,4.736-.458-.517-.738-.767-1.255-1.195.724-.811,1.062-1.564,1.269-2.744.206-1.269.295-3.453.295-7.245,0-1.003-.015-1.416-.074-1.918.473.044.871.059,1.639.059h2.139c.812,0,1.151-.015,1.594-.059-.044.369-.059.811-.059,1.623v9.783c0,.723-.207,1.18-.62,1.358-.295.133-.811.206-1.461.206-.177,0-.206,0-.929-.044-.074-.634-.163-1.003-.384-1.623.664.118.959.148,1.298.148.458,0,.56-.059.56-.325v-2.759h-2.39ZM277.669,226.324c-.015.87-.029,1.416-.073,2.08h2.286v-2.08h-2.213ZM279.882,222.96h-2.198v1.948h2.198v-1.948Z"/><path class="cls-1" d="M286.78,232.58c0,.885.03,1.416.089,1.815h-1.726c.06-.443.089-.915.089-1.83v-9.635c0-.767-.015-1.18-.06-1.653.413.044.797.059,1.52.059h2.611c.768,0,1.107-.015,1.505-.059-.029.472-.044.797-.044,1.372v2.258c0,.679.015,1.018.044,1.343-.384-.029-.841-.044-1.357-.044h-2.671v6.374ZM286.78,223.27h2.538v-.738h-2.538v.738ZM286.78,225.07h2.538v-.753h-2.538v.753ZM294.35,231.415c0,.561.016.9.045,1.284.324.029.855.074,1.121.074.413,0,.546-.103.546-.399v-6.168h-2.906c-.517,0-.989.015-1.357.044.029-.428.044-.708.044-1.343v-2.258c0-.502-.015-.915-.044-1.372.397.044.752.059,1.505.059h2.833c.737,0,1.107-.015,1.52-.059-.044.531-.059.9-.059,1.638v9.665c0,.885-.178,1.269-.709,1.49-.31.133-.752.177-1.667.177-.207,0-.266,0-1.018-.044-.088-.664-.162-.93-.383-1.52-.429-.015-.709-.015-.827-.015h-3.128v.826h-1.563c.059-.354.102-.944.102-1.476v-3.6c0-.517-.015-.93-.044-1.328.428.044.768.059,1.372.059h3.291c.619,0,.944-.015,1.372-.059-.029.384-.045.753-.045,1.328v2.995ZM289.864,229.275h3.011v-.885h-3.011v.885ZM289.864,231.429h3.011v-.959h-3.011v.959ZM293.303,223.27h2.759v-.738h-2.759v.738ZM293.303,225.07h2.759v-.753h-2.759v.753Z"/><path class="cls-1" d="M302.032,233.776c-.015-.148-.015-.236-.074-.576-.28-1.726-.398-3.143-.398-4.692,0-1.328.089-2.627.28-3.91q.074-.443.398-2.11c.103-.517.162-.944.162-1.092v-.059l1.992.207c-.604,1.284-1.165,4.84-1.181,7.407q-.015.531-.015.767v.236c0,.118,0,.148-.015.31h.015q.074-.162.178-.428c.029-.103.102-.266.177-.502q.133-.31.28-.664c.029-.044.044-.089.177-.457l1.225.546c-.87,1.711-1.46,3.541-1.46,4.515,0,.103,0,.118.029.398l-1.77.103ZM305.366,224.111c.694.177,1.461.236,2.671.236.517,0,.841,0,1.357-.03,0-.87-.015-1.608-.015-2.213,0-.325-.015-.546-.044-.708l1.844-.044c-.073.413-.102,1.121-.102,2.169v.679c.767-.089,1.416-.207,1.991-.354q.089-.029.325-.118l.118-.03.059,1.667c-.147.015-.162.015-.428.074-.502.103-1.269.236-2.051.325v.325c0,.826,0,.856.147,3.335,1.062.502,1.432.708,2.316,1.343.192.133.266.177.413.251l-.708,1.785c-.251-.295-.693-.679-1.106-.944-.502-.325-.842-.546-.93-.605v.207c0,.324-.045.62-.118.826-.34.871-1.372,1.387-2.804,1.387-1.933,0-3.113-.915-3.113-2.42,0-1.431,1.254-2.435,3.04-2.435.546,0,.914.059,1.312.207-.044-.369-.059-1.092-.118-3.143-.59.015-.944.03-1.327.03-.546,0-1.137-.015-1.83-.074-.206,0-.369-.015-.442-.015-.133-.015-.222-.015-.251-.015-.074-.015-.118-.015-.147-.015-.015,0-.045,0-.089.015l.029-1.697ZM308.362,230.293c-.944,0-1.535.369-1.535.974,0,.546.531.915,1.357.915.546,0,.974-.162,1.195-.457.133-.177.192-.398.192-.797v-.398c-.487-.177-.768-.236-1.21-.236Z"/><path class="cls-1" d="M318.934,230.352c.133.428.235.62.442.856.413.502,1.032.753,1.814.753,1.461,0,2.42-.974,2.42-2.435,0-1.446-.915-2.376-2.316-2.376-.723,0-1.372.236-1.83.679-.206.207-.31.339-.442.664l-1.844-.177c.148-1.048.162-1.121.191-1.534l.339-3.659c.016-.266.045-.767.06-1.505.442.03.782.044,1.564.044h3.629c1.019,0,1.388-.015,2.052-.118v1.859c-.649-.088-1.225-.118-2.036-.118h-3.468l-.236,2.582c-.015.118-.044.325-.089.62.724-.62,1.506-.9,2.523-.9,1.195,0,2.154.354,2.877,1.107.724.708,1.048,1.594,1.048,2.774,0,2.597-1.696,4.205-4.441,4.205-1.461,0-2.553-.413-3.364-1.284-.399-.428-.605-.782-.93-1.608l2.037-.428Z"/><path class="cls-1" d="M330.143,232.448c-.442-.443-.782-.959-.974-1.49-.384-1.048-.576-2.198-.576-3.394,0-1.564.354-3.187.9-4.087.797-1.328,2.125-2.051,3.763-2.051,1.254,0,2.331.413,3.113,1.195.442.443.782.959.974,1.49.384,1.033.575,2.213.575,3.423,0,1.815-.397,3.408-1.092,4.368-.826,1.151-2.051,1.741-3.585,1.741-1.254,0-2.316-.413-3.099-1.195ZM334.85,231.311c.664-.694,1.032-2.066,1.032-3.792,0-1.712-.368-3.054-1.032-3.777-.354-.398-.944-.62-1.608-.62-.708,0-1.225.236-1.652.752-.649.767-.975,1.977-.975,3.586,0,1.549.28,2.833.753,3.512.457.649,1.077.959,1.889.959.649,0,1.225-.221,1.594-.62Z"/><path class="cls-1" d="M343.092,226.56c0-.325-.015-.546-.044-.856.309.03.634.044,1.032.044h3.217v-1.918h-3.084c-.767,1.195-1.49,2.051-2.435,2.907-.428-.634-.59-.826-1.092-1.313,1.505-1.284,2.272-2.257,2.878-3.704.206-.472.309-.782.353-1.077l1.756.354c-.088.177-.118.221-.221.443-.016.044-.163.354-.429.93h6.906c.693,0,1.062-.015,1.505-.074v1.608c-.458-.059-.841-.074-1.505-.074h-3.011v1.918h2.376c.679,0,1.077-.015,1.519-.074v1.564c-.442-.044-.841-.059-1.476-.059h-2.42v2.39h3.424c.679,0,1.15-.03,1.608-.089v1.682c-.458-.059-.975-.088-1.608-.088h-3.424v1.845c0,.752.015,1.151.089,1.579h-1.8c.059-.428.088-.826.088-1.608v-1.815h-4.957c-.649,0-1.122.029-1.608.088v-1.682c.472.059.944.089,1.608.089h.752v-3.01ZM347.297,229.57v-2.39h-2.655v2.39h2.655Z"/><path class="cls-1" d="M356.63,234.543c1.048-1.313,1.461-1.963,1.874-2.936.531-1.225.782-2.538.782-4.043,0-1.476-.236-2.7-.753-3.91-.428-.974-.856-1.638-1.889-2.936h2.081c.826,1.166,1.18,1.815,1.608,2.907.516,1.343.752,2.538.752,3.94,0,1.431-.251,2.715-.767,4.072-.429,1.077-.782,1.726-1.608,2.907h-2.081Z"/><rect class="cls-3" y="188.221" width="232.508" height="63.757"/><polygon class="cls-2" points="186.009 187.883 39.848 187.883 39.848 63.545 113.943 15.84 186.009 63.545 186.009 187.883"/><rect class="cls-4" x="81.463" y="75.726" width="29.306" height="29.306"/><rect class="cls-4" x="117.118" y="75.726" width="29.306" height="29.306"/><rect class="cls-4" x="81.463" y="111.87" width="29.306" height="29.306"/><rect class="cls-4" x="117.118" y="111.87" width="29.306" height="29.306"/><line class="cls-6" x1="194.561" y1="55.048" x2="118.501" y2="3.385"/><path class="cls-4" d="M49.356,233.808c-2.465,0-2.971.032-4.077.158.19-1.801.411-2.907.822-4.045.852-2.307,2.275-4.329,4.329-6.194,1.106-.98,2.054-1.706,5.214-3.824,2.907-1.991,3.792-3.034,3.792-4.645,0-2.149-1.675-3.476-4.36-3.476-1.833,0-3.224.632-4.014,1.864-.537.758-.758,1.454-.979,2.907l-4.518-.537c.442-2.402,1.011-3.697,2.18-5.056,1.58-1.833,4.077-2.812,7.237-2.812,5.53,0,8.942,2.654,8.942,6.984,0,2.086-.694,3.603-2.243,5.056-.885.822-1.201,1.074-5.309,3.887-1.391.98-2.971,2.307-3.761,3.16-.948,1.011-1.327,1.643-1.802,2.844h8.849c1.991,0,3.571-.095,4.613-.253v4.171c-1.485-.126-2.749-.19-4.771-.19h-10.143Z"/><path class="cls-4" d="M67.37,221.484c1.169-1.422,1.737-1.928,3.128-2.812,1.928-1.201,3.35-1.643,5.183-1.643,1.454,0,2.718.284,4.077.948q.821.411,2.875,1.738c2.402,1.548,4.077,2.212,5.594,2.212.663,0,1.58-.253,2.339-.6,1.358-.695,2.18-1.391,3.286-2.876l2.528,2.528c-1.296,1.643-1.96,2.307-3.003,3.065-1.611,1.201-3.412,1.801-5.467,1.801-.947,0-1.928-.158-2.78-.442-1.232-.411-1.864-.727-4.33-2.338-2.78-1.77-3.76-2.149-5.435-2.149-2.055,0-3.508.758-5.499,2.907l-2.496-2.339Z"/><path class="cls-4" d="M103.493,226.951c.411,1.454.695,1.959,1.485,2.591,1.043.822,2.307,1.232,3.824,1.232,3.128,0,5.119-1.612,5.119-4.108,0-1.454-.632-2.654-1.77-3.318-.759-.442-2.244-.758-3.635-.758s-2.307.032-3.381.158v-3.918c1.011.126,1.706.158,3.066.158,3.16,0,5.024-1.454,5.024-3.887,0-2.18-1.485-3.413-4.172-3.413-1.548,0-2.686.348-3.444.98-.632.6-.948,1.138-1.327,2.433l-4.519-.758c.79-2.338,1.517-3.445,3.002-4.519,1.611-1.169,3.666-1.738,6.193-1.738,5.277,0,8.69,2.655,8.69,6.763,0,1.896-.821,3.634-2.181,4.645-.695.537-1.39.79-3.065,1.232,2.244.348,3.413.885,4.519,2.117,1.043,1.169,1.517,2.496,1.517,4.361,0,1.706-.726,3.444-1.895,4.614-1.738,1.675-4.393,2.56-7.774,2.56-3.697,0-6.226-.948-8.026-3.002-.79-.885-1.201-1.706-1.769-3.539l4.519-.885Z"/><path class="cls-4" d="M123.634,218.703c-.873,0-1.669.038-2.447.114v-2.238c.702.076,1.499.114,2.428.114h12.196c.91,0,1.687-.038,2.428-.114v2.238c-.74-.076-1.556-.114-2.409-.114h-7.112c-.038,1.479-.057,1.897-.171,2.94h5.443c1.119,0,1.858-.019,2.428-.095-.057.436-.057.455-.113,2.143-.133,3.338-.513,6.354-.986,7.511-.475,1.176-1.309,1.593-3.186,1.593-.626,0-1.024-.019-2.693-.152-.095-.853-.209-1.404-.513-2.162,1.101.228,2.238.379,2.978.379.929,0,1.27-.152,1.479-.683.379-.929.644-3.243.777-6.544h-5.899c-.398,2.257-1.024,3.926-2.105,5.671-1.005,1.593-2.011,2.636-3.718,3.85-.436-.721-.91-1.271-1.593-1.821,1.385-.891,2.086-1.517,2.921-2.598,1.327-1.726,2.143-3.737,2.522-6.259.189-1.252.208-1.441.266-3.774h-2.921Z"/><path class="cls-4" d="M142.9,230.823c0,1.195.019,1.764.095,2.2h-2.333c.076-.607.113-1.29.113-2.276v-12.404c0-.797-.019-1.271-.075-1.821.606.057,1.1.076,2.105.076h11.531c1.043,0,1.612-.019,2.067-.076-.057.55-.076,1.043-.076,2.067v12.158c0,.967-.227,1.498-.777,1.783-.36.19-.967.265-1.991.265-.74,0-1.783-.038-2.522-.076-.114-.74-.247-1.271-.588-2.049,1.251.133,2.199.209,2.883.209.739,0,.854-.057.854-.512v-4.628h-11.285v5.083ZM147.396,218.608h-4.495v5.14h4.495v-5.14ZM154.186,223.748v-5.14h-4.742v5.14h4.742Z"/><path class="cls-4" d="M167.458,216.749l-6.848,17.962h-2.332l6.865-17.962h2.314Z"/><path class="cls-4" d="M172.805,227.238c-.171.967-.323,1.593-.551,2.257-.512,1.441-1.156,2.541-2.238,3.755-.55-.74-1.023-1.214-1.764-1.745,1.062-1.062,1.594-1.916,2.029-3.338.569-1.764.759-3.983.759-8.914,0-1.366-.018-2.2-.095-2.864.74.076,1.252.095,2.22.095h7.908c1.044,0,1.556-.019,2.2-.095-.075.512-.095,1.024-.095,2.143v12.29c0,.948-.208,1.498-.683,1.802-.417.285-.948.379-2.2.379-.606,0-1.232-.019-2.2-.076-.113-.91-.227-1.347-.55-2.124.967.152,2.011.227,2.788.227.569,0,.702-.095.702-.512v-3.281h-8.231ZM181.036,225.303v-2.541h-7.852c0,.588-.038,1.005-.151,2.541h8.004ZM181.036,220.827v-2.371h-7.834v2.371h7.834Z"/><line class="cls-5" x1="168.149" y1="76.635" x2="252.395" y2="76.635"/><line class="cls-5" x1="207.735" y1="203.511" x2="251.381" y2="203.511"/></svg>