<?xml version="1.0" encoding="UTF-8"?><svg id="_レイヤー_2" xmlns="http://www.w3.org/2000/svg" viewBox="0 0 698 263"><defs><style>.cls-1{fill:#525a70;}.cls-2{stroke:#fff;stroke-miterlimit:10;stroke-width:.8px;}.cls-2,.cls-3,.cls-4,.cls-5{fill:none;}.cls-3{stroke-miterlimit:4;stroke-width:2px;}.cls-3,.cls-5{stroke:#525a70;}.cls-6{fill:#fff;}.cls-7{fill:#fdfaf6;}.cls-5{stroke-width:2px;}</style></defs><g id="_レイヤー_2-2"><g id="_レイヤー_1-2"><rect class="cls-4" width="698" height="263"/><circle class="cls-5" cx="213.21" cy="139.253" r="56.801"/><path class="cls-5" d="M213.21,83.452c30.769,0,55.801,25.032,55.801,55.801s-25.032,55.801-55.801,55.801-55.801-25.032-55.801-55.801,25.032-55.801,55.801-55.801M213.21,82.452c-31.37,0-56.801,25.431-56.801,56.801s25.431,56.801,56.801,56.801,56.801-25.431,56.801-56.801-25.431-56.801-56.801-56.801h0Z"/><circle class="cls-5" cx="292.248" cy="117.381" r="72.292"/><path class="cls-5" d="M292.248,46.089c39.311,0,71.292,31.981,71.292,71.292s-31.982,71.292-71.292,71.292-71.292-31.982-71.292-71.292,31.981-71.292,71.292-71.292M292.248,45.089c-39.926,0-72.292,32.366-72.292,72.292s32.366,72.292,72.292,72.292,72.292-32.366,72.292-72.292-32.366-72.292-72.292-72.292h0Z"/><circle class="cls-3" cx="364.199" cy="151.993" r="72.794" transform="translate(-.804 302.045) rotate(-45)"/><path class="cls-5" d="M364.199,80.199c39.587,0,71.794,32.207,71.794,71.794s-32.207,71.794-71.794,71.794-71.794-32.207-71.794-71.794,32.207-71.794,71.794-71.794M364.199,79.199c-40.203,0-72.794,32.591-72.794,72.794s32.591,72.794,72.794,72.794,72.794-32.591,72.794-72.794-32.591-72.794-72.794-72.794h0Z"/><circle class="cls-5" cx="461.09" cy="154.816" r="70.501"/><path class="cls-5" d="M461.09,85.315c38.323,0,69.501,31.178,69.501,69.501s-31.178,69.501-69.501,69.501-69.501-31.178-69.501-69.501,31.178-69.501,69.501-69.501M461.09,84.315c-38.937,0-70.501,31.564-70.501,70.501s31.565,70.501,70.501,70.501,70.501-31.564,70.501-70.501-31.564-70.501-70.501-70.501h0Z"/><circle class="cls-7" cx="213.21" cy="139.253" r="56.801"/><circle class="cls-7" cx="292.248" cy="117.381" r="72.292"/><circle class="cls-7" cx="364.199" cy="151.993" r="72.794" transform="translate(-.804 302.045) rotate(-45)"/><circle class="cls-7" cx="461.09" cy="154.816" r="70.501"/><path class="cls-1" d="M207.109,143.758c5.437-2.995,10.438-4.492,15.005-4.492,3.122,0,5.926.786,8.411,2.357,1.678,1.041,2.973,2.411,3.887,4.11.807,1.465,1.21,3.005,1.21,4.619,0,3.42-1.413,6.16-4.237,8.22-2.337,1.699-5.087,2.549-8.251,2.549-4.949,0-8.804-1.933-11.565-5.798-1.295-1.869-1.943-3.005-1.943-3.409,0-.212.127-.318.382-.318.319,0,.605.149.86.446,2.782,3.102,6.181,4.651,10.195,4.651,2.824,0,4.959-.722,6.403-2.166,1.253-1.253,1.88-3.165,1.88-5.735,0-2.718-1.041-4.693-3.122-5.926-1.445-.828-3.186-1.242-5.225-1.242-2.506,0-5.682,1.041-9.525,3.122-.808.446-2.22,1.274-4.237,2.485.084,2.57.212,5.416.382,8.538.084,1.572.127,2.645.127,3.218,0,1.784-.17,3.175-.51,4.173-.808,2.039-1.88,3.059-3.218,3.059-1.104,0-1.837-.722-2.198-2.167-.425-1.72-1.126-3.207-2.103-4.46-.637-.807-1.901-2.082-3.792-3.823-1.21,1.02-2.209,1.955-2.995,2.804-.765.828-1.636,1.243-2.612,1.243-.85,0-1.806-.329-2.867-.988-1.912-1.125-2.868-2.559-2.868-4.301,0-.892.266-1.731.797-2.517.382-.573.701-.86.956-.86.233,0,.414.17.542.51.255.765.488,1.286.701,1.562.191.191.435.287.732.287.085,0,.212-.011.382-.032.849-.106,3.111-1.167,6.786-3.186,1.444-.829,3.918-2.304,7.423-4.428,0-1.38-.021-3.749-.063-7.104-.021-2.378-.043-4.163-.064-5.353-3.547.553-5.894.829-7.041.829-2.315,0-4.354-1.189-6.117-3.568-.956-1.253-1.434-2.315-1.434-3.186,0-.573.148-.86.446-.86.233,0,.647.372,1.242,1.115,1.253,1.551,2.91,2.326,4.97,2.326,1.912,0,4.577-.361,7.997-1.083v-7.073c0-1.741-.085-2.782-.255-3.122-.085-.807-.478-1.306-1.179-1.498-.637-.212-1.2-.318-1.688-.318-.999,0-1.498-.18-1.498-.542,0-.637.351-1.158,1.051-1.561,1.147-.701,2.103-1.051,2.867-1.051,1.466,0,3.005.563,4.62,1.688,1.869,1.359,2.804,2.56,2.804,3.6,0,.637-.191,1.222-.574,1.752-.021.021-.181.202-.478.542-.191.234-.362.489-.51.765-.382.808-.616,2.549-.701,5.225,2.06-.913,3.557-1.795,4.492-2.645.849-.743,1.89-1.115,3.122-1.115,1.359,0,2.39.245,3.09.733.552.382.828.85.828,1.402,0,.616-.117,1.094-.35,1.434-.234.319-.701.712-1.402,1.179-.85.574-2.283,1.274-4.301,2.103-2.082.765-3.994,1.37-5.735,1.816,0,5.31.021,9.133.064,11.469l.004-.004ZM203,149.907c-2.761,2.103-4.747,3.707-5.958,4.811.658.404,1.731.999,3.218,1.784.892.467,1.614.701,2.167.701.424,0,.637-.308.637-.924,0-2.867-.021-4.991-.063-6.372h0ZM222.561,127.67c0-.34.17-.648.51-.924,1.657-1.444,3.812-2.167,6.467-2.167,3.398,0,6.297,1.041,8.698,3.122,2.081,1.827,3.122,4.057,3.122,6.69,0,1.997-.829,2.995-2.485,2.995-.68,0-1.328-.191-1.943-.573-.744-.574-1.402-.86-1.976-.86-.828,0-1.497.021-2.007.063-.701.064-1.529.213-2.485.446-1.019.212-1.55.318-1.593.318-.34,0-.51-.106-.51-.318,0-.191.287-.478.86-.86,2.633-1.826,4.078-2.846,4.333-3.059.297-.297.446-.583.446-.86,0-.361-.085-.658-.255-.892-1.529-2.357-3.845-3.536-6.945-3.536-.956,0-1.869.138-2.74.414-.064.021-.276.096-.637.223-.17.064-.308.096-.414.096-.298,0-.446-.106-.446-.318h0Z"/><path class="cls-1" d="M280.117,102.941c-5.547,6.326-12.625,11.096-21.231,14.31-.026.026-.065.039-.116.039-.312,0-.467-.194-.467-.583,0-.103.039-.181.117-.233,7.077-4.769,13.013-11.03,17.809-18.781,1.685-2.8,2.903-5.327,3.655-7.583,5.884,1.763,8.827,3.176,8.827,4.238,0,.933-1.143,1.465-3.422,1.594l-1.283,1.905h16.254c2.279-2.281,3.693-3.422,4.238-3.422.596,0,2.139,1.011,4.627,3.033,1.426,1.192,2.139,2.087,2.139,2.683,0,.622-.285,1.088-.855,1.399-.492.286-1.453.597-2.877.934-3.812,4.562-7.559,8.282-11.238,11.16,2.385,1.244,4.912,2.255,7.582,3.033,6.818,2.1,15.127,3.188,24.926,3.266.207,0,.311.117.311.35,0,.259-.104.428-.311.505-2.23.959-3.721,2.8-4.473,5.521-.311,1.426-.816,2.139-1.516,2.139-1.09,0-2.633-.233-4.627-.7-1.297-.285-2.918-.739-4.861-1.361.752.752,1.127,1.335,1.127,1.75,0,.493-.635,1.18-1.904,2.061v2.644l.232,13.143c0,2.177-1.516,3.266-4.549,3.266-2.178,0-3.266-.933-3.266-2.8v-1.438h-26.753v1.361c0,2.125-1.569,3.188-4.705,3.188-1.97,0-2.955-.959-2.955-2.877l.272-13.065-.078-7.544c-4.122,1.089-9.035,2.009-14.737,2.761-.285.052-.428-.155-.428-.622,0-.207.064-.324.195-.35,12.572-3.525,23.188-8.697,31.846-15.515-2.385-2.462-4.886-5.599-7.504-9.41h-.001ZM266.702,86.804h20.765v-3.5c0-2.645-.078-4.796-.234-6.455,7.207.7,10.811,1.594,10.811,2.683,0,.804-.92,1.555-2.762,2.255v5.016h20.064c2.488-2.67,4.006-4.005,4.551-4.005.596,0,2.385,1.31,5.365,3.927,1.529,1.4,2.295,2.359,2.295,2.877,0,.7-.234,1.167-.701,1.4-.414.182-1.219.272-2.41.272-.934,0-1.711.233-2.334.7-2.592,2.178-5.17,3.966-7.736,5.366-.053.026-.117.039-.195.039-.363,0-.545-.156-.545-.467,0-.025.014-.064.039-.117,1.062-2.54,1.918-5.262,2.566-8.166h-49.305c.078.804.117,1.53.117,2.177,0,3.059-.648,5.47-1.944,7.232-1.141,1.53-2.592,2.294-4.355,2.294-1.271,0-2.294-.44-3.072-1.322-.648-.778-.972-1.736-.972-2.877,0-1.711.842-2.98,2.527-3.811,2.203-1.141,3.668-2.333,4.394-3.578.674-1.14,1.141-2.89,1.4-5.249.052-.233.22-.35.505-.35.207,0,.324.091.35.272.44,1.633.712,2.761.816,3.383v.004ZM292.365,116.512c-4.898,3.422-10.408,6.105-16.526,8.049.934.622,1.775,1.205,2.528,1.75h25.975c.906-1.089,1.594-1.828,2.061-2.216-1.373-.544-2.359-.946-2.955-1.206-4.355-1.918-8.049-4.044-11.082-6.377h-.001ZM304.965,143.187v-15.048h-26.753v15.048h26.753ZM281.167,101.58c2.618,3.266,5.663,6.118,9.138,8.555,3.629-3.084,6.844-6.571,9.643-10.46h-17.264l-1.516,1.905h-.001Z"/><path class="cls-1" d="M345.458,148.966c-1.16,3.086-2.375,5.621-3.647,7.603-1.065,1.646-2.469,3.376-4.208,5.19-.037.056-.094.084-.168.084-.243,0-.365-.093-.365-.28,0-.037.01-.065.028-.084,3.572-7.107,6.032-14.99,7.379-23.649h-2.413c-1.028,0-2.291.112-3.787.336l-.617-2.104c1.477.299,2.87.449,4.18.449h3.282v-6.312c0-3.086-.094-5.545-.28-7.378,3.254.318,5.283.58,6.088.786.729.187,1.094.486,1.094.897,0,.58-.673,1.132-2.02,1.655v10.352h.926c1.29-2.263,2.207-3.395,2.749-3.395.393,0,1.375.786,2.946,2.356.804.861,1.206,1.459,1.206,1.796,0,.374-.253.561-.758.561h-7.069v5.583c4.133,1.571,6.2,3.619,6.2,6.144,0,.86-.281,1.553-.842,2.076-.486.449-1.085.673-1.796.673-1.085,0-1.683-.673-1.795-2.02-.281-2.226-.87-4.021-1.768-5.387.019,3.591.065,9.558.141,17.899.056,5.873.084,9.576.084,11.109,0,1.234-.992,1.852-2.974,1.852-1.497,0-2.245-.552-2.245-1.655,0-.486.075-4.105.225-10.857.131-5.816.206-10.577.225-14.28h-.001ZM373.092,150.986l.337,10.016c.149,4.62.224,7.781.224,9.482,0,1.496-.402,2.684-1.206,3.562-.954,1.066-2.544,1.599-4.77,1.599-.374,0-.654-.42-.841-1.262-.225-1.066-.805-1.88-1.74-2.441-.879-.542-2.422-1.103-4.629-1.683-.131-.037-.196-.159-.196-.365,0-.262.084-.393.253-.393,2.001.15,4.498.224,7.49.224.393,0,.589-.346.589-1.038v-7.125c-4.283,3.273-8.248,5.807-11.895,7.603-.094.973-.216,1.609-.365,1.908-.149.243-.374.365-.673.365-.431,0-1.581-2.141-3.451-6.424,1.459-.131,3.283-.496,5.471-1.094,4.582-1.271,8.221-2.441,10.913-3.507v-10.632h-6.48c-1.234,0-2.768.112-4.601.336l-.646-2.104c1.796.299,3.479.449,5.05.449h6.677v-6.649h-6.031c-1.01,0-2.291.112-3.844.337l-.646-2.104c1.534.299,2.992.449,4.377.449h6.144v-6.396h-8.332c-.842,0-1.898.112-3.17.337l-.617-2.104c1.328.3,2.553.449,3.675.449h12.625c.991-2.02,1.842-4.03,2.553-6.032.636-1.777.973-3.039,1.01-3.788,2.843,1.085,4.639,1.824,5.387,2.216.785.412,1.178.805,1.178,1.178,0,.412-.158.692-.477.842-.299.131-.907.252-1.823.365-2.002,2.132-4.031,3.872-6.088,5.218h7.743c1.646-1.908,2.702-2.862,3.17-2.862.393,0,1.431.664,3.114,1.992.879.711,1.318,1.253,1.318,1.627s-.253.561-.758.561h-15.626v6.396h5.162c1.813-2.039,2.945-3.058,3.395-3.058.374,0,1.412.729,3.114,2.188.842.729,1.262,1.272,1.262,1.627,0,.375-.252.561-.757.561h-12.176v6.649h8.978c1.852-2.337,3.029-3.507,3.535-3.507.373,0,1.486.805,3.338,2.413.954.805,1.431,1.413,1.431,1.824,0,.393-.243.589-.729.589h-16.103c.991,3.348,2.506,6.275,4.545,8.781.767-.879,1.767-2.291,3.001-4.236.711-1.141,1.281-2.328,1.712-3.562,3.572,2.058,5.358,3.413,5.358,4.068,0,.58-.907.87-2.722.87-1.684,1.178-3.899,2.403-6.648,3.675.448.543.813.926,1.094,1.15,3.18,3.067,6.948,5.33,11.306,6.789.112.056.169.15.169.281,0,.243-.094.402-.281.477-.916.375-1.608.814-2.075,1.319-.431.449-.833,1.122-1.207,2.02-.336.954-.664,1.431-.981,1.431-.3,0-.945-.346-1.936-1.038-3.086-2.487-5.602-5.246-7.547-8.276-1.87-2.88-3.413-7.06-4.629-12.541l-.002-.002ZM365.236,157.607c0,.823-.3,1.515-.897,2.076-.505.487-1.104.729-1.796.729s-1.16-.168-1.402-.505c-.206-.299-.58-1.207-1.122-2.721-.88-2.169-2.03-3.89-3.451-5.162-.056-.037-.084-.084-.084-.14,0-.299.141-.421.421-.365,5.555,1.291,8.332,3.32,8.332,6.088h0ZM368.715,128.935c0,.917-.309,1.693-.926,2.329-.542.561-1.169.842-1.879.842-.786,0-1.319-.225-1.6-.673-.262-.393-.533-1.244-.813-2.553-.355-1.646-1.216-3.329-2.581-5.05-.038-.074-.056-.14-.056-.196,0-.187.093-.28.28-.28h.084c2.806.748,4.788,1.59,5.947,2.525,1.028.841,1.543,1.861,1.543,3.058v-.002Z"/><path class="cls-1" d="M408.137,170.707c.865.956,1.298,1.912,1.298,2.868,0,.888-.256,2.123-.769,3.705-.546,1.764-1.28,3.443-2.202,5.036-1.434,2.675-2.731,4.621-3.893,5.838-.876.956-1.844,1.434-2.902,1.434-.989,0-1.872-.455-2.646-1.366-1.286-1.422-1.93-3.545-1.93-6.368,0-1.866.501-3.636,1.503-5.309,1.115-1.969,2.691-3.602,4.729-4.9,2.447-1.513,5.264-2.271,8.45-2.271,3.472,0,6.362.911,8.673,2.731,2.731,2.197,4.097,5.156,4.097,8.877,0,2.891-1.069,5.292-3.209,7.204-1.56,1.377-3.289,2.413-5.189,3.107-2.242.809-4.633,1.252-7.171,1.332-.512,0-.768-.119-.768-.358,0-.193.222-.341.666-.444,3.767-.831,6.766-2.356,8.996-4.575,1.184-1.229,2.009-2.492,2.476-3.79.444-1.207.666-2.652.666-4.336,0-2.959-1.024-5.15-3.073-6.573-1.548-1.092-3.414-1.724-5.6-1.895-.238-.011-.523-.017-.854-.017-.546,0-.996.023-1.349.068v.002ZM406.976,170.912c-2.367.341-4.381,1.275-6.043,2.8-1.309,1.161-2.299,2.595-2.971,4.302-.398.99-.597,2.094-.597,3.312,0,1.571.29,2.829.87,3.773.501.774,1.019,1.161,1.554,1.161.558,0,1.359-.745,2.407-2.236,2.06-2.868,3.624-5.725,4.694-8.57.489-1.218.734-2.208.734-2.97,0-.74-.217-1.264-.649-1.571h0Z"/><path class="cls-1" d="M444.622,169.159c-.451,3.726-1.187,6.763-2.207,9.112-1.162,2.682-2.883,5.09-5.161,7.226-1.804,1.685-4.318,3.56-7.546,5.624-.048.023-.106.036-.178.036-.355,0-.534-.167-.534-.499,0-.048.012-.095.036-.143,3.986-4.342,6.525-8.934,7.617-13.775.83-3.844,1.245-9.124,1.245-15.839,0-3.938-.118-7.582-.355-10.927,2.823,1.116,5.695,2.456,8.613,4.022h33.494c2.088-2.23,3.382-3.346,3.88-3.346.546,0,1.91.831,4.094,2.492,1.115.902,1.673,1.602,1.673,2.1s-.677,1.222-2.029,2.171l.214,13.206c0,1.993-1.364,2.99-4.093,2.99-2.042,0-3.062-.806-3.062-2.42v-2.029h-35.701ZM465.374,136.057v8.756h13.134c2.586-3.108,4.188-4.663,4.806-4.663.45,0,2.1,1.092,4.947,3.275,1.399,1.139,2.1,1.922,2.1,2.349,0,.475-.309.712-.925.712h-47.839c-1.306,0-2.979.143-5.019.427l-.818-2.67c1.945.38,3.772.57,5.481.57h17.049v-8.756h-21.569c-1.4,0-3.156.143-5.269.427l-.783-2.669c1.994.38,3.892.569,5.695.569h21.926v-2.563c0-2.942-.118-5.564-.355-7.866,6.62.641,9.931,1.472,9.931,2.492,0,.712-.831,1.388-2.491,2.029v5.909h17.477c2.776-3.25,4.461-4.876,5.055-4.876.521,0,2.218,1.139,5.09,3.417,1.518,1.187,2.277,1.994,2.277,2.42,0,.475-.32.712-.961.712h-28.939ZM444.765,167.486h14.202v-11.817h-13.775v2.563c-.071,3.465-.213,6.549-.427,9.254ZM480.323,167.486v-11.817h-14.594v11.817h14.594Z"/><path class="cls-1" d="M441.842,94.77c.839-.258,1.478-.467,1.915-.626.407-.148.985-.381,1.733-.699.092-.033.162.019.212.156.052.143.034.235-.054.279-.467.238-.736.55-.811.934-.104.487-.006,1.148.297,1.983l.705,1.99c.464,1.341.804,2.309,1.021,2.904.454,1.252.411,2.371-.13,3.356-.59.992-1.485,1.706-2.687,2.142-1.598.58-2.984.617-4.158.11-.84-.329-1.458-1.041-1.855-2.134l-1.089-3.095-.737-2.03c-.292-.804-.481-1.294-.568-1.47-.092-.191-.208-.345-.349-.461-.139-.128-.321-.18-.549-.155-.118.008-.377.065-.776.169-.085.02-.151-.037-.199-.169-.054-.147-.04-.236.041-.266.962-.303,1.709-.551,2.244-.746.6-.218,1.356-.515,2.268-.892.092-.034.164.024.218.171.048.132.028.22-.06.264-.393.188-.632.315-.717.381-.133.112-.208.254-.226.427-.054.279.119.971.521,2.075l.748,2.061.733,2.066c.307.845.583,1.447.828,1.807.283.416.634.715,1.052.897.756.336,1.579.343,2.469.019,1.171-.425,1.938-1.04,2.302-1.846.337-.722.306-1.634-.096-2.739l-.588-1.644c-.148-.407-.264-.725-.347-.954l-.751-1.974c-.35-.898-.677-1.482-.981-1.751-.264-.233-.737-.269-1.421-.106-.096.023-.167-.031-.215-.164-.054-.147-.035-.238.057-.271h0Z"/><path class="cls-1" d="M454.857,96.566c.174.861.314,1.492.422,1.892.013.086-.042.146-.163.179-.026.009-.05.016-.071.019-.064.009-.126-.022-.186-.096-.709-1.041-1.433-1.507-2.173-1.4-.856.124-1.229.578-1.115,1.36.062.434.531.763,1.406.986l.614.166c.918.255,1.548.525,1.89.81.398.331.644.815.735,1.453.101.691-.077,1.299-.531,1.825-.46.526-1.132.853-2.017.981-.819.119-1.621.076-2.406-.127-.24-.529-.447-1.106-.619-1.732-.013-.085.033-.142.14-.168.053-.013.09-.021.111-.024.048-.007.093.022.136.087.379.542.817.946,1.315,1.213.44.243.858.335,1.255.278.498-.072.851-.282,1.058-.629.167-.281.221-.631.16-1.049-.05-.343-.241-.61-.576-.803-.203-.119-.585-.266-1.146-.441l-.602-.184c-.795-.241-1.33-.48-1.605-.72-.345-.305-.562-.764-.65-1.375-.081-.562.084-1.065.496-1.508.422-.449,1.029-.731,1.822-.846.294-.042.696-.046,1.204-.01.183.012.367.004.555-.023.161-.023.342-.06.542-.111v-.003Z"/><path class="cls-1" d="M461.065,99.52c-.054.205-.083.404-.088.599-.028,1.083.249,1.951.833,2.605.437.488.923.739,1.459.753.562.015,1.034-.082,1.413-.288.313-.176.624-.46.932-.853.039-.053.095-.079.165-.077.032,0,.083.024.152.069.085.073.127.13.125.174,0,.027-.029.086-.086.176-.422.612-.904,1.038-1.446,1.278-.466.21-1.023.306-1.673.29-1.218-.032-2.178-.485-2.881-1.359-.598-.747-.883-1.659-.854-2.736.031-1.223.464-2.227,1.297-3.012.744-.69,1.633-1.021,2.666-.995,1.05.027,1.881.461,2.493,1.3.434.602.655,1.228.665,1.878-.003.108-.032.202-.088.282-.051.053-.135.078-.254.075-1.109-.062-2.175-.105-3.197-.132-.579-.015-1.123-.024-1.633-.026h0ZM461.163,98.921c.552.025.96.042,1.225.048.596.016,1.224.008,1.886-.024.098-.008.148-.093.153-.256-.018-.585-.144-1.068-.377-1.448-.239-.391-.566-.591-.983-.603-.471-.012-.886.224-1.245.707-.303.409-.522.934-.658,1.575h-.001Z"/><path class="cls-1" d="M472.245,99.014c.898-1.065,1.717-1.525,2.455-1.38.293.057.514.156.662.295.121.117.167.248.139.391-.065.335-.232.611-.502.829-.223.183-.431.255-.621.217-.128-.025-.277-.123-.447-.294-.154-.141-.285-.222-.392-.242-.239-.047-.523.065-.853.337-.375.312-.621.764-.736,1.354l-.391,1.992c-.196.999-.272,1.583-.228,1.751.04.135.141.238.304.308.071.03.273.095.607.193.074.015.098.091.071.229-.022.112-.07.16-.145.146-.148-.034-.359-.081-.635-.141-.569-.134-.971-.224-1.205-.27-.005,0-.646-.11-1.922-.327-.085-.017-.116-.081-.095-.192.024-.122.08-.183.168-.182.336.033.544.043.623.031.135-.012.237-.07.307-.172.147-.186.313-.752.499-1.698l.473-2.415c.121-.616.166-1.071.136-1.364-.022-.253-.164-.405-.424-.456-.027-.005-.048-.009-.064-.013l-.412-.048c-.043-.008-.072-.014-.088-.017-.085-.017-.121-.087-.107-.211.005-.026.01-.05.014-.072.019-.09.096-.136.234-.136.928-.005,1.847-.079,2.757-.221.139.027.197.091.178.192-.207.887-.327,1.415-.36,1.584v.002Z"/><path class="cls-1" d="M480.29,99.218l.482-3.496c.01-.06.024-.118.044-.174.08-.23.23-.381.451-.453.206-.065.437-.053.692.036.302.105.506.269.612.489.086.179.096.366.027.56-.018.051-.042.103-.071.156l-1.786,3.041c-.055.107-.146.138-.273.093-.143-.05-.202-.134-.179-.251h.001Z"/><path class="cls-1" d="M490.189,103.965c-.364.8-.619,1.393-.767,1.78-.041.077-.12.093-.237.05-.026-.008-.05-.017-.068-.026-.058-.03-.09-.093-.095-.187.035-1.259-.278-2.061-.94-2.408-.768-.401-1.334-.252-1.7.448-.204.389-.017.93.562,1.623l.401.494c.594.745.946,1.333,1.058,1.763.128.501.044,1.037-.255,1.608-.324.619-.824,1.008-1.5,1.167-.682.157-1.417.028-2.209-.386-.733-.384-1.358-.889-1.875-1.513.114-.569.285-1.158.512-1.767.04-.077.11-.095.212-.054.05.02.085.035.104.045.043.022.062.073.059.15-.01.661.109,1.246.356,1.754.215.455.499.774.854.96.445.233.854.27,1.226.11.3-.13.548-.382.744-.756.16-.307.161-.636.003-.988-.095-.215-.318-.558-.671-1.029l-.379-.501c-.504-.661-.797-1.169-.88-1.524-.102-.45-.009-.948.278-1.495.263-.503.691-.814,1.284-.931.605-.117,1.263.01,1.973.381.264.138.591.371.982.697.141.116.295.218.463.306.144.076.312.151.505.228h0Z"/><path class="cls-1" d="M498.926,118.535c.67-.299,1.139-.516,1.408-.651l2.044-1.023c.543-.274.923-.517,1.14-.729.097-.095.158-.186.187-.274.06-.179-.064-.464-.37-.854-.041-.065-.021-.138.06-.217.097-.095.176-.111.236-.049.31.363.664.748,1.062,1.154.355.364.695.687,1.018.97.075.077.065.163-.031.258-.086.083-.17.09-.253.021-.27-.213-.563-.324-.881-.331-.372.007-.944.177-1.717.51l-2.989,1.369c-.251.116-.601.277-1.051.482-.312.146-.589.273-.831.381-.613-.263-.941-.416-.982-.458-.046-.046-.057-.104-.033-.172.293-.567.636-1.258,1.027-2.074l1.417-3.045c.439-.991.666-1.576.68-1.755.002-.207-.141-.48-.428-.82-.049-.073-.033-.149.049-.229.097-.095.175-.111.235-.049.844.909,1.279,1.377,1.306,1.404.504.515.984.983,1.443,1.405.061.062.043.141-.054.235-.093.091-.166.109-.219.055-.398-.375-.684-.532-.856-.469-.031.015-.065.042-.104.08-.132.128-.394.608-.785,1.438l-1.04,2.165c-.137.278-.365.703-.686,1.273h-.002Z"/><path class="cls-1" d="M509.929,122.235c.668,1,.845,2.053.531,3.162-.272.957-.854,1.733-1.745,2.329-1.018.68-2.072.903-3.166.67-.977-.213-1.762-.766-2.357-1.657-.675-1.008-.855-2.063-.543-3.164.264-.931.838-1.693,1.725-2.286,1.018-.68,2.082-.904,3.195-.671.99.205,1.776.743,2.36,1.616h0ZM509.517,122.51c-.364-.544-.964-.746-1.8-.604-.684.118-1.428.446-2.233.985-.963.644-1.606,1.289-1.93,1.935-.296.601-.279,1.146.049,1.637.364.544.968.747,1.812.606.687-.114,1.426-.435,2.218-.965.977-.653,1.624-1.301,1.943-1.944.295-.601.275-1.151-.059-1.651h0Z"/><path class="cls-1" d="M511.558,131.141c.616-.28,1.031-.498,1.245-.655.179-.158.215-.353.109-.584-.022-.049-.04-.089-.054-.118l-.207-.379c-.019-.039-.031-.069-.041-.088-.026-.059.015-.12.123-.181.043-.025.071-.041.086-.048.074-.034.146.002.218.106.572.75,1.176,1.464,1.81,2.139.054.118.028.201-.075.248-1.004.408-1.907.794-2.711,1.159l-1.981.9c-.917.416-1.441.696-1.572.838-.082.108-.102.249-.06.419.019.081.083.269.193.563.021.073-.027.137-.146.191-.123.056-.2.049-.231-.02-.052-.125-.131-.315-.24-.569-.216-.526-.375-.903-.478-1.13-.029-.064-.304-.629-.823-1.695-.045-.099-.006-.176.118-.232.128-.058.212-.043.252.046.146.267.25.439.315.517.093.101.195.155.307.165.176.021.515-.083,1.018-.311l.658-.299,2.167-.983h0ZM518.726,128.681c.123.271.117.565-.019.882-.117.279-.299.475-.545.586-.276.125-.577.119-.901-.019-.278-.117-.471-.292-.576-.523-.127-.281-.123-.586.013-.916.117-.279.296-.474.538-.583.286-.13.59-.122.911.023.274.12.467.302.579.549h0Z"/><path class="cls-1" d="M517.812,139.62c.21.751.27,1.437.179,2.058-.052.476-.245.76-.579.854-.704.197-1.121.06-1.252-.409-.087-.308.155-.721.724-1.239.38-.371.525-.715.437-1.033-.179-.642-.669-1.027-1.47-1.158-.665-.106-1.47-.028-2.413.236-1.043.292-1.786.789-2.23,1.492-.344.54-.44,1.079-.291,1.616.138.49.353.868.646,1.135.241.219.591.417,1.051.592.072.019.115.052.129.099.01.037-.002.096-.035.178-.023.097-.062.152-.113.167-.026.007-.06.008-.101.002-1.305-.344-2.136-1.154-2.492-2.432-.323-1.158-.174-2.191.448-3.102.54-.786,1.333-1.326,2.381-1.618,1.189-.333,2.283-.208,3.283.373.865.5,1.432,1.23,1.699,2.189h-.001Z"/><path class="cls-1" d="M515.966,147.956c-.21-.029-.411-.034-.605-.015-1.077.104-1.905.485-2.484,1.144-.431.493-.621,1.006-.57,1.54.055.561.207,1.016.458,1.367.213.29.532.563.96.822.058.032.09.083.097.154.003.032-.014.085-.051.16-.062.093-.114.142-.157.146-.026.002-.089-.019-.186-.064-.658-.345-1.14-.771-1.444-1.281-.265-.437-.429-.979-.49-1.625-.116-1.212.216-2.221.998-3.024.669-.684,1.539-1.078,2.612-1.181,1.218-.117,2.267.19,3.147.921.775.654,1.212,1.496,1.311,2.525.101,1.045-.229,1.923-.987,2.632-.544.503-1.139.8-1.782.889-.108.011-.205-.007-.291-.054-.059-.043-.094-.124-.104-.243-.074-1.108-.16-2.171-.258-3.189-.055-.577-.112-1.118-.172-1.624h-.002ZM516.572,147.979c.041.551.075.958.101,1.222.057.593.141,1.216.253,1.869.02.096.11.136.272.121.579-.088,1.043-.271,1.392-.55.358-.285.518-.634.479-1.049-.046-.469-.33-.852-.854-1.15-.442-.251-.99-.405-1.643-.462h0Z"/><rect class="cls-6" x="524.5" y="201.5" width="154" height="42"/><path class="cls-1" d="M678,202v41h-153v-41h153M679,201h-155v43h155v-43h0Z"/><rect class="cls-1" x="527" y="204" width="149" height="37"/><path class="cls-6" d="M553.709,218.853v.672h-4.582v-.672h4.582ZM553.289,223.746v3.526h-2.89v.564h-.72v-4.09h3.61ZM549.691,221.144v-.66h3.61v.66h-3.61ZM549.691,222.774v-.66h3.61v.66h-3.61ZM553.265,217.258v.659h-3.502v-.659h3.502ZM552.57,224.43h-2.171v2.159h2.171v-2.159ZM560.317,224.214v.744h-2.915v3.01h-.803v-3.01h-2.975v-.744h2.975v-1.835h-2.327v-.732h2.327v-1.739h-2.567v-.756h1.439c-.168-.587-.54-1.391-.912-2.015l.647-.252c.42.66.828,1.523.983,2.087l-.432.18h2.447c-.18-.084-.396-.18-.408-.18.336-.576.768-1.523.983-2.171l.923.348c-.036.084-.132.12-.252.12-.24.54-.635,1.331-.971,1.883h1.655v.756h-2.734v1.739h2.399v.732h-2.399v1.835h2.917Z"/><path class="cls-6" d="M567.905,222.151c-.228-.408-.492-.828-.755-1.188l.612-.288c.563.755,1.163,1.775,1.391,2.435l-.648.312c-.06-.192-.156-.42-.276-.66l-1.307.072v5.133h-.731v-5.097c-.684.024-1.307.06-1.799.072-.012.096-.083.132-.167.156l-.216-.899h.888c.264-.312.552-.671.828-1.055-.372-.54-1.02-1.235-1.595-1.739l.408-.528c.12.096.24.204.36.324.42-.708.912-1.679,1.188-2.375l.875.372c-.048.072-.12.096-.252.096-.336.696-.888,1.679-1.343,2.351.312.312.588.624.78.9.54-.804,1.055-1.655,1.427-2.351l.852.408c-.048.06-.144.096-.276.096-.624,1.02-1.607,2.447-2.471,3.49l2.23-.036h-.003ZM565.675,223.962c-.024.072-.096.12-.228.12-.168,1.019-.444,2.17-.815,2.878-.156-.108-.42-.228-.6-.312.348-.672.611-1.823.768-2.915l.875.228h0ZM568.253,226.289c-.108-.647-.444-1.643-.792-2.387l.624-.204c.36.755.708,1.715.839,2.362l-.671.228h0ZM569.189,217.785h5.529v10.015h-.768v-.563h-4.018v.659h-.743v-10.11h0ZM571.564,218.541h-1.631v3.574h1.631v-3.574ZM569.932,222.871v3.622h1.631v-3.622h-1.631ZM573.95,222.115v-3.574h-1.655v3.574h1.655ZM572.295,226.493h1.655v-3.622h-1.655v3.622Z"/><path class="cls-6" d="M580.339,227.296c-.372-.863-.516-2.65-.516-4.222,0-1.595.252-3.598.647-5.601l1.164.228c-.024.12-.144.204-.312.216-.432,1.644-.696,3.778-.696,5.169,0,.912.012,1.823.108,2.267.264-.72.743-1.871.995-2.435l.54.504c-.396.815-1.235,2.638-1.235,3.202,0,.168.036.348.12.576l-.815.096h0ZM583.385,220.232c1.007.012,2.015.024,3.022-.048-.048-1.032-.084-1.919-.108-2.807l1.211.036c-.012.12-.12.216-.312.252.012.768.036,1.547.06,2.458.947-.096,1.715-.264,2.351-.48l.108.84c-.576.18-1.403.348-2.423.432.048,1.332.108,2.734.144,3.502.912.372,1.823.959,2.447,1.523l-.468.768c-.492-.492-1.2-1.02-1.943-1.367-.012,1.019-.204,2.159-2.003,2.159-1.403,0-2.339-.672-2.339-1.727,0-1.223,1.235-1.763,2.339-1.763.372,0,.768.048,1.139.156-.036-.756-.108-2.015-.168-3.19-.372.024-.875.036-1.223.036h-1.823l-.012-.78h.001ZM586.671,224.945c-.384-.12-.792-.216-1.188-.216-.731,0-1.607.264-1.607,1.02,0,.671.72,1.007,1.595,1.007.887,0,1.211-.432,1.211-1.391l-.012-.42h.001Z"/><path class="cls-6" d="M602.871,226.732c-1.056.192-2.447.276-3.646.276-1.008,0-1.883-.06-2.351-.156-1.451-.324-2.075-1.235-2.075-2.291,0-.923.516-1.847,1.223-2.566l.696.36c-.671.695-1.055,1.463-1.055,2.135,0,.695.467,1.331,1.499,1.559.42.096,1.127.144,1.955.144,1.163,0,2.554-.096,3.694-.324l.06.864h0ZM597.485,220.676c.624-.48,1.475-1.067,2.123-1.391v-.012c-.912.108-2.999.156-4.33.144,0-.228,0-.624-.012-.84.264.012,4.869.084,6.836-.384l.096.888c-1.427.168-3.262,1.415-4.03,2.027l-.684-.432h.001Z"/><path class="cls-6" d="M616.118,219.249c-1.559.396-3.73.647-5.157.696-.156,1.499-.372,2.734-.563,3.178.936-.756,2.387-1.271,3.406-1.271,1.787,0,2.878.959,2.878,2.579,0,2.387-2.411,3.19-6.309,3.286-.048-.228-.132-.588-.24-.792,3.442-.072,5.673-.66,5.673-2.471,0-1.08-.72-1.823-2.111-1.823-1.067,0-2.903.647-3.694,1.835l-.839-.396c.384-.432.78-2.147.959-4.114h-2.807v-.839c.504.012,1.979.012,2.878.012.048-.684.072-1.451.072-2.171l1.271.12c-.024.204-.168.24-.384.264-.024.6-.06,1.211-.108,1.775,1.271-.036,3.478-.312,4.917-.732l.156.864h.002Z"/><path class="cls-6" d="M623.694,219.404c-.048.12-.144.18-.312.204-.096,1.775-.324,3.286-.492,3.538h.012c1.175-.875,3.01-1.476,4.414-1.476,1.847,0,2.999.948,2.975,2.627-.036,2.207-1.859,3.19-6.5,3.382-.06-.228-.168-.563-.3-.792,4.186-.18,5.865-.863,5.9-2.579.012-1.151-.792-1.847-2.195-1.847-2.219,0-4.222,1.331-4.557,1.919l-.816-.396c.24-.228.66-2.375.684-4.726l1.187.144v.002ZM623.898,217.078c1.631.192,3.478.564,4.653,1.056l-.3.827c-1.235-.527-3.022-.875-4.605-1.091l.252-.792h0Z"/><polyline class="cls-2" points="638.829 223.104 657.123 223.104 651.297 218.493"/></g></g></svg>