<?xml version="1.0" encoding="UTF-8"?><svg id="_レイヤー_2" xmlns="http://www.w3.org/2000/svg" viewBox="0 0 343 128"><defs><style>.cls-1{fill:#525a70;}.cls-2{stroke-miterlimit:4;stroke-width:2px;}.cls-2,.cls-3,.cls-4,.cls-5{fill:none;}.cls-2,.cls-5{stroke:#525a70;}.cls-6{fill:#fff;}.cls-3{stroke:#fff;stroke-miterlimit:10;stroke-width:.55px;}.cls-7{fill:#fdfaf6;}.cls-5{stroke-width:2px;}</style></defs><g id="_レイヤー_2-2"><g id="_レイヤー_1-2"><rect class="cls-4" width="343" height="128"/><circle class="cls-2" cx="104.575" cy="68.125" r="27.995"/><path class="cls-5" d="M104.575,41.13c14.885,0,26.995,12.11,26.995,26.995s-12.11,26.995-26.995,26.995-26.995-12.11-26.995-26.995,12.11-26.995,26.995-26.995M104.575,40.13c-15.461,0-27.995,12.534-27.995,27.995s12.534,27.995,27.995,27.995,27.995-12.534,27.995-27.995-12.534-27.995-27.995-27.995h0Z"/><circle class="cls-2" cx="143.529" cy="57.345" r="35.63"/><path class="cls-5" d="M143.53,22.715c19.095,0,34.63,15.535,34.63,34.63s-15.535,34.63-34.63,34.63-34.63-15.535-34.63-34.63,15.535-34.63,34.63-34.63M143.53,21.715c-19.678,0-35.63,15.952-35.63,35.63s15.952,35.63,35.63,35.63,35.63-15.952,35.63-35.63-15.952-35.63-35.63-35.63h0Z"/><circle class="cls-5" cx="178.991" cy="74.404" r="35.877"/><path class="cls-5" d="M178.991,39.526c19.231,0,34.877,15.646,34.877,34.877s-15.646,34.877-34.877,34.877-34.877-15.646-34.877-34.877,15.646-34.877,34.877-34.877M178.991,38.526c-19.814,0-35.877,16.063-35.877,35.877s16.063,35.877,35.877,35.877,35.877-16.063,35.877-35.877-16.063-35.877-35.877-35.877h0Z"/><circle class="cls-5" cx="226.744" cy="75.795" r="34.747"/><path class="cls-5" d="M226.744,42.048c18.608,0,33.747,15.139,33.747,33.747s-15.139,33.747-33.747,33.747-33.747-15.139-33.747-33.747,15.139-33.747,33.747-33.747M226.744,41.048c-19.19,0-34.747,15.557-34.747,34.747s15.557,34.747,34.747,34.747,34.747-15.557,34.747-34.747-15.557-34.747-34.747-34.747h0Z"/><circle class="cls-7" cx="104.575" cy="68.125" r="27.995"/><circle class="cls-7" cx="143.529" cy="57.345" r="35.63"/><circle class="cls-7" cx="178.991" cy="74.404" r="35.877"/><circle class="cls-7" cx="226.744" cy="75.795" r="34.747"/><path class="cls-1" d="M101.568,70.345c2.68-1.476,5.145-2.214,7.396-2.214,1.539,0,2.92.388,4.146,1.162.827.513,1.465,1.188,1.916,2.025.397.723.597,1.481.597,2.277,0,1.685-.696,3.035-2.088,4.051-1.152.837-2.507,1.256-4.067,1.256-2.439,0-4.339-.952-5.7-2.857-.639-.921-.958-1.481-.958-1.68,0-.104.063-.157.188-.157.157,0,.298.073.424.22,1.371,1.528,3.046,2.292,5.024,2.292,1.392,0,2.444-.355,3.156-1.067.618-.618.927-1.56.927-2.826,0-1.34-.513-2.313-1.539-2.921-.712-.408-1.57-.612-2.575-.612-1.235,0-2.801.513-4.695,1.539-.397.22-1.094.628-2.088,1.225.042,1.267.104,2.669.188,4.208.042.775.063,1.303.063,1.586,0,.879-.084,1.565-.251,2.057-.398,1.005-.927,1.508-1.586,1.508-.544,0-.906-.356-1.083-1.068-.209-.848-.555-1.581-1.037-2.198-.314-.398-.937-1.026-1.868-1.884-.597.502-1.089.963-1.476,1.382-.377.408-.806.612-1.288.612-.419,0-.89-.162-1.413-.487-.942-.555-1.413-1.261-1.413-2.12,0-.439.131-.853.393-1.24.188-.283.345-.424.471-.424.115,0,.204.084.267.251.125.377.241.633.346.77.094.094.214.141.361.141.042,0,.104-.005.188-.016.418-.052,1.533-.575,3.345-1.57.711-.408,1.931-1.136,3.658-2.183,0-.68-.01-1.847-.031-3.501-.011-1.172-.021-2.052-.031-2.638-1.749.272-2.905.408-3.47.408-1.141,0-2.146-.586-3.015-1.759-.471-.617-.707-1.141-.707-1.57,0-.282.073-.424.22-.424.115,0,.319.184.612.55.618.764,1.434,1.146,2.449,1.146.942,0,2.256-.178,3.941-.534v-3.486c0-.858-.042-1.372-.125-1.539-.042-.398-.236-.644-.581-.738-.314-.104-.592-.157-.833-.157-.492,0-.738-.089-.738-.267,0-.314.173-.57.518-.77.565-.346,1.037-.518,1.413-.518.723,0,1.481.277,2.277.833.921.67,1.382,1.261,1.382,1.774,0,.314-.094.602-.283.864-.01.011-.089.1-.235.267-.094.115-.178.241-.251.377-.188.398-.304,1.256-.345,2.575,1.015-.45,1.753-.885,2.214-1.303.418-.367.932-.549,1.539-.549.67,0,1.178.12,1.523.361.272.188.408.418.408.691,0,.304-.058.539-.173.707-.115.157-.345.351-.691.581-.419.283-1.125.628-2.12,1.036-1.026.377-1.968.675-2.826.895,0,2.617.01,4.501.031,5.652v-.002ZM99.543,73.375c-1.361,1.037-2.34,1.827-2.937,2.371.325.199.853.492,1.586.879.44.23.795.345,1.068.345.209,0,.314-.152.314-.456,0-1.413-.011-2.459-.031-3.14h0ZM109.184,62.416c0-.168.084-.319.251-.456.816-.712,1.879-1.068,3.188-1.068,1.674,0,3.104.513,4.287,1.539,1.025.9,1.539,1.999,1.539,3.297,0,.984-.408,1.477-1.225,1.477-.335,0-.654-.095-.958-.283-.367-.282-.691-.424-.974-.424-.408,0-.738.011-.989.031-.345.032-.753.105-1.225.22-.502.105-.764.157-.785.157-.167,0-.251-.052-.251-.157,0-.094.141-.235.424-.424,1.298-.9,2.01-1.402,2.135-1.507.146-.146.22-.288.22-.424,0-.178-.042-.324-.126-.44-.753-1.162-1.895-1.742-3.423-1.742-.471,0-.921.068-1.35.204-.032.01-.136.047-.314.109-.083.031-.152.047-.204.047-.146,0-.22-.052-.22-.157h0Z"/><path class="cls-1" d="M137.55,50.228c-2.734,3.118-6.222,5.468-10.464,7.052-.013.013-.032.02-.057.02-.153,0-.23-.096-.23-.288,0-.051.019-.089.057-.115,3.488-2.351,6.414-5.437,8.777-9.257.831-1.38,1.431-2.625,1.802-3.737,2.9.869,4.35,1.565,4.35,2.089,0,.46-.562.722-1.687.786l-.632.939h8.011c1.124-1.125,1.821-1.687,2.089-1.687.294,0,1.054.498,2.281,1.495.703.587,1.054,1.029,1.054,1.322,0,.307-.141.537-.421.69-.243.141-.716.294-1.418.46-1.878,2.249-3.725,4.082-5.539,5.5,1.175.613,2.421,1.112,3.737,1.495,3.36,1.035,7.455,1.571,12.285,1.609.102,0,.153.058.153.173,0,.128-.051.211-.153.249-1.099.473-1.833,1.38-2.204,2.722-.153.703-.402,1.054-.748,1.054-.537,0-1.297-.115-2.28-.345-.639-.141-1.438-.364-2.396-.671.37.371.556.658.556.862,0,.243-.313.582-.939,1.016v1.304l.115,6.478c0,1.073-.748,1.609-2.242,1.609-1.073,0-1.61-.46-1.61-1.38v-.709h-13.185v.671c0,1.047-.773,1.571-2.319,1.571-.971,0-1.457-.473-1.457-1.418l.134-6.439-.039-3.718c-2.031.537-4.453.99-7.263,1.36-.141.026-.211-.076-.211-.307,0-.102.032-.159.096-.172,6.197-1.737,11.429-4.287,15.696-7.647-1.175-1.213-2.408-2.759-3.699-4.638v.002ZM130.938,42.274h10.234v-1.725c0-1.303-.038-2.363-.115-3.181,3.552.345,5.328.786,5.328,1.322,0,.396-.454.767-1.361,1.112v2.472h9.889c1.227-1.315,1.974-1.974,2.242-1.974.293,0,1.175.646,2.645,1.936.754.69,1.131,1.163,1.131,1.418,0,.345-.115.575-.345.69-.205.089-.601.134-1.188.134-.46,0-.843.115-1.15.345-1.278,1.073-2.549,1.955-3.814,2.645-.025.013-.057.019-.096.019-.179,0-.268-.076-.268-.229,0-.013.006-.032.019-.058.524-1.252.945-2.594,1.265-4.024h-24.3c.038.396.058.754.058,1.073,0,1.507-.32,2.695-.958,3.564-.562.754-1.278,1.131-2.146,1.131-.626,0-1.13-.218-1.514-.652-.32-.383-.479-.856-.479-1.418,0-.843.415-1.469,1.246-1.878,1.085-.562,1.808-1.15,2.166-1.763.332-.562.562-1.424.69-2.587.025-.115.108-.172.249-.172.102,0,.16.045.172.134.217.805.351,1.36.402,1.667h-.002ZM143.587,56.917c-2.415,1.686-5.13,3.009-8.145,3.967.46.307.875.594,1.246.862h12.802c.447-.537.786-.901,1.016-1.093-.677-.268-1.163-.466-1.457-.594-2.146-.945-3.967-1.993-5.461-3.143h-.001ZM149.796,70.063v-7.417h-13.185v7.417h13.185ZM138.067,49.558c1.29,1.609,2.792,3.015,4.503,4.216,1.789-1.521,3.373-3.239,4.753-5.155h-8.509l-.748.939h0Z"/><path class="cls-1" d="M169.754,72.912c-.572,1.521-1.171,2.77-1.797,3.747-.525.811-1.217,1.664-2.074,2.558-.019.027-.046.042-.083.042-.12,0-.18-.046-.18-.138,0-.019.004-.032.014-.042,1.761-3.502,2.973-7.388,3.637-11.655h-1.189c-.507,0-1.129.055-1.867.166l-.304-1.037c.728.147,1.415.221,2.06.221h1.618v-3.111c0-1.521-.046-2.733-.138-3.636,1.604.156,2.604.286,3,.387.359.093.539.24.539.442,0,.286-.332.558-.996.816v5.102h.457c.636-1.115,1.087-1.673,1.355-1.673.193,0,.677.387,1.452,1.161.396.424.595.719.595.885,0,.185-.125.277-.374.277h-3.484v2.751c2.037.774,3.056,1.784,3.056,3.028,0,.424-.138.765-.415,1.023-.24.221-.535.332-.885.332-.535,0-.83-.332-.885-.996-.138-1.097-.429-1.981-.871-2.655.009,1.77.032,4.71.069,8.822.028,2.895.042,4.719.042,5.476,0,.608-.489.912-1.466.912-.737,0-1.106-.272-1.106-.815,0-.24.037-2.023.11-5.352.064-2.866.102-5.212.111-7.038h-.001ZM183.373,73.907l.166,4.937c.074,2.276.111,3.834.111,4.673,0,.737-.198,1.323-.595,1.756-.47.525-1.253.788-2.351.788-.185,0-.323-.208-.415-.623-.111-.525-.396-.926-.857-1.203-.434-.267-1.194-.543-2.281-.83-.065-.019-.097-.078-.097-.18,0-.129.042-.193.125-.193.986.074,2.217.11,3.692.11.193,0,.291-.17.291-.512v-3.512c-2.111,1.613-4.065,2.862-5.863,3.747-.046.479-.106.793-.18.94-.074.12-.185.18-.332.18-.212,0-.779-1.056-1.701-3.167.719-.064,1.618-.244,2.696-.539,2.258-.627,4.051-1.203,5.379-1.729v-5.24h-3.194c-.608,0-1.364.056-2.268.166l-.318-1.037c.885.147,1.714.222,2.489.222h3.291v-3.277h-2.973c-.498,0-1.129.056-1.894.166l-.318-1.037c.755.147,1.475.222,2.157.222h3.028v-3.153h-4.107c-.415,0-.936.055-1.562.166l-.304-1.037c.654.148,1.258.221,1.811.221h6.222c.488-.995.908-1.986,1.258-2.973.313-.876.479-1.498.498-1.867,1.401.535,2.286.899,2.655,1.092.387.203.581.396.581.581,0,.203-.079.341-.235.415-.147.065-.447.125-.899.18-.986,1.051-1.986,1.908-3,2.572h3.816c.811-.94,1.332-1.41,1.562-1.41.194,0,.705.327,1.535.981.433.351.65.618.65.802,0,.185-.125.277-.373.277h-7.702v3.153h2.544c.894-1.005,1.452-1.507,1.673-1.507.184,0,.696.359,1.535,1.079.415.359.622.627.622.802,0,.185-.125.276-.373.276h-6.001v3.277h4.424c.913-1.152,1.494-1.729,1.742-1.729.185,0,.733.396,1.646,1.189.47.396.705.696.705.899,0,.193-.12.29-.359.29h-7.937c.488,1.65,1.235,3.093,2.24,4.328.378-.434.871-1.129,1.479-2.088.351-.562.631-1.147.844-1.756,1.76,1.014,2.641,1.682,2.641,2.005,0,.286-.447.429-1.341.429-.83.58-1.922,1.185-3.277,1.811.221.267.401.457.54.567,1.567,1.512,3.424,2.627,5.572,3.346.055.028.083.074.083.139,0,.12-.046.198-.138.235-.452.184-.793.4-1.023.649-.212.222-.41.553-.595.996-.166.47-.327.705-.484.705-.147,0-.465-.17-.954-.511-1.521-1.226-2.761-2.586-3.719-4.079-.922-1.419-1.683-3.479-2.282-6.181h-.001ZM179.502,77.17c0,.406-.148.747-.443,1.023-.249.24-.544.359-.885.359s-.572-.083-.691-.249c-.102-.147-.286-.594-.553-1.341-.434-1.069-1-1.917-1.701-2.544-.028-.019-.042-.042-.042-.069,0-.147.069-.207.207-.18,2.738.636,4.107,1.637,4.107,3h0ZM181.216,63.039c0,.452-.152.835-.457,1.148-.267.277-.576.415-.926.415-.387,0-.65-.11-.788-.332-.129-.194-.263-.613-.401-1.258-.175-.811-.599-1.641-1.272-2.489-.019-.037-.028-.069-.028-.097,0-.092.046-.138.138-.138h.042c1.383.369,2.36.783,2.932,1.244.507.415.76.917.76,1.507h0Z"/><path class="cls-1" d="M200.646,83.627c.426.471.639.942.639,1.413,0,.438-.126,1.046-.378,1.826-.27.869-.631,1.697-1.085,2.482-.707,1.318-1.346,2.277-1.918,2.877-.432.472-.909.707-1.43.707-.488,0-.923-.225-1.304-.673-.634-.701-.951-1.747-.951-3.138,0-.92.247-1.792.74-2.617.55-.97,1.327-1.775,2.331-2.415,1.206-.746,2.594-1.119,4.165-1.119,1.711,0,3.135.448,4.274,1.346,1.346,1.083,2.019,2.541,2.019,4.375,0,1.425-.527,2.608-1.582,3.551-.769.679-1.621,1.189-2.558,1.531-1.105.398-2.283.617-3.534.656-.252,0-.378-.059-.378-.177,0-.095.109-.168.328-.219,1.856-.41,3.334-1.161,4.434-2.255.583-.606.99-1.229,1.22-1.868.219-.595.328-1.307.328-2.137,0-1.458-.505-2.538-1.514-3.24-.763-.538-1.683-.85-2.76-.934-.118-.006-.258-.009-.421-.009-.269,0-.491.012-.665.034v.003ZM200.074,83.728c-1.167.168-2.16.628-2.979,1.38-.645.572-1.133,1.279-1.464,2.12-.197.488-.294,1.032-.294,1.633,0,.774.143,1.394.429,1.859.247.381.502.572.766.572.275,0,.67-.367,1.187-1.103,1.015-1.413,1.787-2.821,2.314-4.224.241-.6.362-1.088.362-1.464,0-.365-.107-.623-.32-.774h0Z"/><path class="cls-1" d="M218.628,82.864c-.222,1.836-.585,3.333-1.087,4.491-.573,1.322-1.421,2.508-2.544,3.561-.889.831-2.128,1.754-3.719,2.772-.024.011-.053.018-.088.018-.175,0-.263-.082-.263-.246,0-.023.006-.047.018-.07,1.965-2.14,3.216-4.403,3.754-6.789.409-1.895.614-4.497.614-7.807,0-1.941-.059-3.736-.175-5.386,1.392.55,2.807,1.211,4.245,1.982h16.508c1.029-1.099,1.667-1.649,1.912-1.649.269,0,.941.41,2.018,1.228.55.444.825.79.825,1.035s-.333.603-1,1.07l.105,6.508c0,.982-.672,1.474-2.017,1.474-1.006,0-1.509-.397-1.509-1.192v-1h-17.597ZM228.855,66.549v4.316h6.474c1.274-1.532,2.064-2.298,2.368-2.298.222,0,1.035.538,2.438,1.614.69.562,1.035.947,1.035,1.158,0,.234-.152.351-.457.351h-23.577c-.644,0-1.468.07-2.474.21l-.404-1.315c.959.188,1.86.281,2.702.281h8.403v-4.316h-10.631c-.69,0-1.555.07-2.596.211l-.386-1.315c.982.187,1.918.28,2.807.28h10.807v-1.263c0-1.45-.059-2.743-.176-3.877,3.263.315,4.895.725,4.895,1.228,0,.351-.409.685-1.228,1v2.912h8.614c1.368-1.602,2.199-2.403,2.491-2.403.257,0,1.093.562,2.508,1.684.749.585,1.123.982,1.123,1.193,0,.234-.158.351-.474.351h-14.263v-.002ZM218.698,82.04h7v-5.824h-6.789v1.263c-.035,1.708-.105,3.228-.21,4.561h0ZM236.224,82.04v-5.824h-7.192v5.824h7.192Z"/><path class="cls-1" d="M217.201,46.219c.414-.128.728-.232.943-.31.201-.073.485-.188.854-.346.045-.017.08.009.105.077.025.07.017.116-.026.138-.23.118-.363.271-.398.461-.052.24-.002.566.148.977l.35.98c.229.66.398,1.137.505,1.43.225.617.205,1.168-.061,1.654-.29.489-.73.842-1.322,1.058-.787.287-1.47.307-2.049.059-.414-.161-.719-.512-.917-1.051l-.54-1.524-.365-1c-.145-.396-.239-.637-.281-.724-.046-.094-.104-.169-.172-.227-.069-.063-.159-.088-.271-.076-.058.005-.186.033-.382.085-.042.009-.075-.019-.099-.083-.026-.073-.02-.117.021-.131.473-.15.842-.273,1.105-.369.295-.108.668-.255,1.117-.442.045-.017.081.012.107.084.024.065.014.109-.029.13-.193.093-.311.156-.353.188-.065.055-.102.125-.11.211-.026.137.06.478.258,1.021l.371,1.015.363,1.018c.152.416.289.712.411.89.14.205.313.352.519.441.373.165.778.167,1.217.007.576-.211.954-.515,1.132-.912.166-.356.149-.806-.05-1.35l-.292-.81c-.073-.201-.13-.357-.171-.47l-.372-.972c-.173-.442-.335-.729-.485-.862-.13-.114-.363-.131-.701-.051-.047.012-.082-.016-.106-.081-.026-.073-.017-.117.028-.134h-.002Z"/><path class="cls-1" d="M223.627,47.091c.086.424.156.735.209.932.006.042-.021.072-.08.089-.013.005-.024.008-.035.009-.032.004-.062-.011-.092-.047-.35-.512-.707-.742-1.072-.688-.422.062-.605.285-.549.671.031.214.263.375.694.485l.303.081c.453.125.763.258.932.398.197.162.318.401.364.715.05.341-.037.641-.261.9-.226.259-.557.421-.993.485-.404.06-.799.039-1.186-.061-.119-.261-.221-.545-.307-.854-.006-.042.017-.069.069-.083.026-.006.044-.01.055-.012.023-.003.046.011.067.043.187.267.404.465.649.597.217.119.423.164.619.136.246-.036.419-.14.521-.311.082-.139.108-.312.078-.518-.024-.169-.119-.301-.284-.395-.1-.058-.289-.13-.565-.216l-.296-.09c-.392-.118-.656-.236-.792-.353-.17-.15-.278-.376-.322-.677-.041-.277.041-.525.243-.744.208-.222.507-.361.897-.418.145-.021.343-.023.594-.006.09.005.181,0,.273-.012.079-.012.168-.03.267-.055h0Z"/><path class="cls-1" d="M226.71,48.542c-.027.101-.042.199-.044.295-.013.534.124.961.412,1.284.215.24.455.364.719.371.277.007.51-.041.696-.143.154-.087.307-.227.459-.421.02-.026.046-.039.081-.038.016,0,.041.012.075.034.042.036.062.064.062.085,0,.014-.015.042-.042.087-.208.302-.445.512-.712.631-.229.104-.504.151-.824.144-.6-.016-1.074-.238-1.42-.669-.295-.368-.436-.817-.422-1.348.015-.603.228-1.098.638-1.485.366-.34.804-.504,1.313-.491.518.013.927.227,1.229.64.214.296.324.604.329.925-.001.054-.016.1-.044.14-.024.026-.066.038-.125.037-.546-.03-1.072-.051-1.576-.064-.286-.007-.554-.011-.804-.013h0ZM226.758,48.247c.272.013.473.021.604.023.293.008.603.003.929-.013.048-.004.073-.046.075-.126-.009-.289-.071-.526-.186-.713-.118-.192-.28-.292-.485-.296-.232-.006-.437.11-.614.349-.149.202-.257.461-.324.776h.001Z"/><path class="cls-1" d="M232.232,48.291c.443-.525.846-.752,1.21-.681.144.028.253.077.327.146.059.058.082.122.068.193-.032.165-.114.301-.247.408-.11.09-.212.126-.306.107-.063-.012-.137-.061-.221-.145-.076-.069-.14-.109-.193-.12-.118-.022-.258.033-.42.167-.185.154-.306.376-.363.667l-.192.982c-.096.493-.133.78-.112.863.02.066.07.117.15.152.035.015.135.046.299.095.037.007.048.045.035.113-.011.055-.035.079-.071.071-.073-.017-.177-.04-.312-.069-.281-.065-.479-.109-.594-.132-.003,0-.319-.054-.948-.161-.042-.008-.057-.04-.046-.095.012-.061.039-.09.083-.09.166.016.268.021.307.015.066-.006.117-.034.151-.084.072-.092.154-.371.245-.837l.233-1.19c.06-.304.082-.528.066-.672-.011-.125-.081-.199-.209-.224-.013-.003-.023-.005-.031-.006l-.204-.023c-.021-.004-.035-.007-.043-.008-.042-.008-.06-.043-.053-.104.002-.013.005-.024.007-.035.009-.045.047-.067.115-.067.457-.003.91-.039,1.359-.109.068.014.097.045.087.095-.102.437-.161.697-.177.781v-.003Z"/><path class="cls-1" d="M236.186,48.386l.236-1.723c.004-.03.012-.058.021-.086.04-.113.113-.188.222-.223.102-.033.215-.027.341.017.149.052.249.132.302.241.042.089.047.181.014.276-.009.025-.021.051-.036.077l-.879,1.5c-.027.053-.072.068-.135.046-.07-.024-.1-.066-.088-.124h.002Z"/><path class="cls-1" d="M241.095,50.738c-.179.394-.305.687-.378.877-.02.038-.059.046-.117.025-.013-.004-.024-.008-.034-.013-.028-.015-.044-.046-.046-.092.018-.62-.137-1.016-.463-1.187-.378-.198-.658-.125-.838.22-.101.191-.008.458.277.8l.197.244c.293.367.466.657.521.869.063.247.021.511-.126.792-.16.305-.406.497-.739.575-.336.077-.699.014-1.089-.19-.361-.189-.669-.438-.924-.746.057-.28.141-.57.253-.87.02-.038.054-.047.104-.027.025.01.042.018.052.022.021.012.031.036.029.074-.005.326.054.614.175.864.105.224.246.382.421.474.22.115.421.133.604.054.148-.064.271-.188.367-.373.079-.151.08-.313.002-.487-.047-.106-.157-.275-.331-.507l-.187-.247c-.249-.326-.393-.576-.434-.751-.05-.222-.004-.468.137-.737.13-.248.341-.401.634-.459.298-.058.622.006.972.188.13.068.291.183.484.344.069.057.145.108.228.151.071.037.154.075.249.112h0Z"/><path class="cls-1" d="M245.398,57.921c.33-.147.561-.254.694-.321l1.008-.503c.268-.135.455-.255.562-.359.048-.046.079-.091.092-.135.029-.088-.032-.229-.182-.421-.021-.032-.011-.068.029-.107.048-.046.086-.055.116-.024.153.179.327.369.523.569.175.18.343.339.501.479.037.038.032.081-.016.127-.042.041-.083.045-.125.01-.133-.105-.278-.16-.434-.164-.183.004-.465.087-.846.251l-1.474.674c-.124.057-.296.136-.518.238-.153.071-.29.134-.41.188-.302-.13-.463-.205-.484-.226-.022-.023-.028-.051-.016-.085.145-.279.313-.62.507-1.021l.699-1.5c.217-.488.329-.777.335-.865.001-.102-.069-.237-.21-.404-.024-.036-.016-.074.024-.113.048-.047.086-.055.116-.024.416.448.63.679.643.692.249.254.485.484.711.693.03.03.021.069-.027.116-.046.045-.082.054-.108.027-.196-.186-.337-.263-.422-.231-.015.007-.032.021-.051.039-.065.063-.194.3-.387.709l-.513,1.067c-.067.137-.18.346-.338.627v-.003Z"/><path class="cls-1" d="M250.834,59.765c.329.492.416,1.012.26,1.558-.134.471-.421.854-.861,1.147-.502.334-1.022.444-1.561.329-.481-.106-.868-.379-1.161-.818-.332-.497-.42-1.017-.266-1.56.13-.459.414-.834.852-1.126.501-.334,1.026-.444,1.575-.329.488.101.875.368,1.163.798h0ZM250.631,59.9c-.179-.269-.475-.368-.887-.298-.336.058-.704.219-1.101.484-.475.317-.792.634-.952.953-.146.296-.138.565.023.807.179.269.477.369.893.3.338-.056.703-.213,1.093-.474.482-.321.801-.64.959-.957.146-.296.137-.567-.028-.813v-.002Z"/><path class="cls-1" d="M251.635,64.164c.304-.137.509-.244.614-.321.088-.078.106-.174.055-.288-.011-.024-.02-.044-.026-.059l-.102-.187c-.009-.02-.016-.034-.02-.044-.013-.029.007-.059.061-.089.021-.012.035-.02.042-.023.037-.017.072,0,.107.053.282.37.579.722.891,1.056.026.059.014.099-.037.122-.495.2-.941.391-1.337.569l-.978.442c-.452.204-.711.342-.775.412-.041.053-.05.122-.03.206.009.04.041.133.095.278.011.036-.013.067-.072.094-.061.027-.099.024-.114-.01-.025-.062-.064-.155-.118-.28-.106-.26-.184-.446-.234-.558-.015-.032-.149-.311-.405-.836-.022-.049-.002-.087.059-.114.063-.029.104-.021.125.022.071.132.123.217.155.255.045.05.096.077.151.081.086.011.254-.04.502-.152l.325-.146,1.068-.483h-.002ZM255.169,62.957c.061.134.057.279-.01.435-.058.137-.147.234-.269.289-.136.062-.284.058-.444-.01-.138-.059-.232-.145-.284-.259-.062-.139-.061-.289.007-.451.058-.137.146-.233.266-.287.141-.063.291-.06.449.013.135.059.23.149.285.271h0Z"/><path class="cls-1" d="M254.715,68.359c.103.37.131.708.086,1.015-.026.234-.122.374-.286.42-.347.096-.553.028-.617-.203-.042-.151.078-.355.358-.61.188-.182.26-.352.216-.508-.088-.316-.329-.507-.724-.572-.328-.053-.724-.015-1.189.114-.514.143-.881.387-1.101.733-.17.266-.218.531-.145.796.067.242.173.428.317.56.119.108.291.206.517.292.036.009.057.026.063.049.005.018,0,.047-.017.088-.012.047-.031.075-.056.082-.013.003-.03.004-.05,0-.643-.171-1.051-.571-1.226-1.201-.158-.571-.083-1.08.224-1.528.267-.387.659-.652,1.175-.795.586-.163,1.125-.101,1.618.187.426.248.704.608.835,1.081h.002Z"/><path class="cls-1" d="M253.796,72.457c-.103-.015-.203-.017-.298-.008-.532.05-.94.237-1.226.562-.213.243-.307.495-.282.758.026.276.101.501.225.674.104.143.262.278.472.406.028.016.044.042.047.076.001.016-.007.042-.024.079-.031.046-.057.069-.078.071-.013,0-.043-.009-.091-.031-.324-.171-.561-.381-.711-.633-.13-.215-.21-.482-.24-.801-.057-.598.108-1.094.495-1.49.33-.337.759-.53,1.288-.58.6-.057,1.117.096,1.55.457.382.323.597.738.645,1.246.048.515-.115.948-.489,1.296-.269.248-.562.394-.879.437-.053.005-.101-.004-.144-.026-.029-.021-.046-.062-.051-.12-.036-.546-.077-1.07-.125-1.572-.026-.284-.055-.551-.083-.8h0ZM254.095,72.469c.02.271.037.473.049.603.027.292.068.6.123.921.01.048.055.067.134.06.285-.043.514-.133.686-.27.177-.14.256-.312.237-.517-.022-.231-.162-.42-.419-.567-.218-.124-.488-.201-.81-.229h0Z"/><rect class="cls-6" x="228.5" y="90.5" width="105" height="28"/><path class="cls-1" d="M333,91v27h-104v-27h104M334,90h-106v29h106v-29h0Z"/><rect class="cls-1" x="230" y="92" width="102" height="25"/><path class="cls-6" d="M248.139,101.987v.462h-3.153v-.462h3.153ZM247.85,105.355v2.427h-1.989v.388h-.495v-2.815h2.484ZM245.374,103.564v-.454h2.484v.454h-2.484ZM245.374,104.687v-.454h2.484v.454h-2.484ZM247.834,100.889v.454h-2.41v-.454h2.41ZM247.355,105.826h-1.494v1.486h1.494v-1.486ZM252.687,105.677v.512h-2.006v2.072h-.553v-2.072h-2.047v-.512h2.047v-1.263h-1.602v-.504h1.602v-1.197h-1.767v-.52h.99c-.115-.404-.371-.958-.627-1.387l.445-.173c.289.454.57,1.048.678,1.436l-.298.124h1.685c-.124-.058-.272-.124-.281-.124.231-.396.528-1.048.677-1.494l.636.24c-.024.058-.091.083-.173.083-.165.371-.438.916-.669,1.296h1.14v.52h-1.883v1.197h1.651v.504h-1.651v1.263h2.006Z"/><path class="cls-6" d="M257.901,104.257c-.157-.281-.339-.57-.521-.817l.421-.198c.389.52.801,1.222.958,1.676l-.445.215c-.042-.132-.107-.289-.19-.454l-.899.049v3.533h-.504v-3.508c-.471.017-.899.041-1.238.049-.008.066-.058.091-.115.107l-.148-.619h.61c.182-.214.38-.462.569-.727-.256-.371-.701-.85-1.098-1.197l.281-.363c.082.066.165.141.247.223.289-.487.628-1.156.817-1.635l.603.256c-.033.05-.082.066-.173.066-.231.479-.611,1.156-.925,1.618.215.215.404.429.536.619.372-.553.727-1.139.982-1.618l.586.281c-.032.042-.099.066-.189.066-.43.702-1.106,1.684-1.7,2.402,0,0,1.535-.024,1.535-.024ZM256.366,105.504c-.017.05-.066.083-.157.083-.115.702-.306,1.494-.562,1.981-.107-.074-.289-.157-.412-.215.239-.462.421-1.254.528-2.006,0,0,.603.157.603.157ZM258.14,107.105c-.074-.446-.306-1.131-.545-1.643l.43-.141c.247.521.486,1.181.577,1.626l-.462.157h0ZM258.784,101.253h3.806v6.893h-.528v-.388h-2.766v.454h-.512v-6.959ZM260.419,101.773h-1.123v2.46h1.123v-2.46ZM259.295,104.753v2.493h1.123v-2.493s-1.123,0-1.123,0ZM262.061,104.233v-2.46h-1.139v2.46h1.139ZM260.922,107.246h1.139v-2.493h-1.139v2.493Z"/><path class="cls-6" d="M266.449,107.798c-.256-.594-.354-1.824-.354-2.906,0-1.098.173-2.477.445-3.855l.801.157c-.017.083-.099.141-.214.149-.298,1.131-.479,2.6-.479,3.558,0,.627.009,1.255.074,1.56.182-.495.512-1.288.686-1.675l.371.347c-.272.561-.85,1.816-.85,2.204,0,.115.024.239.082.396l-.562.066h0ZM268.546,102.936c.693.008,1.387.017,2.08-.033-.033-.71-.058-1.321-.074-1.932l.833.025c-.008.083-.082.148-.214.173.008.528.024,1.064.041,1.692.652-.066,1.181-.182,1.618-.33l.074.578c-.396.124-.966.239-1.668.297.033.917.074,1.882.1,2.411.627.256,1.255.66,1.684,1.048l-.322.528c-.338-.338-.825-.702-1.337-.941-.008.702-.141,1.486-1.379,1.486-.966,0-1.609-.462-1.609-1.189,0-.842.851-1.213,1.609-1.213.256,0,.528.033.784.107-.024-.52-.074-1.387-.115-2.196-.256.016-.603.024-.842.024h-1.255l-.008-.537v.002ZM270.808,106.181c-.265-.083-.545-.149-.817-.149-.504,0-1.106.182-1.106.702,0,.462.495.694,1.098.694.611,0,.834-.297.834-.958l-.008-.289h-.001Z"/><path class="cls-6" d="M281.949,107.411c-.727.132-1.685.19-2.51.19-.693,0-1.296-.042-1.618-.107-.999-.223-1.428-.851-1.428-1.577,0-.636.354-1.271.842-1.767l.479.248c-.462.479-.727,1.007-.727,1.469,0,.479.322.917,1.032,1.073.289.066.776.099,1.346.099.801,0,1.758-.066,2.542-.223l.042.595ZM278.242,103.242c.43-.33,1.016-.735,1.461-.958v-.008c-.627.074-2.063.107-2.979.099,0-.157,0-.429-.009-.578.182.008,3.352.058,4.706-.264l.065.611c-.982.115-2.245.974-2.773,1.395l-.471-.297h0Z"/><path class="cls-6" d="M291.058,102.259c-1.072.272-2.566.446-3.549.479-.107,1.032-.256,1.882-.389,2.188.645-.52,1.644-.875,2.345-.875,1.23,0,1.981.66,1.981,1.775,0,1.643-1.659,2.196-4.343,2.262-.032-.157-.091-.404-.165-.545,2.369-.049,3.905-.454,3.905-1.7,0-.743-.495-1.255-1.453-1.255-.734,0-1.998.446-2.543,1.263l-.577-.272c.264-.297.536-1.478.66-2.831h-1.932v-.578c.347.008,1.362.008,1.981.008.032-.471.049-.999.049-1.494l.875.083c-.017.141-.115.165-.264.182-.017.413-.041.834-.074,1.222.875-.024,2.394-.214,3.385-.503l.106.594.002-.003Z"/><path class="cls-6" d="M296.264,102.367c-.033.083-.1.124-.215.14-.066,1.222-.223,2.262-.339,2.436h.009c.809-.603,2.072-1.016,3.038-1.016,1.271,0,2.063.652,2.047,1.808-.024,1.519-1.279,2.196-4.475,2.328-.041-.157-.115-.388-.206-.545,2.881-.124,4.037-.594,4.062-1.774.009-.792-.545-1.271-1.511-1.271-1.527,0-2.905.917-3.137,1.321l-.562-.272c.165-.157.454-1.634.471-3.252l.817.099v-.002ZM296.405,100.765c1.122.132,2.394.388,3.202.727l-.206.569c-.851-.363-2.08-.603-3.17-.751l.174-.545Z"/><polyline class="cls-3" points="306.669 105.171 319.25 105.171 315.243 102"/></g></g></svg>