<svg id="レイヤー_1" data-name="レイヤー 1" xmlns="http://www.w3.org/2000/svg" viewBox="0 0 497 93"><defs><style>.cls-1{fill:#f53402;}</style></defs><path class="cls-1" d="M56.261,13.03a16.371,16.371,0,0,0-.168,2.688V27.035a16.791,16.791,0,0,0,.168,2.708H53.132a15.877,15.877,0,0,0,.168-2.708V22.29H44.861v4.745a16.513,16.513,0,0,0,.168,2.708H41.9a15.824,15.824,0,0,0,.168-2.708v-11.3A16,16,0,0,0,41.9,13.03h3.129a17.089,17.089,0,0,0-.168,2.688V19.77H53.3V15.739a15.742,15.742,0,0,0-.168-2.709Z"/><path class="cls-1" d="M63.425,29.617a19.335,19.335,0,0,0-2.709.105,10.731,10.731,0,0,1,.546-2.687,10.362,10.362,0,0,1,2.876-4.115A28.919,28.919,0,0,1,67.6,20.379c1.931-1.323,2.519-2.016,2.519-3.086,0-1.428-1.113-2.31-2.9-2.31a2.967,2.967,0,0,0-2.667,1.239,3.991,3.991,0,0,0-.651,1.932l-3-.357a6.3,6.3,0,0,1,1.449-3.36,6.1,6.1,0,0,1,4.807-1.868c3.675,0,5.943,1.763,5.943,4.64a4.26,4.26,0,0,1-1.492,3.359,26.072,26.072,0,0,1-3.527,2.583,18.285,18.285,0,0,0-2.5,2.1,5.062,5.062,0,0,0-1.2,1.89h5.879a22.064,22.064,0,0,0,3.066-.168v2.771c-.987-.084-1.827-.126-3.171-.126Z"/><path class="cls-1" d="M85.306,17a2.643,2.643,0,0,0-2.815-2.121,3.489,3.489,0,0,0-3.3,2.184,9.247,9.247,0,0,0-.86,3.716,4.87,4.87,0,0,1,4.492-2.1,5.461,5.461,0,0,1,4.872,2.5,6.041,6.041,0,0,1,.755,3.149c0,3.318-2.519,5.669-6.088,5.669A6.611,6.611,0,0,1,78.1,28.61c-1.554-1.344-2.436-3.864-2.436-7.034a11.443,11.443,0,0,1,1.722-6.488,5.96,5.96,0,0,1,5.123-2.5,5.788,5.788,0,0,1,4.3,1.6,6.091,6.091,0,0,1,1.322,2.142Zm-6.551,7.327a3.553,3.553,0,0,0,6.424,1.848,3.583,3.583,0,0,0,.483-1.911,3.031,3.031,0,0,0-3.317-3.3A3.388,3.388,0,0,0,78.755,24.326Z"/><path class="cls-1" d="M93.917,19.875a11.53,11.53,0,0,0-.063-1.218c.44.042.9.063,1.47.063H99.9V15.991H95.513a19.358,19.358,0,0,1-3.465,4.136,9.193,9.193,0,0,0-1.554-1.869,13.027,13.027,0,0,0,4.095-5.27,6.131,6.131,0,0,0,.5-1.532l2.5.5c-.126.252-.168.315-.314.63-.022.063-.232.5-.61,1.322h9.826a14.912,14.912,0,0,0,2.142-.105V16.1a15.447,15.447,0,0,0-2.142-.105H102.21V18.72h3.381a15.409,15.409,0,0,0,2.162-.105v2.226a19.755,19.755,0,0,0-2.1-.084H102.21v3.4h4.871a16.987,16.987,0,0,0,2.289-.126v2.394a17.828,17.828,0,0,0-2.289-.126H102.21v2.625a12.736,12.736,0,0,0,.126,2.246H99.775a15.3,15.3,0,0,0,.126-2.288V26.3H92.846a18.031,18.031,0,0,0-2.288.126V24.032a17.418,17.418,0,0,0,2.288.126h1.071ZM99.9,24.158v-3.4h-3.78v3.4Z"/><path class="cls-1" d="M122.2,12.107a23.923,23.923,0,0,0-.146,3.254c0,.294,0,.357.02,1.365a22.7,22.7,0,0,0,6.152-.714l.211,2.54c-.42.021-.42.021-1.365.126a45.277,45.277,0,0,1-4.934.378c.041,1.638.084,2.583.23,4.641a15.473,15.473,0,0,1,3.276,1.427,28.253,28.253,0,0,1,2.709,1.785c.272.189.377.273.629.42L127.347,29.7a8.351,8.351,0,0,0-1.491-1.385,13.223,13.223,0,0,0-2.772-1.722c-.272-.147-.44-.231-.672-.378a4.89,4.89,0,0,1,.042.672c0,2.351-1.658,3.59-4.787,3.59-2.141,0-3.633-.609-4.409-1.805a3.786,3.786,0,0,1-.524-1.869c0-2.184,2.162-3.758,5.185-3.758a7.761,7.761,0,0,1,1.953.21.471.471,0,0,1-.021-.21c-.084-.756-.274-6.488-.294-9.113a12.378,12.378,0,0,0-.105-1.847Zm-4.241,13.185c-1.575,0-2.624.63-2.624,1.554a1.148,1.148,0,0,0,.713,1.092,3.76,3.76,0,0,0,1.533.315,3,3,0,0,0,1.91-.567,1.473,1.473,0,0,0,.442-1.176c0-.378-.022-.966-.022-.987A6.8,6.8,0,0,0,117.961,25.292Z"/><path class="cls-1" d="M138.941,12.212a20.477,20.477,0,0,0-.756,4.052c-.148.882-.232,1.6-.274,2.1h.063a4.244,4.244,0,0,0,.127-.461,8.486,8.486,0,0,1,1.322-2.5,5.011,5.011,0,0,1,3.989-2.142A4.4,4.4,0,0,1,147,15.151a8.8,8.8,0,0,1,1.512,5.585,8.825,8.825,0,0,1-5.418,8.629,17.885,17.885,0,0,1-4.115,1.176,8.026,8.026,0,0,0-1.239-2.477,12.248,12.248,0,0,0,4.6-1.2c2.436-1.239,3.549-3.234,3.549-6.425,0-3.023-1.008-4.7-2.814-4.7a3.125,3.125,0,0,0-2.267,1.113,10.064,10.064,0,0,0-2.646,6.781v.441l-2.519.043a1.643,1.643,0,0,0,.021-.274v-.4c-.021-.609-.063-2.163-.063-2.583,0-1.7.126-4.031.294-5.48l.314-2.6a4.815,4.815,0,0,0,.064-.714Z"/><path class="cls-1" d="M158.953,20.841a20.614,20.614,0,0,0-2.288.105V19.455a18.688,18.688,0,0,1-2.289,1.2,13.237,13.237,0,0,0-1.386-2.226,20.32,20.32,0,0,0,5.082-2.771,18.805,18.805,0,0,0,2.309-2.2,8.809,8.809,0,0,0,1.134-1.511h2.666a15.318,15.318,0,0,0,3.738,3.716,19.009,19.009,0,0,0,5.144,2.667,9.9,9.9,0,0,0-1.344,2.414c-.944-.441-1.554-.777-2.5-1.323v1.533A20.458,20.458,0,0,0,167,20.841h-2.961v2.373h3.4a19.686,19.686,0,0,0,2.309-.1V25.46a20.766,20.766,0,0,0-2.309-.105h-3.4V28.19h5.459a22.087,22.087,0,0,0,2.666-.126V30.52a18.4,18.4,0,0,0-2.644-.147h-13.1a18.118,18.118,0,0,0-2.625.147V28.064a21.348,21.348,0,0,0,2.688.126h5.207V25.355H158.6a20.928,20.928,0,0,0-2.331.105V23.109a17.539,17.539,0,0,0,2.331.1h3.086V20.841ZM167.1,18.72c.44,0,.588,0,.987-.021a18.811,18.811,0,0,1-5.166-4.766,16.823,16.823,0,0,1-5.059,4.766c.419.021.608.021.923.021Z"/><path class="cls-1" d="M187.932,16.831h3.107a14.466,14.466,0,0,0,1.868-.084,11.67,11.67,0,0,0-.1,1.952v3.78a12.855,12.855,0,0,0,.1,2.015,12.732,12.732,0,0,0-1.994-.105H188.94a13.208,13.208,0,0,0,5.249,3.759,6.335,6.335,0,0,0-1.3,2.162,13.59,13.59,0,0,1-3-2.183,9.15,9.15,0,0,1-2.036-2.478c.042.4.084,1.092.084,1.533v2.057a9.673,9.673,0,0,0,.126,1.911h-2.33a9.714,9.714,0,0,0,.125-1.911V27.2c0-.5.021-.966.063-1.449a14.364,14.364,0,0,1-4.871,4.64,6.658,6.658,0,0,0-1.364-1.994,12.9,12.9,0,0,0,3.359-2.184,9.8,9.8,0,0,0,1.721-1.827h-1.637a10.9,10.9,0,0,0-1.847.105,17.191,17.191,0,0,0,.084-1.994V21.282a6.425,6.425,0,0,0-.946,1.764,10.076,10.076,0,0,1-1.365-2.688c.084.882.127,1.89.127,2.856v5.375a20.628,20.628,0,0,0,.125,2.582h-2.436a17.138,17.138,0,0,0,.148-2.582v-5c.02-.231.02-.42.02-.609a13.852,13.852,0,0,1,.106-1.617,15.5,15.5,0,0,1-2.184,4.913,10.354,10.354,0,0,0-1.029-2.331,15.269,15.269,0,0,0,1.932-3.632,19.691,19.691,0,0,0,.923-2.792H175.8a8.19,8.19,0,0,0-1.406.084V15.361a6.141,6.141,0,0,0,1.406.1h1.2v-1.6a14.468,14.468,0,0,0-.1-2.2h2.393a18.825,18.825,0,0,0-.1,2.183v1.617h.566c.358,0,.588-.021.862-.042V13.555a15.372,15.372,0,0,0,2.2.126h3.044v-.314a8.321,8.321,0,0,0-.125-1.6h2.33a6.148,6.148,0,0,0-.126,1.6v.314h3.548a15.159,15.159,0,0,0,2.163-.126V15.8A16.279,16.279,0,0,0,191.5,15.7h-3.569ZM182.788,15.7c-.839,0-1.343.021-1.911.063v1.827a8.51,8.51,0,0,0-1.092-.063H179.3a10.021,10.021,0,0,0,2.059,3.443v-2.31a15.862,15.862,0,0,0-.084-1.91,15.8,15.8,0,0,0,1.931.084h2.645V15.7Zm.609,2.939V19.77h2.456V18.636Zm0,2.772v1.176h2.456V21.408Zm4.535-1.638H190.7V18.636h-2.771Zm0,2.814h2.792V21.408h-2.792Z"/><path class="cls-1" d="M197.489,30.016c-.021-.378-.042-.5-.105-.987a36.708,36.708,0,0,1-.546-6.277,40.306,40.306,0,0,1,.861-8.21,13.734,13.734,0,0,0,.315-1.952l2.771.293a28.955,28.955,0,0,0-1.323,6.278,35.237,35.237,0,0,0-.314,4.64c0,.462-.022.63-.042,1.155a21.21,21.21,0,0,1,1.092-2.771l1.679.756a17.227,17.227,0,0,0-1.868,6.361c0,.126,0,.294.02.567Zm8.944-8.293a4.751,4.751,0,0,0-1.49,3.023c0,1.2,1.154,1.827,3.337,1.827a14.768,14.768,0,0,0,5-.8l.208,2.667a7.09,7.09,0,0,0-.86.126,25.878,25.878,0,0,1-4.347.4c-2.6,0-4.283-.588-5.206-1.827a3.517,3.517,0,0,1-.629-2.058,6.856,6.856,0,0,1,1.931-4.325Zm-3.464-6.95a15.133,15.133,0,0,0,3.884.336,23.143,23.143,0,0,0,5.711-.567l.127,2.541c-.168.021-.484.063-1.492.189a37.586,37.586,0,0,1-4.493.252,24.917,24.917,0,0,1-3.779-.231Z"/><path class="cls-1" d="M217,14.9a25.073,25.073,0,0,0-.126-2.54,19.667,19.667,0,0,0,2.478.105H232.6a21.536,21.536,0,0,0,2.476-.105,21.643,21.643,0,0,0-.125,2.519v13.48a17.091,17.091,0,0,0,.125,2.708h-2.392v-1.2H219.266v1.2h-2.394A19.876,19.876,0,0,0,217,28.337Zm2.268,12.934h13.417V14.5H219.266ZM222.415,17.8a11.74,11.74,0,0,0-1.91.105V15.781a11.43,11.43,0,0,0,1.91.1h7.139a11.7,11.7,0,0,0,1.953-.1V17.9a12.169,12.169,0,0,0-1.953-.105h-2.666V19.98h2.162a9.67,9.67,0,0,0,1.806-.105v2.079a8.521,8.521,0,0,0-1.344-.105,10.283,10.283,0,0,1,1.323,2.037l-1.135.629a10.783,10.783,0,0,0,2.059-.126v2.184a13.472,13.472,0,0,0-1.975-.105h-7.6a12.423,12.423,0,0,0-2,.105V24.389a10.425,10.425,0,0,0,2,.126H224.7V21.849H222.9a10.218,10.218,0,0,0-1.805.105V19.875a9.79,9.79,0,0,0,1.805.105H224.7V17.8Zm4.473,6.718h2.267a9.181,9.181,0,0,0-1.323-2.1l1.113-.567h-2.057Z"/><path class="cls-1" d="M243.017,24.662a14.1,14.1,0,0,1-1.092,1.281,8.343,8.343,0,0,0-1.219-1.449,14.353,14.353,0,0,1-2.056,6.572,9.357,9.357,0,0,0-1.68-2.058,9.538,9.538,0,0,0,1.2-2.771,29.672,29.672,0,0,0,.652-6.992c0-.84-.043-1.616-.106-2.309a21.375,21.375,0,0,0,2.394.105h2.163a6.791,6.791,0,0,0-.715-1.785H240.77a17.744,17.744,0,0,0-2.142.084V13.073a15.472,15.472,0,0,0,2.289.125h5.144v-.21a9.874,9.874,0,0,0-.105-1.322h2.582a6.579,6.579,0,0,0-.126,1.322v.21h5.144a17.007,17.007,0,0,0,2.373-.125V15.34a20.039,20.039,0,0,0-2.246-.084h-1.617a17.93,17.93,0,0,1-.882,1.785h2.771a16.579,16.579,0,0,0,2.352-.105v2.141a17.7,17.7,0,0,0-2.352-.105H240.98a43.567,43.567,0,0,1-.19,4.892,8.064,8.064,0,0,0,1.471-1.973,12.041,12.041,0,0,0,1.092-2.688l2.12.483c-.21.525-.21.525-.462,1.134h2.351a7.374,7.374,0,0,0-.083-1.344h2.393a8.186,8.186,0,0,0-.084,1.344h3.779a11.929,11.929,0,0,0,2.016-.105v2.226a17.534,17.534,0,0,0-2.036-.084h-3.759v1.658h3.149a13.831,13.831,0,0,0,1.89-.084v2.058a15.277,15.277,0,0,0-1.89-.084h-3.149v2.037h4.745a16.5,16.5,0,0,0,1.994-.105v2.246a14.982,14.982,0,0,0-2.056-.126H242.617a16.415,16.415,0,0,0-2.015.105V28.337a12.285,12.285,0,0,0,1.973.105h4.809V26.405h-2.435a17.688,17.688,0,0,0-1.932.084Zm1.092-1.8a11.558,11.558,0,0,1-.967,1.6,17.58,17.58,0,0,0,1.785.063h2.457V22.857Zm4.765-5.816a10.427,10.427,0,0,0,.8-1.785h-4.7a14.376,14.376,0,0,1,.714,1.785Z"/><path class="cls-1" d="M264.269,17.608a10.728,10.728,0,0,0,2.876,3.737,8.919,8.919,0,0,0-1.156,1.953,12.125,12.125,0,0,1-1.972-2.9,29.285,29.285,0,0,1,.146,3.486v4.808a19.634,19.634,0,0,0,.126,2.435h-2.435a19.4,19.4,0,0,0,.126-2.435V24.536c.021-.8.021-.8.021-1.154a17.387,17.387,0,0,1,.125-2.163,17.378,17.378,0,0,1-2.771,5.48,8.775,8.775,0,0,0-1.176-2.394,16.3,16.3,0,0,0,2.541-4.115,22.213,22.213,0,0,0,1.008-2.582h-1.05a12.853,12.853,0,0,0-1.911.126V15.445a12.918,12.918,0,0,0,2,.105h1.218V13.765a14.58,14.58,0,0,0-.126-2.057h2.435a13.4,13.4,0,0,0-.126,2.057V15.55H265.3a13.18,13.18,0,0,0,1.638-.105v2.268a13.652,13.652,0,0,0-1.617-.105Zm5.459.042a20.044,20.044,0,0,0-2.247.105V15.487a21.022,21.022,0,0,0,2.267.105h3.024v-1.3a17.724,17.724,0,0,0-.148-2.519h2.541a22.564,22.564,0,0,0-.105,2.519v1.3h.631a13.147,13.147,0,0,0,2.078-.126v2.31a13.709,13.709,0,0,0-2.078-.126h-.61l.063,10.855c0,1.133-.252,1.721-.861,2.015a5.623,5.623,0,0,1-2.225.273c-.694,0-1.386-.021-2.121-.084a7.743,7.743,0,0,0-.545-2.288,12.782,12.782,0,0,0,2.308.21c.967,0,1.156-.084,1.156-.525l-.042-7.832A21.194,21.194,0,0,1,270.84,23.4a19.9,19.9,0,0,1-4.011,3.947,10.094,10.094,0,0,0-1.532-1.869,17.879,17.879,0,0,0,6.635-7.831Z"/><path class="cls-1" d="M282.329,29.617a19.354,19.354,0,0,0-2.709.105,10.776,10.776,0,0,1,.546-2.687,10.372,10.372,0,0,1,2.876-4.115,29.008,29.008,0,0,1,3.465-2.541c1.932-1.323,2.52-2.016,2.52-3.086,0-1.428-1.114-2.31-2.9-2.31a2.967,2.967,0,0,0-2.667,1.239,3.992,3.992,0,0,0-.65,1.932l-3-.357a6.3,6.3,0,0,1,1.448-3.36,6.1,6.1,0,0,1,4.808-1.868c3.674,0,5.942,1.763,5.942,4.64a4.262,4.262,0,0,1-1.491,3.359,26.209,26.209,0,0,1-3.528,2.583,18.408,18.408,0,0,0-2.5,2.1,5.088,5.088,0,0,0-1.2,1.89h5.879a22.064,22.064,0,0,0,3.066-.168v2.771c-.987-.084-1.827-.126-3.17-.126Z"/><path class="cls-1" d="M296.714,29.2l-1.68-1.68,3.926-3.926-3.947-3.927,1.68-1.679,3.947,3.926,3.927-3.926,1.679,1.679-3.926,3.927,3.926,3.926-1.679,1.68-3.927-3.927Z"/><path class="cls-1" d="M322.269,25.88a16.22,16.22,0,0,0-2.1-.147h-.756v1.491a13.031,13.031,0,0,0,.168,2.393H316.6a13.376,13.376,0,0,0,.168-2.435V25.733h-5.816c-1.239,0-1.911.021-2.625.084V23.235c.714-.777.946-1.05,1.68-1.932l4.977-6.089a20.074,20.074,0,0,0,1.742-2.31h2.834a29.767,29.767,0,0,0-.147,3.549V23.34h.735a13.843,13.843,0,0,0,2.121-.147Zm-5.481-6.866a23.745,23.745,0,0,1,.106-2.519c-.42.609-.672.945-1.428,1.868l-4.031,5h5.353Z"/><path class="cls-1" d="M325.127,14.269a25.357,25.357,0,0,0,4.871.273,8.286,8.286,0,0,0,.84-2.6l2.751.294a15.59,15.59,0,0,0-.84,1.889c-.105.231-.147.294-.189.378.168-.021.168-.021,1.322-.084a28.37,28.37,0,0,0,5.5-.714l.146,2.394c-.587.042-.587.042-1.658.168-1.533.189-4.2.357-6.32.42a10.86,10.86,0,0,1-1.932,2.792l.022.042c.146-.105.146-.105.42-.315a5.069,5.069,0,0,1,2.96-.945,2.764,2.764,0,0,1,3,2.226q2.424-.882,3.212-1.134a6.565,6.565,0,0,0,1.553-.63l.987,2.415a18.532,18.532,0,0,0-2.33.567q-.441.126-3.15,1.071V23c.021.546.021.546.021.839v.84c-.021.357-.021.546-.021.693a8.431,8.431,0,0,0,.064,1.113l-2.436.063a16.653,16.653,0,0,0,.125-2.435v-.505a12.858,12.858,0,0,0-2.016,1.092,2.212,2.212,0,0,0-1.091,1.722c0,1.092,1.007,1.533,3.548,1.533a18.239,18.239,0,0,0,6.173-.882l.21,2.708a6.188,6.188,0,0,0-.966.084,38.063,38.063,0,0,1-5.375.378,9.017,9.017,0,0,1-4.682-.882,3.043,3.043,0,0,1-1.532-2.708,3.345,3.345,0,0,1,.923-2.331,10.281,10.281,0,0,1,4.515-2.96,1.153,1.153,0,0,0-1.281-1.134c-1.218,0-2.688.735-4.305,2.163a9.46,9.46,0,0,0-1.826,1.91l-1.91-1.889a12.915,12.915,0,0,0,1.889-1.869,27.794,27.794,0,0,0,2.519-3.59,1.027,1.027,0,0,1,.168-.273c-.084,0-.357.021-.357.021-.335,0-2.183-.042-2.645-.042-.4-.021-.4-.021-.588-.021a2.327,2.327,0,0,0-.336.021Z"/><path class="cls-1" d="M349.193,17.566a10.379,10.379,0,0,0,2.037,3.38,10.417,10.417,0,0,0-.924,1.89,13.179,13.179,0,0,1-1.26-2.562c.041,1.47.063,2.016.063,2.835v5.522a20.453,20.453,0,0,0,.126,2.561h-2.394a17.054,17.054,0,0,0,.146-2.561V24.473c0-.546.022-1.028.127-2.855a16.288,16.288,0,0,1-1.806,4.64,8.839,8.839,0,0,0-1.049-2.31,13.315,13.315,0,0,0,1.7-3.59,26.437,26.437,0,0,0,.777-2.792h-.609a7.947,7.947,0,0,0-1.386.084V15.466a5.844,5.844,0,0,0,1.386.105h.84v-1.7a13.377,13.377,0,0,0-.126-2.183h2.373a14.658,14.658,0,0,0-.105,2.183v1.7h.4a7.023,7.023,0,0,0,1.239-.084v2.142a10.571,10.571,0,0,0-1.2-.063Zm5.585,9.154a12.826,12.826,0,0,1-3.464,3.947,7.85,7.85,0,0,0-1.68-1.428,8.037,8.037,0,0,0,1.932-1.511,7.675,7.675,0,0,0,1.364-1.848Zm3.463,2.541a1.5,1.5,0,0,1-.544,1.364,3.724,3.724,0,0,1-2,.336c-.315,0-.315,0-1.491-.042a7.585,7.585,0,0,0-.4-2.1,8.075,8.075,0,0,0,1.469.167c.693,0,.8-.062.8-.44V25.775h-3.254a20.351,20.351,0,0,0-2.2.105V23.8a15.054,15.054,0,0,0,2.184.105h8.944a15.4,15.4,0,0,0,2.184-.105V25.88a15.447,15.447,0,0,0-2.142-.105h-3.549ZM361.37,15.4a17.431,17.431,0,0,0,1.932-.084,8.766,8.766,0,0,0-.084,1.449v1.994a11.043,11.043,0,0,0,.084,1.6,17.919,17.919,0,0,0-1.994-.084h-8.042a17.687,17.687,0,0,0-2,.084,10.91,10.91,0,0,0,.084-1.512V16.768a13.25,13.25,0,0,0-.084-1.449,16.038,16.038,0,0,0,1.931.084h1.534V14.4h-1.7a17.337,17.337,0,0,0-2.392.126V12.38a18.075,18.075,0,0,0,2.372.126h8.44a19.772,19.772,0,0,0,2.457-.126V14.5a21.354,21.354,0,0,0-2.31-.105h-1.868V15.4Zm-9.6,5.627a14.762,14.762,0,0,0,2.121.105h6.7a20.4,20.4,0,0,0,2.143-.084v2.016a13.276,13.276,0,0,0-2-.105h-6.886a13.8,13.8,0,0,0-2.079.105Zm1.407-3.947v1.49h1.554v-1.49Zm4.807-2.688h-1.511V15.4h1.511Zm-1.511,4.178h1.511v-1.49h-1.511Zm4.367,7.328a10.325,10.325,0,0,0,3.527,2.919,7.644,7.644,0,0,0-1.427,1.742,11.823,11.823,0,0,1-3.737-3.632Zm-1.112-7.328h1.532v-1.49h-1.532Z"/><path class="cls-1" d="M382.664,22.332a17.675,17.675,0,0,0,2-.084v2.036a17.791,17.791,0,0,0-2.121-.084H376.3v1.3h6.047a17.852,17.852,0,0,0,2.373-.105v2.331a21.3,21.3,0,0,0-2.582-.126H376.3v1.176a20.221,20.221,0,0,0,.127,2.456h-2.667a21.384,21.384,0,0,0,.126-2.435V27.6h-5.564a21.071,21.071,0,0,0-2.583.126V25.376a15.971,15.971,0,0,0,2.268.126h5.879V24.2c-.693,0-1.2.021-1.722.063.042-.651.064-1.028.064-1.994V19.5c0-.63.02-1.3.041-1.763a7.129,7.129,0,0,1-1.26,1.385,6.971,6.971,0,0,0-.8-1.2L368.975,19.6a16.468,16.468,0,0,0-3.464-2.2L367,15.7a21.207,21.207,0,0,1,2.688,1.533,12.827,12.827,0,0,0,4.3-5.753l2.331.609c-.085.147-.169.294-.211.357-.356.608-.356.608-.9,1.448h2.667a8.676,8.676,0,0,0,1.176-2.33l2.163.567c-.105.168-.189.315-.231.4-.4.671-.462.755-.882,1.364h2.162a16.005,16.005,0,0,0,2.121-.126v2.058a15.485,15.485,0,0,0-1.826-.084h-2.793v1.05h2.183a17.053,17.053,0,0,0,1.87-.063v1.847c-.526-.042-.924-.062-1.87-.062h-2.183v1.028h2.183c1.008,0,1.344-.021,1.87-.063v1.848c-.568-.042-.967-.063-1.87-.063h-2.183v1.071Zm-11.128-.987a23.879,23.879,0,0,1-4.577,3.674L365.6,22.941a7.363,7.363,0,0,0,1.049-.546,16.739,16.739,0,0,0,3.8-2.961Zm-3.527-9.7a14.887,14.887,0,0,1,3.381,2.183L370,15.7a11.036,11.036,0,0,0-3.464-2.33Zm9.637,5.144v-1.05h-3.233v1.05Zm-3.233,2.75h3.233V18.511h-3.233Zm0,2.793h3.233V21.261h-3.233Z"/><path class="cls-1" d="M388.547,22.5c0-.651,0-.987.064-2.331a16.849,16.849,0,0,1-1.471,2.2,13.136,13.136,0,0,0-.965-2.5,17.02,17.02,0,0,0,3.926-8.356l2.393.567a33.582,33.582,0,0,1-1.721,4.661V28.694a22.875,22.875,0,0,0,.1,2.435h-2.457a20.989,20.989,0,0,0,.126-2.456Zm10.918,1.071a8.5,8.5,0,0,1-1.176,3.212c2.226,1.218,4.367,1.7,7.874,1.848a11.277,11.277,0,0,0-.9,2.33,17.924,17.924,0,0,1-8.273-2.6,11.87,11.87,0,0,1-4.681,2.687,9.716,9.716,0,0,0-1.3-1.973,10.615,10.615,0,0,0,4.263-2.016,9.671,9.671,0,0,1-1.3-1.449c-.273-.357-.441-.546-.65-.777l1.826-.966a5.949,5.949,0,0,0,1.386,1.68,6.587,6.587,0,0,0,.735-1.973h-3.087a13.922,13.922,0,0,0-1.7.083,15.011,15.011,0,0,0,.084-1.763V18.972a12.5,12.5,0,0,0-.084-1.763c.629.042.944.063,1.952.063h3.255l-.022-1.512H394.2a14.271,14.271,0,0,0-2.016.105V13.6a17.953,17.953,0,0,0,2.268.126h3.212a16.512,16.512,0,0,0-.126-2.12h2.416a14.442,14.442,0,0,0-.064,2.12h3.653a19.258,19.258,0,0,0,2.373-.126v2.268a15.541,15.541,0,0,0-2.1-.105h-3.927v1.512h3.087c.944,0,1.385-.021,1.973-.063-.041.525-.063,1.049-.063,1.826v2.709c0,1.008.022,1.407.063,1.91a18.058,18.058,0,0,0-2.037-.083Zm-4.724-4.284v2.289h2.792c.084-.945.084-1.113.126-2.289Zm5.1,0c-.042,1.092-.063,1.491-.146,2.289h2.98V19.287Z"/><path class="cls-1" d="M411.542,24.494a14.1,14.1,0,0,1-2.142,6.635,12.591,12.591,0,0,0-2.037-1.659,9.576,9.576,0,0,0,1.533-3.548,21.125,21.125,0,0,0,.42-3.212c.105-1.764.189-4.745.189-7.223a28.335,28.335,0,0,0-.105-3.044c.735.063,1.281.084,2.415.084h11.778a23.353,23.353,0,0,0,2.415-.084,23.711,23.711,0,0,0-.084,2.372v13.8c0,1.742-.63,2.183-3.023,2.183-.652,0-1.722-.042-2.352-.084a8.436,8.436,0,0,0-.588-2.183c1.05.105,1.974.168,2.646.168.861,0,1.049-.084,1.049-.525V24.494h-5.039v3.444a18.433,18.433,0,0,0,.1,2.5h-2.477a17.32,17.32,0,0,0,.125-2.477V24.494Zm4.828-4.955h-4.639c0,.609-.021,1.029-.021,1.323-.021.987-.021,1.134-.021,1.554h4.681Zm0-4.808h-4.576v2.163l-.021.588h4.6Zm7.286,2.751V14.731h-5.039v2.751Zm0,4.934V19.539h-5.039v2.877Z"/><path class="cls-1" d="M435.734,27.455a3.549,3.549,0,1,1-3.549-3.549A3.562,3.562,0,0,1,435.734,27.455Zm-5.459,0a1.91,1.91,0,1,0,1.91-1.911A1.921,1.921,0,0,0,430.275,27.455Z"/><path class="cls-1" d="M95,45.036a16.992,16.992,0,0,0-.091-1.845,13.806,13.806,0,0,0,1.756.075h8.969a15.057,15.057,0,0,0,1.785-.075,16.154,16.154,0,0,0-.09,1.845V54.17a14.85,14.85,0,0,0,.09,2.055h-1.05V55.31H95.958v.915H94.907A14.327,14.327,0,0,0,95,54.17Zm.96,9.42h10.409V44.121H95.958Zm2.565-8.115a9.038,9.038,0,0,0-1.411.075v-.96a7.29,7.29,0,0,0,1.411.09h5.3a9.162,9.162,0,0,0,1.469-.09v.96a9.538,9.538,0,0,0-1.455-.075h-2.309v2.325h1.844a7.774,7.774,0,0,0,1.351-.075v.945a8.1,8.1,0,0,0-1.351-.075h-1.844v2.745h2.519a9.995,9.995,0,0,0,1.471-.091v.99a10.464,10.464,0,0,0-1.471-.089H98.327a10.513,10.513,0,0,0-1.484.089v-.99a10.044,10.044,0,0,0,1.484.091h2.266V49.461H98.987a8.27,8.27,0,0,0-1.364.075v-.945a7.837,7.837,0,0,0,1.364.075h1.606V46.341Zm4.814,3.39a9.192,9.192,0,0,1,1.41,1.785l-.7.45a8.176,8.176,0,0,0-1.335-1.86Z"/><path class="cls-1" d="M115.518,51.1c-.87,1.979-1.755,2.88-2.835,2.88-1.425,0-2.49-1.561-2.49-3.66a6.092,6.092,0,0,1,6.419-6.135,5.805,5.805,0,0,1,4.125,1.485,5.018,5.018,0,0,1,1.456,3.66,5.461,5.461,0,0,1-3.436,5.175,11.667,11.667,0,0,1-2.279.689,2.4,2.4,0,0,0-.526-1,8.981,8.981,0,0,0,2.5-.705,4.525,4.525,0,0,0,2.655-4.2,3.955,3.955,0,0,0-2.384-3.765,4.326,4.326,0,0,0-1.741-.375A22.447,22.447,0,0,1,115.518,51.1Zm-1.845-5.235a5.185,5.185,0,0,0-2.445,4.47c0,1.44.63,2.55,1.44,2.55.63,0,1.23-.706,1.875-2.175a20.6,20.6,0,0,0,1.364-5.55A4.733,4.733,0,0,0,113.673,45.861Z"/><path class="cls-1" d="M130.593,44.136c-3,.2-3,.2-4.68.24a2.366,2.366,0,0,0-.375-.84h.765a49.309,49.309,0,0,0,7.439-.6,8.185,8.185,0,0,0,1.906-.465l.66.855c-.136.03-.585.1-1.891.345-.66.12-1.769.27-2.909.375v1.245h4.77a10.647,10.647,0,0,0,1.514-.09v.975a10.225,10.225,0,0,0-1.514-.09h-4.77v1.02h3.524a9.135,9.135,0,0,0,1.2-.06,7.985,7.985,0,0,0-.061,1.035v2.685a7.322,7.322,0,0,0,.061,1.02,9.481,9.481,0,0,0-1.215-.06h-3.51v1.139h3.779a10.526,10.526,0,0,0,1.515-.089v1a10.662,10.662,0,0,0-1.515-.09h-3.779v1.26h4.829a10.882,10.882,0,0,0,1.53-.09v1.02a10.882,10.882,0,0,0-1.53-.09H126.063a10.516,10.516,0,0,0-1.515.09V54.86a10.516,10.516,0,0,0,1.515.09h4.53V53.69H127.1a10.29,10.29,0,0,0-1.5.09v-1a10.6,10.6,0,0,0,1.5.089h3.495V51.726h-3.24a9.225,9.225,0,0,0-1.2.06,7.765,7.765,0,0,0,.06-1.02V48.081a7.983,7.983,0,0,0-.06-1.035,9.109,9.109,0,0,0,1.2.06h3.24v-1.02h-4.47a10.516,10.516,0,0,0-1.515.09V45.2a10.372,10.372,0,0,0,1.515.09h4.47Zm-3.45,3.7v1.2h3.45v-1.2Zm0,1.935v1.215h3.45V49.776Zm4.365-.735h3.734v-1.2h-3.734Zm0,1.95h3.734V49.776h-3.734Z"/><path class="cls-1" d="M144.108,50.526a7.906,7.906,0,0,0,.84-1.35h-2.49a15.762,15.762,0,0,0-1.725.06,10.282,10.282,0,0,0,.06-1.3v-1.08a11.507,11.507,0,0,0-.06-1.365,15.249,15.249,0,0,0,1.62.075h1.71V44.106h-2.625a11.723,11.723,0,0,0-1.665.075v-.99a11.161,11.161,0,0,0,1.695.09h9.465a11.275,11.275,0,0,0,1.71-.09v.99a12,12,0,0,0-1.665-.075h-2.806v1.455h1.785a14.941,14.941,0,0,0,1.635-.075,11.033,11.033,0,0,0-.06,1.365v1.065a9.664,9.664,0,0,0,.06,1.32,15.25,15.25,0,0,0-1.725-.06H146c-.42.735-.51.855-.84,1.35h5.8a10.8,10.8,0,0,0,1.681-.091v.99a13.441,13.441,0,0,0-1.681-.074h-1.649a6.469,6.469,0,0,1-1.8,2.369,50.379,50.379,0,0,1,4.8,1.785l-.675.825a36,36,0,0,0-4.95-2.009,13.958,13.958,0,0,1-6.6,1.829,3.445,3.445,0,0,0-.435-.93,13.385,13.385,0,0,0,5.9-1.244c-1.17-.345-2.235-.6-3.735-.916a14.929,14.929,0,0,0,1.65-1.709h-2.056a13.014,13.014,0,0,0-1.664.074v-.99a10.8,10.8,0,0,0,1.664.091Zm-2.4-4.2v2.085h2.355V46.326Zm2.85,5.025a13.3,13.3,0,0,1-1.14,1.275c1.395.314,1.92.449,3.06.794a4.827,4.827,0,0,0,1.769-2.069Zm.359-5.79h2.4V44.106h-2.4Zm0,2.85h2.4V46.326h-2.4Zm3.255,0h2.445V46.326h-2.445Z"/><path class="cls-1" d="M154.428,45.276a6.41,6.41,0,0,0,1.2.075h2.55a6.129,6.129,0,0,0,1.2-.075v.96c-.36-.03-.615-.045-1.08-.045h-2.67a9.406,9.406,0,0,0-1.2.06Zm.54-2.07a5.426,5.426,0,0,0,1.08.075h1.965a5.525,5.525,0,0,0,1.08-.075v.945a7.529,7.529,0,0,0-1.08-.06h-1.965a7.379,7.379,0,0,0-1.08.06Zm.045,4.215a6.056,6.056,0,0,0,1.019.06h2.011a5.646,5.646,0,0,0,1-.06v.915a6.457,6.457,0,0,0-1-.06h-2.011a6.527,6.527,0,0,0-1.019.06Zm0,2.07a6.17,6.17,0,0,0,1.019.06h2.011a5.762,5.762,0,0,0,1-.06v.915a6.336,6.336,0,0,0-1-.06h-2.011a6.406,6.406,0,0,0-1.019.06Zm.045,6.719a14.472,14.472,0,0,0,.075-1.455V52.761a9.483,9.483,0,0,0-.06-1.231,8.47,8.47,0,0,0,1.215.061h1.68a8.91,8.91,0,0,0,1.095-.045,10.731,10.731,0,0,0-.045,1.17v2.115a6.836,6.836,0,0,0,.075,1.184h-.915v-.6H156v.8Zm.929-1.574h2.191V52.355h-2.191Zm5.521-5.625a10.683,10.683,0,0,0-1.38.06,3.067,3.067,0,0,0,.029-.45v-.24l.016-.69v-3.18c0-.78-.016-1.05-.045-1.4a8.557,8.557,0,0,0,1.26.06h4.635a7.908,7.908,0,0,0,1.259-.06,3.135,3.135,0,0,0-.03.435v.18l-.015.81V47.6c0,.57.015,1.08.045,1.47a10.621,10.621,0,0,0-1.41-.06h-1.844v1.335h2.459a8.871,8.871,0,0,0,1.411-.09v.975a8.723,8.723,0,0,0-1.38-.09h-2.205a11.367,11.367,0,0,0,3.96,3.479,4.468,4.468,0,0,0-.556.855,10.342,10.342,0,0,1-3.734-3.689c.03.7.045,1.049.045,1.394v1.56a8.359,8.359,0,0,0,.089,1.41H163.1a8.76,8.76,0,0,0,.09-1.395v-1.59c0-.435.014-.779.045-1.365a11.345,11.345,0,0,1-3.42,3.57,3.35,3.35,0,0,0-.63-.795,10.669,10.669,0,0,0,2.309-1.769,12.056,12.056,0,0,0,1.441-1.665h-2.1a8.609,8.609,0,0,0-1.364.09v-.975a8.688,8.688,0,0,0,1.38.09h2.34V49.011ZM161,43.956v1.68h2.191v-1.68Zm0,2.46v1.815h2.191V46.416Zm3.031-.78h2.37v-1.68h-2.37Zm0,2.595h2.384V46.416h-2.384Z"/><path class="cls-1" d="M172.668,49.746h-1.755a8.716,8.716,0,0,0-1.47.075v-.975a9.168,9.168,0,0,0,1.47.09h3.81a8.436,8.436,0,0,0,1.35-.09v.975a9.778,9.778,0,0,0-1.4-.075h-1.141v1.635h.915a7.354,7.354,0,0,0,1.2-.075v.945a6.588,6.588,0,0,0-1.215-.09h-.9V54.41a6.174,6.174,0,0,0,2.341.45c.749.06,2.13.105,3.105.105a35.5,35.5,0,0,0,4.455-.225,3.2,3.2,0,0,0-.33,1.035c-.826.06-2.34.09-3.616.09-3.255,0-5.024-.165-6.089-.585a5.052,5.052,0,0,1-2.355-1.889A7.7,7.7,0,0,1,169.862,56a2.459,2.459,0,0,0-.779-.586,6.583,6.583,0,0,0,1.17-2.279,11.132,11.132,0,0,0,.3-2.221,1.772,1.772,0,0,0-.03-.4l.96.12c-.031.24-.045.315-.06.51a12.819,12.819,0,0,1-.165,1.29,5.463,5.463,0,0,0,1.41,1.5Zm-2.265-5.28a11.234,11.234,0,0,0-.06-1.35,10.652,10.652,0,0,0,1.394.06H174a10.66,10.66,0,0,0,1.4-.06,10.727,10.727,0,0,0-.06,1.365v2.265a10.132,10.132,0,0,0,.06,1.3,11.577,11.577,0,0,0-1.4-.06h-2.266a11.569,11.569,0,0,0-1.394.06,10.5,10.5,0,0,0,.06-1.335Zm.855.72h3.225v-1.26h-3.225Zm0,2.085h3.225V45.936h-3.225Zm7.364,5.535a8.749,8.749,0,0,1-2.654,1.9,2.7,2.7,0,0,0-.69-.675,6.143,6.143,0,0,0,2.61-1.709Zm-1.125-8.76a11.973,11.973,0,0,0-1.484.075v-.945a10.739,10.739,0,0,0,1.529.09h4a8.95,8.95,0,0,0,1.455-.09v.945a13.333,13.333,0,0,0-1.41-.075h-1.739a9.3,9.3,0,0,1-.481,1.38h1.606c.644,0,.96-.015,1.319-.045a10.766,10.766,0,0,0-.06,1.35v3.944a12.081,12.081,0,0,0,.06,1.44c-.435-.03-.75-.044-1.274-.044h-3.09c-.571,0-1.021.014-1.335.044a10.086,10.086,0,0,0,.059-1.335V46.716a11.635,11.635,0,0,0-.059-1.335c.359.03.644.045,1.319.045h.6a11.511,11.511,0,0,0,.45-1.38Zm0,3.315h3.885V46.176H177.5Zm0,1.965h3.885V48.1H177.5Zm0,1.995h3.885V50.06H177.5Zm3.12,1.034a8.95,8.95,0,0,0,2.595,1.575,3.076,3.076,0,0,0-.569.735,10.439,10.439,0,0,1-2.7-1.83Z"/><path class="cls-1" d="M185.028,45.156c.285.015.435.015.54.015.21,0,.39-.015.855-.045.84-.06.93-.075,2.775-.18l2.355-.15c1.845-.1,2.04-.12,2.534-.135l.856-.03a10.131,10.131,0,0,0,1.785-.165l.09,1.11a6.281,6.281,0,0,0-1.68.21,7.364,7.364,0,0,0-2.88,1.5,4.586,4.586,0,0,0-1.846,3.465,2.94,2.94,0,0,0,2.1,2.774,7.681,7.681,0,0,0,2.25.48h.149l-.194,1.215c-.165-.03-.195-.045-.466-.09a7.562,7.562,0,0,1-3.239-1.154,3.632,3.632,0,0,1-1.665-3.061,5.7,5.7,0,0,1,2.8-4.6,9.806,9.806,0,0,1,1.424-.8,30.646,30.646,0,0,1-3.3.33,49.936,49.936,0,0,0-5.175.5Zm10.035,2.235a11.47,11.47,0,0,1,1.545,2.325l-.766.449a10.527,10.527,0,0,0-1.529-2.384Zm1.694-.825a12.063,12.063,0,0,1,1.545,2.34l-.75.42a11.819,11.819,0,0,0-1.529-2.355Z"/><path class="cls-1" d="M200.763,44.871a10.5,10.5,0,0,0,2.805.24c.044,0,.1,0,.375-.015.015-.36.015-.36.075-1.125.014-.165.045-.75.045-.855a1.593,1.593,0,0,0-.015-.225l1.17.075a9.9,9.9,0,0,0-.315,2.1,23.032,23.032,0,0,0,5.714-.84l.06,1.05c-.194.03-.239.03-.524.075a42.04,42.04,0,0,1-5.31.6c-.09,1.275-.09,1.275-.106,2.01a7.931,7.931,0,0,1,2.22-.3c.316,0,.5.015.87.045a5.635,5.635,0,0,0,.361-1.35l1.035.315c-.045.09-.21.495-.466,1.2,2.07.48,3.226,1.755,3.226,3.51a3.847,3.847,0,0,1-2.356,3.464,8.252,8.252,0,0,1-3.059.855,3.078,3.078,0,0,0-.48-1,7.006,7.006,0,0,0,2.249-.406c1.636-.57,2.58-1.664,2.58-3,0-1.289-.854-2.189-2.474-2.609a13.492,13.492,0,0,1-2.85,4.5A4.918,4.918,0,0,1,202.248,55a2.048,2.048,0,0,1-1.935-2.279c0-1.845,1.3-3.525,3.48-4.47.015-1.095.015-1.17.09-2.265h-.6c-.149,0-.824-.03-2.024-.075a2.44,2.44,0,0,0-.271-.015,1.55,1.55,0,0,0-.239.015Zm1.439,5.55a3.54,3.54,0,0,0-.914,2.234c0,.825.435,1.366,1.079,1.366a2.714,2.714,0,0,0,1.726-.765,21.214,21.214,0,0,1-.3-4.065A5.38,5.38,0,0,0,202.2,50.421Zm2.746,2.22a1.6,1.6,0,0,1,.285-.39,13.6,13.6,0,0,0,2.295-3.75c-.48-.03-.555-.03-.72-.03a6.737,6.737,0,0,0-2.085.345,25.065,25.065,0,0,0,.165,3.435.986.986,0,0,1,.015.209v.166Z"/><path class="cls-1" d="M217.233,43.911a6.927,6.927,0,0,0,1.41.09c1.245,0,3.24-.09,4.59-.2a1.533,1.533,0,0,0,.719-.165l.63.825a2.756,2.756,0,0,0-.764.63,38.559,38.559,0,0,1-4.935,4.26l.029.045a7.606,7.606,0,0,1,3.675-.93c2.505,0,4.111,1.23,4.111,3.15,0,2.339-2.175,3.884-5.5,3.884-2.116,0-3.331-.779-3.331-2.16a1.949,1.949,0,0,1,2.175-1.754,3.024,3.024,0,0,1,2.476,1.23,4.3,4.3,0,0,1,.689,1.44c1.576-.436,2.4-1.35,2.4-2.625,0-1.44-1.2-2.3-3.226-2.3a9.625,9.625,0,0,0-6.314,2.564l-.675-.959a16.646,16.646,0,0,0,2.1-1.53c1.606-1.275,3.976-3.36,5.01-4.38l.21-.21.061-.06.059-.06-.029-.03a.583.583,0,0,0-.136.015c-.479.09-2.279.2-4.559.27a7.39,7.39,0,0,0-.81.075Zm2.82,8.535c-.75,0-1.215.36-1.215.93a1.02,1.02,0,0,0,.6.914,3.813,3.813,0,0,0,1.679.346,5.407,5.407,0,0,0,1.095-.106C221.883,53.165,221.133,52.446,220.053,52.446Z"/><path class="cls-1" d="M230,45.036a16.992,16.992,0,0,0-.091-1.845,13.806,13.806,0,0,0,1.756.075h8.969a15.057,15.057,0,0,0,1.785-.075,16.154,16.154,0,0,0-.09,1.845V54.17a14.85,14.85,0,0,0,.09,2.055h-1.05V55.31H230.958v.915h-1.051A14.327,14.327,0,0,0,230,54.17Zm.96,9.42h10.409V44.121H230.958Zm2.565-8.115a9.038,9.038,0,0,0-1.411.075v-.96a7.29,7.29,0,0,0,1.411.09h5.3a9.162,9.162,0,0,0,1.469-.09v.96a9.538,9.538,0,0,0-1.455-.075h-2.309v2.325h1.844a7.774,7.774,0,0,0,1.351-.075v.945a8.1,8.1,0,0,0-1.351-.075h-1.844v2.745h2.519a9.995,9.995,0,0,0,1.471-.091v.99a10.464,10.464,0,0,0-1.471-.089h-5.715a10.513,10.513,0,0,0-1.484.089v-.99a10.044,10.044,0,0,0,1.484.091h2.266V49.461h-1.606a8.27,8.27,0,0,0-1.364.075v-.945a7.837,7.837,0,0,0,1.364.075h1.606V46.341Zm4.814,3.39a9.192,9.192,0,0,1,1.41,1.785l-.705.45a8.176,8.176,0,0,0-1.335-1.86Z"/><path class="cls-1" d="M250.893,43.551a6.093,6.093,0,0,0-.09-1.02h1.154a5.7,5.7,0,0,0-.09,1.02v.33h4.005a9.984,9.984,0,0,0,1.59-.09v.975a15.341,15.341,0,0,0-1.559-.06h-1.335a18.841,18.841,0,0,1-.885,1.8h2.234a9.951,9.951,0,0,0,1.74-.09v.99a12.537,12.537,0,0,0-1.74-.075h-9.359c-.015,4.83-.42,6.885-1.68,8.714a2.751,2.751,0,0,0-.735-.765,6.214,6.214,0,0,0,1.02-2.25,20.515,20.515,0,0,0,.449-4.649c0-.8-.014-1.53-.059-1.965a11.629,11.629,0,0,0,1.725.09h1.7a10.245,10.245,0,0,0-.72-1.8H246.9a13.513,13.513,0,0,0-1.47.06v-.975a8.844,8.844,0,0,0,1.5.09h3.96Zm-2,6.435a11.175,11.175,0,0,1-1.545,2.294,2.824,2.824,0,0,0-.736-.615,7.264,7.264,0,0,0,1.665-2.384,6.016,6.016,0,0,0,.541-1.56l.975.225c-.1.225-.27.63-.525,1.215h2.339v-.3a6,6,0,0,0-.075-1.155H252.6a6.09,6.09,0,0,0-.075,1.155v.3h2.985a8.382,8.382,0,0,0,1.484-.09v.975a13.441,13.441,0,0,0-1.484-.06h-2.985v1.83h2.49a7.808,7.808,0,0,0,1.364-.076v.945a12.074,12.074,0,0,0-1.364-.059h-2.49v2.189h3.87a8.125,8.125,0,0,0,1.394-.075v1a9.673,9.673,0,0,0-1.41-.09h-8.549a9.715,9.715,0,0,0-1.381.09v-1a8.3,8.3,0,0,0,1.366.075h3.794V52.626h-1.844a12.7,12.7,0,0,0-1.4.059v-.929a10.414,10.414,0,0,0,1.4.06h1.844v-1.83Zm3.809-3.48a11.782,11.782,0,0,0,.84-1.8h-4.305a12.453,12.453,0,0,1,.721,1.8Z"/><path class="cls-1" d="M263.3,46.4a7.23,7.23,0,0,0,2.2,3.12,2.93,2.93,0,0,0-.57.84,7.925,7.925,0,0,1-1.8-2.76c.075.975.1,1.845.1,2.925v4.139a11.087,11.087,0,0,0,.09,1.59H262.2a10.777,10.777,0,0,0,.091-1.59V50.721c0-.825.03-2.07.074-2.82a13.836,13.836,0,0,1-2.429,4.964,2.7,2.7,0,0,0-.615-.869,13.639,13.639,0,0,0,2.82-5.595h-1.08a8.219,8.219,0,0,0-1.275.09v-1.02a5.985,5.985,0,0,0,1.305.09h1.2V44a9.391,9.391,0,0,0-.091-1.41h1.125a6.924,6.924,0,0,0-.09,1.395v1.575h.946a8.664,8.664,0,0,0,1.125-.075v.99a8.664,8.664,0,0,0-1.125-.075Zm4.034.015a10.762,10.762,0,0,0-1.545.075V45.5a10.54,10.54,0,0,0,1.531.075h2.669v-1.29a13.364,13.364,0,0,0-.089-1.65h1.125a10.81,10.81,0,0,0-.09,1.65v1.29h.734a8.688,8.688,0,0,0,1.38-.09v1.02a8.705,8.705,0,0,0-1.38-.09h-.734l.059,8.324c0,.96-.3,1.185-1.649,1.185a16.368,16.368,0,0,1-1.681-.09,3.3,3.3,0,0,0-.255-.99,10.962,10.962,0,0,0,1.816.166c.675,0,.795-.061.795-.375L270,47.466a14.529,14.529,0,0,1-1.83,2.955,14.7,14.7,0,0,1-3.18,3,2.81,2.81,0,0,0-.689-.765,13.754,13.754,0,0,0,3.7-3.464,17.616,17.616,0,0,0,1.59-2.775Z"/><path class="cls-1" d="M280.518,51.1c-.87,1.979-1.755,2.88-2.835,2.88-1.425,0-2.49-1.561-2.49-3.66a6.092,6.092,0,0,1,6.419-6.135,5.805,5.805,0,0,1,4.125,1.485,5.018,5.018,0,0,1,1.456,3.66,5.461,5.461,0,0,1-3.436,5.175,11.667,11.667,0,0,1-2.279.689,2.4,2.4,0,0,0-.526-1,8.981,8.981,0,0,0,2.5-.705,4.525,4.525,0,0,0,2.655-4.2,3.955,3.955,0,0,0-2.384-3.765,4.326,4.326,0,0,0-1.741-.375A22.447,22.447,0,0,1,280.518,51.1Zm-1.845-5.235a5.185,5.185,0,0,0-2.445,4.47c0,1.44.63,2.55,1.44,2.55.63,0,1.23-.706,1.875-2.175a20.6,20.6,0,0,0,1.364-5.55A4.733,4.733,0,0,0,278.673,45.861Z"/><path class="cls-1" d="M293.763,44.256a7.676,7.676,0,0,0-1.14-1.485l.855-.315a10.8,10.8,0,0,1,1.3,1.8h2.625a7.833,7.833,0,0,0,1.231-1.8l.944.315a10.416,10.416,0,0,1-1.17,1.485h2.55a10.246,10.246,0,0,0,1.516-.09v.99a9.349,9.349,0,0,0-1.426-.09H297.9v3.2h3.479a9.723,9.723,0,0,0,1.471-.09v1.005a9.861,9.861,0,0,0-1.471-.09h-10.35a10.42,10.42,0,0,0-1.469.09V48.171a9.433,9.433,0,0,0,1.469.09h3.316V45.066h-3a10.15,10.15,0,0,0-1.441.09v-.99a10.255,10.255,0,0,0,1.516.09Zm-2.04,1.125a11.43,11.43,0,0,1,1.394,2.145l-.824.435a8.637,8.637,0,0,0-1.335-2.19Zm-.12,5.82a10.017,10.017,0,0,0-.06-1.17c.525.045.9.06,1.364.06h6.541c.48,0,.75-.015,1.365-.06a9.516,9.516,0,0,0-.061,1.17v3.6a8.83,8.83,0,0,0,.09,1.35h-1.019v-.629h-7.291v.629h-1.019a9.406,9.406,0,0,0,.09-1.35Zm.929,1.17h7.291V50.9h-7.291Zm0,2.339h7.291V53.165h-7.291Zm4.455-6.449V45.066h-1.724v3.2Zm2.071-.585a9.475,9.475,0,0,0,1.29-2.31l.885.345a12.1,12.1,0,0,1-1.38,2.31Z"/><path class="cls-1" d="M316.938,47.526c-.106.165-.181.33-.465.9a14.675,14.675,0,0,1-2.851,4.155,13.455,13.455,0,0,0,4.515,2.579,3.475,3.475,0,0,0-.555,1.005,15.036,15.036,0,0,1-4.665-2.925,14.553,14.553,0,0,1-5.024,2.91,3.033,3.033,0,0,0-.57-.9,13.44,13.44,0,0,0,4.935-2.656,13.507,13.507,0,0,1-1.8-2.279,12.88,12.88,0,0,1-1.694-3.8,14.834,14.834,0,0,1-1.125,5.73,11.269,11.269,0,0,1-2.58,3.764,2.833,2.833,0,0,0-.78-.75,10.1,10.1,0,0,0,3.315-6.044,25.828,25.828,0,0,0,.435-4.92h-1.35a11.273,11.273,0,0,0-1.515.09v-1.05a10.849,10.849,0,0,0,1.574.09h5.911c.495,0,1.08-.03,1.53-.06a6.49,6.49,0,0,0-.165.66c-.271,1.05-.466,1.77-.841,3H315.2a7.794,7.794,0,0,0,1.259-.06Zm-8-2.955a14.646,14.646,0,0,0,4,7.38,12.844,12.844,0,0,0,2.745-4.095H312.9c-.076.2-.121.315-.241.6l-.989-.06a20.046,20.046,0,0,0,1.244-4.095h-3.974Z"/><path class="cls-1" d="M322.773,43.566a21.1,21.1,0,0,0-.63,2.4,22.109,22.109,0,0,0-.45,4.7c0,1.17.03,2.055.089,2.85a13.942,13.942,0,0,1,.976-2.925l.72.345a13.071,13.071,0,0,0-1.215,4.124v.225l-1.08.09c-.03-.24-.045-.315-.09-.6a21.506,21.506,0,0,1-.39-4.245,24.815,24.815,0,0,1,.675-5.94,8.352,8.352,0,0,0,.21-1.2ZM326.6,49.6a3.485,3.485,0,0,0-1.125,2.2c0,1.111.944,1.65,2.88,1.65a9.842,9.842,0,0,0,3.449-.525l.15,1.156c-.195.014-.224.03-.525.074a15.475,15.475,0,0,1-3.074.3c-1.71,0-2.79-.361-3.436-1.141a2.12,2.12,0,0,1-.449-1.38,4.143,4.143,0,0,1,1.305-2.789Zm-1.905-4.44a10.184,10.184,0,0,0,2.549.225,16.11,16.11,0,0,0,4.021-.405l.074,1.065c-.029,0-.375.045-1.034.135a25.327,25.327,0,0,1-3.226.2,19.964,19.964,0,0,1-2.4-.15Z"/><path class="cls-1" d="M339.528,54.365a7.45,7.45,0,0,1-1.725,1.08,11.827,11.827,0,0,1-2.58.96,3.25,3.25,0,0,0-.691-.855,10.77,10.77,0,0,0,2.641-.779,5.943,5.943,0,0,0,1.545-.961ZM337.2,43.9a8.167,8.167,0,0,0-1.364.075V43a8.375,8.375,0,0,0,1.38.075h8.039A8.166,8.166,0,0,0,346.622,43v.975a10.026,10.026,0,0,0-1.335-.075h-3.734v1.395h4.784a9.4,9.4,0,0,0,1.545-.09v1.005a10.231,10.231,0,0,0-1.515-.09H336.123a11.185,11.185,0,0,0-1.53.09V45.2a10.315,10.315,0,0,0,1.53.09h4.485V43.9Zm7.38,3.225c.931,0,1.231-.015,1.7-.045a12.462,12.462,0,0,0-.076,1.6V52.04a10.783,10.783,0,0,0,.076,1.7c-.5-.046-1.021-.076-1.606-.076h-6.839c-.585,0-1.125.03-1.62.076a11.3,11.3,0,0,0,.075-1.71V48.681a13.1,13.1,0,0,0-.075-1.6c.42.03.779.045,1.665.045Zm-7.364,1.935h8.055V47.871h-8.055Zm0,1.905h8.055v-1.17h-8.055Zm0,1.95h8.055V51.7h-8.055Zm6.21.869a10.287,10.287,0,0,0,4.439,1.665,3.8,3.8,0,0,0-.54.9,13.047,13.047,0,0,1-4.634-1.98Z"/><path class="cls-1" d="M355.263,46.371a13.935,13.935,0,0,0,1.56-.06,12.688,12.688,0,0,0-.06,1.41v7.214a1.65,1.65,0,0,1-.061.42,7.184,7.184,0,0,0,1.726-3.135,21.011,21.011,0,0,0,.75-4.724h-.48a9.967,9.967,0,0,0-1.44.09v-1a12.769,12.769,0,0,0,1.425.075h.524c.03-.615.03-.99.03-1.77a16.688,16.688,0,0,0-.075-2.19h1.066c-.045.3-.075,1.23-.075,2.55,0,.51,0,.825.03,1.41H361.5a9.191,9.191,0,0,0,1.425-.09v1.02a9.242,9.242,0,0,0-1.38-.09h-1.319a13.815,13.815,0,0,0,.689,3.554,10.078,10.078,0,0,0,2.43,4.14,3.438,3.438,0,0,0-.63.96,12.522,12.522,0,0,1-2.984-7.139c-.226,3.24-.9,5.25-2.34,7.125a3.564,3.564,0,0,0-.7-.721c-.151.375-.481.51-1.215.51-.226,0-.6-.015-1.066-.029a2.608,2.608,0,0,0-.209-.931,7.561,7.561,0,0,0,1.275.12c.33,0,.45-.09.45-.345v-7.6h-5.056V54.4a11.124,11.124,0,0,0,.091,1.844h-1.035a11.732,11.732,0,0,0,.09-1.83V47.721a12.516,12.516,0,0,0-.06-1.41,13.368,13.368,0,0,0,1.515.06h1.515V44.946h-2.175a8.427,8.427,0,0,0-1.35.09v-.975a8.913,8.913,0,0,0,1.395.09h2.13v-.405a7.5,7.5,0,0,0-.09-1.11h1.05a4.472,4.472,0,0,0-.09,1.095v.42h1.979a9.34,9.34,0,0,0,1.426-.09v.975a8.918,8.918,0,0,0-1.4-.09h-2.009v1.425Zm-1.68,3.18a9.487,9.487,0,0,0,.824-2.19l.781.3a13.09,13.09,0,0,1-.9,1.89h.165a5.242,5.242,0,0,0,1.1-.075v.885a5.61,5.61,0,0,0-1.1-.075h-.644v1.485h.54a5.231,5.231,0,0,0,1.095-.075v.885a5.5,5.5,0,0,0-1.095-.075h-.54V53.99a13.643,13.643,0,0,0,.059,1.531h-.929a9.7,9.7,0,0,0,.075-1.531V52.506h-.54a5.681,5.681,0,0,0-1.111.075V51.7a5.5,5.5,0,0,0,1.111.075h.54V50.286h-.585a5.939,5.939,0,0,0-1.125.075v-.885a5.555,5.555,0,0,0,1.125.075Zm-1.216-2.13a11.926,11.926,0,0,1,.706,1.725l-.706.285a8.191,8.191,0,0,0-.689-1.74Zm9.616-1.365a9.785,9.785,0,0,0-1.366-2.385l.675-.39a12.3,12.3,0,0,1,1.425,2.265Z"/><path class="cls-1" d="M368.463,43.386a22.951,22.951,0,0,0-.2,3.165c-.06,1.8-.106,3.84-.106,4.515,0,.18.016.555.031.9a2.363,2.363,0,0,0,.705,1.8,2.835,2.835,0,0,0,1.875.585,4.306,4.306,0,0,0,4.019-2.611,8.864,8.864,0,0,0,.736-2.354,4.226,4.226,0,0,0,1.08.72,9.14,9.14,0,0,1-1.665,3.405,5.253,5.253,0,0,1-4.23,1.875,3.556,3.556,0,0,1-2.82-1.051,4.176,4.176,0,0,1-.825-3.074c0-1.005.015-1.38.134-6.105.016-.45.016-.735.016-.975a4.613,4.613,0,0,0-.061-.795Z"/><path class="cls-1" d="M380.148,52.1a15.249,15.249,0,0,1,3.014,3.179l-.839.8a15.015,15.015,0,0,0-2.955-3.269Z"/><path class="cls-1" d="M114.858,73.776c-.975.81-1.425,1.5-1.425,2.2s.435,1.185,1.275,1.47a9.552,9.552,0,0,0,2.745.3,14.227,14.227,0,0,0,4.5-.57l.136,1.23a4.208,4.208,0,0,0-.511.075,24.447,24.447,0,0,1-4.049.345,10.582,10.582,0,0,1-3.45-.465,2.389,2.389,0,0,1-1.71-2.265,3.941,3.941,0,0,1,1.725-2.895ZM113.283,68.3a17.149,17.149,0,0,0,3.99.36,16.41,16.41,0,0,0,3.8-.315l.075.99a21.385,21.385,0,0,0-3.781,2.279L116.6,71a23.241,23.241,0,0,1,2-1.245c.165-.09.195-.105.375-.195.1-.06.135-.06.285-.15a11.86,11.86,0,0,1-2.266.195,29.338,29.338,0,0,1-3.3-.195,3.523,3.523,0,0,0-.5-.045Z"/><path class="cls-1" d="M125.718,76.145a23.088,23.088,0,0,0,2.64-2.534c.015-.6.045-1.545.091-2.865a15.291,15.291,0,0,0-2.356.21l-.06-1.035a3.035,3.035,0,0,0,.465.03c.045,0,.7-.046,1.965-.12.045-1.14.06-1.815.06-2.01a6.105,6.105,0,0,0-.045-.75l1.185.015a17.46,17.46,0,0,0-.18,2.67.979.979,0,0,0,.3-.075l.39.465a5.188,5.188,0,0,0-.765.929,2.549,2.549,0,0,1-.015.375c-.015.3-.015.3-.031,1.006a.828.828,0,0,1-.014.135c0,.12-.015.149-.015.24l.029.014a10.742,10.742,0,0,1,1.906-1.754,6.03,6.03,0,0,1,3.389-1.65,1.63,1.63,0,0,1,1.755,1.755,10,10,0,0,1-.344,2.19,16.486,16.486,0,0,0-.645,3.554c0,.691.314,1.065.9,1.065a1.811,1.811,0,0,0,1.275-.825,6.142,6.142,0,0,0,.854-1.725,4.947,4.947,0,0,0,.691,1.02,7.4,7.4,0,0,1-.93,1.485,2.581,2.581,0,0,1-2.07,1.08,1.847,1.847,0,0,1-1.05-.315,1.867,1.867,0,0,1-.7-1.71,14.56,14.56,0,0,1,.57-3.494,11.265,11.265,0,0,0,.375-2.25.76.76,0,0,0-.825-.81,4.272,4.272,0,0,0-2.266,1.02,24.288,24.288,0,0,0-2.894,2.549v3.24a23.3,23.3,0,0,0,.045,2.491h-1.17a12.848,12.848,0,0,0,.1-2.476c0-1.755,0-1.755.045-2.429h-.03a1.739,1.739,0,0,1-.269.36l-.736.824c-.165.18-.375.42-.63.7a3.093,3.093,0,0,0-.389.48Z"/><path class="cls-1" d="M152.193,78.935a12.113,12.113,0,0,0-3.06-2.145c-.255-.135-.6-.284-1.005-.449a4.443,4.443,0,0,1,.029.54,2.6,2.6,0,0,1-.375,1.634,3.017,3.017,0,0,1-2.534.945,3.907,3.907,0,0,1-2.325-.6,1.962,1.962,0,0,1-.81-1.575c0-.989.78-1.77,2.1-2.069a6.528,6.528,0,0,1,1.56-.15,6.662,6.662,0,0,1,1.35.119c-.015-.045-.015-.045-.015-.179a1.236,1.236,0,0,1-.015-.165c-.015-.136-.015-.451-.03-.886-.015-.194-.015-.48-.031-.869-.539.014-1.289.029-1.769.029-.9,0-1.605-.029-2.535-.1a3.591,3.591,0,0,0-.375-.016h-.12l.015-.989a18.518,18.518,0,0,0,3.435.239c.39,0,.915,0,1.335-.014l-.031-2.056c-.434.016-.674.016-1.019.016-1.095,0-2.31-.045-3.66-.15a1.82,1.82,0,0,0-.27-.015,1.225,1.225,0,0,0-.21.015l.015-1.02a18.635,18.635,0,0,0,3.84.3c.3,0,.81-.015,1.3-.015a11.709,11.709,0,0,0-.074-2.16h1.155a16.741,16.741,0,0,0-.105,2.115,21.167,21.167,0,0,0,4.44-.615l.075,1.02c-.255.015-.255.015-1.035.12a31.186,31.186,0,0,1-3.48.36c.015,1.23.015,1.23.029,2.025a18.045,18.045,0,0,0,4.156-.616l.059,1.036c-.194.015-.345.029-.869.105-1.035.165-2.221.285-3.33.359.03.841.03.841.09,2.295a13.157,13.157,0,0,1,4.184,2.19,5.6,5.6,0,0,0,.51.346Zm-5.07-2.835a5.544,5.544,0,0,0-1.53-.165c-1.485,0-2.46.54-2.46,1.335s.75,1.245,2.055,1.245a2.167,2.167,0,0,0,1.65-.5,1.963,1.963,0,0,0,.3-1.349Z"/><path class="cls-1" d="M156.018,69.156c.285.015.435.015.54.015.21,0,.391-.015.855-.045.84-.06.93-.075,2.775-.18l2.355-.15c1.845-.105,2.04-.12,2.534-.135l.856-.03a10.131,10.131,0,0,0,1.785-.165l.09,1.11a6.286,6.286,0,0,0-1.68.21,7.382,7.382,0,0,0-2.88,1.5,4.588,4.588,0,0,0-1.845,3.466,2.94,2.94,0,0,0,2.1,2.774,7.681,7.681,0,0,0,2.25.48h.15l-.195,1.215c-.165-.03-.195-.045-.466-.09A7.567,7.567,0,0,1,162,77.975a3.631,3.631,0,0,1-1.665-3.06,5.706,5.706,0,0,1,2.805-4.6,9.819,9.819,0,0,1,1.425-.8,30.493,30.493,0,0,1-3.3.329,50.105,50.105,0,0,0-5.175.5Zm10.035,2.235a11.36,11.36,0,0,1,1.545,2.325l-.766.449A10.513,10.513,0,0,0,165.3,71.78Zm1.694-.825a12.086,12.086,0,0,1,1.545,2.339l-.75.42a11.819,11.819,0,0,0-1.529-2.355Z"/><path class="cls-1" d="M173.763,67.566a21.314,21.314,0,0,0-.63,2.4,22.172,22.172,0,0,0-.45,4.694c0,1.17.03,2.056.09,2.851a13.917,13.917,0,0,1,.975-2.925l.72.344a13.082,13.082,0,0,0-1.215,4.125v.225l-1.08.09c-.03-.24-.045-.315-.09-.6a21.494,21.494,0,0,1-.389-4.244,24.807,24.807,0,0,1,.674-5.94,8.352,8.352,0,0,0,.21-1.2Zm3.825,6.029a3.487,3.487,0,0,0-1.125,2.2c0,1.11.944,1.65,2.88,1.65a9.838,9.838,0,0,0,3.449-.525l.151,1.155c-.2.015-.225.031-.526.075a15.473,15.473,0,0,1-3.074.3c-1.71,0-2.79-.36-3.436-1.14a2.125,2.125,0,0,1-.449-1.38,4.141,4.141,0,0,1,1.305-2.789Zm-1.905-4.439a10.188,10.188,0,0,0,2.55.225,16.1,16.1,0,0,0,4.02-.405l.074,1.065c-.029,0-.375.045-1.034.134a25.125,25.125,0,0,1-3.225.2,19.993,19.993,0,0,1-2.4-.151Z"/><path class="cls-1" d="M185.388,73.131a3.537,3.537,0,0,0,.54.044c.075,0,.525-.015.766-.029.554-.66.7-.855,1.139-1.44a14.876,14.876,0,0,0-2.28-2.3l.556-.7c.329.315.4.375.644.615a11.16,11.16,0,0,0,1.485-2.775l.93.42a5.142,5.142,0,0,0-.344.57,23.189,23.189,0,0,1-1.486,2.355,14.808,14.808,0,0,1,1,1.095,15.424,15.424,0,0,0,1.725-2.835l.885.525c-.135.18-.225.315-.435.615a32.846,32.846,0,0,1-2.775,3.8c1.125-.075,1.4-.091,2.43-.225a12.6,12.6,0,0,0-.6-1.186l.689-.27a16.294,16.294,0,0,1,1.32,2.851l-.765.344c-.15-.48-.2-.614-.345-1a2.294,2.294,0,0,1-.375.045c-.12.015-.465.06-1.035.121V78.7a10.887,10.887,0,0,0,.09,1.529h-1.095a11.124,11.124,0,0,0,.09-1.545V73.85c-1.11.105-1.11.105-1.68.151a5.433,5.433,0,0,0-.915.1Zm1.845,1.859a13.269,13.269,0,0,1-.99,4.245l-.825-.39a11.1,11.1,0,0,0,.99-4.02Zm3.405-.254a23.833,23.833,0,0,1,.885,3.569l-.87.286a19.8,19.8,0,0,0-.765-3.616ZM193.173,70a11.739,11.739,0,0,1-1.53,2.34,2.721,2.721,0,0,0-.781-.585,9.716,9.716,0,0,0,1.681-2.565,9.391,9.391,0,0,0,.84-2.475l1.02.255c-.121.285-.121.285-.39,1.035-.12.33-.24.63-.436,1.11h3.75a8.1,8.1,0,0,0,1.215-.06,22.441,22.441,0,0,0-.074,2.31,37.729,37.729,0,0,1-.645,6.794c-.345,1.44-.72,1.755-2.161,1.755-.434,0-.989-.03-1.589-.09a3.608,3.608,0,0,0-.255-1.035,11.836,11.836,0,0,0,1.995.2c.705,0,.87-.18,1.08-1.139A42.034,42.034,0,0,0,197.537,70Zm1.59,6.015a14.511,14.511,0,0,0-2.055-3.72l.779-.45a17.88,17.88,0,0,1,2.13,3.659Z"/><path class="cls-1" d="M202.2,79a10.707,10.707,0,0,0-1.65.076,6.879,6.879,0,0,1,.435-1.98,6.577,6.577,0,0,1,1.95-2.58,20.222,20.222,0,0,1,2.3-1.65c1.485-1.005,1.98-1.665,1.98-2.581,0-1.139-.96-1.874-2.49-1.874a2.481,2.481,0,0,0-2.175.975,3.035,3.035,0,0,0-.525,1.515l-1.26-.21a4.079,4.079,0,0,1,.945-2.16,3.834,3.834,0,0,1,3.015-1.155c2.264,0,3.72,1.14,3.72,2.909a3.129,3.129,0,0,1-.885,2.13,11.789,11.789,0,0,1-2.55,1.935,8.166,8.166,0,0,0-2.16,1.846,4.194,4.194,0,0,0-.855,1.739h4.785a13.1,13.1,0,0,0,1.83-.105v1.26a16.868,16.868,0,0,0-1.845-.09Z"/><path class="cls-1" d="M212.073,79c0,1.11-.18,1.47-.946,1.935l-.4-.5c.614-.285.72-.51.72-1.44h-.87V77.511h1.5Z"/><path class="cls-1" d="M215.3,78.155a3.715,3.715,0,0,1-.9-1.379,10.373,10.373,0,0,1-.571-3.465,8.753,8.753,0,0,1,.871-4.08,4.017,4.017,0,0,1,6.1-.78,3.781,3.781,0,0,1,.9,1.38,10.322,10.322,0,0,1,.57,3.48,7.821,7.821,0,0,1-1.05,4.334,3.664,3.664,0,0,1-3.18,1.575A3.743,3.743,0,0,1,215.3,78.155Zm.87-8.969a3.059,3.059,0,0,0-.675,1.094,9.314,9.314,0,0,0-.464,3.031,8.28,8.28,0,0,0,.705,3.57,2.553,2.553,0,0,0,2.324,1.3,2.5,2.5,0,0,0,1.845-.7,2.946,2.946,0,0,0,.705-1.17,9.3,9.3,0,0,0,.465-3.03,8.493,8.493,0,0,0-.675-3.494,2.535,2.535,0,0,0-2.355-1.365A2.442,2.442,0,0,0,216.167,69.186Z"/><path class="cls-1" d="M225.152,78.155a3.718,3.718,0,0,1-.9-1.379,10.372,10.372,0,0,1-.57-3.465,8.766,8.766,0,0,1,.87-4.08,4.017,4.017,0,0,1,6.1-.78,3.8,3.8,0,0,1,.9,1.38,10.322,10.322,0,0,1,.569,3.48,7.813,7.813,0,0,1-1.05,4.334A3.663,3.663,0,0,1,227.9,79.22,3.741,3.741,0,0,1,225.152,78.155Zm.87-8.969a3.045,3.045,0,0,0-.675,1.094,9.287,9.287,0,0,0-.465,3.031,8.3,8.3,0,0,0,.7,3.57,2.556,2.556,0,0,0,2.324,1.3,2.493,2.493,0,0,0,1.845-.7,2.946,2.946,0,0,0,.705-1.17,9.273,9.273,0,0,0,.465-3.03,8.477,8.477,0,0,0-.675-3.494,2.533,2.533,0,0,0-2.354-1.365A2.439,2.439,0,0,0,226.022,69.186Z"/><path class="cls-1" d="M235.006,78.155a3.715,3.715,0,0,1-.9-1.379,10.373,10.373,0,0,1-.571-3.465,8.766,8.766,0,0,1,.87-4.08,4.019,4.019,0,0,1,6.1-.78,3.781,3.781,0,0,1,.9,1.38,10.322,10.322,0,0,1,.57,3.48,7.821,7.821,0,0,1-1.05,4.334,3.664,3.664,0,0,1-3.18,1.575A3.743,3.743,0,0,1,235.006,78.155Zm.87-8.969a3.074,3.074,0,0,0-.675,1.094,9.314,9.314,0,0,0-.464,3.031,8.28,8.28,0,0,0,.705,3.57,2.553,2.553,0,0,0,2.324,1.3,2.5,2.5,0,0,0,1.845-.7,2.946,2.946,0,0,0,.705-1.17,9.3,9.3,0,0,0,.464-3.03,8.495,8.495,0,0,0-.674-3.494,2.535,2.535,0,0,0-2.355-1.365A2.442,2.442,0,0,0,235.876,69.186Z"/><path class="cls-1" d="M246.5,70.325a8.271,8.271,0,0,0,1.681,2.94,3.423,3.423,0,0,0-.54.781,10.433,10.433,0,0,1-1.261-2.52c.045.75.075,1.949.075,2.444v4.545a12.311,12.311,0,0,0,.09,1.74h-1.064a12.762,12.762,0,0,0,.09-1.74V74.24c0-.585.03-1.544.075-2.384a11.9,11.9,0,0,1-2.026,4.514,3.991,3.991,0,0,0-.569-.87,11.907,11.907,0,0,0,2.385-5.175h-.915a6.445,6.445,0,0,0-1.05.061v-.945a6.122,6.122,0,0,0,1.05.06h1.05v-1.4a8.843,8.843,0,0,0-.076-1.545h1.036a9.746,9.746,0,0,0-.076,1.545v1.4h.54a5.333,5.333,0,0,0,.946-.06v.93a8.464,8.464,0,0,0-.946-.046Zm3.226,5.056a7.472,7.472,0,0,0-1.335.074,9.249,9.249,0,0,0,.074-1.425V71.66a8.517,8.517,0,0,0-.074-1.364,8.649,8.649,0,0,0,1.35.075h2.009V69.1H249.21a9.568,9.568,0,0,0-1.38.075V68.166a9,9,0,0,0,1.41.09h2.5v-.3a5.731,5.731,0,0,0-.1-1.29h1.034a5.825,5.825,0,0,0-.09,1.275v.315h3a8.693,8.693,0,0,0,1.35-.09v1.005A11.093,11.093,0,0,0,255.6,69.1h-3.015v1.275h2.325a8.6,8.6,0,0,0,1.38-.075,8.166,8.166,0,0,0-.075,1.364v2.37a8.991,8.991,0,0,0,.075,1.425,8.049,8.049,0,0,0-1.394-.074h-1.8a8.542,8.542,0,0,0,1.35,1.44,10.755,10.755,0,0,0,2.895,1.754,3.434,3.434,0,0,0-.615.9,10.82,10.82,0,0,1-4.2-3.69c.029.286.059.931.059,1.155v1.89a7.351,7.351,0,0,0,.09,1.425h-1.034a6.049,6.049,0,0,0,.1-1.425V76.955c0-.33.015-.84.045-1.139a11.815,11.815,0,0,1-1.83,2.159,12.533,12.533,0,0,1-2.114,1.575,3.584,3.584,0,0,0-.63-.854,9.742,9.742,0,0,0,3.944-3.315Zm-.405-4.245V72.47h2.429V71.136Zm0,2.069v1.44h2.429v-1.44Zm3.269-.735h2.76V71.136h-2.76Zm0,2.175h2.776v-1.44h-2.776Z"/><path class="cls-1" d="M259.861,73.506a6.815,6.815,0,0,0,.929,2.264,11.572,11.572,0,0,0,.856-3.36h-1.29c-.42,0-.946.015-1.366.046a26.134,26.134,0,0,0,2.43-4.23h-1.8a5.229,5.229,0,0,0-1.019.075v-.975a5.216,5.216,0,0,0,1.035.075h1.425a6.474,6.474,0,0,0,1.109-.06l.436.57a6.237,6.237,0,0,0-.33.615,23.66,23.66,0,0,1-1.77,3.075h.975a6.71,6.71,0,0,0,1.184-.06c-.045.224-.045.224-.12.75a14.552,14.552,0,0,1-1.184,4.32c1.275,1.619,2.879,2.2,6.03,2.2,1.484,0,3.3-.09,4.679-.21a3.181,3.181,0,0,0-.315,1.035c-1.109.03-3,.06-4.154.06-3.556,0-5.085-.525-6.66-2.31a10.951,10.951,0,0,1-2.085,2.64,2.4,2.4,0,0,0-.7-.735,9.406,9.406,0,0,0,2.2-2.655,10.3,10.3,0,0,1-1.02-1.949c-.181-.42-.181-.42-.375-.826Zm6.584-5.1h-1.919a7.8,7.8,0,0,0-1.081.06v-.885a5.675,5.675,0,0,0,1.111.075h1.889a9.8,9.8,0,0,0-.075-1.14h1.021a5.557,5.557,0,0,0-.075,1.14h2.369a9.978,9.978,0,0,0,1.095-.045,2.233,2.233,0,0,1-.015.255c-.015.15-.015.465-.015.69v1.065h.075a6.213,6.213,0,0,0,1.125-.09v.9a7.662,7.662,0,0,0-1.125-.06h-.075V71.6c0,.315.015.7.03.855-.48-.031-.674-.031-1.065-.031h-2.4v1.291h2.4a9.157,9.157,0,0,0,1.335-.076v.886a11.234,11.234,0,0,0-1.35-.06h-2.384v1.319h3.074a8.542,8.542,0,0,0,1.4-.089v.915a11.184,11.184,0,0,0-1.4-.061h-3.074v.375a8.486,8.486,0,0,0,.075,1.4H266.37a11.385,11.385,0,0,0,.075-1.381v-.39h-2.4a8.559,8.559,0,0,0-1.335.075V75.7a8.076,8.076,0,0,0,1.351.089h2.384V74.466h-2.009a9.687,9.687,0,0,0-1.231.074v-.9a7.511,7.511,0,0,0,1.231.076h2.009V72.425h-1.964a7.6,7.6,0,0,0-1.05.061V71.6a5.392,5.392,0,0,0,1.1.074h1.919v-1.3h-2.5a8.487,8.487,0,0,0-1.38.075v-.915a8.132,8.132,0,0,0,1.394.09h2.49Zm3.435,1.215V68.406h-2.564v1.215Zm-2.564,2.054h2.564v-1.3h-2.564Z"/><path class="cls-1" d="M285.106,75.636a11.869,11.869,0,0,0,1.694-.09v.974a13.911,13.911,0,0,0-1.694-.09h-3.96a13.222,13.222,0,0,0,5.894,2.595,3.243,3.243,0,0,0-.585.945,17.768,17.768,0,0,1-3.179-1.2,10.342,10.342,0,0,1-2.866-2.009c.045.5.061.884.061,1.154v.84a7.392,7.392,0,0,0,.09,1.515h-1.08a9.572,9.572,0,0,0,.089-1.515v-.84c0-.3.015-.615.06-1.154a11.976,11.976,0,0,1-2.579,1.8,18.117,18.117,0,0,1-3.3,1.335,2.691,2.691,0,0,0-.6-.884,14.621,14.621,0,0,0,5.774-2.581H275.28a13.6,13.6,0,0,0-1.665.09v-.974a11.135,11.135,0,0,0,1.665.09h4.29a6.287,6.287,0,0,0-.059-1.036,5.726,5.726,0,0,1-.676.45,2.2,2.2,0,0,0-.675-.66,2.807,2.807,0,0,0,1.906-3.119,5.231,5.231,0,0,0-.061-.885,8.356,8.356,0,0,0,1.231.06h2.219a9.786,9.786,0,0,0,1.276-.06,12.773,12.773,0,0,0-.061,1.455v1.694c0,.27.045.286.57.286.57,0,.7-.03.75-.195a8.9,8.9,0,0,0,.121-1.7,2.91,2.91,0,0,0,.809.406,4.8,4.8,0,0,1-.285,1.815c-.18.36-.51.464-1.484.464-1.111,0-1.351-.165-1.351-.87V71.211h-2.9c-.044,1.844-.33,2.534-1.365,3.375h.99a6.484,6.484,0,0,0-.059,1.05Zm-9.451-6.975a10.3,10.3,0,0,1-1.514,1.755,2.752,2.752,0,0,0-.75-.6,7.3,7.3,0,0,0,2.46-3.36l.96.285c-.241.45-.345.66-.63,1.125h2.37a8.868,8.868,0,0,0,1.484-.09v.945a11.61,11.61,0,0,0-1.38-.06h-.974a13.806,13.806,0,0,1,.779,1.32l-.824.3a11.724,11.724,0,0,0-.856-1.619Zm-.389,2.73a6.883,6.883,0,0,0-1.231.075V70.55a6.487,6.487,0,0,0,1.231.076h2.595a6.366,6.366,0,0,0,1.245-.076v.916a6.635,6.635,0,0,0-1.2-.075h-.87v1.784c.7-.194,1.066-.3,2.071-.629l.075.734a41.572,41.572,0,0,1-4.41,1.275c-.465.12-.555.136-.9.241l-.284-.946a14.906,14.906,0,0,0,2.565-.464V71.391Zm6.045-2.73a8.927,8.927,0,0,1-1.111,1.454,2.3,2.3,0,0,0-.719-.524,6.855,6.855,0,0,0,1.9-3.165l.915.285a11.913,11.913,0,0,1-.54,1.155h3.465a9.442,9.442,0,0,0,1.6-.09v.96a12.309,12.309,0,0,0-1.575-.075h-1.68a11.514,11.514,0,0,1,.75,1.139l-.78.42a10.574,10.574,0,0,0-.885-1.559Zm.449,3.014a15.559,15.559,0,0,1,1.44,1.86l-.66.525a9.7,9.7,0,0,0-1.394-1.934Z"/><path class="cls-1" d="M292.471,67.386a22.772,22.772,0,0,0-.195,3.164c-.06,1.8-.106,3.84-.106,4.516,0,.179.016.554.03.9a2.362,2.362,0,0,0,.7,1.8,2.831,2.831,0,0,0,1.875.585,4.307,4.307,0,0,0,4.02-2.61,8.878,8.878,0,0,0,.735-2.354,4.3,4.3,0,0,0,1.08.72,9.118,9.118,0,0,1-1.665,3.405,5.253,5.253,0,0,1-4.229,1.875,3.555,3.555,0,0,1-2.82-1.051,4.171,4.171,0,0,1-.826-3.074c0-1,.016-1.38.135-6.1.016-.45.016-.735.016-.975a4.613,4.613,0,0,0-.061-.8Z"/><path class="cls-1" d="M304.155,69.186h.54c.21,0,.39-.015.856-.045,1.784-.135,6.584-.405,8.519-.5a10.1,10.1,0,0,0,1.786-.165l.089,1.125a7.007,7.007,0,0,0-1.68.194,7.633,7.633,0,0,0-2.88,1.516,4.586,4.586,0,0,0-1.845,3.464,2.942,2.942,0,0,0,2.1,2.775,7.675,7.675,0,0,0,2.249.48h.15l-.195,1.215c-.165-.03-.225-.045-.465-.09a7.548,7.548,0,0,1-3.239-1.155,3.648,3.648,0,0,1-1.665-3.059,5.684,5.684,0,0,1,2.8-4.605,9.819,9.819,0,0,1,1.425-.795,29.068,29.068,0,0,1-3.3.33,44.057,44.057,0,0,0-5.174.495Z"/><path class="cls-1" d="M320.986,68.466a10.762,10.762,0,0,0-.105,1.785,25.675,25.675,0,0,0,.39,4.664c.33,1.531.945,2.565,1.514,2.565.271,0,.526-.255.75-.75a10.837,10.837,0,0,0,.781-2.565,4.757,4.757,0,0,0,.884.855c-.735,2.625-1.424,3.63-2.49,3.63-.84,0-1.619-.84-2.13-2.28-.524-1.424-.734-3.344-.809-7.034a8.115,8.115,0,0,0-.045-.885Zm7.245.8a13.037,13.037,0,0,1,2.144,3.419,14.348,14.348,0,0,1,1.125,4l-1.065.435a13.247,13.247,0,0,0-3.119-7.394Z"/><path class="cls-1" d="M345.21,78.935a12.088,12.088,0,0,0-3.059-2.145c-.255-.135-.6-.284-1-.449a4.443,4.443,0,0,1,.029.54,2.6,2.6,0,0,1-.375,1.634,3.019,3.019,0,0,1-2.534.945,3.905,3.905,0,0,1-2.325-.6,1.962,1.962,0,0,1-.81-1.575c0-.989.779-1.77,2.1-2.069a6.525,6.525,0,0,1,1.559-.15,6.677,6.677,0,0,1,1.351.119c-.016-.045-.016-.045-.016-.179a1.322,1.322,0,0,1-.014-.165c-.015-.136-.015-.451-.031-.886-.014-.194-.014-.48-.03-.869-.539.014-1.289.029-1.77.029-.9,0-1.6-.029-2.535-.1A3.591,3.591,0,0,0,335.37,73h-.12l.016-.989a18.513,18.513,0,0,0,3.434.239c.39,0,.915,0,1.335-.014l-.03-2.056c-.435.016-.675.016-1.019.016-1.095,0-2.31-.045-3.661-.15a1.8,1.8,0,0,0-.269-.015,1.225,1.225,0,0,0-.21.015l.015-1.02a18.63,18.63,0,0,0,3.839.3c.3,0,.811-.015,1.305-.015a11.952,11.952,0,0,0-.074-2.16h1.154a16.813,16.813,0,0,0-.1,2.115,21.144,21.144,0,0,0,4.439-.615l.075,1.02c-.255.015-.255.015-1.035.12a31.141,31.141,0,0,1-3.479.36c.014,1.23.014,1.23.029,2.025a18.033,18.033,0,0,0,4.155-.616l.06,1.036c-.2.015-.345.029-.869.105-1.036.165-2.221.285-3.33.359.03.841.03.841.089,2.295a13.16,13.16,0,0,1,4.185,2.19,5.339,5.339,0,0,0,.51.346ZM340.141,76.1a5.549,5.549,0,0,0-1.53-.165c-1.486,0-2.46.54-2.46,1.335s.75,1.245,2.054,1.245a2.171,2.171,0,0,0,1.651-.5,1.964,1.964,0,0,0,.3-1.349Z"/><path class="cls-1" d="M355.95,67.911a5.062,5.062,0,0,0-.059-.87h1.125a12.278,12.278,0,0,0-.075,1.875v.165c2.835-.015,3.989-.045,4.484-.105v1.065a26.648,26.648,0,0,0-2.864-.075c-.226,0-.391,0-1.606.03v2.97a4.293,4.293,0,0,1,.361,1.77,4.829,4.829,0,0,1-2.01,3.914,9.559,9.559,0,0,1-2.37,1.215,3.307,3.307,0,0,0-.66-.945,7.681,7.681,0,0,0,2.429-1.125,3.885,3.885,0,0,0,1.68-3.164,2.12,2.12,0,0,1-.4.734,2.508,2.508,0,0,1-4.35-1.56,2.494,2.494,0,0,1,2.654-2.474,2.307,2.307,0,0,1,1.741.675c-.016-.21-.016-.27-.016-.826,0-.059-.015-.21-.015-.389v-.78c-3.014.06-6.045.209-7.05.375l-.044-1.095c.27.015.375.015.6.015.436,0,.436,0,2.851-.09,1.439-.06,2.609-.09,3.63-.12Zm-.644,4.514a1.932,1.932,0,0,0-1.006-.239,1.587,1.587,0,0,0-1.664,1.575,1.449,1.449,0,0,0,1.545,1.484,1.681,1.681,0,0,0,1.755-1.77A1.089,1.089,0,0,0,355.306,72.425Z"/><path class="cls-1" d="M368.011,77.81a2.25,2.25,0,1,1-2.25-2.25A2.248,2.248,0,0,1,368.011,77.81Zm-3.646,0a1.4,1.4,0,1,0,1.4-1.395A1.4,1.4,0,0,0,364.365,77.81Z"/><path class="cls-1" d="M496,1V92H1V1H496m1-1H0V93H497V0Z"/></svg>