<svg data-name="4" xmlns="http://www.w3.org/2000/svg" viewBox="0 0 33.5 28"><path d="M7.435,28c-3.955,0-7.435-2.571-7.435-8.384v-11.232C0,2.571,3.48,0,7.435,0s7.435,2.571,7.435,8.384v11.232c0,5.813-3.48,8.384-7.435,8.384ZM4.548,19.378c0,3.084.87,4.666,2.887,4.666s2.887-1.582,2.887-4.666v-10.757c0-3.085-.87-4.667-2.887-4.667s-2.887,1.582-2.887,4.667v10.757Z"/><path d="M29.426.355l-7.276,19.181h4.587v-7.436h4.548v7.436h2.215v3.994h-2.215v4.113h-4.548v-4.113h-9.808v-3.243L24.681.355h4.745Z"/></svg>